start_time,end_time,note_value,velocity,instrument_program_number
1.5418217,1.6549779,74,52,1
1.7681342,1.9841636,72,63,1
1.9841636,2.0921783,71,37,1
2.2001932,2.3098745,71,43,1
2.4195557,2.5309474,71,37,1
2.6423392,2.8617017,71,55,1
2.8617017,2.9713829,72,40,1
3.3004267,3.4126937,75,51,1
3.5249608,3.7409902,72,63,1
3.7409902,3.849005,71,37,1
3.9570198,4.0662775,71,44,1
4.175535,4.287802,71,37,1
4.400069,4.6194315,71,57,1
4.6194315,4.729113,72,47,1
5.0581565,5.2818203,75,54,1
5.2818203,5.4970436,72,63,1
5.4970436,5.6046553,70,52,1
5.7122674,5.8219485,70,54,1
5.9316297,6.041311,70,54,1
6.1509924,6.3670216,72,63,1
6.3670216,6.4750366,70,53,1
6.583051,6.6927323,70,55,1
6.8024135,6.912095,70,55,1
7.021776,7.129388,72,63,1
7.129388,7.2369995,70,52,1
7.2369995,7.3446116,69,53,1
7.3446116,7.4522233,70,53,1
7.4522233,7.563178,72,58,1
7.6741333,7.788202,74,54,1
7.9022703,8.127917,70,58,1
9.444092,9.557248,86,52,1
9.670404,9.886434,84,64,1
9.886434,9.994449,83,37,1
10.102464,10.212145,83,43,1
10.321826,10.433218,83,37,1
10.544609,10.763972,83,55,1
10.763972,10.873653,84,42,1
11.202697,11.314964,87,51,1
11.427231,11.64326,84,64,1
11.64326,11.751275,83,37,1
11.85929,11.968548,83,44,1
12.0778055,12.190072,83,37,1
12.30234,12.521702,83,57,1
12.521702,12.631383,84,47,1
12.960427,13.184091,87,54,1
13.184091,13.399314,84,64,1
13.399314,13.506926,82,52,1
13.614537,13.724218,82,54,1
13.8338995,13.943582,82,54,1
14.053263,14.269292,84,64,1
14.269292,14.377307,82,53,1
14.485321,14.595002,82,55,1
14.704684,14.814365,82,55,1
14.9240465,15.031658,84,64,1
15.031658,15.13927,82,52,1
15.13927,15.2468815,81,53,1
15.2468815,15.354493,82,53,1
15.354493,15.465448,84,58,1
15.576404,15.690472,86,54,1
15.804541,16.247566,82,58,1
16.47123,16.583944,74,57,1
16.69666,17.142225,79,60,1
17.142225,17.587791,75,60,1
17.587791,18.026518,72,60,1
18.026518,18.136198,74,60,1
18.24588,18.35556,75,58,1
18.465242,18.573257,77,57,1
18.573257,18.681273,79,53,1
18.681273,18.789288,77,53,1
18.789288,18.8973,75,53,1
18.8973,19.0074,74,59,1
19.0074,19.1175,75,52,1
19.1175,19.23157,74,52,1
19.23157,19.345638,72,53,1
19.345638,20.016628,70,60,1
20.016628,20.129343,70,57,1
20.242058,20.687624,75,60,1
20.687624,21.13319,72,60,1
21.13319,21.584047,69,60,1
21.584047,21.69373,62,54,1
21.584047,21.69373,74,65,1
21.80341,21.913092,72,58,1
21.80341,21.913092,60,49,1
22.022774,22.236372,72,66,1
22.022774,22.236372,60,55,1
22.236372,22.343172,70,60,1
22.236372,22.343172,58,51,1
22.44997,22.559652,57,56,1
22.44997,22.559652,69,67,1
22.669333,22.779015,67,61,1
22.669333,22.779015,55,52,1
22.888697,23.108059,58,61,1
22.888697,23.108059,70,73,1
23.108059,23.21774,57,55,1
23.108059,23.21774,69,66,1
23.327421,23.435032,67,71,1
23.327421,23.435032,55,59,1
23.542645,23.650255,54,55,1
23.542645,23.650255,66,66,1
23.757868,23.98784,67,72,1
23.757868,23.98784,55,60,1
24.217813,24.897123,69,69,1
24.217813,24.897123,62,69,1
24.217813,24.897123,74,81,1
24.897123,25.009836,75,64,1
24.897123,25.009836,63,53,1
25.122551,25.23265,62,57,1
25.122551,25.23265,74,68,1
25.34275,25.45285,60,53,1
25.34275,25.45285,72,64,1
25.56212,25.777344,72,69,1
25.56212,25.777344,60,58,1
25.777344,25.884956,58,53,1
25.777344,25.884956,70,64,1
25.992567,26.10225,69,69,1
25.992567,26.10225,57,58,1
26.21193,26.32785,67,64,1
26.21193,26.32785,55,53,1
26.44377,26.891096,56,60,1
26.44377,26.891096,68,72,1
26.891096,27.35596,66,66,1
26.891096,27.35596,54,55,1
27.35596,27.593603,67,71,1
27.35596,27.593603,55,59,1
28.928057,29.041214,74,52,1
29.15437,29.3704,72,63,1
29.3704,29.478415,71,37,1
29.58643,29.69611,71,43,1
29.805792,29.917183,71,37,1
30.028576,30.134193,71,55,1
30.134193,30.24918,72,49,1
30.24918,30.464403,79,59,1
30.464403,30.572832,77,50,1
30.572832,30.681261,75,45,1
30.681261,30.793528,74,45,1
30.793528,30.905794,72,45,1
30.905794,31.121824,72,63,1
31.121824,31.22984,71,37,1
31.337854,31.447111,71,44,1
31.55637,31.668636,71,37,1
31.780903,32.000267,71,57,1
32.000267,32.109947,72,47,1
32.43899,32.662655,75,54,1
32.662655,32.877876,72,63,1
32.877876,32.98549,70,52,1
33.0931,33.20278,70,54,1
33.312466,33.422146,70,54,1
33.531826,33.747856,72,63,1
33.747856,33.85587,70,53,1
33.963886,34.073566,70,55,1
34.183247,34.29293,70,55,1
34.40261,34.510223,72,63,1
34.510223,34.617832,70,52,1
34.617832,34.725445,69,53,1
34.725445,34.833057,70,53,1
34.833057,34.94401,72,58,1
35.054966,35.169037,74,54,1
35.283104,35.726337,70,58,1
35.95,36.062714,74,57,1
36.17543,36.621,79,60,1
36.621,37.066563,75,60,1
37.066563,37.505287,72,60,1
37.505287,37.61497,74,60,1
37.72465,37.83433,75,58,1
37.94401,38.05203,77,57,1
38.05203,38.16004,79,53,1
38.16004,38.26806,77,53,1
38.26806,38.376072,75,53,1
38.376072,38.48617,74,59,1
38.48617,38.59627,75,52,1
38.59627,38.710342,74,52,1
38.710342,38.82441,72,53,1
38.82441,39.50263,70,60,1
39.50263,39.6167,70,46,1
39.730766,40.176334,75,48,1
40.176334,40.621902,72,48,1
40.621902,41.060627,68,48,1
41.060627,41.279987,70,48,1
41.279987,41.49935,72,46,1
41.49935,41.944916,75,48,1
41.944916,42.1677,73,48,1
42.1677,42.390484,72,48,1
42.390484,42.82921,70,48,1
42.82921,42.938892,72,48,1
43.048573,43.158253,73,46,1
43.267933,43.377617,75,46,1
43.377617,43.487297,77,42,1
43.487297,43.596977,75,42,1
43.596977,43.70666,73,42,1
43.70666,43.81676,72,47,1
43.81676,43.92686,73,42,1
43.92686,44.039127,72,42,1
44.039127,44.151394,70,42,1
44.151394,44.602276,68,48,1
44.602276,44.714108,70,48,1
44.82594,44.937775,72,44,1
45.049606,45.27327,75,48,1
45.27327,45.3851,73,48,1
45.496933,45.60619,73,48,1
45.60619,45.715446,75,44,1
45.715446,45.824703,73,44,1
45.824703,45.933964,72,44,1
45.933964,46.152477,70,48,1
46.152477,46.26431,75,49,1
46.37614,46.487972,77,53,1
46.599804,46.711636,79,56,1
46.823467,47.707825,68,50,1
46.823467,47.707825,80,59,1
47.707825,48.371365,72,51,1
47.707825,48.371365,84,60,1
48.371365,48.59503,68,47,1
48.371365,48.59503,80,55,1
48.59503,49.037315,68,50,1
48.59503,49.037315,80,59,1
49.037315,49.926548,79,55,1
49.037315,49.926548,67,47,1
49.926548,50.370365,79,57,1
49.926548,50.370365,67,48,1
50.370365,50.807396,79,63,1
50.370365,50.807396,67,52,1
50.807396,51.251217,65,49,1
50.807396,51.251217,77,58,1
51.251217,51.9187,82,67,1
51.251217,51.9187,70,57,1
51.9187,52.142365,69,51,1
51.9187,52.142365,81,61,1
52.142365,52.36088,81,61,1
52.142365,52.36088,69,51,1
52.36088,52.579395,67,46,1
52.36088,52.579395,79,54,1
52.579395,53.026722,87,71,1
52.579395,53.026722,75,59,1
53.026722,53.47405,74,52,1
53.026722,53.47405,86,63,1
53.47405,53.921375,84,53,1
53.47405,53.921375,72,45,1
53.921375,54.14504,70,44,1
53.921375,54.14504,82,53,1
54.368702,54.477962,74,46,1
54.51438,54.62364,74,48,1
54.660057,54.769314,74,50,1
54.805737,54.914993,74,51,1
54.951412,55.06067,74,49,1
55.097088,55.206345,74,47,1
55.242767,55.355034,74,51,1
55.355034,55.4673,72,46,1
55.4673,55.579567,74,47,1
55.579567,55.691833,75,47,1
55.691833,55.930458,74,53,1
57.265896,57.379055,86,52,1
57.49221,57.70824,84,63,1
57.70824,57.816254,83,37,1
57.924267,58.03395,83,43,1
58.14363,58.255024,83,37,1
58.366413,58.472034,83,55,1
58.472034,58.58702,84,49,1
58.58702,58.802242,91,59,1
58.802242,58.91067,89,50,1
58.91067,59.0191,87,45,1
59.0191,59.131367,86,45,1
59.131367,59.243633,84,45,1
59.243633,59.459663,84,63,1
59.459663,59.56768,83,37,1
59.675694,59.78495,83,44,1
59.89421,60.006477,83,37,1
60.118744,60.338104,83,57,1
60.338104,60.44779,84,47,1
60.77683,61.000496,87,54,1
61.000496,61.215717,84,63,1
61.215717,61.32333,82,52,1
61.430943,61.540623,82,54,1
61.650303,61.759983,82,54,1
61.869667,62.085697,84,63,1
62.085697,62.19371,82,53,1
62.301723,62.411407,82,55,1
62.521088,62.630768,82,55,1
62.74045,62.84806,79,63,1
62.84806,62.955673,77,52,1
62.955673,63.063286,76,53,1
63.063286,63.1709,77,53,1
63.1709,63.281853,75,58,1
63.392807,63.506874,72,54,1
63.620945,63.731472,70,58,1
63.842003,63.949615,74,55,1
64.05723,64.16691,77,55,1
64.27659,64.388855,82,55,1
64.50112,64.725655,86,60,1
64.725655,64.83661,84,58,1
64.94757,65.058525,84,61,1
65.16948,65.28043,84,58,1
65.39139,65.499,79,63,1
65.499,65.60661,77,52,1
65.60661,65.714226,76,53,1
65.714226,65.82184,77,53,1
65.82184,65.93279,72,58,1
66.04375,66.1569,69,54,1
66.27006,66.48857,86,65,1
66.48857,66.6004,84,58,1
66.712234,66.824066,84,61,1
66.9359,67.04773,84,58,1
67.15956,67.26717,79,63,1
67.26717,67.37479,77,52,1
67.37479,67.4824,76,53,1
67.4824,67.59001,77,53,1
67.59001,67.700966,72,58,1
67.81192,67.92599,69,54,1
68.040054,68.258575,81,54,1
68.258575,68.37041,79,49,1
68.48224,68.59407,79,52,1
68.7059,68.81773,79,49,1
68.929565,69.03718,86,53,1
69.03718,69.14478,84,44,1
69.14478,69.252396,83,45,1
69.252396,69.36001,84,45,1
69.36001,69.47096,79,49,1
69.58192,69.69599,76,46,1
69.81006,70.02857,81,54,1
70.02857,70.1404,79,49,1
70.252235,70.36407,79,52,1
70.4759,70.58773,79,49,1
70.69956,70.807175,86,53,1
70.807175,70.91479,84,44,1
70.91479,71.0224,83,45,1
71.0224,71.13001,84,45,1
71.13001,71.24097,79,49,1
71.35192,71.46599,76,46,1
71.580055,71.68767,74,53,1
71.68767,71.79528,72,44,1
71.79528,71.90289,71,45,1
71.90289,72.010506,72,45,1
72.010506,72.12146,67,49,1
72.232414,72.34648,64,46,1
74.52566,74.650314,72,52,1
74.52566,74.650314,64,52,1
74.52566,74.650314,67,52,1
74.77637,74.90349,69,52,1
74.77637,74.90349,72,52,1
74.77637,74.90349,64,52,1
75.03224,75.16212,72,52,1
75.03224,75.16212,70,52,1
75.03224,75.16212,64,52,1
75.42586,75.55426,69,34,1
75.55426,75.67892,65,33,1
75.67892,75.800224,69,33,1
75.29369,75.800224,72,52,1
75.91818,76.03374,69,39,1
76.03374,76.14975,65,39,1
76.14975,76.265755,69,39,1
75.800224,76.265755,77,53,1
76.265755,76.382545,72,52,1
76.382545,76.498566,69,38,1
76.498566,76.613655,64,38,1
76.613655,76.727844,69,38,1
76.265755,76.727844,76,52,1
76.727844,76.84187,70,51,1
76.84187,76.956665,65,34,1
76.956665,77.07206,62,34,1
77.07206,77.18746,65,34,1
76.727844,77.18746,74,51,1
77.18746,77.30302,69,51,1
77.30302,77.418106,65,35,1
77.418106,77.53259,62,35,1
77.53259,77.64662,65,35,1
77.18746,77.64662,74,51,1
77.64662,77.76006,69,49,1
77.76006,77.87366,65,35,1
77.87366,77.98784,60,35,1
77.98784,78.10262,65,35,1
77.64662,78.10262,72,49,1
78.10262,78.21636,69,50,1
78.21636,78.32981,64,36,1
78.32981,78.4428,60,36,1
78.4428,78.55536,64,36,1
78.10262,78.55536,72,50,1
78.55536,78.67091,67,49,1
78.67091,78.78647,64,34,1
78.78647,78.90202,58,34,1
78.90202,79.01592,64,34,1
78.55536,79.01592,70,49,1
79.01592,79.12877,67,50,1
79.12877,79.242065,62,35,1
79.242065,79.35565,58,35,1
79.35565,79.46954,62,35,1
79.01592,79.46954,70,50,1
79.46954,79.583725,65,49,1
79.583725,79.69836,62,35,1
79.69836,79.8133,57,35,1
79.8133,79.92854,62,35,1
79.46954,79.92854,69,49,1
79.92854,80.044556,64,48,1
80.044556,80.16056,61,36,1
80.16056,80.276115,57,36,1
80.276115,80.39167,61,36,1
79.92854,80.39167,69,48,1
80.5063,80.62125,64,35,1
80.62125,80.73649,57,35,1
80.73649,80.85204,64,35,1
80.39167,80.85204,67,47,1
80.96668,81.081314,64,38,1
81.081314,81.195496,57,42,1
81.195496,81.30968,64,45,1
80.85204,81.30968,67,48,1
81.423416,81.537155,62,39,1
81.537155,81.65045,57,39,1
81.65045,81.763596,62,39,1
81.30968,81.763596,65,52,1
81.763596,82.21677,64,49,1
82.21677,82.66994,62,47,1
83.824135,83.94511,72,52,1
83.824135,83.94511,67,52,1
83.824135,83.94511,64,52,1
84.06755,84.19152,72,52,1
84.06755,84.19152,69,52,1
84.06755,84.19152,64,52,1
84.31705,84.44417,72,52,1
84.31705,84.44417,70,52,1
84.31705,84.44417,64,52,1
84.70187,84.8274,69,37,1
84.8274,84.94985,65,37,1
84.94985,85.06938,69,37,1
84.57311,85.06938,72,52,1
85.18579,85.301346,69,40,1
85.301346,85.41735,65,40,1
85.41735,85.53336,69,42,1
85.06938,85.53336,77,53,1
85.53336,85.650154,72,52,1
85.650154,85.76617,69,38,1
85.76617,85.88126,64,38,1
85.88126,85.995445,69,38,1
85.53336,85.995445,76,52,1
85.995445,86.10948,70,51,1
86.10948,86.22427,65,34,1
86.22427,86.33967,62,34,1
86.33967,86.45507,65,34,1
85.995445,86.45507,74,51,1
86.45507,86.57062,69,48,1
86.57062,86.685715,65,37,1
86.685715,86.8002,62,37,1
86.8002,86.91423,65,37,1
86.45507,86.91423,74,48,1
86.91423,87.02767,69,49,1
87.02767,87.141266,65,35,1
87.141266,87.25545,60,35,1
87.25545,87.37023,65,35,1
86.91423,87.37023,72,49,1
87.37023,87.48397,69,49,1
87.48397,87.59741,64,36,1
87.59741,87.71041,60,36,1
87.71041,87.82297,64,37,1
87.37023,87.82297,72,49,1
87.82297,87.93992,67,49,1
87.93992,88.05687,64,35,1
88.05687,88.17382,58,35,1
88.17382,88.288185,64,35,1
87.82297,88.288185,70,49,1
88.288185,88.40103,67,50,1
88.40103,88.51433,62,36,1
88.51433,88.627914,58,36,1
88.627914,88.741806,62,36,1
88.288185,88.741806,70,50,1
88.741806,88.85599,65,49,1
88.85599,88.97062,62,36,1
88.97062,89.08556,57,36,1
89.08556,89.200806,62,36,1
88.741806,89.200806,69,49,1
89.200806,89.31682,64,48,1
89.31682,89.43282,61,36,1
89.43282,89.54838,57,36,1
89.54838,89.66393,61,36,1
89.200806,89.66393,69,48,1
89.778564,89.89351,64,37,1
89.89351,90.01189,57,37,1
90.01189,90.130264,64,37,1
89.66393,90.130264,67,47,1
90.2449,90.359535,64,38,1
90.359535,90.47372,57,42,1
90.47372,90.5879,64,45,1
90.130264,90.5879,67,48,1
90.70164,90.81538,62,43,1
90.81538,90.92867,57,44,1
90.92867,91.04182,62,44,1
90.5879,91.04182,66,52,1
91.154816,91.26796,62,40,1
91.26796,91.38155,59,38,1
91.38155,91.49558,62,36,1
91.04182,91.49558,64,49,1
91.61028,91.72641,61,33,1
91.72641,91.84452,57,33,1
91.84452,91.96468,61,33,1
91.49558,91.96468,66,45,1
92.09133,92.20852,57,35,1
92.20852,92.32525,54,35,1
92.32525,92.44153,57,35,1
91.96468,92.44153,62,43,1
92.55736,92.672745,59,35,1
92.672745,92.78769,55,35,1
92.78769,92.90219,59,35,1
92.44153,92.90219,64,49,1
93.01413,93.12683,60,35,1
93.12683,93.23968,57,36,1
93.23968,93.35253,60,36,1
92.90219,93.35253,66,49,1
93.46703,93.581535,60,38,1
93.581535,93.69604,57,38,1
93.69604,93.81055,60,39,1
93.35253,93.81055,66,52,1
93.922485,94.034424,60,39,1
94.034424,94.14636,57,39,1
94.14636,94.25831,60,38,1
93.81055,94.25831,66,56,1
94.371086,94.48387,62,37,1
94.48387,94.59665,59,36,1
94.59665,94.709435,62,35,1
94.25831,94.709435,67,52,1
94.82221,94.935,62,35,1
94.935,95.047775,57,35,1
95.047775,95.16056,62,35,1
94.709435,95.16056,66,49,1
95.27339,95.38683,61,35,1
95.38683,95.50116,57,35,1
95.50116,95.61626,61,35,1
95.16056,95.61626,64,49,1
95.74105,95.856606,62,35,1
95.856606,95.97178,60,35,1
95.97178,96.08649,62,35,1
95.61626,96.08649,66,47,1
96.2009,96.31486,64,35,1
96.31486,96.42852,60,35,1
96.42852,96.54174,64,35,1
96.08649,96.54174,67,49,1
96.654594,96.767075,66,35,1
96.767075,96.87913,60,36,1
96.87913,96.991035,66,36,1
96.54174,96.991035,69,49,1
97.10613,97.22122,66,38,1
97.22122,97.33632,60,38,1
97.33632,97.45141,66,39,1
96.991035,97.45141,69,52,1
97.56559,97.67977,66,39,1
97.67977,97.79395,60,39,1
97.79395,97.908134,66,38,1
97.45141,97.908134,69,56,1
98.02172,98.13502,67,37,1
98.13502,98.24831,59,36,1
98.24831,98.3616,67,35,1
97.908134,98.3616,71,52,1
98.47489,98.58819,66,35,1
98.58819,98.701485,62,35,1
98.701485,98.81477,66,35,1
98.3616,98.81477,69,49,1
98.92777,99.041214,64,35,1
99.041214,99.15959,61,35,1
99.15959,99.27798,64,35,1
98.81477,99.27798,69,49,1
99.404625,99.522514,66,31,1
99.522514,99.64041,62,31,1
99.64041,99.75815,66,31,1
99.27798,99.75815,69,42,1
99.873245,99.988335,69,31,1
99.988335,100.10343,62,31,1
100.10343,100.21806,69,31,1
99.75815,100.21806,74,39,1
100.3327,100.44718,69,31,1
100.44718,100.56136,64,32,1
100.56136,100.675545,69,32,1
100.21806,100.675545,73,44,1
100.79156,100.90756,69,34,1
100.90756,101.023575,64,33,1
101.023575,101.13777,69,33,1
100.675545,101.13777,76,40,1
101.25195,101.366135,66,32,1
101.366135,101.480316,62,32,1
101.480316,101.5945,66,32,1
101.13777,101.5945,69,39,1
101.7105,101.826515,67,31,1
101.826515,101.94253,62,31,1
101.94253,102.05731,67,31,1
101.5945,102.05731,71,39,1
102.1718,102.28643,67,31,1
102.28643,102.40107,64,31,1
102.40107,102.5157,67,31,1
102.05731,102.5157,69,40,1
102.630035,102.74452,67,31,1
102.74452,102.85946,61,31,1
102.85946,102.97486,67,31,1
102.5157,102.97486,69,38,1
103.10151,103.219406,66,31,1
103.219406,103.3373,62,31,1
103.3373,103.45381,66,31,1
102.97486,103.45381,69,42,1
103.56755,103.68129,69,31,1
103.68129,103.79503,62,31,1
103.79503,103.90877,69,31,1
103.45381,103.90877,74,39,1
104.02251,104.13595,69,31,1
104.13595,104.249245,64,32,1
104.249245,104.36253,69,32,1
103.90877,104.36253,73,44,1
104.47717,104.591805,69,34,1
104.591805,104.70644,64,33,1
104.70644,104.81929,69,33,1
104.36253,104.81929,76,40,1
104.9353,105.05131,66,32,1
105.05131,105.16732,62,32,1
105.16732,105.283325,66,32,1
104.81929,105.283325,69,40,1
105.39871,105.5141,67,31,1
105.5141,105.629486,62,31,1
105.629486,105.744865,67,31,1
105.283325,105.744865,70,39,1
105.85975,105.97439,67,31,1
105.97439,106.08902,64,31,1
106.08902,106.20366,67,31,1
105.744865,106.20366,69,39,1
106.317986,106.43247,67,31,1
106.43247,106.54742,61,31,1
106.54742,106.66281,67,31,1
106.20366,106.66281,69,38,1
106.778824,106.89483,66,31,1
106.89483,107.01084,62,31,1
107.01084,107.12685,66,31,1
106.66281,107.12685,69,44,1
107.24268,107.35851,67,29,1
107.35851,107.47434,62,28,1
107.47434,107.59017,67,28,1
107.12685,107.59017,70,37,1
107.7052,107.81984,67,28,1
107.81984,107.93447,64,28,1
107.93447,108.04911,67,28,1
107.59017,108.04911,69,36,1
108.163445,108.27792,67,28,1
108.27792,108.39339,61,28,1
108.39339,108.51027,67,28,1
108.04911,108.51027,69,34,1
108.62681,108.742424,65,28,1
108.742424,108.857124,62,28,1
108.857124,108.971306,65,28,1
108.51027,108.971306,69,36,1
109.08549,109.19997,65,28,1
109.19997,109.314606,60,28,1
109.314606,109.42924,65,28,1
108.971306,109.42924,69,34,1
109.541595,109.65395,64,28,1
109.65395,109.76632,60,28,1
109.76632,109.87868,64,28,1
109.42924,109.87868,69,36,1
109.99225,110.106735,64,28,1
110.106735,110.22167,60,28,1
110.22167,110.337074,64,28,1
109.87868,110.337074,67,34,1
110.45231,110.56682,63,28,1
110.56682,110.68045,60,28,1
110.68045,110.793236,63,28,1
110.337074,110.793236,67,36,1
110.90681,111.02129,63,28,1
111.02129,111.13623,58,28,1
111.13623,111.25163,63,28,1
110.793236,111.25163,67,34,1
111.36627,111.4809,62,28,1
111.4809,111.595535,58,28,1
111.595535,111.710175,62,28,1
111.25163,111.710175,67,36,1
111.82451,111.93899,62,28,1
111.93899,112.05393,58,28,1
112.05393,112.16902,62,28,1
111.710175,112.16902,65,34,1
112.28482,112.40044,62,32,1
112.40044,112.51513,58,32,1
112.51513,112.62931,62,32,1
112.16902,112.62931,65,42,1
112.74349,112.85798,62,33,1
112.85798,112.972916,57,33,1
112.972916,113.08832,62,33,1
112.62931,113.08832,65,39,1
113.20295,113.31759,60,34,1
113.31759,113.43222,57,34,1
113.43222,113.54686,60,34,1
113.08832,113.54686,65,44,1
113.66119,113.77567,60,35,1
113.77567,113.89061,57,35,1
113.89061,114.00601,60,35,1
113.54686,114.00601,64,43,1
114.12293,114.23855,60,34,1
114.23855,114.35324,57,36,1
114.35324,114.46742,60,38,1
114.00601,114.46742,64,46,1
114.581604,114.69609,67,38,1
114.69609,114.81103,64,38,1
114.81103,114.92643,67,38,1
114.46742,114.92643,72,50,1
115.04198,115.15799,69,38,1
115.15799,115.27447,65,37,1
115.27447,115.39126,69,34,1
114.92643,115.39126,72,51,1
115.50916,115.63052,70,35,1
115.63052,115.75555,64,35,1
115.75555,115.88464,70,35,1
115.39126,115.88464,72,43,1
116.01242,116.13655,69,38,1
116.13655,116.25723,65,38,1
116.25723,116.37562,69,38,1
115.88464,116.37562,72,52,1
116.49195,116.6075,69,43,1
116.6075,116.72351,65,44,1
116.72351,116.839516,69,44,1
116.37562,116.839516,77,53,1
116.839516,116.956314,72,52,1
116.956314,117.07233,69,38,1
117.07233,117.187416,64,38,1
117.187416,117.301605,69,38,1
116.839516,117.301605,76,52,1
117.301605,117.415634,70,51,1
117.415634,117.530426,65,34,1
117.530426,117.64583,62,34,1
117.64583,117.76122,65,34,1
117.301605,117.76122,74,51,1
117.76122,117.87678,69,50,1
117.87678,117.99187,65,36,1
117.99187,118.10635,62,36,1
118.10635,118.22039,65,36,1
117.76122,118.22039,74,50,1
118.22039,118.33383,69,49,1
118.33383,118.44742,65,35,1
118.44742,118.5616,60,35,1
118.5616,118.67639,65,35,1
118.22039,118.67639,72,49,1
118.67639,118.79013,69,50,1
118.79013,118.90357,64,36,1
118.90357,119.01657,60,36,1
119.01657,119.12913,64,36,1
118.67639,119.12913,72,50,1
119.12913,119.24125,67,49,1
119.24125,119.353516,64,35,1
119.353516,119.46622,58,35,1
119.46622,119.579216,64,35,1
119.12913,119.579216,70,49,1
119.579216,119.69207,67,50,1
119.69207,119.80536,62,36,1
119.80536,119.91895,58,36,1
119.91895,120.03284,62,36,1
119.579216,120.03284,70,50,1
120.03284,120.14702,65,49,1
120.14702,120.26165,62,36,1
120.26165,120.376595,57,36,1
120.376595,120.49184,62,36,1
120.03284,120.49184,69,49,1
120.49184,120.60785,64,48,1
120.60785,120.72386,61,36,1
120.72386,120.83941,57,36,1
120.83941,120.95496,61,36,1
120.49184,120.95496,69,48,1
121.0696,121.18454,64,37,1
121.18454,121.29979,57,37,1
121.29979,121.41534,64,37,1
120.95496,121.41534,67,47,1
121.529976,121.64461,64,38,1
121.64461,121.75879,57,42,1
121.75879,121.87297,64,45,1
121.41534,121.87297,67,48,1
121.98671,122.10045,62,43,1
122.10045,122.213745,57,44,1
122.213745,122.32689,62,44,1
121.87297,122.32689,65,52,1
122.43989,122.55303,65,35,1
122.55303,122.666626,62,35,1
122.666626,122.780655,65,35,1
122.32689,122.780655,67,49,1
122.895294,123.01038,64,33,1
123.01038,123.12594,60,33,1
123.12594,123.2421,64,33,1
122.780655,123.2421,69,45,1
123.36875,123.48665,60,35,1
123.48665,123.604546,57,35,1
123.604546,123.721504,60,35,1
123.2421,123.721504,65,47,1
123.8366,123.95169,62,35,1
123.95169,124.06663,58,35,1
124.06663,124.18127,62,35,1
123.721504,124.18127,67,49,1
124.29577,124.40998,63,35,1
124.40998,124.52391,60,36,1
124.52391,124.63754,63,36,1
124.18127,124.63754,69,49,1
124.750755,124.86368,63,38,1
124.86368,124.97632,60,38,1
124.97632,125.08854,63,39,1
124.63754,125.08854,69,52,1
125.20272,125.3169,63,37,1
125.3169,125.43108,60,36,1
125.43108,125.54526,63,36,1
125.08854,125.54526,69,53,1
125.6572,125.76914,65,37,1
125.76914,125.88108,62,36,1
125.88108,125.99302,65,35,1
125.54526,125.99302,70,49,1
126.10623,126.21944,65,35,1
126.21944,126.33264,60,35,1
126.33264,126.445854,65,35,1
125.99302,126.445854,69,49,1
126.55882,126.672264,64,35,1
126.672264,126.7866,60,35,1
126.7866,126.90169,64,35,1
126.445854,126.90169,67,49,1
127.028336,127.14389,65,35,1
127.14389,127.259445,63,35,1
127.259445,127.375,65,35,1
126.90169,127.375,69,47,1
127.49009,127.60518,67,35,1
127.60518,127.720276,63,35,1
127.720276,127.83491,67,35,1
127.375,127.83491,70,49,1
127.94955,128.06418,69,35,1
128.06418,128.17836,63,36,1
128.17836,128.29254,69,36,1
127.83491,128.29254,72,49,1
128.4081,128.52365,69,38,1
128.52365,128.6392,63,38,1
128.6392,128.754,69,39,1
128.29254,128.754,72,52,1
128.86818,128.98236,69,39,1
128.98236,129.09654,63,39,1
129.09654,129.21072,69,38,1
128.754,129.21072,72,56,1
129.32431,129.4376,70,37,1
129.4376,129.5509,62,36,1
129.5509,129.6642,70,35,1
129.21072,129.6642,74,52,1
129.77748,129.89078,69,34,1
129.89078,130.00407,65,34,1
130.00407,130.11737,69,34,1
129.6642,130.11737,72,49,1
130.23036,130.34381,67,34,1
130.34381,130.46219,64,33,1
130.46219,130.58057,67,32,1
130.11737,130.58057,72,47,1
130.70721,130.8251,69,31,1
130.8251,130.94301,65,31,1
130.94301,131.06075,69,31,1
130.58057,131.06075,72,42,1
131.17584,131.29092,72,31,1
131.29092,131.40602,65,31,1
131.40602,131.52112,72,31,1
131.06075,131.52112,77,39,1
131.63574,131.75038,72,31,1
131.75038,131.86502,67,32,1
131.86502,131.9795,72,32,1
131.52112,131.9795,76,44,1
132.09369,132.20787,72,34,1
132.20787,132.32205,67,33,1
132.32205,132.43593,72,33,1
131.9795,132.43593,79,40,1
132.55194,132.66795,69,32,1
132.66795,132.78397,65,32,1
132.78397,132.89996,69,32,1
132.43593,132.89996,72,44,1
133.01418,133.12746,70,31,1
133.12746,133.24106,65,31,1
133.24106,133.35509,70,31,1
132.89996,133.35509,74,39,1
133.46957,133.58421,70,31,1
133.58421,133.69884,67,31,1
133.69884,133.81348,70,31,1
133.35509,133.81348,72,40,1
133.92781,134.0423,70,31,1
134.0423,134.15858,64,31,1
134.15858,134.27795,70,31,1
133.81348,134.27795,72,38,1
134.40895,134.52707,69,31,1
134.52707,134.64517,65,31,1
134.64517,134.76328,69,31,1
134.27795,134.76328,72,42,1
134.8791,134.99495,72,31,1
134.99495,135.11078,65,31,1
135.11078,135.22661,72,31,1
134.76328,135.22661,77,39,1
135.34198,135.45708,72,31,1
135.45708,135.57187,67,32,1
135.57187,135.68637,72,32,1
135.22661,135.68637,76,44,1
135.80045,135.91452,72,34,1
135.91452,136.02858,67,33,1
136.02858,136.14265,72,33,1
135.68637,136.14265,79,40,1
136.25893,136.37521,69,32,1
136.37521,136.49149,65,32,1
136.49149,136.60777,69,32,1
136.14265,136.60777,72,44,1
136.72496,136.84215,70,31,1
136.84215,136.95934,65,31,1
136.95934,137.07652,70,31,1
136.60777,137.07652,73,39,1
137.19463,137.3132,70,31,1
137.3132,137.43178,67,31,1
137.43178,137.55035,70,31,1
137.07652,137.55035,72,39,1
137.66862,137.78705,70,31,1
137.78705,137.90594,64,31,1
137.90594,138.0253,70,31,1
137.55035,138.0253,72,38,1
139.93765,140.7743,77,106,1
139.93765,140.7743,72,89,1
139.93765,140.7743,68,89,1
140.7743,140.88785,77,92,1
140.7743,140.88785,72,77,1
140.7743,140.88785,68,77,1
140.89383,141.23691,80,96,1
140.89383,141.23691,72,81,1
140.89383,141.23691,68,81,1
141.23691,141.34486,80,91,1
141.23691,141.34486,72,76,1
141.23691,141.34486,68,76,1
141.35054,141.68932,77,96,1
141.35054,141.68932,72,81,1
141.35054,141.68932,68,81,1
141.68932,141.79594,77,92,1
141.68932,141.79594,72,77,1
141.68932,141.79594,68,77,1
141.80154,142.13736,72,96,1
141.80154,142.13736,68,81,1
141.80154,142.13736,65,81,1
142.13736,142.2437,72,92,1
142.13736,142.2437,68,77,1
142.13736,142.2437,65,77,1
142.2493,142.58511,68,91,1
142.2493,142.58511,65,77,1
142.2493,142.58511,60,77,1
142.58511,142.69147,68,86,1
142.58511,142.69147,65,72,1
142.58511,142.69147,60,72,1
142.69705,143.0354,65,91,1
142.69705,143.0354,60,77,1
142.69705,143.0354,56,77,1
143.0354,143.14255,65,86,1
143.0354,143.14255,60,72,1
143.0354,143.14255,56,72,1
143.1482,143.48653,60,91,1
143.1482,143.48653,56,77,1
143.48653,143.59932,65,85,1
143.48653,143.59932,60,71,1
143.48653,143.59932,56,71,1
143.59932,143.71085,66,96,1
143.59932,143.71085,61,81,1
143.59932,143.71085,58,81,1
143.82236,143.95247,78,61,1
143.93388,144.064,82,65,1
144.04541,144.17552,85,68,1
144.15694,144.28705,83,68,1
144.26846,144.39857,82,67,1
144.37999,144.5101,80,67,1
144.49152,144.62163,78,68,1
144.60303,144.73314,77,68,1
144.71455,144.84467,75,67,1
144.82608,144.95619,73,67,1
144.9376,145.06772,71,67,1
145.04913,145.17924,70,67,1
145.16066,145.29077,68,67,1
145.27217,145.40257,66,67,1
145.3837,145.51578,68,67,1
145.49692,145.62898,65,68,1
145.61012,145.74219,66,72,1
145.72333,145.85526,70,75,1
145.83653,145.96658,73,74,1
145.94806,146.07762,71,73,1
146.05917,146.18832,70,73,1
146.16988,146.29881,68,72,1
146.28044,146.40912,66,71,1
146.39073,146.51907,65,71,1
146.50076,146.62889,63,72,1
146.61064,146.73839,61,73,1
146.72014,146.84767,59,74,1
146.8295,146.95676,58,75,1
146.93858,147.06552,56,76,1
147.04741,147.15598,54,79,1
147.15598,147.37677,54,86,1
147.15598,147.37677,49,86,1
147.37677,147.81586,66,88,1
147.37677,147.81586,61,74,1
147.37677,147.81586,58,74,1
147.81586,148.25241,70,87,1
147.81586,148.25241,66,73,1
147.81586,148.25241,61,73,1
148.25241,148.3603,73,81,1
148.25241,148.3603,70,69,1
148.25241,148.3603,66,69,1
148.46822,148.57613,78,85,1
148.46822,148.57613,73,71,1
148.46822,148.57613,70,71,1
148.68402,148.79842,82,88,1
148.68402,148.79842,78,74,1
148.68402,148.79842,73,74,1
148.9128,149.13359,67,86,1
148.9128,149.13359,64,75,1
148.9128,149.13359,58,75,1
149.13359,149.57266,70,88,1
149.13359,149.57266,67,74,1
149.13359,149.57266,64,74,1
149.57266,150.00922,76,87,1
149.57266,150.00922,70,73,1
149.57266,150.00922,67,73,1
150.00922,150.11713,79,81,1
150.00922,150.11713,76,69,1
150.00922,150.11713,70,69,1
150.22504,150.33295,82,85,1
150.22504,150.33295,79,71,1
150.22504,150.33295,76,71,1
150.44084,150.55432,88,88,1
150.44084,150.55432,82,74,1
150.44084,150.55432,79,74,1
150.66779,151.47456,89,106,1
150.66779,151.47456,77,89,1
150.66779,151.47456,80,89,1
150.66779,151.47456,84,89,1
151.47456,151.5879,89,92,1
151.47456,151.5879,77,77,1
151.5879,151.92485,92,96,1
151.5879,151.92485,80,81,1
151.92485,152.03679,92,91,1
151.92485,152.03679,80,76,1
152.03679,152.37192,89,96,1
152.03679,152.37192,77,81,1
152.37192,152.48344,89,92,1
152.37192,152.48344,77,77,1
152.48344,152.81636,85,96,1
152.48344,152.81636,73,81,1
152.81636,152.92789,85,92,1
152.81636,152.92789,73,77,1
152.92789,153.26413,80,91,1
152.92789,153.26413,68,77,1
153.26413,153.37749,80,86,1
153.26413,153.37749,68,72,1
153.37749,153.72012,81,91,1
153.37749,153.72012,69,77,1
153.72012,153.83522,81,86,1
153.72012,153.83522,69,72,1
153.83522,154.18137,77,91,1
153.83522,154.18137,65,77,1
154.18137,154.29675,77,85,1
154.18137,154.29675,65,71,1
154.29675,155.10352,82,94,1
154.29675,155.10352,70,79,1
154.29675,155.10352,73,79,1
154.29675,155.10352,77,79,1
155.10352,155.21687,94,87,1
155.10352,155.21687,82,73,1
155.21687,155.5538,97,91,1
155.21687,155.5538,85,77,1
155.5538,155.66574,97,86,1
155.5538,155.66574,85,72,1
155.66574,156.00087,94,91,1
155.66574,156.00087,82,77,1
156.00087,156.1124,94,87,1
156.00087,156.1124,82,73,1
156.1124,156.44533,90,91,1
156.1124,156.44533,78,77,1
156.44533,156.55685,90,87,1
156.44533,156.55685,78,73,1
156.55685,156.8931,89,86,1
156.55685,156.8931,77,73,1
156.8931,157.00644,89,80,1
156.8931,157.00644,77,68,1
157.00644,157.34909,88,86,1
157.00644,157.34909,76,73,1
157.34909,157.46417,88,80,1
157.34909,157.46417,76,68,1
157.46417,157.81033,96,86,1
157.46417,157.81033,84,73,1
157.81033,157.9257,96,79,1
157.81033,157.9257,84,67,1
157.9257,158.73248,89,94,1
157.9257,158.73248,77,79,1
157.9257,158.73248,80,79,1
157.9257,158.73248,84,79,1
158.73248,158.84583,89,87,1
158.73248,158.84583,77,73,1
158.84583,159.18277,92,91,1
158.84583,159.18277,80,77,1
159.18277,159.29471,92,86,1
159.18277,159.29471,80,72,1
159.29471,159.62984,89,91,1
159.29471,159.62984,77,77,1
159.62984,159.74136,89,87,1
159.62984,159.74136,77,73,1
159.74136,160.07428,85,91,1
159.74136,160.07428,73,77,1
160.07428,160.1858,85,87,1
160.07428,160.1858,73,73,1
160.1858,160.52205,80,86,1
160.1858,160.52205,68,73,1
160.52205,160.6354,80,80,1
160.52205,160.6354,68,68,1
160.6354,160.97804,84,86,1
160.6354,160.97804,72,73,1
160.97804,161.09314,84,80,1
160.97804,161.09314,72,68,1
161.09314,161.43929,80,86,1
161.09314,161.43929,68,73,1
161.43929,161.55467,80,79,1
161.43929,161.55467,68,67,1
161.55467,162.36143,85,94,1
161.55467,162.36143,73,79,1
161.55467,162.36143,77,79,1
161.55467,162.36143,80,79,1
162.36143,162.4748,85,81,1
162.36143,162.4748,73,69,1
162.4748,162.81172,89,86,1
162.4748,162.81172,77,73,1
162.81172,162.92368,89,80,1
162.81172,162.92368,77,68,1
162.92368,163.25879,85,86,1
162.92368,163.25879,73,73,1
163.25879,163.37032,85,81,1
163.25879,163.37032,73,69,1
163.37032,163.70325,84,86,1
163.37032,163.70325,72,73,1
163.70325,163.81477,84,81,1
163.70325,163.81477,72,69,1
163.81477,164.15102,82,80,1
163.81477,164.15102,70,69,1
164.15102,164.26436,82,76,1
164.15102,164.26436,70,64,1
164.26436,164.60701,84,80,1
164.26436,164.60701,72,69,1
164.60701,164.72209,84,76,1
164.60701,164.72209,72,64,1
164.72209,165.06825,84,80,1
164.72209,165.06825,72,69,1
165.06825,165.18364,84,75,1
165.06825,165.18364,72,63,1
165.18364,165.52895,84,76,1
165.18364,165.52895,72,66,1
165.52895,165.64404,84,68,1
165.52895,165.64404,72,57,1
165.64404,165.99019,84,71,1
165.64404,165.99019,72,60,1
165.99019,166.10558,84,61,1
165.99019,166.10558,72,51,1
166.10558,166.56712,77,58,1
166.91327,167.02866,77,43,1
167.02866,167.3656,81,48,1
167.3656,167.47754,81,43,1
167.47754,167.81267,77,48,1
167.81267,167.92418,77,42,1
167.92418,168.25711,72,48,1
168.25711,168.36864,72,43,1
168.36864,168.70488,69,48,1
168.70488,168.81822,69,43,1
168.81822,169.16087,70,48,1
169.16087,169.27596,70,42,1
169.27596,169.62212,67,48,1
169.62212,169.7375,67,42,1
169.7375,170.08365,72,48,1
170.08365,170.19904,77,36,1
170.19904,170.42981,72,45,1
170.5452,170.66057,77,43,1
170.66057,170.99751,81,48,1
170.99751,171.10945,81,45,1
171.10945,171.44458,84,52,1
171.44458,171.5561,84,48,1
171.5561,171.88902,89,52,1
171.88902,172.00055,89,50,1
172.00055,172.33679,91,56,1
172.33679,172.45015,91,49,1
172.45015,172.79279,93,55,1
172.79279,172.90788,93,48,1
172.90788,173.25403,96,54,1
173.25403,173.36942,96,47,1
173.36942,173.60019,93,53,1
174.17058,174.28378,77,43,1
174.28378,174.62073,81,48,1
174.62073,174.73267,81,43,1
174.73267,175.0678,77,48,1
175.0678,175.17932,77,42,1
175.17932,175.51224,72,48,1
175.51224,175.62376,72,43,1
175.62376,175.96,69,48,1
175.96,176.07336,69,43,1
176.07336,176.416,72,48,1
176.416,176.5311,72,42,1
176.5311,176.87724,70,48,1
176.87724,176.99263,70,42,1
176.99263,177.33879,69,48,1
177.33879,177.45416,77,36,1
177.45416,177.68494,72,45,1
177.80032,177.91571,77,43,1
177.91571,178.25264,81,48,1
178.25264,178.3646,81,45,1
178.3646,178.6997,84,52,1
178.6997,178.81123,84,48,1
178.81123,179.14417,89,52,1
179.14417,179.25569,89,50,1
179.25569,179.59193,91,56,1
179.59193,179.70528,91,49,1
179.70528,180.04793,93,55,1
180.04793,180.16301,93,48,1
180.16301,180.50917,96,54,1
180.50917,180.62456,96,47,1
180.62456,180.85532,101,53,1
181.4283,181.54236,88,43,1
181.54236,181.8793,89,48,1
181.8793,181.99124,89,45,1
181.99124,182.32637,87,52,1
182.32637,182.4379,87,48,1
182.4379,182.77081,84,52,1
182.77081,182.88234,84,50,1
182.88234,183.21706,81,56,1
183.21706,183.32858,81,49,1
183.32858,183.66426,84,55,1
183.66426,183.7762,84,48,1
183.7762,184.11314,85,54,1
184.11314,184.2255,85,47,1
184.2255,184.56133,86,55,1
184.56133,184.67326,86,47,1
184.67326,185.0102,86,52,1
185.0102,185.12256,86,44,1
185.12256,185.46246,86,51,1
185.46246,185.57654,86,43,1
185.57654,185.92049,86,48,1
185.92049,186.03587,86,40,1
186.03587,186.26503,86,47,1
186.84273,186.93062,74,48,1
186.95992,187.19429,75,53,1
187.19429,187.43176,74,49,1
187.43176,187.55081,74,51,1
187.66986,187.79034,74,49,1
187.91083,188.1452,74,47,1
188.73114,188.84833,93,43,1
188.84833,189.18527,94,48,1
189.18527,189.29721,94,45,1
189.29721,189.63234,92,52,1
189.63234,189.74385,92,48,1
189.74385,190.07678,89,52,1
190.07678,190.18831,89,48,1
190.18831,190.52301,86,54,1
190.52301,190.63454,86,49,1
190.63454,190.97023,89,54,1
190.97023,191.08217,89,48,1
191.08217,191.4191,90,54,1
191.4191,191.53146,90,47,1
191.53146,191.86728,91,55,1
191.86728,191.97922,91,47,1
191.97922,192.31616,91,52,1
192.31616,192.42853,91,44,1
192.42853,192.76843,91,51,1
192.76843,192.8825,91,43,1
192.8825,193.22646,91,48,1
193.22646,193.34184,91,40,1
193.34184,193.571,91,47,1
194.1487,194.23659,79,48,1
194.26588,194.50026,80,53,1
194.50026,194.61868,79,49,1
194.73773,194.85678,79,51,1
194.97583,195.09631,79,49,1
195.2168,195.45117,79,47,1
196.03711,196.125,94,48,1
196.1543,196.38867,92,53,1
196.38867,196.5071,91,49,1
196.62614,196.7452,91,51,1
196.86423,196.98471,91,49,1
197.1052,197.33957,91,47,1
197.9255,198.0134,67,48,1
198.0427,198.27707,68,53,1
198.27707,198.39551,67,49,1
198.51454,198.63359,67,51,1
198.75264,198.87312,67,49,1
198.9936,199.22798,67,47,1
199.81392,199.90181,82,48,1
199.9311,200.16548,80,53,1
200.16548,200.2839,79,49,1
200.40295,200.522,79,51,1
200.64105,200.76154,79,49,1
200.88202,201.12299,80,53,1
201.12299,201.24251,79,49,1
201.36156,201.4806,79,51,1
201.59966,201.72841,79,49,1
201.85716,202.10612,79,53,1
203.56313,203.648,74,52,1
203.67628,203.89232,72,63,1
203.89232,204.00034,71,37,1
204.10835,204.21803,71,43,1
204.32771,204.4391,71,37,1
204.55049,204.76985,71,55,1
204.76985,204.87953,72,40,1
205.32085,205.40504,75,51,1
205.4331,205.64914,72,63,1
205.64914,205.75716,71,37,1
205.86517,205.97443,71,44,1
206.0837,206.19595,71,37,1
206.30823,206.52759,71,57,1
206.52759,206.63727,72,47,1
207.07814,207.16202,75,54,1
207.18997,207.4052,72,63,1
207.4052,207.5128,70,52,1
207.62042,207.7301,70,54,1
207.83978,207.94946,70,54,1
208.05914,208.27518,72,63,1
208.27518,208.3832,70,53,1
208.49121,208.60089,70,55,1
208.71057,208.82025,70,55,1
208.92993,209.03754,72,63,1
209.03754,209.14516,70,52,1
209.14516,209.25276,69,53,1
209.25276,209.36038,70,53,1
209.36038,209.47133,72,58,1
209.58229,209.69635,74,54,1
209.81042,210.03607,70,58,1
211.4654,211.55026,86,52,1
211.57855,211.79459,84,64,1
211.79459,211.9026,83,37,1
212.01062,212.1203,83,43,1
212.22998,212.34137,83,37,1
212.45276,212.67212,83,55,1
212.67212,212.7818,84,42,1
213.22311,213.30731,87,51,1
213.33539,213.5514,84,64,1
213.5514,213.65942,83,37,1
213.76744,213.8767,83,44,1
213.98596,214.09822,83,37,1
214.2105,214.42986,83,57,1
214.42986,214.53954,84,47,1
214.98041,215.06429,87,54,1
215.09224,215.30746,84,64,1
215.30746,215.41508,82,52,1
215.52269,215.63237,82,54,1
215.74205,215.85173,82,54,1
215.96141,216.17744,84,64,1
216.17744,216.28546,82,53,1
216.39348,216.50316,82,55,1
216.61284,216.72252,82,55,1
216.8322,216.9398,84,64,1
216.9398,217.04742,82,52,1
217.04742,217.15503,81,53,1
217.15503,217.26265,82,53,1
217.26265,217.3736,84,58,1
217.48456,217.59862,86,54,1
217.71269,217.93205,82,58,1
218.37938,218.4921,74,57,1
218.60481,219.05038,79,60,1
219.05038,219.49594,75,60,1
219.49594,219.93468,72,60,1
219.93468,220.04436,74,60,1
220.15404,220.26372,75,58,1
220.3734,220.48141,77,57,1
220.48141,220.58943,79,53,1
220.58943,220.69743,77,53,1
220.69743,220.80545,75,53,1
220.80545,220.91556,74,59,1
220.91556,221.02565,75,52,1
221.02565,221.13972,74,52,1
221.13972,221.25378,72,53,1
221.25378,221.92477,70,60,1
221.92477,222.03749,70,57,1
222.1502,222.59578,75,60,1
222.59578,223.04134,72,60,1
223.04134,223.4922,69,60,1
223.4922,223.60188,74,65,1
223.4922,223.60188,62,54,1
223.71156,223.82124,72,58,1
223.71156,223.82124,60,49,1
223.93092,224.14453,72,66,1
223.93092,224.14453,60,55,1
224.14453,224.25133,70,60,1
224.14453,224.25133,58,51,1
224.35812,224.4678,69,67,1
224.35812,224.4678,57,56,1
224.57748,224.68716,67,61,1
224.57748,224.68716,55,52,1
224.79684,225.0162,70,73,1
224.79684,225.0162,58,61,1
225.0162,225.12589,57,55,1
225.0162,225.12589,69,66,1
225.23558,225.34319,67,71,1
225.23558,225.34319,55,59,1
225.45079,225.55841,66,66,1
225.45079,225.55841,54,55,1
225.66602,225.896,67,72,1
225.66602,225.896,55,60,1
226.12596,226.80527,74,81,1
226.12596,226.80527,62,69,1
226.80527,226.91798,75,64,1
226.80527,226.91798,63,53,1
227.0307,227.14081,74,68,1
227.0307,227.14081,62,57,1
227.2509,227.36101,72,64,1
227.2509,227.36101,60,53,1
227.47028,227.6855,72,69,1
227.47028,227.6855,60,58,1
227.6855,227.7931,70,64,1
227.6855,227.7931,58,53,1
227.90073,228.0104,69,69,1
227.90073,228.0104,57,58,1
228.12009,228.23601,67,64,1
228.12009,228.23601,55,53,1
228.35193,228.79926,68,72,1
228.35193,228.79926,56,60,1
228.79926,229.26411,66,66,1
228.79926,229.26411,54,55,1
229.26411,229.48717,67,71,1
229.26411,229.48717,55,59,1
229.93326,230.04642,82,76,1
229.93326,230.04642,70,64,1
230.15958,230.3756,81,84,1
230.15958,230.3756,69,71,1
230.3756,230.48361,79,65,1
230.3756,230.48361,67,54,1
230.59163,230.70131,79,71,1
230.59163,230.70131,67,59,1
230.81099,230.92238,79,64,1
230.81099,230.92238,67,53,1
231.03377,231.25314,79,82,1
231.03377,231.25314,67,70,1
231.25314,231.36282,78,76,1
231.25314,231.36282,66,64,1
231.69186,231.80502,79,76,1
231.69186,231.80502,67,64,1
231.91818,232.1342,77,84,1
231.91818,232.1342,65,71,1
232.1342,232.24222,76,65,1
232.1342,232.24222,64,54,1
232.35023,232.45992,75,71,1
232.35023,232.45992,63,59,1
232.5696,232.68098,75,64,1
232.5696,232.68098,63,53,1
232.79237,233.01175,75,82,1
232.79237,233.01175,63,70,1
233.01175,233.12143,74,76,1
233.01175,233.12143,62,64,1
233.23111,233.66927,86,78,1
233.23111,233.66927,74,66,1
233.66927,234.10133,87,77,1
233.66927,234.10133,75,65,1
234.10133,234.54347,85,69,1
234.10133,234.54347,73,57,1
234.54347,234.98221,86,69,1
234.54347,234.98221,74,57,1
234.98221,235.12845,83,81,1
235.12845,235.27701,71,69,1
235.27701,235.42787,83,69,1
235.42787,235.5719,84,78,1
235.5719,235.71591,72,69,1
235.71591,235.85994,84,69,1
235.85994,236.00618,81,76,1
236.00618,236.15356,69,69,1
236.15356,236.30208,81,69,1
236.30208,236.44832,82,77,1
236.44832,236.59456,70,70,1
236.59456,236.7408,82,70,1
236.7408,236.88469,81,77,1
236.7408,236.88469,79,61,1
236.88469,237.02858,69,70,1
237.02858,237.17245,81,70,1
237.02858,237.17245,79,55,1
237.17245,237.31792,81,77,1
237.17245,237.31792,79,61,1
237.31792,237.46336,69,70,1
237.46336,237.60883,81,70,1
237.46336,237.60883,79,55,1
237.60883,237.75427,81,77,1
237.60883,237.75427,79,61,1
237.75427,237.90192,69,70,1
237.90192,238.05173,81,72,1
237.90192,238.05173,79,57,1
238.05173,238.48969,81,77,1
238.05173,238.48969,78,73,1
238.70396,238.92784,86,81,1
238.70396,238.92784,74,69,1
238.92784,239.35991,87,80,1
238.92784,239.35991,75,68,1
239.35991,239.80205,85,75,1
239.35991,239.80205,73,61,1
239.80205,240.24078,86,75,1
239.80205,240.24078,74,61,1
240.46014,240.68645,86,52,1
240.46014,240.68645,74,44,1
240.68645,240.90248,84,64,1
240.68645,240.90248,72,53,1
240.90248,241.0105,83,42,1
240.90248,241.0105,71,35,1
241.11852,241.2282,83,48,1
241.11852,241.2282,71,40,1
241.33788,241.44926,83,43,1
241.33788,241.44926,71,35,1
241.56065,241.78001,83,55,1
241.56065,241.78001,71,47,1
241.78001,241.88971,84,42,1
241.78001,241.88971,72,35,1
242.21367,242.43755,84,81,1
242.21367,242.43755,72,69,1
242.43755,242.86961,85,80,1
242.43755,242.86961,73,68,1
242.86961,243.31175,83,72,1
242.86961,243.31175,71,59,1
243.31175,243.75047,84,72,1
243.31175,243.75047,72,59,1
243.96985,244.19615,84,52,1
243.96985,244.19615,72,44,1
244.19615,244.41219,82,64,1
244.19615,244.41219,70,53,1
244.41219,244.5202,81,42,1
244.41219,244.5202,69,35,1
244.62822,244.7379,81,48,1
244.62822,244.7379,69,40,1
244.84758,244.95897,81,43,1
244.84758,244.95897,69,35,1
245.07036,245.28972,81,55,1
245.07036,245.28972,69,47,1
245.28972,245.3994,82,42,1
245.28972,245.3994,70,35,1
245.72844,245.94781,74,44,1
245.94781,246.09183,77,47,1
246.09183,246.23586,75,40,1
246.23586,246.37987,65,40,1
246.37987,246.52611,77,47,1
246.52611,246.6735,72,39,1
246.6735,246.82202,65,40,1
246.82202,246.96826,77,47,1
246.96826,247.1145,74,42,1
247.1145,247.26074,65,40,1
247.26074,247.40698,82,47,1
247.40698,247.55554,77,38,1
247.55554,247.70642,70,38,1
247.70642,247.85043,84,47,1
247.85043,247.99446,77,39,1
247.99446,248.13847,72,39,1
248.13847,248.28471,81,47,1
248.28471,248.4321,77,38,1
248.4321,248.58061,69,38,1
248.58061,248.72687,82,47,1
248.72687,248.87311,77,39,1
248.87311,249.01935,70,40,1
249.01935,249.16559,77,44,1
249.16559,249.3125,74,37,1
249.3125,249.46011,65,37,1
249.46011,249.60399,77,47,1
249.60399,249.75002,75,40,1
249.75002,249.89816,65,40,1
249.89816,250.0444,77,47,1
250.0444,250.19179,72,39,1
250.19179,250.3403,65,40,1
250.3403,250.48654,77,47,1
250.48654,250.63278,74,42,1
250.63278,250.77902,65,40,1
250.77902,250.92528,82,47,1
250.92528,251.07382,77,38,1
251.07382,251.2247,70,38,1
251.2247,251.36873,84,47,1
251.36873,251.51274,77,39,1
251.51274,251.65677,72,39,1
251.65677,251.80301,81,47,1
251.80301,251.9504,77,38,1
251.9504,252.0989,69,38,1
252.0989,252.24515,82,47,1
252.24515,252.39139,77,39,1
252.39139,252.53763,70,40,1
252.53763,252.68387,77,75,1
252.68387,252.8308,74,66,1
252.8308,252.9784,65,65,1
252.9784,253.19423,75,87,1
253.19423,253.30534,73,76,1
252.9784,253.41644,68,73,1
252.9784,253.41644,65,73,1
253.41644,253.52612,73,80,1
253.41644,253.52612,71,80,1
253.41644,253.52612,65,67,1
253.6358,253.74721,73,71,1
253.6358,253.74721,71,71,1
253.6358,253.74721,65,59,1
253.8586,254.07796,73,77,1
254.07796,254.29732,78,71,1
253.8586,254.29732,70,65,1
253.8586,254.29732,66,65,1
254.29732,254.44356,82,80,1
254.44356,254.59212,85,60,1
254.59212,254.743,90,60,1
254.743,254.88701,92,77,1
254.743,254.88701,85,65,1
254.88701,255.03104,80,61,1
255.03104,255.17505,92,61,1
255.03104,255.17505,85,51,1
255.17505,255.32129,89,78,1
255.17505,255.32129,85,66,1
255.32129,255.46867,77,58,1
255.46867,255.6172,89,57,1
255.46867,255.6172,85,48,1
255.6172,255.76344,90,74,1
255.6172,255.76344,85,63,1
255.76344,255.90968,78,59,1
255.90968,256.05594,90,59,1
255.90968,256.05594,85,50,1
256.2702,256.38092,78,75,1
256.4916,256.70743,75,87,1
256.70743,256.81854,73,76,1
256.4916,256.92966,68,73,1
256.4916,256.92966,65,73,1
256.92966,257.03934,73,80,1
256.92966,257.03934,71,80,1
256.92966,257.03934,65,67,1
257.14902,257.2604,73,71,1
257.14902,257.2604,71,71,1
257.14902,257.2604,65,59,1
257.3718,257.59116,73,77,1
257.59116,257.81055,78,71,1
257.3718,257.81055,70,65,1
257.3718,257.81055,66,65,1
257.81055,257.9568,82,80,1
257.9568,258.10535,85,60,1
258.10535,258.2562,90,60,1
258.2562,258.40024,92,77,1
258.2562,258.40024,85,65,1
258.40024,258.54425,80,61,1
258.54425,258.68826,92,61,1
258.54425,258.68826,85,51,1
258.68826,258.8345,89,78,1
258.68826,258.8345,85,66,1
258.8345,258.9819,77,58,1
258.9819,259.1304,89,57,1
258.9819,259.1304,85,48,1
259.1304,259.27444,90,77,1
259.1304,259.27444,85,65,1
259.27444,259.41846,78,61,1
259.41846,259.56247,90,61,1
259.41846,259.56247,85,51,1
259.56247,259.7087,85,78,1
259.56247,259.7087,78,66,1
259.7087,259.8561,73,58,1
259.8561,260.0046,85,57,1
260.0046,260.14865,89,77,1
260.0046,260.14865,82,65,1
260.14865,260.29266,77,61,1
260.29266,260.43668,89,61,1
260.29266,260.43668,82,51,1
260.43668,260.58292,86,78,1
260.43668,260.58292,82,66,1
260.58292,260.7303,74,58,1
260.7303,260.8788,86,57,1
260.7303,260.8788,82,48,1
260.8788,261.02283,87,77,1
260.8788,261.02283,82,65,1
261.02283,261.16687,75,61,1
261.16687,261.31088,87,61,1
261.16687,261.31088,82,51,1
261.31088,261.45712,82,78,1
261.31088,261.45712,75,66,1
261.45712,261.6045,70,58,1
261.6045,261.75302,82,57,1
261.6045,261.75302,75,53,1
261.8644,261.9758,63,72,1
261.9758,262.0845,66,73,1
262.0845,262.1932,71,75,1
262.1932,262.3019,75,76,1
262.3019,262.41058,78,77,1
262.41058,262.51968,83,79,1
262.51968,262.62997,87,80,1
262.62997,263.07443,78,75,1
262.62997,263.07443,76,75,1
262.62997,263.07443,88,89,1
263.07443,263.51886,73,69,1
263.07443,263.51886,78,69,1
263.07443,263.51886,85,81,1
263.62997,263.7411,63,72,1
263.7411,263.8498,66,73,1
263.8498,263.9585,71,75,1
263.9585,264.06717,75,76,1
264.06717,264.17587,78,77,1
264.17587,264.28497,83,79,1
264.28497,264.39526,87,80,1
264.39526,264.8397,88,89,1
264.39526,264.8397,78,75,1
264.39526,264.8397,76,75,1
264.8397,265.28415,78,69,1
264.8397,265.28415,85,81,1
264.8397,265.28415,73,69,1
265.39526,265.50638,63,72,1
265.50638,265.61505,66,73,1
265.61505,265.72375,71,75,1
265.72375,265.83246,75,76,1
265.83246,265.94116,78,77,1
265.94116,266.05023,83,79,1
266.05023,266.16055,87,80,1
266.16055,266.38275,77,64,1
266.16055,266.38275,89,89,1
266.38275,266.49387,90,78,1
266.38275,266.49387,78,66,1
266.38275,266.49387,87,66,1
266.60498,266.7161,90,78,1
266.60498,266.7161,87,66,1
266.60498,266.7161,78,66,1
266.8272,266.93832,90,78,1
266.8272,266.93832,87,66,1
266.8272,266.93832,78,66,1
267.16055,267.27164,62,72,1
267.27164,267.38034,65,73,1
267.38034,267.48904,70,74,1
267.48904,267.59775,74,75,1
267.59775,267.70642,77,75,1
267.70642,267.81552,82,77,1
267.81552,267.9258,86,77,1
267.9258,268.37027,87,86,1
267.9258,268.37027,77,72,1
267.9258,268.37027,75,72,1
268.37027,268.8147,77,65,1
268.37027,268.8147,84,77,1
268.37027,268.8147,72,65,1
268.9258,269.03693,62,67,1
269.03693,269.14563,65,67,1
269.14563,269.25433,70,69,1
269.25433,269.363,74,69,1
269.363,269.4717,77,70,1
269.4717,269.5808,82,71,1
269.5808,269.6911,86,72,1
269.6911,270.13556,87,78,1
269.6911,270.13556,77,67,1
269.6911,270.13556,75,67,1
270.13556,270.58,77,59,1
270.13556,270.58,84,70,1
270.13556,270.58,72,59,1
270.6911,270.80222,62,60,1
270.80222,270.91092,65,61,1
270.91092,271.0196,70,63,1
271.0196,271.1283,74,64,1
271.1283,271.237,77,64,1
271.237,271.3461,82,66,1
271.3461,271.4564,86,66,1
271.4564,271.90082,87,72,1
271.4564,271.90082,77,61,1
271.4564,271.90082,75,61,1
271.90082,272.34528,77,54,1
271.90082,272.34528,84,65,1
271.90082,272.34528,72,54,1
272.4564,272.5675,62,55,1
272.5675,272.67618,65,55,1
272.67618,272.78488,70,57,1
272.78488,272.8936,74,57,1
272.8936,273.00226,77,58,1
273.00226,273.11136,82,59,1
273.11136,273.22165,86,59,1
273.22165,273.44388,76,47,1
273.22165,273.44388,88,65,1
273.44388,273.555,89,56,1
273.44388,273.555,77,47,1
273.44388,273.555,86,47,1
273.6661,273.77722,89,56,1
273.6661,273.77722,86,47,1
273.6661,273.77722,77,47,1
273.88834,273.99945,89,55,1
273.88834,273.99945,86,46,1
273.88834,273.99945,77,46,1
274.22165,274.33276,61,50,1
274.33276,274.44147,64,51,1
274.44147,274.55017,69,52,1
274.55017,274.65884,73,53,1
274.65884,274.76755,76,53,1
274.76755,274.87665,81,55,1
274.87665,274.98694,85,55,1
274.98694,275.20917,74,44,1
274.98694,275.20917,86,61,1
275.20917,275.32028,87,54,1
275.20917,275.32028,75,46,1
275.20917,275.32028,84,46,1
275.4314,275.54248,87,54,1
275.4314,275.54248,84,46,1
275.4314,275.54248,75,46,1
275.6536,275.7647,87,54,1
275.6536,275.7647,84,46,1
275.6536,275.7647,75,46,1
275.98694,276.09805,59,50,1
276.09805,276.20676,62,51,1
276.20676,276.31543,67,52,1
276.31543,276.42413,71,53,1
276.42413,276.53284,74,53,1
276.53284,276.64194,79,55,1
276.64194,276.75223,83,55,1
276.75223,277.19666,86,61,1
276.75223,277.19666,78,52,1
276.75223,277.19666,74,52,1
277.19666,277.6411,78,48,1
277.19666,277.6411,84,56,1
277.19666,277.6411,72,48,1
277.75223,277.86334,59,49,1
277.86334,277.97202,62,48,1
277.97202,278.08072,67,48,1
278.08072,278.18942,71,47,1
278.18942,278.29852,74,46,1
278.29852,278.4091,79,47,1
278.4091,278.52158,83,45,1
278.52158,278.98932,86,49,1
278.52158,278.98932,78,42,1
278.52158,278.98932,74,42,1
278.98932,279.47305,78,37,1
278.98932,279.47305,84,45,1
278.98932,279.47305,72,37,1
279.47305,279.71997,83,45,1
279.47305,279.71997,79,37,1
279.47305,279.71997,71,37,1
281.0637,281.17685,74,52,1
281.29,281.50604,72,63,1
281.50604,281.61404,71,37,1
281.72208,281.83176,71,43,1
281.94144,282.05283,71,37,1
282.1642,282.26984,71,55,1
282.26984,282.38483,72,49,1
282.38483,282.60004,79,59,1
282.60004,282.70847,77,50,1
282.70847,282.8169,75,45,1
282.8169,282.92917,74,45,1
282.92917,283.04144,72,45,1
283.04144,283.25748,72,63,1
283.25748,283.36548,71,37,1
283.4735,283.58276,71,44,1
283.69202,283.8043,71,37,1
283.91653,284.1359,71,57,1
284.1359,284.24557,72,47,1
284.57465,284.7983,75,54,1
284.7983,285.01352,72,63,1
285.01352,285.12112,70,52,1
285.22873,285.33844,70,54,1
285.44812,285.5578,70,54,1
285.66748,285.88348,72,63,1
285.88348,285.99152,70,53,1
286.09952,286.2092,70,55,1
286.31888,286.42856,70,55,1
286.53824,286.64587,72,63,1
286.64587,286.75348,70,52,1
286.75348,286.86108,69,53,1
286.86108,286.9687,70,53,1
286.9687,287.07965,72,58,1
287.1906,287.3047,74,54,1
287.41873,287.64438,70,58,1
288.0917,288.20444,74,57,1
288.31714,288.76273,79,60,1
288.76273,289.20828,75,60,1
289.20828,289.647,72,60,1
289.647,289.75668,74,60,1
289.86636,289.97604,75,58,1
290.08572,290.19376,77,57,1
290.19376,290.30176,79,53,1
290.30176,290.4098,77,53,1
290.4098,290.5178,75,53,1
290.5178,290.6279,74,59,1
290.6279,290.738,75,52,1
290.738,290.85205,74,52,1
290.85205,290.96613,72,53,1
290.96613,291.64435,70,60,1
291.64435,291.75842,70,46,1
291.8725,292.31805,75,48,1
292.31805,292.7636,72,48,1
292.7636,293.20233,68,48,1
293.20233,293.312,70,48,1
293.42172,293.5314,72,46,1
293.64108,294.08664,75,48,1
294.08664,294.30942,73,48,1
294.30942,294.5322,72,48,1
294.5322,294.97092,70,48,1
294.97092,295.0806,72,48,1
295.19028,295.3,73,46,1
295.40967,295.51935,75,46,1
295.51935,295.62903,77,42,1
295.62903,295.7387,75,42,1
295.7387,295.8484,73,42,1
295.8484,295.95847,72,47,1
295.95847,296.06857,73,42,1
296.06857,296.18085,72,42,1
296.18085,296.29312,70,42,1
296.29312,296.744,68,48,1
296.744,296.85583,70,48,1
296.96765,297.0795,72,44,1
297.1913,297.41498,75,48,1
297.41498,297.52682,73,48,1
297.63864,297.7479,73,48,1
297.7479,297.85718,75,44,1
297.85718,297.96643,73,44,1
297.96643,298.07568,72,44,1
298.07568,298.2942,70,48,1
298.2942,298.40604,75,49,1
298.51785,298.6297,77,53,1
298.74152,298.85336,79,56,1
298.96518,299.84955,68,50,1
298.96518,299.84955,80,59,1
299.84955,300.5131,84,60,1
299.84955,300.5131,72,51,1
300.5131,300.73676,68,47,1
300.5131,300.73676,80,55,1
300.73676,301.17905,80,59,1
300.73676,301.17905,68,50,1
301.17905,302.06827,79,55,1
301.17905,302.06827,67,47,1
302.06827,302.5121,79,57,1
302.06827,302.5121,67,48,1
302.5121,302.7306,79,63,1
302.5121,302.7306,67,52,1
302.7306,302.94913,77,59,1
302.7306,302.94913,65,48,1
302.94913,303.83676,82,58,1
302.94913,303.83676,70,49,1
303.83676,304.2841,81,61,1
303.83676,304.2841,69,51,1
304.2841,304.5026,81,61,1
304.2841,304.5026,69,51,1
304.5026,304.7211,67,46,1
304.5026,304.7211,79,54,1
304.7211,305.16846,75,59,1
304.7211,305.16846,87,71,1
305.16846,305.61578,74,52,1
305.16846,305.61578,86,63,1
305.61578,306.0631,72,45,1
305.61578,306.0631,84,53,1
306.0631,306.28677,82,53,1
306.0631,306.28677,70,44,1
306.51044,306.6197,74,46,1
306.6561,306.76535,74,48,1
306.8018,306.91104,74,50,1
306.94745,307.0567,74,51,1
307.09314,307.2024,74,49,1
307.2388,307.34805,74,47,1
307.3845,307.49677,74,51,1
307.49677,307.609,72,46,1
307.609,307.72128,74,47,1
307.72128,307.83356,75,47,1
307.83356,308.07217,74,53,1
309.40762,309.52078,86,52,1
309.63394,309.84995,84,63,1
309.84995,309.95798,83,37,1
310.06598,310.17566,83,43,1
310.28534,310.39673,83,37,1
310.50815,310.61374,83,55,1
310.61374,310.72873,84,49,1
310.72873,310.94397,91,59,1
310.94397,311.0524,89,50,1
311.0524,311.16083,87,45,1
311.16083,311.2731,86,45,1
311.2731,311.38535,84,45,1
311.38535,311.60138,84,63,1
311.60138,311.7094,83,37,1
311.8174,311.92667,83,44,1
312.03592,312.1482,83,37,1
312.26047,312.47983,83,57,1
312.47983,312.5895,84,47,1
312.91855,313.1422,87,54,1
313.1422,313.35742,84,63,1
313.35742,313.46506,82,52,1
313.57266,313.68234,82,54,1
313.79202,313.9017,82,54,1
314.01138,314.22742,84,63,1
314.22742,314.33542,82,53,1
314.44345,314.55313,82,55,1
314.6628,314.7725,82,55,1
314.88217,314.98978,79,63,1
314.98978,315.09738,77,52,1
315.09738,315.20502,76,53,1
315.20502,315.31262,77,53,1
315.31262,315.42358,75,58,1
315.53452,315.6486,72,54,1
315.76266,315.8732,70,58,1
315.98373,316.09134,74,55,1
316.19894,316.30862,77,55,1
316.4183,316.53058,82,55,1
316.64285,316.86737,86,60,1
316.86737,316.97833,84,58,1
317.0893,317.20026,84,61,1
317.3112,317.42215,84,58,1
317.5331,317.64072,79,63,1
317.64072,317.74832,77,52,1
317.74832,317.85596,76,53,1
317.85596,317.96356,77,53,1
317.96356,318.07452,72,58,1
318.18546,318.2986,69,54,1
318.41177,318.63028,86,65,1
318.63028,318.74213,84,58,1
318.85394,318.9658,84,61,1
319.0776,319.18945,84,58,1
319.30127,319.4089,79,63,1
319.4089,319.5165,77,52,1
319.5165,319.6241,76,53,1
319.6241,319.73172,77,53,1
319.73172,319.84268,72,58,1
319.95364,320.06772,69,54,1
320.18176,320.29715,65,46,1
321.3575,321.48218,77,52,1
321.3575,321.48218,72,52,1
321.3575,321.48218,69,52,1
321.60822,321.73532,77,52,1
321.60822,321.73532,74,52,1
321.60822,321.73532,69,52,1
321.8641,321.99396,77,52,1
321.8641,321.99396,75,52,1
321.8641,321.99396,69,52,1
322.25772,322.3861,74,34,1
322.3861,322.51077,70,33,1
322.51077,322.63208,74,33,1
322.12555,322.63208,77,52,1
322.75003,322.8656,74,39,1
322.8656,322.9816,70,39,1
322.9816,323.0976,74,39,1
322.63208,323.0976,82,53,1
323.0976,323.2144,77,52,1
323.2144,323.3304,74,38,1
323.3304,323.4455,69,38,1
323.4455,323.5597,74,38,1
323.0976,323.5597,81,52,1
323.5597,323.67374,75,51,1
323.67374,323.7885,70,34,1
323.7885,323.9039,67,34,1
323.9039,324.01932,70,34,1
323.5597,324.01932,79,51,1
324.01932,324.13486,74,51,1
324.13486,324.24997,70,35,1
324.24997,324.36444,67,35,1
324.36444,324.4785,70,35,1
324.01932,324.4785,79,51,1
324.4785,324.59192,74,49,1
324.59192,324.7055,70,35,1
324.7055,324.8197,65,35,1
324.8197,324.93448,70,35,1
324.4785,324.93448,77,49,1
324.93448,325.04822,74,50,1
325.04822,325.16165,69,36,1
325.16165,325.27466,65,36,1
325.27466,325.3872,69,36,1
324.93448,325.3872,77,50,1
325.3872,325.50278,72,49,1
325.50278,325.61832,69,34,1
325.61832,325.7339,63,34,1
325.7339,325.84778,69,34,1
325.3872,325.84778,75,49,1
325.84778,325.96063,70,50,1
325.96063,326.0739,67,35,1
326.0739,326.1875,63,35,1
326.1875,326.3014,67,35,1
325.84778,326.3014,75,50,1
326.3014,326.4156,70,49,1
326.4156,326.5302,67,35,1
326.5302,326.64514,62,35,1
326.64514,326.7604,67,35,1
326.3014,326.7604,74,49,1
326.7604,326.8764,69,48,1
326.8764,326.9924,66,36,1
326.9924,327.10797,62,36,1
327.10797,327.2235,66,36,1
326.7604,327.2235,74,48,1
327.33817,327.4531,69,35,1
327.4531,327.56833,62,35,1
327.56833,327.6839,69,35,1
327.2235,327.6839,72,47,1
327.79852,327.91318,67,38,1
327.91318,328.02734,62,42,1
328.02734,328.14154,67,45,1
327.6839,328.14154,72,48,1
328.25528,328.36902,67,39,1
328.36902,328.4823,62,39,1
328.4823,328.59546,67,39,1
328.14154,328.59546,70,52,1
328.59546,329.0486,69,49,1
329.0486,329.5018,67,47,1
330.65598,330.77695,77,52,1
330.65598,330.77695,72,52,1
330.65598,330.77695,69,52,1
330.8994,331.02338,77,52,1
330.8994,331.02338,74,52,1
330.8994,331.02338,69,52,1
331.1489,331.27603,77,52,1
331.1489,331.27603,75,52,1
331.1489,331.27603,69,52,1
331.53372,331.65924,74,37,1
331.65924,331.7817,70,37,1
331.7817,331.90125,74,37,1
331.40497,331.90125,77,52,1
332.01764,332.1332,74,40,1
332.1332,332.2492,70,40,1
332.2492,332.3652,74,42,1
331.90125,332.3652,82,53,1
332.3652,332.482,77,52,1
332.482,332.59802,74,38,1
332.59802,332.7131,69,38,1
332.7131,332.8273,74,38,1
332.3652,332.8273,81,52,1
332.8273,332.94135,75,51,1
332.94135,333.05612,70,34,1
333.05612,333.1715,67,34,1
333.1715,333.28693,70,34,1
332.8273,333.28693,79,51,1
333.28693,333.40247,74,48,1
333.40247,333.51758,70,37,1
333.51758,333.63205,67,37,1
333.63205,333.7461,70,37,1
333.28693,333.7461,79,48,1
333.7461,333.85953,74,49,1
333.85953,333.9731,70,35,1
333.9731,334.0873,65,35,1
334.0873,334.2021,70,35,1
333.7461,334.2021,77,49,1
334.2021,334.31583,74,49,1
334.31583,334.42926,69,36,1
334.42926,334.54227,65,36,1
334.54227,334.65482,69,37,1
334.2021,334.65482,77,49,1
334.65482,334.77176,72,49,1
334.77176,334.88873,69,35,1
334.88873,335.00568,63,35,1
335.00568,335.12003,69,35,1
334.65482,335.12003,75,49,1
335.12003,335.23288,70,50,1
335.23288,335.3462,67,36,1
335.3462,335.45978,63,36,1
335.45978,335.57367,67,36,1
335.12003,335.57367,75,50,1
335.57367,335.68784,70,49,1
335.68784,335.80246,67,36,1
335.80246,335.91742,62,36,1
335.91742,336.03265,67,36,1
335.57367,336.03265,74,49,1
336.03265,336.14868,69,48,1
336.14868,336.26468,66,36,1
336.26468,336.38022,62,36,1
336.38022,336.4958,66,36,1
336.03265,336.4958,74,48,1
336.6104,336.72537,69,37,1
336.72537,336.84375,62,37,1
336.84375,336.96213,69,37,1
336.4958,336.96213,72,47,1
337.07675,337.19138,69,38,1
337.19138,337.30557,62,42,1
337.30557,337.41974,69,45,1
336.96213,337.41974,72,48,1
337.53348,337.64722,67,43,1
337.64722,337.76053,62,44,1
337.76053,337.87366,67,44,1
337.41974,337.87366,71,52,1
337.98666,338.09982,67,40,1
338.09982,338.2134,64,38,1
338.2134,338.32742,67,36,1
337.87366,338.32742,69,49,1
338.44214,338.55826,66,33,1
338.55826,338.67636,62,33,1
338.67636,338.79654,66,33,1
338.32742,338.79654,71,45,1
338.9232,339.04037,62,35,1
339.04037,339.1571,59,35,1
339.1571,339.27338,62,35,1
338.79654,339.27338,67,43,1
339.38922,339.5046,64,35,1
339.5046,339.61954,60,35,1
339.61954,339.73404,64,35,1
339.27338,339.73404,69,49,1
339.84598,339.95868,65,35,1
339.95868,340.07153,62,36,1
340.07153,340.1844,65,36,1
339.73404,340.1844,71,49,1
340.2989,340.4134,65,38,1
340.4134,340.5279,62,38,1
340.5279,340.6424,65,39,1
340.1844,340.6424,71,52,1
340.75433,340.86627,65,39,1
340.86627,340.9782,62,39,1
340.9782,341.09015,65,38,1
340.6424,341.09015,71,56,1
341.20294,341.31573,67,37,1
341.31573,341.4285,64,36,1
341.4285,341.5413,67,35,1
341.09015,341.5413,72,52,1
341.65405,341.76685,67,35,1
341.76685,341.87964,62,35,1
341.87964,341.9924,67,35,1
341.5413,341.9924,71,49,1
342.10522,342.2187,66,35,1
342.2187,342.333,62,35,1
342.333,342.44812,66,35,1
341.9924,342.44812,69,49,1
342.5729,342.68845,67,35,1
342.68845,342.80362,65,35,1
342.80362,342.91833,67,35,1
342.44812,342.91833,71,47,1
343.03275,343.1467,69,35,1
343.1467,343.26038,65,35,1
343.26038,343.3736,69,35,1
342.91833,343.3736,72,49,1
343.48645,343.59894,71,35,1
343.59894,343.71097,65,36,1
343.71097,343.82288,71,36,1
343.3736,343.82288,74,49,1
343.938,344.05307,71,38,1
344.05307,344.16818,65,38,1
344.16818,344.28326,71,39,1
343.82288,344.28326,74,52,1
344.39743,344.51163,71,39,1
344.51163,344.6258,65,39,1
344.6258,344.74,71,38,1
344.28326,344.74,74,56,1
344.85358,344.96686,72,37,1
344.96686,345.08017,64,36,1
345.08017,345.19345,72,35,1
344.74,345.19345,76,52,1
345.30673,345.42004,71,35,1
345.42004,345.53333,67,35,1
345.53333,345.64664,71,35,1
345.19345,345.64664,74,49,1
345.7596,345.87308,69,35,1
345.87308,345.99146,66,35,1
345.99146,346.10983,69,35,1
345.64664,346.10983,74,49,1
346.23648,346.35437,71,31,1
346.35437,346.47226,67,31,1
346.47226,346.59,71,31,1
346.10983,346.59,74,42,1
346.7051,346.8202,74,31,1
346.8202,346.93527,67,31,1
346.93527,347.04993,74,31,1
346.59,347.04993,79,39,1
347.16455,347.27902,74,31,1
347.27902,347.39322,69,32,1
347.39322,347.5074,74,32,1
347.04993,347.5074,78,44,1
347.6234,347.7394,74,34,1
347.7394,347.85544,69,33,1
347.85544,347.96964,74,33,1
347.5074,347.96964,81,40,1
348.0838,348.198,71,32,1
348.198,348.31216,67,32,1
348.31216,348.42636,71,32,1
347.96964,348.42636,74,39,1
348.54236,348.65836,72,31,1
348.65836,348.77438,67,31,1
348.77438,348.88916,72,31,1
348.42636,348.88916,76,39,1
349.00366,349.1183,72,31,1
349.1183,349.2329,69,31,1
349.2329,349.34756,72,31,1
348.88916,349.34756,74,40,1
349.46188,349.5764,72,31,1
349.5764,349.6913,66,31,1
349.6913,349.8067,72,31,1
349.34756,349.8067,74,38,1
349.93335,350.05124,71,31,1
350.05124,350.16916,67,31,1
350.16916,350.28568,71,31,1
349.8067,350.28568,74,42,1
350.3994,350.51315,74,31,1
350.51315,350.6269,67,31,1
350.6269,350.74063,74,31,1
350.28568,350.74063,79,39,1
350.85437,350.9678,74,31,1
350.9678,351.0811,69,32,1
351.0811,351.1944,74,32,1
350.74063,351.1944,78,44,1
351.30902,351.42365,74,34,1
351.42365,351.5383,69,33,1
351.5383,351.65115,74,33,1
351.1944,351.65115,81,40,1
351.76715,351.88315,71,32,1
351.88315,351.99918,67,32,1
351.99918,352.11517,71,32,1
351.65115,352.11517,74,40,1
352.23056,352.34595,72,31,1
352.34595,352.46133,67,31,1
352.46133,352.57672,72,31,1
352.11517,352.57672,75,39,1
352.6916,352.80624,72,31,1
352.80624,352.92087,69,31,1
352.92087,353.03552,72,31,1
352.57672,353.03552,74,39,1
353.14984,353.2643,72,31,1
353.2643,353.37927,66,31,1
353.37927,353.49466,72,31,1
353.03552,353.49466,74,38,1
353.6107,353.72668,71,31,1
353.72668,353.84268,67,31,1
353.84268,353.9587,71,31,1
353.49466,353.9587,74,44,1
354.07452,354.19037,72,29,1
354.19037,354.30618,67,28,1
354.30618,354.42203,72,28,1
353.9587,354.42203,75,37,1
354.53705,354.6517,72,28,1
354.6517,354.76633,69,28,1
354.76633,354.88095,72,28,1
354.42203,354.88095,74,36,1
354.9953,355.10977,72,28,1
355.10977,355.22525,66,28,1
355.22525,355.34213,72,28,1
354.88095,355.34213,74,34,1
355.45865,355.57428,70,28,1
355.57428,355.68896,67,28,1
355.68896,355.80316,70,28,1
355.34213,355.80316,74,36,1
355.91733,356.03183,70,28,1
356.03183,356.14645,65,28,1
356.14645,356.26108,70,28,1
355.80316,356.26108,74,34,1
356.37344,356.4858,69,28,1
356.4858,356.59818,65,28,1
356.59818,356.71054,69,28,1
356.26108,356.71054,74,36,1
356.8241,356.9386,69,28,1
356.9386,357.05353,65,28,1
357.05353,357.1689,69,28,1
356.71054,357.1689,72,34,1
357.28415,357.39868,68,28,1
357.39868,357.5123,65,28,1
357.5123,357.6251,68,28,1
357.1689,357.6251,72,36,1
357.73865,357.85315,68,28,1
357.85315,357.96808,63,28,1
357.96808,358.0835,68,28,1
357.6251,358.0835,72,34,1
358.19812,358.31274,67,28,1
358.31274,358.4274,63,28,1
358.4274,358.54202,67,28,1
358.0835,358.54202,72,36,1
358.65637,358.77084,67,28,1
358.77084,358.88577,63,28,1
358.88577,359.0009,67,28,1
358.54202,359.0009,70,34,1
359.11667,359.2323,67,32,1
359.2323,359.347,63,32,1
359.347,359.46115,67,32,1
359.0009,359.46115,70,42,1
359.57535,359.68982,67,33,1
359.68982,359.80478,62,33,1
359.80478,359.92017,67,33,1
359.46115,359.92017,70,39,1
360.0348,360.14944,65,34,1
360.14944,360.26407,62,34,1
360.26407,360.37872,65,34,1
359.92017,360.37872,70,44,1
360.49304,360.6075,65,35,1
360.6075,360.72247,62,35,1
360.72247,360.83786,65,35,1
360.37872,360.83786,69,43,1
360.95477,361.0704,65,34,1
361.0704,361.1851,60,36,1
361.1851,361.2993,65,38,1
360.83786,361.2993,69,46,1
361.41345,361.52795,72,38,1
361.52795,361.64288,69,38,1
361.64288,361.75827,72,38,1
361.2993,361.75827,77,50,1
361.87384,361.98984,74,38,1
361.98984,362.10632,70,37,1
362.10632,362.2231,74,34,1
361.75827,362.2231,77,51,1
362.341,362.46237,75,35,1
362.46237,362.5874,69,35,1
362.5874,362.7165,75,35,1
362.2231,362.7165,77,43,1
362.84427,362.96838,74,38,1
362.96838,363.08908,70,38,1
363.08908,363.20746,74,38,1
362.7165,363.20746,77,52,1
363.3238,363.43936,74,43,1
363.43936,363.55536,70,44,1
363.55536,363.67136,74,44,1
363.20746,363.67136,82,53,1
363.67136,363.78815,77,52,1
363.78815,363.90417,74,38,1
363.90417,364.01926,69,38,1
364.01926,364.13345,74,38,1
363.67136,364.13345,81,52,1
364.13345,364.2475,75,51,1
364.2475,364.36227,70,34,1
364.36227,364.47766,67,34,1
364.47766,364.59308,70,34,1
364.13345,364.59308,79,51,1
364.59308,364.70862,74,50,1
364.70862,364.82373,70,36,1
364.82373,364.9382,67,36,1
364.9382,365.05225,70,36,1
364.59308,365.05225,79,50,1
365.05225,365.16568,74,49,1
365.16568,365.27927,70,35,1
365.27927,365.39346,65,35,1
365.39346,365.50824,70,35,1
365.05225,365.50824,77,49,1
365.50824,365.62198,74,50,1
365.62198,365.7354,69,36,1
365.7354,365.84842,65,36,1
365.84842,365.96097,69,36,1
365.50824,365.96097,77,50,1
365.96097,366.0731,72,49,1
366.0731,366.18536,69,35,1
366.18536,366.29807,63,35,1
366.29807,366.41107,69,35,1
365.96097,366.41107,75,49,1
366.41107,366.52393,70,50,1
366.52393,366.6372,67,36,1
366.6372,366.7508,63,36,1
366.7508,366.8647,67,36,1
366.41107,366.8647,75,50,1
366.8647,366.97888,70,49,1
366.97888,367.0935,67,36,1
367.0935,367.20844,62,36,1
367.20844,367.3237,67,36,1
366.8647,367.3237,74,49,1
367.3237,367.4397,69,48,1
367.4397,367.5557,66,36,1
367.5557,367.67126,62,36,1
367.67126,367.7868,66,36,1
367.3237,367.7868,74,48,1
367.90146,368.0164,69,37,1
368.0164,368.13162,62,37,1
368.13162,368.2472,69,37,1
367.7868,368.2472,72,47,1
368.36182,368.47647,67,38,1
368.47647,368.59064,62,42,1
368.59064,368.70483,67,45,1
368.2472,368.70483,72,48,1
368.81857,368.9323,67,43,1
368.9323,369.0456,62,44,1
369.0456,369.15875,67,44,1
368.70483,369.15875,70,52,1
369.27173,369.3849,70,35,1
369.3849,369.49847,67,35,1
369.49847,369.61252,70,35,1
369.15875,369.61252,72,49,1
369.72714,369.84222,69,33,1
369.84222,369.9578,65,33,1
369.9578,370.07394,69,33,1
369.61252,370.07394,74,45,1
370.2006,370.3185,65,35,1
370.3185,370.4364,62,35,1
370.4364,370.55334,65,35,1
370.07394,370.55334,70,47,1
370.66846,370.78354,67,35,1
370.78354,370.89847,63,35,1
370.89847,371.01312,67,35,1
370.55334,371.01312,72,49,1
371.12762,371.24182,68,35,1
371.24182,371.35577,65,36,1
371.35577,371.4694,68,36,1
371.01312,371.4694,74,49,1
371.5826,371.69553,68,38,1
371.69553,371.80817,65,38,1
371.80817,371.92038,68,39,1
371.4694,371.92038,74,52,1
372.03458,372.14874,68,37,1
372.14874,372.26294,65,36,1
372.26294,372.3771,68,36,1
371.92038,372.3771,74,53,1
372.48904,372.60098,70,37,1
372.60098,372.71292,67,36,1
372.71292,372.82486,70,35,1
372.3771,372.82486,75,49,1
372.93808,373.0513,70,35,1
373.0513,373.1645,65,35,1
373.1645,373.2777,70,35,1
372.82486,373.2777,74,49,1
373.3907,373.50412,69,35,1
373.50412,373.61844,65,35,1
373.61844,373.73355,69,35,1
373.2777,373.73355,72,49,1
373.8602,373.97574,70,35,1
373.97574,374.0913,68,35,1
374.0913,374.20685,70,35,1
373.73355,374.20685,74,47,1
374.32193,374.43704,72,35,1
374.43704,374.55212,68,35,1
374.55212,374.66675,72,35,1
374.20685,374.66675,75,49,1
374.7814,374.89603,74,35,1
374.89603,375.01022,68,36,1
375.01022,375.1244,74,36,1
374.66675,375.1244,77,49,1
375.23996,375.3555,74,38,1
375.3555,375.47104,68,38,1
375.47104,375.58585,74,39,1
375.1244,375.58585,77,52,1
375.70004,375.8142,74,39,1
375.8142,375.9284,68,39,1
375.9284,376.04257,74,38,1
375.58585,376.04257,77,56,1
376.15616,376.26947,75,37,1
376.26947,376.38275,67,36,1
376.38275,376.49603,75,35,1
376.04257,376.49603,79,52,1
376.60934,376.72263,74,34,1
376.72263,376.83594,70,34,1
376.83594,376.94922,74,34,1
376.49603,376.94922,77,49,1
377.06223,377.17566,72,34,1
377.17566,377.29404,69,33,1
377.29404,377.4124,72,32,1
376.94922,377.4124,77,47,1
377.53906,377.65695,74,31,1
377.65695,377.77487,70,31,1
377.77487,377.8926,74,31,1
377.4124,377.8926,77,42,1
378.0077,378.12277,77,31,1
378.12277,378.23788,70,31,1
378.23788,378.35297,77,31,1
377.8926,378.35297,82,39,1
378.4676,378.58224,77,31,1
378.58224,378.69687,72,32,1
378.69687,378.81134,77,32,1
378.35297,378.81134,81,44,1
378.92554,379.0397,77,34,1
379.0397,379.1539,72,33,1
379.1539,379.2678,77,33,1
378.81134,379.2678,84,40,1
379.3838,379.49982,74,32,1
379.49982,379.6158,70,32,1
379.6158,379.7318,74,32,1
379.2678,379.7318,77,44,1
379.846,379.95932,75,31,1
379.95932,380.0729,70,31,1
380.0729,380.18695,75,31,1
379.7318,380.18695,79,39,1
380.30142,380.41605,75,31,1
380.41605,380.5307,72,31,1
380.5307,380.64532,75,31,1
380.18695,380.64532,77,40,1
380.75967,380.87415,75,31,1
380.87415,380.99045,69,31,1
380.99045,381.1098,75,31,1
380.64532,381.1098,77,38,1
381.2408,381.35892,74,31,1
381.35892,381.47702,70,31,1
381.47702,381.59512,74,31,1
381.1098,381.59512,77,42,1
381.71097,381.82678,77,31,1
381.82678,381.94263,70,31,1
381.94263,382.05844,77,31,1
381.59512,382.05844,82,39,1
382.17383,382.28894,77,31,1
382.28894,382.40372,72,32,1
382.40372,382.51822,77,32,1
382.05844,382.51822,81,44,1
382.6323,382.74637,77,34,1
382.74637,382.86044,72,33,1
382.86044,382.9745,77,33,1
382.51822,382.9745,84,40,1
383.0908,383.20706,74,32,1
383.20706,383.32333,70,32,1
383.32333,383.4396,74,32,1
382.9745,383.4396,77,44,1
383.5568,383.67398,75,31,1
383.67398,383.79117,70,31,1
383.79117,383.90836,75,31,1
383.4396,383.90836,78,39,1
384.0265,384.14505,75,31,1
384.14505,384.26364,72,31,1
384.26364,384.3822,75,31,1
383.90836,384.3822,77,39,1
384.5005,384.6189,75,31,1
384.6189,384.7378,69,31,1
384.7378,384.85715,75,31,1
384.3822,384.85715,77,38,1
386.7695,387.60617,82,106,1
386.7695,387.60617,77,89,1
386.7695,387.60617,73,89,1
387.60617,387.7197,82,92,1
387.60617,387.7197,77,77,1
387.60617,387.7197,73,77,1
387.72568,388.06876,85,96,1
387.72568,388.06876,77,81,1
387.72568,388.06876,73,81,1
388.06876,388.17673,85,91,1
388.06876,388.17673,77,76,1
388.06876,388.17673,73,76,1
388.1824,388.52118,82,96,1
388.1824,388.52118,77,81,1
388.1824,388.52118,73,81,1
388.52118,388.62778,82,92,1
388.52118,388.62778,77,77,1
388.52118,388.62778,73,77,1
388.6334,388.9692,77,96,1
388.6334,388.9692,73,81,1
388.6334,388.9692,70,81,1
388.9692,389.07556,77,92,1
388.9692,389.07556,73,77,1
388.9692,389.07556,70,77,1
389.08115,389.41696,73,91,1
389.08115,389.41696,70,77,1
389.08115,389.41696,65,77,1
389.41696,389.52332,73,86,1
389.41696,389.52332,70,72,1
389.41696,389.52332,65,72,1
389.5289,389.86725,70,91,1
389.5289,389.86725,65,77,1
389.5289,389.86725,61,77,1
389.86725,389.9744,70,86,1
389.86725,389.9744,65,72,1
389.86725,389.9744,61,72,1
389.98004,390.3184,65,91,1
389.98004,390.3184,61,77,1
390.3184,390.43115,70,85,1
390.3184,390.43115,65,71,1
390.3184,390.43115,61,71,1
390.43115,390.5427,71,96,1
390.43115,390.5427,66,81,1
390.43115,390.5427,63,81,1
390.6542,390.78433,83,61,1
390.76575,390.89584,87,65,1
390.87726,391.0074,90,68,1
390.9888,391.1189,88,68,1
391.1003,391.2304,87,67,1
391.21182,391.34195,85,67,1
391.32336,391.45346,83,68,1
391.43488,391.565,82,68,1
391.54642,391.6765,80,67,1
391.65793,391.78806,78,67,1
391.76947,391.89957,76,67,1
391.88098,392.01108,75,67,1
391.9925,392.12262,73,67,1
392.10403,392.23444,71,67,1
392.21555,392.34763,73,67,1
392.32877,392.46085,70,68,1
392.44196,392.57404,71,72,1
392.55518,392.6871,75,75,1
392.6684,392.79843,78,74,1
392.7799,392.9095,76,73,1
392.89102,393.02017,75,73,1
393.0017,393.13068,73,72,1
393.11227,393.24097,71,71,1
393.2226,393.35092,70,71,1
393.3326,393.46075,68,72,1
393.4425,393.57022,66,73,1
393.55197,393.67953,64,74,1
393.66135,393.7886,63,75,1
393.77045,393.89737,61,76,1
393.87927,393.98782,59,79,1
393.98782,394.20862,59,86,1
393.98782,394.20862,54,86,1
394.20862,394.6477,63,88,1
394.20862,394.6477,59,74,1
394.20862,394.6477,54,74,1
394.6477,395.08426,66,87,1
394.6477,395.08426,63,73,1
394.6477,395.08426,59,73,1
395.08426,395.19217,71,81,1
395.08426,395.19217,66,69,1
395.08426,395.19217,63,69,1
395.30008,395.40796,75,85,1
395.30008,395.40796,71,71,1
395.30008,395.40796,66,71,1
395.51587,395.63025,78,88,1
395.51587,395.63025,75,74,1
395.51587,395.63025,71,74,1
395.74463,395.96545,72,86,1
395.74463,395.96545,69,75,1
395.74463,395.96545,63,75,1
395.96545,396.4045,75,88,1
395.96545,396.4045,72,74,1
395.96545,396.4045,69,74,1
396.4045,396.84106,81,87,1
396.4045,396.84106,75,73,1
396.4045,396.84106,72,73,1
396.84106,396.94897,84,81,1
396.84106,396.94897,81,69,1
396.84106,396.94897,75,69,1
397.0569,397.1648,87,85,1
397.0569,397.1648,84,71,1
397.0569,397.1648,81,71,1
397.2727,397.38617,93,88,1
397.2727,397.38617,87,74,1
397.2727,397.38617,84,74,1
397.49963,398.3064,94,106,1
397.49963,398.3064,82,89,1
397.49963,398.3064,85,89,1
397.49963,398.3064,89,89,1
398.3064,398.41977,94,92,1
398.3064,398.41977,82,77,1
398.41977,398.75668,97,96,1
398.41977,398.75668,85,81,1
398.75668,398.86865,97,91,1
398.75668,398.86865,85,76,1
398.86865,399.20377,94,96,1
398.86865,399.20377,82,81,1
399.20377,399.31528,94,92,1
399.20377,399.31528,82,77,1
399.31528,399.64822,90,96,1
399.31528,399.64822,78,81,1
399.64822,399.75974,90,92,1
399.64822,399.75974,78,77,1
399.75974,400.09598,85,91,1
399.75974,400.09598,73,77,1
400.09598,400.20932,85,86,1
400.09598,400.20932,73,72,1
400.20932,400.55197,86,91,1
400.20932,400.55197,74,77,1
400.55197,400.66705,86,86,1
400.55197,400.66705,74,72,1
400.66705,401.0132,82,91,1
400.66705,401.0132,70,77,1
401.0132,401.1286,82,85,1
401.0132,401.1286,70,71,1
401.1286,401.93536,87,94,1
401.1286,401.93536,75,79,1
401.1286,401.93536,78,79,1
401.1286,401.93536,82,79,1
401.93536,402.0487,87,87,1
401.93536,402.0487,75,73,1
402.0487,402.38565,90,91,1
402.0487,402.38565,78,77,1
402.38565,402.4976,90,86,1
402.38565,402.4976,78,72,1
402.4976,402.83273,87,91,1
402.4976,402.83273,75,77,1
402.83273,402.94424,87,87,1
402.83273,402.94424,75,73,1
402.94424,403.27716,83,91,1
402.94424,403.27716,71,77,1
403.27716,403.3887,83,87,1
403.27716,403.3887,71,73,1
403.3887,403.72495,82,86,1
403.3887,403.72495,70,73,1
403.72495,403.8383,82,80,1
403.72495,403.8383,70,68,1
403.8383,404.18094,81,86,1
403.8383,404.18094,69,73,1
404.18094,404.29602,81,80,1
404.18094,404.29602,69,68,1
404.29602,404.64218,89,86,1
404.29602,404.64218,77,73,1
404.64218,404.75757,89,79,1
404.64218,404.75757,77,67,1
404.75757,405.56433,82,94,1
404.75757,405.56433,70,79,1
404.75757,405.56433,73,79,1
404.75757,405.56433,77,79,1
405.56433,405.67767,94,87,1
405.56433,405.67767,82,73,1
405.67767,406.01462,97,91,1
405.67767,406.01462,85,77,1
406.01462,406.12656,97,86,1
406.01462,406.12656,85,72,1
406.12656,406.4617,94,91,1
406.12656,406.4617,82,77,1
406.4617,406.5732,94,87,1
406.4617,406.5732,82,73,1
406.5732,406.90613,90,91,1
406.5732,406.90613,78,77,1
406.90613,407.01767,90,87,1
406.90613,407.01767,78,73,1
407.01767,407.3539,85,86,1
407.01767,407.3539,73,73,1
407.3539,407.46725,85,80,1
407.3539,407.46725,73,68,1
407.46725,407.8099,89,86,1
407.46725,407.8099,77,73,1
407.8099,407.925,89,80,1
407.8099,407.925,77,68,1
407.925,408.27115,85,86,1
407.925,408.27115,73,73,1
408.27115,408.38654,85,79,1
408.27115,408.38654,73,67,1
408.38654,409.1933,90,94,1
408.38654,409.1933,78,79,1
408.38654,409.1933,82,79,1
408.38654,409.1933,85,79,1
409.1933,409.30664,90,81,1
409.1933,409.30664,78,69,1
409.30664,409.6436,94,86,1
409.30664,409.6436,82,73,1
409.6436,409.75552,94,80,1
409.6436,409.75552,82,68,1
409.75552,410.09064,90,86,1
409.75552,410.09064,78,73,1
410.09064,410.20218,90,81,1
410.09064,410.20218,78,69,1
410.20218,410.5351,89,86,1
410.20218,410.5351,77,73,1
410.5351,410.6466,89,81,1
410.5351,410.6466,77,69,1
410.6466,410.98285,87,80,1
410.6466,410.98285,75,69,1
410.98285,411.09622,87,76,1
410.98285,411.09622,75,64,1
411.09622,411.43884,89,80,1
411.09622,411.43884,77,69,1
411.43884,411.55396,89,76,1
411.43884,411.55396,77,64,1
411.55396,411.9001,89,80,1
411.55396,411.9001,77,69,1
411.9001,412.01547,89,75,1
411.9001,412.01547,77,63,1
412.01547,412.3608,89,76,1
412.01547,412.3608,77,66,1
412.3608,412.4759,89,68,1
412.3608,412.4759,77,57,1
412.4759,412.82205,89,71,1
412.4759,412.82205,77,60,1
412.82205,412.93744,89,61,1
412.82205,412.93744,77,51,1
412.93744,413.39896,82,58,1
413.74512,413.8605,82,43,1
413.8605,414.19745,86,48,1
414.19745,414.3094,86,43,1
414.3094,414.6445,82,48,1
414.6445,414.75604,82,42,1
414.75604,415.08896,77,48,1
415.08896,415.2005,77,43,1
415.2005,415.53674,74,48,1
415.53674,415.6501,74,43,1
415.6501,415.99274,75,48,1
415.99274,416.10782,75,42,1
416.10782,416.45398,72,48,1
416.45398,416.56934,72,42,1
416.56934,416.9155,77,48,1
416.9155,417.03088,82,36,1
417.03088,417.26166,77,45,1
417.37704,417.49243,82,43,1
417.49243,417.82938,86,48,1
417.82938,417.9413,86,45,1
417.9413,418.27643,89,52,1
418.27643,418.38797,89,48,1
418.38797,418.7209,94,52,1
418.7209,418.8324,94,50,1
418.8324,419.16864,96,56,1
419.16864,419.282,96,49,1
419.282,419.62463,98,55,1
419.62463,419.73975,98,48,1
419.73975,420.08588,101,54,1
420.08588,420.20126,101,47,1
420.20126,420.43204,98,53,1
421.00244,421.11563,82,43,1
421.11563,421.45258,86,48,1
421.45258,421.5645,86,43,1
421.5645,421.89966,82,48,1
421.89966,422.01117,82,42,1
422.01117,422.3441,77,48,1
422.3441,422.45563,77,43,1
422.45563,422.79187,74,48,1
422.79187,422.9052,74,43,1
422.9052,423.24786,77,48,1
423.24786,423.36295,77,42,1
423.36295,423.7091,75,48,1
423.7091,423.8245,75,42,1
423.8245,424.17062,74,48,1
424.17062,424.286,82,36,1
424.286,424.51678,77,45,1
424.63217,424.74756,82,43,1
424.74756,425.0845,86,48,1
425.0845,425.19644,86,45,1
425.19644,425.53156,89,52,1
425.53156,425.6431,89,48,1
425.6431,425.976,94,52,1
425.976,426.08752,94,50,1
426.08752,426.42377,96,56,1
426.42377,426.53714,96,49,1
426.53714,426.87976,98,55,1
426.87976,426.99487,98,48,1
426.99487,427.34103,101,54,1
427.34103,427.4564,101,47,1
427.4564,427.68716,94,53,1
428.26016,428.3742,93,43,1
428.3742,428.71115,94,48,1
428.71115,428.8175,94,45,1
428.8231,429.15823,92,52,1
429.15823,429.26416,92,48,1
429.26974,429.60266,89,52,1
429.60266,429.70862,89,50,1
429.7142,430.04892,86,56,1
430.04892,430.16043,86,49,1
430.16043,430.49612,89,55,1
430.49612,430.60806,89,48,1
430.60806,430.94498,90,54,1
430.94498,431.05734,90,47,1
431.05734,431.39316,91,55,1
431.39316,431.4995,91,47,1
431.50513,431.84204,91,52,1
431.84204,431.9488,91,44,1
431.9544,432.2943,91,51,1
432.2943,432.40268,91,43,1
432.4084,432.75235,91,48,1
432.75235,432.86197,91,40,1
432.86774,433.0969,91,47,1
433.6746,433.76248,79,48,1
433.79178,434.02615,80,53,1
434.02615,434.14456,79,49,1
434.2636,434.38266,79,51,1
434.5017,434.6222,79,49,1
434.74268,434.97705,79,47,1
435.563,435.65088,94,48,1
435.68018,435.91455,92,53,1
435.91455,436.033,91,49,1
436.15204,436.2711,91,51,1
436.39014,436.51062,91,49,1
436.63107,436.86545,91,47,1
437.4514,437.53928,67,48,1
437.56857,437.80295,68,53,1
437.80295,437.9214,67,49,1
438.04044,438.1595,67,51,1
438.27853,438.39902,67,49,1
438.5195,438.75388,67,47,1
439.3398,439.4277,82,48,1
439.457,439.69138,80,53,1
439.69138,439.80978,79,49,1
439.92883,440.04788,79,51,1
440.16693,440.2874,79,49,1
440.4079,440.64886,80,53,1
440.64886,440.7684,79,49,1
440.88745,441.0065,79,51,1
441.12555,441.2543,79,49,1
441.38306,441.63202,79,53,1
442.97586,443.21976,74,47,1
443.21976,443.44116,72,56,1
443.44116,443.55188,71,33,1
443.66257,443.77225,71,37,1
443.88193,443.99387,71,33,1
444.1058,444.32516,71,49,1
444.32516,444.43484,72,36,1
444.7639,444.98843,75,46,1
444.98843,445.2066,72,56,1
445.2066,445.3157,71,33,1
445.4248,445.5355,71,38,1
445.6462,445.7594,71,33,1
445.87262,446.09485,71,51,1
446.09485,446.20978,72,42,1
448.41202,448.65106,75,47,1
448.65106,448.87247,72,56,1
448.87247,448.98315,71,32,1
449.09387,449.20355,71,37,1
449.31323,449.42517,71,33,1
449.5371,449.75647,71,47,1
449.75647,449.86615,72,34,1
450.1952,450.41974,75,44,1
450.41974,450.6387,72,53,1
450.6387,450.7482,71,31,1
450.85767,450.96878,71,36,1
451.0799,451.19574,71,30,1
451.31155,451.5346,71,47,1
451.5346,451.65088,72,37,1
453.8366,454.06293,75,44,1
454.06293,454.28033,72,53,1
454.28033,454.389,71,35,1
454.4977,454.6074,71,40,1
454.71707,454.829,71,35,1
454.94095,455.1603,71,47,1
455.1603,455.27,72,34,1
455.59903,455.82358,75,43,1
455.82358,456.04095,72,53,1
456.04095,456.14966,71,35,1
456.25836,456.3676,71,40,1
456.47687,456.58914,71,35,1
456.70142,456.92078,71,48,1
456.92078,457.0375,72,39,1
457.15424,457.3732,72,54,1
457.3732,457.59686,79,48,1
457.59686,457.81192,79,59,1
457.81192,458.0317,77,51,1
458.0317,458.2531,77,55,1
458.2531,458.47452,74,52,1
458.47452,458.69592,71,57,1
458.69592,458.8066,72,47,1
458.91733,459.13873,72,57,1
459.13873,459.3624,79,50,1
459.3624,459.57745,79,64,1
459.57745,459.7972,77,55,1
459.7972,460.01862,77,57,1
460.01862,460.24002,74,52,1
460.24002,460.46143,71,56,1
460.46143,460.68283,72,44,1
460.68283,460.90424,75,48,1
460.90424,461.12564,69,40,1
461.78455,461.95978,74,72,1
461.78455,461.95978,86,86,1
461.95978,462.1278,72,77,1
461.95978,462.1278,84,93,1
462.1278,462.21384,70,72,1
462.1278,462.21384,82,86,1
462.29987,462.38593,70,72,1
462.29987,462.38593,82,86,1
462.47195,462.55798,82,86,1
462.47195,462.55798,70,72,1
462.644,462.81253,79,93,1
462.644,462.81253,67,77,1
462.81253,462.89856,77,88,1
462.81253,462.89856,65,73,1
462.9846,463.07065,77,88,1
462.9846,463.07065,65,73,1
463.15668,463.2427,77,88,1
463.15668,463.2427,65,73,1
463.32874,463.49774,75,93,1
463.32874,463.49774,65,77,1
463.49774,463.58377,74,88,1
463.49774,463.58377,62,73,1
463.66983,463.75586,74,88,1
463.66983,463.75586,62,73,1
463.8419,463.92792,74,88,1
463.8419,463.92792,62,73,1
464.01395,464.1815,72,92,1
464.01395,464.1815,60,77,1
464.1815,464.26727,70,88,1
464.1815,464.26727,58,73,1
464.35303,464.4388,70,88,1
464.35303,464.4388,58,73,1
464.52457,464.61035,70,88,1
464.52457,464.61035,58,73,1
464.69614,464.86365,69,92,1
464.69614,464.86365,57,77,1
464.86365,464.94968,67,88,1
464.86365,464.94968,55,73,1
465.03574,465.12177,67,88,1
465.03574,465.12177,55,73,1
465.2078,465.29382,67,88,1
465.2078,465.29382,55,73,1
465.37985,465.5474,81,92,1
465.37985,465.5474,69,77,1
465.5474,465.63342,79,88,1
465.5474,465.63342,67,73,1
465.71945,465.80548,79,88,1
465.71945,465.80548,67,73,1
465.8915,465.97757,79,88,1
465.8915,465.97757,67,73,1
466.0636,466.2311,93,92,1
466.0636,466.2311,81,77,1
466.2311,466.31717,91,88,1
466.2311,466.31717,79,73,1
466.4032,466.48923,91,88,1
466.4032,466.48923,79,73,1
466.57526,466.6613,91,88,1
466.57526,466.6613,79,73,1
466.7473,466.91486,90,92,1
466.7473,466.91486,78,77,1
466.91486,467.0009,91,88,1
466.91486,467.0009,79,73,1
467.0869,467.17297,91,88,1
467.0869,467.17297,79,73,1
467.259,467.3545,91,88,1
467.259,467.3545,79,73,1
467.44998,467.83194,91,107,1
467.44998,467.83194,79,90,1
467.44998,467.83194,82,90,1
467.44998,467.83194,87,90,1
468.97787,469.35983,93,107,1
468.97787,469.35983,87,90,1
468.97787,469.35983,81,90,1
470.56036,470.92896,94,120,1
470.56036,470.92896,86,103,1
470.56036,470.92896,82,103,1
471.108,471.28323,75,46,1
471.108,471.28323,86,54,1
471.28323,471.45126,84,58,1
471.45126,471.5373,82,54,1
471.28323,471.62332,77,49,1
471.62332,471.70935,74,46,1
471.62332,471.70935,82,54,1
471.79538,471.8814,82,54,1
471.79538,471.8814,74,46,1
471.96747,472.136,79,58,1
471.96747,472.136,75,49,1
472.136,472.22202,77,55,1
472.30804,472.39407,77,55,1
472.30804,472.39407,69,46,1
472.4801,472.56613,77,55,1
472.4801,472.56613,69,46,1
472.6522,472.8212,75,58,1
472.8212,472.90723,74,55,1
472.6522,472.99326,70,49,1
472.99326,473.07928,74,55,1
472.99326,473.07928,64,46,1
473.1653,473.25137,74,55,1
473.1653,473.25137,64,46,1
473.3374,473.5049,72,58,1
473.5049,473.5907,70,55,1
473.3374,473.67648,65,49,1
473.67648,473.76224,70,55,1
473.67648,473.76224,62,46,1
473.84802,473.9338,70,55,1
473.84802,473.9338,62,46,1
474.01956,474.1871,67,58,1
474.1871,474.27313,65,55,1
474.01956,474.35916,63,49,1
474.35916,474.4452,65,56,1
474.35916,474.4452,57,46,1
474.53122,474.61728,65,56,1
474.53122,474.61728,57,47,1
474.7033,474.87082,67,60,1
474.87082,474.95688,65,58,1
474.7033,475.0429,63,50,1
475.0429,475.12894,65,58,1
475.0429,475.12894,57,49,1
475.21497,475.301,65,59,1
475.21497,475.301,57,49,1
475.38702,475.55457,67,63,1
475.55457,475.6406,65,60,1
475.38702,475.72662,63,52,1
475.72662,475.81268,65,60,1
475.72662,475.81268,57,51,1
475.8987,475.98474,57,51,1
475.8987,475.98474,65,61,1
476.07077,476.24283,67,67,1
476.24283,476.32886,65,63,1
476.07077,476.41492,63,47,1
476.07077,476.41492,57,47,1
476.41492,476.58148,70,71,1
476.58148,476.66647,69,67,1
476.41492,476.7515,63,59,1
476.41492,476.7515,65,59,1
476.7515,476.91614,74,75,1
476.91614,477.00098,72,71,1
476.7515,477.08524,63,63,1
476.7515,477.08524,69,63,1
477.08524,477.24802,79,76,1
477.24802,477.3308,77,73,1
477.08524,477.41364,75,64,1
477.08524,477.41364,69,64,1
477.41364,477.57547,82,80,1
477.57547,477.65826,81,75,1
477.41364,477.7411,75,69,1
477.41364,477.7411,77,69,1
477.7411,477.90158,86,84,1
477.90158,477.9832,84,79,1
477.7411,478.06482,81,70,1
477.7411,478.06482,75,70,1
478.06482,478.22623,91,90,1
478.22623,478.31226,89,85,1
478.06482,478.3983,87,76,1
478.06482,478.3983,81,76,1
478.3983,478.56485,94,97,1
478.56485,478.65298,93,94,1
478.3983,478.74115,89,82,1
478.3983,478.74115,87,82,1
478.74115,479.1231,86,96,1
478.74115,479.1231,89,96,1
478.74115,479.1231,94,113,1
479.5051,479.88705,94,110,1
479.5051,479.88705,98,110,1
479.5051,479.88705,89,92,1
479.5051,479.88705,86,92,1
480.26904,480.651,58,116,1
0.0,1.7681342,55,78,1
0.0,1.7681342,67,94,1
1.7681342,1.9841636,55,42,1
1.9841636,2.0921783,67,31,1
2.2001932,2.3098745,65,31,1
2.2001932,2.3098745,62,26,1
2.4195557,2.5309474,67,32,1
2.6423392,2.8617017,55,44,1
2.8617017,2.9713829,67,28,1
3.0810642,3.1907454,63,35,1
3.0810642,3.1907454,60,29,1
3.3004267,3.4126937,67,32,1
3.5249608,3.7409902,55,42,1
3.7409902,3.849005,67,31,1
3.9570198,4.0662775,65,31,1
3.9570198,4.0662775,62,26,1
4.175535,4.287802,67,29,1
4.400069,4.6194315,55,44,1
4.6194315,4.729113,67,32,1
4.838794,5.003316,54,29,1
4.838794,5.003316,63,35,1
4.838794,5.003316,60,29,1
5.0581565,5.2259045,66,35,1
5.2818203,5.4970436,53,42,1
5.4970436,5.6046553,65,35,1
5.7122674,5.8219485,62,35,1
5.9316297,6.041311,65,36,1
6.1509924,6.3670216,55,42,1
6.3670216,6.4750366,64,36,1
6.583051,6.6927323,60,36,1
6.8024135,6.912095,64,36,1
7.021776,7.2369995,53,35,1
7.021776,7.2369995,62,42,1
7.2369995,7.4522233,65,33,1
7.4522233,7.563178,53,29,1
7.4522233,7.563178,63,35,1
7.6741333,7.788202,65,34,1
7.9022703,8.127917,58,42,1
7.9022703,8.127917,62,42,1
8.34728,9.670404,67,94,1
8.34728,9.670404,55,78,1
9.670404,9.886434,55,42,1
9.886434,9.994449,67,31,1
10.102464,10.212145,62,26,1
10.102464,10.212145,65,31,1
10.321826,10.433218,67,32,1
10.544609,10.763972,55,44,1
10.763972,10.873653,67,31,1
10.983335,11.093016,63,35,1
10.983335,11.093016,60,29,1
11.202697,11.314964,67,32,1
11.427231,11.64326,55,42,1
11.64326,11.751275,67,31,1
11.85929,11.968548,65,31,1
11.85929,11.968548,62,26,1
12.0778055,12.190072,67,29,1
12.30234,12.521702,55,44,1
12.521702,12.631383,67,32,1
12.741064,12.850745,63,35,1
12.741064,12.850745,60,29,1
12.741064,12.850745,54,29,1
12.960427,13.072259,66,35,1
13.184091,13.399314,53,42,1
13.399314,13.506926,65,35,1
13.614537,13.724218,62,35,1
13.8338995,13.943582,65,36,1
14.053263,14.269292,55,42,1
14.269292,14.377307,64,36,1
14.485321,14.595002,60,36,1
14.704684,14.814365,64,36,1
14.9240465,15.13927,62,42,1
14.9240465,15.13927,53,35,1
15.13927,15.354493,65,33,1
15.354493,15.465448,53,29,1
15.354493,15.465448,63,35,1
15.576404,15.690472,65,34,1
15.804541,15.914222,62,42,1
15.804541,15.914222,58,42,1
16.023903,16.135735,57,38,1
16.247566,16.359398,55,37,1
16.47123,16.583944,53,36,1
16.69666,16.80805,51,42,1
16.919441,17.030834,58,36,1
16.919441,17.030834,55,36,1
17.142225,17.253616,48,36,1
17.36501,17.4764,55,36,1
17.36501,17.4764,60,36,1
17.587791,17.697474,53,42,1
17.807156,17.916836,60,35,1
17.807156,17.916836,57,35,1
18.026518,18.136198,51,36,1
18.24588,18.35556,60,36,1
18.24588,18.35556,57,36,1
18.465242,18.681273,50,39,1
18.681273,18.8973,53,29,1
18.681273,18.8973,58,34,1
18.8973,19.1175,46,34,1
19.1175,19.345638,53,29,1
19.1175,19.345638,58,34,1
19.345638,19.569302,51,40,1
19.569302,19.792965,58,34,1
19.569302,19.792965,55,29,1
19.792965,20.016628,50,34,1
20.016628,20.242058,58,34,1
20.016628,20.242058,55,29,1
20.242058,20.46484,48,42,1
20.46484,20.687624,57,36,1
20.46484,20.687624,51,30,1
20.687624,20.910408,45,36,1
20.910408,21.13319,57,36,1
20.910408,21.13319,51,30,1
21.13319,21.35862,50,42,1
21.35862,21.584047,54,29,1
21.35862,21.584047,57,35,1
21.584047,21.69373,42,42,1
21.80341,21.913092,54,36,1
21.80341,21.913092,50,30,1
22.022774,22.129572,43,47,1
22.236372,22.343172,55,39,1
22.44997,22.559652,39,49,1
22.669333,22.779015,51,44,1
22.888697,22.998377,36,51,1
23.108059,23.21774,48,46,1
23.327421,23.435032,38,54,1
23.542645,23.650255,50,45,1
23.757868,23.98784,51,52,1
23.757868,23.98784,36,44,1
24.217813,25.56212,42,51,1
24.217813,25.56212,54,60,1
24.217813,25.56212,50,51,1
25.56212,25.777344,43,50,1
25.777344,25.884956,55,45,1
25.992567,26.21193,39,45,1
26.21193,26.44377,51,45,1
26.44377,26.667433,36,50,1
26.667433,26.891096,48,45,1
26.891096,27.118317,38,45,1
27.118317,27.35596,50,45,1
27.35596,27.593603,31,42,1
27.35596,27.593603,43,50,1
27.831245,29.15437,67,94,1
27.831245,29.15437,55,78,1
29.15437,29.3704,55,42,1
29.3704,29.478415,67,31,1
29.58643,29.69611,62,26,1
29.58643,29.69611,65,31,1
29.805792,29.917183,67,32,1
30.028576,30.24918,55,44,1
30.24918,30.464403,67,31,1
30.464403,30.681261,60,29,1
30.464403,30.681261,63,35,1
30.681261,30.905794,67,32,1
30.905794,31.121824,55,42,1
31.121824,31.22984,67,31,1
31.337854,31.447111,62,26,1
31.337854,31.447111,65,31,1
31.55637,31.668636,67,29,1
31.780903,32.000267,55,44,1
32.000267,32.109947,67,32,1
32.219627,32.32931,60,29,1
32.219627,32.32931,63,35,1
32.219627,32.32931,54,29,1
32.43899,32.662655,66,35,1
32.662655,32.877876,53,42,1
32.877876,32.98549,65,35,1
33.0931,33.20278,62,35,1
33.312466,33.422146,65,36,1
33.531826,33.747856,55,42,1
33.747856,33.85587,64,36,1
33.963886,34.073566,60,36,1
34.183247,34.29293,64,36,1
34.40261,34.617832,53,35,1
34.40261,34.617832,62,42,1
34.617832,34.833057,65,33,1
34.833057,34.94401,53,29,1
34.833057,34.94401,63,35,1
35.054966,35.169037,65,34,1
35.283104,35.392994,62,42,1
35.283104,35.392994,58,42,1
35.502674,35.614506,57,38,1
35.726337,35.83817,55,37,1
35.95,36.062714,53,36,1
36.17543,36.28682,51,42,1
36.398212,36.509605,55,36,1
36.398212,36.509605,58,36,1
36.621,36.732388,48,36,1
36.84378,36.955173,60,36,1
36.84378,36.955173,55,36,1
37.066563,37.176247,53,42,1
37.285927,37.395607,57,35,1
37.285927,37.395607,60,35,1
37.505287,37.61497,51,36,1
37.72465,37.83433,60,36,1
37.72465,37.83433,57,36,1
37.94401,38.16004,50,39,1
38.16004,38.376072,53,29,1
38.16004,38.376072,58,34,1
38.376072,38.59627,46,34,1
38.59627,38.82441,58,34,1
38.59627,38.82441,53,29,1
38.82441,39.048073,51,40,1
39.048073,39.271736,55,29,1
39.048073,39.271736,58,34,1
39.271736,39.50263,50,34,1
39.50263,39.730766,55,29,1
39.50263,39.730766,58,29,1
39.730766,39.95355,48,33,1
39.95355,40.176334,56,29,1
39.95355,40.176334,60,29,1
40.176334,40.399117,51,29,1
40.399117,40.621902,56,29,1
40.399117,40.621902,60,29,1
40.621902,40.841263,48,33,1
40.841263,41.060627,56,28,1
40.841263,41.060627,60,28,1
41.060627,41.279987,51,29,1
41.279987,41.49935,60,29,1
41.279987,41.49935,56,29,1
41.49935,41.722134,49,33,1
41.722134,41.944916,58,29,1
41.722134,41.944916,55,29,1
41.944916,42.1677,51,29,1
42.1677,42.390484,55,29,1
42.1677,42.390484,58,29,1
42.390484,42.609848,49,33,1
42.609848,42.82921,55,28,1
42.609848,42.82921,58,28,1
42.82921,42.938892,51,29,1
43.048573,43.158253,58,29,1
43.048573,43.158253,55,29,1
43.267933,43.377617,48,31,1
43.487297,43.596977,56,23,1
43.487297,43.596977,60,27,1
43.70666,43.81676,51,27,1
43.92686,44.039127,56,23,1
43.92686,44.039127,60,27,1
44.151394,44.263226,48,32,1
44.375057,44.488667,60,27,1
44.375057,44.488667,56,23,1
44.602276,44.714108,51,32,1
44.82594,44.937775,60,27,1
44.82594,44.937775,56,23,1
45.049606,45.27327,49,32,1
45.27327,45.3851,58,29,1
45.27327,45.3851,55,29,1
45.496933,45.715446,51,32,1
45.715446,45.933964,55,29,1
45.715446,45.933964,58,29,1
45.933964,46.152477,49,34,1
46.152477,46.26431,55,29,1
46.152477,46.26431,58,29,1
46.37614,46.487972,51,31,1
46.599804,46.711636,55,34,1
46.599804,46.711636,58,34,1
46.823467,47.041985,48,37,1
47.041985,47.260498,60,32,1
47.041985,47.260498,56,27,1
47.260498,47.48416,51,32,1
47.48416,47.707825,60,32,1
47.48416,47.707825,56,27,1
47.707825,47.926342,48,37,1
47.926342,48.1477,56,27,1
47.926342,48.1477,60,32,1
48.1477,48.371365,51,32,1
48.371365,48.59503,56,27,1
48.371365,48.59503,60,32,1
48.59503,48.817673,49,37,1
48.817673,49.037315,55,27,1
48.817673,49.037315,58,32,1
49.037315,49.256393,52,32,1
49.256393,49.47745,58,32,1
49.256393,49.47745,55,27,1
49.47745,49.700233,49,37,1
49.700233,49.926548,55,27,1
49.700233,49.926548,58,32,1
49.926548,50.148457,52,36,1
50.148457,50.370365,55,32,1
50.148457,50.370365,58,39,1
50.370365,50.588882,50,44,1
50.588882,50.807396,62,38,1
50.588882,50.807396,58,31,1
50.807396,51.02931,53,38,1
51.02931,51.251217,62,38,1
51.02931,51.251217,58,31,1
51.251217,51.47313,50,48,1
51.47313,51.695038,58,31,1
51.47313,51.695038,62,37,1
51.695038,51.9187,53,37,1
51.9187,52.142365,58,31,1
51.9187,52.142365,62,37,1
52.142365,52.36088,51,50,1
52.36088,52.579395,63,40,1
52.36088,52.579395,60,34,1
52.579395,52.80306,55,37,1
52.80306,53.026722,63,37,1
52.80306,53.026722,60,31,1
53.026722,53.250385,53,44,1
53.250385,53.47405,58,28,1
53.250385,53.47405,62,34,1
53.47405,53.697712,53,34,1
53.697712,53.921375,60,34,1
53.697712,53.921375,57,28,1
53.921375,54.14504,46,38,1
54.14504,54.368702,58,25,1
54.14504,54.368702,62,30,1
54.368702,54.58722,50,30,1
54.58722,54.805737,62,30,1
54.58722,54.805737,58,25,1
54.805737,55.02425,53,36,1
55.02425,55.242767,58,25,1
55.02425,55.242767,62,30,1
55.242767,55.4673,54,30,1
55.4673,55.691833,62,31,1
55.4673,55.691833,60,26,1
55.691833,55.930458,59,29,1
55.691833,55.930458,55,29,1
55.691833,55.930458,62,34,1
56.169086,57.49221,67,94,1
56.169086,57.49221,55,78,1
57.49221,57.70824,55,42,1
57.70824,57.816254,67,31,1
57.924267,58.03395,62,26,1
57.924267,58.03395,65,31,1
58.14363,58.255024,67,32,1
58.366413,58.58702,55,44,1
58.58702,58.802242,67,31,1
58.802242,59.0191,60,29,1
58.802242,59.0191,63,35,1
59.0191,59.243633,67,32,1
59.243633,59.459663,55,42,1
59.459663,59.56768,67,31,1
59.675694,59.78495,62,26,1
59.675694,59.78495,65,31,1
59.89421,60.006477,67,29,1
60.118744,60.338104,55,44,1
60.338104,60.44779,67,32,1
60.55747,60.66715,60,29,1
60.55747,60.66715,63,35,1
60.55747,60.66715,54,29,1
60.77683,61.000496,66,35,1
61.000496,61.215717,53,42,1
61.215717,61.32333,65,35,1
61.430943,61.540623,62,35,1
61.650303,61.759983,65,36,1
61.869667,62.085697,55,42,1
62.085697,62.19371,64,36,1
62.301723,62.411407,60,36,1
62.521088,62.630768,64,36,1
62.74045,62.955673,62,42,1
62.74045,62.955673,53,35,1
62.955673,63.1709,65,33,1
63.1709,63.281853,57,35,1
63.1709,63.281853,53,29,1
63.392807,63.506874,63,34,1
63.620945,63.842003,62,42,1
63.620945,63.842003,58,42,1
63.842003,64.05723,65,38,1
64.05723,64.27659,62,38,1
64.27659,64.50112,58,38,1
64.50112,64.725655,55,43,1
64.725655,64.83661,64,37,1
64.94757,65.058525,58,39,1
65.16948,65.28043,64,42,1
65.39139,65.60661,53,35,1
65.60661,65.82184,65,33,1
65.82184,65.93279,57,35,1
66.04375,66.1569,65,34,1
66.27006,66.48857,55,43,1
66.48857,66.6004,64,35,1
66.712234,66.824066,58,35,1
66.9359,67.04773,64,36,1
67.15956,67.37479,53,35,1
67.37479,67.59001,65,33,1
67.59001,67.700966,57,35,1
67.81192,67.92599,65,34,1
68.040054,68.258575,50,35,1
68.258575,68.37041,59,29,1
68.48224,68.59407,53,29,1
68.7059,68.81773,59,30,1
68.929565,69.14478,48,29,1
69.14478,69.36001,60,28,1
69.36001,69.47096,52,29,1
69.58192,69.69599,60,29,1
69.81006,70.02857,50,35,1
70.02857,70.1404,59,29,1
70.252235,70.36407,53,29,1
70.4759,70.58773,59,30,1
70.69956,71.13001,60,29,1
70.69956,71.13001,48,29,1
70.69956,71.13001,52,29,1
72.46055,72.56816,62,53,1
72.56816,72.67577,60,44,1
72.67577,72.78339,59,45,1
72.78339,72.891,60,45,1
72.891,73.00195,55,49,1
73.11291,73.230095,52,46,1
73.34728,73.46447,48,46,1
73.58166,73.698845,43,39,1
73.81603,73.933525,40,43,1
74.051796,74.170685,38,47,1
74.29037,74.40801,36,50,1
74.52566,74.650314,34,46,1
74.77637,74.90349,33,43,1
75.03224,75.16212,31,39,1
75.55426,75.67892,29,33,1
76.03374,76.14975,41,33,1
76.498566,76.613655,45,33,1
76.956665,77.07206,46,33,1
77.418106,77.64662,50,33,1
77.87366,78.10262,53,33,1
78.32981,78.55536,57,33,1
78.78647,79.01592,36,33,1
79.242065,79.46954,38,33,1
79.69836,79.92854,41,33,1
80.16056,80.39167,45,33,1
80.62125,80.85204,49,33,1
81.081314,81.195496,50,33,1
81.30968,81.423416,52,33,1
81.537155,81.65045,53,33,1
81.876884,81.99018,60,35,1
81.763596,81.99018,55,33,1
81.99018,82.10347,55,35,1
82.10347,82.21677,60,35,1
82.33006,82.44335,59,33,1
82.21677,82.44335,43,33,1
82.44335,82.55665,53,33,1
82.55665,82.66994,59,33,1
82.66994,82.78458,60,46,1
82.66994,82.78458,52,33,1
82.66994,82.78458,36,33,1
82.66994,82.78458,48,33,1
82.89951,83.01476,55,39,1
83.13031,83.24602,52,43,1
83.36188,83.47851,50,47,1
83.59577,83.70995,48,50,1
83.824135,83.94511,46,46,1
84.06755,84.19152,45,43,1
84.31705,84.44417,43,39,1
84.8274,84.94985,29,33,1
85.301346,85.41735,41,33,1
85.76617,85.88126,45,33,1
86.22427,86.33967,46,33,1
86.685715,86.91423,50,33,1
87.141266,87.37023,53,33,1
87.59741,87.82297,57,33,1
88.05687,88.288185,36,33,1
88.51433,88.741806,38,33,1
88.97062,89.200806,41,33,1
89.43282,89.66393,45,33,1
89.89351,90.130264,49,33,1
90.359535,90.47372,50,33,1
90.5879,90.70164,52,33,1
90.81538,90.92867,54,33,1
91.04182,91.26796,43,33,1
91.49558,91.72641,45,33,1
92.20852,92.44153,50,33,1
92.672745,92.90219,43,33,1
93.12683,93.35253,38,33,1
93.581535,93.81055,38,36,1
94.034424,94.25831,31,36,1
94.48387,94.709435,31,34,1
94.935,95.16056,33,33,1
95.38683,95.61626,33,33,1
95.856606,96.08649,38,33,1
96.31486,96.54174,50,33,1
96.767075,96.991035,50,33,1
97.22122,97.45141,50,36,1
97.67977,97.908134,43,36,1
98.13502,98.3616,43,34,1
98.58819,98.81477,45,33,1
99.041214,99.27798,45,33,1
99.75815,100.21806,54,29,1
100.21806,100.675545,57,29,1
100.675545,101.13777,55,32,1
101.13777,101.5945,54,32,1
99.27798,101.5945,50,29,1
101.5945,102.05731,50,30,1
101.5945,102.05731,43,30,1
102.05731,102.5157,49,29,1
102.5157,102.97486,52,29,1
102.05731,102.97486,45,29,1
103.45381,103.90877,54,29,1
103.90877,104.13595,57,29,1
104.13595,104.36253,58,26,1
104.36253,104.591805,57,29,1
104.591805,104.81929,55,27,1
104.81929,105.283325,54,32,1
102.97486,105.283325,50,29,1
105.283325,105.744865,50,30,1
105.283325,105.744865,43,30,1
105.744865,106.20366,49,29,1
106.20366,106.66281,52,29,1
105.744865,106.66281,45,29,1
107.12685,107.59017,43,28,1
106.66281,107.59017,50,32,1
107.59017,108.04911,49,26,1
108.04911,108.51027,52,26,1
107.59017,108.51027,45,26,1
108.51027,108.971306,38,26,1
108.971306,109.42924,41,26,1
109.42924,109.87868,45,26,1
109.87868,110.337074,48,26,1
110.337074,110.793236,36,26,1
110.793236,111.25163,39,26,1
111.25163,111.710175,43,26,1
111.710175,112.16902,46,26,1
112.16902,112.62931,34,29,1
112.62931,113.08832,38,30,1
113.08832,113.54686,41,31,1
113.54686,114.00601,45,32,1
114.00601,114.46742,33,29,1
114.46742,114.92643,34,32,1
114.92643,115.39126,33,36,1
115.39126,115.88464,31,32,1
116.13655,116.25723,29,33,1
116.6075,116.72351,41,33,1
117.07233,117.187416,45,33,1
117.530426,117.64583,46,33,1
117.99187,118.22039,50,33,1
118.44742,118.67639,53,33,1
118.90357,119.12913,57,33,1
119.353516,119.579216,36,33,1
119.80536,120.03284,38,33,1
120.26165,120.49184,41,33,1
120.72386,120.95496,45,33,1
121.18454,121.41534,49,33,1
121.64461,121.75879,50,33,1
121.87297,121.98671,52,33,1
122.10045,122.213745,53,33,1
122.32689,122.55303,46,33,1
122.780655,123.01038,48,33,1
123.48665,123.721504,53,33,1
123.95169,124.18127,46,33,1
124.40998,124.63754,41,33,1
124.86368,125.08854,41,36,1
125.3169,125.54526,34,36,1
125.76914,125.99302,34,34,1
126.21944,126.445854,36,33,1
126.672264,126.90169,36,33,1
127.14389,127.375,41,33,1
127.60518,127.83491,53,33,1
128.06418,128.29254,53,33,1
128.52365,128.754,53,36,1
128.98236,129.21072,46,36,1
129.4376,129.6642,46,32,1
129.89078,130.11737,48,33,1
130.34381,130.58057,48,33,1
131.06075,131.52112,57,29,1
131.52112,131.9795,60,29,1
131.9795,132.43593,58,32,1
132.43593,132.89996,57,32,1
130.58057,132.89996,53,29,1
132.89996,133.35509,53,30,1
132.89996,133.35509,46,30,1
133.35509,133.81348,52,29,1
133.81348,134.27795,55,29,1
133.35509,134.27795,48,29,1
134.76328,135.22661,57,29,1
135.22661,135.45708,60,29,1
135.45708,135.68637,61,26,1
135.68637,135.91452,60,29,1
135.91452,136.14265,58,27,1
136.14265,136.60777,57,32,1
134.27795,136.60777,53,29,1
136.60777,137.07652,53,30,1
136.60777,137.07652,46,30,1
137.07652,137.55035,52,29,1
137.55035,138.0253,55,29,1
137.07652,138.0253,48,29,1
139.93765,140.7743,53,92,1
139.93765,140.7743,48,76,1
139.93765,140.7743,41,76,1
140.7743,140.88785,53,77,1
140.7743,140.88785,48,66,1
140.7743,140.88785,41,66,1
140.89383,141.23691,53,84,1
140.89383,141.23691,41,70,1
141.23691,141.34486,53,80,1
141.23691,141.34486,41,67,1
141.35054,141.68932,56,84,1
141.35054,141.68932,44,70,1
141.68932,141.79594,56,77,1
141.68932,141.79594,44,66,1
141.80154,142.13736,41,84,1
141.80154,142.13736,29,70,1
142.13736,142.2437,41,77,1
142.13736,142.2437,29,66,1
142.2493,142.58511,44,79,1
142.2493,142.58511,32,66,1
142.58511,142.69147,44,73,1
142.58511,142.69147,32,61,1
142.69705,143.0354,48,79,1
142.69705,143.0354,36,66,1
143.0354,143.14255,48,73,1
143.0354,143.14255,36,61,1
143.1482,143.48653,53,79,1
143.1482,143.48653,41,66,1
143.48653,143.59932,53,71,1
143.48653,143.59932,41,59,1
143.59932,143.71085,54,84,1
143.59932,143.71085,49,70,1
143.59932,143.71085,46,70,1
145.61012,145.74219,54,63,1
145.72333,145.85526,58,65,1
145.83653,145.96658,61,68,1
145.94806,146.07762,59,66,1
146.05917,146.18832,58,64,1
146.16988,146.29881,56,63,1
146.28044,146.40912,54,61,1
146.39073,146.51907,53,61,1
146.50076,146.62889,51,63,1
146.61064,146.73839,49,64,1
146.72014,146.84767,47,64,1
146.8295,146.95676,46,65,1
146.93858,147.06552,44,66,1
147.04741,147.15598,42,66,1
147.15598,147.37677,46,73,1
147.15598,147.37677,34,61,1
147.59758,147.81586,46,77,1
147.59758,147.81586,34,65,1
148.03413,148.25241,46,76,1
148.03413,148.25241,34,64,1
148.25241,148.3603,46,63,1
148.25241,148.3603,34,52,1
148.46822,148.57613,46,67,1
148.46822,148.57613,34,57,1
148.68402,148.79842,46,72,1
148.68402,148.79842,34,60,1
148.9128,149.13359,48,73,1
148.9128,149.13359,36,61,1
149.35439,149.57266,48,77,1
149.35439,149.57266,36,65,1
149.79094,150.00922,48,76,1
149.79094,150.00922,36,64,1
150.00922,150.11713,48,63,1
150.00922,150.11713,36,52,1
150.22504,150.33295,48,67,1
150.22504,150.33295,36,57,1
150.44084,150.55432,48,72,1
150.44084,150.55432,36,60,1
150.66779,150.78531,41,67,1
150.78531,150.90129,44,57,1
150.90129,151.01683,48,57,1
151.01683,151.13191,53,57,1
151.13191,151.24657,41,67,1
151.24657,151.36078,44,57,1
151.36078,151.47456,48,57,1
151.47456,151.5879,53,57,1
151.5879,151.70027,41,67,1
151.70027,151.81262,44,56,1
151.81262,151.92485,48,57,1
151.92485,152.03679,53,57,1
152.03679,152.14873,41,67,1
152.14873,152.26039,44,59,1
152.26039,152.37192,48,59,1
152.37192,152.48344,53,60,1
152.48344,152.59415,41,67,1
152.59415,152.70511,44,58,1
152.70511,152.81636,49,58,1
152.81636,152.92789,53,58,1
152.92789,153.03983,41,67,1
153.03983,153.15176,44,60,1
153.15176,153.26413,49,60,1
153.26413,153.37749,53,60,1
153.37749,153.49126,41,67,1
153.49126,153.60547,48,58,1
153.60547,153.72012,51,58,1
153.72012,153.83522,53,58,1
153.83522,153.95059,41,67,1
153.95059,154.06598,48,57,1
154.06598,154.18137,51,57,1
154.18137,154.29675,53,57,1
154.29675,154.41428,41,67,1
154.41428,154.53026,46,57,1
154.53026,154.64578,49,57,1
154.64578,154.76088,53,57,1
154.76088,154.87552,41,67,1
154.87552,154.98973,46,55,1
154.98973,155.10352,49,55,1
155.10352,155.21687,53,54,1
155.21687,155.32922,41,63,1
155.32922,155.44159,46,53,1
155.44159,155.5538,49,54,1
155.5538,155.66574,53,54,1
155.66574,155.7777,41,63,1
155.7777,155.88934,46,56,1
155.88934,156.00087,49,56,1
156.00087,156.1124,53,57,1
156.1124,156.2231,42,63,1
156.2231,156.33408,46,55,1
156.33408,156.44533,49,55,1
156.44533,156.55685,54,55,1
156.55685,156.6688,42,63,1
156.6688,156.78073,46,57,1
156.78073,156.8931,49,57,1
156.8931,157.00644,54,57,1
157.00644,157.12022,43,63,1
157.12022,157.23444,46,55,1
157.23444,157.34909,48,55,1
157.34909,157.46417,55,55,1
157.46417,157.57956,43,63,1
157.57956,157.69495,46,54,1
157.69495,157.81033,48,54,1
157.81033,157.9257,55,54,1
157.9257,158.04323,44,63,1
158.04323,158.15921,48,54,1
158.15921,158.27475,53,54,1
158.27475,158.38983,56,54,1
158.38983,158.50449,44,63,1
158.50449,158.6187,48,54,1
158.6187,158.73248,53,54,1
158.73248,158.84583,56,54,1
158.84583,158.95819,44,63,1
158.95819,159.07054,48,53,1
159.07054,159.18277,53,54,1
159.18277,159.29471,56,54,1
159.29471,159.40665,44,63,1
159.40665,159.51831,48,56,1
159.51831,159.62984,53,56,1
159.62984,159.74136,56,57,1
159.74136,159.85207,44,63,1
159.85207,159.96303,49,55,1
159.96303,160.07428,53,55,1
160.07428,160.1858,56,55,1
160.1858,160.29774,44,63,1
160.29774,160.40968,49,57,1
160.40968,160.52205,53,57,1
160.52205,160.6354,56,57,1
160.6354,160.74918,44,63,1
160.74918,160.86339,51,55,1
160.86339,160.97804,54,55,1
160.97804,161.09314,56,55,1
161.09314,161.20853,44,63,1
161.20853,161.3239,51,54,1
161.3239,161.43929,54,54,1
161.43929,161.55467,56,54,1
161.55467,161.6722,44,67,1
161.6722,161.78818,49,57,1
161.78818,161.9037,53,57,1
161.9037,162.0188,56,57,1
162.0188,162.13344,44,67,1
162.13344,162.24767,49,55,1
162.24767,162.36143,53,55,1
162.36143,162.4748,56,51,1
162.4748,162.58714,45,59,1
162.58714,162.69951,49,50,1
162.69951,162.81172,53,51,1
162.81172,162.92368,57,51,1
162.92368,163.03561,46,59,1
163.03561,163.14728,49,53,1
163.14728,163.25879,53,53,1
163.25879,163.37032,58,54,1
163.37032,163.48102,48,59,1
163.48102,163.592,53,52,1
163.592,163.70325,56,52,1
163.70325,163.81477,60,52,1
163.81477,163.92671,49,59,1
163.92671,164.03865,53,54,1
164.03865,164.15102,56,54,1
164.15102,164.26436,61,54,1
164.26436,164.37814,48,59,1
164.37814,164.49236,53,52,1
164.49236,164.60701,56,52,1
164.60701,164.72209,60,52,1
164.72209,164.83748,48,59,1
164.83748,164.95287,53,51,1
164.95287,165.06825,56,51,1
165.06825,165.18364,60,51,1
165.18364,165.3001,48,56,1
165.3001,165.4143,53,49,1
165.4143,165.52895,55,48,1
165.52895,165.64404,60,47,1
165.64404,165.75943,48,51,1
165.75943,165.87482,52,44,1
165.87482,165.99019,55,43,1
165.99019,166.10558,60,42,1
166.10558,166.25943,41,42,1
166.25943,166.41327,57,42,1
166.41327,166.56712,60,34,1
166.56712,166.72096,53,34,1
166.72096,166.8748,57,30,1
166.8748,167.02866,60,30,1
167.02866,167.17847,53,34,1
167.17847,167.32828,57,29,1
167.32828,167.47754,60,29,1
167.47754,167.62679,53,34,1
167.62679,167.77548,57,30,1
167.77548,167.92418,60,30,1
167.92418,168.0718,53,34,1
168.0718,168.21994,57,30,1
168.21994,168.36864,60,30,1
168.36864,168.51788,51,34,1
168.51788,168.66714,57,30,1
168.66714,168.81822,60,30,1
168.81822,168.97003,50,34,1
168.97003,169.12256,58,29,1
169.12256,169.27596,60,29,1
169.27596,169.42981,52,34,1
169.42981,169.58365,58,30,1
169.58365,169.7375,60,30,1
169.7375,169.89134,53,34,1
169.89134,170.0452,57,31,1
170.0452,170.19904,60,31,1
170.19904,170.35289,53,34,1
170.35289,170.50673,57,30,1
170.50673,170.66057,60,30,1
170.66057,170.8104,53,34,1
170.8104,170.9602,57,29,1
170.9602,171.10945,60,29,1
171.10945,171.25871,52,34,1
171.25871,171.40741,55,30,1
171.40741,171.5561,60,30,1
171.5561,171.7037,50,34,1
171.7037,171.85185,53,30,1
171.85185,172.00055,57,30,1
172.00055,172.14981,50,34,1
172.14981,172.29906,53,30,1
172.29906,172.45015,59,30,1
172.45015,172.60194,48,34,1
172.60194,172.75447,53,29,1
172.75447,172.90788,60,29,1
172.90788,173.06172,48,34,1
173.06172,173.21558,52,30,1
173.21558,173.36942,60,30,1
173.36942,173.52327,41,34,1
173.52327,173.67711,57,31,1
173.67711,173.83096,60,31,1
173.83096,173.9819,53,34,1
173.9819,174.13284,57,30,1
174.13284,174.28378,60,30,1
174.28378,174.4336,53,34,1
174.4336,174.58342,57,29,1
174.58342,174.73267,60,29,1
174.73267,174.88193,53,34,1
174.88193,175.03062,57,30,1
175.03062,175.17932,60,30,1
175.17932,175.32692,53,34,1
175.32692,175.47507,57,30,1
175.47507,175.62376,60,30,1
175.62376,175.77303,51,34,1
175.77303,175.92227,57,30,1
175.92227,176.07336,60,30,1
176.07336,176.22516,50,34,1
176.22516,176.37769,58,29,1
176.37769,176.5311,60,29,1
176.5311,176.68494,52,34,1
176.68494,176.83879,58,30,1
176.83879,176.99263,60,30,1
176.99263,177.14648,53,34,1
177.14648,177.30032,57,31,1
177.30032,177.45416,60,31,1
177.45416,177.60802,53,34,1
177.60802,177.76186,57,30,1
177.76186,177.91571,60,30,1
177.91571,178.06552,53,34,1
178.06552,178.21533,57,29,1
178.21533,178.3646,60,29,1
178.3646,178.51384,52,34,1
178.51384,178.66254,55,30,1
178.66254,178.81123,60,30,1
178.81123,178.95885,50,34,1
178.95885,179.107,53,30,1
179.107,179.25569,57,30,1
179.25569,179.40494,50,34,1
179.40494,179.5542,53,30,1
179.5542,179.70528,59,30,1
179.70528,179.85709,48,34,1
179.85709,180.00961,53,29,1
180.00961,180.16301,60,29,1
180.16301,180.31686,48,34,1
180.31686,180.4707,52,30,1
180.4707,180.62456,60,30,1
180.62456,180.7784,41,34,1
180.7784,180.93225,57,31,1
180.93225,181.08609,60,31,1
181.08609,181.23817,53,34,1
181.23817,181.39027,57,30,1
181.39027,181.54236,60,30,1
181.54236,181.69218,53,34,1
181.69218,181.842,57,29,1
181.842,181.99124,60,29,1
181.99124,182.1405,54,34,1
182.1405,182.2892,57,30,1
182.2892,182.4379,60,30,1
182.4379,182.5855,53,34,1
182.5855,182.73364,57,30,1
182.73364,182.88234,60,30,1
182.88234,183.03117,54,34,1
183.03117,183.17989,57,30,1
183.17989,183.32858,60,30,1
183.32858,183.47769,53,34,1
183.47769,183.62695,57,29,1
183.62695,183.7762,60,29,1
183.7762,183.92587,51,34,1
183.92587,184.07568,55,30,1
184.07568,184.2255,61,30,1
184.2255,184.37476,50,34,1
184.37476,184.524,54,28,1
184.524,184.67326,62,28,1
184.67326,184.82294,50,33,1
184.82294,184.97275,55,28,1
184.97275,185.12256,58,28,1
185.12256,185.27322,50,31,1
185.27322,185.42459,54,26,1
185.42459,185.57654,57,26,1
185.57654,185.72906,50,30,1
185.72906,185.88217,55,26,1
185.88217,186.03587,58,26,1
186.03587,186.18884,50,29,1
186.18884,186.34137,54,27,1
186.34137,186.49478,57,28,1
186.49478,186.64862,50,34,1
186.64862,186.80367,55,30,1
186.80367,186.95992,58,30,1
186.95992,187.11617,50,34,1
187.11617,187.27304,54,31,1
187.27304,187.43176,57,31,1
187.43176,187.5905,48,34,1
187.5905,187.75018,54,31,1
187.75018,187.91083,57,31,1
187.91083,187.98895,58,34,1
187.91083,187.98895,53,34,1
187.91083,187.98895,46,34,1
188.06708,188.22333,62,30,1
188.22333,188.37958,65,30,1
188.37958,188.53583,58,34,1
188.53583,188.69208,62,30,1
188.69208,188.84833,65,30,1
188.84833,188.99814,58,34,1
188.99814,189.14795,62,29,1
189.14795,189.29721,65,29,1
189.29721,189.44646,59,34,1
189.44646,189.59515,62,30,1
189.59515,189.74385,65,30,1
189.74385,189.89146,58,34,1
189.89146,190.03961,62,30,1
190.03961,190.18831,65,30,1
190.18831,190.33714,59,34,1
190.33714,190.48584,62,30,1
190.48584,190.63454,65,30,1
190.63454,190.78366,58,34,1
190.78366,190.9329,62,29,1
190.9329,191.08217,65,29,1
191.08217,191.23184,56,34,1
191.23184,191.38165,60,30,1
191.38165,191.53146,66,30,1
191.53146,191.68071,55,34,1
191.68071,191.82997,59,28,1
191.82997,191.97922,67,28,1
191.97922,192.12889,55,33,1
192.12889,192.2787,60,28,1
192.2787,192.42853,63,28,1
192.42853,192.57918,55,31,1
192.57918,192.73056,59,26,1
192.73056,192.8825,62,26,1
192.8825,193.03503,55,30,1
193.03503,193.18814,60,26,1
193.18814,193.34184,63,26,1
193.34184,193.49481,55,29,1
193.49481,193.64734,59,27,1
193.64734,193.80074,62,28,1
193.80074,193.95459,55,34,1
193.95459,194.10963,60,30,1
194.10963,194.26588,63,30,1
194.26588,194.42213,55,34,1
194.42213,194.579,59,31,1
194.579,194.73773,62,31,1
194.73773,194.89645,55,34,1
194.89645,195.05615,60,31,1
195.05615,195.2168,63,31,1
195.2168,195.37305,55,34,1
195.37305,195.5293,59,30,1
195.5293,195.68555,62,30,1
195.68555,195.8418,55,34,1
195.8418,195.99805,60,30,1
195.99805,196.1543,63,30,1
196.1543,196.31055,55,34,1
196.31055,196.4674,59,31,1
196.4674,196.62614,62,31,1
196.62614,196.78487,55,34,1
196.78487,196.94455,60,31,1
196.94455,197.1052,63,31,1
197.1052,197.26144,55,34,1
197.26144,197.4177,59,30,1
197.4177,197.57394,62,30,1
197.57394,197.7302,55,34,1
197.7302,197.88644,60,30,1
197.88644,198.0427,63,30,1
198.0427,198.19894,55,34,1
198.19894,198.35582,59,31,1
198.35582,198.51454,62,31,1
198.51454,198.67328,55,34,1
198.67328,198.83296,60,31,1
198.83296,198.9936,63,31,1
198.9936,199.14986,55,34,1
199.14986,199.3061,59,30,1
199.3061,199.46236,62,30,1
199.46236,199.6186,55,34,1
199.6186,199.77486,60,30,1
199.77486,199.9311,63,30,1
199.9311,200.08736,55,34,1
200.08736,200.24423,59,31,1
200.24423,200.40295,62,31,1
200.40295,200.56169,55,34,1
200.56169,200.72137,60,31,1
200.72137,200.88202,63,31,1
200.88202,201.04266,55,34,1
201.04266,201.20282,59,31,1
201.20282,201.36156,62,31,1
201.36156,201.52028,55,34,1
201.52028,201.68549,60,31,1
201.68549,201.85716,63,31,1
201.85716,202.10612,55,34,1
201.85716,202.10612,59,34,1
201.85716,202.10612,62,34,1
202.35509,203.67628,55,78,1
202.35509,203.67628,67,94,1
203.67628,203.89232,55,42,1
203.89232,204.00034,67,31,1
204.10835,204.21803,62,26,1
204.10835,204.21803,65,31,1
204.32771,204.4391,67,32,1
204.55049,204.76985,55,44,1
204.76985,204.87953,67,28,1
204.98921,205.09889,63,35,1
204.98921,205.09889,60,29,1
205.20857,205.32085,67,32,1
205.4331,205.64914,55,42,1
205.64914,205.75716,67,31,1
205.86517,205.97443,62,26,1
205.86517,205.97443,65,31,1
206.0837,206.19595,67,29,1
206.30823,206.52759,55,44,1
206.52759,206.63727,67,32,1
206.74695,206.85663,63,35,1
206.74695,206.85663,60,29,1
206.74695,206.85663,54,29,1
206.96631,207.07814,66,35,1
207.18997,207.4052,53,42,1
207.4052,207.5128,65,35,1
207.62042,207.7301,62,35,1
207.83978,207.94946,65,36,1
208.05914,208.27518,55,42,1
208.27518,208.3832,64,36,1
208.49121,208.60089,60,36,1
208.71057,208.82025,64,36,1
208.92993,209.14516,53,35,1
208.92993,209.14516,62,42,1
209.14516,209.36038,65,33,1
209.36038,209.47133,53,29,1
209.36038,209.47133,63,35,1
209.58229,209.69635,65,34,1
209.81042,210.03607,58,42,1
209.81042,210.03607,62,42,1
210.25543,211.57855,55,78,1
210.25543,211.57855,67,94,1
211.57855,211.79459,55,42,1
211.79459,211.9026,67,31,1
212.01062,212.1203,62,26,1
212.01062,212.1203,65,31,1
212.22998,212.34137,67,32,1
212.45276,212.67212,55,44,1
212.67212,212.7818,67,31,1
212.89148,213.00117,63,35,1
212.89148,213.00117,60,29,1
213.11086,213.22311,67,32,1
213.33539,213.5514,55,42,1
213.5514,213.65942,67,31,1
213.76744,213.8767,62,26,1
213.76744,213.8767,65,31,1
213.98596,214.09822,67,29,1
214.2105,214.42986,55,44,1
214.42986,214.53954,67,32,1
214.64922,214.7589,63,35,1
214.64922,214.7589,60,29,1
214.64922,214.7589,54,29,1
214.86858,214.98041,66,35,1
215.09224,215.30746,53,42,1
215.30746,215.41508,65,35,1
215.52269,215.63237,62,35,1
215.74205,215.85173,65,36,1
215.96141,216.17744,55,42,1
216.17744,216.28546,64,36,1
216.39348,216.50316,60,36,1
216.61284,216.72252,64,36,1
216.8322,217.04742,53,35,1
216.8322,217.04742,62,42,1
217.04742,217.26265,65,33,1
217.26265,217.3736,53,29,1
217.26265,217.3736,63,35,1
217.48456,217.59862,65,34,1
217.71269,217.82237,58,42,1
217.71269,217.82237,62,42,1
217.93205,218.04388,57,38,1
218.15572,218.26755,55,37,1
218.37938,218.4921,53,36,1
218.60481,218.7162,51,42,1
218.82759,218.93898,55,36,1
218.82759,218.93898,58,36,1
219.05038,219.16177,48,36,1
219.27316,219.38455,55,36,1
219.27316,219.38455,60,36,1
219.49594,219.60562,53,42,1
219.7153,219.82498,60,35,1
219.7153,219.82498,57,35,1
219.93468,220.04436,51,36,1
220.15404,220.26372,57,36,1
220.15404,220.26372,60,36,1
220.3734,220.58943,50,39,1
220.58943,220.80545,53,29,1
220.58943,220.80545,58,34,1
220.80545,221.02565,46,34,1
221.02565,221.25378,53,29,1
221.02565,221.25378,58,34,1
221.25378,221.47745,51,40,1
221.47745,221.70111,55,29,1
221.47745,221.70111,58,34,1
221.70111,221.92477,50,34,1
221.92477,222.1502,55,29,1
221.92477,222.1502,58,34,1
222.1502,222.37299,48,42,1
222.37299,222.59578,55,30,1
222.37299,222.59578,60,36,1
222.59578,222.81856,45,36,1
222.81856,223.04134,51,30,1
222.81856,223.04134,57,36,1
223.04134,223.26677,50,42,1
223.26677,223.4922,57,35,1
223.26677,223.4922,54,29,1
223.4922,223.65672,42,42,1
223.71156,223.87608,54,36,1
223.71156,223.87608,50,30,1
223.93092,224.03772,43,47,1
224.14453,224.25133,55,39,1
224.35812,224.4678,39,49,1
224.57748,224.68716,51,44,1
224.79684,224.90652,36,51,1
225.0162,225.12589,48,46,1
225.23558,225.34319,38,54,1
225.45079,225.55841,50,45,1
225.66602,225.896,51,52,1
225.66602,225.896,39,44,1
226.12596,227.47028,54,60,1
226.12596,227.47028,50,51,1
226.12596,227.47028,42,51,1
227.47028,227.6855,43,50,1
227.6855,227.90073,55,45,1
227.90073,228.12009,39,45,1
228.12009,228.35193,51,45,1
228.35193,228.57559,36,56,1
228.57559,228.79926,48,49,1
228.79926,229.02647,38,49,1
229.02647,229.26411,50,49,1
229.26411,229.48717,31,52,1
229.48717,229.7102,43,55,1
229.7102,230.15958,62,66,1
229.7102,230.15958,50,55,1
230.15958,230.59163,63,65,1
230.15958,230.59163,51,54,1
230.59163,231.03377,61,57,1
230.59163,231.03377,49,48,1
231.03377,231.4725,62,57,1
231.03377,231.4725,50,48,1
231.4725,231.61874,47,61,1
231.61874,231.7673,59,52,1
231.7673,231.91818,47,52,1
231.91818,232.0622,48,63,1
232.0622,232.2062,60,55,1
232.2062,232.35023,48,54,1
232.35023,232.49648,45,59,1
232.49648,232.64386,57,52,1
232.64386,232.79237,45,52,1
232.79237,232.93863,46,57,1
232.93863,233.08487,58,52,1
233.08487,233.23111,46,52,1
233.44539,233.55733,58,72,1
233.44539,233.55733,46,59,1
233.66927,233.8853,57,79,1
233.66927,233.8853,45,67,1
233.8853,233.99332,55,65,1
233.8853,233.99332,43,54,1
234.10133,234.21101,55,71,1
234.10133,234.21101,43,59,1
234.3207,234.43208,55,64,1
234.3207,234.43208,43,53,1
234.54347,234.76283,55,78,1
234.54347,234.76283,43,66,1
234.76283,234.87251,54,72,1
234.76283,234.87251,42,59,1
235.20157,235.31471,53,72,1
235.20157,235.31471,41,59,1
235.42787,235.6439,53,79,1
235.42787,235.6439,41,67,1
235.6439,235.75192,52,60,1
235.6439,235.75192,40,51,1
235.85994,235.96962,51,67,1
235.85994,235.96962,39,56,1
236.0793,236.19069,51,59,1
236.0793,236.19069,39,50,1
236.30208,236.52144,51,78,1
236.30208,236.52144,39,66,1
236.52144,236.63112,50,72,1
236.52144,236.63112,38,59,1
236.7408,236.95663,39,78,1
236.95663,237.17245,51,70,1
237.17245,237.39064,38,78,1
237.39064,237.60883,50,71,1
237.60883,237.82701,37,78,1
237.82701,238.05173,49,68,1
238.05173,238.19771,38,78,1
238.19771,238.3437,42,69,1
238.3437,238.48969,45,69,1
238.48969,238.63254,50,76,1
238.63254,238.7786,54,67,1
238.7786,238.92784,57,67,1
238.92784,239.07187,50,73,1
239.07187,239.21588,55,61,1
239.21588,239.35991,58,61,1
239.35991,239.50615,57,67,1
239.50615,239.65353,58,55,1
239.65353,239.80205,55,55,1
239.80205,239.94829,50,64,1
239.94829,240.09454,54,56,1
240.09454,240.24078,57,56,1
240.24078,240.38702,56,47,1
240.38702,240.53558,57,36,1
240.53558,240.68645,54,36,1
240.68645,240.83047,50,42,1
240.83047,240.97449,53,33,1
240.97449,241.11852,56,33,1
241.11852,241.26476,55,43,1
241.26476,241.41214,56,35,1
241.41214,241.56065,53,35,1
241.56065,241.7069,48,43,1
241.7069,241.85313,53,36,1
241.85313,241.99939,56,36,1
241.99939,242.14224,48,76,1
242.14224,242.2883,52,67,1
242.2883,242.43755,55,67,1
242.43755,242.58157,48,73,1
242.58157,242.72559,53,61,1
242.72559,242.86961,56,61,1
242.86961,243.01585,55,67,1
243.01585,243.16324,56,55,1
243.16324,243.31175,53,55,1
243.31175,243.458,48,64,1
243.458,243.60423,52,56,1
243.60423,243.75047,55,56,1
243.75047,243.89673,54,47,1
243.89673,244.04527,55,36,1
244.04527,244.19615,52,36,1
244.19615,244.34018,48,42,1
244.34018,244.48419,51,33,1
244.48419,244.62822,54,33,1
244.62822,244.77446,53,43,1
244.77446,244.92184,54,35,1
244.92184,245.07036,51,35,1
245.07036,245.2166,46,43,1
245.2166,245.36284,51,36,1
245.36284,245.50908,54,36,1
245.51457,245.66081,46,51,1
245.65442,245.80066,50,44,1
245.80247,245.94872,53,44,1
245.94781,246.37987,60,60,1
246.37987,246.82202,57,50,1
246.82202,247.4801,58,59,1
247.4801,247.59326,62,45,1
247.70642,247.92244,65,53,1
247.92244,248.03046,63,46,1
248.13847,248.24815,63,46,1
248.35783,248.46922,63,46,1
247.70642,248.58061,58,51,1
248.58061,248.79999,63,53,1
248.79999,248.90967,62,46,1
248.58061,249.01935,58,51,1
249.23871,249.46011,58,53,1
249.46011,249.67593,60,59,1
249.67593,249.89816,62,50,1
249.89816,250.11752,55,55,1
250.11752,250.3403,57,50,1
250.3403,250.9984,58,59,1
250.9984,251.11154,62,45,1
251.2247,251.44073,65,53,1
251.44073,251.54875,63,46,1
251.65677,251.76645,63,46,1
251.87613,251.98752,63,46,1
251.2247,252.0989,58,53,1
252.0989,252.31827,63,53,1
252.31827,252.42795,62,46,1
252.0989,252.53763,58,53,1
252.757,252.9784,58,68,1
252.757,252.9784,46,57,1
252.9784,253.41644,59,77,1
252.9784,253.41644,47,65,1
253.41644,253.8586,56,71,1
253.41644,253.8586,44,59,1
253.8586,254.29732,58,77,1
253.8586,254.29732,46,65,1
254.51668,254.62984,63,66,1
254.51668,254.62984,51,55,1
254.743,254.95903,61,78,1
254.743,254.95903,49,66,1
254.95903,255.06703,59,65,1
254.95903,255.06703,47,54,1
255.17505,255.28473,59,65,1
255.17505,255.28473,47,54,1
255.39441,255.50581,59,64,1
255.39441,255.50581,47,53,1
255.6172,255.83656,59,76,1
255.6172,255.83656,47,64,1
255.83656,255.94624,58,65,1
255.83656,255.94624,46,54,1
256.05594,256.1988,49,68,1
256.1988,256.34402,54,61,1
256.34402,256.4916,58,61,1
256.4916,256.92966,59,77,1
256.4916,256.92966,47,65,1
256.92966,257.3718,56,71,1
256.92966,257.3718,44,59,1
257.3718,257.81055,58,77,1
257.3718,257.81055,46,65,1
258.0299,258.14304,63,66,1
258.0299,258.14304,51,55,1
258.2562,258.47223,61,78,1
258.2562,258.47223,49,66,1
258.47223,258.58026,59,65,1
258.47223,258.58026,47,54,1
258.68826,258.79794,59,65,1
258.68826,258.79794,47,54,1
258.90762,259.019,59,64,1
258.90762,259.019,47,53,1
259.1304,259.34644,59,78,1
259.1304,259.34644,47,66,1
259.34644,259.45447,58,65,1
259.34644,259.45447,46,54,1
259.56247,259.67215,58,65,1
259.56247,259.67215,46,54,1
259.78183,259.89322,58,64,1
259.78183,259.89322,46,53,1
260.0046,260.22064,58,78,1
260.0046,260.22064,46,66,1
260.22064,260.32867,56,65,1
260.22064,260.32867,44,54,1
260.43668,260.54636,56,65,1
260.43668,260.54636,44,54,1
260.65604,260.76743,56,64,1
260.65604,260.76743,44,53,1
260.8788,261.09485,56,78,1
260.8788,261.09485,44,66,1
261.09485,261.20288,54,65,1
261.09485,261.20288,42,54,1
261.31088,261.42056,54,65,1
261.31088,261.42056,42,54,1
261.53024,261.64163,54,64,1
261.53024,261.64163,42,53,1
261.75302,262.62997,47,103,1
261.75302,262.62997,35,88,1
262.62997,262.8522,47,89,1
262.62997,262.8522,35,75,1
262.8522,262.96332,46,75,1
262.8522,262.96332,34,64,1
263.07443,263.18555,46,75,1
263.07443,263.18555,34,64,1
263.29666,263.40775,46,75,1
263.29666,263.40775,34,64,1
263.51886,264.39526,47,103,1
263.51886,264.39526,35,88,1
264.39526,264.6175,47,89,1
264.39526,264.6175,35,75,1
264.6175,264.7286,46,75,1
264.6175,264.7286,34,64,1
264.8397,264.9508,46,75,1
264.8397,264.9508,34,64,1
265.06192,265.17303,46,75,1
265.06192,265.17303,34,64,1
265.28415,266.16055,35,88,1
265.28415,266.16055,47,103,1
266.16055,266.60498,34,75,1
266.16055,266.60498,46,89,1
266.60498,267.04944,33,64,1
266.60498,267.04944,45,75,1
267.04944,267.9258,46,103,1
267.04944,267.9258,34,88,1
267.9258,268.14804,46,86,1
267.9258,268.14804,34,72,1
268.14804,268.25916,45,72,1
268.14804,268.25916,33,60,1
268.37027,268.48138,45,71,1
268.37027,268.48138,33,59,1
268.5925,268.70358,45,70,1
268.5925,268.70358,33,59,1
268.8147,269.6911,46,96,1
268.8147,269.6911,34,81,1
269.6911,269.91333,46,78,1
269.6911,269.91333,34,67,1
269.91333,270.02444,45,66,1
269.91333,270.02444,33,55,1
270.13556,270.24664,45,65,1
270.13556,270.24664,33,55,1
270.35776,270.46887,45,64,1
270.35776,270.46887,33,54,1
270.58,271.4564,46,88,1
270.58,271.4564,34,74,1
271.4564,271.6786,46,72,1
271.4564,271.6786,34,61,1
271.6786,271.7897,45,60,1
271.6786,271.7897,33,51,1
271.90082,272.01193,45,59,1
271.90082,272.01193,33,50,1
272.12305,272.23416,45,58,1
272.12305,272.23416,33,50,1
272.34528,273.00226,34,68,1
272.34528,273.00226,46,80,1
273.00226,273.22165,46,77,1
273.00226,273.22165,34,66,1
273.22165,273.6661,33,55,1
273.22165,273.6661,45,65,1
273.6661,274.11053,32,45,1
273.6661,274.11053,44,53,1
274.11053,274.76755,33,57,1
274.11053,274.76755,45,68,1
274.76755,274.98694,45,56,1
274.76755,274.98694,33,56,1
274.98694,275.4314,31,49,1
274.98694,275.4314,43,58,1
275.4314,275.87582,30,40,1
275.4314,275.87582,42,49,1
275.87582,276.75223,43,68,1
275.87582,276.75223,31,57,1
276.75223,276.97446,43,58,1
276.75223,276.97446,31,49,1
276.97446,277.08554,44,49,1
276.97446,277.08554,32,40,1
277.19666,277.30777,44,49,1
277.19666,277.30777,32,40,1
277.41888,277.53,44,49,1
277.41888,277.53,32,40,1
277.6411,278.52158,43,68,1
277.6411,278.52158,31,57,1
278.52158,278.75354,43,46,1
278.52158,278.75354,31,38,1
278.75354,278.87088,44,38,1
278.75354,278.87088,32,32,1
278.98932,279.10867,44,38,1
278.98932,279.10867,32,32,1
279.22916,279.35062,44,38,1
279.22916,279.35062,32,32,1
279.47305,279.71997,43,46,1
279.47305,279.71997,31,38,1
279.9669,281.29,67,94,1
279.9669,281.29,55,78,1
281.29,281.50604,55,42,1
281.50604,281.61404,67,31,1
281.72208,281.83176,62,26,1
281.72208,281.83176,65,31,1
281.94144,282.05283,67,32,1
282.1642,282.38483,55,44,1
282.38483,282.60004,67,31,1
282.60004,282.8169,63,35,1
282.60004,282.8169,60,29,1
282.8169,283.04144,67,32,1
283.04144,283.25748,55,42,1
283.25748,283.36548,67,31,1
283.4735,283.58276,62,26,1
283.4735,283.58276,65,31,1
283.69202,283.8043,67,29,1
283.91653,284.1359,55,44,1
284.1359,284.24557,67,32,1
284.3553,284.46497,63,35,1
284.3553,284.46497,60,29,1
284.3553,284.46497,54,29,1
284.57465,284.7983,66,35,1
284.7983,285.01352,53,42,1
285.01352,285.12112,65,35,1
285.22873,285.33844,62,35,1
285.44812,285.5578,65,36,1
285.66748,285.88348,55,42,1
285.88348,285.99152,64,36,1
286.09952,286.2092,60,36,1
286.31888,286.42856,64,36,1
286.53824,286.75348,53,35,1
286.53824,286.75348,62,42,1
286.75348,286.9687,65,33,1
286.9687,287.07965,53,29,1
286.9687,287.07965,63,35,1
287.1906,287.3047,65,34,1
287.41873,287.5347,58,42,1
287.41873,287.5347,62,42,1
287.64438,287.75623,57,38,1
287.86804,287.9799,55,37,1
288.0917,288.20444,53,36,1
288.31714,288.42853,51,42,1
288.53995,288.65134,55,36,1
288.53995,288.65134,58,36,1
288.76273,288.8741,48,36,1
288.9855,289.0969,55,36,1
288.9855,289.0969,60,36,1
289.20828,289.31796,53,42,1
289.42764,289.53732,60,35,1
289.42764,289.53732,57,35,1
289.647,289.75668,51,36,1
289.86636,289.97604,57,36,1
289.86636,289.97604,60,36,1
290.08572,290.19376,50,39,1
290.30176,290.4098,53,29,1
290.30176,290.4098,58,34,1
290.5178,290.6279,46,34,1
290.738,290.85205,53,29,1
290.738,290.85205,58,34,1
290.96613,291.07797,51,40,1
291.1898,291.30164,55,29,1
291.1898,291.30164,58,34,1
291.41345,291.5289,50,34,1
291.64435,291.75842,55,29,1
291.64435,291.75842,58,29,1
291.8725,291.9839,48,33,1
292.09528,292.20667,56,29,1
292.09528,292.20667,60,29,1
292.31805,292.42944,51,29,1
292.54083,292.65222,56,29,1
292.54083,292.65222,60,29,1
292.7636,292.8733,48,33,1
292.98297,293.09265,60,28,1
292.98297,293.09265,56,28,1
293.20233,293.312,51,29,1
293.42172,293.5314,56,29,1
293.42172,293.5314,60,29,1
293.64108,293.86386,49,33,1
293.86386,294.08664,58,29,1
293.86386,294.08664,55,29,1
294.08664,294.30942,51,29,1
294.30942,294.5322,55,29,1
294.30942,294.5322,58,29,1
294.5322,294.75156,49,33,1
294.75156,294.97092,58,28,1
294.75156,294.97092,55,28,1
294.97092,295.13544,51,29,1
295.19028,295.35483,55,29,1
295.19028,295.35483,58,29,1
295.40967,295.62903,48,31,1
295.62903,295.8484,60,27,1
295.62903,295.8484,56,23,1
295.8484,296.06857,51,27,1
296.06857,296.29312,56,23,1
296.06857,296.29312,60,27,1
296.29312,296.51678,48,32,1
296.51678,296.744,56,23,1
296.51678,296.744,60,27,1
296.744,296.85583,51,32,1
296.96765,297.0795,60,27,1
296.96765,297.0795,56,23,1
297.1913,297.41498,49,32,1
297.41498,297.52682,55,29,1
297.41498,297.52682,58,29,1
297.63864,297.85718,51,32,1
297.85718,298.07568,55,29,1
297.85718,298.07568,58,29,1
298.07568,298.2942,49,34,1
298.2942,298.40604,55,29,1
298.2942,298.40604,58,29,1
298.51785,298.6297,51,31,1
298.74152,298.85336,55,34,1
298.74152,298.85336,58,34,1
298.96518,299.18372,48,37,1
299.18372,299.40222,60,32,1
299.18372,299.40222,56,27,1
299.40222,299.6259,51,32,1
299.6259,299.84955,60,32,1
299.6259,299.84955,56,27,1
299.84955,300.06805,48,37,1
300.06805,300.28943,56,27,1
300.06805,300.28943,60,32,1
300.28943,300.5131,51,32,1
300.5131,300.73676,56,27,1
300.5131,300.73676,60,32,1
300.73676,300.95938,49,37,1
300.95938,301.17905,55,27,1
300.95938,301.17905,58,32,1
301.17905,301.3981,52,32,1
301.3981,301.61917,55,27,1
301.3981,301.61917,58,32,1
301.61917,301.84195,49,37,1
301.84195,302.06827,55,27,1
301.84195,302.06827,58,32,1
302.06827,302.29016,52,36,1
302.29016,302.5121,55,32,1
302.29016,302.5121,58,39,1
302.5121,302.7306,50,44,1
302.7306,302.94913,58,31,1
302.7306,302.94913,62,38,1
302.94913,303.17102,53,38,1
303.17102,303.39294,58,31,1
303.17102,303.39294,62,38,1
303.39294,303.61484,50,48,1
303.61484,303.83676,58,31,1
303.61484,303.83676,62,37,1
303.83676,304.06042,53,37,1
304.06042,304.2841,58,31,1
304.06042,304.2841,62,37,1
304.2841,304.5026,51,50,1
304.5026,304.7211,60,34,1
304.5026,304.7211,63,40,1
304.7211,304.94476,55,37,1
304.94476,305.16846,60,31,1
304.94476,305.16846,63,37,1
305.16846,305.39212,53,44,1
305.39212,305.61578,58,28,1
305.39212,305.61578,62,34,1
305.61578,305.83945,53,34,1
305.83945,306.0631,57,28,1
305.83945,306.0631,63,34,1
306.0631,306.28677,46,38,1
306.28677,306.51044,58,25,1
306.28677,306.51044,62,30,1
306.51044,306.72894,50,30,1
306.72894,306.94745,58,25,1
306.72894,306.94745,62,30,1
306.94745,307.16595,53,36,1
307.16595,307.3845,58,25,1
307.16595,307.3845,62,30,1
307.3845,307.609,54,30,1
307.609,307.83356,60,26,1
307.609,307.83356,62,31,1
307.83356,308.07217,55,29,1
307.83356,308.07217,59,29,1
307.83356,308.07217,62,34,1
308.3108,309.63394,67,94,1
308.3108,309.63394,55,78,1
309.63394,309.84995,55,42,1
309.84995,309.95798,67,31,1
310.06598,310.17566,62,26,1
310.06598,310.17566,65,31,1
310.28534,310.39673,67,32,1
310.50815,310.72873,55,44,1
310.72873,310.94397,67,31,1
310.94397,311.16083,63,35,1
310.94397,311.16083,60,29,1
311.16083,311.38535,67,32,1
311.38535,311.60138,55,42,1
311.60138,311.7094,67,31,1
311.8174,311.92667,62,26,1
311.8174,311.92667,65,31,1
312.03592,312.1482,67,29,1
312.26047,312.47983,55,44,1
312.47983,312.5895,67,32,1
312.6992,312.80887,63,35,1
312.6992,312.80887,60,29,1
312.6992,312.80887,54,29,1
312.91855,313.1422,66,35,1
313.1422,313.35742,53,42,1
313.35742,313.46506,65,35,1
313.57266,313.68234,62,35,1
313.79202,313.9017,65,36,1
314.01138,314.22742,55,42,1
314.22742,314.33542,64,36,1
314.44345,314.55313,60,36,1
314.6628,314.7725,64,36,1
314.88217,315.09738,53,35,1
314.88217,315.09738,62,42,1
315.09738,315.31262,65,33,1
315.31262,315.42358,53,29,1
315.31262,315.42358,57,35,1
315.53452,315.6486,63,34,1
315.76266,315.98373,58,42,1
315.76266,315.98373,62,42,1
315.98373,316.19894,65,38,1
316.19894,316.4183,62,38,1
316.4183,316.64285,58,38,1
316.64285,316.86737,55,43,1
316.86737,316.97833,64,37,1
317.0893,317.3112,58,39,1
317.3112,317.5331,64,42,1
317.5331,317.74832,53,35,1
317.74832,317.96356,65,33,1
317.96356,318.07452,57,35,1
318.18546,318.2986,65,34,1
318.41177,318.63028,55,43,1
318.63028,318.74213,64,35,1
318.85394,319.0776,58,35,1
319.0776,319.30127,64,36,1
319.30127,319.73172,65,35,1
319.30127,319.73172,57,29,1
319.30127,319.73172,53,29,1
320.41254,320.52792,60,39,1
320.6433,320.7614,57,43,1
320.87955,320.99765,55,47,1
321.11655,321.23703,53,50,1
321.3575,321.48218,51,46,1
321.60822,321.73532,50,43,1
321.8641,321.99396,48,39,1
322.3861,322.51077,34,33,1
322.8656,322.9816,46,33,1
323.3304,323.4455,50,33,1
323.7885,323.9039,51,33,1
324.24997,324.4785,55,33,1
324.7055,324.93448,58,33,1
325.16165,325.3872,62,33,1
325.61832,325.84778,41,33,1
326.0739,326.3014,43,33,1
326.5302,326.7604,46,33,1
326.9924,327.2235,50,33,1
327.4531,327.6839,54,33,1
327.91318,328.02734,55,33,1
328.14154,328.25528,57,33,1
328.36902,328.4823,58,33,1
328.70874,328.82202,65,35,1
328.59546,328.82202,60,33,1
328.82202,328.93533,60,35,1
328.93533,329.0486,65,35,1
329.1619,329.2752,64,33,1
329.0486,329.2752,48,33,1
329.2752,329.3885,58,33,1
329.3885,329.5018,64,33,1
329.5018,329.61642,65,46,1
329.5018,329.61642,57,33,1
329.5018,329.61642,41,33,1
329.5018,329.61642,53,33,1
329.73135,329.84662,60,39,1
329.96216,330.07788,57,43,1
330.19373,330.31036,55,47,1
330.4276,330.5418,53,50,1
330.65598,330.77695,51,46,1
330.8994,331.02338,50,43,1
331.1489,331.27603,48,39,1
331.65924,331.90125,34,33,1
332.1332,332.3652,46,33,1
332.59802,332.8273,50,33,1
333.05612,333.28693,51,33,1
333.51758,333.7461,55,33,1
333.9731,334.2021,58,33,1
334.42926,334.65482,62,33,1
334.88873,335.12003,41,33,1
335.3462,335.57367,43,33,1
335.80246,336.03265,46,33,1
336.26468,336.4958,50,33,1
336.72537,336.96213,54,33,1
337.19138,337.30557,55,33,1
337.41974,337.53348,57,33,1
337.64722,337.76053,59,33,1
337.87366,338.09982,48,33,1
338.32742,338.55826,50,33,1
339.04037,339.27338,55,33,1
339.5046,339.73404,48,33,1
339.95868,340.1844,43,33,1
340.4134,340.6424,43,36,1
340.86627,341.09015,36,36,1
341.31573,341.5413,36,34,1
341.76685,341.9924,38,33,1
342.2187,342.44812,38,33,1
342.68845,342.91833,43,33,1
343.1467,343.3736,55,33,1
343.59894,343.82288,55,33,1
344.05307,344.28326,55,36,1
344.51163,344.74,48,36,1
344.96686,345.19345,48,34,1
345.42004,345.64664,50,33,1
345.87308,346.10983,50,33,1
346.59,347.04993,59,29,1
347.04993,347.5074,62,29,1
347.5074,347.96964,60,32,1
347.96964,348.42636,59,32,1
346.10983,348.42636,55,29,1
348.42636,348.88916,55,30,1
348.42636,348.88916,48,30,1
348.88916,349.34756,54,29,1
349.34756,349.8067,57,29,1
348.88916,349.8067,50,29,1
350.28568,350.74063,59,29,1
350.74063,350.9678,62,29,1
350.9678,351.1944,63,26,1
351.1944,351.42365,62,29,1
351.42365,351.65115,60,27,1
351.65115,352.11517,59,32,1
349.8067,352.11517,55,29,1
352.11517,352.57672,55,30,1
352.11517,352.57672,48,30,1
352.57672,353.03552,54,29,1
353.03552,353.49466,57,29,1
352.57672,353.49466,50,29,1
353.9587,354.42203,48,28,1
353.49466,354.42203,55,32,1
354.42203,354.88095,54,26,1
354.88095,355.34213,57,26,1
354.42203,355.34213,50,26,1
355.34213,355.80316,43,26,1
355.80316,356.26108,46,26,1
356.26108,356.71054,50,26,1
356.71054,357.1689,53,26,1
357.1689,357.6251,41,26,1
357.6251,358.0835,44,26,1
358.0835,358.54202,48,26,1
358.54202,359.0009,51,26,1
359.0009,359.46115,39,29,1
359.46115,359.92017,43,30,1
359.92017,360.37872,46,31,1
360.37872,360.83786,50,32,1
360.83786,361.2993,41,29,1
361.2993,361.75827,39,32,1
361.75827,362.2231,38,36,1
362.2231,362.7165,36,32,1
362.96838,363.20746,34,33,1
363.43936,363.67136,46,33,1
363.90417,364.13345,50,33,1
364.36227,364.59308,51,33,1
364.82373,365.05225,55,33,1
365.27927,365.50824,58,33,1
365.7354,365.96097,62,33,1
366.18536,366.41107,41,33,1
366.6372,366.8647,43,33,1
367.0935,367.3237,46,33,1
367.5557,367.7868,50,33,1
368.0164,368.2472,54,33,1
368.47647,368.59064,55,33,1
368.70483,368.81857,57,33,1
368.9323,369.0456,58,33,1
369.15875,369.3849,51,33,1
369.61252,369.84222,53,33,1
370.3185,370.55334,58,33,1
370.78354,371.01312,51,33,1
371.24182,371.4694,46,33,1
371.69553,371.92038,46,36,1
372.14874,372.3771,39,36,1
372.60098,372.82486,39,34,1
373.0513,373.2777,41,33,1
373.50412,373.73355,41,33,1
373.97574,374.20685,46,33,1
374.43704,374.66675,58,33,1
374.89603,375.1244,58,33,1
375.3555,375.58585,58,36,1
375.8142,376.04257,51,36,1
376.26947,376.49603,51,32,1
376.72263,376.94922,53,33,1
377.17566,377.4124,53,33,1
377.8926,378.35297,62,29,1
378.35297,378.81134,65,29,1
378.81134,379.2678,63,32,1
379.2678,379.7318,62,32,1
377.4124,379.7318,58,29,1
379.7318,380.18695,58,30,1
379.7318,380.18695,51,30,1
380.18695,380.64532,57,29,1
380.64532,381.1098,60,29,1
380.18695,381.1098,53,29,1
381.59512,382.05844,62,29,1
382.05844,382.28894,65,29,1
382.28894,382.51822,66,26,1
382.51822,382.74637,65,29,1
382.74637,382.9745,63,27,1
382.9745,383.4396,62,32,1
381.1098,383.4396,58,29,1
383.4396,383.90836,58,30,1
383.4396,383.90836,51,30,1
383.90836,384.3822,57,29,1
384.3822,384.85715,60,29,1
383.90836,384.85715,53,29,1
386.7695,387.60617,58,92,1
386.7695,387.60617,53,76,1
386.7695,387.60617,46,76,1
387.60617,387.7197,58,77,1
387.60617,387.7197,53,66,1
387.60617,387.7197,46,66,1
387.72568,388.06876,58,84,1
387.72568,388.06876,46,70,1
388.06876,388.17673,58,80,1
388.06876,388.17673,46,67,1
388.1824,388.52118,61,84,1
388.1824,388.52118,49,70,1
388.52118,388.62778,61,77,1
388.52118,388.62778,49,66,1
388.6334,388.9692,46,84,1
388.6334,388.9692,34,70,1
388.9692,389.07556,46,77,1
388.9692,389.07556,34,66,1
389.08115,389.41696,49,79,1
389.08115,389.41696,37,66,1
389.41696,389.52332,49,73,1
389.41696,389.52332,37,61,1
389.5289,389.86725,53,79,1
389.5289,389.86725,41,66,1
389.86725,389.9744,53,73,1
389.86725,389.9744,41,61,1
389.98004,390.3184,58,79,1
389.98004,390.3184,46,66,1
390.3184,390.43115,58,71,1
390.3184,390.43115,46,59,1
390.43115,390.5427,51,84,1
390.43115,390.5427,39,70,1
392.44196,392.57404,59,63,1
392.55518,392.6871,63,65,1
392.6684,392.79843,66,68,1
392.7799,392.9095,64,66,1
392.89102,393.02017,63,64,1
393.0017,393.13068,61,63,1
393.11227,393.24097,59,61,1
393.2226,393.35092,58,61,1
393.3326,393.46075,56,63,1
393.4425,393.57022,54,64,1
393.55197,393.67953,52,64,1
393.66135,393.7886,51,65,1
393.77045,393.89737,49,66,1
393.87927,393.98782,47,66,1
393.98782,394.20862,51,73,1
393.98782,394.20862,39,61,1
394.4294,394.6477,51,77,1
394.4294,394.6477,39,65,1
394.86597,395.07333,51,76,1
394.86597,395.07333,39,64,1
395.08426,395.19217,51,63,1
395.08426,395.19217,39,52,1
395.30008,395.40796,51,67,1
395.30008,395.40796,39,57,1
395.51587,395.63025,51,72,1
395.51587,395.63025,39,60,1
395.74463,395.96545,53,73,1
395.74463,395.96545,41,61,1
396.18625,396.4045,53,77,1
396.18625,396.4045,41,65,1
396.6228,396.83017,53,76,1
396.6228,396.83017,41,64,1
396.84106,396.94897,53,63,1
396.84106,396.94897,41,52,1
397.0569,397.1648,53,67,1
397.0569,397.1648,41,57,1
397.2727,397.38617,53,72,1
397.2727,397.38617,41,60,1
397.49963,397.61716,46,67,1
397.61716,397.73315,49,57,1
397.73315,397.84866,53,57,1
397.84866,397.96378,58,57,1
397.96378,398.0784,46,67,1
398.0784,398.19263,49,57,1
398.19263,398.3064,53,57,1
398.3064,398.41977,58,57,1
398.41977,398.5321,46,67,1
398.5321,398.64447,49,56,1
398.64447,398.75668,53,57,1
398.75668,398.86865,58,57,1
398.86865,398.9806,46,67,1
398.9806,399.09225,49,59,1
399.09225,399.20377,53,59,1
399.20377,399.31528,58,60,1
399.31528,399.426,46,67,1
399.426,399.53696,49,58,1
399.53696,399.64822,54,58,1
399.64822,399.75974,58,58,1
399.75974,399.87167,46,67,1
399.87167,399.9836,49,60,1
399.9836,400.09598,54,60,1
400.09598,400.20932,58,60,1
400.20932,400.32312,46,67,1
400.32312,400.43732,53,58,1
400.43732,400.55197,56,58,1
400.55197,400.66705,58,58,1
400.66705,400.78244,46,67,1
400.78244,400.89783,53,57,1
400.89783,401.0132,56,57,1
401.0132,401.1286,58,57,1
401.1286,401.24612,46,67,1
401.24612,401.3621,51,57,1
401.3621,401.47763,54,57,1
401.47763,401.5927,58,57,1
401.5927,401.70737,46,67,1
401.70737,401.8216,51,55,1
401.8216,401.93536,54,55,1
401.93536,402.0487,58,54,1
402.0487,402.16107,46,63,1
402.16107,402.27344,51,53,1
402.27344,402.38565,54,54,1
402.38565,402.4976,58,54,1
402.4976,402.60953,46,63,1
402.60953,402.7212,51,56,1
402.7212,402.83273,54,56,1
402.83273,402.94424,58,57,1
402.94424,403.05496,47,63,1
403.05496,403.16592,51,55,1
403.16592,403.27716,54,55,1
403.27716,403.3887,59,55,1
403.3887,403.50064,47,63,1
403.50064,403.61258,51,57,1
403.61258,403.72495,54,57,1
403.72495,403.8383,59,57,1
403.8383,403.9521,48,63,1
403.9521,404.06628,51,55,1
404.06628,404.18094,53,55,1
404.18094,404.29602,60,55,1
404.29602,404.4114,48,63,1
404.4114,404.5268,51,54,1
404.5268,404.64218,53,54,1
404.64218,404.75757,60,54,1
404.75757,404.8751,49,63,1
404.8751,404.99106,53,54,1
404.99106,405.1066,58,54,1
405.1066,405.22168,61,54,1
405.22168,405.33633,49,63,1
405.33633,405.45056,53,54,1
405.45056,405.56433,58,54,1
405.56433,405.67767,61,54,1
405.67767,405.79004,49,63,1
405.79004,405.9024,53,53,1
405.9024,406.01462,58,54,1
406.01462,406.12656,61,54,1
406.12656,406.2385,49,63,1
406.2385,406.35016,53,56,1
406.35016,406.4617,58,56,1
406.4617,406.5732,61,57,1
406.5732,406.6839,49,63,1
406.6839,406.7949,54,55,1
406.7949,406.90613,58,55,1
406.90613,407.01767,61,55,1
407.01767,407.1296,49,63,1
407.1296,407.24155,54,57,1
407.24155,407.3539,58,57,1
407.3539,407.46725,61,57,1
407.46725,407.58102,49,63,1
407.58102,407.69525,56,55,1
407.69525,407.8099,59,55,1
407.8099,407.925,61,55,1
407.925,408.04037,49,63,1
408.04037,408.15576,56,54,1
408.15576,408.27115,59,54,1
408.27115,408.38654,61,54,1
408.38654,408.50406,49,67,1
408.50406,408.62003,54,57,1
408.62003,408.73557,58,57,1
408.73557,408.85065,61,57,1
408.85065,408.9653,49,67,1
408.9653,409.0795,54,55,1
409.0795,409.1933,58,55,1
409.1933,409.30664,61,51,1
409.30664,409.419,50,59,1
409.419,409.53137,54,50,1
409.53137,409.6436,58,51,1
409.6436,409.75552,62,51,1
409.75552,409.86746,51,59,1
409.86746,409.97913,54,53,1
409.97913,410.09064,58,53,1
410.09064,410.20218,63,54,1
410.20218,410.31287,53,59,1
410.31287,410.42386,58,52,1
410.42386,410.5351,61,52,1
410.5351,410.6466,65,52,1
410.6466,410.75854,54,59,1
410.75854,410.8705,58,54,1
410.8705,410.98285,61,54,1
410.98285,411.09622,66,54,1
411.09622,411.21,53,59,1
411.21,411.32422,58,52,1
411.32422,411.43884,61,52,1
411.43884,411.55396,65,52,1
411.55396,411.66934,53,59,1
411.66934,411.78473,58,51,1
411.78473,411.9001,61,51,1
411.9001,412.01547,65,51,1
412.01547,412.13193,53,56,1
412.13193,412.24615,58,49,1
412.24615,412.3608,60,48,1
412.3608,412.4759,65,47,1
412.4759,412.59128,53,51,1
412.59128,412.70667,57,44,1
412.70667,412.82205,60,43,1
412.82205,412.93744,65,42,1
412.93744,413.01434,46,42,1
413.09128,413.24512,62,42,1
413.24512,413.39896,65,34,1
413.39896,413.55283,58,34,1
413.55283,413.70667,62,30,1
413.70667,413.8605,65,30,1
413.8605,414.0103,58,34,1
414.0103,414.16013,62,29,1
414.16013,414.3094,65,29,1
414.3094,414.45865,58,34,1
414.45865,414.60733,62,30,1
414.60733,414.75604,65,30,1
414.75604,414.90363,58,34,1
414.90363,415.0518,62,30,1
415.0518,415.2005,65,30,1
415.2005,415.34973,56,34,1
415.34973,415.499,62,30,1
415.499,415.6501,65,30,1
415.6501,415.80188,55,34,1
415.80188,415.9544,63,29,1
415.9544,416.10782,65,29,1
416.10782,416.26166,57,34,1
416.26166,416.4155,63,30,1
416.4155,416.56934,65,30,1
416.56934,416.7232,58,34,1
416.7232,416.87704,62,31,1
416.87704,417.03088,65,31,1
417.03088,417.18472,58,34,1
417.18472,417.3386,62,30,1
417.3386,417.49243,65,30,1
417.49243,417.64224,58,34,1
417.64224,417.79205,62,29,1
417.79205,417.9413,65,29,1
417.9413,418.09055,57,34,1
418.09055,418.23926,60,30,1
418.23926,418.38797,65,30,1
418.38797,418.53555,55,34,1
418.53555,418.68372,58,30,1
418.68372,418.8324,62,30,1
418.8324,418.98166,55,34,1
418.98166,419.13092,58,30,1
419.13092,419.282,64,30,1
419.282,419.4338,53,34,1
419.4338,419.58633,58,29,1
419.58633,419.73975,65,29,1
419.73975,419.8936,53,34,1
419.8936,420.04742,57,30,1
420.04742,420.20126,65,30,1
420.20126,420.2782,46,34,1
420.3551,420.50897,62,31,1
420.50897,420.6628,65,31,1
420.6628,420.81375,58,34,1
420.81375,420.9647,62,30,1
420.9647,421.11563,65,30,1
421.11563,421.26544,58,34,1
421.26544,421.41525,62,29,1
421.41525,421.5645,65,29,1
421.5645,421.71378,58,34,1
421.71378,421.86246,62,30,1
421.86246,422.01117,65,30,1
422.01117,422.15878,58,34,1
422.15878,422.30692,62,30,1
422.30692,422.45563,65,30,1
422.45563,422.60486,56,34,1
422.60486,422.75412,62,30,1
422.75412,422.9052,65,30,1
422.9052,423.057,55,34,1
423.057,423.20953,63,29,1
423.20953,423.36295,65,29,1
423.36295,423.51678,57,34,1
423.51678,423.67062,63,30,1
423.67062,423.8245,65,30,1
423.8245,423.97833,58,34,1
423.97833,424.13217,62,31,1
424.13217,424.286,65,31,1
424.286,424.43988,58,34,1
424.43988,424.59372,62,30,1
424.59372,424.74756,65,30,1
424.74756,424.89737,58,34,1
424.89737,425.04718,62,29,1
425.04718,425.19644,65,29,1
425.19644,425.3457,57,34,1
425.3457,425.4944,60,30,1
425.4944,425.6431,65,30,1
425.6431,425.79068,55,34,1
425.79068,425.93884,58,30,1
425.93884,426.08752,62,30,1
426.08752,426.2368,55,34,1
426.2368,426.38605,58,30,1
426.38605,426.53714,64,30,1
426.53714,426.68893,53,34,1
426.68893,426.84146,58,29,1
426.84146,426.99487,65,29,1
426.99487,427.1487,53,34,1
427.1487,427.30255,57,30,1
427.30255,427.4564,65,30,1
427.4564,427.53333,46,34,1
427.61026,427.7641,62,31,1
427.7641,427.91794,65,31,1
427.91794,428.07004,58,34,1
428.07004,428.22214,62,30,1
428.22214,428.3742,65,30,1
428.3742,428.52402,58,34,1
428.52402,428.67383,62,29,1
428.67383,428.8231,65,29,1
428.8231,428.97235,59,34,1
428.97235,429.12103,62,30,1
429.12103,429.26974,65,30,1
429.26974,429.41736,58,34,1
429.41736,429.5655,62,30,1
429.5655,429.7142,65,30,1
429.7142,429.86304,59,34,1
429.86304,430.01172,62,30,1
430.01172,430.16043,65,30,1
430.16043,430.30954,58,34,1
430.30954,430.4588,62,29,1
430.4588,430.60806,65,29,1
430.60806,430.75772,56,34,1
430.75772,430.90753,60,30,1
430.90753,431.05734,66,30,1
431.05734,431.2066,55,34,1
431.2066,431.35587,59,28,1
431.35587,431.50513,67,28,1
431.50513,431.6548,55,33,1
431.6548,431.8046,60,28,1
431.8046,431.9544,63,28,1
431.9544,432.10507,55,31,1
432.10507,432.25644,59,26,1
432.25644,432.4084,62,26,1
432.4084,432.5609,55,30,1
432.5609,432.71402,60,26,1
432.71402,432.86774,63,26,1
432.86774,433.0207,55,29,1
433.0207,433.17322,59,27,1
433.17322,433.32663,62,28,1
433.32663,433.48047,55,34,1
433.48047,433.63553,60,30,1
433.63553,433.79178,63,30,1
433.79178,433.94803,55,34,1
433.94803,434.1049,59,31,1
434.1049,434.2636,62,31,1
434.2636,434.42236,55,34,1
434.42236,434.58203,60,31,1
434.58203,434.74268,63,31,1
434.74268,434.89893,55,34,1
434.89893,435.05518,59,30,1
435.05518,435.21143,62,30,1
435.21143,435.36768,55,34,1
435.36768,435.52393,60,30,1
435.52393,435.68018,63,30,1
435.68018,435.83643,55,34,1
435.83643,435.9933,59,31,1
435.9933,436.15204,62,31,1
436.15204,436.31076,55,34,1
436.31076,436.47046,60,31,1
436.47046,436.63107,63,31,1
436.63107,436.78732,55,34,1
436.78732,436.94357,59,30,1
436.94357,437.09982,62,30,1
437.09982,437.25607,55,34,1
437.25607,437.41232,60,30,1
437.41232,437.56857,63,30,1
437.56857,437.72482,55,34,1
437.72482,437.8817,59,31,1
437.8817,438.04044,62,31,1
438.04044,438.19916,55,34,1
438.19916,438.35886,60,31,1
438.35886,438.5195,63,31,1
438.5195,438.67575,55,34,1
438.67575,438.832,59,30,1
438.832,438.98825,62,30,1
438.98825,439.1445,55,34,1
439.1445,439.30075,60,30,1
439.30075,439.457,63,30,1
439.457,439.61325,55,34,1
439.61325,439.7701,59,31,1
439.7701,439.92883,62,31,1
439.92883,440.0876,55,34,1
440.0876,440.24725,60,31,1
440.24725,440.4079,63,31,1
440.4079,440.56854,55,34,1
440.56854,440.7287,59,31,1
440.7287,440.88745,62,31,1
440.88745,441.04617,55,34,1
441.04617,441.21136,60,31,1
441.21136,441.38306,63,31,1
441.38306,441.63202,55,34,1
441.38306,441.63202,59,34,1
441.38306,441.63202,62,34,1
441.88098,443.21976,55,78,1
441.88098,443.21976,67,94,1
443.21976,443.44116,55,37,1
443.44116,443.55188,67,28,1
443.66257,443.77225,62,23,1
443.66257,443.77225,65,28,1
443.88193,443.99387,67,28,1
444.1058,444.32516,55,38,1
444.32516,444.43484,67,25,1
444.54453,444.6542,63,31,1
444.54453,444.6542,60,26,1
444.7639,444.98843,67,28,1
444.98843,445.2066,55,37,1
445.2066,445.3157,67,28,1
445.4248,445.5355,62,23,1
445.4248,445.5355,65,28,1
445.6462,445.7594,67,26,1
445.87262,446.09485,55,38,1
446.09485,446.20978,67,28,1
446.3247,446.4433,63,31,1
446.3247,446.4433,60,26,1
446.5619,446.7104,67,31,1
446.85892,448.65106,54,55,1
446.85892,448.65106,66,67,1
448.65106,448.87247,54,37,1
448.87247,448.98315,66,27,1
449.09387,449.20355,56,22,1
449.09387,449.20355,63,27,1
449.31323,449.42517,66,28,1
449.5371,449.75647,54,37,1
449.75647,449.86615,66,24,1
449.97583,450.0855,63,29,1
449.97583,450.0855,57,24,1
450.1952,450.41974,66,27,1
450.41974,450.6387,54,35,1
450.6387,450.7482,66,26,1
450.85767,450.96878,56,21,1
450.85767,450.96878,63,25,1
451.0799,451.19574,66,24,1
451.31155,451.5346,54,36,1
451.5346,451.65088,66,26,1
451.76718,451.88718,63,28,1
451.76718,451.88718,57,23,1
452.00717,452.1514,66,28,1
452.29562,454.06293,53,50,1
452.29562,454.06293,65,59,1
454.06293,454.28033,53,35,1
454.28033,454.389,65,29,1
454.4977,454.6074,56,24,1
454.4977,454.6074,62,29,1
454.71707,454.829,65,30,1
454.94095,455.1603,53,36,1
455.1603,455.27,65,23,1
455.37967,455.48935,63,29,1
455.37967,455.48935,57,24,1
455.59903,455.82358,65,27,1
455.82358,456.04095,53,35,1
456.04095,456.14966,65,29,1
456.25836,456.3676,56,24,1
456.25836,456.3676,62,29,1
456.47687,456.58914,65,28,1
456.70142,456.92078,53,36,1
456.92078,457.0375,65,27,1
457.15424,457.3732,63,35,1
457.15424,457.3732,57,29,1
457.3732,457.59686,65,35,1
457.59686,457.81192,53,44,1
457.81192,458.0317,65,33,1
458.0317,458.2531,58,35,1
458.0317,458.2531,62,35,1
458.2531,458.47452,65,33,1
458.47452,458.69592,53,37,1
458.69592,458.8066,65,33,1
458.91733,459.13873,63,35,1
458.91733,459.13873,57,29,1
459.13873,459.3624,65,35,1
459.3624,459.57745,53,44,1
459.57745,459.7972,65,33,1
459.7972,460.01862,58,35,1
459.7972,460.01862,62,35,1
460.01862,460.24002,65,33,1
460.24002,460.46143,53,37,1
460.46143,460.68283,65,33,1
460.68283,460.90424,57,33,1
460.68283,460.90424,63,33,1
460.90424,461.12564,65,33,1
461.78455,461.95978,54,59,1
461.78455,461.95978,66,71,1
461.95978,462.29987,67,76,1
461.95978,462.29987,55,64,1
462.29987,462.644,62,66,1
462.29987,462.644,50,55,1
462.644,462.9846,63,77,1
462.644,462.9846,51,65,1
462.9846,463.07065,57,67,1
462.9846,463.07065,45,55,1
463.15668,463.2427,57,67,1
463.15668,463.2427,45,55,1
463.32874,463.66983,58,76,1
463.32874,463.66983,46,64,1
463.66983,464.01395,54,67,1
463.66983,464.01395,42,55,1
464.01395,464.35303,55,76,1
464.01395,464.35303,43,64,1
464.35303,464.4388,50,67,1
464.35303,464.4388,38,55,1
464.52457,464.61035,50,67,1
464.52457,464.61035,38,55,1
464.69614,465.03574,51,76,1
464.69614,465.03574,39,64,1
465.03574,465.12177,48,67,1
465.2078,465.29382,50,67,1
465.37985,465.71945,51,76,1
465.37985,465.71945,39,64,1
465.71945,465.80548,48,67,1
465.8915,465.97757,50,67,1
466.0636,466.4032,51,76,1
466.0636,466.4032,39,64,1
466.4032,466.48923,48,67,1
466.57526,466.6613,50,67,1
466.7473,466.91486,51,76,1
466.7473,466.91486,39,64,1
466.91486,467.0009,51,67,1
467.0869,467.17297,48,67,1
467.259,467.3545,50,67,1
467.44998,467.83194,63,82,1
467.44998,467.83194,51,70,1
467.44998,467.83194,55,70,1
467.44998,467.83194,58,70,1
468.97787,469.35983,53,82,1
468.97787,469.35983,48,70,1
468.97787,469.35983,41,70,1
470.56036,470.68643,34,82,1
470.68643,470.80768,41,52,1
470.80768,470.92896,46,52,1
470.92896,471.0483,34,49,1
471.0483,471.1664,41,45,1
471.1664,471.28323,46,45,1
471.28323,471.39523,34,50,1
471.39523,471.5086,41,45,1
471.5086,471.62332,46,45,1
471.62332,471.73804,34,49,1
471.73804,471.85275,41,45,1
471.85275,471.96747,46,45,1
471.96747,472.0798,34,49,1
472.0798,472.19333,41,45,1
472.19333,472.30804,46,45,1
472.30804,472.42276,34,48,1
472.42276,472.53748,41,45,1
472.53748,472.6522,46,45,1
472.6522,472.76486,34,49,1
472.76486,472.87854,41,45,1
472.87854,472.99326,46,45,1
472.99326,473.10797,34,49,1
473.10797,473.2227,41,45,1
473.2227,473.3374,46,45,1
473.3374,473.4491,34,48,1
473.4491,473.5621,41,45,1
473.5621,473.67648,46,45,1
473.67648,473.79083,34,50,1
473.79083,473.9052,41,45,1
473.9052,474.01956,46,45,1
474.01956,474.13126,34,49,1
474.13126,474.24445,41,45,1
474.24445,474.35916,46,45,1
474.35916,474.47388,34,50,1
474.47388,474.5886,41,46,1
474.5886,474.7033,46,46,1
474.7033,474.815,34,50,1
474.815,474.9282,41,47,1
474.9282,475.0429,46,47,1
475.0429,475.15762,34,53,1
475.15762,475.2723,41,48,1
475.2723,475.38702,46,48,1
475.38702,475.49872,34,52,1
475.49872,475.6119,41,49,1
475.6119,475.72662,46,49,1
475.72662,475.84134,34,55,1
475.84134,475.95605,41,50,1
475.95605,476.07077,46,50,1
476.07077,476.1855,34,55,1
476.1855,476.3002,41,51,1
476.3002,476.41492,46,51,1
476.41492,476.52594,34,57,1
476.52594,476.63815,41,52,1
476.63815,476.7515,46,52,1
476.7515,476.86127,34,55,1
476.86127,476.9729,41,51,1
476.9729,477.08524,46,51,1
477.08524,477.19376,34,58,1
477.19376,477.30322,41,54,1
477.30322,477.41364,46,54,1
477.41364,477.5215,34,64,1
477.5215,477.63068,41,56,1
477.63068,477.7411,46,56,1
477.7411,477.84808,34,69,1
477.84808,477.956,41,60,1
477.956,478.06482,46,60,1
478.06482,478.17242,34,74,1
478.17242,478.28357,41,65,1
478.28357,478.3983,46,66,1
478.3983,478.50934,34,75,1
478.50934,478.62363,41,66,1
478.62363,478.74115,46,66,1
478.74115,479.1231,34,85,1
479.5051,479.88705,58,77,1
479.5051,479.88705,46,66,1
479.5051,479.88705,50,66,1
479.5051,479.88705,53,66,1
480.26904,480.651,46,81,1
480.26904,480.651,34,70,1
