start_time,end_time,note_value,velocity,instrument_program_number
0.0,0.658689,74,50,0
0.658689,0.95509905,74,45,0
0.9880335,1.2984138,74,45,0
1.3329005,1.9915895,70,50,0
1.9915895,2.6502786,70,45,0
2.6502786,3.3089676,69,50,0
3.3089676,3.638312,69,47,0
3.638312,3.8983073,69,47,0
3.8983073,3.9849725,69,40,0
3.9849725,5.324789,75,50,0
5.324789,5.983478,74,50,0
5.983478,6.279888,74,45,0
6.3128223,6.6349797,74,45,0
6.670775,7.0001197,74,50,0
7.0001197,7.1647916,67,50,0
7.329464,7.9965706,67,45,0
7.9965706,8.325915,72,50,0
8.325915,8.486567,71,44,0
8.486567,8.647218,72,44,0
8.647218,8.807869,71,44,0
8.807869,8.96852,72,47,0
8.96852,9.14185,74,49,0
9.14185,9.315181,72,44,0
9.667537,10.0396,60,32,0
10.03035,10.4004,62,31,0
10.4004,10.770451,63,29,0
9.315181,10.770451,65,50,0
10.770451,11.429139,74,42,0
10.770451,11.429139,86,50,0
11.429139,11.72555,74,38,0
11.429139,11.72555,86,45,0
11.758484,12.068864,74,38,0
11.758484,12.068864,86,45,0
12.103351,12.76204,70,42,0
12.103351,12.76204,82,50,0
12.76204,13.420729,70,38,0
12.76204,13.420729,82,45,0
13.420729,14.079418,81,50,0
13.420729,14.079418,69,42,0
14.079418,14.408763,69,39,0
14.079418,14.408763,81,47,0
14.408763,14.668757,69,39,0
14.408763,14.668757,81,47,0
14.668757,14.755423,81,40,0
14.755423,16.09524,87,50,0
14.755423,16.09524,75,42,0
16.09524,16.75393,86,50,0
16.09524,16.75393,74,42,0
16.75393,17.056381,74,40,0
16.75393,17.056381,86,48,0
17.089987,17.412146,74,44,0
17.089987,17.412146,86,52,0
17.44794,18.106628,79,48,0
17.44794,18.106628,91,57,0
18.106628,18.435974,79,38,0
18.435974,18.785921,82,43,0
18.106628,18.785921,91,45,0
18.785921,19.115267,82,47,0
19.115267,19.275917,81,38,0
19.275917,19.43657,79,38,0
19.43657,19.757872,81,43,0
18.785921,19.757872,84,39,0
19.757872,20.104532,89,44,0
19.757872,20.104532,81,37,0
19.757872,20.104532,75,37,0
20.104532,21.559801,74,37,0
20.104532,21.559801,82,44,0
21.559801,22.21849,74,50,0
22.21849,22.5149,74,45,0
22.547834,22.858215,74,45,0
22.892702,23.551392,70,50,0
23.551392,24.21008,70,45,0
24.21008,24.868769,69,50,0
24.868769,25.198114,69,47,0
25.198114,25.458109,69,47,0
25.458109,25.544773,69,40,0
25.544773,26.88459,75,50,0
26.88459,27.54328,74,50,0
27.54328,27.83969,74,45,0
27.872623,28.19478,74,45,0
28.230576,28.559921,74,50,0
28.559921,28.724594,67,50,0
28.889265,29.556372,67,45,0
29.556372,29.886114,72,50,0
29.886114,30.046766,71,44,0
30.046766,30.205296,72,44,0
30.205296,30.363823,71,44,0
30.363823,30.522352,72,47,0
30.522352,30.695683,74,49,0
30.695683,30.869013,72,44,0
31.221369,31.593433,60,32,0
31.584183,31.956614,62,31,0
31.956614,32.338043,63,29,0
30.869013,32.338043,65,50,0
32.338043,32.996735,86,50,0
32.338043,32.996735,74,42,0
32.996735,33.293144,74,38,0
32.996735,33.293144,86,45,0
33.326077,33.63646,74,38,0
33.326077,33.63646,86,45,0
33.670944,34.32963,70,42,0
33.670944,34.32963,82,50,0
34.32963,34.988323,82,45,0
34.32963,34.988323,70,38,0
34.988323,35.64701,81,50,0
34.988323,35.64701,69,42,0
35.64701,35.976357,69,39,0
35.64701,35.976357,81,47,0
35.976357,36.23635,81,47,0
35.976357,36.23635,69,39,0
36.23635,36.323017,81,40,0
36.323017,37.662834,87,50,0
36.323017,37.662834,75,42,0
37.662834,38.32152,86,50,0
37.662834,38.32152,74,42,0
38.32152,38.623974,86,48,0
38.32152,38.623974,74,40,0
38.65758,38.989235,74,44,0
38.65758,38.989235,86,52,0
39.026085,39.684776,91,57,0
39.026085,39.684776,79,48,0
39.684776,40.01412,79,38,0
40.01412,40.364067,82,44,0
39.684776,40.364067,91,45,0
40.364067,40.693413,82,47,0
40.693413,40.85406,81,38,0
40.85406,41.014713,79,38,0
41.014713,41.336018,81,43,0
40.364067,41.336018,84,39,0
41.336018,41.68268,81,37,0
41.336018,41.68268,75,37,0
41.336018,41.68268,89,44,0
41.68268,43.137947,74,37,0
41.68268,43.137947,82,44,0
43.137947,43.796635,66,50,0
43.137947,43.796635,74,60,0
43.137947,43.796635,69,50,0
43.796635,44.09305,66,45,0
43.796635,44.09305,69,45,0
43.796635,44.09305,74,54,0
44.12598,44.43636,74,54,0
44.12598,44.43636,66,45,0
44.12598,44.43636,69,45,0
44.470848,45.129536,70,60,0
44.470848,45.129536,67,50,0
44.470848,45.129536,62,50,0
45.129536,45.788227,70,54,0
45.129536,45.788227,67,45,0
45.129536,45.788227,62,45,0
45.788227,46.28224,70,60,0
46.28224,46.36458,72,60,0
46.36458,46.446915,70,60,0
45.788227,46.446915,62,50,0
45.788227,46.446915,67,50,0
46.446915,46.77626,69,56,0
46.446915,46.77626,62,46,0
46.77626,47.12292,62,46,0
46.77626,47.12292,67,56,0
47.12292,48.137287,72,60,0
48.137287,48.4738,70,60,0
47.12292,48.4738,67,50,0
47.12292,48.4738,64,50,0
48.4738,49.13249,60,50,0
48.4738,49.13249,69,60,0
48.4738,49.13249,65,50,0
49.13249,49.428898,69,51,0
49.13249,49.428898,60,43,0
49.13249,49.428898,65,43,0
49.461834,49.783993,69,50,0
49.461834,49.783993,65,42,0
49.461834,49.783993,60,42,0
49.819786,50.478474,65,46,0
49.819786,50.478474,62,46,0
49.819786,50.478474,67,55,0
50.478474,51.14558,67,47,0
50.478474,51.14558,62,39,0
50.478474,51.14558,65,39,0
51.14558,51.474926,67,50,0
51.474926,51.63558,69,44,0
51.63558,51.79623,70,44,0
51.14558,51.79623,64,42,0
51.79623,52.11753,69,44,0
51.79623,52.11753,65,37,0
52.11753,52.46419,64,41,0
52.11753,52.46419,67,49,0
51.14558,52.46419,60,42,0
52.807243,53.17936,60,32,0
53.17936,53.54941,62,31,0
53.54941,53.928535,63,29,0
52.46419,53.928535,65,50,0
53.928535,54.587223,86,50,0
53.928535,54.587223,74,42,0
54.587223,54.883633,86,45,0
54.587223,54.883633,74,38,0
54.91657,55.226948,86,45,0
54.91657,55.226948,74,38,0
55.261436,55.920124,70,42,0
55.261436,55.920124,82,50,0
55.920124,56.57881,70,38,0
55.920124,56.57881,82,45,0
56.57881,57.07283,82,50,0
57.07283,57.155167,84,41,0
57.155167,57.237503,82,40,0
57.237503,57.41176,81,47,0
57.41176,57.50862,82,47,0
57.50862,57.552414,84,40,0
57.552414,57.596207,86,40,0
57.596207,57.771378,84,47,0
57.771378,57.962025,82,47,0
57.962025,59.30184,91,50,0
57.962025,59.30184,79,42,0
59.30184,59.96053,70,42,0
59.30184,59.96053,64,42,0
59.30184,59.96053,72,50,0
59.96053,60.26298,72,48,0
59.96053,60.26298,64,40,0
59.96053,60.26298,70,40,0
60.29659,60.618744,64,44,0
60.29659,60.618744,72,52,0
60.29659,60.618744,70,44,0
60.65454,61.31323,65,48,0
60.65454,61.31323,70,48,0
60.65454,61.31323,77,57,0
60.65454,61.31323,74,48,0
61.31323,61.992523,77,45,0
61.31323,61.992523,65,40,0
61.31323,61.992523,70,40,0
61.31323,61.992523,74,40,0
61.992523,62.32187,70,47,0
62.32187,62.482517,69,38,0
62.482517,62.64317,67,38,0
62.64317,62.964474,69,43,0
61.992523,62.964474,72,39,0
62.964474,63.311134,77,44,0
62.964474,63.311134,69,37,0
62.964474,63.311134,63,37,0
63.311134,64.773285,62,37,0
63.311134,64.773285,70,44,0
64.773285,65.43198,66,50,0
64.773285,65.43198,74,60,0
64.773285,65.43198,69,50,0
65.43198,65.728386,69,45,0
65.43198,65.728386,66,45,0
65.43198,65.728386,74,54,0
65.761314,66.0717,69,45,0
65.761314,66.0717,66,45,0
65.761314,66.0717,74,54,0
66.106186,66.76487,62,50,0
66.106186,66.76487,67,50,0
66.106186,66.76487,70,60,0
66.76487,67.42356,62,45,0
66.76487,67.42356,70,54,0
66.76487,67.42356,67,45,0
67.42356,67.91758,70,60,0
67.91758,67.999916,72,60,0
67.999916,68.08225,70,60,0
67.42356,68.08225,62,50,0
67.42356,68.08225,67,50,0
68.08225,68.4116,62,46,0
68.08225,68.4116,69,56,0
68.4116,68.758255,62,46,0
68.4116,68.758255,67,56,0
68.758255,69.76709,72,60,0
69.76709,70.098076,70,60,0
68.758255,70.098076,67,50,0
68.758255,70.098076,64,50,0
70.098076,70.75676,69,60,0
70.098076,70.75676,60,50,0
70.098076,70.75676,65,50,0
70.75676,71.05317,69,51,0
70.75676,71.05317,65,43,0
70.75676,71.05317,60,43,0
71.086105,71.408264,65,42,0
71.086105,71.408264,60,42,0
71.086105,71.408264,69,50,0
71.44406,72.102745,65,46,0
71.44406,72.102745,62,46,0
71.44406,72.102745,67,55,0
72.102745,72.76985,62,39,0
72.102745,72.76985,67,47,0
72.102745,72.76985,65,39,0
72.76985,73.0992,67,50,0
73.0992,73.25985,69,44,0
73.25985,73.4205,70,44,0
72.76985,73.4205,64,42,0
73.4205,73.741806,65,37,0
73.4205,73.741806,69,44,0
73.741806,74.08846,64,41,0
73.741806,74.08846,67,49,0
72.76985,74.08846,60,42,0
74.43152,74.803635,60,32,0
74.803635,75.182755,62,31,0
75.182755,75.58016,63,29,0
74.08846,75.58016,65,50,0
75.58016,76.238846,86,50,0
75.58016,76.238846,74,42,0
76.238846,76.535255,74,38,0
76.238846,76.535255,86,45,0
76.56819,76.87857,86,45,0
76.56819,76.87857,74,38,0
76.91306,77.57175,82,50,0
76.91306,77.57175,70,42,0
77.57175,78.23044,70,38,0
77.57175,78.23044,82,45,0
78.23044,78.72446,82,50,0
78.72446,78.80679,84,41,0
78.80679,78.88913,82,40,0
78.88913,79.063385,81,47,0
79.063385,79.16025,82,47,0
79.16025,79.20404,84,40,0
79.20404,79.24783,86,40,0
79.24783,79.423004,84,47,0
79.423004,79.60803,82,47,0
79.60803,80.955086,91,50,0
79.60803,80.955086,79,42,0
80.955086,81.61378,72,50,0
80.955086,81.61378,70,42,0
80.955086,81.61378,64,42,0
81.61378,81.91623,64,40,0
81.61378,81.91623,72,48,0
81.61378,81.91623,70,40,0
81.94983,82.27199,72,52,0
81.94983,82.27199,70,44,0
81.94983,82.27199,64,44,0
82.307785,82.96648,77,57,0
82.307785,82.96648,70,48,0
82.307785,82.96648,65,48,0
82.307785,82.96648,74,48,0
82.96648,83.64577,74,40,0
82.96648,83.64577,70,40,0
82.96648,83.64577,65,40,0
82.96648,83.64577,77,45,0
83.64577,83.97511,70,47,0
83.97511,84.135765,69,38,0
84.135765,84.29642,67,38,0
84.29642,84.617714,69,43,0
83.64577,84.617714,72,39,0
84.617714,84.96438,63,37,0
84.617714,84.96438,77,44,0
84.617714,84.96438,69,37,0
84.96438,86.35346,62,37,0
84.96438,86.35346,70,44,0
86.35346,86.7057,70,37,0
86.7057,86.87373,69,30,0
86.87373,87.041756,67,30,0
87.041756,87.377815,69,34,0
86.35346,87.377815,72,31,0
87.377815,87.73775,69,29,0
87.377815,87.73775,77,35,0
87.377815,87.73775,63,29,0
87.73775,88.86233,70,35,0
87.73775,88.86233,62,29,0
88.86233,89.24587,58,29,0
89.24587,89.633316,58,31,0
89.633316,89.8215,57,25,0
89.8215,90.00968,55,25,0
90.00968,90.42658,57,28,0
89.24587,90.42658,60,26,0
90.42658,90.8872,57,24,0
90.42658,90.8872,65,29,0
90.42658,90.8872,51,24,0
90.8872,92.13789,58,29,0
90.8872,92.13789,50,24,0
93.05107,93.215744,62,26,0
93.215744,93.38042,65,26,0
92.8864,93.38042,74,50,0
93.38042,93.54509,74,45,0
93.70976,93.87443,62,26,0
93.87443,94.04687,65,26,0
93.54509,94.04687,74,50,0
94.04687,94.2193,74,47,0
94.38397,94.548645,62,26,0
94.548645,94.71332,65,26,0
94.2193,94.71332,72,50,0
94.71332,94.87799,70,45,0
95.042656,95.20733,62,26,0
95.20733,95.372,65,26,0
94.87799,95.372,70,50,0
95.372,95.536674,72,46,0
95.69654,95.8564,63,28,0
95.8564,96.02107,65,28,0
95.536674,96.02107,70,50,0
96.02107,96.185745,69,48,0
96.35042,96.51509,65,28,0
96.51509,96.67976,69,29,0
96.185745,96.67976,72,52,0
96.67976,96.85682,74,50,0
97.031075,97.20533,69,32,0
97.20533,97.37,72,32,0
96.85682,97.37,75,55,0
97.37,97.534676,78,52,0
97.700165,97.865654,69,34,0
97.865654,98.03114,72,34,0
97.534676,98.03114,79,57,0
98.03114,98.19663,75,50,0
98.361305,98.52598,66,26,0
98.52598,98.69065,69,26,0
98.19663,98.69065,74,50,0
98.69065,98.85532,75,45,0
99.02,99.18467,66,26,0
99.18467,99.3571,69,26,0
98.85532,99.3571,74,50,0
99.3571,99.52953,72,47,0
99.69421,99.85888,65,26,0
99.85888,100.02355,68,26,0
99.52953,100.02355,72,50,0
100.02355,100.188225,72,45,0
100.3529,100.51757,65,26,0
100.51757,100.68224,68,26,0
100.188225,100.68224,71,50,0
100.68224,100.84692,71,46,0
101.01935,101.19178,63,28,0
101.19178,101.35645,67,28,0
100.84692,101.35645,71,50,0
101.35645,101.521126,72,48,0
101.6858,101.85047,63,28,0
101.85047,102.015144,66,29,0
101.521126,102.015144,75,52,0
102.015144,102.19219,72,45,0
102.366455,102.54071,62,29,0
102.54071,102.710464,65,26,0
102.19219,102.710464,70,51,0
102.710464,102.880226,70,35,0
103.05448,103.228745,60,24,0
103.228745,103.403,65,24,0
102.880226,103.403,69,40,0
103.403,103.577255,69,42,0
103.74193,103.9066,62,26,0
103.9066,104.07127,65,26,0
103.577255,104.07127,74,50,0
104.07127,104.23595,74,45,0
104.40061,104.565285,62,26,0
104.565285,104.737724,65,26,0
104.23595,104.737724,74,50,0
104.737724,104.91016,74,47,0
105.07483,105.2395,62,26,0
105.2395,105.404175,65,26,0
104.91016,105.404175,72,50,0
105.404175,105.56884,70,45,0
105.73351,105.898186,62,26,0
105.898186,106.06286,65,26,0
105.56884,106.06286,70,50,0
106.06286,106.22753,72,46,0
106.3874,106.54726,63,28,0
106.54726,106.71193,65,28,0
106.22753,106.71193,70,50,0
106.71193,106.8766,69,48,0
107.041275,107.20595,65,28,0
107.20595,107.37062,69,29,0
106.8766,107.37062,72,52,0
107.37062,107.547676,74,50,0
107.72193,107.89619,69,32,0
107.89619,108.06086,72,32,0
107.547676,108.06086,75,55,0
108.06086,108.22553,78,52,0
108.39102,108.55651,69,34,0
108.55651,108.722,72,34,0
108.22553,108.722,79,57,0
108.722,108.88749,75,50,0
109.05216,109.216835,62,26,0
109.216835,109.38151,65,26,0
108.88749,109.38151,74,50,0
109.38151,109.54618,69,45,0
109.71085,109.87553,62,26,0
109.87553,110.04796,65,26,0
109.54618,110.04796,70,50,0
110.04796,110.22039,72,53,0
110.378204,110.54288,67,38,0
110.549736,110.71441,70,38,0
110.22039,110.71441,73,58,0
110.70755,110.87222,79,45,0
111.043755,111.20843,70,35,0
111.20843,111.3731,73,35,0
110.87908,111.3731,81,55,0
111.366234,111.53091,82,46,0
111.710205,111.88264,65,28,0
111.88264,112.04731,70,28,0
111.53777,112.04731,72,50,0
112.04731,112.21198,74,43,0
112.376656,112.54133,65,28,0
112.54133,112.706,69,29,0
112.21198,112.706,75,49,0
112.706,112.88305,77,43,0
113.05731,113.23157,62,29,0
113.23157,113.40132,65,26,0
112.88305,113.40132,70,50,0
113.40132,113.57108,69,32,0
113.74534,113.9196,62,24,0
113.56401,114.08659,70,38,0
113.9196,114.09386,65,24,0
114.09386,114.26811,72,39,0
114.432785,114.59746,62,26,0
114.59746,114.76213,65,26,0
114.26811,114.76213,74,50,0
114.76213,114.926796,74,45,0
115.09147,115.25614,62,26,0
115.25614,115.42858,65,26,0
114.926796,115.42858,74,50,0
115.42858,115.60101,74,47,0
115.765686,115.93036,62,26,0
115.93036,116.09503,65,26,0
115.60101,116.09503,72,50,0
116.09503,116.2597,70,45,0
116.42437,116.58904,62,26,0
116.58904,116.753716,65,26,0
116.2597,116.753716,70,50,0
116.753716,116.91839,72,46,0
117.078255,117.23811,63,28,0
117.23811,117.40279,65,28,0
116.91839,117.40279,70,50,0
117.40279,117.56746,69,48,0
117.73213,117.896805,65,28,0
117.896805,118.06148,69,29,0
117.56746,118.06148,72,52,0
118.06148,118.23853,74,50,0
118.41279,118.58704,69,32,0
118.58704,118.75621,72,32,0
118.23853,118.75621,75,55,0
118.75621,118.92538,78,52,0
119.090866,119.256355,69,34,0
119.256355,119.42552,72,34,0
118.92538,119.42552,79,57,0
119.42552,119.60384,75,50,0
119.76851,119.93318,66,26,0
119.93318,120.09487,69,26,0
119.60384,120.09487,74,50,0
120.09487,120.25656,75,45,0
120.41826,120.57995,66,26,0
120.57995,120.75238,69,26,0
120.25656,120.75238,74,50,0
120.75238,120.92481,72,47,0
121.089485,121.25416,65,26,0
121.25416,121.41883,68,26,0
120.92481,121.41883,72,50,0
121.41883,121.5835,72,45,0
121.74818,121.91285,65,26,0
121.91285,122.077515,68,26,0
121.5835,122.077515,71,50,0
122.077515,122.24219,71,46,0
122.41463,122.58706,63,28,0
122.58706,122.75173,67,28,0
122.24219,122.75173,71,50,0
122.75173,122.916405,72,48,0
123.08108,123.24574,63,28,0
123.24574,123.410416,66,29,0
122.916405,123.410416,75,52,0
123.410416,123.58747,72,45,0
123.76173,123.93598,62,29,0
123.93598,124.10574,65,26,0
123.58747,124.10574,70,51,0
124.10574,124.275505,70,35,0
124.44976,124.624016,60,24,0
124.624016,124.8063,65,24,0
124.275505,124.8063,69,40,0
124.8063,124.99702,69,42,0
125.16169,125.32636,62,26,0
125.32636,125.491035,65,26,0
124.99702,125.491035,74,50,0
125.491035,125.65571,74,45,0
125.82038,125.985054,62,26,0
125.985054,126.157486,65,26,0
125.65571,126.157486,74,50,0
126.157486,126.32992,74,47,0
126.49459,126.65926,62,26,0
126.65926,126.82394,65,26,0
126.32992,126.82394,72,50,0
126.82394,126.98861,70,45,0
127.15328,127.317955,62,26,0
127.317955,127.48263,65,26,0
126.98861,127.48263,70,50,0
127.48263,127.6473,72,46,0
127.80716,127.967026,63,28,0
127.967026,128.1317,65,28,0
127.6473,128.1317,70,50,0
128.1317,128.29637,69,48,0
128.46104,128.62572,65,28,0
128.62572,128.80212,69,29,0
128.29637,128.80212,72,52,0
128.80212,128.97917,74,50,0
129.15343,129.32768,69,32,0
129.32768,129.49236,72,32,0
128.97917,129.49236,75,55,0
129.49236,129.65703,78,52,0
129.82253,129.988,69,34,0
129.988,130.1535,72,34,0
129.65703,130.1535,79,57,0
130.1535,130.31898,75,50,0
130.48366,130.64833,62,26,0
130.64833,130.813,65,26,0
130.31898,130.813,74,50,0
130.813,130.97768,69,45,0
131.14235,131.30702,62,33,0
131.30702,131.47946,65,33,0
130.97768,131.47946,70,50,0
131.47946,131.65189,72,53,0
131.80971,131.97438,67,38,0
131.98123,132.1459,70,38,0
131.65189,132.1459,73,58,0
132.13905,132.30373,79,45,0
132.47525,132.63992,70,38,0
132.63992,132.8046,73,35,0
132.31058,132.8046,81,58,0
132.79773,132.9624,82,46,0
133.14171,133.31413,65,35,0
133.31413,133.4788,70,37,0
132.96927,133.4788,72,54,0
133.4788,133.64348,74,43,0
133.80815,133.97282,65,31,0
133.97282,134.1375,69,31,0
133.64348,134.1375,75,53,0
134.1375,134.31456,77,43,0
134.48882,134.66307,62,29,0
134.66307,134.83282,65,26,0
134.31456,134.83282,70,54,0
134.83282,135.00258,69,32,0
135.17685,135.3511,62,28,0
134.99551,135.5181,70,46,0
135.3511,135.52536,65,28,0
135.52536,135.69962,72,45,0
135.86429,136.02896,66,29,0
136.02896,136.19363,69,29,0
135.69962,136.19363,74,57,0
136.19363,136.3583,75,51,0
136.52298,136.68765,66,29,0
136.68765,136.86008,69,29,0
136.3583,136.86008,74,57,0
136.86008,137.03252,72,54,0
137.19719,137.36186,65,29,0
137.36186,137.52654,67,29,0
137.03252,137.52654,72,57,0
137.52654,137.69121,71,51,0
137.85588,138.02054,65,40,0
138.02054,138.18521,67,48,0
137.69121,138.18521,72,57,0
138.18521,138.3642,74,52,0
138.52406,138.68391,71,47,0
138.68391,138.84859,74,47,0
138.3642,138.84859,79,68,0
138.84859,139.01326,80,66,0
139.17793,139.3426,71,47,0
139.3426,139.50728,74,47,0
139.01326,139.50728,79,72,0
139.50728,139.69127,77,63,0
139.86552,140.03978,67,36,0
140.03978,140.20445,70,41,0
139.69127,140.20445,77,70,0
140.20445,140.36913,76,59,0
140.5346,140.7001,64,39,0
140.7001,140.86559,70,39,0
140.36913,140.86559,74,65,0
140.86559,141.03108,72,57,0
141.19576,141.36043,65,43,0
141.36043,141.5251,69,43,0
141.03108,141.5251,72,66,0
141.5251,141.68977,74,58,0
141.85445,142.01912,69,41,0
142.01912,142.19244,72,46,0
141.68977,142.19244,76,67,0
142.19244,142.36577,77,65,0
142.52962,142.69347,65,36,0
142.69347,142.85732,70,36,0
142.36577,142.85732,77,73,0
142.85732,143.02115,74,57,0
143.185,143.34885,66,29,0
143.34885,143.5127,67,29,0
143.02115,143.5127,72,65,0
143.5127,143.67653,70,52,0
143.84897,144.02141,60,32,0
144.02141,144.18607,65,32,0
143.67653,144.18607,69,57,0
144.18607,144.35074,70,55,0
144.51541,144.68008,60,32,0
144.68008,144.84476,64,33,0
144.35074,144.84476,67,59,0
144.84476,145.02182,72,51,0
145.19608,145.37033,60,33,0
145.02182,145.54008,65,58,0
145.37033,145.54008,65,29,0
145.54008,145.70985,69,35,0
145.89014,146.08086,65,24,0
145.70985,146.08086,72,40,0
146.27269,146.46454,65,24,0
146.08086,146.46454,73,42,0
146.63493,146.80531,62,26,0
146.80531,146.97299,65,26,0
146.46454,146.97299,74,50,0
146.97299,147.13802,74,45,0
147.30104,147.46407,62,26,0
147.46407,147.6365,65,26,0
147.13802,147.6365,74,50,0
147.6365,147.80894,74,47,0
147.97362,148.13829,65,26,0
148.13829,148.30296,68,26,0
147.80894,148.30296,72,50,0
148.30296,148.46762,70,45,0
148.6323,148.79697,65,26,0
148.79697,148.96164,68,26,0
148.46762,148.96164,70,50,0
148.96164,149.12631,72,46,0
149.28618,149.44604,66,32,0
149.44604,149.61072,67,33,0
149.12631,149.61072,70,50,0
149.61072,149.77539,72,48,0
149.94006,150.10474,67,41,0
150.10474,150.26941,70,43,0
149.77539,150.26941,74,57,0
150.26941,150.44646,75,61,0
150.62071,150.79497,70,41,0
150.79497,150.95964,73,41,0
150.44646,150.95964,78,70,0
150.95964,151.12431,79,56,0
151.28981,151.45529,70,34,0
151.45529,151.62079,73,34,0
151.12431,151.62079,81,63,0
151.62079,151.78627,82,46,0
151.95094,152.11562,64,26,0
152.11562,152.28029,70,26,0
151.78627,152.28029,72,50,0
152.28029,152.44496,74,45,0
152.60963,152.7743,64,26,0
152.7743,152.94675,70,26,0
152.44496,152.94675,72,50,0
152.94675,153.11917,73,53,0
153.28384,153.44852,65,38,0
153.44852,153.61319,70,38,0
153.11917,153.61319,74,58,0
153.61319,153.77786,74,45,0
153.94254,154.10721,65,35,0
153.77786,154.10721,75,55,0
154.10721,154.27188,74,62,0
154.27188,154.43655,77,59,0
154.609,154.78142,65,28,0
154.78142,154.94609,72,28,0
154.43655,154.94609,77,64,0
154.94609,155.11076,75,43,0
155.27544,155.44011,65,28,0
155.44011,155.60478,69,29,0
155.11076,155.60478,74,49,0
155.60478,155.78183,72,43,0
155.95609,156.13036,62,29,0
156.13036,156.30011,65,26,0
155.78183,156.30011,70,50,0
156.30011,156.46986,69,32,0
156.64412,156.81837,62,24,0
156.4628,156.98538,70,38,0
156.81837,156.99265,65,24,0
156.99265,157.1669,72,39,0
157.33157,157.49625,66,29,0
157.49625,157.65788,69,29,0
157.1669,157.65788,74,57,0
157.65788,157.81952,75,51,0
157.98116,158.14279,66,29,0
158.14279,158.31523,69,29,0
157.81952,158.31523,74,57,0
158.31523,158.48766,72,54,0
158.65233,158.817,65,29,0
158.817,158.98167,67,29,0
158.48766,158.98167,72,57,0
158.98167,159.14635,71,51,0
159.31102,159.4757,65,40,0
159.4757,159.64037,67,48,0
159.14635,159.64037,72,57,0
159.64037,159.81934,74,52,0
159.9792,160.13907,71,47,0
160.13907,160.30374,74,47,0
159.81934,160.30374,79,66,0
160.30374,160.46841,80,64,0
160.63309,160.79776,71,47,0
160.79776,160.97139,74,47,0
160.46841,160.97139,79,73,0
160.97139,161.15536,77,63,0
161.32962,161.50388,67,36,0
161.50388,161.66855,70,41,0
161.15536,161.66855,77,70,0
161.66855,161.83322,76,59,0
161.99872,162.1642,64,39,0
162.1642,162.3297,70,39,0
161.83322,162.3297,74,65,0
162.3297,162.49518,72,57,0
162.65985,162.82452,65,43,0
162.82452,162.9892,69,43,0
162.49518,162.9892,72,66,0
162.9892,163.15387,74,58,0
163.31854,163.48322,69,41,0
163.48322,163.65656,72,46,0
163.15387,163.65656,76,67,0
163.65656,163.84296,77,65,0
164.0068,164.17064,65,36,0
164.17064,164.33449,70,36,0
163.84296,164.33449,77,73,0
164.33449,164.49834,74,57,0
164.66219,164.82602,66,29,0
164.82602,164.98987,67,29,0
164.49834,164.98987,72,65,0
164.98987,165.15372,70,52,0
165.32614,165.49858,60,32,0
165.49858,165.66325,65,32,0
165.15372,165.66325,69,57,0
165.66325,165.82793,70,55,0
165.9926,166.15727,60,32,0
166.15727,166.32195,64,33,0
165.82793,166.32195,67,59,0
166.32195,166.499,72,51,0
166.67325,166.8475,60,33,0
166.499,167.01727,65,58,0
166.8475,167.01727,65,29,0
167.01727,167.19656,69,40,0
167.38503,167.5735,65,24,0
167.19656,167.5735,72,40,0
167.77342,167.9849,65,24,0
167.5735,167.9849,73,42,0
168.15529,168.32567,62,26,0
168.32567,168.49335,65,26,0
167.9849,168.49335,74,50,0
168.49335,168.65837,74,45,0
168.82141,168.98444,62,26,0
168.98444,169.15686,65,26,0
168.65837,169.15686,74,50,0
169.15686,169.3293,74,47,0
169.49397,169.65865,65,26,0
169.65865,169.82332,68,26,0
169.3293,169.82332,72,50,0
169.82332,169.98799,70,45,0
170.15266,170.31734,65,26,0
170.31734,170.48201,68,26,0
169.98799,170.48201,70,50,0
170.48201,170.64667,72,46,0
170.80653,170.9664,66,32,0
170.9664,171.13107,67,33,0
170.64667,171.13107,70,50,0
171.13107,171.29575,72,48,0
171.46042,171.62509,67,41,0
171.62509,171.78976,70,43,0
171.29575,171.78976,74,57,0
171.78976,171.96681,75,61,0
172.14107,172.31532,70,41,0
172.31532,172.48,73,41,0
171.96681,172.48,78,70,0
172.48,172.66322,79,56,0
172.8287,172.9942,70,34,0
172.9942,173.15968,73,34,0
172.66322,173.15968,81,63,0
173.15968,173.32518,82,46,0
173.48985,173.65453,64,26,0
173.65453,173.8192,70,26,0
173.32518,173.8192,72,50,0
173.8192,173.98387,74,45,0
174.14854,174.31322,64,26,0
174.31322,174.48564,70,26,0
173.98387,174.48564,72,50,0
174.48564,174.65808,73,53,0
174.82275,174.98743,65,38,0
174.98743,175.1521,70,38,0
174.65808,175.1521,74,58,0
175.1521,175.31677,74,45,0
175.48145,175.64612,65,35,0
175.31677,175.64612,75,55,0
175.64612,175.81079,74,62,0
175.81079,175.97546,77,59,0
176.14789,176.32033,65,28,0
176.32033,176.485,72,28,0
175.97546,176.485,77,64,0
176.485,176.64967,75,43,0
176.81435,176.97902,65,28,0
176.97902,177.14369,69,29,0
176.64967,177.14369,74,49,0
177.14369,177.32074,72,43,0
177.495,177.66925,62,29,0
177.66925,177.839,65,26,0
177.32074,177.839,70,50,0
177.839,178.00877,72,32,0
178.18303,178.35728,62,24,0
178.0017,178.52428,70,38,0
178.35728,178.53154,65,24,0
178.53154,178.7058,74,39,0
178.87823,179.05066,65,28,0
179.05066,179.21533,72,28,0
178.7058,179.21533,77,47,0
179.21533,179.38,75,37,0
179.54468,179.70935,65,28,0
179.70935,179.87402,69,29,0
179.38,179.87402,74,43,0
179.87402,180.05109,72,38,0
180.22534,180.3996,62,27,0
180.3996,180.56935,65,26,0
180.05109,180.56935,70,43,0
180.56935,180.7391,74,32,0
180.91548,181.09184,62,24,0
180.73204,181.26086,70,38,0
181.09184,181.26822,65,24,0
181.26822,181.44458,67,39,0
181.6268,181.809,53,28,0
181.809,181.979,60,28,0
181.44458,181.979,65,47,0
181.979,182.14899,63,37,0
182.32442,182.49983,53,28,0
182.49983,182.6734,57,29,0
182.14899,182.6734,62,43,0
182.6734,182.88768,60,34,0
182.88768,183.0889,58,33,0
183.57562,183.86504,57,25,0
183.86504,184.82657,58,30,0
183.3197,184.82657,53,25,0
183.0889,184.82657,50,25,0
188.67273,189.00208,74,50,0
189.00208,189.15913,73,50,0
189.15913,189.31621,74,45,0
189.31621,189.46867,73,53,0
189.46867,189.62114,74,45,0
189.62114,189.78337,70,45,0
189.78337,189.96523,67,45,0
189.98543,190.66142,67,56,0
190.66142,190.99077,65,50,0
191.23778,191.32011,70,46,0
191.32011,191.48479,69,52,0
191.48479,191.53969,70,43,0
191.53969,191.59457,69,43,0
191.59457,191.64946,67,43,0
191.64946,191.8109,69,51,0
191.8109,191.97232,70,45,0
191.97232,192.1284,71,51,0
192.1284,192.2845,72,42,0
192.2845,192.44058,73,46,0
192.44058,192.63206,74,49,0
192.63206,193.32722,77,63,0
193.32722,193.6582,75,59,0
193.9892,194.31853,74,59,0
194.31853,194.47635,76,53,0
194.47635,194.63416,77,53,0
194.63416,194.78757,81,59,0
194.78757,194.94096,82,52,0
194.94096,195.09438,77,52,0
195.09438,195.28584,74,52,0
195.28584,195.6325,72,59,0
195.6325,195.80054,78,52,0
195.80054,195.96857,79,52,0
195.96857,196.12689,81,59,0
196.12689,196.28174,82,52,0
196.28174,196.43658,79,52,0
196.43658,196.59143,72,52,0
196.59143,196.76569,72,59,0
196.76569,196.92555,84,65,0
196.92555,197.08542,83,63,0
197.08542,197.24529,82,59,0
197.24529,197.40515,81,59,0
197.40515,197.565,72,51,0
197.565,197.72487,70,51,0
197.72487,197.89464,79,59,0
197.89464,198.05606,69,59,0
198.05606,198.21748,77,49,0
198.21748,198.37892,72,56,0
198.37892,198.54025,75,46,0
198.54025,198.70242,70,59,0
198.70242,198.86818,74,49,0
198.86818,199.04134,69,59,0
199.04134,199.2242,72,46,0
199.2242,199.30653,70,50,0
199.38887,199.55354,86,57,0
199.55354,199.70839,85,57,0
199.70839,199.86324,86,51,0
199.86324,200.01593,85,60,0
200.01593,200.16861,86,51,0
200.16861,200.33246,82,51,0
200.33246,200.5143,79,51,0
200.5345,201.21051,79,64,0
201.21051,201.53986,77,57,0
201.78687,201.8692,82,52,0
201.8692,202.03387,81,59,0
202.03387,202.08876,82,49,0
202.08876,202.14365,81,49,0
202.14365,202.19855,79,49,0
202.19855,202.35997,81,58,0
202.35997,202.5183,82,51,0
202.5183,202.67148,83,58,0
202.67148,202.82465,84,48,0
202.82465,202.98767,85,52,0
202.98767,203.17914,86,56,0
203.17914,203.70006,89,69,0
203.70006,203.87431,88,65,0
203.87431,204.20529,87,67,0
204.53627,204.86562,86,67,0
204.86562,205.02574,88,60,0
205.02574,205.18585,89,60,0
205.18585,205.3407,93,67,0
205.3407,205.49554,94,62,0
205.49554,205.65039,89,64,0
205.65039,205.84187,86,66,0
205.84187,206.18854,85,74,0
206.18854,206.35486,91,59,0
206.35486,206.5212,94,59,0
206.5212,206.68263,96,73,0
206.68263,206.84406,97,59,0
206.84406,207.0055,94,59,0
207.0055,207.16692,85,59,0
207.16692,207.34117,84,50,0
207.34117,207.50104,86,54,0
207.50104,207.6609,87,58,0
207.6609,207.82077,88,61,0
207.82077,207.98062,89,59,0
207.98062,208.14049,91,51,0
208.14049,208.30035,87,51,0
208.30035,208.47011,84,48,0
208.47011,208.63155,82,59,0
208.63155,208.79297,77,49,0
208.79297,208.9544,74,50,0
208.9544,209.11574,70,46,0
209.11574,209.27791,69,52,0
209.27791,209.44366,70,49,0
209.44366,209.61682,72,47,0
209.61682,209.79968,73,44,0
209.79968,210.12903,74,50,0
210.12903,210.28683,73,50,0
210.28683,210.44466,74,45,0
210.44466,210.5995,73,53,0
210.5995,210.75435,74,45,0
210.75435,210.91658,70,45,0
210.91658,211.09842,67,45,0
211.11862,211.79463,67,56,0
211.79463,212.12398,65,50,0
212.37099,212.45332,70,46,0
212.45332,212.618,69,52,0
212.618,212.67288,70,43,0
212.67288,212.72777,69,43,0
212.72777,212.78267,67,43,0
212.78267,212.94409,69,51,0
212.94409,213.10551,70,45,0
213.10551,213.26161,71,51,0
213.26161,213.4177,72,42,0
213.4177,213.57378,73,46,0
213.57378,213.76526,74,49,0
213.76526,214.46043,77,63,0
214.46043,214.79141,75,59,0
215.12239,215.45174,74,59,0
215.45174,215.61316,76,53,0
215.61316,215.7746,77,53,0
215.7746,215.93141,81,59,0
215.93141,216.08824,82,52,0
216.08824,216.24506,77,52,0
216.24506,216.43652,74,52,0
216.43652,216.78319,72,59,0
216.78319,216.95122,78,52,0
216.95122,217.11925,79,52,0
217.11925,217.27757,81,59,0
217.27757,217.4359,82,52,0
217.4359,217.59424,79,52,0
217.59424,217.75256,72,52,0
217.75256,217.92682,72,59,0
217.92682,218.08669,84,65,0
218.08669,218.24655,83,63,0
218.24655,218.4064,82,59,0
218.4064,218.56627,81,59,0
218.56627,218.72614,72,51,0
218.72614,218.886,70,51,0
218.886,219.05576,79,59,0
219.05576,219.2172,69,59,0
219.2172,219.37862,77,49,0
219.37862,219.54004,72,56,0
219.54004,219.70139,75,46,0
219.70139,219.86354,70,59,0
219.86354,220.0293,74,49,0
220.0293,220.20247,69,59,0
220.20247,220.38533,72,46,0
220.38533,220.46767,70,50,0
220.55,220.71468,86,57,0
220.71468,220.87076,85,57,0
220.87076,221.02684,86,51,0
221.02684,221.18002,85,60,0
221.18002,221.33319,86,51,0
221.33319,221.49704,82,51,0
221.49704,221.67888,79,51,0
221.69908,222.37509,79,64,0
222.37509,222.70442,77,57,0
222.95143,223.03377,82,52,0
223.03377,223.19844,81,59,0
223.19844,223.25334,82,49,0
223.25334,223.30823,81,49,0
223.30823,223.36311,79,49,0
223.36311,223.52455,81,58,0
223.52455,223.68288,82,51,0
223.68288,223.83629,83,58,0
223.83629,223.98969,84,48,0
223.98969,224.15271,85,52,0
224.15271,224.3442,86,56,0
224.3442,224.8651,89,69,0
224.8651,225.03935,88,65,0
225.03935,225.37033,87,67,0
225.70132,226.03065,86,67,0
226.03065,226.1921,88,60,0
226.1921,226.35352,89,60,0
226.35352,226.51035,93,67,0
226.51035,226.66716,94,62,0
226.66716,226.82399,89,64,0
226.82399,227.01546,86,66,0
227.01546,227.36212,85,74,0
227.36212,227.52846,91,59,0
227.52846,227.6948,94,59,0
227.6948,227.85622,96,73,0
227.85622,228.01764,97,59,0
228.01764,228.17908,94,59,0
228.17908,228.3405,85,59,0
228.3405,228.51476,84,50,0
228.51476,228.67462,86,54,0
228.67462,228.83449,87,58,0
228.83449,228.99435,88,61,0
228.99435,229.15422,89,59,0
229.15422,229.31407,91,51,0
229.31407,229.47394,87,51,0
229.47394,229.6437,84,48,0
229.6437,229.80513,82,59,0
229.80513,229.96657,77,49,0
229.96657,230.12799,74,50,0
230.12799,230.28932,70,46,0
230.28932,230.45149,69,52,0
230.45149,230.61725,70,49,0
230.61725,230.7904,72,47,0
230.7904,230.97327,73,44,0
230.97327,231.14844,74,63,0
231.32361,231.96796,72,57,0
231.32361,231.96796,66,57,0
231.32361,231.96796,69,57,0
231.32361,231.96796,74,69,0
231.96796,232.29962,72,48,0
231.96796,232.29962,66,48,0
231.96796,232.29962,74,57,0
231.96796,232.29962,69,48,0
232.64087,233.28995,70,63,0
232.64087,233.28995,74,63,0
232.64087,233.28995,67,63,0
232.64087,233.28995,79,75,0
233.28995,233.63176,79,57,0
233.28995,233.63176,74,48,0
233.28995,233.63176,70,48,0
233.28995,233.63176,67,48,0
233.95946,234.27917,66,57,0
234.27917,234.60852,67,70,0
233.95946,234.60852,74,68,0
234.60852,234.95616,67,56,0
234.60852,234.95616,77,67,0
234.60852,234.95616,65,56,0
234.60852,234.95616,74,56,0
234.95616,235.93552,72,67,0
235.93552,236.26765,70,57,0
234.95616,236.26765,76,80,0
234.95616,236.26765,64,68,0
234.95616,236.26765,67,68,0
236.60199,237.23839,81,75,0
236.60199,237.23839,72,63,0
236.60199,237.23839,69,63,0
236.60199,237.23839,77,63,0
237.23839,237.57455,81,57,0
237.23839,237.57455,72,48,0
237.23839,237.57455,69,48,0
237.23839,237.57455,77,48,0
237.57455,237.89584,74,69,0
237.89584,238.0565,79,57,0
238.0565,238.21715,82,57,0
238.21715,238.3778,85,65,0
238.3778,238.53845,86,57,0
238.53845,238.69911,91,65,0
238.69911,238.87064,94,68,0
238.87064,239.02597,88,76,0
239.02597,239.18132,96,70,0
239.18132,239.3389,94,71,0
239.3389,239.49648,91,66,0
239.49648,239.65405,88,74,0
239.65405,239.81165,84,72,0
239.81165,239.96922,82,69,0
239.96922,240.1268,79,67,0
240.1268,240.4499,77,60,0
240.4499,241.43158,69,53,0
240.4499,241.43158,75,53,0
240.4499,241.43158,77,53,0
240.4499,241.43158,72,53,0
241.43158,241.76093,86,70,0
241.76093,241.91702,85,57,0
241.91702,242.0731,86,51,0
242.0731,242.22627,85,60,0
242.22627,242.37944,86,51,0
242.37944,242.54329,89,51,0
242.54329,242.74533,86,51,0
242.74533,243.42134,84,64,0
243.42134,243.75069,82,57,0
243.9977,244.08003,82,52,0
244.08003,244.2447,81,59,0
244.2447,244.40938,82,49,0
244.40938,244.5708,84,58,0
244.5708,244.72913,86,51,0
244.72913,244.88231,87,58,0
244.88231,245.03548,88,48,0
245.03548,245.1985,89,52,0
245.1985,245.38997,90,56,0
245.38997,245.47664,91,69,0
245.47664,245.56331,93,58,0
245.56331,245.64996,91,63,0
245.64996,245.73663,93,58,0
245.73663,245.82376,91,63,0
245.82376,245.91089,90,62,0
245.91089,245.99802,91,66,0
245.99802,246.08514,93,70,0
246.08514,246.25064,94,74,0
246.66437,246.70573,72,41,0
246.70573,246.7471,74,41,0
246.7471,247.07645,72,51,0
247.07645,247.23788,71,40,0
247.23788,247.3993,72,43,0
247.3993,247.55614,76,54,0
247.55614,247.71295,82,42,0
247.71295,247.86977,79,42,0
247.86977,247.96552,76,42,0
247.96552,248.01338,77,33,0
248.01338,248.06125,79,34,0
248.06125,248.40791,77,52,0
248.40791,248.57423,76,42,0
248.57423,248.74057,77,42,0
248.74057,248.90201,82,58,0
248.90201,249.06343,89,43,0
249.06343,249.22487,86,43,0
249.22487,249.38629,82,37,0
249.38629,249.51698,81,38,0
249.56055,249.68045,82,32,0
249.72041,249.84032,84,35,0
249.88028,250.00017,86,38,0
250.04015,250.16003,87,41,0
250.2,250.3199,89,44,0
250.35986,250.47977,91,48,0
250.51973,250.60461,93,51,0
250.60461,250.68948,96,51,0
250.68948,250.81056,94,54,0
250.85092,250.97198,89,50,0
251.01234,251.13342,86,48,0
251.17378,251.29485,82,45,0
251.33511,251.45639,77,42,0
251.49728,251.62108,74,40,0
251.66304,251.79204,70,37,0
251.8362,251.97229,72,34,0
252.01906,252.19423,74,63,0
252.3694,253.01375,66,57,0
252.3694,253.01375,69,57,0
252.3694,253.01375,74,69,0
252.3694,253.01375,72,57,0
253.01375,253.34541,66,48,0
253.01375,253.34541,69,48,0
253.01375,253.34541,74,57,0
253.01375,253.34541,72,48,0
253.68666,254.33574,79,75,0
253.68666,254.33574,70,63,0
253.68666,254.33574,67,63,0
253.68666,254.33574,74,63,0
254.33574,254.67755,70,48,0
254.33574,254.67755,67,48,0
254.33574,254.67755,79,57,0
254.33574,254.67755,74,48,0
255.00523,255.32497,66,57,0
255.32497,255.65431,67,70,0
255.00523,255.65431,74,68,0
255.65431,256.00195,77,67,0
255.65431,256.00195,74,56,0
255.65431,256.00195,67,56,0
255.65431,256.00195,65,56,0
256.00195,256.9813,72,67,0
256.9813,257.31345,70,57,0
256.00195,257.31345,64,68,0
256.00195,257.31345,76,80,0
256.00195,257.31345,67,68,0
257.64777,258.28418,81,75,0
257.64777,258.28418,72,63,0
257.64777,258.28418,77,63,0
257.64777,258.28418,69,63,0
258.28418,258.62033,72,48,0
258.28418,258.62033,69,48,0
258.28418,258.62033,77,48,0
258.28418,258.62033,81,57,0
258.62033,258.94165,74,69,0
258.94165,259.1023,79,57,0
259.1023,259.26294,82,57,0
259.26294,259.42358,85,65,0
259.42358,259.58423,86,57,0
259.58423,259.7449,91,65,0
259.7449,259.9164,94,68,0
259.9164,260.07178,88,76,0
260.07178,260.2271,96,70,0
260.2271,260.38467,94,71,0
260.38467,260.54227,91,66,0
260.54227,260.69986,88,74,0
260.69986,260.85742,84,72,0
260.85742,261.015,82,69,0
261.015,261.17258,79,67,0
261.17258,261.4957,77,60,0
261.4957,262.47736,72,53,0
261.4957,262.47736,75,53,0
261.4957,262.47736,69,53,0
261.4957,262.47736,77,53,0
262.47736,262.8067,86,70,0
262.8067,262.9628,85,57,0
262.9628,263.1189,86,51,0
263.1189,263.27206,85,60,0
263.27206,263.42523,86,51,0
263.42523,263.58908,89,51,0
263.58908,263.79114,86,51,0
263.79114,264.46713,84,64,0
264.46713,264.79648,82,57,0
265.0435,265.12582,82,52,0
265.12582,265.2905,81,59,0
265.2905,265.45517,82,49,0
265.45517,265.61658,84,58,0
265.61658,265.77493,86,51,0
265.77493,265.9281,87,58,0
265.9281,266.08127,88,48,0
266.08127,266.2443,89,52,0
266.2443,266.43576,90,56,0
266.43576,266.52243,91,69,0
266.52243,266.6091,93,58,0
266.6091,266.69577,91,63,0
266.69577,266.7824,93,58,0
266.7824,266.86954,91,63,0
266.86954,266.95667,90,62,0
266.95667,267.0438,91,66,0
267.0438,267.13092,93,70,0
267.13092,267.29642,94,74,0
267.71014,267.75153,72,41,0
267.75153,267.7929,74,41,0
267.7929,268.12222,72,51,0
268.12222,268.28366,71,40,0
268.28366,268.4451,72,43,0
268.4451,268.60193,76,54,0
268.60193,268.75873,82,42,0
268.75873,268.91556,79,42,0
268.91556,269.0113,76,42,0
269.0113,269.05917,77,33,0
269.05917,269.10703,79,34,0
269.10703,269.4537,77,52,0
269.4537,269.62003,76,42,0
269.62003,269.78638,77,42,0
269.78638,269.94778,82,58,0
269.94778,270.10922,89,43,0
270.10922,270.27066,86,43,0
270.27066,270.43207,82,37,0
270.43207,270.56277,81,38,0
270.60632,270.72623,82,32,0
270.7662,270.8861,84,35,0
270.92606,271.04596,86,38,0
271.08594,271.2058,87,41,0
271.2458,271.3657,89,44,0
271.40564,271.52554,91,48,0
271.56552,271.6504,93,51,0
271.6504,271.7353,96,51,0
271.7353,271.85635,94,54,0
271.8967,272.0178,93,50,0
272.05814,272.1792,91,48,0
272.21957,272.34064,89,45,0
272.3809,272.50217,87,42,0
272.54306,272.66687,86,40,0
272.70883,272.83783,84,37,0
272.882,272.9721,83,34,0
272.9721,273.05698,86,51,0
273.05698,273.17807,84,54,0
273.2184,273.33948,82,50,0
273.37985,273.50092,81,48,0
273.54126,273.66235,79,45,0
273.7026,273.82388,77,42,0
273.86478,273.9886,75,40,0
274.03052,274.15955,74,37,0
274.2037,274.29382,73,34,0
274.29382,274.3787,84,51,0
274.3787,274.49976,82,54,0
274.3787,274.49976,74,49,0
274.54013,274.6612,81,50,0
274.70154,274.82263,79,48,0
274.86298,274.98404,77,45,0
275.02432,275.1456,75,42,0
275.1865,275.31027,74,40,0
275.35223,275.48123,72,37,0
275.5254,275.6155,71,34,0
275.6155,275.69965,74,45,0
275.69965,275.82452,72,48,0
275.86615,275.99103,70,45,0
276.03265,276.15753,69,43,0
276.19916,276.32404,67,40,0
276.36572,276.49503,65,37,0
276.5392,276.676,63,36,0
276.72296,276.86823,62,33,0
276.91833,277.07263,60,30,0
279.2306,279.73724,65,46,0
279.73724,281.17957,73,55,0
279.73724,281.17957,65,42,0
279.73724,281.17957,61,42,0
281.17957,281.69824,61,38,0
281.17957,281.69824,73,51,0
281.17957,281.69824,65,38,0
281.69824,282.6529,72,55,0
281.69824,282.6529,60,42,0
282.6529,283.13022,58,33,0
282.6529,283.13022,70,44,0
281.69824,283.13022,65,42,0
283.13022,283.6489,58,37,0
283.13022,283.6489,70,48,0
283.13022,283.6489,65,37,0
283.6489,284.35968,70,58,0
283.6489,284.35968,58,45,0
284.35968,284.5966,69,55,0
284.35968,284.5966,57,42,0
283.6489,284.5966,65,53,0
284.5966,284.9125,72,59,0
284.5966,284.9125,60,45,0
284.9125,285.25812,75,61,0
284.9125,285.25812,63,47,0
285.25812,285.62186,78,62,0
285.25812,285.62186,66,48,0
285.25812,285.62186,75,48,0
285.25812,285.62186,72,48,0
285.62186,287.0539,77,64,0
285.62186,287.0539,75,50,0
285.62186,287.0539,72,50,0
285.62186,287.0539,65,50,0
287.0539,287.59375,63,48,0
287.0539,287.59375,75,62,0
287.59375,288.30975,75,71,0
287.59375,288.30975,63,55,0
288.30975,288.5484,73,67,0
288.30975,288.5484,61,51,0
288.5484,288.78708,70,72,0
288.5484,288.78708,58,56,0
288.86664,289.1053,60,54,0
288.86664,289.1053,72,69,0
289.18484,289.4696,73,69,0
289.18484,289.4696,61,54,0
289.56503,290.2862,77,80,0
289.56503,290.2862,65,62,0
290.2862,290.50253,75,68,0
290.2862,290.50253,63,53,0
290.52658,290.76697,75,77,0
290.52658,290.76697,63,60,0
290.8471,291.0875,61,52,0
290.8471,291.0875,73,67,0
291.1676,291.408,60,52,0
291.1676,291.408,72,67,0
291.48813,292.22647,58,57,0
291.48813,292.22647,70,74,0
292.22647,292.48993,57,49,0
292.22647,292.48993,69,63,0
292.48993,292.80817,58,57,0
292.48993,292.80817,70,74,0
292.80817,293.12637,61,50,0
292.80817,293.12637,73,64,0
293.12637,293.4761,72,64,0
293.12637,293.4761,60,50,0
293.51495,294.95728,72,74,0
293.51495,294.95728,60,57,0
294.95728,295.5098,65,70,0
295.5098,296.95212,65,67,0
295.5098,296.95212,73,79,0
295.5098,296.95212,61,67,0
296.95212,297.47812,61,62,0
296.95212,297.47812,65,62,0
296.95212,297.47812,73,73,0
297.47812,298.44678,60,66,0
297.47812,298.44678,72,78,0
298.44678,298.93112,70,65,0
298.44678,298.93112,58,55,0
297.47812,298.93112,65,66,0
298.93112,299.45837,58,60,0
298.93112,299.45837,70,71,0
298.93112,299.45837,65,60,0
299.45837,300.17435,58,58,0
299.45837,300.17435,70,75,0
300.17435,300.41302,57,54,0
300.17435,300.41302,69,71,0
299.45837,300.41302,65,68,0
300.41302,300.73123,60,58,0
300.41302,300.73123,72,76,0
300.73123,301.04947,75,79,0
300.73123,301.04947,63,61,0
301.04947,301.42804,75,62,0
301.04947,301.42804,72,62,0
301.04947,301.42804,66,62,0
301.04947,301.42804,78,80,0
301.42804,302.8532,72,65,0
301.42804,302.8532,65,65,0
301.42804,302.8532,77,83,0
301.42804,302.8532,75,65,0
302.8532,303.38174,75,68,0
302.8532,303.38174,63,52,0
303.38174,304.10825,75,78,0
303.38174,304.10825,63,60,0
304.10825,304.35043,73,67,0
304.10825,304.35043,61,51,0
304.35043,304.5926,70,72,0
304.35043,304.5926,58,56,0
304.6733,304.91547,60,54,0
304.6733,304.91547,72,69,0
304.99622,305.27768,73,69,0
304.99622,305.27768,61,54,0
305.37152,306.09265,72,76,0
305.37152,306.09265,60,59,0
306.09265,306.33304,70,57,0
306.09265,306.33304,58,45,0
306.33304,306.58066,73,65,0
306.33304,306.58066,61,51,0
306.66318,306.9108,72,56,0
306.66318,306.9108,60,44,0
306.99332,307.28476,70,56,0
306.99332,307.28476,58,44,0
307.3819,308.147,66,62,0
307.3819,308.147,54,48,0
308.147,308.43094,65,50,0
308.147,308.43094,53,38,0
308.43094,308.6843,65,58,0
308.43094,308.6843,53,45,0
308.76874,309.02206,66,50,0
308.76874,309.02206,54,39,0
309.1065,309.41144,65,49,0
309.1065,309.41144,53,38,0
309.5131,311.11136,58,55,0
311.11136,311.61935,77,50,0
311.61935,313.105,73,46,0
311.61935,313.105,77,46,0
311.61935,313.105,85,60,0
313.105,313.634,85,56,0
313.105,313.634,73,41,0
313.105,313.634,77,41,0
313.634,314.60977,84,60,0
313.634,314.60977,72,46,0
314.60977,315.09766,82,48,0
314.60977,315.09766,70,36,0
313.634,315.09766,77,46,0
315.09766,315.63095,77,40,0
315.09766,315.63095,70,40,0
315.09766,315.63095,82,52,0
315.63095,316.36276,82,63,0
315.63095,316.36276,70,49,0
316.36276,316.60672,81,60,0
316.36276,316.60672,69,46,0
315.63095,316.60672,77,58,0
316.60672,316.93198,84,64,0
316.60672,316.93198,72,49,0
316.93198,317.25723,75,51,0
316.93198,317.25723,87,67,0
317.25723,317.64243,78,52,0
317.25723,317.64243,87,52,0
317.25723,317.64243,84,52,0
317.25723,317.64243,90,68,0
317.64243,319.0887,87,55,0
317.64243,319.0887,84,55,0
317.64243,319.0887,77,55,0
317.64243,319.0887,89,70,0
319.0887,319.63266,87,71,0
319.0887,319.63266,75,54,0
319.63266,320.35916,87,81,0
319.63266,320.35916,75,63,0
320.35916,320.60135,85,73,0
320.35916,320.60135,73,56,0
320.60135,320.8435,82,79,0
320.60135,320.8435,70,61,0
320.92422,321.1664,84,75,0
320.92422,321.1664,72,59,0
321.24713,321.4309,85,75,0
321.24713,321.4309,73,59,0
321.4922,321.6392,85,62,0
321.6392,322.37103,89,88,0
321.6392,322.37103,77,68,0
322.37103,322.61496,87,74,0
322.37103,322.61496,75,58,0
322.61496,322.85892,75,66,0
322.61496,322.85892,87,84,0
322.94022,323.18417,85,73,0
322.94022,323.18417,73,57,0
323.26547,323.50943,84,73,0
323.26547,323.50943,72,57,0
323.59073,324.3468,82,81,0
323.59073,324.3468,70,62,0
324.3468,324.619,81,69,0
324.3468,324.619,69,53,0
324.619,324.94424,70,62,0
324.619,324.94424,82,81,0
324.94424,325.2695,73,55,0
324.94424,325.2695,85,70,0
325.2695,325.66507,72,55,0
325.2695,325.66507,84,70,0
325.66507,327.11807,72,62,0
325.66507,327.11807,84,81,0
327.11807,327.6739,77,77,0
327.6739,329.1269,73,73,0
327.6739,329.1269,85,86,0
327.6739,329.1269,77,73,0
329.1269,329.6559,77,68,0
329.1269,329.6559,85,80,0
329.1269,329.6559,73,68,0
329.6559,330.63168,84,85,0
329.6559,330.63168,72,72,0
330.63168,331.11957,82,71,0
330.63168,331.11957,70,60,0
329.6559,331.11957,77,72,0
331.11957,331.6498,70,66,0
331.11957,331.6498,77,66,0
331.11957,331.6498,82,78,0
331.6498,332.37094,70,63,0
331.6498,332.37094,82,82,0
332.37094,332.61133,81,78,0
332.37094,332.61133,69,59,0
331.6498,332.61133,77,74,0
332.61133,332.93185,72,63,0
332.61133,332.93185,84,83,0
332.93185,333.25235,87,86,0
332.93185,333.25235,75,67,0
333.25235,333.63757,87,68,0
333.25235,333.63757,78,68,0
333.25235,333.63757,90,88,0
333.25235,333.63757,84,68,0
333.63757,335.09183,77,71,0
333.63757,335.09183,84,71,0
333.63757,335.09183,87,71,0
333.63757,335.09183,89,91,0
335.09183,335.6264,87,77,0
335.09183,335.6264,75,63,0
335.6264,336.35294,87,81,0
335.6264,336.35294,75,63,0
336.35294,336.5951,85,69,0
336.35294,336.5951,73,53,0
336.5951,336.83728,70,57,0
336.5951,336.83728,82,75,0
336.918,337.16016,72,56,0
336.918,337.16016,84,71,0
337.24088,337.5298,73,56,0
337.24088,337.5298,85,71,0
337.6261,338.3579,72,60,0
337.6261,338.3579,84,78,0
338.3579,338.60187,70,46,0
338.3579,338.60187,82,58,0
338.60187,338.85327,73,53,0
338.60187,338.85327,85,67,0
338.9371,339.1885,84,57,0
338.9371,339.1885,72,45,0
339.27234,339.56375,82,57,0
339.27234,339.56375,70,45,0
339.6609,340.41666,78,64,0
339.6609,340.41666,66,49,0
340.41666,340.703,65,38,0
340.41666,340.703,77,52,0
340.703,340.9525,77,59,0
340.703,340.9525,65,46,0
341.03568,341.2852,78,52,0
341.03568,341.2852,66,39,0
341.36835,341.67053,77,50,0
341.36835,341.67053,65,38,0
341.77124,343.30316,70,57,0
341.77124,343.30316,58,57,0
343.30316,343.85245,73,72,0
343.30316,343.85245,61,72,0
343.85245,344.82822,73,80,0
343.85245,344.82822,61,80,0
344.82822,345.15347,73,78,0
344.82822,345.15347,61,78,0
345.15347,345.48218,75,73,0
345.15347,345.48218,63,73,0
345.48218,345.8451,73,74,0
345.48218,345.8451,61,74,0
345.8451,346.82822,73,80,0
345.8451,346.82822,61,80,0
346.82822,347.074,58,70,0
346.82822,347.5786,70,70,0
347.5786,347.8531,82,77,0
347.5786,347.8531,70,77,0
347.8531,348.5814,82,83,0
347.8531,348.5814,70,83,0
348.5814,349.15915,71,86,0
348.5814,349.15915,83,86,0
349.15915,349.4893,72,83,0
349.15915,349.4893,84,83,0
349.4893,349.7365,73,85,0
349.4893,349.7365,85,85,0
349.7365,349.88486,85,80,0
349.88486,350.61667,89,90,0
349.88486,350.61667,77,90,0
350.61667,350.86063,85,83,0
350.61667,350.86063,73,83,0
350.86063,351.33447,72,78,0
350.86063,351.33447,84,78,0
351.88834,352.37265,72,50,0
351.88834,352.37265,60,42,0
352.37265,352.857,65,36,0
352.37265,352.857,77,43,0
352.857,353.34134,69,39,0
352.857,353.34134,81,47,0
353.34134,353.82568,72,39,0
353.34134,353.82568,84,47,0
353.82568,354.79437,72,46,0
353.82568,354.79437,84,55,0
354.79437,355.10144,82,50,0
354.79437,355.10144,70,42,0
355.10144,355.4085,81,44,0
355.10144,355.4085,69,37,0
355.4085,355.74893,79,44,0
355.4085,355.74893,67,37,0
355.74893,356.04767,79,50,0
355.74893,356.04767,67,42,0
356.04767,356.31653,69,37,0
356.04767,356.31653,81,44,0
356.3464,356.64352,77,44,0
356.3464,356.64352,65,37,0
356.67654,356.97324,77,50,0
356.67654,356.97324,65,42,0
356.97324,357.24026,79,44,0
356.97324,357.24026,67,37,0
357.26993,357.56488,64,37,0
357.26993,357.56488,76,44,0
357.59763,358.4818,65,41,0
357.59763,358.4818,77,49,0
358.4818,358.77655,63,47,0
358.4818,358.77655,75,56,0
358.77655,359.07126,61,50,0
358.77655,359.07126,73,59,0
359.07126,359.43115,60,53,0
359.07126,359.43115,72,63,0
359.43115,360.40692,72,66,0
359.43115,360.40692,60,56,0
360.40692,360.8948,58,51,0
360.40692,360.8948,70,61,0
360.8948,361.4122,70,61,0
360.8948,361.4122,58,51,0
361.4122,362.3809,72,70,0
361.4122,362.3809,60,59,0
362.3809,362.86523,70,63,0
362.3809,362.86523,58,53,0
362.86523,363.39853,58,57,0
362.86523,363.39853,70,68,0
363.39853,363.72144,71,70,0
363.39853,363.72144,59,58,0
363.72144,364.0443,70,62,0
363.72144,364.0443,58,53,0
364.0443,364.36722,74,64,0
364.0443,364.36722,62,54,0
364.36722,364.6743,65,59,0
364.36722,364.6743,77,70,0
364.6743,364.98135,80,74,0
364.6743,364.98135,68,62,0
364.98135,365.36993,80,67,0
364.98135,365.36993,77,67,0
364.98135,365.36993,83,79,0
364.98135,365.36993,71,67,0
365.36993,366.35306,80,71,0
365.36993,366.35306,77,71,0
366.35306,366.8637,78,64,0
365.36993,366.8637,70,71,0
365.36993,366.8637,82,84,0
366.35306,366.8637,75,54,0
366.8637,367.39526,63,47,0
366.8637,367.39526,75,56,0
367.39526,368.12177,73,62,0
367.39526,368.12177,61,52,0
368.12177,368.36392,72,56,0
368.12177,368.36392,60,47,0
368.36392,368.68683,72,60,0
368.36392,368.68683,60,50,0
368.68683,369.0097,73,56,0
368.68683,369.0097,61,47,0
369.0097,369.24835,63,47,0
369.0097,369.24835,75,56,0
369.24835,369.39154,75,46,0
369.39154,370.12888,78,62,0
369.39154,370.12888,66,52,0
370.12888,370.37466,77,56,0
370.12888,370.37466,65,47,0
370.37466,370.70236,65,47,0
370.37466,370.70236,77,56,0
370.70236,371.0301,82,60,0
370.70236,371.0301,70,50,0
371.0301,371.3578,85,62,0
371.0301,371.3578,73,52,0
371.3578,372.12408,85,64,0
371.3578,372.12408,73,55,0
372.12408,372.39627,72,45,0
372.12408,372.39627,84,53,0
372.39627,372.72153,84,55,0
372.39627,372.72153,72,46,0
372.72153,373.04678,87,45,0
372.72153,373.04678,75,38,0
373.04678,373.44598,81,45,0
373.04678,373.44598,69,38,0
373.44598,375.15097,82,55,0
373.44598,375.15097,70,46,0
375.15097,375.64127,61,72,0
375.15097,375.64127,73,72,0
375.69708,376.6951,61,80,0
375.69708,376.6951,73,80,0
376.6951,377.02777,61,78,0
376.6951,377.02777,73,78,0
377.02777,377.3602,75,73,0
377.02777,377.3602,63,73,0
377.3602,377.72308,73,74,0
377.3602,377.72308,61,74,0
377.72308,378.7062,73,80,0
377.72308,378.7062,61,80,0
378.7062,378.952,58,70,0
378.7062,379.4802,70,70,0
379.4802,379.74796,70,77,0
379.4802,379.74796,82,77,0
379.74796,380.4465,70,83,0
379.74796,380.4465,82,83,0
380.4465,381.00742,83,86,0
380.4465,381.00742,71,86,0
381.00742,381.3279,84,83,0
381.00742,381.3279,72,83,0
381.3279,381.58682,73,85,0
381.3279,381.58682,85,85,0
381.58682,381.7422,85,80,0
381.7422,382.47952,89,90,0
381.7422,382.47952,77,90,0
382.47952,382.7253,85,83,0
382.47952,382.7253,73,83,0
382.7253,383.19916,72,78,0
382.7253,383.19916,84,78,0
383.74637,384.06723,60,42,0
383.74637,384.2307,72,50,0
384.2307,384.71506,77,43,0
384.2307,384.71506,65,36,0
384.71506,385.19937,81,47,0
384.71506,385.19937,69,39,0
385.19937,385.68372,84,47,0
385.19937,385.68372,72,39,0
385.68372,386.6524,72,46,0
385.68372,386.6524,84,55,0
386.6524,386.95947,82,50,0
386.6524,386.95947,70,42,0
386.95947,387.26657,81,44,0
386.95947,387.26657,69,37,0
387.26657,387.607,79,44,0
387.26657,387.607,67,37,0
387.607,387.9057,67,42,0
387.607,387.9057,79,50,0
387.9057,388.17456,81,44,0
387.9057,388.17456,69,37,0
388.20444,388.49716,77,44,0
388.20444,388.49716,65,37,0
388.5297,388.83463,77,50,0
388.5297,388.83463,65,42,0
388.83463,389.10907,79,44,0
388.83463,389.10907,67,37,0
389.13956,389.43668,76,44,0
389.13956,389.43668,64,37,0
389.4697,390.37735,65,41,0
389.4697,390.37735,77,49,0
390.37735,390.6721,63,47,0
390.37735,390.6721,75,56,0
390.6721,390.9668,61,50,0
390.6721,390.9668,73,59,0
390.9668,391.3421,60,53,0
390.9668,391.3421,72,63,0
391.3421,392.32523,60,56,0
391.3421,392.32523,72,66,0
392.32523,392.76764,70,61,0
392.32523,392.76764,58,51,0
392.8168,393.29135,58,51,0
392.8168,393.29135,70,61,0
393.3458,394.32156,72,70,0
393.3458,394.32156,60,59,0
394.32156,394.76065,58,53,0
394.32156,394.76065,70,63,0
394.80945,395.28525,58,57,0
394.80945,395.28525,70,68,0
395.3397,395.66495,71,70,0
395.3397,395.66495,59,58,0
395.66495,395.9902,70,62,0
395.66495,395.9902,58,53,0
395.9902,396.31546,74,64,0
395.9902,396.31546,62,54,0
396.31546,396.62912,77,70,0
396.31546,396.62912,65,59,0
396.62912,396.9428,68,62,0
396.62912,396.9428,80,74,0
396.9428,397.32465,83,79,0
396.9428,397.32465,77,67,0
396.9428,397.32465,71,67,0
396.9428,397.32465,80,67,0
397.32465,398.30777,77,71,0
397.32465,398.30777,80,71,0
398.30777,398.8305,75,56,0
397.32465,398.8305,70,71,0
397.32465,398.8305,82,84,0
398.30777,398.8305,78,64,0
398.8305,399.37772,75,56,0
398.8305,399.37772,63,47,0
399.37772,400.1205,73,62,0
399.37772,400.1205,61,52,0
400.1205,400.34338,60,47,0
400.1205,400.34338,72,56,0
400.36813,400.69827,72,60,0
400.36813,400.69827,60,50,0
400.69827,401.0284,73,56,0
400.69827,401.0284,61,47,0
401.0284,401.27127,63,47,0
401.0284,401.27127,75,56,0
401.27127,401.417,75,46,0
401.417,402.15982,66,52,0
401.417,402.15982,78,62,0
402.15982,402.38266,77,56,0
402.15982,402.38266,65,47,0
402.4074,402.73755,77,56,0
402.4074,402.73755,65,47,0
402.73755,403.0677,70,50,0
402.73755,403.0677,82,60,0
403.0677,403.39783,73,52,0
403.0677,403.39783,85,62,0
403.39783,404.16214,73,55,0
403.39783,404.16214,85,64,0
404.16214,404.4436,72,45,0
404.16214,404.4436,84,53,0
404.4436,404.77133,72,46,0
404.4436,404.77133,84,55,0
404.77133,405.09903,87,45,0
404.77133,405.09903,75,38,0
405.09903,405.50192,69,38,0
405.09903,405.50192,81,45,0
405.50192,406.5359,70,46,0
405.50192,406.5359,82,55,0
407.04254,407.51465,73,51,0
407.5682,408.30554,73,59,0
408.30554,408.52673,72,50,0
408.55133,408.87903,72,56,0
408.87903,409.20673,66,38,0
408.87903,409.20673,75,45,0
409.20673,409.54453,69,45,0
409.20673,409.54453,65,38,0
409.58203,410.5578,65,46,0
409.58203,410.94302,70,55,0
410.94302,411.29712,73,41,0
411.29712,411.65125,77,41,0
411.65125,412.43036,77,50,0
411.65125,412.43036,73,42,0
412.43036,412.70996,75,41,0
412.43036,412.70996,72,34,0
412.74106,413.05722,72,44,0
412.74106,413.05722,75,52,0
413.09235,413.40854,75,30,0
413.09235,413.40854,78,36,0
413.44366,413.82364,81,36,0
413.44366,413.82364,69,30,0
413.44366,413.82364,72,30,0
413.44366,413.82364,77,30,0
413.86588,416.96823,73,41,0
413.86588,416.96823,70,41,0
413.86588,416.96823,77,41,0
413.86588,416.96823,82,49,0
416.96823,417.41632,73,34,0
417.41632,417.63156,61,34,0
417.63156,417.8468,73,25,0
417.8468,418.06204,70,25,0
417.8468,418.06204,66,21,0
418.06204,418.27728,73,25,0
418.27728,418.48312,61,32,0
418.48312,418.68896,73,24,0
418.68896,418.8948,66,20,0
418.68896,418.8948,70,24,0
418.8948,419.10068,73,24,0
419.10068,419.30652,61,32,0
419.30652,419.5132,73,25,0
419.5132,419.72296,66,20,0
419.5132,419.72296,70,24,0
419.72296,419.93274,73,24,0
419.93274,420.1425,61,33,0
420.1425,420.35226,73,27,0
420.35226,420.55307,70,25,0
420.35226,420.55307,66,21,0
420.55307,420.7669,73,25,0
420.7669,420.98358,61,36,0
420.98358,421.20026,73,27,0
421.20026,421.41693,71,27,0
421.20026,421.41693,68,22,0
421.41693,421.6336,73,27,0
421.6336,421.84204,61,34,0
421.84204,422.05048,73,26,0
422.05048,422.25894,71,26,0
422.05048,422.25894,68,22,0
422.25894,422.46738,73,27,0
422.46738,422.67584,61,36,0
422.67584,422.88428,73,29,0
422.88428,423.08633,68,23,0
422.88428,423.08633,71,27,0
423.08633,423.2884,73,27,0
423.2884,423.49042,61,37,0
423.49042,423.69247,73,30,0
423.69247,423.8862,68,24,0
423.69247,423.8862,71,29,0
423.8862,424.09595,73,29,0
424.09595,424.3141,61,40,0
424.3141,424.5322,73,30,0
424.5322,424.7503,70,30,0
424.5322,424.7503,66,25,0
424.7503,424.96844,73,30,0
424.96844,425.1743,61,38,0
425.1743,425.38013,73,29,0
425.38013,425.58093,70,29,0
425.38013,425.58093,66,24,0
425.58093,425.78174,73,29,0
425.78174,425.98254,63,38,0
425.98254,426.18335,75,30,0
426.18335,426.37936,71,29,0
426.18335,426.37936,68,24,0
426.37936,426.5754,75,29,0
426.5754,426.77142,63,39,0
426.77142,426.96744,75,32,0
426.96744,427.1695,68,25,0
426.96744,427.1695,71,30,0
427.1695,427.37796,75,30,0
427.37796,427.57397,68,43,0
427.57397,427.77,80,39,0
427.77,427.96603,78,47,0
427.77,427.96603,75,39,0
427.96603,428.16205,80,40,0
428.16205,428.35938,78,53,0
428.16205,428.35938,72,53,0
428.35938,428.55423,80,43,0
428.55423,428.7491,72,47,0
428.55423,428.7491,75,47,0
428.7491,428.95117,80,41,0
428.95117,429.14264,77,55,0
428.95117,429.14264,73,46,0
429.14264,429.3341,80,51,0
429.3341,429.53537,77,49,0
429.3341,429.53537,83,58,0
429.53537,429.7431,85,53,0
429.7431,429.93573,78,52,0
429.7431,429.93573,82,62,0
429.93573,430.12833,85,57,0
430.12833,430.3279,80,66,0
430.12833,430.3279,77,55,0
430.3279,430.52753,85,60,0
430.52753,430.83243,78,71,0
430.83243,430.93408,85,72,0
430.93408,431.6022,94,78,0
430.93408,431.6022,82,78,0
431.6022,431.69577,90,70,0
431.69577,432.44427,94,78,0
431.69577,432.44427,82,78,0
432.44427,432.82065,90,72,0
432.44427,432.82065,78,72,0
432.82065,433.19702,73,72,0
432.82065,433.19702,85,72,0
433.19702,433.58905,70,72,0
433.19702,433.58905,82,72,0
433.89783,434.00076,85,72,0
434.00076,434.667,95,78,0
434.00076,434.667,83,78,0
434.667,434.76218,92,71,0
434.76218,435.5236,95,78,0
434.76218,435.5236,83,78,0
435.5236,435.90216,80,72,0
435.5236,435.90216,92,72,0
435.90216,436.27426,77,72,0
435.90216,436.27426,89,72,0
436.27426,436.6617,83,72,0
436.27426,436.6617,71,72,0
436.9744,437.0786,73,59,0
437.0786,437.74875,82,63,0
437.0786,437.74875,70,63,0
437.74875,437.8445,78,57,0
437.8445,438.61038,70,63,0
437.8445,438.61038,82,63,0
438.61038,438.98044,69,53,0
438.61038,438.98044,81,53,0
438.98044,439.3505,80,50,0
438.98044,439.3505,68,50,0
439.3505,439.75458,66,47,0
439.3505,439.75458,78,47,0
439.75458,440.14664,65,39,0
439.75458,440.14664,77,39,0
440.14664,440.52518,73,44,0
440.14664,440.52518,85,44,0
440.52518,440.90375,83,40,0
440.52518,440.90375,71,40,0
440.90375,441.31284,68,40,0
440.90375,441.31284,80,40,0
441.31284,442.98776,66,47,0
441.31284,442.98776,78,47,0
442.98776,443.20023,61,40,0
443.20023,443.4127,73,30,0
443.4127,443.62515,66,25,0
443.4127,443.62515,70,30,0
443.62515,443.83762,73,30,0
443.83762,444.03967,61,38,0
444.03967,444.2417,73,28,0
444.2417,444.44376,70,28,0
444.2417,444.44376,66,24,0
444.44376,444.6458,73,28,0
444.6458,444.84787,61,38,0
444.84787,445.0499,73,30,0
445.0499,445.25836,70,28,0
445.0499,445.25836,66,24,0
445.25836,445.4668,73,28,0
445.4668,445.66052,61,39,0
445.66052,445.85425,73,32,0
445.85425,446.0563,66,25,0
445.85425,446.0563,70,30,0
446.0563,446.27155,73,30,0
446.27155,446.47867,61,43,0
446.47867,446.6858,73,32,0
446.6858,446.8929,68,26,0
446.6858,446.8929,71,32,0
446.8929,447.10004,73,32,0
447.10004,447.3033,61,40,0
447.3033,447.5066,73,31,0
447.5066,447.70987,71,31,0
447.5066,447.70987,68,26,0
447.70987,447.91315,73,32,0
447.91315,448.11642,61,43,0
448.11642,448.3197,73,34,0
448.3197,448.51932,71,32,0
448.3197,448.51932,68,27,0
448.51932,448.7189,73,32,0
448.7189,448.9138,61,44,0
448.9138,449.10867,73,36,0
449.10867,449.31195,68,28,0
449.10867,449.31195,71,34,0
449.31195,449.53152,73,34,0
449.53152,449.74127,61,48,0
449.74127,449.95102,73,36,0
449.95102,450.1608,70,36,0
449.95102,450.1608,66,30,0
450.1608,450.37054,73,36,0
450.37054,450.56778,61,45,0
450.56778,450.76498,73,34,0
450.76498,450.9622,66,28,0
450.76498,450.9622,70,34,0
450.9622,451.1594,73,34,0
451.1594,451.35663,63,45,0
451.35663,451.55383,75,36,0
451.55383,451.74643,68,28,0
451.55383,451.74643,71,34,0
451.74643,451.93903,75,34,0
451.93903,452.13165,63,46,0
452.13165,452.32425,75,38,0
452.32425,452.5288,68,30,0
452.32425,452.5288,71,36,0
452.5288,452.74692,75,36,0
452.74692,452.9362,68,47,0
452.9362,453.12546,80,42,0
453.12546,453.31473,78,51,0
453.12546,453.31473,75,42,0
453.31473,453.50403,80,44,0
453.50403,453.69507,78,58,0
453.50403,453.69507,72,58,0
453.69507,453.8888,80,47,0
453.8888,454.08252,72,51,0
453.8888,454.08252,75,51,0
454.08252,454.28836,80,45,0
454.28836,454.47986,77,60,0
454.28836,454.47986,73,50,0
454.47986,454.67133,80,56,0
454.67133,454.8678,77,53,0
454.67133,454.8678,83,63,0
454.8678,455.0686,85,58,0
455.0686,455.25787,82,68,0
455.0686,455.25787,78,57,0
455.25787,455.44714,85,62,0
455.44714,455.64554,77,60,0
455.44714,455.64554,80,72,0
455.64554,455.84393,85,66,0
455.84393,456.147,78,78,0
456.147,456.24802,85,79,0
456.24802,456.92236,94,85,0
456.24802,456.92236,82,85,0
456.92236,457.01645,90,77,0
457.01645,457.76917,94,85,0
457.01645,457.76917,82,85,0
457.76917,458.1291,90,79,0
457.76917,458.1291,78,79,0
458.1291,458.489,73,79,0
458.1291,458.489,85,79,0
458.489,458.88107,82,79,0
458.489,458.88107,70,79,0
459.186,459.28763,85,79,0
459.28763,459.96176,83,85,0
459.28763,459.96176,95,85,0
459.96176,460.05804,92,78,0
460.05804,460.82846,83,85,0
460.05804,460.82846,95,85,0
460.82846,461.19443,92,79,0
460.82846,461.19443,80,79,0
461.19443,461.56036,89,79,0
461.19443,461.56036,77,79,0
461.56036,461.95477,71,79,0
461.56036,461.95477,83,79,0
462.26547,462.36902,73,64,0
462.36902,463.03918,70,68,0
462.36902,463.03918,82,68,0
463.03918,463.13492,78,60,0
463.13492,463.90082,82,67,0
463.13492,463.90082,70,67,0
463.90082,464.26877,69,55,0
463.90082,464.26877,81,55,0
464.26877,464.63675,68,51,0
464.26877,464.63675,80,51,0
464.63675,465.03836,66,47,0
464.63675,465.03836,78,47,0
465.03836,465.47168,65,39,0
465.03836,465.47168,77,39,0
465.47168,465.8569,85,44,0
465.47168,465.8569,73,44,0
465.8569,466.2421,83,40,0
465.8569,466.2421,71,40,0
466.2421,466.6512,80,40,0
466.2421,466.6512,68,40,0
466.6512,468.31662,66,47,0
466.6512,468.31662,78,47,0
468.31662,468.51743,62,62,0
468.51743,468.71823,74,46,0
468.71823,468.91904,70,46,0
468.71823,468.91904,65,39,0
468.91904,469.11984,74,46,0
469.11984,469.3113,62,63,0
469.3113,469.50278,74,44,0
469.50278,469.69427,70,44,0
469.50278,469.69427,65,37,0
469.69427,469.88574,74,44,0
469.88574,470.0677,63,63,0
470.0677,470.24963,75,44,0
470.24963,470.44568,70,44,0
470.24963,470.44568,66,37,0
470.44568,470.6417,75,44,0
470.6417,470.83316,70,70,0
470.83316,471.02463,82,51,0
471.02463,471.21835,75,51,0
471.02463,471.21835,78,51,0
471.21835,471.3926,82,51,0
471.3926,471.58633,63,62,0
471.58633,471.78006,75,46,0
471.78006,471.9738,70,46,0
471.78006,471.9738,66,39,0
471.9738,472.1675,75,46,0
472.1675,472.35788,63,63,0
472.35788,472.54822,75,44,0
472.54822,472.7386,67,37,0
472.54822,472.7386,73,44,0
472.7386,472.92892,75,44,0
472.92892,473.10504,63,66,0
473.10504,473.28116,75,49,0
473.28116,473.47153,68,49,0
473.28116,473.47153,72,49,0
473.47153,473.66187,75,51,0
473.66187,473.84586,72,64,0
473.84586,474.02985,84,49,0
474.02985,474.22586,75,50,0
474.02985,474.22586,80,50,0
474.22586,474.444,84,50,0
474.85825,475.53625,85,65,0
474.75467,475.53625,73,51,0
475.63312,476.38245,85,67,0
475.53625,476.38245,73,54,0
476.38245,476.76102,82,48,0
476.38245,476.76102,70,48,0
476.76102,477.13956,78,51,0
476.76102,477.13956,66,51,0
477.13956,477.53397,70,47,0
477.13956,477.53397,82,47,0
477.53397,477.94568,61,39,0
477.53397,477.94568,73,39,0
477.94568,478.33545,68,37,0
477.94568,478.33545,80,44,0
478.33545,478.7252,66,34,0
478.33545,478.7252,78,40,0
478.7252,479.13943,63,34,0
478.7252,479.13943,75,40,0
479.13943,479.58154,61,37,0
479.58154,480.01202,71,40,0
479.58154,480.01202,68,34,0
480.01202,480.46313,70,34,0
480.01202,480.46313,66,28,0
480.46313,480.93365,68,34,0
480.46313,480.93365,65,28,0
479.13943,480.93365,73,44,0
480.93365,481.13205,61,40,0
481.13205,481.3304,73,30,0
481.3304,481.5288,66,25,0
481.3304,481.5288,70,30,0
481.5288,481.7272,73,30,0
481.7272,481.91867,61,38,0
481.91867,482.11014,73,28,0
482.11014,482.3016,66,24,0
482.11014,482.3016,70,28,0
482.3016,482.4931,73,28,0
482.4931,482.6802,64,46,0
482.6802,482.86734,76,34,0
482.86734,483.0634,66,34,0
482.86734,483.0634,73,34,0
483.0634,483.2594,76,34,0
483.2594,483.44653,64,48,0
483.44653,483.63364,76,38,0
483.63364,483.83444,66,39,0
483.63364,483.83444,73,39,0
483.83444,484.0483,76,40,0
484.0483,484.2455,63,54,0
484.2455,484.44275,75,45,0
484.44275,484.63995,71,45,0
484.44275,484.63995,66,45,0
484.63995,484.83716,75,47,0
484.83716,485.02863,63,55,0
485.02863,485.2201,75,47,0
485.2201,485.4116,71,48,0
485.2201,485.4116,66,48,0
485.4116,485.60306,75,48,0
485.60306,485.785,69,59,0
485.785,485.96695,81,52,0
485.96695,486.15955,78,52,0
485.96695,486.15955,75,52,0
486.15955,486.35217,81,52,0
486.35217,486.54034,69,63,0
486.54034,486.72852,81,55,0
486.72852,486.92932,78,58,0
486.72852,486.92932,75,58,0
486.92932,487.146,81,59,0
487.5551,488.2156,96,63,0
487.45282,488.2156,84,59,0
488.3081,488.67816,96,63,0
488.2156,488.67816,84,57,0
488.67816,489.04822,99,63,0
488.67816,489.04822,87,63,0
489.04822,489.41415,97,53,0
489.04822,489.41415,85,53,0
489.41415,489.7801,82,50,0
489.41415,489.7801,94,50,0
489.7801,490.18417,90,47,0
489.7801,490.18417,78,47,0
490.18417,490.5959,89,39,0
490.18417,490.5959,77,39,0
490.5959,490.98566,85,44,0
490.5959,490.98566,97,44,0
490.98566,491.3754,83,40,0
490.98566,491.3754,95,40,0
491.3754,491.7923,92,40,0
491.3754,491.7923,80,40,0
491.7923,493.44403,78,47,0
491.7923,493.44403,90,47,0
493.44403,493.64484,62,62,0
493.64484,493.84564,74,46,0
493.84564,494.04645,65,39,0
493.84564,494.04645,70,46,0
494.04645,494.24725,74,46,0
494.24725,494.4376,62,63,0
494.4376,494.62796,74,44,0
494.62796,494.8183,70,44,0
494.62796,494.8183,65,37,0
494.8183,495.00867,74,44,0
495.00867,495.18765,63,63,0
495.18765,495.3666,75,44,0
495.3666,495.5592,66,37,0
495.3666,495.5592,70,44,0
495.5592,495.75183,75,44,0
495.75183,495.94,70,70,0
495.94,496.12817,82,51,0
496.12817,496.3208,78,51,0
496.12817,496.3208,75,51,0
496.3208,496.49783,82,51,0
496.49783,496.69156,63,62,0
496.69156,496.88528,75,46,0
496.88528,497.079,70,46,0
496.88528,497.079,66,39,0
497.079,497.27274,75,46,0
497.27274,497.4642,63,63,0
497.4642,497.65567,75,44,0
497.65567,497.84717,67,37,0
497.65567,497.84717,73,44,0
497.84717,498.03864,75,44,0
498.03864,498.2157,63,66,0
498.2157,498.39273,75,49,0
498.39273,498.58646,68,49,0
498.39273,498.58646,72,49,0
498.58646,498.78018,75,51,0
498.78018,498.96835,72,64,0
498.96835,499.15656,84,49,0
499.15656,499.35858,75,50,0
499.15656,499.35858,80,50,0
499.35858,499.57816,84,50,0
499.9847,500.6588,85,65,0
499.88306,500.6588,73,51,0
500.75513,501.50027,85,67,0
500.6588,501.50027,73,54,0
501.50027,501.88098,70,48,0
501.50027,501.88098,82,48,0
501.88098,502.2617,66,51,0
501.88098,502.2617,78,51,0
502.2617,502.65845,70,47,0
502.2617,502.65845,82,47,0
502.65845,503.07797,61,39,0
502.65845,503.07797,73,39,0
503.07797,503.47003,68,37,0
503.07797,503.47003,80,44,0
503.47003,503.8621,66,34,0
503.47003,503.8621,78,40,0
503.8621,504.28162,63,34,0
503.8621,504.28162,75,40,0
504.28162,504.71783,61,37,0
504.71783,505.13474,71,40,0
504.71783,505.13474,68,34,0
505.13474,505.57385,66,28,0
505.13474,505.57385,70,34,0
505.57385,506.0345,68,34,0
505.57385,506.0345,65,28,0
504.28162,506.0345,73,44,0
506.0345,506.23526,61,40,0
506.23526,506.43607,73,30,0
506.43607,506.63687,70,30,0
506.43607,506.63687,66,25,0
506.63687,506.83768,73,30,0
506.83768,507.0314,61,38,0
507.0314,507.22513,73,28,0
507.22513,507.41885,66,24,0
507.22513,507.41885,70,28,0
507.41885,507.61258,73,28,0
507.61258,507.79657,64,46,0
507.79657,507.98053,76,34,0
507.98053,508.172,66,34,0
507.98053,508.172,73,34,0
508.172,508.3635,76,34,0
508.3635,508.54645,64,48,0
508.54645,508.72943,76,38,0
508.72943,508.92783,66,39,0
508.72943,508.92783,73,39,0
508.92783,509.13757,76,40,0
509.13757,509.3372,63,54,0
509.3372,509.53677,75,45,0
509.53677,509.7364,66,45,0
509.53677,509.7364,71,45,0
509.7364,509.93597,75,47,0
509.93597,510.12634,63,55,0
510.12634,510.31668,75,47,0
510.31668,510.50705,71,48,0
510.31668,510.50705,66,48,0
510.50705,510.6974,75,48,0
510.6974,510.88138,69,59,0
510.88138,511.06537,81,52,0
511.06537,511.26138,75,52,0
511.06537,511.26138,78,52,0
511.26138,511.45743,81,52,0
511.45743,511.64246,69,63,0
511.64246,511.82745,81,55,0
511.82745,512.0259,75,58,0
511.82745,512.0259,78,58,0
512.0259,512.2454,81,59,0
512.6495,513.32153,96,63,0
512.54846,513.32153,84,59,0
513.41565,513.792,96,63,0
513.32153,513.792,84,57,0
513.792,514.16833,99,63,0
513.792,514.16833,87,63,0
514.16833,514.54047,85,53,0
514.16833,514.54047,97,53,0
514.54047,514.9126,94,50,0
514.54047,514.9126,82,50,0
514.9126,515.31915,90,47,0
514.9126,515.31915,78,47,0
515.31915,515.7112,77,39,0
515.31915,515.7112,89,39,0
515.7112,516.0942,85,44,0
515.7112,516.0942,97,44,0
516.0942,516.4771,95,40,0
516.0942,516.4771,83,40,0
516.4771,516.8862,80,40,0
516.4771,516.8862,92,40,0
516.8862,518.1143,78,47,0
516.8862,518.1143,90,47,0
518.1143,518.57495,66,37,0
518.1143,518.57495,78,44,0
518.57495,518.97906,65,28,0
518.57495,518.97906,77,34,0
518.97906,519.36884,85,44,0
518.97906,519.36884,73,37,0
519.36884,519.7586,83,40,0
519.36884,519.7586,71,34,0
519.7586,520.1781,68,29,0
519.7586,520.1781,80,35,0
520.1781,521.4118,78,44,0
520.1781,521.4118,66,37,0
521.4118,521.8692,66,44,0
521.8692,522.27325,65,34,0
522.27325,522.66534,73,44,0
522.66534,523.0574,71,40,0
523.0574,523.4639,68,35,0
523.4639,525.177,66,44,0
525.177,525.9802,66,46,0
525.9802,527.2395,66,46,0
527.2395,527.6512,66,51,0
527.6512,528.09033,65,44,0
528.09033,528.5711,64,44,0
528.5711,531.1666,65,46,0
531.1666,532.09656,70,39,0
532.09656,532.952,69,43,0
532.952,533.86115,77,38,0
533.86115,534.7693,75,38,0
534.7693,536.70166,72,38,0
536.70166,536.94745,89,46,0
536.94745,537.0509,88,51,0
537.0509,537.15436,91,46,0
537.15436,537.25775,89,46,0
537.25775,537.3612,87,50,0
537.3612,537.46466,86,46,0
537.46466,537.56836,84,46,0
537.56836,537.67303,82,50,0
537.67303,537.7785,81,46,0
537.7785,537.8849,79,46,0
537.8849,537.99225,77,46,0
537.99225,538.1007,75,46,0
538.1007,538.2482,74,46,0
538.2482,538.9356,72,43,0
538.9356,539.2819,70,38,0
539.4551,539.6283,70,46,0
539.6283,539.73016,69,36,0
539.73016,539.83203,70,37,0
539.83203,539.9339,72,38,0
539.9339,540.0358,74,40,0
540.0358,540.1377,75,41,0
540.1377,540.2396,77,42,0
540.2396,540.3422,79,44,0
540.3422,540.44574,81,45,0
540.44574,540.55023,82,46,0
540.55023,540.6555,83,48,0
540.6555,540.76196,84,49,0
540.76196,540.9094,86,51,0
540.9094,541.5946,89,65,0
541.5946,541.9429,87,61,0
542.11707,542.2912,87,46,0
542.2912,542.3941,86,51,0
542.3941,542.4971,98,46,0
542.4971,542.6,96,46,0
542.6,542.7029,94,50,0
542.7029,542.8058,93,46,0
542.8058,542.90875,91,46,0
542.90875,543.0117,89,50,0
543.0117,543.11554,87,46,0
543.11554,543.2203,86,46,0
543.2203,543.3258,84,46,0
543.3258,543.4323,82,46,0
543.4323,543.5798,81,46,0
543.5798,543.6838,79,51,0
543.6838,543.7877,91,46,0
543.7877,543.89166,89,46,0
543.89166,543.9956,87,50,0
543.9956,544.0996,86,46,0
544.0996,544.2036,84,46,0
544.2036,544.30835,82,50,0
544.30835,544.41394,81,49,0
544.41394,544.52045,79,50,0
544.52045,544.628,77,52,0
544.628,544.73645,75,53,0
544.73645,544.8778,74,54,0
544.8778,544.9823,72,56,0
544.9823,545.08685,76,56,0
545.08685,545.19135,79,55,0
545.19135,545.29584,82,54,0
545.29584,545.4003,79,53,0
545.4003,545.5048,82,52,0
545.5048,545.60944,84,51,0
545.60944,545.71484,88,50,0
545.71484,545.82117,91,49,0
545.82117,545.9284,94,47,0
545.9284,546.03656,91,46,0
546.03656,546.1841,88,45,0
546.1841,546.5319,89,53,0
546.5319,546.644,89,49,0
546.644,546.7571,91,43,0
546.7571,546.87146,89,43,0
546.87146,546.9867,88,48,0
546.9867,547.10443,91,42,0
547.10443,547.22504,89,42,0
547.22504,547.34875,88,43,0
547.34875,547.47565,91,42,0
547.47565,547.6057,89,40,0
547.6057,547.70917,88,51,0
547.70917,547.8126,91,46,0
547.8126,547.916,89,46,0
547.916,548.0195,87,50,0
548.0195,548.1229,86,46,0
548.1229,548.2266,84,46,0
548.2266,548.3313,82,50,0
548.3313,548.43677,81,46,0
548.43677,548.54315,79,46,0
548.54315,548.6506,77,46,0
548.6506,548.759,75,46,0
548.759,548.9065,74,46,0
548.9065,549.59973,72,43,0
549.59973,549.94604,70,38,0
550.1192,550.29236,70,46,0
550.29236,550.3943,69,36,0
550.3943,550.49615,70,37,0
550.49615,550.598,72,38,0
550.598,550.69995,74,40,0
550.69995,550.8018,75,41,0
550.8018,550.90375,77,42,0
550.90375,551.00635,79,44,0
551.00635,551.10986,81,45,0
551.10986,551.2143,82,46,0
551.2143,551.31964,83,48,0
551.31964,551.4261,84,49,0
551.4261,551.57355,86,51,0
551.57355,552.0884,89,65,0
552.0884,552.2664,88,59,0
552.2664,552.6149,87,61,0
552.7892,552.96344,87,46,0
552.96344,553.06635,86,51,0
553.06635,553.1693,98,46,0
553.1693,553.2722,96,46,0
553.2722,553.3751,94,50,0
553.3751,553.4781,93,46,0
553.4781,553.581,91,46,0
553.581,553.68396,89,50,0
553.68396,553.7878,87,46,0
553.7878,553.8925,86,49,0
553.8925,553.99805,84,52,0
553.99805,554.10455,82,54,0
554.10455,554.252,81,57,0
554.252,554.356,79,60,0
554.356,554.45996,94,60,0
554.45996,554.5639,91,58,0
554.5639,554.66785,88,56,0
554.66785,554.77185,85,54,0
554.77185,554.87585,82,52,0
554.87585,554.9806,79,56,0
554.9806,555.0862,76,51,0
555.0862,555.19275,73,50,0
555.19275,555.30023,70,49,0
555.30023,555.4087,67,49,0
555.4087,555.55005,64,48,0
555.55005,555.65454,65,49,0
555.65454,555.7591,64,45,0
555.7591,555.8636,65,45,0
555.8636,555.9681,67,44,0
555.9681,556.0726,69,44,0
556.0726,556.17706,70,44,0
556.17706,556.2817,72,44,0
556.2817,556.3871,74,43,0
556.3871,556.4934,75,44,0
556.4934,556.6005,77,45,0
556.6005,556.70776,79,46,0
556.70776,556.8273,81,47,0
556.8273,556.93475,82,48,0
556.93475,557.0422,86,49,0
557.0422,557.14905,89,51,0
557.14905,557.25543,94,52,0
557.25543,557.36127,98,54,0
557.36127,557.4664,96,54,0
557.4664,557.5708,94,53,0
557.5708,557.6759,89,52,0
557.6759,557.7815,86,50,0
557.7815,557.88794,82,48,0
557.88794,557.99506,86,47,0
557.99506,558.10284,89,45,0
558.10284,558.2063,88,51,0
558.2063,558.3097,91,46,0
558.3097,558.41315,89,46,0
558.41315,558.5166,87,50,0
558.5166,558.62,86,46,0
558.62,558.72375,84,46,0
558.72375,558.82837,82,50,0
558.82837,558.9339,81,46,0
558.9339,559.0403,79,46,0
559.0403,559.14764,77,46,0
559.14764,559.2561,75,46,0
559.2561,559.40356,74,46,0
559.40356,560.09186,72,43,0
560.09186,560.43823,70,38,0
560.6114,560.78455,70,46,0
560.78455,560.8865,69,36,0
560.8865,560.98834,70,37,0
560.98834,561.0902,72,38,0
561.0902,561.1921,74,40,0
561.1921,561.294,75,41,0
561.294,561.39594,77,42,0
561.39594,561.49854,79,44,0
561.49854,561.60205,81,45,0
561.60205,561.7065,82,46,0
561.7065,561.8118,83,48,0
561.8118,561.9183,84,49,0
561.9183,562.06573,86,51,0
562.06573,562.75085,89,65,0
562.75085,563.0992,87,61,0
563.2733,563.4475,87,46,0
563.4475,563.5504,86,51,0
563.5504,563.6533,98,46,0
563.6533,563.7562,96,46,0
563.7562,563.8592,94,50,0
563.8592,563.9621,93,46,0
563.9621,564.065,91,46,0
564.065,564.168,89,50,0
564.168,564.2718,87,46,0
564.2718,564.3765,86,46,0
564.3765,564.4821,84,46,0
564.4821,564.58856,82,46,0
564.58856,564.7361,81,46,0
564.7361,564.84,79,51,0
564.84,564.944,91,46,0
564.944,565.048,89,46,0
565.048,565.1519,87,50,0
565.1519,565.25586,86,46,0
565.25586,565.3599,84,46,0
565.3599,565.4646,82,50,0
565.4646,565.57025,81,49,0
565.57025,565.67676,79,50,0
565.67676,565.7843,77,52,0
565.7843,565.8927,75,53,0
565.8927,566.0341,74,54,0
566.0341,566.1386,72,56,0
566.1386,566.2431,76,56,0
566.2431,566.3476,79,55,0
566.3476,566.45215,82,54,0
566.45215,566.55664,79,53,0
566.55664,566.66113,82,52,0
566.66113,566.7657,84,51,0
566.7657,566.8711,88,50,0
566.8711,566.9775,91,49,0
566.9775,567.0847,94,47,0
567.0847,567.1929,91,46,0
567.1929,567.34033,88,45,0
567.34033,567.6882,89,53,0
567.6882,567.80023,89,49,0
567.80023,567.9134,91,43,0
567.9134,568.0277,89,43,0
568.0277,568.14294,88,48,0
568.14294,568.2607,91,42,0
568.2607,568.38135,89,42,0
568.38135,568.505,88,42,0
568.505,568.6319,91,39,0
568.6319,568.762,89,36,0
568.762,568.8655,88,51,0
568.8655,568.9689,91,46,0
568.9689,569.0723,89,46,0
569.0723,569.1758,87,50,0
569.1758,569.2792,86,46,0
569.2792,569.38293,84,46,0
569.38293,569.48755,82,50,0
569.48755,569.5931,81,46,0
569.5931,569.69946,79,46,0
569.69946,569.8068,77,46,0
569.8068,569.9153,75,46,0
569.9153,570.06274,74,46,0
570.06274,570.7501,72,43,0
570.7501,571.0965,70,38,0
571.26965,571.4428,70,46,0
571.4428,571.54474,69,36,0
571.54474,571.6466,70,37,0
571.6466,571.7485,72,38,0
571.7485,571.85034,74,40,0
571.85034,571.9523,75,41,0
571.9523,572.0542,77,42,0
572.0542,572.1568,79,44,0
572.1568,572.2603,81,45,0
572.2603,572.36475,82,46,0
572.36475,572.4701,83,48,0
572.4701,572.57654,84,49,0
572.57654,572.724,86,51,0
572.724,573.23785,89,65,0
573.23785,573.4149,88,59,0
573.4149,573.7616,87,61,0
573.93494,574.1083,87,46,0
574.1083,574.2112,86,51,0
574.2112,574.3141,98,46,0
574.3141,574.417,96,46,0
574.417,574.51996,94,50,0
574.51996,574.62286,93,46,0
574.62286,574.72577,91,46,0
574.72577,574.8288,89,50,0
574.8288,574.93256,87,46,0
574.93256,575.0373,86,49,0
575.0373,575.1429,84,52,0
575.1429,575.2493,82,54,0
575.2493,575.39685,81,57,0
575.39685,575.5008,79,60,0
575.5008,575.60474,94,60,0
575.60474,575.70874,91,58,0
575.70874,575.8127,88,56,0
575.8127,575.9166,85,54,0
575.9166,576.0207,82,52,0
576.0207,576.12537,79,56,0
576.12537,576.231,76,51,0
576.231,576.3375,73,50,0
576.3375,576.44507,70,49,0
576.44507,576.55347,67,49,0
576.55347,576.6949,64,48,0
576.6949,576.7994,65,49,0
576.7994,576.9039,64,45,0
576.9039,577.00836,65,45,0
577.00836,577.1129,67,44,0
577.1129,577.2174,69,44,0
577.2174,577.3219,70,44,0
577.3219,577.42645,72,44,0
577.42645,577.53186,74,43,0
577.53186,577.63824,75,44,0
577.63824,577.7453,77,45,0
577.7453,577.85254,79,46,0
577.85254,577.97205,81,47,0
577.97205,578.0796,82,48,0
578.0796,578.18695,86,49,0
578.18695,578.2939,89,51,0
578.2939,578.4002,94,52,0
578.4002,578.5061,98,54,0
578.5061,578.6112,96,54,0
578.6112,578.7156,94,53,0
578.7156,578.8207,89,52,0
578.8207,578.92633,86,50,0
578.92633,579.0328,82,48,0
579.0328,579.13983,84,47,0
579.13983,579.2477,85,45,0
579.2477,579.4179,86,75,0
579.5882,580.2246,86,80,0
579.5882,580.2246,74,68,0
579.5882,580.2246,78,68,0
579.5882,580.2246,84,68,0
580.2246,580.54285,86,70,0
580.2246,580.54285,74,59,0
580.2246,580.54285,78,59,0
580.2246,580.54285,84,59,0
580.8724,581.5057,74,67,0
580.8724,581.5057,86,79,0
580.8724,581.5057,82,67,0
580.8724,581.5057,79,67,0
581.5057,581.8223,79,62,0
581.5057,581.8223,91,74,0
581.5057,581.8223,86,62,0
581.5057,581.8223,82,62,0
582.1629,582.80817,94,88,0
582.1629,582.80817,86,74,0
582.1629,582.80817,82,74,0
582.80817,583.13074,91,77,0
582.80817,583.13074,86,64,0
582.80817,583.13074,79,64,0
583.13074,584.4232,88,79,0
583.13074,584.4232,76,67,0
583.13074,584.4232,79,67,0
583.13074,584.4232,84,67,0
584.76373,585.08636,84,74,0
584.76373,585.08636,77,74,0
584.76373,585.1914,89,88,0
585.1914,585.29645,84,64,0
585.29645,585.40155,81,61,0
585.40155,585.5066,77,59,0
585.5066,585.61163,72,57,0
585.61163,585.7167,69,54,0
585.7167,585.88696,67,52,0
586.05725,586.3799,86,74,0
586.05725,586.3799,77,74,0
586.05725,586.4854,89,88,0
586.4854,586.59094,86,60,0
586.59094,586.69653,82,58,0
586.69653,586.80206,77,56,0
586.80206,586.9076,74,55,0
586.9076,587.0132,70,53,0
587.0132,587.11975,69,51,0
587.11975,587.2263,84,70,0
587.2263,587.3329,82,67,0
587.3329,587.43945,81,65,0
587.43945,587.5461,79,63,0
587.5461,587.65265,77,61,0
587.65265,587.7592,76,59,0
587.7592,587.8658,74,57,0
587.8658,587.97235,72,55,0
587.97235,588.0789,70,53,0
588.0789,588.1855,69,51,0
588.1855,588.29205,67,49,0
588.29205,588.6413,65,53,0
588.6413,588.7577,77,49,0
588.7577,588.8741,79,43,0
588.8741,588.9888,77,43,0
588.9888,589.104,76,48,0
589.104,589.22174,79,44,0
589.22174,589.34235,77,42,0
589.34235,589.46606,76,41,0
589.46606,589.59296,91,39,0
589.59296,589.723,89,38,0
589.723,589.8265,88,51,0
589.8265,589.92993,91,46,0
589.92993,590.0333,89,46,0
590.0333,590.1368,87,50,0
590.1368,590.24023,86,46,0
590.24023,590.344,84,46,0
590.344,590.4486,82,50,0
590.4486,590.5541,81,46,0
590.5541,590.66046,79,46,0
590.66046,590.7679,77,46,0
590.7679,590.8763,75,46,0
590.8763,591.0238,74,46,0
591.0238,591.7074,72,43,0
591.7074,592.0537,70,38,0
592.22687,592.4,69,46,0
592.4,592.50195,70,36,0
592.50195,592.6038,72,37,0
592.6038,592.7057,74,38,0
592.7057,592.8076,75,40,0
592.8076,592.9095,77,41,0
592.9095,593.0114,79,42,0
593.0114,593.114,81,45,0
593.114,593.2175,82,47,0
593.2175,593.32196,84,50,0
593.32196,593.4273,86,52,0
593.4273,593.53375,87,55,0
593.53375,593.676,89,57,0
593.676,593.7368,91,60,0
593.7368,593.7983,93,50,0
593.7983,593.8605,91,51,0
593.8605,593.92346,93,52,0
593.92346,593.9871,91,53,0
593.9871,594.05096,93,55,0
594.05096,594.11475,91,54,0
594.11475,594.1786,90,53,0
594.1786,594.24243,91,52,0
594.24243,594.4339,94,51,0
594.4339,594.79236,97,68,0
594.97156,595.1508,72,46,0
595.1508,595.2537,71,51,0
595.2537,595.3567,72,46,0
595.3567,595.4596,74,46,0
595.4596,595.5625,76,50,0
595.5625,595.6654,77,46,0
595.6654,595.7684,79,46,0
595.7684,595.87134,81,50,0
595.87134,595.97516,82,48,0
595.97516,596.07983,84,51,0
596.07983,596.1854,86,54,0
596.1854,596.29193,87,57,0
596.29193,596.4394,88,60,0
596.4394,596.54333,89,65,0
596.54333,596.64734,101,67,0
596.64734,596.7513,100,65,0
596.7513,596.8552,99,63,0
596.8552,596.9592,98,61,0
596.9592,597.06323,96,60,0
597.06323,597.16797,94,58,0
597.16797,597.27356,93,56,0
597.27356,597.38007,91,54,0
597.38007,597.4876,89,52,0
597.4876,597.59607,87,50,0
597.59607,597.7374,86,48,0
597.7374,597.8419,84,46,0
597.8419,597.9464,93,45,0
597.9464,598.05096,91,45,0
598.05096,598.15546,87,44,0
598.15546,598.25995,84,44,0
598.25995,598.36444,82,44,0
598.36444,598.46906,81,44,0
598.46906,598.57446,79,43,0
598.57446,598.6808,77,43,0
598.6808,598.7879,75,43,0
598.7879,598.89514,74,43,0
598.89514,599.0146,72,43,0
599.0146,599.12213,70,45,0
599.12213,599.2295,74,46,0
599.2295,599.3364,77,46,0
599.3364,599.4428,82,47,0
599.4428,599.54865,86,48,0
599.54865,599.65375,84,49,0
599.65375,599.7582,82,51,0
599.7582,599.8632,81,55,0
599.8632,599.9689,82,58,0
599.9689,600.0753,83,62,0
600.0753,600.18243,84,65,0
600.18243,600.2902,85,68,0
600.2902,600.4605,86,75,0
600.6308,601.2641,86,80,0
600.6308,601.2641,74,68,0
600.6308,601.2641,78,68,0
600.6308,601.2641,84,68,0
601.2641,601.58075,86,70,0
601.2641,601.58075,74,59,0
601.2641,601.58075,78,59,0
601.2641,601.58075,84,59,0
601.9103,602.54065,74,67,0
601.9103,602.54065,86,79,0
601.9103,602.54065,82,67,0
601.9103,602.54065,79,67,0
602.54065,602.8558,79,62,0
602.54065,602.8558,91,74,0
602.54065,602.8558,86,62,0
602.54065,602.8558,82,62,0
603.19635,603.83563,94,88,0
603.19635,603.83563,86,74,0
603.19635,603.83563,82,74,0
603.83563,604.1523,91,77,0
603.83563,604.1523,86,64,0
603.83563,604.1523,79,64,0
604.1523,605.4361,88,79,0
604.1523,605.4361,76,67,0
604.1523,605.4361,79,67,0
604.1523,605.4361,84,67,0
605.7767,606.0993,84,74,0
605.7767,606.0993,77,74,0
605.7767,606.20435,89,88,0
606.20435,606.3094,84,63,0
606.3094,606.4144,81,61,0
606.4144,606.5195,77,59,0
606.5195,606.6246,72,56,0
606.6246,606.7296,69,54,0
606.7296,606.8999,67,52,0
607.0701,607.38837,86,74,0
607.0701,607.38837,77,74,0
607.0701,607.49445,89,88,0
607.49445,607.60046,86,65,0
607.60046,607.70654,82,63,0
607.70654,607.8126,77,61,0
607.8126,607.9187,74,59,0
607.9187,608.0248,70,57,0
608.0248,608.1303,69,55,0
608.1303,608.2359,84,70,0
608.2359,608.34143,82,67,0
608.34143,608.447,81,65,0
608.447,608.5531,79,63,0
608.5531,608.6592,77,61,0
608.6592,608.76526,76,59,0
608.76526,608.87146,74,57,0
608.87146,608.978,72,55,0
608.978,609.0846,70,53,0
609.0846,609.19116,69,51,0
609.19116,609.2981,67,49,0
609.2981,609.64734,65,53,0
609.64734,609.76373,77,49,0
609.76373,609.8791,79,43,0
609.8791,609.9934,77,43,0
609.9934,610.10864,76,48,0
610.10864,610.2264,79,42,0
610.2264,610.34705,77,42,0
610.34705,610.4704,76,43,0
610.4704,610.5966,91,40,0
610.5966,610.7351,89,38,0
610.7351,610.83856,88,51,0
610.83856,610.942,91,46,0
610.942,611.0454,89,46,0
611.0454,611.14886,87,50,0
611.14886,611.2523,86,46,0
611.2523,611.356,84,46,0
611.356,611.4607,82,50,0
611.4607,611.56616,81,46,0
611.56616,611.67255,79,46,0
611.67255,611.77997,77,46,0
611.77997,611.88837,75,46,0
611.88837,612.0359,74,46,0
612.0359,612.72327,72,43,0
612.72327,613.0696,70,38,0
613.2428,613.41595,69,46,0
613.41595,613.5178,70,36,0
613.5178,613.6197,72,37,0
613.6197,613.7216,74,38,0
613.7216,613.8235,75,40,0
613.8235,613.92535,77,41,0
613.92535,614.0273,79,42,0
614.0273,614.12994,81,45,0
614.12994,614.2334,82,47,0
614.2334,614.3379,84,50,0
614.3379,614.4432,86,52,0
614.4432,614.5496,87,55,0
614.5496,614.6968,89,57,0
614.6968,614.75854,91,51,0
614.75854,614.8211,93,52,0
614.8211,614.88416,91,53,0
614.88416,614.9479,93,54,0
614.9479,615.0121,91,55,0
615.0121,615.07697,93,56,0
615.07697,615.1426,91,54,0
615.1426,615.2083,90,53,0
615.2083,615.27405,91,52,0
615.27405,615.47125,94,51,0
615.47125,615.8352,97,68,0
616.01715,616.1991,72,46,0
616.1991,616.302,71,51,0
616.302,616.4049,72,46,0
616.4049,616.5079,74,46,0
616.5079,616.6108,76,50,0
616.6108,616.7137,77,46,0
616.7137,616.8166,79,46,0
616.8166,616.9196,81,50,0
616.9196,617.0234,82,49,0
617.0234,617.1281,84,51,0
617.1281,617.2337,86,54,0
617.2337,617.34015,87,56,0
617.34015,617.4877,88,59,0
617.4877,617.5916,89,61,0
617.5916,617.6956,101,65,0
617.6956,617.79956,100,63,0
617.79956,617.9035,99,61,0
617.9035,618.00745,98,60,0
618.00745,618.1115,96,58,0
618.1115,618.2162,94,56,0
618.2162,618.32184,93,55,0
618.32184,618.42834,91,53,0
618.42834,618.5359,89,51,0
618.5359,618.6443,87,50,0
618.6443,618.7857,86,48,0
618.7857,618.8902,84,49,0
618.8902,618.9947,93,45,0
618.9947,619.0992,91,45,0
619.0992,619.20374,87,44,0
619.20374,619.3082,84,44,0
619.3082,619.4127,82,44,0
619.4127,619.51733,81,44,0
619.51733,619.6227,79,43,0
619.6227,619.72906,77,43,0
619.72906,619.8362,75,43,0
619.8362,619.9434,74,43,0
619.9434,620.06287,72,43,0
620.06287,620.1704,70,45,0
620.1704,620.2778,74,46,0
620.2778,620.3847,77,46,0
620.3847,620.491,82,48,0
620.491,620.5969,86,48,0
620.5969,620.702,84,47,0
620.702,620.8064,82,47,0
620.8064,620.9115,81,45,0
620.9115,621.01715,79,44,0
621.01715,621.1236,77,42,0
621.1236,621.23065,75,40,0
621.23065,621.3385,74,38,0
621.3385,621.443,72,42,0
621.443,621.5475,81,45,0
621.5475,621.652,79,44,0
621.652,621.7565,75,43,0
621.7565,621.861,72,41,0
621.861,621.9655,70,40,0
621.9655,622.07007,69,39,0
622.07007,622.1755,67,37,0
622.1755,622.28186,65,36,0
622.28186,622.3889,63,37,0
622.3889,622.49615,62,36,0
622.49615,622.61566,60,35,0
622.61566,622.7232,58,34,0
622.7232,622.83057,62,39,0
622.83057,622.9375,65,38,0
622.9375,623.0438,70,37,0
623.0438,623.1497,74,36,0
623.1497,623.2548,72,35,0
623.2548,623.3592,70,34,0
623.3592,623.4643,69,33,0
623.4643,623.56995,67,32,0
623.56995,623.6764,65,31,0
623.6764,623.78345,63,30,0
623.78345,623.892,62,29,0
623.892,624.0028,60,27,0
624.0028,624.1155,69,31,0
624.1155,624.23016,67,31,0
624.23016,624.34686,63,30,0
624.34686,624.4657,60,29,0
624.4657,624.5889,58,29,0
624.5889,624.6727,57,28,0
624.7591,624.84796,55,27,0
624.9396,625.0342,53,27,0
625.132,625.233,51,26,0
625.33765,625.4465,50,25,0
625.5591,625.67633,48,25,0
627.42096,627.9589,53,36,0
627.9589,628.86804,62,40,0
627.9589,628.86804,53,34,0
627.9589,628.86804,50,34,0
628.96906,629.4236,62,40,0
628.96906,629.4236,53,34,0
628.96906,629.4236,50,34,0
629.4741,629.95056,62,36,0
629.4741,629.95056,53,30,0
629.4741,629.95056,50,30,0
630.0035,630.9056,58,40,0
630.0035,630.9056,53,34,0
630.0035,630.9056,50,34,0
631.0058,631.952,58,36,0
631.0058,631.952,53,30,0
631.0058,631.952,50,30,0
632.0633,632.9654,57,40,0
632.0633,632.9654,51,34,0
632.0633,632.9654,53,34,0
633.0656,633.53827,57,36,0
633.0656,633.53827,53,30,0
633.0656,633.53827,51,30,0
633.5908,634.10895,57,39,0
633.5908,634.10895,53,33,0
633.5908,634.10895,51,33,0
634.1665,636.46936,60,38,0
634.1665,636.46936,63,46,0
636.46936,637.37146,62,40,0
636.46936,637.37146,53,34,0
636.46936,637.37146,58,34,0
637.4717,637.9444,62,36,0
637.4717,637.9444,55,30,0
637.4717,637.9444,53,30,0
637.4717,637.9444,59,30,0
637.9969,638.515,62,39,0
637.9969,638.515,55,33,0
637.9969,638.515,53,33,0
637.9969,638.515,59,33,0
638.5726,639.724,55,46,0
638.5726,639.724,62,45,0
639.724,640.8754,55,38,0
638.5726,640.8754,51,38,0
640.8754,641.4364,60,37,0
641.4364,641.71686,59,33,0
641.71686,641.9973,60,25,0
641.9973,642.30396,59,32,0
642.30396,642.6106,60,24,0
642.6106,643.0747,62,37,0
643.0747,643.251,60,34,0
640.8754,643.251,57,38,0
640.8754,643.251,51,38,0
643.251,645.6811,58,30,0
643.251,645.6811,50,25,0
645.6811,646.5832,74,40,0
645.6811,646.5832,62,34,0
645.6811,646.5832,70,34,0
645.6811,646.5832,65,34,0
646.6834,647.1561,74,36,0
646.6834,647.1561,67,30,0
646.6834,647.1561,65,30,0
646.6834,647.1561,71,30,0
647.2086,647.72675,74,39,0
647.2086,647.72675,67,33,0
647.2086,647.72675,65,33,0
647.2086,647.72675,71,33,0
647.78436,648.9357,67,46,0
647.78436,648.9357,74,45,0
648.9357,650.08716,67,38,0
647.78436,650.08716,63,38,0
650.08716,650.64813,72,37,0
650.64813,650.9286,71,37,0
650.9286,651.2091,72,28,0
651.2091,651.5157,71,36,0
651.5157,651.8223,72,28,0
651.8223,652.28644,74,37,0
652.28644,652.4627,72,34,0
650.08716,652.4627,69,38,0
650.08716,652.4627,63,38,0
652.4627,654.8928,70,30,0
652.4627,654.8928,62,25,0
654.8928,657.8759,84,37,0
654.8928,657.8759,81,38,0
654.8928,657.8759,75,38,0
657.8759,658.1797,83,37,0
658.1797,658.48346,84,30,0
658.48346,658.78723,83,37,0
658.78723,659.1009,84,32,0
659.1009,659.5857,87,43,0
659.5857,659.7957,81,34,0
659.7957,661.1208,82,30,0
659.7957,661.1208,74,25,0
662.44586,663.77094,74,30,0
662.44586,663.77094,62,25,0
662.44586,663.77094,65,25,0
662.44586,663.77094,70,25,0
665.09607,670.3964,70,30,0
665.09607,670.3964,65,25,0
665.09607,670.3964,62,25,0
0.0,0.16467226,46,35,0
0.3293445,0.658689,62,24,0
0.658689,0.9880335,58,27,0
0.658689,0.9880335,53,22,0
0.9880335,1.3329005,62,25,0
1.3329005,1.4975728,50,35,0
1.662245,1.9915895,65,27,0
1.9915895,2.320934,53,25,0
1.9915895,2.320934,58,30,0
2.320934,2.6502786,65,27,0
2.6502786,2.8149507,48,35,0
2.979623,3.3089676,63,26,0
3.3089676,3.638312,57,29,0
3.3089676,3.638312,53,24,0
3.638312,3.9849725,63,26,0
3.9849725,4.159229,41,35,0
4.3334856,4.66283,60,23,0
4.66283,4.9938097,53,19,0
4.66283,4.9938097,57,23,0
4.9938097,5.324789,60,23,0
5.324789,5.4894614,46,35,0
5.6541333,5.983478,62,24,0
5.983478,6.3128223,58,27,0
5.983478,6.3128223,53,22,0
6.3128223,6.670775,62,25,0
6.670775,6.8354473,39,35,0
7.0001197,7.329464,60,27,0
7.329464,7.6588087,51,25,0
7.329464,7.6588087,58,30,0
7.329464,7.6588087,55,25,0
7.6588087,7.9965706,60,27,0
7.9965706,8.1612425,40,35,0
8.325915,8.647218,60,26,0
8.647218,8.96852,52,24,0
8.647218,8.96852,55,24,0
8.647218,8.96852,58,29,0
8.96852,9.315181,60,26,0
9.315181,9.486707,41,35,0
9.658234,10.03035,57,25,0
10.03035,10.4004,58,23,0
10.4004,10.770451,60,21,0
9.658234,10.770451,53,20,0
10.770451,11.099795,46,35,0
11.099795,11.429139,62,24,0
11.429139,11.758484,53,22,0
11.429139,11.758484,58,27,0
11.758484,12.103351,62,25,0
12.103351,12.432695,50,35,0
12.432695,12.76204,65,27,0
12.76204,13.091385,58,30,0
12.76204,13.091385,53,25,0
13.091385,13.420729,65,27,0
13.420729,13.750073,48,35,0
13.750073,14.079418,63,26,0
14.079418,14.408763,53,24,0
14.079418,14.408763,57,29,0
14.408763,14.755423,63,26,0
14.755423,15.103936,41,35,0
15.103936,15.433281,60,23,0
15.433281,15.76426,53,19,0
15.433281,15.76426,57,23,0
15.76426,16.09524,60,23,0
16.09524,16.424583,46,35,0
16.424583,16.75393,62,24,0
16.75393,17.089987,58,27,0
16.75393,17.089987,53,22,0
17.089987,17.44794,62,25,0
17.44794,17.777285,40,35,0
17.777285,18.106628,61,27,0
18.106628,18.435974,58,30,0
18.106628,18.435974,55,25,0
18.106628,18.435974,52,25,0
18.435974,18.785921,61,27,0
18.785921,19.115267,58,35,0
19.115267,19.275917,57,24,0
19.275917,19.43657,55,24,0
19.43657,19.757872,57,31,0
18.785921,19.757872,60,29,0
18.785921,19.757872,53,35,0
19.757872,20.104532,60,26,0
19.757872,20.104532,53,26,0
20.104532,20.276058,46,30,0
20.447584,20.8197,58,25,0
20.8197,21.18975,50,18,0
20.8197,21.18975,53,23,0
21.18975,21.559801,58,21,0
21.559801,21.724474,46,35,0
21.889147,22.21849,62,24,0
22.21849,22.547834,53,22,0
22.21849,22.547834,58,27,0
22.547834,22.892702,62,25,0
22.892702,23.057375,50,35,0
23.222046,23.551392,65,27,0
23.551392,23.880735,53,25,0
23.551392,23.880735,58,30,0
23.880735,24.21008,65,27,0
24.21008,24.374752,48,35,0
24.539425,24.868769,63,26,0
24.868769,25.198114,53,24,0
24.868769,25.198114,57,29,0
25.198114,25.544773,63,26,0
25.544773,25.71903,41,35,0
25.893288,26.222631,60,23,0
26.222631,26.553612,57,23,0
26.222631,26.553612,53,19,0
26.553612,26.88459,60,23,0
26.88459,27.049263,46,35,0
27.213936,27.54328,62,24,0
27.54328,27.872623,58,27,0
27.54328,27.872623,53,22,0
27.872623,28.230576,62,25,0
28.230576,28.395248,39,35,0
28.559921,28.889265,60,27,0
28.889265,29.21861,55,25,0
28.889265,29.21861,58,30,0
28.889265,29.21861,51,25,0
29.21861,29.556372,60,27,0
29.556372,29.721243,40,35,0
29.886114,30.205296,60,26,0
30.205296,30.522352,52,24,0
30.205296,30.522352,55,24,0
30.205296,30.522352,58,29,0
30.522352,30.869013,60,26,0
30.869013,31.040539,41,35,0
31.212067,31.584183,57,25,0
31.584183,31.956614,58,23,0
31.956614,32.338043,60,21,0
31.212067,32.338043,53,20,0
32.338043,32.66739,46,35,0
32.66739,32.996735,62,24,0
32.996735,33.326077,58,27,0
32.996735,33.326077,53,22,0
33.326077,33.670944,62,25,0
33.670944,34.00029,50,35,0
34.00029,34.32963,65,27,0
34.32963,34.658978,58,30,0
34.32963,34.658978,53,25,0
34.658978,34.988323,65,27,0
34.988323,35.317665,48,35,0
35.317665,35.64701,63,26,0
35.64701,35.976357,57,29,0
35.64701,35.976357,53,24,0
35.976357,36.323017,63,26,0
36.323017,36.671528,41,35,0
36.671528,37.000874,60,23,0
37.000874,37.331852,53,19,0
37.000874,37.331852,57,23,0
37.331852,37.662834,60,23,0
37.662834,37.992176,46,35,0
37.992176,38.32152,62,24,0
38.32152,38.65758,58,27,0
38.32152,38.65758,53,22,0
38.65758,39.026085,62,25,0
39.026085,39.35543,40,35,0
39.35543,39.684776,61,27,0
39.684776,40.01412,52,25,0
39.684776,40.01412,55,25,0
39.684776,40.01412,58,30,0
40.01412,40.364067,61,27,0
40.364067,40.693413,58,35,0
40.693413,40.85406,57,24,0
40.85406,41.014713,55,24,0
41.014713,41.336018,57,31,0
40.364067,41.336018,53,35,0
40.364067,41.336018,60,29,0
41.336018,41.68268,60,26,0
41.336018,41.68268,53,26,0
41.68268,41.854202,46,30,0
42.02573,42.397846,58,25,0
42.397846,42.7679,53,23,0
42.397846,42.7679,50,18,0
42.7679,43.137947,58,21,0
43.137947,43.467293,38,42,0
43.137947,43.467293,50,42,0
43.467293,43.796635,62,28,0
43.796635,44.12598,54,26,0
43.796635,44.12598,57,32,0
44.12598,44.470848,62,30,0
44.470848,44.800194,43,42,0
44.800194,45.129536,58,32,0
45.129536,45.45888,50,30,0
45.129536,45.45888,55,36,0
45.45888,45.788227,58,32,0
45.788227,46.11757,43,42,0
46.11757,46.446915,58,31,0
46.446915,46.77626,50,28,0
46.446915,46.77626,55,34,0
46.77626,47.12292,58,31,0
47.12292,47.47143,36,42,0
47.47143,47.800777,55,27,0
47.800777,48.137287,52,27,0
47.800777,48.137287,48,22,0
48.137287,48.4738,55,27,0
48.4738,48.803146,41,42,0
48.803146,49.13249,57,28,0
49.13249,49.461834,53,31,0
49.13249,49.461834,48,25,0
49.461834,49.819786,57,28,0
49.819786,50.14913,34,38,0
50.14913,50.478474,55,29,0
50.478474,50.80782,53,31,0
50.478474,50.80782,50,26,0
50.80782,51.14558,55,27,0
51.14558,51.474926,36,35,0
51.474926,51.79623,55,26,0
51.79623,52.11753,57,29,0
52.11753,52.46419,58,26,0
51.474926,52.46419,48,26,0
52.46419,52.807243,41,35,0
52.807243,53.17936,57,25,0
53.17936,53.54941,58,23,0
53.54941,53.928535,60,21,0
52.807243,53.928535,53,20,0
53.928535,54.257877,46,35,0
54.257877,54.587223,62,24,0
54.587223,54.91657,53,22,0
54.587223,54.91657,58,27,0
54.91657,55.261436,62,25,0
55.261436,55.59078,50,35,0
55.59078,55.920124,65,27,0
55.920124,56.24947,58,30,0
55.920124,56.24947,56,25,0
56.24947,56.57881,65,27,0
56.57881,56.908157,48,35,0
56.908157,57.237503,63,26,0
57.237503,57.596207,58,29,0
57.237503,57.596207,55,24,0
57.596207,57.962025,63,26,0
57.962025,58.310535,52,35,0
58.310535,58.63988,67,23,0
58.63988,58.97086,58,19,0
58.63988,58.97086,61,23,0
58.97086,59.30184,67,23,0
59.30184,59.631184,43,35,0
59.631184,59.96053,60,24,0
59.96053,60.29659,58,27,0
59.96053,60.29659,55,22,0
60.29659,60.65454,60,25,0
60.65454,60.983887,41,35,0
60.983887,61.31323,62,27,0
61.31323,61.642574,58,30,0
61.31323,61.642574,53,25,0
61.642574,61.992523,62,27,0
61.992523,62.32187,41,35,0
62.32187,62.64317,60,24,0
62.64317,62.964474,53,31,0
62.964474,63.311134,60,26,0
63.311134,63.654186,46,30,0
63.654186,64.0263,58,25,0
64.0263,64.396355,50,23,0
64.0263,64.396355,53,23,0
64.396355,64.773285,58,21,0
64.773285,65.10263,50,42,0
64.773285,65.10263,38,42,0
65.10263,65.43198,62,28,0
65.43198,65.761314,57,32,0
65.43198,65.761314,54,26,0
65.761314,66.106186,62,30,0
66.106186,66.43553,43,42,0
66.43553,66.76487,58,32,0
66.76487,67.094215,55,36,0
66.76487,67.094215,50,30,0
67.094215,67.42356,58,32,0
67.42356,67.75291,43,42,0
67.75291,68.08225,58,31,0
68.08225,68.4116,50,28,0
68.08225,68.4116,55,34,0
68.4116,68.758255,58,31,0
68.758255,69.106766,36,42,0
69.106766,69.43611,55,27,0
69.43611,69.76709,48,22,0
69.43611,69.76709,52,27,0
69.76709,70.098076,55,27,0
70.098076,70.427414,41,42,0
70.427414,70.75676,57,28,0
70.75676,71.086105,48,25,0
70.75676,71.086105,53,31,0
71.086105,71.44406,57,28,0
71.44406,71.77341,34,38,0
71.77341,72.102745,55,29,0
72.102745,72.43209,50,26,0
72.102745,72.43209,53,31,0
72.43209,72.76985,55,27,0
72.76985,73.0992,36,35,0
73.0992,73.4205,55,26,0
73.4205,73.741806,57,29,0
73.741806,74.08846,58,26,0
73.0992,74.08846,48,26,0
74.08846,74.43152,41,35,0
74.43152,74.803635,57,25,0
74.803635,75.182755,58,23,0
75.182755,75.58016,60,21,0
74.43152,75.58016,53,20,0
75.58016,75.90951,46,35,0
75.90951,76.238846,62,24,0
76.238846,76.56819,53,22,0
76.238846,76.56819,58,27,0
76.56819,76.91306,62,25,0
76.91306,77.24241,50,35,0
77.24241,77.57175,65,27,0
77.57175,77.90109,58,30,0
77.57175,77.90109,56,25,0
77.90109,78.23044,65,27,0
78.23044,78.559784,48,35,0
78.559784,78.88913,63,26,0
78.88913,79.24783,55,24,0
78.88913,79.24783,58,29,0
79.24783,79.60803,63,26,0
79.60803,79.95654,52,35,0
79.95654,80.28589,67,23,0
80.28589,80.61687,61,23,0
80.28589,80.61687,58,19,0
80.61687,80.955086,67,23,0
80.955086,81.28443,43,35,0
81.28443,81.61378,60,24,0
81.61378,81.94983,58,27,0
81.61378,81.94983,55,22,0
81.94983,82.307785,60,25,0
82.307785,82.63713,41,35,0
82.63713,82.96648,62,27,0
82.96648,83.29582,58,30,0
82.96648,83.29582,53,25,0
83.29582,83.64577,62,27,0
83.64577,83.97511,41,35,0
83.97511,84.29642,60,24,0
84.29642,84.617714,53,31,0
84.617714,84.96438,60,26,0
84.96438,85.30743,46,30,0
85.30743,85.66736,58,25,0
85.66736,86.010414,53,23,0
85.66736,86.010414,50,23,0
86.010414,86.35346,58,21,0
86.35346,86.7057,41,28,0
86.7057,87.041756,60,19,0
87.041756,87.377815,53,24,0
87.377815,87.73775,60,20,0
87.73775,87.9148,46,24,0
88.09185,88.48161,58,20,0
88.48161,88.86233,53,18,0
88.86233,89.24587,50,21,0
89.24587,89.633316,29,23,0
89.633316,90.00968,48,16,0
90.00968,90.42658,41,20,0
90.42658,90.8872,48,17,0
90.8872,92.13789,41,20,0
90.8872,92.13789,34,20,0
90.8872,92.13789,46,20,0
93.215744,93.87443,53,24,0
93.87443,94.2193,53,24,0
92.8864,94.2193,46,30,0
94.548645,95.20733,53,24,0
95.20733,95.536674,53,24,0
94.2193,95.536674,50,30,0
95.8564,96.51509,53,24,0
96.51509,96.85682,53,24,0
95.536674,96.85682,48,30,0
97.20533,97.865654,53,24,0
97.865654,98.19663,53,24,0
96.85682,98.19663,41,30,0
98.52598,99.18467,57,24,0
99.18467,99.52953,57,24,0
98.19663,99.52953,50,30,0
99.85888,100.51757,56,24,0
100.51757,100.84692,56,24,0
99.52953,100.84692,50,30,0
101.19178,101.85047,55,24,0
101.85047,102.19219,54,24,0
100.84692,102.19219,51,30,0
102.54071,103.228745,53,24,0
103.228745,103.577255,53,24,0
102.19219,103.577255,41,30,0
103.9066,104.565285,53,24,0
104.565285,104.91016,53,24,0
103.577255,104.91016,46,30,0
105.2395,105.898186,53,24,0
105.898186,106.22753,53,24,0
104.91016,106.22753,50,30,0
106.54726,107.20595,53,24,0
107.20595,107.547676,53,24,0
106.22753,107.547676,48,30,0
107.89619,108.55651,53,24,0
108.55651,108.88749,53,24,0
107.547676,108.88749,41,30,0
109.216835,109.87553,53,24,0
109.87553,110.22039,58,24,0
108.88749,110.22039,50,30,0
110.549736,111.20843,61,29,0
110.549736,111.20843,58,29,0
111.20843,111.53777,61,24,0
111.20843,111.53777,58,24,0
110.22039,111.53777,52,34,0
111.88264,112.54133,60,24,0
112.54133,112.88305,63,24,0
111.53777,112.88305,53,30,0
112.88305,113.57108,58,30,0
112.88305,113.57108,62,30,0
114.59746,115.25614,53,24,0
115.25614,115.60101,53,24,0
114.26811,115.60101,46,30,0
115.93036,116.58904,53,24,0
116.58904,116.91839,53,24,0
115.60101,116.91839,50,30,0
117.23811,117.896805,53,24,0
117.896805,118.23853,53,24,0
116.91839,118.23853,48,30,0
118.58704,119.256355,53,24,0
119.256355,119.60384,53,24,0
118.23853,119.60384,41,30,0
119.93318,120.57995,57,24,0
120.57995,120.92481,57,24,0
119.60384,120.92481,50,30,0
121.25416,121.91285,56,24,0
121.91285,122.24219,56,24,0
120.92481,122.24219,50,30,0
122.58706,123.24574,55,24,0
123.24574,123.58747,54,24,0
122.24219,123.58747,51,30,0
123.93598,124.624016,53,24,0
124.624016,124.99702,53,24,0
123.58747,124.99702,41,30,0
125.32636,125.985054,53,24,0
125.985054,126.32992,53,24,0
124.99702,126.32992,46,30,0
126.65926,127.317955,53,24,0
127.317955,127.6473,53,24,0
126.32992,127.6473,50,30,0
127.967026,128.62572,53,24,0
128.62572,128.97917,53,24,0
127.6473,128.97917,48,30,0
129.32768,129.988,53,24,0
129.988,130.31898,53,24,0
128.97917,130.31898,41,30,0
130.64833,131.30702,53,24,0
131.30702,131.65189,58,24,0
130.31898,131.65189,50,30,0
131.98123,132.63992,58,29,0
131.98123,132.63992,61,29,0
132.63992,132.96927,58,24,0
132.63992,132.96927,61,24,0
131.65189,132.96927,52,34,0
133.31413,133.97282,60,24,0
133.97282,134.31456,63,24,0
132.96927,134.31456,53,30,0
134.31456,135.00258,62,30,0
134.31456,135.00258,58,30,0
136.02896,136.68765,60,27,0
136.68765,137.03252,57,27,0
135.69962,137.03252,50,34,0
137.03252,137.36186,43,34,0
137.36186,137.69121,55,33,0
137.36186,137.69121,62,40,0
137.69121,138.02054,60,48,0
137.69121,138.02054,56,40,0
138.02054,138.3642,59,36,0
138.02054,138.3642,55,31,0
138.3642,138.68391,43,34,0
138.68391,139.3426,65,46,0
139.3426,139.69127,62,35,0
138.68391,139.69127,55,37,0
139.69127,140.7001,48,42,0
140.7001,141.03108,55,27,0
140.03978,141.03108,60,33,0
141.03108,141.68977,57,34,0
141.36043,142.01912,60,27,0
142.01912,142.36577,60,27,0
141.68977,142.36577,53,37,0
142.36577,142.69347,46,41,0
142.69347,143.02115,62,35,0
142.69347,143.02115,58,29,0
143.02115,143.34885,57,27,0
143.02115,143.34885,60,33,0
143.34885,143.67653,58,31,0
143.34885,143.67653,55,25,0
144.02141,144.35074,57,27,0
143.67653,144.35074,48,34,0
144.68008,145.02182,58,27,0
144.35074,145.02182,48,34,0
145.02182,146.46454,53,34,0
145.02182,146.46454,57,34,0
146.80531,147.46407,53,24,0
147.46407,147.80894,53,24,0
146.46454,147.80894,46,30,0
148.13829,148.79697,58,24,0
148.79697,149.12631,58,24,0
147.80894,149.12631,50,30,0
149.44604,150.10474,58,28,0
150.10474,150.44646,58,28,0
149.12631,150.44646,51,30,0
150.79497,151.45529,61,28,0
150.79497,151.45529,58,28,0
151.45529,151.78627,58,28,0
151.45529,151.78627,61,28,0
150.44646,151.78627,52,37,0
152.11562,152.7743,58,24,0
152.11562,152.7743,60,24,0
152.7743,153.11917,58,24,0
152.7743,153.11917,61,24,0
151.78627,153.11917,55,37,0
153.44852,153.77786,62,29,0
153.44852,153.77786,58,29,0
153.77786,154.10721,60,24,0
153.77786,154.10721,63,29,0
154.10721,154.43655,65,24,0
154.10721,154.43655,62,20,0
153.11917,154.43655,53,34,0
154.78142,155.11076,63,24,0
154.78142,155.11076,60,24,0
155.11076,155.44011,58,24,0
155.11076,155.44011,62,24,0
154.43655,155.44011,53,30,0
155.44011,155.78183,53,24,0
155.44011,155.78183,60,24,0
155.78183,156.46986,50,25,0
155.78183,156.46986,58,30,0
155.78183,156.46986,46,25,0
156.81837,156.99265,50,30,0
157.49625,158.14279,60,27,0
158.14279,158.48766,57,27,0
157.1669,158.48766,50,34,0
158.48766,158.817,43,34,0
158.817,159.14635,55,33,0
158.817,159.14635,62,40,0
159.14635,159.4757,60,48,0
159.14635,159.4757,56,40,0
159.4757,159.81934,55,31,0
159.4757,159.81934,59,36,0
159.81934,160.13907,43,34,0
160.13907,160.79776,65,46,0
160.79776,161.15536,62,35,0
160.13907,161.15536,55,37,0
161.15536,162.1642,48,42,0
162.1642,162.49518,55,27,0
161.50388,162.49518,60,33,0
162.49518,163.15387,57,34,0
162.82452,163.48322,60,27,0
163.48322,163.84296,60,27,0
163.15387,163.84296,53,37,0
163.84296,164.17064,46,41,0
164.17064,164.49834,58,29,0
164.17064,164.49834,62,35,0
164.49834,164.82602,57,27,0
164.49834,164.82602,60,33,0
164.82602,165.15372,58,31,0
164.82602,165.15372,55,25,0
165.49858,165.82793,57,27,0
165.15372,165.82793,48,34,0
166.15727,166.499,58,27,0
165.82793,166.499,48,34,0
166.499,167.9849,53,34,0
166.499,167.9849,57,34,0
168.32567,168.98444,53,24,0
168.98444,169.3293,53,24,0
167.9849,169.3293,46,30,0
169.65865,170.31734,58,24,0
170.31734,170.64667,58,24,0
169.3293,170.64667,50,30,0
170.9664,171.62509,58,28,0
171.62509,171.96681,58,28,0
170.64667,171.96681,51,30,0
172.31532,172.9942,61,28,0
172.31532,172.9942,58,28,0
172.9942,173.32518,58,28,0
172.9942,173.32518,61,28,0
171.96681,173.32518,52,37,0
173.65453,174.31322,58,24,0
173.65453,174.31322,60,24,0
174.31322,174.65808,58,24,0
174.31322,174.65808,61,24,0
173.32518,174.65808,55,37,0
174.98743,175.31677,62,29,0
174.98743,175.31677,58,29,0
175.31677,175.64612,60,24,0
175.31677,175.64612,63,29,0
175.64612,175.97546,65,24,0
175.64612,175.97546,62,20,0
174.65808,175.97546,53,34,0
176.32033,176.64967,63,24,0
176.32033,176.64967,60,24,0
176.64967,176.97902,58,24,0
176.64967,176.97902,62,24,0
175.97546,176.97902,53,30,0
176.97902,177.32074,53,24,0
176.97902,177.32074,60,24,0
177.32074,178.00877,58,30,0
177.32074,178.00877,50,25,0
177.32074,178.00877,46,25,0
178.35728,178.7058,58,30,0
179.05066,179.38,60,21,0
179.05066,179.38,63,21,0
179.38,179.70935,58,21,0
179.38,179.70935,62,21,0
178.7058,179.70935,53,27,0
179.70935,180.05109,53,21,0
179.70935,180.05109,60,21,0
180.05109,180.7391,58,27,0
180.05109,180.7391,46,22,0
180.05109,180.7391,50,22,0
181.09184,181.44458,50,21,0
181.09184,181.44458,53,27,0
181.809,182.14899,48,21,0
181.809,182.14899,51,21,0
182.14899,182.49983,50,21,0
182.14899,182.49983,46,21,0
181.44458,182.49983,41,27,0
182.49983,182.88768,41,21,0
182.49983,182.88768,48,21,0
182.88768,184.82657,34,27,0
182.88768,184.82657,41,27,0
182.88768,184.82657,46,27,0
188.67273,188.8374,46,35,0
189.00208,189.62114,53,20,0
189.00208,189.62114,58,20,0
189.00208,189.62114,62,24,0
189.62114,189.98543,62,25,0
189.62114,189.98543,58,21,0
189.62114,189.98543,53,21,0
189.98543,190.15875,50,35,0
190.33209,190.99077,62,28,0
190.33209,190.99077,53,23,0
190.33209,190.99077,58,23,0
190.99077,191.32011,53,22,0
190.99077,191.32011,62,27,0
190.99077,191.32011,58,22,0
191.32011,191.48479,48,35,0
191.64946,192.2845,63,24,0
191.64946,192.2845,57,20,0
191.64946,192.2845,53,20,0
192.2845,192.63206,57,21,0
192.2845,192.63206,63,25,0
192.2845,192.63206,53,21,0
192.63206,192.80539,41,35,0
192.97871,193.6582,57,23,0
192.97871,193.6582,60,28,0
192.97871,193.6582,53,23,0
193.6582,193.9892,60,27,0
193.6582,193.9892,53,22,0
193.6582,193.9892,57,22,0
193.9892,194.15387,46,35,0
194.31853,194.94096,58,20,0
194.31853,194.94096,53,20,0
194.31853,194.94096,62,24,0
194.94096,195.28584,53,21,0
194.94096,195.28584,62,25,0
194.94096,195.28584,58,21,0
195.28584,195.45918,39,35,0
195.6325,196.28174,60,28,0
195.6325,196.28174,58,23,0
195.6325,196.28174,55,23,0
195.6325,196.28174,51,23,0
196.28174,196.59143,55,22,0
196.28174,196.59143,58,22,0
196.28174,196.59143,51,22,0
196.28174,196.59143,60,27,0
196.59143,196.92555,39,42,0
196.92555,197.24529,55,29,0
197.24529,197.565,57,35,0
196.92555,197.565,52,29,0
196.92555,197.565,60,35,0
197.565,197.89464,58,33,0
197.565,197.89464,52,33,0
197.565,197.89464,60,39,0
197.89464,198.21748,41,44,0
198.21748,198.54025,57,32,0
198.21748,198.54025,60,38,0
198.54025,198.86818,58,31,0
198.54025,198.86818,62,37,0
198.86818,199.2242,60,30,0
198.86818,199.2242,63,36,0
198.21748,199.2242,53,32,0
199.2242,199.38887,46,35,0
199.55354,200.16861,53,20,0
199.55354,200.16861,62,24,0
199.55354,200.16861,58,20,0
200.16861,200.5345,58,21,0
200.16861,200.5345,53,21,0
200.16861,200.5345,62,25,0
200.5345,200.70784,50,35,0
200.88116,201.53986,58,23,0
200.88116,201.53986,53,23,0
200.88116,201.53986,65,28,0
201.53986,201.8692,58,22,0
201.53986,201.8692,53,22,0
201.53986,201.8692,65,27,0
201.8692,202.03387,48,35,0
202.19855,202.82465,57,20,0
202.19855,202.82465,63,24,0
202.19855,202.82465,53,20,0
202.82465,203.17914,53,21,0
202.82465,203.17914,63,25,0
202.82465,203.17914,57,21,0
203.17914,203.35248,41,35,0
203.5258,204.20529,53,23,0
203.5258,204.20529,60,28,0
203.5258,204.20529,57,23,0
204.20529,204.53627,57,22,0
204.20529,204.53627,53,22,0
204.20529,204.53627,60,27,0
204.53627,204.70094,46,35,0
204.86562,205.49554,53,20,0
204.86562,205.49554,58,20,0
204.86562,205.49554,62,24,0
205.49554,205.84187,62,25,0
205.49554,205.84187,53,21,0
205.49554,205.84187,58,21,0
205.84187,206.0152,40,35,0
206.18854,206.84406,52,23,0
206.18854,206.84406,61,28,0
206.18854,206.84406,58,23,0
206.18854,206.84406,55,23,0
206.84406,207.16692,58,22,0
206.84406,207.16692,61,27,0
206.84406,207.16692,55,22,0
206.84406,207.16692,52,22,0
207.16692,207.50104,58,39,0
207.50104,207.6609,57,39,0
207.6609,207.82077,55,42,0
207.82077,208.14049,57,48,0
207.16692,208.14049,60,42,0
208.14049,208.47011,60,33,0
208.14049,208.47011,63,39,0
207.16692,208.47011,53,42,0
208.47011,209.79968,62,44,0
208.47011,209.79968,58,44,0
209.79968,209.96436,46,35,0
210.12903,210.75435,62,24,0
210.12903,210.75435,58,20,0
210.12903,210.75435,53,20,0
210.75435,211.11862,53,21,0
210.75435,211.11862,62,25,0
210.75435,211.11862,58,21,0
211.11862,211.29195,50,35,0
211.46529,212.12398,53,23,0
211.46529,212.12398,58,23,0
211.46529,212.12398,62,28,0
212.12398,212.45332,62,27,0
212.12398,212.45332,53,22,0
212.12398,212.45332,58,22,0
212.45332,212.618,48,35,0
212.78267,213.4177,63,24,0
212.78267,213.4177,53,20,0
212.78267,213.4177,57,20,0
213.4177,213.76526,63,25,0
213.4177,213.76526,53,21,0
213.4177,213.76526,57,21,0
213.76526,213.93858,41,35,0
214.11192,214.79141,53,23,0
214.11192,214.79141,57,23,0
214.11192,214.79141,60,28,0
214.79141,215.12239,60,27,0
214.79141,215.12239,53,22,0
214.79141,215.12239,57,22,0
215.12239,215.28706,46,35,0
215.45174,216.08824,62,24,0
215.45174,216.08824,53,20,0
215.45174,216.08824,58,20,0
216.08824,216.43652,62,25,0
216.08824,216.43652,53,21,0
216.08824,216.43652,58,21,0
216.43652,216.60986,39,35,0
216.78319,217.4359,55,23,0
216.78319,217.4359,58,23,0
216.78319,217.4359,51,23,0
216.78319,217.4359,60,28,0
217.4359,217.75256,55,22,0
217.4359,217.75256,51,22,0
217.4359,217.75256,60,27,0
217.4359,217.75256,58,22,0
217.75256,218.08669,39,42,0
218.08669,218.4064,55,29,0
218.4064,218.72614,57,35,0
218.08669,218.72614,52,29,0
218.08669,218.72614,60,35,0
218.72614,219.05576,58,33,0
218.72614,219.05576,60,39,0
218.72614,219.05576,52,33,0
219.05576,219.37862,41,44,0
219.37862,219.70139,60,38,0
219.37862,219.70139,57,32,0
219.70139,220.0293,62,37,0
219.70139,220.0293,58,31,0
220.0293,220.38533,60,30,0
220.0293,220.38533,63,36,0
219.37862,220.38533,53,32,0
220.38533,220.55,46,35,0
220.71468,221.33319,58,20,0
220.71468,221.33319,62,24,0
220.71468,221.33319,53,20,0
221.33319,221.69908,53,21,0
221.33319,221.69908,58,21,0
221.33319,221.69908,62,25,0
221.69908,221.8724,50,35,0
222.04575,222.70442,53,23,0
222.04575,222.70442,65,28,0
222.04575,222.70442,58,23,0
222.70442,223.03377,65,27,0
222.70442,223.03377,53,22,0
222.70442,223.03377,58,22,0
223.03377,223.19844,48,35,0
223.36311,223.98969,63,24,0
223.36311,223.98969,53,20,0
223.36311,223.98969,57,20,0
223.98969,224.3442,53,21,0
223.98969,224.3442,63,25,0
223.98969,224.3442,57,21,0
224.3442,224.51752,41,35,0
224.69084,225.37033,57,23,0
224.69084,225.37033,53,23,0
224.69084,225.37033,60,28,0
225.37033,225.70132,53,22,0
225.37033,225.70132,60,27,0
225.37033,225.70132,57,22,0
225.70132,225.866,46,35,0
226.03065,226.66716,62,24,0
226.03065,226.66716,53,20,0
226.03065,226.66716,58,20,0
226.66716,227.01546,62,25,0
226.66716,227.01546,53,21,0
226.66716,227.01546,58,21,0
227.01546,227.18878,40,35,0
227.36212,228.01764,61,28,0
227.36212,228.01764,52,23,0
227.36212,228.01764,58,23,0
227.36212,228.01764,55,23,0
228.01764,228.3405,55,22,0
228.01764,228.3405,61,27,0
228.01764,228.3405,58,22,0
228.01764,228.3405,52,22,0
228.3405,228.67462,58,39,0
228.67462,228.83449,57,39,0
228.83449,228.99435,55,42,0
228.99435,229.31407,57,48,0
228.3405,229.31407,60,42,0
229.31407,229.6437,63,39,0
229.31407,229.6437,60,33,0
228.3405,229.6437,53,42,0
229.6437,230.97327,58,44,0
229.6437,230.97327,62,44,0
230.97327,231.32361,50,63,0
231.32361,231.48746,54,52,0
231.48746,231.6513,57,56,0
231.6513,231.80963,61,62,0
231.80963,231.96796,62,52,0
231.96796,232.12628,50,61,0
232.12628,232.29962,62,53,0
232.29962,232.47025,46,63,0
232.47025,232.64087,58,54,0
232.64087,232.80554,45,62,0
232.80554,232.97021,57,57,0
232.97021,233.13008,43,65,0
233.13008,233.28995,55,60,0
233.28995,233.44981,42,68,0
233.44981,233.63176,54,64,0
233.63176,233.79561,43,77,0
233.79561,233.95946,55,65,0
233.95946,234.11931,45,73,0
234.11931,234.27917,57,62,0
234.27917,234.44385,46,70,0
234.44385,234.60852,58,62,0
234.60852,234.7732,47,67,0
234.7732,234.95616,59,61,0
234.95616,235.28221,48,68,0
235.28221,235.44525,52,51,0
235.44525,235.60828,55,57,0
235.60828,235.77133,59,57,0
235.77133,235.93552,60,53,0
235.93552,236.10092,48,57,0
236.10092,236.26765,60,51,0
236.26765,236.60199,41,62,0
236.60199,236.7611,45,51,0
236.7611,236.9202,48,51,0
236.9202,237.0793,52,64,0
237.0793,237.23839,53,57,0
237.23839,237.39749,57,61,0
237.39749,237.57455,60,64,0
237.57455,237.89584,46,63,0
237.89584,238.53845,55,52,0
237.89584,238.53845,65,62,0
237.89584,238.53845,62,52,0
238.53845,238.87064,62,51,0
238.53845,238.87064,55,51,0
238.53845,238.87064,65,61,0
238.87064,239.18132,48,63,0
239.18132,239.81165,58,51,0
239.18132,239.81165,60,51,0
239.18132,239.81165,55,51,0
239.18132,239.81165,64,60,0
239.81165,240.1268,64,60,0
239.81165,240.1268,60,51,0
240.1268,240.28767,53,54,0
240.28767,240.4499,63,61,0
240.4499,240.61288,60,61,0
240.61288,240.7762,57,60,0
240.7762,240.94005,53,58,0
240.94005,241.1039,51,57,0
241.1039,241.26775,48,55,0
241.26775,241.43158,53,54,0
241.43158,241.76093,46,35,0
241.76093,242.37944,58,20,0
241.76093,242.37944,53,20,0
241.76093,242.37944,62,24,0
242.37944,242.74533,53,21,0
242.37944,242.74533,58,21,0
242.37944,242.74533,62,25,0
242.74533,243.092,50,35,0
243.092,243.75069,56,23,0
243.092,243.75069,58,23,0
243.092,243.75069,65,28,0
243.75069,244.08003,65,27,0
243.75069,244.08003,56,22,0
243.75069,244.08003,58,22,0
244.08003,244.40938,51,35,0
244.40938,245.03548,63,24,0
244.40938,245.03548,55,20,0
244.40938,245.03548,58,20,0
245.03548,245.38997,55,21,0
245.03548,245.38997,58,21,0
245.03548,245.38997,63,25,0
245.38997,245.73663,52,35,0
245.73663,246.41612,67,28,0
245.73663,246.41612,61,23,0
245.73663,246.41612,58,23,0
246.41612,246.7471,61,22,0
246.41612,246.7471,58,22,0
246.41612,246.7471,67,27,0
246.7471,247.07645,55,31,0
247.07645,247.71295,60,18,0
247.07645,247.71295,58,18,0
247.07645,247.71295,64,21,0
247.71295,248.06125,60,18,0
247.71295,248.06125,64,22,0
247.71295,248.06125,58,18,0
248.06125,248.40791,53,31,0
248.40791,249.06343,58,20,0
248.40791,249.06343,65,25,0
248.40791,249.06343,62,20,0
249.06343,249.38629,58,19,0
249.06343,249.38629,62,19,0
249.06343,249.38629,65,24,0
249.38629,249.72041,53,31,0
249.72041,250.35986,65,21,0
249.72041,250.35986,60,18,0
249.72041,250.35986,63,18,0
250.35986,250.68948,60,18,0
250.35986,250.68948,65,22,0
250.35986,250.68948,63,18,0
250.68948,251.01234,46,31,0
251.01234,252.01906,65,25,0
251.01234,252.01906,58,20,0
251.01234,252.01906,62,20,0
252.01906,252.3694,50,63,0
252.3694,252.53325,54,52,0
252.53325,252.6971,57,56,0
252.6971,252.85542,61,62,0
252.85542,253.01375,62,52,0
253.01375,253.17207,50,61,0
253.17207,253.34541,62,53,0
253.34541,253.51604,46,63,0
253.51604,253.68666,58,54,0
253.68666,253.85133,45,62,0
253.85133,254.016,57,57,0
254.016,254.17587,43,65,0
254.17587,254.33574,55,60,0
254.33574,254.4956,42,68,0
254.4956,254.67755,54,64,0
254.67755,254.8414,43,77,0
254.8414,255.00523,55,65,0
255.00523,255.1651,45,73,0
255.1651,255.32497,57,62,0
255.32497,255.48964,46,70,0
255.48964,255.65431,58,62,0
255.65431,255.81898,47,67,0
255.81898,256.00195,59,61,0
256.00195,256.328,48,68,0
256.328,256.49103,52,51,0
256.49103,256.65405,55,57,0
256.65405,256.8171,59,57,0
256.8171,256.9813,60,53,0
256.9813,257.1467,48,57,0
257.1467,257.31345,60,51,0
257.31345,257.64777,41,62,0
257.64777,257.8069,45,51,0
257.8069,257.96597,48,51,0
257.96597,258.1251,52,64,0
258.1251,258.28418,53,57,0
258.28418,258.44327,57,61,0
258.44327,258.62033,60,64,0
258.62033,258.94165,46,63,0
258.94165,259.58423,55,52,0
258.94165,259.58423,65,62,0
258.94165,259.58423,62,52,0
259.58423,259.9164,55,51,0
259.58423,259.9164,65,61,0
259.58423,259.9164,62,51,0
259.9164,260.2271,48,63,0
260.2271,260.85742,55,51,0
260.2271,260.85742,58,51,0
260.2271,260.85742,64,60,0
260.2271,260.85742,60,51,0
260.85742,261.17258,64,60,0
260.85742,261.17258,60,51,0
261.17258,261.33347,53,54,0
261.33347,261.4957,63,61,0
261.4957,261.6587,60,61,0
261.6587,261.822,57,60,0
261.822,261.98584,53,58,0
261.98584,262.1497,51,57,0
262.1497,262.31354,48,55,0
262.31354,262.47736,53,54,0
262.47736,262.8067,46,35,0
262.8067,263.42523,53,20,0
262.8067,263.42523,58,20,0
262.8067,263.42523,62,24,0
263.42523,263.79114,58,21,0
263.42523,263.79114,62,25,0
263.42523,263.79114,53,21,0
263.79114,264.1378,50,35,0
264.1378,264.79648,56,23,0
264.1378,264.79648,58,23,0
264.1378,264.79648,65,28,0
264.79648,265.12582,65,27,0
264.79648,265.12582,56,22,0
264.79648,265.12582,58,22,0
265.12582,265.45517,51,35,0
265.45517,266.08127,63,24,0
265.45517,266.08127,58,20,0
265.45517,266.08127,55,20,0
266.08127,266.43576,55,21,0
266.08127,266.43576,63,25,0
266.08127,266.43576,58,21,0
266.43576,266.7824,52,35,0
266.7824,267.4619,61,23,0
266.7824,267.4619,67,28,0
266.7824,267.4619,58,23,0
267.4619,267.7929,67,27,0
267.4619,267.7929,58,22,0
267.4619,267.7929,61,22,0
267.7929,268.12222,55,31,0
268.12222,268.75873,64,21,0
268.12222,268.75873,58,18,0
268.12222,268.75873,60,18,0
268.75873,269.10703,64,22,0
268.75873,269.10703,60,18,0
268.75873,269.10703,58,18,0
269.10703,269.4537,53,31,0
269.4537,270.10922,65,25,0
269.4537,270.10922,62,20,0
269.4537,270.10922,58,20,0
270.10922,270.43207,65,24,0
270.10922,270.43207,62,19,0
270.10922,270.43207,58,19,0
270.43207,270.7662,53,31,0
270.7662,271.40564,65,21,0
270.7662,271.40564,63,18,0
270.7662,271.40564,60,18,0
271.40564,271.7353,63,18,0
271.40564,271.7353,60,18,0
271.40564,271.7353,65,22,0
271.7353,272.05814,53,31,0
272.05814,272.70883,58,18,0
272.05814,272.70883,62,18,0
272.05814,272.70883,65,21,0
272.70883,273.05698,62,18,0
272.70883,273.05698,58,18,0
272.70883,273.05698,65,22,0
273.05698,273.37985,41,31,0
273.37985,274.03052,53,18,0
273.37985,274.03052,63,21,0
273.37985,274.03052,60,18,0
274.03052,274.3787,60,18,0
274.03052,274.3787,63,22,0
274.03052,274.3787,53,18,0
274.3787,274.70154,41,31,0
274.70154,275.35223,62,21,0
274.70154,275.35223,58,18,0
274.70154,275.35223,53,18,0
275.35223,275.6155,53,18,0
275.35223,275.6155,58,18,0
275.35223,275.6155,62,22,0
275.69965,276.03265,41,31,0
276.03265,276.72296,51,18,0
276.03265,276.72296,60,21,0
276.03265,276.72296,53,18,0
276.72296,277.12448,57,22,0
276.72296,277.12448,51,18,0
276.72296,277.12448,53,18,0
278.11783,279.2306,34,26,0
277.56415,279.2306,50,29,0
277.12448,279.2306,58,34,0
277.3443,279.2306,53,31,0
277.81787,279.2306,46,28,0
279.73724,280.05777,34,30,0
279.73724,280.05777,46,36,0
280.05777,280.29816,49,25,0
280.05777,280.29816,53,29,0
280.05777,280.29816,46,25,0
280.37827,280.61865,46,25,0
280.37827,280.61865,49,25,0
280.37827,280.61865,52,29,0
280.6988,280.93918,46,30,0
280.6988,280.93918,53,36,0
280.6988,280.93918,49,30,0
281.0193,281.266,54,29,0
281.0193,281.266,46,25,0
281.0193,281.266,49,25,0
281.35245,281.6118,46,25,0
281.35245,281.6118,53,29,0
281.35245,281.6118,49,25,0
281.69824,282.01645,49,36,0
281.69824,282.01645,37,30,0
282.01645,282.2551,49,24,0
282.01645,282.2551,53,28,0
282.33466,282.57333,52,29,0
282.33466,282.57333,49,25,0
282.6529,282.89154,53,31,0
282.6529,282.89154,49,26,0
282.9711,283.21664,54,29,0
282.9711,283.21664,49,25,0
283.3031,283.56244,49,25,0
283.3031,283.56244,53,29,0
283.6489,283.96478,36,36,0
283.96478,284.2807,51,25,0
283.96478,284.2807,53,29,0
283.96478,284.2807,48,25,0
284.2807,284.5966,52,25,0
284.2807,284.5966,51,29,0
284.2807,284.5966,48,25,0
284.5966,284.9125,48,26,0
284.5966,284.9125,51,26,0
284.5966,284.9125,53,31,0
284.9125,285.25812,51,34,0
284.9125,285.25812,48,28,0
285.25812,285.62186,51,30,0
285.25812,285.62186,54,36,0
285.25812,285.62186,48,30,0
285.62186,285.94235,33,45,0
285.94235,286.26288,45,29,0
285.94235,286.26288,48,29,0
285.94235,286.26288,53,35,0
286.26288,286.58337,45,29,0
286.26288,286.58337,48,29,0
286.26288,286.58337,52,35,0
286.58337,286.89706,48,31,0
286.58337,286.89706,45,31,0
286.58337,286.89706,53,37,0
286.89706,287.23386,45,26,0
286.89706,287.23386,54,30,0
286.89706,287.23386,48,26,0
287.23386,287.59375,48,26,0
287.23386,287.59375,45,26,0
287.23386,287.59375,53,30,0
287.59375,287.912,34,39,0
287.912,288.2302,46,27,0
287.912,288.2302,49,27,0
287.912,288.2302,53,31,0
288.2302,288.5484,49,27,0
288.2302,288.5484,46,27,0
288.2302,288.5484,52,31,0
288.5484,288.78708,46,33,0
288.5484,288.78708,53,39,0
288.5484,288.78708,49,33,0
288.86664,289.1053,49,27,0
288.86664,289.1053,54,31,0
288.86664,289.1053,46,27,0
289.18484,289.4696,46,27,0
289.18484,289.4696,49,27,0
289.18484,289.4696,53,31,0
289.56503,289.88556,30,39,0
289.88556,290.2061,51,30,0
289.88556,290.2061,46,26,0
289.88556,290.2061,42,26,0
290.2061,290.52658,42,27,0
290.2061,290.52658,45,27,0
290.2061,290.52658,51,31,0
290.52658,290.76697,42,28,0
290.52658,290.76697,51,34,0
290.52658,290.76697,46,28,0
290.8471,291.0875,46,27,0
290.8471,291.0875,42,28,0
290.8471,291.0875,53,31,0
291.1676,291.408,51,31,0
291.1676,291.408,42,28,0
291.1676,291.408,46,27,0
291.48813,291.8134,29,40,0
291.48813,291.8134,41,49,0
291.8134,292.13864,46,29,0
291.8134,292.13864,49,36,0
291.8134,292.13864,41,29,0
292.13864,292.48993,41,29,0
292.13864,292.48993,48,36,0
292.13864,292.48993,46,29,0
292.48993,292.80817,49,38,0
292.48993,292.80817,46,31,0
292.48993,292.80817,41,31,0
292.80817,293.12637,41,34,0
292.80817,293.12637,51,40,0
292.80817,293.12637,46,34,0
293.12637,293.51495,46,36,0
293.12637,293.51495,41,36,0
293.12637,293.51495,52,42,0
293.51495,293.83548,41,52,0
293.51495,293.83548,29,44,0
293.83548,294.15598,45,37,0
293.83548,294.15598,53,44,0
293.83548,294.15598,41,37,0
294.15598,294.4765,41,37,0
294.15598,294.4765,45,37,0
294.15598,294.4765,52,44,0
294.4765,294.797,45,44,0
294.4765,294.797,53,51,0
294.4765,294.797,41,44,0
294.797,295.13123,45,37,0
294.797,295.13123,41,37,0
294.797,295.13123,54,44,0
295.13123,295.5098,45,37,0
295.13123,295.5098,53,44,0
295.13123,295.5098,41,37,0
295.5098,295.83032,34,42,0
295.5098,295.83032,46,50,0
295.83032,296.0707,46,35,0
295.83032,296.0707,49,35,0
295.83032,296.0707,53,40,0
296.15085,296.3912,52,40,0
296.15085,296.3912,46,35,0
296.15085,296.3912,49,35,0
296.47134,296.71173,53,50,0
296.47134,296.71173,49,42,0
296.47134,296.71173,46,42,0
296.79187,297.03516,49,35,0
296.79187,297.03516,46,35,0
296.79187,297.03516,54,40,0
297.1182,297.38812,49,35,0
297.1182,297.38812,46,35,0
297.1182,297.38812,53,40,0
297.47812,297.801,37,42,0
297.47812,297.801,49,50,0
297.801,298.04318,53,39,0
297.801,298.04318,49,34,0
298.1239,298.36606,49,35,0
298.1239,298.36606,52,40,0
298.44678,298.68896,53,44,0
298.44678,298.68896,49,36,0
298.76968,299.0148,54,40,0
298.76968,299.0148,49,35,0
299.09845,299.36838,49,35,0
299.09845,299.36838,53,40,0
299.45837,299.77658,36,50,0
299.77658,300.09482,53,40,0
299.77658,300.09482,51,35,0
299.77658,300.09482,48,35,0
300.09482,300.41302,52,35,0
300.09482,300.41302,48,35,0
300.09482,300.41302,51,40,0
300.41302,300.73123,51,36,0
300.41302,300.73123,53,44,0
300.41302,300.73123,48,36,0
300.73123,301.04947,48,39,0
300.73123,301.04947,51,48,0
301.04947,301.42804,51,42,0
301.04947,301.42804,48,42,0
301.04947,301.42804,54,50,0
301.42804,301.74625,33,63,0
301.74625,302.06445,48,40,0
301.74625,302.06445,53,49,0
301.74625,302.06445,45,40,0
302.06445,302.3827,52,49,0
302.06445,302.3827,45,40,0
302.06445,302.3827,48,40,0
302.3827,302.69635,45,44,0
302.3827,302.69635,53,52,0
302.3827,302.69635,48,44,0
302.69635,303.02182,48,34,0
302.69635,303.02182,54,39,0
302.69635,303.02182,45,34,0
303.02182,303.38174,48,28,0
303.02182,303.38174,53,33,0
303.02182,303.38174,45,28,0
303.38174,303.70462,34,42,0
303.70462,304.02753,49,29,0
303.70462,304.02753,53,34,0
303.70462,304.02753,46,29,0
304.02753,304.35043,49,29,0
304.02753,304.35043,46,29,0
304.02753,304.35043,52,34,0
304.35043,304.5926,46,36,0
304.35043,304.5926,49,36,0
304.35043,304.5926,53,42,0
304.6733,304.91547,46,29,0
304.6733,304.91547,54,34,0
304.6733,304.91547,49,29,0
304.99622,305.27768,46,29,0
304.99622,305.27768,53,34,0
304.99622,305.27768,49,29,0
305.37152,305.69202,40,42,0
305.69202,306.01254,46,28,0
305.69202,306.01254,48,28,0
305.69202,306.01254,55,33,0
306.01254,306.33304,49,25,0
306.01254,306.33304,46,25,0
306.01254,306.33304,55,28,0
306.33304,306.58066,46,26,0
306.33304,306.58066,55,30,0
306.66318,306.9108,55,28,0
306.66318,306.9108,46,25,0
306.66318,306.9108,48,25,0
306.99332,307.28476,46,25,0
306.99332,307.28476,55,28,0
306.99332,307.28476,49,25,0
307.3819,307.71713,41,41,0
307.71713,308.05237,49,30,0
307.71713,308.05237,46,24,0
308.05237,308.43094,49,28,0
308.05237,308.43094,46,22,0
308.43094,308.6843,41,28,0
308.76874,309.02206,45,24,0
308.76874,309.02206,48,24,0
309.1065,309.41144,45,24,0
309.1065,309.41144,48,24,0
309.5131,309.87012,34,31,0
309.87012,310.2271,49,18,0
309.87012,310.2271,53,23,0
309.87012,310.2271,46,18,0
310.2271,310.58414,51,26,0
310.2271,310.58414,48,22,0
310.2271,310.58414,46,22,0
310.58414,311.61935,49,36,0
310.58414,311.61935,46,30,0
311.61935,311.9495,46,30,0
311.61935,311.9495,58,36,0
311.9495,312.1971,65,29,0
311.9495,312.1971,58,25,0
311.9495,312.1971,61,25,0
312.27963,312.52725,61,25,0
312.27963,312.52725,58,25,0
312.27963,312.52725,64,29,0
312.6098,312.8574,58,30,0
312.6098,312.8574,61,30,0
312.6098,312.8574,65,36,0
312.93994,313.18805,58,25,0
312.93994,313.18805,66,29,0
312.93994,313.18805,61,25,0
313.2711,313.54327,58,25,0
313.2711,313.54327,65,29,0
313.2711,313.54327,61,25,0
313.634,313.95926,49,36,0
313.95926,314.2032,61,24,0
313.95926,314.2032,65,28,0
314.28452,314.52844,64,29,0
314.28452,314.52844,61,25,0
314.60977,314.8537,65,31,0
314.60977,314.8537,61,26,0
314.93503,315.1813,66,29,0
314.93503,315.1813,61,25,0
315.26498,315.53946,65,29,0
315.26498,315.53946,61,25,0
315.63095,315.9562,48,36,0
315.9562,316.28146,60,25,0
315.9562,316.28146,65,29,0
315.9562,316.28146,63,25,0
316.28146,316.60672,63,29,0
316.28146,316.60672,60,25,0
316.28146,316.60672,64,25,0
316.60672,316.93198,65,31,0
316.60672,316.93198,63,26,0
316.60672,316.93198,60,26,0
316.93198,317.25723,63,34,0
316.93198,317.25723,60,28,0
317.25723,317.64243,66,36,0
317.25723,317.64243,63,30,0
317.25723,317.64243,60,30,0
317.64243,317.96768,45,45,0
317.96768,318.29294,57,29,0
317.96768,318.29294,60,29,0
317.96768,318.29294,65,35,0
318.29294,318.6182,57,29,0
318.29294,318.6182,64,35,0
318.29294,318.6182,60,29,0
318.6182,318.9319,57,34,0
318.6182,318.9319,65,40,0
318.6182,318.9319,60,34,0
318.9319,319.25735,60,26,0
318.9319,319.25735,66,30,0
318.9319,319.25735,57,26,0
319.25735,319.63266,60,26,0
319.25735,319.63266,65,30,0
319.25735,319.63266,57,26,0
319.63266,319.95557,46,40,0
319.95557,320.27844,61,28,0
319.95557,320.27844,58,28,0
319.95557,320.27844,65,33,0
320.27844,320.60135,64,33,0
320.27844,320.60135,61,28,0
320.27844,320.60135,58,28,0
320.60135,320.8435,61,34,0
320.60135,320.8435,65,40,0
320.60135,320.8435,58,34,0
320.92422,321.1664,58,28,0
320.92422,321.1664,61,28,0
320.92422,321.1664,66,33,0
321.24713,321.5412,58,28,0
321.24713,321.5412,65,33,0
321.24713,321.5412,61,28,0
321.6392,321.96445,42,40,0
321.96445,322.2897,58,27,0
321.96445,322.2897,63,31,0
321.96445,322.2897,54,27,0
322.2897,322.61496,63,33,0
322.2897,322.61496,54,28,0
322.2897,322.61496,57,28,0
322.61496,322.85892,54,29,0
322.61496,322.85892,58,29,0
322.61496,322.85892,63,35,0
322.94022,323.18417,54,29,0
322.94022,323.18417,65,33,0
322.94022,323.18417,58,28,0
323.26547,323.50943,54,29,0
323.26547,323.50943,58,28,0
323.26547,323.50943,63,33,0
323.59073,323.9234,41,41,0
323.59073,323.9234,53,51,0
323.9234,324.25607,61,37,0
323.9234,324.25607,53,30,0
323.9234,324.25607,58,30,0
324.25607,324.619,60,37,0
324.25607,324.619,53,30,0
324.25607,324.619,58,30,0
324.619,324.94424,58,33,0
324.619,324.94424,53,33,0
324.619,324.94424,61,39,0
324.94424,325.2695,63,41,0
324.94424,325.2695,58,35,0
324.94424,325.2695,53,35,0
325.2695,325.66507,58,34,0
325.2695,325.66507,64,40,0
325.2695,325.66507,53,34,0
325.66507,325.98798,41,42,0
325.66507,325.98798,53,50,0
325.98798,326.31085,57,35,0
325.98798,326.31085,65,42,0
325.98798,326.31085,53,35,0
326.31085,326.63376,53,35,0
326.31085,326.63376,64,42,0
326.31085,326.63376,57,35,0
326.63376,326.95663,65,49,0
326.63376,326.95663,53,42,0
326.63376,326.95663,57,42,0
326.95663,327.29205,66,42,0
326.95663,327.29205,57,35,0
326.95663,327.29205,53,35,0
327.29205,327.6739,57,35,0
327.29205,327.6739,53,35,0
327.29205,327.6739,65,42,0
327.6739,327.99677,58,48,0
327.6739,327.99677,46,40,0
327.99677,328.31967,65,38,0
327.99677,328.31967,61,33,0
327.99677,328.31967,58,33,0
328.31967,328.64258,58,33,0
328.31967,328.64258,64,38,0
328.31967,328.64258,61,33,0
328.64258,328.96545,58,40,0
328.64258,328.96545,61,40,0
328.64258,328.96545,65,48,0
328.96545,329.293,66,38,0
328.96545,329.293,61,33,0
328.96545,329.293,58,33,0
329.293,329.6559,61,33,0
329.293,329.6559,65,38,0
329.293,329.6559,58,33,0
329.6559,329.98117,61,48,0
329.6559,329.98117,49,40,0
329.98117,330.30643,61,32,0
329.98117,330.30643,65,37,0
330.30643,330.63168,64,38,0
330.30643,330.63168,61,33,0
330.63168,330.95694,61,34,0
330.63168,330.95694,65,42,0
330.95694,331.2869,61,33,0
330.95694,331.2869,66,38,0
331.2869,331.6498,65,38,0
331.2869,331.6498,61,33,0
331.6498,331.9703,48,48,0
331.9703,332.29083,63,33,0
331.9703,332.29083,65,38,0
331.9703,332.29083,60,33,0
332.29083,332.61133,63,38,0
332.29083,332.61133,60,33,0
332.29083,332.61133,64,33,0
332.61133,332.93185,63,34,0
332.61133,332.93185,65,42,0
332.61133,332.93185,60,34,0
332.93185,333.25235,60,37,0
332.93185,333.25235,63,46,0
333.25235,333.63757,63,40,0
333.25235,333.63757,66,48,0
333.25235,333.63757,60,40,0
333.63757,333.9677,45,60,0
333.9677,334.29785,60,38,0
333.9677,334.29785,57,38,0
333.9677,334.29785,65,47,0
334.29785,334.628,60,38,0
334.29785,334.628,57,38,0
334.29785,334.628,64,47,0
334.628,334.93723,65,50,0
334.628,334.93723,57,42,0
334.628,334.93723,60,42,0
334.93723,335.26047,60,35,0
334.93723,335.26047,57,35,0
334.93723,335.26047,66,40,0
335.26047,335.6264,57,28,0
335.26047,335.6264,60,28,0
335.26047,335.6264,65,33,0
335.6264,335.9493,46,42,0
335.9493,336.27222,61,29,0
335.9493,336.27222,65,34,0
335.9493,336.27222,58,29,0
336.27222,336.5951,64,34,0
336.27222,336.5951,61,29,0
336.27222,336.5951,58,29,0
336.5951,336.83728,58,36,0
336.5951,336.83728,65,42,0
336.5951,336.83728,61,36,0
336.918,337.16016,58,29,0
336.918,337.16016,66,34,0
336.918,337.16016,61,29,0
337.24088,337.5298,65,34,0
337.24088,337.5298,61,29,0
337.24088,337.5298,58,29,0
337.6261,337.95135,52,42,0
337.95135,338.2766,60,28,0
337.95135,338.2766,58,28,0
337.95135,338.2766,67,33,0
338.2766,338.60187,61,25,0
338.2766,338.60187,67,28,0
338.2766,338.60187,58,25,0
338.60187,338.85327,58,26,0
338.60187,338.85327,67,30,0
338.9371,339.1885,67,28,0
338.9371,339.1885,60,25,0
338.9371,339.1885,58,25,0
339.27234,339.56375,61,25,0
339.27234,339.56375,67,28,0
339.27234,339.56375,58,25,0
339.6609,339.99103,53,41,0
339.99103,340.3212,58,24,0
339.99103,340.3212,61,30,0
340.3212,340.703,58,22,0
340.3212,340.703,61,28,0
340.703,340.9525,53,28,0
341.03568,341.2852,57,24,0
341.03568,341.2852,60,24,0
341.36835,341.67053,60,24,0
341.36835,341.67053,57,24,0
341.77124,342.11166,46,31,0
342.11166,342.4521,49,18,0
342.11166,342.4521,53,23,0
342.4521,342.7925,51,26,0
342.4521,342.7925,48,22,0
342.7925,343.30316,46,28,0
342.7925,343.30316,49,31,0
343.85245,344.01508,37,50,0
344.1777,344.47043,49,35,0
344.1777,344.47043,53,35,0
344.1777,344.47043,56,40,0
344.50296,344.7957,49,35,0
344.50296,344.7957,53,35,0
344.50296,344.7957,56,40,0
344.82822,345.12094,53,35,0
344.82822,345.12094,57,50,0
344.82822,345.12094,49,35,0
345.15347,345.44897,53,35,0
345.15347,345.44897,57,40,0
345.15347,345.44897,49,35,0
345.48218,345.8088,49,35,0
345.48218,345.8088,57,40,0
345.48218,345.8088,53,35,0
345.8451,346.00894,42,50,0
346.1728,346.46774,49,35,0
346.1728,346.46774,58,39,0
346.1728,346.46774,54,34,0
346.50052,346.79135,58,40,0
346.50052,346.79544,49,35,0
346.50052,346.79544,54,35,0
346.82822,346.99207,38,44,0
347.1559,347.45364,50,37,0
347.1559,347.45364,56,37,0
347.1559,347.45364,53,37,0
347.1559,347.45364,58,43,0
347.48712,347.81647,58,46,0
347.48712,347.81647,50,40,0
347.48712,347.81647,56,40,0
347.48712,347.81647,53,40,0
347.8531,348.01453,39,62,0
348.17596,348.49887,54,43,0
348.17596,348.49887,58,50,0
348.17596,348.49887,51,43,0
348.49887,348.829,51,43,0
348.49887,348.829,59,50,0
348.49887,348.829,54,43,0
348.829,348.99408,40,55,0
349.15915,349.4893,60,60,0
349.15915,349.4893,58,48,0
349.15915,349.4893,52,48,0
349.15915,349.4893,54,48,0
349.4893,349.88486,52,52,0
349.4893,349.88486,54,52,0
349.4893,349.88486,58,52,0
349.4893,349.88486,61,62,0
349.88486,350.0475,41,78,0
350.2101,350.50284,53,46,0
350.2101,350.50284,58,46,0
350.2101,350.50284,61,57,0
350.53537,350.8281,58,43,0
350.53537,350.8281,61,53,0
350.53537,350.8281,53,43,0
350.86063,351.14493,60,52,0
350.86063,351.14493,53,44,0
350.86063,351.14493,57,44,0
351.17654,351.4694,53,34,0
351.17654,351.4694,57,34,0
351.17654,351.4694,60,39,0
351.5031,351.845,60,33,0
351.5031,351.8498,57,28,0
351.5031,351.8498,53,28,0
351.88834,352.2112,45,52,0
352.2112,352.53412,57,25,0
352.2112,352.53412,53,25,0
352.2112,352.53412,60,30,0
352.53412,352.857,52,25,0
352.53412,352.857,57,25,0
352.53412,352.857,60,30,0
352.857,353.1799,57,25,0
352.857,353.1799,60,30,0
352.857,353.1799,53,25,0
353.1799,353.50278,62,30,0
353.1799,353.50278,53,25,0
353.1799,353.50278,57,25,0
353.50278,353.82568,60,30,0
353.50278,353.82568,53,25,0
353.50278,353.82568,57,25,0
353.82568,354.1486,46,44,0
354.1486,354.47147,54,25,0
354.1486,354.47147,63,30,0
354.1486,354.47147,57,25,0
354.47147,354.79437,54,25,0
354.47147,354.79437,57,25,0
354.47147,354.79437,62,30,0
354.79437,355.10144,55,25,0
354.79437,355.10144,62,30,0
354.79437,355.10144,58,25,0
355.10144,355.4085,57,25,0
355.10144,355.4085,60,25,0
355.10144,355.4085,62,30,0
355.4085,355.74893,58,25,0
355.4085,355.74893,62,30,0
355.74893,356.04767,48,40,0
356.04767,356.31653,60,33,0
356.04767,356.31653,57,28,0
356.3464,356.64352,60,32,0
356.3464,356.64352,57,27,0
356.67654,356.97324,48,39,0
356.97324,357.24026,55,27,0
356.97324,357.24026,58,27,0
356.97324,357.24026,60,32,0
357.26993,357.56488,55,27,0
357.26993,357.56488,58,27,0
357.26993,357.56488,60,32,0
357.59763,357.89236,41,40,0
357.89236,358.18707,60,32,0
357.89236,358.18707,57,27,0
357.89236,358.18707,53,27,0
358.18707,358.40814,53,32,0
358.4818,358.70285,53,34,0
358.4818,358.77655,51,40,0
358.77655,358.9976,53,37,0
358.77655,359.07126,49,44,0
359.07126,359.3412,53,40,0
359.07126,359.43115,48,48,0
359.43115,359.59378,30,42,0
359.43115,359.59378,42,50,0
359.7564,360.08167,46,37,0
359.7564,360.08167,49,44,0
359.7564,360.08167,42,37,0
360.08167,360.40692,46,37,0
360.08167,360.40692,48,44,0
360.08167,360.40692,42,37,0
360.40692,360.73218,46,43,0
360.40692,360.73218,49,51,0
360.40692,360.73218,42,43,0
360.73218,361.0609,51,45,0
360.73218,361.0609,46,38,0
360.73218,361.0609,42,38,0
361.0609,361.4122,42,38,0
361.0609,361.4122,46,38,0
361.0609,361.4122,49,45,0
361.4122,361.57367,41,51,0
361.4122,361.57367,29,43,0
361.7351,362.05798,41,36,0
361.7351,362.05798,49,43,0
361.7351,362.05798,46,36,0
362.05798,362.3809,46,36,0
362.05798,362.3809,48,43,0
362.05798,362.3809,41,36,0
362.3809,362.7038,49,51,0
362.3809,362.7038,46,43,0
362.3809,362.7038,41,43,0
362.7038,363.03256,46,39,0
362.7038,363.03256,51,46,0
362.7038,363.03256,41,39,0
363.03256,363.39853,46,39,0
363.03256,363.39853,41,39,0
363.03256,363.39853,49,46,0
363.39853,363.55997,38,51,0
363.72144,364.0443,53,34,0
363.72144,364.0443,56,41,0
363.72144,364.0443,50,34,0
364.0443,364.36722,53,35,0
364.0443,364.36722,57,41,0
364.0443,364.36722,50,35,0
364.36722,364.6743,53,40,0
364.36722,364.6743,50,40,0
364.36722,364.6743,58,47,0
364.6743,364.98135,56,52,0
364.6743,364.98135,53,44,0
364.6743,364.98135,50,44,0
364.98135,365.36993,59,57,0
364.98135,365.36993,56,48,0
364.98135,365.36993,50,48,0
364.98135,365.36993,53,48,0
365.36993,365.53378,39,62,0
365.69766,366.02536,54,34,0
365.69766,366.02536,58,41,0
365.69766,366.02536,51,34,0
366.02536,366.35306,57,41,0
366.02536,366.35306,54,34,0
366.02536,366.35306,51,34,0
366.35306,366.69348,58,49,0
366.35306,366.69348,54,41,0
366.35306,366.69348,51,41,0
366.69348,367.03235,59,40,0
366.69348,367.03235,51,34,0
366.69348,367.03235,54,34,0
367.03235,367.39526,51,34,0
367.03235,367.39526,58,40,0
367.03235,367.39526,54,34,0
367.39526,367.71814,46,40,0
367.71814,368.00876,58,33,0
367.71814,368.00876,54,23,0
368.04105,368.33163,58,33,0
368.04105,368.33163,54,23,0
368.36392,368.65454,54,28,0
368.36392,368.65454,58,40,0
368.68683,368.97742,54,23,0
368.68683,368.97742,58,33,0
369.0097,369.39154,54,23,0
369.0097,369.39154,58,23,0
369.0097,369.39154,60,33,0
369.39154,369.71924,41,40,0
369.71924,370.0142,53,22,0
369.71924,370.0142,61,31,0
369.71924,370.0142,58,22,0
370.04697,370.3419,53,23,0
370.04697,370.3419,58,23,0
370.04697,370.3419,61,33,0
370.37466,370.6696,53,24,0
370.37466,370.6696,58,24,0
370.37466,370.6696,61,35,0
370.70236,370.9973,61,33,0
370.70236,370.9973,52,24,0
370.70236,370.9973,58,23,0
371.0301,371.325,61,33,0
371.0301,371.325,58,23,0
371.0301,371.325,53,24,0
371.3578,371.69556,40,45,0
371.69556,371.99957,52,33,0
371.69556,371.99957,58,33,0
371.69556,371.99957,61,38,0
371.69556,371.99957,54,33,0
372.03336,372.35995,52,29,0
372.03336,372.35995,58,29,0
372.03336,372.35995,54,29,0
372.03336,372.35995,60,35,0
372.39627,372.72153,41,39,0
372.72153,373.04678,66,33,0
372.72153,373.04678,57,28,0
372.72153,373.04678,53,28,0
372.72153,373.04678,60,28,0
373.04678,373.44598,65,33,0
373.04678,373.44598,53,28,0
373.04678,373.44598,60,28,0
373.04678,373.44598,63,28,0
373.44598,373.77863,46,42,0
373.77863,374.09482,61,28,0
373.77863,374.09482,65,33,0
373.77863,374.09482,53,28,0
374.12994,374.50995,60,28,0
374.12994,374.50995,63,33,0
374.12994,374.50995,53,28,0
374.55215,375.14597,61,40,0
374.55215,375.15097,58,34,0
374.55215,375.15097,53,34,0
375.69708,375.86343,37,50,0
376.02975,376.32916,56,40,0
376.02975,376.32916,49,35,0
376.02975,376.32916,53,35,0
376.36243,376.66183,53,35,0
376.36243,376.66183,56,40,0
376.36243,376.66183,49,35,0
376.6951,376.9945,57,50,0
376.6951,376.9945,53,35,0
376.6951,376.9945,49,35,0
377.02777,377.32697,57,40,0
377.02777,377.32697,49,35,0
377.02777,377.32697,53,35,0
377.3602,377.6868,53,35,0
377.3602,377.6868,49,35,0
377.3602,377.6868,57,40,0
377.72308,377.88696,42,50,0
378.0508,378.34573,58,39,0
378.0508,378.34573,54,34,0
378.0508,378.34573,49,35,0
378.3785,378.66934,58,40,0
378.3785,378.67346,54,35,0
378.3785,378.67346,49,35,0
378.7062,378.8701,38,44,0
379.03394,379.35526,56,37,0
379.03394,379.35526,50,37,0
379.03394,379.35526,53,37,0
379.03394,379.35526,58,43,0
379.39093,379.71225,58,46,0
379.39093,379.71225,53,40,0
379.39093,379.71225,56,40,0
379.39093,379.71225,50,40,0
379.74796,379.90256,39,62,0
380.05716,380.3664,51,43,0
380.05716,380.3664,54,43,0
380.05716,380.3664,58,50,0
380.3664,380.6869,59,50,0
380.3664,380.6869,54,43,0
380.3664,380.6869,51,43,0
380.6869,380.84717,40,55,0
381.00742,381.3279,54,48,0
381.00742,381.3279,58,48,0
381.00742,381.3279,60,60,0
381.00742,381.3279,52,48,0
381.3279,381.7422,58,52,0
381.3279,381.7422,61,62,0
381.3279,381.7422,52,52,0
381.3279,381.7422,54,52,0
381.7422,381.90604,41,78,0
382.0699,382.3648,58,46,0
382.0699,382.3648,53,46,0
382.0699,382.3648,61,57,0
382.39758,382.69254,58,43,0
382.39758,382.69254,61,53,0
382.39758,382.69254,53,43,0
382.7253,383.0096,60,52,0
382.7253,383.0096,53,44,0
382.7253,383.0096,57,44,0
383.0412,383.33408,53,34,0
383.0412,383.33408,60,39,0
383.0412,383.33408,57,34,0
383.3678,383.70377,60,33,0
383.3678,383.7085,57,28,0
383.3678,383.7085,53,28,0
383.74637,384.06924,45,52,0
384.06924,384.35986,60,30,0
384.06924,384.35986,57,25,0
384.06924,384.35986,53,25,0
384.39215,384.68274,60,30,0
384.39215,384.68274,57,25,0
384.39215,384.68274,52,25,0
384.71506,385.00565,53,25,0
384.71506,385.00565,57,25,0
384.71506,385.00565,60,30,0
385.03793,385.32855,62,30,0
385.03793,385.32855,57,25,0
385.03793,385.32855,53,25,0
385.36084,385.65143,53,25,0
385.36084,385.65143,60,30,0
385.36084,385.65143,57,25,0
385.68372,386.00662,46,44,0
386.00662,386.2972,57,25,0
386.00662,386.2972,63,30,0
386.00662,386.2972,54,25,0
386.3295,386.62012,57,25,0
386.3295,386.62012,54,25,0
386.3295,386.62012,62,30,0
386.6524,386.92877,62,30,0
386.6524,386.92877,55,25,0
386.6524,386.92877,58,25,0
386.95947,387.23584,57,25,0
386.95947,387.23584,62,30,0
386.95947,387.23584,60,25,0
387.26657,387.57294,62,30,0
387.26657,387.57294,58,25,0
387.607,387.9057,48,40,0
387.9057,388.17456,60,33,0
387.9057,388.17456,57,28,0
388.20444,388.49716,60,32,0
388.20444,388.49716,57,27,0
388.5297,388.83463,48,39,0
388.83463,389.10907,58,27,0
388.83463,389.10907,55,27,0
388.83463,389.10907,60,32,0
389.13956,389.43668,55,27,0
389.13956,389.43668,58,27,0
389.13956,389.43668,60,32,0
389.4697,389.7644,41,40,0
389.7644,390.05914,60,32,0
389.7644,390.05914,57,27,0
389.7644,390.05914,53,27,0
390.05914,390.37735,53,32,0
390.37735,390.5984,53,34,0
390.37735,390.6721,51,40,0
390.6721,390.89313,53,37,0
390.6721,390.9668,49,44,0
390.9668,391.2483,53,40,0
390.9668,391.3421,48,48,0
391.3421,391.50595,42,50,0
391.3421,391.50595,30,42,0
391.66983,391.96475,42,37,0
391.66983,391.96475,46,37,0
391.66983,391.96475,49,44,0
391.99753,392.29245,46,37,0
391.99753,392.29245,42,37,0
391.99753,392.29245,48,44,0
392.32523,392.62018,42,43,0
392.32523,392.62018,46,43,0
392.32523,392.62018,49,51,0
392.65295,392.94968,46,38,0
392.65295,392.94968,42,38,0
392.65295,392.94968,51,45,0
392.98288,393.3095,46,38,0
392.98288,393.3095,49,45,0
392.98288,393.3095,42,38,0
393.3458,393.50842,29,43,0
393.3458,393.50842,41,51,0
393.67105,393.96378,49,43,0
393.67105,393.96378,46,36,0
393.67105,393.96378,41,36,0
393.9963,394.28903,48,43,0
393.9963,394.28903,46,36,0
393.9963,394.28903,41,36,0
394.32156,394.6143,41,43,0
394.32156,394.6143,46,43,0
394.32156,394.6143,49,51,0
394.64682,394.9433,46,39,0
394.64682,394.9433,41,39,0
394.64682,394.9433,51,46,0
394.97678,395.3034,49,46,0
394.97678,395.3034,46,39,0
394.97678,395.3034,41,39,0
395.3397,395.50232,38,51,0
395.66495,395.95767,56,41,0
395.66495,395.95767,50,34,0
395.66495,395.95767,53,34,0
395.9902,396.28293,50,35,0
395.9902,396.28293,57,41,0
395.9902,396.28293,53,35,0
396.31546,396.59778,58,47,0
396.31546,396.59778,50,40,0
396.31546,396.59778,53,40,0
396.62912,396.91144,53,44,0
396.62912,396.91144,50,44,0
396.62912,396.91144,56,52,0
396.9428,397.28644,53,48,0
396.9428,397.28644,56,48,0
396.9428,397.28644,50,48,0
396.9428,397.28644,59,57,0
397.32465,397.4885,39,62,0
397.65234,397.94727,58,41,0
397.65234,397.94727,54,34,0
397.65234,397.94727,51,34,0
397.98004,398.275,57,41,0
397.98004,398.275,54,34,0
397.98004,398.275,51,34,0
398.30777,398.6214,54,41,0
398.30777,398.6214,58,49,0
398.30777,398.6214,51,41,0
398.65625,398.9654,51,34,0
398.65625,398.9654,54,34,0
398.65625,398.9654,59,40,0
398.99915,399.33984,51,34,0
398.99915,399.33984,58,40,0
398.99915,399.33984,54,34,0
399.37772,399.70786,46,40,0
399.70786,400.00497,58,33,0
399.70786,400.00497,54,23,0
400.038,400.3351,54,23,0
400.038,400.3351,58,33,0
400.36813,400.66525,54,28,0
400.36813,400.66525,58,40,0
400.69827,400.9954,58,33,0
400.69827,400.9954,54,23,0
401.0284,401.37814,54,23,0
401.0284,401.37814,58,23,0
401.0284,401.37814,60,33,0
401.417,401.74713,41,40,0
401.74713,402.04425,61,31,0
401.74713,402.04425,53,22,0
401.74713,402.04425,58,22,0
402.07727,402.3744,53,23,0
402.07727,402.3744,61,33,0
402.07727,402.3744,58,23,0
402.4074,402.70456,61,35,0
402.4074,402.70456,58,24,0
402.4074,402.70456,53,24,0
402.73755,403.0347,58,23,0
402.73755,403.0347,52,24,0
402.73755,403.0347,61,33,0
403.0677,403.36484,53,24,0
403.0677,403.36484,61,33,0
403.0677,403.36484,58,23,0
403.39783,403.73306,40,45,0
403.73306,404.0348,58,33,0
403.73306,404.0348,54,33,0
403.73306,404.0348,61,38,0
403.73306,404.0348,52,33,0
404.0683,404.4061,52,29,0
404.0683,404.4061,54,29,0
404.0683,404.4061,58,29,0
404.0683,404.4061,60,35,0
404.4436,404.77133,41,39,0
404.77133,405.06625,60,28,0
404.77133,405.06625,66,33,0
404.77133,405.06625,57,28,0
404.77133,405.06625,53,28,0
405.09903,405.46164,60,28,0
405.09903,405.46164,63,28,0
405.09903,405.46164,53,28,0
405.09903,405.46164,65,33,0
405.50192,405.82718,46,42,0
405.82718,406.1384,61,33,0
405.82718,406.1384,58,28,0
405.82718,406.1384,53,28,0
406.17297,406.49957,60,33,0
406.17297,406.49957,53,28,0
406.17297,406.49957,57,28,0
406.5359,406.83987,61,38,0
406.5359,406.83987,58,38,0
406.5359,406.83987,53,38,0
406.87366,407.17746,65,26,0
406.87366,407.17746,53,26,0
406.87366,407.17746,61,26,0
407.21118,407.5325,61,22,0
407.21118,407.5325,58,22,0
407.21118,407.5325,53,22,0
407.5682,407.8959,40,40,0
407.8959,408.19086,55,23,0
407.8959,408.19086,58,23,0
407.8959,408.19086,52,23,0
407.8959,408.19086,61,33,0
408.2236,408.55133,52,27,0
408.2236,408.55133,58,27,0
408.2236,408.55133,60,27,0
408.2236,408.55133,55,27,0
408.55133,408.87903,41,31,0
408.87903,409.17398,60,26,0
408.87903,409.17398,53,22,0
408.87903,409.17398,57,22,0
409.20673,409.54453,60,22,0
409.20673,409.54453,63,26,0
409.20673,409.54453,53,22,0
409.58203,409.9073,41,35,0
409.9073,410.20004,61,29,0
409.9073,410.20004,58,24,0
409.9073,410.20004,53,24,0
410.23254,410.52527,57,24,0
410.23254,410.52527,53,24,0
410.23254,410.52527,60,29,0
410.5578,410.9045,61,35,0
410.5578,410.9045,53,20,0
410.5578,410.9045,58,20,0
410.94302,411.26172,61,25,0
410.94302,411.26172,65,30,0
410.94302,411.26172,53,25,0
411.29712,411.6158,61,30,0
411.29712,411.6158,53,25,0
411.29712,411.6158,58,25,0
411.65125,411.989,42,31,0
411.989,412.29303,54,26,0
411.989,412.29303,58,31,0
412.32678,412.69962,60,32,0
412.32678,412.69962,54,27,0
412.32678,412.69962,58,27,0
412.74106,413.09235,41,38,0
413.09235,413.40854,57,25,0
413.09235,413.40854,53,20,0
413.09235,413.40854,60,29,0
413.44366,413.82364,60,22,0
413.44366,413.82364,63,27,0
413.44366,413.82364,53,22,0
413.86588,414.27246,34,35,0
414.27246,414.71158,61,22,0
414.27246,414.71158,53,18,0
414.27246,414.71158,58,18,0
414.76038,415.3685,53,18,0
414.76038,415.3685,61,18,0
414.76038,415.3685,65,22,0
415.43607,416.96823,61,22,0
415.43607,416.96823,53,18,0
415.43607,416.96823,58,19,0
417.41632,417.7392,42,38,0
417.7392,417.8468,49,31,0
417.8468,418.58606,58,42,0
418.58606,418.68896,54,29,0
418.68896,419.5132,58,39,0
419.5132,419.93274,54,34,0
419.93274,420.35226,49,34,0
420.35226,420.7669,46,34,0
420.7669,421.09192,41,45,0
421.09192,421.20026,49,36,0
421.20026,421.94626,59,45,0
421.94626,422.05048,56,37,0
422.05048,422.88428,59,46,0
422.88428,423.2884,56,38,0
423.2884,423.69247,53,38,0
423.69247,424.09595,49,39,0
424.09595,424.42313,42,50,0
424.42313,424.5322,49,40,0
424.5322,425.2772,58,50,0
425.2772,425.38013,54,40,0
425.38013,426.18335,58,50,0
426.18335,426.5754,56,40,0
426.5754,426.96744,51,40,0
426.96744,427.37796,56,40,0
425.78174,427.37796,47,40,0
427.37796,427.77,56,52,0
427.77,428.16205,60,44,0
427.37796,428.16205,48,44,0
428.16205,428.55423,63,49,0
428.55423,428.95117,66,55,0
428.16205,428.95117,56,41,0
428.95117,429.3341,65,57,0
429.3341,429.7431,68,53,0
429.7431,430.12833,70,58,0
430.12833,430.52753,71,62,0
428.95117,430.52753,61,48,0
430.52753,430.7308,42,55,0
430.7308,430.93408,58,50,0
430.93408,431.1278,49,50,0
431.1278,431.32153,58,50,0
431.32153,431.50867,54,59,0
431.50867,431.69577,58,50,0
431.69577,431.8829,49,50,0
431.8829,432.07004,58,50,0
432.07004,432.25714,42,59,0
432.25714,432.44427,58,50,0
432.44427,432.63248,49,50,0
432.63248,432.82065,58,50,0
432.82065,433.00882,54,59,0
433.00882,433.19702,58,49,0
433.19702,433.39304,49,49,0
433.39304,433.58905,58,49,0
433.58905,433.79492,41,55,0
433.79492,434.00076,59,50,0
434.00076,434.1911,49,50,0
434.1911,434.38147,59,50,0
434.38147,434.5718,56,59,0
434.5718,434.76218,59,50,0
434.76218,434.95255,49,50,0
434.95255,435.14288,59,50,0
435.14288,435.33325,41,59,0
435.33325,435.5236,59,50,0
435.5236,435.71286,49,50,0
435.71286,435.90216,59,50,0
435.90216,436.0882,56,59,0
436.0882,436.27426,59,49,0
436.27426,436.468,49,49,0
436.468,436.6617,59,49,0
436.6617,436.87015,42,50,0
436.87015,437.0786,58,42,0
437.0786,437.27008,49,42,0
437.27008,437.46155,58,42,0
437.46155,437.653,54,54,0
437.653,437.8445,58,46,0
437.8445,438.03598,49,42,0
438.03598,438.22745,58,42,0
438.22745,438.4189,36,52,0
438.4189,438.61038,48,39,0
438.61038,438.7954,51,39,0
438.7954,438.98044,48,39,0
438.98044,439.16547,56,51,0
439.16547,439.3505,48,33,0
439.3505,439.55255,57,33,0
439.55255,439.75458,48,33,0
439.75458,439.95062,37,44,0
439.95062,440.14664,49,34,0
440.14664,440.3359,53,35,0
440.3359,440.52518,49,35,0
440.52518,440.71448,56,35,0
440.71448,440.90375,49,31,0
440.90375,441.1083,59,31,0
441.1083,441.31284,49,31,0
441.31284,441.51245,42,35,0
441.51245,441.71207,49,29,0
441.71207,441.91165,58,29,0
441.91165,442.11127,54,29,0
442.11127,442.3224,49,35,0
442.3224,442.53348,54,31,0
442.53348,442.76062,49,31,0
442.76062,442.98776,46,31,0
442.98776,443.30646,42,45,0
443.30646,443.4127,49,37,0
443.4127,444.1407,58,50,0
444.1407,444.2417,54,34,0
444.2417,445.0499,58,46,0
445.0499,445.4668,54,40,0
445.4668,445.85425,49,40,0
445.85425,446.27155,46,40,0
446.27155,446.5822,41,54,0
446.5822,446.6858,49,43,0
446.6858,447.40497,59,54,0
447.40497,447.5066,56,44,0
447.5066,448.3197,59,55,0
448.3197,448.7189,56,45,0
448.7189,449.10867,53,45,0
449.10867,449.53152,49,46,0
449.53152,449.84616,42,60,0
449.84616,449.95102,49,48,0
449.95102,450.66638,58,60,0
450.66638,450.76498,54,48,0
450.76498,451.55383,58,60,0
451.55383,451.93903,56,48,0
451.93903,452.32425,51,48,0
452.32425,452.74692,56,48,0
451.1594,452.74692,47,48,0
452.74692,453.12546,56,57,0
453.12546,453.50403,60,48,0
452.74692,453.50403,48,48,0
453.50403,453.8888,63,53,0
453.8888,454.28836,66,60,0
453.50403,454.28836,56,45,0
454.28836,454.67133,65,62,0
454.67133,455.0686,68,58,0
455.0686,455.44714,70,63,0
455.44714,455.84393,71,68,0
454.28836,455.84393,61,52,0
455.84393,456.046,42,60,0
456.046,456.24802,58,55,0
456.24802,456.44406,49,55,0
456.44406,456.64008,58,55,0
456.64008,456.82825,54,64,0
456.82825,457.01645,58,55,0
457.01645,457.20462,49,55,0
457.20462,457.3928,58,55,0
457.3928,457.581,42,64,0
457.581,457.76917,58,55,0
457.76917,457.94913,49,55,0
457.94913,458.1291,58,55,0
458.1291,458.30905,54,64,0
458.30905,458.489,58,53,0
458.489,458.68506,49,53,0
458.68506,458.88107,58,53,0
458.88107,459.08435,41,60,0
459.08435,459.28763,59,55,0
459.28763,459.48026,49,55,0
459.48026,459.67285,59,55,0
459.67285,459.86545,56,64,0
459.86545,460.05804,59,55,0
460.05804,460.25067,49,55,0
460.25067,460.44327,59,55,0
460.44327,460.63586,41,64,0
460.63586,460.82846,59,55,0
460.82846,461.01144,49,55,0
461.01144,461.19443,59,55,0
461.19443,461.37738,56,64,0
461.37738,461.56036,59,53,0
461.56036,461.75757,49,53,0
461.75757,461.95477,59,53,0
461.95477,462.1619,42,55,0
462.1619,462.36902,58,46,0
462.36902,462.56052,49,45,0
462.56052,462.75198,58,45,0
462.75198,462.94345,54,52,0
462.94345,463.13492,58,44,0
463.13492,463.3264,49,40,0
463.3264,463.51788,58,40,0
463.51788,463.70935,36,54,0
463.70935,463.90082,48,40,0
463.90082,464.0848,51,40,0
464.0848,464.26877,48,40,0
464.26877,464.45276,56,52,0
464.45276,464.63675,48,33,0
464.63675,464.83755,57,33,0
464.83755,465.03836,48,33,0
465.03836,465.255,37,44,0
465.255,465.47168,49,34,0
465.47168,465.66428,53,35,0
465.66428,465.8569,49,35,0
465.8569,466.0495,56,35,0
466.0495,466.2421,49,31,0
466.2421,466.44666,59,31,0
466.44666,466.6512,49,31,0
466.6512,466.8508,42,35,0
466.8508,467.0504,49,29,0
467.0504,467.25,58,29,0
467.25,467.44962,54,29,0
467.44962,467.66208,49,35,0
467.66208,467.87454,54,31,0
467.87454,468.09558,49,31,0
468.09558,468.31662,46,31,0
468.71823,469.40704,58,72,0
468.61783,469.40704,46,60,0
469.50278,470.24963,58,73,0
469.40704,470.24963,46,63,0
470.24963,470.54367,42,46,0
470.24963,470.54367,54,55,0
470.6417,470.9289,51,59,0
470.6417,470.9289,39,50,0
471.02463,471.30548,46,52,0
471.02463,471.30548,34,44,0
471.78006,472.45303,58,72,0
471.6832,472.45303,46,60,0
472.54822,472.92892,57,73,0
472.45303,472.92892,45,63,0
472.92892,473.28116,56,73,0
472.92892,473.28116,44,59,0
473.28116,473.5667,51,55,0
473.28116,473.5667,39,46,0
473.66187,473.93784,48,59,0
473.66187,473.93784,36,50,0
474.02985,474.33493,42,52,0
474.02985,474.33493,30,44,0
474.444,474.65112,41,57,0
474.65112,474.85825,53,34,0
474.85825,475.05197,44,29,0
474.85825,475.05197,49,35,0
475.05197,475.2457,53,35,0
475.2457,475.4394,43,39,0
475.4394,475.63312,53,35,0
475.63312,475.82684,49,35,0
475.63312,475.82684,44,29,0
475.82684,476.02057,53,35,0
476.02057,476.2015,42,39,0
476.2015,476.38245,51,34,0
476.38245,476.57175,46,28,0
476.38245,476.57175,49,34,0
476.57175,476.76102,51,34,0
476.76102,476.9503,45,38,0
476.9503,477.13956,54,34,0
477.13956,477.33676,49,34,0
477.13956,477.33676,46,28,0
477.33676,477.53397,54,34,0
477.53397,477.73984,44,44,0
477.73984,477.94568,56,34,0
477.94568,478.14056,53,35,0
477.94568,478.14056,49,29,0
478.14056,478.33545,56,35,0
478.33545,478.5303,44,35,0
478.5303,478.7252,56,31,0
478.7252,478.9323,54,31,0
478.7252,478.9323,48,26,0
478.9323,479.13943,56,31,0
479.13943,479.3605,37,35,0
479.3605,479.58154,49,26,0
479.58154,479.79678,53,22,0
479.58154,479.79678,56,26,0
479.79678,480.01202,49,26,0
480.01202,480.23758,54,31,0
480.01202,480.23758,58,37,0
480.23758,480.46313,49,30,0
480.46313,480.6984,56,25,0
480.46313,480.6984,59,30,0
480.6984,480.93365,49,30,0
480.93365,481.23123,42,45,0
481.23123,481.3304,49,37,0
481.3304,482.0144,58,50,0
482.0144,482.11014,54,34,0
482.11014,482.86734,58,46,0
482.86734,483.2594,54,45,0
483.2594,483.63364,49,49,0
483.63364,484.0483,46,52,0
484.0483,484.27017,35,54,0
484.34412,484.44275,47,60,0
484.44275,485.12436,51,66,0
485.12436,485.2201,47,59,0
485.2201,485.96695,51,70,0
485.96695,486.25586,48,62,0
486.35217,486.63443,45,53,0
486.72852,487.03766,36,51,0
487.146,487.35056,51,50,0
487.35056,487.5551,60,42,0
487.5551,487.74658,57,42,0
487.5551,487.74658,54,42,0
487.74658,487.93805,60,42,0
487.93805,488.12308,53,54,0
488.12308,488.3081,60,46,0
488.3081,488.49313,57,42,0
488.3081,488.49313,54,42,0
488.49313,488.67816,60,42,0
488.67816,488.8632,49,52,0
488.8632,489.04822,61,39,0
489.04822,489.23117,58,39,0
489.04822,489.23117,54,39,0
489.23117,489.41415,61,39,0
489.41415,489.5971,53,51,0
489.5971,489.7801,61,33,0
489.7801,489.98215,54,33,0
489.7801,489.98215,58,33,0
489.98215,490.18417,61,33,0
490.18417,490.33856,37,44,0
490.39005,490.5959,49,34,0
490.5959,490.79077,53,35,0
490.79077,490.98566,49,35,0
490.98566,491.1805,56,35,0
491.1805,491.3754,49,31,0
491.3754,491.58386,59,31,0
491.58386,491.7923,49,31,0
491.7923,491.93933,42,35,0
491.98834,492.18436,49,29,0
492.18436,492.38037,58,29,0
492.38037,492.57642,54,29,0
492.57642,492.78616,49,35,0
492.78616,492.99594,54,31,0
492.99594,493.21997,49,31,0
493.21997,493.44403,46,31,0
493.84564,494.53278,58,72,0
493.74524,494.53278,46,60,0
494.62796,495.3666,58,73,0
494.53278,495.3666,46,63,0
495.3666,495.65552,54,55,0
495.3666,495.65552,42,46,0
495.75183,496.0341,51,59,0
495.75183,496.0341,39,50,0
496.12817,496.40933,46,52,0
496.12817,496.40933,34,44,0
496.88528,497.55994,58,72,0
496.78842,497.55994,46,60,0
497.65567,498.03864,57,73,0
497.55994,498.03864,45,63,0
498.03864,498.39273,56,73,0
498.03864,498.39273,44,65,0
498.39273,498.68332,51,55,0
498.39273,498.68332,39,46,0
498.78018,499.06247,48,59,0
498.78018,499.06247,36,50,0
499.15656,499.46838,30,44,0
499.15656,499.46838,42,52,0
499.57816,499.78143,41,57,0
499.78143,499.9847,53,34,0
499.9847,500.1773,44,29,0
499.9847,500.1773,49,35,0
500.1773,500.3699,53,35,0
500.3699,500.56253,43,39,0
500.56253,500.75513,53,35,0
500.75513,500.94772,44,29,0
500.75513,500.94772,49,35,0
500.94772,501.14032,53,35,0
501.14032,501.3203,42,39,0
501.3203,501.50027,51,34,0
501.50027,501.6906,49,34,0
501.50027,501.6906,46,28,0
501.6906,501.88098,51,34,0
501.88098,502.07132,45,38,0
502.07132,502.2617,54,34,0
502.2617,502.46008,49,34,0
502.2617,502.46008,46,28,0
502.46008,502.65845,54,34,0
502.65845,502.86823,44,44,0
502.86823,503.07797,56,34,0
503.07797,503.27402,49,29,0
503.07797,503.27402,53,35,0
503.27402,503.47003,56,35,0
503.47003,503.66605,44,35,0
503.66605,503.8621,56,31,0
503.8621,504.07184,54,31,0
503.8621,504.07184,48,26,0
504.07184,504.28162,56,31,0
504.28162,504.49973,37,35,0
504.49973,504.71783,49,26,0
504.71783,504.9263,53,22,0
504.71783,504.9263,56,26,0
504.9263,505.13474,49,26,0
505.13474,505.3543,58,37,0
505.13474,505.3543,54,31,0
505.3543,505.57385,49,30,0
505.57385,505.80417,56,25,0
505.57385,505.80417,59,30,0
505.80417,506.0345,49,30,0
506.0345,506.33566,42,45,0
506.33566,506.43607,49,37,0
506.43607,507.12827,58,50,0
507.12827,507.22513,54,34,0
507.22513,507.98053,58,46,0
507.98053,508.3635,54,45,0
508.3635,508.72943,49,49,0
508.72943,509.13757,46,52,0
509.13757,509.43698,35,54,0
509.43698,509.53677,47,60,0
509.53677,510.2215,51,66,0
510.2215,510.31668,47,59,0
510.31668,511.06537,51,70,0
511.06537,511.45743,48,62,0
511.45743,511.82745,45,53,0
511.82745,512.2454,36,51,0
512.2454,512.44745,51,50,0
512.44745,512.6495,60,42,0
512.6495,512.84436,57,42,0
512.6495,512.84436,54,42,0
512.84436,513.03925,60,42,0
513.03925,513.2274,53,54,0
513.2274,513.41565,60,46,0
513.41565,513.6038,54,42,0
513.41565,513.6038,57,42,0
513.6038,513.792,60,42,0
513.792,513.98016,49,52,0
513.98016,514.16833,61,39,0
514.16833,514.35443,58,39,0
514.16833,514.35443,54,39,0
514.35443,514.54047,61,39,0
514.54047,514.72656,53,51,0
514.72656,514.9126,61,33,0
514.9126,515.11584,58,33,0
514.9126,515.11584,54,33,0
515.11584,515.31915,61,33,0
515.31915,515.4662,37,44,0
515.5152,515.7112,49,34,0
515.7112,515.90265,53,35,0
515.90265,516.0942,49,35,0
516.0942,516.28564,56,35,0
516.28564,516.4771,49,31,0
516.4771,516.68164,59,31,0
516.68164,516.8862,49,31,0
516.8862,517.0368,42,35,0
517.08704,517.28784,58,29,0
517.28784,517.4886,49,29,0
517.4886,517.6894,58,29,0
517.6894,517.90186,54,35,0
517.90186,518.1143,58,31,0
518.1143,518.34467,49,31,0
518.34467,518.57495,58,31,0
518.57495,518.7265,37,44,0
518.77704,518.97906,59,32,0
518.97906,519.17395,53,32,0
518.97906,519.17395,49,27,0
519.17395,519.36884,59,32,0
519.36884,519.5637,50,29,0
519.36884,519.5637,53,35,0
519.5637,519.7586,59,31,0
519.7586,519.9683,53,31,0
519.7586,519.9683,49,26,0
519.9683,520.1781,59,31,0
520.1781,520.32874,42,35,0
520.3789,520.5797,58,29,0
520.5797,520.7805,49,29,0
520.7805,520.9813,58,29,0
520.9813,521.19653,54,35,0
521.19653,521.4118,58,30,0
521.4118,521.6405,49,30,0
521.6405,521.8692,58,30,0
521.8692,522.0207,37,44,0
522.0712,522.27325,59,30,0
522.27325,522.4693,53,30,0
522.27325,522.4693,49,30,0
522.4693,522.66534,59,30,0
522.66534,522.8614,53,35,0
522.66534,522.8614,50,29,0
522.8614,523.0574,59,29,0
523.0574,523.2607,49,29,0
523.0574,523.2607,53,29,0
523.2607,523.4639,59,31,0
523.4639,523.6174,42,35,0
523.6685,523.87305,58,29,0
523.87305,524.07764,49,29,0
524.07764,524.28217,58,29,0
524.28217,524.49603,54,35,0
524.49603,524.7099,58,29,0
524.7099,524.9435,49,29,0
524.9435,525.177,58,29,0
525.177,525.32764,42,35,0
525.3778,525.5786,58,28,0
525.5786,525.7794,49,28,0
525.7794,525.9802,58,28,0
525.9802,526.1874,54,35,0
526.1874,526.3945,58,31,0
526.3945,526.61115,49,31,0
526.61115,526.8278,58,31,0
526.8278,526.98224,42,40,0
527.0337,527.2395,58,36,0
527.2395,527.4454,49,36,0
527.4454,527.6512,58,36,0
527.6512,527.8708,54,35,0
527.8708,528.09033,58,31,0
528.09033,528.3307,49,31,0
528.3307,528.5711,58,31,0
528.5711,528.7315,41,35,0
528.785,528.9988,58,28,0
528.9988,529.21265,50,28,0
529.21265,529.4265,58,28,0
529.4265,529.64606,53,35,0
529.64606,529.8656,58,31,0
529.8656,530.0912,50,31,0
530.0912,530.3168,58,31,0
530.3168,530.47614,41,40,0
530.52924,530.7417,58,36,0
530.7417,530.95416,50,36,0
530.95416,531.1666,58,36,0
531.1666,531.38763,53,35,0
531.38763,531.6087,58,29,0
531.6087,531.85266,50,29,0
531.85266,532.09656,58,29,0
532.09656,532.25696,41,35,0
532.3104,532.5243,57,28,0
532.5243,532.73816,51,28,0
532.73816,532.952,57,28,0
532.952,533.1716,53,35,0
533.1716,533.3911,57,29,0
533.3911,533.6264,51,29,0
533.6264,533.86115,57,29,0
533.86115,534.0262,41,36,0
534.0818,534.3067,57,30,0
534.3067,534.5356,51,30,0
534.5356,534.7693,57,26,0
535.3836,536.70166,51,23,0
535.0607,536.70166,57,23,0
534.7693,536.70166,53,33,0
536.94745,537.1026,46,40,0
537.25775,537.8849,53,28,0
537.25775,537.8849,58,28,0
537.25775,537.8849,62,34,0
537.8849,538.2482,62,34,0
537.8849,538.2482,58,28,0
537.8849,538.2482,53,28,0
538.2482,538.4139,50,40,0
538.5795,539.2819,65,29,0
538.5795,539.2819,58,24,0
538.5795,539.2819,53,24,0
539.2819,539.6283,65,29,0
539.2819,539.6283,58,24,0
539.2819,539.6283,53,24,0
539.6283,539.7811,48,40,0
539.9339,540.55023,53,28,0
539.9339,540.55023,57,28,0
539.9339,540.55023,63,34,0
540.55023,540.9094,63,34,0
540.55023,540.9094,57,28,0
540.55023,540.9094,53,28,0
540.9094,541.0779,41,40,0
541.2463,541.9429,60,29,0
541.2463,541.9429,57,24,0
541.2463,541.9429,53,24,0
541.9429,542.2912,60,29,0
541.9429,542.2912,57,24,0
541.9429,542.2912,53,24,0
542.2912,542.44556,46,40,0
542.6,543.2203,53,28,0
542.6,543.2203,58,28,0
542.6,543.2203,62,34,0
543.2203,543.5798,62,34,0
543.2203,543.5798,58,28,0
543.2203,543.5798,53,28,0
543.5798,543.7357,39,40,0
543.89166,544.52045,60,29,0
543.89166,544.52045,58,24,0
543.89166,544.52045,51,24,0
543.89166,544.52045,55,24,0
544.52045,544.8778,60,29,0
544.52045,544.8778,58,24,0
544.52045,544.8778,51,24,0
544.52045,544.8778,55,24,0
544.8778,545.03455,40,40,0
545.19135,545.82117,52,28,0
545.19135,545.82117,58,28,0
545.19135,545.82117,60,34,0
545.19135,545.82117,55,28,0
545.82117,546.1841,48,34,0
546.1841,546.35864,41,40,0
546.5319,546.87146,57,31,0
546.5319,546.87146,60,31,0
546.87146,547.22504,58,31,0
546.87146,547.22504,62,31,0
547.22504,547.6057,63,31,0
547.22504,547.6057,57,31,0
546.5319,547.6057,53,31,0
547.6057,547.76086,46,40,0
547.916,548.54315,53,28,0
547.916,548.54315,58,28,0
547.916,548.54315,62,34,0
548.54315,548.9065,62,34,0
548.54315,548.9065,58,28,0
548.54315,548.9065,53,28,0
548.9065,549.07214,50,40,0
549.2378,549.94604,65,29,0
549.2378,549.94604,58,24,0
549.2378,549.94604,53,24,0
549.94604,550.29236,65,29,0
549.94604,550.29236,58,24,0
549.94604,550.29236,53,24,0
550.29236,550.4452,48,40,0
550.598,551.2143,53,28,0
550.598,551.2143,57,28,0
550.598,551.2143,63,34,0
551.2143,551.57355,63,34,0
551.2143,551.57355,57,28,0
551.2143,551.57355,53,28,0
551.57355,551.74194,41,40,0
551.9104,552.6149,60,29,0
551.9104,552.6149,53,24,0
551.9104,552.6149,57,24,0
552.6149,552.96344,57,24,0
552.6149,552.96344,53,24,0
552.6149,552.96344,60,29,0
552.96344,553.11786,46,40,0
553.2722,553.8925,53,28,0
553.2722,553.8925,58,28,0
553.2722,553.8925,62,34,0
553.8925,554.252,62,34,0
553.8925,554.252,58,28,0
553.8925,554.252,53,28,0
554.252,554.40796,52,40,0
554.5639,555.19275,67,29,0
554.5639,555.19275,58,24,0
554.5639,555.19275,61,24,0
555.19275,555.55005,61,29,0
555.19275,555.55005,55,24,0
555.19275,555.55005,58,24,0
555.55005,555.7068,41,40,0
555.8636,556.17706,58,31,0
556.17706,556.4934,57,31,0
555.8636,556.4934,60,31,0
556.4934,556.8273,60,31,0
556.4934,556.8273,63,31,0
555.8636,556.8273,53,31,0
556.8273,556.9885,46,40,0
557.14905,558.10284,58,31,0
557.14905,558.10284,62,31,0
558.10284,558.258,46,40,0
558.41315,559.0403,53,28,0
558.41315,559.0403,58,28,0
558.41315,559.0403,62,34,0
559.0403,559.40356,62,34,0
559.0403,559.40356,58,28,0
559.0403,559.40356,53,28,0
559.40356,559.5716,50,40,0
559.7396,560.43823,65,29,0
559.7396,560.43823,58,24,0
559.7396,560.43823,53,24,0
560.43823,560.78455,65,29,0
560.43823,560.78455,58,24,0
560.43823,560.78455,53,24,0
560.78455,560.9374,48,40,0
561.0902,561.7065,53,28,0
561.0902,561.7065,57,28,0
561.0902,561.7065,63,34,0
561.7065,562.06573,57,28,0
561.7065,562.06573,53,28,0
561.7065,562.06573,63,34,0
562.06573,562.23413,41,40,0
562.4025,563.0992,57,24,0
562.4025,563.0992,53,24,0
562.4025,563.0992,60,29,0
563.0992,563.4475,53,24,0
563.0992,563.4475,60,29,0
563.0992,563.4475,57,24,0
563.4475,563.60187,46,40,0
563.7562,564.3765,58,28,0
563.7562,564.3765,53,28,0
563.7562,564.3765,62,34,0
564.3765,564.7361,62,34,0
564.3765,564.7361,58,28,0
564.3765,564.7361,53,28,0
564.7361,564.892,39,40,0
565.048,565.67676,60,29,0
565.048,565.67676,51,24,0
565.048,565.67676,58,24,0
565.048,565.67676,55,24,0
565.67676,566.0341,60,29,0
565.67676,566.0341,51,24,0
565.67676,566.0341,55,24,0
565.67676,566.0341,58,24,0
566.0341,566.19086,40,40,0
566.3476,566.9775,55,28,0
566.3476,566.9775,60,34,0
566.3476,566.9775,58,28,0
566.3476,566.9775,52,28,0
566.9775,567.34033,48,34,0
567.34033,567.51495,41,40,0
567.6882,568.0277,60,31,0
567.6882,568.0277,57,31,0
568.0277,568.38135,62,31,0
568.0277,568.38135,58,31,0
568.38135,568.762,57,31,0
568.38135,568.762,63,31,0
567.6882,568.762,53,31,0
568.762,568.9172,46,40,0
569.0723,569.69946,53,28,0
569.0723,569.69946,58,28,0
569.0723,569.69946,62,34,0
569.69946,570.06274,62,34,0
569.69946,570.06274,58,28,0
569.69946,570.06274,53,28,0
570.06274,570.22845,50,40,0
570.3941,571.0965,65,29,0
570.3941,571.0965,53,24,0
570.3941,571.0965,58,24,0
571.0965,571.4428,65,29,0
571.0965,571.4428,53,24,0
571.0965,571.4428,58,24,0
571.4428,571.59564,48,40,0
571.7485,572.36475,63,34,0
571.7485,572.36475,53,28,0
571.7485,572.36475,57,28,0
572.36475,572.724,63,34,0
572.36475,572.724,53,28,0
572.36475,572.724,57,28,0
572.724,572.8924,41,40,0
573.06085,573.7616,60,29,0
573.06085,573.7616,53,24,0
573.06085,573.7616,57,24,0
573.7616,574.1083,53,24,0
573.7616,574.1083,60,29,0
573.7616,574.1083,57,24,0
574.1083,574.26263,46,40,0
574.417,575.0373,53,28,0
574.417,575.0373,62,34,0
574.417,575.0373,58,28,0
575.0373,575.39685,62,34,0
575.0373,575.39685,58,28,0
575.0373,575.39685,53,28,0
575.39685,575.5528,52,40,0
575.70874,576.3375,67,29,0
575.70874,576.3375,58,24,0
575.70874,576.3375,61,24,0
576.3375,576.6949,61,29,0
576.3375,576.6949,55,24,0
576.3375,576.6949,58,24,0
576.6949,576.8516,41,40,0
577.00836,577.3219,58,31,0
577.3219,577.63824,57,31,0
577.00836,577.63824,60,31,0
577.63824,577.97205,63,31,0
577.63824,577.97205,60,31,0
577.00836,577.97205,53,31,0
577.97205,578.13336,46,40,0
578.2939,579.2477,62,31,0
578.2939,579.2477,58,31,0
579.2477,579.36115,38,51,0
579.36115,579.4747,40,48,0
579.4747,579.5882,42,46,0
579.5882,579.6943,43,53,0
579.6943,579.80035,45,54,0
579.80035,579.90643,46,49,0
579.90643,580.0125,48,55,0
580.0125,580.1185,50,52,0
580.1185,580.2246,52,53,0
580.2246,580.3307,54,57,0
580.3307,580.43677,55,54,0
580.43677,580.54285,57,54,0
580.54285,580.65265,58,63,0
580.65265,580.7625,62,54,0
580.7625,580.8724,58,54,0
580.8724,580.9779,55,62,0
580.9779,581.0835,58,53,0
581.0835,581.189,55,53,0
581.189,581.2946,50,65,0
581.2946,581.40015,55,53,0
581.40015,581.5057,50,53,0
581.5057,581.61127,46,65,0
581.61127,581.7168,50,51,0
581.7168,581.8223,46,51,0
581.8223,581.93585,43,51,0
581.93585,582.0494,45,48,0
582.0494,582.1629,46,46,0
582.1629,582.27045,48,53,0
582.27045,582.378,50,54,0
582.378,582.48553,52,49,0
582.48553,582.5931,54,55,0
582.5931,582.7006,55,52,0
582.7006,582.80817,56,53,0
582.80817,582.91565,57,57,0
582.91565,583.0232,58,54,0
583.0232,583.13074,59,54,0
583.13074,583.2406,60,63,0
583.2406,583.35046,64,54,0
583.35046,583.4603,60,54,0
583.4603,583.5673,55,62,0
583.5673,583.6743,60,53,0
583.6743,583.78125,55,53,0
583.78125,583.88824,52,65,0
583.88824,583.99524,55,53,0
583.99524,584.10223,52,53,0
584.10223,584.4232,48,65,0
584.4232,584.5367,45,51,0
584.5367,584.6502,48,41,0
584.6502,584.76373,53,44,0
584.76373,584.8713,57,47,0
584.8713,584.9788,60,50,0
584.9788,585.08636,65,53,0
585.08636,585.40155,69,56,0
585.7167,585.8302,46,51,0
585.8302,585.9437,50,41,0
585.9437,586.05725,55,44,0
586.05725,586.1648,58,47,0
586.1648,586.27234,62,50,0
586.27234,586.3799,67,53,0
586.3799,586.69653,70,56,0
587.0132,587.17303,48,59,0
587.3329,587.49274,57,34,0
587.3329,587.49274,60,34,0
587.3329,587.49274,65,40,0
587.65265,587.8125,48,46,0
587.97235,588.1322,58,35,0
587.97235,588.1322,60,35,0
587.97235,588.1322,64,42,0
588.29205,588.4667,41,40,0
588.6413,588.9888,57,31,0
588.6413,588.9888,60,31,0
588.9888,589.34235,58,31,0
588.9888,589.34235,62,31,0
589.34235,589.723,63,31,0
589.34235,589.723,57,31,0
588.6413,589.723,53,31,0
589.723,589.8782,46,40,0
590.0333,590.66046,53,28,0
590.0333,590.66046,58,28,0
590.0333,590.66046,62,34,0
590.66046,591.0238,62,34,0
590.66046,591.0238,58,28,0
590.66046,591.0238,53,28,0
591.0238,591.18945,50,40,0
591.35516,592.0537,65,29,0
591.35516,592.0537,58,24,0
591.35516,592.0537,56,24,0
592.0537,592.4,65,29,0
592.0537,592.4,58,24,0
592.0537,592.4,56,24,0
592.4,592.55286,51,40,0
592.7057,593.32196,55,28,0
592.7057,593.32196,58,28,0
592.7057,593.32196,63,34,0
593.32196,593.676,63,34,0
593.32196,593.676,58,28,0
593.32196,593.676,55,28,0
593.676,593.8605,52,40,0
594.05096,594.79236,67,29,0
594.05096,594.79236,61,24,0
594.05096,594.79236,58,24,0
594.79236,595.1508,67,29,0
594.79236,595.1508,61,24,0
594.79236,595.1508,58,24,0
595.1508,595.3052,55,40,0
595.4596,596.07983,58,28,0
595.4596,596.07983,60,28,0
595.4596,596.07983,64,34,0
596.07983,596.4394,60,28,0
596.07983,596.4394,58,28,0
596.07983,596.4394,64,34,0
596.4394,596.59534,53,40,0
596.7513,597.38007,65,29,0
596.7513,597.38007,58,24,0
596.7513,597.38007,62,24,0
597.38007,597.7374,65,29,0
597.38007,597.7374,58,24,0
597.38007,597.7374,62,24,0
597.7374,597.89417,41,40,0
598.05096,598.6808,63,31,0
598.05096,598.6808,53,31,0
598.05096,598.6808,57,31,0
598.6808,599.0146,63,31,0
598.6808,599.0146,57,31,0
598.6808,599.0146,53,31,0
599.0146,599.1759,46,40,0
599.3364,600.2902,62,31,0
599.3364,600.2902,58,31,0
600.2902,600.40375,38,51,0
600.40375,600.5173,40,48,0
600.5173,600.6308,42,46,0
600.6308,600.7363,43,53,0
600.7363,600.84186,45,54,0
600.84186,600.94745,46,49,0
600.94745,601.053,48,55,0
601.053,601.1585,50,52,0
601.1585,601.2641,52,53,0
601.2641,601.3696,54,57,0
601.3696,601.4752,55,54,0
601.4752,601.58075,57,54,0
601.58075,601.6906,58,63,0
601.6906,601.8005,62,54,0
601.8005,601.9103,58,54,0
601.9103,602.0154,55,62,0
602.0154,602.1204,58,53,0
602.1204,602.22546,55,53,0
602.22546,602.3305,50,65,0
602.3305,602.43555,55,53,0
602.43555,602.54065,50,53,0
602.54065,602.6457,46,65,0
602.6457,602.75073,50,51,0
602.75073,602.8558,46,51,0
602.8558,602.9693,43,51,0
602.9693,603.0828,45,48,0
603.0828,603.19635,46,46,0
603.19635,603.3039,48,53,0
603.3039,603.41144,50,54,0
603.41144,603.519,52,49,0
603.519,603.6245,54,55,0
603.6245,603.73004,55,52,0
603.73004,603.83563,56,53,0
603.83563,603.94116,57,57,0
603.94116,604.0467,58,54,0
604.0467,604.1523,59,54,0
604.1523,604.26215,60,63,0
604.26215,604.372,64,54,0
604.372,604.4818,60,54,0
604.4818,604.5888,55,62,0
604.5888,604.6958,60,53,0
604.6958,604.8028,55,53,0
604.8028,604.9083,52,65,0
604.9083,605.0139,55,53,0
605.0139,605.11945,52,53,0
605.11945,605.4361,48,65,0
605.4361,605.5496,45,51,0
605.5496,605.66315,48,41,0
605.66315,605.7767,53,44,0
605.7767,605.8842,57,47,0
605.8842,605.99176,60,50,0
605.99176,606.0993,65,53,0
606.0993,606.4144,69,56,0
606.7296,606.84314,46,51,0
606.84314,606.95667,50,41,0
606.95667,607.0701,55,44,0
607.0701,607.1762,58,47,0
607.1762,607.2823,62,50,0
607.2823,607.38837,67,53,0
607.38837,607.70654,70,56,0
608.0248,608.1831,48,59,0
608.34143,608.50006,57,34,0
608.34143,608.50006,60,34,0
608.34143,608.50006,65,40,0
608.6592,608.8183,48,46,0
608.978,609.1379,58,35,0
608.978,609.1379,60,35,0
608.978,609.1379,64,42,0
609.2981,609.4727,41,40,0
609.64734,609.9934,57,31,0
609.64734,609.9934,60,31,0
609.9934,610.34705,58,31,0
609.9934,610.34705,62,31,0
610.34705,610.7351,63,31,0
610.34705,610.7351,57,31,0
609.64734,610.7351,53,31,0
610.7351,610.89026,46,40,0
611.0454,611.67255,58,28,0
611.0454,611.67255,62,34,0
611.0454,611.67255,53,28,0
611.67255,612.0359,62,34,0
611.67255,612.0359,58,28,0
611.67255,612.0359,53,28,0
612.0359,612.20154,50,40,0
612.36725,613.0696,65,29,0
612.36725,613.0696,58,24,0
612.36725,613.0696,56,24,0
613.0696,613.41595,65,29,0
613.0696,613.41595,58,24,0
613.0696,613.41595,56,24,0
613.41595,613.5688,51,40,0
613.7216,614.3379,55,28,0
613.7216,614.3379,58,28,0
613.7216,614.3379,63,34,0
614.3379,614.6968,63,34,0
614.3379,614.6968,58,28,0
614.3379,614.6968,55,28,0
614.6968,614.88416,52,40,0
615.07697,615.8352,67,29,0
615.07697,615.8352,61,24,0
615.07697,615.8352,58,24,0
615.8352,616.1991,67,29,0
615.8352,616.1991,61,24,0
615.8352,616.1991,58,24,0
616.1991,616.35345,55,40,0
616.5079,617.1281,58,28,0
616.5079,617.1281,64,34,0
616.5079,617.1281,60,28,0
617.1281,617.4877,64,34,0
617.1281,617.4877,60,28,0
617.1281,617.4877,58,28,0
617.4877,617.6436,53,40,0
617.79956,618.42834,65,29,0
617.79956,618.42834,58,24,0
617.79956,618.42834,62,24,0
618.42834,618.7857,65,29,0
618.42834,618.7857,58,24,0
618.42834,618.7857,62,24,0
618.7857,618.94244,41,40,0
619.0992,619.72906,63,31,0
619.0992,619.72906,53,31,0
619.0992,619.72906,57,31,0
619.72906,620.06287,63,31,0
619.72906,620.06287,57,31,0
619.72906,620.06287,53,31,0
620.06287,620.2242,41,40,0
620.3847,621.01715,58,31,0
620.3847,621.01715,53,31,0
620.3847,621.01715,62,31,0
621.01715,621.3385,62,31,0
621.01715,621.3385,58,31,0
621.01715,621.3385,53,31,0
621.3385,621.49524,41,34,0
621.652,622.28186,57,26,0
621.652,622.28186,51,26,0
621.652,622.28186,53,26,0
622.28186,622.61566,57,26,0
622.28186,622.61566,53,26,0
622.28186,622.61566,51,26,0
622.61566,622.777,41,34,0
622.9375,623.56995,58,26,0
622.9375,623.56995,53,26,0
622.9375,623.56995,50,26,0
623.56995,623.892,58,26,0
623.56995,623.892,53,26,0
623.56995,623.892,50,26,0
623.892,624.05896,29,28,0
624.23016,625.132,51,22,0
624.23016,625.132,41,22,0
624.23016,625.132,48,22,0
627.42096,627.9589,41,30,0
627.9589,628.86804,46,37,0
627.9589,628.86804,41,31,0
627.9589,628.86804,34,31,0
628.96906,629.4236,46,35,0
628.96906,629.4236,41,29,0
628.96906,629.4236,34,29,0
629.4741,629.95056,46,35,0
629.4741,629.95056,41,29,0
629.4741,629.95056,34,29,0
630.0035,630.9056,41,37,0
630.0035,630.9056,38,31,0
631.0058,631.952,41,34,0
631.0058,631.952,38,28,0
632.0633,632.9654,48,36,0
632.0633,632.9654,41,30,0
632.0633,632.9654,36,30,0
633.0656,633.53827,48,32,0
633.0656,633.53827,41,27,0
633.0656,633.53827,36,27,0
633.5908,634.10895,48,37,0
633.5908,634.10895,41,31,0
633.5908,634.10895,36,31,0
634.1665,635.31793,42,37,0
634.1665,635.31793,54,45,0
635.31793,636.46936,41,32,0
634.1665,636.46936,45,45,0
634.1665,636.46936,33,37,0
635.31793,636.46936,53,38,0
636.46936,637.37146,46,36,0
636.46936,637.37146,41,30,0
636.46936,637.37146,34,30,0
637.4717,637.9444,43,32,0
637.4717,637.9444,31,27,0
637.9969,638.515,43,37,0
637.9969,638.515,31,31,0
638.5726,640.8754,48,45,0
638.5726,640.8754,36,37,0
638.5726,640.8754,43,37,0
640.8754,643.251,41,42,0
640.8754,643.251,29,35,0
643.251,645.6811,46,32,0
643.251,645.6811,41,27,0
643.251,645.6811,34,27,0
645.6811,646.5832,58,36,0
645.6811,646.5832,53,30,0
645.6811,646.5832,46,30,0
646.6834,647.1561,55,32,0
646.6834,647.1561,43,27,0
647.2086,647.72675,55,37,0
647.2086,647.72675,43,31,0
647.78436,650.08716,60,45,0
647.78436,650.08716,48,37,0
647.78436,650.08716,55,37,0
650.08716,652.4627,53,42,0
650.08716,652.4627,41,35,0
652.4627,654.8928,58,32,0
652.4627,654.8928,53,27,0
652.4627,654.8928,46,27,0
654.8928,659.7957,63,35,0
654.8928,659.7957,53,35,0
654.8928,659.7957,60,35,0
659.7957,661.1208,58,25,0
659.7957,661.1208,62,25,0
654.8928,661.1208,65,42,0
662.44586,663.77094,58,25,0
662.44586,663.77094,53,25,0
662.44586,663.77094,46,25,0
665.09607,670.3964,58,25,0
665.09607,670.3964,53,20,0
665.09607,670.3964,46,20,0
