start_time,end_time,note_value,velocity,instrument_program_number
0.0,0.265498,80,81,0
0.0,0.265498,72,72,0
0.0,0.265498,68,72,0
0.265498,0.33238474,72,69,0
0.265498,0.33238474,68,69,0
0.265498,0.33238474,79,77,0
0.3992715,0.46615824,68,69,0
0.3992715,0.46615824,72,69,0
0.3992715,0.46615824,77,77,0
0.533045,0.798543,72,72,0
0.533045,0.798543,77,81,0
0.533045,0.798543,68,72,0
0.798543,0.865603,72,78,0
0.798543,0.865603,68,70,0
0.932663,0.999723,68,70,0
0.932663,0.999723,72,78,0
1.066783,1.332281,70,72,0
1.066783,1.332281,73,72,0
1.066783,1.332281,77,81,0
1.332281,1.3991678,70,69,0
1.332281,1.3991678,73,77,0
1.4660546,1.5329412,73,76,0
1.4660546,1.5329412,70,68,0
1.599828,1.8597947,72,72,0
1.599828,1.8597947,68,72,0
1.599828,1.8597947,77,81,0
1.865326,1.933446,72,55,0
1.865326,1.933446,68,49,0
2.001566,2.069686,72,55,0
2.001566,2.069686,68,49,0
2.137806,2.403304,68,43,0
2.137806,2.403304,72,48,0
2.403304,2.470364,72,48,0
2.403304,2.470364,68,43,0
2.403304,2.470364,67,43,0
2.537424,2.604484,72,45,0
2.537424,2.604484,65,40,0
2.537424,2.604484,68,40,0
2.671544,2.937042,68,40,0
2.671544,2.937042,72,45,0
2.671544,2.937042,65,40,0
2.937042,3.004102,72,48,0
2.937042,3.004102,60,43,0
2.937042,3.004102,68,43,0
3.071162,3.138222,68,40,0
3.071162,3.138222,72,45,0
3.071162,3.138222,60,40,0
3.205282,3.47078,65,40,0
3.205282,3.47078,70,40,0
3.205282,3.47078,73,45,0
3.47078,3.5376668,70,43,0
3.47078,3.5376668,61,43,0
3.47078,3.5376668,73,48,0
3.6045535,3.6714404,73,45,0
3.6045535,3.6714404,70,40,0
3.6045535,3.6714404,61,40,0
3.738327,4.003825,72,45,0
3.738327,4.003825,65,40,0
3.738327,4.003825,68,40,0
4.003825,4.071766,68,40,0
4.003825,4.071766,72,45,0
4.003825,4.071766,60,40,0
4.139707,4.207648,72,45,0
4.139707,4.207648,68,40,0
4.139707,4.207648,60,40,0
4.275589,4.541087,68,70,0
4.275589,4.541087,71,78,0
4.275589,4.541087,65,70,0
4.541087,4.6079736,62,66,0
4.541087,4.6079736,68,66,0
4.541087,4.6079736,71,74,0
4.6748605,4.7417474,62,66,0
4.6748605,4.7417474,71,74,0
4.6748605,4.7417474,68,66,0
4.808634,5.074132,67,75,0
4.808634,5.074132,72,84,0
4.808634,5.074132,63,75,0
5.074132,5.141192,72,78,0
5.074132,5.141192,67,70,0
5.074132,5.141192,60,70,0
5.208252,5.275312,60,70,0
5.208252,5.275312,67,70,0
5.208252,5.275312,72,78,0
5.342372,5.60787,67,74,0
5.342372,5.60787,74,83,0
5.342372,5.60787,62,74,0
5.60787,5.67493,67,70,0
5.60787,5.67493,71,78,0
5.60787,5.67493,62,70,0
5.74199,5.80905,62,70,0
5.74199,5.80905,67,70,0
5.74199,5.80905,71,78,0
5.87611,6.141608,75,83,0
5.87611,6.141608,63,74,0
5.87611,6.141608,67,74,0
6.141608,6.2084947,67,72,0
6.141608,6.2084947,72,81,0
6.141608,6.2084947,63,72,0
6.2753816,6.3422685,72,81,0
6.2753816,6.3422685,67,72,0
6.2753816,6.3422685,63,72,0
6.409155,6.674653,77,90,0
6.409155,6.674653,67,81,0
6.674653,6.74154,67,78,0
6.674653,6.74154,79,87,0
6.8084264,6.8753133,67,78,0
6.8084264,6.8753133,79,87,0
6.9422,7.207698,78,92,0
6.9422,7.207698,67,82,0
7.207698,7.274585,67,81,0
7.207698,7.274585,79,90,0
7.3414717,7.408358,79,90,0
7.3414717,7.408358,67,81,0
7.475245,7.749996,67,87,0
7.475245,7.749996,79,97,0
7.755842,7.894641,77,87,0
7.755842,7.894641,68,87,0
7.755842,7.894641,80,97,0
8.03344,8.172239,68,87,0
8.03344,8.172239,77,87,0
8.03344,8.172239,80,97,0
8.311038,8.449837,80,97,0
8.311038,8.449837,77,87,0
8.311038,8.449837,68,87,0
8.588636,8.728934,68,87,0
8.588636,8.728934,77,87,0
8.588636,8.728934,80,97,0
8.869233,9.007291,80,87,0
8.869233,9.007291,85,97,0
8.869233,9.007291,73,87,0
9.145349,9.421465,73,81,0
9.145349,9.421465,80,81,0
9.145349,9.421465,85,90,0
9.421465,9.491052,73,85,0
9.421465,9.491052,85,95,0
9.421465,9.491052,80,85,0
9.560637,9.630223,80,87,0
9.560637,9.630223,73,87,0
9.560637,9.630223,85,97,0
9.69981,9.975191,75,89,0
9.69981,9.975191,84,89,0
9.69981,9.975191,87,99,0
9.975191,10.045151,84,84,0
9.975191,10.045151,87,94,0
9.975191,10.045151,75,84,0
10.11511,10.185069,75,81,0
10.11511,10.185069,84,81,0
10.11511,10.185069,87,91,0
10.255029,10.392719,85,89,0
10.255029,10.392719,73,80,0
10.53041,10.672638,77,82,0
10.53041,10.672638,83,92,0
10.53041,10.672638,80,82,0
10.53041,10.672638,71,82,0
10.814865,10.961938,72,82,0
10.814865,10.961938,84,92,0
10.814865,10.961938,80,82,0
10.814865,10.961938,77,82,0
11.109011,11.260388,84,92,0
11.109011,11.260388,79,82,0
11.109011,11.260388,72,82,0
11.109011,11.260388,76,82,0
11.411339,11.676837,80,74,0
11.411339,11.676837,68,66,0
11.411339,11.676837,72,66,0
11.676837,11.743723,68,63,0
11.676837,11.743723,72,63,0
11.676837,11.743723,79,71,0
11.81061,11.877497,68,63,0
11.81061,11.877497,72,63,0
11.81061,11.877497,77,70,0
11.944384,12.209882,68,66,0
11.944384,12.209882,72,66,0
11.944384,12.209882,77,74,0
12.209882,12.276941,72,72,0
12.209882,12.276941,68,64,0
12.344002,12.411061,72,72,0
12.344002,12.411061,68,64,0
12.478122,12.74362,70,67,0
12.478122,12.74362,73,67,0
12.478122,12.74362,77,75,0
12.74362,12.810506,73,72,0
12.74362,12.810506,70,64,0
12.877393,12.94428,73,72,0
12.877393,12.94428,70,64,0
13.011167,13.271133,68,68,0
13.011167,13.271133,72,68,0
13.011167,13.271133,77,76,0
13.276665,13.344785,72,54,0
13.276665,13.344785,68,48,0
13.412905,13.481025,72,54,0
13.412905,13.481025,68,48,0
13.549145,13.814643,72,48,0
13.549145,13.814643,68,43,0
13.814643,13.881702,72,48,0
13.814643,13.881702,68,43,0
13.814643,13.881702,67,43,0
13.948763,14.015822,72,45,0
13.948763,14.015822,68,40,0
13.948763,14.015822,65,40,0
14.082883,14.348381,72,45,0
14.082883,14.348381,68,40,0
14.082883,14.348381,65,40,0
14.348381,14.415441,72,48,0
14.348381,14.415441,68,43,0
14.348381,14.415441,60,43,0
14.482501,14.549561,72,45,0
14.482501,14.549561,68,40,0
14.482501,14.549561,60,40,0
14.616621,14.882118,65,40,0
14.616621,14.882118,70,40,0
14.616621,14.882118,73,45,0
14.882118,14.949005,73,48,0
14.882118,14.949005,70,43,0
14.882118,14.949005,61,43,0
15.015892,15.082779,73,45,0
15.015892,15.082779,70,40,0
15.015892,15.082779,61,40,0
15.149666,15.415164,72,45,0
15.149666,15.415164,68,40,0
15.149666,15.415164,65,40,0
15.415164,15.483105,72,45,0
15.415164,15.483105,68,40,0
15.415164,15.483105,60,40,0
15.551045,15.618986,72,45,0
15.551045,15.618986,68,40,0
15.551045,15.618986,60,40,0
15.686928,15.952426,65,70,0
15.686928,15.952426,68,70,0
15.686928,15.952426,71,78,0
15.952426,16.019312,62,66,0
15.952426,16.019312,68,66,0
15.952426,16.019312,71,74,0
16.086199,16.153086,62,66,0
16.086199,16.153086,68,66,0
16.086199,16.153086,71,74,0
16.219973,16.48547,72,84,0
16.219973,16.48547,67,75,0
16.219973,16.48547,63,75,0
16.48547,16.55253,72,78,0
16.48547,16.55253,67,70,0
16.48547,16.55253,60,70,0
16.61959,16.686651,72,78,0
16.61959,16.686651,67,70,0
16.61959,16.686651,60,70,0
16.75371,17.019209,67,74,0
16.75371,17.019209,74,83,0
16.75371,17.019209,62,74,0
17.019209,17.08627,62,70,0
17.019209,17.08627,67,70,0
17.019209,17.08627,71,78,0
17.153328,17.220388,62,70,0
17.153328,17.220388,67,70,0
17.153328,17.220388,71,78,0
17.287449,17.552946,75,83,0
17.287449,17.552946,67,74,0
17.287449,17.552946,63,74,0
17.552946,17.619833,72,81,0
17.552946,17.619833,67,72,0
17.552946,17.619833,63,72,0
17.68672,17.753607,72,81,0
17.68672,17.753607,67,72,0
17.68672,17.753607,63,72,0
17.820494,18.08599,67,81,0
17.820494,18.08599,77,90,0
18.08599,18.152878,67,78,0
18.08599,18.152878,79,87,0
18.219765,18.286652,67,78,0
18.219765,18.286652,79,87,0
18.353539,18.619036,67,82,0
18.353539,18.619036,78,92,0
18.619036,18.685923,67,81,0
18.619036,18.685923,79,90,0
18.75281,18.819696,67,81,0
18.75281,18.819696,79,90,0
18.886583,19.161335,67,87,0
18.886583,19.161335,79,97,0
19.167181,19.305979,68,87,0
19.167181,19.305979,77,87,0
19.167181,19.305979,80,97,0
19.444778,19.583578,68,87,0
19.444778,19.583578,77,87,0
19.444778,19.583578,80,97,0
19.722376,19.861176,68,87,0
19.722376,19.861176,77,87,0
19.722376,19.861176,80,97,0
19.999975,20.140272,68,87,0
19.999975,20.140272,77,87,0
19.999975,20.140272,80,97,0
20.280571,20.418629,73,87,0
20.280571,20.418629,80,87,0
20.280571,20.418629,85,97,0
20.556688,20.832804,73,81,0
20.556688,20.832804,80,81,0
20.556688,20.832804,85,90,0
20.832804,20.90239,73,85,0
20.832804,20.90239,80,85,0
20.832804,20.90239,85,95,0
20.971975,21.041563,73,87,0
20.971975,21.041563,80,87,0
20.971975,21.041563,85,97,0
21.111149,21.38653,75,89,0
21.111149,21.38653,84,89,0
21.111149,21.38653,87,99,0
21.38653,21.45649,75,84,0
21.38653,21.45649,84,84,0
21.38653,21.45649,87,94,0
21.52645,21.596409,75,81,0
21.52645,21.596409,84,81,0
21.52645,21.596409,87,91,0
21.666368,21.804058,73,80,0
21.666368,21.804058,85,89,0
21.941748,22.083977,71,82,0
21.941748,22.083977,83,92,0
21.941748,22.083977,80,82,0
21.941748,22.083977,77,82,0
22.226204,22.368725,72,82,0
22.226204,22.368725,84,92,0
22.226204,22.368725,80,82,0
22.226204,22.368725,77,82,0
22.512203,22.65675,72,82,0
22.512203,22.65675,84,92,0
22.512203,22.65675,79,82,0
22.512203,22.65675,76,82,0
22.802109,23.067606,72,48,0
22.802109,23.067606,70,43,0
23.067606,23.134493,72,45,0
23.067606,23.134493,67,40,0
23.20138,23.268267,72,45,0
23.20138,23.268267,67,40,0
23.335154,23.60065,72,48,0
23.335154,23.60065,68,43,0
23.60065,23.667538,72,45,0
23.60065,23.667538,65,40,0
23.734425,23.801311,72,45,0
23.734425,23.801311,65,40,0
23.868198,24.133696,68,48,0
23.868198,24.133696,66,43,0
24.133696,24.201458,68,45,0
24.133696,24.201458,60,40,0
24.269222,24.336985,68,45,0
24.269222,24.336985,60,40,0
24.404747,24.471807,77,89,0
24.404747,24.471807,68,80,0
24.404747,24.471807,65,80,0
24.668518,24.735577,73,89,0
24.668518,24.735577,68,80,0
24.668518,24.735577,65,80,0
24.94317,25.20867,68,48,0
24.94317,25.20867,66,43,0
25.20867,25.27661,68,45,0
25.20867,25.27661,60,40,0
25.344551,25.412493,68,45,0
25.344551,25.412493,60,40,0
25.480433,25.546762,77,89,0
25.480433,25.546762,68,80,0
25.480433,25.546762,65,80,0
25.74352,25.80985,73,89,0
25.74352,25.80985,68,80,0
25.74352,25.80985,65,80,0
26.017717,26.283216,77,48,0
26.017717,26.283216,75,43,0
26.283216,26.350103,77,45,0
26.283216,26.350103,72,40,0
26.41699,26.483875,77,45,0
26.41699,26.483875,72,40,0
26.550762,26.816261,77,48,0
26.550762,26.816261,73,43,0
26.816261,26.883148,77,45,0
26.816261,26.883148,70,40,0
26.950035,27.016922,77,45,0
26.950035,27.016922,70,40,0
27.083807,27.349306,73,48,0
27.083807,27.349306,71,43,0
27.349306,27.417606,73,45,0
27.349306,27.417606,65,40,0
27.485905,27.554205,73,45,0
27.485905,27.554205,65,40,0
27.622505,27.689178,82,95,0
27.622505,27.689178,73,85,0
27.622505,27.689178,70,85,0
27.886961,27.953634,78,94,0
27.886961,27.953634,73,84,0
27.886961,27.953634,70,84,0
28.162004,28.427502,73,48,0
28.162004,28.427502,71,43,0
28.427502,28.495983,73,45,0
28.427502,28.495983,65,40,0
28.564465,28.632944,73,45,0
28.564465,28.632944,65,40,0
28.701426,28.768099,82,95,0
28.701426,28.768099,73,85,0
28.701426,28.768099,70,85,0
28.965881,29.033045,78,95,0
28.965881,29.033045,73,85,0
28.965881,29.033045,70,85,0
29.241415,29.307789,82,46,0
29.374165,29.440538,70,40,0
29.506914,29.573288,73,36,0
29.506914,29.573288,78,40,0
29.639662,29.706038,70,40,0
29.772411,29.838785,78,44,0
29.90516,29.971535,66,39,0
30.037909,30.104284,74,38,0
30.037909,30.104284,71,34,0
30.170658,30.237032,66,38,0
30.303408,30.369781,76,41,0
30.436155,30.502531,67,36,0
30.568905,30.63528,73,36,0
30.568905,30.63528,70,32,0
30.701654,30.768028,67,36,0
30.834404,30.900778,71,34,0
30.834404,30.900778,73,38,0
30.967152,31.033527,66,32,0
31.099901,31.166275,74,32,0
31.099901,31.166275,71,28,0
31.23265,31.299025,66,32,0
31.366259,31.432634,79,40,0
31.499008,31.565382,70,36,0
31.631758,31.698132,76,36,0
31.631758,31.698132,73,32,0
31.764505,31.830881,70,36,0
31.897255,31.96363,78,39,0
31.897255,31.96363,73,35,0
32.030003,32.09638,70,32,0
32.162754,32.229126,78,32,0
32.162754,32.229126,74,28,0
32.2955,32.36304,71,32,0
32.43116,32.497536,83,46,0
32.563908,32.630283,71,40,0
32.69666,32.763035,79,40,0
32.69666,32.763035,74,36,0
32.829407,32.895782,71,40,0
32.96216,33.02853,79,44,0
33.094906,33.16128,67,33,0
33.227654,33.29403,75,38,0
33.227654,33.29403,72,34,0
33.360405,33.426777,67,38,0
33.493153,33.55953,77,41,0
33.6259,33.692276,68,37,0
33.75865,33.825024,74,37,0
33.75865,33.825024,71,33,0
33.8914,33.957775,68,37,0
34.024147,34.090523,72,36,0
34.024147,34.090523,74,40,0
34.1569,34.22327,67,33,0
34.289646,34.35602,75,33,0
34.289646,34.35602,72,29,0
34.422394,34.48877,67,33,0
34.555145,34.621517,80,44,0
34.687893,34.75427,71,37,0
34.82064,34.887016,77,37,0
34.82064,34.887016,74,33,0
34.953392,35.019768,71,35,0
35.08614,35.152515,79,40,0
35.08614,35.152515,74,36,0
35.21889,35.285263,71,36,0
35.35164,35.418015,79,36,0
35.35164,35.418015,75,32,0
35.484386,35.551052,72,36,0
35.61917,35.685547,70,45,0
35.751923,35.818295,75,41,0
35.88467,35.951046,74,41,0
36.01742,36.083794,75,41,0
36.15017,36.216545,75,48,0
36.282917,36.349293,80,45,0
36.41567,36.48204,79,45,0
36.548416,36.616196,80,45,0
36.684677,36.75105,87,54,0
36.817425,36.8838,75,45,0
36.950172,37.01655,79,45,0
37.082924,37.149296,75,45,0
37.21567,37.282047,75,50,0
37.34842,37.414795,80,41,0
37.48117,37.547543,79,41,0
37.61392,37.681896,80,41,0
37.7502,37.81657,78,48,0
37.882946,37.94932,66,42,0
38.015694,38.08207,70,42,0
38.148445,38.214817,66,42,0
38.281193,38.34757,66,47,0
38.41394,38.480316,71,43,0
38.54669,38.613064,70,43,0
38.67944,38.745815,71,44,0
38.812187,38.878563,71,51,0
38.94494,39.01131,76,47,0
39.077686,39.144062,75,47,0
39.210438,39.27681,76,48,0
39.343185,39.40956,76,59,0
39.475933,39.54231,81,54,0
39.608685,39.675056,80,54,0
39.741432,39.808613,81,54,0
39.876198,39.942574,88,71,0
40.00895,40.075325,76,60,0
40.141697,40.208073,80,61,0
40.27445,40.34082,76,61,0
40.407196,40.47357,76,65,0
40.539944,40.60632,81,60,0
40.672695,40.739067,80,60,0
40.805443,40.87182,81,60,0
40.93819,41.004566,79,69,0
41.070942,41.137314,67,62,0
41.20369,41.270065,71,62,0
41.336437,41.402813,67,62,0
41.46919,41.53556,67,67,0
41.601936,41.668312,72,58,0
41.734684,41.80106,71,58,0
41.867435,41.933144,72,58,0
42.00505,42.27055,73,81,0
42.27055,42.37088,73,77,0
42.27055,42.37088,72,69,0
42.404324,42.50465,73,77,0
42.404324,42.50465,70,69,0
42.538094,42.803593,73,81,0
42.538094,42.803593,70,72,0
42.803593,42.903923,73,78,0
42.803593,42.903923,68,70,0
42.937366,43.037697,73,78,0
42.937366,43.037697,67,70,0
43.07114,43.33664,73,81,0
43.07114,43.33664,70,72,0
43.07114,43.33664,67,72,0
43.33664,43.43723,73,77,0
43.33664,43.43723,68,69,0
43.33664,43.43723,65,69,0
43.470757,43.57738,73,77,0
43.470757,43.57738,67,69,0
43.470757,43.57738,64,69,0
43.61867,43.890438,79,90,0
43.61867,43.890438,82,90,0
43.61867,43.890438,84,100,0
43.890438,43.996525,84,94,0
43.890438,43.996525,80,84,0
43.890438,43.996525,77,84,0
44.031887,44.133846,84,94,0
44.031887,44.133846,79,84,0
44.031887,44.133846,76,84,0
44.173336,44.438835,73,81,0
44.438835,44.539165,73,77,0
44.438835,44.539165,72,69,0
44.57261,44.672935,73,77,0
44.57261,44.672935,70,69,0
44.70638,44.971878,73,81,0
44.70638,44.971878,70,72,0
44.971878,45.07221,73,78,0
44.971878,45.07221,68,70,0
45.10565,45.205982,73,78,0
45.10565,45.205982,67,70,0
45.239426,45.504925,73,81,0
45.239426,45.504925,70,72,0
45.239426,45.504925,67,72,0
45.504925,45.605515,73,77,0
45.504925,45.605515,68,69,0
45.504925,45.605515,65,69,0
45.63904,45.745667,73,77,0
45.63904,45.745667,67,69,0
45.63904,45.745667,64,69,0
45.786957,46.058723,79,89,0
45.786957,46.058723,82,89,0
45.786957,46.058723,84,99,0
46.058723,46.16481,84,92,0
46.058723,46.16481,80,82,0
46.058723,46.16481,77,82,0
46.200172,46.30213,84,92,0
46.200172,46.30213,79,82,0
46.200172,46.30213,76,82,0
46.34162,46.60712,73,56,0
46.34162,46.60712,70,50,0
46.34162,46.60712,67,50,0
46.60712,46.70771,73,49,0
46.60712,46.70771,68,44,0
46.60712,46.70771,65,44,0
46.741238,46.855106,73,49,0
46.741238,46.855106,67,44,0
46.741238,46.855106,64,44,0
46.893063,47.169918,79,87,0
46.893063,47.169918,82,87,0
46.893063,47.169918,84,97,0
47.169918,47.277775,84,88,0
47.169918,47.277775,80,79,0
47.169918,47.277775,77,79,0
47.313725,47.42158,84,91,0
47.313725,47.42158,79,81,0
47.313725,47.42158,76,81,0
47.457535,47.590282,60,48,0
47.723034,47.789406,61,45,0
47.85578,47.922157,60,45,0
47.98853,48.12128,61,48,0
48.25403,48.320404,60,45,0
48.386776,48.45315,62,45,0
48.519527,48.652275,64,48,0
48.785023,48.8514,65,45,0
48.917774,48.984146,64,45,0
49.05052,49.18327,65,48,0
49.31602,49.382393,64,50,0
49.44877,49.515144,66,52,0
49.58152,49.847015,67,54,0
49.847015,49.979767,68,56,0
49.979767,50.112514,67,58,0
50.112514,50.378014,70,60,0
50.378014,50.51076,68,63,0
50.51076,50.64351,73,64,0
50.64351,50.90884,72,66,0
50.90884,51.04213,74,70,0
51.04213,51.17582,75,72,0
51.17582,51.451088,76,72,0
51.451088,51.594875,77,76,0
51.594875,51.748344,79,78,0
51.748344,52.013844,80,81,0
51.748344,52.013844,68,72,0
51.748344,52.013844,72,72,0
52.013844,52.08073,68,69,0
52.013844,52.08073,72,69,0
52.013844,52.08073,79,77,0
52.147617,52.214504,68,69,0
52.147617,52.214504,72,69,0
52.147617,52.214504,77,77,0
52.28139,52.54689,68,72,0
52.28139,52.54689,72,72,0
52.28139,52.54689,77,81,0
52.54689,52.61395,72,78,0
52.54689,52.61395,68,70,0
52.681007,52.74807,72,78,0
52.681007,52.74807,68,70,0
52.81513,53.080627,70,72,0
52.81513,53.080627,73,72,0
52.81513,53.080627,77,81,0
53.080627,53.147514,73,77,0
53.080627,53.147514,70,69,0
53.2144,53.28129,73,76,0
53.2144,53.28129,70,68,0
53.348175,53.60814,68,72,0
53.348175,53.60814,72,72,0
53.348175,53.60814,77,81,0
53.61367,53.681793,72,54,0
53.61367,53.681793,68,48,0
53.749912,53.81803,72,54,0
53.749912,53.81803,68,48,0
53.88615,54.15165,72,48,0
53.88615,54.15165,68,43,0
54.15165,54.218708,72,48,0
54.15165,54.218708,68,43,0
54.15165,54.218708,67,48,0
54.28577,54.35283,72,45,0
54.28577,54.35283,68,40,0
54.28577,54.35283,65,40,0
54.41989,54.685387,72,45,0
54.41989,54.685387,68,40,0
54.41989,54.685387,65,40,0
54.685387,54.75245,72,48,0
54.685387,54.75245,68,43,0
54.685387,54.75245,60,43,0
54.819508,54.886566,72,45,0
54.819508,54.886566,68,40,0
54.819508,54.886566,60,40,0
54.95363,55.219124,65,40,0
54.95363,55.219124,70,40,0
54.95363,55.219124,73,45,0
55.219124,55.28601,73,48,0
55.219124,55.28601,70,43,0
55.219124,55.28601,61,43,0
55.352898,55.419785,73,45,0
55.352898,55.419785,70,40,0
55.352898,55.419785,61,40,0
55.48667,55.75217,72,45,0
55.48667,55.75217,68,40,0
55.48667,55.75217,65,40,0
55.75217,55.82011,72,45,0
55.75217,55.82011,68,40,0
55.75217,55.82011,60,40,0
55.888054,55.955994,72,45,0
55.888054,55.955994,68,40,0
55.888054,55.955994,60,40,0
56.023933,56.289433,70,49,0
56.023933,56.289433,73,49,0
56.023933,56.289433,76,55,0
56.289433,56.35632,67,46,0
56.289433,56.35632,73,46,0
56.289433,56.35632,76,52,0
56.423206,56.490093,67,46,0
56.423206,56.490093,73,46,0
56.423206,56.490093,76,52,0
56.55698,56.82248,77,61,0
56.55698,56.82248,72,54,0
56.55698,56.82248,68,54,0
56.82248,56.889538,77,58,0
56.82248,56.889538,72,52,0
56.82248,56.889538,65,52,0
56.956596,57.02366,77,58,0
56.956596,57.02366,72,52,0
56.956596,57.02366,65,52,0
57.090717,57.356216,72,60,0
57.090717,57.356216,79,67,0
57.090717,57.356216,67,60,0
57.356216,57.423275,67,54,0
57.356216,57.423275,72,54,0
57.356216,57.423275,76,60,0
57.490337,57.557396,67,54,0
57.490337,57.557396,72,54,0
57.490337,57.557396,76,60,0
57.624454,57.889954,80,73,0
57.624454,57.889954,72,65,0
57.624454,57.889954,68,65,0
57.889954,57.95684,77,68,0
57.889954,57.95684,72,61,0
57.889954,57.95684,68,61,0
58.023727,58.090614,77,68,0
58.023727,58.090614,72,61,0
58.023727,58.090614,68,61,0
58.1575,58.423,72,75,0
58.1575,58.423,82,84,0
58.423,58.489887,72,69,0
58.423,58.489887,84,77,0
58.55677,58.623657,72,69,0
58.55677,58.623657,84,77,0
58.690544,58.956043,72,80,0
58.690544,58.956043,83,89,0
58.956043,59.02293,72,76,0
58.956043,59.02293,84,85,0
59.089817,59.156704,72,76,0
59.089817,59.156704,84,85,0
59.22359,59.49834,72,87,0
59.22359,59.49834,84,97,0
59.50419,59.642986,73,87,0
59.50419,59.642986,82,87,0
59.50419,59.642986,85,97,0
59.781784,59.920586,73,87,0
59.781784,59.920586,82,87,0
59.781784,59.920586,85,97,0
60.059383,60.19818,73,87,0
60.059383,60.19818,82,87,0
60.059383,60.19818,85,97,0
60.336983,60.47728,73,87,0
60.336983,60.47728,82,87,0
60.336983,60.47728,85,97,0
60.61758,60.75564,78,87,0
60.61758,60.75564,85,87,0
60.61758,60.75564,90,97,0
60.893696,61.16981,78,81,0
60.893696,61.16981,85,81,0
60.893696,61.16981,90,90,0
61.16981,61.239395,78,85,0
61.16981,61.239395,85,85,0
61.16981,61.239395,90,95,0
61.308983,61.37857,78,87,0
61.308983,61.37857,85,87,0
61.308983,61.37857,90,97,0
61.448154,61.723537,80,89,0
61.448154,61.723537,89,89,0
61.448154,61.723537,92,99,0
61.723537,61.793495,80,84,0
61.723537,61.793495,89,84,0
61.723537,61.793495,92,94,0
61.863457,61.933414,80,81,0
61.863457,61.933414,89,81,0
61.863457,61.933414,92,91,0
62.003376,62.141064,78,80,0
62.003376,62.141064,90,89,0
62.278755,62.420982,71,82,0
62.278755,62.420982,83,92,0
62.278755,62.420982,80,82,0
62.278755,62.420982,77,82,0
62.56321,62.710285,72,82,0
62.56321,62.710285,84,92,0
62.56321,62.710285,80,82,0
62.56321,62.710285,77,82,0
62.857357,63.008736,72,82,0
62.857357,63.008736,84,92,0
62.857357,63.008736,79,82,0
62.857357,63.008736,76,82,0
63.16011,63.462868,77,92,0
63.16011,63.462868,65,82,0
63.462868,63.595615,65,48,0
63.595615,63.728363,67,48,0
63.728363,63.993862,69,48,0
63.993862,64.060234,70,48,0
64.12661,64.192986,72,48,0
64.25936,64.52486,74,48,0
64.25936,64.52486,72,43,0
64.52486,64.59174,76,45,0
64.52486,64.59174,70,40,0
64.65863,64.72552,76,45,0
64.65863,64.72552,70,40,0
64.792404,65.05791,76,48,0
64.792404,65.05791,70,43,0
65.05791,65.124794,77,45,0
65.05791,65.124794,69,40,0
65.19167,65.25856,77,45,0
65.19167,65.25856,69,40,0
65.32545,65.59095,72,48,0
65.32545,65.59095,69,43,0
65.59095,65.658714,70,45,0
65.59095,65.658714,67,40,0
65.72647,65.794235,70,45,0
65.72647,65.794235,67,40,0
65.862,65.928505,81,89,0
65.862,65.928505,72,80,0
65.862,65.928505,69,80,0
66.13024,66.19674,77,89,0
66.13024,66.19674,72,80,0
66.13024,66.19674,69,80,0
66.40042,66.665924,72,48,0
66.665924,66.73281,74,45,0
66.665924,66.73281,72,40,0
66.7997,66.866585,74,45,0
66.7997,66.866585,72,40,0
66.93347,67.19897,76,48,0
66.93347,67.19897,70,43,0
67.19897,67.265854,77,45,0
67.19897,67.265854,69,40,0
67.33274,67.39963,77,45,0
67.33274,67.39963,69,40,0
67.466515,67.73201,72,48,0
67.466515,67.73201,69,43,0
67.73201,67.799774,70,45,0
67.73201,67.799774,67,40,0
67.86754,67.9353,70,45,0
67.86754,67.9353,67,40,0
68.00307,68.069565,81,94,0
68.00307,68.069565,72,84,0
68.00307,68.069565,69,84,0
68.2713,68.33781,77,95,0
68.2713,68.33781,72,85,0
68.2713,68.33781,69,85,0
68.54149,68.806984,72,48,0
68.54149,68.806984,69,43,0
68.806984,68.876945,70,45,0
68.806984,68.876945,67,40,0
68.94691,69.01686,70,45,0
68.94691,69.01686,67,40,0
69.08682,69.15473,81,97,0
69.08682,69.15473,72,87,0
69.08682,69.15473,69,87,0
69.36075,69.42866,77,97,0
69.36075,69.42866,72,87,0
69.36075,69.42866,69,87,0
69.63401,69.90365,72,48,0
69.63401,69.90365,69,43,0
69.90365,69.97781,70,45,0
69.90365,69.97781,67,40,0
70.05199,70.12615,70,45,0
70.05199,70.12615,67,40,0
70.200325,70.458466,89,99,0
70.200325,70.458466,77,89,0
70.200325,70.458466,81,89,0
70.200325,70.458466,84,89,0
70.487144,70.767395,77,99,0
70.487144,70.767395,65,99,0
71.312355,71.57785,72,48,0
71.312355,71.57785,70,43,0
71.57785,71.64474,72,45,0
71.57785,71.64474,67,40,0
71.711624,71.77851,72,45,0
71.711624,71.77851,67,40,0
71.8454,72.11089,72,48,0
71.8454,72.11089,68,43,0
72.11089,72.17778,72,45,0
72.11089,72.17778,65,40,0
72.24467,72.311554,72,45,0
72.24467,72.311554,65,40,0
72.37844,72.64394,68,48,0
72.37844,72.64394,66,43,0
72.64394,72.7117,68,45,0
72.64394,72.7117,60,40,0
72.779465,72.84723,68,45,0
72.779465,72.84723,60,40,0
72.91499,72.98149,77,89,0
72.91499,72.98149,68,80,0
72.91499,72.98149,65,80,0
73.178764,73.24526,73,89,0
73.178764,73.24526,68,80,0
73.178764,73.24526,65,80,0
73.453415,73.71892,68,48,0
73.453415,73.71892,66,43,0
73.71892,73.78686,68,45,0
73.71892,73.78686,60,40,0
73.8548,73.92274,68,45,0
73.8548,73.92274,60,40,0
73.99068,74.05701,77,89,0
73.99068,74.05701,68,80,0
73.99068,74.05701,65,80,0
74.25377,74.3201,73,89,0
74.25377,74.3201,68,80,0
74.25377,74.3201,65,80,0
74.52796,74.793465,77,48,0
74.52796,74.793465,75,43,0
74.793465,74.860344,77,45,0
74.793465,74.860344,72,40,0
74.92723,74.99412,77,45,0
74.92723,74.99412,72,40,0
75.061005,75.32651,77,48,0
75.061005,75.32651,73,43,0
75.32651,75.393394,77,45,0
75.32651,75.393394,70,40,0
75.46028,75.52717,77,45,0
75.46028,75.52717,70,40,0
75.594055,75.85955,73,48,0
75.594055,75.85955,71,43,0
75.85955,75.92785,73,45,0
75.85955,75.92785,65,40,0
75.99615,76.06445,73,45,0
75.99615,76.06445,65,40,0
76.13275,76.199425,82,95,0
76.13275,76.199425,73,85,0
76.13275,76.199425,70,85,0
76.39721,76.46388,78,94,0
76.39721,76.46388,73,84,0
76.39721,76.46388,70,84,0
76.67225,76.937744,73,48,0
76.67225,76.937744,71,43,0
76.937744,77.006226,73,45,0
76.937744,77.006226,65,40,0
77.07471,77.14319,73,45,0
77.07471,77.14319,65,40,0
77.21167,77.27834,82,95,0
77.21167,77.27834,73,85,0
77.21167,77.27834,70,85,0
77.47613,77.54329,78,95,0
77.47613,77.54329,73,85,0
77.47613,77.54329,70,85,0
77.75166,77.81803,82,46,0
77.88441,77.95078,70,40,0
78.01716,78.083534,73,36,0
78.01716,78.083534,78,40,0
78.14991,78.21628,70,40,0
78.28265,78.34903,78,44,0
78.415405,78.48178,66,39,0
78.54816,78.61453,74,38,0
78.54816,78.61453,71,34,0
78.6809,78.74728,66,38,0
78.81365,78.88003,76,41,0
78.9464,79.01278,67,36,0
79.07915,79.14552,73,36,0
79.07915,79.14552,70,32,0
79.2119,79.278275,67,36,0
79.34465,79.411026,71,34,0
79.34465,79.411026,73,38,0
79.477394,79.54377,66,32,0
79.610146,79.67652,74,32,0
79.610146,79.67652,71,28,0
79.7429,79.80927,66,32,0
79.8765,79.94288,79,40,0
80.009254,80.07563,70,36,0
80.142006,80.208374,76,36,0
80.142006,80.208374,73,32,0
80.27475,80.341125,70,36,0
80.4075,80.47388,78,39,0
80.4075,80.47388,73,35,0
80.54025,80.60662,70,32,0
80.673,80.73937,78,32,0
80.673,80.73937,74,28,0
80.80575,80.87328,71,32,0
80.94141,81.00778,83,46,0
81.07416,81.140526,71,40,0
81.2069,81.27328,79,40,0
81.2069,81.27328,74,36,0
81.33965,81.40603,71,40,0
81.472404,81.53877,79,44,0
81.60515,81.671524,67,33,0
81.7379,81.804276,75,38,0
81.7379,81.804276,72,34,0
81.87065,81.93702,67,38,0
82.003395,82.06977,77,41,0
82.13615,82.20252,68,37,0
82.2689,82.33527,74,37,0
82.2689,82.33527,71,33,0
82.40164,82.46802,68,37,0
82.53439,82.60077,72,36,0
82.53439,82.60077,74,40,0
82.667145,82.73352,67,33,0
82.79989,82.866264,75,33,0
82.79989,82.866264,72,29,0
82.93264,82.999016,67,33,0
83.06539,83.13177,80,44,0
83.198135,83.26451,71,37,0
83.33089,83.39726,77,37,0
83.33089,83.39726,74,33,0
83.46364,83.530014,71,35,0
83.59638,83.66276,79,40,0
83.59638,83.66276,74,36,0
83.72913,83.79551,71,36,0
83.861885,83.92826,79,36,0
83.861885,83.92826,75,32,0
83.99463,84.061295,72,36,0
84.12942,84.19579,70,45,0
84.26217,84.328545,75,41,0
84.39491,84.46129,74,41,0
84.527664,84.59404,75,41,0
84.660416,84.72679,75,48,0
84.79316,84.859535,80,45,0
84.92591,84.99229,79,45,0
85.05866,85.12644,80,45,0
85.19492,85.26129,87,54,0
85.32767,85.39404,75,45,0
85.46042,85.526794,79,45,0
85.59317,85.65954,75,45,0
85.725914,85.79229,75,50,0
85.858665,85.92504,80,41,0
85.99142,86.057785,79,41,0
86.12416,86.19214,80,41,0
86.260445,86.32681,78,48,0
86.39319,86.459564,66,42,0
86.52594,86.592316,70,42,0
86.65869,86.72507,66,42,0
86.791435,86.85781,66,47,0
86.92419,86.99056,71,43,0
87.05694,87.123314,70,43,0
87.18968,87.25606,71,44,0
87.32243,87.38881,71,51,0
87.455185,87.52156,76,47,0
87.58793,87.654305,75,47,0
87.72068,87.787056,76,48,0
87.85343,87.91981,76,59,0
87.986176,88.05255,81,54,0
88.11893,88.1853,80,54,0
88.25168,88.318855,81,54,0
88.386444,88.45282,88,71,0
88.519196,88.58557,76,60,0
88.65194,88.718315,80,61,0
88.78469,88.85107,76,61,0
88.91744,88.98382,76,65,0
89.050186,89.11656,81,60,0
89.18294,89.24931,80,60,0
89.31569,89.382065,81,60,0
89.44843,89.51481,79,69,0
89.581184,89.64756,67,62,0
89.713936,89.78031,71,62,0
89.84669,89.913055,67,62,0
89.97943,90.04581,67,67,0
90.11218,90.17856,72,58,0
90.244934,90.3113,71,58,0
90.37768,90.44339,72,58,0
90.5153,90.78079,73,81,0
90.78079,90.88113,73,77,0
90.78079,90.88113,72,69,0
90.914566,91.0149,73,77,0
90.914566,91.0149,70,69,0
91.04834,91.313835,73,81,0
91.04834,91.313835,70,72,0
91.313835,91.41417,73,78,0
91.313835,91.41417,68,70,0
91.44761,91.54794,73,78,0
91.44761,91.54794,67,70,0
91.58138,91.846886,73,81,0
91.58138,91.846886,70,72,0
91.58138,91.846886,67,72,0
91.846886,91.94747,73,77,0
91.846886,91.94747,68,69,0
91.846886,91.94747,65,69,0
91.981,92.08762,73,77,0
91.981,92.08762,67,69,0
91.981,92.08762,64,69,0
92.12892,92.40068,79,87,0
92.12892,92.40068,82,87,0
92.12892,92.40068,84,97,0
92.40068,92.50677,84,88,0
92.40068,92.50677,80,79,0
92.40068,92.50677,77,79,0
92.54213,92.6441,84,91,0
92.54213,92.6441,79,81,0
92.54213,92.6441,76,81,0
92.68358,92.94908,73,81,0
92.94908,93.04941,73,77,0
92.94908,93.04941,72,69,0
93.082855,93.18318,73,77,0
93.082855,93.18318,70,69,0
93.21663,93.482124,73,81,0
93.21663,93.482124,70,72,0
93.482124,93.58245,73,78,0
93.482124,93.58245,68,70,0
93.6159,93.716225,73,78,0
93.6159,93.716225,67,70,0
93.74967,94.01517,73,81,0
93.74967,94.01517,70,72,0
93.74967,94.01517,67,72,0
94.01517,94.11576,73,77,0
94.01517,94.11576,68,69,0
94.01517,94.11576,65,69,0
94.14929,94.25591,73,77,0
94.14929,94.25591,67,69,0
94.14929,94.25591,64,69,0
94.2972,94.56897,79,91,0
94.2972,94.56897,82,91,0
94.2972,94.56897,84,102,0
94.56897,94.67506,84,92,0
94.56897,94.67506,80,82,0
94.56897,94.67506,77,82,0
94.71042,94.81238,84,92,0
94.71042,94.81238,79,82,0
94.71042,94.81238,76,82,0
94.85187,95.11736,73,56,0
94.85187,95.11736,70,50,0
94.85187,95.11736,67,50,0
95.11736,95.21796,73,49,0
95.11736,95.21796,68,44,0
95.11736,95.21796,65,44,0
95.25149,95.36092,73,49,0
95.25149,95.36092,67,44,0
95.25149,95.36092,64,44,0
95.403305,95.68016,79,90,0
95.403305,95.68016,82,90,0
95.403305,95.68016,84,100,0
95.68016,95.78802,84,92,0
95.68016,95.78802,80,82,0
95.68016,95.78802,77,82,0
95.82397,95.927635,84,92,0
95.82397,95.927635,79,82,0
95.82397,95.927635,76,82,0
95.96778,96.100525,60,48,0
96.23328,96.29965,61,45,0
96.36603,96.4324,60,45,0
96.49877,96.63152,61,48,0
96.764275,96.83065,60,45,0
96.897026,96.963394,62,45,0
97.02977,97.16252,64,48,0
97.29527,97.36164,65,45,0
97.42802,97.49439,64,45,0
97.56077,97.69352,65,48,0
97.82626,97.89264,64,50,0
97.959015,98.02539,66,52,0
98.09177,98.35726,67,54,0
98.35726,98.49001,68,56,0
98.49001,98.62276,67,58,0
98.62276,98.88826,70,60,0
98.88826,99.021,68,63,0
99.021,99.153755,73,64,0
99.153755,99.41908,72,66,0
99.41908,99.552376,74,70,0
99.552376,99.686066,75,72,0
99.686066,99.961334,76,72,0
99.961334,100.10512,77,76,0
100.10512,100.25859,79,78,0
100.25859,100.524086,80,81,0
100.25859,100.524086,68,72,0
100.25859,100.524086,72,72,0
100.524086,100.59097,68,69,0
100.524086,100.59097,72,69,0
100.524086,100.59097,79,77,0
100.65786,100.72475,68,69,0
100.65786,100.72475,72,69,0
100.65786,100.72475,77,77,0
100.79163,101.05714,68,72,0
100.79163,101.05714,72,72,0
100.79163,101.05714,77,81,0
101.05714,101.12419,72,78,0
101.05714,101.12419,68,70,0
101.19125,101.258316,72,78,0
101.19125,101.258316,68,70,0
101.32537,101.59087,70,72,0
101.32537,101.59087,73,72,0
101.32537,101.59087,77,81,0
101.59087,101.65776,73,77,0
101.59087,101.65776,70,69,0
101.72465,101.85842,73,76,0
101.72465,101.85842,70,68,0
101.85842,102.118385,68,72,0
101.85842,102.118385,72,72,0
101.85842,102.118385,77,81,0
102.12392,102.19204,72,55,0
102.12392,102.19204,68,49,0
102.260155,102.32828,72,55,0
102.260155,102.32828,68,49,0
102.39639,102.661896,72,48,0
102.39639,102.661896,68,43,0
102.661896,102.72896,72,48,0
102.661896,102.72896,68,43,0
102.661896,102.72896,67,43,0
102.79601,102.863075,72,45,0
102.79601,102.863075,68,40,0
102.79601,102.863075,65,40,0
102.93014,103.19563,72,45,0
102.93014,103.19563,68,40,0
102.93014,103.19563,65,40,0
103.19563,103.262695,72,48,0
103.19563,103.262695,68,43,0
103.19563,103.262695,60,43,0
103.32975,103.39681,72,45,0
103.32975,103.39681,68,40,0
103.32975,103.39681,60,40,0
103.463875,103.72937,65,40,0
103.463875,103.72937,70,40,0
103.463875,103.72937,73,45,0
103.72937,103.79626,73,48,0
103.72937,103.79626,70,43,0
103.72937,103.79626,61,43,0
103.863144,103.93003,73,45,0
103.863144,103.93003,70,40,0
103.863144,103.93003,61,40,0
103.99692,104.26241,72,45,0
103.99692,104.26241,68,40,0
103.99692,104.26241,65,40,0
104.26241,104.33036,72,45,0
104.26241,104.33036,68,40,0
104.26241,104.33036,60,40,0
104.3983,104.46624,72,45,0
104.3983,104.46624,68,40,0
104.3983,104.46624,60,40,0
104.53418,104.799675,70,49,0
104.53418,104.799675,73,49,0
104.53418,104.799675,76,55,0
104.799675,104.86656,67,46,0
104.799675,104.86656,73,46,0
104.799675,104.86656,76,52,0
104.93345,105.000336,67,46,0
104.93345,105.000336,73,46,0
104.93345,105.000336,76,52,0
105.06722,105.332726,77,61,0
105.06722,105.332726,72,54,0
105.06722,105.332726,68,54,0
105.332726,105.39978,77,58,0
105.332726,105.39978,72,52,0
105.332726,105.39978,65,52,0
105.46684,105.533905,77,58,0
105.46684,105.533905,72,52,0
105.46684,105.533905,65,52,0
105.60096,105.86646,72,60,0
105.60096,105.86646,79,67,0
105.60096,105.86646,67,60,0
105.86646,105.93352,67,54,0
105.86646,105.93352,72,54,0
105.86646,105.93352,76,60,0
106.00058,106.06764,67,54,0
106.00058,106.06764,72,54,0
106.00058,106.06764,76,60,0
106.1347,106.4002,80,73,0
106.1347,106.4002,72,65,0
106.1347,106.4002,68,65,0
106.4002,106.46709,77,68,0
106.4002,106.46709,72,61,0
106.4002,106.46709,68,61,0
106.53397,106.60086,77,68,0
106.53397,106.60086,72,61,0
106.53397,106.60086,68,61,0
106.66775,106.93324,72,75,0
106.66775,106.93324,82,84,0
106.93324,107.00013,72,69,0
106.93324,107.00013,84,77,0
107.06702,107.1339,72,69,0
107.06702,107.1339,84,77,0
107.20079,107.466286,72,80,0
107.20079,107.466286,83,89,0
107.466286,107.53317,72,76,0
107.466286,107.53317,84,85,0
107.60006,107.66695,72,76,0
107.60006,107.66695,84,85,0
107.73383,108.014435,72,87,0
107.73383,108.014435,84,97,0
108.014435,108.15323,73,87,0
108.014435,108.15323,82,87,0
108.014435,108.15323,85,97,0
108.29203,108.43083,73,87,0
108.29203,108.43083,82,87,0
108.29203,108.43083,85,97,0
108.569626,108.70843,73,87,0
108.569626,108.70843,82,87,0
108.569626,108.70843,85,97,0
108.84723,108.987526,73,87,0
108.84723,108.987526,82,87,0
108.84723,108.987526,85,97,0
109.12782,109.265884,78,87,0
109.12782,109.265884,85,87,0
109.12782,109.265884,90,97,0
109.40394,109.68005,78,81,0
109.40394,109.68005,85,81,0
109.40394,109.68005,90,90,0
109.68005,109.74964,78,85,0
109.68005,109.74964,85,85,0
109.68005,109.74964,90,95,0
109.81923,109.88882,78,87,0
109.81923,109.88882,85,87,0
109.81923,109.88882,90,97,0
109.9584,110.23378,80,89,0
109.9584,110.23378,89,89,0
109.9584,110.23378,92,99,0
110.23378,110.30374,80,84,0
110.23378,110.30374,89,84,0
110.23378,110.30374,92,94,0
110.3737,110.44366,80,81,0
110.3737,110.44366,89,81,0
110.3737,110.44366,92,91,0
110.51362,110.65131,78,80,0
110.51362,110.65131,90,89,0
110.789,110.93123,71,82,0
110.789,110.93123,83,92,0
110.789,110.93123,80,82,0
110.789,110.93123,77,82,0
111.073456,111.22053,72,82,0
111.073456,111.22053,84,92,0
111.073456,111.22053,80,82,0
111.073456,111.22053,77,82,0
111.3676,111.51898,72,82,0
111.3676,111.51898,84,92,0
111.3676,111.51898,79,82,0
111.3676,111.51898,76,82,0
111.67036,111.973114,77,92,0
111.67036,111.973114,65,82,0
111.973114,112.10586,65,48,0
112.10586,112.23861,67,48,0
112.23861,112.504105,69,48,0
112.504105,112.57048,70,48,0
112.636856,112.70323,72,48,0
112.76961,113.0351,74,48,0
112.76961,113.0351,72,48,0
113.0351,113.10199,76,45,0
113.0351,113.10199,70,40,0
113.16888,113.23576,76,45,0
113.16888,113.23576,70,40,0
113.30265,113.568146,76,48,0
113.30265,113.568146,70,43,0
113.568146,113.63503,77,45,0
113.568146,113.63503,69,40,0
113.70192,113.76881,77,45,0
113.70192,113.76881,69,40,0
113.83569,114.1012,72,48,0
113.83569,114.1012,69,43,0
114.1012,114.16895,70,45,0
114.1012,114.16895,67,40,0
114.23672,114.30448,70,45,0
114.23672,114.30448,67,40,0
114.372246,114.43874,81,89,0
114.372246,114.43874,72,80,0
114.372246,114.43874,69,80,0
114.64049,114.706985,77,89,0
114.64049,114.706985,72,80,0
114.64049,114.706985,69,80,0
114.91067,115.17617,72,48,0
115.17617,115.24306,74,45,0
115.17617,115.24306,72,40,0
115.309944,115.37682,74,45,0
115.309944,115.37682,72,40,0
115.44371,115.70921,76,48,0
115.44371,115.70921,70,43,0
115.70921,115.7761,77,45,0
115.70921,115.7761,69,40,0
115.84299,115.909874,77,45,0
115.84299,115.909874,69,40,0
115.97676,116.242256,72,48,0
115.97676,116.242256,69,43,0
116.242256,116.31002,70,45,0
116.242256,116.31002,67,40,0
116.377785,116.44555,70,45,0
116.377785,116.44555,67,40,0
116.513306,116.57981,81,94,0
116.513306,116.57981,72,84,0
116.513306,116.57981,69,84,0
116.78155,116.84805,77,95,0
116.78155,116.84805,72,85,0
116.78155,116.84805,69,85,0
117.051735,117.31723,72,48,0
117.051735,117.31723,69,43,0
117.31723,117.389336,70,45,0
117.31723,117.389336,67,40,0
117.46144,117.53355,70,45,0
117.46144,117.53355,67,40,0
117.60565,117.67541,81,97,0
117.60565,117.67541,72,87,0
117.60565,117.67541,69,87,0
117.88701,117.956764,77,97,0
117.88701,117.956764,72,87,0
117.88701,117.956764,69,87,0
118.1643,118.43394,72,48,0
118.1643,118.43394,69,43,0
118.43394,118.51483,70,45,0
118.43394,118.51483,67,40,0
118.595726,118.67662,70,45,0
118.595726,118.67662,67,40,0
118.757515,119.05497,89,99,0
118.757515,119.05497,77,89,0
118.757515,119.05497,81,89,0
118.757515,119.05497,84,89,0
119.08802,119.418526,77,99,0
119.08802,119.418526,65,89,0
0.0,0.265498,53,68,0
0.0,0.265498,41,61,0
0.265498,0.33238474,53,66,0
0.3992715,0.46615824,53,66,0
0.533045,0.798543,53,68,0
0.533045,0.798543,41,61,0
0.798543,0.865603,53,66,0
0.932663,0.999723,53,65,0
1.066783,1.332281,41,61,0
1.066783,1.332281,53,68,0
1.332281,1.3991678,53,66,0
1.4660546,1.5329412,53,66,0
1.599828,1.8597947,53,68,0
1.599828,1.8597947,41,61,0
1.865326,1.933446,53,45,0
2.001566,2.069686,53,45,0
2.137806,2.403304,29,36,0
2.137806,2.403304,41,40,0
2.403304,2.470364,41,38,0
2.537424,2.604484,41,38,0
2.671544,2.937042,41,40,0
2.671544,2.937042,29,36,0
2.937042,3.004102,41,38,0
3.071162,3.138222,41,38,0
3.205282,3.47078,41,40,0
3.205282,3.47078,29,36,0
3.47078,3.5376668,41,38,0
3.6045535,3.6714404,41,38,0
3.738327,4.003825,29,36,0
3.738327,4.003825,41,40,0
4.003825,4.071766,41,38,0
4.139707,4.207648,41,38,0
4.275589,4.541087,53,67,0
4.541087,4.6079736,50,62,0
4.6748605,4.7417474,50,62,0
4.808634,5.074132,51,69,0
5.074132,5.141192,48,65,0
5.208252,5.275312,48,65,0
5.342372,5.60787,47,69,0
5.60787,5.67493,43,66,0
5.74199,5.80905,43,66,0
5.87611,6.141608,48,70,0
6.141608,6.2084947,43,70,0
6.2753816,6.3422685,43,70,0
6.409155,6.674653,50,76,0
6.674653,6.74154,43,73,0
6.8084264,6.8753133,43,73,0
6.9422,7.207698,51,78,0
7.207698,7.274585,43,75,0
7.3414717,7.408358,43,75,0
7.475245,7.749996,51,82,0
7.755842,7.894641,37,73,0
7.755842,7.894641,49,82,0
8.03344,8.172239,37,73,0
8.03344,8.172239,49,82,0
8.311038,8.449837,49,82,0
8.311038,8.449837,37,73,0
8.588636,8.728934,49,82,0
8.588636,8.728934,37,73,0
8.869233,9.007291,41,73,0
8.869233,9.007291,53,82,0
9.145349,9.421465,56,75,0
9.145349,9.421465,44,67,0
9.145349,9.421465,53,67,0
9.421465,9.491052,44,72,0
9.421465,9.491052,56,80,0
9.421465,9.491052,53,72,0
9.560637,9.630223,44,73,0
9.560637,9.630223,56,82,0
9.560637,9.630223,53,73,0
9.69981,9.975191,56,84,0
9.69981,9.975191,54,75,0
9.69981,9.975191,44,75,0
9.975191,10.045151,44,72,0
9.975191,10.045151,56,80,0
9.975191,10.045151,54,72,0
10.11511,10.185069,44,70,0
10.11511,10.185069,56,78,0
10.11511,10.185069,54,70,0
10.255029,10.392719,56,75,0
10.255029,10.392719,53,67,0
10.255029,10.392719,49,67,0
10.53041,10.672638,49,77,0
10.53041,10.672638,37,69,0
10.814865,10.961938,48,77,0
10.814865,10.961938,36,69,0
11.109011,11.260388,36,69,0
11.109011,11.260388,48,77,0
11.411339,11.676837,53,62,0
11.411339,11.676837,41,55,0
11.676837,11.743723,53,61,0
11.81061,11.877497,53,61,0
11.944384,12.209882,53,62,0
11.944384,12.209882,41,55,0
12.209882,12.276941,53,61,0
12.344002,12.411061,53,61,0
12.478122,12.74362,53,64,0
12.478122,12.74362,41,57,0
12.74362,12.810506,53,62,0
12.877393,12.94428,53,62,0
13.011167,13.271133,53,65,0
13.011167,13.271133,41,58,0
13.276665,13.344785,53,45,0
13.412905,13.481025,53,46,0
13.549145,13.814643,41,40,0
13.549145,13.814643,29,36,0
13.814643,13.881702,41,38,0
13.948763,14.015822,41,38,0
14.082883,14.348381,41,40,0
14.082883,14.348381,29,36,0
14.348381,14.415441,41,38,0
14.482501,14.549561,41,38,0
14.616621,14.882118,41,40,0
14.616621,14.882118,29,36,0
14.882118,14.949005,41,38,0
15.015892,15.082779,41,38,0
15.149666,15.415164,41,40,0
15.149666,15.415164,29,36,0
15.415164,15.483105,41,38,0
15.551045,15.618986,41,38,0
15.686928,15.952426,53,67,0
15.952426,16.019312,50,62,0
16.086199,16.153086,50,62,0
16.219973,16.48547,51,69,0
16.48547,16.55253,48,65,0
16.61959,16.686651,48,65,0
16.75371,17.019209,47,69,0
17.019209,17.08627,43,66,0
17.153328,17.220388,43,66,0
17.287449,17.552946,48,70,0
17.552946,17.619833,43,70,0
17.68672,17.753607,43,70,0
17.820494,18.08599,50,76,0
18.08599,18.152878,43,73,0
18.219765,18.286652,43,73,0
18.353539,18.619036,51,78,0
18.619036,18.685923,43,75,0
18.75281,18.819696,43,75,0
18.886583,19.161335,51,82,0
19.167181,19.305979,49,82,0
19.167181,19.305979,37,73,0
19.444778,19.583578,49,82,0
19.444778,19.583578,37,73,0
19.722376,19.861176,49,82,0
19.722376,19.861176,37,73,0
19.999975,20.140272,49,82,0
19.999975,20.140272,37,73,0
20.280571,20.418629,53,82,0
20.280571,20.418629,41,73,0
20.556688,20.832804,44,67,0
20.556688,20.832804,53,67,0
20.556688,20.832804,56,75,0
20.832804,20.90239,56,80,0
20.832804,20.90239,53,72,0
20.832804,20.90239,44,72,0
20.971975,21.041563,56,82,0
20.971975,21.041563,53,73,0
20.971975,21.041563,44,73,0
21.111149,21.38653,54,75,0
21.111149,21.38653,56,84,0
21.111149,21.38653,44,75,0
21.38653,21.45649,44,72,0
21.38653,21.45649,56,80,0
21.38653,21.45649,54,72,0
21.52645,21.596409,44,70,0
21.52645,21.596409,56,78,0
21.52645,21.596409,54,70,0
21.666368,21.804058,56,75,0
21.666368,21.804058,53,67,0
21.666368,21.804058,49,67,0
21.941748,22.083977,49,77,0
21.941748,22.083977,37,69,0
22.226204,22.368725,48,77,0
22.226204,22.368725,36,69,0
22.512203,22.65675,48,77,0
22.512203,22.65675,36,69,0
22.802109,23.067606,60,40,0
22.802109,23.067606,58,36,0
23.067606,23.134493,60,39,0
23.067606,23.134493,55,35,0
23.20138,23.268267,60,39,0
23.20138,23.268267,55,35,0
23.335154,23.60065,60,40,0
23.335154,23.60065,56,36,0
23.60065,23.667538,60,38,0
23.60065,23.667538,53,34,0
23.734425,23.801311,60,38,0
23.734425,23.801311,53,34,0
23.868198,24.133696,56,40,0
23.868198,24.133696,54,36,0
24.133696,24.201458,56,38,0
24.133696,24.201458,48,34,0
24.269222,24.336985,56,38,0
24.269222,24.336985,48,34,0
24.404747,24.471807,49,76,0
24.404747,24.471807,37,68,0
24.668518,24.735577,56,76,0
24.668518,24.735577,49,68,0
24.94317,25.20867,56,40,0
24.94317,25.20867,54,36,0
25.20867,25.27661,56,38,0
25.20867,25.27661,48,34,0
25.344551,25.412493,56,38,0
25.344551,25.412493,48,34,0
25.480433,25.546762,49,75,0
25.480433,25.546762,37,67,0
25.74352,25.80985,56,75,0
25.74352,25.80985,49,67,0
26.017717,26.283216,65,40,0
26.017717,26.283216,63,36,0
26.283216,26.350103,65,39,0
26.283216,26.350103,60,35,0
26.41699,26.483875,65,39,0
26.41699,26.483875,60,35,0
26.550762,26.816261,65,40,0
26.550762,26.816261,61,36,0
26.816261,26.883148,65,38,0
26.816261,26.883148,58,34,0
26.950035,27.016922,65,38,0
26.950035,27.016922,58,34,0
27.083807,27.349306,61,40,0
27.083807,27.349306,59,36,0
27.349306,27.417606,61,38,0
27.349306,27.417606,53,34,0
27.485905,27.554205,61,38,0
27.485905,27.554205,53,34,0
27.622505,27.689178,54,80,0
27.622505,27.689178,42,72,0
27.886961,27.953634,61,80,0
27.886961,27.953634,54,72,0
28.162004,28.427502,61,40,0
28.162004,28.427502,59,36,0
28.427502,28.495983,61,38,0
28.427502,28.495983,53,34,0
28.564465,28.632944,61,38,0
28.564465,28.632944,53,34,0
28.701426,28.768099,54,78,0
28.701426,28.768099,42,70,0
28.965881,29.033045,61,78,0
28.965881,29.033045,54,70,0
29.241415,29.307789,49,44,0
29.506914,29.573288,54,38,0
29.772411,29.838785,54,40,0
30.037909,30.104284,59,37,0
30.303408,30.369781,42,39,0
30.568905,30.63528,54,36,0
30.834404,30.900778,54,38,0
30.834404,30.900778,42,34,0
31.099901,31.166275,54,32,0
31.099901,31.166275,47,28,0
31.366259,31.432634,54,40,0
31.631758,31.698132,67,36,0
31.897255,31.96363,66,39,0
31.897255,31.96363,54,35,0
32.162754,32.229126,66,32,0
32.162754,32.229126,59,28,0
32.43116,32.497536,50,45,0
32.69666,32.763035,55,40,0
32.96216,33.02853,55,41,0
33.227654,33.29403,60,39,0
33.493153,33.55953,43,40,0
33.75865,33.825024,55,36,0
34.024147,34.090523,55,38,0
34.024147,34.090523,43,34,0
34.289646,34.35602,55,33,0
34.289646,34.35602,48,29,0
34.555145,34.621517,55,41,0
34.82064,34.887016,68,38,0
35.08614,35.152515,67,40,0
35.08614,35.152515,55,36,0
35.35164,35.418015,67,36,0
35.35164,35.418015,60,32,0
35.61917,35.685547,67,45,0
35.88467,35.951046,63,41,0
36.15017,36.216545,63,47,0
36.41567,36.48204,63,45,0
36.41567,36.48204,59,40,0
36.684677,36.75105,63,48,0
36.684677,36.75105,61,43,0
36.950172,37.01655,63,45,0
36.950172,37.01655,58,40,0
37.21567,37.282047,63,48,0
37.21567,37.282047,58,48,0
37.48117,37.547543,63,41,0
37.48117,37.547543,59,41,0
37.7502,37.81657,64,45,0
38.015694,38.08207,61,41,0
38.281193,38.34757,61,45,0
38.54669,38.613064,63,41,0
38.812187,38.878563,68,48,0
39.077686,39.144062,64,45,0
39.343185,39.40956,64,54,0
39.608685,39.675056,64,48,0
39.608685,39.675056,60,48,0
39.876198,39.942574,64,59,0
39.876198,39.942574,62,53,0
40.141697,40.208073,64,54,0
40.141697,40.208073,59,48,0
40.407196,40.47357,64,58,0
40.407196,40.47357,59,52,0
40.672695,40.739067,64,54,0
40.672695,40.739067,60,48,0
40.93819,41.004566,65,59,0
41.20369,41.270065,62,50,0
41.46919,41.53556,62,58,0
41.734684,41.799953,64,50,0
42.00505,42.27055,61,68,0
42.27055,42.37088,61,65,0
42.27055,42.37088,60,58,0
42.404324,42.50465,61,65,0
42.404324,42.50465,58,58,0
42.538094,42.803593,61,68,0
42.538094,42.803593,58,61,0
42.803593,42.903923,61,65,0
42.803593,42.903923,56,58,0
42.937366,43.037697,61,65,0
42.937366,43.037697,55,58,0
43.07114,43.33664,61,68,0
43.07114,43.33664,55,61,0
43.33664,43.43723,61,65,0
43.33664,43.43723,53,58,0
43.470757,43.57738,61,65,0
43.470757,43.57738,52,58,0
43.61867,43.890438,48,82,0
43.61867,43.890438,36,73,0
43.890438,43.996525,48,79,0
44.031887,44.133846,48,79,0
44.173336,44.438835,61,68,0
44.438835,44.539165,61,65,0
44.438835,44.539165,60,58,0
44.57261,44.672935,61,65,0
44.57261,44.672935,58,58,0
44.70638,44.971878,61,68,0
44.70638,44.971878,58,61,0
44.971878,45.07221,61,65,0
44.971878,45.07221,56,58,0
45.10565,45.205982,61,65,0
45.10565,45.205982,55,58,0
45.239426,45.504925,61,68,0
45.239426,45.504925,55,61,0
45.504925,45.605515,61,65,0
45.504925,45.605515,53,58,0
45.63904,45.745667,61,65,0
45.63904,45.745667,52,58,0
45.786957,46.058723,48,84,0
45.786957,46.058723,36,75,0
46.058723,46.16481,48,79,0
46.200172,46.30213,48,79,0
46.34162,46.60712,61,45,0
46.34162,46.60712,55,40,0
46.60712,46.70771,61,40,0
46.60712,46.70771,53,36,0
46.741238,46.855106,61,40,0
46.741238,46.855106,52,36,0
46.893063,47.169918,48,82,0
46.893063,47.169918,36,73,0
47.169918,47.277775,48,79,0
47.313725,47.42158,48,79,0
47.457535,47.590282,48,40,0
47.723034,47.789406,49,38,0
47.85578,47.922157,48,38,0
47.98853,48.12128,49,40,0
48.25403,48.320404,48,38,0
48.386776,48.45315,50,38,0
48.519527,48.652275,52,40,0
48.785023,48.8514,53,38,0
48.917774,48.984146,52,38,0
49.05052,49.18327,53,39,0
49.31602,49.382393,52,42,0
49.44877,49.515144,54,44,0
49.58152,49.847015,55,45,0
49.847015,49.979767,56,47,0
49.979767,50.112514,55,49,0
50.112514,50.378014,58,51,0
50.378014,50.51076,56,54,0
50.51076,50.64351,61,55,0
50.64351,50.90884,60,56,0
50.90884,51.04213,62,60,0
51.04213,51.17582,63,61,0
51.17582,51.451088,64,62,0
51.451088,51.594875,65,65,0
51.594875,51.748344,67,67,0
51.748344,52.013844,53,68,0
51.748344,52.013844,41,68,0
52.013844,52.08073,53,66,0
52.147617,52.214504,53,66,0
52.28139,52.54689,53,68,0
52.28139,52.54689,41,61,0
52.54689,52.61395,53,66,0
52.681007,52.74807,53,65,0
52.81513,53.080627,53,68,0
52.81513,53.080627,41,61,0
53.080627,53.147514,53,66,0
53.2144,53.28129,53,66,0
53.348175,53.60814,53,68,0
53.348175,53.60814,41,61,0
53.61367,53.681793,53,46,0
53.749912,53.81803,53,46,0
53.88615,54.15165,41,40,0
53.88615,54.15165,29,36,0
54.15165,54.218708,41,38,0
54.28577,54.35283,41,38,0
54.41989,54.685387,41,40,0
54.41989,54.685387,29,36,0
54.685387,54.75245,41,38,0
54.819508,54.886566,41,38,0
54.95363,55.219124,41,40,0
54.95363,55.219124,29,36,0
55.219124,55.28601,41,38,0
55.352898,55.419785,41,38,0
55.48667,55.75217,41,40,0
55.48667,55.75217,29,36,0
55.75217,55.82011,41,38,0
55.888054,55.955994,41,38,0
56.023933,56.289433,58,47,0
56.289433,56.35632,55,44,0
56.423206,56.490093,55,44,0
56.55698,56.82248,56,53,0
56.82248,56.889538,53,51,0
56.956596,57.02366,53,51,0
57.090717,57.356216,52,57,0
57.356216,57.423275,48,50,0
57.490337,57.557396,48,51,0
57.624454,57.889954,53,63,0
57.889954,57.95684,48,56,0
58.023727,58.090614,48,56,0
58.1575,58.423,55,72,0
58.423,58.489887,48,65,0
58.55677,58.623657,48,65,0
58.690544,58.956043,56,76,0
58.956043,59.02293,48,72,0
59.089817,59.156704,48,72,0
59.22359,59.49834,56,82,0
59.50419,59.642986,54,82,0
59.50419,59.642986,42,73,0
59.781784,59.920586,54,82,0
59.781784,59.920586,42,73,0
60.059383,60.19818,54,82,0
60.059383,60.19818,42,73,0
60.336983,60.47728,54,82,0
60.336983,60.47728,42,73,0
60.61758,60.75564,58,82,0
60.61758,60.75564,46,73,0
60.893696,61.16981,49,67,0
60.893696,61.16981,58,67,0
60.893696,61.16981,61,75,0
61.16981,61.239395,61,80,0
61.16981,61.239395,58,72,0
61.16981,61.239395,49,72,0
61.308983,61.37857,61,82,0
61.308983,61.37857,58,73,0
61.308983,61.37857,49,73,0
61.448154,61.723537,59,75,0
61.448154,61.723537,61,84,0
61.448154,61.723537,49,75,0
61.723537,61.793495,49,72,0
61.723537,61.793495,61,80,0
61.723537,61.793495,59,72,0
61.863457,61.933414,49,70,0
61.863457,61.933414,61,78,0
61.863457,61.933414,59,70,0
62.003376,62.141064,61,75,0
62.003376,62.141064,58,67,0
62.003376,62.141064,54,67,0
62.278755,62.420982,49,77,0
62.278755,62.420982,37,69,0
62.56321,62.710285,48,77,0
62.56321,62.710285,36,69,0
62.857357,63.008736,48,77,0
62.857357,63.008736,36,69,0
63.16011,63.462868,53,78,0
63.16011,63.462868,41,70,0
63.462868,63.595615,53,40,0
63.595615,63.728363,55,40,0
63.728363,63.993862,57,40,0
63.993862,64.060234,58,40,0
64.12661,64.192986,60,40,0
64.25936,64.52486,60,40,0
64.25936,64.52486,57,36,0
64.25936,64.52486,48,36,0
64.52486,64.59174,60,39,0
64.52486,64.59174,55,35,0
64.52486,64.59174,48,35,0
64.65863,64.72552,60,39,0
64.65863,64.72552,55,35,0
64.65863,64.72552,48,35,0
64.792404,65.05791,60,40,0
64.792404,65.05791,55,36,0
64.792404,65.05791,48,36,0
65.05791,65.124794,60,38,0
65.05791,65.124794,53,34,0
65.05791,65.124794,48,34,0
65.19167,65.25856,60,38,0
65.19167,65.25856,53,34,0
65.19167,65.25856,48,34,0
65.32545,65.59095,60,40,0
65.32545,65.59095,50,36,0
65.32545,65.59095,48,36,0
65.59095,65.658714,60,38,0
65.59095,65.658714,48,34,0
65.59095,65.658714,52,34,0
65.72647,65.794235,60,38,0
65.72647,65.794235,48,34,0
65.72647,65.794235,52,34,0
65.862,65.928505,53,76,0
65.862,65.928505,41,68,0
66.13024,66.19674,60,76,0
66.13024,66.19674,53,68,0
66.40042,66.665924,60,40,0
66.40042,66.665924,57,36,0
66.40042,66.665924,48,36,0
66.665924,66.73281,60,39,0
66.665924,66.73281,57,35,0
66.665924,66.73281,48,35,0
66.7997,66.866585,60,39,0
66.7997,66.866585,57,35,0
66.7997,66.866585,48,35,0
66.93347,67.19897,60,40,0
66.93347,67.19897,55,36,0
66.93347,67.19897,48,36,0
67.19897,67.265854,60,38,0
67.19897,67.265854,53,34,0
67.19897,67.265854,48,34,0
67.33274,67.39963,60,38,0
67.33274,67.39963,53,34,0
67.33274,67.39963,48,34,0
67.466515,67.73201,60,40,0
67.466515,67.73201,50,36,0
67.466515,67.73201,48,36,0
67.73201,67.799774,60,38,0
67.73201,67.799774,48,34,0
67.73201,67.799774,52,34,0
67.86754,67.9353,60,38,0
67.86754,67.9353,48,34,0
67.86754,67.9353,52,34,0
68.00307,68.069565,53,79,0
68.00307,68.069565,41,71,0
68.2713,68.33781,60,79,0
68.2713,68.33781,53,71,0
68.54149,68.806984,60,40,0
68.54149,68.806984,50,36,0
68.54149,68.806984,48,36,0
68.806984,68.876945,60,38,0
68.806984,68.876945,48,34,0
68.806984,68.876945,52,34,0
68.94691,69.01686,60,38,0
68.94691,69.01686,48,34,0
68.94691,69.01686,52,34,0
69.08682,69.15473,53,82,0
69.08682,69.15473,41,73,0
69.36075,69.42866,60,82,0
69.36075,69.42866,53,73,0
69.63401,69.90365,60,40,0
69.63401,69.90365,50,36,0
69.63401,69.90365,48,36,0
69.90365,69.97781,60,38,0
69.90365,69.97781,48,34,0
69.90365,69.97781,52,34,0
70.05199,70.12615,60,38,0
70.05199,70.12615,48,34,0
70.05199,70.12615,52,34,0
70.200325,70.458466,53,84,0
70.200325,70.458466,41,75,0
70.487144,70.767395,53,75,0
71.312355,71.57785,60,40,0
71.312355,71.57785,58,36,0
71.57785,71.64474,60,39,0
71.57785,71.64474,55,35,0
71.711624,71.77851,60,39,0
71.711624,71.77851,55,35,0
71.8454,72.11089,60,40,0
71.8454,72.11089,56,36,0
72.11089,72.17778,60,38,0
72.11089,72.17778,53,34,0
72.24467,72.311554,60,38,0
72.24467,72.311554,53,34,0
72.37844,72.64394,56,40,0
72.37844,72.64394,54,36,0
72.64394,72.7117,56,38,0
72.64394,72.7117,48,34,0
72.779465,72.84723,56,38,0
72.779465,72.84723,48,34,0
72.91499,72.98149,49,76,0
72.91499,72.98149,37,68,0
73.178764,73.24526,56,76,0
73.178764,73.24526,49,68,0
73.453415,73.71892,56,40,0
73.453415,73.71892,54,36,0
73.71892,73.78686,56,38,0
73.71892,73.78686,48,34,0
73.8548,73.92274,56,38,0
73.8548,73.92274,48,34,0
73.99068,74.05701,49,75,0
73.99068,74.05701,37,67,0
74.25377,74.3201,56,75,0
74.25377,74.3201,49,67,0
74.52796,74.793465,65,40,0
74.52796,74.793465,63,36,0
74.793465,74.860344,65,39,0
74.793465,74.860344,60,35,0
74.92723,74.99412,65,39,0
74.92723,74.99412,60,35,0
75.061005,75.32651,65,40,0
75.061005,75.32651,61,36,0
75.32651,75.393394,65,38,0
75.32651,75.393394,58,34,0
75.46028,75.52717,65,38,0
75.46028,75.52717,58,34,0
75.594055,75.85955,61,40,0
75.594055,75.85955,59,36,0
75.85955,75.92785,61,38,0
75.85955,75.92785,53,34,0
75.99615,76.06445,61,38,0
75.99615,76.06445,53,34,0
76.13275,76.199425,54,80,0
76.13275,76.199425,42,72,0
76.39721,76.46388,61,80,0
76.39721,76.46388,54,72,0
76.67225,76.937744,61,40,0
76.67225,76.937744,59,36,0
76.937744,77.006226,61,38,0
76.937744,77.006226,53,34,0
77.07471,77.14319,61,38,0
77.07471,77.14319,53,34,0
77.21167,77.27834,54,78,0
77.21167,77.27834,42,70,0
77.47613,77.54329,61,78,0
77.47613,77.54329,54,70,0
77.75166,77.81803,49,44,0
78.01716,78.083534,54,38,0
78.28265,78.34903,54,40,0
78.54816,78.61453,59,37,0
78.81365,78.88003,42,39,0
79.07915,79.14552,54,36,0
79.34465,79.411026,54,38,0
79.34465,79.411026,42,34,0
79.610146,79.67652,54,32,0
79.610146,79.67652,47,28,0
79.8765,79.94288,54,40,0
80.142006,80.208374,67,36,0
80.4075,80.47388,66,39,0
80.4075,80.47388,54,35,0
80.673,80.73937,66,32,0
80.673,80.73937,59,28,0
80.94141,81.00778,50,45,0
81.2069,81.27328,55,40,0
81.472404,81.53877,55,41,0
81.7379,81.804276,60,39,0
82.003395,82.06977,43,40,0
82.2689,82.33527,55,36,0
82.53439,82.60077,55,38,0
82.53439,82.60077,43,34,0
82.79989,82.866264,55,33,0
82.79989,82.866264,48,29,0
83.06539,83.13177,55,41,0
83.33089,83.39726,68,38,0
83.59638,83.66276,67,40,0
83.59638,83.66276,55,36,0
83.861885,83.92826,67,36,0
83.861885,83.92826,60,32,0
84.12942,84.19579,67,45,0
84.39491,84.46129,63,41,0
84.660416,84.72679,63,47,0
84.92591,84.99229,63,45,0
84.92591,84.99229,59,40,0
85.19492,85.26129,63,48,0
85.19492,85.26129,61,43,0
85.46042,85.526794,63,45,0
85.46042,85.526794,58,40,0
85.725914,85.79229,63,48,0
85.725914,85.79229,58,43,0
85.99142,86.057785,63,41,0
85.99142,86.057785,59,36,0
86.260445,86.32681,64,45,0
86.52594,86.592316,61,41,0
86.791435,86.85781,61,45,0
87.05694,87.123314,63,41,0
87.32243,87.38881,68,48,0
87.58793,87.654305,64,45,0
87.85343,87.91981,64,54,0
88.11893,88.1853,64,48,0
88.11893,88.1853,60,43,0
88.386444,88.45282,64,59,0
88.386444,88.45282,62,53,0
88.65194,88.718315,64,54,0
88.65194,88.718315,59,48,0
88.91744,88.98382,64,58,0
88.91744,88.98382,59,52,0
89.18294,89.24931,64,54,0
89.18294,89.24931,60,48,0
89.44843,89.51481,65,59,0
89.713936,89.78031,62,50,0
89.97943,90.04581,62,58,0
90.244934,90.310196,64,50,0
90.5153,90.78079,61,68,0
90.78079,90.88113,61,65,0
90.78079,90.88113,60,58,0
90.914566,91.0149,61,65,0
90.914566,91.0149,58,65,0
91.04834,91.313835,61,68,0
91.04834,91.313835,58,61,0
91.313835,91.41417,61,65,0
91.313835,91.41417,56,58,0
91.44761,91.54794,61,65,0
91.44761,91.54794,55,58,0
91.58138,91.846886,61,68,0
91.58138,91.846886,55,61,0
91.846886,91.94747,61,65,0
91.846886,91.94747,53,58,0
91.981,92.08762,61,65,0
91.981,92.08762,52,58,0
92.12892,92.40068,48,82,0
92.12892,92.40068,36,82,0
92.40068,92.50677,48,79,0
92.54213,92.6441,48,79,0
92.68358,92.94908,61,68,0
92.94908,93.04941,61,65,0
92.94908,93.04941,60,58,0
93.082855,93.18318,61,65,0
93.082855,93.18318,58,58,0
93.21663,93.482124,61,68,0
93.21663,93.482124,58,61,0
93.482124,93.58245,61,65,0
93.482124,93.58245,56,58,0
93.6159,93.716225,61,65,0
93.6159,93.716225,55,58,0
93.74967,94.01517,61,68,0
93.74967,94.01517,55,61,0
94.01517,94.11576,61,65,0
94.01517,94.11576,53,58,0
94.14929,94.25591,61,65,0
94.14929,94.25591,52,58,0
94.2972,94.56897,48,85,0
94.2972,94.56897,36,76,0
94.56897,94.67506,48,79,0
94.71042,94.81238,48,79,0
94.85187,95.11736,61,45,0
94.85187,95.11736,55,40,0
95.11736,95.21796,61,40,0
95.11736,95.21796,53,36,0
95.25149,95.36092,61,40,0
95.25149,95.36092,52,36,0
95.403305,95.68016,48,85,0
95.403305,95.68016,36,76,0
95.68016,95.78802,48,79,0
95.82397,95.927635,48,79,0
95.96778,96.100525,48,40,0
96.23328,96.29965,49,38,0
96.36603,96.4324,48,38,0
96.49877,96.63152,49,40,0
96.764275,96.83065,48,38,0
96.897026,96.963394,50,38,0
97.02977,97.16252,52,40,0
97.29527,97.36164,53,38,0
97.42802,97.49439,52,38,0
97.56077,97.69352,53,39,0
97.82626,97.89264,52,42,0
97.959015,98.02539,54,44,0
98.09177,98.35726,55,45,0
98.35726,98.49001,56,47,0
98.49001,98.62276,55,49,0
98.62276,98.88826,58,51,0
98.88826,99.021,56,54,0
99.021,99.153755,61,55,0
99.153755,99.41908,60,56,0
99.41908,99.552376,62,60,0
99.552376,99.686066,63,61,0
99.686066,99.961334,64,62,0
99.961334,100.10512,65,65,0
100.10512,100.25859,67,67,0
100.25859,100.524086,53,68,0
100.25859,100.524086,41,61,0
100.524086,100.59097,53,66,0
100.65786,100.72475,53,66,0
100.79163,101.05714,53,68,0
100.79163,101.05714,41,61,0
101.05714,101.12419,53,66,0
101.19125,101.258316,53,65,0
101.32537,101.59087,53,68,0
101.32537,101.59087,41,61,0
101.59087,101.65776,53,66,0
101.72465,101.85842,53,66,0
101.85842,102.118385,53,68,0
101.85842,102.118385,41,61,0
102.12392,102.19204,53,45,0
102.260155,102.32828,53,45,0
102.39639,102.661896,41,40,0
102.39639,102.661896,29,36,0
102.661896,102.72896,41,38,0
102.79601,102.863075,41,38,0
102.93014,103.19563,41,40,0
102.93014,103.19563,29,36,0
103.19563,103.262695,41,38,0
103.32975,103.39681,41,38,0
103.463875,103.72937,41,40,0
103.463875,103.72937,29,36,0
103.72937,103.79626,41,38,0
103.863144,103.93003,41,38,0
103.99692,104.26241,41,40,0
103.99692,104.26241,29,36,0
104.26241,104.33036,41,38,0
104.3983,104.46624,41,38,0
104.53418,104.799675,58,47,0
104.799675,104.86656,55,44,0
104.93345,105.000336,55,44,0
105.06722,105.332726,56,53,0
105.332726,105.39978,53,51,0
105.46684,105.533905,53,51,0
105.60096,105.86646,52,57,0
105.86646,105.93352,48,50,0
106.00058,106.06764,48,51,0
106.1347,106.4002,53,63,0
106.4002,106.46709,48,56,0
106.53397,106.60086,48,56,0
106.66775,106.93324,55,72,0
106.93324,107.00013,48,65,0
107.06702,107.1339,48,65,0
107.20079,107.466286,56,76,0
107.466286,107.53317,48,72,0
107.60006,107.66695,48,72,0
107.73383,108.014435,56,82,0
108.014435,108.15323,54,82,0
108.014435,108.15323,42,73,0
108.29203,108.43083,54,82,0
108.29203,108.43083,42,73,0
108.569626,108.70843,54,82,0
108.569626,108.70843,42,73,0
108.84723,108.987526,54,82,0
108.84723,108.987526,42,73,0
109.12782,109.265884,58,82,0
109.12782,109.265884,46,73,0
109.40394,109.68005,49,67,0
109.40394,109.68005,58,67,0
109.40394,109.68005,61,75,0
109.68005,109.74964,61,80,0
109.68005,109.74964,58,72,0
109.68005,109.74964,49,72,0
109.81923,109.88882,61,82,0
109.81923,109.88882,58,73,0
109.81923,109.88882,49,73,0
109.9584,110.23378,59,75,0
109.9584,110.23378,61,84,0
109.9584,110.23378,49,75,0
110.23378,110.30374,49,72,0
110.23378,110.30374,61,80,0
110.23378,110.30374,59,72,0
110.3737,110.44366,49,70,0
110.3737,110.44366,61,78,0
110.3737,110.44366,59,70,0
110.51362,110.65131,61,75,0
110.51362,110.65131,58,67,0
110.51362,110.65131,54,67,0
110.789,110.93123,49,77,0
110.789,110.93123,37,69,0
111.073456,111.22053,48,77,0
111.073456,111.22053,36,69,0
111.3676,111.51898,48,77,0
111.3676,111.51898,36,69,0
111.67036,111.973114,53,78,0
111.67036,111.973114,41,78,0
111.973114,112.10586,53,40,0
112.10586,112.23861,55,40,0
112.23861,112.504105,57,40,0
112.504105,112.57048,58,40,0
112.636856,112.70323,60,40,0
112.76961,113.0351,60,40,0
112.76961,113.0351,57,36,0
112.76961,113.0351,48,36,0
113.0351,113.10199,60,39,0
113.0351,113.10199,55,35,0
113.0351,113.10199,48,35,0
113.16888,113.23576,60,39,0
113.16888,113.23576,55,35,0
113.16888,113.23576,48,35,0
113.30265,113.568146,60,40,0
113.30265,113.568146,55,36,0
113.30265,113.568146,48,36,0
113.568146,113.63503,60,38,0
113.568146,113.63503,53,34,0
113.568146,113.63503,48,34,0
113.70192,113.76881,60,38,0
113.70192,113.76881,53,34,0
113.70192,113.76881,48,34,0
113.83569,114.1012,60,40,0
113.83569,114.1012,50,36,0
113.83569,114.1012,48,36,0
114.1012,114.16895,60,38,0
114.1012,114.16895,48,34,0
114.1012,114.16895,52,34,0
114.23672,114.30448,60,38,0
114.23672,114.30448,48,34,0
114.23672,114.30448,52,34,0
114.372246,114.43874,53,76,0
114.372246,114.43874,41,68,0
114.64049,114.706985,60,76,0
114.64049,114.706985,53,68,0
114.91067,115.17617,60,40,0
114.91067,115.17617,57,36,0
114.91067,115.17617,48,36,0
115.17617,115.24306,60,39,0
115.17617,115.24306,57,35,0
115.17617,115.24306,48,35,0
115.309944,115.37682,60,39,0
115.309944,115.37682,57,35,0
115.309944,115.37682,48,35,0
115.44371,115.70921,60,40,0
115.44371,115.70921,55,36,0
115.44371,115.70921,48,36,0
115.70921,115.7761,60,38,0
115.70921,115.7761,53,34,0
115.70921,115.7761,48,34,0
115.84299,115.909874,60,38,0
115.84299,115.909874,53,34,0
115.84299,115.909874,48,34,0
115.97676,116.242256,60,40,0
115.97676,116.242256,50,36,0
115.97676,116.242256,48,36,0
116.242256,116.31002,60,38,0
116.242256,116.31002,48,34,0
116.242256,116.31002,52,34,0
116.377785,116.44555,60,38,0
116.377785,116.44555,48,34,0
116.377785,116.44555,52,34,0
116.513306,116.57981,53,79,0
116.513306,116.57981,41,71,0
116.78155,116.84805,60,79,0
116.78155,116.84805,53,71,0
117.051735,117.31723,60,40,0
117.051735,117.31723,50,36,0
117.051735,117.31723,48,36,0
117.31723,117.389336,60,38,0
117.31723,117.389336,48,34,0
117.31723,117.389336,52,34,0
117.46144,117.53355,60,38,0
117.46144,117.53355,48,34,0
117.46144,117.53355,52,34,0
117.60565,117.67541,53,82,0
117.60565,117.67541,41,73,0
117.88701,117.956764,60,82,0
117.88701,117.956764,53,73,0
118.1643,118.43394,60,40,0
118.1643,118.43394,50,36,0
118.1643,118.43394,48,36,0
118.43394,118.51483,60,38,0
118.43394,118.51483,48,34,0
118.43394,118.51483,52,34,0
118.595726,118.67662,60,38,0
118.595726,118.67662,48,34,0
118.595726,118.67662,52,34,0
118.757515,119.05497,53,84,0
118.757515,119.05497,41,75,0
119.08802,119.418526,53,84,0
