start_time,end_time,note_value,velocity,instrument_program_number
0.0,2.2310135,79,95,0
0.0,2.2310135,67,84,0
2.278482,2.6922367,71,44,0
2.6922367,2.830155,72,38,0
2.830155,3.2275403,74,51,0
3.394489,3.7792099,74,42,0
3.940838,4.3252435,74,42,0
4.486739,4.9004936,72,46,0
4.9004936,5.038412,74,47,0
5.038412,5.8659215,75,53,0
5.8659215,6.141758,74,44,0
6.141758,6.693431,72,39,0
6.693431,7.1007447,74,49,0
7.1007447,7.243154,72,42,0
7.243154,7.7948275,71,46,0
7.7948275,8.208582,69,44,0
8.208582,8.3465,71,36,0
8.3465,8.914834,72,48,0
8.914834,9.334141,74,43,0
9.334141,9.482186,75,44,0
9.482186,11.258736,74,51,0
11.258736,11.535722,71,44,0
11.258736,11.535722,67,37,0
11.258736,11.535722,62,37,0
11.67249,11.741449,72,42,0
11.67249,11.741449,67,35,0
11.67249,11.741449,63,35,0
11.810409,12.082246,74,51,0
11.810409,12.082246,67,43,0
11.810409,12.082246,65,43,0
12.351828,12.627395,74,42,0
12.351828,12.627395,67,35,0
12.351828,12.627395,65,35,0
12.900675,13.174763,74,42,0
12.900675,13.174763,67,35,0
12.900675,13.174763,65,35,0
13.446576,13.723561,72,39,0
13.446576,13.723561,67,39,0
13.446576,13.723561,63,39,0
13.860331,13.92929,74,47,0
13.860331,13.92929,67,39,0
13.860331,13.92929,65,39,0
13.998249,14.943665,75,53,0
13.998249,14.943665,67,45,0
14.943665,15.012157,74,44,0
14.943665,15.012157,67,37,0
14.943665,15.012157,65,37,0
15.08065,15.354623,72,39,0
15.08065,15.354623,67,33,0
15.08065,15.354623,63,33,0
15.628595,15.90127,74,49,0
15.628595,15.90127,68,41,0
15.628595,15.90127,65,41,0
16.03591,16.107115,72,42,0
16.03591,16.107115,68,42,0
16.03591,16.107115,63,35,0
16.178318,16.454155,71,46,0
16.178318,16.454155,67,39,0
16.178318,16.454155,62,39,0
16.729992,17.006977,69,44,0
16.729992,17.006977,67,37,0
16.729992,17.006977,60,37,0
17.143747,17.212706,71,36,0
17.143747,17.212706,67,30,0
17.143747,17.212706,62,30,0
17.281666,17.563435,72,48,0
17.281666,17.563435,67,40,0
17.281666,17.563435,63,40,0
17.864943,18.14914,75,53,0
17.864943,18.14914,67,45,0
18.28947,18.363493,74,44,0
18.28947,18.363493,67,37,0
18.28947,18.363493,65,37,0
18.437515,20.214066,72,51,0
18.437515,20.214066,67,43,0
18.437515,20.214066,63,43,0
20.214066,20.62782,74,44,0
20.62782,20.765738,75,38,0
20.765738,21.15942,77,51,0
21.324814,21.71307,77,42,0
21.876183,22.260588,77,42,0
22.422085,22.835838,75,46,0
22.835838,22.973757,74,47,0
22.973757,23.801266,79,53,0
23.801266,24.077103,77,44,0
24.077103,24.636179,75,39,0
24.636179,25.043493,74,49,0
25.043493,25.185902,72,42,0
25.185902,25.737576,71,46,0
25.737576,26.15133,69,44,0
26.15133,26.289248,71,36,0
26.289248,26.8644,72,48,0
26.8644,27.283709,77,43,0
27.283709,27.431755,75,44,0
27.431755,29.208303,74,51,0
29.208303,29.485289,74,44,0
29.208303,29.485289,70,37,0
29.208303,29.485289,65,37,0
29.622059,29.691017,75,42,0
29.622059,29.691017,70,35,0
29.622059,29.691017,67,35,0
29.759975,30.036963,77,51,0
29.759975,30.036963,70,43,0
29.759975,30.036963,68,43,0
30.31165,30.588634,77,42,0
30.31165,30.588634,70,35,0
30.31165,30.588634,68,35,0
30.863321,31.13741,77,42,0
30.863321,31.13741,70,35,0
30.863321,31.13741,68,35,0
31.409224,31.686209,75,46,0
31.409224,31.686209,70,39,0
31.409224,31.686209,67,39,0
31.822977,31.891937,74,47,0
31.822977,31.891937,70,39,0
31.822977,31.891937,65,39,0
31.960896,32.90631,79,56,0
31.960896,32.90631,70,47,0
32.90631,32.974804,77,49,0
32.90631,32.974804,70,41,0
32.90631,32.974804,68,41,0
33.043297,33.317272,75,42,0
33.043297,33.317272,70,35,0
33.043297,33.317272,67,35,0
33.591244,33.86392,74,52,0
33.591244,33.86392,68,44,0
33.591244,33.86392,65,44,0
33.998558,34.069763,72,42,0
33.998558,34.069763,68,35,0
33.998558,34.069763,63,35,0
34.14097,34.4168,71,46,0
34.14097,34.4168,67,39,0
34.14097,34.4168,62,39,0
34.69264,34.969624,69,44,0
34.69264,34.969624,67,37,0
34.69264,34.969624,60,37,0
35.106396,35.175354,71,36,0
35.106396,35.175354,67,30,0
35.106396,35.175354,62,30,0
35.244312,35.52608,72,48,0
35.244312,35.52608,67,40,0
35.244312,35.52608,63,40,0
35.835476,36.119675,75,53,0
35.835476,36.119675,67,45,0
36.260006,36.334026,74,44,0
36.260006,36.334026,67,37,0
36.260006,36.334026,65,37,0
36.40805,38.1846,72,51,0
36.40805,38.1846,67,43,0
36.40805,38.1846,63,43,0
38.1846,38.598354,71,48,0
38.598354,38.73627,72,41,0
38.73627,39.12474,74,56,0
39.287945,39.676414,74,46,0
39.287945,39.7017,71,46,0
39.287945,39.7017,68,39,0
39.83962,40.224022,74,46,0
39.83962,40.249043,72,39,0
39.83962,40.249043,69,39,0
40.385517,40.799274,72,50,0
40.799274,40.93719,74,51,0
40.385517,40.93719,69,39,0
40.93719,41.002796,72,50,0
41.002796,41.0684,74,53,0
41.0684,41.75246,75,58,0
41.75246,42.026886,74,48,0
42.026886,42.575733,72,42,0
40.93719,42.575733,69,49,0
42.575733,42.983044,74,55,0
42.983044,43.125454,72,48,0
42.575733,43.125454,69,40,0
43.125454,43.677128,71,52,0
43.125454,43.677128,67,44,0
43.677128,44.09088,69,54,0
43.677128,44.09088,67,46,0
44.09088,44.2288,71,44,0
44.09088,44.2288,67,36,0
44.2288,44.79234,72,59,0
44.2288,44.79234,67,50,0
44.79234,45.214993,74,61,0
44.79234,45.214993,67,51,0
45.214993,45.36304,75,62,0
45.214993,45.36304,67,52,0
45.36304,47.139587,74,73,0
45.36304,47.139587,67,61,0
47.139587,47.416576,71,77,0
47.139587,47.416576,67,64,0
47.139587,47.416576,62,64,0
47.553345,47.622303,72,73,0
47.553345,47.622303,67,61,0
47.553345,47.622303,63,61,0
47.69126,47.968246,74,89,0
47.69126,47.968246,67,74,0
47.69126,47.968246,65,74,0
48.242935,48.51992,74,81,0
48.242935,48.51992,67,68,0
48.242935,48.51992,65,68,0
48.79461,49.068695,74,81,0
48.79461,49.068695,67,68,0
48.79461,49.068695,65,68,0
49.340508,49.617496,72,80,0
49.340508,49.617496,67,68,0
49.340508,49.617496,63,68,0
49.754265,49.823223,74,82,0
49.754265,49.823223,67,69,0
49.754265,49.823223,65,69,0
49.89218,50.837597,75,92,0
49.89218,50.837597,67,78,0
50.837597,50.974583,74,77,0
50.837597,50.974583,67,64,0
50.837597,50.974583,65,64,0
50.974583,51.248558,72,68,0
50.974583,51.248558,67,57,0
50.974583,51.248558,63,57,0
51.52253,51.795204,74,85,0
51.52253,51.795204,68,72,0
51.52253,51.795204,65,72,0
51.929844,52.00105,72,73,0
51.929844,52.00105,68,61,0
51.929844,52.00105,63,61,0
52.07225,52.348087,71,80,0
52.07225,52.348087,67,68,0
52.07225,52.348087,62,68,0
52.623924,52.90091,69,77,0
52.623924,52.90091,67,64,0
52.623924,52.90091,60,64,0
53.03768,53.10664,71,62,0
53.03768,53.10664,67,52,0
53.03768,53.10664,62,52,0
53.1756,53.457367,72,83,0
53.1756,53.457367,67,70,0
53.1756,53.457367,63,70,0
53.758877,54.04307,75,92,0
53.758877,54.04307,67,78,0
54.183403,54.257427,74,77,0
54.183403,54.257427,67,64,0
54.183403,54.257427,65,64,0
54.331448,56.107998,72,89,0
54.331448,56.107998,67,74,0
54.331448,56.107998,63,74,0
56.107998,56.52175,74,55,0
56.52175,56.65967,75,47,0
56.65967,57.04814,77,64,0
57.211346,57.599815,77,52,0
57.211346,57.6251,71,44,0
57.211346,57.6251,68,44,0
57.211346,57.6251,74,44,0
57.763016,58.12624,77,52,0
57.763016,58.14988,70,44,0
57.763016,58.14988,68,44,0
58.278835,58.339653,75,47,0
58.339653,58.40047,77,47,0
58.40047,58.714607,75,70,0
58.714607,58.881607,74,58,0
58.278835,58.881607,68,39,0
58.278835,58.881607,70,39,0
58.881607,59.426197,67,56,0
58.881607,59.426197,70,56,0
58.881607,59.83972,79,66,0
59.83972,59.977566,77,55,0
59.426197,59.977566,68,36,0
59.426197,59.977566,74,44,0
59.977566,60.528934,75,48,0
59.977566,60.528934,67,56,0
60.528934,60.93625,74,63,0
60.528934,60.93625,65,53,0
60.93625,61.078655,72,54,0
60.93625,61.078655,63,46,0
60.528934,61.078655,68,46,0
61.078655,61.63033,71,59,0
61.078655,61.63033,67,50,0
61.078655,61.63033,62,50,0
61.63033,62.044083,69,61,0
61.63033,62.044083,67,52,0
61.63033,62.044083,60,52,0
62.044083,62.182003,71,50,0
62.044083,62.182003,67,42,0
62.044083,62.182003,62,42,0
62.182003,62.74554,72,68,0
62.182003,62.74554,67,57,0
62.182003,62.74554,63,57,0
62.74554,63.168198,77,78,0
62.74554,63.168198,67,59,0
63.168198,63.316242,75,71,0
63.168198,63.316242,67,60,0
63.316242,65.09279,74,84,0
63.316242,65.09279,67,71,0
65.09279,65.369774,74,83,0
65.09279,65.369774,70,70,0
65.09279,65.369774,65,70,0
65.506546,65.57551,75,79,0
65.506546,65.57551,70,67,0
65.506546,65.57551,67,67,0
65.64446,65.92145,77,96,0
65.64446,65.92145,70,81,0
65.64446,65.92145,68,64,0
66.19614,66.47312,77,88,0
66.19614,66.47312,70,75,0
66.19614,66.47312,68,60,0
66.74781,67.0219,77,88,0
66.74781,67.0219,70,75,0
66.74781,67.0219,68,60,0
67.29371,67.570694,75,86,0
67.29371,67.570694,70,73,0
67.29371,67.570694,67,58,0
67.707466,67.77643,74,89,0
67.707466,67.77643,70,76,0
67.707466,67.77643,65,60,0
67.84538,68.7908,79,99,0
67.84538,68.7908,70,84,0
68.7908,68.92779,77,83,0
68.7908,68.92779,70,70,0
68.7908,68.92779,68,70,0
68.92779,69.20176,75,74,0
68.92779,69.20176,70,62,0
68.92779,69.20176,67,62,0
69.47573,69.748405,74,92,0
69.47573,69.748405,68,77,0
69.47573,69.748405,65,77,0
69.88304,69.95425,72,79,0
69.88304,69.95425,68,67,0
69.88304,69.95425,63,67,0
70.02545,70.30129,71,86,0
70.02545,70.30129,67,73,0
70.02545,70.30129,62,73,0
70.577126,70.85411,69,83,0
70.577126,70.85411,67,70,0
70.577126,70.85411,60,70,0
70.99088,71.05984,71,67,0
70.99088,71.05984,67,57,0
70.99088,71.05984,62,57,0
71.1288,71.41057,72,90,0
71.1288,71.41057,67,76,0
71.1288,71.41057,63,76,0
71.73033,72.01453,75,99,0
71.73033,72.01453,67,84,0
72.15486,72.22888,74,83,0
72.15486,72.22888,67,70,0
72.15486,72.22888,65,70,0
72.3029,74.07945,72,96,0
72.3029,74.07945,67,81,0
72.3029,74.07945,63,81,0
74.07945,74.50398,75,78,0
74.50398,74.65203,74,70,0
74.65203,76.42857,72,83,0
74.65203,76.42857,68,71,0
74.65203,76.42857,63,71,0
76.42857,76.508095,72,69,0
76.508095,76.869774,75,78,0
76.869774,77.01782,74,70,0
77.01782,78.79437,72,83,0
77.01782,78.79437,67,71,0
78.79437,79.20168,74,78,0
79.20168,79.34409,75,67,0
79.34409,79.89577,77,73,0
79.34409,79.89577,72,62,0
79.34409,79.89577,68,62,0
79.89577,80.17275,75,70,0
79.89577,80.17275,72,59,0
79.89577,80.17275,67,59,0
80.309525,80.37848,74,57,0
80.309525,80.37848,65,48,0
80.44744,81.030716,72,76,0
80.44744,81.030716,63,64,0
81.030716,81.603294,67,60,0
81.030716,81.60576,71,71,0
81.030716,81.60576,62,60,0
81.603294,83.379845,67,57,0
81.603294,83.379845,63,57,0
81.603294,83.379845,72,68,0
83.379845,83.80437,75,60,0
83.80437,83.967735,74,54,0
83.967735,85.74428,72,65,0
83.967735,85.74428,68,55,0
83.967735,85.74428,63,55,0
85.74428,86.16881,75,59,0
86.16881,86.33581,74,52,0
86.33581,88.11236,72,61,0
86.33581,88.11236,67,51,0
88.11236,88.51968,73,54,0
88.51968,88.66209,75,46,0
88.66209,88.72712,73,40,0
88.72712,88.79215,75,43,0
88.79215,89.20568,77,51,0
88.66209,89.20568,68,40,0
89.20568,89.48251,75,49,0
89.20568,89.48251,68,41,0
89.61921,89.68813,73,39,0
89.61921,89.68813,68,33,0
89.75705,90.03882,72,53,0
89.75705,90.03882,68,44,0
90.34033,90.623344,67,37,0
90.34033,90.623344,63,37,0
90.34033,90.62453,61,37,0
90.34033,90.62453,70,44,0
90.9129,92.0775,68,47,0
90.9129,92.0775,63,39,0
90.9129,92.0775,60,39,0
92.6499,93.06366,68,53,0
93.06366,93.217,72,47,0
93.217,93.64025,75,57,0
93.781334,94.1911,75,51,0
94.32769,94.737114,75,53,0
94.87359,95.2997,75,52,0
95.44997,96.541046,77,58,0
96.541046,97.64003,75,55,0
97.64003,98.733116,73,58,0
98.733116,99.8289,72,52,0
99.8289,100.37775,70,40,0
100.37775,100.9266,73,34,0
100.9266,101.48308,72,40,0
101.48308,102.04741,70,37,0
102.04741,103.19247,68,48,0
103.75154,104.1653,68,53,0
104.1653,104.31864,72,47,0
104.31864,104.71603,75,57,0
104.88297,105.29273,75,51,0
104.88297,105.29273,63,42,0
105.42932,105.838745,75,53,0
105.42932,105.838745,63,45,0
105.97522,106.40133,75,52,0
105.97522,106.40133,63,44,0
106.58925,107.69075,76,58,0
106.58925,107.69075,64,49,0
107.69075,108.789734,75,55,0
107.69075,108.789734,63,46,0
108.789734,109.88282,73,58,0
109.88282,110.69746,71,52,0
110.69746,110.965744,70,45,0
110.965744,111.50415,68,40,0
111.50415,111.571526,68,33,0
111.571526,112.04314,76,52,0
112.04314,112.599625,75,46,0
112.599625,113.163956,73,42,0
113.163956,114.870544,71,48,0
114.870544,115.2843,71,57,0
115.2843,115.437645,75,50,0
115.437645,115.99817,78,62,0
115.437645,115.99817,66,46,0
115.99934,116.54455,78,59,0
115.99934,116.54455,66,48,0
116.545685,117.090454,79,67,0
116.545685,117.090454,67,57,0
117.09159,117.64211,80,71,0
117.09159,117.64211,68,59,0
117.643265,118.18847,82,79,0
117.643265,118.18847,70,64,0
118.18961,118.734375,85,77,0
118.18961,118.734375,73,64,0
118.73551,119.28603,83,74,0
118.73551,119.28603,71,62,0
119.287186,119.70094,82,58,0
119.287186,119.70094,70,49,0
119.70094,119.84612,80,51,0
119.70094,119.84612,68,42,0
119.84612,120.413124,79,58,0
119.84612,120.413124,67,49,0
120.413124,120.969604,79,55,0
120.413124,120.969604,67,46,0
120.969604,121.242775,80,53,0
120.969604,121.242775,68,45,0
121.242775,121.51595,79,45,0
121.242775,121.51595,67,37,0
121.51595,121.79812,77,46,0
121.51595,121.79812,65,38,0
121.79812,122.092545,79,45,0
121.79812,122.092545,67,37,0
122.092545,123.79913,80,48,0
122.092545,123.79913,68,40,0
123.79913,124.21289,80,57,0
124.21289,124.366234,84,50,0
124.366234,124.78948,87,68,0
124.366234,124.78948,75,57,0
124.930565,125.34033,87,62,0
124.930565,125.34033,75,52,0
125.47691,125.886345,87,67,0
125.47691,125.886345,75,56,0
126.02282,126.43657,87,71,0
126.02282,126.43657,75,60,0
126.57449,127.119705,89,69,0
126.57449,127.119705,77,58,0
127.12084,127.6656,91,72,0
127.12084,127.6656,79,57,0
127.66674,128.21727,92,69,0
127.66674,128.21727,80,58,0
128.21841,128.63217,87,61,0
128.21841,128.63217,75,51,0
128.77734,129.34169,87,66,0
128.77734,129.34169,75,56,0
129.34169,129.61485,85,54,0
129.34169,129.61485,73,45,0
129.88803,130.43393,85,62,0
129.88803,130.43393,73,52,0
130.43393,130.70976,84,55,0
130.43393,130.70976,72,46,0
130.98561,131.53445,82,56,0
131.53445,132.0833,85,50,0
132.0833,132.63979,84,57,0
132.63979,133.20412,82,49,0
133.20412,133.39676,80,53,0
133.39676,133.5894,63,48,0
133.5894,133.78204,68,48,0
133.78204,133.97104,72,59,0
133.97104,134.16003,68,48,0
134.16003,134.34904,63,49,0
134.34904,134.5354,75,59,0
134.5354,134.72176,72,53,0
134.72176,134.90811,68,54,0
134.90811,135.09201,68,59,0
135.09201,135.2759,72,53,0
135.2759,135.47522,75,53,0
135.47522,135.66245,75,59,0
135.66245,135.84967,70,53,0
135.84967,136.03691,67,53,0
136.03691,136.21902,75,59,0
136.21902,136.40114,70,52,0
136.40114,136.58325,67,52,0
136.58325,136.76523,75,59,0
136.76523,136.94719,72,51,0
136.94719,137.12915,68,51,0
137.12915,137.31305,70,62,0
137.31305,137.50085,75,55,0
137.50085,137.69257,79,57,0
137.69257,137.87552,80,66,0
137.87552,138.05847,75,59,0
138.05847,138.24142,68,59,0
138.24142,138.41713,80,67,0
138.41713,138.59285,74,59,0
138.59285,138.78365,68,59,0
138.78365,138.96744,80,65,0
138.96744,139.15123,75,54,0
139.15123,139.32353,70,54,0
139.33502,139.51389,70,61,0
139.51389,139.69273,75,52,0
139.69273,139.88264,79,52,0
139.88264,140.06558,77,59,0
140.06558,140.24854,70,51,0
140.24854,140.43149,67,52,0
140.43149,140.60954,77,59,0
140.60954,140.78761,71,53,0
140.78761,140.97572,67,53,0
140.97572,141.15784,77,57,0
141.15784,141.33995,72,51,0
141.33995,141.51068,68,51,0
141.52206,141.70093,68,59,0
141.70093,141.87979,72,52,0
141.87979,142.0715,75,52,0
142.0715,142.25446,61,59,0
142.25446,142.43741,68,54,0
142.43741,142.62035,73,54,0
142.62035,142.8033,65,59,0
142.8033,142.98625,68,55,0
142.98625,143.1692,70,56,0
143.1692,143.35469,63,59,0
143.35469,143.54019,68,54,0
143.54019,143.72568,72,54,0
143.91379,144.1019,75,63,0
144.1019,144.29002,73,67,0
143.72568,144.29002,67,70,0
143.72568,144.29002,63,59,0
144.29002,144.48265,72,71,0
144.29002,144.48265,68,60,0
144.29002,144.48265,63,60,0
144.48265,144.6753,63,59,0
144.6753,144.86794,68,59,0
144.86794,145.05695,72,67,0
145.05695,145.24594,68,56,0
145.24594,145.43494,63,56,0
145.43494,145.62044,75,66,0
145.62044,145.80592,72,57,0
145.80592,145.97983,68,57,0
145.99142,146.17531,68,68,0
146.17531,146.3592,72,60,0
146.3592,146.55852,75,60,0
146.55852,146.74663,75,69,0
146.74663,146.93474,70,59,0
146.93474,147.12285,67,59,0
147.12285,147.30498,75,70,0
147.30498,147.48709,70,57,0
147.48709,147.6692,67,57,0
147.6692,147.85117,75,71,0
147.85117,148.03314,71,61,0
148.03314,148.2151,68,59,0
148.2151,148.399,70,68,0
148.399,148.5868,75,62,0
148.5868,148.78651,79,63,0
148.78651,148.97375,80,68,0
148.97375,149.16098,75,58,0
149.16098,149.34822,68,58,0
149.34822,149.52788,80,67,0
149.52788,149.70753,73,59,0
149.70753,149.89835,70,59,0
149.89835,150.08214,80,67,0
150.08214,150.26591,75,57,0
150.26591,150.43822,71,57,0
150.4497,150.62857,71,65,0
150.62857,150.80743,75,57,0
150.80743,151.00093,78,57,0
151.00093,151.18387,76,65,0
151.18387,151.36682,71,55,0
151.36682,151.54977,67,55,0
151.54977,151.72783,76,62,0
151.72783,151.9059,70,53,0
151.9059,152.09401,67,53,0
152.09401,152.27612,76,64,0
152.27612,152.45824,71,55,0
152.45824,152.62897,68,55,0
152.64035,152.81921,68,65,0
152.81921,152.99808,71,56,0
152.99808,153.18867,75,56,0
153.18867,153.37163,68,66,0
153.37163,153.55458,71,59,0
153.55458,153.73386,73,57,0
153.73386,153.91681,68,67,0
153.91681,154.09976,71,56,0
154.09976,154.29729,76,56,0
154.29729,154.48277,66,66,0
154.48277,154.66827,71,56,0
154.66827,154.85376,75,56,0
155.04189,155.23,78,57,0
155.23,155.43776,76,57,0
154.85376,155.43776,70,67,0
154.85376,155.43776,66,56,0
155.43776,155.6304,75,53,0
155.43776,155.6304,71,53,0
155.43776,155.6304,66,53,0
155.6304,155.82304,63,48,0
155.82304,156.01567,66,48,0
156.01567,156.20468,71,59,0
156.20468,156.39368,66,48,0
156.39368,156.58267,63,49,0
156.58267,156.76904,75,59,0
156.76904,156.9554,71,53,0
156.9554,157.14175,66,54,0
157.14175,157.32565,71,59,0
157.32565,157.50954,75,53,0
157.50954,157.70885,78,53,0
157.70885,158.13013,78,62,0
157.70885,158.13013,66,46,0
158.27054,158.81575,78,59,0
158.27054,158.81575,66,48,0
158.8169,159.36166,79,67,0
158.8169,159.36166,67,57,0
159.3628,159.91331,80,72,0
159.3628,159.91331,68,60,0
159.91447,160.45969,82,79,0
159.91447,160.45969,70,64,0
160.46082,161.00558,85,77,0
160.46082,161.00558,73,64,0
161.00671,161.55724,83,74,0
161.00671,161.55724,71,62,0
161.5584,161.97215,82,58,0
161.5584,161.97215,70,49,0
161.97215,162.11732,80,51,0
161.97215,162.11732,68,42,0
162.11732,162.68433,79,58,0
162.11732,162.68433,67,49,0
162.68433,163.24081,79,55,0
162.68433,163.24081,67,46,0
163.24081,163.51398,80,53,0
163.24081,163.51398,68,45,0
163.51398,163.78716,79,45,0
163.51398,163.78716,67,37,0
163.78716,164.06932,77,46,0
163.78716,164.06932,65,38,0
164.06932,164.36375,79,45,0
164.06932,164.36375,67,37,0
164.36375,165.50601,80,48,0
164.36375,165.50601,68,40,0
165.50601,165.79285,73,53,0
165.77919,166.06633,72,53,0
166.05235,166.34587,71,53,0
166.3319,166.59843,72,53,0
166.59843,166.73198,72,48,0
166.73198,167.72359,77,48,0
167.72359,168.01042,72,53,0
167.99677,168.28392,70,53,0
168.26994,168.56346,69,53,0
168.54948,168.8182,70,53,0
168.8182,168.94884,70,48,0
168.94884,169.94661,75,48,0
169.94661,170.23344,73,58,0
170.21979,170.50694,72,60,0
170.49297,170.78648,70,63,0
170.7725,171.0672,68,66,0
171.0672,171.33548,75,68,0
171.0672,171.33548,67,57,0
171.33548,171.60378,73,66,0
171.33548,171.60378,65,56,0
171.60378,171.87695,72,63,0
171.60378,171.87695,63,53,0
171.87695,172.16846,70,60,0
171.87695,172.16846,61,51,0
172.16846,172.7416,68,58,0
172.16846,172.7416,60,49,0
172.7416,173.16089,72,55,0
172.7416,173.16089,63,55,0
173.16089,173.31583,70,54,0
173.16089,173.31583,61,54,0
173.31583,173.89375,68,48,0
173.31583,173.89375,60,40,0
174.45808,174.74492,73,53,0
174.73125,175.0184,72,53,0
175.00443,175.29794,71,53,0
175.28397,175.57326,72,53,0
175.57326,175.87035,84,53,0
175.85611,176.15506,82,53,0
176.14095,176.43723,81,53,0
176.42311,176.70528,82,53,0
175.57326,176.70528,77,48,0
176.70528,176.99211,72,53,0
176.97845,177.26561,70,53,0
177.25163,177.54515,69,53,0
177.53117,177.81541,70,53,0
177.81541,178.10098,82,58,0
178.10098,178.38994,80,60,0
178.38994,178.67212,79,63,0
178.67212,178.95428,80,66,0
177.81541,178.95428,75,48,0
178.95428,179.24112,73,58,0
179.22745,179.5146,72,60,0
179.50063,179.79414,70,63,0
179.78017,180.07486,68,66,0
180.07486,180.34315,79,68,0
180.07486,180.34315,67,57,0
180.07486,180.34315,75,57,0
180.34315,180.61143,77,66,0
180.34315,180.61143,65,56,0
180.34315,180.61143,73,56,0
180.61143,180.88461,75,63,0
180.61143,180.88461,63,53,0
180.61143,180.88461,72,53,0
180.88461,181.17613,73,60,0
180.88461,181.17613,61,51,0
180.88461,181.17613,70,51,0
181.17613,181.74925,68,49,0
181.17613,181.74925,60,49,0
181.17613,181.74925,72,58,0
181.74925,182.16856,73,55,0
182.16856,182.32349,70,54,0
181.74925,182.32349,67,46,0
181.74925,182.32349,61,46,0
182.32349,184.01208,68,48,0
182.32349,184.01208,56,40,0
182.32349,184.01208,63,40,0
182.32349,184.01208,60,40,0
184.01208,184.4314,60,40,0
184.4314,184.58035,63,37,0
184.58035,185.0138,68,44,0
184.58035,185.0138,56,37,0
185.15828,185.58153,68,40,0
185.15828,185.58153,56,34,0
185.72261,186.13237,68,40,0
185.72261,186.13237,56,34,0
186.26897,186.68826,68,40,0
186.26897,186.68826,56,34,0
186.89319,188.58179,67,48,0
186.89319,188.58179,55,40,0
188.58179,189.0011,60,40,0
189.0011,189.15005,63,37,0
189.15005,189.5835,67,44,0
189.15005,189.5835,55,37,0
189.72798,190.15123,55,37,0
189.72798,190.15123,67,43,0
190.29231,190.70207,67,50,0
190.29231,190.70207,55,42,0
190.83867,191.25797,67,56,0
190.83867,191.25797,55,47,0
191.46289,192.68277,65,73,0
191.46289,192.68277,53,60,0
192.68277,193.83685,66,73,0
192.68277,193.83685,54,60,0
193.83685,193.97903,55,39,0
193.83685,193.97903,67,39,0
194.02643,194.16861,67,27,0
194.02643,194.16861,55,22,0
194.216,194.35818,67,27,0
194.216,194.35818,55,22,0
194.40558,194.54776,67,30,0
194.40558,194.54776,55,25,0
194.59515,194.73734,67,30,0
194.59515,194.73734,55,25,0
194.78473,194.92691,67,30,0
194.78473,194.92691,55,25,0
194.9743,195.11649,67,38,0
194.9743,195.11649,55,32,0
195.16388,195.30605,67,28,0
195.16388,195.30605,55,24,0
195.35344,195.49562,67,30,0
195.35344,195.49562,55,25,0
195.54301,195.68094,67,39,0
195.54301,195.68094,55,33,0
195.72691,195.86482,67,30,0
195.72691,195.86482,55,25,0
195.9108,196.04872,67,30,0
195.9108,196.04872,55,25,0
196.0947,196.23578,55,39,0
196.0947,196.23578,67,39,0
196.2828,196.42389,67,27,0
196.2828,196.42389,55,22,0
196.47092,196.612,67,27,0
196.47092,196.612,55,22,0
196.65903,196.79561,67,30,0
196.65903,196.79561,55,25,0
196.84114,196.97772,67,30,0
196.84114,196.97772,55,25,0
197.02325,197.15985,67,30,0
197.02325,197.15985,55,25,0
197.20537,197.34186,67,38,0
197.20537,197.34186,55,32,0
197.38734,197.52382,67,28,0
197.38734,197.52382,55,24,0
197.5693,197.70578,67,30,0
197.5693,197.70578,55,25,0
197.75128,197.88919,67,39,0
197.75128,197.88919,55,33,0
197.93517,198.07309,67,30,0
197.93517,198.07309,55,25,0
198.11906,198.25697,67,30,0
198.11906,198.25697,55,25,0
198.30295,198.44087,55,39,0
198.30295,198.44087,67,39,0
198.48685,198.62476,67,27,0
198.48685,198.62476,55,22,0
198.67073,198.80865,67,27,0
198.67073,198.80865,55,22,0
198.85463,198.99254,67,30,0
198.85463,198.99254,55,25,0
199.03851,199.17644,67,30,0
199.03851,199.17644,55,25,0
199.2224,199.36032,67,30,0
199.2224,199.36032,55,25,0
199.4063,199.54422,67,38,0
199.4063,199.54422,55,32,0
199.59018,199.7281,67,28,0
199.59018,199.7281,55,24,0
199.77408,199.912,67,30,0
199.77408,199.912,55,25,0
199.95796,200.09373,67,39,0
199.95796,200.09373,55,33,0
200.13899,200.27477,67,30,0
200.13899,200.27477,55,25,0
200.32002,200.46022,65,30,0
200.32002,200.46022,53,25,0
200.50769,200.64561,55,39,0
200.50769,200.64561,63,39,0
200.50769,200.64561,60,39,0
200.50769,200.64561,67,39,0
200.69159,200.8295,67,27,0
200.69159,200.8295,63,22,0
200.69159,200.8295,60,22,0
200.69159,200.8295,55,22,0
200.87547,201.0134,67,27,0
200.87547,201.0134,63,22,0
200.87547,201.0134,60,22,0
200.87547,201.0134,55,22,0
201.05937,201.19728,67,30,0
201.05937,201.19728,63,22,0
201.05937,201.19728,60,22,0
201.05937,201.19728,55,25,0
201.24326,201.38118,67,30,0
201.24326,201.38118,63,22,0
201.24326,201.38118,60,22,0
201.24326,201.38118,55,25,0
201.42714,201.56506,67,30,0
201.42714,201.56506,63,22,0
201.42714,201.56506,60,22,0
201.42714,201.56506,55,25,0
201.61104,201.74896,67,38,0
201.61104,201.74896,62,32,0
201.61104,201.74896,59,32,0
201.61104,201.74896,55,32,0
201.79492,201.93285,67,28,0
201.79492,201.93285,62,32,0
201.79492,201.93285,59,32,0
201.79492,201.93285,55,24,0
201.97882,202.11674,67,30,0
201.97882,202.11674,62,32,0
201.97882,202.11674,59,32,0
201.97882,202.11674,55,25,0
202.1627,202.30063,67,39,0
202.1627,202.30063,62,33,0
202.1627,202.30063,59,33,0
202.1627,202.30063,55,33,0
202.3466,202.48451,67,30,0
202.3466,202.48451,62,25,0
202.3466,202.48451,59,25,0
202.3466,202.48451,55,25,0
202.53049,202.66841,67,30,0
202.53049,202.66841,62,25,0
202.53049,202.66841,59,25,0
202.53049,202.66841,55,25,0
202.71439,202.85657,55,39,0
202.71439,202.85657,63,39,0
202.71439,202.85657,60,39,0
202.71439,202.85657,67,39,0
202.90396,203.04614,67,27,0
202.90396,203.04614,55,22,0
203.09354,203.2357,67,27,0
203.09354,203.2357,55,22,0
203.2831,203.422,67,34,0
203.2831,203.422,55,28,0
203.46829,203.60718,67,35,0
203.46829,203.60718,55,29,0
203.65347,203.79236,67,36,0
203.65347,203.79236,55,30,0
203.83865,203.97755,67,48,0
203.83865,203.97755,55,40,0
204.02385,204.16273,67,36,0
204.02385,204.16273,55,32,0
204.20903,204.34792,67,41,0
204.20903,204.34792,55,34,0
204.39421,204.53214,67,56,0
204.39421,204.53214,55,47,0
204.57811,204.71602,67,43,0
204.57811,204.71602,55,36,0
204.762,204.89992,67,44,0
204.762,204.89992,55,37,0
204.94589,205.08698,55,59,0
204.94589,205.08698,67,59,0
205.134,205.27509,67,41,0
205.134,205.27509,55,33,0
205.32211,205.4632,67,41,0
205.32211,205.4632,55,33,0
205.51022,205.6468,67,46,0
205.51022,205.6468,55,37,0
205.69234,205.82892,67,46,0
205.69234,205.82892,55,37,0
205.87445,206.01105,67,46,0
205.87445,206.01105,55,37,0
206.05656,206.19305,67,58,0
206.05656,206.19305,55,49,0
206.23854,206.37502,67,42,0
206.23854,206.37502,55,36,0
206.4205,206.55698,67,46,0
206.4205,206.55698,55,37,0
206.60248,206.74039,68,65,0
206.60248,206.74039,56,55,0
206.78636,206.92429,68,52,0
206.78636,206.92429,56,42,0
206.97026,207.12149,68,55,0
206.97026,207.12149,56,44,0
207.17412,207.31174,55,70,0
207.17412,207.31174,67,70,0
207.3576,207.49522,67,50,0
207.3576,207.49522,55,40,0
207.54109,207.67871,67,50,0
207.54109,207.67871,55,40,0
207.72458,207.8622,67,55,0
207.72458,207.8622,55,46,0
207.90807,208.04568,67,55,0
207.90807,208.04568,55,44,0
208.09155,208.22917,67,54,0
208.09155,208.22917,55,44,0
208.27504,208.41266,67,69,0
208.27504,208.41266,55,57,0
208.45853,208.59615,67,49,0
208.45853,208.59615,55,42,0
208.64201,208.77963,67,52,0
208.64201,208.77963,55,42,0
208.8255,208.96127,67,67,0
208.8255,208.96127,55,57,0
209.00653,209.1423,67,51,0
209.00653,209.1423,55,42,0
209.18756,209.32776,65,50,0
209.18756,209.32776,53,41,0
209.37523,209.51314,55,59,0
209.37523,209.51314,63,59,0
209.37523,209.51314,60,59,0
209.37523,209.51314,67,59,0
209.55911,209.69704,67,41,0
209.55911,209.69704,63,33,0
209.55911,209.69704,60,33,0
209.55911,209.69704,55,33,0
209.74301,209.88092,67,41,0
209.74301,209.88092,63,33,0
209.74301,209.88092,60,33,0
209.74301,209.88092,55,33,0
209.9269,210.06203,67,46,0
209.9269,210.06203,63,33,0
209.9269,210.06203,60,33,0
209.9269,210.06203,55,37,0
210.10707,210.24222,67,46,0
210.10707,210.24222,63,33,0
210.10707,210.24222,60,33,0
210.10707,210.24222,55,37,0
210.28726,210.4224,67,46,0
210.28726,210.4224,63,33,0
210.28726,210.4224,60,33,0
210.28726,210.4224,55,37,0
210.46744,210.60257,67,58,0
210.46744,210.60257,62,49,0
210.46744,210.60257,59,49,0
210.46744,210.60257,55,49,0
210.64761,210.78275,67,42,0
210.64761,210.78275,62,49,0
210.64761,210.78275,59,49,0
210.64761,210.78275,55,36,0
210.82779,210.96294,67,46,0
210.82779,210.96294,62,49,0
210.82779,210.96294,59,49,0
210.82779,210.96294,55,37,0
211.00798,211.14496,67,59,0
211.00798,211.14496,62,50,0
211.00798,211.14496,59,50,0
211.00798,211.14496,55,50,0
211.19063,211.3276,67,46,0
211.19063,211.3276,62,37,0
211.19063,211.3276,59,37,0
211.19063,211.3276,55,37,0
211.37328,211.52475,67,46,0
211.37328,211.52475,62,37,0
211.37328,211.52475,59,37,0
211.37328,211.52475,55,37,0
211.57767,212.67355,67,48,0
211.57767,212.67355,55,40,0
211.57767,212.67355,60,40,0
211.57767,212.67355,63,40,0
213.2215,213.63525,71,44,0
213.63525,213.77318,72,38,0
213.77318,214.17056,74,51,0
214.33751,214.72223,74,42,0
214.33751,214.74727,65,35,0
214.88385,215.26826,74,42,0
214.88385,215.29329,68,35,0
215.42976,215.8435,72,46,0
215.8435,215.98143,74,47,0
215.98143,216.80894,75,53,0
216.80894,217.08478,74,44,0
216.53311,217.08478,63,39,0
217.08478,217.63644,72,39,0
217.08478,217.63644,67,33,0
217.63644,218.04376,74,49,0
218.04376,218.18617,72,42,0
218.18617,218.73784,71,46,0
218.73784,219.1516,69,44,0
219.1516,219.28952,71,36,0
218.73784,219.28952,65,37,0
219.28952,219.85785,72,48,0
219.28952,219.85785,63,37,0
219.85785,220.27716,74,43,0
220.27716,220.4252,75,44,0
219.85785,220.4252,60,37,0
220.4252,220.57326,68,47,0
220.57326,222.14496,67,43,0
220.4252,222.14496,74,51,0
222.14496,222.55872,71,62,0
222.14496,222.55872,67,52,0
222.14496,222.55872,59,52,0
222.55872,222.70796,72,60,0
222.55872,222.70796,69,50,0
222.55872,222.70796,60,50,0
222.70796,223.24939,74,73,0
222.70796,223.24939,71,61,0
222.70796,223.24939,62,61,0
223.24939,223.79823,74,66,0
223.24939,223.79823,71,55,0
223.24939,223.79823,62,55,0
223.79823,224.34413,74,66,0
223.79823,224.34413,71,55,0
223.79823,224.34413,62,55,0
224.34413,224.75789,72,66,0
224.34413,224.75789,67,64,0
224.34413,224.75789,60,63,0
224.75789,224.90715,74,67,0
224.75789,224.90715,67,55,0
224.75789,224.90715,62,55,0
224.90715,225.85826,75,75,0
224.90715,225.85826,63,64,0
225.85826,225.99524,74,69,0
225.85826,225.99524,62,69,0
224.90715,225.99524,67,64,0
225.99524,226.57379,72,76,0
225.99524,226.57379,67,64,0
225.99524,226.57379,60,60,0
226.57379,226.98474,74,69,0
226.98474,227.12715,72,60,0
226.57379,227.12715,62,58,0
226.57379,227.12715,66,58,0
227.12715,227.68271,71,66,0
227.12715,227.68271,65,55,0
227.12715,227.68271,62,55,0
227.68271,228.09555,67,52,0
228.09555,228.23317,68,51,0
227.68271,228.23317,71,62,0
227.68271,228.23317,62,52,0
228.23317,228.81645,72,73,0
228.23317,228.81645,67,59,0
228.23317,228.81645,60,57,0
228.81645,229.24097,75,75,0
229.24097,229.38902,74,62,0
228.81645,229.38902,71,64,0
228.81645,229.38902,65,64,0
229.38902,231.16557,72,73,0
229.38902,231.16557,63,61,0
231.16557,231.57932,74,44,0
231.57932,231.71724,75,38,0
231.71724,232.27632,77,51,0
232.27632,232.82768,77,42,0
232.27632,232.82768,65,35,0
232.82768,233.37358,77,42,0
232.82768,233.37358,68,35,0
233.37358,233.78734,75,46,0
233.78734,233.92526,74,47,0
233.92526,234.75278,79,53,0
234.47693,234.89069,67,50,0
234.89069,235.02861,68,53,0
234.75278,235.02861,77,44,0
235.02861,235.58768,75,39,0
235.58768,235.995,74,49,0
235.995,236.1374,72,42,0
236.1374,236.68907,71,46,0
236.68907,236.96492,68,41,0
236.96492,237.24075,67,40,0
236.68907,237.24075,71,44,0
237.24075,237.52832,65,41,0
237.52832,237.8159,63,41,0
237.24075,237.8159,72,48,0
237.8159,238.09544,62,41,0
237.8159,238.23521,77,43,0
238.23521,238.38326,75,44,0
238.09544,238.38326,60,41,0
238.38326,238.5313,68,41,0
238.5313,240.1598,67,47,0
238.38326,240.1598,74,51,0
240.1598,240.57356,74,62,0
240.57356,240.71147,75,60,0
240.71147,241.26315,77,73,0
240.71147,241.26315,74,61,0
240.71147,241.26315,65,61,0
241.26315,241.81482,77,60,0
241.26315,241.81482,74,50,0
241.26315,241.81482,65,50,0
241.81482,242.36073,77,60,0
241.81482,242.36073,74,50,0
241.81482,242.36073,65,50,0
242.36073,242.77448,79,63,0
242.36073,242.77448,75,63,0
242.36073,242.77448,67,63,0
242.77448,242.9124,80,67,0
242.77448,242.9124,77,55,0
242.77448,242.9124,68,55,0
242.9124,243.44685,82,75,0
242.9124,243.44685,70,64,0
242.9124,243.44685,79,64,0
243.44685,243.9948,80,69,0
243.44685,243.9948,68,69,0
243.9948,244.54274,79,76,0
243.9948,244.54274,75,64,0
244.54274,244.95006,77,69,0
244.95006,245.09247,74,60,0
244.54274,245.09247,65,58,0
245.09247,245.64415,71,66,0
245.09247,245.64415,65,55,0
245.09247,245.64415,62,55,0
245.64415,246.05789,67,52,0
246.05789,246.19582,68,51,0
245.64415,246.19582,71,62,0
245.64415,246.19582,62,52,0
246.19582,246.78697,72,73,0
246.19582,246.78697,67,59,0
246.19582,246.78697,60,57,0
246.78697,247.2115,75,75,0
247.2115,247.35956,74,62,0
246.78697,247.35956,71,64,0
246.78697,247.35956,65,64,0
247.35956,249.1132,72,76,0
247.35956,249.1132,63,64,0
249.1132,249.28827,72,86,0
249.1132,249.28827,60,72,0
249.30772,249.48279,72,86,0
249.30772,249.48279,60,72,0
249.50223,249.71075,72,86,0
249.50223,249.71075,60,72,0
249.73393,251.49332,72,79,0
249.73393,251.49332,84,94,0
249.73393,251.49332,80,79,0
249.73393,251.49332,74,79,0
251.49332,251.66753,72,83,0
251.49332,251.66753,60,71,0
251.68689,251.8611,72,83,0
251.68689,251.8611,60,71,0
251.88046,252.07542,72,83,0
251.88046,252.07542,60,71,0
252.09709,253.81984,72,80,0
252.09709,253.81984,84,95,0
252.09709,253.81984,79,80,0
252.09709,253.81984,75,80,0
253.81984,253.9949,72,83,0
253.81984,253.9949,60,71,0
254.01436,254.1894,72,83,0
254.01436,254.1894,60,71,0
254.20886,254.42108,72,83,0
254.20886,254.42108,60,71,0
254.44466,255.02258,61,77,0
254.44466,255.02258,65,77,0
254.44466,255.02258,73,90,0
255.02258,255.46024,77,88,0
255.02258,255.46024,65,74,0
255.46024,255.60612,80,79,0
255.46024,255.60612,68,66,0
255.60612,256.20123,79,89,0
255.60612,256.20123,67,75,0
255.60612,256.20123,72,75,0
255.60612,256.20123,75,75,0
256.20123,256.8115,79,83,0
256.20123,256.8115,67,71,0
256.20123,256.8115,71,71,0
256.20123,256.8115,74,71,0
256.8115,258.56516,72,76,0
256.8115,258.56516,67,64,0
256.8115,258.56516,60,64,0
256.8115,258.56516,63,64,0
258.56516,258.7402,72,86,0
258.56516,258.7402,60,72,0
258.75967,258.93472,72,86,0
258.75967,258.93472,60,72,0
258.95416,259.1627,72,86,0
258.95416,259.1627,60,72,0
259.18588,260.94525,72,79,0
259.18588,260.94525,74,79,0
259.18588,260.94525,84,94,0
260.94525,261.11948,72,83,0
260.94525,261.11948,60,71,0
261.13882,261.31305,72,83,0
261.13882,261.31305,60,71,0
261.3324,261.52737,72,83,0
261.3324,261.52737,60,71,0
261.54904,263.2718,72,80,0
261.54904,263.2718,79,80,0
261.54904,263.2718,84,95,0
263.2718,263.44684,72,83,0
263.2718,263.44684,60,71,0
263.4663,263.64136,72,83,0
263.4663,263.64136,60,71,0
263.6608,263.87302,72,83,0
263.6608,263.87302,60,71,0
263.8966,264.47452,61,77,0
263.8966,264.47452,65,77,0
263.8966,264.47452,73,90,0
264.47452,264.91217,77,88,0
264.47452,264.91217,65,74,0
264.91217,265.05807,80,79,0
264.91217,265.05807,68,66,0
265.05807,265.6532,79,89,0
265.05807,265.6532,67,75,0
265.05807,265.6532,72,75,0
265.05807,265.6532,75,75,0
265.6532,266.26346,79,83,0
265.6532,266.26346,67,71,0
265.6532,266.26346,71,71,0
265.6532,266.26346,74,71,0
266.26346,268.0171,72,76,0
266.26346,268.0171,67,64,0
266.26346,268.0171,60,64,0
266.26346,268.0171,63,64,0
268.0171,268.163,72,57,0
268.0171,268.163,60,68,0
268.2116,268.35748,72,53,0
268.2116,268.35748,60,63,0
268.40613,268.552,72,53,0
268.40613,268.552,60,63,0
268.60065,268.74487,72,52,0
268.60065,268.74487,61,62,0
268.79294,268.93716,61,55,0
268.79294,268.93716,72,46,0
268.98526,269.1295,72,46,0
268.98526,269.1295,61,55,0
269.17755,269.32346,72,49,0
269.17755,269.32346,62,58,0
269.37207,269.51797,62,50,0
269.37207,269.51797,72,42,0
269.5666,269.71246,72,42,0
269.5666,269.71246,62,50,0
269.7611,269.90558,63,55,0
269.7611,269.90558,72,46,0
269.95374,270.09824,63,50,0
269.95374,270.09824,72,42,0
270.1464,270.29086,72,45,0
270.1464,270.29086,63,54,0
270.33902,270.4812,72,49,0
270.33902,270.4812,64,54,0
270.5286,270.67078,64,44,0
270.5286,270.67078,72,37,0
270.71817,270.86035,64,44,0
270.71817,270.86035,72,37,0
270.90775,271.04926,72,39,0
270.90775,271.04926,64,47,0
271.09644,271.23795,72,31,0
271.09644,271.23795,64,37,0
271.2851,271.4266,72,31,0
271.2851,271.4266,64,37,0
271.4738,271.6153,72,38,0
271.4738,271.6153,64,46,0
271.66248,271.804,72,30,0
271.66248,271.804,64,37,0
271.85114,271.99265,72,30,0
271.85114,271.99265,64,36,0
272.03983,272.18268,72,38,0
272.03983,272.18268,65,45,0
272.2303,272.37317,72,29,0
272.2303,272.37317,65,36,0
272.42078,272.56363,72,29,0
272.42078,272.56363,65,35,0
272.61127,272.75278,72,37,0
272.61127,272.75278,66,31,0
272.61127,272.75278,63,31,0
272.79993,272.94144,72,31,0
272.79993,272.94144,66,26,0
272.79993,272.94144,63,26,0
272.98862,273.13013,72,31,0
272.98862,273.13013,66,26,0
272.98862,273.13013,63,26,0
273.17728,273.31815,72,37,0
273.17728,273.31815,66,31,0
273.17728,273.31815,63,31,0
273.36508,273.50592,72,32,0
273.36508,273.50592,66,27,0
273.36508,273.50592,62,27,0
273.5529,273.69373,72,32,0
273.5529,273.69373,66,27,0
273.5529,273.69373,62,27,0
273.74066,273.88086,72,37,0
273.74066,273.88086,66,31,0
273.74066,273.88086,62,31,0
273.92758,274.06778,72,31,0
273.92758,274.06778,66,26,0
273.92758,274.06778,62,26,0
274.1145,274.2547,72,31,0
274.1145,274.2547,66,26,0
274.1145,274.2547,62,26,0
274.30142,274.44293,72,37,0
274.30142,274.44293,67,31,0
274.30142,274.44293,62,31,0
274.4901,274.63162,72,32,0
274.4901,274.63162,67,27,0
274.4901,274.63162,62,27,0
274.67877,274.82028,72,32,0
274.67877,274.82028,67,27,0
274.67877,274.82028,62,27,0
274.86746,275.011,70,37,0
274.86746,275.011,67,31,0
274.86746,275.011,62,31,0
275.05884,275.2024,70,32,0
275.05884,275.2024,67,27,0
275.05884,275.2024,62,27,0
275.25024,275.39377,70,32,0
275.25024,275.39377,67,27,0
275.25024,275.39377,62,27,0
275.44162,275.58182,70,37,0
275.44162,275.58182,63,31,0
275.44162,275.58182,60,31,0
275.62854,275.76874,70,31,0
275.62854,275.76874,63,26,0
275.62854,275.76874,60,26,0
275.81546,275.95563,70,31,0
275.81546,275.95563,63,26,0
275.81546,275.95563,60,26,0
276.00238,276.14456,69,37,0
276.00238,276.14456,63,31,0
276.00238,276.14456,60,31,0
276.19196,276.3341,69,32,0
276.19196,276.3341,63,27,0
276.19196,276.3341,60,27,0
276.3815,276.52368,69,32,0
276.3815,276.52368,63,27,0
276.3815,276.52368,60,27,0
276.57108,276.7126,67,37,0
276.57108,276.7126,62,31,0
276.57108,276.7126,58,31,0
276.75977,276.90128,67,31,0
276.75977,276.90128,62,26,0
276.75977,276.90128,58,26,0
276.94846,277.08997,67,31,0
276.94846,277.08997,62,26,0
276.94846,277.08997,58,26,0
277.13712,277.28204,66,37,0
277.13712,277.28204,62,31,0
277.13712,277.28204,57,31,0
277.33035,277.47528,66,32,0
277.33035,277.47528,62,27,0
277.33035,277.47528,57,27,0
277.5236,277.66852,66,32,0
277.5236,277.66852,62,27,0
277.5236,277.66852,57,27,0
277.71683,278.86658,67,37,0
277.71683,278.86658,62,31,0
277.71683,278.86658,58,31,0
279.43176,279.84552,67,39,0
279.84552,279.99887,70,39,0
280.13995,280.29514,62,29,0
280.28104,280.43622,67,30,0
280.42212,280.5632,70,28,0
279.99887,280.5632,74,44,0
280.6998,280.85004,62,28,0
280.8364,280.98663,67,30,0
280.97296,281.10956,70,28,0
280.5632,281.10956,74,40,0
281.24603,281.39615,62,27,0
281.3825,281.53262,66,30,0
281.51898,281.65546,69,28,0
281.10956,281.65546,74,45,0
281.79337,281.9458,62,27,0
281.9313,282.09073,67,30,0
282.07623,282.22116,70,26,0
281.65546,282.22116,74,46,0
282.35837,282.5093,63,31,0
282.49557,282.64597,67,33,0
282.6324,282.78192,72,31,0
282.76834,282.9179,66,36,0
282.9043,283.05386,72,27,0
283.04028,283.19293,69,30,0
283.17862,283.32172,66,27,0
282.22116,283.32172,75,51,0
283.45956,283.6112,62,27,0
283.5974,283.74902,67,30,0
283.73526,283.88663,70,26,0
283.87308,284.02203,62,30,0
284.00845,284.15802,70,28,0
284.1444,284.29678,67,30,0
284.28253,284.42496,62,27,0
283.32172,284.42496,74,41,0
284.56216,284.7131,60,28,0
284.69937,284.8503,63,30,0
284.83658,284.9872,66,28,0
284.97382,285.12137,60,30,0
285.10794,285.2555,66,30,0
285.2421,285.39267,63,30,0
285.37854,285.51962,60,27,0
284.42496,285.51962,72,50,0
285.65622,285.80646,58,27,0
285.79282,285.9428,62,30,0
285.92917,286.07913,67,27,0
286.06552,286.21503,58,30,0
286.2015,286.3504,67,28,0
286.33685,286.4894,62,30,0
286.47504,286.6188,58,28,0
285.51962,286.6188,70,45,0
286.756,286.90674,57,28,0
286.89325,287.04294,60,30,0
287.02866,287.1715,67,28,0
286.6188,287.1715,69,50,0
287.3104,287.45905,63,29,0
287.44553,287.59418,67,30,0
287.58066,287.7158,69,28,0
287.1715,287.7158,72,46,0
287.85492,288.00797,58,27,0
287.99405,288.14706,62,30,0
288.13315,288.27228,67,27,0
287.7158,288.27228,70,49,0
288.41336,288.56857,60,26,0
288.55444,288.70966,62,30,0
288.69553,288.8366,66,27,0
288.27228,288.8366,69,45,0
288.9818,289.1415,55,28,0
289.12698,289.28668,58,32,0
289.27216,289.43146,62,34,0
289.41733,289.57254,63,35,0
289.5584,289.71362,60,37,0
289.6995,289.8547,57,39,0
289.84058,289.99564,63,44,0
289.98166,290.1354,62,44,0
290.12143,290.27518,58,33,0
290.2612,290.41495,62,37,0
288.8366,290.54074,67,50,0
290.40097,290.55472,66,28,0
290.54074,290.6945,67,34,0
290.6805,290.83426,62,26,0
290.82028,290.97403,67,30,0
290.96005,291.09982,70,26,0
291.2409,291.3961,62,29,0
291.382,291.53717,67,30,0
291.52307,291.66415,70,28,0
291.09982,291.66415,74,44,0
291.80075,291.951,62,28,0
291.93735,292.0876,67,30,0
292.0739,292.2105,70,28,0
291.66415,292.2105,74,40,0
292.347,292.4968,62,27,0
292.48346,292.63013,66,30,0
292.6168,292.75012,69,28,0
292.2105,292.75012,74,45,0
292.88803,293.04047,62,27,0
293.02597,293.1854,67,30,0
293.1709,293.31583,70,26,0
292.75012,293.31583,74,46,0
293.45303,293.60397,63,31,0
293.59024,293.74118,67,33,0
293.72745,293.87833,72,31,0
293.86465,294.01492,69,41,0
294.00125,294.1515,72,33,0
294.13785,294.2909,69,41,0
294.27658,294.4197,65,34,0
293.31583,294.4197,75,51,0
294.55753,294.70917,62,34,0
294.69537,294.84702,65,40,0
294.83322,294.98453,70,33,0
294.97107,295.1193,65,41,0
295.1058,295.25403,70,28,0
295.24057,295.39212,65,35,0
295.37787,295.5203,62,27,0
294.4197,295.5203,74,57,0
295.6575,295.80823,60,35,0
295.7947,295.94336,63,39,0
295.92984,296.07837,69,28,0
296.06497,296.21237,66,40,0
296.1989,296.34714,69,27,0
296.33365,296.48462,66,30,0
296.47052,296.6116,62,27,0
295.5203,296.6116,72,60,0
296.7482,296.89822,58,27,0
296.88477,297.03275,62,30,0
297.01932,297.16736,67,27,0
297.15384,297.3027,58,30,0
297.28918,297.43784,67,28,0
297.42432,297.57672,62,30,0
297.56235,297.70615,58,28,0
296.6116,297.70615,70,45,0
297.84335,297.99408,63,28,0
297.98056,298.12997,62,30,0
298.1157,298.25854,60,28,0
297.70615,298.25854,67,50,0
298.39743,298.54346,63,29,0
298.53018,298.6762,67,30,0
298.66293,298.79565,72,28,0
298.25854,298.79565,75,46,0
298.93204,299.08203,62,27,0
299.0684,299.21838,65,30,0
299.20477,299.34113,70,27,0
298.79565,299.34113,74,49,0
299.4822,299.6374,63,26,0
299.6233,299.77847,65,30,0
299.76437,299.90546,69,27,0
299.34113,299.90546,72,45,0
300.05063,300.21033,58,28,0
300.1958,300.3555,62,32,0
300.341,300.50027,65,34,0
300.48618,300.64136,66,35,0
300.62726,300.78244,63,37,0
300.76834,300.92352,60,39,0
300.90942,301.06448,66,44,0
301.0505,301.20425,65,44,0
301.19028,301.34402,62,33,0
301.33005,301.4838,65,37,0
299.90546,301.6096,70,50,0
301.46982,301.62357,69,34,0
301.6096,301.76334,70,40,0
301.74936,301.9031,65,43,0
301.88913,302.04288,70,46,0
302.0289,302.16867,74,49,0
302.16867,302.58994,77,55,0
302.16867,302.58994,65,41,0
302.73035,303.2702,77,54,0
302.73035,303.2702,65,44,0
303.27133,303.8067,78,64,0
303.27133,303.8067,66,54,0
303.80783,304.3447,79,72,0
303.80783,304.3447,67,60,0
304.34583,304.88043,81,75,0
304.34583,304.88043,69,61,0
304.88153,305.4263,84,78,0
304.88153,305.4263,72,64,0
305.42743,305.97797,82,77,0
305.42743,305.97797,70,63,0
305.97913,306.39288,81,58,0
305.97913,306.39288,69,49,0
306.39288,306.53806,79,51,0
306.39288,306.53806,67,42,0
306.53806,307.10504,78,58,0
306.53806,307.10504,66,49,0
307.10504,307.66153,78,55,0
307.10504,307.66153,66,46,0
307.66153,307.93472,79,53,0
307.66153,307.93472,67,45,0
307.93472,308.2079,78,45,0
307.93472,308.2079,66,37,0
308.2079,308.49005,76,46,0
308.2079,308.49005,64,38,0
308.49005,308.7845,78,45,0
308.49005,308.7845,66,37,0
308.7845,309.92673,79,48,0
308.7845,309.92673,67,40,0
310.0678,310.2089,67,53,0
310.2089,310.34998,70,55,0
310.34998,310.49106,74,57,0
310.49106,310.629,79,59,0
310.629,310.7669,70,61,0
310.7669,310.90482,74,63,0
310.90482,311.05817,79,65,0
311.33902,311.47943,78,74,0
311.33902,311.47943,74,63,0
311.33902,311.47943,69,63,0
311.89304,312.02963,74,63,0
311.89304,312.02963,72,63,0
311.89304,312.02963,81,74,0
312.43915,312.57562,79,74,0
312.43915,312.57562,74,63,0
312.43915,312.57562,70,63,0
312.98795,313.13174,78,74,0
312.98795,313.13174,74,63,0
312.98795,313.13174,69,63,0
313.54996,313.68716,79,78,0
313.54996,313.68716,74,65,0
313.54996,313.68716,67,65,0
313.82437,313.95615,79,79,0
313.82437,313.95615,72,66,0
313.82437,313.95615,67,66,0
314.09152,314.22946,73,71,0
314.09152,314.22946,79,71,0
314.09152,314.22946,85,83,0
314.64822,314.78607,74,71,0
314.64822,314.78607,86,83,0
314.64822,314.78607,81,83,0
314.64822,314.78607,79,71,0
314.92392,315.0557,86,81,0
314.92392,315.0557,74,69,0
314.92392,315.0557,78,69,0
314.92392,315.0557,81,69,0
315.1923,315.3308,74,79,0
315.1923,315.3308,69,66,0
315.1923,315.3308,66,66,0
315.74768,315.8849,75,74,0
315.74768,315.8849,70,63,0
315.74768,315.8849,63,63,0
316.0221,316.15216,75,81,0
316.0221,316.15216,69,69,0
316.0221,316.15216,63,69,0
316.28513,316.42078,69,63,0
316.28513,316.42078,75,63,0
316.28513,316.42078,81,74,0
316.83505,316.97162,70,63,0
316.83505,316.97162,82,74,0
316.83505,316.97162,77,63,0
316.83505,316.97162,75,63,0
317.10822,317.24237,82,79,0
317.10822,317.24237,70,66,0
317.10822,317.24237,74,66,0
317.10822,317.24237,77,66,0
317.3765,317.51385,70,74,0
317.3765,317.51385,65,63,0
317.3765,317.51385,62,63,0
317.9224,318.059,72,74,0
317.9224,318.059,67,63,0
317.9224,318.059,63,63,0
318.4603,318.59628,75,74,0
318.4603,318.59628,69,63,0
318.4603,318.59628,66,63,0
319.01047,319.1496,74,78,0
319.01047,319.1496,70,65,0
319.01047,319.1496,67,65,0
319.56958,319.71,78,79,0
319.56958,319.71,74,66,0
319.56958,319.71,72,66,0
320.13937,320.41632,79,81,0
320.13937,320.41632,74,69,0
320.13937,320.41632,70,69,0
320.41632,320.69458,74,80,0
320.41632,320.69458,70,67,0
320.41632,320.69458,62,67,0
320.69458,320.9728,72,78,0
320.69458,320.9728,69,65,0
320.69458,320.9728,62,65,0
320.9728,321.2485,70,64,0
320.9728,321.2485,67,64,0
320.9728,321.2485,62,64,0
321.2485,321.5242,74,74,0
321.2485,321.5242,70,63,0
321.2485,321.5242,67,63,0
321.5242,321.80002,79,74,0
321.5242,321.80002,74,63,0
321.5242,321.80002,70,63,0
321.80002,322.09128,74,74,0
321.80002,322.09128,70,63,0
321.80002,322.09128,67,63,0
322.37344,322.51453,74,74,0
322.37344,322.51453,69,63,0
322.37344,322.51453,66,63,0
322.92035,323.05695,74,63,0
322.92035,323.05695,72,63,0
322.92035,323.05695,81,74,0
323.46063,323.5966,79,74,0
323.46063,323.5966,74,63,0
323.46063,323.5966,70,63,0
324.0084,324.1522,78,74,0
324.0084,324.1522,74,63,0
324.0084,324.1522,69,63,0
324.5848,324.72525,79,78,0
324.5848,324.72525,74,65,0
324.5848,324.72525,67,65,0
324.86566,325.00043,79,79,0
324.86566,325.00043,72,66,0
324.86566,325.00043,67,66,0
325.1389,325.2789,73,71,0
325.1389,325.2789,79,71,0
325.1389,325.2789,85,83,0
325.6977,325.83554,74,71,0
325.6977,325.83554,86,83,0
325.6977,325.83554,81,83,0
325.6977,325.83554,79,71,0
325.9734,326.10458,86,81,0
325.9734,326.10458,74,69,0
325.9734,326.10458,77,69,0
325.9734,326.10458,81,69,0
326.24182,326.37903,74,79,0
326.24182,326.37903,69,66,0
326.24182,326.37903,65,66,0
326.80222,326.93942,75,74,0
326.80222,326.93942,70,63,0
326.80222,326.93942,63,63,0
327.07666,327.20673,75,81,0
327.07666,327.20673,69,69,0
327.07666,327.20673,63,69,0
327.34268,327.48035,69,63,0
327.34268,327.48035,75,63,0
327.34268,327.48035,81,74,0
327.89462,328.03122,70,63,0
327.89462,328.03122,82,74,0
327.89462,328.03122,77,63,0
327.89462,328.03122,75,63,0
328.1678,328.30194,82,79,0
328.1678,328.30194,70,66,0
328.1678,328.30194,74,66,0
328.1678,328.30194,77,66,0
328.4361,328.57022,72,74,0
328.4361,328.57022,65,63,0
328.97723,329.1138,75,74,0
328.97723,329.1138,70,63,0
328.97723,329.1138,63,63,0
329.5248,329.66202,72,74,0
329.5248,329.66202,70,63,0
329.5248,329.66202,67,63,0
330.07074,330.20987,77,78,0
330.07074,330.20987,70,65,0
330.07074,330.20987,65,65,0
330.63116,330.77225,81,79,0
330.63116,330.77225,69,50,0
330.63116,330.77225,75,66,0
330.63116,330.77225,77,66,0
331.21298,331.4965,82,81,0
331.21298,331.4965,75,69,0
331.21298,331.4965,70,69,0
331.21298,331.4965,77,69,0
331.4965,331.78,82,80,0
331.4965,331.78,74,67,0
331.4965,331.78,70,67,0
331.4965,331.78,77,67,0
331.78,332.06348,77,78,0
331.78,332.06348,74,65,0
331.78,332.06348,70,65,0
332.06348,332.347,74,64,0
332.06348,332.347,70,54,0
332.06348,332.347,65,54,0
332.347,332.6305,70,63,0
332.347,332.6305,65,53,0
332.347,332.6305,62,53,0
332.6305,333.05573,70,55,0
332.6305,333.05573,58,46,0
333.05573,333.20602,74,55,0
333.05573,333.20602,62,46,0
333.20602,333.6273,77,55,0
333.20602,333.6273,65,41,0
333.7677,334.31293,77,54,0
333.7677,334.31293,65,44,0
334.31406,334.85883,78,63,0
334.31406,334.85883,66,53,0
334.85995,335.41046,79,68,0
334.85995,335.41046,67,57,0
335.41162,335.95685,81,71,0
335.41162,335.95685,69,58,0
335.95798,336.50275,84,72,0
335.95798,336.50275,72,60,0
336.50388,337.0544,82,70,0
336.50388,337.0544,70,58,0
337.05554,337.4693,81,58,0
337.05554,337.4693,69,49,0
337.4693,337.61447,79,51,0
337.4693,337.61447,67,42,0
337.61447,338.1815,78,58,0
337.61447,338.1815,66,49,0
338.1815,338.73798,78,55,0
338.1815,338.73798,66,46,0
338.73798,339.01114,79,53,0
338.73798,339.01114,67,45,0
339.01114,339.2843,78,45,0
339.01114,339.2843,66,37,0
339.2843,339.5665,76,46,0
339.2843,339.5665,64,38,0
339.5665,339.8609,78,45,0
339.5665,339.8609,66,37,0
339.8609,341.00317,79,48,0
339.8609,341.00317,67,40,0
341.00317,341.29,72,53,0
341.27634,341.5635,71,53,0
341.54953,341.84302,70,53,0
341.82904,342.0956,71,53,0
342.0956,342.22916,71,48,0
342.22916,343.22073,76,48,0
343.22073,343.50757,71,53,0
343.49393,343.78107,69,53,0
343.7671,344.0606,68,53,0
344.04663,344.31537,69,53,0
344.31537,344.44598,69,48,0
344.44598,345.4438,74,48,0
345.4438,345.73062,72,58,0
345.71695,346.0041,71,60,0
345.9901,346.28363,69,63,0
346.26965,346.56436,67,66,0
346.56436,346.83264,74,68,0
346.56436,346.83264,66,57,0
346.83264,347.10092,72,66,0
346.83264,347.10092,64,56,0
347.10092,347.3741,71,63,0
347.10092,347.3741,62,53,0
347.3741,347.66562,69,60,0
347.3741,347.66562,60,51,0
347.66562,348.23874,67,58,0
347.66562,348.23874,59,49,0
348.23874,348.65805,71,55,0
348.23874,348.65805,62,55,0
348.65805,348.813,69,54,0
348.65805,348.813,60,54,0
348.813,349.3909,67,48,0
348.813,349.3909,59,40,0
349.95523,350.24207,72,53,0
350.22842,350.51556,71,53,0
350.5016,350.7951,70,53,0
350.78113,351.0704,71,53,0
351.0704,351.3675,83,53,0
351.35327,351.65222,81,53,0
351.6381,351.9344,80,53,0
351.9203,352.20245,81,53,0
351.0704,352.20245,76,48,0
352.20245,352.4893,71,53,0
352.47562,352.76276,69,53,0
352.74878,353.0423,68,53,0
353.02832,353.3126,69,53,0
353.3126,353.59814,81,58,0
353.59814,353.88712,79,60,0
353.88712,354.16928,78,63,0
354.16928,354.45145,79,66,0
353.3126,354.45145,74,48,0
354.45145,354.73828,72,58,0
354.7246,355.01175,71,60,0
354.99777,355.2913,69,63,0
355.2773,355.57202,67,66,0
355.57202,355.8403,78,68,0
355.57202,355.8403,66,57,0
355.57202,355.8403,74,57,0
355.8403,356.1086,76,66,0
355.8403,356.1086,64,56,0
355.8403,356.1086,72,56,0
356.1086,356.38177,74,63,0
356.1086,356.38177,62,53,0
356.1086,356.38177,71,53,0
356.38177,356.67328,72,60,0
356.38177,356.67328,60,51,0
356.38177,356.67328,69,51,0
356.67328,357.2464,67,49,0
356.67328,357.2464,59,49,0
356.67328,357.2464,71,58,0
357.2464,357.6657,72,55,0
357.6657,357.82065,69,54,0
357.2464,357.82065,66,46,0
357.2464,357.82065,60,46,0
357.82065,357.96283,55,39,0
357.82065,357.96283,67,39,0
358.01022,358.1524,67,27,0
358.01022,358.1524,55,22,0
358.1998,358.34198,67,27,0
358.1998,358.34198,55,22,0
358.38937,358.53156,67,30,0
358.38937,358.53156,55,25,0
358.57895,358.72113,67,30,0
358.57895,358.72113,55,25,0
358.76852,358.9107,67,30,0
358.76852,358.9107,55,25,0
358.9581,359.10025,67,38,0
358.9581,359.10025,55,32,0
359.14764,359.28983,67,28,0
359.14764,359.28983,55,24,0
359.33722,359.4794,67,30,0
359.33722,359.4794,55,25,0
359.5268,359.66473,67,39,0
359.5268,359.66473,55,33,0
359.7107,359.8486,67,30,0
359.7107,359.8486,55,25,0
359.8946,360.0325,67,30,0
359.8946,360.0325,55,25,0
360.0785,360.21957,55,39,0
360.0785,360.21957,67,39,0
360.2666,360.40768,67,27,0
360.2666,360.40768,55,22,0
360.4547,360.5958,67,27,0
360.4547,360.5958,55,22,0
360.64282,360.7794,67,30,0
360.64282,360.7794,55,25,0
360.82492,360.96152,67,30,0
360.82492,360.96152,55,25,0
361.00705,361.14365,67,30,0
361.00705,361.14365,55,25,0
361.18915,361.32562,67,38,0
361.18915,361.32562,55,32,0
361.37112,361.5076,67,28,0
361.37112,361.5076,55,24,0
361.5531,361.68958,67,30,0
361.5531,361.68958,55,25,0
361.73505,361.873,67,39,0
361.73505,361.873,55,33,0
361.91895,362.0569,67,30,0
361.91895,362.0569,55,25,0
362.10284,362.24075,67,30,0
362.10284,362.24075,55,25,0
362.28674,362.42465,55,39,0
362.28674,362.42465,67,39,0
362.4706,362.60855,67,27,0
362.4706,362.60855,55,22,0
362.6545,362.79245,67,27,0
362.6545,362.79245,55,22,0
362.8384,362.97632,67,30,0
362.8384,362.97632,55,25,0
363.0223,363.16022,67,30,0
363.0223,363.16022,55,25,0
363.20618,363.34412,67,30,0
363.20618,363.34412,55,25,0
363.39008,363.52798,67,38,0
363.39008,363.52798,55,32,0
363.57397,363.71188,67,28,0
363.57397,363.71188,55,24,0
363.75787,363.89578,67,30,0
363.75787,363.89578,55,25,0
363.94174,364.0775,67,39,0
363.94174,364.0775,55,33,0
364.12277,364.25854,67,30,0
364.12277,364.25854,55,25,0
364.3038,364.444,65,30,0
364.3038,364.444,53,25,0
364.4915,364.6294,55,39,0
364.4915,364.6294,63,39,0
364.4915,364.6294,60,39,0
364.4915,364.6294,67,39,0
364.67535,364.8133,67,27,0
364.67535,364.8133,63,22,0
364.67535,364.8133,60,22,0
364.67535,364.8133,55,22,0
364.85925,364.99716,67,27,0
364.85925,364.99716,63,22,0
364.85925,364.99716,60,22,0
364.85925,364.99716,55,22,0
365.04315,365.18106,67,30,0
365.04315,365.18106,63,22,0
365.04315,365.18106,60,22,0
365.04315,365.18106,55,25,0
365.22705,365.36496,67,30,0
365.22705,365.36496,63,22,0
365.22705,365.36496,60,22,0
365.22705,365.36496,55,25,0
365.41092,365.54886,67,30,0
365.41092,365.54886,63,22,0
365.41092,365.54886,60,22,0
365.41092,365.54886,55,25,0
365.59482,365.73273,67,38,0
365.59482,365.73273,62,32,0
365.59482,365.73273,59,32,0
365.59482,365.73273,55,32,0
365.77872,365.91663,67,28,0
365.77872,365.91663,62,32,0
365.77872,365.91663,59,32,0
365.77872,365.91663,55,24,0
365.96262,366.10052,67,30,0
365.96262,366.10052,62,32,0
365.96262,366.10052,59,32,0
365.96262,366.10052,55,25,0
366.14648,366.28442,67,39,0
366.14648,366.28442,62,33,0
366.14648,366.28442,59,33,0
366.14648,366.28442,55,33,0
366.33038,366.4683,67,30,0
366.33038,366.4683,62,25,0
366.33038,366.4683,59,25,0
366.33038,366.4683,55,25,0
366.51428,366.6522,67,30,0
366.51428,366.6522,62,25,0
366.51428,366.6522,59,25,0
366.51428,366.6522,55,25,0
366.69818,366.84036,55,39,0
366.69818,366.84036,63,39,0
366.69818,366.84036,60,39,0
366.69818,366.84036,67,39,0
366.88776,367.0299,67,27,0
366.88776,367.0299,55,22,0
367.0773,367.21948,67,27,0
367.0773,367.21948,55,22,0
367.26688,367.4058,67,34,0
367.26688,367.4058,55,28,0
367.4521,367.59097,67,35,0
367.4521,367.59097,55,29,0
367.63727,367.77615,67,36,0
367.63727,367.77615,55,30,0
367.82245,367.96133,67,48,0
367.82245,367.96133,55,40,0
368.00763,368.1465,67,36,0
368.00763,368.1465,55,32,0
368.1928,368.3317,67,41,0
368.1928,368.3317,55,34,0
368.378,368.51593,67,56,0
368.378,368.51593,55,47,0
368.5619,368.6998,67,43,0
368.5619,368.6998,55,36,0
368.7458,368.8837,67,44,0
368.7458,368.8837,55,37,0
368.9297,369.07077,55,59,0
368.9297,369.07077,67,59,0
369.1178,369.25888,67,41,0
369.1178,369.25888,55,33,0
369.3059,369.447,67,41,0
369.3059,369.447,55,33,0
369.49402,369.63058,67,46,0
369.49402,369.63058,55,37,0
369.67612,369.8127,67,46,0
369.67612,369.8127,55,37,0
369.85825,369.99484,67,46,0
369.85825,369.99484,55,37,0
370.04034,370.17682,67,58,0
370.04034,370.17682,55,49,0
370.22232,370.3588,67,42,0
370.22232,370.3588,55,36,0
370.4043,370.54077,67,46,0
370.4043,370.54077,55,37,0
370.58624,370.72418,68,65,0
370.58624,370.72418,56,55,0
370.77014,370.90808,68,52,0
370.77014,370.90808,56,42,0
370.95404,371.1053,68,55,0
370.95404,371.1053,56,44,0
371.1579,371.29553,55,70,0
371.1579,371.29553,67,70,0
371.3414,371.479,67,50,0
371.3414,371.479,55,40,0
371.52487,371.6625,67,50,0
371.52487,371.6625,55,40,0
371.70837,371.84598,67,55,0
371.70837,371.84598,55,46,0
371.89185,372.02948,67,55,0
371.89185,372.02948,55,44,0
372.07535,372.21295,67,54,0
372.07535,372.21295,55,44,0
372.25882,372.39645,67,69,0
372.25882,372.39645,55,57,0
372.44232,372.57993,67,49,0
372.44232,372.57993,55,42,0
372.6258,372.76343,67,52,0
372.6258,372.76343,55,42,0
372.8093,372.94507,67,67,0
372.8093,372.94507,55,57,0
372.99033,373.1261,67,51,0
372.99033,373.1261,55,42,0
373.17133,373.31152,65,50,0
373.17133,373.31152,53,41,0
373.359,373.49692,55,59,0
373.359,373.49692,64,59,0
373.359,373.49692,60,59,0
373.359,373.49692,67,59,0
373.5429,373.68082,67,41,0
373.5429,373.68082,64,33,0
373.5429,373.68082,60,33,0
373.5429,373.68082,55,33,0
373.72678,373.86472,67,41,0
373.72678,373.86472,64,33,0
373.72678,373.86472,60,33,0
373.72678,373.86472,55,33,0
373.91068,374.0458,67,46,0
373.91068,374.0458,64,33,0
373.91068,374.0458,60,33,0
373.91068,374.0458,55,37,0
374.09085,374.22598,67,46,0
374.09085,374.22598,64,33,0
374.09085,374.22598,60,33,0
374.09085,374.22598,55,37,0
374.27103,374.4062,67,46,0
374.27103,374.4062,64,33,0
374.27103,374.4062,60,33,0
374.27103,374.4062,55,37,0
374.45123,374.58636,67,58,0
374.45123,374.58636,62,49,0
374.45123,374.58636,59,49,0
374.45123,374.58636,55,49,0
374.6314,374.76654,67,42,0
374.6314,374.76654,62,49,0
374.6314,374.76654,59,49,0
374.6314,374.76654,55,36,0
374.81158,374.94672,67,46,0
374.81158,374.94672,62,49,0
374.81158,374.94672,59,49,0
374.81158,374.94672,55,37,0
374.99176,375.12875,67,59,0
374.99176,375.12875,62,50,0
374.99176,375.12875,59,50,0
374.99176,375.12875,55,50,0
375.1744,375.3114,67,46,0
375.1744,375.3114,62,37,0
375.1744,375.3114,59,37,0
375.1744,375.3114,55,37,0
375.35706,375.50854,67,46,0
375.35706,375.50854,62,37,0
375.35706,375.50854,59,37,0
375.35706,375.50854,55,37,0
375.56146,376.65735,67,48,0
375.56146,376.65735,55,40,0
375.56146,376.65735,60,40,0
375.56146,376.65735,64,40,0
377.2053,377.61905,71,44,0
377.2053,377.61905,67,37,0
377.2053,377.61905,62,37,0
377.61905,377.75696,72,38,0
377.61905,377.75696,67,32,0
377.61905,377.75696,64,32,0
377.75696,378.15436,74,51,0
377.75696,378.1802,67,35,0
377.75696,378.1802,65,35,0
378.3213,378.70602,74,42,0
378.3213,378.73105,65,35,0
378.3213,378.73105,67,35,0
378.86765,379.25204,74,42,0
378.86765,379.27707,67,35,0
378.86765,379.27707,65,35,0
379.41354,379.8273,72,46,0
379.41354,379.8273,67,39,0
379.41354,379.8273,64,39,0
379.8273,379.9652,74,47,0
379.8273,379.9652,67,39,0
379.8273,379.9652,65,39,0
379.9652,380.79272,76,53,0
379.9652,380.79272,67,45,0
380.79272,381.06857,74,44,0
380.79272,381.06857,67,37,0
380.79272,381.06857,65,37,0
381.06857,381.62024,72,39,0
381.06857,381.62024,67,33,0
381.06857,381.62024,64,33,0
381.62024,382.02756,74,49,0
381.62024,382.02756,67,41,0
381.62024,382.02756,65,41,0
382.02756,382.16995,72,42,0
382.02756,382.16995,67,35,0
382.02756,382.16995,64,35,0
382.16995,382.72162,71,46,0
382.16995,382.72162,67,39,0
382.16995,382.72162,62,39,0
382.72162,383.13538,69,44,0
382.72162,383.13538,67,37,0
382.72162,383.13538,60,37,0
383.13538,383.27332,71,36,0
383.13538,383.27332,67,30,0
383.13538,383.27332,62,30,0
383.27332,383.84164,72,48,0
383.27332,383.84164,67,40,0
383.27332,383.84164,64,40,0
383.84164,384.26096,74,43,0
383.84164,384.26096,71,36,0
383.84164,384.26096,67,36,0
384.26096,384.409,76,44,0
384.26096,384.409,72,37,0
384.26096,384.409,67,37,0
384.409,386.12875,74,51,0
384.409,386.12875,67,43,0
384.409,386.12875,71,43,0
386.12875,386.5425,71,62,0
386.12875,386.5425,67,52,0
386.12875,386.5425,59,52,0
386.5425,386.69174,72,60,0
386.5425,386.69174,69,50,0
386.5425,386.69174,60,50,0
386.69174,387.2332,74,73,0
386.69174,387.2332,71,61,0
386.69174,387.2332,62,61,0
387.2332,387.7689,74,60,0
387.2332,387.7689,71,50,0
387.2332,387.7689,62,50,0
387.7689,388.3261,74,60,0
387.7689,388.3261,71,50,0
387.7689,388.3261,62,50,0
388.3261,388.73987,76,61,0
388.3261,388.73987,72,51,0
388.3261,388.73987,64,49,0
388.73987,388.88913,77,67,0
388.73987,388.88913,74,46,0
388.73987,388.88913,65,46,0
388.88913,389.4293,79,75,0
388.88913,389.4293,67,54,0
388.88913,389.4293,76,54,0
389.4293,389.97723,77,69,0
389.4293,389.97723,71,58,0
389.4293,389.97723,74,58,0
389.97723,390.55576,76,76,0
389.97723,390.55576,72,54,0
390.55576,390.96674,77,69,0
390.55576,390.96674,69,58,0
390.96674,391.10913,74,60,0
390.96674,391.10913,69,51,0
390.96674,391.10913,65,51,0
391.10913,391.66467,71,66,0
391.10913,391.66467,65,55,0
391.10913,391.66467,62,55,0
391.66467,392.21515,62,55,0
391.66467,392.21515,71,66,0
391.66467,392.21515,65,55,0
392.21515,392.79843,62,55,0
392.21515,392.79843,65,55,0
392.21515,392.79843,71,66,0
392.79843,393.22296,67,64,0
392.79843,393.22296,76,75,0
393.22296,393.371,74,62,0
393.22296,393.371,67,52,0
393.22296,393.371,65,52,0
393.371,394.55536,72,73,0
393.371,394.55536,64,61,0
393.371,394.55536,67,61,0
395.14755,395.5613,83,52,0
395.5613,395.69922,84,45,0
395.69922,396.2583,86,61,0
396.2583,396.80966,86,50,0
396.2583,396.80966,77,35,0
396.2583,396.80966,80,35,0
396.2583,396.80966,83,35,0
396.80966,397.35556,86,50,0
396.80966,397.35556,78,35,0
396.80966,397.35556,81,35,0
396.80966,397.35556,84,35,0
397.35556,397.76932,84,55,0
397.76932,397.90723,86,56,0
397.35556,397.90723,81,35,0
397.35556,397.90723,78,35,0
397.90723,398.73474,87,63,0
398.73474,399.0106,86,52,0
399.0106,399.56967,84,46,0
397.90723,399.56967,81,35,0
397.90723,399.56967,78,35,0
399.56967,399.97696,86,58,0
399.97696,400.1194,84,50,0
399.56967,400.1194,81,35,0
399.56967,400.1194,74,35,0
400.1194,400.67105,83,55,0
400.1194,400.67105,79,35,0
400.1194,400.67105,74,35,0
400.67105,401.0848,81,52,0
401.0848,401.22272,83,52,0
400.67105,401.22272,79,35,0
400.67105,401.22272,74,35,0
401.22272,401.79788,84,57,0
401.22272,401.79788,79,35,0
401.22272,401.79788,72,35,0
401.79788,402.2172,86,51,0
401.79788,402.2172,83,39,0
402.2172,402.36523,87,52,0
402.2172,402.36523,84,40,0
401.79788,402.36523,79,35,0
402.36523,404.14178,86,51,0
402.36523,404.14178,83,39,0
402.36523,404.14178,79,39,0
404.14178,404.55554,74,55,0
404.55554,404.69345,75,47,0
404.69345,405.08194,77,64,0
405.24512,405.6336,77,52,0
405.24512,405.65887,71,44,0
405.24512,405.65887,68,44,0
405.24512,405.65887,74,44,0
405.7968,406.16003,77,52,0
405.7968,406.18365,70,44,0
405.7968,406.18365,68,44,0
406.31262,406.37344,75,47,0
406.37344,406.43427,77,47,0
406.43427,406.72693,75,70,0
406.72693,406.89395,74,58,0
406.31262,406.89395,68,39,0
406.31262,406.89395,70,39,0
406.89395,407.43854,67,56,0
406.89395,407.43854,70,56,0
406.89395,407.7142,79,66,0
407.7142,407.9899,77,55,0
407.43854,407.9899,68,36,0
407.43854,407.9899,74,44,0
407.9899,408.54126,75,48,0
407.9899,408.54126,67,56,0
408.54126,408.94858,74,63,0
408.54126,408.94858,65,53,0
408.94858,409.091,72,54,0
408.94858,409.091,63,46,0
408.54126,409.091,68,46,0
409.091,409.64267,71,59,0
409.091,409.64267,67,50,0
409.091,409.64267,62,50,0
409.64267,410.05643,69,61,0
410.05643,410.19434,71,50,0
409.64267,410.19434,67,47,0
409.64267,410.19434,62,49,0
410.19434,410.75787,72,63,0
410.19434,410.75787,67,63,0
410.19434,410.75787,60,63,0
410.75787,411.18054,77,63,0
411.18054,411.32858,75,55,0
411.18054,411.32858,72,46,0
410.75787,411.32858,67,53,0
411.32858,413.04834,74,51,0
411.32858,413.04834,67,43,0
411.32858,413.04834,71,43,0
413.04834,413.4621,71,68,0
413.04834,413.4621,67,57,0
413.04834,413.4621,59,57,0
413.4621,413.61133,72,66,0
413.4621,413.61133,69,55,0
413.4621,413.61133,60,55,0
413.61133,414.1655,74,80,0
413.61133,414.1655,71,67,0
413.61133,414.1655,62,67,0
414.1655,414.70435,74,66,0
414.1655,414.70435,71,55,0
414.1655,414.70435,62,55,0
414.70435,415.23767,74,67,0
414.70435,415.23767,71,56,0
414.70435,415.23767,62,56,0
415.23767,415.65143,76,63,0
415.23767,415.65143,72,53,0
415.23767,415.65143,64,53,0
415.65143,415.84543,77,79,0
415.65143,415.84543,74,54,0
415.65143,415.84543,65,54,0
415.84543,416.66458,79,93,0
415.84543,416.66458,67,67,0
415.84543,416.66458,76,67,0
416.66458,416.93854,77,74,0
416.66458,416.93854,65,62,0
416.66458,416.93854,74,62,0
416.93854,417.50238,76,77,0
416.93854,417.50238,73,55,0
416.93854,417.50238,64,55,0
418.0821,418.9132,64,60,0
418.9132,419.19623,65,54,0
419.19623,419.76093,64,50,0
418.0821,419.76093,61,51,0
418.0821,419.76093,55,51,0
420.32965,421.14877,77,93,0
420.32965,421.14877,65,67,0
420.32965,421.14877,74,67,0
421.14877,421.42276,75,74,0
421.14877,421.42276,63,62,0
421.14877,421.42276,72,62,0
421.42276,421.9866,74,77,0
421.42276,421.9866,71,55,0
421.42276,421.9866,62,55,0
422.56628,423.39743,62,60,0
423.39743,423.68045,63,54,0
423.68045,424.24515,62,50,0
422.56628,424.24515,59,51,0
422.56628,424.24515,53,51,0
424.81387,425.9354,75,60,0
425.9354,426.49353,74,53,0
426.49353,427.07462,72,50,0
424.81387,427.07462,69,43,0
427.07462,428.20996,67,51,0
428.20996,428.49167,72,51,0
428.49167,428.77335,71,46,0
428.77335,429.05502,69,49,0
429.05502,429.34695,71,41,0
428.20996,429.34695,65,36,0
429.34695,432.71375,64,34,0
429.34695,433.30197,72,48,0
433.30197,433.71573,71,37,0
433.71573,433.85364,72,32,0
433.85364,434.25104,74,43,0
434.418,434.81284,74,35,0
434.97873,435.36108,74,35,0
435.52173,435.79755,72,39,0
435.79755,436.0888,71,39,0
436.0888,436.907,75,45,0
436.907,437.17972,74,37,0
437.17972,437.45245,72,33,0
437.45245,437.74948,67,33,0
437.74948,438.02597,72,35,0
438.02597,438.31723,74,40,0
438.31723,438.8806,75,45,0
438.8806,439.16635,74,45,0
439.16635,439.45206,72,42,0
439.45206,439.89758,67,46,0
440.0461,440.51486,65,32,0
440.0461,440.51486,71,38,0
440.6711,442.5461,72,43,0
440.6711,442.5461,64,36,0
443.6621,444.76877,79,37,0
443.6621,444.76877,67,29,0
445.88132,446.99652,79,36,0
445.88132,446.99652,67,29,0
446.99652,447.27304,75,35,0
447.27304,447.5643,77,40,0
447.5643,447.84598,79,45,0
447.84598,448.1277,75,40,0
448.1277,448.4134,71,45,0
448.4134,448.6991,72,42,0
448.6991,449.14465,67,46,0
449.29315,449.7619,65,32,0
449.29315,449.7619,71,38,0
449.91815,451.16815,72,43,0
449.91815,451.16815,64,36,0
451.16815,451.6137,67,46,0
451.7622,452.23096,65,32,0
451.7622,452.23096,71,38,0
452.3872,453.6372,72,43,0
452.3872,453.6372,64,36,0
453.6372,454.2313,55,48,0
454.2313,454.8799,53,34,0
454.2313,454.8799,59,41,0
454.8799,456.25925,60,48,0
454.8799,456.25925,52,40,0
456.25925,457.77823,60,46,0
456.25925,457.77823,52,38,0
456.25925,457.77823,55,38,0
457.77823,461.44235,60,46,0
457.77823,461.44235,52,38,0
457.77823,461.44235,55,38,0
0.0,2.2310135,31,60,0
0.0,2.2310135,43,70,0
11.258736,11.534573,55,35,0
11.67249,11.741449,55,33,0
11.810409,12.081119,55,40,0
12.351828,12.626251,55,33,0
12.900675,13.173625,55,33,0
13.446576,13.722412,55,46,0
13.860331,13.92929,55,47,0
13.998249,14.136167,55,53,0
14.532705,14.669692,57,53,0
14.943665,15.012157,59,43,0
15.08065,15.354623,60,49,0
15.628595,15.900138,53,45,0
16.03591,16.107115,53,36,0
16.178318,17.143747,55,44,0
17.143747,17.212706,53,30,0
17.143747,17.212706,55,36,0
17.281666,17.563435,55,48,0
17.281666,17.563435,51,40,0
17.864943,18.14796,55,53,0
17.864943,18.14796,43,45,0
18.28947,18.363493,43,37,0
18.28947,18.363493,55,44,0
18.437515,20.214066,55,55,0
18.437515,20.214066,48,46,0
29.208303,29.48414,58,35,0
29.622059,29.691017,58,33,0
29.759975,30.035812,58,40,0
30.31165,30.587486,58,33,0
30.863321,31.136272,58,33,0
31.409224,31.68506,58,46,0
31.822977,31.891937,58,47,0
31.960896,32.098816,58,53,0
32.495354,32.63234,60,53,0
32.90631,32.974804,62,43,0
33.043297,33.317272,63,49,0
33.591244,33.862785,53,45,0
33.998558,34.069763,53,36,0
34.14097,35.106396,55,44,0
35.106396,35.175354,55,36,0
35.106396,35.175354,53,30,0
35.244312,35.52608,55,48,0
35.244312,35.52608,51,40,0
35.835476,36.118496,43,45,0
35.835476,36.118496,55,53,0
36.260006,36.334026,43,37,0
36.260006,36.334026,55,44,0
36.40805,38.1846,55,55,0
36.40805,38.1846,48,46,0
39.287945,39.7017,65,36,0
39.83962,40.249043,66,36,0
40.385517,40.93719,62,30,0
40.385517,40.93719,66,36,0
40.93719,41.75246,60,46,0
41.75246,42.026886,62,46,0
42.026886,42.575733,63,46,0
40.93719,42.575733,66,39,0
42.575733,43.125454,62,37,0
42.575733,43.125454,54,31,0
43.125454,43.677128,62,42,0
43.125454,43.677128,55,35,0
43.677128,44.09088,55,35,0
43.677128,44.09088,62,43,0
43.677128,44.09088,53,35,0
44.09088,44.2288,62,35,0
44.09088,44.2288,53,29,0
44.09088,44.2288,55,29,0
44.2288,44.79234,60,47,0
44.2288,44.79234,51,39,0
44.2288,44.79234,55,39,0
44.79234,45.214993,50,40,0
44.79234,45.214993,55,40,0
44.79234,45.214993,59,48,0
45.214993,45.36304,55,41,0
45.214993,45.36304,60,49,0
45.214993,45.36304,48,41,0
45.36304,47.139587,55,48,0
45.36304,47.139587,59,57,0
47.139587,47.415424,43,51,0
47.139587,47.415424,55,61,0
47.553345,47.622303,43,48,0
47.553345,47.622303,55,57,0
47.69126,47.9671,43,59,0
47.69126,47.9671,55,70,0
48.242935,48.518772,43,55,0
48.242935,48.518772,55,64,0
48.79461,49.06756,43,56,0
48.79461,49.06756,55,66,0
49.340508,49.616344,43,68,0
49.340508,49.616344,55,80,0
49.754265,49.823223,55,66,0
49.754265,49.823223,43,56,0
49.89218,50.0301,43,61,0
49.89218,50.0301,55,73,0
50.42664,50.563625,45,70,0
50.42664,50.563625,57,84,0
50.837597,50.974583,59,68,0
50.837597,50.974583,47,56,0
50.974583,51.248558,60,78,0
50.974583,51.248558,48,64,0
51.52253,51.79407,41,52,0
51.52253,51.79407,53,62,0
51.929844,52.00105,41,41,0
51.929844,52.00105,53,49,0
52.07225,52.348087,55,61,0
52.07225,52.348087,43,51,0
52.623924,52.89976,55,61,0
53.03768,53.10664,53,41,0
53.03768,53.10664,55,49,0
53.1756,53.457367,55,66,0
53.1756,53.457367,51,56,0
53.758877,54.041893,43,73,0
53.758877,54.041893,31,61,0
54.183403,54.257427,31,51,0
54.183403,54.257427,43,61,0
54.331448,56.107998,36,64,0
54.331448,56.107998,43,77,0
57.211346,57.6251,65,41,0
57.763016,58.14988,65,41,0
57.763016,58.14988,62,34,0
58.278835,58.881607,65,41,0
58.278835,58.881607,58,34,0
58.881607,59.426197,63,52,0
59.426197,59.977566,62,30,0
59.426197,59.977566,65,36,0
59.426197,59.977566,59,30,0
59.977566,60.528934,63,52,0
59.977566,60.528934,60,44,0
60.528934,61.078655,53,43,0
61.078655,61.63033,55,48,0
61.63033,62.044083,55,49,0
62.044083,62.182003,55,40,0
62.044083,62.182003,53,34,0
62.182003,62.74554,55,53,0
62.182003,62.74554,51,45,0
62.74554,63.168198,59,55,0
62.74554,63.168198,55,46,0
62.74554,63.168198,50,46,0
63.168198,63.316242,48,47,0
63.168198,63.316242,55,47,0
63.168198,63.316242,60,56,0
63.316242,65.09279,59,64,0
63.316242,65.09279,55,55,0
65.09279,65.36863,46,66,0
65.09279,65.36863,34,56,0
65.506546,65.57551,34,52,0
65.506546,65.57551,46,60,0
65.64446,65.9203,34,64,0
65.64446,65.9203,46,76,0
66.19614,66.47197,46,69,0
66.19614,66.47197,34,57,0
66.74781,67.02076,34,59,0
66.74781,67.02076,46,71,0
67.29371,67.56955,34,73,0
67.29371,67.56955,46,86,0
67.707466,67.77643,46,71,0
67.707466,67.77643,34,59,0
67.84538,67.9833,46,79,0
67.84538,67.9833,34,67,0
68.37984,68.51683,48,91,0
68.37984,68.51683,36,76,0
68.7908,68.92779,50,74,0
68.7908,68.92779,38,60,0
68.92779,69.20176,51,84,0
68.92779,69.20176,39,71,0
69.47573,69.74728,53,67,0
69.47573,69.74728,41,57,0
69.88304,69.95425,53,53,0
69.88304,69.95425,41,44,0
70.02545,70.30129,43,56,0
70.02545,70.30129,55,66,0
70.577126,70.85297,55,66,0
70.99088,71.05984,53,44,0
70.99088,71.05984,55,53,0
71.1288,71.41057,55,71,0
71.1288,71.41057,51,59,0
71.73033,72.01335,31,67,0
71.73033,72.01335,43,79,0
72.15486,72.22888,31,56,0
72.15486,72.22888,43,66,0
72.3029,74.07945,36,70,0
72.3029,74.07945,43,83,0
74.65203,76.42857,56,72,0
74.65203,76.42857,51,61,0
74.65203,76.42857,44,61,0
77.01782,78.79437,51,72,0
77.01782,78.79437,39,61,0
77.01782,78.79437,48,61,0
78.79437,79.34409,60,57,0
78.79437,79.34409,48,48,0
79.34409,79.89577,41,47,0
79.34409,79.89577,53,56,0
79.89577,80.17161,55,56,0
79.89577,80.17161,43,47,0
80.309525,80.37848,56,45,0
80.309525,80.37848,44,38,0
80.44744,81.030716,43,51,0
80.44744,81.030716,55,60,0
81.030716,81.603294,31,47,0
81.030716,81.603294,43,56,0
81.603294,83.379845,36,50,0
81.603294,83.379845,43,50,0
81.603294,83.379845,48,59,0
83.967735,85.74428,56,56,0
83.967735,85.74428,51,47,0
83.967735,85.74428,44,47,0
86.33581,88.11236,51,59,0
86.33581,88.11236,48,50,0
86.33581,88.11236,39,50,0
88.66209,89.20568,49,39,0
89.20568,89.48137,51,39,0
89.61921,89.68813,53,31,0
89.75705,90.03882,51,42,0
90.34033,90.623344,39,28,0
90.34033,90.623344,51,35,0
90.9129,91.1103,44,40,0
91.1103,91.30769,48,33,0
91.30769,91.50509,51,33,0
91.50509,91.69589,48,40,0
91.69589,91.886696,51,29,0
91.886696,92.0775,56,30,0
92.0775,92.2683,47,40,0
92.2683,92.4591,50,33,0
92.4591,92.6499,56,33,0
92.6499,92.83379,48,40,0
92.83379,93.017685,51,35,0
93.017685,93.217,56,35,0
93.217,93.40511,44,40,0
93.40511,93.59322,48,33,0
93.59322,93.781334,56,33,0
93.781334,93.963455,48,40,0
93.963455,94.14557,51,29,0
94.14557,94.32769,56,30,0
94.32769,94.50965,47,40,0
94.50965,94.69162,50,33,0
94.69162,94.87359,56,33,0
94.87359,95.05748,48,40,0
95.05748,95.2496,51,35,0
95.2496,95.44997,56,35,0
95.44997,95.63291,49,40,0
95.63291,95.815865,53,33,0
95.815865,95.99881,56,33,0
95.99881,96.17453,49,40,0
96.17453,96.35024,55,29,0
96.35024,96.541046,58,30,0
96.541046,96.72484,48,40,0
96.72484,96.90863,56,33,0
96.90863,97.092415,60,33,0
97.092415,97.27128,48,40,0
97.27128,97.450134,51,35,0
97.450134,97.64003,56,35,0
97.64003,97.82298,46,40,0
97.82298,98.00593,51,33,0
98.00593,98.18888,56,33,0
98.18888,98.36694,46,40,0
98.36694,98.545006,51,29,0
98.545006,98.733116,55,30,0
98.733116,98.91523,44,35,0
98.91523,99.09735,51,28,0
99.09735,99.279465,58,28,0
99.279465,99.45832,44,35,0
99.45832,99.637184,51,27,0
99.637184,99.8289,56,35,0
99.8289,100.01185,49,30,0
100.01185,100.1948,56,24,0
100.1948,100.37775,58,24,0
100.37775,100.5607,53,32,0
100.5607,100.743645,56,23,0
100.743645,100.9266,61,24,0
100.9266,101.11209,51,30,0
101.11209,101.297585,56,23,0
101.297585,101.48308,60,23,0
101.48308,101.67119,51,29,0
101.67119,101.8593,55,23,0
101.8593,102.04741,58,23,0
102.04741,102.24098,44,33,0
102.24098,102.434555,48,23,0
102.434555,102.62813,56,23,0
102.62813,102.816246,48,31,0
102.816246,103.00436,51,25,0
103.00436,103.19247,56,26,0
103.19247,103.37882,47,40,0
103.37882,103.565186,50,31,0
103.565186,103.75154,56,31,0
103.75154,103.93543,48,40,0
103.93543,104.11932,51,35,0
104.11932,104.31864,56,35,0
104.31864,104.50675,44,40,0
104.50675,104.69486,48,33,0
104.69486,104.88297,56,33,0
104.88297,105.06509,48,40,0
105.06509,105.24721,51,29,0
105.24721,105.42932,56,30,0
105.42932,105.61129,47,40,0
105.61129,105.79326,50,33,0
105.79326,105.97522,56,33,0
105.97522,106.15911,48,40,0
106.15911,106.35124,51,35,0
106.35124,106.58925,56,35,0
106.58925,106.77304,49,40,0
106.77304,106.95683,52,33,0
106.95683,107.14062,56,33,0
107.14062,107.32028,49,40,0
107.32028,107.49995,52,29,0
107.49995,107.69075,58,30,0
107.69075,107.87454,47,40,0
107.87454,108.05833,54,33,0
108.05833,108.24212,59,33,0
108.24212,108.420975,47,40,0
108.420975,108.59984,54,35,0
108.59984,108.789734,59,35,0
108.789734,108.97268,52,40,0
108.97268,109.15563,56,33,0
109.15563,109.33858,61,33,0
109.33858,109.51664,52,40,0
109.51664,109.6947,54,29,0
109.6947,109.88282,58,30,0
109.88282,110.06493,51,35,0
110.06493,110.24705,54,28,0
110.24705,110.42917,59,28,0
110.42917,110.608025,51,35,0
110.608025,110.78688,55,27,0
110.78688,110.965744,61,35,0
110.965744,111.14869,52,30,0
111.14869,111.33164,56,24,0
111.33164,111.50415,59,24,0
111.50415,111.683815,56,32,0
111.683815,111.86348,59,23,0
111.86348,112.04314,64,24,0
112.04314,112.22864,54,30,0
112.22864,112.41413,59,23,0
112.41413,112.599625,63,23,0
112.599625,112.787735,54,29,0
112.787735,112.975845,58,23,0
112.975845,113.163956,61,23,0
113.163956,113.3566,47,33,0
113.3566,113.54924,51,23,0
113.54924,113.74188,59,23,0
113.74188,113.92999,51,31,0
113.92999,114.1181,54,25,0
114.1181,114.30621,59,27,0
114.30621,114.49432,50,42,0
114.49432,114.682434,53,32,0
114.682434,114.870544,59,32,0
114.870544,115.054436,51,42,0
115.054436,115.23833,54,37,0
115.23833,115.437645,59,38,0
115.437645,115.62488,47,44,0
115.62488,115.81211,51,36,0
115.81211,115.99934,54,37,0
115.99934,116.18146,47,47,0
116.18146,116.36357,51,34,0
116.36357,116.545685,54,36,0
116.545685,116.72765,46,51,0
116.72765,116.90962,49,48,0
116.90962,117.09159,51,49,0
117.09159,117.27548,44,62,0
117.27548,117.45937,49,55,0
117.45937,117.643265,51,56,0
117.643265,117.82538,43,72,0
117.82538,118.00749,49,58,0
118.00749,118.18961,51,62,0
118.18961,118.371574,43,69,0
118.371574,118.55354,46,48,0
118.55354,118.73551,51,55,0
118.73551,118.9194,44,62,0
118.9194,119.103294,47,49,0
119.103294,119.287186,51,48,0
119.287186,119.47108,49,44,0
119.47108,119.65497,52,38,0
119.65497,119.84612,58,38,0
119.84612,120.03512,51,33,0
120.03512,120.22412,58,27,0
120.22412,120.413124,61,27,0
120.413124,120.59862,51,34,0
120.59862,120.78411,58,25,0
120.78411,120.969604,61,26,0
120.969604,121.15172,51,36,0
121.15172,121.33384,58,29,0
121.33384,121.51595,61,29,0
121.51595,121.70406,51,35,0
121.70406,121.89217,58,28,0
121.89217,122.092545,61,28,0
122.092545,122.28519,56,33,0
122.28519,122.47783,60,23,0
122.47783,122.67047,63,23,0
122.67047,122.85858,60,31,0
122.85858,123.04669,63,25,0
123.04669,123.2348,68,27,0
123.2348,123.42291,59,38,0
123.42291,123.61102,62,32,0
123.61102,123.79913,68,32,0
123.79913,123.983025,60,42,0
123.983025,124.166916,63,37,0
124.166916,124.366234,68,38,0
124.366234,124.554344,56,44,0
124.554344,124.742455,60,36,0
124.742455,124.930565,68,37,0
124.930565,125.112686,60,47,0
125.112686,125.2948,63,34,0
125.2948,125.47691,68,36,0
125.47691,125.65888,59,50,0
125.65888,125.84085,62,42,0
125.84085,126.02282,68,43,0
126.02282,126.20671,60,55,0
126.20671,126.3906,63,47,0
126.3906,126.57449,68,45,0
126.57449,126.75661,61,61,0
126.75661,126.93872,65,46,0
126.93872,127.12084,68,51,0
127.12084,127.30281,61,61,0
127.30281,127.48477,63,49,0
127.48477,127.66674,70,49,0
127.66674,127.85063,60,57,0
127.85063,128.03453,63,45,0
128.03453,128.21841,68,44,0
128.21841,128.4023,60,44,0
128.4023,128.5862,63,38,0
128.5862,128.77734,68,38,0
128.77734,128.96545,58,44,0
128.96545,129.15356,63,36,0
129.15356,129.34169,70,37,0
129.34169,129.5238,58,47,0
129.5238,129.70592,63,34,0
129.70592,129.88803,67,36,0
129.88803,130.06999,56,45,0
130.06999,130.25197,63,36,0
130.25197,130.43393,68,36,0
130.43393,130.61783,56,46,0
130.61783,130.80171,63,37,0
130.80171,130.98561,68,36,0
130.98561,131.16855,61,30,0
131.16855,131.3515,68,24,0
131.3515,131.53445,70,24,0
131.53445,131.7174,65,32,0
131.7174,131.90034,68,23,0
131.90034,132.0833,73,24,0
132.0833,132.2688,63,30,0
132.2688,132.45428,68,23,0
132.45428,132.63979,72,23,0
132.63979,132.8279,63,29,0
132.8279,133.016,67,23,0
133.016,133.20412,70,23,0
133.20412,133.49307,68,30,0
133.20412,133.49307,56,25,0
133.20412,133.49307,60,25,0
134.90811,135.32187,56,58,0
135.32187,135.47522,60,51,0
135.47522,135.89648,63,62,0
136.03691,136.44667,63,56,0
136.58325,136.99268,63,58,0
137.12915,137.54878,63,57,0
137.69257,138.78365,65,63,0
138.78365,139.88264,63,60,0
139.88264,140.97572,61,63,0
140.97572,142.0715,60,57,0
142.0715,142.62035,58,57,0
142.62035,143.1692,61,55,0
143.1692,143.72568,60,61,0
143.72568,144.29002,58,54,0
143.72568,144.29002,51,45,0
144.29002,144.86794,44,51,0
144.29002,144.86794,51,51,0
144.29002,144.86794,56,60,0
145.99142,146.40518,44,63,0
145.99142,146.40518,56,63,0
146.40518,146.55852,60,56,0
146.40518,146.55852,48,56,0
146.55852,146.9559,63,68,0
146.55852,146.98177,51,68,0
147.12285,147.53262,51,50,0
147.12285,147.53262,63,61,0
147.6692,148.07863,63,63,0
147.6692,148.07863,51,53,0
148.2151,148.63474,63,62,0
148.2151,148.63474,51,52,0
148.78651,149.89835,64,69,0
148.78651,149.89835,52,58,0
149.89835,151.00093,63,66,0
149.89835,151.00093,51,55,0
151.00093,152.09401,61,69,0
151.00093,152.09401,49,58,0
152.09401,152.90865,59,62,0
152.90865,153.18867,58,68,0
152.09401,153.18867,47,52,0
153.18867,153.73386,52,52,0
153.18867,153.73386,56,61,0
153.73386,154.29729,64,55,0
153.73386,154.29729,56,46,0
153.73386,154.29729,49,46,0
154.29729,154.85376,54,47,0
154.29729,154.85376,63,56,0
154.85376,155.43776,61,50,0
154.85376,155.43776,54,42,0
155.43776,156.01567,59,59,0
155.43776,156.01567,54,50,0
155.43776,156.01567,47,50,0
157.70885,157.89609,47,44,0
157.89609,158.08331,51,36,0
158.08331,158.27054,54,37,0
158.27054,158.45267,47,47,0
158.45267,158.63478,51,34,0
158.63478,158.8169,54,36,0
158.8169,158.99886,46,51,0
158.99886,159.18083,49,48,0
159.18083,159.3628,51,49,0
159.3628,159.54669,44,62,0
159.54669,159.73058,49,55,0
159.73058,159.91447,51,56,0
159.91447,160.09659,43,72,0
160.09659,160.2787,49,58,0
160.2787,160.46082,51,62,0
160.46082,160.64278,43,69,0
160.64278,160.82475,46,48,0
160.82475,161.00671,51,55,0
161.00671,161.19061,44,62,0
161.19061,161.3745,47,49,0
161.3745,161.5584,51,48,0
161.5584,161.74228,49,44,0
161.74228,161.92618,52,38,0
161.92618,162.11732,58,38,0
162.11732,162.30632,51,33,0
162.30632,162.49533,58,27,0
162.49533,162.68433,61,27,0
162.68433,162.86983,51,34,0
162.86983,163.05531,58,25,0
163.05531,163.24081,61,26,0
163.24081,163.42293,51,36,0
163.42293,163.60504,58,29,0
163.60504,163.78716,61,29,0
163.78716,163.97527,51,35,0
163.97527,164.16338,58,28,0
164.16338,164.36375,61,28,0
164.36375,164.50824,44,33,0
164.5564,164.70087,60,23,0
164.5564,164.70087,56,19,0
164.5564,164.70087,51,19,0
164.74904,164.89351,60,23,0
164.74904,164.89351,56,19,0
164.74904,164.89351,51,19,0
164.94168,165.08276,60,25,0
164.94168,165.08276,56,21,0
164.94168,165.08276,51,21,0
165.12979,165.27087,56,21,0
165.12979,165.27087,60,25,0
165.12979,165.27087,51,21,0
165.3179,165.45898,51,21,0
165.3179,165.45898,56,21,0
165.3179,165.45898,60,25,0
165.50601,165.6426,56,27,0
165.50601,165.6426,51,27,0
165.50601,165.6426,60,32,0
165.68813,165.8247,56,20,0
165.68813,165.8247,51,20,0
165.68813,165.8247,60,24,0
165.87024,166.00684,56,21,0
165.87024,166.00684,60,25,0
165.87024,166.00684,51,21,0
166.05235,166.19212,51,28,0
166.05235,166.19212,56,28,0
166.05235,166.19212,60,33,0
166.23872,166.37848,51,21,0
166.23872,166.37848,60,25,0
166.23872,166.37848,56,21,0
166.42508,166.55618,51,21,0
166.42508,166.55618,56,21,0
166.42508,166.55618,60,25,0
166.59843,166.73198,37,33,0
166.77946,166.92189,49,19,0
166.77946,166.92189,60,23,0
166.77946,166.92189,53,19,0
166.96936,167.11179,49,19,0
166.96936,167.11179,53,19,0
166.96936,167.11179,60,23,0
167.15926,167.30034,53,25,0
167.15926,167.30034,49,25,0
167.15926,167.30034,57,30,0
167.34737,167.48845,57,25,0
167.34737,167.48845,49,21,0
167.34737,167.48845,53,21,0
167.53548,167.67656,53,21,0
167.53548,167.67656,57,25,0
167.53548,167.67656,49,21,0
167.72359,167.86018,53,27,0
167.72359,167.86018,58,32,0
167.72359,167.86018,49,27,0
167.9057,168.0423,58,24,0
167.9057,168.0423,53,20,0
167.9057,168.0423,49,20,0
168.08783,168.22441,53,21,0
168.08783,168.22441,49,21,0
168.08783,168.22441,58,25,0
168.26994,168.40971,53,28,0
168.26994,168.40971,58,33,0
168.26994,168.40971,49,28,0
168.4563,168.59607,58,25,0
168.4563,168.59607,53,21,0
168.4563,168.59607,49,21,0
168.64265,168.77522,58,25,0
168.64265,168.77522,49,21,0
168.64265,168.77522,53,21,0
168.8182,168.94884,36,33,0
168.997,169.14148,58,23,0
168.997,169.14148,51,19,0
168.997,169.14148,48,19,0
169.18964,169.33412,58,23,0
169.18964,169.33412,48,19,0
169.18964,169.33412,51,19,0
169.38228,169.52336,51,25,0
169.38228,169.52336,55,30,0
169.38228,169.52336,48,25,0
169.57039,169.71147,48,21,0
169.57039,169.71147,51,21,0
169.57039,169.71147,55,25,0
169.7585,169.89958,55,25,0
169.7585,169.89958,51,21,0
169.7585,169.89958,48,21,0
169.94661,170.0832,48,29,0
169.94661,170.0832,51,29,0
169.94661,170.0832,56,35,0
170.12874,170.26532,56,27,0
170.12874,170.26532,48,22,0
170.12874,170.26532,51,22,0
170.31085,170.44743,48,24,0
170.31085,170.44743,56,29,0
170.31085,170.44743,51,24,0
170.49297,170.63274,51,33,0
170.49297,170.63274,56,39,0
170.49297,170.63274,48,33,0
170.67932,170.81909,51,25,0
170.67932,170.81909,56,30,0
170.67932,170.81909,48,25,0
170.86568,171.01555,56,31,0
170.86568,171.01555,48,26,0
170.86568,171.01555,51,26,0
171.0672,171.20134,37,42,0
171.24606,171.3802,49,25,0
171.24606,171.3802,53,30,0
171.42491,171.55907,49,26,0
171.42491,171.55907,53,31,0
171.60378,171.74036,53,39,0
171.60378,171.74036,49,33,0
171.78589,171.92249,53,29,0
171.78589,171.92249,49,24,0
171.968,172.11682,49,23,0
171.968,172.11682,53,28,0
172.16846,172.30505,39,36,0
172.35059,172.48717,56,26,0
172.35059,172.48717,51,21,0
172.5327,172.68713,51,22,0
172.5327,172.68713,56,26,0
172.7416,172.88136,39,34,0
172.92795,173.06772,55,26,0
172.92795,173.06772,51,21,0
173.1143,173.26418,55,25,0
173.1143,173.26418,51,21,0
173.31583,173.4603,44,33,0
173.50847,173.65294,56,19,0
173.50847,173.65294,51,19,0
173.50847,173.65294,60,23,0
173.70111,173.84558,51,19,0
173.70111,173.84558,60,23,0
173.70111,173.84558,56,19,0
173.89375,174.03484,56,21,0
173.89375,174.03484,51,21,0
173.89375,174.03484,60,25,0
174.08186,174.22295,51,21,0
174.08186,174.22295,56,21,0
174.08186,174.22295,60,25,0
174.26997,174.41106,56,21,0
174.26997,174.41106,51,21,0
174.26997,174.41106,60,25,0
174.45808,174.59467,56,27,0
174.45808,174.59467,51,27,0
174.45808,174.59467,60,32,0
174.6402,174.77678,51,20,0
174.6402,174.77678,60,24,0
174.6402,174.77678,56,20,0
174.82231,174.9589,60,25,0
174.82231,174.9589,56,21,0
174.82231,174.9589,51,21,0
175.00443,175.1442,51,28,0
175.00443,175.1442,56,28,0
175.00443,175.1442,60,33,0
175.19078,175.33055,60,25,0
175.19078,175.33055,56,21,0
175.19078,175.33055,51,21,0
175.37715,175.52342,56,21,0
175.37715,175.52342,60,25,0
175.37715,175.52342,51,21,0
175.57326,175.71368,37,33,0
175.76115,175.90358,60,23,0
175.76115,175.90358,53,19,0
175.76115,175.90358,49,19,0
175.95105,176.09348,49,19,0
175.95105,176.09348,53,19,0
175.95105,176.09348,60,23,0
176.14095,176.28203,53,25,0
176.14095,176.28203,60,30,0
176.14095,176.28203,49,25,0
176.32906,176.47014,49,21,0
176.32906,176.47014,60,25,0
176.32906,176.47014,53,21,0
176.51717,176.65825,60,25,0
176.51717,176.65825,49,21,0
176.51717,176.65825,53,21,0
176.70528,176.84187,49,27,0
176.70528,176.84187,53,27,0
176.70528,176.84187,58,32,0
176.8874,177.02399,49,20,0
176.8874,177.02399,58,24,0
176.8874,177.02399,53,20,0
177.06952,177.2061,49,21,0
177.06952,177.2061,58,25,0
177.06952,177.2061,53,21,0
177.25163,177.3914,49,28,0
177.25163,177.3914,58,33,0
177.25163,177.3914,53,28,0
177.43799,177.57776,58,25,0
177.43799,177.57776,49,21,0
177.43799,177.57776,53,21,0
177.62434,177.76726,53,21,0
177.62434,177.76726,58,25,0
177.62434,177.76726,49,21,0
177.81541,177.9565,36,33,0
178.00467,178.14914,48,19,0
178.00467,178.14914,51,19,0
178.00467,178.14914,58,23,0
178.19731,178.34178,51,19,0
178.19731,178.34178,48,19,0
178.19731,178.34178,58,23,0
178.38994,178.53104,48,25,0
178.38994,178.53104,58,30,0
178.38994,178.53104,51,25,0
178.57806,178.71915,58,25,0
178.57806,178.71915,48,21,0
178.57806,178.71915,51,21,0
178.76617,178.90726,51,21,0
178.76617,178.90726,48,21,0
178.76617,178.90726,58,25,0
178.95428,179.09087,56,35,0
178.95428,179.09087,48,29,0
178.95428,179.09087,51,29,0
179.1364,179.27298,51,22,0
179.1364,179.27298,48,22,0
179.1364,179.27298,56,27,0
179.31851,179.4551,56,29,0
179.31851,179.4551,48,24,0
179.31851,179.4551,51,24,0
179.50063,179.6404,48,33,0
179.50063,179.6404,56,39,0
179.50063,179.6404,51,33,0
179.68698,179.82675,56,30,0
179.68698,179.82675,48,25,0
179.68698,179.82675,51,25,0
179.87335,180.02322,48,26,0
179.87335,180.02322,56,31,0
179.87335,180.02322,51,26,0
180.07486,180.209,37,42,0
180.25372,180.38786,53,25,0
180.25372,180.38786,49,25,0
180.25372,180.38786,56,30,0
180.43259,180.56673,49,26,0
180.43259,180.56673,56,31,0
180.43259,180.56673,53,26,0
180.61143,180.74803,49,33,0
180.61143,180.74803,57,39,0
180.61143,180.74803,53,33,0
180.79355,180.93015,57,29,0
180.79355,180.93015,49,24,0
180.79355,180.93015,53,24,0
180.97568,181.12448,53,23,0
180.97568,181.12448,49,23,0
180.97568,181.12448,58,28,0
181.17613,181.31271,39,36,0
181.35825,181.49483,56,26,0
181.35825,181.49483,51,21,0
181.54036,181.6948,56,26,0
181.54036,181.6948,51,22,0
181.74925,181.88902,39,34,0
181.93561,182.07538,51,21,0
181.93561,182.07538,55,21,0
181.93561,182.07538,58,26,0
182.12196,182.27185,51,21,0
182.12196,182.27185,55,21,0
182.12196,182.27185,58,25,0
182.32349,182.46797,44,33,0
182.51613,182.66061,48,21,0
182.51613,182.66061,44,19,0
182.51613,182.66061,51,23,0
182.70877,182.85326,51,23,0
182.70877,182.85326,44,19,0
182.70877,182.85326,48,19,0
182.90141,183.0425,51,25,0
182.90141,183.0425,48,21,0
182.90141,183.0425,44,21,0
183.08952,183.2306,44,21,0
183.08952,183.2306,51,25,0
183.08952,183.2306,48,21,0
183.27763,183.41872,44,21,0
183.27763,183.41872,48,21,0
183.27763,183.41872,51,25,0
183.46574,183.60233,48,27,0
183.46574,183.60233,51,32,0
183.46574,183.60233,44,27,0
183.64786,183.78445,48,27,0
183.64786,183.78445,51,24,0
183.64786,183.78445,44,20,0
183.82997,183.96657,51,25,0
183.82997,183.96657,48,21,0
183.82997,183.96657,44,21,0
182.32349,184.01208,32,33,0
184.01208,184.15186,44,28,0
184.01208,184.15186,48,28,0
184.01208,184.15186,51,33,0
184.19846,184.33823,51,25,0
184.19846,184.33823,48,21,0
184.19846,184.33823,44,21,0
184.38481,184.5307,51,25,0
184.38481,184.5307,48,21,0
184.38481,184.5307,44,21,0
184.58035,184.72484,44,33,0
184.773,184.91748,48,21,0
184.773,184.91748,44,19,0
184.773,184.91748,51,23,0
184.96564,185.11012,51,23,0
184.96564,185.11012,44,19,0
184.96564,185.11012,48,19,0
185.15828,185.29936,51,25,0
185.15828,185.29936,48,21,0
185.15828,185.29936,44,21,0
185.34639,185.48747,44,21,0
185.34639,185.48747,51,25,0
185.34639,185.48747,48,21,0
185.5345,185.67558,51,25,0
185.5345,185.67558,44,21,0
185.5345,185.67558,48,21,0
184.58035,185.72261,32,33,0
185.72261,185.8592,44,27,0
185.72261,185.8592,48,27,0
185.72261,185.8592,51,32,0
185.90472,186.04132,51,24,0
185.90472,186.04132,44,20,0
185.90472,186.04132,48,27,0
186.08685,186.22343,48,21,0
186.08685,186.22343,44,21,0
186.08685,186.22343,51,25,0
186.26897,186.40874,48,28,0
186.26897,186.40874,51,33,0
186.26897,186.40874,44,28,0
186.45532,186.5951,44,21,0
186.45532,186.5951,48,21,0
186.45532,186.5951,51,25,0
186.64168,186.82487,48,21,0
186.64168,186.82487,51,25,0
186.64168,186.82487,44,21,0
186.89319,187.03767,43,33,0
187.08583,187.23032,48,21,0
187.08583,187.23032,51,23,0
187.08583,187.23032,43,19,0
187.27847,187.42294,43,19,0
187.27847,187.42294,51,23,0
187.27847,187.42294,48,19,0
187.47112,187.6122,43,21,0
187.47112,187.6122,51,25,0
187.47112,187.6122,48,21,0
187.65923,187.80031,51,25,0
187.65923,187.80031,48,21,0
187.65923,187.80031,43,21,0
187.84734,187.98842,51,25,0
187.84734,187.98842,43,21,0
187.84734,187.98842,48,21,0
186.89319,188.03545,31,33,0
188.03545,188.17203,48,27,0
188.03545,188.17203,51,32,0
188.03545,188.17203,43,27,0
188.21756,188.35414,43,20,0
188.21756,188.35414,48,27,0
188.21756,188.35414,51,24,0
188.39967,188.53627,43,21,0
188.39967,188.53627,51,25,0
188.39967,188.53627,48,21,0
188.58179,188.72156,48,28,0
188.58179,188.72156,51,33,0
188.58179,188.72156,43,28,0
188.76816,188.90793,48,21,0
188.76816,188.90793,43,21,0
188.76816,188.90793,51,25,0
188.95451,189.1004,51,25,0
188.95451,189.1004,43,21,0
188.95451,189.1004,48,21,0
189.15005,189.29454,43,33,0
189.3427,189.48718,48,21,0
189.3427,189.48718,43,19,0
189.3427,189.48718,51,23,0
189.53534,189.67982,43,19,0
189.53534,189.67982,48,19,0
189.53534,189.67982,51,24,0
189.72798,189.86906,51,26,0
189.72798,189.86906,48,22,0
189.72798,189.86906,43,22,0
189.91609,190.05717,51,28,0
189.91609,190.05717,43,24,0
189.91609,190.05717,48,24,0
190.1042,190.24529,43,24,0
190.1042,190.24529,48,24,0
190.1042,190.24529,51,29,0
189.15005,190.29231,31,33,0
190.29231,190.42891,43,33,0
190.29231,190.42891,48,33,0
190.29231,190.42891,51,39,0
190.47443,190.61102,48,34,0
190.47443,190.61102,43,24,0
190.47443,190.61102,51,31,0
190.65656,190.79314,43,28,0
190.65656,190.79314,48,28,0
190.65656,190.79314,51,34,0
190.83867,190.97844,51,46,0
190.83867,190.97844,48,39,0
190.83867,190.97844,43,39,0
191.02502,191.1648,48,31,0
191.02502,191.1648,51,36,0
191.02502,191.1648,43,31,0
191.21138,191.39458,43,31,0
191.21138,191.39458,48,31,0
191.21138,191.39458,51,37,0
191.46289,191.60924,41,55,0
191.658,191.80435,48,32,0
191.658,191.80435,51,35,0
191.658,191.80435,41,28,0
191.85313,191.99948,48,28,0
191.85313,191.99948,51,35,0
191.85313,191.99948,41,28,0
192.04825,192.18933,51,37,0
192.04825,192.18933,48,32,0
192.04825,192.18933,41,32,0
192.23637,192.37746,51,37,0
192.23637,192.37746,41,32,0
192.23637,192.37746,48,32,0
192.42448,192.61235,41,32,0
192.42448,192.61235,48,32,0
192.42448,192.61235,51,37,0
191.46289,192.68277,29,55,0
192.68277,192.82912,42,55,0
192.8779,193.02423,51,35,0
192.8779,193.02423,42,28,0
192.8779,193.02423,48,32,0
193.07301,193.21936,48,28,0
193.07301,193.21936,42,28,0
193.07301,193.21936,51,35,0
193.26814,193.41032,42,32,0
193.26814,193.41032,48,32,0
193.26814,193.41032,51,37,0
193.45772,193.5999,42,32,0
193.45772,193.5999,48,32,0
193.45772,193.5999,51,37,0
193.6473,193.78946,51,37,0
193.6473,193.78946,48,32,0
193.6473,193.78946,42,32,0
192.68277,193.83685,30,55,0
193.83685,195.54301,50,48,0
193.83685,195.54301,47,48,0
193.83685,195.54301,43,48,0
195.54301,195.95677,47,35,0
195.95677,196.0947,48,30,0
196.0947,196.49208,50,40,0
196.65903,197.04375,50,33,0
197.20537,197.58978,50,33,0
197.75128,198.16502,48,36,0
198.16502,198.30295,50,37,0
198.30295,199.13046,51,42,0
199.13046,199.4063,50,35,0
199.4063,199.95796,48,31,0
199.95796,200.36528,46,39,0
200.36528,200.50769,44,33,0
200.50769,201.05937,43,36,0
201.05937,201.61104,43,36,0
201.61104,202.1627,43,36,0
202.1627,202.71439,43,36,0
202.71439,203.83865,48,48,0
204.39421,204.80797,47,50,0
204.39421,204.80797,35,42,0
204.80797,204.94589,48,44,0
204.80797,204.94589,36,37,0
204.94589,205.34328,50,62,0
204.94589,205.36914,38,51,0
205.51022,205.89494,50,50,0
205.51022,205.91998,38,42,0
206.05656,206.44098,50,50,0
206.05656,206.466,38,42,0
206.60248,207.01622,48,59,0
206.60248,207.01622,36,50,0
207.01622,207.17412,50,67,0
207.01622,207.17412,38,57,0
207.17412,207.99982,51,76,0
207.17412,207.99982,39,63,0
207.99982,208.27504,50,64,0
207.99982,208.27504,38,54,0
208.27504,208.8255,48,55,0
208.27504,208.8255,36,46,0
208.8255,209.23282,46,67,0
208.8255,209.23282,34,57,0
209.23282,209.37523,32,46,0
209.23282,209.37523,44,55,0
209.37523,209.9269,43,55,0
209.37523,209.9269,31,46,0
209.9269,210.46744,43,55,0
209.9269,210.46744,31,46,0
210.46744,211.00798,31,46,0
210.46744,211.00798,43,55,0
211.00798,211.57767,31,46,0
211.00798,211.57767,43,55,0
211.57767,211.76031,48,40,0
211.57767,211.76031,36,40,0
211.76031,211.8973,55,31,0
211.94296,212.07996,55,31,0
212.12561,212.2626,55,31,0
212.30826,212.44525,55,29,0
212.4909,212.6279,55,29,0
212.67355,212.81055,55,29,0
212.8562,212.9932,55,28,0
213.03885,213.17584,55,28,0
213.2215,213.35942,55,31,0
213.4054,213.5433,55,30,0
213.58928,213.7272,55,30,0
213.77318,213.91426,55,31,0
213.96129,214.10237,55,27,0
214.1494,214.29048,55,27,0
214.33751,214.47409,55,31,0
214.51962,214.6562,55,28,0
214.70174,214.83833,55,28,0
214.88385,215.02032,55,31,0
215.06583,215.2023,55,31,0
215.24779,215.38426,55,31,0
215.42976,215.56767,55,31,0
215.61365,215.75157,55,31,0
215.79755,215.93546,55,32,0
215.98143,216.11935,55,40,0
216.16533,216.30324,55,31,0
216.34921,216.48714,55,26,0
216.53311,216.67102,55,33,0
216.717,216.85492,55,29,0
216.90088,217.0388,55,26,0
217.08478,217.2227,55,33,0
217.26866,217.40659,55,30,0
217.45256,217.59048,55,29,0
217.63644,217.77222,55,33,0
217.81747,217.95325,55,30,0
217.9985,218.1387,55,30,0
218.18617,218.3241,55,31,0
218.37007,218.50798,55,28,0
218.55396,218.69188,55,28,0
218.73784,218.87576,55,31,0
218.92174,219.05966,55,28,0
219.10562,219.24355,55,31,0
219.28952,219.4304,55,36,0
219.47737,219.61826,55,29,0
219.6652,219.8097,55,29,0
219.85785,219.99762,55,36,0
220.0442,220.18398,55,31,0
220.23058,220.37585,55,31,0
220.4252,220.57326,55,37,0
220.6226,220.77065,55,29,0
220.81999,220.96803,55,29,0
221.0148,221.15376,55,44,0
221.20027,221.3401,55,37,0
221.38683,221.52753,55,39,0
221.57455,221.71614,55,53,0
221.76353,221.90602,55,39,0
221.95364,222.09703,55,40,0
222.14496,222.28288,55,52,0
222.32886,222.46677,55,45,0
222.51274,222.65822,55,52,0
222.70796,222.84332,55,59,0
222.88844,223.0238,55,47,0
223.06891,223.20427,55,47,0
223.24939,223.3866,54,52,0
223.24939,223.3866,55,52,0
223.43234,223.56955,54,43,0
223.43234,223.56955,55,43,0
223.61528,223.7525,54,43,0
223.61528,223.7525,55,43,0
223.79823,223.93471,55,54,0
223.79823,223.93471,53,54,0
223.98021,224.11668,53,45,0
223.98021,224.11668,55,45,0
224.16217,224.29865,53,45,0
224.16217,224.29865,55,45,0
224.34413,224.48206,51,53,0
224.34413,224.48206,55,53,0
224.52803,224.66594,55,43,0
224.52803,224.66594,50,43,0
224.71191,224.85739,55,44,0
224.71191,224.85739,48,44,0
224.90715,225.04506,55,57,0
224.90715,225.04506,48,57,0
225.09103,225.22704,55,45,0
225.09103,225.22704,48,45,0
225.27109,225.40324,48,45,0
225.27109,225.40324,55,45,0
225.4473,225.58429,46,54,0
225.4473,225.58429,55,54,0
225.62994,225.76694,46,45,0
225.62994,225.76694,55,45,0
225.81259,225.94958,55,45,0
225.81259,225.94958,46,45,0
225.99524,226.13223,55,55,0
225.99524,226.13223,45,55,0
226.17789,226.31998,55,43,0
226.17789,226.31998,45,43,0
226.37074,226.52303,55,43,0
226.37074,226.52303,45,43,0
226.57379,226.71077,54,52,0
226.57379,226.71077,44,52,0
226.75644,226.89342,54,43,0
226.75644,226.89342,44,43,0
226.93909,227.07968,44,42,0
226.93909,227.07968,54,42,0
227.12715,227.26604,53,54,0
227.12715,227.26604,43,54,0
227.31233,227.45123,53,45,0
227.31233,227.45123,43,45,0
227.49753,227.63641,53,45,0
227.49753,227.63641,43,45,0
227.68271,227.82033,41,54,0
227.68271,227.82033,43,54,0
227.8662,228.00381,43,43,0
227.8662,228.00381,41,43,0
228.04968,228.1873,41,43,0
228.04968,228.1873,43,43,0
228.23317,228.37405,43,55,0
228.23317,228.37405,39,55,0
228.42102,228.56519,39,43,0
228.42102,228.56519,43,43,0
228.61543,228.76619,43,43,0
228.61543,228.76619,39,43,0
228.81645,228.95795,43,57,0
228.81645,228.95795,31,57,0
229.00513,229.14664,31,43,0
229.00513,229.14664,43,43,0
229.1938,229.33968,31,43,0
229.1938,229.33968,43,43,0
229.38902,229.58641,48,40,0
229.38902,229.58641,36,40,0
229.58641,229.73447,55,31,0
229.78381,229.93185,55,31,0
229.9812,230.12924,55,31,0
230.17859,230.32664,55,29,0
230.37599,230.52403,55,29,0
230.57338,230.72144,55,29,0
230.77078,230.91882,55,28,0
230.96817,231.11623,55,28,0
231.16557,231.30348,55,31,0
231.34946,231.48738,55,30,0
231.53336,231.67126,55,30,0
231.71724,231.85701,56,31,0
231.9036,232.04337,56,27,0
232.08997,232.22972,56,27,0
232.27632,232.41415,57,31,0
232.46011,232.59795,57,28,0
232.64389,232.78174,57,28,0
232.82768,232.96416,58,31,0
233.00966,233.14613,58,31,0
233.19162,233.3281,58,31,0
233.37358,233.5115,58,31,0
233.55748,233.69539,58,31,0
233.74136,233.87929,58,32,0
233.92526,234.06317,58,40,0
234.10915,234.24707,58,31,0
234.29305,234.43095,58,26,0
234.47693,234.61485,59,33,0
234.66083,234.79874,59,29,0
234.84471,234.98264,59,26,0
235.02861,235.16838,60,33,0
235.21497,235.35474,55,30,0
235.40132,235.54109,55,29,0
235.58768,235.72345,55,33,0
235.7687,235.90448,55,30,0
235.94974,236.08994,55,30,0
236.1374,236.27533,55,31,0
236.32129,236.45921,55,28,0
236.50519,236.64311,55,28,0
236.68907,236.827,55,31,0
236.87297,237.0109,55,28,0
237.05685,237.19478,55,31,0
237.24075,237.38454,55,36,0
237.43246,237.57626,55,29,0
237.62419,237.76797,55,29,0
237.8159,237.95567,55,36,0
238.00226,238.14203,55,31,0
238.18863,238.33391,55,31,0
238.38326,238.5313,55,37,0
238.58066,238.7287,55,29,0
238.77805,238.92609,55,29,0
238.97543,239.12349,55,42,0
239.17284,239.32088,55,35,0
239.37022,239.51828,55,37,0
239.56763,239.76501,55,49,0
239.76501,239.96242,56,36,0
239.96242,240.1598,57,36,0
240.1598,240.29773,58,52,0
240.3437,240.48161,58,45,0
240.52759,240.66551,58,52,0
240.71147,240.8494,58,59,0
240.89537,241.0333,58,47,0
241.07925,241.21718,58,47,0
241.26315,241.40108,58,52,0
241.26315,241.40108,57,44,0
241.44704,241.58496,57,36,0
241.44704,241.58496,58,43,0
241.63094,241.76886,57,36,0
241.63094,241.76886,58,43,0
241.81482,241.9513,56,45,0
241.81482,241.9513,58,54,0
241.9968,242.13327,58,45,0
241.9968,242.13327,56,38,0
242.17876,242.31523,58,45,0
242.17876,242.31523,56,38,0
242.36073,242.49864,55,45,0
242.36073,242.49864,58,53,0
242.54462,242.68254,55,36,0
242.54462,242.68254,58,43,0
242.72852,242.86642,56,37,0
242.72852,242.86642,58,44,0
242.72852,242.86642,53,37,0
242.9124,243.05032,55,57,0
242.9124,243.05032,58,57,0
242.9124,243.05032,51,48,0
243.09628,243.23134,58,45,0
243.09628,243.23134,55,45,0
243.09628,243.23134,51,38,0
243.27444,243.40375,55,45,0
243.27444,243.40375,58,45,0
243.27444,243.40375,51,38,0
243.44685,243.58385,56,54,0
243.44685,243.58385,53,45,0
243.44685,243.58385,47,45,0
243.6295,243.7665,56,45,0
243.6295,243.7665,53,45,0
243.6295,243.7665,47,38,0
243.81215,243.94914,56,45,0
243.81215,243.94914,53,45,0
243.81215,243.94914,47,38,0
243.9948,244.13179,51,46,0
243.9948,244.13179,55,55,0
243.9948,244.13179,48,46,0
244.17744,244.31444,55,43,0
244.17744,244.31444,51,36,0
244.17744,244.31444,48,36,0
244.36009,244.49709,55,43,0
244.36009,244.49709,51,36,0
244.36009,244.49709,48,36,0
244.54274,244.67851,53,52,0
244.54274,244.67851,44,44,0
244.72377,244.85954,46,36,0
244.72377,244.85954,53,43,0
244.9048,245.045,44,35,0
244.9048,245.045,53,42,0
245.09247,245.2304,53,56,0
245.09247,245.2304,43,47,0
245.27637,245.41428,53,47,0
245.27637,245.41428,44,40,0
245.46025,245.59818,53,48,0
245.46025,245.59818,43,40,0
245.64415,245.78206,41,48,0
245.64415,245.78206,43,58,0
245.82803,245.96596,43,47,0
246.01192,246.14984,41,39,0
246.01192,246.14984,43,47,0
246.19582,246.3367,43,61,0
246.19582,246.3367,39,51,0
246.38367,246.52455,43,49,0
246.38367,246.52455,41,41,0
246.5715,246.73311,39,41,0
246.5715,246.73311,43,49,0
246.78697,246.92848,43,66,0
246.78697,246.92848,31,55,0
246.97566,247.11717,32,42,0
246.97566,247.11717,43,50,0
247.16434,247.31021,31,42,0
247.16434,247.31021,43,51,0
247.35956,247.55695,48,63,0
247.35956,247.55695,43,53,0
247.35956,247.55695,36,53,0
247.55695,247.75435,50,60,0
247.75435,247.95174,48,60,0
247.95174,248.14626,46,68,0
248.14626,248.34076,48,62,0
248.34076,248.53528,46,62,0
248.53528,248.70866,48,62,0
248.53528,248.70866,44,73,0
248.72792,248.90129,48,53,0
248.72792,248.90129,46,63,0
248.92056,249.09393,48,54,0
248.92056,249.09393,44,64,0
249.1132,249.28827,48,65,0
249.1132,249.28827,43,78,0
249.30772,249.48279,48,55,0
249.30772,249.48279,44,65,0
249.50223,249.71075,48,55,0
249.50223,249.71075,43,65,0
249.73393,249.93132,48,66,0
249.73393,249.93132,41,79,0
249.93132,250.12872,48,55,0
249.93132,250.12872,43,65,0
250.12872,250.32611,48,55,0
250.12872,250.32611,41,65,0
250.32611,250.52254,48,65,0
250.32611,250.52254,44,78,0
250.52254,250.71896,48,55,0
250.52254,250.71896,46,65,0
250.71896,250.91539,48,55,0
250.71896,250.91539,44,65,0
250.91539,251.08876,48,62,0
250.91539,251.08876,43,73,0
251.10803,251.2814,48,55,0
251.10803,251.2814,44,65,0
251.30067,251.47404,48,55,0
251.30067,251.47404,43,65,0
251.49332,251.66753,48,63,0
251.49332,251.66753,41,74,0
251.68689,251.8611,48,55,0
251.68689,251.8611,43,65,0
251.88046,252.07542,48,55,0
251.88046,252.07542,41,65,0
252.09709,252.27048,48,66,0
252.09709,252.27048,39,79,0
252.28973,252.4631,48,55,0
252.28973,252.4631,41,65,0
252.48238,252.65575,48,55,0
252.48238,252.65575,39,65,0
252.67502,252.84674,48,64,0
252.67502,252.84674,43,77,0
252.86581,253.03754,48,55,0
252.86581,253.03754,44,65,0
253.05663,253.22835,48,55,0
253.05663,253.22835,43,65,0
253.24742,253.41914,48,64,0
253.24742,253.41914,41,75,0
253.43823,253.60995,48,55,0
253.43823,253.60995,43,65,0
253.62903,253.80075,48,55,0
253.62903,253.80075,41,65,0
253.81984,253.9949,48,63,0
253.81984,253.9949,39,74,0
254.01436,254.1894,48,56,0
254.01436,254.1894,41,66,0
254.20886,254.42108,48,56,0
254.20886,254.42108,39,66,0
254.44466,254.61804,44,64,0
254.44466,254.61804,37,75,0
254.6373,254.81068,44,54,0
254.6373,254.81068,39,64,0
254.82994,255.00331,44,54,0
254.82994,255.00331,36,64,0
255.02258,255.19765,44,60,0
255.02258,255.19765,37,72,0
255.2171,255.39217,44,52,0
255.2171,255.39217,39,63,0
255.4116,255.58667,44,52,0
255.4116,255.58667,41,63,0
255.60612,255.78467,43,73,0
255.60612,255.78467,31,62,0
255.8045,255.98303,43,65,0
256.00287,256.1814,43,60,0
256.20123,256.3843,43,71,0
256.20123,256.3843,31,59,0
256.40466,256.58774,43,63,0
256.6081,256.79117,43,63,0
256.8115,257.00888,48,63,0
256.8115,257.00888,43,53,0
256.8115,257.00888,36,53,0
257.00888,257.2063,51,60,0
257.2063,257.4037,50,60,0
257.4037,257.5982,48,68,0
257.5982,257.79272,50,62,0
257.79272,257.9872,48,62,0
257.9872,258.17987,47,73,0
258.17987,258.3725,48,63,0
258.3725,258.56516,47,64,0
258.56516,258.75967,46,78,0
258.75967,258.95416,48,65,0
258.95416,259.18588,46,65,0
259.18588,259.36353,48,66,0
259.18588,259.36353,45,79,0
259.38327,259.5609,48,55,0
259.38327,259.5609,46,65,0
259.58066,259.75833,48,55,0
259.58066,259.75833,45,65,0
259.77805,259.95483,48,65,0
259.77805,259.95483,44,78,0
259.9745,260.15128,48,55,0
259.9745,260.15128,46,65,0
260.1709,260.3477,48,55,0
260.1709,260.3477,44,65,0
260.36734,260.5407,48,62,0
260.36734,260.5407,43,73,0
260.55997,260.73334,48,55,0
260.55997,260.73334,44,65,0
260.75262,260.926,48,55,0
260.75262,260.926,43,65,0
260.94525,261.11948,48,63,0
260.94525,261.11948,41,74,0
261.13882,261.31305,48,55,0
261.13882,261.31305,43,65,0
261.3324,261.52737,48,55,0
261.3324,261.52737,41,65,0
261.54904,261.7224,48,66,0
261.54904,261.7224,40,79,0
261.74167,261.91507,48,55,0
261.74167,261.91507,41,65,0
261.93433,262.1077,48,55,0
261.93433,262.1077,40,65,0
262.12695,262.29868,48,64,0
262.12695,262.29868,39,77,0
262.31778,262.4895,48,55,0
262.31778,262.4895,41,65,0
262.50858,262.6803,48,55,0
262.50858,262.6803,39,65,0
262.69937,262.8711,48,64,0
262.69937,262.8711,38,75,0
262.89017,263.0619,48,55,0
262.89017,263.0619,39,65,0
263.081,263.25272,48,55,0
263.081,263.25272,38,65,0
263.2718,263.44684,48,63,0
263.2718,263.44684,36,74,0
263.4663,263.64136,48,56,0
263.4663,263.64136,38,66,0
263.6608,263.87302,48,56,0
263.6608,263.87302,39,66,0
263.8966,264.06998,44,64,0
263.8966,264.06998,41,75,0
264.08923,264.26263,44,54,0
264.08923,264.26263,39,64,0
264.2819,264.44443,44,54,0
264.2819,264.44443,37,64,0
264.47452,264.6496,44,60,0
264.47452,264.6496,37,72,0
264.66904,264.84412,44,52,0
264.66904,264.84412,39,63,0
264.86356,265.03864,44,52,0
264.86356,265.03864,41,63,0
265.05807,265.2366,43,73,0
265.05807,265.2366,31,62,0
265.25644,265.43497,43,65,0
265.4548,265.63336,43,60,0
265.6532,265.83627,43,71,0
265.6532,265.83627,31,59,0
265.8566,266.03967,43,63,0
266.06003,266.2431,43,63,0
266.26346,266.4115,48,62,0
266.26346,266.4115,36,74,0
266.46085,266.6089,48,56,0
266.46085,266.6089,36,67,0
266.65823,266.80627,48,56,0
266.65823,266.80627,36,67,0
266.85562,267.00153,48,62,0
266.85562,267.00153,38,74,0
267.05014,267.196,48,58,0
267.05014,267.196,38,69,0
267.24466,267.39053,48,55,0
267.24466,267.39053,38,65,0
267.43918,267.58365,48,62,0
267.43918,267.58365,39,74,0
267.6318,267.7763,48,56,0
267.6318,267.7763,39,67,0
267.82446,267.96893,48,56,0
267.82446,267.96893,39,67,0
268.0171,268.163,48,62,0
268.0171,268.163,40,73,0
268.2116,268.35748,48,56,0
268.2116,268.35748,40,66,0
268.40613,268.552,48,56,0
268.40613,268.552,40,66,0
268.60065,268.74487,48,61,0
268.60065,268.74487,41,72,0
268.79294,268.93716,48,57,0
268.79294,268.93716,41,68,0
268.98526,269.1295,48,57,0
268.98526,269.1295,41,68,0
269.17755,269.32346,46,58,0
269.17755,269.32346,42,69,0
269.37207,269.51797,46,53,0
269.37207,269.51797,42,63,0
269.5666,269.71246,46,53,0
269.5666,269.71246,42,63,0
269.7611,269.90558,48,56,0
269.7611,269.90558,43,66,0
269.95374,270.09824,48,51,0
269.95374,270.09824,43,60,0
270.1464,270.29086,48,56,0
270.1464,270.29086,43,66,0
270.33902,270.4812,48,61,0
270.33902,270.4812,44,69,0
270.5286,270.67078,48,48,0
270.5286,270.67078,44,57,0
270.71817,270.86035,48,48,0
270.71817,270.86035,44,57,0
270.90775,271.04926,48,46,0
270.90775,271.04926,44,55,0
271.09644,271.23795,48,42,0
271.09644,271.23795,44,54,0
271.2851,271.4266,48,41,0
271.2851,271.4266,44,53,0
271.4738,271.6153,48,45,0
271.4738,271.6153,44,53,0
271.66248,271.804,48,40,0
271.66248,271.804,44,47,0
271.85114,271.99265,48,39,0
271.85114,271.99265,44,46,0
272.03983,272.18268,48,43,0
272.03983,272.18268,44,51,0
272.2303,272.37317,48,39,0
272.2303,272.37317,44,46,0
272.42078,272.56363,48,39,0
272.42078,272.56363,44,46,0
272.61127,272.75278,48,37,0
272.61127,272.75278,45,31,0
272.79993,272.94144,48,31,0
272.79993,272.94144,45,26,0
272.98862,273.13013,48,31,0
272.98862,273.13013,45,26,0
273.17728,273.31815,48,40,0
273.17728,273.31815,45,34,0
273.36508,273.50592,50,32,0
273.36508,273.50592,45,27,0
273.5529,273.69373,50,33,0
273.5529,273.69373,45,28,0
273.74066,273.88086,50,37,0
273.74066,273.88086,45,31,0
273.92758,274.06778,50,33,0
273.92758,274.06778,45,28,0
274.1145,274.2547,50,33,0
274.1145,274.2547,45,28,0
274.30142,274.44293,50,38,0
274.30142,274.44293,46,32,0
274.4901,274.63162,50,34,0
274.4901,274.63162,46,28,0
274.67877,274.82028,50,34,0
274.67877,274.82028,46,28,0
274.86746,275.011,50,37,0
274.86746,275.011,46,31,0
275.05884,275.2024,50,33,0
275.05884,275.2024,46,28,0
275.25024,275.39377,50,33,0
275.25024,275.39377,46,28,0
275.44162,275.58182,51,37,0
275.44162,275.58182,48,31,0
275.62854,275.76874,51,32,0
275.62854,275.76874,48,27,0
275.81546,275.95563,51,32,0
275.81546,275.95563,48,27,0
276.00238,276.14456,51,37,0
276.00238,276.14456,48,31,0
276.19196,276.3341,51,31,0
276.19196,276.3341,48,26,0
276.3815,276.52368,51,31,0
276.3815,276.52368,48,26,0
276.57108,276.7126,50,37,0
276.75977,276.90128,50,32,0
276.94846,277.08997,50,32,0
277.13712,277.28204,50,37,0
277.33035,277.47528,50,32,0
277.5236,277.66852,50,32,0
277.71683,277.86176,50,37,0
277.91006,278.055,50,29,0
278.10324,278.24747,50,29,0
278.29544,278.439,50,32,0
278.48676,278.6296,50,29,0
278.67715,278.81934,50,29,0
277.71683,278.86658,43,31,0
278.86658,279.00742,50,31,0
279.05438,279.19562,50,29,0
279.2428,279.38437,50,29,0
279.43176,279.5697,50,32,0
279.61566,279.7536,50,29,0
279.79956,279.94775,50,29,0
280.28104,280.42212,43,32,0
280.8364,280.97296,43,32,0
281.3825,281.51898,38,36,0
281.9313,282.07623,43,32,0
282.49557,282.6324,36,38,0
283.04028,283.17862,36,35,0
283.5974,283.73526,43,37,0
284.1444,284.28253,43,32,0
284.69937,284.83658,44,36,0
285.2421,285.37854,45,32,0
285.79282,285.92917,46,32,0
286.33685,286.47504,50,32,0
286.89325,287.02866,51,39,0
287.44553,287.58066,48,32,0
287.99405,288.13315,50,32,0
288.55444,288.69553,38,32,0
289.12698,289.27216,43,30,0
289.41733,289.5584,45,37,0
289.6995,289.84058,48,40,0
289.98166,290.12143,50,44,0
290.2612,290.40097,55,35,0
290.54074,290.6805,50,39,0
290.82028,290.96005,46,32,0
291.382,291.52307,43,32,0
291.93735,292.0739,43,32,0
292.48346,292.6168,38,36,0
293.02597,293.1709,43,32,0
293.59024,293.72745,36,38,0
294.13785,294.27658,41,43,0
294.69537,294.83322,34,45,0
295.24057,295.37787,46,43,0
295.7947,295.92984,45,50,0
296.33365,296.47052,38,42,0
296.88477,297.01932,43,42,0
297.42432,297.56235,31,41,0
297.98056,298.1157,39,39,0
298.53018,298.66293,36,32,0
299.0684,299.20477,41,32,0
299.6233,299.76437,29,32,0
300.1958,300.341,46,30,0
300.48618,300.62726,48,37,0
300.76834,300.90942,51,40,0
301.0505,301.19028,50,44,0
301.33005,301.46982,58,35,0
301.6096,301.74936,53,39,0
301.88913,302.0289,50,32,0
302.16867,302.30908,46,44,0
302.30908,302.4495,50,36,0
302.4495,302.58994,53,36,0
302.58994,302.73035,50,36,0
302.73035,302.86642,46,45,0
302.86642,303.00156,50,38,0
303.00156,303.13672,53,38,0
303.13672,303.27133,50,46,0
303.27133,303.40585,45,55,0
303.40585,303.54007,48,46,0
303.54007,303.674,50,47,0
303.674,303.80783,48,50,0
303.80783,303.94235,43,60,0
303.94235,304.07687,48,52,0
304.07687,304.2114,50,49,0
304.2114,304.34583,48,50,0
304.34583,304.47977,42,72,0
304.47977,304.61368,48,55,0
304.61368,304.74762,50,59,0
304.74762,304.88153,48,59,0
304.88153,305.018,42,68,0
305.018,305.15448,45,53,0
305.15448,305.29095,50,53,0
305.29095,305.42743,45,53,0
305.42743,305.56537,43,63,0
305.56537,305.70328,46,48,0
305.70328,305.8412,50,48,0
305.8412,305.97913,46,48,0
305.97913,306.11703,48,48,0
306.11703,306.25494,51,35,0
306.25494,306.39288,57,35,0
306.39288,306.53806,51,36,0
306.53806,306.6798,50,50,0
306.6798,306.82156,57,39,0
306.82156,306.9633,60,39,0
306.9633,307.10504,57,39,0
307.10504,307.24417,50,47,0
307.24417,307.3833,57,39,0
307.3833,307.5224,60,39,0
307.5224,307.66153,57,39,0
307.66153,307.79813,50,47,0
307.79813,307.93472,57,40,0
307.93472,308.0713,60,40,0
308.0713,308.2079,57,40,0
308.2079,308.34897,50,44,0
308.34897,308.49005,57,36,0
308.49005,308.63113,60,36,0
308.63113,308.7845,57,36,0
308.7845,308.92896,55,44,0
308.92896,309.07343,58,37,0
309.07343,309.21793,55,37,0
309.21793,309.3624,50,37,0
309.3624,309.50348,46,44,0
309.50348,309.64456,55,38,0
309.64456,309.78564,50,38,0
309.78564,309.92673,46,38,0
309.92673,310.0678,43,44,0
310.49106,310.90482,55,69,0
310.49106,310.90482,43,58,0
310.90482,311.05817,58,61,0
310.90482,311.05817,46,51,0
311.05817,311.47943,62,74,0
311.05817,311.47943,50,62,0
311.61987,312.02963,62,67,0
311.61987,312.02963,50,56,0
312.1662,312.57562,62,69,0
312.1662,312.57562,50,58,0
312.7121,313.13174,62,68,0
312.7121,313.13174,50,57,0
313.2755,314.37256,63,75,0
313.2755,314.37256,51,63,0
314.37256,315.47324,62,72,0
314.37256,315.47324,50,61,0
315.47324,316.56186,60,75,0
315.47324,316.56186,48,63,0
316.56186,317.65765,58,68,0
316.56186,317.65765,46,57,0
317.65765,318.19556,57,68,0
317.65765,318.19556,45,57,0
318.19556,318.73224,60,66,0
318.19556,318.73224,48,56,0
318.73224,319.28873,58,73,0
318.73224,319.28873,46,62,0
319.28873,319.8504,57,64,0
319.28873,319.8504,45,45,0
319.8504,321.5242,43,51,0
319.8504,321.5242,55,72,0
321.5242,321.93793,43,69,0
321.5242,321.93793,55,69,0
321.93793,322.09128,58,61,0
321.93793,322.09128,46,61,0
322.09128,322.48868,62,74,0
322.09128,322.51453,50,74,0
322.6556,323.05695,50,55,0
322.6556,323.05695,62,67,0
323.19354,323.5966,62,69,0
323.19354,323.5966,50,58,0
323.73257,324.1522,62,68,0
323.73257,324.1522,50,57,0
324.304,325.42203,63,75,0
324.304,325.42203,51,63,0
325.42203,326.5278,62,72,0
325.42203,326.5278,50,60,0
326.5278,327.62143,60,75,0
326.5278,327.62143,48,63,0
327.62143,328.4361,46,57,0
327.62143,328.4361,58,68,0
328.4361,328.7113,57,66,0
328.4361,328.7113,45,60,0
328.7113,329.2504,43,60,0
328.7113,329.2504,55,70,0
329.2504,329.80246,63,66,0
329.2504,329.80246,51,55,0
329.80246,330.34897,50,56,0
329.80246,330.34897,62,67,0
330.34897,330.924,60,60,0
330.34897,330.924,48,50,0
330.924,332.6305,58,70,0
330.924,332.6305,46,60,0
333.20602,333.34644,46,44,0
333.34644,333.48685,50,36,0
333.48685,333.6273,53,36,0
333.6273,333.7677,50,36,0
333.7677,333.9043,46,45,0
333.9043,334.04086,50,38,0
334.04086,334.17746,53,38,0
334.17746,334.31406,50,46,0
334.31406,334.45053,45,54,0
334.45053,334.587,48,45,0
334.587,334.72348,50,45,0
334.72348,334.85995,48,48,0
334.85995,334.99786,43,57,0
334.99786,335.1358,48,49,0
335.1358,335.2737,50,46,0
335.2737,335.41162,48,46,0
335.41162,335.54822,42,66,0
335.54822,335.6848,48,50,0
335.6848,335.82138,50,54,0
335.82138,335.95798,48,54,0
335.95798,336.09445,42,62,0
336.09445,336.23093,45,49,0
336.23093,336.3674,50,49,0
336.3674,336.50388,45,49,0
336.50388,336.64178,43,58,0
336.64178,336.77972,46,44,0
336.77972,336.91763,50,44,0
336.91763,337.05554,46,44,0
337.05554,337.19348,48,48,0
337.19348,337.3314,51,35,0
337.3314,337.4693,57,35,0
337.4693,337.61447,51,36,0
337.61447,337.75623,50,50,0
337.75623,337.89798,57,39,0
337.89798,338.03973,60,39,0
338.03973,338.1815,57,39,0
338.1815,338.32062,50,47,0
338.32062,338.45972,57,39,0
338.45972,338.59885,60,39,0
338.59885,338.73798,57,39,0
338.73798,338.87454,50,47,0
338.87454,339.01114,57,40,0
339.01114,339.14774,60,40,0
339.14774,339.2843,57,40,0
339.2843,339.4254,50,44,0
339.4254,339.5665,57,36,0
339.5665,339.70758,60,36,0
339.70758,339.8609,57,36,0
339.8609,340.0054,43,33,0
340.05356,340.19803,59,23,0
340.05356,340.19803,55,19,0
340.05356,340.19803,50,19,0
340.2462,340.3907,59,23,0
340.2462,340.3907,55,19,0
340.2462,340.3907,50,19,0
340.43884,340.57993,59,25,0
340.43884,340.57993,55,21,0
340.43884,340.57993,50,21,0
340.62695,340.76804,55,21,0
340.62695,340.76804,59,25,0
340.62695,340.76804,50,21,0
340.81506,340.95615,50,21,0
340.81506,340.95615,55,21,0
340.81506,340.95615,59,25,0
341.00317,341.13974,55,27,0
341.00317,341.13974,50,27,0
341.00317,341.13974,59,32,0
341.18527,341.32187,55,20,0
341.18527,341.32187,50,20,0
341.18527,341.32187,59,24,0
341.3674,341.504,55,21,0
341.3674,341.504,59,25,0
341.3674,341.504,50,21,0
341.54953,341.68927,50,28,0
341.54953,341.68927,55,28,0
341.54953,341.68927,59,33,0
341.73587,341.87564,50,21,0
341.73587,341.87564,59,25,0
341.73587,341.87564,55,21,0
341.92224,342.05334,50,21,0
341.92224,342.05334,55,21,0
341.92224,342.05334,59,25,0
342.0956,342.22916,36,33,0
342.2766,342.41904,48,19,0
342.2766,342.41904,59,23,0
342.2766,342.41904,52,19,0
342.46652,342.60895,48,19,0
342.46652,342.60895,52,19,0
342.46652,342.60895,59,23,0
342.6564,342.7975,52,25,0
342.6564,342.7975,48,25,0
342.6564,342.7975,56,30,0
342.8445,342.9856,56,25,0
342.8445,342.9856,48,21,0
342.8445,342.9856,52,21,0
343.03262,343.1737,52,21,0
343.03262,343.1737,56,25,0
343.03262,343.1737,48,21,0
343.22073,343.35733,52,27,0
343.22073,343.35733,57,32,0
343.22073,343.35733,48,27,0
343.40286,343.53946,57,24,0
343.40286,343.53946,52,20,0
343.40286,343.53946,48,20,0
343.585,343.72156,52,21,0
343.585,343.72156,48,21,0
343.585,343.72156,57,25,0
343.7671,343.90686,52,28,0
343.7671,343.90686,57,33,0
343.7671,343.90686,48,28,0
343.95346,344.09323,57,25,0
343.95346,344.09323,52,21,0
343.95346,344.09323,48,21,0
344.1398,344.27237,57,25,0
344.1398,344.27237,48,21,0
344.1398,344.27237,52,21,0
344.31537,344.44598,35,33,0
344.49417,344.63864,57,23,0
344.49417,344.63864,50,19,0
344.49417,344.63864,47,19,0
344.6868,344.83127,57,23,0
344.6868,344.83127,47,19,0
344.6868,344.83127,50,19,0
344.87943,345.02054,50,25,0
344.87943,345.02054,54,30,0
344.87943,345.02054,47,25,0
345.06757,345.20865,47,21,0
345.06757,345.20865,50,21,0
345.06757,345.20865,54,25,0
345.25568,345.39676,54,25,0
345.25568,345.39676,50,21,0
345.25568,345.39676,47,21,0
345.4438,345.58035,47,29,0
345.4438,345.58035,50,29,0
345.4438,345.58035,55,35,0
345.6259,345.76248,55,27,0
345.6259,345.76248,47,22,0
345.6259,345.76248,50,22,0
345.808,345.94458,47,24,0
345.808,345.94458,55,29,0
345.808,345.94458,50,24,0
345.9901,346.12988,50,33,0
345.9901,346.12988,55,39,0
345.9901,346.12988,47,33,0
346.17648,346.31625,50,25,0
346.17648,346.31625,55,30,0
346.17648,346.31625,47,25,0
346.36285,346.51273,55,31,0
346.36285,346.51273,47,26,0
346.36285,346.51273,50,26,0
346.56436,346.6985,36,42,0
346.74323,346.87735,48,25,0
346.74323,346.87735,52,30,0
346.9221,347.0562,48,26,0
346.9221,347.0562,52,31,0
347.10092,347.23752,52,39,0
347.10092,347.23752,48,33,0
347.28305,347.41965,52,29,0
347.28305,347.41965,48,24,0
347.46518,347.61398,48,23,0
347.46518,347.61398,52,28,0
347.66562,347.80222,38,36,0
347.84775,347.9843,55,26,0
347.84775,347.9843,50,21,0
348.02985,348.1843,50,22,0
348.02985,348.1843,55,26,0
348.23874,348.3785,38,34,0
348.4251,348.56488,54,26,0
348.4251,348.56488,50,21,0
348.61145,348.76135,54,25,0
348.61145,348.76135,50,21,0
348.813,348.95746,43,33,0
349.0056,349.15012,55,19,0
349.0056,349.15012,50,19,0
349.0056,349.15012,59,23,0
349.19827,349.34274,50,19,0
349.19827,349.34274,59,23,0
349.19827,349.34274,55,19,0
349.3909,349.53198,55,21,0
349.3909,349.53198,50,21,0
349.3909,349.53198,59,25,0
349.579,349.7201,50,21,0
349.579,349.7201,55,21,0
349.579,349.7201,59,25,0
349.76712,349.9082,55,21,0
349.76712,349.9082,50,21,0
349.76712,349.9082,59,25,0
349.95523,350.09183,55,27,0
349.95523,350.09183,50,27,0
349.95523,350.09183,59,32,0
350.13736,350.27396,50,20,0
350.13736,350.27396,59,24,0
350.13736,350.27396,55,20,0
350.31946,350.45605,59,25,0
350.31946,350.45605,55,21,0
350.31946,350.45605,50,21,0
350.5016,350.64136,50,28,0
350.5016,350.64136,55,28,0
350.5016,350.64136,59,33,0
350.68796,350.82773,59,25,0
350.68796,350.82773,55,21,0
350.68796,350.82773,50,21,0
350.8743,351.02057,55,21,0
350.8743,351.02057,59,25,0
350.8743,351.02057,50,21,0
351.0704,351.21085,36,33,0
351.2583,351.40073,59,23,0
351.2583,351.40073,52,19,0
351.2583,351.40073,48,19,0
351.4482,351.59064,48,19,0
351.4482,351.59064,52,19,0
351.4482,351.59064,59,23,0
351.6381,351.7792,52,25,0
351.6381,351.7792,59,30,0
351.6381,351.7792,48,25,0
351.82623,351.96732,48,21,0
351.82623,351.96732,59,25,0
351.82623,351.96732,52,21,0
352.01434,352.15543,59,25,0
352.01434,352.15543,48,21,0
352.01434,352.15543,52,21,0
352.20245,352.33902,48,27,0
352.20245,352.33902,52,27,0
352.20245,352.33902,57,32,0
352.38455,352.52115,48,20,0
352.38455,352.52115,57,24,0
352.38455,352.52115,52,20,0
352.56668,352.70325,48,21,0
352.56668,352.70325,57,25,0
352.56668,352.70325,52,21,0
352.74878,352.88855,48,28,0
352.74878,352.88855,57,33,0
352.74878,352.88855,52,28,0
352.93515,353.07492,57,25,0
352.93515,353.07492,48,21,0
352.93515,353.07492,52,21,0
353.12152,353.2644,52,21,0
353.12152,353.2644,57,25,0
353.12152,353.2644,48,21,0
353.3126,353.45367,35,33,0
353.50183,353.6463,47,19,0
353.50183,353.6463,50,19,0
353.50183,353.6463,57,23,0
353.69446,353.83893,50,19,0
353.69446,353.83893,47,19,0
353.69446,353.83893,57,23,0
353.88712,354.0282,47,25,0
353.88712,354.0282,57,30,0
353.88712,354.0282,50,25,0
354.07523,354.2163,57,25,0
354.07523,354.2163,47,21,0
354.07523,354.2163,50,21,0
354.26334,354.40442,50,21,0
354.26334,354.40442,47,21,0
354.26334,354.40442,57,25,0
354.45145,354.588,55,35,0
354.45145,354.588,47,29,0
354.45145,354.588,50,29,0
354.63354,354.77014,50,22,0
354.63354,354.77014,47,22,0
354.63354,354.77014,55,27,0
354.81567,354.95227,55,29,0
354.81567,354.95227,47,24,0
354.81567,354.95227,50,24,0
354.99777,355.13754,47,33,0
354.99777,355.13754,55,39,0
354.99777,355.13754,50,33,0
355.18414,355.3239,55,30,0
355.18414,355.3239,47,25,0
355.18414,355.3239,50,25,0
355.3705,355.5204,47,26,0
355.3705,355.5204,55,31,0
355.3705,355.5204,50,26,0
355.57202,355.70618,36,42,0
355.7509,355.885,52,25,0
355.7509,355.885,48,25,0
355.7509,355.885,55,30,0
355.92975,356.06387,48,26,0
355.92975,356.06387,55,31,0
355.92975,356.06387,52,26,0
356.1086,356.24518,48,33,0
356.1086,356.24518,56,39,0
356.1086,356.24518,52,33,0
356.2907,356.4273,56,29,0
356.2907,356.4273,48,24,0
356.2907,356.4273,52,24,0
356.47284,356.62164,52,23,0
356.47284,356.62164,48,23,0
356.47284,356.62164,57,28,0
356.67328,356.80988,38,36,0
356.8554,356.992,55,26,0
356.8554,356.992,50,21,0
357.0375,357.19196,55,26,0
357.0375,357.19196,50,22,0
357.2464,357.38617,38,34,0
357.43277,357.57254,50,21,0
357.43277,357.57254,57,26,0
357.43277,357.57254,54,21,0
357.61914,357.769,50,21,0
357.61914,357.769,57,25,0
357.61914,357.769,54,21,0
357.82065,358.38937,55,48,0
357.82065,358.38937,50,48,0
357.82065,358.38937,43,48,0
359.5268,359.94055,47,35,0
359.94055,360.0785,48,30,0
360.0785,360.47586,50,40,0
360.64282,361.02753,50,33,0
361.18915,361.57358,50,33,0
361.73505,362.1488,48,36,0
362.1488,362.28674,50,37,0
362.28674,363.11426,51,42,0
363.11426,363.39008,50,35,0
363.39008,363.94174,48,31,0
363.94174,364.34906,46,39,0
364.34906,364.4915,44,33,0
364.4915,365.04315,43,36,0
365.04315,365.59482,43,36,0
365.59482,366.14648,43,36,0
366.14648,366.69818,43,36,0
366.69818,367.82245,48,48,0
368.378,368.79175,47,50,0
368.378,368.79175,35,42,0
368.79175,368.9297,48,44,0
368.79175,368.9297,36,37,0
368.9297,369.32706,50,62,0
368.9297,369.35294,38,51,0
369.49402,369.87872,50,50,0
369.49402,369.90378,38,42,0
370.04034,370.42477,50,50,0
370.04034,370.44977,38,42,0
370.58624,371.0,48,59,0
370.58624,371.0,36,50,0
371.0,371.1579,50,67,0
371.0,371.1579,38,57,0
371.1579,371.98358,51,76,0
371.1579,371.98358,39,63,0
371.98358,372.25882,50,64,0
371.98358,372.25882,38,54,0
372.25882,372.8093,48,55,0
372.25882,372.8093,36,46,0
372.8093,373.21658,46,67,0
372.8093,373.21658,34,57,0
373.21658,373.359,32,46,0
373.21658,373.359,44,55,0
373.359,373.91068,43,55,0
373.359,373.91068,31,46,0
373.91068,374.45123,43,55,0
373.91068,374.45123,31,46,0
374.45123,374.99176,31,46,0
374.45123,374.99176,43,55,0
374.99176,375.56146,31,46,0
374.99176,375.56146,43,55,0
375.56146,375.7441,48,40,0
375.56146,375.7441,36,40,0
375.7441,375.88107,55,31,0
375.92676,376.06372,55,31,0
376.1094,376.24637,55,31,0
376.29205,376.42902,55,29,0
376.4747,376.6117,55,29,0
376.65735,376.79434,55,29,0
376.84,376.977,55,28,0
377.02264,377.15964,55,28,0
377.2053,377.3432,55,31,0
377.3892,377.5271,55,30,0
377.57306,377.711,55,30,0
377.75696,377.89804,55,31,0
377.94507,378.08615,55,27,0
378.13318,378.27426,55,27,0
378.3213,378.4579,55,31,0
378.50342,378.63998,55,28,0
378.68552,378.8221,55,28,0
378.86765,379.00412,55,31,0
379.04962,379.1861,55,31,0
379.23157,379.36804,55,31,0
379.41354,379.55145,55,31,0
379.59744,379.73535,55,31,0
379.7813,379.91925,55,32,0
379.9652,380.10315,55,40,0
380.1491,380.28702,55,31,0
380.333,380.47092,55,26,0
380.51688,380.65482,55,33,0
380.70078,380.83868,55,29,0
380.88467,381.02258,55,26,0
381.06857,381.20648,55,33,0
381.25244,381.39038,55,30,0
381.43634,381.57425,55,29,0
381.62024,381.756,55,33,0
381.80127,381.93704,55,30,0
381.9823,382.1225,55,30,0
382.16995,382.3079,55,31,0
382.35385,382.49176,55,28,0
382.53775,382.67566,55,28,0
382.72162,382.85956,55,31,0
382.90552,383.04343,55,28,0
383.08942,383.22733,55,31,0
383.08942,383.22733,53,26,0
383.27332,383.41418,55,36,0
383.27332,383.41418,52,30,0
383.46115,383.60205,55,29,0
383.649,383.7935,55,29,0
383.84164,383.9814,55,36,0
383.84164,383.9814,48,30,0
384.02798,384.16776,55,31,0
384.21436,384.35965,55,31,0
384.409,384.55704,55,37,0
384.409,384.55704,43,35,0
384.60638,384.75443,55,29,0
384.80377,384.9518,55,29,0
384.99857,385.13754,55,44,0
385.18405,385.32388,55,37,0
385.3706,385.51132,55,39,0
385.55835,385.69992,55,53,0
385.7473,385.8898,55,39,0
385.93744,386.0808,55,40,0
386.12875,386.26666,55,52,0
386.31265,386.45056,55,45,0
386.49652,386.642,55,52,0
386.69174,386.82712,55,59,0
386.87222,387.00757,55,47,0
387.0527,387.18805,55,47,0
387.2332,387.3671,54,52,0
387.2332,387.3671,55,52,0
387.41174,387.5457,54,43,0
387.41174,387.5457,55,43,0
387.5903,387.72424,54,43,0
387.5903,387.72424,55,43,0
387.7689,387.9028,55,54,0
387.7689,387.9028,53,54,0
387.94745,388.0814,53,45,0
387.94745,388.0814,55,45,0
388.12604,388.2743,53,45,0
388.12604,388.2743,55,45,0
388.3261,388.46402,52,53,0
388.3261,388.46402,55,53,0
388.51,388.64792,55,43,0
388.51,388.64792,52,43,0
388.6939,388.8394,55,44,0
388.6939,388.8394,50,44,0
388.6939,388.8394,53,44,0
388.88913,389.02704,55,57,0
388.88913,389.02704,48,57,0
388.88913,389.02704,52,57,0
389.07303,389.209,55,45,0
389.07303,389.209,48,45,0
389.07303,389.209,52,45,0
389.25305,389.38522,48,45,0
389.25305,389.38522,55,45,0
389.25305,389.38522,52,45,0
389.4293,389.56625,50,54,0
389.4293,389.56625,53,54,0
389.4293,389.56625,44,54,0
389.61194,389.7489,50,45,0
389.61194,389.7489,53,45,0
389.61194,389.7489,44,45,0
389.7946,389.93155,53,45,0
389.7946,389.93155,50,45,0
389.7946,389.93155,44,45,0
389.97723,390.1142,52,55,0
389.97723,390.1142,45,55,0
389.97723,390.1142,48,55,0
390.15988,390.30194,52,43,0
390.15988,390.30194,45,43,0
390.15988,390.30194,48,43,0
390.35272,390.505,52,43,0
390.35272,390.505,45,43,0
390.35272,390.505,48,43,0
390.55576,390.7384,41,52,0
390.7384,390.8754,57,43,0
390.7384,390.8754,53,43,0
390.92105,391.06165,53,42,0
390.92105,391.06165,57,42,0
391.10913,391.2943,43,54,0
391.2943,391.4332,55,45,0
391.4795,391.61838,55,45,0
391.66467,391.84818,43,54,0
391.84818,391.98578,55,45,0
392.03165,392.16928,55,45,0
392.21515,392.40298,43,54,0
392.40298,392.54718,55,45,0
392.5974,392.74817,55,45,0
392.79843,392.93994,55,57,0
392.9871,393.1286,55,43,0
392.9871,393.1286,57,43,0
393.17578,393.32166,55,43,0
393.17578,393.32166,59,43,0
393.371,393.5684,60,40,0
393.371,393.5684,48,40,0
393.371,393.59308,55,40,0
393.5684,393.59308,55,31,0
393.76578,393.91382,55,31,0
393.96317,394.11124,55,31,0
394.16058,394.30862,55,29,0
394.35797,394.506,55,29,0
394.55536,394.7034,55,29,0
394.75275,394.9008,55,28,0
394.95016,395.0982,55,28,0
395.14755,395.28546,55,31,0
395.33145,395.46936,55,30,0
395.51532,395.65326,55,30,0
395.69922,395.839,55,31,0
395.8856,396.02536,55,27,0
396.07193,396.2117,55,27,0
396.2583,396.39615,55,31,0
396.44208,396.57993,55,28,0
396.6259,396.7637,55,28,0
396.80966,396.94614,55,31,0
396.99164,397.1281,55,31,0
397.17358,397.31006,55,31,0
397.35556,397.49347,55,31,0
397.53946,397.67737,55,31,0
397.72336,397.86127,55,32,0
397.90723,398.04517,55,40,0
398.09113,398.22903,55,31,0
398.27502,398.41293,55,26,0
398.45892,398.59683,55,33,0
397.90723,398.73474,60,53,0
398.6428,398.78073,55,29,0
398.8267,398.9646,55,26,0
398.73474,399.0106,62,44,0
399.0106,399.15036,55,33,0
399.19693,399.3367,55,30,0
399.3833,399.52307,55,29,0
399.0106,399.56967,63,39,0
399.56967,399.70544,55,33,0
399.7507,399.88644,55,30,0
399.9317,400.0719,55,30,0
399.56967,400.1194,66,39,0
400.1194,400.2573,55,31,0
400.30328,400.4412,55,28,0
400.48715,400.6251,55,28,0
400.1194,400.67105,67,39,0
400.67105,400.80896,55,31,0
400.85495,400.99286,55,28,0
401.03885,401.17676,55,31,0
400.67105,401.22272,65,39,0
401.22272,401.36652,55,36,0
401.41446,401.55823,55,29,0
401.60617,401.74994,55,29,0
401.22272,401.79788,63,37,0
401.79788,401.93765,55,36,0
401.98425,402.12402,55,31,0
402.1706,402.3159,55,31,0
401.79788,402.36523,60,35,0
402.36523,402.51328,55,37,0
402.56262,402.71066,55,29,0
402.76,402.90808,55,29,0
402.95743,403.10547,55,42,0
403.15482,403.30286,55,35,0
403.3522,403.50024,55,37,0
402.36523,403.5496,67,35,0
403.5496,403.747,55,49,0
403.747,403.9444,56,36,0
403.9444,404.14178,57,36,0
404.14178,404.2797,58,52,0
404.32568,404.4636,58,45,0
404.50955,404.6475,58,52,0
404.69345,404.83136,58,52,0
404.87735,405.01526,58,46,0
405.06125,405.19916,58,46,0
405.24512,405.38306,65,52,0
405.24512,405.38306,58,44,0
405.42902,405.56693,65,46,0
405.42902,405.56693,58,39,0
405.6129,405.75082,65,46,0
405.6129,405.75082,58,39,0
405.7968,405.92575,62,52,0
405.7968,405.92575,58,44,0
405.96875,406.0977,62,45,0
405.96875,406.0977,58,38,0
406.1407,406.26962,62,45,0
406.1407,406.26962,58,45,0
406.31262,406.43427,58,52,0
406.48303,406.62936,58,47,0
406.67816,406.83826,58,47,0
406.89395,407.03503,63,56,0
407.08206,407.21985,63,39,0
407.26358,407.39478,63,39,0
407.43854,407.57635,65,45,0
407.43854,407.57635,62,38,0
407.43854,407.57635,59,38,0
407.6223,407.76016,65,38,0
407.6223,407.76016,62,32,0
407.6223,407.76016,59,32,0
407.80612,407.94394,65,38,0
407.80612,407.94394,62,32,0
407.80612,407.94394,59,32,0
407.9899,408.12775,60,39,0
407.9899,408.12775,63,47,0
408.17368,408.31152,60,35,0
408.17368,408.31152,63,42,0
408.35748,408.49533,60,35,0
408.35748,408.49533,63,42,0
408.54126,408.67703,56,52,0
408.54126,408.67703,53,44,0
408.7223,408.85806,56,45,0
408.7223,408.85806,53,38,0
408.90332,409.04352,56,45,0
408.90332,409.04352,53,38,0
409.091,409.2289,55,50,0
409.27487,409.4128,55,40,0
409.45877,409.59668,55,40,0
409.64267,409.78058,55,50,0
409.64267,409.78058,53,42,0
409.82654,409.96448,55,39,0
410.01044,410.14838,55,39,0
410.19434,410.3352,55,47,0
410.19434,410.3352,51,39,0
410.38217,410.52307,55,38,0
410.57004,410.7109,55,38,0
410.75787,410.89877,55,48,0
410.75787,410.89877,48,40,0
410.9457,411.0866,55,38,0
411.13358,411.27924,55,38,0
411.32858,411.47662,55,45,0
411.32858,411.47662,43,45,0
411.52597,411.674,55,36,0
411.72336,411.8714,55,36,0
411.91815,412.05713,55,42,0
412.10364,412.24347,55,35,0
412.2902,412.4309,55,37,0
412.47794,412.6195,55,49,0
412.6669,412.8094,55,36,0
412.857,413.0004,55,36,0
413.04834,413.18625,55,57,0
413.2322,413.37015,55,49,0
413.4161,413.56158,55,57,0
413.61133,413.75107,55,64,0
413.79758,413.93634,55,51,0
413.98242,414.11987,55,51,0
414.1655,414.30157,54,57,0
414.1655,414.30157,55,57,0
414.34674,414.48163,54,47,0
414.34674,414.48163,55,47,0
414.5264,414.66006,54,47,0
414.5264,414.66006,55,47,0
414.70435,414.83768,55,60,0
414.70435,414.83768,53,60,0
414.88214,415.01547,52,50,0
414.88214,415.01547,55,50,0
415.0599,415.19324,50,51,0
415.0599,415.19324,55,51,0
415.23767,415.3756,48,61,0
415.23767,415.3756,55,61,0
415.42157,415.55948,55,50,0
415.42157,415.55948,47,50,0
415.60547,415.78076,46,52,0
415.60547,415.78076,55,51,0
415.84543,415.98587,55,71,0
415.84543,415.98587,45,71,0
416.03265,416.17035,55,54,0
416.03265,416.17035,45,54,0
416.2144,416.34656,45,53,0
416.2144,416.34656,55,53,0
416.3906,416.5276,55,61,0
416.3906,416.5276,45,61,0
416.57324,416.71024,55,49,0
416.57324,416.71024,45,49,0
416.7559,416.89288,55,47,0
416.7559,416.89288,45,47,0
416.93854,417.07553,55,56,0
416.93854,417.07553,45,56,0
417.1212,417.26083,45,43,0
417.30914,417.45407,45,43,0
417.50238,417.6473,45,54,0
417.69562,417.84055,45,46,0
417.88885,418.03378,45,46,0
418.0821,418.22293,46,50,0
418.26987,418.4086,45,41,0
418.45346,418.58798,45,41,0
418.63284,418.773,45,48,0
418.81973,418.9604,45,41,0
419.00754,419.14905,45,41,0
419.19623,419.33774,45,49,0
419.3849,419.52618,45,41,0
419.57315,419.714,45,41,0
419.76093,419.9031,45,41,0
419.9505,420.09268,45,41,0
420.14008,420.28226,45,41,0
420.32965,420.47006,44,71,0
420.51688,420.65454,44,54,0
420.6986,420.83075,44,53,0
420.87482,421.0118,44,61,0
421.05746,421.19446,44,49,0
421.2401,421.3771,44,47,0
421.42276,421.55975,44,56,0
421.6054,421.74506,44,43,0
421.79337,421.9383,44,43,0
421.9866,422.13153,44,54,0
422.17984,422.32474,44,46,0
422.37305,422.51797,44,46,0
422.56628,422.70715,43,50,0
422.7541,422.89282,44,41,0
422.93768,423.0722,44,41,0
423.11703,423.25723,44,48,0
423.30396,423.44458,44,41,0
423.49176,423.63327,44,41,0
423.68045,423.82196,44,49,0
423.8691,424.0104,44,41,0
424.05734,424.1982,44,41,0
424.24515,424.38733,43,41,0
424.43472,424.5769,43,41,0
424.6243,424.76648,43,41,0
424.81387,424.9547,42,34,0
425.00165,425.14252,42,34,0
425.18945,425.3303,42,34,0
425.37726,425.51678,42,41,0
425.5633,425.70282,42,33,0
425.74933,425.8889,42,33,0
424.81387,425.9354,48,53,0
425.9354,426.07492,42,34,0
426.12143,426.26096,42,32,0
426.3075,426.44702,42,32,0
425.9354,426.49353,50,43,0
426.49353,426.63373,42,34,0
426.68045,426.82062,42,33,0
426.86737,427.0228,42,33,0
426.49353,427.07462,51,44,0
427.07462,427.2135,43,34,0
427.2598,427.39868,43,34,0
427.44498,427.58386,43,34,0
427.63016,427.76907,43,34,0
427.81537,427.95425,43,34,0
428.00055,428.15762,43,34,0
427.07462,428.20996,52,46,0
428.20996,428.3508,43,34,0
428.39777,428.5386,43,34,0
428.58554,428.7264,43,35,0
428.77335,428.91418,43,35,0
428.96115,429.102,43,30,0
429.14893,429.29745,43,30,0
428.20996,429.34695,50,45,0
429.34695,429.4878,36,32,0
429.53476,429.6756,36,38,0
429.72253,429.86337,36,37,0
429.91034,430.04922,36,37,0
430.09552,430.2344,36,36,0
430.2807,430.4196,36,35,0
430.46588,430.60608,36,35,0
430.6528,430.793,36,34,0
430.83972,430.97992,36,34,0
431.02664,431.16748,36,33,0
431.21442,431.3553,36,33,0
431.40222,431.54306,36,32,0
431.59003,431.7289,36,31,0
431.7752,431.9141,36,31,0
431.9604,432.09927,36,30,0
432.14557,432.2851,36,30,0
432.3316,432.47116,36,29,0
432.51767,432.66473,36,28,0
429.34695,432.71375,48,38,0
432.71375,433.30197,36,34,0
434.418,435.52173,55,24,0
434.418,435.52173,67,29,0
436.63428,437.74948,67,29,0
436.63428,437.74948,55,24,0
437.74948,438.02597,60,29,0
438.02597,438.31723,62,35,0
438.31723,438.8806,63,40,0
438.8806,439.16635,62,33,0
439.16635,439.45206,60,30,0
439.45206,439.89758,55,28,0
439.45206,439.89758,64,33,0
440.0461,440.51486,55,25,0
440.0461,440.51486,62,30,0
440.6711,442.5461,60,33,0
440.6711,442.5461,55,27,0
440.6711,442.5461,48,24,0
442.5461,442.95987,59,33,0
442.95987,443.09778,60,28,0
443.09778,443.49518,62,38,0
443.6621,444.05698,62,31,0
444.22287,444.60727,62,31,0
444.76877,445.19025,60,35,0
445.19025,445.33588,62,35,0
445.33588,446.15405,63,40,0
446.15405,446.4268,62,33,0
446.4268,446.6995,60,29,0
446.6995,446.99652,55,29,0
446.99652,447.27304,60,29,0
447.27304,447.5643,62,35,0
447.5643,448.1277,63,40,0
448.1277,448.4134,62,33,0
448.4134,448.6991,60,30,0
448.6991,449.14465,55,28,0
448.6991,449.14465,64,33,0
449.29315,449.7619,55,25,0
449.29315,449.7619,62,30,0
449.91815,451.16815,60,30,0
449.91815,451.16815,55,25,0
449.91815,451.16815,48,25,0
451.16815,451.6137,55,28,0
451.16815,451.6137,64,33,0
451.7622,452.23096,55,25,0
451.7622,452.23096,62,30,0
452.3872,453.6372,60,30,0
452.3872,453.6372,55,25,0
452.3872,453.6372,48,25,0
453.6372,454.2313,43,29,0
453.6372,454.2313,52,34,0
454.2313,454.8799,43,27,0
454.2313,454.8799,50,32,0
454.8799,456.25925,48,36,0
454.8799,456.25925,43,29,0
454.8799,456.25925,36,29,0
456.25925,457.77823,48,34,0
456.25925,457.77823,43,28,0
456.25925,457.77823,36,28,0
457.77823,461.44235,48,34,0
457.77823,461.44235,43,28,0
457.77823,461.44235,36,28,0
