start_time,end_time,note_value,velocity,instrument_program_number
0.87810093,1.1739005,68,60,0
1.1739005,1.3218002,64,66,0
1.3218002,1.4671048,61,60,0
1.4671048,1.6131331,64,60,0
1.6131331,1.7599068,68,60,0
1.7599068,1.9074409,64,64,0
1.9074409,2.0522895,61,60,0
2.0522895,2.1974747,64,60,0
2.1974747,2.343596,69,60,0
2.343596,2.4905355,63,63,0
2.4905355,2.63584,60,60,0
2.63584,2.7818682,63,60,0
2.7818682,2.9286203,69,60,0
2.9286203,3.0761278,63,63,0
3.0761278,3.2211957,60,60,0
3.2211957,3.366733,63,60,0
3.366733,3.5127382,68,60,0
3.5127382,3.6593256,68,66,0
3.6593256,3.8040555,64,63,0
3.8040555,3.9496186,68,63,0
3.9496186,4.0960174,76,63,0
4.0960174,4.243291,68,66,0
4.243291,4.3883586,64,63,0
4.3883586,4.5338964,68,63,0
4.5338964,4.6800175,73,63,0
4.6800175,4.826722,69,67,0
4.826722,4.971106,68,60,0
4.971106,5.1161737,66,61,0
5.1161737,5.261946,73,62,0
5.261946,5.4084163,72,68,0
5.4084163,5.5553355,66,65,0
5.5553355,5.7012224,68,66,0
5.7012224,5.8479657,72,67,0
5.8479657,5.9955945,73,72,0
5.9955945,6.140508,64,63,0
6.140508,6.2861533,68,65,0
6.2861533,6.4325233,73,67,0
6.4325233,6.57964,76,69,0
6.57964,6.7240705,68,64,0
6.7240705,6.869228,76,66,0
6.869228,7.0153565,80,68,0
7.0153565,7.1638966,76,73,0
7.1638966,7.309953,69,64,0
7.309953,7.45601,76,66,0
7.45601,7.602066,80,68,0
7.602066,7.7481227,74,70,0
7.7481227,7.8941793,78,67,0
7.8941793,8.0402355,73,70,0
8.0402355,8.186292,76,67,0
8.186292,8.331205,72,68,0
8.331205,8.476903,75,65,0
8.476903,8.623369,73,67,0
8.623369,8.770623,76,65,0
8.770623,8.918665,75,68,0
8.918665,9.067507,78,64,0
9.067507,9.217278,72,69,0
9.217278,9.371246,75,64,0
9.371246,9.517491,76,68,0
9.517491,9.664746,73,67,0
9.664746,9.813242,71,66,0
9.813242,9.96278,69,64,0
9.96278,10.1134815,68,63,0
10.1134815,10.265478,66,62,0
10.265478,10.418565,64,60,0
10.418565,10.57287,63,59,0
10.57287,10.729873,64,62,0
10.729873,10.878284,61,57,0
10.878284,11.027179,64,57,0
11.027179,11.176553,68,57,0
11.176553,11.326046,64,60,0
11.326046,11.473873,61,57,0
11.473873,11.622406,64,57,0
11.622406,11.771541,69,57,0
11.771541,11.920676,63,59,0
11.920676,12.068503,59,57,0
12.068503,12.217156,63,57,0
12.217156,12.366649,69,57,0
12.366649,12.516971,63,59,0
12.516971,12.665382,59,57,0
12.665382,12.814277,63,57,0
12.814277,12.963769,68,57,0
12.963769,13.113854,68,62,0
13.113854,13.261565,61,59,0
13.261565,13.409977,68,59,0
13.409977,13.559113,73,59,0
13.559113,13.709081,66,62,0
13.709081,13.857492,63,59,0
13.857492,14.006387,66,59,0
14.006387,14.15576,73,59,0
14.15576,14.305728,68,63,0
14.305728,14.452859,64,59,0
14.452859,14.600803,68,59,0
14.600803,14.749698,73,59,0
14.749698,14.897408,68,62,0
14.897408,15.045703,64,60,0
15.045703,15.194597,68,60,0
15.194597,15.3440895,71,60,0
15.3440895,15.494293,67,68,0
15.494293,15.642544,64,59,0
15.642544,15.791546,67,61,0
15.791546,15.941277,70,63,0
15.941277,16.091772,76,65,0
16.091772,16.239529,70,60,0
16.239529,16.38803,76,62,0
16.38803,16.537518,79,64,0
16.537518,16.685226,75,64,0
16.685226,16.833523,79,62,0
16.833523,16.982416,75,63,0
16.982416,17.131908,78,61,0
17.131908,17.282112,69,62,0
17.282112,17.432919,76,61,0
17.432919,17.584341,69,62,0
17.584341,17.736504,75,60,0
17.736504,17.889284,69,59,0
17.889284,18.042814,78,56,0
18.042814,18.196978,68,59,0
18.196978,18.351776,76,56,0
18.351776,18.507359,64,58,0
18.507359,18.663584,73,55,0
18.663584,18.820461,61,57,0
18.820461,18.97776,69,55,0
18.97776,19.134829,59,57,0
19.134829,19.290943,68,55,0
19.290943,19.446117,64,57,0
19.446117,19.600492,71,56,0
19.600492,19.753946,59,57,0
19.753946,19.906488,69,56,0
19.906488,20.058132,63,57,0
20.058132,20.209013,71,56,0
20.358889,20.507896,63,54,0
20.507896,20.657026,59,54,0
20.209013,20.657026,69,57,0
20.657026,20.80628,69,57,0
20.80628,20.955534,68,57,0
20.955534,21.104166,64,53,0
21.104166,21.250904,68,55,0
21.250904,21.399246,69,57,0
21.399246,21.55153,71,59,0
21.55153,21.704592,68,50,0
21.704592,21.858438,71,53,0
21.858438,22.012283,80,46,0
22.012283,22.163038,71,49,0
22.163038,22.313791,78,44,0
22.313791,22.464546,72,49,0
22.464546,22.6153,76,46,0
22.6153,22.77692,73,53,0
22.77692,22.934565,64,56,0
22.934565,23.09271,73,54,0
23.09271,23.251358,76,55,0
23.251358,23.41051,71,59,0
23.41051,23.567537,75,54,0
23.567537,23.725431,69,57,0
23.725431,23.884205,73,54,0
23.884205,24.043865,68,57,0
24.043865,24.201511,59,54,0
24.201511,24.359655,68,54,0
24.359655,24.518303,71,54,0
24.518303,24.677454,64,57,0
24.677454,24.8351,58,51,0
24.8351,24.993496,64,52,0
24.993496,25.152647,73,52,0
25.152647,25.316742,66,54,0
25.316742,25.478502,57,49,0
25.478502,25.640263,66,49,0
25.640263,25.802023,71,49,0
25.802023,25.963783,66,53,0
25.963783,26.125542,57,48,0
26.125542,26.287302,66,48,0
26.287302,26.449062,71,48,0
26.449062,26.603828,64,48,0
26.603828,26.758596,56,44,0
26.758596,26.913363,64,44,0
26.913363,27.068129,68,44,0
27.687197,27.841963,63,48,0
27.841963,27.99673,57,43,0
27.99673,28.151497,63,43,0
28.151497,28.306263,71,43,0
28.925331,29.082037,64,48,0
29.082037,29.238745,56,45,0
29.238745,29.39545,64,45,0
29.39545,29.552158,68,45,0
29.552158,29.709124,68,44,0
29.709124,29.867102,71,49,0
29.867102,30.0261,76,53,0
30.0261,30.200447,80,58,0
30.357843,30.515242,68,46,0
30.200447,30.515242,80,62,0
30.67264,30.830038,68,47,0
30.515242,30.830038,76,56,0
30.987434,31.144833,68,44,0
30.830038,31.144833,75,53,0
31.30223,31.45963,68,44,0
31.144833,31.45963,74,50,0
31.45963,31.612347,73,48,0
31.612347,31.765066,61,43,0
31.765066,31.917784,69,43,0
31.917784,32.070503,73,43,0
32.681377,32.834095,68,48,0
32.834095,32.986813,62,42,0
32.986813,33.13953,68,42,0
33.13953,33.29225,76,42,0
33.903126,34.055843,69,48,0
34.055843,34.20856,61,42,0
34.20856,34.36128,69,42,0
34.36128,34.514,73,43,0
34.514,34.66624,73,43,0
34.66624,34.819706,76,48,0
34.819706,34.9744,81,53,0
34.9744,35.152588,85,59,0
35.152588,35.307854,85,64,0
35.307854,35.463116,73,56,0
35.463116,35.61838,81,61,0
35.61838,35.773643,73,56,0
35.773643,35.928905,80,61,0
35.928905,36.08417,76,56,0
36.08417,36.239433,78,61,0
36.239433,36.3947,75,55,0
36.3947,36.556652,76,66,0
36.3947,36.556652,68,66,0
36.3947,36.556652,64,66,0
36.556652,36.721485,68,61,0
36.721485,36.887756,66,61,0
36.887756,37.055798,68,61,0
37.055798,37.22533,64,58,0
37.22533,37.39655,68,62,0
37.39655,37.569485,63,66,0
37.569485,37.74352,68,69,0
37.74352,37.9021,64,80,0
37.9021,38.060677,61,74,0
38.060677,38.219257,64,74,0
38.219257,38.37784,68,74,0
38.37784,38.536415,64,78,0
38.536415,38.694996,61,74,0
38.694996,38.8479,64,74,0
38.8479,39.001328,69,74,0
39.001328,39.15528,63,76,0
39.15528,39.309895,60,74,0
39.309895,39.46517,63,74,0
39.46517,39.621124,69,74,0
39.621124,39.77763,63,76,0
39.77763,39.934826,60,74,0
39.934826,40.086956,63,74,0
40.086956,40.23973,68,74,0
40.23973,40.393288,68,80,0
40.393288,40.547504,64,76,0
40.547504,40.70252,68,76,0
40.70252,40.8582,76,76,0
40.8582,41.014706,68,80,0
41.014706,41.171764,64,76,0
41.171764,41.323895,68,76,0
41.323895,41.4768,73,76,0
41.4768,41.630486,69,82,0
41.630486,41.7851,68,74,0
41.7851,41.940514,66,75,0
41.940514,42.09674,73,76,0
42.09674,42.2538,72,83,0
42.2538,42.411682,63,79,0
42.411682,42.563812,68,80,0
42.563812,42.716717,72,82,0
42.716717,42.870407,73,88,0
42.870407,43.02502,68,76,0
43.02502,43.180435,73,79,0
43.180435,43.33666,76,82,0
43.33666,43.493717,76,84,0
43.493717,43.651882,68,82,0
43.651882,43.804787,76,86,0
43.804787,43.958473,80,90,0
43.958473,44.113087,76,93,0
44.113087,44.2685,69,90,0
44.2685,44.42473,76,88,0
44.42473,44.581924,80,85,0
44.581924,44.73995,74,86,0
44.73995,44.89895,78,82,0
44.89895,45.05108,73,86,0
45.05108,45.203205,76,82,0
45.203205,45.356113,72,83,0
45.356113,45.509148,75,79,0
45.509148,45.662838,73,82,0
45.662838,45.816658,76,76,0
45.816658,45.971138,75,81,0
45.971138,46.125885,78,75,0
46.125885,46.281162,72,79,0
46.281162,46.436443,75,72,0
46.436443,46.589348,76,79,0
46.589348,46.743168,73,74,0
46.743168,46.897915,71,69,0
46.897915,47.053463,69,65,0
47.053463,47.20997,68,61,0
47.20997,47.36744,66,57,0
47.36744,47.525738,64,53,0
47.525738,47.68502,63,48,0
47.68502,47.850418,64,42,0
47.850418,48.00533,61,45,0
48.00533,48.16168,64,45,0
48.16168,48.31935,68,45,0
48.31935,48.478653,64,48,0
48.478653,48.63421,61,45,0
48.63421,48.790688,64,45,0
48.790688,48.948093,69,45,0
48.948093,49.10644,63,47,0
49.10644,49.261097,59,45,0
49.261097,49.416653,63,45,0
49.416653,49.57313,69,45,0
49.57313,49.730537,63,47,0
49.730537,49.886093,59,45,0
49.886093,50.042572,63,45,0
50.042572,50.200115,68,45,0
50.200115,50.358734,68,49,0
50.358734,50.513515,61,47,0
50.513515,50.669205,68,47,0
50.669205,50.825943,73,47,0
50.825943,50.983753,66,49,0
50.983753,51.13918,63,47,0
51.13918,51.29553,66,47,0
51.29553,51.452663,73,47,0
51.452663,51.60921,68,50,0
51.60921,51.763992,64,47,0
51.763992,51.919815,68,47,0
51.919815,52.076557,73,47,0
52.076557,52.234634,68,49,0
52.234634,52.38942,64,48,0
52.38942,52.545105,68,48,0
52.545105,52.701847,71,48,0
52.701847,52.859657,67,54,0
52.859657,53.014698,64,47,0
53.014698,53.171307,67,48,0
53.171307,53.329517,70,50,0
53.329517,53.489502,76,52,0
53.489502,53.644413,70,48,0
53.644413,53.80037,76,49,0
53.80037,53.957638,79,51,0
53.957638,54.115986,75,51,0
54.115986,54.269863,79,49,0
54.269863,54.42439,75,50,0
54.42439,54.579685,78,48,0
54.579685,54.73577,69,49,0
54.73577,54.892643,76,48,0
54.892643,55.05032,69,49,0
55.05032,55.208797,75,48,0
55.208797,55.3681,69,47,0
55.3681,55.528084,78,44,0
55.528084,55.6889,68,47,0
55.6889,55.85056,76,44,0
55.85056,56.013065,64,46,0
56.013065,56.17643,73,44,0
56.17643,56.340664,61,45,0
56.340664,56.50577,69,44,0
56.50577,56.66367,59,45,0
56.66367,56.821564,68,44,0
56.821564,56.979458,64,45,0
56.979458,57.137352,71,44,0
57.137352,57.295513,59,45,0
57.295513,57.452396,69,44,0
57.452396,57.60794,63,45,0
57.60794,57.762035,71,44,0
57.91472,58.067142,63,43,0
58.067142,58.220463,59,43,0
57.762035,58.220463,69,45,0
58.220463,58.374687,69,45,0
58.374687,58.529972,68,45,0
58.529972,58.68618,59,42,0
58.68618,58.839912,64,44,0
58.839912,58.993362,66,45,0
58.993362,59.14795,68,47,0
59.14795,59.30096,64,43,0
59.30096,59.45483,68,45,0
59.45483,59.609184,76,44,0
59.609184,59.766563,68,47,0
59.766563,59.923946,75,44,0
59.923946,60.081326,68,48,0
60.081326,60.23871,73,44,0
60.23871,60.397102,69,48,0
60.397102,60.55098,61,44,0
60.55098,60.705357,69,46,0
60.705357,60.860218,73,46,0
60.860218,61.015564,68,47,0
61.015564,61.168823,71,43,0
61.168823,61.322952,66,45,0
61.322952,61.477936,69,43,0
61.477936,61.656013,64,45,0
61.656013,61.83182,56,43,0
61.83182,62.00821,64,43,0
62.00821,62.185165,68,43,0
62.185165,62.362682,61,45,0
62.362682,62.53849,55,40,0
62.53849,62.715168,61,41,0
62.715168,62.892685,69,41,0
62.892685,63.083015,63,43,0
63.083015,63.270607,54,39,0
63.270607,63.458202,63,39,0
63.458202,63.645798,68,39,0
63.645798,63.83339,63,42,0
63.83339,64.02098,54,38,0
64.02098,64.20858,63,38,0
64.20858,64.39617,68,38,0
64.39617,64.57198,61,38,0
64.57198,64.74779,52,35,0
64.74779,64.9236,61,35,0
64.9236,65.0994,64,35,0
65.80264,65.97845,61,38,0
65.97845,66.15426,52,34,0
66.15426,66.33007,61,34,0
66.33007,66.505875,64,34,0
67.209114,67.36047,62,38,0
67.36047,67.51183,57,36,0
67.51183,67.6632,62,36,0
67.6632,67.81456,66,36,0
67.81456,67.96617,66,35,0
67.96617,68.11875,69,39,0
68.11875,68.2723,74,42,0
68.2723,68.4407,78,46,0
68.60924,68.77778,74,36,0
68.4407,68.77778,81,49,0
68.77778,68.94632,69,37,0
68.94632,69.11485,71,37,0
68.77778,69.11485,78,44,0
69.11485,69.283394,73,35,0
69.283394,69.451935,68,35,0
69.11485,69.451935,76,42,0
69.451935,69.620476,72,35,0
69.620476,69.78902,68,35,0
69.451935,69.78902,75,40,0
69.78902,69.94397,73,38,0
69.94397,70.09893,64,34,0
70.09893,70.25389,73,34,0
70.25389,70.40885,76,34,0
71.02869,71.18364,73,38,0
71.18364,71.3386,64,33,0
71.3386,71.49356,73,33,0
71.49356,71.64852,76,33,0
72.26836,72.41657,74,38,0
72.41657,72.5648,69,39,0
72.5648,72.71302,74,44,0
72.71302,72.86124,78,49,0
72.86124,73.009,81,55,0
73.009,73.15794,78,53,0
73.15794,73.30807,74,50,0
73.30807,73.481,69,47,0
73.481,73.644936,68,44,0
73.644936,73.80887,76,44,0
73.80887,73.9728,64,48,0
73.9728,74.13674,73,44,0
74.13674,74.300674,66,48,0
74.300674,74.46461,75,44,0
74.46461,74.62854,63,48,0
74.62854,74.79247,72,44,0
74.79247,74.97997,64,51,0
74.97997,75.16747,73,42,0
75.16747,75.35497,64,43,0
75.16747,75.35497,61,43,0
75.35497,75.54247,68,35,0
75.54247,75.7438,66,38,0
75.54247,75.7438,63,38,0
75.7438,75.953606,68,31,0
75.953606,76.170235,63,34,0
75.953606,76.170235,60,34,0
76.170235,76.394135,68,30,0
78.34535,78.54016,65,36,0
78.54016,78.75445,68,36,0
78.75445,79.57636,70,32,0
78.75445,79.57636,66,32,0
79.57636,79.86857,68,28,0
79.57636,79.86857,65,28,0
79.96597,80.16078,65,36,0
80.16078,80.37057,68,36,0
80.37057,81.19249,73,33,0
80.37057,81.19249,70,33,0
80.37057,81.19249,66,33,0
81.19249,81.484695,68,30,0
81.19249,81.484695,65,30,0
81.5821,81.7769,68,37,0
81.5821,81.7769,65,37,0
81.7769,81.97171,62,37,0
81.97171,82.771706,66,39,0
81.97171,82.771706,63,39,0
82.771706,83.15633,75,36,0
82.771706,83.15633,66,36,0
83.15633,83.34863,77,39,0
83.15633,83.34863,68,39,0
83.34863,83.54094,75,37,0
83.34863,83.54094,66,37,0
83.54094,84.340935,73,38,0
83.54094,84.340935,65,38,0
84.340935,84.649155,68,31,0
84.340935,84.649155,65,31,0
84.7519,84.9394,65,36,0
84.9394,85.1269,68,36,0
85.1269,85.91121,70,32,0
85.1269,85.91121,66,32,0
85.91121,86.19423,68,30,0
85.91121,86.19423,65,30,0
86.28857,86.47725,65,36,0
86.47725,86.69308,68,36,0
86.69308,87.48255,73,32,0
86.69308,87.48255,70,32,0
86.69308,87.48255,66,32,0
87.48255,87.76557,68,28,0
87.48255,87.76557,65,28,0
87.85991,88.04859,68,37,0
87.85991,88.04859,65,37,0
88.04859,88.23727,62,37,0
88.23727,88.80331,66,39,0
88.23727,88.80331,63,39,0
88.80331,88.98735,75,36,0
88.80331,88.98735,66,36,0
88.98735,89.1714,77,37,0
88.98735,89.1714,68,37,0
89.1714,89.35545,75,36,0
89.1714,89.35545,66,36,0
89.35545,89.539505,73,37,0
89.35545,89.539505,65,37,0
89.539505,89.72355,75,37,0
89.539505,89.72355,66,37,0
89.72355,90.97355,73,40,0
89.72355,90.97355,65,40,0
90.97355,91.17355,56,43,0
91.17355,91.37355,60,43,0
91.37355,92.18988,61,47,0
91.37355,92.18988,56,47,0
91.37355,92.18988,52,47,0
92.18988,92.57949,60,38,0
92.18988,92.57949,56,38,0
92.18988,92.57949,51,38,0
92.57949,92.776855,56,48,0
92.776855,92.97423,60,48,0
92.97423,93.785034,61,53,0
92.97423,93.785034,64,53,0
92.97423,93.785034,56,53,0
93.785034,94.1672,60,45,0
93.785034,94.1672,63,45,0
93.785034,94.1672,56,45,0
94.1672,94.368546,63,53,0
94.1672,94.368546,60,53,0
94.368546,94.569885,69,53,0
94.569885,95.62252,68,56,0
94.569885,95.62252,64,56,0
94.569885,95.62252,61,56,0
95.62252,96.24107,68,38,0
95.62252,96.24107,63,38,0
95.62252,96.24107,60,38,0
96.24107,96.59821,69,27,0
96.59821,96.95536,71,27,0
96.24107,96.95536,63,25,0
96.24107,96.95536,59,25,0
96.95536,98.8501,68,26,0
96.95536,98.8501,64,24,0
96.95536,98.8501,59,24,0
98.8501,99.049164,65,32,0
99.049164,99.266556,68,32,0
99.266556,100.106544,70,27,0
99.266556,100.106544,66,23,0
100.106544,100.39875,68,25,0
100.106544,100.39875,65,21,0
100.496155,100.690956,65,32,0
100.690956,100.89929,68,32,0
100.89929,101.7101,73,30,0
100.89929,101.7101,70,25,0
100.89929,101.7101,66,25,0
101.7101,101.98788,68,24,0
101.7101,101.98788,65,20,0
102.080475,102.265656,68,33,0
102.080475,102.265656,65,28,0
102.265656,102.45084,62,33,0
102.45084,103.22007,66,38,0
102.45084,103.22007,63,32,0
103.22007,103.60469,75,31,0
103.22007,103.60469,66,26,0
103.60469,103.79577,77,37,0
103.60469,103.79577,68,31,0
103.79577,103.986855,75,33,0
103.79577,103.986855,66,28,0
103.986855,104.77633,73,40,0
103.986855,104.77633,65,34,0
104.77633,105.06295,68,30,0
104.77633,105.06295,65,25,0
105.15849,105.34958,65,32,0
105.34958,105.549576,68,32,0
105.549576,106.3288,70,31,0
105.549576,106.3288,66,26,0
106.3288,106.61182,68,30,0
106.3288,106.61182,65,25,0
106.706154,106.89484,65,32,0
106.89484,107.09483,68,32,0
107.09483,107.869026,73,31,0
107.09483,107.869026,70,26,0
107.09483,107.869026,66,26,0
107.869026,108.146805,68,26,0
107.869026,108.146805,65,22,0
108.2394,108.42458,68,33,0
108.2394,108.42458,65,28,0
108.42458,108.621956,62,33,0
108.621956,109.198875,66,40,0
108.621956,109.198875,63,34,0
109.198875,109.3796,75,32,0
109.198875,109.3796,66,27,0
109.3796,109.560326,77,33,0
109.3796,109.560326,68,28,0
109.560326,109.74104,75,32,0
109.560326,109.74104,66,27,0
109.74104,109.92177,73,33,0
109.74104,109.92177,65,28,0
109.92177,110.10249,75,33,0
109.92177,110.10249,66,28,0
110.10249,111.379814,73,36,0
110.10249,111.379814,65,30,0
111.379814,111.57507,56,36,0
111.57507,111.77033,60,36,0
111.77033,112.57711,61,39,0
111.77033,112.57711,56,36,0
111.77033,112.57711,52,36,0
112.57711,112.967636,60,31,0
112.57711,112.967636,56,29,0
112.57711,112.967636,51,29,0
112.967636,113.162895,56,39,0
113.162895,113.35816,60,39,0
113.35816,114.15286,61,40,0
113.35816,114.15286,64,44,0
113.35816,114.15286,56,40,0
114.15286,114.54339,60,34,0
114.15286,114.54339,63,37,0
114.15286,114.54339,56,34,0
114.54339,114.73865,63,44,0
114.54339,114.73865,60,40,0
114.73865,114.93391,69,44,0
114.93391,115.942314,68,48,0
114.93391,115.942314,64,44,0
114.93391,115.942314,61,44,0
115.942314,116.53637,68,38,0
115.942314,116.53637,63,35,0
115.942314,116.53637,60,35,0
116.53637,116.93637,69,26,0
116.93637,117.33637,71,26,0
116.53637,117.33637,63,24,0
116.53637,117.33637,59,24,0
117.33637,118.659904,68,26,0
117.33637,118.659904,64,24,0
117.33637,118.659904,59,24,0
118.659904,118.845085,68,47,0
118.845085,119.03027,69,47,0
118.659904,119.03027,64,47,0
118.659904,119.03027,59,47,0
119.03027,119.77101,66,51,0
119.03027,119.77101,63,51,0
119.03027,119.77101,59,51,0
119.77101,120.12189,68,44,0
119.77101,120.12189,64,44,0
119.77101,120.12189,59,44,0
120.12189,120.297325,68,49,0
120.297325,120.47276,69,49,0
120.12189,120.47276,64,49,0
120.12189,120.47276,59,49,0
120.47276,121.19133,66,53,0
120.47276,121.19133,63,53,0
120.47276,121.19133,59,53,0
121.19133,121.53419,68,48,0
121.19133,121.53419,64,48,0
121.19133,121.53419,59,48,0
121.53419,121.70561,66,53,0
121.70561,121.877045,68,53,0
121.53419,121.877045,63,53,0
121.53419,121.877045,59,53,0
121.877045,122.59133,64,56,0
121.877045,122.59133,61,56,0
121.877045,122.59133,56,56,0
122.59133,122.932236,66,60,0
122.59133,122.932236,61,60,0
122.59133,122.932236,57,60,0
122.932236,123.10565,63,56,0
123.10565,123.27906,66,56,0
122.932236,123.27906,57,56,0
123.27906,123.94171,64,52,0
123.27906,123.94171,56,52,0
124.00195,124.34481,76,45,0
124.00195,124.34481,68,45,0
124.34481,124.516235,76,48,0
124.516235,124.68767,80,48,0
124.34481,124.68767,69,48,0
124.68767,125.39355,78,51,0
124.68767,125.39355,69,51,0
125.39355,125.73446,69,47,0
125.39355,125.73446,66,47,0
125.73446,125.90491,68,53,0
125.73446,125.90491,64,53,0
125.90491,126.07536,69,53,0
125.90491,126.07536,66,53,0
126.07536,126.77304,71,54,0
126.07536,126.77304,68,54,0
126.77304,127.110115,76,48,0
126.77304,127.110115,68,48,0
127.110115,127.278656,76,54,0
127.278656,127.4472,80,54,0
127.110115,127.4472,69,54,0
127.4472,128.1329,78,55,0
127.4472,128.1329,69,55,0
128.1329,128.46625,69,51,0
128.1329,128.46625,75,51,0
128.46625,128.6329,76,51,0
128.46625,128.6329,68,51,0
128.6329,128.79958,73,51,0
128.6329,128.79958,69,51,0
128.79958,129.48923,71,50,0
128.79958,129.48923,68,50,0
129.48923,129.83406,64,47,0
129.48923,129.83406,68,47,0
129.48923,129.83406,59,47,0
129.83406,130.00647,68,60,0
130.00647,130.1789,69,60,0
129.83406,130.1789,64,60,0
129.83406,130.1789,59,60,0
130.1789,130.88065,66,65,0
130.1789,130.88065,63,65,0
130.1789,130.88065,59,65,0
130.88065,131.22156,68,55,0
130.88065,131.22156,64,55,0
130.88065,131.22156,59,55,0
131.22156,131.392,68,62,0
131.392,131.56245,69,62,0
131.22156,131.56245,64,62,0
131.22156,131.56245,59,62,0
131.56245,132.26013,66,67,0
131.56245,132.26013,63,67,0
131.56245,132.26013,59,67,0
132.26013,132.60896,68,61,0
132.26013,132.60896,64,61,0
132.26013,132.60896,59,61,0
132.60896,132.80377,66,67,0
132.80377,132.99858,68,67,0
132.60896,132.99858,63,67,0
132.60896,132.99858,59,67,0
132.99858,133.79836,64,72,0
132.99858,133.79836,61,72,0
132.99858,133.79836,56,72,0
133.79836,133.99904,63,72,0
133.99904,134.20383,61,70,0
134.20383,134.41289,60,72,0
134.41289,134.62802,63,70,0
134.62802,135.50104,61,66,0
135.5804,136.02486,73,40,0
135.5804,136.02486,65,40,0
136.02486,136.24707,74,42,0
136.24707,136.4693,77,42,0
136.02486,136.4693,66,42,0
136.4693,137.2801,75,40,0
136.4693,137.2801,66,40,0
137.2801,137.66972,66,34,0
137.2801,137.66972,63,34,0
137.66972,137.86452,65,37,0
137.86452,138.05933,66,37,0
137.86452,138.05933,63,37,0
138.05933,138.85933,68,40,0
138.05933,138.85933,65,40,0
138.85933,139.24893,65,38,0
138.85933,139.24893,73,38,0
139.24893,139.44374,74,40,0
139.44374,139.63855,77,40,0
139.24893,139.63855,66,40,0
139.63855,140.44936,75,38,0
139.63855,140.44936,66,38,0
140.44936,140.91447,77,32,0
140.44936,140.91447,71,32,0
140.91447,141.1975,77,35,0
141.1975,141.48051,80,35,0
140.91447,141.48051,72,35,0
141.48051,144.05194,78,32,0
141.48051,144.05194,72,32,0
144.05194,144.25464,65,31,0
144.25464,144.47362,68,31,0
144.47362,145.31279,70,29,0
144.47362,145.31279,66,27,0
145.31279,145.61278,68,27,0
145.31279,145.61278,65,25,0
145.71278,145.9076,65,31,0
145.9076,146.1024,68,31,0
146.1024,146.94156,73,28,0
146.1024,146.94156,70,26,0
146.1024,146.94156,66,26,0
146.94156,147.23376,68,26,0
146.94156,147.23376,65,24,0
147.33116,147.51985,68,33,0
147.33116,147.51985,65,30,0
147.51985,147.70853,62,33,0
147.70853,148.48775,66,34,0
147.70853,148.48775,63,31,0
148.48775,148.8675,75,31,0
148.48775,148.8675,66,29,0
148.8675,149.05737,77,36,0
148.8675,149.05737,68,33,0
149.05737,149.24724,75,33,0
149.05737,149.24724,66,30,0
149.24724,150.04195,73,35,0
149.24724,150.04195,65,32,0
150.04195,150.33415,68,29,0
150.04195,150.33415,65,27,0
150.43155,150.62636,65,31,0
150.62636,150.82117,68,31,0
150.82117,151.62653,70,28,0
150.82117,151.62653,66,26,0
151.62653,151.91873,68,28,0
151.62653,151.91873,65,26,0
152.01614,152.21095,65,31,0
152.21095,152.40575,68,31,0
152.40575,153.20575,73,29,0
152.40575,153.20575,70,27,0
152.40575,153.20575,66,27,0
153.20575,153.49237,68,26,0
153.20575,153.49237,65,24,0
153.58792,153.779,68,33,0
153.58792,153.779,65,30,0
153.779,153.97008,62,33,0
153.97008,154.57008,66,39,0
153.97008,154.57008,63,36,0
154.57008,154.75414,75,31,0
154.57008,154.75414,66,29,0
154.75414,154.93819,77,33,0
154.75414,154.93819,68,30,0
154.93819,155.12222,75,31,0
154.93819,155.12222,66,29,0
155.12222,155.30627,73,33,0
155.12222,155.30627,65,30,0
155.30627,155.49033,75,33,0
155.30627,155.49033,66,30,0
155.49033,157.05554,73,35,0
155.49033,157.05554,65,32,0
160.12442,160.36064,57,42,0
160.12442,160.36064,60,42,0
160.36064,160.59686,66,42,0
160.59686,161.46643,65,46,0
160.59686,161.46643,61,46,0
160.59686,161.46643,58,46,0
161.46643,161.96643,65,36,0
161.46643,161.96643,60,36,0
161.46643,161.96643,57,36,0
161.96643,162.289,66,27,0
162.289,162.61159,68,27,0
161.96643,162.61159,60,25,0
161.96643,162.61159,56,25,0
163.90192,164.26118,64,47,0
163.90192,164.26118,68,47,0
162.61159,164.26118,65,27,0
162.61159,164.26118,56,25,0
162.61159,164.26118,61,25,0
163.92586,164.28514,59,47,0
164.26118,164.28514,59,47,0
164.26118,164.44083,68,47,0
164.44083,164.62047,69,47,0
164.26118,164.62047,64,47,0
164.62047,165.3612,66,51,0
164.62047,165.3612,63,51,0
164.62047,165.3612,59,51,0
165.3612,165.7121,68,44,0
165.3612,165.7121,64,44,0
165.3612,165.7121,59,44,0
165.7121,165.88753,68,49,0
165.88753,166.06297,69,49,0
165.7121,166.06297,64,49,0
165.7121,166.06297,59,49,0
166.06297,166.78152,66,53,0
166.06297,166.78152,63,53,0
166.06297,166.78152,59,53,0
166.78152,167.12439,68,48,0
166.78152,167.12439,64,48,0
166.78152,167.12439,59,48,0
167.12439,167.29582,66,53,0
167.29582,167.46724,68,53,0
167.12439,167.46724,63,53,0
167.12439,167.46724,59,53,0
167.46724,168.18153,64,56,0
167.46724,168.18153,61,56,0
167.46724,168.18153,56,56,0
168.18153,168.52245,66,60,0
168.18153,168.52245,61,60,0
168.18153,168.52245,57,60,0
168.52245,168.69585,63,56,0
168.69585,168.86926,66,56,0
168.52245,168.86926,57,56,0
168.86926,169.5319,64,52,0
168.86926,169.5319,56,52,0
169.59215,169.93114,76,45,0
169.59215,169.93114,68,45,0
169.93114,170.10063,76,48,0
170.10063,170.27011,80,48,0
169.93114,170.27011,69,48,0
170.27011,170.976,78,51,0
170.27011,170.976,69,51,0
170.976,171.3112,69,47,0
170.976,171.3112,66,47,0
171.3112,171.47879,68,53,0
171.47879,171.6464,69,53,0
171.47879,171.6464,66,53,0
171.6464,172.3321,71,54,0
171.6464,172.3321,68,54,0
172.3321,172.65997,76,48,0
172.3321,172.65997,68,48,0
172.65997,172.82391,76,54,0
172.82391,172.98784,80,54,0
172.65997,172.98784,69,54,0
172.98784,173.65083,78,55,0
172.98784,173.65083,69,55,0
173.65083,173.97691,69,51,0
173.65083,173.97691,75,51,0
173.97691,174.13995,76,51,0
173.97691,174.13995,68,51,0
174.13995,174.303,73,51,0
174.13995,174.303,69,51,0
174.303,174.99266,71,50,0
174.303,174.99266,68,50,0
174.99266,175.33748,64,47,0
174.99266,175.33748,68,47,0
174.99266,175.33748,59,47,0
175.33748,175.5099,68,67,0
175.5099,175.68231,69,67,0
175.33748,175.68231,64,67,0
175.33748,175.68231,59,67,0
175.68231,176.38406,66,73,0
175.68231,176.38406,63,73,0
175.68231,176.38406,59,73,0
176.38406,176.72498,68,62,0
176.38406,176.72498,64,62,0
176.38406,176.72498,59,62,0
176.72498,176.89543,68,69,0
176.89543,177.06589,69,69,0
176.72498,177.06589,64,69,0
176.72498,177.06589,59,69,0
177.06589,177.76355,66,75,0
177.06589,177.76355,63,75,0
177.06589,177.76355,59,75,0
177.76355,178.1124,68,68,0
177.76355,178.1124,64,68,0
177.76355,178.1124,59,68,0
178.1124,178.3072,66,75,0
178.3072,178.502,68,75,0
178.1124,178.502,63,75,0
178.1124,178.502,59,75,0
178.502,179.30315,64,80,0
178.502,179.30315,61,80,0
178.502,179.30315,56,80,0
179.30315,179.51149,63,81,0
179.51149,179.72427,61,78,0
179.72427,179.94089,60,80,0
179.94089,180.1623,63,78,0
180.1623,181.11057,61,74,0
181.19678,181.65132,73,40,0
181.19678,181.65132,65,40,0
181.65132,181.8786,74,42,0
181.8786,182.10587,77,42,0
181.65132,182.10587,66,42,0
182.10587,182.91669,75,40,0
182.10587,182.91669,66,40,0
182.91669,183.30629,66,34,0
182.91669,183.30629,63,34,0
183.30629,183.5011,65,37,0
183.5011,183.6959,66,37,0
183.5011,183.6959,63,37,0
183.6959,184.4959,68,40,0
183.6959,184.4959,65,40,0
184.4959,184.88551,65,38,0
184.4959,184.88551,73,38,0
184.88551,185.08032,74,40,0
185.08032,185.27512,77,40,0
184.88551,185.27512,66,40,0
185.27512,186.08594,75,38,0
185.27512,186.08594,66,38,0
186.08594,186.57774,77,32,0
186.08594,186.57774,71,32,0
186.57774,186.86076,77,35,0
186.86076,187.14377,80,35,0
186.57774,187.14377,72,35,0
187.14377,189.71521,78,32,0
187.14377,189.71521,72,32,0
189.71521,189.91791,65,31,0
189.91791,190.1248,68,31,0
190.1248,190.96396,70,28,0
190.1248,190.96396,66,26,0
190.96396,191.26396,68,27,0
190.96396,191.26396,65,25,0
191.36397,191.55878,65,31,0
191.55878,191.75357,68,31,0
191.75357,192.59274,73,30,0
191.75357,192.59274,70,28,0
191.75357,192.59274,66,28,0
192.59274,192.87755,68,26,0
192.59274,192.87755,65,24,0
192.97249,193.16728,68,33,0
192.97249,193.16728,65,30,0
193.16728,193.36209,62,33,0
193.36209,194.14131,66,34,0
193.36209,194.14131,63,31,0
194.14131,194.52106,75,31,0
194.14131,194.52106,66,29,0
194.52106,194.70625,77,36,0
194.52106,194.70625,68,33,0
194.70625,194.89143,75,33,0
194.70625,194.89143,66,30,0
194.89143,195.68613,73,35,0
194.89143,195.68613,65,32,0
195.68613,195.97835,68,29,0
195.68613,195.97835,65,27,0
196.07574,196.27055,65,31,0
196.27055,196.46536,68,31,0
196.46536,197.27072,70,27,0
196.46536,197.27072,66,25,0
197.27072,197.56293,68,28,0
197.27072,197.56293,65,26,0
197.66034,197.85513,65,31,0
197.85513,198.04994,68,31,0
198.04994,198.84995,73,28,0
198.04994,198.84995,70,26,0
198.04994,198.84995,66,26,0
198.84995,199.13657,68,26,0
198.84995,199.13657,65,24,0
199.23212,199.42319,68,33,0
199.23212,199.42319,65,30,0
199.42319,199.61427,62,33,0
199.61427,200.21428,66,39,0
199.61427,200.21428,63,36,0
200.21428,200.4006,75,31,0
200.21428,200.4006,66,29,0
200.4006,200.58694,77,33,0
200.4006,200.58694,68,30,0
200.58694,200.77328,75,31,0
200.58694,200.77328,66,29,0
200.77328,200.95963,73,33,0
200.77328,200.95963,65,30,0
200.95963,201.14595,75,33,0
200.95963,201.14595,66,30,0
201.14595,202.79733,73,35,0
201.14595,202.79733,65,32,0
205.8662,206.12262,57,29,0
205.8662,206.12262,60,29,0
206.12262,206.37903,66,29,0
206.37903,207.30925,65,33,0
206.37903,207.30925,61,33,0
206.37903,207.30925,58,33,0
207.30925,207.90926,65,28,0
207.30925,207.90926,60,24,0
207.30925,207.90926,57,24,0
207.90926,208.33179,66,22,0
208.33179,208.75433,68,22,0
207.90926,208.75433,60,18,0
207.90926,208.75433,56,18,0
211.68115,211.98116,68,60,0
208.75433,211.98116,56,18,0
208.75433,211.98116,61,18,0
208.75433,211.98116,65,22,0
211.98116,212.13115,64,66,0
212.13115,212.27646,61,60,0
212.27646,212.42249,64,60,0
212.42249,212.56929,68,60,0
212.56929,212.71683,64,64,0
212.71683,212.86168,61,60,0
212.86168,213.00685,64,60,0
213.00685,213.15298,69,60,0
213.15298,213.29993,63,63,0
213.29993,213.44522,60,60,0
213.44522,213.59125,63,60,0
213.59125,213.738,69,60,0
213.738,213.88551,63,63,0
213.88551,214.03058,60,60,0
214.03058,214.17612,63,60,0
214.17612,214.32213,68,60,0
214.32213,214.4687,68,66,0
214.4687,214.61343,64,63,0
214.61343,214.759,68,63,0
214.759,214.9054,76,63,0
214.9054,215.05267,68,66,0
215.05267,215.19774,64,63,0
215.19774,215.34328,68,63,0
215.34328,215.4894,73,63,0
215.4894,215.63611,69,67,0
215.63611,215.78049,68,60,0
215.78049,215.92555,66,61,0
215.92555,216.07133,73,62,0
216.07133,216.2178,72,68,0
216.2178,216.36472,66,65,0
216.36472,216.5106,68,66,0
216.5106,216.65735,72,67,0
216.65735,216.80498,73,72,0
216.80498,216.94989,64,63,0
216.94989,217.09554,68,65,0
217.09554,217.24191,73,67,0
217.24191,217.38902,76,69,0
217.38902,217.53345,68,64,0
217.53345,217.67862,76,66,0
217.67862,217.82474,80,68,0
217.82474,217.97328,76,73,0
217.97328,218.11934,69,64,0
218.11934,218.2654,76,66,0
218.2654,218.41145,80,68,0
218.41145,218.55751,74,70,0
218.55751,218.70357,78,67,0
218.70357,218.84962,73,70,0
218.84962,218.99568,76,67,0
218.99568,219.1406,72,68,0
219.1406,219.28629,75,65,0
219.28629,219.43275,73,67,0
219.43275,219.58,76,65,0
219.58,219.72804,75,68,0
219.72804,219.87689,78,64,0
219.87689,220.02666,72,69,0
220.02666,220.18063,75,64,0
220.18063,220.32687,76,68,0
220.32687,220.47414,73,67,0
220.47414,220.62262,71,66,0
220.62262,220.77217,69,64,0
220.77217,220.92287,68,63,0
220.92287,221.07486,66,62,0
221.07486,221.22795,64,60,0
221.22795,221.38225,63,59,0
221.38225,221.53926,64,62,0
221.53926,221.68767,61,57,0
221.68767,221.83656,64,57,0
221.83656,221.98593,68,57,0
221.98593,222.13544,64,60,0
222.13544,222.28326,61,57,0
222.28326,222.4318,64,57,0
222.4318,222.58092,69,57,0
222.58092,222.73006,63,59,0
222.73006,222.87788,59,57,0
222.87788,223.02654,63,57,0
223.02654,223.17603,69,57,0
223.17603,223.32635,63,59,0
223.32635,223.47476,59,57,0
223.47476,223.62366,63,57,0
223.62366,223.77315,68,57,0
223.77315,223.92323,68,62,0
223.92323,224.07095,61,59,0
224.07095,224.21936,68,59,0
224.21936,224.3685,73,59,0
224.3685,224.51846,66,62,0
224.51846,224.66687,63,59,0
224.66687,224.81577,66,59,0
224.81577,224.96515,73,59,0
224.96515,225.11511,68,63,0
225.11511,225.26224,64,59,0
225.26224,225.41019,68,59,0
225.41019,225.55908,73,59,0
225.55908,225.70679,68,62,0
225.70679,225.85509,64,60,0
225.85509,226.00398,68,60,0
226.00398,226.15347,71,60,0
226.15347,226.30368,67,68,0
226.30368,226.45193,64,59,0
226.45193,226.60094,67,61,0
226.60094,226.75066,70,63,0
226.75066,226.90115,76,65,0
226.90115,227.0489,70,60,0
227.0489,227.19742,76,62,0
227.19742,227.3469,79,64,0
227.3469,227.49461,75,64,0
227.49461,227.64291,79,62,0
227.64291,227.7918,75,63,0
227.7918,227.9413,78,61,0
227.9413,228.09149,69,62,0
228.09149,228.2423,76,61,0
228.2423,228.39372,69,62,0
228.39372,228.54588,75,60,0
228.54588,228.69867,69,59,0
228.69867,228.8522,78,56,0
228.8522,229.00636,68,59,0
229.00636,229.16116,76,56,0
229.16116,229.31674,64,58,0
229.31674,229.47296,73,55,0
229.47296,229.62985,61,57,0
229.62985,229.78728,69,55,0
229.78728,229.94504,59,57,0
229.94504,230.10184,68,55,0
230.10184,230.25768,64,57,0
230.25768,230.41272,71,56,0
230.41272,230.56683,59,57,0
230.56683,230.72002,69,56,0
230.72002,230.87231,63,57,0
230.87231,231.0237,71,56,0
231.1742,231.32382,63,54,0
231.32382,231.47308,59,54,0
231.0237,231.47308,69,57,0
231.47308,231.62233,69,57,0
231.62233,231.77234,68,57,0
231.77234,231.9216,64,53,0
231.9216,232.06914,68,55,0
232.06914,232.21817,69,57,0
232.21817,232.37045,71,59,0
232.37045,232.52351,68,50,0
232.52351,232.67737,71,53,0
232.67737,232.8312,80,46,0
232.8312,232.98196,71,49,0
232.98196,233.13272,78,44,0
233.13272,233.28348,72,49,0
233.28348,233.43423,76,46,0
233.43423,233.59584,73,53,0
233.59584,233.7535,64,56,0
233.7535,233.91164,73,54,0
233.91164,234.07028,76,55,0
234.07028,234.22943,71,59,0
234.22943,234.38646,75,54,0
234.38646,234.54436,69,57,0
234.54436,234.70314,73,54,0
234.70314,234.8628,68,57,0
234.8628,235.02045,59,54,0
235.02045,235.17859,68,54,0
235.17859,235.33723,71,54,0
235.33723,235.49638,64,57,0
235.49638,235.65402,58,51,0
235.65402,235.81242,64,52,0
235.81242,235.97157,73,52,0
235.97157,236.13567,66,54,0
236.13567,236.29742,57,49,0
236.29742,236.4592,66,49,0
236.4592,236.62096,71,49,0
236.62096,236.78271,66,53,0
236.78271,236.94447,57,48,0
236.94447,237.10623,66,48,0
237.10623,237.26799,71,48,0
237.26799,237.42276,64,48,0
237.42276,237.57753,56,44,0
237.57753,237.73228,64,44,0
237.73228,237.88705,68,44,0
238.50612,238.66089,63,48,0
238.66089,238.81566,57,43,0
238.81566,238.97043,63,43,0
238.97043,239.1252,71,43,0
239.74426,239.90097,64,48,0
239.90097,240.05768,56,45,0
240.05768,240.21439,64,45,0
240.21439,240.3711,68,45,0
240.3711,240.52805,68,44,0
240.52805,240.68604,71,49,0
240.68604,240.84503,76,53,0
240.84503,241.01938,80,58,0
241.17677,241.33417,68,46,0
241.01938,241.33417,80,62,0
241.49156,241.64897,68,47,0
241.33417,241.64897,76,56,0
241.80637,241.96376,68,44,0
241.64897,241.96376,75,53,0
242.12115,242.27855,68,44,0
241.96376,242.27855,74,50,0
242.27855,242.43127,73,48,0
242.43127,242.584,61,43,0
242.584,242.73671,69,43,0
242.73671,242.88943,73,43,0
243.5003,243.65303,68,48,0
243.65303,243.80574,62,42,0
243.80574,243.95847,68,42,0
243.95847,244.11118,76,42,0
244.72205,244.87477,69,48,0
244.87477,245.0275,61,42,0
245.0275,245.1802,69,42,0
245.1802,245.33293,73,43,0
245.33293,245.48517,73,43,0
245.48517,245.63864,76,48,0
245.63864,245.79333,81,53,0
245.79333,245.97151,85,59,0
245.97151,246.12679,85,64,0
246.12679,246.28204,73,56,0
246.28204,246.4373,81,61,0
246.4373,246.59258,73,56,0
246.59258,246.74783,80,61,0
246.74783,246.90309,76,56,0
246.90309,247.05836,78,61,0
247.05836,247.21362,75,55,0
247.21362,247.37558,76,66,0
247.21362,247.37558,68,66,0
247.21362,247.37558,64,66,0
247.37558,247.54042,68,61,0
247.54042,247.70668,66,61,0
247.70668,247.87473,68,61,0
247.87473,248.04427,64,58,0
248.04427,248.21548,68,62,0
248.21548,248.38841,63,66,0
248.38841,248.56245,68,69,0
248.56245,248.72102,64,80,0
248.72102,248.87961,61,74,0
248.87961,249.0382,64,74,0
249.0382,249.19676,68,74,0
249.19676,249.35535,64,78,0
249.35535,249.51393,61,74,0
249.51393,249.66682,64,74,0
249.66682,249.82025,69,74,0
249.82025,249.97421,63,76,0
249.97421,250.12881,60,74,0
250.12881,250.2841,63,74,0
250.2841,250.44005,69,74,0
250.44005,250.59656,63,76,0
250.59656,250.75375,60,74,0
250.75375,250.90588,63,74,0
250.90588,251.05865,68,74,0
251.05865,251.21222,68,80,0
251.21222,251.36644,64,76,0
251.36644,251.52145,68,76,0
251.52145,251.67712,76,76,0
251.67712,251.83363,68,80,0
251.83363,251.99069,64,76,0
251.99069,252.14282,68,76,0
252.14282,252.29573,73,76,0
252.29573,252.44942,69,82,0
252.44942,252.60403,68,74,0
252.60403,252.75945,66,75,0
252.75945,252.91566,73,76,0
252.91566,253.07272,72,83,0
253.07272,253.2306,63,79,0
253.2306,253.38274,68,80,0
253.38274,253.53564,72,82,0
253.53564,253.68933,73,88,0
253.68933,253.84395,68,76,0
253.84395,253.99936,73,79,0
253.99936,254.1556,76,82,0
254.1556,254.31265,76,84,0
254.31265,254.47081,68,82,0
254.47081,254.62372,76,86,0
254.62372,254.7774,80,90,0
254.7774,254.93202,76,93,0
254.93202,255.08743,69,90,0
255.08743,255.24365,76,88,0
255.24365,255.40085,80,85,0
255.40085,255.55887,74,86,0
255.55887,255.71788,78,82,0
255.71788,255.87001,73,86,0
255.87001,256.02213,76,82,0
256.02213,256.17505,72,83,0
256.17505,256.32806,75,79,0
256.32806,256.48175,73,82,0
256.48175,256.6356,76,76,0
256.6356,256.79007,75,81,0
256.79007,256.94482,78,75,0
256.94482,257.1001,72,79,0
257.1001,257.25537,75,72,0
257.25537,257.40826,76,79,0
257.40826,257.5621,73,74,0
257.5621,257.71686,71,69,0
257.71686,257.8724,69,65,0
257.8724,258.0289,68,61,0
258.0289,258.18637,66,57,0
258.18637,258.34467,64,53,0
258.34467,258.50394,63,48,0
258.50394,258.66934,64,42,0
258.66934,258.82425,61,45,0
258.82425,258.9806,64,45,0
258.9806,259.13828,68,45,0
259.13828,259.29758,64,48,0
259.29758,259.45312,61,45,0
259.45312,259.60962,64,45,0
259.60962,259.76703,69,45,0
259.76703,259.92535,63,47,0
259.92535,260.08002,59,45,0
260.08002,260.23557,63,45,0
260.23557,260.39206,69,45,0
260.39206,260.54947,63,47,0
260.54947,260.70502,59,45,0
260.70502,260.8615,63,45,0
260.8615,261.01904,68,45,0
261.01904,261.17767,68,49,0
261.17767,261.33246,61,47,0
261.33246,261.48813,68,47,0
261.48813,261.64487,73,47,0
261.64487,261.80267,66,49,0
261.80267,261.9581,63,47,0
261.9581,262.11444,66,47,0
262.11444,262.2716,73,47,0
262.2716,262.42813,68,50,0
262.42813,262.58292,64,47,0
262.58292,262.73874,68,47,0
262.73874,262.89548,73,47,0
262.89548,263.05356,68,49,0
263.05356,263.20834,64,48,0
263.20834,263.36404,68,48,0
263.36404,263.52078,71,48,0
263.52078,263.6786,67,54,0
263.6786,263.83362,64,47,0
263.83362,263.99023,67,48,0
263.99023,264.14844,70,50,0
264.14844,264.30844,76,52,0
264.30844,264.46335,70,48,0
264.46335,264.6193,76,49,0
264.6193,264.77658,79,51,0
264.77658,264.9349,75,51,0
264.9349,265.0888,79,49,0
265.0888,265.24332,75,50,0
265.24332,265.39862,78,48,0
265.39862,265.5547,69,49,0
265.5547,265.71158,76,48,0
265.71158,265.86923,69,49,0
265.86923,266.02774,75,48,0
266.02774,266.187,69,47,0
266.187,266.34702,78,44,0
266.34702,266.50784,68,47,0
266.50784,266.6695,76,44,0
266.6695,266.832,64,46,0
266.832,266.99536,73,44,0
266.99536,267.1596,61,45,0
267.1596,267.3247,69,44,0
267.3247,267.4826,59,45,0
267.4826,267.6405,68,44,0
267.6405,267.79837,64,45,0
267.79837,267.95627,71,44,0
267.95627,268.1148,59,45,0
268.1148,268.27286,69,44,0
268.27286,268.42966,63,45,0
268.42966,268.58548,71,44,0
268.7404,268.89423,63,43,0
268.89423,269.0481,59,43,0
268.58548,269.0481,69,45,0
269.0481,269.20273,69,45,0
269.20273,269.35776,68,45,0
269.35776,269.51334,59,42,0
269.51334,269.6669,64,44,0
269.6669,269.82037,66,45,0
269.82037,269.97495,68,47,0
269.97495,270.12796,64,43,0
270.12796,270.28183,68,45,0
270.28183,270.4362,76,44,0
270.4362,270.59357,68,47,0
270.59357,270.75095,75,44,0
270.75095,270.90833,68,48,0
270.90833,271.0657,73,44,0
271.0657,271.2241,69,48,0
271.2241,271.378,61,44,0
271.378,271.53235,69,46,0
271.53235,271.68723,73,46,0
271.68723,271.84256,68,47,0
271.84256,271.99582,71,43,0
271.99582,272.14996,66,45,0
272.14996,272.30493,69,43,0
272.30493,272.483,64,45,0
272.483,272.6588,56,43,0
272.6588,272.8352,64,43,0
272.8352,273.01218,68,43,0
273.01218,273.18967,61,45,0
273.18967,273.36548,55,40,0
273.36548,273.54218,61,41,0
273.54218,273.7197,69,41,0
273.7197,273.91,63,43,0
273.91,274.0976,54,39,0
274.0976,274.2852,63,39,0
274.2852,274.4728,68,39,0
274.4728,274.6604,63,42,0
274.6604,274.848,54,38,0
274.848,275.03558,63,38,0
275.03558,275.22318,68,38,0
275.22318,275.399,61,38,0
275.399,275.5748,52,35,0
275.5748,275.7506,61,35,0
275.7506,275.9264,64,35,0
276.62964,276.80545,61,38,0
276.80545,276.98126,52,34,0
276.98126,277.15707,61,34,0
277.15707,277.3329,64,34,0
278.0361,278.19073,62,38,0
278.19073,278.3454,57,36,0
278.3454,278.50003,62,36,0
278.50003,278.65466,66,36,0
278.65466,278.8089,66,35,0
278.8089,278.96475,69,39,0
278.96475,279.1218,74,42,0
279.1218,279.29022,78,46,0
279.45874,279.6273,74,36,0
279.29022,279.6273,81,49,0
279.6273,279.79584,69,37,0
279.79584,279.96436,71,37,0
279.6273,279.96436,78,44,0
279.96436,280.1329,73,35,0
280.1329,280.30145,68,35,0
279.96436,280.30145,76,42,0
280.30145,280.46997,72,35,0
280.46997,280.63852,68,35,0
280.30145,280.63852,75,40,0
280.63852,280.79642,73,38,0
280.79642,280.9543,64,34,0
280.9543,281.1122,73,34,0
281.1122,281.2701,76,34,0
281.90167,282.05957,73,38,0
282.05957,282.21747,64,33,0
282.21747,282.37537,73,33,0
282.37537,282.53326,76,33,0
283.16483,283.31635,74,38,0
283.31635,283.46786,69,39,0
283.46786,283.6194,74,44,0
283.6194,283.7709,78,49,0
283.7709,283.9228,81,55,0
283.9228,284.0761,78,53,0
284.0761,284.2309,74,50,0
284.2309,284.40384,69,47,0
284.40384,284.5714,68,44,0
284.5714,284.739,76,43,0
284.739,284.90662,64,47,0
284.90662,285.07422,73,42,0
285.07422,285.24664,66,46,0
285.24664,285.41904,75,41,0
285.41904,285.59146,63,44,0
285.59146,285.7639,72,40,0
285.7639,285.95496,64,46,0
285.95496,286.14603,73,37,0
286.14603,286.33713,64,37,0
286.14603,286.33713,61,37,0
286.33713,286.5282,68,30,0
286.5282,286.77014,66,32,0
286.5282,286.77014,63,32,0
286.77014,287.0121,68,26,0
287.0121,287.27728,63,28,0
287.0121,287.27728,60,28,0
287.27728,287.5794,68,24,0
289.53064,289.76874,65,25,0
289.76874,290.00684,68,25,0
290.00684,291.00684,70,21,0
290.00684,291.00684,66,18,0
291.00684,291.54736,68,19,0
291.00684,291.54736,65,16,0
291.54736,291.81763,65,25,0
291.81763,292.17477,68,25,0
292.17477,293.50674,73,24,0
292.17477,293.50674,70,20,0
292.17477,293.50674,66,20,0
293.50674,295.00674,68,22,0
293.50674,295.00674,65,16,0
295.00674,298.00674,68,21,0
295.00674,298.00674,65,17,0
1.1739005,1.3218002,49,54,0
1.4671048,1.6131331,56,50,0
1.7599068,1.9074409,49,54,0
2.0522895,2.1974747,57,50,0
2.343596,2.4905355,48,54,0
2.63584,2.7818682,57,51,0
2.9286203,3.0761278,48,54,0
3.2211957,3.366733,56,50,0
3.5127382,3.6593256,49,55,0
3.8040555,3.9496186,56,51,0
4.0960174,4.243291,52,55,0
4.3883586,4.5338964,56,52,0
4.6800175,4.826722,51,56,0
4.971106,5.1161737,57,52,0
5.261946,5.4084163,51,55,0
5.5553355,5.7012224,56,52,0
5.8479657,5.9955945,49,56,0
6.140508,6.2861533,61,50,0
6.4325233,6.57964,49,55,0
6.7240705,6.869228,59,51,0
7.0153565,7.1638966,54,57,0
7.309953,7.45601,57,56,0
7.602066,7.7481227,54,57,0
7.8941793,8.0402355,57,54,0
8.186292,8.331205,45,58,0
8.476903,8.623369,54,54,0
8.770623,8.918665,44,56,0
9.067507,9.217278,56,54,0
9.371246,9.517491,49,54,0
9.664746,9.813242,51,54,0
9.96278,10.1134815,52,55,0
10.265478,10.418565,56,56,0
10.57287,10.729873,49,51,0
10.878284,11.027179,56,47,0
11.176553,11.326046,49,51,0
11.473873,11.622406,57,47,0
11.771541,11.920676,47,51,0
12.068503,12.217156,57,48,0
12.366649,12.516971,47,51,0
12.665382,12.814277,56,47,0
12.963769,13.113854,52,52,0
13.261565,13.409977,56,48,0
13.559113,13.709081,45,52,0
13.857492,14.006387,57,49,0
14.15576,14.305728,44,51,0
14.452859,14.600803,59,49,0
14.749698,14.897408,56,52,0
15.045703,15.194597,59,49,0
15.3440895,15.494293,49,52,0
15.642544,15.791546,52,47,0
15.941277,16.091772,48,52,0
16.239529,16.38803,58,44,0
16.537518,16.685226,47,48,0
16.833523,16.982416,59,45,0
17.131908,17.282112,48,48,0
17.432919,17.584341,54,43,0
17.736504,17.889284,49,45,0
18.042814,18.196978,52,39,0
18.351776,18.507359,45,46,0
18.663584,18.820461,54,40,0
18.97776,19.134829,47,46,0
19.290943,19.446117,56,43,0
19.600492,19.753946,47,45,0
19.906488,20.058132,57,41,0
20.209013,20.358889,47,46,0
20.507896,20.657026,54,39,0
20.80628,20.955534,52,47,0
21.104166,21.250904,54,41,0
21.399246,21.55153,56,45,0
21.704592,21.858438,59,36,0
22.012283,22.163038,56,34,0
22.313791,22.464546,64,31,0
22.6153,22.77692,57,45,0
22.934565,23.09271,45,40,0
23.251358,23.41051,47,41,0
23.567537,23.725431,49,42,0
23.884205,24.043865,47,45,0
24.201511,24.359655,52,39,0
24.518303,24.677454,47,43,0
24.8351,24.993496,55,41,0
25.152647,25.316742,47,41,0
25.478502,25.640263,52,39,0
25.802023,25.963783,47,41,0
26.125542,26.287302,51,37,0
26.449062,26.758596,52,48,0
27.068129,27.222897,47,48,0
27.222897,27.377663,40,44,0
27.377663,27.532429,47,44,0
27.532429,27.687197,52,45,0
28.306263,28.461031,47,48,0
28.461031,28.615797,40,44,0
28.615797,28.770563,47,44,0
28.770563,28.925331,54,44,0
29.552158,29.709124,52,46,0
29.709124,29.867102,56,47,0
29.867102,30.0261,59,52,0
30.0261,30.200447,64,56,0
30.200447,30.515242,64,58,0
30.515242,30.830038,61,55,0
30.830038,31.144833,60,52,0
31.144833,31.45963,59,49,0
31.45963,31.765066,57,46,0
32.070503,32.22322,52,48,0
32.22322,32.37594,45,44,0
32.37594,32.528656,52,44,0
32.528656,32.681377,57,44,0
33.29225,33.44497,52,48,0
33.44497,33.597687,45,41,0
33.597687,33.750404,52,41,0
33.750404,33.903126,59,41,0
34.514,34.66624,57,44,0
34.66624,34.819706,61,49,0
34.819706,34.9744,64,54,0
34.9744,35.152588,69,59,0
35.152588,35.463116,69,62,0
35.463116,35.773643,66,51,0
35.773643,36.08417,71,51,0
36.08417,36.3947,59,51,0
36.08417,36.3947,69,51,0
36.721485,37.055798,54,62,0
37.055798,37.39655,52,71,0
37.39655,37.74352,51,78,0
36.721485,37.74352,56,62,0
37.74352,37.9021,49,85,0
38.060677,38.219257,48,77,0
38.37784,38.536415,49,76,0
38.694996,38.8479,52,76,0
39.001328,39.15528,48,82,0
39.309895,39.46517,51,76,0
39.621124,39.77763,56,76,0
39.934826,40.086956,48,76,0
40.23973,40.393288,49,80,0
40.547504,40.70252,51,76,0
40.8582,41.014706,52,76,0
41.171764,41.323895,49,76,0
41.4768,41.630486,51,76,0
41.7851,41.940514,57,83,0
42.09674,42.2538,56,81,0
42.411682,42.563812,54,76,0
42.716717,42.870407,52,74,0
43.02502,43.180435,51,76,0
43.33666,43.493717,49,79,0
43.651882,43.804787,47,80,0
43.958473,44.113087,45,84,0
44.2685,44.346546,42,78,0
44.42473,44.50319,44,78,0
44.581924,44.73995,45,83,0
44.89895,45.05108,42,79,0
45.203205,45.356113,44,85,0
45.509148,45.58599,42,80,0
45.662838,45.73968,40,80,0
45.816658,45.971138,39,85,0
46.125885,46.281162,44,80,0
46.436443,46.589348,37,88,0
46.743168,47.053463,44,70,0
47.053463,47.36744,46,58,0
47.36744,47.68502,48,48,0
47.68502,48.00533,49,40,0
48.00533,48.31935,52,37,0
48.31935,48.63421,51,38,0
48.63421,48.948093,49,37,0
48.948093,49.261097,47,40,0
49.261097,49.57313,51,38,0
49.57313,49.886093,56,40,0
49.886093,50.200115,47,37,0
50.200115,50.513515,45,41,0
50.513515,50.825943,49,38,0
50.825943,51.13918,47,38,0
51.13918,51.452663,45,39,0
51.452663,51.763992,44,40,0
51.763992,52.076557,47,39,0
52.076557,52.38942,52,41,0
52.38942,52.701847,44,39,0
52.701847,53.014698,40,41,0
53.014698,53.171307,52,37,0
53.171307,53.329517,51,37,0
53.329517,53.644413,49,36,0
53.644413,53.957638,48,38,0
53.957638,54.269863,47,43,0
54.269863,54.579685,54,39,0
54.579685,54.892643,59,47,0
54.892643,55.208797,47,34,0
55.208797,55.528084,48,36,0
55.528084,55.85056,49,31,0
55.85056,56.17643,44,36,0
56.17643,56.50577,45,32,0
56.50577,56.821564,47,36,0
56.821564,57.137352,56,34,0
57.137352,57.452396,47,36,0
57.452396,57.762035,57,32,0
57.762035,58.067142,47,36,0
58.067142,58.374687,54,31,0
58.374687,58.68618,52,37,0
58.68618,58.839912,49,32,0
58.839912,58.993362,51,32,0
58.993362,59.30096,52,36,0
59.30096,59.609184,56,33,0
59.609184,59.923946,53,36,0
59.923946,60.23871,61,33,0
60.23871,60.55098,54,36,0
60.55098,60.860218,42,32,0
60.860218,61.168823,44,32,0
61.168823,61.477936,45,33,0
61.477936,61.83182,44,36,0
61.83182,62.185165,49,31,0
62.185165,62.53849,44,34,0
62.53849,62.892685,52,32,0
62.892685,63.270607,44,32,0
63.270607,63.645798,49,31,0
63.645798,64.02098,44,32,0
64.02098,64.39617,48,29,0
64.39617,64.74779,49,38,0
65.0994,65.275215,44,38,0
65.275215,65.45103,37,35,0
65.45103,65.62683,44,35,0
65.62683,65.80264,49,36,0
65.80264,66.15426,45,38,0
66.505875,66.68169,40,38,0
66.68169,66.85749,33,35,0
66.85749,67.0333,40,35,0
67.0333,67.209114,45,35,0
67.209114,67.51183,42,38,0
67.81456,67.96617,50,36,0
67.96617,68.11875,54,37,0
68.11875,68.2723,57,41,0
68.2723,68.4407,62,44,0
68.4407,68.77778,66,46,0
68.77778,69.11485,62,44,0
68.77778,69.11485,54,44,0
69.11485,69.451935,64,41,0
69.11485,69.451935,56,41,0
69.451935,69.78902,66,39,0
69.451935,69.78902,56,39,0
69.78902,69.937515,64,36,0
69.78902,70.09893,61,36,0
70.40885,70.563805,56,38,0
70.563805,70.718765,49,35,0
70.718765,70.873726,56,35,0
70.873726,71.02869,61,35,0
71.02869,71.3386,57,36,0
71.64852,71.803474,52,38,0
71.803474,71.958435,45,32,0
71.958435,72.113396,52,32,0
72.113396,72.26836,57,32,0
72.26836,72.5648,54,38,0
72.5648,72.71302,57,41,0
72.71302,72.86124,62,47,0
72.86124,73.009,66,53,0
73.009,73.15794,62,50,0
73.15794,73.30807,57,48,0
73.30807,73.481,54,46,0
73.481,73.80887,56,44,0
73.80887,74.13674,56,40,0
74.13674,74.46461,56,40,0
74.46461,74.79247,56,40,0
74.79247,75.16747,56,39,0
75.16747,75.54247,44,37,0
75.54247,75.953606,44,32,0
75.953606,76.394135,44,29,0
78.34535,78.75445,61,22,0
78.34535,78.75445,56,22,0
78.34535,78.75445,49,22,0
78.75445,79.57636,61,20,0
78.75445,79.57636,56,20,0
78.75445,79.57636,49,20,0
79.57636,79.86857,61,18,0
79.57636,79.86857,56,18,0
79.57636,79.86857,49,18,0
79.96597,80.37057,61,19,0
79.96597,80.37057,56,19,0
79.96597,80.37057,49,19,0
80.37057,81.19249,61,20,0
80.37057,81.19249,56,20,0
80.37057,81.19249,49,20,0
81.19249,81.484695,61,18,0
81.19249,81.484695,56,18,0
81.19249,81.484695,49,18,0
81.5821,81.97171,60,19,0
81.5821,81.97171,56,19,0
81.97171,82.771706,60,19,0
81.97171,82.771706,56,19,0
82.771706,83.15633,60,25,0
82.771706,83.15633,56,25,0
83.15633,83.54094,61,25,0
83.15633,83.54094,56,25,0
83.15633,83.54094,49,25,0
83.54094,84.340935,61,26,0
83.54094,84.340935,56,26,0
83.54094,84.340935,49,26,0
84.340935,84.649155,61,22,0
84.340935,84.649155,56,22,0
84.340935,84.649155,49,22,0
84.7519,85.1269,61,22,0
84.7519,85.1269,56,22,0
84.7519,85.1269,49,22,0
85.1269,85.91121,61,21,0
85.1269,85.91121,56,21,0
85.1269,85.91121,49,21,0
85.91121,86.19423,61,21,0
85.91121,86.19423,56,21,0
85.91121,86.19423,49,21,0
86.28857,86.69308,61,23,0
86.28857,86.69308,56,23,0
86.28857,86.69308,49,23,0
86.69308,87.48255,61,21,0
86.69308,87.48255,56,21,0
86.69308,87.48255,49,21,0
87.48255,87.76557,61,19,0
87.48255,87.76557,56,19,0
87.48255,87.76557,49,19,0
87.85991,88.23727,60,25,0
87.85991,88.23727,56,25,0
88.23727,88.98735,60,28,0
88.23727,88.98735,56,28,0
88.98735,89.35545,60,24,0
88.98735,89.35545,56,24,0
89.35545,89.72355,61,25,0
89.35545,89.72355,56,25,0
89.35545,89.72355,49,25,0
89.72355,90.97008,56,25,0
89.72355,90.97355,61,25,0
89.72355,90.97355,49,25,0
90.97355,91.37355,44,40,0
90.97355,91.37355,32,40,0
91.37355,92.18988,44,42,0
91.37355,92.18988,37,42,0
92.18988,92.57949,44,36,0
92.18988,92.57949,32,36,0
92.57949,92.97423,44,37,0
92.57949,92.97423,32,37,0
92.97423,93.785034,44,45,0
92.97423,93.785034,37,45,0
93.785034,94.1672,44,40,0
93.785034,94.1672,32,40,0
94.1672,94.569885,44,46,0
94.1672,94.569885,32,46,0
94.569885,95.62252,44,49,0
94.569885,95.62252,37,49,0
95.62252,96.24107,44,36,0
95.62252,96.24107,32,36,0
96.24107,96.95536,47,21,0
96.24107,96.95536,42,21,0
96.95536,98.8501,47,21,0
96.95536,98.8501,40,21,0
98.8501,99.266556,61,18,0
98.8501,99.266556,56,18,0
98.8501,99.266556,49,18,0
99.266556,100.106544,61,18,0
99.266556,100.106544,56,18,0
99.266556,100.106544,49,18,0
100.106544,100.39875,61,15,0
100.106544,100.39875,56,15,0
100.106544,100.39875,49,15,0
100.496155,100.89929,61,18,0
100.496155,100.89929,56,18,0
100.496155,100.89929,49,18,0
100.89929,101.7101,61,18,0
100.89929,101.7101,56,18,0
100.89929,101.7101,49,18,0
101.7101,101.98788,61,15,0
101.7101,101.98788,56,15,0
101.7101,101.98788,49,15,0
102.080475,102.45084,60,18,0
102.080475,102.45084,56,18,0
102.45084,103.22007,60,18,0
102.45084,103.22007,56,18,0
103.22007,103.60469,60,18,0
103.22007,103.60469,56,18,0
103.60469,103.986855,61,20,0
103.60469,103.986855,56,20,0
103.60469,103.986855,49,20,0
103.986855,104.77633,61,21,0
103.986855,104.77633,56,21,0
103.986855,104.77633,49,21,0
104.77633,105.06295,61,18,0
104.77633,105.06295,56,18,0
104.77633,105.06295,49,18,0
105.15849,105.549576,61,18,0
105.15849,105.549576,56,18,0
105.15849,105.549576,49,18,0
105.549576,106.3288,61,18,0
105.549576,106.3288,56,18,0
105.549576,106.3288,49,18,0
106.3288,106.61182,61,18,0
106.3288,106.61182,56,18,0
106.3288,106.61182,49,18,0
106.706154,107.09483,61,18,0
106.706154,107.09483,56,18,0
106.706154,107.09483,49,18,0
107.09483,107.869026,61,18,0
107.09483,107.869026,56,18,0
107.09483,107.869026,49,18,0
107.869026,108.146805,61,17,0
107.869026,108.146805,56,17,0
107.869026,108.146805,49,17,0
108.2394,108.621956,60,20,0
108.2394,108.621956,56,20,0
108.621956,109.3796,60,22,0
108.621956,109.3796,56,22,0
109.3796,109.74104,60,19,0
109.3796,109.74104,56,19,0
109.74104,110.10249,61,20,0
109.74104,110.10249,56,20,0
109.74104,110.10249,49,20,0
110.10249,111.37627,56,21,0
110.10249,111.379814,61,21,0
110.10249,111.379814,49,21,0
111.379814,111.77033,44,30,0
111.379814,111.77033,32,30,0
111.77033,112.57711,44,32,0
111.77033,112.57711,37,32,0
112.57711,112.967636,44,27,0
112.57711,112.967636,32,27,0
112.967636,113.35816,44,30,0
112.967636,113.35816,32,30,0
113.35816,114.15286,44,34,0
113.35816,114.15286,37,34,0
114.15286,114.54339,44,30,0
114.15286,114.54339,32,30,0
114.54339,114.93391,44,34,0
114.54339,114.93391,32,34,0
114.93391,115.942314,44,36,0
114.93391,115.942314,37,36,0
115.942314,116.53637,44,31,0
115.942314,116.53637,32,31,0
116.53637,117.33637,47,19,0
116.53637,117.33637,42,19,0
117.33637,118.659904,47,19,0
117.33637,118.659904,40,19,0
118.659904,119.03027,52,45,0
118.659904,119.03027,40,45,0
119.03027,119.77101,47,48,0
119.03027,119.77101,35,48,0
119.77101,120.12189,52,46,0
119.77101,120.12189,40,46,0
120.12189,120.47276,52,50,0
120.12189,120.47276,40,50,0
120.47276,121.19133,47,53,0
120.47276,121.19133,35,53,0
121.19133,121.53419,52,50,0
121.19133,121.53419,40,50,0
121.53419,121.877045,47,54,0
121.53419,121.877045,35,54,0
121.877045,122.59133,49,58,0
121.877045,122.59133,37,58,0
122.59133,122.932236,45,60,0
122.59133,122.932236,33,60,0
122.932236,123.27906,47,57,0
122.932236,123.27906,35,57,0
123.27906,123.94171,47,54,0
123.27906,123.94171,40,54,0
124.00195,124.34481,59,45,0
124.34481,124.68767,59,39,0
124.34481,124.68767,63,39,0
124.68767,125.39355,63,48,0
124.68767,125.39355,59,48,0
125.39355,125.73446,63,48,0
125.39355,125.73446,59,48,0
125.73446,126.07536,59,53,0
125.73446,126.07536,64,53,0
126.07536,126.77304,64,54,0
126.07536,126.77304,59,54,0
126.77304,127.110115,64,47,0
126.77304,127.110115,59,47,0
127.110115,127.4472,59,51,0
127.110115,127.4472,63,51,0
127.4472,128.1329,63,54,0
127.4472,128.1329,59,54,0
128.1329,128.46625,66,51,0
128.1329,128.46625,59,51,0
128.46625,128.79958,52,53,0
128.46625,128.79958,59,53,0
128.46625,128.79958,64,53,0
128.79958,129.48636,64,53,0
128.79958,129.48636,59,53,0
128.79958,129.48923,52,53,0
129.48923,129.83406,52,47,0
129.48923,129.83406,40,47,0
129.83406,130.1789,52,56,0
129.83406,130.1789,40,56,0
130.1789,130.88065,47,61,0
130.1789,130.88065,35,61,0
130.88065,131.22156,52,59,0
130.88065,131.22156,40,59,0
131.22156,131.56245,52,64,0
131.22156,131.56245,40,64,0
131.56245,132.26013,47,67,0
131.56245,132.26013,35,67,0
132.26013,132.60896,52,64,0
132.26013,132.60896,40,64,0
132.60896,132.99858,47,69,0
132.60896,132.99858,35,69,0
132.99858,133.79836,49,73,0
132.99858,133.79836,37,73,0
133.79836,134.20383,42,61,0
133.79836,134.20383,57,72,0
133.79836,134.20383,54,61,0
133.79836,134.20383,30,61,0
134.20383,134.62802,44,61,0
134.20383,134.62802,32,61,0
134.20383,134.62802,54,72,0
134.62802,135.50104,44,58,0
134.62802,135.50104,37,58,0
134.62802,135.50104,53,69,0
135.5804,136.02486,61,28,0
135.5804,136.02486,56,28,0
136.02486,136.4693,56,29,0
136.02486,136.4693,60,29,0
136.4693,137.2801,56,28,0
136.4693,137.2801,60,28,0
137.2801,137.66972,56,24,0
137.2801,137.66972,60,24,0
137.66972,138.05933,56,26,0
137.66972,138.05933,61,26,0
138.05933,138.85933,56,28,0
138.05933,138.85933,61,28,0
138.85933,139.24893,56,26,0
138.85933,139.24893,61,26,0
139.24893,139.63855,56,28,0
139.24893,139.63855,60,28,0
139.63855,140.44936,56,25,0
139.63855,140.44936,60,25,0
140.44936,140.91447,56,25,0
140.44936,140.91447,62,25,0
140.91447,141.48051,56,26,0
140.91447,141.48051,63,26,0
141.48051,144.05194,56,23,0
141.48051,144.05194,63,23,0
144.05194,144.47362,61,16,0
144.05194,144.47362,56,16,0
144.05194,144.47362,49,16,0
144.47362,145.31279,61,18,0
144.47362,145.31279,56,18,0
144.47362,145.31279,49,18,0
145.31279,145.61278,61,15,0
145.31279,145.61278,56,15,0
145.31279,145.61278,49,15,0
145.71278,146.1024,61,18,0
145.71278,146.1024,56,18,0
145.71278,146.1024,49,18,0
146.1024,146.94156,61,18,0
146.1024,146.94156,56,18,0
146.1024,146.94156,49,18,0
146.94156,147.23376,61,16,0
146.94156,147.23376,56,16,0
146.94156,147.23376,49,16,0
147.33116,147.70853,60,20,0
147.33116,147.70853,56,20,0
147.70853,148.48775,60,22,0
147.70853,148.48775,56,22,0
148.48775,148.8675,60,20,0
148.48775,148.8675,56,20,0
148.8675,149.24724,61,20,0
148.8675,149.24724,56,20,0
148.8675,149.24724,49,20,0
149.24724,150.04195,61,21,0
149.24724,150.04195,56,21,0
149.24724,150.04195,49,21,0
150.04195,150.33415,61,18,0
150.04195,150.33415,56,18,0
150.04195,150.33415,49,18,0
150.43155,150.82117,61,18,0
150.43155,150.82117,56,18,0
150.43155,150.82117,49,18,0
150.82117,151.62653,61,19,0
150.82117,151.62653,56,19,0
150.82117,151.62653,49,19,0
151.62653,151.91873,61,17,0
151.62653,151.91873,56,17,0
151.62653,151.91873,49,17,0
152.01614,152.40575,61,18,0
152.01614,152.40575,56,18,0
152.01614,152.40575,49,18,0
152.40575,153.20575,61,18,0
152.40575,153.20575,56,18,0
152.40575,153.20575,49,18,0
153.20575,153.49237,61,17,0
153.20575,153.49237,56,17,0
153.20575,153.49237,49,17,0
153.58792,153.97008,60,20,0
153.58792,153.97008,56,20,0
153.97008,154.75414,60,22,0
153.97008,154.75414,56,22,0
154.75414,155.12222,60,19,0
154.75414,155.12222,56,19,0
155.12222,155.49033,61,20,0
155.12222,155.49033,56,20,0
155.12222,155.49033,49,20,0
155.49033,157.05554,61,21,0
155.49033,157.05554,56,21,0
155.49033,157.05554,49,21,0
157.05554,157.24188,53,35,0
157.24188,157.42822,57,35,0
157.05554,157.42822,41,32,0
157.05554,157.42822,29,32,0
157.42822,158.20744,41,34,0
157.42822,158.20744,58,38,0
157.42822,158.20744,49,38,0
157.42822,158.20744,53,38,0
157.42822,158.20744,34,34,0
158.20744,158.58011,41,29,0
158.20744,158.58011,57,31,0
158.20744,158.58011,48,31,0
158.20744,158.58011,53,31,0
158.20744,158.58011,29,29,0
158.58011,158.76645,53,39,0
158.76645,158.95277,57,39,0
158.58011,158.95277,41,32,0
158.58011,158.95277,29,32,0
158.95277,159.74225,41,36,0
158.95277,159.74225,53,43,0
158.95277,159.74225,61,43,0
158.95277,159.74225,58,43,0
158.95277,159.74225,34,36,0
159.74225,160.12123,57,36,0
159.74225,160.12123,60,36,0
159.74225,160.12442,29,32,0
159.74225,160.12442,53,36,0
159.74225,160.12442,41,32,0
160.12442,160.59686,41,36,0
160.12442,160.59686,29,36,0
160.59686,161.46643,41,38,0
160.59686,161.46643,34,38,0
161.46643,161.96643,41,33,0
161.46643,161.96643,29,33,0
161.96643,162.61159,44,21,0
161.96643,162.61159,39,21,0
163.90192,164.26118,52,45,0
162.61159,164.26118,37,21,0
162.61159,164.26118,44,21,0
163.90192,164.26118,40,45,0
164.26118,164.62047,52,45,0
164.26118,164.62047,40,45,0
164.62047,165.3612,47,48,0
164.62047,165.3612,35,48,0
165.3612,165.7121,52,46,0
165.3612,165.7121,40,46,0
165.7121,166.06297,52,50,0
165.7121,166.06297,40,50,0
166.06297,166.78152,47,53,0
166.06297,166.78152,35,53,0
166.78152,167.12439,52,50,0
166.78152,167.12439,40,50,0
167.12439,167.46724,47,54,0
167.12439,167.46724,35,54,0
167.46724,168.18153,49,58,0
167.46724,168.18153,37,58,0
168.18153,168.52245,45,60,0
168.18153,168.52245,33,60,0
168.52245,168.86926,47,57,0
168.52245,168.86926,35,57,0
168.86926,169.5319,47,54,0
168.86926,169.5319,40,54,0
169.59215,169.93114,59,45,0
169.93114,170.27011,59,39,0
169.93114,170.27011,63,39,0
170.27011,170.976,63,48,0
170.27011,170.976,59,48,0
170.976,171.3112,63,48,0
170.976,171.3112,59,48,0
171.3112,171.6464,59,53,0
171.3112,171.6464,64,53,0
171.6464,172.3321,64,54,0
171.6464,172.3321,59,54,0
172.3321,172.65997,64,47,0
172.3321,172.65997,59,47,0
172.65997,172.98784,59,51,0
172.65997,172.98784,63,51,0
172.98784,173.65083,63,54,0
172.98784,173.65083,59,54,0
173.65083,173.97691,66,51,0
173.65083,173.97691,59,51,0
173.97691,174.303,52,53,0
173.97691,174.303,59,53,0
173.97691,174.303,64,53,0
174.303,174.98978,64,53,0
174.303,174.98978,59,53,0
174.303,174.99266,52,53,0
174.99266,175.33748,52,47,0
174.99266,175.33748,40,47,0
175.33748,175.68231,52,63,0
175.33748,175.68231,40,63,0
175.68231,176.38406,47,68,0
175.68231,176.38406,35,68,0
176.38406,176.72498,52,66,0
176.38406,176.72498,40,66,0
176.72498,177.06589,52,72,0
176.72498,177.06589,40,72,0
177.06589,177.76355,47,75,0
177.06589,177.76355,35,75,0
177.76355,178.1124,52,72,0
177.76355,178.1124,40,72,0
178.1124,178.502,47,77,0
178.1124,178.502,35,77,0
178.502,179.30315,49,82,0
178.502,179.30315,37,82,0
179.30315,179.72427,42,68,0
179.30315,179.72427,57,85,0
179.30315,179.72427,54,68,0
179.30315,179.72427,30,68,0
179.72427,180.1623,44,68,0
179.72427,180.1623,32,68,0
179.72427,180.1623,54,85,0
180.1623,181.11057,44,65,0
180.1623,181.11057,37,65,0
180.1623,181.11057,53,85,0
181.19678,181.65132,61,28,0
181.19678,181.65132,56,28,0
181.65132,182.10587,56,29,0
181.65132,182.10587,60,29,0
182.10587,182.91669,56,28,0
182.10587,182.91669,60,28,0
182.91669,183.30629,56,24,0
182.91669,183.30629,60,24,0
183.30629,183.6959,56,26,0
183.30629,183.6959,61,26,0
183.6959,184.4959,56,28,0
183.6959,184.4959,61,28,0
184.4959,184.88551,56,26,0
184.4959,184.88551,61,26,0
184.88551,185.27512,56,28,0
184.88551,185.27512,60,28,0
185.27512,186.08594,56,25,0
185.27512,186.08594,60,25,0
186.08594,186.57774,56,25,0
186.08594,186.57774,62,25,0
186.57774,187.14377,56,26,0
186.57774,187.14377,63,26,0
187.14377,189.71521,56,23,0
187.14377,189.71521,63,23,0
189.71521,190.1248,61,16,0
189.71521,190.1248,56,16,0
189.71521,190.1248,49,16,0
190.1248,190.96396,61,18,0
190.1248,190.96396,56,18,0
190.1248,190.96396,49,18,0
190.96396,191.26396,61,15,0
190.96396,191.26396,56,15,0
190.96396,191.26396,49,15,0
191.36397,191.75357,61,18,0
191.36397,191.75357,56,18,0
191.36397,191.75357,49,18,0
191.75357,192.59274,61,18,0
191.75357,192.59274,56,18,0
191.75357,192.59274,49,18,0
192.59274,192.87755,61,16,0
192.59274,192.87755,56,16,0
192.59274,192.87755,49,16,0
192.97249,193.36209,60,20,0
192.97249,193.36209,56,20,0
193.36209,194.14131,60,22,0
193.36209,194.14131,56,22,0
194.14131,194.52106,60,20,0
194.14131,194.52106,56,20,0
194.52106,194.89143,61,20,0
194.52106,194.89143,56,20,0
194.52106,194.89143,49,20,0
194.89143,195.68613,61,21,0
194.89143,195.68613,56,21,0
194.89143,195.68613,49,21,0
195.68613,195.97835,61,18,0
195.68613,195.97835,56,18,0
195.68613,195.97835,49,18,0
196.07574,196.46536,61,18,0
196.07574,196.46536,56,18,0
196.07574,196.46536,49,18,0
196.46536,197.27072,61,19,0
196.46536,197.27072,56,19,0
196.46536,197.27072,49,19,0
197.27072,197.56293,61,17,0
197.27072,197.56293,56,17,0
197.27072,197.56293,49,17,0
197.66034,198.04994,61,18,0
197.66034,198.04994,56,18,0
197.66034,198.04994,49,18,0
198.04994,198.84995,61,18,0
198.04994,198.84995,56,18,0
198.04994,198.84995,49,18,0
198.84995,199.13657,61,17,0
198.84995,199.13657,56,17,0
198.84995,199.13657,49,17,0
199.23212,199.61427,60,20,0
199.23212,199.61427,56,20,0
199.61427,200.4006,60,22,0
199.61427,200.4006,56,22,0
200.4006,200.77328,60,19,0
200.4006,200.77328,56,19,0
200.77328,201.14595,61,20,0
200.77328,201.14595,56,20,0
200.77328,201.14595,49,20,0
201.14595,202.79733,61,21,0
201.14595,202.79733,56,21,0
201.14595,202.79733,49,21,0
202.79733,202.98366,53,35,0
202.98366,203.17,57,35,0
202.79733,203.17,41,32,0
202.79733,203.17,29,32,0
203.17,203.94922,41,34,0
203.17,203.94922,58,38,0
203.17,203.94922,49,38,0
203.17,203.94922,53,38,0
203.17,203.94922,34,34,0
203.94922,204.3219,41,29,0
203.94922,204.3219,57,31,0
203.94922,204.3219,48,31,0
203.94922,204.3219,53,31,0
203.94922,204.3219,29,29,0
204.3219,204.50822,53,39,0
204.50822,204.69456,57,39,0
204.3219,204.69456,41,32,0
204.3219,204.69456,29,32,0
204.69456,205.48404,41,36,0
204.69456,205.48404,53,43,0
204.69456,205.48404,61,43,0
204.69456,205.48404,58,43,0
204.69456,205.48404,34,36,0
205.48404,205.86302,57,31,0
205.48404,205.86302,60,31,0
205.48404,205.86302,53,31,0
205.48404,205.8662,29,31,0
205.48404,205.8662,41,31,0
205.8662,206.37903,41,24,0
205.8662,206.37903,29,24,0
206.37903,207.30925,41,24,0
206.37903,207.30925,34,24,0
207.30925,207.90926,41,20,0
207.30925,207.90926,29,20,0
207.90926,208.75433,44,17,0
207.90926,208.75433,39,17,0
208.75433,211.98116,44,17,0
208.75433,211.98116,37,17,0
211.98116,212.13115,49,54,0
212.27646,212.42249,56,50,0
212.56929,212.71683,49,54,0
212.86168,213.00685,57,50,0
213.15298,213.29993,48,54,0
213.44522,213.59125,57,51,0
213.738,213.88551,48,54,0
214.03058,214.17612,56,50,0
214.32213,214.4687,49,55,0
214.61343,214.759,56,51,0
214.9054,215.05267,52,55,0
215.19774,215.34328,56,52,0
215.4894,215.63611,51,56,0
215.78049,215.92555,57,52,0
216.07133,216.2178,51,55,0
216.36472,216.5106,56,52,0
216.65735,216.80498,49,56,0
216.94989,217.09554,61,50,0
217.24191,217.38902,49,55,0
217.53345,217.67862,59,51,0
217.82474,217.97328,54,57,0
218.11934,218.2654,57,56,0
218.41145,218.55751,54,57,0
218.70357,218.84962,57,54,0
218.99568,219.1406,45,58,0
219.28629,219.43275,54,54,0
219.58,219.72804,44,56,0
219.87689,220.02666,56,54,0
220.18063,220.32687,49,54,0
220.47414,220.62262,51,54,0
220.77217,220.92287,52,55,0
221.07486,221.22795,56,56,0
221.38225,221.53926,49,51,0
221.68767,221.83656,56,47,0
221.98593,222.13544,49,51,0
222.28326,222.4318,57,47,0
222.58092,222.73006,47,51,0
222.87788,223.02654,57,48,0
223.17603,223.32635,47,51,0
223.47476,223.62366,56,47,0
223.77315,223.92323,52,52,0
224.07095,224.21936,56,48,0
224.3685,224.51846,45,52,0
224.66687,224.81577,57,49,0
224.96515,225.11511,44,51,0
225.26224,225.41019,59,49,0
225.55908,225.70679,56,52,0
225.85509,226.00398,59,49,0
226.15347,226.30368,49,52,0
226.45193,226.60094,52,47,0
226.75066,226.90115,48,52,0
227.0489,227.19742,58,44,0
227.3469,227.49461,47,48,0
227.64291,227.7918,59,45,0
227.9413,228.09149,48,48,0
228.2423,228.39372,54,43,0
228.54588,228.69867,49,45,0
228.8522,229.00636,52,39,0
229.16116,229.31674,45,46,0
229.47296,229.62985,54,40,0
229.78728,229.94504,47,46,0
230.10184,230.25768,56,43,0
230.41272,230.56683,47,45,0
230.72002,230.87231,57,41,0
231.0237,231.1742,47,46,0
231.32382,231.47308,54,39,0
231.62233,231.77234,52,47,0
231.9216,232.06914,54,41,0
232.21817,232.37045,56,45,0
232.52351,232.67737,59,36,0
232.8312,232.98196,56,34,0
233.13272,233.28348,64,31,0
233.43423,233.59584,57,45,0
233.7535,233.91164,45,40,0
234.07028,234.22943,47,41,0
234.38646,234.54436,49,42,0
234.70314,234.8628,47,45,0
235.02045,235.17859,52,39,0
235.33723,235.49638,47,43,0
235.65402,235.81242,55,41,0
235.97157,236.13567,47,41,0
236.29742,236.4592,52,39,0
236.62096,236.78271,47,41,0
236.94447,237.10623,51,37,0
237.26799,237.57753,52,48,0
237.88705,238.04182,47,48,0
238.04182,238.1966,40,44,0
238.1966,238.35136,47,44,0
238.35136,238.50612,52,45,0
239.1252,239.27995,47,48,0
239.27995,239.43472,40,44,0
239.43472,239.5895,47,44,0
239.5895,239.74426,54,44,0
240.3711,240.52805,52,46,0
240.52805,240.68604,56,47,0
240.68604,240.84503,59,52,0
240.84503,241.01938,64,56,0
241.01938,241.33417,64,58,0
241.33417,241.64897,61,55,0
241.64897,241.96376,60,52,0
241.96376,242.27855,59,49,0
242.27855,242.584,57,46,0
242.88943,243.04214,52,48,0
243.04214,243.19487,45,44,0
243.19487,243.34758,52,44,0
243.34758,243.5003,57,44,0
244.11118,244.2639,52,48,0
244.2639,244.41661,45,41,0
244.41661,244.56934,52,41,0
244.56934,244.72205,59,41,0
245.33293,245.48517,57,44,0
245.48517,245.63864,61,49,0
245.63864,245.79333,64,54,0
245.79333,245.97151,69,59,0
245.97151,246.28204,69,62,0
246.28204,246.59258,66,51,0
246.59258,246.90309,71,51,0
246.90309,247.21362,69,51,0
246.90309,247.21362,59,51,0
247.54042,247.87473,54,62,0
247.87473,248.21548,52,71,0
248.21548,248.56245,51,78,0
247.54042,248.56245,56,62,0
248.56245,248.72102,49,85,0
248.87961,249.0382,48,77,0
249.19676,249.35535,49,76,0
249.51393,249.66682,52,76,0
249.82025,249.97421,48,82,0
250.12881,250.2841,51,76,0
250.44005,250.59656,56,76,0
250.75375,250.90588,48,76,0
251.05865,251.21222,49,80,0
251.36644,251.52145,51,76,0
251.67712,251.83363,52,76,0
251.99069,252.14282,49,76,0
252.29573,252.44942,51,76,0
252.60403,252.75945,57,83,0
252.91566,253.07272,56,81,0
253.2306,253.38274,54,76,0
253.53564,253.68933,52,74,0
253.84395,253.99936,51,76,0
254.1556,254.31265,49,79,0
254.47081,254.62372,47,80,0
254.7774,254.93202,45,84,0
255.08743,255.16548,42,78,0
255.24365,255.32211,44,78,0
255.40085,255.55887,45,83,0
255.71788,255.87001,42,79,0
256.02213,256.17505,44,85,0
256.32806,256.4049,42,80,0
256.48175,256.5586,40,80,0
256.6356,256.79007,39,85,0
256.94482,257.1001,44,80,0
257.25537,257.40826,37,88,0
257.5621,257.8724,44,70,0
257.8724,258.18637,46,58,0
258.18637,258.50394,48,48,0
258.50394,258.82425,49,40,0
258.82425,259.13828,52,37,0
259.13828,259.45312,51,38,0
259.45312,259.76703,49,37,0
259.76703,260.08002,47,40,0
260.08002,260.39206,51,38,0
260.39206,260.70502,56,40,0
260.70502,261.01904,47,37,0
261.01904,261.33246,45,41,0
261.33246,261.64487,49,38,0
261.64487,261.9581,47,38,0
261.9581,262.2716,45,39,0
262.2716,262.58292,44,40,0
262.58292,262.89548,47,39,0
262.89548,263.20834,52,41,0
263.20834,263.52078,44,39,0
263.52078,263.83362,40,41,0
263.83362,263.99023,52,37,0
263.99023,264.14844,51,37,0
264.14844,264.46335,49,36,0
264.46335,264.77658,48,38,0
264.77658,265.0888,47,43,0
265.0888,265.39862,54,39,0
265.39862,265.71158,59,47,0
265.71158,266.02774,47,34,0
266.02774,266.34702,48,36,0
266.34702,266.6695,49,31,0
266.6695,266.99536,44,36,0
266.99536,267.3247,45,32,0
267.3247,267.6405,47,36,0
267.6405,267.95627,56,34,0
267.95627,268.27286,47,36,0
268.27286,268.58548,57,32,0
268.58548,268.89423,47,36,0
268.89423,269.20273,54,31,0
269.20273,269.51334,52,37,0
269.51334,269.6669,49,32,0
269.6669,269.82037,51,32,0
269.82037,270.12796,52,36,0
270.12796,270.4362,56,33,0
270.4362,270.75095,53,36,0
270.75095,271.0657,61,33,0
271.0657,271.378,54,36,0
271.378,271.68723,42,32,0
271.68723,271.99582,44,32,0
271.99582,272.30493,45,33,0
272.30493,272.6588,44,36,0
272.6588,273.01218,49,31,0
273.01218,273.36548,44,34,0
273.36548,273.7197,52,32,0
273.7197,274.0976,44,32,0
274.0976,274.4728,49,31,0
274.4728,274.848,44,32,0
274.848,275.22318,48,29,0
275.22318,275.5748,49,38,0
275.9264,276.1022,44,38,0
276.1022,276.278,37,35,0
276.278,276.45383,44,35,0
276.45383,276.62964,49,36,0
276.62964,276.98126,45,38,0
277.3329,277.5087,40,38,0
277.5087,277.68448,33,35,0
277.68448,277.8603,40,35,0
277.8603,278.0361,45,35,0
278.0361,278.3454,42,38,0
278.65466,278.8089,50,36,0
278.8089,278.96475,54,37,0
278.96475,279.1218,57,41,0
279.1218,279.29022,62,44,0
279.29022,279.6273,66,46,0
279.6273,279.96436,62,44,0
279.6273,279.96436,54,44,0
279.96436,280.30145,64,41,0
279.96436,280.30145,56,41,0
280.30145,280.63852,66,39,0
280.30145,280.63852,56,39,0
280.63852,280.78983,64,36,0
280.63852,280.9543,61,36,0
281.2701,281.428,56,38,0
281.428,281.58588,49,35,0
281.58588,281.74377,56,35,0
281.74377,281.90167,61,35,0
281.90167,282.21747,57,36,0
282.53326,282.69116,52,38,0
282.69116,282.84906,45,32,0
282.84906,283.00696,52,32,0
283.00696,283.16483,57,32,0
283.16483,283.46786,54,38,0
283.46786,283.6194,57,41,0
283.6194,283.7709,62,47,0
283.7709,283.9228,66,53,0
283.9228,284.0761,62,50,0
284.0761,284.2309,57,48,0
284.2309,284.40384,54,46,0
284.40384,284.739,56,44,0
284.739,285.07422,56,39,0
285.07422,285.41904,56,38,0
285.41904,285.7639,56,37,0
286.14603,286.5282,44,32,0
285.7639,286.5282,56,35,0
286.5282,287.0121,44,27,0
287.0121,287.5794,44,24,0
289.53064,290.00684,61,14,0
289.53064,290.00684,56,14,0
289.53064,290.00684,49,14,0
290.00684,291.00684,61,14,0
290.00684,291.00684,56,14,0
290.00684,291.00684,49,14,0
291.00684,291.54736,61,12,0
291.00684,291.54736,56,12,0
291.00684,291.54736,49,12,0
291.54736,292.17477,61,14,0
291.54736,292.17477,56,14,0
291.54736,292.17477,49,14,0
292.17477,293.50674,61,14,0
292.17477,293.50674,56,14,0
292.17477,293.50674,49,14,0
293.50674,295.00674,61,14,0
293.50674,295.00674,56,14,0
293.50674,295.00674,49,14,0
295.00674,298.00674,61,12,0
295.00674,298.00674,56,12,0
295.00674,298.00674,49,12,0
298.00674,298.26917,54,24,0
298.26917,298.5227,63,20,0
298.00674,298.5227,44,24,0
298.5227,298.76794,51,24,0
298.76794,299.00543,60,19,0
298.5227,299.00543,44,24,0
299.00543,299.26077,52,27,0
299.26077,299.5205,61,22,0
299.00543,299.5205,44,27,0
299.5205,299.78482,56,28,0
299.78482,300.05432,64,25,0
299.5205,300.05432,44,28,0
300.05432,300.381,54,23,0
300.381,300.71686,63,19,0
300.05432,300.71686,44,23,0
300.71686,301.0617,51,22,0
301.0617,301.6617,60,17,0
300.71686,301.6617,44,22,0
301.6617,306.4617,61,17,0
301.6617,306.4617,44,14,0
301.6617,306.4617,49,14,0
301.6617,306.4617,37,14,0
301.6617,306.4617,56,14,0
301.6617,306.4617,52,14,0
