start_time,end_time,note_value,velocity,instrument_program_number
0.0,0.10309275,60,55,0
0.10309275,0.2061855,65,60,0
0.2061855,0.30927825,68,66,0
0.30927825,1.1311958,72,75,0
1.1311958,1.2797105,70,57,0
1.2797105,1.6832982,68,67,0
1.6832982,1.8178275,70,58,0
1.8178275,2.214303,67,68,0
2.214303,2.3464615,68,51,0
2.3464615,2.7446911,65,60,0
2.7446911,2.8774345,66,51,0
2.8774345,3.27391,63,62,0
3.27391,3.4060686,65,52,0
3.4060686,3.807854,61,60,0
3.807854,3.9417825,63,51,0
3.9417825,4.340012,60,60,0
4.340012,4.4727554,61,51,0
4.4727554,4.870985,58,60,0
4.870985,5.0037284,60,53,0
5.0037284,5.4019585,56,63,0
5.4019585,5.5347013,58,60,0
5.5347013,5.943793,54,68,0
5.943793,6.0801563,56,63,0
6.0801563,6.5066967,53,72,0
6.5066967,6.6488767,55,67,0
6.6488767,6.947384,52,78,0
7.2458916,7.544399,70,66,0
7.2458916,7.544399,67,66,0
7.2458916,7.544399,73,79,0
8.390852,8.454954,72,41,0
8.454954,8.519056,73,41,0
8.519056,8.583159,75,41,0
8.583159,8.985844,73,47,0
8.985844,9.137359,72,41,0
9.137359,9.721867,72,47,0
9.721867,10.453321,77,53,0
10.453321,10.634316,67,39,0
10.634316,10.815312,70,39,0
10.815312,10.996307,73,44,0
10.996307,11.182043,70,38,0
11.182043,11.3725195,67,37,0
11.3725195,12.567353,65,46,0
12.567353,12.868434,64,41,0
12.868434,13.013561,78,51,0
13.013561,13.157242,79,53,0
13.157242,13.299501,80,56,0
13.299501,13.440376,81,58,0
13.440376,13.5798855,82,61,0
13.5798855,13.718061,83,63,0
13.718061,13.821155,72,55,0
13.821155,13.924247,77,60,0
13.924247,14.02734,80,66,0
14.02734,14.849257,84,76,0
14.849257,14.997772,82,47,0
14.997772,15.132301,80,60,0
15.132301,15.195327,82,50,0
15.195327,15.258352,80,50,0
15.258352,15.321911,79,46,0
15.321911,15.38547,80,46,0
15.38547,15.518214,82,54,0
15.518214,15.647524,79,60,0
15.647524,15.710286,80,49,0
15.710286,15.773047,79,49,0
15.773047,15.835809,77,45,0
15.835809,15.89857,79,45,0
15.89857,16.031904,80,51,0
16.031904,16.164646,77,60,0
16.164646,16.228207,79,48,0
16.228207,16.291765,77,48,0
16.291765,16.355326,76,43,0
16.355326,16.418884,77,43,0
16.418884,16.551628,78,49,0
16.551628,16.683786,75,62,0
16.683786,16.747345,77,49,0
16.747345,16.810905,75,49,0
16.810905,16.874464,74,44,0
16.874464,16.938023,75,44,0
16.938023,17.070766,77,52,0
17.070766,17.204695,73,60,0
17.204695,17.268524,75,49,0
17.268524,17.332355,73,49,0
17.332355,17.396185,72,47,0
17.396185,17.460014,73,47,0
17.460014,17.593943,75,51,0
17.593943,17.726686,72,60,0
17.726686,17.790789,73,50,0
17.790789,17.85489,72,50,0
17.85489,17.918993,71,44,0
17.918993,17.983097,72,44,0
17.983097,18.117025,73,51,0
18.117025,18.240992,70,60,0
18.240992,18.370302,73,52,0
18.370302,18.494268,70,52,0
18.494268,18.623579,73,48,0
18.623579,18.747547,68,63,0
18.747547,18.876856,73,56,0
18.876856,19.001856,68,57,0
19.001856,19.131727,73,55,0
19.131727,19.258308,66,68,0
19.258308,19.391052,73,62,0
19.391052,19.519808,66,63,0
19.519808,19.654337,73,59,0
19.654337,19.796516,65,72,0
19.796516,19.938698,73,65,0
19.938698,20.080877,65,67,0
20.080877,20.223057,73,67,0
20.223057,20.521564,64,90,0
20.820072,21.11858,79,75,0
20.820072,21.11858,85,90,0
20.820072,21.11858,82,75,0
21.965033,22.029135,72,41,0
22.029135,22.093237,73,41,0
22.093237,22.15734,75,41,0
22.15734,22.560024,73,47,0
22.560024,22.71154,72,41,0
22.71154,22.908585,72,46,0
22.908585,23.100563,80,53,0
23.100563,23.28748,79,47,0
23.28748,23.474396,77,47,0
23.474396,23.661312,72,43,0
23.661312,23.848228,68,38,0
23.848228,24.044306,67,47,0
24.044306,24.233255,75,52,0
24.233255,24.415073,72,39,0
24.415073,24.596891,73,44,0
24.596891,24.78304,70,38,0
24.78304,24.973515,67,34,0
24.973515,25.162195,65,53,0
25.162195,25.34319,60,48,0
25.34319,25.524185,65,49,0
25.524185,25.701176,68,58,0
25.701176,25.881357,65,50,0
25.881357,26.070036,73,51,0
26.070036,26.373066,72,66,0
26.676096,26.902227,72,66,0
26.676096,26.902227,67,66,0
26.676096,26.902227,76,78,0
27.279112,27.50988,72,66,0
27.279112,27.50988,68,66,0
27.279112,27.50988,77,78,0
27.586803,27.706326,68,45,0
27.706326,27.825848,72,28,0
27.825848,27.94537,68,39,0
27.94537,28.064892,72,28,0
28.064892,28.184414,68,38,0
28.184414,28.30787,72,31,0
28.30787,28.426918,67,45,0
28.426918,28.545965,71,30,0
28.545965,28.665014,68,45,0
28.665014,28.784061,72,32,0
28.784061,28.903109,68,39,0
28.903109,29.022156,72,27,0
29.022156,29.141203,68,40,0
29.141203,29.269958,72,30,0
29.269958,29.38807,69,45,0
29.38807,29.50618,75,31,0
29.50618,29.623827,70,38,0
29.623827,29.741472,73,30,0
29.741472,29.85912,70,38,0
29.85912,29.976767,73,32,0
29.976767,30.094414,70,40,0
30.094414,30.225992,73,28,0
30.225992,30.34318,73,47,0
30.34318,30.460367,77,38,0
30.460367,30.577555,70,45,0
30.577555,30.694742,73,32,0
30.694742,30.81193,68,40,0
30.81193,30.929117,73,31,0
30.929117,31.050085,67,37,0
31.050085,31.171053,73,31,0
31.171053,31.28824,68,45,0
31.28824,31.405428,73,30,0
31.405428,31.522615,68,36,0
31.522615,31.639803,72,27,0
31.639803,31.75699,68,38,0
31.75699,31.874178,72,31,0
31.874178,31.991365,68,33,0
31.991365,32.108555,72,28,0
32.108555,32.22713,68,47,0
32.22713,32.345707,72,30,0
32.345707,32.464283,66,35,0
32.464283,32.582863,70,31,0
32.582863,32.70144,66,40,0
32.70144,32.820015,70,28,0
32.820015,32.93859,66,36,0
32.93859,33.068462,70,29,0
33.068462,33.18704,66,45,0
33.18704,33.30562,70,27,0
33.30562,33.424194,65,34,0
33.424194,33.54277,68,27,0
33.54277,33.661346,65,36,0
33.661346,33.779926,68,27,0
33.779926,33.898502,65,32,0
33.898502,34.028374,68,28,0
34.028374,34.147896,65,45,0
34.147896,34.267418,68,27,0
34.267418,34.38694,64,33,0
34.38694,34.50646,67,27,0
34.50646,34.62598,64,39,0
34.62598,34.745502,67,28,0
34.745502,34.865025,64,36,0
34.865025,34.984547,67,29,0
34.984547,35.252403,65,60,0
35.252403,35.371925,68,45,0
35.371925,35.491447,72,28,0
35.491447,35.61097,68,39,0
35.61097,35.73049,72,28,0
35.73049,35.850014,68,38,0
35.850014,35.973473,72,31,0
35.973473,36.092518,67,45,0
36.092518,36.211567,71,30,0
36.211567,36.330616,68,45,0
36.330616,36.44966,72,32,0
36.44966,36.56871,68,39,0
36.56871,36.687756,72,27,0
36.687756,36.806805,68,40,0
36.806805,36.93556,72,30,0
36.93556,37.05367,69,45,0
37.05367,37.17178,75,31,0
37.17178,37.288513,70,38,0
37.288513,37.405243,73,30,0
37.405243,37.521976,70,38,0
37.521976,37.638706,73,31,0
37.638706,37.755436,70,33,0
37.755436,37.887016,73,28,0
37.887016,38.003296,73,47,0
38.003296,38.119576,77,38,0
38.119576,38.235855,70,45,0
38.235855,38.35213,73,32,0
38.35213,38.46841,68,40,0
38.46841,38.58469,73,31,0
38.58469,38.705658,67,37,0
38.705658,38.826626,73,31,0
38.826626,38.943813,68,45,0
38.943813,39.061,73,30,0
39.061,39.17819,68,36,0
39.17819,39.295376,72,27,0
39.295376,39.412563,68,38,0
39.412563,39.52975,72,31,0
39.52975,39.64694,68,33,0
39.64694,39.764126,72,28,0
39.764126,39.8827,72,47,0
39.8827,40.00128,75,30,0
40.00128,40.119858,65,35,0
40.119858,40.238434,70,31,0
40.238434,40.35294,73,50,0
40.35294,40.46744,77,34,0
40.46744,40.581944,75,43,0
40.581944,40.711815,73,35,0
40.711815,40.83039,70,45,0
40.83039,40.94897,73,27,0
40.94897,41.067547,63,34,0
41.067547,41.186123,68,27,0
41.186123,41.301067,72,47,0
41.301067,41.416008,75,35,0
41.416008,41.530952,73,41,0
41.530952,41.66082,72,36,0
41.66082,41.780342,69,45,0
41.780342,41.899864,72,27,0
41.899864,42.019386,63,33,0
42.019386,42.13891,67,27,0
42.13891,42.254295,70,46,0
42.254295,42.36968,73,36,0
42.36968,42.48506,72,40,0
42.48506,42.60045,70,34,0
42.60045,42.868305,68,50,0
42.868305,42.987827,68,45,0
42.987827,43.10735,72,28,0
43.10735,43.22687,68,39,0
43.22687,43.346394,72,28,0
43.346394,43.465916,68,38,0
43.465916,43.58937,72,31,0
43.58937,43.70842,71,45,0
43.70842,43.827465,74,30,0
43.827465,43.946514,72,45,0
43.946514,44.06556,75,32,0
44.06556,44.18461,72,39,0
44.18461,44.303658,75,27,0
44.303658,44.422703,72,40,0
44.422703,44.55146,75,30,0
44.55146,44.674408,72,45,0
44.674408,44.79252,75,37,0
44.79252,44.91063,73,44,0
44.91063,45.02874,76,39,0
45.02874,45.14685,79,52,0
45.14685,45.26496,82,46,0
45.26496,45.38307,72,44,0
45.38307,45.501183,75,36,0
45.501183,45.617462,73,48,0
45.617462,45.733738,76,51,0
45.733738,45.850018,79,55,0
45.850018,45.966297,82,58,0
45.966297,46.082577,80,61,0
46.082577,46.198856,79,59,0
46.198856,46.315136,77,57,0
46.315136,46.44066,79,62,0
46.44066,46.672318,80,72,0
46.672318,46.79184,68,51,0
46.79184,46.91136,72,32,0
46.91136,47.030884,68,44,0
47.030884,47.150406,72,32,0
47.150406,47.269928,68,43,0
47.269928,47.393383,72,35,0
47.393383,47.512432,71,51,0
47.512432,47.631477,74,34,0
47.631477,47.750526,72,51,0
47.750526,47.869576,75,36,0
47.869576,47.98862,72,44,0
47.98862,48.10767,75,31,0
48.10767,48.226715,72,46,0
48.226715,48.355473,75,34,0
48.355473,48.478424,74,51,0
48.478424,48.596535,77,42,0
48.596535,48.71464,75,50,0
48.71464,48.832752,78,44,0
48.832752,48.950863,81,59,0
48.950863,49.068974,84,52,0
49.068974,49.187084,74,50,0
49.187084,49.305195,77,41,0
49.305195,49.421474,75,55,0
49.421474,49.537754,78,58,0
49.537754,49.65403,81,63,0
49.65403,49.77031,84,66,0
49.77031,49.88659,82,70,0
49.88659,50.00287,81,67,0
50.00287,50.11915,79,65,0
50.11915,50.24467,81,71,0
50.24467,50.47633,82,77,0
50.47633,50.59585,73,51,0
50.59585,50.715374,77,32,0
50.715374,50.834896,73,44,0
50.834896,50.95442,77,32,0
50.95442,51.07394,73,43,0
51.07394,51.197395,77,35,0
51.197395,51.316444,72,51,0
51.316444,51.435493,76,34,0
51.435493,51.55454,73,51,0
51.55454,51.673588,77,36,0
51.673588,51.792633,73,44,0
51.792633,51.911682,77,31,0
51.911682,52.03073,73,46,0
52.03073,52.159485,77,34,0
52.159485,52.275314,82,72,0
52.275314,52.394836,73,35,0
52.394836,52.51436,76,46,0
52.51436,52.63388,73,32,0
52.63388,52.753403,75,44,0
52.753403,52.872925,73,32,0
52.872925,52.992447,76,43,0
52.992447,53.115902,73,35,0
53.115902,53.23218,80,67,0
53.23218,53.351704,72,34,0
53.351704,53.471226,77,45,0
53.471226,53.590748,72,36,0
53.590748,53.71027,75,44,0
53.71027,53.829792,72,31,0
53.829792,53.949314,80,63,0
53.949314,54.07807,72,34,0
54.07807,54.1939,82,61,0
54.07807,54.1939,85,72,0
54.1939,54.313423,73,35,0
54.313423,54.432945,76,46,0
54.432945,54.552467,73,32,0
54.552467,54.67199,75,44,0
54.67199,54.79151,73,32,0
54.79151,54.911034,76,43,0
54.911034,55.03449,73,35,0
55.03449,55.15077,80,56,0
55.03449,55.15077,84,67,0
55.15077,55.27029,72,34,0
55.27029,55.389812,77,45,0
55.389812,55.509335,72,36,0
55.509335,55.628857,75,44,0
55.628857,55.74838,72,31,0
55.74838,55.8679,80,63,0
55.8679,55.996655,72,34,0
55.996655,56.125412,84,70,0
56.125412,56.254166,87,52,0
56.254166,56.38292,77,57,0
56.38292,56.511677,82,53,0
56.511677,56.631676,85,62,0
56.631676,56.751675,89,69,0
56.751675,56.871677,87,57,0
56.871677,56.991676,85,57,0
56.991676,57.11988,82,63,0
57.11988,57.248085,85,53,0
57.248085,57.367134,75,53,0
57.367134,57.486183,80,48,0
57.486183,57.60523,84,62,0
57.60523,57.724277,87,67,0
57.724277,57.843323,85,53,0
57.843323,57.97208,84,53,0
57.97208,58.100834,81,66,0
58.100834,58.22959,84,47,0
58.22959,58.34959,75,53,0
58.34959,58.46959,79,50,0
58.46959,58.58959,82,61,0
58.58959,58.70959,85,58,0
58.70959,58.82959,84,53,0
58.82959,58.94959,82,53,0
58.94959,59.068165,80,67,0
59.068165,59.186745,79,57,0
59.186745,59.30532,77,64,0
59.30532,59.423832,76,65,0
59.423832,59.542877,75,67,0
59.542877,59.66392,73,68,0
59.66392,59.787037,72,69,0
59.787037,59.912365,70,71,0
59.912365,60.165527,68,75,0
60.165527,60.28601,56,72,0
60.40649,60.526974,56,72,0
60.647457,60.77846,56,72,0
60.909466,61.15043,55,78,0
61.15043,61.270912,56,69,0
61.39139,61.511875,56,69,0
61.632355,61.758408,56,69,0
61.884457,62.243023,57,72,0
62.243023,62.302784,58,64,0
62.302784,62.362545,60,59,0
62.362545,62.72111,58,72,0
62.72111,62.780872,60,65,0
62.780872,62.839184,61,61,0
62.839184,62.9539,63,72,0
63.068092,63.181713,67,70,0
63.181713,63.294785,70,70,0
63.294785,63.40735,75,67,0
63.40735,63.520176,79,70,0
63.520176,63.63561,82,73,0
63.63561,63.75388,87,75,0
63.75388,63.991974,80,78,0
63.991974,64.11246,56,72,0
64.23294,64.353424,56,72,0
64.4739,64.604904,56,72,0
64.73591,64.976875,55,78,0
64.976875,65.09736,56,69,0
65.21784,65.338326,56,69,0
65.4588,65.584854,56,69,0
65.71091,66.06947,57,72,0
66.06947,66.129234,58,64,0
66.129234,66.188995,60,59,0
66.188995,66.54756,58,72,0
66.54756,66.60732,60,65,0
66.60732,66.665634,61,59,0
66.665634,66.78035,63,72,0
66.89454,67.00816,64,70,0
67.00816,67.12123,67,70,0
67.12123,67.233795,72,67,0
67.233795,67.34663,76,70,0
67.34663,67.46206,79,73,0
67.46206,67.58033,84,75,0
67.58033,67.81842,77,78,0
67.81842,67.9389,56,61,0
67.81842,67.9389,65,72,0
68.05939,68.17987,65,72,0
68.05939,68.17987,56,61,0
68.300354,68.42587,65,72,0
68.300354,68.42587,56,61,0
68.5514,68.79236,64,78,0
68.79236,68.91284,65,69,0
68.5514,68.91284,56,61,0
69.033325,69.15381,65,69,0
69.033325,69.15381,56,58,0
69.27429,69.40034,65,69,0
69.27429,69.40034,56,58,0
69.52639,69.88496,65,72,0
69.88496,69.94472,66,64,0
69.94472,70.00448,68,62,0
69.52639,70.00448,59,61,0
70.00448,70.24352,58,61,0
70.00448,70.363045,66,72,0
70.363045,70.422806,68,65,0
70.422806,70.48112,69,62,0
70.48112,70.59583,60,61,0
70.48112,70.59583,66,61,0
70.48112,70.59583,68,72,0
70.71002,70.82365,72,70,0
70.82365,70.93672,75,70,0
70.93672,71.04928,80,67,0
71.04928,71.16211,84,70,0
71.16211,71.27754,87,73,0
71.27754,71.39581,92,75,0
71.39581,71.63391,85,78,0
71.63391,71.75439,56,61,0
71.63391,71.75439,65,72,0
71.87487,71.99535,65,72,0
71.87487,71.99535,56,61,0
72.11584,72.23929,65,72,0
72.11584,72.23929,56,61,0
72.36275,72.603714,64,78,0
72.603714,72.7242,65,69,0
72.36275,72.7242,56,61,0
72.84467,72.96516,65,69,0
72.84467,72.96516,56,58,0
73.08564,73.21169,56,58,0
73.08564,73.21169,65,69,0
73.337746,73.57396,71,78,0
73.337746,73.57396,65,61,0
73.337746,73.57396,62,61,0
73.57396,73.69396,70,69,0
73.57396,73.69396,62,58,0
73.57396,73.69396,65,58,0
73.813965,73.932076,65,58,0
73.813965,73.932076,70,69,0
73.813965,73.932076,62,58,0
74.050186,74.172134,70,69,0
74.050186,74.172134,65,58,0
74.050186,74.172134,62,58,0
74.29408,74.4088,67,72,0
74.29408,74.4088,63,61,0
74.63661,74.74969,70,70,0
74.522995,74.74969,67,70,0
74.74969,74.86225,75,67,0
74.86225,74.97508,79,70,0
74.97508,75.09051,82,73,0
75.09051,75.208786,87,75,0
75.208786,75.44134,64,61,0
75.208786,75.44134,67,61,0
75.208786,75.44134,73,78,0
75.44134,75.56039,64,58,0
75.44134,75.56039,67,58,0
75.44134,75.56039,72,69,0
75.679436,75.796165,64,58,0
75.679436,75.796165,72,69,0
75.679436,75.796165,67,58,0
75.912895,76.03895,72,69,0
75.912895,76.03895,64,58,0
75.912895,76.03895,67,58,0
76.165,76.27972,69,72,0
76.165,76.27972,65,61,0
76.50753,76.620605,72,70,0
76.393906,76.620605,69,70,0
76.620605,76.73316,77,67,0
76.73316,76.84599,81,70,0
76.84599,76.961426,84,73,0
76.961426,77.0797,89,75,0
77.0797,77.33832,90,87,0
77.0797,77.33832,78,73,0
77.33832,77.51548,77,63,0
77.33832,77.51548,89,75,0
77.57454,77.80442,89,87,0
77.57454,77.80442,77,73,0
77.80442,77.98159,76,63,0
77.80442,77.98159,88,75,0
78.04064,78.26965,76,73,0
78.04064,78.26965,88,86,0
78.26965,78.44206,77,59,0
78.26965,78.44206,89,70,0
78.499535,78.72595,77,66,0
78.499535,78.72595,89,78,0
78.72595,78.897705,84,70,0
78.72595,78.897705,72,59,0
78.954956,79.17595,70,65,0
78.954956,79.17595,82,77,0
79.17595,79.346405,69,57,0
79.17595,79.346405,81,68,0
79.40323,79.627945,81,68,0
79.40323,79.627945,69,57,0
79.627945,79.80511,67,57,0
79.627945,79.80511,79,68,0
79.86417,80.0923,67,62,0
79.86417,80.0923,79,74,0
80.0923,80.2091,65,54,0
80.0923,80.2091,77,64,0
80.32396,80.43898,65,56,0
80.32396,80.43898,77,67,0
80.5521,80.67214,77,64,0
80.5521,80.67214,65,54,0
80.79019,81.014915,78,69,0
80.79019,81.014915,66,58,0
81.014915,81.18799,77,60,0
81.014915,81.18799,65,50,0
81.24568,81.471245,65,58,0
81.24568,81.471245,77,69,0
81.471245,81.64366,64,50,0
81.471245,81.64366,76,60,0
81.70113,81.9267,76,68,0
81.70113,81.9267,64,58,0
81.9267,82.099106,77,56,0
81.9267,82.099106,65,47,0
82.15658,82.38046,65,52,0
82.15658,82.38046,77,62,0
82.38046,82.552216,60,47,0
82.38046,82.552216,72,56,0
82.60947,82.83046,70,57,0
82.60947,82.83046,58,49,0
82.83046,83.000916,69,50,0
82.83046,83.000916,57,42,0
83.05773,83.27996,69,49,0
83.05773,83.27996,57,41,0
83.27996,83.45303,55,40,0
83.27996,83.45303,67,48,0
83.51073,83.73629,55,43,0
83.51073,83.73629,67,51,0
83.73629,83.85309,65,43,0
83.73629,83.85309,53,36,0
83.96795,84.08167,65,44,0
83.96795,84.08167,53,36,0
84.19351,84.31122,65,41,0
84.19351,84.31122,53,35,0
84.42698,84.5407,65,39,0
84.42698,84.5407,53,32,0
84.65254,84.77025,53,31,0
84.65254,84.77025,65,36,0
84.886,84.999725,65,39,0
84.886,84.999725,53,32,0
85.111565,85.22927,65,36,0
85.111565,85.22927,53,31,0
85.34503,85.458755,53,32,0
85.34503,85.458755,65,39,0
85.570595,85.690636,65,36,0
85.570595,85.690636,53,31,0
85.80869,85.92548,53,32,0
85.80869,85.92548,65,39,0
86.04035,86.16483,53,31,0
86.04035,86.16483,65,36,0
86.28726,86.52536,64,33,0
86.52536,86.6514,63,30,0
86.28726,86.77536,61,21,0
86.28726,86.77536,55,21,0
86.28726,86.77536,58,21,0
86.77536,86.895355,55,21,0
86.77536,86.895355,58,21,0
86.77536,86.89636,63,33,0
86.77536,86.89636,61,21,0
87.015335,87.13631,58,20,0
87.015335,87.13631,55,20,0
87.015335,87.13733,61,20,0
87.015335,87.13733,63,30,0
87.26003,87.38667,58,21,0
87.26003,87.38667,55,21,0
87.26003,87.38774,63,33,0
87.26003,87.38774,61,21,0
87.516396,87.64932,55,20,0
87.516396,87.64932,58,20,0
87.516396,87.650444,61,20,0
87.516396,87.650444,63,30,0
87.78563,87.923676,55,21,0
87.78563,87.923676,58,21,0
87.78563,87.924835,63,33,0
87.78563,87.924835,61,21,0
88.063446,88.20525,58,20,0
88.063446,88.20525,55,20,0
88.063446,88.20654,61,20,0
88.063446,88.20654,63,30,0
88.35989,88.63897,63,35,0
88.35989,88.63897,60,28,0
88.35989,88.63897,56,28,0
88.63897,88.83377,72,29,0
88.63897,88.83377,63,23,0
88.63897,88.83377,68,23,0
88.898705,89.09351,72,29,0
88.898705,89.09351,63,23,0
88.898705,89.09351,68,23,0
89.15845,89.35756,72,29,0
89.15845,89.35756,68,23,0
89.15845,89.35756,63,23,0
89.423935,89.68825,62,26,0
89.423935,89.68825,68,26,0
89.423935,89.68825,71,33,0
89.68825,89.88649,68,22,0
89.68825,89.88649,63,22,0
89.68825,89.88649,72,28,0
89.95257,90.1508,63,24,0
89.95257,90.1508,68,24,0
89.95257,90.1508,72,31,0
90.21689,90.419586,63,27,0
90.21689,90.419586,72,34,0
90.21689,90.419586,68,27,0
90.48715,90.77562,66,30,0
90.48715,90.77562,68,30,0
90.48715,90.77562,75,38,0
90.77562,90.96469,68,25,0
90.77562,90.96469,65,25,0
90.77562,90.96469,73,32,0
91.02772,91.22085,65,25,0
91.02772,91.22085,73,32,0
91.02772,91.22085,68,25,0
91.285225,91.48612,73,32,0
91.285225,91.48612,68,25,0
91.285225,91.48612,65,25,0
91.553085,91.81283,68,26,0
91.553085,91.81283,65,20,0
91.553085,91.81283,73,33,0
91.81283,92.07256,63,24,0
91.81283,92.07256,65,24,0
91.81283,92.07256,72,30,0
92.07256,92.332306,61,24,0
92.07256,92.332306,70,30,0
92.07256,92.332306,65,24,0
92.332306,92.60017,60,24,0
92.332306,92.60017,65,24,0
92.332306,92.60017,68,30,0
92.60017,92.86448,68,35,0
92.60017,92.86448,60,28,0
92.60017,92.86448,63,28,0
92.86448,93.05929,63,23,0
92.86448,93.05929,58,23,0
92.86448,93.05929,67,29,0
93.12422,93.31902,63,23,0
93.12422,93.31902,58,23,0
93.12422,93.31902,67,29,0
93.383965,93.58308,58,23,0
93.383965,93.58308,67,29,0
93.383965,93.58308,63,23,0
93.649445,93.84769,63,26,0
93.649445,93.84769,67,33,0
93.649445,93.84769,58,26,0
93.913765,94.11556,58,22,0
93.913765,94.11556,67,28,0
93.913765,94.11556,63,22,0
94.18282,94.456795,68,31,0
94.18282,94.456795,60,24,0
94.18282,94.456795,63,24,0
94.456795,94.73849,63,27,0
94.456795,94.73849,61,27,0
94.456795,94.73849,70,34,0
94.73849,95.02975,63,38,0
94.73849,95.02975,61,30,0
95.02975,95.21883,60,25,0
95.02975,95.21883,63,25,0
95.02975,95.21883,68,32,0
95.28185,95.47498,68,32,0
95.28185,95.47498,60,25,0
95.28185,95.47498,63,25,0
95.53936,95.74025,60,25,0
95.53936,95.74025,63,25,0
95.53936,95.74025,68,32,0
95.80722,96.00202,63,26,0
95.80722,96.00202,68,33,0
95.80722,96.00202,60,20,0
96.066956,96.27922,68,30,0
96.066956,96.27922,60,24,0
96.066956,96.27922,63,24,0
96.41491,96.74608,63,35,0
96.41491,96.74608,72,42,0
96.349976,96.74608,68,30,0
96.74608,96.88245,68,30,0
96.74608,96.88245,60,24,0
96.74608,96.88245,63,24,0
96.88245,97.1723,63,28,0
96.88245,97.1723,68,35,0
96.88245,97.1723,60,28,0
97.1723,97.3723,67,29,0
97.1723,97.3723,58,23,0
97.1723,97.3723,63,23,0
97.438965,97.635475,67,29,0
97.438965,97.635475,63,23,0
97.438965,97.635475,58,23,0
97.70097,97.900085,58,23,0
97.70097,97.900085,63,23,0
97.70097,97.900085,67,29,0
97.96646,98.164696,63,26,0
97.96646,98.164696,58,26,0
97.96646,98.164696,67,33,0
98.23078,98.43078,58,22,0
98.23078,98.43078,67,28,0
98.23078,98.43078,63,22,0
98.497444,98.767715,68,31,0
98.497444,98.767715,63,24,0
98.497444,98.767715,60,24,0
98.767715,99.04678,63,27,0
98.767715,99.04678,61,27,0
98.767715,99.04678,70,34,0
99.04678,99.32328,63,38,0
99.04678,99.32328,61,30,0
99.32328,99.51236,63,25,0
99.32328,99.51236,60,25,0
99.32328,99.51236,68,32,0
99.575386,99.76852,68,32,0
99.575386,99.76852,63,25,0
99.575386,99.76852,60,25,0
99.83289,100.03378,68,32,0
99.83289,100.03378,63,25,0
99.83289,100.03378,60,25,0
100.10075,100.31302,63,26,0
100.10075,100.31302,60,20,0
100.10075,100.31302,68,33,0
100.383766,100.656494,72,27,0
100.383766,100.656494,75,34,0
100.656494,100.91624,75,27,0
100.656494,100.91624,80,42,0
100.656494,100.91624,72,27,0
100.91624,101.1841,79,27,0
100.91624,101.1841,82,34,0
100.91624,101.1841,75,27,0
101.463165,101.65797,80,26,0
101.463165,101.65797,84,33,0
101.463165,101.65797,75,26,0
101.72291,101.91771,75,26,0
101.72291,101.91771,80,26,0
101.72291,101.91771,84,33,0
101.98264,102.18176,75,26,0
101.98264,102.18176,80,26,0
101.98264,102.18176,84,33,0
102.24813,102.51245,83,37,0
102.24813,102.51245,74,29,0
102.24813,102.51245,80,29,0
102.51245,102.710686,84,32,0
102.51245,102.710686,80,25,0
102.51245,102.710686,75,25,0
102.776764,102.975006,75,27,0
102.776764,102.975006,80,27,0
102.776764,102.975006,84,35,0
103.041084,103.24379,80,31,0
103.041084,103.24379,75,31,0
103.041084,103.24379,84,39,0
103.311356,103.598434,78,34,0
103.311356,103.598434,80,34,0
103.311356,103.598434,87,43,0
103.598434,103.78751,85,36,0
103.598434,103.78751,77,28,0
103.598434,103.78751,80,28,0
103.85053,104.04367,77,28,0
103.85053,104.04367,80,28,0
103.85053,104.04367,85,36,0
104.10805,104.30894,80,28,0
104.10805,104.30894,85,36,0
104.10805,104.30894,77,28,0
104.3759,104.63564,77,23,0
104.3759,104.63564,85,37,0
104.3759,104.63564,80,29,0
104.63564,104.895386,84,34,0
104.63564,104.895386,77,27,0
104.63564,104.895386,75,27,0
104.895386,105.15513,82,34,0
104.895386,105.15513,73,27,0
104.895386,105.15513,77,27,0
105.15513,105.42298,72,27,0
105.15513,105.42298,80,34,0
105.15513,105.42298,77,27,0
105.42298,105.6873,75,32,0
105.42298,105.6873,72,32,0
105.42298,105.6873,80,40,0
105.6873,105.8821,79,33,0
105.6873,105.8821,70,26,0
105.6873,105.8821,75,26,0
105.94704,106.141846,70,26,0
105.94704,106.141846,75,26,0
105.94704,106.141846,79,33,0
106.20678,106.40589,70,26,0
106.20678,106.40589,79,33,0
106.20678,106.40589,75,26,0
106.47227,106.68255,79,37,0
106.47227,106.68255,70,29,0
106.47227,106.68255,75,29,0
106.75264,106.95626,70,25,0
106.75264,106.95626,79,32,0
106.75264,106.95626,75,25,0
107.02413,107.29936,80,35,0
107.02413,107.29936,75,27,0
107.02413,107.29936,72,27,0
107.29936,107.581055,73,31,0
107.29936,107.581055,82,39,0
107.29936,107.581055,75,31,0
107.581055,107.86677,75,43,0
107.581055,107.86677,73,34,0
107.86677,108.05585,72,28,0
107.86677,108.05585,80,36,0
107.86677,108.05585,75,28,0
108.118866,108.312004,75,28,0
108.118866,108.312004,72,28,0
108.118866,108.312004,80,36,0
108.37638,108.57727,72,28,0
108.37638,108.57727,80,36,0
108.37638,108.57727,75,28,0
108.64423,108.83904,72,23,0
108.64423,108.83904,75,29,0
108.64423,108.83904,80,37,0
108.90398,109.12349,72,27,0
108.90398,109.12349,75,27,0
108.90398,109.12349,80,34,0
109.2616,109.59033,84,52,0
109.2616,109.59033,75,44,0
109.19666,109.59033,80,39,0
109.59033,109.72426,80,34,0
109.59033,109.72426,72,27,0
109.59033,109.72426,75,27,0
109.72426,109.98857,72,32,0
109.72426,109.98857,80,40,0
109.72426,109.98857,75,32,0
109.98857,110.18338,79,33,0
109.98857,110.18338,70,26,0
109.98857,110.18338,75,26,0
110.248314,110.44312,79,33,0
110.248314,110.44312,70,26,0
110.248314,110.44312,75,26,0
110.50806,110.70717,79,33,0
110.50806,110.70717,75,26,0
110.50806,110.70717,70,26,0
110.773544,110.97178,75,29,0
110.773544,110.97178,79,37,0
110.773544,110.97178,70,29,0
111.03786,111.2361,70,25,0
111.03786,111.2361,79,32,0
111.03786,111.2361,75,25,0
111.30218,111.56649,72,27,0
111.30218,111.56649,75,27,0
111.30218,111.56649,80,35,0
111.56649,111.83676,73,31,0
111.56649,111.83676,82,39,0
111.56649,111.83676,75,31,0
111.83676,112.11978,75,43,0
111.83676,112.11978,73,34,0
112.11978,112.30886,72,28,0
112.11978,112.30886,75,28,0
112.11978,112.30886,80,36,0
112.37188,112.56502,80,36,0
112.37188,112.56502,72,28,0
112.37188,112.56502,75,28,0
112.629395,112.830284,72,28,0
112.629395,112.830284,75,28,0
112.629395,112.830284,80,36,0
112.89725,113.09206,72,23,0
112.89725,113.09206,75,29,0
112.89725,113.09206,80,37,0
113.15699,113.29336,75,43,0
113.29336,113.42972,87,36,0
113.42972,113.559586,80,43,0
113.559586,113.68946,87,36,0
113.68946,113.82339,82,44,0
113.82339,113.95731,87,36,0
113.95731,114.09685,75,47,0
114.09685,114.23639,87,36,0
114.23639,114.36626,84,43,0
114.36626,114.496124,75,36,0
114.496124,114.626,75,43,0
114.626,114.75587,87,36,0
114.75587,114.88861,84,43,0
114.88861,115.021355,75,36,0
115.021355,115.15351,75,46,0
115.15351,115.28567,87,36,0
115.28567,115.41783,84,45,0
115.41783,115.54999,75,36,0
115.54999,115.682144,75,45,0
115.682144,115.81431,87,39,0
115.81431,115.94944,80,46,0
115.94944,116.08457,92,36,0
116.08457,116.22812,80,50,0
116.22812,116.37166,92,36,0
116.37166,116.4977,89,43,0
116.4977,116.62376,80,36,0
116.62376,116.75251,80,50,0
116.75251,116.88127,92,36,0
116.88127,117.0152,89,42,0
117.0152,117.149124,80,36,0
117.149124,117.279,80,46,0
117.279,117.40887,92,36,0
117.40887,117.538734,81,47,0
117.538734,117.66861,93,40,0
117.66861,117.79848,82,52,0
117.79848,117.928345,94,36,0
117.928345,118.06228,84,48,0
117.928345,118.06228,96,48,0
118.06228,118.196205,85,53,0
118.06228,118.196205,97,53,0
118.196205,118.32836,87,67,0
118.32836,118.46052,99,53,0
118.46052,118.59039,97,60,0
118.59039,118.72026,87,53,0
118.72026,118.85013,87,63,0
118.85013,118.98,99,53,0
118.98,119.11275,97,60,0
119.11275,119.24549,87,50,0
119.24549,119.38567,87,59,0
119.38567,119.52586,99,45,0
119.52586,119.661606,97,56,0
119.661606,119.797356,87,48,0
119.797356,119.93497,96,58,0
119.93497,120.072586,99,47,0
120.072586,120.21343,94,59,0
120.21343,120.35428,99,52,0
120.35428,120.487015,87,64,0
120.487015,120.61976,99,43,0
120.61976,120.74907,96,55,0
120.74907,120.87838,87,44,0
120.87838,121.00713,75,51,0
121.00713,121.135895,87,43,0
121.135895,121.26982,84,47,0
121.26982,121.40375,75,41,0
121.40375,121.53362,75,47,0
121.53362,121.66349,87,39,0
121.66349,121.80983,84,41,0
121.80983,121.95617,75,38,0
121.95617,122.086044,80,47,0
122.086044,122.21591,92,42,0
122.21591,122.34984,75,43,0
122.34984,122.48377,87,37,0
122.48377,122.61593,75,50,0
122.61593,122.748085,87,37,0
122.748085,122.87796,85,44,0
122.87796,123.00783,75,37,0
123.00783,123.137695,75,48,0
123.137695,123.26757,87,37,0
123.26757,123.400314,85,43,0
123.400314,123.53306,75,37,0
123.53306,123.665215,75,48,0
123.665215,123.79737,87,37,0
123.79737,123.92953,85,48,0
123.92953,124.06169,75,44,0
124.06169,124.19385,84,53,0
124.19385,124.326004,87,46,0
124.326004,124.46114,82,52,0
124.46114,124.596275,87,47,0
124.596275,124.737785,75,58,0
124.737785,124.879295,87,36,0
124.879295,125.00696,84,44,0
125.00696,125.13461,75,36,0
125.13461,125.26337,75,50,0
125.26337,125.39213,87,36,0
125.39213,125.526054,84,43,0
125.526054,125.65998,75,36,0
125.65998,125.78985,75,50,0
125.78985,125.91972,87,36,0
125.91972,126.06606,84,44,0
126.06606,126.2124,75,36,0
126.2124,126.34228,80,53,0
126.34228,126.472145,92,44,0
126.472145,126.60607,75,53,0
126.60607,126.740005,87,47,0
126.740005,126.87216,87,63,0
126.87216,127.00432,99,52,0
127.00432,127.13419,97,62,0
127.13419,127.26409,87,50,0
127.26409,127.39477,87,63,0
127.39477,127.52629,99,54,0
127.52629,127.65874,97,59,0
127.65874,127.79244,87,51,0
127.79244,127.93307,87,64,0
127.93307,128.0767,99,48,0
128.0767,128.22351,97,57,0
128.22351,128.37367,87,46,0
128.37367,128.52596,96,63,0
128.52596,128.67824,99,52,0
128.67824,128.84677,94,59,0
128.84677,129.01532,99,48,0
129.01532,130.45502,94,59,0
130.45502,130.74348,96,66,0
130.74348,131.04498,97,71,0
131.04498,131.3465,98,75,0
131.3465,132.92545,99,79,0
132.92545,133.45177,91,66,0
133.45177,133.57782,96,56,0
133.57782,133.70386,99,49,0
133.70386,133.82991,92,49,0
133.82991,133.95596,96,45,0
133.95596,134.08202,87,56,0
134.08202,134.20807,92,50,0
134.20807,134.33412,84,50,0
134.33412,134.46016,87,45,0
134.46016,134.58621,80,56,0
134.58621,134.71227,84,50,0
134.71227,134.83832,75,50,0
134.83832,134.96437,80,50,0
134.96437,135.09042,72,56,0
135.09042,135.21648,75,50,0
135.21648,135.34251,68,50,0
135.34251,135.47705,72,45,0
135.47705,135.60153,63,53,0
135.60153,135.72601,68,44,0
135.72601,135.8505,60,44,0
135.8505,135.97498,63,40,0
141.09596,141.34807,68,38,0
141.09596,141.34807,71,45,0
141.34807,141.63922,73,48,0
141.34807,141.63922,70,40,0
141.63922,142.13516,71,42,0
141.63922,142.13516,75,50,0
142.90062,143.15062,51,37,0
142.90062,143.15062,47,44,0
143.15062,143.40047,46,47,0
143.15062,143.40047,51,39,0
143.40047,143.65105,51,42,0
143.40047,143.65105,44,50,0
143.65105,143.89952,51,39,0
143.65105,143.89952,39,55,0
145.15443,145.40654,73,64,0
145.15443,145.40654,70,54,0
145.40654,145.69827,73,51,0
145.40654,145.69827,76,61,0
145.69827,146.19316,71,48,0
145.69827,146.19316,75,57,0
147.20628,147.45456,47,57,0
147.20628,147.45456,51,41,0
147.45456,147.70474,51,39,0
147.45456,147.70474,46,47,0
147.70474,147.94838,51,42,0
147.70474,147.95036,44,50,0
149.20256,149.45467,68,43,0
149.20256,149.45467,71,51,0
149.45467,149.7464,70,46,0
149.45467,149.7464,73,55,0
149.7464,150.24323,75,57,0
149.7464,150.24323,71,48,0
151.00987,151.25854,54,42,0
151.00987,151.25854,51,50,0
151.25854,151.50795,54,42,0
151.25854,151.50795,49,51,0
151.50795,151.75706,54,45,0
151.50795,151.75706,47,54,0
151.75706,152.00394,54,44,0
151.75706,152.00394,42,63,0
153.25607,153.50818,73,62,0
153.25607,153.50818,76,73,0
153.50818,153.79991,76,58,0
153.50818,153.79991,80,70,0
153.79991,154.29909,78,65,0
153.79991,154.29909,75,69,0
155.31548,155.55765,54,43,0
155.31548,155.55765,51,59,0
155.55765,155.80003,54,40,0
155.55765,155.80003,49,48,0
155.80003,156.04636,54,42,0
155.80003,156.0484,47,50,0
157.04588,157.3045,75,61,0
157.3045,157.55661,73,64,0
157.55661,157.8751,71,66,0
157.8751,158.36734,68,66,0
159.1114,159.37003,52,65,0
159.37003,159.62213,51,68,0
159.62213,159.93947,49,71,0
159.93947,160.93294,46,76,0
160.93294,161.18129,47,61,0
161.18129,161.43991,75,68,0
161.43991,161.69202,76,73,0
161.69202,161.9788,77,77,0
161.9788,164.01015,78,82,0
164.01015,164.50679,75,66,0
165.25394,165.51256,47,44,0
165.51256,165.76465,49,48,0
165.76465,166.0485,50,45,0
166.0485,168.08301,42,48,0
168.08301,168.58096,35,44,0
169.07822,169.83763,39,48,0
169.83763,169.92575,37,41,0
169.92575,170.03152,35,35,0
170.03152,170.15498,34,35,0
171.65579,171.9079,71,45,0
171.65579,171.9079,68,38,0
171.9079,172.19963,73,48,0
171.9079,172.19963,70,40,0
172.19963,172.6963,71,42,0
172.19963,172.6963,75,50,0
173.46329,173.71329,51,37,0
173.46329,173.71329,47,44,0
173.71329,173.9617,46,47,0
173.71329,173.9617,51,39,0
173.9617,174.21005,51,42,0
173.9617,174.21005,44,50,0
174.21005,174.4588,51,39,0
174.21005,174.46088,39,55,0
175.71483,175.96693,70,54,0
175.71483,175.96693,73,64,0
175.96693,176.25867,76,61,0
175.96693,176.25867,73,51,0
176.25867,176.75711,71,48,0
176.25867,176.75711,75,57,0
177.7753,178.02554,51,41,0
177.7753,178.02554,47,57,0
178.02554,178.2736,46,47,0
178.02554,178.2736,51,39,0
178.2736,178.52267,44,50,0
178.2736,178.52267,51,42,0
179.77165,180.02376,71,51,0
179.77165,180.02376,68,43,0
180.02376,180.31549,73,55,0
180.02376,180.31549,70,46,0
180.31549,180.81383,75,57,0
180.31549,180.81383,71,48,0
181.58205,181.83205,54,42,0
181.58205,181.83205,51,50,0
181.83205,182.08119,49,51,0
181.83205,182.08119,54,42,0
182.08119,182.33002,54,45,0
182.08119,182.33002,47,54,0
182.33002,182.57875,42,63,0
182.33002,182.57875,54,44,0
183.82947,184.08157,73,62,0
183.82947,184.08157,76,73,0
184.08157,184.3733,76,58,0
184.08157,184.3733,80,70,0
184.3733,184.86713,75,69,0
184.3733,184.86713,78,65,0
185.88016,186.1293,51,59,0
185.88016,186.1293,54,43,0
186.1293,186.37746,49,48,0
186.1293,186.37746,54,40,0
186.37746,186.62433,47,50,0
186.37746,186.62433,54,42,0
187.62296,187.88158,75,61,0
187.88158,188.13367,73,64,0
188.13367,188.44603,71,66,0
188.44603,188.94057,68,66,0
189.67525,189.93387,52,65,0
189.93387,190.18596,51,68,0
190.18596,190.50331,49,71,0
190.50331,191.49539,46,76,0
191.49539,191.74474,47,61,0
191.74474,192.00336,75,68,0
192.00336,192.25546,76,73,0
192.25546,192.54225,77,77,0
192.54225,194.5695,78,82,0
194.5695,195.06421,75,66,0
195.81165,196.07027,47,44,0
196.07027,196.32237,49,48,0
196.32237,196.60916,50,45,0
196.60916,198.65141,42,48,0
198.65141,199.1524,35,44,0
199.90228,200.1609,75,55,0
200.1609,200.413,75,55,0
200.413,200.68611,76,55,0
200.68611,201.1788,70,51,0
200.68611,201.1788,73,51,0
200.68611,201.1788,75,60,0
201.1788,201.42232,70,55,0
201.91711,202.17574,39,46,0
201.91711,202.17574,51,55,0
202.17574,202.42783,51,55,0
202.17574,202.42783,39,46,0
202.42783,202.70094,46,55,0
202.42783,202.70094,34,46,0
202.70094,203.19777,35,51,0
202.70094,203.19777,47,60,0
203.19777,203.44623,32,50,0
203.19777,203.44623,44,59,0
203.94398,204.2026,75,69,0
203.94398,204.2026,71,58,0
204.2026,204.45471,71,58,0
204.2026,204.45471,75,69,0
204.45471,204.72781,76,69,0
204.45471,204.72781,71,58,0
204.72781,205.22112,75,75,0
204.72781,205.22112,73,53,0
204.72781,205.22112,70,53,0
205.22112,205.46654,70,69,0
205.96068,206.2193,39,52,0
205.96068,206.2193,51,63,0
206.2193,206.46828,39,52,0
206.2193,206.46828,51,63,0
206.46828,206.74002,46,63,0
206.46828,206.74002,34,52,0
206.74002,207.23543,47,69,0
206.74002,207.23543,35,58,0
207.23543,207.48434,32,54,0
207.23543,207.48434,44,64,0
207.98283,208.24146,75,72,0
208.24146,208.50346,75,75,0
208.50346,208.80788,75,79,0
208.80788,209.05788,76,83,0
209.30788,210.30997,40,77,0
210.30997,210.68654,72,70,0
210.68654,210.81206,74,67,0
210.81206,211.05696,76,79,0
211.30186,212.3009,40,77,0
212.3009,212.6759,72,70,0
212.6759,212.8009,74,67,0
212.8009,213.06522,76,77,0
213.32954,214.39696,40,66,0
214.39696,214.98299,39,49,0
214.98299,215.24731,38,56,0
215.51163,216.28085,77,55,0
216.28085,216.55482,77,50,0
216.55482,216.81915,79,53,0
216.81915,217.09836,80,56,0
217.09836,217.35368,79,63,0
217.60901,218.11964,39,42,0
218.37605,218.65002,77,57,0
218.65002,218.92,75,50,0
218.92,219.21138,74,50,0
219.21138,219.47224,72,59,0
219.73312,220.24814,44,29,0
220.24814,220.50244,41,26,0
220.75664,221.27612,72,47,0
221.27612,221.53699,74,51,0
221.79787,222.31288,46,34,0
222.31288,222.82791,47,39,0
222.82791,223.34738,46,35,0
223.34738,223.86913,75,46,0
224.38414,225.41866,39,49,0
225.41866,226.45541,41,61,0
226.45541,227.48991,43,39,0
227.48991,228.00493,44,39,0
229.07571,229.33434,68,45,0
229.33434,229.62607,67,40,0
229.33434,229.62607,70,48,0
229.62607,230.11926,72,50,0
229.62607,230.11926,68,42,0
230.87604,231.12297,51,37,0
230.87604,231.12297,48,44,0
231.12297,231.37207,46,47,0
231.12297,231.37207,51,39,0
231.37207,231.62614,51,42,0
231.37207,231.62614,44,50,0
231.62614,231.87508,39,55,0
231.62614,231.87508,51,39,0
233.12773,233.37984,73,64,0
233.12773,233.37984,70,54,0
233.37984,233.67157,73,51,0
233.37984,233.67157,77,61,0
233.67157,234.15863,75,57,0
233.67157,234.15863,72,48,0
235.16032,235.40442,48,57,0
235.16032,235.40442,51,41,0
235.40442,235.65611,46,47,0
235.40442,235.65611,51,39,0
235.65611,235.9017,51,42,0
235.65611,235.90378,44,50,0
237.16013,237.41222,68,43,0
237.16013,237.41222,72,51,0
237.41222,237.70395,73,55,0
237.41222,237.70395,70,46,0
237.70395,238.20277,75,57,0
237.70395,238.20277,72,48,0
238.96512,239.215,51,50,0
238.96512,239.215,48,42,0
239.215,239.46236,53,51,0
239.215,239.46236,49,42,0
239.46236,239.7107,46,45,0
239.46236,239.7107,55,54,0
239.7107,239.96161,48,63,0
239.7107,239.96161,56,44,0
238.96512,239.96161,44,42,0
240.95432,241.21294,72,58,0
240.95432,241.21294,80,69,0
241.21294,241.46503,79,65,0
241.21294,241.46503,75,55,0
241.46503,241.75446,73,52,0
241.46503,241.75446,77,63,0
241.75446,242.25215,72,60,0
241.75446,242.25215,75,61,0
243.01978,243.2784,51,48,0
243.01978,243.2784,48,48,0
243.2784,243.53049,46,34,0
243.2784,243.53049,49,41,0
243.53049,243.81989,46,39,0
243.53049,243.81989,39,33,0
243.81989,244.0667,48,48,0
243.81989,244.0667,44,40,0
245.33887,245.60793,68,30,0
245.33887,245.60793,72,36,0
245.60793,245.91795,70,32,0
245.60793,245.91795,73,38,0
245.91795,246.41714,75,41,0
245.91795,246.41714,72,34,0
247.19609,247.4524,48,25,0
247.19609,247.4524,51,30,0
247.4524,247.71504,53,32,0
247.4524,247.71504,49,27,0
247.71504,247.98376,46,28,0
247.71504,247.98376,55,34,0
247.98376,248.23819,56,44,0
247.98376,248.23819,48,37,0
247.19609,248.23819,44,25,0
249.2554,249.51402,80,42,0
249.2554,249.51402,72,35,0
249.51402,249.76613,79,39,0
249.51402,249.76613,75,33,0
249.76613,250.05786,73,30,0
249.76613,250.05786,77,36,0
250.05786,250.55786,72,35,0
250.05786,250.55786,75,42,0
251.34416,251.60278,51,37,0
251.34416,251.60278,48,37,0
251.60278,251.85487,49,33,0
251.60278,251.85487,46,28,0
251.85487,252.14445,39,28,0
251.85487,252.14445,46,33,0
252.14445,252.39607,44,31,0
252.14445,252.39607,48,37,0
253.416,253.67462,48,37,0
253.416,253.67462,51,37,0
253.67462,253.92671,49,33,0
253.67462,253.92671,46,28,0
253.92671,254.21844,46,33,0
253.92671,254.21844,39,28,0
254.21844,254.46523,48,37,0
254.21844,254.46523,44,31,0
255.4832,255.74182,48,32,0
255.4832,255.74182,51,32,0
255.74182,255.99393,49,28,0
255.74182,255.99393,46,23,0
255.99393,256.28564,46,27,0
255.99393,256.28564,39,23,0
256.28564,256.53555,44,29,0
256.28564,256.53555,36,24,0
256.28564,256.53555,32,24,0
258.29077,258.41437,56,26,0
258.41437,258.54013,60,22,0
258.54013,258.6632,48,22,0
258.6632,258.78824,51,22,0
258.78824,258.91324,56,24,0
258.91324,259.03775,60,18,0
259.03775,259.16336,48,18,0
259.16336,259.2938,51,18,0
259.2938,259.41827,56,26,0
259.41827,259.54276,60,22,0
259.54276,259.66724,48,22,0
259.66724,259.79172,51,22,0
259.79172,259.9162,56,31,0
259.9162,260.04068,60,24,0
260.04068,260.16516,48,24,0
260.16516,260.2936,51,24,0
260.2936,260.4176,58,34,0
260.4176,260.5412,60,24,0
260.5412,260.66467,48,24,0
260.66467,260.78766,52,24,0
260.78766,260.91052,58,37,0
260.91052,261.03296,60,29,0
261.03296,261.1552,52,31,0
261.1552,261.27716,58,31,0
261.27716,261.3988,60,47,0
261.3988,261.52026,64,33,0
261.52026,261.64127,58,34,0
261.64127,261.76218,60,35,0
261.76218,261.88266,64,51,0
261.88266,262.00296,70,39,0
262.00296,262.123,60,41,0
262.123,262.24268,64,42,0
262.24268,262.36462,70,56,0
262.36462,262.48657,72,45,0
262.48657,262.60852,60,47,0
262.60852,262.7305,64,49,0
262.7305,262.85245,70,60,0
262.85245,262.9744,72,48,0
262.9744,263.09634,60,50,0
263.09634,263.2183,64,51,0
263.2183,263.34586,70,64,0
263.34586,263.4735,72,50,0
263.4735,263.6012,60,52,0
263.6012,263.72903,64,55,0
263.72903,263.8592,70,69,0
263.8592,263.99112,72,59,0
263.99112,264.12518,60,61,0
264.12518,264.26114,64,63,0
264.26114,264.36423,60,55,0
264.36423,264.46735,65,60,0
264.46735,264.57043,68,66,0
264.57043,265.39233,72,76,0
265.39233,265.54086,70,57,0
265.54086,265.94446,68,67,0
265.94446,266.07898,70,58,0
266.07898,266.47546,67,68,0
266.47546,266.6076,68,51,0
266.6076,267.00583,65,60,0
267.00583,267.13858,66,51,0
267.13858,267.53506,63,62,0
267.53506,267.6672,65,52,0
267.6672,268.069,61,60,0
268.069,268.20294,63,51,0
268.20294,268.60117,60,60,0
268.60117,268.7339,61,51,0
268.7339,269.13214,58,60,0
269.13214,269.26486,60,53,0
269.26486,269.66312,56,63,0
269.66312,269.79584,58,60,0
269.79584,270.20493,54,68,0
270.20493,270.3413,56,63,0
270.3413,270.76785,53,72,0
270.76785,270.91003,55,67,0
270.91003,271.20853,52,78,0
271.50705,271.80554,70,66,0
271.50705,271.80554,67,66,0
271.50705,271.80554,73,79,0
272.652,272.7161,72,41,0
272.7161,272.7802,73,41,0
272.7802,272.8443,75,37,0
272.8443,273.24698,73,47,0
273.24698,273.3985,72,41,0
273.3985,273.983,72,47,0
273.983,274.71448,77,53,0
274.71448,274.89548,67,39,0
274.89548,275.07645,70,39,0
275.07645,275.25745,73,44,0
275.25745,275.44318,70,38,0
275.44318,275.63367,67,37,0
275.63367,276.8285,65,46,0
276.8285,277.12958,64,41,0
277.12958,277.27472,78,51,0
277.27472,277.4184,79,53,0
277.4184,277.56064,80,56,0
277.56064,277.7015,81,58,0
277.7015,277.84103,82,61,0
277.84103,277.97922,83,63,0
277.97922,278.0823,72,55,0
278.0823,278.1854,77,60,0
278.1854,278.28848,80,66,0
278.28848,279.1104,84,75,0
279.1104,279.2589,82,47,0
279.2589,279.64554,80,60,0
279.64554,279.7783,92,60,0
279.7783,280.15866,79,60,0
280.15866,280.292,91,58,0
280.292,280.67896,77,60,0
280.67896,280.8117,89,58,0
280.8117,281.1981,75,62,0
281.1981,281.33084,87,68,0
281.33084,281.7201,73,60,0
281.7201,281.85403,85,65,0
281.85403,282.24316,72,60,0
282.24316,282.3771,84,61,0
282.3771,282.50107,70,60,0
282.50754,282.63657,82,52,0
282.63037,282.75433,70,52,0
282.75433,282.88367,82,47,0
282.88367,283.00763,68,63,0
283.00763,283.13693,80,56,0
283.13693,283.26193,68,57,0
283.26193,283.3918,80,60,0
283.3918,283.5184,66,68,0
283.5184,283.65112,78,62,0
283.65112,283.77988,66,63,0
283.77988,283.91443,78,58,0
283.91443,284.0566,65,72,0
284.0566,284.19876,77,65,0
284.19876,284.34094,65,67,0
284.34094,284.48312,77,62,0
284.48312,284.78165,64,70,0
284.48312,284.78165,76,83,0
285.08014,285.37866,79,75,0
285.08014,285.37866,82,75,0
285.08014,285.37866,85,90,0
286.2251,286.2892,72,41,0
286.2892,286.3533,73,41,0
286.3533,286.41742,75,38,0
286.41742,286.8201,73,47,0
286.8201,286.97162,72,41,0
286.97162,287.16867,72,46,0
287.16867,287.36066,80,53,0
287.36066,287.54755,79,47,0
287.54755,287.73447,77,47,0
287.73447,287.9214,72,43,0
287.9214,288.1083,68,43,0
288.1083,288.30438,67,47,0
288.30438,288.49335,75,52,0
288.49335,288.67514,72,39,0
288.67514,288.85696,73,44,0
288.85696,289.04312,70,38,0
289.04312,289.23358,67,37,0
289.23358,289.42227,65,53,0
289.42227,289.60327,60,48,0
289.60327,289.78427,65,49,0
289.78427,289.96124,68,58,0
289.96124,290.14145,65,50,0
290.14145,290.3301,73,51,0
290.3301,290.63315,72,66,0
290.9362,291.1623,67,66,0
290.9362,291.1623,72,66,0
290.9362,291.1623,76,78,0
291.53918,291.76996,77,78,0
291.53918,291.76996,72,66,0
291.53918,291.76996,68,66,0
291.8469,291.9664,68,45,0
291.9664,292.08594,72,28,0
292.08594,292.20404,68,39,0
292.20404,292.32373,72,28,0
292.32373,292.44275,68,38,0
292.44275,292.56622,72,31,0
292.56622,292.68378,67,45,0
292.68378,292.80237,71,30,0
292.80237,292.9188,68,45,0
292.9188,293.0383,72,32,0
293.0383,293.15707,68,39,0
293.15707,293.2764,72,27,0
293.2764,293.39465,68,40,0
293.39465,293.5234,72,30,0
293.5234,293.6415,69,45,0
293.6415,293.75964,75,31,0
293.75964,293.8773,70,38,0
293.8773,293.99493,73,30,0
293.99493,294.1116,70,38,0
294.1116,294.22946,73,31,0
294.22946,294.34656,70,33,0
294.34656,294.47815,73,28,0
294.47815,294.59534,73,47,0
294.59534,294.71252,77,38,0
294.71252,294.8297,70,45,0
294.8297,294.9469,73,32,0
294.9469,295.0641,68,40,0
295.0641,295.18127,73,31,0
295.18127,295.30222,67,37,0
295.30222,295.4232,73,31,0
295.4232,295.53876,68,45,0
295.53876,295.6557,75,30,0
295.6557,295.77197,68,36,0
295.77197,295.88867,72,27,0
295.88867,296.00595,68,38,0
296.00595,296.12363,72,31,0
296.12363,296.2402,68,33,0
296.2402,296.35632,72,28,0
296.35632,296.4749,68,47,0
296.4749,296.59354,72,30,0
296.59354,296.7118,66,35,0
296.7118,296.83075,70,31,0
296.83075,296.94858,66,40,0
296.94858,297.06702,70,28,0
297.06702,297.18588,66,36,0
297.18588,297.31577,70,29,0
297.31577,297.4334,66,45,0
297.4334,297.55206,70,27,0
297.55206,297.6723,65,34,0
297.6723,297.7902,68,27,0
297.7902,297.9088,65,36,0
297.9088,298.02704,68,27,0
298.02704,298.1456,65,32,0
298.1456,298.27548,68,28,0
298.27548,298.3943,65,45,0
298.3943,298.51337,68,27,0
298.51337,298.63254,64,33,0
298.63254,298.75214,67,27,0
298.75214,298.86954,64,39,0
298.86954,298.98907,67,28,0
298.98907,299.1077,64,36,0
299.1077,299.22675,67,29,0
299.22675,299.4946,65,54,0
299.4946,299.61258,69,45,0
299.61258,299.73135,72,28,0
299.73135,299.85013,69,39,0
299.85013,299.96973,72,28,0
299.96973,300.0889,69,38,0
300.0889,300.21237,72,31,0
300.21237,300.33118,68,45,0
300.33118,300.449,71,30,0
300.449,300.56677,69,45,0
300.56677,300.68576,72,32,0
300.68576,300.80292,69,39,0
300.80292,300.923,72,27,0
300.923,301.04193,69,40,0
301.04193,301.1707,72,30,0
301.1707,301.2888,69,45,0
301.2888,301.4069,75,31,0
301.4069,301.52286,70,38,0
301.52286,301.63937,74,30,0
301.63937,301.75504,70,38,0
301.75504,301.8715,74,31,0
301.8715,301.98804,70,33,0
301.98804,302.11963,74,28,0
302.11963,302.23468,74,47,0
302.23468,302.34982,77,38,0
302.34982,302.46698,70,45,0
302.46698,302.58206,74,32,0
302.58206,302.69858,69,40,0
302.69858,302.81454,74,31,0
302.81454,302.93552,68,37,0
302.93552,303.0565,74,31,0
303.0565,303.17255,69,45,0
303.17828,303.29486,74,30,0
303.28897,303.4055,69,36,0
303.4055,303.52203,72,27,0
303.52203,303.63873,69,38,0
303.63873,303.7546,72,31,0
303.7546,303.87155,69,33,0
303.87155,303.98856,72,28,0
303.98856,304.10602,69,47,0
304.10602,304.22446,72,30,0
304.22446,304.34265,62,35,0
304.34265,304.46115,67,31,0
304.46115,304.57565,70,50,0
304.57565,304.69016,74,34,0
304.69016,304.80466,72,43,0
304.80466,304.93454,70,35,0
304.93454,305.0531,67,45,0
305.0531,305.1717,70,27,0
305.1717,305.29025,60,34,0
305.29025,305.40884,65,27,0
305.40884,305.52377,69,47,0
305.52377,305.63873,72,35,0
305.63873,305.75366,70,41,0
305.75366,305.88354,69,36,0
305.88354,306.00305,66,45,0
306.00305,306.1226,69,27,0
306.1226,306.2421,60,33,0
306.2421,306.36163,64,27,0
306.36163,306.47702,67,46,0
306.47702,306.5924,70,36,0
306.5924,306.70776,69,40,0
306.70776,306.82315,67,34,0
306.82315,307.09103,65,50,0
307.09103,307.21054,69,45,0
307.21054,307.33008,72,28,0
307.33008,307.44916,69,39,0
307.44916,307.56882,72,28,0
307.56882,307.6885,69,38,0
307.6885,307.81195,72,31,0
307.81195,307.9302,68,45,0
307.9302,308.04956,71,30,0
308.04956,308.16824,69,45,0
308.16824,308.28653,72,32,0
308.28653,308.40674,69,39,0
308.40674,308.52518,72,27,0
308.52518,308.64438,69,40,0
308.64438,308.77313,72,30,0
308.77313,308.8956,69,45,0
308.8956,309.01273,72,37,0
309.01273,309.1322,70,44,0
309.1322,309.2487,73,39,0
309.2487,309.3676,76,52,0
309.3676,309.48474,79,46,0
309.48474,309.60327,69,44,0
309.60327,309.72083,72,36,0
309.72083,309.8355,70,48,0
309.8355,309.95242,73,51,0
309.95242,310.06888,76,55,0
310.06888,310.18454,79,58,0
310.18454,310.29916,77,61,0
310.29916,310.41605,76,59,0
310.41605,310.53247,74,57,0
310.53247,310.658,76,62,0
310.658,310.88965,77,67,0
310.88965,311.00803,69,51,0
311.00803,311.1268,72,32,0
311.1268,311.24573,69,44,0
311.24573,311.36523,72,32,0
311.36523,311.4837,69,43,0
311.4837,311.60718,72,35,0
311.60718,311.7259,68,51,0
311.7259,311.84424,71,34,0
311.84424,311.963,69,51,0
311.963,312.08163,72,36,0
312.08163,312.19888,69,44,0
312.19888,312.3179,72,31,0
312.3179,312.4368,69,46,0
312.4368,312.56555,72,34,0
312.56555,312.6885,71,51,0
312.6885,312.80542,74,42,0
312.80542,312.9225,72,50,0
312.9225,313.03943,75,44,0
313.03943,313.15625,78,59,0
313.15625,313.2735,81,52,0
313.2735,313.3914,71,50,0
313.3914,313.50858,74,41,0
313.50858,313.62408,72,55,0
313.62408,313.73904,75,58,0
313.73904,313.85403,78,63,0
313.85403,313.96976,81,66,0
313.96976,314.08673,79,70,0
314.08673,314.20142,78,67,0
314.20142,314.31723,76,65,0
314.31723,314.44275,78,71,0
314.44275,314.6744,79,77,0
314.6744,314.7936,70,51,0
314.7936,314.91248,74,32,0
314.91248,315.03052,70,44,0
315.03052,315.15033,74,32,0
315.15033,315.26956,70,43,0
315.26956,315.393,74,35,0
315.393,315.51135,69,51,0
315.51135,315.63098,73,34,0
315.63098,315.7487,70,51,0
315.7487,315.86917,74,36,0
315.86917,315.9882,70,44,0
315.9882,316.10745,74,31,0
316.10745,316.2256,70,46,0
316.2256,316.35434,74,34,0
316.35434,316.47015,79,72,0
316.47015,316.58865,70,35,0
316.58865,316.70828,73,46,0
316.70828,316.8276,70,32,0
316.8276,316.9475,72,44,0
316.9475,317.06616,70,32,0
317.06616,317.18567,73,43,0
317.18567,317.30914,70,35,0
317.30914,317.4254,77,67,0
317.4254,317.54413,69,34,0
317.54413,317.6629,74,45,0
317.6629,317.7815,69,36,0
317.7815,317.90097,72,44,0
317.90097,318.0195,69,31,0
318.0195,318.13916,77,63,0
318.13916,318.2679,69,34,0
318.2679,318.38376,82,72,0
318.2679,318.38376,79,61,0
318.38376,318.5022,70,35,0
318.5022,318.62195,73,46,0
318.62195,318.7401,70,32,0
318.7401,318.85934,72,44,0
318.85934,318.9777,70,32,0
318.9777,319.0975,73,43,0
319.0975,319.22098,70,35,0
319.22098,319.33725,77,56,0
319.22098,319.33725,81,67,0
319.33725,319.45578,69,34,0
319.45578,319.57498,74,45,0
319.57498,319.69354,69,36,0
319.69354,319.8134,72,44,0
319.8134,319.93228,69,31,0
319.93228,320.05133,77,63,0
320.05133,320.18008,69,34,0
320.18008,320.30634,81,70,0
320.30634,320.43417,84,52,0
320.43417,320.5621,74,57,0
320.5621,320.69037,79,53,0
320.69037,320.80933,82,62,0
320.80933,320.92828,86,69,0
320.92828,321.04758,84,57,0
321.04758,321.1678,82,57,0
321.1678,321.296,79,63,0
321.296,321.4242,82,53,0
321.4242,321.54324,72,53,0
321.54324,321.6623,77,50,0
321.6623,321.7809,81,62,0
321.7809,321.8998,84,67,0
321.8998,322.0184,82,53,0
322.0184,322.14716,81,49,0
322.14716,322.2759,78,66,0
322.2759,322.40466,81,47,0
322.40466,322.52466,72,53,0
322.52466,322.64468,76,50,0
322.64468,322.76468,79,61,0
322.76468,322.88467,82,66,0
322.88467,323.00467,81,53,0
323.00467,323.12466,79,49,0
323.12466,323.24326,77,67,0
323.24326,323.36182,76,57,0
323.36182,323.4804,74,64,0
323.4804,323.5989,73,65,0
323.5989,323.71796,72,67,0
323.71796,323.839,70,68,0
323.839,323.96213,69,69,0
323.96213,324.08743,67,71,0
324.08743,324.3406,65,75,0
324.3406,324.4611,53,72,0
324.58157,324.70206,53,72,0
324.82254,324.95355,53,72,0
325.08453,325.3255,52,78,0
325.3255,325.44598,53,69,0
325.56647,325.68695,53,69,0
325.80743,325.93347,53,69,0
326.05954,326.4181,54,72,0
326.4181,326.47787,55,64,0
326.47787,326.53763,57,59,0
326.53763,326.89618,55,72,0
326.89618,326.95596,57,65,0
326.95596,327.01425,58,62,0
327.01425,327.12897,60,72,0
327.24316,327.35678,64,70,0
327.35678,327.46988,67,70,0
327.46988,327.58243,72,67,0
327.58243,327.69525,76,70,0
327.69525,327.8107,79,73,0
327.8107,327.92896,84,75,0
327.92896,328.16705,77,78,0
328.16705,328.28754,53,72,0
328.40802,328.5285,53,72,0
328.649,328.78,53,72,0
328.91098,329.15195,52,78,0
329.15195,329.27243,53,69,0
329.3929,329.5134,53,69,0
329.63388,329.75992,53,69,0
329.886,330.24454,54,72,0
330.24454,330.30432,55,64,0
330.30432,330.36407,57,59,0
330.36407,330.72263,55,72,0
330.72263,330.7824,57,65,0
330.7824,330.8407,58,60,0
330.8407,330.9554,60,72,0
331.0696,331.18323,61,70,0
331.18323,331.29633,64,70,0
331.29633,331.40887,69,67,0
331.40887,331.5217,73,70,0
331.5217,331.63715,76,73,0
331.63715,331.7554,81,75,0
331.7554,331.9935,74,78,0
331.9935,332.11398,53,61,0
331.9935,332.11398,62,72,0
332.23447,332.35495,62,72,0
332.23447,332.35495,53,61,0
332.47543,332.60095,62,72,0
332.47543,332.60095,53,61,0
332.72647,332.96744,61,78,0
332.72647,332.96744,53,61,0
332.96744,333.08792,62,69,0
332.96744,333.08792,53,58,0
333.2084,333.3289,53,58,0
333.2084,333.3289,62,69,0
333.44937,333.5754,62,69,0
333.44937,333.5754,53,58,0
333.70148,334.06003,62,72,0
334.06003,334.11978,63,64,0
334.11978,334.17957,65,59,0
333.70148,334.17957,56,61,0
334.17957,334.4186,55,61,0
334.17957,334.53812,63,72,0
334.53812,334.59787,65,65,0
334.59787,334.6562,66,61,0
334.6562,334.7709,57,61,0
334.6562,334.7709,63,61,0
334.6562,334.7709,65,72,0
334.8851,334.99872,69,70,0
334.99872,335.1118,72,70,0
335.1118,335.22437,77,67,0
335.22437,335.3372,81,70,0
335.3372,335.4526,84,73,0
335.4526,335.5709,89,75,0
335.5709,335.809,82,78,0
335.809,335.92947,53,61,0
335.809,335.92947,62,72,0
336.04996,336.17044,62,72,0
336.04996,336.17044,53,61,0
336.29092,336.41437,62,72,0
336.29092,336.41437,53,61,0
336.53784,336.77878,53,61,0
336.53784,336.77878,61,78,0
336.77878,336.89926,62,69,0
336.77878,336.89926,53,58,0
337.01974,337.14023,53,58,0
337.01974,337.14023,62,69,0
337.2607,337.38678,62,69,0
337.2607,337.38678,53,58,0
337.51282,337.74905,59,61,0
337.51282,337.74905,62,61,0
337.51282,337.74905,68,78,0
337.74905,337.86905,67,69,0
337.74905,337.86905,62,58,0
337.74905,337.86905,59,58,0
337.98904,338.10715,67,69,0
337.98904,338.10715,62,58,0
337.98904,338.10715,59,58,0
338.22525,338.3472,59,58,0
338.22525,338.3472,67,69,0
338.22525,338.3472,62,58,0
338.46918,338.5839,60,61,0
338.46918,338.5839,64,72,0
338.8117,338.92477,67,70,0
338.69806,338.92477,64,70,0
338.92477,339.03732,72,67,0
339.03732,339.15015,76,70,0
339.15015,339.2656,79,73,0
339.2656,339.38385,84,75,0
339.38385,339.61642,64,61,0
339.38385,339.61642,70,78,0
339.38385,339.61642,61,61,0
339.61642,339.73547,61,58,0
339.61642,339.73547,69,69,0
339.61642,339.73547,64,58,0
339.85452,339.97125,61,58,0
339.85452,339.97125,69,69,0
339.85452,339.97125,64,58,0
340.08798,340.21402,69,69,0
340.08798,340.21402,61,58,0
340.08798,340.21402,64,58,0
340.3401,340.4548,66,72,0
340.3401,340.4548,62,61,0
340.68262,340.7957,69,70,0
340.569,340.7957,66,70,0
340.7957,340.90823,74,67,0
340.90823,341.0211,78,70,0
341.0211,341.1365,81,73,0
341.1365,341.25476,86,75,0
341.25476,341.5134,87,87,0
341.25476,341.5134,75,73,0
341.5134,341.69055,74,63,0
341.5134,341.69055,86,75,0
341.7496,341.9795,74,73,0
341.7496,341.9795,86,87,0
341.9795,342.15668,73,63,0
341.9795,342.15668,85,75,0
342.21573,342.44473,85,86,0
342.21573,342.44473,73,73,0
342.44473,342.61716,74,59,0
342.44473,342.61716,86,70,0
342.67462,342.90103,74,66,0
342.67462,342.90103,86,78,0
342.90103,343.07278,81,70,0
342.90103,343.07278,69,59,0
343.13004,343.35104,67,65,0
343.13004,343.35104,79,77,0
343.35104,343.52148,66,57,0
343.35104,343.52148,78,68,0
343.5783,343.803,66,57,0
343.5783,343.803,78,68,0
343.803,343.9802,76,68,0
343.803,343.9802,64,57,0
344.03925,344.2674,76,74,0
344.03925,344.2674,64,62,0
344.2674,344.3842,74,64,0
344.2674,344.3842,62,54,0
344.49905,344.61407,74,67,0
344.49905,344.61407,62,56,0
344.72717,344.84723,62,54,0
344.72717,344.84723,74,64,0
344.96527,345.19,75,69,0
344.96527,345.19,63,58,0
345.19,345.36307,62,50,0
345.19,345.36307,74,60,0
345.42075,345.64633,74,69,0
345.42075,345.64633,62,58,0
345.64633,345.81873,61,50,0
345.64633,345.81873,73,60,0
345.87622,346.10178,61,58,0
345.87622,346.10178,73,68,0
346.10178,346.2742,74,56,0
346.10178,346.2742,62,47,0
346.33167,346.55554,62,52,0
346.33167,346.55554,74,62,0
346.55554,346.7273,69,56,0
346.55554,346.7273,57,47,0
346.78455,347.00555,55,49,0
346.78455,347.00555,67,57,0
347.00555,347.176,54,42,0
347.00555,347.176,66,50,0
347.23282,347.45505,54,41,0
347.23282,347.45505,66,49,0
347.45505,347.6281,52,40,0
347.45505,347.6281,64,48,0
347.6858,347.91138,64,51,0
347.6858,347.91138,52,43,0
347.91138,348.02817,50,36,0
347.91138,348.02817,62,43,0
348.14304,348.25674,62,44,0
348.14304,348.25674,50,36,0
348.3686,348.4863,50,35,0
348.3686,348.4863,62,41,0
348.60205,348.7158,62,39,0
348.60205,348.7158,50,32,0
348.8276,348.9453,50,31,0
348.8276,348.9453,62,36,0
349.0611,349.1748,50,32,0
349.0611,349.1748,62,39,0
349.28665,349.40436,62,36,0
349.28665,349.40436,50,31,0
349.5201,349.63382,62,39,0
349.5201,349.63382,50,32,0
349.74567,349.86572,62,36,0
349.74567,349.86572,50,31,0
349.98376,350.10056,50,32,0
349.98376,350.10056,62,39,0
350.21542,350.3399,50,31,0
350.21542,350.3399,62,36,0
350.46234,350.70044,55,21,0
350.46234,350.70044,58,21,0
350.46234,350.70044,61,33,0
350.46234,350.70044,52,21,0
350.70044,350.82544,58,21,0
350.70044,350.82544,52,21,0
350.70044,350.82544,55,21,0
350.70044,350.82648,60,30,0
350.95044,351.07043,52,21,0
350.95044,351.07043,55,21,0
350.95044,351.07144,58,21,0
350.95044,351.07144,60,33,0
351.1904,351.3114,52,20,0
351.1904,351.3114,55,20,0
351.1904,351.3124,60,30,0
351.1904,351.3124,58,20,0
351.43512,351.56177,55,21,0
351.43512,351.56177,52,21,0
351.43512,351.56284,60,33,0
351.43512,351.56284,58,21,0
351.69147,351.8244,52,20,0
351.69147,351.8244,55,20,0
351.69147,351.82553,58,20,0
351.69147,351.82553,60,30,0
351.96072,352.09875,52,21,0
351.96072,352.09875,55,21,0
351.96072,352.0999,58,21,0
351.96072,352.0999,60,33,0
352.23853,352.38034,55,20,0
352.23853,352.38034,52,20,0
352.23853,352.38162,60,30,0
352.23853,352.38162,58,20,0
352.53497,352.81406,57,28,0
352.53497,352.81406,60,35,0
352.53497,352.81406,53,28,0
352.81406,353.00885,60,23,0
352.81406,353.00885,69,29,0
352.81406,353.00885,65,23,0
353.0738,353.2686,60,23,0
353.0738,353.2686,69,29,0
353.0738,353.2686,65,23,0
353.33353,353.53265,60,23,0
353.33353,353.53265,69,29,0
353.33353,353.53265,65,23,0
353.599,353.86334,59,26,0
353.599,353.86334,68,33,0
353.599,353.86334,65,26,0
353.86334,354.06155,60,22,0
353.86334,354.06155,65,22,0
353.86334,354.06155,69,28,0
354.12766,354.3259,60,24,0
354.12766,354.3259,69,31,0
354.12766,354.3259,65,24,0
354.39197,354.59467,60,27,0
354.39197,354.59467,65,27,0
354.39197,354.59467,69,34,0
354.66223,354.95068,63,30,0
354.66223,354.95068,65,30,0
354.66223,354.95068,72,38,0
354.95068,355.13977,65,25,0
354.95068,355.13977,62,25,0
354.95068,355.13977,70,32,0
355.2028,355.39594,70,32,0
355.2028,355.39594,62,25,0
355.2028,355.39594,65,25,0
355.4603,355.6612,65,25,0
355.4603,355.6612,70,32,0
355.4603,355.6612,62,25,0
355.72815,355.9879,62,20,0
355.72815,355.9879,65,26,0
355.72815,355.9879,70,33,0
355.9879,356.24765,62,24,0
355.9879,356.24765,60,24,0
355.9879,356.24765,69,30,0
356.24765,356.5074,62,24,0
356.24765,356.5074,58,24,0
356.24765,356.5074,67,30,0
356.5074,356.77524,57,24,0
356.5074,356.77524,65,30,0
356.5074,356.77524,62,24,0
356.77524,357.03955,60,28,0
356.77524,357.03955,65,35,0
356.77524,357.03955,57,28,0
357.03955,357.23438,60,23,0
357.03955,357.23438,55,23,0
357.03955,357.23438,64,29,0
357.2993,357.4941,60,23,0
357.2993,357.4941,55,23,0
357.2993,357.4941,64,29,0
357.55905,357.75815,60,23,0
357.55905,357.75815,55,23,0
357.55905,357.75815,64,29,0
357.82452,358.02277,55,26,0
357.82452,358.02277,64,33,0
357.82452,358.02277,60,26,0
358.08884,358.29065,55,22,0
358.08884,358.29065,64,28,0
358.08884,358.29065,60,22,0
358.3579,358.63187,57,24,0
358.3579,358.63187,65,31,0
358.3579,358.63187,60,24,0
358.63187,358.91357,60,27,0
358.63187,358.91357,67,34,0
358.63187,358.91357,58,27,0
358.91357,359.20483,58,30,0
358.91357,359.20483,60,38,0
359.20483,359.3939,57,25,0
359.20483,359.3939,65,32,0
359.20483,359.3939,60,25,0
359.45694,359.65005,60,25,0
359.45694,359.65005,65,32,0
359.45694,359.65005,57,25,0
359.71445,359.91534,57,25,0
359.71445,359.91534,65,32,0
359.71445,359.91534,60,25,0
359.9823,360.1771,65,33,0
359.9823,360.1771,60,26,0
359.9823,360.1771,57,20,0
360.24203,360.4543,57,24,0
360.24203,360.4543,60,24,0
360.24203,360.4543,65,30,0
360.59,360.92117,69,42,0
360.59,360.92117,60,35,0
360.52505,360.92117,65,30,0
360.92117,361.05753,57,24,0
360.92117,361.05753,65,30,0
360.92117,361.05753,60,24,0
361.05753,361.34738,65,35,0
361.05753,361.34738,60,28,0
361.05753,361.34738,57,28,0
361.34738,361.54736,60,23,0
361.34738,361.54736,64,29,0
361.34738,361.54736,55,23,0
361.61404,361.81055,64,29,0
361.61404,361.81055,55,23,0
361.61404,361.81055,60,23,0
361.87607,362.07516,60,23,0
361.87607,362.07516,55,23,0
361.87607,362.07516,64,29,0
362.14154,362.33978,60,26,0
362.14154,362.33978,64,33,0
362.14154,362.33978,55,26,0
362.40585,362.60587,55,22,0
362.40585,362.60587,60,22,0
362.40585,362.60587,64,28,0
362.67252,362.94278,65,31,0
362.67252,362.94278,60,24,0
362.67252,362.94278,57,24,0
362.94278,363.22186,60,27,0
362.94278,363.22186,58,27,0
362.94278,363.22186,67,34,0
363.22186,363.49835,60,38,0
363.22186,363.49835,58,30,0
363.49835,363.68744,60,25,0
363.49835,363.68744,65,32,0
363.49835,363.68744,57,25,0
363.75046,363.9436,65,32,0
363.75046,363.9436,60,25,0
363.75046,363.9436,57,25,0
364.00797,364.20886,65,32,0
364.00797,364.20886,60,25,0
364.00797,364.20886,57,25,0
364.27582,364.4881,57,20,0
364.27582,364.4881,60,26,0
364.27582,364.4881,65,33,0
364.55884,364.83157,69,27,0
364.55884,364.83157,72,34,0
364.83157,365.0913,72,27,0
364.83157,365.0913,77,42,0
364.83157,365.0913,69,27,0
365.0913,365.35916,72,27,0
365.0913,365.35916,76,27,0
365.0913,365.35916,79,34,0
365.63824,365.83304,77,26,0
365.63824,365.83304,81,33,0
365.63824,365.83304,72,26,0
365.89798,366.0928,77,26,0
365.89798,366.0928,72,26,0
365.89798,366.0928,81,33,0
366.1577,366.35684,72,26,0
366.1577,366.35684,81,33,0
366.1577,366.35684,77,26,0
366.42322,366.68753,80,37,0
366.42322,366.68753,77,29,0
366.42322,366.68753,71,29,0
366.68753,366.88577,81,32,0
366.68753,366.88577,77,25,0
366.68753,366.88577,72,25,0
366.95184,367.1501,72,27,0
366.95184,367.1501,81,35,0
366.95184,367.1501,77,27,0
367.21616,367.41885,72,31,0
367.21616,367.41885,77,31,0
367.21616,367.41885,81,39,0
367.48642,367.77353,77,34,0
367.48642,367.77353,75,34,0
367.48642,367.77353,84,43,0
367.77353,367.9626,77,28,0
367.77353,367.9626,82,36,0
367.77353,367.9626,74,28,0
368.0256,368.21875,77,28,0
368.0256,368.21875,74,28,0
368.0256,368.21875,82,36,0
368.2831,368.484,82,36,0
368.2831,368.484,77,28,0
368.2831,368.484,74,28,0
368.551,368.81073,82,37,0
368.551,368.81073,74,23,0
368.551,368.81073,77,29,0
368.81073,369.07047,81,34,0
368.81073,369.07047,74,27,0
368.81073,369.07047,72,27,0
369.07047,369.3302,79,34,0
369.07047,369.3302,70,27,0
369.07047,369.3302,74,27,0
369.3302,369.59805,69,27,0
369.3302,369.59805,77,34,0
369.3302,369.59805,74,27,0
369.59805,369.86237,69,32,0
369.59805,369.86237,72,32,0
369.59805,369.86237,77,40,0
369.86237,370.0572,67,26,0
369.86237,370.0572,76,33,0
369.86237,370.0572,72,26,0
370.12213,370.31693,72,26,0
370.12213,370.31693,67,26,0
370.12213,370.31693,76,33,0
370.38187,370.58096,76,33,0
370.38187,370.58096,67,26,0
370.38187,370.58096,72,26,0
370.64734,370.85764,72,29,0
370.64734,370.85764,76,37,0
370.64734,370.85764,67,29,0
370.92773,371.13135,67,25,0
370.92773,371.13135,72,25,0
370.92773,371.13135,76,32,0
371.19922,371.47446,72,27,0
371.19922,371.47446,77,35,0
371.19922,371.47446,69,27,0
371.47446,371.75613,70,31,0
371.47446,371.75613,72,31,0
371.47446,371.75613,79,39,0
371.75613,372.04184,70,34,0
371.75613,372.04184,72,43,0
372.04184,372.23093,69,28,0
372.04184,372.23093,72,28,0
372.04184,372.23093,77,36,0
372.29395,372.4871,69,28,0
372.29395,372.4871,72,28,0
372.29395,372.4871,77,36,0
372.55145,372.75235,69,28,0
372.55145,372.75235,72,28,0
372.55145,372.75235,77,36,0
372.8193,373.01413,69,23,0
372.8193,373.01413,77,37,0
372.8193,373.01413,72,29,0
373.07907,373.29855,69,27,0
373.07907,373.29855,72,27,0
373.07907,373.29855,77,34,0
373.43668,373.7654,72,44,0
373.43668,373.7654,81,52,0
373.37173,373.7654,77,39,0
373.7654,373.89932,77,34,0
373.7654,373.89932,69,27,0
373.7654,373.89932,72,27,0
373.89932,374.16367,77,40,0
373.89932,374.16367,69,32,0
373.89932,374.16367,72,32,0
374.16367,374.35846,76,33,0
374.16367,374.35846,72,26,0
374.16367,374.35846,67,26,0
374.4234,374.6182,76,33,0
374.4234,374.6182,72,26,0
374.4234,374.6182,67,26,0
374.68314,374.88226,76,33,0
374.68314,374.88226,72,26,0
374.68314,374.88226,67,26,0
374.9486,375.14685,72,29,0
374.9486,375.14685,67,29,0
374.9486,375.14685,76,37,0
375.21295,375.41116,76,32,0
375.21295,375.41116,67,25,0
375.21295,375.41116,72,25,0
375.47726,375.74158,72,27,0
375.47726,375.74158,69,27,0
375.47726,375.74158,77,35,0
375.74158,376.01184,72,31,0
375.74158,376.01184,70,31,0
375.74158,376.01184,79,39,0
376.01184,376.29486,72,43,0
376.01184,376.29486,70,34,0
376.29486,376.48395,72,28,0
376.29486,376.48395,69,28,0
376.29486,376.48395,77,36,0
376.54697,376.74008,72,28,0
376.54697,376.74008,69,28,0
376.54697,376.74008,77,36,0
376.80447,377.00537,69,28,0
376.80447,377.00537,77,36,0
376.80447,377.00537,72,28,0
377.07233,377.26712,69,23,0
377.07233,377.26712,77,37,0
377.07233,377.26712,72,29,0
377.33206,377.46844,72,43,0
377.46844,377.6048,84,36,0
377.6048,377.73468,77,43,0
377.73468,377.86453,84,36,0
377.86453,377.99847,79,44,0
377.99847,378.1324,84,36,0
378.1324,378.27194,72,47,0
378.27194,378.41147,84,36,0
378.41147,378.54132,81,43,0
378.54132,378.6712,72,36,0
378.6712,378.8011,72,43,0
378.8011,378.93094,84,36,0
378.93094,379.0637,81,43,0
379.0637,379.19644,72,36,0
379.19644,379.32858,72,46,0
379.32858,379.46075,84,36,0
379.46075,379.5929,81,45,0
379.5929,379.72507,72,36,0
379.72507,379.85724,72,45,0
379.85724,379.98938,84,39,0
379.98938,380.1245,77,46,0
380.1245,380.25964,89,36,0
380.25964,380.4032,77,50,0
380.4032,380.54672,89,36,0
380.54672,380.6728,86,43,0
380.6728,380.79883,77,36,0
380.79883,380.92758,77,50,0
380.92758,381.05634,89,36,0
381.05634,381.19028,86,42,0
381.19028,381.32422,77,36,0
381.32422,381.45407,77,48,0
381.45407,381.58395,89,40,0
381.58395,381.7138,78,51,0
381.7138,381.8437,90,42,0
381.8437,381.97354,79,57,0
381.97354,382.10342,91,43,0
382.10342,382.23737,93,53,0
382.10342,382.23737,81,53,0
382.23737,382.37128,94,59,0
382.23737,382.37128,82,59,0
382.37128,382.50345,84,67,0
382.50345,382.6356,96,53,0
382.6356,382.76547,94,60,0
382.76547,382.89536,84,53,0
382.89536,383.0252,84,63,0
383.0252,383.1551,96,53,0
383.1551,383.2878,94,60,0
383.2878,383.42056,84,50,0
383.42056,383.56076,84,59,0
383.56076,383.70093,96,45,0
383.70093,383.8367,94,56,0
383.8367,383.97244,84,48,0
383.97244,384.11005,93,58,0
384.11005,384.24765,96,47,0
384.24765,384.38852,91,59,0
384.38852,384.52936,96,52,0
384.52936,384.6722,84,64,0
384.6722,384.81506,96,43,0
384.81506,384.94113,93,55,0
384.94113,385.06717,84,44,0
385.06717,385.19592,84,51,0
385.19592,385.32468,96,43,0
385.32468,385.45862,93,47,0
385.45862,385.59253,84,41,0
385.59253,385.7224,84,47,0
385.7224,385.85226,96,39,0
385.85226,385.99863,93,41,0
385.99863,386.14496,84,38,0
386.14496,386.27484,89,47,0
386.27484,386.4047,101,42,0
386.4047,386.53864,84,43,0
386.53864,386.67255,96,37,0
386.67255,386.80472,84,50,0
386.80472,386.9369,96,37,0
386.9369,387.06674,94,44,0
387.06674,387.19662,84,37,0
387.19662,387.32648,84,48,0
387.32648,387.45636,96,37,0
387.45636,387.5891,94,43,0
387.5891,387.72183,84,37,0
387.72183,387.854,84,48,0
387.854,387.98615,96,37,0
387.98615,388.11832,94,48,0
388.11832,388.2505,84,44,0
388.2505,388.38263,93,53,0
388.38263,388.5148,96,46,0
388.5148,388.64993,91,52,0
388.64993,388.78506,96,47,0
388.78506,388.92657,84,58,0
388.92657,389.06808,96,36,0
389.06808,389.19412,93,48,0
389.19412,389.3202,84,41,0
389.3202,389.44894,84,54,0
389.44894,389.5777,96,36,0
389.5777,389.7116,93,48,0
389.7116,389.84555,84,42,0
389.84555,389.97543,84,57,0
389.97543,390.1053,96,41,0
390.1053,390.25165,93,48,0
390.25165,390.39798,84,42,0
390.39798,390.52783,89,53,0
390.52783,390.6577,101,44,0
390.6577,390.79166,84,53,0
390.79166,390.92557,96,47,0
390.92557,391.05774,84,63,0
391.05774,391.18988,96,52,0
391.18988,391.31976,94,62,0
391.31976,391.44968,84,50,0
391.44968,391.58032,84,63,0
391.58032,391.71185,96,54,0
391.71185,391.8443,94,59,0
391.8443,391.97803,84,51,0
391.97803,392.11865,84,64,0
392.11865,392.26227,96,48,0
392.26227,392.4091,94,57,0
392.4091,392.55923,84,46,0
392.55923,392.71152,93,63,0
392.71152,392.8638,96,52,0
392.8638,393.03235,91,59,0
393.03235,393.2009,96,48,0
393.2009,394.6406,91,59,0
394.6406,394.92905,93,66,0
394.92905,395.23056,94,71,0
395.23056,395.53207,95,75,0
395.53207,397.11102,96,79,0
397.11102,397.63733,88,66,0
397.63733,397.7634,89,56,0
397.7634,397.88943,93,49,0
397.88943,398.01547,84,49,0
398.01547,398.14154,89,49,0
398.14154,398.26758,81,56,0
398.26758,398.39365,84,44,0
398.39365,398.51968,77,46,0
398.51968,398.64572,81,46,0
398.64572,398.7718,72,51,0
398.7718,398.89783,77,44,0
398.89783,399.0239,69,44,0
399.0239,399.14993,72,44,0
399.14993,399.276,65,51,0
399.276,399.40204,69,43,0
399.40204,399.52808,60,43,0
399.52808,399.66263,65,43,0
399.66263,399.7871,69,47,0
399.7871,399.9116,72,38,0
399.9116,400.03607,60,38,0
400.03607,400.16055,65,38,0
400.16055,400.28503,69,40,0
400.28503,400.40952,72,36,0
400.40952,400.534,60,35,0
400.534,400.66733,65,34,0
400.66733,400.7913,69,39,0
400.7913,400.91525,72,31,0
400.91525,401.0392,60,30,0
401.0392,401.16318,65,30,0
401.16318,401.28717,69,38,0
401.28717,401.41113,72,29,0
401.41113,401.5351,60,29,0
401.5351,401.66455,65,29,0
403.1662,403.4183,77,38,0
403.1662,403.4183,80,45,0
403.4183,403.71002,79,40,0
403.4183,403.71002,82,48,0
403.71002,404.20963,80,42,0
403.71002,404.20963,84,50,0
404.97656,405.22586,60,37,0
404.97656,405.22586,56,44,0
405.22586,405.4734,55,47,0
405.22586,405.4734,60,39,0
405.4734,405.72473,60,42,0
405.4734,405.72473,53,50,0
405.72473,405.97043,48,55,0
405.72473,405.97043,60,39,0
407.2263,407.4784,82,64,0
407.2263,407.4784,79,54,0
407.4784,407.767,82,51,0
407.4784,407.767,85,61,0
407.767,408.26376,80,48,0
407.767,408.26376,84,57,0
409.27567,409.52344,60,41,0
409.27567,409.52344,56,57,0
409.52344,409.7749,60,39,0
409.52344,409.7749,55,47,0
409.7749,410.02252,60,42,0
409.7749,410.02252,53,50,0
411.27914,411.53122,80,51,0
411.27914,411.53122,77,43,0
411.53122,411.81973,82,55,0
411.53122,411.81973,79,46,0
411.81973,412.31714,84,57,0
411.81973,412.31714,80,48,0
413.0857,413.3357,60,50,0
413.0857,413.3357,63,42,0
413.3357,413.58405,63,42,0
413.3357,413.58405,58,51,0
413.58405,413.8337,63,45,0
413.58405,413.8337,56,54,0
413.8337,414.08228,63,44,0
413.8337,414.08228,51,63,0
415.33725,415.58936,82,62,0
415.33725,415.58936,85,73,0
415.58936,415.88107,89,70,0
415.58936,415.88107,85,58,0
415.88107,416.37335,87,65,0
415.88107,416.37335,84,69,0
417.3787,417.62613,63,43,0
417.3787,417.62613,60,59,0
417.62613,417.87625,58,48,0
417.62613,417.87625,63,40,0
417.87625,418.12415,63,42,0
417.87625,418.12415,56,50,0
419.11954,419.37814,84,61,0
419.37814,419.63025,82,64,0
419.63025,419.94308,80,66,0
419.94308,420.4426,77,66,0
421.1879,421.4465,49,65,0
421.4465,421.6986,48,68,0
421.6986,422.01044,46,71,0
422.01044,423.0039,43,76,0
423.0039,423.25485,44,61,0
423.25485,423.51346,84,68,0
423.51346,423.76556,85,73,0
423.76556,424.05237,86,77,0
424.05237,426.0799,87,82,0
426.0799,426.5762,84,66,0
427.323,427.58163,44,44,0
427.58163,427.83374,46,48,0
427.83374,428.12054,47,45,0
428.12054,430.1499,39,48,0
430.1499,430.64536,32,44,0
431.3884,431.64703,84,55,0
431.3884,431.64703,80,46,0
431.64703,431.89914,80,46,0
431.64703,431.89914,84,55,0
431.89914,432.17224,85,55,0
431.89914,432.17224,80,46,0
432.17224,432.66498,79,51,0
432.17224,432.66498,84,60,0
432.17224,432.66498,82,51,0
432.66498,432.90857,79,55,0
433.3977,433.65634,48,46,0
433.3977,433.65634,60,55,0
433.65634,433.90845,48,46,0
433.65634,433.90845,60,55,0
433.90845,434.18155,43,46,0
433.90845,434.18155,55,55,0
434.18155,434.6728,44,51,0
434.18155,434.6728,56,60,0
434.6728,434.9172,41,50,0
434.6728,434.9172,53,59,0
435.4109,435.6695,84,69,0
435.4109,435.6695,80,58,0
435.6695,435.9216,80,58,0
435.6695,435.9216,84,69,0
435.9216,436.1947,80,58,0
435.9216,436.1947,85,69,0
436.1947,436.68835,84,75,0
436.1947,436.68835,82,53,0
436.1947,436.68835,79,53,0
436.68835,436.93457,79,69,0
437.43082,437.68396,48,52,0
437.43082,437.68396,60,63,0
437.68396,437.93607,48,52,0
437.68396,437.93607,60,63,0
437.93607,438.20917,43,52,0
437.93607,438.20917,55,63,0
438.20917,438.70297,56,69,0
438.20917,438.70297,44,58,0
438.70297,438.9492,41,54,0
438.70297,438.9492,53,64,0
439.45193,439.7174,84,72,0
439.7174,439.99393,84,75,0
439.99393,440.2952,84,79,0
440.2952,440.80933,85,83,0
440.80933,441.81168,49,77,0
441.81168,442.18823,81,70,0
442.18823,442.31375,83,67,0
442.31375,442.80356,85,79,0
442.80356,443.80612,49,77,0
443.80612,444.18112,81,70,0
444.18112,444.30612,83,67,0
444.30612,444.83478,85,77,0
444.83478,445.90274,49,66,0
445.90274,446.49905,48,49,0
446.49905,446.774,47,56,0
447.0386,447.80783,86,63,0
447.80783,448.0818,86,57,0
448.0818,448.34613,88,60,0
448.34613,448.62534,89,60,0
448.62534,448.88065,88,69,0
449.136,449.6466,48,42,0
449.903,450.177,86,63,0
450.177,450.4413,84,56,0
450.4413,450.72052,83,56,0
450.72052,450.98138,81,64,0
451.24228,451.7573,53,29,0
451.7573,452.0148,50,26,0
452.2723,452.79178,81,54,0
452.79178,453.05267,83,58,0
453.31354,453.82855,55,34,0
453.82855,454.34357,56,39,0
454.34357,454.86307,55,35,0
454.86307,455.3848,84,52,0
455.8998,456.93433,48,49,0
456.93433,457.97107,50,61,0
457.97107,459.00558,52,39,0
459.00558,459.5206,53,39,0
460.5914,460.85,77,45,0
460.85,461.14175,79,48,0
460.85,461.14175,76,40,0
461.14175,461.64175,81,50,0
461.14175,461.64175,77,42,0
462.41022,462.66022,60,37,0
462.41022,462.66022,57,44,0
462.66022,462.91037,60,39,0
462.66022,462.91037,55,47,0
462.91037,463.15897,53,50,0
462.91037,463.15897,60,42,0
463.15897,463.40686,60,39,0
463.15897,463.40686,48,55,0
464.66058,464.9127,82,64,0
464.66058,464.9127,79,54,0
464.9127,465.2044,86,61,0
464.9127,465.2044,82,51,0
465.2044,465.70206,84,57,0
465.2044,465.70206,81,48,0
466.7186,466.96228,57,57,0
466.7186,466.96228,60,41,0
466.96228,467.2117,60,39,0
466.96228,467.2117,55,47,0
467.2117,467.4615,53,50,0
467.2117,467.4615,60,42,0
468.71704,468.96915,81,51,0
468.71704,468.96915,77,43,0
468.96915,469.2609,82,55,0
468.96915,469.2609,79,46,0
469.2609,469.75806,84,57,0
469.2609,469.75806,81,48,0
470.52753,470.7775,57,42,0
470.52753,470.7775,60,50,0
470.7775,471.02493,58,42,0
470.7775,471.02493,62,51,0
471.02493,471.27484,64,54,0
471.02493,471.27484,55,45,0
471.27484,471.5222,57,63,0
471.27484,471.5222,65,44,0
470.52753,471.5222,53,42,0
472.524,472.78262,89,69,0
472.524,472.78262,81,58,0
472.78262,473.03473,88,65,0
472.78262,473.03473,84,55,0
473.03473,473.32645,86,63,0
473.03473,473.32645,82,52,0
473.32645,473.82523,84,61,0
473.32645,473.82523,81,60,0
474.59045,474.84906,57,48,0
474.59045,474.84906,60,48,0
474.84906,475.10117,58,41,0
474.84906,475.10117,55,34,0
475.10117,475.3929,55,39,0
475.10117,475.3929,48,33,0
475.3929,475.6429,53,40,0
475.3929,475.6429,57,48,0
476.92203,477.1911,77,30,0
476.92203,477.1911,81,36,0
477.1911,477.50113,79,32,0
477.1911,477.50113,82,38,0
477.50113,478.00546,84,41,0
477.50113,478.00546,81,34,0
478.78384,479.03394,60,30,0
478.78384,479.03394,57,25,0
479.03394,479.28925,62,32,0
479.03394,479.28925,58,27,0
479.28925,479.5446,55,28,0
479.28925,479.5446,64,34,0
479.5446,479.7946,57,37,0
479.5446,479.7946,65,44,0
478.78384,479.7946,53,25,0
480.81937,481.08484,89,42,0
480.81937,481.08484,81,35,0
481.08484,481.34348,84,33,0
481.08484,481.34348,88,39,0
481.34348,481.6352,86,36,0
481.34348,481.6352,82,30,0
481.6352,482.14368,81,35,0
481.6352,482.14368,84,42,0
482.93616,483.20282,60,37,0
482.93616,483.20282,57,37,0
483.20282,483.46033,58,33,0
483.20282,483.46033,55,28,0
483.46033,483.75204,55,33,0
483.46033,483.75204,48,28,0
483.75204,484.00577,57,37,0
483.75204,484.00577,53,31,0
485.0296,485.29868,57,37,0
485.0296,485.29868,60,37,0
485.29868,485.5584,58,33,0
485.29868,485.5584,55,28,0
485.5584,485.85495,48,28,0
485.5584,485.85495,55,33,0
485.85495,486.1055,53,31,0
485.85495,486.1055,57,37,0
487.1216,487.38712,57,32,0
487.1216,487.38712,60,32,0
487.38712,487.64572,55,23,0
487.38712,487.64572,58,28,0
487.64572,487.93863,55,27,0
487.64572,487.93863,48,23,0
487.93863,488.19073,53,29,0
487.93863,488.19073,41,24,0
487.93863,488.19073,45,24,0
489.97632,490.09827,65,47,0
490.09827,490.2202,68,39,0
490.2202,490.34216,56,39,0
490.34216,490.4641,60,43,0
490.4641,490.58606,65,54,0
490.58606,490.708,68,45,0
490.708,490.83,56,45,0
490.83,490.95193,60,48,0
490.95193,491.0795,65,64,0
491.0795,491.20715,68,50,0
491.20715,491.3348,56,52,0
491.3348,491.46268,60,55,0
491.46268,491.5928,68,69,0
491.5928,491.72476,72,59,0
491.72476,491.85883,60,61,0
491.85883,491.99478,65,63,0
491.99478,492.09787,60,55,0
492.09787,492.20096,65,60,0
492.20096,492.30405,68,66,0
492.30405,493.12598,72,77,0
493.12598,493.27448,70,47,0
493.27448,493.6622,68,60,0
493.6622,493.79492,70,54,0
493.79492,494.1753,67,60,0
494.1753,494.30862,68,51,0
494.30862,494.44138,65,60,0
494.44138,494.5049,67,48,0
494.5049,494.56848,65,48,0
494.56848,494.63205,64,48,0
494.63205,494.6956,65,45,0
494.6956,494.82834,66,45,0
494.82834,494.9605,63,62,0
494.9605,495.02405,65,49,0
495.02405,495.08762,63,49,0
495.08762,495.15118,62,49,0
495.15118,495.21475,63,44,0
495.21475,495.34747,65,47,0
495.34747,495.4814,61,60,0
495.4814,495.54523,63,49,0
495.54523,495.60907,61,49,0
495.60907,495.6729,60,49,0
495.6729,495.73672,61,46,0
495.73672,495.87067,63,46,0
495.87067,496.00342,60,60,0
496.00342,496.0675,61,50,0
496.0675,496.13162,60,50,0
496.13162,496.1957,59,50,0
496.1957,496.25983,60,46,0
496.25983,496.39374,61,46,0
496.39374,496.5177,58,60,0
496.5177,496.64703,61,52,0
496.64703,496.771,58,52,0
496.771,496.9003,61,53,0
496.9003,497.02426,56,63,0
497.02426,497.15356,61,56,0
497.15356,497.27856,56,57,0
497.27856,497.40845,61,60,0
497.40845,497.53503,54,68,0
497.53503,497.66776,61,62,0
497.66776,497.79654,54,63,0
497.79654,497.93106,61,59,0
497.93106,498.07324,53,72,0
498.07324,498.21542,61,65,0
498.21542,498.3576,53,67,0
498.3576,498.4998,61,67,0
498.4998,498.79828,52,90,0
499.0968,499.3953,73,90,0
499.0968,499.3953,70,75,0
499.0968,499.3953,67,75,0
500.24176,500.30585,72,41,0
500.30585,500.36996,73,41,0
500.36996,500.43405,75,36,0
500.43405,500.83673,73,47,0
500.83673,500.98825,72,41,0
500.98825,501.1853,72,46,0
501.1853,501.3773,80,53,0
501.3773,501.5642,79,47,0
501.5642,501.7511,77,47,0
501.7511,501.93802,72,43,0
501.93802,502.12494,68,43,0
502.12494,502.321,67,47,0
502.321,502.50998,75,52,0
502.50998,502.6918,72,39,0
502.6918,502.8736,73,44,0
502.8736,503.07147,70,38,0
503.07147,503.28497,67,37,0
503.48666,503.6849,56,36,0
503.6849,503.88022,58,37,0
503.88022,504.08063,60,38,0
504.08063,504.28943,58,36,0
504.28943,504.53635,56,34,0
503.28497,504.53635,65,44,0
504.53635,505.1486,61,32,0
505.1486,505.4644,60,44,0
505.4644,505.8474,58,40,0
504.53635,505.8474,64,32,0
506.0734,506.29636,56,28,0
506.29636,506.51807,58,31,0
506.51807,506.74716,60,31,0
506.74716,506.98492,58,29,0
506.98492,507.26273,56,27,0
505.8474,507.26273,65,38,0
507.26273,507.99487,61,25,0
507.99487,508.40866,60,35,0
508.40866,508.9259,58,29,0
507.26273,508.9259,64,25,0
508.9259,509.80826,65,31,0
508.9259,509.80826,56,26,0
510.6906,511.57294,60,25,0
510.6906,511.57294,65,30,0
510.6906,511.57294,56,25,0
512.4553,514.22003,65,28,0
512.4553,514.22003,60,23,0
512.4553,514.22003,56,23,0
0.0,1.8178275,56,51,0
1.8178275,2.3464615,43,36,0
1.8178275,2.3464615,52,43,0
0.0,2.3464615,48,51,0
2.3464615,2.8774345,44,43,0
2.8774345,3.4060686,45,39,0
3.4060686,3.9417825,43,43,0
3.9417825,4.4727554,45,40,0
4.4727554,5.0037284,49,44,0
5.0037284,5.5347013,48,41,0
2.3464615,5.5347013,53,43,0
0.0,5.5347013,41,43,0
5.5347013,6.0801563,49,49,0
5.5347013,6.0801563,46,41,0
6.0801563,6.6488767,44,38,0
6.0801563,6.6488767,48,45,0
6.6488767,6.947384,43,47,0
6.6488767,6.947384,46,57,0
7.2458916,7.544399,61,57,0
7.2458916,7.544399,52,48,0
7.2458916,7.544399,55,48,0
7.2458916,7.544399,58,48,0
9.137359,9.721867,53,29,0
9.137359,9.721867,56,35,0
10.272326,10.815312,55,32,0
10.272326,10.815312,49,27,0
10.272326,10.815312,46,27,0
11.561199,11.742194,53,32,0
11.742194,11.923189,56,34,0
11.923189,12.104185,60,37,0
12.104185,12.318906,58,31,0
12.318906,12.567353,56,31,0
12.567353,12.868434,55,35,0
11.3725195,12.868434,48,29,0
13.718061,15.518214,56,51,0
15.518214,16.031904,43,36,0
15.518214,16.031904,52,43,0
13.718061,16.031904,48,51,0
16.031904,16.551628,44,43,0
16.551628,17.070766,45,39,0
17.070766,17.593943,43,43,0
17.593943,18.117025,45,40,0
18.117025,18.370302,49,44,0
16.031904,18.370302,53,43,0
13.718061,18.370302,41,43,0
18.370302,18.494268,53,37,0
18.370302,18.494268,49,32,0
18.623579,18.747547,48,32,0
18.623579,18.747547,51,41,0
18.876856,19.001856,51,44,0
18.876856,19.001856,48,36,0
19.131727,19.258308,46,39,0
19.131727,19.258308,49,47,0
19.391052,19.519808,49,51,0
19.391052,19.519808,46,43,0
19.654337,19.796516,44,46,0
19.654337,19.796516,48,55,0
19.938698,20.080877,44,49,0
19.938698,20.080877,48,60,0
20.223057,20.521564,43,54,0
20.223057,20.521564,46,64,0
20.820072,21.11858,61,65,0
20.820072,21.11858,55,55,0
20.820072,21.11858,58,55,0
20.820072,21.11858,52,55,0
22.71154,23.28748,56,35,0
22.71154,23.28748,53,29,0
23.848228,24.415073,46,27,0
23.848228,24.415073,49,27,0
23.848228,24.415073,55,32,0
24.973515,25.252691,53,35,0
24.973515,25.252691,48,35,0
24.973515,25.252691,56,43,0
25.524185,25.701176,56,54,0
25.701176,25.881357,53,46,0
25.881357,26.070036,61,48,0
26.070036,26.373066,60,54,0
26.676096,26.902227,60,60,0
26.676096,26.902227,48,50,0
27.279112,27.50988,53,60,0
27.279112,27.50988,41,50,0
27.825848,28.30787,53,22,0
27.825848,28.30787,65,27,0
28.784061,29.269958,65,27,0
28.784061,29.269958,53,22,0
29.741472,30.225992,53,22,0
29.741472,30.225992,65,27,0
30.694742,31.171053,65,27,0
30.694742,31.171053,53,22,0
31.639803,32.108555,65,27,0
31.639803,32.108555,53,22,0
32.108555,32.345707,46,27,0
32.582863,32.820015,58,27,0
32.582863,32.820015,54,22,0
33.068462,33.30562,48,27,0
33.54277,33.779926,56,27,0
33.54277,33.779926,53,22,0
34.028374,34.267418,48,27,0
34.50646,34.745502,55,27,0
34.50646,34.745502,52,22,0
34.984547,35.252403,41,40,0
35.491447,35.973473,53,22,0
35.491447,35.973473,65,27,0
36.44966,36.93556,53,22,0
36.44966,36.93556,65,27,0
37.405243,37.887016,58,22,0
37.405243,37.887016,65,27,0
38.35213,38.826626,63,27,0
38.35213,38.826626,51,22,0
39.295376,39.764126,63,27,0
39.295376,39.764126,56,22,0
39.764126,40.00128,49,27,0
40.238434,40.46744,65,27,0
40.238434,40.46744,61,22,0
40.711815,40.94897,51,27,0
41.186123,41.416008,60,22,0
41.186123,41.416008,63,27,0
41.66082,41.899864,51,27,0
42.13891,42.36968,61,27,0
42.13891,42.36968,55,22,0
42.60045,42.868305,60,41,0
42.60045,42.868305,56,41,0
42.868305,42.987827,63,27,0
43.10735,43.22687,63,30,0
43.346394,43.465916,63,27,0
43.58937,43.827465,64,37,0
43.827465,44.06556,63,27,0
44.06556,44.18461,63,30,0
44.303658,44.422703,63,27,0
44.55146,44.79252,51,38,0
44.79252,44.91063,63,27,0
45.02874,45.14685,63,27,0
45.26496,45.38307,63,27,0
45.501183,45.733738,51,44,0
45.733738,45.850018,63,37,0
45.966297,46.082577,63,40,0
46.198856,46.315136,63,44,0
46.198856,46.315136,61,44,0
46.198856,46.315136,51,44,0
46.44066,46.672318,60,48,0
46.44066,46.672318,63,48,0
46.44066,46.672318,56,48,0
46.672318,46.79184,63,31,0
46.91136,47.030884,63,34,0
47.150406,47.269928,63,31,0
47.393383,47.631477,64,42,0
47.631477,47.750526,63,31,0
47.869576,47.98862,63,34,0
48.10767,48.226715,66,31,0
48.355473,48.596535,53,43,0
48.596535,48.71464,65,31,0
48.832752,48.950863,65,31,0
49.068974,49.187084,65,31,0
49.305195,49.537754,53,50,0
49.537754,49.65403,65,42,0
49.77031,49.88659,65,46,0
50.00287,50.11915,53,50,0
50.00287,50.11915,63,50,0
50.00287,50.11915,65,50,0
50.24467,50.47633,65,55,0
50.24467,50.47633,61,55,0
50.24467,50.47633,58,55,0
50.47633,50.59585,65,31,0
50.715374,50.834896,65,34,0
50.95442,51.07394,65,31,0
51.197395,51.435493,66,42,0
51.435493,51.55454,65,31,0
51.673588,51.792633,65,34,0
51.911682,52.03073,65,31,0
52.394836,52.63388,64,31,0
52.63388,52.872925,63,34,0
52.872925,53.115902,64,31,0
52.394836,53.115902,61,31,0
52.159485,53.115902,55,49,0
53.351704,53.590748,65,31,0
53.590748,53.829792,63,34,0
53.829792,54.07807,68,31,0
53.351704,54.07807,60,31,0
53.115902,54.07807,56,50,0
54.313423,54.552467,64,31,0
54.552467,54.79151,63,34,0
54.79151,55.03449,64,31,0
54.313423,55.03449,61,31,0
54.07807,55.03449,55,49,0
55.27029,55.509335,65,31,0
55.509335,55.74838,63,34,0
55.74838,55.996655,68,31,0
55.27029,55.996655,60,31,0
55.03449,55.996655,56,50,0
55.996655,56.125412,49,60,0
56.254166,56.751675,61,53,0
56.254166,56.751675,65,53,0
56.751675,56.991676,65,44,0
56.751675,56.991676,61,44,0
56.991676,57.11988,51,60,0
57.248085,57.724277,63,52,0
57.248085,57.724277,60,52,0
57.724277,57.97208,60,45,0
57.724277,57.97208,63,45,0
57.97208,58.100834,51,60,0
58.22959,58.70959,55,46,0
58.70959,58.94959,56,46,0
58.94959,59.186745,58,46,0
58.22959,59.186745,63,46,0
58.22959,59.186745,61,46,0
59.186745,59.30532,56,47,0
59.186745,59.30532,61,47,0
59.186745,59.30532,63,47,0
59.423832,59.542877,55,51,0
59.423832,59.542877,61,51,0
59.423832,59.542877,63,51,0
59.66392,59.787037,61,55,0
59.66392,59.787037,51,55,0
59.66392,59.787037,63,55,0
59.912365,60.165527,56,59,0
59.912365,60.165527,63,59,0
59.912365,60.165527,60,59,0
60.165527,60.28601,44,66,0
60.40649,60.526974,44,66,0
60.647457,60.77846,44,66,0
60.909466,61.15043,43,69,0
61.15043,61.270912,44,65,0
61.39139,61.511875,44,65,0
61.632355,61.758408,44,65,0
61.884457,62.243023,45,68,0
62.243023,62.302784,46,60,0
62.302784,62.362545,48,57,0
62.362545,62.72111,46,68,0
62.72111,62.780872,48,62,0
62.780872,62.839184,49,58,0
62.839184,62.9539,51,68,0
63.068092,63.294785,61,66,0
63.068092,63.294785,51,56,0
63.068092,63.294785,58,56,0
63.294785,63.520176,58,56,0
63.294785,63.520176,61,66,0
63.294785,63.520176,51,56,0
63.520176,63.75388,58,56,0
63.520176,63.75388,61,66,0
63.520176,63.75388,51,56,0
63.75388,63.991974,56,61,0
63.75388,63.991974,60,72,0
63.991974,64.11246,44,66,0
64.23294,64.353424,44,66,0
64.4739,64.604904,44,66,0
64.73591,64.976875,43,69,0
64.976875,65.09736,44,65,0
65.21784,65.338326,44,65,0
65.4588,65.584854,44,65,0
65.71091,66.06947,45,68,0
66.06947,66.129234,46,60,0
66.129234,66.188995,48,56,0
66.188995,66.54756,46,68,0
66.54756,66.60732,48,62,0
66.60732,66.665634,49,58,0
66.665634,66.78035,51,68,0
66.89454,67.12123,48,56,0
66.89454,67.12123,58,66,0
66.89454,67.12123,55,56,0
67.12123,67.34663,55,56,0
67.12123,67.34663,58,66,0
67.12123,67.34663,48,56,0
67.34663,67.58033,55,56,0
67.34663,67.58033,58,66,0
67.34663,67.58033,48,56,0
67.58033,67.81842,56,72,0
67.58033,67.81842,53,61,0
67.81842,67.9389,53,66,0
67.81842,67.9389,49,56,0
68.05939,68.17987,49,56,0
68.05939,68.17987,53,66,0
68.300354,68.42587,53,66,0
68.300354,68.42587,49,56,0
68.5514,68.79236,52,69,0
68.5514,68.79236,48,58,0
68.79236,68.91284,49,55,0
68.79236,68.91284,53,65,0
69.033325,69.15381,53,65,0
69.033325,69.15381,49,55,0
69.27429,69.40034,53,65,0
69.27429,69.40034,49,55,0
69.52639,69.88496,53,68,0
69.88496,69.94472,54,60,0
69.94472,70.00448,56,57,0
69.52639,70.00448,50,57,0
70.00448,70.363045,54,68,0
70.363045,70.422806,56,62,0
70.422806,70.48112,57,59,0
70.00448,70.48112,51,57,0
70.48112,70.59583,51,68,0
70.48112,70.59583,44,57,0
70.71002,70.93672,63,56,0
70.71002,70.93672,66,66,0
70.71002,70.93672,56,56,0
70.93672,71.16211,63,56,0
70.93672,71.16211,56,56,0
70.93672,71.16211,66,66,0
71.16211,71.39581,63,56,0
71.16211,71.39581,66,66,0
71.16211,71.39581,56,56,0
71.39581,71.63391,61,61,0
71.39581,71.63391,65,72,0
71.63391,71.75439,49,56,0
71.63391,71.75439,53,66,0
71.87487,71.99535,49,56,0
71.87487,71.99535,53,66,0
72.11584,72.23929,49,56,0
72.11584,72.23929,53,66,0
72.36275,72.603714,52,69,0
72.36275,72.603714,48,58,0
72.603714,72.7242,53,65,0
72.603714,72.7242,49,55,0
72.84467,72.96516,53,65,0
72.84467,72.96516,49,55,0
73.08564,73.21169,49,55,0
73.08564,73.21169,53,65,0
73.337746,73.57396,53,58,0
73.337746,73.57396,47,58,0
73.337746,73.57396,56,69,0
73.57396,73.69396,56,65,0
73.57396,73.69396,53,55,0
73.57396,73.69396,46,55,0
73.813965,73.932076,46,55,0
73.813965,73.932076,53,55,0
73.813965,73.932076,56,65,0
74.050186,74.172134,53,55,0
74.050186,74.172134,46,55,0
74.050186,74.172134,56,65,0
74.29408,74.4088,55,68,0
74.29408,74.4088,51,57,0
74.522995,74.74969,63,56,0
74.74969,74.97508,67,66,0
74.74969,74.97508,63,56,0
74.97508,75.208786,67,66,0
74.97508,75.208786,63,56,0
75.208786,75.44134,55,58,0
75.208786,75.44134,49,58,0
75.208786,75.44134,58,69,0
75.44134,75.56039,48,55,0
75.44134,75.56039,58,65,0
75.44134,75.56039,55,55,0
75.679436,75.796165,55,55,0
75.679436,75.796165,58,65,0
75.679436,75.796165,48,55,0
75.912895,76.03895,55,55,0
75.912895,76.03895,58,65,0
75.912895,76.03895,48,55,0
76.165,76.27972,57,68,0
76.165,76.27972,53,57,0
76.393906,76.620605,65,56,0
76.620605,76.84599,65,56,0
76.620605,76.84599,69,66,0
76.84599,77.0797,69,66,0
76.84599,77.0797,65,56,0
77.0797,77.33832,66,60,0
77.0797,77.33832,54,51,0
77.33832,77.51548,53,44,0
77.33832,77.51548,65,52,0
77.57454,77.80442,65,60,0
77.57454,77.80442,53,51,0
77.80442,77.98159,64,52,0
77.80442,77.98159,52,44,0
78.04064,78.26965,52,51,0
78.04064,78.26965,64,60,0
78.26965,78.44206,53,41,0
78.26965,78.44206,65,49,0
78.499535,78.72595,53,46,0
78.499535,78.72595,65,54,0
78.72595,78.897705,60,49,0
78.72595,78.897705,48,41,0
78.954956,79.17595,58,53,0
78.954956,79.17595,46,45,0
79.17595,79.346405,57,47,0
79.17595,79.346405,45,39,0
79.40323,79.627945,45,39,0
79.40323,79.627945,57,47,0
79.627945,79.80511,43,39,0
79.627945,79.80511,55,47,0
79.86417,80.0923,55,51,0
79.86417,80.0923,43,43,0
80.0923,80.2091,53,44,0
80.0923,80.2091,41,37,0
80.32396,80.43898,53,46,0
80.32396,80.43898,41,39,0
80.5521,80.67214,53,44,0
80.5521,80.67214,41,37,0
80.79019,81.014915,42,40,0
80.79019,81.014915,54,48,0
81.014915,81.18799,41,35,0
81.014915,81.18799,53,41,0
81.24568,81.471245,41,40,0
81.24568,81.471245,53,48,0
81.471245,81.64366,40,35,0
81.471245,81.64366,52,41,0
81.70113,81.9267,40,40,0
81.70113,81.9267,52,48,0
81.9267,82.099106,41,32,0
81.9267,82.099106,53,39,0
82.15658,82.38046,53,43,0
82.15658,82.38046,41,36,0
82.38046,82.552216,36,32,0
82.38046,82.552216,48,39,0
82.60947,82.83046,34,34,0
82.60947,82.83046,46,39,0
82.83046,83.000916,45,34,0
82.83046,83.000916,33,29,0
83.05773,83.27996,45,34,0
83.05773,83.27996,33,28,0
83.27996,83.45303,31,27,0
83.27996,83.45303,43,33,0
83.51073,83.73629,31,29,0
83.51073,83.73629,43,35,0
83.73629,83.85309,41,30,0
83.73629,83.85309,29,24,0
83.96795,84.08167,29,26,0
83.96795,84.08167,41,30,0
84.19351,84.31122,29,23,0
84.19351,84.31122,41,28,0
84.42698,84.5407,41,27,0
84.65254,84.77025,41,25,0
84.886,84.999725,41,27,0
85.111565,85.22927,41,25,0
85.34503,85.458755,41,27,0
85.570595,85.690636,41,25,0
85.80869,85.92548,41,27,0
86.04035,86.16483,41,25,0
86.28726,86.52536,52,22,0
86.52536,86.6514,51,21,0
86.77536,86.89636,51,22,0
87.015335,87.13733,51,21,0
87.26003,87.38774,51,22,0
87.516396,87.650444,51,21,0
87.78563,87.924835,51,22,0
88.063446,88.20654,51,21,0
88.63897,88.83377,51,25,0
88.898705,89.09351,51,25,0
89.15845,89.35756,51,25,0
89.423935,89.68825,51,33,0
89.68825,89.88649,56,26,0
89.95257,90.1508,56,27,0
90.21689,90.419586,56,29,0
88.35989,90.48715,44,33,0
90.77562,90.96469,56,25,0
91.02772,91.22085,56,25,0
91.285225,91.48612,56,27,0
91.553085,91.81283,56,33,0
91.81283,92.07256,57,27,0
92.07256,92.332306,58,27,0
90.48715,92.332306,49,38,0
92.332306,92.60017,53,27,0
92.332306,92.60017,50,27,0
92.86448,93.05929,51,25,0
93.12422,93.31902,51,25,0
93.383965,93.58308,51,25,0
93.649445,93.84769,51,33,0
93.913765,94.11556,51,26,0
94.18282,94.456795,51,27,0
94.456795,94.73849,51,29,0
92.60017,94.73849,39,33,0
95.02975,95.21883,51,25,0
95.28185,95.47498,51,25,0
95.53936,95.74025,51,27,0
95.80722,96.00202,51,33,0
96.066956,96.27922,51,27,0
94.73849,96.349976,44,38,0
96.349976,96.60972,44,27,0
96.349976,96.60972,51,27,0
96.60972,96.88245,48,27,0
96.60972,96.88245,51,27,0
97.1723,97.3723,51,25,0
97.438965,97.635475,51,25,0
97.70097,97.900085,51,25,0
97.96646,98.164696,51,33,0
98.23078,98.43078,51,26,0
98.497444,98.767715,51,27,0
98.767715,99.04678,51,29,0
96.88245,99.04678,39,33,0
99.32328,99.51236,51,25,0
99.575386,99.76852,48,25,0
99.83289,100.03378,51,27,0
100.10075,100.31302,56,33,0
99.04678,100.31302,44,38,0
100.383766,100.656494,60,31,0
100.383766,100.656494,63,31,0
100.656494,100.91624,63,31,0
100.656494,100.91624,60,31,0
100.656494,100.91624,68,31,0
100.91624,101.1841,63,31,0
100.91624,101.1841,70,31,0
100.91624,101.1841,67,31,0
101.1841,101.32363,56,46,0
101.463165,101.65797,63,23,0
101.463165,101.65797,68,23,0
101.463165,101.65797,72,28,0
101.72291,101.91771,63,23,0
101.72291,101.91771,72,28,0
101.72291,101.91771,68,23,0
101.98264,102.18176,68,23,0
101.98264,102.18176,63,23,0
101.98264,102.18176,72,28,0
102.24813,102.51245,71,37,0
102.24813,102.51245,62,31,0
102.24813,102.51245,68,31,0
102.51245,102.710686,72,29,0
102.51245,102.710686,63,24,0
102.51245,102.710686,68,24,0
102.776764,102.975006,72,31,0
102.776764,102.975006,68,26,0
102.776764,102.975006,63,26,0
103.041084,103.24379,63,28,0
103.041084,103.24379,68,28,0
103.041084,103.24379,72,33,0
103.598434,103.78751,65,23,0
103.598434,103.78751,73,28,0
103.598434,103.78751,68,23,0
103.85053,104.04367,68,23,0
103.85053,104.04367,73,28,0
103.85053,104.04367,65,23,0
104.10805,104.30894,73,31,0
104.10805,104.30894,65,26,0
104.10805,104.30894,68,26,0
104.3759,104.63564,65,31,0
104.3759,104.63564,68,31,0
104.3759,104.63564,73,37,0
104.63564,104.895386,72,31,0
104.63564,104.895386,69,26,0
104.63564,104.895386,65,26,0
104.895386,105.15513,70,31,0
104.895386,105.15513,65,26,0
103.311356,105.15513,61,43,0
105.15513,105.42298,68,31,0
105.15513,105.42298,62,26,0
105.15513,105.42298,65,26,0
105.42298,105.6873,51,37,0
105.6873,105.8821,67,28,0
105.6873,105.8821,58,23,0
105.6873,105.8821,63,23,0
105.94704,106.141846,67,28,0
105.94704,106.141846,63,23,0
105.94704,106.141846,58,23,0
106.20678,106.40589,58,23,0
106.20678,106.40589,67,28,0
106.20678,106.40589,63,23,0
106.47227,106.68255,58,31,0
106.47227,106.68255,67,37,0
106.47227,106.68255,63,31,0
106.75264,106.95626,67,29,0
106.75264,106.95626,63,24,0
106.75264,106.95626,58,24,0
107.02413,107.29936,63,26,0
107.02413,107.29936,60,26,0
107.02413,107.29936,68,31,0
107.29936,107.581055,70,33,0
107.29936,107.581055,61,28,0
107.29936,107.581055,63,28,0
107.86677,108.05585,68,28,0
107.86677,108.05585,60,23,0
107.86677,108.05585,63,23,0
108.118866,108.312004,60,23,0
108.118866,108.312004,63,23,0
108.118866,108.312004,68,28,0
108.37638,108.57727,63,26,0
108.37638,108.57727,68,31,0
108.37638,108.57727,60,26,0
108.64423,108.83904,60,31,0
108.64423,108.83904,63,31,0
108.64423,108.83904,68,37,0
107.581055,108.90398,56,43,0
108.90398,109.12349,63,26,0
108.90398,109.12349,68,31,0
108.90398,109.12349,60,26,0
109.19666,109.4564,68,26,0
109.19666,109.4564,72,31,0
109.19666,109.4564,63,26,0
109.4564,109.72426,68,31,0
109.4564,109.72426,60,26,0
109.4564,109.72426,63,26,0
109.72426,109.98857,51,37,0
109.98857,110.18338,67,28,0
109.98857,110.18338,58,23,0
109.98857,110.18338,63,23,0
110.248314,110.44312,58,23,0
110.248314,110.44312,63,23,0
110.248314,110.44312,67,28,0
110.50806,110.70717,58,23,0
110.50806,110.70717,67,28,0
110.50806,110.70717,63,23,0
110.773544,110.97178,63,31,0
110.773544,110.97178,67,37,0
110.773544,110.97178,58,31,0
111.03786,111.2361,58,24,0
111.03786,111.2361,67,29,0
111.03786,111.2361,63,24,0
111.30218,111.56649,68,31,0
111.30218,111.56649,63,26,0
111.30218,111.56649,60,26,0
111.56649,111.83676,63,28,0
111.56649,111.83676,61,28,0
111.56649,111.83676,70,33,0
112.11978,112.30886,60,23,0
112.11978,112.30886,63,23,0
112.11978,112.30886,68,28,0
112.37188,112.56502,68,28,0
112.37188,112.56502,60,23,0
112.37188,112.56502,63,23,0
112.629395,112.830284,68,31,0
112.629395,112.830284,63,26,0
112.629395,112.830284,60,26,0
112.89725,113.09206,68,37,0
111.83676,113.09206,56,43,0
112.89725,113.09206,60,31,0
112.89725,113.09206,63,31,0
113.15699,113.42972,60,31,0
113.15699,113.42972,63,31,0
113.42972,113.68946,63,31,0
113.42972,113.68946,68,31,0
113.42972,113.68946,60,31,0
113.68946,113.95731,70,31,0
113.68946,113.95731,63,31,0
113.68946,113.95731,67,31,0
113.95731,114.09685,56,46,0
114.23639,114.43119,72,28,0
114.23639,114.43119,68,23,0
114.23639,114.43119,63,23,0
114.496124,114.69093,72,28,0
114.496124,114.69093,68,23,0
114.496124,114.69093,63,23,0
114.75587,114.95498,72,28,0
114.75587,114.95498,68,23,0
114.75587,114.95498,63,23,0
115.021355,115.28567,71,37,0
115.021355,115.28567,62,31,0
115.021355,115.28567,68,31,0
115.28567,115.48391,72,29,0
115.28567,115.48391,68,24,0
115.28567,115.48391,63,24,0
115.54999,115.74822,72,31,0
115.54999,115.74822,68,26,0
115.54999,115.74822,63,26,0
115.81431,116.017006,68,28,0
115.81431,116.017006,63,28,0
115.81431,116.017006,72,33,0
116.08457,116.37166,66,31,0
116.08457,116.37166,68,31,0
116.08457,116.37166,75,37,0
116.37166,116.56073,73,28,0
116.37166,116.56073,65,23,0
116.37166,116.56073,68,23,0
116.62376,116.81689,65,23,0
116.62376,116.81689,73,28,0
116.62376,116.81689,68,23,0
116.88127,117.08216,73,31,0
116.88127,117.08216,68,26,0
116.88127,117.08216,65,26,0
117.149124,117.40887,68,31,0
116.08457,117.40887,61,43,0
117.149124,117.40887,65,31,0
117.149124,117.40887,73,37,0
117.40887,117.66861,65,26,0
117.40887,117.66861,72,31,0
117.40887,117.66861,63,26,0
117.66861,117.928345,65,27,0
117.66861,117.928345,61,27,0
117.66861,117.928345,70,32,0
117.928345,118.196205,63,28,0
117.928345,118.196205,60,28,0
117.928345,118.196205,68,33,0
118.196205,118.46052,51,41,0
118.46052,118.65533,63,26,0
118.46052,118.65533,58,26,0
118.46052,118.65533,67,32,0
118.72026,118.91507,58,26,0
118.72026,118.91507,67,32,0
118.72026,118.91507,63,26,0
118.98,119.179115,63,26,0
118.98,119.179115,58,26,0
118.98,119.179115,67,32,0
119.24549,119.45577,67,42,0
119.24549,119.45577,63,35,0
119.24549,119.45577,58,35,0
119.52586,119.729485,58,27,0
119.52586,119.729485,67,33,0
119.52586,119.729485,63,27,0
119.797356,120.072586,68,35,0
119.797356,120.072586,63,29,0
119.797356,120.072586,60,29,0
120.072586,120.35428,63,32,0
120.072586,120.35428,61,32,0
120.072586,120.35428,70,37,0
120.35428,120.61976,63,37,0
120.35428,120.61976,61,31,0
120.61976,120.81373,60,26,0
120.61976,120.81373,63,26,0
120.61976,120.81373,68,32,0
120.87838,121.07152,63,26,0
120.87838,121.07152,60,26,0
120.87838,121.07152,68,32,0
121.135895,121.336784,60,29,0
121.135895,121.336784,63,29,0
121.135895,121.336784,68,35,0
120.35428,121.40375,56,43,0
121.46868,121.66349,63,35,0
121.46868,121.66349,72,42,0
121.40375,121.66349,68,35,0
121.66349,121.883,63,26,0
121.66349,121.883,68,31,0
121.66349,121.883,60,26,0
121.95617,122.15098,63,26,0
121.95617,122.15098,68,31,0
121.95617,122.15098,60,26,0
122.21591,122.41681,60,26,0
122.21591,122.41681,68,31,0
122.21591,122.41681,63,26,0
122.48377,122.748085,51,37,0
122.748085,122.942894,63,23,0
122.748085,122.942894,58,23,0
122.748085,122.942894,67,28,0
123.00783,123.20264,67,28,0
123.00783,123.20264,58,23,0
123.00783,123.20264,63,23,0
123.26757,123.46668,67,28,0
123.26757,123.46668,58,23,0
123.26757,123.46668,63,23,0
123.53306,123.73129,67,37,0
123.53306,123.73129,63,31,0
123.53306,123.73129,58,31,0
123.79737,123.99561,58,24,0
123.79737,123.99561,67,29,0
123.79737,123.99561,63,24,0
124.06169,124.326004,60,26,0
124.06169,124.326004,63,26,0
124.06169,124.326004,68,31,0
124.326004,124.596275,63,28,0
124.326004,124.596275,70,33,0
124.326004,124.596275,61,28,0
124.596275,124.879295,63,33,0
124.596275,124.879295,61,29,0
124.879295,125.070786,60,23,0
124.879295,125.070786,68,28,0
124.879295,125.070786,63,23,0
125.13461,125.32774,60,23,0
125.13461,125.32774,68,28,0
125.13461,125.32774,63,23,0
125.39213,125.59302,63,26,0
125.39213,125.59302,60,26,0
125.39213,125.59302,68,31,0
124.596275,125.65998,56,43,0
125.724915,125.91972,63,31,0
125.724915,125.91972,72,37,0
125.65998,125.91972,68,31,0
125.91972,126.13924,60,26,0
125.91972,126.13924,68,31,0
125.91972,126.13924,63,26,0
126.2124,126.40721,63,26,0
126.2124,126.40721,60,26,0
126.2124,126.40721,68,31,0
126.472145,126.67304,63,26,0
126.472145,126.67304,60,26,0
126.472145,126.67304,68,31,0
126.740005,127.00432,51,37,0
127.00432,127.19913,67,28,0
127.00432,127.19913,63,23,0
127.00432,127.19913,58,23,0
127.26409,127.46043,58,23,0
127.26409,127.46043,63,23,0
127.26409,127.46043,67,28,0
127.52629,127.72532,58,23,0
127.52629,127.72532,67,28,0
127.52629,127.72532,63,23,0
127.79244,128.00453,63,31,0
127.79244,128.00453,67,37,0
127.79244,128.00453,58,31,0
128.0767,128.29817,58,24,0
128.0767,128.29817,67,29,0
128.0767,128.29817,63,24,0
128.37367,128.67824,60,26,0
128.37367,128.67824,63,26,0
128.37367,128.67824,68,31,0
128.67824,129.01532,61,28,0
128.67824,129.01532,63,28,0
128.67824,129.01532,70,33,0
129.01532,129.30658,51,33,0
129.59784,133.45177,61,33,0
129.59784,133.45177,63,33,0
129.59784,133.45177,70,33,0
133.45177,134.96437,60,33,0
133.45177,134.96437,68,33,0
133.45177,134.96437,56,33,0
133.45177,134.96437,63,33,0
135.97498,136.09946,56,46,0
136.09946,136.22394,60,39,0
136.22394,136.34842,51,39,0
136.34842,136.48175,56,35,0
136.48175,136.60571,60,44,0
136.60571,136.72969,63,37,0
136.72969,136.85365,51,37,0
136.85365,136.97762,56,33,0
136.97762,137.1016,60,43,0
137.1016,137.22556,63,35,0
137.22556,137.34952,51,35,0
137.34952,137.47897,56,30,0
137.47897,137.60352,60,41,0
137.60352,137.72852,63,34,0
137.72852,137.85388,51,34,0
137.85388,137.97952,56,28,0
137.97952,138.10558,60,40,0
138.10558,138.23206,63,31,0
138.23206,138.35883,51,31,0
138.35883,138.48595,56,27,0
138.48595,138.61438,60,38,0
138.61438,138.74513,63,31,0
138.74513,138.87833,51,30,0
138.87833,139.01413,56,28,0
139.01413,139.15263,60,38,0
139.15263,139.29385,63,29,0
139.29385,139.43793,51,29,0
139.43793,139.5857,56,25,0
139.5857,139.7107,59,37,0
139.70547,139.82999,63,29,0
139.83517,139.95966,51,29,0
139.95966,140.08414,56,25,0
139.5857,140.08414,32,28,0
139.5857,140.08414,44,37,0
140.08414,140.21179,59,37,0
140.21179,140.33575,63,29,0
140.33575,140.46129,51,29,0
140.46129,140.58629,56,25,0
140.58629,140.71286,59,37,0
140.71286,140.83734,63,29,0
140.83734,140.96666,51,29,0
140.96666,141.09596,56,26,0
141.09596,141.22202,59,37,0
141.22202,141.34807,63,29,0
141.34807,141.48022,61,36,0
141.48022,141.63922,63,39,0
141.63922,141.7625,59,47,0
141.7625,141.88667,63,36,0
141.88667,142.01172,51,36,0
142.01172,142.13516,56,32,0
142.13516,142.25961,59,40,0
142.25961,142.38307,63,36,0
142.38307,142.50748,51,36,0
142.50748,142.63156,56,33,0
142.63156,142.76608,59,45,0
142.76608,142.90062,63,35,0
142.90062,143.02562,59,35,0
142.90062,143.02562,56,35,0
143.02562,143.15062,63,35,0
143.15062,143.2752,61,44,0
143.15062,143.2752,55,44,0
143.2752,143.40047,63,29,0
143.40047,143.52611,56,31,0
143.40047,143.52611,59,31,0
143.52611,143.65105,63,27,0
143.65105,143.77533,55,37,0
143.65105,143.77533,58,37,0
143.77008,143.8944,63,29,0
143.89952,144.02428,51,29,0
144.02428,144.14767,55,26,0
144.14767,144.27232,58,37,0
144.27232,144.39604,63,29,0
144.39604,144.52043,51,29,0
144.52043,144.64612,55,24,0
144.64612,144.7707,58,37,0
144.7707,144.89581,63,29,0
144.89581,145.02512,51,29,0
145.02512,145.15443,55,26,0
145.15443,145.28049,58,42,0
145.28049,145.40654,63,31,0
145.40654,145.5387,61,31,0
145.5387,145.69827,63,27,0
145.69827,145.82245,59,39,0
145.82971,145.95479,63,29,0
145.95995,146.08295,51,29,0
146.08295,146.2053,56,25,0
146.2053,146.32848,59,42,0
146.32848,146.45097,63,34,0
146.45097,146.5753,51,34,0
146.5753,146.70073,56,27,0
146.70073,146.83527,59,41,0
146.83527,146.96884,63,33,0
146.95634,147.08134,51,33,0
147.08134,147.20628,56,29,0
147.20628,147.32996,59,37,0
147.3424,147.46675,63,29,0
147.45456,147.58003,55,29,0
147.45456,147.58003,61,29,0
147.59265,147.70474,63,26,0
147.70474,147.82912,56,37,0
147.70474,147.82912,59,37,0
147.82396,147.9454,63,29,0
147.95036,148.07188,51,29,0
148.07188,148.19576,56,24,0
148.19576,148.31892,59,38,0
148.31892,148.44325,63,30,0
148.44325,148.56886,51,31,0
148.56886,148.69386,56,31,0
148.69386,148.81976,59,40,0
148.81976,148.94394,63,32,0
148.94394,149.07324,51,32,0
149.07324,149.20256,56,28,0
149.20256,149.32861,59,42,0
149.32861,149.45467,63,33,0
149.45467,149.58682,61,41,0
149.45467,149.58682,54,41,0
149.58682,149.7464,66,44,0
149.7464,149.87001,59,54,0
149.7464,149.87001,63,54,0
149.87001,149.99559,66,41,0
149.99765,150.12181,54,41,0
150.11972,150.24323,59,35,0
150.24323,150.3684,63,46,0
150.3684,150.49242,66,41,0
150.49242,150.6167,54,41,0
150.6167,150.74081,59,36,0
150.74081,150.87535,63,51,0
150.87535,151.00987,66,44,0
151.00987,151.13483,63,46,0
151.00987,151.13483,59,46,0
151.13483,151.25854,66,47,0
151.25854,151.38318,64,55,0
151.25854,151.38318,58,55,0
151.38318,151.50795,66,48,0
151.50795,151.63258,59,50,0
151.50795,151.63258,63,50,0
151.63258,151.75706,66,54,0
151.75706,151.88013,58,60,0
151.75706,151.88013,61,60,0
151.88013,152.00394,66,49,0
152.00394,152.12843,54,49,0
152.12843,152.25317,58,42,0
152.25317,152.37782,61,52,0
152.37782,152.50252,66,42,0
152.50252,152.62726,54,42,0
152.62726,152.75185,58,36,0
152.75185,152.8755,61,58,0
152.8755,152.99747,66,45,0
152.99747,153.12677,54,45,0
153.12677,153.25607,58,40,0
153.25607,153.38213,61,56,0
153.38213,153.50818,66,41,0
153.50818,153.64034,64,41,0
153.64034,153.79991,66,35,0
153.79991,153.92467,63,53,0
153.92467,154.04942,66,43,0
154.04942,154.17433,54,43,0
154.17433,154.29909,59,38,0
154.29909,154.4229,63,48,0
154.4229,154.5478,66,38,0
154.5478,154.67163,54,38,0
154.67163,154.79642,59,33,0
154.79642,154.93095,63,45,0
154.93095,155.06548,66,35,0
155.06548,155.19048,54,35,0
155.19048,155.31548,59,31,0
155.31548,155.43715,63,38,0
155.31548,155.43715,59,38,0
155.43715,155.55765,66,30,0
155.55765,155.67853,58,29,0
155.55765,155.67853,64,29,0
155.67853,155.78752,66,26,0
155.80003,155.92406,59,37,0
155.80003,155.92406,63,37,0
155.92406,156.0484,66,29,0
156.0484,156.1716,54,29,0
156.1716,156.29831,59,25,0
156.29831,156.42203,63,38,0
156.42203,156.54504,66,30,0
156.54504,156.67032,54,31,0
156.67032,156.79414,59,26,0
156.79414,156.9193,63,40,0
156.9193,157.04588,66,32,0
157.04588,157.1752,54,32,0
157.1752,157.3045,59,28,0
157.3045,157.43056,63,42,0
157.43056,157.55661,66,33,0
157.55661,157.68877,54,41,0
157.68877,157.8751,59,44,0
157.8751,157.9985,64,50,0
157.9985,158.12248,59,36,0
158.12248,158.24464,56,36,0
158.24464,158.36734,59,32,0
158.36734,158.49252,64,45,0
158.49252,158.6158,68,36,0
158.6158,158.73927,56,36,0
158.73927,158.86234,59,33,0
158.86234,158.98744,64,44,0
158.98744,159.1114,68,37,0
159.1114,159.24072,56,37,0
159.24072,159.37003,61,37,0
159.37003,159.49608,64,48,0
159.49608,159.62213,68,38,0
159.62213,159.75429,56,41,0
159.75429,159.93947,61,44,0
159.93947,160.06264,64,56,0
160.06264,160.18811,66,42,0
160.18811,160.3125,54,42,0
160.3125,160.43633,61,35,0
160.43633,160.55986,64,52,0
160.55986,160.68358,66,42,0
160.68358,160.80818,54,42,0
160.80818,160.93294,61,36,0
160.93294,161.05753,63,50,0
161.05753,161.18129,66,40,0
161.18129,161.3106,54,40,0
161.3106,161.43991,59,36,0
161.43991,161.56596,63,42,0
161.56596,161.69202,66,33,0
161.69202,161.82417,54,41,0
161.82417,161.9788,59,44,0
161.9788,162.10178,61,54,0
162.10178,162.22758,66,41,0
162.22758,162.35197,54,41,0
162.35197,162.47762,59,35,0
162.47762,162.60118,61,48,0
162.60118,162.72618,66,39,0
162.72618,162.8503,54,39,0
162.8503,162.97615,59,39,0
162.97615,163.09991,61,48,0
163.09991,163.22575,66,32,0
163.22575,163.35506,54,37,0
163.35506,163.48438,58,35,0
163.48438,163.61043,61,42,0
163.61043,163.73648,66,29,0
163.73648,163.86864,54,29,0
163.86864,164.01015,58,25,0
164.01015,164.13335,63,37,0
164.13335,164.25775,66,29,0
164.25775,164.38219,54,29,0
164.38219,164.50679,59,25,0
164.50679,164.63174,63,38,0
164.63174,164.7569,66,30,0
164.7569,164.88016,54,31,0
164.88016,165.00511,59,28,0
165.00511,165.12894,62,40,0
165.12894,165.25394,66,32,0
165.25394,165.38324,54,32,0
165.38324,165.51256,59,28,0
165.51256,165.63861,62,42,0
165.63861,165.76465,66,33,0
165.76465,165.89682,54,33,0
165.89682,166.0485,59,28,0
166.0485,166.17175,61,37,0
166.17175,166.29744,66,29,0
166.29744,166.42184,54,29,0
166.42184,166.54594,59,24,0
166.54594,166.67126,61,38,0
166.67126,166.79572,66,29,0
166.79572,166.92276,54,29,0
166.92276,167.04608,59,24,0
167.04608,167.17175,61,40,0
167.17175,167.2977,66,28,0
167.2977,167.42323,54,28,0
167.42323,167.54875,58,28,0
167.54875,167.6748,61,41,0
167.6748,167.80086,66,29,0
167.80086,167.93301,54,29,0
167.93301,168.08301,58,25,0
168.08301,168.20724,59,37,0
168.20724,168.3325,63,29,0
168.3325,168.45508,51,29,0
168.45508,168.58096,54,25,0
168.58096,168.70433,59,38,0
168.70433,168.82913,63,30,0
168.82913,168.95335,51,31,0
168.95335,169.07822,54,28,0
169.07822,169.20163,61,40,0
169.20163,169.32692,63,32,0
169.32692,169.45622,51,32,0
169.45622,169.58554,55,28,0
169.58554,169.7116,61,42,0
169.70633,169.83238,63,29,0
169.83763,169.9698,51,29,0
169.9698,170.15498,55,26,0
170.15498,170.27881,59,37,0
170.27373,170.39656,63,29,0
170.40186,170.52771,51,29,0
170.52771,170.65082,56,26,0
170.15498,170.65082,44,37,0
170.15498,170.65082,32,28,0
170.65082,170.77618,59,37,0
170.77618,170.89864,63,29,0
170.89864,171.02376,51,29,0
171.02376,171.14778,56,26,0
171.14778,171.27238,59,37,0
171.27238,171.39717,63,29,0
171.39717,171.52649,51,29,0
171.52649,171.65579,56,26,0
171.65579,171.78185,59,37,0
171.78185,171.9079,63,29,0
171.9079,172.04005,61,36,0
172.04005,172.19963,63,39,0
172.19963,172.32396,59,47,0
172.32396,172.44824,63,36,0
172.44824,172.5715,51,36,0
172.5715,172.6963,56,32,0
172.6963,172.81963,59,40,0
172.81963,172.94484,63,36,0
172.94484,173.06975,51,36,0
173.06975,173.19423,56,32,0
173.19423,173.32875,59,45,0
173.32875,173.46329,63,35,0
173.46329,173.58829,56,35,0
173.46329,173.58829,59,35,0
173.58829,173.71329,63,29,0
173.71329,173.8367,55,44,0
173.71329,173.8367,61,44,0
173.8367,173.9617,63,29,0
173.9617,174.08542,59,31,0
173.9617,174.08542,56,31,0
174.08542,174.21005,63,28,0
174.21005,174.33498,58,37,0
174.21005,174.33498,55,37,0
174.3297,174.4557,63,29,0
174.46088,174.58382,51,29,0
174.58382,174.70718,55,24,0
174.70718,174.83345,58,37,0
174.83345,174.95695,63,29,0
174.95695,175.081,51,29,0
175.081,175.20688,55,25,0
175.20688,175.33188,58,37,0
175.33188,175.4562,63,29,0
175.4562,175.58553,51,29,0
175.58553,175.71483,55,26,0
175.71483,175.84088,58,42,0
175.84088,175.96693,63,31,0
175.96693,176.09909,61,31,0
176.09909,176.25867,63,29,0
176.25867,176.38295,59,39,0
176.39034,176.5155,63,29,0
176.52068,176.64578,51,29,0
176.64578,176.76941,56,24,0
176.76941,176.89432,59,42,0
176.89432,177.0182,63,34,0
177.0182,177.14359,51,34,0
177.14359,177.2697,56,28,0
177.2697,177.40422,59,41,0
177.40422,177.5378,63,33,0
177.5253,177.6503,51,33,0
177.6503,177.7753,56,29,0
177.7753,177.89948,59,37,0
177.91187,178.03804,63,29,0
178.02554,178.149,55,29,0
178.02554,178.149,61,29,0
178.16124,178.2736,63,25,0
178.2736,178.3982,56,37,0
178.2736,178.3982,59,37,0
178.39305,178.51746,63,29,0
178.52267,178.646,51,29,0
178.646,178.77008,56,25,0
178.77008,178.89696,59,38,0
178.89696,179.02007,63,30,0
179.02007,179.14262,51,31,0
179.14262,179.26453,56,28,0
179.26453,179.38809,59,40,0
179.38809,179.51303,63,32,0
179.51303,179.64235,51,32,0
179.64235,179.77165,56,27,0
179.77165,179.8977,59,42,0
179.8977,180.02376,63,33,0
180.02376,180.15591,54,41,0
180.02376,180.15591,61,41,0
180.15591,180.31549,66,44,0
180.31549,180.43916,59,54,0
180.31549,180.43916,63,54,0
180.43916,180.56444,66,41,0
180.5665,180.69044,54,41,0
180.68835,180.81383,59,36,0
180.81383,180.93755,63,46,0
180.93755,181.0636,66,41,0
181.0636,181.18788,54,41,0
181.18788,181.31299,59,36,0
181.31299,181.44751,63,51,0
181.44751,181.58205,66,44,0
181.58205,181.70705,59,46,0
181.58205,181.70705,63,46,0
181.70705,181.83205,66,47,0
181.83205,181.9554,58,55,0
181.83205,181.9554,64,55,0
181.9554,182.08119,66,48,0
182.08119,182.20619,63,50,0
182.08119,182.20619,59,50,0
182.20619,182.33002,66,54,0
182.33002,182.45354,58,60,0
182.33002,182.45354,61,60,0
182.45354,182.57875,66,49,0
182.57875,182.70135,54,49,0
182.70135,182.82683,58,43,0
182.82683,182.94983,61,52,0
182.94983,183.07396,66,42,0
183.07396,183.19626,54,42,0
183.19626,183.32045,58,36,0
183.32045,183.44693,61,58,0
183.44693,183.57085,66,45,0
183.57085,183.70016,54,45,0
183.70016,183.82947,58,36,0
183.82947,183.95552,61,56,0
183.95552,184.08157,66,41,0
184.08157,184.21373,64,41,0
184.21373,184.3733,66,36,0
184.3733,184.4963,63,53,0
184.4963,184.62064,66,43,0
184.62064,184.74335,54,43,0
184.74335,184.86713,59,38,0
184.86713,184.9903,63,48,0
184.9903,185.11478,66,38,0
185.11478,185.2401,54,38,0
185.2401,185.36421,59,33,0
185.36421,185.49875,63,45,0
185.49875,185.63329,66,35,0
185.63329,185.757,54,35,0
185.757,185.88016,59,32,0
185.88016,186.00398,63,38,0
185.88016,186.00398,59,38,0
186.00398,186.1293,66,30,0
186.1293,186.25298,58,29,0
186.1293,186.25298,64,29,0
186.25298,186.365,66,25,0
186.37746,186.5003,59,37,0
186.37746,186.5003,63,37,0
186.5003,186.62433,66,29,0
186.62433,186.74739,54,29,0
186.74739,186.87303,59,23,0
186.87303,186.99666,63,38,0
186.99666,187.12198,66,30,0
187.12198,187.24655,54,31,0
187.24655,187.37137,59,26,0
187.37137,187.49753,63,40,0
187.49753,187.62296,66,32,0
187.62296,187.75226,54,32,0
187.75226,187.88158,59,28,0
187.88158,188.00761,63,42,0
188.00761,188.13367,66,33,0
188.13367,188.26582,54,41,0
188.26582,188.44603,59,44,0
188.44603,188.56975,64,50,0
188.56975,188.69434,59,36,0
188.69434,188.81755,56,36,0
188.81755,188.94057,59,31,0
188.94057,189.06477,64,45,0
189.06477,189.18517,68,36,0
189.18517,189.30565,56,36,0
189.30565,189.42801,59,31,0
189.42801,189.55157,64,44,0
189.55157,189.67525,68,37,0
189.67525,189.80455,56,37,0
189.80455,189.93387,61,34,0
189.93387,190.05992,64,48,0
190.05992,190.18596,68,38,0
190.18596,190.31813,56,41,0
190.31813,190.50331,61,44,0
190.50331,190.62703,64,56,0
190.62703,190.74973,66,42,0
190.74973,190.87303,54,42,0
190.87303,190.99818,61,37,0
190.99818,191.12115,64,52,0
191.12115,191.24596,66,42,0
191.24596,191.36943,54,42,0
191.36943,191.49539,61,36,0
191.49539,191.61995,63,50,0
191.61995,191.74474,66,40,0
191.74474,191.87405,54,40,0
191.87405,192.00336,59,36,0
192.00336,192.12941,63,42,0
192.12941,192.25546,66,33,0
192.25546,192.38762,54,41,0
192.38762,192.54225,59,44,0
192.54225,192.66568,61,54,0
192.66568,192.7898,66,41,0
192.7898,192.91371,54,41,0
192.91371,193.03935,59,36,0
193.03935,193.16196,61,48,0
193.16196,193.28717,66,39,0
193.28717,193.41115,54,39,0
193.41115,193.53569,59,36,0
193.53569,193.66064,61,48,0
193.66064,193.78513,66,32,0
193.78513,193.91443,54,37,0
193.91443,194.04375,58,37,0
194.04375,194.16978,61,42,0
194.16978,194.29584,66,29,0
194.29584,194.428,54,29,0
194.428,194.5695,58,29,0
194.5695,194.69267,63,37,0
194.69267,194.81444,66,29,0
194.81444,194.94008,54,29,0
194.94008,195.06421,59,25,0
195.06421,195.18964,63,38,0
195.18964,195.3128,66,30,0
195.3128,195.4378,54,31,0
195.4378,195.5625,59,26,0
195.5625,195.68643,62,40,0
195.68643,195.81165,66,32,0
195.81165,195.94095,54,32,0
195.94095,196.07027,59,29,0
196.07027,196.19632,62,42,0
196.19632,196.32237,66,33,0
196.32237,196.45453,54,33,0
196.45453,196.60916,59,28,0
196.60916,196.73396,61,37,0
196.73396,196.85982,66,29,0
196.85982,196.98431,54,29,0
196.98431,197.1106,59,26,0
197.1106,197.23495,61,38,0
197.23495,197.36124,66,29,0
197.36124,197.4844,54,29,0
197.4844,197.60973,59,27,0
197.60973,197.73395,61,40,0
197.73395,197.85854,66,28,0
197.85854,197.98784,54,28,0
197.98784,198.11716,58,26,0
198.11716,198.24321,61,41,0
198.24321,198.36926,66,29,0
198.36926,198.50142,54,29,0
198.50142,198.65141,58,26,0
198.65141,198.7757,63,37,0
198.7757,198.90228,66,29,0
198.90228,199.0263,54,29,0
199.0263,199.1524,59,25,0
199.1524,199.27649,63,38,0
199.27649,199.40082,66,30,0
199.40082,199.52594,54,31,0
199.52594,199.65143,59,24,0
199.65143,199.77623,63,45,0
199.77623,199.90228,66,32,0
199.90228,200.03159,54,32,0
200.03159,200.1609,59,32,0
200.1609,200.28694,63,47,0
200.28694,200.413,66,34,0
200.413,200.53905,54,38,0
200.53905,200.68611,59,38,0
200.68611,200.80922,63,50,0
200.80922,200.93571,67,39,0
200.93571,201.05743,55,39,0
201.05743,201.1788,58,34,0
201.1788,201.30095,63,51,0
201.30095,201.42232,67,39,0
201.42232,201.54562,55,40,0
201.54562,201.66945,58,35,0
201.66945,201.79231,63,49,0
201.79231,201.91711,67,38,0
201.91711,202.04642,55,38,0
202.04642,202.17574,58,33,0
202.17574,202.30177,63,51,0
202.30177,202.42783,67,40,0
202.42783,202.55388,55,41,0
202.55388,202.70094,58,35,0
202.70094,202.8249,63,59,0
202.8249,202.94899,68,45,0
202.94899,203.07297,56,46,0
203.07297,203.19777,59,42,0
203.19777,203.32242,63,64,0
203.32242,203.44623,68,48,0
203.44623,203.56859,56,50,0
203.56859,203.69496,59,47,0
203.69496,203.8194,63,58,0
203.8194,203.94398,68,47,0
203.94398,204.0733,56,47,0
204.0733,204.2026,59,44,0
204.2026,204.32866,63,54,0
204.32866,204.45471,68,46,0
204.45471,204.58076,56,46,0
204.58076,204.72781,59,44,0
204.72781,204.85135,63,57,0
204.85135,204.97415,67,44,0
204.97415,205.09885,55,44,0
205.09885,205.22112,58,40,0
205.22112,205.34361,63,58,0
205.34361,205.46654,67,44,0
205.46654,205.59145,55,46,0
205.59145,205.7135,58,42,0
205.7135,205.83742,63,56,0
205.83742,205.96068,67,43,0
205.96068,206.08998,55,43,0
206.08998,206.2193,58,39,0
206.2193,206.3442,63,58,0
206.3442,206.46828,67,46,0
206.46828,206.59297,55,47,0
206.59297,206.74002,58,42,0
206.74002,206.86395,63,67,0
206.86395,206.98741,68,51,0
206.98741,207.11174,56,51,0
207.11174,207.23543,59,47,0
207.23543,207.36069,63,69,0
207.36069,207.48434,68,51,0
207.48434,207.60828,56,51,0
207.60828,207.73267,59,45,0
207.73267,207.85788,63,60,0
207.85788,207.98283,68,49,0
207.98283,208.11214,56,49,0
208.11214,208.24146,59,44,0
208.24146,208.37245,63,59,0
208.37245,208.50346,68,51,0
208.50346,208.63446,56,51,0
208.63446,208.80788,59,46,0
208.80788,208.93288,64,65,0
208.93288,209.05788,68,53,0
209.05788,209.18288,56,53,0
209.18288,209.30788,59,51,0
209.30788,209.43196,64,62,0
209.43196,209.55493,68,53,0
209.55493,209.67738,56,53,0
209.67738,209.7999,59,48,0
209.7999,209.9229,64,62,0
209.9229,210.04565,69,53,0
210.04565,210.17781,57,53,0
210.17781,210.30997,60,48,0
210.30997,210.43549,64,62,0
210.43549,210.56102,69,53,0
210.56102,210.68654,57,53,0
210.68654,210.81206,60,47,0
210.81206,210.93451,64,65,0
210.93451,211.05696,68,53,0
211.05696,211.17941,56,53,0
211.17941,211.30186,59,49,0
211.30186,211.4279,64,62,0
211.4279,211.5521,68,53,0
211.5521,211.67426,56,53,0
211.67426,211.79646,59,48,0
211.79646,211.91887,64,62,0
211.91887,212.04228,69,53,0
212.04228,212.1716,57,53,0
212.1716,212.3009,60,48,0
212.3009,212.4259,64,62,0
212.4259,212.5509,69,53,0
212.5509,212.6759,57,53,0
212.6759,212.8009,60,47,0
212.8009,212.93306,64,65,0
212.93306,213.06522,68,46,0
213.06522,213.19737,56,46,0
213.19737,213.32954,59,41,0
213.32954,213.45941,64,55,0
213.45941,213.58928,68,40,0
213.58928,213.71915,56,40,0
213.71915,213.84901,59,36,0
213.84901,213.98601,64,40,0
213.98601,214.12299,68,46,0
214.12299,214.25998,56,37,0
214.25998,214.39696,59,37,0
214.39696,214.5405,63,37,0
214.5405,214.68405,68,43,0
214.68405,214.82942,56,37,0
214.82942,214.98299,59,34,0
214.98299,215.11516,65,37,0
215.11516,215.24731,68,29,0
215.24731,215.37947,56,29,0
215.37947,215.51163,58,26,0
215.51163,215.63983,65,38,0
215.63983,215.76804,68,30,0
215.76804,215.89624,56,31,0
215.89624,216.02444,58,28,0
216.02444,216.15265,65,41,0
216.15265,216.28085,68,31,0
216.28085,216.41785,56,31,0
216.41785,216.55482,58,25,0
216.55482,216.687,65,40,0
216.687,216.81915,68,29,0
216.81915,216.95131,56,32,0
216.95131,217.09836,58,30,0
217.09836,217.22603,63,44,0
217.22603,217.35368,67,32,0
217.35368,217.48134,55,32,0
217.48134,217.60901,58,28,0
217.60901,217.73666,63,44,0
217.73666,217.86432,67,34,0
217.86432,217.99199,55,34,0
217.99199,218.11964,58,33,0
218.11964,218.24785,63,41,0
218.24785,218.37605,67,31,0
218.37605,218.51303,55,31,0
218.51303,218.65002,58,25,0
218.65002,218.78487,63,40,0
218.78487,218.92,67,29,0
218.92,219.05513,55,31,0
219.05513,219.21138,58,26,0
219.21138,219.34181,63,37,0
219.34181,219.47224,68,27,0
219.47224,219.60269,56,27,0
219.60269,219.73312,60,24,0
219.73312,219.86188,63,37,0
219.86188,219.99063,68,28,0
219.99063,220.11938,56,28,0
220.11938,220.24814,60,24,0
220.24814,220.375,65,37,0
220.375,220.50244,68,27,0
220.50244,220.6299,56,27,0
220.6299,220.75664,60,25,0
220.75664,220.88652,65,37,0
220.88652,221.01639,68,28,0
221.01639,221.14626,56,28,0
221.14626,221.27612,60,24,0
221.27612,221.40656,65,37,0
221.40656,221.53699,68,27,0
221.53699,221.66743,56,27,0
221.66743,221.79787,62,24,0
221.79787,221.92662,65,37,0
221.92662,222.05537,68,28,0
222.05537,222.18413,56,28,0
222.18413,222.31288,62,25,0
222.31288,222.44164,65,37,0
222.44164,222.57039,68,27,0
222.57039,222.69916,56,27,0
222.69916,222.82791,62,24,0
222.82791,222.95778,65,37,0
222.95778,223.08765,68,29,0
223.08765,223.21751,56,29,0
223.21751,223.34738,62,26,0
223.34738,223.47783,63,40,0
223.47783,223.60826,67,29,0
223.60826,223.7387,55,29,0
223.7387,223.86913,58,23,0
223.86913,223.99788,63,38,0
223.99788,224.12663,67,30,0
224.12663,224.25539,55,30,0
224.25539,224.38414,58,28,0
224.38414,224.51291,63,30,0
224.51291,224.64166,67,27,0
224.64166,224.77042,55,27,0
224.77042,224.89917,58,27,0
224.89917,225.02904,63,45,0
225.02904,225.1589,67,32,0
225.1589,225.28877,55,35,0
225.28877,225.41866,58,39,0
225.41866,225.54909,62,49,0
225.54909,225.67952,68,36,0
225.67952,225.80995,56,36,0
225.80995,225.94038,58,30,0
225.94038,226.06914,62,46,0
226.06914,226.19789,68,33,0
226.19789,226.32666,56,31,0
226.32666,226.45541,58,26,0
226.45541,226.58417,61,37,0
226.58417,226.71292,63,27,0
226.71292,226.84167,51,27,0
226.84167,226.97043,58,24,0
226.97043,227.1003,61,37,0
227.1003,227.23016,63,28,0
227.23016,227.36005,51,28,0
227.36005,227.48991,58,24,0
227.48991,227.61867,60,37,0
227.61867,227.74742,63,27,0
227.74742,227.87617,51,27,0
227.87617,228.00493,56,24,0
228.00493,228.13548,60,37,0
228.13548,228.26688,63,28,0
228.26688,228.39925,51,28,0
228.39925,228.53256,56,28,0
228.53256,228.66685,60,37,0
228.66685,228.80217,63,28,0
228.80217,228.93839,51,28,0
228.93839,229.07571,56,25,0
229.07571,229.20503,60,37,0
229.20503,229.33434,63,29,0
229.33434,229.46649,58,36,0
229.46649,229.62607,63,39,0
229.62607,229.75107,60,47,0
229.75107,229.87492,63,36,0
229.87492,229.99712,51,36,0
229.99712,230.11926,56,31,0
230.11926,230.24077,60,40,0
230.24077,230.36229,63,36,0
230.36229,230.4845,51,36,0
230.4845,230.60698,56,32,0
230.60698,230.7415,60,45,0
230.7415,230.87604,63,35,0
230.87604,230.9994,56,35,0
230.87604,230.9994,60,35,0
230.9994,231.12297,63,31,0
231.12297,231.24796,61,44,0
231.12297,231.24796,55,44,0
231.24796,231.37207,63,29,0
231.37207,231.49818,60,31,0
231.37207,231.49818,56,31,0
231.49818,231.62614,63,27,0
231.62614,231.74965,58,37,0
231.62614,231.74965,55,37,0
231.74454,231.86984,63,29,0
231.87508,231.99852,51,29,0
231.99852,232.12321,55,25,0
232.12321,232.24704,58,37,0
232.24704,232.37155,63,29,0
232.37155,232.49568,51,29,0
232.49568,232.61942,55,25,0
232.61942,232.74411,58,37,0
232.74411,232.86911,63,29,0
232.86911,232.99843,51,29,0
232.99843,233.12773,55,24,0
233.12773,233.25378,58,42,0
233.25378,233.37984,63,31,0
233.37984,233.512,61,31,0
233.512,233.67157,63,28,0
233.67157,233.7949,60,39,0
233.80199,233.92377,63,29,0
233.92888,234.04964,51,29,0
234.04964,234.1707,56,25,0
234.1707,234.29031,60,42,0
234.29031,234.41037,63,34,0
234.41037,234.53134,51,34,0
234.53134,234.65543,56,29,0
234.64198,234.7765,60,41,0
234.78996,234.92354,63,33,0
234.91104,235.03604,51,33,0
235.03604,235.16032,56,29,0
235.16032,235.28123,60,37,0
235.29343,235.41675,63,29,0
235.40442,235.53047,55,29,0
235.40442,235.53047,61,29,0
235.54297,235.65611,63,28,0
235.65611,235.7792,56,37,0
235.65611,235.7792,60,37,0
235.77411,235.8986,63,29,0
235.90378,236.02757,51,29,0
236.02757,236.15366,56,27,0
236.15366,236.27705,60,38,0
236.27705,236.40239,63,30,0
236.40239,236.5265,51,31,0
236.5265,236.6515,56,29,0
236.6515,236.7765,60,40,0
236.7765,236.9015,63,32,0
236.9015,237.0308,51,32,0
237.0308,237.16013,56,29,0
237.16013,237.28618,60,42,0
237.28618,237.41222,63,33,0
237.41222,237.54439,61,41,0
237.54439,237.70395,63,44,0
237.70395,237.82895,60,54,0
237.82895,237.95395,63,41,0
237.95395,238.07895,51,41,0
238.07895,238.20277,56,37,0
238.20277,238.32536,60,46,0
238.32536,238.447,63,41,0
238.447,238.57146,51,41,0
238.57146,238.69606,56,36,0
238.69606,238.8306,60,51,0
238.8306,238.96512,63,44,0
238.96512,239.09012,60,46,0
239.09012,239.215,63,47,0
239.215,239.33727,61,55,0
239.33727,239.46236,65,48,0
239.46236,239.58592,58,50,0
239.58592,239.7107,67,54,0
239.7107,239.83557,60,60,0
239.83557,239.96161,68,49,0
239.96161,240.08415,56,49,0
240.08415,240.2096,60,45,0
240.2096,240.33247,63,52,0
240.33247,240.45642,68,42,0
240.45642,240.5819,56,42,0
240.5819,240.70526,60,38,0
240.70526,240.82875,63,58,0
240.82875,240.95432,68,45,0
240.95432,241.08362,60,45,0
241.08362,241.21294,68,39,0
241.21294,241.33899,63,56,0
241.33899,241.46503,67,41,0
241.46503,241.5972,61,41,0
241.5972,241.75446,65,39,0
241.75446,241.87868,60,53,0
241.87868,242.00314,63,39,0
242.00314,242.12761,51,39,0
242.12761,242.25215,56,37,0
242.25215,242.37584,60,46,0
242.37584,242.50221,63,34,0
242.50221,242.62624,51,34,0
242.62624,242.75072,56,30,0
242.75072,242.88524,60,40,0
242.88524,243.01978,63,31,0
243.01978,243.14908,56,31,0
243.01978,243.14908,60,31,0
243.14908,243.2784,63,27,0
243.2784,243.40443,61,43,0
243.2784,243.40443,55,43,0
243.40443,243.53049,63,35,0
243.53049,243.66264,55,35,0
243.53049,243.66264,58,35,0
243.66264,243.81989,63,33,0
243.81989,243.94302,56,36,0
243.81989,243.94302,60,36,0
243.94302,244.0667,63,30,0
244.0667,244.18962,51,30,0
244.18962,244.31407,56,27,0
244.31407,244.4377,60,27,0
244.4377,244.56276,63,33,0
244.56276,244.6867,51,33,0
244.6867,244.81119,56,29,0
244.81119,244.94572,60,45,0
244.94572,245.08025,63,31,0
245.08025,245.20956,51,31,0
245.20956,245.33887,56,25,0
245.33887,245.4734,60,25,0
245.4734,245.60793,63,19,0
245.60793,245.74554,61,24,0
245.74554,245.91795,63,26,0
245.91795,246.044,60,32,0
246.044,246.16801,63,24,0
246.16801,246.29324,51,24,0
246.29324,246.41714,56,24,0
246.41714,246.54356,60,27,0
246.54356,246.66936,63,24,0
246.66936,246.79533,51,24,0
246.79533,246.92087,56,24,0
246.92087,247.05849,60,30,0
247.05849,247.19609,63,26,0
247.19609,247.32419,60,27,0
247.32419,247.4524,63,28,0
247.4524,247.58258,61,33,0
247.58258,247.71504,65,28,0
247.71504,247.84845,58,30,0
247.84845,247.98376,67,32,0
247.98376,248.11104,60,36,0
248.11104,248.23819,68,29,0
248.23819,248.36424,56,29,0
248.36424,248.48979,60,29,0
248.48979,248.61465,63,31,0
248.61465,248.73915,68,25,0
248.73915,248.86414,56,25,0
248.86414,248.98874,60,25,0
248.98874,249.12207,63,34,0
249.12207,249.2554,68,24,0
249.2554,249.38472,60,24,0
249.38472,249.51402,68,24,0
249.51402,249.64008,63,33,0
249.64008,249.76613,67,24,0
249.76613,249.89828,61,24,0
249.89828,250.05786,65,24,0
250.05786,250.18286,60,31,0
250.18286,250.30786,63,24,0
250.30786,250.43286,51,24,0
250.43286,250.55786,56,24,0
250.55786,250.68716,60,28,0
250.68716,250.81648,63,22,0
250.81648,250.94579,51,22,0
250.94579,251.0751,56,22,0
251.0751,251.20963,60,27,0
251.20963,251.34416,63,21,0
251.34416,251.47346,56,21,0
251.34416,251.47346,60,21,0
251.47346,251.60278,63,21,0
251.60278,251.72884,61,33,0
251.60278,251.72884,55,33,0
251.72884,251.85487,63,24,0
251.85487,251.98703,55,24,0
251.85487,251.98703,58,24,0
251.98703,252.14445,63,24,0
252.14445,252.27046,56,31,0
252.14445,252.27046,60,31,0
252.27046,252.39607,63,25,0
252.39607,252.52104,51,25,0
252.52104,252.6454,56,24,0
252.6454,252.77013,60,28,0
252.77013,252.89531,63,22,0
252.89531,253.0211,51,22,0
253.0211,253.14694,56,22,0
253.14694,253.28146,60,27,0
253.28146,253.416,63,21,0
253.416,253.5453,56,21,0
253.416,253.5453,60,21,0
253.5453,253.67462,63,21,0
253.67462,253.80067,55,33,0
253.67462,253.80067,61,33,0
253.80067,253.92671,63,24,0
253.92671,254.05888,58,24,0
253.92671,254.05888,55,24,0
254.05888,254.21844,63,24,0
254.21844,254.34256,56,31,0
254.21844,254.34256,60,31,0
254.34256,254.46523,63,24,0
254.46523,254.58922,51,24,0
254.58922,254.71338,56,20,0
254.71338,254.8394,60,26,0
254.8394,254.96335,63,20,0
254.96335,255.08832,51,20,0
255.08832,255.21414,56,20,0
255.21414,255.34868,60,24,0
255.34868,255.4832,63,18,0
255.4832,255.61252,60,18,0
255.4832,255.61252,56,18,0
255.61252,255.74182,63,18,0
255.74182,255.86787,55,28,0
255.74182,255.86787,61,28,0
255.86787,255.99393,63,20,0
255.99393,256.12607,58,19,0
255.99393,256.12607,55,19,0
256.12607,256.28564,63,19,0
256.28564,256.41074,56,24,0
256.41074,256.53555,60,20,0
256.53555,256.65933,48,20,0
256.65933,256.7845,51,20,0
256.7845,256.90894,56,22,0
256.90894,257.03485,60,17,0
257.03485,257.1598,48,17,0
257.1598,257.29022,51,17,0
257.29022,257.41354,56,24,0
257.41354,257.53592,60,20,0
257.53592,257.66144,48,20,0
257.66144,257.78412,51,20,0
257.78412,257.90964,56,22,0
257.90964,258.0336,60,17,0
258.0336,258.1586,48,17,0
258.1586,258.29077,51,17,0
258.78824,259.03775,32,31,0
259.2938,259.54276,32,34,0
259.79172,260.04068,32,36,0
260.2936,262.7305,36,36,0
260.2936,262.7305,31,36,0
260.2936,262.7305,43,43,0
262.7305,263.2183,48,33,0
262.7305,263.2183,43,33,0
262.7305,263.2183,55,39,0
263.2183,263.72903,43,38,0
263.2183,263.72903,48,38,0
263.2183,263.72903,55,45,0
263.72903,264.26114,55,50,0
263.72903,264.26114,48,42,0
263.72903,264.26114,43,42,0
264.26114,266.07898,56,51,0
266.07898,266.6076,52,43,0
266.07898,266.6076,43,36,0
264.26114,266.6076,48,51,0
266.6076,267.13858,44,43,0
267.13858,267.6672,45,39,0
267.6672,268.20294,43,43,0
268.20294,268.7339,45,40,0
268.7339,269.26486,49,44,0
269.26486,269.79584,48,41,0
266.6076,269.79584,53,43,0
264.26114,269.79584,41,43,0
269.79584,270.3413,46,41,0
269.79584,270.3413,49,49,0
270.3413,270.91003,48,45,0
270.3413,270.91003,44,38,0
270.91003,271.20853,46,57,0
270.91003,271.20853,43,47,0
271.50705,271.80554,55,48,0
271.50705,271.80554,52,48,0
271.50705,271.80554,61,57,0
271.50705,271.80554,58,48,0
273.3985,273.983,53,29,0
273.3985,273.983,56,35,0
274.53348,275.07645,46,27,0
274.53348,275.07645,55,32,0
274.53348,275.07645,49,27,0
275.82236,276.00333,53,32,0
276.00333,276.18433,56,34,0
276.18433,276.36533,60,37,0
276.36533,276.58005,58,31,0
276.58005,276.8285,56,28,0
276.8285,277.12958,55,35,0
275.63367,277.12958,48,29,0
277.97922,279.7783,56,51,0
279.7783,280.292,52,43,0
279.7783,280.292,43,36,0
277.97922,280.292,48,51,0
280.292,280.8117,44,43,0
280.8117,281.33084,45,39,0
281.33084,281.85403,43,43,0
281.85403,282.3771,45,40,0
282.3771,282.63037,49,44,0
280.292,282.63037,53,43,0
277.97922,282.63037,41,43,0
282.63037,282.75433,53,37,0
282.63037,282.75433,49,32,0
282.88367,283.00763,51,41,0
282.88367,283.00763,48,32,0
283.13693,283.26193,51,44,0
283.13693,283.26193,48,36,0
283.3918,283.5184,49,47,0
283.3918,283.5184,46,39,0
283.65112,283.77988,46,43,0
283.65112,283.77988,49,51,0
283.91443,284.0566,49,55,0
283.91443,284.0566,44,41,0
283.91443,284.0566,48,41,0
284.19876,284.34094,44,44,0
284.19876,284.34094,49,60,0
284.19876,284.34094,48,44,0
284.48312,284.78165,46,54,0
284.48312,284.78165,49,64,0
284.48312,284.78165,43,51,0
285.08014,285.37866,61,65,0
285.08014,285.37866,58,55,0
285.08014,285.37866,55,55,0
285.08014,285.37866,52,55,0
286.97162,287.54755,53,29,0
286.97162,287.54755,56,35,0
288.1083,288.67514,49,27,0
288.1083,288.67514,46,27,0
288.1083,288.67514,55,32,0
289.23358,289.51276,56,43,0
289.23358,289.51276,48,35,0
289.23358,289.51276,53,35,0
289.78427,289.96124,56,54,0
289.96124,290.14145,53,46,0
290.14145,290.3301,61,48,0
290.3301,290.63315,60,54,0
290.9362,291.1623,48,50,0
290.9362,291.1623,60,60,0
291.53918,291.76996,41,50,0
291.53918,291.76996,53,60,0
292.08594,292.56622,65,27,0
292.08594,292.56622,53,22,0
293.0383,293.5234,53,22,0
293.0383,293.5234,65,27,0
293.99493,294.47815,65,27,0
293.99493,294.47815,53,22,0
294.9469,295.4232,53,22,0
294.9469,295.4232,65,27,0
295.88867,296.35632,65,27,0
295.88867,296.35632,53,22,0
296.35632,296.59354,46,27,0
296.83075,297.06702,58,27,0
296.83075,297.06702,54,22,0
297.31577,297.55206,48,27,0
297.7902,298.02704,53,22,0
297.7902,298.02704,56,27,0
298.27548,298.51337,48,27,0
298.75214,298.98907,52,22,0
298.75214,298.98907,55,27,0
299.22675,299.4946,41,40,0
299.73135,300.21237,65,27,0
299.73135,300.21237,53,22,0
300.68576,301.1707,53,22,0
300.68576,301.1707,65,27,0
301.63937,302.11963,65,27,0
301.63937,302.11963,53,22,0
302.58206,303.0565,65,27,0
302.58206,303.0565,53,22,0
303.52203,303.98856,53,22,0
303.52792,303.99445,65,27,0
303.98856,304.22446,46,27,0
304.46115,304.69016,58,27,0
304.46115,304.69016,55,22,0
304.93454,305.1717,48,27,0
305.40884,305.63873,57,27,0
305.40884,305.63873,53,22,0
305.88354,306.1226,48,27,0
306.36163,306.5924,52,22,0
306.36163,306.5924,58,27,0
306.82315,307.09103,57,41,0
306.82315,307.09103,53,41,0
307.09103,307.21054,60,27,0
307.33008,307.44916,60,30,0
307.56882,307.6885,60,27,0
307.81195,308.04956,61,37,0
308.04956,308.28653,60,27,0
308.28653,308.40674,60,30,0
308.52518,308.64438,60,27,0
308.77313,309.01273,48,38,0
309.01273,309.1322,60,27,0
309.2487,309.3676,60,27,0
309.48474,309.60327,60,27,0
309.72083,309.95242,48,44,0
309.95242,310.06888,60,37,0
310.18454,310.29916,60,40,0
310.41605,310.53247,58,44,0
310.41605,310.53247,48,44,0
310.41605,310.53247,60,44,0
310.658,310.88965,53,48,0
310.658,310.88965,60,48,0
310.658,310.88965,57,48,0
310.88965,311.00803,60,31,0
311.1268,311.24573,60,34,0
311.36523,311.4837,60,31,0
311.60718,311.84424,61,42,0
311.84424,311.963,60,31,0
312.08163,312.19888,60,34,0
312.3179,312.4368,63,31,0
312.56555,312.80542,50,43,0
312.80542,312.9225,62,31,0
313.03943,313.15625,62,31,0
313.2735,313.3914,62,31,0
313.50858,313.73904,50,50,0
313.73904,313.85403,62,42,0
313.96976,314.08673,62,46,0
314.20142,314.31723,62,50,0
314.20142,314.31723,50,50,0
314.20142,314.31723,60,50,0
314.44275,314.6744,58,55,0
314.44275,314.6744,62,55,0
314.44275,314.6744,55,55,0
314.6744,314.7936,62,31,0
314.91248,315.03052,62,34,0
315.15033,315.26956,62,31,0
315.393,315.63098,63,42,0
315.63098,315.7487,62,31,0
315.86917,315.9882,62,34,0
316.10745,316.2256,62,31,0
316.58865,316.8276,61,31,0
316.8276,317.06616,60,34,0
317.06616,317.30914,61,31,0
316.58865,317.30914,58,31,0
316.35434,317.30914,52,49,0
317.54413,317.7815,62,31,0
317.7815,318.0195,60,34,0
318.0195,318.2679,65,31,0
317.54413,318.2679,57,31,0
317.30914,318.2679,53,50,0
318.5022,318.7401,61,31,0
318.7401,318.9777,60,34,0
318.9777,319.22098,61,31,0
318.5022,319.22098,58,31,0
318.2679,319.22098,52,49,0
319.45578,319.69354,62,31,0
319.69354,319.93228,60,34,0
319.93228,320.18008,65,31,0
319.45578,320.18008,57,31,0
319.22098,320.18008,53,50,0
320.18008,320.30634,46,60,0
320.43417,320.92828,58,53,0
320.43417,320.92828,62,53,0
320.92828,321.1678,62,44,0
320.92828,321.1678,58,44,0
321.1678,321.296,48,60,0
321.4242,321.8998,57,52,0
321.4242,321.8998,60,52,0
321.8998,322.14716,60,45,0
321.8998,322.14716,57,45,0
322.14716,322.2759,48,60,0
322.40466,322.88467,52,46,0
322.88467,323.12466,53,46,0
323.12466,323.36182,55,46,0
322.40466,323.36182,60,46,0
322.40466,323.36182,58,46,0
323.36182,323.4804,58,47,0
323.36182,323.4804,60,47,0
323.36182,323.4804,53,47,0
323.5989,323.71796,60,51,0
323.5989,323.71796,52,51,0
323.5989,323.71796,58,51,0
323.839,323.96213,48,55,0
323.839,323.96213,58,55,0
323.839,323.96213,60,55,0
324.08743,324.3406,57,59,0
324.08743,324.3406,60,59,0
324.08743,324.3406,53,59,0
324.3406,324.4611,41,66,0
324.58157,324.70206,41,66,0
324.82254,324.95355,41,66,0
325.08453,325.3255,40,69,0
325.3255,325.44598,41,65,0
325.56647,325.68695,41,65,0
325.80743,325.93347,41,65,0
326.05954,326.4181,42,68,0
326.4181,326.47787,43,60,0
326.47787,326.53763,45,56,0
326.53763,326.89618,43,68,0
326.89618,326.95596,45,62,0
326.95596,327.01425,46,58,0
327.01425,327.12897,48,68,0
327.24316,327.46988,48,56,0
327.24316,327.46988,55,56,0
327.24316,327.46988,58,66,0
327.46988,327.69525,48,56,0
327.46988,327.69525,58,66,0
327.46988,327.69525,55,56,0
327.69525,327.92896,58,66,0
327.69525,327.92896,55,56,0
327.69525,327.92896,48,56,0
327.92896,328.16705,57,72,0
327.92896,328.16705,53,61,0
328.16705,328.28754,41,66,0
328.40802,328.5285,41,66,0
328.649,328.78,41,66,0
328.91098,329.15195,40,69,0
329.15195,329.27243,41,65,0
329.3929,329.5134,41,65,0
329.63388,329.75992,41,65,0
329.886,330.24454,42,68,0
330.24454,330.30432,43,60,0
330.30432,330.36407,45,55,0
330.36407,330.72263,43,68,0
330.72263,330.7824,45,62,0
330.7824,330.8407,46,57,0
330.8407,330.9554,48,68,0
331.0696,331.29633,45,56,0
331.0696,331.29633,52,56,0
331.0696,331.29633,55,66,0
331.29633,331.5217,52,56,0
331.29633,331.5217,45,56,0
331.29633,331.5217,55,66,0
331.5217,331.7554,52,56,0
331.5217,331.7554,45,56,0
331.5217,331.7554,55,66,0
331.7554,331.9935,53,72,0
331.7554,331.9935,50,61,0
331.9935,332.11398,50,66,0
331.9935,332.11398,46,56,0
332.23447,332.35495,46,56,0
332.23447,332.35495,50,66,0
332.47543,332.60095,46,56,0
332.47543,332.60095,50,66,0
332.72647,332.96744,49,69,0
332.72647,332.96744,45,58,0
332.96744,333.08792,46,55,0
332.96744,333.08792,50,65,0
333.2084,333.3289,46,55,0
333.2084,333.3289,50,65,0
333.44937,333.5754,50,65,0
333.44937,333.5754,46,55,0
333.70148,334.06003,50,68,0
334.06003,334.11978,51,60,0
334.11978,334.17957,53,56,0
333.70148,334.17957,47,57,0
334.17957,334.53812,51,68,0
334.53812,334.59787,53,62,0
334.59787,334.6562,54,58,0
334.17957,334.6562,48,57,0
334.6562,334.7709,48,68,0
334.6562,334.7709,41,57,0
334.8851,335.1118,63,66,0
334.8851,335.1118,53,56,0
334.8851,335.1118,60,56,0
335.1118,335.3372,53,56,0
335.1118,335.3372,63,66,0
335.1118,335.3372,60,56,0
335.3372,335.5709,63,66,0
335.3372,335.5709,60,56,0
335.3372,335.5709,53,56,0
335.5709,335.809,62,72,0
335.5709,335.809,58,61,0
335.809,335.92947,46,56,0
335.809,335.92947,50,66,0
336.04996,336.17044,50,66,0
336.04996,336.17044,46,56,0
336.29092,336.41437,50,66,0
336.29092,336.41437,46,56,0
336.53784,336.77878,45,58,0
336.53784,336.77878,49,69,0
336.77878,336.89926,46,55,0
336.77878,336.89926,50,65,0
337.01974,337.14023,46,55,0
337.01974,337.14023,50,65,0
337.2607,337.38678,50,65,0
337.2607,337.38678,46,55,0
337.51282,337.74905,53,69,0
337.51282,337.74905,50,58,0
337.51282,337.74905,44,58,0
337.74905,337.86905,50,55,0
337.74905,337.86905,53,65,0
337.74905,337.86905,43,55,0
337.98904,338.10715,50,55,0
337.98904,338.10715,53,65,0
337.98904,338.10715,43,55,0
338.22525,338.3472,43,55,0
338.22525,338.3472,53,65,0
338.22525,338.3472,50,55,0
338.46918,338.5839,52,68,0
338.46918,338.5839,48,57,0
338.69806,338.92477,60,56,0
338.92477,339.15015,60,56,0
338.92477,339.15015,64,66,0
339.15015,339.38385,60,56,0
339.15015,339.38385,64,66,0
339.38385,339.61642,52,58,0
339.38385,339.61642,55,69,0
339.38385,339.61642,46,58,0
339.61642,339.73547,45,55,0
339.61642,339.73547,52,55,0
339.61642,339.73547,55,65,0
339.85452,339.97125,52,55,0
339.85452,339.97125,45,55,0
339.85452,339.97125,55,65,0
340.08798,340.21402,52,55,0
340.08798,340.21402,55,65,0
340.08798,340.21402,45,55,0
340.3401,340.4548,54,68,0
340.3401,340.4548,50,57,0
340.569,340.7957,62,56,0
340.7957,341.0211,66,66,0
340.7957,341.0211,62,56,0
341.0211,341.25476,62,56,0
341.0211,341.25476,66,66,0
341.25476,341.5134,63,60,0
341.25476,341.5134,51,51,0
341.5134,341.69055,50,44,0
341.5134,341.69055,62,52,0
341.7496,341.9795,50,51,0
341.7496,341.9795,62,60,0
341.9795,342.15668,61,52,0
341.9795,342.15668,49,44,0
342.21573,342.44473,61,60,0
342.21573,342.44473,49,51,0
342.44473,342.61716,62,49,0
342.44473,342.61716,50,41,0
342.67462,342.90103,50,46,0
342.67462,342.90103,62,54,0
342.90103,343.07278,45,41,0
342.90103,343.07278,57,49,0
343.13004,343.35104,55,53,0
343.13004,343.35104,43,45,0
343.35104,343.52148,54,47,0
343.35104,343.52148,42,39,0
343.5783,343.803,42,39,0
343.5783,343.803,54,47,0
343.803,343.9802,40,39,0
343.803,343.9802,52,47,0
344.03925,344.2674,40,43,0
344.03925,344.2674,52,51,0
344.2674,344.3842,38,37,0
344.2674,344.3842,50,44,0
344.49905,344.61407,50,46,0
344.49905,344.61407,38,39,0
344.72717,344.84723,38,37,0
344.72717,344.84723,50,44,0
344.96527,345.19,39,40,0
344.96527,345.19,51,48,0
345.19,345.36307,50,41,0
345.19,345.36307,38,35,0
345.42075,345.64633,38,40,0
345.42075,345.64633,50,48,0
345.64633,345.81873,49,41,0
345.64633,345.81873,37,35,0
345.87622,346.10178,49,48,0
345.87622,346.10178,37,40,0
346.10178,346.2742,38,32,0
346.10178,346.2742,50,39,0
346.33167,346.55554,38,36,0
346.33167,346.55554,50,43,0
346.55554,346.7273,45,39,0
346.78455,347.00555,43,39,0
347.00555,347.176,42,34,0
347.23282,347.45505,42,34,0
347.45505,347.6281,40,33,0
347.6858,347.91138,40,35,0
347.91138,348.02817,38,30,0
348.14304,348.25674,38,30,0
348.3686,348.4863,38,28,0
348.60205,348.7158,38,27,0
348.8276,348.9453,38,25,0
349.0611,349.1748,38,27,0
349.28665,349.40436,38,25,0
349.5201,349.63382,38,27,0
349.74567,349.86572,38,25,0
349.98376,350.10056,38,27,0
350.21542,350.3399,38,25,0
350.46234,350.70044,49,22,0
350.70044,350.82648,48,21,0
350.95044,351.07144,48,22,0
351.1904,351.3124,48,21,0
351.43512,351.56284,48,22,0
351.69147,351.82553,48,21,0
351.96072,352.0999,48,22,0
352.23853,352.38162,48,21,0
352.81406,353.00885,48,25,0
353.0738,353.2686,48,25,0
353.33353,353.53265,48,25,0
353.599,353.86334,48,33,0
353.86334,354.06155,53,26,0
354.12766,354.3259,53,27,0
354.39197,354.59467,53,29,0
352.53497,354.66223,41,33,0
354.95068,355.13977,53,25,0
355.2028,355.39594,53,25,0
355.4603,355.6612,53,27,0
355.72815,355.9879,53,33,0
355.9879,356.24765,54,27,0
356.24765,356.5074,55,27,0
354.66223,356.5074,46,38,0
356.5074,356.77524,47,27,0
356.5074,356.77524,50,27,0
357.03955,357.23438,48,25,0
357.2993,357.4941,48,25,0
357.55905,357.75815,48,25,0
357.82452,358.02277,48,33,0
358.08884,358.29065,48,26,0
358.3579,358.63187,48,27,0
358.63187,358.91357,48,29,0
356.77524,358.91357,36,33,0
359.20483,359.3939,48,25,0
359.45694,359.65005,48,25,0
359.71445,359.91534,48,27,0
359.9823,360.1771,48,33,0
360.24203,360.4543,48,27,0
358.91357,360.52505,41,38,0
360.52505,360.7848,41,27,0
360.52505,360.7848,48,27,0
360.7848,361.05753,48,27,0
360.7848,361.05753,45,27,0
361.34738,361.54736,48,25,0
361.61404,361.81055,48,25,0
361.87607,362.07516,48,25,0
362.14154,362.33978,48,33,0
362.40585,362.60587,48,26,0
362.67252,362.94278,48,27,0
362.94278,363.22186,48,29,0
361.05753,363.22186,36,33,0
363.49835,363.68744,48,25,0
363.75046,363.9436,45,25,0
364.00797,364.20886,48,27,0
364.27582,364.4881,53,33,0
363.22186,364.4881,41,38,0
364.55884,364.83157,57,31,0
364.55884,364.83157,60,31,0
364.83157,365.0913,60,31,0
364.83157,365.0913,57,31,0
364.83157,365.0913,65,31,0
365.0913,365.35916,64,31,0
365.0913,365.35916,67,31,0
365.0913,365.35916,60,31,0
365.35916,365.49872,53,46,0
365.63824,365.83304,65,23,0
365.63824,365.83304,69,28,0
365.63824,365.83304,60,23,0
365.89798,366.0928,65,23,0
365.89798,366.0928,60,23,0
365.89798,366.0928,69,28,0
366.1577,366.35684,60,23,0
366.1577,366.35684,65,23,0
366.1577,366.35684,69,28,0
366.42322,366.68753,59,31,0
366.42322,366.68753,65,31,0
366.42322,366.68753,68,37,0
366.68753,366.88577,65,24,0
366.68753,366.88577,60,24,0
366.68753,366.88577,69,29,0
366.95184,367.1501,60,26,0
366.95184,367.1501,69,31,0
366.95184,367.1501,65,26,0
367.21616,367.41885,69,33,0
367.21616,367.41885,60,28,0
367.21616,367.41885,65,28,0
367.77353,367.9626,62,23,0
367.77353,367.9626,70,28,0
367.77353,367.9626,65,23,0
368.0256,368.21875,62,23,0
368.0256,368.21875,70,28,0
368.0256,368.21875,65,23,0
368.2831,368.484,62,26,0
368.2831,368.484,70,31,0
368.2831,368.484,65,26,0
368.551,368.81073,62,31,0
368.551,368.81073,70,37,0
368.551,368.81073,65,31,0
368.81073,369.07047,66,26,0
368.81073,369.07047,62,26,0
368.81073,369.07047,69,31,0
369.07047,369.3302,62,26,0
369.07047,369.3302,67,31,0
367.48642,369.3302,58,43,0
369.3302,369.59805,62,26,0
369.3302,369.59805,65,31,0
369.3302,369.59805,59,26,0
369.59805,369.86237,48,37,0
369.86237,370.0572,60,23,0
369.86237,370.0572,55,23,0
369.86237,370.0572,64,28,0
370.12213,370.31693,60,23,0
370.12213,370.31693,55,23,0
370.12213,370.31693,64,28,0
370.38187,370.58096,55,23,0
370.38187,370.58096,60,23,0
370.38187,370.58096,64,28,0
370.64734,370.85764,60,31,0
370.64734,370.85764,64,37,0
370.64734,370.85764,55,31,0
370.92773,371.13135,60,24,0
370.92773,371.13135,64,29,0
370.92773,371.13135,55,24,0
371.19922,371.47446,65,31,0
371.19922,371.47446,60,26,0
371.19922,371.47446,57,26,0
371.47446,371.75613,58,28,0
371.47446,371.75613,67,33,0
371.47446,371.75613,60,28,0
372.04184,372.23093,65,28,0
372.04184,372.23093,57,23,0
372.04184,372.23093,60,23,0
372.29395,372.4871,60,23,0
372.29395,372.4871,65,28,0
372.29395,372.4871,57,23,0
372.55145,372.75235,60,26,0
372.55145,372.75235,57,26,0
372.55145,372.75235,65,31,0
372.8193,373.01413,65,37,0
372.8193,373.01413,60,31,0
372.8193,373.01413,57,31,0
371.75613,373.07907,53,43,0
373.07907,373.29855,57,26,0
373.07907,373.29855,60,26,0
373.07907,373.29855,65,31,0
373.37173,373.63147,60,26,0
373.37173,373.63147,69,31,0
373.37173,373.63147,65,26,0
373.63147,373.89932,65,31,0
373.63147,373.89932,57,26,0
373.63147,373.89932,60,26,0
373.89932,374.16367,48,37,0
374.16367,374.35846,64,28,0
374.16367,374.35846,55,23,0
374.16367,374.35846,60,23,0
374.4234,374.6182,55,23,0
374.4234,374.6182,64,28,0
374.4234,374.6182,60,23,0
374.68314,374.88226,60,23,0
374.68314,374.88226,55,23,0
374.68314,374.88226,64,28,0
374.9486,375.14685,60,31,0
374.9486,375.14685,64,37,0
374.9486,375.14685,55,31,0
375.21295,375.41116,64,29,0
375.21295,375.41116,60,24,0
375.21295,375.41116,55,24,0
375.47726,375.74158,65,31,0
375.47726,375.74158,57,26,0
375.47726,375.74158,60,26,0
375.74158,376.01184,58,28,0
375.74158,376.01184,67,33,0
375.74158,376.01184,60,28,0
376.29486,376.48395,65,28,0
376.29486,376.48395,60,23,0
376.29486,376.48395,57,23,0
376.54697,376.74008,57,23,0
376.54697,376.74008,65,28,0
376.54697,376.74008,60,23,0
376.80447,377.00537,57,26,0
376.80447,377.00537,60,26,0
376.80447,377.00537,65,31,0
377.07233,377.26712,65,37,0
376.01184,377.26712,53,43,0
377.07233,377.26712,57,31,0
377.07233,377.26712,60,31,0
377.33206,377.6048,57,31,0
377.33206,377.6048,60,31,0
377.6048,377.86453,57,31,0
377.6048,377.86453,65,31,0
377.6048,377.86453,60,31,0
377.86453,378.1324,67,31,0
377.86453,378.1324,60,31,0
377.86453,378.1324,64,31,0
378.1324,378.27194,53,46,0
378.41147,378.60626,60,23,0
378.41147,378.60626,65,23,0
378.41147,378.60626,69,28,0
378.6712,378.866,69,28,0
378.6712,378.866,65,23,0
378.6712,378.866,60,23,0
378.93094,379.13007,60,23,0
378.93094,379.13007,65,23,0
378.93094,379.13007,69,28,0
379.19644,379.46075,68,37,0
379.19644,379.46075,65,31,0
379.19644,379.46075,59,31,0
379.46075,379.659,69,29,0
379.46075,379.659,65,24,0
379.46075,379.659,60,24,0
379.72507,379.9233,60,26,0
379.72507,379.9233,69,31,0
379.72507,379.9233,65,26,0
379.98938,380.19208,60,28,0
379.98938,380.19208,69,33,0
379.98938,380.19208,65,28,0
380.25964,380.54672,72,37,0
380.25964,380.54672,63,31,0
380.25964,380.54672,65,31,0
380.54672,380.7358,65,23,0
380.54672,380.7358,62,23,0
380.54672,380.7358,70,28,0
380.79883,380.99197,62,23,0
380.79883,380.99197,65,23,0
380.79883,380.99197,70,28,0
381.05634,381.25723,65,26,0
381.05634,381.25723,70,31,0
381.05634,381.25723,62,26,0
381.32422,381.58395,65,31,0
380.25964,381.58395,58,43,0
381.32422,381.58395,62,31,0
381.32422,381.58395,70,37,0
381.58395,381.8437,62,26,0
381.58395,381.8437,60,26,0
381.58395,381.8437,69,31,0
381.8437,382.10342,58,27,0
381.8437,382.10342,67,32,0
381.8437,382.10342,62,27,0
382.10342,382.37128,60,28,0
382.10342,382.37128,65,33,0
382.10342,382.37128,57,28,0
382.37128,382.6356,48,41,0
382.6356,382.8304,64,32,0
382.6356,382.8304,55,26,0
382.6356,382.8304,60,26,0
382.89536,383.09015,60,26,0
382.89536,383.09015,55,26,0
382.89536,383.09015,64,32,0
383.1551,383.3542,60,26,0
383.1551,383.3542,64,32,0
383.1551,383.3542,55,26,0
383.42056,383.63086,64,42,0
383.42056,383.63086,55,35,0
383.42056,383.63086,60,35,0
383.70093,383.90457,60,27,0
383.70093,383.90457,55,27,0
383.70093,383.90457,64,33,0
383.97244,384.24765,60,29,0
383.97244,384.24765,57,29,0
383.97244,384.24765,65,35,0
384.24765,384.52936,60,32,0
384.24765,384.52936,67,37,0
384.24765,384.52936,58,32,0
384.52936,384.81506,60,37,0
384.52936,384.81506,58,31,0
384.81506,385.00415,60,26,0
384.81506,385.00415,65,32,0
384.81506,385.00415,57,26,0
385.06717,385.2603,57,26,0
385.06717,385.2603,60,26,0
385.06717,385.2603,65,32,0
385.32468,385.52557,65,35,0
385.32468,385.52557,60,29,0
385.32468,385.52557,57,29,0
385.65747,385.85226,69,42,0
384.52936,385.85226,53,43,0
385.59253,385.85226,65,35,0
385.65747,385.85226,60,35,0
385.85226,386.07178,57,26,0
385.85226,386.07178,65,31,0
385.85226,386.07178,60,26,0
386.14496,386.33975,65,31,0
386.14496,386.33975,60,26,0
386.14496,386.33975,57,26,0
386.4047,386.6056,60,26,0
386.4047,386.6056,57,26,0
386.4047,386.6056,65,31,0
386.67255,386.9369,48,37,0
386.9369,387.13168,64,28,0
386.9369,387.13168,55,23,0
386.9369,387.13168,60,23,0
387.19662,387.39142,55,23,0
387.19662,387.39142,60,23,0
387.19662,387.39142,64,28,0
387.45636,387.65546,60,23,0
387.45636,387.65546,55,23,0
387.45636,387.65546,64,28,0
387.72183,387.92007,64,37,0
387.72183,387.92007,60,31,0
387.72183,387.92007,55,31,0
387.98615,388.1844,60,24,0
387.98615,388.1844,55,24,0
387.98615,388.1844,64,29,0
388.2505,388.5148,60,26,0
388.2505,388.5148,57,26,0
388.2505,388.5148,65,31,0
388.5148,388.78506,67,33,0
388.5148,388.78506,60,28,0
388.5148,388.78506,58,28,0
388.78506,389.06808,58,29,0
388.78506,389.06808,60,33,0
389.06808,389.25717,65,28,0
389.06808,389.25717,57,23,0
389.06808,389.25717,60,23,0
389.3202,389.5133,65,28,0
389.3202,389.5133,57,23,0
389.3202,389.5133,60,23,0
389.5777,389.7786,57,26,0
389.5777,389.7786,60,26,0
389.5777,389.7786,65,31,0
389.9105,390.1053,69,37,0
388.78506,390.1053,53,43,0
389.84555,390.1053,65,31,0
389.9105,390.1053,60,31,0
390.1053,390.3248,57,26,0
390.1053,390.3248,65,31,0
390.1053,390.3248,60,26,0
390.39798,390.59277,60,26,0
390.39798,390.59277,65,31,0
390.39798,390.59277,57,26,0
390.6577,390.8586,60,26,0
390.6577,390.8586,57,26,0
390.6577,390.8586,65,31,0
390.92557,391.18988,48,37,0
391.18988,391.3847,60,23,0
391.18988,391.3847,55,23,0
391.18988,391.3847,64,28,0
391.44968,391.646,64,28,0
391.44968,391.646,60,23,0
391.44968,391.646,55,23,0
391.71185,391.9109,64,28,0
391.71185,391.9109,55,23,0
391.71185,391.9109,60,23,0
391.97803,392.1901,60,31,0
391.97803,392.1901,64,37,0
391.97803,392.1901,55,31,0
392.26227,392.48373,60,24,0
392.26227,392.48373,64,29,0
392.26227,392.48373,55,24,0
392.55923,392.8638,65,31,0
392.55923,392.8638,60,26,0
392.55923,392.8638,57,26,0
392.8638,393.2009,58,28,0
392.8638,393.2009,60,28,0
392.8638,393.2009,67,33,0
393.2009,393.49216,48,33,0
393.78342,397.63733,60,33,0
393.78342,397.63733,58,33,0
393.78342,397.63733,67,33,0
397.63733,399.14993,65,33,0
397.63733,399.14993,53,33,0
397.63733,399.14993,60,33,0
397.63733,399.14993,57,33,0
401.66455,401.78955,68,37,0
401.78433,401.90933,72,29,0
401.91455,402.03955,60,29,0
402.03955,402.16455,65,27,0
401.66455,402.16455,41,37,0
402.16455,402.28757,68,37,0
402.28757,402.41196,72,29,0
402.41196,402.53592,60,29,0
402.53592,402.66077,65,28,0
402.66077,402.78424,68,37,0
402.78424,402.9076,72,29,0
402.9076,403.0369,60,29,0
403.0369,403.1662,65,26,0
403.1662,403.29227,68,37,0
403.29227,403.4183,72,29,0
403.4183,403.55048,70,36,0
403.55048,403.71002,72,39,0
403.71002,403.83322,68,47,0
403.83322,403.95923,72,36,0
403.95923,404.0839,60,36,0
404.0839,404.20963,65,32,0
404.20963,404.33432,68,40,0
404.33432,404.4576,72,36,0
404.4576,404.58292,60,36,0
404.58292,404.7075,65,32,0
404.7075,404.84204,68,45,0
404.84204,404.97656,72,35,0
404.97656,405.1008,68,35,0
404.97656,405.1008,65,35,0
405.1008,405.22586,72,31,0
405.22586,405.3498,64,44,0
405.22586,405.3498,70,44,0
405.3498,405.4734,72,29,0
405.4734,405.59995,65,31,0
405.4734,405.59995,68,31,0
405.59995,405.72473,72,28,0
405.72473,405.84723,64,37,0
405.72473,405.84723,67,37,0
405.84216,405.96527,72,29,0
405.97043,406.09323,60,29,0
406.09323,406.2177,64,27,0
406.2177,406.34378,67,37,0
406.34378,406.468,72,29,0
406.468,406.59195,60,29,0
406.59195,406.7191,64,27,0
406.7191,406.84268,67,37,0
406.84268,406.96768,72,29,0
406.96768,407.097,60,29,0
407.097,407.2263,64,26,0
407.2263,407.35236,67,42,0
407.35236,407.4784,72,31,0
407.4784,407.61057,70,31,0
407.61057,407.767,72,28,0
407.767,407.8902,68,39,0
407.89734,408.02164,72,29,0
408.02686,408.15033,60,29,0
408.15033,408.27646,65,27,0
408.27646,408.40073,68,42,0
408.40073,408.52386,72,34,0
408.52386,408.64783,60,34,0
408.64783,408.77374,65,29,0
408.77374,408.90826,68,41,0
408.90826,409.04086,72,33,0
409.0284,409.15125,60,33,0
409.15125,409.27567,65,30,0
409.27567,409.39908,68,37,0
409.41138,409.5361,72,29,0
409.52344,409.65036,64,29,0
409.52344,409.65036,70,29,0
409.66284,409.7749,72,26,0
409.7749,409.89917,68,37,0
409.7749,409.89917,65,37,0
409.89404,410.01733,72,29,0
410.02252,410.1491,60,29,0
410.1491,410.27155,65,25,0
410.27155,410.39746,68,38,0
410.39746,410.52322,72,30,0
410.52322,410.64694,60,31,0
410.64694,410.7735,65,29,0
410.7735,410.8964,68,40,0
410.8964,411.0205,72,32,0
411.0205,411.1498,60,32,0
411.1498,411.27914,65,30,0
411.27914,411.40518,68,42,0
411.40518,411.53122,72,33,0
411.53122,411.6634,70,41,0
411.53122,411.6634,63,41,0
411.6634,411.81973,75,44,0
411.81973,411.94293,68,54,0
411.81973,411.94293,72,54,0
411.94293,412.0678,75,41,0
412.0699,412.1932,63,41,0
412.19113,412.31714,68,37,0
412.31714,412.44058,72,46,0
412.44058,412.5676,75,41,0
412.5676,412.69168,63,41,0
412.69168,412.81662,68,40,0
412.81662,412.95114,72,51,0
412.95114,413.0857,75,44,0
413.0857,413.2107,72,46,0
413.0857,413.2107,68,46,0
413.2107,413.3357,75,44,0
413.3357,413.45963,73,55,0
413.3357,413.45963,67,55,0
413.45963,413.58405,75,48,0
413.58405,413.7089,68,50,0
413.58405,413.7089,72,50,0
413.7089,413.8337,75,54,0
413.8337,413.9584,70,60,0
413.8337,413.9584,67,60,0
413.9584,414.08228,75,49,0
414.08228,414.2077,63,49,0
414.2077,414.3309,67,45,0
414.3309,414.45685,70,52,0
414.45685,414.58066,75,42,0
414.58066,414.70456,63,42,0
414.70456,414.83008,67,39,0
414.83008,414.95447,70,58,0
414.95447,415.07864,75,45,0
415.07864,415.20795,63,45,0
415.20795,415.33725,67,40,0
415.33725,415.4633,70,56,0
415.4633,415.58936,75,41,0
415.58936,415.7215,73,41,0
415.7215,415.88107,75,38,0
415.88107,416.00607,72,53,0
416.00607,416.1295,75,43,0
416.1295,416.25055,63,43,0
416.25055,416.37335,68,39,0
416.37335,416.49472,72,48,0
416.49472,416.61578,75,38,0
416.61578,416.7374,63,38,0
416.7374,416.86023,68,35,0
416.86023,416.99475,72,45,0
416.99475,417.1293,75,35,0
417.1293,417.2543,63,35,0
417.2543,417.3787,68,34,0
417.3787,417.50235,72,38,0
417.3787,417.50235,68,38,0
417.50235,417.62613,75,30,0
417.62613,417.7508,73,29,0
417.62613,417.7508,67,29,0
417.7508,417.86383,75,28,0
417.87625,417.99893,72,37,0
417.87625,417.99893,68,37,0
417.99893,418.12415,75,29,0
418.12415,418.24805,63,29,0
418.24805,418.37146,68,26,0
418.37146,418.4964,72,38,0
418.4964,418.62003,75,30,0
418.62003,418.7449,63,31,0
418.7449,418.86868,68,29,0
418.86868,418.99506,72,40,0
418.99506,419.11954,75,32,0
419.11954,419.24884,63,32,0
419.24884,419.37814,68,30,0
419.37814,419.5042,72,42,0
419.5042,419.63025,75,33,0
419.63025,419.76242,63,41,0
419.76242,419.94308,68,44,0
419.94308,420.06616,73,50,0
420.06616,420.1911,68,36,0
420.1911,420.31613,65,36,0
420.31613,420.4426,68,35,0
420.4426,420.56577,73,45,0
420.56577,420.6892,77,36,0
420.6892,420.81326,65,36,0
420.81326,420.9381,68,33,0
420.9381,421.06238,73,44,0
421.06238,421.1879,77,37,0
421.1879,421.3172,65,37,0
421.3172,421.4465,70,37,0
421.4465,421.57257,73,48,0
421.57257,421.6986,77,38,0
421.6986,421.83078,65,41,0
421.83078,422.01044,70,44,0
422.01044,422.1346,73,56,0
422.1346,422.2587,75,42,0
422.2587,422.38306,63,42,0
422.38306,422.508,70,40,0
422.508,422.63348,73,52,0
422.63348,422.7568,75,42,0
422.7568,422.8814,63,42,0
422.8814,423.0039,70,39,0
423.0039,423.12967,72,50,0
423.12967,423.25485,75,40,0
423.25485,423.38416,63,40,0
423.38416,423.51346,68,38,0
423.51346,423.63953,72,42,0
423.63953,423.76556,75,33,0
423.76556,423.89774,63,41,0
423.89774,424.05237,68,44,0
424.05237,424.17493,70,54,0
424.17493,424.29953,75,41,0
424.29953,424.42273,63,41,0
424.42273,424.54782,68,36,0
424.54782,424.67004,70,48,0
424.67004,424.79453,75,39,0
424.79453,424.9196,63,39,0
424.9196,425.0444,68,35,0
425.0444,425.16904,70,48,0
425.16904,425.2955,75,32,0
425.2955,425.4248,63,37,0
425.4248,425.5541,67,33,0
425.5541,425.68018,70,42,0
425.68018,425.8062,75,29,0
425.8062,425.9384,63,29,0
425.9384,426.0799,67,26,0
426.0799,426.20352,72,37,0
426.20352,426.32715,75,29,0
426.32715,426.45267,63,29,0
426.45267,426.5762,68,27,0
426.5762,426.70166,72,38,0
426.70166,426.82416,75,30,0
426.82416,426.95016,63,31,0
426.95016,427.07492,68,28,0
427.07492,427.19916,71,40,0
427.19916,427.323,75,32,0
427.323,427.45233,63,32,0
427.45233,427.58163,68,28,0
427.58163,427.70767,71,42,0
427.70767,427.83374,75,33,0
427.83374,427.96588,63,33,0
427.96588,428.12054,68,28,0
428.12054,428.24356,70,37,0
428.24356,428.36835,75,29,0
428.36835,428.49164,63,29,0
428.49164,428.61673,68,26,0
428.61673,428.73856,70,38,0
428.73856,428.86334,75,29,0
428.86334,428.98645,63,29,0
428.98645,429.10928,68,27,0
429.10928,429.23514,70,40,0
429.23514,429.35938,75,28,0
429.35938,429.48868,63,28,0
429.48868,429.61798,67,26,0
429.61798,429.74402,70,41,0
429.74402,429.8701,75,29,0
429.8701,430.00223,63,29,0
430.00223,430.1499,67,25,0
430.1499,430.27347,72,37,0
430.27347,430.39835,75,35,0
430.39835,430.52216,63,29,0
430.52216,430.64536,68,28,0
430.64536,430.76926,72,38,0
430.76926,430.8908,75,30,0
430.8908,431.01608,63,31,0
431.01608,431.1397,68,28,0
431.1397,431.26392,72,45,0
431.26392,431.3884,75,32,0
431.3884,431.51773,63,32,0
431.51773,431.64703,68,30,0
431.64703,431.77307,72,47,0
431.77307,431.89914,75,34,0
431.89914,432.02518,63,38,0
432.02518,432.17224,68,35,0
432.17224,432.2962,72,50,0
432.2962,432.41818,76,39,0
432.41818,432.54294,64,39,0
432.54294,432.66498,67,34,0
432.66498,432.78735,72,51,0
432.78735,432.90857,76,39,0
432.90857,433.02982,64,40,0
433.02982,433.1507,67,34,0
433.1507,433.2744,72,49,0
433.2744,433.3977,76,38,0
433.3977,433.52704,64,38,0
433.52704,433.65634,67,35,0
433.65634,433.78238,72,51,0
433.78238,433.90845,76,40,0
433.90845,434.0345,64,41,0
434.0345,434.18155,67,38,0
434.18155,434.30655,72,59,0
434.30655,434.4289,77,45,0
434.4289,434.55228,65,46,0
434.55228,434.6728,68,45,0
434.6728,434.79538,72,64,0
434.79538,434.9172,77,48,0
434.9172,435.03976,65,50,0
435.03976,435.163,68,50,0
435.163,435.28693,72,58,0
435.28693,435.4109,77,47,0
435.4109,435.5402,65,47,0
435.5402,435.6695,68,43,0
435.6695,435.79556,72,54,0
435.79556,435.9216,77,46,0
435.9216,436.04767,65,46,0
436.04767,436.1947,68,41,0
436.1947,436.3197,72,57,0
436.3197,436.44336,76,44,0
436.44336,436.56555,64,44,0
436.56555,436.68835,67,40,0
436.68835,436.8126,72,58,0
436.8126,436.93457,76,44,0
436.93457,437.05795,64,46,0
437.05795,437.18082,67,41,0
437.18082,437.30603,72,56,0
437.30603,437.43082,76,43,0
437.43082,437.55737,64,43,0
437.55737,437.68396,67,39,0
437.68396,437.81003,72,58,0
437.81003,437.93607,76,46,0
437.93607,438.0621,64,47,0
438.0621,438.20917,67,44,0
438.20917,438.3326,72,67,0
438.3326,438.45438,77,51,0
438.45438,438.5788,65,51,0
438.5788,438.70297,68,47,0
438.70297,438.82635,72,69,0
438.82635,438.9492,77,51,0
438.9492,439.07492,65,51,0
439.07492,439.20016,68,48,0
439.20016,439.3259,72,60,0
439.3259,439.45193,77,49,0
439.45193,439.5847,65,49,0
439.5847,439.7174,68,48,0
439.7174,439.85568,72,59,0
439.85568,439.99393,77,51,0
439.99393,440.13217,65,51,0
440.13217,440.2952,68,47,0
440.2952,440.42508,73,65,0
440.42508,440.55472,77,53,0
440.55472,440.68237,65,53,0
440.68237,440.80933,68,49,0
440.80933,440.93365,73,62,0
440.93365,441.05594,77,53,0
441.05594,441.17737,65,53,0
441.17737,441.29984,68,49,0
441.29984,441.42264,73,62,0
441.42264,441.54736,78,53,0
441.54736,441.6795,66,53,0
441.6795,441.81168,69,49,0
441.81168,441.9372,73,62,0
441.9372,442.0627,78,53,0
442.0627,442.18823,66,53,0
442.18823,442.31375,69,49,0
442.31375,442.43622,73,65,0
442.43622,442.55865,77,53,0
442.55865,442.68112,65,53,0
442.68112,442.80356,68,47,0
442.80356,442.92963,73,62,0
442.92963,443.05283,77,53,0
443.05283,443.17612,65,53,0
443.17612,443.29987,68,48,0
443.29987,443.42307,73,62,0
443.42307,443.54752,78,53,0
443.54752,443.67682,66,53,0
443.67682,443.80612,69,49,0
443.80612,443.93112,73,62,0
443.93112,444.05612,78,53,0
444.05612,444.18112,66,53,0
444.18112,444.30612,69,48,0
444.30612,444.4383,73,65,0
444.4383,444.57043,77,46,0
444.57043,444.7026,65,46,0
444.7026,444.83478,68,42,0
444.83478,444.96463,73,55,0
444.96463,445.0945,77,40,0
445.0945,445.22437,65,40,0
445.22437,445.35425,68,36,0
445.35425,445.49124,73,40,0
445.49124,445.6282,77,46,0
445.6282,445.7652,65,37,0
445.7652,445.90274,68,35,0
445.90274,446.04694,72,37,0
446.04694,446.19427,77,43,0
446.19427,446.3449,65,37,0
446.3449,446.49905,68,34,0
446.49905,446.63837,74,37,0
446.63837,446.774,77,29,0
446.774,446.90643,65,29,0
446.90643,447.0386,67,27,0
447.0386,447.1668,74,38,0
447.1668,447.295,77,30,0
447.295,447.42322,65,31,0
447.42322,447.55142,67,28,0
447.55142,447.67963,74,41,0
447.67963,447.80783,77,31,0
447.80783,447.94482,65,31,0
447.94482,448.0818,67,29,0
448.0818,448.21396,74,40,0
448.21396,448.34613,77,29,0
448.34613,448.47827,65,32,0
448.47827,448.62534,67,28,0
448.62534,448.753,72,44,0
448.753,448.88065,76,32,0
448.88065,449.0083,64,32,0
449.0083,449.136,67,30,0
449.136,449.26364,72,44,0
449.26364,449.3913,76,34,0
449.3913,449.51895,64,34,0
449.51895,449.6466,67,31,0
449.6466,449.7748,72,41,0
449.7748,449.903,76,31,0
449.903,450.04,64,31,0
450.04,450.177,67,29,0
450.177,450.30914,72,40,0
450.30914,450.4413,76,29,0
450.4413,450.57346,64,31,0
450.57346,450.72052,67,26,0
450.72052,450.85095,72,37,0
450.85095,450.98138,77,27,0
450.98138,451.11185,65,27,0
451.11185,451.24228,69,24,0
451.24228,451.37103,72,37,0
451.37103,451.4998,77,28,0
451.4998,451.62854,65,28,0
451.62854,451.7573,69,24,0
451.7573,451.88605,74,37,0
451.88605,452.0148,77,27,0
452.0148,452.14355,65,27,0
452.14355,452.2723,69,25,0
452.2723,452.4022,74,37,0
452.4022,452.53204,77,28,0
452.53204,452.66193,65,28,0
452.66193,452.79178,69,26,0
452.79178,452.92224,74,37,0
452.92224,453.05267,77,27,0
453.05267,453.1831,65,27,0
453.1831,453.31354,71,24,0
453.31354,453.4423,74,37,0
453.4423,453.57104,77,28,0
453.57104,453.6998,65,28,0
453.6998,453.82855,71,25,0
453.82855,453.9573,74,37,0
453.9573,454.08606,77,27,0
454.08606,454.2148,65,27,0
454.2148,454.34357,71,24,0
454.34357,454.47345,74,37,0
454.47345,454.6033,77,29,0
454.6033,454.7332,65,29,0
454.7332,454.86307,71,25,0
454.86307,454.9935,72,40,0
454.9935,455.12393,76,29,0
455.12393,455.25436,64,29,0
455.25436,455.3848,67,26,0
455.3848,455.51355,72,38,0
455.51355,455.6423,76,30,0
455.6423,455.77106,64,30,0
455.77106,455.8998,67,27,0
455.8998,456.02856,72,30,0
456.02856,456.15732,76,27,0
456.15732,456.28607,64,27,0
456.28607,456.41483,67,23,0
456.41483,456.5447,72,45,0
456.5447,456.67456,76,32,0
456.67456,456.80444,64,35,0
456.80444,456.93433,67,39,0
456.93433,457.06476,71,49,0
457.06476,457.1952,77,36,0
457.1952,457.32562,65,36,0
457.32562,457.45605,67,33,0
457.45605,457.5848,71,46,0
457.5848,457.71356,77,33,0
457.71356,457.84232,65,31,0
457.84232,457.97107,67,29,0
457.97107,458.09982,70,37,0
458.09982,458.22858,72,27,0
458.22858,458.35733,60,27,0
458.35733,458.48608,67,25,0
458.48608,458.61597,70,37,0
458.61597,458.74585,72,28,0
458.74585,458.8757,60,28,0
458.8757,459.00558,67,27,0
459.00558,459.13434,69,37,0
459.13434,459.2631,72,27,0
459.2631,459.39185,60,27,0
459.39185,459.5206,65,24,0
459.5206,459.65115,69,37,0
459.65115,459.78253,72,28,0
459.78253,459.91492,60,28,0
459.91492,460.04822,65,23,0
460.04822,460.18253,69,37,0
460.18253,460.31784,72,28,0
460.31784,460.45404,60,28,0
460.45404,460.5914,65,25,0
460.5914,460.7207,69,37,0
460.7207,460.85,72,29,0
460.85,460.98218,67,36,0
460.98218,461.14175,72,39,0
461.14175,461.26675,69,47,0
461.26675,461.39175,72,36,0
461.39175,461.51675,60,36,0
461.51675,461.64175,65,32,0
461.64175,461.76547,69,40,0
461.76547,461.89117,72,36,0
461.89117,462.01566,60,36,0
462.01566,462.14117,65,34,0
462.14117,462.2757,69,45,0
462.2757,462.41022,72,35,0
462.41022,462.53522,65,35,0
462.41022,462.53522,69,35,0
462.53522,462.66022,72,31,0
462.66022,462.78394,70,44,0
462.66022,462.78394,64,44,0
462.78394,462.91037,72,29,0
462.91037,463.03445,65,31,0
462.91037,463.03445,69,31,0
463.03445,463.15897,72,28,0
463.15897,463.2833,67,37,0
463.15897,463.2833,64,37,0
463.2833,463.40686,72,29,0
463.40686,463.532,60,29,0
463.532,463.6552,64,25,0
463.6552,463.77957,67,37,0
463.77957,463.9054,72,29,0
463.9054,464.0289,60,29,0
464.0289,464.1541,64,27,0
464.1541,464.27798,67,37,0
464.27798,464.40195,72,29,0
464.40195,464.53128,60,29,0
464.53128,464.66058,64,26,0
464.66058,464.78662,67,42,0
464.78662,464.9127,72,31,0
464.9127,465.04483,70,31,0
465.04483,465.2044,72,28,0
465.2044,465.32788,69,39,0
465.32788,465.45126,72,29,0
465.45126,465.5779,60,29,0
465.5779,465.70206,65,27,0
465.70206,465.82574,69,42,0
465.82574,465.9492,72,34,0
465.9492,466.0747,60,34,0
466.0747,466.19968,65,30,0
466.19968,466.33423,69,41,0
466.33423,466.46875,72,33,0
466.46875,466.59375,60,33,0
466.59375,466.7186,65,30,0
466.7186,466.8408,65,37,0
466.7186,466.8408,69,37,0
466.8408,466.96228,72,29,0
466.96228,467.08804,70,29,0
466.96228,467.08804,64,29,0
467.1006,467.2117,72,26,0
467.2117,467.33582,65,37,0
467.2117,467.33582,69,37,0
467.33057,467.4563,72,29,0
467.4615,467.58453,60,29,0
467.58453,467.70944,65,28,0
467.70944,467.83496,69,38,0
467.83496,467.95786,72,30,0
467.95786,468.08133,60,31,0
468.08133,468.20764,65,29,0
468.20764,468.33258,69,40,0
468.33258,468.45844,72,32,0
468.45844,468.58774,60,32,0
468.58774,468.71704,65,29,0
468.71704,468.8431,69,42,0
468.8431,468.96915,72,33,0
468.96915,469.10132,70,41,0
469.10132,469.2609,72,44,0
469.2609,469.3848,69,54,0
469.3848,469.50934,72,41,0
469.50934,469.634,60,41,0
469.634,469.75806,65,36,0
469.75806,469.88394,69,46,0
469.88394,470.0086,72,41,0
470.0086,470.13376,60,41,0
470.13376,470.25845,65,40,0
470.25845,470.39297,69,51,0
470.39297,470.52753,72,44,0
470.52753,470.65253,69,46,0
470.65253,470.7775,72,44,0
470.7775,470.90057,70,55,0
470.90057,471.02493,74,48,0
471.02493,471.1489,67,50,0
471.1489,471.27484,76,54,0
471.27484,471.39844,69,60,0
471.39844,471.5222,77,49,0
471.5222,471.64774,65,49,0
471.64774,471.77322,69,46,0
471.77322,471.89554,72,52,0
471.89554,472.02237,77,42,0
472.02237,472.1488,65,42,0
472.1488,472.2722,69,38,0
472.2722,472.39832,72,58,0
472.39832,472.524,77,45,0
472.524,472.6533,69,45,0
472.6533,472.78262,77,40,0
472.78262,472.90866,72,56,0
472.90866,473.03473,76,41,0
473.03473,473.16687,70,41,0
473.16687,473.32645,74,37,0
473.32645,473.45145,69,53,0
473.45145,473.57578,72,39,0
473.57578,473.70047,60,39,0
473.70047,473.82523,65,34,0
473.82523,473.94815,69,46,0
473.94815,474.07306,72,34,0
474.07306,474.19742,60,34,0
474.19742,474.32138,65,31,0
474.32138,474.4559,69,40,0
474.4559,474.59045,72,31,0
474.59045,474.71976,65,31,0
474.59045,474.71976,69,31,0
474.71976,474.84906,72,30,0
474.84906,474.97513,70,43,0
474.84906,474.97513,64,43,0
474.97513,475.10117,72,35,0
475.10117,475.23334,64,35,0
475.10117,475.23334,67,35,0
475.23334,475.3929,72,33,0
475.3929,475.5179,65,36,0
475.3929,475.5179,69,36,0
475.5179,475.6429,72,30,0
475.6429,475.76788,60,30,0
475.76788,475.89233,65,26,0
475.89233,476.0167,69,30,0
476.0167,476.14294,72,33,0
476.14294,476.26828,60,33,0
476.26828,476.39435,65,33,0
476.39435,476.5289,69,45,0
476.5289,476.66342,72,31,0
476.66342,476.79272,60,31,0
476.79272,476.92203,65,27,0
476.92203,477.05655,69,25,0
477.05655,477.1911,72,19,0
477.1911,477.3287,70,24,0
477.3287,477.50113,72,26,0
477.50113,477.62717,69,32,0
477.62717,477.75323,72,24,0
477.75323,477.87927,60,24,0
477.87927,478.00546,65,24,0
478.00546,478.13043,69,27,0
478.13043,478.25726,72,24,0
478.25726,478.3831,60,24,0
478.3831,478.5086,65,24,0
478.5086,478.64624,69,30,0
478.64624,478.78384,72,26,0
478.78384,478.90884,69,27,0
478.90884,479.03394,72,28,0
479.03394,479.1616,70,33,0
479.1616,479.28925,74,28,0
479.28925,479.41693,67,30,0
479.41693,479.5446,76,32,0
479.5446,479.6696,69,36,0
479.6696,479.7946,77,29,0
479.7946,479.9196,65,29,0
479.9196,480.0446,69,27,0
480.0446,480.1696,72,31,0
480.1696,480.2946,77,25,0
480.2946,480.4196,65,25,0
480.4196,480.5446,69,25,0
480.5446,480.68192,72,34,0
480.68192,480.81937,77,24,0
480.81937,480.9521,69,24,0
480.9521,481.08484,77,21,0
481.08484,481.21414,72,33,0
481.21414,481.34348,76,24,0
481.34348,481.47562,70,24,0
481.47562,481.6352,74,23,0
481.6352,481.76233,69,31,0
481.76233,481.88943,72,24,0
481.88943,482.01654,60,24,0
482.01654,482.14368,65,24,0
482.14368,482.27298,69,28,0
482.27298,482.40228,72,22,0
482.40228,482.53162,60,22,0
482.53162,482.66092,65,22,0
482.66092,482.79852,69,27,0
482.79852,482.93616,72,21,0
482.93616,483.0695,65,21,0
482.93616,483.0695,69,21,0
483.0695,483.20282,72,21,0
483.20282,483.33157,64,33,0
483.20282,483.33157,70,33,0
483.33157,483.46033,72,24,0
483.46033,483.59247,67,24,0
483.46033,483.59247,64,24,0
483.59247,483.75204,72,22,0
483.75204,483.87918,69,31,0
483.75204,483.87918,65,31,0
483.87918,484.00577,72,25,0
484.00577,484.1313,60,25,0
484.1313,484.25894,65,24,0
484.25894,484.38605,69,28,0
484.38605,484.51157,72,22,0
484.51157,484.63556,60,22,0
484.63556,484.76056,65,22,0
484.76056,484.89508,69,27,0
484.89508,485.0296,72,21,0
485.0296,485.16412,69,21,0
485.0296,485.16412,65,21,0
485.16412,485.29868,72,21,0
485.29868,485.42853,64,33,0
485.29868,485.42853,70,33,0
485.42853,485.5584,72,24,0
485.5584,485.6954,64,24,0
485.5584,485.6954,67,24,0
485.6954,485.85495,72,23,0
485.85495,485.9805,65,31,0
485.85495,485.9805,69,31,0
485.9805,486.1055,72,24,0
486.1055,486.23154,60,24,0
486.23154,486.35654,65,25,0
486.35654,486.48154,69,26,0
486.48154,486.60812,72,20,0
486.60812,486.73416,60,20,0
486.73416,486.86075,65,20,0
486.86075,486.99118,69,24,0
486.99118,487.1216,72,18,0
487.1216,487.25436,69,18,0
487.1216,487.25436,65,18,0
487.25436,487.38712,72,18,0
487.38712,487.51642,64,28,0
487.38712,487.51642,70,28,0
487.51642,487.64572,72,20,0
487.64572,487.77905,64,19,0
487.64572,487.77905,67,19,0
487.77905,487.93863,72,19,0
487.93863,488.0647,65,30,0
488.0647,488.19073,69,22,0
488.19073,488.3168,57,22,0
488.3168,488.44284,60,20,0
488.44284,488.56888,65,33,0
488.56888,488.69495,69,25,0
488.69495,488.82098,57,25,0
488.82098,488.9543,60,24,0
488.9543,489.08145,65,37,0
489.08145,489.20856,69,26,0
489.20856,489.3357,57,26,0
489.3357,489.4628,60,25,0
489.4628,489.5899,65,36,0
489.5899,489.71704,69,27,0
489.71704,489.84415,57,28,0
489.84415,489.97632,60,28,0
490.2202,490.4641,40,39,0
490.4641,490.708,41,40,0
490.708,490.95193,44,42,0
490.95193,491.20715,47,43,0
491.20715,491.46268,48,44,0
491.46268,491.72476,53,46,0
491.72476,491.99478,55,47,0
491.99478,493.79492,56,51,0
493.79492,494.30862,43,36,0
493.79492,494.30862,52,43,0
491.99478,494.30862,48,51,0
494.30862,494.82834,44,43,0
494.82834,495.34747,45,39,0
495.34747,495.87067,43,43,0
495.87067,496.39374,45,40,0
496.39374,496.64703,49,44,0
494.30862,496.64703,53,43,0
491.99478,496.64703,41,43,0
496.64703,496.771,53,37,0
496.64703,496.771,49,32,0
496.9003,497.02426,51,41,0
496.9003,497.02426,48,32,0
497.15356,497.27856,51,44,0
497.15356,497.27856,48,36,0
497.40845,497.53503,46,39,0
497.40845,497.53503,49,47,0
497.66776,497.79654,49,51,0
497.66776,497.79654,46,43,0
497.93106,498.07324,48,55,0
497.93106,498.07324,44,46,0
498.21542,498.3576,44,49,0
498.21542,498.3576,48,60,0
498.4998,498.79828,46,64,0
498.4998,498.79828,43,54,0
499.0968,499.3953,55,55,0
499.0968,499.3953,52,55,0
499.0968,499.3953,58,55,0
499.0968,499.3953,61,65,0
500.98825,501.5642,56,35,0
500.98825,501.5642,53,29,0
502.12494,502.6918,55,32,0
502.12494,502.6918,46,27,0
502.12494,502.6918,49,27,0
503.48666,503.6849,53,32,0
503.6849,503.88022,55,33,0
503.88022,504.08063,56,35,0
504.08063,504.28943,55,34,0
503.28497,504.53635,48,41,0
504.29095,504.53763,53,30,0
504.54144,505.15384,58,40,0
505.1486,505.4644,56,35,0
505.4644,505.8474,55,35,0
504.53635,505.8474,48,40,0
506.0734,506.29636,53,25,0
506.29636,506.51807,55,27,0
506.51807,506.74716,56,29,0
506.74716,506.98492,55,29,0
505.8474,507.26273,48,38,0
506.98666,507.2642,53,28,0
507.26868,508.00177,58,35,0
507.99487,508.40866,56,30,0
508.40866,508.9259,55,29,0
507.26273,508.9259,48,35,0
508.9259,509.80826,53,27,0
508.9259,509.80826,41,22,0
510.6906,511.57294,53,27,0
510.6906,511.57294,48,22,0
510.6906,511.57294,41,22,0
512.4553,514.22003,41,22,0
512.4553,514.22003,53,26,0
512.4553,514.22003,48,22,0
