start_time,end_time,note_value,velocity,instrument_program_number
13.319689,13.729244,67,84,0
13.319689,13.729244,55,71,0
13.729244,13.804315,67,79,0
13.729244,13.804315,55,67,0
13.929432,14.004501,67,79,0
13.929432,14.004501,55,67,0
14.129619,14.53549,67,79,0
14.129619,14.53549,55,67,0
14.53549,14.61056,67,80,0
14.53549,14.61056,55,68,0
14.735678,14.810748,67,81,0
14.735678,14.810748,55,69,0
14.935864,15.012756,68,90,0
14.935864,15.012756,56,76,0
15.345952,15.954761,69,89,0
15.345952,15.954761,57,75,0
15.954761,16.029575,71,80,0
15.954761,16.029575,59,68,0
16.154268,16.229084,72,79,0
16.154268,16.229084,60,67,0
16.353777,16.428593,71,80,0
16.353777,16.428593,59,68,0
16.553284,16.959156,69,84,0
16.553284,16.959156,57,71,0
16.959156,17.033972,69,84,0
16.959156,17.033972,57,71,0
17.158665,17.23348,69,80,0
17.158665,17.23348,57,68,0
17.358173,17.764044,69,80,0
17.358173,17.764044,57,68,0
17.764044,17.839115,69,81,0
17.764044,17.839115,57,69,0
17.964231,18.0393,69,81,0
17.964231,18.0393,57,69,0
18.16442,18.24158,70,90,0
18.16442,18.24158,58,76,0
18.575941,19.18475,71,89,0
18.575941,19.18475,59,75,0
19.18475,19.25828,73,76,0
19.18475,19.25828,61,76,0
19.380829,19.455332,74,75,0
19.380829,19.455332,62,63,0
19.579504,19.656822,76,76,0
19.579504,19.656822,64,64,0
19.785688,20.19156,77,85,0
19.785688,20.19156,65,72,0
20.19156,20.267662,77,76,0
20.19156,20.267662,65,64,0
20.394497,20.475027,77,76,0
20.394497,20.475027,65,64,0
20.609243,21.211952,68,90,0
20.609243,21.211952,56,76,0
21.211952,21.288054,68,82,0
21.211952,21.288054,56,70,0
21.414888,21.82076,76,85,0
21.414888,21.82076,64,72,0
21.82076,21.895018,76,76,0
21.82076,21.895018,64,64,0
22.01878,22.099897,76,77,0
22.01878,22.099897,64,65,0
22.23509,22.836405,67,90,0
22.23509,22.836405,55,76,0
22.836405,22.912243,67,81,0
22.836405,22.912243,55,69,0
23.038643,23.114481,66,81,0
23.038643,23.114481,54,69,0
23.24088,23.31595,69,82,0
23.24088,23.31595,57,70,0
23.441067,23.516138,74,87,0
23.441067,23.516138,62,73,0
23.641254,23.716324,72,82,0
23.641254,23.716324,60,70,0
23.84144,23.917542,71,84,0
23.84144,23.917542,59,71,0
24.044376,24.120478,67,81,0
24.044376,24.120478,55,69,0
24.247313,24.323414,66,81,0
24.247313,24.323414,54,69,0
24.450249,24.52635,64,81,0
24.450249,24.52635,52,69,0
24.653185,25.063272,72,84,0
24.653185,25.063272,60,71,0
25.063272,25.480606,71,81,0
25.063272,25.480606,59,69,0
25.480606,26.336466,69,84,0
25.480606,26.336466,57,71,0
26.336466,26.414995,71,81,0
26.336466,26.414995,59,69,0
26.545876,26.624405,67,75,0
26.545876,26.624405,55,64,0
26.755285,27.629627,72,80,0
26.755285,27.629627,60,68,0
27.629627,28.069187,71,77,0
27.629627,28.069187,59,65,0
28.069187,28.48298,72,84,0
28.069187,28.48298,60,71,0
28.48298,28.559252,72,79,0
28.48298,28.559252,60,67,0
28.68637,28.762642,72,79,0
28.68637,28.762642,60,67,0
28.889761,29.295633,72,79,0
28.889761,29.295633,60,67,0
29.295633,29.370703,72,80,0
29.295633,29.370703,60,68,0
29.49582,29.57089,72,81,0
29.49582,29.57089,60,69,0
29.696007,29.775377,73,90,0
29.696007,29.775377,61,76,0
30.113424,30.72223,74,89,0
30.113424,30.72223,62,75,0
30.72223,30.797047,76,80,0
30.72223,30.797047,64,68,0
30.92174,30.995752,77,79,0
30.92174,30.995752,65,67,0
31.119108,31.193121,76,80,0
31.119108,31.193121,64,68,0
31.316477,31.72235,74,84,0
31.316477,31.72235,62,71,0
31.72235,31.797165,74,84,0
31.72235,31.797165,62,71,0
31.921856,31.996672,74,80,0
31.921856,31.996672,62,68,0
32.121365,32.527237,74,80,0
32.121365,32.527237,62,68,0
32.527237,32.602306,74,81,0
32.527237,32.602306,62,69,0
32.727425,32.802494,74,81,0
32.727425,32.802494,62,69,0
32.927612,33.00843,75,90,0
32.927612,33.00843,63,76,0
33.34961,33.95842,76,89,0
33.34961,33.95842,64,75,0
33.95842,34.03219,78,72,0
33.95842,34.03219,66,72,0
34.15514,34.228912,79,71,0
34.15514,34.228912,67,59,0
34.351864,34.425632,81,72,0
34.351864,34.425632,69,60,0
34.548584,34.954456,82,80,0
34.548584,34.954456,70,68,0
34.954456,35.030556,82,72,0
34.954456,35.030556,70,60,0
35.15739,35.237923,82,72,0
35.15739,35.237923,70,60,0
35.37214,35.9729,73,84,0
35.37214,35.9729,61,71,0
35.9729,36.0474,73,77,0
35.9729,36.0474,61,66,0
36.171574,36.57698,81,80,0
36.171574,36.57698,69,68,0
36.57698,36.652992,81,72,0
36.57698,36.652992,69,60,0
36.779682,36.860798,81,73,0
36.779682,36.860798,69,61,0
36.99599,37.597878,72,84,0
36.99599,37.597878,60,71,0
37.597878,37.67389,72,73,0
37.597878,37.67389,60,61,0
37.80058,37.87659,71,73,0
37.80058,37.87659,59,63,0
38.00328,38.07835,74,75,0
38.00328,38.07835,62,64,0
38.20347,38.278538,79,80,0
38.20347,38.278538,67,68,0
38.403656,38.478725,77,77,0
38.403656,38.478725,65,65,0
38.603844,38.679943,76,79,0
38.603844,38.679943,64,67,0
38.806778,38.88288,72,77,0
38.806778,38.88288,60,66,0
39.009716,39.085815,71,78,0
39.009716,39.085815,59,67,0
39.21265,39.28875,69,79,0
39.21265,39.28875,57,67,0
39.41559,39.825676,77,84,0
39.41559,39.825676,65,71,0
39.825676,40.243008,76,81,0
39.825676,40.243008,64,69,0
40.243008,41.12343,74,84,0
40.243008,41.12343,62,71,0
41.12343,42.136063,84,89,0
41.12343,42.136063,72,74,0
41.12343,42.136063,76,74,0
42.136063,42.210625,79,84,0
42.136063,42.210625,76,70,0
42.136063,42.210625,67,70,0
42.334896,42.410736,81,84,0
42.334896,42.410736,77,70,0
42.334896,42.410736,69,70,0
42.537132,42.612972,82,84,0
42.537132,42.612972,79,70,0
42.537132,42.612972,70,70,0
42.739372,42.813934,81,89,0
42.739372,42.813934,77,74,0
42.739372,42.813934,69,74,0
42.938206,43.012768,79,83,0
42.938206,43.012768,76,70,0
42.938206,43.012768,67,70,0
43.13704,43.21314,77,83,0
43.13704,43.21314,74,70,0
43.13704,43.21314,65,70,0
43.339973,43.416077,76,83,0
43.339973,43.416077,69,70,0
43.339973,43.416077,64,70,0
43.54291,44.142723,74,89,0
43.54291,44.142723,65,75,0
43.54291,44.142723,62,75,0
44.142723,44.216736,85,86,0
44.142723,44.216736,76,73,0
44.142723,44.216736,73,73,0
44.34009,45.347916,86,89,0
44.34009,45.347916,77,74,0
44.34009,45.347916,74,74,0
45.347916,45.421,81,84,0
45.347916,45.421,77,70,0
45.347916,45.421,69,70,0
45.54281,45.61813,83,84,0
45.54281,45.61813,71,70,0
45.54281,45.61813,79,70,0
45.743668,45.81899,84,84,0
45.743668,45.81899,81,70,0
45.743668,45.81899,72,70,0
45.944523,46.019146,83,89,0
45.944523,46.019146,79,74,0
45.944523,46.019146,71,74,0
46.142582,46.216644,81,83,0
46.142582,46.216644,78,70,0
46.142582,46.216644,69,70,0
46.34008,46.41618,79,83,0
46.34008,46.41618,76,70,0
46.34008,46.41618,67,70,0
46.543015,46.619118,78,83,0
46.543015,46.619118,71,70,0
46.543015,46.619118,66,70,0
46.745953,47.346554,76,89,0
46.745953,47.346554,67,75,0
46.745953,47.346554,64,75,0
47.346554,47.421116,74,86,0
47.346554,47.421116,65,73,0
47.346554,47.421116,62,73,0
47.545387,47.620457,73,89,0
47.545387,47.620457,64,74,0
47.545387,47.620457,61,74,0
47.745575,47.820644,76,82,0
47.745575,47.820644,67,69,0
47.745575,47.820644,64,69,0
47.94622,48.02232,73,89,0
47.94622,48.02232,64,74,0
47.94622,48.02232,61,74,0
48.149155,48.229687,76,80,0
48.149155,48.229687,67,67,0
48.149155,48.229687,64,67,0
48.363903,48.436718,82,89,0
48.363903,48.436718,79,74,0
48.363903,48.436718,70,74,0
48.55808,49.166183,82,86,0
48.55808,49.166183,79,73,0
48.55808,49.166183,70,73,0
49.166183,49.241,72,87,0
49.166183,49.241,63,72,0
49.166183,49.241,60,72,0
49.365692,49.44051,75,80,0
49.365692,49.44051,66,67,0
49.365692,49.44051,63,67,0
49.5652,49.640015,72,87,0
49.5652,49.640015,63,72,0
49.5652,49.640015,60,72,0
49.76471,49.845825,75,78,0
49.76471,49.845825,66,65,0
49.76471,49.845825,63,65,0
49.981018,50.05431,81,87,0
49.981018,50.05431,78,72,0
49.981018,50.05431,69,72,0
50.17646,50.78663,81,84,0
50.17646,50.78663,78,71,0
50.17646,50.78663,69,71,0
50.78663,51.190205,79,90,0
50.78663,51.190205,67,84,0
51.190205,51.59058,74,81,0
51.190205,51.59058,71,68,0
51.190205,51.59058,62,68,0
51.59058,51.66668,76,79,0
51.59058,51.66668,72,67,0
51.59058,51.66668,64,67,0
51.793514,51.869617,77,81,0
51.793514,51.869617,74,68,0
51.793514,51.869617,65,68,0
51.996452,52.07255,79,84,0
51.996452,52.07255,76,70,0
51.996452,52.07255,67,70,0
52.199387,52.27549,81,86,0
52.199387,52.27549,77,73,0
52.199387,52.27549,69,73,0
52.402325,52.812412,79,89,0
52.402325,52.812412,74,74,0
52.402325,52.812412,71,74,0
52.812412,53.26668,84,88,0
52.812412,53.26668,79,74,0
52.812412,53.26668,72,74,0
53.26668,53.69461,83,82,0
53.69461,54.12254,83,94,0
53.26668,54.12254,89,97,0
53.26668,54.12254,77,82,0
54.219944,54.317345,67,74,0
54.317345,54.41475,70,75,0
54.41475,54.51215,73,75,0
54.51215,54.623615,76,76,0
54.607693,54.71916,79,77,0
54.703236,54.816826,82,78,0
54.798775,54.92326,85,79,0
54.907078,55.004375,91,79,0
55.004375,55.10178,88,78,0
55.10178,55.19897,85,77,0
55.19897,55.29606,82,76,0
55.29606,55.392937,79,75,0
55.392937,55.49034,76,74,0
55.49034,55.588272,73,73,0
55.588272,55.724636,70,72,0
55.821724,55.91881,67,74,0
55.91881,56.0159,71,75,0
56.0159,56.112988,77,75,0
56.112988,56.223396,79,76,0
56.207626,56.318035,83,77,0
56.30226,56.414566,89,78,0
56.3969,56.51919,83,79,0
56.502907,56.60052,91,79,0
56.60052,56.69761,86,78,0
56.69761,56.794174,83,77,0
56.794174,56.890175,79,76,0
56.890175,56.98638,74,75,0
56.98638,57.083157,71,74,0
57.083157,57.180504,67,73,0
57.180504,57.317493,71,72,0
57.413956,57.510418,67,74,0
57.510418,57.60688,70,75,0
57.60688,57.703342,73,75,0
57.703342,57.813755,76,76,0
57.79798,57.90839,79,77,0
57.89262,58.004616,82,78,0
57.987255,58.107605,85,79,0
58.091423,58.18872,91,79,0
58.18872,58.28612,88,78,0
58.28612,58.383316,85,77,0
58.383316,58.480404,82,76,0
58.480404,58.577282,79,75,0
58.577282,58.674683,76,74,0
58.674683,58.772617,73,73,0
58.772617,58.90898,70,72,0
59.006382,59.103786,67,74,0
59.103786,59.201187,71,75,0
59.201187,59.29859,77,75,0
59.29859,59.410057,79,76,0
59.39413,59.505596,83,77,0
59.489674,59.602455,89,78,0
59.585217,59.70495,83,79,0
59.688663,59.786278,91,79,0
59.786278,59.883366,86,78,0
59.883366,59.97993,83,77,0
59.97993,60.07593,79,76,0
60.07593,60.17214,74,75,0
60.17214,60.268913,71,74,0
60.268913,60.366264,67,73,0
60.366264,60.50325,71,72,0
60.50325,60.62282,73,71,0
60.605812,60.724575,79,65,0
60.70768,60.82564,82,65,0
60.80886,60.926033,85,65,0
60.909367,61.025757,74,74,0
61.009197,61.12482,79,70,0
61.10837,61.223236,83,70,0
61.206894,61.320957,86,70,0
61.30472,61.418358,76,79,0
61.402126,61.515762,79,72,0
61.499527,61.613163,82,72,0
61.596928,61.710567,88,72,0
61.694332,61.808712,78,83,0
61.792267,61.90816,81,73,0
61.891495,62.01418,84,73,0
61.992054,62.140877,90,73,0
62.22126,62.317726,67,74,0
62.317726,62.41419,71,75,0
62.41419,62.51065,76,75,0
62.51065,62.604694,79,76,0
62.604694,62.69874,83,77,0
62.69874,62.79278,88,78,0
62.79278,62.89879,91,79,0
62.89879,62.99572,95,79,0
62.99572,63.091927,91,78,0
63.091927,63.18747,88,77,0
63.18747,63.282356,83,76,0
63.282356,63.376892,79,75,0
63.376892,63.472282,76,74,0
63.472282,63.568592,71,73,0
63.568592,63.705578,67,72,0
63.802044,63.898506,67,74,0
63.898506,63.99497,71,75,0
63.99497,64.09143,75,75,0
64.09143,64.18577,79,76,0
64.18577,64.28011,83,77,0
64.28011,64.37445,87,78,0
64.37445,64.48045,91,79,0
64.48045,64.57707,95,79,0
64.57707,64.67307,91,78,0
64.67307,64.76846,87,77,0
64.76846,64.86325,83,76,0
64.86325,64.95789,79,75,0
64.95789,65.053535,75,74,0
65.053535,65.150314,71,73,0
65.150314,65.2873,67,72,0
65.3847,65.4821,67,74,0
65.4821,65.579506,71,75,0
65.579506,65.67691,76,75,0
65.67691,65.772446,79,76,0
65.772446,65.86799,83,77,0
65.86799,65.96353,88,78,0
65.96353,66.06954,91,79,0
66.06954,66.16715,95,79,0
66.16715,66.264244,91,78,0
66.264244,66.36081,88,77,0
66.36081,66.45681,83,76,0
66.45681,66.55302,79,75,0
66.55302,66.64979,76,74,0
66.64979,66.74714,71,73,0
66.74714,66.884125,67,72,0
66.984795,67.085464,67,77,0
67.085464,67.18614,71,78,0
67.18614,67.28681,74,78,0
67.28681,67.38517,77,79,0
67.38517,67.48353,83,80,0
67.48353,67.581894,86,81,0
67.581894,67.70586,89,82,0
67.70586,67.80536,95,82,0
67.80536,67.904205,89,81,0
67.904205,68.00241,86,80,0
68.00241,68.09997,83,79,0
68.09997,68.19748,77,78,0
68.19748,68.296326,74,77,0
68.296326,68.39661,71,76,0
68.39661,68.52626,65,75,0
68.52626,68.63402,77,80,0
68.63402,68.7411,83,73,0
68.7411,68.84754,86,73,0
68.84754,68.9533,89,73,0
68.9533,69.05841,78,78,0
69.05841,69.16288,83,74,0
69.16288,69.26675,86,74,0
69.26675,69.36996,90,75,0
69.36996,69.472694,80,85,0
69.472694,69.57543,83,78,0
69.57543,69.67818,86,79,0
69.67818,69.7808,92,79,0
69.7808,69.884514,82,91,0
69.884514,69.99006,85,81,0
69.99006,70.0964,88,81,0
70.0964,70.22914,94,81,0
70.22914,70.64436,86,92,0
70.22914,70.64436,74,77,0
70.22914,70.64436,78,77,0
70.22914,70.64436,83,77,0
70.64436,70.84638,86,92,0
70.64436,70.84638,74,77,0
70.64436,70.84638,78,77,0
70.64436,70.84638,83,77,0
70.84638,71.0585,86,88,0
70.84638,71.0585,74,74,0
70.84638,71.0585,78,74,0
70.84638,71.0585,83,74,0
71.0585,71.888954,90,92,0
71.0585,71.888954,78,77,0
71.0585,71.888954,82,77,0
71.0585,71.888954,85,77,0
71.888954,72.30418,85,92,0
71.888954,72.30418,73,77,0
71.888954,72.30418,76,77,0
71.888954,72.30418,81,77,0
72.30418,72.5062,85,92,0
72.30418,72.5062,73,77,0
72.30418,72.5062,76,77,0
72.30418,72.5062,81,77,0
72.5062,72.71832,85,88,0
72.5062,72.71832,73,74,0
72.5062,72.71832,76,74,0
72.5062,72.71832,81,74,0
72.71832,73.54877,88,92,0
72.71832,73.54877,76,77,0
72.71832,73.54877,80,77,0
72.71832,73.54877,83,77,0
73.54877,73.964,83,83,0
73.54877,73.964,71,70,0
73.54877,73.964,74,70,0
73.54877,73.964,79,70,0
73.964,74.16947,83,82,0
73.964,74.16947,71,69,0
73.964,74.16947,74,69,0
73.964,74.16947,79,69,0
74.16947,74.38332,83,78,0
74.16947,74.38332,71,66,0
74.16947,74.38332,74,66,0
74.16947,74.38332,79,66,0
74.38332,74.79855,86,80,0
74.38332,74.79855,74,68,0
74.38332,74.79855,78,68,0
74.38332,74.79855,81,68,0
74.79855,75.219604,83,76,0
74.79855,75.219604,71,63,0
74.79855,75.219604,74,63,0
74.79855,75.219604,79,63,0
75.219604,75.63483,81,77,0
75.219604,75.63483,69,65,0
75.219604,75.63483,74,65,0
75.219604,75.63483,79,65,0
75.63483,76.057365,81,75,0
75.63483,76.057365,69,63,0
75.63483,76.057365,74,63,0
75.63483,76.057365,78,63,0
76.057365,76.88782,83,73,0
76.057365,76.88782,71,62,0
76.057365,76.88782,74,62,0
76.057365,76.88782,79,62,0
76.88782,77.30304,83,74,0
76.88782,77.30304,71,62,0
76.88782,77.30304,74,62,0
76.88782,77.30304,79,62,0
77.30304,77.50506,83,74,0
77.30304,77.50506,71,62,0
77.30304,77.50506,74,62,0
77.30304,77.50506,79,62,0
77.50506,77.71718,83,71,0
77.50506,77.71718,71,60,0
77.50506,77.71718,74,60,0
77.50506,77.71718,79,60,0
77.71718,78.54763,86,74,0
77.71718,78.54763,74,62,0
77.71718,78.54763,78,62,0
77.71718,78.54763,81,62,0
78.54763,78.96285,81,74,0
78.54763,78.96285,69,62,0
78.54763,78.96285,72,62,0
78.54763,78.96285,77,62,0
78.96285,79.16487,81,74,0
78.96285,79.16487,69,62,0
78.96285,79.16487,72,62,0
78.96285,79.16487,77,62,0
79.16487,79.377,81,71,0
79.16487,79.377,69,60,0
79.16487,79.377,72,60,0
79.16487,79.377,77,60,0
79.377,80.20744,84,74,0
79.377,80.20744,72,62,0
79.377,80.20744,76,62,0
79.377,80.20744,79,62,0
80.20744,80.62267,79,70,0
80.20744,80.62267,67,59,0
80.20744,80.62267,71,59,0
80.20744,80.62267,76,59,0
80.62267,80.82886,79,69,0
80.62267,80.82886,67,58,0
80.62267,80.82886,71,58,0
80.62267,80.82886,76,58,0
80.82886,81.04306,79,66,0
80.82886,81.04306,67,56,0
80.82886,81.04306,71,56,0
80.82886,81.04306,76,56,0
81.04306,81.46559,83,68,0
81.04306,81.46559,71,57,0
81.04306,81.46559,75,57,0
81.04306,81.46559,78,57,0
81.46559,81.88813,79,64,0
81.46559,81.88813,67,53,0
81.46559,81.88813,71,53,0
81.46559,81.88813,76,53,0
81.88813,82.31216,78,65,0
81.88813,82.31216,66,55,0
81.88813,82.31216,71,55,0
81.88813,82.31216,76,55,0
82.31216,82.73618,78,63,0
82.31216,82.73618,66,53,0
82.31216,82.73618,71,53,0
82.31216,82.73618,75,53,0
82.73618,83.566635,79,62,0
82.73618,83.566635,67,52,0
82.73618,83.566635,71,52,0
82.73618,83.566635,76,52,0
83.566635,83.645485,80,64,0
83.566635,83.645485,68,54,0
83.9813,84.58606,81,68,0
83.9813,84.58606,69,57,0
84.58606,84.66038,83,61,0
84.58606,84.66038,71,52,0
84.78425,84.85857,84,60,0
84.78425,84.85857,72,51,0
84.98244,85.056755,83,61,0
84.98244,85.056755,71,52,0
85.180626,85.26092,82,64,0
85.180626,85.26092,70,54,0
85.59984,86.2046,83,68,0
85.59984,86.2046,71,57,0
86.2046,86.27867,85,61,0
86.2046,86.27867,73,61,0
86.40212,86.4762,86,60,0
86.40212,86.4762,74,51,0
86.59965,86.67372,88,61,0
86.59965,86.67372,76,52,0
86.79717,87.20035,89,64,0
86.79717,87.20035,77,54,0
87.20035,87.27594,89,61,0
87.20035,87.27594,77,52,0
87.40193,87.481926,89,61,0
87.40193,87.481926,77,52,0
87.61526,87.68646,80,77,0
87.61526,87.68646,68,64,0
87.80513,87.883804,83,67,0
87.80513,87.883804,71,57,0
88.01492,88.090515,80,67,0
88.01492,88.090515,68,57,0
88.21651,88.2921,83,67,0
88.21651,88.2921,71,57,0
88.41809,88.821266,88,64,0
88.41809,88.821266,76,54,0
88.821266,88.89686,88,61,0
88.821266,88.89686,76,52,0
89.02285,89.10343,88,62,0
89.02285,89.10343,76,52,0
89.23773,89.30939,79,73,0
89.23773,89.30939,67,61,0
89.42882,89.50749,82,67,0
89.42882,89.50749,70,56,0
89.63861,89.7142,79,67,0
89.63861,89.7142,67,56,0
89.840195,89.91579,82,68,0
89.840195,89.91579,70,57,0
90.04178,90.446365,87,64,0
90.04178,90.446365,75,54,0
90.446365,90.520935,78,61,0
90.446365,90.520935,66,52,0
90.645226,90.722145,81,62,0
90.645226,90.722145,69,52,0
90.85034,91.25492,86,64,0
90.85034,91.25492,74,54,0
91.25492,91.33145,77,61,0
91.25492,91.33145,65,52,0
91.45901,91.53796,80,62,0
91.45901,91.53796,68,52,0
91.66953,92.08333,85,60,0
91.66953,92.08333,73,51,0
92.08333,92.16227,76,56,0
92.08333,92.16227,64,47,0
92.29385,92.37567,79,55,0
92.29385,92.37567,67,46,0
92.51203,92.93757,84,56,0
92.51203,92.93757,72,47,0
92.93757,93.02152,75,51,0
92.93757,93.02152,63,43,0
93.161446,93.25073,78,50,0
93.161446,93.25073,66,42,0
93.39954,93.50592,66,42,0
93.39954,93.50592,60,35,0
93.50592,93.612305,72,38,0
93.612305,93.71844,66,42,0
93.612305,93.71844,60,35,0
93.71844,93.82445,72,40,0
93.82445,93.93021,66,45,0
93.82445,93.93021,60,38,0
93.93021,94.035835,72,41,0
94.035835,94.14135,66,47,0
94.035835,94.14135,60,40,0
94.14135,94.24661,72,43,0
94.24661,94.35175,66,49,0
94.24661,94.35175,60,41,0
94.35175,94.45665,72,45,0
94.45665,94.56142,66,51,0
94.45665,94.56142,60,43,0
94.56142,94.66595,72,46,0
94.66595,94.77048,66,52,0
94.66595,94.77048,60,43,0
94.77048,94.87465,72,48,0
94.87465,94.97881,66,53,0
94.87465,94.97881,60,45,0
94.97881,95.08226,72,52,0
95.08226,95.18571,78,61,0
95.08226,95.18571,72,51,0
95.18571,95.2888,84,56,0
95.2888,95.39189,78,62,0
95.2888,95.39189,72,52,0
95.39189,95.49464,84,59,0
95.49464,95.597374,78,67,0
95.49464,95.597374,72,56,0
95.597374,95.69976,84,62,0
95.69976,95.802155,78,70,0
95.69976,95.802155,72,59,0
95.802155,95.90419,84,66,0
95.90419,96.00623,78,74,0
95.90419,96.00623,72,62,0
96.00623,96.107925,84,69,0
96.107925,96.209625,78,76,0
96.107925,96.209625,72,64,0
96.209625,96.310974,84,70,0
96.310974,96.41222,78,66,0
96.310974,96.41222,72,66,0
96.310974,96.41222,84,78,0
96.51322,96.614235,78,65,0
96.51322,96.614235,72,65,0
96.51322,96.614235,84,77,0
96.71457,96.81457,84,89,0
96.71457,96.81457,78,75,0
96.71457,96.81457,72,75,0
96.91424,97.11247,86,90,0
96.91424,97.11247,74,76,0
96.91424,97.11247,78,76,0
96.91424,97.11247,84,90,0
97.11247,97.309845,86,92,0
97.11247,97.309845,74,78,0
97.11247,97.309845,78,78,0
97.11247,97.309845,84,92,0
97.309845,97.50721,86,94,0
97.309845,97.50721,74,80,0
97.309845,97.50721,78,80,0
97.309845,97.50721,84,94,0
97.50721,97.70458,86,97,0
97.50721,97.70458,74,82,0
97.50721,97.70458,78,82,0
97.50721,97.70458,84,97,0
97.70458,97.90195,86,97,0
97.70458,97.90195,74,82,0
97.70458,97.90195,78,82,0
97.70458,97.90195,84,97,0
97.90195,98.00364,86,99,0
97.90195,98.00364,74,84,0
97.90195,98.00364,78,84,0
97.90195,98.00364,84,99,0
98.10534,98.21364,86,101,0
98.10534,98.21364,74,86,0
98.10534,98.21364,78,86,0
98.10534,98.21364,84,101,0
98.321945,98.52265,88,104,0
98.321945,98.52265,76,88,0
98.321945,98.52265,79,88,0
98.321945,98.52265,84,88,0
98.53321,98.73392,91,97,0
98.53321,98.73392,77,81,0
98.53321,98.73392,83,81,0
98.53321,98.73392,86,81,0
98.74448,98.94552,91,98,0
98.74448,98.94552,77,83,0
98.74448,98.94552,83,83,0
98.74448,98.94552,86,83,0
98.95612,99.15859,91,98,0
98.95612,99.15859,77,83,0
98.95612,99.15859,83,83,0
98.95612,99.15859,86,83,0
99.169266,99.373184,91,98,0
99.169266,99.373184,77,83,0
99.169266,99.373184,83,83,0
99.169266,99.373184,86,83,0
99.383934,99.58932,91,97,0
99.383934,99.58932,77,81,0
99.383934,99.58932,83,81,0
99.383934,99.58932,86,81,0
99.60015,99.81364,91,97,0
99.60015,99.81364,77,81,0
99.60015,99.81364,83,81,0
99.60015,99.81364,86,81,0
99.82487,100.05379,91,97,0
99.82487,100.05379,77,81,0
99.82487,100.05379,83,81,0
99.82487,100.05379,86,81,0
100.065834,100.171844,88,90,0
100.065834,100.171844,84,76,0
100.171844,100.27785,96,95,0
100.27785,100.38386,91,95,0
100.38386,100.48986,88,94,0
100.48986,100.59296,84,93,0
100.59296,100.696045,79,92,0
100.696045,100.79914,76,91,0
100.79914,100.90224,79,90,0
100.90224,101.11129,72,90,0
101.11129,101.21582,91,90,0
101.11129,101.21582,88,76,0
101.21582,101.32035,79,86,0
101.32035,101.42905,93,93,0
101.32035,101.42905,89,79,0
101.42905,101.53774,81,86,0
101.53774,101.65181,94,93,0
101.53774,101.65181,91,79,0
101.65181,101.77278,82,89,0
101.77278,101.8803,93,98,0
101.77278,101.8803,89,83,0
101.8803,101.98783,81,89,0
101.98783,102.09536,91,94,0
101.98783,102.09536,88,79,0
102.09536,102.20289,79,87,0
102.20289,102.30598,89,93,0
102.20289,102.30598,86,79,0
102.30598,102.40907,77,86,0
102.40907,102.51217,88,91,0
102.40907,102.51217,81,77,0
102.51217,102.61526,76,77,0
102.61526,102.71979,86,86,0
102.61526,102.71979,77,73,0
102.71979,102.82432,74,76,0
102.82432,102.92885,85,87,0
102.82432,102.92885,81,73,0
102.92885,103.03338,73,79,0
103.03338,103.13938,86,92,0
103.03338,103.13938,81,78,0
103.13938,103.24539,74,81,0
103.24539,103.351395,97,95,0
103.24539,103.351395,88,80,0
103.351395,103.465904,85,86,0
103.465904,103.57228,86,90,0
103.57228,103.678665,98,95,0
103.678665,103.78505,93,95,0
103.78505,103.89143,89,94,0
103.89143,103.99452,86,93,0
103.99452,104.09762,81,92,0
104.09762,104.200714,77,91,0
104.200714,104.3038,81,90,0
104.3038,104.513596,74,90,0
104.513596,104.61849,93,90,0
104.513596,104.61849,89,76,0
104.61849,104.72338,81,86,0
104.72338,104.829765,95,93,0
104.72338,104.829765,91,79,0
104.829765,104.93615,83,86,0
104.93615,105.04685,96,93,0
104.93615,105.04685,93,79,0
105.04685,105.16092,84,89,0
105.16092,105.27041,95,98,0
105.16092,105.27041,91,83,0
105.27041,105.3799,83,89,0
105.3799,105.48939,93,94,0
105.3799,105.48939,90,79,0
105.48939,105.59888,81,87,0
105.59888,105.701965,91,93,0
105.59888,105.701965,88,79,0
105.701965,105.80506,79,86,0
105.80506,105.90816,90,91,0
105.80506,105.90816,83,77,0
105.90816,106.011246,78,77,0
106.011246,106.115776,88,86,0
106.011246,106.115776,79,73,0
106.115776,106.22031,76,76,0
106.22031,106.32484,87,87,0
106.22031,106.32484,83,73,0
106.32484,106.42937,75,79,0
106.42937,106.53537,88,92,0
106.42937,106.53537,83,78,0
106.53537,106.64138,76,81,0
106.64138,106.74738,86,95,0
106.64138,106.74738,77,80,0
106.74738,106.85339,74,86,0
106.85339,106.957924,76,93,0
106.85339,106.957924,73,93,0
106.957924,107.062454,85,87,0
107.062454,107.166985,79,87,0
107.062454,107.166985,76,87,0
107.166985,107.27151,88,87,0
107.27151,107.37604,76,93,0
107.27151,107.37604,73,93,0
107.37604,107.48057,85,86,0
107.48057,107.58966,79,88,0
107.48057,107.58966,76,88,0
107.58966,107.69875,88,88,0
107.69875,107.80328,82,95,0
107.80328,107.907814,94,90,0
107.907814,108.01234,91,88,0
108.01234,108.11687,88,86,0
108.11687,108.224014,82,85,0
108.224014,108.331154,79,85,0
108.331154,108.4383,76,84,0
108.4383,108.54544,70,83,0
108.54544,108.65145,75,91,0
108.54544,108.65145,72,91,0
108.65145,108.757454,84,85,0
108.757454,108.863464,78,85,0
108.757454,108.863464,75,85,0
108.863464,108.96947,87,85,0
108.96947,109.07548,75,91,0
108.96947,109.07548,72,91,0
109.07548,109.18148,84,84,0
109.18148,109.291374,78,86,0
109.18148,109.291374,75,86,0
109.291374,109.40126,87,86,0
109.40126,109.5069,81,93,0
109.5069,109.61253,93,88,0
109.61253,109.71816,90,86,0
109.71816,109.8238,87,84,0
109.8238,109.92943,81,83,0
109.92943,110.035065,78,83,0
110.035065,110.1407,75,82,0
110.1407,110.24633,69,81,0
110.24633,110.35123,67,84,0
110.35123,110.45612,79,75,0
110.45612,110.56102,74,75,0
110.56102,110.66591,71,74,0
110.66591,110.770805,74,80,0
110.770805,110.8757,86,75,0
110.8757,110.9806,83,75,0
110.9806,111.085495,79,75,0
111.085495,111.190384,88,73,0
111.085495,111.190384,84,62,0
111.190384,111.29528,76,74,0
111.29528,111.40018,89,76,0
111.29528,111.40018,86,64,0
111.40018,111.50507,77,78,0
111.50507,111.60997,91,79,0
111.50507,111.60997,88,67,0
111.60997,111.71486,79,81,0
111.71486,111.819756,93,83,0
111.71486,111.819756,89,70,0
111.819756,111.92465,81,84,0
111.92465,112.02955,95,85,0
111.92465,112.02955,91,72,0
111.92465,112.02955,86,72,0
112.02955,112.13469,83,86,0
112.13469,112.24045,95,87,0
112.13469,112.24045,91,73,0
112.13469,112.24045,86,73,0
112.24045,112.3467,83,89,0
112.3467,112.45359,91,76,0
112.3467,112.45359,96,90,0
112.45359,112.56099,84,92,0
112.56099,112.66904,91,79,0
112.56099,112.66904,96,93,0
112.66904,112.7776,84,94,0
112.7776,112.88669,96,79,0
112.7776,112.88669,101,94,0
112.88669,112.99578,89,94,0
112.99578,113.10487,96,79,0
112.99578,113.10487,101,94,0
113.10487,113.21397,89,94,0
113.21397,113.32564,101,94,0
113.21397,113.32564,95,79,0
113.32564,113.44239,89,94,0
113.44239,113.56452,101,94,0
113.44239,113.56452,95,79,0
113.56452,113.69276,89,94,0
113.69276,114.1032,100,99,0
113.69276,114.1032,95,84,0
113.69276,114.1032,88,80,0
114.14051,114.25246,64,94,0
114.14051,114.25246,59,79,0
114.14051,114.25246,52,79,0
114.289764,115.44361,64,88,0
115.44361,116.02054,62,65,0
114.289764,116.02054,59,74,0
114.289764,116.02054,52,74,0
116.02054,116.131645,61,42,0
116.02054,116.131645,58,35,0
116.131645,116.24228,52,42,0
116.24228,116.35244,61,43,0
116.24228,116.35244,58,36,0
116.35244,116.46213,52,43,0
116.46213,116.57135,58,37,0
116.46213,116.57135,61,44,0
116.57135,116.680115,52,45,0
116.680115,116.78835,61,45,0
116.680115,116.78835,58,38,0
116.78835,116.89614,52,46,0
116.89614,117.00347,64,46,0
116.89614,117.00347,61,39,0
117.00347,117.11036,58,47,0
117.11036,117.216805,64,47,0
117.11036,117.216805,61,39,0
117.216805,117.322754,58,48,0
117.322754,117.42826,64,48,0
117.322754,117.42826,61,40,0
117.42826,117.53334,58,49,0
117.53334,117.63799,64,50,0
117.53334,117.63799,61,42,0
117.63799,117.74222,58,50,0
117.74222,117.84525,70,50,0
117.74222,117.84525,64,42,0
117.84525,117.947876,61,52,0
117.947876,118.050095,70,54,0
117.947876,118.050095,64,45,0
118.050095,118.15185,61,56,0
118.15185,118.253136,73,61,0
118.15185,118.253136,70,51,0
118.253136,118.35398,64,64,0
118.35398,118.45443,73,66,0
118.35398,118.45443,70,56,0
118.45443,118.55443,64,70,0
118.55443,118.653984,76,72,0
118.55443,118.653984,73,61,0
118.653984,118.75316,70,75,0
118.75316,118.8519,82,78,0
118.75316,118.8519,76,65,0
118.8519,118.9502,73,81,0
118.9502,119.04808,85,83,0
118.9502,119.04808,82,70,0
119.04808,119.14559,76,87,0
119.14559,119.243065,85,75,0
119.14559,119.243065,88,89,0
119.243065,119.39307,82,92,0
119.39307,119.84251,81,88,0
119.39307,119.84251,86,88,0
119.39307,119.84251,89,104,0
119.84251,120.30943,81,83,0
119.84251,120.30943,93,99,0
119.84251,120.30943,89,83,0
119.84251,120.30943,86,83,0
120.30943,120.76056,76,88,0
120.30943,120.76056,88,104,0
120.30943,120.76056,84,88,0
120.30943,120.76056,79,88,0
120.76056,121.242485,74,84,0
120.76056,121.242485,86,101,0
120.76056,121.242485,83,84,0
120.76056,121.242485,79,84,0
121.242485,121.60753,88,108,0
121.242485,121.60753,83,92,0
121.242485,121.60753,76,89,0
121.64072,121.74027,64,100,0
121.64072,121.74027,59,85,0
121.64072,121.74027,52,85,0
121.77346,122.8354,64,94,0
122.8354,123.36638,62,65,0
121.77346,123.36638,59,79,0
121.77346,123.36638,52,79,0
123.36638,123.477486,61,42,0
123.36638,123.477486,58,35,0
123.477486,123.58812,52,42,0
123.58812,123.69828,61,43,0
123.58812,123.69828,58,36,0
123.69828,123.80797,52,43,0
123.80797,123.91719,58,37,0
123.80797,123.91719,61,44,0
123.91719,124.025955,52,45,0
124.025955,124.13419,61,45,0
124.025955,124.13419,58,38,0
124.13419,124.24198,52,46,0
124.24198,124.34931,64,46,0
124.24198,124.34931,61,39,0
124.34931,124.4562,58,47,0
124.4562,124.562645,64,47,0
124.4562,124.562645,61,39,0
124.562645,124.668594,58,48,0
124.668594,124.7741,64,48,0
124.668594,124.7741,61,40,0
124.7741,124.87918,58,49,0
124.87918,124.98383,64,50,0
124.87918,124.98383,61,42,0
124.98383,125.08806,58,50,0
125.08806,125.19109,70,50,0
125.08806,125.19109,64,42,0
125.19109,125.29372,61,52,0
125.29372,125.395935,70,54,0
125.29372,125.395935,64,45,0
125.395935,125.49769,61,56,0
125.49769,125.59898,73,61,0
125.49769,125.59898,70,51,0
125.59898,125.69982,64,64,0
125.69982,125.80027,73,66,0
125.69982,125.80027,70,56,0
125.80027,125.90027,64,70,0
125.90027,125.999825,76,72,0
125.90027,125.999825,73,61,0
125.999825,126.099,70,75,0
126.099,126.19774,82,78,0
126.099,126.19774,76,65,0
126.19774,126.29604,73,81,0
126.29604,126.39392,85,83,0
126.29604,126.39392,82,70,0
126.39392,126.49143,76,87,0
126.49143,126.588905,85,75,0
126.49143,126.588905,88,89,0
126.588905,126.73891,82,92,0
126.73891,127.06033,89,98,0
126.73891,127.06033,82,82,0
126.73891,127.06033,77,82,0
126.73891,127.06033,86,82,0
127.06033,127.13459,77,84,0
127.06033,127.13459,70,71,0
127.06033,127.13459,65,71,0
127.06033,127.13459,74,84,0
127.15935,127.55538,74,88,0
127.15935,127.55538,65,74,0
127.15935,127.55538,70,74,0
127.15935,127.55538,77,88,0
127.55538,127.873405,88,97,0
127.55538,127.873405,82,82,0
127.55538,127.873405,76,82,0
127.55538,127.873405,85,82,0
127.873405,127.9484,76,88,0
127.873405,127.9484,70,74,0
127.873405,127.9484,64,74,0
127.873405,127.9484,73,74,0
127.973404,128.37341,73,76,0
127.973404,128.37341,64,76,0
127.973404,128.37341,70,76,0
127.973404,128.37341,76,91,0
128.37341,128.6903,87,102,0
128.37341,128.6903,78,87,0
128.37341,128.6903,75,87,0
128.37341,128.6903,84,87,0
128.6903,128.76607,75,92,0
128.6903,128.76607,66,77,0
128.6903,128.76607,63,77,0
128.6903,128.76607,72,77,0
128.79132,129.19536,72,77,0
128.79132,129.19536,63,77,0
128.79132,129.19536,66,77,0
128.79132,129.19536,75,92,0
129.19536,129.51451,86,106,0
129.19536,129.51451,77,89,0
129.19536,129.51451,74,89,0
129.19536,129.51451,82,89,0
129.51451,129.59103,74,95,0
129.51451,129.59103,65,80,0
129.51451,129.59103,62,80,0
129.51451,129.59103,70,80,0
129.61655,130.0247,70,80,0
129.61655,130.0247,62,80,0
129.61655,130.0247,65,80,0
129.61655,130.0247,74,95,0
130.0247,130.345,74,101,0
130.0247,130.345,66,86,0
130.0247,130.345,62,86,0
130.0247,130.345,72,86,0
130.345,130.42178,86,92,0
130.345,130.42178,78,77,0
130.345,130.42178,74,77,0
130.345,130.42178,84,77,0
130.44739,130.85693,84,87,0
130.44739,130.85693,74,87,0
130.44739,130.85693,78,87,0
130.44739,130.85693,86,103,0
130.85693,131.18303,74,97,0
130.85693,131.18303,67,82,0
130.85693,131.18303,62,82,0
130.85693,131.18303,71,82,0
131.18303,131.26035,86,95,0
131.18303,131.26035,79,79,0
131.18303,131.26035,74,79,0
131.18303,131.26035,83,79,0
131.28612,131.71129,83,84,0
131.28612,131.71129,74,84,0
131.28612,131.71129,79,84,0
131.28612,131.71129,86,99,0
131.71129,132.0548,76,98,0
131.71129,132.0548,67,82,0
131.71129,132.0548,64,82,0
131.71129,132.0548,72,82,0
132.0548,132.13692,88,89,0
132.0548,132.13692,79,75,0
132.0548,132.13692,76,75,0
132.0548,132.13692,84,75,0
132.16428,132.64874,84,86,0
132.16428,132.64874,76,86,0
132.16428,132.64874,79,86,0
132.16428,132.64874,88,102,0
132.64874,133.01912,79,101,0
132.64874,133.01912,71,86,0
132.64874,133.01912,67,86,0
132.64874,133.01912,77,86,0
133.01912,133.12627,91,96,0
133.01912,133.12627,83,80,0
133.01912,133.12627,79,80,0
133.01912,133.12627,89,80,0
133.16197,133.96198,89,86,0
133.16197,133.96198,79,86,0
133.16197,133.96198,83,86,0
133.16197,133.96198,91,103,0
133.96198,134.08267,55,50,0
134.06543,134.18582,67,46,0
134.16887,134.28752,62,46,0
134.27057,134.3892,59,46,0
134.37227,134.4909,62,50,0
134.47395,134.5926,74,46,0
134.57565,134.69429,71,46,0
134.67735,134.79622,67,46,0
134.77904,134.89932,76,51,0
134.77904,134.89932,72,51,0
134.88214,135.00241,64,47,0
134.98523,135.1055,77,51,0
134.98523,135.1055,74,51,0
135.08832,135.20859,65,47,0
135.1914,135.31169,79,53,0
135.1914,135.31169,76,53,0
135.29451,135.41478,67,47,0
135.3976,135.51787,81,53,0
135.3976,135.51787,77,53,0
135.50069,135.62097,69,48,0
135.60379,135.70688,74,51,0
135.60379,135.70688,79,51,0
135.60379,135.70688,83,51,0
135.70688,135.80997,71,53,0
135.80997,135.9127,83,55,0
135.80997,135.9127,79,55,0
135.80997,135.9127,74,55,0
135.9127,136.01544,71,56,0
136.01544,136.11784,84,58,0
136.01544,136.11784,79,58,0
136.11784,136.22023,72,60,0
136.22023,136.32227,79,62,0
136.22023,136.32227,84,62,0
136.32227,136.4243,72,63,0
136.4243,136.526,84,65,0
136.4243,136.526,89,65,0
136.526,136.6277,77,65,0
136.6277,136.72939,84,66,0
136.6277,136.72939,89,66,0
136.72939,136.83086,77,66,0
136.83086,136.9321,83,67,0
136.83086,136.9321,89,67,0
136.9321,137.0339,77,67,0
137.0339,137.13618,83,68,0
137.0339,137.13618,89,68,0
137.13618,137.23904,77,68,0
137.23904,137.35973,57,60,0
137.34248,137.4627,69,55,0
137.44594,137.56339,64,55,0
137.5466,137.66406,61,55,0
137.64728,137.76472,64,60,0
137.74796,137.8654,76,55,0
137.84862,137.96606,73,55,0
137.9493,138.06703,69,55,0
138.04996,138.16942,77,61,0
138.04996,138.16942,74,51,0
138.15234,138.2718,65,56,0
138.25475,138.37419,79,61,0
138.25475,138.37419,76,51,0
138.35713,138.47658,67,56,0
138.45952,138.57896,81,63,0
138.45952,138.57896,77,53,0
138.5619,138.68137,69,56,0
138.66429,138.78375,82,63,0
138.66429,138.78375,79,53,0
138.76668,138.88602,70,57,0
138.86908,138.97076,76,51,0
138.86908,138.97076,81,51,0
138.86908,138.97076,85,61,0
138.97076,139.07246,73,62,0
139.07246,139.17393,85,64,0
139.07246,139.17393,81,54,0
139.07246,139.17393,76,54,0
139.17393,139.27528,73,66,0
139.27528,139.37653,86,67,0
139.27528,139.37653,81,56,0
139.37653,139.47752,74,69,0
139.47752,139.57854,81,59,0
139.47752,139.57854,86,70,0
139.57854,139.67921,74,72,0
139.67921,139.77988,86,62,0
139.67921,139.77988,91,74,0
139.77988,139.88033,79,70,0
139.88033,139.98067,86,62,0
139.88033,139.98067,91,74,0
139.98067,140.08078,79,70,0
140.08078,140.181,85,62,0
140.08078,140.181,91,74,0
140.181,140.28156,79,70,0
140.28156,140.38245,85,62,0
140.28156,140.38245,91,74,0
140.38245,140.48369,79,70,0
140.48369,140.58539,62,79,0
140.58539,140.68707,74,70,0
140.68707,140.78642,69,70,0
140.78642,140.88576,66,70,0
140.88576,140.98509,69,79,0
140.98509,141.08443,81,70,0
141.08443,141.18376,78,70,0
141.18376,141.28311,74,71,0
141.28311,141.38515,83,79,0
141.28311,141.38515,79,67,0
141.38515,141.48718,71,72,0
141.48718,141.58923,84,79,0
141.48718,141.58923,81,67,0
141.58923,141.69127,72,73,0
141.69127,141.7933,86,80,0
141.69127,141.7933,83,68,0
141.7933,141.89536,74,71,0
141.89536,141.99739,88,79,0
141.89536,141.99739,84,67,0
141.99739,142.09943,76,72,0
142.09943,142.20229,90,71,0
142.09943,142.20229,86,60,0
142.09943,142.20229,81,60,0
142.20229,142.30502,78,72,0
142.30502,142.40765,90,73,0
142.30502,142.40765,86,62,0
142.30502,142.40765,81,62,0
142.40765,142.51004,78,74,0
142.51004,142.61232,91,75,0
142.51004,142.61232,86,63,0
142.61232,142.71436,79,76,0
142.71436,142.81628,86,65,0
142.71436,142.81628,91,77,0
142.81628,142.91797,79,78,0
142.91797,143.01956,91,69,0
142.91797,143.01956,96,82,0
143.01956,143.12091,84,75,0
143.12091,143.22214,91,68,0
143.12091,143.22214,96,80,0
143.22214,143.32315,84,74,0
143.32315,143.42406,90,68,0
143.32315,143.42406,96,80,0
143.42406,143.52586,84,75,0
143.52586,143.62813,90,67,0
143.52586,143.62813,96,79,0
143.62813,143.73099,84,74,0
143.73099,143.83444,67,79,0
143.83444,143.9379,79,70,0
143.9379,144.0389,74,70,0
144.0389,144.13991,71,70,0
144.13991,144.24092,74,79,0
144.24092,144.34193,86,70,0
144.34193,144.44293,83,70,0
144.44293,144.54395,79,71,0
144.54395,144.64705,88,79,0
144.54395,144.64705,84,67,0
144.64705,144.75014,76,72,0
144.75014,144.85323,89,79,0
144.75014,144.85323,86,67,0
144.85323,144.95631,77,73,0
144.95631,145.05942,91,80,0
144.95631,145.05942,88,68,0
145.05942,145.1625,79,71,0
145.1625,145.2656,93,79,0
145.1625,145.2656,89,67,0
145.2656,145.3687,81,72,0
145.3687,145.4725,95,71,0
145.3687,145.4725,91,60,0
145.3687,145.4725,86,60,0
145.4725,145.57594,83,72,0
145.57594,145.6794,95,73,0
145.57594,145.6794,91,62,0
145.57594,145.6794,86,62,0
145.6794,145.78284,83,74,0
145.78284,145.88774,96,75,0
145.78284,145.88774,91,63,0
145.88774,145.99489,84,76,0
145.99489,146.10411,91,65,0
145.99489,146.10411,96,77,0
146.10411,146.24495,84,78,0
146.24495,146.3521,96,69,0
146.24495,146.3521,101,82,0
146.3521,146.45924,89,75,0
146.45924,146.56639,96,70,0
146.45924,146.56639,101,82,0
146.56639,146.67352,89,77,0
146.67352,146.78067,95,72,0
146.67352,146.78067,101,85,0
146.78067,146.88782,89,81,0
146.88782,146.99495,95,73,0
146.88782,146.99495,101,86,0
146.99495,147.1021,89,82,0
147.1021,147.2038,95,66,0
147.1021,147.2038,100,78,0
147.2038,147.3055,88,70,0
147.3055,147.40718,95,65,0
147.3055,147.40718,100,77,0
147.40718,147.50888,88,70,0
147.50888,147.61058,93,64,0
147.50888,147.61058,100,75,0
147.61058,147.71227,88,68,0
147.71227,147.81396,93,60,0
147.71227,147.81396,100,72,0
147.81396,147.91566,88,67,0
147.91566,148.01633,93,63,0
147.91566,148.01633,98,74,0
148.01633,148.117,86,68,0
148.117,148.21767,93,63,0
148.117,148.21767,98,74,0
148.21767,148.31834,86,67,0
148.31834,148.41902,92,63,0
148.31834,148.41902,98,74,0
148.41902,148.51968,86,66,0
148.51968,148.62036,92,63,0
148.51968,148.62036,98,74,0
148.62036,148.72102,86,68,0
148.72102,148.82137,93,63,0
148.72102,148.82137,96,74,0
148.82137,148.92169,84,68,0
148.92169,149.0217,93,63,0
148.92169,149.0217,96,74,0
149.0217,149.12158,84,67,0
149.12158,149.22028,98,77,0
149.12158,149.22028,93,65,0
149.12158,149.22028,89,65,0
149.22028,149.31895,86,70,0
149.31895,149.41763,89,65,0
149.31895,149.41763,93,65,0
149.31895,149.41763,98,76,0
149.41763,149.51633,86,70,0
149.51633,149.61545,88,63,0
149.51633,149.61545,91,63,0
149.51633,149.61545,96,74,0
149.61545,149.71478,84,68,0
149.71478,149.81412,88,63,0
149.71478,149.81412,91,63,0
149.71478,149.81412,96,74,0
149.81412,149.91345,84,68,0
149.91345,150.01346,86,63,0
149.91345,150.01346,91,63,0
149.91345,150.01346,95,74,0
150.01346,150.11368,83,69,0
150.11368,150.21413,86,63,0
150.11368,150.21413,91,63,0
150.11368,150.21413,95,74,0
150.21413,150.3148,83,68,0
150.3148,150.4158,91,74,0
150.3148,150.4158,88,63,0
150.3148,150.4158,84,63,0
150.4158,150.51682,79,66,0
150.51682,150.61783,84,63,0
150.51682,150.61783,88,63,0
150.51682,150.61783,91,74,0
150.61783,150.71953,79,66,0
150.71953,150.8218,89,77,0
150.71953,150.8218,86,65,0
150.71953,150.8218,81,65,0
150.8218,150.92442,77,69,0
150.92442,151.02739,81,65,0
150.92442,151.02739,86,65,0
150.92442,151.02739,89,76,0
151.02739,151.13072,77,70,0
151.13072,151.23405,88,78,0
151.13072,151.23405,84,66,0
151.13072,151.23405,79,66,0
151.23405,151.33823,76,71,0
151.33823,151.44348,88,79,0
151.33823,151.44348,84,67,0
151.33823,151.44348,79,67,0
151.44348,151.54987,76,70,0
151.54987,151.65727,86,79,0
151.54987,151.65727,83,67,0
151.54987,151.65727,79,67,0
151.65727,151.76454,74,74,0
151.76454,151.8722,86,80,0
151.76454,151.8722,83,68,0
151.76454,151.8722,79,68,0
151.8722,151.98012,74,74,0
151.98012,152.0832,88,78,0
152.0832,152.1863,96,76,0
152.1863,152.28938,91,76,0
152.28938,152.39249,88,75,0
152.39249,152.50954,84,74,0
152.49281,152.61009,79,73,0
152.59315,152.71179,76,72,0
152.69484,152.81349,72,72,0
152.79654,152.89824,86,72,0
152.89824,152.99992,95,76,0
152.99992,153.10162,91,72,0
153.10162,153.20332,89,68,0
153.20332,153.32196,83,74,0
153.30501,153.42426,79,68,0
153.40671,153.5312,77,74,0
153.51198,153.64455,71,71,0
153.62737,153.73045,86,72,0
153.73045,153.83354,98,76,0
153.83354,153.93663,93,76,0
153.93663,154.03973,89,75,0
154.03973,154.15678,86,74,0
154.14006,154.25735,81,73,0
154.2404,154.35904,77,72,0
154.34209,154.4608,74,72,0
154.44379,154.54582,85,72,0
154.54582,154.64787,97,76,0
154.64787,154.74991,93,72,0
154.74991,154.85194,91,68,0
154.85194,154.9714,85,74,0
154.95435,155.07422,81,68,0
155.05673,155.18086,79,74,0
155.16162,155.29419,73,71,0
155.27701,155.3801,89,72,0
155.3801,155.4832,101,76,0
155.4832,155.58629,96,76,0
155.58629,155.68938,93,75,0
155.68938,155.80527,89,74,0
155.78871,155.90506,84,73,0
155.88806,156.0071,81,72,0
155.9901,156.10892,77,72,0
156.09213,156.19281,88,72,0
156.19281,156.29347,100,76,0
156.29347,156.39415,96,72,0
156.39415,156.49483,91,68,0
156.49483,156.6151,88,74,0
156.59792,156.71849,84,68,0
156.701,156.82513,79,74,0
156.80591,156.93846,76,71,0
156.92128,157.33366,79,73,0
156.92128,157.33366,85,73,0
156.92128,157.33366,82,73,0
156.92128,157.33366,91,87,0
157.33366,157.53433,79,72,0
157.33366,157.53433,73,60,0
157.33366,157.53433,70,60,0
157.33366,157.53433,67,60,0
157.53433,157.75323,79,72,0
157.53433,157.75323,73,60,0
157.53433,157.75323,70,60,0
157.53433,157.75323,67,60,0
157.75323,158.1656,91,82,0
157.75323,158.1656,86,69,0
157.75323,158.1656,83,69,0
157.75323,158.1656,79,69,0
158.1656,158.369,79,73,0
158.1656,158.369,74,62,0
158.1656,158.369,71,62,0
158.1656,158.369,67,62,0
158.369,158.58926,79,74,0
158.369,158.58926,74,63,0
158.369,158.58926,71,63,0
158.369,158.58926,67,63,0
158.58926,159.00165,91,87,0
158.58926,159.00165,85,73,0
158.58926,159.00165,82,73,0
158.58926,159.00165,79,73,0
159.00165,159.20232,79,72,0
159.00165,159.20232,73,60,0
159.00165,159.20232,70,60,0
159.00165,159.20232,67,60,0
159.20232,159.42122,79,72,0
159.20232,159.42122,73,60,0
159.20232,159.42122,70,60,0
159.20232,159.42122,67,60,0
159.42122,159.83359,91,82,0
159.42122,159.83359,86,69,0
159.42122,159.83359,83,69,0
159.42122,159.83359,79,69,0
159.83359,160.03699,79,73,0
159.83359,160.03699,74,62,0
159.83359,160.03699,71,62,0
159.83359,160.03699,67,62,0
160.03699,160.25726,79,74,0
160.03699,160.25726,74,63,0
160.03699,160.25726,71,63,0
160.03699,160.25726,67,63,0
160.25726,160.35826,96,76,0
160.25726,160.35826,91,64,0
160.35826,160.45927,84,71,0
160.45927,160.56029,91,64,0
160.45927,160.56029,96,76,0
160.56029,160.66199,84,69,0
160.66199,160.76425,93,75,0
160.66199,160.76425,89,63,0
160.66199,160.76425,84,63,0
160.76425,160.86688,81,68,0
160.86688,160.96985,84,62,0
160.86688,160.96985,89,62,0
160.86688,160.96985,93,74,0
160.96985,161.07318,81,67,0
161.07318,161.17651,91,73,0
161.07318,161.17651,88,62,0
161.07318,161.17651,84,62,0
161.17651,161.28069,79,67,0
161.28069,161.38594,91,73,0
161.28069,161.38594,88,62,0
161.28069,161.38594,84,62,0
161.38594,161.49232,79,66,0
161.49232,161.59973,91,72,0
161.49232,161.59973,86,61,0
161.49232,161.59973,83,61,0
161.59973,161.7077,79,65,0
161.7077,161.81807,91,71,0
161.7077,161.81807,86,60,0
161.7077,161.81807,83,60,0
161.81807,161.98474,79,65,0
161.98474,162.08713,88,46,0
162.08713,162.18953,96,49,0
162.18953,162.29192,91,49,0
162.29192,162.3943,88,48,0
162.3943,162.50981,84,48,0
162.49332,162.60883,79,47,0
162.59232,162.70782,76,46,0
162.69133,162.80724,72,46,0
162.79034,162.8917,86,46,0
162.8917,162.99304,95,49,0
162.99304,163.09439,91,46,0
163.09439,163.19574,89,44,0
163.19574,163.3152,83,48,0
163.29813,163.41759,79,44,0
163.40053,163.52214,77,48,0
163.50291,163.6353,71,46,0
163.6183,163.72034,86,46,0
163.72034,163.82237,98,49,0
163.82237,163.92442,93,49,0
163.92442,164.02646,89,48,0
164.02646,164.14084,86,48,0
164.1245,164.23932,81,47,0
164.22253,164.33998,77,46,0
164.32321,164.44089,74,46,0
164.42387,164.52592,85,46,0
164.52592,164.62796,97,49,0
164.62796,164.73,93,46,0
164.73,164.83205,91,44,0
164.83205,164.95149,85,48,0
164.93443,165.05388,81,44,0
165.03682,165.15845,79,48,0
165.1392,165.2716,73,46,0
165.2546,165.35663,89,50,0
165.35663,165.45868,101,55,0
165.45868,165.56071,96,56,0
165.56071,165.66275,93,57,0
165.66275,165.77866,89,58,0
165.7621,165.87799,84,58,0
165.86143,165.97733,81,58,0
165.96077,166.07706,77,60,0
166.0601,166.1618,88,62,0
166.1618,166.2635,100,67,0
166.2635,166.36519,96,64,0
166.36519,166.46689,91,63,0
166.46689,166.58675,88,70,0
166.56963,166.6895,84,66,0
166.67236,166.79434,79,73,0
166.7751,166.9075,76,71,0
166.89049,167.29866,79,73,0
166.89049,167.29866,85,73,0
166.89049,167.29866,82,73,0
166.89049,167.29866,91,87,0
167.29866,167.49733,79,72,0
167.29866,167.49733,73,60,0
167.29866,167.49733,70,60,0
167.29866,167.49733,67,60,0
167.49733,167.71524,79,72,0
167.49733,167.71524,73,60,0
167.49733,167.71524,70,60,0
167.49733,167.71524,67,60,0
167.71524,168.12341,92,86,0
167.71524,168.12341,86,72,0
167.71524,168.12341,83,72,0
167.71524,168.12341,80,72,0
168.12341,168.32208,80,73,0
168.12341,168.32208,74,62,0
168.12341,168.32208,71,62,0
168.12341,168.32208,68,62,0
168.32208,168.54,80,74,0
168.32208,168.54,74,63,0
168.32208,168.54,71,63,0
168.32208,168.54,68,63,0
168.54,168.94405,93,87,0
168.54,168.94405,87,73,0
168.54,168.94405,84,73,0
168.54,168.94405,81,73,0
168.94405,169.14206,81,72,0
168.94405,169.14206,75,60,0
168.94405,169.14206,72,60,0
168.94405,169.14206,69,60,0
169.14206,169.35965,81,72,0
169.14206,169.35965,75,60,0
169.14206,169.35965,72,60,0
169.14206,169.35965,69,60,0
169.35965,169.76233,94,88,0
169.35965,169.76233,88,74,0
169.35965,169.76233,85,74,0
169.35965,169.76233,82,74,0
169.76233,169.96167,82,74,0
169.76233,169.96167,76,63,0
169.76233,169.96167,73,63,0
169.76233,169.96167,70,63,0
169.96167,170.17992,82,75,0
169.96167,170.17992,76,64,0
169.96167,170.17992,73,64,0
169.96167,170.17992,70,64,0
170.17992,170.5826,83,85,0
170.17992,170.5826,77,71,0
170.17992,170.5826,74,71,0
170.17992,170.5826,71,71,0
170.5826,170.78061,84,73,0
170.5826,170.78061,78,61,0
170.5826,170.78061,75,61,0
170.5826,170.78061,72,61,0
170.78061,170.9982,84,75,0
170.78061,170.9982,75,63,0
170.78061,170.9982,78,63,0
170.78061,170.9982,72,63,0
170.9982,171.4009,85,86,0
170.9982,171.4009,79,72,0
170.9982,171.4009,76,72,0
170.9982,171.4009,73,72,0
171.4009,171.59956,86,73,0
171.4009,171.59956,80,62,0
171.4009,171.59956,77,62,0
171.4009,171.59956,74,62,0
171.59956,171.80528,86,76,0
171.59956,171.80528,80,64,0
171.59956,171.80528,77,64,0
171.59956,171.80528,74,64,0
171.80528,172.00595,87,82,0
171.80528,172.00595,75,71,0
171.80528,172.00595,78,71,0
171.80528,172.00595,81,71,0
172.00595,172.20662,87,83,0
172.00595,172.20662,75,71,0
172.00595,172.20662,78,71,0
172.00595,172.20662,81,71,0
172.20662,172.4107,88,84,0
172.20662,172.4107,76,73,0
172.20662,172.4107,79,73,0
172.20662,172.4107,82,73,0
172.4107,172.61479,88,86,0
172.4107,172.61479,76,74,0
172.4107,172.61479,79,74,0
172.4107,172.61479,82,74,0
172.61479,172.81749,89,87,0
172.61479,172.81749,77,75,0
172.61479,172.81749,80,75,0
172.61479,172.81749,83,75,0
172.81749,173.02019,89,89,0
172.81749,173.02019,77,76,0
172.81749,173.02019,80,76,0
172.81749,173.02019,83,76,0
173.02019,173.22359,89,90,0
173.02019,173.22359,77,78,0
173.02019,173.22359,80,78,0
173.02019,173.22359,83,78,0
173.22359,173.44385,89,92,0
173.22359,173.44385,77,79,0
173.22359,173.44385,80,79,0
173.22359,173.44385,83,79,0
173.44385,173.88829,89,98,0
173.44385,173.88829,77,85,0
173.44385,173.88829,83,85,0
173.44385,173.88829,86,85,0
174.33273,174.77719,88,98,0
174.33273,174.77719,76,85,0
174.33273,174.77719,81,85,0
174.33273,174.77719,84,85,0
175.22163,175.66608,86,98,0
175.22163,175.66608,74,85,0
175.22163,175.66608,81,85,0
175.22163,175.66608,84,85,0
176.11052,176.55496,86,98,0
176.11052,176.55496,74,85,0
176.11052,176.55496,79,85,0
176.11052,176.55496,83,85,0
176.9994,177.10617,52,50,0
177.10617,177.21292,64,32,0
177.21292,177.31969,55,32,0
177.21292,177.31969,60,32,0
177.31969,177.42645,64,32,0
177.42645,177.53098,54,50,0
177.53098,177.63551,66,32,0
177.63551,177.74004,63,32,0
177.63551,177.74004,60,32,0
177.74004,177.84457,66,32,0
177.84457,177.9491,55,51,0
177.9491,178.05363,67,32,0
178.05363,178.15816,64,32,0
178.05363,178.15816,60,32,0
178.15816,178.26268,67,32,0
178.26268,178.36795,55,50,0
178.36795,178.4732,67,33,0
178.4732,178.57848,62,33,0
178.4732,178.57848,59,33,0
178.57848,178.68375,67,33,0
178.68375,178.78613,60,59,0
178.78613,178.88852,72,33,0
178.88852,178.9909,64,33,0
178.88852,178.9909,67,33,0
178.9909,179.09329,72,33,0
179.09329,179.19568,60,55,0
179.19568,179.29808,72,33,0
179.29808,179.40047,66,33,0
179.29808,179.40047,63,33,0
179.40047,179.50285,72,34,0
179.50285,179.60524,60,55,0
179.60524,179.70763,72,34,0
179.70763,179.81001,67,34,0
179.70763,179.81001,64,34,0
179.81001,179.91241,72,34,0
179.91241,180.01657,59,53,0
180.01657,180.12074,71,34,0
180.12074,180.22491,67,34,0
180.12074,180.22491,62,34,0
180.22491,180.32907,71,34,0
180.32907,180.43434,64,61,0
180.43434,180.5396,76,41,0
180.5396,180.64487,67,41,0
180.5396,180.64487,72,41,0
180.64487,180.75012,76,41,0
180.75012,180.85287,66,63,0
180.85287,180.95561,78,42,0
180.95561,181.05835,75,42,0
180.95561,181.05835,72,42,0
181.05835,181.16109,78,42,0
181.16109,181.26382,67,66,0
181.26382,181.36656,79,43,0
181.36656,181.4693,76,43,0
181.36656,181.4693,72,43,0
181.4693,181.57205,79,44,0
181.57205,181.67694,67,67,0
181.67694,181.78183,79,44,0
181.78183,181.88673,74,45,0
181.78183,181.88673,71,45,0
181.88673,181.99162,79,46,0
181.99162,182.09436,72,73,0
182.09436,182.1971,84,47,0
182.1971,182.29985,76,47,0
182.1971,182.29985,79,47,0
182.29985,182.40259,84,47,0
182.40259,182.50533,72,72,0
182.50533,182.60806,84,48,0
182.60806,182.7108,78,48,0
182.60806,182.7108,75,48,0
182.7108,182.81354,84,48,0
182.81354,182.91629,72,74,0
182.91629,183.01903,84,49,0
183.01903,183.12177,79,49,0
183.01903,183.12177,76,49,0
183.12177,183.2245,84,50,0
183.2245,183.32903,71,69,0
183.32903,183.43356,83,50,0
183.43356,183.53809,79,51,0
183.43356,183.53809,74,51,0
183.53809,183.64262,83,52,0
183.64262,183.74571,76,71,0
183.74571,183.8488,88,49,0
183.8488,183.9519,79,49,0
183.8488,183.9519,84,49,0
183.9519,184.055,88,50,0
184.055,184.15634,78,72,0
184.15634,184.25769,90,50,0
184.25769,184.35904,87,50,0
184.25769,184.35904,84,50,0
184.35904,184.4604,90,50,0
184.4604,184.56175,79,74,0
184.56175,184.6631,91,51,0
184.6631,184.76445,88,51,0
184.6631,184.76445,84,51,0
184.76445,184.8658,91,52,0
184.8658,184.96889,79,75,0
184.96889,185.07199,91,52,0
185.07199,185.17508,86,53,0
185.07199,185.17508,83,53,0
185.17508,185.27817,91,54,0
185.27817,185.37885,79,79,0
185.37885,185.4795,91,60,0
185.4795,185.58018,84,61,0
185.4795,185.58018,88,61,0
185.58018,185.68086,91,62,0
185.68086,185.77986,79,84,0
185.77986,185.87888,91,63,0
185.87888,185.97789,86,63,0
185.87888,185.97789,83,63,0
185.97789,186.0769,91,64,0
186.0769,186.1759,79,90,0
186.1759,186.27492,91,66,0
186.27492,186.37393,88,67,0
186.27492,186.37393,84,67,0
186.37393,186.47293,91,69,0
186.47293,186.57361,79,93,0
186.57361,186.67429,91,70,0
186.67429,186.77495,86,71,0
186.67429,186.77495,83,71,0
186.77495,186.87563,91,74,0
186.87563,186.97731,79,82,0
186.87563,186.97731,84,82,0
186.87563,186.97731,88,97,0
186.97731,187.0789,91,89,0
187.0789,187.18025,79,82,0
187.0789,187.18025,83,82,0
187.0789,187.18025,86,98,0
187.18025,187.28137,91,91,0
187.28137,187.38232,79,85,0
187.28137,187.38232,84,85,0
187.28137,187.38232,88,99,0
187.38232,187.483,91,93,0
187.483,187.5835,79,86,0
187.483,187.5835,83,86,0
187.483,187.5835,86,101,0
187.5835,187.68384,91,94,0
187.68384,187.78473,79,87,0
187.68384,187.78473,84,87,0
187.68384,187.78473,88,103,0
187.78473,187.8866,91,96,0
187.8866,187.98952,79,89,0
187.8866,187.98952,83,89,0
187.8866,187.98952,86,105,0
187.98952,188.0935,91,101,0
188.0935,188.19902,79,90,0
188.0935,188.19902,84,90,0
188.0935,188.19902,88,107,0
188.19902,188.30643,91,99,0
188.30643,188.41579,79,91,0
188.30643,188.41579,83,91,0
188.30643,188.41579,86,108,0
188.41579,188.52815,91,100,0
188.52815,188.63844,84,110,0
188.52815,188.63844,72,83,0
188.52815,188.63844,76,83,0
188.52815,188.63844,79,93,0
188.74873,188.85078,84,83,0
188.85078,188.9527,79,81,0
188.9527,189.0544,76,81,0
189.0544,189.15587,72,80,0
189.15587,189.25722,67,78,0
189.25722,189.35823,64,76,0
189.35823,189.45901,60,73,0
189.45901,189.56013,55,74,0
189.56013,189.66171,60,75,0
189.66171,189.76387,64,76,0
189.76387,189.86638,67,77,0
189.86638,189.96983,72,78,0
189.96983,190.07436,76,79,0
190.07436,190.18,79,80,0
190.18,190.29028,84,101,0
190.18,190.29028,72,85,0
190.18,190.29028,76,85,0
190.18,190.29028,79,85,0
190.40057,190.50262,88,83,0
190.50262,190.60443,84,81,0
190.60443,190.70601,79,81,0
190.70601,190.80725,76,80,0
190.80725,190.90826,72,78,0
190.90826,191.00893,67,76,0
191.00893,191.10938,64,73,0
191.10938,191.21028,60,74,0
191.21028,191.31174,64,75,0
191.31174,191.41367,67,76,0
191.41367,191.51617,72,77,0
191.51617,191.61961,76,78,0
191.61961,191.72415,79,79,0
191.72415,191.82979,84,80,0
191.82979,191.94008,88,101,0
191.82979,191.94008,76,85,0
191.82979,191.94008,79,85,0
191.82979,191.94008,84,85,0
192.05037,192.15242,91,83,0
192.15242,192.25423,88,81,0
192.25423,192.3557,84,81,0
192.3557,192.45692,79,80,0
192.45692,192.55783,76,78,0
192.55783,192.65839,72,76,0
192.65839,192.75883,67,73,0
192.75883,192.85973,64,74,0
192.85973,192.96097,67,75,0
192.96097,193.06267,72,76,0
193.06267,193.16481,76,77,0
193.16481,193.26767,79,78,0
193.26767,193.37209,84,79,0
193.37209,193.48016,88,80,0
193.48016,193.59045,91,101,0
193.48016,193.59045,79,85,0
193.48016,193.59045,84,85,0
193.48016,193.59045,88,85,0
193.70074,193.80313,96,83,0
193.80313,193.90529,91,81,0
193.90529,194.00711,88,81,0
194.00711,194.10869,84,80,0
194.10869,194.20992,79,78,0
194.20992,194.31082,76,76,0
194.31082,194.4116,72,73,0
194.4116,194.51273,67,74,0
194.51273,194.6142,72,75,0
194.6142,194.716,76,76,0
194.716,194.81816,79,77,0
194.81816,194.92125,84,78,0
194.92125,195.02652,88,79,0
195.02652,195.13405,91,80,0
195.13405,195.24855,96,101,0
195.13405,195.24855,84,85,0
195.13405,195.24855,88,85,0
195.13405,195.24855,91,85,0
195.36307,195.46545,100,89,0
195.46545,195.56761,96,87,0
195.56761,195.66953,91,84,0
195.66953,195.77112,88,81,0
195.77112,195.87247,84,79,0
195.87247,195.97348,79,76,0
195.97348,196.07414,76,73,0
196.07414,196.17526,72,74,0
196.17526,196.27686,76,75,0
196.27686,196.37901,79,76,0
196.37901,196.48175,84,77,0
196.48175,196.58496,88,78,0
196.58496,196.69023,91,79,0
196.69023,196.79776,96,80,0
196.79776,197.23412,100,103,0
196.79776,197.23412,88,87,0
196.79776,197.23412,91,87,0
196.79776,197.23412,96,87,0
197.67049,198.10684,91,106,0
197.67049,198.10684,79,89,0
197.67049,198.10684,83,89,0
197.67049,198.10684,86,89,0
198.54321,198.97958,88,106,0
198.54321,198.97958,76,89,0
198.54321,198.97958,79,89,0
198.54321,198.97958,84,89,0
199.41594,199.85231,91,106,0
199.41594,199.85231,79,89,0
199.41594,199.85231,83,89,0
199.41594,199.85231,86,89,0
200.28716,200.39131,72,56,0
200.39131,200.49477,84,57,0
200.49477,200.5975,72,50,0
200.49477,200.5975,75,50,0
200.49477,200.5975,78,60,0
200.5975,200.69954,84,63,0
200.69954,200.80101,79,65,0
200.69954,200.80101,76,54,0
200.69954,200.80101,72,54,0
200.80101,200.90271,84,67,0
200.90271,201.00441,72,59,0
200.90271,201.00441,75,59,0
200.90271,201.00441,78,70,0
201.00441,201.10599,84,72,0
201.10599,201.2078,79,74,0
201.10599,201.2078,76,62,0
201.10599,201.2078,72,62,0
201.2078,201.31018,84,77,0
201.31018,201.41316,72,67,0
201.31018,201.41316,75,67,0
201.31018,201.41316,78,80,0
201.41316,201.51614,84,83,0
201.51614,201.62103,79,85,0
201.51614,201.62103,76,71,0
201.51614,201.62103,72,71,0
201.62103,201.72768,84,82,0
201.72768,201.8377,72,68,0
201.72768,201.8377,75,68,0
201.72768,201.8377,78,80,0
201.8377,201.94928,84,78,0
201.94928,202.42358,84,97,0
201.94928,202.42358,72,81,0
201.94928,202.42358,76,81,0
201.94928,202.42358,79,81,0
202.89789,203.42653,96,106,0
202.89789,203.42653,84,89,0
202.89789,203.42653,88,89,0
202.89789,203.42653,91,89,0
203.95515,205.01244,60,106,0
203.95515,205.01244,55,89,0
203.95515,205.01244,52,89,0
0.0,0.412371,48,84,0
0.0,0.412371,36,71,0
0.412371,0.48864225,48,79,0
0.412371,0.48864225,36,67,0
0.615761,0.6920323,48,79,0
0.615761,0.6920323,36,67,0
0.819151,1.231522,48,79,0
0.819151,1.231522,36,67,0
1.231522,1.3077933,48,80,0
1.231522,1.3077933,36,68,0
1.434912,1.5111833,48,81,0
1.434912,1.5111833,36,69,0
1.638302,1.7189473,49,90,0
1.638302,1.7189473,37,76,0
2.06841,2.6869664,50,89,0
2.06841,2.6869664,38,75,0
2.6869664,2.76298,52,80,0
2.6869664,2.76298,40,68,0
2.889669,2.9656825,53,79,0
2.889669,2.9656825,41,67,0
3.0923715,3.168385,52,80,0
3.0923715,3.168385,40,68,0
3.295074,3.707445,50,84,0
3.295074,3.707445,38,71,0
3.707445,3.7834585,50,84,0
3.707445,3.7834585,38,71,0
3.9101474,3.986161,50,80,0
3.9101474,3.986161,38,68,0
4.11285,4.525221,50,80,0
4.11285,4.525221,38,68,0
4.525221,4.6014924,50,81,0
4.525221,4.6014924,38,69,0
4.728611,4.804882,50,81,0
4.728611,4.804882,38,69,0
4.932001,5.0141177,51,90,0
4.932001,5.0141177,39,76,0
5.369957,5.9885135,52,89,0
5.369957,5.9885135,40,75,0
5.9885135,6.0669107,54,80,0
5.9885135,6.0669107,42,80,0
6.1975727,6.2759695,55,80,0
6.1975727,6.2759695,43,68,0
6.4066315,6.4850287,57,82,0
6.4066315,6.4850287,45,69,0
6.6156907,7.0280614,58,93,0
6.6156907,7.0280614,46,78,0
7.0280614,7.1061864,58,84,0
7.0280614,7.1061864,46,71,0
7.236395,7.3182135,58,84,0
7.236395,7.3182135,46,71,0
7.454577,8.073133,49,94,0
7.454577,8.073133,37,79,0
8.073133,8.151805,49,86,0
8.073133,8.151805,37,73,0
8.282924,8.698149,57,94,0
8.282924,8.698149,45,79,0
8.698149,8.776003,57,84,0
8.698149,8.776003,45,71,0
8.905761,8.988178,57,85,0
8.905761,8.988178,45,72,0
9.125541,9.744098,48,94,0
9.125541,9.744098,36,79,0
9.744098,9.821417,48,85,0
9.744098,9.821417,36,72,0
9.950283,10.027602,47,85,0
9.950283,10.027602,35,72,0
10.156468,10.232739,50,86,0
10.156468,10.232739,38,72,0
10.3598585,10.43613,55,90,0
10.3598585,10.43613,43,75,0
10.563249,10.63952,53,85,0
10.563249,10.63952,41,72,0
10.766639,10.843958,52,86,0
10.766639,10.843958,40,73,0
10.972824,11.050143,48,82,0
10.972824,11.050143,36,70,0
11.179009,11.25633,47,82,0
11.179009,11.25633,35,70,0
11.385195,11.462515,45,81,0
11.385195,11.462515,33,69,0
11.59138,12.008047,53,84,0
11.59138,12.008047,41,71,0
12.008047,12.4320755,52,81,0
12.008047,12.4320755,40,69,0
12.4320755,13.319689,50,84,0
12.4320755,13.319689,38,71,0
13.319689,14.332555,48,77,0
13.319689,14.332555,36,65,0
14.332555,14.408655,50,73,0
14.332555,14.408655,38,61,0
14.53549,14.61056,52,73,0
14.53549,14.61056,40,61,0
14.735678,14.810748,53,73,0
14.735678,14.810748,41,61,0
14.935864,15.012756,52,77,0
14.935864,15.012756,40,65,0
15.140908,15.2178,50,74,0
15.140908,15.2178,38,63,0
15.345952,15.422053,48,74,0
15.345952,15.422053,36,63,0
15.548888,15.6249895,47,74,0
15.548888,15.6249895,35,63,0
15.751824,16.353777,45,79,0
15.751824,16.353777,33,67,0
16.353777,16.428593,52,75,0
16.353777,16.428593,40,64,0
16.553284,17.561108,53,77,0
16.553284,17.561108,41,65,0
17.561108,17.637209,52,73,0
17.561108,17.637209,40,61,0
17.764044,17.839115,53,73,0
17.764044,17.839115,41,61,0
17.964231,18.0393,55,73,0
17.964231,18.0393,43,61,0
18.16442,18.24158,54,77,0
18.16442,18.24158,42,65,0
18.37018,18.44734,52,74,0
18.37018,18.44734,40,63,0
18.575941,18.652042,50,74,0
18.575941,18.652042,38,63,0
18.778877,18.854979,49,74,0
18.778877,18.854979,37,63,0
18.981813,19.579504,47,79,0
18.981813,19.579504,35,67,0
19.579504,19.656822,45,71,0
19.579504,19.656822,33,59,0
19.785688,19.86179,44,73,0
19.785688,19.86179,32,60,0
19.988625,20.064726,47,68,0
19.988625,20.064726,35,57,0
20.19156,20.267662,44,73,0
20.19156,20.267662,32,60,0
20.394497,20.475027,47,66,0
20.394497,20.475027,35,55,0
20.609243,20.683058,53,77,0
20.609243,20.683058,41,65,0
20.80608,21.414888,53,75,0
20.80608,21.414888,41,64,0
21.414888,21.49099,43,73,0
21.414888,21.49099,31,60,0
21.617825,21.693926,46,68,0
21.617825,21.693926,34,57,0
21.82076,21.895018,43,73,0
21.82076,21.895018,31,60,0
22.01878,22.099897,46,66,0
22.01878,22.099897,34,55,0
22.23509,22.308905,52,77,0
22.23509,22.308905,40,65,0
22.431929,23.038643,52,75,0
22.431929,23.038643,40,64,0
23.038643,23.441067,50,75,0
23.038643,23.441067,38,64,0
23.441067,23.84144,42,71,0
23.441067,23.84144,30,59,0
23.84144,23.917542,43,69,0
23.84144,23.917542,31,58,0
24.044376,24.120478,45,71,0
24.044376,24.120478,33,59,0
24.247313,24.323414,47,73,0
24.247313,24.323414,35,61,0
24.450249,24.52635,48,75,0
24.450249,24.52635,36,64,0
24.653185,24.730076,50,77,0
24.653185,24.730076,38,65,0
24.858229,24.93512,54,75,0
24.858229,24.93512,42,64,0
25.063272,25.908537,55,76,0
25.063272,25.908537,43,65,0
25.908537,26.336466,54,75,0
25.908537,26.336466,42,64,0
26.336466,26.755285,53,75,0
26.336466,26.755285,41,64,0
26.755285,27.190067,52,74,0
26.755285,27.190067,40,63,0
27.190067,28.069187,50,72,0
27.190067,28.069187,38,60,0
28.069187,29.092697,52,77,0
28.069187,29.092697,48,65,0
29.092697,29.168798,55,73,0
29.092697,29.168798,52,61,0
29.295633,29.370703,57,73,0
29.295633,29.370703,53,61,0
29.49582,29.57089,58,73,0
29.49582,29.57089,55,61,0
29.696007,29.775377,57,77,0
29.696007,29.775377,53,65,0
29.907661,29.984823,55,74,0
29.907661,29.984823,52,63,0
30.113424,30.189524,53,74,0
30.113424,30.189524,50,63,0
30.316359,30.39246,52,74,0
30.316359,30.39246,45,63,0
30.519295,31.119108,50,79,0
30.519295,31.119108,41,67,0
31.119108,31.193121,49,75,0
31.119108,31.193121,45,64,0
31.316477,32.3243,50,77,0
31.316477,32.3243,46,65,0
32.3243,32.400402,58,73,0
32.3243,32.400402,50,61,0
32.527237,32.602306,62,73,0
32.527237,32.602306,58,61,0
32.727425,32.802494,60,73,0
32.727425,32.802494,57,61,0
32.927612,33.00843,59,77,0
32.927612,33.00843,55,65,0
33.143127,33.22056,57,74,0
33.143127,33.22056,54,63,0
33.34961,33.425713,55,74,0
33.34961,33.425713,52,63,0
33.552547,33.628647,54,74,0
33.552547,33.628647,47,63,0
33.75548,34.351864,52,79,0
33.75548,34.351864,43,67,0
34.351864,34.425632,50,67,0
34.351864,34.425632,41,56,0
34.548584,34.624683,49,69,0
34.548584,34.624683,40,57,0
34.75152,34.82762,52,65,0
34.75152,34.82762,43,54,0
34.954456,35.030556,49,69,0
34.954456,35.030556,40,57,0
35.15739,35.237923,52,63,0
35.15739,35.237923,43,52,0
35.37214,35.445908,58,72,0
35.37214,35.445908,55,59,0
35.56886,36.171574,58,70,0
35.56886,36.171574,55,58,0
36.171574,36.24759,48,69,0
36.171574,36.24759,39,57,0
36.374275,36.45029,51,65,0
36.374275,36.45029,42,54,0
36.57698,36.652992,48,69,0
36.57698,36.652992,39,57,0
36.779682,36.860798,51,63,0
36.779682,36.860798,42,52,0
36.99599,37.070004,57,72,0
36.99599,37.070004,54,59,0
37.19336,37.80058,57,70,0
37.19336,37.80058,54,58,0
37.80058,38.20347,55,71,0
38.20347,38.603844,50,66,0
38.20347,38.603844,47,55,0
38.603844,38.679943,52,65,0
38.603844,38.679943,48,55,0
38.806778,38.88288,53,68,0
38.806778,38.88288,50,56,0
39.009716,39.085815,55,70,0
39.009716,39.085815,52,59,0
39.21265,39.28875,57,73,0
39.21265,39.28875,53,61,0
39.41559,39.492477,55,77,0
39.620632,39.69752,59,75,0
39.41559,39.825676,50,65,0
39.825676,39.903923,48,77,0
40.03434,40.11259,52,75,0
39.825676,40.67779,60,76,0
40.67779,41.12343,59,75,0
40.243008,41.12343,55,65,0
41.12343,41.534386,48,96,0
41.12343,41.534386,36,81,0
41.534386,41.61066,48,91,0
41.534386,41.61066,36,77,0
41.737778,41.81405,48,91,0
41.737778,41.81405,36,77,0
41.941166,42.334896,48,91,0
41.941166,42.334896,36,77,0
42.334896,42.410736,48,92,0
42.334896,42.410736,36,78,0
42.537132,42.612972,48,93,0
42.537132,42.612972,36,79,0
42.739372,42.813934,49,100,0
42.739372,42.813934,37,85,0
43.13704,43.745846,50,99,0
43.13704,43.745846,38,81,0
43.745846,43.82066,52,92,0
43.745846,43.82066,40,78,0
43.945354,44.019367,53,91,0
43.945354,44.019367,41,77,0
44.142723,44.216736,52,92,0
44.142723,44.216736,40,78,0
44.34009,44.745964,50,96,0
44.34009,44.745964,38,81,0
44.745964,44.820778,50,96,0
44.745964,44.820778,38,81,0
44.945473,45.020287,50,92,0
44.945473,45.020287,38,78,0
45.144978,45.54281,50,92,0
45.144978,45.54281,38,78,0
45.54281,45.61813,50,93,0
45.54281,45.61813,38,79,0
45.743668,45.81899,50,93,0
45.743668,45.81899,38,79,0
45.944523,46.019146,51,100,0
45.944523,46.019146,39,85,0
46.34008,46.948887,52,99,0
46.34008,46.948887,40,80,0
46.948887,47.02345,54,92,0
46.948887,47.02345,42,92,0
47.14772,47.222282,55,91,0
47.14772,47.222282,43,77,0
47.346554,47.421116,57,92,0
47.346554,47.421116,45,78,0
47.545387,47.94622,58,103,0
47.545387,47.94622,46,87,0
47.94622,48.02232,58,92,0
47.94622,48.02232,46,78,0
48.149155,48.229687,58,92,0
48.149155,48.229687,46,78,0
48.363903,48.96348,49,100,0
48.363903,48.96348,37,85,0
48.96348,49.039497,49,94,0
48.96348,49.039497,37,80,0
49.166183,49.5652,57,100,0
49.166183,49.5652,45,85,0
49.5652,49.640015,57,90,0
49.5652,49.640015,45,76,0
49.76471,49.845825,57,91,0
49.76471,49.845825,45,77,0
49.981018,50.583237,48,98,0
49.981018,50.583237,36,83,0
50.583237,50.65951,48,91,0
50.583237,50.65951,36,77,0
50.78663,50.8629,47,93,0
50.78663,50.8629,35,79,0
50.990017,51.06509,50,94,0
50.990017,51.06509,38,80,0
51.190205,51.265274,55,100,0
51.190205,51.265274,43,84,0
51.390392,51.46546,53,94,0
51.390392,51.46546,41,80,0
51.59058,51.66668,52,96,0
51.59058,51.66668,40,81,0
51.793514,51.869617,48,93,0
51.793514,51.869617,36,79,0
51.996452,52.07255,47,93,0
51.996452,52.07255,35,79,0
52.199387,52.27549,45,93,0
52.199387,52.27549,33,79,0
52.402325,52.812412,53,96,0
52.402325,52.812412,41,81,0
52.812412,53.26668,52,93,0
52.812412,53.26668,40,79,0
53.26668,54.12254,50,96,0
53.26668,54.12254,38,81,0
54.12254,54.51215,61,96,0
54.12254,54.51215,49,80,0
54.51215,54.607693,61,92,0
54.51215,54.607693,49,77,0
54.703236,54.798775,61,88,0
54.703236,54.798775,49,74,0
54.907078,55.724636,52,92,0
54.907078,55.724636,40,77,0
55.724636,56.112988,50,80,0
55.724636,56.112988,62,96,0
56.112988,56.207626,62,92,0
56.112988,56.207626,50,77,0
56.30226,56.3969,62,88,0
56.30226,56.3969,50,74,0
56.502907,57.317493,53,92,0
56.502907,57.317493,41,77,0
57.317493,57.703342,61,96,0
57.317493,57.703342,49,80,0
57.703342,57.79798,61,92,0
57.703342,57.79798,49,77,0
57.89262,57.987255,61,88,0
57.89262,57.987255,49,74,0
58.091423,58.90898,52,92,0
58.091423,58.90898,40,77,0
58.90898,59.29859,50,80,0
58.90898,59.29859,62,96,0
59.29859,59.370247,62,92,0
59.29859,59.370247,50,77,0
59.489674,59.56133,62,88,0
59.489674,59.56133,50,74,0
59.688663,60.50325,53,92,0
59.688663,60.50325,41,77,0
60.50325,60.909367,52,69,0
60.50325,60.909367,40,58,0
60.909367,61.30472,50,73,0
60.909367,61.30472,38,62,0
61.30472,61.694332,49,79,0
61.30472,61.694332,37,66,0
61.694332,62.124798,50,84,0
61.694332,62.124798,38,70,0
62.124798,62.51065,55,74,0
62.124798,62.51065,59,88,0
62.51065,62.69874,59,88,0
62.51065,62.69874,55,74,0
62.69874,62.89879,59,84,0
62.69874,62.89879,55,71,0
62.89879,63.705578,52,88,0
62.89879,63.705578,43,74,0
63.705578,64.09143,55,74,0
63.705578,64.09143,59,88,0
64.09143,64.28011,59,88,0
64.09143,64.28011,55,74,0
64.28011,64.48045,59,84,0
64.28011,64.48045,55,71,0
64.48045,65.2873,51,88,0
64.48045,65.2873,43,74,0
65.2873,65.67691,55,74,0
65.2873,65.67691,59,88,0
65.67691,65.86799,59,88,0
65.67691,65.86799,55,74,0
65.86799,66.06954,59,84,0
65.86799,66.06954,55,71,0
66.06954,66.884125,52,88,0
66.06954,66.884125,43,74,0
66.884125,67.28681,55,77,0
66.884125,67.28681,59,92,0
67.28681,67.48353,59,92,0
67.28681,67.48353,55,77,0
67.48353,67.70586,59,88,0
67.48353,67.70586,55,74,0
67.70586,68.52626,53,92,0
67.70586,68.52626,43,77,0
68.52626,68.9533,55,84,0
68.52626,68.9533,43,71,0
68.9533,69.36996,54,77,0
68.9533,69.36996,42,64,0
69.36996,69.7808,53,90,0
69.36996,69.7808,41,77,0
69.7808,70.22914,54,86,0
69.7808,70.22914,42,72,0
70.22914,70.33295,47,78,0
70.33295,70.43675,59,68,0
70.43675,70.54056,62,69,0
70.54056,70.64436,59,69,0
70.64436,70.74538,54,79,0
70.74538,70.84638,59,71,0
70.84638,70.947395,50,75,0
70.947395,71.0585,54,71,0
71.0585,71.16231,42,78,0
71.16231,71.26611,54,68,0
71.26611,71.36993,58,73,0
71.36993,71.47373,54,67,0
71.47373,71.57754,49,74,0
71.57754,71.68134,54,65,0
71.68134,71.78515,46,71,0
71.78515,71.888954,49,65,0
71.888954,71.99276,45,78,0
71.99276,72.096565,57,68,0
72.096565,72.20037,61,69,0
72.20037,72.30418,57,69,0
72.30418,72.40519,52,79,0
72.40519,72.5062,57,71,0
72.5062,72.60721,49,75,0
72.60721,72.71832,52,71,0
72.71832,72.82213,40,78,0
72.82213,72.925934,52,68,0
72.925934,73.02974,56,73,0
73.02974,73.133545,52,67,0
73.133545,73.23735,47,74,0
73.23735,73.341156,52,65,0
73.341156,73.44496,44,71,0
73.44496,73.54877,47,65,0
73.54877,73.65258,43,71,0
73.65258,73.756386,55,61,0
73.756386,73.86019,59,62,0
73.86019,73.964,55,62,0
73.964,74.066734,50,71,0
74.066734,74.16947,55,63,0
74.16947,74.27222,47,66,0
74.27222,74.38332,50,62,0
74.38332,74.48713,38,69,0
74.48713,74.590935,50,59,0
74.590935,74.69475,54,58,0
74.69475,74.79855,57,57,0
74.79855,74.90382,43,63,0
74.90382,75.00908,47,55,0
75.00908,75.11434,55,55,0
75.11434,75.219604,59,54,0
75.219604,75.32341,38,66,0
75.32341,75.427216,50,57,0
75.427216,75.53102,55,57,0
75.53102,75.63483,57,57,0
75.63483,75.74046,38,65,0
75.74046,75.8461,50,58,0
75.8461,75.95173,54,61,0
75.95173,76.057365,57,57,0
76.057365,76.16117,31,63,0
76.16117,76.26498,43,54,0
76.26498,76.36878,47,53,0
76.36878,76.47259,50,53,0
76.47259,76.57639,55,58,0
76.57639,76.6802,50,50,0
76.6802,76.784004,47,50,0
76.784004,76.88782,43,50,0
76.88782,76.99162,31,63,0
76.99162,77.09543,55,55,0
77.09543,77.199234,59,56,0
77.199234,77.30304,55,56,0
77.30304,77.404045,50,64,0
77.404045,77.50506,55,57,0
77.50506,77.60607,47,61,0
77.60607,77.71718,50,57,0
77.71718,77.820984,38,63,0
77.820984,77.92479,50,55,0
77.92479,78.028595,54,59,0
78.028595,78.13241,50,54,0
78.13241,78.23621,45,60,0
78.23621,78.34002,50,52,0
78.34002,78.443825,42,57,0
78.443825,78.54763,45,52,0
78.54763,78.651436,41,63,0
78.651436,78.75524,53,55,0
78.75524,78.85905,57,56,0
78.85905,78.96285,53,56,0
78.96285,79.063866,48,64,0
79.063866,79.16487,53,57,0
79.16487,79.265884,45,61,0
79.265884,79.377,48,57,0
79.377,79.480804,36,63,0
79.480804,79.58461,48,55,0
79.58461,79.688416,52,59,0
79.688416,79.79222,48,54,0
79.79222,79.89603,43,60,0
79.89603,79.99983,48,52,0
79.99983,80.10364,40,57,0
80.10364,80.20744,43,52,0
80.20744,80.31125,40,60,0
80.31125,80.415054,52,51,0
80.415054,80.51887,55,52,0
80.51887,80.62267,52,52,0
80.62267,80.72576,47,60,0
80.72576,80.82886,52,53,0
80.82886,80.931946,43,56,0
80.931946,81.04306,47,52,0
81.04306,81.1487,35,58,0
81.1487,81.254326,47,50,0
81.254326,81.35996,51,49,0
81.35996,81.46559,54,48,0
81.46559,81.57123,40,53,0
81.57123,81.676865,47,46,0
81.676865,81.78249,52,46,0
81.78249,81.88813,55,45,0
81.88813,81.99414,35,56,0
81.99414,82.10014,47,48,0
82.10014,82.206154,52,48,0
82.206154,82.31216,54,48,0
82.31216,82.41817,35,55,0
82.41817,82.52417,47,49,0
82.52417,82.63018,51,51,0
82.63018,82.73618,54,48,0
82.73618,82.83999,40,53,0
82.83999,82.9438,52,45,0
82.9438,83.04761,55,45,0
83.04761,83.15141,59,45,0
83.15141,83.25522,64,49,0
83.25522,83.359024,59,42,0
83.359024,83.46283,55,42,0
83.46283,83.566635,52,42,0
83.566635,83.645485,64,59,0
83.566635,83.645485,60,49,0
83.77689,83.853546,62,56,0
83.77689,83.853546,59,48,0
83.9813,84.05689,60,56,0
83.9813,84.05689,57,48,0
84.182884,84.25848,59,56,0
84.182884,84.25848,52,48,0
84.38447,84.98244,57,60,0
84.38447,84.98244,48,51,0
84.98244,85.056755,65,57,0
84.98244,85.056755,55,48,0
85.180626,85.26092,66,59,0
85.180626,85.26092,54,49,0
85.39473,85.47165,64,56,0
85.39473,85.47165,61,48,0
85.59984,85.67544,62,56,0
85.59984,85.67544,59,48,0
85.80143,85.87702,61,56,0
85.80143,85.87702,54,48,0
86.00301,86.59965,59,60,0
86.00301,86.59965,50,51,0
86.59965,86.67372,57,57,0
86.59965,86.67372,48,48,0
86.79717,86.872765,56,59,0
86.79717,86.872765,47,49,0
86.99876,87.074356,59,55,0
86.99876,87.074356,50,46,0
87.20035,87.27594,56,59,0
87.20035,87.27594,47,49,0
87.40193,87.481926,59,53,0
87.40193,87.481926,50,44,0
87.61526,87.68646,65,70,0
87.61526,87.68646,62,59,0
87.80513,88.41809,65,68,0
87.80513,88.41809,62,57,0
88.41809,88.49369,55,59,0
88.41809,88.49369,46,49,0
88.619675,88.695274,58,55,0
88.619675,88.695274,49,46,0
88.821266,88.89686,55,59,0
88.821266,88.89686,46,49,0
89.02285,89.10343,58,53,0
89.02285,89.10343,49,44,0
89.23773,89.30939,64,70,0
89.23773,89.30939,61,59,0
89.42882,90.04178,64,67,0
89.42882,90.04178,61,56,0
90.04178,90.11764,54,59,0
90.04178,90.11764,45,49,0
90.24407,90.31993,57,55,0
90.24407,90.31993,48,46,0
90.446365,90.85034,63,59,0
90.446365,90.85034,60,52,0
90.85034,90.9262,53,59,0
90.85034,90.9262,44,49,0
91.05263,91.128494,56,55,0
91.05263,91.128494,47,46,0
91.25492,91.66953,62,59,0
91.25492,91.66953,59,52,0
91.66953,91.747116,52,56,0
91.66953,91.747116,43,46,0
91.87643,91.95402,55,51,0
91.87643,91.95402,46,43,0
92.08333,92.51203,61,54,0
92.08333,92.51203,58,47,0
92.51203,92.59182,51,51,0
92.51203,92.59182,42,43,0
92.7248,92.80459,54,47,0
92.7248,92.80459,45,39,0
92.93757,93.39954,60,49,0
92.93757,93.39954,57,43,0
93.39954,93.50592,32,38,0
93.50592,93.612305,44,36,0
93.612305,93.71844,32,39,0
93.71844,93.82445,44,36,0
93.82445,93.93021,32,41,0
93.93021,94.035835,44,38,0
94.035835,94.14135,32,42,0
94.14135,94.24661,44,39,0
94.24661,94.35175,32,44,0
94.35175,94.45665,44,41,0
94.45665,94.56142,32,45,0
94.56142,94.66595,44,44,0
94.66595,94.77048,32,47,0
94.77048,94.87465,44,44,0
94.87465,94.97881,32,48,0
94.97881,95.08226,44,47,0
95.08226,95.18571,45,56,0
95.18571,95.2888,46,53,0
95.2888,95.39189,47,54,0
95.39189,95.49464,48,55,0
95.49464,95.597374,49,57,0
95.597374,95.69976,50,59,0
95.69976,95.802155,51,60,0
95.802155,95.90419,52,61,0
95.90419,96.00623,53,63,0
96.00623,96.107925,54,65,0
96.107925,96.209625,55,67,0
96.209625,96.310974,56,68,0
96.310974,96.41222,56,72,0
96.310974,96.41222,44,61,0
96.51322,96.614235,56,73,0
96.51322,96.614235,44,62,0
96.71457,96.81457,56,75,0
96.71457,96.81457,44,63,0
96.91424,97.11247,68,77,0
96.91424,97.11247,56,65,0
97.11247,97.309845,68,80,0
97.11247,97.309845,56,68,0
97.309845,97.50721,68,83,0
97.309845,97.50721,56,70,0
97.50721,97.70458,68,87,0
97.50721,97.70458,56,73,0
97.70458,97.90195,68,90,0
97.70458,97.90195,56,75,0
97.90195,98.00364,68,93,0
97.90195,98.00364,56,78,0
98.10534,98.21364,68,96,0
98.10534,98.21364,56,81,0
98.321945,98.52265,67,102,0
98.321945,98.52265,55,87,0
98.53321,98.73392,43,97,0
98.53321,98.73392,31,81,0
98.74448,98.94552,43,97,0
98.74448,98.94552,31,81,0
98.95612,99.15859,43,97,0
98.95612,99.15859,31,81,0
99.169266,99.373184,43,97,0
99.169266,99.373184,31,81,0
99.383934,99.58932,43,97,0
99.383934,99.58932,31,81,0
99.60015,99.81364,43,97,0
99.60015,99.81364,31,81,0
99.82487,100.05379,43,97,0
99.82487,100.05379,31,81,0
100.065834,100.48986,48,100,0
100.065834,100.48986,36,85,0
100.48986,100.567184,48,95,0
100.48986,100.567184,36,79,0
100.696045,100.77337,48,95,0
100.696045,100.77337,36,79,0
100.90224,101.32035,48,95,0
100.90224,101.32035,36,79,0
101.32035,101.40187,48,96,0
101.32035,101.40187,36,81,0
101.53774,101.62329,48,97,0
101.53774,101.62329,36,82,0
101.77278,101.853424,49,105,0
101.77278,101.853424,37,89,0
102.20289,102.82432,50,102,0
102.20289,102.82432,38,86,0
102.82432,102.90272,52,96,0
102.82432,102.90272,40,81,0
103.03338,103.112885,53,95,0
103.03338,103.112885,41,79,0
103.24539,103.3249,52,96,0
103.24539,103.3249,40,81,0
103.465904,103.89143,50,100,0
103.465904,103.89143,38,85,0
103.89143,103.96875,50,100,0
103.89143,103.96875,38,85,0
104.09762,104.174934,50,96,0
104.09762,104.174934,38,81,0
104.3038,104.72338,50,96,0
104.3038,104.72338,38,81,0
104.72338,104.80317,50,97,0
104.72338,104.80317,38,82,0
104.93615,105.01917,50,97,0
104.93615,105.01917,38,82,0
105.16092,105.243034,51,105,0
105.16092,105.243034,39,89,0
105.59888,106.22031,52,102,0
105.59888,106.22031,40,86,0
106.22031,106.298706,54,93,0
106.22031,106.298706,42,93,0
106.42937,106.50887,55,92,0
106.42937,106.50887,43,77,0
106.64138,106.72089,57,93,0
106.64138,106.72089,45,79,0
106.85339,107.27151,58,101,0
106.85339,107.27151,46,86,0
107.27151,107.34991,58,93,0
107.27151,107.34991,46,79,0
107.48057,107.562386,58,93,0
107.48057,107.562386,46,79,0
107.69875,108.54544,49,97,0
107.69875,108.54544,37,82,0
108.54544,108.96947,57,98,0
108.54544,108.96947,45,84,0
108.96947,109.04897,57,91,0
108.96947,109.04897,45,77,0
109.18148,109.2639,57,92,0
109.18148,109.2639,45,78,0
109.40126,110.24633,48,95,0
109.40126,110.24633,36,80,0
110.24633,110.325005,47,93,0
110.24633,110.325005,35,79,0
110.45612,110.53479,50,94,0
110.45612,110.53479,38,80,0
110.66591,110.74458,55,99,0
110.66591,110.74458,43,84,0
110.8757,110.95438,53,94,0
110.8757,110.95438,41,80,0
111.085495,111.16416,52,96,0
111.085495,111.16416,40,81,0
111.29528,111.373955,48,93,0
111.29528,111.373955,36,79,0
111.50507,111.58374,47,93,0
111.50507,111.58374,35,79,0
111.71486,111.79353,45,93,0
111.71486,111.79353,33,79,0
111.92465,112.00333,41,87,0
112.02955,112.108376,53,88,0
112.13469,112.21394,41,89,0
112.24045,112.32011,53,91,0
112.3467,112.4268,40,92,0
112.45359,112.53411,52,93,0
112.56099,112.64196,40,94,0
112.66904,112.75043,52,96,0
112.7776,112.85942,38,97,0
112.88669,112.968506,50,94,0
112.99578,113.0776,38,97,0
113.10487,113.18669,50,92,0
113.21397,113.29734,43,97,0
113.32564,113.41274,55,92,0
113.44239,113.53353,43,92,0
113.56452,113.66014,55,92,0
113.69276,114.1032,56,101,0
113.69276,114.1032,44,82,0
114.14051,114.25246,44,92,0
114.14051,114.25246,32,78,0
114.289764,116.02054,44,86,0
114.289764,116.02054,32,73,0
116.02054,116.131645,31,34,0
116.131645,116.24228,43,34,0
116.24228,116.35244,31,35,0
116.35244,116.46213,43,35,0
116.46213,116.57135,31,36,0
116.57135,116.680115,43,36,0
116.680115,116.78835,31,37,0
116.78835,116.89614,43,37,0
116.89614,117.00347,31,38,0
117.00347,117.11036,43,38,0
117.11036,117.216805,31,39,0
117.216805,117.322754,43,39,0
117.322754,117.42826,31,40,0
117.42826,117.53334,43,40,0
117.53334,117.63799,31,41,0
117.63799,117.74222,43,41,0
117.74222,117.84525,43,46,0
117.84525,117.947876,55,43,0
117.947876,118.050095,43,45,0
118.050095,118.15185,55,47,0
118.15185,118.253136,43,49,0
118.253136,118.35398,55,51,0
118.35398,118.45443,43,53,0
118.45443,118.55443,55,56,0
118.55443,118.653984,55,57,0
118.653984,118.75316,67,59,0
118.75316,118.8519,55,61,0
118.8519,118.9502,67,63,0
118.9502,119.04808,55,65,0
119.04808,119.14559,67,68,0
119.14559,119.243065,55,70,0
119.243065,119.39307,67,72,0
119.39307,119.84251,53,72,0
119.39307,119.84251,65,85,0
119.84251,120.30943,50,71,0
119.84251,120.30943,62,83,0
120.30943,120.76056,55,73,0
120.30943,120.76056,67,86,0
120.76056,121.242485,55,82,0
120.76056,121.242485,43,70,0
121.242485,121.60753,56,99,0
121.242485,121.60753,44,82,0
121.64072,121.74027,44,94,0
121.64072,121.74027,32,79,0
121.77346,123.36638,44,83,0
121.77346,123.36638,32,70,0
123.36638,123.477486,31,34,0
123.477486,123.58812,43,34,0
123.58812,123.69828,31,35,0
123.69828,123.80797,43,35,0
123.80797,123.91719,31,36,0
123.91719,124.025955,43,36,0
124.025955,124.13419,31,37,0
124.13419,124.24198,43,37,0
124.24198,124.34931,31,38,0
124.34931,124.4562,43,38,0
124.4562,124.562645,31,39,0
124.562645,124.668594,43,39,0
124.668594,124.7741,31,40,0
124.7741,124.87918,43,40,0
124.87918,124.98383,31,41,0
124.98383,125.08806,43,41,0
125.08806,125.19109,43,46,0
125.19109,125.29372,55,43,0
125.29372,125.395935,43,45,0
125.395935,125.49769,55,47,0
125.49769,125.59898,43,49,0
125.59898,125.69982,55,51,0
125.69982,125.80027,43,53,0
125.80027,125.90027,55,56,0
125.90027,125.999825,55,57,0
125.999825,126.099,67,59,0
126.099,126.19774,55,61,0
126.19774,126.29604,67,63,0
126.29604,126.39392,55,65,0
126.39392,126.49143,67,68,0
126.49143,126.588905,55,70,0
126.588905,126.73891,67,72,0
126.73891,127.06033,41,86,0
126.73891,127.06033,29,72,0
127.06033,127.13459,53,75,0
127.06033,127.13459,41,64,0
127.15935,127.55538,53,76,0
127.15935,127.55538,41,65,0
127.55538,127.873405,43,86,0
127.55538,127.873405,31,72,0
127.873405,127.9484,55,74,0
127.873405,127.9484,43,63,0
127.973404,128.37341,55,74,0
127.973404,128.37341,43,63,0
128.37341,128.6903,45,90,0
128.37341,128.6903,33,76,0
128.6903,128.76607,57,76,0
128.6903,128.76607,45,65,0
128.79132,129.19536,57,76,0
128.79132,129.19536,45,65,0
129.19536,129.51451,46,91,0
129.19536,129.51451,34,76,0
129.51451,129.59103,58,77,0
129.51451,129.59103,46,65,0
129.61655,130.0247,58,79,0
129.61655,130.0247,46,67,0
130.0247,130.345,56,89,0
130.0247,130.345,44,75,0
130.345,130.42178,44,75,0
130.345,130.42178,32,64,0
130.44739,130.85693,44,87,0
130.44739,130.85693,32,73,0
130.85693,131.18303,55,86,0
130.85693,131.18303,43,72,0
131.18303,131.26035,43,74,0
131.18303,131.26035,31,63,0
131.28612,131.71129,43,86,0
131.28612,131.71129,31,72,0
131.71129,132.0548,55,82,0
131.71129,132.0548,43,70,0
132.0548,132.13692,43,76,0
132.0548,132.13692,31,64,0
132.16428,132.64874,43,88,0
132.16428,132.64874,31,74,0
132.64874,133.01912,55,85,0
132.64874,133.01912,43,72,0
133.01912,133.12627,43,78,0
133.01912,133.12627,31,66,0
133.16197,133.96198,43,92,0
133.16197,133.96198,31,77,0
133.96198,134.03957,47,50,0
133.96198,134.03957,35,42,0
134.16887,134.24515,50,51,0
134.16887,134.24515,38,43,0
134.37227,134.44853,55,53,0
134.37227,134.44853,43,45,0
134.57565,134.65192,53,51,0
134.57565,134.65192,41,43,0
134.77904,134.85635,52,52,0
134.77904,134.85635,40,44,0
134.98523,135.06255,48,50,0
134.98523,135.06255,36,42,0
135.1914,135.26874,47,50,0
135.1914,135.26874,35,42,0
135.3976,135.47491,45,50,0
135.3976,135.47491,33,42,0
135.60379,135.70688,41,54,0
135.70688,135.80997,53,56,0
135.80997,135.9127,41,57,0
135.9127,136.01544,53,59,0
136.01544,136.11784,40,60,0
136.11784,136.22023,52,62,0
136.22023,136.32227,40,63,0
136.32227,136.4243,52,65,0
136.4243,136.526,38,66,0
136.526,136.6277,50,66,0
136.6277,136.72939,38,67,0
136.72939,136.83086,50,68,0
136.83086,136.9321,32,69,0
136.9321,137.0339,44,69,0
137.0339,137.13618,32,70,0
137.13618,137.23904,44,71,0
137.23904,137.31662,45,60,0
137.23904,137.31662,33,50,0
137.44594,137.52144,52,61,0
137.44594,137.52144,40,51,0
137.64728,137.72278,57,63,0
137.64728,137.72278,45,54,0
137.84862,137.92412,55,61,0
137.84862,137.92412,43,51,0
138.04996,138.12675,53,62,0
138.04996,138.12675,41,52,0
138.25475,138.33153,50,60,0
138.25475,138.33153,38,50,0
138.45952,138.53632,48,60,0
138.45952,138.53632,36,50,0
138.66429,138.74109,46,60,0
138.66429,138.74109,34,50,0
138.86908,138.97076,43,61,0
138.97076,139.07246,55,62,0
139.07246,139.17393,43,64,0
139.17393,139.27528,55,66,0
139.27528,139.37653,41,67,0
139.37653,139.47752,53,69,0
139.47752,139.57854,41,71,0
139.57854,139.67921,53,73,0
139.67921,139.77988,40,76,0
139.77988,139.88033,52,72,0
139.88033,139.98067,40,76,0
139.98067,140.08078,52,71,0
140.08078,140.181,33,76,0
140.181,140.28156,45,72,0
140.28156,140.38245,33,76,0
140.38245,140.48369,45,71,0
140.48369,140.68707,50,84,0
140.48369,140.68707,38,71,0
140.68707,140.88576,57,77,0
140.68707,140.88576,45,65,0
140.88576,140.96027,62,85,0
140.88576,140.96027,50,72,0
141.08443,141.15894,60,76,0
141.08443,141.15894,48,64,0
141.28311,141.48718,59,82,0
141.28311,141.48718,47,69,0
141.48718,141.69127,55,74,0
141.48718,141.69127,43,62,0
141.69127,141.7678,54,75,0
141.69127,141.7678,42,63,0
141.89536,141.97188,52,75,0
141.89536,141.97188,40,63,0
142.09943,142.20229,48,66,0
142.20229,142.30502,60,67,0
142.30502,142.40765,48,68,0
142.40765,142.51004,60,69,0
142.51004,142.61232,47,71,0
142.61232,142.71436,59,72,0
142.71436,142.81628,47,73,0
142.81628,142.91797,59,74,0
142.91797,143.01956,45,75,0
143.01956,143.12091,57,73,0
143.12091,143.22214,45,78,0
143.22214,143.32315,57,71,0
143.32315,143.42406,38,78,0
143.42406,143.52586,50,70,0
143.52586,143.62813,38,76,0
143.62813,143.73099,50,70,0
143.73099,143.9379,55,84,0
143.73099,143.9379,43,71,0
143.9379,144.13991,62,77,0
143.9379,144.13991,50,65,0
144.13991,144.34193,67,85,0
144.13991,144.34193,55,72,0
144.34193,144.54395,65,76,0
144.34193,144.54395,53,64,0
144.54395,144.75014,64,82,0
144.54395,144.75014,52,69,0
144.75014,144.95631,60,74,0
144.75014,144.95631,48,62,0
144.95631,145.1625,59,75,0
144.95631,145.1625,47,63,0
145.1625,145.3687,57,75,0
145.1625,145.3687,45,63,0
145.3687,145.4725,53,66,0
145.4725,145.57594,65,67,0
145.57594,145.6794,53,68,0
145.6794,145.78284,65,69,0
145.78284,145.88774,52,71,0
145.88774,145.99489,64,72,0
145.99489,146.10411,52,73,0
146.10411,146.24495,64,74,0
146.24495,146.3521,50,75,0
146.3521,146.45924,62,73,0
146.45924,146.56639,50,80,0
146.56639,146.67352,62,74,0
146.67352,146.78067,43,83,0
146.78067,146.88782,55,75,0
146.88782,146.99495,43,83,0
146.99495,147.1021,55,78,0
147.1021,147.2038,48,64,0
147.2038,147.3055,60,54,0
147.3055,147.40718,48,64,0
147.40718,147.50888,60,53,0
147.50888,147.61058,41,64,0
147.61058,147.71227,53,55,0
147.71227,147.81396,41,64,0
147.81396,147.91566,53,54,0
147.91566,148.01633,47,64,0
148.01633,148.117,59,54,0
148.117,148.21767,47,64,0
148.21767,148.31834,59,54,0
148.31834,148.41902,40,64,0
148.41902,148.51968,52,53,0
148.51968,148.62036,40,64,0
148.62036,148.72102,52,55,0
148.72102,148.82137,41,64,0
148.82137,148.92169,53,56,0
148.92169,149.0217,41,64,0
149.0217,149.12158,53,54,0
149.12158,149.22028,41,56,0
149.12158,149.22028,45,56,0
149.12158,149.22028,50,67,0
149.22028,149.31895,53,59,0
149.31895,149.41763,50,67,0
149.31895,149.41763,45,56,0
149.31895,149.41763,41,56,0
149.41763,149.51633,53,57,0
149.51633,149.61545,52,64,0
149.51633,149.61545,48,53,0
149.51633,149.61545,43,53,0
149.61545,149.71478,55,57,0
149.71478,149.81412,52,64,0
149.71478,149.81412,48,53,0
149.71478,149.81412,43,53,0
149.81412,149.91345,55,56,0
149.91345,150.01346,50,64,0
149.91345,150.01346,47,53,0
149.91345,150.01346,43,53,0
150.01346,150.11368,55,57,0
150.11368,150.21413,50,64,0
150.11368,150.21413,47,53,0
150.11368,150.21413,43,53,0
150.21413,150.3148,55,57,0
150.3148,150.4158,52,53,0
150.3148,150.4158,55,53,0
150.3148,150.4158,60,64,0
150.4158,150.51682,64,55,0
150.51682,150.61783,52,53,0
150.51682,150.61783,55,53,0
150.51682,150.61783,60,64,0
150.61783,150.71953,64,55,0
150.71953,150.8218,53,56,0
150.71953,150.8218,57,56,0
150.71953,150.8218,62,67,0
150.8218,150.92442,65,58,0
150.92442,151.02739,53,56,0
150.92442,151.02739,57,56,0
150.92442,151.02739,62,67,0
151.02739,151.13072,65,56,0
151.13072,151.23405,55,59,0
151.13072,151.23405,60,59,0
151.13072,151.23405,64,71,0
151.23405,151.33823,67,61,0
151.33823,151.44348,55,58,0
151.33823,151.44348,60,58,0
151.33823,151.44348,64,70,0
151.44348,151.54987,67,59,0
151.54987,151.65727,55,59,0
151.54987,151.65727,62,59,0
151.54987,151.65727,65,71,0
151.65727,151.76454,67,64,0
151.76454,151.8722,55,63,0
151.76454,151.8722,62,63,0
151.76454,151.8722,65,74,0
151.8722,151.98012,67,63,0
151.98012,152.39249,48,82,0
151.98012,152.39249,36,70,0
152.39249,152.46773,52,72,0
152.39249,152.46773,40,60,0
152.59315,152.66942,52,72,0
152.59315,152.66942,40,60,0
152.79654,153.20332,55,78,0
152.79654,153.20332,43,66,0
153.20332,153.27959,43,73,0
153.20332,153.27959,31,62,0
153.40671,153.48566,43,74,0
153.40671,153.48566,31,63,0
153.62737,154.03973,50,79,0
153.62737,154.03973,38,67,0
154.03973,154.11497,53,72,0
154.03973,154.11497,41,60,0
154.2404,154.31667,53,72,0
154.2404,154.31667,41,60,0
154.44379,154.85194,57,78,0
154.44379,154.85194,45,66,0
154.85194,154.92874,45,73,0
154.85194,154.92874,33,62,0
155.05673,155.1354,45,74,0
155.05673,155.1354,33,63,0
155.27701,155.68938,53,79,0
155.27701,155.68938,41,67,0
155.68938,155.76389,57,72,0
155.68938,155.76389,45,60,0
155.88806,155.96458,57,72,0
155.88806,155.96458,45,60,0
156.09213,156.49483,60,78,0
156.09213,156.49483,48,66,0
156.49483,156.57214,48,73,0
156.49483,156.57214,36,62,0
156.701,156.77968,48,74,0
156.701,156.77968,36,63,0
156.92128,157.04156,40,71,0
157.02438,157.14465,46,64,0
157.12747,157.24774,49,64,0
157.23056,157.35039,52,64,0
157.33366,157.35039,52,71,0
157.43399,157.55106,58,66,0
157.53433,157.65442,61,66,0
157.63466,157.77042,64,66,0
157.75323,157.87352,41,71,0
157.85632,157.97661,47,65,0
157.95943,158.0797,50,66,0
158.06252,158.18256,53,66,0
158.1656,158.18256,53,71,0
158.2673,158.38596,59,65,0
158.369,158.49046,62,65,0
158.47069,158.60646,65,65,0
158.58926,158.70955,40,71,0
158.69237,158.81264,46,64,0
158.79546,158.91573,49,64,0
158.89854,159.01837,52,64,0
159.00165,159.01837,52,71,0
159.10197,159.21904,58,66,0
159.20232,159.3224,61,66,0
159.30264,159.4384,64,66,0
159.42122,159.5415,41,71,0
159.52432,159.64459,47,65,0
159.62741,159.74768,50,66,0
159.7305,159.85054,53,66,0
159.83359,159.85054,53,71,0
159.93529,160.05394,59,65,0
160.03699,160.15845,62,65,0
160.13867,160.2741,65,65,0
160.25726,160.35826,60,67,0
160.25726,160.35826,55,56,0
160.25726,160.35826,52,56,0
160.35826,160.45927,64,58,0
160.45927,160.56029,52,56,0
160.45927,160.56029,55,56,0
160.45927,160.56029,60,67,0
160.56029,160.66199,64,57,0
160.66199,160.76425,53,56,0
160.66199,160.76425,57,56,0
160.66199,160.76425,60,66,0
160.76425,160.86688,65,57,0
160.86688,160.96985,53,56,0
160.86688,160.96985,57,56,0
160.86688,160.96985,60,66,0
160.96985,161.07318,65,55,0
161.07318,161.17651,55,55,0
161.07318,161.17651,60,55,0
161.07318,161.17651,64,65,0
161.17651,161.28069,67,55,0
161.28069,161.38594,55,55,0
161.28069,161.38594,60,55,0
161.28069,161.38594,64,65,0
161.38594,161.49232,67,56,0
161.49232,161.59973,55,54,0
161.49232,161.59973,62,54,0
161.49232,161.59973,65,64,0
161.59973,161.7077,67,55,0
161.7077,161.81807,55,53,0
161.7077,161.81807,62,53,0
161.7077,161.81807,65,63,0
161.81807,161.98474,67,54,0
161.98474,162.3943,36,49,0
162.3943,162.46855,60,46,0
162.3943,162.46855,52,39,0
162.59232,162.66658,60,46,0
162.59232,162.66658,52,39,0
162.79034,163.19574,62,46,0
162.79034,163.19574,55,39,0
163.19574,163.27254,43,47,0
163.40053,163.47731,43,48,0
163.6183,164.02646,38,49,0
164.02646,164.09999,62,46,0
164.02646,164.09999,53,39,0
164.22253,164.29803,62,46,0
164.22253,164.29803,53,39,0
164.42387,164.83205,64,46,0
164.42387,164.83205,57,39,0
164.83205,164.90883,45,47,0
165.03682,165.11362,45,48,0
165.2546,165.66275,41,53,0
165.66275,165.73726,65,56,0
165.66275,165.73726,57,47,0
165.86143,165.93594,65,58,0
165.86143,165.93594,57,49,0
166.0601,166.46689,67,62,0
166.0601,166.46689,60,52,0
166.46689,166.54395,48,69,0
166.67236,166.74942,48,73,0
166.89049,166.99254,40,71,0
166.99254,167.09457,46,64,0
167.09457,167.19661,49,64,0
167.19661,167.29866,52,64,0
167.29866,167.398,52,71,0
167.398,167.49733,58,66,0
167.49733,167.59666,61,66,0
167.59666,167.71524,64,66,0
167.71524,167.81729,41,71,0
167.81729,167.91933,47,65,0
167.91933,168.02136,50,66,0
168.02136,168.12341,53,66,0
168.12341,168.22275,53,71,0
168.22275,168.32208,59,65,0
168.32208,168.42142,62,65,0
168.42142,168.54,65,65,0
168.54,168.641,42,71,0
168.641,168.74202,48,64,0
168.74202,168.84303,51,64,0
168.84303,168.94405,54,64,0
168.94405,169.04305,54,71,0
169.04305,169.14206,60,66,0
169.14206,169.24107,63,66,0
169.24107,169.35965,66,66,0
169.35965,169.46031,43,71,0
169.46031,169.56099,49,65,0
169.56099,169.66167,52,66,0
169.66167,169.76233,55,66,0
169.76233,169.862,55,71,0
169.862,169.96167,61,65,0
169.96167,170.06134,64,65,0
170.06134,170.17992,67,65,0
170.17992,170.28058,44,63,0
170.28058,170.38126,50,57,0
170.38126,170.48192,53,58,0
170.48192,170.5826,56,58,0
170.5826,170.68161,57,66,0
170.68161,170.78061,63,62,0
170.78061,170.87962,66,62,0
170.87962,170.9982,69,63,0
170.9982,171.09888,46,68,0
171.09888,171.19954,52,63,0
171.19954,171.30022,55,65,0
171.30022,171.4009,58,66,0
171.4009,171.50023,59,71,0
171.50023,171.59956,65,66,0
171.59956,171.6989,68,66,0
171.6989,171.80528,71,67,0
171.80528,171.90562,48,74,0
171.90562,172.00595,54,67,0
172.00595,172.1063,57,67,0
172.1063,172.20662,60,68,0
172.20662,172.30867,49,76,0
172.30867,172.4107,55,71,0
172.4107,172.51274,58,72,0
172.51274,172.61479,61,73,0
172.61479,172.71614,50,79,0
172.71614,172.81749,56,73,0
172.81749,172.91884,59,75,0
172.91884,173.02019,62,75,0
173.02019,173.12189,65,82,0
173.12189,173.22359,59,76,0
173.22359,173.32527,62,76,0
173.32527,173.44385,65,77,0
173.44385,173.88829,68,78,0
173.44385,173.88829,56,65,0
174.33273,174.77719,69,78,0
174.33273,174.77719,57,65,0
175.22163,175.66608,53,78,0
175.22163,175.66608,41,65,0
175.22163,175.66608,45,65,0
175.22163,175.66608,50,65,0
176.11052,176.55496,55,78,0
176.11052,176.55496,43,65,0
176.11052,176.55496,47,65,0
176.11052,176.55496,50,65,0
176.9994,177.10617,36,32,0
177.10617,177.21292,48,26,0
177.21292,177.31969,43,26,0
177.31969,177.42645,48,26,0
177.42645,177.53098,44,32,0
177.53098,177.63551,51,26,0
177.63551,177.74004,48,25,0
177.74004,177.84457,51,25,0
177.84457,177.9491,43,32,0
177.9491,178.05363,52,26,0
178.05363,178.15816,48,26,0
178.15816,178.26268,52,27,0
178.26268,178.36795,43,33,0
178.36795,178.4732,53,27,0
178.4732,178.57848,50,27,0
178.57848,178.68375,53,27,0
178.68375,178.78613,48,33,0
178.78613,178.88852,55,27,0
178.88852,178.9909,52,27,0
178.9909,179.09329,55,27,0
179.09329,179.19568,44,33,0
179.19568,179.29808,54,27,0
179.29808,179.40047,51,26,0
179.40047,179.50285,54,26,0
179.50285,179.60524,43,34,0
179.60524,179.70763,55,27,0
179.70763,179.81001,52,28,0
179.70763,179.81001,48,28,0
179.81001,179.91241,55,29,0
179.91241,180.01657,43,35,0
180.01657,180.12074,55,28,0
180.12074,180.22491,50,28,0
180.12074,180.22491,47,28,0
180.22491,180.32907,55,28,0
180.32907,180.43434,48,41,0
180.43434,180.5396,60,33,0
180.5396,180.64487,55,33,0
180.64487,180.75012,60,33,0
180.75012,180.85287,56,42,0
180.85287,180.95561,63,34,0
180.95561,181.05835,60,33,0
181.05835,181.16109,63,33,0
181.16109,181.26382,55,43,0
181.26382,181.36656,64,35,0
181.36656,181.4693,60,35,0
181.4693,181.57205,64,37,0
181.57205,181.67694,55,46,0
181.67694,181.78183,65,36,0
181.78183,181.88673,62,37,0
181.88673,181.99162,65,37,0
181.99162,182.09436,60,47,0
182.09436,182.1971,67,37,0
182.1971,182.29985,64,38,0
182.29985,182.40259,67,38,0
182.40259,182.50533,56,48,0
182.50533,182.60806,66,39,0
182.60806,182.7108,63,38,0
182.7108,182.81354,66,38,0
182.81354,182.91629,55,50,0
182.91629,183.01903,67,40,0
183.01903,183.12177,64,40,0
183.01903,183.12177,60,40,0
183.12177,183.2245,67,42,0
183.2245,183.32903,55,52,0
183.32903,183.43356,67,41,0
183.43356,183.53809,62,42,0
183.43356,183.53809,59,42,0
183.53809,183.64262,67,42,0
183.64262,183.74571,60,49,0
183.74571,183.8488,72,39,0
183.8488,183.9519,67,39,0
183.9519,184.055,72,40,0
184.055,184.15634,68,50,0
184.15634,184.25769,75,40,0
184.25769,184.35904,72,40,0
184.35904,184.4604,75,40,0
184.4604,184.56175,67,52,0
184.56175,184.6631,76,42,0
184.6631,184.76445,72,42,0
184.76445,184.8658,76,44,0
184.8658,184.96889,67,55,0
184.96889,185.07199,74,43,0
185.07199,185.17508,71,43,0
185.17508,185.27817,74,44,0
185.27817,185.37885,55,60,0
185.37885,185.4795,67,48,0
185.4795,185.58018,64,48,0
185.4795,185.58018,60,48,0
185.58018,185.68086,67,49,0
185.68086,185.77986,55,62,0
185.77986,185.87888,67,50,0
185.87888,185.97789,62,49,0
185.87888,185.97789,59,49,0
185.97789,186.0769,67,52,0
186.0769,186.1759,43,67,0
186.1759,186.27492,55,55,0
186.27492,186.37393,52,55,0
186.27492,186.37393,48,55,0
186.37393,186.47293,55,57,0
186.47293,186.57361,43,73,0
186.57361,186.67429,55,58,0
186.67429,186.77495,50,58,0
186.67429,186.77495,47,58,0
186.77495,186.87563,55,60,0
186.87563,187.0789,48,76,0
186.87563,187.0789,36,64,0
187.0789,187.28137,43,70,0
187.0789,187.28137,31,58,0
187.28137,187.483,48,79,0
187.28137,187.483,36,66,0
187.483,187.68384,43,73,0
187.483,187.68384,31,60,0
187.68384,187.8866,48,81,0
187.68384,187.8866,36,69,0
187.8866,188.0935,43,75,0
187.8866,188.0935,31,63,0
188.0935,188.30643,48,85,0
188.0935,188.30643,36,71,0
188.30643,188.52815,43,76,0
188.30643,188.52815,31,64,0
188.52815,188.63844,48,90,0
188.52815,188.63844,36,68,0
188.52815,188.63844,40,76,0
188.52815,188.63844,43,76,0
188.74873,188.85078,72,68,0
188.85078,188.9527,67,67,0
188.9527,189.0544,64,65,0
189.0544,189.15587,60,64,0
189.15587,189.25722,55,63,0
189.25722,189.35823,52,63,0
189.35823,189.45901,48,60,0
189.45901,189.56013,43,61,0
189.56013,189.66171,48,62,0
189.66171,189.76387,52,63,0
189.76387,189.86638,55,64,0
189.86638,189.96983,60,65,0
189.96983,190.07436,64,66,0
190.07436,190.18,67,67,0
190.18,190.29028,72,80,0
190.18,190.29028,60,68,0
190.18,190.29028,64,68,0
190.18,190.29028,67,68,0
190.40057,190.50262,76,68,0
190.50262,190.60443,72,67,0
190.60443,190.70601,67,65,0
190.70601,190.80725,64,64,0
190.80725,190.90826,60,63,0
190.90826,191.00893,55,63,0
191.00893,191.10938,52,60,0
191.10938,191.21028,48,61,0
191.21028,191.31174,52,62,0
191.31174,191.41367,55,63,0
191.41367,191.51617,60,64,0
191.51617,191.61961,64,65,0
191.61961,191.72415,67,66,0
191.72415,191.82979,72,67,0
191.82979,191.94008,76,80,0
191.82979,191.94008,64,68,0
191.82979,191.94008,67,68,0
191.82979,191.94008,72,68,0
192.05037,192.15242,79,68,0
192.15242,192.25423,76,67,0
192.25423,192.3557,72,65,0
192.3557,192.45692,67,64,0
192.45692,192.55783,64,63,0
192.55783,192.65839,60,63,0
192.65839,192.75883,55,60,0
192.75883,192.85973,52,61,0
192.85973,192.96097,55,62,0
192.96097,193.06267,60,63,0
193.06267,193.16481,64,64,0
193.16481,193.26767,67,65,0
193.26767,193.37209,72,66,0
193.37209,193.48016,76,67,0
193.48016,193.59045,79,80,0
193.48016,193.59045,67,68,0
193.48016,193.59045,72,68,0
193.48016,193.59045,76,68,0
193.70074,193.80313,84,68,0
193.80313,193.90529,79,67,0
193.90529,194.00711,76,65,0
194.00711,194.10869,72,64,0
194.10869,194.20992,67,63,0
194.20992,194.31082,64,63,0
194.31082,194.4116,60,60,0
194.4116,194.51273,55,61,0
194.51273,194.6142,60,62,0
194.6142,194.716,64,63,0
194.716,194.81816,67,64,0
194.81816,194.92125,72,65,0
194.92125,195.02652,76,66,0
195.02652,195.13405,79,67,0
195.13405,195.24855,84,80,0
195.13405,195.24855,72,68,0
195.13405,195.24855,76,68,0
195.13405,195.24855,79,68,0
195.36307,195.46545,60,73,0
195.46545,195.56761,55,71,0
195.56761,195.66953,52,69,0
195.66953,195.77112,48,67,0
195.77112,195.87247,43,65,0
195.87247,195.97348,40,63,0
195.97348,196.07414,36,60,0
196.07414,196.17526,31,61,0
196.17526,196.27686,36,62,0
196.27686,196.37901,40,63,0
196.37901,196.48175,43,64,0
196.48175,196.58496,48,65,0
196.58496,196.69023,52,66,0
196.69023,196.79776,55,67,0
196.79776,197.23412,60,84,0
196.79776,197.23412,48,71,0
196.79776,197.23412,52,71,0
196.79776,197.23412,55,71,0
197.67049,198.10684,55,84,0
197.67049,198.10684,43,71,0
197.67049,198.10684,47,71,0
197.67049,198.10684,50,71,0
198.54321,198.97958,60,84,0
198.54321,198.97958,48,71,0
198.54321,198.97958,52,71,0
198.54321,198.97958,55,71,0
199.41594,199.85231,55,84,0
199.41594,199.85231,43,71,0
199.41594,199.85231,47,71,0
199.41594,199.85231,50,71,0
200.28716,200.39131,48,45,0
200.39131,200.49477,60,48,0
200.49477,200.5975,48,43,0
200.49477,200.5975,51,43,0
200.49477,200.5975,54,50,0
200.5975,200.69954,60,53,0
200.69954,200.80101,55,55,0
200.69954,200.80101,52,47,0
200.69954,200.80101,48,47,0
200.80101,200.90271,60,59,0
200.90271,201.00441,48,52,0
200.90271,201.00441,51,52,0
200.90271,201.00441,54,62,0
201.00441,201.10599,60,64,0
201.10599,201.2078,55,66,0
201.10599,201.2078,52,56,0
201.10599,201.2078,48,56,0
201.2078,201.31018,60,70,0
201.31018,201.41316,48,61,0
201.31018,201.41316,51,61,0
201.31018,201.41316,54,73,0
201.41316,201.51614,60,75,0
201.51614,201.62103,55,76,0
201.51614,201.62103,52,65,0
201.51614,201.62103,48,65,0
201.62103,201.72768,60,74,0
201.72768,201.8377,48,60,0
201.72768,201.8377,51,60,0
201.72768,201.8377,54,72,0
201.8377,201.94928,60,70,0
201.94928,202.42358,60,77,0
201.94928,202.42358,48,64,0
201.94928,202.42358,52,64,0
201.94928,202.42358,55,64,0
202.89789,203.42653,72,84,0
202.89789,203.42653,60,71,0
202.89789,203.42653,64,71,0
202.89789,203.42653,67,71,0
203.95515,205.01244,48,84,0
203.95515,205.01244,36,71,0
203.95515,205.01244,40,71,0
203.95515,205.01244,43,71,0
