start_time,end_time,note_value,velocity,instrument_program_number
0.0010443645,1.00363,69,50,0
1.00259,2.00101,76,50,0
2.00101,2.971256,75,53,0
2.971256,3.176696,76,47,0
3.464312,3.8614423,72,49,0
3.8399277,3.9891477,71,47,0
3.9690156,4.9353557,69,48,0
4.9353557,5.9379454,59,56,0
4.9353557,5.9379454,64,56,0
4.9353557,5.9379454,56,56,0
5.9379454,6.9204254,60,52,0
6.9204254,7.110347,57,51,0
7.9333396,8.935929,57,50,0
8.935929,9.906176,65,59,0
8.935929,9.906176,57,59,0
9.906176,10.832959,67,64,0
9.906176,10.832959,58,64,0
10.832959,11.041832,57,54,0
10.832959,11.041832,65,54,0
11.329146,11.72274,57,51,0
11.70159,11.849037,59,54,0
11.828493,12.814605,60,52,0
12.814605,13.817195,56,54,0
12.814605,13.817195,59,54,0
12.814605,13.817195,64,54,0
12.814605,13.817195,52,54,0
13.817195,14.799675,48,50,0
13.817195,14.799675,60,50,0
14.799675,15.012586,57,50,0
14.799675,15.012586,45,50,0
19.269876,20.223127,57,52,0
20.223127,20.699318,62,46,0
20.699318,21.17035,64,49,0
21.17035,21.649239,65,47,0
21.649239,22.567652,64,50,0
22.567652,22.770607,57,46,0
23.054745,23.528416,67,44,0
23.528416,24.426285,65,47,0
24.426285,24.631723,57,48,0
24.91934,25.380878,65,45,0
25.380878,26.278746,64,50,0
26.278746,26.480066,57,48,0
26.761915,27.216478,57,56,0
26.761915,27.687466,69,56,0
27.687466,28.143185,74,56,0
27.687466,28.143185,62,56,0
28.143185,28.612265,64,59,0
28.143185,28.612265,76,59,0
28.612265,29.085226,77,54,0
28.612265,29.085226,65,54,0
29.085226,29.979681,76,59,0
29.085226,29.979681,64,59,0
29.979681,30.177044,69,56,0
29.979681,30.177044,57,56,0
30.453354,31.371784,64,69,0
30.453354,31.371784,76,69,0
31.371784,31.820719,79,74,0
31.371784,31.820719,67,74,0
31.820719,32.28703,81,79,0
31.820719,32.28703,69,79,0
32.28703,32.76447,83,77,0
32.28703,32.76447,71,77,0
32.76447,33.65747,83,85,0
32.76447,33.65747,71,85,0
33.73865,34.60705,71,81,0
33.73865,34.60705,83,81,0
34.685997,35.61278,79,63,0
34.685997,35.61278,67,63,0
35.61278,35.815735,76,53,0
35.61278,35.815735,64,53,0
36.586964,37.476357,71,41,0
36.586964,37.476357,59,41,0
37.557213,38.42898,59,37,0
37.557213,38.42898,71,37,0
38.508232,39.446392,67,37,0
38.508232,39.446392,55,37,0
39.446392,39.647713,64,33,0
39.446392,39.647713,52,33,0
40.41273,41.275112,67,37,0
40.41273,41.275112,55,37,0
41.275112,41.402332,64,33,0
41.275112,41.402332,52,33,0
42.14944,43.006355,53,45,0
42.14944,43.006355,65,45,0
43.006355,43.134544,50,40,0
43.006355,43.134544,62,40,0
43.88399,44.738148,52,56,0
43.88399,44.738148,64,56,0
44.738148,44.86688,60,51,0
44.738148,44.86688,48,51,0
45.628212,46.518578,62,73,0
45.628212,46.518578,50,73,0
46.518578,46.6541,47,69,0
46.518578,46.6541,59,69,0
47.528004,48.539043,69,95,0
47.528004,48.539043,57,95,0
48.539043,49.537464,76,91,0
48.539043,49.537464,64,91,0
49.537464,50.489845,75,88,0
49.537464,50.489845,63,88,0
50.489845,50.74049,64,81,0
50.489845,50.74049,76,81,0
50.99114,51.224747,64,78,0
50.99114,51.224747,72,78,0
51.341553,51.427395,71,73,0
51.341553,51.427395,64,63,0
51.456013,51.688824,69,80,0
51.456013,51.688824,64,67,0
51.80523,51.89107,67,73,0
51.80523,51.89107,62,63,0
51.91969,52.151493,60,63,0
51.91969,52.151493,65,72,0
52.267395,52.352894,59,58,0
52.267395,52.352894,64,70,0
52.381393,52.613197,65,74,0
52.381393,52.613197,60,74,0
52.7291,52.814598,64,70,0
52.7291,52.814598,59,57,0
52.843098,53.073917,62,75,0
52.843098,53.073917,57,64,0
53.18933,53.274494,55,58,0
53.18933,53.274494,61,70,0
53.30288,53.532696,62,76,0
53.30288,53.532696,57,76,0
53.647602,53.73243,64,73,0
53.647602,53.73243,59,63,0
53.760708,53.98956,65,77,0
53.760708,53.98956,60,77,0
54.103985,54.188145,68,73,0
54.103985,54.188145,62,63,0
54.2162,54.44505,64,81,0
54.2162,54.44505,69,81,0
54.559475,54.642982,71,80,0
54.559475,54.642982,64,67,0
54.67082,54.801083,69,86,0
54.67082,54.801083,64,71,0
55.191875,56.215767,57,97,0
56.215767,57.218357,65,85,0
56.215767,57.218357,69,85,0
56.215767,57.218357,57,85,0
57.218357,58.174534,67,90,0
57.218357,58.174534,58,90,0
57.218357,58.174534,70,90,0
58.174534,58.431602,57,80,0
58.174534,58.431602,69,80,0
58.174534,58.431602,65,80,0
58.68867,58.922188,77,89,0
58.68867,58.922188,69,73,0
59.038948,59.124447,76,84,0
59.038948,59.124447,69,70,0
59.152946,59.384678,69,67,0
59.152946,59.384678,74,80,0
59.500546,59.585037,72,73,0
59.500546,59.585037,67,63,0
59.6132,59.844933,70,72,0
59.6132,59.844933,65,63,0
59.960796,60.04596,69,70,0
59.960796,60.04596,64,58,0
60.07435,60.30411,65,64,0
60.07435,60.30411,70,75,0
60.41899,60.502823,69,70,0
60.41899,60.502823,64,57,0
60.530766,60.75953,67,74,0
60.530766,60.75953,62,74,0
60.87391,60.958073,66,70,0
60.87391,60.958073,60,58,0
60.986126,61.21297,67,77,0
60.986126,61.21297,62,77,0
61.32639,61.409252,64,63,0
61.32639,61.409252,69,73,0
61.43687,61.660885,70,78,0
61.43687,61.660885,65,78,0
61.772892,61.8569,73,73,0
61.772892,61.8569,67,63,0
61.8849,62.108913,74,84,0
61.8849,62.108913,69,70,0
62.22092,62.304928,69,67,0
62.22092,62.304928,76,80,0
62.332928,62.459034,74,86,0
62.332928,62.459034,69,71,0
66.26165,66.7418,62,83,0
66.26165,67.21849,74,93,0
67.21849,67.68908,79,89,0
67.21849,67.68908,67,80,0
67.68908,68.15816,81,94,0
67.68908,68.15816,69,84,0
68.15816,68.62087,82,89,0
68.15816,68.62087,70,80,0
68.62087,69.50877,81,93,0
68.62087,69.50877,69,83,0
69.50877,69.7069,74,85,0
69.50877,69.7069,62,76,0
69.98428,70.4598,84,97,0
69.98428,70.4598,72,87,0
70.4598,71.3477,82,97,0
70.4598,71.3477,70,87,0
71.3477,71.54583,62,82,0
71.3477,71.54583,74,92,0
71.82321,72.29314,82,97,0
71.82321,72.29314,70,87,0
72.29314,73.18104,81,92,0
72.29314,73.18104,69,82,0
73.18104,73.379974,74,84,0
73.18104,73.379974,62,75,0
73.65848,74.593,62,87,0
73.65848,74.593,74,97,0
74.593,75.04359,79,91,0
74.593,75.04359,67,81,0
75.04359,75.50143,81,96,0
75.04359,75.50143,69,86,0
75.50143,75.965675,82,93,0
75.50143,75.965675,70,83,0
75.965675,76.843834,81,98,0
75.965675,76.843834,69,88,0
76.843834,77.038124,62,75,0
76.843834,77.038124,74,84,0
77.31014,78.22498,81,94,0
77.31014,78.22498,69,84,0
78.22498,78.675606,72,85,0
78.22498,78.675606,84,95,0
78.675606,79.1316,86,104,0
78.675606,79.1316,74,93,0
79.1316,79.62466,76,90,0
79.1316,79.62466,88,101,0
79.62466,80.550735,76,97,0
79.62466,80.550735,88,108,0
80.590996,81.491684,88,94,0
80.590996,81.491684,76,84,0
81.530846,82.457634,72,86,0
81.530846,82.457634,84,96,0
82.457634,82.665634,69,72,0
82.457634,82.665634,81,81,0
83.456055,84.41287,76,48,0
83.456055,84.41287,64,48,0
84.45447,85.38429,64,48,0
84.45447,85.38429,76,48,0
85.42472,86.35908,72,45,0
85.42472,86.35908,60,45,0
86.35908,86.56121,69,41,0
86.35908,86.56121,57,41,0
87.32932,88.24501,70,34,0
87.32932,88.24501,58,34,0
88.24501,88.42459,55,25,0
88.24501,88.42459,67,25,0
89.20278,90.11847,70,31,0
89.20278,90.11847,58,31,0
90.11847,90.29657,67,25,0
90.11847,90.29657,55,25,0
91.06836,91.980354,70,31,0
91.06836,91.980354,58,31,0
91.980354,92.15482,67,24,0
91.980354,92.15482,55,24,0
92.91087,93.81212,58,34,0
92.91087,93.81212,70,34,0
93.81212,93.981094,67,29,0
93.81212,93.981094,55,29,0
94.713356,94.82269,59,80,0
94.82269,94.93167,71,76,0
94.93167,95.044044,59,72,0
95.044044,95.152855,71,67,0
95.152855,95.26174,59,63,0
95.26174,95.37261,71,60,0
95.37261,95.481575,59,57,0
95.481575,95.58934,71,54,0
95.58934,95.69875,59,60,0
95.69875,95.809074,71,57,0
95.809074,95.916176,59,55,0
95.916176,96.02582,71,52,0
96.02582,96.13616,59,58,0
96.13616,96.24219,71,56,0
96.24219,96.34989,59,54,0
96.34989,96.45938,71,51,0
96.45938,96.56562,56,80,0
96.56562,96.67208,68,75,0
96.67208,96.78119,56,69,0
96.78119,96.889175,68,65,0
96.889175,96.99673,56,61,0
96.99673,97.107834,68,60,0
97.107834,97.217575,56,59,0
97.217575,97.324974,68,58,0
97.324974,97.43371,56,69,0
97.43371,97.544266,68,68,0
97.544266,97.652565,56,66,0
97.652565,97.75947,68,63,0
97.75947,97.86691,56,73,0
97.86691,97.97502,68,70,0
97.97502,98.085144,56,67,0
98.085144,98.214195,68,64,0
98.214195,98.66129,71,99,0
98.214195,98.66129,83,99,0
98.66129,98.832985,80,90,0
98.66129,98.832985,68,90,0
99.11913,99.568,83,98,0
99.11913,99.568,71,98,0
99.568,99.74108,76,93,0
99.568,99.74108,88,93,0
100.02954,100.48875,83,95,0
100.02954,100.48875,71,95,0
100.48875,100.66497,80,90,0
100.48875,100.66497,68,90,0
100.95867,101.44975,64,90,0
100.95867,101.44975,76,90,0
101.44975,101.6882,71,81,0
101.44975,101.6882,59,81,0
102.08561,104.010544,56,34,0
102.08561,104.010544,64,34,0
102.08561,104.010544,68,34,0
104.010544,105.93529,63,38,0
104.010544,105.93529,71,38,0
104.010544,105.93529,57,38,0
105.93529,106.04049,59,93,0
106.04049,106.14568,71,87,0
106.14568,106.25088,59,81,0
106.25088,106.35608,71,75,0
106.35608,106.46127,56,91,0
106.46127,106.56647,68,86,0
106.56647,106.67167,56,81,0
106.67167,106.77686,68,75,0
106.77686,106.880165,59,84,0
106.880165,106.98346,71,80,0
106.98346,107.08676,59,77,0
107.08676,107.190056,71,73,0
107.190056,107.29336,64,88,0
107.29336,107.39665,76,85,0
107.39665,107.499954,64,83,0
107.499954,107.60276,76,80,0
107.60276,107.70569,68,91,0
107.70569,107.80838,80,88,0
107.80838,107.91082,68,86,0
107.91082,108.01301,80,83,0
108.01301,108.114845,71,94,0
108.114845,108.21644,83,91,0
108.21644,108.31779,71,88,0
108.31779,108.4189,83,84,0
108.4189,108.520874,76,102,0
108.520874,108.625435,88,96,0
108.625435,108.73038,76,90,0
108.73038,108.83811,88,84,0
108.83811,108.95165,71,82,0
108.95165,109.068695,83,71,0
109.068695,109.18857,71,68,0
109.18857,109.36112,83,64,0
109.36112,111.28481,56,39,0
109.36112,111.28481,64,39,0
109.36112,111.28481,68,39,0
111.28481,113.2085,63,47,0
111.28481,113.2085,57,47,0
111.28481,113.2085,71,47,0
113.2085,114.19394,64,40,0
113.2085,114.19394,56,34,0
114.236786,115.13653,64,30,0
114.236786,115.13653,56,26,0
115.26506,115.73596,64,39,0
115.26506,115.73596,56,39,0
115.74599,116.20721,56,34,0
115.74599,116.20721,68,34,0
116.21702,116.69408,66,38,0
116.21702,116.69408,56,38,0
116.70422,117.195076,68,35,0
116.70422,117.195076,56,35,0
117.20552,118.150314,61,39,0
117.20552,118.150314,57,39,0
118.19139,119.05403,61,28,0
118.19139,119.05403,57,28,0
119.17726,119.65216,57,38,0
119.17726,119.65216,61,38,0
119.66227,120.13506,66,31,0
119.66227,120.13506,57,31,0
119.66227,120.13506,59,31,0
120.14513,120.60627,59,37,0
120.14513,120.60627,57,37,0
120.14513,120.60627,64,37,0
120.61608,121.11325,59,29,0
120.61608,121.11325,57,29,0
120.61608,121.11325,66,29,0
121.123825,122.06862,56,36,0
121.123825,122.06862,59,36,0
122.109695,122.972336,64,29,0
122.109695,122.972336,56,24,0
123.095566,123.56844,64,46,0
123.095566,123.56844,56,46,0
123.57851,124.05145,68,38,0
123.57851,124.05145,56,38,0
124.061516,124.52657,56,46,0
124.061516,124.52657,66,46,0
124.53646,124.99377,68,39,0
124.53646,124.99377,56,39,0
125.0035,125.94829,69,46,0
125.0035,125.94829,64,46,0
125.0035,125.94829,57,46,0
125.98937,126.852005,69,38,0
125.98937,126.852005,64,38,0
125.98937,126.852005,57,38,0
126.97524,127.89549,73,51,0
126.97524,127.89549,61,51,0
126.97524,127.89549,69,51,0
127.935074,128.41406,61,50,0
127.935074,128.78035,73,50,0
127.935074,128.78035,69,50,0
128.90111,129.8459,76,40,0
128.90111,129.8459,68,34,0
128.90111,129.8459,64,34,0
129.88698,130.74358,76,31,0
129.88698,130.74358,64,26,0
129.88698,130.74358,68,26,0
130.86479,131.32594,78,38,0
130.86479,131.32594,69,38,0
130.86479,131.32594,63,38,0
131.33575,131.80478,75,31,0
131.33575,131.80478,69,31,0
131.33575,131.80478,66,31,0
131.81476,132.27206,71,36,0
131.81476,132.27206,66,36,0
132.2818,132.75075,69,31,0
132.2818,132.75075,64,31,0
132.76071,133.69386,68,35,0
132.76071,133.69386,64,29,0
133.73444,134.58047,68,23,0
133.73444,134.58047,64,19,0
134.70021,135.16136,69,37,0
134.70021,135.16136,78,37,0
134.70021,135.16136,63,37,0
135.17117,135.63814,66,30,0
135.17117,135.63814,69,30,0
135.17117,135.63814,75,30,0
135.64809,136.10724,71,35,0
135.64809,136.10724,66,35,0
136.11702,136.58398,69,30,0
136.11702,136.58398,64,30,0
136.59392,137.53094,64,29,0
136.59392,137.53094,68,35,0
137.57169,138.42722,68,23,0
137.57169,138.42722,64,19,0
138.54944,139.0164,64,35,0
139.02634,139.5034,68,31,0
139.02634,139.5034,64,26,0
139.51355,139.9825,66,35,0
139.51355,139.9825,64,29,0
139.99248,140.49185,64,27,0
139.99248,140.49185,68,33,0
140.50247,141.43948,71,34,0
140.50247,141.43948,64,28,0
141.48022,141.71973,70,24,0
141.48022,141.71973,64,18,0
142.43823,143.34517,76,44,0
142.43823,143.34517,83,44,0
142.43823,143.34517,88,44,0
143.3846,143.8082,76,27,0
143.3846,143.8082,88,27,0
143.3846,143.8082,81,27,0
144.30882,145.21576,64,34,0
144.30882,145.21576,69,34,0
145.25519,145.69781,68,24,0
145.25519,145.69781,64,24,0
146.22092,147.15405,76,42,0
146.22092,147.15405,81,42,0
146.22092,147.15405,88,42,0
147.19463,147.6409,88,26,0
147.19463,147.6409,79,26,0
147.19463,147.6409,76,26,0
148.16833,149.10147,66,88,0
148.16833,149.10147,64,88,0
148.16833,149.10147,60,70,0
148.16833,149.10147,54,70,0
149.14204,149.58832,66,69,0
149.14204,149.58832,64,69,0
149.14204,149.58832,60,55,0
149.14204,149.58832,54,55,0
150.11575,150.5749,78,55,0
150.11575,150.5749,73,46,0
150.11575,150.5749,76,46,0
150.58469,151.04199,80,46,0
150.58469,151.04199,76,37,0
150.58469,151.04199,71,37,0
151.05171,151.50153,81,50,0
151.05171,151.50153,76,42,0
151.05171,151.50153,69,42,0
151.5111,151.99179,80,46,0
151.5111,151.99179,71,37,0
151.5111,151.99179,76,37,0
152.00201,152.92378,83,50,0
152.00201,152.92378,71,50,0
152.00201,152.92378,76,50,0
152.96387,153.40471,75,33,0
152.96387,153.40471,83,26,0
152.96387,153.40471,71,26,0
153.93517,154.84167,68,37,0
153.93517,154.84167,64,30,0
154.88109,155.31464,68,23,0
154.88109,155.31464,64,23,0
155.84529,156.75937,60,72,0
155.84529,156.75937,54,72,0
155.84529,156.75937,66,91,0
155.84529,156.75937,64,91,0
156.79912,157.22772,66,67,0
156.79912,157.22772,60,52,0
156.79912,157.22772,54,52,0
156.79912,157.22772,64,67,0
157.73427,158.19211,78,55,0
157.73427,158.19211,76,46,0
157.73427,158.19211,73,46,0
158.20186,158.66301,76,41,0
158.20186,158.66301,71,41,0
158.20186,158.66301,80,49,0
158.67282,159.1245,69,44,0
158.67282,159.1245,76,44,0
158.67282,159.1245,81,53,0
159.13411,159.61678,80,47,0
159.13411,159.61678,76,39,0
159.13411,159.61678,71,39,0
159.62704,160.56018,71,42,0
159.62704,160.56018,76,50,0
159.62704,160.56018,83,50,0
160.60075,161.04703,71,26,0
160.60075,161.04703,83,27,0
160.60075,161.04703,75,33,0
161.57446,162.5076,52,103,0
161.57446,162.5076,64,103,0
162.54817,162.99445,64,66,0
162.54817,162.99445,52,47,0
163.52188,163.9881,59,36,0
163.52188,163.9881,56,36,0
163.99799,164.45715,56,30,0
163.99799,164.45715,68,30,0
164.46692,164.92232,66,37,0
164.46692,164.92232,56,37,0
164.932,165.42708,68,30,0
164.932,165.42708,56,30,0
165.4376,166.3233,60,24,0
165.4376,166.3233,71,39,0
165.4376,166.3233,68,39,0
166.36182,166.59938,69,23,0
166.36182,166.59938,60,22,0
166.36182,166.59938,66,23,0
167.31209,168.20828,59,29,0
167.31209,168.20828,71,39,0
167.31209,168.20828,68,39,0
168.24725,168.49168,69,23,0
168.24725,168.49168,66,23,0
168.24725,168.49168,59,19,0
169.225,170.13531,64,103,0
169.225,170.13531,76,103,0
170.1749,170.62137,64,60,0
170.1749,170.62137,76,68,0
171.149,171.61598,56,38,0
171.149,171.61598,59,38,0
171.62592,172.08707,68,31,0
171.62592,172.08707,56,31,0
172.09688,172.55226,66,38,0
172.09688,172.55226,56,38,0
172.56195,173.05702,68,31,0
172.56195,173.05702,56,31,0
173.06757,173.93771,73,44,0
173.06757,173.93771,61,37,0
173.06757,173.93771,69,44,0
173.97556,174.20961,69,26,0
173.97556,174.20961,66,26,0
173.97556,174.20961,61,23,0
174.9118,175.78197,59,35,0
174.9118,175.78197,71,41,0
174.9118,175.78197,68,41,0
175.8198,176.05087,69,29,0
175.8198,176.05087,59,27,0
175.8198,176.05087,66,29,0
176.74234,177.59926,59,35,0
176.74234,177.59926,69,41,0
176.74234,177.59926,64,35,0
177.63652,177.85687,64,26,0
177.63652,177.85687,59,26,0
177.63652,177.85687,67,29,0
178.5179,179.37823,60,36,0
178.5179,179.37823,67,42,0
178.5179,179.37823,57,36,0
179.41563,179.6349,65,29,0
179.41563,179.6349,57,27,0
179.41563,179.6349,60,26,0
180.2927,181.15315,60,36,0
180.2927,181.15315,65,42,0
180.2927,181.15315,55,36,0
181.19057,181.41588,55,26,0
181.19057,181.41588,60,26,0
181.19057,181.41588,64,29,0
182.09181,182.95227,53,36,0
182.09181,182.95227,57,36,0
182.09181,182.95227,64,42,0
182.98967,183.21414,53,25,0
182.98967,183.21414,57,25,0
182.98967,183.21414,62,29,0
183.88754,184.78479,57,35,0
183.88754,184.78479,62,41,0
183.88754,184.78479,52,35,0
184.82379,185.06636,57,24,0
184.82379,185.06636,60,29,0
189.58412,190.51772,57,29,0
189.58412,190.51772,59,41,0
190.5583,190.99596,56,29,0
190.5583,190.99596,59,29,0
195.36835,196.37094,69,50,0
196.37094,197.36937,76,50,0
197.36937,198.33961,75,53,0
198.33961,198.54504,76,47,0
198.83267,199.22774,72,49,0
199.20663,199.35304,71,47,0
199.33325,200.28314,69,48,0
200.28314,201.28574,64,59,0
200.28314,201.28574,59,59,0
200.28314,201.28574,56,59,0
201.28574,202.2682,60,52,0
202.2682,202.45813,57,51,0
203.28113,204.2837,57,50,0
204.2837,205.25397,65,63,0
204.2837,205.25397,57,63,0
205.25397,206.18074,67,70,0
205.25397,206.18074,58,70,0
206.18074,206.38962,65,54,0
206.18074,206.38962,57,54,0
206.67693,207.07053,57,51,0
207.04938,207.19656,59,54,0
207.17628,208.15039,60,52,0
208.15039,209.15297,64,62,0
208.15039,209.15297,52,62,0
208.15039,209.15297,56,62,0
208.15039,209.15297,59,62,0
209.15297,210.13545,60,50,0
209.15297,210.13545,48,50,0
210.13545,210.34836,57,50,0
210.13545,210.34836,45,50,0
214.60565,215.5547,57,52,0
215.5547,216.02101,62,46,0
216.02101,216.49397,64,49,0
216.49397,216.97287,65,47,0
216.97287,217.89128,64,50,0
217.89128,218.09424,57,46,0
218.37837,218.85725,67,47,0
218.85725,219.75513,65,47,0
219.75513,219.96057,57,48,0
220.24818,220.71536,65,45,0
220.71536,221.61324,64,50,0
221.61324,221.81456,57,48,0
222.0964,222.55096,57,56,0
222.0964,223.01721,69,56,0
223.01721,223.47293,74,57,0
223.01721,223.47293,62,57,0
223.47293,223.94202,76,60,0
223.47293,223.94202,64,60,0
223.94202,224.41498,77,56,0
223.94202,224.41498,65,56,0
224.41498,225.30943,76,60,0
224.41498,225.30943,64,60,0
225.30943,225.50679,69,56,0
225.30943,225.50679,57,56,0
225.78311,226.69644,76,68,0
225.78311,226.69644,64,68,0
226.69644,227.14537,79,74,0
226.69644,227.14537,67,74,0
227.14537,227.60876,81,77,0
227.14537,227.60876,69,77,0
227.60876,228.08765,83,73,0
227.60876,228.08765,71,73,0
228.08765,228.98065,83,85,0
228.08765,228.98065,71,85,0
229.06184,229.93024,83,71,0
229.06184,229.93024,71,71,0
230.00919,230.93596,79,57,0
230.00919,230.93596,67,57,0
230.93596,231.13892,76,53,0
230.93596,231.13892,64,53,0
231.91014,232.79955,71,41,0
231.91014,232.79955,59,41,0
232.8804,233.75217,71,37,0
232.8804,233.75217,59,37,0
233.83142,234.76958,67,37,0
233.83142,234.76958,55,37,0
234.76958,234.9709,64,33,0
234.76958,234.9709,52,33,0
235.73592,236.5983,67,37,0
235.73592,236.5983,55,37,0
236.5983,236.70732,64,33,0
236.5983,236.70732,52,33,0
237.47263,238.32954,53,48,0
237.47263,238.32954,65,48,0
238.32954,238.43973,62,43,0
238.32954,238.43973,50,43,0
239.20717,240.06133,52,58,0
239.20717,240.06133,64,58,0
240.06133,240.17126,60,50,0
240.06133,240.17126,48,50,0
240.9514,241.84177,62,73,0
240.9514,241.84177,50,73,0
241.84177,241.95786,59,67,0
241.84177,241.95786,47,67,0
242.8512,243.86223,69,98,0
242.8512,243.86223,57,98,0
243.86223,244.86064,76,88,0
243.86223,244.86064,64,88,0
244.86064,245.81682,75,84,0
244.86064,245.81682,63,84,0
245.81682,246.06564,64,77,0
245.81682,246.06564,76,77,0
246.31445,246.54616,72,80,0
246.31445,246.54616,64,67,0
246.662,246.74716,71,73,0
246.662,246.74716,64,63,0
246.77556,247.00725,69,80,0
246.77556,247.00725,64,67,0
247.1231,247.2076,67,73,0
247.1231,247.2076,62,63,0
247.23575,247.46652,65,72,0
247.23575,247.46652,60,63,0
247.58191,247.66673,64,70,0
247.58191,247.66673,59,58,0
247.695,247.9251,65,75,0
247.695,247.9251,60,64,0
248.04001,248.1245,64,70,0
248.04001,248.1245,59,57,0
248.15266,248.38301,62,75,0
248.15266,248.38301,57,64,0
248.49818,248.58234,61,70,0
248.49818,248.58234,55,58,0
248.6104,248.83931,62,78,0
248.6104,248.83931,57,78,0
248.95378,249.03761,64,73,0
248.95378,249.03761,59,63,0
249.06555,249.29265,65,78,0
249.06555,249.29265,60,78,0
249.4062,249.49004,68,73,0
249.4062,249.49004,62,63,0
249.51797,249.74419,69,84,0
249.51797,249.74419,64,70,0
249.85728,249.94112,71,80,0
249.85728,249.94112,64,67,0
249.96906,250.09906,69,86,0
249.96906,250.09906,64,71,0
250.48904,251.50642,57,97,0
251.50642,252.48053,69,85,0
251.50642,252.48053,65,85,0
251.50642,252.48053,57,85,0
252.48053,253.43042,70,90,0
252.48053,253.43042,58,90,0
252.48053,253.43042,67,90,0
253.43042,253.68748,65,80,0
253.43042,253.68748,69,80,0
253.43042,253.68748,57,80,0
253.94455,254.17532,77,89,0
253.94455,254.17532,69,73,0
254.29071,254.3752,76,84,0
254.29071,254.3752,69,70,0
254.40337,254.6332,74,80,0
254.40337,254.6332,69,67,0
254.74811,254.83261,72,73,0
254.74811,254.83261,67,63,0
254.86076,255.08969,70,72,0
254.86076,255.08969,65,63,0
255.20415,255.28798,69,70,0
255.20415,255.28798,64,58,0
255.31592,255.54391,70,73,0
255.31592,255.54391,65,73,0
255.65791,255.74142,69,70,0
255.65791,255.74142,64,57,0
255.76926,255.99637,67,72,0
255.76926,255.99637,62,72,0
256.10992,256.19342,66,70,0
256.10992,256.19342,60,58,0
256.22125,256.44745,67,76,0
256.22125,256.44745,62,76,0
256.56058,256.6454,69,73,0
256.56058,256.6454,64,63,0
256.67368,256.8976,70,77,0
256.67368,256.8976,65,77,0
257.00958,257.09213,73,73,0
257.00958,257.09213,67,63,0
257.11966,257.3436,74,79,0
257.11966,257.3436,69,79,0
257.45557,257.5378,76,80,0
257.45557,257.5378,69,67,0
257.56522,257.69128,74,86,0
257.56522,257.69128,69,71,0
261.4813,262.42728,74,93,0
261.4813,262.42728,62,83,0
262.42728,262.88882,79,89,0
262.42728,262.88882,67,80,0
262.88882,263.356,81,94,0
262.88882,263.356,69,84,0
263.356,263.82895,82,91,0
263.356,263.82895,70,81,0
263.82895,264.71686,81,93,0
263.82895,264.71686,69,83,0
264.71686,264.91498,74,85,0
264.71686,264.91498,62,76,0
265.19235,265.66788,84,97,0
265.19235,265.66788,72,87,0
265.66788,266.5558,82,97,0
265.66788,266.5558,70,87,0
266.5558,266.7539,74,92,0
266.5558,266.7539,62,82,0
267.03128,267.50122,82,97,0
267.03128,267.50122,70,87,0
267.50122,268.38913,81,92,0
267.50122,268.38913,69,82,0
268.38913,268.58804,74,84,0
268.38913,268.58804,62,75,0
268.86655,269.8011,74,97,0
268.86655,269.8011,62,87,0
269.8011,270.25168,79,92,0
269.8011,270.25168,67,82,0
270.25168,270.7095,81,97,0
270.25168,270.7095,69,87,0
270.7095,271.17487,82,92,0
270.7095,271.17487,70,82,0
271.17487,272.053,81,99,0
271.17487,272.053,69,89,0
272.053,272.2473,74,84,0
272.053,272.2473,62,75,0
272.51932,273.43094,81,95,0
272.51932,273.43094,69,85,0
273.43094,273.88693,72,82,0
273.43094,273.88693,84,92,0
273.88693,274.34293,86,102,0
273.88693,274.34293,74,91,0
274.34293,274.836,88,105,0
274.34293,274.836,76,94,0
274.836,275.76205,76,96,0
274.836,275.76205,88,107,0
275.80234,276.70883,88,94,0
275.80234,276.70883,76,84,0
276.74826,277.67505,72,80,0
276.74826,277.67505,84,89,0
277.67505,277.88303,69,72,0
277.67505,277.88303,81,81,0
278.67346,279.63028,76,48,0
278.67346,279.63028,64,48,0
279.67188,280.60168,76,48,0
279.67188,280.60168,64,48,0
280.64212,281.57648,72,45,0
280.64212,281.57648,60,45,0
281.57648,281.7584,69,41,0
281.57648,281.7584,57,41,0
282.54672,283.4587,70,34,0
282.54672,283.4587,58,34,0
283.4587,283.63608,67,25,0
283.4587,283.63608,55,25,0
284.40463,285.31665,70,31,0
284.40463,285.31665,58,31,0
285.31665,285.49255,67,25,0
285.31665,285.49255,55,25,0
286.2548,287.1632,70,31,0
286.2548,287.1632,58,31,0
287.1632,287.33768,67,24,0
287.1632,287.33768,55,24,0
288.09372,288.97757,70,34,0
288.09372,288.97757,58,34,0
288.97757,289.14655,67,29,0
288.97757,289.14655,55,29,0
289.8788,289.98758,59,80,0
289.98758,290.09598,71,76,0
290.09598,290.20773,59,72,0
290.20773,290.31598,71,67,0
290.31598,290.4243,59,63,0
290.4243,290.53458,71,60,0
290.53458,290.64294,59,57,0
290.64294,290.75015,71,54,0
290.75015,290.85898,59,60,0
290.85898,290.96872,71,57,0
290.96872,291.07526,59,55,0
291.07526,291.1843,71,52,0
291.1843,291.29407,59,58,0
291.29407,291.39954,71,56,0
291.39954,291.50665,59,54,0
291.50665,291.61557,71,51,0
291.61557,291.72125,56,80,0
291.72125,291.82715,68,75,0
291.82715,291.93567,56,69,0
291.93567,292.0431,68,65,0
292.0431,292.15005,56,61,0
292.15005,292.2606,68,60,0
292.2606,292.36972,56,59,0
292.36972,292.47656,68,58,0
292.47656,292.58472,56,69,0
292.58472,292.6947,68,68,0
292.6947,292.8027,56,66,0
292.8027,292.91034,68,63,0
292.91034,293.01932,56,73,0
293.01932,293.1296,68,70,0
293.1296,293.24142,56,67,0
293.24142,293.36978,68,64,0
293.36978,293.81516,83,99,0
293.36978,293.81516,71,99,0
293.81516,293.98547,80,90,0
293.81516,293.98547,68,90,0
294.26935,294.71823,71,96,0
294.26935,294.71823,83,96,0
294.71823,294.892,76,90,0
294.71823,294.892,88,90,0
295.1816,295.64084,83,89,0
295.1816,295.64084,71,89,0
295.64084,295.81705,68,82,0
295.64084,295.81705,80,82,0
296.11075,296.60184,76,65,0
296.11075,296.60184,64,65,0
296.60184,296.80917,71,53,0
296.60184,296.80917,59,53,0
297.1548,299.0797,68,34,0
297.1548,299.0797,64,34,0
297.1548,299.0797,56,34,0
299.0797,301.00446,71,38,0
299.0797,301.00446,57,38,0
299.0797,301.00446,63,38,0
301.00446,301.10965,59,93,0
301.10965,301.21484,71,87,0
301.21484,301.32004,59,81,0
301.32004,301.42523,71,75,0
301.42523,301.53043,56,91,0
301.53043,301.63562,68,86,0
301.63562,301.74084,56,81,0
301.74084,301.84604,68,75,0
301.84604,301.94934,59,84,0
301.94934,302.0526,71,80,0
302.0526,302.1559,59,77,0
302.1559,302.25922,71,73,0
302.25922,302.36252,64,88,0
302.36252,302.46582,76,85,0
302.46582,302.56912,64,83,0
302.56912,302.67194,76,80,0
302.67194,302.77484,68,91,0
302.77484,302.87753,80,88,0
302.87753,302.97998,68,86,0
302.97998,303.08218,80,83,0
303.08218,303.18402,71,94,0
303.18402,303.2856,83,91,0
303.2856,303.38696,71,88,0
303.38696,303.48807,83,84,0
303.48807,303.59003,76,102,0
303.59003,303.6946,88,96,0
303.6946,303.79953,76,90,0
303.79953,303.9073,88,84,0
303.9073,304.0208,71,82,0
304.0208,304.13785,83,71,0
304.13785,304.25772,71,68,0
304.25772,304.4303,83,64,0
304.4303,306.35565,68,35,0
304.4303,306.35565,56,35,0
304.4303,306.35565,64,35,0
306.35565,308.28058,71,43,0
306.35565,308.28058,57,36,0
306.35565,308.28058,63,36,0
308.28058,309.26602,64,40,0
308.28058,309.26602,56,34,0
309.30887,310.2086,64,27,0
309.30887,310.2086,56,23,0
310.33713,310.80804,56,39,0
310.33713,310.80804,64,39,0
310.81805,311.27927,68,34,0
310.81805,311.27927,56,34,0
311.2891,311.76807,66,38,0
311.2891,311.76807,56,38,0
311.77826,312.2691,68,35,0
311.77826,312.2691,56,35,0
312.27954,313.22433,61,39,0
312.27954,313.22433,57,39,0
313.2654,314.12805,61,25,0
313.2654,314.12805,57,25,0
314.25128,314.71826,61,38,0
314.25128,314.71826,57,38,0
314.72818,315.18942,66,31,0
314.72818,315.18942,59,31,0
314.72818,315.18942,57,31,0
315.19922,315.6548,64,37,0
315.19922,315.6548,59,37,0
315.19922,315.6548,57,37,0
315.6645,316.16165,59,29,0
315.6645,316.16165,66,29,0
315.6645,316.16165,57,29,0
316.1722,317.117,59,36,0
316.1722,317.117,56,36,0
317.15808,318.02072,64,29,0
317.15808,318.02072,56,24,0
318.14395,318.61685,64,46,0
318.14395,318.61685,56,46,0
318.6269,319.09985,68,36,0
318.6269,319.09985,56,36,0
319.10992,319.57498,56,45,0
319.10992,319.57498,66,45,0
319.58487,320.04218,68,39,0
319.58487,320.04218,56,39,0
320.0519,320.9967,64,42,0
320.0519,320.9967,69,42,0
320.0519,320.9967,57,42,0
321.03778,321.9004,64,37,0
321.03778,321.9004,57,37,0
321.03778,321.9004,69,37,0
322.02365,322.9439,73,48,0
322.02365,322.9439,61,40,0
322.02365,322.9439,69,40,0
322.98346,323.45642,61,40,0
322.98346,323.90924,69,40,0
322.98346,323.90924,73,48,0
323.9495,324.8943,68,34,0
323.9495,324.8943,76,40,0
323.9495,324.8943,64,34,0
324.93536,325.79196,76,27,0
324.93536,325.79196,64,23,0
324.93536,325.79196,68,23,0
325.9132,326.37433,63,38,0
325.9132,326.37433,78,38,0
325.9132,326.37433,69,38,0
326.38416,326.85318,66,31,0
326.38416,326.85318,69,31,0
326.38416,326.85318,75,31,0
326.86316,327.32047,66,36,0
326.86316,327.32047,71,36,0
327.3302,327.79913,64,31,0
327.3302,327.79913,69,31,0
327.8091,328.74225,68,35,0
327.8091,328.74225,64,29,0
328.78284,329.62888,68,23,0
328.78284,329.62888,64,19,0
329.7486,330.20975,63,37,0
329.7486,330.20975,69,37,0
329.7486,330.20975,78,37,0
330.21957,330.68463,69,30,0
330.21957,330.68463,75,30,0
330.21957,330.68463,66,30,0
330.69452,331.14825,71,35,0
330.69452,331.14825,66,35,0
331.1579,331.63077,69,30,0
331.1579,331.63077,64,30,0
331.64084,332.57785,68,35,0
331.64084,332.57785,64,29,0
332.6186,333.47412,68,23,0
332.6186,333.47412,64,19,0
333.59634,334.06332,64,35,0
334.07327,334.55032,68,31,0
334.07327,334.55032,64,26,0
334.5605,335.02942,66,35,0
334.5605,335.02942,64,29,0
335.0394,335.53876,64,27,0
335.0394,335.53876,68,33,0
335.54938,336.48642,71,34,0
335.54938,336.48642,64,28,0
336.52716,336.76666,70,24,0
336.52716,336.76666,64,18,0
337.48517,338.3921,88,41,0
337.48517,338.3921,83,41,0
337.48517,338.3921,76,41,0
338.43152,338.85513,81,25,0
338.43152,338.85513,88,25,0
338.43152,338.85513,76,25,0
339.35574,340.26266,69,34,0
339.35574,340.26266,64,34,0
340.30212,340.74472,68,24,0
340.30212,340.74472,64,24,0
341.26782,342.20096,81,42,0
341.26782,342.20096,88,42,0
341.26782,342.20096,76,42,0
342.24155,342.68784,88,25,0
342.24155,342.68784,79,25,0
342.24155,342.68784,76,25,0
343.21524,344.12558,54,78,0
343.21524,344.12558,60,78,0
343.21524,344.12558,66,86,0
343.21524,344.12558,64,86,0
344.16513,344.60974,66,67,0
344.16513,344.60974,54,59,0
344.16513,344.60974,64,67,0
344.16513,344.60974,60,59,0
345.13516,345.59433,78,55,0
345.13516,345.59433,76,46,0
345.13516,345.59433,73,46,0
345.6041,346.05417,71,37,0
345.6041,346.05417,80,46,0
345.6041,346.05417,76,37,0
346.06375,346.51355,76,42,0
346.06375,346.51355,69,42,0
346.06375,346.51355,81,50,0
346.52313,347.0038,71,37,0
346.52313,347.0038,80,46,0
346.52313,347.0038,76,37,0
347.01404,347.93582,83,50,0
347.01404,347.93582,71,50,0
347.01404,347.93582,76,50,0
347.9759,348.41675,75,33,0
347.9759,348.41675,71,26,0
347.9759,348.41675,83,26,0
348.9472,349.8537,68,37,0
348.9472,349.8537,64,30,0
349.89313,350.32666,64,23,0
349.89313,350.32666,68,23,0
350.85733,351.7714,64,89,0
350.85733,351.7714,54,79,0
350.85733,351.7714,66,89,0
350.85733,351.7714,60,79,0
351.81116,352.23978,64,67,0
351.81116,352.23978,54,59,0
351.81116,352.23978,60,59,0
351.81116,352.23978,66,67,0
352.7463,353.20416,73,46,0
352.7463,353.20416,78,55,0
352.7463,353.20416,76,46,0
353.2139,353.67505,76,41,0
353.2139,353.67505,80,49,0
353.2139,353.67505,71,41,0
353.68484,354.13654,81,53,0
353.68484,354.13654,76,44,0
353.68484,354.13654,69,44,0
354.14615,354.6288,80,47,0
354.14615,354.6288,76,39,0
354.14615,354.6288,71,39,0
354.63907,355.5722,76,50,0
354.63907,355.5722,71,42,0
354.63907,355.5722,83,50,0
355.6128,356.05908,75,33,0
355.6128,356.05908,83,27,0
355.6128,356.05908,71,26,0
356.5865,357.4968,52,104,0
356.5865,357.4968,64,104,0
357.53638,357.981,64,83,0
357.53638,357.981,52,74,0
358.5064,358.9726,59,36,0
358.5064,358.9726,56,36,0
358.9825,359.44168,68,30,0
358.9825,359.44168,56,30,0
359.45145,359.90887,56,37,0
359.45145,359.90887,66,37,0
359.9186,360.4137,68,30,0
359.9186,360.4137,56,30,0
360.42422,361.30994,60,24,0
360.42422,361.30994,68,39,0
360.42422,361.30994,71,39,0
361.34845,361.586,66,23,0
361.34845,361.586,60,22,0
361.34845,361.586,69,23,0
362.2987,363.19492,71,39,0
362.2987,363.19492,68,39,0
362.2987,363.19492,59,29,0
363.23386,363.4783,69,23,0
363.23386,363.4783,66,23,0
363.23386,363.4783,59,19,0
364.21164,365.1295,76,105,0
364.21164,365.1295,64,105,0
365.1694,365.6178,76,69,0
365.1694,365.6178,64,61,0
366.1477,366.6147,59,38,0
366.1477,366.6147,56,38,0
366.62463,367.0858,56,31,0
366.62463,367.0858,68,31,0
367.09558,367.55096,66,38,0
367.09558,367.55096,56,38,0
367.56067,368.05573,68,31,0
367.56067,368.05573,56,31,0
368.06628,368.93643,69,44,0
368.06628,368.93643,73,44,0
368.06628,368.93643,61,37,0
368.97427,369.2083,66,23,0
368.97427,369.2083,69,23,0
368.97427,369.2083,61,19,0
369.91052,370.78067,68,41,0
369.91052,370.78067,71,41,0
369.91052,370.78067,59,35,0
370.8185,371.0496,66,25,0
370.8185,371.0496,59,24,0
370.8185,371.0496,69,25,0
371.74106,372.59195,59,35,0
371.74106,372.59195,69,41,0
371.74106,372.59195,64,35,0
372.62894,372.8493,59,23,0
372.62894,372.8493,67,25,0
372.62894,372.8493,64,23,0
373.5103,374.36124,57,36,0
373.5103,374.36124,67,42,0
373.5103,374.36124,60,36,0
374.39822,374.61618,57,24,0
374.39822,374.61618,60,23,0
374.39822,374.61618,65,25,0
375.27,376.13046,65,42,0
375.27,376.13046,60,36,0
375.27,376.13046,55,36,0
376.16788,376.38904,64,25,0
376.16788,376.38904,55,23,0
376.16788,376.38904,60,23,0
377.0525,377.91296,64,42,0
377.0525,377.91296,53,36,0
377.0525,377.91296,57,36,0
377.95038,378.17484,53,25,0
377.95038,378.17484,62,29,0
377.95038,378.17484,57,25,0
378.84824,379.74548,57,35,0
378.84824,379.74548,62,41,0
378.84824,379.74548,52,35,0
379.7845,380.02707,60,25,0
379.7845,380.02707,57,20,0
384.55374,385.48734,59,41,0
384.55374,385.48734,57,29,0
385.52792,385.96558,56,25,0
385.52792,385.96558,59,25,0
390.34354,391.2559,60,36,0
391.2559,392.1466,69,33,0
391.2559,392.1466,57,33,0
392.1466,393.03046,68,40,0
392.1466,393.03046,56,40,0
393.03046,393.91864,69,37,0
393.03046,393.91864,57,37,0
393.91864,394.79572,70,47,0
393.91864,394.79572,58,47,0
394.79572,395.67633,69,45,0
394.79572,395.67633,57,45,0
395.67633,396.54565,74,63,0
395.67633,396.54565,62,63,0
396.54565,397.40616,72,61,0
396.54565,397.40616,60,61,0
397.40616,398.26697,79,77,0
397.40616,398.26697,67,77,0
398.26697,399.1289,77,73,0
398.26697,399.1289,65,73,0
399.1289,399.98306,82,96,0
399.1289,399.98306,70,96,0
399.98306,400.83722,81,93,0
399.98306,400.83722,69,93,0
400.83722,401.7143,74,90,0
400.83722,401.7143,86,101,0
400.83722,401.7143,81,101,0
400.83722,401.7143,77,90,0
401.7143,401.90506,81,85,0
401.7143,401.90506,69,76,0
402.62997,403.50372,76,90,0
402.62997,403.50372,88,101,0
402.62997,403.50372,85,101,0
402.62997,403.50372,81,90,0
403.50372,403.69223,81,85,0
403.50372,403.69223,69,76,0
404.40857,405.2823,77,90,0
404.40857,405.2823,89,101,0
404.40857,405.2823,86,101,0
404.40857,405.2823,81,90,0
405.2823,405.47006,81,85,0
405.2823,405.47006,69,76,0
406.18353,407.05566,76,91,0
406.18353,407.05566,88,102,0
406.18353,407.05566,85,102,0
406.18353,407.05566,81,91,0
407.05566,407.2434,81,85,0
407.05566,407.2434,69,76,0
407.9569,408.8337,74,90,0
407.9569,408.8337,86,101,0
407.9569,408.8337,81,101,0
407.9569,408.8337,77,90,0
408.8337,409.01663,81,93,0
408.8337,409.01663,69,83,0
409.73596,410.6097,76,93,0
409.73596,410.6097,88,104,0
409.73596,410.6097,85,104,0
409.73596,410.6097,81,93,0
410.6097,410.71893,81,94,0
410.6097,410.71893,69,84,0
411.49658,412.3902,77,90,0
411.49658,412.3902,89,101,0
411.49658,412.3902,86,101,0
411.49658,412.3902,81,90,0
412.3902,412.50027,81,92,0
412.3902,412.50027,69,82,0
413.27997,414.15253,76,93,0
413.27997,414.15253,88,104,0
413.27997,414.15253,85,104,0
413.27997,414.15253,81,93,0
414.15253,414.26273,81,93,0
414.15253,414.26273,69,83,0
415.05127,415.951,77,94,0
415.05127,415.951,89,105,0
415.05127,415.951,84,105,0
415.05127,415.951,81,94,0
415.951,416.0602,84,92,0
415.951,416.0602,72,82,0
416.83197,417.70572,79,90,0
416.83197,417.70572,91,100,0
416.83197,417.70572,88,100,0
416.83197,417.70572,84,90,0
417.70572,417.81494,84,85,0
417.70572,417.81494,72,76,0
418.58655,419.4802,81,90,0
418.58655,419.4802,93,100,0
418.58655,419.4802,89,100,0
418.58655,419.4802,84,90,0
419.4802,419.5911,84,85,0
419.4802,419.5911,72,76,0
420.37634,421.24887,79,86,0
420.37634,421.24887,91,96,0
420.37634,421.24887,88,96,0
420.37634,421.24887,84,86,0
421.24887,421.35922,84,85,0
421.24887,421.35922,72,76,0
422.1697,422.46204,81,87,0
422.1697,422.46204,93,97,0
422.1697,422.46204,89,97,0
422.1697,422.46204,84,87,0
422.4986,422.5717,77,63,0
422.4986,422.5717,89,70,0
422.4986,422.5717,84,70,0
422.4986,422.5717,81,63,0
422.60822,422.90057,77,70,0
422.60822,422.90057,89,78,0
422.60822,422.90057,84,78,0
422.60822,422.90057,81,70,0
422.93713,423.01022,72,63,0
422.93713,423.01022,84,70,0
422.93713,423.01022,81,70,0
422.93713,423.01022,77,63,0
423.04675,423.34012,72,70,0
423.04675,423.34012,84,78,0
423.04675,423.34012,81,78,0
423.04675,423.34012,77,70,0
423.37692,423.45087,69,63,0
423.37692,423.45087,81,70,0
423.37692,423.45087,77,70,0
423.37692,423.45087,72,63,0
423.48798,423.57816,81,78,0
423.48798,423.57816,69,70,0
423.48798,423.57816,72,70,0
423.48798,423.57816,77,78,0
423.72845,423.82468,77,70,0
423.72845,423.82468,65,63,0
423.72845,423.82468,69,63,0
423.72845,423.82468,72,70,0
423.98508,424.27744,81,89,0
423.98508,424.27744,93,99,0
423.98508,424.27744,89,99,0
423.98508,424.27744,84,89,0
424.31396,424.38705,77,63,0
424.31396,424.38705,89,70,0
424.31396,424.38705,84,70,0
424.31396,424.38705,81,63,0
424.4236,424.71597,77,70,0
424.4236,424.71597,89,78,0
424.4236,424.71597,84,78,0
424.4236,424.71597,81,70,0
424.7525,424.8256,72,63,0
424.7525,424.8256,84,70,0
424.7525,424.8256,81,70,0
424.7525,424.8256,77,63,0
424.86227,425.15762,72,70,0
424.86227,425.15762,84,78,0
424.86227,425.15762,81,78,0
424.86227,425.15762,77,70,0
425.19504,425.2703,69,63,0
425.19504,425.2703,81,70,0
425.19504,425.2703,77,70,0
425.19504,425.2703,72,63,0
425.30814,425.3998,81,78,0
425.30814,425.3998,69,70,0
425.30814,425.3998,72,70,0
425.30814,425.3998,77,78,0
425.5533,425.65408,77,70,0
425.5533,425.65408,65,63,0
425.5533,425.65408,69,63,0
425.5533,425.65408,72,70,0
425.822,426.12125,81,82,0
425.822,426.12125,93,92,0
425.822,426.12125,88,92,0
425.822,426.12125,85,82,0
426.15866,426.23346,81,63,0
426.15866,426.23346,93,70,0
426.15866,426.23346,88,70,0
426.15866,426.23346,85,70,0
426.27087,426.56793,81,74,0
426.27087,426.56793,93,83,0
426.27087,426.56793,88,83,0
426.27087,426.56793,85,74,0
426.6049,426.67853,81,63,0
426.6049,426.67853,93,70,0
426.6049,426.67853,88,70,0
426.6049,426.67853,85,63,0
426.71524,427.00955,81,73,0
426.71524,427.00955,93,82,0
426.71524,427.00955,88,82,0
426.71524,427.00955,85,73,0
427.0467,427.1209,81,63,0
427.0467,427.1209,93,70,0
427.0467,427.1209,88,70,0
427.0467,427.1209,85,63,0
427.15817,427.24506,81,72,0
427.15817,427.24506,93,80,0
427.15817,427.24506,88,80,0
427.15817,427.24506,85,72,0
427.38986,427.48004,93,70,0
427.38986,427.48004,81,63,0
427.38986,427.48004,85,63,0
427.38986,427.48004,88,70,0
427.6303,427.93195,69,50,0
427.6303,427.93195,81,50,0
427.6303,427.93195,76,50,0
427.6303,427.93195,73,50,0
427.96964,428.04504,81,45,0
427.96964,428.04504,76,45,0
427.96964,428.04504,73,45,0
428.08273,428.37967,73,50,0
428.08273,428.37967,76,50,0
428.08273,428.37967,81,50,0
428.41678,428.491,81,45,0
428.41678,428.491,76,45,0
428.41678,428.491,73,45,0
428.5281,428.8262,73,49,0
428.5281,428.8262,76,49,0
428.5281,428.8262,81,49,0
428.8639,428.9393,81,45,0
428.8639,428.9393,76,45,0
428.8639,428.9393,73,45,0
428.97702,429.06183,73,50,0
428.97702,429.06183,76,50,0
428.97702,429.06183,81,50,0
429.20322,429.2894,81,45,0
429.20322,429.2894,76,45,0
429.20322,429.2894,73,45,0
429.43304,429.7395,81,45,0
429.43304,429.7395,77,45,0
429.43304,429.7395,72,45,0
429.7778,429.8544,81,38,0
429.7778,429.8544,77,38,0
429.7778,429.8544,72,38,0
429.8927,430.19916,81,45,0
429.8927,430.19916,77,45,0
429.8927,430.19916,72,45,0
430.23746,430.31406,81,37,0
430.23746,430.31406,77,37,0
430.23746,430.31406,72,37,0
430.3524,430.6528,81,45,0
430.3524,430.6528,77,45,0
430.3524,430.6528,72,45,0
430.69034,430.76544,81,38,0
430.69034,430.76544,77,38,0
430.69034,430.76544,72,38,0
430.803,430.8899,81,45,0
430.803,430.8899,77,45,0
430.803,430.8899,72,45,0
431.0347,431.126,81,39,0
431.0347,431.126,72,39,0
431.0347,431.126,77,39,0
431.27823,431.57864,81,51,0
431.27823,431.57864,77,51,0
431.27823,431.57864,72,51,0
431.61618,431.69128,82,37,0
431.61618,431.69128,77,37,0
431.61618,431.69128,74,37,0
431.72885,432.02927,81,45,0
431.72885,432.02927,77,45,0
431.72885,432.02927,72,45,0
432.0668,432.1419,79,37,0
432.0668,432.1419,72,37,0
432.0668,432.1419,70,37,0
432.17944,432.47986,77,45,0
432.17944,432.47986,72,45,0
432.17944,432.47986,69,45,0
432.51743,432.59253,79,37,0
432.51743,432.59253,72,37,0
432.51743,432.59253,70,37,0
432.63007,432.9317,77,45,0
432.63007,432.9317,72,45,0
432.63007,432.9317,69,45,0
432.96985,433.04614,74,37,0
432.96985,433.04614,70,37,0
432.96985,433.04614,65,37,0
433.08432,433.41833,72,52,0
433.08432,433.41833,70,52,0
433.08432,433.41833,64,52,0
433.41833,433.52966,74,37,0
433.41833,433.52966,70,37,0
433.41833,433.52966,65,37,0
433.52966,433.8637,74,45,0
433.52966,433.8637,70,45,0
433.52966,433.8637,65,45,0
433.8637,433.97504,72,37,0
433.8637,433.97504,70,37,0
433.8637,433.97504,64,37,0
433.97504,434.30908,72,45,0
433.97504,434.30908,70,45,0
433.97504,434.30908,64,45,0
434.30908,434.4204,74,37,0
434.30908,434.4204,70,37,0
434.30908,434.4204,65,37,0
434.4204,434.5066,74,39,0
434.4204,434.5066,70,39,0
434.4204,434.5066,65,39,0
434.65024,434.73178,72,37,0
434.65024,434.73178,70,37,0
434.65024,434.73178,64,37,0
434.89484,435.19522,82,45,0
434.89484,435.19522,79,45,0
434.89484,435.19522,74,45,0
435.2328,435.3079,84,37,0
435.2328,435.3079,79,37,0
435.2328,435.3079,75,37,0
435.34543,435.64584,82,45,0
435.34543,435.64584,79,45,0
435.34543,435.64584,74,45,0
435.6834,435.7585,81,37,0
435.6834,435.7585,74,37,0
435.6834,435.7585,72,37,0
435.79605,436.09647,79,45,0
435.79605,436.09647,74,45,0
435.79605,436.09647,70,45,0
436.13403,436.20914,81,37,0
436.13403,436.20914,74,37,0
436.13403,436.20914,72,37,0
436.24667,436.5471,79,45,0
436.24667,436.5471,74,45,0
436.24667,436.5471,70,45,0
436.58466,436.65976,75,37,0
436.58466,436.65976,72,37,0
436.58466,436.65976,67,37,0
436.6973,437.03528,74,52,0
436.6973,437.03528,72,52,0
436.6973,437.03528,66,52,0
437.03528,437.1466,75,37,0
437.03528,437.1466,72,37,0
437.03528,437.1466,67,37,0
437.1466,437.48062,75,45,0
437.1466,437.48062,72,45,0
437.1466,437.48062,67,45,0
437.48062,437.59198,74,37,0
437.48062,437.59198,72,37,0
437.48062,437.59198,66,37,0
437.59198,437.926,74,45,0
437.59198,437.926,72,45,0
437.59198,437.926,66,45,0
437.926,438.03735,75,37,0
437.926,438.03735,72,37,0
437.926,438.03735,67,37,0
438.03735,438.12424,75,39,0
438.03735,438.12424,72,39,0
438.03735,438.12424,67,39,0
438.26904,438.34885,74,37,0
438.26904,438.34885,72,37,0
438.26904,438.34885,66,37,0
438.50848,438.84647,79,51,0
438.50848,438.84647,77,51,0
438.50848,438.84647,71,51,0
438.84647,438.92157,80,37,0
438.84647,438.92157,77,37,0
438.84647,438.92157,71,37,0
438.9591,439.18442,80,51,0
438.9591,439.18442,77,51,0
438.9591,439.18442,71,51,0
439.18442,439.25952,79,42,0
439.18442,439.25952,77,42,0
439.18442,439.25952,71,42,0
439.40973,439.74506,72,45,0
439.40973,439.74506,70,45,0
439.40973,439.74506,67,45,0
439.74506,439.81955,73,39,0
439.74506,439.81955,70,39,0
439.74506,439.81955,67,39,0
439.8568,439.94336,73,47,0
439.8568,439.94336,70,47,0
439.8568,439.94336,67,47,0
440.0876,440.1674,72,37,0
440.0876,440.1674,70,37,0
440.0876,440.1674,67,37,0
440.32703,440.665,77,52,0
440.32703,440.665,75,52,0
440.32703,440.665,69,52,0
440.665,440.7401,79,42,0
440.665,440.7401,75,42,0
440.665,440.7401,69,42,0
440.77765,441.00296,79,49,0
440.77765,441.00296,75,49,0
440.77765,441.00296,69,49,0
441.00296,441.07806,77,37,0
441.00296,441.07806,75,37,0
441.00296,441.07806,69,37,0
441.22827,441.5636,70,49,0
441.22827,441.5636,65,49,0
441.22827,441.5636,62,49,0
441.5636,441.63812,72,37,0
441.5636,441.63812,65,37,0
441.5636,441.63812,62,37,0
441.67535,441.7612,72,45,0
441.67535,441.7612,65,45,0
441.67535,441.7612,62,45,0
441.9043,441.98248,65,37,0
441.9043,441.98248,70,37,0
441.9043,441.98248,62,37,0
442.13882,442.4768,74,55,0
442.13882,442.4768,70,55,0
442.13882,442.4768,65,55,0
442.4768,442.58945,76,55,0
442.4768,442.58945,73,55,0
442.4768,442.58945,65,55,0
442.58945,442.9274,76,59,0
442.58945,442.9274,73,59,0
442.58945,442.9274,65,59,0
442.9274,443.0379,77,58,0
442.9274,443.0379,74,58,0
442.9274,443.0379,65,58,0
443.0379,443.36932,77,67,0
443.0379,443.36932,74,67,0
443.0379,443.36932,65,67,0
443.36932,443.48157,79,66,0
443.36932,443.48157,76,66,0
443.36932,443.48157,67,66,0
443.48157,443.8182,79,73,0
443.48157,443.8182,76,73,0
443.48157,443.8182,67,73,0
443.8182,443.93042,80,67,0
443.8182,443.93042,77,67,0
443.8182,443.93042,68,67,0
443.93042,444.26706,80,76,0
443.93042,444.26706,77,76,0
443.93042,444.26706,68,76,0
444.26706,444.378,80,70,0
444.26706,444.378,72,70,0
444.26706,444.378,68,70,0
444.26706,444.378,77,70,0
444.378,444.7107,80,76,0
444.378,444.7107,72,76,0
444.378,444.7107,68,76,0
444.378,444.7107,77,76,0
444.7107,444.82562,79,71,0
444.7107,444.82562,67,71,0
444.7107,444.82562,71,71,0
444.7107,444.82562,77,71,0
444.82562,445.17035,79,78,0
444.82562,445.17035,67,78,0
444.82562,445.17035,71,78,0
444.82562,445.17035,77,78,0
445.17035,445.28763,79,73,0
445.17035,445.28763,74,73,0
445.17035,445.28763,67,65,0
445.17035,445.28763,71,65,0
445.17035,445.28763,77,73,0
445.28763,445.63943,79,81,0
445.28763,445.63943,74,81,0
445.28763,445.63943,67,81,0
445.28763,445.63943,71,81,0
445.28763,445.63943,77,81,0
445.63943,445.76068,76,77,0
445.63943,445.76068,64,69,0
445.63943,445.76068,67,69,0
445.63943,445.76068,72,77,0
445.76068,446.1125,76,94,0
445.76068,446.1125,64,84,0
445.76068,446.1125,67,84,0
445.76068,446.1125,72,94,0
446.1125,446.1969,79,80,0
446.1125,446.1969,72,72,0
446.1125,446.1969,76,80,0
446.1125,446.1969,67,72,0
446.2391,446.3345,79,91,0
446.2391,446.3345,67,81,0
446.2391,446.3345,72,81,0
446.2391,446.3345,76,91,0
446.49347,446.58884,72,73,0
446.49347,446.58884,84,82,0
446.49347,446.58884,79,82,0
446.49347,446.58884,76,73,0
446.75754,447.22598,80,94,0
446.75754,447.22598,77,94,0
446.75754,447.22598,72,84,0
447.72568,448.06232,76,94,0
447.72568,448.06232,64,84,0
447.72568,448.06232,67,84,0
447.72568,448.06232,72,94,0
448.06232,448.14386,79,77,0
448.06232,448.14386,72,69,0
448.06232,448.14386,76,77,0
448.06232,448.14386,67,69,0
448.1846,448.27957,79,92,0
448.1846,448.27957,67,82,0
448.1846,448.27957,72,82,0
448.1846,448.27957,76,92,0
448.43784,448.5328,72,76,0
448.43784,448.5328,84,85,0
448.43784,448.5328,79,76,0
448.43784,448.5328,76,85,0
448.69818,449.16766,80,94,0
448.69818,449.16766,77,94,0
448.69818,449.16766,72,84,0
449.7038,450.04633,72,84,0
449.7038,450.04633,84,84,0
449.7038,450.04633,79,84,0
449.7038,450.04633,76,84,0
450.04633,450.16376,72,58,0
450.16376,450.51462,72,70,0
450.51462,450.64526,72,55,0
450.64526,450.98782,72,69,0
450.64526,450.98782,84,69,0
450.64526,450.98782,79,69,0
450.64526,450.98782,76,69,0
450.98782,451.10522,72,57,0
451.10522,451.45752,72,69,0
451.45752,451.58817,72,56,0
451.58817,451.93478,72,66,0
451.93478,452.05222,73,58,0
452.05222,452.4045,73,64,0
452.4045,452.5224,72,51,0
452.5224,452.8761,72,63,0
452.8761,452.99448,72,53,0
452.99448,453.3496,72,62,0
453.3496,453.47095,72,49,0
453.47095,453.8135,72,60,0
453.8135,453.93,77,49,0
453.93,454.27942,77,63,0
454.27942,454.39636,72,44,0
454.39636,454.74722,72,56,0
454.74722,454.86417,72,42,0
454.86417,455.21503,72,54,0
455.21503,455.33844,72,41,0
455.33844,455.68097,72,53,0
455.68097,455.79608,74,39,0
455.79608,456.14136,74,52,0
456.14136,456.25876,72,39,0
456.25876,456.61105,72,50,0
456.61105,456.7323,82,37,0
456.7323,457.09604,82,47,0
457.09604,457.22324,76,35,0
457.22324,457.56577,77,47,0
457.22324,457.56577,89,47,0
457.56577,457.64188,84,35,0
457.67996,457.98444,84,43,0
458.0234,458.10138,84,34,0
458.14038,458.44485,83,42,0
458.4829,458.55902,84,34,0
458.5971,458.90158,84,41,0
458.93964,459.01825,84,35,0
459.05753,459.36203,81,44,0
459.4001,459.4762,84,34,0
459.51425,459.81876,93,42,0
459.8568,459.93475,91,34,0
459.97375,460.27795,91,41,0
460.3157,460.3914,93,35,0
460.4293,460.74332,93,41,0
460.78183,460.86624,89,37,0
460.90845,461.21295,88,48,0
461.251,461.32712,86,33,0
461.36517,461.66965,86,43,0
461.70773,461.78696,86,35,0
461.8266,462.13107,85,45,0
462.16913,462.24615,86,34,0
462.28467,462.5928,86,44,0
462.63132,462.7143,86,33,0
462.7558,463.09833,82,44,0
463.09833,463.21252,86,35,0
463.21252,463.55505,91,43,0
463.55505,463.6744,89,34,0
463.6744,464.0197,89,44,0
464.0197,464.13666,91,34,0
464.13666,464.4929,91,42,0
464.4929,464.62064,88,33,0
464.62064,464.9632,84,47,0
464.9632,465.07736,72,35,0
465.07736,465.42084,72,43,0
465.42084,465.53778,72,36,0
465.53778,465.88034,71,42,0
465.88034,465.9945,72,33,0
465.9945,466.33707,72,41,0
466.33707,466.45496,72,35,0
466.45496,466.79752,68,44,0
466.79752,466.91168,72,33,0
466.91168,467.2542,80,42,0
467.2542,467.3712,79,31,0
467.3712,467.71313,79,41,0
467.71313,467.82672,80,33,0
467.82672,468.17065,80,41,0
468.17065,468.29346,77,34,0
468.29346,468.63602,79,48,0
468.63602,468.75018,77,39,0
468.75018,469.0927,77,43,0
469.0927,469.2116,77,41,0
469.2116,469.55414,76,45,0
469.55414,469.66968,77,41,0
469.66968,470.01633,77,44,0
470.01633,470.1408,77,41,0
470.1408,470.48334,73,44,0
470.48334,470.59753,77,36,0
470.59753,470.94006,82,43,0
470.94006,471.05942,80,35,0
471.05942,471.4047,80,44,0
471.4047,471.52167,82,34,0
471.52167,471.87314,82,42,0
471.87314,471.992,79,34,0
471.992,472.34006,75,45,0
472.34006,472.45425,84,40,0
472.45425,472.79678,84,48,0
472.79678,472.91098,82,36,0
472.91098,473.2535,82,46,0
473.2535,473.3677,80,35,0
473.3677,473.71024,80,44,0
473.71024,473.8296,78,35,0
473.8296,474.17764,78,44,0
474.17764,474.2932,77,35,0
474.2932,474.63983,77,40,0
474.63983,474.7587,77,35,0
474.7587,475.10126,76,40,0
475.10126,475.2168,75,34,0
475.2168,475.56342,75,40,0
475.56342,475.67896,75,39,0
475.67896,476.0337,73,45,0
476.0337,476.14786,85,45,0
476.14786,476.49042,85,48,0
476.49042,476.60458,84,38,0
476.60458,476.94714,84,46,0
476.94714,477.0613,82,38,0
477.0613,477.40387,82,44,0
477.40387,477.52322,80,38,0
477.52322,477.87128,80,44,0
477.87128,477.98682,79,35,0
477.98682,478.33347,79,40,0
478.33347,478.45233,79,34,0
478.45233,478.79486,78,40,0
478.79486,478.91043,77,36,0
478.91043,479.25705,77,40,0
479.25705,479.3726,77,36,0
479.3726,479.72012,76,45,0
479.72012,479.83432,88,41,0
479.83432,480.17685,88,49,0
480.17685,480.29105,88,41,0
480.29105,480.63358,91,51,0
480.63358,480.7496,89,42,0
480.7496,481.09766,89,50,0
481.09766,481.2151,89,38,0
481.2151,481.55762,89,50,0
481.55762,481.6718,88,41,0
481.6718,482.01434,88,48,0
482.01434,482.12854,88,40,0
482.12854,482.47107,88,48,0
482.47107,482.58664,83,36,0
482.58664,482.93326,83,45,0
482.93326,483.05164,83,42,0
483.05164,483.3942,86,56,0
483.3942,483.50836,84,40,0
483.50836,483.85092,84,49,0
483.85092,483.96832,76,39,0
483.96832,484.31088,79,47,0
484.31088,484.42737,77,35,0
484.42737,484.7768,77,44,0
484.7768,484.89517,77,38,0
484.89517,485.2377,77,46,0
485.2377,485.3519,76,39,0
485.3519,485.69443,76,46,0
485.69443,485.80862,76,37,0
485.80862,486.15115,76,44,0
486.15115,486.26764,71,36,0
486.26764,486.61707,71,44,0
486.61707,486.735,71,37,0
486.735,487.0775,74,46,0
487.0775,487.19168,72,36,0
487.19168,487.53424,72,44,0
487.53424,487.65027,72,36,0
487.65027,487.99832,72,43,0
487.99832,488.1151,76,39,0
488.1151,488.46548,76,47,0
488.46548,488.58997,76,38,0
488.58997,488.94324,76,47,0
488.94324,489.061,68,38,0
489.061,489.41428,68,47,0
489.41428,489.5335,68,37,0
489.5335,489.88974,68,45,0
489.88974,490.00946,76,39,0
490.00946,490.36862,76,47,0
490.36862,490.49948,76,37,0
490.49948,490.85815,76,45,0
490.85815,490.9777,69,32,0
490.9777,491.33633,69,40,0
491.33633,491.45782,69,32,0
491.45782,491.8222,69,39,0
491.8222,491.94464,76,34,0
491.94464,492.31192,76,39,0
492.31192,492.44168,76,34,0
492.44168,492.80856,76,41,0
492.80856,492.93463,71,33,0
492.93463,493.3128,71,37,0
493.3128,493.4417,71,32,0
493.4417,493.8284,71,37,0
493.8284,493.96466,77,29,0
493.96466,494.38754,77,34,0
494.38754,494.61453,77,30,0
494.61453,495.6319,76,37,0
494.61453,495.6319,74,37,0
494.61453,495.6319,68,37,0
497.99686,498.1156,65,32,0
498.1156,498.4718,65,36,0
498.4718,498.60187,65,32,0
498.60187,499.61923,64,36,0
498.60187,499.61923,62,36,0
498.60187,499.61923,56,36,0
504.57275,505.57535,69,50,0
505.57535,506.57376,76,50,0
506.57376,507.544,75,53,0
507.544,507.74945,76,47,0
508.03705,508.4342,72,49,0
508.4127,508.5619,71,47,0
508.54178,509.50812,69,48,0
509.50812,510.5107,59,58,0
509.50812,510.5107,56,58,0
509.50812,510.5107,64,58,0
510.5107,511.49316,60,52,0
511.49316,511.6831,57,51,0
512.5061,513.50867,57,50,0
513.50867,514.47894,57,60,0
513.50867,514.47894,65,60,0
514.47894,515.4057,67,67,0
514.47894,515.4057,58,67,0
515.4057,515.61456,65,54,0
515.4057,515.61456,57,54,0
515.9019,516.2955,57,51,0
516.27435,516.4218,59,54,0
516.40125,517.3873,60,52,0
517.3873,518.38995,64,60,0
517.3873,518.38995,59,60,0
517.3873,518.38995,56,60,0
518.38995,519.37244,60,50,0
519.37244,519.5853,57,50,0
520.3944,521.3765,65,46,0
520.3944,521.3765,57,46,0
520.3944,521.3765,62,46,0
520.3944,521.3765,69,46,0
521.3765,521.5019,57,37,0
522.37915,523.34546,57,47,0
522.37915,523.34546,60,47,0
522.37915,523.34546,69,47,0
522.37915,523.34546,64,47,0
523.34546,523.4672,57,40,0
524.29974,525.23413,57,47,0
524.29974,525.23413,62,47,0
524.29974,525.23413,69,47,0
524.29974,525.23413,65,47,0
525.23413,525.354,57,39,0
526.19934,527.1178,60,45,0
526.19934,527.1178,57,45,0
526.19934,527.1178,69,45,0
527.1178,527.23956,57,39,0
528.074,528.9718,57,47,0
528.074,528.9718,69,47,0
528.074,528.9718,62,47,0
528.9718,529.0951,57,40,0
529.93207,530.82996,69,45,0
529.93207,530.82996,57,45,0
529.93207,530.82996,60,45,0
530.82996,530.95074,57,37,0
531.76373,532.6648,69,69,0
531.76373,532.6648,77,69,0
531.76373,532.6648,81,69,0
531.76373,532.6648,74,69,0
532.6648,532.8393,69,56,0
533.603,534.4975,69,70,0
533.603,534.4975,81,70,0
533.603,534.4975,72,70,0
534.4975,534.61426,69,54,0
535.41174,536.3167,79,74,0
535.41174,536.3167,76,74,0
535.41174,536.3167,71,74,0
536.3167,536.4891,67,73,0
537.2474,538.0834,78,82,0
537.2474,538.0834,66,82,0
537.2474,538.0834,75,82,0
538.15936,539.01587,75,76,0
538.15936,539.01587,83,76,0
538.15936,539.01587,71,76,0
539.09375,540.0094,79,73,0
539.09375,540.0094,67,73,0
540.0094,540.2124,76,60,0
540.0094,540.2124,64,60,0
540.9836,541.873,63,38,0
540.9836,541.873,54,38,0
540.9836,541.873,66,38,0
541.95386,542.8256,71,36,0
541.95386,542.8256,63,36,0
541.95386,542.8256,59,36,0
542.90485,543.82794,55,37,0
542.90485,543.82794,67,37,0
543.82794,544.0293,64,31,0
543.82794,544.0293,52,31,0
544.7943,545.6567,67,37,0
544.7943,545.6567,55,37,0
545.6567,545.7657,64,33,0
545.6567,545.7657,52,33,0
546.531,547.38794,53,48,0
546.531,547.38794,65,48,0
547.38794,547.4981,62,42,0
547.38794,547.4981,50,42,0
548.26556,549.1197,64,57,0
548.26556,549.1197,52,57,0
549.1197,549.2296,60,52,0
549.1197,549.2296,48,52,0
550.00977,550.90015,50,76,0
550.00977,550.90015,62,76,0
550.90015,551.01624,59,67,0
550.90015,551.01624,47,67,0
551.90955,552.9206,69,101,0
551.90955,552.9206,57,101,0
552.9206,553.919,76,93,0
552.9206,553.919,64,93,0
553.919,554.8768,63,89,0
553.919,554.8768,75,89,0
554.8768,555.12744,64,75,0
554.8768,555.12744,76,75,0
555.3781,555.6896,52,68,0
555.3781,555.6896,48,68,0
555.7285,555.8234,50,61,0
555.7285,555.8234,56,61,0
555.84247,556.15283,57,64,0
555.84247,556.15283,52,64,0
556.19165,556.2858,53,63,0
556.19165,556.2858,59,63,0
556.3046,556.6137,60,65,0
556.3046,556.6137,55,65,0
556.65234,556.7461,62,67,0
556.65234,556.7461,57,67,0
556.7649,557.0739,60,70,0
556.7649,557.0739,55,70,0
557.11255,557.2067,57,55,0
557.11255,557.2067,62,67,0
557.2256,557.5333,64,70,0
557.2256,557.5333,59,70,0
557.5718,557.6648,60,56,0
557.5718,557.6648,65,67,0
557.6834,557.9898,64,71,0
557.6834,557.9898,59,71,0
558.02814,558.1211,62,70,0
558.02814,558.1211,57,60,0
558.1397,558.4448,60,73,0
558.1397,558.4448,55,73,0
558.483,558.57556,59,70,0
558.483,558.57556,53,60,0
558.5941,558.89923,52,73,0
558.5941,558.89923,57,73,0
558.9374,559.03,52,64,0
558.9374,559.03,56,77,0
559.0485,559.1788,57,82,0
559.0485,559.1788,52,68,0
559.5696,560.59344,69,100,0
559.5696,560.59344,57,100,0
560.59344,561.58014,81,93,0
560.59344,561.58014,69,93,0
560.59344,561.58014,77,93,0
561.58014,562.53,82,98,0
561.58014,562.53,79,98,0
562.53,562.7871,81,89,0
562.53,562.7871,77,89,0
561.58014,562.7871,69,98,0
563.0442,563.3555,57,67,0
563.0442,563.3555,53,67,0
563.3945,563.4882,61,62,0
563.3945,563.4882,55,62,0
563.50696,563.8159,57,66,0
563.50696,563.8159,62,66,0
563.85455,563.94824,64,64,0
563.85455,563.94824,58,64,0
563.96704,564.276,60,67,0
563.96704,564.276,65,67,0
564.31464,564.4083,67,64,0
564.31464,564.4083,62,64,0
564.42706,564.73346,65,68,0
564.42706,564.73346,60,68,0
564.7717,564.8643,67,67,0
564.7717,564.8643,62,55,0
564.8828,565.1878,64,71,0
564.8828,565.1878,69,71,0
565.22595,565.31854,70,67,0
565.22595,565.31854,65,56,0
565.33704,565.63947,64,72,0
565.33704,565.63947,69,72,0
565.6773,565.76874,67,70,0
565.6773,565.76874,62,60,0
565.78705,566.0857,65,74,0
565.78705,566.0857,60,74,0
566.12305,566.2141,64,70,0
566.12305,566.2141,58,60,0
566.2323,566.531,62,75,0
566.2323,566.531,57,75,0
566.56836,566.6598,61,77,0
566.56836,566.6598,57,64,0
566.67804,566.80414,57,68,0
566.67804,566.80414,62,82,0
570.60675,571.08594,62,82,0
570.60675,571.5636,74,92,0
571.5636,572.03174,67,81,0
571.5636,572.03174,79,91,0
572.03174,572.52094,81,93,0
572.03174,572.52094,69,83,0
572.52094,572.9881,82,91,0
572.52094,572.9881,70,81,0
572.9881,573.88226,81,92,0
572.9881,573.88226,69,82,0
573.88226,574.0606,62,76,0
573.88226,574.0606,74,85,0
574.3578,574.84485,84,94,0
574.3578,574.84485,72,84,0
574.84485,575.739,70,86,0
574.84485,575.739,82,96,0
575.739,575.91736,62,81,0
575.739,575.91736,74,91,0
576.21454,576.68445,82,95,0
576.21454,576.68445,70,85,0
576.68445,577.5787,69,81,0
576.68445,577.5787,81,91,0
577.5787,577.756,74,83,0
577.5787,577.756,62,74,0
578.05164,578.98035,74,96,0
578.05164,578.98035,62,86,0
578.98035,579.4223,79,94,0
578.98035,579.4223,67,84,0
579.4223,579.8875,70,94,0
579.4223,579.8875,82,105,0
579.8875,580.35876,86,103,0
579.8875,580.35876,74,92,0
580.35876,581.23926,75,99,0
580.35876,581.23926,87,110,0
581.23926,581.41516,79,83,0
581.23926,581.41516,67,74,0
581.7084,582.1662,87,105,0
581.7084,582.1662,75,94,0
582.1662,583.0433,86,105,0
582.1662,583.0433,74,94,0
583.0433,583.21844,79,83,0
583.0433,583.21844,67,74,0
583.51044,584.4279,86,97,0
583.51044,584.4279,74,87,0
584.4279,584.8804,89,95,0
584.4279,584.8804,77,85,0
584.8804,585.33276,79,93,0
584.8804,585.33276,91,104,0
585.33276,585.8258,81,90,0
585.33276,585.8258,93,100,0
585.8258,586.7519,93,109,0
585.8258,586.7519,81,98,0
586.7922,587.6929,81,94,0
586.7922,587.6929,93,105,0
587.73206,588.6588,77,80,0
587.73206,588.6588,89,89,0
588.6588,588.8644,74,72,0
588.6588,588.8644,86,81,0
589.6455,590.59106,81,52,0
589.6455,590.59106,69,52,0
590.63214,591.562,69,52,0
590.63214,591.562,81,52,0
591.6024,592.5368,77,49,0
591.6024,592.5368,65,49,0
592.5368,592.7389,62,45,0
592.5368,592.7389,74,45,0
593.507,594.419,75,37,0
593.507,594.419,63,37,0
594.419,594.6169,60,27,0
594.419,594.6169,72,27,0
595.3689,596.2773,75,34,0
595.3689,596.2773,63,34,0
596.2773,596.47437,60,27,0
596.2773,596.47437,72,27,0
597.2232,598.11743,75,34,0
597.2232,598.2926,69,34,0
598.11743,598.3121,72,27,0
599.05176,599.946,75,34,0
599.05176,600.12115,69,34,0
599.946,600.1406,72,27,0
600.8803,601.77454,76,34,0
600.8803,601.9497,69,34,0
601.77454,601.9692,73,27,0
602.70886,603.6031,76,34,0
602.70886,603.77826,68,34,0
603.6031,603.7977,71,27,0
604.5374,604.82153,61,34,0
604.5374,604.82153,73,34,0
604.8621,605.1489,73,29,0
604.8621,605.1489,61,29,0
605.19037,605.48065,61,29,0
605.19037,605.48065,73,29,0
605.5221,606.3818,73,27,0
605.5221,606.3818,61,23,0
606.5046,606.9755,69,39,0
606.5046,606.9755,61,39,0
606.98553,607.4467,73,34,0
606.98553,607.4467,61,34,0
607.45654,607.9336,61,38,0
607.45654,607.9336,71,38,0
607.9438,608.43463,73,35,0
607.9438,608.43463,61,35,0
608.44507,608.7176,62,39,0
608.44507,608.7176,66,39,0
608.75653,609.03503,66,30,0
608.75653,609.03503,62,30,0
609.076,609.36255,66,30,0
609.076,609.36255,62,30,0
609.4035,610.2632,66,25,0
609.4035,610.2632,62,25,0
610.386,610.86084,66,38,0
610.386,610.86084,62,38,0
610.871,611.34375,62,31,0
610.871,611.34375,71,31,0
610.871,611.34375,64,31,0
611.3538,611.815,69,37,0
611.3538,611.815,62,37,0
611.3538,611.815,64,37,0
611.82477,612.32196,64,29,0
611.82477,612.32196,62,29,0
611.82477,612.32196,71,29,0
612.3325,612.60284,61,36,0
612.3325,612.60284,64,36,0
612.6415,612.9182,64,29,0
612.6415,612.9182,61,29,0
612.959,613.2443,61,29,0
612.959,613.2443,64,29,0
613.2851,614.1448,69,32,0
613.2851,614.1448,61,20,0
614.2676,614.7404,69,50,0
614.2676,614.7404,61,50,0
614.7505,615.22345,73,40,0
614.7505,615.22345,61,40,0
615.2335,615.69855,71,42,0
615.2335,615.69855,61,42,0
615.70844,616.1658,73,42,0
615.70844,616.1658,61,42,0
616.1755,616.4404,74,48,0
616.1755,616.4404,62,48,0
616.1755,616.4404,69,48,0
616.4783,616.74744,69,40,0
616.4783,616.74744,74,40,0
616.4783,616.74744,62,40,0
616.7867,617.06146,62,40,0
616.7867,617.06146,69,40,0
616.7867,617.06146,74,40,0
617.1007,617.9604,74,36,0
617.1007,617.9604,69,36,0
617.1007,617.9604,62,36,0
618.0832,618.366,78,42,0
618.0832,618.366,66,42,0
618.0832,618.366,74,42,0
618.4065,618.6868,74,38,0
618.4065,618.6868,78,38,0
618.4065,618.6868,66,38,0
618.7264,619.0035,78,38,0
618.7264,619.0035,66,38,0
618.7264,619.0035,74,38,0
619.043,619.516,66,42,0
619.043,619.9758,74,42,0
619.043,619.9758,78,42,0
620.01746,620.28033,81,40,0
620.01746,620.28033,73,40,0
620.01746,620.28033,69,40,0
620.3179,620.5883,69,36,0
620.3179,620.5883,73,36,0
620.3179,620.5883,81,36,0
620.6284,620.90894,81,36,0
620.6284,620.90894,69,36,0
620.6284,620.90894,73,36,0
620.94904,621.80396,73,23,0
620.94904,621.80396,81,27,0
620.94904,621.80396,69,23,0
621.9252,622.38824,83,45,0
621.9252,622.38824,74,45,0
621.9252,622.38824,68,45,0
622.39813,622.867,71,36,0
622.39813,622.867,74,36,0
622.39813,622.867,80,36,0
622.877,623.34985,76,41,0
622.877,623.34985,71,41,0
623.3599,623.8389,74,34,0
623.3599,623.8389,69,34,0
623.8491,624.11096,69,35,0
623.8491,624.11096,73,35,0
624.1483,624.4129,73,27,0
624.1483,624.4129,69,27,0
624.4512,624.7193,69,26,0
624.4512,624.7193,73,26,0
624.7576,625.6018,73,23,0
624.7576,625.6018,69,19,0
625.72156,626.1827,83,44,0
625.72156,626.1827,74,44,0
625.72156,626.1827,68,44,0
626.1925,626.6595,74,33,0
626.1925,626.6595,71,33,0
626.1925,626.6595,80,33,0
626.66943,627.1423,76,38,0
626.66943,627.1423,71,38,0
627.15234,627.6293,69,33,0
627.15234,627.6293,74,33,0
627.6394,627.9002,69,35,0
627.6394,627.9002,73,35,0
627.9375,628.2014,73,31,0
627.9375,628.2014,69,31,0
628.23975,628.5079,69,28,0
628.23975,628.5079,73,28,0
628.54614,629.3985,73,23,0
628.54614,629.3985,69,19,0
629.52026,629.98724,69,35,0
629.9972,630.47424,69,26,0
629.9972,630.47424,73,31,0
630.4844,630.95337,71,35,0
630.4844,630.95337,69,29,0
630.9633,631.4506,73,33,0
630.9633,631.4506,69,27,0
631.46094,631.7238,76,34,0
631.46094,631.7238,69,34,0
631.76135,632.027,69,30,0
631.76135,632.027,76,30,0
632.0654,632.33466,76,29,0
632.0654,632.33466,69,29,0
632.3731,632.6126,69,18,0
632.3731,632.6126,75,24,0
633.3311,633.594,81,37,0
633.3311,633.594,93,37,0
633.3311,633.594,88,37,0
633.63153,633.8944,88,31,0
633.63153,633.8944,81,31,0
633.63153,633.8944,93,31,0
633.93195,634.1948,81,30,0
633.93195,634.1948,88,30,0
633.93195,634.1948,93,30,0
634.23236,634.65594,81,24,0
634.23236,634.65594,93,24,0
634.23236,634.65594,86,24,0
635.15656,635.4291,74,34,0
635.15656,635.4291,69,34,0
635.468,635.742,74,29,0
635.468,635.742,69,29,0
635.78143,636.0573,74,29,0
635.78143,636.0573,69,29,0
636.09674,636.53937,69,27,0
636.09674,636.53937,73,27,0
637.06244,637.3243,81,37,0
637.06244,637.3243,86,37,0
637.06244,637.3243,93,37,0
637.3617,637.62354,93,33,0
637.3617,637.62354,86,33,0
637.3617,637.62354,81,33,0
637.66095,637.9228,81,30,0
637.66095,637.9228,86,30,0
637.66095,637.9228,93,30,0
637.9602,638.4048,84,27,0
637.9602,638.4048,81,27,0
637.9602,638.4048,93,27,0
638.9302,639.1951,65,85,0
638.9302,639.1951,59,85,0
638.9302,639.1951,71,85,0
638.9302,639.1951,69,85,0
639.233,639.50024,59,79,0
639.233,639.50024,65,79,0
639.233,639.50024,71,79,0
639.233,639.50024,69,79,0
639.5389,639.80914,59,73,0
639.5389,639.80914,69,73,0
639.5389,639.80914,71,73,0
639.5389,639.80914,65,73,0
639.8478,640.29236,65,57,0
639.8478,640.29236,59,57,0
639.8478,640.29236,71,57,0
639.8478,640.29236,69,57,0
640.8178,641.28284,83,55,0
640.8178,641.28284,81,46,0
640.8178,641.28284,78,46,0
641.2927,641.752,81,37,0
641.2927,641.752,76,37,0
641.2927,641.752,85,46,0
641.76184,642.2174,86,50,0
641.76184,642.2174,81,42,0
641.76184,642.2174,74,42,0
642.22705,642.70776,81,37,0
642.22705,642.70776,76,37,0
642.22705,642.70776,85,46,0
642.718,642.9788,76,50,0
642.718,642.9788,81,50,0
642.718,642.9788,88,50,0
643.01605,643.27954,81,42,0
643.01605,643.27954,88,42,0
643.01605,643.27954,76,42,0
643.3177,643.5848,76,41,0
643.3177,643.5848,81,41,0
643.3177,643.5848,88,41,0
643.6229,644.0638,76,23,0
643.6229,644.0638,88,23,0
643.6229,644.0638,80,28,0
644.59424,644.86237,73,37,0
644.59424,644.86237,69,37,0
644.9007,645.1707,69,30,0
644.9007,645.1707,73,30,0
645.2096,645.4821,73,29,0
645.2096,645.4821,69,29,0
645.52106,645.95465,73,23,0
645.52106,645.95465,69,23,0
646.4853,646.74713,59,85,0
646.4853,646.74713,69,85,0
646.4853,646.74713,71,85,0
646.4853,646.74713,65,85,0
646.78455,647.0464,69,79,0
646.78455,647.0464,59,79,0
646.78455,647.0464,65,79,0
646.78455,647.0464,71,79,0
647.08374,647.3456,71,72,0
647.08374,647.3456,59,72,0
647.08374,647.3456,65,72,0
647.08374,647.3456,69,72,0
647.383,647.81165,59,56,0
647.383,647.81165,71,56,0
647.383,647.81165,69,56,0
647.383,647.81165,65,56,0
648.3182,648.7813,81,46,0
648.3182,648.7813,83,55,0
648.3182,648.7813,78,46,0
648.79114,649.25226,85,49,0
648.79114,649.25226,76,41,0
648.79114,649.25226,81,41,0
649.2621,649.7138,81,44,0
649.2621,649.7138,74,44,0
649.2621,649.7138,86,53,0
649.7234,650.20605,85,47,0
649.7234,650.20605,76,39,0
649.7234,650.20605,81,39,0
650.2163,650.4802,81,50,0
650.2163,650.4802,76,50,0
650.2163,650.4802,88,50,0
650.51794,650.78186,76,47,0
650.51794,650.78186,81,47,0
650.51794,650.78186,88,47,0
650.8195,651.08344,88,47,0
650.8195,651.08344,81,47,0
650.8195,651.08344,76,47,0
651.12115,651.56573,80,33,0
651.12115,651.56573,76,26,0
651.12115,651.56573,88,27,0
652.0912,652.346,57,95,0
652.0912,652.346,69,106,0
652.38245,652.6468,69,97,0
652.38245,652.6468,57,88,0
652.68634,652.96344,69,86,0
652.68634,652.96344,57,78,0
653.003,653.4476,69,77,0
653.003,653.4476,57,69,0
653.973,654.43854,61,36,0
653.973,654.43854,64,36,0
654.4484,654.90967,73,30,0
654.4484,654.90967,61,30,0
654.9195,655.3749,61,37,0
654.9195,655.3749,71,37,0
655.3846,655.87964,73,30,0
655.3846,655.87964,61,30,0
655.89014,656.7759,76,39,0
655.89014,656.7759,65,24,0
655.89014,656.7759,73,39,0
656.8144,657.05194,74,23,0
656.8144,657.05194,71,23,0
656.8144,657.05194,65,22,0
657.76465,658.6608,73,39,0
657.76465,658.6608,64,29,0
657.76465,658.6608,76,39,0
658.6998,658.9443,74,23,0
658.6998,658.9443,71,23,0
658.6998,658.9443,64,19,0
659.67755,659.93634,69,95,0
659.67755,659.93634,81,106,0
659.9733,660.23846,81,100,0
659.9733,660.23846,69,89,0
660.2775,660.55115,81,94,0
660.2775,660.55115,69,84,0
660.5903,661.03674,81,74,0
660.5903,661.03674,69,67,0
661.5644,662.0314,64,38,0
661.5644,662.0314,61,38,0
662.04126,662.50244,73,31,0
662.04126,662.50244,61,31,0
662.51227,662.96765,61,42,0
662.51227,662.96765,71,42,0
662.9773,663.4724,61,38,0
662.9773,663.4724,73,38,0
663.4829,664.3531,78,44,0
663.4829,664.3531,74,44,0
663.4829,664.3531,66,37,0
664.3909,664.742,74,23,0
664.3909,664.742,66,19,0
664.3909,664.742,71,23,0
665.32715,666.1973,76,41,0
665.32715,666.1973,64,35,0
665.32715,666.1973,73,41,0
666.23517,666.5815,74,25,0
666.23517,666.5815,64,24,0
666.23517,666.5815,71,25,0
667.1577,668.0086,64,35,0
667.1577,668.0086,74,41,0
667.1577,668.0086,71,35,0
668.0456,668.3761,72,25,0
668.0456,668.3761,69,23,0
668.0456,668.3761,64,23,0
668.927,669.7779,65,36,0
668.927,669.7779,62,36,0
668.927,669.7779,72,42,0
669.8149,670.1418,70,25,0
669.8149,670.1418,65,23,0
669.8149,670.1418,62,24,0
670.68665,671.5839,64,35,0
670.68665,671.5839,70,41,0
670.68665,671.6229,60,35,0
671.6229,671.98676,60,20,0
671.6229,671.98676,69,25,0
671.6229,672.59314,64,39,0
672.59314,673.543,63,37,0
673.543,673.9011,64,35,0
676.4077,677.3413,64,29,0
676.4077,677.3413,69,29,0
676.4077,677.3819,59,41,0
677.3819,677.8195,68,25,0
677.3819,677.8195,59,25,0
677.3819,678.3368,64,39,0
678.3368,679.2867,63,37,0
679.2867,679.652,64,35,0
682.107,684.4147,66,28,0
682.107,684.4147,63,28,0
682.107,684.4147,57,28,0
685.7993,688.107,57,28,0
685.7993,688.107,63,28,0
685.7993,688.107,66,28,0
689.4916,690.38947,75,34,0
689.4916,690.38947,63,34,0
690.38947,690.56464,72,25,0
690.38947,690.56464,60,25,0
691.32385,692.218,63,31,0
691.32385,692.218,75,31,0
692.218,692.3932,72,25,0
692.218,692.3932,60,25,0
693.1524,693.59265,63,36,0
693.1524,693.59265,75,36,0
693.59265,693.75964,72,34,0
693.59265,693.75964,60,34,0
694.03796,694.47485,75,46,0
694.03796,694.47485,63,46,0
694.47485,694.64056,72,40,0
694.47485,694.64056,60,40,0
694.9168,695.35034,75,59,0
694.9168,695.35034,63,59,0
695.35034,695.51416,60,57,0
695.35034,695.51416,72,57,0
695.78723,696.2191,75,71,0
695.78723,696.2191,63,71,0
696.2191,696.38745,60,66,0
696.2191,696.38745,72,66,0
696.66797,696.7776,64,92,0
696.7776,696.8866,76,82,0
696.8866,696.99896,64,78,0
696.99896,697.1078,76,74,0
697.1078,697.2167,64,69,0
697.2167,697.3275,76,66,0
697.3275,697.43646,64,62,0
697.43646,697.54425,76,60,0
697.54425,697.6537,64,70,0
697.6537,697.764,76,67,0
697.764,697.8711,64,65,0
697.8711,697.9807,76,62,0
697.9807,698.09106,64,70,0
698.09106,698.1971,76,67,0
698.1971,698.3048,64,64,0
698.3048,698.4143,76,61,0
698.4143,698.5205,61,96,0
698.5205,698.627,73,84,0
698.627,698.7361,61,79,0
698.7361,698.8441,73,74,0
698.8441,698.95166,61,69,0
698.95166,699.06274,73,65,0
699.06274,699.1725,61,62,0
699.1725,699.2799,73,55,0
699.2799,699.3886,61,73,0
699.3886,699.49915,73,69,0
699.49915,699.6075,61,66,0
699.6075,699.71436,73,56,0
699.71436,699.82184,61,72,0
699.82184,699.92993,73,69,0
699.92993,700.04004,61,66,0
700.04004,700.1691,73,63,0
700.1691,700.5994,88,102,0
700.1691,700.5994,76,102,0
700.5994,700.76514,85,94,0
700.5994,700.76514,73,94,0
701.0413,701.4765,76,101,0
701.0413,701.4765,88,101,0
701.4765,701.64417,81,94,0
701.4765,701.64417,93,94,0
701.9236,702.3796,88,93,0
701.9236,702.3796,76,93,0
702.3796,702.55585,85,86,0
702.3796,702.55585,73,86,0
702.84955,703.34064,69,78,0
702.84955,703.34064,81,78,0
703.34064,703.548,64,68,0
703.34064,703.548,76,68,0
703.89355,705.8185,73,34,0
703.89355,705.8185,69,34,0
703.89355,705.8185,61,34,0
705.8185,707.7434,68,38,0
705.8185,707.7434,76,38,0
705.8185,707.7434,62,38,0
707.7434,707.84863,64,97,0
707.84863,707.9538,76,90,0
707.9538,708.059,64,86,0
708.059,708.1642,76,83,0
708.1642,708.2694,61,88,0
708.2694,708.3746,73,85,0
708.3746,708.4798,61,82,0
708.4798,708.58496,73,78,0
708.58496,708.6883,64,87,0
708.6883,708.79156,76,85,0
708.79156,708.8949,64,83,0
708.8949,708.99817,76,80,0
708.99817,709.1015,69,89,0
709.1015,709.2048,81,86,0
709.2048,709.3081,69,84,0
709.3081,709.4109,81,81,0
709.4109,709.5138,73,94,0
709.5138,709.6165,85,92,0
709.6165,709.71893,73,90,0
709.71893,709.8211,85,88,0
709.8211,709.923,76,102,0
709.923,710.02454,88,98,0
710.02454,710.1259,76,94,0
710.1259,710.227,88,90,0
710.227,710.329,81,109,0
710.329,710.43353,93,100,0
710.43353,710.5385,81,94,0
710.5385,710.64624,93,88,0
710.64624,710.75977,76,83,0
710.75977,710.87683,88,77,0
710.87683,710.9967,76,70,0
710.9967,711.16925,88,60,0
711.16925,713.0942,73,35,0
711.16925,713.0942,61,35,0
711.16925,713.0942,69,35,0
713.0942,715.0191,62,36,0
713.0942,715.0191,76,43,0
713.0942,715.0191,68,36,0
715.0191,715.91815,61,34,0
715.0191,715.91815,49,34,0
715.9573,716.3226,49,21,0
715.9573,716.3226,57,21,0
716.93134,717.80536,88,42,0
716.93134,717.80536,80,42,0
716.93134,717.80536,74,42,0
717.8433,718.20404,74,28,0
717.8433,718.20404,80,28,0
718.8052,719.708,61,34,0
718.8052,719.708,49,34,0
719.74725,720.10944,57,23,0
719.74725,720.10944,49,23,0
720.71313,721.5977,80,42,0
720.71313,721.5977,88,42,0
720.71313,721.5977,74,42,0
721.6362,721.99243,80,28,0
721.6362,721.99243,74,28,0
722.5861,723.4815,61,34,0
722.5861,723.4815,49,34,0
723.52045,723.88116,57,20,0
723.52045,723.88116,49,20,0
724.4823,725.346,88,42,0
724.4823,725.346,80,42,0
724.4823,725.346,74,42,0
725.38354,725.73395,74,26,0
725.38354,725.73395,80,26,0
726.31793,727.1816,88,42,0
726.31793,727.1816,80,42,0
726.31793,727.1816,74,42,0
727.2192,727.5695,74,28,0
727.2192,727.5695,80,28,0
728.1535,729.0172,74,42,0
728.1535,729.0172,80,42,0
728.1535,729.0172,88,42,0
729.05475,729.40515,80,28,0
729.05475,729.40515,74,28,0
729.98914,733.8365,85,98,0
729.98914,733.8365,73,98,0
733.8365,737.6839,81,38,0
733.8365,737.6839,69,24,0
737.6839,738.7335,52,24,0
737.6839,738.7335,49,24,0
737.6839,738.7335,61,30,0
737.6839,738.7335,57,24,0
738.7792,739.91,61,30,0
738.7792,739.91,49,24,0
738.7792,739.91,52,24,0
738.7792,739.91,57,24,0
739.9591,744.53754,49,24,0
739.9591,744.53754,52,24,0
739.9591,744.53754,61,30,0
739.9591,744.53754,57,24,0
0.0010443645,1.00363,57,42,0
1.00259,2.00101,64,42,0
2.00101,2.971256,63,44,0
2.971256,3.176696,64,38,0
3.464312,3.8614423,60,39,0
3.8399277,3.9891477,59,39,0
3.9690156,4.9353557,57,38,0
4.9353557,5.9379454,52,52,0
5.9379454,6.9204254,48,47,0
6.9204254,7.110347,45,39,0
7.9333396,8.935929,45,42,0
8.935929,9.906176,38,45,0
9.906176,10.832959,37,48,0
10.832959,11.041832,38,42,0
11.329146,11.72274,45,44,0
11.70159,11.849037,47,45,0
11.828493,12.814605,48,45,0
12.814605,13.817195,40,47,0
13.817195,14.799675,36,45,0
14.799675,15.012586,33,41,0
15.821647,16.803804,41,35,0
15.821647,16.803804,45,35,0
15.821647,16.803804,38,35,0
16.803804,16.929129,33,33,0
17.806395,18.772736,40,36,0
17.806395,18.772736,45,36,0
17.806395,18.772736,36,36,0
18.772736,18.89702,33,35,0
19.755,20.699318,38,36,0
19.755,20.699318,45,36,0
19.755,20.699318,41,36,0
20.699318,20.817076,33,34,0
21.649239,22.567652,45,36,0
21.649239,22.567652,40,36,0
21.649239,22.567652,36,36,0
22.567652,22.770607,33,34,0
23.528416,24.426285,45,37,0
23.528416,24.426285,41,37,0
23.528416,24.426285,38,37,0
24.426285,24.631723,33,35,0
25.380878,26.278746,45,36,0
25.380878,26.278746,40,36,0
25.380878,26.278746,36,36,0
26.278746,26.480066,33,33,0
27.219337,28.143185,50,45,0
27.219337,28.143185,57,45,0
27.219337,28.143185,53,45,0
28.143185,28.260454,45,35,0
29.085226,29.977818,57,41,0
29.085226,29.979681,52,41,0
29.085226,29.979681,48,41,0
29.979681,30.177044,45,36,0
30.909073,31.820719,55,70,0
30.909073,31.820719,52,70,0
30.909073,31.820719,47,70,0
31.820719,31.995584,43,54,0
32.76447,33.65747,42,63,0
32.76447,33.65747,54,71,0
32.76447,33.65747,51,63,0
33.73865,34.60705,59,61,0
33.73865,34.60705,51,54,0
33.73865,34.60705,47,54,0
34.685997,35.61278,43,49,0
34.685997,35.61278,55,49,0
35.61278,35.815735,40,42,0
35.61278,35.815735,52,42,0
36.586964,37.476357,39,26,0
36.586964,37.476357,42,26,0
36.586964,37.476357,30,26,0
37.557213,38.42898,47,24,0
37.557213,38.42898,39,24,0
37.557213,38.42898,35,24,0
38.508232,39.446392,31,30,0
38.508232,39.446392,43,30,0
39.446392,39.647713,40,27,0
39.446392,39.647713,28,27,0
40.41273,41.402332,40,30,0
41.384136,41.51193,41,23,0
41.493954,41.62015,40,27,0
41.60174,41.729515,41,25,0
41.71158,41.839638,40,29,0
41.82101,41.949238,41,22,0
41.93131,42.05743,40,27,0
42.039143,42.167282,41,23,0
42.14944,42.274307,40,31,0
42.25618,42.38079,41,28,0
42.36302,42.48769,40,31,0
42.47011,42.594814,41,25,0
42.576687,42.701607,40,34,0
42.68407,42.807358,41,30,0
42.789516,42.91596,40,34,0
42.89785,43.024986,41,29,0
43.006355,43.134544,40,34,0
43.116547,43.245,41,28,0
43.226467,43.35352,40,34,0
43.335594,43.463493,41,29,0
43.44506,43.57197,40,34,0
43.553978,43.681522,41,29,0
43.663036,43.792805,40,34,0
43.774273,43.90188,41,30,0
43.88399,44.00733,40,39,0
43.98955,44.114746,41,33,0
44.096973,44.220398,40,39,0
44.202652,44.32822,41,33,0
44.31025,44.434048,40,39,0
44.41658,44.540386,41,33,0
44.52232,44.64848,40,40,0
44.630615,44.756477,41,35,0
44.738148,44.86688,40,40,0
44.84808,44.97851,41,35,0
44.960327,45.087994,40,41,0
45.069344,45.200363,41,34,0
45.181805,45.31001,40,41,0
45.291805,45.423866,41,36,0
45.404892,45.535908,40,42,0
45.517418,45.646328,41,37,0
45.628212,45.755245,40,47,0
45.736767,45.865784,41,39,0
45.84753,45.97459,40,47,0
45.956112,46.08493,41,39,0
46.06684,46.19307,40,48,0
46.17487,46.305702,41,40,0
46.2865,46.421757,40,48,0
46.40241,46.53793,41,42,0
46.518578,46.6541,40,49,0
46.634678,46.770706,41,43,0
46.75121,46.887756,40,54,0
46.868187,47.005257,41,48,0
46.98561,47.12413,40,62,0
47.1041,47.245754,41,63,0
47.225243,47.37948,40,71,0
47.355648,47.54907,44,79,0
47.528004,48.539043,45,80,0
47.528004,48.539043,33,80,0
48.539043,49.537464,52,76,0
48.539043,49.537464,40,76,0
49.537464,50.489845,39,73,0
49.537464,50.489845,51,73,0
50.489845,50.74049,52,66,0
50.489845,50.74049,40,66,0
50.99114,51.224747,64,48,0
50.99114,51.224747,52,48,0
51.341553,51.427395,62,46,0
51.341553,51.427395,50,46,0
51.456013,51.688824,48,48,0
51.456013,51.688824,60,48,0
51.80523,51.89107,47,46,0
51.80523,51.89107,59,46,0
51.91969,52.151493,45,43,0
51.91969,52.151493,57,43,0
52.267395,52.352894,56,42,0
52.267395,52.352894,44,42,0
52.381393,52.613197,45,46,0
52.381393,52.613197,57,46,0
52.7291,52.814598,43,40,0
52.7291,52.814598,55,40,0
52.843098,53.073917,41,46,0
52.843098,53.073917,53,46,0
53.18933,53.274494,40,42,0
53.18933,53.274494,52,42,0
53.30288,53.532696,41,48,0
53.30288,53.532696,53,48,0
53.647602,53.73243,44,46,0
53.647602,53.73243,56,46,0
53.760708,53.98956,57,48,0
53.760708,53.98956,45,48,0
54.103985,54.188145,59,46,0
54.103985,54.188145,47,46,0
54.2162,54.44505,60,52,0
54.2162,54.44505,48,52,0
54.559475,54.642982,62,48,0
54.559475,54.642982,50,48,0
54.67082,54.801083,48,53,0
54.67082,54.801083,60,53,0
55.191875,56.215767,45,90,0
56.215767,57.218357,45,86,0
56.215767,57.218357,38,86,0
57.218357,58.174534,37,71,0
58.174534,58.431602,38,71,0
57.218357,58.431602,45,71,0
58.68867,58.922188,69,53,0
58.68867,58.922188,57,53,0
59.038948,59.124447,67,52,0
59.038948,59.124447,55,52,0
59.152946,59.384678,65,48,0
59.152946,59.384678,53,48,0
59.500546,59.585037,64,46,0
59.500546,59.585037,52,46,0
59.6132,59.844933,50,43,0
59.6132,59.844933,62,43,0
59.960796,60.04596,61,42,0
59.960796,60.04596,49,42,0
60.07435,60.30411,62,46,0
60.07435,60.30411,50,46,0
60.41899,60.502823,60,40,0
60.41899,60.502823,48,40,0
60.530766,60.75953,58,46,0
60.530766,60.75953,46,46,0
60.87391,60.958073,45,42,0
60.87391,60.958073,57,42,0
60.986126,61.21297,46,47,0
60.986126,61.21297,58,47,0
61.32639,61.409252,49,46,0
61.32639,61.409252,61,46,0
61.43687,61.660885,50,48,0
61.43687,61.660885,62,48,0
61.772892,61.8569,52,46,0
61.772892,61.8569,64,46,0
61.8849,62.108913,65,52,0
61.8849,62.108913,53,52,0
62.22092,62.304928,67,48,0
62.22092,62.304928,55,48,0
62.332928,62.459034,65,53,0
62.332928,62.459034,53,53,0
62.837345,63.803684,62,96,0
62.837345,63.803684,55,86,0
62.837345,63.803684,58,96,0
62.837345,63.803684,50,86,0
63.803684,63.99167,50,81,0
63.803684,63.99167,38,72,0
64.806274,65.77261,57,95,0
64.806274,65.77261,50,85,0
64.806274,65.77261,53,85,0
64.806274,65.77261,62,95,0
65.77261,65.956,38,72,0
65.77261,65.956,50,81,0
66.74482,67.68908,50,77,0
66.74482,67.68908,55,77,0
66.74482,67.68908,58,86,0
66.74482,67.68908,62,86,0
67.68908,67.86498,50,69,0
67.68908,67.86498,38,62,0
68.62087,69.506004,62,82,0
68.62087,69.50877,53,73,0
68.62087,69.50877,57,82,0
68.62087,69.50877,50,73,0
69.50877,69.7069,50,74,0
69.50877,69.7069,38,66,0
70.4598,71.344925,62,82,0
70.4598,71.3477,50,73,0
70.4598,71.3477,55,73,0
70.4598,71.3477,58,82,0
71.3477,71.54583,38,66,0
71.3477,71.54583,50,74,0
72.29314,73.17826,62,83,0
72.29314,73.18104,53,74,0
72.29314,73.18104,57,83,0
72.29314,73.18104,50,74,0
73.18104,73.379974,38,65,0
73.18104,73.379974,50,73,0
74.12119,75.04359,58,84,0
74.12119,75.04359,50,75,0
74.12119,75.04359,55,75,0
74.12119,75.04359,62,84,0
75.04359,75.21528,50,74,0
75.04359,75.21528,38,66,0
75.965675,76.84109,62,84,0
75.965675,76.843834,50,75,0
75.965675,76.843834,57,84,0
75.965675,76.843834,53,75,0
76.843834,77.038124,50,74,0
76.843834,77.038124,38,66,0
77.76756,78.675606,48,72,0
77.76756,78.675606,52,72,0
77.76756,78.675606,57,81,0
77.76756,78.675606,60,81,0
78.675606,78.8466,36,63,0
78.675606,78.8466,48,71,0
79.62466,80.550735,59,83,0
79.62466,80.550735,56,83,0
79.62466,80.550735,47,74,0
80.590996,81.491684,56,76,0
80.590996,81.491684,52,68,0
80.590996,81.491684,64,76,0
81.530846,82.457634,60,79,0
81.530846,82.457634,48,71,0
82.457634,82.665634,57,73,0
82.457634,82.665634,45,65,0
83.456055,84.41287,35,40,0
83.456055,84.41287,47,40,0
83.456055,84.41287,44,40,0
84.45447,85.38429,52,37,0
84.45447,85.38429,44,37,0
84.45447,85.38429,40,37,0
85.42472,86.35908,36,37,0
85.42472,86.35908,48,37,0
86.35908,86.56121,33,37,0
86.35908,86.56121,45,37,0
87.32932,88.24501,46,31,0
87.32932,88.24501,34,31,0
88.24501,88.42459,43,24,0
88.24501,88.42459,31,24,0
89.20278,90.11847,46,30,0
89.20278,90.11847,34,30,0
90.11847,90.29657,43,22,0
90.11847,90.29657,31,22,0
91.06836,91.980354,34,30,0
91.06836,91.980354,46,30,0
91.980354,92.15482,43,23,0
91.980354,92.15482,31,23,0
92.91087,93.81212,46,31,0
92.91087,93.81212,34,31,0
93.81212,93.981094,43,26,0
93.81212,93.981094,31,26,0
94.713356,94.82269,35,68,0
94.82269,94.93167,47,55,0
94.93167,95.044044,35,54,0
95.044044,95.152855,47,52,0
95.152855,95.26174,35,51,0
95.26174,95.37261,47,49,0
95.37261,95.481575,35,48,0
95.481575,95.58934,47,46,0
95.58934,95.69875,35,49,0
95.69875,95.809074,47,48,0
95.809074,95.916176,35,47,0
95.916176,96.02582,47,45,0
96.02582,96.13616,35,51,0
96.13616,96.24219,47,47,0
96.24219,96.34989,35,44,0
96.34989,96.45938,47,43,0
96.45938,96.56562,32,64,0
96.56562,96.67208,44,53,0
96.67208,96.78119,32,50,0
96.78119,96.889175,44,46,0
96.889175,96.99673,32,57,0
96.99673,97.107834,44,53,0
97.107834,97.217575,32,52,0
97.217575,97.324974,44,51,0
97.324974,97.43371,32,59,0
97.43371,97.544266,44,54,0
97.544266,97.652565,32,53,0
97.652565,97.75947,44,39,0
97.75947,97.86691,32,59,0
97.86691,97.97502,44,58,0
97.97502,98.085144,32,56,0
98.085144,98.214195,44,54,0
98.214195,98.66129,47,79,0
98.214195,98.66129,59,79,0
98.66129,98.832985,44,69,0
98.66129,98.832985,56,69,0
99.11913,99.568,47,79,0
99.11913,99.568,59,79,0
99.568,99.74108,64,69,0
99.568,99.74108,52,69,0
100.02954,100.48875,47,75,0
100.02954,100.48875,59,75,0
100.48875,100.66497,44,70,0
100.48875,100.66497,56,70,0
100.95867,101.44975,40,69,0
100.95867,101.44975,52,69,0
101.44975,101.6882,35,60,0
101.44975,101.6882,47,60,0
102.08561,105.93529,47,27,0
102.08561,105.93529,35,27,0
105.93529,106.04049,35,81,0
106.04049,106.14568,47,50,0
106.14568,106.25088,35,63,0
106.25088,106.35608,47,48,0
106.35608,106.46127,32,72,0
106.46127,106.56647,44,52,0
106.56647,106.67167,32,58,0
106.67167,106.77686,44,46,0
106.77686,106.880165,35,72,0
106.880165,106.98346,47,53,0
106.98346,107.08676,35,60,0
107.08676,107.190056,47,45,0
107.190056,107.29336,40,72,0
107.29336,107.39665,52,53,0
107.39665,107.499954,40,62,0
107.499954,107.60276,52,48,0
107.60276,107.70569,44,77,0
107.70569,107.80838,56,60,0
107.80838,107.91082,44,68,0
107.91082,108.01301,56,55,0
108.01301,108.114845,47,79,0
108.114845,108.21644,59,57,0
108.21644,108.31779,47,66,0
108.31779,108.4189,59,51,0
108.4189,108.520874,52,88,0
108.520874,108.625435,64,57,0
108.625435,108.73038,52,74,0
108.73038,108.83811,64,57,0
108.83811,108.95165,47,73,0
108.95165,109.068695,59,48,0
109.068695,109.18857,47,58,0
109.18857,109.36112,59,47,0
109.36112,113.2085,35,37,0
109.36112,113.2085,47,37,0
113.2085,114.19394,40,20,0
113.2085,114.19394,47,20,0
114.236786,115.13653,40,19,0
114.236786,115.13653,47,19,0
115.26506,115.73596,40,20,0
115.26506,115.73596,47,20,0
115.74599,116.20721,47,16,0
115.74599,116.20721,40,16,0
116.21702,116.69408,47,19,0
116.21702,116.69408,40,19,0
116.70422,117.195076,47,15,0
116.70422,117.195076,40,15,0
117.20552,118.150314,49,23,0
117.20552,118.150314,40,23,0
118.19139,119.05403,40,17,0
118.19139,119.05403,49,17,0
119.17726,119.65216,40,20,0
119.17726,119.65216,49,20,0
119.66227,120.13506,40,15,0
119.66227,120.13506,51,15,0
120.14513,120.60627,49,19,0
120.14513,120.60627,40,19,0
120.61608,121.11325,51,15,0
120.61608,121.11325,40,15,0
121.123825,122.06862,40,23,0
121.123825,122.06862,52,23,0
122.109695,122.972336,40,17,0
122.109695,122.972336,47,17,0
123.095566,123.56844,40,23,0
123.095566,123.56844,47,23,0
123.57851,124.05145,40,18,0
123.57851,124.05145,47,18,0
124.061516,124.52657,47,24,0
124.061516,124.52657,40,24,0
124.53646,124.99377,40,18,0
124.53646,124.99377,47,18,0
125.0035,125.94829,40,25,0
125.0035,125.94829,49,25,0
125.98937,126.852005,40,19,0
125.98937,126.852005,49,19,0
126.97524,127.46013,49,36,0
127.46013,127.935074,52,33,0
127.935074,128.41809,57,37,0
128.41809,128.90111,61,39,0
126.97524,128.90111,40,30,0
128.90111,129.8459,52,26,0
128.90111,129.8459,59,26,0
129.88698,130.74358,52,20,0
129.88698,130.74358,59,20,0
130.86479,131.32594,59,22,0
130.86479,131.32594,52,22,0
131.33575,131.80478,59,18,0
131.33575,131.80478,52,18,0
131.81476,132.27206,52,20,0
131.81476,132.27206,63,20,0
132.2818,132.75075,61,18,0
132.2818,132.75075,52,18,0
132.76071,133.69386,59,24,0
132.76071,133.69386,52,24,0
133.73444,134.58047,59,15,0
133.73444,134.58047,52,15,0
134.70021,135.16136,59,22,0
134.70021,135.16136,52,22,0
135.17117,135.63814,59,17,0
135.17117,135.63814,52,17,0
135.64809,136.10724,52,20,0
135.64809,136.10724,63,20,0
136.11702,136.58398,52,18,0
136.11702,136.58398,61,18,0
136.59392,137.53094,59,29,0
136.59392,137.53094,52,24,0
137.57169,138.42722,59,15,0
137.57169,138.42722,52,15,0
138.54944,139.0164,52,25,0
138.54944,139.0164,56,25,0
139.02634,139.5034,52,23,0
139.02634,139.5034,59,23,0
139.51355,139.9825,57,25,0
139.51355,139.9825,52,25,0
139.99248,140.49185,52,24,0
139.99248,140.49185,59,24,0
140.50247,141.43948,61,25,0
140.50247,141.43948,52,25,0
141.48022,141.71973,61,15,0
141.48022,141.71973,52,15,0
142.43823,143.34517,64,22,0
142.43823,143.34517,72,22,0
143.3846,143.8082,72,9,0
143.3846,143.8082,64,8,0
144.30882,145.21576,52,25,0
144.30882,145.21576,59,25,0
145.25519,145.69781,52,9,0
145.25519,145.69781,59,11,0
146.22092,147.15405,71,22,0
146.22092,147.15405,64,22,0
147.19463,147.6409,64,11,0
147.19463,147.6409,71,11,0
148.16833,149.10147,33,62,0
148.16833,149.10147,45,62,0
149.14204,149.58832,33,45,0
149.14204,149.58832,45,45,0
150.11575,150.5749,57,39,0
150.11575,150.5749,64,39,0
150.11575,150.5749,66,39,0
150.58469,151.04199,68,34,0
150.58469,151.04199,64,34,0
150.58469,151.04199,59,34,0
151.05171,151.50153,61,37,0
151.05171,151.50153,64,37,0
151.5111,151.99179,59,36,0
151.5111,151.99179,68,36,0
151.5111,151.99179,64,36,0
152.00201,152.92378,69,36,0
152.00201,152.92378,59,36,0
152.00201,152.92378,66,36,0
152.96387,153.40471,69,17,0
152.96387,153.40471,66,17,0
152.96387,153.40471,59,17,0
153.93517,154.84167,52,27,0
153.93517,154.84167,59,27,0
154.88109,155.31464,52,23,0
154.88109,155.31464,59,16,0
155.84529,156.75937,33,67,0
155.84529,156.75937,45,67,0
156.79912,157.22772,45,49,0
156.79912,157.22772,33,49,0
157.73427,158.19211,57,39,0
157.73427,158.19211,64,39,0
157.73427,158.19211,66,39,0
158.20186,158.66301,59,36,0
158.20186,158.66301,68,36,0
158.20186,158.66301,64,36,0
158.67282,159.1245,61,39,0
158.67282,159.1245,64,39,0
159.13411,159.61678,64,36,0
159.13411,159.61678,68,36,0
159.13411,159.61678,59,36,0
159.62704,160.56018,59,36,0
159.62704,160.56018,69,36,0
159.62704,160.56018,66,36,0
160.60075,161.04703,66,17,0
160.60075,161.04703,69,17,0
160.60075,161.04703,59,17,0
161.57446,162.5076,40,84,0
162.54817,162.99445,40,52,0
163.52188,163.9881,47,22,0
163.52188,163.9881,40,22,0
163.99799,164.45715,40,17,0
163.99799,164.45715,47,17,0
164.46692,164.92232,47,20,0
164.46692,164.92232,40,20,0
164.932,165.42708,47,16,0
164.932,165.42708,40,16,0
165.4376,166.3233,48,16,0
165.4376,166.3233,40,16,0
166.36182,166.59938,40,8,0
166.36182,166.59938,48,8,0
167.31209,168.20828,51,23,0
167.31209,168.20828,40,23,0
168.24725,168.49168,40,9,0
168.24725,168.49168,51,9,0
169.225,170.13531,52,82,0
169.225,170.13531,40,82,0
170.1749,170.62137,52,44,0
170.1749,170.62137,40,44,0
171.149,171.61598,47,25,0
171.149,171.61598,40,25,0
171.62592,172.08707,47,18,0
171.62592,172.08707,40,18,0
172.09688,172.55226,40,25,0
172.09688,172.55226,47,25,0
172.56195,173.05702,40,17,0
172.56195,173.05702,47,17,0
173.06757,173.93771,40,24,0
173.06757,173.93771,45,24,0
173.97556,174.20961,49,18,0
173.97556,174.20961,40,13,0
174.9118,175.78197,47,25,0
174.9118,175.78197,40,25,0
175.8198,176.05087,51,22,0
175.8198,176.05087,40,16,0
176.74234,177.59926,40,25,0
176.74234,177.59926,52,25,0
177.63652,177.85687,52,14,0
177.63652,177.85687,40,5,0
178.5179,179.37823,48,25,0
178.5179,179.37823,45,25,0
179.41563,179.6349,48,14,0
179.41563,179.6349,45,14,0
180.2927,181.15315,48,25,0
181.19057,181.41588,48,16,0
182.09181,182.95227,50,25,0
182.09181,182.95227,38,25,0
182.98967,183.21414,38,15,0
182.98967,183.21414,50,15,0
183.88754,184.78479,40,24,0
183.88754,184.82379,45,24,0
184.82379,185.06636,40,14,0
184.82379,185.79405,52,39,0
185.79405,186.71947,51,37,0
186.71947,186.95819,52,35,0
189.58412,190.51772,40,19,0
189.58412,190.5583,47,33,0
190.5583,190.99596,40,12,0
190.5583,191.51318,52,39,0
191.51318,192.4458,51,37,0
192.4458,192.68935,52,35,0
195.36835,196.37094,57,42,0
196.37094,197.36937,64,42,0
197.36937,198.33961,63,44,0
198.33961,198.54504,64,38,0
198.83267,199.22774,60,39,0
199.20663,199.35304,59,39,0
199.33325,200.28314,57,38,0
200.28314,201.28574,52,52,0
201.28574,202.2682,48,47,0
202.2682,202.45813,45,39,0
203.28113,204.2837,45,42,0
204.2837,205.25397,38,45,0
205.25397,206.18074,37,50,0
206.18074,206.38962,38,42,0
206.67693,207.07053,45,44,0
207.04938,207.19656,47,45,0
207.17628,208.15039,48,45,0
208.15039,209.15297,40,52,0
209.15297,210.13545,36,45,0
210.13545,210.34836,33,41,0
211.15742,212.13959,45,35,0
211.15742,212.13959,41,35,0
211.15742,212.13959,38,35,0
212.13959,212.26491,33,33,0
213.14217,214.10852,45,36,0
213.14217,214.10852,40,36,0
213.14217,214.10852,36,36,0
214.10852,214.2328,33,35,0
215.08658,216.02101,45,36,0
215.08658,216.02101,41,36,0
215.08658,216.02101,38,36,0
216.02101,216.13925,33,34,0
216.97287,217.89128,45,36,0
216.97287,217.89128,40,36,0
216.97287,217.89128,36,36,0
217.89128,218.09424,33,34,0
218.85725,219.75513,45,37,0
218.85725,219.75513,41,37,0
218.85725,219.75513,38,37,0
219.75513,219.96057,33,35,0
220.71536,221.61324,45,36,0
220.71536,221.61324,40,36,0
220.71536,221.61324,36,36,0
221.61324,221.81456,33,33,0
222.55382,223.47293,57,51,0
222.55382,223.47293,53,51,0
222.55382,223.47293,50,51,0
223.47293,223.59021,45,35,0
224.41498,225.30664,57,41,0
224.41498,225.30943,52,41,0
224.41498,225.30943,48,41,0
225.30943,225.50679,45,36,0
226.23372,227.14537,55,57,0
226.23372,227.14537,52,57,0
226.23372,227.14537,47,57,0
227.14537,227.31914,43,54,0
228.08765,228.98065,54,66,0
228.08765,228.98065,51,59,0
228.08765,228.98065,42,59,0
229.06184,229.93024,59,55,0
229.06184,229.93024,51,49,0
229.06184,229.93024,47,49,0
230.00919,230.93596,55,49,0
230.00919,230.93596,43,49,0
230.93596,231.13892,52,42,0
230.93596,231.13892,40,42,0
231.91014,232.79955,42,26,0
231.91014,232.79955,39,26,0
231.91014,232.79955,30,26,0
232.8804,233.75217,47,24,0
232.8804,233.75217,39,24,0
232.8804,233.75217,35,24,0
233.83142,234.76958,43,30,0
233.83142,234.76958,31,30,0
234.76958,234.9709,40,27,0
234.76958,234.9709,28,27,0
235.73592,236.72551,40,30,0
236.70732,236.83511,41,30,0
236.81714,236.94333,40,26,0
236.92493,237.0527,41,30,0
237.03476,237.16283,40,24,0
237.1442,237.27242,41,30,0
237.25449,237.38062,40,25,0
237.36232,237.49046,41,30,0
237.47263,237.59749,40,31,0
237.57936,237.70398,41,28,0
237.6862,237.81087,40,31,0
237.79329,237.918,41,31,0
237.89987,238.0248,40,34,0
238.00725,238.13054,41,30,0
238.1127,238.23914,40,34,0
238.22104,238.34818,41,29,0
238.32954,238.45773,40,34,0
238.43973,238.56818,41,28,0
238.54965,238.67671,40,34,0
238.65878,238.78668,41,29,0
238.76825,238.89516,40,34,0
238.87717,239.0047,41,29,0
238.98622,239.11598,40,34,0
239.09746,239.22507,41,30,0
239.20717,239.33052,40,39,0
239.31273,239.43793,41,33,0
239.42015,239.54358,40,39,0
239.52583,239.6514,41,33,0
239.63344,239.75723,40,39,0
239.73976,239.86357,41,33,0
239.8455,239.97166,40,40,0
239.9538,240.07967,41,35,0
240.06133,240.19006,40,40,0
240.17126,240.3017,41,35,0
240.28351,240.41118,40,41,0
240.39253,240.52354,41,34,0
240.50499,240.6332,40,41,0
240.61499,240.74706,41,36,0
240.72807,240.85909,40,42,0
240.8406,240.96951,41,37,0
240.9514,241.07843,40,47,0
241.05995,241.18896,41,39,0
241.17072,241.29778,40,47,0
241.2793,241.40811,41,39,0
241.39003,241.51625,40,48,0
241.49805,241.62889,41,40,0
241.60968,241.74493,40,48,0
241.72559,241.86111,41,42,0
241.84177,241.97728,40,49,0
241.95786,242.09389,41,43,0
242.07439,242.21094,40,54,0
242.19138,242.32845,41,48,0
242.30879,242.44731,40,62,0
242.42728,242.56894,41,63,0
242.54843,242.70267,40,71,0
242.67883,242.87225,44,79,0
242.8512,243.86223,45,78,0
242.8512,243.86223,33,78,0
243.86223,244.86064,52,75,0
243.86223,244.86064,40,75,0
244.86064,245.81682,51,72,0
244.86064,245.81682,39,72,0
245.81682,246.06564,52,67,0
245.81682,246.06564,40,67,0
246.31445,246.54616,64,48,0
246.31445,246.54616,52,48,0
246.662,246.74716,62,46,0
246.662,246.74716,50,46,0
246.77556,247.00725,60,48,0
246.77556,247.00725,48,48,0
247.1231,247.2076,59,46,0
247.1231,247.2076,47,46,0
247.23575,247.46652,57,43,0
247.23575,247.46652,45,43,0
247.58191,247.66673,56,42,0
247.58191,247.66673,44,42,0
247.695,247.9251,57,46,0
247.695,247.9251,45,46,0
248.04001,248.1245,55,40,0
248.04001,248.1245,43,40,0
248.15266,248.38301,53,46,0
248.15266,248.38301,41,46,0
248.49818,248.58234,52,42,0
248.49818,248.58234,40,42,0
248.6104,248.83931,53,48,0
248.6104,248.83931,41,48,0
248.95378,249.03761,56,46,0
248.95378,249.03761,44,46,0
249.06555,249.29265,57,48,0
249.06555,249.29265,45,48,0
249.4062,249.49004,59,46,0
249.4062,249.49004,47,46,0
249.51797,249.74419,60,52,0
249.51797,249.74419,48,52,0
249.85728,249.94112,62,48,0
249.85728,249.94112,50,48,0
249.96906,250.09906,60,53,0
249.96906,250.09906,48,53,0
250.48904,251.50642,45,90,0
251.50642,252.48053,45,86,0
251.50642,252.48053,38,86,0
252.48053,253.43042,37,71,0
253.43042,253.68748,38,71,0
252.48053,253.68748,45,71,0
253.94455,254.17532,69,53,0
253.94455,254.17532,57,53,0
254.29071,254.3752,67,52,0
254.29071,254.3752,55,52,0
254.40337,254.6332,65,48,0
254.40337,254.6332,53,48,0
254.74811,254.83261,64,46,0
254.74811,254.83261,52,46,0
254.86076,255.08969,62,43,0
254.86076,255.08969,50,43,0
255.20415,255.28798,61,42,0
255.20415,255.28798,49,42,0
255.31592,255.54391,62,46,0
255.31592,255.54391,50,46,0
255.65791,255.74142,60,40,0
255.65791,255.74142,48,40,0
255.76926,255.99637,58,46,0
255.76926,255.99637,46,46,0
256.10992,256.19342,57,42,0
256.10992,256.19342,45,42,0
256.22125,256.44745,58,48,0
256.22125,256.44745,46,48,0
256.56058,256.6454,61,46,0
256.56058,256.6454,49,46,0
256.67368,256.8976,62,48,0
256.67368,256.8976,50,48,0
257.00958,257.09213,64,46,0
257.00958,257.09213,52,46,0
257.11966,257.3436,65,52,0
257.11966,257.3436,53,52,0
257.45557,257.5378,67,48,0
257.45557,257.5378,55,48,0
257.56522,257.69128,65,53,0
257.56522,257.69128,53,53,0
258.0695,259.03583,62,98,0
258.0695,259.03583,50,88,0
258.0695,259.03583,55,88,0
258.0695,259.03583,58,98,0
259.03583,259.22382,50,81,0
259.03583,259.22382,38,72,0
260.03842,260.98926,62,97,0
260.03842,260.99225,50,87,0
260.03842,260.99225,53,87,0
260.03842,260.99225,57,97,0
260.99225,261.17563,50,81,0
260.99225,261.17563,38,72,0
261.9582,262.88882,62,84,0
261.9582,262.88882,50,75,0
261.9582,262.88882,55,75,0
261.9582,262.88882,58,84,0
262.88882,263.064,50,69,0
262.88882,263.064,38,62,0
263.82895,264.71408,62,82,0
263.82895,264.71686,50,73,0
263.82895,264.71686,53,73,0
263.82895,264.71686,57,82,0
264.71686,264.91498,50,74,0
264.71686,264.91498,38,66,0
265.66788,266.553,62,82,0
265.66788,266.5558,50,73,0
265.66788,266.5558,55,73,0
265.66788,266.5558,58,82,0
266.5558,266.7539,50,74,0
266.5558,266.7539,38,66,0
267.50122,268.38635,62,83,0
267.50122,268.38913,50,74,0
267.50122,268.38913,53,74,0
267.50122,268.38913,57,83,0
268.38913,268.58804,50,73,0
268.38913,268.58804,38,65,0
269.32928,270.25168,62,84,0
269.32928,270.25168,50,75,0
269.32928,270.25168,55,75,0
269.32928,270.25168,58,84,0
270.25168,270.42337,50,74,0
270.25168,270.42337,38,66,0
271.17487,272.05026,62,84,0
271.17487,272.053,50,75,0
271.17487,272.053,53,75,0
271.17487,272.053,57,84,0
272.053,272.2473,50,74,0
272.053,272.2473,38,66,0
272.97675,273.88693,60,81,0
272.97675,273.88693,48,72,0
272.97675,273.88693,52,72,0
272.97675,273.88693,57,81,0
273.88693,274.05792,48,71,0
273.88693,274.05792,36,63,0
274.836,275.76205,59,85,0
274.836,275.76205,56,85,0
274.836,275.76205,47,76,0
275.80234,276.70883,52,76,0
275.80234,276.70883,56,85,0
275.80234,276.70883,64,85,0
276.74826,277.67505,60,82,0
276.74826,277.67505,48,73,0
277.67505,277.88303,57,73,0
277.67505,277.88303,45,65,0
278.67346,279.63028,47,40,0
278.67346,279.63028,44,40,0
278.67346,279.63028,35,40,0
279.67188,280.60168,52,37,0
279.67188,280.60168,44,37,0
279.67188,280.60168,40,37,0
280.64212,281.57648,48,37,0
280.64212,281.57648,36,37,0
281.57648,281.7584,45,37,0
281.57648,281.7584,33,37,0
282.54672,283.4587,46,31,0
282.54672,283.4587,34,31,0
283.4587,283.63608,43,24,0
283.4587,283.63608,31,24,0
284.40463,285.31665,46,30,0
284.40463,285.31665,34,30,0
285.31665,285.49255,43,22,0
285.31665,285.49255,31,22,0
286.2548,287.1632,46,30,0
286.2548,287.1632,34,30,0
287.1632,287.33768,43,23,0
287.1632,287.33768,31,23,0
288.09372,288.97757,46,31,0
288.09372,288.97757,34,31,0
288.97757,289.14655,43,26,0
288.97757,289.14655,31,26,0
289.8788,289.98758,35,72,0
289.98758,290.09598,47,31,0
290.09598,290.20773,35,42,0
290.20773,290.31598,47,30,0
290.31598,290.4243,35,46,0
290.4243,290.53458,47,33,0
290.53458,290.64294,35,44,0
290.64294,290.75015,47,31,0
290.75015,290.85898,35,45,0
290.85898,290.96872,47,33,0
290.96872,291.07526,35,44,0
291.07526,291.1843,47,31,0
291.1843,291.29407,35,51,0
291.29407,291.39954,47,37,0
291.39954,291.50665,35,47,0
291.50665,291.61557,47,33,0
291.61557,291.72125,32,74,0
291.72125,291.82715,44,37,0
291.82715,291.93567,32,47,0
291.93567,292.0431,44,37,0
292.0431,292.15005,32,52,0
292.15005,292.2606,44,39,0
292.2606,292.36972,32,49,0
292.36972,292.47656,44,38,0
292.47656,292.58472,32,55,0
292.58472,292.6947,44,39,0
292.6947,292.8027,32,51,0
292.8027,292.91034,44,39,0
292.91034,293.01932,32,66,0
293.01932,293.1296,44,52,0
293.1296,293.24142,32,57,0
293.24142,293.36978,44,46,0
293.36978,293.81516,59,79,0
293.36978,293.81516,47,79,0
293.81516,293.98547,56,69,0
293.81516,293.98547,44,69,0
294.26935,294.71823,59,79,0
294.26935,294.71823,47,79,0
294.71823,294.892,52,69,0
294.71823,294.892,64,69,0
295.1816,295.64084,59,70,0
295.1816,295.64084,47,70,0
295.64084,295.81705,56,63,0
295.64084,295.81705,44,63,0
296.11075,296.60184,40,54,0
296.11075,296.60184,52,54,0
296.60184,296.80917,35,44,0
296.60184,296.80917,47,44,0
297.1548,301.00446,47,27,0
297.1548,301.00446,35,27,0
301.00446,301.10965,35,81,0
301.10965,301.21484,47,38,0
301.21484,301.32004,35,58,0
301.32004,301.42523,47,38,0
301.42523,301.53043,32,72,0
301.53043,301.63562,44,38,0
301.63562,301.74084,32,57,0
301.74084,301.84604,44,38,0
301.84604,301.94934,35,72,0
301.94934,302.0526,47,40,0
302.0526,302.1559,35,60,0
302.1559,302.25922,47,41,0
302.25922,302.36252,40,72,0
302.36252,302.46582,52,45,0
302.46582,302.56912,40,61,0
302.56912,302.67194,52,45,0
302.67194,302.77484,44,77,0
302.77484,302.87753,56,49,0
302.87753,302.97998,44,66,0
302.97998,303.08218,56,51,0
303.08218,303.18402,47,79,0
303.18402,303.2856,59,53,0
303.2856,303.38696,47,72,0
303.38696,303.48807,59,55,0
303.48807,303.59003,52,88,0
303.59003,303.6946,64,57,0
303.6946,303.79953,52,74,0
303.79953,303.9073,64,57,0
303.9073,304.0208,47,73,0
304.0208,304.13785,59,48,0
304.13785,304.25772,47,58,0
304.25772,304.4303,59,47,0
304.4303,308.28058,47,28,0
304.4303,308.28058,35,28,0
308.28058,309.26602,40,20,0
308.28058,309.26602,47,20,0
309.30887,310.2086,47,17,0
309.30887,310.2086,40,17,0
310.33713,310.80804,40,20,0
310.33713,310.80804,47,20,0
310.81805,311.27927,40,16,0
310.81805,311.27927,47,16,0
311.2891,311.76807,47,19,0
311.2891,311.76807,40,19,0
311.77826,312.2691,47,15,0
311.77826,312.2691,40,15,0
312.27954,313.22433,49,23,0
312.27954,313.22433,40,23,0
313.2654,314.12805,49,15,0
313.2654,314.12805,40,15,0
314.25128,314.71826,49,20,0
314.25128,314.71826,40,20,0
314.72818,315.18942,51,15,0
314.72818,315.18942,40,15,0
315.19922,315.6548,49,19,0
315.19922,315.6548,40,19,0
315.6645,316.16165,40,15,0
315.6645,316.16165,51,15,0
316.1722,317.117,40,23,0
316.1722,317.117,52,23,0
317.15808,318.02072,47,17,0
317.15808,318.02072,40,17,0
318.14395,318.61685,40,23,0
318.14395,318.61685,47,23,0
318.6269,319.09985,47,18,0
318.6269,319.09985,40,18,0
319.10992,319.57498,47,24,0
319.10992,319.57498,40,24,0
319.58487,320.04218,40,18,0
319.58487,320.04218,47,18,0
320.0519,320.9967,49,25,0
320.0519,320.9967,40,25,0
321.03778,321.9004,40,19,0
321.03778,321.9004,49,19,0
322.02365,322.5085,49,36,0
322.5085,322.98346,52,33,0
322.98346,323.4665,57,37,0
323.4665,323.9495,61,39,0
322.02365,323.9495,40,30,0
323.9495,324.8943,59,26,0
323.9495,324.8943,52,26,0
324.93536,325.79196,52,17,0
324.93536,325.79196,59,17,0
325.9132,326.37433,59,22,0
325.9132,326.37433,52,22,0
326.38416,326.85318,52,18,0
326.38416,326.85318,59,18,0
326.86316,327.32047,63,20,0
326.86316,327.32047,52,20,0
327.3302,327.79913,52,18,0
327.3302,327.79913,61,18,0
327.8091,328.74225,59,24,0
327.8091,328.74225,52,24,0
328.78284,329.62888,52,15,0
328.78284,329.62888,59,15,0
329.7486,330.20975,59,22,0
329.7486,330.20975,52,22,0
330.21957,330.68463,52,17,0
330.21957,330.68463,59,17,0
330.69452,331.14825,63,20,0
330.69452,331.14825,52,20,0
331.1579,331.63077,61,18,0
331.1579,331.63077,52,18,0
331.64084,332.57785,52,24,0
331.64084,332.57785,59,29,0
332.6186,333.47412,52,15,0
332.6186,333.47412,59,15,0
333.59634,334.06332,52,25,0
333.59634,334.06332,56,25,0
334.07327,334.55032,59,23,0
334.07327,334.55032,52,23,0
334.5605,335.02942,52,25,0
334.5605,335.02942,57,25,0
335.0394,335.53876,59,24,0
335.0394,335.53876,52,24,0
335.54938,336.48642,61,25,0
335.54938,336.48642,52,25,0
336.52716,336.76666,52,15,0
336.52716,336.76666,61,15,0
337.48517,338.3921,72,22,0
337.48517,338.3921,64,22,0
338.43152,338.85513,72,9,0
338.43152,338.85513,64,8,0
339.35574,340.26266,59,25,0
339.35574,340.26266,52,25,0
340.30212,340.74472,59,11,0
340.30212,340.74472,52,9,0
341.26782,342.20096,64,22,0
341.26782,342.20096,71,22,0
342.24155,342.68784,71,11,0
342.24155,342.68784,64,11,0
343.21524,344.12558,45,64,0
343.21524,344.12558,33,58,0
344.16513,344.60974,45,44,0
344.16513,344.60974,33,39,0
345.13516,345.59433,57,39,0
345.13516,345.59433,66,39,0
345.13516,345.59433,64,39,0
345.6041,346.05417,68,34,0
345.6041,346.05417,59,34,0
345.6041,346.05417,64,34,0
346.06375,346.51355,61,37,0
346.06375,346.51355,64,37,0
346.52313,347.0038,68,36,0
346.52313,347.0038,59,36,0
346.52313,347.0038,64,36,0
347.01404,347.93582,59,36,0
347.01404,347.93582,66,36,0
347.01404,347.93582,69,36,0
347.9759,348.41675,66,17,0
347.9759,348.41675,69,17,0
347.9759,348.41675,59,17,0
348.9472,349.8537,59,27,0
348.9472,349.8537,52,27,0
349.89313,350.32666,59,16,0
349.89313,350.32666,52,23,0
350.85733,351.7714,45,64,0
350.85733,351.7714,33,58,0
351.81116,352.23978,33,42,0
351.81116,352.23978,45,48,0
352.7463,353.20416,57,39,0
352.7463,353.20416,66,39,0
352.7463,353.20416,64,39,0
353.2139,353.67505,64,36,0
353.2139,353.67505,68,36,0
353.2139,353.67505,59,36,0
353.68484,354.13654,64,39,0
353.68484,354.13654,61,39,0
354.14615,354.6288,64,36,0
354.14615,354.6288,59,36,0
354.14615,354.6288,68,36,0
354.63907,355.5722,66,36,0
354.63907,355.5722,59,36,0
354.63907,355.5722,69,36,0
355.6128,356.05908,59,17,0
355.6128,356.05908,69,17,0
355.6128,356.05908,66,17,0
356.5865,357.4968,40,86,0
357.53638,357.981,40,70,0
358.5064,358.9726,47,22,0
358.5064,358.9726,40,22,0
358.9825,359.44168,40,17,0
358.9825,359.44168,47,17,0
359.45145,359.90887,47,20,0
359.45145,359.90887,40,20,0
359.9186,360.4137,47,16,0
359.9186,360.4137,40,16,0
360.42422,361.30994,40,16,0
360.42422,361.30994,48,16,0
361.34845,361.586,48,8,0
361.34845,361.586,40,8,0
362.2987,363.19492,51,23,0
362.2987,363.19492,40,23,0
363.23386,363.4783,51,9,0
363.23386,363.4783,40,9,0
364.21164,365.1295,52,86,0
364.21164,365.1295,40,86,0
365.1694,365.6178,40,59,0
365.1694,365.6178,52,66,0
366.1477,366.6147,47,25,0
366.1477,366.6147,40,25,0
366.62463,367.0858,40,18,0
366.62463,367.0858,47,18,0
367.09558,367.55096,40,25,0
367.09558,367.55096,47,25,0
367.56067,368.05573,47,17,0
367.56067,368.05573,40,17,0
368.06628,368.93643,40,24,0
368.06628,368.93643,45,24,0
368.97427,369.2083,49,16,0
368.97427,369.2083,40,12,0
369.91052,370.78067,40,25,0
369.91052,370.78067,47,25,0
370.8185,371.0496,40,14,0
370.8185,371.0496,51,18,0
371.74106,372.59195,40,25,0
371.74106,372.59195,52,25,0
372.62894,372.8493,40,4,0
372.62894,372.8493,52,12,0
373.5103,374.36124,48,25,0
373.5103,374.36124,45,25,0
374.39822,374.61618,45,12,0
374.39822,374.61618,48,12,0
375.27,376.13046,48,25,0
376.16788,376.38904,48,14,0
377.0525,377.91296,50,25,0
377.0525,377.91296,38,25,0
377.95038,378.17484,50,15,0
377.95038,378.17484,38,15,0
378.84824,379.74548,40,24,0
378.84824,379.7845,45,24,0
379.7845,380.02707,40,12,0
379.7845,380.75473,52,39,0
380.75473,381.6891,51,37,0
381.6891,381.92783,52,35,0
384.55374,385.48734,40,19,0
384.55374,385.52792,47,33,0
385.52792,385.96558,40,9,0
385.52792,386.48282,52,39,0
386.48282,387.42096,51,37,0
387.42096,387.66452,52,35,0
390.34354,390.45844,41,22,0
390.45844,390.5732,48,14,0
390.5732,390.68765,41,17,0
390.68765,390.80182,48,15,0
390.80182,390.91583,41,18,0
390.91583,391.02936,48,14,0
391.02936,391.14276,41,18,0
391.14276,391.2559,48,13,0
391.2559,391.36765,41,20,0
391.36765,391.47943,48,12,0
391.47943,391.59106,41,18,0
391.59106,391.7024,48,13,0
391.7024,391.81372,41,19,0
391.81372,391.92477,48,12,0
391.92477,392.0357,41,16,0
392.0357,392.1466,48,12,0
392.1466,392.25708,41,24,0
392.25708,392.36755,48,14,0
392.36755,392.47803,41,18,0
392.47803,392.58853,48,15,0
392.58853,392.699,41,20,0
392.699,392.80948,48,16,0
392.80948,392.91995,41,19,0
392.91995,393.03046,48,15,0
393.03046,393.14093,41,21,0
393.14093,393.2514,48,14,0
393.2514,393.36188,41,20,0
393.36188,393.47238,48,15,0
393.47238,393.583,41,20,0
393.583,393.69403,48,14,0
393.69403,393.80554,41,18,0
393.80554,393.91864,48,13,0
393.91864,394.0283,41,27,0
394.0283,394.1379,48,17,0
394.1379,394.24756,41,22,0
394.24756,394.35718,48,20,0
394.35718,394.46683,41,27,0
394.46683,394.57645,48,20,0
394.57645,394.6861,41,27,0
394.6861,394.79572,48,20,0
394.79572,394.90536,41,31,0
394.90536,395.01498,48,19,0
395.01498,395.1246,41,29,0
395.1246,395.23425,48,21,0
395.23425,395.34387,41,33,0
395.34387,395.45407,48,22,0
395.45407,395.56485,41,29,0
395.56485,395.67633,48,21,0
395.67633,395.78568,41,37,0
395.78568,395.8949,48,28,0
395.8949,396.00385,41,31,0
396.00385,396.11264,48,31,0
396.11264,396.22116,41,35,0
396.22116,396.32956,48,30,0
396.32956,396.43768,41,36,0
396.43768,396.54565,48,31,0
396.54565,396.65323,41,42,0
396.65323,396.7608,48,30,0
396.7608,396.86838,41,42,0
396.86838,396.97595,48,33,0
396.97595,397.08353,41,42,0
397.08353,397.1911,48,32,0
397.1911,397.29868,41,41,0
397.29868,397.40616,48,31,0
397.40616,397.51334,41,54,0
397.51334,397.6205,48,39,0
397.6205,397.72787,41,45,0
397.72787,397.83545,48,40,0
397.83545,397.94302,41,52,0
397.94302,398.05093,48,38,0
398.05093,398.1589,41,52,0
398.1589,398.26697,48,42,0
398.26697,398.37537,41,57,0
398.37537,398.48367,48,41,0
398.48367,398.59164,41,54,0
398.59164,398.69955,48,45,0
398.69955,398.80713,41,60,0
398.80713,398.91464,48,43,0
398.91464,399.02182,41,57,0
399.02182,399.1289,48,42,0
399.1289,399.2357,41,62,0
399.2357,399.34247,48,48,0
399.34247,399.44922,41,57,0
399.44922,399.556,48,53,0
399.556,399.66275,41,63,0
399.66275,399.76953,48,49,0
399.76953,399.8763,41,63,0
399.8763,399.98306,48,50,0
399.98306,400.08984,41,68,0
400.08984,400.19662,48,48,0
400.19662,400.30338,41,65,0
400.30338,400.41016,48,49,0
400.41016,400.5169,41,69,0
400.5169,400.6237,48,51,0
400.6237,400.73047,41,65,0
400.73047,400.83722,48,48,0
400.83722,401.7143,53,84,0
400.83722,401.7143,41,75,0
400.83722,401.7143,45,75,0
400.83722,401.7143,50,84,0
401.7143,401.90506,57,77,0
401.7143,401.90506,45,69,0
402.62997,403.50372,52,84,0
402.62997,403.50372,40,75,0
402.62997,403.50372,45,75,0
402.62997,403.50372,49,84,0
403.50372,403.69223,57,77,0
403.50372,403.69223,45,69,0
404.40857,405.2823,50,84,0
404.40857,405.2823,38,75,0
404.40857,405.2823,41,75,0
404.40857,405.2823,45,84,0
405.2823,405.47006,57,77,0
405.2823,405.47006,45,69,0
406.18353,407.05566,52,84,0
406.18353,407.05566,40,75,0
406.18353,407.05566,45,75,0
406.18353,407.05566,49,84,0
407.05566,407.2434,57,77,0
407.05566,407.2434,45,69,0
407.5063,407.7316,57,85,0
407.5063,407.7316,69,85,0
407.84424,407.90057,55,73,0
407.84424,407.90057,67,73,0
407.9569,408.12134,53,87,0
407.9569,408.12134,65,87,0
408.2858,408.3406,52,72,0
408.2858,408.3406,64,72,0
408.39542,408.55988,62,78,0
408.39542,408.55988,50,78,0
408.72433,408.7791,61,72,0
408.72433,408.7791,49,72,0
408.8337,408.99823,62,78,0
408.8337,408.99823,50,78,0
409.16464,409.2206,60,70,0
409.16464,409.2206,48,70,0
409.27682,409.44675,58,79,0
409.27682,409.44675,46,79,0
409.6188,409.67816,57,75,0
409.6188,409.67816,45,75,0
409.73596,409.89978,55,73,0
409.73596,409.89978,43,73,0
410.06363,410.11823,53,69,0
410.06363,410.11823,41,69,0
410.17282,410.33667,52,74,0
410.17282,410.33667,40,74,0
410.5005,410.55508,50,68,0
410.5005,410.55508,38,68,0
410.6097,410.77353,49,80,0
410.6097,410.77353,37,80,0
410.93735,410.99197,46,74,0
410.93735,410.99197,34,74,0
411.04657,411.21042,45,84,0
411.04657,411.21042,33,84,0
411.38132,411.43948,43,73,0
411.38132,411.43948,31,73,0
411.49658,411.8055,41,84,0
411.49658,411.8055,29,84,0
411.84412,411.89874,55,69,0
411.84412,411.89874,67,69,0
411.95334,412.11716,53,76,0
411.95334,412.11716,65,76,0
412.281,412.3356,52,66,0
412.281,412.3356,64,66,0
412.3902,412.55536,62,77,0
412.3902,412.55536,50,77,0
412.72122,412.77667,60,65,0
412.72122,412.77667,48,65,0
412.83228,412.9995,58,76,0
412.83228,412.9995,46,76,0
413.16748,413.22366,57,67,0
413.16748,413.22366,45,67,0
413.27997,413.44492,55,74,0
413.27997,413.44492,43,74,0
413.6081,413.6625,53,67,0
413.6081,413.6625,41,67,0
413.7169,413.8801,52,73,0
413.7169,413.8801,40,73,0
414.0433,414.0977,50,67,0
414.0433,414.0977,38,67,0
414.15253,414.31802,49,78,0
414.15253,414.31802,37,78,0
414.48495,414.54092,46,72,0
414.48495,414.54092,34,72,0
414.59705,414.76608,45,81,0
414.59705,414.76608,33,81,0
414.93665,414.99387,31,70,0
414.94238,414.9996,43,70,0
415.05127,415.36398,41,84,0
415.05127,415.36398,29,84,0
415.40308,415.4579,55,71,0
415.40308,415.4579,67,71,0
415.5127,415.67715,53,78,0
415.5127,415.67715,65,78,0
415.8416,415.89636,52,71,0
415.8416,415.89636,64,71,0
415.951,416.11487,65,77,0
415.951,416.11487,53,77,0
416.2793,416.33417,64,69,0
416.2793,416.33417,52,69,0
416.3892,416.55432,62,76,0
416.3892,416.55432,50,76,0
416.72006,416.77533,60,69,0
416.72006,416.77533,48,69,0
416.83197,416.9958,58,78,0
416.83197,416.9958,46,78,0
417.15964,417.21423,57,66,0
417.15964,417.21423,45,66,0
417.26886,417.43268,55,72,0
417.26886,417.43268,43,72,0
417.5965,417.65112,53,68,0
417.5965,417.65112,41,68,0
417.70572,417.8696,52,74,0
417.70572,417.8696,40,74,0
418.03403,418.0889,50,69,0
418.03403,418.0889,38,69,0
418.14392,418.30908,48,79,0
418.14392,418.30908,36,79,0
418.4748,418.5302,46,71,0
418.4748,418.5302,34,71,0
418.58655,418.89548,45,85,0
418.58655,418.89548,33,85,0
418.93408,418.9887,70,73,0
418.93408,418.9887,58,73,0
419.0433,419.20715,69,80,0
419.0433,419.20715,57,80,0
419.37097,419.42557,67,71,0
419.37097,419.42557,55,71,0
419.4802,419.6466,53,76,0
419.4802,419.6466,65,76,0
419.81378,419.86966,52,72,0
419.81378,419.86966,64,72,0
419.92554,420.09393,62,82,0
419.92554,420.09393,50,82,0
420.2631,420.31964,60,69,0
420.2631,420.31964,48,69,0
420.37634,420.54126,58,85,0
420.37634,420.54126,46,85,0
420.70447,420.75885,57,69,0
420.70447,420.75885,45,69,0
420.81326,420.97647,55,80,0
420.81326,420.97647,43,80,0
421.13965,421.19406,53,70,0
421.13965,421.19406,41,70,0
421.24887,421.41473,52,83,0
421.24887,421.41473,40,83,0
421.5825,421.6388,50,73,0
421.5825,421.6388,38,73,0
421.69528,421.86765,48,84,0
421.69528,421.86765,36,84,0
422.0474,422.10855,46,84,0
422.0474,422.10855,34,84,0
422.1697,423.04675,45,87,0
422.1697,423.04675,33,78,0
422.1697,423.04675,36,78,0
422.1697,423.04675,41,87,0
423.04675,423.1564,45,52,0
423.04675,423.1564,53,58,0
423.04675,423.1564,57,58,0
423.04675,423.1564,48,52,0
423.98508,424.86227,29,60,0
423.98508,424.86227,33,60,0
423.98508,424.86227,36,67,0
423.98508,424.86227,41,67,0
424.86227,424.97205,41,52,0
424.86227,424.97205,45,52,0
424.86227,424.97205,48,58,0
424.86227,424.97205,53,58,0
425.822,426.12125,45,78,0
425.822,426.12125,33,70,0
426.15866,426.23346,49,70,0
426.15866,426.23346,37,63,0
426.27087,426.56793,49,78,0
426.27087,426.56793,37,70,0
426.6049,426.67853,52,70,0
426.6049,426.67853,40,63,0
426.71524,427.00955,52,78,0
426.71524,427.00955,40,70,0
427.0467,427.1209,57,70,0
427.0467,427.1209,45,63,0
427.15817,427.24506,57,78,0
427.15817,427.24506,45,70,0
427.38986,427.48004,57,71,0
427.38986,427.48004,45,63,0
427.6303,427.93195,57,50,0
427.96964,428.04504,61,40,0
428.08273,428.37967,61,49,0
428.41678,428.491,64,38,0
428.5281,428.8262,64,48,0
428.8639,428.9393,69,38,0
428.97702,429.06183,69,45,0
429.20322,429.2894,69,38,0
429.43304,429.7395,69,44,0
429.43304,429.7395,65,44,0
429.7778,429.8544,69,33,0
429.7778,429.8544,65,33,0
429.8927,430.19916,69,42,0
429.8927,430.19916,65,42,0
430.23746,430.31406,69,33,0
430.23746,430.31406,65,33,0
430.3524,430.6528,69,42,0
430.3524,430.6528,65,42,0
430.69034,430.76544,69,34,0
430.69034,430.76544,65,34,0
430.803,430.8899,69,40,0
430.803,430.8899,65,40,0
431.0347,431.126,69,36,0
431.0347,431.126,65,36,0
431.27823,432.17944,53,31,0
431.27823,432.17944,41,31,0
432.17944,432.36722,57,37,0
432.17944,432.36722,45,37,0
433.08432,433.97504,55,34,0
433.08432,433.97504,48,34,0
433.97504,434.1606,60,37,0
434.89484,435.79605,55,31,0
434.89484,435.79605,43,31,0
435.79605,435.98383,58,37,0
435.79605,435.98383,46,37,0
436.6973,437.59198,57,37,0
436.6973,437.59198,50,37,0
437.59198,437.77756,62,37,0
438.50848,439.40973,50,40,0
438.50848,439.40973,43,40,0
439.40973,439.596,52,37,0
439.40973,439.596,48,37,0
440.32703,441.22827,48,41,0
440.32703,441.22827,41,41,0
441.22827,441.41455,50,37,0
441.22827,441.41455,46,37,0
442.13882,442.4768,50,49,0
442.13882,442.4768,46,49,0
442.4768,442.58945,52,49,0
442.4768,442.58945,49,49,0
442.4768,442.58945,46,49,0
442.58945,442.9274,52,53,0
442.58945,442.9274,49,53,0
442.58945,442.9274,46,53,0
442.9274,443.0379,53,52,0
442.9274,443.0379,50,52,0
442.9274,443.0379,46,52,0
443.0379,443.36932,53,60,0
443.0379,443.36932,50,60,0
443.0379,443.36932,46,60,0
443.36932,443.48157,55,59,0
443.36932,443.48157,52,59,0
443.36932,443.48157,46,59,0
443.48157,443.8182,55,64,0
443.48157,443.8182,52,64,0
443.48157,443.8182,46,64,0
443.8182,443.93042,56,60,0
443.8182,443.93042,53,60,0
443.8182,443.93042,47,60,0
443.93042,444.26706,56,68,0
443.93042,444.26706,53,68,0
443.93042,444.26706,47,68,0
444.26706,444.378,48,63,0
444.26706,444.378,36,63,0
444.378,444.7107,48,67,0
444.378,444.7107,36,67,0
444.7107,444.82562,50,64,0
444.7107,444.82562,38,64,0
444.82562,445.17035,50,69,0
444.82562,445.17035,38,69,0
445.17035,445.28763,43,65,0
445.17035,445.28763,31,58,0
445.28763,445.63943,43,72,0
445.28763,445.63943,31,64,0
445.63943,445.76068,48,68,0
445.63943,445.76068,36,61,0
445.76068,446.2391,48,77,0
445.76068,446.2391,36,69,0
446.75754,447.1037,60,92,0
446.75754,447.1037,48,92,0
447.1037,447.1852,56,81,0
447.1037,447.1852,44,81,0
447.22598,447.31808,56,85,0
447.22598,447.31808,44,85,0
447.47162,447.56372,53,80,0
447.47162,447.56372,41,80,0
447.72568,448.1846,48,77,0
447.72568,448.1846,36,77,0
448.69818,449.0443,60,92,0
448.69818,449.0443,48,92,0
449.0443,449.12656,56,81,0
449.0443,449.12656,44,81,0
449.16766,449.2661,56,85,0
449.16766,449.2661,44,85,0
449.43018,449.52863,53,80,0
449.43018,449.52863,41,80,0
449.7038,450.16376,48,70,0
449.7038,450.16376,36,70,0
451.58817,453.47095,58,36,0
451.58817,453.47095,64,36,0
451.58817,453.47095,67,45,0
453.47095,455.33844,57,36,0
453.47095,455.33844,60,36,0
453.47095,455.33844,65,45,0
455.33844,457.22324,58,32,0
455.33844,457.22324,55,32,0
455.33844,457.22324,64,40,0
457.22324,458.10138,53,28,0
457.22324,458.10138,57,28,0
457.22324,458.10138,65,35,0
458.14038,459.01825,60,34,0
458.14038,459.01825,57,27,0
458.14038,459.01825,53,27,0
459.51425,459.93475,60,28,0
459.51425,459.93475,57,22,0
459.51425,459.93475,53,22,0
459.97375,460.3914,60,28,0
459.97375,460.3914,57,22,0
459.97375,460.3914,53,22,0
460.4293,460.86624,60,26,0
460.4293,460.86624,57,20,0
460.4293,460.86624,53,20,0
460.90845,461.78696,53,24,0
460.90845,461.78696,58,24,0
460.90845,461.78696,62,31,0
461.8266,462.7143,62,30,0
461.8266,462.7143,58,24,0
461.8266,462.7143,53,24,0
463.21252,463.63464,53,19,0
463.21252,463.63464,64,24,0
463.21252,463.63464,60,19,0
463.21252,463.63464,58,19,0
463.6744,464.09766,53,19,0
463.6744,464.09766,62,24,0
463.6744,464.09766,60,19,0
463.6744,464.09766,58,19,0
464.13666,464.57806,53,19,0
464.13666,464.57806,64,24,0
464.13666,464.57806,60,19,0
464.13666,464.57806,58,19,0
464.62064,465.4988,53,29,0
464.62064,465.4988,60,29,0
464.62064,465.4988,65,37,0
464.62064,465.4988,57,29,0
465.53778,466.41565,60,29,0
465.53778,466.41565,56,23,0
465.53778,466.41565,53,23,0
466.91168,467.33218,60,28,0
466.91168,467.33218,56,22,0
466.91168,467.33218,53,22,0
467.3712,467.78882,60,28,0
467.3712,467.78882,56,22,0
467.3712,467.78882,53,22,0
467.82672,468.25253,60,26,0
467.82672,468.25253,56,20,0
467.82672,468.25253,53,20,0
468.29346,469.17197,53,24,0
468.29346,469.17197,65,31,0
468.29346,469.17197,61,24,0
468.29346,469.17197,56,24,0
469.2116,470.0993,65,30,0
469.2116,470.0993,61,24,0
469.2116,470.0993,56,24,0
470.59753,471.01965,56,17,0
470.59753,471.01965,67,22,0
470.59753,471.01965,63,17,0
470.59753,471.01965,61,17,0
471.05942,471.48267,56,19,0
471.05942,471.48267,65,24,0
471.05942,471.48267,63,19,0
471.05942,471.48267,61,19,0
471.52167,471.9524,56,17,0
471.52167,471.9524,67,22,0
471.52167,471.9524,63,17,0
471.52167,471.9524,61,17,0
471.992,473.8296,68,26,0
471.992,473.8296,56,20,0
471.992,473.8296,60,20,0
471.992,473.8296,63,20,0
473.8296,475.67896,65,22,0
473.8296,475.67896,57,17,0
473.8296,475.67896,60,17,0
473.8296,475.67896,63,17,0
475.67896,477.52322,65,26,0
475.67896,477.52322,61,20,0
475.67896,477.52322,58,20,0
477.52322,479.3726,67,22,0
477.52322,479.3726,59,17,0
477.52322,479.3726,62,17,0
477.52322,479.3726,65,17,0
479.3726,480.29105,67,25,0
479.3726,480.29105,64,20,0
479.3726,480.29105,60,20,0
480.29105,481.2151,61,22,0
481.2151,482.12854,60,32,0
480.29105,482.12854,70,28,0
480.29105,482.12854,67,22,0
482.12854,483.05164,68,27,0
482.12854,483.05164,65,21,0
482.12854,483.05164,60,21,0
483.05164,483.96832,60,22,0
483.05164,483.96832,64,22,0
483.05164,483.96832,67,28,0
483.96832,484.89517,49,17,0
484.89517,485.80862,48,22,0
483.96832,485.80862,58,22,0
483.96832,485.80862,55,17,0
485.80862,486.735,56,25,0
485.80862,486.735,53,20,0
485.80862,486.735,48,20,0
486.735,488.58997,55,28,0
486.735,488.58997,52,22,0
486.735,488.58997,48,22,0
488.58997,490.49948,64,28,0
488.58997,490.49948,62,22,0
488.58997,490.49948,59,22,0
490.49948,492.44168,64,26,0
490.49948,492.44168,62,20,0
490.49948,492.44168,57,20,0
492.44168,494.61453,64,22,0
492.44168,494.61453,62,17,0
492.44168,494.61453,56,17,0
494.61453,495.6319,52,33,0
495.6319,496.64038,59,30,0
496.64038,497.62708,58,36,0
497.62708,497.83252,59,34,0
498.60187,499.61923,40,31,0
499.61923,500.62775,47,33,0
500.62775,501.6144,46,38,0
501.6144,501.81985,47,35,0
504.57275,505.57535,57,42,0
505.57535,506.57376,64,42,0
506.57376,507.544,63,44,0
507.544,507.74945,64,38,0
508.03705,508.4342,60,39,0
508.4127,508.5619,59,39,0
508.54178,509.50812,57,38,0
509.50812,510.5107,52,52,0
510.5107,511.49316,48,47,0
511.49316,511.6831,45,39,0
512.5061,513.50867,45,42,0
513.50867,514.47894,38,49,0
514.47894,515.4057,37,52,0
515.4057,515.61456,38,42,0
515.9019,516.2955,45,44,0
515.9019,516.2955,33,44,0
516.27435,516.4218,47,45,0
516.27435,516.4218,35,45,0
516.40125,517.3873,36,45,0
516.40125,517.3873,48,45,0
517.3873,518.38995,40,55,0
517.3873,518.38995,52,55,0
518.38995,519.37244,36,45,0
518.38995,519.37244,48,45,0
519.37244,519.5853,33,41,0
519.37244,519.5853,45,50,0
523.8325,524.7678,45,46,0
524.7678,525.23413,50,41,0
525.23413,525.72046,52,44,0
525.72046,526.19934,53,42,0
526.19934,527.1178,52,45,0
527.1178,527.23956,45,41,0
527.60486,528.074,55,51,0
528.074,528.9718,53,46,0
528.9718,529.0951,45,43,0
529.4649,529.93207,53,40,0
529.93207,530.82996,52,45,0
530.82996,530.95074,45,43,0
531.3131,532.2091,45,56,0
531.3131,532.2091,33,56,0
532.2091,532.6648,50,52,0
532.2091,532.6648,38,52,0
532.6648,533.13007,40,56,0
532.6648,533.13007,52,56,0
533.13007,533.603,53,52,0
533.13007,533.603,41,52,0
533.603,534.4975,52,56,0
533.603,534.4975,40,56,0
534.4975,534.61426,45,53,0
534.4975,534.61426,33,53,0
534.96466,535.86774,52,62,0
534.96466,535.86774,40,62,0
535.86774,536.3167,55,68,0
535.86774,536.3167,43,68,0
536.3167,536.77637,57,74,0
536.3167,536.77637,45,74,0
536.77637,537.2474,47,72,0
536.77637,537.2474,59,72,0
537.2474,538.0834,59,85,0
537.2474,538.0834,47,85,0
538.15936,539.01587,47,70,0
538.15936,539.01587,59,70,0
539.09375,540.0094,43,58,0
539.09375,540.0094,55,58,0
540.0094,540.2124,40,47,0
540.0094,540.2124,52,47,0
540.9836,541.873,47,32,0
540.9836,541.873,35,32,0
541.95386,542.8256,35,30,0
541.95386,542.8256,47,30,0
542.90485,543.82794,43,29,0
542.90485,543.82794,31,29,0
543.82794,544.0293,40,28,0
543.82794,544.0293,28,28,0
544.7943,545.7839,40,30,0
545.7657,545.8935,41,30,0
545.8755,546.0017,40,26,0
545.9833,546.1111,41,30,0
546.09314,546.2212,40,24,0
546.2026,546.3308,41,30,0
546.31287,546.43896,40,25,0
546.4207,546.5488,41,30,0
546.531,546.6559,40,31,0
546.63776,546.7623,41,28,0
546.74457,546.86926,40,31,0
546.8517,546.9764,41,31,0
546.95825,547.0832,40,34,0
547.0656,547.1889,41,30,0
547.1711,547.2975,40,34,0
547.2794,547.40656,41,29,0
547.38794,547.5161,40,34,0
547.4981,547.6265,41,28,0
547.60803,547.7351,40,34,0
547.71716,547.84503,41,29,0
547.8266,547.95355,40,34,0
547.93555,548.06305,41,29,0
548.0446,548.1744,40,34,0
548.1558,548.28345,41,30,0
548.26556,548.3889,40,39,0
548.3711,548.4963,41,33,0
548.4785,548.6019,40,39,0
548.5842,548.7098,41,33,0
548.69183,548.8156,40,39,0
548.79816,548.92194,41,33,0
548.9039,549.03,40,40,0
549.01215,549.13806,41,35,0
549.1197,549.2484,40,40,0
549.2296,549.36005,41,35,0
549.34186,549.46954,40,41,0
549.4509,549.5819,41,34,0
549.56335,549.6916,40,41,0
549.67334,549.8054,41,36,0
549.78644,549.9175,40,42,0
549.899,550.0279,41,37,0
550.00977,550.1368,40,47,0
550.11835,550.2473,41,39,0
550.22906,550.35614,40,47,0
550.33765,550.4665,41,39,0
550.4484,550.57465,40,48,0
550.5564,550.68726,41,40,0
550.668,550.8033,40,48,0
550.78394,550.9195,41,42,0
550.90015,551.03564,40,49,0
551.01624,551.1523,41,43,0
551.13275,551.2693,40,54,0
551.24976,551.38684,41,48,0
551.3672,551.5057,40,62,0
551.48566,551.6273,41,63,0
551.6068,551.76105,40,71,0
551.7372,551.9306,44,79,0
551.90955,552.9206,33,78,0
551.90955,552.9206,45,78,0
552.9206,553.919,52,77,0
552.9206,553.919,40,77,0
553.919,554.8768,39,75,0
553.919,554.8768,51,75,0
554.8768,555.12744,40,71,0
554.8768,555.12744,52,71,0
555.3781,555.6896,45,37,0
555.3781,555.6896,33,37,0
555.7285,555.8234,47,35,0
555.7285,555.8234,35,35,0
555.84247,556.15283,48,39,0
555.84247,556.15283,36,39,0
556.19165,556.2858,38,36,0
556.19165,556.2858,50,36,0
556.3046,556.6137,40,41,0
556.3046,556.6137,52,41,0
556.65234,556.7461,41,38,0
556.65234,556.7461,53,38,0
556.7649,557.0739,52,45,0
556.7649,557.0739,40,45,0
557.11255,557.2067,53,39,0
557.11255,557.2067,41,39,0
557.2256,557.5333,55,44,0
557.2256,557.5333,43,44,0
557.5718,557.6648,57,40,0
557.5718,557.6648,45,40,0
557.6834,557.9898,43,46,0
557.6834,557.9898,55,46,0
558.02814,558.1211,53,44,0
558.02814,558.1211,41,44,0
558.1397,558.4448,40,46,0
558.1397,558.4448,52,46,0
558.483,558.57556,38,44,0
558.483,558.57556,50,44,0
558.5941,558.89923,48,50,0
558.5941,558.89923,36,50,0
558.9374,559.03,47,46,0
558.9374,559.03,35,46,0
559.0485,559.1788,36,51,0
559.0485,559.1788,48,51,0
559.5696,560.59344,45,85,0
560.59344,561.58014,38,74,0
560.59344,561.58014,45,74,0
561.58014,562.53,37,71,0
562.53,562.7871,38,71,0
561.58014,562.7871,45,71,0
563.0442,563.3555,50,44,0
563.0442,563.3555,38,44,0
563.3945,563.4882,40,37,0
563.3945,563.4882,52,37,0
563.50696,563.8159,41,42,0
563.50696,563.8159,53,42,0
563.85455,563.94824,43,40,0
563.85455,563.94824,55,40,0
563.96704,564.276,57,43,0
563.96704,564.276,45,43,0
564.31464,564.4083,58,42,0
564.31464,564.4083,46,42,0
564.42706,564.73346,45,45,0
564.42706,564.73346,57,45,0
564.7717,564.8643,58,39,0
564.7717,564.8643,46,39,0
564.8828,565.1878,60,44,0
564.8828,565.1878,48,44,0
565.22595,565.31854,50,40,0
565.22595,565.31854,62,40,0
565.33704,565.63947,60,46,0
565.33704,565.63947,48,46,0
565.6773,565.76874,58,44,0
565.6773,565.76874,46,44,0
565.78705,566.0857,57,46,0
565.78705,566.0857,45,46,0
566.12305,566.2141,43,44,0
566.12305,566.2141,55,44,0
566.2323,566.531,41,50,0
566.2323,566.531,53,50,0
566.56836,566.6598,40,46,0
566.56836,566.6598,52,46,0
566.67804,566.80414,53,51,0
566.67804,566.80414,41,51,0
567.1825,568.1488,58,99,0
567.1825,568.1488,50,89,0
567.1825,568.1488,55,89,0
567.1825,568.1488,62,99,0
568.1488,568.3368,38,72,0
568.1488,568.3368,50,81,0
569.1514,570.11774,62,100,0
569.1514,570.11774,50,90,0
569.1514,570.11774,53,90,0
569.1514,570.11774,57,100,0
570.11774,570.30115,50,81,0
570.11774,570.30115,38,72,0
571.08997,572.03174,62,86,0
571.08997,572.03174,50,77,0
571.08997,572.03174,55,77,0
571.08997,572.03174,58,86,0
572.03174,572.2152,38,61,0
572.03174,572.2152,50,68,0
572.9881,573.873,62,81,0
572.9881,573.88226,50,72,0
572.9881,573.88226,53,72,0
572.9881,573.88226,57,81,0
573.88226,574.0606,38,65,0
573.88226,574.0606,50,73,0
574.84485,575.72974,62,81,0
574.84485,575.739,50,72,0
574.84485,575.739,55,72,0
574.84485,575.739,58,81,0
575.739,575.91736,50,73,0
575.739,575.91736,38,65,0
576.68445,577.56934,62,82,0
576.68445,577.5787,50,73,0
576.68445,577.5787,57,82,0
576.68445,577.5787,53,73,0
577.5787,577.756,50,72,0
577.5787,577.756,38,64,0
578.5207,578.97076,67,88,0
578.5207,579.4223,55,79,0
578.5207,579.4223,62,88,0
578.5207,579.4223,58,79,0
579.4223,579.59674,55,73,0
579.4223,579.59674,43,65,0
580.35876,580.78986,67,83,0
580.35876,581.23926,60,74,0
580.35876,581.23926,55,74,0
580.35876,581.23926,63,83,0
581.23926,581.41516,43,65,0
581.23926,581.41516,55,73,0
582.1662,582.5956,67,82,0
582.1662,583.0433,58,73,0
582.1662,583.0433,55,73,0
582.1662,583.0433,62,82,0
583.0433,583.21844,55,72,0
583.0433,583.21844,43,64,0
583.96826,584.8804,65,82,0
583.96826,584.8804,53,73,0
583.96826,584.8804,62,82,0
583.96826,584.8804,57,73,0
584.8804,585.05,41,66,0
584.8804,585.05,53,74,0
585.8258,586.7519,64,85,0
585.8258,586.7519,61,85,0
585.8258,586.7519,52,76,0
586.7922,587.6929,57,75,0
586.7922,587.6929,69,84,0
586.7922,587.6929,61,75,0
587.73206,588.6588,53,73,0
587.73206,588.6588,65,82,0
588.6588,588.8644,50,65,0
588.6588,588.8644,62,73,0
589.6455,590.59106,52,44,0
589.6455,590.59106,49,44,0
589.6455,590.59106,40,44,0
590.63214,591.562,49,40,0
590.63214,591.562,45,40,0
590.63214,591.562,57,40,0
591.6024,592.5368,41,40,0
591.6024,592.5368,53,40,0
592.5368,592.7389,38,40,0
592.5368,592.7389,50,40,0
593.507,594.419,39,34,0
593.507,594.419,51,34,0
594.419,594.6169,48,26,0
594.419,594.6169,36,26,0
595.3689,596.2773,51,33,0
595.3689,596.2773,39,33,0
596.2773,596.47437,36,24,0
596.2773,596.47437,48,24,0
597.2232,598.11743,60,33,0
597.2232,598.2926,54,33,0
598.11743,598.3121,63,24,0
599.05176,599.946,60,33,0
599.05176,600.12115,53,33,0
599.946,600.1406,63,24,0
600.8803,601.77454,61,33,0
600.8803,601.9497,52,33,0
601.77454,601.9692,64,24,0
602.70886,603.6031,62,33,0
602.70886,603.77826,52,33,0
603.6031,603.7977,64,24,0
604.5374,604.82153,52,20,0
604.5374,604.82153,45,20,0
604.8621,605.1489,45,16,0
604.8621,605.1489,52,16,0
605.19037,605.48065,45,16,0
605.19037,605.48065,52,16,0
605.5221,606.3818,52,16,0
605.5221,606.3818,45,16,0
606.5046,606.9755,52,20,0
606.5046,606.9755,45,20,0
606.98553,607.4467,45,16,0
606.98553,607.4467,52,16,0
607.45654,607.9336,52,19,0
607.45654,607.9336,45,19,0
607.9438,608.43463,45,15,0
607.9438,608.43463,52,15,0
608.44507,608.7176,54,23,0
608.44507,608.7176,45,23,0
608.75653,609.03503,45,19,0
608.75653,609.03503,54,19,0
609.076,609.36255,54,17,0
609.076,609.36255,45,17,0
609.4035,610.2632,54,15,0
609.4035,610.2632,45,15,0
610.386,610.86084,45,20,0
610.386,610.86084,54,20,0
610.871,611.34375,45,15,0
610.871,611.34375,56,15,0
611.3538,611.815,54,19,0
611.3538,611.815,45,19,0
611.82477,612.32196,56,15,0
611.82477,612.32196,45,15,0
612.3325,612.60284,45,23,0
612.3325,612.60284,57,23,0
612.6415,612.9182,57,18,0
612.6415,612.9182,45,18,0
612.959,613.2443,57,17,0
612.959,613.2443,45,17,0
613.2851,614.1448,45,15,0
613.2851,614.1448,52,15,0
614.2676,614.7404,52,23,0
614.2676,614.7404,45,23,0
614.7505,615.22345,45,18,0
614.7505,615.22345,52,18,0
615.2335,615.69855,45,26,0
615.2335,615.69855,52,26,0
615.70844,616.1658,52,22,0
615.70844,616.1658,45,22,0
616.1755,616.4404,45,31,0
616.1755,616.4404,54,31,0
616.4783,616.74744,54,23,0
616.4783,616.74744,45,23,0
616.7867,617.06146,54,22,0
616.7867,617.06146,45,22,0
617.1007,617.9604,45,17,0
617.1007,617.9604,54,17,0
618.0832,618.5681,54,56,0
618.5681,619.043,57,53,0
619.043,619.52606,62,56,0
619.52606,620.01746,66,58,0
618.0832,620.01746,45,56,0
620.01746,620.28033,64,26,0
620.01746,620.28033,57,26,0
620.3179,620.5883,57,22,0
620.3179,620.5883,64,22,0
620.6284,620.90894,57,22,0
620.6284,620.90894,64,22,0
620.94904,621.80396,64,17,0
620.94904,621.80396,57,17,0
621.9252,622.38824,64,24,0
621.9252,622.38824,57,24,0
622.39813,622.867,57,19,0
622.39813,622.867,64,19,0
622.877,623.34985,68,22,0
622.877,623.34985,57,22,0
623.3599,623.8389,66,19,0
623.3599,623.8389,57,19,0
623.8491,624.11096,64,24,0
623.8491,624.11096,57,24,0
624.1483,624.4129,64,19,0
624.1483,624.4129,57,19,0
624.4512,624.7193,64,19,0
624.4512,624.7193,57,19,0
624.7576,625.6018,64,15,0
624.7576,625.6018,57,15,0
625.72156,626.1827,57,24,0
625.72156,626.1827,64,24,0
626.1925,626.6595,57,18,0
626.1925,626.6595,64,18,0
626.66943,627.1423,57,22,0
626.66943,627.1423,68,22,0
627.15234,627.6293,66,19,0
627.15234,627.6293,57,19,0
627.6394,627.9002,57,29,0
627.6394,627.9002,64,29,0
627.9375,628.2014,64,26,0
627.9375,628.2014,57,26,0
628.23975,628.5079,64,22,0
628.23975,628.5079,57,22,0
628.54614,629.3985,57,15,0
628.54614,629.3985,64,15,0
629.52026,629.98724,61,25,0
629.52026,629.98724,57,25,0
629.9972,630.47424,57,23,0
629.9972,630.47424,64,23,0
630.4844,630.95337,57,25,0
630.4844,630.95337,62,25,0
630.9633,631.4506,64,24,0
630.9633,631.4506,57,24,0
631.46094,631.7238,57,25,0
631.46094,631.7238,66,25,0
631.76135,632.027,66,20,0
631.76135,632.027,57,20,0
632.0654,632.33466,66,20,0
632.0654,632.33466,57,20,0
632.3731,632.6126,57,15,0
632.3731,632.6126,66,15,0
633.3311,633.594,77,22,0
633.3311,633.594,69,22,0
633.63153,633.8944,69,19,0
633.63153,633.8944,77,19,0
633.93195,634.1948,77,19,0
633.93195,634.1948,69,19,0
634.23236,634.65594,77,9,0
634.23236,634.65594,69,8,0
635.15656,635.4291,57,25,0
635.15656,635.4291,64,25,0
635.468,635.742,57,20,0
635.468,635.742,64,20,0
635.78143,636.0573,57,22,0
635.78143,636.0573,64,22,0
636.09674,636.53937,64,13,0
636.09674,636.53937,57,12,0
637.06244,637.3243,69,22,0
637.06244,637.3243,76,22,0
637.3617,637.62354,76,19,0
637.3617,637.62354,69,19,0
637.66095,637.9228,69,20,0
637.66095,637.9228,76,20,0
637.9602,638.4048,76,13,0
637.9602,638.4048,69,13,0
638.9302,639.1951,50,59,0
638.9302,639.1951,38,59,0
639.233,639.50024,38,53,0
639.233,639.50024,50,53,0
639.5389,639.80914,50,49,0
639.5389,639.80914,38,49,0
639.8478,640.29236,50,34,0
639.8478,640.29236,38,34,0
640.8178,641.28284,62,39,0
640.8178,641.28284,71,39,0
640.8178,641.28284,69,39,0
641.2927,641.752,64,34,0
641.2927,641.752,73,34,0
641.2927,641.752,69,34,0
641.76184,642.2174,66,37,0
641.76184,642.2174,69,37,0
642.22705,642.70776,69,36,0
642.22705,642.70776,73,36,0
642.22705,642.70776,64,36,0
642.718,642.9788,74,36,0
642.718,642.9788,71,36,0
642.718,642.9788,64,36,0
643.01605,643.27954,74,34,0
643.01605,643.27954,71,34,0
643.01605,643.27954,64,34,0
643.3177,643.5848,74,29,0
643.3177,643.5848,71,29,0
643.3177,643.5848,64,29,0
643.6229,644.0638,64,15,0
643.6229,644.0638,71,15,0
643.6229,644.0638,74,15,0
644.59424,644.86237,57,27,0
644.59424,644.86237,64,27,0
644.9007,645.1707,57,24,0
644.9007,645.1707,64,24,0
645.2096,645.4821,57,24,0
645.2096,645.4821,64,24,0
645.52106,645.95465,64,16,0
645.52106,645.95465,57,23,0
646.4853,646.74713,38,63,0
646.4853,646.74713,50,63,0
646.78455,647.0464,50,55,0
646.78455,647.0464,38,55,0
647.08374,647.3456,50,51,0
647.08374,647.3456,38,51,0
647.383,647.81165,50,35,0
647.383,647.81165,38,35,0
648.3182,648.7813,69,39,0
648.3182,648.7813,71,39,0
648.3182,648.7813,62,39,0
648.79114,649.25226,64,36,0
648.79114,649.25226,69,36,0
648.79114,649.25226,73,36,0
649.2621,649.7138,69,39,0
649.2621,649.7138,66,39,0
649.7234,650.20605,73,36,0
649.7234,650.20605,69,36,0
649.7234,650.20605,64,36,0
650.2163,650.4802,64,36,0
650.2163,650.4802,74,36,0
650.2163,650.4802,71,36,0
650.51794,650.78186,74,33,0
650.51794,650.78186,71,33,0
650.51794,650.78186,64,33,0
650.8195,651.08344,64,33,0
650.8195,651.08344,74,33,0
650.8195,651.08344,71,33,0
651.12115,651.56573,71,17,0
651.12115,651.56573,74,17,0
651.12115,651.56573,64,17,0
652.0912,652.346,33,74,0
652.0912,652.346,45,83,0
652.38245,652.6468,33,66,0
652.38245,652.6468,45,73,0
652.68634,652.96344,33,59,0
652.68634,652.96344,45,67,0
653.003,653.4476,45,57,0
653.003,653.4476,33,50,0
653.973,654.43854,45,22,0
653.973,654.43854,52,22,0
654.4484,654.90967,45,17,0
654.4484,654.90967,52,17,0
654.9195,655.3749,45,20,0
654.9195,655.3749,52,20,0
655.3846,655.87964,52,16,0
655.3846,655.87964,45,16,0
655.89014,656.7759,53,16,0
655.89014,656.7759,45,16,0
656.8144,657.05194,53,8,0
656.8144,657.05194,45,8,0
657.76465,658.6608,45,23,0
657.76465,658.6608,56,23,0
658.6998,658.9443,45,9,0
658.6998,658.9443,56,9,0
659.67755,659.93634,33,73,0
659.67755,659.93634,45,82,0
659.9733,660.23846,33,68,0
659.9733,660.23846,45,75,0
660.2775,660.55115,33,66,0
660.2775,660.55115,45,73,0
660.5903,661.03674,33,51,0
660.5903,661.03674,45,58,0
661.5644,662.0314,45,25,0
661.5644,662.0314,52,25,0
662.04126,662.50244,52,18,0
662.04126,662.50244,45,18,0
662.51227,662.96765,45,27,0
662.51227,662.96765,52,27,0
662.9773,663.4724,52,22,0
662.9773,663.4724,45,22,0
663.4829,664.3531,45,28,0
663.4829,664.3531,50,28,0
664.3909,664.742,54,16,0
664.3909,664.742,45,12,0
665.32715,666.1973,52,25,0
665.32715,666.1973,45,25,0
666.23517,666.5815,56,18,0
666.23517,666.5815,45,14,0
667.1577,668.0086,57,25,0
667.1577,668.0086,45,25,0
668.0456,668.3761,57,12,0
668.0456,668.3761,45,4,0
668.927,669.7779,50,25,0
668.927,669.7779,53,25,0
669.8149,670.1418,53,12,0
669.8149,670.1418,50,12,0
670.68665,671.5839,40,24,0
670.68665,671.6229,48,24,0
671.6229,671.98676,40,14,0
671.6229,672.59314,52,29,0
672.59314,673.543,51,34,0
673.543,673.9011,52,33,0
676.4077,677.3413,40,19,0
676.4077,677.3819,47,33,0
677.3819,677.8195,40,16,0
677.3819,678.3368,52,35,0
678.3368,679.2867,51,35,0
679.2867,679.652,52,34,0
682.107,684.4147,45,22,0
682.107,684.4147,54,22,0
682.107,684.4147,51,22,0
685.7993,688.107,51,20,0
685.7993,688.107,54,20,0
685.7993,688.107,45,20,0
689.4916,690.38947,51,31,0
689.4916,690.38947,39,31,0
690.38947,690.56464,36,24,0
690.38947,690.56464,48,24,0
691.32385,692.218,51,30,0
691.32385,692.218,39,30,0
692.218,692.3932,48,22,0
692.218,692.3932,36,22,0
693.1524,693.59265,39,30,0
693.1524,693.59265,51,30,0
693.59265,693.75964,36,23,0
693.59265,693.75964,48,23,0
694.03796,694.47485,39,39,0
694.03796,694.47485,51,39,0
694.47485,694.64056,48,30,0
694.47485,694.64056,36,30,0
694.9168,695.35034,39,52,0
694.9168,695.35034,51,52,0
695.35034,695.51416,48,50,0
695.35034,695.51416,36,50,0
695.78723,696.2191,51,66,0
695.78723,696.2191,39,66,0
696.2191,696.38745,36,58,0
696.2191,696.38745,48,58,0
696.66797,696.7776,40,72,0
696.7776,696.8866,52,41,0
696.8866,696.99896,40,53,0
696.99896,697.1078,52,38,0
697.1078,697.2167,40,47,0
697.2167,697.3275,52,40,0
697.3275,697.43646,40,47,0
697.43646,697.54425,52,37,0
697.54425,697.6537,40,42,0
697.6537,697.764,52,33,0
697.764,697.8711,40,42,0
697.8711,697.9807,52,35,0
697.9807,698.09106,40,41,0
698.09106,698.1971,52,32,0
698.1971,698.3048,40,42,0
698.3048,698.4143,52,31,0
698.4143,698.5205,37,75,0
698.5205,698.627,49,37,0
698.627,698.7361,37,50,0
698.7361,698.8441,49,35,0
698.8441,698.95166,37,49,0
698.95166,699.06274,49,32,0
699.06274,699.1725,37,42,0
699.1725,699.2799,49,33,0
699.2799,699.3886,37,43,0
699.3886,699.49915,49,32,0
699.49915,699.6075,37,43,0
699.6075,699.71436,49,33,0
699.71436,699.82184,37,43,0
699.82184,699.92993,49,35,0
699.92993,700.04004,37,42,0
700.04004,700.1691,49,37,0
700.1691,700.5994,52,83,0
700.1691,700.5994,64,83,0
700.5994,700.76514,61,72,0
700.5994,700.76514,49,72,0
701.0413,701.4765,64,83,0
701.0413,701.4765,52,83,0
701.4765,701.64417,57,72,0
701.4765,701.64417,69,72,0
701.9236,702.3796,64,73,0
701.9236,702.3796,52,73,0
702.3796,702.55585,61,66,0
702.3796,702.55585,49,66,0
702.84955,703.34064,45,57,0
702.84955,703.34064,57,57,0
703.34064,703.548,40,44,0
703.34064,703.548,52,44,0
703.89355,707.7434,40,27,0
703.89355,707.7434,52,27,0
707.7434,707.84863,40,71,0
707.84863,707.9538,52,38,0
707.9538,708.059,40,47,0
708.059,708.1642,52,35,0
708.1642,708.2694,37,66,0
708.2694,708.3746,49,37,0
708.3746,708.4798,37,42,0
708.4798,708.58496,49,35,0
708.58496,708.6883,40,63,0
708.6883,708.79156,52,41,0
708.79156,708.8949,40,51,0
708.8949,708.99817,52,38,0
708.99817,709.1015,45,67,0
709.1015,709.2048,57,40,0
709.2048,709.3081,45,52,0
709.3081,709.4109,57,40,0
709.4109,709.5138,49,72,0
709.5138,709.6165,61,47,0
709.6165,709.71893,49,61,0
709.71893,709.8211,61,48,0
709.8211,709.923,52,79,0
709.923,710.02454,64,52,0
710.02454,710.1259,52,63,0
710.1259,710.227,64,56,0
710.227,710.329,57,84,0
710.329,710.43353,69,57,0
710.43353,710.5385,57,66,0
710.5385,710.64624,69,53,0
710.64624,710.75977,52,73,0
710.75977,710.87683,64,46,0
710.87683,710.9967,52,57,0
710.9967,711.16925,64,45,0
711.16925,715.0191,40,28,0
711.16925,715.0191,52,28,0
715.0191,715.91815,33,26,0
715.0191,715.91815,45,26,0
715.0191,715.91815,40,26,0
715.9573,716.3226,45,13,0
715.9573,716.3226,40,13,0
715.9573,716.3226,33,13,0
716.93134,717.80536,64,26,0
716.93134,717.80536,71,26,0
716.93134,717.80536,57,26,0
717.8433,718.20404,64,11,0
717.8433,718.20404,71,11,0
717.8433,718.20404,57,11,0
718.8052,719.708,45,26,0
718.8052,719.708,33,26,0
718.8052,719.708,40,26,0
719.74725,720.10944,40,12,0
719.74725,720.10944,45,12,0
719.74725,720.10944,33,12,0
720.71313,721.5977,64,26,0
720.71313,721.5977,71,26,0
720.71313,721.5977,57,26,0
721.6362,721.99243,57,11,0
721.6362,721.99243,71,11,0
721.6362,721.99243,64,11,0
722.5861,723.4815,45,26,0
722.5861,723.4815,40,26,0
722.5861,723.4815,33,26,0
723.52045,723.88116,33,12,0
723.52045,723.88116,45,12,0
723.52045,723.88116,40,12,0
724.4823,725.346,64,26,0
724.4823,725.346,71,26,0
724.4823,725.346,57,26,0
725.38354,725.73395,57,11,0
725.38354,725.73395,71,11,0
725.38354,725.73395,64,11,0
726.31793,727.1816,64,26,0
726.31793,727.1816,71,26,0
726.31793,727.1816,57,26,0
727.2192,727.5695,71,11,0
727.2192,727.5695,57,11,0
727.2192,727.5695,64,11,0
728.1535,729.0172,71,26,0
728.1535,729.0172,64,26,0
728.1535,729.0172,57,26,0
729.05475,729.40515,71,11,0
729.05475,729.40515,64,11,0
729.05475,729.40515,57,11,0
729.98914,733.8365,49,78,0
729.98914,733.8365,61,78,0
733.8365,737.6839,57,35,0
733.8365,737.6839,45,22,0
737.6839,738.7335,33,13,0
737.6839,738.7335,40,13,0
737.6839,738.7335,45,17,0
738.7792,739.91,33,13,0
738.7792,739.91,45,17,0
738.7792,739.91,40,13,0
739.9591,744.53754,40,13,0
739.9591,744.53754,33,13,0
739.9591,744.53754,45,17,0
