start_time,end_time,note_value,velocity,instrument_program_number
1.849188,2.4942105,73,26,1
0.0,2.4942105,68,39,1
0.0,2.4942105,64,33,1
2.4942105,3.4617443,68,34,1
2.4942105,3.4617443,64,29,1
3.4617443,3.7842555,63,28,1
3.4617443,3.7842555,66,34,1
5.6334434,6.2726936,73,26,1
3.7842555,6.2726936,66,41,1
3.7842555,6.2726936,63,34,1
6.2726936,7.5511937,63,31,1
6.2726936,7.5511937,66,37,1
9.400381,10.039632,73,28,1
7.5511937,10.039632,66,34,1
7.5511937,10.039632,69,41,1
10.039632,10.678882,69,33,1
10.039632,10.678882,66,28,1
10.678882,10.998507,64,25,1
10.678882,10.998507,68,30,1
10.998507,11.318131,66,28,1
10.998507,11.318131,63,23,1
13.167319,13.806569,73,28,1
11.318131,13.806569,64,33,1
11.318131,13.806569,68,39,1
13.806569,15.08507,68,34,1
13.806569,15.08507,64,29,1
16.934258,17.573507,73,34,1
15.08507,17.573507,71,41,1
15.08507,17.573507,65,34,1
17.573507,17.879505,65,28,1
17.879505,18.185503,68,28,1
17.573507,18.185503,71,33,1
18.185503,18.4915,66,25,1
18.185503,18.4915,69,30,1
18.4915,18.8198,65,23,1
18.4915,18.8198,68,28,1
18.8198,20.668987,69,41,1
18.8198,20.668987,66,34,1
20.668987,21.276276,69,28,1
20.668987,21.276276,66,23,1
20.668987,21.276276,73,34,1
21.308237,21.915525,69,40,1
21.308237,21.915525,66,34,1
21.947487,22.590393,66,34,1
21.947487,22.590393,69,41,1
22.62423,25.104023,73,49,1
24.473417,25.104023,73,38,1
22.62423,25.104023,69,41,1
25.104023,26.054192,73,39,1
25.104023,26.054192,69,33,1
26.054192,26.402866,66,23,1
26.054192,26.402866,69,28,1
28.252054,28.891304,73,28,1
26.402866,29.530554,68,37,1
26.402866,29.530554,64,30,1
29.530554,30.169804,68,41,1
29.530554,30.169804,64,34,1
30.169804,31.094398,73,50,1
30.169804,31.094398,69,42,1
30.169804,31.094398,64,42,1
31.094398,31.402596,68,37,1
31.094398,31.402596,63,37,1
31.094398,31.402596,72,44,1
32.002956,32.636402,80,43,1
31.402596,33.269848,63,42,1
31.402596,33.269848,68,42,1
31.402596,33.269848,72,49,1
33.269848,33.903294,68,45,1
33.269848,33.903294,72,55,1
33.903294,34.82789,76,60,1
33.903294,34.82789,73,51,1
33.903294,34.82789,67,51,1
34.82789,35.136086,75,53,1
34.82789,35.136086,68,45,1
34.82789,35.136086,72,45,1
35.730736,36.369984,80,53,1
35.136086,37.009235,68,50,1
35.136086,37.009235,75,60,1
35.136086,37.009235,72,50,1
37.009235,37.666695,75,63,1
37.009235,37.666695,72,52,1
37.009235,37.666695,68,52,1
37.666695,38.59129,76,58,1
37.666695,38.59129,68,58,1
37.666695,38.59129,80,69,1
38.59129,38.899487,78,61,1
38.59129,38.899487,75,52,1
38.59129,38.899487,69,52,1
39.515884,40.155136,80,61,1
38.899487,40.794384,78,69,1
38.899487,40.794384,75,58,1
38.899487,40.794384,69,58,1
40.794384,41.491734,75,60,1
40.794384,41.491734,78,73,1
40.794384,41.491734,69,60,1
41.491734,42.41633,81,80,1
41.491734,42.41633,76,68,1
41.491734,42.41633,73,68,1
42.41633,42.724525,72,58,1
42.41633,42.724525,75,58,1
42.41633,42.724525,80,68,1
42.724525,49.06284,80,77,1
42.724525,49.06284,75,65,1
42.724525,49.06284,72,65,1
50.912025,51.551277,88,35,1
49.06284,52.190525,71,34,1
49.06284,52.190525,76,34,1
49.06284,52.190525,80,41,1
49.06284,52.190525,68,34,1
52.190525,52.829777,64,30,1
52.190525,52.829777,71,30,1
52.190525,52.829777,76,37,1
52.829777,53.75437,75,41,1
53.75437,54.06257,73,41,1
52.829777,54.06257,69,34,1
52.829777,54.06257,64,34,1
54.678963,55.318214,85,34,1
54.06257,55.957466,69,34,1
54.06257,55.957466,64,34,1
54.06257,55.957466,73,41,1
55.957466,56.596714,64,30,1
55.957466,56.596714,69,30,1
55.957466,56.596714,73,37,1
56.596714,57.52131,73,41,1
56.596714,57.52131,64,34,1
57.52131,57.829506,63,38,1
57.52131,57.829506,71,41,1
56.596714,57.829506,66,34,1
58.445904,59.08515,83,30,1
57.829506,59.724403,63,34,1
57.829506,59.724403,66,34,1
57.829506,59.724403,71,41,1
59.724403,60.36365,61,28,1
59.724403,60.36365,64,28,1
59.724403,60.36365,69,34,1
60.36365,61.619297,68,34,1
60.36365,61.619297,64,28,1
60.36365,61.619297,59,28,1
62.25855,62.897797,76,27,1
61.619297,64.1763,59,25,1
61.619297,64.1763,56,25,1
61.619297,64.1763,64,30,1
66.02549,66.67051,71,27,1
64.1763,66.67051,64,33,1
64.1763,66.67051,68,39,1
66.67051,67.63805,68,34,1
66.67051,67.63805,64,29,1
67.63805,67.960556,66,34,1
67.63805,67.960556,63,28,1
69.80974,70.44899,71,27,1
67.960556,70.44899,63,34,1
67.960556,70.44899,66,41,1
70.44899,71.72749,66,37,1
70.44899,71.72749,63,31,1
73.57668,74.21593,71,27,1
71.72749,74.21593,69,41,1
71.72749,74.21593,61,34,1
74.21593,74.524956,63,28,1
74.524956,74.83398,66,24,1
74.21593,74.83398,69,33,1
74.83398,75.15238,64,25,1
74.83398,75.15238,68,30,1
75.15238,75.49872,66,28,1
75.15238,75.49872,63,23,1
77.34791,77.98716,71,26,1
75.49872,77.98716,64,33,1
75.49872,77.98716,68,39,1
77.98716,79.265656,68,38,1
77.98716,79.265656,64,32,1
81.114845,81.7541,76,42,1
79.265656,81.7541,62,42,1
79.265656,81.7541,71,50,1
79.265656,81.7541,68,42,1
81.7541,82.73087,71,39,1
81.7541,82.73087,68,33,1
81.7541,82.73087,62,33,1
82.73087,83.056465,69,35,1
82.73087,83.056465,61,28,1
83.056465,84.90565,61,42,1
83.056465,84.90565,69,50,1
84.90565,85.5449,76,42,1
84.90565,85.5449,69,35,1
84.90565,85.5449,61,28,1
85.5449,86.18415,61,41,1
85.5449,86.18415,69,49,1
86.18415,86.86089,69,50,1
86.18415,86.86089,61,41,1
88.71008,89.34068,76,43,1
86.86089,89.34068,73,59,1
86.86089,89.34068,69,50,1
86.86089,89.34068,63,50,1
89.34068,90.290855,73,44,1
89.34068,90.290855,69,36,1
89.34068,90.290855,63,36,1
90.290855,90.62209,71,34,1
90.290855,90.62209,64,28,1
90.290855,90.62209,68,28,1
92.488716,93.12797,76,34,1
90.63953,93.76722,68,41,1
90.63953,93.76722,71,49,1
90.63953,93.76722,64,41,1
93.76722,94.40647,71,51,1
93.76722,94.40647,64,42,1
93.76722,94.40647,68,42,1
94.40647,95.33106,71,52,1
94.40647,95.33106,68,52,1
94.40647,95.33106,76,61,1
95.33106,95.63926,75,54,1
95.33106,95.63926,71,46,1
95.33106,95.63926,66,46,1
96.25565,96.8891,83,53,1
95.63926,97.522545,75,61,1
95.63926,97.522545,71,51,1
95.63926,97.522545,66,51,1
97.522545,98.15599,71,54,1
97.522545,98.15599,75,66,1
97.522545,98.15599,66,54,1
98.15599,99.08059,80,71,1
98.15599,99.08059,76,60,1
99.08059,99.373375,75,54,1
99.08059,99.373375,78,63,1
98.15599,99.38879,71,60,1
100.00518,100.64443,83,62,1
99.38879,101.28368,75,60,1
99.38879,101.28368,71,60,1
99.38879,101.28368,78,71,1
101.28368,101.94115,76,61,1
101.28368,101.94115,71,61,1
101.28368,101.94115,80,74,1
101.94115,102.86574,85,80,1
101.94115,102.86574,80,68,1
101.94115,102.86574,76,68,1
102.86574,103.15852,75,60,1
102.86574,103.15852,78,60,1
102.86574,103.15852,83,70,1
103.79033,104.423775,71,59,1
107.55863,108.20365,71,37,1
103.173935,108.84868,83,79,1
108.84868,109.4937,81,41,1
103.173935,109.4937,78,67,1
103.173935,109.4937,75,67,1
111.34289,111.98214,73,32,1
109.4937,112.62139,68,34,1
109.4937,112.62139,80,41,1
109.4937,112.62139,76,34,1
112.62139,113.260635,76,37,1
112.62139,113.260635,68,30,1
112.62139,113.260635,64,30,1
113.260635,114.15261,75,41,1
114.15261,114.45861,73,41,1
113.260635,114.45861,69,34,1
113.260635,114.45861,66,34,1
115.0706,115.709854,81,30,1
114.45861,116.349106,66,34,1
114.45861,116.349106,73,41,1
114.45861,116.349106,69,34,1
116.349106,116.98835,73,37,1
116.349106,116.98835,69,30,1
116.349106,116.98835,63,30,1
116.98835,118.221146,73,41,1
118.83754,119.41061,80,32,1
116.98835,119.41061,64,34,1
118.221146,120.028656,71,41,1
116.98835,120.028656,68,34,1
120.028656,120.66546,69,34,1
120.028656,120.66546,66,28,1
119.41061,120.66546,60,27,1
120.66546,121.921104,68,34,1
120.66546,121.921104,64,28,1
120.66546,121.921104,61,28,1
122.560356,123.19961,73,27,1
121.921104,123.799965,64,30,1
121.921104,123.799965,56,25,1
121.921104,123.799965,61,25,1
123.799965,124.436775,61,25,1
123.799965,124.436775,64,30,1
123.799965,124.436775,56,25,1
124.436775,125.372795,64,34,1
125.372795,125.69242,63,34,1
124.436775,125.69242,55,28,1
124.436775,125.69242,61,28,1
125.69242,126.33167,69,29,1
126.33167,126.97092,81,27,1
125.69242,127.57128,55,25,1
125.69242,127.57128,63,30,1
125.69242,127.57128,61,25,1
127.57128,128.20166,55,28,1
127.57128,128.20166,61,28,1
127.57128,128.20166,63,33,1
128.20166,129.13768,64,37,1
129.13768,129.4573,63,34,1
128.20166,129.4573,61,31,1
128.20166,129.4573,54,31,1
129.4573,130.09656,69,29,1
130.09656,130.73581,81,27,1
129.4573,131.37506,61,25,1
129.4573,131.37506,63,30,1
129.4573,131.37506,54,25,1
131.37506,132.01431,54,25,1
131.37506,132.01431,61,25,1
131.37506,132.01431,63,30,1
133.26996,133.87032,68,29,1
132.01431,133.87032,54,28,1
132.01431,133.87032,60,28,1
132.01431,133.87032,63,34,1
133.87032,134.17934,64,29,1
134.17934,134.48836,66,29,1
133.87032,134.48836,80,29,1
134.48836,135.12517,68,29,1
135.12517,135.76198,57,25,1
135.12517,135.76198,60,25,1
135.12517,135.76198,63,30,1
137.65688,138.29613,73,28,1
135.76198,138.93538,56,28,1
135.76198,138.93538,61,28,1
135.76198,138.93538,64,34,1
138.93538,139.57463,64,30,1
138.93538,139.57463,61,25,1
138.93538,139.57463,56,25,1
139.57463,140.51065,64,30,1
140.51065,140.83028,63,30,1
139.57463,140.83028,55,25,1
139.57463,140.83028,61,25,1
141.46953,142.10876,69,26,1
140.83028,142.74802,55,22,1
140.83028,142.74802,61,22,1
140.83028,142.74802,63,27,1
142.74802,143.38727,63,29,1
142.74802,143.38727,61,25,1
142.74802,143.38727,55,25,1
143.38727,144.32329,64,33,1
144.32329,144.64291,63,30,1
143.38727,144.64291,54,27,1
143.38727,144.64291,61,27,1
145.28217,145.92142,69,26,1
144.64291,146.56067,54,22,1
144.64291,146.56067,61,22,1
144.64291,146.56067,63,27,1
146.56067,147.19992,63,27,1
146.56067,147.19992,61,22,1
146.56067,147.19992,54,22,1
147.19992,149.07361,54,20,1
147.19992,149.07361,60,20,1
147.19992,149.07361,63,25,1
149.07361,149.38263,64,21,1
149.38263,149.69165,66,21,1
149.69165,150.32846,68,21,1
150.32846,150.96527,57,18,1
150.32846,150.96527,54,18,1
150.32846,150.96527,60,22,1
152.86017,153.49942,73,26,1
156.69566,157.33492,73,26,1
158.75224,159.92412,57,45,1
158.75224,159.92412,52,38,1
158.75224,159.92412,49,38,1
159.92412,161.03152,57,46,1
159.92412,161.03152,49,38,1
161.03152,162.17004,59,45,1
161.03152,162.17004,57,38,1
161.03152,162.17004,50,38,1
162.17004,163.02394,57,38,1
162.17004,163.04765,61,46,1
162.17004,163.04765,52,38,1
163.02394,163.30858,57,36,1
163.02394,163.33165,50,36,1
163.02394,163.33165,59,42,1
163.30858,164.9697,49,36,1
163.30858,164.9697,57,42,1
164.9697,165.5947,61,46,1
164.9697,165.5947,57,38,1
164.9697,165.5947,52,38,1
165.5947,166.42526,57,40,1
165.5947,166.44833,62,48,1
165.5947,166.44833,54,40,1
166.42526,166.70212,57,38,1
166.42526,166.72458,52,38,1
166.42526,166.72458,61,45,1
166.70212,167.24101,57,39,1
166.70212,167.24101,50,39,1
166.70212,167.24101,59,47,1
167.24101,167.7799,62,45,1
167.24101,167.7799,57,38,1
167.24101,167.7799,54,38,1
167.7799,168.34392,61,45,1
167.7799,168.34392,57,38,1
167.7799,168.34392,52,38,1
168.34392,168.90793,57,45,1
168.34392,168.90793,52,38,1
168.34392,168.90793,49,38,1
168.90793,170.58461,56,47,1
168.90793,170.58461,52,39,1
168.90793,170.58461,47,39,1
170.58461,171.13326,56,46,1
170.58461,171.13326,54,38,1
170.58461,171.13326,47,38,1
171.13326,171.6895,56,49,1
171.13326,171.6895,52,41,1
171.13326,171.6895,49,41,1
171.6895,172.25613,56,49,1
171.6895,172.25613,52,41,1
171.6895,172.25613,50,41,1
172.25613,173.42801,57,45,1
172.25613,173.42801,52,38,1
172.25613,173.42801,49,38,1
173.42801,174.53543,57,46,1
173.42801,174.53543,49,38,1
174.53543,175.67395,59,45,1
174.53543,175.67395,57,38,1
174.53543,175.67395,50,38,1
175.67395,176.52783,57,38,1
175.67395,176.55156,61,46,1
175.67395,176.55156,52,38,1
176.52783,176.81247,57,36,1
176.52783,176.83554,50,36,1
176.52783,176.83554,59,42,1
176.81247,178.4736,49,32,1
176.81247,178.4736,57,37,1
178.4736,179.09215,61,50,1
178.4736,179.09215,54,41,1
178.4736,179.09215,52,41,1
178.4736,179.09215,58,41,1
179.09215,179.92271,54,45,1
179.09215,179.94579,50,45,1
179.09215,179.94579,62,53,1
179.09215,179.94579,59,45,1
179.92271,180.19957,58,38,1
179.92271,180.22203,54,38,1
179.92271,180.22203,61,44,1
179.92271,180.22203,52,38,1
180.19957,180.73846,50,39,1
180.19957,180.73846,57,39,1
180.19957,180.73846,59,47,1
180.73846,181.0079,54,41,1
181.0079,181.27736,56,40,1
180.73846,181.27736,62,49,1
180.73846,181.27736,50,41,1
181.27736,181.8633,61,46,1
181.27736,181.8633,57,39,1
181.27736,181.8633,52,39,1
181.8633,182.4795,59,45,1
181.8633,182.4795,50,38,1
181.8633,182.4795,52,38,1
181.8633,182.4795,56,38,1
182.4795,183.60754,59,47,1
182.4795,183.60754,56,39,1
182.4795,183.60754,50,39,1
182.4795,184.15619,52,39,1
183.60754,184.70483,57,47,1
183.60754,184.70483,49,39,1
186.01228,186.19601,64,31,1
186.19601,186.37889,61,31,1
186.37889,186.56012,64,31,1
186.56012,186.74054,61,31,1
186.74054,186.91937,57,31,1
185.82771,186.91937,69,62,1
187.09741,187.27704,64,31,1
187.27704,187.45746,61,31,1
187.45746,187.63951,64,31,1
187.63951,187.8224,61,31,1
187.8224,188.00697,57,31,1
186.91937,188.00697,69,63,1
188.19322,188.37947,68,31,1
188.37947,188.56573,64,32,1
188.56573,188.75198,68,32,1
188.75198,188.93825,64,32,1
188.93825,189.1245,59,32,1
188.00697,189.1245,71,62,1
189.31075,189.49701,69,32,1
189.49701,189.68158,64,32,1
189.68158,189.86615,69,32,1
189.86615,190.04987,64,32,1
189.1245,190.0956,73,63,1
190.0956,190.23276,71,59,1
190.04987,190.23276,62,32,1
190.41563,190.59686,64,31,1
190.59686,190.77809,61,31,1
190.77809,190.95851,64,31,1
190.95851,191.13814,61,31,1
191.13814,191.31776,57,31,1
191.4958,191.67383,61,32,1
191.67383,191.85347,64,32,1
190.23276,191.85347,69,59,1
191.85347,192.0331,61,32,1
192.0331,192.21432,64,32,1
192.21432,192.39554,69,32,1
191.85347,192.39554,73,63,1
192.57843,192.763,69,34,1
192.763,192.94672,66,34,1
192.94672,193.12961,69,34,1
193.12961,193.31084,66,34,1
192.39554,193.35614,74,67,1
193.35614,193.49126,73,62,1
193.31084,193.49126,64,32,1
193.67009,193.84811,62,32,1
193.84811,194.02776,69,32,1
193.49126,194.02776,71,66,1
194.20818,194.3894,66,30,1
194.3894,194.57228,69,30,1
194.02776,194.57228,74,62,1
194.75685,194.94142,69,32,1
194.94142,195.12599,64,32,1
194.57228,195.12599,73,62,1
195.31056,195.49513,64,32,1
195.49513,195.6797,61,32,1
195.12599,195.6797,69,62,1
195.86427,196.04884,64,31,1
196.04884,196.23341,59,31,1
196.23341,196.41798,64,31,1
196.41798,196.60255,59,31,1
196.60255,196.78712,56,31,1
196.78712,196.97,64,31,1
196.97,197.1529,59,31,1
197.1529,197.33577,56,31,1
195.6797,197.33577,68,66,1
197.51865,197.70154,66,32,1
197.70154,197.88441,59,32,1
197.33577,197.88441,68,63,1
198.06898,198.2544,64,34,1
198.2544,198.44066,61,34,1
197.88441,198.44066,68,68,1
198.62866,198.81754,64,32,1
198.81754,199.0073,62,32,1
198.44066,199.0073,68,68,1
199.19186,199.37558,64,31,1
199.37558,199.55847,61,31,1
199.55847,199.7397,64,31,1
199.7397,199.92012,61,31,1
199.92012,200.09895,57,31,1
199.0073,200.09895,69,62,1
200.27698,200.45662,64,31,1
200.45662,200.63704,61,31,1
200.63704,200.81909,64,31,1
200.81909,201.00198,61,31,1
201.00198,201.18654,57,31,1
200.09895,201.18654,69,63,1
201.3728,201.55905,68,31,1
201.55905,201.74532,64,32,1
201.74532,201.93156,68,32,1
201.93156,202.11781,64,32,1
202.11781,202.30408,59,32,1
201.18654,202.30408,71,62,1
202.49033,202.67657,69,32,1
202.67657,202.86115,64,32,1
202.86115,203.04572,69,32,1
203.04572,203.22945,64,32,1
202.30408,203.27516,73,63,1
203.27516,203.41232,71,59,1
203.22945,203.41232,62,32,1
203.59521,203.77644,64,31,1
203.77644,203.95766,61,31,1
203.95766,204.13809,64,31,1
204.13809,204.31772,61,31,1
204.31772,204.49734,57,31,1
204.67538,204.85341,61,32,1
204.85341,205.03304,64,32,1
203.41232,205.03304,69,59,1
205.03304,205.21268,70,32,1
205.21268,205.39389,66,32,1
205.39389,205.57512,64,32,1
205.03304,205.57512,73,63,1
205.75801,205.94258,71,34,1
205.94258,206.1263,66,34,1
206.1263,206.30919,71,34,1
206.30919,206.4904,66,34,1
205.57512,206.53572,74,67,1
206.53572,206.67084,73,62,1
206.4904,206.67084,64,32,1
206.84967,207.0277,62,32,1
207.0277,207.20573,66,32,1
206.67084,207.20573,71,66,1
207.38376,207.56178,66,30,1
207.56178,207.73982,68,30,1
207.20573,207.73982,74,62,1
207.91945,208.09908,69,32,1
208.09908,208.27872,64,32,1
207.73982,208.27872,73,62,1
208.46329,208.64786,64,32,1
208.27872,208.83243,71,62,1
208.694,208.87856,62,32,1
209.01698,209.20155,68,31,1
209.20155,209.38612,64,31,1
209.38612,209.5707,68,31,1
209.5707,209.75526,64,31,1
209.75526,209.93983,62,31,1
208.83243,209.93983,71,66,1
209.93983,210.48848,61,31,1
209.93983,210.48848,69,66,1
212.16,213.28804,59,45,1
212.16,213.28804,56,38,1
213.28804,214.38533,59,46,1
213.28804,214.38533,56,38,1
214.38533,215.52385,61,45,1
214.38533,215.52385,58,38,1
214.38533,215.52385,52,38,1
215.52385,216.40146,59,38,1
215.52385,216.40146,62,46,1
216.37775,216.68544,64,42,1
216.37775,216.68544,61,36,1
215.52385,217.76979,54,38,1
217.76979,218.29918,54,38,1
216.66237,218.29918,66,42,1
216.66237,218.29918,62,36,1
218.29918,218.8761,66,54,1
218.29918,218.8761,62,45,1
218.29918,218.8761,56,45,1
218.8761,219.70667,66,58,1
218.8761,219.70667,62,49,1
218.8761,219.70667,57,49,1
219.70667,219.98352,67,58,1
219.70667,219.98352,62,48,1
219.70667,219.98352,59,48,1
219.98352,220.5224,69,60,1
219.98352,220.5224,62,50,1
219.98352,220.5224,57,50,1
220.5224,221.0613,67,57,1
220.5224,221.0613,62,48,1
220.5224,221.0613,59,48,1
221.0613,221.64723,66,55,1
221.0613,221.64723,62,46,1
221.0613,221.64723,57,46,1
221.64723,222.26346,64,51,1
221.64723,222.26346,55,44,1
221.64723,222.26346,57,44,1
221.64723,222.26346,61,44,1
222.26346,223.39148,64,47,1
222.26346,223.39148,55,39,1
222.26346,223.39148,57,39,1
222.26346,223.39148,61,39,1
223.39148,225.71611,62,47,1
223.39148,225.71611,57,39,1
223.39148,225.71611,54,39,1
225.71611,226.84413,58,34,1
225.71611,226.84413,53,28,1
226.84413,227.94144,58,34,1
226.84413,227.94144,53,28,1
227.94144,229.07996,58,34,1
227.94144,229.07996,53,28,1
229.07996,229.93384,55,28,1
229.07996,229.93384,58,34,1
229.93384,230.03093,57,27,1
230.00665,230.10374,58,27,1
230.07947,230.17656,60,27,1
230.15228,230.24905,58,27,1
230.2251,230.79993,55,31,1
230.79993,231.35364,67,34,1
230.79993,231.35364,63,28,1
230.79993,231.35364,55,28,1
231.35364,231.89731,65,34,1
231.35364,231.89731,59,28,1
231.35364,231.89731,55,28,1
231.89731,232.45102,63,34,1
231.89731,232.45102,60,23,1
231.89731,232.45102,55,23,1
232.45102,234.64598,62,37,1
232.45102,234.64598,58,30,1
232.45102,234.64598,53,30,1
234.64598,235.52737,63,36,1
234.64598,235.79593,51,30,1
234.64598,235.79593,57,30,1
235.50296,235.81943,60,34,1
235.79593,239.14413,50,29,1
235.79593,239.14413,56,29,1
235.79593,239.14413,59,35,1
239.14413,240.79044,59,44,1
240.79044,241.09311,61,46,1
239.14413,241.3492,50,36,1
239.14413,241.3492,56,36,1
241.06982,241.37434,62,46,1
241.3492,241.9527,64,45,1
241.9527,242.5947,56,44,1
241.9527,242.5947,52,44,1
241.9527,242.5947,50,44,1
242.5947,243.76657,57,45,1
242.5947,243.76657,52,38,1
242.5947,243.76657,49,38,1
243.76657,244.874,57,46,1
243.76657,244.874,49,38,1
244.874,246.01251,59,45,1
244.874,246.01251,57,38,1
244.874,246.01251,50,38,1
246.01251,246.8664,57,38,1
246.01251,246.89012,61,46,1
246.01251,246.89012,52,38,1
246.8664,247.15103,57,36,1
246.8664,247.1741,50,36,1
246.8664,247.1741,59,42,1
247.15103,248.81215,49,36,1
247.15103,248.81215,57,42,1
248.81215,249.38698,61,50,1
248.81215,249.38698,57,41,1
248.81215,249.38698,52,41,1
249.38698,250.21754,57,44,1
249.38698,250.24062,62,52,1
249.38698,250.24062,53,44,1
250.21754,250.4944,57,41,1
250.21754,250.51685,52,41,1
250.21754,250.51685,61,49,1
250.4944,251.0333,57,42,1
250.4944,251.0333,50,42,1
250.4944,251.0333,59,51,1
251.0333,251.57217,62,49,1
251.0333,251.57217,57,41,1
251.0333,251.57217,53,41,1
251.57217,252.1362,61,49,1
251.57217,252.1362,57,41,1
251.57217,252.1362,52,41,1
252.1362,252.70021,57,49,1
252.1362,252.70021,52,41,1
252.1362,252.70021,49,41,1
252.70021,254.33621,56,51,1
252.70021,254.33621,52,42,1
252.70021,254.33621,47,42,1
254.33621,254.88486,56,60,1
254.33621,254.88486,53,49,1
254.33621,254.88486,47,49,1
254.88486,255.44109,56,66,1
254.88486,255.44109,52,56,1
254.88486,255.44109,48,56,1
255.44109,256.00772,56,69,1
255.44109,256.00772,52,59,1
255.44109,256.00772,50,59,1
256.00772,257.1796,57,76,1
256.00772,257.1796,52,63,1
256.00772,257.1796,48,63,1
257.1796,258.28702,57,77,1
257.1796,258.28702,48,63,1
257.1796,258.28702,52,63,1
258.28702,259.42554,59,79,1
258.28702,259.42554,53,66,1
258.28702,259.42554,50,66,1
259.42554,260.30316,55,69,1
259.42554,260.30316,52,69,1
259.42554,260.56406,60,84,1
260.27942,260.58713,57,66,1
260.27942,260.58713,53,66,1
260.56406,262.2252,52,66,1
260.56406,262.2252,55,66,1
260.56406,262.2252,60,77,1
262.2252,262.8494,62,80,1
262.2252,262.8494,57,66,1
262.8494,263.70303,64,85,1
262.8494,263.95682,56,71,1
262.8494,263.95682,59,71,1
263.67996,263.9783,62,59,1
263.95682,264.47263,61,63,1
263.95682,264.47263,57,52,1
264.47263,264.74207,64,41,1
264.47263,264.74207,57,35,1
264.47263,264.74207,54,35,1
264.74207,265.02408,62,41,1
265.02408,265.61002,61,49,1
265.02408,265.61002,57,41,1
265.02408,265.61002,52,41,1
265.61002,266.22626,59,45,1
265.61002,266.22626,50,38,1
265.61002,266.22626,52,38,1
265.61002,266.22626,56,38,1
266.22626,267.35428,59,47,1
266.22626,267.35428,56,39,1
266.22626,267.35428,50,39,1
266.22626,267.90292,52,39,1
267.35428,268.45157,57,47,1
267.35428,268.45157,49,39,1
269.759,269.94275,68,31,1
269.94275,270.1256,64,31,1
270.1256,270.30685,68,31,1
270.30685,270.48727,64,31,1
270.48727,270.6661,59,31,1
269.57443,270.6661,71,62,1
270.84415,271.02377,68,31,1
271.02377,271.2042,64,31,1
271.2042,271.38626,68,31,1
271.38626,271.56912,64,31,1
271.56912,271.7537,59,31,1
270.6661,271.7537,71,63,1
271.93994,272.12622,70,31,1
272.12622,272.31247,66,32,1
272.31247,272.49872,70,32,1
272.49872,272.68497,66,32,1
272.68497,272.87122,64,32,1
271.7537,272.87122,73,62,1
273.0575,273.24374,71,32,1
273.24374,273.4283,66,32,1
273.4283,273.61288,71,32,1
273.61288,273.7966,66,32,1
272.87122,273.84232,74,63,1
273.84232,273.9795,76,56,1
273.7966,273.9795,73,25,1
274.16235,274.3436,74,31,1
274.3436,274.5248,71,31,1
274.5248,274.70523,74,31,1
274.70523,274.8849,71,31,1
274.8849,275.0645,66,31,1
275.24252,275.42056,74,32,1
275.42056,275.6002,71,32,1
273.9795,275.6002,78,59,1
275.6002,275.77982,74,32,1
275.77982,275.96106,71,32,1
275.96106,276.14227,68,32,1
275.6002,276.14227,78,63,1
276.32516,276.50974,74,34,1
276.50974,276.69345,69,34,1
276.69345,276.87634,74,34,1
276.87634,277.05756,69,34,1
276.14227,277.10287,78,67,1
277.10287,277.23798,79,62,1
277.05756,277.23798,71,32,1
277.4168,277.59485,69,32,1
277.59485,277.77448,74,32,1
277.23798,277.77448,81,66,1
277.9549,278.13614,71,30,1
278.13614,278.319,74,30,1
277.77448,278.319,79,62,1
278.50357,278.68814,69,32,1
278.68814,278.8727,74,32,1
278.319,278.8727,78,62,1
279.05728,279.24185,67,32,1
279.24185,279.42642,69,32,1
278.8727,279.42642,76,62,1
279.611,279.79556,73,31,1
279.79556,279.98013,69,31,1
279.98013,280.1647,73,31,1
280.1647,280.34927,69,31,1
280.34927,280.53384,67,31,1
279.42642,280.53384,76,66,1
280.7236,280.91336,69,31,1
280.91336,281.10312,66,31,1
281.10312,281.29288,69,34,1
281.29288,281.47574,66,32,1
281.47574,281.65863,62,32,1
281.84406,282.03473,66,33,1
282.03473,282.23007,62,32,1
282.23007,282.43024,69,32,1
282.43024,282.63657,66,28,1
282.63657,282.84836,62,27,1
280.53384,282.84836,74,66,1
283.03293,283.21664,65,24,1
283.21664,283.39954,62,24,1
283.39954,283.58075,65,24,1
283.58075,283.7612,62,24,1
283.7612,283.94,58,24,1
282.84836,283.94,70,44,1
284.11804,284.29767,65,24,1
284.29767,284.47812,62,24,1
284.47812,284.66016,65,24,1
284.66016,284.84305,62,24,1
284.84305,285.02762,58,24,1
283.94,285.02762,70,45,1
285.21387,285.40012,65,24,1
285.40012,285.58636,62,25,1
285.58636,285.7726,65,25,1
285.7726,285.9589,62,25,1
285.9589,286.14514,58,25,1
285.02762,286.14514,70,44,1
286.3314,286.51764,67,25,1
286.51764,286.7022,63,25,1
286.7022,286.88678,67,25,1
286.88678,287.07053,63,25,1
287.07053,287.2534,58,25,1
286.14514,287.2534,70,45,1
287.43628,287.6175,63,24,1
287.6175,287.79874,58,24,1
287.2534,287.79874,67,39,1
287.97916,288.15878,75,24,1
288.15878,288.3384,67,24,1
287.79874,288.3384,79,42,1
288.51645,288.6945,71,25,1
288.6945,288.8741,67,25,1
288.3384,288.8741,77,42,1
289.05374,289.23495,72,25,1
289.23495,289.4162,67,25,1
288.8741,289.4162,75,45,1
289.59906,289.78363,70,27,1
289.78363,289.96738,65,27,1
289.96738,290.15024,70,27,1
290.15024,290.33148,65,27,1
290.33148,290.5119,62,25,1
290.69073,290.86877,70,27,1
290.86877,291.0484,65,27,1
291.0484,291.22882,70,27,1
291.22882,291.41003,65,25,1
291.41003,291.59293,62,25,1
289.4162,291.59293,74,45,1
291.7775,291.96207,72,25,1
291.96207,292.14664,69,25,1
292.3312,292.51578,69,25,1
291.59293,292.56192,75,44,1
292.14664,292.70035,72,27,1
292.56192,292.70035,72,39,1
292.51578,292.70035,63,25,1
292.88492,293.0695,68,24,1
293.0695,293.25406,62,24,1
293.25406,293.43863,68,24,1
293.43863,293.6232,62,24,1
293.6232,293.80777,59,24,1
293.99066,294.17352,68,24,1
294.17352,294.3564,62,24,1
294.3564,294.5393,68,27,1
294.5393,294.72217,62,25,1
294.72217,294.90506,59,25,1
295.08963,295.27505,68,27,1
295.27505,295.4613,62,27,1
295.4613,295.6493,68,28,1
295.6493,295.83817,62,25,1
295.83817,296.02792,59,25,1
292.70035,296.02792,71,43,1
296.2125,296.39706,68,24,1
296.39706,296.58163,61,24,1
296.58163,296.7662,68,24,1
296.7662,296.95078,61,24,1
296.95078,297.13535,59,24,1
297.31824,297.50113,68,24,1
297.50113,297.684,61,24,1
297.684,297.86688,68,27,1
297.86688,298.04977,61,25,1
298.04977,298.23264,59,25,1
296.02792,298.23264,71,42,1
298.4172,298.60263,68,27,1
298.60263,298.78888,62,27,1
298.78888,298.9769,68,28,1
298.9769,299.16577,62,26,1
299.16577,299.35553,59,27,1
298.23264,299.35553,71,43,1
299.5401,299.72467,66,26,1
299.72467,299.90924,62,26,1
299.90924,300.0938,66,25,1
300.0938,300.27838,62,25,1
299.35553,300.32452,71,44,1
300.32452,300.43988,69,41,1
300.27838,300.46295,61,24,1
300.6458,300.8287,66,24,1
300.8287,301.0116,61,24,1
301.0116,301.19446,66,27,1
301.19446,301.37735,61,25,1
301.37735,301.56024,57,25,1
301.7448,301.9302,66,27,1
301.9302,302.1165,61,27,1
302.1165,302.30447,66,28,1
302.30447,302.49335,61,25,1
302.49335,302.6831,57,25,1
300.46295,302.6831,69,42,1
302.86768,303.05225,66,24,1
303.05225,303.23682,61,24,1
303.23682,303.4214,66,24,1
303.4214,303.60596,61,24,1
303.60596,303.79053,57,24,1
303.97342,304.15628,66,24,1
304.15628,304.33917,61,24,1
304.33917,304.52206,66,27,1
304.52206,304.70493,61,25,1
304.70493,304.88782,57,25,1
302.6831,304.88782,69,43,1
305.0724,305.2578,66,27,1
305.2578,305.44406,62,27,1
305.44406,305.63205,66,28,1
305.63205,305.82095,62,26,1
305.82095,306.01068,57,27,1
304.88782,306.01068,69,41,1
306.19525,306.37982,66,26,1
306.37982,306.5644,61,26,1
306.5644,306.74896,66,25,1
306.74896,306.93353,61,25,1
306.01068,306.97968,69,45,1
306.97968,307.10196,68,43,1
306.93353,307.1181,64,24,1
307.301,307.4839,64,24,1
307.4839,307.66675,61,24,1
307.66675,307.84964,64,27,1
307.84964,308.03253,61,25,1
308.03253,308.21542,56,25,1
308.4,308.5854,64,27,1
308.5854,308.77164,61,27,1
308.77164,308.95966,64,28,1
308.95966,309.14853,61,25,1
309.14853,309.3383,56,25,1
307.1181,309.3383,68,41,1
309.5336,309.7289,63,23,1
309.7289,309.92422,61,23,1
309.92422,310.11954,63,23,1
310.11954,310.31485,61,22,1
310.31485,310.51016,56,22,1
310.70175,310.89615,63,22,1
310.89615,311.09338,61,22,1
311.09338,311.29355,63,23,1
311.29355,311.49677,61,22,1
311.49677,311.7031,56,22,1
309.3383,311.7031,68,40,1
311.9116,312.12674,63,22,1
312.12674,312.35028,60,22,1
312.35028,312.58154,63,23,1
312.58154,312.82245,60,21,1
312.82245,313.07394,56,22,1
311.7031,313.07394,68,37,1
318.82312,319.46814,73,26,1
316.96753,319.46814,68,39,1
316.96753,319.46814,64,33,1
319.46814,320.6287,68,34,1
319.46814,320.6287,64,29,1
320.6287,320.79504,66,30,1
320.6287,320.79504,63,25,1
322.67102,323.31027,73,28,1
320.8038,323.31027,66,37,1
320.8038,323.31027,63,30,1
323.31027,324.62543,66,37,1
323.31027,324.62543,63,31,1
326.506,327.14526,73,28,1
324.62543,327.14526,69,41,1
324.62543,327.14526,66,34,1
327.14526,327.78647,69,33,1
327.14526,327.78647,66,28,1
327.78647,328.11826,68,30,1
327.78647,328.11826,64,25,1
328.11826,328.45486,66,28,1
328.11826,328.45486,63,23,1
330.32877,330.96802,73,27,1
328.45486,330.96802,68,39,1
328.45486,330.96802,64,33,1
330.96802,332.29706,68,34,1
330.96802,332.29706,64,29,1
334.18506,334.8243,73,31,1
332.29706,334.8243,71,41,1
332.29706,334.8243,65,34,1
334.8243,335.1504,65,28,1
335.1504,335.48218,68,28,1
334.8243,335.48218,71,33,1
335.48218,335.8211,69,30,1
335.48218,335.8211,66,25,1
335.8211,336.1675,68,28,1
335.8211,336.1675,65,23,1
336.1675,338.0555,69,41,1
336.1675,338.0555,66,34,1
338.0555,338.6628,73,34,1
338.0555,338.6628,69,28,1
338.0555,338.6628,66,23,1
338.69476,339.31854,69,40,1
338.69476,339.31854,66,34,1
339.35138,340.02417,69,41,1
339.35138,340.02417,66,34,1
340.0596,342.62415,73,49,1
341.94135,342.62415,73,38,1
340.0596,342.62415,69,41,1
342.62415,343.6098,73,39,1
342.62415,343.6098,69,33,1
343.6098,343.9614,69,28,1
343.6098,343.9614,66,23,1
345.84894,346.4882,73,28,1
343.9614,347.14038,68,37,1
343.9614,347.14038,64,30,1
347.14038,347.8245,68,41,1
347.14038,347.8245,64,34,1
347.8245,348.73083,73,50,1
347.8245,348.73083,69,42,1
347.8245,348.73083,64,42,1
348.73083,349.02155,72,44,1
348.73083,349.02155,68,37,1
348.73083,349.02155,63,37,1
349.64883,350.2823,80,43,1
349.03683,350.9223,63,42,1
349.03683,350.9223,68,42,1
349.03683,350.9223,72,49,1
350.9223,351.57672,72,55,1
350.9223,351.57672,68,45,1
351.57672,352.47736,76,60,1
351.57672,352.47736,73,51,1
351.57672,352.47736,67,51,1
352.47736,352.76807,75,53,1
352.47736,352.76807,72,45,1
352.47736,352.76807,68,45,1
353.39536,354.0346,80,53,1
352.78336,354.67386,68,50,1
352.78336,354.67386,72,50,1
352.78336,354.67386,75,60,1
354.67386,355.3313,75,63,1
354.67386,355.3313,72,52,1
354.67386,355.3313,68,52,1
355.3313,356.2559,80,69,1
355.3313,356.2559,76,58,1
355.3313,356.2559,68,58,1
356.2559,356.54868,78,61,1
356.2559,356.54868,75,52,1
356.2559,356.54868,69,52,1
357.1805,357.81973,80,61,1
356.5641,358.45898,69,58,1
356.5641,358.45898,75,58,1
356.5641,358.45898,78,69,1
358.45898,359.21667,78,73,1
358.45898,359.21667,75,60,1
358.45898,359.21667,69,60,1
359.21667,360.14127,81,80,1
359.21667,360.14127,76,68,1
359.21667,360.14127,73,68,1
360.14127,360.43405,80,70,1
360.14127,360.43405,75,60,1
360.14127,360.43405,72,60,1
360.44946,366.85596,80,79,1
360.44946,366.85596,75,67,1
360.44946,366.85596,72,67,1
366.85596,370.01266,79,41,1
366.85596,370.01266,76,34,1
366.85596,370.01266,72,34,1
370.01266,370.7017,84,37,1
370.01266,370.7017,79,30,1
370.01266,370.7017,72,30,1
370.7017,371.62628,83,41,1
371.62628,371.91907,81,41,1
370.7017,371.93448,77,34,1
370.7017,371.93448,72,34,1
371.93448,373.8291,81,41,1
371.93448,373.8291,77,34,1
371.93448,373.8291,72,34,1
373.8291,374.50003,76,30,1
373.8291,374.50003,72,30,1
373.8291,374.50003,81,36,1
374.50003,375.42462,81,41,1
374.50003,375.42462,72,34,1
375.42462,375.7174,79,41,1
375.42462,375.7174,71,38,1
374.50003,375.73282,74,34,1
375.73282,377.6329,79,41,1
375.73282,377.6329,74,34,1
375.73282,377.6329,71,34,1
377.6329,378.30362,77,34,1
377.6329,378.30362,72,28,1
377.6329,378.30362,69,28,1
378.30362,379.55927,76,34,1
378.30362,379.55927,72,28,1
378.30362,379.55927,67,28,1
380.19852,380.51813,84,29,1
379.55927,382.13876,64,25,1
379.55927,382.13876,67,25,1
379.55927,382.13876,72,30,1
383.98795,384.31622,79,28,1
382.13876,384.64453,64,39,1
382.13876,384.64453,60,33,1
384.64453,385.62958,64,34,1
384.64453,385.62958,60,29,1
385.62958,385.94913,62,34,1
385.62958,385.94913,59,28,1
387.81525,388.1402,79,28,1
385.96606,388.46515,62,41,1
385.96606,388.46515,59,34,1
388.46515,389.78696,62,37,1
388.46515,389.78696,59,31,1
391.63614,391.95578,79,28,1
389.78696,392.2754,65,41,1
389.78696,392.2754,57,34,1
392.2754,392.59702,59,28,1
392.59702,392.92307,62,24,1
392.2754,392.92307,65,33,1
392.92307,393.2537,64,30,1
392.92307,393.2537,60,25,1
393.2537,393.59018,62,28,1
393.2537,393.59018,59,23,1
393.59018,395.43936,64,39,1
393.59018,395.43936,60,33,1
395.43936,395.759,79,29,1
395.43936,395.759,64,35,1
395.43936,395.759,60,29,1
396.0786,396.40024,64,35,1
396.0786,396.40024,59,29,1
396.7252,397.0535,66,35,1
396.7252,397.0535,58,29,1
397.38644,398.03635,59,33,1
399.256,399.57852,71,27,1
398.03635,399.90103,64,33,1
397.38644,399.90103,68,39,1
399.90103,400.88608,68,34,1
399.90103,400.88608,64,29,1
400.88608,401.2056,66,34,1
400.88608,401.2056,63,28,1
403.07175,403.39136,71,27,1
401.22253,403.711,66,41,1
401.22253,403.711,63,34,1
403.711,405.03278,66,37,1
403.711,405.03278,63,31,1
406.88196,407.2016,71,28,1
405.03278,407.5212,69,41,1
405.03278,407.5212,61,34,1
407.5212,407.84003,63,28,1
407.84003,408.16058,66,24,1
407.5212,408.16058,69,33,1
408.16058,408.48553,68,30,1
408.16058,408.48553,64,25,1
408.48553,408.815,66,28,1
408.48553,408.815,63,23,1
410.66418,410.9838,71,28,1
408.815,411.9427,68,39,1
408.815,411.9427,64,33,1
411.9427,412.58194,71,37,1
411.9427,412.58194,68,30,1
412.58194,413.50653,76,51,1
412.58194,413.50653,71,44,1
412.58194,413.50653,68,44,1
413.50653,413.79932,75,47,1
413.50653,413.79932,71,39,1
413.50653,413.79932,66,39,1
414.43112,415.06458,83,46,1
413.81473,415.70135,66,44,1
413.81473,415.70135,71,44,1
413.81473,415.70135,75,53,1
415.70135,416.35922,75,60,1
415.70135,416.35922,71,49,1
415.70135,416.35922,66,49,1
416.35922,417.2838,80,65,1
416.35922,417.2838,76,55,1
417.2838,417.5766,78,59,1
417.2838,417.5766,75,50,1
416.35922,417.592,71,55,1
418.2084,418.84766,83,60,1
417.592,419.4869,71,57,1
417.592,419.4869,75,57,1
417.592,419.4869,78,67,1
419.4869,420.16107,80,72,1
419.4869,420.16107,76,59,1
419.4869,420.16107,71,59,1
420.16107,421.08566,85,80,1
420.16107,421.08566,80,68,1
420.16107,421.08566,76,68,1
421.08566,421.37845,83,70,1
421.08566,421.37845,78,60,1
421.08566,421.37845,75,60,1
422.01025,422.6437,71,59,1
425.81766,426.4627,71,33,1
421.39386,427.10773,83,79,1
427.10773,427.75275,81,42,1
421.39386,427.75275,78,67,1
421.39386,427.75275,75,67,1
429.60193,430.24118,73,31,1
427.75275,430.8933,68,34,1
427.75275,430.8933,76,34,1
427.75275,430.8933,80,41,1
430.8933,431.55573,76,37,1
430.8933,431.55573,73,30,1
430.8933,431.55573,68,30,1
431.55573,432.48032,75,41,1
432.48032,432.7885,73,41,1
431.55573,432.7885,69,34,1
431.55573,432.7885,66,34,1
432.7885,433.39465,66,34,1
432.7885,434.69632,73,41,1
432.7885,434.69632,69,34,1
434.69632,435.3587,73,37,1
434.69632,435.3587,69,30,1
434.69632,435.3587,63,30,1
435.3587,436.59152,73,41,1
437.20792,437.78098,80,29,1
435.3587,437.78098,64,34,1
436.59152,438.43088,71,41,1
435.3587,438.43088,68,34,1
438.43088,439.1087,69,34,1
438.43088,439.1087,66,28,1
437.78098,439.1087,60,25,1
439.1087,440.36435,68,34,1
439.1087,440.36435,64,28,1
439.1087,440.36435,61,28,1
441.0036,441.64285,73,29,1
440.36435,442.30423,56,25,1
440.36435,442.30423,61,25,1
440.36435,442.30423,64,30,1
444.86182,445.50107,73,28,1
443.001,446.16934,61,27,1
443.001,446.16934,65,27,1
443.001,446.16934,68,33,1
446.16934,446.85837,73,29,1
446.16934,446.85837,68,23,1
446.16934,446.85837,61,23,1
446.85837,448.09116,72,33,1
448.70755,449.3468,82,27,1
446.85837,449.3468,61,27,1
446.85837,449.3468,66,27,1
448.09116,450.01508,70,33,1
450.01508,450.70407,70,29,1
450.01508,450.70407,65,23,1
450.01508,450.70407,61,23,1
450.70407,451.93686,70,33,1
450.70407,451.93686,63,27,1
450.70407,451.93686,61,27,1
452.55325,453.12634,80,24,1
451.93686,453.79688,60,22,1
451.93686,453.79688,63,24,1
451.93686,453.79688,68,30,1
453.79688,454.48956,66,29,1
453.79688,454.48956,61,24,1
453.79688,454.48956,58,24,1
454.48956,455.7452,65,29,1
454.48956,455.7452,61,24,1
454.48956,455.7452,56,24,1
456.38446,457.0237,73,25,1
455.7452,457.68726,53,22,1
455.7452,457.68726,56,22,1
455.7452,457.68726,61,25,1
457.68726,458.3738,65,29,1
457.68726,458.3738,61,24,1
457.68726,458.3738,56,24,1
458.9902,459.30984,70,29,1
458.3738,459.30984,65,34,1
459.30984,459.62946,63,34,1
458.3738,459.62946,61,28,1
458.3738,459.62946,55,28,1
459.62946,460.2687,82,29,1
459.62946,461.56192,55,25,1
459.62946,461.56192,61,25,1
459.62946,461.56192,63,30,1
461.56192,462.23618,63,33,1
461.56192,462.23618,61,28,1
461.56192,462.23618,55,28,1
462.85257,463.1722,69,29,1
462.23618,463.1722,64,37,1
463.1722,463.49182,63,34,1
462.23618,463.49182,61,31,1
462.23618,463.49182,54,31,1
463.49182,464.13107,81,29,1
463.49182,465.41476,54,25,1
463.49182,465.41476,61,25,1
463.49182,465.41476,63,30,1
465.41476,466.08548,63,30,1
465.41476,466.08548,61,25,1
465.41476,466.08548,54,25,1
466.70187,467.02148,68,27,1
467.34113,467.98038,80,28,1
466.08548,467.98038,63,34,1
466.08548,467.98038,60,28,1
466.08548,467.98038,54,28,1
467.98038,468.3,65,29,1
468.3,468.61963,66,29,1
468.61963,469.27286,68,29,1
469.27286,469.94113,64,30,1
469.27286,469.94113,60,25,1
469.27286,469.94113,56,25,1
471.19678,472.47528,73,29,1
469.94113,473.12296,56,28,1
469.94113,473.12296,61,28,1
469.94113,473.12296,65,34,1
473.12296,473.79007,65,30,1
473.12296,473.79007,61,25,1
473.12296,473.79007,56,25,1
473.79007,474.7261,65,28,1
474.7261,475.04572,63,28,1
473.79007,475.04572,61,23,1
473.79007,475.04572,55,23,1
475.04572,476.32422,70,24,1
475.04572,476.98547,55,21,1
475.04572,476.98547,61,21,1
475.04572,476.98547,63,25,1
476.98547,477.66702,63,28,1
476.98547,477.66702,61,23,1
476.98547,477.66702,55,23,1
477.66702,478.60306,64,31,1
478.60306,478.92267,63,28,1
477.66702,478.92267,61,26,1
477.66702,478.92267,54,26,1
478.92267,479.56192,69,24,1
478.92267,480.85443,54,21,1
478.92267,480.85443,61,21,1
478.92267,480.85443,63,25,1
480.85443,481.5227,63,25,1
480.85443,481.5227,61,21,1
480.85443,481.5227,54,21,1
481.5227,483.4176,63,28,1
481.5227,483.4176,60,23,1
481.5227,483.4176,54,23,1
483.4176,483.7372,65,24,1
483.7372,484.05682,66,24,1
484.05682,484.71692,68,24,1
484.71692,485.39233,60,25,1
484.71692,485.39233,57,21,1
484.71692,485.39233,54,21,1
486.64798,487.97513,73,24,1
490.6323,491.95944,73,24,1
494.66812,496.0386,73,24,1
498.34375,498.54074,68,22,1
499.13174,499.32877,73,23,1
499.91977,500.1168,80,23,1
500.7078,500.91516,85,23,1
0.0,0.616396,37,26,1
1.078693,1.232792,49,22,1
1.232792,1.849188,61,27,1
3.7842555,4.4006515,37,26,1
4.8629484,5.0170474,49,22,1
5.0170474,5.6334434,61,27,1
7.5511937,8.167589,37,26,1
8.629887,8.783985,49,22,1
8.783985,9.400381,61,27,1
11.318131,11.934527,37,26,1
12.396825,12.550923,49,22,1
12.550923,13.167319,61,27,1
15.08507,15.701466,37,26,1
16.163763,16.317862,49,22,1
16.317862,16.934258,61,27,1
18.8198,19.436195,37,26,1
19.898493,20.052591,49,22,1
20.052591,20.668987,61,27,1
22.62423,23.240625,37,31,1
23.702923,23.857021,49,25,1
23.857021,24.473417,61,30,1
26.402866,27.019262,37,26,1
27.48156,27.635658,49,22,1
27.635658,28.252054,61,27,1
30.169804,30.7862,44,34,1
30.169804,30.7862,32,28,1
31.248497,31.402596,44,36,1
31.402596,32.002956,56,41,1
33.903294,34.51969,44,41,1
33.903294,34.51969,32,35,1
34.981987,35.136086,44,43,1
35.136086,35.730736,56,50,1
37.666695,38.283092,32,39,1
37.666695,38.283092,44,47,1
38.745388,38.899487,44,49,1
38.899487,39.515884,56,57,1
41.491734,42.10813,32,46,1
41.491734,42.10813,44,55,1
42.570427,42.724525,44,50,1
42.724525,43.340923,56,58,1
43.340923,43.97437,68,56,1
45.24126,45.865185,44,40,1
45.24126,45.865185,32,33,1
46.3317,46.487206,44,34,1
46.487206,47.109222,56,39,1
47.109222,47.754246,68,35,1
49.06284,49.679234,44,26,1
49.06284,49.679234,32,22,1
50.141533,50.29563,47,22,1
50.29563,50.912025,59,27,1
52.829777,53.44617,33,22,1
52.829777,53.44617,45,26,1
53.90847,54.06257,49,22,1
54.06257,54.678963,61,27,1
56.596714,57.21311,35,22,1
56.596714,57.21311,47,26,1
57.675407,57.829506,47,22,1
57.829506,58.445904,59,27,1
60.36365,60.98005,40,26,1
61.459484,61.619297,47,22,1
61.619297,62.25855,52,27,1
64.1763,64.792694,40,26,1
65.25499,65.40909,47,22,1
65.40909,66.02549,59,27,1
67.960556,68.57695,40,26,1
69.039246,69.193344,47,22,1
69.193344,69.80974,59,27,1
71.72749,72.34389,40,26,1
72.80618,72.96028,47,22,1
72.96028,73.57668,59,27,1
75.49872,76.11512,40,26,1
76.577415,76.731514,47,22,1
76.731514,77.34791,59,27,1
79.265656,79.88206,40,31,1
80.34435,80.49845,52,30,1
80.49845,81.114845,64,36,1
83.056465,83.67286,40,31,1
84.135155,84.28925,52,30,1
84.28925,84.90565,64,36,1
86.86089,87.47729,40,37,1
87.93958,88.09369,52,33,1
88.09369,88.71008,64,40,1
90.63953,91.25593,40,31,1
91.71822,91.87232,52,30,1
91.87232,92.488716,64,36,1
94.40647,95.022865,47,42,1
94.40647,95.022865,35,35,1
95.48516,95.63926,47,44,1
95.63926,96.25565,59,50,1
98.15599,98.77239,47,49,1
98.15599,98.77239,35,41,1
99.23469,99.38879,47,51,1
99.38879,100.00518,59,59,1
101.94115,102.55754,47,55,1
101.94115,102.55754,35,46,1
103.01984,103.173935,47,52,1
103.173935,103.79033,59,60,1
105.69067,106.31459,35,36,1
106.781105,106.936615,47,39,1
106.936615,107.55863,59,44,1
109.4937,110.1101,37,26,1
110.572395,110.726494,49,25,1
110.726494,111.34289,61,30,1
113.260635,113.855286,30,19,1
113.260635,113.855286,42,22,1
114.30561,114.45861,42,25,1
114.45861,115.0706,54,30,1
116.98835,117.60475,44,26,1
116.98835,117.60475,32,22,1
118.06705,118.221146,44,22,1
118.221146,118.83754,56,27,1
120.66546,121.28186,37,26,1
121.76129,121.921104,37,22,1
121.921104,122.560356,49,27,1
124.436775,125.05317,45,26,1
124.436775,125.05317,33,26,1
128.20166,128.81805,45,26,1
128.20166,128.81805,33,26,1
132.01431,132.6307,32,26,1
132.01431,132.6307,44,26,1
135.76198,136.37837,37,26,1
137.01762,137.65688,49,27,1
139.57463,140.19102,33,23,1
140.83028,141.46953,45,26,1
143.38727,144.00366,33,23,1
144.64291,145.28217,45,26,1
147.19992,147.81631,32,19,1
148.45557,149.07361,44,21,1
149.07361,149.69165,56,21,1
150.96527,151.58167,37,23,1
152.22092,152.86017,49,24,1
154.77792,155.41718,37,23,1
156.05641,156.69566,49,24,1
150.96527,158.75224,56,22,1
150.96527,158.75224,61,27,1
150.96527,158.75224,52,22,1
158.09996,158.78642,32,37,1
158.75224,159.04521,33,34,1
159.04521,159.1917,45,28,1
159.33818,159.48466,45,28,1
159.63115,159.77763,45,28,1
159.92412,160.20097,33,33,1
160.20097,160.33939,45,28,1
160.47781,160.61624,45,28,1
160.75467,160.8931,45,28,1
161.03152,161.31616,33,32,1
161.31616,161.45848,45,28,1
161.60078,161.7431,45,28,1
161.88542,162.02774,45,28,1
162.17004,162.45468,33,34,1
162.45468,162.597,45,29,1
162.7393,162.88162,45,29,1
163.02394,163.16626,45,29,1
163.30858,163.44699,45,29,1
163.58542,163.72385,45,29,1
163.86227,164.0007,45,29,1
164.13913,164.27756,45,29,1
164.41599,164.69284,33,34,1
164.69284,164.83127,45,26,1
164.9697,165.12595,45,29,1
165.2822,165.43845,45,31,1
165.5947,165.87155,33,34,1
165.87155,166.00998,45,31,1
166.1484,166.28683,45,31,1
166.42526,166.56369,45,31,1
166.70212,166.83684,45,31,1
166.97157,167.1063,45,30,1
167.24101,167.51045,33,31,1
167.51045,167.7799,45,31,1
167.7799,168.0619,33,31,1
168.0619,168.34392,45,31,1
168.34392,168.62593,37,31,1
168.62593,168.90793,49,31,1
168.90793,169.18994,40,34,1
169.18994,169.47195,40,33,1
169.47195,169.75395,40,36,1
169.75395,170.03596,40,39,1
170.03596,170.17313,40,37,1
170.31029,170.44745,40,35,1
170.58461,170.72177,38,33,1
170.85893,170.9961,38,31,1
171.13326,171.27168,37,30,1
171.41011,171.5498,37,30,1
171.6895,171.8305,35,29,1
171.9715,172.11382,35,29,1
172.25613,172.5491,33,34,1
172.5491,172.69559,45,28,1
172.84207,172.98856,45,28,1
173.13504,173.28152,45,28,1
173.42801,173.70486,33,33,1
173.70486,173.84329,45,28,1
173.98172,174.12015,45,28,1
174.25858,174.397,45,28,1
174.53543,174.82005,33,32,1
174.82005,174.96237,45,28,1
175.10469,175.24701,45,28,1
175.38931,175.53163,45,28,1
175.67395,175.95857,33,34,1
175.95857,176.10089,45,29,1
176.24321,176.38553,45,29,1
176.52783,176.67015,45,29,1
176.81247,176.9509,45,29,1
177.08932,177.22775,45,29,1
177.36618,177.50461,33,29,1
177.64304,177.78146,45,30,1
177.91989,178.19675,31,42,1
178.19675,178.4736,43,36,1
178.4736,178.70555,28,39,1
178.78288,179.01483,42,43,1
179.09215,179.369,35,47,1
179.369,179.64586,47,36,1
179.64586,179.92271,47,34,1
179.92271,180.19957,49,32,1
180.19957,180.46902,50,31,1
180.46902,180.73846,47,30,1
180.73846,181.0079,35,34,1
181.0079,181.27736,47,33,1
181.27736,181.57033,37,32,1
181.57033,181.8633,49,31,1
181.8633,182.16838,40,31,1
182.16838,182.4795,52,31,1
182.76152,183.04353,40,29,1
183.04353,183.32553,44,31,1
183.32553,183.60754,40,33,1
183.60754,183.8133,45,35,1
183.88187,184.01903,37,32,1
184.15619,184.29335,38,32,1
184.43051,184.56767,40,32,1
184.70483,184.84326,42,32,1
184.98169,185.12138,40,32,1
185.26108,185.40208,42,31,1
185.54308,185.6854,44,31,1
185.82771,186.10457,45,36,1
186.37889,186.65073,52,27,1
186.37889,186.65073,49,23,1
186.91937,187.18723,45,36,1
187.45746,187.73096,52,28,1
187.45746,187.73096,49,24,1
188.00697,188.28635,45,36,1
188.56573,188.84511,52,29,1
188.56573,188.84511,50,25,1
189.1245,189.40387,45,36,1
189.68158,189.95844,52,30,1
190.23276,190.50624,45,36,1
190.77809,191.04832,49,25,1
190.77809,191.04832,52,29,1
191.31776,191.58482,45,36,1
191.85347,192.1237,57,29,1
191.85347,192.1237,52,29,1
192.39554,192.67072,45,36,1
192.94672,193.22021,54,24,1
192.94672,193.22021,57,28,1
193.49126,193.75911,45,36,1
194.02776,194.57228,57,32,1
194.02776,194.57228,54,27,1
194.57228,195.12599,57,32,1
194.57228,195.12599,52,27,1
195.12599,195.6797,57,33,1
195.12599,195.6797,49,28,1
195.6797,195.95656,40,36,1
196.23341,196.51027,52,33,1
196.78712,197.06145,40,33,1
197.33577,197.74725,52,32,1
197.33577,197.74725,50,27,1
197.88441,198.30096,52,36,1
197.88441,198.30096,49,30,1
198.44066,198.86497,52,33,1
198.44066,198.86497,47,28,1
199.0073,199.28415,45,36,1
199.55847,199.8303,52,27,1
199.55847,199.8303,49,23,1
200.09895,200.36679,45,36,1
200.63704,200.91054,52,28,1
200.63704,200.91054,49,24,1
201.18654,201.46593,45,36,1
201.74532,202.02469,52,29,1
201.74532,202.02469,50,25,1
202.30408,202.58345,45,36,1
202.86115,203.138,52,30,1
203.41232,203.68582,45,36,1
203.95766,204.2279,49,26,1
203.95766,204.2279,52,30,1
203.95766,204.2279,45,26,1
204.49734,204.76439,52,31,1
204.49734,204.76439,49,27,1
204.49734,204.76439,43,27,1
205.03304,205.30328,54,32,1
205.03304,205.30328,49,32,1
205.03304,205.30328,42,32,1
205.57512,205.8503,47,40,1
206.1263,206.53572,54,28,1
206.53572,206.67084,58,28,1
206.67084,207.20573,59,36,1
207.20573,207.6063,54,32,1
207.6063,207.73982,56,32,1
207.20573,207.73982,47,27,1
207.73982,208.27872,57,32,1
207.73982,208.27872,49,27,1
208.27872,208.83243,56,33,1
208.27872,208.83243,52,28,1
208.83243,209.10927,45,36,1
209.38612,209.66298,56,33,1
209.38612,209.66298,52,33,1
209.93983,210.14558,45,31,1
209.93983,210.21416,57,33,1
209.93983,210.21416,52,28,1
210.21416,210.35132,45,38,1
210.48848,210.62566,47,37,1
210.76282,210.89998,49,35,1
211.03714,211.17557,47,34,1
211.314,211.45367,45,32,1
211.59337,211.73438,44,31,1
211.87538,212.0177,42,31,1
212.16,212.44202,40,34,1
212.44202,212.58302,52,28,1
212.72403,212.86502,52,28,1
213.00603,213.14703,52,28,1
213.28804,213.56236,40,33,1
213.56236,213.69952,52,28,1
213.83669,213.97385,52,28,1
214.11101,214.24817,52,28,1
214.38533,214.66997,37,32,1
214.66997,214.81227,49,28,1
214.95459,215.09691,49,28,1
215.23923,215.38153,49,28,1
215.52385,215.80849,35,34,1
215.80849,215.9508,47,29,1
216.09311,216.23543,47,29,1
216.37775,216.52007,47,29,1
216.66237,216.87001,35,29,1
216.93922,217.07765,47,29,1
217.21608,217.3545,47,29,1
217.49294,217.63136,47,29,1
217.76979,218.03448,35,34,1
218.03448,218.29918,47,32,1
218.29918,218.51552,35,35,1
218.58763,218.80399,47,39,1
218.8761,219.15295,33,42,1
219.15295,219.42981,45,38,1
219.42981,219.70667,45,40,1
219.70667,219.98352,43,41,1
219.98352,220.25296,30,43,1
220.25296,220.5224,42,37,1
220.5224,220.79185,31,39,1
220.79185,221.0613,43,37,1
221.0613,221.35426,33,37,1
221.35426,221.64723,45,36,1
221.64723,221.95232,33,35,1
221.95232,222.26346,45,34,1
222.26346,222.54546,33,31,1
222.54546,222.82747,45,29,1
222.82747,223.10948,49,31,1
223.10948,223.39148,45,33,1
223.39148,223.59537,38,35,1
223.66333,223.80049,50,29,1
223.93765,224.07608,50,28,1
224.21451,224.35419,50,28,1
224.49477,224.63277,50,27,1
224.7742,224.92024,50,26,1
225.07014,225.22516,50,25,1
225.38454,225.63321,50,24,1
225.71611,225.99811,38,25,1
225.99811,226.13911,50,21,1
226.28012,226.42113,50,21,1
226.56213,226.70314,50,21,1
226.84413,227.11845,38,24,1
227.11845,227.25562,50,21,1
227.39279,227.52995,50,21,1
227.66711,227.80428,50,21,1
227.94144,228.22606,38,23,1
228.22606,228.36838,50,21,1
228.5107,228.653,50,21,1
228.79532,228.93764,50,21,1
229.07996,229.36458,39,25,1
229.36458,229.5069,51,22,1
229.64922,229.79152,51,22,1
229.93384,230.07947,51,22,1
230.2251,230.44066,39,22,1
230.51251,230.72807,51,22,1
230.79993,231.00757,36,22,1
231.07678,231.28442,48,22,1
231.35364,231.62547,38,25,1
231.62547,231.89731,50,19,1
231.89731,232.10495,39,22,1
232.17416,232.3818,51,22,1
232.45102,232.72787,29,26,1
232.72787,232.8663,41,22,1
233.00473,233.14316,41,22,1
233.28159,233.42001,41,22,1
233.55844,233.82788,29,22,1
233.82788,233.96262,41,22,1
234.09734,234.2345,41,22,1
234.37166,234.50882,41,22,1
234.64598,234.92798,29,22,1
234.92798,235.06898,41,22,1
235.20999,235.35648,41,22,1
235.50296,235.64944,41,22,1
235.79593,236.07794,29,26,1
236.07794,236.21895,41,23,1
236.35994,236.50095,41,23,1
236.64195,236.78296,41,24,1
236.92397,237.19829,29,24,1
237.19829,237.33545,41,23,1
237.47261,237.60977,41,23,1
237.74693,237.8841,41,23,1
238.02126,238.29811,29,24,1
238.29811,238.4378,41,23,1
238.5775,238.71849,41,23,1
238.8595,239.00182,41,22,1
239.14413,239.42099,40,31,1
239.42099,239.55942,52,28,1
239.69785,239.83627,52,28,1
239.9747,240.11313,52,29,1
240.25156,240.521,40,29,1
240.521,240.65572,52,29,1
240.79044,240.93013,52,31,1
241.06982,241.20952,52,30,1
241.3492,241.65096,40,30,1
241.65096,241.9527,52,29,1
241.9527,242.2737,40,30,1
242.2737,242.5947,40,29,1
242.5947,242.88766,33,34,1
242.88766,243.03415,45,28,1
243.18063,243.32712,45,28,1
243.4736,243.62009,45,28,1
243.76657,244.04343,33,33,1
244.04343,244.18185,45,28,1
244.32028,244.45871,45,28,1
244.59714,244.73557,45,28,1
244.874,245.15862,33,32,1
245.15862,245.30093,45,28,1
245.44325,245.58556,45,28,1
245.72787,245.8702,45,28,1
246.01251,246.29713,33,34,1
246.29713,246.43945,45,29,1
246.58177,246.72408,45,29,1
246.8664,247.00871,45,29,1
247.15103,247.28946,45,29,1
247.42789,247.56631,45,29,1
247.70474,247.84317,45,29,1
247.9816,248.12003,45,29,1
248.25845,248.39687,45,37,1
248.5353,248.67372,45,28,1
248.81215,248.95586,45,31,1
249.09956,249.24327,45,34,1
249.38698,249.66383,33,37,1
249.66383,249.80226,45,34,1
249.94069,250.07912,45,34,1
250.21754,250.35597,45,34,1
250.4944,250.62912,33,34,1
250.76384,250.89856,45,33,1
251.0333,251.16801,45,34,1
251.30273,251.43745,45,34,1
251.57217,251.85419,33,34,1
251.85419,252.1362,45,34,1
252.1362,252.4182,37,34,1
252.4182,252.70021,49,34,1
252.70021,252.97205,28,37,1
252.97205,253.24388,40,31,1
253.24388,253.51572,40,34,1
253.51572,253.78757,40,36,1
253.78757,253.92473,40,40,1
254.06189,254.19905,40,41,1
254.33621,254.47337,38,46,1
254.61053,254.7477,38,47,1
254.88486,255.02328,36,48,1
255.16171,255.3014,36,49,1
255.44109,255.58209,35,51,1
255.7231,255.86542,35,53,1
256.00772,256.3007,33,57,1
256.3007,256.44717,45,46,1
256.59366,256.74014,45,46,1
256.88663,257.0331,45,46,1
257.1796,257.45645,33,57,1
257.45645,257.59488,45,46,1
257.7333,257.87173,45,47,1
258.01016,258.1486,45,47,1
258.28702,258.57166,31,55,1
258.57166,258.71396,43,47,1
258.8563,258.9986,43,48,1
259.1409,259.28323,43,48,1
259.42554,259.71017,36,60,1
259.71017,259.85248,48,49,1
259.9948,260.13712,48,50,1
260.27942,260.42175,48,50,1
260.56406,260.7717,36,50,1
260.8409,260.97934,48,50,1
261.11777,261.2562,48,51,1
261.39462,261.53305,48,51,1
261.67148,261.94833,36,57,1
261.94833,262.2252,48,51,1
262.2252,262.45047,41,54,1
262.53024,262.7696,53,57,1
262.8494,263.12625,40,60,1
263.12625,263.26468,52,50,1
263.4031,263.54153,52,50,1
263.67996,263.8184,52,48,1
263.95682,264.21472,42,41,1
264.21472,264.47263,54,39,1
264.47263,264.74207,38,34,1
264.74207,265.02408,50,34,1
265.02408,265.31705,40,34,1
265.31705,265.61002,52,34,1
265.61002,265.9151,40,31,1
265.9151,266.22626,52,31,1
266.50824,266.79025,40,29,1
266.79025,267.07227,44,31,1
267.07227,267.35428,40,33,1
267.35428,267.56003,45,35,1
267.6286,267.76575,45,32,1
267.90292,268.04007,47,32,1
268.17725,268.3144,49,32,1
268.45157,268.59,47,32,1
268.72842,268.8681,45,32,1
269.0078,269.1488,44,31,1
269.28983,269.43213,42,31,1
269.57443,269.8513,40,36,1
270.1256,270.39746,56,27,1
270.1256,270.39746,52,23,1
270.6661,270.93396,40,36,1
271.2042,271.4777,56,28,1
271.2042,271.4777,52,24,1
271.7537,272.03308,49,36,1
272.31247,272.59186,58,29,1
272.31247,272.59186,54,25,1
272.87122,273.1506,47,36,1
273.4283,273.70517,59,30,1
273.4283,273.70517,54,25,1
273.9795,274.253,47,36,1
274.5248,274.79504,54,25,1
274.5248,274.79504,59,29,1
275.0645,275.33154,47,36,1
275.6002,275.87042,59,25,1
275.6002,275.87042,56,25,1
275.6002,275.87042,62,29,1
276.14227,276.41745,45,36,1
276.69345,277.10287,57,24,1
277.10287,277.23798,55,24,1
276.69345,277.23798,62,28,1
277.23798,277.77448,62,36,1
277.23798,277.77448,54,27,1
277.77448,278.319,62,32,1
277.77448,278.319,55,27,1
278.319,278.8727,62,32,1
278.319,278.8727,57,27,1
278.8727,279.42642,61,33,1
278.8727,279.42642,57,28,1
279.42642,279.70328,50,36,1
279.98013,280.257,61,33,1
279.98013,280.257,57,27,1
280.53384,280.81848,50,33,1
281.10312,281.52148,62,32,1
281.10312,281.52148,57,27,1
281.65863,282.0831,50,36,1
282.23007,282.68896,57,30,1
282.23007,282.68896,54,26,1
282.84836,283.1252,38,25,1
283.39954,283.67136,53,18,1
283.39954,283.67136,50,16,1
283.94,284.20786,38,25,1
284.47812,284.7516,53,19,1
284.47812,284.7516,50,17,1
285.02762,285.307,38,25,1
285.58636,285.86575,53,20,1
285.58636,285.86575,50,17,1
286.14514,286.42453,39,25,1
286.7022,286.97906,55,21,1
286.7022,286.97906,51,17,1
287.2534,287.79874,39,25,1
287.79874,288.3384,58,20,1
287.79874,288.3384,55,17,1
287.79874,288.3384,51,17,1
288.3384,288.8741,59,20,1
288.3384,288.8741,55,17,1
288.3384,288.8741,50,17,1
288.8741,289.4162,60,20,1
288.8741,289.4162,55,17,1
288.8741,289.4162,48,17,1
289.4162,289.69135,41,25,1
289.96738,290.24084,53,17,1
289.96738,290.24084,58,19,1
290.5119,290.77975,41,25,1
291.0484,291.31943,58,19,1
291.0484,291.31943,53,17,1
291.59293,291.86978,41,25,1
292.14664,292.4235,57,19,1
292.14664,292.4235,53,17,1
292.70035,292.9772,41,25,1
293.25406,293.5309,53,23,1
293.80777,294.0821,41,23,1
294.3564,294.76788,53,22,1
294.90506,295.3216,41,25,1
295.4613,295.88562,53,23,1
296.02792,296.30478,41,25,1
296.58163,296.8585,53,23,1
297.13535,297.40967,41,23,1
297.684,298.0955,53,22,1
298.23264,298.6492,41,25,1
298.78888,299.2132,53,24,1
299.35553,299.6324,42,28,1
299.90924,300.1861,54,24,1
300.46295,300.73727,42,23,1
301.0116,301.42307,54,22,1
301.56024,301.97678,42,25,1
302.1165,302.5408,54,23,1
302.6831,302.95996,30,25,1
303.23682,303.51367,42,23,1
303.79053,304.06485,30,23,1
304.33917,304.75067,42,22,1
304.88782,305.30438,30,25,1
305.44406,305.86838,42,24,1
306.01068,306.28754,32,28,1
306.5644,306.84125,44,24,1
307.1181,307.39243,32,23,1
307.66675,308.07825,44,22,1
308.21542,308.63196,32,25,1
308.77164,309.19598,44,23,1
309.3383,309.63126,32,25,1
309.92422,310.2172,44,22,1
310.51016,310.7985,32,22,1
311.09338,311.5481,44,20,1
311.7031,312.182,32,22,1
312.35028,312.88452,44,20,1
316.96753,317.28912,37,26,1
317.61075,318.21692,49,22,1
318.21692,318.82312,61,27,1
319.7876,319.95062,37,25,1
320.11594,320.28418,37,25,1
320.4549,320.6287,36,25,1
320.8038,321.12543,37,26,1
321.44702,322.05902,49,22,1
322.05902,322.67102,61,27,1
323.62976,323.7911,37,26,1
323.9547,324.11945,37,26,1
324.2865,324.45474,36,27,1
324.62543,324.95374,37,26,1
325.282,325.894,49,22,1
325.894,326.506,61,27,1
327.46152,327.6229,37,27,1
327.78647,327.9512,37,26,1
328.11826,328.28833,36,26,1
328.45486,328.77985,37,26,1
329.1048,329.7168,49,22,1
329.7168,330.32877,61,27,1
331.29074,331.4538,37,28,1
331.6191,331.78558,37,27,1
331.95444,332.12448,36,26,1
332.29706,332.62534,37,26,1
332.95364,333.57306,49,22,1
333.57306,334.18506,61,27,1
335.1504,335.31512,37,25,1
335.48218,335.65042,37,25,1
335.8211,335.99304,36,26,1
336.1675,336.4958,37,26,1
336.8241,337.44354,49,22,1
337.44354,338.0555,61,27,1
339.02307,339.18723,37,26,1
339.35138,339.52844,37,26,1
339.70547,339.88254,36,27,1
340.0596,340.3914,37,31,1
340.72318,341.33514,49,25,1
341.33514,341.94135,61,30,1
342.94254,343.10556,37,26,1
343.27087,343.43912,37,26,1
343.6098,343.78363,36,26,1
343.9614,344.29318,37,26,1
344.62497,345.23697,49,22,1
345.23697,345.84894,61,27,1
346.8109,346.97507,37,27,1
347.14038,347.30862,37,27,1
347.4781,347.65002,40,27,1
347.8245,348.12466,32,28,1
348.42484,349.03683,44,35,1
349.03683,349.64883,56,41,1
350.60068,350.76147,32,31,1
350.9223,351.08478,32,32,1
351.24725,351.4114,31,32,1
351.57672,351.87402,32,35,1
352.17136,352.78336,44,43,1
352.78336,353.39536,56,50,1
354.35422,354.51404,32,35,1
354.67386,354.83823,32,35,1
355.00256,355.16693,31,35,1
355.3313,355.6395,32,39,1
355.9477,356.5641,44,49,1
356.5641,357.1805,56,57,1
358.13937,358.2992,32,42,1
358.45898,358.63217,32,42,1
358.81668,359.0167,31,42,1
359.21667,359.52487,32,46,1
359.83307,360.44946,44,52,1
360.44946,361.06586,56,60,1
361.06586,361.3826,68,59,1
362.02426,362.18674,32,36,1
362.34924,362.51172,32,36,1
362.6742,362.83667,31,36,1
362.99915,363.3148,32,36,1
363.62582,364.24783,44,38,1
364.24783,364.86984,56,41,1
364.86984,365.19235,68,38,1
366.85596,367.47235,36,26,1
367.47235,368.08875,48,22,1
368.08875,368.70514,60,24,1
368.70514,369.02478,64,25,1
369.67618,369.8438,36,25,1
370.01266,370.18274,38,25,1
370.35403,370.52722,40,25,1
370.7017,371.31808,29,26,1
371.31808,371.93448,41,22,1
371.93448,372.55087,53,26,1
372.55087,372.87048,65,25,1
373.50638,373.66718,38,25,1
373.8291,373.99326,40,25,1
374.15857,374.3268,41,25,1
374.50003,375.11642,31,26,1
375.11642,375.73282,43,22,1
375.73282,376.3492,55,27,1
376.3492,376.66885,67,28,1
377.30795,377.4693,31,25,1
377.6329,377.79764,33,25,1
377.9647,378.13293,35,25,1
378.30362,378.92,36,26,1
378.92,379.55927,48,22,1
379.55927,380.19852,60,27,1
381.15936,381.32074,36,25,1
381.48322,381.6457,36,25,1
381.8093,381.97345,38,25,1
382.13876,382.75516,36,26,1
382.75516,383.37155,55,22,1
383.37155,383.98795,67,27,1
384.96948,385.13364,36,25,1
385.2978,385.46368,36,25,1
385.62958,385.7972,38,25,1
385.96606,386.58246,36,26,1
386.58246,387.19885,55,22,1
387.19885,387.81525,67,27,1
388.7879,388.95093,36,25,1
389.11508,389.28098,36,25,1
389.44803,389.61627,38,25,1
389.78696,390.40335,36,26,1
390.40335,391.01974,55,22,1
391.01974,391.63614,67,27,1
392.59702,392.7595,36,25,1
392.92307,393.0878,36,25,1
393.2537,393.42133,38,25,1
393.59018,394.20657,36,26,1
394.20657,394.82297,55,22,1
394.82297,395.43936,67,27,1
396.40024,396.5627,36,25,1
396.7252,396.88934,36,25,1
397.0535,397.2194,38,25,1
397.38644,398.03635,35,26,1
398.03635,398.6498,47,22,1
398.6498,399.256,59,27,1
400.22598,400.39014,35,25,1
400.5543,400.72018,35,25,1
400.88608,401.0537,37,25,1
401.22253,401.53076,35,26,1
401.83896,402.45535,47,22,1
402.45535,403.07175,59,27,1
404.03372,404.19675,35,25,1
404.3609,404.5268,35,25,1
404.69385,404.8621,37,25,1
405.03278,405.34097,35,26,1
405.64917,406.26556,47,22,1
406.26556,406.88196,59,27,1
407.84003,407.99976,35,25,1
408.16058,408.32306,35,25,1
408.48553,408.6497,37,25,1
408.815,409.1232,35,26,1
409.4314,410.0478,47,22,1
410.0478,410.66418,59,27,1
411.62305,411.78287,35,26,1
411.9427,412.10248,35,26,1
412.2623,412.42212,37,26,1
412.58194,412.89014,35,29,1
413.19833,413.81473,47,37,1
413.81473,414.43112,59,43,1
415.38083,415.54056,35,32,1
415.70135,415.86383,35,33,1
416.02744,416.19217,37,33,1
416.35922,416.66742,35,37,1
416.97562,417.592,47,47,1
417.592,418.2084,59,56,1
419.1673,419.3271,35,40,1
419.4869,419.65546,35,41,1
419.82397,419.99252,37,43,1
420.16107,420.46927,35,46,1
420.77747,421.39386,47,52,1
421.39386,422.01025,59,60,1
422.9653,423.12668,35,33,1
423.28915,423.45163,35,32,1
423.61523,423.7794,37,33,1
423.9447,424.26263,35,34,1
424.57364,425.19565,47,30,1
425.19565,425.81766,59,31,1
427.75275,428.06094,37,26,1
428.36914,428.98553,49,22,1
428.98553,429.60193,61,26,1
430.56613,430.72916,37,25,1
430.8933,431.05746,39,25,1
431.22278,431.38867,40,25,1
431.55573,431.86392,30,24,1
432.17212,432.7885,42,24,1
432.7885,433.4049,54,27,1
433.39722,434.03616,66,30,1
434.3691,434.53217,30,25,1
434.69632,434.86044,29,25,1
435.02576,435.19165,30,25,1
435.3587,435.6669,32,24,1
435.9751,436.59152,44,22,1
436.59152,437.20792,56,27,1
438.10593,438.2684,32,25,1
438.43088,438.60034,31,25,1
438.76978,438.93924,32,25,1
439.1087,439.4169,37,26,1
439.7251,440.36435,44,22,1
440.36435,441.0036,49,27,1
441.9689,442.13538,37,25,1
442.30423,442.4743,37,25,1
442.64685,442.8226,36,25,1
443.001,443.63782,37,20,1
443.63782,444.24982,49,20,1
444.24982,444.86182,61,23,1
445.83286,446.0005,37,20,1
446.16934,446.33942,39,20,1
446.5107,446.6839,41,20,1
446.85837,447.47476,30,19,1
447.47476,448.09116,42,20,1
448.09116,448.70755,54,23,1
449.6786,449.84622,39,20,1
450.01508,450.18512,41,20,1
450.35645,450.5296,42,20,1
450.70407,451.32047,32,19,1
451.32047,451.93686,44,17,1
451.93686,452.55325,56,21,1
453.4616,453.62924,32,20,1
453.79688,453.97003,34,22,1
454.14322,454.31638,36,22,1
454.48956,455.10596,37,22,1
455.10596,455.7452,44,19,1
455.7452,456.38446,49,22,1
457.35315,457.51962,49,25,1
457.68726,457.85672,48,25,1
458.0274,458.19934,49,25,1
458.3738,458.9902,46,26,1
461.23245,461.3966,46,25,1
461.56192,461.7284,46,25,1
461.89603,462.0655,49,25,1
462.23618,462.85257,45,26,1
465.08978,465.25116,45,25,1
465.41476,465.57947,45,25,1
465.74652,465.91476,49,25,1
466.08548,466.70187,44,26,1
468.94458,469.10873,44,25,1
469.27286,469.43875,43,25,1
469.60464,469.77228,44,25,1
469.94113,470.55753,37,26,1
470.55753,470.87717,49,27,1
472.7969,472.95938,37,22,1
473.12296,473.2877,36,22,1
473.45358,473.62122,37,22,1
473.79007,474.09827,34,22,1
474.40646,474.7261,46,24,1
476.65253,476.81842,34,21,1
476.98547,477.15372,34,21,1
477.32315,477.49448,37,21,1
477.66702,477.97522,33,22,1
478.28342,478.60306,45,24,1
480.52612,480.69028,33,21,1
480.85443,481.02032,33,21,1
481.18622,481.35385,35,21,1
481.5227,481.8309,32,22,1
482.1391,482.4587,44,24,1
482.77835,484.05682,56,24,1
484.38513,484.55103,32,21,1
484.71692,484.88455,31,21,1
485.0522,485.22165,32,21,1
485.39233,485.70053,37,22,1
486.00873,486.32837,49,22,1
488.3116,488.4817,37,21,1
485.39233,488.65424,61,25,1
485.39233,488.65424,56,21,1
485.39233,488.65424,53,21,1
488.65424,488.82803,37,21,1
489.00314,489.18088,36,21,1
489.35233,489.66052,37,22,1
489.96872,490.3005,49,22,1
492.2924,492.46185,37,21,1
489.35233,492.63254,61,25,1
489.35233,492.63254,58,21,1
489.35233,492.63254,54,21,1
492.63254,492.80637,37,21,1
492.98148,493.15918,36,21,1
493.33966,493.6613,37,22,1
493.98288,494.3255,49,22,1
496.38885,496.5707,37,21,1
493.33966,496.75684,61,25,1
493.33966,496.75684,54,21,1
493.33966,496.75684,51,21,1
496.75684,496.94827,37,21,1
497.14447,497.34738,36,21,1
497.55573,498.34375,37,22,1
497.55573,499.13174,53,21,1
497.55573,499.13174,56,21,1
497.55573,499.13174,61,25,1
499.13174,500.7078,61,22,1
499.13174,500.7078,56,18,1
499.13174,500.7078,53,18,1
501.53723,501.7656,32,18,1
500.7078,502.45074,53,18,1
500.7078,502.45074,56,18,1
500.7078,502.45074,61,22,1
502.45074,507.93185,61,22,1
502.45074,507.93185,37,19,1
502.45074,507.93185,53,18,1
502.45074,507.93185,56,18,1
