start_time,end_time,note_value,velocity,instrument_program_number
3.264175,3.6641748,81,55,0
3.6641748,3.797508,83,51,0
3.797508,4.214175,81,55,0
4.214175,4.353064,78,48,0
4.353064,4.6197305,74,55,0
4.886397,5.1628947,74,49,0
5.3702674,5.439392,74,50,0
5.439392,5.8411775,73,57,0
5.8411775,5.975106,71,51,0
5.975106,6.389852,73,55,0
6.389852,6.528101,76,55,0
6.528101,7.063815,69,60,0
7.063815,7.342885,74,55,0
7.621955,8.025543,76,59,0
8.025543,8.081596,79,57,0
8.092808,8.160072,79,45,0
8.160072,8.571031,83,66,0
8.571031,8.702547,81,56,0
8.713211,8.979877,81,63,0
9.246544,9.523042,81,52,0
9.730414,9.799539,85,53,0
9.799539,10.201324,83,68,0
10.201324,10.335253,82,57,0
10.335253,10.749999,83,68,0
10.749999,10.8882475,86,64,0
10.8882475,11.982101,81,67,0
11.982101,12.38569,81,55,0
12.38569,12.520219,83,49,0
12.520219,12.931177,81,60,0
12.931177,13.073358,78,57,0
13.073358,13.340024,74,55,0
13.60669,13.883188,74,49,0
14.159685,14.561471,73,57,0
14.561471,14.695399,71,51,0
14.695399,15.110146,73,62,0
15.110146,15.251171,78,59,0
15.263992,16.396296,78,69,0
16.396296,16.570967,79,69,0
16.570967,16.74564,83,61,0
16.74564,16.920313,88,61,0
16.921429,17.099998,86,69,0
17.098883,17.277454,83,65,0
17.277454,17.464277,79,58,0
17.464277,17.726286,78,61,0
17.988295,18.264791,78,58,0
18.54129,18.71828,76,60,0
18.71828,18.895271,79,56,0
18.895271,19.072262,83,55,0
19.072262,19.250834,81,64,0
19.250834,19.429405,79,55,0
19.429405,19.616905,73,56,0
19.616905,20.70136,74,67,0
20.70136,20.873035,62,68,0
20.873035,21.044708,66,58,0
21.044708,21.216383,71,58,0
21.216383,21.388056,69,68,0
21.388056,21.55973,66,58,0
21.55973,21.766983,62,58,0
21.766983,22.06255,57,58,0
21.766983,22.06255,64,69,0
22.358116,22.653683,57,54,0
22.358116,22.653683,64,64,0
22.94925,23.120924,64,68,0
23.120924,23.292597,67,58,0
23.292597,23.46427,73,58,0
23.46427,23.635944,71,68,0
23.635944,23.807617,67,58,0
23.807617,24.014872,64,58,0
24.014872,25.174292,66,62,0
24.014872,25.174292,62,52,0
24.014872,25.174292,57,52,0
25.174292,25.345966,74,75,0
25.345966,25.51764,78,58,0
25.51764,25.689312,83,58,0
25.689312,25.860987,81,68,0
25.860987,26.03266,78,58,0
26.03266,26.224049,74,58,0
26.224049,26.395721,73,75,0
26.395721,26.567396,69,58,0
26.567396,26.739069,78,58,0
26.739069,26.910742,76,68,0
26.910742,27.082417,73,58,0
27.082417,27.271095,69,58,0
27.271095,27.44277,68,75,0
27.44277,27.614443,64,58,0
27.614443,27.786116,68,58,0
27.786116,27.95779,76,68,0
27.95779,28.129463,74,58,0
28.129463,28.336718,71,58,0
28.336718,28.905437,69,68,0
28.905437,29.19252,76,61,0
28.905437,29.19252,73,51,0
29.4796,29.737112,69,51,0
29.4796,29.737112,76,61,0
29.4796,29.737112,73,51,0
29.994621,30.252132,76,61,0
29.994621,30.252132,73,51,0
30.545223,30.84079,78,65,0
30.545223,30.84079,74,55,0
31.136356,31.431923,76,56,0
31.136356,31.431923,71,47,0
31.136356,31.431923,74,47,0
31.72749,31.985,76,61,0
31.72749,31.985,71,51,0
31.72749,31.985,68,51,0
32.24251,32.50002,76,61,0
32.24251,32.50002,71,51,0
32.24251,32.50002,74,51,0
32.79311,33.080193,69,55,0
32.79311,33.080193,73,55,0
32.79311,33.080193,78,65,0
33.367275,33.659958,73,47,0
33.367275,33.659958,76,56,0
33.367275,33.659958,69,47,0
33.95264,34.21015,69,47,0
33.95264,34.21015,73,47,0
33.95264,34.21015,81,56,0
33.95264,34.21015,76,47,0
34.467663,34.725174,69,51,0
34.467663,34.725174,73,51,0
34.467663,34.725174,76,51,0
34.467663,34.725174,81,61,0
35.002396,35.259907,69,59,0
35.002396,35.259907,81,70,0
35.002396,35.259907,74,59,0
35.517418,35.77493,74,51,0
35.517418,35.77493,83,61,0
35.517418,35.77493,71,51,0
36.049446,36.306953,76,74,0
36.049446,36.306953,73,63,0
36.564465,36.821976,74,47,0
36.564465,36.821976,80,56,0
36.564465,36.821976,68,47,0
36.564465,36.821976,76,47,0
37.115067,37.681416,69,51,0
37.115067,38.27492,73,51,0
37.115067,38.27492,81,61,0
37.115067,38.27492,76,51,0
40.674847,41.074844,81,55,0
41.074844,41.20818,83,51,0
41.20818,41.624847,81,55,0
41.624847,41.763733,78,48,0
41.763733,42.0304,74,55,0
42.297066,42.573566,74,49,0
42.780937,42.850063,74,50,0
42.850063,43.251846,73,57,0
43.251846,43.385777,71,51,0
43.385777,43.80052,73,55,0
43.80052,43.93877,76,55,0
43.93877,44.474487,69,60,0
44.474487,44.753555,74,55,0
45.032627,45.436214,76,59,0
45.436214,45.492268,79,57,0
45.50348,45.570744,79,45,0
45.570744,45.9817,83,66,0
45.9817,46.12059,81,56,0
46.133217,46.399883,81,66,0
46.66655,46.943047,81,54,0
47.15042,47.219543,85,53,0
47.219543,47.62133,83,68,0
47.62133,47.75526,82,57,0
47.75526,48.170006,83,68,0
48.170006,48.308254,86,66,0
48.308254,49.402107,81,70,0
49.402107,49.805695,81,49,0
49.805695,49.940224,82,44,0
49.940224,50.351185,81,53,0
50.351185,50.493362,77,50,0
50.493362,50.76003,74,49,0
51.026695,51.303192,74,44,0
51.510567,51.579693,74,52,0
51.579693,51.981476,69,52,0
51.579693,51.981476,77,52,0
52.115406,52.53015,69,57,0
52.115406,52.53015,77,57,0
52.684,53.25816,70,55,0
52.684,53.25816,77,65,0
53.25816,53.53723,82,65,0
53.8163,53.990974,86,71,0
53.990974,54.165646,88,59,0
54.165646,54.340317,85,70,0
54.341434,54.520004,86,73,0
54.51889,54.69746,88,76,0
54.69746,54.884285,89,63,0
54.884285,55.146294,81,72,0
55.4083,55.961296,81,65,0
55.961296,56.138287,76,70,0
56.138287,56.315277,79,63,0
56.315277,56.492268,83,53,0
56.492268,56.67084,81,70,0
56.67084,56.84941,79,60,0
56.84941,57.03691,73,60,0
57.03691,58.15319,81,70,0
58.15319,58.32786,79,66,0
58.32786,58.502537,83,59,0
58.502537,58.677208,88,59,0
58.678326,58.856895,86,66,0
58.855778,59.03435,83,62,0
59.03435,59.221172,79,56,0
59.221172,59.352177,78,61,0
59.352177,59.614185,81,66,0
59.74519,60.298187,81,67,0
60.298187,60.475178,76,64,0
60.475178,60.65217,79,59,0
60.65217,60.82916,83,53,0
60.82916,61.00773,81,67,0
61.00773,61.186302,79,59,0
61.186302,61.373802,73,59,0
61.373802,62.426434,74,67,0
62.426434,62.598106,62,68,0
62.598106,62.76978,66,58,0
62.76978,62.941456,71,58,0
62.941456,63.11313,69,68,0
63.11313,63.2848,66,58,0
63.2848,63.492054,62,58,0
63.492054,63.78762,57,58,0
63.492054,63.78762,64,69,0
64.08319,64.37875,57,54,0
64.08319,64.37875,64,64,0
64.674324,64.84599,64,68,0
64.84599,65.01767,67,58,0
65.01767,65.18935,73,58,0
65.18935,65.361015,71,68,0
65.361015,65.53269,67,58,0
65.53269,65.739944,64,58,0
65.739944,66.89936,62,52,0
65.739944,66.89936,57,52,0
65.739944,66.89936,66,62,0
66.89936,67.07104,74,75,0
67.07104,67.242714,78,58,0
67.242714,67.41438,83,58,0
67.41438,67.583374,81,68,0
67.583374,67.752365,78,58,0
67.752365,67.943756,74,58,0
67.943756,68.115425,73,75,0
68.115425,68.2871,69,58,0
68.2871,68.45877,78,58,0
68.45877,68.63045,76,68,0
68.63045,68.802124,73,58,0
68.802124,68.9908,69,58,0
68.9908,69.162476,68,75,0
69.162476,69.334145,64,58,0
69.334145,69.50582,68,58,0
69.50582,69.67629,76,68,0
69.67629,69.84317,74,58,0
69.84317,70.05042,71,58,0
70.05042,70.61915,69,68,0
70.61915,70.90623,76,61,0
70.61915,70.90623,73,51,0
71.193306,71.45082,73,51,0
71.193306,71.45082,76,61,0
71.193306,71.45082,69,51,0
71.70833,71.961815,76,61,0
71.70833,71.961815,73,51,0
72.25356,72.54913,74,55,0
72.25356,72.54913,78,65,0
72.844696,73.14027,74,47,0
72.844696,73.14027,76,56,0
72.844696,73.14027,71,47,0
73.43583,73.693344,68,51,0
73.43583,73.693344,76,61,0
73.43583,73.693344,71,51,0
73.95085,74.204765,74,51,0
73.95085,74.204765,76,61,0
73.95085,74.204765,71,51,0
74.501564,74.78864,73,55,0
74.501564,74.78864,69,55,0
74.501564,74.78864,78,65,0
75.07573,75.36841,69,47,0
75.07573,75.36841,76,56,0
75.07573,75.36841,73,47,0
75.661095,75.9186,73,47,0
75.661095,75.9186,81,56,0
75.661095,75.9186,76,47,0
75.661095,75.9186,69,47,0
76.17612,76.433624,76,51,0
76.17612,76.433624,73,51,0
76.17612,76.433624,81,61,0
76.17612,76.433624,69,51,0
76.71085,76.96541,81,70,0
76.71085,76.96541,69,59,0
76.71085,76.96541,74,59,0
77.21997,77.47562,83,61,0
77.21997,77.47562,71,51,0
77.21997,77.47562,74,51,0
77.74951,78.00702,73,63,0
77.74951,78.00702,76,74,0
78.264534,78.52204,76,47,0
78.264534,78.52204,74,47,0
78.264534,78.52204,80,56,0
78.264534,78.52204,68,47,0
78.81513,79.381485,69,51,0
78.81513,79.98176,81,61,0
78.81513,79.98176,76,51,0
78.81513,79.98176,73,51,0
82.4065,82.8065,81,55,0
82.8065,82.939835,83,51,0
82.939835,83.3565,81,55,0
83.3565,83.49539,78,48,0
83.49539,83.762054,74,55,0
84.028725,84.30522,74,49,0
84.512596,84.58172,74,50,0
84.58172,84.983505,73,57,0
84.983505,85.11743,71,51,0
85.11743,85.53218,73,55,0
85.53218,85.670425,76,55,0
85.670425,86.20614,69,60,0
86.20614,86.485214,74,55,0
86.76428,87.16787,76,59,0
87.16787,87.22392,79,57,0
87.23513,87.3024,79,45,0
87.3024,87.711075,83,66,0
87.713356,87.85225,81,56,0
87.864876,88.13154,81,66,0
88.39821,88.674706,81,54,0
88.88207,88.9512,85,53,0
88.9512,89.35299,83,68,0
89.35299,89.486916,82,57,0
89.486916,89.90166,83,68,0
89.90166,90.04074,86,66,0
90.04074,91.1346,81,70,0
91.1346,91.538185,81,49,0
91.538185,91.672714,82,44,0
91.672714,92.08367,81,53,0
92.08367,92.22585,77,50,0
92.22585,92.492516,74,49,0
92.759186,93.03568,74,44,0
93.245125,93.316315,74,52,0
93.316315,93.7181,69,52,0
93.316315,93.7181,77,52,0
93.85203,94.26678,77,57,0
93.85203,94.26678,69,57,0
94.42062,94.98746,70,55,0
94.42062,94.98746,77,65,0
94.98746,95.26653,82,65,0
95.5456,95.720276,86,71,0
95.720276,95.89494,88,59,0
95.89494,96.06962,85,70,0
96.07073,96.249306,86,73,0
96.24819,96.42676,88,76,0
96.42676,96.61359,89,63,0
96.61359,96.875595,81,72,0
97.1376,97.6906,81,65,0
97.6906,97.867584,76,70,0
97.867584,98.04458,79,63,0
98.04458,98.221565,83,53,0
98.221565,98.40014,81,70,0
98.40014,98.57871,79,60,0
98.57871,98.76621,73,60,0
98.76621,99.87896,81,70,0
99.87896,100.053635,79,66,0
100.053635,100.22831,83,59,0
100.22831,100.40298,88,59,0
100.4041,100.582664,86,66,0
100.58155,100.760124,83,62,0
100.760124,100.946945,79,56,0
100.946945,101.07795,78,61,0
101.07795,101.33996,81,66,0
101.47096,102.02396,81,67,0
102.02396,102.20095,76,64,0
102.20095,102.37794,79,59,0
102.37794,102.55493,83,53,0
102.55493,102.733505,81,67,0
102.733505,102.91207,79,59,0
102.91207,103.09957,73,59,0
103.09957,104.15001,74,67,0
104.15221,104.28378,62,57,0
104.28378,104.41491,64,52,0
104.41491,104.54545,66,57,0
104.54545,104.67539,67,53,0
104.67539,104.804756,68,57,0
104.804756,104.93407,69,52,0
104.93407,105.06338,68,54,0
105.06338,105.24856,69,57,0
105.24856,105.82827,67,55,0
105.24856,105.82827,71,65,0
105.82827,106.118126,66,41,0
105.82827,106.118126,62,39,0
105.82827,106.118126,69,53,0
106.40798,106.59147,74,64,0
106.59147,106.76388,73,58,0
106.76388,106.936295,71,58,0
106.936295,107.10871,69,64,0
107.10871,107.28112,67,58,0
107.28112,107.48314,66,58,0
107.48314,107.89599,69,64,0
107.89599,108.05815,67,55,0
108.05815,108.33465,64,61,0
108.60976,108.74209,69,64,0
108.74209,108.87442,71,58,0
108.87442,109.007935,73,64,0
109.007935,109.14144,74,59,0
109.14144,109.276764,75,69,0
109.276764,109.41208,76,58,0
109.41208,109.5474,75,61,0
109.5474,109.68272,76,64,0
109.68272,109.81546,74,69,0
109.81546,109.948204,76,58,0
109.948204,110.078636,78,64,0
110.078636,110.209076,79,59,0
110.209076,110.34241,80,70,0
110.34241,110.47574,81,58,0
110.47574,110.60907,80,61,0
110.60907,110.73985,81,64,0
110.73985,110.86798,83,72,0
110.86798,110.99779,81,66,0
110.99779,111.12938,79,64,0
111.12938,111.26277,78,63,0
111.26277,111.39229,81,67,0
111.39229,111.524345,79,64,0
111.524345,111.65866,78,61,0
111.65866,111.81018,76,59,0
111.81018,112.961426,74,67,0
112.961426,113.093,67,73,0
113.093,113.224075,69,66,0
113.224075,113.35456,71,73,0
113.35456,113.48445,72,67,0
113.48445,113.61433,73,79,0
113.61433,113.744194,74,74,0
113.744194,113.87407,73,76,0
113.87407,114.006226,74,73,0
114.006226,114.13609,78,84,0
114.13609,114.26596,76,77,0
114.26596,114.395836,74,74,0
114.395836,114.5257,73,71,0
114.5257,114.65558,76,80,0
114.65558,114.785446,74,75,0
114.785446,114.91531,73,71,0
114.91531,115.0461,71,73,0
115.0461,115.174225,69,82,0
115.174225,115.30403,68,75,0
115.30403,115.43562,66,73,0
115.43562,115.569016,64,72,0
115.569016,115.69853,63,77,0
115.69853,115.83059,64,73,0
115.83059,115.964905,66,70,0
115.964905,116.11534,68,67,0
116.11534,116.2459,73,76,0
116.2459,116.37836,57,51,0
116.37836,116.512856,59,57,0
116.512856,116.64948,57,49,0
116.64948,116.78823,59,56,0
116.78823,116.92963,57,48,0
116.92963,117.07302,59,47,0
117.07302,117.21821,61,45,0
117.21821,117.34979,62,57,0
117.34979,117.48092,64,52,0
117.48092,117.61145,66,57,0
117.61145,117.7414,67,53,0
117.7414,117.87076,68,57,0
117.87076,118.00007,69,52,0
118.00007,118.12938,68,54,0
118.12938,118.31457,69,57,0
118.31457,118.89428,67,55,0
118.31457,118.89428,71,65,0
118.89428,119.184135,62,39,0
118.89428,119.184135,69,53,0
118.89428,119.184135,66,41,0
119.47398,119.65747,74,64,0
119.65747,119.82989,73,58,0
119.82989,120.002304,71,58,0
120.002304,120.17471,69,64,0
120.17471,120.34713,67,58,0
120.34713,120.54915,66,58,0
120.54915,120.96199,69,64,0
120.96199,121.12415,67,55,0
121.12415,121.40065,64,61,0
121.67553,121.80728,69,64,0
121.80728,121.93903,71,58,0
121.93903,122.07119,73,64,0
122.07119,122.20335,74,59,0
122.20335,122.339714,75,69,0
122.339714,122.476074,76,58,0
122.476074,122.61244,75,61,0
122.61244,122.75807,76,64,0
122.75807,122.88965,74,69,0
122.88965,123.02123,76,58,0
123.02123,123.15054,78,64,0
123.15054,123.279854,79,59,0
123.279854,123.409164,80,70,0
123.409164,123.53847,81,63,0
123.53847,123.66778,80,66,0
123.66778,123.79856,81,68,0
123.79856,123.92669,90,75,0
123.92669,124.056496,88,71,0
124.056496,124.18809,86,67,0
124.18809,124.32148,85,64,0
124.32148,124.451,88,73,0
124.451,124.58305,86,67,0
124.58305,124.71737,85,64,0
124.71737,124.86889,83,61,0
124.86889,126.020134,81,76,0
126.020134,126.15171,62,73,0
126.15171,126.28278,64,66,0
126.28278,126.41327,66,73,0
126.41327,126.54316,67,67,0
126.54316,126.673035,68,79,0
126.673035,126.8029,69,74,0
126.8029,126.93278,68,76,0
126.93278,127.06493,69,73,0
127.06493,127.1948,73,84,0
127.1948,127.32468,71,77,0
127.32468,127.454544,69,74,0
127.454544,127.58441,68,71,0
127.58441,127.71429,71,80,0
127.71429,127.844154,69,75,0
127.844154,127.97402,68,71,0
127.97402,128.10481,66,73,0
128.10481,128.23293,64,82,0
128.23293,128.36273,66,75,0
128.36273,128.49434,64,73,0
128.49434,128.62772,66,72,0
128.62772,128.75723,64,77,0
128.75723,128.8893,62,73,0
128.8893,129.02362,61,70,0
129.02362,129.17513,59,67,0
129.17513,129.30614,57,76,0
129.30614,129.43713,61,51,0
129.43713,129.56815,64,57,0
129.56815,129.69896,68,49,0
129.69896,129.82812,69,56,0
129.82812,129.95845,71,48,0
129.95845,130.08997,73,47,0
130.08997,130.21149,74,45,0
130.22237,130.3555,76,69,0
130.3555,130.48778,78,58,0
130.48778,130.61891,80,64,0
130.61891,130.7489,81,59,0
130.7489,130.87991,82,70,0
130.87991,131.01091,83,63,0
131.01091,131.14192,82,66,0
131.14192,131.27269,83,68,0
131.27269,131.40257,81,69,0
131.40257,131.53244,83,58,0
131.53244,131.66231,85,64,0
131.66231,131.79218,86,59,0
131.79218,131.92433,87,70,0
131.92433,132.05649,88,63,0
132.05649,132.18866,87,66,0
132.18866,132.31966,88,68,0
132.31966,132.45009,90,75,0
132.45009,132.58052,88,65,0
132.58052,132.71097,90,67,0
132.71097,132.8414,88,64,0
132.8414,132.97015,83,75,0
132.97015,133.0989,80,67,0
133.0989,133.22766,83,70,0
133.22766,133.36528,80,65,0
133.36528,133.49571,90,75,0
133.49571,133.62614,88,65,0
133.62614,133.75658,90,67,0
133.75658,133.88701,88,64,0
133.88701,134.01578,85,75,0
134.01578,134.14453,81,67,0
134.14453,134.27328,85,70,0
134.27328,134.4109,81,65,0
134.4109,134.54077,86,77,0
134.67064,134.8005,83,64,0
134.93037,135.06024,80,64,0
135.19012,135.31999,76,64,0
135.45078,135.5807,85,78,0
135.71057,135.84044,81,67,0
135.98128,136.10948,97,81,0
136.23769,136.36589,93,75,0
136.49663,136.62706,92,75,0
136.62706,136.75749,90,65,0
136.75749,136.88792,92,67,0
136.88792,137.01836,90,64,0
137.01836,137.14711,86,75,0
137.14711,137.27588,83,67,0
137.27588,137.40463,86,70,0
137.40463,137.53995,83,65,0
137.54224,137.67268,83,71,0
137.67268,137.80312,81,61,0
137.80312,137.93355,83,65,0
137.93355,138.08507,81,61,0
138.08507,138.21382,93,79,0
138.34258,138.47133,81,69,0
138.60895,138.73886,76,73,0
138.60895,138.73886,74,86,0
138.86874,138.99861,76,56,0
138.86874,138.99861,71,66,0
139.13945,139.26765,76,64,0
139.13945,139.26765,68,76,0
139.39586,139.52406,76,55,0
139.39586,139.52406,64,65,0
139.6548,139.78471,76,73,0
139.6548,139.78471,74,86,0
139.9146,140.04446,76,56,0
139.9146,140.04446,71,66,0
140.1853,140.3135,68,76,0
140.1853,140.3135,76,64,0
140.44171,140.56992,64,65,0
140.44171,140.56992,76,55,0
140.70065,140.83057,64,73,0
140.70065,140.83057,62,86,0
140.96045,141.09032,64,56,0
140.96045,141.09032,59,66,0
141.23116,141.35936,64,64,0
141.23116,141.35936,56,76,0
141.48756,141.61577,52,65,0
141.48756,141.61577,64,55,0
142.79453,142.92612,69,76,0
142.92612,143.05724,71,70,0
143.05724,143.18777,72,76,0
143.18777,143.31772,74,71,0
143.31772,143.44708,75,76,0
143.44708,143.57639,76,75,0
143.57639,143.7057,75,79,0
143.7057,143.89088,76,82,0
143.89088,144.4706,74,75,0
143.89088,144.4706,77,89,0
144.4706,144.76045,76,79,0
144.4706,144.76045,72,67,0
143.89088,144.76045,69,75,0
145.05031,145.63002,77,75,0
145.05031,145.63002,69,75,0
145.05031,145.63002,81,89,0
145.63002,145.91988,67,67,0
145.05031,145.91988,72,75,0
145.63002,145.91988,76,67,0
145.63002,145.91988,79,79,0
146.20973,146.34247,84,86,0
146.20973,146.34247,72,73,0
146.20973,146.34247,76,73,0
146.47522,146.60915,71,61,0
146.47522,146.60915,76,61,0
146.47522,146.60915,83,72,0
146.74307,146.87465,72,66,0
146.74307,146.87465,81,78,0
146.74307,146.87465,69,66,0
147.00623,147.1378,67,59,0
147.00623,147.1378,72,59,0
147.00623,147.1378,79,70,0
147.26888,147.3988,65,73,0
147.26888,147.3988,77,86,0
147.26888,147.3988,69,73,0
147.52867,147.65854,69,59,0
147.52867,147.65854,64,59,0
147.52867,147.65854,76,70,0
147.78954,147.92055,74,80,0
147.78954,147.92055,69,68,0
147.78954,147.92055,65,68,0
148.05154,148.18256,66,59,0
148.05154,148.18256,69,59,0
148.05154,148.18256,72,70,0
148.32748,148.84921,71,73,0
148.32748,148.84921,76,86,0
148.32748,148.84921,68,73,0
148.32748,148.84921,64,73,0
149.38406,149.51799,64,65,0
149.51799,149.65192,66,59,0
149.65192,149.7818,68,59,0
149.7818,149.91167,69,61,0
149.91167,150.04153,70,64,0
150.04153,150.1714,71,59,0
150.1714,150.30127,70,65,0
150.30127,150.43114,71,59,0
150.43114,150.56508,69,70,0
150.56508,150.699,71,64,0
150.699,150.82887,72,64,0
150.82887,150.95874,74,64,0
150.95874,151.09032,75,69,0
151.09032,151.2219,76,64,0
151.2219,151.35349,75,68,0
151.35349,151.48454,76,64,0
151.48454,151.61447,77,76,0
151.61447,151.74434,76,69,0
151.74434,151.8742,74,67,0
151.8742,152.00522,72,66,0
152.00522,152.13622,76,77,0
152.13622,152.26723,74,69,0
152.26723,152.39822,72,67,0
152.39822,152.52924,71,65,0
152.52924,152.66376,69,73,0
152.66376,152.7983,71,65,0
152.7983,152.92873,72,66,0
152.92873,153.05916,74,68,0
153.05916,153.18959,76,69,0
153.18959,153.32002,78,70,0
153.32002,153.45045,80,72,0
153.45045,153.59608,81,73,0
153.59608,153.7254,82,96,0
153.59608,153.7254,70,80,0
153.8547,153.98459,69,56,0
153.8547,153.98459,81,67,0
154.11446,154.24603,70,60,0
154.11446,154.24603,82,70,0
154.37761,154.50919,72,57,0
154.37761,154.50919,84,68,0
154.64076,154.77065,81,96,0
154.64076,154.77065,69,80,0
154.90051,155.03038,77,67,0
154.90051,155.03038,65,56,0
155.16025,155.29182,67,60,0
155.16025,155.29182,79,70,0
155.4234,155.555,81,68,0
155.4234,155.555,69,57,0
155.68657,155.81532,82,96,0
155.68657,155.81532,70,80,0
155.94408,156.07394,79,67,0
155.94408,156.07394,67,56,0
156.20381,156.33539,81,91,0
156.20381,156.33539,69,69,0
156.46698,156.59856,72,57,0
156.46698,156.59856,84,68,0
156.73013,156.85944,77,96,0
156.73013,156.85944,65,80,0
156.98875,157.11862,72,67,0
157.24849,157.38007,69,70,0
157.51166,157.63226,65,68,0
157.77481,157.90874,69,68,0
157.90874,158.04266,71,61,0
158.04266,158.17253,73,61,0
158.17253,158.30241,74,64,0
158.30241,158.43228,75,67,0
158.43228,158.56215,76,61,0
158.56215,158.69202,75,68,0
158.69202,158.82188,76,61,0
158.82188,158.95581,74,73,0
158.95581,159.08975,76,67,0
159.08975,159.21962,77,67,0
159.21962,159.34949,79,67,0
159.34949,159.48106,80,72,0
159.48106,159.61264,81,67,0
159.61264,159.74422,80,71,0
159.74422,159.87529,81,67,0
159.87529,160.00522,82,76,0
160.00522,160.13509,81,72,0
160.13509,160.26495,79,70,0
160.26495,160.39595,77,69,0
160.39595,160.52696,81,77,0
160.52696,160.65796,79,72,0
160.65796,160.78897,77,70,0
160.78897,160.91997,76,68,0
160.91997,161.0545,74,76,0
161.0545,161.18903,76,68,0
161.18903,161.31947,77,69,0
161.31947,161.4499,79,71,0
161.4499,161.58034,81,72,0
161.58034,161.71077,83,73,0
161.71077,161.8412,85,75,0
161.8412,161.98683,86,76,0
161.98683,162.11615,75,88,0
161.98683,162.11615,87,105,0
162.24545,162.37532,74,58,0
162.24545,162.37532,86,70,0
162.5052,162.63678,87,73,0
162.5052,162.63678,75,63,0
162.76836,162.89993,89,71,0
162.76836,162.89993,77,59,0
163.03151,163.16138,86,105,0
163.03151,163.16138,74,88,0
163.29126,163.42113,70,58,0
163.29126,163.42113,82,70,0
163.551,163.68257,72,63,0
163.551,163.68257,84,73,0
163.81415,163.94572,74,59,0
163.81415,163.94572,86,71,0
164.07732,164.20607,75,88,0
164.07732,164.20607,87,105,0
164.33482,164.46469,72,58,0
164.33482,164.46469,84,70,0
164.59456,164.72614,74,72,0
164.59456,164.72614,86,95,0
164.85771,164.9893,77,59,0
164.85771,164.9893,89,71,0
165.12088,165.25075,86,100,0
165.12088,165.25075,74,84,0
165.38062,165.51048,70,58,0
165.38062,165.51048,82,70,0
165.64037,165.77194,84,73,0
165.64037,165.77194,72,63,0
165.90352,166.0351,75,59,0
165.90352,166.0351,87,71,0
166.16667,166.29543,84,95,0
166.16667,166.29543,72,79,0
166.42418,166.55406,81,70,0
166.42418,166.55406,69,58,0
166.68393,166.8155,70,72,0
166.68393,166.8155,82,95,0
166.94708,167.07866,86,71,0
166.94708,167.07866,74,59,0
167.21024,167.33899,86,73,0
167.33899,167.46776,84,67,0
167.46776,167.59763,82,67,0
167.59763,167.7275,81,67,0
167.7275,167.85907,84,72,0
167.85907,167.99065,82,67,0
167.99065,168.12222,81,71,0
168.12222,168.2533,82,67,0
168.2533,168.38322,84,76,0
168.38322,168.51309,82,72,0
168.51309,168.64296,81,70,0
168.64296,168.77396,79,69,0
168.77396,168.90497,82,77,0
168.90497,169.03596,81,72,0
169.03596,169.16698,79,70,0
169.16698,169.29797,81,68,0
169.29797,169.42673,82,73,0
169.42673,169.5555,81,67,0
169.5555,169.68536,79,67,0
169.68536,169.81523,77,67,0
169.81523,169.94681,81,72,0
169.94681,170.07838,79,67,0
170.07838,170.20996,77,71,0
170.20996,170.34103,76,67,0
170.34103,170.47096,79,76,0
170.47096,170.60083,77,72,0
170.60083,170.7307,76,70,0
170.7307,170.8617,74,69,0
170.8617,170.9927,77,77,0
170.9927,171.1237,76,72,0
171.1237,171.25471,74,70,0
171.25471,171.38571,76,68,0
171.38571,171.51447,77,73,0
171.51447,171.64323,76,67,0
171.64323,171.7731,74,67,0
171.7731,171.90297,76,67,0
171.90297,172.03455,74,72,0
172.03455,172.16612,72,67,0
172.16612,172.2977,71,71,0
172.2977,172.42877,72,67,0
172.42877,172.5587,71,76,0
172.5587,172.68857,69,72,0
172.68857,172.81844,68,70,0
172.81844,172.94943,69,69,0
172.94943,173.08044,68,77,0
173.08044,173.21144,66,72,0
173.21144,173.34245,64,70,0
173.34245,173.47345,66,68,0
173.47345,173.6022,68,73,0
173.6022,173.73097,66,67,0
173.73097,173.86084,64,67,0
173.86084,173.9907,66,67,0
173.9907,174.12228,68,72,0
174.12228,174.25386,66,67,0
174.25386,174.38544,64,71,0
174.38544,174.51651,66,67,0
174.51651,174.64644,68,76,0
174.64644,174.7763,66,72,0
174.7763,174.90617,64,70,0
174.90617,175.03717,66,69,0
175.03717,175.16818,68,77,0
175.16818,175.29918,66,72,0
175.29918,175.43019,64,70,0
175.43019,175.56119,66,68,0
175.56119,176.0852,64,77,0
176.62698,176.7615,64,54,0
176.62698,176.7615,62,45,0
176.89604,177.03429,59,41,0
176.89604,177.03429,64,49,0
177.17253,177.31207,64,54,0
177.17253,177.31207,56,45,0
177.45161,177.59584,64,48,0
177.45161,177.59584,52,40,0
178.82513,178.96799,76,45,0
178.82513,178.96799,74,38,0
179.11084,179.2537,71,34,0
179.11084,179.2537,76,41,0
179.39656,179.54655,76,45,0
179.39656,179.54655,68,38,0
179.69656,179.84656,64,34,0
179.69656,179.84656,76,40,0
181.09624,181.23323,69,53,0
181.23323,181.36964,71,49,0
181.36964,181.50551,73,53,0
181.50551,181.64082,74,49,0
181.64082,181.77562,75,53,0
181.77562,181.90988,76,52,0
181.90988,182.04361,75,55,0
182.04361,182.2288,76,57,0
182.2288,182.80852,78,62,0
182.2288,182.80852,74,52,0
182.80852,183.09837,76,55,0
182.80852,183.09837,73,46,0
182.2288,183.09837,69,52,0
183.38821,183.5717,81,64,0
183.5717,183.74413,80,58,0
183.74413,183.91653,78,58,0
183.91653,184.08894,76,64,0
184.08894,184.26137,74,58,0
184.26137,184.46338,73,58,0
184.46338,184.87622,76,64,0
184.87622,185.03839,74,55,0
185.03839,185.31488,71,61,0
185.59239,185.7247,76,69,0
185.7247,185.85645,78,58,0
185.85645,185.98761,80,64,0
185.98761,186.1182,81,59,0
186.1182,186.24905,82,70,0
186.24905,186.38007,83,63,0
186.38007,186.51106,82,66,0
186.51106,186.64207,83,68,0
186.64207,186.77188,81,69,0
186.77188,186.90176,83,58,0
186.90176,187.03163,85,64,0
187.03163,187.1615,86,59,0
187.1615,187.29332,87,70,0
187.29332,187.42548,88,63,0
187.42548,187.55763,87,66,0
187.55763,187.68881,88,68,0
187.68881,187.81932,90,75,0
187.81932,187.94977,88,59,0
187.94977,188.0802,90,67,0
188.0802,188.21063,88,59,0
188.21063,188.33965,83,75,0
188.33856,188.46732,80,58,0
188.4684,188.59715,83,70,0
188.59715,188.73343,80,59,0
188.73343,188.86494,90,75,0
188.86494,188.99538,88,60,0
188.99538,189.12582,90,67,0
189.12582,189.25626,88,61,0
189.25626,189.38525,85,75,0
189.38525,189.514,81,67,0
189.514,189.64278,85,70,0
189.64278,189.77905,81,65,0
189.77905,189.91008,86,77,0
190.03996,190.16983,83,64,0
190.2997,190.42957,80,64,0
190.55943,190.68932,76,64,0
190.82014,190.95001,85,78,0
191.07988,191.20975,81,67,0
191.34895,191.47905,97,81,0
191.60725,191.73546,93,75,0
191.86578,191.9963,92,75,0
191.9963,192.12674,90,57,0
192.12674,192.25719,92,67,0
192.25719,192.38762,90,59,0
192.38762,192.51662,86,75,0
192.51662,192.64537,83,61,0
192.64537,192.77414,86,70,0
192.77306,192.90698,83,59,0
192.91042,193.04193,83,71,0
193.04193,193.17236,81,61,0
193.17236,193.3028,83,65,0
193.3028,193.45116,81,61,0
193.44989,193.58224,97,79,0
193.711,193.83977,93,69,0
193.97707,194.10759,92,75,0
194.10759,194.23802,90,59,0
194.23802,194.36845,92,67,0
194.36845,194.49889,90,59,0
194.49889,194.6279,86,75,0
194.6279,194.75665,83,67,0
194.75665,194.88557,86,70,0
194.88434,195.02666,83,65,0
195.03403,195.17487,83,60,0
195.17487,195.3157,81,48,0
195.3157,195.45676,83,55,0
195.45676,195.62167,81,47,0
195.62048,195.76266,100,63,0
195.62048,195.76266,97,53,0
195.90485,196.04703,93,46,0
195.90485,196.04703,97,55,0
196.19969,196.33731,92,75,0
196.33731,196.47491,90,60,0
196.47491,196.61253,92,67,0
196.61253,196.7501,90,60,0
196.7501,196.88286,86,75,0
196.88286,197.0156,83,67,0
197.0156,197.1485,86,70,0
197.14723,197.29317,83,65,0
197.30061,197.43279,83,63,0
197.43279,197.56494,81,54,0
197.56494,197.6971,83,58,0
197.6971,197.84557,81,54,0
197.84557,197.97949,93,71,0
198.11342,198.24734,81,69,0
198.38016,198.51009,79,86,0
198.38016,198.51009,81,73,0
198.63995,198.76982,81,56,0
198.64104,198.771,76,56,0
198.91068,199.03888,81,64,0
198.91068,199.03888,73,64,0
199.16708,199.29529,69,65,0
199.16708,199.29529,81,55,0
199.42601,199.55594,69,73,0
199.42601,199.55594,67,86,0
199.6858,199.81567,69,56,0
199.6858,199.81567,64,66,0
199.95653,200.08473,61,76,0
199.95653,200.08473,69,64,0
200.21294,200.34114,69,55,0
200.21294,200.34114,57,65,0
201.78027,201.9113,66,64,0
201.9113,202.04294,68,63,0
202.04294,202.17517,69,67,0
202.17517,202.30801,71,52,0
202.30801,202.44148,73,52,0
202.44148,202.5756,74,52,0
202.5756,202.70953,75,52,0
202.70953,202.84297,76,49,0
202.84297,202.9759,75,49,0
202.9759,203.1083,76,49,0
203.1083,203.2403,78,54,0
203.2403,203.37178,80,52,0
203.37178,203.50275,81,49,0
203.50275,203.63315,83,47,0
203.63315,203.76152,81,53,0
203.76152,203.88966,83,43,0
203.88966,204.01749,81,48,0
204.01749,204.14487,83,45,0
204.14594,204.27298,81,53,0
204.27193,204.39867,83,43,0
204.39867,204.52498,81,48,0
204.52498,204.65085,83,43,0
204.65085,204.77623,81,64,0
204.77623,204.90234,83,41,0
204.90234,205.02931,81,48,0
205.02931,205.15694,83,41,0
205.15694,205.28564,81,49,0
205.28564,205.4144,83,43,0
205.4144,205.54315,81,48,0
205.54315,205.67197,83,43,0
205.67197,205.80127,81,48,0
205.80127,205.93057,83,50,0
205.93057,206.05933,81,53,0
206.05933,206.18803,83,56,0
206.1891,206.3173,81,63,0
206.31624,206.44435,83,63,0
206.44435,206.572,81,67,0
206.572,206.69954,83,70,0
206.69954,206.82666,81,75,0
206.82666,206.95377,83,72,0
206.95377,207.08101,81,67,0
207.08101,207.20866,83,63,0
207.20866,207.33673,81,58,0
207.33673,207.46783,83,54,0
207.46783,207.60262,81,50,0
207.60262,207.7409,78,46,0
207.7409,208.00758,74,49,0
208.27425,208.82724,74,44,0
208.82724,208.96117,73,51,0
208.96117,209.0951,71,41,0
209.0951,209.22902,73,47,0
209.22902,209.35907,74,43,0
209.35907,209.49731,73,49,0
209.49731,209.63556,74,42,0
209.63556,209.7738,76,45,0
209.7738,209.91206,73,49,0
209.91206,210.17992,69,59,0
210.44777,210.72684,74,55,0
211.00592,211.14044,76,58,0
211.14044,211.27498,79,47,0
211.27498,211.4095,76,56,0
211.4095,211.55095,79,48,0
211.54068,211.67766,83,62,0
211.67766,211.81465,81,48,0
211.81465,211.95163,83,57,0
211.95163,212.08315,81,50,0
212.09381,212.36049,81,56,0
212.62715,213.31407,81,60,0
213.31407,213.448,79,56,0
213.448,213.58192,81,58,0
213.58192,213.71585,83,60,0
213.71585,213.85411,85,66,0
213.85411,213.99236,86,54,0
213.99236,214.1306,85,62,0
214.1306,214.26886,83,54,0
214.26886,215.35107,81,60,0
215.3627,215.49724,81,53,0
215.49724,215.63176,83,40,0
215.63176,215.7663,81,48,0
215.7663,215.90082,83,39,0
215.90082,216.03781,81,53,0
216.03781,216.17479,83,37,0
216.17479,216.31178,81,47,0
216.31178,216.45396,78,44,0
216.45396,216.72063,74,49,0
216.98729,217.54028,74,44,0
217.54028,217.67422,73,51,0
217.67422,217.80815,71,45,0
217.80815,217.94208,73,48,0
217.94208,218.07211,74,50,0
218.07211,218.21036,73,55,0
218.21036,218.34862,74,54,0
218.34862,218.48686,76,60,0
218.48686,218.62788,77,65,0
218.6407,219.77301,78,72,0
219.77301,219.90402,79,56,0
219.90402,220.03502,83,42,0
220.03502,220.16603,79,45,0
220.16603,220.29703,83,42,0
220.29703,220.43095,88,65,0
220.43095,220.56488,86,52,0
220.56488,220.6988,83,55,0
220.6988,220.84099,79,49,0
220.84099,221.103,78,64,0
221.365,221.64151,78,52,0
221.918,222.05075,76,54,0
222.05075,222.18349,79,42,0
222.18349,222.31624,76,50,0
222.31624,222.44897,79,42,0
222.44897,222.5829,83,56,0
222.5829,222.71684,81,45,0
222.71684,222.85077,79,51,0
222.85077,222.99362,73,45,0
222.99362,224.07808,74,58,0
224.07808,224.20683,62,68,0
224.20683,224.33559,66,58,0
224.33559,224.46434,62,60,0
224.46434,224.5931,66,58,0
224.5931,224.71931,71,68,0
224.71931,224.84552,69,58,0
224.84552,224.98148,66,62,0
224.98148,225.13692,62,58,0
225.13692,225.43248,57,58,0
225.13692,225.43248,64,69,0
225.72804,226.30685,57,54,0
225.72804,226.30685,64,64,0
226.31918,226.44794,64,68,0
226.44794,226.57669,67,58,0
226.57669,226.70544,64,62,0
226.70544,226.8342,67,58,0
226.8342,226.96295,73,68,0
226.96295,227.0881,71,58,0
227.0881,227.22336,67,62,0
227.22336,227.3788,64,58,0
227.3788,228.53822,62,52,0
227.3788,228.53822,66,62,0
227.3788,228.53822,57,52,0
228.53822,228.66698,74,75,0
228.66698,228.79573,78,58,0
228.79573,228.92448,74,62,0
228.92448,229.05324,78,58,0
229.05324,229.18199,83,68,0
229.18199,229.31075,81,58,0
229.31075,229.44444,78,62,0
229.44444,229.58798,74,58,0
229.58798,229.71674,73,75,0
229.71674,229.84549,69,58,0
229.84549,229.97424,73,61,0
229.97424,230.103,69,58,0
230.103,230.22868,78,68,0
230.22868,230.35435,76,58,0
230.35435,230.48674,73,62,0
230.48674,230.62825,69,58,0
230.62825,230.757,68,75,0
230.757,230.88576,64,54,0
230.88576,231.01453,68,62,0
231.01453,231.14328,64,52,0
231.14328,231.26843,68,68,0
231.26843,231.3968,76,50,0
231.3968,231.5342,74,58,0
231.5342,231.68964,71,50,0
231.68964,232.25836,69,68,0
232.25836,232.54544,76,61,0
232.25836,232.54544,73,51,0
232.83252,233.09003,76,61,0
232.83252,233.09003,73,51,0
232.83252,233.09003,69,51,0
233.34753,233.60506,76,61,0
233.34753,233.60506,73,51,0
233.89815,234.19371,74,55,0
233.89815,234.19371,78,65,0
234.48927,234.78484,71,47,0
234.48927,234.78484,74,47,0
234.48927,234.78484,76,56,0
235.08041,235.33792,71,51,0
235.08041,235.33792,76,61,0
235.08041,235.33792,68,51,0
235.59543,235.85294,74,51,0
235.59543,235.85294,71,51,0
235.59543,235.85294,76,61,0
236.1557,236.44278,78,65,0
236.1557,236.44278,73,55,0
236.1557,236.44278,69,55,0
236.72986,237.02254,69,47,0
236.72986,237.02254,76,56,0
236.72986,237.02254,73,47,0
237.31523,237.57274,76,47,0
237.31523,237.57274,73,47,0
237.31523,237.57274,69,47,0
237.31523,237.57274,81,56,0
237.83025,238.08469,73,51,0
237.83025,238.08469,76,51,0
237.83025,238.08469,81,61,0
237.83025,238.08469,69,51,0
238.35986,238.61737,69,59,0
238.35986,238.61737,74,59,0
238.35986,238.61737,81,70,0
238.87488,239.12932,83,61,0
238.87488,239.12932,71,51,0
238.87488,239.12932,74,51,0
239.40178,239.65929,73,63,0
239.40178,239.65929,76,74,0
239.9168,240.17123,76,47,0
239.9168,240.17123,68,47,0
239.9168,240.17123,74,47,0
239.9168,240.17123,80,56,0
240.46228,241.02863,69,51,0
240.46228,241.62213,76,51,0
240.46228,241.62213,81,61,0
240.46228,241.62213,73,51,0
244.05765,244.19157,81,56,0
244.19157,244.3255,83,53,0
244.3255,244.45944,81,55,0
244.45944,244.58948,83,53,0
244.58948,244.72772,81,53,0
244.72772,244.86597,83,49,0
244.86597,245.00095,81,50,0
245.00095,245.13924,78,45,0
245.13924,245.4059,74,49,0
245.67256,246.22556,74,44,0
246.22556,246.35948,73,51,0
246.35948,246.49342,71,41,0
246.49342,246.62735,73,45,0
246.62735,246.75739,74,43,0
246.75739,246.89563,73,49,0
246.89563,247.03387,74,42,0
247.03387,247.17213,76,45,0
247.17213,247.31038,73,49,0
247.31038,247.57823,69,59,0
247.8461,248.12517,74,55,0
248.40424,248.53876,76,53,0
248.53876,248.6733,79,47,0
248.6733,248.80782,76,51,0
248.80782,248.95262,79,48,0
248.94235,249.07933,83,59,0
249.07933,249.21632,81,48,0
249.21632,249.3533,83,51,0
249.3533,249.48482,81,47,0
249.49548,249.76216,81,56,0
250.02882,250.71574,81,60,0
250.71574,250.84967,79,52,0
250.84967,250.9836,81,54,0
250.9836,251.11752,83,56,0
251.11752,251.25578,85,61,0
251.25578,251.39403,86,54,0
251.39403,251.53227,85,56,0
251.53227,251.67265,83,54,0
251.67265,252.75488,81,60,0
252.76651,252.90105,81,41,0
252.90105,253.03557,82,32,0
253.03557,253.1701,81,37,0
253.1701,253.30128,82,33,0
253.30128,253.43826,81,42,0
253.43826,253.57526,82,34,0
253.57526,253.71223,81,39,0
253.71223,253.85442,77,34,0
253.85442,254.12108,74,41,0
254.38776,254.94075,74,37,0
254.94075,255.07468,77,43,0
255.07468,255.2086,76,38,0
255.2086,255.34253,77,41,0
254.94075,255.472,69,37,0
255.34253,255.47646,76,38,0
255.47646,255.6147,79,46,0
255.6147,255.75296,77,45,0
255.75296,255.8912,79,51,0
255.89761,256.03864,77,55,0
255.47646,256.04504,69,37,0
256.04504,256.6192,77,61,0
256.6192,256.8983,82,57,0
256.04504,256.8983,70,37,0
257.17737,257.30835,86,56,0
257.30835,257.43936,88,51,0
257.43936,257.57037,86,58,0
257.57037,257.69766,85,56,0
257.69766,257.83157,86,65,0
257.83157,257.9655,88,56,0
257.9655,258.09943,89,55,0
258.09384,258.2357,86,49,0
258.2416,258.50363,81,64,0
259.31863,259.45135,76,54,0
259.45135,259.5841,79,42,0
259.5841,259.71686,76,48,0
259.71686,259.84634,79,45,0
258.76562,259.84634,81,52,0
259.84634,259.98026,83,56,0
259.98026,260.1142,81,45,0
260.1142,260.2481,79,51,0
260.2481,260.39096,76,45,0
260.39096,261.47543,81,58,0
261.47543,261.6042,79,60,0
261.6042,261.73294,83,51,0
261.73294,261.8617,79,55,0
261.8617,261.99045,83,58,0
261.99045,262.1192,88,61,0
262.1192,262.2449,86,56,0
262.2449,262.3805,83,53,0
262.3805,262.53592,79,50,0
262.53592,262.68372,78,54,0
262.68372,262.83148,81,60,0
263.12708,263.7182,81,61,0
263.7182,263.84695,76,53,0
263.84695,263.9757,79,45,0
263.9757,264.10446,76,49,0
264.10446,264.23322,79,46,0
264.23322,264.36197,83,59,0
264.36197,264.49072,81,57,0
264.49072,264.6284,79,55,0
264.6284,264.7838,76,53,0
264.7838,266.1246,74,57,0
266.1246,266.45795,71,42,0
266.1246,266.45795,74,50,0
266.1246,266.45795,67,42,0
266.49496,266.8283,67,38,0
266.49496,266.8283,76,45,0
266.49496,266.8283,71,38,0
266.86533,267.19867,78,45,0
266.86533,267.19867,67,38,0
266.86533,267.19867,71,38,0
267.23572,267.58417,79,45,0
267.23572,267.58417,67,38,0
267.23572,267.58417,71,38,0
267.62497,267.95627,71,53,0
267.62497,267.95627,79,53,0
267.62497,267.95627,67,45,0
267.99307,268.3126,67,35,0
267.99307,268.3126,71,41,0
268.3481,268.66763,67,37,0
268.3481,268.66763,71,44,0
268.70312,269.04617,67,35,0
268.70312,269.04617,71,41,0
269.08755,269.4109,70,44,0
269.08755,269.4109,79,52,0
269.08755,269.4109,67,44,0
269.44684,269.77017,67,36,0
269.44684,269.77017,70,36,0
269.44684,269.77017,73,42,0
269.80612,270.12946,73,45,0
269.80612,270.12946,70,38,0
269.80612,270.12946,67,38,0
270.1654,270.55933,70,36,0
270.1654,270.55933,73,42,0
270.1654,270.55933,67,36,0
270.61288,272.0386,74,57,0
270.61288,272.0386,71,48,0
270.61288,272.0386,67,48,0
272.0386,272.37823,76,50,0
272.0386,272.37823,71,42,0
272.0386,272.37823,67,42,0
272.416,272.74725,67,38,0
272.416,272.74725,71,38,0
272.416,272.74725,74,45,0
272.78406,273.11536,71,45,0
272.78406,273.11536,67,38,0
273.15216,273.49948,67,45,0
273.5403,273.87158,67,53,0
273.5403,273.87158,71,53,0
273.5403,273.87158,62,45,0
273.9084,274.22794,62,35,0
273.9084,274.22794,69,41,0
273.9084,274.26343,66,35,0
274.26343,274.5868,62,37,0
274.26343,274.5868,69,44,0
274.26343,274.6227,66,37,0
274.6227,274.96786,69,41,0
274.6227,274.96786,62,35,0
274.6227,275.00925,66,35,0
275.00925,275.3326,76,52,0
275.00925,275.3326,70,44,0
275.00925,275.3326,67,44,0
275.36853,275.6919,70,36,0
275.36853,275.6919,73,42,0
275.36853,275.6919,67,36,0
275.7278,276.05115,73,45,0
275.7278,276.05115,70,38,0
275.7278,276.05115,67,38,0
276.0871,276.44452,67,36,0
276.0871,276.44452,70,36,0
276.0871,276.44452,73,42,0
276.48895,277.91467,69,48,0
276.48895,277.91467,66,48,0
276.48895,277.91467,74,57,0
277.91467,278.24802,69,42,0
277.91467,278.24802,74,50,0
277.91467,278.24802,65,42,0
278.28506,278.6084,74,47,0
278.28506,278.6084,65,39,0
278.28506,278.6084,69,39,0
278.64432,278.96768,65,41,0
278.64432,278.96768,69,41,0
278.64432,278.96768,76,49,0
279.0036,279.34653,69,43,0
279.0036,279.34653,77,51,0
279.38733,279.71863,64,45,0
279.38733,279.71863,68,53,0
279.38733,279.71863,77,53,0
279.75543,280.07495,64,37,0
279.75543,280.07495,71,44,0
279.75543,280.11047,68,37,0
280.11047,280.43,71,44,0
280.11047,280.43,64,37,0
280.11047,280.46548,68,37,0
280.46548,280.80853,64,37,0
280.46548,280.80853,71,44,0
280.46548,280.8499,68,37,0
280.8499,281.17325,72,52,0
280.8499,281.17325,69,44,0
280.8499,281.17325,64,44,0
281.2092,281.53253,64,38,0
281.2092,281.53253,69,38,0
281.2092,281.53253,72,45,0
281.56848,281.8918,69,39,0
281.56848,281.8918,74,46,0
281.56848,281.8918,64,39,0
281.92773,282.27292,76,48,0
281.92773,282.27292,67,40,0
281.92773,282.27292,64,40,0
282.3143,282.64557,62,45,0
282.3143,282.64557,76,53,0
282.3143,282.64557,66,53,0
282.68237,283.00192,69,39,0
282.68237,283.00192,62,33,0
282.68237,283.0374,66,33,0
283.0374,283.36078,69,44,0
283.0374,283.36078,62,37,0
283.0374,283.3967,66,37,0
283.3967,283.74185,62,33,0
283.3967,283.74185,69,39,0
283.3967,283.78323,66,33,0
283.78323,284.1294,67,44,0
283.78323,284.1294,71,52,0
283.78323,284.1294,62,44,0
284.16785,284.4893,62,45,0
284.16785,284.4893,67,45,0
284.16785,284.4893,76,54,0
284.525,284.8464,74,51,0
284.525,284.8464,67,43,0
284.525,284.8464,62,43,0
284.88214,285.2385,67,40,0
284.88214,285.2385,71,48,0
284.88214,285.2385,62,40,0
285.28293,285.61423,74,53,0
285.28293,285.61423,62,45,0
285.28293,285.61423,66,53,0
285.65103,285.97055,69,39,0
285.65103,285.97055,62,33,0
285.65103,286.00604,66,33,0
286.00604,286.3294,62,33,0
286.00604,286.3294,69,39,0
286.00604,286.36533,66,33,0
286.36533,286.71048,69,39,0
286.36533,286.71048,62,33,0
286.36533,286.75186,66,33,0
286.75186,287.09366,62,44,0
286.75186,287.09366,67,44,0
286.75186,287.09366,71,52,0
287.13162,287.45306,62,45,0
287.13162,287.45306,67,45,0
287.13162,287.45306,76,54,0
287.48877,287.81018,67,43,0
287.48877,287.81018,62,43,0
287.48877,287.81018,74,51,0
287.84592,288.20227,71,48,0
287.84592,288.20227,67,40,0
287.84592,288.20227,62,40,0
288.2467,288.60913,74,47,0
288.2467,288.60913,62,39,0
288.2467,288.60913,66,39,0
288.64938,288.99554,69,40,0
288.64938,288.99554,62,34,0
288.64938,289.034,66,34,0
289.034,289.42334,74,36,0
289.034,289.42334,69,30,0
289.034,289.46658,66,30,0
289.46658,289.93738,74,33,0
289.46658,289.93738,70,28,0
289.46658,289.9897,66,28,0
289.9897,290.32303,67,37,0
289.9897,290.32303,74,45,0
289.9897,290.32303,71,37,0
290.36008,290.6934,67,38,0
290.36008,290.6934,71,38,0
290.36008,290.6934,76,45,0
290.73044,291.06375,78,45,0
290.73044,291.06375,67,38,0
290.73044,291.06375,71,38,0
291.1008,291.44925,71,38,0
291.1008,291.44925,79,45,0
291.1008,291.44925,67,38,0
291.49008,291.82135,67,45,0
291.49008,291.82135,79,53,0
291.49008,291.82135,71,53,0
291.85815,292.1777,71,39,0
291.85815,292.1777,67,33,0
292.2132,292.5327,67,37,0
292.2132,292.5327,71,44,0
292.56824,292.91125,71,39,0
292.56824,292.91125,67,33,0
292.95264,293.276,79,52,0
292.95264,293.276,67,44,0
292.95264,293.276,70,44,0
293.31192,293.63528,70,34,0
293.31192,293.63528,73,40,0
293.31192,293.63528,67,34,0
293.6712,293.99457,70,38,0
293.6712,293.99457,67,38,0
293.6712,293.99457,73,45,0
294.0305,294.4244,73,45,0
294.0305,294.4244,70,38,0
294.0305,294.4244,67,38,0
294.47797,295.90372,67,48,0
294.47797,295.90372,74,57,0
294.47797,295.90372,71,48,0
295.90372,296.24332,71,51,0
295.90372,296.24332,77,61,0
295.90372,296.24332,67,51,0
296.28107,296.61237,67,44,0
296.28107,296.61237,76,52,0
296.28107,296.61237,71,44,0
296.64917,296.98044,77,57,0
296.64917,296.98044,67,48,0
296.64917,297.01727,71,48,0
297.01727,297.36456,79,52,0
297.01727,297.4054,71,44,0
297.4054,297.7367,72,53,0
297.4054,297.7367,77,63,0
297.4054,297.7367,67,53,0
297.7735,298.09302,76,52,0
297.7735,298.09302,67,43,0
297.7735,298.1285,72,43,0
298.1285,298.45187,74,55,0
298.1285,298.4878,67,46,0
298.4878,298.83295,64,42,0
298.4878,298.83295,72,51,0
298.4878,298.87433,67,42,0
298.87433,299.1977,72,59,0
298.87433,299.1977,67,50,0
298.87433,299.1977,62,50,0
299.2336,299.58328,62,45,0
299.2336,299.58328,71,53,0
299.2336,299.58328,67,45,0
299.6252,299.94666,74,56,0
299.6252,299.94666,66,47,0
299.6252,299.94666,62,47,0
299.98236,300.3387,72,53,0
299.98236,300.3387,62,45,0
299.98236,300.3387,66,45,0
300.38318,301.11307,67,51,0
300.38318,301.11307,71,61,0
300.38318,301.11307,62,51,0
301.11307,301.45792,74,60,0
301.11307,301.45792,71,51,0
301.11307,301.45792,67,51,0
301.45792,301.8089,67,52,0
301.45792,301.8089,71,52,0
301.45792,301.8089,76,62,0
301.8089,302.1422,77,66,0
301.8089,302.1422,71,56,0
301.8089,302.1422,67,56,0
302.17926,302.50262,76,62,0
302.17926,302.50262,71,52,0
302.17926,302.50262,67,52,0
302.53854,302.71503,77,69,0
302.53854,302.8562,67,58,0
302.53854,302.8562,71,58,0
302.71503,302.89148,81,65,0
302.89148,303.23123,79,66,0
302.89148,303.23123,71,56,0
303.27203,303.60333,67,56,0
303.27203,303.60333,72,56,0
303.27203,303.60333,77,66,0
303.64014,303.95966,76,51,0
303.64014,303.95966,67,43,0
303.64014,303.99518,72,43,0
303.99518,304.3147,65,42,0
303.99518,304.3147,74,50,0
303.99518,304.3502,67,42,0
304.3502,304.69324,64,44,0
304.3502,304.69324,72,52,0
304.3502,304.7346,67,44,0
304.7346,305.05795,67,53,0
304.7346,305.05795,72,63,0
304.7346,305.05795,62,53,0
305.09387,305.41724,71,54,0
305.09387,305.41724,62,45,0
305.09387,305.41724,67,45,0
305.45316,305.77652,66,47,0
305.45316,305.77652,72,56,0
305.45316,305.77652,62,47,0
305.81244,306.1576,62,45,0
305.81244,306.1576,71,53,0
305.81244,306.1576,66,45,0
306.19897,307.66794,67,53,0
306.19897,307.66794,59,45,0
306.19897,307.66794,62,38,0
307.66794,307.81543,58,71,0
307.81543,307.96292,57,60,0
307.96292,308.1104,55,61,0
308.1104,308.2579,57,61,0
308.2579,308.40118,58,71,0
308.40118,308.54443,55,62,0
308.54443,308.6877,58,62,0
308.6877,308.83444,55,62,0
308.84778,309.15137,67,82,0
309.16458,309.3158,55,68,0
309.467,309.6182,55,68,0
309.7694,309.92865,55,68,0
310.0879,310.36566,60,64,0
310.0879,310.39655,63,64,0
310.0879,310.39655,67,76,0
310.39655,310.54404,55,62,0
310.69153,310.84198,55,62,0
310.99243,311.15082,55,62,0
311.32483,311.65378,62,64,0
311.32483,311.65378,58,64,0
311.32483,311.65378,67,76,0
311.65378,311.8097,55,61,0
311.96564,312.12155,55,61,0
312.27747,312.4334,55,61,0
312.58932,312.73682,68,56,0
312.58932,312.73682,74,81,0
312.58932,312.73682,62,56,0
312.73682,312.8843,73,69,0
312.8843,313.0318,68,57,0
312.8843,313.0318,62,57,0
312.8843,313.0318,71,72,0
313.0318,313.1793,73,73,0
313.1793,313.32257,74,86,0
313.1793,313.32257,65,59,0
313.1793,313.32257,68,59,0
313.32257,313.46582,71,77,0
313.46582,313.6091,65,62,0
313.46582,313.6091,68,62,0
313.46582,313.6091,74,78,0
313.6091,313.7692,71,80,0
313.7692,314.08597,74,81,0
313.7692,314.08597,78,95,0
313.7692,314.08597,66,81,0
313.7692,314.08597,71,81,0
314.08597,314.23718,62,59,0
314.08597,314.23718,66,71,0
314.3884,314.5396,66,71,0
314.3884,314.5396,62,59,0
314.69083,314.85004,62,59,0
314.69083,314.85004,66,71,0
315.00928,315.15677,61,47,0
315.00928,315.15677,67,60,0
315.15677,315.30426,66,50,0
315.30426,315.45175,61,47,0
315.30426,315.45175,69,51,0
315.45175,315.59924,67,51,0
315.59924,315.75278,64,47,0
315.59924,315.75278,66,60,0
315.9063,316.07446,64,47,0
315.9063,316.07446,66,52,0
316.24078,316.39752,62,62,0
316.24078,316.39752,71,73,0
316.24078,316.39752,59,62,0
316.24078,316.39752,66,62,0
316.55426,316.72827,62,63,0
316.90228,317.087,66,75,0
316.90228,317.087,62,63,0
316.90228,317.087,57,63,0
316.90228,317.087,60,63,0
317.27173,317.47665,62,78,0
317.68158,317.82907,67,81,0
317.68158,317.82907,58,69,0
317.68158,317.82907,62,69,0
317.82907,317.97656,57,69,0
317.97656,318.12405,55,70,0
318.12405,318.27155,57,70,0
318.27155,318.41483,58,81,0
318.41483,318.55807,55,71,0
318.55807,318.70135,58,71,0
318.70135,318.84808,55,71,0
318.86142,319.165,67,82,0
319.17822,319.32944,55,68,0
319.48065,319.63187,55,68,0
319.78305,319.9423,55,68,0
320.10153,320.25586,63,67,0
320.10153,320.25586,67,79,0
320.10153,320.25586,60,67,0
320.4102,320.55603,55,62,0
320.70187,320.85233,55,62,0
321.00278,321.16116,55,62,0
321.33517,321.66412,67,76,0
321.33517,321.66412,62,64,0
321.33517,321.66412,58,64,0
321.66412,321.82004,55,61,0
321.97598,322.1319,55,61,0
322.2878,322.44376,55,61,0
322.59967,322.74716,71,61,0
322.59967,322.74716,65,61,0
322.59967,322.74716,77,89,0
322.74716,322.89465,76,75,0
322.89465,323.04214,74,79,0
322.89465,323.04214,71,62,0
322.89465,323.04214,65,62,0
323.04214,323.18964,76,80,0
323.18964,323.33292,68,64,0
323.18964,323.33292,77,94,0
323.18964,323.33292,71,64,0
323.33292,323.47617,74,84,0
323.47617,323.61945,68,68,0
323.47617,323.61945,71,68,0
323.47617,323.61945,77,85,0
323.61945,323.77954,74,88,0
323.77954,324.0963,77,81,0
323.77954,324.0963,69,81,0
323.77954,324.0963,81,95,0
323.77954,324.0963,74,81,0
324.0963,324.24753,65,64,0
324.0963,324.24753,69,78,0
324.39874,324.54996,65,64,0
324.39874,324.54996,69,78,0
324.70117,324.86038,65,64,0
324.70117,324.86038,69,78,0
325.01962,325.1671,64,47,0
325.01962,325.1671,70,60,0
325.1671,325.3146,69,51,0
325.3146,325.4621,72,51,0
325.3146,325.4621,64,47,0
325.4621,325.6096,70,51,0
325.6096,325.76312,69,60,0
325.6096,325.76312,67,47,0
325.91666,326.08484,69,52,0
325.91666,326.08484,67,47,0
326.25113,326.56198,62,62,0
326.25113,326.5646,74,73,0
326.25113,326.5646,69,62,0
326.25113,326.5646,65,62,0
326.5646,326.7414,62,63,0
326.91815,327.11084,62,75,0
327.30353,327.50803,62,78,0
327.71252,327.86002,69,60,0
327.86002,328.0075,68,51,0
328.0075,328.155,70,53,0
328.155,328.2902,69,51,0
327.71252,328.2902,65,47,0
328.3025,328.46088,69,60,0
328.3025,328.46088,65,47,0
328.6193,328.78287,65,47,0
328.6193,328.78287,69,52,0
328.94916,329.2427,72,70,0
329.2427,329.39545,67,53,0
328.94916,329.54706,64,59,0
329.56082,329.70978,67,66,0
329.56082,329.70978,64,56,0
329.85873,330.01797,67,62,0
329.85873,330.01797,64,52,0
330.17722,330.3247,70,69,0
330.3247,330.4722,69,57,0
330.4722,330.6197,72,57,0
330.6197,330.75488,70,57,0
330.17722,330.75488,67,69,0
330.76718,330.92557,67,69,0
330.76718,330.92557,70,69,0
331.08398,331.24844,70,54,0
331.08398,331.24844,67,49,0
331.41293,331.70645,74,73,0
331.70645,331.864,69,55,0
331.41293,332.0077,66,61,0
332.02075,332.1697,69,69,0
332.02075,332.1697,66,58,0
332.3187,332.4779,69,65,0
332.3187,332.4779,66,54,0
332.63715,332.78464,74,72,0
332.78464,332.93213,73,59,0
332.93213,333.07962,76,62,0
333.07962,333.21484,74,61,0
332.63715,333.21484,70,72,0
333.2271,333.3898,70,72,0
333.2271,333.3898,74,72,0
333.5525,333.72162,74,56,0
333.5525,333.72162,70,51,0
333.89072,334.19315,77,76,0
334.19315,334.3507,72,57,0
333.89072,334.4944,69,64,0
334.50745,334.65942,69,60,0
334.50745,334.65942,72,72,0
334.8114,334.97064,69,56,0
334.8114,334.97064,72,68,0
335.12985,335.43536,79,79,0
335.43536,335.59985,76,63,0
335.12985,335.7506,67,64,0
335.7643,335.91705,67,60,0
335.7643,335.91705,72,72,0
336.06982,336.2352,67,56,0
336.06982,336.2352,70,68,0
336.40057,336.54807,70,68,0
336.54807,336.69556,69,53,0
336.69556,336.8473,74,56,0
336.8473,336.9864,72,55,0
336.40057,336.9864,65,68,0
336.99905,337.16174,65,57,0
336.99905,337.16174,72,68,0
337.32443,337.49353,64,48,0
337.32443,337.49353,72,53,0
337.66266,337.95245,62,60,0
337.66266,337.96506,72,72,0
337.96506,338.12262,62,48,0
337.96506,338.12262,70,54,0
338.27936,338.43134,64,57,0
338.27936,338.43134,67,68,0
338.27936,338.43134,58,57,0
338.5833,338.74255,60,53,0
338.5833,338.74255,64,53,0
338.5833,338.74255,69,64,0
338.9018,339.0493,65,68,0
339.0493,339.19678,64,52,0
339.19678,339.34427,67,56,0
339.34427,339.47946,65,52,0
338.9018,339.47946,57,68,0
339.49176,339.65445,65,68,0
339.49176,339.65445,57,57,0
339.81714,339.98624,65,53,0
339.81714,339.98624,57,48,0
340.15536,340.33038,66,76,0
340.15536,340.33038,57,64,0
340.15536,340.33038,62,64,0
340.15536,340.33038,60,64,0
340.50543,340.68045,62,60,0
340.50543,340.68045,66,71,0
340.50543,340.68045,60,60,0
340.50543,340.68045,57,60,0
340.85547,341.03052,66,70,0
340.85547,341.03052,60,59,0
340.85547,341.03052,62,59,0
340.85547,341.03052,57,59,0
341.20554,341.38055,57,59,0
341.20554,341.38055,66,70,0
341.20554,341.38055,62,59,0
341.20554,341.38055,60,59,0
341.5556,341.73483,69,58,0
341.5556,341.73483,62,58,0
341.5556,341.73483,66,58,0
341.5556,341.73483,74,69,0
341.9192,342.10754,62,53,0
341.9192,342.10754,69,53,0
341.9192,342.10754,66,53,0
341.9192,342.10754,74,63,0
342.3003,342.49994,69,53,0
342.3003,342.49994,74,63,0
342.3003,342.49994,62,53,0
342.3003,342.49994,66,53,0
342.70932,342.92874,69,53,0
342.70932,342.92874,62,53,0
342.70932,342.92874,66,53,0
342.70932,342.92874,74,63,0
343.16595,343.31345,58,81,0
343.31345,343.46094,57,68,0
343.46094,343.60843,55,70,0
343.60843,343.75592,57,70,0
343.75592,343.89917,58,81,0
343.89917,344.04245,55,71,0
344.04245,344.18573,58,71,0
344.18573,344.33246,55,71,0
344.3458,344.64938,67,82,0
344.6626,344.8138,55,68,0
344.96503,345.1162,55,68,0
345.26743,345.42667,55,68,0
345.5859,345.74023,67,79,0
345.5859,345.74023,63,67,0
345.5859,345.74023,60,67,0
345.89453,346.04205,55,62,0
346.18954,346.34,55,62,0
346.49045,346.64883,55,62,0
346.82285,347.1518,58,64,0
346.82285,347.1518,62,64,0
346.82285,347.1518,67,76,0
347.1518,347.3077,55,61,0
347.46365,347.61957,55,61,0
347.77548,347.93143,55,61,0
348.08734,348.23483,74,81,0
348.23483,348.38232,73,69,0
348.38232,348.52982,71,72,0
348.08734,348.665,68,56,0
348.08734,348.665,62,56,0
348.52982,348.6773,73,73,0
348.6773,348.8206,68,59,0
348.6773,348.8206,65,59,0
348.6773,348.8206,74,86,0
348.8206,348.96384,71,77,0
348.96384,349.10712,65,62,0
348.96384,349.10712,74,78,0
348.96384,349.10712,68,62,0
349.10712,349.2672,71,80,0
349.2672,349.58136,66,81,0
349.2672,349.58398,71,81,0
349.2672,349.58398,74,81,0
349.2672,349.58398,78,95,0
349.58398,349.7352,66,71,0
349.58398,349.7352,62,59,0
349.8864,350.03763,66,71,0
349.8864,350.03763,62,59,0
350.1888,350.34805,66,71,0
350.1888,350.34805,62,59,0
350.5073,350.6548,61,47,0
350.5073,350.6548,67,60,0
350.6548,350.80228,66,51,0
350.80228,350.94977,61,47,0
350.80228,350.94977,69,51,0
350.94977,351.09726,67,51,0
351.09726,351.2508,66,60,0
351.09726,351.2508,64,47,0
351.40433,351.57248,64,47,0
351.40433,351.57248,66,52,0
351.7388,352.04965,62,62,0
351.7388,352.05228,66,62,0
351.7388,352.05228,71,73,0
351.7388,352.05228,59,62,0
352.05228,352.2263,62,63,0
352.4003,352.58502,60,63,0
352.4003,352.58502,62,63,0
352.4003,352.58502,66,75,0
352.4003,352.58502,57,63,0
352.76974,352.97467,62,78,0
353.1796,353.3271,67,81,0
353.1796,353.3271,62,69,0
353.1796,353.3271,58,69,0
353.3271,353.47458,57,69,0
353.47458,353.62207,55,70,0
353.62207,353.76956,57,70,0
353.76956,353.91284,58,81,0
353.91284,354.0561,55,71,0
354.0561,354.19937,58,71,0
354.19937,354.35944,55,71,0
354.35944,354.66302,67,82,0
354.67624,354.82745,55,68,0
354.97867,355.12985,55,68,0
355.28107,355.4403,55,68,0
355.59955,355.75388,60,67,0
355.59955,355.75388,67,79,0
355.59955,355.75388,63,67,0
355.9082,356.0557,55,62,0
356.2032,356.35364,55,62,0
356.5041,356.66248,55,62,0
356.8365,357.16544,58,64,0
356.8365,357.16544,67,76,0
356.8365,357.16544,62,64,0
357.16544,357.32135,55,61,0
357.4773,357.6332,55,61,0
357.78912,357.94507,55,61,0
358.10098,358.24847,77,89,0
358.24847,358.39597,76,75,0
358.39597,358.54346,74,79,0
358.10098,358.67868,71,61,0
358.10098,358.67868,65,61,0
358.54346,358.69095,76,80,0
358.69095,358.83423,71,64,0
358.69095,358.83423,77,94,0
358.69095,358.83423,68,64,0
358.83423,358.97748,74,84,0
358.97748,359.12076,68,68,0
358.97748,359.12076,71,68,0
358.97748,359.12076,77,85,0
359.12076,359.27817,74,88,0
359.28085,359.58444,69,81,0
359.28085,359.59763,81,95,0
359.28085,359.59763,74,81,0
359.28085,359.59763,77,81,0
359.59763,359.74884,65,64,0
359.59763,359.74884,69,78,0
359.90005,360.05127,69,78,0
359.90005,360.05127,65,64,0
360.20248,360.3617,69,78,0
360.20248,360.3617,65,64,0
360.52094,360.66843,81,97,0
360.66843,360.81592,80,82,0
360.81592,360.9634,78,86,0
360.52094,361.09863,69,67,0
360.52094,361.09863,75,67,0
360.9634,361.1109,80,88,0
361.1109,361.25418,71,70,0
361.1109,361.25418,81,103,0
361.1109,361.25418,75,70,0
361.25418,361.39746,78,92,0
361.39746,361.5407,81,93,0
361.39746,361.5407,75,74,0
361.39746,361.5407,71,74,0
361.5407,361.7008,78,96,0
361.7008,362.0044,73,89,0
361.7008,362.01758,78,89,0
361.7008,362.01758,85,104,0
361.7008,362.01758,81,89,0
362.01758,362.1688,73,78,0
362.01758,362.1688,69,64,0
362.32,362.47122,69,64,0
362.32,362.47122,73,78,0
362.62244,362.78168,73,78,0
362.62244,362.78168,69,64,0
362.9409,363.10013,74,60,0
363.10013,363.25937,73,49,0
363.25937,363.4186,76,51,0
363.4186,363.56458,74,48,0
362.9409,363.56458,68,47,0
363.57785,363.73624,71,47,0
363.57785,363.73624,73,60,0
363.89462,364.0582,73,52,0
363.89462,364.0582,71,47,0
364.22452,364.3908,73,51,0
364.22452,364.3908,78,61,0
364.22452,364.3908,66,51,0
364.22452,364.3908,69,51,0
364.5571,364.7234,73,51,0
364.5571,364.7234,69,43,0
364.5571,364.7234,66,43,0
364.8897,365.056,73,51,0
364.8897,365.056,69,43,0
364.8897,365.056,66,43,0
365.2223,365.39835,69,43,0
365.2223,365.39835,66,43,0
365.2223,365.39835,73,51,0
365.5744,365.7407,73,51,0
365.5744,365.7407,78,61,0
365.5744,365.7407,66,51,0
365.5744,365.7407,69,51,0
365.90698,366.0733,66,43,0
365.90698,366.0733,73,51,0
365.90698,366.0733,69,43,0
366.2396,366.40588,66,43,0
366.2396,366.40588,69,43,0
366.2396,366.40588,73,51,0
366.57217,366.7569,73,51,0
366.57217,366.7569,66,43,0
366.57217,366.7569,69,43,0
366.94165,367.28372,78,61,0
366.94165,367.28372,66,51,0
366.94165,367.28372,74,51,0
366.94165,367.28372,72,51,0
366.94165,367.28372,69,51,0
367.28372,367.59158,69,42,0
367.28372,367.59158,74,50,0
367.28372,367.59158,72,42,0
367.28372,367.59158,66,42,0
367.6258,367.79684,69,41,0
367.6258,367.79684,74,49,0
367.6258,367.79684,72,41,0
367.6258,367.79684,66,41,0
367.96786,368.15375,66,40,0
367.96786,368.15375,69,40,0
367.96786,368.15375,72,40,0
367.96786,368.15375,74,48,0
368.3396,368.6817,69,47,0
368.3396,368.6817,66,47,0
368.3396,368.6817,72,47,0
368.3396,368.6817,74,47,0
368.3396,368.6817,78,56,0
368.6817,368.98956,69,39,0
368.6817,368.98956,74,46,0
368.6817,368.98956,72,39,0
368.6817,368.98956,66,39,0
369.02377,369.1948,72,38,0
369.02377,369.1948,74,45,0
369.02377,369.1948,66,38,0
369.02377,369.1948,69,38,0
369.36584,369.5529,74,44,0
369.36584,369.5529,72,37,0
369.36584,369.5529,69,37,0
369.36584,369.5529,66,37,0
369.7399,370.08304,66,43,0
369.7399,370.08304,69,43,0
369.7399,370.08304,74,43,0
369.7399,370.08594,72,43,0
369.7399,370.08594,78,51,0
370.08594,370.40585,74,40,0
370.08594,370.40585,66,34,0
370.08594,370.40585,69,34,0
370.44193,370.62396,67,32,0
370.44193,370.62396,71,32,0
370.44193,370.62396,74,38,0
370.80878,370.99652,72,30,0
370.80878,370.99652,74,35,0
370.80878,370.99652,69,30,0
371.1872,371.52054,74,50,0
371.1872,371.52054,67,42,0
371.1872,371.52054,71,42,0
371.55756,371.8909,67,38,0
371.55756,371.8909,71,38,0
371.55756,371.8909,76,45,0
371.92795,372.26126,67,38,0
371.92795,372.26126,78,45,0
371.92795,372.26126,71,38,0
372.2983,372.64676,71,38,0
372.2983,372.64676,67,38,0
372.2983,372.64676,79,45,0
372.68756,373.01886,79,53,0
372.68756,373.01886,67,45,0
372.68756,373.01886,71,53,0
373.05566,373.37518,71,41,0
373.05566,373.37518,67,35,0
373.4107,373.73022,71,44,0
373.4107,373.73022,67,37,0
373.76572,374.10876,67,35,0
373.76572,374.10876,71,41,0
374.15015,374.47348,70,44,0
374.15015,374.47348,79,52,0
374.15015,374.47348,67,44,0
374.50943,374.83276,70,36,0
374.50943,374.83276,67,36,0
374.50943,374.83276,73,42,0
374.8687,375.19205,70,38,0
374.8687,375.19205,73,45,0
374.8687,375.19205,67,38,0
375.228,375.62192,67,36,0
375.228,375.62192,70,36,0
375.228,375.62192,73,42,0
375.67548,377.1012,67,48,0
375.67548,377.1012,74,57,0
375.67548,377.1012,71,48,0
377.1012,377.44083,76,50,0
377.1012,377.44083,67,42,0
377.1012,377.44083,71,42,0
377.47858,377.80984,67,38,0
377.47858,377.80984,71,38,0
377.47858,377.80984,74,45,0
377.84665,378.17795,71,45,0
377.84665,378.17795,67,38,0
378.21475,378.56207,67,45,0
378.6029,378.93417,62,45,0
378.6029,378.93417,71,53,0
378.6029,378.93417,67,53,0
378.97098,379.29053,62,35,0
378.97098,379.29053,69,41,0
378.97098,379.32602,66,35,0
379.32602,379.64938,69,44,0
379.32602,379.64938,62,37,0
379.32602,379.6853,66,37,0
379.6853,380.03046,62,35,0
379.6853,380.03046,69,41,0
379.6853,380.07184,66,35,0
380.07184,380.3952,67,44,0
380.07184,380.3952,70,44,0
380.07184,380.3952,76,52,0
380.43112,380.7545,70,36,0
380.43112,380.7545,67,36,0
380.43112,380.7545,73,42,0
380.7904,381.11377,67,38,0
380.7904,381.11377,73,45,0
380.7904,381.11377,70,38,0
381.1497,381.5071,67,36,0
381.1497,381.5071,73,42,0
381.1497,381.5071,70,36,0
381.55154,382.97726,69,48,0
381.55154,382.97726,66,48,0
381.55154,382.97726,74,57,0
382.97726,383.3106,65,42,0
382.97726,383.3106,69,42,0
382.97726,383.3106,74,50,0
383.34766,383.671,74,47,0
383.34766,383.671,65,39,0
383.34766,383.671,69,39,0
383.7069,384.03027,76,49,0
383.7069,384.03027,65,41,0
383.7069,384.03027,69,41,0
384.0662,384.40912,77,51,0
384.0662,384.40912,69,43,0
384.44992,384.78122,64,45,0
384.44992,384.78122,77,53,0
384.44992,384.78122,68,53,0
384.81802,385.13754,71,41,0
384.81802,385.13754,64,35,0
384.81802,385.17307,68,35,0
385.17307,385.49258,64,37,0
385.17307,385.49258,71,44,0
385.17307,385.52808,68,37,0
385.52808,385.87112,71,41,0
385.52808,385.87112,64,35,0
385.52808,385.9125,68,35,0
385.9125,386.23584,72,52,0
385.9125,386.23584,69,44,0
385.9125,386.23584,64,44,0
386.2718,386.59512,69,38,0
386.2718,386.59512,64,38,0
386.2718,386.59512,72,45,0
386.63107,386.9544,69,38,0
386.63107,386.9544,64,38,0
386.63107,386.9544,74,45,0
386.99033,387.3355,67,38,0
386.99033,387.3355,64,38,0
386.99033,387.3355,76,45,0
387.3769,387.70816,62,45,0
387.3769,387.70816,76,53,0
387.3769,387.70816,66,53,0
387.74496,388.0645,69,41,0
387.74496,388.0645,62,35,0
387.74496,388.1,66,35,0
388.1,388.42337,69,44,0
388.1,388.42337,62,37,0
388.1,388.4593,66,37,0
388.4593,388.80444,69,41,0
388.4593,388.80444,62,35,0
388.4593,388.84583,66,35,0
388.84583,389.192,62,44,0
388.84583,389.192,67,44,0
388.84583,389.192,71,52,0
389.23044,389.55188,67,45,0
389.23044,389.55188,76,54,0
389.23044,389.55188,62,45,0
389.5876,389.909,62,43,0
389.5876,389.909,74,51,0
389.5876,389.909,67,43,0
389.94473,390.3011,71,48,0
389.94473,390.3011,67,40,0
389.94473,390.3011,62,40,0
390.34552,390.67682,74,53,0
390.34552,390.67682,62,45,0
390.34552,390.67682,66,53,0
390.71362,391.03314,62,35,0
390.71362,391.03314,69,41,0
390.71362,391.06863,66,35,0
391.06863,391.392,69,44,0
391.06863,391.392,62,37,0
391.06863,391.42792,66,37,0
391.42792,391.7731,62,35,0
391.42792,391.7731,69,41,0
391.42792,391.81445,66,35,0
391.81445,392.15625,67,44,0
391.81445,392.15625,62,44,0
391.81445,392.15625,71,52,0
392.1942,392.51566,67,45,0
392.1942,392.51566,76,54,0
392.1942,392.51566,62,45,0
392.55136,392.87277,62,43,0
392.55136,392.87277,67,43,0
392.55136,392.87277,74,51,0
392.9085,393.26486,71,48,0
392.9085,393.26486,67,40,0
392.9085,393.26486,62,40,0
393.3093,393.67172,62,39,0
393.3093,393.67172,74,47,0
393.3093,393.67172,66,39,0
393.71198,394.05814,69,40,0
393.71198,394.05814,62,34,0
393.71198,394.0966,66,34,0
394.0966,394.469,69,30,0
394.0966,394.469,74,36,0
394.0966,394.51038,66,30,0
394.51038,395.01178,70,28,0
394.51038,395.01178,74,33,0
394.51038,395.06747,66,28,0
395.06747,395.40082,67,37,0
395.06747,395.40082,74,45,0
395.06747,395.40082,71,37,0
395.43787,395.77118,71,38,0
395.43787,395.77118,67,38,0
395.43787,395.77118,76,45,0
395.80823,396.14157,67,38,0
395.80823,396.14157,71,38,0
395.80823,396.14157,78,45,0
396.1786,396.52704,71,38,0
396.1786,396.52704,79,45,0
396.1786,396.52704,67,38,0
396.56787,396.89917,79,53,0
396.56787,396.89917,67,45,0
396.56787,396.89917,71,53,0
396.93597,397.2555,71,41,0
396.93597,397.2555,67,35,0
397.291,397.61053,71,44,0
397.291,397.61053,67,37,0
397.64603,397.98904,71,41,0
397.64603,397.98904,67,35,0
398.03043,398.3538,70,44,0
398.03043,398.3538,67,44,0
398.03043,398.3538,79,52,0
398.3897,398.71307,73,45,0
398.3897,398.71307,70,38,0
398.3897,398.71307,67,38,0
398.749,399.07236,73,45,0
398.749,399.07236,67,38,0
398.749,399.07236,70,38,0
399.10828,399.5022,70,38,0
399.10828,399.5022,73,45,0
399.10828,399.5022,67,38,0
399.5558,400.9815,67,48,0
399.5558,400.9815,71,48,0
399.5558,400.9815,74,57,0
400.9815,401.32114,67,51,0
400.9815,401.32114,77,61,0
400.9815,401.32114,71,51,0
401.35886,401.69016,76,52,0
401.35886,401.69016,71,44,0
401.35886,401.69016,67,44,0
401.72696,402.05826,67,48,0
401.72696,402.05826,77,57,0
401.72696,402.09506,71,48,0
402.09506,402.44238,79,52,0
402.09506,402.4832,71,44,0
402.4832,402.81448,67,53,0
402.4832,402.81448,72,53,0
402.4832,402.81448,77,63,0
402.8513,403.1708,67,46,0
402.8513,403.1708,76,55,0
402.8513,403.20633,72,46,0
403.20633,403.52966,74,55,0
403.20633,403.5656,67,46,0
403.5656,403.91077,72,54,0
403.5656,403.91077,64,45,0
403.5656,403.95215,67,45,0
403.95215,404.27548,72,59,0
403.95215,404.27548,67,50,0
403.95215,404.27548,62,50,0
404.3114,404.66107,71,53,0
404.3114,404.66107,62,45,0
404.3114,404.66107,67,45,0
404.70303,405.02444,66,47,0
404.70303,405.02444,62,47,0
404.70303,405.02444,74,56,0
405.06018,405.4165,62,45,0
405.06018,405.4165,66,45,0
405.06018,405.4165,72,53,0
405.46097,406.1909,62,51,0
405.46097,406.1909,67,51,0
405.46097,406.1909,71,61,0
406.1909,406.5357,67,51,0
406.1909,406.5357,74,60,0
406.1909,406.5357,71,51,0
406.5357,406.8867,76,62,0
406.5357,406.8867,71,52,0
406.5357,406.8867,67,52,0
406.8867,407.22003,77,66,0
406.8867,407.22003,67,56,0
406.8867,407.22003,71,56,0
407.25705,407.5804,76,62,0
407.25705,407.5804,67,52,0
407.25705,407.5804,71,52,0
407.61633,407.79282,77,69,0
407.61633,407.934,67,58,0
407.61633,407.934,71,58,0
407.79282,407.96927,81,65,0
407.96927,408.30902,79,66,0
407.96927,408.30902,71,56,0
408.34982,408.68112,72,56,0
408.34982,408.68112,77,66,0
408.34982,408.68112,67,56,0
408.71793,409.03745,76,51,0
408.71793,409.03745,67,43,0
408.71793,409.07297,72,43,0
409.07297,409.3925,65,42,0
409.07297,409.3925,74,50,0
409.07297,409.42798,67,42,0
409.42798,409.77103,72,52,0
409.42798,409.77103,64,44,0
409.42798,409.8124,67,44,0
409.8124,410.13574,62,53,0
409.8124,410.13574,72,63,0
409.8124,410.13574,67,53,0
410.1717,410.49503,67,45,0
410.1717,410.49503,71,54,0
410.1717,410.49503,62,45,0
410.53098,410.8543,66,47,0
410.53098,410.8543,72,56,0
410.53098,410.8543,62,47,0
410.89026,411.2354,71,53,0
410.89026,411.2354,62,45,0
410.89026,411.2354,66,45,0
411.2768,412.3442,67,53,0
411.2768,412.3442,62,38,0
411.2768,412.3442,59,45,0
412.3592,412.7022,71,49,0
412.3592,412.7022,59,41,0
412.3592,412.7436,62,41,0
412.7436,413.06696,62,50,0
412.7436,413.06696,60,50,0
412.7436,413.06696,71,59,0
413.10287,413.42624,72,51,0
413.10287,413.42624,62,42,0
413.10287,413.42624,60,42,0
413.46216,413.78552,60,44,0
413.46216,413.78552,69,53,0
413.46216,413.78552,62,44,0
413.82144,414.1666,69,47,0
413.82144,414.1666,62,39,0
413.82144,414.1666,60,39,0
414.20798,414.53134,62,50,0
414.20798,414.53134,69,59,0
414.20798,414.53134,59,50,0
414.56726,414.89062,71,51,0
414.56726,414.89062,62,42,0
414.56726,414.89062,59,42,0
414.92654,415.2499,59,44,0
414.92654,415.2499,62,44,0
414.92654,415.2499,67,53,0
415.28583,415.62192,62,39,0
415.28583,415.62192,59,39,0
415.28583,415.62192,67,47,0
415.66104,415.9844,67,59,0
415.66104,415.9844,60,50,0
415.66104,415.9844,62,50,0
416.02032,416.37463,66,51,0
416.02032,416.37463,60,42,0
416.02032,416.37463,62,42,0
416.4183,416.73706,76,65,0
416.4183,416.73706,66,44,0
416.4183,416.73706,69,44,0
416.7725,417.1151,69,42,0
416.7725,417.1151,66,42,0
416.7725,417.1151,74,60,0
417.1565,418.2239,74,59,0
417.1565,418.2239,67,45,0
417.1565,418.2239,71,38,0
418.2389,418.5819,71,49,0
418.2389,418.5819,59,41,0
418.2389,418.6233,62,41,0
418.6233,418.94666,71,59,0
418.6233,418.94666,60,50,0
418.6233,418.94666,62,50,0
418.98257,419.30594,60,42,0
418.98257,419.30594,62,42,0
418.98257,419.30594,72,51,0
419.34186,419.66522,62,44,0
419.34186,419.66522,60,44,0
419.34186,419.66522,69,53,0
419.70114,420.0463,69,47,0
419.70114,420.0463,62,39,0
419.70114,420.0463,60,39,0
420.08768,420.41104,59,50,0
420.08768,420.41104,62,50,0
420.08768,420.41104,69,59,0
420.44696,420.77032,71,51,0
420.44696,420.77032,59,42,0
420.44696,420.77032,62,42,0
420.80624,421.1296,62,44,0
420.80624,421.1296,59,44,0
420.80624,421.1296,67,53,0
421.16553,421.51068,67,47,0
421.16553,421.51068,62,39,0
421.16553,421.51068,59,39,0
421.55206,421.87543,60,50,0
421.55206,421.87543,62,50,0
421.55206,421.87543,67,59,0
421.91135,422.2347,62,42,0
421.91135,422.2347,60,42,0
421.91135,422.2347,66,51,0
422.27063,422.594,71,57,0
422.27063,422.594,60,44,0
422.27063,422.594,62,44,0
422.6299,422.97507,62,42,0
422.6299,422.97507,60,42,0
422.6299,422.97507,69,54,0
423.01645,424.48538,62,38,0
423.01645,424.48538,67,53,0
423.01645,424.48538,59,45,0
424.48538,424.63287,58,49,0
424.63287,424.7804,57,42,0
424.7804,424.9279,55,42,0
424.9279,425.07538,57,42,0
425.07538,425.21863,58,49,0
425.21863,425.3619,55,43,0
425.3619,425.50516,58,43,0
425.50516,425.66525,55,43,0
425.66525,425.81274,58,49,0
425.81274,425.96024,57,42,0
425.96024,426.10773,55,42,0
426.10773,426.25522,57,42,0
426.25522,426.3985,58,49,0
426.3985,426.54175,55,43,0
426.54175,426.68503,58,43,0
426.68503,426.8451,55,43,0
426.8451,427.13327,61,44,0
426.8451,427.16528,64,44,0
426.8451,427.16528,67,44,0
426.8451,427.16528,70,53,0
427.16528,427.3207,67,36,0
427.16528,427.3207,69,43,0
427.16528,427.3207,64,36,0
427.16528,427.3207,61,36,0
427.47617,427.6316,69,43,0
427.47617,427.6316,61,36,0
427.47617,427.6316,64,36,0
427.47617,427.6316,67,36,0
427.78705,427.95944,69,43,0
427.78705,427.95944,64,36,0
427.78705,427.95944,61,36,0
427.78705,427.95944,67,36,0
428.13187,429.41638,64,44,0
428.13187,429.41638,67,44,0
428.13187,429.41638,61,44,0
428.13187,429.41638,69,53,0
429.41638,429.56387,58,49,0
429.56387,429.71136,57,41,0
429.71136,429.85886,55,42,0
429.85886,430.00635,57,41,0
430.00635,430.14963,58,49,0
430.14963,430.2929,55,41,0
430.2929,430.43616,58,43,0
430.43616,430.59625,55,41,0
430.59625,430.74374,58,49,0
430.74374,430.89124,57,41,0
430.89124,431.03873,55,42,0
431.03873,431.18622,57,40,0
431.18622,431.3295,58,49,0
431.3295,431.47275,55,41,0
431.47275,431.61603,58,43,0
431.61603,431.7761,55,41,0
431.7761,432.06427,61,44,0
431.7761,432.09628,64,44,0
431.7761,432.09628,70,53,0
431.7761,432.09628,67,44,0
432.09628,432.2517,64,36,0
432.09628,432.2517,69,43,0
432.09628,432.2517,61,36,0
432.09628,432.2517,67,36,0
432.40717,432.5626,64,36,0
432.40717,432.5626,67,36,0
432.40717,432.5626,61,36,0
432.40717,432.5626,69,43,0
432.71805,432.89044,67,36,0
432.71805,432.89044,69,43,0
432.71805,432.89044,61,36,0
432.71805,432.89044,64,36,0
433.06287,435.60873,67,44,0
433.06287,435.60873,64,44,0
433.06287,435.60873,69,53,0
433.06287,435.60873,61,44,0
435.622,435.7816,69,43,0
435.7816,435.94116,57,37,0
435.94116,436.0942,61,37,0
436.0942,436.2462,64,38,0
436.2462,436.39816,69,43,0
436.39816,436.55014,57,38,0
436.55014,436.70212,69,39,0
436.70212,436.8541,57,39,0
436.8541,437.00607,73,43,0
437.00607,437.15805,61,39,0
437.15805,437.3027,64,39,0
437.3027,437.44736,69,40,0
437.44736,437.592,73,45,0
437.592,437.73663,61,40,0
437.73663,437.8813,73,40,0
437.8813,438.02594,61,41,0
438.02594,438.1706,76,47,0
438.1706,438.31525,64,41,0
438.31525,438.45987,69,41,0
438.45987,438.60452,73,42,0
438.60452,438.74918,76,49,0
438.74918,438.89383,64,44,0
438.89383,439.03848,76,45,0
439.03848,439.18314,64,46,0
439.18314,439.32776,81,53,0
439.32776,439.47168,69,46,0
439.47168,439.61224,73,48,0
439.61224,439.75284,76,46,0
439.75284,439.8934,81,53,0
439.8934,440.034,69,45,0
440.034,440.1746,81,47,0
440.1746,440.31516,69,46,0
440.31516,440.45575,81,53,0
440.45575,440.59756,69,45,0
440.59756,440.7429,75,48,0
440.7429,440.88824,78,47,0
440.88824,441.0269,81,53,0
441.0269,441.17294,69,45,0
441.17294,441.31158,81,47,0
441.31158,441.45834,69,45,0
441.45834,441.60025,81,53,0
441.60025,441.74216,69,46,0
441.74216,441.88406,76,48,0
441.88406,442.02597,79,47,0
442.02597,442.16592,81,53,0
442.16592,442.30588,69,45,0
442.30588,442.4471,81,47,0
442.4471,442.58774,69,45,0
442.58774,442.72513,81,53,0
442.72513,442.8625,69,46,0
442.8625,442.99985,76,48,0
442.99985,443.1372,79,46,0
443.1372,443.27457,81,53,0
443.27457,443.41193,69,45,0
443.41193,443.5493,81,47,0
443.5493,443.68665,69,46,0
443.68665,443.82336,81,53,0
443.82336,443.9601,73,45,0
443.9601,444.09683,81,47,0
444.09683,444.23355,73,45,0
444.23355,444.36966,81,53,0
444.36966,444.5058,76,45,0
444.5058,444.6419,81,47,0
444.6419,444.7779,76,45,0
444.7779,444.91034,81,58,0
444.91034,445.04242,79,47,0
445.04242,445.17392,81,49,0
445.17392,445.30484,79,48,0
445.30484,445.4351,81,58,0
445.4351,445.56476,80,48,0
445.56476,445.69388,81,52,0
445.69388,445.82245,80,50,0
445.82245,445.95047,83,59,0
445.95047,446.07922,81,50,0
446.07922,446.20895,83,54,0
446.20895,446.33963,81,51,0
446.33963,446.47156,83,63,0
446.47156,446.6035,81,51,0
446.6035,446.7354,83,56,0
446.7354,446.86737,81,51,0
446.86737,446.99988,83,61,0
446.99988,447.1324,81,55,0
447.1324,447.2649,83,56,0
447.2649,447.39716,81,57,0
447.39716,447.52908,83,66,0
447.52908,447.6606,81,60,0
447.6606,447.79196,83,60,0
447.79196,447.9228,81,61,0
447.9228,448.0535,83,70,0
448.0535,448.1837,81,58,0
448.1837,448.3137,86,57,0
448.3137,448.44327,81,56,0
448.44327,448.5723,80,62,0
448.5723,448.70404,83,55,0
448.70404,448.8386,81,53,0
448.8386,448.97647,78,52,0
448.97647,449.2554,74,49,0
449.2554,449.3969,76,49,0
449.3969,449.53845,74,35,0
449.53845,449.67856,76,48,0
449.67856,449.82382,74,34,0
449.82382,449.96518,78,48,0
449.96518,450.10977,76,36,0
450.10977,450.24985,74,51,0
450.24985,450.38995,73,44,0
450.38995,450.53003,71,46,0
450.53003,450.6701,69,43,0
450.6701,450.81473,71,49,0
450.81473,450.95932,73,45,0
450.95932,451.10068,74,47,0
451.10068,451.2494,76,49,0
451.2494,451.52954,69,54,0
451.52954,451.66965,71,54,0
451.66965,451.80972,69,37,0
451.80972,451.95236,71,54,0
451.95236,452.095,69,45,0
452.095,452.237,78,60,0
452.237,452.3836,74,48,0
452.3836,452.52432,73,53,0
452.52432,452.66504,74,50,0
452.66504,452.80576,76,53,0
452.80576,452.94647,78,51,0
452.94647,453.08975,79,59,0
453.08975,453.23303,81,55,0
453.23303,453.3763,83,64,0
453.3763,453.5139,81,57,0
453.52502,453.80396,81,63,0
453.80396,453.9434,83,56,0
453.9434,454.08286,81,43,0
454.08286,454.2242,83,56,0
454.2242,454.36557,81,45,0
454.36557,454.5069,86,60,0
454.5069,454.65997,85,43,0
454.65997,454.69632,83,53,0
454.69632,454.73264,85,53,0
454.73264,454.80527,83,61,0
454.80527,454.94662,82,56,0
454.94662,455.08795,83,61,0
455.08795,455.2293,85,56,0
455.2293,455.37393,83,61,0
455.37393,455.51852,91,67,0
455.51852,455.65988,90,61,0
455.65988,455.8072,86,57,0
455.8072,456.08737,81,70,0
456.08737,456.22745,83,66,0
456.22745,456.36752,81,47,0
456.36752,456.5135,83,66,0
456.5135,456.65942,81,47,0
456.65942,456.80078,83,68,0
456.80078,456.94742,81,49,0
456.94742,457.08813,83,69,0
457.08813,457.22885,81,56,0
457.22885,457.36957,86,63,0
457.36957,457.51025,81,47,0
457.51025,457.65353,80,61,0
457.65353,457.7968,83,54,0
457.7968,457.9401,81,59,0
457.9401,458.08884,78,51,0
458.08884,458.36774,74,49,0
458.36774,458.50992,76,49,0
458.50992,458.6521,74,35,0
458.6521,458.79346,76,50,0
458.79346,458.9348,74,35,0
458.9348,459.07614,78,54,0
459.07614,459.22415,76,40,0
459.22415,459.36426,74,51,0
459.36426,459.50433,73,45,0
459.50433,459.6444,71,51,0
459.6444,459.7845,69,46,0
459.7845,459.9291,71,56,0
459.9291,460.0737,73,58,0
460.0737,460.21832,74,61,0
460.21832,460.36584,76,63,0
460.37924,460.6795,78,66,0
460.6795,460.8275,77,62,0
460.8275,460.97556,78,52,0
460.97556,461.12015,77,62,0
461.12015,461.26477,78,45,0
461.26477,461.40936,77,62,0
461.40936,461.55396,78,45,0
461.55396,461.69724,79,62,0
461.69724,461.8432,83,57,0
461.8432,461.98267,88,67,0
461.98267,462.12213,86,54,0
462.12213,462.2622,85,62,0
462.2622,462.40228,83,54,0
462.40228,462.54236,81,52,0
462.54236,462.6911,79,52,0
462.6911,462.96515,78,58,0
462.96515,463.10217,81,54,0
463.10217,463.2392,78,41,0
463.2392,463.37885,81,55,0
463.37885,463.5185,78,41,0
463.5185,463.66263,81,56,0
463.66263,463.80676,78,46,0
463.80676,463.94562,76,54,0
463.94562,464.08444,78,50,0
464.08444,464.23108,79,54,0
464.23108,464.36932,83,60,0
464.36932,464.5094,81,57,0
464.5094,464.64948,79,49,0
464.64948,464.78955,78,57,0
464.78955,464.939,76,46,0
464.939,465.21793,74,49,0
465.21793,465.3612,76,49,0
465.3612,465.5045,74,33,0
465.5045,465.64713,76,49,0
465.64713,465.7924,74,34,0
465.7924,465.93375,76,48,0
465.93375,466.07834,74,40,0
466.07834,466.21536,62,61,0
466.21536,466.3524,64,52,0
466.3524,466.4894,66,55,0
466.4894,466.62643,71,52,0
466.62643,466.7653,69,61,0
466.7653,466.90414,66,52,0
466.90414,467.0509,64,55,0
467.0509,467.2135,62,52,0
467.2135,467.51236,64,62,0
467.51236,467.65988,66,59,0
467.65988,467.80515,64,44,0
467.80515,467.95044,66,57,0
467.95044,468.0957,64,44,0
468.0957,468.241,66,57,0
468.241,468.38626,64,44,0
468.38626,468.53088,64,57,0
468.53088,468.67548,66,52,0
468.67548,468.8181,67,52,0
468.8181,468.96075,73,60,0
468.96075,469.10147,71,61,0
469.10147,469.2422,69,49,0
469.2422,469.3902,67,55,0
469.3902,469.55276,64,49,0
469.55276,469.85596,66,58,0
469.85596,470.00122,65,51,0
470.00122,470.1465,66,39,0
470.1465,470.29178,65,51,0
470.29178,470.43707,66,40,0
470.43707,470.58234,69,51,0
470.58234,470.72763,73,56,0
470.72763,470.87222,74,63,0
470.87222,471.01108,76,59,0
471.01108,471.14993,78,64,0
471.14993,471.2888,83,69,0
471.2888,471.42764,81,65,0
471.42764,471.5665,78,56,0
471.5665,471.7091,76,60,0
471.7091,471.85922,74,56,0
471.85922,471.99808,73,67,0
471.99808,472.13693,71,55,0
472.13693,472.2758,69,58,0
472.2758,472.41464,78,67,0
472.41464,472.55347,76,61,0
472.55347,472.69232,73,55,0
472.69232,472.83423,71,60,0
472.83423,472.98224,69,52,0
472.98224,473.1236,68,67,0
473.1236,473.26495,66,52,0
473.26495,473.4002,64,62,0
473.4002,473.54892,68,52,0
473.54892,473.68478,76,64,0
473.68478,473.82062,74,55,0
473.82062,473.9654,73,59,0
473.9654,474.12796,71,52,0
474.12796,474.41852,69,61,0
474.41852,474.5638,71,61,0
474.5638,474.70908,69,53,0
474.70908,474.85922,73,51,0
474.70908,474.85922,76,60,0
475.00934,475.1595,73,47,0
475.00934,475.1595,76,56,0
475.30963,475.45355,76,54,0
475.30963,475.45355,73,38,0
475.30963,475.45355,69,38,0
475.5975,475.73758,73,43,0
475.5975,475.73758,69,43,0
475.5975,475.73758,76,51,0
475.87766,476.0192,76,58,0
475.87766,476.0192,73,49,0
476.16074,476.3093,76,56,0
476.16074,476.3093,73,47,0
476.47186,476.6158,78,58,0
476.47186,476.6158,74,49,0
476.47186,476.6158,71,49,0
476.75974,476.9037,74,45,0
476.75974,476.9037,71,45,0
476.75974,476.9037,78,53,0
477.04764,477.19424,76,56,0
477.04764,477.19424,71,47,0
477.04764,477.19424,74,47,0
477.34088,477.48752,71,45,0
477.34088,477.48752,76,53,0
477.34088,477.48752,74,45,0
477.646,477.78607,76,57,0
477.646,477.78607,68,48,0
477.646,477.78607,71,48,0
477.92615,478.06622,76,49,0
477.92615,478.06622,68,41,0
477.92615,478.06622,71,41,0
478.20633,478.34787,71,46,0
478.20633,478.34787,76,55,0
478.20633,478.34787,74,46,0
478.48938,478.63794,71,42,0
478.48938,478.63794,74,42,0
478.48938,478.63794,76,50,0
478.80054,478.9425,69,49,0
478.80054,478.9425,73,49,0
478.80054,478.9425,78,58,0
479.0845,479.2265,78,53,0
479.0845,479.2265,69,45,0
479.0845,479.2265,73,45,0
479.3685,479.51376,73,45,0
479.3685,479.51376,76,53,0
479.3685,479.51376,69,45,0
479.65906,479.80432,76,50,0
479.65906,479.80432,73,42,0
479.65906,479.80432,69,42,0
479.9597,480.10037,69,45,0
479.9597,480.10037,73,45,0
479.9597,480.10037,81,54,0
479.9597,480.10037,76,45,0
480.2411,480.3818,76,41,0
480.2411,480.3818,69,41,0
480.2411,480.3818,73,41,0
480.2411,480.3818,81,49,0
480.52252,480.66452,73,48,0
480.52252,480.66452,81,57,0
480.52252,480.66452,69,48,0
480.52252,480.66452,76,48,0
480.80652,480.9512,76,46,0
480.80652,480.9512,69,46,0
480.80652,480.9512,73,46,0
480.80652,480.9512,81,55,0
481.10135,481.2427,69,45,0
481.10135,481.2427,81,63,0
481.10135,481.2427,74,45,0
481.38406,481.5254,69,51,0
481.38406,481.5254,81,61,0
481.38406,481.5254,74,51,0
481.66675,481.81204,83,62,0
481.66675,481.81204,74,52,0
481.66675,481.81204,71,52,0
481.9573,482.1035,71,46,0
481.9573,482.1035,83,55,0
481.9573,482.1035,74,46,0
482.2581,482.40268,73,56,0
482.2581,482.40268,76,67,0
482.54727,482.6919,73,51,0
482.54727,482.6919,76,61,0
482.8365,482.9811,74,51,0
482.8365,482.9811,76,51,0
482.8365,482.9811,68,51,0
482.8365,482.9811,80,60,0
483.1257,483.2763,76,44,0
483.1257,483.2763,68,44,0
483.1257,483.2763,80,52,0
483.1257,483.2763,74,44,0
483.4389,484.0313,69,50,0
483.4389,484.65207,73,50,0
483.4389,484.65207,81,59,0
483.4389,484.65207,76,50,0
487.27747,487.41415,83,65,0
487.41415,487.55035,81,53,0
487.55035,487.6863,86,57,0
487.6863,487.82187,81,56,0
487.82187,487.95682,80,62,0
487.95682,488.0946,83,55,0
488.0946,488.23535,81,53,0
488.23535,488.37958,78,52,0
488.37958,488.67014,74,49,0
488.67014,488.81543,76,49,0
488.81543,488.9607,74,35,0
488.9607,489.10077,76,49,0
489.10077,489.24606,74,33,0
489.24606,489.3874,78,48,0
489.3874,489.532,76,41,0
489.532,489.6721,74,51,0
489.6721,489.81216,73,44,0
489.81216,489.95227,71,46,0
489.95227,490.09235,69,45,0
490.09235,490.23694,71,49,0
490.23694,490.38156,73,45,0
490.38156,490.5229,74,47,0
490.5229,490.67163,76,49,0
490.67163,490.95178,69,54,0
490.95178,491.09186,71,54,0
491.09186,491.23196,69,39,0
491.23196,491.3746,71,54,0
491.3746,491.51724,69,45,0
491.51724,491.6592,78,60,0
491.6592,491.80585,74,48,0
491.80585,491.94656,73,53,0
491.94656,492.08728,74,50,0
492.08728,492.228,76,53,0
492.228,492.3687,78,51,0
492.3687,492.512,79,59,0
492.512,492.65527,81,53,0
492.65527,492.79855,83,64,0
492.79855,492.9361,81,57,0
492.94727,493.22617,81,63,0
493.22617,493.36563,83,56,0
493.36563,493.5051,81,48,0
493.5051,493.64645,83,55,0
493.64645,493.78778,81,46,0
493.78778,493.92914,86,60,0
493.92914,494.0822,85,52,0
494.0822,494.11853,83,48,0
494.11853,494.15485,85,47,0
494.15485,494.2275,83,61,0
494.2275,494.36884,82,56,0
494.36884,494.5102,83,61,0
494.5102,494.65155,85,56,0
494.65155,494.79614,83,61,0
494.79614,494.94077,91,67,0
494.94077,495.0821,86,61,0
495.0821,495.22943,83,57,0
495.22943,495.50958,81,70,0
495.50958,495.64966,83,66,0
495.64966,495.78976,81,54,0
495.78976,495.9357,83,67,0
495.9357,496.08167,81,53,0
496.08167,496.23254,83,68,0
496.23254,496.39972,81,63,0
496.39972,496.54044,82,58,0
496.54044,496.68115,81,42,0
496.68115,496.82187,86,53,0
496.82187,496.96255,81,43,0
496.96255,497.10583,80,51,0
497.10583,497.2491,82,43,0
497.2491,497.3924,81,50,0
497.3924,497.54114,77,43,0
497.54114,497.82004,74,41,0
497.82004,497.9595,76,41,0
497.9595,498.09897,74,33,0
498.09897,498.2403,76,42,0
498.2403,498.38165,74,31,0
498.38165,498.523,76,45,0
498.523,498.67102,74,34,0
498.67102,498.8111,79,43,0
498.8111,498.95117,77,38,0
498.95117,499.09128,76,44,0
499.09128,499.23135,77,41,0
499.23135,499.37595,79,51,0
499.37595,499.52057,81,54,0
499.52057,499.66516,82,58,0
499.66516,499.81268,84,61,0
499.8261,500.12637,86,66,0
500.12637,500.27438,85,62,0
500.27438,500.4224,86,50,0
500.4224,500.56702,85,62,0
500.56702,500.7116,86,48,0
500.7116,500.85623,88,62,0
500.85623,501.00082,86,53,0
501.00082,501.1441,88,62,0
501.1441,501.29007,86,60,0
501.29007,501.4295,89,67,0
501.4295,501.56897,88,60,0
501.56897,501.70905,86,69,0
501.70905,501.84915,88,66,0
501.84915,501.98923,89,68,0
501.98923,502.13794,92,71,0
502.13794,502.549,93,74,0
502.549,502.68604,90,61,0
502.68604,502.83066,93,69,0
502.83066,502.97525,90,54,0
502.97525,503.11987,93,64,0
503.11987,503.26447,90,56,0
503.26447,503.40332,88,62,0
503.40332,503.54218,90,57,0
503.54218,503.68878,91,62,0
503.68878,503.82703,95,69,0
503.82703,503.9671,93,65,0
503.9671,504.10718,91,56,0
504.10718,504.24728,90,65,0
504.24728,504.3967,88,57,0
504.3967,504.80777,93,74,0
504.80777,504.9448,90,61,0
504.9448,505.08942,93,69,0
505.08942,505.234,90,54,0
505.234,505.37863,86,64,0
505.37863,505.52322,85,56,0
505.52322,505.66208,83,62,0
505.66208,505.80093,86,56,0
505.80093,505.94754,91,60,0
505.94754,506.0858,90,65,0
506.0858,506.22586,88,60,0
506.22586,506.36597,86,50,0
506.36597,506.50604,85,57,0
506.50604,506.65546,83,49,0
506.65546,507.06653,81,55,0
507.06653,507.20355,78,45,0
507.20355,507.34818,81,51,0
507.34818,507.49277,78,40,0
507.49277,507.6374,81,48,0
507.6374,507.78198,78,42,0
507.78198,507.92084,76,46,0
507.92084,508.0597,78,42,0
508.0597,508.20633,79,46,0
508.20633,508.34454,83,51,0
508.34454,508.48465,81,48,0
508.48465,508.62473,79,42,0
508.62473,508.7648,78,48,0
508.7648,508.91425,76,42,0
508.91425,509.32532,81,55,0
509.32532,509.46234,78,45,0
509.46234,509.60693,81,51,0
509.60693,509.75153,78,40,0
509.75153,509.89615,74,48,0
509.89615,510.04074,73,42,0
510.04074,510.1796,71,46,0
510.1796,510.31845,74,42,0
510.31845,510.4651,79,46,0
510.4651,510.6033,78,51,0
510.6033,510.7434,76,48,0
510.7434,510.88348,74,42,0
510.88348,511.02356,73,48,0
511.02356,511.173,71,42,0
511.173,511.58408,69,55,0
511.58408,511.7211,90,49,0
511.7211,511.8657,93,56,0
511.8657,512.0103,90,44,0
512.0103,512.1549,93,52,0
512.1549,512.2995,90,46,0
512.2995,512.43835,88,50,0
512.43835,512.5772,90,46,0
512.5772,512.7238,91,50,0
512.7238,512.86206,95,56,0
512.86206,513.00214,93,52,0
513.00214,513.1423,91,46,0
513.1423,513.28235,90,52,0
513.28235,513.43176,88,46,0
513.43176,513.84283,93,60,0
513.84283,513.97986,90,49,0
513.97986,514.12445,93,56,0
514.12445,514.26904,90,44,0
514.26904,514.4137,86,52,0
514.4137,514.5583,85,46,0
514.5583,514.69714,83,50,0
514.69714,514.836,86,46,0
514.836,514.9826,91,50,0
514.9826,515.12085,90,55,0
515.12085,515.2609,88,51,0
515.2609,515.401,86,45,0
515.401,515.5411,85,50,0
515.5411,515.69055,83,45,0
515.69055,516.1016,81,53,0
516.1016,516.23865,78,43,0
516.23865,516.38324,81,48,0
516.38324,516.52783,78,38,0
516.52783,516.6724,81,45,0
516.6724,516.817,78,39,0
516.817,516.9559,76,43,0
516.9559,517.0947,78,39,0
517.0947,517.2414,79,43,0
517.2414,517.3796,83,47,0
517.3796,517.5197,81,44,0
517.5197,517.6598,79,39,0
517.6598,517.79987,78,44,0
517.79987,517.9493,76,38,0
517.9493,518.36035,81,50,0
518.36035,518.4974,78,40,0
518.4974,518.64197,81,45,0
518.64197,518.7866,78,36,0
518.7866,518.9312,81,42,0
518.9312,519.0758,78,37,0
519.0758,519.21466,76,40,0
519.21466,519.3535,78,36,0
519.3535,519.5001,79,40,0
519.5001,519.63837,83,44,0
519.63837,519.77844,81,41,0
519.77844,519.9185,79,36,0
519.9185,520.0586,78,41,0
520.0586,520.20807,76,36,0
520.20807,520.5172,74,44,0
520.5172,520.6587,76,44,0
520.6587,520.80023,74,36,0
520.80023,520.9404,76,41,0
520.9404,521.0839,74,36,0
521.0839,521.21906,73,43,0
521.21906,521.35925,71,39,0
521.35925,521.6563,69,44,0
521.6563,521.7939,71,44,0
521.7939,521.9315,69,36,0
521.9315,522.06976,71,44,0
522.06976,522.208,69,40,0
522.208,522.3502,78,47,0
522.3502,522.5002,76,39,0
522.5002,522.7958,74,44,0
522.7958,522.93726,76,43,0
522.93726,523.0788,74,36,0
523.0788,523.219,76,40,0
523.219,523.3625,74,36,0
523.3625,523.4977,73,43,0
523.4977,523.6378,71,39,0
523.6378,523.93634,69,44,0
523.93634,524.0772,71,44,0
524.0772,524.218,69,36,0
524.218,524.3582,71,44,0
524.3582,524.4984,69,40,0
524.4984,524.64056,78,42,0
524.64056,524.7906,76,40,0
524.7906,524.93835,74,44,0
524.93835,525.0862,86,36,0
525.0862,525.2297,88,44,0
525.2297,525.3732,86,36,0
525.3732,525.5182,88,44,0
525.5182,525.6617,86,36,0
525.6617,525.8013,85,43,0
525.8013,525.9414,83,39,0
525.9414,526.24445,81,44,0
526.24445,526.3873,83,44,0
526.3873,526.53015,81,36,0
526.53015,526.6751,83,44,0
526.6751,526.82,81,40,0
526.82,526.96783,90,42,0
526.96783,527.1178,88,40,0
527.1178,527.4163,86,44,0
527.4163,527.56055,88,44,0
527.56055,527.7048,86,36,0
527.7048,527.8533,88,44,0
527.8533,527.9968,86,36,0
527.9968,528.1377,85,43,0
528.1377,528.284,83,39,0
528.284,528.5949,81,44,0
528.5949,528.7413,83,44,0
528.7413,528.8876,81,36,0
528.8876,529.03687,83,44,0
529.03687,529.1861,81,40,0
529.1861,529.3546,90,42,0
529.3546,529.5213,88,40,0
529.5213,529.829,86,44,0
529.829,529.98285,90,44,0
529.98285,530.13666,86,36,0
530.13666,530.2905,90,44,0
530.2905,530.4444,86,36,0
530.4444,530.5982,90,43,0
530.5982,530.7521,86,39,0
530.7521,531.0695,90,44,0
531.0695,531.2242,93,44,0
531.2242,531.3788,90,36,0
531.3788,531.53345,93,44,0
531.53345,531.6881,90,40,0
531.6881,531.8427,93,42,0
531.8427,531.9974,90,39,0
531.9974,532.3217,93,44,0
532.3217,532.47797,98,49,0
532.47797,532.6342,93,36,0
532.6342,532.79047,98,49,0
532.79047,532.9467,93,36,0
532.9467,533.10297,98,43,0
533.10297,533.2592,93,39,0
533.2592,533.41547,98,47,0
533.41547,533.5717,93,39,0
533.5717,533.72797,98,44,0
533.72797,533.8842,93,36,0
533.8842,534.04047,98,44,0
534.04047,534.1967,93,40,0
534.1967,534.3554,90,42,0
534.3554,534.5288,93,37,0
534.5288,534.8413,90,39,0
534.5288,534.8413,98,47,0
535.1538,535.316,98,44,0
535.316,535.47815,93,36,0
535.47815,535.6403,90,43,0
535.6403,535.829,93,39,0
535.829,536.1799,98,44,0
535.829,536.1799,90,34,0
536.53076,536.7171,98,44,0
536.7171,536.90344,93,40,0
536.90344,537.0898,90,44,0
537.0898,537.3279,93,39,0
537.3279,537.6747,90,38,0
537.3279,537.6747,98,45,0
538.71515,539.24146,81,38,0
539.24146,539.4169,83,34,0
539.4169,540.0101,81,38,0
540.0101,540.2396,78,34,0
540.2396,540.8703,74,38,0
541.92145,542.5521,74,32,0
541.92145,542.5521,66,27,0
541.92145,542.5521,62,27,0
543.7733,546.1102,74,32,0
543.7733,546.1102,66,27,0
543.7733,546.1102,62,27,0
0.0,0.19999987,66,40,0
0.0,0.19999987,62,34,0
0.533333,0.73975515,57,27,0
0.533333,0.73975515,66,32,0
1.083792,1.2846848,66,40,0
1.083792,1.2846848,62,34,0
1.619506,1.8288085,57,28,0
1.619506,1.8288085,66,34,0
2.177646,2.376761,66,40,0
2.177646,2.376761,62,34,0
2.708619,2.9169526,57,28,0
2.708619,2.9169526,66,34,0
3.264175,3.5308416,62,34,0
3.264175,3.5308416,66,40,0
3.797508,4.075286,57,31,0
3.797508,4.075286,66,37,0
4.353064,4.6197305,66,40,0
4.353064,4.6197305,62,34,0
4.886397,5.1628947,66,35,0
4.886397,5.1628947,57,29,0
5.439392,5.707249,67,40,0
5.439392,5.707249,64,34,0
5.975106,6.2516036,57,29,0
5.975106,6.2516036,67,35,0
6.528101,6.795958,66,40,0
6.528101,6.795958,62,34,0
7.063815,7.342885,57,28,0
7.063815,7.342885,66,34,0
7.621955,7.8910136,61,34,0
7.621955,7.8910136,67,40,0
8.160072,8.434045,67,36,0
8.160072,8.434045,57,30,0
8.713211,8.979877,66,40,0
8.713211,8.979877,62,34,0
9.246544,9.523042,66,35,0
9.246544,9.523042,57,29,0
9.799539,10.067396,55,34,0
9.799539,10.067396,62,34,0
9.799539,10.067396,67,40,0
10.335253,10.611751,62,29,0
10.335253,10.611751,59,29,0
10.335253,10.611751,67,35,0
10.8882475,11.156105,66,40,0
10.8882475,11.156105,62,34,0
11.423962,11.703032,57,28,0
11.423962,11.703032,66,34,0
11.982101,12.251161,62,34,0
11.982101,12.251161,66,40,0
12.520219,12.794191,66,36,0
12.520219,12.794191,57,30,0
13.073358,13.340024,62,34,0
13.073358,13.340024,66,40,0
13.60669,13.883188,66,35,0
13.60669,13.883188,57,29,0
14.159685,14.427543,67,40,0
14.159685,14.427543,64,34,0
14.695399,14.971897,57,29,0
14.695399,14.971897,67,35,0
15.263992,15.551073,58,34,0
15.263992,15.551073,66,40,0
15.838155,16.117226,61,34,0
15.838155,16.117226,58,28,0
16.396296,16.658304,62,40,0
16.396296,16.658304,59,34,0
16.920313,17.18817,67,36,0
16.920313,17.18817,55,30,0
16.920313,17.18817,62,30,0
17.464277,17.726286,62,34,0
17.464277,17.726286,66,40,0
17.988295,18.264791,66,35,0
17.988295,18.264791,57,29,0
18.54129,18.806776,61,34,0
18.54129,18.806776,67,40,0
19.072262,19.34012,57,29,0
19.072262,19.34012,67,35,0
19.616905,20.689734,62,34,0
19.616905,20.70136,66,40,0
20.70136,20.873035,50,58,0
20.873035,21.044708,54,52,0
21.044708,21.216383,59,52,0
21.216383,21.388056,57,58,0
21.388056,21.55973,54,52,0
21.55973,21.766983,50,52,0
21.766983,22.06255,55,58,0
21.766983,22.06255,49,49,0
22.358116,22.653683,55,56,0
22.358116,22.653683,45,47,0
22.94925,23.20676,55,56,0
22.94925,23.20676,49,47,0
23.46427,23.72178,55,56,0
23.46427,23.72178,45,47,0
24.014872,24.304728,54,58,0
24.014872,24.304728,50,49,0
24.594582,24.884438,54,56,0
24.594582,24.884438,45,47,0
25.174292,25.431803,50,47,0
25.174292,25.431803,54,56,0
25.689312,25.946823,54,47,0
25.689312,25.946823,57,56,0
26.224049,26.481558,61,56,0
26.224049,26.481558,52,47,0
26.739069,26.99658,57,47,0
26.739069,26.99658,61,56,0
27.271095,27.528606,62,56,0
27.271095,27.528606,59,47,0
27.786116,28.043627,52,47,0
27.786116,28.043627,62,56,0
28.336718,29.476013,57,56,0
28.336718,29.4796,61,63,0
29.4796,29.651274,57,68,0
29.651274,29.822948,61,58,0
29.822948,29.994621,66,58,0
29.994621,30.166296,64,68,0
30.166296,30.337969,61,58,0
30.337969,30.545223,57,58,0
30.545223,31.136356,57,72,0
31.136356,31.431923,56,64,0
31.72749,31.899162,59,68,0
31.899162,32.070835,62,58,0
32.070835,32.24251,66,58,0
32.24251,32.414185,64,68,0
32.414185,32.585857,62,58,0
32.585857,32.79311,59,58,0
32.79311,33.367275,61,72,0
33.367275,33.659958,57,64,0
33.95264,34.124313,55,63,0
34.124313,34.295986,61,54,0
34.295986,34.467663,66,54,0
34.467663,34.639336,64,61,0
34.639336,34.81101,61,59,0
34.81101,35.002396,55,62,0
35.002396,35.17407,54,67,0
35.17407,35.345745,57,58,0
35.345745,35.517418,62,58,0
35.517418,35.68909,53,65,0
35.68909,35.860764,57,52,0
35.860764,36.049446,62,52,0
36.049446,36.22112,52,63,0
36.22112,36.39279,57,52,0
36.39279,36.564465,61,52,0
36.564465,36.736137,64,60,0
36.736137,36.907814,62,52,0
36.907814,37.115067,59,52,0
37.115067,37.681416,57,62,0
37.68379,38.27492,57,45,0
37.68379,38.27492,61,45,0
37.68379,38.27492,69,54,0
38.27492,38.906498,62,41,0
38.27492,38.906498,68,49,0
38.27492,38.906498,59,41,0
38.906498,39.588318,61,39,0
38.906498,39.588318,67,47,0
38.906498,39.588318,64,39,0
39.588318,39.78743,62,34,0
39.588318,39.78743,66,40,0
40.11929,40.32762,57,28,0
40.11929,40.32762,66,34,0
40.674847,40.941513,62,34,0
40.674847,40.941513,66,40,0
41.20818,41.48596,57,31,0
41.20818,41.48596,66,37,0
41.763733,42.0304,66,40,0
41.763733,42.0304,62,34,0
42.297066,42.573566,66,35,0
42.297066,42.573566,57,29,0
42.850063,43.11792,64,34,0
42.850063,43.11792,67,40,0
43.385777,43.662273,67,35,0
43.385777,43.662273,57,29,0
43.93877,44.206627,66,40,0
43.93877,44.206627,62,34,0
44.474487,44.753555,66,34,0
44.474487,44.753555,57,28,0
45.032627,45.301685,67,40,0
45.032627,45.301685,61,34,0
45.570744,45.844715,67,36,0
45.570744,45.844715,57,30,0
46.133217,46.399883,62,34,0
46.133217,46.399883,66,40,0
46.66655,46.943047,66,35,0
46.66655,46.943047,57,29,0
47.219543,47.4874,62,34,0
47.219543,47.4874,55,34,0
47.219543,47.4874,67,40,0
47.75526,48.031757,59,29,0
47.75526,48.031757,62,29,0
47.75526,48.031757,67,35,0
48.308254,48.57611,66,40,0
48.308254,48.57611,62,34,0
48.843967,49.12304,66,34,0
48.843967,49.12304,57,28,0
49.402107,49.671165,62,30,0
49.402107,49.671165,65,36,0
49.940224,50.214195,57,27,0
49.940224,50.214195,65,32,0
50.493362,50.76003,65,36,0
50.493362,50.76003,62,30,0
51.026695,51.303192,57,26,0
51.026695,51.303192,65,31,0
51.579693,51.84755,63,40,0
51.579693,51.84755,60,34,0
51.579693,51.84755,65,40,0
52.115406,52.391903,65,35,0
52.115406,52.391903,53,29,0
52.115406,52.391903,63,29,0
52.115406,52.391903,60,29,0
52.684,52.97108,58,34,0
52.684,52.97108,62,34,0
52.684,52.97108,65,40,0
53.25816,53.53723,65,34,0
53.25816,53.53723,62,28,0
53.8163,54.07831,65,47,0
53.8163,54.07831,62,39,0
53.8163,54.07831,58,39,0
54.340317,54.608173,68,47,0
54.340317,54.608173,58,39,0
54.340317,54.608173,62,39,0
54.884285,55.146294,66,43,0
54.884285,55.146294,69,51,0
54.884285,55.146294,62,43,0
55.4083,55.6848,57,34,0
55.4083,55.6848,66,34,0
55.4083,55.6848,69,41,0
55.961296,56.22678,69,48,0
55.961296,56.22678,67,40,0
55.961296,56.22678,61,40,0
56.492268,56.760124,57,36,0
56.492268,56.760124,69,43,0
56.492268,56.760124,67,36,0
57.03691,57.315983,66,45,0
57.03691,57.315983,69,53,0
57.59505,57.874123,66,35,0
57.59505,57.874123,69,41,0
57.59505,57.874123,62,35,0
58.15319,58.4152,59,43,0
58.15319,58.4152,62,43,0
58.15319,58.4152,67,51,0
58.677208,58.945065,67,44,0
58.677208,58.945065,62,37,0
58.677208,58.945065,55,37,0
59.221172,59.48318,66,51,0
59.221172,59.48318,62,43,0
59.74519,60.021687,57,38,0
59.74519,60.021687,66,45,0
60.298187,60.56367,61,45,0
60.298187,60.56367,67,53,0
60.82916,61.097015,67,46,0
60.82916,61.097015,57,39,0
61.373802,62.41547,62,50,0
61.373802,62.426434,66,59,0
62.426434,62.598106,50,58,0
62.598106,62.76978,54,52,0
62.76978,62.941456,59,52,0
62.941456,63.11313,57,58,0
63.11313,63.2848,54,52,0
63.2848,63.492054,50,52,0
63.492054,63.78762,55,58,0
63.492054,63.78762,49,49,0
64.08319,64.37875,55,56,0
64.08319,64.37875,45,47,0
64.674324,64.93183,55,56,0
64.674324,64.93183,49,47,0
65.18935,65.44685,55,56,0
65.18935,65.44685,45,47,0
65.739944,66.0298,54,58,0
65.739944,66.0298,50,49,0
66.31966,66.60951,45,47,0
66.31966,66.60951,54,56,0
66.89936,67.156876,50,47,0
66.89936,67.156876,54,56,0
67.41438,67.66787,54,47,0
67.41438,67.66787,57,56,0
67.943756,68.20126,61,56,0
67.943756,68.20126,52,47,0
68.45877,68.716286,57,47,0
68.45877,68.716286,61,56,0
68.9908,69.248314,59,47,0
68.9908,69.248314,62,56,0
69.50582,69.759735,62,56,0
69.50582,69.759735,52,47,0
70.05042,71.19092,57,56,0
70.05042,71.193306,61,63,0
71.193306,71.36498,57,68,0
71.36498,71.53666,61,58,0
71.53666,71.70833,66,58,0
71.70833,71.87732,64,68,0
71.87732,72.04631,61,58,0
72.04631,72.25098,57,58,0
72.25356,72.844696,57,72,0
72.844696,73.14027,56,64,0
73.43583,73.607506,59,68,0
73.607506,73.779175,62,58,0
73.779175,73.95085,66,58,0
73.95085,74.12132,64,68,0
74.12132,74.2882,62,58,0
74.2882,74.501564,59,58,0
74.501564,75.07573,61,72,0
75.07573,75.36841,57,64,0
75.661095,75.83277,55,63,0
75.83277,76.00444,61,54,0
76.00444,76.17612,66,54,0
76.17612,76.347786,64,61,0
76.347786,76.51946,61,59,0
76.51946,76.71085,55,62,0
76.71085,76.880554,54,67,0
76.880554,77.05026,57,58,0
77.05026,77.21997,62,58,0
77.21997,77.3904,53,65,0
77.3904,77.56083,57,52,0
77.56083,77.74951,62,52,0
77.74951,77.92119,52,63,0
77.92119,78.09286,57,52,0
78.09286,78.264534,61,52,0
78.264534,78.4362,64,60,0
78.4362,78.60788,62,52,0
78.60788,78.81513,59,52,0
78.81513,79.381485,57,62,0
79.38386,79.98176,57,45,0
79.38386,79.98176,69,54,0
79.38386,79.98176,61,45,0
79.98176,80.62108,59,41,0
79.98176,80.62108,68,49,0
79.98176,80.62108,62,41,0
80.62108,81.31997,67,47,0
80.62108,81.31997,64,39,0
80.62108,81.31997,61,39,0
81.31997,81.51909,66,40,0
81.31997,81.51909,62,34,0
81.850945,82.05928,57,28,0
81.850945,82.05928,66,34,0
82.4065,82.673164,66,40,0
82.4065,82.673164,62,34,0
82.939835,83.21761,57,31,0
82.939835,83.21761,66,37,0
83.49539,83.762054,62,34,0
83.49539,83.762054,66,40,0
84.028725,84.30522,66,35,0
84.028725,84.30522,57,29,0
84.58172,84.84958,67,40,0
84.58172,84.84958,64,34,0
85.11743,85.39393,67,35,0
85.11743,85.39393,57,29,0
85.670425,85.938286,66,40,0
85.670425,85.938286,62,34,0
86.20614,86.485214,66,34,0
86.20614,86.485214,57,28,0
86.76428,87.03334,67,40,0
86.76428,87.03334,61,34,0
87.3024,87.57637,57,30,0
87.3024,87.57637,67,36,0
87.864876,88.13154,66,40,0
87.864876,88.13154,62,34,0
88.39821,88.674706,66,35,0
88.39821,88.674706,57,29,0
88.9512,89.219055,55,34,0
88.9512,89.219055,62,34,0
88.9512,89.219055,67,40,0
89.486916,89.76341,67,35,0
89.486916,89.76341,59,29,0
89.486916,89.76341,62,29,0
90.04074,90.3086,62,34,0
90.04074,90.3086,66,40,0
90.576454,90.85553,57,28,0
90.576454,90.85553,66,34,0
91.1346,91.403656,65,36,0
91.1346,91.403656,62,30,0
91.672714,91.946686,57,27,0
91.672714,91.946686,65,32,0
92.22585,92.492516,65,36,0
92.22585,92.492516,62,30,0
92.759186,93.03568,57,26,0
92.759186,93.03568,65,31,0
93.316315,93.58417,60,34,0
93.316315,93.58417,65,40,0
93.316315,93.58417,63,40,0
93.85203,94.128525,63,29,0
93.85203,94.128525,60,29,0
93.85203,94.128525,65,35,0
93.85203,94.128525,53,29,0
94.42062,94.70404,58,34,0
94.42062,94.70404,62,34,0
94.42062,94.70404,65,40,0
94.98746,95.26653,65,34,0
94.98746,95.26653,62,28,0
95.5456,95.80761,58,39,0
95.5456,95.80761,62,39,0
95.5456,95.80761,65,47,0
96.06962,96.33747,58,39,0
96.06962,96.33747,62,39,0
96.06962,96.33747,68,47,0
96.61359,96.875595,69,51,0
96.61359,96.875595,66,43,0
96.61359,96.875595,62,43,0
97.1376,97.4141,69,41,0
97.1376,97.4141,57,34,0
97.1376,97.4141,66,34,0
97.6906,97.956085,61,40,0
97.6906,97.956085,69,48,0
97.6906,97.956085,67,40,0
98.221565,98.489426,57,36,0
98.221565,98.489426,69,43,0
98.221565,98.489426,67,36,0
98.76621,99.04698,66,45,0
98.76621,99.04698,69,53,0
99.32774,99.603355,69,41,0
99.32774,99.603355,66,35,0
99.32774,99.603355,62,35,0
99.87896,100.14097,67,51,0
99.87896,100.14097,62,43,0
99.87896,100.14097,59,43,0
100.40298,100.67084,55,37,0
100.40298,100.67084,62,37,0
100.40298,100.67084,67,44,0
100.946945,101.208954,66,51,0
100.946945,101.208954,62,43,0
101.47096,101.74746,66,45,0
101.47096,101.74746,57,38,0
102.02396,102.289444,67,53,0
102.02396,102.289444,61,45,0
102.55493,102.822784,67,46,0
102.55493,102.822784,57,39,0
103.09957,104.15001,62,50,0
103.09957,104.15001,66,59,0
104.15221,104.28378,50,45,0
104.28378,104.41491,52,41,0
104.41491,104.54545,54,45,0
104.54545,104.67539,55,42,0
104.67539,104.804756,56,45,0
104.804756,104.93407,57,41,0
104.93407,105.06338,56,43,0
105.06338,105.24856,57,45,0
105.24856,105.82827,55,44,0
105.24856,105.82827,59,52,0
105.82827,106.118126,50,36,0
105.82827,106.118126,57,42,0
106.40798,106.59147,54,51,0
106.59147,106.76388,57,45,0
106.76388,106.936295,55,45,0
106.936295,107.10871,54,54,0
107.10871,107.28112,57,43,0
107.28112,107.48314,62,43,0
107.48314,108.05544,64,57,0
108.05815,108.33465,57,50,0
108.60976,108.74209,67,51,0
108.87442,109.007935,66,45,0
109.14144,109.276764,67,45,0
109.41208,109.5474,69,45,0
109.68272,109.81546,66,51,0
109.948204,110.078636,62,47,0
110.209076,110.34241,64,47,0
110.47574,110.60907,66,47,0
110.73985,110.86798,67,51,0
110.99779,111.12938,64,46,0
111.26277,111.39229,66,46,0
111.524345,111.65866,69,46,0
111.81018,111.95236,66,55,0
111.81018,111.95236,62,55,0
112.09454,112.23672,57,48,0
112.3789,112.52453,54,54,0
112.67016,112.815796,50,51,0
112.961426,113.093,55,58,0
113.093,113.224075,57,52,0
113.224075,113.35456,59,58,0
113.35456,113.48445,60,53,0
113.48445,113.61433,61,63,0
113.61433,113.744194,62,59,0
113.744194,113.87407,61,60,0
113.87407,114.006226,62,58,0
114.006226,114.13609,66,67,0
114.13609,114.26596,64,61,0
114.26596,114.395836,62,59,0
114.395836,114.5257,61,56,0
114.5257,114.65558,64,64,0
114.65558,114.785446,62,60,0
114.785446,114.91531,61,56,0
114.91531,115.0461,59,58,0
115.0461,115.174225,57,65,0
115.174225,115.30403,56,60,0
115.30403,115.43562,54,58,0
115.43562,115.569016,52,57,0
115.569016,115.69853,51,61,0
115.69853,115.83059,52,58,0
115.83059,115.964905,54,56,0
115.964905,116.11534,56,53,0
116.11534,116.24261,57,61,0
117.21821,117.34979,50,45,0
117.34979,117.48092,52,41,0
117.48092,117.61145,54,45,0
117.61145,117.7414,55,42,0
117.7414,117.87076,56,45,0
117.87076,118.00007,57,41,0
118.00007,118.12938,56,43,0
118.12938,118.31457,57,45,0
118.31457,118.89428,55,44,0
118.31457,118.89428,59,52,0
118.89428,119.184135,57,42,0
118.89428,119.184135,50,36,0
119.47398,119.65747,54,51,0
119.65747,119.82989,57,45,0
119.82989,120.002304,55,45,0
120.002304,120.17471,54,54,0
120.17471,120.34713,57,43,0
120.34713,120.54915,62,43,0
120.54915,121.12145,64,57,0
121.12415,121.40065,57,50,0
121.67553,121.80728,67,51,0
121.93903,122.07119,66,45,0
122.20335,122.339714,67,45,0
122.476074,122.61244,69,45,0
122.75807,122.88965,66,51,0
123.02123,123.15054,69,47,0
123.279854,123.409164,66,47,0
123.53847,123.66778,64,47,0
123.79856,123.92669,62,51,0
124.056496,124.18809,59,46,0
124.32148,124.451,61,46,0
124.58305,124.71737,64,46,0
124.86889,125.01107,61,55,0
124.86889,125.01107,57,55,0
125.15325,125.295425,52,48,0
125.43761,125.58324,49,54,0
125.72887,125.874504,45,51,0
126.020134,126.15171,50,58,0
126.15171,126.28278,52,52,0
126.28278,126.41327,54,58,0
126.41327,126.54316,55,53,0
126.54316,126.673035,56,63,0
126.673035,126.8029,57,59,0
126.8029,126.93278,56,60,0
126.93278,127.06493,57,58,0
127.06493,127.1948,61,67,0
127.1948,127.32468,59,61,0
127.32468,127.454544,57,59,0
127.454544,127.58441,56,56,0
127.58441,127.71429,59,64,0
127.71429,127.844154,57,60,0
127.844154,127.97402,56,56,0
127.97402,128.10481,54,58,0
128.10481,128.23293,52,65,0
128.23293,128.36273,54,60,0
128.36273,128.49434,52,58,0
128.49434,128.62772,54,57,0
128.62772,128.75723,52,61,0
128.75723,128.8893,50,58,0
128.8893,129.02362,49,56,0
129.02362,129.17513,47,53,0
129.17513,129.43713,45,61,0
130.22237,130.3555,74,51,0
130.48778,130.61891,71,47,0
130.7489,130.87991,68,47,0
131.01091,131.14192,64,47,0
131.27269,131.40257,73,51,0
131.53244,131.66231,69,47,0
131.79218,131.92433,64,47,0
132.05649,132.18866,61,47,0
132.31966,132.45009,62,51,0
132.45009,132.58052,64,42,0
132.58052,132.71097,62,46,0
132.71097,132.8414,64,42,0
132.8414,132.97015,68,51,0
132.97015,133.0989,71,41,0
133.0989,133.22766,68,45,0
133.22766,133.36528,71,41,0
133.36528,133.49571,61,51,0
133.49571,133.62614,64,42,0
133.62614,133.75658,61,46,0
133.75658,133.88701,64,42,0
133.88701,134.01578,69,51,0
134.01578,134.14453,73,41,0
134.14453,134.27328,69,45,0
134.27328,134.4109,73,41,0
134.4109,134.54077,64,69,0
134.54077,134.67064,66,58,0
134.67064,134.8005,68,64,0
134.8005,134.93037,69,59,0
134.93037,135.06024,70,69,0
135.06024,135.19012,71,56,0
135.19012,135.31999,70,65,0
135.31999,135.45078,71,59,0
135.45078,135.5807,69,69,0
135.5807,135.71057,71,58,0
135.71057,135.84044,73,64,0
135.84044,135.98128,74,59,0
135.98128,136.10948,75,70,0
136.10948,136.23769,76,57,0
136.23769,136.36589,75,62,0
136.36589,136.49663,76,49,0
136.49663,136.62706,62,58,0
136.62706,136.75749,71,42,0
136.75749,136.88792,62,46,0
136.88792,137.01836,71,42,0
137.01836,137.14711,64,51,0
137.14711,137.27588,75,41,0
137.27588,137.40463,64,45,0
137.40463,137.54224,75,41,0
137.54224,137.67268,69,51,0
137.67268,137.80312,73,42,0
137.80312,137.93355,69,46,0
137.93355,138.08507,73,42,0
138.08507,138.21382,57,51,0
138.34258,138.47133,69,45,0
138.60895,138.73886,52,75,0
138.73886,138.86874,54,58,0
138.86874,138.99861,56,64,0
138.99861,139.13945,57,59,0
139.13945,139.26765,58,70,0
139.26765,139.39586,59,61,0
139.39586,139.52406,58,68,0
139.52406,139.6548,59,59,0
139.6548,139.78471,52,75,0
139.78471,139.9146,54,58,0
139.9146,140.04446,56,64,0
140.04446,140.1853,57,59,0
140.1853,140.3135,58,70,0
140.3135,140.44171,59,61,0
140.44171,140.56992,58,68,0
140.56992,140.70065,59,59,0
140.70065,140.83057,40,75,0
140.83057,140.96045,42,58,0
140.96045,141.09032,44,64,0
141.09032,141.23116,45,59,0
141.23116,141.35936,46,70,0
141.35936,141.48756,47,61,0
141.48756,141.61577,46,68,0
141.61577,141.7465,47,59,0
141.7465,141.8775,46,75,0
141.8775,142.0085,47,62,0
142.0085,142.13951,49,66,0
142.13951,142.27051,50,62,0
142.27051,142.40152,51,74,0
142.40152,142.53252,52,63,0
142.53252,142.66353,54,64,0
142.66353,142.79453,56,65,0
142.79453,142.92612,57,60,0
142.92612,143.05724,59,55,0
143.05724,143.18777,60,60,0
143.18777,143.31772,62,56,0
143.31772,143.44708,63,60,0
143.44708,143.57639,64,55,0
143.57639,143.7057,63,58,0
143.7057,143.89088,64,60,0
143.89088,144.4706,65,70,0
143.89088,144.4706,62,59,0
144.4706,144.76045,57,48,0
144.4706,144.76045,64,56,0
145.05031,145.63002,65,70,0
145.05031,145.63002,60,59,0
145.05031,145.63002,53,59,0
145.63002,145.91988,60,56,0
145.63002,145.91988,48,48,0
146.20973,146.34247,45,55,0
146.20973,146.34247,57,65,0
146.47522,146.60915,55,54,0
146.47522,146.60915,43,45,0
146.74307,146.87465,53,59,0
146.74307,146.87465,41,50,0
147.00623,147.1378,52,53,0
147.00623,147.1378,40,45,0
147.26888,147.3988,38,55,0
147.26888,147.3988,50,65,0
147.52867,147.65854,36,45,0
147.52867,147.65854,48,53,0
147.78954,147.92055,38,51,0
147.78954,147.92055,50,61,0
148.05154,148.18256,51,53,0
148.05154,148.18256,39,45,0
148.32748,148.45792,40,69,0
148.32748,148.45792,52,69,0
148.45792,148.58835,44,63,0
148.58835,148.71878,47,63,0
148.71878,148.84921,52,63,0
148.84921,148.97966,56,65,0
148.97966,149.11009,57,61,0
149.11009,149.24052,59,61,0
149.24052,149.38406,60,61,0
149.38406,149.51799,62,81,0
149.38406,149.51799,50,69,0
149.65192,149.7818,49,46,0
149.65192,149.7818,61,55,0
149.91167,150.04153,62,61,0
149.91167,150.04153,50,51,0
150.1714,150.30127,64,57,0
150.1714,150.30127,52,48,0
150.43114,150.56508,60,80,0
150.43114,150.56508,48,67,0
150.699,150.82887,57,56,0
150.699,150.82887,45,47,0
150.95874,151.09032,47,50,0
150.95874,151.09032,59,59,0
151.2219,151.35349,60,57,0
151.2219,151.35349,48,48,0
151.48454,151.61447,50,69,0
151.48454,151.61447,62,81,0
151.74434,151.8742,47,48,0
151.74434,151.8742,59,57,0
152.00522,152.13622,48,51,0
152.00522,152.13622,60,60,0
152.26723,152.39822,52,48,0
152.26723,152.39822,64,57,0
152.52924,152.66376,45,69,0
152.52924,152.66376,57,81,0
152.7983,152.92873,52,55,0
153.05916,153.18959,48,61,0
153.32002,153.45045,45,57,0
153.59608,153.73833,48,63,0
153.7254,153.8677,50,57,0
153.8547,153.99757,52,57,0
153.98459,154.12761,53,57,0
154.11446,154.25919,54,62,0
154.24603,154.39076,55,57,0
154.37761,154.52235,54,61,0
154.50919,154.64076,55,57,0
154.64076,154.78363,53,63,0
154.77065,154.9135,55,57,0
154.90051,155.04337,57,57,0
155.03038,155.1734,58,57,0
155.16025,155.305,59,62,0
155.29182,155.43657,60,57,0
155.4234,155.56815,59,61,0
155.555,155.68657,60,57,0
155.68657,155.8282,62,63,0
155.81532,155.95706,60,57,0
155.94408,156.08693,58,57,0
156.07394,156.21698,57,57,0
156.20381,156.34856,60,62,0
156.33539,156.48013,58,57,0
156.46698,156.61171,57,61,0
156.59856,156.73013,55,57,0
156.73013,156.87238,53,63,0
156.85944,157.00174,55,57,0
156.98875,157.1316,57,57,0
157.11862,157.26166,58,57,0
157.24849,157.39323,60,62,0
157.38007,157.52481,62,57,0
157.51166,157.65639,64,61,0
157.64323,157.77481,65,57,0
157.77481,157.90874,67,81,0
157.77481,157.90874,55,69,0
158.04266,158.17253,54,46,0
158.04266,158.17253,66,55,0
158.30241,158.43228,67,61,0
158.30241,158.43228,55,51,0
158.56215,158.69202,57,48,0
158.56215,158.69202,69,57,0
158.82188,158.95581,53,67,0
158.82188,158.95581,65,80,0
159.08975,159.21962,50,47,0
159.08975,159.21962,62,56,0
159.34949,159.48106,64,59,0
159.34949,159.48106,52,50,0
159.61264,159.74422,65,57,0
159.61264,159.74422,53,48,0
159.87529,160.00522,55,69,0
159.87529,160.00522,67,81,0
160.13509,160.26495,52,48,0
160.13509,160.26495,64,57,0
160.39595,160.52696,65,60,0
160.39595,160.52696,53,51,0
160.65796,160.78897,57,48,0
160.65796,160.78897,69,57,0
160.91997,161.0545,50,69,0
160.91997,161.0545,62,81,0
161.18903,161.31947,57,55,0
161.4499,161.58034,53,61,0
161.71077,161.8412,50,57,0
161.98683,162.12907,53,63,0
162.11615,162.25844,55,57,0
162.24545,162.38832,57,57,0
162.37532,162.51836,58,57,0
162.5052,162.64993,59,62,0
162.63678,162.78151,60,57,0
162.76836,162.91309,59,61,0
162.89993,163.03151,60,57,0
163.03151,163.17438,58,63,0
163.16138,163.30424,60,57,0
163.29126,163.43411,62,57,0
163.42113,163.56415,63,57,0
163.551,163.69572,64,62,0
163.68257,163.82732,65,57,0
163.81415,163.9589,64,61,0
163.94572,164.07732,65,57,0
164.07732,164.21895,67,63,0
164.20607,164.34781,65,57,0
164.33482,164.47768,63,57,0
164.46469,164.60771,62,57,0
164.59456,164.7393,65,62,0
164.72614,164.87088,63,57,0
164.85771,165.00246,62,61,0
164.9893,165.12088,60,57,0
165.12088,165.26373,65,63,0
165.25075,165.3936,63,57,0
165.38062,165.52347,62,57,0
165.51048,165.65352,60,57,0
165.64037,165.7851,63,62,0
165.77194,165.91667,62,57,0
165.90352,166.04825,60,61,0
166.0351,166.16667,62,57,0
166.16667,166.3083,63,63,0
166.29543,166.43716,62,57,0
166.42418,166.56705,60,57,0
166.55406,166.69708,58,57,0
166.68393,166.82866,62,62,0
166.8155,166.96024,60,57,0
166.94708,167.09183,58,61,0
167.07866,167.21024,60,57,0
167.21024,167.33899,46,67,0
167.21024,167.33899,58,80,0
167.46776,167.59763,55,56,0
167.46776,167.59763,43,47,0
167.7275,167.85907,45,50,0
167.7275,167.85907,57,59,0
167.99065,168.12222,48,48,0
167.99065,168.12222,60,57,0
168.2533,168.38322,57,81,0
168.2533,168.38322,45,69,0
168.51309,168.64296,42,48,0
168.51309,168.64296,54,57,0
168.77396,168.90497,55,60,0
168.77396,168.90497,43,51,0
169.03596,169.16698,46,48,0
169.03596,169.16698,58,57,0
169.29797,169.42673,55,80,0
169.29797,169.42673,43,67,0
169.5555,169.68536,58,56,0
169.5555,169.68536,46,47,0
169.81523,169.94681,41,57,0
169.81523,169.94681,53,67,0
170.07838,170.20996,45,48,0
170.07838,170.20996,57,57,0
170.34103,170.47096,40,69,0
170.34103,170.47096,52,81,0
170.60083,170.7307,55,57,0
170.60083,170.7307,43,48,0
170.8617,170.9927,50,69,0
170.8617,170.9927,38,58,0
171.1237,171.25471,53,57,0
171.1237,171.25471,41,48,0
171.38571,171.51447,50,80,0
171.38571,171.51447,38,67,0
171.64323,171.7731,41,47,0
171.64323,171.7731,53,56,0
171.90297,172.03455,47,67,0
171.90297,172.03455,35,57,0
172.16612,172.2977,50,57,0
172.16612,172.2977,38,48,0
172.42877,172.5587,44,81,0
172.42877,172.5587,32,69,0
172.68857,172.81844,47,57,0
172.68857,172.81844,35,48,0
172.94943,173.08044,40,69,0
173.21144,173.34245,44,57,0
173.47345,173.6022,40,80,0
173.73097,173.86084,44,56,0
173.9907,174.12228,40,67,0
174.25386,174.38544,44,57,0
174.51651,174.64644,40,81,0
174.7763,174.90617,44,57,0
175.03717,175.16818,40,69,0
175.29918,175.43019,44,57,0
175.56119,175.6922,40,60,0
175.6922,175.8232,42,52,0
175.8232,175.95421,44,52,0
175.95421,176.0852,45,52,0
176.0852,176.21796,46,60,0
176.21796,176.3507,47,51,0
176.3507,176.48344,46,58,0
176.48344,176.62698,47,51,0
176.62698,176.7615,40,60,0
176.7615,176.89604,42,52,0
176.89604,177.03429,44,52,0
177.03429,177.17253,45,52,0
177.17253,177.31207,46,60,0
177.31207,177.45161,47,51,0
177.45161,177.59584,46,58,0
177.59584,177.74007,47,51,0
177.74007,177.87222,40,51,0
177.87222,178.00438,42,44,0
178.00438,178.13655,44,44,0
178.13655,178.2687,45,44,0
178.2687,178.40263,46,51,0
178.40263,178.53656,47,43,0
178.53656,178.67049,46,49,0
178.67049,178.82513,47,43,0
178.82513,178.96799,40,51,0
178.96799,179.11084,42,44,0
179.11084,179.2537,44,44,0
179.2537,179.39656,45,44,0
179.39656,179.54655,46,51,0
179.54655,179.69656,47,43,0
179.69656,179.84656,46,49,0
179.84656,179.99606,47,43,0
179.99606,180.1361,46,52,0
180.1361,180.27524,47,43,0
180.27524,180.41339,49,46,0
180.41339,180.55067,50,43,0
180.55067,180.68712,51,51,0
180.68712,180.82349,52,44,0
180.82349,180.95984,54,44,0
180.95984,181.09624,56,45,0
181.09624,181.23323,57,42,0
181.23323,181.36964,59,38,0
181.36964,181.50551,61,42,0
181.50551,181.64082,62,39,0
181.64082,181.77562,63,42,0
181.77562,181.90988,64,38,0
181.90988,182.04361,63,40,0
182.04361,182.2288,64,42,0
182.2288,182.80852,62,41,0
182.2288,182.80852,66,49,0
182.80852,183.09837,61,33,0
182.80852,183.09837,64,39,0
182.2288,183.09837,57,41,0
183.38821,183.5717,61,51,0
183.5717,183.74413,64,45,0
183.74413,183.91653,62,45,0
183.91653,184.08894,61,54,0
184.08894,184.26137,64,43,0
184.26137,184.46338,69,43,0
184.46338,185.02893,71,57,0
185.03839,185.31488,64,50,0
185.59239,185.7247,74,51,0
185.85645,185.98761,71,47,0
186.1182,186.24905,68,47,0
186.38007,186.51106,64,47,0
186.64207,186.77188,73,51,0
186.90176,187.03163,69,47,0
187.1615,187.29332,64,47,0
187.42548,187.55763,61,47,0
187.68881,187.81932,62,51,0
187.81932,187.94977,64,39,0
187.94977,188.0802,62,46,0
188.0802,188.21063,64,38,0
188.21063,188.33965,68,51,0
188.33965,188.4684,71,38,0
188.4684,188.59715,68,45,0
188.59715,188.73343,71,39,0
188.73343,188.86494,61,51,0
188.86494,188.99538,64,42,0
188.99538,189.12582,61,46,0
189.12582,189.25626,64,42,0
189.25626,189.38525,69,51,0
189.38525,189.514,73,41,0
189.514,189.64278,69,45,0
189.64278,189.77905,73,41,0
189.77905,189.91008,64,69,0
189.91008,190.03996,66,58,0
190.03996,190.16983,68,64,0
190.16983,190.2997,69,59,0
190.2997,190.42957,70,69,0
190.42957,190.55943,71,56,0
190.55943,190.68932,70,65,0
190.68932,190.82014,71,59,0
190.82014,190.95001,69,69,0
190.95001,191.07988,71,58,0
191.07988,191.20975,73,64,0
191.20975,191.34895,74,59,0
191.34778,191.47798,75,70,0
191.47905,191.60725,76,57,0
191.60619,191.73439,75,62,0
191.73546,191.86578,76,49,0
191.86578,191.9963,62,58,0
191.9963,192.12674,71,37,0
192.12674,192.25719,62,46,0
192.25719,192.38762,71,38,0
192.38762,192.51662,64,51,0
192.51555,192.6443,74,38,0
192.64537,192.77414,64,45,0
192.77306,192.90927,74,41,0
192.91042,193.04193,69,51,0
193.04193,193.17236,73,42,0
193.17236,193.3028,69,46,0
193.3028,193.45116,73,42,0
193.45116,193.58333,57,51,0
193.711,193.83977,61,45,0
193.97707,194.10759,62,58,0
194.10759,194.23802,71,40,0
194.23802,194.36845,62,46,0
194.36845,194.49889,71,38,0
194.49889,194.6279,64,51,0
194.62682,194.75558,74,41,0
194.75665,194.88557,64,45,0
194.88434,195.03285,74,41,0
195.03403,195.17487,69,43,0
195.17487,195.3157,73,35,0
195.3157,195.45676,69,39,0
195.45676,195.62167,73,35,0
195.62048,195.76266,61,40,0
195.62167,195.76385,57,34,0
195.90485,196.04703,61,30,0
195.90485,196.04703,64,36,0
196.19969,196.33731,62,58,0
196.33731,196.47491,71,38,0
196.47491,196.61253,62,46,0
196.61253,196.7501,71,38,0
196.7501,196.88286,64,51,0
196.88174,197.0145,74,41,0
197.0156,197.1485,64,45,0
197.14723,197.29951,74,41,0
197.30061,197.43279,69,45,0
197.43279,197.56494,73,37,0
197.56494,197.6971,69,41,0
197.6971,197.84557,73,37,0
197.84557,197.97949,57,45,0
198.11342,198.24623,69,45,0
198.38016,198.51009,57,75,0
198.51009,198.63995,59,58,0
198.63995,198.76982,61,64,0
198.76982,198.91068,62,59,0
198.91068,199.03888,63,70,0
199.03888,199.16708,64,61,0
199.16708,199.29529,63,68,0
199.29529,199.42601,64,59,0
199.42601,199.55594,45,75,0
199.55594,199.6858,47,58,0
199.6858,199.81567,49,64,0
199.81567,199.95653,50,59,0
199.95653,200.08473,51,70,0
200.08473,200.21294,52,61,0
200.21294,200.34114,51,68,0
200.34114,200.47186,52,59,0
200.47186,200.60286,51,75,0
200.60286,200.73387,52,62,0
200.73387,200.86487,54,66,0
200.86487,200.99588,56,62,0
200.99588,201.12688,57,74,0
201.12688,201.25789,59,63,0
201.25789,201.38889,61,64,0
201.38889,201.5199,62,65,0
201.5199,201.64984,63,65,0
201.64984,201.78027,64,60,0
207.7409,208.00758,66,36,0
207.7409,208.00758,62,30,0
208.27425,208.55074,66,31,0
208.27425,208.55074,57,26,0
208.82724,209.0951,64,30,0
208.82724,209.0951,67,36,0
209.35907,209.63556,67,31,0
209.35907,209.63556,57,26,0
209.91206,210.17992,66,36,0
209.91206,210.17992,62,30,0
210.44777,210.72684,66,30,0
210.44777,210.72684,57,25,0
211.00592,211.27498,67,36,0
211.00592,211.27498,61,30,0
211.54068,211.81465,57,27,0
211.54068,211.81465,67,32,0
212.09381,212.36049,66,36,0
212.09381,212.36049,62,30,0
212.62715,212.90364,66,31,0
212.62715,212.90364,57,26,0
213.18015,213.448,59,30,0
213.18015,213.448,62,30,0
213.18015,213.448,67,36,0
213.71585,213.99236,55,26,0
213.71585,213.99236,62,26,0
213.71585,213.99236,67,31,0
214.26886,214.53671,62,30,0
214.26886,214.53671,66,36,0
214.80457,215.08363,66,30,0
214.80457,215.08363,57,25,0
215.3627,215.63176,62,30,0
215.3627,215.63176,66,36,0
215.90082,216.17479,57,27,0
215.90082,216.17479,66,32,0
216.45396,216.72063,62,30,0
216.45396,216.72063,66,36,0
216.98729,217.2638,57,26,0
216.98729,217.2638,66,31,0
217.54028,217.80815,67,36,0
217.54028,217.80815,64,30,0
218.07211,218.34862,57,26,0
218.07211,218.34862,67,35,0
218.6407,218.9278,66,41,0
218.6407,218.9278,58,30,0
219.21487,219.49394,58,25,0
219.21487,219.49394,61,30,0
219.77301,220.03502,62,36,0
219.77301,220.03502,59,30,0
220.29703,220.56488,62,27,0
220.29703,220.56488,55,27,0
220.29703,220.56488,67,32,0
220.84099,221.103,62,30,0
220.84099,221.103,66,36,0
221.365,221.64151,66,31,0
221.365,221.64151,57,26,0
221.918,222.18349,61,30,0
221.918,222.18349,67,36,0
222.44897,222.71684,57,26,0
222.44897,222.71684,67,31,0
222.99362,224.06645,62,30,0
222.99362,224.07808,66,36,0
224.07808,224.20683,50,58,0
224.20683,224.33559,54,52,0
224.33559,224.46434,50,54,0
224.46434,224.5931,54,52,0
224.5931,224.71931,59,58,0
224.71931,224.84552,57,52,0
224.84552,224.98148,54,55,0
224.98148,225.13692,50,52,0
225.13692,225.43248,55,58,0
225.13692,225.43248,49,49,0
225.72804,226.0236,55,50,0
225.72804,226.0236,45,42,0
226.31918,226.57669,55,56,0
226.31918,226.57669,49,47,0
226.8342,227.0881,55,56,0
226.8342,227.0881,45,47,0
227.3788,227.66866,54,58,0
227.3788,227.66866,50,49,0
227.95851,228.24837,54,44,0
227.95851,228.24837,45,37,0
228.53822,228.79573,50,47,0
228.53822,228.79573,54,56,0
229.05324,229.31075,57,56,0
229.05324,229.31075,54,47,0
229.58798,229.84549,52,47,0
229.58798,229.84549,61,56,0
230.103,230.35435,61,50,0
230.103,230.35435,57,42,0
230.62825,230.88576,62,56,0
230.62825,230.88576,59,47,0
231.14328,231.3968,52,42,0
231.14328,231.3968,62,50,0
231.68964,232.83252,57,56,0
231.68964,232.83252,61,63,0
232.83252,232.96127,57,68,0
232.96127,233.09003,61,53,0
233.09003,233.21878,57,61,0
233.21878,233.34753,61,53,0
233.34753,233.47629,66,68,0
233.47629,233.60506,64,58,0
233.60506,233.7427,61,63,0
233.7427,233.8852,57,58,0
233.89815,234.48927,57,72,0
234.48927,234.78484,56,64,0
235.08041,235.20917,59,68,0
235.20917,235.33792,62,53,0
235.33792,235.46667,59,62,0
235.46667,235.59543,62,53,0
235.59543,235.72418,66,68,0
235.72418,235.85294,64,58,0
235.85294,235.99059,62,61,0
235.99059,236.1557,59,58,0
236.1557,236.72986,61,72,0
236.72986,237.02254,57,64,0
237.31523,237.44398,55,66,0
237.44398,237.57274,61,54,0
237.57274,237.70149,55,58,0
237.70149,237.83025,61,54,0
237.83025,237.959,66,61,0
237.959,238.08469,64,59,0
238.08469,238.21631,61,62,0
238.21631,238.35986,55,60,0
238.35986,238.48862,54,67,0
238.48862,238.61737,57,58,0
238.61737,238.74612,54,62,0
238.74612,238.87488,62,58,0
238.87488,239.00363,53,65,0
239.00363,239.12932,57,52,0
239.12932,239.26027,53,56,0
239.26027,239.40178,62,52,0
239.40178,239.53053,52,63,0
239.53053,239.65929,61,52,0
239.65929,239.78804,57,57,0
239.78804,239.9168,61,52,0
239.9168,240.04556,64,60,0
240.04556,240.17123,62,52,0
240.17123,240.30684,59,56,0
240.30684,240.46228,61,52,0
240.46228,241.02863,57,62,0
241.03099,241.62213,61,45,0
241.03099,241.62213,69,54,0
241.03099,241.62213,57,45,0
241.62213,242.26834,62,41,0
241.62213,242.26834,68,49,0
241.62213,242.26834,59,41,0
242.26834,242.97133,61,39,0
242.26834,242.97133,67,47,0
242.26834,242.97133,64,39,0
242.97133,243.23799,62,30,0
242.97133,243.23799,66,36,0
243.50465,243.78116,57,26,0
243.50465,243.78116,66,31,0
244.05765,244.3255,64,30,0
244.05765,244.3255,67,36,0
244.58948,244.86597,57,26,0
244.58948,244.86597,66,31,0
245.13924,245.4059,62,30,0
245.13924,245.4059,66,36,0
245.67256,245.94907,57,26,0
245.67256,245.94907,66,31,0
246.22556,246.49342,64,30,0
246.22556,246.49342,67,36,0
246.75739,247.03387,67,31,0
246.75739,247.03387,57,26,0
247.31038,247.57823,62,30,0
247.31038,247.57823,66,36,0
247.8461,248.12517,57,25,0
247.8461,248.12517,66,30,0
248.40424,248.6733,61,30,0
248.40424,248.6733,67,36,0
248.94235,249.21632,67,32,0
248.94235,249.21632,57,27,0
249.49548,249.76216,62,30,0
249.49548,249.76216,66,36,0
250.02882,250.30531,66,31,0
250.02882,250.30531,57,26,0
250.58182,250.84967,62,30,0
250.58182,250.84967,67,36,0
250.58182,250.84967,59,30,0
251.11752,251.39403,67,31,0
251.11752,251.39403,62,26,0
251.11752,251.39403,55,26,0
251.67265,251.94052,62,30,0
251.67265,251.94052,66,36,0
252.20837,252.48744,57,25,0
252.20837,252.48744,66,30,0
252.76651,253.03557,65,30,0
252.76651,253.03557,62,25,0
253.30128,253.57526,57,22,0
253.30128,253.57526,65,27,0
253.85442,254.12108,65,30,0
253.85442,254.12108,62,25,0
254.38776,254.66425,65,26,0
254.38776,254.66425,57,22,0
254.94075,255.2086,60,25,0
254.94075,255.2086,63,25,0
254.94075,255.2086,65,30,0
255.47646,255.75296,53,22,0
255.47646,255.75296,65,29,0
255.47646,255.75296,63,22,0
256.04504,256.33212,65,34,0
256.04504,256.33212,58,25,0
256.04504,256.33212,62,25,0
256.6192,256.8983,62,21,0
256.6192,256.8983,53,21,0
256.6192,256.8983,65,25,0
257.17737,257.43936,65,36,0
257.17737,257.43936,62,30,0
257.17737,257.43936,58,30,0
257.69766,257.9655,58,32,0
257.69766,257.9655,62,32,0
257.69766,257.9655,68,38,0
258.2416,258.50363,66,30,0
258.2416,258.50363,69,36,0
258.2416,258.50363,62,30,0
258.76562,259.0421,57,26,0
258.76562,259.0421,66,26,0
258.76562,259.0421,69,31,0
259.31863,259.5841,69,36,0
259.31863,259.5841,61,30,0
259.31863,259.5841,67,30,0
259.84634,260.1142,69,31,0
259.84634,260.1142,67,26,0
259.84634,260.1142,57,26,0
260.39096,260.65414,66,30,0
260.39096,260.65414,69,36,0
260.9173,261.19635,69,31,0
260.9173,261.19635,66,26,0
260.9173,261.19635,62,26,0
261.47543,261.73294,59,30,0
261.47543,261.73294,67,36,0
261.47543,261.73294,62,30,0
261.99045,262.2449,62,26,0
261.99045,262.2449,67,31,0
261.99045,262.2449,55,26,0
262.53592,262.83148,66,42,0
262.53592,262.83148,62,35,0
263.12708,263.42264,66,34,0
263.12708,263.42264,57,28,0
263.7182,263.9757,61,34,0
263.7182,263.9757,67,40,0
264.23322,264.49072,67,36,0
264.23322,264.49072,57,30,0
264.7838,266.1246,62,36,0
264.7838,266.1246,66,43,0
267.62497,267.717,43,45,0
267.80902,267.99307,55,35,0
267.99307,268.1706,59,38,0
268.1706,268.3481,55,37,0
268.3481,268.52563,62,42,0
268.52563,268.70312,55,32,0
268.70312,268.88065,59,36,0
268.88065,269.08755,55,36,0
269.08755,269.17737,43,49,0
269.26718,269.44684,55,33,0
269.44684,269.62646,58,36,0
269.62646,269.80612,55,33,0
269.80612,269.98575,64,42,0
269.98575,270.1654,55,35,0
270.1654,270.34503,58,37,0
270.34503,270.61288,55,35,0
270.61288,270.71158,43,45,0
270.81027,270.98776,55,36,0
270.98776,271.16528,59,38,0
271.16528,271.3428,55,36,0
271.3428,271.51523,62,42,0
271.51523,271.68762,55,36,0
271.68762,271.86005,59,36,0
271.86005,272.0386,55,33,0
272.0386,272.37823,64,35,0
272.416,272.74725,62,32,0
272.78406,273.11536,59,32,0
273.15216,273.49948,55,38,0
273.5403,273.63232,38,45,0
273.72433,273.9084,50,37,0
273.9084,274.0859,54,38,0
274.0859,274.26343,50,36,0
274.26343,274.44305,57,42,0
274.44305,274.6227,50,34,0
274.6227,274.80234,54,36,0
274.80234,275.00925,50,34,0
275.00925,275.09906,45,49,0
275.18887,275.36853,52,33,0
275.36853,275.54816,55,36,0
275.54816,275.7278,52,33,0
275.7278,275.90744,57,42,0
275.90744,276.0871,52,34,0
276.0871,276.26672,55,37,0
276.26672,276.48895,52,35,0
276.48895,276.58765,38,45,0
276.6863,276.86383,50,37,0
276.86383,277.04135,54,38,0
277.04135,277.21887,50,37,0
277.21887,277.39127,57,42,0
277.39127,277.5637,50,35,0
277.5637,277.7361,61,36,0
277.7361,277.91467,50,33,0
277.91467,278.24802,62,35,0
278.28506,278.6084,62,33,0
278.64432,278.96768,64,35,0
279.0036,279.34653,65,36,0
279.38733,279.47937,40,45,0
279.57138,279.75543,52,35,0
279.75543,279.93295,56,38,0
279.93295,280.11047,52,38,0
280.11047,280.28796,62,42,0
280.28796,280.46548,52,34,0
280.46548,280.643,56,36,0
280.643,280.8499,52,36,0
280.8499,280.93973,45,49,0
281.02954,281.2092,52,37,0
281.2092,281.38882,57,36,0
281.38882,281.56848,52,36,0
281.56848,281.7481,60,46,0
281.7481,281.92773,52,39,0
281.92773,282.1074,59,40,0
282.1074,282.3143,52,42,0
282.3143,282.4063,38,45,0
282.49832,282.68237,50,35,0
282.68237,282.8599,54,38,0
282.8599,283.0374,50,36,0
283.0374,283.21704,60,42,0
283.21704,283.3967,50,33,0
283.3967,283.57632,54,36,0
283.57632,283.78323,50,34,0
283.78323,283.97552,55,42,0
283.97552,284.16785,50,40,0
284.16785,284.3464,60,47,0
284.3464,284.525,50,42,0
284.525,284.70355,59,47,0
284.70355,284.88214,50,40,0
284.88214,285.0607,55,39,0
285.0607,285.28293,50,38,0
285.28293,285.37494,38,45,0
285.46698,285.65103,50,37,0
285.65103,285.82855,54,38,0
285.82855,286.00604,50,35,0
286.00604,286.1857,60,42,0
286.1857,286.36533,50,34,0
286.36533,286.54498,54,36,0
286.54498,286.75186,50,34,0
286.75186,286.94174,55,42,0
286.94174,287.13162,50,44,0
287.13162,287.31018,60,43,0
287.31018,287.48877,50,42,0
287.48877,287.66733,59,47,0
287.66733,287.84592,50,40,0
287.84592,288.02448,55,39,0
288.02448,288.2467,50,38,0
288.2467,288.34738,38,45,0
288.44803,288.64938,50,38,0
288.64938,288.8417,54,38,0
288.8417,289.034,50,38,0
289.034,289.2503,62,42,0
289.2503,289.46658,50,29,0
289.46658,289.72815,60,36,0
289.72815,289.9897,50,28,0
289.9897,290.36008,59,36,0
289.9897,290.36008,55,30,0
291.49008,291.5821,43,45,0
291.67413,291.85815,55,35,0
291.85815,292.03568,59,38,0
292.03568,292.2132,55,36,0
292.2132,292.39072,62,42,0
292.39072,292.56824,55,34,0
292.56824,292.74573,59,36,0
292.74573,292.95264,55,34,0
292.95264,293.04245,43,49,0
293.1323,293.31192,55,37,0
293.31192,293.49155,58,40,0
293.49155,293.6712,55,36,0
293.6712,293.85083,64,42,0
293.85083,294.0305,55,35,0
294.0305,294.2101,58,37,0
294.2101,294.47797,55,35,0
294.47797,294.57666,43,45,0
294.67535,294.85287,55,36,0
294.85287,295.03036,59,38,0
295.03036,295.2079,55,37,0
295.2079,295.3803,62,45,0
295.3803,295.55273,55,43,0
295.55273,295.72513,59,46,0
295.72513,295.90372,62,48,0
295.90372,296.24332,65,50,0
296.28107,296.61237,64,42,0
296.64917,296.98044,65,42,0
297.01727,297.36456,67,47,0
297.4054,297.4974,48,51,0
297.58945,297.7735,55,40,0
297.7735,297.95102,60,43,0
297.95102,298.1285,55,40,0
298.1285,298.30817,64,48,0
298.30817,298.4878,55,38,0
298.4878,298.66745,60,41,0
298.66745,298.87433,55,40,0
298.87433,298.96417,38,56,0
299.054,299.2336,50,39,0
299.2336,299.41544,55,41,0
299.41544,299.6252,50,39,0
299.6252,299.8038,59,48,0
299.8038,299.98236,50,40,0
299.98236,300.16095,57,42,0
300.16095,300.38318,50,38,0
300.38318,300.48184,38,51,0
300.58054,300.75806,50,40,0
300.75806,300.93558,55,40,0
300.93558,301.11307,50,38,0
301.11307,301.2855,55,51,0
301.2855,301.45792,59,41,0
301.45792,301.6303,62,44,0
301.6303,301.8089,64,41,0
301.8089,302.1422,65,51,0
302.17926,302.50262,64,40,0
302.53854,302.71503,65,42,0
302.71503,302.89148,69,39,0
302.89148,303.23123,67,47,0
303.27203,303.36407,48,53,0
303.4561,303.64014,55,40,0
303.64014,303.81766,60,42,0
303.81766,303.99518,55,39,0
303.99518,304.17267,59,50,0
304.17267,304.3502,55,36,0
304.3502,304.5277,60,39,0
304.5277,304.7346,55,36,0
304.7346,304.82443,38,49,0
304.91425,305.09387,50,35,0
305.09387,305.27353,55,36,0
305.27353,305.45316,50,35,0
305.45316,305.6328,57,42,0
305.6328,305.81244,50,36,0
305.81244,305.9921,60,37,0
305.9921,306.19897,50,34,0
306.19897,306.29102,43,45,0
306.38303,306.56708,50,36,0
306.56708,306.7446,55,38,0
306.7446,306.92212,50,37,0
306.92212,307.10175,55,42,0
307.10175,307.2814,50,36,0
307.2814,307.46103,43,39,0
307.46103,307.66794,45,36,0
307.66794,307.81543,46,56,0
307.81543,307.96292,45,48,0
307.96292,308.1104,43,48,0
308.1104,308.2579,45,48,0
308.2579,308.40118,46,56,0
308.40118,308.54443,43,49,0
308.54443,308.6877,46,49,0
308.6877,308.84778,43,49,0
308.84778,309.15137,55,65,0
309.16458,309.3158,43,51,0
309.467,309.6182,43,52,0
309.7694,309.92865,43,52,0
310.0879,310.24222,39,62,0
310.24222,310.39655,38,49,0
310.39655,310.54404,36,49,0
310.54404,310.69153,38,49,0
310.69153,310.84198,39,63,0
310.84198,310.99243,36,52,0
310.99243,311.15082,39,52,0
311.15082,311.32483,36,50,0
311.32483,311.65378,43,65,0
311.65378,311.8097,31,48,0
311.96564,312.12155,31,48,0
312.27747,312.4334,31,48,0
312.58932,312.73682,41,56,0
312.58932,312.73682,53,56,0
312.8843,313.0318,44,57,0
312.8843,313.0318,56,49,0
313.1793,313.32257,59,59,0
313.1793,313.32257,47,59,0
313.46582,313.6091,62,54,0
313.46582,313.6091,50,62,0
313.7692,314.08597,54,75,0
313.7692,314.08597,42,64,0
313.7692,314.08597,50,64,0
313.7692,314.08597,47,64,0
314.08597,314.23718,59,56,0
314.08597,314.23718,54,47,0
314.3884,314.5396,59,56,0
314.3884,314.5396,54,47,0
314.69083,314.85004,54,47,0
314.69083,314.85004,59,56,0
315.00928,315.15677,59,47,0
315.00928,315.15677,52,47,0
315.30426,315.45175,59,40,0
315.30426,315.45175,52,47,0
315.59924,315.75278,58,47,0
315.59924,315.75278,54,47,0
315.9063,316.07446,58,41,0
315.9063,316.07446,54,47,0
316.24078,316.39752,47,49,0
316.24078,316.39752,54,58,0
316.55426,316.72827,50,50,0
316.90228,317.087,50,59,0
316.90228,317.087,38,49,0
317.27173,317.47665,50,62,0
317.68158,317.82907,46,64,0
317.82907,317.97656,45,55,0
317.97656,318.12405,43,55,0
318.12405,318.27155,45,55,0
318.27155,318.41483,46,64,0
318.41483,318.55807,43,56,0
318.55807,318.70135,46,56,0
318.70135,318.86142,43,56,0
318.86142,319.165,55,65,0
319.17822,319.32944,43,51,0
319.48065,319.63187,43,52,0
319.78305,319.9423,43,52,0
320.10153,320.25586,39,62,0
320.25586,320.4102,38,49,0
320.4102,320.55603,36,49,0
320.55603,320.70187,38,49,0
320.70187,320.85233,39,63,0
320.85233,321.00278,36,52,0
321.00278,321.16116,39,52,0
321.16116,321.33517,36,50,0
321.33517,321.66412,43,65,0
321.66412,321.82004,31,48,0
321.97598,322.1319,31,48,0
322.2878,322.44376,31,48,0
322.59967,322.74716,44,61,0
322.59967,322.74716,32,61,0
322.89465,323.04214,35,62,0
322.89465,323.04214,47,53,0
323.18964,323.33292,38,64,0
323.18964,323.33292,50,64,0
323.47617,323.61945,53,59,0
323.47617,323.61945,41,68,0
323.77954,324.0937,57,75,0
323.77954,324.0963,53,64,0
323.77954,324.0963,45,64,0
323.77954,324.0963,50,64,0
324.0963,324.24753,62,61,0
324.0963,324.24753,57,51,0
324.39874,324.54996,57,51,0
324.39874,324.54996,62,61,0
324.70117,324.86038,62,61,0
324.70117,324.86038,57,51,0
325.01962,325.1671,55,47,0
325.01962,325.1671,62,47,0
325.3146,325.4621,62,40,0
325.3146,325.4621,55,47,0
325.6096,325.76312,57,47,0
325.6096,325.76312,61,47,0
325.91666,326.08484,61,41,0
325.91666,326.08484,57,47,0
326.25113,326.56198,50,49,0
326.25113,326.5646,57,58,0
326.5646,326.7414,50,50,0
326.91815,327.11084,50,59,0
327.30353,327.50803,50,62,0
327.71252,328.3025,53,47,0
327.71252,328.3025,60,47,0
328.94916,329.09592,48,60,0
329.09592,329.2427,47,54,0
329.2427,329.39545,50,60,0
329.39545,329.54706,48,54,0
329.56082,329.70978,48,59,0
329.85873,330.01797,48,56,0
330.17722,330.4722,55,66,0
330.4722,330.6197,50,55,0
330.76718,330.92557,50,55,0
331.08398,331.24844,49,55,0
331.41293,331.5597,50,63,0
331.5597,331.70645,49,56,0
331.70645,331.864,52,63,0
331.864,332.0077,50,56,0
332.02075,332.1697,50,61,0
332.3187,332.4779,50,58,0
332.63715,332.93213,58,69,0
332.93213,333.07962,53,57,0
333.2271,333.3898,53,57,0
333.5525,333.72162,53,57,0
333.89072,334.04193,53,66,0
334.04193,334.19315,52,58,0
334.19315,334.3507,55,66,0
334.3507,334.4944,53,58,0
334.50745,334.65942,53,64,0
334.8114,334.97064,53,60,0
335.43536,335.59985,55,66,0
335.12985,335.7643,52,66,0
335.7643,335.91705,60,64,0
335.7643,335.91705,52,54,0
336.06982,336.2352,60,60,0
336.06982,336.2352,52,51,0
336.40057,336.69556,60,65,0
336.69556,336.8473,58,54,0
336.8473,336.99905,57,48,0
336.40057,336.99905,53,56,0
336.99905,337.16174,53,45,0
336.99905,337.16174,57,54,0
337.32443,337.49353,53,45,0
337.32443,337.49353,57,54,0
337.66266,337.81384,46,62,0
337.81384,337.96506,45,55,0
337.96506,338.12262,48,62,0
338.12262,338.2663,46,55,0
338.27936,338.43134,48,60,0
338.5833,338.74255,48,57,0
338.9018,339.49176,41,56,0
339.49176,339.65445,41,54,0
339.81714,339.98624,39,51,0
340.15536,340.33038,38,63,0
340.50543,340.68045,38,58,0
340.85547,341.03052,38,58,0
341.20554,341.38055,38,58,0
341.5556,341.73483,50,58,0
341.5556,341.73483,57,58,0
341.5556,341.73483,60,69,0
341.9192,342.10754,60,60,0
341.9192,342.10754,50,51,0
341.9192,342.10754,57,51,0
342.3003,342.49994,60,60,0
342.3003,342.49994,50,51,0
342.3003,342.49994,57,51,0
342.70932,342.92874,60,60,0
342.70932,342.92874,57,51,0
342.70932,342.92874,50,51,0
343.16595,343.31345,46,64,0
343.31345,343.46094,45,55,0
343.46094,343.60843,43,55,0
343.60843,343.75592,45,55,0
343.75592,343.89917,46,64,0
343.89917,344.04245,43,56,0
344.04245,344.18573,46,56,0
344.18573,344.3458,43,56,0
344.3458,344.64938,55,65,0
344.6626,344.8138,43,51,0
344.96503,345.1162,43,52,0
345.26743,345.42667,43,52,0
345.5859,345.74023,39,62,0
345.74023,345.89453,38,49,0
345.89453,346.04205,36,49,0
346.04205,346.18954,38,49,0
346.18954,346.34,39,63,0
346.34,346.49045,36,52,0
346.49045,346.64883,39,52,0
346.64883,346.82285,36,50,0
346.82285,347.1518,43,65,0
347.1518,347.3077,31,48,0
347.46365,347.61957,31,48,0
347.77548,347.93143,31,48,0
348.08734,348.23483,41,56,0
348.08734,348.23483,53,56,0
348.38232,348.52982,56,49,0
348.38232,348.52982,44,57,0
348.6773,348.8206,47,59,0
348.6773,348.8206,59,59,0
348.96384,349.10712,50,62,0
348.96384,349.10712,62,54,0
349.2672,349.58136,54,75,0
349.2672,349.58398,47,64,0
349.2672,349.58398,42,64,0
349.2672,349.58398,50,64,0
349.58398,349.7352,59,56,0
349.58398,349.7352,54,47,0
349.8864,350.03763,59,56,0
349.8864,350.03763,54,47,0
350.1888,350.34805,59,56,0
350.1888,350.34805,54,47,0
350.5073,350.6548,59,47,0
350.5073,350.6548,52,47,0
350.80228,350.94977,52,47,0
350.80228,350.94977,59,40,0
351.09726,351.2508,54,47,0
351.09726,351.2508,58,47,0
351.40433,351.57248,54,47,0
351.40433,351.57248,58,41,0
351.7388,352.05228,54,58,0
351.7388,352.05228,47,49,0
352.05228,352.2263,50,50,0
352.4003,352.58502,38,49,0
352.4003,352.58502,50,59,0
352.76974,352.97467,50,62,0
353.1796,353.3271,46,64,0
353.3271,353.47458,45,55,0
353.47458,353.62207,43,55,0
353.62207,353.76956,45,55,0
353.76956,353.91284,46,64,0
353.91284,354.0561,43,56,0
354.0561,354.19937,46,56,0
354.19937,354.35944,43,56,0
354.35944,354.66302,55,65,0
354.67624,354.82745,43,51,0
354.97867,355.12985,43,52,0
355.28107,355.4403,43,52,0
355.59955,355.75388,39,62,0
355.75388,355.9082,38,49,0
355.9082,356.0557,36,49,0
356.0557,356.2032,38,49,0
356.2032,356.35364,39,63,0
356.35364,356.5041,36,52,0
356.5041,356.66248,39,52,0
356.66248,356.8365,36,50,0
356.8365,357.16544,43,65,0
357.16544,357.32135,31,48,0
357.4773,357.6332,31,48,0
357.78912,357.94507,31,48,0
358.10098,358.24847,32,61,0
358.10098,358.24847,44,61,0
358.39597,358.54346,35,62,0
358.39597,358.54346,47,53,0
358.69095,358.83423,50,64,0
358.69095,358.83423,38,64,0
358.97748,359.12076,53,59,0
358.97748,359.12076,41,68,0
359.28085,359.595,57,75,0
359.28085,359.59763,53,64,0
359.28085,359.59763,50,64,0
359.28085,359.59763,45,64,0
359.59763,359.74884,62,61,0
359.59763,359.74884,57,51,0
359.90005,360.05127,62,61,0
359.90005,360.05127,57,51,0
360.20248,360.3617,62,61,0
360.20248,360.3617,57,51,0
360.52094,360.66843,48,67,0
360.52094,360.66843,36,67,0
360.81592,360.9634,39,68,0
360.81592,360.9634,51,58,0
361.1109,361.25418,54,70,0
361.1109,361.25418,42,70,0
361.39746,361.5407,45,74,0
361.39746,361.5407,57,64,0
361.7008,362.01495,61,82,0
361.7008,362.01758,54,70,0
361.7008,362.01758,57,70,0
361.7008,362.01758,49,70,0
362.01758,362.1688,66,61,0
362.01758,362.1688,61,51,0
362.32,362.47122,66,61,0
362.32,362.47122,61,51,0
362.62244,362.78168,66,61,0
362.62244,362.78168,61,51,0
362.9409,363.10013,66,45,0
362.9409,363.10013,59,38,0
363.25937,363.4186,66,41,0
363.25937,363.4186,59,34,0
363.57785,363.73624,65,45,0
363.57785,363.73624,61,38,0
363.89462,364.0582,65,43,0
363.89462,364.0582,61,36,0
364.22452,364.8897,61,45,0
364.22452,364.8897,54,38,0
366.94165,368.6817,62,45,0
368.6817,368.98956,62,37,0
369.02377,369.1948,62,36,0
369.36584,369.5529,62,35,0
369.7399,371.52054,62,38,0
371.55756,371.8909,64,32,0
371.92795,372.26126,66,32,0
372.2983,372.64676,67,32,0
372.68756,372.7796,43,45,0
372.8716,373.05566,55,36,0
373.05566,373.2332,59,38,0
373.2332,373.4107,55,37,0
373.4107,373.58823,62,42,0
373.58823,373.76572,55,34,0
373.76572,373.94324,59,36,0
373.94324,374.15015,55,36,0
374.15015,374.23996,43,49,0
374.32977,374.50943,55,36,0
374.50943,374.68906,58,36,0
374.68906,374.8687,55,34,0
374.8687,375.04834,64,42,0
375.04834,375.228,55,35,0
375.228,375.40762,58,37,0
375.40762,375.67548,55,35,0
375.67548,375.77417,43,45,0
375.87286,376.05035,55,35,0
376.05035,376.22787,59,38,0
376.22787,376.4054,55,34,0
376.4054,376.57782,62,42,0
376.57782,376.7502,55,33,0
376.7502,376.92264,59,36,0
376.92264,377.1012,55,34,0
377.1012,377.44083,64,35,0
377.47858,377.80984,62,32,0
377.84665,378.17795,59,32,0
378.21475,378.56207,55,38,0
378.6029,378.69492,38,45,0
378.78696,378.97098,50,36,0
378.97098,379.1485,54,38,0
379.1485,379.32602,50,36,0
379.32602,379.50568,57,42,0
379.50568,379.6853,50,35,0
379.6853,379.86493,54,36,0
379.86493,380.07184,50,35,0
380.07184,380.16165,45,49,0
380.25146,380.43112,52,35,0
380.43112,380.61075,55,36,0
380.61075,380.7904,52,35,0
380.7904,380.97003,57,42,0
380.97003,381.1497,52,35,0
381.1497,381.3293,55,37,0
381.3293,381.55154,52,36,0
381.55154,381.65024,38,45,0
381.7489,381.92642,50,35,0
381.92642,382.10394,54,38,0
382.10394,382.28146,50,36,0
382.28146,382.4539,57,42,0
382.4539,382.62628,50,34,0
382.62628,382.7987,61,36,0
382.7987,382.97726,50,34,0
382.97726,383.3106,62,35,0
383.34766,383.671,62,33,0
383.7069,384.03027,64,35,0
384.0662,384.40912,65,36,0
384.44992,384.54196,40,45,0
384.63397,384.81802,52,36,0
384.81802,384.99554,56,38,0
384.99554,385.17307,52,36,0
385.17307,385.35056,62,42,0
385.35056,385.52808,52,35,0
385.52808,385.7056,56,36,0
385.7056,385.9125,52,35,0
385.9125,386.00232,45,49,0
386.09213,386.2718,52,34,0
386.2718,386.45142,57,36,0
386.45142,386.63107,52,35,0
386.63107,386.8107,60,42,0
386.8107,386.99033,52,36,0
386.99033,387.16998,59,37,0
387.16998,387.3769,52,35,0
387.3769,387.4689,38,45,0
387.5609,387.74496,50,36,0
387.74496,387.9225,54,38,0
387.9225,388.1,50,35,0
388.1,388.27963,60,42,0
388.27963,388.4593,50,36,0
388.4593,388.63892,54,36,0
388.63892,388.84583,50,36,0
388.84583,389.03815,55,42,0
389.03815,389.23044,50,43,0
389.23044,389.409,60,43,0
389.409,389.5876,50,42,0
389.5876,389.76614,59,47,0
389.76614,389.94473,50,40,0
389.94473,390.1233,55,39,0
390.1233,390.34552,50,38,0
390.34552,390.43753,38,45,0
390.52957,390.71362,50,36,0
390.71362,390.89114,54,38,0
390.89114,391.06863,50,38,0
391.06863,391.2483,60,42,0
391.2483,391.42792,50,34,0
391.42792,391.60757,54,36,0
391.60757,391.81445,50,34,0
391.81445,392.00433,55,42,0
392.00433,392.1942,50,44,0
392.1942,392.37277,60,43,0
392.37277,392.55136,50,42,0
392.55136,392.72992,59,47,0
392.72992,392.9085,50,40,0
392.9085,393.08707,55,39,0
393.08707,393.3093,50,38,0
393.3093,393.40997,38,45,0
393.51062,393.71198,50,36,0
393.71198,393.9043,54,38,0
393.9043,394.0966,50,35,0
394.0966,394.3035,57,42,0
394.3035,394.51038,50,29,0
394.51038,394.78894,60,36,0
394.78894,395.06747,50,28,0
395.06747,395.43787,55,30,0
395.06747,395.43787,59,36,0
396.56787,396.65988,43,45,0
396.75192,396.93597,55,36,0
396.93597,397.1135,59,38,0
397.1135,397.291,55,36,0
397.291,397.4685,62,42,0
397.4685,397.64603,55,34,0
397.64603,397.82355,59,36,0
397.82355,398.03043,55,34,0
398.03043,398.12027,43,49,0
398.21008,398.3897,55,35,0
398.3897,398.56937,58,36,0
398.56937,398.749,55,35,0
398.749,398.92865,64,42,0
398.92865,399.10828,55,36,0
399.10828,399.28793,58,37,0
399.28793,399.5558,55,37,0
399.5558,399.65445,43,45,0
399.75314,399.93066,55,37,0
399.93066,400.1082,59,38,0
400.1082,400.2857,55,36,0
400.2857,400.4581,62,45,0
400.4581,400.63052,55,43,0
400.63052,400.80292,59,46,0
400.80292,400.9815,55,48,0
400.9815,401.32114,65,50,0
401.35886,401.69016,64,42,0
401.72696,402.05826,65,42,0
402.09506,402.44238,67,47,0
402.4832,402.57523,48,51,0
402.66724,402.8513,55,40,0
402.8513,403.0288,60,43,0
403.0288,403.20633,55,40,0
403.20633,403.38596,64,48,0
403.38596,403.5656,55,38,0
403.5656,403.74524,60,41,0
403.74524,403.95215,55,40,0
403.95215,404.04196,38,56,0
404.13177,404.3114,50,39,0
404.3114,404.49323,55,41,0
404.49323,404.70303,50,38,0
404.70303,404.8816,59,48,0
404.8816,405.06018,50,39,0
405.06018,405.23874,57,42,0
405.23874,405.46097,50,41,0
405.46097,405.55963,38,51,0
405.65833,405.83585,50,38,0
405.83585,406.01337,55,40,0
406.01337,406.1909,50,38,0
406.1909,406.36328,55,51,0
406.36328,406.5357,59,41,0
406.5357,406.70813,62,45,0
406.70813,406.8867,64,46,0
406.8867,407.22003,65,52,0
407.25705,407.5804,64,40,0
407.61633,407.79282,65,42,0
407.79282,407.96927,69,39,0
407.96927,408.30902,67,47,0
408.34982,408.44186,48,53,0
408.53387,408.71793,55,40,0
408.71793,408.89545,60,42,0
408.89545,409.07297,55,39,0
409.07297,409.2505,59,50,0
409.2505,409.42798,55,34,0
409.42798,409.6055,60,36,0
409.6055,409.8124,55,35,0
409.8124,409.90222,38,49,0
409.99203,410.1717,50,35,0
410.1717,410.35132,55,36,0
410.35132,410.53098,50,35,0
410.53098,410.7106,57,42,0
410.7106,410.89026,50,35,0
410.89026,411.0699,60,37,0
411.0699,411.2768,50,35,0
411.2768,411.3688,43,45,0
411.46085,411.64487,50,37,0
411.64487,411.8224,55,38,0
411.8224,411.9999,50,36,0
411.9999,412.17957,55,42,0
412.17957,412.3592,50,36,0
412.3592,412.5367,55,39,0
412.5367,412.7436,50,34,0
412.7436,412.83344,43,46,0
412.92325,413.10287,50,33,0
413.10287,413.28253,54,34,0
413.28253,413.46216,50,32,0
413.46216,413.6418,54,39,0
413.6418,413.82144,50,33,0
413.82144,414.0011,54,35,0
414.0011,414.20798,50,34,0
414.20798,414.2978,43,46,0
414.38763,414.56726,50,33,0
414.56726,414.74692,55,34,0
414.74692,414.92654,50,33,0
414.92654,415.1062,55,39,0
415.1062,415.28583,50,33,0
415.28583,415.46548,55,35,0
415.46548,415.66104,50,34,0
415.66104,415.75085,43,46,0
415.84067,416.02032,50,33,0
416.02032,416.19995,57,34,0
416.19995,416.4183,50,33,0
416.4183,416.5954,60,39,0
416.5954,416.7725,50,33,0
416.7725,416.9496,60,35,0
416.9496,417.1565,50,34,0
417.1565,417.2485,43,45,0
417.34055,417.52457,50,38,0
417.52457,417.7021,59,42,0
417.7021,417.8796,50,38,0
417.8796,418.05927,59,42,0
418.05927,418.2389,50,36,0
418.2389,418.4164,55,39,0
418.4164,418.6233,50,34,0
418.6233,418.71313,43,46,0
418.80295,418.98257,50,33,0
418.98257,419.16223,54,34,0
419.16223,419.34186,50,32,0
419.34186,419.5215,54,39,0
419.5215,419.70114,50,32,0
419.70114,419.8808,54,35,0
419.8808,420.08768,50,34,0
420.08768,420.17752,43,46,0
420.26733,420.44696,50,32,0
420.44696,420.62662,55,34,0
420.62662,420.80624,50,32,0
420.80624,420.9859,55,39,0
420.9859,421.16553,50,33,0
421.16553,421.34518,55,35,0
421.34518,421.55206,50,34,0
421.55206,421.64188,43,46,0
421.73172,421.91135,50,33,0
421.91135,422.091,57,34,0
422.091,422.27063,50,33,0
422.27063,422.45026,55,39,0
422.45026,422.6299,50,33,0
422.6299,422.80954,54,35,0
422.80954,423.01645,50,34,0
423.01645,423.10846,43,45,0
423.2005,423.38455,50,35,0
423.38455,423.56207,55,38,0
423.56207,423.73956,50,36,0
423.73956,423.91922,55,42,0
423.91922,424.09885,50,33,0
424.09885,424.2785,43,36,0
424.2785,424.48538,45,36,0
424.48538,424.63287,46,39,0
424.63287,424.7804,45,33,0
424.7804,424.9279,43,33,0
424.9279,425.07538,45,33,0
425.07538,425.21863,46,39,0
425.21863,425.3619,43,34,0
425.3619,425.50516,46,34,0
425.50516,425.66525,43,34,0
425.66525,425.81274,46,39,0
425.81274,425.96024,45,31,0
425.96024,426.10773,43,33,0
426.10773,426.25522,45,32,0
426.25522,426.3985,46,39,0
426.3985,426.54175,43,34,0
426.54175,426.68503,46,34,0
426.68503,426.8451,43,34,0
426.8451,427.0052,45,43,0
427.0052,427.16528,40,32,0
427.16528,427.3207,33,34,0
427.3207,427.47617,40,32,0
427.47617,427.6316,45,44,0
427.6316,427.78705,33,34,0
427.78705,427.95944,45,36,0
427.95944,428.13187,33,34,0
428.13187,428.2906,45,43,0
428.2906,428.44934,40,32,0
428.44934,428.60806,33,34,0
428.60806,428.76678,40,33,0
428.76678,428.9255,45,44,0
428.9255,429.08426,33,33,0
429.08426,429.24298,45,36,0
429.24298,429.41638,33,33,0
429.41638,429.56387,46,39,0
429.56387,429.71136,45,33,0
429.71136,429.85886,43,33,0
429.85886,430.00635,45,33,0
430.00635,430.14963,46,39,0
430.14963,430.2929,43,34,0
430.2929,430.43616,46,34,0
430.43616,430.59625,43,34,0
430.59625,430.74374,46,39,0
430.74374,430.89124,45,33,0
430.89124,431.03873,43,33,0
431.03873,431.18622,45,33,0
431.18622,431.3295,46,39,0
431.3295,431.47275,43,34,0
431.47275,431.61603,46,34,0
431.61603,431.7761,43,34,0
431.7761,431.9362,45,43,0
431.9362,432.09628,40,32,0
432.09628,432.2517,33,34,0
432.2517,432.40717,40,32,0
432.40717,432.5626,45,44,0
432.5626,432.71805,33,34,0
432.71805,432.89044,45,36,0
432.89044,433.06287,33,35,0
433.06287,433.2216,45,43,0
433.2216,433.3803,40,34,0
433.3803,433.53906,33,37,0
433.53906,433.69778,40,34,0
433.69778,433.8565,45,44,0
433.8565,434.01526,33,36,0
434.01526,434.17398,45,36,0
434.17398,434.34543,33,35,0
434.34543,434.505,45,43,0
434.505,434.66458,40,34,0
434.66458,434.82416,33,37,0
434.82416,434.98373,40,34,0
434.98373,435.1433,45,44,0
435.1433,435.30286,33,35,0
435.30286,435.46243,45,36,0
435.46243,435.622,33,35,0
435.622,435.94116,45,36,0
436.2462,436.8541,55,36,0
436.2462,436.8541,45,30,0
436.2462,436.8541,52,30,0
437.44736,438.02594,55,37,0
437.44736,438.02594,52,31,0
437.44736,438.02594,45,31,0
438.60452,439.18314,52,34,0
438.60452,439.18314,55,41,0
438.60452,439.18314,45,34,0
439.75284,440.31516,64,45,0
439.75284,440.31516,61,37,0
439.75284,440.31516,57,37,0
440.88824,441.45834,57,37,0
440.88824,441.45834,63,37,0
440.88824,441.45834,66,45,0
442.02597,442.58774,57,37,0
442.02597,442.58774,67,45,0
442.02597,442.58774,64,37,0
443.1372,444.7779,64,37,0
443.1372,444.7779,67,45,0
443.1372,444.7779,57,37,0
448.97647,449.11594,66,36,0
448.97647,449.11594,62,30,0
449.2554,449.3969,57,26,0
449.2554,449.3969,66,31,0
449.53845,449.67856,66,36,0
449.53845,449.67856,62,30,0
449.82382,449.96518,66,31,0
449.82382,449.96518,57,26,0
450.10977,450.24985,64,30,0
450.10977,450.24985,67,36,0
450.38995,450.53003,67,31,0
450.38995,450.53003,57,26,0
450.6701,450.81473,61,30,0
450.6701,450.81473,67,36,0
450.95932,451.10068,67,31,0
450.95932,451.10068,57,26,0
451.2494,451.38947,66,36,0
451.2494,451.38947,62,30,0
451.52954,451.66965,66,30,0
451.52954,451.66965,57,25,0
451.80972,451.95236,62,30,0
451.80972,451.95236,66,36,0
452.095,452.237,57,25,0
452.095,452.237,66,30,0
452.3836,452.52432,64,30,0
452.3836,452.52432,67,36,0
452.66504,452.80576,57,27,0
452.66504,452.80576,67,32,0
452.94647,453.08975,67,36,0
452.94647,453.08975,61,30,0
453.23303,453.3763,67,32,0
453.23303,453.3763,57,27,0
453.52502,453.6645,66,36,0
453.52502,453.6645,62,30,0
453.80396,453.9434,66,31,0
453.80396,453.9434,57,26,0
454.08286,454.2242,66,36,0
454.08286,454.2242,62,30,0
454.36557,454.5069,57,26,0
454.36557,454.5069,66,31,0
454.65997,454.80527,67,36,0
454.65997,454.80527,62,30,0
454.94662,455.08795,67,31,0
454.94662,455.08795,62,26,0
454.94662,455.08795,55,26,0
455.2293,455.37393,62,30,0
455.2293,455.37393,67,36,0
455.51852,455.65988,67,31,0
455.51852,455.65988,62,26,0
455.51852,455.65988,59,26,0
455.8072,455.94727,62,30,0
455.8072,455.94727,66,36,0
456.08737,456.22745,57,25,0
456.08737,456.22745,66,30,0
456.36752,456.5135,62,30,0
456.36752,456.5135,66,36,0
456.65942,456.80078,66,30,0
456.65942,456.80078,57,25,0
456.94742,457.08813,66,36,0
456.94742,457.08813,62,30,0
457.22885,457.36957,57,27,0
457.22885,457.36957,66,32,0
457.51025,457.65353,62,30,0
457.51025,457.65353,66,36,0
457.7968,457.9401,66,32,0
457.7968,457.9401,57,27,0
458.08884,458.22827,66,36,0
458.08884,458.22827,62,30,0
458.36774,458.50992,66,31,0
458.36774,458.50992,57,26,0
458.6521,458.79346,66,36,0
458.6521,458.79346,62,30,0
458.9348,459.07614,66,31,0
458.9348,459.07614,57,26,0
459.22415,459.36426,67,36,0
459.22415,459.36426,64,30,0
459.50433,459.6444,67,31,0
459.50433,459.6444,57,26,0
459.7845,459.9291,64,30,0
459.7845,459.9291,67,36,0
460.0737,460.21832,67,31,0
460.0737,460.21832,57,26,0
460.37924,460.5294,58,30,0
460.37924,460.5294,66,36,0
460.6795,460.8275,61,30,0
460.6795,460.8275,58,25,0
460.97556,461.12015,66,36,0
460.97556,461.12015,58,30,0
461.26477,461.40936,61,30,0
461.26477,461.40936,58,25,0
461.55396,461.69724,59,30,0
461.55396,461.69724,62,36,0
461.8432,461.98267,59,27,0
461.8432,461.98267,62,27,0
461.8432,461.98267,67,32,0
462.12213,462.2622,67,36,0
462.12213,462.2622,55,30,0
462.12213,462.2622,62,30,0
462.40228,462.54236,62,27,0
462.40228,462.54236,59,27,0
462.40228,462.54236,67,32,0
462.6911,462.82812,62,30,0
462.6911,462.82812,66,36,0
462.96515,463.10217,57,26,0
462.96515,463.10217,66,31,0
463.2392,463.37885,62,30,0
463.2392,463.37885,66,36,0
463.5185,463.66263,57,26,0
463.5185,463.66263,66,31,0
463.80676,463.94562,61,30,0
463.80676,463.94562,67,36,0
464.08444,464.23108,67,31,0
464.08444,464.23108,57,26,0
464.36932,464.5094,61,30,0
464.36932,464.5094,67,36,0
464.64948,464.78955,67,31,0
464.64948,464.78955,57,26,0
464.939,465.07846,66,36,0
464.939,465.07846,62,30,0
465.21793,465.3612,57,26,0
465.21793,465.3612,66,31,0
465.5045,465.64713,62,30,0
465.5045,465.64713,66,36,0
465.7924,465.93375,66,31,0
465.7924,465.93375,57,26,0
466.07834,466.21536,50,52,0
466.21536,466.3524,52,46,0
466.3524,466.4894,54,46,0
466.4894,466.62643,59,46,0
466.62643,466.7653,57,52,0
466.7653,466.90414,54,46,0
466.90414,467.0509,52,46,0
467.0509,467.2135,50,46,0
467.2135,467.3629,55,52,0
467.2135,467.3629,49,44,0
467.51236,467.65988,45,46,0
467.51236,467.65988,55,46,0
467.80515,467.95044,55,52,0
467.80515,467.95044,49,44,0
468.0957,468.241,45,42,0
468.0957,468.241,55,50,0
468.38626,468.53088,49,42,0
468.38626,468.53088,55,50,0
468.67548,468.8181,45,42,0
468.67548,468.8181,55,50,0
468.96075,469.10147,49,42,0
468.96075,469.10147,55,50,0
469.2422,469.3902,55,46,0
469.2422,469.3902,45,46,0
469.55276,469.70438,54,52,0
469.55276,469.70438,50,44,0
469.85596,470.00122,45,42,0
469.85596,470.00122,54,50,0
470.1465,470.29178,54,52,0
470.1465,470.29178,50,44,0
470.43707,470.58234,45,42,0
470.43707,470.58234,54,50,0
470.72763,470.87222,50,42,0
470.72763,470.87222,54,50,0
471.01108,471.14993,54,50,0
471.01108,471.14993,45,42,0
471.2888,471.42764,50,42,0
471.2888,471.42764,54,50,0
471.5665,471.7091,54,42,0
471.5665,471.7091,57,50,0
471.85922,471.99808,61,50,0
471.85922,471.99808,57,42,0
472.13693,472.2758,52,42,0
472.13693,472.2758,61,50,0
472.41464,472.55347,61,50,0
472.41464,472.55347,57,42,0
472.69232,472.83423,52,42,0
472.69232,472.83423,61,50,0
472.98224,473.1236,59,42,0
472.98224,473.1236,62,50,0
473.26495,473.4002,62,50,0
473.26495,473.4002,52,42,0
473.54892,473.68478,56,42,0
473.54892,473.68478,62,42,0
473.82062,473.9654,62,50,0
473.82062,473.9654,52,42,0
474.12796,474.70908,61,56,0
474.12796,474.70908,57,50,0
475.30963,475.45355,57,54,0
475.45355,475.5975,59,41,0
475.5975,475.73758,61,51,0
475.73758,475.87766,66,42,0
475.87766,476.0192,64,54,0
476.0192,476.16074,61,40,0
476.16074,476.3093,59,50,0
476.3093,476.47186,57,46,0
476.47186,476.75974,57,57,0
476.75974,476.9037,59,57,0
476.9037,477.04764,57,42,0
477.04764,477.19424,56,53,0
477.19424,477.34088,57,38,0
477.34088,477.48752,56,54,0
477.48752,477.646,57,39,0
477.646,477.78607,59,54,0
477.78607,477.92615,61,43,0
477.92615,478.06622,62,49,0
478.06622,478.20633,66,43,0
478.20633,478.34787,64,54,0
478.34787,478.48938,62,44,0
478.48938,478.63794,61,50,0
478.63794,478.80054,59,44,0
478.80054,479.0845,61,57,0
479.0845,479.2265,60,57,0
479.2265,479.3685,61,50,0
479.3685,479.51376,64,54,0
479.51376,479.65906,61,51,0
479.65906,479.80432,59,54,0
479.80432,479.9597,57,51,0
479.9597,480.10037,55,50,0
480.10037,480.2411,57,46,0
480.2411,480.3818,61,50,0
480.3818,480.52252,66,43,0
480.52252,480.66452,64,48,0
480.66452,480.80652,61,47,0
480.80652,480.9512,57,53,0
480.9512,481.10135,55,49,0
481.10135,481.2427,54,58,0
481.2427,481.38406,56,46,0
481.38406,481.5254,57,51,0
481.5254,481.66675,62,46,0
481.66675,481.81204,53,52,0
481.81204,481.9573,56,41,0
481.9573,482.1035,57,46,0
482.1035,482.2581,62,41,0
482.2581,482.40268,52,50,0
482.40268,482.54727,57,41,0
482.54727,482.6919,59,46,0
482.6919,482.8365,61,41,0
482.8365,482.9811,64,48,0
482.9811,483.1257,62,41,0
483.1257,483.2763,61,44,0
483.2763,483.4389,59,41,0
483.4389,483.58142,57,49,0
483.73633,483.87885,57,49,0
484.03378,484.18835,69,48,0
484.03378,484.18835,61,34,0
484.03378,484.18835,57,34,0
484.34293,484.4975,57,45,0
484.34293,484.4975,69,53,0
484.34293,484.4975,61,45,0
484.65207,484.81723,68,57,0
484.65207,484.81723,62,48,0
484.65207,484.81723,59,48,0
484.9824,485.14755,62,45,0
484.9824,485.14755,59,45,0
484.9824,485.14755,68,54,0
485.3127,485.49203,67,48,0
485.3127,485.49203,61,40,0
485.3127,485.49203,64,40,0
485.67136,485.86627,64,36,0
485.67136,485.86627,67,44,0
485.67136,485.86627,61,36,0
486.0612,486.21448,62,30,0
486.0612,486.21448,66,36,0
486.36777,486.52106,66,31,0
486.36777,486.52106,57,26,0
486.67435,486.82187,62,30,0
486.67435,486.82187,66,36,0
486.97668,487.1249,66,31,0
486.97668,487.1249,57,26,0
487.27747,487.41415,66,36,0
487.27747,487.41415,62,30,0
487.55035,487.6863,57,26,0
487.55035,487.6863,66,31,0
487.82187,487.95682,66,36,0
487.82187,487.95682,62,30,0
488.0946,488.23535,66,31,0
488.0946,488.23535,57,26,0
488.37958,488.52487,62,30,0
488.37958,488.52487,66,36,0
488.67014,488.81543,57,26,0
488.67014,488.81543,66,31,0
488.9607,489.10077,66,36,0
488.9607,489.10077,62,30,0
489.24606,489.3874,66,31,0
489.24606,489.3874,57,26,0
489.532,489.6721,67,36,0
489.532,489.6721,64,30,0
489.81216,489.95227,67,31,0
489.81216,489.95227,57,26,0
490.09235,490.23694,67,36,0
490.09235,490.23694,61,30,0
490.38156,490.5229,67,31,0
490.38156,490.5229,57,26,0
490.67163,490.8117,62,30,0
490.67163,490.8117,66,36,0
490.95178,491.09186,57,25,0
490.95178,491.09186,66,30,0
491.23196,491.3746,62,30,0
491.23196,491.3746,66,36,0
491.51724,491.6592,57,25,0
491.51724,491.6592,66,30,0
491.80585,491.94656,67,36,0
491.80585,491.94656,64,30,0
492.08728,492.228,67,32,0
492.08728,492.228,57,27,0
492.3687,492.512,61,30,0
492.3687,492.512,67,36,0
492.65527,492.79855,57,27,0
492.65527,492.79855,67,32,0
492.94727,493.08673,62,30,0
492.94727,493.08673,66,36,0
493.22617,493.36563,66,31,0
493.22617,493.36563,57,26,0
493.5051,493.64645,66,36,0
493.5051,493.64645,62,30,0
493.78778,493.92914,66,31,0
493.78778,493.92914,57,26,0
494.0822,494.2275,62,30,0
494.0822,494.2275,67,36,0
494.36884,494.5102,55,26,0
494.36884,494.5102,62,26,0
494.36884,494.5102,67,31,0
494.65155,494.79614,67,36,0
494.65155,494.79614,62,30,0
494.94077,495.0821,59,26,0
494.94077,495.0821,62,26,0
494.94077,495.0821,67,31,0
495.22943,495.3695,66,36,0
495.22943,495.3695,62,30,0
495.50958,495.64966,66,30,0
495.50958,495.64966,57,25,0
495.78976,495.9357,62,30,0
495.78976,495.9357,66,36,0
496.08167,496.23254,66,30,0
496.08167,496.23254,57,25,0
496.39972,496.54044,65,30,0
496.39972,496.54044,62,25,0
496.68115,496.82187,57,22,0
496.68115,496.82187,65,27,0
496.96255,497.10583,65,30,0
496.96255,497.10583,62,25,0
497.2491,497.3924,65,27,0
497.2491,497.3924,57,22,0
497.54114,497.68057,65,30,0
497.54114,497.68057,62,25,0
497.82004,497.9595,57,22,0
497.82004,497.9595,65,26,0
498.09897,498.2403,65,30,0
498.09897,498.2403,62,25,0
498.38165,498.523,57,22,0
498.38165,498.523,65,26,0
498.67102,498.8111,65,30,0
498.67102,498.8111,63,25,0
498.95117,499.09128,57,22,0
498.95117,499.09128,63,22,0
498.95117,499.09128,65,27,0
499.23135,499.37595,63,27,0
499.23135,499.37595,65,33,0
499.23135,499.37595,60,27,0
499.52057,499.66516,53,24,0
499.52057,499.66516,65,29,0
499.52057,499.66516,63,24,0
499.8261,499.97623,62,30,0
499.8261,499.97623,65,36,0
499.8261,499.97623,58,30,0
500.12637,500.27438,62,25,0
500.12637,500.27438,65,30,0
500.4224,500.56702,65,36,0
500.4224,500.56702,62,30,0
500.4224,500.56702,58,30,0
500.7116,500.85623,65,30,0
500.7116,500.85623,62,25,0
501.00082,501.1441,58,30,0
501.00082,501.1441,62,30,0
501.00082,501.1441,68,36,0
501.29007,501.4295,58,27,0
501.29007,501.4295,62,27,0
501.29007,501.4295,65,32,0
501.56897,501.70905,58,31,0
501.56897,501.70905,68,38,0
501.56897,501.70905,62,31,0
501.84915,501.98923,58,29,0
501.84915,501.98923,65,35,0
501.84915,501.98923,62,29,0
502.13794,502.27496,66,33,0
502.13794,502.27496,69,40,0
502.13794,502.27496,62,33,0
502.13794,502.27496,57,33,0
502.412,502.549,69,31,0
502.412,502.549,62,26,0
502.412,502.549,66,26,0
502.68604,502.83066,66,30,0
502.68604,502.83066,69,36,0
502.68604,502.83066,57,30,0
502.97525,503.11987,69,31,0
502.97525,503.11987,62,26,0
502.97525,503.11987,66,26,0
503.26447,503.40332,61,30,0
503.26447,503.40332,69,36,0
503.26447,503.40332,67,30,0
503.54218,503.68878,69,31,0
503.54218,503.68878,67,26,0
503.54218,503.68878,57,26,0
503.82703,503.9671,61,30,0
503.82703,503.9671,67,30,0
503.82703,503.9671,69,36,0
504.10718,504.24728,67,26,0
504.10718,504.24728,57,26,0
504.10718,504.24728,69,31,0
504.3967,504.53372,69,40,0
504.3967,504.53372,66,33,0
504.3967,504.53372,57,33,0
504.67075,504.80777,62,26,0
504.67075,504.80777,69,31,0
504.67075,504.80777,66,26,0
504.9448,505.08942,66,30,0
504.9448,505.08942,69,36,0
504.9448,505.08942,57,30,0
505.234,505.37863,62,26,0
505.234,505.37863,66,26,0
505.234,505.37863,69,31,0
505.52322,505.66208,67,36,0
505.52322,505.66208,55,30,0
505.52322,505.66208,62,30,0
505.80093,505.94754,62,25,0
505.80093,505.94754,67,30,0
505.80093,505.94754,59,25,0
506.0858,506.22586,67,33,0
506.0858,506.22586,59,27,0
506.0858,506.22586,62,27,0
506.36597,506.50604,67,27,0
506.36597,506.50604,62,23,0
506.65546,506.79248,62,24,0
506.65546,506.79248,69,30,0
506.65546,506.79248,66,24,0
506.9295,507.06653,57,19,0
506.9295,507.06653,66,19,0
506.9295,507.06653,69,23,0
507.20355,507.34818,66,22,0
507.20355,507.34818,62,22,0
507.20355,507.34818,69,27,0
507.49277,507.6374,66,19,0
507.49277,507.6374,57,19,0
507.49277,507.6374,69,23,0
507.78198,507.92084,61,22,0
507.78198,507.92084,69,27,0
507.78198,507.92084,67,22,0
508.0597,508.20633,69,23,0
508.0597,508.20633,67,19,0
508.0597,508.20633,57,19,0
508.34454,508.48465,69,27,0
508.34454,508.48465,61,22,0
508.34454,508.48465,67,22,0
508.62473,508.7648,69,23,0
508.62473,508.7648,67,19,0
508.62473,508.7648,57,19,0
508.91425,509.05127,66,24,0
508.91425,509.05127,69,30,0
508.91425,509.05127,57,24,0
509.1883,509.32532,69,23,0
509.1883,509.32532,62,19,0
509.1883,509.32532,66,19,0
509.46234,509.60693,66,22,0
509.46234,509.60693,57,22,0
509.46234,509.60693,69,27,0
509.75153,509.89615,69,23,0
509.75153,509.89615,66,19,0
509.75153,509.89615,62,19,0
510.04074,510.1796,62,22,0
510.04074,510.1796,55,22,0
510.04074,510.1796,67,27,0
510.31845,510.4651,67,23,0
510.31845,510.4651,59,19,0
510.31845,510.4651,62,19,0
510.6033,510.7434,67,27,0
510.6033,510.7434,59,22,0
510.6033,510.7434,62,22,0
510.88348,511.02356,67,23,0
510.88348,511.02356,62,19,0
511.173,511.31003,62,24,0
511.173,511.31003,66,30,0
511.44705,511.58408,57,19,0
511.44705,511.58408,66,23,0
511.7211,511.8657,62,22,0
511.7211,511.8657,66,27,0
512.0103,512.1549,66,23,0
512.0103,512.1549,57,19,0
512.2995,512.43835,67,27,0
512.2995,512.43835,61,22,0
512.5772,512.7238,57,19,0
512.5772,512.7238,67,23,0
512.86206,513.00214,67,27,0
512.86206,513.00214,61,22,0
513.1423,513.28235,67,23,0
513.1423,513.28235,57,19,0
513.43176,513.5688,66,30,0
513.43176,513.5688,57,24,0
513.7058,513.84283,66,23,0
513.7058,513.84283,62,19,0
513.97986,514.12445,57,22,0
513.97986,514.12445,66,27,0
514.26904,514.4137,66,23,0
514.26904,514.4137,62,19,0
514.5583,514.69714,55,22,0
514.5583,514.69714,67,27,0
514.5583,514.69714,62,22,0
514.836,514.9826,67,23,0
514.836,514.9826,59,19,0
514.836,514.9826,62,19,0
515.12085,515.2609,62,21,0
515.12085,515.2609,59,21,0
515.12085,515.2609,67,26,0
515.401,515.5411,62,18,0
515.401,515.5411,67,22,0
515.69055,515.8276,66,29,0
515.69055,515.8276,62,23,0
515.9646,516.1016,66,22,0
515.9646,516.1016,57,18,0
516.23865,516.38324,66,25,0
516.23865,516.38324,62,21,0
516.52783,516.6724,66,21,0
516.52783,516.6724,57,18,0
516.817,516.9559,61,20,0
516.817,516.9559,67,25,0
517.0947,517.2414,57,17,0
517.0947,517.2414,67,21,0
517.3796,517.5197,61,20,0
517.3796,517.5197,67,25,0
517.6598,517.79987,67,21,0
517.6598,517.79987,57,17,0
517.9493,518.0863,66,27,0
517.9493,518.0863,62,21,0
518.2233,518.36035,57,17,0
518.2233,518.36035,66,20,0
518.4974,518.64197,66,24,0
518.4974,518.64197,62,19,0
518.7866,518.9312,66,20,0
518.7866,518.9312,57,16,0
519.0758,519.21466,67,23,0
519.0758,519.21466,61,19,0
519.3535,519.5001,67,20,0
519.3535,519.5001,57,16,0
519.63837,519.77844,61,19,0
519.63837,519.77844,67,23,0
519.9185,520.0586,67,19,0
519.9185,520.0586,57,16,0
520.20807,520.3626,66,28,0
520.20807,520.3626,62,24,0
520.5172,520.6587,61,20,0
520.5172,520.6587,66,24,0
520.80023,520.9404,66,28,0
520.80023,520.9404,59,24,0
521.0839,521.21906,57,20,0
521.0839,521.21906,66,24,0
521.35925,521.5078,67,28,0
521.35925,521.5078,61,24,0
521.6563,521.7939,67,24,0
521.6563,521.7939,64,20,0
521.9315,522.06976,67,28,0
521.9315,522.06976,61,24,0
522.208,522.3502,67,24,0
522.208,522.3502,57,20,0
522.5002,522.648,62,24,0
522.5002,522.648,66,28,0
522.7958,522.93726,61,20,0
522.7958,522.93726,66,24,0
523.0788,523.219,66,28,0
523.0788,523.219,59,24,0
523.3625,523.4977,66,24,0
523.3625,523.4977,57,20,0
523.6378,523.7871,61,24,0
523.6378,523.7871,67,28,0
523.93634,524.0772,64,20,0
523.93634,524.0772,67,24,0
524.218,524.3582,61,24,0
524.218,524.3582,67,28,0
524.4984,524.64056,57,20,0
524.4984,524.64056,67,24,0
524.7906,524.93835,54,28,0
524.7906,524.93835,50,24,0
525.0862,525.2297,54,24,0
525.0862,525.2297,49,20,0
525.3732,525.5182,54,28,0
525.3732,525.5182,47,24,0
525.6617,525.8013,54,24,0
525.6617,525.8013,45,20,0
525.9414,526.09296,49,24,0
525.9414,526.09296,55,28,0
526.24445,526.3873,55,24,0
526.24445,526.3873,52,20,0
526.53015,526.6751,49,24,0
526.53015,526.6751,55,28,0
526.82,526.96783,55,24,0
526.82,526.96783,45,20,0
527.1178,527.2671,54,28,0
527.1178,527.2671,50,24,0
527.4163,527.56055,54,24,0
527.4163,527.56055,49,20,0
527.7048,527.8533,54,28,0
527.7048,527.8533,47,24,0
527.9968,528.1377,54,24,0
527.9968,528.1377,45,20,0
528.284,528.43945,49,24,0
528.284,528.43945,55,28,0
528.5949,528.7413,55,24,0
528.5949,528.7413,52,20,0
528.8876,529.03687,49,24,0
528.8876,529.03687,55,28,0
529.1861,529.3546,55,24,0
529.1861,529.3546,45,20,0
529.5213,529.6752,54,28,0
529.5213,529.6752,50,24,0
529.829,529.98285,54,24,0
529.829,529.98285,45,20,0
530.13666,530.2905,50,23,0
530.13666,530.2905,54,27,0
530.4444,530.5982,54,23,0
530.4444,530.5982,45,19,0
530.7521,530.9108,54,27,0
530.7521,530.9108,50,23,0
531.0695,531.2242,54,23,0
531.0695,531.2242,45,19,0
531.3788,531.53345,54,26,0
531.3788,531.53345,50,23,0
531.6881,531.8427,45,19,0
531.6881,531.8427,54,22,0
531.9974,532.15955,42,22,0
531.9974,532.15955,50,26,0
532.3217,532.47797,45,18,0
532.6342,532.79047,50,25,0
532.6342,532.79047,42,22,0
532.9467,533.10297,45,18,0
533.2592,533.41547,42,21,0
533.2592,533.41547,50,25,0
533.5717,533.72797,45,18,0
533.8842,534.04047,50,24,0
533.8842,534.04047,42,21,0
534.1967,534.3554,45,17,0
534.5288,534.68506,38,20,0
534.5288,534.68506,50,24,0
535.1538,535.316,42,24,0
535.47815,535.6403,45,20,0
535.829,536.00446,38,20,0
535.829,536.00446,50,23,0
536.53076,536.7171,42,23,0
536.90344,537.0898,45,19,0
537.3279,537.5013,38,19,0
537.3279,537.5013,50,22,0
538.71515,539.24146,57,18,0
538.71515,539.24146,66,22,0
539.4169,540.0101,66,22,0
539.4169,540.0101,57,18,0
540.2396,540.8703,62,18,0
540.2396,540.8703,66,22,0
541.92145,542.5521,45,22,0
541.92145,542.5521,38,18,0
542.7624,543.52057,45,22,0
543.7733,546.1102,50,22,0
543.7733,546.1102,45,18,0
543.7733,546.1102,38,18,0
