start_time,end_time,note_value,velocity,instrument_program_number
0.6008102,0.93322027,82,48,0
0.93322027,1.0440236,79,48,0
1.0440236,1.1548269,82,44,0
1.1548269,1.2656302,80,40,0
1.2656302,1.3656303,79,48,0
1.3656303,1.4656303,77,45,0
1.4656303,1.5656302,75,40,0
1.5656302,1.6656302,74,48,0
1.6656302,1.7656302,72,45,0
1.7656302,1.8656303,70,42,0
1.8656303,1.9674116,68,48,0
1.9674116,2.069193,67,45,0
2.069193,2.1709743,65,45,0
2.1709743,2.2709742,63,48,0
2.2709742,2.3709743,62,43,0
2.3709743,2.4709742,60,43,0
2.5709743,2.6709743,60,44,0
2.6709743,2.7709742,62,41,0
2.4709742,2.7709742,58,48,0
2.7709742,2.873276,63,48,0
2.873276,2.9755776,62,44,0
2.9755776,3.0778792,63,44,0
3.0778792,3.1778793,64,53,0
3.1778793,3.2778792,63,50,0
3.2778792,3.3778791,64,49,0
3.3778791,3.4778793,65,55,0
3.4778793,3.5778792,64,49,0
3.5778792,3.6778793,65,50,0
3.6778793,3.7796607,66,60,0
3.7796607,3.8814418,65,53,0
3.8814418,3.9832232,66,53,0
3.9832232,4.0832233,67,54,0
4.0832233,4.1832232,66,51,0
4.1832232,4.283223,67,50,0
4.283223,4.383223,68,48,0
4.383223,4.4832234,67,45,0
4.4832234,4.5832233,68,48,0
4.5832233,4.6847463,67,48,0
4.6847463,4.786269,70,51,0
4.786269,4.887792,68,51,0
4.887792,4.987792,67,50,0
4.987792,5.0877924,68,47,0
5.0877924,5.1877923,70,47,0
5.1877923,5.287792,72,49,0
5.287792,5.387792,74,46,0
5.387792,5.487792,75,46,0
5.487792,5.590094,77,48,0
5.590094,5.6923957,84,49,0
5.6923957,5.7946973,82,49,0
5.7946973,5.894697,80,48,0
5.894697,5.994697,79,45,0
5.994697,6.0946975,77,43,0
6.0946975,6.1946974,75,48,0
6.1946974,6.2946973,74,45,0
6.2946973,6.394697,72,43,0
6.394697,6.4964786,70,47,0
6.4964786,6.59826,77,48,0
6.59826,6.7000413,75,45,0
6.7000413,6.800041,74,48,0
6.800041,6.900041,72,45,0
6.900041,7.0000415,70,43,0
7.0000415,7.1000414,68,48,0
7.1000414,7.2000413,67,43,0
7.2000413,7.300041,65,45,0
7.300041,7.4034004,63,48,0
7.4034004,7.50676,65,45,0
7.50676,7.6101193,67,43,0
7.6101193,7.7101192,68,52,0
7.7101192,7.810119,70,51,0
7.810119,7.910119,72,55,0
7.910119,8.010119,74,59,0
8.010119,8.110119,75,55,0
8.110119,8.210119,77,58,0
8.210119,8.320923,79,65,0
8.320923,8.4317255,82,61,0
8.4317255,8.542529,80,58,0
8.542529,8.6425295,79,63,0
8.6425295,8.742529,77,57,0
8.742529,8.842529,75,54,0
8.842529,8.94253,74,64,0
8.94253,9.042529,72,59,0
9.042529,9.1425295,70,58,0
9.1425295,9.243794,68,63,0
9.243794,9.34506,67,59,0
9.34506,9.446326,65,54,0
9.446326,9.546327,63,63,0
9.546327,9.646326,62,53,0
9.646326,9.746326,60,51,0
9.846326,9.946326,60,54,0
9.946326,10.046327,62,51,0
9.746326,10.046327,58,63,0
10.046327,10.148108,63,63,0
10.148108,10.249889,62,55,0
10.249889,10.35167,63,51,0
10.35167,10.451671,64,63,0
10.451671,10.55167,63,56,0
10.55167,10.65167,64,54,0
10.65167,10.75167,65,63,0
10.75167,10.85167,64,59,0
10.85167,10.951671,65,55,0
10.951671,11.052936,66,68,0
11.052936,11.1542015,65,61,0
11.1542015,11.255467,66,59,0
11.255467,11.355467,67,64,0
11.355467,11.455467,66,61,0
11.455467,11.555468,67,59,0
11.555468,11.655467,68,63,0
11.655467,11.755467,67,60,0
11.755467,11.855467,68,57,0
11.855467,11.957249,67,63,0
11.957249,12.05903,70,60,0
12.05903,12.160811,68,58,0
12.160811,12.260811,67,63,0
12.260811,12.360811,68,60,0
12.360811,12.460812,70,60,0
12.460812,12.560811,72,63,0
12.560811,12.660811,74,58,0
12.660811,12.760811,75,58,0
12.760811,12.863376,77,63,0
12.863376,12.9659395,84,64,0
12.9659395,13.068503,82,58,0
13.068503,13.168503,80,64,0
13.168503,13.268503,79,61,0
13.268503,13.368504,77,57,0
13.368504,13.468503,75,63,0
13.468503,13.568503,74,60,0
13.568503,13.668503,72,57,0
13.668503,13.770285,70,62,0
13.770285,13.872066,77,63,0
13.872066,13.973847,75,58,0
13.973847,14.073847,74,63,0
14.073847,14.173847,75,59,0
14.173847,14.273848,77,59,0
14.273848,14.373847,79,63,0
14.373847,14.473847,80,59,0
14.473847,14.573847,82,59,0
14.573847,14.676149,75,63,0
14.676149,14.778451,77,59,0
14.778451,14.880753,79,59,0
14.880753,14.980752,80,63,0
14.980752,15.080752,82,58,0
15.080752,15.180752,84,58,0
15.180752,15.280752,86,63,0
15.280752,15.380753,87,58,0
15.380753,15.480752,89,58,0
15.480752,15.592173,91,67,0
15.592173,15.703593,94,63,0
15.703593,15.815014,92,61,0
15.815014,15.915265,91,67,0
15.915265,16.015516,89,63,0
16.015516,16.115767,87,59,0
16.115767,16.216017,86,64,0
16.216017,16.316267,84,59,0
16.316267,16.41652,82,56,0
16.41652,16.519083,80,63,0
16.519083,16.621647,79,59,0
16.621647,16.72421,77,57,0
16.72421,16.824211,75,63,0
16.824211,16.92421,74,59,0
16.92421,17.02421,72,56,0
17.02421,17.12421,70,63,0
17.12421,17.22421,72,59,0
17.22421,17.324211,74,59,0
17.324211,17.426775,75,66,0
17.426775,17.529339,74,61,0
17.529339,17.631903,75,61,0
17.631903,17.731903,76,66,0
17.731903,17.831902,75,63,0
17.831902,17.931902,76,61,0
17.931902,18.031902,77,70,0
18.031902,18.131903,76,66,0
18.131903,18.231903,77,63,0
18.231903,18.334204,78,72,0
18.334204,18.436506,77,67,0
18.436506,18.538807,78,65,0
18.538807,18.638807,79,70,0
18.638807,18.738808,78,65,0
18.738808,18.838808,79,63,0
18.838808,18.938807,80,64,0
18.938807,19.038807,79,61,0
19.038807,19.138807,80,61,0
19.138807,19.24111,79,63,0
19.24111,19.34341,82,59,0
19.34341,19.445713,80,59,0
19.445713,19.545712,79,63,0
19.545712,19.645712,80,59,0
19.645712,19.745712,82,59,0
19.745712,19.845713,84,63,0
19.845713,19.945713,86,60,0
19.945713,20.045712,87,60,0
20.045712,20.156563,89,64,0
20.156563,20.267982,96,62,0
20.267982,20.379404,94,59,0
20.379404,20.479975,92,62,0
20.479975,20.579975,91,56,0
20.579975,20.679974,89,56,0
20.679974,20.779974,87,59,0
20.779974,20.879974,86,58,0
20.879974,20.979975,84,53,0
20.979975,21.08124,82,53,0
21.08124,21.182505,89,55,0
21.182505,21.283772,87,51,0
21.283772,21.383772,86,54,0
21.383772,21.48377,84,53,0
21.48377,21.58377,82,48,0
21.58377,21.683771,80,51,0
21.683771,21.783772,79,50,0
21.783772,21.883772,77,49,0
21.883772,21.985552,75,48,0
21.985552,22.087334,79,47,0
22.087334,22.189116,77,46,0
22.189116,22.289116,75,45,0
22.289116,22.389114,74,45,0
22.389114,22.489115,72,44,0
22.489115,22.589115,70,43,0
22.589115,22.689116,68,42,0
22.689116,22.789116,65,41,0
22.789116,22.899006,66,40,0
22.899006,23.008896,70,38,0
23.008896,23.118786,68,39,0
23.118786,23.220566,66,41,0
23.220566,23.322348,65,37,0
23.322348,23.42413,63,32,0
23.42413,23.525911,61,41,0
23.525911,23.627691,59,37,0
23.627691,23.729473,58,32,0
23.729473,23.84376,59,41,0
23.84376,23.958044,63,39,0
23.958044,24.07233,68,39,0
24.180439,24.288546,63,37,0
24.288546,24.396654,68,30,0
24.396654,24.504763,66,37,0
24.504763,24.612871,63,35,0
24.612871,24.720978,66,32,0
24.07233,24.720978,71,44,0
24.720978,24.820978,65,41,0
24.820978,24.920979,71,37,0
24.920979,25.020979,70,32,0
25.020979,25.120977,68,41,0
25.120977,25.220978,66,37,0
25.220978,25.320978,65,31,0
25.320978,25.420979,63,36,0
25.420979,25.520979,61,36,0
25.520979,25.620977,59,31,0
25.620977,25.73209,58,41,0
25.73209,25.8432,61,38,0
25.8432,25.953894,66,30,0
26.059435,26.164976,61,38,0
26.164976,26.270517,66,32,0
26.270517,26.376057,65,36,0
26.376057,26.481598,61,34,0
26.481598,26.586723,65,31,0
25.953894,26.586723,70,44,0
26.586723,26.686724,63,40,0
26.686724,26.786724,70,41,0
26.786724,26.886724,68,37,0
26.886724,26.986725,66,41,0
26.986725,27.086723,65,37,0
27.086723,27.186724,63,31,0
27.186724,27.286724,61,37,0
27.286724,27.386724,59,34,0
27.386724,27.486725,58,31,0
27.486725,27.60101,56,41,0
27.60101,27.715296,59,37,0
27.715296,27.82958,65,37,0
27.937107,28.044636,59,39,0
28.044636,28.152163,65,33,0
28.152163,28.25969,63,37,0
28.25969,28.367216,59,33,0
28.367216,28.474743,63,34,0
27.82958,28.474743,68,44,0
28.474743,28.574743,62,41,0
28.574743,28.674744,68,37,0
28.674744,28.774742,66,37,0
28.774742,28.874743,65,41,0
28.874743,28.974743,63,38,0
28.974743,29.074743,62,33,0
29.074743,29.174744,59,37,0
29.174744,29.274742,58,35,0
29.274742,29.374743,56,35,0
29.374743,29.491022,54,41,0
29.491022,29.607302,58,37,0
29.607302,29.72358,63,39,0
29.83287,29.94216,58,35,0
29.94216,30.051449,63,35,0
30.051449,30.160738,61,40,0
30.160738,30.27003,58,35,0
30.27003,30.378622,61,35,0
29.72358,30.378622,66,44,0
30.378622,30.489733,59,41,0
30.489733,30.600843,63,38,0
30.600843,30.711536,68,38,0
30.817078,30.922619,63,37,0
30.922619,31.02816,68,37,0
31.02816,31.133701,66,39,0
31.133701,31.23924,63,36,0
31.23924,31.344782,66,36,0
30.711536,31.344782,71,44,0
31.461824,31.579472,65,41,0
31.579472,31.697119,62,41,0
31.344782,31.697119,71,48,0
31.814766,31.932413,65,41,0
31.932413,32.05006,62,41,0
31.697119,32.05006,70,47,0
32.167706,32.285355,68,41,0
32.285355,32.403,65,41,0
32.05006,32.403,74,47,0
32.403,32.52065,75,47,0
32.52065,32.6209,78,39,0
32.6209,32.72115,77,39,0
32.72115,32.8214,75,42,0
32.8214,32.92165,73,36,0
32.92165,33.0219,71,36,0
33.0219,33.12215,70,43,0
33.12215,33.2224,68,37,0
33.2224,33.32265,65,36,0
33.32265,33.422905,66,39,0
33.422905,33.523155,70,39,0
33.523155,33.623405,68,36,0
33.623405,33.723656,66,39,0
33.723656,33.823906,65,36,0
33.823906,33.924156,63,36,0
33.924156,34.024406,61,39,0
34.024406,34.124657,59,36,0
34.124657,34.224907,58,36,0
34.224907,34.336018,59,40,0
34.336018,34.447132,62,40,0
34.447132,34.558243,65,37,0
34.67589,34.793884,65,40,0
34.793884,34.91188,62,37,0
34.91188,35.018044,65,40,0
35.018044,35.123585,61,37,0
35.123585,35.229126,59,37,0
34.558243,35.229126,71,44,0
35.229126,35.329403,58,40,0
35.329403,35.4294,70,40,0
35.4294,35.529404,68,36,0
35.529404,35.629402,66,40,0
35.629402,35.7294,65,40,0
35.7294,35.829403,63,38,0
35.829403,35.9294,61,40,0
35.9294,36.029404,59,37,0
36.029404,36.129402,58,35,0
36.129402,36.240513,59,39,0
36.240513,36.351624,62,35,0
36.351624,36.462734,65,36,0
36.580383,36.69838,65,37,0
36.69838,36.816372,62,37,0
36.816372,36.921635,65,40,0
36.921635,37.026897,61,40,0
37.026897,37.13216,59,36,0
36.462734,37.13216,71,45,0
37.13216,37.243275,61,40,0
37.243275,37.354385,66,37,0
37.354385,37.465057,70,37,0
37.57032,37.675583,70,40,0
37.675583,37.780846,66,36,0
37.780846,37.88611,65,39,0
37.88611,37.99137,66,37,0
37.99137,38.096634,64,38,0
37.465057,38.096634,73,45,0
38.096634,38.208054,63,39,0
38.208054,38.319477,68,39,0
38.319477,38.430897,71,39,0
38.53647,38.64173,71,38,0
38.64173,38.746994,68,38,0
38.746994,38.852257,67,40,0
38.852257,38.95752,68,39,0
38.95752,39.062782,66,39,0
38.430897,39.062782,75,46,0
39.062782,39.173893,65,40,0
39.173893,39.285004,66,40,0
39.285004,39.396114,67,38,0
39.396114,39.496117,68,40,0
39.496117,39.596115,70,40,0
39.596115,39.696114,71,39,0
39.696114,39.796116,73,40,0
39.796116,39.896114,75,40,0
39.896114,39.996117,77,39,0
39.996117,40.102497,78,39,0
40.102497,40.20888,82,45,0
40.20888,40.315266,80,42,0
40.315266,40.415264,78,41,0
40.415264,40.515263,77,41,0
40.515263,40.615265,75,40,0
40.615265,40.715263,73,40,0
40.715263,40.815266,71,40,0
40.815266,40.915264,70,39,0
40.915264,41.026115,68,40,0
41.026115,41.137535,71,38,0
41.137535,41.248955,70,38,0
41.248955,41.348953,68,38,0
41.348953,41.448956,66,37,0
41.448956,41.548954,65,35,0
41.548954,41.648956,63,40,0
41.648956,41.748955,62,33,0
41.748955,41.848953,65,33,0
41.848953,41.959805,68,33,0
41.959805,42.071224,71,33,0
42.071224,42.18179,70,33,0
42.18179,42.281788,68,33,0
42.281788,42.38179,66,33,0
42.38179,42.48179,65,33,0
42.48179,42.58179,63,40,0
42.58179,42.68179,62,33,0
42.68179,42.781788,65,33,0
42.781788,42.898228,68,32,0
42.898228,43.01553,71,32,0
43.01553,43.13283,70,32,0
43.13283,43.23283,68,32,0
43.23283,43.332832,66,32,0
43.332832,43.43283,65,32,0
43.43283,43.53283,63,39,0
43.53283,43.63283,62,32,0
43.63283,43.73283,65,32,0
43.73283,43.832832,68,32,0
43.832832,43.93283,71,34,0
43.93283,44.03283,74,36,0
44.03283,44.13283,71,39,0
44.13283,44.23283,74,40,0
44.23283,44.332832,77,41,0
44.332832,44.43283,74,43,0
44.43283,44.53283,77,45,0
44.53283,44.63283,78,46,0
44.63283,44.743095,80,50,0
44.743095,44.853897,83,48,0
44.853897,44.96389,82,48,0
44.96389,45.06389,80,50,0
45.06389,45.16389,78,48,0
45.16389,45.26389,77,48,0
45.26389,45.36389,75,53,0
45.36389,45.46389,74,47,0
45.46389,45.564724,77,47,0
45.564724,45.675835,80,47,0
45.675835,45.786945,83,47,0
45.786945,45.898056,82,46,0
45.898056,45.998055,80,47,0
45.998055,46.098057,78,45,0
46.098057,46.198055,77,45,0
46.198055,46.298058,75,52,0
46.298058,46.398056,74,48,0
46.398056,46.498055,77,48,0
46.498055,46.595856,80,48,0
46.595856,46.693657,83,48,0
46.693657,46.791454,80,51,0
46.791454,46.889256,83,53,0
46.889256,46.987053,80,54,0
46.987053,47.084854,83,56,0
47.084854,47.182655,80,57,0
47.182655,47.280453,83,60,0
47.280453,47.378254,80,61,0
47.378254,47.478268,82,61,0
47.478268,47.58161,80,56,0
47.58161,47.6897,82,53,0
47.6897,47.803032,80,48,0
47.803032,47.922104,82,44,0
47.922104,48.047573,80,40,0
48.047573,48.18011,82,36,0
48.18011,48.320564,80,32,0
48.320564,48.470005,82,27,0
48.470005,48.594654,79,48,0
48.594654,48.719654,82,45,0
48.719654,48.844654,80,43,0
48.844654,48.944656,79,48,0
48.944656,49.044655,77,45,0
49.044655,49.144657,75,43,0
49.144657,49.244656,74,48,0
49.244656,49.344654,72,46,0
49.344654,49.444656,70,45,0
49.444656,49.54775,68,48,0
49.54775,49.65084,67,46,0
49.65084,49.753933,65,44,0
49.753933,49.853935,63,48,0
49.853935,49.953934,62,45,0
49.953934,50.053932,60,45,0
50.153934,50.253933,60,46,0
50.253933,50.353935,62,45,0
50.053932,50.353935,58,48,0
50.353935,50.455715,63,48,0
50.455715,50.557495,62,46,0
50.557495,50.65928,63,44,0
50.65928,50.759277,64,50,0
50.759277,50.85928,63,49,0
50.85928,50.95928,64,45,0
50.95928,51.059277,65,54,0
51.059277,51.15928,64,51,0
51.15928,51.259277,65,46,0
51.259277,51.3608,66,57,0
51.3608,51.462322,65,52,0
51.462322,51.563847,66,48,0
51.563847,51.663845,67,56,0
51.663845,51.763847,66,52,0
51.763847,51.863846,67,48,0
51.863846,51.96385,68,48,0
51.96385,52.063847,67,45,0
52.063847,52.163845,68,45,0
52.163845,52.266674,67,48,0
52.266674,52.369503,70,48,0
52.369503,52.47233,68,45,0
52.47233,52.57233,67,48,0
52.57233,52.67233,68,45,0
52.67233,52.77233,70,43,0
52.77233,52.87233,72,48,0
52.87233,52.97233,74,45,0
52.97233,53.07233,75,44,0
53.07233,53.179283,77,50,0
53.179283,53.286236,84,50,0
53.286236,53.393185,82,46,0
53.393185,53.493187,80,51,0
53.493187,53.593185,79,48,0
53.593185,53.693188,77,45,0
53.693188,53.793186,75,48,0
53.793186,53.893185,74,45,0
53.893185,53.993187,72,45,0
53.993187,54.096012,74,46,0
54.096012,54.19884,77,46,0
54.19884,54.30167,75,46,0
54.30167,54.40167,74,49,0
54.40167,54.50167,75,50,0
54.50167,54.60167,77,48,0
54.60167,54.701668,79,53,0
54.701668,54.80167,80,51,0
54.80167,54.90167,82,51,0
54.90167,55.004498,75,55,0
55.004498,55.107323,77,56,0
55.107323,55.21015,79,56,0
55.21015,55.31015,80,58,0
55.31015,55.410152,82,59,0
55.410152,55.51015,84,57,0
55.51015,55.610153,86,61,0
55.610153,55.71015,87,62,0
55.71015,55.81015,89,59,0
55.81015,55.921574,91,64,0
55.921574,56.032993,94,62,0
56.032993,56.144413,92,58,0
56.144413,56.244663,91,64,0
56.244663,56.344913,89,61,0
56.344913,56.445168,87,60,0
56.445168,56.545418,86,64,0
56.545418,56.645668,84,58,0
56.645668,56.74592,82,55,0
56.74592,56.84822,80,64,0
56.84822,56.95052,79,62,0
56.95052,57.052822,77,61,0
57.052822,57.152824,75,59,0
57.152824,57.252823,74,57,0
57.252823,57.35282,72,55,0
57.35282,57.452824,70,54,0
57.452824,57.552822,72,52,0
57.552822,57.652824,74,50,0
57.652824,57.755386,75,48,0
57.755386,57.857952,74,48,0
57.857952,57.960514,75,48,0
57.960514,58.060516,76,52,0
58.060516,58.160515,75,49,0
58.160515,58.260513,76,49,0
58.260513,58.360516,77,54,0
58.360516,58.460514,76,50,0
58.460514,58.560516,77,49,0
58.560516,58.668915,78,56,0
58.668915,58.777317,77,52,0
58.777317,58.88572,78,52,0
58.88572,58.985718,79,56,0
58.985718,59.085716,78,51,0
59.085716,59.18572,79,51,0
59.18572,59.285717,80,51,0
59.285717,59.38572,79,48,0
59.38572,59.485718,80,48,0
59.485718,59.586727,79,48,0
59.586727,59.687737,78,48,0
59.687737,59.78875,79,48,0
59.78875,59.88875,80,50,0
59.88875,59.988747,79,51,0
59.988747,60.08875,80,48,0
60.08875,60.188747,82,53,0
60.188747,60.28875,80,54,0
60.28875,60.38875,82,52,0
60.38875,60.490788,80,56,0
60.490788,60.59283,79,56,0
60.59283,60.69487,80,53,0
60.69487,60.79487,82,58,0
60.79487,60.89487,80,59,0
60.89487,60.99487,82,54,0
60.99487,61.09487,84,61,0
61.09487,61.19487,83,60,0
61.19487,61.29487,84,60,0
61.29487,61.396652,86,64,0
61.396652,61.498432,85,63,0
61.498432,61.600212,86,63,0
61.600212,61.700214,88,66,0
61.700214,61.800213,86,65,0
61.800213,61.900215,88,62,0
61.900215,62.000214,90,69,0
62.000214,62.100212,88,68,0
62.100212,62.200214,90,65,0
62.200214,62.302517,91,72,0
62.302517,62.404816,90,72,0
62.404816,62.50712,91,68,0
62.50712,62.60712,93,74,0
62.60712,62.70712,91,73,0
62.70712,62.807117,93,70,0
62.807117,62.90712,95,77,0
62.90712,63.00712,93,76,0
63.00712,63.10712,95,72,0
63.10712,63.20916,96,81,0
63.20916,63.3112,95,77,0
63.3112,63.413242,96,73,0
63.413242,63.51324,98,81,0
63.51324,63.61324,96,77,0
63.61324,63.71324,98,73,0
63.71324,63.81324,100,81,0
63.81324,63.913242,98,78,0
63.913242,64.013245,100,73,0
64.013245,64.12019,101,81,0
64.12019,64.22714,99,73,0
64.22714,64.3341,97,70,0
64.3341,64.4341,96,81,0
64.4341,64.534096,94,74,0
64.534096,64.634094,92,72,0
64.634094,64.7341,91,81,0
64.7341,64.8341,89,74,0
64.8341,64.9341,87,71,0
64.9341,65.03588,86,81,0
65.03588,65.13766,84,74,0
65.13766,65.23944,82,67,0
65.23944,65.33944,81,81,0
65.33944,65.43944,82,74,0
65.43944,65.539444,84,70,0
65.539444,65.63944,86,81,0
65.63944,65.73944,87,75,0
65.73944,65.83944,89,70,0
65.83944,65.95086,90,87,0
65.95086,66.06228,94,79,0
66.06228,66.173706,92,77,0
66.173706,66.27428,90,81,0
66.27428,66.374275,89,72,0
66.374275,66.47427,87,69,0
66.47427,66.57427,85,79,0
66.57427,66.67427,83,72,0
66.67427,66.77428,82,69,0
66.77428,66.8857,83,87,0
66.8857,66.997116,87,78,0
66.997116,67.108536,85,72,0
67.108536,67.20911,83,81,0
67.20911,67.309105,82,75,0
67.309105,67.4091,80,75,0
67.4091,67.50911,78,81,0
67.50911,67.60911,77,72,0
67.60911,67.70911,75,68,0
67.70911,67.82022,74,87,0
67.82022,67.93133,77,77,0
67.93133,68.04244,75,74,0
68.04244,68.14244,74,81,0
68.14244,68.24244,71,72,0
68.24244,68.34244,70,69,0
68.34244,68.44244,68,79,0
68.44244,68.54244,66,68,0
68.54244,68.64244,65,63,0
68.64244,68.7564,78,89,0
68.7564,68.87036,82,75,0
68.87036,68.98432,80,70,0
68.98432,69.08432,78,80,0
69.08432,69.18432,77,73,0
69.18432,69.28432,75,70,0
69.28432,69.38432,73,79,0
69.38432,69.48432,71,70,0
69.48432,69.58432,70,64,0
69.58432,69.70517,71,85,0
69.70517,69.82601,75,77,0
69.82601,69.94686,73,74,0
69.94686,70.04686,71,80,0
70.04686,70.14686,70,74,0
70.14686,70.24686,68,71,0
70.24686,70.346855,66,78,0
70.346855,70.44686,65,70,0
70.44686,70.54686,63,67,0
70.54686,70.65797,62,89,0
70.65797,70.76908,65,77,0
70.76908,70.88019,63,77,0
70.88019,70.980194,62,81,0
70.980194,71.08019,59,77,0
71.08019,71.18019,58,73,0
71.18019,71.28019,56,81,0
71.28019,71.38019,54,76,0
71.38019,71.480194,53,72,0
71.480194,71.58019,51,81,0
71.58019,71.68019,53,79,0
71.68019,71.78019,54,79,0
71.78019,71.89075,56,89,0
71.89075,72.001854,59,81,0
72.001854,72.11297,58,81,0
72.11297,72.22408,56,81,0
72.22408,72.33519,54,77,0
72.33519,72.446304,53,77,0
72.446304,72.54686,51,81,0
72.54686,72.64686,53,76,0
72.64686,72.74686,54,76,0
72.74686,72.857414,56,89,0
72.857414,72.96852,59,77,0
72.96852,73.079636,58,78,0
73.079636,73.19074,56,81,0
73.19074,73.30186,54,77,0
73.30186,73.412964,53,77,0
73.412964,73.51322,51,81,0
73.51322,73.61347,53,78,0
73.61347,73.71372,54,78,0
73.71372,73.82483,56,89,0
73.82483,73.93594,59,78,0
73.93594,74.04705,58,78,0
74.04705,74.158165,56,81,0
74.158165,74.26927,54,78,0
74.26927,74.38039,53,78,0
74.38039,74.480385,51,81,0
74.480385,74.58038,53,81,0
74.58038,74.68038,54,78,0
74.68038,74.78039,56,85,0
74.78039,74.88039,58,87,0
74.88039,74.980385,60,85,0
74.980385,75.08038,62,90,0
75.08038,75.18038,63,92,0
75.18038,75.28039,65,89,0
75.28039,75.88039,66,96,0
76.18038,76.78039,70,97,0
76.18038,76.78039,58,81,0
76.18038,76.78039,61,81,0
76.18038,76.78039,66,81,0
77.45756,77.56867,59,72,0
77.56867,77.67978,62,67,0
77.67978,77.79089,66,67,0
77.79089,78.12422,59,72,0
77.12422,78.12422,71,92,0
78.45756,78.56867,59,72,0
78.56867,78.67978,61,68,0
78.67978,78.79089,67,68,0
78.79089,79.12422,59,72,0
78.12422,79.12422,71,91,0
79.28253,79.44085,66,72,0
79.28253,79.44085,62,64,0
79.12422,79.44085,71,85,0
79.59916,79.75747,66,79,0
79.59916,79.75747,64,71,0
79.44085,79.75747,73,92,0
79.91578,80.07409,66,72,0
79.91578,80.07409,62,64,0
79.75747,80.07409,74,85,0
80.407425,80.51854,61,72,0
80.51854,80.62965,66,68,0
80.62965,80.74076,70,68,0
80.74076,81.07409,61,72,0
80.07409,81.07409,73,88,0
81.407425,81.51853,66,81,0
81.51853,81.62965,70,75,0
81.62965,81.74076,73,75,0
81.74076,82.07409,66,81,0
81.07409,82.07409,78,95,0
82.407425,82.51853,62,72,0
82.51853,82.62965,66,68,0
82.62965,82.74075,71,68,0
82.74075,83.07409,62,72,0
82.07409,83.07409,74,91,0
83.07409,83.23538,71,72,0
83.23538,83.39667,64,72,0
83.07409,83.39667,73,85,0
83.39667,83.55796,71,74,0
83.55796,83.71925,64,72,0
83.39667,83.71925,76,88,0
83.71925,83.88054,71,68,0
83.88054,84.04183,64,72,0
83.71925,84.04183,73,89,0
84.37609,84.48752,62,72,0
84.48752,84.59894,66,67,0
84.59894,84.71036,71,67,0
84.71036,84.891624,62,72,0
84.04183,85.07289,74,93,0
85.40623,85.51734,59,32,0
85.51734,85.62845,62,33,0
85.62845,85.73956,66,33,0
85.73956,86.07289,59,33,0
85.07289,86.07289,71,54,0
86.40623,86.517334,59,34,0
86.517334,86.62845,61,33,0
86.62845,86.73956,67,32,0
86.73956,87.07289,59,32,0
86.07289,87.07289,71,54,0
87.23375,87.39461,66,37,0
87.23375,87.39461,62,33,0
87.07289,87.39461,71,48,0
87.555466,87.716324,66,42,0
87.555466,87.716324,64,37,0
87.39461,87.716324,73,53,0
87.87718,88.03804,66,36,0
87.87718,88.03804,62,32,0
87.716324,88.03804,74,48,0
88.371376,88.48248,61,33,0
88.48248,88.5936,66,34,0
88.5936,88.704704,70,35,0
88.704704,89.03804,61,35,0
88.03804,89.03804,73,48,0
89.371376,89.48248,66,64,0
89.48248,89.5936,70,58,0
89.5936,89.704704,73,58,0
89.704704,90.03804,66,64,0
89.03804,90.03804,78,81,0
90.37137,90.48248,62,64,0
90.48248,90.59359,66,59,0
90.59359,90.704704,71,64,0
90.704704,91.03804,62,64,0
90.03804,91.03804,74,81,0
91.19623,91.35412,66,57,0
91.19623,91.35412,68,64,0
91.03804,91.35412,71,80,0
91.51202,91.66991,66,57,0
91.51202,91.66991,68,64,0
91.35412,91.66991,74,89,0
91.827805,91.985695,66,57,0
91.827805,91.985695,68,64,0
91.66991,91.985695,71,81,0
92.31996,92.43795,61,48,0
92.43795,92.55595,65,48,0
92.55595,92.67394,68,48,0
92.67394,93.02792,61,49,0
91.985695,93.02792,73,81,0
93.360695,93.4715,57,32,0
93.4715,93.5823,61,32,0
93.5823,93.6931,66,33,0
93.6931,94.02551,57,33,0
93.02792,94.02551,69,48,0
94.357925,94.46873,55,32,0
94.46873,94.57953,59,32,0
94.57953,94.69033,62,32,0
94.69033,95.02274,55,33,0
94.02551,95.02274,67,48,0
95.02274,95.180916,61,40,0
95.180916,95.338806,56,40,0
95.02274,95.338806,65,49,0
95.338806,95.496704,61,40,0
95.496704,95.654594,56,40,0
95.338806,95.654594,68,49,0
95.654594,95.81249,61,40,0
95.81249,95.97038,56,40,0
95.654594,95.97038,65,48,0
96.30372,96.41483,54,32,0
96.41483,96.52594,57,32,0
96.52594,96.637054,61,32,0
96.637054,96.97038,54,32,0
95.97038,96.97038,66,48,0
97.36928,97.48179,54,72,0
97.48179,97.59321,59,64,0
97.59321,97.704636,62,64,0
97.704636,98.038895,54,72,0
96.97038,98.038895,66,85,0
98.37315,98.48457,54,32,0
98.48457,98.596,57,32,0
98.596,98.70742,61,32,0
98.70742,99.04168,54,32,0
98.038895,99.04168,66,48,0
99.04168,99.147514,56,48,0
99.147514,99.25306,57,50,0
99.25306,99.3586,59,53,0
99.3586,99.464134,61,55,0
99.464134,99.56968,62,57,0
99.56968,99.67522,61,55,0
99.67522,99.78076,59,53,0
99.78076,99.8863,57,50,0
99.8863,99.991844,56,48,0
99.04168,99.991844,65,64,0
100.32517,100.43629,54,32,0
100.43629,100.5474,57,32,0
100.5474,100.65851,61,32,0
100.65851,100.991844,54,32,0
99.991844,100.991844,66,48,0
101.39318,101.505424,54,72,0
101.505424,101.61654,59,66,0
101.61654,101.727646,62,66,0
101.727646,102.06098,54,72,0
100.991844,102.06098,66,84,0
102.39431,102.505424,54,32,0
102.505424,102.61653,57,32,0
102.61653,102.727646,61,32,0
102.727646,103.06098,54,32,0
102.06098,103.06098,66,48,0
103.06098,103.1685,56,48,0
103.1685,103.27603,57,50,0
103.27603,103.38356,59,53,0
103.38356,103.49109,61,55,0
103.49109,103.59861,62,57,0
103.59861,103.70614,61,55,0
103.70614,103.81367,59,53,0
103.81367,103.921196,57,50,0
103.921196,104.028725,56,48,0
103.06098,104.028725,65,64,0
104.36188,104.472984,54,32,0
104.472984,104.5841,57,32,0
104.5841,104.695206,61,32,0
104.695206,105.03905,54,32,0
104.028725,105.03905,66,48,0
105.37238,105.48349,61,64,0
105.48349,105.594604,65,61,0
105.594604,105.70571,68,61,0
105.70571,106.03905,61,64,0
105.03905,106.03905,73,81,0
106.37238,106.48349,58,76,0
106.48349,106.594604,61,71,0
106.594604,106.70571,67,71,0
106.70571,107.03905,58,76,0
106.03905,107.03905,70,89,0
107.197235,107.355125,66,64,0
107.197235,107.355125,62,57,0
107.03905,107.355125,71,81,0
107.51302,107.67091,66,64,0
107.51302,107.67091,64,57,0
107.355125,107.67091,73,81,0
107.82881,107.9867,66,64,0
107.82881,107.9867,62,57,0
107.67091,107.9867,74,81,0
108.32004,108.43115,61,64,0
108.43115,108.54226,66,64,0
108.54226,108.65337,70,64,0
108.65337,109.053375,61,64,0
107.9867,109.053375,73,81,0
109.3867,109.49782,66,64,0
109.49782,109.608925,70,59,0
109.608925,109.72004,73,59,0
109.72004,110.05337,66,64,0
109.053375,110.05337,78,81,0
110.3867,110.49782,63,76,0
110.49782,110.608925,66,65,0
110.608925,110.72004,72,61,0
110.72004,111.05337,63,76,0
110.05337,111.05337,75,90,0
111.20921,111.36506,71,72,0
111.20921,111.36506,67,64,0
111.05337,111.36506,76,86,0
111.520905,111.67674,71,72,0
111.520905,111.67674,69,64,0
111.36506,111.67674,78,86,0
111.83259,111.988434,71,72,0
111.83259,111.988434,67,64,0
111.67674,111.988434,79,86,0
112.32269,112.43411,66,68,0
112.43411,112.54554,71,68,0
112.54554,112.657425,74,68,0
112.657425,113.01037,66,68,0
111.988434,113.01037,78,84,0
113.17079,113.33122,66,57,0
113.17079,113.33122,68,64,0
113.01037,113.33122,74,81,0
113.491646,113.65208,66,57,0
113.491646,113.65208,68,64,0
113.33122,113.65208,73,81,0
113.81251,113.97293,66,57,0
113.81251,113.97293,68,64,0
113.65208,113.97293,71,81,0
114.30627,114.41738,61,61,0
114.41738,114.52849,65,61,0
114.52849,114.6396,68,61,0
114.6396,114.991196,61,61,0
113.97293,114.991196,73,86,0
115.15249,115.313774,63,64,0
115.15249,115.313774,61,57,0
114.991196,115.313774,69,81,0
115.47507,115.63636,63,64,0
115.47507,115.63636,61,57,0
115.313774,115.63636,68,81,0
115.797646,115.95894,63,64,0
115.797646,115.95894,61,57,0
115.63636,115.95894,66,81,0
116.292274,116.40338,56,64,0
116.40338,116.514496,60,64,0
116.514496,116.6256,63,64,0
116.6256,117.00178,56,64,0
115.95894,117.00178,68,86,0
117.00178,118.002495,65,64,0
118.002495,119.045334,66,65,0
121.4776,121.588715,59,48,0
121.588715,121.69983,62,32,0
121.69983,121.810936,66,32,0
121.810936,122.14427,59,32,0
121.14427,122.14427,71,48,0
122.4776,122.588715,59,32,0
122.588715,122.69982,61,32,0
122.69982,122.810936,67,32,0
122.810936,123.14427,59,32,0
122.14427,123.14427,71,48,0
123.30245,123.46035,66,32,0
123.30245,123.46035,62,28,0
123.14427,123.46035,71,48,0
123.61825,123.77614,66,32,0
123.61825,123.77614,64,28,0
123.46035,123.77614,73,48,0
123.93404,124.09193,66,32,0
123.93404,124.09193,62,28,0
123.77614,124.09193,74,48,0
124.42453,124.535645,61,32,0
124.535645,124.64675,66,32,0
124.64675,124.758934,70,32,0
124.758934,125.13511,61,32,0
124.09193,125.13511,73,48,0
125.468445,125.57955,66,32,0
125.57955,125.69067,70,32,0
125.69067,125.80177,73,32,0
125.80177,126.13511,66,32,0
125.13511,126.13511,78,55,0
126.468445,126.57955,62,32,0
126.57955,126.69067,66,32,0
126.69067,126.80177,71,32,0
126.80177,127.13511,62,32,0
126.13511,127.13511,74,51,0
127.13511,127.29342,71,32,0
127.29342,127.45173,64,32,0
127.13511,127.45173,73,48,0
127.45173,127.61005,71,32,0
127.61005,127.76836,64,32,0
127.45173,127.76836,76,48,0
127.76836,127.92667,71,32,0
127.92667,128.08498,64,32,0
127.76836,128.08498,73,48,0
128.4183,128.52942,62,32,0
128.52942,128.64053,66,32,0
128.64053,128.75165,71,32,0
128.75165,129.15164,62,32,0
128.08498,129.15164,74,48,0
129.48497,129.59608,64,64,0
129.59608,129.7072,67,58,0
129.7072,129.81831,71,58,0
129.81831,130.15164,64,64,0
129.15164,130.15164,76,79,0
130.48497,130.59608,64,64,0
130.59608,130.7072,66,59,0
130.7072,130.81831,72,59,0
130.81831,131.15164,64,64,0
130.15164,131.15164,76,78,0
131.31293,131.47423,71,64,0
131.31293,131.47423,67,57,0
131.15164,131.47423,76,72,0
131.63551,131.7968,71,64,0
131.63551,131.7968,69,57,0
131.47423,131.7968,78,72,0
131.9581,132.11938,71,64,0
131.9581,132.11938,67,57,0
131.7968,132.11938,79,72,0
132.45271,132.56383,66,56,0
132.56383,132.67494,71,56,0
132.67494,132.78606,75,56,0
132.78606,133.18472,66,56,0
132.11938,133.18472,78,72,0
133.51805,133.62917,71,64,0
133.62917,133.74028,75,60,0
133.74028,133.8514,78,60,0
133.8514,134.18472,71,64,0
133.18472,134.18472,83,78,0
134.51805,134.62917,67,64,0
134.62917,134.74028,71,58,0
134.74028,134.85138,76,58,0
134.85138,135.18472,67,64,0
134.18472,135.18472,79,78,0
135.34558,135.50644,71,50,0
135.34558,135.50644,69,45,0
135.18472,135.50644,76,64,0
135.6673,135.82816,73,61,0
135.6673,135.82816,71,54,0
135.50644,135.82816,79,72,0
135.98901,136.14987,71,51,0
135.98901,136.14987,73,50,0
135.82816,136.14987,76,64,0
136.4832,136.59431,66,64,0
136.59431,136.70543,70,60,0
136.70543,136.81653,73,60,0
136.81653,137.16136,66,64,0
136.14987,137.16136,78,72,0
137.49469,137.6058,62,32,0
137.6058,137.71692,66,32,0
137.71692,137.82803,71,32,0
137.82803,138.21019,62,32,0
137.16136,138.21019,74,52,0
138.54434,138.65546,60,32,0
138.65546,138.76656,64,32,0
138.76656,138.87767,67,32,0
138.87767,139.211,60,32,0
138.21019,139.211,72,48,0
139.211,139.3696,66,47,0
139.3696,139.52791,61,40,0
139.211,139.52791,70,47,0
139.52791,139.68622,66,47,0
139.68622,139.84453,61,39,0
139.52791,139.84453,73,47,0
139.84453,140.00284,66,47,0
140.00284,140.16115,61,38,0
139.84453,140.16115,70,47,0
140.4942,140.60532,59,32,0
140.60532,140.71643,62,32,0
140.71643,140.82755,66,32,0
140.82755,141.22227,59,32,0
140.16115,141.22227,71,47,0
141.55653,141.66795,59,67,0
141.66795,141.77939,64,61,0
141.77939,141.89081,67,61,0
141.89081,142.26581,59,67,0
141.22227,142.26581,71,85,0
142.59982,142.71094,59,32,0
142.71094,142.82205,62,32,0
142.82205,142.93317,66,32,0
142.93317,143.2665,59,32,0
142.26581,143.2665,71,48,0
143.2665,143.37373,61,32,0
143.37373,143.48097,62,34,0
143.48097,143.58821,64,36,0
143.58821,143.69545,66,39,0
143.69545,143.80269,67,41,0
143.80269,143.90993,66,39,0
143.90993,144.01717,64,36,0
144.01717,144.1244,62,34,0
144.1244,144.23164,61,32,0
143.2665,144.23164,70,48,0
144.56497,144.67609,59,32,0
144.67609,144.7872,62,32,0
144.7872,144.89832,66,32,0
144.89832,145.28918,59,32,0
144.23164,145.28918,71,48,0
145.62253,145.73363,59,64,0
145.73363,145.84474,64,58,0
145.84474,145.95586,67,60,0
145.95586,146.32901,59,64,0
145.28918,146.32901,71,79,0
146.66302,146.77412,59,32,0
146.77412,146.88524,62,32,0
146.88524,146.99635,66,32,0
146.99635,147.32968,59,32,0
146.32901,147.32968,71,48,0
147.32968,147.43779,61,32,0
147.43779,147.5459,62,34,0
147.5459,147.654,64,36,0
147.654,147.76212,66,39,0
147.76212,147.87022,67,41,0
147.87022,147.97833,66,39,0
147.97833,148.08644,64,36,0
148.08644,148.19455,62,34,0
148.19455,148.30266,61,32,0
147.32968,148.30266,70,48,0
148.63599,148.7471,59,32,0
148.7471,148.85822,62,32,0
148.85822,148.96933,66,32,0
148.96933,149.34363,59,32,0
148.30266,149.34363,71,48,0
149.67696,149.78807,59,60,0
149.78807,149.89919,62,54,0
149.89919,150.0103,66,54,0
150.0103,150.3853,59,60,0
149.34363,150.3853,71,81,0
150.71863,150.82974,59,60,0
150.82974,150.94086,62,54,0
150.94086,151.05196,66,54,0
151.05196,151.42627,59,60,0
150.3853,151.42627,71,81,0
151.42627,151.53181,62,81,0
151.53181,151.63708,66,64,0
151.63708,151.74236,71,64,0
151.74236,152.05814,59,74,0
152.05814,152.1634,62,81,0
152.1634,152.26866,66,64,0
152.26866,152.37393,71,64,0
152.37393,152.68971,59,71,0
152.68971,152.79498,62,81,0
152.79498,152.90024,66,64,0
152.90024,153.00551,71,64,0
153.00551,153.4055,62,72,0
153.73883,153.84995,58,60,0
153.84995,153.96106,63,55,0
153.96106,154.07217,66,55,0
154.07217,154.44763,58,60,0
153.4055,154.44763,70,81,0
154.78168,154.89279,58,60,0
154.89279,155.0039,63,55,0
155.0039,155.115,66,55,0
155.115,155.44835,58,60,0
154.44763,155.44835,70,81,0
155.44835,155.55473,63,83,0
155.55473,155.66112,66,62,0
155.66112,155.76749,70,62,0
155.76749,156.08664,58,74,0
156.08664,156.19302,63,89,0
156.19302,156.29941,66,66,0
156.29941,156.40579,70,66,0
156.40579,156.72495,58,77,0
156.72495,156.83133,63,90,0
156.83133,156.93771,66,71,0
156.93771,157.04549,70,71,0
157.04549,157.42049,58,78,0
157.42049,158.08784,75,97,0
157.42049,158.08784,63,82,0
158.08784,158.75452,75,96,0
158.08784,158.75452,87,105,0
158.75452,159.42117,83,91,0
158.75452,159.42117,71,77,0
159.42117,159.52899,80,81,0
159.52899,159.63681,83,75,0
159.63681,159.74463,80,80,0
159.74463,159.85245,83,74,0
159.85245,159.96027,80,78,0
159.96027,160.06808,83,72,0
160.06808,160.17589,80,77,0
160.17589,160.2837,83,69,0
160.2837,160.39153,80,75,0
160.39153,160.49934,83,69,0
160.49934,160.60716,80,74,0
160.60716,160.71498,83,67,0
160.71498,160.8228,80,72,0
160.8228,160.93062,83,67,0
160.93062,161.03842,80,72,0
161.03842,161.14624,83,65,0
161.14624,161.25406,80,70,0
161.25406,161.36215,83,64,0
161.36215,161.47008,80,70,0
161.47008,161.5785,82,62,0
161.5785,161.68747,80,64,0
161.68747,161.79695,82,56,0
161.79695,161.90698,80,58,0
161.90698,162.01756,82,51,0
162.01756,162.12868,80,53,0
162.12868,162.24033,82,45,0
162.24033,162.35252,80,47,0
162.35252,162.46758,82,40,0
162.46758,162.58868,80,41,0
162.58868,162.71655,82,35,0
162.71655,162.85196,80,36,0
162.85196,162.99596,82,28,0
162.99596,163.14957,80,30,0
163.14957,163.31424,82,23,0
163.31424,163.49171,80,24,0
163.49171,163.67918,82,21,0
163.67918,163.79,79,24,0
163.79,163.90079,82,44,0
163.90079,164.0116,80,43,0
164.0116,164.1116,79,43,0
164.1116,164.2116,77,42,0
164.2116,164.3116,75,41,0
164.3116,164.41159,74,40,0
164.41159,164.5116,72,40,0
164.5116,164.6116,70,40,0
164.6116,164.71364,68,39,0
164.71364,164.81567,67,39,0
164.81567,164.91772,65,38,0
164.91772,165.01772,63,37,0
165.01772,165.11772,62,39,0
165.11772,165.21771,60,38,0
165.31772,165.41772,60,41,0
165.41772,165.51772,62,40,0
165.21771,165.51772,58,40,0
165.51772,165.62003,63,44,0
165.62003,165.72232,62,45,0
165.72232,165.82462,63,45,0
165.82462,165.92462,64,48,0
165.92462,166.02463,63,47,0
166.02463,166.12462,64,45,0
166.12462,166.22462,65,53,0
166.22462,166.32462,64,51,0
166.32462,166.42462,65,48,0
166.42462,166.5264,66,56,0
166.5264,166.62819,65,52,0
166.62819,166.72997,66,48,0
166.72997,166.82997,67,56,0
166.82997,166.92996,66,54,0
166.92996,167.02997,67,49,0
167.02997,167.12997,68,48,0
167.12997,167.22997,67,45,0
167.22997,167.32997,68,42,0
167.32997,167.43149,67,48,0
167.43149,167.53302,70,45,0
167.53302,167.63454,68,44,0
167.63454,167.73454,67,48,0
167.73454,167.83453,68,45,0
167.83453,167.93454,70,45,0
167.93454,168.03453,72,48,0
168.03453,168.13454,74,44,0
168.13454,168.23454,75,44,0
168.23454,168.3387,77,48,0
168.3387,168.44287,84,52,0
168.44287,168.54704,82,46,0
168.54704,168.64703,80,51,0
168.64703,168.74704,79,47,0
168.74704,168.84703,77,45,0
168.84703,168.94704,75,48,0
168.94704,169.04704,74,45,0
169.04704,169.14703,72,45,0
169.14703,169.24881,70,47,0
169.24881,169.3506,77,45,0
169.3506,169.45238,75,45,0
169.45238,169.55238,74,48,0
169.55238,169.65237,72,45,0
169.65237,169.75238,70,45,0
169.75238,169.85239,68,48,0
169.85239,169.95238,67,44,0
169.95238,170.05238,65,44,0
170.05238,170.1539,63,48,0
170.1539,170.25543,65,48,0
170.25543,170.35695,67,48,0
170.35695,170.45695,68,48,0
170.45695,170.55695,70,51,0
170.55695,170.65695,72,55,0
170.65695,170.75694,74,56,0
170.75694,170.85695,75,60,0
170.85695,170.95695,77,63,0
170.95695,171.06775,79,63,0
171.06775,171.17856,82,58,0
171.17856,171.28935,80,53,0
171.28935,171.38936,79,62,0
171.38936,171.48936,77,56,0
171.48936,171.58936,75,54,0
171.58936,171.68936,74,63,0
171.68936,171.78935,72,58,0
171.78935,171.88936,70,54,0
171.88936,171.99113,68,63,0
171.99113,172.09293,67,59,0
172.09293,172.1947,65,60,0
172.1947,172.29471,63,63,0
172.29471,172.3947,62,59,0
172.3947,172.4947,60,59,0
172.5947,172.6947,60,58,0
172.6947,172.79471,62,58,0
172.4947,172.79471,58,63,0
172.79471,172.89648,63,63,0
172.89648,172.99826,62,60,0
172.99826,173.10005,63,60,0
173.10005,173.20004,64,67,0
173.20004,173.30005,63,63,0
173.30005,173.40004,64,63,0
173.40004,173.50005,65,71,0
173.50005,173.60005,64,68,0
173.60005,173.70004,65,64,0
173.70004,173.80157,66,73,0
173.80157,173.90309,65,70,0
173.90309,174.00462,66,67,0
174.00462,174.10461,67,72,0
174.10461,174.20462,66,70,0
174.20462,174.30461,67,64,0
174.30461,174.40462,68,63,0
174.40462,174.50462,67,58,0
174.50462,174.60461,68,58,0
174.60461,174.70615,67,63,0
174.70615,174.80766,70,60,0
174.80766,174.90918,68,60,0
174.90918,175.00919,67,63,0
175.00919,175.10919,68,58,0
175.10919,175.20918,70,58,0
175.20918,175.30919,72,63,0
175.30919,175.40918,74,58,0
175.40918,175.50919,75,58,0
175.50919,175.61336,77,63,0
175.61336,175.71751,84,66,0
175.71751,175.82169,82,65,0
175.82169,175.92169,80,64,0
175.92169,176.02168,79,60,0
176.02168,176.12169,77,60,0
176.12169,176.22168,75,63,0
176.22168,176.32169,74,58,0
176.32169,176.42169,72,61,0
176.42169,176.52399,70,59,0
176.52399,176.62628,77,62,0
176.62628,176.72859,75,58,0
176.72859,176.82858,74,63,0
176.82858,176.92859,75,59,0
176.92859,177.0286,77,59,0
177.0286,177.12859,79,63,0
177.12859,177.22859,80,57,0
177.22859,177.32858,82,57,0
177.32858,177.43063,75,63,0
177.43063,177.53267,77,58,0
177.53267,177.6347,79,58,0
177.6347,177.73471,80,63,0
177.73471,177.83472,82,58,0
177.83472,177.93471,84,58,0
177.93471,178.03471,86,63,0
178.03471,178.1347,87,58,0
178.1347,178.23471,89,58,0
178.23471,178.34613,91,63,0
178.34613,178.45755,94,63,0
178.45755,178.56897,92,58,0
178.56897,178.66922,91,64,0
178.66922,178.76947,89,62,0
178.76947,178.86972,87,62,0
178.86972,178.96997,86,63,0
178.96997,179.07022,84,57,0
179.07022,179.17047,82,58,0
179.17047,179.27252,80,60,0
179.27252,179.37456,79,58,0
179.37456,179.47635,77,58,0
179.47635,179.57634,75,63,0
179.57634,179.67635,74,58,0
179.67635,179.77635,72,58,0
179.77635,179.87634,70,63,0
179.87634,179.97635,72,58,0
179.97635,180.07634,74,58,0
180.07634,180.17813,75,63,0
180.17813,180.2799,74,59,0
180.2799,180.38168,75,59,0
180.38168,180.48169,76,64,0
180.48169,180.5817,75,61,0
180.5817,180.68169,76,62,0
180.68169,180.7817,77,66,0
180.7817,180.88168,76,63,0
180.88168,180.98169,77,63,0
180.98169,181.08426,78,70,0
181.08426,181.18681,77,65,0
181.18681,181.28938,78,65,0
181.28938,181.38937,79,73,0
181.38937,181.48938,78,68,0
181.48938,181.58939,79,63,0
181.58939,181.68938,80,64,0
181.68938,181.78938,79,61,0
181.78938,181.88937,80,61,0
181.88937,181.99117,79,63,0
181.99117,182.09294,82,59,0
182.09294,182.19472,80,60,0
182.19472,182.29472,79,63,0
182.29472,182.39473,80,60,0
182.39473,182.49472,82,60,0
182.49472,182.59473,84,63,0
182.59473,182.69472,86,59,0
182.69472,182.79472,87,59,0
182.79472,182.90558,89,64,0
182.90558,183.017,96,59,0
183.017,183.12842,94,59,0
183.12842,183.22899,92,62,0
183.22899,183.32898,91,61,0
183.32898,183.42899,89,60,0
183.42899,183.52899,87,59,0
183.52899,183.62898,86,58,0
183.62898,183.72899,84,57,0
183.72899,183.83102,82,56,0
183.83102,183.93307,89,55,0
183.93307,184.03511,87,54,0
184.03511,184.1351,86,54,0
184.1351,184.2351,84,53,0
184.2351,184.33511,82,52,0
184.33511,184.4351,80,51,0
184.4351,184.53511,79,50,0
184.53511,184.6351,77,49,0
184.6351,184.73715,75,48,0
184.73715,184.83919,79,47,0
184.83919,184.94122,77,46,0
184.94122,185.04123,75,45,0
185.04123,185.14124,74,45,0
185.14124,185.24123,72,44,0
185.24123,185.34123,70,43,0
185.34123,185.44122,68,42,0
185.44122,185.54123,65,41,0
185.54123,185.64354,66,40,0
185.64354,185.74583,70,41,0
185.74583,185.84813,68,41,0
185.84813,185.94814,66,41,0
185.94814,186.04814,65,41,0
186.04814,186.14813,63,41,0
186.14813,186.24814,61,41,0
186.24814,186.34813,59,41,0
186.34813,186.44814,58,41,0
186.44814,186.56113,59,41,0
186.56113,186.67412,63,41,0
186.67412,186.78712,68,41,0
186.89378,187.00046,63,41,0
187.00046,187.10712,68,41,0
187.10712,187.21379,66,41,0
187.21379,187.32045,63,41,0
187.32045,187.42712,66,41,0
186.78712,187.42712,71,44,0
187.42712,187.52711,65,41,0
187.52711,187.62712,71,41,0
187.62712,187.72711,70,41,0
187.72711,187.82712,68,41,0
187.82712,187.92712,66,41,0
187.92712,188.02711,65,41,0
188.02711,188.12712,63,41,0
188.12712,188.22711,61,41,0
188.22711,188.32712,59,41,0
188.32712,188.43823,58,41,0
188.43823,188.54935,61,41,0
188.54935,188.66003,66,41,0
188.76558,188.87111,61,41,0
188.87111,188.97665,66,41,0
188.97665,189.0822,65,41,0
189.0822,189.18774,61,41,0
189.18774,189.29286,65,41,0
188.66003,189.29286,70,44,0
189.29286,189.39287,63,40,0
189.39287,189.49286,70,41,0
189.49286,189.59286,68,41,0
189.59286,189.69287,66,41,0
189.69287,189.79286,65,41,0
189.79286,189.89287,63,41,0
189.89287,189.99286,61,41,0
189.99286,190.09286,59,41,0
190.09286,190.19287,58,41,0
190.19287,190.30748,56,41,0
190.30748,190.42209,59,41,0
190.42209,190.5367,65,41,0
190.6448,190.75291,59,38,0
190.75291,190.86102,65,38,0
190.86102,190.96913,63,41,0
190.96913,191.07724,59,38,0
191.07724,191.18535,63,38,0
190.5367,191.18535,68,44,0
191.18535,191.28535,62,41,0
191.28535,191.38535,68,41,0
191.38535,191.48535,66,41,0
191.48535,191.58536,65,41,0
191.58536,191.68535,63,37,0
191.68535,191.78535,62,37,0
191.78535,191.88535,59,41,0
191.88535,191.98535,58,37,0
191.98535,192.08536,56,37,0
192.08536,192.19646,54,41,0
192.19646,192.30757,58,41,0
192.30757,192.41827,63,41,0
192.5238,192.62935,58,41,0
192.62935,192.7349,63,41,0
192.7349,192.84044,61,44,0
192.84044,192.94597,58,41,0
192.94597,193.0511,61,41,0
192.41827,193.0511,66,44,0
193.0511,193.16222,59,41,0
193.16222,193.27332,63,41,0
193.27332,193.38402,68,41,0
193.48955,193.5951,63,41,0
193.5951,193.70064,68,41,0
193.70064,193.80618,66,44,0
193.80618,193.91171,63,41,0
193.91171,194.01726,66,41,0
193.38402,194.01726,71,44,0
194.13431,194.25195,65,41,0
194.25195,194.3696,62,41,0
194.01726,194.3696,71,48,0
194.48724,194.60489,65,41,0
194.60489,194.72253,62,41,0
194.3696,194.72253,70,47,0
194.84018,194.95782,68,41,0
194.95782,195.07547,65,41,0
194.72253,195.07547,74,47,0
195.07547,195.17857,75,47,0
195.17857,195.28166,78,39,0
195.28166,195.38475,77,39,0
195.38475,195.48476,75,39,0
195.48476,195.58476,73,39,0
195.58476,195.68475,71,39,0
195.68475,195.78476,70,39,0
195.78476,195.88475,68,39,0
195.88475,195.98476,65,39,0
195.98476,196.08476,66,39,0
196.08476,196.18475,70,39,0
196.18475,196.28476,68,39,0
196.28476,196.38475,66,39,0
196.38475,196.48476,65,39,0
196.48476,196.58476,63,39,0
196.58476,196.68475,61,39,0
196.68475,196.78476,59,39,0
196.78476,196.88475,58,40,0
196.88475,196.99586,59,40,0
196.99586,197.10698,62,40,0
197.10698,197.2181,65,40,0
197.33574,197.45374,65,38,0
197.45374,197.57173,62,38,0
197.57173,197.67789,65,40,0
197.67789,197.78343,61,38,0
197.78343,197.88898,59,38,0
197.2181,197.88898,71,44,0
197.88898,197.98924,58,40,0
197.98924,198.08925,70,40,0
198.08925,198.18925,68,40,0
198.18925,198.28925,66,40,0
198.28925,198.38925,65,36,0
198.38925,198.48924,63,36,0
198.48924,198.58925,61,40,0
198.58925,198.68925,59,37,0
198.68925,198.78925,58,37,0
198.78925,198.90036,59,39,0
198.90036,199.01147,62,39,0
199.01147,199.12259,65,39,0
199.24023,199.35823,65,36,0
199.35823,199.47623,62,36,0
199.47623,199.58148,65,40,0
199.58148,199.68675,61,38,0
199.68675,199.792,59,38,0
199.12259,199.792,71,45,0
199.792,199.90312,61,40,0
199.90312,200.01424,66,40,0
200.01424,200.12491,70,40,0
200.23016,200.33543,70,37,0
200.33543,200.44069,66,37,0
200.44069,200.54596,65,40,0
200.54596,200.65121,66,38,0
200.65121,200.75648,64,38,0
200.12491,200.75648,73,45,0
200.75648,200.8679,63,39,0
200.8679,200.97932,68,39,0
200.97932,201.09074,71,39,0
201.19632,201.30157,71,37,0
201.30157,201.40685,68,37,0
201.40685,201.5121,67,40,0
201.5121,201.61737,68,37,0
201.61737,201.72263,66,37,0
201.09074,201.72263,75,46,0
201.72263,201.83374,65,40,0
201.83374,201.94485,66,40,0
201.94485,202.05597,67,40,0
202.05597,202.15596,68,40,0
202.15596,202.25597,70,40,0
202.25597,202.35596,71,40,0
202.35596,202.45596,73,40,0
202.45596,202.55597,75,40,0
202.55597,202.65596,77,40,0
202.65596,202.7632,78,39,0
202.7632,202.87044,82,39,0
202.87044,202.97768,80,40,0
202.97768,203.07768,78,40,0
203.07768,203.17767,77,40,0
203.17767,203.27768,75,40,0
203.27768,203.37767,73,40,0
203.37767,203.47768,71,40,0
203.47768,203.57768,70,40,0
203.57768,203.68852,68,40,0
203.68852,203.79994,71,40,0
203.79994,203.91136,70,40,0
203.91136,204.01137,68,38,0
204.01137,204.11137,66,37,0
204.11137,204.21136,65,35,0
204.21136,204.31137,63,40,0
204.31137,204.41136,62,33,0
204.41136,204.51137,65,33,0
204.51137,204.62222,68,33,0
204.62222,204.73364,71,33,0
204.73364,204.84421,70,33,0
204.84421,204.9442,68,33,0
204.9442,205.0442,66,33,0
205.0442,205.1442,65,33,0
205.1442,205.2442,63,40,0
205.2442,205.34421,62,33,0
205.34421,205.4442,65,33,0
205.4442,205.56064,68,32,0
205.56064,205.67795,71,32,0
205.67795,205.79524,70,32,0
205.79524,205.89525,68,32,0
205.89525,205.99524,66,32,0
205.99524,206.09525,65,32,0
206.09525,206.19525,63,39,0
206.19525,206.29524,62,32,0
206.29524,206.39525,65,32,0
206.39525,206.49524,68,32,0
206.49524,206.59525,71,34,0
206.59525,206.69525,74,36,0
206.69525,206.79524,71,39,0
206.79524,206.89525,74,40,0
206.89525,206.99524,77,41,0
206.99524,207.09525,74,43,0
207.09525,207.19525,77,45,0
207.19525,207.29524,78,46,0
207.29524,207.4055,80,46,0
207.4055,207.51631,83,48,0
207.51631,207.6263,82,45,0
207.6263,207.7263,80,48,0
207.7263,207.82631,78,46,0
207.82631,207.9263,77,46,0
207.9263,208.0263,75,53,0
208.0263,208.1263,74,47,0
208.1263,208.22714,77,47,0
208.22714,208.33824,80,47,0
208.33824,208.44936,83,44,0
208.44936,208.56047,82,44,0
208.56047,208.66048,80,47,0
208.66048,208.76047,78,44,0
208.76047,208.86047,77,44,0
208.86047,208.96046,75,52,0
208.96046,209.06047,74,48,0
209.06047,209.16048,77,48,0
209.16048,209.25755,80,48,0
209.25755,209.35464,83,48,0
209.35464,209.45174,80,51,0
209.45174,209.54881,83,53,0
209.54881,209.6459,80,54,0
209.6459,209.743,83,56,0
209.743,209.84009,80,57,0
209.84009,209.93716,83,60,0
209.93716,210.03429,80,61,0
210.03429,210.1338,82,62,0
210.1338,210.23721,80,58,0
210.23721,210.34485,82,54,0
210.34485,210.4571,80,50,0
210.4571,210.57443,82,46,0
210.57443,210.69716,80,42,0
210.69716,210.8259,82,38,0
210.8259,210.96129,80,34,0
210.96129,211.10406,82,30,0
211.10406,211.22871,79,48,0
211.22871,211.35371,82,44,0
211.35371,211.47871,80,40,0
211.47871,211.5787,79,48,0
211.5787,211.67871,77,45,0
211.67871,211.7787,75,41,0
211.7787,211.87871,74,48,0
211.87871,211.97871,72,45,0
211.97871,212.0787,70,41,0
212.0787,212.18074,68,48,0
212.18074,212.28279,67,44,0
212.28279,212.38483,65,41,0
212.38483,212.48483,63,48,0
212.48483,212.58482,62,45,0
212.58482,212.68483,60,42,0
212.78484,212.88483,60,44,0
212.88483,212.98483,62,42,0
212.68483,212.98483,58,48,0
212.98483,213.08713,63,48,0
213.08713,213.18944,62,44,0
213.18944,213.29173,63,44,0
213.29173,213.39174,64,51,0
213.39174,213.49173,63,48,0
213.49173,213.59174,64,48,0
213.59174,213.69173,65,55,0
213.69173,213.79173,64,52,0
213.79173,213.89174,65,52,0
213.89174,213.9984,66,58,0
213.9984,214.10507,65,52,0
214.10507,214.21173,66,48,0
214.21173,214.31174,67,56,0
214.31174,214.41173,66,53,0
214.41173,214.51173,67,48,0
214.51173,214.61174,68,48,0
214.61174,214.71173,67,46,0
214.71173,214.81174,68,46,0
214.81174,214.91377,67,48,0
214.91377,215.01581,70,45,0
215.01581,215.11786,68,45,0
215.11786,215.21785,67,48,0
215.21785,215.31786,68,45,0
215.31786,215.41786,70,45,0
215.41786,215.51785,72,48,0
215.51785,215.61786,74,45,0
215.61786,215.71785,75,45,0
215.71785,215.8199,77,48,0
215.8199,215.92194,84,50,0
215.92194,216.02397,82,45,0
216.02397,216.12398,80,49,0
216.12398,216.22398,79,46,0
216.22398,216.32397,77,46,0
216.32397,216.42398,75,48,0
216.42398,216.52397,74,45,0
216.52397,216.62398,72,45,0
216.62398,216.72627,74,48,0
216.72627,216.82858,77,45,0
216.82858,216.93088,75,45,0
216.93088,217.03088,74,49,0
217.03088,217.13089,75,47,0
217.13089,217.23088,77,47,0
217.23088,217.33089,79,53,0
217.33089,217.43088,80,50,0
217.43088,217.53088,82,50,0
217.53088,217.6324,75,55,0
217.6324,217.73393,77,52,0
217.73393,217.83527,79,52,0
217.83527,217.93526,80,58,0
217.93526,218.03526,82,54,0
218.03526,218.13527,84,54,0
218.13527,218.23526,86,61,0
218.23526,218.33527,87,59,0
218.33527,218.43526,89,59,0
218.43526,218.54668,91,64,0
218.54668,218.6581,94,62,0
218.6581,218.76953,92,58,0
218.76953,218.86978,91,64,0
218.86978,218.97003,89,62,0
218.97003,219.07028,87,58,0
219.07028,219.17053,86,62,0
219.17053,219.27078,84,56,0
219.27078,219.37103,82,56,0
219.37103,219.47307,80,64,0
219.47307,219.5751,79,63,0
219.5751,219.67715,77,61,0
219.67715,219.77715,75,59,0
219.77715,219.87715,74,57,0
219.87715,219.97714,72,55,0
219.97714,220.07715,70,54,0
220.07715,220.17715,72,52,0
220.17715,220.27715,74,50,0
220.27715,220.37946,75,48,0
220.37946,220.48175,74,48,0
220.48175,220.58406,75,48,0
220.58406,220.68405,76,48,0
220.68405,220.78406,75,49,0
220.78406,220.88405,76,51,0
220.88405,220.98405,77,53,0
220.98405,221.08406,76,56,0
221.08406,221.18405,77,58,0
221.18405,221.28584,78,62,0
221.28584,221.38762,77,61,0
221.38762,221.4894,78,58,0
221.4894,221.5894,79,56,0
221.5894,221.68939,78,54,0
221.68939,221.7894,79,51,0
221.7894,221.8894,80,48,0
221.8894,221.9894,79,48,0
221.9894,222.0894,80,48,0
222.0894,222.19118,79,48,0
222.19118,222.29297,78,48,0
222.29297,222.39474,79,49,0
222.39474,222.49474,80,50,0
222.49474,222.59474,79,49,0
222.59474,222.69475,80,49,0
222.69475,222.79474,82,53,0
222.79474,222.89474,80,51,0
222.89474,222.99474,82,51,0
222.99474,223.09679,80,56,0
223.09679,223.19882,79,52,0
223.19882,223.30086,80,52,0
223.30086,223.40086,82,58,0
223.40086,223.50087,80,54,0
223.50087,223.60086,82,51,0
223.60086,223.70087,84,61,0
223.70087,223.80086,83,57,0
223.80086,223.90086,84,53,0
223.90086,224.00264,86,64,0
224.00264,224.10443,85,60,0
224.10443,224.2062,86,57,0
224.2062,224.30621,88,66,0
224.30621,224.4062,86,63,0
224.4062,224.50621,88,60,0
224.50621,224.6062,90,69,0
224.6062,224.7062,88,65,0
224.7062,224.80621,90,63,0
224.80621,224.90851,91,72,0
224.90851,225.01082,90,69,0
225.01082,225.11311,91,63,0
225.11311,225.21312,93,74,0
225.21312,225.31311,91,71,0
225.31311,225.41312,93,66,0
225.41312,225.5131,95,77,0
225.5131,225.61311,93,71,0
225.61311,225.71312,95,65,0
225.71312,225.81621,96,81,0
225.81621,225.9193,95,75,0
225.9193,226.02238,96,69,0
226.02238,226.12239,98,81,0
226.12239,226.2224,96,76,0
226.2224,226.32239,98,71,0
226.32239,226.4224,100,81,0
226.4224,226.52238,98,76,0
226.52238,226.62239,100,70,0
226.62239,226.72766,101,81,0
226.72766,226.83292,99,75,0
226.83292,226.93819,97,70,0
226.93819,227.03818,96,81,0
227.03818,227.13818,94,76,0
227.13818,227.23817,92,70,0
227.23817,227.33818,91,81,0
227.33818,227.43819,89,76,0
227.43819,227.53818,87,72,0
227.53818,227.64023,86,81,0
227.64023,227.74226,84,76,0
227.74226,227.8443,82,70,0
227.8443,227.9443,81,81,0
227.9443,228.0443,82,76,0
228.0443,228.1443,84,72,0
228.1443,228.24431,86,81,0
228.24431,228.3443,87,76,0
228.3443,228.4443,89,72,0
228.4443,228.55573,90,89,0
228.55573,228.66714,94,77,0
228.66714,228.77856,92,72,0
228.77856,228.87914,90,81,0
228.87914,228.97914,89,78,0
228.97914,229.07913,87,73,0
229.07913,229.17914,85,81,0
229.17914,229.27913,83,77,0
229.27913,229.37914,82,73,0
229.37914,229.49055,83,89,0
229.49055,229.60197,87,77,0
229.60197,229.7134,85,75,0
229.7134,229.81396,83,81,0
229.81396,229.91397,82,77,0
229.91397,230.01396,80,74,0
230.01396,230.11397,78,81,0
230.11397,230.21397,77,77,0
230.21397,230.31396,75,73,0
230.31396,230.42508,74,89,0
230.42508,230.5362,77,76,0
230.5362,230.64731,75,72,0
230.64731,230.7473,74,81,0
230.7473,230.8473,71,77,0
230.8473,230.9473,70,74,0
230.9473,231.0473,68,81,0
231.0473,231.14731,66,76,0
231.14731,231.2473,65,73,0
231.2473,231.36159,78,89,0
231.36159,231.47588,82,76,0
231.47588,231.59016,80,73,0
231.59016,231.69016,78,81,0
231.69016,231.79016,77,75,0
231.79016,231.89015,75,73,0
231.89015,231.99016,73,81,0
231.99016,232.09016,71,77,0
232.09016,232.19016,70,72,0
232.19016,232.311,71,89,0
232.311,232.43185,75,77,0
232.43185,232.5527,73,73,0
232.5527,232.6527,71,81,0
232.6527,232.7527,70,77,0
232.7527,232.85269,68,73,0
232.85269,232.9527,66,81,0
232.9527,233.0527,65,77,0
233.0527,233.1527,63,73,0
233.1527,233.26381,62,89,0
233.26381,233.37492,65,77,0
233.37492,233.48602,63,72,0
233.48602,233.58603,62,81,0
233.58603,233.68604,59,77,0
233.68604,233.78603,58,72,0
233.78603,233.88603,56,81,0
233.88603,233.98602,54,77,0
233.98602,234.08603,53,73,0
234.08603,234.18604,51,81,0
234.18604,234.28603,53,77,0
234.28603,234.38603,54,72,0
234.38603,234.49658,56,89,0
234.49658,234.6077,59,78,0
234.6077,234.71881,58,74,0
234.71881,234.82993,56,81,0
234.82993,234.94102,54,76,0
234.94102,235.05214,53,72,0
235.05214,235.1527,51,81,0
235.1527,235.2527,53,76,0
235.2527,235.35269,54,72,0
235.35269,235.46326,56,89,0
235.46326,235.57436,59,77,0
235.57436,235.68547,58,72,0
235.68547,235.79659,56,81,0
235.79659,235.9077,54,77,0
235.9077,236.0188,53,72,0
236.0188,236.11906,51,81,0
236.11906,236.21931,53,77,0
236.21931,236.31956,54,72,0
236.31956,236.43066,56,89,0
236.43066,236.54178,59,77,0
236.54178,236.6529,58,71,0
236.6529,236.764,56,81,0
236.764,236.8751,54,77,0
236.8751,236.98622,53,77,0
236.98622,237.08623,51,78,0
237.08623,237.18622,53,80,0
237.18622,237.28622,54,82,0
237.28622,237.38623,56,84,0
237.38623,237.48622,58,87,0
237.48622,237.58623,60,89,0
237.58623,237.68622,62,90,0
237.68622,237.78622,63,92,0
237.78622,237.88623,65,94,0
237.88623,238.48622,66,96,0
238.78622,239.38623,70,97,0
238.78622,239.38623,58,87,0
238.78622,239.38623,61,87,0
238.78622,239.38623,66,87,0
240.08101,240.19211,59,81,0
240.19211,240.30322,62,76,0
240.30322,240.41434,66,76,0
240.41434,240.74767,59,81,0
239.74767,240.74767,71,97,0
241.08101,241.19211,59,81,0
241.19211,241.30322,61,77,0
241.30322,241.41434,67,77,0
241.41434,241.74767,59,81,0
240.74767,241.74767,71,96,0
241.90598,242.06429,66,81,0
241.90598,242.06429,62,72,0
241.74767,242.06429,71,88,0
242.2226,242.38092,66,88,0
242.2226,242.38092,64,79,0
242.06429,242.38092,73,95,0
242.53923,242.69754,66,81,0
242.53923,242.69754,62,72,0
242.38092,242.69754,74,89,0
243.03087,243.14198,61,81,0
243.14198,243.2531,66,76,0
243.2531,243.3642,70,76,0
243.3642,243.71611,61,81,0
242.69754,243.71611,73,88,0
244.04944,244.16055,62,81,0
244.16055,244.27167,65,76,0
244.27167,244.38278,70,76,0
244.38278,244.71611,62,81,0
243.71611,244.71611,74,88,0
245.04944,245.16055,63,81,0
245.16055,245.27167,66,76,0
245.27167,245.38277,70,76,0
245.38277,245.71611,63,81,0
244.71611,245.71611,75,88,0
245.71611,245.8743,65,81,0
245.8743,246.0322,77,77,0
246.0322,246.19008,66,81,0
246.19008,246.34798,78,77,0
246.34798,246.50587,65,81,0
246.50587,246.66377,77,77,0
246.99681,247.10793,63,64,0
247.10793,247.21902,66,61,0
247.21902,247.33014,70,62,0
247.33014,247.71849,63,64,0
246.66377,247.71849,75,81,0
248.05182,248.16293,71,80,0
248.16293,248.27405,74,75,0
248.27405,248.38516,78,75,0
248.38516,248.72998,71,80,0
247.71849,248.72998,83,96,0
249.06332,249.17442,71,81,0
249.17442,249.28554,73,76,0
249.28554,249.39665,79,76,0
249.39665,249.72998,71,81,0
248.72998,249.72998,83,93,0
249.88664,250.0433,74,64,0
249.88664,250.0433,78,72,0
249.72998,250.0433,83,89,0
250.19995,250.35661,76,64,0
250.19995,250.35661,78,72,0
250.0433,250.35661,85,89,0
250.51328,250.66994,78,72,0
250.51328,250.66994,74,64,0
250.35661,250.66994,86,89,0
251.00327,251.11438,73,81,0
251.11438,251.22548,78,76,0
251.22548,251.3366,82,76,0
251.3366,251.71277,73,81,0
250.66994,251.71277,85,89,0
252.04611,252.15721,74,81,0
252.15721,252.26833,77,77,0
252.26833,252.37944,82,77,0
252.37944,252.71277,74,81,0
251.71277,252.71277,86,97,0
253.04611,253.15721,75,81,0
253.15721,253.26833,78,77,0
253.26833,253.37944,82,77,0
253.37944,253.71277,75,81,0
252.71277,253.71277,87,97,0
253.71277,253.8732,77,72,0
253.71277,253.8732,82,72,0
253.71277,253.8732,86,81,0
253.8732,254.03363,89,72,0
254.03363,254.19406,78,80,0
254.03363,254.19406,82,80,0
254.03363,254.19406,86,89,0
254.19406,254.35448,90,79,0
254.35448,254.51491,77,72,0
254.35448,254.51491,82,72,0
254.35448,254.51491,86,81,0
254.51491,254.67534,89,72,0
255.00847,255.11957,75,72,0
255.11957,255.23068,78,68,0
255.23068,255.3418,82,68,0
255.3418,255.73123,75,72,0
254.67534,255.73123,87,90,0
256.06458,256.1757,82,75,0
256.1757,256.2868,89,71,0
256.2868,256.39792,92,71,0
256.39792,256.73123,82,75,0
255.73123,256.73123,94,97,0
257.0573,257.16602,82,74,0
257.16602,257.27472,87,70,0
257.27472,257.38342,90,70,0
257.38342,257.70895,82,74,0
256.73123,257.70895,94,97,0
257.70895,257.86084,89,81,0
257.70895,257.86084,80,72,0
257.86084,258.01273,92,76,0
258.01273,258.16464,87,81,0
258.01273,258.16464,78,72,0
258.16464,258.31653,90,77,0
258.31653,258.46844,86,81,0
258.31653,258.46844,77,72,0
258.46844,258.62033,89,78,0
258.93695,259.04248,75,81,0
259.04248,259.14804,78,65,0
259.14804,259.25357,82,66,0
259.25357,259.60593,75,66,0
258.62033,259.60593,87,90,0
259.92172,260.02698,82,72,0
260.02698,260.13223,89,68,0
260.13223,260.23752,92,68,0
260.23752,260.55328,82,72,0
259.60593,260.55328,94,97,0
260.86417,260.9678,82,72,0
260.9678,261.07144,87,68,0
261.07144,261.17505,90,68,0
261.17505,261.48593,82,72,0
260.55328,261.48593,94,97,0
261.48593,261.63123,89,81,0
261.48593,261.63123,80,72,0
261.63123,261.7765,92,81,0
261.7765,261.92178,87,81,0
261.7765,261.92178,78,72,0
261.92178,262.06705,90,81,0
262.06705,262.21234,86,81,0
262.06705,262.21234,77,72,0
262.21234,262.3576,89,80,0
262.65836,262.7586,75,64,0
262.7586,262.85886,78,61,0
262.85886,262.9591,82,61,0
262.9591,263.25986,75,63,0
262.3576,263.25986,87,90,0
263.25986,263.41025,92,81,0
263.25986,263.41025,83,72,0
263.41025,263.5606,95,75,0
263.5606,263.711,90,81,0
263.5606,263.711,82,72,0
263.711,263.86136,94,76,0
263.86136,264.01175,89,81,0
263.86136,264.01175,86,72,0
264.01175,264.1621,98,76,0
264.1621,264.2574,99,81,0
264.2574,264.35242,95,76,0
264.35242,264.44742,94,78,0
264.44742,264.54242,92,81,0
264.54242,264.63745,90,76,0
264.63745,264.73245,89,76,0
264.73245,264.87497,87,93,0
265.01743,265.11154,87,81,0
265.11154,265.20566,83,75,0
265.20566,265.29977,82,75,0
265.29977,265.3939,80,81,0
265.3939,265.488,78,77,0
265.488,265.58212,77,77,0
265.58212,265.7233,75,92,0
265.86444,265.95792,75,81,0
265.95792,266.05136,71,76,0
266.05136,266.14484,70,76,0
266.14484,266.23828,68,81,0
266.23828,266.33173,66,76,0
266.33173,266.4252,65,76,0
266.4252,266.56537,63,91,0
266.70554,266.79834,63,81,0
266.79834,266.89114,59,76,0
266.89114,266.98395,58,76,0
266.98395,267.07675,56,81,0
267.07675,267.16956,54,76,0
267.16956,267.26236,53,78,0
267.26236,267.33197,51,91,0
267.5408,267.68,63,89,0
267.8195,267.95926,63,89,0
268.09933,268.23972,63,89,0
268.3804,268.52112,63,89,0
268.66263,268.805,63,89,0
268.9482,269.09232,63,89,0
269.23727,269.54416,62,87,0
269.23727,269.54416,74,97,0
269.23727,269.54416,70,87,0
269.23727,269.54416,65,87,0
270.158,270.46487,75,97,0
270.158,270.46487,63,87,0
270.158,270.46487,66,87,0
270.158,270.46487,70,87,0
1.2656302,1.8656303,58,32,0
0.93322027,1.8656303,51,39,0
2.1709743,2.4678493,58,31,0
1.8656303,2.7709742,53,36,0
3.0778792,3.6778793,58,31,0
2.7709742,3.6778793,55,39,0
3.9832232,4.5832233,58,30,0
3.6778793,4.5832233,50,39,0
4.887792,5.487792,58,31,0
4.5832233,5.487792,51,40,0
5.487792,5.7946973,44,40,0
5.7946973,6.394697,56,28,0
5.7946973,6.394697,60,32,0
6.394697,6.7000413,46,48,0
6.7000413,7.300041,56,33,0
6.7000413,7.300041,58,33,0
6.7000413,7.300041,62,37,0
7.300041,7.6101193,51,48,0
7.6101193,8.210119,63,37,0
7.6101193,8.210119,55,27,0
7.6101193,8.210119,58,27,0
8.542529,9.1425295,58,46,0
8.210119,9.1425295,51,55,0
9.446326,9.7444515,58,45,0
9.1425295,10.046327,53,56,0
10.35167,10.951671,58,45,0
10.046327,10.951671,55,56,0
11.255467,11.855467,58,46,0
10.951671,11.855467,50,57,0
12.160811,12.760811,58,45,0
11.855467,12.760811,51,56,0
12.760811,13.068503,44,54,0
13.068503,13.668503,56,34,0
13.068503,13.668503,60,45,0
13.668503,13.973847,46,55,0
13.973847,14.573847,58,31,0
13.973847,14.573847,62,42,0
13.973847,14.573847,56,31,0
14.573847,14.880753,51,58,0
14.880753,15.480752,55,35,0
14.880753,15.480752,58,35,0
14.880753,15.480752,63,47,0
15.815014,16.41652,58,45,0
15.480752,16.41652,51,56,0
16.72421,17.324211,58,44,0
16.41652,17.324211,53,56,0
17.631903,18.231903,58,45,0
17.324211,18.231903,55,56,0
18.538807,19.138807,58,46,0
18.231903,19.138807,50,65,0
19.445713,20.045712,58,49,0
19.138807,20.045712,51,58,0
20.045712,20.379404,44,47,0
20.379404,20.979975,60,41,0
20.379404,20.979975,56,30,0
20.979975,21.283772,46,47,0
21.283772,21.883772,56,30,0
21.283772,21.883772,58,30,0
21.283772,21.883772,62,40,0
21.883772,22.189116,51,40,0
22.189116,22.789116,63,35,0
22.189116,22.789116,55,26,0
22.189116,22.789116,58,26,0
23.118786,23.729473,51,32,0
22.789116,23.729473,39,44,0
24.07233,24.720978,56,32,0
23.729473,24.720978,44,42,0
25.020979,25.620977,49,32,0
24.720978,25.620977,37,44,0
25.953894,26.586723,54,32,0
25.620977,26.586723,42,43,0
26.886724,27.486725,47,32,0
26.586723,27.486725,35,44,0
27.82958,28.474743,53,32,0
27.486725,28.474743,41,42,0
28.774742,29.374743,46,32,0
28.474743,29.374743,34,44,0
29.72358,30.378622,51,32,0
29.374743,30.378622,39,43,0
30.711536,31.344782,56,32,0
30.378622,31.344782,44,43,0
31.344782,32.403,46,41,0
32.403,33.32265,51,40,0
31.697119,33.32265,58,41,0
33.623405,34.224907,49,33,0
33.32265,34.224907,42,41,0
34.558243,34.91188,50,53,0
34.91188,35.229126,49,33,0
34.224907,35.229126,44,39,0
35.529404,36.129402,49,33,0
35.229126,36.129402,42,39,0
36.462734,36.816372,50,55,0
36.816372,37.13216,49,33,0
36.129402,37.13216,44,40,0
37.13216,38.096634,42,39,0
37.465057,38.430897,54,43,0
38.096634,39.062782,47,40,0
38.430897,39.396114,56,43,0
39.396114,39.996117,59,37,0
39.062782,39.996117,49,43,0
39.996117,40.615265,54,32,0
39.996117,40.615265,58,43,0
41.248955,41.848953,53,25,0
40.915264,41.848953,46,43,0
41.248955,41.848953,59,33,0
41.248955,41.848953,56,25,0
42.18179,42.781788,53,24,0
41.848953,42.781788,46,43,0
42.18179,42.781788,59,32,0
42.18179,42.781788,56,24,0
43.13283,44.63283,56,24,0
42.781788,44.63283,46,43,0
43.13283,44.63283,53,24,0
43.13283,44.63283,59,32,0
44.96389,45.564724,71,32,0
44.63283,45.564724,58,43,0
44.96389,45.564724,68,24,0
44.96389,45.564724,65,24,0
45.898056,47.378254,71,32,0
47.378254,48.470005,70,40,0
45.898056,48.470005,65,24,0
45.898056,48.470005,68,24,0
45.564724,48.470005,58,43,0
48.844654,49.444656,58,32,0
48.470005,49.444656,51,40,0
49.753933,50.050808,58,31,0
49.444656,50.353935,53,41,0
50.65928,51.259277,58,30,0
50.353935,51.259277,55,40,0
51.563847,52.163845,58,32,0
51.259277,52.163845,50,43,0
52.47233,53.07233,58,36,0
52.163845,53.07233,51,40,0
53.07233,53.393185,44,41,0
53.393185,53.993187,56,24,0
53.393185,53.993187,60,32,0
53.993187,54.30167,46,40,0
54.30167,54.90167,58,23,0
54.30167,54.90167,65,31,0
54.30167,54.90167,56,23,0
54.90167,55.21015,51,47,0
55.21015,55.81015,58,30,0
55.21015,55.81015,55,30,0
55.21015,55.81015,63,40,0
56.144413,56.74592,58,40,0
55.81015,56.74592,51,46,0
57.052822,57.652824,58,32,0
56.74592,57.652824,53,43,0
57.960514,58.560516,58,32,0
57.652824,58.560516,55,43,0
58.88572,59.485718,58,35,0
58.560516,59.485718,50,45,0
59.78875,60.38875,58,38,0
59.78875,60.38875,51,28,0
59.485718,60.38875,49,45,0
60.69487,61.29487,56,41,0
60.69487,61.29487,51,30,0
60.38875,61.29487,48,62,0
61.600212,62.200214,50,33,0
61.600212,62.200214,57,44,0
61.29487,62.200214,48,71,0
62.50712,63.10712,55,42,0
62.50712,63.10712,50,31,0
62.200214,63.10712,47,72,0
63.413242,64.013245,55,45,0
63.413242,64.013245,48,34,0
63.10712,64.013245,46,72,0
64.3341,64.9341,53,45,0
64.3341,64.9341,48,34,0
64.013245,64.9341,44,72,0
65.23944,65.83944,53,35,0
65.23944,65.83944,56,47,0
64.9341,65.83944,46,71,0
66.173706,66.77428,63,57,0
65.83944,66.77428,51,72,0
67.108536,67.70911,56,57,0
66.77428,67.70911,44,73,0
68.04244,68.64244,58,56,0
67.70911,68.64244,46,72,0
68.98432,69.58432,51,54,0
68.64244,69.58432,39,73,0
69.94686,70.54686,44,64,0
69.58432,70.54686,32,75,0
70.88019,71.480194,46,57,0
70.54686,71.480194,34,76,0
71.480194,71.78019,39,58,0
71.78019,72.446304,46,54,0
71.78019,72.446304,50,72,0
72.446304,72.596855,39,56,0
72.74686,73.412964,46,61,0
72.74686,73.412964,50,81,0
73.412964,73.56335,39,64,0
73.71372,74.38039,50,81,0
73.71372,74.38039,46,61,0
74.38039,74.480385,39,72,0
74.480385,74.58038,41,72,0
74.58038,74.68038,42,72,0
74.68038,74.78039,44,76,0
74.78039,74.88039,46,78,0
74.88039,74.980385,48,74,0
74.980385,75.08038,50,81,0
75.08038,75.18038,51,82,0
75.18038,75.28039,53,79,0
75.28039,75.88039,54,86,0
76.18038,76.78039,54,68,0
76.18038,76.78039,42,68,0
77.12422,77.29089,35,65,0
77.45756,78.12422,54,59,0
77.45756,78.12422,50,53,0
77.45756,78.12422,47,53,0
78.12422,78.29089,35,67,0
78.45756,79.12422,55,57,0
78.45756,79.12422,47,51,0
78.45756,79.12422,49,51,0
78.45756,79.12422,52,51,0
79.28253,79.44085,59,58,0
79.28253,79.44085,54,52,0
79.12422,79.44085,50,72,0
79.59916,79.75747,58,62,0
79.59916,79.75747,54,55,0
79.44085,79.75747,49,80,0
79.91578,80.07409,59,57,0
79.91578,80.07409,54,51,0
79.75747,80.07409,47,72,0
80.07409,80.407425,42,80,0
80.407425,81.07409,58,57,0
80.407425,81.07409,54,51,0
81.07409,81.407425,42,81,0
81.407425,82.07409,61,64,0
81.407425,82.07409,58,57,0
81.407425,82.07409,54,57,0
82.07409,82.407425,47,80,0
82.407425,83.07409,59,56,0
82.407425,83.07409,54,50,0
83.07409,83.23538,43,72,0
83.23538,83.39667,55,56,0
83.39667,83.55796,40,79,0
83.55796,83.71925,52,59,0
83.71925,83.88054,43,72,0
83.88054,84.04183,55,57,0
84.04183,84.37609,47,79,0
84.37609,85.07289,59,64,0
84.37609,85.07289,54,57,0
85.07289,85.23956,35,45,0
85.40623,86.07289,54,32,0
85.40623,86.07289,50,28,0
85.40623,86.07289,47,28,0
86.07289,86.23956,35,43,0
86.40623,87.07289,55,32,0
86.40623,87.07289,47,28,0
86.40623,87.07289,49,28,0
86.40623,87.07289,52,28,0
87.23375,87.39461,59,40,0
87.23375,87.39461,54,36,0
87.07289,87.39461,50,45,0
87.555466,87.716324,58,42,0
87.555466,87.716324,54,37,0
87.39461,87.716324,49,48,0
87.87718,88.03804,59,40,0
87.87718,88.03804,54,36,0
87.716324,88.03804,47,45,0
88.03804,88.371376,42,44,0
88.371376,89.03804,58,35,0
88.371376,89.03804,54,31,0
89.03804,89.371376,42,74,0
89.371376,90.03804,61,64,0
89.371376,90.03804,58,57,0
89.371376,90.03804,54,57,0
90.03804,90.37137,47,73,0
90.37137,91.03804,59,63,0
90.37137,91.03804,54,56,0
91.03804,91.19623,38,64,0
91.19623,91.35412,50,57,0
91.35412,91.51202,35,72,0
91.51202,91.66991,47,60,0
91.66991,91.827805,38,64,0
91.827805,91.985695,50,57,0
91.985695,92.31996,37,81,0
92.31996,93.02792,56,48,0
92.31996,93.02792,53,43,0
92.31996,93.02792,49,43,0
93.02792,93.19449,42,48,0
93.360695,94.02551,54,40,0
94.02551,94.19172,35,48,0
94.357925,95.02274,50,40,0
94.357925,95.02274,47,36,0
95.02274,95.338806,37,48,0
95.338806,95.654594,49,36,0
95.338806,95.654594,53,40,0
95.654594,95.97038,37,40,0
95.97038,96.30372,42,40,0
96.30372,96.97038,49,32,0
96.30372,96.97038,45,28,0
96.97038,97.36928,35,77,0
97.36928,98.038895,47,57,0
97.36928,98.038895,50,57,0
97.36928,98.038895,53,64,0
98.038895,98.37315,30,64,0
98.37315,99.04168,45,37,0
98.37315,99.04168,49,42,0
99.04168,99.3586,37,63,0
99.3586,99.991844,49,63,0
99.991844,100.32517,30,64,0
100.32517,100.991844,42,43,0
100.32517,100.991844,45,43,0
100.32517,100.991844,49,48,0
100.991844,101.39318,35,84,0
101.39318,102.06098,47,64,0
101.39318,102.06098,50,64,0
101.39318,102.06098,53,72,0
102.06098,102.39431,30,64,0
102.39431,103.06098,45,39,0
102.39431,103.06098,49,44,0
103.06098,103.38356,37,64,0
103.38356,104.028725,49,64,0
104.028725,104.36188,30,64,0
104.36188,105.03905,42,36,0
104.36188,105.03905,45,36,0
104.36188,105.03905,49,40,0
105.03905,105.37238,41,81,0
105.37238,106.03905,56,64,0
105.37238,106.03905,53,57,0
106.03905,106.37238,40,81,0
106.37238,107.03905,55,61,0
106.37238,107.03905,52,54,0
107.197235,107.355125,59,57,0
107.197235,107.355125,54,51,0
107.03905,107.355125,50,72,0
107.51302,107.67091,58,57,0
107.51302,107.67091,54,51,0
107.355125,107.67091,49,72,0
107.82881,107.9867,59,57,0
107.82881,107.9867,54,51,0
107.67091,107.9867,47,72,0
107.9867,108.32004,42,72,0
108.32004,109.053375,58,64,0
108.32004,109.053375,54,57,0
109.053375,109.3867,46,72,0
109.3867,110.05337,58,57,0
109.3867,110.05337,61,64,0
110.05337,110.3867,45,80,0
110.3867,111.05337,57,54,0
110.3867,111.05337,60,62,0
111.20921,111.36506,59,64,0
111.20921,111.36506,64,72,0
111.05337,111.36506,55,81,0
111.520905,111.67674,59,64,0
111.520905,111.67674,63,72,0
111.36506,111.67674,54,81,0
111.83259,111.988434,64,72,0
111.83259,111.988434,59,64,0
111.67674,111.988434,52,81,0
111.988434,112.32269,47,81,0
112.32269,113.01037,62,68,0
112.32269,113.01037,59,61,0
113.01037,113.17079,35,72,0
113.17079,113.33122,47,58,0
113.33122,113.491646,37,72,0
113.491646,113.65208,49,57,0
113.65208,113.81251,38,72,0
113.81251,113.97293,50,57,0
113.97293,114.30627,37,72,0
114.30627,114.991196,56,60,0
114.30627,114.991196,53,53,0
114.30627,114.991196,49,53,0
114.991196,115.15249,30,72,0
115.15249,115.313774,42,57,0
115.313774,115.47507,32,72,0
115.47507,115.63636,44,56,0
115.63636,115.797646,33,72,0
115.797646,115.95894,45,56,0
115.95894,116.292274,32,72,0
116.292274,117.00178,44,58,0
116.292274,117.00178,48,58,0
116.292274,117.00178,51,65,0
117.00178,117.33583,37,48,0
117.33583,117.44694,53,50,0
117.44694,117.55805,56,32,0
117.55805,117.66916,61,32,0
117.66916,118.002495,53,32,0
117.33583,118.002495,49,45,0
118.002495,118.33583,33,48,0
118.33583,118.44694,54,46,0
118.44694,118.55805,57,32,0
118.55805,118.66916,61,32,0
118.66916,119.045334,54,32,0
118.33583,119.045334,45,37,0
119.045334,119.212006,59,76,0
119.045334,119.212006,35,76,0
119.045334,119.212006,55,68,0
119.212006,119.37867,62,60,0
119.212006,119.37867,47,60,0
119.37867,119.545334,37,76,0
119.37867,119.545334,57,76,0
119.37867,119.545334,54,68,0
119.545334,119.712006,49,60,0
119.545334,119.712006,61,60,0
119.712006,119.87867,37,76,0
119.712006,119.87867,56,76,0
119.712006,119.87867,53,68,0
119.87867,120.045334,49,60,0
119.87867,120.045334,61,60,0
120.045334,120.157036,54,75,0
120.157036,120.27052,50,69,0
120.27052,120.38586,49,74,0
120.045334,120.38586,42,67,0
120.38586,120.50308,47,75,0
120.50308,120.62231,45,69,0
120.62231,120.74355,44,69,0
120.74355,120.929214,42,79,0
121.14427,121.4776,35,48,0
121.4776,122.14427,54,32,0
121.4776,122.14427,50,28,0
121.4776,122.14427,47,28,0
122.14427,122.4776,35,48,0
122.4776,123.14427,55,32,0
122.4776,123.14427,47,28,0
122.4776,123.14427,49,28,0
122.4776,123.14427,52,28,0
123.30245,123.46035,59,32,0
123.30245,123.46035,54,28,0
123.14427,123.46035,50,48,0
123.61825,123.77614,58,32,0
123.61825,123.77614,54,28,0
123.46035,123.77614,49,48,0
123.93404,124.09193,59,32,0
123.93404,124.09193,54,28,0
123.77614,124.09193,47,48,0
124.09193,124.42453,42,48,0
124.42453,125.13511,58,32,0
124.42453,125.13511,54,28,0
125.13511,125.468445,42,48,0
125.468445,126.13511,61,40,0
125.468445,126.13511,58,36,0
125.468445,126.13511,54,36,0
126.13511,126.468445,47,48,0
126.468445,127.13511,59,32,0
126.468445,127.13511,54,28,0
127.13511,127.29342,43,48,0
127.29342,127.45173,55,32,0
127.45173,127.61005,40,48,0
127.61005,127.76836,52,32,0
127.76836,127.92667,43,48,0
127.92667,128.08498,55,32,0
128.08498,128.4183,47,48,0
128.4183,129.15164,59,32,0
128.4183,129.15164,54,28,0
129.15164,129.31831,40,81,0
129.48497,130.15164,59,64,0
129.48497,130.15164,55,57,0
129.48497,130.15164,52,57,0
130.15164,130.48497,40,81,0
130.48497,131.15164,60,64,0
130.48497,131.15164,52,57,0
130.48497,131.15164,54,57,0
130.48497,131.15164,57,57,0
131.31293,131.47423,64,57,0
131.31293,131.47423,59,51,0
131.15164,131.47423,55,64,0
131.63551,131.7968,63,57,0
131.63551,131.7968,59,51,0
131.47423,131.7968,54,64,0
131.9581,132.11938,64,57,0
131.9581,132.11938,59,51,0
131.7968,132.11938,52,64,0
132.11938,132.45271,47,64,0
132.45271,133.18472,59,50,0
132.45271,133.18472,63,56,0
133.18472,133.51805,47,81,0
133.51805,134.18472,66,64,0
133.51805,134.18472,63,57,0
133.51805,134.18472,59,57,0
134.18472,134.51805,52,81,0
134.51805,135.18472,59,57,0
134.51805,135.18472,64,64,0
135.18472,135.34558,43,57,0
135.34558,135.50644,55,45,0
135.50644,135.6673,40,64,0
135.6673,135.82816,52,54,0
135.82816,135.98901,43,57,0
135.98901,136.14987,55,45,0
136.14987,136.4832,42,64,0
136.4832,137.16136,61,56,0
136.4832,137.16136,58,50,0
136.4832,137.16136,54,50,0
137.16136,137.49469,47,48,0
137.49469,138.21019,59,32,0
137.49469,138.21019,54,28,0
138.21019,138.54434,40,48,0
138.54434,139.211,55,32,0
138.54434,139.211,52,28,0
139.211,139.52791,42,48,0
139.52791,139.84453,58,32,0
139.52791,139.84453,54,28,0
139.84453,140.16115,42,48,0
140.16115,140.4942,35,48,0
140.4942,141.22227,54,32,0
140.4942,141.22227,50,28,0
140.4942,141.22227,47,28,0
141.22227,141.3894,40,73,0
141.55653,142.26581,58,67,0
141.55653,142.26581,55,60,0
141.55653,142.26581,52,60,0
142.26581,142.59982,35,48,0
142.59982,143.2665,54,32,0
142.59982,143.2665,50,28,0
143.2665,143.58821,42,48,0
143.58821,144.23164,54,48,0
144.23164,144.56497,35,48,0
144.56497,145.28918,54,32,0
144.56497,145.28918,50,28,0
144.56497,145.28918,47,28,0
145.28918,145.45586,40,71,0
145.62253,146.32901,52,57,0
145.62253,146.32901,55,57,0
145.62253,146.32901,58,64,0
146.32901,146.66302,35,48,0
146.66302,147.32968,54,32,0
146.66302,147.32968,50,28,0
147.32968,147.654,42,48,0
147.654,148.30266,54,47,0
148.30266,148.63599,35,48,0
148.63599,149.34363,54,32,0
148.63599,149.34363,50,28,0
148.63599,149.34363,47,28,0
149.34363,149.67696,35,81,0
149.67696,150.3853,54,60,0
149.67696,150.3853,50,54,0
149.67696,150.3853,47,54,0
150.3853,150.71863,35,81,0
150.71863,151.42627,54,60,0
150.71863,151.42627,50,54,0
150.71863,151.42627,47,54,0
151.42627,151.74236,35,73,0
151.74236,152.05814,54,60,0
151.74236,152.05814,50,54,0
151.74236,152.05814,47,54,0
152.05814,152.37393,35,73,0
152.37393,152.68971,54,60,0
152.37393,152.68971,50,54,0
152.37393,152.68971,47,54,0
152.68971,153.00551,35,74,0
153.00551,153.4055,54,60,0
153.00551,153.4055,50,54,0
153.00551,153.4055,47,54,0
153.4055,153.73883,34,72,0
153.73883,154.44763,54,60,0
153.73883,154.44763,51,54,0
153.73883,154.44763,46,54,0
154.44763,154.78168,34,81,0
154.78168,155.44835,54,60,0
154.78168,155.44835,51,54,0
154.78168,155.44835,46,54,0
155.44835,155.76749,34,83,0
155.76749,156.08664,54,65,0
155.76749,156.08664,51,58,0
155.76749,156.08664,46,58,0
156.08664,156.40579,34,86,0
156.40579,156.72495,54,67,0
156.40579,156.72495,51,60,0
156.40579,156.72495,46,60,0
156.72495,157.04549,34,87,0
157.04549,157.42049,54,68,0
157.04549,157.42049,51,61,0
157.04549,157.42049,46,61,0
157.42049,157.75452,44,89,0
157.42049,157.75452,32,75,0
157.75452,158.42117,44,72,0
157.75452,158.42117,53,80,0
157.75452,158.42117,51,72,0
157.75452,158.42117,47,72,0
158.42117,159.08784,44,63,0
158.42117,159.08784,47,63,0
158.42117,159.08784,54,71,0
158.42117,159.08784,51,63,0
159.08784,159.42117,44,68,0
159.08784,159.42117,54,76,0
159.08784,159.42117,51,68,0
159.08784,159.42117,47,68,0
159.42117,161.36215,46,68,0
159.42117,161.36215,59,76,0
159.42117,161.36215,56,68,0
159.42117,161.36215,53,68,0
161.36215,163.67918,46,45,0
161.36215,163.67918,58,50,0
161.36215,163.67918,56,45,0
161.36215,163.67918,53,45,0
164.0116,164.6116,58,23,0
163.67918,164.6116,51,32,0
164.91772,165.2146,58,27,0
164.6116,165.51772,53,36,0
165.82462,166.42462,58,29,0
165.51772,166.42462,55,41,0
166.72997,167.32997,58,31,0
166.42462,167.32997,50,45,0
167.63454,168.23454,58,31,0
167.32997,168.23454,51,42,0
168.23454,168.54704,44,41,0
168.54704,169.14703,56,26,0
168.54704,169.14703,60,29,0
169.14703,169.45238,46,40,0
169.45238,170.05238,58,27,0
169.45238,170.05238,62,30,0
169.45238,170.05238,56,27,0
170.05238,170.35695,51,45,0
170.35695,170.95695,55,27,0
170.35695,170.95695,58,27,0
170.35695,170.95695,63,30,0
171.28935,171.88936,58,41,0
170.95695,171.88936,51,48,0
172.1947,172.49158,58,40,0
171.88936,172.79471,53,52,0
173.10005,173.70004,58,45,0
172.79471,173.70004,55,56,0
174.00462,174.60461,58,42,0
173.70004,174.60461,50,56,0
174.90918,175.50919,58,40,0
174.60461,175.50919,51,51,0
175.50919,175.82169,44,60,0
175.82169,176.42169,56,42,0
175.82169,176.42169,60,47,0
176.42169,176.72859,46,59,0
176.72859,177.32858,58,40,0
176.72859,177.32858,62,45,0
176.72859,177.32858,56,40,0
177.32858,177.6347,51,60,0
177.6347,178.23471,55,41,0
177.6347,178.23471,58,41,0
177.6347,178.23471,63,46,0
178.56897,179.17047,58,46,0
178.23471,179.17047,51,58,0
179.47635,180.07634,58,45,0
179.17047,180.07634,53,56,0
180.38168,180.98169,58,45,0
180.07634,180.98169,55,56,0
181.28938,181.88937,58,54,0
180.98169,181.88937,50,70,0
182.19472,182.79472,58,46,0
181.88937,182.79472,51,54,0
182.79472,183.12842,44,47,0
183.12842,183.72899,56,36,0
183.12842,183.72899,60,41,0
183.72899,184.03511,46,47,0
184.03511,184.6351,58,36,0
184.03511,184.6351,62,40,0
184.03511,184.6351,56,36,0
184.6351,184.94122,51,40,0
184.94122,185.54123,55,31,0
184.94122,185.54123,58,31,0
184.94122,185.54123,63,35,0
185.84813,186.44814,51,32,0
185.54123,186.44814,39,44,0
186.78712,187.42712,56,32,0
186.44814,187.42712,44,42,0
187.72711,188.32712,49,32,0
187.42712,188.32712,37,44,0
188.66003,189.29286,54,32,0
188.32712,189.29286,42,43,0
189.59286,190.19287,47,32,0
189.29286,190.19287,35,44,0
190.5367,191.18535,53,32,0
190.19287,191.18535,41,42,0
191.48535,192.08536,46,32,0
191.18535,192.08536,34,44,0
192.41827,193.0511,51,32,0
192.08536,193.0511,39,43,0
193.38402,194.01726,56,32,0
193.0511,194.01726,44,43,0
194.01726,195.07547,46,41,0
195.07547,195.98476,51,40,0
194.3696,195.98476,58,41,0
196.28476,196.88475,49,33,0
195.98476,196.88475,42,41,0
197.2181,197.57173,50,53,0
197.57173,197.88898,49,33,0
196.88475,197.88898,44,39,0
198.18925,198.78925,49,33,0
197.88898,198.78925,42,39,0
199.12259,199.47623,50,55,0
199.47623,199.792,49,33,0
198.78925,199.792,44,40,0
199.792,200.75648,46,39,0
200.12491,201.09074,54,43,0
200.75648,201.72263,47,40,0
201.09074,202.05597,56,43,0
202.05597,202.65596,59,37,0
201.72263,202.65596,49,43,0
202.65596,203.27768,54,38,0
202.65596,203.27768,58,43,0
203.91136,204.51137,53,29,0
203.57768,204.51137,46,43,0
203.91136,204.51137,59,33,0
203.91136,204.51137,56,29,0
204.84421,205.4442,53,28,0
204.51137,205.4442,46,43,0
204.84421,205.4442,59,32,0
204.84421,205.4442,56,28,0
205.79524,207.29524,59,32,0
205.4442,207.29524,46,43,0
205.79524,207.29524,53,28,0
205.79524,207.29524,56,28,0
207.6263,208.22714,65,28,0
207.29524,208.22714,58,43,0
207.6263,208.22714,71,32,0
207.6263,208.22714,68,28,0
208.56047,210.03429,71,32,0
210.03429,211.10406,70,43,0
208.56047,211.10406,65,28,0
208.56047,211.10406,68,28,0
208.22714,211.10406,58,43,0
211.47871,212.0787,58,30,0
211.10406,212.0787,51,41,0
212.38483,212.6817,58,32,0
212.0787,212.98483,53,41,0
213.29173,213.89174,58,32,0
212.98483,213.89174,55,41,0
214.21173,214.81174,58,32,0
213.89174,214.81174,50,41,0
215.11786,215.71785,58,31,0
214.81174,215.71785,51,40,0
215.71785,216.02397,44,41,0
216.02397,216.62398,56,28,0
216.02397,216.62398,60,32,0
216.62398,216.93088,46,41,0
216.93088,217.53088,58,28,0
216.93088,217.53088,65,32,0
216.93088,217.53088,56,28,0
217.53088,217.83527,51,45,0
217.83527,218.43526,55,32,0
217.83527,218.43526,58,32,0
217.83527,218.43526,63,36,0
218.76953,219.37103,58,35,0
218.43526,219.37103,51,44,0
219.67715,220.27715,58,34,0
219.37103,220.27715,53,42,0
220.58406,221.18405,58,32,0
220.27715,221.18405,55,40,0
221.4894,222.0894,58,40,0
221.18405,222.0894,50,48,0
222.39474,222.99474,58,38,0
222.39474,222.99474,51,34,0
222.0894,222.99474,49,47,0
223.30086,223.90086,56,36,0
223.30086,223.90086,51,32,0
222.99474,223.90086,48,56,0
224.2062,224.80621,57,37,0
224.2062,224.80621,50,33,0
223.90086,224.80621,48,60,0
225.11311,225.71312,55,41,0
225.11311,225.71312,50,36,0
224.80621,225.71312,47,63,0
226.02238,226.62239,55,43,0
226.02238,226.62239,48,38,0
225.71312,226.62239,46,64,0
226.93819,227.53818,53,42,0
226.93819,227.53818,48,37,0
226.62239,227.53818,44,68,0
227.8443,228.4443,53,36,0
227.8443,228.4443,56,40,0
227.53818,228.4443,46,68,0
228.77856,229.37914,63,56,0
228.4443,229.37914,51,72,0
229.7134,230.31396,56,56,0
229.37914,230.31396,44,72,0
230.64731,231.2473,58,56,0
230.31396,231.2473,46,72,0
231.59016,232.19016,51,53,0
231.2473,232.19016,39,72,0
232.5527,233.1527,44,57,0
232.19016,233.1527,32,79,0
233.48602,234.08603,46,57,0
233.1527,234.08603,34,76,0
234.08603,234.38603,39,64,0
234.38603,235.05214,50,81,0
234.38603,235.05214,46,72,0
235.05214,235.2027,39,64,0
235.35269,236.0188,50,81,0
235.35269,236.0188,46,72,0
236.0188,236.16919,39,64,0
236.31956,236.98622,50,81,0
236.31956,236.98622,46,72,0
236.98622,237.08623,39,72,0
237.08623,237.18622,41,72,0
237.18622,237.28622,42,74,0
237.28622,237.38623,44,76,0
237.38623,237.48622,46,78,0
237.48622,237.58623,48,80,0
237.58623,237.68622,50,81,0
237.68622,237.78622,51,82,0
237.78622,237.88623,53,84,0
237.88623,238.48622,54,86,0
238.78622,239.38623,54,82,0
238.78622,239.38623,42,73,0
239.74767,239.91434,35,65,0
240.08101,240.74767,54,66,0
240.08101,240.74767,50,59,0
240.08101,240.74767,47,59,0
240.74767,240.91434,35,67,0
241.08101,241.74767,55,64,0
241.08101,241.74767,47,57,0
241.08101,241.74767,49,57,0
241.08101,241.74767,52,57,0
241.90598,242.06429,59,65,0
241.90598,242.06429,54,58,0
241.74767,242.06429,50,72,0
242.2226,242.38092,58,69,0
242.2226,242.38092,54,62,0
242.06429,242.38092,49,80,0
242.53923,242.69754,59,64,0
242.53923,242.69754,54,57,0
242.38092,242.69754,47,72,0
242.69754,243.03087,42,72,0
243.03087,243.71611,58,64,0
243.03087,243.71611,54,57,0
243.71611,244.04944,46,80,0
244.04944,244.71611,58,64,0
244.04944,244.71611,53,57,0
244.04944,244.71611,56,57,0
244.71611,245.04944,39,80,0
245.04944,245.71611,58,64,0
245.04944,245.71611,54,57,0
245.04944,245.71611,51,57,0
245.71611,246.0322,46,64,0
246.0322,246.34798,58,57,0
246.0322,246.34798,62,64,0
246.0322,246.34798,56,57,0
246.34798,246.66377,46,64,0
246.66377,246.99681,51,81,0
246.99681,247.71849,54,57,0
246.99681,247.71849,58,64,0
247.71849,248.05182,35,82,0
248.05182,248.72998,47,71,0
248.05182,248.72998,50,71,0
248.05182,248.72998,54,79,0
248.72998,249.06332,35,85,0
249.06332,249.72998,47,69,0
249.06332,249.72998,49,69,0
249.06332,249.72998,52,69,0
249.06332,249.72998,55,77,0
249.88664,250.0433,59,72,0
249.88664,250.0433,54,64,0
249.72998,250.0433,50,64,0
250.19995,250.35661,58,72,0
250.19995,250.35661,54,64,0
250.0433,250.35661,49,64,0
250.51328,250.66994,59,72,0
250.51328,250.66994,54,64,0
250.35661,250.66994,47,64,0
250.66994,251.00327,42,97,0
251.00327,251.71277,54,72,0
251.00327,251.71277,58,81,0
251.71277,252.04611,46,97,0
252.04611,252.71277,58,81,0
252.04611,252.71277,56,72,0
252.04611,252.71277,53,72,0
252.71277,253.04611,39,97,0
253.04611,253.71277,58,81,0
253.04611,253.71277,54,72,0
253.04611,253.71277,51,72,0
253.71277,254.03363,46,72,0
254.03363,254.35448,58,72,0
254.03363,254.35448,62,81,0
254.03363,254.35448,56,72,0
254.35448,254.67534,46,72,0
254.67534,255.00847,51,85,0
255.00847,255.73123,54,66,0
255.00847,255.73123,58,66,0
255.00847,255.73123,63,74,0
255.73123,256.06458,46,90,0
256.06458,256.73123,58,66,0
256.06458,256.73123,68,74,0
256.06458,256.73123,65,66,0
256.06458,256.73123,62,66,0
256.73123,257.0573,51,88,0
257.0573,257.70895,58,66,0
257.0573,257.70895,63,66,0
257.0573,257.70895,66,74,0
257.70895,258.01273,65,72,0
257.70895,258.01273,59,64,0
257.70895,258.01273,56,64,0
258.01273,258.31653,58,65,0
258.01273,258.31653,63,65,0
258.01273,258.31653,66,73,0
258.31653,258.62033,68,73,0
258.31653,258.62033,65,65,0
258.31653,258.62033,58,65,0
258.62033,258.93695,51,85,0
258.93695,259.60593,58,66,0
258.93695,259.60593,63,66,0
258.93695,259.60593,66,74,0
259.60593,259.92172,46,88,0
259.92172,260.55328,58,66,0
259.92172,260.55328,68,74,0
259.92172,260.55328,65,66,0
259.92172,260.55328,62,66,0
260.55328,260.86417,51,88,0
260.86417,261.48593,58,66,0
260.86417,261.48593,63,66,0
260.86417,261.48593,66,74,0
261.48593,261.7765,65,73,0
261.48593,261.7765,59,65,0
261.48593,261.7765,56,65,0
261.7765,262.06705,58,65,0
261.7765,262.06705,63,65,0
261.7765,262.06705,66,73,0
262.06705,262.3576,68,73,0
262.06705,262.3576,65,65,0
262.06705,262.3576,58,65,0
262.3576,262.65836,51,85,0
262.65836,263.25986,58,66,0
262.65836,263.25986,63,66,0
262.65836,263.25986,66,74,0
263.25986,263.5606,65,72,0
263.25986,263.5606,59,64,0
263.25986,263.5606,56,64,0
263.5606,263.86136,58,65,0
263.5606,263.86136,63,65,0
263.5606,263.86136,66,73,0
263.86136,264.1621,68,73,0
263.86136,264.1621,65,65,0
263.86136,264.1621,58,65,0
264.1621,264.73245,51,72,0
264.1621,264.73245,63,81,0
264.1621,264.73245,58,72,0
264.1621,264.73245,54,72,0
264.73245,264.87497,51,57,0
264.73245,264.87497,56,57,0
264.73245,264.87497,59,57,0
264.73245,264.87497,63,63,0
265.01743,265.58212,51,73,0
265.01743,265.58212,54,73,0
265.01743,265.58212,63,82,0
265.01743,265.58212,58,73,0
265.58212,265.7233,51,57,0
265.58212,265.7233,56,57,0
265.58212,265.7233,63,64,0
265.58212,265.7233,59,57,0
265.86444,266.4252,39,77,0
265.86444,266.4252,51,86,0
265.86444,266.4252,46,77,0
265.86444,266.4252,42,77,0
266.4252,266.56537,39,61,0
266.4252,266.56537,44,61,0
266.4252,266.56537,51,68,0
266.4252,266.56537,47,61,0
266.70554,267.26236,39,72,0
266.70554,267.26236,51,81,0
266.70554,267.26236,46,72,0
266.70554,267.26236,42,72,0
267.26236,267.40158,39,57,0
267.26236,267.40158,44,57,0
267.26236,267.40158,47,64,0
267.5408,267.68,58,80,0
267.5408,267.68,42,72,0
267.5408,267.68,46,72,0
267.5408,267.68,39,72,0
267.5408,267.68,54,72,0
267.5408,267.68,51,72,0
267.8195,267.95926,39,72,0
267.8195,267.95926,56,72,0
267.8195,267.95926,51,72,0
267.8195,267.95926,59,80,0
267.8195,267.95926,44,72,0
267.8195,267.95926,47,72,0
268.09933,268.23972,58,80,0
268.09933,268.23972,39,72,0
268.09933,268.23972,42,72,0
268.09933,268.23972,51,72,0
268.09933,268.23972,54,72,0
268.09933,268.23972,46,72,0
268.3804,268.52112,39,72,0
268.3804,268.52112,56,72,0
268.3804,268.52112,51,72,0
268.3804,268.52112,59,80,0
268.3804,268.52112,44,72,0
268.3804,268.52112,47,72,0
268.66263,268.805,58,80,0
268.66263,268.805,39,72,0
268.66263,268.805,42,72,0
268.66263,268.805,51,72,0
268.66263,268.805,54,72,0
268.66263,268.805,46,72,0
268.9482,269.09232,39,72,0
268.9482,269.09232,59,80,0
268.9482,269.09232,56,72,0
268.9482,269.09232,51,72,0
268.9482,269.09232,44,72,0
268.9482,269.09232,47,72,0
269.23727,269.54416,46,87,0
269.23727,269.54416,34,78,0
270.158,270.46487,51,87,0
270.158,270.46487,39,78,0
270.158,270.46487,46,78,0
