start_time,end_time,note_value,velocity,instrument_program_number
0.853566,1.61897,58,36,1
0.853566,1.61897,70,48,1
0.853566,1.61897,65,40,1
1.61897,2.3718085,65,42,1
1.61897,2.3718085,58,37,1
1.61897,2.3718085,70,50,1
2.3718085,3.1256027,65,40,1
2.3718085,3.1256027,57,31,1
2.3718085,3.1256027,69,48,1
3.1256027,3.8885307,65,42,1
3.1256027,3.8885307,58,37,1
3.1256027,3.8885307,70,50,1
3.8885307,4.6514587,65,40,1
3.8885307,4.6514587,60,36,1
3.8885307,4.6514587,72,48,1
4.6514587,6.84422,74,53,1
4.6514587,6.84422,65,45,1
4.6514587,6.84422,62,40,1
6.84422,7.2109237,72,50,1
6.84422,7.2109237,65,42,1
6.84422,7.2109237,60,37,1
7.2109237,7.605661,70,46,1
7.2109237,7.605661,65,39,1
7.2109237,7.605661,58,35,1
7.605661,8.310842,65,39,1
7.605661,8.310842,60,35,1
7.605661,8.310842,72,47,1
8.354856,9.060037,72,46,1
8.354856,9.060037,60,34,1
8.354856,9.060037,65,38,1
9.104051,9.8174,72,46,1
9.104051,9.8174,60,34,1
9.104051,9.8174,65,38,1
9.862376,10.237796,70,50,1
9.862376,10.237796,58,37,1
9.862376,10.237796,65,42,1
10.237796,10.6455,69,45,1
10.237796,10.6455,57,30,1
10.237796,10.6455,65,38,1
10.6455,11.400027,65,52,1
11.400027,12.166156,67,50,1
11.400027,12.166156,63,42,1
12.166156,12.937281,65,44,1
10.6455,12.937281,58,37,1
10.6455,12.937281,70,52,1
12.166156,12.937281,62,36,1
12.937281,13.723204,70,61,1
13.723204,15.921121,75,60,1
13.723204,15.921121,70,51,1
13.723204,15.921121,63,45,1
15.921121,16.285286,70,46,1
15.921121,16.285286,74,55,1
15.921121,16.285286,62,41,1
16.285286,16.673635,72,50,1
16.285286,16.673635,60,37,1
16.285286,16.673635,70,42,1
16.673635,17.4175,74,53,1
16.673635,17.4175,62,45,1
16.673635,17.4175,70,45,1
17.4175,18.180267,69,50,1
17.4175,18.180267,57,37,1
17.4175,18.180267,65,42,1
18.180267,18.940145,70,52,1
18.180267,18.940145,58,39,1
18.180267,18.940145,65,44,1
18.940145,19.703142,60,37,1
18.940145,19.703142,72,50,1
18.940145,19.703142,65,42,1
19.703142,20.485735,65,44,1
19.703142,20.485735,58,39,1
19.703142,20.485735,70,52,1
20.485735,21.341139,65,44,1
20.485735,21.341139,70,44,1
20.485735,21.341139,74,52,1
20.485735,21.341139,62,39,1
21.341139,26.433413,69,42,1
21.341139,26.433413,65,42,1
21.341139,26.433413,60,37,1
21.341139,26.433413,72,50,1
28.38934,29.154743,70,48,1
28.38934,29.154743,58,36,1
28.38934,29.154743,65,40,1
29.154743,29.907581,70,50,1
29.154743,29.907581,58,37,1
29.154743,29.907581,65,42,1
29.907581,30.661377,69,48,1
29.907581,30.661377,57,31,1
29.907581,30.661377,65,40,1
30.661377,31.432428,70,50,1
30.661377,31.432428,58,37,1
30.661377,31.432428,65,42,1
31.432428,32.227688,60,36,1
31.432428,32.227688,72,48,1
31.432428,32.227688,65,40,1
32.227688,34.42045,65,45,1
32.227688,34.42045,62,40,1
32.227688,34.42045,74,53,1
34.42045,34.78715,65,42,1
34.42045,34.78715,60,37,1
34.42045,34.78715,72,50,1
34.78715,35.169853,65,39,1
34.78715,35.169853,58,35,1
34.78715,35.169853,70,46,1
35.169853,35.91119,60,35,1
35.169853,35.91119,65,39,1
35.169853,35.91119,72,47,1
35.91905,36.660385,72,46,1
35.91905,36.660385,60,34,1
35.91905,36.660385,65,38,1
36.668243,37.418537,72,46,1
36.668243,37.418537,60,34,1
36.668243,37.418537,65,38,1
37.42657,37.7985,70,50,1
37.42657,37.7985,58,37,1
37.42657,37.7985,65,42,1
37.7985,38.19695,69,45,1
37.7985,38.19695,57,30,1
37.7985,38.19695,65,38,1
38.19695,38.951477,65,52,1
38.951477,39.717606,67,50,1
38.951477,39.717606,63,42,1
39.717606,40.48873,65,44,1
38.19695,40.48873,58,37,1
38.19695,40.48873,70,52,1
39.717606,40.48873,62,36,1
40.48873,41.32937,74,61,1
40.48873,41.32937,62,45,1
40.48873,41.32937,65,51,1
41.32937,43.527287,74,60,1
41.32937,43.527287,62,45,1
41.32937,43.527287,67,51,1
43.527287,43.891453,60,41,1
43.527287,43.891453,72,55,1
43.527287,43.891453,67,46,1
43.891453,44.258156,67,42,1
43.891453,44.258156,59,37,1
43.891453,44.258156,71,50,1
44.258156,44.981663,67,54,1
44.258156,44.981663,63,53,1
44.258156,44.981663,75,65,1
44.981663,45.7356,67,50,1
44.981663,45.7356,62,50,1
44.981663,45.7356,74,59,1
45.7356,46.49872,67,48,1
45.7356,46.49872,60,48,1
45.7356,46.49872,72,57,1
46.49872,47.312737,72,61,1
46.49872,47.312737,69,51,1
46.49872,47.312737,60,45,1
47.312737,49.51065,69,51,1
47.312737,49.51065,65,45,1
47.312737,49.51065,72,60,1
47.312737,49.51065,60,45,1
49.51065,49.874817,65,46,1
49.51065,49.874817,58,41,1
49.51065,49.874817,70,55,1
49.874817,50.252083,65,42,1
49.874817,50.252083,57,37,1
49.874817,50.252083,69,50,1
50.252083,50.99101,74,65,1
50.252083,50.99101,65,55,1
50.252083,50.99101,62,51,1
50.99101,51.744946,69,56,1
50.99101,51.744946,65,47,1
50.99101,51.744946,57,47,1
51.744946,52.508064,70,59,1
51.744946,52.508064,65,50,1
51.744946,52.508064,58,50,1
52.508064,53.299355,69,45,1
52.508064,53.299355,65,45,1
52.508064,53.299355,72,54,1
52.508064,53.299355,60,40,1
53.299355,54.864098,69,45,1
53.299355,54.864098,60,40,1
53.299355,54.864098,72,54,1
54.864098,55.255283,70,48,1
54.864098,55.255283,58,48,1
53.299355,55.255283,65,40,1
58.680378,59.47945,70,51,1
59.47945,60.279984,70,52,1
60.279984,61.00691,68,51,1
61.00691,61.72559,70,52,1
61.72559,62.452866,71,50,1
62.452866,64.58654,73,52,1
64.58654,64.94305,71,56,1
64.94305,65.29955,70,53,1
65.29955,65.65606,75,58,1
66.012566,66.36423,75,54,1
66.71588,67.06754,75,54,1
67.4192,67.8063,77,56,1
67.8063,68.17215,78,51,1
68.17215,70.30796,73,54,1
70.30796,70.66447,71,52,1
70.66447,71.02097,70,51,1
71.02097,71.72429,71,52,1
71.72429,72.427605,75,52,1
72.427605,73.14062,68,52,1
73.14062,73.85363,71,52,1
73.85363,74.57159,70,54,1
74.57159,75.60352,78,61,1
74.57159,75.60352,66,51,1
75.60352,75.95719,77,53,1
75.60352,75.95719,65,45,1
75.95719,76.3137,63,47,1
75.95719,76.3137,75,56,1
76.3137,76.670204,73,51,1
76.3137,76.670204,61,43,1
76.670204,77.37352,71,54,1
76.670204,77.37352,59,46,1
77.37352,78.076836,75,56,1
78.076836,78.78985,68,54,1
78.78985,79.146355,70,52,1
79.146355,79.50286,71,52,1
79.50286,79.83619,70,55,1
79.83619,80.18102,73,52,1
80.18102,80.51435,82,56,1
80.51435,80.85721,78,52,1
80.85721,81.18153,73,56,1
81.18153,81.51487,70,52,1
81.51487,81.83804,78,55,1
81.83804,82.16796,74,52,1
82.16796,82.491135,75,55,1
82.491135,82.81722,71,52,1
82.81722,83.13637,83,56,1
83.13637,83.46069,80,54,1
83.46069,83.77405,77,58,1
83.77405,84.094765,80,56,1
84.094765,84.40811,85,58,1
84.40811,84.73466,81,54,1
84.73466,85.05783,82,57,1
85.05783,85.37661,78,54,1
85.37661,85.52471,82,57,1
85.52471,85.67281,78,51,1
85.67281,85.82594,82,56,1
85.82594,85.979065,78,50,1
85.979065,86.12717,73,56,1
86.12717,86.27527,70,52,1
86.27527,86.4284,73,56,1
86.4284,86.58152,70,53,1
86.58152,86.73819,78,58,1
86.73819,86.89487,74,53,1
86.89487,87.054306,78,57,1
87.054306,87.213745,74,52,1
87.213745,87.36862,75,57,1
87.36862,87.523506,71,52,1
87.523506,87.67407,75,54,1
87.67407,87.824646,71,52,1
87.824646,87.97007,83,57,1
87.97007,88.115486,80,51,1
88.115486,88.27036,83,56,1
88.27036,88.42524,80,50,1
88.42524,88.57524,77,56,1
88.57524,88.72524,80,52,1
88.72524,88.87909,77,56,1
88.87909,89.032936,80,53,1
89.032936,89.18294,85,58,1
89.18294,89.33294,81,53,1
89.33294,89.48757,85,57,1
89.48757,89.64221,81,52,1
89.64221,89.7998,82,57,1
89.7998,89.957375,81,53,1
89.957375,90.11136,82,52,1
90.11136,90.26535,77,52,1
90.26535,90.415924,78,57,1
90.415924,90.5665,77,51,1
90.5665,90.72226,78,51,1
90.72226,90.87802,72,50,1
90.87802,91.03114,73,55,1
91.03114,91.184265,72,51,1
91.184265,91.34094,73,51,1
91.34094,91.49762,69,51,1
91.49762,91.65611,70,54,1
91.65611,91.814606,69,47,1
91.814606,91.97691,70,49,1
91.97691,92.13921,65,47,1
92.13921,92.29771,66,57,1
92.29771,92.4562,81,53,1
92.4562,92.61197,82,52,1
92.61197,92.76773,77,52,1
92.76773,92.91697,78,57,1
92.91697,93.06621,77,51,1
93.06621,93.22197,78,51,1
93.22197,93.37773,72,50,1
93.37773,93.529144,73,55,1
93.529144,93.68055,72,51,1
93.68055,93.83813,73,51,1
93.83813,93.99571,69,51,1
93.99571,94.148834,70,54,1
94.148834,94.301956,69,47,1
94.301956,94.46045,70,49,1
94.46045,94.61895,65,47,1
94.61895,94.77653,66,53,1
94.77653,94.934105,65,49,1
94.934105,95.08987,66,49,1
95.08987,95.24563,68,49,1
95.24563,95.4014,70,55,1
95.4014,95.55716,71,49,1
95.55716,95.716545,70,49,1
95.716545,95.87594,68,49,1
95.87594,96.03974,66,55,1
96.03974,96.20355,68,50,1
96.20355,96.373215,70,50,1
96.373215,96.54288,68,50,1
96.54288,96.709564,66,55,1
96.709564,96.87625,68,50,1
96.87625,97.050064,66,52,1
97.050064,97.22388,65,51,1
97.22388,97.47232,64,57,1
97.47232,97.695854,70,52,1
97.70762,97.931145,70,54,1
97.70762,97.931145,64,45,1
97.70762,97.931145,58,45,1
97.94291,98.16644,64,50,1
97.94291,98.16644,70,59,1
97.94291,98.16644,58,50,1
98.17821,98.40173,58,47,1
98.17821,98.40173,70,56,1
98.17821,98.40173,64,47,1
98.4135,98.63703,64,48,1
98.4135,98.63703,58,48,1
98.4135,98.63703,70,57,1
98.648796,98.8688,64,52,1
98.648796,98.8688,58,52,1
98.648796,98.8688,70,62,1
98.88038,99.09935,64,47,1
98.88038,99.09935,58,47,1
98.88038,99.09935,70,56,1
99.110855,99.3284,64,47,1
99.110855,99.3284,58,47,1
99.110855,99.3284,70,57,1
99.33983,99.55562,70,65,1
99.33983,99.55562,64,55,1
99.33983,99.55562,58,55,1
99.56697,99.78137,70,61,1
99.56697,99.78137,64,51,1
99.56697,99.78137,58,51,1
99.792656,100.00538,70,62,1
99.792656,100.00538,64,52,1
99.792656,100.00538,58,52,1
100.016525,100.228195,64,57,1
100.016525,100.228195,70,67,1
100.016525,100.228195,58,57,1
100.23934,100.45101,70,64,1
100.23934,100.45101,58,53,1
100.23934,100.45101,64,53,1
100.46216,100.67516,70,65,1
100.46216,100.67516,58,55,1
100.46216,100.67516,64,55,1
100.68637,100.899376,70,71,1
100.68637,100.899376,58,59,1
100.68637,100.899376,64,59,1
100.91058,101.124985,70,67,1
100.91058,101.124985,58,56,1
100.91058,101.124985,64,56,1
101.13627,101.35096,58,57,1
101.13627,101.35096,70,69,1
101.13627,101.35096,64,57,1
101.36232,101.57876,64,62,1
101.36232,101.57876,58,62,1
101.36232,101.57876,70,74,1
101.59019,101.81015,64,59,1
101.59019,101.81015,58,59,1
101.59019,101.81015,70,71,1
101.82181,102.04579,64,60,1
101.82181,102.04579,58,60,1
101.82181,102.04579,70,72,1
102.057686,102.28993,58,72,1
102.057686,102.28993,65,72,1
102.057686,102.28993,70,85,1
102.302155,102.5344,70,80,1
102.302155,102.5344,58,67,1
102.302155,102.5344,65,67,1
102.54662,102.77887,70,80,1
102.54662,102.77887,58,67,1
102.54662,102.77887,65,67,1
102.79109,103.529396,70,90,1
102.79109,103.529396,65,77,1
102.79109,103.529396,58,63,1
103.529396,104.268616,65,72,1
103.529396,104.268616,69,85,1
103.529396,104.268616,57,60,1
104.268616,105.02475,70,85,1
104.268616,105.02475,58,60,1
104.268616,105.02475,65,72,1
105.02475,105.78677,72,85,1
105.02475,105.78677,60,60,1
105.02475,105.78677,65,72,1
105.78677,107.93745,74,92,1
105.78677,107.93745,62,64,1
105.78677,107.93745,65,78,1
107.93745,108.31012,72,89,1
107.93745,108.31012,60,62,1
107.93745,108.31012,65,74,1
108.31012,108.70486,58,58,1
108.31012,108.70486,70,82,1
108.31012,108.70486,65,69,1
108.70486,109.43189,65,73,1
108.70486,109.43189,60,61,1
108.70486,109.43189,72,88,1
109.4396,110.16664,65,71,1
109.4396,110.16664,60,59,1
109.4396,110.16664,72,84,1
110.17435,110.910164,65,70,1
110.17435,110.910164,60,59,1
110.17435,110.910164,72,83,1
110.91804,111.282776,65,73,1
110.91804,111.282776,58,61,1
110.91804,111.282776,70,88,1
111.282776,111.68228,69,82,1
111.282776,111.68228,65,69,1
111.282776,111.68228,57,58,1
111.68228,112.422295,65,82,1
112.422295,113.18529,67,88,1
112.422295,113.18529,63,73,1
113.18529,113.94155,62,70,1
111.68228,113.94155,58,75,1
111.68228,113.94155,70,90,1
113.18529,113.94155,65,83,1
113.94155,114.787415,62,64,1
113.94155,114.787415,65,75,1
113.94155,114.787415,74,89,1
114.787415,116.94926,62,64,1
114.787415,116.94926,74,89,1
114.787415,116.94926,67,75,1
116.94926,117.30606,67,71,1
116.94926,117.30606,60,59,1
116.94926,117.30606,72,84,1
117.30606,117.67276,67,67,1
117.30606,117.67276,59,56,1
117.30606,117.67276,71,79,1
117.67276,118.38237,67,79,1
117.67276,118.38237,63,67,1
117.67276,118.38237,75,94,1
118.38237,119.12184,67,76,1
118.38237,119.12184,62,65,1
118.38237,119.12184,74,91,1
119.12184,119.87026,72,88,1
119.12184,119.87026,67,74,1
119.12184,119.87026,60,63,1
119.87026,120.67367,72,86,1
119.87026,120.67367,69,72,1
119.87026,120.67367,60,60,1
120.67367,122.8293,69,78,1
120.67367,122.8293,65,76,1
120.67367,122.8293,72,89,1
120.67367,122.8293,60,65,1
122.8293,123.186485,65,74,1
122.8293,123.186485,58,63,1
122.8293,123.186485,70,88,1
123.186485,123.55649,69,80,1
123.186485,123.55649,65,68,1
123.186485,123.55649,57,57,1
123.55649,124.28123,74,92,1
123.55649,124.28123,65,77,1
123.55649,124.28123,62,65,1
124.28123,125.0207,69,87,1
124.28123,125.0207,65,73,1
124.28123,125.0207,57,61,1
125.0207,125.76913,65,77,1
125.0207,125.76913,70,92,1
125.0207,125.76913,58,65,1
125.76913,126.54511,65,70,1
125.76913,126.54511,60,59,1
125.76913,126.54511,72,82,1
125.76913,126.54511,69,70,1
126.54511,129.49573,69,75,1
126.54511,129.49573,60,64,1
126.54511,129.49573,72,89,1
126.54511,130.98701,65,75,1
129.49573,131.72043,71,73,1
129.49573,131.72043,59,61,1
129.49573,131.72043,68,61,1
131.72043,132.49144,65,55,1
131.72043,132.49144,68,55,1
131.72043,132.49144,71,66,1
131.72043,132.49144,62,55,1
132.49144,134.73573,71,66,1
132.49144,134.73573,68,55,1
132.49144,134.73573,62,55,1
132.49144,134.73573,65,55,1
134.73573,135.49336,65,66,1
134.73573,135.49336,68,66,1
134.73573,135.49336,74,78,1
134.73573,135.49336,71,66,1
135.49336,137.03261,74,86,1
137.03261,137.41235,73,86,1
135.49336,137.41235,71,72,1
135.49336,137.41235,68,72,1
135.49336,137.41235,65,72,1
137.7921,138.2197,77,96,1
137.7921,138.2197,73,80,1
137.7921,138.2197,68,80,1
137.7921,138.2197,71,80,1
138.66258,138.94829,78,92,1
138.66258,138.94829,69,77,1
138.66258,138.94829,73,77,1
138.94829,139.20158,69,28,1
138.94829,139.20158,73,34,1
139.21385,139.44698,69,30,1
139.21385,139.44698,73,36,1
139.45924,139.69237,69,32,1
139.45924,139.69237,73,38,1
139.70465,139.93777,73,35,1
139.70465,139.93777,69,29,1
139.95004,140.18317,73,35,1
139.95004,140.18317,69,29,1
140.19543,140.42857,69,32,1
140.19543,140.42857,73,38,1
140.44084,140.67397,73,35,1
140.44084,140.67397,69,29,1
140.68623,140.91937,73,35,1
140.68623,140.91937,69,29,1
141.17703,141.41017,69,27,1
141.17703,141.41017,73,32,1
141.42244,141.65556,73,32,1
141.42244,141.65556,69,27,1
140.93164,141.66783,78,54,1
141.90894,142.138,73,32,1
141.90894,142.138,69,27,1
142.15005,142.3791,73,32,1
142.15005,142.3791,69,27,1
141.66783,142.39116,78,53,1
142.63226,142.86235,73,31,1
142.63226,142.86235,69,26,1
142.87465,143.10855,73,31,1
142.87465,143.10855,69,26,1
142.39116,143.12086,81,53,1
143.36708,143.60098,73,32,1
143.36708,143.60098,69,27,1
143.6133,143.8472,69,27,1
143.6133,143.8472,73,32,1
143.12086,143.85951,78,53,1
144.1023,144.33293,69,26,1
144.1023,144.33293,73,31,1
144.34506,144.5757,73,31,1
144.34506,144.5757,69,26,1
143.85951,144.58784,81,53,1
144.83063,145.06126,73,27,1
144.83063,145.06126,78,32,1
145.0734,145.30403,73,27,1
145.0734,145.30403,78,32,1
144.58784,145.31618,81,56,1
145.55896,145.79114,73,27,1
145.55896,145.79114,78,32,1
145.80345,146.03735,78,32,1
145.80345,146.03735,73,27,1
145.31618,146.04967,85,55,1
146.29588,146.52979,78,32,1
146.29588,146.52979,73,27,1
146.5421,146.776,78,32,1
146.5421,146.776,73,27,1
146.04967,146.7883,81,55,1
147.03452,147.26842,73,27,1
147.03452,147.26842,78,32,1
147.28073,147.51463,78,32,1
147.28073,147.51463,73,27,1
146.7883,147.52695,85,56,1
147.7647,147.98892,69,32,1
147.7647,147.98892,66,27,1
148.00069,148.22298,69,32,1
148.00069,148.22298,66,27,1
147.52695,148.2346,73,56,1
148.46582,148.68921,65,27,1
148.46582,148.68921,71,33,1
148.46582,148.68921,73,33,1
148.70119,148.92873,71,34,1
148.70119,148.92873,73,34,1
148.70119,148.92873,65,27,1
148.2346,148.9407,77,56,1
149.17326,149.3942,69,34,1
149.17326,149.3942,66,28,1
149.17326,149.3942,73,34,1
149.40582,149.62675,69,35,1
149.40582,149.62675,66,29,1
149.40582,149.62675,73,35,1
148.9407,149.63838,78,58,1
149.8779,150.10545,68,29,1
149.8779,150.10545,76,36,1
149.8779,150.10545,74,36,1
150.11742,150.34497,74,36,1
150.11742,150.34497,68,29,1
150.11742,150.34497,76,36,1
149.63838,150.35695,80,62,1
150.59224,150.81577,73,30,1
150.59224,150.81577,69,30,1
150.59224,150.81577,76,36,1
150.82753,151.05106,73,29,1
150.82753,151.05106,69,29,1
150.82753,151.05106,76,36,1
150.35695,151.06282,81,61,1
151.29813,151.52657,77,35,1
151.29813,151.52657,73,35,1
151.29813,151.52657,71,28,1
151.53888,151.77278,71,28,1
151.53888,151.77278,77,34,1
151.53888,151.77278,73,34,1
151.06282,151.7851,83,60,1
152.0313,152.26521,73,33,1
152.0313,152.26521,78,33,1
152.0313,152.26521,69,27,1
152.27751,152.51141,73,32,1
152.27751,152.51141,78,32,1
152.27751,152.51141,69,27,1
151.7851,152.52373,81,57,1
152.76994,153.00385,71,32,1
152.76994,153.00385,76,32,1
152.76994,153.00385,68,27,1
153.01616,153.25006,71,32,1
153.01616,153.25006,76,32,1
153.01616,153.25006,68,27,1
152.52373,153.26237,80,56,1
153.50859,153.7425,76,31,1
153.50859,153.7425,71,26,1
153.50859,153.7425,68,26,1
153.7548,153.98871,71,26,1
153.7548,153.98871,76,31,1
153.7548,153.98871,68,26,1
154.00102,154.23492,76,31,1
154.00102,154.23492,68,26,1
154.00102,154.23492,71,26,1
154.24724,154.48114,76,31,1
154.24724,154.48114,68,26,1
154.24724,154.48114,71,26,1
154.49344,154.72736,76,32,1
154.49344,154.72736,68,27,1
154.49344,154.72736,71,27,1
153.26237,154.73965,80,54,1
154.98587,155.21977,71,25,1
154.98587,155.21977,73,29,1
154.98587,155.21977,68,25,1
155.23209,155.46599,68,25,1
155.23209,155.46599,73,30,1
155.23209,155.46599,71,25,1
154.73965,155.4783,80,55,1
155.72452,155.95842,69,25,1
155.72452,155.95842,73,29,1
155.97073,156.21695,73,29,1
155.97073,156.21695,69,25,1
155.4783,156.21695,81,54,1
156.45805,156.6871,73,32,1
156.45805,156.6871,69,27,1
156.69916,156.92822,73,32,1
156.69916,156.92822,69,27,1
156.21695,156.94028,78,53,1
157.18138,157.41145,69,26,1
157.18138,157.41145,73,31,1
157.42377,157.65767,73,31,1
157.42377,157.65767,69,26,1
156.94028,157.66998,81,53,1
157.9162,158.1501,73,32,1
157.9162,158.1501,69,27,1
158.16241,158.39632,73,32,1
158.16241,158.39632,69,27,1
157.66998,158.40863,78,53,1
158.6514,158.88203,73,31,1
158.6514,158.88203,69,26,1
158.89418,159.12482,69,26,1
158.89418,159.12482,73,31,1
158.40863,159.13696,81,53,1
159.37973,159.61037,78,32,1
159.37973,159.61037,73,27,1
159.62251,159.85315,78,32,1
159.62251,159.85315,73,27,1
159.13696,159.8653,81,56,1
160.10806,160.34026,78,32,1
160.10806,160.34026,73,27,1
160.35257,160.58647,73,27,1
160.35257,160.58647,78,32,1
159.8653,160.59877,85,55,1
160.84499,161.07889,73,27,1
160.84499,161.07889,78,32,1
161.0912,161.3251,78,32,1
161.0912,161.3251,73,27,1
160.59877,161.33742,81,55,1
161.58363,161.81754,78,32,1
161.58363,161.81754,73,27,1
161.82985,162.06375,73,27,1
161.82985,162.06375,78,32,1
161.33742,162.07607,85,56,1
162.31136,162.53488,66,27,1
162.31136,162.53488,69,32,1
162.54665,162.77019,66,27,1
162.54665,162.77019,69,32,1
162.07607,162.78195,73,56,1
163.01315,163.23592,71,33,1
163.01315,163.23592,65,27,1
163.01315,163.23592,73,33,1
163.24782,163.474,71,34,1
163.24782,163.474,65,27,1
163.24782,163.474,73,34,1
162.78195,163.48592,77,56,1
163.71712,163.93678,66,28,1
163.71712,163.93678,73,34,1
163.71712,163.93678,69,34,1
163.94833,164.16798,66,29,1
163.94833,164.16798,73,35,1
163.94833,164.16798,69,35,1
163.48592,164.17955,78,58,1
164.41907,164.64662,68,29,1
164.41907,164.64662,76,36,1
164.41907,164.64662,74,36,1
164.6586,164.88614,68,29,1
164.6586,164.88614,76,36,1
164.6586,164.88614,74,36,1
164.17955,164.89812,80,62,1
165.1334,165.35693,76,36,1
165.1334,165.35693,69,30,1
165.1334,165.35693,73,30,1
165.3687,165.59222,69,29,1
165.3687,165.59222,76,36,1
165.3687,165.59222,73,29,1
164.89812,165.60399,81,61,1
165.8393,166.06773,73,35,1
165.8393,166.06773,77,35,1
165.8393,166.06773,71,28,1
166.08005,166.31395,73,34,1
166.08005,166.31395,77,34,1
166.08005,166.31395,71,28,1
165.60399,166.32626,83,60,1
166.57248,166.80638,69,27,1
166.57248,166.80638,73,33,1
166.57248,166.80638,78,33,1
166.81868,167.0526,73,32,1
166.81868,167.0526,78,32,1
166.81868,167.0526,69,27,1
166.32626,167.0649,81,57,1
167.33157,167.5849,71,32,1
167.33157,167.5849,68,27,1
167.33157,167.5849,76,32,1
167.59824,167.85156,71,32,1
167.59824,167.85156,68,27,1
167.59824,167.85156,76,32,1
167.0649,167.8649,80,56,1
168.1103,168.34343,68,26,1
168.1103,168.34343,71,26,1
168.1103,168.34343,76,31,1
168.3557,168.58882,76,31,1
168.3557,168.58882,68,26,1
168.3557,168.58882,71,26,1
168.6011,168.83423,76,31,1
168.6011,168.83423,68,26,1
168.6011,168.83423,71,26,1
168.8465,169.07962,76,31,1
168.8465,169.07962,68,26,1
168.8465,169.07962,71,26,1
169.09189,169.32503,76,32,1
169.09189,169.32503,68,27,1
169.09189,169.32503,71,27,1
167.8649,169.3373,80,54,1
169.3373,169.7054,81,49,1
169.3373,169.7054,73,41,1
169.3373,169.7054,76,41,1
169.3373,169.7054,69,41,1
170.07349,170.7992,76,52,1
170.7992,171.80127,76,54,1
171.80127,172.13301,74,51,1
172.13301,172.46477,73,51,1
172.79651,173.46458,73,52,1
173.46458,174.45294,73,54,1
174.45294,174.78699,71,51,1
174.78699,175.12103,70,51,1
175.45506,176.10619,66,52,1
175.45506,176.10619,70,52,1
176.10619,176.74188,66,44,1
176.10619,176.74188,70,52,1
176.74188,177.36485,71,55,1
176.74188,177.36485,66,47,1
177.36485,177.9756,73,56,1
177.36485,177.9756,70,47,1
177.36485,177.9756,66,47,1
177.9756,178.58255,74,57,1
177.9756,178.58255,71,48,1
177.9756,178.58255,66,48,1
178.58255,179.19598,73,50,1
178.58255,179.19598,76,59,1
178.58255,179.19598,66,50,1
179.19598,179.82477,76,60,1
179.19598,179.82477,67,51,1
179.19598,179.82477,73,51,1
179.82477,180.47746,76,61,1
179.82477,180.47746,68,52,1
179.82477,180.47746,73,52,1
180.47746,181.14554,76,63,1
180.47746,181.14554,69,53,1
180.47746,181.14554,73,53,1
181.14554,181.93947,76,59,1
181.93947,182.08871,77,51,1
182.08871,182.2365,76,53,1
182.2365,182.38428,74,51,1
182.38428,182.68732,73,56,1
182.99188,183.6492,73,57,1
183.6492,184.44443,73,59,1
184.44443,184.59862,74,53,1
184.59862,184.74786,73,53,1
184.74786,184.89713,71,53,1
184.89713,185.20169,70,56,1
185.50626,186.15367,70,57,1
185.50626,186.15367,66,57,1
186.15367,186.6192,66,48,1
186.15367,186.6192,70,57,1
186.6192,186.77318,66,48,1
186.6192,186.77318,70,57,1
186.77318,187.23123,66,51,1
186.77318,187.23123,71,60,1
187.23123,187.38275,71,60,1
187.23123,187.38275,66,51,1
187.38275,187.83357,73,61,1
187.38275,187.83357,70,51,1
187.38275,187.83357,66,51,1
187.83357,187.98271,73,61,1
187.83357,187.98271,70,51,1
187.83357,187.98271,66,51,1
187.98271,188.42653,71,52,1
187.98271,188.42653,74,62,1
187.98271,188.42653,66,52,1
188.42653,188.57355,74,62,1
188.42653,188.57355,66,52,1
188.42653,188.57355,71,52,1
188.57355,189.01831,76,64,1
188.57355,189.01831,66,55,1
188.57355,189.01831,73,55,1
189.01831,189.16858,76,64,1
189.01831,189.16858,66,55,1
189.01831,189.16858,73,55,1
189.16858,189.62569,76,66,1
189.16858,189.62569,67,56,1
189.16858,189.62569,73,56,1
189.62569,189.78038,67,56,1
189.62569,189.78038,76,66,1
189.62569,189.78038,73,56,1
189.78038,190.25844,73,57,1
189.78038,190.25844,68,57,1
189.78038,190.25844,76,67,1
190.25844,190.41779,73,57,1
190.25844,190.41779,68,57,1
190.25844,190.41779,76,67,1
190.41779,191.0552,73,58,1
190.41779,191.0552,69,58,1
190.41779,191.0552,76,69,1
191.0552,192.17894,76,59,1
192.17894,192.33742,74,56,1
192.33742,192.65437,73,56,1
193.55043,193.61777,76,49,1
192.97133,193.61777,73,57,1
193.61777,193.77197,74,60,1
193.77197,193.92616,73,57,1
193.92616,194.08035,74,57,1
194.17342,194.24113,79,49,1
194.08035,194.24113,76,57,1
194.24113,194.39534,77,60,1
194.39534,194.54953,76,57,1
194.54953,194.70372,77,57,1
194.70372,194.85791,79,57,1
194.85791,195.17487,81,59,1
195.49182,195.80879,81,59,1
195.80879,196.12575,77,57,1
196.12575,197.24823,76,59,1
197.24823,197.40744,74,56,1
197.40744,197.72583,73,56,1
198.04424,198.71231,73,63,1
198.04424,198.71231,85,63,1
198.71231,199.03105,86,63,1
198.71231,199.03105,74,63,1
199.03105,199.34846,89,64,1
199.03105,199.34846,77,64,1
199.34846,199.66425,91,64,1
199.34846,199.66425,79,64,1
199.66425,199.97842,93,65,1
199.66425,199.97842,81,65,1
199.97842,200.60349,94,66,1
199.97842,200.60349,82,66,1
200.60349,201.22855,79,69,1
200.60349,201.22855,91,69,1
201.22855,201.85362,77,70,1
201.22855,201.85362,89,70,1
201.85362,202.47868,75,69,1
201.85362,202.47868,87,69,1
202.47868,203.10374,74,66,1
202.47868,203.10374,86,66,1
203.10374,203.7288,72,65,1
203.10374,203.7288,84,65,1
203.7288,206.57623,83,61,1
203.7288,206.57623,71,61,1
206.57623,206.88062,71,51,1
206.89664,207.20103,71,51,1
207.21706,207.52144,71,51,1
207.53746,207.84186,71,50,1
207.85786,208.16226,71,50,1
208.17828,208.48267,71,50,1
208.49869,208.80309,71,50,1
208.8191,209.91348,72,53,1
209.91348,210.07268,74,47,1
210.07268,210.39108,72,52,1
210.70949,210.782,77,49,1
210.782,210.85342,79,43,1
210.85342,210.92352,77,44,1
210.92352,210.99239,79,44,1
210.99239,211.06085,77,44,1
211.06085,211.12918,79,46,1
211.12918,211.20343,76,51,1
211.20343,211.28941,77,44,1
211.28941,212.38716,69,46,1
211.28941,212.38716,81,58,1
212.38716,212.54637,79,51,1
212.38716,212.54637,67,40,1
212.54637,212.86478,77,53,1
212.54637,212.86478,65,43,1
213.18318,213.83217,74,54,1
213.83217,214.95467,72,58,1
214.95467,215.11386,74,53,1
215.11386,215.43227,72,60,1
215.75067,215.82318,89,53,1
215.82318,215.89459,91,47,1
215.89459,215.96432,89,48,1
215.96432,216.0328,91,48,1
216.0328,216.10092,89,48,1
216.10092,216.16904,91,50,1
216.16904,216.2429,88,55,1
216.2429,216.33075,89,48,1
216.33075,217.4285,81,63,1
216.33075,217.4285,93,69,1
217.4285,217.5877,91,62,1
217.4285,217.5877,79,62,1
217.5877,217.90611,89,67,1
217.5877,217.90611,77,67,1
218.22452,218.87769,86,69,1
218.22452,218.87769,74,48,1
218.22452,218.87769,77,48,1
218.22452,218.87769,82,69,1
218.87769,219.51448,84,69,1
218.87769,219.51448,72,58,1
218.87769,219.51448,77,58,1
218.87769,219.51448,81,69,1
219.51448,220.14348,86,72,1
219.51448,220.14348,74,61,1
219.51448,220.14348,77,61,1
219.51448,220.14348,82,72,1
220.14348,220.77248,89,74,1
220.14348,220.77248,77,62,1
220.14348,220.77248,81,62,1
220.14348,220.77248,84,74,1
220.77248,221.43414,91,78,1
220.77248,221.43414,79,66,1
220.77248,221.43414,84,66,1
220.77248,221.43414,88,78,1
221.43414,222.75748,91,75,1
221.43414,222.75748,79,63,1
221.43414,222.75748,84,63,1
221.43414,222.75748,88,75,1
222.75748,222.97108,88,63,1
222.97108,223.1847,84,54,1
223.1847,223.3983,79,54,1
223.3983,223.61191,76,54,1
223.61191,223.82552,79,52,1
223.82552,224.03912,84,51,1
224.03912,224.259,77,53,1
224.259,224.4701,84,49,1
224.4701,224.57124,81,49,1
224.6724,224.77303,77,53,1
224.87364,224.97427,72,48,1
225.07489,225.17552,69,46,1
225.27614,225.37837,65,51,1
225.48062,225.58286,69,46,1
225.68509,225.78734,72,46,1
225.88957,225.99464,69,53,1
226.09973,226.2048,72,50,1
226.30988,226.41495,77,50,1
226.52002,226.73613,77,53,1
226.73613,226.94533,86,49,1
226.94533,227.04648,82,49,1
227.14763,227.24878,77,53,1
227.34995,227.4511,74,48,1
227.55225,227.6534,70,46,1
227.75455,227.85571,65,51,1
227.95686,228.05801,70,46,1
228.15916,228.26031,74,46,1
228.36147,228.46483,70,53,1
228.56819,228.67155,74,50,1
228.7749,228.87827,77,50,1
228.98163,229.19897,77,53,1
229.19897,229.4088,89,49,1
229.4088,229.50995,84,49,1
229.6111,229.71225,81,53,1
229.81342,229.91457,77,48,1
230.01572,230.11687,72,46,1
230.21802,230.31917,69,51,1
230.42033,230.52148,65,46,1
230.62263,230.72379,60,46,1
230.82494,230.92719,65,53,1
231.02942,231.13165,69,50,1
231.2339,231.33614,72,50,1
231.43837,231.64285,72,51,1
231.64285,231.84734,77,47,1
231.84734,231.94957,77,47,1
232.0518,232.25964,74,51,1
232.25964,232.46748,79,48,1
232.46748,232.5714,79,48,1
232.67531,232.88315,72,51,1
232.88315,233.09099,77,47,1
233.09099,233.1949,77,47,1
233.29881,233.50665,72,51,1
233.50665,233.7145,76,47,1
233.7145,233.8184,76,47,1
233.92233,234.13016,72,51,1
234.13016,234.338,75,47,1
234.338,234.44191,75,47,1
234.54584,234.75366,72,52,1
234.75366,234.9615,74,50,1
234.9615,235.06541,74,50,1
235.16934,235.37717,69,54,1
235.16934,235.37717,66,46,1
235.37717,235.585,75,50,1
235.585,235.68892,75,51,1
235.79285,236.00067,69,56,1
235.79285,236.00067,66,47,1
236.00067,236.20851,74,52,1
236.20851,236.31244,74,53,1
236.41635,236.62419,70,58,1
236.41635,236.62419,65,49,1
236.62419,236.83287,75,54,1
236.83287,236.93765,75,54,1
237.04272,237.25374,70,58,1
237.04272,237.25374,65,49,1
237.25374,237.46562,74,54,1
237.46562,237.57187,74,54,1
237.6787,237.89299,69,57,1
237.6787,237.89299,65,48,1
237.89299,238.10847,72,53,1
238.10847,238.21652,72,52,1
238.32489,238.54254,67,57,1
238.32489,238.54254,64,48,1
238.54254,238.76144,72,52,1
238.76144,238.87138,72,52,1
238.98164,239.61406,72,49,1
238.98164,239.61406,69,41,1
238.98164,239.61406,65,41,1
240.22098,240.52608,72,40,1
240.22098,240.52608,69,40,1
240.22098,240.52608,77,49,1
240.83116,241.1432,77,49,1
240.83116,241.1432,75,40,1
240.83116,241.1432,72,40,1
241.45496,242.07893,77,53,1
241.45496,242.07893,74,45,1
241.45496,242.07893,70,45,1
242.68585,242.99257,77,49,1
242.68585,242.99257,74,40,1
242.68585,242.99257,70,40,1
243.29929,243.61104,77,49,1
243.29929,243.61104,74,40,1
243.92279,244.55226,77,53,1
243.92279,244.55226,72,45,1
243.92279,244.55226,69,45,1
245.15918,245.46758,81,53,1
245.15918,245.46758,77,44,1
245.15918,245.46758,72,44,1
245.77596,246.0894,84,53,1
245.77596,246.0894,81,44,1
245.77596,246.0894,72,44,1
246.40285,246.60844,84,56,1
246.60844,246.81404,89,51,1
246.81404,246.91682,89,51,1
247.01962,247.22522,86,56,1
247.22522,247.43082,91,52,1
247.43082,247.53362,91,52,1
247.6364,247.842,84,56,1
247.842,248.04759,89,51,1
248.04759,248.15039,89,51,1
248.25317,248.45877,84,56,1
248.45877,248.66437,88,51,1
248.66437,248.76717,88,51,1
248.86995,249.07892,84,56,1
249.07892,249.28789,87,51,1
249.28789,249.39236,87,51,1
249.49686,249.70581,84,57,1
249.70581,249.91478,86,55,1
249.91478,250.01926,86,55,1
250.12375,250.3327,81,58,1
250.12375,250.3327,78,58,1
250.3327,250.54167,87,53,1
250.54167,250.64615,87,53,1
250.75064,250.95961,81,57,1
250.75064,250.95961,78,48,1
250.95961,251.16856,86,54,1
251.16856,251.27306,86,54,1
251.37753,251.58739,82,57,1
251.37753,251.58739,77,48,1
251.58739,251.79753,87,52,1
251.79753,251.9029,87,52,1
252.00854,252.21986,82,57,1
252.00854,252.21986,77,48,1
252.21986,252.43233,86,53,1
252.43233,252.53856,86,52,1
252.6448,252.85847,81,57,1
252.6448,252.85847,77,48,1
252.85847,253.07245,84,53,1
253.07245,253.1799,84,49,1
253.28735,253.50255,79,54,1
253.28735,253.50255,76,45,1
253.50255,253.71864,84,48,1
253.71864,253.82669,84,48,1
253.93536,254.15146,70,45,1
254.15146,254.36755,73,42,1
254.36755,254.47562,73,42,1
254.58366,254.79976,70,46,1
254.79976,255.01585,72,45,1
255.01585,255.1239,72,45,1
255.23196,255.44806,67,48,1
255.23196,255.44806,64,41,1
255.44806,255.66415,73,45,1
255.66415,255.7722,73,45,1
255.88025,256.09634,67,50,1
255.88025,256.09634,64,42,1
256.09634,256.31247,72,46,1
256.31247,256.4205,72,47,1
256.52856,256.74466,68,52,1
256.52856,256.74466,63,44,1
256.74466,256.96136,73,48,1
256.96136,257.07004,73,48,1
257.17902,257.3976,68,52,1
257.17902,257.3976,63,44,1
257.3976,257.6175,72,48,1
257.6175,257.72806,72,48,1
257.83862,258.06073,67,51,1
257.83862,258.06073,63,43,1
258.06073,258.2838,70,47,1
258.2838,258.39566,70,46,1
258.5082,258.73358,65,51,1
258.5082,258.73358,62,43,1
258.73358,258.96,70,46,1
258.96,259.07385,70,46,1
260.49182,260.70792,78,48,1
260.49182,260.70792,73,41,1
260.70792,260.924,82,45,1
260.924,261.03204,82,45,1
261.1401,261.3562,78,49,1
261.1401,261.3562,73,41,1
261.3562,261.5723,81,44,1
261.5723,261.68036,81,44,1
261.7884,262.00452,77,50,1
261.7884,262.00452,73,42,1
262.00452,262.22122,80,46,1
262.22122,262.3299,80,46,1
262.43887,262.65747,75,48,1
262.43887,262.65747,72,40,1
262.65747,262.87735,80,44,1
262.87735,262.9879,80,44,1
263.7619,263.98178,64,44,1
263.7619,263.98178,61,37,1
263.98178,264.20166,68,39,1
264.20166,264.31158,68,39,1
264.42154,264.64658,63,45,1
264.42154,264.64658,60,38,1
264.64658,264.8716,68,41,1
264.8716,264.98416,68,41,1
265.77182,266.00095,63,39,1
265.77182,266.00095,60,33,1
266.00095,266.23007,66,35,1
266.23007,266.34464,66,35,1
266.45917,266.70776,63,40,1
266.45917,266.70776,60,34,1
266.70776,266.95633,65,36,1
266.95633,267.0806,65,36,1
267.89636,268.11752,75,40,1
267.89636,268.11752,72,40,1
268.11752,268.33865,77,36,1
268.33865,268.44922,77,36,1
268.5598,268.78094,75,45,1
268.5598,268.78094,70,45,1
268.78094,269.00208,79,37,1
269.00208,269.11264,79,37,1
269.22324,269.44437,74,45,1
269.22324,269.44437,70,45,1
269.44437,269.6655,77,39,1
269.6655,269.78217,77,39,1
269.89883,270.1226,62,47,1
269.89883,270.1226,58,39,1
270.1226,270.3463,65,40,1
270.3463,270.45886,65,40,1
270.57138,270.79642,60,51,1
270.57138,270.79642,57,43,1
270.79642,271.02283,65,46,1
271.02283,271.14395,65,46,1
271.26144,271.4909,65,58,1
271.26144,271.4909,60,49,1
271.4909,271.7225,72,50,1
271.7225,271.83917,72,50,1
271.95654,272.19278,64,60,1
271.95654,272.19278,60,50,1
272.19278,272.43164,72,53,1
272.43164,272.561,72,53,1
272.6904,272.86868,65,58,1
272.6904,272.86868,60,58,1
272.6904,272.86868,57,58,1
272.92813,273.16583,60,47,1
273.16583,273.40356,57,47,1
273.40356,273.6413,60,47,1
273.6413,273.87903,65,51,1
273.87903,274.11676,69,55,1
274.80005,275.1417,62,48,1
274.11676,275.1417,72,68,1
275.1417,275.5098,70,54,1
275.1417,275.5098,64,45,1
275.5098,276.2056,69,56,1
275.5098,276.2056,65,47,1
275.5098,276.2056,60,47,1
276.2056,276.90143,69,62,1
276.2056,276.90143,67,52,1
276.2056,276.90143,61,52,1
276.90143,277.59723,69,64,1
276.90143,277.59723,62,54,1
276.90143,277.59723,60,54,1
276.90143,277.59723,66,54,1
277.59723,278.12918,70,65,1
278.12918,278.31323,69,55,1
277.59723,278.31323,67,55,1
277.59723,278.31323,62,55,1
277.59723,278.31323,58,55,1
278.31323,279.3443,67,52,1
279.3443,279.68796,68,47,1
278.31323,279.68796,64,44,1
279.68796,279.86636,69,51,1
279.68796,279.86636,65,43,1
278.31323,279.86636,60,44,1
280.41144,280.5931,69,46,1
280.41144,280.5931,65,39,1
280.41144,280.5931,60,39,1
281.37592,281.61362,48,47,1
281.61362,281.85135,45,47,1
281.85135,282.08908,48,47,1
282.08908,282.3268,53,51,1
282.3268,282.56454,57,55,1
283.24783,283.58948,50,48,1
282.9062,283.58948,48,46,1
282.56454,283.58948,60,65,1
283.58948,283.95758,58,54,1
283.58948,283.95758,52,45,1
283.58948,283.95758,48,45,1
283.95758,284.65338,57,56,1
283.95758,284.65338,53,47,1
283.95758,284.65338,48,47,1
284.65338,285.3492,57,62,1
284.65338,285.3492,55,52,1
284.65338,285.3492,49,52,1
285.3492,286.045,57,64,1
285.3492,286.045,50,54,1
285.3492,286.045,48,54,1
285.3492,286.045,54,54,1
286.045,286.3929,55,60,1
286.045,286.3929,58,71,1
286.045,286.3929,46,60,1
286.045,286.3929,50,60,1
287.49722,288.19727,70,74,1
287.49722,288.19727,68,62,1
287.49722,288.19727,62,62,1
288.19727,288.89728,70,77,1
288.19727,288.89728,63,64,1
288.19727,288.89728,61,64,1
288.19727,288.89728,67,64,1
288.89728,289.2473,68,72,1
288.89728,289.2473,71,85,1
288.89728,289.2473,59,72,1
288.89728,289.2473,63,72,1
290.29736,290.9974,80,99,1
290.29736,290.9974,74,82,1
290.29736,290.9974,76,82,1
290.29736,290.9974,83,99,1
290.9974,291.3474,84,103,1
290.9974,291.3474,72,88,1
290.9974,291.3474,76,88,1
290.9974,291.3474,81,103,1
292.39746,293.4285,84,62,1
293.4285,293.7722,85,56,1
292.39746,293.7722,81,52,1
293.7722,293.9514,86,61,1
293.7722,293.9514,82,51,1
292.39746,293.9514,77,52,1
294.49997,294.6967,86,55,1
294.49997,294.6967,82,46,1
294.49997,294.6967,77,46,1
295.28683,297.5001,89,61,1
295.28683,297.5001,86,61,1
295.28683,297.5001,77,51,1
298.2133,299.99622,77,54,1
299.99622,300.3528,74,45,1
300.3528,300.7094,70,50,1
300.7094,301.066,69,45,1
301.066,301.75336,69,49,1
301.75336,302.2689,67,44,1
302.2689,302.44073,68,44,1
301.066,302.44073,64,34,1
302.44073,302.6199,69,48,1
302.44073,302.6199,65,40,1
301.066,302.6199,60,34,1
303.1685,303.3652,69,44,1
303.1685,303.3652,65,36,1
303.1685,303.3652,60,30,1
303.95538,306.31604,72,48,1
303.95538,306.31604,69,48,1
307.10294,308.13397,84,62,1
308.13397,308.47766,85,56,1
307.10294,308.47766,81,52,1
308.47766,308.65683,86,61,1
308.47766,308.65683,82,51,1
307.10294,308.65683,77,52,1
309.2054,309.40213,86,66,1
309.2054,309.40213,82,55,1
309.2054,309.40213,77,55,1
309.99683,310.10474,70,80,1
310.10474,310.2085,74,79,1
310.2085,310.30838,77,77,1
310.30838,310.40454,82,74,1
310.40454,310.4973,86,71,1
310.4973,310.587,89,68,1
310.587,310.67587,94,65,1
310.67587,310.79782,98,61,1
310.79782,310.91284,101,58,1
313.55856,316.0547,77,62,1
316.0547,316.4113,76,50,1
316.4113,317.12448,76,53,1
317.12448,317.65936,74,51,1
317.65936,317.83765,72,47,1
317.83765,318.55084,72,51,1
318.55084,319.08572,70,48,1
319.08572,319.264,69,41,1
319.264,319.96405,69,44,1
319.96405,320.5057,67,39,1
320.5057,320.68625,68,39,1
319.264,320.68625,64,30,1
320.68625,320.87268,69,43,1
320.68625,320.87268,65,36,1
319.264,320.87268,60,30,1
321.43195,321.63574,69,39,1
321.43195,321.63574,65,32,1
321.43195,321.63574,60,27,1
322.24707,324.3951,72,43,1
322.24707,324.3951,69,43,1
326.28986,326.43393,65,48,1
326.43393,326.57797,66,53,1
326.8783,327.02457,63,48,1
327.02457,327.17087,66,52,1
327.57263,327.76407,81,43,1
327.57263,327.76407,72,36,1
328.3384,328.5422,81,39,1
328.3384,328.5422,72,32,1
329.15353,330.58838,84,43,1
329.15353,330.58838,81,43,1
331.77112,331.91898,53,42,1
331.91898,332.06525,54,48,1
332.36713,332.51416,51,41,1
332.51416,332.66116,54,48,1
333.06583,333.25726,69,38,1
333.06583,333.25726,60,32,1
333.8316,334.0354,69,35,1
333.8316,334.0354,60,28,1
334.64673,336.08157,72,38,1
334.64673,336.08157,69,38,1
336.6823,336.82858,63,54,1
336.82858,336.97485,66,61,1
337.86343,338.00824,63,55,1
338.00824,338.153,66,62,1
339.04318,339.191,63,77,1
339.191,339.3388,66,83,1
339.64392,339.79404,59,81,1
339.79404,339.94418,66,88,1
340.2585,340.41104,58,88,1
340.41104,340.5636,66,94,1
340.8992,341.05945,57,95,1
341.05945,341.21973,65,103,1
341.62436,341.74707,77,101,1
341.62436,341.74707,65,85,1
341.62436,341.74707,72,85,1
341.62436,341.74707,75,101,1
341.86975,341.99246,77,101,1
341.86975,341.99246,65,85,1
341.86975,341.99246,72,85,1
341.86975,341.99246,75,101,1
342.11514,342.24454,77,101,1
342.11514,342.24454,65,85,1
342.11514,342.24454,72,85,1
342.11514,342.24454,75,101,1
342.37393,342.55798,89,112,1
342.37393,342.55798,77,94,1
342.37393,342.55798,84,94,1
342.37393,342.55798,87,112,1
350.0134,350.77878,70,48,1
350.0134,350.77878,65,40,1
350.0134,350.77878,58,36,1
350.77878,351.53162,70,50,1
350.77878,351.53162,65,42,1
350.77878,351.53162,58,37,1
351.53162,352.28543,69,48,1
351.53162,352.28543,65,40,1
351.53162,352.28543,57,31,1
352.28543,353.05646,70,50,1
352.28543,353.05646,65,42,1
352.28543,353.05646,58,37,1
353.05646,353.8194,72,48,1
353.05646,353.8194,65,40,1
353.05646,353.8194,60,36,1
353.8194,356.01218,74,53,1
353.8194,356.01218,65,45,1
353.8194,356.01218,62,40,1
356.01218,356.37888,72,50,1
356.01218,356.37888,65,42,1
356.01218,356.37888,60,37,1
356.37888,356.7736,70,46,1
356.37888,356.7736,65,39,1
356.37888,356.7736,58,35,1
356.7736,357.51492,72,47,1
356.7736,357.51492,65,39,1
356.7736,357.51492,60,35,1
357.5228,358.26413,72,46,1
357.5228,358.26413,65,38,1
357.5228,358.26413,60,34,1
358.272,359.02228,72,46,1
358.272,359.02228,65,38,1
358.272,359.02228,60,34,1
359.0303,359.40225,70,50,1
359.0303,359.40225,65,42,1
359.0303,359.40225,58,37,1
359.40225,359.80298,69,45,1
359.40225,359.80298,65,38,1
359.40225,359.80298,57,30,1
359.80298,360.5575,65,52,1
360.5575,361.3236,67,50,1
360.5575,361.3236,63,42,1
361.3236,362.09476,65,44,1
359.80298,362.09476,58,37,1
359.80298,362.09476,70,52,1
361.3236,362.09476,62,36,1
362.09476,362.8949,70,61,1
362.8949,365.0928,75,60,1
362.8949,365.0928,70,51,1
362.8949,365.0928,63,45,1
365.0928,365.45697,74,55,1
365.0928,365.45697,70,46,1
365.0928,365.45697,62,41,1
365.45697,365.8453,72,50,1
365.45697,365.8453,70,42,1
365.45697,365.8453,60,37,1
365.8453,366.58917,74,53,1
365.8453,366.58917,70,45,1
365.8453,366.58917,62,45,1
366.58917,367.35196,69,50,1
366.58917,367.35196,65,42,1
366.58917,367.35196,57,37,1
367.35196,368.11182,70,52,1
367.35196,368.11182,65,44,1
367.35196,368.11182,58,39,1
368.11182,368.87482,72,50,1
368.11182,368.87482,65,42,1
368.11182,368.87482,60,37,1
368.87482,369.6574,70,52,1
368.87482,369.6574,65,44,1
368.87482,369.6574,58,39,1
369.6574,370.52435,74,52,1
369.6574,370.52435,65,44,1
369.6574,370.52435,62,39,1
369.6574,370.52435,70,44,1
370.52435,375.6204,72,50,1
370.52435,375.6204,60,37,1
370.52435,375.6204,65,42,1
370.52435,375.6204,69,42,1
377.57632,378.3417,70,48,1
377.57632,378.3417,65,40,1
377.57632,378.3417,58,36,1
378.3417,379.09454,70,50,1
378.3417,379.09454,65,42,1
378.3417,379.09454,58,37,1
379.09454,379.84836,69,48,1
379.09454,379.84836,65,40,1
379.09454,379.84836,57,31,1
379.84836,380.61942,70,50,1
379.84836,380.61942,65,42,1
379.84836,380.61942,58,37,1
380.61942,381.38232,72,48,1
380.61942,381.38232,65,40,1
380.61942,381.38232,60,36,1
381.38232,383.5751,74,53,1
381.38232,383.5751,65,45,1
381.38232,383.5751,62,40,1
383.5751,383.9418,72,50,1
383.5751,383.9418,65,42,1
383.5751,383.9418,60,37,1
383.9418,384.33652,70,46,1
383.9418,384.33652,65,39,1
383.9418,384.33652,58,35,1
384.33652,385.07788,72,47,1
384.33652,385.07788,65,39,1
384.33652,385.07788,60,35,1
385.08572,385.82706,72,46,1
385.08572,385.82706,65,38,1
385.08572,385.82706,60,34,1
385.83493,386.5852,72,46,1
385.83493,386.5852,65,38,1
385.83493,386.5852,60,34,1
386.59326,386.96518,70,50,1
386.59326,386.96518,65,42,1
386.59326,386.96518,58,37,1
386.96518,387.3659,69,45,1
386.96518,387.3659,65,38,1
386.96518,387.3659,57,30,1
387.3659,388.12042,65,52,1
388.12042,388.88654,67,50,1
388.12042,388.88654,63,42,1
388.88654,389.65768,65,44,1
387.3659,389.65768,58,37,1
387.3659,389.65768,70,52,1
388.88654,389.65768,62,36,1
389.65768,390.51764,74,61,1
389.65768,390.51764,65,51,1
389.65768,390.51764,62,45,1
390.51764,392.73322,74,60,1
390.51764,392.73322,67,51,1
390.51764,392.73322,62,45,1
392.73322,393.09738,72,55,1
392.73322,393.09738,67,46,1
392.73322,393.09738,60,41,1
393.09738,393.46408,71,50,1
393.09738,393.46408,67,42,1
393.09738,393.46408,59,37,1
393.46408,394.1876,75,65,1
393.46408,394.1876,67,54,1
393.46408,394.1876,63,53,1
394.1876,394.94153,74,59,1
394.1876,394.94153,67,50,1
394.1876,394.94153,62,50,1
394.94153,395.73013,72,57,1
394.94153,395.73013,67,48,1
394.94153,395.73013,60,48,1
395.73013,396.55002,72,61,1
395.73013,396.55002,69,51,1
395.73013,396.55002,60,45,1
396.55002,398.74792,72,60,1
396.55002,398.74792,65,45,1
396.55002,398.74792,60,45,1
396.55002,398.74792,69,51,1
398.74792,399.1121,70,55,1
398.74792,399.1121,65,46,1
398.74792,399.1121,58,41,1
399.1121,399.48938,69,50,1
399.1121,399.48938,65,42,1
399.1121,399.48938,57,37,1
399.48938,400.2283,74,65,1
399.48938,400.2283,65,55,1
399.48938,400.2283,62,51,1
400.2283,400.98224,69,56,1
400.2283,400.98224,65,47,1
400.2283,400.98224,57,47,1
400.98224,401.74536,70,59,1
400.98224,401.74536,65,50,1
400.98224,401.74536,58,50,1
401.74536,402.56207,72,54,1
401.74536,402.56207,65,45,1
401.74536,402.56207,60,40,1
401.74536,402.56207,69,45,1
402.56207,404.1268,72,54,1
402.56207,404.1268,69,45,1
402.56207,404.1268,60,40,1
404.1268,404.518,70,48,1
404.1268,404.518,58,48,1
402.56207,404.518,65,40,1
407.94308,408.78717,70,51,1
408.78717,409.5683,70,52,1
409.5683,410.2934,68,51,1
410.2934,411.012,70,52,1
411.012,411.73926,71,50,1
411.73926,413.87292,73,52,1
413.87292,414.22943,71,55,1
414.22943,414.58594,70,52,1
414.58594,414.94244,75,58,1
415.29895,415.65063,75,54,1
416.0023,416.35394,75,54,1
416.7056,417.08295,77,56,1
417.08295,417.44193,78,51,1
417.44193,419.57773,73,54,1
419.57773,419.93423,71,52,1
419.93423,420.29074,70,51,1
420.29074,420.99408,71,52,1
420.99408,421.6974,75,52,1
421.6974,422.4104,68,52,1
422.4104,423.1234,71,52,1
423.1234,423.84137,70,54,1
423.84137,424.9056,78,61,1
423.84137,424.9056,66,51,1
424.9056,425.25922,77,53,1
424.9056,425.25922,65,45,1
425.25922,425.61572,75,56,1
425.25922,425.61572,63,47,1
425.61572,425.97223,73,51,1
425.61572,425.97223,61,43,1
425.97223,426.67554,71,54,1
425.97223,426.67554,59,46,1
426.67554,427.37888,75,56,1
427.37888,428.0919,68,54,1
428.0919,428.4484,70,52,1
428.4484,428.8049,71,52,1
428.8049,429.13638,70,55,1
429.13638,429.4773,73,52,1
429.4773,429.80878,82,56,1
429.80878,430.14777,78,52,1
430.14777,430.47034,73,56,1
430.47034,430.80002,70,52,1
430.80002,431.1228,78,55,1
431.1228,431.45236,74,52,1
431.45236,431.77515,75,55,1
431.77515,432.10123,71,52,1
432.10123,432.42038,83,56,1
432.42038,432.74472,80,54,1
432.74472,433.0577,77,58,1
433.0577,433.37805,80,56,1
433.37805,433.69104,85,58,1
433.69104,434.01718,81,54,1
434.01718,434.33997,82,57,1
434.33997,434.65836,78,54,1
434.65836,434.80627,82,57,1
434.80627,434.9542,78,51,1
434.9542,435.10715,82,56,1
435.10715,435.2601,78,50,1
435.2601,435.40805,73,56,1
435.40805,435.55597,70,52,1
435.55597,435.70892,73,56,1
435.70892,435.86188,70,53,1
435.86188,436.01837,78,58,1
436.01837,436.17487,74,53,1
436.17487,436.3341,78,57,1
436.3341,436.49338,74,52,1
436.49338,436.64807,75,57,1
436.64807,436.80276,71,52,1
436.80276,436.95316,75,54,1
436.95316,437.10355,71,52,1
437.10355,437.25394,83,57,1
437.25394,437.40433,80,51,1
437.40433,437.55905,83,56,1
437.55905,437.71375,80,50,1
437.71375,437.8667,77,56,1
437.8667,438.01965,80,52,1
438.01965,438.17615,77,56,1
438.17615,438.33264,80,53,1
438.33264,438.49402,85,58,1
438.49402,438.65543,81,53,1
438.65543,438.82498,85,57,1
438.82498,438.99454,81,52,1
438.99454,439.15192,82,57,1
439.15192,439.30933,81,53,1
439.30933,439.46313,82,52,1
439.46313,439.61694,77,52,1
439.61694,439.76733,78,57,1
439.76733,439.91772,77,51,1
439.91772,440.0733,78,51,1
440.0733,440.22888,72,50,1
440.22888,440.38184,73,55,1
440.38184,440.53476,72,51,1
440.53476,440.69125,73,51,1
440.69125,440.84775,69,51,1
440.84775,441.00607,70,54,1
441.00607,441.1644,69,47,1
441.1644,441.3265,70,49,1
441.3265,441.48862,65,47,1
441.48862,441.6469,66,57,1
441.6469,441.80524,81,53,1
441.80524,441.9608,82,52,1
441.9608,442.11636,77,52,1
442.11636,442.26846,78,57,1
442.26846,442.42053,77,51,1
442.42053,442.5761,78,51,1
442.5761,442.73166,72,50,1
442.73166,442.8829,73,55,1
442.8829,443.03412,72,51,1
443.03412,443.19153,73,51,1
443.19153,443.3489,69,51,1
443.3489,443.50186,70,54,1
443.50186,443.65482,69,47,1
443.65482,443.81314,70,49,1
443.81314,443.97144,65,47,1
443.97144,444.12885,66,53,1
444.12885,444.28622,65,49,1
444.28622,444.4418,66,49,1
444.4418,444.59738,68,49,1
444.59738,444.75296,70,55,1
444.75296,444.9085,71,49,1
444.9085,445.0677,70,49,1
445.0677,445.2269,68,49,1
445.2269,445.3872,66,55,1
445.3872,445.54752,68,50,1
445.54752,445.7111,70,50,1
445.7111,445.8747,68,50,1
445.8747,446.03607,66,55,1
446.03607,446.19748,68,50,1
446.19748,446.36227,66,52,1
446.36227,446.52704,65,51,1
446.52704,446.75854,64,57,1
446.75854,446.9785,70,52,1
446.99005,447.21,70,54,1
446.99005,447.21,64,45,1
446.99005,447.21,58,45,1
447.22156,447.4415,70,59,1
447.22156,447.4415,64,50,1
447.22156,447.4415,58,50,1
447.45306,447.673,70,56,1
447.45306,447.673,64,47,1
447.45306,447.673,58,47,1
447.68457,447.9045,70,57,1
447.68457,447.9045,64,48,1
447.68457,447.9045,58,48,1
447.9161,448.1361,70,62,1
447.9161,448.1361,64,52,1
447.9161,448.1361,58,52,1
448.14767,448.36664,70,56,1
448.14767,448.36664,64,47,1
448.14767,448.36664,58,47,1
448.37814,448.5957,70,57,1
448.37814,448.5957,64,47,1
448.37814,448.5957,58,47,1
448.60712,448.8229,70,65,1
448.60712,448.8229,64,55,1
448.60712,448.8229,58,55,1
448.83426,449.04868,70,61,1
448.83426,449.04868,64,51,1
448.83426,449.04868,58,51,1
449.05997,449.27267,70,62,1
449.05997,449.27267,64,52,1
449.05997,449.27267,58,52,1
449.2838,449.49548,70,67,1
449.2838,449.49548,64,57,1
449.2838,449.49548,58,57,1
449.50665,449.71832,70,64,1
449.50665,449.71832,64,53,1
449.50665,449.71832,58,53,1
449.72946,449.94247,70,65,1
449.72946,449.94247,64,55,1
449.72946,449.94247,58,55,1
449.95367,450.1667,70,71,1
449.95367,450.1667,64,59,1
449.95367,450.1667,58,59,1
450.1779,450.39227,70,67,1
450.1779,450.39227,64,56,1
450.1779,450.39227,58,56,1
450.40356,450.61826,70,69,1
450.40356,450.61826,64,57,1
450.40356,450.61826,58,57,1
450.6296,450.84607,70,74,1
450.6296,450.84607,64,62,1
450.6296,450.84607,58,62,1
450.85748,451.07745,70,71,1
450.85748,451.07745,64,59,1
450.85748,451.07745,58,59,1
451.0891,451.31308,70,72,1
451.0891,451.31308,64,60,1
451.0891,451.31308,58,60,1
451.32498,451.55722,70,85,1
451.32498,451.55722,58,72,1
451.32498,451.55722,65,72,1
451.56946,451.8017,70,80,1
451.56946,451.8017,58,67,1
451.56946,451.8017,65,67,1
451.81393,452.04617,70,80,1
451.81393,452.04617,58,67,1
451.81393,452.04617,65,67,1
452.05838,452.7967,70,90,1
452.05838,452.7967,65,77,1
452.05838,452.7967,58,63,1
452.7967,453.53592,69,85,1
452.7967,453.53592,65,72,1
452.7967,453.53592,57,60,1
453.53592,454.29205,70,85,1
453.53592,454.29205,65,72,1
453.53592,454.29205,58,60,1
454.29205,455.05933,72,85,1
454.29205,455.05933,65,72,1
454.29205,455.05933,60,60,1
455.05933,457.21002,74,92,1
455.05933,457.21002,65,78,1
455.05933,457.21002,62,64,1
457.21002,457.56967,72,89,1
457.21002,457.56967,65,74,1
457.21002,457.56967,60,62,1
457.56967,457.945,70,82,1
457.56967,457.945,65,69,1
457.56967,457.945,58,58,1
457.945,458.67206,72,88,1
457.945,458.67206,65,73,1
457.945,458.67206,60,61,1
458.67975,459.4068,72,84,1
458.67975,459.4068,65,71,1
458.67975,459.4068,60,59,1
459.4145,460.1503,72,83,1
459.4145,460.1503,65,70,1
459.4145,460.1503,60,59,1
460.1582,460.52292,70,88,1
460.1582,460.52292,65,73,1
460.1582,460.52292,58,61,1
460.52292,460.92017,69,82,1
460.52292,460.92017,65,69,1
460.52292,460.92017,57,58,1
460.92017,461.6602,65,77,1
461.6602,462.4232,67,88,1
461.6602,462.4232,63,73,1
462.4232,463.17944,65,83,1
460.92017,463.17944,58,75,1
460.92017,463.17944,70,90,1
462.4232,463.17944,62,70,1
463.17944,464.04013,74,89,1
463.17944,464.04013,65,75,1
463.17944,464.04013,62,64,1
464.04013,466.20197,74,89,1
464.04013,466.20197,67,75,1
464.04013,466.20197,62,64,1
466.20197,466.55878,72,84,1
466.20197,466.55878,67,71,1
466.20197,466.55878,60,59,1
466.55878,466.92548,71,79,1
466.55878,466.92548,67,67,1
466.55878,466.92548,59,56,1
466.92548,467.6351,75,94,1
466.92548,467.6351,67,79,1
466.92548,467.6351,63,67,1
467.6351,468.37457,74,91,1
467.6351,468.37457,67,76,1
467.6351,468.37457,62,65,1
468.37457,469.123,72,88,1
468.37457,469.123,67,74,1
468.37457,469.123,60,63,1
469.123,469.92966,72,86,1
469.123,469.92966,69,72,1
469.123,469.92966,60,60,1
469.92966,472.0853,72,89,1
469.92966,472.0853,65,76,1
469.92966,472.0853,60,65,1
469.92966,472.0853,69,78,1
472.0853,472.44247,70,88,1
472.0853,472.44247,65,74,1
472.0853,472.44247,58,63,1
472.44247,472.81247,69,80,1
472.44247,472.81247,65,68,1
472.44247,472.81247,57,57,1
472.81247,473.53723,74,92,1
472.81247,473.53723,65,77,1
472.81247,473.53723,62,65,1
473.53723,474.2767,69,87,1
473.53723,474.2767,65,73,1
473.53723,474.2767,57,61,1
474.2767,475.02512,70,92,1
474.2767,475.02512,65,77,1
474.2767,475.02512,58,65,1
475.02512,475.80112,72,82,1
475.02512,475.80112,65,70,1
475.02512,475.80112,60,59,1
475.02512,475.80112,69,70,1
475.80112,478.7517,72,89,1
475.80112,478.7517,69,75,1
475.80112,478.7517,60,64,1
475.80112,480.243,65,75,1
478.7517,480.9764,59,61,1
478.7517,480.9764,68,61,1
478.7517,480.9764,71,73,1
480.9764,481.74744,71,66,1
480.9764,481.74744,62,55,1
480.9764,481.74744,65,55,1
480.9764,481.74744,68,55,1
481.74744,483.9935,71,66,1
481.74744,483.9935,62,55,1
481.74744,483.9935,65,55,1
481.74744,483.9935,68,55,1
483.9935,484.77042,74,78,1
483.9935,484.77042,65,66,1
483.9935,484.77042,68,66,1
483.9935,484.77042,71,66,1
484.77042,486.2889,74,86,1
486.2889,486.66083,73,86,1
484.77042,486.66083,71,72,1
484.77042,486.66083,68,72,1
484.77042,486.66083,65,72,1
487.03656,487.43796,77,96,1
487.03656,487.43796,68,80,1
487.03656,487.43796,71,80,1
487.03656,487.43796,73,80,1
487.85324,488.11508,78,92,1
487.85324,488.11508,73,77,1
487.85324,488.11508,69,77,1
488.12735,488.3605,73,34,1
488.12735,488.3605,69,28,1
488.37277,488.6059,73,36,1
488.37277,488.6059,69,30,1
488.61816,488.8513,73,38,1
488.61816,488.8513,69,32,1
488.86356,489.09668,73,35,1
488.86356,489.09668,69,29,1
489.10895,489.34207,73,35,1
489.10895,489.34207,69,29,1
489.35437,489.5875,73,38,1
489.35437,489.5875,69,32,1
489.59976,489.8329,73,35,1
489.59976,489.8329,69,29,1
489.84515,490.09055,73,35,1
489.84515,490.09055,69,29,1
490.33594,490.5691,73,32,1
490.33594,490.5691,69,27,1
490.58136,490.81448,73,32,1
490.58136,490.81448,69,27,1
490.09055,490.82675,78,54,1
491.06787,491.2969,73,32,1
491.06787,491.2969,69,27,1
491.30896,491.53802,73,32,1
491.30896,491.53802,69,27,1
490.82675,491.55008,78,53,1
491.7912,492.02127,73,31,1
491.7912,492.02127,69,26,1
492.03357,492.2675,73,31,1
492.03357,492.2675,69,26,1
491.55008,492.2798,81,53,1
492.526,492.7599,73,32,1
492.526,492.7599,69,27,1
492.77222,493.0061,73,32,1
492.77222,493.0061,69,27,1
492.2798,493.01843,78,53,1
493.2612,493.49185,73,31,1
493.2612,493.49185,69,26,1
493.50397,493.73462,73,31,1
493.50397,493.73462,69,26,1
493.01843,493.74677,81,53,1
493.98953,494.22018,78,32,1
493.98953,494.22018,73,27,1
494.2323,494.46295,78,32,1
494.2323,494.46295,73,27,1
493.74677,494.4751,81,56,1
494.71786,494.95004,78,32,1
494.71786,494.95004,73,27,1
494.96237,495.19626,78,32,1
494.96237,495.19626,73,27,1
494.4751,495.2086,85,55,1
495.4548,495.6887,78,32,1
495.4548,495.6887,73,27,1
495.70102,495.9349,78,32,1
495.70102,495.9349,73,27,1
495.2086,495.94724,81,55,1
496.19342,496.42734,78,32,1
496.19342,496.42734,73,27,1
496.43964,496.67355,78,32,1
496.43964,496.67355,73,27,1
495.94724,496.68585,85,56,1
496.9222,497.1458,69,32,1
496.9222,497.1458,66,27,1
497.15753,497.3785,69,32,1
497.15753,497.3785,66,27,1
496.68585,497.39008,73,56,1
497.62198,497.84604,71,33,1
497.62198,497.84604,65,27,1
497.62198,497.84604,73,33,1
497.858,498.08557,71,34,1
497.858,498.08557,65,27,1
497.858,498.08557,73,34,1
497.39008,498.09753,77,56,1
498.3261,498.54324,69,34,1
498.3261,498.54324,66,28,1
498.3261,498.54324,73,34,1
498.5547,498.77182,69,35,1
498.5547,498.77182,66,29,1
498.5547,498.77182,73,35,1
498.09753,498.78323,78,58,1
499.01993,499.24478,74,36,1
499.01993,499.24478,68,29,1
499.01993,499.24478,76,36,1
499.25662,499.48148,74,36,1
499.25662,499.48148,68,29,1
499.25662,499.48148,76,36,1
498.78323,499.49332,80,62,1
499.72452,499.94418,76,36,1
499.72452,499.94418,73,30,1
499.72452,499.94418,69,30,1
499.95572,500.17538,76,36,1
499.95572,500.17538,73,29,1
499.95572,500.17538,69,29,1
499.49332,500.18695,81,61,1
500.41815,500.64456,73,35,1
500.41815,500.64456,71,28,1
500.41815,500.64456,77,35,1
500.6569,500.89078,73,34,1
500.6569,500.89078,71,28,1
500.6569,500.89078,77,34,1
500.18695,500.90308,83,60,1
501.1493,501.3832,73,33,1
501.1493,501.3832,69,27,1
501.1493,501.3832,78,33,1
501.3955,501.62943,73,32,1
501.3955,501.62943,69,27,1
501.3955,501.62943,78,32,1
500.90308,501.64172,81,57,1
501.88794,502.12186,71,32,1
501.88794,502.12186,68,27,1
501.88794,502.12186,76,32,1
502.13416,502.36807,71,32,1
502.13416,502.36807,68,27,1
502.13416,502.36807,76,32,1
501.64172,502.38037,80,56,1
502.6266,502.8605,76,31,1
502.6266,502.8605,71,26,1
502.6266,502.8605,68,26,1
502.8728,503.10672,76,31,1
502.8728,503.10672,71,26,1
502.8728,503.10672,68,26,1
503.11902,503.35294,76,31,1
503.11902,503.35294,71,26,1
503.11902,503.35294,68,26,1
503.36523,503.59915,76,31,1
503.36523,503.59915,71,26,1
503.36523,503.59915,68,26,1
503.61145,503.84534,76,32,1
503.61145,503.84534,71,27,1
503.61145,503.84534,68,27,1
502.38037,503.85767,80,54,1
504.10388,504.33777,73,29,1
504.10388,504.33777,71,25,1
504.10388,504.33777,68,25,1
504.3501,504.58398,73,30,1
504.3501,504.58398,71,25,1
504.3501,504.58398,68,25,1
503.85767,504.5963,80,55,1
504.84253,505.07642,73,29,1
504.84253,505.07642,69,25,1
505.08875,505.32263,73,29,1
505.08875,505.32263,69,25,1
504.5963,505.33496,81,54,1
505.57605,505.8051,73,32,1
505.57605,505.8051,69,27,1
505.81717,506.04623,73,32,1
505.81717,506.04623,69,27,1
505.33496,506.0583,78,53,1
506.29938,506.52945,73,31,1
506.29938,506.52945,69,26,1
506.54178,506.77567,73,31,1
506.54178,506.77567,69,26,1
506.0583,506.788,81,53,1
507.0342,507.2681,73,32,1
507.0342,507.2681,69,27,1
507.28043,507.5143,73,32,1
507.28043,507.5143,69,27,1
506.788,507.52664,78,53,1
507.7694,508.00003,73,31,1
507.7694,508.00003,69,26,1
508.01218,508.24283,73,31,1
508.01218,508.24283,69,26,1
507.52664,508.25494,81,53,1
508.49774,508.72836,78,32,1
508.49774,508.72836,73,27,1
508.7405,508.97116,78,32,1
508.7405,508.97116,73,27,1
508.25494,508.98328,81,56,1
509.22607,509.45825,78,32,1
509.22607,509.45825,73,27,1
509.47055,509.70447,78,32,1
509.47055,509.70447,73,27,1
508.98328,509.71677,85,55,1
509.96298,510.1969,78,32,1
509.96298,510.1969,73,27,1
510.2092,510.4431,78,32,1
510.2092,510.4431,73,27,1
509.71677,510.4554,81,55,1
510.70163,510.93555,78,32,1
510.70163,510.93555,73,27,1
510.94785,511.18176,78,32,1
510.94785,511.18176,73,27,1
510.4554,511.19406,85,56,1
511.42935,511.6529,69,32,1
511.42935,511.6529,66,27,1
511.66464,511.89993,69,32,1
511.66464,511.89993,66,27,1
511.19406,511.89993,73,56,1
512.1298,512.35254,71,33,1
512.1298,512.35254,65,27,1
512.1298,512.35254,73,33,1
512.36456,512.5921,71,34,1
512.36456,512.5921,65,27,1
512.36456,512.5921,73,34,1
511.89993,512.60406,77,56,1
512.8339,513.0523,69,34,1
512.8339,513.0523,66,28,1
512.8339,513.0523,73,34,1
513.06384,513.2822,69,35,1
513.06384,513.2822,66,29,1
513.06384,513.2822,73,35,1
512.60406,513.2937,78,58,1
513.529,513.75256,74,36,1
513.529,513.75256,68,29,1
513.529,513.75256,76,36,1
513.7643,513.98785,74,36,1
513.7643,513.98785,68,29,1
513.7643,513.98785,76,36,1
513.2937,513.9996,80,62,1
514.23083,514.45044,76,36,1
514.23083,514.45044,73,30,1
514.23083,514.45044,69,30,1
514.46204,514.6817,76,36,1
514.46204,514.6817,73,29,1
514.46204,514.6817,69,29,1
513.9996,514.69324,81,61,1
514.92444,515.1509,73,35,1
514.92444,515.1509,71,28,1
514.92444,515.1509,77,35,1
515.16315,515.3971,73,34,1
515.16315,515.3971,71,28,1
515.16315,515.3971,77,34,1
514.69324,515.40936,83,60,1
515.6556,515.88947,73,33,1
515.6556,515.88947,69,27,1
515.6556,515.88947,78,33,1
515.9018,516.1357,73,32,1
515.9018,516.1357,69,27,1
515.9018,516.1357,78,32,1
515.40936,516.148,81,57,1
516.3942,516.6281,71,32,1
516.3942,516.6281,68,27,1
516.3942,516.6281,76,32,1
516.64044,516.8743,71,32,1
516.64044,516.8743,68,27,1
516.64044,516.8743,76,32,1
516.148,516.88666,80,56,1
517.1329,517.36676,76,31,1
517.1329,517.36676,71,26,1
517.1329,517.36676,68,26,1
517.3791,517.613,76,31,1
517.3791,517.613,71,26,1
517.3791,517.613,68,26,1
517.6253,517.8592,76,31,1
517.6253,517.8592,71,26,1
517.6253,517.8592,68,26,1
517.8715,518.1054,76,31,1
517.8715,518.1054,71,26,1
517.8715,518.1054,68,26,1
518.11774,518.3516,76,32,1
518.11774,518.3516,71,27,1
518.11774,518.3516,68,27,1
516.88666,518.36395,80,54,1
518.36395,518.7333,81,49,1
518.36395,518.7333,69,41,1
518.36395,518.7333,73,41,1
518.36395,518.7333,76,41,1
519.1026,519.8283,76,52,1
519.8283,520.8304,76,54,1
520.8304,521.1621,74,51,1
521.1621,521.4939,73,51,1
521.8256,522.4937,73,52,1
522.4937,523.48206,73,54,1
523.48206,523.8161,71,51,1
523.8161,524.15015,70,51,1
524.4842,525.13525,70,52,1
524.4842,525.13525,66,52,1
525.13525,525.771,70,52,1
525.13525,525.771,66,44,1
525.771,526.394,71,55,1
525.771,526.394,66,47,1
526.394,527.0047,73,56,1
526.394,527.0047,70,47,1
526.394,527.0047,66,47,1
527.0047,527.61163,74,57,1
527.0047,527.61163,71,48,1
527.0047,527.61163,66,48,1
527.61163,528.2251,76,59,1
527.61163,528.2251,73,50,1
527.61163,528.2251,66,50,1
528.2251,528.8539,76,60,1
528.2251,528.8539,73,51,1
528.2251,528.8539,67,51,1
528.8539,529.50653,76,61,1
528.8539,529.50653,73,52,1
528.8539,529.50653,68,52,1
529.50653,530.1746,76,63,1
529.50653,530.1746,73,53,1
529.50653,530.1746,69,53,1
530.1746,530.96783,76,59,1
530.96783,531.11633,77,51,1
531.11633,531.26483,76,53,1
531.26483,531.4134,74,51,1
531.4134,531.7195,73,56,1
532.02563,532.6829,73,57,1
532.6829,533.4725,73,59,1
533.4725,533.621,74,53,1
533.621,533.76953,73,53,1
533.76953,533.918,71,53,1
533.918,534.2241,70,56,1
534.5303,535.17926,70,57,1
534.5303,535.17926,66,57,1
535.17926,535.64777,70,57,1
535.17926,535.64777,66,48,1
535.64777,535.8025,70,57,1
535.64777,535.8025,66,48,1
535.8025,536.2626,71,60,1
535.8025,536.2626,66,51,1
536.2626,536.4146,71,60,1
536.2626,536.4146,66,51,1
536.4146,536.86633,73,61,1
536.4146,536.86633,70,51,1
536.4146,536.86633,66,51,1
536.86633,537.0157,73,61,1
536.86633,537.0157,70,51,1
536.86633,537.0157,66,51,1
537.0157,537.45935,74,62,1
537.0157,537.45935,71,52,1
537.0157,537.45935,66,52,1
537.45935,537.6059,74,62,1
537.45935,537.6059,71,52,1
537.45935,537.6059,66,52,1
537.6059,538.0488,76,64,1
537.6059,538.0488,73,55,1
537.6059,538.0488,66,55,1
538.0488,538.1984,76,64,1
538.0488,538.1984,73,55,1
538.0488,538.1984,66,55,1
538.1984,538.6523,76,66,1
538.1984,538.6523,73,56,1
538.1984,538.6523,67,56,1
538.6523,538.80536,76,66,1
538.6523,538.80536,73,56,1
538.6523,538.80536,67,56,1
538.80536,539.2756,76,67,1
538.80536,539.2756,73,57,1
538.80536,539.2756,68,57,1
539.2756,539.43225,76,67,1
539.2756,539.43225,73,57,1
539.2756,539.43225,68,57,1
539.43225,540.07697,76,69,1
539.43225,540.07697,73,58,1
539.43225,540.07697,69,58,1
540.07697,541.2007,76,59,1
541.2007,541.35913,74,56,1
541.35913,541.6761,73,56,1
542.57214,542.6395,76,49,1
541.99304,542.6395,73,57,1
542.6395,542.79456,74,60,1
542.79456,542.9487,73,57,1
542.9487,543.1029,74,57,1
543.196,543.26373,79,49,1
543.1029,543.26373,76,57,1
543.26373,543.41876,77,60,1
543.41876,543.5738,76,57,1
543.5738,543.7288,77,57,1
543.7288,543.88385,79,57,1
543.88385,544.1991,81,59,1
544.51434,544.8295,81,59,1
544.8295,545.1448,77,57,1
545.1448,546.2673,76,59,1
546.2673,546.42645,74,56,1
546.42645,546.7449,73,56,1
547.0633,547.7313,73,63,1
547.0633,547.7313,85,63,1
547.7313,548.0501,86,63,1
547.7313,548.0501,74,63,1
548.0501,548.3675,89,64,1
548.0501,548.3675,77,64,1
548.3675,548.6833,91,64,1
548.3675,548.6833,79,64,1
548.6833,548.99744,93,65,1
548.6833,548.99744,81,65,1
548.99744,549.6225,94,66,1
548.99744,549.6225,82,66,1
549.6225,550.24756,79,69,1
549.6225,550.24756,91,69,1
550.24756,550.8726,77,70,1
550.24756,550.8726,89,70,1
550.8726,551.4977,75,69,1
550.8726,551.4977,87,69,1
551.4977,552.12274,74,66,1
551.4977,552.12274,86,66,1
552.12274,552.74786,72,65,1
552.12274,552.74786,84,65,1
552.74786,555.5953,83,61,1
552.74786,555.5953,71,61,1
555.5953,555.89966,71,51,1
555.91565,556.22003,71,51,1
556.2361,556.54047,71,51,1
556.55646,556.8609,71,50,1
556.8769,557.1813,71,50,1
557.1973,557.5017,71,50,1
557.5177,557.8221,71,50,1
557.83813,558.9325,72,53,1
558.9325,559.09174,74,47,1
559.09174,559.4101,72,52,1
559.7285,559.801,77,49,1
559.801,559.87244,79,43,1
559.87244,559.94257,77,44,1
559.94257,560.0114,79,44,1
560.0114,560.0799,77,44,1
560.0799,560.1482,79,46,1
560.1482,560.2225,76,51,1
560.2225,560.3084,77,44,1
560.3084,561.4062,69,46,1
560.3084,561.4062,81,58,1
561.4062,561.56537,79,51,1
561.4062,561.56537,67,40,1
561.56537,561.8838,77,53,1
561.56537,561.8838,65,43,1
562.2022,562.8512,74,54,1
562.8512,563.9737,72,58,1
563.9737,564.1329,74,53,1
564.1329,564.4513,72,60,1
564.7697,564.8422,89,53,1
564.8422,564.91364,91,47,1
564.91364,564.98334,89,48,1
564.98334,565.0518,91,48,1
565.0518,565.11993,89,48,1
565.11993,565.18805,91,50,1
565.18805,565.2619,88,55,1
565.2619,565.3498,89,48,1
565.3498,566.4475,81,63,1
565.3498,566.4475,93,69,1
566.4475,566.60675,91,62,1
566.4475,566.60675,79,62,1
566.60675,566.9251,89,67,1
566.60675,566.9251,77,67,1
567.2435,567.8967,86,69,1
567.2435,567.8967,74,48,1
567.2435,567.8967,77,48,1
567.2435,567.8967,82,69,1
567.8967,568.5335,84,69,1
567.8967,568.5335,72,58,1
567.8967,568.5335,77,58,1
567.8967,568.5335,81,69,1
568.5335,569.16254,86,72,1
568.5335,569.16254,74,61,1
568.5335,569.16254,77,61,1
568.5335,569.16254,82,72,1
569.16254,569.7915,89,74,1
569.16254,569.7915,77,62,1
569.16254,569.7915,81,62,1
569.16254,569.7915,84,74,1
569.7915,570.4532,91,78,1
569.7915,570.4532,79,66,1
569.7915,570.4532,84,66,1
569.7915,570.4532,88,78,1
570.4532,571.7765,91,75,1
570.4532,571.7765,79,63,1
570.4532,571.7765,84,63,1
570.4532,571.7765,88,75,1
571.7765,571.9901,88,63,1
571.9901,572.20374,84,54,1
572.20374,572.4173,79,54,1
572.4173,572.6309,76,54,1
572.6309,572.84454,79,52,1
572.84454,573.05817,84,51,1
573.05817,573.278,77,53,1
573.278,573.48914,84,49,1
573.48914,573.5903,81,49,1
573.6914,573.79205,77,53,1
573.89264,573.9933,72,48,1
574.09393,574.1945,69,46,1
574.29517,574.3974,65,51,1
574.49963,574.60187,69,46,1
574.7041,574.80634,72,46,1
574.90857,575.0137,69,53,1
575.1188,575.2238,72,50,1
575.3289,575.43396,77,50,1
575.53906,575.7551,77,53,1
575.7551,575.96436,86,49,1
575.96436,576.0655,82,49,1
576.1667,576.2678,77,53,1
576.36896,576.4701,74,48,1
576.5713,576.6724,70,46,1
576.77356,576.87476,65,51,1
576.9759,577.077,70,46,1
577.17816,577.27936,74,46,1
577.3805,577.4838,70,53,1
577.5872,577.69055,74,50,1
577.79395,577.8973,77,50,1
578.0007,578.218,77,53,1
578.218,578.4278,89,49,1
578.4278,578.529,84,49,1
578.6301,578.73126,81,53,1
578.83246,578.9336,77,48,1
579.0347,579.13586,72,46,1
579.23706,579.3382,69,51,1
579.43933,579.5405,65,46,1
579.64166,579.7428,60,46,1
579.844,579.9462,65,53,1
580.04846,580.1507,69,50,1
580.2529,580.35516,72,50,1
580.4574,580.66187,72,51,1
580.66187,580.86633,77,47,1
580.86633,580.96857,77,47,1
581.07086,581.2787,74,51,1
581.2787,581.4865,79,48,1
581.4865,581.5904,79,48,1
581.69434,581.90216,72,51,1
581.90216,582.11,77,47,1
582.11,582.2139,77,47,1
582.3179,582.5257,72,51,1
582.5257,582.7335,76,47,1
582.7335,582.83746,76,47,1
582.94135,583.1492,72,51,1
583.1492,583.357,75,47,1
583.357,583.46094,75,47,1
583.5649,583.7727,72,52,1
583.7727,583.9805,74,50,1
583.9805,584.0845,74,50,1
584.18835,584.3962,69,54,1
584.18835,584.3962,66,46,1
584.3962,584.604,75,50,1
584.604,584.70795,75,51,1
584.8119,585.0197,69,56,1
584.8119,585.0197,66,47,1
585.0197,585.22754,74,52,1
585.22754,585.3315,74,53,1
585.43536,585.6432,70,58,1
585.43536,585.6432,65,49,1
585.6432,585.85187,75,54,1
585.85187,585.95667,75,54,1
586.06177,586.27277,70,58,1
586.06177,586.27277,65,49,1
586.27277,586.4847,74,54,1
586.4847,586.5909,74,54,1
586.69775,586.912,69,57,1
586.69775,586.912,65,48,1
586.912,587.1275,72,53,1
587.1275,587.23553,72,52,1
587.34393,587.5616,67,57,1
587.34393,587.5616,64,48,1
587.5616,587.78046,72,52,1
587.78046,587.8904,72,52,1
588.0007,588.63306,72,49,1
588.0007,588.63306,69,41,1
588.0007,588.63306,65,41,1
589.24,589.5451,72,40,1
589.24,589.5451,69,40,1
589.24,589.5451,77,49,1
589.8502,590.16223,77,49,1
589.8502,590.16223,75,40,1
589.8502,590.16223,72,40,1
590.474,591.09796,77,53,1
590.474,591.09796,74,45,1
590.474,591.09796,70,45,1
591.7049,592.0116,77,49,1
591.7049,592.0116,74,40,1
591.7049,592.0116,70,40,1
592.3183,592.63007,77,49,1
592.3183,592.63007,74,40,1
592.94183,593.5713,77,53,1
592.94183,593.5713,72,45,1
592.94183,593.5713,69,45,1
594.1782,594.4866,81,53,1
594.1782,594.4866,77,44,1
594.1782,594.4866,72,44,1
594.795,595.10846,84,53,1
594.795,595.10846,81,44,1
594.795,595.10846,72,44,1
595.4219,595.62744,84,56,1
595.62744,595.83307,89,51,1
595.83307,595.93585,89,51,1
596.03864,596.24426,86,56,1
596.24426,596.4498,91,52,1
596.4498,596.5526,91,52,1
596.65546,596.861,84,56,1
596.861,597.0666,89,51,1
597.0666,597.16943,89,51,1
597.2722,597.4778,84,56,1
597.4778,597.6834,88,51,1
597.6834,597.7862,88,51,1
597.889,598.09796,84,56,1
598.09796,598.3069,87,51,1
598.3069,598.4114,87,51,1
598.51587,598.72485,84,57,1
598.72485,598.9338,86,55,1
598.9338,599.03827,86,55,1
599.14276,599.35175,81,58,1
599.14276,599.35175,78,58,1
599.35175,599.56067,87,53,1
599.56067,599.66516,87,53,1
599.76965,599.97864,81,57,1
599.76965,599.97864,78,48,1
599.97864,600.1876,86,54,1
600.1876,600.29205,86,54,1
600.39655,600.6064,82,57,1
600.39655,600.6064,77,48,1
600.6064,600.8166,87,52,1
600.8166,600.92194,87,52,1
601.0276,601.2389,82,57,1
601.0276,601.2389,77,48,1
601.2389,601.45135,86,53,1
601.45135,601.5576,86,52,1
601.6638,601.8775,81,57,1
601.6638,601.8775,77,48,1
601.8775,602.0915,84,53,1
602.0915,602.1989,84,49,1
602.3064,602.52155,79,54,1
602.3064,602.52155,76,45,1
602.52155,602.7377,84,48,1
602.7377,602.8457,84,48,1
602.9544,603.1705,70,45,1
603.1705,603.3866,73,42,1
603.3866,603.4946,73,42,1
603.60266,603.8188,70,46,1
603.8188,604.0349,72,45,1
604.0349,604.14294,72,45,1
604.251,604.4671,67,48,1
604.251,604.4671,64,41,1
604.4671,604.68317,73,45,1
604.68317,604.79126,73,45,1
604.8993,605.11536,67,50,1
604.8993,605.11536,64,42,1
605.11536,605.3315,72,46,1
605.3315,605.4395,72,47,1
605.5476,605.7637,68,52,1
605.5476,605.7637,63,44,1
605.7637,605.9804,73,48,1
605.9804,606.08905,73,48,1
606.19806,606.4166,68,52,1
606.19806,606.4166,63,44,1
606.4166,606.63654,72,48,1
606.63654,606.7471,72,48,1
606.85767,607.0798,67,51,1
606.85767,607.0798,63,43,1
607.0798,607.30286,70,47,1
607.30286,607.4147,70,46,1
607.5272,607.7526,65,51,1
607.5272,607.7526,62,43,1
607.7526,607.979,70,46,1
607.979,608.0929,70,46,1
609.51086,609.7269,78,48,1
609.51086,609.7269,73,41,1
609.7269,609.94305,82,45,1
609.94305,610.0511,82,45,1
610.1591,610.37524,78,49,1
610.1591,610.37524,73,41,1
610.37524,610.5913,81,44,1
610.5913,610.6994,81,44,1
610.80743,611.02356,77,50,1
610.80743,611.02356,73,42,1
611.02356,611.24023,80,46,1
611.24023,611.34894,80,46,1
611.4579,611.6765,75,48,1
611.4579,611.6765,72,40,1
611.6765,611.89636,80,44,1
611.89636,612.00696,80,44,1
612.78094,613.0008,64,44,1
612.78094,613.0008,61,37,1
613.0008,613.2207,68,39,1
613.2207,613.3306,68,39,1
613.44055,613.6656,63,45,1
613.44055,613.6656,60,38,1
613.6656,613.8906,68,41,1
613.8906,614.0032,68,41,1
614.79083,615.01996,63,39,1
614.79083,615.01996,60,33,1
615.01996,615.2491,66,35,1
615.2491,615.36365,66,35,1
615.4782,615.7268,63,40,1
615.4782,615.7268,60,34,1
615.7268,615.97534,65,36,1
615.97534,616.0996,65,36,1
616.9154,617.13654,75,40,1
616.9154,617.13654,72,40,1
617.13654,617.35767,77,36,1
617.35767,617.46826,77,36,1
617.5788,617.8,75,45,1
617.5788,617.8,70,45,1
617.8,618.0211,79,37,1
618.0211,618.13165,79,37,1
618.24225,618.4634,74,45,1
618.24225,618.4634,70,45,1
618.4634,618.6845,77,39,1
618.6845,618.8012,77,39,1
618.91785,619.1416,62,47,1
618.91785,619.1416,58,39,1
619.1416,619.36536,65,40,1
619.36536,619.4779,65,40,1
619.5904,619.8154,60,51,1
619.5904,619.8154,57,43,1
619.8154,620.0419,65,46,1
620.0419,620.16296,65,46,1
620.28046,620.50995,65,58,1
620.28046,620.50995,60,49,1
620.50995,620.7415,72,50,1
620.7415,620.8582,72,50,1
620.9756,621.2118,64,60,1
620.9756,621.2118,60,50,1
621.2118,621.4506,72,53,1
621.4506,621.58,72,53,1
621.7094,621.8877,65,58,1
621.7094,621.8877,60,58,1
621.7094,621.8877,57,58,1
621.94714,622.1849,60,47,1
622.1849,622.4226,57,47,1
622.4226,622.66034,60,47,1
622.66034,622.8981,65,51,1
622.8981,623.1358,69,55,1
623.8191,624.1607,62,48,1
623.1358,624.1607,72,68,1
624.1607,624.5288,70,54,1
624.1607,624.5288,64,45,1
624.5288,625.2246,69,56,1
624.5288,625.2246,65,47,1
624.5288,625.2246,60,47,1
625.2246,625.9205,69,62,1
625.2246,625.9205,67,52,1
625.2246,625.9205,61,52,1
625.9205,626.6163,69,64,1
625.9205,626.6163,62,54,1
625.9205,626.6163,60,54,1
625.9205,626.6163,66,54,1
626.6163,627.1482,70,65,1
627.1482,627.3323,69,55,1
626.6163,627.3323,67,55,1
626.6163,627.3323,62,55,1
626.6163,627.3323,58,55,1
627.3323,628.3633,67,52,1
628.3633,628.707,68,47,1
627.3323,628.707,64,44,1
628.707,628.8854,69,51,1
628.707,628.8854,65,43,1
627.3323,628.8854,60,44,1
629.4305,629.6121,69,46,1
629.4305,629.6121,65,39,1
629.4305,629.6121,60,39,1
630.3949,630.6326,48,47,1
630.6326,630.87036,45,47,1
630.87036,631.1081,48,47,1
631.1081,631.3458,53,51,1
631.3458,631.58356,57,55,1
632.26685,632.6085,50,48,1
631.92523,632.6085,48,46,1
631.58356,632.6085,60,65,1
632.6085,632.9766,58,54,1
632.6085,632.9766,52,45,1
632.6085,632.9766,48,45,1
632.9766,633.6724,57,56,1
632.9766,633.6724,53,47,1
632.9766,633.6724,48,47,1
633.6724,634.3682,57,62,1
633.6724,634.3682,55,52,1
633.6724,634.3682,49,52,1
634.3682,635.064,57,64,1
634.3682,635.064,50,54,1
634.3682,635.064,48,54,1
634.3682,635.064,54,54,1
635.064,635.4119,55,60,1
635.064,635.4119,58,71,1
635.064,635.4119,46,60,1
635.064,635.4119,50,60,1
636.51624,637.2163,70,74,1
636.51624,637.2163,68,62,1
636.51624,637.2163,62,62,1
637.2163,637.9163,70,77,1
637.2163,637.9163,63,64,1
637.2163,637.9163,61,64,1
637.2163,637.9163,67,64,1
637.9163,638.26636,68,72,1
637.9163,638.26636,71,85,1
637.9163,638.26636,59,72,1
637.9163,638.26636,63,72,1
639.3164,640.0164,80,99,1
639.3164,640.0164,74,82,1
639.3164,640.0164,76,82,1
639.3164,640.0164,83,99,1
640.0164,640.36646,84,103,1
640.0164,640.36646,72,88,1
640.0164,640.36646,76,88,1
640.0164,640.36646,81,103,1
641.4165,642.4475,84,62,1
642.4475,642.7912,85,56,1
641.4165,642.7912,81,52,1
642.7912,642.9704,86,61,1
642.7912,642.9704,82,51,1
641.4165,642.9704,77,52,1
643.519,643.7157,86,55,1
643.519,643.7157,82,46,1
643.519,643.7157,77,46,1
644.30585,646.5191,89,61,1
644.30585,646.5191,86,61,1
644.30585,646.5191,77,51,1
647.2323,649.01526,77,54,1
649.01526,649.3718,74,45,1
649.3718,649.72845,70,50,1
649.72845,650.085,69,45,1
650.085,650.7724,69,49,1
650.7724,651.2879,67,44,1
651.2879,651.4598,68,44,1
650.085,651.4598,64,34,1
651.4598,651.6389,69,48,1
651.4598,651.6389,65,40,1
650.085,651.6389,60,34,1
652.1875,652.3842,69,44,1
652.1875,652.3842,65,36,1
652.1875,652.3842,60,30,1
652.9744,655.3351,72,48,1
652.9744,655.3351,69,48,1
656.12195,657.153,84,62,1
657.153,657.4967,85,56,1
656.12195,657.4967,81,52,1
657.4967,657.67584,86,61,1
657.4967,657.67584,82,51,1
656.12195,657.67584,77,52,1
658.2244,658.42114,86,66,1
658.2244,658.42114,82,55,1
658.2244,658.42114,77,55,1
659.0158,659.12225,70,79,1
659.12225,659.2244,74,77,1
659.2244,659.3227,77,76,1
659.3227,659.4173,82,74,1
659.4173,659.50854,86,71,1
659.50854,659.5968,89,65,1
659.5968,659.68463,94,61,1
659.68463,659.8086,98,61,1
659.8086,659.92365,101,57,1
662.56934,665.0655,77,62,1
665.0655,665.42206,76,50,1
665.42206,666.13525,76,53,1
666.13525,666.6701,74,51,1
666.6701,666.8484,72,47,1
666.8484,667.5616,72,51,1
667.5616,668.0965,70,48,1
668.0965,668.2748,69,41,1
668.2748,668.9748,69,44,1
668.9748,669.5165,67,39,1
669.5165,669.697,68,39,1
668.2748,669.697,64,30,1
669.697,669.8834,69,43,1
669.697,669.8834,65,36,1
668.2748,669.8834,60,30,1
670.44275,670.6465,69,39,1
670.44275,670.6465,65,32,1
670.44275,670.6465,60,27,1
671.2578,673.4059,72,43,1
671.2578,673.4059,69,43,1
674.1191,674.3151,73,38,1
674.1191,674.3151,68,32,1
674.1191,674.3151,64,32,1
674.9034,675.1289,73,35,1
674.9034,675.1289,68,28,1
674.9034,675.1289,64,24,1
675.8056,678.66003,76,38,1
675.8056,678.66003,68,38,1
675.8056,678.66003,64,38,1
678.66003,679.3535,64,50,1
679.3535,680.0093,64,54,1
680.0093,680.6549,63,52,1
680.6549,681.2745,64,54,1
681.2745,681.89575,66,51,1
681.89575,683.7625,68,54,1
683.7625,684.38983,68,52,1
684.38983,684.7016,68,55,1
684.7016,685.00696,66,52,1
685.00696,685.3055,68,55,1
685.3055,685.61475,69,51,1
685.61475,685.91626,71,55,1
685.91626,686.209,74,57,1
686.209,686.5124,73,55,1
686.5124,686.82416,68,53,1
686.82416,688.62506,69,54,1
688.62506,689.22864,81,50,1
688.62506,689.22864,69,42,1
689.22864,689.8523,81,54,1
689.22864,689.8523,69,45,1
689.8523,690.4484,80,52,1
689.8523,690.4484,68,44,1
690.4484,691.0464,81,54,1
690.4484,691.0464,69,45,1
691.0464,691.642,83,51,1
691.0464,691.642,71,43,1
691.642,693.4541,85,54,1
691.642,693.4541,73,45,1
693.4541,694.06635,85,52,1
693.4541,694.06635,73,44,1
694.06635,694.36194,85,55,1
694.06635,694.36194,73,46,1
694.36194,694.66864,83,52,1
694.36194,694.66864,71,44,1
694.66864,694.9571,85,55,1
694.66864,694.9571,73,46,1
694.9571,695.26056,86,51,1
694.9571,695.26056,74,43,1
695.26056,695.5518,88,55,1
695.26056,695.5518,76,46,1
695.5518,695.8585,91,57,1
695.5518,695.8585,79,48,1
695.8585,696.1652,90,55,1
695.8585,696.1652,78,46,1
696.1652,696.472,85,53,1
696.1652,696.472,73,45,1
696.472,698.2753,86,54,1
696.472,698.2753,74,45,1
698.2753,698.9036,86,54,1
698.2753,698.9036,74,54,1
698.9036,699.81934,85,58,1
698.9036,699.81934,73,58,1
699.81934,700.13104,83,54,1
699.81934,700.13104,71,54,1
700.13104,700.43945,81,54,1
700.13104,700.43945,69,54,1
700.74786,701.3646,81,54,1
700.74786,701.3646,69,54,1
701.3646,702.27014,80,57,1
701.3646,702.27014,68,57,1
702.27014,702.5871,78,52,1
702.27014,702.5871,66,52,1
702.5871,702.89166,76,54,1
702.5871,702.89166,64,54,1
703.1962,703.818,76,51,1
703.1962,703.818,64,51,1
703.818,704.4348,74,54,1
703.818,704.4348,62,54,1
704.4348,705.0687,78,50,1
704.4348,705.0687,66,50,1
705.0687,705.68884,73,54,1
705.0687,705.68884,61,54,1
705.68884,706.3485,72,52,1
705.68884,706.3485,60,52,1
706.3485,708.1725,74,62,1
706.3485,708.1725,62,62,1
708.1725,708.4776,76,54,1
708.1725,708.4776,64,54,1
708.4776,708.79626,78,49,1
708.4776,708.79626,66,49,1
708.79626,709.4198,80,57,1
708.79626,709.4198,68,57,1
709.4198,710.0572,81,55,1
709.4198,710.0572,69,55,1
710.0572,710.69464,73,54,1
710.0572,710.69464,61,54,1
710.69464,711.33203,72,52,1
710.69464,711.33203,60,52,1
711.33203,711.54486,73,60,1
711.54486,711.74915,85,49,1
711.74915,711.8471,81,49,1
711.945,712.0424,76,53,1
712.1398,712.2372,73,48,1
712.3346,712.432,69,46,1
712.5294,712.72736,64,51,1
712.72736,712.9253,61,46,1
712.9253,713.1233,57,46,1
713.1233,713.3267,61,53,1
713.3267,713.5301,64,50,1
713.5301,713.7335,69,50,1
713.7335,713.93475,73,57,1
713.93475,714.1317,85,49,1
714.1317,714.2281,81,49,1
714.32446,714.4219,76,53,1
714.5193,714.6167,73,48,1
714.71405,714.81146,69,46,1
714.9089,715.1068,64,51,1
715.1068,715.3048,61,46,1
715.3048,715.50275,57,46,1
715.50275,715.7062,61,53,1
715.7062,715.9096,64,50,1
715.9096,716.113,69,50,1
716.113,716.3132,73,53,1
716.3132,716.5139,69,48,1
716.5139,716.71466,64,48,1
716.9122,717.10864,69,47,1
717.10864,717.3127,64,45,1
716.71466,717.3127,76,53,1
717.3127,717.5112,74,46,1
717.5112,717.7098,68,42,1
717.7098,717.9083,65,41,1
717.3127,717.9083,77,55,1
717.9083,718.1069,71,46,1
718.1069,718.3054,68,42,1
718.3054,718.50397,64,42,1
717.9083,718.50397,76,55,1
718.70416,718.9049,69,48,1
718.9049,719.10565,64,48,1
718.50397,719.10565,73,53,1
719.30316,719.4996,69,47,1
719.4996,719.7037,64,45,1
719.10565,719.7037,76,53,1
719.7037,719.9022,74,46,1
719.9022,720.10077,68,42,1
720.10077,720.2993,65,41,1
719.7037,720.2993,77,55,1
720.2993,720.49786,71,46,1
720.49786,720.6964,68,42,1
720.6964,720.89496,64,42,1
720.2993,720.89496,76,55,1
720.89496,721.0916,73,77,1
721.0916,721.28766,85,68,1
721.28766,721.3855,81,58,1
721.4833,721.5805,76,63,1
721.6778,721.7751,73,57,1
721.8724,721.9696,69,55,1
722.0669,722.2646,64,61,1
722.2646,722.4623,61,55,1
722.4623,722.66,57,55,1
722.66,722.8631,61,63,1
722.8631,723.0662,64,56,1
723.0662,723.26935,69,57,1
723.26935,723.466,73,59,1
723.466,723.6626,67,56,1
723.6626,723.85925,64,56,1
723.85925,724.05695,76,63,1
724.05695,724.25464,70,58,1
724.25464,724.45233,67,58,1
724.45233,724.65,82,66,1
724.65,724.8477,76,58,1
724.8477,725.0454,73,60,1
725.0454,725.2431,79,63,1
725.2431,725.44073,75,58,1
725.44073,725.6384,73,58,1
725.6384,725.85126,71,69,1
725.85126,726.0556,83,49,1
726.0556,726.1535,80,49,1
726.2514,726.3488,75,53,1
726.4462,726.5436,71,48,1
726.641,726.7384,68,46,1
726.8358,727.03375,63,51,1
727.03375,727.23175,59,46,1
727.23175,727.4297,56,46,1
727.4297,727.6331,59,53,1
727.6331,727.83655,63,50,1
727.83655,728.0399,68,50,1
728.0399,728.24115,71,67,1
728.24115,728.4381,83,49,1
728.4381,728.5345,80,49,1
728.63086,728.7283,75,53,1
728.8257,728.9231,71,48,1
729.0205,729.11786,68,46,1
729.2153,729.4132,63,51,1
729.4132,729.6112,59,46,1
729.6112,729.80914,56,46,1
729.80914,730.0126,59,53,1
730.0126,730.216,63,50,1
730.216,730.41943,68,50,1
730.41943,730.6228,71,55,1
730.6228,730.8254,68,52,1
730.8254,731.02716,63,52,1
731.02716,731.2279,75,60,1
731.2279,731.4278,71,56,1
731.4278,731.62665,68,56,1
731.62665,731.82477,80,65,1
731.82477,732.02386,74,59,1
732.02386,732.2238,71,59,1
732.2238,732.4248,78,70,1
732.2238,732.4248,82,70,1
732.4248,732.6266,76,63,1
732.6266,732.8294,73,63,1
732.8294,733.03064,75,86,1
733.03064,733.2276,87,78,1
733.2276,733.42035,83,57,1
733.42035,733.6152,78,65,1
733.6152,733.80994,75,56,1
733.80994,734.00476,71,50,1
734.00476,734.2027,66,51,1
734.2027,734.4007,63,46,1
734.4007,734.59863,59,46,1
734.59863,734.80206,63,53,1
734.80206,735.0055,66,50,1
735.0055,735.20886,71,50,1
735.20886,735.4101,75,79,1
735.4101,735.60706,87,66,1
735.60706,735.7998,83,57,1
735.7998,735.9946,78,65,1
735.9946,736.1894,75,56,1
736.1894,736.3842,71,50,1
736.3842,736.58215,66,51,1
736.58215,736.78015,63,46,1
736.78015,736.9781,59,46,1
736.9781,737.1815,63,53,1
737.1815,737.38495,66,50,1
737.38495,737.5884,71,50,1
737.5884,737.7886,75,53,1
737.7886,737.9893,71,48,1
737.9893,738.19006,66,48,1
738.3875,738.584,71,47,1
738.584,738.788,66,45,1
738.19006,738.788,78,53,1
738.788,738.9866,76,46,1
738.9866,739.1851,70,42,1
739.1851,739.38367,67,41,1
738.788,739.38367,79,55,1
739.38367,739.5822,73,46,1
739.5822,739.78076,70,42,1
739.78076,739.9793,66,42,1
739.38367,739.9793,78,55,1
740.1795,740.38025,71,48,1
740.38025,740.581,66,48,1
739.9793,740.581,75,53,1
740.581,740.7785,75,46,1
740.7785,740.9749,71,47,1
740.9749,741.179,66,45,1
740.581,741.179,78,53,1
741.179,741.37756,76,46,1
741.37756,741.5761,70,42,1
741.5761,741.77466,67,41,1
741.179,741.77466,79,55,1
741.77466,741.9732,73,46,1
741.9732,742.17175,70,42,1
742.17175,742.3703,66,42,1
741.77466,742.3703,78,55,1
742.3703,742.56696,75,79,1
742.56696,742.76306,87,70,1
742.76306,742.9586,83,62,1
742.9586,743.15314,78,69,1
743.15314,743.3477,75,64,1
743.3477,743.54224,71,63,1
743.54224,743.7399,66,73,1
743.7399,743.9376,63,66,1
743.9376,744.1353,59,66,1
744.1353,744.33844,63,70,1
744.33844,744.54156,66,67,1
744.54156,744.7447,71,68,1
744.7447,744.94135,75,70,1
744.94135,745.138,69,67,1
745.138,745.3346,66,67,1
745.3346,745.5323,78,75,1
745.5323,745.73,72,69,1
745.73,745.9277,69,69,1
745.9277,746.12537,84,76,1
746.12537,746.32306,78,69,1
746.32306,746.52075,75,72,1
746.52075,746.71844,81,75,1
746.71844,746.91614,77,67,1
746.91614,747.1138,75,61,1
747.1138,747.3266,73,66,1
747.3266,747.53094,85,49,1
747.53094,747.72675,82,49,1
747.72675,747.9216,77,53,1
747.9216,748.11633,73,48,1
748.11633,748.31116,70,46,1
748.31116,748.5091,65,51,1
748.5091,748.7071,61,46,1
748.7071,748.905,58,46,1
748.905,749.10846,61,57,1
749.10846,749.3119,65,50,1
749.3119,749.5153,70,50,1
749.5153,749.7165,73,53,1
749.7165,749.91345,85,49,1
749.91345,750.1062,82,49,1
750.1062,750.301,77,53,1
750.301,750.49585,73,48,1
750.49585,750.6906,70,46,1
750.6906,750.8886,65,51,1
750.8886,751.08655,61,46,1
751.08655,751.2845,58,46,1
751.2845,751.4879,61,53,1
751.4879,751.69135,65,50,1
751.69135,751.8948,70,50,1
751.8948,752.0982,73,60,1
752.0982,752.3016,70,57,1
752.3016,752.50476,65,57,1
752.50476,752.70654,77,66,1
752.70654,752.90643,73,61,1
752.90643,753.10455,70,61,1
753.10455,753.3026,82,71,1
753.3026,753.5028,76,64,1
753.5028,753.70514,73,64,1
753.70514,753.9096,80,77,1
753.70514,753.9096,84,77,1
753.9096,754.1141,78,69,1
754.1141,754.31854,75,69,1
754.31854,754.5198,77,86,1
754.5198,754.71674,89,77,1
754.71674,754.9095,85,72,1
754.9095,755.1043,80,75,1
755.1043,755.2991,77,68,1
755.2991,755.4939,73,60,1
755.4939,755.69183,68,57,1
755.69183,755.88983,65,49,1
755.88983,756.08777,61,47,1
759.1539,760.4287,61,47,1
759.1539,760.4287,56,40,1
759.1539,760.4287,53,40,1
760.4287,760.73883,65,46,1
761.0489,761.35895,68,46,1
761.66907,762.9369,63,47,1
761.66907,762.9369,58,40,1
761.66907,762.9369,54,40,1
762.9369,763.24695,66,45,1
763.557,763.8671,70,45,1
764.1772,764.48065,70,48,1
764.48065,764.7841,68,45,1
764.7841,765.0876,68,48,1
764.7841,765.3814,60,40,1
765.0876,765.38727,66,45,1
765.38727,765.68915,66,50,1
765.38727,765.98627,60,42,1
765.68915,765.9926,65,45,1
765.9926,766.2977,65,49,1
765.9926,766.59827,60,41,1
766.2977,766.6047,64,45,1
766.6047,768.8805,65,45,1
766.6047,768.8805,61,45,1
768.8805,770.1343,61,47,1
768.8805,770.1343,56,40,1
768.8805,770.1343,53,40,1
770.1343,770.4426,65,46,1
770.75104,771.05945,68,46,1
771.3678,772.6216,63,47,1
771.3678,772.6216,57,40,1
771.3678,772.6216,54,40,1
772.6216,772.92834,66,45,1
773.23505,773.54175,69,45,1
773.84845,774.1519,69,48,1
774.1519,774.4554,68,45,1
774.4554,774.75885,71,48,1
774.75885,775.062,69,45,1
774.4554,775.062,63,40,1
775.062,775.36444,69,50,1
775.36444,775.6687,68,45,1
775.062,775.6687,63,42,1
775.6687,775.9749,68,49,1
775.9749,776.28326,67,45,1
775.6687,776.28326,63,41,1
776.28326,778.5591,68,45,1
776.28326,778.5591,64,45,1
778.5591,778.8356,64,35,1
778.85016,779.1267,64,35,1
779.14124,779.4178,64,35,1
779.4323,779.70886,64,35,1
779.72345,779.99854,64,35,1
780.013,780.28815,64,35,1
780.3026,780.57776,64,35,1
780.5922,780.8674,64,35,1
780.88184,781.157,64,35,1
780.88184,781.157,65,35,1
781.17145,781.44653,64,35,1
781.17145,781.44653,65,35,1
781.46106,781.73615,64,35,1
781.46106,781.73615,65,35,1
781.7507,782.02576,64,35,1
781.7507,782.02576,65,35,1
782.0402,782.3126,64,35,1
782.0402,782.3126,65,35,1
782.32697,782.5993,64,35,1
782.32697,782.5993,65,35,1
782.61365,782.886,64,35,1
782.61365,782.886,65,35,1
782.9003,783.1732,64,35,1
782.9003,783.1732,65,35,1
783.18774,783.46387,65,36,1
783.18774,783.46387,64,36,1
783.4784,783.7528,65,38,1
783.4784,783.7528,64,38,1
783.7672,784.0401,65,39,1
783.7672,784.0401,64,39,1
784.0544,784.32526,65,41,1
784.0544,784.32526,64,41,1
784.3394,784.60864,65,43,1
784.3394,784.60864,62,43,1
784.6228,784.89026,65,45,1
784.6228,784.89026,62,45,1
784.9043,785.17017,66,47,1
784.9043,785.17017,62,47,1
784.9043,785.17017,60,47,1
785.1842,785.4482,66,48,1
785.1842,785.4482,62,48,1
785.1842,785.4482,60,48,1
785.46204,785.7253,67,49,1
785.46204,785.7253,62,49,1
785.46204,785.7253,59,49,1
785.7392,786.00397,67,48,1
785.7392,786.00397,62,48,1
785.7392,786.00397,59,48,1
786.01794,786.2845,67,46,1
786.01794,786.2845,62,46,1
786.01794,786.2845,59,46,1
786.2985,786.5666,67,44,1
786.2985,786.5666,62,44,1
786.2985,786.5666,59,44,1
786.5807,786.85077,67,42,1
786.5807,786.85077,64,42,1
786.5807,786.85077,60,42,1
786.86505,787.13666,67,40,1
786.86505,787.13666,64,40,1
786.86505,787.13666,60,40,1
787.151,787.42426,67,38,1
787.151,787.42426,65,38,1
787.151,787.42426,59,38,1
787.43866,787.71375,67,36,1
787.43866,787.71375,65,36,1
787.43866,787.71375,59,36,1
787.7283,788.00195,72,41,1
788.01636,788.2901,72,41,1
788.3045,788.57825,72,42,1
788.59265,788.86633,72,42,1
788.8808,789.15045,72,42,1
789.1646,789.43427,72,43,1
789.4485,789.71814,72,43,1
789.7323,790.00195,72,44,1
790.0162,790.2872,72,45,1
790.0162,790.2872,73,45,1
790.3014,790.5724,72,45,1
790.3014,790.5724,73,45,1
790.5867,790.85767,72,45,1
790.5867,790.85767,73,45,1
790.87195,791.1429,72,45,1
790.87195,791.1429,73,45,1
791.15717,791.4255,72,47,1
791.15717,791.4255,73,47,1
791.4396,791.7079,72,47,1
791.4396,791.7079,73,47,1
791.722,791.9903,72,47,1
791.722,791.9903,73,47,1
792.0044,792.2737,72,47,1
792.0044,792.2737,73,47,1
792.28827,792.55396,73,51,1
792.28827,792.55396,72,51,1
792.56793,792.83276,73,53,1
792.56793,792.83276,72,53,1
792.8467,793.11066,73,55,1
792.8467,793.11066,72,55,1
793.1245,793.38745,73,59,1
793.1245,793.38745,72,59,1
793.40125,793.6631,73,61,1
793.40125,793.6631,70,61,1
793.6769,793.9376,73,63,1
793.6769,793.9376,70,63,1
793.95135,794.2113,74,68,1
793.95135,794.2113,70,68,1
793.95135,794.2113,68,68,1
794.225,794.48395,74,69,1
794.225,794.48395,70,69,1
794.225,794.48395,68,69,1
794.4975,794.7558,75,70,1
794.4975,794.7558,70,59,1
794.4975,794.7558,67,59,1
794.7694,795.0291,75,67,1
794.7694,795.0291,70,67,1
794.7694,795.0291,67,67,1
795.04285,795.304,75,66,1
795.04285,795.304,71,56,1
795.04285,795.304,68,56,1
795.31775,795.5802,75,64,1
795.31775,795.5802,71,55,1
795.31775,795.5802,68,55,1
795.59406,795.858,75,63,1
795.59406,795.858,73,53,1
795.59406,795.858,67,53,1
795.8719,796.1374,75,62,1
795.8719,796.1374,73,52,1
795.8719,796.1374,67,52,1
796.15137,796.4181,75,61,1
796.15137,796.4181,71,51,1
796.15137,796.4181,68,51,1
796.4321,796.7006,75,60,1
796.7148,796.90405,76,80,1
796.7148,796.90405,75,67,1
796.90405,797.09326,64,70,1
797.09326,797.23517,76,70,1
797.09326,797.23517,75,60,1
797.2825,797.47174,76,79,1
797.2825,797.47174,75,67,1
797.47174,797.66095,64,72,1
797.66095,797.80286,76,72,1
797.66095,797.80286,75,61,1
797.8502,798.0394,76,79,1
797.8502,798.0394,73,67,1
798.0394,798.22864,64,70,1
798.22864,798.3706,76,70,1
798.22864,798.3706,73,60,1
798.4179,798.6071,77,79,1
798.4179,798.6071,73,67,1
798.4179,798.6071,71,67,1
798.6071,798.7963,65,69,1
798.7963,798.9383,77,70,1
798.7963,798.9383,73,60,1
798.7963,798.9383,71,60,1
798.9856,799.1758,78,80,1
798.9856,799.1758,73,67,1
798.9856,799.1758,70,67,1
799.1758,799.365,66,70,1
799.365,799.5533,78,72,1
799.365,799.5533,73,61,1
799.365,799.5533,70,69,1
799.5533,799.7406,78,82,1
799.5533,799.7406,74,69,1
799.5533,799.7406,71,63,1
799.7406,799.92706,66,75,1
799.92706,800.11237,78,77,1
799.92706,800.11237,74,64,1
799.92706,800.11237,71,64,1
800.11237,800.297,78,82,1
800.11237,800.297,76,69,1
800.11237,800.297,70,69,1
800.297,800.4823,66,73,1
800.4823,800.6683,78,73,1
800.4823,800.6683,76,61,1
800.4823,800.6683,70,68,1
800.6683,800.855,78,80,1
800.6683,800.855,74,67,1
800.6683,800.855,71,67,1
800.855,801.0423,66,70,1
801.0423,801.2306,78,70,1
801.0423,801.2306,74,60,1
801.0423,801.2306,71,60,1
801.2306,801.41956,79,80,1
801.2306,801.41956,78,67,1
801.41956,801.6086,67,70,1
801.6086,801.74976,79,70,1
801.6086,801.74976,78,60,1
801.7969,801.98444,79,80,1
801.7969,801.98444,78,67,1
801.98444,802.1716,67,73,1
802.1716,802.3114,79,74,1
802.1716,802.3114,78,62,1
802.358,802.5435,79,82,1
802.358,802.5435,76,69,1
802.5435,802.7293,67,73,1
802.7293,802.86914,79,74,1
802.7293,802.86914,76,62,1
802.9157,803.10284,80,84,1
802.9157,803.10284,76,70,1
802.9157,803.10284,74,70,1
803.10284,803.29047,68,74,1
803.29047,803.43164,80,77,1
803.29047,803.43164,76,64,1
803.29047,803.43164,74,64,1
803.4787,803.6684,81,88,1
803.4787,803.6684,76,74,1
803.4787,803.6684,73,74,1
803.6684,803.85834,69,77,1
803.85834,804.00024,81,78,1
803.85834,804.00024,76,66,1
803.85834,804.00024,73,74,1
804.04755,804.2361,81,88,1
804.04755,804.2361,76,74,1
804.04755,804.2361,73,67,1
804.2361,804.42413,69,80,1
804.42413,804.56464,81,81,1
804.42413,804.56464,76,68,1
804.42413,804.56464,73,68,1
804.61145,804.7979,81,90,1
804.61145,804.7979,77,75,1
804.61145,804.7979,74,67,1
804.7979,804.9844,69,80,1
804.9844,805.1242,81,81,1
804.9844,805.1242,77,68,1
804.9844,805.1242,74,68,1
805.17084,805.35724,81,92,1
805.17084,805.35724,79,78,1
805.17084,805.35724,73,78,1
805.35724,805.5437,69,81,1
805.5437,805.68353,81,84,1
805.5437,805.68353,79,70,1
805.5437,805.68353,73,70,1
805.73016,805.9166,81,96,1
805.73016,805.9166,77,81,1
805.73016,805.9166,74,81,1
805.9166,806.103,69,84,1
806.103,806.24286,81,84,1
806.103,806.24286,77,70,1
806.103,806.24286,74,81,1
806.2895,806.47595,81,94,1
806.2895,806.47595,79,80,1
806.2895,806.47595,73,73,1
806.47595,806.66235,69,86,1
806.66235,806.8022,81,86,1
806.66235,806.8022,79,73,1
806.66235,806.8022,73,73,1
806.8488,807.0353,81,94,1
806.8488,807.0353,77,80,1
806.8488,807.0353,74,70,1
807.0353,807.22174,69,84,1
807.22174,807.3616,81,84,1
807.22174,807.3616,77,70,1
807.22174,807.3616,74,70,1
807.40814,807.5946,81,94,1
807.40814,807.5946,79,80,1
807.40814,807.5946,73,80,1
807.5946,807.78107,69,82,1
807.78107,807.9209,81,84,1
807.78107,807.9209,79,70,1
807.78107,807.9209,73,70,1
807.96747,808.153,81,81,1
807.96747,808.153,77,81,1
807.96747,808.153,86,96,1
808.153,808.33856,74,84,1
808.33856,808.4777,81,72,1
808.33856,808.4777,77,72,1
808.33856,808.4777,86,97,1
808.5241,808.70984,81,81,1
808.5241,808.70984,79,81,1
808.5241,808.70984,85,88,1
808.70984,808.8963,73,88,1
808.8963,809.03613,81,74,1
808.8963,809.03613,79,74,1
808.8963,809.03613,85,89,1
809.0827,809.26917,81,81,1
809.0827,809.26917,77,81,1
809.0827,809.26917,86,88,1
809.26917,809.45605,74,88,1
809.45605,809.5966,81,74,1
809.45605,809.5966,77,74,1
809.45605,809.5966,86,89,1
809.64343,809.8308,81,84,1
809.64343,809.8308,79,84,1
809.64343,809.8308,85,100,1
809.8308,810.0181,73,89,1
810.0181,810.15936,81,77,1
810.0181,810.15936,79,77,1
810.0181,810.15936,85,91,1
810.2064,810.51984,86,103,1
810.2064,810.51984,74,88,1
810.2064,810.51984,77,88,1
810.2064,810.51984,81,88,1
812.72424,813.9913,74,71,1
813.9913,814.30176,77,61,1
814.61224,814.9228,81,61,1
815.2333,816.495,69,71,1
816.5003,816.8108,77,59,1
817.1213,817.43176,81,59,1
817.74225,819.0032,74,71,1
819.0032,819.31366,77,60,1
819.62415,819.93463,81,60,1
820.2451,820.5541,84,66,1
820.5541,820.8476,81,57,1
820.86304,821.172,81,60,1
821.172,821.46466,79,55,1
821.47974,821.7827,79,58,1
821.7827,822.07196,77,54,1
822.0872,822.39166,77,56,1
822.39166,822.68097,76,52,1
822.69617,823.0013,76,55,1
823.0013,823.29266,77,51,1
823.308,823.6147,77,56,1
823.6147,823.90607,74,52,1
823.9214,824.23627,74,55,1
824.23627,824.5436,72,50,1
824.5599,824.88934,74,55,1
824.88934,825.2027,72,51,1
825.2192,825.52026,69,52,1
825.53613,825.83405,62,21,1
825.53613,825.83405,65,25,1
825.53613,825.83405,69,31,1
825.84973,826.14764,62,22,1
825.84973,826.14764,65,26,1
825.84973,826.14764,69,32,1
826.1633,826.46124,62,22,1
826.1633,826.46124,65,26,1
826.1633,826.46124,69,32,1
826.4769,826.7749,62,21,1
826.4769,826.7749,65,25,1
826.4769,826.7749,69,31,1
826.7906,827.0885,62,21,1
826.7906,827.0885,65,25,1
826.7906,827.0885,69,31,1
827.1042,827.4021,62,20,1
827.1042,827.4021,65,24,1
827.1042,827.4021,69,29,1
827.4178,827.7157,62,20,1
827.4178,827.7157,65,24,1
827.4178,827.7157,69,29,1
827.7314,828.0323,65,22,1
827.7314,828.0323,69,27,1
827.7314,828.0323,74,32,1
828.04816,828.34906,65,22,1
828.04816,828.34906,69,27,1
828.04816,828.34906,74,32,1
828.3649,828.66583,65,22,1
828.3649,828.66583,69,27,1
828.3649,828.66583,74,32,1
828.68164,828.9826,65,22,1
828.68164,828.9826,69,27,1
828.68164,828.9826,74,32,1
828.9984,829.2934,65,22,1
828.9984,829.2934,69,27,1
828.9984,829.2934,74,32,1
829.3089,829.6039,65,22,1
829.3089,829.6039,69,27,1
829.3089,829.6039,74,32,1
829.6194,829.91437,65,22,1
829.6194,829.91437,69,27,1
829.6194,829.91437,74,32,1
829.9299,830.21967,74,32,1
829.9299,830.22485,65,22,1
829.9299,830.22485,69,27,1
830.2404,830.5413,73,32,1
830.2404,830.5413,69,27,1
830.2404,830.5413,65,22,1
830.5571,830.8581,73,32,1
830.5571,830.8581,69,27,1
830.5571,830.8581,65,22,1
830.8739,831.1748,73,32,1
830.8739,831.1748,69,27,1
830.8739,831.1748,65,22,1
831.1907,831.4916,73,32,1
831.1907,831.4916,69,27,1
831.1907,831.4916,65,22,1
831.50745,831.80237,73,32,1
831.50745,831.80237,69,27,1
831.50745,831.80237,65,22,1
831.81793,832.1129,73,32,1
831.81793,832.1129,69,27,1
831.81793,832.1129,65,22,1
832.1284,832.4234,73,32,1
832.1284,832.4234,69,27,1
832.1284,832.4234,65,22,1
832.4389,832.7339,73,32,1
832.4389,832.7339,69,27,1
832.4389,832.7339,65,22,1
832.7494,833.0489,74,32,1
832.7494,833.0489,65,22,1
832.7494,833.0489,69,27,1
833.06464,833.3641,74,32,1
833.06464,833.3641,65,22,1
833.06464,833.3641,69,27,1
833.3798,833.6793,74,32,1
833.3798,833.6793,65,22,1
833.3798,833.6793,69,27,1
833.69507,833.99457,69,27,1
833.69507,833.99457,74,32,1
833.69507,833.99457,65,22,1
834.0103,834.3053,65,22,1
834.0103,834.3053,69,27,1
834.0103,834.3053,74,32,1
834.3208,834.6158,65,22,1
834.3208,834.6158,69,27,1
834.3208,834.6158,74,32,1
834.6313,834.9263,65,22,1
834.6313,834.9263,69,27,1
834.6313,834.9263,73,33,1
834.9418,835.23676,65,23,1
834.9418,835.23676,69,28,1
834.9418,835.23676,73,34,1
835.25226,835.5458,72,39,1
835.25226,835.5458,69,32,1
835.25226,835.5458,65,27,1
835.5612,835.85474,72,39,1
835.5612,835.85474,69,32,1
835.5612,835.85474,65,27,1
835.8702,836.1637,72,37,1
835.8702,836.1637,69,31,1
835.8702,836.1637,65,26,1
836.17914,836.4718,72,37,1
836.17914,836.4718,69,31,1
836.17914,836.4718,65,26,1
836.4869,836.77466,72,35,1
836.4869,836.77466,69,29,1
836.4869,836.77466,65,24,1
836.78986,837.0791,72,35,1
836.78986,837.0791,69,29,1
836.78986,837.0791,65,24,1
837.09436,837.3836,73,34,1
837.09436,837.3836,69,28,1
837.09436,837.3836,65,23,1
837.3988,837.68805,73,34,1
837.3988,837.68805,69,28,1
837.3988,837.68805,65,23,1
837.7033,837.9983,74,38,1
837.7033,837.9983,69,38,1
837.7033,837.9983,65,32,1
838.0138,838.30444,74,38,1
838.0138,838.30444,69,38,1
838.0138,838.30444,65,32,1
838.3197,838.6159,69,38,1
838.3197,838.6159,65,32,1
838.3197,838.6159,77,38,1
838.6315,838.9277,69,38,1
838.6315,838.9277,65,32,1
838.6315,838.9277,77,38,1
838.94324,839.2459,69,32,1
838.94324,839.2459,81,38,1
839.26196,839.5704,69,32,1
839.26196,839.5704,81,38,1
839.58673,839.9011,82,38,1
839.58673,839.9011,76,38,1
839.58673,839.9011,70,32,1
839.91785,840.2387,82,38,1
839.91785,840.2387,76,38,1
839.91785,840.2387,70,32,1
840.25574,840.571,81,38,1
840.25574,840.571,77,32,1
840.25574,840.571,69,32,1
840.571,840.8687,62,19,1
840.571,840.8687,65,23,1
840.571,840.8687,69,27,1
840.8843,841.179,62,19,1
840.8843,841.179,65,23,1
840.8843,841.179,69,27,1
841.1945,841.4888,62,19,1
841.1945,841.4888,65,23,1
841.1945,841.4888,69,27,1
841.50415,841.7977,62,19,1
841.50415,841.7977,65,23,1
841.50415,841.7977,69,27,1
841.8132,842.1061,62,19,1
841.8132,842.1061,65,23,1
841.8132,842.1061,69,27,1
842.1214,842.41614,62,19,1
842.1214,842.41614,65,23,1
842.1214,842.41614,69,27,1
842.43164,842.7253,62,19,1
842.43164,842.7253,65,23,1
842.43164,842.7253,69,27,1
842.7407,843.05096,69,27,1
842.7407,843.05096,65,23,1
842.7407,843.05096,62,19,1
843.0671,843.37115,62,19,1
843.0671,843.37115,65,23,1
843.0671,843.37115,69,27,1
843.3867,843.68243,62,19,1
843.3867,843.68243,65,23,1
843.3867,843.68243,69,27,1
843.69836,843.99854,62,19,1
843.69836,843.99854,65,23,1
843.69836,843.99854,69,27,1
844.01404,844.3125,62,19,1
844.01404,844.3125,65,23,1
844.01404,844.3125,69,27,1
844.3278,844.62494,62,19,1
844.3278,844.62494,65,23,1
844.3278,844.62494,69,27,1
844.64044,844.945,62,19,1
844.64044,844.945,65,23,1
844.64044,844.945,69,27,1
844.96136,845.2999,62,19,1
844.96136,845.2999,65,23,1
844.96136,845.2999,69,27,1
845.31775,845.62006,62,19,1
845.31775,845.62006,65,23,1
845.31775,845.62006,69,27,1
845.6358,845.93805,62,19,1
845.6358,845.93805,65,23,1
845.6358,845.93805,69,27,1
845.95404,846.25433,62,19,1
845.95404,846.25433,65,23,1
845.95404,846.25433,69,27,1
846.2702,846.57166,62,19,1
846.2702,846.57166,65,23,1
846.2702,846.57166,69,27,1
847.21954,847.8652,77,50,1
847.8652,848.52094,77,54,1
848.52094,849.16656,76,52,1
849.16656,849.79346,77,54,1
849.79346,850.4218,79,51,1
850.4218,852.35583,81,54,1
852.35583,852.6711,79,54,1
852.6711,852.9863,77,54,1
852.9863,853.6346,79,54,1
853.6346,854.27563,79,54,1
854.27563,854.9166,79,54,1
854.9166,855.2408,77,54,1
855.2408,855.56494,76,54,1
855.56494,856.21326,77,54,1
856.8616,857.161,62,19,1
856.8616,857.161,65,23,1
856.8616,857.161,69,27,1
857.17676,857.47626,62,19,1
857.17676,857.47626,65,23,1
857.17676,857.47626,69,27,1
857.492,857.79144,62,19,1
857.492,857.79144,65,23,1
857.492,857.79144,69,27,1
857.8072,858.1067,62,19,1
857.8072,858.1067,65,23,1
857.8072,858.1067,69,27,1
858.12244,858.4327,69,27,1
858.12244,858.4327,65,23,1
858.12244,858.4327,62,19,1
858.44885,858.7529,62,19,1
858.44885,858.7529,65,23,1
858.44885,858.7529,69,27,1
858.76843,859.0642,62,19,1
858.76843,859.0642,65,23,1
858.76843,859.0642,69,27,1
859.0801,859.3803,62,19,1
859.0801,859.3803,65,23,1
859.0801,859.3803,69,27,1
859.39575,859.6942,62,19,1
859.39575,859.6942,65,23,1
859.39575,859.6942,69,27,1
859.7096,860.00665,62,19,1
859.7096,860.00665,65,23,1
859.7096,860.00665,69,27,1
860.0222,860.3267,62,19,1
860.0222,860.3267,65,23,1
860.0222,860.3267,69,27,1
860.3431,860.6913,62,19,1
860.3431,860.6913,65,23,1
860.3431,860.6913,69,27,1
860.71045,861.0308,62,19,1
860.71045,861.0308,65,23,1
860.71045,861.0308,70,27,1
861.0467,861.34827,62,19,1
861.0467,861.34827,65,23,1
861.0467,861.34827,70,27,1
861.36414,861.6657,62,19,1
861.36414,861.6657,65,23,1
861.36414,861.6657,70,27,1
861.6816,861.98315,62,19,1
861.6816,861.98315,65,23,1
861.6816,861.98315,70,27,1
862.634,863.27966,82,52,1
863.27966,863.93536,82,56,1
863.93536,864.581,81,54,1
864.581,865.2079,82,56,1
865.2079,865.83624,84,53,1
865.83624,867.77026,86,60,1
867.77026,868.0855,84,56,1
868.0855,868.40076,82,56,1
868.40076,869.0491,84,56,1
869.0491,869.69006,84,56,1
869.69006,870.3311,84,56,1
870.3311,870.6553,82,56,1
870.6553,870.9794,81,56,1
870.9794,871.6277,82,56,1
872.276,872.5771,62,17,1
872.276,872.5771,65,20,1
872.276,872.5771,70,24,1
872.59296,872.89404,62,17,1
872.59296,872.89404,65,20,1
872.59296,872.89404,70,24,1
872.9099,873.211,62,17,1
872.9099,873.211,65,20,1
872.9099,873.211,70,24,1
873.22687,873.52795,62,17,1
873.22687,873.52795,65,20,1
873.22687,873.52795,70,24,1
873.5438,873.85406,70,27,1
873.5438,873.85406,65,23,1
873.5438,873.85406,62,19,1
873.87024,874.17426,62,19,1
873.87024,874.17426,65,23,1
873.87024,874.17426,70,27,1
874.1898,874.48553,62,20,1
874.1898,874.48553,65,24,1
874.1898,874.48553,70,28,1
874.50146,874.80164,62,21,1
874.50146,874.80164,65,25,1
874.50146,874.80164,70,29,1
874.81714,875.1156,62,21,1
874.81714,875.1156,65,25,1
874.81714,875.1156,70,30,1
875.1309,875.42804,62,22,1
875.1309,875.42804,65,26,1
875.1309,875.42804,70,31,1
875.44354,875.74915,62,22,1
875.44354,875.74915,65,27,1
875.44354,875.74915,70,32,1
875.76697,876.1122,62,23,1
875.76697,876.1122,65,28,1
875.76697,876.1122,70,33,1
876.1307,876.444,62,23,1
876.1307,876.444,65,28,1
876.1307,876.444,69,34,1
876.45984,876.7615,62,19,1
876.45984,876.7615,65,23,1
876.45984,876.7615,69,27,1
876.77734,877.0789,62,19,1
876.77734,877.0789,65,23,1
876.77734,877.0789,69,27,1
877.0948,877.39636,62,19,1
877.0948,877.39636,65,23,1
877.0948,877.39636,69,27,1
878.0472,878.6928,77,50,1
878.6928,879.3486,77,54,1
879.3486,879.9942,76,52,1
879.9942,880.6211,77,54,1
880.6211,881.24945,79,51,1
881.24945,883.1835,81,54,1
883.1835,883.4987,79,54,1
883.4987,883.81396,77,53,1
883.81396,884.4622,79,54,1
884.4622,885.1033,79,54,1
885.1033,885.74426,79,54,1
885.74426,886.0684,77,54,1
886.0684,886.3926,76,50,1
886.3926,889.2718,77,66,1
889.2718,889.587,81,50,1
889.587,889.9022,79,50,1
889.9022,890.21747,77,48,1
890.21747,890.53265,84,54,1
890.53265,890.8479,82,50,1
890.8479,891.16315,81,50,1
891.16315,891.47833,87,54,1
891.47833,891.7936,86,54,1
891.7936,892.1088,84,50,1
892.1088,892.42285,91,54,1
892.42285,892.7395,89,52,1
892.7395,893.05914,87,52,1
893.05914,893.3821,86,51,1
893.3821,893.70776,84,54,1
893.70776,894.0338,86,57,1
894.0338,896.9046,87,66,1
896.9046,897.2233,84,53,1
897.2233,897.54205,90,58,1
897.54205,897.8608,89,54,1
897.8608,898.1849,87,56,1
898.1849,898.50903,86,51,1
898.50903,898.8427,84,51,1
898.8427,899.17633,86,51,1
899.17633,902.1007,87,53,1
902.1007,902.42303,84,53,1
902.42303,902.58417,91,56,1
902.74536,902.90656,89,53,1
903.0677,903.2289,87,53,1
903.39,903.5512,86,51,1
903.7124,903.87354,84,53,1
904.0347,904.19586,82,52,1
904.35706,904.51825,81,53,1
904.6794,904.8406,79,49,1
905.0017,905.1629,77,53,1
905.3241,905.4852,76,49,1
905.6464,905.8613,75,44,1
905.8613,906.0762,74,44,1
906.0762,906.2911,72,43,1
906.2911,906.506,70,42,1
906.506,906.7209,69,42,1
906.7209,906.9358,67,41,1
906.9358,907.15063,65,40,1
907.15063,907.36554,64,40,1
907.36554,907.58044,63,39,1
907.58044,907.79535,62,38,1
907.79535,908.0102,61,38,1
908.0102,908.2256,60,37,1
921.31714,922.0826,70,43,1
921.31714,922.0826,65,36,1
921.31714,922.0826,58,32,1
922.0826,922.8354,70,45,1
922.0826,922.8354,65,37,1
922.0826,922.8354,58,33,1
922.8354,923.5892,69,43,1
922.8354,923.5892,65,36,1
922.8354,923.5892,57,27,1
923.5892,924.3602,70,45,1
923.5892,924.3602,65,37,1
923.5892,924.3602,58,33,1
924.3602,925.13214,72,43,1
924.3602,925.13214,65,36,1
924.3602,925.13214,60,32,1
925.13214,927.32495,74,47,1
925.13214,927.32495,65,40,1
925.13214,927.32495,62,36,1
927.32495,927.69165,72,45,1
927.32495,927.69165,60,33,1
927.69165,928.08636,70,41,1
927.69165,928.08636,58,31,1
927.32495,928.08636,65,37,1
928.08636,928.8277,72,42,1
928.08636,928.8277,65,35,1
928.08636,928.8277,60,31,1
928.8356,929.5769,72,41,1
928.8356,929.5769,65,34,1
928.8356,929.5769,60,30,1
929.5848,930.3351,72,41,1
929.5848,930.3351,65,34,1
929.5848,930.3351,60,30,1
930.3431,930.715,70,45,1
930.3431,930.715,58,33,1
930.715,931.11804,69,40,1
930.715,931.11804,57,27,1
930.3431,931.11804,65,37,1
931.11804,931.87256,65,46,1
931.87256,932.6387,67,45,1
931.87256,932.6387,63,37,1
932.6387,933.4098,65,39,1
931.11804,933.4098,58,33,1
931.11804,933.4098,70,46,1
932.6387,933.4098,62,32,1
933.4098,934.2206,70,54,1
934.2206,936.4185,75,54,1
934.2206,936.4185,70,45,1
934.2206,936.4185,63,40,1
936.4185,936.78265,74,49,1
936.4185,936.78265,70,41,1
936.4185,936.78265,62,36,1
936.78265,937.171,72,45,1
936.78265,937.171,70,37,1
936.78265,937.171,60,33,1
937.171,937.91486,74,47,1
937.171,937.91486,70,40,1
937.171,937.91486,62,40,1
937.91486,938.6776,69,45,1
937.91486,938.6776,65,37,1
937.91486,938.6776,57,33,1
938.6776,939.4375,70,46,1
938.6776,939.4375,65,39,1
938.6776,939.4375,58,35,1
939.4375,940.2005,72,45,1
939.4375,940.2005,65,37,1
939.4375,940.2005,60,33,1
940.2005,940.9831,70,46,1
940.2005,940.9831,65,39,1
940.2005,940.9831,58,35,1
940.9831,941.7773,74,46,1
940.9831,941.7773,65,39,1
940.9831,941.7773,62,35,1
940.9831,941.7773,70,39,1
941.7773,946.87726,72,45,1
941.7773,946.87726,60,33,1
941.7773,946.87726,65,37,1
941.7773,946.87726,69,37,1
948.8332,949.59863,70,43,1
948.8332,949.59863,65,36,1
948.8332,949.59863,58,32,1
949.59863,950.35144,70,45,1
949.59863,950.35144,65,37,1
949.59863,950.35144,58,33,1
950.35144,951.1052,69,43,1
950.35144,951.1052,65,36,1
950.35144,951.1052,57,27,1
951.1052,951.8763,70,45,1
951.1052,951.8763,65,37,1
951.1052,951.8763,58,33,1
951.8763,952.6392,72,43,1
951.8763,952.6392,65,36,1
951.8763,952.6392,60,32,1
952.6392,954.832,74,47,1
952.6392,954.832,65,40,1
952.6392,954.832,62,36,1
954.832,955.19867,72,45,1
954.832,955.19867,60,33,1
955.19867,955.59344,70,41,1
955.19867,955.59344,58,31,1
954.832,955.59344,65,37,1
955.59344,956.3348,72,42,1
955.59344,956.3348,65,35,1
955.59344,956.3348,60,31,1
956.3426,957.084,72,41,1
956.3426,957.084,65,34,1
956.3426,957.084,60,30,1
957.0918,957.8421,72,41,1
957.0918,957.8421,65,34,1
957.0918,957.8421,60,30,1
957.85016,958.22205,70,45,1
957.85016,958.22205,58,33,1
958.22205,958.62744,69,40,1
958.22205,958.62744,57,27,1
957.85016,958.62744,65,37,1
958.62744,959.38196,65,46,1
959.38196,960.1481,67,45,1
959.38196,960.1481,63,37,1
960.1481,960.9192,65,39,1
958.62744,960.9192,58,33,1
958.62744,960.9192,70,46,1
960.1481,960.9192,62,32,1
960.9192,961.789,74,54,1
960.9192,961.789,65,45,1
960.9192,961.789,62,40,1
961.789,964.00714,74,54,1
961.789,964.00714,67,45,1
961.789,964.00714,62,40,1
964.00714,964.3713,72,49,1
964.00714,964.3713,67,41,1
964.00714,964.3713,60,36,1
964.3713,964.738,71,45,1
964.3713,964.738,67,37,1
964.3713,964.738,59,33,1
964.738,965.4615,75,58,1
964.738,965.4615,67,48,1
964.738,965.4615,63,47,1
965.4615,966.21545,74,53,1
965.4615,966.21545,67,45,1
965.4615,966.21545,62,45,1
966.21545,966.9786,72,51,1
966.21545,966.9786,67,43,1
966.21545,966.9786,60,43,1
966.9786,967.81024,72,54,1
966.9786,967.81024,69,45,1
966.9786,967.81024,60,40,1
967.81024,970.0081,72,54,1
967.81024,970.0081,65,40,1
967.81024,970.0081,60,40,1
967.81024,970.0081,69,45,1
970.0081,970.3723,70,49,1
970.0081,970.3723,65,41,1
970.0081,970.3723,58,36,1
970.3723,970.7496,69,45,1
970.3723,970.7496,65,37,1
970.3723,970.7496,57,33,1
970.7496,971.48846,74,58,1
970.7496,971.48846,65,49,1
970.7496,971.48846,62,45,1
971.48846,972.24243,69,50,1
971.48846,972.24243,65,42,1
971.48846,972.24243,57,42,1
972.24243,973.00555,70,53,1
972.24243,973.00555,65,45,1
972.24243,973.00555,58,45,1
973.00555,973.7968,72,48,1
973.00555,973.7968,65,40,1
973.00555,973.7968,60,36,1
973.00555,973.7968,69,40,1
973.7968,975.3616,72,48,1
973.7968,975.3616,69,40,1
973.7968,975.3616,60,36,1
975.3616,975.75275,70,43,1
975.3616,975.75275,58,43,1
973.7968,975.75275,65,36,1
979.17786,980.0163,70,51,1
980.0163,980.7919,70,52,1
980.7919,981.51154,68,51,1
981.51154,982.2286,70,52,1
982.2286,982.9418,71,50,1
982.9418,985.07544,73,52,1
985.07544,985.43195,71,56,1
985.43195,985.78845,70,53,1
985.78845,986.14496,75,58,1
986.50146,986.85315,75,54,1
987.2048,987.55646,75,54,1
987.9081,988.2801,77,56,1
988.2801,988.6391,78,51,1
988.6391,990.81604,73,54,1
990.81604,991.53894,69,51,1
991.53894,992.2712,69,52,1
992.2712,992.98737,68,51,1
992.98737,993.6972,69,52,1
993.6972,994.4104,71,50,1
994.4104,996.54407,73,52,1
996.54407,996.9006,74,56,1
996.9006,997.2571,76,53,1
997.2571,997.6136,78,58,1
997.9701,998.3218,78,54,1
998.6734,999.0251,78,54,1
999.3767,999.7589,80,56,1
999.7589,1000.11786,81,51,1
1000.11786,1002.25366,76,54,1
1002.25366,1002.61017,74,53,1
1002.61017,1002.9667,73,51,1
1002.9667,1003.67004,74,54,1
1003.67004,1004.37335,78,52,1
1004.37335,1005.08636,71,52,1
1005.08636,1005.7994,74,52,1
1005.7994,1006.5163,73,54,1
1006.5163,1007.547,81,61,1
1006.5163,1007.547,69,51,1
1007.547,1007.8959,80,53,1
1007.547,1007.8959,68,45,1
1007.8959,1008.2524,78,56,1
1007.8959,1008.2524,66,47,1
1008.2524,1008.6089,76,51,1
1008.2524,1008.6089,64,43,1
1008.6089,1009.3122,74,54,1
1008.6089,1009.3122,62,46,1
1009.3122,1010.00586,78,56,1
1010.00586,1010.7189,71,54,1
1010.7189,1011.0754,73,52,1
1011.0754,1011.4319,74,52,1
1011.4319,1011.7671,73,55,1
1011.7671,1012.1139,76,52,1
1012.1139,1012.4472,85,56,1
1012.4472,1012.79205,81,52,1
1012.79205,1013.1146,76,56,1
1013.1146,1013.4443,73,52,1
1013.4443,1013.7667,81,55,1
1013.7667,1014.0959,77,52,1
1014.0959,1014.4183,78,55,1
1014.4183,1014.7444,74,52,1
1014.7444,1015.06354,86,56,1
1015.06354,1015.3861,83,54,1
1015.3861,1015.6987,80,58,1
1015.6987,1016.0187,83,56,1
1016.0187,1016.3313,88,58,1
1016.3313,1016.6571,84,54,1
1016.6571,1016.9795,85,57,1
1016.9795,1017.2975,81,54,1
1017.2975,1017.44525,85,57,1
1017.44525,1017.593,81,51,1
1017.593,1017.7458,85,56,1
1017.7458,1017.89856,81,50,1
1017.89856,1018.04626,76,56,1
1018.04626,1018.19403,73,52,1
1018.19403,1018.3468,76,56,1
1018.3468,1018.4996,73,53,1
1018.4996,1018.6488,81,58,1
1018.6488,1018.7981,77,53,1
1018.7981,1018.9519,81,57,1
1018.9519,1019.1058,77,52,1
1019.1058,1019.2603,78,57,1
1019.2603,1019.4148,74,52,1
1019.4148,1019.565,78,54,1
1019.565,1019.7153,74,52,1
1019.7153,1019.8655,86,57,1
1019.8655,1020.0157,83,51,1
1020.0157,1020.1702,86,56,1
1020.1702,1020.3247,83,50,1
1020.3247,1020.4775,80,56,1
1020.4775,1020.63025,83,52,1
1020.63025,1020.78656,80,56,1
1020.78656,1020.9429,83,53,1
1020.9429,1021.1001,88,58,1
1021.1001,1021.2573,84,53,1
1021.2573,1021.4202,88,57,1
1021.4202,1021.58307,84,52,1
1021.58307,1021.7403,85,57,1
1021.7403,1021.8975,84,53,1
1021.8975,1022.05115,85,52,1
1022.05115,1022.2048,80,52,1
1022.2048,1022.355,81,57,1
1022.355,1022.50525,80,51,1
1022.50525,1022.6606,81,51,1
1022.6606,1022.816,75,50,1
1022.816,1022.96875,76,55,1
1022.96875,1023.1215,75,51,1
1023.1215,1023.27783,76,51,1
1023.27783,1023.43414,72,51,1
1023.43414,1023.5923,73,54,1
1023.5923,1023.7504,72,47,1
1023.7504,1023.91235,73,49,1
1023.91235,1024.0742,68,47,1
1024.0742,1024.2324,69,57,1
1024.2324,1024.3905,84,53,1
1024.3905,1024.5459,85,52,1
1024.5459,1024.7013,80,52,1
1024.7013,1024.8531,81,57,1
1024.8531,1025.0051,80,51,1
1025.0051,1025.1605,81,51,1
1025.1605,1025.3159,75,50,1
1025.3159,1025.4669,76,55,1
1025.4669,1025.6179,75,51,1
1025.6179,1025.7751,76,51,1
1025.7751,1025.9324,72,51,1
1025.9324,1026.0852,73,54,1
1026.0852,1026.2379,72,47,1
1026.2379,1026.396,73,49,1
1026.396,1026.5542,68,47,1
1026.5542,1026.7114,69,53,1
1026.7114,1026.8687,68,49,1
1026.8687,1027.024,69,49,1
1027.024,1027.1794,71,49,1
1027.1794,1027.3348,73,55,1
1027.3348,1027.4902,74,49,1
1027.4902,1027.6492,73,49,1
1027.6492,1027.8082,71,49,1
1027.8082,1027.9683,69,55,1
1027.9683,1028.1284,71,50,1
1028.1284,1028.2919,73,50,1
1028.2919,1028.4552,71,50,1
1028.4552,1028.6165,69,55,1
1028.6165,1028.7777,71,50,1
1028.7777,1028.9423,69,52,1
1028.9423,1029.1068,68,51,1
1029.1068,1029.3384,67,57,1
1029.3384,1029.5582,73,52,1
1029.5698,1029.7898,73,54,1
1029.5698,1029.7898,67,45,1
1029.5698,1029.7898,61,45,1
1029.8014,1030.0212,73,59,1
1029.8014,1030.0212,67,50,1
1029.8014,1030.0212,61,50,1
1030.0328,1030.2528,73,56,1
1030.0328,1030.2528,67,47,1
1030.0328,1030.2528,61,47,1
1030.2644,1030.4843,73,57,1
1030.2644,1030.4843,67,48,1
1030.2644,1030.4843,61,48,1
1030.4958,1030.7158,73,62,1
1030.4958,1030.7158,67,52,1
1030.4958,1030.7158,61,52,1
1030.7274,1030.9464,73,56,1
1030.7274,1030.9464,67,47,1
1030.7274,1030.9464,61,47,1
1030.9579,1031.1755,73,57,1
1030.9579,1031.1755,67,47,1
1030.9579,1031.1755,61,47,1
1031.1869,1031.4027,73,65,1
1031.1869,1031.4027,67,55,1
1031.1869,1031.4027,61,55,1
1031.4141,1031.6284,73,61,1
1031.4141,1031.6284,67,51,1
1031.4141,1031.6284,61,51,1
1031.6398,1031.8524,73,62,1
1031.6398,1031.8524,67,52,1
1031.6398,1031.8524,61,52,1
1031.8636,1032.0753,73,67,1
1031.8636,1032.0753,67,57,1
1031.8636,1032.0753,61,57,1
1032.0864,1032.2981,73,64,1
1032.0864,1032.2981,67,53,1
1032.0864,1032.2981,61,53,1
1032.3092,1032.5222,73,65,1
1032.3092,1032.5222,67,55,1
1032.3092,1032.5222,61,55,1
1032.5334,1032.7465,73,71,1
1032.5334,1032.7465,67,59,1
1032.5334,1032.7465,61,59,1
1032.7577,1032.972,73,67,1
1032.7577,1032.972,67,56,1
1032.7577,1032.972,61,56,1
1032.9834,1033.198,73,69,1
1032.9834,1033.198,67,57,1
1032.9834,1033.198,61,57,1
1033.2094,1033.4258,73,74,1
1033.2094,1033.4258,67,62,1
1033.2094,1033.4258,61,62,1
1033.4373,1033.6572,73,71,1
1033.4373,1033.6572,67,59,1
1033.4373,1033.6572,61,59,1
1033.669,1033.8928,73,72,1
1033.669,1033.8928,67,60,1
1033.669,1033.8928,61,60,1
1033.9048,1034.137,74,85,1
1033.9048,1034.137,62,72,1
1033.9048,1034.137,65,72,1
1034.1493,1034.3815,74,80,1
1034.1493,1034.3815,62,67,1
1034.1493,1034.3815,65,67,1
1034.3937,1034.626,74,80,1
1034.3937,1034.626,62,67,1
1034.3937,1034.626,65,67,1
1034.6382,1035.3765,74,90,1
1034.6382,1035.3765,65,77,1
1034.6382,1035.3765,62,63,1
1035.3765,1036.1157,72,85,1
1035.3765,1036.1157,69,72,1
1035.3765,1036.1157,60,60,1
1036.1157,1036.8718,70,85,1
1036.1157,1036.8718,65,72,1
1036.1157,1036.8718,58,60,1
1036.8718,1037.6199,72,85,1
1036.8718,1037.6199,65,72,1
1036.8718,1037.6199,60,60,1
1037.6199,1039.7706,74,92,1
1037.6199,1039.7706,65,78,1
1037.6199,1039.7706,62,64,1
1039.7706,1040.1302,72,89,1
1039.7706,1040.1302,65,74,1
1039.7706,1040.1302,60,62,1
1040.1302,1040.5056,70,82,1
1040.1302,1040.5056,65,69,1
1040.1302,1040.5056,58,58,1
1040.5056,1041.2327,72,88,1
1040.5056,1041.2327,65,73,1
1040.5056,1041.2327,60,61,1
1041.2404,1041.9674,72,84,1
1041.2404,1041.9674,65,71,1
1041.2404,1041.9674,60,59,1
1041.9751,1042.7109,72,83,1
1041.9751,1042.7109,65,70,1
1041.9751,1042.7109,60,59,1
1042.7188,1043.0835,70,88,1
1042.7188,1043.0835,65,73,1
1042.7188,1043.0835,58,61,1
1043.0835,1043.4763,69,82,1
1043.0835,1043.4763,65,69,1
1043.0835,1043.4763,57,58,1
1043.4763,1044.2163,65,75,1
1044.2163,1044.9794,67,88,1
1044.2163,1044.9794,63,73,1
1044.9794,1045.7356,65,83,1
1043.4763,1045.7356,58,75,1
1043.4763,1045.7356,70,90,1
1044.9794,1045.7356,62,70,1
1045.7356,1046.5715,74,89,1
1045.7356,1046.5715,65,75,1
1045.7356,1046.5715,62,64,1
1046.5715,1048.7333,74,89,1
1046.5715,1048.7333,67,75,1
1046.5715,1048.7333,62,64,1
1048.7333,1049.0901,72,84,1
1048.7333,1049.0901,67,71,1
1048.7333,1049.0901,60,59,1
1049.0901,1049.4568,71,79,1
1049.0901,1049.4568,67,67,1
1049.0901,1049.4568,59,56,1
1049.4568,1050.1665,75,94,1
1049.4568,1050.1665,67,79,1
1049.4568,1050.1665,63,67,1
1050.1665,1050.9059,74,91,1
1050.1665,1050.9059,67,76,1
1050.1665,1050.9059,62,65,1
1050.9059,1051.6543,72,88,1
1050.9059,1051.6543,67,74,1
1050.9059,1051.6543,60,63,1
1051.6543,1052.4606,72,86,1
1051.6543,1052.4606,69,72,1
1051.6543,1052.4606,60,60,1
1052.4606,1054.6162,72,89,1
1052.4606,1054.6162,65,76,1
1052.4606,1054.6162,60,65,1
1052.4606,1054.6162,69,78,1
1054.6162,1054.9734,70,88,1
1054.6162,1054.9734,65,74,1
1054.6162,1054.9734,58,63,1
1054.9734,1055.3434,69,80,1
1054.9734,1055.3434,65,68,1
1054.9734,1055.3434,57,57,1
1055.3434,1056.0681,74,92,1
1055.3434,1056.0681,65,77,1
1055.3434,1056.0681,62,65,1
1056.0681,1056.8076,69,87,1
1056.0681,1056.8076,65,73,1
1056.0681,1056.8076,57,61,1
1056.8076,1057.556,70,92,1
1056.8076,1057.556,65,77,1
1056.8076,1057.556,58,65,1
1057.556,1058.332,72,82,1
1057.556,1058.332,65,70,1
1057.556,1058.332,60,59,1
1057.556,1058.332,69,70,1
1058.332,1061.2827,72,89,1
1058.332,1061.2827,69,75,1
1058.332,1061.2827,60,64,1
1058.332,1062.7739,65,75,1
1061.2827,1063.5073,59,61,1
1061.2827,1063.5073,68,61,1
1061.2827,1063.5073,71,73,1
1063.5073,1064.2784,71,66,1
1063.5073,1064.2784,62,55,1
1063.5073,1064.2784,65,55,1
1063.5073,1064.2784,68,55,1
1064.2784,1066.5227,71,66,1
1064.2784,1066.5227,62,55,1
1064.2784,1066.5227,65,55,1
1064.2784,1066.5227,68,55,1
1066.5227,1067.3026,74,78,1
1066.5227,1067.3026,71,66,1
1066.5227,1067.3026,65,66,1
1067.3026,1068.821,74,86,1
1067.3026,1068.821,71,72,1
1068.821,1069.193,73,86,1
1068.821,1069.193,70,73,1
1067.3026,1069.193,66,72,1
1069.565,1069.9658,82,96,1
1069.565,1069.9658,73,80,1
1069.565,1069.9658,76,80,1
1069.565,1069.9658,78,80,1
1070.4232,1070.6897,83,92,1
1070.4232,1070.6897,74,77,1
1070.4232,1070.6897,78,77,1
1070.7019,1070.935,78,34,1
1070.7019,1070.935,74,28,1
1070.9474,1071.1805,78,36,1
1070.9474,1071.1805,74,30,1
1071.1927,1071.4259,78,38,1
1071.1927,1071.4259,74,32,1
1071.4381,1071.6713,78,35,1
1071.4381,1071.6713,74,29,1
1071.6836,1071.9166,78,35,1
1071.6836,1071.9166,74,29,1
1071.929,1072.1621,78,38,1
1071.929,1072.1621,74,32,1
1072.1743,1072.4075,78,35,1
1072.1743,1072.4075,74,29,1
1072.4198,1072.6652,78,35,1
1072.4198,1072.6652,74,29,1
1072.9105,1073.1437,78,32,1
1072.9105,1073.1437,74,27,1
1073.1559,1073.389,78,32,1
1073.1559,1073.389,74,27,1
1072.6652,1073.4014,83,54,1
1073.6425,1073.8715,78,32,1
1073.6425,1073.8715,74,27,1
1073.8835,1074.1127,78,32,1
1073.8835,1074.1127,74,27,1
1073.4014,1074.1246,83,53,1
1074.3657,1074.5958,78,31,1
1074.3657,1074.5958,74,26,1
1074.6082,1074.842,78,31,1
1074.6082,1074.842,74,26,1
1074.1246,1074.8544,86,53,1
1075.1006,1075.3345,78,32,1
1075.1006,1075.3345,74,27,1
1075.3468,1075.5807,78,32,1
1075.3468,1075.5807,74,27,1
1074.8544,1075.593,83,53,1
1075.8358,1076.0664,78,31,1
1075.8358,1076.0664,74,26,1
1076.0786,1076.3092,78,31,1
1076.0786,1076.3092,74,26,1
1075.593,1076.3214,86,53,1
1076.5641,1076.8069,83,32,1
1076.5641,1076.8069,78,27,1
1076.8069,1077.0376,83,32,1
1076.8069,1077.0376,78,27,1
1076.3214,1077.0497,86,56,1
1077.2925,1077.5247,83,32,1
1077.2925,1077.5247,78,27,1
1077.537,1077.7709,83,32,1
1077.537,1077.7709,78,27,1
1077.0497,1077.7832,90,55,1
1078.0294,1078.2633,83,32,1
1078.0294,1078.2633,78,27,1
1078.2756,1078.5095,83,32,1
1078.2756,1078.5095,78,27,1
1077.7832,1078.5219,86,55,1
1078.7681,1079.002,83,32,1
1078.7681,1079.002,78,27,1
1079.0143,1079.2482,83,32,1
1079.0143,1079.2482,78,27,1
1078.5219,1079.2605,90,56,1
1079.4954,1079.7167,74,32,1
1079.4954,1079.7167,71,27,1
1079.7283,1079.9474,74,32,1
1079.7283,1079.9474,71,27,1
1079.2605,1079.9589,78,56,1
1080.1874,1080.4088,76,33,1
1080.1874,1080.4088,70,27,1
1080.1874,1080.4088,78,33,1
1080.4208,1080.6588,76,34,1
1079.9589,1080.6588,82,56,1
1080.4208,1080.6588,78,34,1
1080.4208,1080.6588,70,27,1
1080.8875,1081.1046,74,34,1
1080.8875,1081.1046,71,28,1
1080.8875,1081.1046,78,34,1
1081.116,1081.3446,74,35,1
1080.6588,1081.3446,83,58,1
1081.116,1081.3446,78,35,1
1081.116,1081.3446,71,29,1
1081.5813,1081.8062,79,36,1
1081.5813,1081.8062,73,29,1
1081.5813,1081.8062,81,36,1
1081.818,1082.0428,79,36,1
1081.818,1082.0428,73,29,1
1081.818,1082.0428,81,36,1
1081.3446,1082.0547,85,62,1
1082.2899,1082.5134,81,36,1
1082.2899,1082.5134,78,30,1
1082.2899,1082.5134,74,30,1
1082.5253,1082.7488,81,36,1
1082.5253,1082.7488,78,29,1
1082.5253,1082.7488,74,29,1
1082.0547,1082.7605,86,61,1
1082.9958,1083.2242,78,35,1
1082.9958,1083.2242,76,28,1
1082.9958,1083.2242,82,35,1
1083.2366,1083.4705,78,34,1
1083.2366,1083.4705,76,28,1
1083.2366,1083.4705,82,34,1
1082.7605,1083.4828,88,60,1
1083.729,1083.9629,78,33,1
1083.729,1083.9629,83,33,1
1083.729,1083.9629,74,27,1
1083.9752,1084.2091,78,32,1
1083.9752,1084.2091,83,32,1
1083.9752,1084.2091,74,27,1
1083.4828,1084.2214,86,57,1
1084.4677,1084.7015,76,32,1
1084.4677,1084.7015,73,27,1
1084.4677,1084.7015,81,32,1
1084.7139,1084.9478,76,32,1
1084.7139,1084.9478,73,27,1
1084.7139,1084.9478,81,32,1
1084.2214,1084.9601,85,56,1
1085.2063,1085.4402,81,31,1
1085.2063,1085.4402,76,26,1
1085.2063,1085.4402,73,26,1
1085.4525,1085.6864,81,31,1
1085.4525,1085.6864,76,26,1
1085.4525,1085.6864,73,26,1
1085.6987,1085.9326,81,31,1
1085.6987,1085.9326,76,26,1
1085.6987,1085.9326,73,26,1
1085.945,1086.1788,81,31,1
1085.945,1086.1788,76,26,1
1085.945,1086.1788,73,26,1
1086.1912,1086.4374,81,32,1
1084.9601,1086.4374,85,54,1
1086.1912,1086.4374,73,27,1
1086.1912,1086.4374,76,27,1
1086.6836,1086.9175,78,29,1
1086.6836,1086.9175,76,25,1
1086.6836,1086.9175,73,25,1
1086.9298,1087.1637,78,30,1
1086.9298,1087.1637,76,25,1
1086.9298,1087.1637,73,25,1
1086.4374,1087.176,85,55,1
1087.4222,1087.6561,78,29,1
1087.4222,1087.6561,74,25,1
1087.6685,1087.9023,78,29,1
1087.6685,1087.9023,74,25,1
1087.176,1087.9147,86,54,1
1088.1558,1088.3848,78,32,1
1088.1558,1088.3848,74,27,1
1088.3969,1088.6259,78,32,1
1088.3969,1088.6259,74,27,1
1087.9147,1088.638,83,53,1
1088.879,1089.1091,78,31,1
1088.879,1089.1091,74,26,1
1089.1215,1089.3553,78,31,1
1089.1215,1089.3553,74,26,1
1088.638,1089.3677,86,53,1
1089.6139,1089.8478,78,32,1
1089.6139,1089.8478,74,27,1
1089.8601,1090.094,78,32,1
1089.8601,1090.094,74,27,1
1089.3677,1090.1063,83,53,1
1090.3491,1090.5797,78,31,1
1090.3491,1090.5797,74,26,1
1090.5919,1090.8225,78,31,1
1090.5919,1090.8225,74,26,1
1090.1063,1090.8346,86,53,1
1091.0774,1091.3081,83,32,1
1091.0774,1091.3081,78,27,1
1091.3202,1091.5508,83,32,1
1091.3202,1091.5508,78,27,1
1090.8346,1091.563,86,56,1
1091.8058,1092.038,83,32,1
1091.8058,1092.038,78,27,1
1092.0503,1092.2842,83,32,1
1092.0503,1092.2842,78,27,1
1091.563,1092.2965,90,55,1
1092.5427,1092.7766,83,32,1
1092.5427,1092.7766,78,27,1
1092.789,1093.0228,83,32,1
1092.789,1093.0228,78,27,1
1092.2965,1093.0352,86,55,1
1093.2814,1093.5153,83,32,1
1093.2814,1093.5153,78,27,1
1093.5276,1093.7615,83,32,1
1093.5276,1093.7615,78,27,1
1093.0352,1093.7738,90,56,1
1094.009,1094.2325,74,32,1
1094.009,1094.2325,71,27,1
1094.2444,1094.4796,74,32,1
1094.2444,1094.4796,71,27,1
1093.7738,1094.4796,78,56,1
1094.7095,1094.9309,76,33,1
1094.7095,1094.9309,70,27,1
1094.7095,1094.9309,78,33,1
1094.9427,1095.1676,76,34,1
1094.9427,1095.1676,70,27,1
1094.9427,1095.1676,78,34,1
1094.4796,1095.1794,82,56,1
1095.4106,1095.6304,74,34,1
1095.4106,1095.6304,71,28,1
1095.4106,1095.6304,78,34,1
1095.642,1095.8616,74,35,1
1095.642,1095.8616,71,29,1
1095.642,1095.8616,78,35,1
1095.1794,1095.8732,83,58,1
1096.1127,1096.3402,79,36,1
1096.1127,1096.3402,73,29,1
1096.1127,1096.3402,81,36,1
1096.3522,1096.5797,79,36,1
1096.3522,1096.5797,73,29,1
1096.3522,1096.5797,81,36,1
1095.8732,1096.5917,85,62,1
1096.8256,1097.0479,81,36,1
1096.8256,1097.0479,78,30,1
1096.8256,1097.0479,74,30,1
1097.0596,1097.2817,81,36,1
1097.0596,1097.2817,78,29,1
1097.0596,1097.2817,74,29,1
1096.5917,1097.2935,86,61,1
1097.5273,1097.7551,78,35,1
1097.5273,1097.7551,76,28,1
1097.5273,1097.7551,82,35,1
1097.7675,1098.0013,78,34,1
1097.7675,1098.0013,76,28,1
1097.7675,1098.0013,82,34,1
1097.2935,1098.0137,88,60,1
1098.2599,1098.4938,78,33,1
1098.2599,1098.4938,74,27,1
1098.2599,1098.4938,83,33,1
1098.5061,1098.74,78,32,1
1098.5061,1098.74,74,27,1
1098.5061,1098.74,83,32,1
1098.0137,1098.7523,86,57,1
1098.9985,1099.2324,76,32,1
1098.9985,1099.2324,73,27,1
1098.9985,1099.2324,81,32,1
1099.2448,1099.4786,76,32,1
1099.2448,1099.4786,73,27,1
1099.2448,1099.4786,81,32,1
1098.7523,1099.491,85,56,1
1099.7372,1099.9711,81,31,1
1099.7372,1099.9711,76,26,1
1099.7372,1099.9711,73,26,1
1099.9834,1100.2173,81,31,1
1099.9834,1100.2173,76,26,1
1099.9834,1100.2173,73,26,1
1100.2296,1100.4635,81,31,1
1100.2296,1100.4635,76,26,1
1100.2296,1100.4635,73,26,1
1100.4758,1100.7097,81,31,1
1100.4758,1100.7097,76,26,1
1100.4758,1100.7097,73,26,1
1100.722,1100.9559,81,32,1
1100.722,1100.9559,76,27,1
1100.722,1100.9559,73,27,1
1099.491,1100.9683,85,54,1
1100.9683,1101.3375,86,49,1
1100.9683,1101.3375,74,41,1
1100.9683,1101.3375,78,41,1
1100.9683,1101.3375,81,41,1
1101.7069,1102.4326,81,52,1
1102.4326,1103.4347,81,54,1
1103.4347,1103.7664,79,51,1
1103.7664,1104.0981,78,51,1
1104.4299,1105.0979,78,52,1
1105.0979,1106.0863,78,54,1
1106.0863,1106.4204,76,51,1
1106.4204,1106.7544,75,51,1
1107.0884,1107.7395,75,52,1
1107.0884,1107.7395,71,52,1
1107.7395,1108.3752,75,52,1
1107.7395,1108.3752,71,44,1
1108.3752,1108.9982,76,55,1
1108.3752,1108.9982,71,47,1
1108.9982,1109.609,78,56,1
1108.9982,1109.609,75,47,1
1108.9982,1109.609,71,47,1
1109.609,1110.216,79,57,1
1109.609,1110.216,76,48,1
1109.609,1110.216,71,48,1
1110.216,1110.8293,81,59,1
1110.216,1110.8293,78,50,1
1110.216,1110.8293,71,50,1
1110.8293,1111.4581,81,60,1
1110.8293,1111.4581,78,51,1
1110.8293,1111.4581,72,51,1
1111.4581,1112.1108,81,61,1
1111.4581,1112.1108,78,52,1
1111.4581,1112.1108,73,52,1
1112.1108,1112.7789,81,63,1
1112.1108,1112.7789,78,53,1
1112.1108,1112.7789,74,53,1
1112.7789,1113.5714,81,59,1
1113.5714,1113.7191,82,51,1
1113.7191,1113.867,81,53,1
1113.867,1114.0148,79,51,1
1114.0148,1114.3208,78,56,1
1114.627,1115.2843,78,57,1
1115.2843,1116.0731,78,59,1
1116.0731,1116.2208,79,53,1
1116.2208,1116.3687,78,53,1
1116.3687,1116.5165,76,53,1
1116.5165,1116.8241,75,56,1
1117.1318,1117.7792,75,57,1
1117.1318,1117.7792,71,57,1
1117.7792,1118.2448,75,57,1
1117.7792,1118.2448,71,48,1
1118.2448,1118.3987,75,57,1
1118.2448,1118.3987,71,48,1
1118.3987,1118.8568,76,60,1
1118.3987,1118.8568,71,51,1
1118.8568,1119.0083,76,60,1
1118.8568,1119.0083,71,51,1
1119.0083,1119.4591,78,61,1
1119.0083,1119.4591,75,51,1
1119.0083,1119.4591,71,51,1
1119.4591,1119.6083,78,61,1
1119.4591,1119.6083,75,51,1
1119.4591,1119.6083,71,51,1
1119.6083,1120.0521,79,62,1
1119.6083,1120.0521,76,52,1
1119.6083,1120.0521,71,52,1
1120.0521,1120.1991,79,62,1
1120.0521,1120.1991,76,52,1
1120.0521,1120.1991,71,52,1
1120.1991,1120.6439,81,64,1
1120.1991,1120.6439,78,55,1
1120.1991,1120.6439,71,55,1
1120.6439,1120.7942,81,64,1
1120.6439,1120.7942,78,55,1
1120.6439,1120.7942,71,55,1
1120.7942,1121.2512,81,66,1
1120.7942,1121.2512,78,56,1
1120.7942,1121.2512,72,56,1
1121.2512,1121.4059,81,66,1
1121.2512,1121.4059,78,56,1
1121.2512,1121.4059,72,56,1
1121.4059,1121.884,81,67,1
1121.4059,1121.884,78,57,1
1121.4059,1121.884,73,57,1
1121.884,1122.0433,81,67,1
1121.884,1122.0433,78,57,1
1121.884,1122.0433,73,57,1
1122.0433,1122.6808,81,69,1
1122.0433,1122.6808,78,58,1
1122.0433,1122.6808,74,58,1
1122.6808,1123.8044,81,59,1
1123.8044,1123.963,79,56,1
1123.963,1124.2799,78,56,1
1125.176,1125.2433,81,49,1
1124.5969,1125.2433,78,57,1
1125.2433,1125.3976,79,60,1
1125.3976,1125.5518,78,57,1
1125.5518,1125.7059,79,57,1
1125.799,1125.8667,84,49,1
1125.7059,1125.8667,81,57,1
1125.8667,1126.0209,82,60,1
1126.0209,1126.175,81,57,1
1126.175,1126.3292,82,57,1
1126.3292,1126.4835,84,57,1
1126.4835,1126.8004,86,59,1
1127.1174,1127.4343,86,59,1
1127.4343,1127.7513,82,57,1
1127.7513,1128.8738,81,59,1
1128.8738,1129.033,79,56,1
1129.033,1129.3514,78,56,1
1129.6698,1130.3379,78,63,1
1129.6698,1130.3379,90,63,1
1130.3379,1130.6566,91,63,1
1130.3379,1130.6566,79,63,1
1130.6566,1130.974,94,64,1
1130.6566,1130.974,82,64,1
1130.974,1131.2898,96,64,1
1130.974,1131.2898,84,64,1
1131.2898,1131.604,98,65,1
1131.2898,1131.604,86,65,1
1131.604,1132.229,99,66,1
1131.604,1132.229,87,66,1
1132.229,1132.8541,84,69,1
1132.229,1132.8541,96,69,1
1132.8541,1133.4791,82,70,1
1132.8541,1133.4791,94,70,1
1133.4791,1134.1042,80,69,1
1133.4791,1134.1042,92,69,1
1134.1042,1134.7292,79,66,1
1134.1042,1134.7292,91,66,1
1134.7292,1135.3544,77,65,1
1134.7292,1135.3544,89,65,1
1135.3544,1138.2018,88,61,1
1135.3544,1138.2018,76,61,1
1138.2018,1138.5062,76,51,1
1138.5222,1138.8265,76,51,1
1138.8427,1139.147,76,51,1
1139.163,1139.4674,76,50,1
1139.4834,1139.7878,76,50,1
1139.8038,1140.1083,76,50,1
1140.1243,1140.4286,76,50,1
1140.4447,1141.5391,77,53,1
1141.5391,1141.6982,79,47,1
1141.6982,1142.0166,77,52,1
1142.3351,1142.4076,82,49,1
1142.4076,1142.479,84,43,1
1142.479,1142.5491,82,44,1
1142.5491,1142.6179,84,44,1
1142.6179,1142.6864,82,44,1
1142.6864,1142.7548,84,46,1
1142.7548,1142.829,81,51,1
1142.829,1142.9149,82,44,1
1142.9149,1144.0127,74,52,1
1142.9149,1144.0127,86,67,1
1144.0127,1144.1719,84,57,1
1144.0127,1144.1719,72,46,1
1144.1719,1144.4904,82,60,1
1144.1719,1144.4904,70,49,1
1144.8087,1145.4578,79,54,1
1145.4578,1146.5802,77,58,1
1146.5802,1146.7394,79,53,1
1146.7394,1147.0579,77,60,1
1147.3762,1147.4487,82,53,1
1147.4487,1147.5201,84,47,1
1147.5201,1147.5898,82,48,1
1147.5898,1147.6583,84,48,1
1147.6583,1147.7264,82,48,1
1147.7264,1147.7946,84,50,1
1147.7946,1147.8684,81,55,1
1147.8684,1147.9563,82,48,1
1147.9563,1149.0541,74,63,1
1147.9563,1149.0541,86,69,1
1149.0541,1149.2133,84,62,1
1149.0541,1149.2133,72,62,1
1149.2133,1149.5316,82,67,1
1149.2133,1149.5316,70,67,1
1149.8501,1150.5033,79,69,1
1149.8501,1150.5033,75,69,1
1149.8501,1150.5033,70,48,1
1150.5033,1151.14,77,69,1
1150.5033,1151.14,74,69,1
1150.5033,1151.14,70,58,1
1151.14,1151.769,79,72,1
1151.14,1151.769,75,72,1
1151.14,1151.769,70,61,1
1151.769,1152.3981,82,74,1
1151.769,1152.3981,70,62,1
1151.769,1152.3981,74,62,1
1151.769,1152.3981,77,74,1
1152.3981,1153.0597,84,78,1
1152.3981,1153.0597,72,66,1
1152.3981,1153.0597,77,66,1
1152.3981,1153.0597,81,78,1
1153.0597,1154.383,84,75,1
1153.0597,1154.383,72,63,1
1153.0597,1154.383,77,63,1
1153.0597,1154.383,81,75,1
1154.383,1154.5967,81,63,1
1154.5967,1154.8103,77,54,1
1154.8103,1155.0238,72,54,1
1155.0238,1155.2374,77,54,1
1155.2374,1155.451,81,52,1
1155.451,1155.6647,84,51,1
1155.6647,1155.8845,82,53,1
1155.8845,1156.0957,89,49,1
1156.0957,1156.1968,86,49,1
1156.298,1156.3986,82,53,1
1156.4991,1156.5999,77,48,1
1156.7004,1156.801,74,46,1
1156.9017,1157.0039,70,51,1
1157.1062,1157.2084,74,46,1
1157.3107,1157.4128,77,46,1
1157.5151,1157.6202,74,53,1
1157.7253,1157.8303,77,50,1
1157.9354,1158.0405,82,50,1
1158.1456,1158.3617,82,53,1
1158.3617,1158.5709,91,49,1
1158.5709,1158.672,87,49,1
1158.7732,1158.8744,82,53,1
1158.9755,1159.0767,79,48,1
1159.1779,1159.2789,75,46,1
1159.3801,1159.4813,70,51,1
1159.5824,1159.6836,75,46,1
1159.7847,1159.8859,79,46,1
1159.987,1160.0903,75,53,1
1160.1937,1160.2971,79,50,1
1160.4005,1160.5038,82,50,1
1160.6072,1160.8246,82,53,1
1160.8246,1161.0343,94,49,1
1161.0343,1161.1355,89,49,1
1161.2367,1161.3378,86,53,1
1161.439,1161.5402,82,48,1
1161.6412,1161.7424,77,46,1
1161.8436,1161.9447,74,51,1
1162.0459,1162.1471,70,46,1
1162.2482,1162.3494,65,46,1
1162.4506,1162.5527,70,53,1
1162.655,1162.7572,74,50,1
1162.8595,1162.9617,77,50,1
1163.064,1163.2684,77,51,1
1163.2684,1163.4729,82,47,1
1163.4729,1163.5751,82,47,1
1163.6774,1163.8853,79,51,1
1163.8853,1164.093,84,48,1
1164.093,1164.1969,84,48,1
1164.3009,1164.5087,77,51,1
1164.5087,1164.7166,82,47,1
1164.7166,1164.8204,82,47,1
1164.9244,1165.1322,77,51,1
1165.1322,1165.3401,81,47,1
1165.3401,1165.444,81,47,1
1165.5479,1165.7557,77,51,1
1165.7557,1165.9635,80,47,1
1165.9635,1166.0675,80,47,1
1166.1714,1166.3793,77,52,1
1166.3793,1166.587,79,50,1
1166.587,1166.691,79,50,1
1166.7949,1167.0027,74,54,1
1166.7949,1167.0027,71,46,1
1167.0027,1167.2106,80,50,1
1167.2106,1167.3145,80,51,1
1167.4185,1167.6262,74,56,1
1167.4185,1167.6262,71,47,1
1167.6262,1167.8341,79,52,1
1167.8341,1167.938,79,53,1
1168.0419,1168.2498,75,58,1
1168.0419,1168.2498,70,49,1
1168.2498,1168.4584,80,54,1
1168.4584,1168.5632,80,54,1
1168.6683,1168.8793,75,58,1
1168.6683,1168.8793,70,49,1
1168.8793,1169.0912,79,54,1
1169.0912,1169.1974,79,54,1
1169.3043,1169.5186,74,57,1
1169.3043,1169.5186,70,48,1
1169.5186,1169.734,77,53,1
1169.734,1169.842,77,52,1
1169.9504,1170.1681,72,57,1
1169.9504,1170.1681,69,48,1
1170.1681,1170.387,77,52,1
1170.387,1170.497,77,52,1
1170.6072,1171.2396,77,49,1
1170.6072,1171.2396,74,41,1
1170.6072,1171.2396,70,41,1
1171.8466,1172.1516,77,40,1
1171.8466,1172.1516,74,40,1
1171.8466,1172.1516,82,49,1
1172.4568,1172.7688,82,49,1
1172.4568,1172.7688,80,40,1
1172.4568,1172.7688,77,40,1
1173.0806,1173.7045,82,53,1
1173.0806,1173.7045,79,45,1
1173.0806,1173.7045,75,45,1
1174.3114,1174.6182,82,49,1
1174.3114,1174.6182,79,40,1
1174.3114,1174.6182,75,40,1
1174.9248,1175.2366,82,49,1
1174.9248,1175.2366,79,40,1
1175.5483,1176.1779,82,53,1
1175.5483,1176.1779,77,45,1
1175.5483,1176.1779,74,45,1
1176.7848,1177.0931,86,53,1
1176.7848,1177.0931,82,44,1
1176.7848,1177.0931,77,44,1
1177.4015,1177.715,89,53,1
1177.4015,1177.715,86,44,1
1177.4015,1177.715,77,44,1
1178.0284,1178.234,89,56,1
1178.234,1178.4396,94,51,1
1178.4396,1178.5424,94,51,1
1178.6451,1178.8508,91,56,1
1178.8508,1179.0564,96,52,1
1179.0564,1179.1592,96,52,1
1179.262,1179.4675,89,56,1
1179.4675,1179.6731,94,51,1
1179.6731,1179.776,94,51,1
1179.8788,1180.0844,89,56,1
1180.0844,1180.2899,93,51,1
1180.2899,1180.3927,93,51,1
1180.4955,1180.7045,89,56,1
1180.7045,1180.9135,92,51,1
1180.9135,1181.018,92,51,1
1181.1224,1181.3314,89,57,1
1181.3314,1181.5403,91,55,1
1181.5403,1181.6448,91,55,1
1181.7493,1181.9583,86,58,1
1181.7493,1181.9583,83,58,1
1181.9583,1182.1672,92,53,1
1182.1672,1182.2717,92,53,1
1182.3762,1182.5852,86,57,1
1182.3762,1182.5852,83,48,1
1182.5852,1182.7941,91,54,1
1182.7941,1182.8986,91,54,1
1183.003,1183.2129,87,57,1
1183.003,1183.2129,82,48,1
1183.2129,1183.4231,92,52,1
1183.4231,1183.5284,92,52,1
1183.6342,1183.8455,87,57,1
1183.6342,1183.8455,82,48,1
1183.8455,1184.0579,91,53,1
1184.0579,1184.1642,91,52,1
1184.2704,1184.484,86,57,1
1184.2704,1184.484,82,48,1
1184.484,1184.698,89,53,1
1184.698,1184.8054,89,49,1
1184.913,1185.128,84,54,1
1184.913,1185.128,81,45,1
1185.128,1185.3442,89,48,1
1185.3442,1185.4523,89,48,1
1185.5609,1185.777,75,45,1
1185.777,1185.9932,78,42,1
1185.9932,1186.1012,78,42,1
1186.2092,1186.4253,75,46,1
1186.4253,1186.6415,77,45,1
1186.6415,1186.7495,77,45,1
1186.8575,1187.0736,72,48,1
1186.8575,1187.0736,69,41,1
1187.0736,1187.2897,78,45,1
1187.2897,1187.3978,78,45,1
1187.5059,1187.7219,72,50,1
1187.5059,1187.7219,69,42,1
1187.7219,1187.938,77,46,1
1187.938,1188.046,77,47,1
1188.1542,1188.3702,73,52,1
1188.1542,1188.3702,68,44,1
1188.3702,1188.5869,78,48,1
1188.5869,1188.6956,78,48,1
1188.8046,1189.0232,73,52,1
1188.8046,1189.0232,68,44,1
1189.0232,1189.243,77,48,1
1189.243,1189.3536,77,48,1
1189.4642,1189.6863,72,51,1
1189.4642,1189.6863,68,43,1
1189.6863,1189.9094,75,47,1
1189.9094,1190.0212,75,46,1
1190.1338,1190.3591,70,51,1
1190.1338,1190.3591,67,43,1
1190.3591,1190.5856,75,46,1
1190.5856,1190.6995,75,46,1
1192.1174,1192.3335,83,48,1
1192.1174,1192.3335,78,41,1
1192.3335,1192.5496,87,45,1
1192.5496,1192.6576,87,45,1
1192.7656,1192.9818,83,49,1
1192.7656,1192.9818,78,41,1
1192.9818,1193.1979,86,44,1
1193.1979,1193.3059,86,44,1
1193.414,1193.6301,82,50,1
1193.414,1193.6301,78,42,1
1193.6301,1193.8468,85,46,1
1193.8468,1193.9554,85,46,1
1194.0645,1194.2831,80,48,1
1194.0645,1194.2831,77,40,1
1194.2831,1194.5029,85,44,1
1194.5029,1194.6135,85,44,1
1195.3875,1195.6073,69,44,1
1195.3875,1195.6073,66,37,1
1195.6073,1195.8273,73,39,1
1195.8273,1195.9371,73,39,1
1196.0471,1196.2721,68,45,1
1196.0471,1196.2721,65,38,1
1196.2721,1196.4972,73,41,1
1196.4972,1196.6097,73,41,1
1197.3973,1197.6265,68,39,1
1197.3973,1197.6265,65,33,1
1197.6265,1197.8556,71,35,1
1197.8556,1197.9702,71,35,1
1198.0847,1198.3334,68,40,1
1198.0847,1198.3334,65,34,1
1198.3334,1198.5819,70,36,1
1198.5819,1198.7062,70,36,1
1199.522,1199.743,80,40,1
1199.522,1199.743,77,40,1
1199.743,1199.9642,82,36,1
1199.9642,1200.0748,82,36,1
1200.1853,1200.4065,80,45,1
1200.1853,1200.4065,75,45,1
1200.4065,1200.6277,84,37,1
1200.6277,1200.7382,84,37,1
1200.8488,1201.07,79,45,1
1200.8488,1201.07,75,45,1
1201.07,1201.291,82,39,1
1201.291,1201.4077,82,39,1
1201.5244,1201.7482,67,47,1
1201.5244,1201.7482,63,39,1
1201.7482,1201.9719,70,40,1
1201.9719,1202.0844,70,40,1
1202.1969,1202.422,65,51,1
1202.1969,1202.422,62,43,1
1202.422,1202.6484,70,46,1
1202.6484,1202.7695,70,46,1
1202.887,1203.1165,70,58,1
1202.887,1203.1165,65,49,1
1203.1165,1203.348,77,50,1
1203.348,1203.4647,77,50,1
1203.5822,1203.8184,69,60,1
1203.5822,1203.8184,65,50,1
1203.8184,1204.0571,77,53,1
1204.0571,1204.1865,77,53,1
1204.3159,1204.4943,70,58,1
1204.3159,1204.4943,65,58,1
1204.3159,1204.4943,62,58,1
1204.5537,1204.7914,65,47,1
1204.7914,1205.0292,62,47,1
1205.0292,1205.2668,65,47,1
1205.2668,1205.5046,70,51,1
1205.5046,1205.7423,74,55,1
1206.4257,1206.7672,67,48,1
1205.7423,1206.7672,77,68,1
1206.7672,1207.1354,75,54,1
1206.7672,1207.1354,69,45,1
1207.1354,1207.8312,74,56,1
1207.1354,1207.8312,70,47,1
1207.1354,1207.8312,65,47,1
1207.8312,1208.527,74,62,1
1207.8312,1208.527,72,52,1
1207.8312,1208.527,66,52,1
1208.527,1209.2228,74,64,1
1208.527,1209.2228,67,54,1
1208.527,1209.2228,65,54,1
1208.527,1209.2228,71,54,1
1209.2228,1209.7548,75,65,1
1209.7548,1209.9388,74,55,1
1209.2228,1209.9388,72,55,1
1209.2228,1209.9388,67,55,1
1209.2228,1209.9388,63,55,1
1209.9388,1210.9698,72,52,1
1210.9698,1211.3135,73,47,1
1209.9388,1211.3135,69,44,1
1211.3135,1211.492,74,51,1
1211.3135,1211.492,70,43,1
1209.9388,1211.492,65,44,1
1212.037,1212.2186,74,46,1
1212.037,1212.2186,70,39,1
1212.037,1212.2186,65,39,1
1213.0015,1213.2391,53,47,1
1213.2391,1213.4769,50,47,1
1213.4769,1213.7146,53,47,1
1213.7146,1213.9524,58,51,1
1213.9524,1214.1901,62,55,1
1214.8734,1215.2151,55,48,1
1214.5317,1215.2151,53,46,1
1214.1901,1215.2151,65,65,1
1215.2151,1215.5831,63,54,1
1215.2151,1215.5831,57,45,1
1215.2151,1215.5831,53,45,1
1215.5831,1216.2789,62,56,1
1215.5831,1216.2789,58,47,1
1215.5831,1216.2789,53,47,1
1216.2789,1216.9747,62,62,1
1216.2789,1216.9747,60,52,1
1216.2789,1216.9747,54,52,1
1216.9747,1217.5621,62,64,1
1216.9747,1217.5621,59,54,1
1216.9747,1217.5621,55,54,1
1216.9747,1217.7028,53,54,1
1217.7028,1218.0496,63,71,1
1217.6777,1218.0496,60,63,1
1217.6533,1218.0496,55,56,1
1217.6298,1218.0496,51,50,1
1219.1538,1219.8539,75,74,1
1219.1538,1219.8539,73,62,1
1219.1538,1219.8539,67,62,1
1219.8539,1220.4479,75,77,1
1219.8539,1220.4479,68,64,1
1219.8539,1220.4479,66,64,1
1219.8539,1220.4479,72,64,1
1220.5934,1220.9423,76,85,1
1220.5175,1220.9423,64,65,1
1220.542,1220.9423,68,70,1
1220.5674,1220.9423,73,72,1
1221.9888,1222.6095,85,99,1
1221.9888,1222.6095,79,82,1
1221.9888,1222.6095,81,82,1
1221.9888,1222.6095,88,99,1
1222.7671,1223.1158,89,103,1
1222.6843,1223.1158,77,86,1
1222.7109,1223.1158,81,89,1
1222.7385,1223.1158,86,94,1
1224.1624,1225.1935,77,62,1
1225.1935,1225.5371,78,56,1
1224.1624,1225.5371,74,52,1
1225.5371,1225.7163,79,61,1
1225.5371,1225.7163,75,51,1
1224.1624,1225.7163,70,52,1
1226.2649,1226.4617,79,55,1
1226.2649,1226.4617,75,46,1
1226.2649,1226.4617,70,46,1
1227.0518,1229.265,82,61,1
1227.0518,1229.265,79,61,1
1229.9783,1231.7612,70,54,1
1231.7612,1232.1178,67,45,1
1232.1178,1232.4744,63,50,1
1232.4744,1232.8309,62,45,1
1232.8309,1233.5183,62,49,1
1233.5183,1234.0338,60,44,1
1234.0338,1234.2057,61,44,1
1232.8309,1234.2057,57,34,1
1234.2057,1234.3849,62,48,1
1234.2057,1234.3849,58,40,1
1232.8309,1234.3849,53,34,1
1234.9335,1235.1301,62,44,1
1234.9335,1235.1301,58,36,1
1234.9335,1235.1301,53,30,1
1235.7203,1238.0809,65,48,1
1235.7203,1238.0809,62,48,1
1238.8679,1239.8989,77,62,1
1239.8989,1240.2426,78,56,1
1238.8679,1240.2426,74,52,1
1240.2426,1240.4218,79,61,1
1240.2426,1240.4218,75,51,1
1238.8679,1240.4218,70,52,1
1240.9703,1241.1671,79,66,1
1240.9703,1241.1671,75,55,1
1240.9703,1241.1671,70,55,1
1241.7617,1241.8674,63,79,1
1241.8674,1241.9688,67,78,1
1241.9688,1242.0662,70,72,1
1242.0662,1242.1599,75,68,1
1242.1599,1242.2504,79,66,1
1242.2504,1242.3375,82,64,1
1242.3375,1242.4247,87,61,1
1242.4247,1242.5438,91,59,1
1242.5438,1242.6588,94,58,1
1245.3046,1247.8007,82,62,1
1247.8007,1248.1572,81,50,1
1248.1572,1248.8705,81,53,1
1248.8705,1249.4053,79,51,1
1249.4053,1249.5836,77,47,1
1249.5836,1250.2968,77,51,1
1250.2968,1250.8317,75,48,1
1250.8317,1251.01,74,41,1
1251.01,1251.71,74,44,1
1251.71,1252.2517,72,39,1
1252.2517,1252.4323,73,39,1
1251.01,1252.4323,69,30,1
1252.4323,1252.6187,74,43,1
1252.4323,1252.6187,70,36,1
1251.01,1252.6187,65,30,1
1253.1779,1253.3817,74,39,1
1253.1779,1253.3817,70,32,1
1253.1779,1253.3817,65,27,1
1253.993,1256.055,77,43,1
1253.993,1256.055,74,43,1
1256.7424,1258.8046,77,55,1
1256.7424,1258.8046,72,55,1
1256.7424,1258.8046,74,55,1
1259.492,1261.618,80,67,1
1259.492,1261.618,68,51,1
1261.618,1262.3689,79,52,1
1259.492,1262.3689,71,53,1
1259.492,1262.3689,74,56,1
1261.618,1262.3689,67,44,1
1262.3689,1263.0911,77,53,1
1262.3689,1263.0911,72,53,1
1262.3689,1263.0911,67,45,1
1263.0911,1263.439,75,52,1
1263.439,1263.807,74,48,1
1263.439,1263.807,66,40,1
1263.807,1264.5385,77,55,1
1264.5385,1264.8973,75,52,1
1263.807,1264.8973,67,46,1
1264.8973,1265.2727,72,47,1
1264.8973,1265.2727,63,39,1
1265.2727,1265.8275,70,53,1
1265.8275,1266.0189,69,50,1
1266.0189,1266.7646,69,48,1
1266.0189,1266.7646,65,40,1
1266.7646,1267.5409,69,55,1
1266.7646,1267.5409,66,37,1
1267.5409,1267.9343,65,44,1
1267.9343,1268.3539,63,48,1
1267.5409,1268.3539,69,52,1
1268.3539,1268.7734,70,54,1
1268.3539,1268.7734,62,45,1
1269.193,1271.255,65,43,1
1269.193,1271.255,62,43,1
1271.9424,1274.0045,65,55,1
1271.9424,1274.0045,60,55,1
1271.9424,1274.0045,62,55,1
1274.0045,1276.1306,68,67,1
1274.0045,1276.1306,56,56,1
1276.1306,1276.8813,67,46,1
1274.0045,1276.8813,59,56,1
1274.0045,1276.8813,62,56,1
1276.1306,1276.8813,55,39,1
1276.8813,1277.6036,65,47,1
1276.8813,1277.6036,60,47,1
1276.8813,1277.6036,55,40,1
1277.6036,1277.9515,63,46,1
1277.9515,1278.3196,62,43,1
1277.9515,1278.3196,54,36,1
1278.3196,1279.051,65,49,1
1279.051,1279.4215,63,46,1
1278.3196,1279.4215,55,41,1
1279.4215,1279.8123,60,42,1
1279.4215,1279.8123,51,35,1
1279.8123,1280.391,58,47,1
1280.391,1280.5919,57,45,1
1280.5919,1281.3629,57,43,1
1280.5919,1281.3629,53,36,1
1281.3629,1282.1554,57,49,1
1281.3629,1282.1554,54,33,1
1282.1554,1282.5658,53,39,1
1282.5658,1283.0046,51,43,1
1282.1554,1283.0046,57,46,1
1283.0046,1283.3928,58,48,1
1285.293,1286.0531,70,38,1
1285.293,1286.0531,65,32,1
1285.293,1286.0531,58,28,1
1286.0531,1286.8292,70,40,1
1286.0531,1286.8292,65,33,1
1286.0531,1286.8292,58,29,1
1286.8292,1287.616,69,38,1
1286.8292,1287.616,65,32,1
1286.8292,1287.616,57,24,1
1287.616,1288.4205,70,40,1
1287.616,1288.4205,65,33,1
1287.616,1288.4205,58,29,1
1288.4205,1289.2252,72,38,1
1288.4205,1289.2252,65,32,1
1288.4205,1289.2252,60,28,1
1288.4205,1289.2252,69,32,1
1289.2252,1290.7534,70,42,1
1289.2252,1290.7534,65,36,1
1289.2252,1290.7534,58,32,1
1291.5135,1292.2736,65,32,1
1291.5135,1292.2736,62,28,1
1291.5135,1292.2736,74,38,1
1292.2736,1293.0498,74,41,1
1292.2736,1293.0498,65,34,1
1292.2736,1293.0498,62,29,1
1293.0498,1293.8364,65,34,1
1293.0498,1293.8364,72,40,1
1293.0498,1293.8364,60,25,1
1293.8364,1294.641,65,36,1
1293.8364,1294.641,62,31,1
1293.8364,1294.641,74,44,1
1294.641,1295.4591,69,36,1
1294.641,1295.4591,63,36,1
1294.641,1295.4591,75,43,1
1295.4591,1296.9874,74,42,1
1295.4591,1296.9874,70,36,1
1295.4591,1296.9874,62,32,1
1297.7474,1298.5238,70,38,1
1297.7474,1298.5238,65,32,1
1297.7474,1298.5238,58,28,1
1298.5238,1299.3094,70,40,1
1298.5238,1299.3094,65,33,1
1298.5238,1299.3094,58,29,1
1299.3094,1300.0961,69,38,1
1299.3094,1300.0961,65,32,1
1299.3094,1300.0961,57,24,1
1300.0961,1300.9006,70,40,1
1300.0961,1300.9006,65,33,1
1300.0961,1300.9006,58,29,1
1300.9006,1301.818,72,38,1
1300.9006,1301.818,65,32,1
1300.9006,1301.818,60,28,1
1300.9006,1301.818,69,32,1
1301.818,1308.9713,72,42,1
1301.818,1308.9713,69,36,1
1301.818,1308.9713,60,32,1
1301.818,1308.9713,65,36,1
1309.7537,1310.5361,77,36,1
1309.7537,1310.5361,69,30,1
1309.7537,1310.5361,63,30,1
1311.3185,1312.1008,70,36,1
1311.3185,1312.1008,62,30,1
0.853566,1.236268,50,33,1
1.236268,1.61897,53,28,1
0.853566,1.61897,46,27,1
1.61897,1.9909015,50,34,1
1.9909015,2.3718085,53,28,1
1.61897,2.3718085,46,28,1
2.3718085,2.7437398,48,31,1
2.7437398,3.1256027,53,27,1
2.3718085,3.1256027,46,24,1
3.1256027,3.5001812,50,34,1
3.5001812,3.8885307,53,27,1
3.1256027,3.8885307,46,28,1
3.8885307,4.263109,51,33,1
4.263109,4.6514587,53,26,1
3.8885307,4.6514587,46,27,1
4.6514587,5.0233903,52,34,1
5.0233903,5.2054734,53,26,1
5.387556,5.569639,53,26,1
5.7517223,5.9338055,53,26,1
6.115888,6.2979712,53,26,1
6.4800544,6.662137,53,26,1
4.6514587,6.84422,46,28,1
6.84422,7.2109237,51,33,1
7.2109237,7.605661,50,27,1
6.84422,7.605661,46,27,1
7.605661,7.9775925,51,31,1
7.9775925,8.354856,53,25,1
7.605661,8.354856,41,26,1
8.354856,8.726788,51,29,1
8.726788,9.104051,53,25,1
8.354856,9.104051,41,26,1
9.104051,9.476871,51,29,1
9.476871,9.862376,53,26,1
9.104051,9.862376,41,26,1
9.862376,10.237796,50,33,1
10.237796,10.6455,48,25,1
9.862376,10.6455,41,27,1
10.6455,11.022764,50,34,1
11.022764,11.400027,53,30,1
11.400027,11.777291,51,33,1
11.777291,12.166156,55,28,1
12.166156,12.546095,50,29,1
12.546095,12.937281,53,30,1
10.6455,12.937281,46,28,1
12.937281,13.328466,50,39,1
13.328466,13.723204,58,34,1
12.937281,13.723204,46,28,1
14.095135,14.279796,58,32,1
14.464457,14.64654,58,33,1
14.828622,15.010705,58,30,1
15.192788,15.374871,58,34,1
15.556954,15.7390375,58,31,1
13.723204,15.921121,46,30,1
13.723204,15.921121,55,36,1
15.921121,16.285286,53,33,1
16.285286,16.673635,51,31,1
15.921121,16.673635,46,27,1
16.673635,17.045567,53,33,1
17.045567,17.4175,50,28,1
16.673635,17.4175,46,27,1
17.4175,17.794762,48,33,1
17.794762,18.180267,53,28,1
17.4175,18.180267,41,27,1
18.180267,18.560205,50,33,1
18.560205,18.940145,53,30,1
18.180267,18.940145,41,27,1
18.940145,19.314724,51,32,1
19.314724,19.703142,53,29,1
18.940145,19.703142,41,27,1
19.703142,20.088646,50,32,1
20.088646,20.485735,53,29,1
20.485735,20.896694,50,32,1
20.896694,21.341139,46,29,1
19.703142,21.341139,41,27,1
21.341139,22.130611,41,32,1
22.563513,22.72414,29,27,1
22.692015,22.852642,30,22,1
22.820517,22.9834,32,22,1
22.949017,23.120451,30,27,1
23.052168,23.222273,32,23,1
23.154568,23.323362,30,24,1
23.256124,23.423641,32,22,1
23.356956,23.523214,30,24,1
23.456984,23.620476,32,22,1
23.556305,23.715878,30,25,1
23.652136,23.812307,32,24,1
23.748241,23.906357,30,26,1
23.84379,24.001358,32,23,1
23.938389,24.093994,30,26,1
24.032267,24.189678,32,22,1
24.125566,24.283556,30,25,1
24.221388,24.377695,32,23,1
24.314507,24.472157,30,24,1
24.409588,24.56774,32,22,1
24.503107,24.66243,30,26,1
24.599821,24.757711,32,23,1
24.693602,24.851097,30,25,1
24.789194,24.946093,32,23,1
24.882446,25.040056,30,25,1
24.977802,25.134024,32,22,1
25.07105,25.228575,30,25,1
25.165964,25.323908,32,22,1
25.259745,25.421284,30,27,1
25.356604,25.516958,32,23,1
25.453175,25.612867,30,26,1
25.548851,25.706982,32,22,1
25.644993,25.86617,29,22,1
25.83096,26.074825,30,18,1
26.042227,26.23782,29,23,1
28.38934,28.772041,50,33,1
28.772041,29.154743,53,28,1
28.38934,29.154743,46,27,1
29.154743,29.526674,50,34,1
29.526674,29.907581,53,28,1
29.154743,29.907581,46,28,1
29.907581,30.279512,48,31,1
30.279512,30.661377,53,27,1
29.907581,30.661377,46,24,1
30.661377,31.044079,50,34,1
31.044079,31.432428,53,27,1
30.661377,31.432428,46,28,1
31.432428,31.819525,51,33,1
31.819525,32.227688,53,26,1
31.432428,32.227688,46,27,1
32.227688,32.59962,52,34,1
32.59962,32.781704,53,26,1
32.963787,33.14587,53,26,1
33.327953,33.510033,53,26,1
33.692116,33.8742,53,26,1
34.056282,34.238365,53,26,1
32.227688,34.42045,46,28,1
34.42045,34.78715,51,33,1
34.78715,35.169853,50,27,1
34.42045,35.169853,46,27,1
35.169853,35.541786,51,31,1
35.541786,35.91905,53,25,1
35.169853,35.91905,41,26,1
35.91905,36.29098,51,29,1
36.29098,36.668243,53,25,1
35.91905,36.668243,41,26,1
36.668243,37.041065,51,29,1
37.041065,37.42657,53,28,1
36.668243,37.42657,41,26,1
37.42657,37.7985,50,33,1
37.7985,38.19695,48,25,1
37.42657,38.19695,41,27,1
38.19695,38.57421,50,34,1
38.57421,38.951477,53,30,1
38.951477,39.32874,51,33,1
39.32874,39.717606,55,28,1
39.717606,40.097546,50,29,1
40.097546,40.48873,53,30,1
38.19695,40.48873,46,28,1
40.48873,40.891415,50,39,1
40.891415,41.32937,53,34,1
40.48873,41.32937,44,28,1
41.7013,41.885963,55,32,1
42.07062,42.252705,55,33,1
42.434788,42.61687,55,30,1
42.798954,42.981037,55,34,1
43.16312,43.345203,55,31,1
41.32937,43.527287,43,30,1
41.32937,43.527287,53,36,1
43.527287,43.891453,55,33,1
43.527287,43.891453,51,27,1
43.527287,43.891453,43,24,1
43.891453,44.258156,43,24,1
43.891453,44.258156,55,31,1
43.891453,44.258156,50,27,1
44.258156,44.61496,48,34,1
44.61496,44.981663,55,30,1
44.258156,44.981663,43,28,1
44.981663,45.34583,53,33,1
45.34583,45.7356,55,28,1
44.981663,45.7356,43,28,1
45.7356,46.107533,51,28,1
46.107533,46.49872,55,29,1
45.7356,46.49872,43,27,1
46.49872,46.89607,51,39,1
46.89607,47.312737,54,34,1
46.49872,47.312737,42,28,1
47.684666,47.869328,53,32,1
48.05399,48.236073,53,33,1
48.418156,48.60024,53,30,1
48.782322,48.9644,53,34,1
49.146484,49.328568,53,31,1
47.312737,49.51065,51,36,1
47.312737,49.51065,41,30,1
49.51065,49.874817,50,27,1
49.51065,49.874817,53,33,1
49.51065,49.874817,41,24,1
49.874817,50.252083,48,27,1
49.874817,50.252083,53,31,1
49.874817,50.252083,41,24,1
50.252083,50.613747,46,34,1
50.613747,50.99101,53,30,1
50.252083,50.99101,41,28,1
50.99101,51.355175,48,31,1
51.355175,51.744946,53,26,1
50.99101,51.744946,41,26,1
51.744946,52.11688,50,29,1
52.11688,52.508064,53,27,1
51.744946,52.508064,41,28,1
52.508064,52.89925,51,35,1
52.89925,53.299355,53,30,1
52.508064,53.299355,41,25,1
53.299355,54.864098,51,32,1
53.299355,54.864098,41,27,1
54.864098,55.255283,46,28,1
54.864098,55.255283,50,28,1
53.299355,55.255283,53,32,1
55.64647,56.010635,34,30,1
56.3748,56.52918,34,30,1
56.47795,56.63113,35,26,1
56.58035,56.73235,34,27,1
56.681908,56.832752,35,25,1
56.782738,56.932453,34,27,1
56.882767,57.030426,35,25,1
56.982086,57.125526,34,28,1
57.07792,57.222145,35,27,1
57.174023,57.31633,34,29,1
57.269573,57.411533,35,26,1
57.36417,57.504215,34,29,1
57.45805,57.5994,35,25,1
57.55135,57.693928,34,28,1
57.64717,57.787647,35,26,1
57.740288,57.882507,34,27,1
57.83537,57.977222,35,25,1
57.92889,58.072693,34,29,1
58.025604,58.16743,35,26,1
58.119385,58.261406,34,28,1
58.214977,58.35593,35,26,1
58.30823,58.450344,34,28,1
58.403587,58.54386,35,25,1
58.496834,58.637787,34,28,1
58.591698,58.727844,35,25,1
58.680378,58.904343,34,30,1
58.871876,59.101944,33,26,1
59.06861,59.305347,32,30,1
59.271103,59.51491,31,26,1
59.47945,59.69222,30,30,1
59.69222,59.904984,49,26,1
59.904984,60.092484,54,26,1
60.092484,60.279984,49,26,1
60.279984,60.463066,42,31,1
60.463066,60.645996,49,26,1
60.645996,60.827267,53,26,1
60.827267,61.00691,49,25,1
61.00691,61.185482,42,30,1
61.185482,61.364944,49,27,1
61.364944,61.545124,54,27,1
61.545124,61.72559,49,27,1
61.72559,61.90741,42,30,1
61.90741,62.08923,49,27,1
62.08923,62.271046,56,27,1
62.271046,62.452866,49,27,1
62.452866,62.632355,42,33,1
62.632355,62.811844,49,27,1
62.811844,62.991337,58,27,1
62.991337,63.170414,49,27,1
63.170414,63.348667,42,31,1
63.348667,63.52692,49,27,1
63.52692,63.70391,58,27,1
63.70391,63.8809,49,27,1
63.8809,64.05673,42,30,1
64.05673,64.23256,49,27,1
64.23256,64.40955,58,27,1
64.40955,64.58654,49,27,1
64.58654,64.76479,42,31,1
64.76479,64.94305,49,25,1
64.94305,65.1213,54,28,1
65.1213,65.29955,49,27,1
65.29955,65.477806,42,33,1
65.477806,65.65606,51,27,1
65.65606,65.83431,59,27,1
65.83431,66.012566,51,27,1
66.012566,66.18839,42,32,1
66.18839,66.36423,51,27,1
66.36423,66.540054,59,27,1
66.540054,66.71588,51,27,1
66.71588,66.891716,42,32,1
66.891716,67.06754,51,27,1
67.06754,67.24337,59,27,1
67.24337,67.4192,51,27,1
67.4192,67.61275,42,33,1
67.61275,67.8063,51,27,1
67.8063,67.98923,59,31,1
67.98923,68.17215,51,27,1
68.17215,68.35164,42,33,1
68.35164,68.53113,49,28,1
68.53113,68.710625,58,28,1
68.710625,68.890114,49,28,1
68.890114,69.0696,42,33,1
69.0696,69.24827,49,27,1
69.24827,69.4261,58,28,1
69.4261,69.60271,49,27,1
69.60271,69.778534,42,33,1
69.778534,69.95436,49,28,1
69.95436,70.13097,58,29,1
70.13097,70.30796,49,29,1
70.30796,70.48621,42,33,1
70.48621,70.66447,49,27,1
70.66447,70.84272,54,31,1
70.84272,71.02097,49,27,1
71.02097,71.1968,42,33,1
71.1968,71.37263,51,28,1
71.37263,71.548454,59,28,1
71.548454,71.72429,51,28,1
71.72429,71.900116,42,33,1
71.900116,72.07594,51,29,1
72.07594,72.25178,59,29,1
72.25178,72.427605,51,29,1
72.427605,72.60586,42,33,1
72.60586,72.78411,49,28,1
72.78411,72.962364,53,28,1
72.962364,73.14062,49,27,1
73.14062,73.31887,42,31,1
73.31887,73.49712,49,27,1
73.49712,73.67538,56,28,1
73.67538,73.85363,49,28,1
73.85363,74.03312,42,33,1
74.03312,74.21261,49,28,1
74.21261,74.3921,58,28,1
74.3921,74.57159,49,28,1
74.57159,74.74601,42,33,1
74.74601,74.91908,49,27,1
74.91908,75.09084,58,28,1
75.09084,75.26098,49,27,1
75.26098,75.43111,42,33,1
75.43111,75.60352,49,28,1
75.60352,75.77897,58,29,1
75.77897,75.95719,49,29,1
75.95719,76.135445,42,33,1
76.135445,76.3137,49,27,1
76.3137,76.49195,58,31,1
76.49195,76.670204,49,27,1
76.670204,76.84603,42,33,1
76.84603,77.02186,51,28,1
77.02186,77.197685,54,28,1
77.197685,77.37352,51,28,1
77.37352,77.54935,42,33,1
77.54935,77.725174,51,29,1
77.725174,77.90101,59,29,1
77.90101,78.076836,51,29,1
78.076836,78.25509,42,33,1
78.25509,78.43334,49,28,1
78.43334,78.611595,53,28,1
78.611595,78.78985,49,27,1
78.78985,78.9681,42,31,1
78.9681,79.146355,49,27,1
79.146355,79.32461,56,28,1
79.32461,79.50286,49,28,1
79.50286,79.669525,42,33,1
79.669525,79.83619,58,28,1
79.83619,80.008606,54,28,1
80.008606,80.18102,58,28,1
80.18102,80.34769,54,33,1
80.34769,80.51435,58,29,1
80.51435,80.68578,54,29,1
80.68578,80.85721,58,29,1
80.85721,81.01937,42,33,1
81.01937,81.18153,58,28,1
81.18153,81.3482,54,28,1
81.3482,81.51487,58,27,1
81.51487,81.67645,54,31,1
81.67645,81.83804,58,27,1
81.83804,82.003,54,28,1
82.003,82.16796,58,28,1
82.16796,82.32955,42,33,1
82.32955,82.491135,59,28,1
82.491135,82.65418,54,28,1
82.65418,82.81722,59,28,1
82.81722,82.9768,54,33,1
82.9768,83.13637,59,29,1
83.13637,83.29853,54,29,1
83.29853,83.46069,59,29,1
83.46069,83.61737,42,33,1
83.61737,83.77405,59,28,1
83.77405,83.9344,54,28,1
83.9344,84.094765,59,27,1
84.094765,84.251434,54,31,1
84.251434,84.40811,59,27,1
84.40811,84.57139,54,28,1
84.57139,84.73466,59,28,1
84.73466,84.81545,42,33,1
84.89625,85.05783,58,28,1
85.05783,85.21722,54,28,1
85.21722,85.37661,58,28,1
85.37661,85.52471,54,33,1
85.52471,85.67281,58,29,1
85.67281,85.82594,54,29,1
85.82594,85.979065,58,29,1
85.979065,86.053116,42,33,1
86.12717,86.27527,58,28,1
86.27527,86.4284,54,28,1
86.4284,86.58152,58,27,1
86.58152,86.73819,54,31,1
86.73819,86.89487,58,27,1
86.89487,87.054306,54,28,1
87.054306,87.213745,58,28,1
87.213745,87.29118,42,33,1
87.36862,87.523506,59,28,1
87.523506,87.67407,54,28,1
87.67407,87.824646,59,28,1
87.824646,87.97007,54,33,1
87.97007,88.115486,59,29,1
88.115486,88.27036,54,29,1
88.27036,88.42524,59,29,1
88.42524,88.500244,42,33,1
88.57524,88.72524,59,28,1
88.72524,88.87909,54,28,1
88.87909,89.032936,59,27,1
89.032936,89.18294,54,31,1
89.18294,89.33294,59,27,1
89.33294,89.48757,54,28,1
89.48757,89.64221,59,28,1
89.64221,89.721,42,33,1
89.7998,89.957375,58,28,1
89.957375,90.11136,54,28,1
90.11136,90.26535,58,28,1
90.26535,90.415924,54,33,1
90.415924,90.5665,58,29,1
90.5665,90.72226,54,29,1
90.72226,90.87802,58,29,1
90.87802,91.03114,54,33,1
91.03114,91.184265,58,28,1
91.184265,91.34094,54,28,1
91.34094,91.49762,58,27,1
91.49762,91.65611,54,31,1
91.65611,91.814606,58,27,1
91.814606,91.97691,54,28,1
91.97691,92.13921,58,28,1
92.13921,92.21846,42,33,1
92.29771,92.4562,58,28,1
92.4562,92.61197,54,28,1
92.61197,92.76773,58,28,1
92.76773,92.91697,54,33,1
92.91697,93.06621,58,29,1
93.06621,93.22197,54,29,1
93.22197,93.37773,58,29,1
93.37773,93.529144,54,33,1
93.529144,93.68055,58,28,1
93.68055,93.83813,54,28,1
93.83813,93.99571,58,27,1
93.99571,94.148834,54,31,1
94.148834,94.301956,58,27,1
94.301956,94.46045,54,28,1
94.46045,94.61895,58,28,1
94.61895,94.77653,54,33,1
94.77653,94.934105,58,28,1
94.934105,95.08987,54,28,1
95.08987,95.24563,58,28,1
95.24563,95.4014,54,33,1
95.4014,95.55716,58,29,1
95.55716,95.716545,54,29,1
95.716545,95.87594,58,30,1
95.87594,96.03974,54,34,1
96.03974,96.20355,58,29,1
96.20355,96.373215,54,29,1
96.373215,96.54288,58,28,1
96.54288,96.709564,54,33,1
96.709564,96.87625,58,29,1
96.87625,97.050064,54,30,1
97.050064,97.22388,58,30,1
97.22388,97.47232,42,34,1
97.47232,97.695854,54,31,1
97.70762,97.931145,42,25,1
97.70762,97.931145,54,31,1
97.94291,98.16644,54,35,1
97.94291,98.16644,42,29,1
98.17821,98.40173,54,31,1
98.17821,98.40173,42,25,1
98.4135,98.63703,54,33,1
98.4135,98.63703,42,27,1
98.648796,98.8688,42,31,1
98.648796,98.8688,54,37,1
98.88038,99.09935,54,35,1
98.88038,99.09935,42,29,1
99.110855,99.3284,54,35,1
99.110855,99.3284,42,29,1
99.33983,99.55562,42,32,1
99.33983,99.55562,54,38,1
99.33983,99.55562,49,32,1
99.56697,99.78137,49,32,1
99.56697,99.78137,54,35,1
99.56697,99.78137,42,28,1
99.792656,100.00538,54,35,1
99.792656,100.00538,49,33,1
99.792656,100.00538,42,29,1
100.016525,100.228195,54,40,1
100.016525,100.228195,49,33,1
100.016525,100.228195,42,33,1
100.23934,100.45101,49,34,1
100.23934,100.45101,54,36,1
100.23934,100.45101,42,30,1
100.46216,100.67516,42,30,1
100.46216,100.67516,54,37,1
100.46216,100.67516,49,35,1
100.68637,100.899376,54,44,1
100.68637,100.899376,49,36,1
100.68637,100.899376,42,36,1
100.91058,101.124985,49,37,1
100.91058,101.124985,54,40,1
100.91058,101.124985,42,33,1
101.13627,101.35096,42,34,1
101.13627,101.35096,54,42,1
101.13627,101.35096,49,39,1
101.36232,101.57876,54,48,1
101.36232,101.57876,49,40,1
101.36232,101.57876,42,40,1
101.59019,101.81015,49,41,1
101.59019,101.81015,54,44,1
101.59019,101.81015,42,37,1
101.82181,102.04579,42,37,1
101.82181,102.04579,54,46,1
101.82181,102.04579,49,43,1
102.057686,102.28993,53,57,1
102.057686,102.28993,50,48,1
102.057686,102.28993,41,48,1
102.302155,102.5344,53,52,1
102.302155,102.5344,50,48,1
102.302155,102.5344,41,42,1
102.54662,102.77887,41,42,1
102.54662,102.77887,50,48,1
102.54662,102.77887,53,52,1
102.79109,103.034256,50,63,1
103.034256,103.279175,53,58,1
103.279175,103.40429,53,58,1
102.79109,103.529396,41,63,1
103.529396,103.77256,48,62,1
103.77256,104.020164,53,58,1
104.020164,104.14619,53,58,1
103.529396,104.268616,41,62,1
104.268616,104.51884,50,60,1
104.51884,104.77088,53,58,1
104.77088,104.89782,53,58,1
104.268616,105.02475,41,60,1
105.02475,105.26961,51,61,1
105.26961,105.52362,53,58,1
105.52362,105.6552,53,58,1
105.02475,105.78677,41,61,1
105.78677,106.02994,52,60,1
106.02994,106.27058,53,58,1
106.27058,106.38964,53,58,1
106.508705,106.746826,53,60,1
106.746826,106.98495,53,58,1
106.98495,107.10401,53,58,1
107.223076,107.449295,53,62,1
107.4612,107.687416,53,58,1
107.69932,107.92554,53,58,1
105.78677,107.93745,41,60,1
107.93745,108.18589,51,61,1
108.18589,108.441696,53,53,1
108.441696,108.70486,50,53,1
107.93745,108.70486,41,55,1
108.70486,108.94801,51,60,1
108.94801,109.180595,53,55,1
109.19293,109.42727,53,55,1
108.70486,109.4396,41,60,1
109.4396,109.68276,51,60,1
109.68276,109.915344,53,56,1
109.92767,110.16201,53,56,1
109.4396,110.17435,41,60,1
110.17435,110.41838,51,62,1
110.41838,110.65339,53,58,1
110.665985,110.90543,53,58,1
110.17435,110.91804,41,62,1
110.91804,111.1612,50,62,1
111.1612,111.417915,53,59,1
111.417915,111.68228,48,59,1
110.91804,111.68228,41,62,1
111.68228,111.928955,50,62,1
111.928955,112.16329,53,56,1
112.17562,112.40996,53,56,1
112.422295,112.67558,51,60,1
112.67558,112.91671,55,56,1
112.929504,113.1725,55,56,1
113.18529,113.43368,50,60,1
113.43368,113.67297,53,56,1
113.68576,113.92876,53,57,1
111.68228,113.94155,46,62,1
113.94155,114.204704,50,59,1
114.204704,114.47163,53,54,1
114.486664,114.77238,53,54,1
113.94155,114.787415,44,59,1
114.787415,115.03058,53,59,1
115.03058,115.260796,55,53,1
115.27287,115.50223,55,53,1
115.5143,115.752426,53,56,1
115.752426,115.980736,55,53,1
115.992874,116.22351,55,53,1
116.23565,116.47352,53,57,1
116.47352,116.69949,55,51,1
116.71139,116.93736,55,51,1
114.787415,116.94926,43,59,1
116.94926,117.187126,51,56,1
117.187126,117.42829,55,51,1
117.42829,117.67276,50,51,1
116.94926,117.67276,43,56,1
117.67276,117.90605,48,54,1
117.90605,118.1306,55,50,1
118.142586,118.37038,55,50,1
117.67276,118.38237,43,54,1
118.38237,118.62049,53,54,1
118.62049,118.853264,55,50,1
118.86606,119.109055,55,50,1
118.38237,119.12184,43,54,1
119.12184,119.365005,51,55,1
119.365005,119.60169,55,50,1
119.61448,119.857475,55,50,1
119.12184,119.87026,43,55,1
119.87026,120.130005,51,57,1
120.130005,120.38401,54,52,1
120.397804,120.659874,54,52,1
119.87026,120.67367,42,57,1
120.67367,120.91683,51,58,1
120.91683,121.14706,53,52,1
121.15913,121.38848,53,52,1
121.40055,121.63868,51,56,1
121.63868,121.8649,53,52,1
121.8768,122.10302,53,53,1
122.11493,122.35305,51,57,1
122.35305,122.57927,53,52,1
122.59117,122.81739,53,52,1
120.67367,122.8293,41,58,1
122.8293,123.06742,50,57,1
123.06742,123.309814,53,54,1
123.309814,123.55649,48,51,1
122.8293,123.55649,41,57,1
123.55649,123.79298,46,58,1
123.79298,124.022224,53,53,1
124.03456,124.26889,53,53,1
123.55649,124.28123,41,58,1
124.28123,124.51935,48,58,1
124.51935,124.75213,53,52,1
124.764915,125.00791,53,52,1
124.28123,125.0207,41,58,1
125.0207,125.26386,50,56,1
125.26386,125.50055,53,52,1
125.513336,125.75633,53,52,1
125.0207,125.76913,41,56,1
125.76913,126.02491,51,56,1
126.02491,126.2705,53,52,1
126.28358,126.532036,53,52,1
125.76913,126.54511,41,56,1
126.8009,127.03881,53,50,1
127.05103,127.28328,53,50,1
127.2955,127.52775,53,50,1
127.53997,127.77222,53,50,1
127.78444,128.01668,53,49,1
126.54511,128.0289,51,51,1
126.54511,128.0289,41,51,1
128.0289,128.26115,53,49,1
128.27338,128.50562,53,49,1
128.51785,128.75009,53,49,1
128.76231,128.99455,53,48,1
129.00679,129.23903,53,48,1
129.25125,129.4835,53,48,1
129.75652,129.99692,53,42,1
130.00914,130.2414,53,39,1
130.25362,130.48586,53,38,1
130.49808,130.73033,53,38,1
130.74255,130.9748,53,37,1
130.98701,131.21927,53,37,1
131.23149,131.46373,53,36,1
131.47595,131.7082,53,35,1
131.72043,131.96458,53,36,1
131.97743,132.22159,53,40,1
132.23444,132.47858,53,44,1
129.49573,132.49144,41,45,1
129.49573,132.49144,50,48,1
132.49144,132.74844,53,50,1
132.74844,132.98853,44,42,1
133.00092,133.23648,44,42,1
133.24887,133.48442,44,42,1
133.49683,133.73238,44,42,1
133.74478,133.98033,44,42,1
133.99274,134.22829,44,42,1
134.24069,134.47624,44,42,1
134.48865,134.7235,44,42,1
134.73573,134.96803,44,42,1
134.9804,135.22003,44,42,1
135.23276,135.48021,44,42,1
135.49336,135.76003,44,46,1
135.76003,136.0073,37,46,1
136.01994,136.26045,37,46,1
136.27312,136.51361,37,53,1
136.52628,136.76678,37,53,1
136.77943,137.01994,37,53,1
137.03261,137.27312,37,53,1
137.28577,137.52628,37,52,1
137.53894,137.77943,37,52,1
137.7921,138.00386,37,65,1
138.00386,138.2197,35,59,1
138.2197,138.43869,33,61,1
138.43869,138.66258,32,59,1
138.66258,138.87686,30,65,1
140.93164,141.66783,54,42,1
140.93164,141.66783,61,42,1
141.66783,142.75282,61,42,1
142.75282,143.12086,59,38,1
143.12086,143.49019,57,41,1
141.66783,143.49019,54,42,1
143.85951,144.58784,54,38,1
143.85951,144.58784,57,38,1
144.58784,145.68034,57,41,1
145.68034,146.04967,56,41,1
144.58784,146.04967,54,41,1
146.04967,146.41899,54,44,1
146.7883,147.52695,54,34,1
147.52695,148.2346,54,41,1
148.2346,148.9407,56,42,1
148.9407,149.63838,57,47,1
149.63838,150.35695,59,37,1
149.63838,150.35695,52,31,1
150.35695,151.06282,57,39,1
150.35695,151.06282,61,47,1
151.06282,151.7851,61,45,1
151.06282,151.7851,56,38,1
151.7851,152.52373,54,38,1
151.7851,152.52373,61,46,1
152.52373,153.26237,52,33,1
152.52373,153.26237,62,39,1
153.26237,154.73965,52,33,1
153.26237,154.73965,62,39,1
154.73965,155.4783,61,37,1
154.73965,155.4783,53,30,1
155.4783,156.21695,61,36,1
155.4783,156.21695,54,30,1
156.21695,157.30194,61,42,1
157.30194,157.66998,59,38,1
157.66998,158.0393,57,41,1
156.21695,158.0393,54,32,1
158.40863,159.13696,54,32,1
158.40863,159.13696,57,38,1
159.13696,160.22946,57,41,1
160.22946,160.59877,56,41,1
159.13696,160.59877,54,34,1
160.59877,160.9681,54,44,1
161.33742,162.07607,54,34,1
162.07607,162.78195,54,41,1
162.78195,163.48592,56,42,1
163.48592,164.17955,57,47,1
164.17955,164.89812,59,37,1
164.17955,164.89812,52,31,1
164.89812,165.60399,61,47,1
164.89812,165.60399,57,39,1
165.60399,166.32626,56,38,1
165.60399,166.32626,61,45,1
166.32626,167.0649,61,46,1
166.32626,167.0649,54,38,1
167.0649,167.8649,62,39,1
167.0649,167.8649,52,33,1
167.8649,169.3373,62,39,1
167.8649,169.3373,52,33,1
169.3373,169.58269,57,37,1
169.3373,169.58269,61,37,1
169.58269,169.81583,64,29,1
169.8281,170.06122,64,29,1
170.07349,170.30396,64,33,1
170.31609,170.54655,64,29,1
170.55869,170.78749,64,29,1
170.7992,170.96733,58,33,1
170.96733,171.13548,64,27,1
171.13548,171.3025,61,27,1
171.3025,171.46951,64,27,1
171.46951,171.63539,58,33,1
171.63539,171.80127,64,28,1
171.80127,171.96715,61,28,1
171.96715,172.13301,64,29,1
172.13301,172.29889,58,33,1
172.29889,172.46477,64,29,1
172.46477,172.63065,61,29,1
172.63065,172.79651,64,29,1
172.79651,172.96353,57,33,1
172.96353,173.13055,64,29,1
173.13055,173.29758,61,29,1
173.29758,173.46458,64,29,1
173.46458,173.62932,55,33,1
173.62932,173.79404,64,27,1
173.79404,173.95877,61,27,1
173.95877,174.12349,64,27,1
174.12349,174.28822,55,33,1
174.28822,174.45294,64,28,1
174.45294,174.61996,61,28,1
174.61996,174.78699,64,29,1
174.78699,174.95401,55,33,1
174.95401,175.12103,64,29,1
175.12103,175.28804,61,29,1
175.28804,175.45506,64,29,1
175.45506,175.61807,54,33,1
175.61807,175.78108,64,29,1
175.78108,175.94409,61,29,1
175.94409,176.10619,64,29,1
176.10619,176.26643,54,33,1
176.26643,176.4258,64,28,1
176.4258,176.58427,61,28,1
176.58427,176.74188,64,28,1
176.74188,176.8989,54,34,1
176.8989,177.05505,62,28,1
177.05505,177.21037,59,28,1
177.21037,177.36485,62,29,1
177.36485,177.51877,54,35,1
177.51877,177.67186,61,29,1
177.67186,177.82413,58,29,1
177.82413,177.9756,61,29,1
177.9756,178.12653,54,36,1
178.12653,178.278,62,31,1
178.278,178.43001,59,31,1
178.43001,178.58255,62,31,1
178.58255,178.7359,54,37,1
178.7359,178.88927,64,31,1
178.88927,179.04262,61,32,1
179.04262,179.19598,64,32,1
179.19598,179.35103,55,37,1
179.35103,179.50606,64,31,1
179.50606,179.66542,61,31,1
179.66542,179.82477,64,31,1
179.82477,179.9873,56,38,1
179.9873,180.14983,64,32,1
180.14983,180.31346,61,32,1
180.31346,180.47746,64,33,1
180.47746,180.64447,57,39,1
180.64447,180.8115,64,32,1
180.8115,180.97852,61,34,1
180.97852,181.14554,64,34,1
181.14554,181.3067,57,33,1
181.3067,181.46786,64,27,1
181.46786,181.62904,61,27,1
181.62904,181.7902,64,27,1
181.7902,181.93947,58,33,1
181.93947,182.08871,64,28,1
182.08871,182.2365,61,28,1
182.2365,182.38428,64,29,1
182.38428,182.5358,58,33,1
182.5358,182.68732,64,29,1
182.68732,182.8396,61,29,1
182.8396,182.99188,64,29,1
182.99188,183.15622,57,33,1
183.15622,183.32054,64,29,1
183.32054,183.48486,61,29,1
183.48486,183.6492,64,29,1
183.6492,183.80946,55,33,1
183.80946,183.96971,64,27,1
183.96971,184.12997,61,27,1
184.12997,184.29022,64,27,1
184.29022,184.44443,55,33,1
184.44443,184.59862,64,28,1
184.59862,184.74786,61,28,1
184.74786,184.89713,64,29,1
184.89713,185.04941,55,33,1
185.04941,185.20169,64,29,1
185.20169,185.35397,61,29,1
185.35397,185.50626,64,31,1
185.50626,185.6685,54,36,1
185.6685,185.83076,64,31,1
185.83076,185.99301,61,31,1
185.99301,186.15367,64,31,1
186.15367,186.30954,54,36,1
186.30954,186.46465,64,30,1
186.46465,186.6192,61,30,1
186.6192,186.77318,64,30,1
186.77318,186.92654,54,37,1
186.92654,187.07915,62,30,1
187.07915,187.23123,59,30,1
187.23123,187.38275,62,31,1
187.38275,187.53369,54,38,1
187.53369,187.6839,61,31,1
187.6839,187.83357,58,31,1
187.83357,187.98271,61,31,1
187.98271,188.13129,54,39,1
188.13129,188.27916,62,34,1
188.27916,188.42653,59,34,1
188.42653,188.57355,62,34,1
188.57355,188.72078,54,40,1
188.72078,188.86903,64,34,1
188.86903,189.01831,61,35,1
189.01831,189.16858,64,35,1
189.16858,189.31998,55,40,1
189.31998,189.47218,64,34,1
189.47218,189.62569,61,34,1
189.62569,189.78038,64,34,1
189.78038,189.93973,56,41,1
189.93973,190.09909,64,35,1
190.09909,190.25844,61,35,1
190.25844,190.41779,64,36,1
190.41779,190.57715,57,42,1
190.57715,190.7365,64,35,1
190.7365,190.89586,61,37,1
190.89586,191.0552,64,37,1
191.0552,191.21729,57,36,1
191.21729,191.37936,64,29,1
191.37936,191.54143,61,29,1
191.54143,191.7035,64,29,1
191.7035,191.86198,58,36,1
191.86198,192.02046,64,30,1
192.02046,192.17894,61,30,1
192.17894,192.33742,64,31,1
192.33742,192.4959,57,36,1
192.4959,192.65437,64,31,1
192.65437,192.81285,61,31,1
192.81285,192.97133,64,31,1
192.97133,193.13359,55,36,1
193.13359,193.29584,64,31,1
193.29584,193.45808,61,31,1
193.45808,193.61777,64,31,1
193.61777,193.77197,53,36,1
193.77197,193.92616,62,29,1
193.92616,194.08035,57,29,1
194.08035,194.24113,62,29,1
194.24113,194.39534,52,36,1
194.39534,194.54953,62,30,1
194.54953,194.70372,55,30,1
194.70372,194.85791,62,31,1
194.85791,195.01639,50,36,1
195.01639,195.17487,62,31,1
195.17487,195.33334,53,31,1
195.33334,195.49182,62,31,1
195.49182,195.65031,53,36,1
195.65031,195.80879,62,31,1
195.80879,195.96727,57,31,1
195.96727,196.12575,62,31,1
196.12575,196.28696,57,36,1
196.28696,196.44818,64,29,1
196.44818,196.6094,61,29,1
196.6094,196.77063,64,29,1
196.77063,196.92982,58,36,1
196.92982,197.08904,64,30,1
197.08904,197.24823,61,30,1
197.24823,197.40744,64,31,1
197.40744,197.56664,57,36,1
197.56664,197.72583,64,31,1
197.72583,197.88504,61,31,1
197.88504,198.04424,64,31,1
198.04424,198.21126,55,37,1
198.21126,198.37828,64,32,1
198.37828,198.5453,61,32,1
198.5453,198.71231,64,32,1
198.71231,198.87186,53,37,1
198.87186,199.03105,65,31,1
199.03105,199.19026,62,32,1
199.19026,199.34846,65,32,1
199.34846,199.50668,53,39,1
199.50668,199.66425,65,34,1
199.66425,199.8215,62,34,1
199.8215,199.97842,65,35,1
199.97842,200.13469,53,42,1
200.13469,200.29095,65,37,1
200.29095,200.44722,62,37,1
200.44722,200.60349,65,37,1
200.60349,200.75975,53,44,1
200.75975,200.91602,67,39,1
200.91602,201.07228,63,40,1
201.07228,201.22855,67,40,1
201.22855,201.38481,53,48,1
201.38481,201.54108,65,38,1
201.54108,201.69734,62,38,1
201.69734,201.85362,65,38,1
201.85362,202.00989,53,47,1
202.00989,202.16615,63,39,1
202.16615,202.32242,60,39,1
202.32242,202.47868,63,39,1
202.47868,202.63495,53,42,1
202.63495,202.79121,62,36,1
202.79121,202.94748,58,36,1
202.94748,203.10374,62,37,1
203.10374,203.26001,53,42,1
203.26001,203.41628,60,35,1
203.41628,203.57254,56,35,1
203.57254,203.7288,60,35,1
203.7288,203.88507,53,35,1
203.88507,204.04134,59,29,1
204.04134,204.19762,56,29,1
204.19762,204.3542,59,29,1
204.3542,204.51146,53,34,1
204.51146,204.6687,59,29,1
204.6687,204.82596,56,29,1
204.82596,204.98384,59,29,1
204.98384,205.14206,53,33,1
205.14206,205.30026,59,29,1
205.30026,205.45848,56,29,1
205.45848,205.61768,59,29,1
205.61768,205.77689,53,33,1
205.77689,205.93608,59,29,1
205.93608,206.09561,56,29,1
206.09561,206.25583,59,29,1
206.25583,206.41603,53,31,1
206.41603,206.57623,59,27,1
206.57623,206.73643,56,27,1
206.73643,206.89664,59,27,1
206.89664,207.05685,53,32,1
207.05685,207.21706,59,27,1
207.21706,207.37726,56,27,1
207.37726,207.53746,59,27,1
207.53746,207.69766,52,32,1
207.69766,207.85786,59,26,1
207.85786,208.01808,56,26,1
208.01808,208.17828,59,26,1
208.17828,208.33849,50,31,1
208.33849,208.49869,59,26,1
208.49869,208.65889,56,26,1
208.65889,208.8191,59,26,1
208.8191,208.9733,48,31,1
208.9733,209.12749,60,24,1
209.12749,209.28168,57,24,1
209.28168,209.43588,60,24,1
209.43588,209.59508,48,30,1
209.59508,209.75429,62,25,1
209.75429,209.91348,58,25,1
209.91348,210.07268,62,26,1
210.07268,210.23189,48,29,1
210.23189,210.39108,60,26,1
210.39108,210.5503,57,26,1
210.5503,210.70949,60,26,1
210.70949,210.85342,48,30,1
210.85342,210.99239,62,26,1
210.99239,211.12918,58,26,1
211.12918,211.28941,62,26,1
211.28941,211.44444,48,31,1
211.44444,211.59949,60,24,1
211.59949,211.75452,57,24,1
211.75452,211.90956,60,24,1
211.90956,212.06877,48,30,1
212.06877,212.22797,62,25,1
212.22797,212.38716,58,25,1
212.38716,212.54637,62,26,1
212.54637,212.70557,48,29,1
212.70557,212.86478,60,26,1
212.86478,213.02397,57,26,1
213.02397,213.18318,60,26,1
213.18318,213.34543,48,30,1
213.34543,213.50768,62,26,1
213.50768,213.66992,58,26,1
213.66992,213.83217,62,26,1
213.83217,213.9934,48,31,1
213.9934,214.15462,60,24,1
214.15462,214.31584,57,24,1
214.31584,214.47707,60,24,1
214.47707,214.63626,48,30,1
214.63626,214.79546,62,26,1
214.79546,214.95467,58,26,1
214.95467,215.11386,62,27,1
215.11386,215.27307,48,30,1
215.27307,215.43227,60,27,1
215.43227,215.59148,57,28,1
215.59148,215.75067,60,28,1
215.75067,215.89459,48,33,1
215.89459,216.0328,62,28,1
216.0328,216.16904,58,28,1
216.16904,216.33075,62,28,1
216.33075,216.48578,48,34,1
216.48578,216.64082,60,26,1
216.64082,216.79585,57,26,1
216.79585,216.9509,60,26,1
216.9509,217.11009,48,33,1
217.11009,217.2693,62,27,1
217.2693,217.4285,58,27,1
217.4285,217.5877,62,28,1
217.5877,217.7469,48,31,1
217.7469,217.90611,60,28,1
217.90611,218.0653,57,28,1
218.0653,218.22452,60,28,1
218.22452,218.3878,48,36,1
218.3878,218.5511,62,30,1
218.5511,218.71439,58,30,1
218.71439,218.87769,62,30,1
218.87769,219.03688,48,42,1
219.03688,219.19609,60,35,1
219.19609,219.35529,57,35,1
219.35529,219.51448,60,35,1
219.51448,219.67174,48,44,1
219.67174,219.82898,62,37,1
219.82898,219.98624,58,38,1
219.98624,220.14348,62,37,1
220.14348,220.30074,48,47,1
220.30074,220.45798,60,37,1
220.45798,220.61523,57,38,1
220.61523,220.77248,60,38,1
220.77248,220.9379,48,49,1
220.9379,221.10332,60,40,1
221.10332,221.26874,58,40,1
221.26874,221.43414,60,40,1
221.43414,224.03912,58,41,1
221.43414,224.03912,60,49,1
221.43414,224.03912,48,41,1
224.03912,224.6724,60,38,1
224.03912,224.6724,57,32,1
224.03912,224.6724,53,32,1
225.27614,225.58286,60,35,1
225.27614,225.58286,57,29,1
225.27614,225.58286,53,29,1
225.88957,226.2048,63,35,1
225.88957,226.2048,60,29,1
225.88957,226.2048,53,29,1
226.52002,227.14763,62,38,1
226.52002,227.14763,58,32,1
226.52002,227.14763,53,32,1
227.75455,228.05801,62,35,1
227.75455,228.05801,58,29,1
227.75455,228.05801,53,29,1
228.36147,228.67155,65,35,1
228.36147,228.67155,62,29,1
228.36147,228.67155,53,29,1
228.98163,229.6111,60,38,1
228.98163,229.6111,57,32,1
228.98163,229.6111,53,32,1
230.21802,230.52148,57,35,1
230.21802,230.52148,53,29,1
230.82494,231.13165,60,35,1
230.82494,231.13165,57,29,1
231.43837,231.74509,60,35,1
231.43837,231.74509,57,29,1
231.43837,231.74509,48,29,1
232.0518,232.36356,58,28,1
232.0518,232.36356,62,34,1
232.0518,232.36356,48,28,1
232.67531,232.98706,60,33,1
232.67531,232.98706,57,28,1
232.67531,232.98706,48,28,1
233.29881,233.61057,58,34,1
233.29881,233.61057,55,28,1
233.29881,233.61057,48,28,1
233.92233,234.23409,57,35,1
233.92233,234.23409,54,29,1
233.92233,234.23409,48,29,1
234.54584,234.85759,54,28,1
234.54584,234.85759,57,35,1
234.54584,234.85759,48,28,1
235.16934,235.4811,57,35,1
235.16934,235.4811,54,29,1
235.16934,235.4811,48,29,1
235.79285,236.1046,57,37,1
235.79285,236.1046,54,31,1
235.79285,236.1046,48,31,1
236.41635,236.72838,58,40,1
236.41635,236.72838,53,33,1
236.41635,236.72838,46,33,1
237.04272,237.35939,53,31,1
237.04272,237.35939,58,38,1
237.04272,237.35939,46,31,1
237.6787,238.00043,57,37,1
237.6787,238.00043,53,31,1
237.6787,238.00043,48,31,1
238.32489,238.65182,58,38,1
238.32489,238.65182,55,31,1
238.32489,238.65182,48,31,1
238.98164,239.20192,53,47,1
239.20192,239.41176,60,44,1
239.41176,239.51291,57,44,1
239.61406,239.71521,53,47,1
239.81636,239.91751,48,43,1
240.01868,240.11983,45,41,1
240.22098,240.32268,41,45,1
240.42438,240.52608,45,41,1
240.62778,240.72946,48,41,1
240.83116,240.93536,45,47,1
241.03929,241.1432,48,45,1
241.24712,241.35104,53,45,1
241.45496,241.66862,53,47,1
241.66862,241.87662,62,44,1
241.87662,241.97777,58,44,1
242.07893,242.18008,53,47,1
242.28123,242.38239,50,43,1
242.48354,242.5847,46,41,1
242.68585,242.78809,41,45,1
242.89032,242.99257,46,41,1
243.0948,243.19704,50,41,1
243.29929,243.4032,46,47,1
243.50711,243.61104,50,45,1
243.71495,243.81886,53,45,1
243.92279,244.14014,53,47,1
244.14014,244.34996,65,44,1
244.34996,244.45111,60,44,1
244.55226,244.65341,57,47,1
244.75456,244.85573,53,43,1
244.95688,245.05803,48,41,1
245.15918,245.26198,45,45,1
245.36478,245.46758,41,41,1
245.57037,245.67316,36,41,1
245.77596,245.88045,41,47,1
245.98492,246.0894,45,45,1
246.1939,246.29837,48,45,1
246.40285,246.71124,60,35,1
246.40285,246.71124,57,29,1
246.40285,246.71124,48,29,1
247.01962,247.32802,70,28,1
247.01962,247.32802,74,34,1
247.01962,247.32802,60,28,1
247.6364,247.9448,72,33,1
247.6364,247.9448,69,28,1
247.6364,247.9448,60,28,1
248.25317,248.56157,70,34,1
248.25317,248.56157,67,28,1
248.25317,248.56157,60,28,1
248.86995,249.1834,69,35,1
248.86995,249.1834,66,29,1
248.86995,249.1834,60,29,1
249.49686,249.8103,66,28,1
249.49686,249.8103,69,35,1
249.49686,249.8103,60,28,1
250.12375,250.4372,69,35,1
250.12375,250.4372,66,29,1
250.12375,250.4372,60,29,1
250.75064,251.06409,69,37,1
250.75064,251.06409,66,31,1
250.75064,251.06409,60,31,1
251.37753,251.69246,70,40,1
251.37753,251.69246,65,33,1
251.37753,251.69246,58,33,1
252.00854,252.3261,65,31,1
252.00854,252.3261,70,38,1
252.00854,252.3261,58,31,1
252.6448,252.96532,69,37,1
252.6448,252.96532,65,31,1
252.6448,252.96532,60,31,1
253.28735,253.6106,70,38,1
253.28735,253.6106,67,31,1
253.28735,253.6106,60,31,1
253.93536,254.2595,55,31,1
253.93536,254.2595,52,26,1
253.93536,254.2595,46,26,1
254.58366,254.9078,52,25,1
254.58366,254.9078,55,31,1
254.58366,254.9078,46,25,1
255.23196,255.5561,55,31,1
255.23196,255.5561,52,26,1
255.23196,255.5561,46,26,1
255.88025,256.2044,55,33,1
255.88025,256.2044,52,27,1
255.88025,256.2044,46,27,1
256.52856,256.8527,56,36,1
256.52856,256.8527,51,29,1
256.52856,256.8527,44,29,1
257.17902,257.50754,51,27,1
257.17902,257.50754,56,34,1
257.17902,257.50754,44,27,1
257.83862,258.17194,55,33,1
257.83862,258.17194,51,27,1
257.83862,258.17194,46,27,1
258.5082,258.84677,56,34,1
258.5082,258.84677,53,27,1
258.5082,258.84677,46,27,1
260.49182,260.81595,66,31,1
261.1401,261.46426,63,33,1
261.7884,262.11255,68,33,1
262.43887,262.7674,68,31,1
263.7619,264.0917,44,29,1
264.42154,264.7591,44,29,1
265.77182,266.1155,45,26,1
266.45917,266.83203,45,26,1
267.89636,268.2281,57,26,1
268.5598,268.8915,58,27,1
269.22324,269.55493,46,30,1
269.89883,270.23447,48,33,1
270.57138,270.9096,48,35,1
271.26144,271.6065,48,35,1
271.26144,271.6065,55,35,1
271.26144,271.6065,58,41,1
271.95654,272.312,58,42,1
271.95654,272.312,55,36,1
271.95654,272.312,48,36,1
272.6904,272.86868,53,42,1
272.6904,272.86868,41,36,1
274.11676,275.1417,57,36,1
275.1417,275.5098,58,36,1
275.1417,275.5098,55,30,1
274.11676,275.5098,60,44,1
275.5098,276.2056,57,44,1
275.5098,276.2056,53,36,1
276.2056,276.90143,57,45,1
276.2056,276.90143,51,38,1
276.90143,277.59723,57,48,1
276.90143,277.59723,50,40,1
277.59723,278.31323,55,44,1
277.59723,278.31323,50,37,1
277.59723,278.31323,43,37,1
278.31323,279.68796,58,49,1
278.31323,279.68796,48,41,1
279.68796,279.86636,57,38,1
279.68796,279.86636,53,32,1
280.41144,280.5931,57,34,1
280.41144,280.5931,53,28,1
282.56454,282.90192,48,42,1
282.56454,283.58948,45,35,1
283.58948,283.95758,46,36,1
283.58948,283.95758,43,30,1
283.95758,284.65338,45,44,1
283.95758,284.65338,41,36,1
284.65338,285.3492,45,45,1
284.65338,285.3492,39,38,1
285.3492,286.045,45,48,1
285.3492,286.045,38,40,1
286.045,286.3929,43,48,1
286.045,286.3929,38,40,1
286.045,286.3929,31,40,1
287.49722,288.19727,58,53,1
287.49722,288.19727,53,45,1
288.19727,288.89728,58,59,1
288.19727,288.89728,51,49,1
288.89728,289.2473,56,60,1
288.89728,289.2473,51,50,1
288.89728,289.2473,44,50,1
290.29736,290.9974,52,84,1
290.29736,290.9974,47,70,1
290.29736,290.9974,40,70,1
290.9974,291.3474,45,84,1
290.9974,291.3474,40,70,1
290.9974,291.3474,33,70,1
292.39746,293.7722,75,58,1
292.39746,293.7722,65,49,1
293.7722,293.9514,74,45,1
293.7722,293.9514,70,38,1
294.49997,294.6967,74,40,1
294.49997,294.6967,70,33,1
295.28683,297.5001,74,45,1
295.28683,297.5001,70,38,1
301.066,302.44073,58,39,1
301.066,302.44073,48,33,1
302.44073,302.6199,57,36,1
302.44073,302.6199,53,30,1
303.1685,303.3652,57,32,1
303.1685,303.3652,53,24,1
303.95538,306.31604,60,36,1
303.95538,306.31604,53,30,1
307.10294,308.47766,75,58,1
307.10294,308.47766,65,49,1
308.47766,308.65683,74,45,1
308.47766,308.65683,70,38,1
309.2054,309.40213,74,48,1
309.2054,309.40213,70,39,1
319.264,320.68625,58,35,1
319.264,320.68625,48,29,1
320.68625,320.87268,57,32,1
320.68625,320.87268,53,27,1
321.43195,321.63574,57,28,1
321.43195,321.63574,53,21,1
322.24707,324.3951,60,32,1
322.24707,324.3951,53,27,1
325.10828,325.25385,53,42,1
325.25385,325.39938,54,47,1
325.70447,325.8478,51,43,1
325.8478,325.99118,54,49,1
326.28986,326.43393,53,33,1
326.43393,326.57797,54,37,1
326.8783,327.02457,51,33,1
327.02457,327.17087,54,39,1
327.57263,327.76407,69,32,1
327.57263,327.76407,60,27,1
328.3384,328.5422,69,28,1
328.3384,328.5422,60,21,1
329.15353,330.58838,72,32,1
329.15353,330.58838,69,27,1
330.58838,330.73392,41,35,1
330.73392,330.8795,42,40,1
331.17816,331.3237,39,36,1
331.3237,331.46927,42,40,1
331.77112,331.91898,41,31,1
331.91898,332.06525,42,35,1
332.36713,332.51416,39,30,1
332.51416,332.66116,42,35,1
333.06583,333.25726,57,28,1
333.06583,333.25726,48,24,1
333.8316,334.0354,57,25,1
333.8316,334.0354,48,18,1
334.64673,336.08157,60,28,1
334.64673,336.08157,57,24,1
336.08157,336.2294,53,47,1
336.2294,336.3772,54,52,1
336.6823,336.82858,51,42,1
336.82858,336.97485,54,47,1
337.27515,337.41995,41,48,1
337.41995,337.56473,42,52,1
337.86343,338.00824,39,43,1
338.00824,338.153,42,47,1
338.45172,338.59653,38,68,1
338.59653,338.7413,42,75,1
339.04318,339.191,39,61,1
339.191,339.3388,42,69,1
339.64392,339.79404,35,66,1
339.79404,339.94418,42,72,1
340.2585,340.41104,34,70,1
340.41104,340.5636,42,75,1
340.8992,341.05945,33,72,1
341.05945,341.21973,41,78,1
341.62436,341.74707,45,74,1
341.62436,341.74707,41,62,1
341.62436,341.74707,33,62,1
341.86975,341.99246,45,74,1
341.86975,341.99246,41,62,1
341.86975,341.99246,33,62,1
342.11514,342.24454,45,74,1
342.11514,342.24454,41,62,1
342.11514,342.24454,33,62,1
342.37393,342.55798,45,83,1
342.37393,342.55798,41,70,1
342.37393,342.55798,33,70,1
343.4782,343.63885,29,86,1
343.60672,343.76733,30,70,1
343.73523,343.8981,32,70,1
343.8637,344.0181,30,86,1
343.96686,344.12006,32,73,1
344.06927,344.22128,30,76,1
344.17084,344.3217,32,70,1
344.27167,344.4214,30,76,1
344.37167,344.51935,32,70,1
344.471,344.61444,30,80,1
344.56683,344.71106,32,76,1
344.66293,344.80524,30,83,1
344.75848,344.90045,32,73,1
344.8531,344.99313,30,83,1
344.94696,345.08832,32,70,1
345.04028,345.18286,30,80,1
345.13608,345.27658,32,73,1
345.22922,345.37143,30,76,1
345.32428,345.46616,32,70,1
345.41782,345.5616,30,83,1
345.51453,345.65634,32,72,1
345.6083,345.75034,30,77,1
345.7039,345.84485,32,69,1
345.79715,345.93927,30,74,1
345.89252,346.03278,32,63,1
345.98575,346.12775,30,72,1
346.08066,346.22244,32,61,1
346.17444,346.32,30,73,1
346.2713,346.4157,32,61,1
346.3679,346.5115,30,68,1
346.46356,346.6062,32,56,1
346.5597,346.7795,29,67,1
346.74567,346.98138,30,61,1
346.9488,347.14438,29,75,1
350.0134,350.3961,50,33,1
350.3961,350.77878,53,28,1
350.0134,350.77878,46,27,1
350.77878,351.15073,50,34,1
351.15073,351.53162,53,28,1
350.77878,351.53162,46,28,1
351.53162,351.90356,48,31,1
351.90356,352.28543,53,27,1
351.53162,352.28543,46,24,1
352.28543,352.66812,50,34,1
352.66812,353.05646,53,27,1
352.28543,353.05646,46,28,1
353.05646,353.43106,51,33,1
353.43106,353.8194,53,26,1
353.05646,353.8194,46,27,1
353.8194,354.19135,52,34,1
354.19135,354.3734,53,26,1
354.5555,354.73758,53,26,1
354.91968,355.10175,53,26,1
355.28384,355.4659,53,26,1
355.648,355.83008,53,26,1
353.8194,356.01218,46,28,1
356.01218,356.37888,51,33,1
356.37888,356.7736,50,27,1
356.01218,356.7736,46,27,1
356.7736,357.14554,51,31,1
357.14554,357.5228,53,25,1
356.7736,357.5228,41,26,1
357.5228,357.8947,51,29,1
357.8947,358.272,53,25,1
357.5228,358.272,41,26,1
358.272,358.6448,51,29,1
358.6448,359.0303,53,26,1
358.272,359.0303,41,26,1
359.0303,359.40225,50,33,1
359.40225,359.80298,48,25,1
359.0303,359.80298,41,27,1
359.80298,360.18024,50,34,1
360.18024,360.5575,53,30,1
360.5575,360.93475,51,33,1
360.93475,361.3236,55,28,1
361.3236,361.70355,50,29,1
361.70355,362.09476,53,30,1
359.80298,362.09476,46,28,1
362.09476,362.48947,50,39,1
362.48947,362.8949,58,34,1
362.09476,362.8949,46,28,1
363.2668,363.45148,58,32,1
363.63614,363.81824,58,33,1
364.0003,364.1824,58,30,1
364.36447,364.54654,58,34,1
364.72864,364.9107,58,31,1
362.8949,365.0928,55,36,1
362.8949,365.0928,46,30,1
365.0928,365.45697,53,33,1
365.45697,365.8453,51,31,1
365.0928,365.8453,46,27,1
365.8453,366.21725,53,33,1
366.21725,366.58917,50,28,1
365.8453,366.58917,46,27,1
366.58917,366.96643,48,33,1
366.96643,367.35196,53,28,1
366.58917,367.35196,41,27,1
367.35196,367.7319,50,33,1
367.7319,368.11182,53,30,1
367.35196,368.11182,41,27,1
368.11182,368.48642,51,32,1
368.48642,368.87482,53,29,1
368.11182,368.87482,41,27,1
368.87482,369.2603,50,32,1
369.2603,369.6574,53,29,1
369.6574,370.06284,50,32,1
370.06284,370.52435,46,29,1
368.87482,370.52435,41,27,1
370.52435,371.31906,41,32,1
371.75195,371.9126,29,27,1
371.88046,372.0411,30,22,1
372.00897,372.17184,32,22,1
372.13748,372.3089,30,27,1
372.24063,372.41074,32,23,1
372.34302,372.5118,30,24,1
372.44458,372.6121,32,22,1
372.5454,372.71167,30,24,1
372.64545,372.80893,32,22,1
372.74475,372.90433,30,25,1
372.84058,373.00076,32,24,1
372.9367,373.09482,30,26,1
373.03223,373.18982,32,23,1
373.12683,373.28244,30,26,1
373.2207,373.37814,32,22,1
373.31403,373.47202,30,25,1
373.40985,373.56616,32,23,1
373.50296,373.6606,30,24,1
373.59805,373.7562,32,22,1
373.69156,373.8509,30,26,1
373.78827,373.94617,32,23,1
373.88205,374.03955,30,25,1
373.97766,374.13455,32,23,1
374.0709,374.22852,30,25,1
374.16626,374.32248,32,22,1
374.2595,374.41702,30,25,1
374.35443,374.51236,32,22,1
374.4482,374.60974,30,27,1
374.54504,374.7054,32,23,1
374.64163,374.80133,30,26,1
374.7373,374.89545,32,22,1
374.83344,375.05438,29,22,1
375.0194,375.2618,30,18,1
375.2292,375.4248,29,23,1
377.57632,377.959,50,33,1
377.959,378.3417,53,28,1
377.57632,378.3417,46,27,1
378.3417,378.71365,50,34,1
378.71365,379.09454,53,28,1
378.3417,379.09454,46,28,1
379.09454,379.4665,48,31,1
379.4665,379.84836,53,27,1
379.09454,379.84836,46,24,1
379.84836,380.23105,50,34,1
380.23105,380.61942,53,27,1
379.84836,380.61942,46,28,1
380.61942,380.994,51,33,1
380.994,381.38232,53,26,1
380.61942,381.38232,46,27,1
381.38232,381.75427,52,34,1
381.75427,381.93634,53,26,1
382.11844,382.3005,53,26,1
382.4826,382.66467,53,26,1
382.84677,383.02884,53,26,1
383.21094,383.393,53,26,1
381.38232,383.5751,46,28,1
383.5751,383.9418,51,33,1
383.9418,384.33652,50,27,1
383.5751,384.33652,46,27,1
384.33652,384.70847,51,31,1
384.70847,385.08572,53,25,1
384.33652,385.08572,41,26,1
385.08572,385.45767,51,29,1
385.45767,385.83493,53,25,1
385.08572,385.83493,41,26,1
385.83493,386.20773,51,29,1
386.20773,386.59326,53,28,1
385.83493,386.59326,41,26,1
386.59326,386.96518,50,33,1
386.96518,387.3659,48,25,1
386.59326,387.3659,41,27,1
387.3659,387.74316,50,34,1
387.74316,388.12042,53,30,1
388.12042,388.49768,51,33,1
388.49768,388.88654,55,28,1
388.88654,389.26648,50,29,1
389.26648,389.65768,53,30,1
387.3659,389.65768,46,28,1
389.65768,390.06308,50,39,1
390.06308,390.51764,53,34,1
389.65768,390.51764,44,28,1
390.90723,391.0919,55,32,1
391.27655,391.45865,55,33,1
391.64072,391.8228,55,30,1
392.00488,392.18698,55,34,1
392.36905,392.55115,55,31,1
390.51764,392.73322,53,36,1
390.51764,392.73322,43,30,1
392.73322,393.09738,55,33,1
392.73322,393.09738,51,27,1
392.73322,393.09738,43,24,1
393.09738,393.46408,55,31,1
393.09738,393.46408,50,27,1
393.09738,393.46408,43,24,1
393.46408,393.8209,48,34,1
393.8209,394.1876,55,30,1
393.46408,394.1876,43,28,1
394.1876,394.55176,53,33,1
394.55176,394.94153,55,28,1
394.1876,394.94153,43,28,1
394.94153,395.31348,51,28,1
395.31348,395.73013,55,29,1
394.94153,395.73013,43,27,1
395.73013,396.12747,51,39,1
396.12747,396.55002,54,34,1
395.73013,396.55002,42,28,1
396.92194,397.1066,53,32,1
397.29126,397.47336,53,33,1
397.65543,397.83752,53,30,1
398.0196,398.2017,53,34,1
398.38376,398.56586,53,31,1
396.55002,398.74792,51,36,1
396.55002,398.74792,41,30,1
398.74792,399.1121,53,33,1
398.74792,399.1121,50,27,1
398.74792,399.1121,41,24,1
399.1121,399.48938,53,31,1
399.1121,399.48938,48,27,1
399.1121,399.48938,41,24,1
399.48938,399.85104,46,34,1
399.85104,400.2283,53,30,1
399.48938,400.2283,41,28,1
400.2283,400.59247,48,31,1
400.59247,400.98224,53,26,1
400.2283,400.98224,41,26,1
400.98224,401.35416,50,29,1
401.35416,401.74536,53,27,1
400.98224,401.74536,41,28,1
401.74536,402.13654,51,35,1
402.13654,402.56207,53,30,1
401.74536,402.56207,41,25,1
402.56207,404.1268,51,32,1
402.56207,404.1268,41,27,1
404.1268,404.518,50,28,1
404.1268,404.518,46,28,1
402.56207,404.518,53,32,1
404.90918,405.27335,34,30,1
405.6375,405.7919,34,30,1
405.74066,405.89383,35,26,1
405.84305,405.99506,34,27,1
405.9446,406.09546,35,25,1
406.04544,406.19516,34,27,1
406.14548,406.29312,35,25,1
406.24478,406.38824,34,28,1
406.34064,406.48486,35,27,1
406.43674,406.57904,34,29,1
406.5323,406.67426,35,26,1
406.6269,406.76694,34,29,1
406.72076,406.86212,35,25,1
406.81406,406.95663,34,28,1
406.90988,407.05035,35,26,1
407.003,407.1452,34,27,1
407.09808,407.23993,35,25,1
407.1916,407.3354,34,29,1
407.2883,407.43015,35,26,1
407.38208,407.5241,34,28,1
407.4777,407.61865,35,26,1
407.57095,407.71304,34,28,1
407.6663,407.80658,35,25,1
407.75955,407.90048,34,28,1
407.8544,407.99307,35,25,1
407.94308,408.17914,34,30,1
408.1449,408.38773,33,26,1
408.3525,408.6028,32,30,1
408.56656,408.82477,31,26,1
408.78717,409.01276,30,30,1
409.01276,409.19794,49,26,1
409.19794,409.38312,54,26,1
409.38312,409.5683,49,26,1
409.5683,409.75122,42,31,1
409.75122,409.93304,49,26,1
409.93304,410.11377,53,26,1
410.11377,410.2934,49,25,1
410.2934,410.472,42,30,1
410.472,410.65128,49,27,1
410.65128,410.83127,54,27,1
410.83127,411.012,49,27,1
411.012,411.19382,42,30,1
411.19382,411.3756,49,27,1
411.3756,411.55743,56,27,1
411.55743,411.73926,49,27,1
411.73926,411.91876,42,33,1
411.91876,412.09824,49,27,1
412.09824,412.27774,58,27,1
412.27774,412.45682,49,27,1
412.45682,412.63507,42,31,1
412.63507,412.81332,49,27,1
412.81332,412.9903,58,27,1
412.9903,413.1673,49,27,1
413.1673,413.34314,42,30,1
413.34314,413.51895,49,27,1
413.51895,413.69595,58,27,1
413.69595,413.87292,49,27,1
413.87292,414.05118,42,31,1
414.05118,414.22943,49,25,1
414.22943,414.40768,54,28,1
414.40768,414.58594,49,27,1
414.58594,414.7642,42,33,1
414.7642,414.94244,51,27,1
414.94244,415.1207,59,27,1
415.1207,415.29895,51,27,1
415.29895,415.4748,42,32,1
415.4748,415.65063,51,27,1
415.65063,415.82645,59,27,1
415.82645,416.0023,51,27,1
416.0023,416.1781,42,32,1
416.1781,416.35394,51,27,1
416.35394,416.52975,59,27,1
416.52975,416.7056,51,27,1
416.7056,416.8943,42,33,1
416.8943,417.08295,51,27,1
417.08295,417.26245,59,31,1
417.26245,417.44193,51,27,1
417.44193,417.62143,42,33,1
417.62143,417.8009,49,28,1
417.8009,417.9804,58,28,1
417.9804,418.15988,49,28,1
418.15988,418.3394,42,33,1
418.3394,418.51804,49,27,1
418.51804,418.6959,58,28,1
418.6959,418.8725,49,27,1
418.8725,419.0483,42,33,1
419.0483,419.22415,49,28,1
419.22415,419.40076,58,29,1
419.40076,419.57773,49,29,1
419.57773,419.75598,42,33,1
419.75598,419.93423,49,27,1
419.93423,420.1125,54,31,1
420.1125,420.29074,49,27,1
420.29074,420.46658,42,33,1
420.46658,420.64243,51,28,1
420.64243,420.81824,59,28,1
420.81824,420.99408,51,28,1
420.99408,421.1699,42,33,1
421.1699,421.34573,51,29,1
421.34573,421.52155,59,29,1
421.52155,421.6974,51,29,1
421.6974,421.87564,42,33,1
421.87564,422.0539,49,28,1
422.0539,422.23215,53,28,1
422.23215,422.4104,49,27,1
422.4104,422.58865,42,31,1
422.58865,422.7669,49,27,1
422.7669,422.94516,56,28,1
422.94516,423.1234,49,28,1
423.1234,423.3029,42,33,1
423.3029,423.4824,49,28,1
423.4824,423.6619,58,28,1
423.6619,423.84137,49,28,1
423.84137,424.02087,42,33,1
424.02087,424.19952,49,27,1
424.19952,424.37735,58,28,1
424.37735,424.55396,49,27,1
424.55396,424.7298,42,33,1
424.7298,424.9056,49,28,1
424.9056,425.0822,58,29,1
425.0822,425.25922,49,29,1
425.25922,425.43747,42,33,1
425.43747,425.61572,49,27,1
425.61572,425.79398,58,31,1
425.79398,425.97223,49,27,1
425.97223,426.14807,42,33,1
426.14807,426.32388,51,28,1
426.32388,426.49973,54,28,1
426.49973,426.67554,51,28,1
426.67554,426.85138,42,33,1
426.85138,427.0272,51,29,1
427.0272,427.20303,59,29,1
427.20303,427.37888,51,29,1
427.37888,427.55713,42,33,1
427.55713,427.73538,49,28,1
427.73538,427.91364,53,28,1
427.91364,428.0919,49,27,1
428.0919,428.27014,42,31,1
428.27014,428.4484,49,27,1
428.4484,428.62665,56,28,1
428.62665,428.8049,49,28,1
428.8049,428.88776,42,33,1
428.97064,429.13638,58,28,1
429.13638,429.30682,54,28,1
429.30682,429.4773,58,28,1
429.4773,429.64304,54,33,1
429.64304,429.80878,58,29,1
429.80878,429.97827,54,29,1
429.97827,430.14777,58,29,1
430.14777,430.2284,42,33,1
430.30905,430.47034,58,28,1
430.47034,430.6352,54,28,1
430.6352,430.80002,58,27,1
430.80002,430.9614,54,31,1
430.9614,431.1228,58,27,1
431.1228,431.2876,54,28,1
431.2876,431.45236,58,28,1
431.45236,431.53305,42,33,1
431.61377,431.77515,59,28,1
431.77515,431.9382,54,28,1
431.9382,432.10123,59,28,1
432.10123,432.2608,54,33,1
432.2608,432.42038,59,29,1
432.42038,432.58255,54,29,1
432.58255,432.74472,59,29,1
432.74472,432.82297,42,33,1
432.9012,433.0577,59,28,1
433.0577,433.21786,54,28,1
433.21786,433.37805,59,27,1
433.37805,433.53455,54,31,1
433.53455,433.69104,59,27,1
433.69104,433.85413,54,28,1
433.85413,434.01718,59,28,1
434.01718,434.0979,42,33,1
434.1786,434.33997,58,28,1
434.33997,434.49918,54,28,1
434.49918,434.65836,58,28,1
434.65836,434.80627,54,33,1
434.80627,434.9542,58,29,1
434.9542,435.10715,54,29,1
435.10715,435.2601,58,29,1
435.2601,435.33408,42,33,1
435.40805,435.55597,58,28,1
435.55597,435.70892,54,28,1
435.70892,435.86188,58,27,1
435.86188,436.01837,54,31,1
436.01837,436.17487,58,27,1
436.17487,436.3341,54,28,1
436.3341,436.49338,58,28,1
436.49338,436.5707,42,33,1
436.64807,436.80276,59,28,1
436.80276,436.95316,54,28,1
436.95316,437.10355,59,28,1
437.10355,437.25394,54,33,1
437.25394,437.40433,59,29,1
437.40433,437.55905,54,29,1
437.55905,437.71375,59,29,1
437.71375,437.79022,42,33,1
437.8667,438.01965,59,28,1
438.01965,438.17615,54,28,1
438.17615,438.33264,59,27,1
438.33264,438.49402,54,31,1
438.49402,438.65543,59,27,1
438.65543,438.82498,54,28,1
438.82498,438.99454,59,28,1
438.99454,439.0732,42,33,1
439.15192,439.30933,58,28,1
439.30933,439.46313,54,28,1
439.46313,439.61694,58,28,1
439.61694,439.76733,54,33,1
439.76733,439.91772,58,29,1
439.91772,440.0733,54,29,1
440.0733,440.22888,58,29,1
440.22888,440.38184,54,33,1
440.38184,440.53476,58,28,1
440.53476,440.69125,54,28,1
440.69125,440.84775,58,27,1
440.84775,441.00607,54,31,1
441.00607,441.1644,58,27,1
441.1644,441.3265,54,28,1
441.3265,441.48862,58,28,1
441.48862,441.56775,42,33,1
441.6469,441.80524,58,28,1
441.80524,441.9608,54,28,1
441.9608,442.11636,58,28,1
442.11636,442.26846,54,33,1
442.26846,442.42053,58,29,1
442.42053,442.5761,54,29,1
442.5761,442.73166,58,29,1
442.73166,442.8829,54,33,1
442.8829,443.03412,58,28,1
443.03412,443.19153,54,28,1
443.19153,443.3489,58,27,1
443.3489,443.50186,54,31,1
443.50186,443.65482,58,27,1
443.65482,443.81314,54,28,1
443.81314,443.97144,58,28,1
443.97144,444.12885,54,33,1
444.12885,444.28622,58,28,1
444.28622,444.4418,54,28,1
444.4418,444.59738,58,28,1
444.59738,444.75296,54,33,1
444.75296,444.9085,58,29,1
444.9085,445.0677,54,29,1
445.0677,445.2269,58,30,1
445.2269,445.3872,54,34,1
445.3872,445.54752,58,29,1
445.54752,445.7111,54,29,1
445.7111,445.8747,58,28,1
445.8747,446.03607,54,33,1
446.03607,446.19748,58,29,1
446.19748,446.36227,54,30,1
446.36227,446.52704,58,30,1
446.52704,446.75854,42,34,1
446.75854,446.9785,54,31,1
446.99005,447.21,42,25,1
446.99005,447.21,54,31,1
447.22156,447.4415,54,35,1
447.22156,447.4415,42,29,1
447.45306,447.673,54,31,1
447.45306,447.673,42,25,1
447.68457,447.9045,54,33,1
447.68457,447.9045,42,27,1
447.9161,448.1361,54,37,1
447.9161,448.1361,42,31,1
448.14767,448.36664,54,35,1
448.14767,448.36664,42,29,1
448.37814,448.5957,54,35,1
448.37814,448.5957,42,29,1
448.60712,448.8229,54,38,1
448.60712,448.8229,42,32,1
448.60712,448.8229,49,32,1
448.83426,449.04868,54,35,1
448.83426,449.04868,42,28,1
448.83426,449.04868,49,32,1
449.05997,449.27267,54,35,1
449.05997,449.27267,42,29,1
449.05997,449.27267,49,33,1
449.2838,449.49548,54,40,1
449.2838,449.49548,42,33,1
449.2838,449.49548,49,33,1
449.50665,449.71832,54,36,1
449.50665,449.71832,42,30,1
449.50665,449.71832,49,34,1
449.72946,449.94247,54,37,1
449.72946,449.94247,42,30,1
449.72946,449.94247,49,35,1
449.95367,450.1667,54,44,1
449.95367,450.1667,42,36,1
449.95367,450.1667,49,36,1
450.1779,450.39227,54,40,1
450.1779,450.39227,42,33,1
450.1779,450.39227,49,37,1
450.40356,450.61826,54,42,1
450.40356,450.61826,42,34,1
450.40356,450.61826,49,39,1
450.6296,450.84607,54,48,1
450.6296,450.84607,42,40,1
450.6296,450.84607,49,40,1
450.85748,451.07745,54,44,1
450.85748,451.07745,42,37,1
450.85748,451.07745,49,41,1
451.0891,451.31308,54,46,1
451.0891,451.31308,42,37,1
451.0891,451.31308,49,43,1
451.32498,451.55722,50,48,1
451.32498,451.55722,41,48,1
451.32498,451.55722,53,57,1
451.56946,451.8017,50,48,1
451.56946,451.8017,41,42,1
451.56946,451.8017,53,52,1
451.81393,452.04617,50,48,1
451.81393,452.04617,41,42,1
451.81393,452.04617,53,52,1
452.05838,452.30154,50,63,1
452.30154,452.54648,53,58,1
452.54648,452.6716,53,58,1
452.05838,452.7967,41,63,1
452.7967,453.03986,48,62,1
453.03986,453.28748,53,58,1
453.28748,453.41348,53,58,1
452.7967,453.53592,41,62,1
453.53592,453.78613,50,60,1
453.78613,454.03818,53,58,1
454.03818,454.16513,53,58,1
453.53592,454.29205,41,60,1
454.29205,454.5369,51,61,1
454.5369,454.79266,53,58,1
454.79266,454.926,53,58,1
454.29205,455.05933,41,61,1
455.05933,455.3025,52,60,1
455.3025,455.54315,53,58,1
455.54315,455.6622,53,58,1
455.78128,456.01938,53,60,1
456.01938,456.2575,53,58,1
456.2575,456.3766,53,58,1
456.49564,456.72186,53,62,1
456.73376,456.96,53,58,1
456.9719,457.1981,53,58,1
455.05933,457.21002,41,60,1
457.21002,457.4498,51,61,1
457.4498,457.6948,53,53,1
457.6948,457.945,50,53,1
457.21002,457.945,41,53,1
457.945,458.18817,51,60,1
458.18817,458.42075,53,55,1
458.43307,458.66742,53,55,1
457.945,458.67975,41,60,1
458.67975,458.9229,51,60,1
458.9229,459.1555,53,56,1
459.16782,459.40216,53,56,1
458.67975,459.4145,41,60,1
459.4145,459.65854,51,62,1
459.65854,459.89352,53,58,1
459.90613,460.1456,53,58,1
459.4145,460.1582,41,62,1
460.1582,460.40134,50,62,1
460.40134,460.65717,53,59,1
460.65717,460.92017,48,59,1
460.1582,460.92017,41,62,1
460.92017,461.16684,50,62,1
461.16684,461.41196,53,56,1
461.4135,461.65863,53,56,1
461.6602,461.91348,51,60,1
461.91348,462.1658,55,56,1
462.1674,462.42157,55,56,1
462.4232,462.67157,50,60,1
462.67157,462.92206,53,56,1
462.92365,463.17783,53,57,1
460.92017,463.17944,46,62,1
463.17944,463.44788,50,59,1
463.44788,463.73288,53,54,1
463.7348,464.03824,53,54,1
463.17944,464.04013,44,59,1
464.04013,464.2833,53,59,1
464.2833,464.52408,55,53,1
464.5256,464.7655,55,53,1
464.76703,465.00516,53,56,1
465.00516,465.24408,55,53,1
465.2456,465.48685,55,53,1
465.48837,465.72623,53,57,1
465.72623,465.96262,55,51,1
465.9641,466.20197,55,51,1
464.04013,466.20197,43,59,1
466.20197,466.43985,51,56,1
466.43985,466.681,55,51,1
466.681,466.92548,50,51,1
466.20197,466.92548,43,56,1
466.92548,467.15878,48,54,1
467.15878,467.3938,55,50,1
467.3953,467.63358,55,50,1
466.92548,467.6351,43,54,1
467.6351,467.8732,53,54,1
467.8732,468.1172,55,50,1
468.11877,468.37296,55,50,1
467.6351,468.37457,43,54,1
468.37457,468.61774,51,55,1
468.61774,468.8656,55,50,1
468.8672,469.1214,55,50,1
468.37457,469.123,43,55,1
469.123,469.38104,51,57,1
469.38104,469.6482,54,52,1
469.64993,469.92792,54,52,1
469.123,469.92966,42,57,1
469.92966,470.17282,51,58,1
470.17282,470.40305,53,52,1
470.41513,470.64447,53,52,1
470.65656,470.89468,51,56,1
470.89468,471.12088,53,52,1
471.13278,471.359,53,53,1
471.3709,471.60904,51,57,1
471.60904,471.83527,53,52,1
471.84717,472.0734,53,52,1
469.92966,472.0853,41,58,1
472.0853,472.32343,50,57,1
472.32343,472.5658,53,54,1
472.5658,472.81247,48,51,1
472.0853,472.81247,41,57,1
472.81247,473.04898,46,58,1
473.04898,473.27823,53,53,1
473.29056,473.5249,53,53,1
472.81247,473.53723,41,58,1
473.53723,473.77536,48,58,1
473.77536,474.00812,53,52,1
474.0209,474.26392,53,52,1
473.53723,474.2767,41,58,1
474.2767,474.51987,50,56,1
474.51987,474.75653,53,52,1
474.76932,475.01233,53,52,1
474.2767,475.02512,41,56,1
475.02512,475.2809,51,56,1
475.2809,475.5265,53,52,1
475.53958,475.78802,53,52,1
475.02512,475.80112,41,56,1
476.0569,476.2948,53,50,1
476.30704,476.53928,53,50,1
476.55148,476.78375,53,50,1
476.79596,477.0282,53,50,1
477.04044,477.27267,53,49,1
475.80112,477.2849,51,51,1
475.80112,477.2849,41,51,1
477.2849,477.51715,53,49,1
477.52936,477.76163,53,49,1
477.77383,478.00607,53,49,1
478.0183,478.25055,53,48,1
478.2628,478.49503,53,48,1
478.50723,478.7395,53,48,1
479.0125,479.26514,53,42,1
479.26514,479.49738,53,39,1
479.5096,479.74185,53,38,1
479.75406,479.98633,53,38,1
479.99854,480.23077,53,37,1
480.243,480.47525,53,37,1
480.4875,480.71973,53,36,1
480.73196,480.9642,53,35,1
480.9764,481.22058,53,36,1
481.23343,481.47757,53,40,1
481.49042,481.7346,53,44,1
478.7517,481.74744,50,48,1
478.7517,481.74744,41,45,1
481.74744,482.00443,53,50,1
482.00443,482.2445,44,42,1
482.2569,482.49246,44,42,1
482.50485,482.74042,44,42,1
482.7528,482.98837,44,42,1
483.00076,483.23633,44,42,1
483.24872,483.48428,44,42,1
483.49667,483.73224,44,42,1
483.74463,483.98093,44,42,1
483.9935,484.23465,44,42,1
484.24747,484.49332,44,42,1
484.50638,484.7571,44,42,1
484.77042,485.03888,44,46,1
485.03888,485.2847,37,46,1
485.2971,485.53265,37,46,1
485.54504,485.7806,37,53,1
485.793,486.02856,37,53,1
486.04095,486.27652,37,53,1
486.2889,486.52448,37,53,1
486.53687,486.77243,37,52,1
486.78482,487.0234,37,52,1
487.03656,487.23526,37,65,1
487.23526,487.43796,35,59,1
487.43796,487.64346,33,61,1
487.64346,487.85324,32,59,1
487.85324,488.066,30,65,1
490.09055,490.82675,61,42,1
490.09055,490.82675,54,42,1
490.82675,491.91174,61,42,1
491.91174,492.2798,59,38,1
492.2798,492.6491,57,41,1
490.82675,492.6491,54,42,1
493.01843,493.74677,57,38,1
493.01843,493.74677,54,38,1
493.74677,494.83926,57,41,1
494.83926,495.2086,56,41,1
493.74677,495.2086,54,41,1
495.2086,495.5779,54,44,1
495.94724,496.68585,54,34,1
496.68585,497.39008,54,41,1
497.39008,498.09753,56,42,1
498.09753,498.78323,57,47,1
498.78323,499.49332,59,37,1
498.78323,499.49332,52,31,1
499.49332,500.18695,61,47,1
499.49332,500.18695,57,39,1
500.18695,500.90308,61,45,1
500.18695,500.90308,56,38,1
500.90308,501.64172,61,46,1
500.90308,501.64172,54,38,1
501.64172,502.38037,62,39,1
501.64172,502.38037,52,33,1
502.38037,503.85767,62,39,1
502.38037,503.85767,52,33,1
503.85767,504.5963,61,37,1
503.85767,504.5963,53,30,1
504.5963,505.33496,61,36,1
504.5963,505.33496,54,30,1
505.33496,506.41995,61,42,1
506.41995,506.788,59,38,1
506.788,507.15732,57,41,1
505.33496,507.15732,54,32,1
507.52664,508.25494,57,38,1
507.52664,508.25494,54,32,1
508.25494,509.34744,57,41,1
509.34744,509.71677,56,41,1
508.25494,509.71677,54,34,1
509.71677,510.0861,54,44,1
510.4554,511.19406,54,34,1
511.19406,511.89993,54,41,1
511.89993,512.60406,56,42,1
512.60406,513.2937,57,47,1
513.2937,513.9996,59,37,1
513.2937,513.9996,52,31,1
513.9996,514.69324,61,47,1
513.9996,514.69324,57,39,1
514.69324,515.40936,61,45,1
514.69324,515.40936,56,38,1
515.40936,516.148,61,46,1
515.40936,516.148,54,38,1
516.148,516.88666,62,39,1
516.148,516.88666,52,33,1
516.88666,518.36395,62,39,1
516.88666,518.36395,52,33,1
518.36395,518.61017,61,37,1
518.36395,518.61017,57,37,1
518.61017,518.84406,64,29,1
518.8564,519.0903,64,29,1
519.1026,519.33307,64,33,1
519.3452,519.5757,64,29,1
519.58777,519.8166,64,29,1
519.8283,519.99646,58,33,1
519.99646,520.1646,64,27,1
520.1646,520.3316,61,27,1
520.3316,520.4986,64,27,1
520.4986,520.6645,58,33,1
520.6645,520.8304,64,28,1
520.8304,520.9962,61,28,1
520.9962,521.1621,64,29,1
521.1621,521.328,58,33,1
521.328,521.4939,64,29,1
521.4939,521.6597,61,29,1
521.6597,521.8256,64,29,1
521.8256,521.9926,57,33,1
521.9926,522.15967,64,29,1
522.15967,522.32666,61,29,1
522.32666,522.4937,64,29,1
522.4937,522.65845,55,33,1
522.65845,522.8231,64,27,1
522.8231,522.98785,61,27,1
522.98785,523.1526,64,27,1
523.1526,523.3173,55,33,1
523.3173,523.48206,64,28,1
523.48206,523.64905,61,28,1
523.64905,523.8161,64,29,1
523.8161,523.9831,55,33,1
523.9831,524.15015,64,29,1
524.15015,524.31714,61,29,1
524.31714,524.4842,64,29,1
524.4842,524.64716,54,33,1
524.64716,524.8102,64,29,1
524.8102,524.9732,61,29,1
524.9732,525.13525,64,29,1
525.13525,525.29553,54,33,1
525.29553,525.4549,64,28,1
525.4549,525.61334,61,28,1
525.61334,525.771,64,28,1
525.771,525.928,54,34,1
525.928,526.08417,62,28,1
526.08417,526.2395,59,28,1
526.2395,526.394,62,29,1
526.394,526.54785,54,35,1
526.54785,526.701,61,29,1
526.701,526.8532,58,29,1
526.8532,527.0047,61,29,1
527.0047,527.15564,54,36,1
527.15564,527.3071,62,31,1
527.3071,527.4591,59,31,1
527.4591,527.61163,62,31,1
527.61163,527.765,54,37,1
527.765,527.9184,64,31,1
527.9184,528.0717,61,32,1
528.0717,528.2251,64,32,1
528.2251,528.3801,55,37,1
528.3801,528.53516,64,31,1
528.53516,528.6945,61,31,1
528.6945,528.8539,64,31,1
528.8539,529.0164,56,38,1
529.0164,529.17896,64,32,1
529.17896,529.3426,61,32,1
529.3426,529.50653,64,33,1
529.50653,529.6736,57,39,1
529.6736,529.8406,64,32,1
529.8406,530.0076,61,34,1
530.0076,530.1746,64,34,1
530.1746,530.3358,57,33,1
530.3358,530.49695,64,27,1
530.49695,530.65814,61,27,1
530.65814,530.81934,64,27,1
530.81934,530.96783,58,33,1
530.96783,531.11633,64,28,1
531.11633,531.26483,61,28,1
531.26483,531.4134,64,29,1
531.4134,531.5664,58,33,1
531.5664,531.7195,64,29,1
531.7195,531.87256,61,29,1
531.87256,532.02563,64,29,1
532.02563,532.18994,57,33,1
532.18994,532.35425,64,29,1
532.35425,532.5186,61,29,1
532.5186,532.6829,64,29,1
532.6829,532.8432,55,33,1
532.8432,533.0034,64,27,1
533.0034,533.1637,61,27,1
533.1637,533.324,64,27,1
533.324,533.4725,55,33,1
533.4725,533.621,64,28,1
533.621,533.76953,61,28,1
533.76953,533.918,64,29,1
533.918,534.0711,55,33,1
534.0711,534.2241,64,29,1
534.2241,534.3772,61,29,1
534.3772,534.5303,64,31,1
534.5303,534.6925,54,36,1
534.6925,534.85474,64,31,1
534.85474,535.017,61,31,1
535.017,535.17926,64,31,1
535.17926,535.336,54,36,1
535.336,535.4921,64,30,1
535.4921,535.64777,61,30,1
535.64777,535.8025,64,30,1
535.8025,535.95667,54,37,1
535.95667,536.11005,62,30,1
536.11005,536.2626,59,30,1
536.2626,536.4146,62,31,1
536.4146,536.5658,54,38,1
536.5658,536.7165,61,31,1
536.7165,536.86633,58,31,1
536.86633,537.0157,61,31,1
537.0157,537.16425,54,39,1
537.16425,537.3121,62,34,1
537.3121,537.45935,59,34,1
537.45935,537.6059,62,34,1
537.6059,537.7527,54,40,1
537.7527,537.9002,64,34,1
537.9002,538.0488,61,35,1
538.0488,538.1984,64,35,1
538.1984,538.3488,55,40,1
538.3488,538.5,64,34,1
538.5,538.6523,61,34,1
538.6523,538.80536,64,34,1
538.80536,538.9621,56,41,1
538.9621,539.11884,64,35,1
539.11884,539.2756,61,35,1
539.2756,539.43225,64,36,1
539.43225,539.59344,57,42,1
539.59344,539.7546,64,35,1
539.7546,539.9158,61,37,1
539.9158,540.07697,64,37,1
540.07697,540.239,57,36,1
540.239,540.4011,64,29,1
540.4011,540.5632,61,29,1
540.5632,540.7252,64,29,1
540.7252,540.8837,58,36,1
540.8837,541.0422,64,30,1
541.0422,541.2007,61,30,1
541.2007,541.35913,64,31,1
541.35913,541.51764,57,36,1
541.51764,541.6761,64,31,1
541.6761,541.8346,61,31,1
541.8346,541.99304,64,31,1
541.99304,542.15533,55,36,1
542.15533,542.31757,64,31,1
542.31757,542.4798,61,31,1
542.4798,542.6395,64,31,1
542.6395,542.79456,53,36,1
542.79456,542.9487,62,29,1
542.9487,543.1029,57,29,1
543.1029,543.26373,62,29,1
543.26373,543.41876,52,36,1
543.41876,543.5738,62,30,1
543.5738,543.7288,55,30,1
543.7288,543.88385,62,31,1
543.88385,544.0415,50,36,1
544.0415,544.1991,62,31,1
544.1991,544.3567,53,31,1
544.3567,544.51434,62,31,1
544.51434,544.67194,53,36,1
544.67194,544.8295,62,31,1
544.8295,544.9872,57,31,1
544.9872,545.1448,62,31,1
545.1448,545.30597,57,36,1
545.30597,545.4672,64,29,1
545.4672,545.6284,61,29,1
545.6284,545.7897,64,29,1
545.7897,545.94885,58,36,1
545.94885,546.10803,64,30,1
546.10803,546.2673,61,30,1
546.2673,546.42645,64,31,1
546.42645,546.58563,57,36,1
546.58563,546.7449,64,31,1
546.7449,546.90405,61,31,1
546.90405,547.0633,64,31,1
547.0633,547.2303,55,37,1
547.2303,547.3973,64,32,1
547.3973,547.56433,61,32,1
547.56433,547.7313,64,32,1
547.7313,547.89087,53,37,1
547.89087,548.0501,65,31,1
548.0501,548.2093,62,32,1
548.2093,548.3675,65,32,1
548.3675,548.5257,53,39,1
548.5257,548.6833,65,34,1
548.6833,548.8405,62,34,1
548.8405,548.99744,65,35,1
548.99744,549.1537,53,42,1
549.1537,549.31,65,37,1
549.31,549.46625,62,37,1
549.46625,549.6225,65,37,1
549.6225,549.77875,53,44,1
549.77875,549.93506,67,39,1
549.93506,550.0913,63,40,1
550.0913,550.24756,67,40,1
550.24756,550.4039,53,48,1
550.4039,550.5601,65,38,1
550.5601,550.7164,62,38,1
550.7164,550.8726,65,38,1
550.8726,551.02893,53,47,1
551.02893,551.1852,63,39,1
551.1852,551.34143,60,39,1
551.34143,551.4977,63,39,1
551.4977,551.654,53,42,1
551.654,551.81024,62,36,1
551.81024,551.9665,58,36,1
551.9665,552.12274,62,37,1
552.12274,552.27905,53,42,1
552.27905,552.4353,60,35,1
552.4353,552.59155,56,35,1
552.59155,552.74786,60,35,1
552.74786,552.9041,53,35,1
552.9041,553.06036,59,29,1
553.06036,553.2166,56,29,1
553.2166,553.3732,59,29,1
553.3732,553.53046,53,34,1
553.53046,553.68774,59,29,1
553.68774,553.845,56,29,1
553.845,554.00287,59,29,1
554.00287,554.1611,53,33,1
554.1611,554.3193,59,29,1
554.3193,554.4775,56,29,1
554.4775,554.6367,59,29,1
554.6367,554.7959,53,33,1
554.7959,554.9551,59,29,1
554.9551,555.1146,56,29,1
555.1146,555.27484,59,29,1
555.27484,555.43506,53,31,1
555.43506,555.5953,59,27,1
555.5953,555.75543,56,27,1
555.75543,555.91565,59,27,1
555.91565,556.07587,53,32,1
556.07587,556.2361,59,27,1
556.2361,556.3963,56,27,1
556.3963,556.55646,59,27,1
556.55646,556.7167,52,32,1
556.7167,556.8769,59,26,1
556.8769,557.0371,56,26,1
557.0371,557.1973,59,26,1
557.1973,557.3575,50,31,1
557.3575,557.5177,59,26,1
557.5177,557.6779,56,26,1
557.6779,557.83813,59,26,1
557.83813,557.9923,48,31,1
557.9923,558.1465,60,24,1
558.1465,558.3007,57,24,1
558.3007,558.4549,60,24,1
558.4549,558.6141,48,30,1
558.6141,558.7733,62,25,1
558.7733,558.9325,58,25,1
558.9325,559.09174,62,26,1
559.09174,559.2509,48,29,1
559.2509,559.4101,60,26,1
559.4101,559.56934,57,26,1
559.56934,559.7285,60,26,1
559.7285,559.87244,48,30,1
559.87244,560.0114,62,26,1
560.0114,560.1482,58,26,1
560.1482,560.3084,62,26,1
560.3084,560.4635,48,31,1
560.4635,560.6185,60,24,1
560.6185,560.77356,57,24,1
560.77356,560.9286,60,24,1
560.9286,561.08777,48,30,1
561.08777,561.247,62,25,1
561.247,561.4062,58,25,1
561.4062,561.56537,62,26,1
561.56537,561.7246,48,29,1
561.7246,561.8838,60,26,1
561.8838,562.043,57,26,1
562.043,562.2022,60,26,1
562.2022,562.36444,48,30,1
562.36444,562.5267,62,26,1
562.5267,562.68896,58,26,1
562.68896,562.8512,62,26,1
562.8512,563.01245,48,31,1
563.01245,563.17365,60,24,1
563.17365,563.33484,57,24,1
563.33484,563.4961,60,24,1
563.4961,563.6553,48,30,1
563.6553,563.8145,62,26,1
563.8145,563.9737,58,26,1
563.9737,564.1329,62,27,1
564.1329,564.2921,48,30,1
564.2921,564.4513,60,27,1
564.4513,564.6105,57,28,1
564.6105,564.7697,60,28,1
564.7697,564.91364,48,33,1
564.91364,565.0518,62,28,1
565.0518,565.18805,58,28,1
565.18805,565.3498,62,28,1
565.3498,565.5048,48,34,1
565.5048,565.65985,60,26,1
565.65985,565.8149,57,26,1
565.8149,565.9699,60,26,1
565.9699,566.12915,48,33,1
566.12915,566.2883,62,27,1
566.2883,566.4475,58,27,1
566.4475,566.60675,62,28,1
566.60675,566.7659,48,31,1
566.7659,566.9251,60,28,1
566.9251,567.08435,57,28,1
567.08435,567.2435,60,28,1
567.2435,567.4068,48,36,1
567.4068,567.5701,62,30,1
567.5701,567.7334,58,30,1
567.7334,567.8967,62,30,1
567.8967,568.0559,48,42,1
568.0559,568.2151,60,35,1
568.2151,568.3743,57,35,1
568.3743,568.5335,60,35,1
568.5335,568.69073,48,44,1
568.69073,568.848,62,37,1
568.848,569.00525,58,38,1
569.00525,569.16254,62,37,1
569.16254,569.31976,48,47,1
569.31976,569.477,60,37,1
569.477,569.6343,57,38,1
569.6343,569.7915,60,38,1
569.7915,569.9569,48,49,1
569.9569,570.1223,60,40,1
570.1223,570.2878,58,40,1
570.2878,570.4532,60,40,1
570.4532,573.05817,58,41,1
570.4532,573.05817,60,49,1
570.4532,573.05817,48,41,1
573.05817,573.6914,60,38,1
573.05817,573.6914,57,32,1
573.05817,573.6914,53,32,1
574.29517,574.60187,60,35,1
574.29517,574.60187,57,29,1
574.29517,574.60187,53,29,1
574.90857,575.2238,63,35,1
574.90857,575.2238,60,29,1
574.90857,575.2238,53,29,1
575.53906,576.1667,62,38,1
575.53906,576.1667,58,32,1
575.53906,576.1667,53,32,1
576.77356,577.077,62,35,1
576.77356,577.077,58,29,1
576.77356,577.077,53,29,1
577.3805,577.69055,65,35,1
577.3805,577.69055,62,29,1
577.3805,577.69055,53,29,1
578.0007,578.6301,60,38,1
578.0007,578.6301,57,32,1
578.0007,578.6301,53,32,1
579.23706,579.5405,57,35,1
579.23706,579.5405,53,29,1
579.844,580.1507,60,35,1
579.844,580.1507,57,29,1
580.4574,580.7641,60,35,1
580.4574,580.7641,57,29,1
580.4574,580.7641,48,29,1
581.07086,581.38257,58,28,1
581.07086,581.38257,62,34,1
581.07086,581.38257,48,28,1
581.69434,582.0061,60,33,1
581.69434,582.0061,57,28,1
581.69434,582.0061,48,28,1
582.3179,582.6296,58,34,1
582.3179,582.6296,55,28,1
582.3179,582.6296,48,28,1
582.94135,583.2531,57,35,1
582.94135,583.2531,54,29,1
582.94135,583.2531,48,29,1
583.5649,583.8766,54,28,1
583.5649,583.8766,57,35,1
583.5649,583.8766,48,28,1
584.18835,584.5001,57,35,1
584.18835,584.5001,54,29,1
584.18835,584.5001,48,29,1
584.8119,585.1236,57,37,1
584.8119,585.1236,54,31,1
584.8119,585.1236,48,31,1
585.43536,585.74744,58,40,1
585.43536,585.74744,53,33,1
585.43536,585.74744,46,33,1
586.06177,586.3784,53,31,1
586.06177,586.3784,58,38,1
586.06177,586.3784,46,31,1
586.69775,587.0195,57,37,1
586.69775,587.0195,53,31,1
586.69775,587.0195,48,31,1
587.34393,587.67084,58,38,1
587.34393,587.67084,55,31,1
587.34393,587.67084,48,31,1
588.0007,588.22095,53,47,1
588.22095,588.4308,60,44,1
588.4308,588.5319,57,44,1
588.63306,588.73425,53,47,1
588.8354,588.9365,48,43,1
589.0377,589.13885,45,41,1
589.24,589.3417,41,45,1
589.4434,589.5451,45,41,1
589.6468,589.7485,48,41,1
589.8502,589.9544,45,47,1
590.0583,590.16223,48,45,1
590.2662,590.37006,53,45,1
590.474,590.6877,53,47,1
590.6877,590.8956,62,44,1
590.8956,590.9968,58,44,1
591.09796,591.1991,53,47,1
591.30023,591.4014,50,43,1
591.50256,591.6037,46,41,1
591.7049,591.8071,41,45,1
591.90936,592.0116,46,41,1
592.11383,592.21606,50,41,1
592.3183,592.42224,46,47,1
592.5261,592.63007,50,45,1
592.73395,592.8379,53,45,1
592.94183,593.1592,53,47,1
593.1592,593.36896,65,44,1
593.36896,593.47015,60,44,1
593.5713,593.6724,57,47,1
593.7736,593.87476,53,43,1
593.9759,594.077,48,41,1
594.1782,594.281,45,45,1
594.3838,594.4866,41,41,1
594.5894,594.6922,36,41,1
594.795,594.8995,41,47,1
595.00397,595.10846,45,45,1
595.2129,595.3174,48,45,1
595.4219,595.7303,60,35,1
595.4219,595.7303,57,29,1
595.4219,595.7303,48,29,1
596.03864,596.34705,70,28,1
596.03864,596.34705,74,34,1
596.03864,596.34705,60,28,1
596.65546,596.9638,72,33,1
596.65546,596.9638,69,28,1
596.65546,596.9638,60,28,1
597.2722,597.58057,70,34,1
597.2722,597.58057,67,28,1
597.2722,597.58057,60,28,1
597.889,598.20245,69,35,1
597.889,598.20245,66,29,1
597.889,598.20245,60,29,1
598.51587,598.82935,66,28,1
598.51587,598.82935,69,35,1
598.51587,598.82935,60,28,1
599.14276,599.45624,69,35,1
599.14276,599.45624,66,29,1
599.14276,599.45624,60,29,1
599.76965,600.0831,69,37,1
599.76965,600.0831,66,31,1
599.76965,600.0831,60,31,1
600.39655,600.7115,70,40,1
600.39655,600.7115,65,33,1
600.39655,600.7115,58,33,1
601.0276,601.3451,65,31,1
601.0276,601.3451,70,38,1
601.0276,601.3451,58,31,1
601.6638,601.9843,69,37,1
601.6638,601.9843,65,31,1
601.6638,601.9843,60,31,1
602.3064,602.62964,70,38,1
602.3064,602.62964,67,31,1
602.3064,602.62964,60,31,1
602.9544,603.27856,55,31,1
602.9544,603.27856,51,26,1
602.9544,603.27856,46,26,1
603.60266,603.9268,51,25,1
603.60266,603.9268,55,31,1
603.60266,603.9268,46,25,1
604.251,604.57513,55,31,1
604.251,604.57513,51,26,1
604.251,604.57513,46,26,1
604.8993,605.22345,55,33,1
604.8993,605.22345,51,27,1
604.8993,605.22345,46,27,1
605.5476,605.8717,56,36,1
605.5476,605.8717,51,29,1
605.5476,605.8717,44,29,1
606.19806,606.52655,51,27,1
606.19806,606.52655,56,34,1
606.19806,606.52655,44,27,1
606.85767,607.191,55,33,1
606.85767,607.191,51,27,1
606.85767,607.191,46,27,1
607.5272,607.8658,56,34,1
607.5272,607.8658,53,27,1
607.5272,607.8658,46,27,1
609.51086,609.83496,66,31,1
610.1591,610.4833,63,33,1
610.80743,611.1316,68,33,1
611.4579,611.78644,68,31,1
612.78094,613.1107,44,29,1
613.44055,613.77814,44,29,1
614.79083,615.1345,45,26,1
615.4782,615.8511,45,26,1
616.9154,617.24713,57,26,1
617.5788,617.9105,58,27,1
618.24225,618.574,46,30,1
618.91785,619.2535,48,33,1
619.5904,619.92865,48,35,1
620.28046,620.62555,48,35,1
620.28046,620.62555,55,35,1
620.28046,620.62555,58,41,1
620.9756,621.33105,58,42,1
620.9756,621.33105,55,36,1
620.9756,621.33105,48,36,1
621.7094,621.8877,53,42,1
621.7094,621.8877,41,36,1
623.1358,624.1607,57,36,1
624.1607,624.5288,58,36,1
624.1607,624.5288,55,30,1
623.1358,624.5288,60,44,1
624.5288,625.2246,57,44,1
624.5288,625.2246,53,36,1
625.2246,625.9205,57,45,1
625.2246,625.9205,51,38,1
625.9205,626.6163,57,48,1
625.9205,626.6163,50,40,1
626.6163,627.3323,55,44,1
626.6163,627.3323,50,37,1
626.6163,627.3323,43,37,1
627.3323,628.707,58,49,1
627.3323,628.707,48,41,1
628.707,628.8854,57,38,1
628.707,628.8854,53,32,1
629.4305,629.6121,57,34,1
629.4305,629.6121,53,28,1
631.58356,631.92096,48,42,1
631.58356,632.6085,45,35,1
632.6085,632.9766,46,36,1
632.6085,632.9766,43,30,1
632.9766,633.6724,45,44,1
632.9766,633.6724,41,36,1
633.6724,634.3682,45,45,1
633.6724,634.3682,39,38,1
634.3682,635.064,45,48,1
634.3682,635.064,38,40,1
635.064,635.4119,43,48,1
635.064,635.4119,38,40,1
635.064,635.4119,31,40,1
636.51624,637.2163,58,53,1
636.51624,637.2163,53,45,1
637.2163,637.9163,58,59,1
637.2163,637.9163,51,49,1
637.9163,638.26636,56,60,1
637.9163,638.26636,51,50,1
637.9163,638.26636,44,50,1
639.3164,640.0164,52,84,1
639.3164,640.0164,47,70,1
639.3164,640.0164,40,70,1
640.0164,640.36646,45,84,1
640.0164,640.36646,40,70,1
640.0164,640.36646,33,70,1
641.4165,642.7912,75,58,1
641.4165,642.7912,65,49,1
642.7912,642.9704,74,45,1
642.7912,642.9704,70,38,1
643.519,643.7157,74,40,1
643.519,643.7157,70,33,1
644.30585,646.5191,74,45,1
644.30585,646.5191,70,38,1
650.085,651.4598,58,39,1
650.085,651.4598,48,33,1
651.4598,651.6389,57,36,1
651.4598,651.6389,53,30,1
652.1875,652.3842,57,32,1
652.1875,652.3842,53,24,1
652.9744,655.3351,60,36,1
652.9744,655.3351,53,30,1
656.12195,657.4967,75,58,1
656.12195,657.4967,65,49,1
657.4967,657.67584,74,45,1
657.4967,657.67584,70,38,1
658.2244,658.42114,74,48,1
658.2244,658.42114,70,39,1
668.2748,669.697,58,35,1
668.2748,669.697,48,29,1
669.697,669.8834,57,32,1
669.697,669.8834,53,27,1
670.44275,670.6465,57,28,1
670.44275,670.6465,53,21,1
671.2578,673.4059,60,32,1
671.2578,673.4059,53,27,1
674.1191,674.3151,61,28,1
674.1191,674.3151,56,24,1
674.1191,674.3151,52,24,1
674.9034,675.1289,61,25,1
674.9034,675.1289,56,18,1
674.9034,675.1289,52,18,1
675.8056,678.66003,61,28,1
675.8056,678.66003,56,24,1
675.8056,678.66003,49,24,1
678.66003,679.0068,49,34,1
679.0068,679.3535,56,29,1
679.3535,679.6814,49,33,1
679.6814,680.0093,56,28,1
680.0093,680.3298,48,33,1
680.3298,680.6549,56,28,1
680.6549,680.9683,49,33,1
680.9683,681.2745,56,28,1
681.2745,681.587,51,34,1
681.587,681.89575,56,28,1
681.89575,682.21814,52,33,1
682.21814,682.5181,56,27,1
682.5181,682.8299,61,30,1
682.8299,683.13995,56,27,1
683.13995,683.4473,52,33,1
683.4473,683.7625,56,28,1
683.7625,684.07404,51,34,1
684.07404,684.38983,56,29,1
684.38983,684.7016,52,33,1
684.7016,685.00696,56,28,1
685.00696,685.3055,61,31,1
685.3055,685.61475,56,28,1
685.61475,685.91626,53,31,1
685.91626,686.209,56,25,1
686.209,686.5124,53,34,1
686.5124,686.82416,61,28,1
686.82416,687.12445,54,37,1
687.12445,687.4115,61,27,1
687.4115,687.7134,54,31,1
687.7134,688.00464,62,27,1
688.00464,688.3081,54,31,1
688.3081,688.62506,61,25,1
688.62506,688.9271,54,34,1
688.9271,689.22864,60,29,1
689.22864,689.53705,54,33,1
689.53705,689.8523,61,28,1
689.8523,690.15576,53,33,1
690.15576,690.4484,61,28,1
690.4484,690.7508,54,33,1
690.7508,691.0464,61,28,1
691.0464,691.3479,56,34,1
691.3479,691.642,61,28,1
691.642,691.94354,57,33,1
691.94354,692.2362,61,27,1
692.2362,692.5413,66,31,1
692.5413,692.8354,61,27,1
692.8354,693.13885,57,33,1
693.13885,693.4541,61,28,1
693.4541,693.76025,56,34,1
693.76025,694.06635,61,29,1
694.06635,694.36194,57,33,1
694.36194,694.66864,61,28,1
694.66864,694.9571,66,33,1
694.9571,695.26056,61,28,1
695.26056,695.5518,58,35,1
695.5518,695.8585,61,29,1
695.8585,696.1652,58,35,1
696.1652,696.472,66,28,1
696.472,696.77734,59,37,1
696.77734,697.0686,66,40,1
697.0686,697.3721,59,33,1
697.3721,697.6619,67,39,1
697.6619,697.9686,59,33,1
697.9686,698.2753,66,36,1
698.2753,698.5895,59,33,1
698.5895,698.9036,65,29,1
698.9036,699.2186,57,35,1
699.2186,699.52374,66,31,1
699.52374,699.81934,56,33,1
699.81934,700.13104,65,30,1
700.13104,700.43945,54,33,1
700.43945,700.74786,66,30,1
700.74786,701.0562,51,33,1
701.0562,701.3646,60,29,1
701.3646,701.67303,52,36,1
701.67303,701.9671,61,30,1
701.9671,702.27014,48,33,1
702.27014,702.5871,57,29,1
702.5871,702.89166,49,33,1
702.89166,703.1962,56,29,1
703.1962,703.50714,52,33,1
703.50714,703.818,56,30,1
703.818,704.1264,54,33,1
704.1264,704.4348,57,30,1
704.4348,704.7518,54,34,1
704.7518,705.0687,57,30,1
705.0687,705.3788,52,35,1
705.0687,705.3788,44,35,1
705.3788,705.68884,56,31,1
705.68884,706.0187,51,35,1
705.68884,706.0187,44,35,1
706.0187,706.3485,56,33,1
706.3485,706.6619,50,39,1
706.3485,706.6619,42,39,1
706.6619,706.95605,57,29,1
706.95605,707.26447,54,35,1
707.26447,707.5557,57,31,1
707.5557,707.8641,54,36,1
707.8641,708.1725,57,33,1
708.1725,708.4776,50,31,1
708.4776,708.79626,57,27,1
708.79626,709.10803,52,33,1
709.10803,709.4198,56,28,1
709.4198,709.7385,54,33,1
709.7385,710.0572,56,28,1
710.0572,710.3759,52,33,1
710.0572,710.3759,44,33,1
710.3759,710.69464,56,28,1
710.69464,711.0133,54,33,1
710.69464,711.0133,44,33,1
711.0133,711.33203,56,29,1
711.33203,712.5294,57,38,1
711.33203,712.5294,52,32,1
711.33203,712.5294,45,32,1
712.5294,712.82635,49,35,1
713.1233,713.4284,52,35,1
713.7335,714.9089,57,38,1
713.7335,714.9089,52,32,1
713.7335,714.9089,45,32,1
714.9089,715.2058,49,35,1
715.50275,715.80786,52,35,1
716.113,716.4136,45,35,1
716.71466,717.3127,61,33,1
717.3127,717.9083,59,35,1
717.9083,718.50397,62,32,1
716.71466,718.50397,52,28,1
718.50397,718.80457,45,35,1
719.10565,719.7037,61,33,1
719.7037,720.2993,59,35,1
720.2993,720.89496,62,32,1
719.10565,720.89496,52,28,1
720.89496,722.0669,57,45,1
720.89496,722.0669,52,38,1
720.89496,722.0669,45,38,1
722.0669,722.36346,49,37,1
722.66,722.96466,52,37,1
723.26935,723.56433,46,37,1
723.85925,724.1558,49,37,1
724.45233,724.74884,43,42,1
725.0454,725.3419,51,37,1
725.6384,726.8358,56,38,1
725.6384,726.8358,51,32,1
725.6384,726.8358,44,32,1
726.8358,727.13275,47,35,1
727.4297,727.7348,51,35,1
728.0399,729.2153,56,38,1
728.0399,729.2153,51,32,1
728.0399,729.2153,44,32,1
729.2153,729.5122,47,35,1
729.80914,730.11426,51,35,1
730.41943,730.72424,44,36,1
731.02716,731.32794,47,40,1
731.62665,731.9243,41,44,1
732.2238,732.5254,42,48,1
732.8294,734.00476,47,56,1
732.8294,734.00476,42,47,1
732.8294,734.00476,35,47,1
734.00476,734.3017,39,35,1
734.59863,734.90375,42,35,1
735.20886,736.3842,47,56,1
735.20886,736.3842,42,47,1
735.20886,736.3842,35,47,1
736.3842,736.68115,39,35,1
736.9781,737.2832,42,35,1
737.5884,737.8889,35,35,1
738.19006,738.788,63,33,1
738.788,739.38367,61,35,1
739.38367,739.9793,64,32,1
738.19006,739.9793,54,28,1
739.9793,740.2799,47,35,1
740.581,741.179,63,33,1
741.179,741.77466,61,35,1
741.77466,742.3703,64,32,1
740.581,742.3703,54,28,1
742.3703,743.54224,59,53,1
742.3703,743.54224,54,45,1
742.3703,743.54224,47,45,1
743.54224,743.8388,51,42,1
744.1353,744.44,54,42,1
744.7447,745.0397,48,50,1
745.3346,745.63116,51,41,1
745.9277,746.2242,45,50,1
746.52075,746.81726,53,40,1
747.1138,748.31116,58,38,1
747.1138,748.31116,53,32,1
747.1138,748.31116,46,32,1
748.31116,748.6081,49,35,1
748.905,749.21014,53,35,1
749.5153,750.6906,58,38,1
749.5153,750.6906,53,32,1
749.5153,750.6906,46,32,1
750.6906,750.98755,49,35,1
751.2845,751.58966,53,35,1
751.8948,752.1999,46,39,1
752.50476,752.8066,49,47,1
753.10455,753.40247,43,53,1
753.70514,754.01184,44,58,1
754.31854,756.08777,49,70,1
754.31854,756.08777,44,58,1
754.31854,756.08777,37,58,1
756.08777,756.2912,56,50,1
756.2912,756.4946,53,44,1
756.4946,756.69806,49,37,1
756.69806,756.98035,37,36,1
756.9952,757.28815,37,30,1
757.3036,757.59656,37,31,1
757.61194,757.9049,37,31,1
757.92035,758.2133,37,30,1
758.22876,758.5217,37,30,1
758.5371,758.8301,37,29,1
758.8455,759.1385,37,29,1
759.1539,759.45667,37,26,1
759.4726,759.7754,37,26,1
759.7913,760.0941,37,26,1
760.11005,760.4128,37,26,1
760.4287,760.7233,37,26,1
760.73883,761.0334,37,26,1
761.0489,761.34344,37,26,1
761.35895,761.65356,37,26,1
761.66907,761.97015,37,26,1
761.986,762.2871,37,26,1
762.303,762.60406,37,26,1
762.61993,762.921,37,26,1
762.9369,763.23145,37,26,1
763.24695,763.5415,37,26,1
763.557,763.8516,37,26,1
763.8671,764.1617,37,26,1
764.1772,764.46545,37,26,1
764.48065,764.7689,37,26,1
764.7841,765.0724,37,26,1
765.0876,765.3732,37,26,1
764.7841,765.38727,39,26,1
765.38727,765.6741,37,26,1
765.68915,765.9774,37,26,1
765.38727,765.9926,44,26,1
765.9926,766.2825,37,26,1
766.2977,766.5893,37,26,1
765.9926,766.6047,45,26,1
766.6047,766.79297,44,31,1
766.79297,766.98126,43,28,1
766.98126,767.1695,44,28,1
767.1695,767.3578,45,31,1
767.3578,767.5461,44,27,1
767.5461,767.7343,43,27,1
767.7343,767.9226,44,32,1
767.9226,768.11206,41,28,1
768.11206,768.3025,40,28,1
766.6047,768.3025,37,26,1
768.3025,768.4941,41,32,1
768.4941,768.68665,37,27,1
768.68665,768.8805,38,28,1
768.8805,769.1782,37,26,1
769.1939,769.4917,37,26,1
769.5074,769.8051,37,26,1
769.8208,770.1186,37,26,1
770.1343,770.42725,37,26,1
770.4426,770.7356,37,26,1
770.75104,771.044,37,26,1
771.05945,771.3524,37,26,1
771.3678,771.6656,36,26,1
771.6813,771.979,36,26,1
771.9947,772.2925,36,26,1
772.30817,772.6059,36,26,1
772.6216,772.91296,36,26,1
772.92834,773.21967,36,26,1
773.23505,773.5264,36,26,1
773.54175,773.8331,36,26,1
773.84845,774.1368,35,26,1
774.1519,774.4402,35,26,1
774.4554,774.74365,35,26,1
774.75885,775.04694,35,26,1
774.4554,775.062,42,26,1
775.062,775.34924,35,26,1
775.36444,775.65344,35,26,1
775.062,775.6687,47,26,1
775.6687,775.95953,35,26,1
775.9749,776.26776,35,26,1
775.6687,776.28326,48,26,1
776.28326,776.47156,47,31,1
776.47156,776.65985,46,28,1
776.65985,776.8481,47,28,1
776.8481,777.0364,48,31,1
777.0364,777.2246,47,27,1
777.2246,777.4129,46,27,1
777.4129,777.6012,47,32,1
777.6012,777.79065,44,28,1
777.79065,777.9811,43,28,1
776.28326,777.9811,40,26,1
777.9811,778.17267,44,32,1
778.17267,778.36523,40,27,1
778.36523,778.5591,41,28,1
778.5591,779.72345,40,38,1
779.72345,780.013,44,37,1
780.3026,780.5922,47,37,1
780.88184,782.0402,40,38,1
782.0402,782.32697,45,37,1
782.61365,782.9003,48,37,1
783.18774,783.4784,50,41,1
783.4784,783.7528,48,42,1
783.7672,784.0544,48,44,1
784.0544,784.32526,47,46,1
784.3394,784.6228,47,47,1
784.6228,784.89026,45,49,1
784.9043,785.1842,45,51,1
785.1842,785.4482,43,53,1
785.46204,785.7392,43,53,1
785.7392,786.00397,41,52,1
786.01794,786.2985,41,50,1
786.2985,786.5666,40,48,1
786.5807,786.86505,40,47,1
786.86505,787.13666,38,45,1
787.151,787.43866,38,44,1
787.43866,787.71375,36,42,1
787.7283,788.8808,48,44,1
787.7283,788.8808,36,44,1
788.8808,789.1646,52,44,1
789.4485,789.7323,55,45,1
790.0162,791.15717,48,49,1
791.15717,791.4396,53,50,1
791.722,792.0044,56,50,1
792.28827,792.56793,58,59,1
792.56793,792.83276,56,60,1
792.8467,793.1245,56,62,1
793.1245,793.38745,55,64,1
793.40125,793.6769,55,68,1
793.6769,793.9376,53,70,1
793.95135,794.225,53,72,1
794.225,794.48395,51,75,1
794.4975,794.7694,51,75,1
794.7694,795.0291,49,73,1
795.04285,795.31775,49,71,1
795.31775,795.5802,47,69,1
795.59406,795.8719,47,68,1
795.8719,796.1374,46,63,1
796.15137,796.4321,44,62,1
796.4321,796.7006,59,60,1
796.7148,796.99866,61,72,1
796.99866,797.2683,59,63,1
797.2825,797.56635,59,70,1
797.56635,797.836,58,63,1
797.8502,798.13403,58,70,1
798.13403,798.4037,56,64,1
798.4179,798.7017,56,70,1
798.7017,798.9714,54,64,1
798.9856,799.2704,54,72,1
799.2704,799.5391,52,64,1
799.5533,799.83386,52,73,1
799.83386,800.0985,50,67,1
800.11237,800.3895,50,73,1
800.3895,800.6683,49,67,1
800.6683,800.94867,47,72,1
800.94867,801.2306,50,55,1
800.94867,801.2306,62,66,1
801.2306,801.5142,52,72,1
801.2306,801.5142,64,72,1
801.5142,801.7827,50,53,1
801.5142,801.7827,62,63,1
801.7969,802.0781,50,61,1
801.7969,802.0781,62,72,1
802.0781,802.344,49,53,1
802.0781,802.344,61,64,1
802.358,802.6363,49,61,1
802.358,802.6363,61,73,1
802.6363,802.90173,47,57,1
802.6363,802.90173,59,68,1
802.9157,803.19653,47,63,1
802.9157,803.19653,59,75,1
803.19653,803.4646,45,58,1
803.19653,803.4646,57,69,1
803.4787,803.7635,45,67,1
803.4787,803.7635,57,79,1
803.7635,804.0334,43,58,1
803.7635,804.0334,55,69,1
804.04755,804.3302,43,67,1
804.04755,804.3302,55,79,1
804.3302,804.5974,41,60,1
804.3302,804.5974,53,70,1
804.61145,804.8912,41,67,1
804.61145,804.8912,53,80,1
804.8912,805.15686,40,62,1
804.8912,805.15686,52,74,1
805.17084,805.4505,40,69,1
805.17084,805.4505,52,82,1
805.4505,805.7162,38,63,1
805.4505,805.7162,50,75,1
806.0098,806.2895,45,63,1
806.0098,806.2895,50,75,1
805.73016,806.2895,38,86,1
806.56915,806.8488,45,63,1
806.56915,806.8488,52,75,1
806.2895,806.8488,38,84,1
807.1285,807.40814,45,64,1
807.1285,807.40814,50,77,1
806.8488,807.40814,38,84,1
807.6878,807.96747,45,64,1
807.6878,807.96747,52,77,1
807.40814,807.96747,38,84,1
808.2458,808.5241,45,64,1
808.2458,808.5241,50,77,1
807.96747,808.5241,38,86,1
808.80304,809.0827,45,66,1
808.80304,809.0827,52,78,1
808.5241,809.0827,38,85,1
809.3624,809.64343,45,68,1
809.3624,809.64343,50,81,1
809.0827,809.64343,38,88,1
809.92444,810.2064,45,69,1
809.92444,810.2064,52,82,1
809.64343,810.2064,38,89,1
810.2064,810.51984,50,91,1
810.2064,810.51984,45,77,1
810.2064,810.51984,38,77,1
810.51984,810.8176,62,20,1
810.51984,810.8176,65,24,1
810.51984,810.8176,69,29,1
810.8333,811.1327,62,21,1
810.8333,811.1327,65,25,1
810.8333,811.1327,69,30,1
811.14844,811.4479,62,21,1
811.14844,811.4479,65,25,1
811.14844,811.4479,69,30,1
811.4636,811.763,62,20,1
811.4636,811.763,65,24,1
811.4636,811.763,69,29,1
811.77875,812.0782,62,20,1
811.77875,812.0782,65,24,1
811.77875,812.0782,69,29,1
812.09393,812.3933,62,19,1
812.09393,812.3933,65,23,1
812.09393,812.3933,69,27,1
812.4091,812.7085,62,19,1
812.4091,812.7085,65,23,1
812.4091,812.7085,69,27,1
812.72424,813.02515,62,20,1
812.72424,813.02515,65,24,1
812.72424,813.02515,69,28,1
813.041,813.3419,62,17,1
813.041,813.3419,65,21,1
813.041,813.3419,69,25,1
813.3578,813.6587,62,17,1
813.3578,813.6587,65,21,1
813.3578,813.6587,69,25,1
813.6745,813.97546,62,17,1
813.6745,813.97546,65,21,1
813.6745,813.97546,69,25,1
813.9913,814.28625,62,17,1
813.9913,814.28625,65,21,1
813.9913,814.28625,69,25,1
814.30176,814.59674,62,17,1
814.30176,814.59674,65,21,1
814.30176,814.59674,69,25,1
814.61224,814.9072,62,17,1
814.61224,814.9072,65,21,1
814.61224,814.9072,69,25,1
814.9228,815.2126,69,25,1
814.9228,815.2177,62,17,1
814.9228,815.2177,65,21,1
815.2333,815.5342,65,24,1
815.2333,815.5342,61,20,1
815.55,815.85095,65,21,1
815.55,815.85095,61,17,1
815.86676,816.16766,65,21,1
815.86676,816.16766,61,17,1
816.18353,816.48444,65,21,1
816.18353,816.48444,61,17,1
816.5003,816.7952,69,25,1
816.5003,816.7952,65,21,1
816.5003,816.7952,61,17,1
816.8108,817.1058,69,25,1
816.8108,817.1058,65,21,1
816.8108,817.1058,61,17,1
817.1213,817.41626,69,25,1
817.1213,817.41626,65,21,1
817.1213,817.41626,61,17,1
817.43176,817.72675,69,25,1
817.43176,817.72675,65,21,1
817.43176,817.72675,61,17,1
817.74225,818.04175,69,28,1
817.74225,818.04175,62,20,1
817.74225,818.04175,65,24,1
818.0575,818.35693,69,25,1
818.0575,818.35693,62,17,1
818.0575,818.35693,65,21,1
818.37274,818.6722,69,25,1
818.37274,818.6722,62,17,1
818.37274,818.6722,65,21,1
818.6879,818.9874,65,21,1
818.6879,818.9874,69,25,1
818.6879,818.9874,62,17,1
819.0032,819.29816,62,17,1
819.0032,819.29816,65,21,1
819.0032,819.29816,69,25,1
819.31366,819.60864,62,17,1
819.31366,819.60864,65,21,1
819.31366,819.60864,69,25,1
819.62415,819.9191,61,17,1
819.62415,819.9191,65,21,1
819.62415,819.9191,69,26,1
819.93463,820.2296,61,18,1
819.93463,820.2296,65,22,1
819.93463,820.2296,69,27,1
820.2451,820.53864,69,34,1
820.2451,820.53864,65,28,1
820.2451,820.53864,60,23,1
820.5541,820.8476,69,34,1
820.5541,820.8476,65,28,1
820.5541,820.8476,60,23,1
820.86304,821.15656,69,33,1
820.86304,821.15656,65,27,1
820.86304,821.15656,60,22,1
821.172,821.46466,69,33,1
821.172,821.46466,65,27,1
821.172,821.46466,60,22,1
821.47974,821.7675,69,31,1
821.47974,821.7675,65,26,1
821.47974,821.7675,60,22,1
821.7827,822.07196,69,31,1
821.7827,822.07196,65,26,1
821.7827,822.07196,60,22,1
822.0872,822.37646,69,30,1
822.0872,822.37646,65,25,1
822.0872,822.37646,61,21,1
822.39166,822.68097,69,30,1
822.39166,822.68097,65,25,1
822.39166,822.68097,61,21,1
822.69617,822.986,69,31,1
822.69617,822.986,65,31,1
822.69617,822.986,62,26,1
823.0013,823.29266,69,31,1
823.0013,823.29266,65,31,1
823.0013,823.29266,62,26,1
823.308,823.59937,69,31,1
823.308,823.59937,65,26,1
823.6147,823.90607,69,31,1
823.6147,823.90607,65,26,1
823.9214,824.22034,69,31,1
824.23627,824.5436,69,31,1
824.5599,824.87286,70,31,1
824.5599,824.87286,64,31,1
824.5599,824.87286,60,26,1
824.88934,825.2027,70,31,1
824.88934,825.2027,64,31,1
824.88934,825.2027,60,26,1
827.7314,828.9984,50,56,1
828.9984,829.3089,53,48,1
829.6194,829.9299,57,48,1
830.2404,831.50745,45,56,1
831.50745,831.81793,53,47,1
832.1284,832.4389,57,47,1
832.7494,834.0103,50,56,1
834.0103,834.3208,53,48,1
834.6313,834.9418,57,48,1
835.25226,835.5612,60,52,1
835.5612,835.85474,57,45,1
835.8702,836.17914,57,48,1
836.17914,836.4718,55,44,1
836.4869,836.78986,55,46,1
836.78986,837.0791,53,43,1
837.09436,837.3988,53,44,1
837.3988,837.68805,52,41,1
837.7033,838.0138,52,44,1
838.0138,838.30444,53,40,1
838.3197,838.6315,53,44,1
838.6315,838.9277,50,41,1
838.94324,839.26196,50,44,1
839.26196,839.5704,48,40,1
839.58673,839.91785,50,44,1
839.91785,840.2387,48,40,1
840.25574,840.8843,50,44,1
842.6634,842.7407,40,27,1
842.7407,842.8638,38,27,1
842.8228,842.94543,40,23,1
842.9046,843.0267,38,24,1
842.98615,843.10754,40,22,1
843.0671,843.1879,38,24,1
843.14777,843.26794,40,22,1
843.2279,843.34753,38,25,1
843.3078,843.425,40,24,1
843.3867,843.5027,38,26,1
843.4635,843.58136,40,23,1
843.54236,843.6587,38,26,1
843.61993,843.7375,40,22,1
843.69836,843.8165,38,25,1
843.77673,843.8969,40,23,1
843.8567,843.97546,38,24,1
843.9368,844.0533,40,22,1
844.01404,844.13257,38,26,1
844.093,844.2101,40,23,1
844.1714,844.2892,38,25,1
844.2496,844.3666,40,23,1
844.3278,844.44525,38,25,1
844.4058,844.5233,40,22,1
844.48456,844.6015,38,25,1
844.5621,844.67957,40,22,1
844.64044,844.7598,38,27,1
844.71985,844.8393,40,23,1
844.7995,844.92053,38,26,1
844.8798,845.0059,40,22,1
844.96136,845.10986,37,28,1
845.08014,845.2287,38,31,1
845.199,845.3443,40,32,1
845.31775,845.4769,38,34,1
846.58746,846.88745,62,19,1
846.58746,846.88745,65,23,1
846.58746,846.88745,69,27,1
846.9034,847.2037,62,19,1
846.9034,847.2037,65,23,1
846.9034,847.2037,69,27,1
847.21954,847.52484,62,17,1
847.21954,847.52484,65,20,1
847.21954,847.52484,69,24,1
847.541,847.849,62,17,1
847.541,847.849,65,20,1
847.541,847.849,69,24,1
847.8652,848.1767,62,17,1
847.8652,848.1767,65,20,1
847.8652,848.1767,69,24,1
848.19305,848.5045,62,17,1
848.19305,848.5045,65,20,1
848.19305,848.5045,69,24,1
848.52094,848.82544,62,17,1
848.52094,848.82544,65,20,1
848.52094,848.82544,69,24,1
848.84143,849.15015,62,17,1
848.84143,849.15015,65,20,1
848.84143,849.15015,69,24,1
849.16656,849.4643,62,17,1
849.16656,849.4643,65,20,1
849.16656,849.4643,69,24,1
849.48,849.7778,62,17,1
849.48,849.7778,65,20,1
849.48,849.7778,69,24,1
849.79346,850.09125,62,17,1
849.79346,850.09125,65,20,1
849.79346,850.09125,69,24,1
850.1069,850.4057,62,17,1
850.1069,850.4057,65,20,1
850.1069,850.4057,69,24,1
850.4218,850.728,62,17,1
850.4218,850.728,65,20,1
850.4218,850.728,69,24,1
850.74414,851.05035,62,17,1
850.74414,851.05035,65,20,1
850.74414,851.05035,69,24,1
851.06647,851.37274,61,17,1
851.06647,851.37274,65,21,1
851.06647,851.37274,69,25,1
851.38885,851.69507,61,17,1
851.38885,851.69507,65,21,1
851.38885,851.69507,69,25,1
851.7112,852.0174,60,17,1
851.7112,852.0174,65,21,1
851.7112,852.0174,69,25,1
852.0335,852.3397,60,17,1
852.0335,852.3397,65,21,1
852.0335,852.3397,69,25,1
852.35583,852.65533,59,20,1
852.35583,852.65533,65,24,1
852.35583,852.65533,69,28,1
852.6711,852.9705,59,20,1
852.6711,852.9705,65,24,1
852.6711,852.9705,69,28,1
852.9863,853.29425,67,28,1
852.9863,853.29425,65,24,1
852.9863,853.29425,58,20,1
853.3104,853.6184,67,28,1
853.3104,853.6184,65,24,1
853.3104,853.6184,58,20,1
853.6346,853.9391,67,28,1
853.6346,853.9391,62,24,1
853.6346,853.9391,58,20,1
853.95514,854.2596,67,28,1
853.95514,854.2596,62,24,1
853.95514,854.2596,58,20,1
854.27563,854.58014,67,28,1
854.27563,854.58014,64,24,1
854.27563,854.58014,58,20,1
854.5961,854.90063,67,28,1
854.5961,854.90063,64,24,1
854.5961,854.90063,58,20,1
854.9166,855.2246,67,28,1
854.9166,855.2246,61,24,1
854.9166,855.2246,57,20,1
855.2408,855.54877,67,28,1
855.2408,855.54877,61,24,1
855.2408,855.54877,57,20,1
855.56494,855.87286,65,28,1
855.56494,855.87286,62,24,1
855.8891,856.197,65,28,1
855.8891,856.197,62,24,1
856.21326,856.5212,65,28,1
856.21326,856.5212,62,24,1
856.5374,856.84534,65,28,1
856.5374,856.84534,62,24,1
858.04364,858.12244,40,27,1
858.12244,858.2455,38,27,1
858.2045,858.32715,40,23,1
858.2863,858.40845,38,24,1
858.36786,858.48926,40,22,1
858.44885,858.56964,38,24,1
858.52954,858.64966,40,22,1
858.6097,858.72925,38,25,1
858.6895,858.80676,40,24,1
858.76843,858.8844,38,26,1
858.8452,858.96313,40,23,1
858.9241,859.0404,38,26,1
859.00165,859.11926,40,22,1
859.0801,859.19824,38,25,1
859.15845,859.2786,40,23,1
859.23846,859.35724,38,24,1
859.3186,859.435,40,22,1
859.39575,859.5143,38,26,1
859.47473,859.59186,40,23,1
859.55316,859.6709,38,25,1
859.6313,859.7483,40,23,1
859.7096,859.82697,38,25,1
859.78754,859.905,40,22,1
859.8663,859.9833,38,25,1
859.9438,860.0613,40,22,1
860.0222,860.14154,38,27,1
860.10156,860.221,40,23,1
860.1813,860.30225,38,26,1
860.26154,860.3876,40,22,1
860.3431,860.47766,38,26,1
860.4324,860.5694,40,22,1
860.52325,860.71045,36,28,1
860.71045,860.88794,34,34,1
861.999,862.30066,62,17,1
861.999,862.30066,65,20,1
861.999,862.30066,70,24,1
862.3165,862.6181,62,17,1
862.3165,862.6181,65,20,1
862.3165,862.6181,70,24,1
862.634,862.9393,62,15,1
862.634,862.9393,65,18,1
862.634,862.9393,70,21,1
862.9555,863.2634,62,15,1
862.9555,863.2634,65,18,1
862.9555,863.2634,70,21,1
863.27966,863.5911,62,15,1
863.27966,863.5911,65,18,1
863.27966,863.5911,70,21,1
863.6075,863.919,62,15,1
863.6075,863.919,65,18,1
863.6075,863.919,70,21,1
863.93536,864.23987,62,15,1
863.93536,864.23987,65,18,1
863.93536,864.23987,72,21,1
864.2559,864.5646,62,15,1
864.2559,864.5646,65,18,1
864.2559,864.5646,72,21,1
864.581,864.8788,62,15,1
864.581,864.8788,65,18,1
864.581,864.8788,74,21,1
864.8945,865.1922,62,15,1
864.8945,865.1922,65,18,1
864.8945,865.1922,74,21,1
865.2079,865.5057,62,15,1
865.2079,865.5057,65,18,1
865.2079,865.5057,69,21,1
865.52136,865.8201,62,15,1
865.52136,865.8201,65,18,1
865.52136,865.8201,69,21,1
865.83624,866.14246,62,15,1
865.83624,866.14246,65,18,1
865.83624,866.14246,70,21,1
866.1586,866.46484,62,15,1
866.1586,866.46484,65,18,1
866.1586,866.46484,70,21,1
866.48096,866.7872,62,15,1
866.48096,866.7872,65,18,1
866.48096,866.7872,70,22,1
866.8033,867.1095,62,15,1
866.8033,867.1095,65,18,1
866.8033,867.1095,70,22,1
867.1256,867.4318,62,15,1
867.1256,867.4318,65,18,1
867.1256,867.4318,70,22,1
867.44794,867.75415,62,15,1
867.44794,867.75415,65,18,1
867.44794,867.75415,70,22,1
867.77026,868.06976,62,15,1
867.77026,868.06976,65,18,1
867.77026,868.06976,70,22,1
868.0855,868.385,62,15,1
868.0855,868.385,65,18,1
868.0855,868.385,70,22,1
868.40076,868.7087,70,22,1
868.40076,868.7087,66,18,1
868.40076,868.7087,63,15,1
868.7249,869.03284,70,22,1
868.7249,869.03284,66,18,1
868.7249,869.03284,63,15,1
869.0491,869.3535,70,22,1
869.0491,869.3535,66,18,1
869.0491,869.3535,63,15,1
869.36957,869.6741,70,22,1
869.36957,869.6741,66,18,1
869.36957,869.6741,63,15,1
869.69006,869.99457,70,22,1
869.69006,869.99457,66,18,1
869.69006,869.99457,63,15,1
870.01056,870.31506,70,22,1
870.01056,870.31506,66,18,1
870.01056,870.31506,63,15,1
870.3311,870.63904,70,22,1
870.3311,870.63904,66,18,1
870.3311,870.63904,63,15,1
870.6553,870.9632,70,22,1
870.6553,870.9632,66,18,1
870.6553,870.9632,63,15,1
870.9794,871.28735,70,22,1
870.9794,871.28735,62,15,1
870.9794,871.28735,65,18,1
871.3035,871.6115,70,22,1
871.3035,871.6115,62,15,1
871.3035,871.6115,65,18,1
871.6277,871.9356,70,22,1
871.6277,871.9356,62,15,1
871.6277,871.9356,65,18,1
871.95184,872.25977,70,22,1
871.95184,872.25977,62,15,1
871.95184,872.25977,65,18,1
873.4646,873.5438,36,27,1
873.5438,873.6669,34,27,1
873.6259,873.74854,36,23,1
873.7077,873.8298,34,24,1
873.78925,873.91064,36,22,1
873.87024,873.991,34,24,1
873.95087,874.07104,36,22,1
874.031,874.15063,34,26,1
874.1109,874.2281,36,25,1
874.1898,874.3058,34,27,1
874.2666,874.38446,36,24,1
874.34546,874.4618,34,28,1
874.42303,874.5406,36,23,1
874.50146,874.6196,34,27,1
874.57983,874.7,36,25,1
874.6598,874.77856,34,26,1
874.7399,874.8564,36,24,1
874.81714,874.93567,34,29,1
874.8961,875.0132,36,26,1
874.9745,875.0923,34,28,1
875.0527,875.1697,36,26,1
875.1309,875.24835,34,29,1
875.2089,875.3264,36,25,1
875.28766,875.4046,34,29,1
875.3652,875.48267,36,26,1
875.44354,875.5629,34,32,1
875.52295,875.6424,36,27,1
875.6026,875.72363,34,31,1
875.6829,875.8117,36,26,1
875.76697,875.9169,33,34,1
875.8868,876.03845,34,38,1
876.008,876.15906,36,40,1
876.1307,876.30115,38,42,1
877.41223,877.7138,62,19,1
877.41223,877.7138,65,23,1
877.41223,877.7138,69,27,1
877.7297,878.0313,62,19,1
877.7297,878.0313,65,23,1
877.7297,878.0313,69,27,1
878.0472,878.3525,62,17,1
878.0472,878.3525,65,20,1
878.0472,878.3525,69,24,1
878.3687,878.67664,62,17,1
878.3687,878.67664,65,20,1
878.3687,878.67664,69,24,1
878.6928,879.00433,62,17,1
878.6928,879.00433,65,20,1
878.6928,879.00433,69,24,1
879.0207,879.33215,62,17,1
879.0207,879.33215,65,20,1
879.0207,879.33215,69,24,1
879.3486,879.6531,62,17,1
879.3486,879.6531,65,20,1
879.3486,879.6531,69,24,1
879.66907,879.9778,62,17,1
879.66907,879.9778,65,20,1
879.66907,879.9778,69,24,1
879.9942,880.292,62,17,1
879.9942,880.292,65,20,1
879.9942,880.292,69,24,1
880.3076,880.6054,62,17,1
880.3076,880.6054,65,20,1
880.3076,880.6054,69,24,1
880.6211,880.9189,62,17,1
880.6211,880.9189,65,20,1
880.6211,880.9189,69,24,1
880.9345,881.23334,62,17,1
880.9345,881.23334,65,20,1
880.9345,881.23334,69,24,1
881.24945,881.55566,62,17,1
881.24945,881.55566,65,20,1
881.24945,881.55566,69,24,1
881.5718,881.878,62,17,1
881.5718,881.878,65,20,1
881.5718,881.878,69,24,1
881.8941,882.2004,61,17,1
881.8941,882.2004,65,21,1
881.8941,882.2004,69,25,1
882.2165,882.5227,61,17,1
882.2165,882.5227,65,21,1
882.2165,882.5227,69,25,1
882.5388,882.84503,60,17,1
882.5388,882.84503,65,21,1
882.5388,882.84503,69,25,1
882.86115,883.16736,60,17,1
882.86115,883.16736,65,21,1
882.86115,883.16736,69,25,1
883.1835,883.483,59,17,1
883.1835,883.483,65,21,1
883.1835,883.483,69,25,1
883.4987,883.79816,59,17,1
883.4987,883.79816,65,21,1
883.4987,883.79816,69,25,1
883.81396,884.1219,67,25,1
883.81396,884.1219,65,21,1
883.81396,884.1219,58,17,1
884.13806,884.44604,67,25,1
884.13806,884.44604,65,21,1
884.13806,884.44604,58,17,1
884.4622,884.7667,67,25,1
884.4622,884.7667,62,21,1
884.4622,884.7667,58,17,1
884.7828,885.0872,67,25,1
884.7828,885.0872,62,21,1
884.7828,885.0872,58,17,1
885.1033,885.4078,67,25,1
885.1033,885.4078,64,21,1
885.1033,885.4078,58,17,1
885.42377,885.7283,67,25,1
885.42377,885.7283,64,21,1
885.42377,885.7283,58,17,1
885.74426,886.05225,67,25,1
885.74426,886.05225,60,21,1
885.74426,886.05225,58,17,1
886.0684,886.3764,67,25,1
886.0684,886.3764,60,21,1
886.0684,886.3764,58,17,1
886.3926,886.7005,65,35,1
886.3926,886.7005,57,24,1
886.3926,886.7005,60,29,1
886.3926,886.7005,63,35,1
886.71674,887.0183,65,27,1
886.71674,887.0183,57,18,1
886.71674,887.0183,60,22,1
886.71674,887.0183,63,27,1
887.0342,887.33575,65,27,1
887.0342,887.33575,57,19,1
887.0342,887.33575,60,23,1
887.0342,887.33575,63,27,1
887.3517,887.65326,65,27,1
887.3517,887.65326,57,19,1
887.3517,887.65326,60,23,1
887.3517,887.65326,63,27,1
887.6691,887.9707,65,27,1
887.6691,887.9707,57,19,1
887.6691,887.9707,60,23,1
887.6691,887.9707,63,27,1
887.9866,888.28815,65,27,1
887.9866,888.28815,57,19,1
887.9866,888.28815,60,23,1
887.9866,888.28815,63,27,1
888.304,888.6105,65,27,1
888.304,888.6105,57,19,1
888.304,888.6105,60,23,1
888.304,888.6105,63,27,1
888.6266,888.93304,65,27,1
888.6266,888.93304,57,19,1
888.6266,888.93304,60,23,1
888.6266,888.93304,63,27,1
888.9492,889.5555,65,30,1
888.9492,889.5555,57,21,1
888.9492,889.5555,60,25,1
888.9492,889.5555,63,30,1
894.0338,894.34174,66,31,1
894.0338,894.34174,57,22,1
894.0338,894.34174,60,26,1
894.0338,894.34174,63,31,1
894.358,894.65796,66,24,1
894.358,894.65796,57,17,1
894.358,894.65796,60,20,1
894.358,894.65796,63,24,1
894.6737,894.97375,66,24,1
894.6737,894.97375,57,17,1
894.6737,894.97375,60,20,1
894.6737,894.97375,63,24,1
894.9895,895.2895,66,24,1
894.9895,895.2895,57,17,1
894.9895,895.2895,60,20,1
894.9895,895.2895,63,24,1
895.3053,895.6053,66,24,1
895.3053,895.6053,57,17,1
895.3053,895.6053,60,20,1
895.3053,895.6053,63,24,1
895.6211,895.9211,66,24,1
895.6211,895.9211,57,17,1
895.6211,895.9211,60,20,1
895.6211,895.9211,63,24,1
895.9369,896.24335,66,24,1
895.9369,896.24335,57,17,1
895.9369,896.24335,60,20,1
895.9369,896.24335,63,24,1
896.25946,896.5659,66,24,1
896.25946,896.5659,57,17,1
896.25946,896.5659,60,20,1
896.25946,896.5659,63,24,1
896.58203,897.19147,66,27,1
896.58203,897.19147,57,18,1
896.58203,897.19147,60,22,1
896.58203,897.19147,63,27,1
899.17633,899.4878,65,25,1
899.17633,899.4878,57,17,1
899.17633,899.4878,60,21,1
899.17633,899.4878,63,21,1
899.5042,899.8106,65,25,1
899.5042,899.8106,57,17,1
899.5042,899.8106,60,21,1
899.5042,899.8106,63,25,1
899.8268,900.13324,65,26,1
899.8268,900.13324,57,18,1
899.8268,900.13324,60,22,1
899.8268,900.13324,63,26,1
900.14935,900.4558,65,26,1
900.14935,900.4558,57,18,1
900.14935,900.4558,60,22,1
900.14935,900.4558,63,26,1
900.4719,900.7784,65,26,1
900.4719,900.7784,57,18,1
900.4719,900.7784,60,22,1
900.4719,900.7784,63,26,1
900.7945,901.10095,65,26,1
900.7945,901.10095,57,18,1
900.7945,901.10095,60,22,1
900.7945,901.10095,63,26,1
901.11707,901.4286,65,26,1
901.11707,901.4286,57,18,1
901.11707,901.4286,60,22,1
901.11707,901.4286,63,26,1
901.44495,901.7564,65,26,1
901.44495,901.7564,57,18,1
901.44495,901.7564,60,22,1
901.44495,901.7564,63,26,1
901.7728,902.42303,65,27,1
901.7728,902.42303,57,22,1
901.7728,902.42303,60,22,1
901.7728,902.42303,63,27,1
908.2256,908.44293,59,33,1
908.44293,908.6603,58,32,1
908.6603,908.8782,57,31,1
908.8782,909.09674,56,30,1
909.09674,909.31537,55,29,1
909.31537,909.53485,54,27,1
909.53485,909.67334,56,22,1
909.6271,909.766,54,19,1
909.71967,909.8581,56,20,1
909.8121,909.95013,54,18,1
909.9041,910.0417,56,20,1
909.996,910.1331,54,18,1
910.0874,910.22406,56,21,1
910.1786,910.3143,54,20,1
910.2695,910.40314,56,22,1
910.3588,910.49243,54,19,1
910.4478,910.5804,56,22,1
910.53644,910.6703,54,18,1
910.6255,910.758,56,21,1
910.71436,910.84784,54,19,1
910.8027,910.9374,56,20,1
910.8929,911.0259,54,18,1
910.9812,911.11664,56,22,1
911.0716,911.20447,54,19,1
911.16077,911.2925,56,21,1
911.2481,911.3826,54,19,1
911.3376,911.47034,56,21,1
911.42676,911.5606,54,18,1
911.5152,911.6502,56,21,1
911.6058,911.7386,54,18,1
911.6943,911.8282,56,22,1
911.78326,911.91907,54,19,1
911.8735,912.0113,56,22,1
911.96497,912.1048,54,18,1
912.05786,912.2768,53,20,1
912.24554,912.46295,54,23,1
912.4332,912.6115,53,25,1
914.9294,915.08997,29,27,1
915.05786,915.2185,30,22,1
915.18634,915.3478,32,22,1
915.3149,915.45984,30,27,1
915.412,915.55475,32,23,1
915.5074,915.64856,30,24,1
915.60175,915.7415,32,22,1
915.6952,915.8334,30,24,1
915.7876,915.9243,32,22,1
915.8789,916.0142,30,25,1
915.9694,916.10266,32,24,1
916.0584,916.1926,30,26,1
916.14764,916.28107,32,23,1
916.23706,916.36914,30,26,1
916.32495,916.4585,32,22,1
916.414,916.5468,30,25,1
916.50226,916.6379,32,23,1
916.59235,916.72675,30,24,1
916.6826,916.8187,32,22,1
916.7724,916.90826,30,26,1
916.864,916.9976,32,23,1
916.9526,917.0883,30,25,1
917.04315,917.1767,32,23,1
917.13293,917.2656,30,25,1
917.22095,917.3545,32,22,1
917.3103,917.4421,30,25,1
917.3981,917.53204,32,22,1
917.48724,917.62537,30,27,1
917.5782,917.7167,32,23,1
917.6716,917.808,30,26,1
917.76184,917.9013,32,22,1
917.85614,918.0727,29,22,1
918.03674,918.28516,30,18,1
918.25256,918.4481,29,23,1
921.31714,921.6998,50,29,1
921.6998,922.0826,53,25,1
921.31714,922.0826,46,24,1
922.0826,922.45447,50,30,1
922.45447,922.8354,53,25,1
922.0826,922.8354,46,25,1
922.8354,923.20734,48,27,1
923.20734,923.5892,53,24,1
922.8354,923.5892,46,21,1
923.5892,923.97186,50,30,1
923.97186,924.3602,53,24,1
923.5892,924.3602,46,25,1
924.3602,924.7348,51,29,1
924.7348,925.13214,53,23,1
924.3602,925.13214,46,24,1
925.13214,925.5041,52,30,1
925.5041,925.68616,53,23,1
925.8683,926.05035,53,23,1
926.2324,926.4145,53,23,1
926.5966,926.7787,53,23,1
926.96075,927.1428,53,23,1
925.13214,927.32495,46,25,1
927.32495,927.69165,51,29,1
927.69165,928.08636,50,24,1
927.32495,928.08636,46,24,1
928.08636,928.4583,51,27,1
928.4583,928.8356,53,22,1
928.08636,928.8356,41,23,1
928.8356,929.2075,51,26,1
929.2075,929.5848,53,22,1
928.8356,929.5848,41,23,1
929.5848,929.9576,51,26,1
929.9576,930.3431,53,23,1
929.5848,930.3431,41,23,1
930.3431,930.715,50,29,1
930.715,931.11804,48,22,1
930.3431,931.11804,41,24,1
931.11804,931.4953,50,30,1
931.4953,931.87256,53,27,1
931.87256,932.2498,51,29,1
932.2498,932.6387,55,25,1
932.6387,933.0186,50,26,1
933.0186,933.4098,53,27,1
931.11804,933.4098,46,25,1
933.4098,933.801,50,35,1
933.801,934.2206,58,30,1
933.4098,934.2206,46,25,1
934.5925,934.77716,58,28,1
934.96185,935.1439,58,29,1
935.326,935.50806,58,27,1
935.6902,935.87225,58,30,1
936.0543,936.2364,58,27,1
934.2206,936.4185,55,32,1
934.2206,936.4185,46,27,1
936.4185,936.78265,53,29,1
936.78265,937.171,51,27,1
936.4185,937.171,46,24,1
937.171,937.54297,53,29,1
937.54297,937.91486,50,25,1
937.171,937.91486,46,24,1
937.91486,938.2921,48,29,1
938.2921,938.6776,53,25,1
937.91486,938.6776,46,24,1
938.6776,939.05756,50,29,1
939.05756,939.4375,53,27,1
938.6776,939.4375,46,24,1
939.4375,939.8121,51,28,1
939.8121,940.2005,53,26,1
939.4375,940.2005,46,24,1
940.2005,940.586,50,28,1
940.586,940.9831,53,26,1
940.2005,940.9831,46,24,1
941.3802,941.7773,53,26,1
940.9831,941.7773,46,28,1
941.7773,942.5715,41,28,1
943.00433,943.165,29,24,1
943.1329,943.2935,30,19,1
943.26135,943.42426,32,19,1
943.3899,943.5613,30,24,1
943.49304,943.66315,32,20,1
943.5954,943.7642,30,21,1
943.69696,943.8645,32,19,1
943.7978,943.96405,30,21,1
943.8978,944.06134,32,19,1
943.99713,944.15674,30,22,1
944.09296,944.2532,32,21,1
944.1891,944.3472,30,23,1
944.28467,944.4422,32,20,1
944.3792,944.53485,30,23,1
944.47314,944.63055,32,19,1
944.5664,944.7244,30,22,1
944.66223,944.81854,32,20,1
944.7554,944.913,30,21,1
944.85046,945.0086,32,19,1
944.944,945.1033,30,23,1
945.04065,945.19855,32,20,1
945.13446,945.29193,30,22,1
945.23004,945.38696,32,20,1
945.3233,945.4809,30,22,1
945.41864,945.5749,32,19,1
945.5119,945.66943,30,22,1
945.6068,945.7648,32,19,1
945.7006,945.8621,30,24,1
945.7974,945.9578,32,20,1
945.89404,946.0537,30,23,1
945.9897,946.1478,32,19,1
946.0858,946.3075,29,19,1
946.2718,946.5187,30,16,1
946.4861,946.6817,29,20,1
948.8332,949.2159,50,29,1
949.2159,949.59863,53,25,1
948.8332,949.59863,46,24,1
949.59863,949.9705,50,30,1
949.9705,950.35144,53,25,1
949.59863,950.35144,46,25,1
950.35144,950.7234,48,27,1
950.7234,951.1052,53,24,1
950.35144,951.1052,46,21,1
951.1052,951.4879,50,30,1
951.4879,951.8763,53,24,1
951.1052,951.8763,46,25,1
951.8763,952.25085,51,29,1
952.25085,952.6392,53,23,1
951.8763,952.6392,46,24,1
952.6392,953.01117,52,30,1
953.01117,953.19324,53,23,1
953.3753,953.5574,53,23,1
953.7395,953.9216,53,23,1
954.10364,954.2857,53,23,1
954.46783,954.6499,53,23,1
952.6392,954.832,46,25,1
954.832,955.19867,51,29,1
955.19867,955.59344,50,24,1
954.832,955.59344,46,24,1
955.59344,955.96533,51,27,1
955.96533,956.3426,53,22,1
955.59344,956.3426,41,23,1
956.3426,956.71454,51,26,1
956.71454,957.0918,53,22,1
956.3426,957.0918,41,23,1
957.0918,957.46466,51,26,1
957.46466,957.85016,53,25,1
957.0918,957.85016,41,23,1
957.85016,958.22205,50,29,1
958.22205,958.62744,48,22,1
957.85016,958.62744,41,24,1
958.62744,959.0047,50,30,1
959.0047,959.38196,53,27,1
959.38196,959.7592,51,29,1
959.7592,960.1481,55,25,1
960.1481,960.528,50,26,1
960.528,960.9192,53,27,1
958.62744,960.9192,46,25,1
960.9192,961.3165,50,35,1
961.3165,961.789,53,30,1
960.9192,961.789,44,25,1
962.18115,962.3658,55,28,1
962.5505,962.73254,55,29,1
962.9146,963.09674,55,27,1
963.2788,963.4609,55,30,1
963.64294,963.8251,55,27,1
961.789,964.00714,53,32,1
961.789,964.00714,43,27,1
964.00714,964.3713,55,29,1
964.00714,964.3713,51,24,1
964.00714,964.3713,43,21,1
964.3713,964.738,55,27,1
964.3713,964.738,50,24,1
964.3713,964.738,43,21,1
964.738,965.0948,48,30,1
965.0948,965.4615,55,27,1
964.738,965.4615,43,25,1
965.4615,965.8257,53,29,1
965.8257,966.21545,55,25,1
965.4615,966.21545,43,25,1
966.21545,966.5874,51,25,1
966.5874,966.9786,55,26,1
966.21545,966.9786,43,24,1
966.9786,967.37854,51,35,1
967.37854,967.81024,54,30,1
966.9786,967.81024,42,25,1
968.1821,968.3668,53,28,1
968.55145,968.7335,53,29,1
968.91565,969.0977,53,27,1
969.2798,969.46185,53,30,1
969.644,969.82605,53,27,1
967.81024,970.0081,51,32,1
967.81024,970.0081,41,27,1
970.0081,970.3723,53,29,1
970.0081,970.3723,50,24,1
970.0081,970.3723,41,21,1
970.3723,970.7496,53,27,1
970.3723,970.7496,48,24,1
970.3723,970.7496,41,21,1
970.7496,971.1112,46,30,1
971.1112,971.48846,53,27,1
970.7496,971.48846,41,25,1
971.48846,971.85266,48,27,1
971.85266,972.24243,53,23,1
971.48846,972.24243,41,23,1
972.24243,972.6144,50,26,1
972.6144,973.00555,53,24,1
972.24243,973.00555,41,25,1
973.00555,973.3967,51,31,1
973.3967,973.7968,53,27,1
973.00555,973.7968,41,22,1
973.7968,975.3616,51,28,1
973.7968,975.3616,41,24,1
975.3616,975.75275,50,25,1
975.3616,975.75275,46,25,1
973.7968,975.75275,53,28,1
976.1439,976.5081,34,30,1
976.87225,977.0267,34,30,1
976.9754,977.1286,35,26,1
977.0778,977.22986,34,27,1
977.1794,977.33026,35,25,1
977.2802,977.42993,34,27,1
977.38025,977.5279,35,25,1
977.47955,977.623,34,28,1
977.5754,977.7196,35,27,1
977.6715,977.8138,34,29,1
977.767,977.909,35,26,1
977.86163,978.0017,34,29,1
977.9555,978.09686,35,25,1
978.0488,978.1914,34,28,1
978.14465,978.28516,35,26,1
978.2378,978.38,34,27,1
978.3328,978.4747,35,25,1
978.4264,978.5702,34,29,1
978.5231,978.6649,35,26,1
978.6169,978.7589,34,28,1
978.71246,978.8534,35,26,1
978.8057,978.9478,34,28,1
978.90106,979.0413,35,25,1
978.9943,979.13525,34,28,1
979.0892,979.22784,35,25,1
979.17786,979.41345,34,30,1
979.37946,979.6211,33,26,1
979.5861,979.83435,32,30,1
979.7984,980.05334,31,26,1
980.0163,980.12744,30,30,1
980.2385,980.4272,49,26,1
980.4272,980.61005,54,26,1
980.61005,980.7919,49,26,1
980.7919,980.9726,42,31,1
980.9726,981.1528,49,26,1
981.1528,981.3324,53,26,1
981.3324,981.51154,49,25,1
981.51154,981.69006,42,30,1
981.69006,981.8692,49,27,1
981.8692,982.0488,54,27,1
982.0488,982.2286,49,27,1
982.2286,982.40686,42,30,1
982.40686,982.58514,49,27,1
982.58514,982.7635,56,27,1
982.7635,982.9418,49,27,1
982.9418,983.1213,42,33,1
983.1213,983.3007,49,27,1
983.3007,983.4802,58,27,1
983.4802,983.6593,49,27,1
983.6593,983.8376,42,31,1
983.8376,984.0158,49,27,1
984.0158,984.1928,58,27,1
984.1928,984.3698,49,27,1
984.3698,984.54565,42,30,1
984.54565,984.72144,49,27,1
984.72144,984.89844,58,27,1
984.89844,985.07544,49,27,1
985.07544,985.25366,42,31,1
985.25366,985.43195,49,25,1
985.43195,985.61017,54,28,1
985.61017,985.78845,49,27,1
985.78845,985.9667,42,33,1
985.9667,986.14496,51,27,1
986.14496,986.3232,59,27,1
986.3232,986.50146,51,27,1
986.50146,986.6773,42,32,1
986.6773,986.85315,51,27,1
986.85315,987.02893,59,27,1
987.02893,987.2048,51,27,1
987.2048,987.3806,42,32,1
987.3806,987.55646,51,27,1
987.55646,987.73224,59,27,1
987.73224,987.9081,51,27,1
987.9081,988.0941,42,33,1
988.0941,988.2801,51,27,1
988.2801,988.4596,59,31,1
988.4596,988.6391,51,27,1
988.6391,988.8186,42,33,1
988.8186,988.9981,49,28,1
988.9981,989.17755,58,28,1
989.17755,989.35706,49,28,1
989.35706,989.53656,42,33,1
989.53656,989.7152,49,27,1
989.7152,989.89307,58,28,1
989.89307,990.06964,49,27,1
990.06964,990.2455,42,33,1
990.2455,990.4213,49,28,1
990.4213,990.61865,58,29,1
990.61865,990.81604,49,29,1
990.81604,990.99677,42,33,1
990.99677,991.1775,49,28,1
991.1775,991.3582,54,28,1
991.3582,991.53894,49,28,1
991.53894,991.7226,42,30,1
991.7226,991.90546,49,26,1
991.90546,992.0883,54,26,1
992.0883,992.2712,49,26,1
992.2712,992.4517,42,31,1
992.4517,992.6319,49,26,1
992.6319,992.81055,53,26,1
992.81055,992.98737,49,25,1
992.98737,993.16345,42,30,1
993.16345,993.34064,49,27,1
993.34064,993.51855,54,27,1
993.51855,993.6972,49,27,1
993.6972,993.8755,42,30,1
993.8755,994.05383,49,27,1
994.05383,994.2321,56,27,1
994.2321,994.4104,49,27,1
994.4104,994.5899,42,33,1
994.5899,994.7694,49,27,1
994.7694,994.94885,57,27,1
994.94885,995.1279,49,27,1
995.1279,995.3062,44,31,1
995.3062,995.48444,49,27,1
995.48444,995.66144,57,27,1
995.66144,995.83844,49,27,1
995.83844,996.0143,45,30,1
996.0143,996.1901,49,27,1
996.1901,996.36707,57,27,1
996.36707,996.54407,49,27,1
996.54407,996.72235,45,31,1
996.72235,996.9006,49,25,1
996.9006,997.07886,57,28,1
997.07886,997.2571,49,27,1
997.2571,997.43536,45,33,1
997.43536,997.6136,54,27,1
997.6136,997.7919,62,27,1
997.7919,997.9701,54,27,1
997.9701,998.14594,45,32,1
998.14594,998.3218,54,27,1
998.3218,998.49756,62,27,1
998.49756,998.6734,54,27,1
998.6734,998.84924,45,32,1
998.84924,999.0251,54,27,1
999.0251,999.2009,62,27,1
999.2009,999.3767,54,27,1
999.3767,999.5678,45,33,1
999.5678,999.7589,54,27,1
999.7589,999.9384,62,31,1
999.9384,1000.11786,54,27,1
1000.11786,1000.29736,45,33,1
1000.29736,1000.47687,52,28,1
1000.47687,1000.6564,61,28,1
1000.6564,1000.8358,52,28,1
1000.8358,1001.0153,45,33,1
1001.0153,1001.194,52,27,1
1001.194,1001.3718,61,28,1
1001.3718,1001.54846,52,27,1
1001.54846,1001.72424,45,33,1
1001.72424,1001.9001,52,28,1
1001.9001,1002.0767,61,29,1
1002.0767,1002.25366,52,29,1
1002.25366,1002.43195,45,33,1
1002.43195,1002.61017,52,27,1
1002.61017,1002.78845,57,31,1
1002.78845,1002.9667,52,27,1
1002.9667,1003.1425,45,33,1
1003.1425,1003.31836,54,28,1
1003.31836,1003.4942,62,28,1
1003.4942,1003.67004,54,28,1
1003.67004,1003.8458,45,33,1
1003.8458,1004.02167,54,29,1
1004.02167,1004.1975,62,29,1
1004.1975,1004.37335,54,29,1
1004.37335,1004.5516,45,33,1
1004.5516,1004.72986,52,28,1
1004.72986,1004.9081,56,28,1
1004.9081,1005.08636,52,27,1
1005.08636,1005.2646,45,31,1
1005.2646,1005.4429,52,27,1
1005.4429,1005.6211,59,28,1
1005.6211,1005.7994,52,28,1
1005.7994,1005.9788,45,33,1
1005.9788,1006.1583,52,28,1
1006.1583,1006.3378,57,28,1
1006.3378,1006.5163,52,28,1
1006.5163,1006.6918,45,33,1
1006.6918,1006.8652,52,27,1
1006.8652,1007.0366,61,28,1
1007.0366,1007.2061,52,27,1
1007.2061,1007.3756,45,33,1
1007.3756,1007.547,52,28,1
1007.547,1007.72046,61,29,1
1007.72046,1007.8959,52,29,1
1007.8959,1008.07416,45,33,1
1008.07416,1008.2524,52,27,1
1008.2524,1008.43066,61,31,1
1008.43066,1008.6089,52,27,1
1008.6089,1008.7847,45,33,1
1008.7847,1008.9606,54,28,1
1008.9606,1009.13635,62,28,1
1009.13635,1009.3122,54,28,1
1009.3122,1009.4856,45,33,1
1009.4856,1009.65906,54,29,1
1009.65906,1009.83246,62,29,1
1009.83246,1010.00586,54,29,1
1010.00586,1010.1841,45,33,1
1010.1841,1010.36237,52,28,1
1010.36237,1010.5406,56,28,1
1010.5406,1010.7189,52,27,1
1010.7189,1010.8971,45,31,1
1010.8971,1011.0754,52,27,1
1011.0754,1011.2536,59,28,1
1011.2536,1011.4319,52,28,1
1011.4319,1011.5157,45,33,1
1011.5995,1011.7671,61,28,1
1011.7671,1011.9405,57,28,1
1011.9405,1012.1139,61,28,1
1012.1139,1012.2806,57,33,1
1012.2806,1012.4472,61,29,1
1012.4472,1012.6196,57,29,1
1012.6196,1012.79205,61,29,1
1012.79205,1012.8727,45,33,1
1012.95337,1013.1146,61,28,1
1013.1146,1013.2795,57,28,1
1013.2795,1013.4443,61,27,1
1013.4443,1013.6055,57,31,1
1013.6055,1013.7667,61,27,1
1013.7667,1013.9313,57,28,1
1013.9313,1014.0959,61,28,1
1014.0959,1014.17645,45,33,1
1014.2571,1014.4183,62,28,1
1014.4183,1014.5813,57,28,1
1014.5813,1014.7444,62,28,1
1014.7444,1014.90393,57,33,1
1014.90393,1015.06354,62,29,1
1015.06354,1015.2248,57,29,1
1015.2248,1015.3861,62,29,1
1015.3861,1015.46423,45,33,1
1015.5424,1015.6987,62,28,1
1015.6987,1015.8587,57,28,1
1015.8587,1016.0187,62,27,1
1016.0187,1016.175,57,31,1
1016.175,1016.3313,62,27,1
1016.3313,1016.4942,57,28,1
1016.4942,1016.6571,62,28,1
1016.6571,1016.7377,45,33,1
1016.8183,1016.9795,61,28,1
1016.9795,1017.1385,57,28,1
1017.1385,1017.2975,61,28,1
1017.2975,1017.44525,57,33,1
1017.44525,1017.593,61,29,1
1017.593,1017.7458,57,29,1
1017.7458,1017.89856,61,29,1
1017.89856,1017.9724,45,33,1
1018.04626,1018.19403,61,28,1
1018.19403,1018.3468,57,28,1
1018.3468,1018.4996,61,27,1
1018.4996,1018.6488,57,31,1
1018.6488,1018.7981,61,27,1
1018.7981,1018.9519,57,28,1
1018.9519,1019.1058,61,28,1
1019.1058,1019.18304,45,33,1
1019.2603,1019.4148,62,28,1
1019.4148,1019.565,57,28,1
1019.565,1019.7153,62,28,1
1019.7153,1019.8655,57,33,1
1019.8655,1020.0157,62,29,1
1020.0157,1020.1702,57,29,1
1020.1702,1020.3247,62,29,1
1020.3247,1020.4011,45,33,1
1020.4775,1020.63025,62,28,1
1020.63025,1020.78656,57,28,1
1020.78656,1020.9429,62,27,1
1020.9429,1021.1001,57,31,1
1021.1001,1021.2573,62,27,1
1021.2573,1021.4202,57,28,1
1021.4202,1021.58307,62,28,1
1021.58307,1021.6617,45,33,1
1021.7403,1021.8975,61,28,1
1021.8975,1022.05115,57,28,1
1022.05115,1022.2048,61,28,1
1022.2048,1022.355,57,33,1
1022.355,1022.50525,61,29,1
1022.50525,1022.6606,57,29,1
1022.6606,1022.816,61,29,1
1022.816,1022.96875,57,33,1
1022.96875,1023.1215,61,28,1
1023.1215,1023.27783,57,28,1
1023.27783,1023.43414,61,27,1
1023.43414,1023.5923,57,31,1
1023.5923,1023.7504,61,27,1
1023.7504,1023.91235,57,28,1
1023.91235,1024.0742,61,28,1
1024.0742,1024.1533,45,33,1
1024.2324,1024.3905,61,28,1
1024.3905,1024.5459,57,28,1
1024.5459,1024.7013,61,28,1
1024.7013,1024.8531,57,33,1
1024.8531,1025.0051,61,29,1
1025.0051,1025.1605,57,29,1
1025.1605,1025.3159,61,29,1
1025.3159,1025.4669,57,33,1
1025.4669,1025.6179,61,28,1
1025.6179,1025.7751,57,28,1
1025.7751,1025.9324,61,27,1
1025.9324,1026.0852,57,31,1
1026.0852,1026.2379,61,27,1
1026.2379,1026.396,57,28,1
1026.396,1026.5542,61,28,1
1026.5542,1026.7114,57,33,1
1026.7114,1026.8687,61,28,1
1026.8687,1027.024,57,28,1
1027.024,1027.1794,61,28,1
1027.1794,1027.3348,57,33,1
1027.3348,1027.4902,61,29,1
1027.4902,1027.6492,57,29,1
1027.6492,1027.8082,61,30,1
1027.8082,1027.9683,57,34,1
1027.9683,1028.1284,61,29,1
1028.1284,1028.2919,57,29,1
1028.2919,1028.4552,61,28,1
1028.4552,1028.6165,57,33,1
1028.6165,1028.7777,61,29,1
1028.7777,1028.9423,57,30,1
1028.9423,1029.1068,61,30,1
1029.1068,1029.3384,45,34,1
1029.3384,1029.5582,57,31,1
1029.5698,1029.7898,45,25,1
1029.5698,1029.7898,57,31,1
1029.8014,1030.0212,57,35,1
1029.8014,1030.0212,45,29,1
1030.0328,1030.2528,57,31,1
1030.0328,1030.2528,45,25,1
1030.2644,1030.4843,57,33,1
1030.2644,1030.4843,45,27,1
1030.4958,1030.7158,57,37,1
1030.4958,1030.7158,45,31,1
1030.7274,1030.9464,57,35,1
1030.7274,1030.9464,45,29,1
1030.9579,1031.1755,57,35,1
1030.9579,1031.1755,45,29,1
1031.1869,1031.4027,57,38,1
1031.1869,1031.4027,55,32,1
1031.1869,1031.4027,52,32,1
1031.1869,1031.4027,45,32,1
1031.4141,1031.6284,57,35,1
1031.4141,1031.6284,55,32,1
1031.4141,1031.6284,52,32,1
1031.4141,1031.6284,45,28,1
1031.6398,1031.8524,57,35,1
1031.6398,1031.8524,55,32,1
1031.6398,1031.8524,52,33,1
1031.6398,1031.8524,45,29,1
1031.8636,1032.0753,57,40,1
1031.8636,1032.0753,55,33,1
1031.8636,1032.0753,52,33,1
1031.8636,1032.0753,45,33,1
1032.0864,1032.2981,57,36,1
1032.0864,1032.2981,55,33,1
1032.0864,1032.2981,52,34,1
1032.0864,1032.2981,45,30,1
1032.3092,1032.5222,57,37,1
1032.3092,1032.5222,55,33,1
1032.3092,1032.5222,52,35,1
1032.3092,1032.5222,45,30,1
1032.5334,1032.7465,57,44,1
1032.5334,1032.7465,55,44,1
1032.5334,1032.7465,52,36,1
1032.5334,1032.7465,45,36,1
1032.7577,1032.972,57,40,1
1032.7577,1032.972,55,44,1
1032.7577,1032.972,52,37,1
1032.7577,1032.972,45,33,1
1032.9834,1033.198,57,42,1
1032.9834,1033.198,55,45,1
1032.9834,1033.198,52,39,1
1032.9834,1033.198,45,34,1
1033.2094,1033.4258,57,48,1
1033.2094,1033.4258,55,48,1
1033.2094,1033.4258,52,40,1
1033.2094,1033.4258,45,40,1
1033.4373,1033.6572,57,44,1
1033.4373,1033.6572,55,49,1
1033.4373,1033.6572,52,41,1
1033.4373,1033.6572,45,37,1
1033.669,1033.8928,57,46,1
1033.669,1033.8928,55,49,1
1033.669,1033.8928,52,43,1
1033.669,1033.8928,45,37,1
1033.9048,1034.137,53,48,1
1033.9048,1034.137,50,48,1
1033.9048,1034.137,58,57,1
1033.9048,1034.137,46,48,1
1034.1493,1034.3815,53,48,1
1034.1493,1034.3815,50,48,1
1034.1493,1034.3815,58,52,1
1034.1493,1034.3815,46,42,1
1034.3937,1034.626,53,48,1
1034.3937,1034.626,50,48,1
1034.3937,1034.626,58,52,1
1034.3937,1034.626,46,42,1
1034.6382,1034.8813,58,63,1
1034.8813,1035.1262,53,58,1
1035.1262,1035.2513,53,58,1
1034.6382,1035.3765,41,63,1
1034.6382,1035.3765,46,63,1
1035.3765,1035.6196,51,62,1
1035.6196,1035.8672,53,58,1
1035.8672,1035.9933,53,58,1
1035.3765,1036.1157,46,62,1
1036.1157,1036.366,50,60,1
1036.366,1036.6179,53,58,1
1036.6179,1036.7449,53,58,1
1036.1157,1036.8718,46,60,1
1036.8718,1037.1167,51,61,1
1037.1167,1037.3661,53,58,1
1037.3661,1037.493,53,58,1
1036.8718,1037.6199,46,61,1
1037.6199,1037.863,52,60,1
1037.863,1038.1038,53,58,1
1038.1038,1038.2228,53,58,1
1038.3418,1038.58,53,60,1
1038.58,1038.8181,53,58,1
1038.8181,1038.9371,53,58,1
1039.0563,1039.2943,53,62,1
1039.2943,1039.5325,53,58,1
1039.5325,1039.7706,53,58,1
1037.6199,1039.7706,46,60,1
1039.7706,1040.0104,51,61,1
1040.0104,1040.2554,53,53,1
1040.2554,1040.5056,50,53,1
1039.7706,1040.5056,46,61,1
1040.5056,1040.7488,51,60,1
1040.7488,1040.9813,53,55,1
1040.9937,1041.228,53,55,1
1040.5056,1041.2404,41,60,1
1041.2404,1041.4835,51,60,1
1041.4835,1041.7161,53,56,1
1041.7284,1041.9628,53,56,1
1041.2404,1041.9751,41,60,1
1041.9751,1042.2191,51,62,1
1042.2191,1042.4541,53,58,1
1042.4667,1042.7062,53,58,1
1041.9751,1042.7188,41,62,1
1042.7188,1042.9619,50,62,1
1042.9619,1043.216,53,59,1
1043.216,1043.4763,48,59,1
1042.7188,1043.4763,41,62,1
1043.4763,1043.723,50,62,1
1043.723,1043.9573,53,56,1
1043.9696,1044.204,53,56,1
1044.2163,1044.4696,51,60,1
1044.4696,1044.7107,55,56,1
1044.7235,1044.9666,55,56,1
1044.9794,1045.2277,50,60,1
1045.2277,1045.467,53,56,1
1045.4797,1045.7228,53,57,1
1043.4763,1045.7356,46,62,1
1045.7356,1045.9988,50,59,1
1045.9988,1046.2627,53,54,1
1046.2773,1046.5568,53,54,1
1045.7356,1046.5715,44,59,1
1046.5715,1046.8147,53,59,1
1046.8147,1047.0449,55,53,1
1047.0569,1047.2863,55,53,1
1047.2983,1047.5365,53,56,1
1047.5365,1047.7648,55,53,1
1047.777,1048.0076,55,53,1
1048.0198,1048.2576,53,57,1
1048.2576,1048.4835,55,51,1
1048.4955,1048.7214,55,51,1
1046.5715,1048.7333,43,59,1
1048.7333,1048.9712,51,56,1
1048.9712,1049.2124,55,51,1
1049.2124,1049.4568,50,51,1
1048.7333,1049.4568,43,56,1
1049.4568,1049.6902,48,54,1
1049.6902,1049.9147,55,50,1
1049.9266,1050.1544,55,50,1
1049.4568,1050.1665,43,54,1
1050.1665,1050.4045,53,54,1
1050.4045,1050.6373,55,50,1
1050.6501,1050.8932,55,50,1
1050.1665,1050.9059,43,54,1
1050.9059,1051.149,51,55,1
1051.149,1051.3857,55,50,1
1051.3986,1051.6416,55,50,1
1050.9059,1051.6543,43,55,1
1051.6543,1051.9141,51,57,1
1051.9141,1052.169,54,52,1
1052.1829,1052.4468,54,52,1
1051.6543,1052.4606,42,57,1
1052.4606,1052.7037,51,58,1
1052.7037,1052.934,53,52,1
1052.946,1053.1754,53,52,1
1053.1875,1053.4257,51,56,1
1053.4257,1053.6519,53,52,1
1053.6637,1053.89,53,53,1
1053.9019,1054.14,51,57,1
1054.14,1054.3662,53,52,1
1054.3782,1054.6044,53,52,1
1052.4606,1054.6162,41,58,1
1054.6162,1054.8544,50,57,1
1054.8544,1055.0968,53,54,1
1055.0968,1055.3434,48,51,1
1054.6162,1055.3434,41,57,1
1055.3434,1055.58,46,58,1
1055.58,1055.8092,53,53,1
1055.8215,1056.0558,53,53,1
1055.3434,1056.0681,41,58,1
1056.0681,1056.3063,48,58,1
1056.3063,1056.5391,53,52,1
1056.5519,1056.7948,53,52,1
1056.0681,1056.8076,41,58,1
1056.8076,1057.0508,50,56,1
1057.0508,1057.2875,53,52,1
1057.3003,1057.5433,53,52,1
1056.8076,1057.556,41,56,1
1057.556,1057.8119,51,56,1
1057.8119,1058.0575,53,52,1
1058.0706,1058.319,53,52,1
1057.556,1058.332,41,56,1
1058.5879,1058.8258,53,50,1
1058.838,1059.0702,53,50,1
1059.0824,1059.3147,53,50,1
1059.3269,1059.5592,53,50,1
1059.5714,1059.8036,53,49,1
1058.332,1059.8158,51,51,1
1058.332,1059.8158,41,51,1
1059.8158,1060.0481,53,49,1
1060.0603,1060.2926,53,49,1
1060.3048,1060.537,53,49,1
1060.5493,1060.7815,53,48,1
1060.7937,1061.026,53,48,1
1061.0382,1061.2704,53,48,1
1061.5435,1061.7838,53,42,1
1061.7961,1062.0283,53,39,1
1062.0405,1062.2728,53,38,1
1062.285,1062.5172,53,38,1
1062.5295,1062.7617,53,37,1
1062.7739,1063.0062,53,37,1
1063.0184,1063.2507,53,36,1
1063.263,1063.4951,53,35,1
1063.5073,1063.7515,53,36,1
1063.7644,1064.0085,53,40,1
1064.0214,1064.2655,53,44,1
1061.2827,1064.2784,50,48,1
1061.2827,1064.2784,41,45,1
1064.2784,1064.5354,53,50,1
1064.5354,1064.7755,44,42,1
1064.7878,1065.0234,44,42,1
1065.0358,1065.2714,44,42,1
1065.2838,1065.5193,44,42,1
1065.5317,1065.7673,44,42,1
1065.7797,1066.0153,44,42,1
1066.0276,1066.2632,44,42,1
1066.2756,1066.5105,44,42,1
1066.5227,1066.7643,44,44,1
1066.7771,1067.0237,44,44,1
1067.0367,1067.2892,44,44,1
1067.3026,1067.571,44,49,1
1067.571,1067.8169,42,49,1
1067.8292,1068.0648,42,49,1
1068.0773,1068.3127,42,55,1
1068.3252,1068.5607,42,55,1
1068.5731,1068.8087,42,56,1
1068.821,1069.193,42,63,1
1069.565,1070.1768,42,65,1
1070.1768,1070.2488,39,59,1
1070.2488,1070.3359,38,61,1
1070.3359,1070.4232,37,59,1
1070.4232,1070.6406,35,65,1
1072.6652,1073.4014,66,42,1
1072.6652,1073.4014,59,42,1
1073.4014,1074.4863,66,42,1
1074.4863,1074.8544,64,38,1
1074.8544,1075.2238,62,41,1
1073.4014,1075.2238,59,42,1
1075.593,1076.3214,62,38,1
1075.593,1076.3214,59,38,1
1076.3214,1077.4138,62,41,1
1077.4138,1077.7832,61,41,1
1076.3214,1077.7832,59,41,1
1077.7832,1078.1525,59,44,1
1078.5219,1079.2605,59,34,1
1079.2605,1079.9589,59,41,1
1079.9589,1080.6588,61,42,1
1080.6588,1081.3446,62,47,1
1081.3446,1082.0547,64,37,1
1081.3446,1082.0547,57,31,1
1082.0547,1082.7605,66,47,1
1082.0547,1082.7605,62,39,1
1082.7605,1083.4828,66,45,1
1082.7605,1083.4828,61,38,1
1083.4828,1084.2214,66,46,1
1083.4828,1084.2214,59,38,1
1084.2214,1084.9601,67,39,1
1084.2214,1084.9601,57,33,1
1084.9601,1086.4374,67,39,1
1084.9601,1086.4374,57,33,1
1086.4374,1087.176,66,37,1
1086.4374,1087.176,58,30,1
1087.176,1087.9147,66,36,1
1087.176,1087.9147,59,30,1
1087.9147,1088.9996,66,42,1
1088.9996,1089.3677,64,38,1
1089.3677,1089.7369,62,41,1
1087.9147,1089.7369,59,32,1
1090.1063,1090.8346,62,38,1
1090.1063,1090.8346,59,32,1
1090.8346,1091.9271,62,41,1
1091.9271,1092.2965,61,41,1
1090.8346,1092.2965,59,34,1
1092.2965,1092.6658,59,44,1
1093.0352,1093.7738,59,34,1
1093.7738,1094.4796,59,41,1
1094.4796,1095.1794,61,42,1
1095.1794,1095.8732,62,47,1
1095.8732,1096.5917,64,37,1
1095.8732,1096.5917,57,31,1
1096.5917,1097.2935,66,47,1
1096.5917,1097.2935,62,39,1
1097.2935,1098.0137,66,45,1
1097.2935,1098.0137,61,38,1
1098.0137,1098.7523,66,46,1
1098.0137,1098.7523,59,38,1
1098.7523,1099.491,67,39,1
1098.7523,1099.491,57,33,1
1099.491,1100.9683,67,39,1
1099.491,1100.9683,57,33,1
1100.9683,1101.2145,66,37,1
1100.9683,1101.2145,62,37,1
1101.2145,1101.4484,69,29,1
1101.4607,1101.6946,69,29,1
1101.7069,1101.9374,69,33,1
1101.9495,1102.1799,69,29,1
1102.192,1102.4209,69,29,1
1102.4326,1102.6007,63,33,1
1102.6007,1102.7688,69,27,1
1102.7688,1102.9359,66,27,1
1102.9359,1103.1029,69,27,1
1103.1029,1103.2688,63,33,1
1103.2688,1103.4347,69,28,1
1103.4347,1103.6005,66,28,1
1103.6005,1103.7664,69,29,1
1103.7664,1103.9323,63,33,1
1103.9323,1104.0981,69,29,1
1104.0981,1104.264,66,29,1
1104.264,1104.4299,69,29,1
1104.4299,1104.5969,62,33,1
1104.5969,1104.7639,69,29,1
1104.7639,1104.9309,66,29,1
1104.9309,1105.0979,69,29,1
1105.0979,1105.2627,60,33,1
1105.2627,1105.4274,69,27,1
1105.4274,1105.5922,66,27,1
1105.5922,1105.7568,69,27,1
1105.7568,1105.9216,60,33,1
1105.9216,1106.0863,69,28,1
1106.0863,1106.2533,66,28,1
1106.2533,1106.4204,69,29,1
1106.4204,1106.5874,60,33,1
1106.5874,1106.7544,69,29,1
1106.7544,1106.9214,66,29,1
1106.9214,1107.0884,69,29,1
1107.0884,1107.2515,59,33,1
1107.2515,1107.4144,69,29,1
1107.4144,1107.5775,66,29,1
1107.5775,1107.7395,69,29,1
1107.7395,1107.8998,59,33,1
1107.8998,1108.0592,69,28,1
1108.0592,1108.2177,66,28,1
1108.2177,1108.3752,69,28,1
1108.3752,1108.5322,59,34,1
1108.5322,1108.6885,67,28,1
1108.6885,1108.8438,64,28,1
1108.8438,1108.9982,67,29,1
1108.9982,1109.1521,59,35,1
1109.1521,1109.3052,66,29,1
1109.3052,1109.4575,63,29,1
1109.4575,1109.609,66,29,1
1109.609,1109.7599,59,36,1
1109.7599,1109.9114,67,31,1
1109.9114,1110.0634,64,31,1
1110.0634,1110.216,67,31,1
1110.216,1110.3693,59,37,1
1110.3693,1110.5226,69,31,1
1110.5226,1110.676,66,32,1
1110.676,1110.8293,69,32,1
1110.8293,1110.9844,60,37,1
1110.9844,1111.1394,69,31,1
1111.1394,1111.2988,66,31,1
1111.2988,1111.4581,69,31,1
1111.4581,1111.6207,61,38,1
1111.6207,1111.7832,69,32,1
1111.7832,1111.9468,66,32,1
1111.9468,1112.1108,69,33,1
1112.1108,1112.2778,62,39,1
1112.2778,1112.4448,69,32,1
1112.4448,1112.6119,66,34,1
1112.6119,1112.7789,69,34,1
1112.7789,1112.9401,62,33,1
1112.9401,1113.1012,69,27,1
1113.1012,1113.2625,66,27,1
1113.2625,1113.4236,69,27,1
1113.4236,1113.5714,63,33,1
1113.5714,1113.7191,69,28,1
1113.7191,1113.867,66,28,1
1113.867,1114.0148,69,29,1
1114.0148,1114.1677,63,33,1
1114.1677,1114.3208,69,29,1
1114.3208,1114.4739,66,29,1
1114.4739,1114.627,69,29,1
1114.627,1114.7913,62,33,1
1114.7913,1114.9556,69,29,1
1114.9556,1115.12,66,29,1
1115.12,1115.2843,69,29,1
1115.2843,1115.4446,60,33,1
1115.4446,1115.6047,69,27,1
1115.6047,1115.765,66,27,1
1115.765,1115.9253,69,27,1
1115.9253,1116.0731,60,33,1
1116.0731,1116.2208,69,28,1
1116.2208,1116.3687,66,28,1
1116.3687,1116.5165,69,29,1
1116.5165,1116.6703,60,33,1
1116.6703,1116.8241,69,29,1
1116.8241,1116.978,66,29,1
1116.978,1117.1318,69,31,1
1117.1318,1117.2941,59,36,1
1117.2941,1117.4563,69,31,1
1117.4563,1117.6185,66,31,1
1117.6185,1117.7792,69,31,1
1117.7792,1117.935,59,36,1
1117.935,1118.0902,69,30,1
1118.0902,1118.2448,66,30,1
1118.2448,1118.3987,69,30,1
1118.3987,1118.5521,59,37,1
1118.5521,1118.7047,67,30,1
1118.7047,1118.8568,64,30,1
1118.8568,1119.0083,67,31,1
1119.0083,1119.1593,59,38,1
1119.1593,1119.3094,66,31,1
1119.3094,1119.4591,63,31,1
1119.4591,1119.6083,66,31,1
1119.6083,1119.7568,59,39,1
1119.7568,1119.9048,67,34,1
1119.9048,1120.0521,64,34,1
1120.0521,1120.1991,67,34,1
1120.1991,1120.3463,59,40,1
1120.3463,1120.4946,69,34,1
1120.4946,1120.6439,66,35,1
1120.6439,1120.7942,69,35,1
1120.7942,1120.9456,60,40,1
1120.9456,1121.0978,69,34,1
1121.0978,1121.2512,66,34,1
1121.2512,1121.4059,69,34,1
1121.4059,1121.5653,61,41,1
1121.5653,1121.7246,69,35,1
1121.7246,1121.884,66,35,1
1121.884,1122.0433,69,36,1
1122.0433,1122.2028,62,42,1
1122.2028,1122.362,69,35,1
1122.362,1122.5214,66,37,1
1122.5214,1122.6808,69,37,1
1122.6808,1122.8429,62,36,1
1122.8429,1123.0049,69,29,1
1123.0049,1123.167,66,29,1
1123.167,1123.3291,69,29,1
1123.3291,1123.4875,63,36,1
1123.4875,1123.646,69,30,1
1123.646,1123.8044,66,30,1
1123.8044,1123.963,69,31,1
1123.963,1124.1215,62,36,1
1124.1215,1124.2799,69,31,1
1124.2799,1124.4385,66,31,1
1124.4385,1124.5969,69,31,1
1124.5969,1124.7592,60,36,1
1124.7592,1124.9214,69,31,1
1124.9214,1125.0836,66,31,1
1125.0836,1125.2433,69,31,1
1125.2433,1125.3976,58,36,1
1125.3976,1125.5518,67,29,1
1125.5518,1125.7059,62,29,1
1125.7059,1125.8667,67,29,1
1125.8667,1126.0209,57,36,1
1126.0209,1126.175,67,30,1
1126.175,1126.3292,60,30,1
1126.3292,1126.4835,67,31,1
1126.4835,1126.642,55,36,1
1126.642,1126.8004,67,31,1
1126.8004,1126.9589,58,31,1
1126.9589,1127.1174,67,31,1
1127.1174,1127.2759,58,36,1
1127.2759,1127.4343,67,31,1
1127.4343,1127.5928,62,31,1
1127.5928,1127.7513,67,31,1
1127.7513,1127.9125,62,36,1
1127.9125,1128.0737,69,29,1
1128.0737,1128.235,66,29,1
1128.235,1128.3962,69,29,1
1128.3962,1128.5554,63,36,1
1128.5554,1128.7146,69,30,1
1128.7146,1128.8738,66,30,1
1128.8738,1129.033,69,31,1
1129.033,1129.1921,62,36,1
1129.1921,1129.3514,69,31,1
1129.3514,1129.5106,66,31,1
1129.5106,1129.6698,69,31,1
1129.6698,1129.8368,60,37,1
1129.8368,1130.0038,69,32,1
1130.0038,1130.1709,66,32,1
1130.1709,1130.3379,69,32,1
1130.3379,1130.4974,58,37,1
1130.4974,1130.6566,70,31,1
1130.6566,1130.8158,67,32,1
1130.8158,1130.974,70,32,1
1130.974,1131.1322,58,39,1
1131.1322,1131.2898,70,34,1
1131.2898,1131.447,67,34,1
1131.447,1131.604,70,35,1
1131.604,1131.7603,58,42,1
1131.7603,1131.9165,70,37,1
1131.9165,1132.0728,67,37,1
1132.0728,1132.229,70,37,1
1132.229,1132.3853,58,44,1
1132.3853,1132.5416,72,39,1
1132.5416,1132.6979,68,40,1
1132.6979,1132.8541,72,40,1
1132.8541,1133.0104,58,48,1
1133.0104,1133.1666,70,38,1
1133.1666,1133.3229,67,38,1
1133.3229,1133.4791,70,38,1
1133.4791,1133.6355,58,47,1
1133.6355,1133.7917,68,39,1
1133.7917,1133.948,65,39,1
1133.948,1134.1042,68,39,1
1134.1042,1134.2605,58,42,1
1134.2605,1134.4167,67,36,1
1134.4167,1134.573,63,36,1
1134.573,1134.7292,67,37,1
1134.7292,1134.8856,58,42,1
1134.8856,1135.0419,65,35,1
1135.0419,1135.1981,61,35,1
1135.1981,1135.3544,65,35,1
1135.3544,1135.5106,58,35,1
1135.5106,1135.6669,64,29,1
1135.6669,1135.8231,61,29,1
1135.8231,1135.9797,64,29,1
1135.9797,1136.137,58,34,1
1136.137,1136.2943,64,29,1
1136.2943,1136.4515,61,29,1
1136.4515,1136.6094,64,29,1
1136.6094,1136.7676,58,33,1
1136.7676,1136.9258,64,29,1
1136.9258,1137.084,61,29,1
1137.084,1137.2433,64,29,1
1137.2433,1137.4025,58,33,1
1137.4025,1137.5616,64,29,1
1137.5616,1137.7212,61,29,1
1137.7212,1137.8813,64,29,1
1137.8813,1138.0416,58,31,1
1138.0416,1138.2018,64,27,1
1138.2018,1138.3619,61,27,1
1138.3619,1138.5222,64,27,1
1138.5222,1138.6824,58,32,1
1138.6824,1138.8427,64,27,1
1138.8427,1139.0028,61,27,1
1139.0028,1139.163,64,27,1
1139.163,1139.3232,57,32,1
1139.3232,1139.4834,64,26,1
1139.4834,1139.6437,61,26,1
1139.6437,1139.8038,64,26,1
1139.8038,1139.964,55,31,1
1139.964,1140.1243,64,26,1
1140.1243,1140.2844,61,26,1
1140.2844,1140.4447,64,26,1
1140.4447,1140.5989,53,31,1
1140.5989,1140.753,65,24,1
1140.753,1140.9072,62,24,1
1140.9072,1141.0614,65,24,1
1141.0614,1141.2206,53,30,1
1141.2206,1141.3799,67,25,1
1141.3799,1141.5391,63,25,1
1141.5391,1141.6982,67,26,1
1141.6982,1141.8574,53,29,1
1141.8574,1142.0166,65,26,1
1142.0166,1142.1759,62,26,1
1142.1759,1142.3351,65,26,1
1142.3351,1142.479,53,30,1
1142.479,1142.6179,67,26,1
1142.6179,1142.7548,63,26,1
1142.7548,1142.9149,67,26,1
1142.9149,1143.07,53,31,1
1143.07,1143.2251,65,24,1
1143.2251,1143.3801,62,24,1
1143.3801,1143.5352,65,24,1
1143.5352,1143.6943,53,30,1
1143.6943,1143.8535,67,25,1
1143.8535,1144.0127,63,25,1
1144.0127,1144.1719,67,26,1
1144.1719,1144.3312,53,29,1
1144.3312,1144.4904,65,26,1
1144.4904,1144.6495,62,26,1
1144.6495,1144.8087,65,26,1
1144.8087,1144.971,53,30,1
1144.971,1145.1332,67,26,1
1145.1332,1145.2955,63,26,1
1145.2955,1145.4578,67,26,1
1145.4578,1145.6189,53,31,1
1145.6189,1145.7802,65,24,1
1145.7802,1145.9414,62,24,1
1145.9414,1146.1027,65,24,1
1146.1027,1146.2618,53,30,1
1146.2618,1146.421,67,26,1
1146.421,1146.5802,63,26,1
1146.5802,1146.7394,67,27,1
1146.7394,1146.8987,53,30,1
1146.8987,1147.0579,65,27,1
1147.0579,1147.217,62,28,1
1147.217,1147.3762,65,28,1
1147.3762,1147.5201,53,33,1
1147.5201,1147.6583,67,28,1
1147.6583,1147.7946,63,28,1
1147.7946,1147.9563,67,28,1
1147.9563,1148.1113,53,34,1
1148.1113,1148.2664,65,26,1
1148.2664,1148.4214,62,26,1
1148.4214,1148.5764,65,26,1
1148.5764,1148.7357,53,33,1
1148.7357,1148.8949,67,27,1
1148.8949,1149.0541,63,27,1
1149.0541,1149.2133,67,28,1
1149.2133,1149.3724,53,31,1
1149.3724,1149.5316,65,28,1
1149.5316,1149.6909,62,28,1
1149.6909,1149.8501,65,28,1
1149.8501,1150.0133,53,36,1
1150.0133,1150.1766,67,30,1
1150.1766,1150.34,63,30,1
1150.34,1150.5033,67,30,1
1150.5033,1150.6625,53,42,1
1150.6625,1150.8217,65,35,1
1150.8217,1150.9808,62,35,1
1150.9808,1151.14,65,35,1
1151.14,1151.2972,53,44,1
1151.2972,1151.4546,67,37,1
1151.4546,1151.6118,63,38,1
1151.6118,1151.769,67,37,1
1151.769,1151.9263,53,47,1
1151.9263,1152.0835,65,37,1
1152.0835,1152.2408,62,38,1
1152.2408,1152.3981,65,38,1
1152.3981,1152.5635,53,49,1
1152.5635,1152.7289,65,40,1
1152.7289,1152.8943,63,40,1
1152.8943,1153.0597,65,40,1
1153.0597,1155.6647,63,41,1
1153.0597,1155.6647,65,49,1
1153.0597,1155.6647,53,41,1
1155.6647,1156.298,65,38,1
1155.6647,1156.298,62,32,1
1155.6647,1156.298,58,32,1
1156.9017,1157.2084,65,35,1
1156.9017,1157.2084,62,29,1
1156.9017,1157.2084,58,29,1
1157.5151,1157.8303,68,35,1
1157.5151,1157.8303,65,29,1
1157.5151,1157.8303,58,29,1
1158.1456,1158.7732,67,38,1
1158.1456,1158.7732,63,32,1
1158.1456,1158.7732,58,32,1
1159.3801,1159.6836,67,35,1
1159.3801,1159.6836,63,29,1
1159.3801,1159.6836,58,29,1
1159.987,1160.2971,70,35,1
1159.987,1160.2971,67,29,1
1159.987,1160.2971,58,29,1
1160.6072,1161.2367,65,38,1
1160.6072,1161.2367,62,32,1
1160.6072,1161.2367,58,32,1
1161.8436,1162.1471,62,35,1
1161.8436,1162.1471,58,29,1
1162.4506,1162.7572,65,35,1
1162.4506,1162.7572,62,29,1
1163.064,1163.3706,65,35,1
1163.064,1163.3706,62,29,1
1163.064,1163.3706,53,29,1
1163.6774,1163.9891,63,28,1
1163.6774,1163.9891,67,34,1
1163.6774,1163.9891,53,28,1
1164.3009,1164.6127,65,33,1
1164.3009,1164.6127,62,28,1
1164.3009,1164.6127,53,28,1
1164.9244,1165.2361,63,34,1
1164.9244,1165.2361,60,28,1
1164.9244,1165.2361,53,28,1
1165.5479,1165.8596,62,35,1
1165.5479,1165.8596,59,29,1
1165.5479,1165.8596,53,29,1
1166.1714,1166.4832,59,28,1
1166.1714,1166.4832,62,35,1
1166.1714,1166.4832,53,28,1
1166.7949,1167.1067,62,35,1
1166.7949,1167.1067,59,29,1
1166.7949,1167.1067,53,29,1
1167.4185,1167.7301,62,37,1
1167.4185,1167.7301,59,31,1
1167.4185,1167.7301,53,31,1
1168.0419,1168.354,63,40,1
1168.0419,1168.354,58,33,1
1168.0419,1168.354,51,33,1
1168.6683,1168.985,58,31,1
1168.6683,1168.985,63,38,1
1168.6683,1168.985,51,31,1
1169.3043,1169.626,62,37,1
1169.3043,1169.626,58,31,1
1169.3043,1169.626,53,31,1
1169.9504,1170.2773,63,38,1
1169.9504,1170.2773,60,31,1
1169.9504,1170.2773,53,31,1
1170.6072,1170.8275,58,47,1
1170.8275,1171.0374,65,44,1
1171.0374,1171.1384,62,44,1
1171.2396,1171.3408,58,47,1
1171.4419,1171.5431,53,43,1
1171.6443,1171.7454,50,41,1
1171.8466,1171.9482,46,45,1
1172.0499,1172.1516,50,41,1
1172.2533,1172.355,53,41,1
1172.4568,1172.5609,50,47,1
1172.6648,1172.7688,53,45,1
1172.8727,1172.9766,58,45,1
1173.0806,1173.2942,58,47,1
1173.2942,1173.5022,67,44,1
1173.5022,1173.6034,63,44,1
1173.7045,1173.8057,58,47,1
1173.9067,1174.0079,55,43,1
1174.1091,1174.2102,51,41,1
1174.3114,1174.4137,46,45,1
1174.5159,1174.6182,51,41,1
1174.7203,1174.8226,55,41,1
1174.9248,1175.0288,51,47,1
1175.1327,1175.2366,55,45,1
1175.3405,1175.4445,58,45,1
1175.5483,1175.7657,58,47,1
1175.7657,1175.9755,70,44,1
1175.9755,1176.0767,65,44,1
1176.1779,1176.2789,62,47,1
1176.3801,1176.4813,58,43,1
1176.5824,1176.6836,53,41,1
1176.7848,1176.8876,50,45,1
1176.9904,1177.0931,46,41,1
1177.1959,1177.2987,41,41,1
1177.4015,1177.506,46,47,1
1177.6105,1177.715,50,45,1
1177.8195,1177.924,53,45,1
1178.0284,1178.3368,65,35,1
1178.0284,1178.3368,62,29,1
1178.0284,1178.3368,53,29,1
1178.6451,1178.9536,75,28,1
1178.6451,1178.9536,79,34,1
1178.6451,1178.9536,65,28,1
1179.262,1179.5703,77,33,1
1179.262,1179.5703,74,28,1
1179.262,1179.5703,65,28,1
1179.8788,1180.1871,75,34,1
1179.8788,1180.1871,72,28,1
1179.8788,1180.1871,65,28,1
1180.4955,1180.809,74,35,1
1180.4955,1180.809,71,29,1
1180.4955,1180.809,65,29,1
1181.1224,1181.4359,71,28,1
1181.1224,1181.4359,74,35,1
1181.1224,1181.4359,65,28,1
1181.7493,1182.0627,74,35,1
1181.7493,1182.0627,71,29,1
1181.7493,1182.0627,65,29,1
1182.3762,1182.6897,74,37,1
1182.3762,1182.6897,71,31,1
1182.3762,1182.6897,65,31,1
1183.003,1183.318,75,40,1
1183.003,1183.318,70,33,1
1183.003,1183.318,63,33,1
1183.6342,1183.9517,70,31,1
1183.6342,1183.9517,75,38,1
1183.6342,1183.9517,63,31,1
1184.2704,1184.5908,74,37,1
1184.2704,1184.5908,70,31,1
1184.2704,1184.5908,65,31,1
1184.913,1185.2362,75,38,1
1184.913,1185.2362,72,31,1
1184.913,1185.2362,65,31,1
1185.5609,1185.8851,60,31,1
1185.5609,1185.8851,57,26,1
1185.5609,1185.8851,51,26,1
1186.2092,1186.5333,57,25,1
1186.2092,1186.5333,60,31,1
1186.2092,1186.5333,51,25,1
1186.8575,1187.1816,60,31,1
1186.8575,1187.1816,57,26,1
1186.8575,1187.1816,51,26,1
1187.5059,1187.83,60,33,1
1187.5059,1187.83,57,27,1
1187.5059,1187.83,51,27,1
1188.1542,1188.4783,61,36,1
1188.1542,1188.4783,56,29,1
1188.1542,1188.4783,49,29,1
1188.8046,1189.133,56,27,1
1188.8046,1189.133,61,34,1
1188.8046,1189.133,49,27,1
1189.4642,1189.7975,60,33,1
1189.4642,1189.7975,56,27,1
1189.4642,1189.7975,51,27,1
1190.1338,1190.4723,61,34,1
1190.1338,1190.4723,58,27,1
1190.1338,1190.4723,51,27,1
1192.1174,1192.4415,71,31,1
1192.7656,1193.0898,68,33,1
1193.414,1193.7382,73,33,1
1194.0645,1194.393,73,31,1
1195.3875,1195.7173,49,29,1
1196.0471,1196.3846,49,29,1
1197.3973,1197.7411,50,26,1
1198.0847,1198.4576,50,26,1
1199.522,1199.8536,62,26,1
1200.1853,1200.5171,63,27,1
1200.8488,1201.1805,51,30,1
1201.5244,1201.86,53,33,1
1202.1969,1202.5352,53,35,1
1202.887,1203.232,53,35,1
1202.887,1203.232,60,35,1
1202.887,1203.232,63,41,1
1203.5822,1203.9376,63,42,1
1203.5822,1203.9376,60,36,1
1203.5822,1203.9376,53,36,1
1204.3159,1204.4943,58,42,1
1204.3159,1204.4943,46,36,1
1204.3159,1204.4943,53,36,1
1205.7423,1206.7672,62,36,1
1206.7672,1207.1354,63,36,1
1206.7672,1207.1354,60,30,1
1205.7423,1207.1354,65,44,1
1207.1354,1207.8312,62,44,1
1207.1354,1207.8312,58,36,1
1207.8312,1208.527,62,45,1
1207.8312,1208.527,56,38,1
1208.527,1209.2228,62,48,1
1208.527,1209.2228,55,40,1
1209.2228,1209.9388,60,44,1
1209.2228,1209.9388,55,37,1
1209.2228,1209.9388,48,37,1
1209.9388,1211.3135,63,49,1
1209.9388,1211.3135,53,41,1
1211.3135,1211.492,62,38,1
1211.3135,1211.492,58,32,1
1212.037,1212.2186,62,34,1
1212.037,1212.2186,58,28,1
1214.1901,1214.5275,53,42,1
1214.1901,1215.2151,50,35,1
1215.2151,1215.5831,51,36,1
1215.2151,1215.5831,48,30,1
1215.5831,1216.2789,50,44,1
1215.5831,1216.2789,46,36,1
1216.2789,1216.9747,50,45,1
1216.2789,1216.9747,44,38,1
1216.9747,1217.5621,50,48,1
1216.9747,1217.5621,43,40,1
1217.6066,1218.0496,48,40,1
1217.5841,1218.0496,43,37,1
1217.5621,1218.0496,36,35,1
1219.1538,1219.8539,63,53,1
1219.1538,1219.8539,58,45,1
1219.8539,1220.4479,63,59,1
1219.8539,1220.4479,56,49,1
1220.4705,1220.9277,56,52,1
1220.4937,1220.9423,61,56,1
1220.4479,1220.9423,49,49,1
1221.9888,1222.6095,52,84,1
1221.9888,1222.6095,49,70,1
1221.9888,1222.6095,45,70,1
1222.6586,1223.1158,50,77,1
1222.6338,1223.1158,45,73,1
1222.6095,1223.1158,38,70,1
1224.1624,1225.5371,68,58,1
1224.1624,1225.5371,58,49,1
1225.5371,1225.7163,67,45,1
1225.5371,1225.7163,63,38,1
1226.2649,1226.4617,67,40,1
1226.2649,1226.4617,63,33,1
1227.0518,1229.265,70,45,1
1227.0518,1229.265,63,38,1
1232.8309,1234.2057,51,39,1
1232.8309,1234.2057,41,33,1
1234.2057,1234.3849,50,36,1
1234.2057,1234.3849,46,30,1
1234.9335,1235.1301,50,32,1
1234.9335,1235.1301,46,24,1
1235.7203,1238.0809,53,36,1
1235.7203,1238.0809,46,30,1
1238.8679,1240.2426,68,58,1
1238.8679,1240.2426,58,49,1
1240.2426,1240.4218,67,45,1
1240.2426,1240.4218,63,38,1
1240.9703,1241.1671,67,48,1
1240.9703,1241.1671,63,39,1
1251.01,1252.4323,63,32,1
1251.01,1252.4323,53,24,1
1252.4323,1252.6187,62,32,1
1252.4323,1252.6187,58,27,1
1253.1779,1253.3817,62,28,1
1253.1779,1253.3817,58,21,1
1253.993,1256.055,65,32,1
1253.993,1256.055,58,27,1
1256.7424,1258.8046,65,41,1
1256.7424,1258.8046,62,35,1
1256.7424,1258.8046,56,35,1
1259.492,1262.3689,55,34,1
1259.492,1262.3689,62,34,1
1259.492,1262.3689,65,41,1
1262.3689,1263.0911,60,28,1
1262.3689,1263.0911,63,34,1
1265.2727,1265.636,60,36,1
1266.0189,1266.5782,60,36,1
1266.5782,1266.7646,62,31,1
1266.0189,1266.7646,53,30,1
1266.7646,1267.5409,63,32,1
1266.7646,1267.5409,53,28,1
1267.5409,1268.3539,60,32,1
1267.5409,1268.3539,53,27,1
1268.3539,1268.7734,58,36,1
1268.3539,1268.7734,46,30,1
1269.193,1271.255,53,32,1
1269.193,1271.255,46,27,1
1271.9424,1274.0045,53,41,1
1271.9424,1274.0045,44,35,1
1274.0045,1276.8813,43,34,1
1274.0045,1276.8813,50,34,1
1274.0045,1276.8813,53,41,1
1276.8813,1277.6036,48,25,1
1276.8813,1277.6036,51,30,1
1279.8123,1280.1901,48,32,1
1280.5919,1281.1702,48,32,1
1281.1702,1281.3629,50,27,1
1280.5919,1281.3629,41,27,1
1281.3629,1282.1554,51,28,1
1281.3629,1282.1554,41,25,1
1282.1554,1283.0046,48,28,1
1282.1554,1283.0046,41,24,1
1283.0046,1283.3928,50,34,1
1283.3928,1283.5829,53,26,1
1283.0046,1283.7728,46,28,1
1283.7728,1283.9629,53,26,1
1284.153,1284.3429,53,26,1
1284.533,1284.723,53,26,1
1284.913,1285.103,53,26,1
1285.293,1285.6731,50,26,1
1285.6731,1286.0531,53,22,1
1285.293,1286.0531,41,21,1
1286.0531,1286.4331,50,27,1
1286.4331,1286.8292,53,22,1
1286.0531,1286.8292,41,22,1
1286.8292,1287.2174,48,24,1
1287.2174,1287.616,53,21,1
1286.8292,1287.616,41,18,1
1287.616,1288.0153,50,27,1
1288.0153,1288.4205,53,21,1
1287.616,1288.4205,41,22,1
1288.4205,1288.8114,51,26,1
1288.8114,1289.2252,53,20,1
1288.4205,1289.2252,41,21,1
1289.2252,1289.6133,50,27,1
1289.6133,1289.8033,53,20,1
1289.9934,1290.1833,53,20,1
1290.3734,1290.5635,53,20,1
1289.2252,1290.7534,46,22,1
1290.7534,1290.9435,53,20,1
1291.1334,1291.3235,53,20,1
1291.5135,1291.8936,46,26,1
1291.8936,1292.2736,53,22,1
1291.5135,1292.2736,41,21,1
1292.2736,1292.6536,46,27,1
1292.6536,1293.0498,53,23,1
1292.2736,1293.0498,41,22,1
1293.0498,1293.4379,45,25,1
1293.4379,1293.8364,53,22,1
1293.0498,1293.8364,41,19,1
1293.8364,1294.2357,46,28,1
1294.2357,1294.641,53,23,1
1293.8364,1294.641,41,24,1
1294.641,1295.0319,48,28,1
1295.0319,1295.4591,53,22,1
1294.641,1295.4591,41,23,1
1295.8473,1296.0374,53,20,1
1296.2273,1296.4174,53,20,1
1296.6073,1296.7974,53,20,1
1295.4591,1296.9874,46,22,1
1296.9874,1297.1774,53,20,1
1297.3674,1297.5575,53,20,1
1297.7474,1298.1356,50,26,1
1298.1356,1298.5238,53,22,1
1297.7474,1298.5238,41,21,1
1298.5238,1298.9119,50,27,1
1298.9119,1299.3094,53,22,1
1298.5238,1299.3094,41,22,1
1299.3094,1299.6975,48,24,1
1299.6975,1300.0961,53,21,1
1299.3094,1300.0961,41,18,1
1300.0961,1300.4954,50,27,1
1300.4954,1300.9006,53,21,1
1300.0961,1300.9006,41,22,1
1300.9006,1301.3262,51,26,1
1301.3262,1301.818,53,20,1
1300.9006,1301.818,41,21,1
1301.818,1304.5812,53,27,1
1301.818,1304.5812,51,22,1
1301.818,1304.5812,41,22,1
1304.5812,1304.7853,29,20,1
1304.7172,1304.9213,30,16,1
1304.8533,1305.0607,32,16,1
1304.9893,1305.1671,30,20,1
1305.0963,1305.2727,32,17,1
1305.2025,1305.3776,30,18,1
1305.3079,1305.4816,32,16,1
1305.4124,1305.5848,30,18,1
1305.5161,1305.6857,32,16,1
1305.6191,1305.7847,30,18,1
1305.7185,1305.8846,32,18,1
1305.8182,1305.9822,30,19,1
1305.9174,1306.0807,32,17,1
1306.0154,1306.1768,30,19,1
1306.1128,1306.276,32,16,1
1306.2096,1306.3734,30,18,1
1306.309,1306.4711,32,17,1
1306.4055,1306.569,30,17,1
1306.5042,1306.6681,32,16,1
1306.6011,1306.7664,30,18,1
1306.7014,1306.8651,32,17,1
1306.7987,1306.962,30,18,1
1306.8978,1307.0605,32,16,1
1306.9945,1307.158,30,18,1
1307.0934,1307.2555,32,15,1
1307.1902,1307.3535,30,18,1
1307.2886,1307.4524,32,15,1
1307.3859,1307.5533,30,19,1
1307.4863,1307.6526,32,16,1
1307.5864,1307.7521,30,18,1
1307.6857,1307.8497,32,15,1
1307.7854,1308.0485,29,18,1
1307.9783,1308.2542,30,14,1
1308.189,1308.3845,29,18,1
1309.7537,1310.5361,53,29,1
1309.7537,1310.5361,48,25,1
1309.7537,1310.5361,41,25,1
1311.3185,1312.1008,53,30,1
1311.3185,1312.1008,46,25,1
1314.4479,1315.2303,58,28,1
1314.4479,1315.2303,50,24,1
1314.4479,1315.2303,34,24,1
1314.4479,1315.2303,46,24,1
1314.4479,1315.2303,53,24,1
1317.5774,1321.5641,58,28,1
1317.5774,1321.5641,50,24,1
1317.5774,1321.5641,34,24,1
1317.5774,1321.5641,46,24,1
1317.5774,1321.5641,53,24,1
