start_time,end_time,note_value,velocity,instrument_program_number
0.0,0.2308935,82,54,1
0.2308935,0.461787,81,47,1
0.461787,0.6926805,82,47,1
0.6926805,0.9208175,79,51,1
0.9208175,1.0339737,81,46,1
1.0339737,1.14713,82,47,1
1.14713,1.2602862,84,49,1
1.2602862,1.3734425,86,50,1
1.3734425,1.60252,82,53,1
1.60252,1.7156763,84,54,1
1.7156763,1.8288325,82,47,1
1.8288325,1.9419887,81,51,1
1.9419887,2.055145,79,47,1
2.055145,2.1131136,77,56,1
2.28702,2.3449888,77,51,1
2.518895,2.578221,77,50,1
2.756199,2.9880385,78,61,1
2.9880385,3.219878,90,57,1
3.219878,3.278975,90,57,1
3.456266,3.6881056,91,65,1
3.6881056,3.919945,79,51,1
3.919945,3.9779048,79,51,1
4.1517844,4.2097445,81,53,1
4.3546443,4.383624,94,46,1
4.383624,4.4967804,93,52,1
4.4967804,4.6099367,91,51,1
4.6099367,4.839014,93,52,1
4.839014,4.896283,94,54,1
5.039457,5.0680914,84,45,1
5.0680914,5.1812477,82,51,1
5.1812477,5.294404,81,47,1
5.294404,5.4154496,82,51,1
5.5364957,5.652865,74,40,1
5.5364957,5.652865,70,34,1
5.652865,5.769234,77,35,1
5.769234,5.8856034,74,41,1
5.769234,5.8856034,70,34,1
5.8856034,6.0019727,77,34,1
6.0019727,6.118342,70,34,1
6.0019727,6.118342,74,41,1
6.118342,6.234711,77,35,1
6.234711,6.3487797,74,42,1
6.234711,6.3487797,70,35,1
6.3487797,6.462848,79,35,1
6.462848,6.576004,74,41,1
6.462848,6.576004,70,34,1
6.576004,6.6891603,79,34,1
6.6891603,6.8023167,74,41,1
6.6891603,6.8023167,70,34,1
6.8023167,6.915473,79,34,1
6.915473,7.0300117,74,44,1
6.915473,7.0300117,70,37,1
7.0300117,7.1445503,77,35,1
7.1445503,7.2577066,74,41,1
7.1445503,7.2577066,70,34,1
7.2577066,7.370863,77,34,1
7.370863,7.4840193,70,34,1
7.370863,7.4840193,74,41,1
7.4840193,7.5971756,77,34,1
7.5971756,7.713113,69,39,1
7.5971756,7.713113,75,47,1
7.713113,7.8290505,77,35,1
7.8290505,7.944988,69,34,1
7.8290505,7.944988,75,41,1
7.944988,8.0609255,77,37,1
8.0609255,8.179119,69,34,1
8.0609255,8.179119,75,41,1
8.179119,8.297314,77,35,1
8.297314,8.413233,75,45,1
8.297314,8.413233,69,38,1
8.413233,8.529153,81,35,1
8.529153,8.645073,75,41,1
8.529153,8.645073,69,34,1
8.645073,8.760992,81,35,1
8.760992,8.879644,75,41,1
8.760992,8.879644,69,34,1
8.879644,8.998297,81,35,1
8.998297,9.114216,70,37,1
8.998297,9.114216,75,44,1
9.114216,9.230136,82,35,1
9.230136,9.346056,75,41,1
9.230136,9.346056,70,34,1
9.346056,9.461975,81,35,1
9.461975,9.577895,75,41,1
9.461975,9.577895,70,34,1
9.577895,9.693815,79,35,1
9.693815,9.809734,74,41,1
9.693815,9.809734,68,34,1
9.809734,9.925654,77,35,1
9.925654,10.038811,74,41,1
9.925654,10.038811,68,34,1
10.038811,10.151967,77,35,1
10.151967,10.274938,68,34,1
10.151967,10.274938,74,41,1
10.274938,10.397909,77,35,1
10.397909,10.513356,67,34,1
10.397909,10.513356,75,41,1
10.513356,10.628802,79,35,1
10.628802,10.741959,67,34,1
10.628802,10.741959,75,41,1
10.741959,10.855115,79,35,1
10.855115,10.976908,67,34,1
10.855115,10.976908,75,41,1
11.098701,11.160206,82,56,1
11.283217,11.344723,80,50,1
11.344723,11.457961,79,56,1
11.457961,11.571117,77,52,1
11.571117,11.800183,79,56,1
11.800183,11.860458,82,56,1
11.981009,12.041283,79,49,1
12.041283,12.154501,77,56,1
12.154501,12.267657,76,52,1
12.267657,12.501211,77,56,1
12.501211,12.742311,84,58,1
12.742311,12.855529,82,59,1
12.855529,12.968685,80,54,1
12.968685,13.088426,79,58,1
13.088426,13.208167,77,58,1
13.208167,13.453867,84,58,1
13.453867,13.690349,72,56,1
13.690349,13.926829,72,56,1
13.926829,14.04707,72,44,1
13.926829,14.04707,68,37,1
14.04707,14.167311,75,39,1
14.167311,14.287051,72,45,1
14.167311,14.287051,68,38,1
14.287051,14.406793,75,38,1
14.406793,14.528064,72,45,1
14.406793,14.528064,68,38,1
14.528064,14.64849,75,39,1
14.64849,14.76873,77,44,1
14.64849,14.76873,68,37,1
14.76873,14.888971,80,39,1
14.888971,15.007708,77,47,1
14.888971,15.007708,68,39,1
15.007708,15.126445,80,39,1
15.126445,15.245181,77,49,1
15.126445,15.245181,68,41,1
15.245181,15.365934,80,43,1
15.365934,15.484587,72,44,1
15.365934,15.484587,68,37,1
15.484587,15.603239,75,38,1
15.603239,15.72189,72,42,1
15.603239,15.72189,68,35,1
15.72189,15.840543,75,34,1
15.840543,15.962336,72,40,1
15.840543,15.962336,68,34,1
15.962336,16.084127,75,33,1
16.084127,16.203365,73,37,1
16.084127,16.203365,67,31,1
16.203365,16.323273,75,32,1
16.323273,16.443684,73,38,1
16.323273,16.443684,67,31,1
16.443684,16.564783,75,31,1
16.564783,16.686401,73,38,1
16.564783,16.686401,67,31,1
16.686401,16.808899,75,32,1
16.808899,16.870403,75,56,1
16.808899,16.870403,72,47,1
16.808899,16.870403,68,47,1
16.993414,17.05492,73,48,1
17.05492,17.16816,72,56,1
17.16816,17.281315,70,52,1
17.281315,17.510382,72,56,1
17.510382,17.570656,75,56,1
17.691206,17.75148,72,48,1
17.75148,17.864698,70,56,1
17.864698,17.977854,69,52,1
17.977854,18.211409,70,56,1
18.211409,18.452509,77,58,1
18.452509,18.565725,75,59,1
18.565725,18.678883,73,54,1
18.678883,18.798119,72,58,1
18.798119,18.917356,70,58,1
18.917356,19.160942,77,58,1
19.160942,19.398415,65,56,1
19.398415,19.63589,65,56,1
19.63589,19.75613,77,44,1
19.63589,19.75613,73,37,1
19.75613,19.87637,80,39,1
19.87637,19.99611,77,45,1
19.87637,19.99611,73,38,1
19.99611,20.115852,80,38,1
20.115852,20.23509,77,45,1
20.115852,20.23509,73,38,1
20.23509,20.35416,80,39,1
20.35416,20.475431,82,44,1
20.35416,20.475431,73,37,1
20.475431,20.5967,85,39,1
20.5967,20.714943,82,47,1
20.5967,20.714943,73,39,1
20.714943,20.833183,85,39,1
20.833183,20.951424,82,49,1
20.833183,20.951424,73,41,1
20.951424,21.072176,85,43,1
21.072176,21.190828,77,44,1
21.072176,21.190828,73,37,1
21.190828,21.30948,80,38,1
21.30948,21.428133,77,42,1
21.30948,21.428133,73,35,1
21.428133,21.546785,80,34,1
21.546785,21.665436,77,40,1
21.546785,21.665436,73,34,1
21.665436,21.784088,80,33,1
21.784088,21.90232,78,37,1
21.784088,21.90232,72,31,1
21.90232,22.021093,80,32,1
22.021093,22.140415,78,38,1
22.021093,22.140415,72,31,1
22.140415,22.260258,80,31,1
22.260258,22.380657,78,38,1
22.260258,22.380657,72,31,1
22.380657,22.50162,80,32,1
22.50162,22.743711,80,37,1
22.50162,22.743711,77,31,1
22.50162,22.743711,73,31,1
23.978935,24.095713,80,51,1
23.947544,24.095713,77,40,1
23.916153,24.095713,73,40,1
24.21249,24.327847,78,40,1
24.327847,24.443205,77,40,1
24.443205,24.56396,75,40,1
24.56396,24.684711,73,40,1
24.684711,24.801018,75,49,1
24.654524,24.801018,72,40,1
24.624336,24.801018,68,40,1
24.917324,25.032682,73,40,1
25.032682,25.14804,72,40,1
25.14804,25.267782,70,40,1
25.267782,25.387524,68,40,1
25.387524,25.509315,80,53,1
25.357588,25.509315,77,40,1
25.327652,25.509315,73,40,1
25.63111,25.746466,78,42,1
25.746466,25.861824,77,45,1
25.861824,25.977182,75,47,1
25.977182,26.09254,73,51,1
26.09254,26.15241,78,57,1
26.09254,26.15241,82,57,1
26.09254,26.15241,85,57,1
26.33303,26.393665,85,51,1
26.33303,26.393665,82,51,1
26.33303,26.393665,78,51,1
26.57662,26.638044,85,51,1
26.57662,26.638044,82,51,1
26.57662,26.638044,78,51,1
28.436365,28.49052,68,32,1
28.256752,28.49052,65,49,1
28.49052,28.727001,66,41,1
28.727001,28.963482,65,41,1
28.963482,29.197037,63,48,1
29.197037,29.31146,65,41,1
29.31146,29.42558,66,41,1
29.42558,29.53939,68,43,1
29.53939,29.652748,70,44,1
29.652748,29.885359,72,52,1
29.885359,29.999784,70,50,1
29.999784,30.11421,72,46,1
30.11421,30.228636,73,48,1
30.228636,30.343061,75,50,1
30.343061,30.403437,77,53,1
30.584568,30.644945,77,45,1
30.826075,30.8854,77,44,1
32.542206,32.659954,80,51,1
32.510815,32.659954,77,40,1
32.479424,32.659954,73,40,1
32.777702,32.893063,78,40,1
32.893063,33.00842,77,40,1
33.00842,33.12766,75,40,1
33.12766,33.246895,73,40,1
33.246895,33.3632,75,49,1
33.217087,33.3632,72,40,1
33.187275,33.3632,68,40,1
33.479507,33.594864,73,40,1
33.594864,33.71022,72,40,1
33.71022,33.830463,70,40,1
33.830463,33.950703,68,40,1
33.950703,34.072495,80,53,1
33.920643,34.072495,77,40,1
33.890583,34.072495,73,40,1
34.19429,34.309647,78,42,1
34.309647,34.425003,77,45,1
34.425003,34.540363,75,47,1
34.540363,34.65572,73,51,1
34.65572,34.716354,78,57,1
34.65572,34.716354,81,57,1
34.65572,34.716354,85,57,1
34.898262,34.958897,85,51,1
34.898262,34.958897,81,51,1
34.898262,34.958897,78,51,1
35.140804,35.2025,85,51,1
35.140804,35.2025,81,51,1
35.140804,35.2025,78,51,1
37.01488,37.069244,76,38,1
36.83452,37.069244,73,53,1
37.069244,37.305725,74,45,1
37.305725,37.542206,73,45,1
37.542206,37.772923,71,52,1
37.772923,37.88735,73,45,1
37.88735,38.001774,74,45,1
38.001774,38.116196,76,47,1
38.116196,38.23062,78,48,1
38.23062,38.462284,80,52,1
38.462284,38.576706,78,53,1
38.576706,38.69113,80,43,1
38.69113,38.808395,81,46,1
38.808395,38.925655,83,49,1
38.925655,38.985775,85,52,1
39.166134,39.226257,85,49,1
39.406616,39.465942,85,48,1
40.381252,40.396034,73,53,1
40.617733,40.632515,73,45,1
40.854214,40.868996,73,45,1
41.0907,41.32141,73,52,1
41.32141,41.43677,76,45,1
41.43677,41.552128,74,45,1
41.552128,41.66749,73,47,1
41.66749,41.782845,76,48,1
41.782845,41.841232,74,52,1
42.0164,42.073845,74,52,1
42.246178,42.306297,74,51,1
42.48666,42.547035,86,52,1
42.728165,42.788544,86,49,1
42.969673,43.029,86,48,1
43.94431,44.00343,74,53,1
44.18079,44.23991,74,45,1
44.41727,44.47639,74,45,1
44.65375,44.884468,74,52,1
44.884468,44.998894,77,45,1
44.998894,45.11332,76,45,1
45.11332,45.227745,74,47,1
45.227745,45.34217,77,48,1
45.34217,45.4008,74,52,1
45.57669,45.633675,74,52,1
45.80462,45.867405,74,52,1
46.05575,46.116127,86,52,1
46.297256,46.35868,86,49,1
46.542957,46.60574,86,48,1
46.794086,47.02764,74,56,1
47.02764,47.261196,73,52,1
47.261196,47.50068,74,52,1
47.50068,47.73329,86,56,1
47.73329,47.9659,85,52,1
47.9659,48.205383,86,52,1
48.205383,48.43628,82,54,1
48.43628,48.66717,81,47,1
48.66717,48.898064,82,48,1
48.898064,49.1262,79,51,1
49.1262,49.239357,81,48,1
49.239357,49.352516,82,49,1
49.352516,49.46567,84,51,1
49.46567,49.578827,86,52,1
49.578827,49.807903,82,57,1
49.807903,49.921062,84,58,1
49.921062,50.034218,82,51,1
50.034218,50.147373,81,56,1
50.147373,50.26053,79,51,1
50.26053,50.318497,77,61,1
50.492405,50.550373,77,56,1
50.72428,50.783604,77,56,1
50.961582,51.193424,78,69,1
51.193424,51.425262,90,66,1
51.425262,51.48436,90,67,1
51.66165,51.89349,91,76,1
51.89349,52.125328,79,61,1
52.125328,52.18329,79,61,1
52.35717,52.41513,81,65,1
52.560028,52.58901,94,62,1
52.58901,52.702164,93,65,1
52.702164,52.815323,91,62,1
52.815323,53.0444,93,66,1
53.0444,53.10167,94,68,1
53.244843,53.273476,84,61,1
53.273476,53.38663,82,63,1
53.38663,53.49979,81,60,1
53.49979,53.620834,82,65,1
53.74188,53.85825,79,52,1
53.74188,53.85825,75,44,1
53.85825,53.974617,82,46,1
53.974617,54.09099,79,53,1
53.974617,54.09099,75,45,1
54.09099,54.207355,82,45,1
54.207355,54.323727,79,53,1
54.207355,54.323727,75,45,1
54.323727,54.440094,82,46,1
54.440094,54.554165,79,54,1
54.440094,54.554165,75,46,1
54.554165,54.668232,84,46,1
54.668232,54.781387,79,53,1
54.668232,54.781387,75,45,1
54.781387,54.894547,84,45,1
54.894547,55.0077,79,53,1
54.894547,55.0077,75,45,1
55.0077,55.120857,84,45,1
55.120857,55.235397,79,57,1
55.120857,55.235397,75,48,1
55.235397,55.349934,82,46,1
55.349934,55.463093,75,45,1
55.349934,55.463093,79,53,1
55.463093,55.57625,82,45,1
55.57625,55.689404,79,53,1
55.57625,55.689404,75,45,1
55.689404,55.80256,82,45,1
55.80256,55.9185,80,61,1
55.80256,55.9185,74,51,1
55.9185,56.034435,82,46,1
56.034435,56.15037,80,53,1
56.034435,56.15037,74,45,1
56.15037,56.26631,82,48,1
56.26631,56.384502,80,53,1
56.26631,56.384502,74,45,1
56.384502,56.502697,82,46,1
56.502697,56.618618,80,58,1
56.502697,56.618618,74,49,1
56.618618,56.73454,86,46,1
56.73454,56.850456,80,53,1
56.73454,56.850456,74,45,1
56.850456,56.966377,86,46,1
56.966377,57.08503,80,53,1
56.966377,57.08503,74,45,1
57.08503,57.203682,86,46,1
57.203682,57.3196,79,57,1
57.203682,57.3196,75,48,1
57.3196,57.43552,87,46,1
57.43552,57.55144,79,53,1
57.43552,57.55144,75,45,1
57.55144,57.66736,87,46,1
57.66736,57.78328,79,53,1
57.66736,57.78328,75,45,1
57.78328,57.8992,86,46,1
57.8992,58.015118,81,53,1
57.8992,58.015118,75,45,1
58.015118,58.13104,84,46,1
58.13104,58.244194,81,53,1
58.13104,58.244194,75,45,1
58.244194,58.357353,84,46,1
58.357353,58.480324,81,53,1
58.357353,58.480324,75,45,1
58.480324,58.603294,84,46,1
58.603294,58.71874,82,53,1
58.603294,58.71874,74,45,1
58.71874,58.834187,86,46,1
58.834187,58.947342,82,53,1
58.834187,58.947342,74,45,1
58.947342,59.0605,86,46,1
59.0605,59.186623,82,53,1
59.0605,59.186623,74,45,1
59.186623,59.312748,86,46,1
59.312748,59.42682,81,54,1
59.312748,59.42682,75,46,1
59.42682,59.540886,84,46,1
59.540886,59.65404,81,53,1
59.540886,59.65404,75,45,1
59.65404,59.767197,84,45,1
59.767197,59.88446,81,53,1
59.767197,59.88446,75,45,1
59.88446,60.00172,84,45,1
60.00172,60.120796,82,57,1
60.00172,60.120796,74,48,1
60.120796,60.241207,86,46,1
60.241207,60.36231,74,45,1
60.241207,60.36231,82,53,1
60.36231,60.484276,86,45,1
60.484276,60.607124,82,53,1
60.484276,60.607124,74,45,1
60.607124,60.729977,86,45,1
60.729977,60.847237,81,49,1
60.729977,60.847237,75,41,1
60.847237,60.964497,84,41,1
60.964497,61.078922,81,48,1
60.964497,61.078922,75,40,1
61.078922,61.193348,84,40,1
61.193348,61.310123,81,48,1
61.193348,61.310123,75,40,1
61.310123,61.426903,84,40,1
61.426903,61.548347,82,51,1
61.426903,61.548347,74,42,1
61.548347,61.67049,86,41,1
61.67049,61.793518,74,40,1
61.67049,61.793518,82,48,1
61.793518,61.91655,86,40,1
61.91655,62.04101,82,48,1
61.91655,62.04101,74,40,1
62.04101,62.16547,86,40,1
62.16547,62.286743,81,43,1
62.16547,62.286743,75,35,1
62.286743,62.408012,84,37,1
62.408012,62.522438,81,42,1
62.408012,62.522438,75,35,1
62.522438,62.636864,84,35,1
62.636864,62.757618,81,42,1
62.636864,62.757618,75,35,1
62.757618,62.878372,84,35,1
62.878372,63.00338,82,45,1
62.878372,63.00338,74,38,1
63.00338,63.12839,86,37,1
63.12839,63.253403,74,35,1
63.12839,63.253403,82,42,1
63.253403,63.378414,86,35,1
63.378414,63.70089,82,42,1
63.378414,63.70089,74,35,1
63.70089,63.762394,82,56,1
63.885406,63.94691,80,48,1
63.94691,64.06015,79,56,1
64.06015,64.17331,77,52,1
64.17331,64.402374,79,56,1
64.402374,64.46265,82,56,1
64.5832,64.64347,79,48,1
64.64347,64.75669,77,56,1
64.75669,64.86984,76,52,1
64.86984,65.1034,77,56,1
65.1034,65.3445,84,58,1
65.3445,65.45772,82,59,1
65.45772,65.57088,80,54,1
65.57088,65.69061,79,58,1
65.69061,65.810356,77,58,1
65.810356,66.05605,84,58,1
66.05605,66.292534,72,56,1
66.292534,66.529015,72,56,1
66.529015,66.64926,72,44,1
66.529015,66.64926,68,37,1
66.64926,66.7695,75,39,1
66.7695,66.88924,72,45,1
66.7695,66.88924,68,38,1
66.88924,67.00898,75,38,1
67.00898,67.13025,72,45,1
67.00898,67.13025,68,38,1
67.13025,67.25068,75,39,1
67.25068,67.37092,77,44,1
67.25068,67.37092,68,37,1
67.37092,67.49116,80,39,1
67.49116,67.60989,77,47,1
67.49116,67.60989,68,39,1
67.60989,67.72863,80,39,1
67.72863,67.84737,77,49,1
67.72863,67.84737,68,41,1
67.84737,67.968124,80,43,1
67.968124,68.08678,72,44,1
67.968124,68.08678,68,37,1
68.08678,68.20543,75,38,1
68.20543,68.32408,72,42,1
68.20543,68.32408,68,35,1
68.32408,68.44273,75,34,1
68.44273,68.56452,72,40,1
68.44273,68.56452,68,34,1
68.56452,68.68632,75,33,1
68.68632,68.80556,73,37,1
68.68632,68.80556,67,31,1
68.80556,68.92546,75,32,1
68.92546,69.045876,73,38,1
68.92546,69.045876,67,31,1
69.045876,69.16697,75,31,1
69.16697,69.28859,73,38,1
69.16697,69.28859,67,31,1
69.28859,69.41109,75,32,1
69.41109,69.472595,75,56,1
69.41109,69.472595,72,47,1
69.41109,69.472595,68,47,1
69.595604,69.65711,73,49,1
69.65711,69.77035,72,56,1
69.77035,69.88351,70,52,1
69.88351,70.11257,72,56,1
70.11257,70.172844,75,56,1
70.293396,70.35367,72,49,1
70.35367,70.46689,70,56,1
70.46689,70.58004,69,52,1
70.58004,70.8136,70,56,1
70.8136,71.054695,77,58,1
71.054695,71.167915,75,59,1
71.167915,71.281075,73,54,1
71.281075,71.40031,72,58,1
71.40031,71.51955,70,58,1
71.51955,71.76313,77,58,1
71.76313,72.0006,65,56,1
72.0006,72.238075,65,56,1
72.238075,72.358315,77,44,1
72.238075,72.358315,73,37,1
72.358315,72.47856,80,39,1
72.47856,72.5983,77,45,1
72.47856,72.5983,73,38,1
72.5983,72.71804,80,38,1
72.71804,72.83728,77,45,1
72.71804,72.83728,73,38,1
72.83728,72.956345,80,39,1
72.956345,73.07762,82,44,1
72.956345,73.07762,73,37,1
73.07762,73.19889,85,39,1
73.19889,73.31713,82,47,1
73.19889,73.31713,73,39,1
73.31713,73.43537,85,39,1
73.43537,73.55361,82,49,1
73.43537,73.55361,73,41,1
73.55361,73.67436,85,43,1
73.67436,73.793015,77,44,1
73.67436,73.793015,73,37,1
73.793015,73.91167,80,38,1
73.91167,74.03032,77,42,1
73.91167,74.03032,73,35,1
74.03032,74.14897,80,34,1
74.14897,74.267624,77,40,1
74.14897,74.267624,73,34,1
74.267624,74.38628,80,33,1
74.38628,74.50451,78,37,1
74.38628,74.50451,72,31,1
74.50451,74.62328,80,32,1
74.62328,74.74261,78,38,1
74.62328,74.74261,72,31,1
74.74261,74.86245,80,31,1
74.86245,74.98284,78,38,1
74.86245,74.98284,72,31,1
74.98284,75.103806,80,32,1
75.103806,75.34983,80,37,1
75.103806,75.34983,77,31,1
75.103806,75.34983,73,31,1
76.58505,76.701836,80,51,1
76.553665,76.701836,77,40,1
76.52227,76.701836,73,40,1
76.81861,76.93397,78,40,1
76.93397,77.049324,77,40,1
77.049324,77.17008,75,40,1
77.17008,77.29083,73,40,1
77.29083,77.407135,75,49,1
77.26064,77.407135,72,40,1
77.23045,77.407135,68,40,1
77.523445,77.6388,73,40,1
77.6388,77.75416,72,40,1
77.75416,77.8739,70,40,1
77.8739,77.993645,68,40,1
77.993645,78.11543,80,53,1
77.96371,78.11543,77,40,1
77.93377,78.11543,73,40,1
78.23723,78.352585,78,42,1
78.352585,78.46794,77,45,1
78.46794,78.583305,75,47,1
78.583305,78.69866,73,51,1
78.69866,78.75929,78,57,1
78.69866,78.75929,82,57,1
78.69866,78.75929,85,57,1
78.9412,79.00184,85,51,1
78.9412,79.00184,82,51,1
78.9412,79.00184,78,51,1
79.18375,79.24438,85,51,1
79.18375,79.24438,82,51,1
79.18375,79.24438,78,51,1
81.04033,81.09449,68,32,1
80.86072,81.09449,65,49,1
81.09449,81.33097,66,41,1
81.33097,81.56745,65,41,1
81.56745,81.801,63,48,1
81.801,81.91543,65,41,1
81.91543,82.02955,66,41,1
82.02955,82.14336,68,43,1
82.14336,82.256714,70,44,1
82.256714,82.48933,72,52,1
82.48933,82.60375,70,50,1
82.60375,82.71818,72,46,1
82.71818,82.8326,73,48,1
82.8326,82.94703,75,50,1
82.94703,83.00615,77,53,1
83.18417,83.24379,77,45,1
83.42365,83.484024,77,44,1
85.14398,85.261734,80,51,1
85.112595,85.261734,77,40,1
85.0812,85.261734,73,40,1
85.379486,85.49484,78,40,1
85.49484,85.6102,77,40,1
85.6102,85.72944,75,40,1
85.72944,85.84867,73,40,1
85.84867,85.96498,75,49,1
85.81886,85.96498,72,40,1
85.789055,85.96498,68,40,1
86.08128,86.19664,73,40,1
86.19664,86.312004,72,40,1
86.312004,86.43224,70,40,1
86.43224,86.55248,68,40,1
86.55248,86.67428,80,53,1
86.52242,86.67428,77,40,1
86.49236,86.67428,73,40,1
86.79607,86.91142,78,42,1
86.91142,87.02679,77,45,1
87.02679,87.14214,75,47,1
87.14214,87.25896,73,51,1
87.25896,87.31892,78,57,1
87.25896,87.31892,81,57,1
87.25896,87.31892,85,57,1
87.50013,87.56103,85,51,1
87.50013,87.56103,81,51,1
87.50013,87.56103,78,51,1
87.74513,87.80709,85,51,1
87.74513,87.80709,81,51,1
87.74513,87.80709,78,51,1
89.62026,89.67463,76,38,1
89.4399,89.67463,73,53,1
89.67463,89.91111,74,45,1
89.91111,90.14759,73,45,1
90.14759,90.3783,71,52,1
90.3783,90.49273,73,45,1
90.49273,90.607155,74,45,1
90.607155,90.72158,76,47,1
90.72158,90.836006,78,48,1
90.836006,91.067665,80,52,1
91.067665,91.18209,78,53,1
91.18209,91.29652,80,43,1
91.29652,91.41378,81,46,1
91.41378,91.53104,83,49,1
91.53104,91.58901,85,52,1
91.76292,91.820885,85,49,1
91.99479,92.054115,85,48,1
92.96943,93.02855,73,53,1
93.20591,93.26503,73,45,1
93.44239,93.50151,73,45,1
93.67887,93.909584,73,52,1
93.909584,94.02494,76,45,1
94.02494,94.140305,74,45,1
94.140305,94.25566,73,47,1
94.25566,94.37102,76,48,1
94.37102,94.429405,74,52,1
94.60457,94.66202,74,52,1
94.83435,94.89447,74,51,1
95.07483,95.1342,86,52,1
95.31231,95.37167,86,49,1
95.54978,95.60911,86,48,1
96.524414,96.583534,74,53,1
96.760895,96.820015,74,45,1
96.997375,97.056496,74,45,1
97.23386,97.46458,74,52,1
97.46458,97.579,77,45,1
97.579,97.69343,76,45,1
97.69343,97.80785,74,47,1
97.80785,97.92228,77,48,1
97.92228,97.9809,74,52,1
98.1568,98.21378,74,52,1
98.38473,98.44751,74,52,1
98.63586,98.696236,86,52,1
98.877365,98.93879,86,49,1
99.12306,99.185844,86,48,1
99.37419,99.60775,74,56,1
99.60775,99.8413,73,52,1
99.8413,100.08079,74,52,1
100.08079,100.3134,86,56,1
100.3134,100.546005,85,52,1
100.546005,100.78549,86,52,1
100.78549,101.01639,82,54,1
101.01639,101.24728,81,47,1
101.24728,101.47817,82,48,1
101.47817,101.70631,79,51,1
101.70631,101.819466,81,48,1
101.819466,101.93262,82,49,1
101.93262,102.04578,84,51,1
102.04578,102.158936,86,52,1
102.158936,102.390434,82,57,1
102.390434,102.5048,84,58,1
102.5048,102.61916,82,51,1
102.61916,102.73353,81,56,1
102.73353,102.84789,79,51,1
102.84789,102.90648,77,61,1
103.082245,103.14084,77,56,1
103.316605,103.376564,77,56,1
103.55645,103.79077,78,69,1
103.79077,104.02509,90,66,1
104.02509,104.084816,90,67,1
104.263985,104.4983,91,76,1
104.4983,104.73262,79,61,1
104.73262,104.7912,79,61,1
104.96694,105.02552,81,65,1
105.171974,105.20126,94,62,1
105.20126,105.31563,93,65,1
105.31563,105.42999,91,62,1
105.42999,105.66149,93,66,1
105.66149,105.71936,94,68,1
105.86405,105.89299,84,61,1
105.89299,106.007355,82,63,1
106.007355,106.12172,81,60,1
106.12172,106.24405,82,65,1
106.36638,106.48398,79,52,1
106.36638,106.48398,75,44,1
106.48398,106.60158,82,46,1
106.60158,106.71918,79,53,1
106.60158,106.71918,75,45,1
106.71918,106.83678,82,45,1
106.83678,106.954384,79,53,1
106.83678,106.954384,75,45,1
106.954384,107.07198,82,46,1
107.07198,107.18726,79,54,1
107.07198,107.18726,75,46,1
107.18726,107.302536,84,46,1
107.302536,107.4169,79,53,1
107.302536,107.4169,75,45,1
107.4169,107.531265,84,45,1
107.531265,107.64563,79,53,1
107.531265,107.64563,75,45,1
107.64563,107.759995,84,45,1
107.759995,107.87575,79,57,1
107.759995,107.87575,75,48,1
107.87575,107.99149,82,46,1
107.99149,108.10586,75,45,1
107.99149,108.10586,79,53,1
108.10586,108.22022,82,45,1
108.22022,108.33459,79,53,1
108.22022,108.33459,75,45,1
108.33459,108.44895,82,45,1
108.44895,108.56613,80,61,1
108.44895,108.56613,74,51,1
108.56613,108.68331,82,46,1
108.68331,108.80048,80,53,1
108.68331,108.80048,74,45,1
108.80048,108.91766,82,48,1
108.91766,109.03711,80,53,1
108.91766,109.03711,74,45,1
109.03711,109.156555,82,46,1
109.156555,109.27372,80,58,1
109.156555,109.27372,74,49,1
109.27372,109.39088,86,46,1
109.39088,109.50803,80,53,1
109.39088,109.50803,74,45,1
109.50803,109.6252,86,46,1
109.6252,109.74512,80,53,1
109.6252,109.74512,74,45,1
109.74512,109.86504,86,46,1
109.86504,109.9822,79,57,1
109.86504,109.9822,75,48,1
109.9822,110.099365,87,46,1
110.099365,110.21652,79,53,1
110.099365,110.21652,75,45,1
110.21652,110.33368,87,46,1
110.33368,110.45084,79,53,1
110.33368,110.45084,75,45,1
110.45084,110.568,86,46,1
110.568,110.685165,81,53,1
110.568,110.685165,75,45,1
110.685165,110.80232,84,46,1
110.80232,110.91669,81,53,1
110.80232,110.91669,75,45,1
110.91669,111.03105,84,46,1
111.03105,111.15533,81,53,1
111.03105,111.15533,75,45,1
111.15533,111.2796,84,46,1
111.2796,111.39628,82,53,1
111.2796,111.39628,74,45,1
111.39628,111.512955,86,46,1
111.512955,111.62732,82,53,1
111.512955,111.62732,74,45,1
111.62732,111.741684,86,46,1
111.741684,111.86915,82,53,1
111.741684,111.86915,74,45,1
111.86915,111.99661,86,46,1
111.99661,112.11189,81,54,1
111.99661,112.11189,75,46,1
112.11189,112.227165,84,46,1
112.227165,112.34153,81,53,1
112.227165,112.34153,75,45,1
112.34153,112.455894,84,45,1
112.455894,112.57026,81,53,1
112.455894,112.57026,75,45,1
112.57026,112.68462,84,45,1
112.68462,112.802536,82,57,1
112.68462,112.802536,74,48,1
112.802536,112.92111,86,46,1
112.92111,113.04051,74,45,1
112.92111,113.04051,82,53,1
113.04051,113.16059,86,45,1
113.16059,113.28263,82,53,1
113.16059,113.28263,74,45,1
113.28263,113.40467,86,45,1
113.40467,113.52318,81,49,1
113.40467,113.52318,75,41,1
113.52318,113.64169,84,41,1
113.64169,113.75733,81,48,1
113.64169,113.75733,75,40,1
113.75733,113.87298,84,40,1
113.87298,113.991005,81,48,1
113.87298,113.991005,75,40,1
113.991005,114.10903,84,40,1
114.10903,114.22844,82,51,1
114.10903,114.22844,74,42,1
114.22844,114.34851,86,41,1
114.34851,114.46961,74,40,1
114.34851,114.46961,82,48,1
114.46961,114.59088,86,40,1
114.59088,114.71667,82,48,1
114.59088,114.71667,74,40,1
114.71667,114.84245,86,40,1
114.84245,114.96501,81,43,1
114.84245,114.96501,75,35,1
114.96501,115.08757,84,37,1
115.08757,115.20321,81,42,1
115.08757,115.20321,75,35,1
115.20321,115.318855,84,35,1
115.318855,115.440895,81,42,1
115.318855,115.440895,75,35,1
115.440895,115.562935,84,35,1
115.562935,115.81561,82,45,1
115.562935,115.81561,74,38,1
115.562935,115.81561,86,45,1
116.512924,117.10453,65,45,1
116.512924,117.10453,61,45,1
117.10453,117.52437,65,45,1
117.10453,117.52437,61,45,1
117.66944,117.7745,65,41,1
117.66944,117.7745,63,41,1
117.66944,117.7745,60,34,1
117.9496,118.0584,65,42,1
117.9496,118.0584,61,42,1
117.9496,118.0584,58,35,1
118.23974,118.80732,65,45,1
118.23974,118.80732,60,45,1
118.23974,118.80732,57,38,1
118.80732,119.23255,65,45,1
118.80732,119.23255,60,45,1
118.80732,119.23255,57,38,1
119.37762,119.48268,65,41,1
119.37762,119.48268,61,41,1
119.37762,119.48268,58,34,1
119.65778,119.76659,65,42,1
119.65778,119.76659,63,42,1
119.65778,119.76659,60,35,1
119.94792,120.52113,65,45,1
119.94792,120.52113,61,45,1
120.52113,121.086044,65,45,1
120.52113,121.086044,61,45,1
121.086044,121.1911,65,41,1
121.086044,121.1911,63,41,1
121.086044,121.1911,60,34,1
121.3662,121.475006,65,42,1
121.3662,121.475006,61,42,1
121.3662,121.475006,58,35,1
121.65634,122.22392,65,38,1
121.65634,122.22392,61,38,1
121.65634,122.22392,56,32,1
122.22392,122.65294,65,38,1
122.22392,122.65294,61,38,1
122.22392,122.65294,56,32,1
122.801796,122.90685,68,34,1
122.801796,122.90685,65,34,1
122.801796,122.90685,56,28,1
123.081955,123.193016,68,35,1
123.081955,123.193016,65,35,1
123.081955,123.193016,56,29,1
123.378105,123.95849,65,38,1
123.378105,123.95849,61,38,1
123.378105,123.95849,56,32,1
123.95849,124.54477,65,38,1
123.95849,124.54477,61,38,1
123.95849,124.54477,56,32,1
125.15186,125.73327,65,45,1
125.15186,125.73327,61,45,1
125.73327,126.153114,65,45,1
125.73327,126.153114,61,45,1
126.29818,126.40324,65,41,1
126.29818,126.40324,63,41,1
126.29818,126.40324,60,34,1
126.57835,126.68714,65,42,1
126.57835,126.68714,61,42,1
126.57835,126.68714,58,35,1
126.86848,127.43606,65,45,1
126.86848,127.43606,60,45,1
126.86848,127.43606,57,38,1
127.43606,127.86129,65,45,1
127.43606,127.86129,60,45,1
127.43606,127.86129,57,38,1
128.00636,128.11142,65,41,1
128.00636,128.11142,61,41,1
128.00636,128.11142,58,34,1
128.28653,128.39532,65,42,1
128.28653,128.39532,63,42,1
128.28653,128.39532,60,35,1
128.57666,129.14987,65,45,1
128.57666,129.14987,61,45,1
129.14987,129.71478,65,45,1
129.14987,129.71478,61,45,1
129.71478,129.81984,65,41,1
129.71478,129.81984,63,41,1
129.71478,129.81984,60,34,1
129.99495,130.10374,65,42,1
129.99495,130.10374,61,42,1
129.99495,130.10374,58,35,1
130.28508,130.85266,65,38,1
130.28508,130.85266,61,38,1
130.28508,130.85266,56,32,1
130.85266,131.28168,65,38,1
130.85266,131.28168,61,38,1
130.85266,131.28168,56,32,1
131.43053,131.5356,68,34,1
131.43053,131.5356,65,34,1
131.43053,131.5356,56,28,1
131.7107,131.82175,68,35,1
131.7107,131.82175,65,35,1
131.7107,131.82175,56,29,1
132.00685,132.58722,65,38,1
132.00685,132.58722,61,38,1
132.00685,132.58722,56,32,1
132.58722,133.19269,65,38,1
132.58722,133.19269,61,38,1
132.58722,133.19269,56,32,1
133.79659,134.38081,66,45,1
133.79659,134.38081,61,45,1
133.79659,134.38081,58,38,1
134.38081,134.95111,66,47,1
134.38081,134.95111,61,47,1
134.38081,134.95111,58,39,1
134.95111,135.05618,68,45,1
134.95111,135.05618,61,45,1
134.95111,135.05618,58,38,1
135.23128,135.34007,70,47,1
135.23128,135.34007,61,47,1
135.23128,135.34007,58,39,1
135.52141,136.08899,65,51,1
135.52141,136.08899,60,51,1
135.52141,136.08899,56,43,1
136.08899,136.6593,65,50,1
136.08899,136.6593,60,50,1
136.08899,136.6593,56,42,1
136.6593,136.76436,64,47,1
136.6593,136.76436,60,47,1
136.6593,136.76436,55,39,1
136.93945,137.04826,64,48,1
136.93945,137.04826,60,48,1
136.93945,137.04826,55,40,1
137.2296,137.81676,60,45,1
137.2296,137.81676,56,38,1
137.2296,137.81676,63,45,1
137.81676,138.09692,60,45,1
137.81676,138.09692,56,38,1
138.09692,138.39543,61,37,1
138.09692,138.39543,58,31,1
137.81676,138.39543,63,45,1
138.39543,138.50255,63,41,1
138.39543,138.50255,58,41,1
138.39543,138.50255,55,34,1
138.68109,138.79248,63,42,1
138.68109,138.79248,58,42,1
138.68109,138.79248,55,35,1
138.97812,139.57068,63,45,1
138.97812,139.57068,60,38,1
138.97812,139.57068,68,45,1
139.57068,139.86919,68,50,1
139.86919,140.17224,69,47,1
139.57068,140.17224,63,50,1
139.57068,140.17224,60,42,1
140.17224,140.28308,65,41,1
140.17224,140.28308,63,41,1
140.17224,140.28308,60,34,1
140.46782,140.58263,65,42,1
140.46782,140.58263,63,42,1
140.46782,140.58263,60,35,1
140.77397,141.35965,73,45,1
140.77397,141.35965,65,45,1
141.35965,141.93005,73,45,1
141.35965,141.93005,65,45,1
141.93005,142.03513,72,41,1
141.93005,142.03513,65,41,1
141.93005,142.03513,63,41,1
142.21022,142.31903,70,42,1
142.21022,142.31903,65,42,1
142.21022,142.31903,61,35,1
142.50037,143.07358,69,45,1
142.50037,143.07358,60,38,1
142.50037,143.07358,65,45,1
143.07358,143.63849,69,45,1
143.07358,143.63849,60,38,1
143.07358,143.63849,65,45,1
143.63849,143.74355,70,41,1
143.63849,143.74355,65,41,1
143.63849,143.74355,61,34,1
143.91866,144.02745,72,42,1
143.91866,144.02745,65,42,1
143.91866,144.02745,63,35,1
144.20879,144.782,65,45,1
144.20879,144.782,61,45,1
144.782,145.34691,65,45,1
144.782,145.34691,61,45,1
145.34691,145.45197,65,41,1
145.34691,145.45197,63,41,1
145.34691,145.45197,60,34,1
145.62708,145.73587,65,42,1
145.62708,145.73587,61,42,1
145.62708,145.73587,58,35,1
145.9172,146.51393,65,38,1
145.9172,146.51393,61,38,1
145.9172,146.51393,56,32,1
146.51393,147.11774,65,38,1
146.51393,147.11774,61,38,1
146.51393,147.11774,56,32,1
147.11774,147.22536,63,34,1
147.11774,147.22536,54,28,1
147.11774,147.22536,57,34,1
147.11774,147.22536,60,34,1
147.40474,147.5158,63,35,1
147.40474,147.5158,54,29,1
147.40474,147.5158,57,29,1
147.40474,147.5158,60,35,1
147.70088,148.28127,61,38,1
147.70088,148.28127,58,38,1
147.70088,148.28127,53,32,1
148.28127,148.86755,61,38,1
148.28127,148.86755,58,38,1
148.28127,148.86755,53,32,1
149.47464,150.07481,66,45,1
149.47464,150.07481,61,45,1
149.47464,150.07481,58,38,1
150.07481,150.6506,66,47,1
150.07481,150.6506,61,47,1
150.07481,150.6506,58,39,1
150.6506,150.75722,68,45,1
150.6506,150.75722,61,45,1
150.6506,150.75722,58,38,1
150.9349,151.04372,70,47,1
150.9349,151.04372,61,47,1
150.9349,151.04372,58,39,1
151.22505,151.7968,65,51,1
151.22505,151.7968,60,51,1
151.22505,151.7968,56,43,1
151.7968,152.36855,65,50,1
151.7968,152.36855,60,50,1
151.7968,152.36855,56,42,1
152.36855,152.47464,64,47,1
152.36855,152.47464,60,47,1
152.36855,152.47464,55,39,1
152.65147,152.76028,64,48,1
152.65147,152.76028,60,48,1
152.65147,152.76028,55,40,1
152.94162,153.52878,60,45,1
152.94162,153.52878,56,38,1
152.94162,153.52878,63,45,1
153.52878,153.80894,60,45,1
153.52878,153.80894,56,38,1
153.80894,154.10745,61,37,1
153.80894,154.10745,58,31,1
153.52878,154.10745,63,45,1
154.10745,154.21457,63,41,1
154.10745,154.21457,58,41,1
154.10745,154.21457,55,34,1
154.39311,154.5045,63,42,1
154.39311,154.5045,58,42,1
154.39311,154.5045,55,35,1
154.69014,155.2827,63,45,1
154.69014,155.2827,60,38,1
154.69014,155.2827,68,45,1
155.2827,155.60716,68,50,1
155.60716,155.91022,69,47,1
155.2827,155.91022,63,42,1
155.2827,155.91022,60,42,1
155.91022,156.02106,65,41,1
155.91022,156.02106,63,34,1
155.91022,156.02106,60,34,1
156.2058,156.3206,65,42,1
156.2058,156.3206,63,35,1
156.2058,156.3206,60,35,1
156.51195,157.09764,73,45,1
156.51195,157.09764,65,45,1
157.09764,157.66805,73,45,1
157.09764,157.66805,65,45,1
157.66805,157.7731,72,41,1
157.66805,157.7731,65,41,1
157.66805,157.7731,63,34,1
157.9482,158.057,70,42,1
157.9482,158.057,65,42,1
157.9482,158.057,61,35,1
158.23834,158.81155,69,45,1
158.23834,158.81155,60,38,1
158.23834,158.81155,65,45,1
158.81155,159.37646,69,45,1
158.81155,159.37646,60,38,1
158.81155,159.37646,65,45,1
159.37646,159.48152,70,41,1
159.37646,159.48152,65,41,1
159.37646,159.48152,61,34,1
159.65663,159.76543,72,42,1
159.65663,159.76543,65,42,1
159.65663,159.76543,63,35,1
159.94676,160.51997,65,45,1
159.94676,160.51997,61,45,1
160.51997,161.08488,65,45,1
160.51997,161.08488,61,45,1
161.08488,161.18994,65,41,1
161.08488,161.18994,63,41,1
161.08488,161.18994,60,34,1
161.36505,161.47385,65,42,1
161.36505,161.47385,61,42,1
161.36505,161.47385,58,35,1
161.65518,162.25192,65,38,1
161.65518,162.25192,61,38,1
161.65518,162.25192,56,32,1
162.25192,162.86449,65,38,1
162.25192,162.86449,61,38,1
162.25192,162.86449,56,32,1
162.86449,162.97531,63,34,1
162.86449,162.97531,54,28,1
162.86449,162.97531,57,28,1
162.86449,162.97531,60,34,1
163.16005,163.27486,63,35,1
163.16005,163.27486,54,29,1
163.16005,163.27486,57,29,1
163.16005,163.27486,60,35,1
163.4662,164.11392,61,38,1
163.4662,164.11392,58,38,1
163.4662,164.11392,53,32,1
164.11392,164.78096,61,38,1
164.11392,164.78096,58,38,1
164.11392,164.78096,53,32,1
165.42543,165.65631,82,54,1
165.65631,165.8872,81,47,1
165.8872,166.1181,82,47,1
166.1181,166.34624,79,51,1
166.34624,166.4594,81,46,1
166.4594,166.57256,82,47,1
166.57256,166.68571,84,49,1
166.68571,166.79886,86,50,1
166.79886,167.02794,82,53,1
167.02794,167.1411,84,54,1
167.1411,167.25426,82,47,1
167.25426,167.36742,81,51,1
167.36742,167.48056,79,47,1
167.48056,167.53854,77,56,1
167.71245,167.77042,77,51,1
167.94432,168.00365,77,50,1
168.18163,168.41347,78,61,1
168.41347,168.6453,90,57,1
168.6453,168.70439,90,57,1
168.88168,169.11353,91,65,1
169.11353,169.34537,79,51,1
169.34537,169.40332,79,51,1
169.57721,169.63516,81,53,1
169.78006,169.80905,94,45,1
169.80905,169.92221,93,52,1
169.92221,170.03535,91,51,1
170.03535,170.26443,93,52,1
170.26443,170.3217,94,54,1
170.46487,170.49352,84,45,1
170.49352,170.60667,82,51,1
170.60667,170.71983,81,47,1
170.71983,170.84087,82,51,1
170.96191,171.0783,74,40,1
170.96191,171.0783,70,34,1
171.0783,171.19466,77,35,1
171.19466,171.31102,74,41,1
171.19466,171.31102,70,34,1
171.31102,171.4274,77,34,1
171.4274,171.54376,74,41,1
171.4274,171.54376,70,34,1
171.54376,171.66014,77,35,1
171.66014,171.7742,74,42,1
171.66014,171.7742,70,35,1
171.7742,171.88828,79,35,1
171.88828,172.00143,74,41,1
171.88828,172.00143,70,34,1
172.00143,172.11458,79,34,1
172.11458,172.22774,74,41,1
172.11458,172.22774,70,34,1
172.22774,172.3409,79,34,1
172.3409,172.45543,74,44,1
172.3409,172.45543,70,37,1
172.45543,172.56998,77,35,1
172.56998,172.68314,70,34,1
172.56998,172.68314,74,41,1
172.68314,172.79628,77,34,1
172.79628,172.90944,74,41,1
172.79628,172.90944,70,34,1
172.90944,173.0226,77,34,1
173.0226,173.13853,75,47,1
173.0226,173.13853,69,39,1
173.13853,173.25447,77,35,1
173.25447,173.3704,75,41,1
173.25447,173.3704,69,34,1
173.3704,173.48634,77,37,1
173.48634,173.60454,75,41,1
173.48634,173.60454,69,34,1
173.60454,173.72273,77,35,1
173.72273,173.83865,75,45,1
173.72273,173.83865,69,38,1
173.83865,173.95457,81,35,1
173.95457,174.0705,75,41,1
173.95457,174.0705,69,34,1
174.0705,174.18642,81,35,1
174.18642,174.30507,75,41,1
174.18642,174.30507,69,34,1
174.30507,174.42372,81,35,1
174.42372,174.53964,75,44,1
174.42372,174.53964,70,37,1
174.53964,174.65556,82,35,1
174.65556,174.77148,75,41,1
174.65556,174.77148,70,34,1
174.77148,174.8874,81,35,1
174.8874,175.00331,75,41,1
174.8874,175.00331,70,34,1
175.00331,175.11923,79,35,1
175.11923,175.23515,74,41,1
175.11923,175.23515,68,34,1
175.23515,175.35107,77,35,1
175.35107,175.46423,74,41,1
175.35107,175.46423,68,34,1
175.46423,175.5774,77,35,1
175.5774,175.70036,74,41,1
175.5774,175.70036,68,34,1
175.70036,175.82333,77,35,1
175.82333,175.93878,75,41,1
175.82333,175.93878,67,34,1
175.93878,176.05423,79,35,1
176.05423,176.16739,75,41,1
176.05423,176.16739,67,34,1
176.16739,176.28053,79,35,1
176.28053,176.40233,75,41,1
176.28053,176.40233,67,34,1
176.52412,176.58563,82,56,1
176.70863,176.77014,80,47,1
176.77014,176.88338,79,56,1
176.88338,176.99654,77,52,1
176.99654,177.2256,79,56,1
177.2256,177.28589,82,56,1
177.40643,177.4667,79,48,1
177.4667,177.57993,77,56,1
177.57993,177.69308,76,52,1
177.69308,177.92664,77,56,1
177.92664,178.16774,84,58,1
178.16774,178.28094,82,59,1
178.28094,178.3941,80,54,1
178.3941,178.51385,79,58,1
178.51385,178.63359,77,58,1
178.63359,178.87929,84,58,1
178.87929,179.11577,72,56,1
179.11577,179.35225,72,56,1
179.35225,179.47249,72,44,1
179.35225,179.47249,68,37,1
179.47249,179.59273,75,39,1
179.59273,179.71248,72,45,1
179.59273,179.71248,68,38,1
179.71248,179.83221,75,38,1
179.83221,179.95349,72,45,1
179.83221,179.95349,68,38,1
179.95349,180.07391,75,39,1
180.07391,180.19415,77,44,1
180.07391,180.19415,68,37,1
180.19415,180.31439,80,39,1
180.31439,180.43314,77,47,1
180.31439,180.43314,68,39,1
180.43314,180.55186,80,39,1
180.55186,180.67061,77,49,1
180.55186,180.67061,68,41,1
180.67061,180.79135,80,43,1
180.79135,180.91,72,44,1
180.79135,180.91,68,37,1
180.91,181.02866,75,38,1
181.02866,181.14731,72,42,1
181.02866,181.14731,68,35,1
181.14731,181.26596,75,34,1
181.26596,181.38776,72,40,1
181.26596,181.38776,68,34,1
181.38776,181.50955,75,33,1
181.50955,181.62878,73,37,1
181.50955,181.62878,67,31,1
181.62878,181.7487,75,32,1
181.7487,181.86911,73,38,1
181.7487,181.86911,67,31,1
181.86911,181.9902,75,31,1
181.9902,182.11183,73,38,1
181.9902,182.11183,67,31,1
182.11183,182.23431,75,32,1
182.23431,182.29582,75,56,1
182.23431,182.29582,72,47,1
182.23431,182.29582,68,47,1
182.41884,182.48035,73,49,1
182.48035,182.59358,72,56,1
182.59358,182.70674,70,52,1
182.70674,182.9358,72,56,1
182.9358,182.99608,75,56,1
183.11662,183.17691,72,49,1
183.17691,183.29012,70,56,1
183.29012,183.40327,69,52,1
183.40327,183.63683,70,56,1
183.63683,183.87793,77,58,1
183.87793,183.99115,75,59,1
183.99115,184.10431,73,54,1
184.10431,184.22354,72,58,1
184.22354,184.34277,70,58,1
184.34277,184.58636,77,58,1
184.58636,184.82384,65,56,1
184.82384,185.06131,65,56,1
185.06131,185.18155,77,44,1
185.06131,185.18155,73,37,1
185.18155,185.30179,80,39,1
185.30179,185.42154,77,45,1
185.30179,185.42154,73,38,1
185.42154,185.54128,80,38,1
185.54128,185.6605,77,45,1
185.54128,185.6605,73,38,1
185.6605,185.77959,80,39,1
185.77959,185.90085,82,44,1
185.77959,185.90085,73,37,1
185.90085,186.02213,85,39,1
186.02213,186.14037,82,47,1
186.02213,186.14037,73,39,1
186.14037,186.2586,85,39,1
186.2586,186.37685,82,49,1
186.2586,186.37685,73,41,1
186.37685,186.4976,85,43,1
186.4976,186.61626,77,44,1
186.4976,186.61626,73,37,1
186.61626,186.73491,80,38,1
186.73491,186.85356,77,42,1
186.73491,186.85356,73,35,1
186.85356,186.97221,80,34,1
186.97221,187.09087,77,40,1
186.97221,187.09087,73,34,1
187.09087,187.20952,80,33,1
187.20952,187.32774,78,37,1
187.20952,187.32774,72,31,1
187.32774,187.44652,80,32,1
187.44652,187.56584,78,38,1
187.44652,187.56584,72,31,1
187.56584,187.68568,80,31,1
187.68568,187.80608,78,38,1
187.68568,187.80608,72,31,1
187.80608,187.92705,80,32,1
187.92705,188.17307,80,37,1
187.92705,188.17307,77,31,1
187.92705,188.17307,73,31,1
189.4083,189.52507,80,51,1
189.37689,189.52507,77,40,1
189.3455,189.52507,73,40,1
189.64185,189.7572,78,40,1
189.7572,189.87256,77,40,1
189.87256,189.99332,75,40,1
189.99332,190.11406,73,40,1
190.11406,190.23038,75,49,1
190.08388,190.23038,72,40,1
190.0537,190.23038,68,40,1
190.34668,190.46204,73,40,1
190.46204,190.5774,72,40,1
190.5774,190.69713,70,40,1
190.69713,190.81688,68,40,1
190.81688,190.93867,80,53,1
190.78694,190.93867,77,40,1
190.757,190.93867,73,40,1
191.06046,191.17583,78,42,1
191.17583,191.29118,77,45,1
191.29118,191.40654,75,47,1
191.40654,191.52303,73,51,1
191.52303,191.58238,78,57,1
191.52303,191.58238,82,57,1
191.52303,191.58238,85,57,1
191.76132,191.8212,85,51,1
191.76132,191.8212,82,51,1
191.76132,191.8212,78,51,1
192.00165,192.06203,85,51,1
192.00165,192.06203,82,51,1
192.00165,192.06203,78,51,1
193.85823,193.9124,68,34,1
193.67862,193.9124,65,49,1
193.9124,194.14888,66,41,1
194.14888,194.38536,65,41,1
194.38536,194.61891,63,48,1
194.61891,194.73334,65,41,1
194.73334,194.84746,66,41,1
194.84746,194.96126,68,43,1
194.96126,195.07462,70,44,1
195.07462,195.30724,72,52,1
195.30724,195.42166,70,50,1
195.42166,195.53609,72,46,1
195.53609,195.65051,73,48,1
195.65051,195.76494,75,50,1
195.76494,195.8229,77,53,1
195.99681,196.05478,77,45,1
196.22868,196.28801,77,44,1
197.94481,198.06256,80,51,1
197.91342,198.06256,77,40,1
197.88203,198.06256,73,40,1
198.18031,198.29567,78,40,1
198.29567,198.41103,77,40,1
198.41103,198.53027,75,40,1
198.53027,198.6495,73,40,1
198.6495,198.76581,75,49,1
198.61969,198.76581,72,40,1
198.58989,198.76581,68,40,1
198.88211,198.99747,73,40,1
198.99747,199.11284,72,40,1
199.11284,199.23308,70,40,1
199.23308,199.35332,68,40,1
199.35332,199.47511,80,53,1
199.32326,199.47511,77,40,1
199.2932,199.47511,73,40,1
199.5969,199.71225,78,42,1
199.71225,199.82762,77,45,1
199.82762,199.94298,75,47,1
199.94298,200.05833,73,51,1
200.05833,200.11829,78,57,1
200.05833,200.11829,81,57,1
200.05833,200.11829,85,57,1
200.29747,200.35759,85,51,1
200.29747,200.35759,81,51,1
200.29747,200.35759,78,51,1
200.53899,200.59962,85,51,1
200.53899,200.59962,81,51,1
200.53899,200.59962,78,51,1
202.40883,202.4632,76,38,1
202.22847,202.4632,73,53,1
202.4632,202.69968,74,45,1
202.69968,202.93616,73,45,1
202.93616,203.16687,71,52,1
203.16687,203.2813,73,45,1
203.2813,203.39572,74,45,1
203.39572,203.51015,76,47,1
203.51015,203.62457,78,48,1
203.62457,203.85623,80,52,1
203.85623,203.97066,78,53,1
203.97066,204.08508,80,43,1
204.08508,204.20235,81,46,1
204.20235,204.31961,83,49,1
204.31961,204.37758,85,52,1
204.55148,204.60945,85,49,1
204.78336,204.84268,85,48,1
205.758,205.81711,73,53,1
205.99448,206.05359,73,45,1
206.23096,206.29007,73,45,1
206.46744,206.69815,73,52,1
206.69815,206.8135,76,45,1
206.8135,206.92886,74,45,1
206.92886,207.04422,73,47,1
207.04422,207.15958,76,48,1
207.15958,207.21797,74,52,1
207.39314,207.45058,74,52,1
207.62291,207.68304,74,51,1
207.8634,207.92276,86,52,1
208.10088,208.16023,86,49,1
208.33835,208.39767,86,48,1
209.31299,209.3721,74,53,1
209.54947,209.60858,74,45,1
209.78595,209.84506,74,45,1
210.02243,210.25314,74,52,1
210.25314,210.36757,77,45,1
210.36757,210.482,76,45,1
210.482,210.59642,74,47,1
210.59642,210.71085,77,48,1
210.71085,210.76947,74,52,1
210.94536,211.00235,74,52,1
211.1733,211.23607,74,52,1
211.42442,211.4848,86,52,1
211.66592,211.72736,86,49,1
211.91164,211.97441,86,48,1
212.16277,212.39632,74,56,1
212.39632,212.62987,73,52,1
212.62987,212.86935,74,52,1
212.86935,213.10196,86,56,1
213.10196,213.33458,85,52,1
213.33458,213.57405,86,52,1
213.57405,213.80495,82,54,1
213.80495,214.03584,81,47,1
214.03584,214.26674,82,48,1
214.26674,214.49487,79,51,1
214.49487,214.60803,81,48,1
214.60803,214.72119,82,49,1
214.72119,214.83434,84,51,1
214.83434,214.9475,86,52,1
214.9475,215.179,82,57,1
215.179,215.29337,84,58,1
215.29337,215.40773,82,51,1
215.40773,215.5221,81,56,1
215.5221,215.63646,79,51,1
215.63646,215.69504,77,61,1
215.87082,215.9294,77,56,1
216.10516,216.16513,77,56,1
216.34502,216.57933,78,69,1
216.57933,216.81366,90,66,1
216.81366,216.87338,90,67,1
217.05255,217.28687,91,76,1
217.28687,217.52118,79,61,1
217.52118,217.57977,79,61,1
217.75551,217.81409,81,65,1
217.96054,217.98982,94,62,1
217.98982,218.10419,93,65,1
218.10419,218.21855,91,62,1
218.21855,218.45006,93,66,1
218.45006,218.50793,94,68,1
218.65262,218.68155,84,61,1
218.68155,218.79591,82,63,1
218.79591,218.91028,81,60,1
218.91028,219.03261,82,65,1
219.15494,219.27254,79,52,1
219.15494,219.27254,75,44,1
219.27254,219.39014,82,46,1
219.39014,219.50775,79,53,1
219.39014,219.50775,75,45,1
219.50775,219.62535,82,45,1
219.62535,219.74295,79,53,1
219.62535,219.74295,75,45,1
219.74295,219.86055,82,46,1
219.86055,219.97583,79,54,1
219.86055,219.97583,75,46,1
219.97583,220.09111,84,46,1
220.09111,220.20547,79,53,1
220.09111,220.20547,75,45,1
220.20547,220.31984,84,45,1
220.31984,220.43419,79,53,1
220.31984,220.43419,75,45,1
220.43419,220.54855,84,45,1
220.54855,220.6643,79,57,1
220.54855,220.6643,75,48,1
220.6643,220.78006,82,46,1
220.78006,220.89442,75,45,1
220.78006,220.89442,79,53,1
220.89442,221.00879,82,45,1
221.00879,221.12315,79,53,1
221.00879,221.12315,75,45,1
221.12315,221.23848,82,45,1
221.23848,221.35591,80,61,1
221.23848,221.35591,74,51,1
221.35591,221.47398,82,46,1
221.47398,221.59288,80,53,1
221.47398,221.59288,74,45,1
221.59288,221.71246,82,48,1
221.71246,221.8327,80,53,1
221.71246,221.8327,74,45,1
221.8327,221.95294,82,46,1
221.95294,222.0701,80,58,1
221.95294,222.0701,74,49,1
222.0701,222.18726,86,46,1
222.18726,222.30441,80,53,1
222.18726,222.30441,74,45,1
222.30441,222.42159,86,46,1
222.42159,222.5415,80,53,1
222.42159,222.5415,74,45,1
222.5415,222.66142,86,46,1
222.66142,222.77858,80,57,1
222.66142,222.77858,75,48,1
222.77858,222.89575,87,46,1
222.89575,223.01291,80,53,1
222.89575,223.01291,75,45,1
223.01291,223.13007,87,46,1
223.13007,223.24722,80,53,1
223.13007,223.24722,75,45,1
223.24722,223.36438,86,46,1
223.36438,223.48155,81,53,1
223.36438,223.48155,75,45,1
223.48155,223.59871,84,46,1
223.59871,223.71307,81,53,1
223.59871,223.71307,75,45,1
223.71307,223.82744,84,46,1
223.82744,223.9517,81,53,1
223.82744,223.9517,75,45,1
223.9517,224.07599,84,46,1
224.07599,224.19266,82,53,1
224.07599,224.19266,74,45,1
224.19266,224.30934,86,46,1
224.30934,224.4237,82,53,1
224.30934,224.4237,74,45,1
224.4237,224.53807,86,46,1
224.53807,224.66553,82,53,1
224.53807,224.66553,74,45,1
224.66553,224.793,86,46,1
224.793,224.90828,81,54,1
224.793,224.90828,75,46,1
224.90828,225.02356,84,46,1
225.02356,225.13792,81,53,1
225.02356,225.13792,75,45,1
225.13792,225.25229,84,45,1
225.25229,225.36664,81,53,1
225.25229,225.36664,75,45,1
225.36664,225.481,84,45,1
225.481,225.59843,82,57,1
225.481,225.59843,74,48,1
225.59843,225.71667,86,46,1
225.71667,225.83574,74,45,1
225.71667,225.83574,82,53,1
225.83574,225.95499,86,45,1
225.95499,226.07703,82,53,1
225.95499,226.07703,74,45,1
226.07703,226.19907,86,45,1
226.19907,226.31758,81,49,1
226.19907,226.31758,75,41,1
226.31758,226.4361,84,41,1
226.4361,226.55174,81,48,1
226.4361,226.55174,75,40,1
226.55174,226.66737,84,40,1
226.66737,226.7854,81,48,1
226.66737,226.7854,75,40,1
226.7854,226.90343,84,40,1
226.90343,227.02194,82,51,1
226.90343,227.02194,74,42,1
227.02194,227.14151,86,41,1
227.14151,227.26175,74,40,1
227.14151,227.26175,82,48,1
227.26175,227.382,86,40,1
227.382,227.50778,82,48,1
227.382,227.50778,74,40,1
227.50778,227.63358,86,40,1
227.63358,227.75613,81,43,1
227.63358,227.75613,75,35,1
227.75613,227.8787,84,37,1
227.8787,227.99432,81,42,1
227.8787,227.99432,75,35,1
227.99432,228.10997,84,35,1
228.10997,228.23201,81,42,1
228.10997,228.23201,75,35,1
228.23201,228.35405,84,35,1
228.35405,228.60672,82,45,1
228.35405,228.60672,74,38,1
228.35405,228.60672,86,45,1
229.11208,229.36475,86,39,1
229.11208,229.36475,82,39,1
229.11208,229.36475,74,33,1
229.8701,230.1269,86,38,1
229.8701,230.1269,82,38,1
229.8701,230.1269,74,32,1
230.64052,231.66774,86,34,1
230.64052,231.66774,82,34,1
230.64052,231.66774,74,28,1
0.0,0.11544675,62,38,1
0.0,0.11544675,58,31,1
0.11544675,0.2308935,65,25,1
0.2308935,0.34634024,62,29,1
0.2308935,0.34634024,58,24,1
0.34634024,0.461787,65,24,1
0.461787,0.57723373,58,24,1
0.461787,0.57723373,62,29,1
0.57723373,0.6926805,65,25,1
0.6926805,0.806749,58,28,1
0.6926805,0.806749,63,34,1
0.806749,0.9208175,67,25,1
0.9208175,1.0339737,58,24,1
0.9208175,1.0339737,63,29,1
1.0339737,1.14713,67,24,1
1.14713,1.2602862,63,29,1
1.14713,1.2602862,58,24,1
1.2602862,1.3734425,67,24,1
1.3734425,1.4879812,62,40,1
1.3734425,1.4879812,58,34,1
1.4879812,1.60252,65,25,1
1.60252,1.7156763,58,24,1
1.60252,1.7156763,62,29,1
1.7156763,1.8288325,65,24,1
1.8288325,1.9419887,62,29,1
1.8288325,1.9419887,58,24,1
1.9419887,2.055145,65,24,1
2.055145,2.1710825,57,29,1
2.055145,2.1710825,63,34,1
2.1710825,2.28702,65,25,1
2.28702,2.4029574,63,29,1
2.28702,2.4029574,57,24,1
2.4029574,2.518895,65,26,1
2.518895,2.637547,63,29,1
2.518895,2.637547,57,24,1
2.637547,2.756199,65,25,1
2.756199,2.8721187,57,31,1
2.756199,2.8721187,63,37,1
2.8721187,2.9880385,66,25,1
2.9880385,3.1039584,63,29,1
2.9880385,3.1039584,57,24,1
3.1039584,3.219878,66,25,1
3.219878,3.338072,63,29,1
3.219878,3.338072,57,24,1
3.338072,3.456266,66,25,1
3.456266,3.5721858,63,34,1
3.456266,3.5721858,58,29,1
3.5721858,3.6881056,67,25,1
3.6881056,3.8040252,58,24,1
3.6881056,3.8040252,63,29,1
3.8040252,3.919945,67,25,1
3.919945,4.035865,63,29,1
3.919945,4.035865,58,24,1
4.035865,4.1517844,67,25,1
4.1517844,4.2677045,63,34,1
4.1517844,4.2677045,60,29,1
4.2677045,4.383624,65,25,1
4.383624,4.4967804,63,29,1
4.383624,4.4967804,60,24,1
4.4967804,4.6099367,65,25,1
4.6099367,4.7244754,63,29,1
4.6099367,4.7244754,60,24,1
4.7244754,4.839014,65,25,1
4.839014,4.9535527,62,34,1
4.839014,4.9535527,58,29,1
4.9535527,5.0680914,65,25,1
5.0680914,5.1812477,62,29,1
5.0680914,5.1812477,58,24,1
5.1812477,5.294404,65,25,1
5.294404,5.4154496,62,29,1
5.294404,5.4154496,58,24,1
5.4154496,5.5364957,65,25,1
5.5364957,5.769234,58,48,1
5.769234,6.0019727,57,40,1
6.0019727,6.234711,58,40,1
6.234711,6.462848,55,48,1
6.462848,6.576004,57,39,1
6.576004,6.6891603,58,39,1
6.6891603,6.8023167,60,40,1
6.8023167,6.915473,62,40,1
6.915473,7.1445503,58,46,1
7.1445503,7.2577066,60,44,1
7.2577066,7.370863,58,40,1
7.370863,7.4840193,57,44,1
7.4840193,7.5971756,55,40,1
7.5971756,7.655144,53,47,1
7.8290505,7.887019,53,40,1
8.0609255,8.120023,53,40,1
8.297314,8.529153,54,51,1
8.529153,8.760992,66,39,1
8.760992,8.820318,66,41,1
8.998297,9.230136,67,51,1
9.230136,9.461975,55,45,1
9.461975,9.519936,55,46,1
9.693815,9.751775,58,51,1
9.867695,9.944514,48,39,1
9.925654,10.057671,46,46,1
10.038811,10.172462,45,42,1
10.151967,10.397909,46,45,1
10.397909,10.455632,51,42,1
10.571079,10.647662,41,37,1
10.628802,10.7608185,39,42,1
10.741959,10.875414,38,39,1
10.855115,10.976908,39,42,1
11.098701,11.221712,67,34,1
11.098701,11.221712,63,29,1
11.221712,11.344723,70,28,1
11.344723,11.457961,67,32,1
11.344723,11.457961,63,26,1
11.457961,11.571117,70,28,1
11.571117,11.685645,67,32,1
11.571117,11.685645,63,26,1
11.685645,11.800183,70,28,1
11.800183,11.920733,65,32,1
11.800183,11.920733,62,26,1
11.920733,12.041283,70,28,1
12.041283,12.154501,65,32,1
12.041283,12.154501,62,26,1
12.154501,12.267657,70,28,1
12.267657,12.384434,65,32,1
12.267657,12.384434,61,26,1
12.384434,12.501211,70,28,1
12.501211,12.621761,65,32,1
12.501211,12.621761,60,26,1
12.621761,12.742311,68,28,1
12.742311,12.855529,65,32,1
12.742311,12.855529,60,26,1
12.855529,12.968685,68,28,1
12.968685,13.088426,65,32,1
12.968685,13.088426,60,26,1
13.088426,13.208167,68,28,1
13.208167,13.3310175,65,32,1
13.208167,13.3310175,60,26,1
13.3310175,13.453867,67,28,1
13.453867,13.572108,64,32,1
13.453867,13.572108,60,26,1
13.572108,13.690349,67,28,1
13.690349,13.808589,64,32,1
13.690349,13.808589,60,26,1
13.808589,13.926829,67,30,1
13.926829,14.167311,60,44,1
14.167311,14.406793,61,40,1
14.406793,14.64849,60,40,1
13.926829,14.64849,56,37,1
14.64849,14.888971,58,44,1
14.888971,15.126445,53,42,1
15.305558,15.365934,58,44,1
15.126445,15.365934,55,44,1
14.64849,15.365934,49,37,1
15.365934,15.603239,56,44,1
15.603239,15.840543,55,38,1
15.840543,16.084127,56,35,1
16.084127,16.564783,58,37,1
16.564783,16.808899,59,34,1
15.365934,16.808899,51,37,1
16.808899,16.93191,60,34,1
16.808899,16.93191,56,29,1
16.93191,17.05492,63,28,1
17.05492,17.16816,60,32,1
17.05492,17.16816,56,26,1
17.16816,17.281315,63,28,1
17.281315,17.395842,60,32,1
17.281315,17.395842,56,26,1
17.395842,17.510382,63,28,1
17.510382,17.63093,58,32,1
17.510382,17.63093,55,26,1
17.63093,17.75148,63,28,1
17.75148,17.864698,58,32,1
17.75148,17.864698,55,26,1
17.864698,17.977854,63,28,1
17.977854,18.094631,58,32,1
17.977854,18.094631,54,26,1
18.094631,18.211409,63,28,1
18.211409,18.331959,58,32,1
18.211409,18.331959,53,26,1
18.331959,18.452509,61,28,1
18.452509,18.565725,58,32,1
18.452509,18.565725,53,26,1
18.565725,18.678883,61,28,1
18.678883,18.798119,58,32,1
18.678883,18.798119,53,26,1
18.798119,18.917356,61,28,1
18.917356,19.039148,58,32,1
18.917356,19.039148,53,26,1
19.039148,19.160942,60,28,1
19.160942,19.279678,57,32,1
19.160942,19.279678,53,26,1
19.279678,19.398415,60,28,1
19.398415,19.517153,57,32,1
19.398415,19.517153,53,26,1
19.517153,19.63589,60,30,1
19.63589,19.87637,65,44,1
19.87637,20.115852,66,40,1
20.115852,20.35416,65,40,1
19.63589,20.35416,61,37,1
20.35416,20.5967,63,44,1
20.5967,20.833183,58,42,1
21.0118,21.072176,63,41,1
20.833183,21.072176,60,44,1
20.35416,21.072176,54,37,1
21.072176,21.30948,61,44,1
21.30948,21.546785,60,38,1
21.546785,21.784088,61,35,1
21.784088,22.260258,63,37,1
22.260258,22.50162,64,34,1
21.072176,22.50162,56,37,1
22.50162,22.562141,65,34,1
22.50162,22.562141,61,29,1
22.743711,22.80487,49,28,1
22.98835,23.051413,49,28,1
23.240599,23.300976,61,26,1
23.243618,23.303993,65,32,1
23.482105,23.54353,49,28,1
23.727806,23.790588,49,28,1
23.978935,24.037323,65,33,1
23.978935,24.037323,61,28,1
24.21249,24.270168,49,28,1
24.443205,24.503582,49,28,1
24.684711,24.742865,66,34,1
24.684711,24.742865,61,28,1
24.917324,24.975004,49,28,1
25.14804,25.20791,49,28,1
25.387524,25.44842,65,33,1
25.387524,25.44842,61,28,1
25.63111,25.688787,49,28,1
25.861824,25.919504,49,33,1
26.09254,26.15241,66,38,1
26.09254,26.15241,61,31,1
26.33303,26.393665,49,28,1
26.57662,26.638044,49,28,1
26.822319,26.880709,66,33,1
26.822319,26.880709,61,28,1
26.822319,26.880709,58,28,1
27.055874,27.115744,49,25,1
27.295355,27.356516,49,25,1
27.539995,27.598146,66,30,1
27.539995,27.598146,61,25,1
27.539995,27.598146,58,25,1
27.772606,27.832478,49,25,1
28.012089,28.072477,49,25,1
28.256752,28.316624,61,29,1
28.256752,28.316624,56,24,1
28.49052,28.54964,49,24,1
28.727001,28.786121,49,24,1
28.963482,29.02187,58,30,1
28.963482,29.02187,54,25,1
29.197037,29.254248,42,24,1
29.42558,29.482561,42,24,1
29.652748,29.710901,66,29,1
29.652748,29.710901,63,24,1
29.885359,29.942572,56,24,1
30.11421,30.171423,56,24,1
30.343061,30.403437,61,24,1
30.343061,30.403437,65,29,1
30.584568,30.644945,49,24,1
30.826075,30.8854,49,24,1
31.06338,31.124014,65,30,1
31.06338,31.124014,61,25,1
31.305922,31.367346,49,25,1
31.55162,31.614683,49,25,1
31.80387,31.864246,61,25,1
31.806889,31.867266,65,31,1
32.045376,32.1068,49,28,1
32.291077,32.35386,49,28,1
32.542206,32.60108,65,33,1
32.542206,32.60108,61,28,1
32.777702,32.835384,49,28,1
33.00842,33.06804,49,28,1
33.246895,33.305046,66,34,1
33.246895,33.305046,61,28,1
33.479507,33.537186,49,28,1
33.71022,33.770344,49,28,1
33.950703,34.0116,65,33,1
33.950703,34.0116,61,28,1
34.19429,34.25197,49,28,1
34.425003,34.482685,49,33,1
34.65572,34.716354,66,38,1
34.65572,34.716354,61,31,1
34.898262,34.958897,49,28,1
35.140804,35.2025,49,28,1
35.387577,35.445965,66,33,1
35.387577,35.445965,61,28,1
35.387577,35.445965,57,28,1
35.62113,35.681767,54,25,1
35.86367,35.925365,54,25,1
36.110443,36.1686,66,30,1
36.110443,36.1686,61,25,1
36.110443,36.1686,57,25,1
36.343056,36.40369,54,25,1
36.585598,36.647827,54,25,1
36.83452,36.894638,61,24,1
36.83452,36.894638,57,24,1
36.83452,36.894638,66,29,1
37.069244,37.128365,54,24,1
37.305725,37.364845,54,24,1
37.542206,37.599884,66,30,1
37.542206,37.599884,62,25,1
37.772923,37.830135,50,24,1
38.001774,38.058983,50,24,1
38.23062,38.288536,64,29,1
38.23062,38.288536,62,24,1
38.462284,38.519497,52,24,1
38.69113,38.749763,52,24,1
38.925655,38.985775,61,24,1
38.925655,38.985775,64,29,1
39.166134,39.226257,57,24,1
39.406616,39.465942,57,24,1
39.64392,39.704556,64,30,1
39.64392,39.704556,61,25,1
39.886463,39.947098,57,25,1
40.129005,40.192066,57,26,1
40.381252,40.396034,61,24,1
40.381252,40.396034,64,29,1
40.617733,40.632515,57,24,1
40.854214,40.868996,57,24,1
41.0907,41.148376,64,30,1
41.0907,41.148376,61,25,1
41.32141,41.379093,58,24,1
41.552128,41.609806,58,24,1
41.782845,41.841232,64,29,1
41.782845,41.841232,62,24,1
42.0164,42.073845,59,24,1
42.246178,42.306297,59,24,1
42.48666,42.547035,62,24,1
42.48666,42.547035,64,29,1
42.728165,42.788544,59,24,1
42.969673,43.029,59,24,1
43.206978,43.267612,64,25,1
43.206978,43.267612,62,22,1
43.44952,43.510155,59,22,1
43.692062,43.755123,59,22,1
43.94431,44.00343,62,24,1
43.94431,44.00343,64,29,1
44.18079,44.23991,59,24,1
44.41727,44.47639,59,24,1
44.65375,44.711433,65,30,1
44.65375,44.711433,62,25,1
44.884468,44.94168,59,24,1
45.11332,45.170532,59,24,1
45.34217,45.4008,65,29,1
45.34217,45.4008,62,24,1
45.57669,45.633675,59,24,1
45.80462,45.867405,59,24,1
46.05575,46.116127,62,24,1
46.05575,46.116127,65,29,1
46.297256,46.35868,59,24,1
46.542957,46.60574,59,24,1
46.794086,46.910866,62,32,1
46.794086,46.910866,59,26,1
46.910866,47.02764,65,26,1
47.02764,47.144417,59,22,1
47.02764,47.144417,62,28,1
47.144417,47.261196,65,26,1
47.261196,47.380936,59,22,1
47.261196,47.380936,62,28,1
47.380936,47.50068,65,26,1
47.50068,47.616985,62,32,1
47.50068,47.616985,58,26,1
47.616985,47.73329,65,26,1
47.73329,47.849598,58,22,1
47.73329,47.849598,62,28,1
47.849598,47.9659,65,26,1
47.9659,48.085644,58,22,1
47.9659,48.085644,62,28,1
48.085644,48.205383,65,26,1
48.205383,48.32083,62,38,1
48.205383,48.32083,58,31,1
48.32083,48.43628,65,25,1
48.43628,48.551723,62,29,1
48.43628,48.551723,58,24,1
48.551723,48.66717,65,24,1
48.66717,48.78262,62,29,1
48.66717,48.78262,58,24,1
48.78262,48.898064,65,25,1
48.898064,49.012135,63,34,1
48.898064,49.012135,58,29,1
49.012135,49.1262,67,26,1
49.1262,49.239357,63,30,1
49.1262,49.239357,58,25,1
49.239357,49.352516,67,25,1
49.352516,49.46567,63,30,1
49.352516,49.46567,58,25,1
49.46567,49.578827,67,25,1
49.578827,49.693367,62,43,1
49.578827,49.693367,58,35,1
49.693367,49.807903,65,28,1
49.807903,49.921062,58,25,1
49.807903,49.921062,62,31,1
49.921062,50.034218,65,26,1
50.034218,50.147373,62,32,1
50.034218,50.147373,58,26,1
50.147373,50.26053,65,26,1
50.26053,50.37647,63,39,1
50.26053,50.37647,57,32,1
50.37647,50.492405,65,28,1
50.492405,50.60834,63,32,1
50.492405,50.60834,57,26,1
50.60834,50.72428,65,29,1
50.72428,50.84293,63,33,1
50.72428,50.84293,57,28,1
50.84293,50.961582,65,28,1
50.961582,51.077503,63,42,1
50.961582,51.077503,57,35,1
51.077503,51.193424,66,29,1
51.193424,51.30934,63,34,1
51.193424,51.30934,57,28,1
51.30934,51.425262,66,29,1
51.425262,51.543457,63,34,1
51.425262,51.543457,57,28,1
51.543457,51.66165,66,30,1
51.66165,51.77757,63,40,1
51.66165,51.77757,58,34,1
51.77757,51.89349,67,30,1
51.89349,52.00941,63,34,1
51.89349,52.00941,58,29,1
52.00941,52.125328,67,30,1
52.125328,52.24125,63,34,1
52.125328,52.24125,58,29,1
52.24125,52.35717,67,30,1
52.35717,52.473087,63,42,1
52.35717,52.473087,60,35,1
52.473087,52.58901,67,31,1
52.58901,52.702164,63,35,1
52.58901,52.702164,60,30,1
52.702164,52.815323,67,31,1
52.815323,52.92986,63,37,1
52.815323,52.92986,60,31,1
52.92986,53.0444,67,32,1
53.0444,53.158936,62,43,1
53.0444,53.158936,55,35,1
53.158936,53.273476,67,32,1
53.273476,53.38663,62,37,1
53.273476,53.38663,55,31,1
53.38663,53.49979,67,32,1
53.49979,53.620834,62,37,1
53.49979,53.620834,55,31,1
53.620834,53.74188,67,33,1
53.74188,53.974617,63,62,1
53.974617,54.207355,62,52,1
54.207355,54.440094,63,52,1
54.440094,54.668232,60,62,1
54.668232,54.781387,62,50,1
54.781387,54.894547,63,50,1
54.894547,55.0077,65,52,1
55.0077,55.120857,67,52,1
55.120857,55.349934,63,60,1
55.349934,55.463093,65,57,1
55.463093,55.57625,63,52,1
55.57625,55.689404,62,57,1
55.689404,55.80256,60,52,1
55.80256,55.860527,58,61,1
56.034435,56.092403,58,52,1
56.26631,56.32541,58,52,1
56.502697,56.73454,59,60,1
56.73454,56.966377,71,50,1
56.966377,57.025703,71,53,1
57.203682,57.43552,72,62,1
57.43552,57.66736,60,58,1
57.66736,57.72532,60,60,1
57.8992,57.95716,65,66,1
58.07308,58.1499,55,58,1
58.13104,58.263054,53,67,1
58.244194,58.377846,52,62,1
58.357353,58.603294,53,66,1
58.603294,58.66102,58,62,1
58.776463,58.853046,48,54,1
58.834187,58.9662,46,62,1
58.947342,59.08152,45,57,1
59.0605,59.312748,46,62,1
59.312748,59.540886,41,56,1
59.540886,59.65404,43,44,1
59.65404,59.767197,45,44,1
59.767197,59.88446,46,47,1
59.88446,60.00172,48,47,1
60.00172,60.060925,46,53,1
60.241207,60.30167,46,53,1
60.484276,60.5457,46,53,1
60.729977,60.964497,53,50,1
60.964497,61.078922,55,39,1
61.078922,61.193348,57,39,1
61.193348,61.310123,58,41,1
61.310123,61.426903,60,41,1
61.426903,61.487537,58,48,1
61.67049,61.731915,58,48,1
61.91655,61.97878,58,48,1
62.16547,62.408012,65,44,1
62.408012,62.522438,67,34,1
62.522438,62.636864,69,34,1
62.636864,62.757618,70,37,1
62.757618,62.878372,72,37,1
62.878372,62.940876,70,42,1
63.12839,63.190895,70,42,1
63.378414,63.45903,70,42,1
63.70089,63.823902,67,34,1
63.70089,63.823902,63,29,1
63.823902,63.94691,70,28,1
63.94691,64.06015,67,32,1
63.94691,64.06015,63,26,1
64.06015,64.17331,70,28,1
64.17331,64.287834,67,32,1
64.17331,64.287834,63,26,1
64.287834,64.402374,70,28,1
64.402374,64.52292,65,32,1
64.402374,64.52292,62,26,1
64.52292,64.64347,70,28,1
64.64347,64.75669,65,32,1
64.64347,64.75669,62,26,1
64.75669,64.86984,70,28,1
64.86984,64.986626,65,32,1
64.86984,64.986626,61,26,1
64.986626,65.1034,70,28,1
65.1034,65.22395,65,32,1
65.1034,65.22395,60,26,1
65.22395,65.3445,68,28,1
65.3445,65.45772,65,32,1
65.3445,65.45772,60,26,1
65.45772,65.57088,68,28,1
65.57088,65.69061,65,32,1
65.57088,65.69061,60,26,1
65.69061,65.810356,68,28,1
65.810356,65.933205,65,32,1
65.810356,65.933205,60,26,1
65.933205,66.05605,67,28,1
66.05605,66.17429,64,32,1
66.05605,66.17429,60,26,1
66.17429,66.292534,67,28,1
66.292534,66.410774,64,32,1
66.292534,66.410774,60,26,1
66.410774,66.529015,67,30,1
66.529015,66.7695,60,44,1
66.7695,67.00898,61,40,1
67.00898,67.25068,60,40,1
66.529015,67.25068,56,37,1
67.25068,67.49116,58,44,1
67.49116,67.72863,53,42,1
67.907745,67.968124,58,39,1
67.72863,67.968124,55,44,1
67.25068,67.968124,49,37,1
67.968124,68.20543,56,44,1
68.20543,68.44273,55,38,1
68.44273,68.68632,56,35,1
68.68632,69.16697,58,37,1
69.16697,69.41109,59,34,1
67.968124,69.41109,51,37,1
69.41109,69.534096,60,34,1
69.41109,69.534096,56,29,1
69.534096,69.65711,63,28,1
69.65711,69.77035,60,32,1
69.65711,69.77035,56,26,1
69.77035,69.88351,63,28,1
69.88351,69.99803,60,32,1
69.88351,69.99803,56,26,1
69.99803,70.11257,63,28,1
70.11257,70.233116,58,32,1
70.11257,70.233116,55,26,1
70.233116,70.35367,63,28,1
70.35367,70.46689,58,32,1
70.35367,70.46689,55,26,1
70.46689,70.58004,63,28,1
70.58004,70.69682,58,32,1
70.58004,70.69682,54,26,1
70.69682,70.8136,63,28,1
70.8136,70.93415,58,32,1
70.8136,70.93415,53,26,1
70.93415,71.054695,61,28,1
71.054695,71.167915,58,32,1
71.054695,71.167915,53,26,1
71.167915,71.281075,61,28,1
71.281075,71.40031,58,32,1
71.281075,71.40031,53,26,1
71.40031,71.51955,61,28,1
71.51955,71.641335,58,32,1
71.51955,71.641335,53,26,1
71.641335,71.76313,60,28,1
71.76313,71.88187,57,32,1
71.76313,71.88187,53,26,1
71.88187,72.0006,60,28,1
72.0006,72.11934,57,32,1
72.0006,72.11934,53,26,1
72.11934,72.238075,60,30,1
72.238075,72.47856,65,44,1
72.47856,72.71804,66,40,1
72.71804,72.956345,65,40,1
72.238075,72.956345,61,37,1
72.956345,73.19889,63,44,1
73.19889,73.43537,58,42,1
73.61399,73.67436,63,40,1
73.43537,73.67436,60,44,1
72.956345,73.67436,54,37,1
73.67436,73.91167,61,44,1
73.91167,74.14897,60,38,1
74.14897,74.38628,61,35,1
74.38628,74.86245,63,37,1
74.86245,75.103806,64,34,1
73.67436,75.103806,56,37,1
75.103806,75.16531,65,34,1
75.103806,75.16531,61,29,1
75.34983,75.41099,49,28,1
75.59447,75.65753,49,28,1
75.84672,75.9071,61,26,1
75.84974,75.91011,65,32,1
76.08823,76.14965,49,28,1
76.33392,76.396706,49,28,1
76.58505,76.64344,65,33,1
76.58505,76.64344,61,28,1
76.81861,76.87629,49,28,1
77.049324,77.1097,49,28,1
77.29083,77.34898,66,34,1
77.29083,77.34898,61,28,1
77.523445,77.58112,49,28,1
77.75416,77.81403,49,28,1
77.993645,78.05454,65,33,1
77.993645,78.05454,61,28,1
78.23723,78.29491,49,28,1
78.46794,78.52562,49,33,1
78.69866,78.75929,66,38,1
78.69866,78.75929,61,31,1
78.9412,79.00184,49,28,1
79.18375,79.24438,49,28,1
79.426285,79.48467,66,33,1
79.426285,79.48467,61,28,1
79.426285,79.48467,58,28,1
79.65984,79.71971,49,25,1
79.89932,79.96048,49,25,1
80.14396,80.20211,66,30,1
80.14396,80.20211,61,25,1
80.14396,80.20211,58,25,1
80.37657,80.43645,49,25,1
80.61606,80.676445,49,25,1
80.86072,80.92059,61,29,1
80.86072,80.92059,56,24,1
81.09449,81.15361,49,24,1
81.33097,81.39009,49,24,1
81.56745,81.62584,58,30,1
81.56745,81.62584,54,25,1
81.801,81.858215,42,24,1
82.02955,82.086525,42,24,1
82.256714,82.314865,66,29,1
82.256714,82.314865,63,24,1
82.48933,82.54654,56,24,1
82.71818,82.77539,56,24,1
82.94703,83.00615,61,24,1
82.94703,83.00615,65,29,1
83.18417,83.24379,49,24,1
83.42365,83.484024,49,24,1
83.66516,83.72579,65,30,1
83.66516,83.72579,61,25,1
83.9077,83.969124,49,25,1
84.1534,84.21646,49,25,1
84.40565,84.46603,61,25,1
84.40867,84.46905,65,31,1
84.647156,84.70858,49,28,1
84.89285,84.955635,49,28,1
85.14398,85.20286,65,33,1
85.14398,85.20286,61,28,1
85.379486,85.437164,49,28,1
85.6102,85.669815,49,28,1
85.84867,85.90683,66,34,1
85.84867,85.90683,61,28,1
86.08128,86.13896,49,28,1
86.312004,86.37212,49,28,1
86.55248,86.61338,65,33,1
86.55248,86.61338,61,28,1
86.79607,86.853745,49,28,1
87.02679,87.084465,49,33,1
87.25896,87.31892,66,38,1
87.25896,87.31892,61,31,1
87.50013,87.56103,49,28,1
87.74513,87.80709,49,28,1
87.99296,88.05135,66,33,1
87.99296,88.05135,61,28,1
87.99296,88.05135,57,28,1
88.22652,88.28715,54,25,1
88.469055,88.530754,54,25,1
88.71583,88.77398,66,30,1
88.71583,88.77398,61,25,1
88.71583,88.77398,57,25,1
88.94844,89.00908,54,25,1
89.19099,89.25321,54,25,1
89.4399,89.50002,61,24,1
89.4399,89.50002,57,24,1
89.4399,89.50002,66,29,1
89.67463,89.73375,54,24,1
89.91111,89.97023,54,24,1
90.14759,90.20527,66,30,1
90.14759,90.20527,62,25,1
90.3783,90.43552,50,24,1
90.607155,90.66437,50,24,1
90.836006,90.89392,64,29,1
90.836006,90.89392,62,24,1
91.067665,91.12488,52,24,1
91.29652,91.35515,52,24,1
91.53104,91.58901,61,24,1
91.53104,91.58901,64,29,1
91.76292,91.820885,57,24,1
91.99479,92.054115,57,24,1
92.23209,92.29273,64,30,1
92.23209,92.29273,61,25,1
92.47463,92.53527,57,25,1
92.71718,92.78024,57,26,1
92.96943,93.02855,61,24,1
92.96943,93.02855,64,29,1
93.20591,93.26503,57,24,1
93.44239,93.50151,57,24,1
93.67887,93.73655,64,30,1
93.67887,93.73655,61,25,1
93.909584,93.96726,58,24,1
94.140305,94.19798,58,24,1
94.37102,94.429405,64,29,1
94.37102,94.429405,62,24,1
94.60457,94.66202,59,24,1
94.83435,94.89447,59,24,1
95.07483,95.1342,62,24,1
95.07483,95.1342,64,29,1
95.31231,95.37167,59,24,1
95.54978,95.60911,59,24,1
95.78709,95.84772,64,25,1
95.78709,95.84772,62,22,1
96.029625,96.09026,59,22,1
96.27217,96.33523,59,22,1
96.524414,96.583534,62,24,1
96.524414,96.583534,64,29,1
96.760895,96.820015,59,24,1
96.997375,97.056496,59,24,1
97.23386,97.29154,65,30,1
97.23386,97.29154,62,25,1
97.46458,97.52179,59,24,1
97.69343,97.75064,59,24,1
97.92228,97.9809,65,29,1
97.92228,97.9809,62,24,1
98.1568,98.21378,59,24,1
98.38473,98.44751,59,24,1
98.63586,98.696236,62,24,1
98.63586,98.696236,65,29,1
98.877365,98.93879,59,24,1
99.12306,99.185844,59,24,1
99.37419,99.490974,62,32,1
99.37419,99.490974,59,26,1
99.490974,99.60775,65,26,1
99.60775,99.724525,59,22,1
99.60775,99.724525,62,28,1
99.724525,99.8413,65,26,1
99.8413,99.961044,59,22,1
99.8413,99.961044,62,28,1
99.961044,100.08079,65,26,1
100.08079,100.19709,62,32,1
100.08079,100.19709,58,26,1
100.19709,100.3134,65,26,1
100.3134,100.4297,58,22,1
100.3134,100.4297,62,28,1
100.4297,100.546005,65,26,1
100.546005,100.66575,58,22,1
100.546005,100.66575,62,28,1
100.66575,100.78549,65,26,1
100.78549,100.90094,62,38,1
100.78549,100.90094,58,31,1
100.90094,101.01639,65,25,1
101.01639,101.13183,62,29,1
101.01639,101.13183,58,24,1
101.13183,101.24728,65,24,1
101.24728,101.362724,62,29,1
101.24728,101.362724,58,24,1
101.362724,101.47817,65,25,1
101.47817,101.59224,63,34,1
101.47817,101.59224,58,29,1
101.59224,101.70631,67,26,1
101.70631,101.819466,63,30,1
101.70631,101.819466,58,25,1
101.819466,101.93262,67,25,1
101.93262,102.04578,63,30,1
101.93262,102.04578,58,25,1
102.04578,102.158936,67,25,1
102.158936,102.27468,62,43,1
102.158936,102.27468,58,35,1
102.27468,102.390434,65,28,1
102.390434,102.5048,58,25,1
102.390434,102.5048,62,31,1
102.5048,102.61916,65,26,1
102.61916,102.73353,62,32,1
102.61916,102.73353,58,26,1
102.73353,102.84789,65,26,1
102.84789,102.965065,63,39,1
102.84789,102.965065,57,32,1
102.965065,103.082245,65,28,1
103.082245,103.199425,63,32,1
103.082245,103.199425,57,26,1
103.199425,103.316605,65,29,1
103.316605,103.43652,63,33,1
103.316605,103.43652,57,28,1
103.43652,103.55645,65,28,1
103.55645,103.67361,63,42,1
103.55645,103.67361,57,35,1
103.67361,103.79077,66,29,1
103.79077,103.90793,63,34,1
103.79077,103.90793,57,28,1
103.90793,104.02509,66,29,1
104.02509,104.14454,63,34,1
104.02509,104.14454,57,28,1
104.14454,104.263985,66,30,1
104.263985,104.38114,63,40,1
104.263985,104.38114,58,34,1
104.38114,104.4983,67,30,1
104.4983,104.61546,63,34,1
104.4983,104.61546,58,29,1
104.61546,104.73262,67,30,1
104.73262,104.84978,63,34,1
104.73262,104.84978,58,29,1
104.84978,104.96694,67,30,1
104.96694,105.0841,63,42,1
104.96694,105.0841,60,35,1
105.0841,105.20126,67,31,1
105.20126,105.31563,63,35,1
105.20126,105.31563,60,30,1
105.31563,105.42999,67,31,1
105.42999,105.54574,63,37,1
105.42999,105.54574,60,31,1
105.54574,105.66149,67,32,1
105.66149,105.77724,62,43,1
105.66149,105.77724,55,35,1
105.77724,105.89299,67,32,1
105.89299,106.007355,62,37,1
105.89299,106.007355,55,31,1
106.007355,106.12172,67,32,1
106.12172,106.24405,62,37,1
106.12172,106.24405,55,31,1
106.24405,106.36638,67,33,1
106.36638,106.60158,63,62,1
106.60158,106.83678,62,52,1
106.83678,107.07198,63,52,1
107.07198,107.302536,60,62,1
107.302536,107.4169,62,50,1
107.4169,107.531265,63,50,1
107.531265,107.64563,65,52,1
107.64563,107.759995,67,52,1
107.759995,107.99149,63,60,1
107.99149,108.10586,65,57,1
108.10586,108.22022,63,52,1
108.22022,108.33459,62,57,1
108.33459,108.44895,60,52,1
108.44895,108.50754,58,61,1
108.68331,108.7419,58,52,1
108.91766,108.97739,58,52,1
109.156555,109.39088,59,60,1
109.39088,109.6252,71,50,1
109.6252,109.68516,71,53,1
109.86504,110.099365,72,62,1
110.099365,110.33368,60,58,1
110.33368,110.392265,60,60,1
110.568,110.62658,65,66,1
110.743744,110.82138,55,58,1
110.80232,110.935745,53,67,1
110.91669,111.051765,52,62,1
111.03105,111.2796,53,66,1
111.2796,111.33794,58,62,1
111.45461,111.53201,48,56,1
111.512955,111.64638,46,62,1
111.62732,111.762924,45,57,1
111.741684,111.99661,46,62,1
111.99661,112.227165,41,56,1
112.227165,112.34153,43,44,1
112.34153,112.455894,45,44,1
112.455894,112.57026,46,47,1
112.57026,112.68462,48,47,1
112.68462,112.7435,46,53,1
112.92111,112.98073,46,53,1
113.16059,113.22161,46,53,1
113.40467,113.64169,53,50,1
113.64169,113.75733,55,39,1
113.75733,113.87298,57,39,1
113.87298,113.991005,58,41,1
113.991005,114.10903,60,41,1
114.10903,114.16865,58,48,1
114.34851,114.40897,58,48,1
114.59088,114.65377,58,48,1
114.84245,115.08757,65,44,1
115.08757,115.20321,67,34,1
115.20321,115.318855,69,34,1
115.318855,115.440895,70,37,1
115.440895,115.562935,72,37,1
115.562935,115.81561,70,42,1
116.81293,116.958725,46,45,1
117.3793,117.52437,49,63,1
118.51718,118.80732,42,45,1
119.08749,119.23255,41,63,1
120.22953,120.52113,46,45,1
120.795906,121.086044,49,63,1
121.933784,122.22392,41,38,1
122.50409,122.65294,32,43,1
123.66388,123.95849,37,38,1
124.24862,124.3967,37,39,1
124.54477,124.69285,49,32,1
124.84092,124.99639,48,29,1
125.441666,125.58746,46,45,1
126.00804,126.153114,49,63,1
127.14592,127.43606,42,45,1
127.716225,127.86129,41,63,1
128.85828,129.14987,46,45,1
129.42465,129.71478,49,63,1
130.56253,130.85266,41,38,1
131.13283,131.28168,32,43,1
132.29262,132.58722,37,38,1
132.89653,133.04462,37,39,1
133.19269,133.34076,49,32,1
133.48883,133.64272,48,29,1
134.09068,134.38081,46,45,1
134.66098,134.95111,49,67,1
135.79886,136.08899,48,51,1
136.36916,136.6593,36,73,1
137.52663,137.81676,48,43,1
138.09692,138.39543,51,35,1
139.25974,139.4152,44,45,1
139.57068,139.71992,42,48,1
139.86919,140.02072,41,42,1
141.06805,141.35965,58,45,1
141.63992,141.93005,61,63,1
142.78197,143.07358,54,45,1
143.34834,143.63849,53,63,1
144.4904,144.782,46,45,1
145.05678,145.34691,49,63,1
146.19466,146.51393,41,45,1
146.80518,147.11774,29,64,1
147.98665,148.28127,34,38,1
148.5714,148.71947,46,39,1
148.86755,149.01562,49,32,1
149.1637,149.31917,48,29,1
149.77925,150.07481,46,45,1
150.36047,150.6506,49,67,1
151.50665,151.7968,48,51,1
152.0784,152.36855,36,73,1
153.23865,153.52878,48,43,1
153.80894,154.10745,51,35,1
154.97176,155.12723,44,45,1
155.2827,155.44493,42,48,1
155.60716,155.7587,41,42,1
156.80603,157.09764,58,45,1
157.3779,157.66805,61,63,1
158.51994,158.81155,54,45,1
159.08633,159.37646,53,63,1
160.22838,160.51997,46,45,1
160.79475,161.08488,49,63,1
161.93263,162.25192,41,45,1
162.55191,162.86449,29,64,1
163.78041,164.11392,34,38,1
164.44743,164.78096,46,39,1
165.42543,165.54086,62,38,1
165.42543,165.54086,58,31,1
165.54086,165.65631,65,25,1
165.65631,165.77176,62,29,1
165.65631,165.77176,58,24,1
165.77176,165.8872,65,24,1
165.8872,166.00266,62,29,1
165.8872,166.00266,58,24,1
166.00266,166.1181,65,25,1
166.1181,166.23218,63,34,1
166.1181,166.23218,58,28,1
166.23218,166.34624,67,25,1
166.34624,166.4594,63,29,1
166.34624,166.4594,58,24,1
166.4594,166.57256,67,24,1
166.57256,166.68571,63,29,1
166.57256,166.68571,58,24,1
166.68571,166.79886,67,24,1
166.79886,166.9134,62,40,1
166.79886,166.9134,58,34,1
166.9134,167.02794,65,25,1
167.02794,167.1411,58,24,1
167.02794,167.1411,62,29,1
167.1411,167.25426,65,24,1
167.25426,167.36742,62,29,1
167.25426,167.36742,58,24,1
167.36742,167.48056,65,24,1
167.48056,167.59651,63,34,1
167.48056,167.59651,57,29,1
167.59651,167.71245,65,25,1
167.71245,167.82838,63,29,1
167.71245,167.82838,57,24,1
167.82838,167.94432,65,26,1
167.94432,168.06297,63,29,1
167.94432,168.06297,57,24,1
168.06297,168.18163,65,25,1
168.18163,168.29755,63,37,1
168.18163,168.29755,57,31,1
168.29755,168.41347,66,25,1
168.41347,168.52939,63,29,1
168.41347,168.52939,57,24,1
168.52939,168.6453,66,25,1
168.6453,168.76349,63,29,1
168.6453,168.76349,57,24,1
168.76349,168.88168,66,25,1
168.88168,168.9976,63,34,1
168.88168,168.9976,58,29,1
168.9976,169.11353,67,25,1
169.11353,169.22945,63,29,1
169.11353,169.22945,58,24,1
169.22945,169.34537,67,25,1
169.34537,169.46129,63,29,1
169.34537,169.46129,58,24,1
169.46129,169.57721,67,25,1
169.57721,169.69313,63,34,1
169.57721,169.69313,60,29,1
169.69313,169.80905,65,25,1
169.80905,169.92221,63,29,1
169.80905,169.92221,60,24,1
169.92221,170.03535,65,25,1
170.03535,170.1499,63,29,1
170.03535,170.1499,60,24,1
170.1499,170.26443,65,25,1
170.26443,170.37898,62,34,1
170.26443,170.37898,58,29,1
170.37898,170.49352,65,25,1
170.49352,170.60667,62,29,1
170.49352,170.60667,58,24,1
170.60667,170.71983,65,25,1
170.71983,170.84087,62,29,1
170.71983,170.84087,58,24,1
170.84087,170.96191,65,25,1
170.96191,171.19466,58,48,1
171.19466,171.4274,57,40,1
171.4274,171.66014,58,40,1
171.66014,171.88828,55,48,1
171.88828,172.00143,57,39,1
172.00143,172.11458,58,39,1
172.11458,172.22774,60,40,1
172.22774,172.3409,62,40,1
172.3409,172.56998,58,46,1
172.56998,172.68314,60,44,1
172.68314,172.79628,58,40,1
172.79628,172.90944,57,44,1
172.90944,173.0226,55,40,1
173.0226,173.13853,53,47,1
173.25447,173.3704,53,40,1
173.48634,173.60454,53,40,1
173.72273,173.95457,54,51,1
173.95457,174.18642,66,39,1
174.18642,174.30507,66,41,1
174.42372,174.65556,67,51,1
174.65556,174.8874,55,45,1
174.8874,175.00331,55,46,1
175.11923,175.1772,58,51,1
175.29312,175.36993,48,39,1
175.35107,175.4831,46,46,1
175.46423,175.59789,45,42,1
175.5774,175.82333,46,45,1
175.82333,175.88106,51,42,1
175.9965,176.07309,41,39,1
176.05423,176.18623,39,42,1
176.16739,176.30084,38,39,1
176.28053,176.40233,39,42,1
176.52412,176.64714,67,34,1
176.52412,176.64714,63,29,1
176.64714,176.77014,70,28,1
176.77014,176.88338,67,32,1
176.77014,176.88338,63,26,1
176.88338,176.99654,70,28,1
176.99654,177.11107,67,32,1
176.99654,177.11107,63,26,1
177.11107,177.2256,70,28,1
177.2256,177.34616,65,32,1
177.2256,177.34616,62,26,1
177.34616,177.4667,70,28,1
177.4667,177.57993,65,32,1
177.4667,177.57993,62,26,1
177.57993,177.69308,70,28,1
177.69308,177.80986,65,32,1
177.69308,177.80986,61,26,1
177.80986,177.92664,70,28,1
177.92664,178.04718,65,32,1
177.92664,178.04718,60,26,1
178.04718,178.16774,68,28,1
178.16774,178.28094,65,32,1
178.16774,178.28094,60,26,1
178.28094,178.3941,68,28,1
178.3941,178.51385,65,32,1
178.3941,178.51385,60,26,1
178.51385,178.63359,68,28,1
178.63359,178.75644,65,32,1
178.63359,178.75644,60,26,1
178.75644,178.87929,67,28,1
178.87929,178.99753,64,32,1
178.87929,178.99753,60,26,1
178.99753,179.11577,67,28,1
179.11577,179.23401,64,32,1
179.11577,179.23401,60,26,1
179.23401,179.35225,67,30,1
179.35225,179.59273,60,44,1
179.59273,179.83221,61,40,1
179.83221,180.07391,60,40,1
179.35225,180.07391,56,37,1
180.07391,180.31439,58,44,1
180.31439,180.55186,53,42,1
180.73099,180.79135,58,41,1
180.55186,180.79135,55,44,1
180.07391,180.79135,49,37,1
180.79135,181.02866,56,44,1
181.02866,181.26596,55,38,1
181.26596,181.50955,56,35,1
181.50955,181.9902,58,37,1
181.9902,182.23431,59,34,1
180.79135,182.23431,51,37,1
182.23431,182.35733,60,34,1
182.23431,182.35733,56,29,1
182.35733,182.48035,63,28,1
182.48035,182.59358,60,32,1
182.48035,182.59358,56,26,1
182.59358,182.70674,63,28,1
182.70674,182.82126,60,32,1
182.70674,182.82126,56,26,1
182.82126,182.9358,63,28,1
182.9358,183.05635,58,32,1
182.9358,183.05635,55,26,1
183.05635,183.17691,63,28,1
183.17691,183.29012,58,32,1
183.17691,183.29012,55,26,1
183.29012,183.40327,63,28,1
183.40327,183.52005,58,32,1
183.40327,183.52005,54,26,1
183.52005,183.63683,63,28,1
183.63683,183.75739,58,32,1
183.63683,183.75739,53,26,1
183.75739,183.87793,61,28,1
183.87793,183.99115,58,32,1
183.87793,183.99115,53,26,1
183.99115,184.10431,61,28,1
184.10431,184.22354,58,32,1
184.10431,184.22354,53,26,1
184.22354,184.34277,61,28,1
184.34277,184.46457,58,32,1
184.34277,184.46457,53,26,1
184.46457,184.58636,60,28,1
184.58636,184.70511,57,32,1
184.58636,184.70511,53,26,1
184.70511,184.82384,60,28,1
184.82384,184.94258,57,32,1
184.82384,184.94258,53,26,1
184.94258,185.06131,60,30,1
185.06131,185.30179,65,44,1
185.30179,185.54128,66,40,1
185.54128,185.77959,65,40,1
185.06131,185.77959,61,37,1
185.77959,186.02213,63,44,1
186.02213,186.2586,58,42,1
186.43723,186.4976,63,41,1
186.2586,186.4976,60,44,1
185.77959,186.4976,54,37,1
186.4976,186.73491,61,44,1
186.73491,186.97221,60,38,1
186.97221,187.20952,61,35,1
187.20952,187.68568,63,37,1
187.68568,187.92705,64,34,1
186.4976,187.92705,56,37,1
187.92705,187.98854,65,34,1
187.92705,187.98854,61,29,1
188.17307,188.23422,49,28,1
188.41771,188.48076,49,28,1
188.66995,188.73033,61,26,1
188.67297,188.73335,65,32,1
188.91145,188.97289,49,28,1
189.15717,189.21994,49,28,1
189.4083,189.46667,65,33,1
189.4083,189.46667,61,28,1
189.64185,189.69952,49,28,1
189.87256,189.93294,49,28,1
190.11406,190.17223,66,34,1
190.11406,190.17223,61,28,1
190.34668,190.40436,49,28,1
190.5774,190.63727,49,28,1
190.81688,190.87778,65,33,1
190.81688,190.87778,61,28,1
191.06046,191.11815,49,28,1
191.29118,191.34886,49,33,1
191.52303,191.58238,66,38,1
191.52303,191.58238,61,31,1
191.76132,191.8212,49,28,1
192.00165,192.06203,49,28,1
192.24419,192.30258,66,33,1
192.24419,192.30258,61,28,1
192.24419,192.30258,58,28,1
192.47775,192.53761,49,25,1
192.71722,192.7784,49,25,1
192.96187,193.02002,66,30,1
192.96187,193.02002,61,25,1
192.96187,193.02002,58,25,1
193.19447,193.25435,49,25,1
193.43396,193.49435,49,25,1
193.67862,193.7385,61,29,1
193.67862,193.7385,56,24,1
193.9124,193.97151,49,24,1
194.14888,194.208,49,24,1
194.38536,194.44374,58,30,1
194.38536,194.44374,54,25,1
194.61891,194.67612,42,24,1
194.84746,194.90443,42,24,1
195.07462,195.13278,66,29,1
195.07462,195.13278,63,24,1
195.30724,195.36444,56,24,1
195.53609,195.59329,56,24,1
195.76494,195.8229,61,24,1
195.76494,195.8229,65,29,1
195.99681,196.05478,49,24,1
196.22868,196.28801,49,24,1
196.46599,196.52663,65,30,1
196.46599,196.52663,61,25,1
196.70853,196.76996,49,25,1
196.95422,197.01729,49,25,1
197.20648,197.26686,61,25,1
197.2095,197.26988,65,31,1
197.44798,197.50941,49,28,1
197.69368,197.75647,49,28,1
197.94481,198.0037,65,33,1
197.94481,198.0037,61,28,1
198.18031,198.23799,49,28,1
198.41103,198.47064,49,28,1
198.6495,198.70766,66,34,1
198.6495,198.70766,61,28,1
198.88211,198.93979,49,28,1
199.11284,199.17296,49,28,1
199.35332,199.41422,65,33,1
199.35332,199.41422,61,28,1
199.5969,199.65457,49,28,1
199.82762,199.8853,49,33,1
200.05833,200.11829,66,38,1
200.05833,200.11829,61,31,1
200.29747,200.35759,49,28,1
200.53899,200.59962,49,28,1
200.78152,200.83992,66,33,1
200.78152,200.83992,61,28,1
200.78152,200.83992,57,28,1
201.01508,201.07571,54,25,1
201.25763,201.31932,54,25,1
201.5044,201.56255,66,30,1
201.5044,201.56255,61,25,1
201.5044,201.56255,57,25,1
201.737,201.79764,54,25,1
201.97955,202.04178,54,25,1
202.22847,202.28859,61,24,1
202.22847,202.28859,57,24,1
202.22847,202.28859,66,29,1
202.4632,202.52231,54,24,1
202.69968,202.75879,54,24,1
202.93616,202.99384,66,30,1
202.93616,202.99384,62,25,1
203.16687,203.22409,50,24,1
203.39572,203.45294,50,24,1
203.62457,203.6825,64,29,1
203.62457,203.6825,62,24,1
203.85623,203.91345,52,24,1
204.08508,204.1437,52,24,1
204.31961,204.37758,61,24,1
204.31961,204.37758,64,29,1
204.55148,204.60945,57,24,1
204.78336,204.84268,57,24,1
205.02066,205.0813,64,30,1
205.02066,205.0813,61,25,1
205.2632,205.32384,57,25,1
205.50574,205.5688,57,26,1
205.758,205.81711,61,24,1
205.758,205.81711,64,29,1
205.99448,206.05359,57,24,1
206.23096,206.29007,57,24,1
206.46744,206.52512,64,30,1
206.46744,206.52512,61,25,1
206.69815,206.75583,58,24,1
206.92886,206.98654,58,24,1
207.15958,207.21797,64,29,1
207.15958,207.21797,62,24,1
207.39314,207.45058,59,24,1
207.62291,207.68304,59,24,1
207.8634,207.92276,62,24,1
207.8634,207.92276,64,29,1
208.10088,208.16023,59,24,1
208.33835,208.39767,59,24,1
208.57565,208.63629,64,25,1
208.57565,208.63629,62,22,1
208.81819,208.87883,59,22,1
209.06073,209.1238,59,22,1
209.31299,209.3721,62,24,1
209.31299,209.3721,64,29,1
209.54947,209.60858,59,24,1
209.78595,209.84506,59,24,1
210.02243,210.08011,65,30,1
210.02243,210.08011,62,25,1
210.25314,210.31035,59,24,1
210.482,210.5392,59,24,1
210.71085,210.76947,65,29,1
210.71085,210.76947,62,24,1
210.94536,211.00235,59,24,1
211.1733,211.23607,59,24,1
211.42442,211.4848,62,24,1
211.42442,211.4848,65,29,1
211.66592,211.72736,59,24,1
211.91164,211.97441,59,24,1
212.16277,212.27954,62,32,1
212.16277,212.27954,59,26,1
212.27954,212.39632,65,26,1
212.39632,212.51309,59,22,1
212.39632,212.51309,62,28,1
212.51309,212.62987,65,26,1
212.62987,212.7496,59,22,1
212.62987,212.7496,62,28,1
212.7496,212.86935,65,26,1
212.86935,212.98566,62,32,1
212.86935,212.98566,58,26,1
212.98566,213.10196,65,26,1
213.10196,213.21826,58,22,1
213.10196,213.21826,62,28,1
213.21826,213.33458,65,26,1
213.33458,213.45432,58,22,1
213.33458,213.45432,62,28,1
213.45432,213.57405,65,26,1
213.57405,213.6895,62,38,1
213.57405,213.6895,58,31,1
213.6895,213.80495,65,25,1
213.80495,213.9204,62,29,1
213.80495,213.9204,58,24,1
213.9204,214.03584,65,24,1
214.03584,214.15129,62,29,1
214.03584,214.15129,58,24,1
214.15129,214.26674,65,25,1
214.26674,214.3808,63,34,1
214.26674,214.3808,58,29,1
214.3808,214.49487,67,26,1
214.49487,214.60803,63,30,1
214.49487,214.60803,58,25,1
214.60803,214.72119,67,25,1
214.72119,214.83434,63,30,1
214.72119,214.83434,58,25,1
214.83434,214.9475,67,25,1
214.9475,215.06325,62,43,1
214.9475,215.06325,58,35,1
215.06325,215.179,65,28,1
215.179,215.29337,58,25,1
215.179,215.29337,62,31,1
215.29337,215.40773,65,26,1
215.40773,215.5221,62,32,1
215.40773,215.5221,58,26,1
215.5221,215.63646,65,26,1
215.63646,215.75363,63,39,1
215.63646,215.75363,57,32,1
215.75363,215.87082,65,28,1
215.87082,215.98799,63,32,1
215.87082,215.98799,57,26,1
215.98799,216.10516,65,29,1
216.10516,216.2251,63,33,1
216.10516,216.2251,57,28,1
216.2251,216.34502,65,28,1
216.34502,216.46217,63,42,1
216.34502,216.46217,57,35,1
216.46217,216.57933,66,29,1
216.57933,216.6965,63,34,1
216.57933,216.6965,57,28,1
216.6965,216.81366,66,29,1
216.81366,216.9331,63,34,1
216.81366,216.9331,57,28,1
216.9331,217.05255,66,30,1
217.05255,217.16971,63,40,1
217.05255,217.16971,58,34,1
217.16971,217.28687,67,30,1
217.28687,217.40402,63,34,1
217.28687,217.40402,58,29,1
217.40402,217.52118,67,30,1
217.52118,217.63835,63,34,1
217.52118,217.63835,58,29,1
217.63835,217.75551,67,30,1
217.75551,217.87267,63,42,1
217.75551,217.87267,60,35,1
217.87267,217.98982,67,31,1
217.98982,218.10419,63,35,1
217.98982,218.10419,60,30,1
218.10419,218.21855,67,31,1
218.21855,218.3343,63,37,1
218.21855,218.3343,60,31,1
218.3343,218.45006,67,32,1
218.45006,218.56581,62,43,1
218.45006,218.56581,55,35,1
218.56581,218.68155,67,32,1
218.68155,218.79591,62,37,1
218.68155,218.79591,55,31,1
218.79591,218.91028,67,32,1
218.91028,219.03261,62,37,1
218.91028,219.03261,55,31,1
219.03261,219.15494,67,33,1
219.15494,219.39014,63,62,1
219.39014,219.62535,62,52,1
219.62535,219.86055,63,52,1
219.86055,220.09111,60,62,1
220.09111,220.20547,62,50,1
220.20547,220.31984,63,50,1
220.31984,220.43419,65,52,1
220.43419,220.54855,67,52,1
220.54855,220.78006,63,60,1
220.78006,220.89442,65,57,1
220.89442,221.00879,63,52,1
221.00879,221.12315,62,57,1
221.12315,221.23848,60,52,1
221.23848,221.29712,58,61,1
221.47398,221.53336,58,52,1
221.71246,221.77258,58,52,1
221.95294,222.18726,59,60,1
222.18726,222.42159,71,50,1
222.42159,222.5415,71,53,1
222.66142,222.89575,72,62,1
222.89575,223.13007,60,58,1
223.13007,223.24722,60,60,1
223.36438,223.42297,65,66,1
223.54013,223.61777,55,58,1
223.59871,223.73213,53,67,1
223.71307,223.84814,52,62,1
223.82744,224.07599,53,66,1
224.07599,224.13432,58,62,1
224.251,224.3284,48,55,1
224.30934,224.44276,46,62,1
224.4237,224.55931,45,57,1
224.53807,224.793,46,62,1
224.793,225.02356,41,56,1
225.02356,225.13792,43,44,1
225.13792,225.25229,45,44,1
225.25229,225.36664,46,47,1
225.36664,225.481,48,47,1
225.481,225.53964,46,53,1
225.71667,225.77612,46,53,1
225.95499,226.016,46,53,1
226.19907,226.4361,53,50,1
226.4361,226.55174,55,39,1
226.55174,226.66737,57,39,1
226.66737,226.7854,58,41,1
226.7854,226.90343,60,41,1
226.90343,226.96233,58,48,1
227.14151,227.20163,58,48,1
227.382,227.44489,58,48,1
227.63358,227.8787,65,44,1
227.8787,227.99432,67,34,1
227.99432,228.10997,69,34,1
228.10997,228.23201,70,37,1
228.23201,228.35405,72,37,1
228.35405,228.60672,70,42,1
229.11208,229.36475,70,33,1
229.11208,229.36475,65,28,1
229.8701,230.1269,70,31,1
229.8701,230.1269,65,26,1
229.8701,230.1269,62,26,1
230.64052,231.66774,70,31,1
230.64052,231.66774,65,26,1
230.64052,231.66774,58,26,1
