start_time,end_time,note_value,velocity,instrument_program_number
0.0007460021,0.119360335,69,50,0
0.119360335,0.23872067,71,46,0
0.23872067,0.358081,72,46,0
0.358081,0.47744134,71,50,0
0.47744134,0.59680164,72,46,0
0.59680164,0.719223,74,46,0
0.719223,1.077304,76,65,0
1.077304,1.1966643,69,50,0
1.1966643,1.3160247,71,45,0
1.3160247,1.435385,72,45,0
1.5547453,1.6741056,72,44,0
1.6741056,1.797433,74,44,0
1.435385,1.797433,71,70,0
1.797433,2.159481,76,65,0
2.159481,2.2788413,69,50,0
2.2788413,2.3982017,71,45,0
2.3982017,2.5201752,72,45,0
2.6395357,2.758896,72,45,0
2.758896,2.8808696,74,45,0
2.5201752,2.8808696,71,66,0
2.8808696,3.00023,72,50,0
3.00023,3.1195903,74,48,0
3.1195903,3.2389507,76,50,0
3.2389507,3.3584182,77,50,0
3.3584182,3.4785316,79,54,0
3.4785316,3.5994072,81,58,0
3.5994072,3.7191963,79,61,0
3.7191963,3.8389857,77,56,0
3.8389857,3.958775,76,53,0
3.958775,4.0785646,74,55,0
4.0785646,4.198354,72,52,0
4.198354,4.3261495,71,48,0
4.3261495,4.45076,69,56,0
4.45076,4.575371,71,50,0
4.575371,4.699981,72,50,0
4.699981,4.8230586,71,53,0
4.8230586,4.9461355,69,48,0
4.9461355,5.0692124,67,48,0
5.0692124,5.1930513,65,53,0
5.1930513,5.3168902,64,47,0
5.3168902,5.442282,63,47,0
5.442282,5.8053784,64,57,0
6.1702237,6.289984,59,50,0
6.289984,6.4097443,61,45,0
6.4097443,6.529505,63,45,0
6.529505,6.650717,64,54,0
6.650717,6.771929,66,49,0
6.771929,6.895256,68,49,0
6.895256,7.257304,69,59,0
7.257304,7.376352,59,50,0
7.376352,7.4953995,61,45,0
7.4953995,7.614447,63,45,0
7.614447,7.734929,64,54,0
7.734929,7.855411,66,48,0
7.855411,7.9791965,68,48,0
7.9791965,8.34079,69,58,0
8.34079,8.46015,59,50,0
8.46015,8.579511,61,46,0
8.579511,8.698871,63,46,0
8.698871,8.819353,64,54,0
8.819353,8.939835,66,47,0
8.939835,9.063162,68,47,0
9.063162,9.182523,66,60,0
9.182523,9.301883,68,53,0
9.301883,9.424304,69,53,0
9.424304,9.543665,68,64,0
9.543665,9.663025,69,58,0
9.663025,9.785446,71,60,0
9.785446,9.904387,69,68,0
9.904387,10.023539,71,60,0
10.023539,10.143006,72,63,0
10.143006,10.262795,71,73,0
10.262795,10.383017,72,63,0
10.383017,10.503564,74,68,0
10.503564,10.624439,72,79,0
10.624439,10.745645,74,68,0
10.745645,10.867181,76,74,0
10.867181,10.989155,77,90,0
10.989155,11.111129,76,77,0
11.111129,11.237247,74,79,0
11.237247,11.359221,77,88,0
11.237247,11.420208,83,88,0
11.359221,11.481195,76,79,0
11.481195,11.604068,74,79,0
11.604068,11.726042,77,92,0
11.604068,11.787028,83,92,0
11.726042,11.848015,76,80,0
11.848015,11.971342,74,80,0
11.971342,12.094042,77,93,0
11.971342,12.155392,83,93,0
12.094042,12.216741,76,84,0
12.216741,12.342924,74,86,0
12.342924,12.466381,77,97,0
12.342924,12.52811,83,97,0
12.466381,12.589837,76,86,0
12.589837,12.71642,74,87,0
12.71642,12.840259,77,100,0
12.71642,12.902178,83,100,0
12.840259,12.964098,76,88,0
12.964098,13.094817,74,91,0
13.094817,13.216029,77,106,0
13.094817,13.276635,83,106,0
13.216029,13.337241,76,61,0
13.337241,13.460318,74,52,0
13.460318,13.582642,77,60,0
13.582642,13.704966,76,51,0
13.704966,13.828423,74,46,0
13.828423,13.952646,77,57,0
13.952646,14.07687,76,49,0
14.07687,14.2046995,74,43,0
14.2046995,14.3296995,77,56,0
14.3296995,14.4546995,76,47,0
14.4546995,14.580883,74,44,0
14.580883,14.705883,76,56,0
14.705883,14.830883,74,46,0
14.830883,14.957867,72,46,0
14.957867,15.083259,74,55,0
15.083259,15.208651,72,45,0
15.208651,15.335234,71,45,0
15.335234,15.458548,69,50,0
15.458548,15.581153,71,46,0
15.581153,15.703105,72,46,0
15.703105,15.824364,71,50,0
15.824364,15.944937,72,46,0
15.944937,16.067358,74,46,0
16.067358,16.42544,76,65,0
16.42544,16.5448,69,50,0
16.5448,16.66416,71,45,0
16.66416,16.78352,72,45,0
16.90288,17.022242,72,44,0
17.022242,17.145569,74,44,0
16.78352,17.145569,71,70,0
17.145569,17.507616,76,65,0
17.507616,17.626976,69,50,0
17.626976,17.746336,71,45,0
17.746336,17.86831,72,45,0
17.98767,18.10703,72,45,0
18.10703,18.229004,74,45,0
17.86831,18.229004,71,66,0
18.229004,18.348366,72,50,0
18.348366,18.467726,74,48,0
18.467726,18.587086,76,50,0
18.587086,18.706553,77,50,0
18.706553,18.826666,79,54,0
18.826666,18.947542,81,58,0
18.947542,19.067331,79,61,0
19.067331,19.18712,77,56,0
19.18712,19.30691,76,53,0
19.30691,19.426699,74,55,0
19.426699,19.54649,72,52,0
19.54649,19.674284,71,48,0
19.674284,19.798124,69,56,0
19.798124,19.921963,71,50,0
19.921963,20.045801,72,50,0
20.045801,20.168879,71,53,0
20.168879,20.291956,69,48,0
20.291956,20.415033,67,48,0
20.415033,20.538872,65,53,0
20.538872,20.66271,64,47,0
20.66271,20.788103,63,47,0
20.788103,20.909315,64,54,0
20.909315,21.030527,66,49,0
21.030527,21.153854,67,49,0
21.153854,21.515902,69,59,0
21.515902,21.634949,59,50,0
21.634949,21.753998,61,45,0
21.753998,21.873045,63,45,0
21.873045,21.993526,64,54,0
21.993526,22.11401,66,48,0
22.11401,22.237795,67,48,0
22.237795,22.599388,69,58,0
22.599388,22.718748,59,50,0
22.718748,22.838108,61,46,0
22.838108,22.957468,63,46,0
22.957468,23.077951,64,54,0
23.077951,23.198433,66,47,0
23.198433,23.32176,67,47,0
23.32176,23.44112,66,60,0
23.44112,23.56048,67,53,0
23.56048,23.682901,69,53,0
23.682901,23.802261,67,64,0
23.802261,23.921623,69,58,0
23.921623,24.044044,71,60,0
24.044044,24.162985,69,68,0
24.162985,24.282137,71,60,0
24.282137,24.401604,72,63,0
24.401604,24.521393,71,73,0
24.521393,24.641615,72,63,0
24.641615,24.762161,74,68,0
24.762161,24.883512,72,79,0
24.883512,25.006876,74,68,0
25.006876,25.136745,76,74,0
25.136745,25.255795,65,96,0
25.255795,25.375196,70,78,0
25.375196,25.495047,74,74,0
25.495047,25.615257,77,87,0
25.615257,25.735922,82,76,0
25.735922,25.85695,86,76,0
25.85695,25.979002,89,88,0
25.979002,26.1046,94,76,0
26.1046,26.233953,98,76,0
26.233953,26.334965,101,97,0
26.637995,26.84489,64,79,0
26.637995,26.84489,69,79,0
26.637995,26.84489,76,93,0
26.637995,26.84489,72,79,0
27.051786,27.263374,71,74,0
27.051786,27.263374,64,74,0
27.051786,27.263374,76,88,0
27.051786,27.263374,68,74,0
27.47539,27.596601,69,67,0
27.596601,27.717813,71,56,0
27.717813,27.84114,72,56,0
27.84114,28.203188,74,65,0
28.203188,28.322235,64,66,0
28.322235,28.441284,66,54,0
28.441284,28.560331,68,53,0
28.560331,28.680813,69,64,0
28.680813,28.801294,71,55,0
28.801294,28.925081,72,55,0
28.925081,29.286674,74,65,0
29.286674,29.406034,64,64,0
29.406034,29.525394,66,58,0
29.525394,29.644754,68,58,0
29.644754,29.763697,69,68,0
29.763697,29.882847,71,60,0
29.882847,30.002316,72,63,0
30.002316,30.122105,71,73,0
30.122105,30.242325,72,63,0
30.242325,30.362873,74,68,0
30.362873,30.484222,72,79,0
30.484222,30.607588,74,68,0
30.607588,30.737457,76,74,0
30.737457,30.856504,65,96,0
30.856504,30.975908,70,78,0
30.975908,31.095758,74,75,0
31.095758,31.21597,77,93,0
31.21597,31.336632,82,77,0
31.336632,31.45766,86,77,0
31.45766,31.579714,89,92,0
31.579714,31.70531,94,78,0
31.70531,31.834665,98,78,0
31.834665,31.937054,101,97,0
32.24422,32.456985,76,93,0
32.24422,32.456985,69,79,0
32.24422,32.456985,72,79,0
32.24422,32.456985,64,79,0
32.669754,32.900524,76,88,0
32.669754,32.900524,68,74,0
32.669754,32.900524,64,74,0
32.669754,32.900524,71,74,0
33.13129,34.2383,76,88,0
33.13129,34.2383,69,88,0
33.13129,34.2383,81,104,0
33.13129,34.2383,72,88,0
34.452587,34.524933,68,74,0
34.452587,34.524933,76,88,0
34.64551,34.720016,69,58,0
34.64551,34.720016,75,69,0
34.84419,34.916767,76,81,0
34.84419,34.916767,68,68,0
35.037735,35.11224,75,69,0
35.037735,35.11224,69,58,0
35.236412,35.323284,68,74,0
35.236412,35.323284,76,88,0
35.699734,36.806744,77,104,0
35.699734,36.806744,72,88,0
35.699734,36.806744,65,88,0
35.699734,36.806744,69,88,0
37.021027,37.093376,72,88,0
37.021027,37.093376,64,74,0
37.213955,37.288456,65,61,0
37.213955,37.288456,71,72,0
37.41263,37.485954,72,79,0
37.41263,37.485954,64,67,0
37.606922,37.68118,71,72,0
37.606922,37.68118,65,61,0
37.804943,37.891815,64,74,0
37.804943,37.891815,72,88,0
38.268265,39.15387,74,98,0
38.268265,39.15387,71,83,0
38.268265,39.15387,62,83,0
38.268265,39.15387,65,83,0
39.15387,39.375275,72,90,0
39.15387,39.375275,64,76,0
39.15387,39.375275,69,76,0
39.15387,39.375275,60,76,0
39.596676,39.813282,70,90,0
39.596676,39.813282,62,76,0
39.596676,39.813282,58,76,0
39.596676,39.813282,65,76,0
40.02989,40.2419,74,80,0
40.02989,40.2419,65,80,0
40.02989,40.2419,77,95,0
40.02989,40.2419,68,80,0
40.453915,40.671307,69,77,0
40.453915,40.671307,72,77,0
40.453915,40.671307,76,91,0
40.453915,40.671307,64,77,0
40.8887,41.11092,71,79,0
40.8887,41.11092,65,79,0
40.8887,41.11092,74,94,0
41.33314,41.560417,69,76,0
41.33314,41.560417,64,76,0
41.33314,41.560417,72,90,0
41.78769,42.022064,68,74,0
41.78769,42.022064,64,74,0
41.78769,42.022064,71,88,0
42.25644,42.450615,69,87,0
42.450615,42.5477,71,83,0
42.5477,42.644787,72,75,0
42.644787,42.741665,74,76,0
42.741665,42.83865,76,78,0
42.83865,42.936157,78,80,0
42.936157,43.034092,80,82,0
43.034092,43.13245,81,83,0
43.13245,43.231243,83,85,0
43.231243,43.33047,84,87,0
43.33047,43.430252,86,88,0
43.430252,43.503304,76,84,0
43.430252,43.503304,88,99,0
43.625057,43.700058,87,86,0
43.625057,43.700058,75,73,0
43.825058,43.89811,76,79,0
43.825058,43.89811,88,93,0
44.019863,44.09511,87,86,0
44.019863,44.09511,75,73,0
44.22053,44.307404,76,85,0
44.22053,44.307404,88,101,0
44.68385,44.878025,65,89,0
44.878025,44.975113,67,83,0
44.975113,45.0722,69,75,0
45.0722,45.16908,70,76,0
45.16908,45.266064,72,78,0
45.266064,45.36357,74,80,0
45.36357,45.461502,76,82,0
45.461502,45.559864,77,83,0
45.559864,45.658657,79,85,0
45.658657,45.757885,81,87,0
45.757885,45.857662,82,88,0
45.857662,45.930717,84,94,0
45.857662,45.930717,72,79,0
46.052467,46.12772,71,69,0
46.052467,46.12772,83,82,0
46.25314,46.32619,84,90,0
46.25314,46.32619,72,76,0
46.44794,46.523193,71,68,0
46.44794,46.523193,83,81,0
46.648613,46.735485,72,80,0
46.648613,46.735485,84,95,0
47.11193,47.222633,71,85,0
47.222633,47.333332,72,80,0
47.333332,47.444035,74,80,0
47.444035,47.554737,76,78,0
47.554737,47.665436,77,90,0
47.665436,47.77614,83,83,0
47.77614,47.886837,86,82,0
47.886837,47.99754,89,78,0
47.99754,48.108242,88,92,0
48.450603,48.56296,70,86,0
48.56296,48.67532,74,78,0
48.67532,48.78768,77,78,0
48.78768,48.90004,82,78,0
48.90004,49.012398,74,86,0
49.012398,49.12476,77,78,0
49.12476,49.237118,80,78,0
49.237118,49.349476,86,78,0
49.349476,49.461838,72,86,0
49.461838,49.574196,76,76,0
49.574196,49.690475,81,76,0
49.690475,49.806755,84,76,0
49.806755,49.920822,71,80,0
49.920822,50.034893,74,73,0
50.034893,50.14896,77,73,0
50.14896,50.263027,83,72,0
50.263027,50.380676,69,78,0
50.380676,50.49832,72,70,0
50.49832,50.61597,76,70,0
50.61597,50.733616,81,70,0
50.733616,50.855568,68,77,0
50.855568,50.97752,71,69,0
50.97752,51.099472,76,69,0
51.099472,51.22142,80,69,0
51.22142,51.415596,57,87,0
51.415596,51.512684,59,82,0
51.512684,51.60977,60,78,0
51.60977,51.70665,62,77,0
51.70665,51.803635,64,77,0
51.803635,51.901142,66,77,0
51.901142,51.999073,68,76,0
51.999073,52.097435,69,76,0
52.097435,52.196228,71,76,0
52.196228,52.295456,72,75,0
52.295456,52.394794,74,75,0
52.394794,52.49457,76,74,0
52.49457,52.594685,77,74,0
52.594685,52.695244,79,73,0
52.695244,52.79614,81,73,0
52.79614,52.998844,82,71,0
54.012356,54.215057,79,71,0
55.22857,55.431274,76,67,0
56.461563,56.668457,73,55,0
57.748917,57.9788,72,50,0
59.047848,60.120003,69,38,0
60.120003,60.223183,70,36,0
60.223183,60.32636,69,31,0
60.32636,60.73907,67,36,0
60.73907,61.15877,70,38,0
61.15877,61.585697,73,42,0
59.047848,61.585697,60,33,0
61.585697,62.419434,72,40,0
62.419434,62.832554,69,34,0
61.585697,62.841343,60,33,0
62.841343,63.666767,72,40,0
63.666767,64.09351,70,34,0
62.841343,64.10259,60,33,0
64.10259,65.144295,69,38,0
65.144295,65.24545,70,35,0
65.24545,65.3466,69,31,0
65.3466,65.75121,67,36,0
65.75121,66.15977,70,38,0
66.15977,66.585,73,42,0
64.10259,66.585,60,38,0
66.585,67.40266,72,40,0
67.40266,67.81578,69,34,0
66.585,67.82457,60,33,0
67.82457,68.64733,72,47,0
68.64733,69.06578,70,45,0
67.82457,69.074684,60,47,0
69.074684,69.89235,73,53,0
69.89235,70.31217,70,49,0
69.074684,70.3211,61,53,0
70.3211,71.151665,74,57,0
71.151665,71.57149,70,49,0
70.3211,71.58042,62,57,0
71.58042,72.011826,69,53,0
72.011826,72.43297,78,61,0
72.43297,72.86286,77,55,0
71.58042,72.86286,63,53,0
72.86286,73.69977,75,50,0
73.69977,74.12371,74,45,0
72.86286,74.13274,65,33,0
74.13274,74.561485,69,49,0
74.561485,74.9794,75,53,0
74.9794,75.40539,74,45,0
74.13274,75.40539,60,49,0
75.40539,76.239265,72,48,0
76.239265,76.6537,70,45,0
75.40539,76.66252,62,33,0
76.66252,77.48528,72,40,0
77.48528,77.90373,70,34,0
76.66252,77.912636,60,33,0
77.912636,78.7354,72,40,0
78.7354,79.15522,69,34,0
77.912636,79.164154,60,33,0
79.164154,79.58338,73,51,0
79.58338,79.79333,72,36,0
79.79333,80.004845,70,31,0
80.004845,80.217834,69,35,0
80.217834,80.43233,67,29,0
79.164154,80.43233,58,33,0
80.43233,80.86389,57,28,0
80.43233,81.079666,65,35,0
81.079666,81.29545,67,38,0
81.29545,81.51123,69,43,0
81.51123,81.72701,70,46,0
81.72701,82.153,69,54,0
82.153,82.570915,78,59,0
82.570915,82.996895,77,54,0
81.72701,82.996895,63,54,0
82.996895,83.830315,75,52,0
83.830315,84.25426,74,49,0
82.996895,84.263275,65,52,0
84.263275,84.69203,69,50,0
84.69203,85.10995,75,56,0
85.10995,85.535934,74,51,0
84.263275,85.535934,60,50,0
85.535934,86.36981,72,48,0
86.36981,86.79075,70,45,0
85.535934,86.799706,62,33,0
86.799706,87.62247,72,43,0
87.62247,88.04092,70,36,0
86.799706,88.04982,60,43,0
88.04982,88.87258,72,43,0
88.87258,89.292404,69,34,0
88.04982,89.30119,60,43,0
89.30119,89.72843,73,51,0
89.72843,89.94304,72,36,0
89.94304,90.15881,70,31,0
90.15881,90.37578,69,35,0
90.37578,90.59405,67,29,0
89.30119,90.59405,58,33,0
90.59405,91.032776,57,31,0
90.59405,91.032776,65,35,0
91.93127,93.29681,69,35,0
91.93127,93.29681,60,35,0
93.29681,94.68477,69,32,0
93.29681,94.68477,60,32,0
93.29681,94.68477,64,32,0
94.68477,96.383705,59,30,0
94.68477,96.383705,68,30,0
94.68477,96.383705,64,30,0
96.383705,96.50307,69,42,0
96.50307,96.62243,71,39,0
96.62243,96.74178,72,39,0
96.74178,96.861145,71,42,0
96.861145,96.98051,72,39,0
96.98051,97.10293,74,39,0
97.10293,97.461006,76,55,0
97.461006,97.58037,69,42,0
97.58037,97.69973,71,38,0
97.69973,97.81909,72,38,0
97.93845,98.05781,72,37,0
98.05781,98.18114,74,37,0
97.81909,98.18114,71,59,0
98.18114,98.54319,76,55,0
98.54319,98.662544,69,42,0
98.662544,98.781906,71,38,0
98.781906,98.903885,72,38,0
99.02324,99.1426,72,38,0
99.1426,99.26457,74,38,0
98.903885,99.26457,71,56,0
99.26457,99.383934,72,42,0
99.383934,99.503296,74,40,0
99.503296,99.62266,76,42,0
99.62266,99.74213,77,42,0
99.74213,99.862236,79,45,0
99.862236,99.983116,81,49,0
99.983116,100.102905,79,51,0
100.102905,100.222694,77,47,0
100.222694,100.34248,76,45,0
100.34248,100.46227,74,46,0
100.46227,100.58206,72,44,0
100.58206,100.709854,71,40,0
100.709854,100.834465,69,47,0
100.834465,100.959076,71,42,0
100.959076,101.08369,72,42,0
101.08369,101.206764,71,45,0
101.206764,101.32984,69,40,0
101.32984,101.45292,67,40,0
101.45292,101.57676,65,45,0
101.57676,101.7006,64,39,0
101.7006,101.82599,63,39,0
101.82599,102.18909,64,48,0
102.55393,102.67369,59,42,0
102.67369,102.79345,61,38,0
102.79345,102.91321,63,38,0
102.91321,103.034424,64,45,0
103.034424,103.15563,66,41,0
103.15563,103.27896,68,41,0
103.27896,103.64101,69,50,0
103.64101,103.760056,59,42,0
103.760056,103.879105,61,38,0
103.879105,103.99815,63,38,0
103.99815,104.11864,64,45,0
104.11864,104.23912,66,40,0
104.23912,104.3629,68,40,0
104.3629,104.724495,69,49,0
104.724495,104.84386,59,42,0
104.84386,104.96322,61,39,0
104.96322,105.08258,63,39,0
105.08258,105.20306,64,45,0
105.20306,105.32354,66,39,0
105.32354,105.44687,68,40,0
105.44687,105.56623,66,52,0
105.56623,105.685585,68,46,0
105.685585,105.808014,69,47,0
105.808014,105.92737,68,57,0
105.92737,106.04673,69,52,0
106.04673,106.16915,71,54,0
106.16915,106.28809,69,62,0
106.28809,106.40724,71,55,0
106.40724,106.52671,72,59,0
106.52671,106.6465,71,69,0
106.6465,106.76672,72,59,0
106.76672,106.88727,74,65,0
106.88727,107.00815,72,76,0
107.00815,107.12935,74,66,0
107.12935,107.250885,76,73,0
107.250885,107.37286,77,90,0
107.37286,107.494835,76,77,0
107.494835,107.62096,74,79,0
107.62096,107.74293,77,88,0
107.62096,107.80392,83,88,0
107.74293,107.8649,76,79,0
107.8649,107.98777,74,79,0
107.98777,108.10975,77,92,0
107.98777,108.17073,83,92,0
108.10975,108.23172,76,80,0
108.23172,108.35505,74,80,0
108.35505,108.477745,77,93,0
108.35505,108.5391,83,93,0
108.477745,108.60045,76,84,0
108.60045,108.72663,74,86,0
108.72663,108.85009,77,97,0
108.72663,108.91181,83,97,0
108.85009,108.97354,76,86,0
108.97354,109.10013,74,87,0
109.10013,109.22396,77,100,0
109.10013,109.28588,83,100,0
109.22396,109.3478,76,88,0
109.3478,109.479385,74,91,0
109.479385,109.60361,77,106,0
109.479385,109.66572,83,106,0
109.60361,109.72783,75,79,0
109.72783,109.85205,74,67,0
109.85205,109.97784,77,75,0
109.85205,110.04073,83,75,0
109.97784,110.10362,75,64,0
110.10362,110.22941,74,57,0
110.22941,110.356804,77,63,0
110.22941,110.420494,83,63,0
110.356804,110.48354,75,56,0
110.48354,110.62439,74,49,0
110.62439,110.749,80,61,0
110.749,110.87361,79,54,0
110.87361,111.001816,77,50,0
111.001816,111.127205,79,56,0
111.127205,111.2526,77,46,0
111.2526,111.38205,75,46,0
111.38205,111.50863,77,55,0
111.50863,111.635216,75,45,0
111.635216,111.764244,74,45,0
111.764244,111.8877,72,50,0
111.8877,112.01068,74,46,0
112.01068,112.133194,75,46,0
112.133194,112.25524,74,50,0
112.25524,112.376595,75,46,0
112.376595,112.50005,77,46,0
112.50005,112.86041,79,65,0
112.86041,112.979454,72,50,0
112.979454,113.0985,74,45,0
113.0985,113.21755,75,45,0
113.3366,113.45565,75,44,0
113.45565,113.57897,77,44,0
113.21755,113.57897,74,70,0
113.57897,113.941025,79,65,0
113.941025,114.06039,72,50,0
114.06039,114.17974,74,45,0
114.17974,114.30172,75,45,0
114.42108,114.540436,75,45,0
114.540436,114.662415,77,45,0
114.30172,114.662415,74,66,0
114.662415,114.78177,75,50,0
114.78177,114.90113,77,48,0
114.90113,115.02049,79,50,0
115.02049,115.13996,80,50,0
115.13996,115.26007,82,54,0
115.26007,115.38095,84,58,0
115.38095,115.50074,82,61,0
115.50074,115.62053,80,56,0
115.62053,115.74032,79,53,0
115.74032,115.86011,77,55,0
115.86011,115.9799,75,52,0
115.9799,116.10769,74,48,0
116.10769,116.23153,72,56,0
116.23153,116.35537,74,50,0
116.35537,116.47921,75,50,0
116.47921,116.60229,74,53,0
116.60229,116.725365,72,48,0
116.725365,116.84844,70,48,0
116.84844,116.97228,68,53,0
116.97228,117.096115,67,47,0
117.096115,117.22151,66,47,0
117.22151,117.40333,67,54,0
117.94931,118.06836,62,50,0
118.06836,118.1874,64,45,0
118.1874,118.30645,66,45,0
118.30645,118.42693,67,54,0
118.42693,118.54742,69,48,0
118.54742,118.6712,71,48,0
118.6712,119.03279,72,58,0
119.03279,119.15215,62,50,0
119.15215,119.271515,64,46,0
119.271515,119.39088,66,46,0
119.39088,119.51024,67,54,0
119.51024,119.62959,69,48,0
119.62959,119.75338,71,48,0
119.75338,120.114975,72,58,0
120.114975,120.23434,62,50,0
120.23434,120.3537,64,46,0
120.3537,120.47305,66,46,0
120.47305,120.59354,67,54,0
120.59354,120.71402,69,47,0
120.71402,120.83735,71,47,0
120.83735,120.95671,69,60,0
120.95671,121.076065,71,53,0
121.076065,121.19849,72,53,0
121.19849,121.31785,71,64,0
121.31785,121.43721,72,58,0
121.43721,121.55963,74,60,0
121.55963,121.67857,72,68,0
121.67857,121.79772,74,60,0
121.79772,121.91719,76,63,0
121.91719,122.03698,74,73,0
122.03698,122.1572,76,63,0
122.1572,122.27775,77,68,0
122.27775,122.3991,76,79,0
122.3991,122.52246,77,68,0
122.52246,122.652336,79,74,0
122.652336,122.77138,60,97,0
122.77138,122.890785,65,77,0
122.890785,123.010635,69,78,0
123.010635,123.130844,72,85,0
123.130844,123.25151,77,74,0
123.25151,123.372536,81,77,0
123.372536,123.49459,84,91,0
123.49459,123.620186,89,79,0
123.620186,123.74954,93,79,0
123.74954,123.850555,96,108,0
124.15358,124.36048,76,79,0
124.15358,124.36048,71,79,0
124.15358,124.36048,79,79,0
124.15358,124.36048,83,93,0
124.567375,124.77896,78,74,0
124.567375,124.77896,75,74,0
124.567375,124.77896,83,88,0
124.567375,124.77896,71,74,0
124.990974,125.11219,76,67,0
125.11219,125.2334,78,56,0
125.2334,125.35673,79,56,0
125.35673,125.71877,81,65,0
125.71877,125.83782,71,66,0
125.83782,125.95687,73,54,0
125.95687,126.07592,75,53,0
126.07592,126.1964,76,64,0
126.1964,126.31688,78,55,0
126.31688,126.44067,79,55,0
126.44067,126.80226,81,65,0
126.80226,126.92162,71,64,0
126.92162,127.040985,73,58,0
127.040985,127.16034,75,58,0
127.16034,127.27928,76,68,0
127.27928,127.39844,78,60,0
127.39844,127.5179,79,63,0
127.5179,127.63769,78,73,0
127.63769,127.75791,79,63,0
127.75791,127.87846,81,68,0
127.87846,127.99981,79,79,0
127.99981,128.12317,81,68,0
128.12317,128.25305,83,74,0
128.25305,128.37209,60,97,0
128.37209,128.4915,65,77,0
128.4915,128.61134,69,77,0
128.61134,128.73155,72,91,0
128.73155,128.85222,77,78,0
128.85222,128.97325,81,78,0
128.97325,129.0953,84,96,0
129.0953,129.2209,89,79,0
129.2209,129.35025,93,79,0
129.35025,129.45126,96,100,0
129.75429,129.96118,71,79,0
129.75429,129.96118,79,79,0
129.75429,129.96118,83,93,0
129.75429,129.96118,76,79,0
130.16809,130.39197,83,88,0
130.16809,130.39197,71,74,0
130.16809,130.39197,78,74,0
130.16809,130.39197,75,74,0
130.61584,131.70676,76,88,0
130.61584,131.70676,83,88,0
130.61584,131.70676,88,104,0
130.61584,131.70676,79,88,0
131.92494,131.99751,83,88,0
131.92494,131.99751,75,74,0
132.11848,132.19348,76,63,0
132.11848,132.19348,82,75,0
132.31848,132.39107,75,71,0
132.31848,132.39107,83,84,0
132.51204,132.58704,76,63,0
132.51204,132.58704,82,75,0
132.71204,132.7989,83,85,0
132.71204,132.7989,75,72,0
133.17535,134.28236,81,88,0
133.17535,134.28236,74,88,0
133.17535,134.28236,86,104,0
133.17535,134.28236,78,88,0
134.49666,134.56947,81,88,0
134.49666,134.56947,73,74,0
134.69083,134.76558,80,76,0
134.69083,134.76558,74,64,0
134.89017,134.96298,73,70,0
134.89017,134.96298,81,83,0
135.08434,135.15909,80,75,0
135.08434,135.15909,74,63,0
135.28368,135.37054,73,73,0
135.28368,135.37054,81,87,0
135.747,136.6326,84,98,0
135.747,136.6326,78,83,0
135.747,136.6326,81,83,0
135.747,136.6326,72,83,0
136.6326,136.854,76,76,0
136.6326,136.854,71,76,0
136.6326,136.854,83,90,0
136.6326,136.854,79,76,0
137.07541,137.2928,81,90,0
137.07541,137.2928,69,76,0
137.07541,137.2928,77,76,0
137.07541,137.2928,72,76,0
137.5102,137.73158,81,80,0
137.5102,137.73158,72,80,0
137.5102,137.73158,84,95,0
137.5102,137.73158,75,80,0
137.95299,138.1744,83,91,0
137.95299,138.1744,79,77,0
137.95299,138.1744,71,77,0
137.95299,138.1744,76,77,0
138.3958,138.61967,72,79,0
138.3958,138.61967,78,79,0
138.3958,138.61967,81,94,0
138.84355,139.07083,79,90,0
138.84355,139.07083,76,76,0
138.84355,139.07083,71,76,0
139.2981,139.53247,78,90,0
139.2981,139.53247,75,90,0
139.2981,139.53247,71,76,0
139.96103,140.05812,66,83,0
140.05812,140.1552,67,75,0
140.1552,140.25208,69,76,0
140.25208,140.34906,71,78,0
140.34906,140.44656,73,80,0
140.44656,140.54451,75,82,0
140.54451,140.64287,76,83,0
140.64287,140.74165,78,85,0
140.74165,140.84088,79,87,0
140.84088,140.94066,81,88,0
139.76685,140.94066,64,89,0
140.94066,141.01324,83,93,0
140.94066,141.01324,71,79,0
141.13422,141.20871,70,64,0
141.13422,141.20871,82,76,0
141.33289,141.4057,83,86,0
141.33289,141.4057,71,73,0
141.52707,141.60156,82,79,0
141.52707,141.60156,70,67,0
141.72574,141.8126,83,92,0
141.72574,141.8126,71,78,0
142.38324,142.48032,64,83,0
142.48032,142.57741,66,75,0
142.57741,142.67429,67,76,0
142.67429,142.77127,69,78,0
142.77127,142.86877,71,80,0
142.86877,142.9667,73,82,0
142.9667,143.06508,74,83,0
143.06508,143.16386,76,85,0
143.16386,143.26309,78,87,0
143.26309,143.36287,80,88,0
142.18906,143.36287,62,89,0
143.36287,143.43616,69,79,0
143.36287,143.43616,81,93,0
143.55832,143.63332,68,66,0
143.55832,143.63332,80,78,0
143.75832,143.8316,69,72,0
143.75832,143.8316,81,85,0
143.95375,144.02875,80,77,0
143.95375,144.02875,68,65,0
144.15375,144.24063,69,74,0
144.15375,144.24063,81,88,0
144.72777,144.83847,72,77,0
144.83847,144.94917,76,77,0
144.94917,145.05988,79,75,0
145.05988,145.17058,84,87,0
145.17058,145.28128,88,75,0
145.28128,145.39198,91,79,0
145.39198,145.50269,96,75,0
145.50269,145.61337,95,89,0
145.95573,146.0681,69,86,0
146.0681,146.18047,72,78,0
146.18047,146.29282,77,78,0
146.29282,146.40518,81,78,0
146.40518,146.51753,72,86,0
146.51753,146.6299,75,78,0
146.6299,146.74226,81,78,0
146.74226,146.85461,84,78,0
146.85461,146.96698,71,86,0
146.96698,147.07933,76,76,0
147.07933,147.19562,79,76,0
147.19562,147.31189,83,76,0
147.31189,147.42596,69,80,0
147.42596,147.54002,72,73,0
147.54002,147.6541,78,73,0
147.6541,147.76817,81,72,0
147.76817,147.88582,67,78,0
147.88582,148.00346,71,70,0
148.00346,148.12111,76,70,0
148.12111,148.23875,79,70,0
148.23875,148.3607,66,77,0
148.3607,148.48267,71,69,0
148.48267,148.60461,75,69,0
148.60461,148.72656,78,69,0
148.72656,148.92073,64,87,0
148.92073,149.01782,66,82,0
149.01782,149.11491,67,78,0
149.11491,149.21179,69,77,0
149.21179,149.30878,71,77,0
149.30878,149.40628,73,77,0
149.40628,149.50421,75,76,0
149.50421,149.60257,76,76,0
149.60257,149.70137,78,76,0
149.70137,149.8006,79,75,0
149.8006,149.89993,81,75,0
149.89993,149.99971,83,74,0
149.99971,150.09982,84,74,0
150.09982,150.20038,86,73,0
150.20038,150.30128,88,73,0
150.30128,150.50398,89,71,0
151.5175,151.7202,86,71,0
152.7337,152.93642,83,67,0
153.9667,154.1736,80,55,0
155.25406,155.48395,79,50,0
156.553,157.62514,76,41,0
157.62514,157.72832,77,39,0
157.72832,157.8315,76,34,0
157.8315,158.24422,74,39,0
158.24422,158.66391,77,41,0
158.66391,159.09084,80,46,0
156.553,159.09084,67,36,0
159.09084,159.92458,79,44,0
159.92458,160.33769,76,37,0
159.09084,160.34648,67,36,0
160.34648,161.1719,79,44,0
161.1719,161.59865,77,37,0
160.34648,161.60773,67,36,0
161.60773,162.64943,76,41,0
162.64943,162.7506,77,38,0
162.7506,162.85175,76,34,0
162.85175,163.25635,74,39,0
163.25635,163.6649,77,41,0
163.6649,164.09013,80,46,0
161.60773,164.09013,67,41,0
164.09013,164.9078,79,44,0
164.9078,165.32092,76,37,0
164.09013,165.32971,67,36,0
165.32971,166.15248,79,51,0
166.15248,166.57092,77,49,0
165.32971,166.57982,67,51,0
166.57982,167.39749,80,58,0
167.39749,167.8173,77,53,0
166.57982,167.82625,68,58,0
167.82625,168.6568,81,62,0
168.6568,169.07663,77,53,0
167.82625,169.08556,69,62,0
169.08556,169.51697,76,58,0
169.51697,169.93811,85,63,0
169.93811,170.368,84,60,0
169.08556,170.368,70,58,0
170.368,171.20491,82,55,0
171.20491,171.63788,81,49,0
170.368,171.63788,72,36,0
171.63788,172.06664,76,53,0
172.06664,172.48454,82,58,0
172.48454,172.91052,81,49,0
171.63788,172.91052,67,53,0
172.91052,173.7444,79,52,0
173.7444,174.15884,77,49,0
172.91052,174.16766,69,36,0
174.16766,174.99042,79,44,0
174.99042,175.40887,77,37,0
174.16766,175.41777,67,36,0
175.41777,176.24054,79,44,0
176.24054,176.66035,76,37,0
175.41777,176.6693,67,36,0
176.6693,177.08852,80,56,0
177.08852,177.29846,79,39,0
177.29846,177.50998,77,34,0
177.50998,177.72298,76,38,0
177.72298,177.93747,74,31,0
176.6693,177.93747,65,36,0
177.93747,178.36903,64,30,0
177.93747,178.58481,72,38,0
178.58481,178.80058,74,41,0
178.80058,179.01637,76,50,0
179.01637,179.23215,77,54,0
179.23215,179.65814,76,59,0
179.65814,180.07605,85,64,0
180.07605,180.50204,84,59,0
179.23215,180.50204,70,59,0
180.50204,181.33545,82,57,0
181.33545,181.7594,81,53,0
180.50204,181.76842,72,57,0
181.76842,182.19717,76,55,0
182.19717,182.61508,82,61,0
182.61508,183.04108,81,56,0
181.76842,183.04108,67,55,0
183.04108,183.87495,79,52,0
183.87495,184.29588,77,49,0
183.04108,184.30484,69,36,0
184.30484,185.12761,79,47,0
185.12761,185.54605,77,39,0
184.30484,185.55496,67,47,0
185.55496,186.37772,79,47,0
186.37772,186.79755,76,37,0
185.55496,186.80634,67,47,0
186.80634,187.23357,80,56,0
187.23357,187.44818,79,39,0
187.44818,187.66396,77,34,0
187.66396,187.88092,76,38,0
187.88092,188.09918,74,31,0
186.80634,188.09918,65,36,0
188.09918,188.53792,64,34,0
188.09918,188.53792,72,38,0
189.4364,190.80194,67,35,0
189.4364,190.80194,76,35,0
190.80194,192.18991,71,32,0
190.80194,192.18991,67,32,0
190.80194,192.18991,76,32,0
192.18991,193.88884,71,30,0
192.18991,193.88884,66,30,0
192.18991,193.88884,75,30,0
193.88884,194.00789,65,91,0
194.00789,194.12729,71,77,0
194.12729,194.24715,74,74,0
194.24715,194.36736,77,82,0
194.36736,194.48802,83,73,0
194.48802,194.60905,86,71,0
194.60905,194.7311,89,78,0
194.7311,194.8567,95,71,0
194.8567,194.98605,98,70,0
194.98605,195.08707,101,76,0
197.54663,198.90099,65,35,0
197.54663,198.90099,68,35,0
197.54663,198.90099,74,35,0
198.90099,200.29262,65,32,0
198.90099,200.29262,69,32,0
198.90099,200.29262,74,32,0
200.29262,201.99155,73,30,0
200.29262,201.99155,64,30,0
200.29262,201.99155,69,30,0
201.99155,202.1106,63,91,0
202.1106,202.23,69,77,0
202.23,202.34985,72,72,0
202.34985,202.47006,75,82,0
202.47006,202.59073,81,73,0
202.59073,202.71176,84,71,0
202.71176,202.8338,87,78,0
202.8338,202.95941,93,71,0
202.95941,203.08876,96,70,0
203.08876,203.18977,99,76,0
205.68127,207.07722,75,35,0
205.68127,207.07722,68,35,0
205.68127,207.07722,66,35,0
207.07722,208.489,75,32,0
208.489,208.9265,73,39,0
208.9265,209.3817,77,41,0
209.3817,209.7446,78,47,0
207.07722,209.7446,65,32,0
207.07722,209.7446,68,32,0
209.86557,211.17754,80,47,0
209.80508,211.17754,73,35,0
209.7446,211.17754,63,34,0
211.30411,212.66444,80,44,0
211.24083,212.66444,72,29,0
211.17754,212.66444,66,29,0
212.7879,212.9161,73,36,0
212.9161,213.04431,75,30,0
213.04431,213.17252,77,30,0
213.17252,213.30072,75,36,0
213.30072,213.42892,77,31,0
213.42892,213.55713,78,31,0
213.55713,213.68533,77,35,0
213.68533,213.81354,78,30,0
213.81354,213.94174,80,31,0
213.94174,214.06953,78,39,0
214.06953,214.19693,80,32,0
214.19693,214.3238,82,32,0
214.3238,214.45029,80,43,0
214.45029,214.57628,82,36,0
214.57628,214.70187,84,35,0
214.70187,214.82697,85,47,0
214.82697,214.95168,87,39,0
214.95168,215.08197,89,40,0
215.08197,215.20657,90,52,0
215.20657,215.33119,89,41,0
215.33119,215.4558,87,41,0
215.4558,215.58041,89,50,0
215.58041,215.70502,87,39,0
215.70502,215.82964,85,41,0
215.82964,215.95424,87,48,0
215.95424,216.07886,85,38,0
216.07886,216.20346,84,38,0
216.20346,216.32768,85,42,0
216.32768,216.4523,84,35,0
216.4523,216.5773,82,35,0
216.5773,216.70268,84,40,0
216.70268,216.82848,82,33,0
216.82848,216.95465,80,33,0
216.95465,217.08124,78,37,0
217.08124,217.20822,77,32,0
217.20822,217.34335,75,32,0
217.34335,217.47156,73,39,0
217.47156,217.59976,75,33,0
217.59976,217.72797,76,33,0
217.72797,217.85619,75,39,0
217.85619,217.98439,76,33,0
217.98439,218.1126,78,33,0
218.1126,218.2408,76,37,0
218.2408,218.369,78,32,0
218.369,218.49721,80,32,0
218.49721,218.6248,78,41,0
218.6248,218.75157,80,33,0
218.75157,218.87756,81,33,0
218.87756,219.00276,80,43,0
219.00276,219.12718,82,36,0
219.12718,219.25082,84,35,0
219.25082,219.37372,85,46,0
219.37372,219.49585,87,39,0
219.49585,219.62488,88,39,0
219.62488,219.74646,90,50,0
219.74646,219.86804,88,39,0
219.86804,219.98962,87,39,0
219.98962,220.1112,88,48,0
220.1112,220.23279,87,39,0
220.23279,220.35437,85,40,0
220.35437,220.47595,87,47,0
220.47595,220.59753,85,38,0
220.59753,220.71912,84,38,0
220.71912,220.84106,85,42,0
220.84106,220.9632,83,36,0
220.9632,221.08562,81,36,0
221.08562,221.20831,83,42,0
221.20831,221.33139,81,35,0
221.33139,221.45467,80,35,0
221.45467,221.57822,78,40,0
221.57822,221.70206,76,34,0
221.70206,221.83363,75,34,0
221.83363,221.95558,73,40,0
221.95558,222.07753,75,35,0
222.07753,222.19948,76,35,0
222.19948,222.32144,75,45,0
222.32144,222.44339,76,37,0
222.44339,222.56534,78,37,0
222.56534,222.68729,76,47,0
222.68729,222.80878,78,39,0
222.80878,222.93224,80,38,0
222.93224,223.66417,81,53,0
223.66417,224.03313,80,48,0
224.03313,224.15512,73,40,0
224.15512,224.2771,75,35,0
224.2771,224.3991,76,35,0
224.3991,224.52109,75,46,0
224.52109,224.64307,76,37,0
224.64307,224.76506,78,37,0
224.76506,224.88705,76,48,0
224.88705,225.00903,78,39,0
225.00903,225.13364,80,38,0
225.13364,225.86557,81,53,0
225.86557,226.23376,80,48,0
226.23376,226.35574,76,46,0
226.35574,226.47774,78,38,0
226.47774,226.59973,79,38,0
226.59973,226.72171,78,51,0
226.72171,226.8437,79,40,0
226.8437,226.9657,81,40,0
226.9657,227.08952,79,52,0
227.08952,227.21336,81,42,0
227.21336,227.33913,83,41,0
227.33913,228.07106,84,58,0
228.07106,228.45097,83,52,0
228.44334,229.17528,86,74,0
229.17528,229.54797,85,63,0
229.54797,229.66997,78,58,0
229.66997,229.79196,80,50,0
229.79196,229.91394,81,50,0
229.91394,230.03593,80,60,0
230.03593,230.15793,81,48,0
230.15793,230.2799,83,48,0
230.2799,230.65111,85,62,0
230.2799,230.65111,79,62,0
230.65111,230.83409,78,57,0
230.65111,230.83409,90,57,0
231.38304,231.50613,78,64,0
231.50613,231.62923,83,55,0
231.62923,231.7546,78,55,0
231.7546,231.87659,76,63,0
231.7546,231.93758,88,63,0
231.87659,231.99857,78,50,0
231.99857,232.12056,80,50,0
232.12056,232.24254,78,57,0
232.24254,232.36453,80,48,0
232.36453,232.48653,81,48,0
232.48653,232.8577,83,65,0
232.48653,232.8577,77,65,0
232.8577,233.04068,88,64,0
232.8577,233.04068,76,64,0
233.58961,233.71346,76,65,0
233.71346,233.8373,81,55,0
233.8373,233.96461,76,55,0
233.96461,234.08661,74,66,0
233.96461,234.1476,86,66,0
234.08661,234.2086,76,50,0
234.2086,234.33058,78,50,0
234.33058,234.45258,76,57,0
234.45258,234.57457,78,48,0
234.57457,234.69655,79,48,0
234.69655,235.06981,81,69,0
235.06981,235.43578,80,67,0
234.69655,235.43578,86,69,0
234.69655,235.43578,74,69,0
235.80174,235.92596,81,65,0
235.92596,236.05017,86,55,0
236.05017,236.17671,81,56,0
236.17671,236.2987,80,65,0
236.2987,236.42068,81,53,0
236.42068,236.54268,83,53,0
236.54268,236.66466,81,62,0
236.66466,236.78665,83,52,0
236.78665,236.90865,84,52,0
236.90865,237.28322,81,69,0
237.28322,237.64919,80,68,0
236.90865,237.64919,86,69,0
236.90865,237.64919,74,69,0
238.01515,238.13824,81,65,0
238.13824,238.26134,86,57,0
238.26134,238.38708,81,57,0
238.38708,238.50908,80,64,0
238.50908,238.63106,81,50,0
238.63106,238.75305,83,50,0
238.75305,238.87505,81,57,0
238.87505,238.99702,83,48,0
238.99702,239.11902,84,48,0
239.11902,239.48906,81,68,0
239.48906,239.85242,80,67,0
239.11902,239.85242,86,68,0
239.11902,239.85242,74,68,0
240.57504,240.69481,69,50,0
240.69481,240.81456,71,46,0
240.81456,240.93433,72,46,0
240.93433,241.0541,71,50,0
241.0541,241.17384,72,46,0
241.17384,241.29626,74,46,0
241.29626,241.65434,76,65,0
241.65434,241.77371,69,50,0
241.77371,241.89307,71,45,0
241.89307,242.01244,72,45,0
242.13179,242.25114,72,44,0
242.25114,242.37448,74,44,0
242.01244,242.37448,71,70,0
242.37448,242.73653,76,65,0
242.73653,242.85588,69,50,0
242.85588,242.97525,71,45,0
242.97525,243.09721,72,45,0
243.21658,243.33594,72,45,0
243.33594,243.45792,74,45,0
243.09721,243.45792,71,66,0
243.45792,243.57727,72,50,0
243.57727,243.69664,74,48,0
243.69664,243.816,76,50,0
243.816,243.93546,77,50,0
243.93546,244.05557,79,54,0
244.05557,244.17645,81,58,0
244.17645,244.29623,79,61,0
244.29623,244.41603,77,56,0
244.41603,244.53581,76,53,0
244.53581,244.65561,74,55,0
244.65561,244.77539,72,52,0
244.77539,244.9032,71,48,0
244.9032,245.0278,69,56,0
245.0278,245.15242,71,50,0
245.15242,245.27702,72,50,0
245.27702,245.4001,71,53,0
245.4001,245.52318,69,48,0
245.52318,245.64626,67,48,0
245.64626,245.7701,65,53,0
245.7701,245.89394,64,47,0
245.89394,246.01933,63,47,0
246.01933,246.38242,64,57,0
246.74727,246.86703,59,50,0
246.86703,246.98679,61,45,0
246.98679,247.10655,63,45,0
247.10655,247.22777,64,54,0
247.22777,247.34897,66,49,0
247.34897,247.4723,68,49,0
247.4723,247.83435,69,59,0
247.83435,247.9534,59,50,0
247.9534,248.07245,61,45,0
248.07245,248.1915,63,45,0
248.1915,248.31197,64,54,0
248.31197,248.43245,66,48,0
248.43245,248.55624,68,48,0
248.55624,248.91783,69,58,0
248.91783,249.0372,59,50,0
249.0372,249.15656,61,46,0
249.15656,249.27591,63,46,0
249.27591,249.3964,64,54,0
249.3964,249.51688,66,47,0
249.51688,249.64021,68,47,0
249.64021,249.75957,66,60,0
249.75957,249.87892,68,53,0
249.87892,250.00134,69,53,0
250.00134,250.12071,68,64,0
250.12071,250.24007,69,58,0
250.24007,250.36249,71,60,0
250.36249,250.48143,69,68,0
250.48143,250.60059,71,60,0
250.60059,250.72005,72,63,0
250.72005,250.83984,71,73,0
250.83984,250.96007,72,63,0
250.96007,251.08061,74,68,0
251.08061,251.20148,72,79,0
251.20148,251.3227,74,68,0
251.3227,251.44423,76,74,0
251.44423,251.56328,65,93,0
251.56328,251.68268,70,79,0
251.68268,251.80252,74,77,0
251.80252,251.92273,77,90,0
251.92273,252.0434,82,79,0
252.0434,252.16443,86,79,0
252.16443,252.28648,89,89,0
252.28648,252.41208,94,78,0
252.41208,252.54143,98,78,0
252.54143,252.64244,101,96,0
252.94548,253.15237,76,93,0
252.94548,253.15237,72,79,0
252.94548,253.15237,64,79,0
252.94548,253.15237,69,79,0
253.35927,253.57085,64,74,0
253.35927,253.57085,68,74,0
253.35927,253.57085,76,88,0
253.35927,253.57085,71,74,0
253.78287,254.14862,69,67,0
254.51067,254.62971,64,66,0
254.62971,254.74876,66,54,0
254.74876,254.86781,68,53,0
254.86781,254.9883,69,64,0
254.9883,255.10878,71,55,0
255.10878,255.23256,72,55,0
255.23256,255.59415,74,65,0
255.59415,255.71352,64,64,0
255.71352,255.83287,66,58,0
255.83287,255.95224,68,58,0
255.95224,256.07272,69,64,0
256.07272,256.1932,71,55,0
256.1932,256.317,72,55,0
256.317,256.6786,74,65,0
256.6786,256.79794,64,64,0
256.79794,256.9173,66,58,0
256.9173,257.03665,68,58,0
257.03665,257.156,69,68,0
257.156,257.2754,71,60,0
257.2754,257.39484,72,63,0
257.39484,257.51465,71,73,0
257.51465,257.63486,72,63,0
257.63486,257.7554,74,68,0
257.7554,257.87674,72,79,0
257.87674,258.00012,74,68,0
258.00012,258.12997,76,74,0
258.12997,258.24902,65,93,0
258.24902,258.36844,70,79,0
258.36844,258.48828,74,79,0
258.48828,258.6085,77,90,0
258.6085,258.72916,82,77,0
258.72916,258.8502,86,77,0
258.8502,258.97223,89,90,0
258.97223,259.09784,94,76,0
259.09784,259.2272,98,76,0
259.2272,259.3296,101,97,0
259.63675,259.84952,64,79,0
259.63675,259.84952,72,79,0
259.63675,259.84952,76,93,0
259.63675,259.84952,69,79,0
260.0623,260.29306,76,88,0
260.0623,260.29306,68,74,0
260.0623,260.29306,71,74,0
260.0623,260.29306,64,74,0
260.52383,260.6413,65,93,0
260.6413,260.75946,70,81,0
260.75946,260.87833,74,80,0
260.87833,260.99792,77,90,0
260.99792,261.11823,82,79,0
261.11823,261.23935,86,79,0
261.23935,261.3614,89,93,0
261.3614,261.487,94,79,0
261.487,261.61633,98,79,0
261.61633,261.71503,101,97,0
262.01108,262.2131,74,79,0
262.01108,262.2131,65,79,0
262.01108,262.2131,77,93,0
262.01108,262.2131,70,79,0
262.41513,262.6138,77,88,0
262.41513,262.6138,72,74,0
262.41513,262.6138,65,74,0
262.41513,262.6138,69,74,0
262.81247,263.006,91,88,0
262.81247,263.006,79,74,0
263.19955,263.4009,75,79,0
263.19955,263.4009,72,79,0
263.19955,263.4009,67,79,0
263.19955,263.4009,79,93,0
263.60226,263.80093,67,74,0
263.60226,263.80093,74,74,0
263.60226,263.80093,79,88,0
263.60226,263.80093,71,74,0
263.9996,264.1938,93,88,0
263.9996,264.1938,81,74,0
264.38797,264.59067,69,79,0
264.38797,264.59067,74,79,0
264.38797,264.59067,81,93,0
264.38797,264.59067,77,79,0
264.79337,265.00314,76,74,0
264.79337,265.00314,69,74,0
264.79337,265.00314,81,88,0
264.79337,265.00314,73,74,0
265.21295,265.31567,67,50,0
265.21295,265.31567,70,59,0
265.41843,265.52115,70,62,0
265.41843,265.52115,67,52,0
265.6239,265.72662,73,64,0
265.6239,265.72662,67,54,0
265.6239,265.72662,70,54,0
265.82938,265.93213,73,67,0
265.82938,265.93213,67,56,0
265.82938,265.93213,70,67,0
266.03485,266.1376,73,59,0
266.03485,266.1376,70,59,0
266.03485,266.1376,67,59,0
266.03485,266.1376,76,70,0
266.24033,266.34308,67,62,0
266.24033,266.34308,70,62,0
266.24033,266.34308,76,73,0
266.24033,266.34308,73,62,0
266.44583,266.54855,76,64,0
266.44583,266.54855,70,64,0
266.44583,266.54855,79,76,0
266.44583,266.54855,73,64,0
266.6513,266.75403,79,79,0
266.6513,266.75403,76,67,0
266.6513,266.75403,70,67,0
266.6513,266.75403,73,67,0
266.85678,266.95917,82,82,0
266.85678,266.95917,76,69,0
266.85678,266.95917,79,69,0
266.85678,266.95917,73,69,0
267.0619,267.165,82,85,0
267.0619,267.165,76,72,0
267.0619,267.165,73,72,0
267.0619,267.165,79,72,0
267.26843,267.37225,82,73,0
267.26843,267.37225,76,73,0
267.26843,267.37225,85,87,0
267.26843,267.37225,79,73,0
267.4764,267.5855,79,76,0
267.4764,267.5855,82,76,0
267.4764,267.5855,85,90,0
267.4764,267.5855,76,76,0
267.6946,267.91278,86,100,0
267.6946,267.91278,81,90,0
267.6946,267.91278,74,85,0
267.6946,267.91278,77,85,0
269.0037,269.22186,89,100,0
269.0037,269.22186,77,85,0
269.0037,269.22186,86,98,0
269.0037,269.22186,81,85,0
270.31277,270.52554,76,50,0
270.31277,270.52554,69,42,0
271.5894,271.80756,76,50,0
271.5894,271.80756,68,42,0
272.97934,274.0515,73,38,0
274.0515,274.1547,74,36,0
274.1547,274.25787,73,31,0
274.25787,274.67056,71,36,0
274.67056,275.09027,74,38,0
275.09027,275.51718,77,42,0
272.97934,275.51718,64,33,0
275.51718,276.35092,76,40,0
276.35092,276.76407,73,34,0
275.51718,276.77286,64,33,0
276.77286,277.59827,76,40,0
277.59827,278.02502,74,34,0
276.77286,278.0341,64,33,0
278.0341,279.0758,73,38,0
279.0758,279.17694,74,35,0
279.17694,279.2781,73,31,0
279.2781,279.6827,71,36,0
279.6827,280.09128,74,38,0
280.09128,280.5165,77,42,0
278.0341,280.5165,64,38,0
280.5165,281.33417,76,40,0
281.33417,281.74728,73,34,0
280.5165,281.75607,64,33,0
281.75607,282.57883,76,47,0
282.57883,282.99728,74,45,0
281.75607,283.0062,64,47,0
283.0062,283.82385,77,53,0
283.82385,284.24368,74,49,0
283.0062,284.2526,65,53,0
284.2526,285.08316,78,57,0
285.08316,285.503,74,49,0
284.2526,285.51193,66,57,0
285.51193,285.94333,73,53,0
285.94333,286.36447,82,61,0
286.36447,286.79437,81,55,0
285.51193,286.79437,67,53,0
286.79437,287.6313,79,50,0
287.6313,288.0552,78,45,0
286.79437,288.06424,69,33,0
288.06424,288.49298,73,49,0
288.49298,288.91092,79,53,0
288.91092,289.33688,78,45,0
288.06424,289.33688,64,49,0
289.33688,290.17078,76,48,0
290.17078,290.5852,74,45,0
289.33688,290.59402,66,33,0
290.59402,291.41678,76,40,0
291.41678,291.83524,74,34,0
290.59402,291.84415,64,33,0
291.84415,292.6669,76,40,0
292.6669,293.08673,73,34,0
291.84415,293.09564,64,33,0
293.09564,293.5149,77,51,0
293.5149,293.72482,76,36,0
293.72482,293.93634,74,31,0
293.93634,294.14932,73,35,0
294.14932,294.36383,71,29,0
293.09564,294.36383,62,33,0
294.36383,294.7864,61,28,0
294.36383,295.01117,69,35,0
295.01117,295.22696,71,38,0
295.22696,295.44272,73,43,0
295.44272,295.6585,74,46,0
295.6585,296.0845,73,54,0
296.0845,296.5024,82,59,0
296.5024,296.9284,81,54,0
295.6585,296.9284,67,54,0
296.9284,297.7618,79,52,0
297.7618,298.18576,78,49,0
296.9284,298.19476,69,52,0
298.19476,298.62354,73,50,0
298.62354,299.04144,79,56,0
299.04144,299.46744,78,51,0
298.19476,299.46744,64,50,0
299.46744,300.3013,76,48,0
300.3013,300.72226,74,45,0
299.46744,300.7312,66,33,0
300.7312,301.55396,76,43,0
301.55396,301.9724,74,36,0
300.7312,301.98132,64,43,0
301.98132,302.80408,76,43,0
302.80408,303.2239,73,34,0
301.98132,303.2327,64,43,0
303.2327,303.65994,77,51,0
303.65994,303.87454,76,36,0
303.87454,304.0903,74,31,0
304.0903,304.30728,73,35,0
304.30728,304.52554,71,29,0
303.2327,304.52554,62,33,0
304.52554,305.39386,61,31,0
304.52554,305.86276,69,35,0
305.86276,306.05695,69,89,0
306.05695,306.15402,71,83,0
306.15402,306.25113,72,75,0
306.25113,306.348,74,76,0
306.348,306.44498,76,78,0
306.44498,306.54248,78,80,0
306.54248,306.6404,80,82,0
306.6404,306.73877,81,83,0
306.73877,306.8376,83,85,0
306.8376,306.9368,84,87,0
306.9368,307.0366,86,88,0
307.0366,307.10916,88,96,0
307.0366,307.10916,76,81,0
307.23013,307.30515,75,72,0
307.23013,307.30515,87,85,0
307.43015,307.50272,76,78,0
307.43015,307.50272,88,92,0
307.6237,307.69843,87,85,0
307.6237,307.69843,75,72,0
307.82303,307.90988,76,79,0
307.82303,307.90988,88,94,0
308.28635,308.4805,67,89,0
308.4805,308.5776,69,83,0
308.5776,308.67468,71,75,0
308.67468,308.77158,72,76,0
308.77158,308.86856,74,78,0
308.86856,308.96606,76,80,0
308.96606,309.064,78,82,0
309.064,309.16235,79,83,0
309.16235,309.26114,81,85,0
309.26114,309.36038,83,87,0
309.36038,309.46014,85,88,0
309.46014,309.5327,86,95,0
309.46014,309.5327,74,80,0
309.6537,309.72845,73,73,0
309.6537,309.72845,85,86,0
309.85303,309.92584,86,92,0
309.85303,309.92584,74,78,0
310.0472,310.12195,73,72,0
310.0472,310.12195,85,85,0
310.24655,310.3334,74,80,0
310.24655,310.3334,86,95,0
310.81976,310.92966,77,77,0
310.92966,311.03952,81,77,0
311.03952,311.1494,84,81,0
311.1494,311.2593,89,87,0
311.2593,311.3692,93,80,0
311.3692,311.4791,96,79,0
311.4791,311.589,101,75,0
311.589,311.69888,100,89,0
312.04044,312.15112,74,90,0
312.15112,312.2618,77,81,0
312.2618,312.37253,82,81,0
312.37253,312.48322,86,81,0
312.48322,312.59393,77,90,0
312.59393,312.70462,80,81,0
312.70462,312.81534,86,81,0
312.81534,312.92603,89,81,0
312.92603,313.03674,76,90,0
313.03674,313.14743,81,79,0
313.14743,313.2637,84,79,0
313.2637,313.38,88,79,0
313.38,313.49277,74,88,0
313.49277,313.60556,77,78,0
313.60556,313.71832,83,78,0
313.71832,313.83112,86,78,0
313.83112,313.94608,72,85,0
313.94608,314.061,76,76,0
314.061,314.17593,81,76,0
314.17593,314.2909,84,76,0
314.2909,314.4104,71,86,0
314.4104,314.52994,76,75,0
314.52994,314.64944,80,76,0
314.64944,314.76898,83,76,0
314.76898,314.9021,57,66,0
314.76898,314.9021,69,78,0
314.9021,315.03525,71,70,0
314.9021,315.03525,59,59,0
315.03525,315.16837,72,69,0
315.03525,315.16837,60,58,0
315.16837,315.30148,59,65,0
315.16837,315.30148,71,77,0
315.30148,315.43463,60,60,0
315.30148,315.43463,72,71,0
315.43463,315.57574,62,61,0
315.43463,315.57574,74,72,0
315.57574,315.9783,76,88,0
315.57574,315.9783,64,74,0
315.9783,316.11075,69,78,0
315.9783,316.11075,57,66,0
316.11075,316.24323,59,59,0
316.11075,316.24323,71,70,0
316.24323,316.37567,72,69,0
316.24323,316.37567,60,58,0
316.37567,316.50812,71,77,0
316.37567,316.50812,59,65,0
316.50812,316.64056,60,60,0
316.50812,316.64056,72,71,0
316.64056,316.78168,74,72,0
316.64056,316.78168,62,61,0
316.78168,317.1847,64,74,0
316.78168,317.1847,76,88,0
317.1847,317.31717,81,84,0
317.1847,317.31717,69,71,0
317.31717,317.44962,83,76,0
317.31717,317.44962,71,64,0
317.44962,317.58206,72,64,0
317.44962,317.58206,84,76,0
317.58206,317.7145,71,72,0
317.58206,317.7145,83,85,0
317.7145,317.84695,72,65,0
317.7145,317.84695,84,77,0
317.84695,317.98807,86,77,0
317.84695,317.98807,74,65,0
317.98807,318.3916,88,95,0
317.98807,318.3916,76,80,0
318.3916,318.5236,69,71,0
318.3916,318.5236,81,84,0
318.5236,318.6556,83,76,0
318.5236,318.6556,71,64,0
318.6556,318.78763,84,76,0
318.6556,318.78763,72,64,0
318.78763,318.91965,83,85,0
318.78763,318.91965,71,72,0
318.91965,319.05167,72,65,0
318.91965,319.05167,84,77,0
319.05167,319.19278,86,77,0
319.05167,319.19278,74,65,0
319.19278,319.60394,88,95,0
319.19278,319.60394,76,80,0
319.60394,319.80496,84,95,0
319.60394,319.80496,81,80,0
319.60394,319.80496,76,80,0
319.60394,319.80496,72,80,0
320.41687,320.62747,71,77,0
320.41687,320.62747,83,91,0
320.41687,320.62747,76,77,0
320.41687,320.62747,80,77,0
320.83804,321.04044,72,80,0
320.83804,321.04044,84,95,0
320.83804,321.04044,76,80,0
320.83804,321.04044,81,80,0
321.65375,321.86392,83,91,0
321.65375,321.86392,71,77,0
321.65375,321.86392,76,77,0
321.65375,321.86392,80,77,0
322.0741,322.2772,72,80,0
322.0741,322.2772,81,80,0
322.0741,322.2772,84,95,0
322.0741,322.2772,76,80,0
322.8864,323.1011,83,91,0
322.8864,323.1011,80,91,0
322.8864,323.1011,76,77,0
322.8864,323.1011,71,77,0
323.31583,323.53055,76,80,0
323.31583,323.53055,69,80,0
323.31583,323.53055,81,95,0
323.31583,323.53055,72,80,0
324.5895,324.7957,69,85,0
324.5895,324.7957,64,72,0
324.5895,324.7957,57,72,0
324.5895,324.7957,60,72,0
325.00183,325.2147,69,88,0
325.00183,325.2147,60,74,0
325.00183,325.2147,64,74,0
325.00183,325.2147,57,74,0
325.42758,325.6579,69,90,0
325.42758,325.6579,60,76,0
325.42758,325.6579,57,76,0
325.42758,325.6579,64,76,0
325.8882,326.11856,64,77,0
325.8882,326.11856,57,77,0
325.8882,326.11856,69,91,0
325.8882,326.11856,60,77,0
0.719223,0.83858335,64,50,0
0.83858335,0.9579437,66,44,0
0.9579437,1.077304,68,44,0
1.077304,1.1966643,66,52,0
1.1966643,1.3160247,68,45,0
1.3160247,1.435385,69,45,0
1.797433,1.9167933,64,50,0
1.9167933,2.0361536,66,46,0
2.0361536,2.159481,68,46,0
2.159481,2.2788413,66,50,0
2.2788413,2.3982017,68,45,0
2.3982017,2.5201752,69,45,0
2.8808696,3.00023,69,50,0
3.00023,3.1195903,71,50,0
3.1195903,3.2389507,72,51,0
3.2389507,3.3584182,74,52,0
3.3584182,3.4785316,76,53,0
3.4785316,3.5994072,77,56,0
3.5994072,3.7191963,76,60,0
3.7191963,3.8389857,74,55,0
3.8389857,3.958775,72,51,0
3.958775,4.0785646,71,55,0
4.0785646,4.198354,69,52,0
4.198354,4.3261495,67,50,0
4.3261495,4.4663363,65,59,0
4.699981,4.8384433,60,56,0
5.0692124,5.442282,57,50,0
5.442282,5.5640483,56,53,0
5.5640483,5.685077,54,48,0
5.685077,5.8053784,52,48,0
5.8053784,5.925499,51,52,0
5.925499,6.0468965,49,47,0
6.0468965,6.1702237,47,48,0
6.1702237,6.529505,57,64,0
6.529505,6.650717,56,54,0
6.650717,6.771929,54,49,0
6.771929,6.895256,52,49,0
6.895256,7.0146165,51,53,0
7.0146165,7.133977,49,47,0
7.133977,7.257304,47,47,0
7.257304,7.614447,57,64,0
7.614447,7.734929,56,54,0
7.734929,7.855411,54,47,0
7.855411,7.9791965,52,47,0
7.9791965,8.0985565,51,52,0
8.0985565,8.217917,49,44,0
8.217917,8.34079,47,44,0
8.34079,8.698871,57,64,0
8.698871,8.819353,56,50,0
8.819353,8.939835,54,43,0
8.939835,9.063162,52,43,0
9.063162,9.182523,54,52,0
9.182523,9.301883,52,44,0
9.301883,9.424304,51,44,0
9.424304,9.543665,52,52,0
9.543665,9.663025,51,47,0
9.663025,9.785446,50,47,0
9.785446,9.904387,52,56,0
9.904387,10.023539,50,52,0
10.023539,10.143006,48,53,0
10.143006,10.262795,50,58,0
10.262795,10.383017,48,55,0
10.383017,10.503564,47,55,0
10.503564,10.624439,48,65,0
10.624439,10.745645,47,59,0
10.745645,10.867181,45,59,0
10.867181,10.989155,44,77,0
10.989155,11.111129,45,67,0
11.111129,11.237247,47,67,0
11.237247,11.359221,44,75,0
11.237247,11.420208,38,75,0
11.359221,11.481195,45,66,0
11.481195,11.604068,47,66,0
11.604068,11.726042,44,76,0
11.604068,11.787028,38,76,0
11.726042,11.848015,45,69,0
11.848015,11.971342,47,69,0
11.971342,12.094042,44,78,0
11.971342,12.155392,38,78,0
12.094042,12.216741,45,72,0
12.216741,12.342924,47,74,0
12.342924,12.466381,44,81,0
12.342924,12.52811,38,81,0
12.466381,12.589837,45,74,0
12.589837,12.71642,47,76,0
12.71642,12.840259,44,84,0
12.71642,12.902178,38,84,0
12.840259,12.964098,45,76,0
12.964098,13.094817,47,78,0
13.094817,13.276635,44,99,0
13.094817,13.276635,32,84,0
16.067358,16.186718,64,50,0
16.186718,16.306078,66,44,0
16.306078,16.42544,68,44,0
16.42544,16.5448,66,52,0
16.5448,16.66416,68,45,0
16.66416,16.78352,69,45,0
17.145569,17.264929,64,50,0
17.264929,17.384289,66,46,0
17.384289,17.507616,68,46,0
17.507616,17.626976,66,50,0
17.626976,17.746336,68,45,0
17.746336,17.86831,69,45,0
18.229004,18.348366,69,50,0
18.348366,18.467726,71,50,0
18.467726,18.587086,72,51,0
18.587086,18.706553,74,52,0
18.706553,18.826666,76,53,0
18.826666,18.947542,77,56,0
18.947542,19.067331,76,60,0
19.067331,19.18712,74,55,0
19.18712,19.30691,72,51,0
19.30691,19.426699,71,55,0
19.426699,19.54649,69,52,0
19.54649,19.674284,67,50,0
19.674284,19.813604,65,59,0
20.045801,20.184263,60,56,0
20.415033,20.554352,57,50,0
20.788103,20.909315,55,54,0
20.909315,21.030527,54,49,0
21.030527,21.153854,52,49,0
21.153854,21.273214,51,53,0
21.273214,21.392574,49,47,0
21.392574,21.515902,47,47,0
21.515902,21.873045,57,64,0
21.873045,21.993526,55,54,0
21.993526,22.11401,54,47,0
22.11401,22.237795,52,47,0
22.237795,22.357155,51,52,0
22.357155,22.476515,49,44,0
22.476515,22.599388,47,44,0
22.599388,22.957468,57,64,0
22.957468,23.077951,55,50,0
23.077951,23.198433,54,43,0
23.198433,23.32176,52,43,0
23.32176,23.44112,51,52,0
23.44112,23.56048,52,44,0
23.56048,23.682901,54,44,0
23.682901,23.802261,52,52,0
23.802261,23.921623,54,47,0
23.921623,24.044044,55,47,0
24.044044,24.162985,54,56,0
24.162985,24.282137,55,52,0
24.282137,24.401604,57,53,0
24.401604,24.521393,56,58,0
24.521393,24.641615,57,55,0
24.641615,24.762161,59,55,0
24.762161,24.883512,57,65,0
24.883512,25.006876,59,59,0
25.006876,25.136745,60,59,0
25.136745,25.255795,62,91,0
25.255795,25.375196,58,77,0
25.375196,25.495047,53,77,0
25.495047,25.615257,50,86,0
25.615257,25.735922,46,76,0
25.735922,25.85695,41,76,0
25.85695,25.979002,38,83,0
25.979002,26.1046,34,75,0
26.1046,26.233953,29,75,0
26.233953,26.334965,26,91,0
26.637995,26.84489,45,65,0
26.637995,26.84489,52,77,0
26.637995,26.84489,40,65,0
26.637995,26.84489,48,65,0
27.051786,27.263374,40,61,0
27.051786,27.263374,44,61,0
27.051786,27.263374,47,61,0
27.051786,27.263374,52,72,0
27.47539,27.596601,60,62,0
27.596601,27.717813,59,56,0
27.717813,27.84114,57,56,0
27.84114,27.9605,56,61,0
27.9605,28.07986,54,55,0
28.07986,28.203188,52,54,0
28.203188,28.560331,62,67,0
28.560331,28.680813,60,61,0
28.680813,28.801294,59,55,0
28.801294,28.925081,57,55,0
28.925081,29.044441,56,60,0
29.044441,29.163801,54,54,0
29.163801,29.286674,52,54,0
29.286674,29.644754,62,68,0
29.644754,29.763697,60,64,0
29.763697,29.882847,59,57,0
29.882847,30.002316,57,57,0
30.002316,30.122105,56,67,0
30.122105,30.242325,57,56,0
30.242325,30.362873,59,56,0
30.362873,30.484222,57,72,0
30.484222,30.607588,59,64,0
30.607588,30.737457,60,64,0
30.737457,30.856504,62,91,0
30.856504,30.975908,58,76,0
30.975908,31.095758,53,76,0
31.095758,31.21597,50,85,0
31.21597,31.336632,46,74,0
31.336632,31.45766,41,75,0
31.45766,31.579714,38,85,0
31.579714,31.70531,34,75,0
31.70531,31.834665,29,76,0
31.834665,31.937054,26,93,0
32.24422,32.456985,52,80,0
32.24422,32.456985,40,68,0
32.24422,32.456985,45,68,0
32.24422,32.456985,48,68,0
32.669754,32.900524,52,75,0
32.669754,32.900524,40,63,0
32.669754,32.900524,47,63,0
32.669754,32.900524,44,63,0
33.13129,34.2383,33,73,0
33.13129,34.2383,36,73,0
33.13129,34.2383,40,73,0
33.13129,34.2383,45,86,0
34.2383,34.291874,45,76,0
34.291874,34.345444,47,77,0
34.345444,34.399014,48,77,0
34.399014,34.452587,50,78,0
34.452587,34.524933,40,72,0
34.452587,34.524933,52,85,0
34.64551,34.720016,41,58,0
34.64551,34.720016,53,69,0
34.84419,34.916767,40,65,0
34.84419,34.916767,52,77,0
35.037735,35.11224,41,58,0
35.037735,35.11224,53,69,0
35.236412,35.323284,40,65,0
35.236412,35.323284,52,77,0
35.699734,36.806744,41,87,0
35.699734,36.806744,29,73,0
35.699734,36.806744,36,73,0
35.699734,36.806744,33,73,0
36.806744,36.860313,41,69,0
36.860313,36.913883,43,69,0
36.913883,36.967457,45,69,0
36.967457,37.021027,47,70,0
37.021027,37.093376,48,70,0
37.021027,37.093376,36,59,0
37.213955,37.288456,50,62,0
37.213955,37.288456,38,52,0
37.41263,37.485954,48,71,0
37.41263,37.485954,36,60,0
37.606922,37.68118,38,54,0
37.606922,37.68118,50,64,0
37.804943,37.891815,48,77,0
37.804943,37.891815,36,65,0
38.268265,39.15387,44,86,0
38.268265,39.15387,32,73,0
39.15387,39.375275,45,80,0
39.15387,39.375275,33,68,0
39.596676,39.813282,46,77,0
39.596676,39.813282,34,65,0
40.02989,40.2419,47,83,0
40.02989,40.2419,35,70,0
40.453915,40.671307,36,67,0
40.453915,40.671307,48,79,0
40.8887,41.11092,38,71,0
40.8887,41.11092,50,84,0
41.33314,41.560417,40,66,0
41.33314,41.560417,52,78,0
41.78769,42.022064,40,63,0
41.78769,42.022064,52,75,0
42.25644,43.430252,57,82,0
42.25644,43.430252,45,69,0
42.25644,43.430252,48,69,0
42.25644,43.430252,52,69,0
43.430252,43.503304,52,65,0
43.430252,43.503304,56,77,0
43.625057,43.700058,53,56,0
43.625057,43.700058,57,67,0
43.825058,43.89811,52,61,0
43.825058,43.89811,56,72,0
44.019863,44.09511,53,55,0
44.019863,44.09511,57,65,0
44.22053,44.307404,52,65,0
44.22053,44.307404,56,77,0
44.68385,45.857662,53,85,0
44.68385,45.857662,48,72,0
44.68385,45.857662,45,72,0
44.68385,45.857662,41,72,0
45.857662,45.930717,48,60,0
45.857662,45.930717,52,71,0
46.052467,46.12772,50,54,0
46.052467,46.12772,53,64,0
46.25314,46.32619,48,59,0
46.25314,46.32619,52,70,0
46.44794,46.523193,50,52,0
46.44794,46.523193,53,62,0
46.648613,46.735485,48,62,0
46.648613,46.735485,52,74,0
47.11193,47.99754,44,57,0
47.11193,47.99754,56,68,0
47.11193,47.99754,50,57,0
47.11193,47.99754,47,57,0
47.11193,47.99754,53,57,0
47.99754,48.21894,45,55,0
47.99754,48.21894,48,55,0
47.99754,48.21894,57,65,0
47.99754,48.21894,52,55,0
48.450603,48.67532,46,51,0
48.450603,48.67532,50,51,0
48.450603,48.67532,58,60,0
48.450603,48.67532,53,51,0
48.90004,49.12476,53,49,0
48.90004,49.12476,59,58,0
48.90004,49.12476,50,49,0
48.90004,49.12476,56,49,0
48.90004,49.12476,47,49,0
49.349476,49.574196,48,48,0
49.349476,49.574196,52,48,0
49.349476,49.574196,60,57,0
49.349476,49.574196,57,48,0
49.806755,50.034893,59,49,0
49.806755,50.034893,53,49,0
49.806755,50.034893,62,58,0
49.806755,50.034893,50,49,0
50.263027,50.49832,52,47,0
50.263027,50.49832,57,47,0
50.263027,50.49832,64,56,0
50.263027,50.49832,60,47,0
50.733616,50.97752,56,45,0
50.733616,50.97752,59,45,0
50.733616,50.97752,64,54,0
50.733616,50.97752,52,45,0
51.22142,51.415596,45,77,0
51.415596,51.512684,47,73,0
51.512684,51.60977,48,67,0
51.60977,51.70665,50,67,0
51.70665,51.803635,52,66,0
51.803635,51.901142,54,65,0
51.901142,51.999073,56,64,0
51.999073,52.097435,57,63,0
52.097435,52.196228,59,63,0
52.196228,52.295456,60,62,0
52.295456,52.394794,62,62,0
52.394794,52.49457,64,61,0
52.49457,52.594685,65,61,0
52.594685,52.695244,67,60,0
52.695244,52.79614,69,60,0
52.79614,52.998844,70,60,0
54.012356,54.215057,67,60,0
55.22857,55.431274,64,55,0
56.461563,56.668457,61,48,0
57.748917,57.9788,60,46,0
59.047848,59.264297,41,36,0
59.264297,59.480747,48,22,0
59.480747,59.697197,53,27,0
59.697197,59.913647,48,22,0
59.913647,60.120003,53,36,0
60.32636,60.532715,40,36,0
60.532715,60.73907,48,26,0
60.73907,60.94892,55,31,0
60.94892,61.15877,48,26,0
61.15877,61.372234,58,35,0
61.585697,61.79413,41,33,0
61.79413,62.002563,48,23,0
62.002563,62.211,57,26,0
62.211,62.419434,48,22,0
62.419434,62.63039,53,36,0
62.841343,63.0477,40,36,0
63.0477,63.254055,48,27,0
63.254055,63.46041,52,31,0
63.46041,63.666767,48,26,0
63.666767,63.88468,55,35,0
64.10259,64.31244,41,34,0
64.31244,64.52229,48,27,0
64.52229,64.73214,53,29,0
64.73214,64.941986,48,26,0
64.941986,65.144295,53,36,0
65.3466,65.54891,40,36,0
65.54891,65.75121,48,27,0
65.75121,65.95549,55,31,0
65.95549,66.15977,48,27,0
66.15977,66.37238,58,35,0
66.585,66.78941,41,33,0
66.78941,66.99383,48,23,0
66.99383,67.19824,57,27,0
67.19824,67.40266,48,22,0
67.40266,67.61362,53,36,0
67.82457,68.03026,40,38,0
68.03026,68.235954,48,28,0
68.235954,68.44164,52,35,0
68.44164,68.64733,48,28,0
68.64733,68.86101,55,35,0
69.074684,69.2791,40,38,0
69.2791,69.48351,49,30,0
69.48351,69.68793,52,36,0
69.68793,69.89235,49,31,0
69.89235,70.10673,55,39,0
70.3211,70.52874,41,47,0
70.52874,70.73638,50,33,0
70.73638,70.94402,53,36,0
70.94402,71.151665,50,33,0
71.151665,71.36604,58,41,0
71.58042,71.79612,41,48,0
71.79612,72.011826,53,35,0
72.011826,72.2224,60,40,0
72.2224,72.43297,53,35,0
72.43297,72.64791,60,44,0
72.86286,73.07343,46,39,0
73.07343,73.284,53,24,0
73.284,73.49213,58,26,0
73.49213,73.69977,53,22,0
73.69977,73.91625,62,31,0
74.13274,74.347115,38,38,0
74.347115,74.561485,50,30,0
74.561485,74.77045,54,33,0
74.77045,74.9794,50,29,0
74.9794,75.1924,57,38,0
75.40539,75.61634,43,36,0
75.61634,75.82398,50,25,0
75.82398,76.031624,55,28,0
76.031624,76.239265,50,26,0
76.239265,76.45089,58,31,0
76.66252,76.86821,40,36,0
76.86821,77.0739,48,27,0
77.0739,77.279594,52,29,0
77.279594,77.48528,48,27,0
77.48528,77.69896,55,35,0
77.912636,78.118324,41,33,0
78.118324,78.32401,48,28,0
78.32401,78.52971,57,29,0
78.52971,78.7354,48,28,0
78.7354,78.949776,53,36,0
79.164154,79.373764,36,33,0
79.373764,79.58338,48,29,0
79.58338,79.79333,55,29,0
79.79333,80.004845,48,29,0
80.004845,80.217834,52,36,0
80.43233,80.64811,41,33,0
80.64811,80.86389,48,26,0
80.86389,81.079666,57,26,0
81.079666,81.29545,48,26,0
81.29545,81.51123,53,30,0
81.72701,81.94,41,44,0
81.94,82.153,53,36,0
82.153,82.36195,60,38,0
82.36195,82.570915,53,36,0
82.570915,82.783905,60,44,0
82.996895,83.20586,46,39,0
83.20586,83.41481,53,26,0
83.41481,83.62267,58,26,0
83.62267,83.830315,53,26,0
83.830315,84.0468,62,31,0
84.263275,84.47765,38,40,0
84.47765,84.69203,50,30,0
84.69203,84.90099,54,36,0
84.90099,85.10995,50,29,0
85.10995,85.32294,57,38,0
85.535934,85.74689,43,36,0
85.74689,85.95453,50,26,0
85.95453,86.16217,55,26,0
86.16217,86.36981,50,26,0
86.36981,86.584755,58,31,0
86.799706,87.005394,40,36,0
87.005394,87.21108,48,27,0
87.21108,87.41678,52,28,0
87.41678,87.62247,48,28,0
87.62247,87.83614,55,35,0
88.04982,88.25551,41,33,0
88.25551,88.4612,48,27,0
88.4612,88.66689,57,29,0
88.66689,88.87258,48,26,0
88.87258,89.08696,53,36,0
89.30119,89.51487,36,33,0
89.51487,89.72843,48,26,0
89.72843,89.94304,55,29,0
89.94304,90.15881,48,27,0
90.15881,90.37578,52,36,0
90.59405,90.81341,41,33,0
90.81341,91.032776,48,23,0
91.032776,91.25214,53,26,0
91.25214,91.4715,48,23,0
91.4715,91.701385,57,23,0
91.93127,92.15079,41,33,0
92.15079,92.370316,48,20,0
92.370316,92.589836,53,26,0
92.589836,92.80936,48,20,0
92.80936,93.053085,57,25,0
93.29681,93.515564,40,31,0
93.515564,93.734314,48,18,0
93.734314,93.961914,52,23,0
93.961914,94.189514,48,18,0
94.189514,94.43714,57,25,0
94.68477,94.90992,40,29,0
94.90992,95.14535,47,20,0
95.14535,95.39203,52,25,0
95.39203,95.65111,47,18,0
95.65111,96.0174,56,20,0
96.383705,96.74178,45,38,0
97.10293,97.22229,64,42,0
97.22229,97.34165,66,37,0
97.34165,97.461006,68,37,0
97.461006,97.58037,66,44,0
97.58037,97.69973,68,38,0
97.69973,97.81909,69,38,0
98.18114,98.3005,64,42,0
98.3005,98.41986,66,39,0
98.41986,98.54319,68,39,0
98.54319,98.662544,66,42,0
98.662544,98.781906,68,38,0
98.781906,98.903885,69,38,0
99.26457,99.383934,69,42,0
99.383934,99.503296,71,42,0
99.503296,99.62266,72,43,0
99.62266,99.74213,74,44,0
99.74213,99.862236,76,45,0
99.862236,99.983116,77,47,0
99.983116,100.102905,76,51,0
100.102905,100.222694,74,46,0
100.222694,100.34248,72,43,0
100.34248,100.46227,71,46,0
100.46227,100.58206,69,44,0
100.58206,100.709854,67,42,0
100.709854,100.850044,65,50,0
101.08369,101.22215,60,47,0
101.45292,101.59224,57,42,0
101.82599,101.947754,56,45,0
101.947754,102.06879,54,40,0
102.06879,102.18909,52,40,0
102.18909,102.309204,51,44,0
102.309204,102.4306,49,39,0
102.4306,102.55393,47,40,0
102.55393,102.91321,57,54,0
102.91321,103.034424,56,45,0
103.034424,103.15563,54,41,0
103.15563,103.27896,52,41,0
103.27896,103.39832,51,45,0
103.39832,103.517685,49,39,0
103.517685,103.64101,47,39,0
103.64101,103.99815,57,54,0
103.99815,104.11864,56,45,0
104.11864,104.23912,54,39,0
104.23912,104.3629,52,39,0
104.3629,104.48226,51,44,0
104.48226,104.60162,49,37,0
104.60162,104.724495,47,37,0
104.724495,105.08258,57,54,0
105.08258,105.20306,56,42,0
105.20306,105.32354,54,36,0
105.32354,105.44687,52,36,0
105.44687,105.56623,54,45,0
105.56623,105.685585,52,38,0
105.685585,105.808014,51,39,0
105.808014,105.92737,52,46,0
105.92737,106.04673,51,42,0
106.04673,106.16915,50,42,0
106.16915,106.28809,52,51,0
106.28809,106.40724,50,48,0
106.40724,106.52671,48,49,0
106.52671,106.6465,50,55,0
106.6465,106.76672,48,52,0
106.76672,106.88727,47,52,0
106.88727,107.00815,48,63,0
107.00815,107.12935,47,57,0
107.12935,107.250885,45,58,0
107.250885,107.37286,44,77,0
107.37286,107.494835,45,67,0
107.494835,107.62096,47,67,0
107.62096,107.74293,44,75,0
107.62096,107.80392,38,75,0
107.74293,107.8649,45,66,0
107.8649,107.98777,47,66,0
107.98777,108.10975,44,76,0
107.98777,108.17073,38,76,0
108.10975,108.23172,45,69,0
108.23172,108.35505,47,69,0
108.35505,108.477745,44,78,0
108.35505,108.5391,38,78,0
108.477745,108.60045,45,72,0
108.60045,108.72663,47,74,0
108.72663,108.85009,44,81,0
108.72663,108.91181,38,81,0
108.85009,108.97354,45,74,0
108.97354,109.10013,47,76,0
109.10013,109.22396,44,84,0
109.10013,109.28588,38,84,0
109.22396,109.3478,45,76,0
109.3478,109.479385,47,78,0
109.479385,109.66572,31,99,0
109.479385,109.66572,43,99,0
112.50005,112.62017,67,50,0
112.62017,112.74029,69,44,0
112.74029,112.86041,71,44,0
112.86041,112.979454,69,52,0
112.979454,113.0985,71,45,0
113.0985,113.21755,72,45,0
113.57897,113.69833,67,50,0
113.69833,113.817696,69,46,0
113.817696,113.941025,71,46,0
113.941025,114.06039,69,50,0
114.06039,114.17974,71,45,0
114.17974,114.30172,72,45,0
114.662415,114.78177,72,50,0
114.78177,114.90113,74,50,0
114.90113,115.02049,75,51,0
115.02049,115.13996,77,52,0
115.13996,115.26007,79,53,0
115.26007,115.38095,80,56,0
115.38095,115.50074,79,60,0
115.50074,115.62053,77,55,0
115.62053,115.74032,75,51,0
115.74032,115.86011,74,55,0
115.86011,115.9799,72,52,0
115.9799,116.10769,70,50,0
116.10769,116.24701,68,55,0
116.47921,116.61767,63,52,0
116.84844,116.987755,60,50,0
117.22151,117.34272,59,54,0
117.34272,117.463936,57,49,0
117.463936,117.58726,55,49,0
117.58726,117.70662,54,53,0
117.70662,117.82598,52,47,0
117.82598,117.94931,50,47,0
117.94931,118.30645,60,64,0
118.30645,118.42693,59,54,0
118.42693,118.54742,57,47,0
118.54742,118.6712,55,47,0
118.6712,118.790565,54,52,0
118.790565,118.90992,52,44,0
118.90992,119.03279,50,44,0
119.03279,119.39088,60,64,0
119.39088,119.51024,59,54,0
119.51024,119.62959,57,47,0
119.62959,119.75338,55,47,0
119.75338,119.87274,54,52,0
119.87274,119.9921,52,44,0
119.9921,120.114975,50,44,0
120.114975,120.47305,60,64,0
120.47305,120.59354,59,50,0
120.59354,120.71402,57,43,0
120.71402,120.83735,55,43,0
120.83735,120.95671,57,52,0
120.95671,121.076065,55,44,0
121.076065,121.19849,54,44,0
121.19849,121.31785,55,52,0
121.31785,121.43721,54,47,0
121.43721,121.55963,53,47,0
121.55963,121.67857,52,56,0
121.67857,121.79772,50,52,0
121.79772,121.91719,48,53,0
121.91719,122.03698,50,58,0
122.03698,122.1572,48,55,0
122.1572,122.27775,47,55,0
122.27775,122.3991,48,65,0
122.3991,122.52246,47,59,0
122.52246,122.652336,46,59,0
122.652336,122.74162,45,83,0
123.010635,123.130844,57,78,0
123.130844,123.25151,53,68,0
123.25151,123.372536,48,68,0
123.372536,123.49459,45,82,0
123.49459,123.620186,41,72,0
123.620186,123.74954,36,79,0
123.74954,123.850555,33,93,0
124.15358,124.36048,59,83,0
124.15358,124.36048,52,70,0
124.15358,124.36048,47,70,0
124.15358,124.36048,55,70,0
124.567375,124.77896,47,63,0
124.567375,124.77896,59,75,0
124.567375,124.77896,54,63,0
124.567375,124.77896,51,63,0
124.990974,125.11219,67,59,0
125.11219,125.2334,66,53,0
125.2334,125.35673,64,53,0
125.35673,125.47609,63,58,0
125.47609,125.59545,61,52,0
125.59545,125.71877,59,52,0
125.71877,126.07592,69,67,0
126.07592,126.1964,67,61,0
126.1964,126.31688,66,51,0
126.31688,126.44067,64,51,0
126.44067,126.56003,63,51,0
126.56003,126.67939,61,54,0
126.67939,126.80226,59,54,0
126.80226,127.16034,69,68,0
127.16034,127.27928,67,60,0
127.27928,127.39844,66,54,0
127.39844,127.5179,64,57,0
127.5179,127.63769,63,64,0
127.63769,127.75791,64,56,0
127.75791,127.87846,66,56,0
127.87846,127.99981,64,72,0
127.99981,128.12317,66,64,0
128.12317,128.25305,67,64,0
128.61134,128.73155,57,82,0
128.73155,128.85222,53,73,0
128.85222,128.97325,48,73,0
128.97325,129.0953,45,89,0
129.0953,129.2209,41,79,0
129.2209,129.35025,36,79,0
129.35025,129.45126,33,93,0
129.75429,129.96118,55,70,0
129.75429,129.96118,52,70,0
129.75429,129.96118,47,70,0
129.75429,129.96118,59,83,0
130.16809,130.39197,47,63,0
130.16809,130.39197,59,75,0
130.16809,130.39197,54,63,0
130.16809,130.39197,51,63,0
130.61584,131.70676,47,75,0
130.61584,131.70676,43,75,0
130.61584,131.70676,40,75,0
130.61584,131.70676,52,89,0
131.92494,131.99751,59,77,0
131.92494,131.99751,47,65,0
132.11848,132.19348,60,67,0
132.11848,132.19348,48,56,0
132.31848,132.39107,59,75,0
132.31848,132.39107,47,63,0
132.51204,132.58704,60,68,0
132.51204,132.58704,48,57,0
132.71204,132.7989,59,75,0
132.71204,132.7989,47,63,0
133.17535,134.28236,42,74,0
133.17535,134.28236,38,74,0
133.17535,134.28236,45,74,0
133.17535,134.28236,50,88,0
134.49666,134.56947,45,65,0
134.49666,134.56947,57,77,0
134.69083,134.76558,46,56,0
134.69083,134.76558,58,66,0
134.89017,134.96298,45,62,0
134.89017,134.96298,57,73,0
135.08434,135.15909,46,56,0
135.08434,135.15909,58,66,0
135.28368,135.37054,45,62,0
135.28368,135.37054,57,73,0
135.747,136.6326,39,75,0
135.747,136.6326,51,89,0
136.6326,136.854,40,68,0
136.6326,136.854,52,80,0
137.07541,137.2928,41,65,0
137.07541,137.2928,53,77,0
137.5102,137.73158,42,70,0
137.5102,137.73158,54,83,0
137.95299,138.1744,43,67,0
137.95299,138.1744,55,79,0
138.3958,138.61967,45,71,0
138.3958,138.61967,57,84,0
138.84355,139.07083,47,66,0
138.84355,139.07083,59,78,0
139.2981,139.53247,47,63,0
139.2981,139.53247,59,75,0
139.76685,140.94066,52,66,0
139.76685,140.94066,59,66,0
139.76685,140.94066,55,66,0
140.94066,141.01324,47,65,0
140.94066,141.01324,51,77,0
141.13422,141.20871,48,56,0
141.13422,141.20871,52,66,0
141.33289,141.4057,47,60,0
141.33289,141.4057,51,71,0
141.52707,141.60156,48,55,0
141.52707,141.60156,52,65,0
141.72574,141.8126,51,77,0
141.72574,141.8126,47,65,0
142.18906,143.36287,50,72,0
142.18906,143.36287,54,72,0
142.18906,143.36287,57,72,0
143.36287,143.43616,49,74,0
143.36287,143.43616,45,62,0
143.55832,143.63332,50,66,0
143.55832,143.63332,46,56,0
143.75832,143.8316,49,72,0
143.75832,143.8316,45,61,0
143.95375,144.02875,50,64,0
143.95375,144.02875,46,54,0
144.15375,144.24063,49,73,0
144.15375,144.24063,45,62,0
144.61707,145.50269,48,68,0
144.61707,145.50269,43,57,0
144.61707,145.50269,40,57,0
144.61707,145.50269,36,57,0
145.50269,145.72408,52,65,0
145.50269,145.72408,47,55,0
145.50269,145.72408,43,55,0
145.50269,145.72408,40,55,0
145.95573,146.18047,53,66,0
145.95573,146.18047,48,56,0
145.95573,146.18047,45,56,0
145.95573,146.18047,41,56,0
146.40518,146.6299,45,54,0
146.40518,146.6299,51,54,0
146.40518,146.6299,54,64,0
146.40518,146.6299,42,54,0
146.85461,147.07933,52,51,0
146.85461,147.07933,47,51,0
146.85461,147.07933,55,61,0
146.85461,147.07933,43,51,0
147.31189,147.54002,45,54,0
147.31189,147.54002,48,54,0
147.31189,147.54002,57,64,0
147.31189,147.54002,54,54,0
147.76817,148.00346,55,49,0
147.76817,148.00346,52,49,0
147.76817,148.00346,59,58,0
147.76817,148.00346,47,49,0
148.23875,148.48267,51,48,0
148.23875,148.48267,54,48,0
148.23875,148.48267,59,57,0
148.23875,148.48267,47,48,0
148.72656,148.92073,52,77,0
148.92073,149.01782,54,73,0
149.01782,149.11491,55,67,0
149.11491,149.21179,57,67,0
149.21179,149.30878,59,66,0
149.30878,149.40628,61,65,0
149.40628,149.50421,63,64,0
149.50421,149.60257,64,63,0
149.60257,149.70137,66,63,0
149.70137,149.8006,67,62,0
149.8006,149.89993,69,62,0
149.89993,149.99971,71,61,0
149.99971,150.09982,72,61,0
150.09982,150.20038,74,60,0
150.20038,150.30128,76,60,0
150.30128,150.50398,77,60,0
151.5175,151.7202,74,60,0
152.7337,152.93642,71,55,0
153.9667,154.1736,68,48,0
155.25406,155.48395,67,46,0
156.553,156.76944,48,39,0
156.76944,156.98589,55,24,0
156.98589,157.20233,60,29,0
157.20233,157.4188,55,24,0
157.4188,157.62514,64,39,0
157.8315,158.03786,47,39,0
158.03786,158.24422,55,28,0
158.24422,158.45406,62,34,0
158.45406,158.66391,55,28,0
158.66391,158.87737,65,38,0
159.09084,159.29927,48,36,0
159.29927,159.5077,55,25,0
159.5077,159.71614,64,28,0
159.71614,159.92458,55,24,0
159.92458,160.13553,60,39,0
160.34648,160.55284,47,39,0
160.55284,160.7592,55,29,0
160.7592,160.96555,65,34,0
160.96555,161.1719,55,28,0
161.1719,161.38982,62,38,0
161.60773,161.81758,48,37,0
161.81758,162.02744,55,29,0
162.02744,162.23727,60,31,0
162.23727,162.44713,55,28,0
162.44713,162.64943,64,39,0
162.85175,163.05405,47,39,0
163.05405,163.25635,55,29,0
163.25635,163.46063,62,34,0
163.46063,163.6649,55,29,0
163.6649,163.87752,65,38,0
164.09013,164.29456,48,36,0
164.29456,164.49896,55,25,0
164.49896,164.70338,64,29,0
164.70338,164.9078,55,24,0
164.9078,165.11876,60,39,0
165.32971,165.5354,47,41,0
165.5354,165.74109,55,30,0
165.74109,165.94678,65,38,0
165.94678,166.15248,55,30,0
166.15248,166.36615,62,38,0
166.57982,166.78424,47,41,0
166.78424,166.98865,56,33,0
166.98865,167.19307,65,39,0
167.19307,167.39749,56,34,0
167.39749,167.61186,62,42,0
167.82625,168.03387,48,51,0
168.03387,168.24152,57,36,0
168.24152,168.44916,65,39,0
168.44916,168.6568,57,36,0
168.6568,168.87119,60,45,0
169.08556,169.30127,48,52,0
169.30127,169.51697,60,38,0
169.51697,169.72754,67,44,0
169.72754,169.93811,60,38,0
169.93811,170.15305,64,48,0
170.368,170.57857,53,42,0
170.57857,170.78914,60,26,0
170.78914,170.99727,65,28,0
170.99727,171.20491,60,24,0
171.20491,171.42139,69,34,0
171.63788,171.85225,45,41,0
171.85225,172.06664,57,33,0
172.06664,172.27559,61,36,0
172.27559,172.48454,57,31,0
172.48454,172.69754,64,41,0
172.91052,173.12149,50,39,0
173.12149,173.32913,57,27,0
173.32913,173.53676,62,30,0
173.53676,173.7444,57,28,0
173.7444,173.95604,65,34,0
174.16766,174.37335,47,39,0
174.37335,174.57904,55,29,0
174.57904,174.78473,65,31,0
174.78473,174.99042,55,29,0
174.99042,175.2041,62,38,0
175.41777,175.62346,48,36,0
175.62346,175.82915,55,30,0
175.82915,176.03485,64,31,0
176.03485,176.24054,55,30,0
176.24054,176.45491,60,39,0
176.6693,176.8789,43,36,0
176.8789,177.08852,55,31,0
177.08852,177.29846,62,31,0
177.29846,177.50998,55,31,0
177.50998,177.72298,59,39,0
177.93747,178.15324,48,36,0
178.15324,178.36903,55,28,0
178.36903,178.58481,64,28,0
178.58481,178.80058,55,28,0
178.80058,179.01637,60,33,0
179.23215,179.44514,48,48,0
179.44514,179.65814,60,39,0
179.65814,179.8671,67,41,0
179.8671,180.07605,60,39,0
180.07605,180.28905,64,48,0
180.50204,180.711,53,42,0
180.711,180.91995,60,28,0
180.91995,181.1278,65,28,0
181.1278,181.33545,60,28,0
181.33545,181.55194,69,34,0
181.76842,181.98279,45,44,0
181.98279,182.19717,57,33,0
182.19717,182.40613,61,39,0
182.40613,182.61508,57,31,0
182.61508,182.82808,64,41,0
183.04108,183.25203,50,39,0
183.25203,183.45967,57,28,0
183.45967,183.66731,62,28,0
183.66731,183.87495,57,28,0
183.87495,184.08989,65,34,0
184.30484,184.51053,47,39,0
184.51053,184.71622,55,29,0
184.71622,184.92192,65,30,0
184.92192,185.12761,55,30,0
185.12761,185.34128,62,38,0
185.55496,185.76065,48,36,0
185.76065,185.96634,55,29,0
185.96634,186.17203,64,31,0
186.17203,186.37772,55,28,0
186.37772,186.5921,60,39,0
186.80634,187.02,43,36,0
187.02,187.23357,55,28,0
187.23357,187.44818,62,31,0
187.44818,187.66396,55,29,0
187.66396,187.88092,59,39,0
188.09918,188.31854,48,36,0
188.31854,188.53792,55,25,0
188.53792,188.75728,60,28,0
188.75728,188.97664,55,25,0
188.97664,189.20653,64,25,0
189.4364,189.65593,48,33,0
189.65593,189.87546,55,20,0
189.87546,190.09497,60,26,0
190.09497,190.3145,55,20,0
190.3145,190.55823,64,25,0
190.80194,191.0207,47,31,0
191.0207,191.23946,55,18,0
191.23946,191.46706,59,23,0
191.46706,191.69466,55,18,0
191.69466,191.94229,64,25,0
192.18991,192.41505,47,29,0
192.41505,192.65048,54,20,0
192.65048,192.89717,59,25,0
192.89717,193.15625,54,18,0
193.15625,193.52255,63,20,0
193.88884,194.00789,56,83,0
194.00789,194.12729,65,72,0
194.12729,194.24715,62,68,0
194.24715,194.36736,59,75,0
194.36736,194.48802,56,68,0
194.48802,194.60905,53,68,0
194.60905,194.7311,50,65,0
194.7311,194.8567,47,54,0
194.8567,194.98605,45,53,0
194.98605,195.08707,44,63,0
196.19818,196.41754,46,33,0
196.41754,196.6369,53,23,0
196.6369,196.8583,58,26,0
196.8583,197.0797,53,23,0
197.0797,197.31317,62,23,0
197.54663,197.76804,46,33,0
197.76804,197.98943,53,20,0
197.98943,198.21083,58,26,0
198.21083,198.43224,53,20,0
198.43224,198.66661,62,25,0
198.90099,199.12158,45,31,0
199.12158,199.34216,53,18,0
199.34216,199.56976,57,23,0
199.56976,199.79736,53,18,0
199.79736,200.045,62,25,0
200.29262,200.51776,45,29,0
200.51776,200.75319,52,20,0
200.75319,200.99988,57,25,0
200.99988,201.25896,52,18,0
201.25896,201.62526,61,20,0
201.99155,202.1106,54,83,0
202.1106,202.23,63,73,0
202.23,202.34985,60,70,0
202.34985,202.47006,57,75,0
202.47006,202.59073,53,68,0
202.59073,202.71176,51,68,0
202.71176,202.8338,48,65,0
202.8338,202.95941,45,54,0
202.95941,203.08876,43,53,0
203.08876,203.18977,42,63,0
204.30089,204.52477,44,33,0
204.52477,204.74864,51,23,0
204.74864,204.97592,56,26,0
204.97592,205.20319,51,23,0
205.20319,205.44223,60,23,0
205.68127,205.90855,44,33,0
205.90855,206.13582,51,20,0
206.13582,206.36748,56,26,0
206.36748,206.59914,51,20,0
206.59914,206.83818,60,25,0
207.07722,207.3011,44,31,0
207.3011,207.525,53,18,0
207.525,207.75937,56,23,0
207.75937,207.99374,53,18,0
207.99374,208.24136,61,25,0
208.489,208.70775,44,31,0
208.70775,208.9265,53,18,0
208.9265,209.1541,56,23,0
209.1541,209.3817,53,18,0
209.3817,209.62364,61,25,0
209.86557,210.09546,32,31,0
210.09546,210.32535,44,18,0
210.32535,210.56157,51,18,0
210.56157,210.79779,44,18,0
210.79779,211.05095,54,23,0
211.30411,211.53667,32,31,0
211.53667,211.76923,44,18,0
211.76923,212.01413,51,18,0
212.01413,212.29407,44,18,0
212.29407,212.54099,56,27,0
212.7879,215.08197,53,27,0
212.7879,215.08197,56,27,0
212.7879,215.08197,61,27,0
212.7879,215.08197,49,27,0
215.08197,216.20346,51,29,0
216.20346,217.34335,54,28,0
215.08197,217.34335,49,29,0
215.08197,217.34335,60,29,0
215.08197,217.34335,56,29,0
217.34335,219.62488,52,29,0
217.34335,219.62488,56,29,0
217.34335,219.62488,61,29,0
217.34335,219.62488,49,29,0
219.62488,220.71912,51,28,0
220.71912,221.83363,54,28,0
219.62488,221.83363,60,28,0
221.83363,222.19948,61,29,0
219.62488,222.19948,49,28,0
219.62488,222.19948,56,28,0
221.83363,222.19948,52,29,0
222.93224,223.05423,60,40,0
223.05423,223.17621,61,35,0
223.17621,223.2982,63,35,0
223.2982,223.4202,61,41,0
223.4202,223.54218,63,37,0
223.54218,223.66417,64,37,0
223.66417,223.78616,66,42,0
223.78616,223.90814,64,37,0
223.90814,224.03313,63,37,0
224.03313,224.76506,64,45,0
224.76506,225.13364,61,37,0
225.13364,225.25563,60,40,0
225.25563,225.37761,61,35,0
225.37761,225.4996,63,35,0
225.4996,225.6216,61,41,0
225.6216,225.74358,63,37,0
225.74358,225.86557,64,37,0
225.86557,225.98756,66,42,0
225.98756,226.10954,64,37,0
226.10954,226.23376,63,37,0
226.23376,227.33913,64,45,0
227.33913,227.4611,63,40,0
227.4611,227.5831,64,35,0
227.5831,227.7051,66,35,0
227.7051,227.82707,64,41,0
227.82707,227.94907,66,37,0
227.94907,228.07106,67,37,0
228.07106,228.19414,69,42,0
228.19414,228.31721,67,37,0
228.31721,228.44334,66,37,0
228.44334,228.56534,65,40,0
228.56534,228.68733,66,35,0
228.68733,228.80931,68,35,0
228.80931,228.9313,66,41,0
228.9313,229.0533,68,37,0
229.0533,229.17528,69,37,0
229.17528,229.29874,71,42,0
229.29874,229.4222,69,37,0
229.4222,229.54797,68,37,0
229.54797,229.91394,66,42,0
230.2799,230.40263,64,39,0
230.40263,230.52536,70,36,0
230.52536,230.65111,64,36,0
230.65111,230.7731,71,40,0
230.65111,230.7731,63,40,0
230.7731,230.89508,64,35,0
230.89508,231.01707,66,35,0
231.01707,231.13907,64,41,0
231.13907,231.26105,66,37,0
231.25647,231.37846,67,37,0
231.38304,231.7546,69,41,0
231.38304,231.7546,75,41,0
231.7546,231.93758,68,41,0
232.48653,232.60962,62,40,0
232.60962,232.73271,68,37,0
232.73271,232.8577,62,37,0
232.8577,232.97968,69,40,0
232.8577,232.97968,61,40,0
232.97968,233.10167,62,35,0
233.10167,233.22365,64,35,0
233.22365,233.34564,62,41,0
233.34564,233.46764,64,37,0
233.46764,233.58961,66,37,0
233.58961,233.96461,73,41,0
233.58961,233.96461,67,41,0
233.96461,234.1476,66,41,0
234.69655,234.82039,65,41,0
234.82039,234.94423,69,37,0
234.94423,235.06981,65,37,0
235.06981,235.1918,64,40,0
235.1918,235.3138,66,35,0
235.3138,235.43578,68,35,0
235.43578,235.55777,66,41,0
235.55777,235.67976,68,37,0
235.67976,235.80174,69,37,0
235.80174,236.17671,65,41,0
236.17671,236.54268,64,41,0
235.80174,236.54268,74,41,0
235.80174,236.54268,71,41,0
236.90865,237.03285,65,39,0
237.03285,237.15707,69,37,0
237.15707,237.28322,65,38,0
237.28322,237.40521,64,40,0
237.40521,237.52719,66,35,0
237.52719,237.64919,68,35,0
237.64919,237.77116,66,41,0
237.77116,237.89316,68,37,0
237.89316,238.01515,69,37,0
238.01515,238.38708,65,41,0
238.38708,238.75305,64,41,0
238.01515,238.75305,74,41,0
238.01515,238.75305,71,41,0
239.11902,239.24211,65,45,0
239.24211,239.3652,69,38,0
239.3652,239.48906,65,38,0
239.48906,239.61028,64,45,0
239.61028,239.73148,66,36,0
239.73148,239.85242,68,36,0
239.85242,239.97327,66,46,0
239.97327,240.09393,68,37,0
240.09393,240.21442,69,37,0
240.21442,240.33481,68,47,0
240.33481,240.45493,69,41,0
240.45493,240.57504,71,42,0
241.29626,241.41563,64,50,0
241.41563,241.53499,66,44,0
241.53499,241.65434,68,44,0
241.65434,241.77371,66,52,0
241.77371,241.89307,68,45,0
241.89307,242.01244,69,45,0
242.37448,242.49384,64,50,0
242.49384,242.61319,66,46,0
242.61319,242.73653,68,46,0
242.73653,242.85588,66,50,0
242.85588,242.97525,68,45,0
242.97525,243.09721,69,45,0
243.45792,243.57727,69,50,0
243.57727,243.69664,71,50,0
243.69664,243.816,72,51,0
243.816,243.93546,74,52,0
243.93546,244.05557,76,53,0
244.05557,244.17645,77,56,0
244.17645,244.29623,76,60,0
244.29623,244.41603,74,55,0
244.41603,244.53581,72,51,0
244.53581,244.65561,71,55,0
244.65561,244.77539,69,52,0
244.77539,244.9032,67,50,0
244.9032,245.04338,65,59,0
245.27702,245.41548,60,56,0
245.64626,245.78557,57,50,0
246.01933,246.1411,56,53,0
246.1411,246.26212,54,48,0
246.26212,246.38242,52,48,0
246.38242,246.50255,51,52,0
246.50255,246.62395,49,47,0
246.62395,246.74727,47,48,0
246.74727,247.10655,57,64,0
247.10655,247.22777,56,54,0
247.22777,247.34897,54,49,0
247.34897,247.4723,52,49,0
247.4723,247.59166,51,53,0
247.59166,247.71101,49,47,0
247.71101,247.83435,47,47,0
247.83435,248.1915,57,64,0
248.1915,248.31197,56,54,0
248.31197,248.43245,54,47,0
248.43245,248.55624,52,47,0
248.55624,248.6756,51,52,0
248.6756,248.79497,49,44,0
248.79497,248.91783,47,44,0
248.91783,249.27591,57,64,0
249.27591,249.3964,56,50,0
249.3964,249.51688,54,43,0
249.51688,249.64021,52,43,0
249.64021,249.75957,54,52,0
249.75957,249.87892,52,44,0
249.87892,250.00134,51,44,0
250.00134,250.12071,52,52,0
250.12071,250.24007,51,47,0
250.24007,250.36249,50,47,0
250.36249,250.48143,52,56,0
250.48143,250.60059,50,52,0
250.60059,250.72005,48,53,0
250.72005,250.83984,50,58,0
250.83984,250.96007,48,55,0
250.96007,251.08061,47,55,0
251.08061,251.20148,48,65,0
251.20148,251.3227,47,59,0
251.3227,251.44423,45,59,0
251.44423,251.56328,62,91,0
251.56328,251.68268,58,79,0
251.68268,251.80252,53,77,0
251.80252,251.92273,50,85,0
251.92273,252.0434,46,75,0
252.0434,252.16443,41,75,0
252.16443,252.28648,38,84,0
252.28648,252.41208,34,76,0
252.41208,252.54143,29,76,0
252.54143,252.64244,26,88,0
252.94548,253.15237,57,70,0
252.94548,253.15237,52,70,0
252.94548,253.15237,60,83,0
253.35927,253.57085,56,63,0
253.35927,253.57085,59,75,0
253.35927,253.57085,52,63,0
253.78287,253.90408,60,62,0
253.90408,254.02528,59,56,0
254.02528,254.14862,57,56,0
254.14862,254.26797,56,61,0
254.26797,254.38734,54,55,0
254.38734,254.51067,52,54,0
254.51067,254.86781,62,67,0
254.86781,254.9883,60,61,0
254.9883,255.10878,59,55,0
255.10878,255.23256,57,55,0
255.23256,255.35191,56,60,0
255.35191,255.47128,54,54,0
255.47128,255.59415,52,54,0
255.59415,255.95224,62,68,0
255.95224,256.07272,60,61,0
256.07272,256.1932,59,55,0
256.1932,256.317,57,55,0
256.317,256.43634,56,60,0
256.43634,256.5557,54,54,0
256.5557,256.6786,52,54,0
256.6786,257.03665,62,68,0
257.03665,257.156,60,64,0
257.156,257.2754,59,57,0
257.2754,257.39484,57,57,0
257.39484,257.51465,56,67,0
257.51465,257.63486,57,56,0
257.63486,257.7554,59,56,0
257.7554,257.87674,57,72,0
257.87674,258.00012,59,64,0
258.00012,258.12997,60,64,0
258.12997,258.24902,62,91,0
258.24902,258.36844,58,79,0
258.36844,258.48828,53,79,0
258.48828,258.6085,50,86,0
258.6085,258.72916,46,77,0
258.72916,258.8502,41,77,0
258.8502,258.97223,38,86,0
258.97223,259.09784,34,78,0
259.09784,259.2272,29,77,0
259.2272,259.3296,26,93,0
259.63675,259.84952,60,83,0
259.63675,259.84952,52,70,0
259.63675,259.84952,57,70,0
260.0623,260.29306,59,75,0
260.0623,260.29306,52,63,0
260.0623,260.29306,56,63,0
260.52383,260.6413,62,91,0
260.6413,260.75946,58,79,0
260.75946,260.87833,53,79,0
260.87833,260.99792,50,86,0
260.99792,261.11823,46,76,0
261.11823,261.23935,41,76,0
261.23935,261.3614,38,86,0
261.3614,261.487,34,76,0
261.487,261.61633,29,76,0
261.61633,261.71503,26,90,0
262.01108,262.2131,62,83,0
262.01108,262.2131,53,70,0
262.01108,262.2131,58,70,0
262.41513,262.6138,53,63,0
262.41513,262.6138,57,63,0
262.41513,262.6138,60,75,0
262.81247,263.006,43,93,0
262.81247,263.006,31,79,0
263.19955,263.4009,63,83,0
263.19955,263.4009,55,70,0
263.19955,263.4009,60,70,0
263.60226,263.80093,62,75,0
263.60226,263.80093,59,63,0
263.60226,263.80093,55,63,0
263.9996,264.1938,33,79,0
263.9996,264.1938,45,93,0
264.38797,264.59067,65,83,0
264.38797,264.59067,57,70,0
264.38797,264.59067,62,70,0
264.79337,265.00314,64,75,0
264.79337,265.00314,61,63,0
264.79337,265.00314,57,63,0
265.21295,265.31567,58,50,0
265.21295,265.31567,55,42,0
265.41843,265.52115,55,41,0
265.41843,265.52115,58,49,0
265.6239,265.72662,52,44,0
265.6239,265.72662,58,52,0
265.6239,265.72662,55,44,0
265.82938,265.93213,55,45,0
265.82938,265.93213,58,54,0
265.82938,265.93213,52,45,0
266.03485,266.1376,58,56,0
266.03485,266.1376,49,47,0
266.03485,266.1376,55,47,0
266.03485,266.1376,52,47,0
266.24033,266.34308,58,58,0
266.24033,266.34308,49,49,0
266.24033,266.34308,55,49,0
266.24033,266.34308,52,49,0
266.44583,266.54855,55,60,0
266.44583,266.54855,46,51,0
266.44583,266.54855,52,51,0
266.44583,266.54855,49,51,0
266.6513,266.75403,55,62,0
266.6513,266.75403,46,52,0
266.6513,266.75403,52,52,0
266.6513,266.75403,49,52,0
266.85678,266.95917,43,54,0
266.85678,266.95917,46,54,0
266.85678,266.95917,49,54,0
266.85678,266.95917,52,64,0
267.0619,267.165,52,66,0
267.0619,267.165,43,56,0
267.0619,267.165,49,56,0
267.0619,267.165,46,56,0
267.26843,267.37225,49,69,0
267.26843,267.37225,40,58,0
267.26843,267.37225,46,58,0
267.26843,267.37225,43,58,0
267.4764,267.5855,49,74,0
267.4764,267.5855,40,62,0
267.4764,267.5855,46,62,0
267.4764,267.5855,43,62,0
267.6946,267.91278,50,87,0
267.6946,267.91278,41,73,0
267.6946,267.91278,45,73,0
269.0037,269.22186,45,73,0
269.0037,269.22186,41,73,0
269.0037,269.22186,38,73,0
269.0037,269.22186,50,87,0
270.31277,270.52554,60,50,0
270.31277,270.52554,52,42,0
271.5894,271.80756,52,42,0
271.5894,271.80756,59,50,0
272.97934,273.1958,45,36,0
273.1958,273.41226,52,22,0
273.41226,273.6287,57,27,0
273.6287,273.84515,52,22,0
273.84515,274.0515,61,36,0
274.25787,274.4642,44,36,0
274.4642,274.67056,52,26,0
274.67056,274.88043,59,31,0
274.88043,275.09027,52,26,0
275.09027,275.30374,62,35,0
275.51718,275.72562,45,33,0
275.72562,275.93405,52,23,0
275.93405,276.1425,61,26,0
276.1425,276.35092,52,22,0
276.35092,276.5619,57,36,0
276.77286,276.9792,44,36,0
276.9792,277.18555,52,27,0
277.18555,277.3919,56,31,0
277.3919,277.59827,52,26,0
277.59827,277.8162,59,35,0
278.0341,278.24396,45,34,0
278.24396,278.4538,52,27,0
278.4538,278.66364,57,29,0
278.66364,278.8735,52,26,0
278.8735,279.0758,61,36,0
279.2781,279.4804,44,36,0
279.4804,279.6827,52,27,0
279.6827,279.887,59,31,0
279.887,280.09128,52,27,0
280.09128,280.3039,62,35,0
280.5165,280.72092,45,33,0
280.72092,280.92532,52,23,0
280.92532,281.12973,61,27,0
281.12973,281.33417,52,22,0
281.33417,281.5451,57,36,0
281.75607,281.96176,44,38,0
281.96176,282.16745,52,28,0
282.16745,282.37314,56,35,0
282.37314,282.57883,52,28,0
282.57883,282.7925,59,35,0
283.0062,283.2106,44,38,0
283.2106,283.415,53,30,0
283.415,283.61945,56,36,0
283.61945,283.82385,53,31,0
283.82385,284.03824,59,39,0
284.2526,284.46024,45,47,0
284.46024,284.66788,54,33,0
284.66788,284.87552,57,36,0
284.87552,285.08316,54,33,0
285.08316,285.29755,62,41,0
285.51193,285.72763,45,48,0
285.72763,285.94333,57,35,0
285.94333,286.1539,64,40,0
286.1539,286.36447,57,35,0
286.36447,286.5794,64,44,0
286.79437,287.00494,50,39,0
287.00494,287.2155,57,24,0
287.2155,287.42365,62,26,0
287.42365,287.6313,57,22,0
287.6313,287.84775,66,31,0
288.06424,288.27863,42,38,0
288.27863,288.49298,54,30,0
288.49298,288.70193,61,33,0
288.70193,288.91092,54,29,0
288.91092,289.1239,58,38,0
289.33688,289.54785,47,36,0
289.54785,289.7555,54,25,0
289.7555,289.96313,59,28,0
289.96313,290.17078,54,26,0
290.17078,290.3824,62,31,0
290.59402,290.7997,44,36,0
290.7997,291.0054,52,27,0
291.0054,291.2111,62,29,0
291.2111,291.41678,52,27,0
291.41678,291.63046,59,35,0
291.84415,292.04984,45,33,0
292.04984,292.25552,52,28,0
292.25552,292.4612,61,29,0
292.4612,292.6669,52,28,0
292.6669,292.8813,57,36,0
293.09564,293.30527,40,33,0
293.30527,293.5149,52,29,0
293.5149,293.72482,59,29,0
293.72482,293.93634,52,29,0
293.93634,294.14932,56,36,0
294.36383,294.57962,45,33,0
294.57962,294.79538,52,26,0
294.79538,295.01117,61,26,0
295.01117,295.22696,52,26,0
295.22696,295.44272,57,30,0
295.6585,295.87152,45,44,0
295.87152,296.0845,57,36,0
296.0845,296.29346,64,38,0
296.29346,296.5024,57,36,0
296.5024,296.7154,64,44,0
296.9284,297.13736,50,39,0
297.13736,297.3463,57,26,0
297.3463,297.55417,62,26,0
297.55417,297.7618,57,26,0
297.7618,297.9783,66,31,0
298.19476,298.40915,42,40,0
298.40915,298.62354,54,30,0
298.62354,298.8325,61,36,0
298.8325,299.04144,54,29,0
299.04144,299.25446,58,38,0
299.46744,299.67838,47,36,0
299.67838,299.88602,54,26,0
299.88602,300.09366,59,26,0
300.09366,300.3013,54,26,0
300.3013,300.51627,62,31,0
300.7312,300.9369,44,36,0
300.9369,301.14258,52,27,0
301.14258,301.34827,62,28,0
301.34827,301.55396,52,28,0
301.55396,301.76764,59,35,0
301.98132,302.187,45,33,0
302.187,302.3927,52,27,0
302.3927,302.5984,61,29,0
302.5984,302.80408,52,26,0
302.80408,303.01846,57,36,0
303.2327,303.44638,40,33,0
303.44638,303.65994,52,26,0
303.65994,303.87454,59,29,0
303.87454,304.0903,52,27,0
304.0903,304.30728,56,36,0
304.52554,304.7449,45,33,0
304.7449,304.96426,52,23,0
304.96426,305.18362,57,26,0
305.18362,305.40298,52,23,0
305.40298,305.63287,61,23,0
305.86276,307.0366,57,85,0
305.86276,307.0366,45,72,0
305.86276,307.0366,48,72,0
305.86276,307.0366,52,72,0
307.0366,307.10916,56,74,0
307.0366,307.10916,52,62,0
307.23013,307.30515,57,65,0
307.23013,307.30515,53,55,0
307.43015,307.50272,56,71,0
307.43015,307.50272,52,60,0
307.6237,307.69843,57,65,0
307.6237,307.69843,53,55,0
307.82303,307.90988,56,74,0
307.82303,307.90988,52,62,0
308.28635,309.46014,43,72,0
308.28635,309.46014,47,72,0
308.28635,309.46014,50,72,0
308.28635,309.46014,55,85,0
309.46014,309.5327,54,75,0
309.46014,309.5327,50,63,0
309.6537,309.72845,55,65,0
309.6537,309.72845,52,55,0
309.85303,309.92584,54,72,0
309.85303,309.92584,50,61,0
310.0472,310.12195,55,64,0
310.0472,310.12195,52,54,0
310.24655,310.3334,54,74,0
310.24655,310.3334,50,62,0
310.70987,311.589,48,57,0
310.70987,311.589,53,68,0
310.70987,311.589,45,57,0
310.70987,311.589,41,57,0
311.589,311.80878,52,55,0
311.589,311.80878,48,55,0
311.589,311.80878,57,65,0
311.589,311.80878,45,55,0
312.04044,312.2618,53,58,0
312.04044,312.2618,50,58,0
312.04044,312.2618,58,69,0
312.04044,312.2618,46,58,0
312.48322,312.70462,47,56,0
312.48322,312.70462,50,56,0
312.48322,312.70462,59,67,0
312.48322,312.70462,56,56,0
312.92603,313.14743,60,64,0
312.92603,313.14743,57,54,0
312.92603,313.14743,52,54,0
312.92603,313.14743,48,54,0
313.38,313.60556,53,56,0
313.38,313.60556,59,56,0
313.38,313.60556,62,67,0
313.38,313.60556,50,56,0
313.83112,314.061,64,62,0
313.83112,314.061,60,52,0
313.83112,314.061,57,52,0
313.83112,314.061,52,52,0
314.2909,314.52994,56,52,0
314.2909,314.52994,59,52,0
314.2909,314.52994,64,62,0
314.2909,314.52994,52,52,0
314.76898,314.96866,45,59,0
315.57574,315.70886,52,61,0
315.57574,315.70886,40,51,0
315.70886,315.842,42,47,0
315.70886,315.842,54,56,0
315.842,315.9783,44,47,0
315.842,315.9783,56,56,0
315.9783,316.11075,54,59,0
315.9783,316.11075,42,50,0
316.11075,316.24323,44,51,0
316.11075,316.24323,56,61,0
316.24323,316.37567,45,45,0
316.24323,316.37567,57,53,0
316.37567,316.78168,47,56,0
316.37567,316.78168,59,66,0
316.78168,316.91483,40,51,0
316.78168,316.91483,52,61,0
316.91483,317.04794,54,56,0
316.91483,317.04794,42,47,0
317.04794,317.1847,56,56,0
317.04794,317.1847,44,47,0
317.1847,317.31717,42,50,0
317.1847,317.31717,54,59,0
317.31717,317.44962,44,51,0
317.31717,317.44962,56,61,0
317.44962,317.58206,45,45,0
317.44962,317.58206,57,53,0
317.58206,317.98807,47,59,0
317.58206,317.98807,59,70,0
317.98807,318.12122,40,51,0
317.98807,318.12122,52,61,0
318.12122,318.25433,54,56,0
318.12122,318.25433,42,47,0
318.25433,318.3916,56,56,0
318.25433,318.3916,44,47,0
318.3916,318.5236,42,50,0
318.3916,318.5236,54,59,0
318.5236,318.6556,44,51,0
318.5236,318.6556,56,61,0
318.6556,318.78763,45,45,0
318.6556,318.78763,57,53,0
318.78763,319.19278,59,70,0
318.78763,319.19278,47,59,0
319.19278,319.3279,52,68,0
319.19278,319.3279,40,57,0
319.3279,319.46304,42,50,0
319.3279,319.46304,54,59,0
319.46304,319.60394,44,48,0
319.46304,319.60394,56,57,0
319.60394,319.73795,57,67,0
319.60394,319.73795,45,56,0
319.73795,319.87198,47,49,0
319.73795,319.87198,59,58,0
319.87198,320.00598,48,49,0
319.87198,320.00598,60,58,0
320.00598,320.14294,47,56,0
320.00598,320.14294,59,66,0
320.14294,320.2799,48,50,0
320.14294,320.2799,60,59,0
320.2799,320.41687,50,50,0
320.2799,320.41687,62,59,0
320.41687,320.62747,52,59,0
320.41687,320.62747,64,70,0
320.83804,320.973,45,56,0
320.83804,320.973,57,67,0
320.973,321.1079,59,58,0
320.973,321.1079,47,49,0
321.1079,321.24283,48,49,0
321.1079,321.24283,60,58,0
321.24283,321.3798,59,66,0
321.24283,321.3798,47,56,0
321.3798,321.51675,60,59,0
321.3798,321.51675,48,50,0
321.51675,321.65375,62,59,0
321.51675,321.65375,50,50,0
321.65375,321.86392,64,70,0
321.65375,321.86392,52,59,0
322.0741,322.2095,45,67,0
322.0741,322.2095,33,56,0
322.2095,322.34488,35,49,0
322.2095,322.34488,47,58,0
322.34488,322.48026,36,49,0
322.34488,322.48026,48,58,0
322.48026,322.61563,47,66,0
322.48026,322.61563,35,56,0
322.61563,322.751,48,59,0
322.61563,322.751,36,50,0
322.751,322.8864,50,59,0
322.751,322.8864,38,50,0
322.8864,323.1011,52,70,0
322.8864,323.1011,40,59,0
323.31583,323.53055,45,72,0
323.31583,323.53055,33,61,0
324.5895,324.7957,33,49,0
324.5895,324.7957,36,49,0
324.5895,324.7957,40,49,0
324.5895,324.7957,45,58,0
325.00183,325.2147,36,52,0
325.00183,325.2147,33,52,0
325.00183,325.2147,40,52,0
325.00183,325.2147,45,62,0
325.42758,325.6579,36,56,0
325.42758,325.6579,33,56,0
325.42758,325.6579,40,56,0
325.42758,325.6579,45,67,0
325.8882,326.11856,36,57,0
325.8882,326.11856,33,57,0
325.8882,326.11856,40,57,0
325.8882,326.11856,45,68,0
