start_time,end_time,note_value,velocity,instrument_program_number
0.0,0.829876,74,78,0
0.0,0.829876,86,92,0
0.0,0.829876,81,78,0
0.0,0.829876,78,78,0
0.829876,0.9155902,62,66,0
0.829876,0.9155902,57,56,0
1.0013045,1.0870187,62,61,0
1.0013045,1.0870187,57,51,0
1.172733,1.2560662,62,66,0
1.172733,1.2560662,57,56,0
1.3393995,1.4427764,62,60,0
1.3393995,1.4427764,57,51,0
1.5461535,1.9140255,57,62,0
1.9140255,2.0979614,64,63,0
1.9140255,2.0979614,59,53,0
1.5461535,2.0979614,62,73,0
2.2818975,2.3671248,66,66,0
2.2818975,2.3671248,62,56,0
2.2818975,2.3671248,60,56,0
2.452352,2.5375793,66,61,0
2.452352,2.5375793,62,51,0
2.452352,2.5375793,60,51,0
2.6228065,2.7061398,66,66,0
2.6228065,2.7061398,62,56,0
2.6228065,2.7061398,60,56,0
2.789473,2.8935676,66,60,0
2.789473,2.8935676,62,51,0
2.789473,2.8935676,60,51,0
2.997662,3.374783,66,73,0
2.997662,3.374783,60,62,0
3.374783,3.5633435,67,63,0
3.374783,3.5633435,59,53,0
2.997662,3.5633435,62,62,0
3.5633435,3.7412796,64,57,0
3.7412796,3.8560739,67,63,0
3.8560739,3.9706216,66,57,0
3.9706216,4.0851693,64,57,0
4.0851693,4.197782,70,63,0
4.197782,4.310395,69,58,0
4.310395,4.441887,67,58,0
4.441887,4.6182537,69,63,0
4.794621,4.910161,78,56,0
4.910161,5.025701,76,46,0
5.025701,5.141241,74,46,0
5.141241,5.255136,81,57,0
5.255136,5.3690314,79,47,0
5.3690314,5.482927,78,47,0
5.482927,5.5968223,76,58,0
5.5968223,5.7107177,74,50,0
5.7107177,5.8656363,73,50,0
5.8656363,6.6841903,74,78,0
5.8656363,6.6841903,86,92,0
5.8656363,6.6841903,81,78,0
5.8656363,6.6841903,77,78,0
6.6841903,6.7696605,62,66,0
6.6841903,6.7696605,57,56,0
6.85513,6.9406004,62,61,0
6.85513,6.9406004,57,51,0
7.02607,7.109636,62,66,0
7.02607,7.109636,57,56,0
7.193201,7.2965784,62,60,0
7.193201,7.2965784,57,51,0
7.3999553,7.7703834,57,62,0
7.7703834,7.9554543,64,63,0
7.7703834,7.9554543,58,53,0
7.3999553,7.9554543,62,73,0
8.140526,8.226981,66,66,0
8.140526,8.226981,62,56,0
8.140526,8.226981,60,56,0
8.313436,8.399891,66,61,0
8.313436,8.399891,62,51,0
8.313436,8.399891,60,51,0
8.486346,8.570853,66,66,0
8.486346,8.570853,62,56,0
8.486346,8.570853,60,56,0
8.65536,8.758738,66,60,0
8.65536,8.758738,62,51,0
8.65536,8.758738,60,51,0
8.862115,9.23688,66,73,0
8.862115,9.23688,60,62,0
9.23688,9.424264,67,63,0
9.23688,9.424264,58,53,0
8.862115,9.424264,62,62,0
9.611647,9.69983,68,66,0
9.611647,9.69983,62,56,0
9.611647,9.69983,65,56,0
9.788013,9.876197,68,61,0
9.788013,9.876197,62,51,0
9.788013,9.876197,65,51,0
9.96438,10.050588,68,66,0
9.96438,10.050588,62,56,0
9.96438,10.050588,65,56,0
10.136794,10.250002,68,60,0
10.136794,10.250002,62,51,0
10.136794,10.250002,65,51,0
10.36321,10.739149,69,73,0
10.36321,10.739149,65,62,0
10.36321,10.739149,60,62,0
10.739149,10.854026,72,56,0
10.854026,10.968903,70,46,0
10.968903,11.083779,69,46,0
11.083779,11.197351,67,57,0
11.197351,11.310924,65,47,0
11.310924,11.424496,64,47,0
11.424496,11.53654,62,55,0
11.53654,11.648584,60,47,0
11.648584,11.76063,58,47,0
11.76063,11.873624,57,53,0
11.873624,11.986618,58,46,0
11.986618,12.1309185,60,46,0
12.1309185,12.245795,72,56,0
12.245795,12.360671,70,46,0
12.360671,12.475548,69,46,0
12.475548,12.5887985,67,57,0
12.5887985,12.702049,65,47,0
12.702049,12.815299,64,47,0
12.815299,12.9270315,62,55,0
12.9270315,13.038763,60,47,0
13.038763,13.150496,58,47,0
13.150496,13.263809,57,53,0
13.263809,13.377124,58,46,0
13.377124,13.5005045,60,40,0
13.5005045,13.621643,57,45,0
13.621643,13.742782,58,39,0
13.742782,13.86392,60,36,0
13.86392,13.997173,57,47,0
13.985059,14.118312,58,42,0
14.106197,14.227337,60,43,0
14.227337,14.358602,57,50,0
14.346668,14.477933,58,45,0
14.466,14.585332,60,41,0
14.585332,14.715817,57,54,0
14.703956,14.834442,58,47,0
14.822579,14.941203,60,43,0
14.941203,15.069484,57,56,0
15.057821,15.186101,58,50,0
15.174439,15.291058,60,46,0
15.291058,15.417132,57,59,0
15.405671,15.531746,58,52,0
15.520284,15.634897,60,46,0
15.634897,15.758493,57,63,0
15.747257,15.874768,58,55,0
15.859617,16.011131,60,47,0
16.011131,16.73577,61,70,0
16.011131,16.73577,56,54,0
16.011131,16.73577,53,54,0
16.73577,16.825268,65,44,0
16.73577,16.825268,61,37,0
16.73577,16.825268,56,37,0
16.914768,17.004267,65,39,0
16.914768,17.004267,61,33,0
16.914768,17.004267,56,33,0
17.093765,17.183264,65,39,0
17.093765,17.183264,61,33,0
17.093765,17.183264,56,33,0
17.272762,17.366365,65,39,0
17.272762,17.366365,61,33,0
17.272762,17.366365,56,33,0
17.458616,18.17036,68,45,0
17.458616,18.17036,65,38,0
17.458616,18.17036,61,38,0
18.17036,18.25752,73,52,0
18.17036,18.25752,65,44,0
18.17036,18.25752,68,46,0
18.344679,18.431837,73,46,0
18.344679,18.431837,68,39,0
18.344679,18.431837,65,39,0
18.518995,18.606155,73,46,0
18.518995,18.606155,68,39,0
18.518995,18.606155,65,39,0
18.693314,18.787594,73,46,0
18.693314,18.787594,68,39,0
18.693314,18.787594,65,39,0
18.881874,19.587341,73,62,0
18.881874,19.587341,64,52,0
18.881874,19.587341,67,52,0
18.881874,19.587341,69,52,0
19.587341,19.674501,76,66,0
19.587341,19.674501,67,55,0
19.587341,19.674501,73,58,0
19.587341,19.674501,69,55,0
19.76166,19.848818,76,58,0
19.76166,19.848818,67,49,0
19.76166,19.848818,69,49,0
19.76166,19.848818,73,49,0
19.935978,20.023136,76,58,0
19.935978,20.023136,67,50,0
19.935978,20.023136,69,50,0
19.935978,20.023136,73,50,0
20.110294,20.204575,76,59,0
20.110294,20.204575,67,50,0
20.110294,20.204575,69,50,0
20.110294,20.204575,73,50,0
20.298855,21.0106,81,79,0
20.298855,21.0106,76,67,0
20.298855,21.0106,69,67,0
20.298855,21.0106,73,67,0
20.298855,21.0106,79,67,0
21.0106,21.10118,85,90,0
21.0106,21.10118,76,75,0
21.0106,21.10118,81,79,0
21.0106,21.10118,79,75,0
21.19176,21.28234,85,81,0
21.19176,21.28234,76,69,0
21.19176,21.28234,79,69,0
21.19176,21.28234,81,69,0
21.37292,21.465454,85,84,0
21.37292,21.465454,76,72,0
21.37292,21.465454,79,72,0
21.37292,21.465454,81,72,0
21.55799,21.653933,85,87,0
21.55799,21.653933,76,75,0
21.55799,21.653933,79,75,0
21.55799,21.653933,81,75,0
21.753206,22.583082,74,89,0
21.753206,22.583082,86,105,0
21.753206,22.583082,81,89,0
21.753206,22.583082,78,89,0
22.583082,22.668068,62,63,0
22.583082,22.668068,57,54,0
22.753054,22.83804,62,59,0
22.753054,22.83804,57,49,0
22.923025,23.006126,62,63,0
22.923025,23.006126,57,54,0
23.08923,23.192606,62,58,0
23.08923,23.192606,57,49,0
23.295984,23.663855,57,60,0
23.663855,23.847792,64,61,0
23.663855,23.847792,59,51,0
23.295984,23.847792,62,70,0
24.031727,24.14434,57,61,0
24.14434,24.256952,59,55,0
24.256952,24.369566,60,55,0
24.369566,24.478558,62,61,0
24.478558,24.58755,64,56,0
24.58755,24.728294,66,56,0
24.728294,24.902714,58,61,0
24.902714,25.077131,66,52,0
25.077131,25.25155,59,61,0
25.25155,25.450752,67,55,0
25.450752,25.536222,69,63,0
25.450752,25.536222,67,54,0
25.450752,25.536222,64,54,0
25.621693,25.707163,69,59,0
25.621693,25.707163,67,49,0
25.621693,25.707163,64,49,0
25.792633,25.875967,69,63,0
25.792633,25.875967,67,54,0
25.792633,25.875967,64,54,0
25.9593,26.062677,69,58,0
25.9593,26.062677,67,49,0
25.9593,26.062677,64,49,0
26.166054,26.533926,69,70,0
26.166054,26.533926,64,60,0
26.533926,26.717861,71,61,0
26.533926,26.717861,62,51,0
26.166054,26.717861,67,60,0
26.901798,27.01441,62,61,0
27.01441,27.127024,64,55,0
27.127024,27.239635,66,55,0
27.239635,27.348627,67,61,0
27.348627,27.457619,69,56,0
27.457619,27.598366,71,56,0
27.598366,27.773293,63,61,0
27.773293,27.94822,71,52,0
27.94822,28.123146,64,61,0
28.123146,28.298073,72,55,0
28.298073,28.383059,73,63,0
28.298073,28.383059,70,54,0
28.298073,28.383059,67,54,0
28.468044,28.55303,73,59,0
28.468044,28.55303,70,49,0
28.468044,28.55303,67,49,0
28.638016,28.721119,73,63,0
28.638016,28.721119,70,54,0
28.638016,28.721119,67,54,0
28.80422,28.907598,73,58,0
28.80422,28.907598,70,49,0
28.80422,28.907598,67,49,0
29.010975,29.378847,73,70,0
29.010975,29.378847,67,60,0
29.378847,29.562782,74,61,0
29.378847,29.562782,65,51,0
29.010975,29.562782,70,60,0
29.74672,29.859331,65,61,0
29.859331,29.971945,67,55,0
29.971945,30.084557,69,55,0
30.084557,30.194447,71,61,0
30.194447,30.304337,72,56,0
30.304337,30.466938,74,56,0
30.466938,30.640852,75,61,0
30.640852,30.814764,67,50,0
30.814764,30.991236,74,61,0
30.991236,31.167706,65,51,0
31.167706,31.253176,73,53,0
31.167706,31.253176,64,45,0
31.167706,31.253176,67,45,0
31.167706,31.253176,70,45,0
31.338646,31.424116,73,50,0
31.338646,31.424116,64,41,0
31.338646,31.424116,67,41,0
31.338646,31.424116,70,41,0
31.509586,31.592918,73,53,0
31.509586,31.592918,64,45,0
31.509586,31.592918,67,45,0
31.509586,31.592918,70,45,0
31.676252,31.779629,73,49,0
31.676252,31.779629,64,41,0
31.676252,31.779629,67,41,0
31.676252,31.779629,70,41,0
31.883007,32.250877,73,59,0
31.883007,32.250877,67,51,0
31.883007,32.250877,64,51,0
32.250877,32.434814,74,51,0
32.250877,32.434814,65,43,0
31.883007,32.434814,70,51,0
32.61875,32.73136,65,51,0
32.73136,32.843975,67,46,0
32.843975,32.95659,69,46,0
32.95659,33.06648,70,51,0
33.06648,33.17637,72,47,0
33.17637,33.317116,74,47,0
33.317116,33.49505,75,43,0
33.317116,33.49505,79,51,0
33.49505,33.672985,67,44,0
33.672985,33.85092,74,43,0
33.672985,33.85092,77,51,0
33.85092,34.02886,65,46,0
34.02886,34.11313,73,53,0
34.02886,34.11313,64,40,0
34.02886,34.11313,67,40,0
34.02886,34.11313,70,40,0
34.1974,34.281666,73,50,0
34.1974,34.281666,64,37,0
34.1974,34.281666,67,37,0
34.1974,34.281666,70,37,0
34.365936,34.448353,73,53,0
34.365936,34.448353,64,40,0
34.365936,34.448353,67,40,0
34.365936,34.448353,70,40,0
34.530773,34.634148,73,49,0
34.530773,34.634148,64,37,0
34.530773,34.634148,67,37,0
34.530773,34.634148,70,37,0
34.737526,35.105396,73,59,0
34.737526,35.105396,67,51,0
34.737526,35.105396,64,51,0
35.105396,35.289333,74,51,0
35.105396,35.289333,65,43,0
34.737526,35.289333,70,51,0
35.47327,35.585884,65,50,0
35.585884,35.698494,67,51,0
35.698494,35.811108,69,52,0
35.811108,35.92372,70,53,0
35.92372,36.036335,72,54,0
36.036335,36.148758,74,55,0
36.148758,36.260414,75,61,0
36.260414,36.371708,77,52,0
36.371708,36.482643,79,52,0
36.482643,36.593258,77,61,0
36.593258,36.70352,75,53,0
36.70352,36.81338,74,53,0
36.81338,36.922813,73,57,0
36.922813,37.032795,70,47,0
37.032795,37.143337,67,47,0
37.143337,37.254444,64,49,0
37.254444,37.36612,61,47,0
37.36612,37.482876,64,48,0
37.482876,37.59411,65,50,0
37.59411,37.705345,62,45,0
37.705345,37.816578,65,45,0
37.816578,37.927814,62,50,0
37.927814,38.039047,58,45,0
38.039047,38.14969,62,45,0
38.14969,38.259884,65,45,0
38.259884,38.369915,67,47,0
38.369915,38.479805,69,49,0
38.479805,38.589546,70,51,0
38.589546,38.69914,72,53,0
38.69914,38.814213,74,55,0
38.814213,38.922836,75,57,0
38.922836,39.030945,77,59,0
39.030945,39.13905,79,61,0
39.13905,39.247158,77,63,0
39.247158,39.355423,75,58,0
39.355423,39.46392,74,61,0
39.46392,39.572655,73,57,0
39.572655,39.68165,70,55,0
39.68165,39.790882,67,53,0
39.790882,39.900352,64,51,0
39.900352,40.010067,61,47,0
40.010067,40.119946,64,43,0
40.119946,40.228115,67,59,0
40.228115,40.335083,64,43,0
40.335083,40.440792,67,43,0
40.440792,40.546917,64,44,0
40.546917,40.655476,61,45,0
40.655476,40.76989,64,45,0
40.76989,40.878487,68,62,0
40.878487,40.986454,64,46,0
40.986454,41.09393,68,47,0
41.09393,41.201046,64,47,0
41.201046,41.30947,61,48,0
41.30947,41.424816,64,48,0
41.424816,41.53228,69,65,0
41.53228,41.63878,64,49,0
41.63878,41.744324,69,50,0
41.744324,41.85016,64,50,0
41.85016,41.957703,61,51,0
41.957703,42.071102,64,52,0
42.071102,42.177197,69,68,0
42.177197,42.282475,64,52,0
42.282475,42.3869,69,53,0
42.3869,42.49117,64,54,0
42.49117,42.59697,60,54,0
42.59697,42.710632,64,55,0
42.710632,42.81605,74,74,0
42.81605,42.92101,69,59,0
42.92101,43.025497,74,60,0
43.025497,43.130783,69,61,0
43.130783,43.23832,62,62,0
43.23832,43.352085,69,63,0
43.352085,43.461193,80,82,0
43.461193,43.57034,74,67,0
43.57034,43.67975,80,69,0
43.67975,43.789394,74,70,0
43.789394,43.899242,68,72,0
43.899242,44.018948,74,74,0
44.018948,44.891674,69,89,0
44.018948,44.891674,81,105,0
44.018948,44.891674,76,89,0
44.018948,44.891674,73,89,0
44.891674,45.066093,75,63,0
44.891674,45.066093,72,54,0
45.124233,45.298653,75,59,0
45.124233,45.298653,72,49,0
45.356792,45.531208,75,63,0
45.356792,45.531208,72,54,0
45.589348,45.77922,75,58,0
45.589348,45.77922,72,49,0
45.842514,46.280468,76,70,0
45.842514,46.280468,73,60,0
46.280468,46.53257,85,49,0
46.53257,46.717983,49,64,0
46.717983,46.830597,50,66,0
46.830597,46.94321,49,62,0
46.94321,47.05582,47,64,0
47.05582,47.168434,53,65,0
47.168434,47.281048,52,60,0
47.281048,47.421795,50,49,0
47.763092,48.037815,76,56,0
47.763092,48.037815,73,56,0
48.037815,48.13965,76,49,0
48.037815,48.13965,73,49,0
48.13965,48.25374,59,55,0
48.13965,48.310783,74,55,0
48.13965,48.310783,71,55,0
48.25374,48.36783,61,56,0
48.36783,48.48192,62,54,0
48.48192,48.59601,64,57,0
48.59601,48.7101,66,60,0
48.7101,48.82419,68,62,0
48.82419,49.693756,69,80,0
48.82419,49.693756,81,94,0
48.82419,49.693756,76,80,0
48.82419,49.693756,73,80,0
49.693756,50.011063,75,63,0
49.693756,50.011063,72,54,0
50.03991,50.126446,75,59,0
50.03991,50.126446,72,49,0
50.155293,50.4814,75,63,0
50.155293,50.4814,72,54,0
50.51318,50.60852,75,58,0
50.51318,50.60852,72,49,0
50.6403,51.078255,76,70,0
50.6403,51.078255,73,60,0
51.078255,51.332493,85,49,0
51.332493,51.517906,49,64,0
51.517906,51.63052,50,66,0
51.63052,51.743134,49,62,0
51.743134,51.855743,47,64,0
51.855743,51.968357,53,65,0
51.968357,52.08097,52,60,0
52.08097,52.221714,50,49,0
52.56301,52.837738,76,56,0
52.56301,52.837738,73,56,0
52.837738,52.93957,76,49,0
52.837738,52.93957,73,49,0
52.93957,53.05366,59,55,0
52.93957,53.110706,74,55,0
52.93957,53.110706,71,55,0
53.05366,53.16775,61,56,0
53.16775,53.28184,62,54,0
53.28184,53.39593,64,57,0
53.39593,53.51002,66,60,0
53.51002,53.63962,68,62,0
53.63962,53.7557,69,57,0
53.7557,53.87154,71,61,0
53.87154,53.987152,73,62,0
53.987152,54.102535,74,63,0
54.102535,54.21761,76,64,0
54.21761,54.332436,78,65,0
54.332436,54.44704,80,66,0
54.44704,54.56142,81,67,0
54.56142,54.67551,83,68,0
54.67551,54.789345,85,69,0
54.789345,54.90296,86,70,0
54.90296,55.01623,88,71,0
55.01623,55.129093,86,71,0
55.129093,55.24229,85,68,0
55.24229,55.35582,83,65,0
55.35582,55.469646,81,63,0
55.469646,55.583813,80,60,0
55.583813,55.69832,78,58,0
55.69832,55.81312,76,55,0
55.81312,55.928276,74,53,0
55.928276,56.04377,73,50,0
56.04377,56.159576,71,48,0
56.159576,56.27573,69,45,0
56.27573,56.392235,68,43,0
56.392235,56.756977,69,50,0
56.756977,56.852825,61,39,0
57.140366,57.504,71,49,0
57.504,57.59491,64,39,0
57.831825,57.879505,64,40,0
57.879505,58.24248,73,49,0
58.24248,58.336937,69,39,0
58.573086,58.620316,69,40,0
58.620316,58.89588,78,55,0
58.89588,58.987736,75,45,0
58.987736,59.2633,78,53,0
59.2633,59.362442,75,46,0
59.367794,59.735134,76,50,0
59.729416,59.827454,64,39,0
60.07255,60.12157,64,40,0
60.12157,60.48967,74,49,0
60.48967,60.587708,71,39,0
60.832806,60.88183,71,40,0
60.88183,61.244804,73,49,0
61.244804,61.33926,64,39,0
61.57541,61.62264,64,40,0
61.62264,61.898205,71,55,0
61.898205,61.99006,68,45,0
61.99006,62.265625,71,53,0
62.265625,62.364765,68,46,0
62.364765,62.480507,69,50,0
62.480507,62.59625,64,44,0
62.59625,62.711987,69,38,0
62.711987,62.809074,61,39,0
63.100338,63.21608,71,50,0
63.21608,63.331818,68,44,0
63.331818,63.44756,71,38,0
63.44756,63.544964,64,39,0
63.83717,63.95291,73,50,0
63.95291,64.06865,71,44,0
64.06865,64.184395,73,38,0
64.184395,64.27514,69,39,0
64.54737,64.669846,78,55,0
64.669846,64.79231,75,47,0
64.79231,64.91479,78,47,0
64.91479,65.03726,81,55,0
65.03726,65.15974,78,47,0
65.15974,65.2895,75,47,0
65.2895,65.405235,76,50,0
65.405235,65.52098,73,44,0
65.52098,65.63672,76,38,0
65.63672,65.734436,64,39,0
66.027596,66.14334,74,50,0
66.14334,66.25908,73,44,0
66.25908,66.37482,74,38,0
66.37482,66.47254,71,39,0
66.7657,66.88144,73,50,0
66.88144,66.99718,69,44,0
66.99718,67.11292,73,38,0
67.11292,67.21033,64,39,0
67.50253,67.7781,71,55,0
67.7781,67.86996,68,45,0
67.86996,68.14552,71,53,0
68.14552,68.271255,68,46,0
68.271255,68.427505,71,78,0
68.427505,68.583755,62,62,0
68.583755,68.759964,71,62,0
68.759964,69.58028,55,78,0
69.58028,69.697464,62,59,0
69.58028,69.697464,71,59,0
69.697464,70.04903,55,78,0
70.04903,70.1806,62,62,0
70.1806,70.32418,71,75,0
70.32418,70.46776,62,56,0
70.46776,70.634705,71,56,0
70.634705,71.45502,55,74,0
71.45502,71.572205,62,59,0
71.45502,71.572205,71,59,0
71.572205,72.39252,55,74,0
72.39252,72.52467,71,62,0
72.39252,72.52467,62,52,0
72.52467,73.321335,55,74,0
73.321335,73.43514,71,62,0
73.321335,73.43514,62,52,0
73.43514,73.776566,55,74,0
73.776566,73.89038,62,52,0
73.776566,73.89038,71,62,0
73.89038,74.03604,72,79,0
74.03604,74.18171,64,62,0
74.18171,74.36436,72,62,0
74.36436,75.17517,76,81,0
75.17517,75.291,64,59,0
75.291,75.63849,76,74,0
75.291,75.63849,72,62,0
75.63849,75.775475,64,62,0
75.775475,75.92275,72,71,0
75.92275,76.07002,64,56,0
76.07002,76.2486,72,56,0
76.2486,77.06891,76,74,0
77.06891,77.19496,64,59,0
77.19496,78.015274,76,74,0
77.19496,78.015274,72,74,0
78.015274,78.14048,64,62,0
78.14048,78.967255,76,80,0
78.14048,78.967255,72,74,0
78.967255,79.11107,64,53,0
79.11107,79.971725,76,63,0
79.11107,79.971725,74,57,0
79.11107,79.971725,68,57,0
79.971725,80.12173,64,42,0
80.12173,80.52896,76,53,0
80.12173,80.52896,74,44,0
80.12173,80.52896,68,44,0
80.52896,80.66471,64,42,0
80.66471,81.093285,76,48,0
80.66471,81.093285,74,41,0
80.66471,81.093285,68,41,0
81.093285,81.26471,64,39,0
81.26471,81.70806,76,44,0
81.26471,81.70806,74,37,0
81.26471,81.70806,68,37,0
81.70806,81.897934,64,35,0
81.897934,81.985146,76,50,0
81.897934,81.985146,73,42,0
81.897934,81.985146,69,42,0
82.01421,82.13049,64,39,0
82.13049,82.246666,69,41,0
82.246666,82.362274,73,42,0
82.362274,82.47756,76,44,0
82.47756,82.59258,81,45,0
82.59258,82.707344,76,47,0
82.707344,82.82184,69,45,0
82.82184,82.93605,73,49,0
82.93605,83.05121,76,52,0
83.05121,83.16715,81,52,0
83.16715,83.293335,85,47,0
83.293335,83.407295,76,52,0
83.407295,83.521255,78,45,0
83.521255,83.635216,76,45,0
83.635216,83.75115,74,52,0
83.75115,83.867096,78,47,0
83.867096,83.98304,74,47,0
83.98304,84.09898,73,53,0
84.09898,84.21492,76,47,0
84.21492,84.330864,73,47,0
84.330864,84.44681,71,52,0
84.44681,84.56275,74,47,0
84.56275,84.68775,71,47,0
84.68775,84.80403,69,50,0
84.80403,84.92031,64,39,0
84.92031,85.03648,69,41,0
85.03648,85.15209,73,42,0
85.15209,85.26738,76,44,0
85.26738,85.3824,81,45,0
85.3824,85.49716,76,47,0
85.49716,85.61166,69,45,0
85.61166,85.72586,73,49,0
85.72586,85.84103,76,52,0
85.84103,85.95697,81,52,0
85.95697,86.08315,85,47,0
86.08315,86.19711,76,52,0
86.19711,86.31107,78,45,0
86.31107,86.425026,76,45,0
86.425026,86.54097,74,52,0
86.54097,86.65691,76,47,0
86.65691,86.77286,74,47,0
86.77286,86.888794,73,53,0
86.888794,87.00474,74,47,0
87.00474,87.12068,73,47,0
87.12068,87.236626,71,52,0
87.236626,87.35256,73,47,0
87.35256,87.50072,71,47,0
87.50072,87.6265,61,42,0
87.6265,87.75229,64,37,0
87.75229,87.878075,61,37,0
87.878075,88.00386,64,43,0
88.00386,88.12965,69,36,0
88.12965,88.25332,64,37,0
88.27099,88.39717,64,43,0
88.39717,88.52335,68,37,0
88.52335,88.649536,64,38,0
88.649536,88.77572,68,43,0
88.77572,88.9019,71,39,0
88.9019,89.04324,68,39,0
89.04324,89.16824,64,43,0
89.16824,89.29324,69,38,0
89.29324,89.41824,64,38,0
89.41824,89.54324,69,43,0
89.54324,89.66824,73,38,0
89.66824,89.78852,69,38,0
89.8057,89.92765,69,43,0
89.92765,90.04961,72,37,0
90.04961,90.171555,69,37,0
90.171555,90.2935,72,43,0
90.2935,90.41546,75,37,0
90.41546,90.54835,72,37,0
90.54835,90.67219,69,42,0
90.67219,90.79603,73,37,0
90.79603,90.91987,69,37,0
90.91987,91.0437,73,43,0
91.0437,91.16754,76,36,0
91.16754,91.28992,73,37,0
91.3074,91.431244,64,43,0
91.431244,91.555084,71,37,0
91.555084,91.67892,64,38,0
91.67892,91.80276,71,43,0
91.80276,91.9266,74,39,0
91.9266,92.06597,71,39,0
92.06597,92.18981,64,43,0
92.18981,92.31365,69,38,0
92.31365,92.437485,64,38,0
92.437485,92.561325,69,43,0
92.561325,92.685165,73,38,0
92.685165,92.80544,69,38,0
92.822624,92.94238,64,43,0
92.94238,93.06214,68,37,0
93.06214,93.1819,64,37,0
93.1819,93.30167,68,43,0
93.30167,93.421425,71,37,0
93.421425,93.59092,68,37,0
93.59092,93.70652,73,44,0
93.70652,93.82213,76,39,0
93.82213,93.93774,73,39,0
93.93774,94.053345,76,46,0
94.053345,94.16895,81,39,0
94.16895,94.28484,76,40,0
94.3014,94.41734,76,47,0
94.41734,94.53329,80,41,0
94.53329,94.64923,76,42,0
94.64923,94.76517,80,49,0
94.76517,94.88111,83,44,0
94.88111,95.01269,80,45,0
95.01269,95.12897,76,50,0
95.12897,95.24525,81,44,0
95.24525,95.36153,76,45,0
95.36153,95.477806,81,51,0
95.477806,95.594086,85,45,0
95.594086,95.706985,81,46,0
95.723114,95.84288,81,52,0
95.84288,95.96264,84,45,0
95.96264,96.0824,81,46,0
96.0824,96.202156,84,54,0
96.202156,96.32192,87,46,0
96.32192,96.45481,84,47,0
96.45481,96.57676,81,55,0
96.57676,96.698715,84,49,0
96.698715,96.82066,81,49,0
96.82066,96.94261,84,55,0
96.94261,97.06457,87,49,0
97.06457,97.17747,84,49,0
97.193596,97.31555,81,43,0
97.31555,97.4375,84,37,0
97.4375,97.559456,81,37,0
97.559456,97.681404,84,43,0
97.681404,97.80335,87,37,0
97.80335,97.94934,84,37,0
97.94934,98.07018,81,43,0
98.07018,98.19103,84,38,0
98.19103,98.31188,81,38,0
98.31188,98.432724,84,43,0
98.432724,98.55357,87,38,0
98.55357,98.66647,84,38,0
98.6826,98.80236,81,43,0
98.80236,98.92213,84,37,0
98.92213,99.041885,81,37,0
99.041885,99.161644,84,43,0
99.161644,99.2814,89,37,0
99.2814,99.41429,84,37,0
99.41429,99.53662,81,43,0
99.53662,99.65894,84,38,0
99.65894,99.781265,81,38,0
99.781265,99.90359,84,43,0
99.90359,100.02592,89,38,0
100.02592,100.13882,84,38,0
100.154945,100.27727,81,43,0
100.27727,100.3996,84,37,0
100.3996,100.52192,81,36,0
100.52192,100.64424,84,42,0
100.64424,100.76656,89,36,0
100.76656,100.91255,84,36,0
100.91255,101.03639,82,41,0
101.03639,101.16023,86,36,0
101.16023,101.28407,82,36,0
101.28407,101.407906,86,40,0
101.407906,101.531746,89,36,0
101.531746,101.6488,86,35,0
101.66553,101.79014,80,39,0
101.79014,101.91475,83,34,0
101.91475,102.03936,80,34,0
102.03936,102.16397,83,39,0
102.16397,102.28858,88,33,0
102.28858,102.43456,83,33,0
102.43456,102.560745,81,38,0
102.560745,102.68693,85,33,0
102.68693,102.81312,81,33,0
102.81312,102.9393,85,37,0
102.9393,103.06548,88,33,0
103.06548,103.18575,85,33,0
103.202934,103.32952,74,36,0
103.32952,103.4561,81,31,0
103.4561,103.574776,74,31,0
103.58269,103.70927,81,36,0
103.70927,103.835846,86,31,0
103.835846,103.981834,81,30,0
103.981834,104.10841,76,35,0
104.10841,104.235,81,31,0
104.235,104.36158,76,30,0
104.36158,104.48817,81,34,0
104.48817,104.614746,85,30,0
104.614746,104.73259,81,30,0
104.74943,104.87641,76,33,0
104.87641,105.003395,83,28,0
105.003395,105.122444,80,28,0
105.13038,105.25736,76,33,0
105.25736,105.384346,74,28,0
105.384346,105.530334,71,28,0
105.530334,105.63885,67,87,0
105.63885,105.74737,69,55,0
105.74737,105.85589,67,55,0
105.85589,105.96441,64,61,0
105.96441,106.07292,61,55,0
106.07292,106.18669,57,55,0
106.18669,106.294914,55,75,0
106.294914,106.40314,57,48,0
106.40314,106.51137,55,48,0
106.51137,106.61959,57,54,0
106.61959,106.72781,55,50,0
106.72781,106.8483,57,50,0
106.8483,106.95682,65,84,0
106.95682,107.06534,69,55,0
107.06534,107.17385,65,55,0
107.17385,107.28237,60,61,0
107.28237,107.39089,57,55,0
107.39089,107.504654,53,55,0
107.504654,107.61178,57,77,0
107.61178,107.7189,53,48,0
107.7189,107.82603,57,48,0
107.82603,107.93315,53,54,0
107.93315,108.040276,57,50,0
108.040276,108.17229,53,50,0
108.17229,108.28081,67,88,0
108.28081,108.38933,69,55,0
108.38933,108.49784,67,55,0
108.49784,108.60636,64,61,0
108.60636,108.71488,61,55,0
108.71488,108.82864,57,55,0
108.82864,108.936874,55,75,0
108.936874,109.0451,57,48,0
109.0451,109.15332,55,48,0
109.15332,109.26155,57,54,0
109.26155,109.369774,55,50,0
109.369774,109.492096,57,50,0
109.492096,109.60062,65,87,0
109.60062,109.70914,69,55,0
109.70914,109.81765,65,55,0
109.81765,109.92617,60,61,0
109.92617,110.03469,57,55,0
110.03469,110.14845,53,55,0
110.14845,110.25587,57,77,0
110.25587,110.36328,53,48,0
110.36328,110.47069,57,48,0
110.47069,110.5781,53,54,0
110.5781,110.68551,57,50,0
110.68551,110.7996,53,50,0
111.15359,111.42831,76,44,0
111.15359,111.42831,73,44,0
111.42831,111.53014,76,39,0
111.42831,111.53014,73,39,0
111.53014,111.64919,62,44,0
111.53014,111.70871,74,44,0
111.53014,111.70871,71,44,0
111.64919,111.768234,64,44,0
111.768234,111.88728,66,43,0
111.88728,112.00633,68,45,0
112.00633,112.12538,69,48,0
112.12538,112.25308,71,49,0
112.25308,112.37104,73,45,0
112.37104,112.48863,74,48,0
112.48863,112.60372,76,48,0
112.60591,112.72283,78,50,0
112.72283,112.8394,80,52,0
112.8394,112.96135,81,52,0
112.96135,113.07709,83,54,0
113.07709,113.19315,85,56,0
113.19315,113.30887,86,56,0
113.30887,113.4247,88,58,0
113.4247,113.54142,90,60,0
113.54142,113.675156,92,60,0
113.675156,113.79304,93,62,0
113.79304,113.90676,92,62,0
113.90676,114.02116,90,60,0
114.02116,114.13616,88,60,0
114.13616,114.251854,86,58,0
114.251854,114.37406,85,56,0
114.37406,114.487366,83,55,0
114.487366,114.600845,81,54,0
114.600845,114.71484,80,52,0
114.71484,114.82932,78,51,0
114.82932,114.94435,76,50,0
114.94435,115.05935,74,48,0
115.05935,115.173195,73,46,0
115.173195,115.287735,71,45,0
115.287735,115.40296,69,44,0
115.40296,115.51888,68,43,0
115.51888,115.635635,66,41,0
115.635635,115.757195,64,40,0
115.757195,115.87343,62,40,0
115.87343,115.99091,66,39,0
115.99091,116.10969,64,37,0
116.10969,116.22973,62,35,0
116.22973,116.35062,61,33,0
116.35062,116.49097,59,31,0
116.49097,116.59949,67,87,0
116.59949,116.708,69,55,0
116.708,116.81652,67,55,0
116.81652,116.92504,64,61,0
116.92504,117.03356,61,55,0
117.03356,117.14732,57,55,0
117.14732,117.25555,55,75,0
117.25555,117.36378,57,48,0
117.36378,117.472,55,48,0
117.472,117.578835,57,54,0
117.578835,117.68568,55,50,0
117.68568,117.80652,57,50,0
117.80652,117.91504,65,84,0
117.91504,118.02356,69,55,0
118.02356,118.13208,65,55,0
118.13208,118.24059,60,61,0
118.24059,118.34911,57,55,0
118.34911,118.46288,53,55,0
118.46288,118.571106,57,77,0
118.571106,118.67933,53,48,0
118.67933,118.78755,57,48,0
118.78755,118.894104,53,54,0
118.894104,119.00066,57,50,0
119.00066,119.132675,53,50,0
119.132675,119.241196,65,84,0
119.241196,119.34971,67,55,0
119.34971,119.45823,65,55,0
119.45823,119.56675,62,61,0
119.56675,119.67527,59,55,0
119.67527,119.78903,55,55,0
119.78903,119.897255,53,77,0
119.897255,120.005486,55,48,0
120.005486,120.11371,53,48,0
120.11371,120.22193,55,54,0
120.22193,120.330154,53,50,0
120.330154,120.46217,55,50,0
120.46217,120.57069,63,84,0
120.57069,120.67921,67,55,0
120.67921,120.78773,63,55,0
120.78773,120.89625,58,61,0
120.89625,121.00476,55,55,0
121.00476,121.11853,51,55,0
121.11853,121.225655,55,77,0
121.225655,121.33278,51,48,0
121.33278,121.4399,55,48,0
121.4399,121.54703,51,54,0
121.54703,121.65415,55,50,0
121.65415,121.78616,51,50,0
121.78616,121.894684,63,84,0
121.894684,122.0032,65,55,0
122.0032,122.11172,63,55,0
122.11172,122.22024,60,61,0
122.22024,122.32876,57,55,0
122.32876,122.44252,53,55,0
122.44252,122.55104,61,84,0
122.55104,122.65956,65,55,0
122.65956,122.768074,61,55,0
122.768074,122.876595,56,61,0
122.876595,122.985115,53,55,0
122.985115,123.09888,49,55,0
123.09888,123.2074,62,84,0
123.2074,123.31592,64,55,0
123.31592,123.42444,62,55,0
123.42444,123.53295,59,61,0
123.53295,123.64147,56,55,0
123.64147,123.75524,52,55,0
123.75524,123.863754,60,84,0
123.863754,123.972275,64,55,0
123.972275,124.080795,60,55,0
124.080795,124.189316,55,61,0
124.189316,124.29783,52,55,0
124.29783,124.4116,48,55,0
124.4116,124.52012,53,84,0
124.52012,124.62863,57,55,0
124.62863,124.73715,53,55,0
124.73715,124.84567,48,61,0
124.84567,124.95419,45,55,0
124.95419,125.067955,41,55,0
125.067955,125.17618,45,69,0
125.17618,125.28441,41,43,0
125.28441,125.39263,45,43,0
125.39263,125.500854,41,48,0
125.500854,125.609085,45,45,0
125.609085,125.7411,41,45,0
125.7411,125.85009,57,56,0
125.85009,125.959076,53,39,0
125.959076,126.06807,57,39,0
126.06807,126.17706,53,42,0
126.17706,126.28606,57,39,0
126.28606,126.41807,53,38,0
126.41807,126.52804,57,46,0
126.52804,126.63912,53,34,0
126.63912,126.75119,57,33,0
126.75119,126.86428,53,36,0
126.86428,126.97842,57,33,0
126.97842,127.110435,53,32,0
127.46442,127.746544,76,44,0
127.46442,127.746544,73,44,0
127.746544,127.84838,76,39,0
127.746544,127.84838,73,39,0
127.84838,127.96778,62,44,0
127.84838,128.02748,74,44,0
127.84838,128.02748,71,44,0
127.96778,128.08719,64,44,0
128.08719,128.20659,66,43,0
128.20659,128.32599,68,45,0
128.32599,128.44539,69,48,0
128.44539,128.57462,71,49,0
128.57462,128.69357,73,45,0
128.69357,128.81209,74,48,0
128.81209,128.92792,76,48,0
128.93013,129.04765,78,50,0
129.04765,129.16475,80,52,0
129.16475,129.2868,81,52,0
129.2868,129.40366,83,54,0
129.40366,129.52023,85,56,0
129.52023,129.63641,86,56,0
129.63641,129.75235,88,58,0
129.75235,129.86858,90,60,0
129.86858,130.00214,92,60,0
130.00214,130.12003,93,62,0
130.12003,130.23566,92,62,0
130.23566,130.35106,90,60,0
130.35106,130.46649,88,60,0
130.46649,130.58261,86,58,0
130.58261,130.70494,85,56,0
130.70494,130.8187,83,55,0
130.8187,130.93274,81,54,0
130.93274,131.04721,80,52,0
131.04721,131.16212,78,51,0
131.16212,131.27753,76,50,0
131.27753,131.39264,74,48,0
131.39264,131.50687,73,46,0
131.50687,131.62212,71,45,0
131.62212,131.73839,69,44,0
131.73839,131.8557,68,43,0
131.8557,131.97409,66,41,0
131.97409,132.10031,64,40,0
132.10031,132.21764,62,40,0
132.21764,132.336,66,39,0
132.336,132.4554,64,37,0
132.4554,132.57588,62,35,0
132.57588,132.69743,61,33,0
132.69743,132.84363,59,31,0
132.84363,132.96025,57,39,0
132.96025,133.07687,61,34,0
133.07687,133.19348,57,34,0
133.19348,133.3101,61,39,0
133.3101,133.42673,69,34,0
133.42673,133.54335,61,34,0
133.54335,133.65895,57,39,0
133.65895,133.77455,61,34,0
133.77455,133.89017,57,34,0
133.89017,134.00577,61,39,0
134.00577,134.12138,69,34,0
134.12138,134.23857,61,34,0
134.24638,134.36266,61,39,0
134.36266,134.47894,69,34,0
134.47894,134.59521,61,34,0
134.59521,134.71461,69,40,0
134.71461,134.83401,73,35,0
134.83401,134.95343,69,35,0
134.95343,135.06836,61,45,0
135.06836,135.1833,69,39,0
135.1833,135.29825,61,40,0
135.29825,135.41386,69,48,0
135.41386,135.52946,73,43,0
135.52946,135.65408,69,43,0
135.65408,135.77002,64,52,0
135.77002,135.88596,73,46,0
135.88596,136.0019,64,46,0
136.0019,136.12059,73,55,0
136.12059,136.23929,76,47,0
136.23929,136.35799,73,48,0
136.35799,136.47359,64,57,0
136.47359,136.5892,73,49,0
136.5892,136.7048,64,50,0
136.7048,136.8235,73,59,0
136.8235,136.9422,76,51,0
136.9422,137.06088,73,52,0
137.06088,137.1775,69,61,0
137.1775,137.29413,73,53,0
137.29413,137.41074,69,55,0
137.41074,137.52979,73,64,0
137.52979,137.64883,81,57,0
137.64883,137.76045,73,59,0
137.76788,137.8845,73,70,0
137.8845,138.00113,81,61,0
138.00113,138.11774,73,63,0
138.11774,138.23643,81,75,0
138.23643,138.35513,85,66,0
138.35513,138.52904,81,67,0
138.52904,139.35892,74,78,0
138.52904,139.35892,86,92,0
138.52904,139.35892,81,78,0
138.52904,139.35892,78,78,0
139.35892,139.44438,62,66,0
139.35892,139.44438,57,56,0
139.52986,139.61533,62,61,0
139.52986,139.61533,57,51,0
139.7008,139.7839,62,66,0
139.7008,139.7839,57,56,0
139.867,139.97038,62,60,0
139.867,139.97038,57,51,0
140.07376,140.44164,57,62,0
140.44164,140.62556,64,63,0
140.44164,140.62556,59,53,0
140.07376,140.62556,62,73,0
140.8095,140.89473,66,66,0
140.8095,140.89473,62,56,0
140.8095,140.89473,60,56,0
140.97995,141.06519,66,61,0
140.97995,141.06519,62,51,0
140.97995,141.06519,60,51,0
141.1504,141.2342,66,66,0
141.1504,141.2342,62,56,0
141.1504,141.2342,60,56,0
141.31801,141.4221,66,60,0
141.31801,141.4221,62,51,0
141.31801,141.4221,60,51,0
141.5262,141.90332,66,73,0
141.5262,141.90332,60,62,0
141.90332,142.09187,67,63,0
141.90332,142.09187,59,53,0
141.5262,142.09187,62,62,0
142.09187,142.26982,64,57,0
142.26982,142.38461,67,63,0
142.38461,142.49916,66,57,0
142.49916,142.61371,64,57,0
142.61371,142.725,70,63,0
142.725,142.8363,69,58,0
142.8363,142.96779,67,58,0
142.96779,143.14415,69,63,0
143.32053,143.43607,78,56,0
143.43607,143.5516,76,46,0
143.5516,143.66714,74,46,0
143.66714,143.78104,81,57,0
143.78104,143.89493,79,47,0
143.89493,144.00883,78,47,0
144.00883,144.12273,76,58,0
144.12273,144.23662,74,50,0
144.23662,144.39154,73,50,0
144.39154,145.2101,74,78,0
144.39154,145.2101,86,92,0
144.39154,145.2101,81,78,0
144.39154,145.2101,77,78,0
145.2101,145.29556,62,66,0
145.2101,145.29556,57,56,0
145.38103,145.4665,62,61,0
145.38103,145.4665,57,51,0
145.55197,145.6353,62,66,0
145.55197,145.6353,57,56,0
145.71864,145.82202,62,60,0
145.71864,145.82202,57,51,0
145.9254,146.29582,57,62,0
146.29582,146.4809,64,63,0
146.29582,146.4809,58,53,0
145.9254,146.4809,62,73,0
146.66597,146.75134,66,66,0
146.66597,146.75134,62,56,0
146.66597,146.75134,60,56,0
146.83672,146.92209,66,61,0
146.83672,146.92209,62,51,0
146.83672,146.92209,60,51,0
147.00746,147.09163,66,66,0
147.00746,147.09163,62,56,0
147.00746,147.09163,60,56,0
147.17581,147.27917,66,60,0
147.17581,147.27917,62,51,0
147.17581,147.27917,60,51,0
147.38255,147.75732,66,73,0
147.38255,147.75732,60,62,0
147.75732,147.9447,67,63,0
147.75732,147.9447,58,53,0
147.38255,147.9447,62,62,0
148.1321,148.21895,68,66,0
148.1321,148.21895,62,56,0
148.1321,148.21895,65,56,0
148.3058,148.39265,68,61,0
148.3058,148.39265,62,51,0
148.3058,148.39265,65,51,0
148.4795,148.56488,68,66,0
148.4795,148.56488,62,56,0
148.4795,148.56488,65,56,0
148.65025,148.76547,68,60,0
148.65025,148.76547,62,51,0
148.65025,148.76547,65,51,0
148.88068,149.2566,69,73,0
148.88068,149.2566,65,62,0
148.88068,149.2566,60,62,0
149.2566,149.37149,72,56,0
149.37149,149.48637,70,46,0
149.48637,149.60124,69,46,0
149.60124,149.71481,67,57,0
149.71481,149.82838,65,47,0
149.82838,149.94196,64,47,0
149.94196,150.054,62,55,0
150.054,150.16605,60,47,0
150.16605,150.27809,58,47,0
150.27809,150.39108,57,53,0
150.39108,150.50409,58,46,0
150.50409,150.64838,60,46,0
150.64838,150.76326,72,56,0
150.76326,150.87814,70,46,0
150.87814,150.99301,69,46,0
150.99301,151.10626,67,57,0
151.10626,151.21951,65,47,0
151.21951,151.33276,64,47,0
151.33276,151.44449,62,55,0
151.44449,151.55623,60,47,0
151.55623,151.66795,58,47,0
151.66795,151.78128,57,53,0
151.78128,151.89459,58,46,0
151.89459,152.01797,60,40,0
152.01797,152.13911,57,45,0
152.13911,152.26025,58,39,0
152.26025,152.38138,60,36,0
152.38138,152.51463,57,47,0
152.50252,152.63577,58,42,0
152.62366,152.7448,60,43,0
152.7448,152.87607,57,50,0
152.86414,152.99539,58,45,0
152.98346,153.1028,60,41,0
153.1028,153.23244,57,54,0
153.22066,153.3503,58,47,0
153.3385,153.45636,60,43,0
153.45636,153.58339,57,56,0
153.57184,153.69885,58,50,0
153.6873,153.80278,60,46,0
153.80278,153.92764,57,59,0
153.91629,154.04115,58,52,0
154.0298,154.14331,60,46,0
154.14331,154.26689,57,63,0
154.25566,154.3838,58,55,0
154.36803,154.52588,60,47,0
154.52588,155.25052,61,70,0
154.52588,155.25052,56,54,0
154.52588,155.25052,53,54,0
155.25052,155.34001,65,44,0
155.25052,155.34001,61,37,0
155.25052,155.34001,56,37,0
155.4295,155.51901,65,39,0
155.4295,155.51901,61,33,0
155.4295,155.51901,56,33,0
155.6085,155.69801,65,39,0
155.6085,155.69801,61,33,0
155.6085,155.69801,56,33,0
155.7875,155.8811,65,39,0
155.7875,155.8811,61,33,0
155.7875,155.8811,56,33,0
155.97336,156.6851,68,45,0
155.97336,156.6851,65,38,0
155.97336,156.6851,61,38,0
156.6851,156.77226,73,52,0
156.6851,156.77226,65,44,0
156.6851,156.77226,68,46,0
156.85942,156.94658,73,46,0
156.85942,156.94658,68,39,0
156.85942,156.94658,65,39,0
157.03374,157.1209,73,46,0
157.03374,157.1209,68,39,0
157.03374,157.1209,65,39,0
157.20805,157.30234,73,46,0
157.20805,157.30234,68,39,0
157.20805,157.30234,65,39,0
157.39662,158.10208,73,62,0
157.39662,158.10208,64,52,0
157.39662,158.10208,67,52,0
157.39662,158.10208,69,52,0
158.10208,158.18924,76,66,0
158.10208,158.18924,67,55,0
158.10208,158.18924,73,58,0
158.10208,158.18924,69,55,0
158.2764,158.36356,76,58,0
158.2764,158.36356,67,49,0
158.2764,158.36356,69,49,0
158.2764,158.36356,73,49,0
158.45071,158.53789,76,58,0
158.45071,158.53789,67,50,0
158.45071,158.53789,69,50,0
158.45071,158.53789,73,50,0
158.62505,158.71931,76,59,0
158.62505,158.71931,67,50,0
158.62505,158.71931,69,50,0
158.62505,158.71931,73,50,0
158.8136,159.52534,81,79,0
158.8136,159.52534,76,67,0
158.8136,159.52534,69,67,0
158.8136,159.52534,73,67,0
158.8136,159.52534,79,67,0
159.52534,159.61592,85,90,0
159.52534,159.61592,76,75,0
159.52534,159.61592,81,79,0
159.52534,159.61592,79,75,0
159.7065,159.79709,85,81,0
159.7065,159.79709,76,69,0
159.7065,159.79709,79,69,0
159.7065,159.79709,81,69,0
159.88766,159.9802,85,84,0
159.88766,159.9802,76,72,0
159.88766,159.9802,79,72,0
159.88766,159.9802,81,72,0
160.07274,160.16867,85,87,0
160.07274,160.16867,76,75,0
160.07274,160.16867,79,75,0
160.07274,160.16867,81,75,0
160.26794,161.09782,74,89,0
160.26794,161.09782,86,105,0
160.26794,161.09782,81,89,0
160.26794,161.09782,78,89,0
161.09782,161.18282,62,63,0
161.09782,161.18282,57,54,0
161.26779,161.35278,62,59,0
161.26779,161.35278,57,49,0
161.43777,161.52087,62,63,0
161.43777,161.52087,57,54,0
161.60397,161.70735,62,58,0
161.60397,161.70735,57,49,0
161.81073,162.1786,57,60,0
162.1786,162.36253,64,61,0
162.1786,162.36253,59,51,0
161.81073,162.36253,62,70,0
162.54648,162.65909,57,61,0
162.65909,162.7717,59,55,0
162.7717,162.88431,60,55,0
162.88431,162.9933,62,61,0
162.9933,163.1023,64,56,0
163.1023,163.24304,66,56,0
163.24304,163.41745,58,61,0
163.41745,163.59187,66,52,0
163.59187,163.7663,59,61,0
163.7663,163.9655,67,55,0
163.9655,164.05072,69,63,0
163.9655,164.05072,67,54,0
163.9655,164.05072,64,54,0
164.13596,164.22118,69,59,0
164.13596,164.22118,67,49,0
164.13596,164.22118,64,49,0
164.30641,164.38928,69,63,0
164.30641,164.38928,67,54,0
164.30641,164.38928,64,54,0
164.47215,164.57553,69,58,0
164.47215,164.57553,67,49,0
164.47215,164.57553,64,49,0
164.67891,165.04678,69,70,0
164.67891,165.04678,64,60,0
165.04678,165.23071,71,61,0
165.04678,165.23071,62,51,0
164.67891,165.23071,67,60,0
165.41466,165.52594,62,61,0
165.52594,165.63724,64,55,0
165.63724,165.74854,66,55,0
165.74854,165.85753,67,61,0
165.85753,165.96652,69,56,0
165.96652,166.10727,71,56,0
166.10727,166.2822,63,61,0
166.2822,166.45712,71,52,0
166.45712,166.63205,64,61,0
166.63205,166.80698,72,55,0
166.80698,166.89413,73,63,0
166.80698,166.89413,70,54,0
166.80698,166.89413,67,54,0
166.9813,167.06845,73,59,0
166.9813,167.06845,70,49,0
166.9813,167.06845,67,49,0
167.15561,167.24133,73,63,0
167.15561,167.24133,70,54,0
167.15561,167.24133,67,54,0
167.32704,167.43042,73,58,0
167.32704,167.43042,70,49,0
167.32704,167.43042,67,49,0
167.5338,167.90167,73,70,0
167.5338,167.90167,67,60,0
167.90167,168.0856,74,61,0
167.90167,168.0856,65,51,0
167.5338,168.0856,70,60,0
168.26955,168.38216,65,61,0
168.38216,168.49477,67,55,0
168.49477,168.60738,69,55,0
168.60738,168.71727,71,61,0
168.71727,168.82716,72,56,0
168.82716,168.98976,74,56,0
168.98976,169.16367,75,61,0
169.16367,169.33759,67,50,0
169.33759,169.51405,74,61,0
169.51405,169.69052,65,51,0
169.69052,169.77518,73,53,0
169.69052,169.77518,64,45,0
169.69052,169.77518,67,45,0
169.69052,169.77518,70,45,0
169.85983,169.94447,73,50,0
169.85983,169.94447,64,41,0
169.85983,169.94447,67,41,0
169.85983,169.94447,70,41,0
170.02913,170.11223,73,53,0
170.02913,170.11223,64,45,0
170.02913,170.11223,67,45,0
170.02913,170.11223,70,45,0
170.19533,170.2987,73,49,0
170.19533,170.2987,64,41,0
170.19533,170.2987,67,41,0
170.19533,170.2987,70,41,0
170.40208,170.76996,73,59,0
170.40208,170.76996,67,51,0
170.40208,170.76996,64,51,0
170.76996,170.95389,74,51,0
170.76996,170.95389,65,43,0
170.40208,170.95389,70,51,0
171.13783,171.25044,65,51,0
171.25044,171.36305,67,46,0
171.36305,171.47566,69,46,0
171.47566,171.58556,70,51,0
171.58556,171.69545,72,47,0
171.69545,171.8362,74,47,0
171.8362,172.01413,75,43,0
171.8362,172.01413,79,51,0
172.01413,172.19206,67,44,0
172.19206,172.37,74,43,0
172.19206,172.37,77,51,0
172.37,172.54794,65,46,0
172.54794,172.63245,73,53,0
172.54794,172.63245,64,40,0
172.54794,172.63245,67,40,0
172.54794,172.63245,70,40,0
172.71695,172.80145,73,50,0
172.71695,172.80145,64,37,0
172.71695,172.80145,67,37,0
172.71695,172.80145,70,37,0
172.88597,172.96793,73,53,0
172.88597,172.96793,64,40,0
172.88597,172.96793,67,40,0
172.88597,172.96793,70,40,0
173.0499,173.15327,73,49,0
173.0499,173.15327,64,37,0
173.0499,173.15327,67,37,0
173.0499,173.15327,70,37,0
173.25665,173.62453,73,59,0
173.25665,173.62453,67,51,0
173.25665,173.62453,64,51,0
173.62453,173.80846,74,51,0
173.62453,173.80846,65,43,0
173.25665,173.80846,70,51,0
173.9924,174.10501,65,52,0
174.10501,174.21762,67,52,0
174.21762,174.33023,69,53,0
174.33023,174.44284,70,54,0
174.44284,174.55547,72,55,0
174.55547,174.6679,74,55,0
174.6679,174.77954,75,61,0
174.77954,174.89084,77,52,0
174.89084,175.00177,79,52,0
175.00177,175.11238,77,61,0
175.11238,175.22264,75,53,0
175.22264,175.3325,74,53,0
175.3325,175.44194,73,57,0
175.44194,175.55193,70,47,0
175.55193,175.66246,67,47,0
175.66246,175.77357,64,49,0
175.77357,175.88525,61,47,0
175.88525,176.002,64,48,0
176.002,176.11324,65,50,0
176.11324,176.22447,62,45,0
176.22447,176.33571,65,45,0
176.33571,176.44695,62,50,0
176.44695,176.55818,58,45,0
176.55818,176.66882,62,45,0
176.66882,176.779,65,45,0
176.779,176.88904,67,47,0
176.88904,176.99893,69,49,0
176.99893,177.10867,70,51,0
177.10867,177.21826,72,53,0
177.21826,177.33334,74,55,0
177.33334,177.44196,75,57,0
177.44196,177.55006,77,59,0
177.55006,177.65817,79,61,0
177.65817,177.76628,77,63,0
177.76628,177.87454,75,58,0
177.87454,177.98305,74,61,0
177.98305,178.09178,73,57,0
178.09178,178.20078,70,55,0
178.20078,178.31001,67,53,0
178.31001,178.41948,64,51,0
178.41948,178.52919,61,47,0
178.52919,178.63907,64,43,0
178.63907,178.74663,67,59,0
178.74663,178.85242,64,43,0
178.85242,178.95657,67,43,0
178.95657,179.0627,64,44,0
179.0627,179.17126,61,45,0
179.17126,179.28568,64,45,0
179.28568,179.39333,68,62,0
179.39333,179.49992,64,46,0
179.49992,179.60551,68,47,0
179.60551,179.71255,64,47,0
179.71255,179.82098,61,48,0
179.82098,179.93633,64,48,0
179.93633,180.0438,69,65,0
180.0438,180.15028,64,49,0
180.15028,180.25583,69,50,0
180.25583,180.36166,64,50,0
180.36166,180.46922,61,51,0
180.46922,180.58261,64,52,0
180.58261,180.6887,69,68,0
180.6887,180.79399,64,52,0
180.79399,180.89842,69,53,0
180.89842,181.00269,64,54,0
181.00269,181.10849,60,54,0
181.10849,181.22258,64,55,0
181.22258,181.3294,74,74,0
181.3294,181.43355,69,59,0
181.43355,181.53703,74,60,0
181.53703,181.64116,69,61,0
181.64116,181.74799,62,62,0
181.74799,181.86378,69,63,0
181.86378,181.9729,80,82,0
181.9729,182.08205,74,67,0
182.08205,182.19145,80,69,0
182.19145,182.3011,74,70,0
182.3011,182.41095,68,72,0
182.41095,182.53065,74,74,0
182.53065,183.40338,69,89,0
182.53065,183.40338,81,105,0
182.53065,183.40338,76,89,0
182.53065,183.40338,73,89,0
183.40338,183.5778,75,63,0
183.40338,183.5778,72,54,0
183.63594,183.81035,75,59,0
183.63594,183.81035,72,49,0
183.8685,184.04291,75,63,0
183.8685,184.04291,72,54,0
184.10106,184.29092,75,58,0
184.10106,184.29092,72,49,0
184.35422,184.79218,76,70,0
184.35422,184.79218,73,60,0
184.79218,185.04428,85,49,0
185.04428,185.22969,49,64,0
185.22969,185.3423,50,66,0
185.3423,185.45491,49,62,0
185.45491,185.56752,47,64,0
185.56752,185.6779,53,65,0
185.6779,185.78828,52,60,0
185.78828,185.92902,50,49,0
186.27032,186.54504,76,56,0
186.27032,186.54504,73,56,0
186.54504,186.64688,76,49,0
186.54504,186.64688,73,49,0
186.64688,186.76097,59,55,0
186.64688,186.81801,74,55,0
186.64688,186.81801,71,55,0
186.76097,186.87506,61,56,0
186.87506,186.98915,62,54,0
186.98915,187.10324,64,57,0
187.10324,187.21733,66,60,0
187.21733,187.33142,68,62,0
187.33142,188.20099,69,80,0
187.33142,188.20099,81,94,0
187.33142,188.20099,76,80,0
187.33142,188.20099,73,80,0
188.20099,188.5183,75,63,0
188.20099,188.5183,72,54,0
188.54713,188.63368,75,59,0
188.54713,188.63368,72,49,0
188.66252,188.98863,75,63,0
188.66252,188.98863,72,54,0
189.02042,189.11575,75,58,0
189.02042,189.11575,72,49,0
189.14752,189.58548,76,70,0
189.14752,189.58548,73,60,0
189.58548,189.83972,85,49,0
189.83972,190.02513,49,64,0
190.02513,190.13774,50,66,0
190.13774,190.25037,49,62,0
190.25037,190.36298,47,64,0
190.36298,190.47397,53,65,0
190.47397,190.58495,52,60,0
190.58495,190.7257,50,49,0
191.06699,191.34172,76,56,0
191.06699,191.34172,73,56,0
191.34172,191.44356,76,49,0
191.34172,191.44356,73,49,0
191.44356,191.55765,59,55,0
191.44356,191.61469,74,55,0
191.44356,191.61469,71,55,0
191.55765,191.67174,61,56,0
191.67174,191.78583,62,54,0
191.78583,191.89992,64,57,0
191.89992,192.014,66,60,0
192.014,192.1436,68,62,0
192.1436,192.25967,69,57,0
192.25967,192.37552,71,61,0
192.37552,192.49113,73,62,0
192.49113,192.6065,74,63,0
192.6065,192.72159,76,64,0
192.72159,192.83641,78,65,0
192.83641,192.95102,80,66,0
192.95102,193.0654,81,67,0
193.0654,193.17949,83,68,0
193.17949,193.29332,85,69,0
193.29332,193.40694,86,70,0
193.40694,193.52022,88,71,0
193.52022,193.63307,86,71,0
193.63307,193.74628,85,68,0
193.74628,193.8598,83,65,0
193.8598,193.97363,81,63,0
193.97363,194.0878,80,60,0
194.0878,194.2023,78,58,0
194.2023,194.31711,76,55,0
194.31711,194.43225,74,53,0
194.43225,194.54774,73,50,0
194.54774,194.66356,71,48,0
194.66356,194.77971,69,45,0
194.77971,194.89621,68,43,0
194.89621,195.26096,69,50,0
195.26096,195.3568,61,39,0
195.64435,196.00798,71,49,0
196.00798,196.09889,64,39,0
196.3358,196.38348,64,40,0
196.38348,196.74646,73,49,0
196.74646,196.84091,69,39,0
197.07706,197.1243,69,40,0
197.1243,197.39104,78,55,0
197.39104,197.47995,75,45,0
197.47995,197.75569,78,53,0
197.75569,197.85483,75,46,0
197.86018,198.22752,76,50,0
198.2218,198.31984,64,39,0
198.56494,198.61395,64,40,0
198.61395,198.98206,74,49,0
198.98206,199.0801,71,39,0
199.3252,199.3742,71,40,0
199.3742,199.73718,73,49,0
199.73718,199.83165,64,39,0
200.0678,200.11502,64,40,0
200.11502,200.38417,71,55,0
200.38417,200.47388,68,45,0
200.47388,200.74792,71,53,0
200.74792,200.84708,68,46,0
200.84708,200.96281,69,50,0
200.96281,201.07855,64,44,0
201.07855,201.19429,69,38,0
201.19429,201.29138,61,39,0
201.58264,201.69838,71,50,0
201.69838,201.81413,68,44,0
201.81413,201.92987,71,38,0
201.92987,202.02727,64,39,0
202.31947,202.43521,73,50,0
202.43521,202.55096,71,44,0
202.55096,202.6667,73,38,0
202.6667,202.75745,69,39,0
203.02968,203.15215,78,55,0
203.15215,203.27463,75,47,0
203.27463,203.3971,78,47,0
203.3971,203.51744,81,55,0
203.51744,203.63777,78,47,0
203.63777,203.767,75,47,0
203.767,203.88274,76,50,0
203.88274,203.99847,73,44,0
203.99847,204.11421,76,38,0
204.11421,204.21194,64,39,0
204.5051,204.62083,74,50,0
204.62083,204.73657,73,44,0
204.73657,204.85233,74,38,0
204.85233,204.95004,71,39,0
205.2432,205.35893,73,50,0
205.35893,205.47469,69,44,0
205.47469,205.59042,73,38,0
205.59042,205.68782,64,39,0
205.98003,206.2556,71,55,0
206.2556,206.34746,68,45,0
206.34746,206.62302,71,53,0
206.62302,206.74875,68,46,0
206.74875,206.905,71,78,0
206.905,207.06125,62,62,0
207.06125,207.23746,71,62,0
207.23746,208.05777,55,78,0
208.05777,208.17496,62,59,0
208.05777,208.17496,71,59,0
208.17496,208.52652,55,78,0
208.52652,208.65811,62,62,0
208.65811,208.80168,71,75,0
208.80168,208.94525,62,56,0
208.94525,209.1122,71,56,0
209.1122,209.93251,55,74,0
209.93251,210.0497,62,59,0
209.93251,210.0497,71,59,0
210.0497,210.87001,55,74,0
210.87001,211.00217,71,62,0
210.87001,211.00217,62,52,0
211.00217,211.79883,55,74,0
211.79883,211.91264,71,62,0
211.79883,211.91264,62,52,0
211.91264,212.25407,55,74,0
212.25407,212.36787,62,52,0
212.25407,212.36787,71,62,0
212.36787,212.51353,72,79,0
212.51353,212.65921,64,62,0
212.65921,212.84186,72,62,0
212.84186,213.65266,76,81,0
213.65266,213.7685,64,59,0
213.7685,214.11598,76,74,0
213.7685,214.11598,72,62,0
214.11598,214.25298,64,62,0
214.25298,214.40025,72,71,0
214.40025,214.54752,64,56,0
214.54752,214.72609,72,56,0
214.72609,215.5464,76,74,0
215.5464,215.67245,64,59,0
215.67245,216.49277,76,74,0
215.67245,216.49277,72,74,0
216.49277,216.61798,64,62,0
216.61798,217.44475,76,80,0
216.61798,217.44475,72,74,0
217.44475,217.58856,64,53,0
217.58856,218.44922,76,63,0
217.58856,218.44922,74,57,0
217.58856,218.44922,68,57,0
218.44922,218.59923,64,42,0
218.59923,219.0132,76,53,0
218.59923,219.0132,74,44,0
218.59923,219.0132,68,44,0
219.0132,219.1512,64,42,0
219.1512,219.58725,76,48,0
219.1512,219.58725,74,41,0
219.1512,219.58725,68,41,0
219.58725,219.75868,64,39,0
219.75868,220.21927,76,44,0
219.75868,220.21927,74,37,0
219.75868,220.21927,68,37,0
220.21927,220.40915,64,35,0
220.40915,220.49635,76,50,0
220.40915,220.49635,73,42,0
220.40915,220.49635,69,42,0
220.52542,220.6417,64,39,0
220.6417,220.75787,69,41,0
220.75787,220.87347,73,42,0
220.87347,220.98877,76,44,0
220.98877,221.10379,81,45,0
221.10379,221.21855,76,47,0
221.21855,221.33305,69,45,0
221.33305,221.44725,73,49,0
221.44725,221.56242,76,52,0
221.56242,221.67836,81,52,0
221.67836,221.80453,85,47,0
221.80453,221.9185,76,52,0
221.9185,222.03246,78,45,0
222.03246,222.14642,76,45,0
222.14642,222.26236,74,52,0
222.26236,222.37831,78,47,0
222.37831,222.49425,74,47,0
222.49425,222.61018,73,53,0
222.61018,222.72614,76,47,0
222.72614,222.84207,73,47,0
222.84207,222.95802,71,52,0
222.95802,223.07396,74,47,0
223.07396,223.19896,71,47,0
223.19896,223.31523,69,50,0
223.31523,223.43152,64,39,0
223.43152,223.54768,69,41,0
223.54768,223.6633,73,42,0
223.6633,223.77858,76,44,0
223.77858,223.89362,81,45,0
223.89362,224.00836,76,47,0
224.00836,224.12286,69,45,0
224.12286,224.23708,73,49,0
224.23708,224.35223,76,52,0
224.35223,224.46817,81,52,0
224.46817,224.59436,85,47,0
224.59436,224.70691,76,52,0
224.70691,224.81946,78,45,0
224.81946,224.932,76,45,0
224.932,225.04794,74,52,0
225.04794,225.1639,76,47,0
225.1639,225.27983,74,47,0
225.27983,225.39577,73,53,0
225.39577,225.51172,74,47,0
225.51172,225.62766,73,47,0
225.62766,225.7436,71,52,0
225.7436,225.85954,73,47,0
225.85954,226.00769,71,47,0
226.00769,226.13348,61,42,0
226.13348,226.25926,64,37,0
226.25926,226.38506,61,37,0
226.38506,226.51083,64,43,0
226.51083,226.63663,69,36,0
226.63663,226.7603,64,37,0
226.77797,226.90414,64,43,0
226.90414,227.03033,68,37,0
227.03033,227.15651,64,38,0
227.15651,227.2827,68,43,0
227.2827,227.40887,71,39,0
227.40887,227.55022,68,39,0
227.55022,227.67522,64,43,0
227.67522,227.80022,69,38,0
227.80022,227.92522,64,38,0
227.92522,228.05022,69,43,0
228.05022,228.17522,73,38,0
228.17522,228.2955,69,38,0
228.31268,228.43463,69,43,0
228.43463,228.55658,72,37,0
228.55658,228.67853,69,37,0
228.67853,228.79779,72,43,0
228.79779,228.91705,75,37,0
228.91705,229.04994,72,37,0
229.04994,229.17378,69,42,0
229.17378,229.29762,73,37,0
229.29762,229.42146,69,37,0
229.42146,229.5453,73,43,0
229.5453,229.66914,76,36,0
229.66914,229.79152,73,37,0
229.809,229.93283,64,43,0
229.93283,230.05667,71,37,0
230.05667,230.18051,64,38,0
230.18051,230.30435,71,43,0
230.30435,230.42819,74,39,0
230.42819,230.56757,71,39,0
230.56757,230.6914,64,43,0
230.6914,230.81525,69,38,0
230.81525,230.93909,64,38,0
230.93909,231.06293,69,43,0
231.06293,231.18677,73,38,0
231.18677,231.30704,69,38,0
231.32422,231.44398,64,43,0
231.44398,231.56374,68,37,0
231.56374,231.6835,64,37,0
231.6835,231.80032,68,43,0
231.80032,231.91714,71,37,0
231.91714,232.08664,68,37,0
232.08664,232.20111,73,44,0
232.20111,232.3156,76,39,0
232.3156,232.43008,73,39,0
232.43008,232.54457,76,46,0
232.54457,232.65904,81,39,0
232.65904,232.77493,76,40,0
232.79149,232.90598,76,47,0
232.90598,233.02046,80,41,0
233.02046,233.13495,76,42,0
233.13495,233.24942,80,49,0
233.24942,233.3639,83,44,0
233.3639,233.49548,80,45,0
233.49548,233.61177,76,50,0
233.61177,233.72804,81,44,0
233.72804,233.84431,76,45,0
233.84431,233.9606,81,51,0
233.9606,234.07687,85,45,0
234.07687,234.18979,81,46,0
234.20592,234.32567,81,52,0
234.32567,234.44543,84,45,0
234.44543,234.56519,81,46,0
234.56519,234.68495,84,54,0
234.68495,234.80472,87,46,0
234.80472,234.9376,84,47,0
234.9376,235.05956,81,55,0
235.05956,235.1815,84,49,0
235.1815,235.30345,81,49,0
235.30345,235.42542,84,55,0
235.42542,235.54736,87,49,0
235.54736,235.66026,84,49,0
235.67639,235.79834,81,43,0
235.79834,235.92029,84,37,0
235.92029,236.04225,81,37,0
236.04225,236.1642,84,43,0
236.1642,236.28615,87,37,0
236.28615,236.43213,84,37,0
236.43213,236.55298,81,43,0
236.55298,236.67383,84,38,0
236.67383,236.79468,81,38,0
236.79468,236.91551,84,43,0
236.91551,237.03636,87,38,0
237.03636,237.14926,84,38,0
237.16539,237.28516,81,43,0
237.28516,237.40492,84,37,0
237.40492,237.52467,81,37,0
237.52467,237.64444,84,43,0
237.64444,237.7642,89,37,0
237.7642,237.8971,84,37,0
237.8971,238.01941,81,43,0
238.01941,238.14174,84,38,0
238.14174,238.26407,81,38,0
238.26407,238.38638,84,43,0
238.38638,238.50871,89,38,0
238.50871,238.62161,84,38,0
238.63774,238.76007,81,43,0
238.76007,238.88239,84,37,0
238.88239,239.00471,81,36,0
239.00471,239.12704,84,42,0
239.12704,239.24936,89,36,0
239.24936,239.39534,84,36,0
239.39534,239.51918,82,41,0
239.51918,239.64302,86,36,0
239.64302,239.76686,82,36,0
239.76686,239.8907,86,40,0
239.8907,240.01454,89,36,0
240.01454,240.13159,86,35,0
240.14832,240.27293,80,39,0
240.27293,240.39754,83,34,0
240.39754,240.52216,80,34,0
240.52216,240.64676,83,39,0
240.64676,240.77138,88,33,0
240.77138,240.91736,83,33,0
240.91736,241.04355,81,38,0
241.04355,241.16972,85,33,0
241.16972,241.29591,81,33,0
241.29591,241.42209,85,37,0
241.42209,241.54828,88,33,0
241.54828,241.66855,85,33,0
241.68573,241.81232,74,36,0
241.81232,241.9389,81,31,0
241.9389,242.05757,74,31,0
242.06548,242.19206,81,36,0
242.19206,242.31865,86,31,0
242.31865,242.46463,81,30,0
242.46463,242.59122,76,35,0
242.59122,242.71779,81,31,0
242.71779,242.84438,76,30,0
242.84438,242.97096,81,34,0
242.97096,243.09753,85,30,0
243.09753,243.2154,81,30,0
243.23222,243.36067,76,33,0
243.36067,243.48912,83,28,0
243.48912,243.60954,80,28,0
243.61758,243.74603,76,33,0
243.74603,243.87448,74,28,0
243.87448,244.02046,71,28,0
244.02046,244.12898,67,87,0
244.12898,244.2375,69,55,0
244.2375,244.34602,67,55,0
244.34602,244.45454,64,61,0
244.45454,244.56306,61,55,0
244.56306,244.67682,57,55,0
244.67682,244.78505,55,75,0
244.78505,244.89328,57,48,0
244.89328,245.0015,55,48,0
245.0015,245.10777,57,54,0
245.10777,245.21404,55,50,0
245.21404,245.33452,57,50,0
245.33452,245.44304,65,84,0
245.44304,245.55156,69,55,0
245.55156,245.66008,65,55,0
245.66008,245.7686,60,61,0
245.7686,245.87712,57,55,0
245.87712,245.99088,53,55,0
245.99088,246.0991,57,77,0
246.0991,246.20734,53,48,0
246.20734,246.31555,57,48,0
246.31555,246.4224,53,54,0
246.4224,246.52924,57,50,0
246.52924,246.66124,53,50,0
246.66124,246.76976,67,88,0
246.76976,246.87828,69,55,0
246.87828,246.9868,67,55,0
246.9868,247.09532,64,61,0
247.09532,247.20384,61,55,0
247.20384,247.3176,57,55,0
247.3176,247.42583,55,75,0
247.42583,247.53406,57,48,0
247.53406,247.64227,55,48,0
247.64227,247.74911,57,54,0
247.74911,247.85596,55,50,0
247.85596,247.97827,57,50,0
247.97827,248.08679,65,87,0
248.08679,248.19531,69,55,0
248.19531,248.30383,65,55,0
248.30383,248.41235,60,61,0
248.41235,248.52087,57,55,0
248.52087,248.63464,53,55,0
248.63464,248.74286,57,77,0
248.74286,248.85109,53,48,0
248.85109,248.95764,57,48,0
248.95764,249.0642,53,54,0
249.0642,249.17075,57,50,0
249.17075,249.28484,53,50,0
249.63882,249.91354,76,44,0
249.63882,249.91354,73,44,0
249.91354,250.01538,76,39,0
249.91354,250.01538,73,39,0
250.01538,250.13443,62,44,0
250.01538,250.19395,74,44,0
250.01538,250.19395,71,44,0
250.13443,250.25346,64,44,0
250.25346,250.37251,66,43,0
250.37251,250.49156,68,45,0
250.49156,250.61061,69,48,0
250.61061,250.73833,71,49,0
250.73833,250.85628,73,45,0
250.85628,250.97388,74,48,0
250.97388,251.08823,76,48,0
251.09114,251.20807,78,50,0
251.20807,251.32463,80,52,0
251.32463,251.44658,81,52,0
251.44658,251.56232,83,54,0
251.56232,251.67839,85,56,0
251.67839,251.7941,86,56,0
251.7941,251.90993,88,58,0
251.90993,252.02666,90,60,0
252.02666,252.16039,92,60,0
252.16039,252.27827,93,62,0
252.27827,252.392,92,62,0
252.392,252.5064,90,60,0
252.5064,252.6214,88,60,0
252.6214,252.73709,86,58,0
252.73709,252.8593,85,56,0
252.8593,252.9726,83,55,0
252.9726,253.08607,81,54,0
253.08607,253.20007,80,52,0
253.20007,253.31456,78,51,0
253.31456,253.4296,76,50,0
253.4296,253.54459,74,48,0
253.54459,253.6589,73,46,0
253.6589,253.77402,71,45,0
253.77402,253.88995,69,44,0
253.88995,254.00671,68,43,0
254.00671,254.12431,66,41,0
254.12431,254.24594,64,40,0
254.24594,254.36218,62,40,0
254.36218,254.47968,66,39,0
254.47968,254.59843,64,37,0
254.59843,254.71848,62,35,0
254.71848,254.83937,61,33,0
254.83937,254.97972,59,31,0
254.97972,255.08824,67,87,0
255.08824,255.19676,69,55,0
255.19676,255.30528,67,55,0
255.30528,255.41379,64,61,0
255.41379,255.52231,61,55,0
255.52231,255.63608,57,55,0
255.63608,255.74431,55,75,0
255.74431,255.85252,57,48,0
255.85252,255.96075,55,48,0
255.96075,256.06897,57,54,0
256.06897,256.17722,55,50,0
256.17722,256.29807,57,50,0
256.29807,256.40656,65,84,0
256.40656,256.51508,69,55,0
256.51508,256.6236,65,55,0
256.6236,256.73212,60,61,0
256.73212,256.84064,57,55,0
256.84064,256.9544,53,55,0
256.9544,257.06262,57,77,0
257.06262,257.17087,53,48,0
257.17087,257.27908,57,48,0
257.27908,257.3873,53,54,0
257.3873,257.49554,57,50,0
257.49554,257.62753,53,50,0
257.62753,257.73605,65,84,0
257.73605,257.84457,67,55,0
257.84457,257.9531,65,55,0
257.9531,258.0616,62,61,0
258.0616,258.17014,59,55,0
258.17014,258.2839,55,55,0
258.2839,258.39212,53,77,0
258.39212,258.50037,55,48,0
258.50037,258.60858,53,48,0
258.60858,258.7168,55,54,0
258.7168,258.82504,53,50,0
258.82504,258.95703,55,50,0
258.95703,259.06555,63,84,0
259.06555,259.17407,67,55,0
259.17407,259.2826,63,55,0
259.2826,259.3911,58,61,0
259.3911,259.49963,55,55,0
259.49963,259.6134,51,55,0
259.6134,259.72162,55,77,0
259.72162,259.82986,51,48,0
259.82986,259.93808,55,48,0
259.93808,260.0463,51,54,0
260.0463,260.15454,55,50,0
260.15454,260.28653,51,50,0
260.28653,260.39505,63,84,0
260.39505,260.50357,65,55,0
260.50357,260.6121,63,55,0
260.6121,260.7206,60,61,0
260.7206,260.82913,57,55,0
260.82913,260.9429,53,55,0
260.9429,261.05142,61,84,0
261.05142,261.15994,65,55,0
261.15994,261.26846,61,55,0
261.26846,261.37698,56,61,0
261.37698,261.4855,53,55,0
261.4855,261.59927,49,55,0
261.59927,261.7064,62,84,0
261.7064,261.8135,64,55,0
261.8135,261.92062,62,55,0
261.92062,262.02774,59,61,0
262.02774,262.1349,56,55,0
262.1349,262.24866,52,55,0
262.24866,262.35718,60,84,0
262.35718,262.46567,64,55,0
262.46567,262.5742,60,55,0
262.5742,262.6827,55,61,0
262.6827,262.79123,52,55,0
262.79123,262.905,48,55,0
262.905,263.01212,53,84,0
263.01212,263.11926,57,55,0
263.11926,263.22638,53,55,0
263.22638,263.3335,48,61,0
263.3335,263.4406,45,55,0
263.4406,263.55438,41,55,0
263.55438,263.6626,45,69,0
263.6626,263.77084,41,43,0
263.77084,263.87906,45,43,0
263.87906,263.98727,41,48,0
263.98727,264.09552,45,45,0
264.09552,264.22754,41,45,0
264.22754,264.33652,57,56,0
264.33652,264.4455,53,39,0
264.4455,264.5545,57,39,0
264.5545,264.66348,53,42,0
264.66348,264.7725,57,39,0
264.7725,264.9045,53,38,0
264.9045,265.01447,57,46,0
265.01447,265.12555,53,34,0
265.12555,265.2376,57,33,0
265.2376,265.3507,53,36,0
265.3507,265.46484,57,33,0
265.46484,265.59686,53,32,0
265.95084,266.23297,76,44,0
265.95084,266.23297,73,44,0
266.23297,266.3348,76,39,0
266.23297,266.3348,73,39,0
266.3348,266.45422,62,44,0
266.3348,266.51392,74,44,0
266.3348,266.51392,71,44,0
266.45422,266.5736,64,44,0
266.5736,266.69302,66,43,0
266.69302,266.8124,68,45,0
266.8124,266.93182,69,48,0
266.93182,267.06104,71,49,0
267.06104,267.18,73,45,0
267.18,267.29852,74,48,0
267.29852,267.4136,76,48,0
267.41656,267.5341,78,50,0
267.5341,267.65118,80,52,0
267.65118,267.77322,81,52,0
267.77322,267.8901,83,54,0
267.8901,268.00665,85,56,0
268.00665,268.12283,86,56,0
268.12283,268.23877,88,58,0
268.23877,268.355,90,60,0
268.355,268.48856,92,60,0
268.48856,268.6064,93,62,0
268.6064,268.72156,92,62,0
268.72156,268.836,90,60,0
268.836,268.9514,88,60,0
268.9514,269.0675,86,58,0
269.0675,269.18982,85,56,0
269.18982,269.3036,83,55,0
269.3036,269.41763,81,54,0
269.41763,269.5321,80,52,0
269.5321,269.647,78,51,0
269.647,269.76242,76,50,0
269.76242,269.87753,74,48,0
269.87753,269.99176,73,46,0
269.99176,270.107,71,45,0
270.107,270.22327,69,44,0
270.22327,270.34058,68,43,0
270.34058,270.45898,66,41,0
270.45898,270.5852,64,40,0
270.5852,270.7025,62,40,0
270.7025,270.8209,66,39,0
270.8209,270.94028,64,37,0
270.94028,271.06076,62,35,0
271.06076,271.1823,61,33,0
271.1823,271.32852,59,31,0
271.32852,271.44513,57,39,0
271.44513,271.56177,61,34,0
271.56177,271.67838,57,34,0
271.67838,271.79498,61,39,0
271.79498,271.91162,69,34,0
271.91162,272.02823,61,34,0
272.02823,272.14383,57,39,0
272.14383,272.25943,61,34,0
272.25943,272.37506,57,34,0
272.37506,272.48856,61,39,0
272.48856,272.60208,69,34,0
272.60208,272.71927,61,34,0
272.72708,272.84335,61,39,0
272.84335,272.95963,69,34,0
272.95963,273.0759,61,34,0
273.0759,273.1953,69,40,0
273.1953,273.3147,73,35,0
273.3147,273.4341,69,35,0
273.4341,273.54904,61,45,0
273.54904,273.664,69,39,0
273.664,273.77893,61,40,0
273.77893,273.89246,69,48,0
273.89246,274.00595,73,43,0
274.00595,274.13055,69,43,0
274.13055,274.24652,64,52,0
274.24652,274.36246,73,46,0
274.36246,274.4784,64,46,0
274.4784,274.59708,73,55,0
274.59708,274.7158,76,47,0
274.7158,274.83447,73,48,0
274.83447,274.95007,64,57,0
274.95007,275.06567,73,49,0
275.06567,275.1813,64,50,0
275.1813,275.3,73,59,0
275.3,275.41867,76,51,0
275.41867,275.53738,73,52,0
275.53738,275.654,69,61,0
275.654,275.77063,73,53,0
275.77063,275.88724,69,55,0
275.88724,276.0063,73,64,0
276.0063,276.12534,81,57,0
276.12534,276.23694,73,59,0
276.2444,276.361,73,70,0
276.361,276.4776,81,61,0
276.4776,276.59424,73,63,0
276.59424,276.71292,81,75,0
276.71292,276.8316,85,66,0
276.8316,276.9916,81,67,0
276.9916,277.8215,74,93,0
276.9916,277.8215,86,110,0
276.9916,277.8215,82,93,0
276.9916,277.8215,77,93,0
277.8215,277.9077,70,79,0
277.8215,277.9077,62,67,0
277.9939,278.0801,70,73,0
277.9939,278.0801,62,61,0
278.16632,278.25037,70,79,0
278.16632,278.25037,62,67,0
278.33438,278.43777,70,72,0
278.33438,278.43777,62,61,0
278.54114,278.9037,70,87,0
278.54114,278.9037,62,74,0
278.9037,279.09177,72,75,0
278.9037,279.09177,65,63,0
279.27985,279.6424,72,87,0
279.27985,279.6424,65,74,0
279.6424,279.83047,74,75,0
279.6424,279.83047,70,63,0
280.0186,280.3822,74,87,0
280.0186,280.3822,70,74,0
280.3822,280.56912,72,75,0
280.3822,280.56912,65,63,0
280.75604,280.84177,72,79,0
280.75604,280.84177,65,67,0
280.92746,281.01318,72,73,0
280.92746,281.01318,65,61,0
281.0989,281.1827,72,79,0
281.0989,281.1827,65,67,0
281.26648,281.36987,72,72,0
281.26648,281.36987,65,61,0
281.47324,281.8358,72,87,0
281.47324,281.8358,65,74,0
281.8358,282.02386,77,75,0
281.8358,282.02386,74,63,0
282.21198,282.5745,77,87,0
282.21198,282.5745,74,74,0
282.5745,282.7626,75,75,0
282.5745,282.7626,69,63,0
282.95068,283.3143,75,87,0
282.95068,283.3143,69,74,0
283.3143,283.50122,74,75,0
283.3143,283.50122,70,63,0
283.68814,283.7723,82,79,0
283.68814,283.7723,70,67,0
283.68814,283.7723,74,67,0
283.68814,283.7723,79,67,0
283.8565,283.94067,82,73,0
283.8565,283.94067,70,61,0
283.8565,283.94067,74,61,0
283.8565,283.94067,79,61,0
284.02484,284.10718,82,79,0
284.02484,284.10718,70,67,0
284.02484,284.10718,74,67,0
284.02484,284.10718,79,67,0
284.18948,284.29288,82,72,0
284.18948,284.29288,70,61,0
284.18948,284.29288,74,61,0
284.18948,284.29288,79,61,0
284.39624,284.7588,82,87,0
284.39624,284.7588,79,74,0
284.39624,284.7588,74,74,0
284.7588,284.95047,79,75,0
284.7588,284.95047,74,63,0
284.39624,284.95047,70,74,0
285.14218,285.23505,77,82,0
285.14218,285.23505,74,70,0
285.14218,285.23505,65,70,0
285.5137,285.6175,74,71,0
285.5137,285.6175,70,59,0
285.5137,285.6175,65,59,0
285.92892,286.67892,72,82,0
285.92892,286.67892,69,69,0
285.92892,286.67892,65,69,0
286.67892,286.76794,73,75,0
286.67892,286.76794,61,63,0
286.85696,286.94598,73,69,0
286.85696,286.94598,61,57,0
287.035,287.12222,73,75,0
287.035,287.12222,61,63,0
287.2094,287.31042,73,68,0
287.2094,287.31042,61,57,0
287.41144,287.7751,77,82,0
287.41144,287.7751,74,70,0
287.7751,287.96616,74,71,0
287.7751,287.96616,70,59,0
287.41144,287.96616,65,70,0
288.15726,288.251,74,82,0
288.15726,288.251,70,70,0
288.15726,288.251,65,70,0
288.53226,288.63937,72,71,0
288.53226,288.63937,69,59,0
288.53226,288.63937,65,59,0
288.96082,289.71082,86,98,0
288.96082,289.71082,74,82,0
288.96082,289.71082,77,82,0
288.96082,289.71082,82,82,0
289.71082,289.82703,65,67,0
289.82703,289.94324,63,61,0
289.94324,290.05945,62,61,0
290.05945,290.1734,70,67,0
290.1734,290.29932,69,61,0
290.29932,290.43713,67,61,0
290.43713,291.17584,65,73,0
291.17584,291.2967,77,67,0
291.2967,291.41754,75,61,0
291.41754,291.5384,74,61,0
291.5384,291.6638,82,67,0
291.6638,291.78918,81,61,0
291.78918,291.91458,79,61,0
291.91458,292.65204,77,73,0
292.65204,292.76825,77,71,0
292.76825,292.88446,81,60,0
292.88446,293.00067,82,60,0
293.00067,293.11462,84,67,0
293.11462,293.24054,86,70,0
293.24054,293.37836,87,72,0
293.37836,294.1171,89,78,0
294.1171,294.23755,81,67,0
294.23755,294.3588,82,59,0
294.3588,294.48126,84,59,0
294.48126,294.60825,86,63,0
294.60825,294.73523,87,66,0
294.73523,294.88016,89,70,0
294.88016,295.24377,90,72,0
295.24377,295.4307,91,66,0
295.6176,295.7025,82,79,0
295.6176,295.7025,79,67,0
295.6176,295.7025,74,67,0
295.6176,295.7025,70,67,0
295.7874,295.87228,70,61,0
295.7874,295.87228,79,61,0
295.7874,295.87228,82,73,0
295.7874,295.87228,74,61,0
295.95718,296.03952,74,67,0
295.95718,296.03952,79,67,0
295.95718,296.03952,82,79,0
295.95718,296.03952,70,67,0
296.12183,296.22522,82,72,0
296.12183,296.22522,70,61,0
296.12183,296.22522,74,61,0
296.12183,296.22522,79,61,0
296.32858,296.69113,82,87,0
296.32858,296.69113,79,74,0
296.32858,296.69113,74,74,0
296.69113,296.8828,79,75,0
296.69113,296.8828,74,63,0
296.32858,296.8828,70,74,0
297.07452,297.1668,77,82,0
297.07452,297.1668,74,70,0
297.07452,297.1668,65,70,0
297.44376,297.5431,74,71,0
297.44376,297.5431,65,59,0
297.44376,297.5431,70,59,0
297.8411,298.5911,65,69,0
297.8411,298.5911,69,69,0
297.8411,298.5911,72,82,0
298.5911,298.71158,68,75,0
298.71158,298.83206,72,68,0
298.83206,298.95255,76,69,0
298.95255,299.07123,77,75,0
299.07123,299.18994,79,67,0
299.18994,299.342,80,67,0
299.342,299.70898,84,82,0
299.342,299.70898,81,70,0
299.70898,299.9013,77,59,0
299.70898,299.9013,81,71,0
299.342,299.9013,72,70,0
300.0936,300.19263,81,82,0
300.0936,300.19263,77,70,0
300.0936,300.19263,72,70,0
300.48965,300.60284,79,71,0
300.48965,300.60284,76,59,0
300.48965,300.60284,72,59,0
300.94247,301.63995,69,82,0
300.94247,301.63995,72,82,0
300.94247,301.63995,77,98,0
301.63995,301.76227,82,64,0
301.76227,301.8772,81,57,0
301.8772,301.99216,79,57,0
301.99216,302.1071,86,63,0
302.1071,302.22205,84,58,0
302.22205,302.35718,82,58,0
302.35718,302.4721,81,63,0
302.4721,302.58707,79,57,0
302.58707,302.702,77,58,0
302.702,302.81696,76,65,0
302.81696,302.9319,74,54,0
302.9319,303.06613,72,54,0
303.06613,303.1804,70,61,0
303.1804,303.29468,69,52,0
303.29468,303.40897,67,52,0
303.40897,303.52325,74,61,0
303.52325,303.63754,72,54,0
303.63754,303.76294,70,54,0
303.76294,304.46042,69,57,0
303.76294,304.46042,65,57,0
303.76294,304.46042,77,68,0
303.76294,304.46042,72,57,0
304.46042,304.58273,82,64,0
304.58273,304.69766,81,57,0
304.69766,304.81262,79,57,0
304.81262,304.92755,86,63,0
304.92755,305.0425,84,58,0
305.0425,305.17764,82,58,0
305.17764,305.29257,81,63,0
305.29257,305.40753,79,57,0
305.40753,305.52246,77,58,0
305.52246,305.6374,76,65,0
305.6374,305.75235,74,54,0
305.75235,305.88657,72,54,0
305.88657,306.00085,70,61,0
306.00085,306.11514,69,52,0
306.11514,306.22943,67,52,0
306.22943,306.34372,74,61,0
306.34372,306.458,72,54,0
306.458,306.5834,70,54,0
306.5834,306.69867,69,61,0
306.69867,306.81393,67,50,0
306.81393,306.92923,65,51,0
306.92923,307.0445,64,58,0
307.0445,307.15976,62,44,0
307.15976,307.28284,60,44,0
307.28284,307.39713,58,51,0
307.39713,307.5114,57,46,0
307.5114,307.6257,55,46,0
307.6257,307.74,61,52,0
307.74,307.85428,60,46,0
307.85428,307.96854,58,46,0
307.96854,308.08197,61,52,0
308.08197,308.19473,60,47,0
308.19473,308.30682,58,48,0
308.30682,308.41824,61,57,0
308.41824,308.52936,60,51,0
308.52936,308.64047,58,53,0
308.64047,308.7516,61,63,0
308.7516,308.8627,60,59,0
308.8627,308.97375,58,53,0
308.97375,309.08496,61,57,0
309.08496,309.1971,60,51,0
309.1971,309.3102,59,48,0
309.3102,309.42468,60,57,0
309.42468,309.53906,61,43,0
309.53906,309.65323,63,43,0
309.65323,309.7671,65,51,0
309.7671,309.8807,67,43,0
309.8807,309.99402,68,43,0
309.99402,310.1071,70,49,0
310.1071,310.22006,72,43,0
310.22006,310.33307,73,43,0
310.33307,310.44666,75,50,0
310.44666,310.56125,77,43,0
310.56125,310.67688,79,43,0
310.67688,311.37436,72,45,0
310.67688,311.37436,68,45,0
310.67688,311.37436,80,53,0
310.67688,311.37436,75,45,0
311.37436,311.49667,85,48,0
311.49667,311.61163,84,42,0
311.61163,311.72656,82,42,0
311.72656,311.84152,89,47,0
311.84152,311.95645,87,43,0
311.95645,312.09158,85,43,0
312.09158,312.20654,84,47,0
312.20654,312.32147,82,42,0
312.32147,312.43643,80,43,0
312.43643,312.55136,79,48,0
312.55136,312.6663,77,40,0
312.6663,312.80054,75,40,0
312.80054,312.91483,73,45,0
312.91483,313.0291,72,39,0
313.0291,313.1434,70,39,0
313.1434,313.25766,77,45,0
313.25766,313.37195,75,40,0
313.37195,313.49734,73,40,0
313.49734,314.19482,72,45,0
313.49734,314.19482,68,45,0
313.49734,314.19482,80,53,0
313.49734,314.19482,75,45,0
314.19482,314.31714,85,48,0
314.31714,314.4321,84,42,0
314.4321,314.54703,82,42,0
314.54703,314.66196,89,47,0
314.66196,314.77692,87,43,0
314.77692,314.91205,85,43,0
314.91205,315.02698,84,47,0
315.02698,315.14194,82,42,0
315.14194,315.25687,80,43,0
315.25687,315.37183,79,48,0
315.37183,315.48676,77,40,0
315.48676,315.621,75,40,0
315.621,315.7353,73,45,0
315.7353,315.84955,72,39,0
315.84955,315.96384,70,39,0
315.96384,316.07812,77,45,0
316.07812,316.1924,75,40,0
316.1924,316.3178,73,40,0
316.3178,316.43307,72,45,0
316.43307,316.54837,70,37,0
316.54837,316.66364,68,38,0
316.66364,316.7789,67,43,0
316.7789,316.89417,65,33,0
316.89417,317.01724,63,33,0
317.01724,317.13153,61,38,0
317.13153,317.24582,60,34,0
317.24582,317.3601,58,34,0
317.3601,317.4744,64,39,0
317.4744,317.58868,63,34,0
317.58868,317.70294,61,34,0
317.70294,317.81638,64,39,0
317.81638,317.92914,63,35,0
317.92914,318.04123,61,36,0
318.04123,318.15265,64,42,0
318.15265,318.26376,63,38,0
318.26376,318.37488,61,39,0
318.37488,318.486,64,47,0
318.486,318.5971,63,44,0
318.5971,318.70816,61,39,0
318.70816,318.81937,64,42,0
318.81937,318.93152,63,38,0
318.93152,319.04477,62,36,0
319.04477,319.15875,63,57,0
319.15875,319.27237,64,43,0
319.27237,319.38577,66,46,0
319.38577,319.49893,68,48,0
319.49893,319.61182,70,51,0
319.61182,319.7243,71,53,0
319.7243,319.8371,73,55,0
319.8371,319.95126,75,60,0
319.95126,320.06686,76,64,0
320.06686,320.18558,78,68,0
320.18558,320.30823,80,72,0
320.30823,320.4617,82,76,0
320.4617,321.1403,83,96,0
320.4617,321.1403,71,81,0
320.4617,321.1403,74,81,0
320.4617,321.1403,78,81,0
321.14743,321.2346,83,86,0
321.14743,321.2346,71,73,0
321.14743,321.2346,74,73,0
321.14743,321.2346,78,73,0
321.32175,321.4089,83,80,0
321.32175,321.4089,71,67,0
321.32175,321.4089,74,67,0
321.32175,321.4089,78,67,0
321.49606,321.58154,83,86,0
321.49606,321.58154,71,73,0
321.49606,321.58154,74,73,0
321.49606,321.58154,78,73,0
321.667,321.7704,83,79,0
321.667,321.7704,71,67,0
321.667,321.7704,74,67,0
321.667,321.7704,78,67,0
321.87375,322.2363,83,95,0
321.87375,322.2363,78,81,0
321.87375,322.2363,74,81,0
322.2363,322.42798,78,82,0
322.2363,322.42798,74,69,0
321.87375,322.42798,71,81,0
322.6197,322.71255,79,90,0
322.6197,322.71255,73,77,0
322.6197,322.71255,71,77,0
322.9912,323.08585,76,78,0
322.9912,323.08585,73,64,0
322.9912,323.08585,71,64,0
323.40067,324.13913,78,90,0
323.40067,324.13913,74,75,0
323.40067,324.13913,71,75,0
324.13913,324.25534,71,69,0
324.25534,324.37155,70,57,0
324.37155,324.48776,71,57,0
324.48776,324.6017,73,69,0
324.6017,324.72763,71,59,0
324.72763,324.86545,70,59,0
324.86545,324.9863,74,69,0
324.9863,325.10715,73,61,0
325.10715,325.228,71,61,0
325.228,325.3558,78,69,0
325.3558,325.48358,76,62,0
325.48358,325.6114,74,62,0
325.6114,325.73523,79,69,0
325.73523,325.85907,78,60,0
325.85907,325.9829,76,60,0
325.9829,326.1091,82,69,0
326.1091,326.23526,80,60,0
326.23526,326.36145,78,60,0
326.36145,327.04428,83,73,0
326.36145,327.04428,71,73,0
326.36145,327.04428,74,73,0
326.36145,327.04428,78,73,0
327.7461,327.86084,59,67,0
327.86084,327.9756,58,50,0
327.9756,328.09033,59,50,0
328.09033,328.20508,62,68,0
328.20508,328.31982,61,51,0
328.31982,328.44305,59,51,0
328.44305,328.55746,64,68,0
328.55746,328.67188,62,51,0
328.67188,328.7863,61,51,0
328.7863,328.9007,67,69,0
328.9007,329.01514,66,51,0
329.01514,329.12955,64,51,0
329.12955,329.2443,66,67,0
329.2443,329.35904,65,50,0
329.35904,329.4738,66,50,0
329.4738,329.58853,69,68,0
329.58853,329.70328,68,51,0
329.70328,329.8265,69,51,0
329.8265,329.94092,72,68,0
329.94092,330.05533,71,51,0
330.05533,330.16974,72,51,0
330.16974,330.28415,75,69,0
330.28415,330.39856,74,51,0
330.39856,330.52142,75,51,0
330.52142,330.69968,78,89,0
330.87793,331.2431,80,68,0
330.87793,331.2431,78,68,0
330.87793,331.2431,72,68,0
330.87793,331.2431,75,68,0
330.87793,331.2431,84,81,0
331.2431,331.6083,80,68,0
331.2431,331.6083,78,68,0
331.2431,331.6083,72,68,0
331.2431,331.6083,75,68,0
331.2431,331.6083,84,81,0
331.6083,331.98065,80,68,0
331.6083,331.98065,78,68,0
331.6083,331.98065,72,68,0
331.6083,331.98065,75,68,0
331.6083,331.98065,84,81,0
331.98065,332.65924,85,96,0
331.98065,332.65924,73,81,0
331.98065,332.65924,76,81,0
331.98065,332.65924,80,81,0
332.66638,332.75354,85,86,0
332.66638,332.75354,73,73,0
332.66638,332.75354,76,73,0
332.66638,332.75354,80,73,0
332.8407,332.92786,85,80,0
332.8407,332.92786,73,67,0
332.8407,332.92786,76,67,0
332.8407,332.92786,80,67,0
333.015,333.09857,85,86,0
333.015,333.09857,73,73,0
333.015,333.09857,76,73,0
333.015,333.09857,80,73,0
333.18213,333.28552,85,79,0
333.18213,333.28552,73,67,0
333.18213,333.28552,76,67,0
333.18213,333.28552,80,67,0
333.3889,333.75143,85,95,0
333.3889,333.75143,80,81,0
333.3889,333.75143,76,81,0
333.75143,333.9431,80,82,0
333.75143,333.9431,76,69,0
333.3889,333.9431,73,81,0
334.13483,334.2277,81,90,0
334.13483,334.2277,75,77,0
334.13483,334.2277,73,77,0
334.50632,334.60098,78,78,0
334.50632,334.60098,75,64,0
334.50632,334.60098,73,64,0
334.9158,335.65427,80,90,0
334.9158,335.65427,76,75,0
334.9158,335.65427,73,75,0
335.65427,335.76923,73,63,0
335.76923,335.88416,72,52,0
335.88416,335.99908,73,52,0
335.99908,336.11145,75,63,0
336.11145,336.23654,73,54,0
336.23654,336.3744,72,54,0
336.3744,336.49524,76,63,0
336.49524,336.6161,75,56,0
336.6161,336.73694,73,56,0
336.73694,336.86472,80,63,0
336.86472,336.99252,78,57,0
336.99252,337.1203,76,57,0
337.1203,337.24414,81,63,0
337.24414,337.36798,80,55,0
337.36798,337.49182,78,55,0
337.49182,337.618,84,63,0
337.618,337.7442,82,55,0
337.7442,337.8704,80,55,0
337.8704,338.55322,85,67,0
337.8704,338.55322,73,67,0
337.8704,338.55322,76,67,0
337.8704,338.55322,80,67,0
339.255,339.36975,61,67,0
339.36975,339.4845,60,50,0
339.4845,339.59924,61,50,0
339.59924,339.714,64,68,0
339.714,339.82874,63,51,0
339.82874,339.95197,61,51,0
339.95197,340.06638,66,68,0
340.06638,340.18082,64,51,0
340.18082,340.29523,63,51,0
340.29523,340.40964,69,69,0
340.40964,340.52405,68,51,0
340.52405,340.63846,66,51,0
340.63846,340.7532,68,67,0
340.7532,340.86795,67,50,0
340.86795,340.9827,68,50,0
340.9827,341.09744,71,68,0
341.09744,341.2122,70,51,0
341.2122,341.33542,71,53,0
341.33542,341.44983,74,72,0
341.44983,341.56424,73,51,0
341.56424,341.67868,74,56,0
341.67868,341.7931,77,72,0
341.7931,341.9075,76,57,0
341.9075,342.03036,77,58,0
342.03036,342.20862,80,86,0
342.38687,342.7155,82,68,0
342.38687,342.7155,80,68,0
342.38687,342.7155,74,68,0
342.38687,342.7155,77,68,0
342.38687,342.7155,86,81,0
342.75204,343.08072,82,68,0
342.75204,343.08072,80,68,0
342.75204,343.08072,74,68,0
342.75204,343.08072,77,68,0
342.75204,343.08072,86,81,0
343.11722,343.4516,82,68,0
343.11722,343.4516,80,68,0
343.11722,343.4516,74,68,0
343.11722,343.4516,77,68,0
343.11722,343.4516,86,81,0
343.4896,343.66785,87,89,0
343.4896,343.66785,75,75,0
343.4896,343.66785,79,75,0
343.4896,343.66785,82,75,0
343.8461,344.17474,71,68,0
343.8461,344.17474,66,68,0
343.8461,344.17474,69,68,0
343.8461,344.17474,75,81,0
344.21127,344.53995,71,68,0
344.21127,344.53995,66,68,0
344.21127,344.53995,69,68,0
344.21127,344.53995,75,81,0
344.57645,344.91083,71,68,0
344.57645,344.91083,66,68,0
344.57645,344.91083,69,68,0
344.57645,344.91083,75,81,0
344.94882,345.12708,76,89,0
344.94882,345.12708,71,75,0
344.94882,345.12708,67,75,0
345.30533,345.65082,84,68,0
345.30533,345.65082,82,68,0
345.30533,345.65082,76,68,0
345.30533,345.65082,79,68,0
345.30533,345.65082,88,81,0
345.6892,346.0347,84,68,0
345.6892,346.0347,82,68,0
345.6892,346.0347,76,68,0
345.6892,346.0347,79,68,0
345.6892,346.0347,88,81,0
346.07318,346.43057,84,68,0
346.07318,346.43057,82,68,0
346.07318,346.43057,76,68,0
346.07318,346.43057,79,68,0
346.07318,346.43057,88,81,0
346.46982,346.6513,89,89,0
346.46982,346.6513,77,75,0
346.46982,346.6513,80,75,0
346.46982,346.6513,84,75,0
346.8328,347.20572,73,68,0
346.8328,347.20572,68,68,0
346.8328,347.20572,71,68,0
346.8328,347.20572,77,81,0
347.24716,347.6201,73,62,0
347.24716,347.6201,68,62,0
347.24716,347.6201,71,62,0
347.24716,347.6201,77,74,0
347.6612,348.04413,73,57,0
347.6612,348.04413,68,57,0
347.6612,348.04413,71,57,0
347.6612,348.04413,77,68,0
348.08786,348.2661,78,66,0
348.08786,348.2661,74,56,0
348.08786,348.2661,69,56,0
348.44437,348.5591,74,64,0
348.5591,348.67386,73,54,0
348.67386,348.7886,74,54,0
348.7886,348.90335,78,65,0
348.90335,349.0181,76,56,0
349.0181,349.1421,74,56,0
349.1421,349.2565,81,66,0
349.2565,349.37094,79,58,0
349.37094,349.48535,78,58,0
349.48535,349.59976,76,65,0
349.59976,349.71417,74,58,0
349.71417,349.83337,73,58,0
349.83337,349.94745,74,66,0
349.94745,350.06155,73,55,0
350.06155,350.17563,71,55,0
350.17563,350.28973,69,60,0
350.28973,350.4038,67,51,0
350.4038,350.5179,66,51,0
350.5179,350.632,64,58,0
350.632,350.7461,62,51,0
350.7461,350.87204,66,51,0
350.87204,351.0503,64,61,0
351.22855,351.3433,76,64,0
351.3433,351.45804,75,54,0
351.45804,351.57278,76,54,0
351.57278,351.68753,79,65,0
351.68753,351.80228,78,56,0
351.80228,351.92627,76,56,0
351.92627,352.04068,83,66,0
352.04068,352.1551,81,58,0
352.1551,352.2695,79,58,0
352.2695,352.3839,78,65,0
352.3839,352.49832,76,58,0
352.49832,352.61752,75,58,0
352.61752,352.73163,76,66,0
352.73163,352.8457,74,55,0
352.8457,352.9598,73,55,0
352.9598,353.07388,71,60,0
353.07388,353.188,69,51,0
353.188,353.30206,67,51,0
353.30206,353.41617,66,58,0
353.41617,353.53024,64,51,0
353.53024,353.66464,67,51,0
353.66464,353.8429,66,61,0
354.02115,354.1359,78,64,0
354.1359,354.25064,77,54,0
354.25064,354.3654,78,54,0
354.3654,354.48013,81,65,0
354.48013,354.59488,79,56,0
354.59488,354.71887,78,56,0
354.71887,354.83328,84,66,0
354.83328,354.94772,83,58,0
354.94772,355.06213,81,58,0
355.06213,355.17654,79,65,0
355.17654,355.29095,78,58,0
355.29095,355.41016,76,58,0
355.41016,355.52423,78,66,0
355.52423,355.63834,76,55,0
355.63834,355.7524,74,55,0
355.7524,355.86652,72,60,0
355.86652,355.9806,71,51,0
355.9806,356.0947,69,51,0
356.0947,356.20877,67,58,0
356.20877,356.32288,66,51,0
356.32288,356.45593,69,51,0
356.45593,356.57034,67,65,0
356.57034,356.68475,66,58,0
356.68475,356.80396,67,58,0
356.80396,356.92316,71,64,0
356.92316,357.04233,70,54,0
357.04233,357.16153,71,54,0
357.16153,357.28073,74,65,0
357.28073,357.3999,73,56,0
357.3999,357.5239,74,56,0
357.5239,357.6383,79,66,0
357.6383,357.75275,78,58,0
357.75275,357.86716,79,58,0
357.86716,357.98157,83,65,0
357.98157,358.09598,82,58,0
358.09598,358.22272,83,58,0
358.22272,358.34122,86,66,0
358.34122,358.4597,85,55,0
358.4597,358.5782,86,55,0
358.5782,358.69666,89,67,0
358.69666,358.81516,88,51,0
358.81516,358.95047,89,52,0
358.95047,359.07483,80,63,0
359.07483,359.19922,79,41,0
359.19922,359.3465,80,40,0
359.3465,359.46533,81,52,0
359.46533,359.58417,80,41,0
359.58417,359.703,81,41,0
359.703,359.8201,85,52,0
359.8201,359.9372,83,42,0
359.9372,360.0543,81,42,0
360.0543,360.17,83,52,0
360.17,360.28577,81,40,0
360.28577,360.40152,80,40,0
360.40152,360.5207,86,58,0
360.5207,360.6399,85,44,0
360.6399,360.774,83,44,0
360.774,360.89108,81,52,0
360.89108,361.00818,80,41,0
361.00818,361.12527,78,41,0
361.12527,361.24448,76,52,0
361.24448,361.36365,74,41,0
361.36365,361.48285,73,41,0
361.48285,361.59793,74,52,0
361.59793,361.713,73,40,0
361.713,361.82806,71,40,0
361.82806,361.94727,78,58,0
361.94727,362.06647,76,44,0
362.06647,362.20056,74,44,0
362.20056,362.31766,73,52,0
362.31766,362.43475,76,41,0
362.43475,362.55185,81,41,0
362.55185,362.67105,85,52,0
362.67105,362.79022,83,41,0
362.79022,362.90942,81,41,0
362.90942,363.02484,83,52,0
363.02484,363.14023,81,40,0
363.14023,363.25565,80,40,0
363.25565,363.37482,86,58,0
363.37482,363.49402,85,44,0
363.49402,363.6281,83,44,0
363.6281,363.74524,81,52,0
363.74524,363.86234,80,41,0
363.86234,363.97943,78,41,0
363.97943,364.0986,76,52,0
364.0986,364.2178,74,41,0
364.2178,364.33698,73,41,0
364.33698,364.45206,74,52,0
364.45206,364.56714,73,40,0
364.56714,364.68222,71,40,0
364.68222,364.8014,78,58,0
364.8014,364.9206,76,44,0
364.9206,365.0547,74,44,0
365.0547,365.17178,73,52,0
365.17178,365.28888,71,41,0
365.28888,365.40598,69,41,0
365.40598,365.52518,76,52,0
365.52518,365.64438,74,41,0
365.64438,365.76355,73,42,0
365.76355,365.87897,79,53,0
365.87897,365.99435,78,41,0
365.99435,366.10977,76,42,0
366.10977,366.22897,83,60,0
366.22897,366.34814,81,46,0
366.34814,366.48227,79,46,0
366.48227,366.598,78,55,0
366.598,366.71375,76,44,0
366.71375,366.8295,74,44,0
366.8295,366.94867,73,56,0
366.94867,367.06787,71,45,0
367.06787,367.18704,69,45,0
367.18704,367.3028,67,57,0
367.3028,367.41855,64,44,0
367.41855,367.53427,66,44,0
367.53427,367.65347,67,65,0
367.65347,367.77264,69,49,0
367.77264,367.90677,71,50,0
367.90677,368.02216,73,59,0
368.02216,368.13757,71,47,0
368.13757,368.253,69,47,0
368.253,368.37216,76,60,0
368.37216,368.49136,74,47,0
368.49136,368.61057,73,48,0
368.61057,368.72562,79,61,0
368.72562,368.8407,78,47,0
368.8407,368.95578,76,48,0
368.95578,369.07498,82,66,0
369.07498,369.19415,81,53,0
369.19415,369.32828,79,53,0
369.32828,369.44366,78,63,0
369.44366,369.55908,76,50,0
369.55908,369.6745,74,50,0
369.6745,369.79367,73,64,0
369.79367,369.91287,71,51,0
369.91287,370.03204,69,51,0
370.03204,370.14746,67,65,0
370.14746,370.26288,64,50,0
370.26288,370.37827,66,50,0
370.37827,370.49747,67,66,0
370.49747,370.61664,69,54,0
370.61664,370.75076,71,54,0
370.75076,370.86652,73,75,0
370.86652,370.98224,71,61,0
370.98224,371.098,69,61,0
371.098,371.21683,76,75,0
371.21683,371.33566,74,61,0
371.33566,371.4545,73,61,0
371.4545,371.5699,79,76,0
371.5699,371.6853,78,62,0
371.6853,371.7935,76,62,0
371.80072,371.91885,76,77,0
371.91885,372.037,74,63,0
372.037,372.15512,73,64,0
372.15512,372.2705,79,81,0
372.2705,372.38593,78,67,0
372.38593,372.50134,76,67,0
372.50134,372.61948,83,82,0
372.61948,372.7376,81,67,0
372.7376,372.84836,79,67,0
372.85574,372.97015,79,81,0
372.97015,373.08456,78,68,0
373.08456,373.19183,76,68,0
373.19897,373.31818,83,80,0
373.31818,373.43735,81,65,0
373.43735,373.55655,79,66,0
373.55655,373.6723,85,86,0
373.6723,373.78802,83,65,0
373.78802,373.90378,81,65,0
373.90378,374.02295,85,84,0
374.02295,374.14215,83,66,0
374.14215,374.25388,81,71,0
374.26135,374.38382,85,91,0
374.38382,374.5063,83,74,0
374.5063,374.6211,81,76,0
374.62875,374.7555,85,93,0
374.7555,374.88223,83,80,0
374.88223,375.0557,81,85,0
375.0557,375.8856,74,89,0
375.0557,375.8856,86,105,0
375.0557,375.8856,81,89,0
375.0557,375.8856,78,89,0
375.8856,375.9701,62,72,0
375.8856,375.9701,57,61,0
376.0546,376.1391,62,67,0
376.0546,376.1391,57,56,0
376.2236,376.30557,62,72,0
376.2236,376.30557,57,61,0
376.38754,376.49094,62,66,0
376.38754,376.49094,57,56,0
376.5943,376.96216,57,68,0
376.96216,377.14612,64,69,0
376.96216,377.14612,59,58,0
376.5943,377.14612,62,80,0
377.33005,377.41528,66,72,0
377.33005,377.41528,62,61,0
377.33005,377.41528,60,61,0
377.5005,377.58572,66,67,0
377.5005,377.58572,62,56,0
377.5005,377.58572,60,56,0
377.67096,377.7538,66,72,0
377.67096,377.7538,62,61,0
377.67096,377.7538,60,61,0
377.8367,377.9408,66,66,0
377.8367,377.9408,62,56,0
377.8367,377.9408,60,56,0
378.0449,378.422,66,80,0
378.0449,378.422,60,68,0
378.422,378.61057,67,69,0
378.422,378.61057,59,58,0
378.0449,378.61057,62,68,0
378.61057,378.7885,64,57,0
378.7885,378.9033,67,63,0
378.9033,379.01785,66,57,0
379.01785,379.1324,64,57,0
379.1324,379.245,70,63,0
379.245,379.35764,69,58,0
379.35764,379.4891,67,58,0
379.4891,379.66547,69,63,0
379.84186,379.9574,78,56,0
379.9574,380.07294,76,46,0
380.07294,380.18848,74,46,0
380.18848,380.30237,81,57,0
380.30237,380.41626,79,47,0
380.41626,380.53015,78,47,0
380.53015,380.64404,76,58,0
380.64404,380.75793,74,50,0
380.75793,380.91287,73,50,0
380.91287,381.74274,74,89,0
380.91287,381.74274,86,105,0
380.91287,381.74274,81,89,0
380.91287,381.74274,78,89,0
381.74274,381.82797,62,63,0
381.74274,381.82797,57,54,0
381.91318,381.9984,62,59,0
381.91318,381.9984,57,49,0
382.08365,382.1663,62,63,0
382.08365,382.1663,57,54,0
382.24893,382.35233,62,58,0
382.24893,382.35233,57,49,0
382.4557,382.82355,57,60,0
382.82355,383.0075,64,61,0
382.82355,383.0075,59,51,0
382.4557,383.0075,62,70,0
383.19144,383.30405,57,61,0
383.30405,383.41666,59,55,0
383.41666,383.52927,60,55,0
383.52927,383.63828,62,61,0
383.63828,383.74725,64,56,0
383.74725,383.888,66,56,0
383.888,384.0624,58,61,0
384.0624,384.23685,66,52,0
384.23685,384.41125,59,61,0
384.41125,384.61047,67,55,0
384.61047,384.69543,69,63,0
384.61047,384.69543,67,54,0
384.61047,384.69543,64,54,0
384.78043,384.86542,69,59,0
384.78043,384.86542,67,49,0
384.78043,384.86542,64,49,0
384.9504,385.0335,69,63,0
384.9504,385.0335,67,54,0
384.9504,385.0335,64,54,0
385.1166,385.21997,69,58,0
385.1166,385.21997,67,49,0
385.1166,385.21997,64,49,0
385.32336,385.69122,69,70,0
385.32336,385.69122,64,60,0
385.69122,385.87518,71,61,0
385.69122,385.87518,62,51,0
385.32336,385.87518,67,60,0
386.0591,386.17172,62,61,0
386.17172,386.28433,64,55,0
386.28433,386.39694,66,55,0
386.39694,386.50595,67,61,0
386.50595,386.61493,69,56,0
386.61493,386.75568,71,56,0
386.75568,386.9306,63,61,0
386.9306,387.10553,71,52,0
387.10553,387.28046,64,61,0
387.28046,387.45538,72,55,0
387.45538,387.54062,73,63,0
387.45538,387.54062,70,54,0
387.45538,387.54062,67,54,0
387.62582,387.71106,73,59,0
387.62582,387.71106,70,49,0
387.62582,387.71106,67,49,0
387.7963,387.87964,73,63,0
387.7963,387.87964,70,54,0
387.7963,387.87964,67,54,0
387.96295,388.06635,73,58,0
387.96295,388.06635,70,49,0
387.96295,388.06635,67,49,0
388.1697,388.5376,73,70,0
388.1697,388.5376,67,60,0
388.5376,388.72153,74,61,0
388.5376,388.72153,65,51,0
388.1697,388.72153,70,60,0
388.90546,389.01807,65,61,0
389.01807,389.13068,67,55,0
389.13068,389.2433,69,55,0
389.2433,389.35318,71,61,0
389.35318,389.46307,72,56,0
389.46307,389.62567,74,56,0
389.62567,389.7996,75,61,0
389.7996,389.9735,67,50,0
389.9735,390.14996,74,61,0
390.14996,390.32645,65,51,0
390.32645,390.41193,73,53,0
390.32645,390.41193,64,45,0
390.32645,390.41193,67,45,0
390.32645,390.41193,70,45,0
390.49738,390.58286,73,50,0
390.49738,390.58286,64,41,0
390.49738,390.58286,67,41,0
390.49738,390.58286,70,41,0
390.66833,390.75143,73,53,0
390.66833,390.75143,64,45,0
390.66833,390.75143,67,45,0
390.66833,390.75143,70,45,0
390.83453,390.9379,73,49,0
390.83453,390.9379,64,41,0
390.83453,390.9379,67,41,0
390.83453,390.9379,70,41,0
391.0413,391.40915,73,59,0
391.0413,391.40915,67,51,0
391.0413,391.40915,64,51,0
391.40915,391.59308,74,51,0
391.40915,391.59308,65,43,0
391.0413,391.59308,70,51,0
391.77704,391.88965,65,51,0
391.88965,392.00226,67,46,0
392.00226,392.11487,69,46,0
392.11487,392.22476,70,51,0
392.22476,392.33466,72,47,0
392.33466,392.4754,74,47,0
392.4754,392.65332,75,43,0
392.4754,392.65332,79,51,0
392.65332,392.83127,67,44,0
392.83127,393.0092,74,43,0
392.83127,393.0092,77,51,0
393.0092,393.18713,65,46,0
393.18713,393.27164,73,53,0
393.18713,393.27164,64,40,0
393.18713,393.27164,67,40,0
393.18713,393.27164,70,40,0
393.35614,393.44064,73,50,0
393.35614,393.44064,64,37,0
393.35614,393.44064,67,37,0
393.35614,393.44064,70,37,0
393.52515,393.6069,73,53,0
393.52515,393.6069,64,40,0
393.52515,393.6069,67,40,0
393.52515,393.6069,70,40,0
393.68866,393.79202,73,49,0
393.68866,393.79202,64,37,0
393.68866,393.79202,67,37,0
393.68866,393.79202,70,37,0
393.89542,394.26328,73,59,0
393.89542,394.26328,67,51,0
393.89542,394.26328,64,51,0
394.26328,394.4472,74,51,0
394.26328,394.4472,65,43,0
393.89542,394.4472,70,51,0
394.63113,394.74374,65,49,0
394.74374,394.85638,67,50,0
394.85638,394.969,69,52,0
394.969,395.0816,70,53,0
395.0816,395.1942,72,55,0
395.1942,395.30664,74,56,0
395.30664,395.4183,75,61,0
395.4183,395.52957,77,52,0
395.52957,395.64053,79,52,0
395.64053,395.75113,77,61,0
395.75113,395.8614,75,53,0
395.8614,395.97125,74,53,0
395.97125,396.0807,73,57,0
396.0807,396.19067,70,47,0
396.19067,396.3012,67,47,0
396.3012,396.41232,64,49,0
396.41232,396.524,61,47,0
396.524,396.64075,64,48,0
396.64075,396.75198,65,50,0
396.75198,396.86322,62,45,0
396.86322,396.97446,65,45,0
396.97446,397.0857,62,50,0
397.0857,397.19693,58,45,0
397.19693,397.30756,62,45,0
397.30756,397.41776,65,45,0
397.41776,397.5278,67,47,0
397.5278,397.6377,69,49,0
397.6377,397.74744,70,51,0
397.74744,397.85703,72,53,0
397.85703,397.97208,74,55,0
397.97208,398.08072,75,57,0
398.08072,398.1888,77,59,0
398.1888,398.29694,79,61,0
398.29694,398.40503,77,63,0
398.40503,398.5133,75,58,0
398.5133,398.6218,74,61,0
398.6218,398.73053,73,57,0
398.73053,398.83954,70,55,0
398.83954,398.94876,67,53,0
398.94876,399.05823,64,51,0
399.05823,399.16794,61,47,0
399.16794,399.27783,64,43,0
399.27783,399.386,67,59,0
399.386,399.49295,64,43,0
399.49295,399.59866,67,43,0
399.59866,399.7048,64,44,0
399.7048,399.81335,61,45,0
399.81335,399.92776,64,45,0
399.92776,400.03638,68,62,0
400.03638,400.14432,64,46,0
400.14432,400.2518,68,47,0
400.2518,400.35892,64,47,0
400.35892,400.46735,61,48,0
400.46735,400.5827,64,48,0
400.5827,400.69016,69,65,0
400.69016,400.79666,64,49,0
400.79666,400.9022,69,50,0
400.9022,401.00803,64,50,0
401.00803,401.11557,61,51,0
401.11557,401.22897,64,52,0
401.22897,401.33508,69,68,0
401.33508,401.44034,64,52,0
401.44034,401.54477,69,53,0
401.54477,401.64905,64,54,0
401.64905,401.75485,60,54,0
401.75485,401.8685,64,55,0
401.8685,401.97394,74,74,0
401.97394,402.0789,69,59,0
402.0789,402.18338,74,60,0
402.18338,402.28867,69,61,0
402.28867,402.39618,62,62,0
402.39618,402.50995,69,63,0
402.50995,402.61908,80,82,0
402.61908,402.7282,74,67,0
402.7282,402.83762,80,69,0
402.83762,402.94727,74,70,0
402.94727,403.05713,68,72,0
403.05713,403.17682,74,74,0
403.17682,404.04956,69,89,0
403.17682,404.04956,81,105,0
403.17682,404.04956,76,89,0
403.17682,404.04956,73,89,0
404.04956,404.22397,75,63,0
404.04956,404.22397,72,54,0
404.2821,404.4565,75,59,0
404.2821,404.4565,72,49,0
404.51468,404.6891,75,63,0
404.51468,404.6891,72,54,0
404.74722,404.9371,75,58,0
404.74722,404.9371,72,49,0
405.0004,405.43835,76,70,0
405.0004,405.43835,73,60,0
405.43835,405.69046,85,49,0
405.69046,405.87585,49,64,0
405.87585,405.98846,50,66,0
405.98846,406.10107,49,62,0
406.10107,406.21368,47,64,0
406.21368,406.32632,53,65,0
406.32632,406.43893,52,60,0
406.43893,406.57968,50,49,0
406.92096,407.19568,76,56,0
406.92096,407.19568,73,56,0
407.19568,407.29752,76,49,0
407.19568,407.29752,73,49,0
407.29752,407.41162,59,55,0
407.29752,407.46866,74,55,0
407.29752,407.46866,71,55,0
407.41162,407.5257,61,56,0
407.5257,407.6398,62,54,0
407.6398,407.75388,64,57,0
407.75388,407.86798,66,60,0
407.86798,407.98206,68,62,0
407.98206,408.85162,69,80,0
407.98206,408.85162,81,94,0
407.98206,408.85162,76,80,0
407.98206,408.85162,73,80,0
408.85162,409.16895,75,63,0
408.85162,409.16895,72,54,0
409.19778,409.28433,75,59,0
409.19778,409.28433,72,49,0
409.31317,409.63928,75,63,0
409.31317,409.63928,72,54,0
409.67105,409.7664,75,58,0
409.67105,409.7664,72,49,0
409.7982,410.23615,76,70,0
409.7982,410.23615,73,60,0
410.23615,410.49036,85,49,0
410.49036,410.67578,49,64,0
410.67578,410.7884,50,66,0
410.7884,410.901,49,62,0
410.901,411.0136,47,64,0
411.0136,411.12622,53,65,0
411.12622,411.23886,52,60,0
411.23886,411.37958,50,49,0
411.7209,411.9956,76,56,0
411.7209,411.9956,73,56,0
411.9956,412.09744,76,49,0
411.9956,412.09744,73,49,0
412.09744,412.21155,59,55,0
412.09744,412.2686,74,55,0
412.09744,412.2686,71,55,0
412.21155,412.32562,61,56,0
412.32562,412.43973,62,54,0
412.43973,412.5538,64,57,0
412.5538,412.6679,66,60,0
412.6679,412.7975,68,62,0
412.7975,412.91357,69,57,0
412.91357,413.02942,71,61,0
413.02942,413.14502,73,62,0
413.14502,413.2604,74,63,0
413.2604,413.3755,76,64,0
413.3755,413.49033,78,65,0
413.49033,413.60492,79,66,0
413.60492,413.7193,80,67,0
413.7193,413.83337,81,68,0
413.83337,413.94724,83,69,0
413.94724,414.06082,85,70,0
414.06082,414.1741,86,71,0
414.1741,414.28696,88,75,0
414.28696,414.40018,90,71,0
414.40018,414.5137,88,67,0
414.5137,414.62753,86,63,0
414.62753,414.7417,85,60,0
414.7417,414.8562,83,58,0
414.8562,414.971,81,55,0
414.971,415.08615,83,53,0
415.08615,415.20166,81,50,0
415.20166,415.31744,79,48,0
415.31744,415.4336,78,45,0
415.4336,415.5501,76,43,0
415.5501,415.91486,74,50,0
415.91486,416.0107,66,39,0
416.29825,416.66187,76,49,0
416.66187,416.75278,69,39,0
416.9897,417.03738,69,40,0
417.03738,417.40036,78,49,0
417.40036,417.4948,74,39,0
417.73096,417.7782,74,40,0
417.7782,418.05374,83,55,0
418.05374,418.1456,80,45,0
418.1456,418.42117,83,53,0
418.42117,418.52032,80,46,0
418.52567,418.893,81,50,0
418.8873,418.98532,69,39,0
419.23044,419.27945,69,40,0
419.27945,419.64755,79,49,0
419.64755,419.74557,76,39,0
419.9907,420.0397,76,40,0
420.0397,420.40268,78,49,0
420.40268,420.49713,69,39,0
420.73328,420.78052,69,40,0
420.78052,421.0561,76,55,0
421.0561,421.14795,73,45,0
421.14795,421.4235,76,53,0
421.4235,421.52264,73,46,0
421.52264,421.6384,74,50,0
421.6384,421.75412,69,44,0
421.75412,421.86987,74,38,0
421.86987,421.96695,66,39,0
422.2582,422.37396,76,50,0
422.37396,422.4897,73,44,0
422.4897,422.60544,76,38,0
422.60544,422.70285,69,39,0
422.99506,423.11078,78,50,0
423.11078,423.22653,76,44,0
423.22653,423.34225,78,38,0
423.34225,423.433,74,39,0
423.70523,423.82773,83,55,0
423.82773,423.9502,80,47,0
423.9502,424.07266,83,47,0
424.07266,424.19513,86,55,0
424.19513,424.31763,83,47,0
424.31763,424.4474,80,47,0
424.4474,424.5631,81,50,0
424.5631,424.67886,78,44,0
424.67886,424.7946,81,38,0
424.7946,424.8923,69,39,0
425.1855,425.3012,79,50,0
425.3012,425.41696,78,44,0
425.41696,425.53268,79,38,0
425.53268,425.6304,76,39,0
425.92358,426.0393,78,50,0
426.0393,426.15506,74,44,0
426.15506,426.27078,78,38,0
426.27078,426.3682,69,39,0
426.6604,426.93597,76,55,0
426.93597,427.02783,73,45,0
427.02783,427.3034,76,53,0
427.3034,427.42914,73,46,0
427.42914,427.5854,76,78,0
427.5854,427.74164,67,62,0
427.74164,427.91785,76,62,0
427.91785,428.73816,60,78,0
428.73816,428.85535,67,59,0
428.73816,428.85535,76,59,0
428.85535,429.2069,60,78,0
429.2069,429.33847,67,62,0
429.33847,429.48206,76,75,0
429.48206,429.62564,67,56,0
429.62564,429.79257,76,56,0
429.79257,430.61288,60,74,0
430.61288,430.73007,67,59,0
430.61288,430.73007,76,59,0
430.73007,431.55038,60,74,0
431.55038,431.68256,76,62,0
431.55038,431.68256,67,52,0
431.68256,432.47922,60,74,0
432.47922,432.59302,76,62,0
432.47922,432.59302,67,52,0
432.59302,432.93445,60,74,0
432.93445,433.04825,67,52,0
432.93445,433.04825,76,62,0
433.04825,433.1939,77,79,0
433.1939,433.3396,69,62,0
433.3396,433.52225,77,62,0
433.52225,434.33304,81,81,0
434.33304,434.44888,69,59,0
434.44888,434.79636,81,74,0
434.44888,434.79636,77,62,0
434.79636,434.93335,69,62,0
434.93335,435.08063,77,71,0
435.08063,435.2279,69,56,0
435.2279,435.40646,77,56,0
435.40646,436.22678,81,74,0
436.22678,436.35284,69,59,0
436.35284,437.17316,81,74,0
436.35284,437.17316,77,74,0
437.17316,437.29837,69,62,0
437.29837,438.12512,81,80,0
437.29837,438.12512,77,74,0
438.12512,438.26895,69,53,0
438.26895,439.1296,81,63,0
438.26895,439.1296,79,57,0
438.26895,439.1296,73,57,0
439.1296,439.2796,69,42,0
439.2796,439.68683,81,53,0
439.2796,439.68683,79,44,0
439.2796,439.68683,73,44,0
439.68683,439.82257,69,42,0
439.82257,440.25116,81,48,0
439.82257,440.25116,79,41,0
439.82257,440.25116,73,41,0
440.25116,440.42258,69,39,0
440.42258,440.86594,81,44,0
440.42258,440.86594,79,37,0
440.42258,440.86594,73,37,0
440.86594,441.05582,69,35,0
441.05582,441.143,81,50,0
441.05582,441.143,78,42,0
441.05582,441.143,74,42,0
441.1721,441.28836,69,39,0
441.28836,441.40454,74,41,0
441.40454,441.52014,78,42,0
441.52014,441.63544,81,44,0
441.63544,441.75046,86,45,0
441.75046,441.86523,81,47,0
441.86523,441.9797,74,45,0
441.9797,442.09393,78,49,0
442.09393,442.20908,81,52,0
442.20908,442.325,86,52,0
442.325,442.4512,90,47,0
442.4512,442.56516,81,52,0
442.56516,442.67914,83,45,0
442.67914,442.7931,81,45,0
442.7931,442.90903,79,52,0
442.90903,443.02496,83,47,0
443.02496,443.14093,79,47,0
443.14093,443.25687,78,53,0
443.25687,443.3728,81,47,0
443.3728,443.48874,78,47,0
443.48874,443.60468,76,52,0
443.60468,443.7206,79,47,0
443.7206,443.8456,76,47,0
443.8456,443.9619,74,50,0
443.9619,444.0782,69,39,0
444.0782,444.19437,74,41,0
444.19437,444.30997,78,42,0
444.30997,444.42526,81,44,0
444.42526,444.54028,86,45,0
444.54028,444.65503,81,47,0
444.65503,444.76953,74,45,0
444.76953,444.88373,78,49,0
444.88373,444.9989,81,52,0
444.9989,445.11484,86,52,0
445.11484,445.24103,90,47,0
445.24103,445.35498,81,52,0
445.35498,445.46893,83,45,0
445.46893,445.58292,81,45,0
445.58292,445.69885,79,52,0
445.69885,445.8148,81,47,0
445.8148,445.93073,79,47,0
445.93073,446.04666,78,53,0
446.04666,446.16263,79,47,0
446.16263,446.27856,78,47,0
446.27856,446.3945,76,52,0
446.3945,446.51044,78,47,0
446.51044,446.6586,76,47,0
446.6586,446.78436,66,42,0
446.78436,446.91016,69,37,0
446.91016,447.03595,66,37,0
447.03595,447.16174,69,43,0
447.16174,447.2875,74,36,0
447.2875,447.4112,69,37,0
447.42886,447.55505,69,43,0
447.55505,447.6812,73,37,0
447.6812,447.8074,69,38,0
447.8074,447.9336,73,43,0
447.9336,448.05978,76,39,0
448.05978,448.2011,73,39,0
448.2011,448.3261,69,43,0
448.3261,448.4511,74,38,0
448.4511,448.5761,69,38,0
448.5761,448.7011,74,43,0
448.7011,448.8261,78,38,0
448.8261,448.94638,74,38,0
448.96356,449.08554,74,43,0
449.08554,449.2075,77,37,0
449.2075,449.32944,74,37,0
449.32944,449.4514,77,43,0
449.4514,449.57333,80,37,0
449.57333,449.70624,77,37,0
449.70624,449.83008,74,42,0
449.83008,449.9539,78,37,0
449.9539,450.07773,74,37,0
450.07773,450.20157,78,43,0
450.20157,450.3254,81,36,0
450.3254,450.44778,78,37,0
450.46527,450.5891,69,43,0
450.5891,450.71295,76,37,0
450.71295,450.8368,69,38,0
450.8368,450.96063,76,43,0
450.96063,451.08447,79,39,0
451.08447,451.22385,76,39,0
451.22385,451.3477,69,43,0
451.3477,451.47153,74,38,0
451.47153,451.59537,69,38,0
451.59537,451.7192,74,43,0
451.7192,451.84305,78,38,0
451.84305,451.96332,74,38,0
451.9805,452.10025,69,43,0
452.10025,452.22003,73,37,0
452.22003,452.33978,69,37,0
452.33978,452.45953,73,43,0
452.45953,452.5793,76,37,0
452.5793,452.74878,73,37,0
452.74878,452.87262,78,42,0
452.87262,452.99646,81,37,0
452.99646,453.1203,78,37,0
453.1203,453.24414,81,43,0
453.24414,453.36798,86,36,0
453.36798,453.49036,81,37,0
453.50784,453.63168,81,43,0
453.63168,453.75552,85,37,0
453.75552,453.87936,81,38,0
453.87936,454.0032,85,43,0
454.0032,454.12704,88,39,0
454.12704,454.26642,85,39,0
454.26642,454.39026,81,50,0
454.39026,454.5141,86,41,0
454.5141,454.63794,81,41,0
454.63794,454.76178,86,48,0
454.76178,454.88562,90,38,0
454.88562,455.0059,86,38,0
455.02307,455.14282,86,47,0
455.14282,455.26257,89,40,0
455.26257,455.38235,86,40,0
455.38235,455.5021,89,49,0
455.5021,455.62186,92,43,0
455.62186,455.79135,89,43,0
455.79135,455.9133,86,55,0
455.9133,456.03525,89,49,0
456.03525,456.15723,86,49,0
456.15723,456.27917,89,55,0
456.27917,456.40112,92,49,0
456.40112,456.514,89,49,0
456.53015,456.6521,86,43,0
456.6521,456.77405,89,37,0
456.77405,456.896,86,37,0
456.896,457.01794,89,43,0
457.01794,457.1399,92,37,0
457.1399,457.2859,89,37,0
457.2859,457.40674,86,43,0
457.40674,457.5276,89,38,0
457.5276,457.64844,86,38,0
457.64844,457.7693,89,43,0
457.7693,457.8901,92,38,0
457.8901,458.00302,89,38,0
458.01917,458.13892,86,43,0
458.13892,458.25867,89,37,0
458.25867,458.37845,86,37,0
458.37845,458.4982,89,43,0
458.4982,458.61795,94,37,0
458.61795,458.75085,89,37,0
458.75085,458.87317,86,43,0
458.87317,458.99548,89,38,0
458.99548,459.11783,86,38,0
459.11783,459.24014,89,43,0
459.24014,459.36246,94,38,0
459.36246,459.47537,89,38,0
459.4915,459.61383,86,43,0
459.61383,459.73615,89,37,0
459.73615,459.85846,86,36,0
459.85846,459.9808,89,42,0
459.9808,460.10312,94,36,0
460.10312,460.2491,89,36,0
460.2491,460.37296,87,41,0
460.37296,460.4968,91,36,0
460.4968,460.6206,87,36,0
460.6206,460.74445,91,40,0
460.74445,460.8683,94,36,0
460.8683,460.98535,91,35,0
461.00208,461.12668,85,39,0
461.12668,461.2513,88,34,0
461.2513,461.37592,85,34,0
461.37592,461.50052,88,39,0
461.50052,461.62512,93,33,0
461.62512,461.77112,88,33,0
461.77112,461.8973,86,38,0
461.8973,462.02347,90,33,0
462.02347,462.14966,86,33,0
462.14966,462.27585,90,37,0
462.27585,462.40204,93,33,0
462.40204,462.5223,90,33,0
462.5395,462.66608,79,36,0
462.66608,462.79266,86,31,0
462.79266,462.91132,79,31,0
462.91922,463.0458,86,36,0
463.0458,463.1724,91,31,0
463.1724,463.3184,86,30,0
463.3184,463.44498,81,35,0
463.44498,463.57156,86,31,0
463.57156,463.69812,81,30,0
463.69812,463.8247,86,34,0
463.8247,463.9513,90,30,0
463.9513,464.06915,86,30,0
464.08597,464.21295,81,33,0
464.21295,464.33994,88,28,0
464.33994,464.45898,85,28,0
464.46692,464.5939,81,33,0
464.5939,464.7209,79,28,0
464.7209,464.86688,76,28,0
464.86688,464.9754,72,87,0
464.9754,465.08392,74,55,0
465.08392,465.19244,72,55,0
465.19244,465.30096,69,61,0
465.30096,465.4095,66,55,0
465.4095,465.52325,62,55,0
465.52325,465.63147,60,75,0
465.63147,465.7397,62,48,0
465.7397,465.84793,60,48,0
465.84793,465.95615,62,54,0
465.95615,466.06436,60,50,0
466.06436,466.18484,62,50,0
466.18484,466.29337,70,84,0
466.29337,466.4019,74,55,0
466.4019,466.5104,72,55,0
466.5104,466.61893,70,61,0
466.61893,466.72745,65,55,0
466.72745,466.84122,62,55,0
466.84122,466.94943,58,77,0
466.94943,467.05765,62,48,0
467.05765,467.1659,58,48,0
467.1659,467.2741,62,54,0
467.2741,467.38232,58,50,0
467.38232,467.51434,62,50,0
467.51434,467.62286,72,88,0
467.62286,467.73138,74,55,0
467.73138,467.8399,72,55,0
467.8399,467.94843,69,61,0
467.94843,468.05695,66,55,0
468.05695,468.17072,62,55,0
468.17072,468.27893,60,75,0
468.27893,468.38715,62,48,0
468.38715,468.4954,60,48,0
468.4954,468.6036,62,54,0
468.6036,468.71182,60,50,0
468.71182,468.83417,62,50,0
468.83417,468.94266,70,87,0
468.94266,469.05118,74,55,0
469.05118,469.1597,72,55,0
469.1597,469.26822,70,61,0
469.26822,469.37674,65,55,0
469.37674,469.4905,62,55,0
469.4905,469.59872,58,77,0
469.59872,469.70697,62,48,0
469.70697,469.8152,58,48,0
469.8152,469.9234,62,54,0
469.9234,470.03165,58,50,0
470.03165,470.14572,62,50,0
470.4997,470.77444,81,44,0
470.4997,470.77444,78,44,0
470.77444,470.87628,81,39,0
470.77444,470.87628,78,39,0
470.87628,470.9953,67,44,0
470.87628,471.05484,79,44,0
470.87628,471.05484,76,44,0
470.9953,471.11435,69,44,0
471.11435,471.2334,71,43,0
471.2334,471.35245,73,45,0
471.35245,471.4715,74,48,0
471.4715,471.5992,76,49,0
471.5992,471.71716,78,45,0
471.71716,471.83475,79,48,0
471.83475,471.94986,81,48,0
471.95203,472.06897,83,50,0
472.06897,472.18552,85,52,0
472.18552,472.30746,86,52,0
472.30746,472.42322,88,54,0
472.42322,472.53928,90,56,0
472.53928,472.655,91,56,0
472.655,472.7708,93,58,0
472.7708,472.88754,95,60,0
472.88754,473.02127,97,60,0
473.02127,473.13916,98,62,0
473.13916,473.25287,97,62,0
473.25287,473.36728,95,60,0
473.36728,473.4823,93,60,0
473.4823,473.598,91,58,0
473.598,473.72018,90,56,0
473.72018,473.8335,88,55,0
473.8335,473.94696,86,54,0
473.94696,474.06097,85,52,0
474.06097,474.17545,83,51,0
474.17545,474.29047,81,50,0
474.29047,474.4055,79,48,0
474.4055,474.5188,78,46,0
474.5188,474.63306,76,45,0
474.63306,474.74817,74,44,0
474.74817,474.86414,73,43,0
474.86414,474.98108,71,41,0
474.98108,475.10263,69,40,0
475.10263,475.21887,67,40,0
475.21887,475.33636,71,39,0
475.33636,475.4551,69,37,0
475.4551,475.57516,67,35,0
475.57516,475.69604,66,33,0
475.69604,475.8364,64,31,0
475.8364,475.94492,72,83,0
475.94492,476.05344,74,55,0
476.05344,476.16196,72,55,0
476.16196,476.27048,69,61,0
476.27048,476.379,66,55,0
476.379,476.49277,62,55,0
476.49277,476.60098,60,75,0
476.60098,476.7092,62,48,0
476.7092,476.81744,60,48,0
476.81744,476.92566,62,54,0
476.92566,477.03387,60,50,0
477.03387,477.15472,62,50,0
477.15472,477.26324,70,84,0
477.26324,477.37177,74,55,0
477.37177,477.4803,72,55,0
477.4803,477.5888,70,61,0
477.5888,477.69733,65,55,0
477.69733,477.8111,62,55,0
477.8111,477.9193,58,77,0
477.9193,478.02756,62,48,0
478.02756,478.13577,58,48,0
478.13577,478.244,62,54,0
478.244,478.3522,58,50,0
478.3522,478.48422,62,50,0
478.48422,478.59262,70,84,0
478.59262,478.70102,72,55,0
478.70102,478.80945,70,55,0
478.80945,478.91785,67,61,0
478.91785,479.02625,64,55,0
479.02625,479.14,60,55,0
479.14,479.24823,58,77,0
479.24823,479.35645,60,48,0
479.35645,479.4647,58,48,0
479.4647,479.5729,60,54,0
479.5729,479.68112,58,50,0
479.68112,479.81314,60,50,0
479.81314,479.92166,68,84,0
479.92166,480.03018,72,55,0
480.03018,480.1387,70,55,0
480.1387,480.24722,68,70,0
480.24722,480.35574,63,55,0
480.35574,480.4695,60,55,0
480.4695,480.57773,56,77,0
480.57773,480.68594,60,48,0
480.68594,480.7942,56,48,0
480.7942,480.9024,60,54,0
480.9024,481.01062,56,50,0
481.01062,481.14264,60,50,0
481.14264,481.25116,68,84,0
481.25116,481.35968,70,55,0
481.35968,481.4682,68,55,0
481.4682,481.57672,65,71,0
481.57672,481.68524,62,55,0
481.68524,481.799,58,55,0
481.799,481.9075,66,84,0
481.9075,482.01602,70,55,0
482.01602,482.12454,66,55,0
482.12454,482.23306,61,61,0
482.23306,482.34158,58,55,0
482.34158,482.45535,54,55,0
482.45535,482.56387,67,84,0
482.56387,482.6724,69,55,0
482.6724,482.7809,67,55,0
482.7809,482.88943,64,61,0
482.88943,482.99796,61,55,0
482.99796,483.11172,57,55,0
483.11172,483.22025,65,84,0
483.22025,483.32877,69,55,0
483.32877,483.43726,65,55,0
483.43726,483.54578,60,61,0
483.54578,483.6543,57,55,0
483.6543,483.76807,53,55,0
483.76807,483.8766,58,84,0
483.8766,483.9851,62,55,0
483.9851,484.09363,58,55,0
484.09363,484.20215,53,61,0
484.20215,484.31067,50,55,0
484.31067,484.42444,46,55,0
484.42444,484.53265,50,69,0
484.53265,484.64087,46,43,0
484.64087,484.7491,50,43,0
484.7491,484.85733,46,48,0
484.85733,484.96555,50,45,0
484.96555,485.09756,46,45,0
485.09756,485.20657,50,56,0
485.20657,485.31555,46,39,0
485.31555,485.42456,50,39,0
485.42456,485.53354,46,42,0
485.53354,485.64252,50,39,0
485.64252,485.77454,46,38,0
485.77454,485.88452,50,46,0
485.88452,485.9956,46,34,0
485.9956,486.10767,50,33,0
486.10767,486.22076,46,36,0
486.22076,486.3349,50,33,0
486.3349,486.46692,46,32,0
486.8209,487.10303,66,44,0
486.8209,487.10303,69,44,0
487.10303,487.20486,69,39,0
487.10303,487.20486,66,39,0
487.20486,487.32425,55,44,0
487.20486,487.38397,67,44,0
487.20486,487.38397,64,44,0
487.32425,487.44366,57,44,0
487.44366,487.56308,59,43,0
487.56308,487.68246,61,45,0
487.68246,487.80188,62,48,0
487.80188,487.9311,64,49,0
487.9311,488.05005,66,45,0
488.05005,488.16858,67,48,0
488.16858,488.2844,69,48,0
488.2866,488.40414,71,50,0
488.40414,488.5212,73,52,0
488.5212,488.64328,74,52,0
488.64328,488.76013,76,54,0
488.76013,488.8767,78,56,0
488.8767,488.9929,79,56,0
488.9929,489.10883,81,58,0
489.10883,489.22504,83,60,0
489.22504,489.3586,85,60,0
489.3586,489.47647,74,51,0
489.47647,489.59158,76,51,0
489.59158,489.70605,78,52,0
489.70605,489.8214,79,53,0
489.8214,489.93756,81,53,0
489.93756,490.05988,83,54,0
490.05988,490.1736,85,55,0
490.1736,490.28766,86,55,0
490.28766,490.40213,88,56,0
490.40213,490.51706,90,56,0
490.51706,490.63248,91,57,0
490.63248,490.7476,93,58,0
490.7476,490.8618,81,58,0
490.8618,490.97705,83,59,0
490.97705,491.09332,85,60,0
491.09332,491.21063,86,60,0
491.21063,491.32904,88,61,0
491.32904,491.45523,90,62,0
491.45523,491.57257,91,62,0
491.57257,491.69092,93,63,0
491.69092,491.81033,95,64,0
491.81033,491.93082,97,64,0
491.93082,492.05237,98,65,0
492.05237,492.19858,100,65,0
492.19858,492.3152,86,73,0
492.3152,492.4318,88,62,0
492.4318,492.54843,86,63,0
492.54843,492.66504,90,73,0
492.66504,492.78165,98,63,0
492.78165,492.8983,90,64,0
492.8983,493.0139,86,71,0
493.0139,493.1295,88,65,0
493.1295,493.2451,86,66,0
493.2451,493.36072,86,71,0
493.36072,493.47632,98,63,0
493.47632,493.5935,86,63,0
493.60132,493.7176,81,72,0
493.7176,493.83386,90,61,0
493.83386,493.95013,81,61,0
493.95013,494.06955,90,66,0
494.06955,494.18896,93,67,0
494.18896,494.30835,90,62,0
494.30835,494.4233,81,72,0
494.4233,494.53824,90,62,0
494.53824,494.6532,81,62,0
494.6532,494.7688,90,73,0
494.7688,494.8844,93,64,0
494.8844,495.009,90,64,0
495.009,495.1246,78,73,0
495.1246,495.24023,86,65,0
495.24023,495.35583,78,65,0
495.35583,495.47348,86,73,0
495.47348,495.59113,90,65,0
495.59113,495.70877,86,65,0
495.70877,495.8234,78,75,0
495.8234,495.938,86,67,0
495.938,496.0526,78,67,0
496.0526,496.16888,86,76,0
496.16888,496.28516,90,70,0
496.28516,496.40146,86,70,0
496.40146,496.51672,74,76,0
496.51672,496.632,78,70,0
496.632,496.74728,74,70,0
496.74728,496.8639,78,79,0
496.8639,496.9805,86,71,0
496.9805,497.08984,78,71,0
497.09714,497.21207,74,80,0
497.21207,497.327,78,72,0
497.327,497.44196,74,73,0
497.44196,497.56064,78,81,0
497.56064,497.67935,86,74,0
497.67935,497.85324,78,74,0
497.85324,498.68314,74,89,0
497.85324,498.68314,86,105,0
497.85324,498.68314,81,89,0
497.85324,498.68314,78,89,0
498.68314,498.76813,74,86,0
498.68314,498.76813,66,73,0
498.8531,498.93808,74,80,0
498.8531,498.93808,66,66,0
499.02307,499.10483,74,86,0
499.02307,499.10483,66,73,0
499.18655,499.2783,74,79,0
499.18655,499.2783,66,66,0
499.37006,499.69614,74,95,0
499.37006,499.69614,66,81,0
499.69614,499.8721,76,82,0
499.69614,499.8721,69,69,0
500.04803,500.37592,76,95,0
500.04803,500.37592,69,81,0
500.37592,500.55032,78,82,0
500.37592,500.55032,74,69,0
500.72473,501.05173,78,95,0
500.72473,501.05173,74,81,0
501.05173,501.22513,76,82,0
501.05173,501.22513,69,69,0
501.39853,501.48007,76,86,0
501.39853,501.48007,69,73,0
501.56158,501.6431,76,80,0
501.56158,501.6431,69,66,0
501.72464,501.80338,76,86,0
501.72464,501.80338,69,73,0
501.8821,501.97192,76,79,0
501.8821,501.97192,69,66,0
502.06174,502.38174,76,95,0
502.06174,502.38174,69,81,0
502.38174,502.55515,81,82,0
502.38174,502.55515,78,69,0
502.72858,503.04773,81,95,0
502.72858,503.04773,78,81,0
503.04773,503.22113,79,82,0
503.04773,503.22113,73,69,0
503.39453,503.71115,79,95,0
503.39453,503.71115,73,81,0
503.71115,503.88458,78,82,0
503.71115,503.88458,74,69,0
504.05798,504.13412,86,90,0
504.05798,504.13412,74,76,0
504.05798,504.13412,78,76,0
504.05798,504.13412,83,76,0
504.21027,504.2864,86,84,0
504.21027,504.2864,74,69,0
504.21027,504.2864,78,69,0
504.21027,504.2864,83,69,0
504.36255,504.4387,86,90,0
504.36255,504.4387,74,76,0
504.36255,504.4387,78,76,0
504.36255,504.4387,83,76,0
504.51483,504.6003,86,82,0
504.51483,504.6003,74,69,0
504.51483,504.6003,78,69,0
504.51483,504.6003,83,69,0
504.6858,505.00156,86,99,0
504.6858,505.00156,74,85,0
504.6858,505.00156,78,85,0
504.6858,505.00156,83,85,0
505.00156,505.16916,83,86,0
505.00156,505.16916,78,72,0
505.00156,505.16916,71,72,0
505.33676,505.42346,81,87,0
505.33676,505.42346,69,74,0
505.33676,505.42346,74,74,0
505.33676,505.42346,78,74,0
505.6836,505.77478,78,75,0
505.6836,505.77478,74,63,0
505.6836,505.77478,69,63,0
506.04834,506.71872,76,87,0
506.04834,506.71872,73,74,0
506.04834,506.71872,69,74,0
506.71872,506.79486,77,90,0
506.71872,506.79486,65,69,0
506.871,506.94714,77,84,0
506.871,506.94714,65,69,0
507.0233,507.09943,77,90,0
507.0233,507.09943,65,76,0
507.17557,507.26105,77,82,0
507.17557,507.26105,65,69,0
507.3465,507.6623,81,99,0
507.3465,507.6623,78,85,0
507.6623,507.8299,78,86,0
507.6623,507.8299,74,72,0
507.3465,507.8299,69,85,0
507.9975,508.0842,78,87,0
507.9975,508.0842,74,74,0
507.9975,508.0842,69,74,0
508.34433,508.43552,76,75,0
508.34433,508.43552,73,63,0
508.34433,508.43552,69,63,0
508.70905,509.04425,74,87,0
508.70905,509.04425,69,74,0
508.70905,509.04425,66,74,0
509.04425,509.53174,77,90,0
509.04425,509.53174,65,69,0
509.53174,509.60788,77,84,0
509.53174,509.60788,65,69,0
509.68402,509.76016,77,90,0
509.68402,509.76016,65,76,0
509.8363,509.92178,77,82,0
509.8363,509.92178,65,69,0
510.00723,510.32303,81,99,0
510.00723,510.32303,78,85,0
510.32303,510.49063,78,86,0
510.32303,510.49063,74,72,0
510.00723,510.49063,69,85,0
510.65823,510.74493,78,87,0
510.65823,510.74493,74,74,0
510.65823,510.74493,69,74,0
511.00507,511.09622,76,75,0
511.00507,511.09622,73,63,0
511.00507,511.09622,69,63,0
511.36978,511.705,74,87,0
511.36978,511.705,69,74,0
511.36978,511.705,66,74,0
511.705,512.19244,89,98,0
511.705,512.19244,86,75,0
511.705,512.19244,80,75,0
512.19244,512.2686,89,92,0
512.19244,512.2686,86,75,0
512.19244,512.2686,80,75,0
512.3447,512.4209,89,98,0
512.3447,512.4209,86,83,0
512.3447,512.4209,80,83,0
512.497,512.5825,89,90,0
512.497,512.5825,86,75,0
512.497,512.5825,80,75,0
512.66797,512.98376,93,109,0
512.66797,512.98376,90,93,0
512.98376,513.15137,90,94,0
512.98376,513.15137,86,79,0
512.66797,513.15137,81,93,0
513.319,513.40564,90,95,0
513.319,513.40564,86,81,0
513.319,513.40564,81,81,0
513.6658,513.75696,88,82,0
513.6658,513.75696,85,69,0
513.6658,513.75696,81,69,0
514.0305,514.1318,93,69,0
514.1318,514.23303,90,61,0
514.23303,514.33435,81,61,0
514.33435,514.4385,86,69,0
514.4385,514.54266,90,62,0
514.54266,514.64685,95,62,0
514.64685,514.74884,93,69,0
514.74884,514.8509,90,62,0
514.8509,514.95294,81,62,0
514.95294,515.059,88,69,0
515.059,515.16516,85,62,0
515.16516,515.27124,81,62,0
515.27124,515.37024,93,69,0
515.37024,515.46924,90,61,0
515.46924,515.5683,81,61,0
515.5683,515.6722,86,69,0
515.6722,515.77606,90,62,0
515.77606,515.87994,95,62,0
515.87994,515.9812,93,69,0
515.9812,516.0825,90,62,0
516.0825,516.1838,81,62,0
516.1838,516.2893,88,69,0
516.2893,516.39484,85,62,0
516.39484,516.50037,81,62,0
516.50037,516.59937,93,69,0
516.59937,516.6984,81,61,0
516.6984,516.7974,86,61,0
516.7974,516.90106,90,69,0
516.90106,517.0047,93,62,0
517.0047,517.1083,98,62,0
517.1083,517.20905,93,69,0
517.20905,517.3098,90,62,0
517.3098,517.4106,95,62,0
517.4106,517.51984,93,69,0
517.51984,517.62915,91,62,0
517.62915,517.7384,88,62,0
517.7384,517.8152,86,93,0
517.94305,518.04535,52,50,0
518.04535,518.1458,54,54,0
518.1458,518.24634,52,50,0
518.24634,518.34686,50,51,0
518.34686,518.4469,55,57,0
518.4469,518.5467,54,53,0
518.5467,518.6462,52,53,0
518.6462,518.7455,57,59,0
518.7455,518.8445,55,55,0
518.8445,518.94324,54,56,0
518.94324,519.0416,59,61,0
519.0416,519.1401,57,57,0
519.1401,519.2385,55,58,0
519.2385,519.3369,61,65,0
519.3369,519.43536,59,60,0
519.43536,519.53375,57,62,0
519.53375,519.6315,62,69,0
519.6315,519.7292,61,65,0
519.7292,519.8269,59,65,0
519.8269,519.9246,64,73,0
519.9246,520.0223,62,68,0
520.0223,520.13983,61,68,0
520.13983,520.7289,66,86,0
520.13983,520.7289,61,86,0
520.13983,520.7289,58,86,0
521.318,521.9071,81,94,0
521.318,521.9071,73,94,0
521.318,521.9071,67,94,0
521.318,521.9071,69,94,0
521.318,521.9071,76,94,0
522.4962,523.11096,62,86,0
522.4962,523.11096,57,73,0
522.4962,523.11096,54,73,0
523.11096,523.4341,62,83,0
523.11096,523.4341,57,70,0
523.11096,523.4341,54,70,0
523.4341,523.7815,62,81,0
523.4341,523.7815,57,68,0
523.4341,523.7815,54,68,0
523.7815,523.96643,62,94,0
523.7815,523.96643,57,80,0
523.7815,523.96643,54,80,0
524.5213,524.7063,86,108,0
524.5213,524.7063,74,91,0
524.5213,524.7063,78,91,0
524.5213,524.7063,81,91,0
525.26117,526.001,62,94,0
525.26117,526.001,57,94,0
525.26117,526.001,54,94,0
0.0,0.829876,50,75,0
0.0,0.829876,38,64,0
0.829876,0.9155902,50,53,0
0.829876,0.9155902,42,45,0
1.0013045,1.0870187,50,48,0
1.0013045,1.0870187,42,40,0
1.172733,1.2560662,50,53,0
1.172733,1.2560662,42,45,0
1.3393995,1.4427764,50,48,0
1.3393995,1.4427764,42,40,0
1.5461535,1.9140255,42,49,0
1.9140255,2.0979614,52,54,0
1.9140255,2.0979614,43,45,0
1.5461535,2.0979614,50,58,0
2.2818975,2.3671248,54,53,0
2.2818975,2.3671248,50,45,0
2.2818975,2.3671248,45,45,0
2.452352,2.5375793,54,48,0
2.452352,2.5375793,50,40,0
2.452352,2.5375793,45,40,0
2.6228065,2.7061398,54,53,0
2.6228065,2.7061398,50,45,0
2.6228065,2.7061398,45,45,0
2.789473,2.8935676,54,48,0
2.789473,2.8935676,50,40,0
2.789473,2.8935676,45,40,0
2.997662,3.374783,54,58,0
2.997662,3.374783,45,49,0
3.374783,3.5633435,55,54,0
3.374783,3.5633435,47,45,0
2.997662,3.5633435,50,49,0
3.5633435,3.7412796,52,46,0
3.7412796,3.8560739,55,54,0
3.8560739,3.9706216,54,47,0
3.9706216,4.0851693,52,48,0
4.0851693,4.197782,58,54,0
4.197782,4.310395,57,49,0
4.310395,4.441887,55,49,0
4.441887,4.6182537,57,54,0
4.794621,4.910161,62,42,0
4.910161,5.025701,64,35,0
5.025701,5.141241,66,35,0
5.141241,5.255136,57,43,0
5.255136,5.3690314,61,36,0
5.3690314,5.482927,62,36,0
5.482927,5.5968223,64,43,0
5.5968223,5.7107177,66,37,0
5.7107177,5.8656363,67,37,0
5.8656363,6.6841903,50,75,0
5.8656363,6.6841903,38,64,0
6.6841903,6.7696605,50,53,0
6.6841903,6.7696605,41,45,0
6.85513,6.9406004,50,48,0
6.85513,6.9406004,41,40,0
7.02607,7.109636,50,53,0
7.02607,7.109636,41,45,0
7.193201,7.2965784,50,48,0
7.193201,7.2965784,41,40,0
7.3999553,7.7703834,41,49,0
7.7703834,7.9554543,52,54,0
7.7703834,7.9554543,43,45,0
7.3999553,7.9554543,50,58,0
8.140526,8.226981,54,53,0
8.140526,8.226981,50,45,0
8.140526,8.226981,45,45,0
8.313436,8.399891,54,48,0
8.313436,8.399891,50,40,0
8.313436,8.399891,45,40,0
8.486346,8.570853,54,53,0
8.486346,8.570853,50,45,0
8.486346,8.570853,45,45,0
8.65536,8.758738,54,48,0
8.65536,8.758738,50,40,0
8.65536,8.758738,45,40,0
8.862115,9.23688,54,58,0
8.862115,9.23688,45,49,0
9.23688,9.424264,55,54,0
9.23688,9.424264,46,45,0
8.862115,9.424264,50,49,0
9.611647,9.69983,56,53,0
9.611647,9.69983,53,45,0
9.611647,9.69983,47,45,0
9.788013,9.876197,56,48,0
9.788013,9.876197,53,40,0
9.788013,9.876197,47,40,0
9.96438,10.050588,56,53,0
9.96438,10.050588,53,45,0
9.96438,10.050588,47,45,0
10.136794,10.250002,56,48,0
10.136794,10.250002,53,40,0
10.136794,10.250002,47,40,0
10.36321,11.083779,57,58,0
10.36321,11.083779,48,49,0
10.36321,11.083779,53,49,0
11.083779,11.168959,48,43,0
11.254137,11.339316,48,36,0
11.424496,11.508529,48,43,0
11.592563,11.676596,48,37,0
11.76063,12.1309185,48,43,0
12.1309185,12.303233,45,43,0
12.470522,12.5555315,48,43,0
12.640469,12.725407,48,36,0
12.810345,12.89421,48,43,0
12.978009,13.061808,48,37,0
13.150496,13.5005045,48,43,0
13.86392,13.997173,53,38,0
13.985059,14.118312,55,34,0
14.106197,14.227337,57,31,0
14.227337,14.358602,45,42,0
14.346668,14.477933,46,36,0
14.466,14.585332,48,34,0
14.585332,14.715817,41,43,0
14.703956,14.834442,43,37,0
14.822579,14.941203,45,34,0
14.941203,15.069484,33,46,0
15.057821,15.186101,34,40,0
15.174439,15.291058,36,37,0
15.291058,15.417132,33,56,0
15.405671,15.531746,34,50,0
15.520284,15.634897,36,47,0
15.634897,15.758493,33,60,0
15.747257,15.874768,34,54,0
15.859617,16.011131,36,50,0
16.011131,16.101711,37,70,0
16.19531,16.28589,37,35,0
16.373451,16.464031,37,35,0
16.554611,16.64519,37,35,0
16.73577,17.458616,37,46,0
17.458616,17.547585,37,37,0
17.458616,17.547585,49,44,0
17.636553,17.725521,49,35,0
17.639519,17.728487,37,29,0
17.81449,17.903458,49,35,0
17.81449,17.903458,37,29,0
17.992426,18.081392,37,29,0
17.992426,18.081392,49,35,0
18.17036,18.881874,37,46,0
18.17036,18.881874,49,55,0
18.881874,18.970058,33,51,0
18.881874,18.970058,45,61,0
19.05824,19.146425,45,48,0
19.05824,19.146425,33,39,0
19.234608,19.322792,45,48,0
19.234608,19.322792,33,39,0
19.410975,19.499159,33,39,0
19.410975,19.499159,45,49,0
19.587341,20.298855,33,58,0
19.587341,20.298855,45,68,0
20.298855,20.387823,33,64,0
20.298855,20.387823,45,78,0
20.476791,20.56576,45,62,0
20.476791,20.56576,33,51,0
20.654728,20.743694,45,64,0
20.654728,20.743694,33,52,0
20.832663,20.92163,33,55,0
20.832663,20.92163,45,67,0
21.0106,21.753206,33,79,0
21.0106,21.753206,45,94,0
21.753206,22.583082,50,86,0
21.753206,22.583082,45,73,0
21.753206,22.583082,42,73,0
21.753206,22.583082,38,73,0
22.583082,22.668068,50,51,0
22.583082,22.668068,42,43,0
22.753054,22.83804,50,46,0
22.753054,22.83804,42,39,0
22.923025,23.006126,50,51,0
22.923025,23.006126,42,43,0
23.08923,23.192606,50,46,0
23.08923,23.192606,42,39,0
23.295984,23.663855,42,47,0
23.663855,23.847792,52,52,0
23.663855,23.847792,43,43,0
23.295984,23.847792,50,56,0
24.031727,24.14434,45,53,0
24.14434,24.256952,47,48,0
24.256952,24.369566,48,48,0
24.369566,24.478558,50,53,0
24.478558,24.58755,52,49,0
24.58755,24.728294,54,48,0
24.728294,24.902714,46,53,0
24.902714,25.077131,54,49,0
25.077131,25.25155,47,53,0
25.25155,25.450752,55,48,0
25.450752,25.536222,57,51,0
25.450752,25.536222,55,43,0
25.450752,25.536222,49,43,0
25.621693,25.707163,57,46,0
25.621693,25.707163,55,39,0
25.621693,25.707163,49,39,0
25.792633,25.875967,57,51,0
25.792633,25.875967,55,43,0
25.792633,25.875967,49,43,0
25.9593,26.062677,57,46,0
25.9593,26.062677,55,39,0
25.9593,26.062677,49,39,0
26.166054,26.533926,57,56,0
26.166054,26.533926,49,47,0
26.533926,26.717861,59,52,0
26.533926,26.717861,50,43,0
26.166054,26.717861,55,47,0
26.901798,27.01441,50,53,0
27.01441,27.127024,52,48,0
27.127024,27.239635,54,48,0
27.239635,27.348627,55,53,0
27.348627,27.457619,57,49,0
27.457619,27.598366,59,48,0
27.598366,27.773293,51,53,0
27.773293,27.94822,59,49,0
27.94822,28.123146,52,53,0
28.123146,28.298073,60,48,0
28.298073,28.383059,61,51,0
28.298073,28.383059,58,43,0
28.298073,28.383059,52,43,0
28.468044,28.55303,61,46,0
28.468044,28.55303,58,39,0
28.468044,28.55303,52,39,0
28.638016,28.721119,61,51,0
28.638016,28.721119,58,43,0
28.638016,28.721119,52,43,0
28.80422,28.907598,61,46,0
28.80422,28.907598,58,39,0
28.80422,28.907598,52,39,0
29.010975,29.378847,61,56,0
29.010975,29.378847,52,47,0
29.378847,29.562782,62,52,0
29.378847,29.562782,53,43,0
29.010975,29.562782,58,47,0
29.74672,29.859331,53,53,0
29.859331,29.971945,55,48,0
29.971945,30.084557,57,48,0
30.084557,30.194447,59,53,0
30.194447,30.304337,60,49,0
30.304337,30.466938,62,48,0
30.466938,30.640852,51,53,0
30.640852,30.771286,58,42,0
30.814764,30.991236,58,53,0
30.991236,31.167706,62,44,0
31.167706,31.253176,46,43,0
31.167706,31.253176,34,36,0
31.338646,31.424116,46,39,0
31.338646,31.424116,34,33,0
31.509586,31.592918,46,43,0
31.509586,31.592918,34,36,0
31.676252,31.779629,46,39,0
31.676252,31.779629,34,33,0
31.883007,32.434814,46,47,0
31.883007,32.434814,34,39,0
32.61875,32.73136,53,45,0
32.73136,32.843975,55,40,0
32.843975,32.95659,57,40,0
32.95659,33.06648,58,45,0
33.06648,33.17637,60,41,0
33.17637,33.317116,62,40,0
33.317116,33.49505,51,52,0
33.49505,33.6285,58,41,0
33.672985,33.85092,58,52,0
33.85092,34.02886,62,40,0
34.02886,34.11313,46,43,0
34.02886,34.11313,34,36,0
34.1974,34.281666,46,39,0
34.1974,34.281666,34,33,0
34.365936,34.448353,46,43,0
34.365936,34.448353,34,36,0
34.530773,34.634148,46,39,0
34.530773,34.634148,34,33,0
34.737526,35.289333,46,47,0
34.737526,35.289333,34,39,0
35.47327,35.585884,53,46,0
35.585884,35.698494,55,47,0
35.698494,35.811108,57,48,0
35.811108,35.92372,58,53,0
35.92372,36.036335,60,49,0
36.036335,36.148758,62,48,0
36.148758,36.260414,63,51,0
36.260414,36.371708,65,44,0
36.371708,36.482643,67,44,0
36.482643,36.593258,65,51,0
36.593258,36.70352,63,45,0
36.70352,36.81338,62,45,0
36.81338,36.922813,61,48,0
36.922813,37.032795,58,39,0
37.032795,37.143337,55,39,0
37.143337,37.254444,52,41,0
37.254444,37.36612,49,39,0
37.36612,37.482876,52,40,0
37.482876,37.59411,53,42,0
37.59411,37.705345,50,38,0
37.705345,37.816578,53,38,0
37.816578,37.927814,50,42,0
37.927814,38.039047,46,38,0
38.039047,38.14969,50,38,0
38.14969,38.259884,41,38,0
38.259884,38.369915,43,39,0
38.369915,38.479805,45,41,0
38.479805,38.589546,46,43,0
38.589546,38.69914,48,45,0
38.69914,38.814213,50,46,0
38.814213,38.922836,51,48,0
38.922836,39.030945,53,50,0
39.030945,39.13905,55,51,0
39.13905,39.247158,53,53,0
39.247158,39.355423,51,49,0
39.355423,39.46392,50,51,0
39.46392,39.572655,49,48,0
39.572655,39.68165,46,46,0
39.68165,39.790882,43,45,0
39.790882,39.900352,40,43,0
39.900352,40.010067,37,39,0
40.010067,40.119946,40,36,0
40.119946,40.228115,43,50,0
40.228115,40.335083,40,36,0
40.335083,40.440792,43,36,0
40.440792,40.546917,40,37,0
40.546917,40.655476,37,37,0
40.655476,40.76989,40,38,0
40.76989,40.878487,44,52,0
40.878487,40.986454,40,38,0
40.986454,41.09393,44,39,0
41.09393,41.201046,40,39,0
41.201046,41.30947,37,40,0
41.30947,41.424816,40,40,0
41.424816,41.53228,45,55,0
41.53228,41.63878,40,41,0
41.63878,41.744324,45,42,0
41.744324,41.85016,40,42,0
41.85016,41.957703,37,43,0
41.957703,42.071102,40,43,0
42.071102,42.177197,45,57,0
42.177197,42.282475,40,44,0
42.282475,42.3869,45,45,0
42.3869,42.49117,40,45,0
42.49117,42.59697,36,45,0
42.59697,42.710632,40,46,0
42.710632,42.81605,35,62,0
42.81605,42.92101,41,50,0
42.92101,43.025497,35,51,0
43.025497,43.130783,41,52,0
43.130783,43.23832,47,53,0
43.23832,43.352085,41,54,0
43.352085,43.461193,34,69,0
43.461193,43.57034,41,56,0
43.57034,43.67975,34,58,0
43.67975,43.789394,41,59,0
43.789394,43.899242,46,61,0
43.899242,44.018948,34,62,0
44.018948,44.891674,45,86,0
44.018948,44.891674,33,73,0
44.891674,45.066093,66,51,0
44.891674,45.066093,57,43,0
45.124233,45.298653,66,46,0
45.124233,45.298653,57,39,0
45.356792,45.531208,66,51,0
45.356792,45.531208,57,43,0
45.589348,45.77922,66,46,0
45.589348,45.77922,57,39,0
45.842514,46.280468,69,56,0
46.280468,46.53257,64,37,0
45.842514,46.53257,57,47,0
46.53257,46.717983,37,49,0
46.717983,46.830597,38,53,0
46.830597,46.94321,37,49,0
46.94321,47.05582,35,53,0
47.05582,47.168434,41,56,0
47.168434,47.281048,40,51,0
47.281048,47.421795,38,38,0
47.421795,47.53556,49,47,0
47.421795,47.59244,40,43,0
47.53556,47.649326,50,41,0
47.649326,47.763092,52,41,0
47.763092,47.88519,54,47,0
47.88519,48.00729,56,42,0
48.00729,48.13965,57,42,0
48.36783,48.48192,52,44,0
48.48192,48.59601,50,50,0
48.59601,48.7101,49,53,0
48.7101,48.82419,47,56,0
48.82419,49.693756,45,77,0
48.82419,49.693756,33,65,0
49.693756,50.011063,66,51,0
49.693756,50.011063,57,43,0
50.03991,50.126446,66,46,0
50.03991,50.126446,57,39,0
50.155293,50.4814,66,51,0
50.155293,50.4814,57,43,0
50.51318,50.60852,66,46,0
50.51318,50.60852,57,39,0
50.6403,51.078255,69,56,0
51.078255,51.332493,64,37,0
50.6403,51.332493,57,47,0
51.332493,51.517906,37,49,0
51.517906,51.63052,38,53,0
51.63052,51.743134,37,49,0
51.743134,51.855743,35,53,0
51.855743,51.968357,41,56,0
51.968357,52.08097,40,51,0
52.08097,52.221714,38,38,0
52.221714,52.33548,49,47,0
52.221714,52.392365,40,43,0
52.33548,52.449245,50,41,0
52.449245,52.56301,52,41,0
52.56301,52.685112,54,47,0
52.685112,52.807213,56,42,0
52.807213,52.93957,57,42,0
53.16775,53.28184,52,44,0
53.28184,53.39593,50,50,0
53.39593,53.51002,49,53,0
53.51002,53.63962,47,56,0
53.63962,53.81367,45,57,0
56.392235,56.756977,57,41,0
56.756977,56.852825,49,35,0
57.140366,57.504,59,41,0
57.504,57.59491,52,35,0
57.831825,57.879505,52,33,0
57.879505,58.24248,61,41,0
58.24248,58.336937,57,34,0
58.573086,58.620316,57,33,0
58.620316,58.89588,66,45,0
58.89588,58.987736,63,36,0
58.987736,59.2633,66,43,0
59.2633,59.362442,63,35,0
59.362442,59.726357,64,41,0
59.73268,59.830723,52,35,0
60.07255,60.12157,52,33,0
60.12157,60.48967,62,41,0
60.48967,60.587708,59,35,0
60.832806,60.88183,59,33,0
60.88183,61.244804,61,41,0
61.244804,61.33926,52,34,0
61.57541,61.62264,52,33,0
61.62264,61.898205,59,45,0
61.898205,61.99006,56,36,0
61.99006,62.265625,59,43,0
62.265625,62.364765,56,35,0
62.364765,62.711987,57,41,0
62.364765,62.711987,49,41,0
62.715225,62.812313,52,35,0
63.100338,63.44756,59,41,0
63.100338,63.44756,56,41,0
63.450806,63.54821,52,35,0
63.83717,64.184395,61,41,0
63.83717,64.184395,52,41,0
64.184395,64.27514,57,35,0
64.54737,64.82294,60,38,0
64.54737,64.82294,63,45,0
64.82294,64.91479,57,36,0
64.91479,65.19035,60,36,0
64.91479,65.19035,63,43,0
65.19035,65.2895,57,35,0
65.2895,65.63383,64,41,0
65.2895,65.63672,61,41,0
65.63998,65.73769,52,35,0
66.027596,66.37482,62,41,0
66.027596,66.37482,59,41,0
66.378075,66.4758,52,35,0
66.7657,67.11292,61,41,0
66.7657,67.11292,57,41,0
67.11292,67.21033,52,35,0
67.50253,67.7781,59,45,0
67.50253,67.7781,56,38,0
67.7781,67.86996,52,36,0
67.86996,68.14552,59,43,0
67.86996,68.14552,56,36,0
68.14552,68.271255,52,35,0
68.271255,68.427505,59,69,0
68.427505,68.583755,50,53,0
68.583755,68.759964,59,53,0
68.759964,69.58028,43,71,0
69.58028,69.697464,59,48,0
69.58028,69.697464,50,48,0
69.697464,70.04903,43,62,0
70.04903,70.1806,50,53,0
70.1806,70.32418,59,71,0
70.32418,70.46776,50,53,0
70.46776,70.634705,59,53,0
70.634705,71.45502,43,68,0
71.45502,71.572205,59,48,0
71.45502,71.572205,50,48,0
71.572205,72.39252,43,62,0
72.39252,72.52467,59,53,0
72.39252,72.52467,50,45,0
72.52467,73.321335,43,62,0
73.321335,73.43514,59,53,0
73.321335,73.43514,50,45,0
73.43514,73.776566,43,62,0
73.776566,73.89038,55,53,0
73.89038,74.03604,48,71,0
74.03604,74.18171,55,53,0
74.18171,74.36436,48,53,0
74.36436,75.17517,36,69,0
75.17517,75.291,55,48,0
75.17517,75.291,48,48,0
75.291,75.63849,36,62,0
75.63849,75.775475,55,53,0
75.775475,75.92275,48,62,0
75.92275,76.07002,55,53,0
76.07002,76.2486,48,53,0
76.2486,77.06891,36,62,0
77.06891,77.19496,55,48,0
77.06891,77.19496,48,48,0
77.19496,78.015274,36,62,0
78.015274,78.14048,55,53,0
78.015274,78.14048,48,45,0
78.14048,78.967255,36,62,0
78.967255,79.11107,40,41,0
79.11107,79.971725,35,45,0
79.971725,80.12173,40,33,0
80.12173,80.52896,35,37,0
80.52896,80.66471,40,32,0
80.66471,81.093285,35,34,0
81.093285,81.26471,40,29,0
81.26471,81.70806,35,31,0
81.70806,81.897934,40,27,0
81.897934,81.985146,33,31,0
82.707344,82.82184,57,38,0
82.82184,82.93605,61,40,0
82.93605,83.05121,64,42,0
83.05121,83.16715,69,41,0
83.16715,83.293335,73,38,0
83.293335,83.46427,64,42,0
83.635216,83.72217,52,28,0
83.635216,83.72217,59,28,0
83.635216,83.72217,62,34,0
83.98304,84.07,52,28,0
83.98304,84.07,57,28,0
83.98304,84.07,61,34,0
84.330864,84.41782,52,28,0
84.330864,84.41782,56,28,0
84.330864,84.41782,59,34,0
84.68775,84.86217,61,37,0
84.68775,84.86217,57,31,0
85.49716,85.61166,57,38,0
85.61166,85.72586,61,40,0
85.72586,85.84103,64,42,0
85.84103,85.95697,69,41,0
85.95697,86.08315,73,38,0
86.08315,86.25409,64,42,0
86.425026,86.511986,52,28,0
86.425026,86.511986,59,28,0
86.425026,86.511986,62,34,0
86.77286,86.85981,52,28,0
86.77286,86.85981,57,28,0
86.77286,86.85981,61,34,0
87.12068,87.20764,52,28,0
87.12068,87.20764,56,28,0
87.12068,87.20764,59,34,0
87.50072,87.878075,57,41,0
87.878075,88.06675,49,35,0
88.27099,88.649536,59,40,0
88.649536,88.838806,52,33,0
89.04324,89.41824,61,42,0
89.41824,89.60574,57,34,0
89.8057,90.08009,66,40,0
90.08009,90.171555,63,30,0
90.171555,90.44868,66,37,0
90.44868,90.54835,63,34,0
90.54835,90.91987,64,41,0
90.91987,91.10562,52,35,0
91.3074,91.67892,62,40,0
91.67892,91.86468,59,33,0
92.06597,92.437485,61,42,0
92.437485,92.623245,52,34,0
92.822624,93.09209,59,40,0
93.09209,93.1819,56,30,0
93.1819,93.4638,59,37,0
93.4638,93.59092,52,34,0
93.59092,93.70652,69,43,0
93.70652,93.82213,64,36,0
93.82213,93.93774,69,36,0
93.93774,94.111145,61,42,0
94.3014,94.41734,71,44,0
94.41734,94.53329,68,38,0
94.53329,94.64923,71,38,0
94.64923,94.82314,64,44,0
95.01269,95.12897,73,49,0
95.12897,95.24525,71,41,0
95.24525,95.36153,73,41,0
95.36153,95.53594,69,49,0
95.723114,95.99258,78,49,0
95.99258,96.0824,75,37,0
96.0824,96.35514,78,46,0
96.35514,96.45481,75,43,0
96.45481,96.82066,78,54,0
96.82066,97.00359,75,44,0
97.193596,97.559456,78,42,0
97.559456,97.74238,75,34,0
97.94934,98.31188,78,42,0
98.31188,98.49315,75,41,0
98.6826,98.952065,77,40,0
98.952065,99.041885,75,30,0
99.041885,99.31463,77,37,0
99.31463,99.41429,75,34,0
99.41429,99.781265,77,42,0
99.781265,99.96475,75,34,0
100.154945,100.52192,77,42,0
100.52192,100.70541,75,33,0
100.91255,101.28407,77,40,0
101.28407,101.469826,74,32,0
101.66553,102.03936,76,39,0
102.03936,102.22627,74,31,0
102.43456,102.81312,73,37,0
102.81312,103.00239,76,29,0
103.202934,103.58269,66,36,0
103.58269,103.77256,74,28,0
103.58269,103.77256,69,25,0
103.981834,104.36158,64,34,0
104.36158,104.55145,73,27,0
104.36158,104.55145,69,25,0
104.74943,105.13038,64,33,0
105.13038,105.320854,71,26,0
105.13038,105.320854,68,22,0
105.530334,105.63885,55,74,0
105.63885,105.74737,57,42,0
105.74737,105.85589,55,42,0
105.85589,105.96441,52,48,0
105.96441,106.07292,49,41,0
106.07292,106.18669,45,41,0
106.18669,106.294914,43,60,0
106.294914,106.40314,45,36,0
106.40314,106.51137,43,36,0
106.51137,106.61959,45,44,0
106.61959,106.72781,43,37,0
106.72781,106.8483,45,37,0
106.8483,106.95682,53,73,0
106.95682,107.06534,57,42,0
107.06534,107.17385,53,42,0
107.17385,107.28237,48,48,0
107.28237,107.39089,45,41,0
107.39089,107.504654,41,41,0
107.504654,107.61178,45,62,0
107.61178,107.7189,41,36,0
107.7189,107.82603,45,36,0
107.82603,107.93315,41,44,0
107.93315,108.040276,45,37,0
108.040276,108.17229,41,37,0
108.17229,108.28081,55,73,0
108.28081,108.38933,57,42,0
108.38933,108.49784,55,42,0
108.49784,108.60636,52,48,0
108.60636,108.71488,49,41,0
108.71488,108.82864,45,41,0
108.82864,108.936874,43,60,0
108.936874,109.0451,45,36,0
109.0451,109.15332,43,36,0
109.15332,109.26155,45,44,0
109.26155,109.369774,43,37,0
109.369774,109.492096,45,37,0
109.492096,109.60062,53,74,0
109.60062,109.70914,57,42,0
109.70914,109.81765,53,42,0
109.81765,109.92617,48,48,0
109.92617,110.03469,45,41,0
110.03469,110.14845,41,41,0
110.14845,110.25587,45,62,0
110.25587,110.36328,41,36,0
110.36328,110.47069,45,36,0
110.47069,110.5781,41,44,0
110.5781,110.68551,45,37,0
110.68551,110.7996,41,37,0
110.7996,110.917595,52,37,0
110.7996,110.97659,40,35,0
110.917595,111.03559,54,32,0
111.03559,111.15359,56,32,0
111.15359,111.27568,57,37,0
111.27568,111.39778,59,33,0
111.39778,111.53014,61,33,0
111.88728,112.06586,59,35,0
111.88728,112.06586,52,35,0
112.25308,112.42986,49,33,0
112.25308,112.42986,45,33,0
112.25751,112.43427,57,40,0
112.60591,112.86847,76,44,0
112.60591,112.86847,73,44,0
112.86847,112.96135,76,39,0
112.86847,112.96135,73,39,0
112.96135,113.13518,74,44,0
112.96135,113.13518,71,44,0
113.30887,113.48294,59,40,0
113.30887,113.48294,52,40,0
113.675156,113.849815,57,45,0
113.675156,113.849815,49,38,0
113.675156,113.849815,45,38,0
114.02116,114.2809,76,44,0
114.02116,114.2809,73,44,0
114.2809,114.37406,76,39,0
114.2809,114.37406,73,39,0
114.37406,114.54403,74,44,0
114.37406,114.54403,71,44,0
114.71484,114.886795,59,40,0
114.71484,114.886795,52,40,0
115.05935,115.230385,57,45,0
115.05935,115.230385,49,38,0
115.05935,115.230385,45,38,0
115.40296,115.66489,76,44,0
115.40296,115.66489,73,44,0
115.66489,115.757195,76,39,0
115.66489,115.757195,73,39,0
115.757195,115.93199,74,44,0
115.757195,115.93199,71,44,0
116.10969,116.290245,52,35,0
116.49097,116.59949,55,74,0
116.59949,116.708,57,42,0
116.708,116.81652,55,42,0
116.81652,116.92504,52,48,0
116.92504,117.03356,49,41,0
117.03356,117.14732,45,41,0
117.14732,117.25555,43,60,0
117.25555,117.36378,45,36,0
117.36378,117.472,43,36,0
117.472,117.578835,45,44,0
117.578835,117.68568,43,37,0
117.68568,117.80652,45,37,0
117.80652,117.91504,53,73,0
117.91504,118.02356,57,42,0
118.02356,118.13208,53,42,0
118.13208,118.24059,48,48,0
118.24059,118.34911,45,41,0
118.34911,118.46288,41,41,0
118.46288,118.571106,45,62,0
118.571106,118.67933,41,36,0
118.67933,118.78755,45,36,0
118.78755,118.894104,41,44,0
118.894104,119.00066,45,37,0
119.00066,119.132675,41,37,0
119.132675,119.241196,53,73,0
119.241196,119.34971,55,42,0
119.34971,119.45823,53,42,0
119.45823,119.56675,50,48,0
119.56675,119.67527,47,41,0
119.67527,119.78903,43,41,0
119.78903,119.897255,41,62,0
119.897255,120.005486,43,36,0
120.005486,120.11371,41,36,0
120.11371,120.22193,43,44,0
120.22193,120.330154,41,37,0
120.330154,120.46217,43,37,0
120.46217,120.57069,51,73,0
120.57069,120.67921,55,42,0
120.67921,120.78773,51,42,0
120.78773,120.89625,46,48,0
120.89625,121.00476,43,41,0
121.00476,121.11853,39,41,0
121.11853,121.225655,43,62,0
121.225655,121.33278,39,36,0
121.33278,121.4399,43,36,0
121.4399,121.54703,39,44,0
121.54703,121.65415,43,37,0
121.65415,121.78616,39,37,0
121.78616,121.894684,51,73,0
121.894684,122.0032,53,42,0
122.0032,122.11172,51,42,0
122.11172,122.22024,48,48,0
122.22024,122.32876,45,41,0
122.32876,122.44252,41,41,0
122.44252,122.55104,49,73,0
122.55104,122.65956,53,42,0
122.65956,122.768074,49,42,0
122.768074,122.876595,44,48,0
122.876595,122.985115,41,41,0
122.985115,123.09888,37,41,0
123.09888,123.2074,50,73,0
123.2074,123.31592,52,42,0
123.31592,123.42444,50,42,0
123.42444,123.53295,47,48,0
123.53295,123.64147,44,41,0
123.64147,123.75524,40,41,0
123.75524,123.863754,48,73,0
123.863754,123.972275,52,42,0
123.972275,124.080795,48,42,0
124.080795,124.189316,43,48,0
124.189316,124.29783,40,41,0
124.29783,124.4116,36,41,0
124.4116,124.52012,41,73,0
124.52012,124.62863,45,42,0
124.62863,124.73715,41,42,0
124.73715,124.84567,36,48,0
124.84567,124.95419,33,41,0
124.95419,125.067955,29,41,0
125.067955,125.17618,33,55,0
125.17618,125.28441,29,32,0
125.28441,125.39263,33,32,0
125.39263,125.500854,29,39,0
125.500854,125.609085,33,33,0
125.609085,125.7411,29,33,0
125.7411,125.85009,45,45,0
125.85009,125.959076,41,29,0
125.959076,126.06807,45,29,0
126.06807,126.17706,41,34,0
126.17706,126.28606,45,28,0
126.28606,126.41807,41,28,0
126.41807,126.52804,45,38,0
126.52804,126.63912,41,25,0
126.63912,126.75119,45,25,0
126.75119,126.86428,41,30,0
126.86428,126.97842,45,24,0
126.97842,127.110435,41,24,0
127.110435,127.228424,52,37,0
127.110435,127.28742,40,35,0
127.228424,127.34642,54,32,0
127.34642,127.46442,56,32,0
127.46442,127.589806,57,37,0
127.589806,127.7152,59,33,0
127.7152,127.84838,61,33,0
128.20659,128.3857,59,35,0
128.20659,128.3857,52,35,0
128.57462,128.75291,49,33,0
128.57462,128.75291,45,33,0
128.57907,128.75735,57,40,0
128.93013,129.19392,76,44,0
128.93013,129.19392,73,44,0
129.19392,129.2868,76,39,0
129.19392,129.2868,73,39,0
129.2868,129.46198,74,44,0
129.2868,129.46198,71,44,0
129.63641,129.81042,59,40,0
129.63641,129.81042,52,40,0
130.00214,130.17792,57,45,0
130.00214,130.17792,49,38,0
130.00214,130.17792,45,38,0
130.35106,130.61177,76,44,0
130.35106,130.61177,73,44,0
130.61177,130.70494,76,39,0
130.61177,130.70494,73,39,0
130.70494,130.87567,74,44,0
130.70494,130.87567,71,44,0
131.04721,131.21977,59,40,0
131.04721,131.21977,52,40,0
131.39264,131.56438,57,45,0
131.39264,131.56438,49,38,0
131.39264,131.56438,45,38,0
131.73839,132.00388,76,44,0
131.73839,132.00388,73,44,0
132.00388,132.10031,76,39,0
132.00388,132.10031,73,39,0
132.10031,132.27667,74,44,0
132.10031,132.27667,71,44,0
132.4554,132.63654,40,32,0
132.84363,133.54335,33,36,0
133.54335,133.63005,45,33,0
133.71675,133.80345,45,28,0
133.89017,133.97687,45,33,0
134.06357,134.15263,45,28,0
134.24638,134.59521,45,36,0
134.59521,134.77432,55,37,0
134.95343,135.03963,45,43,0
135.12584,135.21205,45,38,0
135.29825,135.38496,45,45,0
135.47166,135.56062,45,42,0
135.65408,136.0019,45,55,0
136.0019,136.17995,55,51,0
136.35799,136.7048,57,57,0
136.7048,136.88284,67,53,0
137.06088,137.41074,57,66,0
137.41074,137.58931,67,63,0
137.76788,138.11774,57,74,0
138.11774,138.29578,67,73,0
138.52904,139.35892,50,75,0
138.52904,139.35892,38,64,0
139.35892,139.44438,50,53,0
139.35892,139.44438,42,45,0
139.52986,139.61533,50,48,0
139.52986,139.61533,42,40,0
139.7008,139.7839,50,53,0
139.7008,139.7839,42,45,0
139.867,139.97038,50,48,0
139.867,139.97038,42,40,0
140.07376,140.44164,42,49,0
140.44164,140.62556,52,54,0
140.44164,140.62556,43,45,0
140.07376,140.62556,50,58,0
140.8095,140.89473,54,53,0
140.8095,140.89473,50,45,0
140.8095,140.89473,45,45,0
140.97995,141.06519,54,48,0
140.97995,141.06519,50,40,0
140.97995,141.06519,45,40,0
141.1504,141.2342,54,53,0
141.1504,141.2342,50,45,0
141.1504,141.2342,45,45,0
141.31801,141.4221,54,48,0
141.31801,141.4221,50,40,0
141.31801,141.4221,45,40,0
141.5262,141.90332,54,58,0
141.5262,141.90332,45,49,0
141.90332,142.09187,55,54,0
141.90332,142.09187,47,45,0
141.5262,142.09187,50,49,0
142.09187,142.26982,52,46,0
142.26982,142.38461,55,54,0
142.38461,142.49916,54,47,0
142.49916,142.61371,52,48,0
142.61371,142.725,58,54,0
142.725,142.8363,57,49,0
142.8363,142.96779,55,49,0
142.96779,143.14415,57,54,0
143.32053,143.43607,62,42,0
143.43607,143.5516,64,35,0
143.5516,143.66714,66,35,0
143.66714,143.78104,57,43,0
143.78104,143.89493,61,36,0
143.89493,144.00883,62,36,0
144.00883,144.12273,64,43,0
144.12273,144.23662,66,37,0
144.23662,144.39154,67,37,0
144.39154,145.2101,50,75,0
144.39154,145.2101,38,64,0
145.2101,145.29556,50,53,0
145.2101,145.29556,41,45,0
145.38103,145.4665,50,48,0
145.38103,145.4665,41,40,0
145.55197,145.6353,50,53,0
145.55197,145.6353,41,45,0
145.71864,145.82202,50,48,0
145.71864,145.82202,41,40,0
145.9254,146.29582,41,49,0
146.29582,146.4809,52,54,0
146.29582,146.4809,43,45,0
145.9254,146.4809,50,58,0
146.66597,146.75134,54,53,0
146.66597,146.75134,50,45,0
146.66597,146.75134,45,45,0
146.83672,146.92209,54,48,0
146.83672,146.92209,50,40,0
146.83672,146.92209,45,40,0
147.00746,147.09163,54,53,0
147.00746,147.09163,50,45,0
147.00746,147.09163,45,45,0
147.17581,147.27917,54,48,0
147.17581,147.27917,50,40,0
147.17581,147.27917,45,40,0
147.38255,147.75732,54,58,0
147.38255,147.75732,45,49,0
147.75732,147.9447,55,54,0
147.75732,147.9447,46,45,0
147.38255,147.9447,50,49,0
148.1321,148.21895,56,53,0
148.1321,148.21895,53,45,0
148.1321,148.21895,47,45,0
148.3058,148.39265,56,48,0
148.3058,148.39265,53,40,0
148.3058,148.39265,47,40,0
148.4795,148.56488,56,53,0
148.4795,148.56488,53,45,0
148.4795,148.56488,47,45,0
148.65025,148.76547,56,48,0
148.65025,148.76547,53,40,0
148.65025,148.76547,47,40,0
148.88068,149.60124,57,58,0
148.88068,149.60124,48,49,0
148.88068,149.60124,53,49,0
149.60124,149.68642,48,43,0
149.7716,149.85678,48,36,0
149.94196,150.026,48,43,0
150.11003,150.19406,48,37,0
150.27809,150.64838,48,43,0
150.64838,150.8207,45,43,0
150.98799,151.073,48,43,0
151.15793,151.24287,48,36,0
151.3278,151.41168,48,43,0
151.49547,151.57927,48,37,0
151.66795,152.01797,48,43,0
152.38138,152.51463,53,38,0
152.50252,152.63577,55,34,0
152.62366,152.7448,57,31,0
152.7448,152.87607,45,42,0
152.86414,152.99539,46,36,0
152.98346,153.1028,48,34,0
153.1028,153.23244,41,43,0
153.22066,153.3503,43,37,0
153.3385,153.45636,45,34,0
153.45636,153.58339,33,46,0
153.57184,153.69885,34,40,0
153.6873,153.80278,36,37,0
153.80278,153.92764,33,53,0
153.91629,154.04115,34,43,0
154.0298,154.14331,36,40,0
154.14331,154.26689,33,59,0
154.25566,154.3838,34,50,0
154.36803,154.52588,36,41,0
154.52588,154.61646,37,70,0
154.71005,154.80063,37,35,0
154.8882,154.97878,37,35,0
155.06935,155.15993,37,35,0
155.25052,155.97336,37,46,0
155.97336,156.06233,37,37,0
155.97336,156.06233,49,44,0
156.15129,156.24026,49,35,0
156.15427,156.24323,37,29,0
156.32924,156.4182,49,35,0
156.32924,156.4182,37,29,0
156.50717,156.59613,37,29,0
156.50717,156.59613,49,35,0
156.6851,157.39662,37,46,0
156.6851,157.39662,49,55,0
157.39662,157.4848,33,51,0
157.39662,157.4848,45,61,0
157.57298,157.66116,45,48,0
157.57298,157.66116,33,39,0
157.74936,157.83754,45,48,0
157.74936,157.83754,33,39,0
157.92572,158.0139,33,39,0
157.92572,158.0139,45,49,0
158.10208,158.8136,33,58,0
158.10208,158.8136,45,68,0
158.8136,158.90257,33,64,0
158.8136,158.90257,45,78,0
158.99153,159.0805,45,62,0
158.99153,159.0805,33,51,0
159.16946,159.25844,45,64,0
159.16946,159.25844,33,52,0
159.34741,159.43637,33,55,0
159.34741,159.43637,45,67,0
159.52534,160.26794,33,79,0
159.52534,160.26794,45,94,0
160.26794,161.09782,50,86,0
160.26794,161.09782,45,73,0
160.26794,161.09782,42,73,0
160.26794,161.09782,38,73,0
161.09782,161.18282,50,51,0
161.09782,161.18282,42,43,0
161.26779,161.35278,50,46,0
161.26779,161.35278,42,39,0
161.43777,161.52087,50,51,0
161.43777,161.52087,42,43,0
161.60397,161.70735,50,46,0
161.60397,161.70735,42,39,0
161.81073,162.1786,42,47,0
162.1786,162.36253,52,52,0
162.1786,162.36253,43,43,0
161.81073,162.36253,50,56,0
162.54648,162.65909,45,53,0
162.65909,162.7717,47,48,0
162.7717,162.88431,48,48,0
162.88431,162.9933,50,53,0
162.9933,163.1023,52,49,0
163.1023,163.24304,54,48,0
163.24304,163.41745,46,53,0
163.41745,163.59187,54,49,0
163.59187,163.7663,47,53,0
163.7663,163.9655,55,48,0
163.9655,164.05072,57,51,0
163.9655,164.05072,55,43,0
163.9655,164.05072,49,43,0
164.13596,164.22118,57,46,0
164.13596,164.22118,55,39,0
164.13596,164.22118,49,39,0
164.30641,164.38928,57,51,0
164.30641,164.38928,55,43,0
164.30641,164.38928,49,43,0
164.47215,164.57553,57,46,0
164.47215,164.57553,55,39,0
164.47215,164.57553,49,39,0
164.67891,165.04678,57,56,0
164.67891,165.04678,49,47,0
165.04678,165.23071,59,52,0
165.04678,165.23071,50,43,0
164.67891,165.23071,55,47,0
165.41466,165.52594,50,53,0
165.52594,165.63724,52,48,0
165.63724,165.74854,54,48,0
165.74854,165.85753,55,53,0
165.85753,165.96652,57,49,0
165.96652,166.10727,59,48,0
166.10727,166.2822,51,53,0
166.2822,166.45712,59,49,0
166.45712,166.63205,52,53,0
166.63205,166.80698,60,48,0
166.80698,166.89413,61,51,0
166.80698,166.89413,58,43,0
166.80698,166.89413,52,43,0
166.9813,167.06845,61,46,0
166.9813,167.06845,58,39,0
166.9813,167.06845,52,39,0
167.15561,167.24133,61,51,0
167.15561,167.24133,58,43,0
167.15561,167.24133,52,43,0
167.32704,167.43042,61,46,0
167.32704,167.43042,58,39,0
167.32704,167.43042,52,39,0
167.5338,167.90167,61,56,0
167.5338,167.90167,52,47,0
167.90167,168.0856,62,52,0
167.90167,168.0856,53,43,0
167.5338,168.0856,58,47,0
168.26955,168.38216,53,53,0
168.38216,168.49477,55,48,0
168.49477,168.60738,57,48,0
168.60738,168.71727,59,53,0
168.71727,168.82716,60,49,0
168.82716,168.98976,62,48,0
168.98976,169.16367,51,53,0
169.16367,169.29411,58,42,0
169.33759,169.51405,58,53,0
169.51405,169.69052,62,44,0
169.69052,169.77518,46,43,0
169.69052,169.77518,34,36,0
169.85983,169.94447,46,39,0
169.85983,169.94447,34,33,0
170.02913,170.11223,46,43,0
170.02913,170.11223,34,36,0
170.19533,170.2987,46,39,0
170.19533,170.2987,34,33,0
170.40208,170.95389,46,47,0
170.40208,170.95389,34,39,0
171.13783,171.25044,53,45,0
171.25044,171.36305,55,40,0
171.36305,171.47566,57,40,0
171.47566,171.58556,58,45,0
171.58556,171.69545,60,41,0
171.69545,171.8362,62,40,0
171.8362,172.01413,51,55,0
172.01413,172.14758,58,41,0
172.19206,172.37,58,51,0
172.37,172.54794,62,40,0
172.54794,172.63245,46,43,0
172.54794,172.63245,34,36,0
172.71695,172.80145,46,39,0
172.71695,172.80145,34,33,0
172.88597,172.96793,46,43,0
172.88597,172.96793,34,36,0
173.0499,173.15327,46,39,0
173.0499,173.15327,34,33,0
173.25665,173.80846,46,47,0
173.25665,173.80846,34,39,0
173.9924,174.10501,53,43,0
174.10501,174.21762,55,43,0
174.21762,174.33023,57,44,0
174.33023,174.44284,58,45,0
174.44284,174.55547,60,46,0
174.55547,174.6679,62,47,0
174.6679,174.77954,63,48,0
174.77954,174.89084,65,44,0
174.89084,175.00177,67,44,0
175.00177,175.11238,65,51,0
175.11238,175.22264,63,45,0
175.22264,175.3325,62,45,0
175.3325,175.44194,61,48,0
175.44194,175.55193,58,39,0
175.55193,175.66246,55,39,0
175.66246,175.77357,52,41,0
175.77357,175.88525,49,39,0
175.88525,176.002,52,40,0
176.002,176.11324,53,42,0
176.11324,176.22447,50,38,0
176.22447,176.33571,53,38,0
176.33571,176.44695,50,42,0
176.44695,176.55818,46,38,0
176.55818,176.66882,50,38,0
176.66882,176.779,41,38,0
176.779,176.88904,43,39,0
176.88904,176.99893,45,41,0
176.99893,177.10867,46,43,0
177.10867,177.21826,48,45,0
177.21826,177.33334,50,46,0
177.33334,177.44196,51,48,0
177.44196,177.55006,53,50,0
177.55006,177.65817,55,51,0
177.65817,177.76628,53,53,0
177.76628,177.87454,51,49,0
177.87454,177.98305,50,51,0
177.98305,178.09178,49,48,0
178.09178,178.20078,46,46,0
178.20078,178.31001,43,45,0
178.31001,178.41948,40,43,0
178.41948,178.52919,37,39,0
178.52919,178.63907,40,36,0
178.63907,178.74663,43,50,0
178.74663,178.85242,40,36,0
178.85242,178.95657,43,36,0
178.95657,179.0627,40,37,0
179.0627,179.17126,37,37,0
179.17126,179.28568,40,38,0
179.28568,179.39333,44,52,0
179.39333,179.49992,40,38,0
179.49992,179.60551,44,39,0
179.60551,179.71255,40,39,0
179.71255,179.82098,37,40,0
179.82098,179.93633,40,40,0
179.93633,180.0438,45,55,0
180.0438,180.15028,40,41,0
180.15028,180.25583,45,42,0
180.25583,180.36166,40,42,0
180.36166,180.46922,37,43,0
180.46922,180.58261,40,43,0
180.58261,180.6887,45,57,0
180.6887,180.79399,40,44,0
180.79399,180.89842,45,45,0
180.89842,181.00269,40,45,0
181.00269,181.10849,36,45,0
181.10849,181.22258,40,46,0
181.22258,181.3294,35,62,0
181.3294,181.43355,41,50,0
181.43355,181.53703,35,51,0
181.53703,181.64116,41,52,0
181.64116,181.74799,47,53,0
181.74799,181.86378,41,54,0
181.86378,181.9729,34,69,0
181.9729,182.08205,41,56,0
182.08205,182.19145,34,58,0
182.19145,182.3011,41,59,0
182.3011,182.41095,46,61,0
182.41095,182.53065,34,62,0
182.53065,183.40338,45,86,0
182.53065,183.40338,33,73,0
183.40338,183.5778,66,51,0
183.40338,183.5778,57,43,0
183.63594,183.81035,66,46,0
183.63594,183.81035,57,39,0
183.8685,184.04291,66,51,0
183.8685,184.04291,57,43,0
184.10106,184.29092,66,46,0
184.10106,184.29092,57,39,0
184.35422,184.79218,69,56,0
184.79218,185.04428,64,37,0
184.35422,185.04428,57,47,0
185.04428,185.22969,37,49,0
185.22969,185.3423,38,53,0
185.3423,185.45491,37,49,0
185.45491,185.56752,35,53,0
185.56752,185.6779,41,56,0
185.6779,185.78828,40,51,0
185.78828,185.92902,38,38,0
185.92902,186.04279,49,47,0
185.92902,186.09967,40,43,0
186.04279,186.15656,50,41,0
186.15656,186.27032,52,41,0
186.27032,186.39243,54,47,0
186.39243,186.51453,56,42,0
186.51453,186.64688,57,42,0
186.87506,186.98915,52,44,0
186.98915,187.10324,50,50,0
187.10324,187.21733,49,53,0
187.21733,187.33142,47,56,0
187.33142,188.20099,45,77,0
187.33142,188.20099,33,65,0
188.20099,188.5183,66,51,0
188.20099,188.5183,57,43,0
188.54713,188.63368,66,46,0
188.54713,188.63368,57,39,0
188.66252,188.98863,66,51,0
188.66252,188.98863,57,43,0
189.02042,189.11575,66,46,0
189.02042,189.11575,57,39,0
189.14752,189.58548,69,56,0
189.58548,189.83972,64,37,0
189.14752,189.83972,57,47,0
189.83972,190.02513,37,49,0
190.02513,190.13774,38,53,0
190.13774,190.25037,37,49,0
190.25037,190.36298,35,53,0
190.36298,190.47397,41,56,0
190.47397,190.58495,40,51,0
190.58495,190.7257,38,38,0
190.7257,190.83946,49,47,0
190.7257,190.89635,40,43,0
190.83946,190.95323,50,41,0
190.95323,191.06699,52,41,0
191.06699,191.18909,54,47,0
191.18909,191.31119,56,42,0
191.31119,191.44356,57,42,0
191.67174,191.78583,52,44,0
191.78583,191.89992,50,50,0
191.89992,192.014,49,53,0
192.014,192.1436,47,56,0
192.1436,192.31764,45,50,0
194.89621,195.26096,57,41,0
195.26096,195.3568,49,35,0
195.64435,196.00798,59,41,0
196.00798,196.09889,52,35,0
196.3358,196.38348,52,33,0
196.38348,196.74646,61,41,0
196.74646,196.84091,57,34,0
197.07706,197.1243,57,33,0
197.1243,197.39104,66,45,0
197.39104,197.47995,63,36,0
197.47995,197.75569,66,43,0
197.75569,197.85483,63,35,0
197.85483,198.21951,64,41,0
198.22507,198.3231,52,35,0
198.56494,198.61395,52,33,0
198.61395,198.98206,62,41,0
198.98206,199.0801,59,35,0
199.3252,199.3742,59,33,0
199.3742,199.73718,61,41,0
199.73718,199.83165,52,34,0
200.0678,200.11502,52,33,0
200.11502,200.38417,59,45,0
200.38417,200.47388,56,36,0
200.47388,200.74792,59,43,0
200.74792,200.84708,56,35,0
200.84708,201.19429,49,41,0
200.84708,201.19429,57,41,0
201.19753,201.29462,52,35,0
201.58264,201.92987,59,41,0
201.58264,201.92987,56,41,0
201.93312,202.03052,52,35,0
202.31947,202.6667,61,41,0
202.31947,202.6667,52,41,0
202.6667,202.75745,57,35,0
203.02968,203.30524,60,38,0
203.02968,203.30524,63,45,0
203.30524,203.3971,57,36,0
203.3971,203.66786,60,36,0
203.3971,203.66786,63,43,0
203.66786,203.767,57,35,0
203.767,204.11205,64,41,0
203.767,204.11421,61,41,0
204.11748,204.2152,52,35,0
204.5051,204.85233,62,41,0
204.5051,204.85233,59,41,0
204.85558,204.9533,52,35,0
205.2432,205.59042,57,41,0
205.2432,205.59042,61,41,0
205.59042,205.68782,52,35,0
205.98003,206.2556,59,45,0
205.98003,206.2556,56,38,0
206.2556,206.34746,52,36,0
206.34746,206.62302,59,43,0
206.34746,206.62302,56,36,0
206.62302,206.74875,52,35,0
206.74875,206.905,59,69,0
206.905,207.06125,50,53,0
207.06125,207.23746,59,53,0
207.23746,208.05777,43,71,0
208.05777,208.17496,59,48,0
208.05777,208.17496,50,48,0
208.17496,208.52652,43,62,0
208.52652,208.65811,50,53,0
208.65811,208.80168,59,71,0
208.80168,208.94525,50,53,0
208.94525,209.1122,59,53,0
209.1122,209.93251,43,68,0
209.93251,210.0497,50,48,0
209.93251,210.0497,59,48,0
210.0497,210.87001,43,62,0
210.87001,211.00217,50,45,0
210.87001,211.00217,59,53,0
211.00217,211.79883,43,62,0
211.79883,211.91264,50,45,0
211.79883,211.91264,59,53,0
211.91264,212.25407,43,62,0
212.25407,212.36787,55,53,0
212.36787,212.51353,48,71,0
212.51353,212.65921,55,53,0
212.65921,212.84186,48,53,0
212.84186,213.65266,36,69,0
213.65266,213.7685,48,48,0
213.65266,213.7685,55,48,0
213.7685,214.11598,36,62,0
214.11598,214.25298,55,53,0
214.25298,214.40025,48,62,0
214.40025,214.54752,55,53,0
214.54752,214.72609,48,53,0
214.72609,215.5464,36,62,0
215.5464,215.67245,48,48,0
215.5464,215.67245,55,48,0
215.67245,216.49277,36,62,0
216.49277,216.61798,55,53,0
216.49277,216.61798,48,45,0
216.61798,217.44475,36,62,0
217.44475,217.58856,40,41,0
217.58856,218.44922,35,45,0
218.44922,218.59923,40,33,0
218.59923,219.0132,35,37,0
219.0132,219.1512,40,32,0
219.1512,219.58725,35,34,0
219.58725,219.75868,40,29,0
219.75868,220.21927,35,31,0
220.21927,220.40915,40,27,0
220.40915,220.49635,33,31,0
221.21855,221.33305,57,38,0
221.33305,221.44725,61,40,0
221.44725,221.56242,64,42,0
221.56242,221.67836,69,41,0
221.67836,221.80453,73,38,0
221.80453,221.97548,64,42,0
222.14642,222.23338,52,28,0
222.14642,222.23338,59,28,0
222.14642,222.23338,62,34,0
222.49425,222.5812,52,28,0
222.49425,222.5812,57,28,0
222.49425,222.5812,61,34,0
222.84207,222.92903,52,28,0
222.84207,222.92903,56,28,0
222.84207,222.92903,59,34,0
223.19896,223.37338,61,37,0
223.19896,223.37338,57,31,0
224.00836,224.12286,57,38,0
224.12286,224.23708,61,40,0
224.23708,224.35223,64,42,0
224.35223,224.46817,69,41,0
224.46817,224.59436,73,38,0
224.59436,224.76318,64,42,0
224.932,225.01897,59,28,0
224.932,225.01897,52,28,0
224.932,225.01897,62,34,0
225.27983,225.36679,52,28,0
225.27983,225.36679,61,34,0
225.27983,225.36679,57,28,0
225.62766,225.71461,52,28,0
225.62766,225.71461,56,28,0
225.62766,225.71461,59,34,0
226.00769,226.38506,57,41,0
226.38506,226.57373,49,35,0
226.77797,227.15651,59,40,0
227.15651,227.34578,52,33,0
227.55022,227.92522,61,42,0
227.92522,228.11272,57,34,0
228.31268,228.58707,66,40,0
228.58707,228.67853,63,30,0
228.67853,228.95027,66,37,0
228.95027,229.04994,63,34,0
229.04994,229.42146,64,41,0
229.42146,229.60722,52,35,0
229.809,230.18051,62,40,0
230.18051,230.36627,59,33,0
230.56757,230.93909,61,42,0
230.93909,231.12485,52,34,0
231.32422,231.59367,59,40,0
231.59367,231.6835,56,30,0
231.6835,231.95952,59,37,0
231.95952,232.08664,52,34,0
232.08664,232.20111,69,43,0
232.20111,232.3156,64,36,0
232.3156,232.43008,69,36,0
232.43008,232.6018,61,42,0
232.79149,232.90598,71,44,0
232.90598,233.02046,68,38,0
233.02046,233.13495,71,38,0
233.13495,233.30667,64,44,0
233.49548,233.61177,73,49,0
233.61177,233.72804,71,41,0
233.72804,233.84431,73,41,0
233.84431,234.01874,69,49,0
234.20592,234.47537,78,49,0
234.47537,234.56519,75,37,0
234.56519,234.83794,78,46,0
234.83794,234.9376,75,43,0
234.9376,235.30345,78,54,0
235.30345,235.48639,75,44,0
235.67639,236.04225,78,42,0
236.04225,236.22517,75,34,0
236.43213,236.79468,78,42,0
236.79468,236.97594,75,41,0
237.16539,237.43486,77,40,0
237.43486,237.52467,75,30,0
237.52467,237.79742,77,37,0
237.79742,237.8971,75,34,0
237.8971,238.26407,77,42,0
238.26407,238.44754,75,34,0
238.63774,239.00471,77,42,0
239.00471,239.1882,75,33,0
239.39534,239.76686,77,40,0
239.76686,239.95262,74,32,0
240.14832,240.52216,76,39,0
240.52216,240.70908,74,31,0
240.91736,241.29591,73,37,0
241.29591,241.48518,76,29,0
241.68573,242.06548,66,36,0
242.06548,242.25536,69,25,0
242.06548,242.25536,74,28,0
242.46463,242.84438,64,34,0
242.84438,243.03426,73,27,0
242.84438,243.03426,69,25,0
243.23222,243.61758,64,33,0
243.61758,243.81026,71,26,0
243.61758,243.81026,68,22,0
244.02046,244.12898,55,74,0
244.12898,244.2375,57,42,0
244.2375,244.34602,55,42,0
244.34602,244.45454,52,48,0
244.45454,244.56306,49,41,0
244.56306,244.67682,45,41,0
244.67682,244.78505,43,60,0
244.78505,244.89328,45,36,0
244.89328,245.0015,43,36,0
245.0015,245.10777,45,44,0
245.10777,245.21404,43,37,0
245.21404,245.33452,45,37,0
245.33452,245.44304,53,73,0
245.44304,245.55156,57,42,0
245.55156,245.66008,53,42,0
245.66008,245.7686,48,48,0
245.7686,245.87712,45,41,0
245.87712,245.99088,41,41,0
245.99088,246.0991,45,62,0
246.0991,246.20734,41,36,0
246.20734,246.31555,45,36,0
246.31555,246.4224,41,44,0
246.4224,246.52924,45,37,0
246.52924,246.66124,41,37,0
246.66124,246.76976,55,73,0
246.76976,246.87828,57,42,0
246.87828,246.9868,55,42,0
246.9868,247.09532,52,48,0
247.09532,247.20384,49,41,0
247.20384,247.3176,45,41,0
247.3176,247.42583,43,60,0
247.42583,247.53406,45,36,0
247.53406,247.64227,43,36,0
247.64227,247.74911,45,44,0
247.74911,247.85596,43,37,0
247.85596,247.97827,45,37,0
247.97827,248.08679,53,74,0
248.08679,248.19531,57,42,0
248.19531,248.30383,53,42,0
248.30383,248.41235,48,48,0
248.41235,248.52087,45,41,0
248.52087,248.63464,41,41,0
248.63464,248.74286,45,62,0
248.74286,248.85109,41,36,0
248.85109,248.95764,45,36,0
248.95764,249.0642,41,44,0
249.0642,249.17075,45,37,0
249.17075,249.28484,41,37,0
249.28484,249.40283,52,37,0
249.28484,249.46182,40,35,0
249.40283,249.52083,54,32,0
249.52083,249.63882,56,32,0
249.63882,249.76093,57,37,0
249.76093,249.88301,59,33,0
249.88301,250.01538,61,33,0
250.37251,250.55109,52,35,0
250.37251,250.55109,59,35,0
250.73833,250.9151,49,33,0
250.73833,250.9151,45,33,0
250.74274,250.91951,57,40,0
251.09114,251.3537,73,44,0
251.09114,251.3537,76,44,0
251.3537,251.44658,76,39,0
251.3537,251.44658,73,39,0
251.44658,251.6204,74,44,0
251.44658,251.6204,71,44,0
251.7941,251.96817,59,40,0
251.7941,251.96817,52,40,0
252.16039,252.33505,57,45,0
252.16039,252.33505,49,38,0
252.16039,252.33505,45,38,0
252.5064,252.76613,76,44,0
252.5064,252.76613,73,44,0
252.76613,252.8593,76,39,0
252.76613,252.8593,73,39,0
252.8593,253.02927,74,44,0
252.8593,253.02927,71,44,0
253.20007,253.37202,59,40,0
253.20007,253.37202,52,40,0
253.54459,253.71635,45,38,0
253.54459,253.71635,57,45,0
253.54459,253.71635,49,38,0
253.88995,254.15364,76,44,0
253.88995,254.15364,73,44,0
254.15364,254.24594,76,39,0
254.15364,254.24594,73,39,0
254.24594,254.42075,74,44,0
254.24594,254.42075,71,44,0
254.59843,254.77899,52,35,0
254.97972,255.08824,55,74,0
255.08824,255.19676,57,42,0
255.19676,255.30528,55,42,0
255.30528,255.41379,52,48,0
255.41379,255.52231,49,41,0
255.52231,255.63608,45,41,0
255.63608,255.74431,43,60,0
255.74431,255.85252,45,36,0
255.85252,255.96075,43,36,0
255.96075,256.06897,45,44,0
256.06897,256.17722,43,37,0
256.17722,256.29807,45,37,0
256.29807,256.40656,53,73,0
256.40656,256.51508,57,42,0
256.51508,256.6236,53,42,0
256.6236,256.73212,48,48,0
256.73212,256.84064,45,41,0
256.84064,256.9544,41,41,0
256.9544,257.06262,45,62,0
257.06262,257.17087,41,36,0
257.17087,257.27908,45,36,0
257.27908,257.3873,41,44,0
257.3873,257.49554,45,37,0
257.49554,257.62753,41,37,0
257.62753,257.73605,53,73,0
257.73605,257.84457,55,42,0
257.84457,257.9531,53,42,0
257.9531,258.0616,50,48,0
258.0616,258.17014,47,41,0
258.17014,258.2839,43,41,0
258.2839,258.39212,41,62,0
258.39212,258.50037,43,36,0
258.50037,258.60858,41,36,0
258.60858,258.7168,43,44,0
258.7168,258.82504,41,37,0
258.82504,258.95703,43,37,0
258.95703,259.06555,51,73,0
259.06555,259.17407,55,42,0
259.17407,259.2826,51,42,0
259.2826,259.3911,46,48,0
259.3911,259.49963,43,41,0
259.49963,259.6134,39,41,0
259.6134,259.72162,43,62,0
259.72162,259.82986,39,36,0
259.82986,259.93808,43,36,0
259.93808,260.0463,39,44,0
260.0463,260.15454,43,37,0
260.15454,260.28653,39,37,0
260.28653,260.39505,51,73,0
260.39505,260.50357,53,42,0
260.50357,260.6121,51,42,0
260.6121,260.7206,48,48,0
260.7206,260.82913,45,41,0
260.82913,260.9429,41,41,0
260.9429,261.05142,49,73,0
261.05142,261.15994,53,42,0
261.15994,261.26846,49,42,0
261.26846,261.37698,44,48,0
261.37698,261.4855,41,41,0
261.4855,261.59927,37,41,0
261.59927,261.7064,50,73,0
261.7064,261.8135,52,42,0
261.8135,261.92062,50,42,0
261.92062,262.02774,47,48,0
262.02774,262.1349,44,41,0
262.1349,262.24866,40,41,0
262.24866,262.35718,48,73,0
262.35718,262.46567,52,42,0
262.46567,262.5742,48,42,0
262.5742,262.6827,43,48,0
262.6827,262.79123,40,41,0
262.79123,262.905,36,41,0
262.905,263.01212,41,73,0
263.01212,263.11926,45,42,0
263.11926,263.22638,41,42,0
263.22638,263.3335,36,48,0
263.3335,263.4406,33,41,0
263.4406,263.55438,29,41,0
263.55438,263.6626,33,55,0
263.6626,263.77084,29,32,0
263.77084,263.87906,33,32,0
263.87906,263.98727,29,39,0
263.98727,264.09552,33,33,0
264.09552,264.22754,29,33,0
264.22754,264.33652,45,45,0
264.33652,264.4455,41,29,0
264.4455,264.5545,45,29,0
264.5545,264.66348,41,34,0
264.66348,264.7725,45,28,0
264.7725,264.9045,41,28,0
264.9045,265.01447,45,38,0
265.01447,265.12555,41,25,0
265.12555,265.2376,45,25,0
265.2376,265.3507,41,30,0
265.3507,265.46484,45,24,0
265.46484,265.59686,41,24,0
265.59686,265.71484,52,37,0
265.59686,265.77386,40,35,0
265.71484,265.83286,54,32,0
265.83286,265.95084,56,32,0
265.95084,266.07623,57,37,0
266.07623,266.20163,59,33,0
266.20163,266.3348,61,33,0
266.69302,266.87213,59,35,0
266.69302,266.87213,52,35,0
267.06104,267.23935,49,33,0
267.06104,267.23935,45,33,0
267.0655,267.24377,57,40,0
267.41656,267.68036,76,44,0
267.41656,267.68036,73,44,0
267.68036,267.77322,76,39,0
267.68036,267.77322,73,39,0
267.77322,267.9484,74,44,0
267.77322,267.9484,71,44,0
268.12283,268.29688,52,40,0
268.12283,268.29688,59,40,0
268.48856,268.66406,49,38,0
268.48856,268.66406,45,38,0
268.48856,268.66406,57,45,0
268.836,269.09665,76,44,0
268.836,269.09665,73,44,0
269.09665,269.18982,76,39,0
269.09665,269.18982,73,39,0
269.18982,269.36057,74,44,0
269.18982,269.36057,71,44,0
269.5321,269.70465,59,40,0
269.5321,269.70465,52,40,0
269.87753,270.04926,57,45,0
269.87753,270.04926,49,38,0
269.87753,270.04926,45,38,0
270.22327,270.48877,76,44,0
270.22327,270.48877,73,44,0
270.48877,270.5852,76,39,0
270.48877,270.5852,73,39,0
270.5852,270.76157,74,44,0
270.5852,270.76157,71,44,0
270.94028,271.12143,40,32,0
271.32852,272.02823,33,36,0
272.02823,272.11493,45,33,0
272.20163,272.28836,45,28,0
272.37506,272.46017,45,33,0
272.54532,272.63333,45,28,0
272.72708,273.0759,45,36,0
273.0759,273.255,55,37,0
273.4341,273.52032,45,43,0
273.60654,273.69272,45,38,0
273.77893,273.86407,45,45,0
273.9492,274.0371,45,42,0
274.13055,274.4784,45,55,0
274.4784,274.65643,55,51,0
274.83447,275.1813,57,57,0
275.1813,275.35934,67,53,0
275.53738,275.88724,57,70,0
275.88724,276.0658,67,68,0
276.2444,276.59424,57,74,0
276.59424,276.77228,67,73,0
276.9916,277.8215,46,90,0
276.9916,277.8215,34,76,0
277.8215,277.9077,58,63,0
277.8215,277.9077,50,54,0
277.9939,278.0801,58,57,0
277.9939,278.0801,50,48,0
278.16632,278.25037,58,63,0
278.16632,278.25037,50,54,0
278.33438,278.43777,58,57,0
278.33438,278.43777,50,48,0
278.54114,278.9037,58,69,0
278.54114,278.9037,50,58,0
278.9037,279.09177,60,64,0
278.9037,279.09177,53,54,0
279.27985,279.6424,60,69,0
279.27985,279.6424,53,58,0
279.6424,279.83047,62,64,0
279.6424,279.83047,58,54,0
280.0186,280.3822,62,69,0
280.0186,280.3822,58,58,0
280.3822,280.56912,60,64,0
280.3822,280.56912,53,54,0
280.75604,280.84177,60,63,0
280.75604,280.84177,53,54,0
280.92746,281.01318,60,57,0
280.92746,281.01318,53,48,0
281.0989,281.1827,60,63,0
281.0989,281.1827,53,54,0
281.26648,281.36987,60,57,0
281.26648,281.36987,53,48,0
281.47324,281.8358,60,69,0
281.47324,281.8358,53,58,0
281.8358,282.02386,65,64,0
281.8358,282.02386,62,54,0
282.21198,282.5745,65,69,0
282.21198,282.5745,62,58,0
282.5745,282.7626,63,64,0
282.5745,282.7626,57,54,0
282.95068,283.3143,63,69,0
282.95068,283.3143,57,58,0
283.3143,283.50122,62,64,0
283.3143,283.50122,58,54,0
283.68814,283.7723,43,63,0
283.68814,283.7723,31,54,0
283.8565,283.94067,43,57,0
283.8565,283.94067,31,48,0
284.02484,284.10718,43,63,0
284.02484,284.10718,31,54,0
284.18948,284.29288,43,57,0
284.18948,284.29288,31,48,0
284.39624,284.7588,43,69,0
284.39624,284.7588,31,58,0
284.7588,284.95047,46,64,0
284.7588,284.95047,34,54,0
285.14218,285.23505,46,65,0
285.14218,285.23505,34,55,0
285.5137,285.6175,50,60,0
285.5137,285.6175,38,51,0
285.92892,286.67892,53,69,0
285.92892,286.67892,41,58,0
286.67892,286.76794,49,59,0
286.67892,286.76794,37,51,0
286.85696,286.94598,49,54,0
286.85696,286.94598,37,45,0
287.035,287.12222,49,59,0
287.035,287.12222,37,51,0
287.2094,287.31042,49,54,0
287.2094,287.31042,37,45,0
287.41144,288.15726,53,65,0
287.41144,288.15726,50,55,0
287.41144,288.15726,41,55,0
288.15726,288.251,62,65,0
288.15726,288.251,50,55,0
288.15726,288.251,58,55,0
288.53226,288.63937,60,60,0
288.53226,288.63937,57,51,0
288.53226,288.63937,53,51,0
288.96082,289.71082,46,82,0
288.96082,289.71082,34,69,0
289.71082,289.79797,58,63,0
289.71082,289.79797,50,54,0
289.88513,289.9723,58,57,0
289.88513,289.9723,50,48,0
290.05945,290.14493,58,63,0
290.05945,290.14493,50,54,0
290.23038,290.33377,58,57,0
290.23038,290.33377,50,48,0
290.43713,290.79968,58,69,0
290.43713,290.79968,50,58,0
290.79968,290.98776,60,64,0
290.79968,290.98776,53,54,0
291.17584,291.5384,60,69,0
291.17584,291.5384,53,58,0
291.5384,291.72647,62,64,0
291.5384,291.72647,58,54,0
291.91458,292.2782,62,69,0
291.91458,292.2782,58,58,0
292.2782,292.46512,60,64,0
292.2782,292.46512,53,54,0
292.65204,292.7392,60,63,0
292.65204,292.7392,53,54,0
292.82635,292.9135,60,57,0
292.82635,292.9135,53,48,0
293.00067,293.08615,60,63,0
293.00067,293.08615,53,54,0
293.1716,293.275,60,57,0
293.1716,293.275,53,48,0
293.37836,293.7409,60,69,0
293.37836,293.7409,53,58,0
293.7409,293.929,65,64,0
293.7409,293.929,62,54,0
294.1171,294.48126,65,69,0
294.1171,294.48126,62,58,0
294.48126,294.67172,63,64,0
294.48126,294.67172,57,54,0
294.88016,295.24377,63,69,0
294.88016,295.24377,57,58,0
295.24377,295.4307,62,64,0
295.24377,295.4307,58,54,0
295.6176,295.7308,31,63,0
295.7308,295.844,34,58,0
295.844,295.95718,36,58,0
295.95718,296.06696,38,63,0
296.06696,296.19077,40,59,0
296.19077,296.32858,42,59,0
296.32858,296.69113,43,69,0
296.69113,296.8828,46,64,0
297.07452,297.1976,46,65,0
297.1976,297.32068,45,61,0
297.32068,297.44376,46,61,0
297.44376,297.5762,50,65,0
297.5762,297.70865,48,61,0
297.70865,297.8411,46,61,0
297.8411,298.5911,53,69,0
298.5911,298.68146,56,59,0
298.5911,298.68146,44,51,0
298.77182,298.86218,56,54,0
298.77182,298.86218,44,45,0
298.95255,299.04156,56,59,0
298.95255,299.04156,44,51,0
299.13058,299.22797,56,54,0
299.13058,299.22797,44,45,0
299.342,300.0936,60,65,0
299.342,300.0936,57,55,0
299.342,300.0936,48,55,0
300.0936,300.19263,69,65,0
300.0936,300.19263,57,55,0
300.0936,300.19263,65,55,0
300.48965,300.60284,67,60,0
300.48965,300.60284,64,51,0
300.48965,300.60284,60,51,0
300.94247,301.0619,41,76,0
301.0619,301.1785,43,46,0
301.1785,301.2951,45,46,0
301.2951,301.41006,46,54,0
301.41006,301.525,48,46,0
301.525,301.63995,50,46,0
301.63995,301.81973,52,55,0
301.99216,302.07837,52,46,0
301.99216,302.07837,60,55,0
302.16458,302.25583,52,42,0
302.16458,302.25583,60,50,0
302.35718,302.702,60,55,0
302.35718,302.702,53,46,0
302.702,302.87442,57,53,0
303.06613,303.15182,48,55,0
303.06613,303.15182,43,46,0
303.40897,303.4947,48,51,0
303.40897,303.4947,40,43,0
303.76294,303.88235,41,76,0
303.88235,303.99896,43,46,0
303.99896,304.11557,45,46,0
304.11557,304.23053,46,54,0
304.23053,304.34546,48,46,0
304.34546,304.46042,50,46,0
304.46042,304.6402,52,55,0
304.81262,304.89883,52,46,0
304.81262,304.89883,60,55,0
304.98502,305.0763,52,42,0
304.98502,305.0763,60,50,0
305.17764,305.52246,60,55,0
305.17764,305.52246,53,46,0
305.52246,305.6949,57,53,0
305.88657,305.9723,48,55,0
305.88657,305.9723,43,46,0
306.22943,306.31516,48,51,0
306.22943,306.31516,40,43,0
306.5834,306.92923,48,55,0
306.5834,306.92923,41,46,0
306.92923,307.1021,45,51,0
307.28284,307.39713,46,43,0
307.39713,307.5114,45,39,0
307.5114,307.6257,43,39,0
307.6257,307.74,49,44,0
307.74,307.85428,48,39,0
307.85428,307.96854,46,39,0
307.96854,308.08197,49,44,0
308.08197,308.19473,48,39,0
308.19473,308.30682,46,39,0
308.30682,308.41824,49,49,0
308.41824,308.52936,48,44,0
308.52936,308.64047,46,48,0
308.64047,308.7516,49,55,0
308.7516,308.8627,48,46,0
308.8627,308.97375,46,42,0
308.97375,309.08496,49,49,0
309.08496,309.1971,48,39,0
309.1971,309.3102,47,39,0
309.3102,309.99402,56,44,0
309.3102,309.99402,51,37,0
309.3102,309.99402,48,37,0
309.99402,310.67688,58,34,0
309.99402,310.67688,51,34,0
309.99402,310.67688,55,34,0
309.99402,310.67688,61,41,0
310.67688,310.7963,44,52,0
310.7963,310.9129,46,34,0
310.9129,311.02954,48,34,0
311.02954,311.14447,49,40,0
311.14447,311.25943,51,34,0
311.25943,311.37436,53,34,0
311.37436,311.55417,55,41,0
311.72656,311.81277,55,34,0
311.72656,311.81277,63,41,0
311.899,311.99023,55,31,0
311.899,311.99023,63,37,0
312.09158,312.43643,63,41,0
312.09158,312.43643,56,34,0
312.43643,312.60883,60,39,0
312.80054,312.88626,51,41,0
312.80054,312.88626,46,34,0
313.1434,313.2291,51,38,0
313.1434,313.2291,43,32,0
313.49734,313.61676,44,52,0
313.61676,313.73337,46,34,0
313.73337,313.85,48,34,0
313.85,313.96494,49,40,0
313.96494,314.07986,51,34,0
314.07986,314.19482,53,34,0
314.19482,314.3746,55,41,0
314.54703,314.63324,55,34,0
314.54703,314.63324,63,41,0
314.71945,314.8107,55,31,0
314.71945,314.8107,63,37,0
314.91205,315.25687,63,41,0
314.91205,315.25687,56,34,0
315.25687,315.4293,60,39,0
315.621,315.7067,51,41,0
315.621,315.7067,46,34,0
315.96384,316.04956,51,38,0
315.96384,316.04956,43,32,0
316.3178,316.66364,44,34,0
316.66364,316.83655,48,38,0
316.3178,317.01724,51,41,0
317.01724,317.13153,49,32,0
317.13153,317.24582,48,29,0
317.24582,317.3601,46,29,0
317.3601,317.4744,52,33,0
317.4744,317.58868,51,29,0
317.58868,317.70294,49,29,0
317.70294,317.81638,52,33,0
317.81638,317.92914,51,29,0
317.92914,318.04123,49,29,0
318.04123,318.15265,52,36,0
318.15265,318.26376,51,33,0
318.26376,318.37488,49,36,0
318.37488,318.486,52,41,0
318.486,318.5971,51,34,0
318.5971,318.70816,49,31,0
318.70816,318.81937,52,36,0
318.81937,318.93152,51,29,0
318.93152,319.04477,50,29,0
319.04477,319.7243,59,52,0
319.04477,319.7243,54,44,0
319.04477,319.7243,51,44,0
319.7243,320.4617,61,51,0
319.7243,320.4617,64,60,0
319.7243,320.4617,54,51,0
320.4617,320.576,35,63,0
320.576,320.69028,34,52,0
320.69028,320.80457,35,56,0
320.80457,320.91885,38,63,0
320.91885,321.03314,37,53,0
321.03314,321.14743,35,53,0
321.14743,321.26364,40,63,0
321.26364,321.37985,38,52,0
321.37985,321.49606,37,52,0
321.49606,321.61002,42,63,0
321.61002,321.73593,40,55,0
321.73593,321.87375,38,55,0
321.87375,321.9946,47,63,0
321.9946,322.11545,46,55,0
322.11545,322.2363,47,55,0
322.2363,322.36407,50,63,0
322.36407,322.49188,49,56,0
322.49188,322.6197,47,56,0
322.6197,322.74353,52,63,0
322.74353,322.86737,50,56,0
322.86737,322.9912,49,56,0
322.9912,323.11737,55,63,0
323.11737,323.24356,54,56,0
323.24356,323.40067,52,56,0
323.40067,323.52374,59,70,0
323.52374,323.64682,58,56,0
323.64682,323.7699,59,56,0
323.7699,323.89297,61,60,0
323.89297,324.01605,62,56,0
324.01605,324.13913,64,52,0
324.13913,324.2263,66,69,0
324.13913,324.2263,54,58,0
324.13913,324.2263,62,58,0
324.31345,324.4006,66,64,0
324.31345,324.4006,54,52,0
324.31345,324.4006,62,52,0
324.48776,324.57324,66,69,0
324.48776,324.57324,54,58,0
324.48776,324.57324,62,58,0
324.65872,324.7621,66,63,0
324.65872,324.7621,54,52,0
324.65872,324.7621,62,52,0
324.86545,325.228,66,75,0
324.86545,325.228,62,64,0
325.228,325.4197,62,65,0
325.228,325.4197,59,55,0
324.86545,325.4197,54,64,0
325.6114,325.70425,61,72,0
325.6114,325.70425,59,60,0
325.6114,325.70425,54,60,0
325.9829,326.07755,66,62,0
325.9829,326.07755,58,50,0
325.9829,326.07755,54,50,0
326.36145,326.47574,35,68,0
326.47574,326.59003,34,48,0
326.59003,326.7043,35,51,0
326.7043,326.8186,38,68,0
326.8186,326.9329,37,49,0
326.9329,327.05173,35,49,0
327.05173,327.1655,40,67,0
327.1655,327.27924,38,48,0
327.27924,327.393,37,48,0
327.38947,327.50342,43,67,0
327.507,327.62094,42,50,0
327.62094,327.7461,40,50,0
327.7461,327.86084,38,60,0
327.86084,327.9756,37,45,0
327.9756,328.09033,38,45,0
328.09033,328.20508,42,61,0
328.20508,328.31982,40,45,0
328.31982,328.44305,38,45,0
328.44305,328.55746,43,61,0
328.55746,328.67188,42,45,0
328.67188,328.7863,40,45,0
328.7863,328.9007,46,62,0
328.9007,329.01514,45,45,0
329.01514,329.12955,43,45,0
329.12955,329.2443,45,60,0
329.2443,329.35904,44,45,0
329.35904,329.4738,45,45,0
329.4738,329.58853,42,61,0
329.58853,329.70328,41,45,0
329.70328,329.8265,42,45,0
329.8265,329.94092,39,61,0
329.94092,330.05533,38,45,0
330.05533,330.16974,39,45,0
330.16974,330.28415,36,62,0
330.28415,330.39856,35,45,0
330.39856,330.52142,36,45,0
330.52142,330.69968,33,70,0
330.87793,330.99966,32,62,0
330.99966,331.1214,31,57,0
331.1214,331.2355,32,57,0
331.2431,331.36484,32,62,0
331.36484,331.48657,31,57,0
331.48657,331.6007,32,57,0
331.6083,331.7307,32,62,0
331.7307,331.8548,31,57,0
331.8548,331.97275,32,58,0
331.98065,332.09494,37,63,0
332.09494,332.20923,36,52,0
332.20923,332.32352,37,56,0
332.32352,332.4378,40,63,0
332.4378,332.5521,39,53,0
332.5521,332.66638,37,53,0
332.66638,332.7826,42,70,0
332.7826,332.8988,40,52,0
332.8988,333.015,39,56,0
333.015,333.12643,44,69,0
333.12643,333.25107,42,58,0
333.25107,333.3889,40,59,0
333.3889,333.50974,49,74,0
333.50974,333.63058,48,55,0
333.63058,333.75143,49,55,0
333.75143,333.8792,52,63,0
333.8792,334.00702,51,56,0
334.00702,334.13483,49,56,0
334.13483,334.25867,54,69,0
334.25867,334.38248,52,56,0
334.38248,334.50632,51,56,0
334.50632,334.6325,57,63,0
334.6325,334.7587,56,56,0
334.7587,334.9158,54,56,0
334.9158,335.03888,61,75,0
335.03888,335.16196,60,56,0
335.16196,335.28503,61,56,0
335.28503,335.4081,63,60,0
335.4081,335.5312,64,56,0
335.5312,335.65427,66,52,0
335.65427,335.74048,68,69,0
335.65427,335.74048,56,58,0
335.65427,335.74048,64,58,0
335.8267,335.9129,68,64,0
335.8267,335.9129,56,52,0
335.8267,335.9129,64,52,0
335.99908,336.08337,68,69,0
335.99908,336.08337,56,58,0
335.99908,336.08337,64,58,0
336.16763,336.27103,68,63,0
336.16763,336.27103,56,52,0
336.16763,336.27103,64,52,0
336.3744,336.73694,68,75,0
336.3744,336.73694,64,64,0
336.73694,336.92862,64,65,0
336.73694,336.92862,61,55,0
336.3744,336.92862,56,64,0
337.1203,337.2132,63,72,0
337.1203,337.2132,61,60,0
337.1203,337.2132,56,60,0
337.49182,337.58646,68,62,0
337.49182,337.58646,60,50,0
337.49182,337.58646,56,50,0
337.8704,337.98468,37,68,0
337.98468,338.09894,36,48,0
338.09894,338.21323,37,51,0
338.21323,338.3275,40,68,0
338.3275,338.4418,39,49,0
338.4418,338.56064,37,49,0
338.56064,338.6744,42,67,0
338.6744,338.78818,40,48,0
338.78818,338.90195,39,48,0
338.90622,339.02017,45,67,0
339.0159,339.12985,44,50,0
339.12985,339.255,42,50,0
339.255,339.36975,40,60,0
339.36975,339.4845,39,45,0
339.4845,339.59924,40,45,0
339.59924,339.714,44,61,0
339.714,339.82874,42,45,0
339.82874,339.95197,40,45,0
339.95197,340.06638,45,61,0
340.06638,340.18082,44,45,0
340.18082,340.29523,42,45,0
340.29523,340.40964,48,62,0
340.40964,340.52405,47,45,0
340.52405,340.63846,45,45,0
340.63846,340.7532,47,60,0
340.7532,340.86795,46,45,0
340.86795,340.9827,47,45,0
340.9827,341.09744,44,61,0
341.09744,341.2122,43,45,0
341.2122,341.33542,44,45,0
341.33542,341.44983,41,61,0
341.44983,341.56424,40,49,0
341.56424,341.67868,41,49,0
341.67868,341.7931,38,62,0
341.7931,341.9075,37,45,0
341.9075,342.03036,38,51,0
342.03036,342.20862,35,71,0
342.38687,342.50858,34,62,0
342.50858,342.6303,33,57,0
342.6303,342.74445,34,57,0
342.75204,342.87378,34,62,0
342.87378,342.9955,33,57,0
342.9955,343.10962,34,57,0
343.11722,343.23962,34,62,0
343.23962,343.3637,33,57,0
343.3637,343.48166,34,58,0
343.4896,343.66785,39,71,0
343.8461,343.9678,45,70,0
343.9678,344.08954,47,57,0
344.08954,344.20367,45,57,0
344.21127,344.333,43,62,0
344.333,344.45474,45,57,0
344.45474,344.56885,43,57,0
344.57645,344.69885,42,62,0
344.69885,344.82294,43,57,0
344.82294,344.9409,42,58,0
344.94882,345.12708,40,71,0
345.30533,345.4333,36,71,0
345.4333,345.56125,35,57,0
345.56125,345.68118,36,57,0
345.6892,345.81714,36,62,0
345.81714,345.9451,35,57,0
345.9451,346.06516,36,57,0
346.07318,346.20322,36,62,0
346.20322,346.33597,35,57,0
346.33597,346.46188,36,58,0
346.46982,346.6513,29,71,0
346.8328,346.97092,47,62,0
346.97092,347.10904,49,55,0
347.10904,347.23853,47,54,0
347.24716,347.38528,45,57,0
347.38528,347.5234,47,50,0
347.5234,347.6527,45,49,0
347.6612,347.79926,44,52,0
347.79926,347.94168,45,46,0
347.94168,348.07922,44,45,0
348.08786,350.86417,50,53,0
348.08786,350.86417,42,42,0
348.08786,350.86417,45,42,0
350.87204,353.65625,52,53,0
350.87204,353.65625,43,42,0
350.87204,353.65625,50,42,0
350.87204,353.65625,47,42,0
353.66464,356.44763,54,53,0
353.66464,356.44763,45,42,0
353.66464,356.44763,50,42,0
353.66464,356.44763,48,42,0
356.45593,358.5782,55,53,0
356.45593,358.5782,47,42,0
356.45593,358.5782,50,42,0
358.5782,359.3465,56,53,0
358.5782,359.3465,50,45,0
358.5782,359.3465,46,45,0
359.3465,359.703,57,37,0
359.3465,359.703,49,31,0
359.3465,359.703,45,31,0
360.0543,360.14108,64,37,0
360.0543,360.14108,62,31,0
360.2279,360.3147,64,32,0
360.2279,360.3147,62,27,0
360.40152,360.4909,64,37,0
360.40152,360.4909,62,31,0
360.5803,360.66968,62,27,0
360.5803,360.66968,64,32,0
360.774,361.12527,61,31,0
361.12527,361.30408,57,33,0
360.774,361.30408,64,37,0
361.48285,361.56915,40,37,0
361.48285,361.56915,35,31,0
361.65546,361.74176,40,32,0
361.65546,361.74176,35,27,0
361.82806,361.91748,40,37,0
361.82806,361.91748,32,31,0
362.00687,362.09625,32,27,0
362.00687,362.09625,40,32,0
362.20056,362.55185,33,31,0
362.55185,362.73062,45,33,0
362.20056,362.73062,40,37,0
362.90942,362.99597,64,37,0
362.90942,362.99597,62,31,0
363.08252,363.1691,64,32,0
363.08252,363.1691,62,27,0
363.25565,363.34503,64,37,0
363.25565,363.34503,62,31,0
363.43442,363.5238,62,27,0
363.43442,363.5238,64,32,0
363.6281,363.97943,61,31,0
363.97943,364.1582,57,33,0
363.6281,364.1582,64,37,0
364.33698,364.42328,40,37,0
364.33698,364.42328,35,31,0
364.50958,364.59592,40,32,0
364.50958,364.59592,35,27,0
364.68222,364.7716,40,37,0
364.68222,364.7716,32,31,0
364.861,364.95038,32,27,0
364.861,364.95038,40,32,0
365.0547,365.40598,33,31,0
365.40598,365.58478,45,33,0
365.0547,365.58478,40,37,0
365.76355,365.8501,61,38,0
365.76355,365.8501,57,31,0
365.93668,366.02322,61,33,0
365.93668,366.02322,57,28,0
366.10977,366.19916,61,38,0
366.10977,366.19916,57,32,0
366.28854,366.37796,57,28,0
366.28854,366.37796,61,33,0
366.48227,366.8295,57,33,0
366.8295,367.00827,67,35,0
366.48227,367.00827,61,39,0
367.18704,367.27386,45,41,0
367.18704,367.27386,40,34,0
367.36066,367.44748,45,35,0
367.36066,367.44748,40,30,0
367.53427,367.62366,45,41,0
367.53427,367.62366,40,35,0
367.71307,367.80246,40,30,0
367.71307,367.80246,45,36,0
367.90677,368.253,45,42,0
367.90677,368.253,40,35,0
368.253,368.43176,33,38,0
368.61057,368.69687,61,43,0
368.61057,368.69687,57,36,0
368.78317,368.86948,61,38,0
368.78317,368.86948,57,32,0
368.95578,369.04517,61,44,0
368.95578,369.04517,57,37,0
369.13455,369.22397,57,32,0
369.13455,369.22397,61,38,0
369.32828,369.6745,57,37,0
369.6745,369.85327,67,40,0
369.32828,369.85327,61,45,0
370.03204,370.11862,45,46,0
370.03204,370.11862,40,39,0
370.20517,370.29172,45,40,0
370.20517,370.29172,40,34,0
370.37827,370.46765,45,47,0
370.37827,370.46765,40,39,0
370.55707,370.64645,40,34,0
370.55707,370.64645,45,41,0
370.75076,371.098,45,56,0
370.75076,371.098,40,56,0
371.098,371.27625,33,46,0
371.4545,371.80072,49,63,0
371.80072,371.9779,33,62,0
372.15512,372.50134,52,69,0
372.50134,372.67853,49,62,0
372.85574,373.19897,61,73,0
373.19897,373.37778,57,61,0
373.55655,373.90378,64,75,0
373.90378,374.08255,57,65,0
374.26135,374.62875,67,74,0
374.62875,374.81888,64,67,0
375.0557,375.8856,50,86,0
375.0557,375.8856,38,73,0
375.8856,375.9701,50,58,0
375.8856,375.9701,42,49,0
376.0546,376.1391,50,52,0
376.0546,376.1391,42,44,0
376.2236,376.30557,50,58,0
376.2236,376.30557,42,49,0
376.38754,376.49094,50,52,0
376.38754,376.49094,42,44,0
376.5943,376.96216,42,53,0
376.96216,377.14612,52,59,0
376.96216,377.14612,43,49,0
376.5943,377.14612,50,63,0
377.33005,377.41528,54,58,0
377.33005,377.41528,50,49,0
377.33005,377.41528,45,49,0
377.5005,377.58572,54,52,0
377.5005,377.58572,50,44,0
377.5005,377.58572,45,44,0
377.67096,377.7538,54,58,0
377.67096,377.7538,50,49,0
377.67096,377.7538,45,49,0
377.8367,377.9408,54,52,0
377.8367,377.9408,50,44,0
377.8367,377.9408,45,44,0
378.0449,378.422,54,63,0
378.0449,378.422,45,53,0
378.422,378.61057,55,59,0
378.422,378.61057,47,49,0
378.0449,378.61057,50,53,0
378.61057,378.7885,52,46,0
378.7885,378.9033,55,54,0
378.9033,379.01785,54,47,0
379.01785,379.1324,52,48,0
379.1324,379.245,58,54,0
379.245,379.35764,57,49,0
379.35764,379.4891,55,49,0
379.4891,379.66547,57,54,0
379.84186,379.9574,62,42,0
379.9574,380.07294,64,35,0
380.07294,380.18848,66,35,0
380.18848,380.30237,57,43,0
380.30237,380.41626,61,36,0
380.41626,380.53015,62,36,0
380.53015,380.64404,64,43,0
380.64404,380.75793,66,37,0
380.75793,380.91287,67,37,0
380.91287,381.74274,50,86,0
380.91287,381.74274,45,73,0
380.91287,381.74274,42,73,0
380.91287,381.74274,38,73,0
381.74274,381.82797,50,51,0
381.74274,381.82797,42,43,0
381.91318,381.9984,50,46,0
381.91318,381.9984,42,39,0
382.08365,382.1663,50,51,0
382.08365,382.1663,42,43,0
382.24893,382.35233,50,46,0
382.24893,382.35233,42,39,0
382.4557,382.82355,42,47,0
382.82355,383.0075,52,52,0
382.82355,383.0075,43,43,0
382.4557,383.0075,50,56,0
383.19144,383.30405,45,53,0
383.30405,383.41666,47,48,0
383.41666,383.52927,48,48,0
383.52927,383.63828,50,53,0
383.63828,383.74725,52,49,0
383.74725,383.888,54,48,0
383.888,384.0624,46,53,0
384.0624,384.23685,54,49,0
384.23685,384.41125,47,53,0
384.41125,384.61047,55,48,0
384.61047,384.69543,57,51,0
384.61047,384.69543,55,43,0
384.61047,384.69543,49,43,0
384.78043,384.86542,57,46,0
384.78043,384.86542,55,39,0
384.78043,384.86542,49,39,0
384.9504,385.0335,57,51,0
384.9504,385.0335,55,43,0
384.9504,385.0335,49,43,0
385.1166,385.21997,57,46,0
385.1166,385.21997,55,39,0
385.1166,385.21997,49,39,0
385.32336,385.69122,57,56,0
385.32336,385.69122,49,47,0
385.69122,385.87518,59,52,0
385.69122,385.87518,50,43,0
385.32336,385.87518,55,47,0
386.0591,386.17172,50,53,0
386.17172,386.28433,52,48,0
386.28433,386.39694,54,48,0
386.39694,386.50595,55,53,0
386.50595,386.61493,57,49,0
386.61493,386.75568,59,48,0
386.75568,386.9306,51,53,0
386.9306,387.10553,59,49,0
387.10553,387.28046,52,53,0
387.28046,387.45538,60,48,0
387.45538,387.54062,61,51,0
387.45538,387.54062,58,43,0
387.45538,387.54062,52,43,0
387.62582,387.71106,61,46,0
387.62582,387.71106,58,39,0
387.62582,387.71106,52,39,0
387.7963,387.87964,61,51,0
387.7963,387.87964,58,43,0
387.7963,387.87964,52,43,0
387.96295,388.06635,61,46,0
387.96295,388.06635,58,39,0
387.96295,388.06635,52,39,0
388.1697,388.5376,61,56,0
388.1697,388.5376,52,47,0
388.5376,388.72153,62,52,0
388.5376,388.72153,53,43,0
388.1697,388.72153,58,47,0
388.90546,389.01807,53,53,0
389.01807,389.13068,55,48,0
389.13068,389.2433,57,48,0
389.2433,389.35318,59,53,0
389.35318,389.46307,60,49,0
389.46307,389.62567,62,48,0
389.62567,389.7996,51,53,0
389.7996,389.9735,63,42,0
389.9735,390.14996,58,53,0
390.14996,390.32645,62,44,0
390.32645,390.41193,46,43,0
390.32645,390.41193,34,36,0
390.49738,390.58286,46,39,0
390.49738,390.58286,34,33,0
390.66833,390.75143,46,43,0
390.66833,390.75143,34,36,0
390.83453,390.9379,46,39,0
390.83453,390.9379,34,33,0
391.0413,391.59308,46,47,0
391.0413,391.59308,34,39,0
391.77704,391.88965,53,45,0
391.88965,392.00226,55,40,0
392.00226,392.11487,57,40,0
392.11487,392.22476,58,45,0
392.22476,392.33466,60,41,0
392.33466,392.4754,62,40,0
392.4754,392.65332,51,45,0
392.65332,392.78677,58,41,0
392.83127,393.0092,58,45,0
393.0092,393.18713,62,40,0
393.18713,393.27164,46,43,0
393.18713,393.27164,34,36,0
393.35614,393.44064,46,39,0
393.35614,393.44064,34,33,0
393.52515,393.6069,46,43,0
393.52515,393.6069,34,36,0
393.68866,393.79202,46,39,0
393.68866,393.79202,34,33,0
393.89542,394.4472,46,47,0
393.89542,394.4472,34,39,0
394.63113,394.74374,53,43,0
394.74374,394.85638,55,44,0
394.85638,394.969,57,45,0
394.969,395.0816,58,46,0
395.0816,395.1942,60,47,0
395.1942,395.30664,62,48,0
395.30664,395.4183,63,51,0
395.4183,395.52957,65,44,0
395.52957,395.64053,67,44,0
395.64053,395.75113,65,51,0
395.75113,395.8614,63,45,0
395.8614,395.97125,62,45,0
395.97125,396.0807,61,48,0
396.0807,396.19067,58,39,0
396.19067,396.3012,55,39,0
396.3012,396.41232,52,41,0
396.41232,396.524,49,39,0
396.524,396.64075,52,40,0
396.64075,396.75198,53,42,0
396.75198,396.86322,50,38,0
396.86322,396.97446,53,38,0
396.97446,397.0857,50,42,0
397.0857,397.19693,46,38,0
397.19693,397.30756,50,38,0
397.30756,397.41776,41,38,0
397.41776,397.5278,43,39,0
397.5278,397.6377,45,41,0
397.6377,397.74744,46,43,0
397.74744,397.85703,48,45,0
397.85703,397.97208,50,46,0
397.97208,398.08072,51,48,0
398.08072,398.1888,53,50,0
398.1888,398.29694,55,51,0
398.29694,398.40503,53,53,0
398.40503,398.5133,51,49,0
398.5133,398.6218,50,51,0
398.6218,398.73053,49,48,0
398.73053,398.83954,46,46,0
398.83954,398.94876,43,45,0
398.94876,399.05823,40,43,0
399.05823,399.16794,37,39,0
399.16794,399.27783,40,36,0
399.27783,399.386,43,50,0
399.386,399.49295,40,36,0
399.49295,399.59866,43,36,0
399.59866,399.7048,40,37,0
399.7048,399.81335,37,37,0
399.81335,399.92776,40,38,0
399.92776,400.03638,44,52,0
400.03638,400.14432,40,38,0
400.14432,400.2518,44,39,0
400.2518,400.35892,40,39,0
400.35892,400.46735,37,40,0
400.46735,400.5827,40,40,0
400.5827,400.69016,45,55,0
400.69016,400.79666,40,41,0
400.79666,400.9022,45,42,0
400.9022,401.00803,40,42,0
401.00803,401.11557,37,43,0
401.11557,401.22897,40,43,0
401.22897,401.33508,45,57,0
401.33508,401.44034,40,44,0
401.44034,401.54477,45,45,0
401.54477,401.64905,40,45,0
401.64905,401.75485,36,45,0
401.75485,401.8685,40,46,0
401.8685,401.97394,35,62,0
401.97394,402.0789,41,50,0
402.0789,402.18338,35,51,0
402.18338,402.28867,41,52,0
402.28867,402.39618,47,53,0
402.39618,402.50995,41,54,0
402.50995,402.61908,34,69,0
402.61908,402.7282,41,56,0
402.7282,402.83762,34,58,0
402.83762,402.94727,41,59,0
402.94727,403.05713,46,61,0
403.05713,403.17682,34,62,0
403.17682,404.04956,45,86,0
403.17682,404.04956,33,73,0
404.04956,404.22397,66,51,0
404.04956,404.22397,57,43,0
404.2821,404.4565,66,46,0
404.2821,404.4565,57,39,0
404.51468,404.6891,66,51,0
404.51468,404.6891,57,43,0
404.74722,404.9371,66,46,0
404.74722,404.9371,57,39,0
405.0004,405.43835,69,56,0
405.43835,405.69046,64,37,0
405.0004,405.69046,57,47,0
405.69046,405.87585,37,49,0
405.87585,405.98846,38,53,0
405.98846,406.10107,37,49,0
406.10107,406.21368,35,53,0
406.21368,406.32632,41,56,0
406.32632,406.43893,40,51,0
406.43893,406.57968,38,38,0
406.57968,406.69342,49,47,0
406.57968,406.7503,40,43,0
406.69342,406.8072,50,41,0
406.8072,406.92096,52,41,0
406.92096,407.04306,54,47,0
407.04306,407.16516,56,42,0
407.16516,407.29752,57,42,0
407.5257,407.6398,52,44,0
407.6398,407.75388,50,50,0
407.75388,407.86798,49,53,0
407.86798,407.98206,47,56,0
407.98206,408.85162,45,77,0
407.98206,408.85162,33,65,0
408.85162,409.16895,66,51,0
408.85162,409.16895,57,43,0
409.19778,409.28433,66,46,0
409.19778,409.28433,57,39,0
409.31317,409.63928,66,51,0
409.31317,409.63928,57,43,0
409.67105,409.7664,66,46,0
409.67105,409.7664,57,39,0
409.7982,410.23615,69,56,0
410.23615,410.49036,64,37,0
409.7982,410.49036,57,47,0
410.49036,410.67578,37,49,0
410.67578,410.7884,38,53,0
410.7884,410.901,37,49,0
410.901,411.0136,35,53,0
411.0136,411.12622,41,56,0
411.12622,411.23886,40,51,0
411.23886,411.37958,38,38,0
411.37958,411.49335,49,47,0
411.37958,411.55023,40,43,0
411.49335,411.60712,50,41,0
411.60712,411.7209,52,41,0
411.7209,411.843,54,47,0
411.843,411.9651,56,42,0
411.9651,412.09744,57,42,0
412.32562,412.43973,52,44,0
412.43973,412.5538,50,50,0
412.5538,412.6679,49,53,0
412.6679,412.7975,47,56,0
412.7975,412.97156,45,50,0
415.5501,415.91486,62,41,0
415.91486,416.0107,54,35,0
416.29825,416.66187,64,41,0
416.66187,416.75278,57,35,0
416.9897,417.03738,57,33,0
417.03738,417.40036,66,41,0
417.40036,417.4948,62,34,0
417.73096,417.7782,62,33,0
417.7782,418.05374,71,45,0
418.05374,418.1456,68,36,0
418.1456,418.42117,71,43,0
418.42117,418.52032,68,35,0
418.52032,418.885,69,41,0
418.89056,418.9886,57,35,0
419.23044,419.27945,57,33,0
419.27945,419.64755,67,41,0
419.64755,419.74557,64,35,0
419.9907,420.0397,64,33,0
420.0397,420.40268,66,41,0
420.40268,420.49713,57,34,0
420.73328,420.78052,57,33,0
420.78052,421.0561,64,45,0
421.0561,421.14795,61,36,0
421.14795,421.4235,64,43,0
421.4235,421.52264,61,35,0
421.52264,421.86987,62,41,0
421.52264,421.86987,54,41,0
421.8731,421.97018,57,35,0
422.2582,422.60544,64,41,0
422.2582,422.60544,61,41,0
422.60867,422.7061,57,35,0
422.99506,423.34225,66,41,0
422.99506,423.34225,57,41,0
423.34225,423.433,62,35,0
423.70523,423.9808,65,38,0
423.70523,423.9808,68,45,0
423.9808,424.07266,62,36,0
424.07266,424.34824,65,36,0
424.07266,424.34824,68,43,0
424.34824,424.4474,62,35,0
424.4474,424.79242,69,41,0
424.4474,424.7946,66,41,0
424.79785,424.89557,57,35,0
425.1855,425.53268,67,41,0
425.1855,425.53268,64,41,0
425.53595,425.63367,57,35,0
425.92358,426.27078,66,41,0
425.92358,426.27078,62,41,0
426.27078,426.3682,57,35,0
426.6604,426.93597,64,45,0
426.6604,426.93597,61,38,0
426.93597,427.02783,57,36,0
427.02783,427.3034,64,43,0
427.02783,427.3034,61,36,0
427.3034,427.42914,57,35,0
427.42914,427.5854,64,69,0
427.5854,427.74164,55,53,0
427.74164,427.91785,64,53,0
427.91785,428.73816,48,71,0
428.73816,428.85535,64,48,0
428.73816,428.85535,55,48,0
428.85535,429.2069,48,62,0
429.2069,429.33847,55,53,0
429.33847,429.48206,64,71,0
429.48206,429.62564,55,53,0
429.62564,429.79257,64,53,0
429.79257,430.61288,48,68,0
430.61288,430.73007,64,48,0
430.61288,430.73007,55,48,0
430.73007,431.55038,48,62,0
431.55038,431.68256,64,53,0
431.55038,431.68256,55,45,0
431.68256,432.47922,48,62,0
432.47922,432.59302,64,53,0
432.47922,432.59302,55,45,0
432.59302,432.93445,48,62,0
432.93445,433.04825,60,53,0
433.04825,433.1939,53,71,0
433.1939,433.3396,60,53,0
433.3396,433.52225,53,53,0
433.52225,434.33304,41,69,0
434.33304,434.44888,60,48,0
434.33304,434.44888,53,48,0
434.44888,434.79636,41,62,0
434.79636,434.93335,60,53,0
434.93335,435.08063,53,62,0
435.08063,435.2279,60,53,0
435.2279,435.40646,53,53,0
435.40646,436.22678,41,62,0
436.22678,436.35284,60,48,0
436.22678,436.35284,53,48,0
436.35284,437.17316,41,62,0
437.17316,437.29837,60,53,0
437.17316,437.29837,53,45,0
437.29837,438.12512,41,62,0
438.12512,438.26895,45,41,0
438.26895,439.1296,40,45,0
439.1296,439.2796,45,33,0
439.2796,439.68683,40,37,0
439.68683,439.82257,45,32,0
439.82257,440.25116,40,34,0
440.25116,440.42258,45,29,0
440.42258,440.86594,40,31,0
440.86594,441.05582,45,27,0
441.05582,441.143,38,31,0
441.86523,441.9797,62,38,0
441.9797,442.09393,66,40,0
442.09393,442.20908,69,42,0
442.20908,442.325,74,41,0
442.325,442.4512,78,38,0
442.4512,442.62216,69,42,0
442.7931,442.88004,57,28,0
442.7931,442.88004,64,28,0
442.7931,442.88004,67,34,0
443.14093,443.22787,57,28,0
443.14093,443.22787,62,28,0
443.14093,443.22787,66,34,0
443.48874,443.57568,57,28,0
443.48874,443.57568,61,28,0
443.48874,443.57568,64,34,0
443.8456,444.02005,62,37,0
443.8456,444.02005,54,31,0
443.8456,444.02005,50,31,0
444.65503,444.76953,62,38,0
444.76953,444.88373,66,40,0
444.88373,444.9989,69,42,0
444.9989,445.11484,74,41,0
445.11484,445.24103,78,38,0
445.24103,445.41196,69,42,0
445.58292,445.66986,57,28,0
445.58292,445.66986,64,28,0
445.58292,445.66986,67,34,0
445.93073,446.0177,57,28,0
445.93073,446.0177,62,28,0
445.93073,446.0177,66,34,0
446.27856,446.3655,57,28,0
446.27856,446.3655,61,28,0
446.27856,446.3655,64,34,0
446.6586,447.03595,62,41,0
447.03595,447.22464,54,35,0
447.42886,447.8074,64,40,0
447.8074,447.99667,57,33,0
448.2011,448.5761,66,42,0
448.5761,448.7636,62,34,0
448.96356,449.23798,71,40,0
449.23798,449.32944,68,30,0
449.32944,449.60657,71,37,0
449.60657,449.70624,68,34,0
449.70624,450.07773,69,41,0
450.07773,450.2635,57,35,0
450.46527,450.8368,67,40,0
450.8368,451.02255,64,33,0
451.22385,451.59537,66,42,0
451.59537,451.78113,57,34,0
451.9805,452.24997,64,40,0
452.24997,452.33978,61,30,0
452.33978,452.62167,64,37,0
452.62167,452.74878,57,34,0
452.74878,453.1203,74,41,0
453.1203,453.30606,66,35,0
453.50784,453.87936,76,46,0
453.87936,454.06512,69,39,0
454.26642,454.63794,78,46,0
454.63794,454.8237,74,43,0
455.02307,455.29254,83,53,0
455.29254,455.38235,80,39,0
455.38235,455.66425,83,51,0
455.66425,455.79135,80,40,0
455.79135,456.15723,83,53,0
456.15723,456.34015,80,44,0
456.53015,456.896,83,51,0
456.896,457.07892,80,37,0
457.2859,457.64844,83,52,0
457.64844,457.8297,80,41,0
458.01917,458.2886,82,46,0
458.2886,458.37845,80,30,0
458.37845,458.65118,82,42,0
458.65118,458.75085,80,34,0
458.75085,459.11783,82,48,0
459.11783,459.3013,80,34,0
459.4915,459.85846,82,42,0
459.85846,460.04196,80,33,0
460.2491,460.6206,82,40,0
460.6206,460.80637,79,32,0
461.00208,461.37592,81,39,0
461.37592,461.56284,79,31,0
461.77112,462.14966,78,37,0
462.14966,462.33893,81,29,0
462.5395,462.91922,71,36,0
462.91922,463.1091,79,28,0
462.91922,463.1091,74,25,0
463.3184,463.69812,69,34,0
463.69812,463.888,78,27,0
463.69812,463.888,74,25,0
464.08597,464.46692,69,33,0
464.46692,464.6574,76,26,0
464.46692,464.6574,73,22,0
464.86688,464.9754,60,74,0
464.9754,465.08392,62,42,0
465.08392,465.19244,60,42,0
465.19244,465.30096,57,48,0
465.30096,465.4095,54,41,0
465.4095,465.52325,50,41,0
465.52325,465.63147,48,60,0
465.63147,465.7397,50,36,0
465.7397,465.84793,48,36,0
465.84793,465.95615,50,44,0
465.95615,466.06436,48,37,0
466.06436,466.18484,50,37,0
466.18484,466.29337,58,73,0
466.29337,466.4019,62,42,0
466.4019,466.5104,60,42,0
466.5104,466.61893,58,48,0
466.61893,466.72745,53,41,0
466.72745,466.84122,50,41,0
466.84122,466.94943,46,62,0
466.94943,467.05765,50,36,0
467.05765,467.1659,46,36,0
467.1659,467.2741,50,44,0
467.2741,467.38232,46,37,0
467.38232,467.51434,50,37,0
467.51434,467.62286,60,73,0
467.62286,467.73138,62,42,0
467.73138,467.8399,60,42,0
467.8399,467.94843,57,48,0
467.94843,468.05695,54,41,0
468.05695,468.17072,50,41,0
468.17072,468.27893,48,60,0
468.27893,468.38715,50,36,0
468.38715,468.4954,48,36,0
468.4954,468.6036,50,44,0
468.6036,468.71182,48,37,0
468.71182,468.83417,50,37,0
468.83417,468.94266,58,74,0
468.94266,469.05118,62,42,0
469.05118,469.1597,60,42,0
469.1597,469.26822,58,48,0
469.26822,469.37674,53,41,0
469.37674,469.4905,50,41,0
469.4905,469.59872,46,62,0
469.59872,469.70697,50,36,0
469.70697,469.8152,46,36,0
469.8152,469.9234,50,44,0
469.9234,470.03165,46,37,0
470.03165,470.14572,50,37,0
470.14572,470.26373,57,37,0
470.14572,470.32272,45,35,0
470.26373,470.3817,59,32,0
470.3817,470.4997,61,32,0
470.4997,470.6218,62,37,0
470.6218,470.7439,64,33,0
470.7439,470.87628,66,33,0
471.2334,471.412,57,35,0
471.2334,471.412,64,35,0
471.5992,471.776,50,33,0
471.5992,471.776,54,33,0
471.60364,471.7804,62,40,0
471.95203,472.2146,81,44,0
471.95203,472.2146,78,44,0
472.2146,472.30746,81,39,0
472.2146,472.30746,78,39,0
472.30746,472.4813,79,44,0
472.30746,472.4813,76,44,0
472.655,472.82907,64,40,0
472.655,472.82907,57,40,0
473.02127,473.19595,62,45,0
473.02127,473.19595,54,38,0
473.02127,473.19595,50,38,0
473.36728,473.627,81,44,0
473.36728,473.627,78,44,0
473.627,473.72018,81,39,0
473.627,473.72018,78,39,0
473.72018,473.89017,76,44,0
473.72018,473.89017,79,44,0
474.06097,474.2329,64,40,0
474.06097,474.2329,57,40,0
474.4055,474.57584,62,45,0
474.4055,474.57584,50,38,0
474.4055,474.57584,54,38,0
474.74817,475.0103,81,44,0
474.74817,475.0103,78,44,0
475.0103,475.10263,81,39,0
475.0103,475.10263,78,39,0
475.10263,475.27744,79,44,0
475.10263,475.27744,76,44,0
475.4551,475.63568,57,35,0
475.8364,475.94492,60,74,0
475.94492,476.05344,62,42,0
476.05344,476.16196,60,42,0
476.16196,476.27048,57,48,0
476.27048,476.379,54,41,0
476.379,476.49277,50,41,0
476.49277,476.60098,48,60,0
476.60098,476.7092,50,36,0
476.7092,476.81744,48,36,0
476.81744,476.92566,50,44,0
476.92566,477.03387,48,37,0
477.03387,477.15472,50,37,0
477.15472,477.26324,58,73,0
477.26324,477.37177,62,42,0
477.37177,477.4803,60,42,0
477.4803,477.5888,58,48,0
477.5888,477.69733,53,41,0
477.69733,477.8111,50,41,0
477.8111,477.9193,46,62,0
477.9193,478.02756,50,36,0
478.02756,478.13577,46,36,0
478.13577,478.244,50,44,0
478.244,478.3522,46,37,0
478.3522,478.48422,50,37,0
478.48422,478.59262,58,73,0
478.59262,478.70102,60,42,0
478.70102,478.80945,58,42,0
478.80945,478.91785,55,48,0
478.91785,479.02625,52,41,0
479.02625,479.14,48,41,0
479.14,479.24823,46,62,0
479.24823,479.35645,48,36,0
479.35645,479.4647,46,36,0
479.4647,479.5729,48,44,0
479.5729,479.68112,46,37,0
479.68112,479.81314,48,37,0
479.81314,479.92166,56,73,0
479.92166,480.03018,60,42,0
480.03018,480.1387,58,42,0
480.1387,480.24722,56,48,0
480.24722,480.35574,51,41,0
480.35574,480.4695,48,41,0
480.4695,480.57773,44,62,0
480.57773,480.68594,48,36,0
480.68594,480.7942,44,36,0
480.7942,480.9024,48,44,0
480.9024,481.01062,44,37,0
481.01062,481.14264,48,37,0
481.14264,481.25116,56,73,0
481.25116,481.35968,58,42,0
481.35968,481.4682,56,42,0
481.4682,481.57672,53,48,0
481.57672,481.68524,50,41,0
481.68524,481.799,46,41,0
481.799,481.9075,54,73,0
481.9075,482.01602,58,42,0
482.01602,482.12454,54,42,0
482.12454,482.23306,49,48,0
482.23306,482.34158,46,41,0
482.34158,482.45535,42,41,0
482.45535,482.56387,55,73,0
482.56387,482.6724,57,42,0
482.6724,482.7809,55,42,0
482.7809,482.88943,52,48,0
482.88943,482.99796,49,41,0
482.99796,483.11172,45,41,0
483.11172,483.22025,53,73,0
483.22025,483.32877,57,42,0
483.32877,483.43726,53,42,0
483.43726,483.54578,48,48,0
483.54578,483.6543,45,41,0
483.6543,483.76807,41,41,0
483.76807,483.8766,46,73,0
483.8766,483.9851,50,42,0
483.9851,484.09363,46,42,0
484.09363,484.20215,41,48,0
484.20215,484.31067,38,41,0
484.31067,484.42444,34,41,0
484.42444,484.53265,38,55,0
484.53265,484.64087,34,32,0
484.64087,484.7491,38,32,0
484.7491,484.85733,34,39,0
484.85733,484.96555,38,33,0
484.96555,485.09756,34,33,0
485.09756,485.20657,38,45,0
485.20657,485.31555,34,29,0
485.31555,485.42456,38,29,0
485.42456,485.53354,34,34,0
485.53354,485.64252,38,28,0
485.64252,485.77454,34,28,0
485.77454,485.88452,38,38,0
485.88452,485.9956,34,25,0
485.9956,486.10767,38,25,0
486.10767,486.22076,34,30,0
486.22076,486.3349,38,24,0
486.3349,486.46692,34,24,0
486.46692,486.5849,45,37,0
486.46692,486.6439,33,35,0
486.5849,486.7029,47,32,0
486.7029,486.8209,49,32,0
486.8209,486.9463,50,37,0
486.9463,487.0717,52,33,0
487.0717,487.20486,54,33,0
487.56308,487.74216,45,35,0
487.56308,487.74216,52,35,0
487.9311,488.1094,50,33,0
487.9311,488.1094,54,40,0
488.2866,488.5504,66,44,0
488.2866,488.5504,69,44,0
488.5504,488.64328,66,39,0
488.5504,488.64328,69,39,0
488.64328,488.81845,64,44,0
488.64328,488.81845,67,44,0
488.9929,489.1669,52,40,0
488.9929,489.1669,45,40,0
489.3586,489.53412,50,38,0
489.3586,489.53412,54,38,0
489.70605,489.9667,66,44,0
489.70605,489.9667,69,44,0
489.9667,490.05988,66,39,0
489.9667,490.05988,69,39,0
490.05988,490.2306,67,44,0
490.05988,490.2306,64,44,0
490.40213,490.5747,64,40,0
490.40213,490.5747,57,40,0
490.7476,490.9193,50,38,0
490.7476,490.9193,54,38,0
491.09332,491.3588,69,44,0
491.09332,491.3588,66,44,0
491.3588,491.45523,69,39,0
491.3588,491.45523,66,39,0
491.45523,491.6316,67,44,0
491.45523,491.6316,64,44,0
491.81033,491.99146,45,32,0
491.81033,491.99146,52,40,0
492.19858,492.8983,38,51,0
492.19858,492.8983,50,61,0
492.8983,492.985,50,46,0
492.8983,492.985,54,55,0
493.0717,493.1584,50,37,0
493.0717,493.1584,54,45,0
493.2451,493.33182,50,47,0
493.2451,493.33182,54,57,0
493.41852,493.50757,50,37,0
493.41852,493.50757,54,45,0
493.60132,493.95013,50,51,0
493.60132,493.95013,54,61,0
493.95013,494.12924,62,52,0
493.95013,494.12924,54,45,0
494.30835,494.39456,54,55,0
494.30835,494.39456,62,65,0
494.48077,494.567,54,46,0
494.48077,494.567,62,55,0
494.6532,494.7399,54,56,0
494.6532,494.7399,62,66,0
494.8266,494.91556,54,48,0
494.8266,494.91556,62,58,0
495.009,495.35583,50,63,0
495.009,495.35583,62,76,0
495.35583,495.5323,62,56,0
495.35583,495.5323,66,66,0
495.70877,495.79474,62,67,0
495.70877,495.79474,66,80,0
495.8807,495.96664,62,58,0
495.8807,495.96664,66,70,0
496.0526,496.13983,62,70,0
496.0526,496.13983,66,82,0
496.22702,496.31424,62,62,0
496.22702,496.31424,66,73,0
496.40146,496.74728,62,71,0
496.40146,496.74728,66,85,0
496.74728,496.9222,66,63,0
496.74728,496.9222,69,76,0
497.09714,497.18332,66,71,0
497.09714,497.18332,69,85,0
497.26953,497.35574,66,63,0
497.26953,497.35574,69,76,0
497.44196,497.53098,66,73,0
497.44196,497.53098,69,87,0
497.62,497.7228,66,67,0
497.62,497.7228,69,80,0
497.85324,498.68314,50,86,0
497.85324,498.68314,38,73,0
498.68314,498.76813,62,69,0
498.68314,498.76813,54,58,0
498.8531,498.93808,62,63,0
498.8531,498.93808,54,52,0
499.02307,499.10483,62,69,0
499.02307,499.10483,54,58,0
499.18655,499.2783,62,63,0
499.18655,499.2783,54,52,0
499.37006,499.69614,62,75,0
499.37006,499.69614,54,64,0
499.69614,499.8721,64,71,0
499.69614,499.8721,57,58,0
500.04803,500.37592,64,75,0
500.04803,500.37592,57,64,0
500.37592,500.55032,66,71,0
500.37592,500.55032,62,58,0
500.72473,501.05173,66,75,0
500.72473,501.05173,62,64,0
501.05173,501.22513,64,71,0
501.05173,501.22513,57,58,0
501.39853,501.48007,64,69,0
501.39853,501.48007,57,58,0
501.56158,501.6431,64,63,0
501.56158,501.6431,57,52,0
501.72464,501.80338,64,69,0
501.72464,501.80338,57,58,0
501.8821,501.97192,64,63,0
501.8821,501.97192,57,52,0
502.06174,502.38174,64,75,0
502.06174,502.38174,57,64,0
502.38174,502.55515,69,71,0
502.38174,502.55515,66,58,0
502.72858,503.04773,69,75,0
502.72858,503.04773,66,64,0
503.04773,503.22113,67,71,0
503.04773,503.22113,61,58,0
503.39453,503.71115,67,75,0
503.39453,503.71115,61,64,0
503.71115,503.88458,66,71,0
503.71115,503.88458,62,58,0
504.05798,504.13412,47,69,0
504.05798,504.13412,35,58,0
504.21027,504.2864,47,63,0
504.21027,504.2864,35,52,0
504.36255,504.4387,47,69,0
504.36255,504.4387,35,58,0
504.51483,504.6003,47,63,0
504.51483,504.6003,35,52,0
504.6858,505.00156,47,75,0
504.6858,505.00156,35,64,0
505.00156,505.16916,50,71,0
505.00156,505.16916,38,58,0
505.33676,505.42346,50,66,0
505.33676,505.42346,38,56,0
505.6836,505.77478,54,62,0
505.6836,505.77478,42,51,0
506.04834,506.71872,57,66,0
506.04834,506.71872,45,56,0
506.71872,506.79486,53,69,0
506.71872,506.79486,41,58,0
506.871,506.94714,53,63,0
506.871,506.94714,41,52,0
507.0233,507.09943,53,69,0
507.0233,507.09943,41,58,0
507.17557,507.26105,53,63,0
507.17557,507.26105,41,52,0
507.3465,507.9975,57,75,0
507.3465,507.9975,54,64,0
507.3465,507.9975,45,64,0
507.9975,508.0842,66,66,0
507.9975,508.0842,57,56,0
507.9975,508.0842,62,56,0
508.34433,508.43552,64,62,0
508.34433,508.43552,57,51,0
508.34433,508.43552,61,51,0
508.70905,509.04425,62,66,0
508.70905,509.04425,50,56,0
508.70905,509.04425,54,56,0
508.70905,509.04425,57,56,0
509.04425,509.53174,53,69,0
509.04425,509.53174,41,58,0
509.53174,509.60788,53,63,0
509.53174,509.60788,41,52,0
509.68402,509.76016,53,69,0
509.68402,509.76016,41,58,0
509.8363,509.92178,53,63,0
509.8363,509.92178,41,52,0
510.00723,510.65823,57,75,0
510.00723,510.65823,54,64,0
510.00723,510.65823,45,64,0
510.65823,510.74493,66,66,0
510.65823,510.74493,57,56,0
510.65823,510.74493,62,56,0
511.00507,511.09622,64,62,0
511.00507,511.09622,57,51,0
511.00507,511.09622,61,51,0
511.36978,511.705,62,66,0
511.36978,511.705,50,56,0
511.36978,511.705,54,56,0
511.36978,511.705,57,56,0
511.705,512.19244,46,69,0
511.705,512.19244,34,58,0
512.19244,512.2686,46,63,0
512.19244,512.2686,34,52,0
512.3447,512.4209,46,69,0
512.3447,512.4209,34,58,0
512.497,512.5825,46,63,0
512.497,512.5825,34,52,0
512.66797,513.319,57,75,0
512.66797,513.319,54,64,0
512.66797,513.319,45,64,0
513.319,513.40564,66,66,0
513.319,513.40564,57,56,0
513.319,513.40564,62,56,0
513.6658,513.75696,64,62,0
513.6658,513.75696,57,51,0
513.6658,513.75696,61,51,0
514.0305,514.33435,69,88,0
514.0305,514.33435,66,73,0
514.33435,514.4906,66,68,0
514.33435,514.4906,62,57,0
514.0305,514.4906,57,67,0
514.64685,514.7233,66,73,0
514.64685,514.7233,62,62,0
514.64685,514.7233,57,62,0
514.95294,515.03253,64,63,0
514.95294,515.03253,61,54,0
514.95294,515.03253,57,54,0
515.27124,515.5683,69,88,0
515.27124,515.5683,66,73,0
515.5683,515.7241,66,68,0
515.5683,515.7241,62,57,0
515.27124,515.7241,57,67,0
515.87994,515.95593,66,73,0
515.87994,515.95593,62,62,0
515.87994,515.95593,57,62,0
516.1838,516.26294,64,63,0
516.1838,516.26294,61,54,0
516.1838,516.26294,57,54,0
516.50037,516.7974,69,88,0
516.50037,516.7974,66,73,0
516.7974,516.9529,66,68,0
516.7974,516.9529,62,57,0
516.50037,516.9529,57,67,0
517.1083,517.18384,66,73,0
517.1083,517.18384,62,62,0
517.1083,517.18384,57,62,0
517.4106,517.49255,64,63,0
517.4106,517.49255,61,54,0
517.4106,517.49255,57,54,0
517.7384,517.8152,62,83,0
517.7384,517.8152,54,71,0
517.7384,517.8152,50,71,0
517.94305,518.04535,40,42,0
518.04535,518.1458,42,46,0
518.1458,518.24634,40,42,0
518.24634,518.34686,38,43,0
518.34686,518.4469,43,48,0
518.4469,518.5467,42,44,0
518.5467,518.6462,40,45,0
518.6462,518.7455,45,50,0
518.7455,518.8445,43,46,0
518.8445,518.94324,42,46,0
518.94324,519.0416,47,52,0
519.0416,519.1401,45,48,0
519.1401,519.2385,43,48,0
519.2385,519.3369,49,55,0
519.3369,519.43536,47,51,0
519.43536,519.53375,45,52,0
519.53375,519.6315,50,58,0
519.6315,519.7292,49,53,0
519.7292,519.8269,47,55,0
519.8269,519.9246,52,62,0
519.9246,520.0223,50,56,0
520.0223,520.13983,49,57,0
520.13983,520.7289,54,73,0
520.13983,520.7289,42,73,0
521.318,521.9071,45,80,0
521.318,521.9071,33,80,0
522.4962,522.9573,50,80,0
522.4962,522.9573,38,68,0
522.9573,523.11096,38,72,0
523.11096,523.2187,42,80,0
523.2187,523.32635,40,73,0
523.32635,523.4341,38,73,0
523.4341,523.54987,45,80,0
523.54987,523.6657,43,73,0
523.6657,523.7815,42,73,0
523.7815,523.96643,50,88,0
524.5213,524.7063,62,88,0
524.5213,524.7063,50,74,0
524.5213,524.7063,54,74,0
524.5213,524.7063,57,74,0
525.26117,526.001,50,80,0
525.26117,526.001,38,80,0
525.26117,526.001,45,80,0
