start_time,end_time,note_value,velocity,instrument_program_number
0.930376,1.529537,68,45,0
0.930376,1.529537,63,45,0
0.930376,1.529537,72,57,0
1.529537,2.925101,72,59,0
2.925101,3.390289,70,56,0
1.529537,3.390289,68,47,0
1.529537,3.390289,65,47,0
3.855477,4.46375,70,50,0
3.855477,4.46375,67,50,0
3.855477,4.46375,77,63,0
4.46375,5.859314,77,65,0
5.859314,6.324502,75,60,0
4.46375,6.324502,68,52,0
4.46375,6.324502,72,52,0
6.557096,6.7579393,63,54,0
6.7579393,6.958783,68,56,0
6.958783,7.1596265,72,58,0
6.557096,7.1596265,60,43,0
7.1596265,8.051821,63,48,0
7.1596265,8.051821,67,48,0
7.1596265,8.051821,73,60,0
7.1596265,8.051821,61,48,0
8.051821,8.57356,63,50,0
8.051821,8.57356,60,50,0
8.051821,8.57356,72,63,0
8.051821,8.57356,68,50,0
8.57356,9.442495,63,51,0
8.57356,9.442495,70,64,0
8.57356,9.442495,58,51,0
9.442495,10.076476,74,67,0
9.442495,10.076476,68,54,0
9.442495,10.076476,70,54,0
9.442495,10.076476,62,54,0
10.076476,11.597132,74,70,0
10.076476,11.597132,62,56,0
10.076476,11.597132,68,56,0
11.597132,12.06232,63,40,0
10.076476,12.06232,70,56,0
11.597132,12.06232,75,51,0
11.597132,12.06232,67,40,0
12.527508,13.129676,63,42,0
12.527508,13.129676,68,42,0
12.527508,13.129676,72,53,0
13.129676,14.52524,72,58,0
14.52524,14.990428,70,50,0
13.129676,14.990428,65,46,0
13.129676,14.990428,68,46,0
15.455615,16.089596,71,63,0
15.455615,16.089596,77,79,0
15.455615,16.089596,67,63,0
16.089596,17.47421,77,85,0
17.47421,17.939398,76,51,0
16.089596,17.939398,72,68,0
16.089596,17.939398,67,68,0
18.404587,18.94222,76,52,0
18.404587,18.94222,72,46,0
18.404587,18.94222,67,41,0
18.94222,19.888443,67,45,0
18.94222,19.888443,73,45,0
18.94222,19.888443,75,57,0
19.888443,20.410227,75,59,0
19.888443,20.410227,72,47,0
19.888443,20.410227,68,47,0
20.410227,21.340603,65,51,0
20.410227,21.340603,70,51,0
20.410227,21.340603,73,64,0
21.340603,21.594818,72,53,0
21.594818,21.967875,70,51,0
21.340603,21.967875,61,47,0
21.340603,21.967875,67,42,0
21.967875,23.443283,70,44,0
21.967875,23.443283,67,34,0
21.967875,23.443283,61,34,0
23.443283,23.935085,68,33,0
23.443283,23.935085,60,25,0
24.497118,25.137869,71,40,0
24.497118,25.137869,68,32,0
24.497118,25.137869,62,32,0
25.137869,26.526329,62,32,0
26.526329,26.98915,63,28,0
25.137869,26.98915,71,40,0
25.137869,26.98915,68,32,0
27.45197,28.025707,71,45,0
27.45197,28.025707,68,36,0
27.45197,28.025707,64,36,0
28.025707,29.414167,64,39,0
29.414167,29.876987,63,29,0
28.025707,29.876987,71,49,0
28.025707,29.876987,68,39,0
30.339808,30.85483,71,52,0
30.339808,30.85483,68,41,0
30.339808,30.85483,63,41,0
30.85483,31.36985,70,58,0
31.36985,32.06408,76,65,0
32.06408,32.29549,70,51,0
32.29549,32.533096,75,57,0
32.533096,32.7707,73,55,0
32.7707,33.24591,71,55,0
30.85483,33.24591,68,46,0
30.85483,33.24591,64,46,0
33.24591,33.798195,70,52,0
33.24591,33.798195,64,41,0
33.24591,33.798195,61,41,0
33.798195,35.186653,68,49,0
33.798195,35.186653,59,39,0
35.186653,35.64947,67,35,0
35.186653,35.64947,58,27,0
33.798195,35.64947,63,39,0
36.112293,36.685688,71,36,0
36.112293,36.685688,68,28,0
36.112293,36.685688,62,28,0
36.685688,38.074146,62,28,0
38.074146,38.53697,63,25,0
36.685688,38.53697,71,36,0
36.685688,38.53697,68,28,0
38.999786,39.575935,71,48,0
38.999786,39.575935,68,38,0
38.999786,39.575935,64,38,0
39.575935,40.964394,64,35,0
40.964394,41.427216,63,30,0
39.575935,41.427216,71,44,0
39.575935,41.427216,68,35,0
41.890034,42.411774,71,50,0
41.890034,42.411774,68,40,0
41.890034,42.411774,64,40,0
42.411774,42.945107,71,56,0
42.945107,43.637413,76,70,0
43.637413,43.82609,71,60,0
43.82609,43.95949,71,55,0
42.411774,43.95949,68,45,0
43.95949,44.197037,75,73,0
44.197037,44.435925,73,70,0
44.435925,44.918262,71,67,0
44.918262,45.404747,68,65,0
42.411774,45.404747,64,45,0
45.404747,45.91108,65,62,0
45.91108,46.61696,73,70,0
46.61696,46.852253,65,58,0
45.404747,46.852253,61,49,0
46.852253,47.087933,73,70,0
47.087933,47.324932,69,70,0
46.852253,47.324932,66,56,0
46.852253,47.324932,61,56,0
47.324932,47.803265,68,70,0
47.324932,47.803265,64,56,0
47.803265,48.287384,66,67,0
47.803265,48.287384,63,54,0
48.287384,49.262997,64,66,0
48.287384,49.262997,59,53,0
48.287384,49.262997,56,53,0
49.262997,49.395393,64,51,0
49.395393,49.52779,68,55,0
49.52779,49.689068,71,59,0
49.689068,50.614708,61,55,0
49.689068,50.614708,70,69,0
49.689068,50.614708,67,55,0
49.689068,50.614708,64,55,0
50.614708,50.856644,59,45,0
50.614708,50.856644,71,57,0
50.614708,50.856644,68,45,0
50.614708,50.856644,64,45,0
50.856644,50.97761,66,44,0
50.97761,51.0968,68,44,0
51.0968,51.77185,69,49,0
51.0968,51.77185,60,44,0
51.77185,52.00404,68,47,0
51.77185,52.00404,59,42,0
52.00404,52.479332,66,44,0
52.00404,52.479332,57,39,0
51.0968,52.479332,63,49,0
52.479332,53.396973,64,41,0
52.479332,53.396973,56,32,0
53.396973,53.52937,64,51,0
53.52937,53.661766,68,55,0
53.661766,53.823044,71,59,0
53.823044,54.748684,61,55,0
53.823044,54.748684,70,69,0
53.823044,54.748684,67,62,0
53.823044,54.748684,64,55,0
54.748684,54.993584,59,40,0
54.748684,54.993584,71,51,0
54.748684,54.993584,68,40,0
54.748684,54.993584,64,40,0
54.993584,55.11603,66,43,0
55.11603,55.23848,68,43,0
55.23848,55.95449,69,46,0
55.23848,55.95449,60,41,0
55.95449,56.205025,68,41,0
55.95449,56.205025,59,36,0
56.205025,56.723507,66,37,0
56.205025,56.723507,57,37,0
55.23848,56.723507,63,41,0
56.723507,57.646584,64,35,0
56.723507,57.646584,56,31,0
57.646584,58.134388,68,43,0
58.134388,59.071888,68,49,0
58.134388,59.071888,64,39,0
59.071888,59.58471,68,44,0
59.071888,59.58471,64,35,0
59.58471,60.284664,64,50,0
60.284664,60.52081,63,45,0
59.58471,60.52081,68,50,0
60.52081,61.091476,68,42,0
60.52081,61.091476,62,42,0
61.091476,62.47609,68,44,0
62.47609,63.168396,67,39,0
63.168396,63.37601,68,39,0
61.091476,63.37601,63,35,0
63.37601,63.583622,70,42,0
63.583622,63.791233,72,45,0
63.791233,64.65145,73,48,0
63.791233,64.65145,68,38,0
63.791233,64.65145,65,38,0
64.65145,65.08156,73,49,0
64.65145,65.08156,68,39,0
64.65145,65.08156,65,39,0
65.08156,65.19739,75,55,0
65.19739,65.31322,73,50,0
65.31322,65.42905,72,50,0
65.42905,65.544876,73,50,0
65.544876,65.97498,75,51,0
65.08156,65.97498,70,40,0
65.08156,65.97498,67,40,0
65.97498,66.500656,70,49,0
65.97498,66.500656,67,39,0
66.500656,67.89062,73,50,0
66.500656,67.89062,70,40,0
66.500656,67.89062,67,40,0
67.89062,68.353935,72,45,0
67.89062,68.353935,68,36,0
68.81725,69.33836,77,80,0
68.81725,69.33836,72,64,0
68.81725,69.33836,68,64,0
69.33836,70.24745,77,80,0
69.33836,70.24745,72,64,0
69.33836,70.24745,68,64,0
70.24745,70.82085,77,80,0
70.24745,70.82085,72,64,0
70.24745,70.82085,68,64,0
70.82085,71.50266,80,86,0
71.50266,71.729935,79,80,0
70.82085,71.729935,68,69,0
70.82085,71.729935,72,69,0
71.50266,71.729935,67,64,0
71.729935,72.24879,65,60,0
71.729935,72.24879,77,75,0
71.729935,72.24879,72,60,0
71.729935,72.24879,68,60,0
72.24879,74.521515,77,80,0
74.521515,75.08415,76,54,0
72.24879,75.08415,67,64,0
72.24879,75.08415,70,64,0
72.24879,75.08415,73,64,0
75.08415,76.101105,75,47,0
76.101105,76.70937,74,43,0
76.70937,77.70937,73,37,0
75.08415,77.70937,70,42,0
77.70937,78.31765,72,45,0
77.70937,78.31765,68,36,0
77.70937,78.31765,63,36,0
78.31765,79.71321,72,47,0
79.71321,80.1784,70,44,0
78.31765,80.1784,68,37,0
78.31765,80.1784,65,37,0
80.64359,81.23391,67,40,0
80.64359,81.23391,70,40,0
80.64359,81.23391,77,50,0
81.23391,82.62947,77,52,0
82.62947,83.09466,75,48,0
81.23391,83.09466,72,41,0
81.23391,83.09466,68,41,0
83.327255,83.5281,63,48,0
83.5281,83.72894,68,50,0
83.72894,83.92979,72,52,0
83.327255,83.92979,60,38,0
83.92979,84.821976,73,54,0
83.92979,84.821976,61,43,0
83.92979,84.821976,63,43,0
83.92979,84.821976,67,43,0
84.821976,85.381996,72,56,0
84.821976,85.381996,60,45,0
84.821976,85.381996,63,45,0
84.821976,85.381996,68,45,0
85.381996,86.25093,70,57,0
85.381996,86.25093,63,45,0
85.381996,86.25093,58,45,0
86.25093,86.87828,74,62,0
86.25093,86.87828,62,49,0
86.25093,86.87828,70,49,0
86.25093,86.87828,68,49,0
86.87828,88.39894,74,69,0
86.87828,88.39894,68,55,0
86.87828,88.39894,62,55,0
88.39894,88.86413,75,45,0
86.87828,88.86413,70,55,0
88.39894,88.86413,67,36,0
88.39894,88.86413,63,36,0
89.329315,89.94069,72,73,0
89.329315,89.94069,68,58,0
89.329315,89.94069,63,58,0
89.94069,91.068504,72,81,0
91.068504,91.29407,71,53,0
91.29407,91.75561,70,50,0
89.94069,91.75561,68,64,0
89.94069,91.75561,64,64,0
92.21715,92.757,72,73,0
92.21715,92.757,68,58,0
92.21715,92.757,63,58,0
92.757,93.88483,72,81,0
93.88483,94.11039,71,54,0
94.11039,94.55319,70,51,0
92.757,94.55319,68,64,0
92.757,94.55319,64,64,0
94.99275,95.90717,71,89,0
94.99275,95.90717,68,72,0
94.99275,95.90717,64,72,0
95.91583,96.3428,71,90,0
95.91583,96.3428,68,72,0
95.91583,96.3428,64,72,0
96.365265,96.79224,71,88,0
96.365265,96.79224,68,71,0
96.365265,96.79224,64,71,0
96.814705,97.232285,71,85,0
96.814705,97.232285,68,68,0
96.814705,97.232285,64,66,0
97.254265,97.69871,73,93,0
97.254265,97.69871,69,74,0
97.254265,97.69871,64,70,0
97.69871,98.14647,74,98,0
97.69871,98.14647,71,79,0
97.69871,98.14647,64,73,0
98.14647,98.597595,76,102,0
98.14647,98.597595,73,79,0
98.14647,98.597595,64,77,0
98.597595,99.04873,74,93,0
98.597595,99.04873,71,74,0
98.597595,99.04873,64,71,0
99.04873,99.574394,73,72,0
99.04873,99.574394,69,64,0
99.04873,99.574394,64,64,0
99.574394,100.90773,71,58,0
99.574394,100.90773,68,46,0
100.90773,101.838005,70,47,0
100.90773,101.838005,67,42,0
99.574394,101.838005,63,46,0
112.13912,112.62892,65,45,0
112.62892,113.58892,65,45,0
113.58892,113.82892,66,47,0
113.82892,114.068924,65,45,0
114.068924,115.02892,63,46,0
115.02892,115.26892,65,44,0
115.26892,115.50892,63,42,0
117.9918,118.462875,68,50,0
117.9918,118.462875,61,40,0
117.9918,118.462875,56,40,0
118.48767,119.41074,68,50,0
118.48767,119.41074,61,40,0
118.48767,119.41074,56,40,0
119.41074,119.64151,70,55,0
119.41074,119.64151,58,44,0
119.64151,119.872284,68,51,0
119.64151,119.872284,56,40,0
119.41074,119.872284,61,44,0
119.872284,120.34473,68,51,0
119.872284,120.34473,61,40,0
119.872284,120.34473,56,40,0
120.34473,120.80626,73,56,0
120.34473,120.80626,61,45,0
120.80626,121.2678,70,53,0
120.80626,121.2678,58,42,0
121.2678,121.759605,66,50,0
121.2678,121.759605,54,40,0
121.759605,122.2396,69,53,0
121.759605,122.2396,57,42,0
121.759605,122.2396,63,42,0
121.759605,122.2396,66,42,0
122.2396,122.7396,68,51,0
122.2396,122.7396,63,40,0
122.2396,122.7396,56,40,0
122.2396,122.7396,60,40,0
122.2396,122.7396,66,40,0
122.7396,123.772934,65,48,0
122.7396,123.772934,61,38,0
122.7396,123.772934,56,38,0
123.772934,124.23824,77,45,0
123.772934,124.23824,68,34,0
123.772934,124.23824,65,34,0
124.26273,125.22273,77,45,0
125.22273,125.46273,78,47,0
125.46273,125.70273,77,45,0
124.26273,125.70273,68,34,0
124.26273,125.70273,65,34,0
125.70273,126.662735,75,46,0
126.662735,126.903694,77,44,0
126.903694,127.14466,75,42,0
125.70273,127.14466,68,34,0
125.70273,127.14466,66,34,0
127.14466,127.5018,68,34,0
127.14466,127.5018,73,43,0
127.14466,127.5018,65,34,0
127.62085,127.97379,66,36,0
127.62085,127.97379,70,36,0
127.62085,127.97379,73,45,0
128.09143,128.48618,70,38,0
128.09143,128.48618,73,38,0
128.09143,128.48618,75,48,0
128.61775,129.62193,68,44,0
129.62193,130.09302,80,59,0
129.62193,130.09302,73,47,0
129.62193,130.09302,68,47,0
130.1178,131.04088,80,59,0
130.1178,131.04088,73,47,0
130.1178,131.04088,68,47,0
131.04088,131.27165,82,66,0
131.04088,131.27165,70,53,0
131.27165,131.50243,80,62,0
131.27165,131.50243,68,49,0
131.04088,131.50243,73,53,0
131.50243,131.97118,80,62,0
131.50243,131.97118,73,49,0
131.50243,131.97118,68,49,0
131.97118,132.42061,85,75,0
131.97118,132.42061,73,60,0
132.42061,132.87004,82,69,0
132.42061,132.87004,70,55,0
132.87004,133.33879,78,64,0
132.87004,133.33879,66,51,0
133.33879,133.79333,81,73,0
133.33879,133.79333,69,58,0
133.33879,133.79333,75,58,0
133.33879,133.79333,78,65,0
133.79333,134.26208,80,69,0
133.79333,134.26208,75,55,0
133.79333,134.26208,68,55,0
133.79333,134.26208,72,55,0
133.79333,134.26208,78,62,0
134.26208,135.22209,77,64,0
134.26208,135.22209,73,51,0
134.26208,135.22209,68,51,0
135.22209,135.67809,68,64,0
135.22209,135.67809,75,80,0
135.22209,135.67809,63,64,0
135.70209,136.62517,75,80,0
135.70209,136.62517,68,64,0
135.70209,136.62517,63,64,0
136.62517,136.85594,73,81,0
136.62517,136.85594,61,64,0
136.85594,137.0867,75,81,0
136.85594,137.0867,63,64,0
136.62517,137.0867,68,64,0
137.0867,137.54825,72,82,0
137.0867,137.54825,68,65,0
137.0867,137.54825,60,65,0
137.54825,138.00978,75,85,0
137.54825,138.00978,68,68,0
137.54825,138.00978,63,68,0
138.00978,138.47131,77,87,0
138.00978,138.47131,68,70,0
138.00978,138.47131,65,70,0
138.47131,138.93286,78,89,0
138.47131,138.93286,68,72,0
138.47131,138.93286,66,72,0
138.93286,139.41095,68,72,0
138.93286,139.41095,80,90,0
139.41095,139.91882,68,76,0
139.41095,139.91882,70,76,0
139.41095,139.91882,82,95,0
139.91882,140.84189,68,53,0
139.91882,140.84189,75,66,0
139.91882,140.84189,63,53,0
140.84189,141.38914,76,50,0
140.84189,141.38914,68,40,0
140.84189,141.38914,64,40,0
141.38914,142.31221,77,56,0
142.31221,142.55222,78,53,0
142.55222,142.79222,77,53,0
141.38914,142.79222,68,45,0
141.38914,142.79222,65,45,0
142.79222,143.71529,75,54,0
142.79222,143.71529,63,43,0
143.71529,144.19722,74,51,0
143.71529,144.19722,62,40,0
142.79222,144.19722,68,43,0
144.19722,145.1203,73,53,0
144.19722,145.1203,67,47,0
144.19722,145.1203,61,42,0
145.1203,145.35376,72,50,0
145.35376,145.58722,70,49,0
145.1203,145.58722,67,45,0
145.1203,145.58722,61,40,0
145.58722,146.5103,75,53,0
145.58722,146.5103,63,42,0
145.58722,146.5103,66,42,0
146.5103,146.74652,73,48,0
146.74652,146.98274,72,48,0
146.5103,146.98274,66,38,0
146.5103,146.98274,63,38,0
146.98274,147.9058,73,52,0
146.98274,147.9058,67,41,0
146.98274,147.9058,61,41,0
147.9058,148.16333,72,47,0
148.16333,148.42084,70,47,0
147.9058,148.42084,67,42,0
147.9058,148.42084,61,37,0
148.42084,148.93585,68,45,0
148.93585,149.47397,67,40,0
149.47397,150.07918,66,36,0
148.42084,150.07918,60,36,0
150.07918,151.03918,65,38,0
151.03918,151.27917,66,39,0
151.27917,151.51918,65,38,0
151.51918,152.47917,63,39,0
152.47917,152.71918,65,37,0
152.71918,152.95918,63,35,0
155.47061,155.94168,68,61,0
155.47061,155.94168,61,48,0
155.47061,155.94168,56,48,0
155.96648,156.88956,68,61,0
155.96648,156.88956,61,48,0
155.96648,156.88956,56,48,0
156.88956,157.12032,70,68,0
156.88956,157.12032,58,54,0
157.12032,157.35109,68,60,0
157.12032,157.35109,56,48,0
156.88956,157.35109,61,54,0
157.35109,157.8389,68,59,0
157.35109,157.8389,61,47,0
157.35109,157.8389,56,47,0
157.8389,158.3132,77,77,0
157.8389,158.3132,68,62,0
157.8389,158.3132,65,62,0
158.3132,158.7875,75,71,0
158.3132,158.7875,68,56,0
158.3132,158.7875,63,56,0
158.7875,159.73613,73,80,0
158.7875,159.73613,65,64,0
158.7875,159.73613,61,64,0
159.73613,160.22794,72,76,0
159.73613,160.22794,60,61,0
159.73613,160.22794,63,61,0
159.73613,160.22794,68,61,0
160.22794,161.151,73,81,0
160.22794,161.151,61,64,0
160.22794,161.151,65,64,0
160.22794,161.151,68,64,0
161.151,161.60884,73,66,0
161.151,161.60884,80,83,0
161.151,161.60884,68,66,0
161.63293,162.53519,80,83,0
161.63293,162.53519,73,66,0
161.63293,162.53519,68,66,0
162.53519,162.76076,82,88,0
162.53519,162.76076,70,71,0
162.76076,162.98631,80,83,0
162.76076,162.98631,68,66,0
162.53519,162.98631,73,71,0
162.98631,163.47018,80,83,0
162.98631,163.47018,73,66,0
162.98631,163.47018,68,66,0
163.47018,163.93173,77,73,0
163.47018,163.93173,68,73,0
163.47018,163.93173,73,73,0
163.47018,163.93173,61,73,0
163.47018,163.93173,80,73,0
163.47018,163.93173,89,92,0
163.93173,164.40982,87,89,0
163.93173,164.40982,68,72,0
163.93173,164.40982,72,72,0
163.93173,164.40982,60,72,0
163.93173,164.40982,80,72,0
163.93173,164.40982,75,72,0
164.40982,165.366,85,90,0
164.40982,165.366,65,72,0
164.40982,165.366,70,72,0
164.40982,165.366,58,72,0
164.40982,165.366,77,72,0
164.40982,165.366,73,72,0
165.366,165.87663,84,88,0
165.366,165.87663,75,71,0
165.366,165.87663,66,71,0
165.366,165.87663,68,71,0
165.366,165.87663,56,71,0
165.366,165.87663,80,71,0
165.366,165.87663,72,71,0
165.87663,166.8979,85,91,0
165.87663,166.8979,77,72,0
165.87663,166.8979,65,66,0
165.87663,166.8979,68,72,0
165.87663,166.8979,61,66,0
165.87663,166.8979,80,72,0
165.87663,166.8979,73,72,0
166.8979,167.3539,68,64,0
166.8979,167.3539,75,80,0
166.8979,167.3539,63,64,0
167.3779,168.30098,75,80,0
167.3779,168.30098,68,64,0
167.3779,168.30098,63,64,0
168.30098,168.53175,73,81,0
168.30098,168.53175,61,64,0
168.53175,168.76251,75,81,0
168.53175,168.76251,63,64,0
168.30098,168.76251,68,64,0
168.76251,169.22406,72,82,0
168.76251,169.22406,68,65,0
168.76251,169.22406,60,65,0
169.22406,169.6856,75,85,0
169.22406,169.6856,68,68,0
169.22406,169.6856,63,68,0
169.6856,170.14713,77,87,0
169.6856,170.14713,68,70,0
169.6856,170.14713,65,70,0
170.14713,170.60867,78,89,0
170.14713,170.60867,68,72,0
170.14713,170.60867,66,72,0
170.60867,171.09648,68,72,0
170.60867,171.09648,80,90,0
171.09648,171.6782,68,76,0
171.09648,171.6782,70,76,0
171.09648,171.6782,82,95,0
171.6782,172.60129,68,53,0
171.6782,172.60129,75,66,0
171.6782,172.60129,63,53,0
172.60129,173.12695,76,50,0
172.60129,173.12695,68,40,0
172.60129,173.12695,64,40,0
173.12695,174.05003,77,56,0
174.05003,174.29002,78,53,0
174.29002,174.53003,77,53,0
173.12695,174.53003,68,45,0
173.12695,174.53003,65,45,0
174.53003,175.45311,75,54,0
174.53003,175.45311,63,43,0
175.45311,175.93503,74,51,0
175.45311,175.93503,62,40,0
174.53003,175.93503,68,43,0
175.93503,176.85811,73,53,0
175.93503,176.85811,67,42,0
175.93503,176.85811,61,42,0
176.85811,177.09157,72,50,0
177.09157,177.32504,70,49,0
176.85811,177.32504,67,45,0
176.85811,177.32504,61,40,0
177.32504,178.24811,75,53,0
177.32504,178.24811,63,42,0
177.32504,178.24811,66,42,0
178.24811,178.48433,73,48,0
178.48433,178.72055,72,48,0
178.24811,178.72055,66,38,0
178.24811,178.72055,63,38,0
178.72055,179.64363,73,52,0
178.72055,179.64363,67,52,0
178.72055,179.64363,61,41,0
179.64363,179.90114,72,47,0
179.90114,180.15865,70,47,0
179.64363,180.15865,67,37,0
179.64363,180.15865,61,37,0
180.15865,180.67368,68,45,0
180.67368,181.23705,67,40,0
181.23705,181.89178,66,36,0
180.15865,181.89178,60,36,0
181.89178,182.85179,65,38,0
182.85179,183.09178,66,39,0
183.09178,183.33179,65,38,0
183.33179,184.2918,63,39,0
184.2918,184.53178,65,37,0
184.53178,184.77179,63,35,0
187.26228,187.73337,68,61,0
187.26228,187.73337,61,48,0
187.26228,187.73337,56,48,0
187.75816,188.68123,68,61,0
187.75816,188.68123,61,48,0
187.75816,188.68123,56,48,0
188.68123,188.912,70,68,0
188.68123,188.912,58,54,0
188.912,189.14278,68,60,0
188.912,189.14278,56,48,0
188.68123,189.14278,61,54,0
189.14278,189.63057,68,59,0
189.14278,189.63057,61,47,0
189.14278,189.63057,56,47,0
189.63057,190.10489,77,77,0
189.63057,190.10489,68,62,0
189.63057,190.10489,65,62,0
190.10489,190.5792,75,71,0
190.10489,190.5792,68,56,0
190.10489,190.5792,63,56,0
190.5792,191.5278,73,80,0
190.5792,191.5278,65,64,0
190.5792,191.5278,61,64,0
191.5278,192.0196,72,76,0
191.5278,192.0196,60,61,0
191.5278,192.0196,63,61,0
191.5278,192.0196,68,61,0
192.0196,192.94269,73,81,0
192.0196,192.94269,61,64,0
192.0196,192.94269,65,64,0
192.0196,192.94269,68,64,0
192.94269,193.40051,73,66,0
192.94269,193.40051,80,83,0
192.94269,193.40051,68,66,0
193.42462,194.32687,80,83,0
193.42462,194.32687,73,66,0
193.42462,194.32687,68,66,0
194.32687,194.55243,82,88,0
194.32687,194.55243,70,71,0
194.55243,194.778,80,83,0
194.55243,194.778,68,66,0
194.32687,194.778,73,71,0
194.778,195.27182,80,83,0
194.778,195.27182,73,66,0
194.778,195.27182,68,66,0
195.27182,195.74426,77,73,0
195.27182,195.74426,68,73,0
195.27182,195.74426,73,73,0
195.27182,195.74426,61,73,0
195.27182,195.74426,80,73,0
195.27182,195.74426,89,92,0
195.74426,196.2381,87,89,0
195.74426,196.2381,68,72,0
195.74426,196.2381,72,72,0
195.74426,196.2381,60,72,0
195.74426,196.2381,80,72,0
195.74426,196.2381,75,72,0
196.2381,197.22575,85,90,0
196.2381,197.22575,65,72,0
196.2381,197.22575,70,72,0
196.2381,197.22575,58,72,0
196.2381,197.22575,77,72,0
196.2381,197.22575,73,72,0
197.22575,197.75671,84,88,0
197.22575,197.75671,75,71,0
197.22575,197.75671,66,71,0
197.22575,197.75671,68,71,0
197.22575,197.75671,56,71,0
197.22575,197.75671,80,71,0
197.22575,197.75671,72,71,0
197.75671,198.61386,85,91,0
197.75671,198.61386,77,72,0
197.75671,198.61386,65,65,0
197.75671,198.61386,68,72,0
197.75671,198.61386,61,65,0
197.75671,198.61386,80,72,0
197.75671,198.61386,73,72,0
198.89958,199.51408,72,48,0
198.89958,199.51408,68,38,0
198.89958,199.51408,63,38,0
199.51408,200.90964,72,54,0
200.90964,201.37483,70,51,0
199.51408,201.37483,68,43,0
199.51408,201.37483,65,43,0
201.84003,202.42744,67,50,0
201.84003,202.42744,70,50,0
201.84003,202.42744,77,63,0
202.42744,203.82301,77,65,0
203.82301,204.28821,75,60,0
202.42744,204.28821,72,52,0
202.42744,204.28821,68,52,0
204.5208,204.72163,63,48,0
204.72163,204.92249,68,56,0
204.92249,205.12332,72,58,0
204.5208,205.12332,60,43,0
205.12332,206.01552,73,60,0
205.12332,206.01552,61,48,0
205.12332,206.01552,63,48,0
205.12332,206.01552,67,48,0
206.01552,206.53726,72,63,0
206.01552,206.53726,60,50,0
206.01552,206.53726,63,50,0
206.01552,206.53726,68,50,0
206.53726,207.40619,70,64,0
206.53726,207.40619,63,51,0
206.53726,207.40619,58,51,0
207.40619,208.03355,74,65,0
207.40619,208.03355,62,52,0
207.40619,208.03355,70,52,0
207.40619,208.03355,68,52,0
208.03355,209.5542,74,69,0
208.03355,209.5542,68,55,0
208.03355,209.5542,62,55,0
209.5542,210.0194,75,51,0
208.03355,210.0194,70,55,0
209.5542,210.0194,67,40,0
209.5542,210.0194,63,40,0
210.48457,211.07489,72,53,0
210.48457,211.07489,68,42,0
210.48457,211.07489,63,42,0
211.07489,212.47046,72,58,0
212.47046,212.93565,70,50,0
211.07489,212.93565,68,46,0
211.07489,212.93565,65,46,0
213.40083,214.0315,67,63,0
213.40083,214.0315,71,71,0
213.40083,214.0315,77,79,0
214.0315,215.4161,77,85,0
215.4161,215.88129,76,51,0
214.0315,215.88129,72,68,0
214.0315,215.88129,67,68,0
216.34648,216.91714,76,52,0
216.34648,216.91714,72,41,0
216.34648,216.91714,67,41,0
216.91714,217.86337,75,57,0
216.91714,217.86337,73,57,0
216.91714,217.86337,67,45,0
217.86337,218.4008,75,59,0
217.86337,218.4008,72,47,0
217.86337,218.4008,68,47,0
218.4008,219.33119,73,64,0
218.4008,219.33119,70,51,0
218.4008,219.33119,65,51,0
219.33119,219.5854,72,53,0
219.5854,219.95375,70,51,0
219.33119,219.95375,67,47,0
219.33119,219.95375,61,47,0
219.95375,221.42917,70,44,0
219.95375,221.42917,67,39,0
219.95375,221.42917,61,39,0
221.42917,221.92097,68,33,0
221.42917,221.92097,60,28,0
222.483,223.05396,71,40,0
222.483,223.05396,68,32,0
222.483,223.05396,62,32,0
223.08469,224.47314,62,32,0
224.47314,224.93596,63,28,0
223.08469,224.93596,71,40,0
223.08469,224.93596,68,32,0
225.39879,225.96236,71,45,0
225.39879,225.96236,68,36,0
225.39879,225.96236,64,36,0
225.99202,227.38048,64,39,0
227.38048,227.8433,63,29,0
225.99202,227.8433,71,49,0
225.99202,227.8433,68,39,0
228.30612,228.82114,71,52,0
228.30612,228.82114,68,46,0
228.30612,228.82114,63,41,0
228.82114,229.33617,70,58,0
229.33617,230.0304,76,65,0
230.0304,230.2618,70,51,0
230.2618,230.4994,75,57,0
230.4994,230.73701,73,55,0
230.73701,231.21222,71,55,0
228.82114,231.21222,68,52,0
228.82114,231.21222,64,46,0
231.21222,231.77751,70,52,0
231.21222,231.77751,61,41,0
231.21222,231.77751,64,41,0
231.77751,233.16597,68,49,0
231.77751,233.16597,59,39,0
233.16597,233.6288,67,35,0
233.16597,233.6288,58,27,0
231.77751,233.6288,63,39,0
234.09161,234.64426,71,36,0
234.09161,234.64426,68,28,0
234.09161,234.64426,62,28,0
234.67336,236.06181,62,28,0
236.06181,236.52463,63,25,0
234.67336,236.52463,71,36,0
234.67336,236.52463,68,28,0
236.98744,237.5401,71,48,0
236.98744,237.5401,68,38,0
236.98744,237.5401,64,38,0
237.56918,238.95764,64,35,0
238.95764,239.42046,63,30,0
237.56918,239.42046,71,44,0
237.56918,239.42046,68,35,0
239.88329,240.40501,71,45,0
239.88329,240.40501,68,40,0
239.88329,240.40501,64,40,0
240.40501,240.93835,71,50,0
240.93835,241.63066,76,70,0
241.63066,241.81816,71,60,0
241.81816,241.95155,71,55,0
240.40501,241.95155,68,45,0
241.95155,242.1891,75,73,0
242.1891,242.428,73,70,0
242.428,242.91032,71,67,0
242.91032,243.39682,68,65,0
240.40501,243.39682,64,45,0
243.39682,243.90315,65,62,0
243.90315,244.60902,73,70,0
244.60902,244.84431,65,58,0
243.39682,244.84431,61,55,0
244.84431,245.08,73,70,0
245.08,245.317,69,70,0
244.84431,245.317,66,56,0
244.84431,245.317,61,56,0
245.317,245.79533,68,70,0
245.317,245.79533,64,56,0
245.79533,246.27945,66,67,0
245.79533,246.27945,63,60,0
246.27945,247.25507,64,66,0
246.27945,247.25507,59,53,0
246.27945,247.25507,56,53,0
247.25507,247.38747,64,51,0
247.38747,247.51985,68,55,0
247.51985,247.68114,71,59,0
247.68114,248.59969,61,55,0
247.68114,248.59969,70,69,0
247.68114,248.59969,67,55,0
247.68114,248.59969,64,55,0
248.59969,248.84163,59,45,0
248.59969,248.84163,71,57,0
248.59969,248.84163,68,45,0
248.59969,248.84163,64,45,0
248.84163,248.9626,66,44,0
248.9626,249.08179,68,44,0
249.08179,249.75684,69,49,0
249.08179,249.75684,60,39,0
249.75684,249.98901,68,47,0
249.75684,249.98901,59,42,0
249.98901,250.46431,66,44,0
249.98901,250.46431,57,39,0
249.08179,250.46431,63,44,0
250.46431,251.38196,64,41,0
250.46431,251.38196,56,32,0
251.38196,251.51436,64,51,0
251.51436,251.64674,68,55,0
251.64674,251.80803,71,59,0
251.80803,252.73367,61,55,0
251.80803,252.73367,70,69,0
251.80803,252.73367,67,62,0
251.80803,252.73367,64,55,0
252.73367,252.98367,59,40,0
252.73367,252.98367,71,51,0
252.73367,252.98367,68,45,0
252.73367,252.98367,64,40,0
252.98367,253.10867,66,43,0
253.10867,253.23367,68,43,0
253.23367,253.94968,69,46,0
253.23367,253.94968,60,41,0
253.94968,254.20021,68,41,0
253.94968,254.20021,59,36,0
254.20021,254.71869,66,37,0
254.20021,254.71869,57,33,0
253.23367,254.71869,63,36,0
254.71869,255.64177,64,35,0
254.71869,255.64177,56,31,0
255.64177,256.12958,68,43,0
256.12958,257.06708,68,49,0
256.12958,257.06708,64,39,0
257.06708,257.58148,68,44,0
257.06708,257.58148,64,35,0
257.58148,258.28143,64,45,0
258.28143,258.51758,63,40,0
257.58148,258.51758,68,50,0
258.51758,259.0993,68,42,0
258.51758,259.0993,62,33,0
259.0993,260.48392,68,44,0
260.48392,261.17624,67,39,0
261.17624,261.38385,68,39,0
259.0993,261.38385,63,35,0
261.38385,261.59146,70,42,0
261.59146,261.79907,72,45,0
261.79907,262.65927,73,48,0
261.79907,262.65927,68,38,0
261.79907,262.65927,65,38,0
262.65927,263.0894,73,49,0
262.65927,263.0894,68,39,0
262.65927,263.0894,65,39,0
263.0894,263.20523,75,55,0
263.20523,263.32104,73,50,0
263.32104,263.4369,72,50,0
263.4369,263.5527,73,50,0
263.5527,263.98282,75,51,0
263.0894,263.98282,70,45,0
263.0894,263.98282,67,40,0
263.98282,264.50168,70,49,0
263.98282,264.50168,67,39,0
264.50168,265.89163,73,50,0
264.50168,265.89163,70,40,0
264.50168,265.89163,67,40,0
265.89163,266.35495,72,45,0
265.89163,266.35495,68,36,0
266.81827,267.3112,77,80,0
266.81827,267.3112,72,64,0
266.81827,267.3112,68,64,0
267.33713,268.24622,77,80,0
267.33713,268.24622,72,64,0
267.33713,268.24622,68,64,0
268.24622,268.7885,77,80,0
268.24622,268.7885,72,64,0
268.24622,268.7885,68,64,0
268.7885,269.47034,80,86,0
269.47034,269.6976,79,80,0
268.7885,269.6976,68,69,0
268.7885,269.6976,72,69,0
269.47034,269.6976,67,64,0
269.6976,270.20764,65,60,0
269.6976,270.20764,77,75,0
269.6976,270.20764,72,60,0
269.6976,270.20764,68,60,0
270.20764,272.48035,77,80,0
272.48035,273.02264,76,54,0
270.20764,273.02264,67,64,0
270.20764,273.02264,70,64,0
270.20764,273.02264,73,67,0
273.02264,274.0396,75,47,0
274.0396,274.6448,74,43,0
274.6448,275.6448,73,37,0
273.02264,275.6448,70,37,0
275.6448,276.26248,72,45,0
275.6448,276.26248,68,36,0
275.6448,276.26248,63,36,0
276.26248,277.65805,72,47,0
277.65805,278.12323,70,44,0
276.26248,278.12323,68,37,0
276.26248,278.12323,65,37,0
278.5884,279.1876,67,40,0
278.5884,279.1876,70,40,0
278.5884,279.1876,77,50,0
279.1876,280.58313,77,52,0
280.58313,281.04834,75,48,0
279.1876,281.04834,72,41,0
279.1876,281.04834,68,41,0
281.2809,281.48178,63,43,0
281.48178,281.68262,68,50,0
281.68262,281.88345,72,52,0
281.2809,281.88345,60,38,0
281.88345,282.77567,73,54,0
281.88345,282.77567,61,43,0
281.88345,282.77567,63,43,0
281.88345,282.77567,67,43,0
282.77567,283.34094,72,56,0
282.77567,283.34094,60,45,0
282.77567,283.34094,63,45,0
282.77567,283.34094,68,45,0
283.34094,284.20987,70,57,0
283.34094,284.20987,63,45,0
283.34094,284.20987,58,45,0
284.20987,284.86105,74,62,0
284.20987,284.86105,62,49,0
284.20987,284.86105,70,49,0
284.20987,284.86105,68,49,0
284.86105,286.3817,74,69,0
284.86105,286.3817,68,55,0
284.86105,286.3817,62,55,0
286.3817,286.8469,75,45,0
284.86105,286.8469,70,55,0
286.3817,286.8469,67,36,0
286.3817,286.8469,63,36,0
287.3121,287.92035,72,73,0
287.3121,287.92035,68,58,0
287.3121,287.92035,63,58,0
287.92035,289.05338,72,81,0
289.05338,289.28415,71,53,0
289.28415,289.7457,70,50,0
287.92035,289.7457,68,64,0
287.92035,289.7457,64,64,0
290.20724,290.757,72,73,0
290.20724,290.757,68,58,0
290.20724,290.757,63,58,0
290.757,291.8918,72,81,0
291.8918,292.12436,71,54,0
292.12436,292.56717,70,51,0
290.757,292.56717,68,64,0
290.757,292.56717,64,64,0
293.0067,293.92114,71,89,0
293.0067,293.92114,68,72,0
293.0067,293.92114,64,72,0
293.9298,294.35675,71,90,0
293.9298,294.35675,68,72,0
293.9298,294.35675,64,72,0
294.37924,294.8062,71,88,0
294.37924,294.8062,68,71,0
294.37924,294.8062,64,71,0
294.82867,295.24625,71,85,0
294.82867,295.24625,68,68,0
294.82867,295.24625,64,68,0
295.26825,295.71936,73,93,0
295.26825,295.71936,69,74,0
295.26825,295.71936,64,72,0
295.71936,296.17563,74,98,0
295.71936,296.17563,71,79,0
295.71936,296.17563,64,72,0
296.17563,296.62677,76,102,0
296.17563,296.62677,73,81,0
296.17563,296.62677,64,69,0
296.62677,297.07788,74,93,0
296.62677,297.07788,71,74,0
296.62677,297.07788,64,63,0
297.07788,297.60822,73,80,0
297.07788,297.60822,69,64,0
297.07788,297.60822,64,54,0
297.60822,298.94153,71,58,0
297.60822,298.94153,68,46,0
298.94153,299.9004,70,47,0
298.94153,299.9004,67,37,0
297.60822,299.9004,63,46,0
0.930376,1.529537,56,40,0
1.529537,3.390289,61,42,0
3.855477,4.46375,61,40,0
3.855477,4.46375,65,45,0
4.46375,5.859314,65,45,0
5.859314,6.324502,63,43,0
4.46375,6.324502,60,40,0
6.557096,6.7579393,56,42,0
6.7579393,6.958783,51,44,0
6.958783,7.1596265,48,45,0
7.1596265,8.051821,51,37,0
7.1596265,8.051821,55,42,0
7.1596265,8.051821,46,37,0
8.051821,8.57356,51,40,0
8.051821,8.57356,56,45,0
8.051821,8.57356,44,40,0
8.57356,9.442495,55,46,0
8.57356,9.442495,51,41,0
8.57356,9.442495,43,41,0
9.442495,10.076476,53,48,0
9.442495,10.076476,46,43,0
9.442495,10.076476,41,43,0
10.076476,12.06232,39,45,0
10.076476,12.06232,51,51,0
10.076476,12.06232,46,45,0
12.527508,13.129676,56,37,0
13.129676,14.990428,61,41,0
15.455615,16.089596,49,45,0
15.455615,16.089596,37,40,0
16.089596,17.939398,48,49,0
16.089596,17.939398,36,44,0
18.404587,18.94222,60,32,0
18.404587,18.94222,64,36,0
18.94222,19.888443,63,40,0
18.94222,19.888443,58,40,0
19.888443,20.410227,56,42,0
19.888443,20.410227,63,42,0
20.410227,21.340603,49,45,0
21.340603,21.967875,51,38,0
21.967875,23.935085,44,28,0
21.967875,23.935085,51,31,0
24.497118,25.137869,59,28,0
24.497118,25.137869,56,25,0
24.497118,25.137869,52,25,0
25.137869,26.526329,52,25,0
26.526329,26.98915,51,22,0
25.137869,26.98915,59,28,0
25.137869,26.98915,56,25,0
27.45197,28.025707,59,30,0
27.45197,28.025707,56,27,0
27.45197,28.025707,49,27,0
28.025707,29.414167,49,28,0
29.414167,29.876987,47,21,0
28.025707,29.876987,59,32,0
28.025707,29.876987,56,28,0
30.339808,30.85483,59,33,0
30.339808,30.85483,56,29,0
30.339808,30.85483,47,33,0
30.85483,32.29549,49,35,0
32.29549,32.7707,46,36,0
32.7707,33.24591,47,37,0
30.85483,33.24591,56,35,0
30.85483,33.24591,58,39,0
33.24591,33.798195,49,35,0
33.798195,35.64947,51,35,0
36.112293,36.685688,59,25,0
36.112293,36.685688,56,22,0
36.112293,36.685688,52,22,0
36.685688,38.074146,52,22,0
38.074146,38.53697,51,19,0
36.685688,38.53697,59,25,0
36.685688,38.53697,56,22,0
38.999786,39.575935,59,32,0
38.999786,39.575935,56,28,0
38.999786,39.575935,49,28,0
39.575935,40.964394,49,27,0
40.964394,41.427216,47,18,0
39.575935,41.427216,59,31,0
39.575935,41.427216,56,27,0
41.890034,42.411774,59,38,0
41.890034,42.411774,52,34,0
41.890034,42.411774,47,34,0
41.890034,42.411774,56,34,0
42.411774,43.95949,59,44,0
42.411774,43.95949,47,39,0
42.411774,43.95949,52,39,0
42.411774,43.95949,56,39,0
43.95949,45.404747,59,42,0
43.95949,45.404747,47,37,0
43.95949,45.404747,52,37,0
43.95949,45.404747,56,37,0
45.404747,46.852253,56,39,0
45.404747,46.852253,53,35,0
45.404747,46.852253,47,35,0
46.852253,47.324932,57,43,0
46.852253,47.324932,54,38,0
47.324932,47.803265,59,43,0
47.324932,47.803265,56,38,0
47.803265,48.287384,59,43,0
47.803265,48.287384,57,38,0
46.852253,48.287384,47,38,0
48.287384,49.689068,52,46,0
48.287384,49.689068,47,41,0
48.287384,49.689068,40,41,0
49.689068,51.0968,40,46,0
51.0968,51.77185,45,37,0
51.77185,52.00404,47,35,0
52.00404,52.479332,48,33,0
51.0968,52.479332,40,33,0
52.479332,53.823044,40,24,0
52.479332,53.823044,47,27,0
53.823044,55.23848,40,46,0
55.23848,55.95449,45,35,0
55.95449,56.205025,47,32,0
56.205025,56.723507,48,29,0
55.23848,56.723507,40,31,0
56.723507,58.134388,40,23,0
56.723507,58.134388,47,26,0
58.134388,59.071888,59,32,0
58.134388,59.071888,52,28,0
59.071888,59.58471,59,26,0
59.071888,59.58471,52,23,0
59.58471,60.52081,59,32,0
59.58471,60.52081,52,28,0
60.52081,61.091476,56,25,0
60.52081,61.091476,52,22,0
61.091476,63.37601,58,32,0
61.091476,63.37601,51,28,0
63.791233,64.65145,61,32,0
63.791233,64.65145,51,28,0
63.791233,64.65145,53,28,0
63.791233,64.65145,56,28,0
64.65145,65.08156,61,32,0
64.65145,65.08156,51,28,0
64.65145,65.08156,53,28,0
64.65145,65.08156,56,28,0
65.08156,65.97498,51,32,0
65.08156,65.97498,61,36,0
65.08156,65.97498,58,32,0
65.08156,65.97498,55,32,0
65.97498,66.500656,51,27,0
65.97498,66.500656,63,31,0
66.500656,68.353935,56,29,0
66.500656,68.353935,63,33,0
68.81725,69.33836,65,57,0
68.81725,69.33836,60,51,0
68.81725,69.33836,56,51,0
69.33836,70.24745,65,57,0
69.33836,70.24745,60,51,0
69.33836,70.24745,56,51,0
70.24745,70.82085,65,57,0
70.24745,70.82085,60,51,0
70.24745,70.82085,56,51,0
70.82085,71.729935,60,61,0
70.82085,71.729935,56,54,0
71.729935,72.24879,60,54,0
71.729935,72.24879,56,48,0
72.24879,74.521515,65,57,0
74.521515,75.08415,64,44,0
72.24879,75.08415,55,51,0
72.24879,75.08415,58,51,0
72.24879,75.08415,61,51,0
75.08415,77.70937,55,32,0
75.08415,77.70937,63,36,0
77.70937,78.31765,56,32,0
78.31765,80.1784,61,33,0
80.64359,81.23391,61,32,0
80.64359,81.23391,65,36,0
81.23391,82.62947,65,36,0
82.62947,83.09466,63,34,0
81.23391,83.09466,60,32,0
83.5281,83.72894,51,39,0
83.72894,83.92979,48,40,0
83.327255,83.92979,56,37,0
83.92979,84.821976,55,37,0
83.92979,84.821976,51,33,0
83.92979,84.821976,46,33,0
84.821976,85.381996,56,40,0
84.821976,85.381996,51,36,0
84.821976,85.381996,44,36,0
85.381996,86.25093,55,41,0
85.381996,86.25093,51,36,0
85.381996,86.25093,43,36,0
86.25093,86.87828,53,45,0
86.25093,86.87828,46,40,0
86.25093,86.87828,41,40,0
86.87828,88.86413,51,48,0
86.87828,88.86413,46,43,0
86.87828,88.86413,39,43,0
89.329315,89.94069,44,50,0
89.329315,89.94069,32,45,0
89.94069,91.75561,49,57,0
89.94069,91.75561,37,51,0
92.21715,92.757,44,50,0
92.21715,92.757,32,45,0
92.757,94.55319,49,57,0
92.757,94.55319,37,51,0
94.99275,95.90717,50,62,0
94.99275,95.90717,38,55,0
95.91583,96.3428,50,63,0
95.91583,96.3428,38,56,0
96.365265,96.79224,50,63,0
96.365265,96.79224,38,56,0
96.814705,97.232285,50,61,0
96.814705,97.232285,38,54,0
97.254265,97.69871,49,67,0
97.254265,97.69871,37,60,0
97.69871,98.14647,47,70,0
97.69871,98.14647,35,63,0
98.14647,98.597595,45,72,0
98.14647,98.597595,33,61,0
98.597595,99.04873,35,59,0
98.597595,99.04873,47,66,0
99.04873,99.574394,49,57,0
99.04873,99.574394,37,51,0
99.574394,101.838005,51,39,0
99.574394,101.838005,39,35,0
101.838005,102.74281,59,60,0
101.838005,102.74281,52,48,0
101.838005,102.74281,50,48,0
101.838005,102.74281,56,48,0
102.76108,103.18804,59,44,0
102.76108,103.18804,50,35,0
102.76108,103.18804,52,35,0
102.76108,103.18804,56,35,0
103.21052,103.63748,59,44,0
103.21052,103.63748,50,35,0
103.21052,103.63748,52,35,0
103.21052,103.63748,56,35,0
103.65996,104.10939,59,41,0
103.65996,104.10939,50,32,0
103.65996,104.10939,52,32,0
103.65996,104.10939,56,32,0
104.10939,104.56916,61,44,0
104.10939,104.56916,49,35,0
104.10939,104.56916,52,35,0
104.10939,104.56916,57,35,0
104.56916,104.97096,59,35,0
104.56916,104.97096,47,35,0
104.56916,104.97096,52,35,0
104.56916,104.97096,62,44,0
104.97096,105.09096,66,48,0
105.09096,105.55073,64,46,0
105.09096,105.55073,45,36,0
105.09096,105.55073,52,36,0
105.09096,105.55073,61,41,0
105.55073,106.0105,62,44,0
105.55073,106.0105,47,35,0
105.55073,106.0105,52,35,0
105.55073,106.0105,59,35,0
106.0105,106.57314,61,39,0
106.0105,106.57314,49,31,0
106.0105,106.57314,52,31,0
106.0105,106.57314,57,31,0
106.57314,108.03655,59,34,0
106.57314,108.03655,56,30,0
108.03655,109.57502,58,28,0
106.57314,109.57502,51,30,0
108.03655,109.57502,39,25,0
108.03655,109.57502,55,25,0
109.57502,112.13912,56,28,0
109.57502,112.13912,44,25,0
109.57502,112.13912,32,25,0
112.13912,112.62892,56,34,0
112.13912,112.62892,49,27,0
112.13912,112.62892,37,27,0
112.13912,112.62892,44,27,0
112.13912,112.62892,53,27,0
112.62892,114.068924,56,34,0
112.62892,114.068924,49,27,0
112.62892,114.068924,37,27,0
112.62892,114.068924,44,27,0
112.62892,114.068924,53,27,0
114.068924,115.50892,54,27,0
114.068924,115.50892,48,27,0
114.068924,115.50892,39,27,0
114.068924,115.50892,44,30,0
114.068924,115.50892,56,34,0
115.50892,115.866066,56,30,0
115.50892,115.866066,44,27,0
115.50892,115.866066,49,30,0
115.50892,115.866066,41,27,0
115.50892,115.866066,53,30,0
115.50892,115.866066,61,34,0
115.98511,116.342255,54,28,0
115.98511,116.342255,46,28,0
115.98511,116.342255,49,28,0
115.98511,116.342255,42,28,0
115.98511,116.342255,58,28,0
115.98511,116.342255,61,36,0
116.4613,116.85604,51,30,0
116.4613,116.85604,61,34,0
116.4613,116.85604,63,38,0
116.4613,116.85604,46,30,0
116.4613,116.85604,43,30,0
116.4613,116.85604,58,30,0
116.4613,116.98762,49,30,0
116.98762,117.9918,56,35,0
116.98762,117.9918,44,31,0
116.98762,117.9918,48,31,0
116.98762,117.9918,51,31,0
117.9918,118.462875,53,33,0
117.9918,118.462875,49,29,0
117.9918,118.462875,41,29,0
118.48767,119.41074,53,33,0
118.48767,119.41074,49,29,0
118.48767,119.41074,41,29,0
119.41074,119.64151,54,36,0
119.41074,119.64151,42,32,0
119.64151,119.872284,53,32,0
119.64151,119.872284,41,28,0
119.41074,119.872284,49,32,0
119.872284,120.34473,53,32,0
119.872284,120.34473,49,28,0
119.872284,120.34473,41,28,0
120.34473,120.80626,58,39,0
120.34473,120.80626,46,35,0
120.80626,121.2678,54,36,0
120.80626,121.2678,42,32,0
121.2678,121.759605,51,34,0
121.2678,121.759605,39,30,0
121.759605,122.2396,48,38,0
121.759605,122.2396,36,34,0
122.2396,122.7396,44,36,0
122.2396,122.7396,32,32,0
122.7396,123.772934,49,36,0
122.7396,123.772934,37,32,0
123.772934,124.23824,61,30,0
123.772934,124.23824,56,27,0
123.772934,124.23824,49,27,0
124.26273,125.70273,61,30,0
124.26273,125.70273,56,27,0
124.26273,125.70273,49,27,0
125.70273,127.14466,60,30,0
125.70273,127.14466,56,27,0
125.70273,127.14466,51,27,0
127.14466,127.5018,61,30,0
127.14466,127.5018,56,27,0
127.14466,127.5018,53,27,0
127.62085,127.97379,61,32,0
127.62085,127.97379,58,28,0
127.62085,127.97379,54,28,0
128.09143,128.48618,63,34,0
128.09143,128.48618,55,30,0
128.09143,128.48618,58,30,0
128.09143,128.48618,61,30,0
128.61775,129.62193,63,35,0
128.61775,129.62193,60,31,0
128.61775,129.62193,56,31,0
129.62193,130.09302,65,43,0
129.62193,130.09302,61,38,0
129.62193,130.09302,53,38,0
130.1178,131.04088,65,43,0
130.1178,131.04088,61,38,0
130.1178,131.04088,53,38,0
131.04088,131.27165,66,46,0
131.04088,131.27165,54,41,0
131.27165,131.50243,65,41,0
131.27165,131.50243,53,36,0
131.04088,131.50243,61,41,0
131.50243,131.97118,65,41,0
131.50243,131.97118,61,36,0
131.50243,131.97118,53,36,0
131.97118,132.42061,70,52,0
131.97118,132.42061,58,46,0
132.42061,132.87004,66,46,0
132.42061,132.87004,54,41,0
132.87004,133.33879,63,43,0
132.87004,133.33879,51,38,0
133.33879,133.79333,60,51,0
133.33879,133.79333,48,45,0
133.79333,134.26208,56,50,0
133.79333,134.26208,44,45,0
134.26208,135.22209,61,45,0
134.26208,135.22209,49,40,0
135.22209,135.67809,60,57,0
135.22209,135.67809,56,51,0
135.22209,135.67809,48,51,0
135.70209,136.62517,60,57,0
135.70209,136.62517,56,51,0
135.70209,136.62517,48,51,0
136.62517,136.85594,58,56,0
136.62517,136.85594,46,50,0
136.85594,137.0867,60,56,0
136.85594,137.0867,48,50,0
136.62517,137.0867,56,56,0
137.0867,137.54825,56,57,0
137.0867,137.54825,44,51,0
137.54825,138.00978,56,54,0
137.54825,138.00978,60,61,0
137.54825,138.00978,48,54,0
138.00978,138.47131,49,54,0
138.00978,138.47131,56,54,0
138.00978,138.47131,61,61,0
138.47131,138.93286,51,56,0
138.47131,138.93286,56,56,0
138.47131,138.93286,63,63,0
138.93286,139.41095,53,59,0
138.93286,139.41095,56,59,0
138.93286,139.41095,65,66,0
139.41095,139.91882,66,61,0
139.41095,139.91882,56,54,0
139.41095,139.91882,54,54,0
139.91882,141.38914,56,44,0
139.91882,141.38914,60,49,0
139.91882,141.38914,48,44,0
141.38914,142.79222,61,39,0
141.38914,142.79222,56,35,0
141.38914,142.79222,49,35,0
142.79222,143.71529,60,39,0
142.79222,143.71529,48,35,0
143.71529,144.19722,59,36,0
143.71529,144.19722,47,32,0
142.79222,144.19722,56,35,0
144.19722,145.1203,58,37,0
144.19722,145.1203,51,33,0
144.19722,145.1203,46,33,0
145.1203,145.58722,51,36,0
145.58722,146.5103,57,38,0
145.58722,146.5103,51,34,0
145.58722,146.5103,45,34,0
146.5103,146.98274,57,33,0
146.5103,146.98274,51,29,0
146.98274,147.9058,58,36,0
146.98274,147.9058,51,32,0
146.98274,147.9058,46,32,0
147.9058,148.42084,51,31,0
148.42084,149.47397,51,30,0
149.47397,150.07918,56,29,0
148.42084,150.07918,44,27,0
150.07918,151.51918,56,25,0
150.07918,151.51918,44,22,0
150.07918,151.51918,53,22,0
150.07918,151.51918,37,22,0
150.07918,151.51918,49,22,0
151.51918,152.95918,54,22,0
151.51918,152.95918,56,25,0
151.51918,152.95918,44,22,0
151.51918,152.95918,39,22,0
151.51918,152.95918,48,22,0
152.95918,153.31918,53,22,0
152.95918,153.31918,41,22,0
152.95918,153.31918,44,22,0
152.95918,153.31918,56,22,0
152.95918,153.31918,61,28,0
152.95918,153.31918,49,22,0
153.43918,153.79918,58,24,0
153.43918,153.79918,42,24,0
153.43918,153.79918,46,24,0
153.43918,153.79918,61,30,0
153.43918,153.79918,54,24,0
153.43918,153.79918,49,24,0
153.91917,154.3296,58,25,0
153.91917,154.3296,63,32,0
153.91917,154.3296,43,25,0
153.91917,154.3296,46,25,0
153.91917,154.3296,49,25,0
153.91917,154.3296,61,25,0
153.91917,154.3296,51,25,0
154.46643,155.47061,51,23,0
154.46643,155.47061,56,29,0
154.46643,155.47061,44,23,0
154.46643,155.47061,48,23,0
155.47061,155.94168,49,38,0
155.47061,155.94168,53,43,0
155.47061,155.94168,41,38,0
155.96648,156.88956,53,43,0
155.96648,156.88956,41,38,0
155.96648,156.88956,49,38,0
156.88956,157.12032,54,43,0
156.88956,157.12032,42,38,0
157.12032,157.35109,41,39,0
157.12032,157.35109,53,39,0
156.88956,157.35109,49,38,0
157.35109,157.8389,53,39,0
157.35109,157.8389,41,39,0
157.35109,157.8389,49,35,0
157.8389,158.3132,49,48,0
157.8389,158.3132,56,54,0
157.8389,158.3132,61,54,0
158.3132,158.7875,48,45,0
158.3132,158.7875,60,51,0
158.3132,158.7875,56,45,0
158.7875,159.73613,58,57,0
158.7875,159.73613,46,51,0
158.7875,159.73613,53,51,0
159.73613,160.22794,56,54,0
159.73613,160.22794,44,48,0
159.73613,160.22794,54,48,0
160.22794,161.151,53,51,0
160.22794,161.151,56,57,0
160.22794,161.151,49,51,0
161.151,161.60884,53,53,0
161.151,161.60884,65,59,0
161.151,161.60884,61,53,0
161.63293,162.53519,61,51,0
161.63293,162.53519,53,51,0
161.63293,162.53519,65,57,0
162.53519,162.76076,66,61,0
162.53519,162.76076,54,54,0
162.76076,162.98631,53,51,0
162.76076,162.98631,65,57,0
162.53519,162.98631,61,54,0
162.98631,163.47018,61,53,0
162.98631,163.47018,53,53,0
162.98631,163.47018,65,59,0
166.8979,167.3539,56,51,0
166.8979,167.3539,48,51,0
166.8979,167.3539,60,57,0
167.3779,168.30098,60,57,0
167.3779,168.30098,56,51,0
167.3779,168.30098,48,51,0
168.30098,168.53175,58,56,0
168.30098,168.53175,46,50,0
168.53175,168.76251,60,56,0
168.53175,168.76251,48,50,0
168.30098,168.76251,56,50,0
168.76251,169.22406,56,57,0
168.76251,169.22406,44,51,0
169.22406,169.6856,56,54,0
169.22406,169.6856,60,61,0
169.22406,169.6856,48,54,0
169.6856,170.14713,49,54,0
169.6856,170.14713,56,54,0
169.6856,170.14713,61,61,0
170.14713,170.60867,51,56,0
170.14713,170.60867,56,56,0
170.14713,170.60867,63,63,0
170.60867,171.09648,53,59,0
170.60867,171.09648,56,59,0
170.60867,171.09648,65,66,0
171.09648,171.6782,66,61,0
171.09648,171.6782,56,54,0
171.09648,171.6782,54,54,0
171.6782,173.12695,56,44,0
171.6782,173.12695,60,49,0
171.6782,173.12695,48,44,0
173.12695,174.53003,61,39,0
173.12695,174.53003,56,35,0
173.12695,174.53003,49,35,0
174.53003,175.45311,60,39,0
174.53003,175.45311,48,35,0
175.45311,175.93503,59,36,0
175.45311,175.93503,47,32,0
174.53003,175.93503,56,35,0
175.93503,176.85811,58,37,0
175.93503,176.85811,51,33,0
175.93503,176.85811,46,33,0
176.85811,177.32504,51,36,0
177.32504,178.24811,57,38,0
177.32504,178.24811,51,34,0
177.32504,178.24811,45,34,0
178.24811,178.72055,57,33,0
178.24811,178.72055,51,29,0
178.72055,179.64363,58,36,0
178.72055,179.64363,51,32,0
178.72055,179.64363,46,32,0
179.64363,180.15865,51,31,0
180.15865,181.23705,51,30,0
181.23705,181.89178,56,29,0
180.15865,181.89178,44,27,0
181.89178,183.33179,56,25,0
181.89178,183.33179,49,22,0
181.89178,183.33179,37,22,0
181.89178,183.33179,44,22,0
181.89178,183.33179,53,22,0
183.33179,184.77179,54,22,0
183.33179,184.77179,48,22,0
183.33179,184.77179,39,22,0
183.33179,184.77179,44,22,0
183.33179,184.77179,56,25,0
184.77179,185.13179,56,22,0
184.77179,185.13179,41,22,0
184.77179,185.13179,44,22,0
184.77179,185.13179,49,22,0
184.77179,185.13179,53,22,0
184.77179,185.13179,61,28,0
185.25179,185.61179,54,24,0
185.25179,185.61179,42,24,0
185.25179,185.61179,46,24,0
185.25179,185.61179,49,24,0
185.25179,185.61179,58,24,0
185.25179,185.61179,61,30,0
185.73178,186.12653,51,25,0
185.73178,186.12653,61,25,0
185.73178,186.12653,46,25,0
185.73178,186.12653,49,25,0
185.73178,186.12653,43,25,0
185.73178,186.12653,58,25,0
185.73178,186.12653,63,32,0
186.2581,187.26228,56,29,0
186.2581,187.26228,44,23,0
186.2581,187.26228,48,23,0
186.2581,187.26228,51,23,0
187.26228,187.73337,53,43,0
187.26228,187.73337,49,38,0
187.26228,187.73337,41,38,0
187.75816,188.68123,53,43,0
187.75816,188.68123,49,38,0
187.75816,188.68123,41,38,0
188.68123,188.912,54,43,0
188.68123,188.912,42,38,0
188.912,189.14278,53,39,0
188.912,189.14278,41,35,0
188.68123,189.14278,49,38,0
189.14278,189.63057,53,39,0
189.14278,189.63057,49,35,0
189.14278,189.63057,41,35,0
189.63057,190.10489,61,54,0
189.63057,190.10489,49,48,0
189.63057,190.10489,56,48,0
190.10489,190.5792,60,51,0
190.10489,190.5792,48,45,0
190.10489,190.5792,56,45,0
190.5792,191.5278,58,57,0
190.5792,191.5278,53,51,0
190.5792,191.5278,46,51,0
191.5278,192.0196,54,48,0
191.5278,192.0196,56,54,0
191.5278,192.0196,44,48,0
192.0196,192.94269,56,57,0
192.0196,192.94269,53,51,0
192.0196,192.94269,49,51,0
192.94269,193.40051,53,53,0
192.94269,193.40051,61,53,0
192.94269,193.40051,65,59,0
193.42462,194.32687,65,57,0
193.42462,194.32687,61,51,0
193.42462,194.32687,53,51,0
194.32687,194.55243,54,54,0
194.32687,194.55243,66,61,0
194.55243,194.778,53,51,0
194.55243,194.778,65,57,0
194.32687,194.778,61,54,0
194.778,195.27182,53,53,0
194.778,195.27182,61,53,0
194.778,195.27182,65,59,0
198.89958,199.51408,56,36,0
199.51408,201.37483,61,38,0
201.84003,202.42744,61,40,0
201.84003,202.42744,65,45,0
202.42744,203.82301,65,45,0
203.82301,204.28821,63,43,0
202.42744,204.28821,60,40,0
204.5208,204.72163,56,42,0
204.72163,204.92249,51,44,0
204.92249,205.12332,48,45,0
205.12332,206.01552,55,42,0
205.12332,206.01552,51,37,0
205.12332,206.01552,46,37,0
206.01552,206.53726,56,45,0
206.01552,206.53726,51,40,0
206.01552,206.53726,44,40,0
206.53726,207.40619,55,46,0
206.53726,207.40619,51,41,0
206.53726,207.40619,43,41,0
207.40619,208.03355,53,48,0
207.40619,208.03355,46,43,0
207.40619,208.03355,41,43,0
208.03355,210.0194,51,51,0
208.03355,210.0194,46,45,0
208.03355,210.0194,39,45,0
210.48457,211.07489,56,37,0
211.07489,212.93565,61,41,0
213.40083,214.0315,49,45,0
213.40083,214.0315,37,40,0
214.0315,215.88129,48,49,0
214.0315,215.88129,36,44,0
216.34648,216.91714,60,32,0
216.34648,216.91714,64,36,0
216.91714,217.86337,58,36,0
216.91714,217.86337,63,40,0
217.86337,218.4008,56,37,0
217.86337,218.4008,63,42,0
218.4008,219.33119,49,51,0
219.33119,219.95375,51,43,0
219.95375,221.92097,51,35,0
219.95375,221.92097,44,31,0
222.483,223.05396,59,28,0
222.483,223.05396,56,25,0
222.483,223.05396,52,25,0
223.08469,224.47314,52,25,0
224.47314,224.93596,51,22,0
223.08469,224.93596,59,28,0
223.08469,224.93596,56,25,0
225.39879,225.96236,59,30,0
225.39879,225.96236,56,27,0
225.39879,225.96236,49,27,0
225.99202,227.38048,49,28,0
227.38048,227.8433,47,21,0
225.99202,227.8433,59,32,0
225.99202,227.8433,56,28,0
228.30612,228.82114,59,33,0
228.30612,228.82114,56,29,0
228.30612,228.82114,47,29,0
228.82114,230.2618,49,35,0
230.2618,230.73701,46,40,0
230.73701,231.21222,47,37,0
228.82114,231.21222,56,35,0
228.82114,231.21222,58,39,0
231.21222,231.77751,49,35,0
231.77751,233.6288,51,35,0
234.09161,234.64426,59,25,0
234.09161,234.64426,56,22,0
234.09161,234.64426,52,22,0
234.67336,236.06181,52,22,0
236.06181,236.52463,51,19,0
234.67336,236.52463,59,25,0
234.67336,236.52463,56,22,0
236.98744,237.5401,59,32,0
236.98744,237.5401,56,28,0
236.98744,237.5401,49,28,0
237.56918,238.95764,49,27,0
238.95764,239.42046,47,18,0
237.56918,239.42046,59,31,0
237.56918,239.42046,56,27,0
239.88329,240.40501,59,38,0
239.88329,240.40501,52,34,0
239.88329,240.40501,47,34,0
239.88329,240.40501,56,34,0
240.40501,241.95155,59,44,0
240.40501,241.95155,47,39,0
240.40501,241.95155,52,39,0
240.40501,241.95155,56,39,0
241.95155,243.39682,59,42,0
241.95155,243.39682,47,37,0
241.95155,243.39682,52,37,0
241.95155,243.39682,56,37,0
243.39682,244.84431,56,39,0
243.39682,244.84431,53,35,0
243.39682,244.84431,47,35,0
244.84431,245.317,57,43,0
244.84431,245.317,54,38,0
245.317,245.79533,59,43,0
245.317,245.79533,56,38,0
245.79533,246.27945,59,43,0
245.79533,246.27945,57,38,0
244.84431,246.27945,47,43,0
246.27945,247.68114,52,46,0
246.27945,247.68114,47,41,0
246.27945,247.68114,40,41,0
247.68114,249.08179,40,46,0
249.08179,249.75684,45,37,0
249.75684,249.98901,47,35,0
249.98901,250.46431,48,33,0
249.08179,250.46431,40,33,0
250.46431,251.80803,40,24,0
250.46431,251.80803,47,27,0
251.80803,253.23367,40,46,0
253.23367,253.94968,45,35,0
253.94968,254.20021,47,32,0
254.20021,254.71869,48,29,0
253.23367,254.71869,40,27,0
254.71869,256.12958,40,20,0
254.71869,256.12958,47,23,0
256.12958,257.06708,59,32,0
256.12958,257.06708,52,28,0
257.06708,257.58148,59,26,0
257.06708,257.58148,52,23,0
257.58148,258.51758,59,32,0
257.58148,258.51758,52,28,0
258.51758,259.0993,56,25,0
258.51758,259.0993,52,25,0
259.0993,261.38385,58,32,0
259.0993,261.38385,51,28,0
261.79907,262.65927,61,32,0
261.79907,262.65927,51,28,0
261.79907,262.65927,53,28,0
261.79907,262.65927,56,28,0
262.65927,263.0894,61,32,0
262.65927,263.0894,51,28,0
262.65927,263.0894,53,28,0
262.65927,263.0894,56,28,0
263.0894,263.98282,51,32,0
263.0894,263.98282,61,36,0
263.0894,263.98282,58,32,0
263.0894,263.98282,55,32,0
263.98282,264.50168,51,27,0
263.98282,264.50168,63,31,0
264.50168,266.35495,56,29,0
264.50168,266.35495,63,33,0
266.81827,267.3112,65,57,0
266.81827,267.3112,60,51,0
266.81827,267.3112,56,51,0
267.33713,268.24622,65,57,0
267.33713,268.24622,60,51,0
267.33713,268.24622,56,51,0
268.24622,268.7885,65,57,0
268.24622,268.7885,60,51,0
268.24622,268.7885,56,51,0
268.7885,269.6976,60,61,0
268.7885,269.6976,56,54,0
269.6976,270.20764,60,54,0
269.6976,270.20764,56,48,0
270.20764,272.48035,65,57,0
272.48035,273.02264,64,44,0
270.20764,273.02264,55,51,0
270.20764,273.02264,58,51,0
270.20764,273.02264,61,51,0
273.02264,275.6448,55,28,0
273.02264,275.6448,63,32,0
275.6448,276.26248,56,32,0
276.26248,278.12323,61,33,0
278.5884,279.1876,61,32,0
278.5884,279.1876,65,36,0
279.1876,280.58313,65,36,0
280.58313,281.04834,63,34,0
279.1876,281.04834,60,32,0
281.48178,281.68262,51,39,0
281.68262,281.88345,48,40,0
281.2809,281.88345,56,37,0
281.88345,282.77567,55,37,0
281.88345,282.77567,51,33,0
281.88345,282.77567,46,33,0
282.77567,283.34094,56,40,0
282.77567,283.34094,51,36,0
282.77567,283.34094,44,36,0
283.34094,284.20987,55,41,0
283.34094,284.20987,51,36,0
283.34094,284.20987,43,36,0
284.20987,284.86105,53,45,0
284.20987,284.86105,46,40,0
284.20987,284.86105,41,40,0
284.86105,286.8469,51,48,0
284.86105,286.8469,46,43,0
284.86105,286.8469,39,43,0
287.3121,287.92035,44,50,0
287.3121,287.92035,32,45,0
287.92035,289.7457,49,57,0
287.92035,289.7457,37,51,0
290.20724,290.757,44,50,0
290.20724,290.757,32,45,0
290.757,292.56717,49,57,0
290.757,292.56717,37,51,0
293.0067,293.92114,50,62,0
293.0067,293.92114,38,55,0
293.9298,294.35675,50,63,0
293.9298,294.35675,38,56,0
294.37924,294.8062,50,63,0
294.37924,294.8062,38,56,0
294.82867,295.24625,50,61,0
294.82867,295.24625,38,54,0
295.26825,295.71936,49,67,0
295.26825,295.71936,37,60,0
295.71936,296.17563,47,70,0
295.71936,296.17563,35,63,0
296.17563,296.62677,45,72,0
296.17563,296.62677,33,64,0
296.62677,297.07788,35,59,0
296.62677,297.07788,47,66,0
297.07788,297.60822,49,57,0
297.07788,297.60822,37,51,0
297.60822,299.9004,51,39,0
297.60822,299.9004,39,35,0
299.9004,300.81482,59,60,0
299.9004,300.81482,52,48,0
299.9004,300.81482,50,48,0
299.9004,300.81482,56,48,0
300.82346,301.25043,59,44,0
300.82346,301.25043,50,35,0
300.82346,301.25043,52,35,0
300.82346,301.25043,56,35,0
301.2729,301.69986,59,44,0
301.2729,301.69986,50,35,0
301.2729,301.69986,52,35,0
301.2729,301.69986,56,35,0
301.72235,302.1493,59,41,0
301.72235,302.1493,50,32,0
301.72235,302.1493,52,32,0
301.72235,302.1493,56,32,0
302.17178,302.63156,61,44,0
302.17178,302.63156,49,35,0
302.17178,302.63156,52,35,0
302.17178,302.63156,57,35,0
302.63156,303.06296,59,35,0
302.63156,303.06296,47,35,0
302.63156,303.06296,52,35,0
302.63156,303.06296,62,44,0
303.06296,303.20447,66,48,0
303.20447,303.6642,64,42,0
303.20447,303.6642,45,33,0
303.20447,303.6642,52,33,0
303.20447,303.6642,61,33,0
303.6642,304.1575,62,40,0
303.6642,304.1575,47,32,0
303.6642,304.1575,52,32,0
303.6642,304.1575,59,32,0
304.1575,304.75366,61,36,0
304.1575,304.75366,49,28,0
304.1575,304.75366,52,28,0
304.1575,304.75366,57,28,0
304.75366,306.38058,59,31,0
304.75366,306.38058,56,27,0
306.38058,308.25284,58,28,0
304.75366,308.25284,51,27,0
306.38058,308.25284,39,25,0
306.38058,308.25284,55,28,0
308.25284,311.3733,56,28,0
308.25284,311.3733,44,25,0
308.25284,311.3733,32,25,0
