start_time,end_time,note_value,velocity,instrument_program_number
0.0,0.454545,69,127,40
0.454545,0.6818175,67,116,40
0.6818175,0.90435517,69,116,40
0.90909,1.363635,64,116,40
1.363635,1.81818,62,116,40
1.81818,2.0454526,69,127,40
2.0454526,2.272725,65,116,40
2.272725,2.4999976,72,116,40
2.4999976,2.72727,76,116,40
2.72727,3.5227237,74,116,40
3.63636,4.090905,77,127,40
4.090905,4.3181777,76,116,40
4.3181777,4.54545,81,116,40
4.54545,4.999995,79,116,40
4.999995,5.2272673,77,116,40
5.2272673,5.45454,76,116,40
5.45454,5.71095,74,116,40
5.71095,5.9718194,81,116,40
5.9718194,7.4945235,84,116,40
7.6401544,8.0947,87,127,40
8.0947,8.321972,82,116,40
8.321972,8.549245,87,116,40
8.549245,9.00379,77,116,40
9.00379,9.382577,75,116,40
9.458335,9.685607,80,116,40
9.685607,9.91288,73,116,40
9.91288,10.140152,73,116,40
10.140152,10.367425,77,116,40
10.367425,10.821969,70,116,40
10.821969,11.200757,68,116,40
11.276514,11.503787,68,116,40
11.503787,11.731059,72,116,40
11.731059,12.185604,65,116,40
12.185604,12.412877,68,116,40
12.412877,12.640149,72,116,40
12.640149,13.321967,65,116,40
13.321967,13.549239,62,116,40
13.549239,13.776512,63,116,40
13.776512,14.003784,65,116,40
14.003784,14.382572,67,116,40
14.912874,15.367419,86,116,40
15.367419,15.821964,81,116,40
15.821964,16.27651,79,116,40
16.27651,16.731054,77,116,40
16.731054,17.1856,76,116,40
17.1856,17.412872,74,116,40
17.412872,17.640144,76,116,40
17.640144,17.867416,77,116,40
17.867416,18.09469,79,116,40
18.09469,18.473476,81,116,40
18.549234,19.00378,57,116,40
19.00378,19.458324,59,116,40
19.458324,19.91287,60,116,40
19.91287,20.291656,62,116,40
20.367414,21.276505,60,116,40
21.276505,21.655293,59,116,40
21.731049,22.185595,65,116,40
22.185595,22.640139,86,116,40
22.640139,23.094685,81,116,40
23.094685,23.549229,79,116,40
23.549229,23.928017,77,116,40
24.003775,24.458319,57,116,40
24.458319,24.912865,59,116,40
24.912865,25.367409,60,116,40
25.367409,25.821955,62,116,40
25.821955,26.276499,86,116,40
26.276499,26.731045,81,116,40
26.731045,27.185589,79,116,40
27.185589,27.564377,77,116,40
27.640135,28.10539,59,116,40
28.10539,28.601427,60,116,40
28.601427,29.132608,62,116,40
29.132608,29.606256,64,116,40
29.704296,30.15884,84,116,40
30.15884,30.613386,81,116,40
30.613386,31.06793,76,116,40
31.06793,31.522476,74,116,40
31.522476,31.749748,81,116,40
31.749748,31.97702,77,116,40
31.97702,32.204292,84,116,40
32.204292,32.431564,88,116,40
32.431564,33.22702,86,116,40
33.340656,33.7952,89,116,40
33.7952,34.022472,88,116,40
34.022472,34.249744,93,116,40
34.249744,34.704292,91,116,40
34.704292,34.931564,89,116,40
34.931564,35.158836,88,116,40
35.158836,35.61338,86,116,40
35.61338,35.840652,84,116,40
35.840652,36.067924,89,116,40
36.067924,36.522472,86,116,40
36.522472,36.749744,84,116,40
36.749744,36.977016,82,116,40
36.977016,38.227013,81,116,40
38.34065,38.795197,77,116,40
38.795197,40.045193,81,116,40
40.15883,40.613377,77,116,40
40.613377,41.863373,81,116,40
41.97701,42.355797,77,116,40
42.431557,43.113373,81,116,40
43.113373,43.340645,79,116,40
43.340645,44.022465,81,116,40
44.022465,44.249737,76,116,40
44.249737,44.47701,76,116,40
44.47701,44.70428,77,116,40
44.70428,44.931553,81,116,40
44.931553,45.15409,86,116,40
45.158825,45.840645,81,116,40
45.840645,46.067917,79,116,40
46.067917,46.749733,81,116,40
46.749733,46.97227,76,116,40
46.977005,47.204277,76,116,40
47.204277,47.43155,77,116,40
47.43155,47.65882,81,116,40
47.65882,47.886097,86,116,40
47.886097,48.34064,84,116,40
48.34064,48.567913,83,116,40
48.567913,48.795185,84,116,40
48.795185,49.24973,80,116,40
49.24973,49.628517,81,116,40
49.704277,49.813175,84,116,40
49.817913,49.926815,84,116,40
49.93155,50.04045,83,116,40
50.045185,50.154087,83,116,40
50.15882,50.267723,80,116,40
50.272457,50.38136,80,116,40
50.386093,50.494995,68,116,40
50.49973,50.60863,68,116,40
50.613365,50.727,66,116,40
50.727,50.840637,68,116,40
50.840637,50.954273,66,116,40
50.954273,51.063175,64,116,40
51.06791,51.181545,64,116,40
51.181545,51.29518,66,116,40
51.29518,51.40882,64,116,40
51.40882,51.51772,62,116,40
51.522457,51.631355,65,116,40
51.636093,51.74499,65,116,40
51.74973,51.85863,65,116,40
51.863365,51.972267,65,116,40
51.977,52.085903,65,116,40
52.090637,52.19954,65,116,40
52.204273,52.313175,65,116,40
52.31791,52.42681,65,116,40
52.431545,52.54518,66,116,40
52.54518,52.658817,68,116,40
52.658817,52.772453,66,116,40
52.772453,52.88609,64,116,40
52.88609,52.999725,64,116,40
52.999725,53.11336,66,116,40
53.11336,53.226997,64,116,40
53.226997,53.3359,62,116,40
53.340637,53.449535,62,116,40
53.454273,53.56317,62,116,40
53.56791,53.67681,62,116,40
53.681545,53.790447,62,116,40
53.79518,53.904083,62,116,40
53.908817,54.01772,62,116,40
54.022453,54.131355,62,116,40
54.13609,54.24499,62,116,40
54.249725,54.49452,60,116,40
55.249725,56.158817,56,116,40
56.158817,56.95427,60,116,40
57.067905,57.18154,56,116,40
57.18154,57.295177,58,116,40
57.295177,57.408813,59,116,40
57.408813,57.52245,61,116,40
57.52245,57.636086,59,116,40
57.636086,57.74972,61,116,40
57.74972,57.863358,62,116,40
57.863358,57.976997,64,116,40
57.976997,58.090633,62,116,40
58.090633,58.20427,64,116,40
58.20427,58.317905,65,116,40
58.317905,58.43154,67,116,40
58.43154,58.545177,65,116,40
58.545177,58.658813,67,116,40
58.658813,58.77245,68,116,40
58.77245,58.88135,70,116,40
58.886086,59.795174,71,116,40
59.795174,60.59063,65,116,40
60.704266,60.829266,65,116,40
60.829266,60.954266,67,116,40
60.954266,61.079266,68,116,40
61.079266,61.204266,70,116,40
61.204266,61.329266,68,116,40
61.329266,61.454266,70,116,40
61.454266,61.579266,71,116,40
61.579266,61.704266,73,116,40
61.704266,61.831383,71,116,40
61.831383,61.958504,73,116,40
61.958504,62.08562,74,116,40
62.08562,62.212738,76,116,40
62.212738,62.33986,74,116,40
62.33986,62.466976,76,116,40
62.466976,62.594093,77,116,40
62.594093,62.715916,79,116,40
62.721214,63.238453,88,116,40
63.238453,63.497074,87,116,40
63.497074,63.755695,88,116,40
63.755695,64.272934,83,116,40
64.272934,64.70397,82,116,40
64.79018,65.0488,88,116,40
65.0488,65.30742,87,116,40
65.30742,65.56604,87,116,40
65.56604,65.82466,88,116,40
65.82466,66.3419,83,116,40
66.3419,66.772934,82,116,40
66.85914,67.28652,88,116,40
67.3699,67.617935,87,116,40
67.617935,67.85628,88,116,40
67.86132,68.25665,87,116,40
68.334366,68.483406,85,116,40
68.48821,68.635216,87,116,40
68.639946,68.78535,88,116,40
68.790016,69.15773,88,116,40
69.230194,69.44462,87,116,40
69.44462,69.6509,88,116,40
69.65524,69.99894,87,116,40
70.06651,70.19652,85,116,40
70.20069,70.329445,87,116,40
70.33356,70.46102,88,116,40
70.46513,70.55848,88,116,40
70.56254,70.65588,90,116,40
70.659935,70.75328,88,116,40
70.75734,70.850685,83,116,40
70.854744,70.94809,83,116,40
71.244354,71.3377,79,116,40
71.34176,71.4351,83,116,40
71.439156,71.5325,79,116,40
71.53656,71.629906,76,116,40
71.633965,71.72731,76,116,40
72.023575,72.11692,71,116,40
72.12098,72.21432,73,116,40
72.218376,72.31172,71,116,40
72.31578,72.40913,67,116,40
72.413185,72.50653,67,116,40
72.802795,72.89614,64,116,40
72.9002,72.99354,66,116,40
72.9976,73.09094,64,116,40
73.095,73.18835,59,116,40
73.192406,73.51708,64,116,40
73.582016,73.90669,67,116,40
74.75085,75.14046,64,116,40
75.14046,75.465126,67,116,40
76.30928,76.69889,64,116,40
76.69889,77.734085,67,116,40
77.734085,78.86707,62,116,40
78.86707,79.66253,69,116,40
82.50343,82.95798,69,116,40
82.95798,83.18525,67,116,40
83.18525,83.41252,69,116,40
83.41252,83.867065,64,116,40
83.867065,84.32162,67,116,40
84.32162,84.7004,69,116,40
86.13979,86.59434,81,116,40
86.59434,86.82161,79,116,40
86.82161,87.04888,81,116,40
87.04888,87.503426,76,116,40
87.503426,87.95798,79,116,40
87.95798,88.18525,81,116,40
88.18525,88.41252,79,116,40
88.41252,88.63979,79,116,40
88.63979,88.867065,81,116,40
88.867065,89.32161,76,116,40
89.32161,89.77615,79,116,40
89.77615,90.15494,81,116,40
99.20493,99.68112,81,116,40
99.68112,100.6335,88,116,40
100.6335,100.79223,86,116,40
100.79223,100.95096,88,116,40
100.95096,101.10969,89,116,40
101.10969,101.585884,88,116,40
101.585884,101.823975,86,116,40
101.823975,102.06207,84,116,40
102.06207,102.53826,82,116,40
102.53826,102.77636,84,116,40
102.77636,103.01445,86,116,40
103.01445,104.44302,88,116,40
104.44302,104.60175,86,116,40
104.60175,104.76048,88,116,40
104.76048,104.91921,89,116,40
104.91921,105.3954,88,116,40
105.3954,105.6335,86,116,40
105.6335,105.87159,84,116,40
105.87159,106.34778,82,116,40
106.34778,106.58588,84,116,40
106.58588,106.823975,86,116,40
106.823975,108.01445,86,116,40
108.01445,108.25254,82,116,40
108.25254,108.49064,84,116,40
108.49064,108.72873,86,116,40
108.72873,109.20492,86,116,40
109.20492,109.443016,82,116,40
109.443016,109.681114,81,116,40
109.681114,110.1573,77,116,40
110.1573,110.63349,79,116,40
110.63349,111.81901,81,116,40
111.82397,112.062065,77,116,40
112.062065,112.300156,79,116,40
112.300156,112.53825,81,116,40
112.53825,113.96682,81,116,40
113.96682,114.36365,77,116,40
114.44301,115.87158,76,127,40
115.87158,116.34777,74,116,40
116.34777,116.82396,72,116,40
116.82396,117.776344,69,116,40
117.776344,118.25253,67,116,40
118.25253,118.37158,69,116,40
118.37158,118.49062,65,116,40
118.49062,118.60967,69,116,40
118.60967,118.72872,65,116,40
118.72872,118.84777,69,116,40
118.84777,118.96682,65,116,40
118.96682,119.08586,69,116,40
119.08586,119.19995,65,116,40
119.20491,119.32396,69,116,40
119.32396,119.44301,65,116,40
119.44301,119.56206,69,116,40
119.56206,119.6811,65,116,40
119.6811,119.80015,69,116,40
119.80015,119.9192,65,116,40
119.9192,120.038246,69,116,40
120.038246,120.15233,65,116,40
120.15729,120.27634,69,116,40
120.27634,120.395386,65,116,40
120.395386,120.514435,69,116,40
120.514435,120.633484,65,116,40
120.633484,120.752525,69,116,40
120.752525,120.871574,65,116,40
120.871574,120.99062,69,116,40
120.99062,121.10967,65,116,40
121.10967,121.22872,69,116,40
121.22872,121.34776,65,116,40
121.34776,121.46681,69,116,40
121.46681,121.5809,65,116,40
121.58586,121.70491,67,116,40
121.70491,121.82396,64,116,40
121.82396,121.943,67,116,40
121.943,122.05709,64,116,40
122.06205,122.45888,69,116,40
125.96142,127.46142,69,116,40
127.46142,127.62808,67,116,40
127.62808,127.794754,69,116,40
127.794754,127.95621,70,116,40
127.96142,129.46143,69,116,40
129.46143,129.62808,67,116,40
129.62808,129.79475,69,116,40
129.79475,129.9562,70,116,40
129.96143,130.46143,69,116,40
130.46143,130.71143,67,116,40
130.71143,130.96143,65,116,40
130.96143,131.46143,63,116,40
131.46143,131.71143,65,116,40
131.71143,131.9562,67,116,40
131.96143,133.46143,69,116,40
133.46143,133.62808,67,116,40
133.62808,133.79475,69,116,40
133.79475,133.9562,70,116,40
133.96143,135.46143,69,116,40
135.46143,135.62808,67,116,40
135.62808,135.79475,69,116,40
135.79475,135.96143,70,116,40
135.96143,136.46143,72,116,40
136.46143,136.71143,70,116,40
136.71143,136.96143,72,116,40
136.96143,137.46143,67,116,40
137.46143,137.87808,65,116,40
137.96143,138.21143,72,116,40
138.21143,138.46143,70,116,40
138.46143,138.71143,70,116,40
138.71143,138.96143,72,116,40
138.96143,139.4699,67,116,40
139.4699,139.97836,65,116,40
139.97836,140.4956,72,116,40
140.4956,140.75423,70,116,40
140.75423,141.01285,68,116,40
141.01285,141.53917,70,116,40
141.53917,141.80232,72,116,40
141.80232,142.06,74,116,40
142.06548,143.56548,75,116,40
143.56548,143.73215,73,116,40
143.73215,143.89882,75,116,40
143.89882,144.06548,77,116,40
144.06548,145.57396,75,116,40
145.57396,145.74344,73,116,40
145.74344,145.91293,75,116,40
145.91293,146.07713,77,116,40
146.08243,146.59967,75,116,40
146.59967,146.85829,73,116,40
146.85829,147.11691,70,116,40
147.11691,147.64322,73,116,40
147.64322,147.90639,75,116,40
147.90639,148.16406,78,116,40
148.16954,148.66954,85,116,40
148.66954,148.91954,83,116,40
148.91954,149.16954,85,116,40
149.16954,149.66954,80,116,40
149.66954,150.16954,78,116,40
150.16954,150.41954,85,116,40
150.41954,150.66954,78,116,40
150.66954,150.91954,83,116,40
150.91954,151.16954,88,116,40
151.16954,151.66954,85,116,40
151.66954,151.91954,83,116,40
151.91954,152.16954,80,116,40
152.16954,152.66954,78,116,40
152.66954,152.91954,80,116,40
152.91954,153.16954,78,116,40
153.16954,153.42378,76,116,40
153.42378,153.67801,73,116,40
153.67801,154.44511,71,116,40
154.44511,154.70372,73,116,40
154.70372,155.48413,66,116,40
155.48413,155.74728,68,116,40
155.74728,156.01044,61,116,40
156.01044,156.2736,59,116,40
156.2736,156.65239,57,116,40
158.09178,158.20068,69,116,40
158.20541,158.31432,69,116,40
158.31905,158.42795,72,116,40
158.4327,158.5416,72,116,40
158.54633,158.65523,74,116,40
158.65996,158.76886,74,116,40
158.77359,158.88249,77,116,40
158.88724,158.99614,77,116,40
159.00087,159.10977,84,116,40
159.1145,159.2234,84,116,40
159.22813,159.33704,81,116,40
159.34178,159.45068,81,116,40
159.45541,159.56432,77,116,40
159.56905,159.67795,77,116,40
159.6827,159.79158,81,116,40
159.79633,159.90523,81,116,40
159.90996,160.01886,84,116,40
160.02359,160.13249,84,116,40
160.13724,160.24614,81,116,40
160.25087,160.35977,81,116,40
160.3645,160.4734,77,116,40
160.47813,160.58704,77,116,40
160.59178,160.70068,81,116,40
160.70541,160.81432,81,116,40
160.81905,160.92795,84,116,40
160.93268,161.04158,84,116,40
161.04633,161.15523,81,116,40
161.15996,161.26886,81,116,40
161.27359,161.38249,77,116,40
161.38722,161.49612,77,116,40
161.50087,161.60977,81,116,40
161.6145,161.7234,81,116,40
161.72813,161.83704,84,116,40
161.84178,161.95068,84,116,40
161.95541,162.06432,81,116,40
162.06905,162.17795,81,116,40
162.18268,162.29158,77,116,40
162.29633,162.40523,77,116,40
162.40996,162.51886,81,116,40
162.52359,162.63249,81,116,40
162.63722,162.74612,84,116,40
162.75087,162.85977,84,116,40
162.8645,162.9734,81,116,40
162.97813,163.08704,81,116,40
163.09177,163.20067,77,116,40
163.20541,163.31432,77,116,40
163.31905,163.42795,81,116,40
163.43268,163.54158,81,116,40
163.54633,163.65521,84,116,40
163.65996,163.76886,84,116,40
163.77359,163.88249,81,116,40
163.88722,163.99612,81,116,40
164.00087,164.10977,77,116,40
164.1145,164.2234,77,116,40
164.22813,164.33704,81,116,40
164.34177,164.45067,81,116,40
164.45541,164.56432,77,116,40
164.56905,164.67795,77,116,40
164.68268,164.79158,74,116,40
164.79631,164.90521,74,116,40
164.90996,165.01886,72,116,40
165.02359,165.13249,72,116,40
165.13722,165.24612,74,116,40
165.25087,165.35976,74,116,40
165.3645,165.4734,72,116,40
165.47813,165.58704,72,116,40
165.59177,165.70067,69,116,40
165.70541,165.81432,69,116,40
165.81905,165.92795,65,116,40
165.93268,166.04158,65,116,40
166.04631,166.15521,69,116,40
166.15996,166.26886,69,116,40
166.27359,166.38249,65,116,40
166.38722,166.49612,65,116,40
166.50085,166.60976,69,116,40
166.6145,166.7234,69,116,40
166.72813,166.83704,65,116,40
166.84177,166.95067,65,116,40
166.9554,167.0643,62,116,40
167.06905,167.17795,62,116,40
167.18268,167.29158,65,116,40
167.29631,167.40521,65,116,40
167.40996,167.51886,69,116,40
167.52359,167.63249,69,116,40
167.63722,167.74612,65,116,40
167.75085,167.85976,65,116,40
167.8645,167.9734,62,116,40
167.97813,168.08704,62,116,40
168.09177,168.20067,65,116,40
168.2054,168.3143,65,116,40
168.31905,168.42795,69,116,40
168.43268,168.54158,69,116,40
168.54631,168.65521,65,116,40
168.65994,168.76884,65,116,40
168.77359,168.88249,62,116,40
168.88722,168.99612,62,116,40
169.00085,169.10976,68,116,40
169.1145,169.22339,68,116,40
169.22813,169.33704,56,116,40
169.34177,169.45067,56,116,40
169.4554,169.5643,56,116,40
169.56905,169.67795,56,116,40
169.68268,169.79158,59,116,40
169.79631,169.90521,59,116,40
169.90994,170.01884,59,116,40
170.02359,170.13249,59,116,40
170.13722,170.24612,63,116,40
170.25085,170.35976,63,116,40
170.36449,170.47339,63,116,40
170.47813,170.58704,63,116,40
170.59177,170.70067,68,116,40
170.7054,170.8143,68,116,40
172.18268,173.09177,87,116,40
173.09177,173.54631,83,116,40
173.54631,174.00085,82,116,40
174.00085,174.4554,80,116,40
174.4554,174.90994,79,116,40
174.90994,175.13722,77,116,40
175.13722,175.36449,79,116,40
175.36449,175.59177,80,116,40
175.59177,175.81903,82,116,40
175.81903,176.27357,83,116,40
176.27357,177.6372,87,127,40
177.6372,178.09175,83,116,40
178.09175,179.4554,87,116,40
179.4554,179.90994,83,116,40
179.90994,180.36449,87,116,40
180.36449,181.11732,89,116,40
181.12206,181.4251,87,116,40
181.4251,181.72812,89,116,40
181.72812,182.97812,90,116,40
184.00084,184.45538,75,116,40
184.45538,184.90993,78,116,40
185.81903,186.27357,63,116,40
186.27357,186.72812,66,116,40
196.50082,196.57658,63,116,40
196.57658,196.65234,71,116,40
196.65234,196.72337,78,116,40
196.7281,196.80386,78,116,40
196.80386,196.87962,71,116,40
196.87962,196.95064,63,116,40
196.95538,197.17792,63,116,40
197.63719,198.01598,75,116,40
198.09174,199.45537,78,116,40
199.45537,199.60689,77,116,40
199.60689,199.7584,78,116,40
199.7584,199.90518,80,116,40
199.90991,200.36446,78,116,40
200.36446,201.27356,81,116,40
201.27356,201.7281,78,116,40
201.7281,202.18265,77,116,40
202.18265,202.56143,75,116,40
202.86446,202.94022,66,116,40
202.94022,203.01598,73,116,40
203.01598,203.087,81,116,40
203.09174,203.1675,81,116,40
203.1675,203.24326,73,116,40
203.24326,203.31427,66,116,40
203.319,203.54155,66,116,40
205.36446,205.42128,64,116,40
205.42128,205.47809,57,116,40
205.47809,205.53491,64,116,40
205.53491,205.59174,57,116,40
205.59174,205.64854,64,116,40
205.64854,205.70537,57,116,40
205.70537,205.76219,64,116,40
205.76219,205.819,57,116,40
205.819,205.87582,64,116,40
205.87582,205.93263,57,116,40
205.93263,205.98946,64,116,40
205.98946,206.04628,57,116,40
206.04628,206.10309,64,116,40
206.10309,206.15991,57,116,40
206.15991,206.21674,64,116,40
206.21674,206.26881,57,116,40
206.27354,206.33037,66,116,40
206.33037,206.38719,60,116,40
206.38719,206.444,66,116,40
206.444,206.50082,60,116,40
206.50082,206.55763,66,116,40
206.55763,206.61446,60,116,40
206.61446,206.67128,66,116,40
206.67128,206.72809,60,116,40
206.72809,206.78491,66,116,40
206.78491,206.84174,60,116,40
206.84174,206.89854,66,116,40
206.89854,206.95537,60,116,40
206.95537,207.01218,66,116,40
207.01218,207.069,60,116,40
207.069,207.12582,66,116,40
207.12582,207.1779,60,116,40
207.18263,207.29153,67,116,40
209.00082,209.05763,70,116,40
209.05763,209.11446,66,116,40
209.11446,209.17128,70,116,40
209.17128,209.22809,66,116,40
209.22809,209.28491,70,116,40
209.28491,209.34172,66,116,40
209.34172,209.39854,70,116,40
209.39854,209.45062,66,116,40
209.45537,209.51218,72,116,40
209.51218,209.569,66,116,40
209.569,209.62582,72,116,40
209.62582,209.68263,66,116,40
209.68263,209.73946,72,116,40
209.73946,209.79626,66,116,40
209.79626,209.85309,72,116,40
209.85309,209.90991,66,116,40
209.90991,210.13245,73,116,40
210.819,211.31693,84,116,40
211.31693,211.56284,83,116,40
211.56284,211.80165,84,116,40
211.80673,212.28867,83,116,40
212.28867,212.4474,81,116,40
212.4474,212.6055,83,116,40
212.6055,212.75806,84,116,40
212.76299,213.22992,87,116,40
213.22992,213.4607,86,116,40
213.4607,213.68492,87,116,40
213.6897,214.14253,86,116,40
214.14253,214.29178,84,116,40
214.29178,214.44049,86,116,40
214.44049,214.584,87,116,40
214.58864,215.0282,87,127,40
215.0282,215.24559,86,116,40
215.24559,215.45692,87,116,40
215.46141,215.88847,86,127,40
215.88847,216.02931,84,116,40
216.02931,216.16966,86,116,40
216.16966,216.30516,87,116,40
216.30952,216.65579,87,127,40
216.72476,216.86174,84,127,40
216.86174,216.99826,86,116,40
216.99826,217.13007,87,116,40
217.13432,217.47125,87,127,40
217.53836,217.67169,84,127,40
217.67169,217.80458,86,116,40
217.80458,217.93289,87,116,40
217.93704,218.26512,87,116,40
218.33047,218.46036,84,116,40
218.46036,218.5898,86,116,40
218.5898,218.7148,87,116,40
218.71884,219.03853,87,116,40
219.10222,219.2288,84,116,40
219.2288,219.355,86,116,40
219.355,219.47685,87,116,40
219.48077,219.55577,69,116,40
219.55577,219.63078,81,116,40
219.63078,220.06877,93,116,40
220.07489,220.36336,91,116,40
220.36336,220.64638,93,116,40
220.64638,221.19688,86,116,40
221.19688,221.46474,84,116,40
221.46474,221.72789,86,116,40
221.72789,222.2407,81,116,40
222.2407,222.49712,79,116,40
222.49712,222.75354,81,116,40
222.75354,223.26636,74,116,40
223.26636,223.52277,72,116,40
223.52277,223.77917,74,116,40
223.77917,224.29199,69,116,40
224.29199,224.5484,67,116,40
224.5484,224.80481,69,116,40
224.80481,225.07185,62,116,40
225.89572,226.03209,58,116,40
226.03209,226.16844,64,116,40
226.16844,226.30481,70,116,40
226.30481,226.43549,76,116,40
226.44118,226.57755,76,116,40
226.57755,226.7139,70,116,40
226.7139,226.85027,64,116,40
226.85027,226.98094,58,116,40
226.98663,227.25368,58,116,40
230.25935,230.39572,58,116,40
230.39572,230.53207,64,116,40
230.53207,230.66844,70,116,40
230.66844,230.79912,76,116,40
230.80481,230.94118,76,116,40
230.94118,231.07753,70,116,40
231.07753,231.2139,64,116,40
231.2139,231.34457,58,116,40
231.35027,231.61731,58,116,40
237.8957,238.98662,64,116,40
238.98662,240.09773,66,116,40
240.09773,242.00157,68,116,40
242.00157,242.45612,69,116,40
242.45612,242.6834,67,116,40
242.6834,242.90593,69,116,40
242.91066,243.3652,64,116,40
243.3652,243.81975,62,116,40
243.81975,244.04703,69,116,40
244.04703,244.27429,65,116,40
244.27429,244.50157,72,116,40
244.50157,244.7241,76,116,40
244.72884,245.52429,74,116,40
245.63794,246.09248,77,116,40
246.09248,246.31975,76,116,40
246.31975,246.54228,81,116,40
246.54703,247.00157,79,116,40
247.00157,247.22884,77,116,40
247.22884,247.45139,76,116,40
247.45612,247.707,74,116,40
247.707,247.95763,81,116,40
247.96301,249.47723,84,116,40
249.6243,250.07884,84,116,40
250.07884,250.3061,81,116,40
250.3061,250.53339,84,116,40
250.53339,250.98793,76,116,40
250.98793,251.44247,74,116,40
251.44247,251.66974,79,116,40
251.66974,251.89702,72,116,40
251.89702,252.12428,72,116,40
252.12428,252.35156,76,116,40
252.35156,252.8061,69,116,40
252.8061,253.18489,67,116,40
253.26065,253.48793,67,116,40
253.48793,253.7152,71,116,40
253.7152,254.16974,64,116,40
254.16974,254.39702,67,116,40
254.39702,254.62428,71,116,40
254.62428,255.3061,64,116,40
255.3061,255.53337,61,116,40
255.53337,255.76065,62,116,40
255.76065,255.98793,64,116,40
255.98793,256.3667,66,116,40
256.897,257.35156,90,116,40
257.35156,257.8061,87,116,40
257.8061,258.26065,86,116,40
258.26065,258.63943,84,116,40
258.71518,259.16974,83,116,40
259.16974,259.397,81,116,40
259.397,259.62427,83,116,40
259.62427,259.85156,84,116,40
259.85156,260.07883,86,116,40
260.07883,260.4576,87,116,40
260.5334,261.44247,57,116,40
261.44247,262.35156,60,116,40
262.35156,263.26065,63,116,40
263.26065,264.16974,60,116,40
264.16974,264.62427,90,116,40
264.62427,265.07883,87,116,40
265.07883,265.53336,86,116,40
265.53336,265.91217,84,116,40
265.9879,266.44244,57,116,40
266.44244,266.897,59,116,40
266.897,267.8061,60,116,40
267.8061,268.26065,90,116,40
268.26065,268.71518,87,116,40
268.71518,269.16974,86,116,40
269.16974,269.54852,84,116,40
269.62427,270.10825,86,116,40
270.10825,270.61255,82,116,40
270.61255,271.139,81,116,40
271.139,271.59616,79,116,40
271.6896,272.14417,84,116,40
272.14417,272.5987,81,116,40
272.5987,273.05325,76,116,40
273.05325,273.50778,74,116,40
273.50778,273.73508,81,116,40
273.73508,273.96234,77,116,40
273.96234,274.1896,84,116,40
274.1896,274.41687,88,116,40
274.41687,275.21234,86,116,40
275.32596,275.78052,89,116,40
275.78052,276.00778,88,116,40
276.00778,276.23505,93,116,40
276.23505,276.6896,91,116,40
276.6896,276.91687,89,116,40
276.91687,277.14417,88,116,40
277.14417,277.5987,86,116,40
277.5987,277.82596,84,116,40
277.82596,278.0485,89,116,40
278.05325,278.50778,86,116,40
278.50778,278.73505,84,116,40
278.73505,278.9576,82,116,40
278.96234,280.21234,81,116,40
280.32596,280.70474,77,116,40
280.78052,282.03052,81,116,40
282.14413,282.52292,77,116,40
282.5987,283.8487,81,116,40
283.96234,284.34113,77,116,40
284.41687,285.0987,81,116,40
285.0987,285.32123,79,116,40
285.32596,286.00778,81,116,40
286.00778,286.23032,79,116,40
286.23505,286.4623,76,116,40
286.4623,286.6896,77,116,40
286.6896,286.91687,81,116,40
286.91687,287.1394,86,116,40
287.14413,287.82596,81,116,40
287.82596,288.0485,79,116,40
288.05322,288.73505,81,116,40
288.73505,288.95758,76,116,40
288.9623,289.1896,76,116,40
289.1896,289.41687,77,116,40
289.41687,289.64413,81,116,40
289.64413,289.86667,86,116,40
289.8714,290.32596,84,116,40
290.32596,290.55322,83,116,40
290.55322,290.7805,84,116,40
290.7805,291.23505,80,116,40
291.23505,291.61383,81,116,40
291.6896,291.7464,73,116,40
291.7464,291.7985,84,116,40
291.80322,291.91214,84,116,40
291.91687,292.02576,79,116,40
292.0305,292.1394,79,116,40
292.14413,292.25305,72,116,40
292.25778,292.36667,72,116,40
292.3714,292.48032,65,116,40
292.48505,292.59393,65,116,40
292.5987,292.7123,64,116,40
292.7123,292.82596,66,116,40
292.82596,292.93958,64,116,40
292.93958,293.0485,63,116,40
293.05322,293.16687,63,116,40
293.16687,293.2805,64,116,40
293.2805,293.39413,63,116,40
293.39413,293.50302,61,116,40
293.50778,293.61667,63,116,40
293.6214,293.73032,63,116,40
293.73505,293.84393,63,116,40
293.8487,293.95758,63,116,40
293.9623,294.07123,64,116,40
294.07596,294.18484,64,116,40
294.18958,294.2985,64,116,40
294.30322,294.41214,64,116,40
294.41687,294.5305,65,116,40
294.5305,294.64413,67,116,40
294.64413,294.75778,65,116,40
294.75778,294.86667,63,116,40
294.8714,294.98505,63,116,40
294.98505,295.0987,65,116,40
295.0987,295.2123,63,116,40
295.2123,295.32123,61,116,40
295.32596,295.43484,61,116,40
295.43958,295.5485,61,116,40
295.55322,295.66214,61,116,40
295.66687,295.77576,61,116,40
295.7805,295.8894,61,116,40
295.89413,296.00302,61,116,40
296.00778,296.11667,61,116,40
296.1214,296.23032,61,116,40
296.23505,296.45758,60,116,40
297.14413,298.05322,55,116,40
298.05322,298.84866,59,116,40
298.9623,299.07596,55,116,40
299.07596,299.18958,57,116,40
299.18958,299.30322,58,116,40
299.30322,299.4121,60,116,40
299.41687,299.5305,58,116,40
299.5305,299.64413,60,116,40
299.64413,299.75775,61,116,40
299.75775,299.86667,63,116,40
299.8714,299.98505,61,116,40
299.98505,300.09866,63,116,40
300.09866,300.2123,64,116,40
300.2123,300.3212,66,116,40
300.32596,300.43958,64,116,40
300.43958,300.55322,66,116,40
300.55322,300.66687,67,116,40
300.66687,300.77576,69,116,40
300.7805,301.68958,70,116,40
301.68958,302.48505,64,116,40
302.59866,302.7123,64,116,40
302.7123,302.82675,66,116,40
302.82675,302.94202,67,116,40
302.94202,303.05328,69,116,40
303.05814,303.1751,67,116,40
303.1751,303.2929,69,116,40
303.2929,303.4116,70,116,40
303.4116,303.52615,72,116,40
303.53116,303.6516,70,116,40
303.6516,303.77298,72,116,40
303.77298,303.89526,73,116,40
303.89526,304.01334,75,116,40
304.0185,304.14267,73,116,40
304.14267,304.26782,75,116,40
304.26782,304.39398,76,116,40
304.39398,304.5158,79,116,40
304.5211,305.0339,87,116,40
305.0339,305.2903,86,116,40
305.2903,305.54672,87,116,40
305.54672,306.05954,82,127,40
306.05954,306.4869,80,116,40
306.57236,306.82877,87,116,40
306.82877,307.08517,86,116,40
307.08517,307.3416,86,116,40
307.3416,307.59802,87,116,40
307.59802,308.11084,82,127,40
308.11084,308.53818,80,116,40
308.62366,309.14935,87,116,40
309.14935,309.40347,86,116,40
309.40347,309.65198,87,116,40
309.65198,310.05466,86,116,40
310.13348,310.28955,85,116,40
310.28955,310.44354,86,116,40
310.44354,310.59555,87,116,40
310.59555,311.03952,87,116,40
311.03952,311.25528,86,116,40
311.25528,311.46695,87,116,40
311.46695,311.81137,86,116,40
311.879,312.0131,85,116,40
312.0131,312.14566,86,116,40
312.14566,312.27673,87,116,40
312.27673,312.3701,88,116,40
312.37415,312.4675,89,116,40
312.47156,312.56488,88,116,40
312.56894,312.6623,83,116,40
312.66635,312.7597,83,116,40
313.05597,313.1493,80,116,40
313.15335,313.2467,83,116,40
313.25076,313.34412,80,116,40
313.34818,313.4415,77,116,40
313.44556,313.5389,77,116,40
313.83517,313.92853,71,116,40
313.9326,314.02594,73,116,40
314.03,314.12332,71,116,40
314.12738,314.22073,67,116,40
314.2248,314.31815,67,116,40
314.6144,314.70773,63,116,40
314.7118,314.80515,65,116,40
314.8092,314.90256,63,116,40
314.90662,314.99994,59,116,40
315.004,315.32867,67,116,40
315.39362,315.7183,70,116,40
316.56244,316.88712,67,116,40
316.95206,317.27673,70,116,40
318.12088,318.44556,67,116,40
318.5105,319.34546,70,116,40
319.34546,320.19183,65,116,40
320.3236,321.15695,72,116,40
324.13315,324.6093,72,127,40
324.6093,324.8474,70,116,40
324.8474,325.0855,72,116,40
325.0855,325.5617,67,116,40
325.5617,326.0379,70,116,40
326.0379,326.43472,72,127,40
327.94266,328.41885,84,116,40
328.41885,328.65695,82,116,40
328.65695,328.89505,84,116,40
328.89505,329.37122,79,116,40
329.37122,329.8474,82,116,40
329.8474,330.0863,84,116,40
330.0863,330.32474,82,116,40
330.32986,330.57825,82,116,40
330.57825,330.83163,84,116,40
330.83163,331.35626,79,116,40
331.35626,331.81125,82,116,40
331.90384,332.3584,84,116,40
332.3584,332.58566,82,116,40
332.58566,332.81293,84,116,40
332.81293,333.2675,79,116,40
333.2675,333.49475,77,116,40
333.49475,333.72202,79,116,40
333.72202,334.17657,72,116,40
334.17657,334.40384,70,116,40
334.40384,334.6311,72,116,40
334.6311,335.08566,67,116,40
335.08566,335.31293,65,116,40
335.31293,335.53546,67,116,40
335.5402,335.7675,62,116,40
343.39008,343.84464,81,116,40
343.84464,344.75372,88,116,40
344.75372,344.90524,86,116,40
344.90524,345.05676,88,116,40
345.05676,345.20825,89,116,40
345.20825,345.6628,88,116,40
345.6628,345.89008,86,116,40
345.89008,346.11734,84,116,40
346.11734,346.5719,82,116,40
346.5719,346.79916,84,116,40
346.79916,347.02643,86,116,40
347.02643,348.39008,88,116,40
348.39008,348.5416,86,116,40
348.5416,348.6931,88,116,40
348.6931,348.84464,89,116,40
348.84464,349.29916,88,116,40
349.29916,349.52643,86,116,40
349.52643,349.75372,84,116,40
349.75372,350.20825,82,116,40
350.20825,350.43552,84,116,40
350.43552,350.6628,86,116,40
350.6628,351.79443,86,116,40
351.79916,352.02643,82,116,40
352.02643,352.25372,84,116,40
352.25372,352.481,86,116,40
352.481,352.93552,86,116,40
352.93552,353.1628,82,116,40
353.1628,353.39008,81,116,40
353.39008,353.8446,77,116,40
353.8446,354.29916,79,116,40
354.29916,355.43552,81,116,40
355.43552,355.6628,77,116,40
355.6628,355.89008,79,116,40
355.89008,356.11734,81,116,40
356.11734,357.60306,81,116,40
357.60306,358.03964,76,116,40
358.12814,359.5567,79,116,40
359.5567,360.0329,77,116,40
360.0329,360.5091,72,116,40
360.5091,361.3424,69,116,40
361.46146,361.93765,67,116,40
361.93765,363.3662,79,116,40
363.3662,363.8424,77,116,40
363.8424,364.3186,72,116,40
364.3186,365.15192,69,116,40
365.27097,365.74716,67,116,40
365.74716,367.17575,79,116,40
367.17575,367.65192,77,116,40
367.65192,368.6043,79,116,40
368.6043,369.0805,77,116,40
369.0805,370.03287,79,116,40
370.03287,370.50906,65,116,40
370.50906,371.46146,67,116,40
371.46146,371.94208,65,116,40
371.94208,372.94238,67,116,40
372.94238,374.55252,68,116,40
374.55252,375.5609,69,116,40
375.70944,376.20944,70,116,40
376.20944,376.45944,68,116,40
376.45944,376.70422,70,116,40
376.70944,377.20944,65,116,40
377.20944,377.6261,68,116,40
377.70944,377.95944,70,116,40
377.95944,378.20422,68,116,40
378.20944,378.45944,68,116,40
378.45944,378.70422,70,116,40
378.70944,379.20944,65,116,40
379.20944,379.6261,68,116,40
379.70944,380.20944,70,116,40
380.20944,380.45944,68,116,40
380.45944,380.70422,65,116,40
380.70944,381.20944,68,116,40
381.20944,381.45944,70,116,40
381.45944,381.70422,73,116,40
381.70944,383.08444,75,116,40
383.20944,383.3761,73,116,40
383.3761,383.54276,75,116,40
383.54276,383.70422,77,116,40
383.70944,385.0922,75,116,40
385.21933,385.38882,73,116,40
385.38882,385.55832,75,116,40
385.55832,385.7225,77,116,40
385.72778,386.2392,75,116,40
386.2392,386.4978,73,116,40
386.4978,386.75104,71,116,40
386.75644,387.27368,73,116,40
387.27368,387.5323,75,116,40
387.5323,387.78998,77,116,40
387.79544,388.32178,78,116,40
388.32178,388.58493,76,116,40
388.58493,388.8426,73,116,40
388.84808,389.38068,76,116,40
389.38068,389.64853,78,116,40
389.64853,389.9108,81,116,40
389.91638,390.4521,85,116,40
390.4521,390.7232,83,116,40
390.7232,390.99023,81,116,40
390.9959,391.54138,83,116,40
391.54138,391.81412,85,116,40
391.81412,392.08115,89,116,40
392.08682,392.739,91,116,40
392.739,393.0651,89,116,40
393.0651,393.39148,91,116,40
393.39844,394.0651,84,116,40
394.0651,394.63327,82,116,40
394.74692,395.08783,91,116,40
395.08783,395.42938,89,116,40
395.43665,395.7855,89,116,40
395.7855,396.12708,91,116,40
396.13434,396.8486,84,116,40
396.8486,397.44965,82,116,40
397.5716,399.0533,91,116,40
399.0533,399.81293,89,116,40
399.81293,400.45395,81,116,40
400.58215,402.1611,81,127,40
402.1611,402.9506,79,116,40
402.9506,403.60846,81,116,40
403.74005,410.64005,84,116,40
92.04888,92.427666,69,116,45
92.04888,92.427666,76,116,45
92.503426,92.88221,69,116,45
92.503426,92.88221,81,116,45
93.86706,94.24585,69,116,45
93.86706,94.24585,76,116,45
94.3216,94.70039,69,116,45
94.3216,94.70039,81,116,45
95.68524,96.064026,69,116,45
95.68524,96.064026,81,116,45
96.59433,96.973114,69,116,45
96.59433,96.973114,81,116,45
97.53609,97.9658,69,116,45
234.62299,234.69116,58,116,45
234.62299,234.69116,64,116,45
234.69116,235.16275,70,116,45
234.69116,235.16275,76,116,45
236.25935,236.7139,58,116,45
236.25935,236.7139,64,116,45
335.99475,336.37354,69,116,45
335.99475,336.37354,76,116,45
336.4493,336.8281,69,116,45
336.4493,336.8281,81,116,45
337.81293,338.1917,69,116,45
337.81293,338.1917,76,116,45
338.2675,338.64627,69,116,45
338.2675,338.64627,81,116,45
339.6311,340.0099,69,116,45
339.6311,340.0099,81,116,45
340.5402,340.91898,69,116,45
340.5402,340.91898,81,116,45
341.4919,341.92404,69,116,45
0.0,0.454545,57,116,40
0.454545,0.90909,58,116,40
0.90909,1.363635,60,116,40
1.363635,1.81818,62,116,40
1.81818,2.272725,64,116,40
2.272725,2.72727,65,116,40
2.72727,3.181815,67,116,40
3.181815,3.63636,69,116,40
3.63636,4.090905,70,116,40
4.090905,4.54545,72,116,40
4.54545,4.999995,74,116,40
4.999995,5.45454,76,116,40
5.45454,5.9718194,77,116,40
5.9718194,6.3668103,79,116,40
6.507576,6.782805,74,127,40
6.782805,6.9171505,81,116,40
7.0631785,7.543067,79,116,40
7.6401544,8.0947,77,116,40
8.0947,8.549245,75,116,40
8.549245,9.00379,72,116,40
9.00379,9.458335,70,116,40
9.458335,9.91288,68,116,40
9.91288,10.367425,67,116,40
10.367425,10.821969,65,116,40
10.821969,11.200757,61,116,40
11.276514,11.731059,62,116,40
11.731059,12.185604,60,116,40
12.185604,12.640149,63,116,40
12.640149,13.094694,60,116,40
13.094694,13.549239,58,116,40
13.549239,14.003784,56,116,40
14.003784,14.799238,58,116,40
14.912874,15.367419,57,116,40
15.367419,15.821964,59,116,40
15.821964,16.27651,60,116,40
16.27651,16.731054,62,116,40
16.731054,17.640144,60,116,40
17.640144,18.09469,59,116,40
18.09469,18.549234,65,116,40
18.549234,19.00378,86,116,40
19.00378,19.458324,81,116,40
19.458324,19.91287,79,116,40
19.91287,20.367414,77,116,40
20.367414,20.82196,76,116,40
20.82196,21.049232,74,116,40
21.049232,21.276505,76,116,40
21.276505,21.503777,77,116,40
21.503777,21.731049,79,116,40
21.731049,22.185595,81,116,40
22.185595,22.640139,57,116,40
22.640139,23.094685,59,116,40
23.094685,23.549229,60,116,40
23.549229,24.003775,62,116,40
24.003775,24.458319,86,116,40
24.458319,24.912865,81,116,40
24.912865,25.367409,79,116,40
25.367409,25.746197,77,116,40
25.821955,26.276499,57,116,40
26.276499,26.731045,59,116,40
26.731045,27.185589,60,116,40
27.185589,27.640135,62,116,40
27.640135,28.10539,86,116,40
28.10539,28.601427,81,116,40
28.601427,29.132608,79,116,40
29.132608,29.606256,77,116,40
29.704296,30.15884,72,116,40
30.15884,30.613386,69,116,40
30.613386,31.06793,64,116,40
30.613386,31.40884,69,116,40
31.06793,31.522476,62,127,40
31.522476,31.97702,64,116,40
31.522476,31.97702,69,116,40
31.97702,32.431564,65,116,40
32.431564,32.886112,67,116,40
32.886112,33.264896,69,116,40
33.340656,33.7952,70,116,40
33.7952,34.249744,72,116,40
34.249744,34.704292,74,116,40
34.704292,35.083076,76,116,40
35.158836,35.61338,77,116,40
35.61338,36.067924,79,116,40
36.067924,36.522472,81,116,40
36.522472,36.901257,76,116,40
37.43156,37.886105,71,127,40
37.886105,38.68156,73,116,40
39.24974,39.704285,71,127,40
39.704285,40.49974,73,116,40
41.06792,41.522465,71,127,40
41.522465,42.31792,73,116,40
42.431557,42.545193,61,116,40
42.545193,42.65883,63,116,40
42.65883,42.772465,64,116,40
42.772465,42.8861,66,116,40
42.8861,42.999737,64,116,40
42.999737,43.113373,66,116,40
43.113373,43.22701,67,116,40
43.22701,43.340645,69,116,40
43.340645,43.45428,67,116,40
43.45428,43.567917,69,116,40
43.567917,43.681553,70,116,40
43.681553,43.79519,72,116,40
43.79519,43.908825,70,116,40
43.908825,44.022465,72,116,40
44.022465,44.1361,73,116,40
44.1361,44.249737,75,116,40
44.249737,44.363373,74,116,40
44.363373,44.47701,76,116,40
44.47701,44.590645,74,116,40
44.590645,44.70428,69,116,40
44.70428,44.817917,62,116,40
44.817917,44.931553,64,116,40
44.931553,45.04519,62,116,40
45.04519,45.15409,57,116,40
45.158825,45.27246,61,116,40
45.27246,45.386097,63,116,40
45.386097,45.499733,64,116,40
45.499733,45.61337,66,116,40
45.61337,45.727005,64,116,40
45.727005,45.840645,66,116,40
45.840645,45.95428,67,116,40
45.95428,46.067917,69,116,40
46.067917,46.181553,67,116,40
46.181553,46.29519,69,116,40
46.29519,46.408825,70,116,40
46.408825,46.52246,72,116,40
46.52246,46.636097,70,116,40
46.636097,46.749733,72,116,40
46.749733,46.86337,73,116,40
46.86337,46.977005,75,116,40
46.977005,47.09064,74,116,40
47.09064,47.204277,76,116,40
47.204277,47.317913,74,116,40
47.317913,47.43155,69,116,40
47.43155,47.545185,62,116,40
47.545185,47.65882,64,116,40
47.65882,47.77246,62,116,40
47.77246,47.88136,57,116,40
47.886097,47.999733,65,116,40
47.999733,48.11337,67,116,40
48.11337,48.227005,65,116,40
48.227005,48.34064,67,116,40
48.34064,48.454277,68,116,40
48.454277,48.567913,72,116,40
48.567913,48.68155,68,116,40
48.68155,48.795185,72,116,40
48.795185,48.90882,68,116,40
48.90882,49.022457,69,116,40
49.022457,49.136093,71,116,40
49.136093,49.24973,72,116,40
49.24973,49.363365,71,116,40
49.363365,49.477,72,116,40
49.477,49.59064,74,116,40
49.59064,49.704277,75,116,40
49.704277,49.817913,78,116,40
49.817913,49.93155,80,116,40
49.93155,50.045185,78,116,40
50.045185,50.15882,76,116,40
50.15882,50.272457,76,116,40
50.272457,50.386093,78,116,40
50.386093,50.49973,76,116,40
50.49973,50.60863,74,116,40
50.613365,50.722267,62,116,40
50.613365,50.722267,74,116,40
50.727,50.835903,62,116,40
50.727,50.835903,74,116,40
50.840637,50.94954,62,116,40
50.954273,51.063175,62,116,40
51.06791,51.17681,56,116,40
51.06791,51.17681,62,116,40
51.181545,51.290447,56,116,40
51.181545,51.290447,62,116,40
51.29518,51.404083,56,116,40
51.40882,51.51772,56,116,40
51.522457,51.636093,60,116,40
51.636093,51.74973,62,116,40
51.74973,51.863365,60,116,40
51.863365,51.972267,59,116,40
51.977,52.090637,59,116,40
52.090637,52.204273,60,116,40
52.204273,52.31791,59,116,40
52.31791,52.42681,57,116,40
52.431545,53.11336,60,116,40
53.11336,53.3359,59,116,40
53.340637,54.022453,60,116,40
54.022453,54.24499,56,116,40
54.249725,54.499725,56,116,40
54.499725,54.749725,57,116,40
54.749725,54.999725,60,116,40
54.999725,55.24452,65,116,40
55.249725,55.70427,64,116,40
55.70427,55.93154,62,116,40
55.93154,56.15408,64,116,40
56.158817,56.61336,59,116,40
56.61336,56.764877,57,116,40
56.764877,56.91639,62,116,40
56.91639,57.06317,64,116,40
57.067905,57.446693,64,116,40
58.886086,59.34063,76,116,40
59.34063,59.5679,74,116,40
59.5679,59.795174,76,116,40
59.795174,60.24972,71,116,40
60.24972,60.401234,69,116,40
60.401234,60.55275,72,116,40
60.55275,60.704266,74,116,40
60.704266,61.120934,76,116,40
62.721214,63.755695,64,116,40
62.721214,63.755695,76,116,40
63.755695,64.660866,64,116,40
63.755695,64.660866,73,116,40
64.79018,65.82466,64,116,40
64.79018,65.82466,76,116,40
65.82466,66.72983,64,116,40
65.82466,66.72983,73,116,40
66.85914,66.91841,76,116,40
66.9238,66.98306,76,116,40
66.98845,67.04772,76,116,40
67.05311,67.11173,76,116,40
67.117035,67.17529,76,116,40
67.18059,67.23885,76,116,40
67.24415,67.30219,76,116,40
67.3074,67.36469,76,116,40
67.3699,67.42719,78,116,40
67.4324,67.48969,78,116,40
67.4949,67.55134,78,116,40
67.55646,67.612816,78,116,40
67.617935,67.674286,78,116,40
67.67941,67.73531,78,116,40
67.74035,67.79579,78,116,40
67.800835,67.85628,78,116,40
67.86132,67.91668,79,116,40
67.92164,67.976204,79,116,40
67.98116,68.03573,79,116,40
68.04069,68.09525,79,116,40
68.10021,68.15411,79,116,40
68.159,68.21271,79,116,40
68.21759,68.2713,79,116,40
68.276184,68.32956,79,116,40
68.334366,68.38725,78,116,40
68.39206,68.44495,78,116,40
68.44975,68.50264,78,116,40
68.50737,68.559456,78,116,40
68.56419,68.61627,78,116,40
68.62101,68.67309,78,116,40
68.677826,68.72938,78,116,40
68.73405,68.78535,78,116,40
68.790016,68.84132,82,116,40
68.845985,68.89709,82,116,40
68.90168,68.95223,82,116,40
68.956825,69.00738,82,116,40
69.01197,69.06252,82,116,40
69.06712,69.116974,82,116,40
69.1215,69.17132,82,116,40
69.17585,69.22567,82,116,40
69.230194,69.279625,81,116,40
69.284096,69.3332,81,116,40
69.33766,69.38677,81,116,40
69.391235,69.440216,81,116,40
69.44462,69.493034,81,116,40
69.49744,69.54585,81,116,40
69.550255,69.59866,81,116,40
69.603065,69.6509,81,116,40
69.65524,69.70299,80,116,40
69.70733,69.755066,80,116,40
69.75941,69.806854,80,116,40
69.811134,69.85822,80,116,40
69.8625,69.90959,80,116,40
69.91388,69.96094,80,116,40
69.96516,70.01161,80,116,40
70.01583,70.06229,80,116,40
70.06651,70.11296,79,116,40
70.11719,70.163185,79,116,40
70.16735,70.21319,79,116,40
70.217354,70.26319,79,116,40
70.26736,70.312996,79,116,40
70.31711,70.362335,79,116,40
70.36645,70.41168,79,116,40
70.415794,70.46102,79,116,40
70.46513,70.78981,67,116,40
70.46513,70.78981,76,116,40
70.46513,70.78981,83,116,40
70.854744,70.94809,83,116,40
70.95215,71.045494,85,116,40
71.049545,71.14289,83,116,40
71.14695,71.240295,79,116,40
71.244354,71.3377,79,116,40
71.633965,71.72731,76,116,40
71.73137,71.82471,78,116,40
71.828766,71.92211,76,116,40
71.92617,72.019516,71,116,40
72.023575,72.11692,71,116,40
72.413185,72.50653,67,116,40
72.51059,72.60393,71,116,40
72.60799,72.70133,67,116,40
72.70539,72.79874,64,116,40
72.802795,72.89614,64,116,40
73.192406,73.2898,59,116,40
73.2898,73.38721,61,116,40
73.38721,73.48461,59,116,40
73.48461,73.57796,61,116,40
73.582016,73.67941,62,116,40
73.67941,73.77682,64,116,40
73.77682,73.87422,62,116,40
73.87422,73.97163,64,116,40
73.97163,74.06902,62,116,40
74.06902,74.16643,64,116,40
74.16643,74.26383,62,116,40
74.26383,74.36124,64,116,40
74.36124,74.45863,62,116,40
74.45863,74.55604,64,116,40
74.55604,74.65344,62,116,40
74.65344,74.74679,61,116,40
74.75085,74.84824,59,116,40
74.84824,74.94565,61,116,40
74.94565,75.04305,59,116,40
75.04305,75.1364,61,116,40
75.14046,75.237854,62,116,40
75.237854,75.33526,64,116,40
75.33526,75.43266,62,116,40
75.43266,75.53007,64,116,40
75.53007,75.627464,62,116,40
75.627464,75.72487,64,116,40
75.72487,75.82227,62,116,40
75.82227,75.91967,64,116,40
75.91967,76.017075,62,116,40
76.017075,76.11448,64,116,40
76.11448,76.21188,62,116,40
76.21188,76.30522,61,116,40
76.30928,76.406685,59,116,40
76.406685,76.50409,61,116,40
76.50409,76.601494,59,116,40
76.601494,76.69889,61,116,40
76.69889,77.734085,62,116,40
77.734085,78.86707,58,116,40
78.86707,79.66253,61,116,40
82.50343,82.95798,61,116,40
82.95798,83.41252,58,116,40
83.41252,83.867065,56,116,40
83.867065,84.32162,58,116,40
84.32162,84.7004,61,116,40
86.13979,86.59434,73,116,40
86.59434,87.04888,70,116,40
87.04888,87.503426,68,116,40
87.503426,87.95798,70,116,40
87.95798,88.41252,73,116,40
88.41252,88.867065,70,116,40
88.867065,89.32161,68,116,40
89.32161,89.77615,70,116,40
89.77615,89.97028,73,116,40
90.003426,90.197556,69,116,40
90.2307,90.42483,69,116,40
90.45797,90.6521,69,116,40
90.68524,90.87937,69,116,40
90.91251,91.10664,69,116,40
91.139786,91.291306,67,127,40
91.291306,91.44282,69,116,40
91.44282,91.5896,70,116,40
91.59434,91.78846,69,116,40
91.82161,92.01573,69,116,40
92.04888,92.243004,69,116,40
92.27615,92.47028,69,116,40
92.503426,92.697556,69,116,40
92.7307,92.92483,69,116,40
92.95797,93.10948,67,127,40
93.10948,93.261,69,116,40
93.261,93.407776,70,116,40
93.41251,93.5735,69,116,40
93.639786,93.80077,69,116,40
93.86706,94.028046,69,116,40
94.09433,94.28846,69,116,40
94.3216,94.51573,69,116,40
94.548874,94.743004,69,116,40
94.776146,94.927666,67,116,40
94.927666,95.07918,69,116,40
95.07918,95.22596,70,116,40
95.23069,95.39168,69,116,40
95.45797,95.61895,69,116,40
95.68524,95.84622,69,116,40
95.91251,96.106636,69,116,40
96.139786,96.333916,69,116,40
96.36706,96.56119,69,116,40
96.59433,96.78846,69,116,40
96.8216,97.01573,69,116,40
97.048874,97.25349,69,116,40
97.288765,97.499626,69,116,40
97.53609,97.721214,69,116,40
97.53609,97.721214,69,116,40
97.79125,97.98225,69,116,40
97.79125,97.98225,69,116,40
98.05479,98.25238,69,116,40
98.05479,98.25238,69,116,40
98.3273,98.53192,69,116,40
98.3273,98.53192,69,116,40
98.60931,98.82153,69,116,40
98.60931,98.82153,69,116,40
98.90162,99.122025,69,116,40
98.90162,99.122025,69,116,40
99.20493,99.32398,69,116,40
99.32398,99.44302,65,116,40
99.44302,99.56207,69,116,40
99.56207,99.68112,65,116,40
99.68112,99.80017,69,116,40
99.80017,99.91922,65,116,40
99.91922,100.03826,69,116,40
100.03826,100.15235,65,116,40
100.15731,100.27636,69,116,40
100.27636,100.39541,65,116,40
100.39541,100.51446,69,116,40
100.51446,100.6335,65,116,40
100.6335,100.75255,69,116,40
100.75255,100.8716,65,116,40
100.8716,100.99065,69,116,40
100.99065,101.10473,65,116,40
101.10969,101.22874,69,116,40
101.22874,101.347786,65,116,40
101.347786,101.466835,69,116,40
101.466835,101.585884,65,116,40
101.585884,101.704926,69,116,40
101.704926,101.823975,65,116,40
101.823975,101.94302,69,116,40
101.94302,102.06207,65,116,40
102.06207,102.18112,69,116,40
102.18112,102.30016,65,116,40
102.30016,102.41921,69,116,40
102.41921,102.5333,65,116,40
102.53826,102.65731,67,116,40
102.65731,102.77636,64,116,40
102.77636,102.8954,67,116,40
102.8954,103.00949,64,116,40
103.01445,103.1335,69,116,40
103.1335,103.25255,65,116,40
103.25255,103.3716,69,116,40
103.3716,103.49064,65,116,40
103.49064,103.60969,69,116,40
103.60969,103.72874,65,116,40
103.72874,103.847786,69,116,40
103.847786,103.96187,65,116,40
103.966835,104.08588,69,116,40
104.08588,104.204926,65,116,40
104.204926,104.323975,69,116,40
104.323975,104.44302,65,116,40
104.44302,104.562065,69,116,40
104.562065,104.681114,65,116,40
104.681114,104.80016,69,116,40
104.80016,104.91425,65,116,40
104.91921,105.03826,69,116,40
105.03826,105.1573,65,116,40
105.1573,105.27635,69,116,40
105.27635,105.3954,65,116,40
105.3954,105.51445,69,116,40
105.51445,105.6335,65,116,40
105.6335,105.75254,69,116,40
105.75254,105.87159,65,116,40
105.87159,105.99064,69,116,40
105.99064,106.10969,65,116,40
106.10969,106.22874,69,116,40
106.22874,106.34282,65,116,40
106.34778,106.46683,67,116,40
106.46683,106.58588,64,116,40
106.58588,106.704926,67,116,40
106.704926,106.81901,64,116,40
106.823975,106.943016,67,116,40
106.943016,107.062065,63,116,40
107.062065,107.181114,67,116,40
107.181114,107.30016,63,116,40
107.30016,107.41921,67,116,40
107.41921,107.53825,63,116,40
107.53825,107.6573,67,116,40
107.6573,107.77139,63,116,40
107.77635,107.8954,67,116,40
107.8954,108.01445,63,116,40
108.01445,108.13349,67,116,40
108.13349,108.25254,63,116,40
108.25254,108.37159,67,116,40
108.37159,108.49064,63,116,40
108.49064,108.60968,67,116,40
108.60968,108.72377,63,116,40
108.72873,108.84778,67,116,40
108.84778,108.96683,63,116,40
108.96683,109.08588,67,116,40
109.08588,109.20492,63,116,40
109.20492,109.32397,67,116,40
109.32397,109.443016,63,116,40
109.443016,109.562065,67,116,40
109.562065,109.67615,63,116,40
109.681114,109.800156,69,116,40
109.800156,109.919205,63,116,40
109.919205,110.03825,69,116,40
110.03825,110.1573,63,116,40
110.1573,110.27635,69,116,40
110.27635,110.39539,63,116,40
110.39539,110.51444,69,116,40
110.51444,110.62853,63,116,40
110.63349,110.75254,59,116,40
110.75254,110.87159,65,116,40
110.87159,110.99063,69,116,40
110.99063,111.10472,77,116,40
111.10968,111.22873,77,116,40
111.22873,111.34778,69,116,40
111.34778,111.46683,65,116,40
111.46683,111.58091,59,116,40
111.58587,111.70492,59,116,40
111.70492,111.82397,65,116,40
111.82397,111.943016,69,116,40
111.943016,112.0571,77,116,40
112.062065,112.18111,77,116,40
112.18111,112.300156,69,116,40
112.300156,112.419205,65,116,40
112.419205,112.533295,59,116,40
112.53825,112.657295,61,116,40
112.657295,112.776344,67,116,40
112.776344,112.89539,69,116,40
112.89539,113.00948,77,116,40
113.01444,113.13349,77,116,40
113.13349,113.25253,69,116,40
113.25253,113.37158,67,116,40
113.37158,113.48567,61,116,40
113.49063,113.60968,61,116,40
113.60968,113.72873,67,116,40
113.72873,113.84777,69,116,40
113.84777,113.96186,77,116,40
113.96682,114.08587,77,116,40
114.08587,114.20492,69,116,40
114.20492,114.32397,67,116,40
114.32397,114.43805,61,116,40
114.44301,114.919205,57,116,40
114.919205,115.87158,64,116,40
115.87158,116.03031,62,116,40
116.03031,116.18904,64,116,40
116.18904,116.34777,65,116,40
116.34777,116.82396,64,116,40
116.82396,117.06206,62,116,40
117.06206,117.30015,60,116,40
117.30015,117.776344,58,116,40
117.776344,118.014435,60,116,40
118.014435,118.25253,62,116,40
118.25253,119.6811,64,116,40
119.6811,119.83983,62,116,40
119.83983,119.99856,64,116,40
119.99856,120.15233,65,116,40
120.15729,120.633484,64,116,40
120.633484,120.871574,62,116,40
120.871574,121.10967,60,116,40
121.10967,121.58586,58,116,40
121.58586,121.82396,60,116,40
121.82396,122.06205,62,116,40
122.06205,123.371574,64,116,40
123.49062,123.64935,62,116,40
123.64935,123.80808,64,116,40
123.80808,123.96185,65,116,40
123.96681,125.27634,64,116,40
125.39538,125.58406,62,127,40
125.58406,125.772736,64,127,40
125.772736,125.95552,65,127,40
125.96142,127.33642,62,116,40
127.46142,127.96142,60,116,40
127.96142,129.33643,62,116,40
129.46143,129.96143,60,116,40
129.96143,131.33643,62,116,40
131.46143,131.96143,60,116,40
131.96143,132.46143,62,116,40
132.46143,132.71143,60,116,40
132.71143,132.9562,62,116,40
132.96143,133.46143,57,116,40
133.46143,133.87808,60,116,40
133.96143,134.21143,62,116,40
134.21143,134.46143,58,116,40
134.46143,134.71143,65,116,40
134.71143,134.9562,69,116,40
134.96143,135.46143,67,116,40
135.46143,135.71143,65,116,40
135.71143,135.9562,62,116,40
135.96143,137.46143,60,127,40
137.46143,137.62808,58,116,40
137.62808,137.79475,60,116,40
137.79475,137.9562,62,116,40
137.96143,139.4699,60,127,40
139.4699,139.63939,58,116,40
139.63939,139.80887,60,116,40
139.80887,139.97836,62,116,40
139.97836,141.01285,60,116,40
141.01285,141.53917,62,116,40
141.53917,141.97775,60,116,40
142.06548,143.44048,58,116,40
142.06548,143.44048,70,116,40
143.56548,144.06548,56,116,40
143.56548,144.06548,68,116,40
144.06548,145.44684,58,116,40
144.06548,145.44684,70,116,40
145.57396,146.08243,56,116,40
145.57396,146.08243,68,116,40
146.08243,146.9876,58,116,40
146.08243,146.9876,70,116,40
147.11691,147.64322,56,116,40
147.11691,147.64322,68,116,40
147.64322,148.08182,58,116,40
147.64322,148.08182,70,116,40
148.16954,149.66954,62,116,40
149.66954,149.83621,61,116,40
149.83621,150.00287,62,116,40
150.00287,150.16954,64,116,40
150.16954,151.66954,62,116,40
151.66954,151.83621,61,116,40
151.83621,152.00287,62,116,40
152.00287,152.16954,64,116,40
152.16954,153.67801,62,116,40
153.67801,153.8475,61,116,40
153.8475,154.017,62,116,40
154.017,154.1865,64,116,40
154.1865,156.14201,62,116,40
156.2736,156.3825,57,116,40
156.38724,156.49614,57,116,40
156.50087,156.60977,60,116,40
156.6145,156.7234,60,116,40
156.72815,156.83705,62,116,40
156.84178,156.95068,62,116,40
156.95541,157.06432,65,116,40
157.06905,157.17795,65,116,40
157.1827,157.2916,62,116,40
157.29633,157.40523,62,116,40
157.40996,157.51886,65,116,40
157.52359,157.63249,65,116,40
157.63724,157.74614,69,116,40
157.75087,157.85977,69,116,40
157.8645,157.9734,72,116,40
157.97815,158.08704,72,116,40
158.09178,158.20541,62,116,40
158.20541,158.31432,65,116,40
158.31905,158.4327,65,116,40
158.4327,158.5416,69,116,40
158.54633,158.65996,69,116,40
158.65996,158.76886,72,116,40
158.77359,158.88724,72,116,40
158.88724,158.99614,74,116,40
159.00087,159.10977,77,116,40
159.1145,159.2234,77,116,40
159.22813,159.33704,74,116,40
159.34178,159.45068,74,116,40
159.45541,159.56432,72,116,40
159.56905,159.67795,72,116,40
159.6827,159.79158,74,116,40
159.79633,159.90523,74,116,40
159.90996,160.01886,77,116,40
160.02359,160.13249,77,116,40
160.13724,160.24614,74,116,40
160.25087,160.35977,74,116,40
160.3645,160.4734,72,116,40
160.47813,160.58704,72,116,40
160.59178,160.70068,74,116,40
160.70541,160.81432,74,116,40
160.81905,160.92795,77,116,40
160.93268,161.04158,77,116,40
161.04633,161.15523,74,116,40
161.15996,161.26886,74,116,40
161.27359,161.38249,72,116,40
161.38722,161.49612,72,116,40
161.50087,161.60977,74,116,40
161.6145,161.7234,74,116,40
161.72813,161.83704,77,116,40
161.84178,161.95068,77,116,40
161.95541,162.06432,74,116,40
162.06905,162.17795,74,116,40
162.18268,162.29158,72,116,40
162.29633,162.40523,72,116,40
162.40996,162.51886,74,116,40
162.52359,162.63249,74,116,40
162.63722,162.74612,77,116,40
162.75087,162.85977,77,116,40
162.8645,162.9734,74,116,40
162.97813,163.08704,74,116,40
163.09177,163.20067,72,116,40
163.20541,163.31432,72,116,40
163.31905,163.42795,74,116,40
163.43268,163.54158,74,116,40
163.54633,163.65521,77,116,40
163.65996,163.76886,77,116,40
163.77359,163.88249,74,116,40
163.88722,163.99612,74,116,40
164.00087,164.10977,72,116,40
164.1145,164.2234,72,116,40
164.22813,164.33704,74,116,40
164.34177,164.45067,74,116,40
164.45541,164.56432,72,116,40
164.56905,164.67795,72,116,40
164.68268,164.79158,69,116,40
164.79631,164.90521,69,116,40
164.90996,165.01886,65,116,40
165.02359,165.13249,65,116,40
165.13722,165.24612,69,116,40
165.25087,165.35976,69,116,40
165.3645,165.4734,65,116,40
165.47813,165.58704,65,116,40
165.59177,165.70067,62,116,40
165.70541,165.81432,62,116,40
165.81905,165.92795,60,116,40
165.93268,166.04158,60,116,40
166.04631,166.15521,62,116,40
166.15996,166.26886,62,116,40
166.27359,166.38249,60,116,40
166.38722,166.49612,60,116,40
166.50085,166.60976,62,116,40
166.6145,166.7234,62,116,40
166.72813,166.83704,60,116,40
166.84177,166.95067,60,116,40
166.9554,167.0643,57,116,40
167.06905,167.17795,57,116,40
167.18268,167.29158,60,116,40
167.29631,167.40521,60,116,40
167.40996,167.51886,62,116,40
167.52359,167.63249,62,116,40
167.63722,167.74612,60,116,40
167.75085,167.85976,60,116,40
167.8645,167.9734,57,116,40
167.97813,168.08704,57,116,40
168.09177,168.20067,60,116,40
168.2054,168.3143,60,116,40
168.31905,168.42795,62,116,40
168.43268,168.54158,62,116,40
168.54631,168.65521,60,116,40
168.65994,168.76884,60,116,40
168.77359,168.88249,57,116,40
168.88722,168.99612,57,116,40
169.00085,169.1145,56,116,40
169.1145,169.22813,58,116,40
169.22813,169.34177,59,116,40
169.34177,169.4554,61,116,40
169.4554,169.56905,59,116,40
169.56905,169.68268,61,116,40
169.68268,169.79631,63,116,40
169.79631,169.90994,65,116,40
169.90994,170.02359,63,116,40
170.02359,170.13722,65,116,40
170.13722,170.25085,67,116,40
170.25085,170.36449,68,116,40
170.36449,170.47813,67,116,40
170.47813,170.59177,68,116,40
170.59177,170.7054,70,116,40
170.7054,170.81903,71,116,40
170.81903,170.93268,67,116,40
170.93268,171.04631,68,116,40
171.04631,171.15994,70,116,40
171.15994,171.27359,71,116,40
171.27359,171.38722,70,116,40
171.38722,171.50085,71,116,40
171.50085,171.61449,73,116,40
171.61449,171.72339,75,116,40
171.72813,171.83704,77,116,40
171.84177,171.95067,77,116,40
171.9554,172.0643,75,116,40
172.06903,172.17793,75,116,40
172.18268,172.29158,71,116,40
172.29631,172.40521,71,116,40
172.40994,172.51884,75,116,40
172.52357,172.63248,75,116,40
172.63722,172.74612,77,116,40
172.75085,172.85976,77,116,40
172.86449,172.97339,75,116,40
172.97813,173.08704,75,116,40
173.09177,173.20067,71,116,40
173.2054,173.3143,71,116,40
173.31903,173.42793,75,116,40
173.43268,173.54158,75,116,40
173.54631,173.65521,77,116,40
173.65994,173.76884,77,116,40
173.77357,173.88248,75,116,40
173.88722,173.99612,75,116,40
174.00085,174.10976,71,116,40
174.11449,174.22339,71,116,40
174.22812,174.33702,75,116,40
174.34177,174.45067,75,116,40
174.4554,174.5643,77,116,40
174.56903,174.67793,77,116,40
174.68268,174.79156,75,116,40
174.79631,174.90521,75,116,40
174.90994,175.01884,71,116,40
175.02357,175.13248,71,116,40
175.13722,175.24612,75,116,40
175.25085,175.35976,75,116,40
175.36449,175.47339,77,116,40
175.47812,175.58702,77,116,40
175.59177,175.70067,75,116,40
175.7054,175.8143,75,116,40
175.81903,175.92793,71,116,40
175.93266,176.04156,71,116,40
176.04631,176.15521,75,116,40
176.15994,176.26884,75,116,40
176.27357,176.38248,77,116,40
176.3872,176.49611,77,116,40
176.50085,176.60976,75,116,40
176.61449,176.72339,75,116,40
176.72812,176.83702,71,116,40
176.84177,176.95067,71,116,40
176.9554,177.0643,75,116,40
177.06903,177.17793,75,116,40
177.18266,177.29156,77,116,40
177.29631,177.40521,77,116,40
177.40994,177.51884,75,116,40
177.52357,177.63248,75,116,40
177.6372,177.74611,71,116,40
177.75085,177.85976,71,116,40
177.86449,177.97339,75,116,40
177.97812,178.08702,75,116,40
178.09175,178.20065,77,116,40
178.2054,178.3143,77,116,40
178.31903,178.42793,75,116,40
178.43266,178.54156,75,116,40
178.54631,178.65521,71,116,40
178.65994,178.76884,71,116,40
178.77357,178.88248,68,116,40
178.8872,178.99611,68,116,40
179.00085,179.10976,65,116,40
179.11449,179.22339,65,116,40
179.22812,179.33702,68,116,40
179.34175,179.45065,68,116,40
179.4554,179.5643,65,116,40
179.56903,179.67793,65,116,40
179.68266,179.79156,63,116,40
179.7963,179.9052,63,116,40
179.90994,180.01884,63,116,40
180.02357,180.13248,63,116,40
180.1372,180.24611,65,116,40
180.25085,180.35974,65,116,40
180.36449,180.47339,63,116,40
180.47812,180.58702,63,116,40
180.59175,180.70065,59,116,40
180.7054,180.8143,59,116,40
180.81903,180.92793,63,116,40
180.93266,181.04156,63,116,40
181.0463,181.1552,65,116,40
181.15994,181.26884,65,116,40
181.27357,181.38248,63,116,40
181.3872,181.49611,63,116,40
181.50084,181.60974,59,116,40
181.61449,181.72339,59,116,40
181.72812,181.84175,57,116,40
181.84175,181.95538,60,116,40
181.95538,182.06903,57,116,40
182.06903,182.17793,60,116,40
182.18266,182.2963,59,116,40
182.2963,182.40994,63,116,40
182.40994,182.52357,59,116,40
182.52357,182.63248,63,116,40
182.6372,182.75084,57,116,40
182.75084,182.86449,60,116,40
182.86449,182.97812,57,116,40
182.97812,183.08702,60,116,40
183.09175,183.20538,59,116,40
183.20538,183.31903,63,116,40
183.31903,183.43266,59,116,40
183.43266,183.54156,63,116,40
183.5463,183.65993,57,116,40
183.65993,183.77357,60,116,40
183.77357,183.8872,57,116,40
183.8872,184.00084,60,116,40
184.00084,184.11449,59,116,40
184.11449,184.22812,63,116,40
184.22812,184.34175,59,116,40
184.34175,184.45538,63,116,40
184.45538,184.56903,57,116,40
184.56903,184.68266,60,116,40
184.68266,184.7963,57,116,40
184.7963,184.90993,60,116,40
184.90993,185.02357,59,116,40
185.02357,185.1372,63,116,40
185.1372,185.25084,59,116,40
185.25084,185.35974,63,116,40
185.36447,185.47812,57,116,40
185.47812,185.59175,60,116,40
185.59175,185.70538,57,116,40
185.70538,185.81429,60,116,40
185.81903,185.93266,59,116,40
185.93266,186.0463,63,116,40
186.0463,186.15993,59,116,40
186.15993,186.26883,63,116,40
186.27357,186.3872,57,116,40
186.3872,186.50084,60,116,40
186.50084,186.61447,57,116,40
186.61447,186.72337,60,116,40
186.72812,186.84175,59,116,40
186.84175,186.95538,63,116,40
186.95538,187.06902,59,116,40
187.06902,187.17792,63,116,40
187.18266,187.2963,57,116,40
187.2963,187.40993,60,116,40
187.40993,187.52356,57,116,40
187.52356,187.63246,60,116,40
187.6372,187.75084,59,116,40
187.75084,187.86447,63,116,40
187.86447,187.97812,59,116,40
187.97812,188.08702,63,116,40
188.09175,188.20538,57,116,40
188.20538,188.31902,60,116,40
188.31902,188.43266,57,116,40
188.43266,188.54156,60,116,40
188.5463,188.65993,57,116,40
188.65993,188.77356,60,116,40
188.77356,188.8872,57,116,40
188.8872,188.99611,60,116,40
189.00084,189.05766,59,116,40
189.05766,189.11447,57,116,40
189.11447,189.1713,59,116,40
189.1713,189.2281,57,116,40
189.2281,189.28493,59,116,40
189.28493,189.34175,57,116,40
189.34175,189.39856,59,116,40
189.39856,189.45538,57,116,40
189.45538,189.5122,59,116,40
189.5122,189.56902,57,116,40
189.56902,189.62584,59,116,40
189.62584,189.68266,57,116,40
189.68266,189.73947,59,116,40
189.73947,189.7963,57,116,40
189.7963,189.8531,59,116,40
189.8531,189.9052,57,116,40
189.90993,189.96675,59,116,40
189.96675,190.02356,57,116,40
190.02356,190.08038,59,116,40
190.08038,190.1372,57,116,40
190.1372,190.19402,59,116,40
190.19402,190.25084,57,116,40
190.25084,190.30765,59,116,40
190.30765,190.36447,57,116,40
190.36447,190.4213,59,116,40
190.4213,190.4781,57,116,40
190.4781,190.53493,59,116,40
190.53493,190.59175,57,116,40
190.59175,190.64856,59,116,40
190.64856,190.70538,57,116,40
190.70538,190.7622,59,116,40
190.7622,190.81429,57,116,40
190.81902,190.87584,59,116,40
190.87584,190.93265,57,116,40
190.93265,190.98947,59,116,40
190.98947,191.0463,57,116,40
191.0463,191.1031,59,116,40
191.1031,191.15993,57,116,40
191.15993,191.21675,59,116,40
191.21675,191.27356,57,116,40
191.27356,191.33038,59,116,40
191.33038,191.3872,57,116,40
191.3872,191.44402,59,116,40
191.44402,191.50084,57,116,40
191.50084,191.55765,59,116,40
191.55765,191.61447,57,116,40
191.61447,191.6713,59,116,40
191.6713,191.72337,57,116,40
191.7281,191.78493,59,116,40
191.78493,191.84175,57,116,40
191.84175,191.89856,59,116,40
191.89856,191.95538,57,116,40
191.95538,192.01219,59,116,40
192.01219,192.06902,57,116,40
192.06902,192.12584,59,116,40
192.12584,192.18265,57,116,40
192.18265,192.23947,59,116,40
192.23947,192.2963,57,116,40
192.2963,192.3531,59,116,40
192.3531,192.40993,57,116,40
192.40993,192.46675,59,116,40
192.46675,192.52356,57,116,40
192.52356,192.58038,59,116,40
192.58038,192.63246,57,116,40
192.63719,192.69402,60,116,40
192.69402,192.75084,57,116,40
192.75084,192.80765,60,116,40
192.80765,192.86447,57,116,40
192.86447,192.9213,60,116,40
192.9213,192.9781,57,116,40
192.9781,193.03493,60,116,40
193.03493,193.09174,57,116,40
193.09174,193.14856,60,116,40
193.14856,193.20538,57,116,40
193.20538,193.26219,60,116,40
193.26219,193.31902,57,116,40
193.31902,193.37584,60,116,40
193.37584,193.43265,57,116,40
193.43265,193.48947,60,116,40
193.48947,193.54155,57,116,40
193.5463,193.6031,61,116,40
193.6031,193.65993,57,116,40
193.65993,193.71674,61,116,40
193.71674,193.77356,57,116,40
193.77356,193.83038,61,116,40
193.83038,193.88719,57,116,40
193.88719,193.94402,61,116,40
193.94402,194.00084,57,116,40
194.00084,194.05765,61,116,40
194.05765,194.11447,57,116,40
194.11447,194.1713,61,116,40
194.1713,194.2281,57,116,40
194.2281,194.28493,61,116,40
194.28493,194.34174,57,116,40
194.34174,194.39856,61,116,40
194.39856,194.45064,57,116,40
194.45538,194.51219,62,116,40
194.51219,194.56902,57,116,40
194.56902,194.62584,62,116,40
194.62584,194.68265,57,116,40
194.68265,194.73947,62,116,40
194.73947,194.79628,57,116,40
194.79628,194.8531,62,116,40
194.8531,194.90518,57,116,40
194.90993,194.96674,61,116,40
194.96674,195.02356,57,116,40
195.02356,195.08038,61,116,40
195.08038,195.13719,57,116,40
195.13719,195.19402,61,116,40
195.19402,195.25084,57,116,40
195.25084,195.30765,61,116,40
195.30765,195.35973,57,116,40
195.36447,195.42128,60,116,40
195.42128,195.4781,57,116,40
195.4781,195.53493,60,116,40
195.53493,195.59174,57,116,40
195.59174,195.64856,60,116,40
195.64856,195.70538,57,116,40
195.70538,195.76219,60,116,40
195.76219,195.81429,57,116,40
195.81902,195.87582,59,116,40
195.87582,195.93265,57,116,40
195.93265,195.98947,59,116,40
195.98947,196.04628,57,116,40
196.04628,196.1031,59,116,40
196.1031,196.15993,57,116,40
196.15993,196.21674,59,116,40
196.21674,196.26883,57,116,40
196.27356,196.33038,59,116,40
196.33038,196.38719,57,116,40
196.38719,196.44402,59,116,40
196.44402,196.50082,57,116,40
196.50082,196.55765,59,116,40
196.55765,196.61447,57,116,40
196.61447,196.67128,59,116,40
196.67128,196.7281,57,116,40
196.7281,196.78493,59,116,40
196.78493,196.84174,57,116,40
196.84174,196.89856,59,116,40
196.89856,196.95538,57,116,40
196.95538,197.01219,59,116,40
197.01219,197.06902,57,116,40
197.06902,197.12582,59,116,40
197.12582,197.17792,57,116,40
197.18265,197.23947,59,116,40
197.23947,197.29628,57,116,40
197.29628,197.3531,59,116,40
197.3531,197.40993,57,116,40
197.40993,197.46674,59,116,40
197.46674,197.52356,57,116,40
197.52356,197.58037,59,116,40
197.58037,197.63719,57,116,40
197.63719,197.69402,59,116,40
197.69402,197.75082,57,116,40
197.75082,197.80765,59,116,40
197.80765,197.86447,57,116,40
197.86447,197.92128,59,116,40
197.92128,197.9781,57,116,40
197.9781,198.03493,59,116,40
198.03493,198.087,57,116,40
198.09174,198.14856,59,116,40
198.14856,198.20537,57,116,40
198.20537,198.26219,59,116,40
198.26219,198.31902,57,116,40
198.31902,198.37582,59,116,40
198.37582,198.43265,57,116,40
198.43265,198.48947,59,116,40
198.48947,198.54628,57,116,40
198.54628,198.6031,59,116,40
198.6031,198.65991,57,116,40
198.65991,198.71674,59,116,40
198.71674,198.77356,57,116,40
198.77356,198.83037,59,116,40
198.83037,198.88719,57,116,40
198.88719,198.94402,59,116,40
198.94402,198.9961,57,116,40
199.00082,199.05765,60,116,40
199.05765,199.11447,57,116,40
199.11447,199.17128,60,116,40
199.17128,199.2281,57,116,40
199.2281,199.28491,60,116,40
199.28491,199.34174,57,116,40
199.34174,199.39856,60,116,40
199.39856,199.45537,57,116,40
199.45537,199.51219,60,116,40
199.51219,199.56902,57,116,40
199.56902,199.62582,60,116,40
199.62582,199.68265,57,116,40
199.68265,199.73947,60,116,40
199.73947,199.79628,57,116,40
199.79628,199.8531,60,116,40
199.8531,199.90518,57,116,40
199.90991,199.96674,61,116,40
199.96674,200.02356,57,116,40
200.02356,200.08037,61,116,40
200.08037,200.13719,57,116,40
200.13719,200.19402,61,116,40
200.19402,200.25082,57,116,40
200.25082,200.30765,61,116,40
200.30765,200.36446,57,116,40
200.36446,200.42128,61,116,40
200.42128,200.4781,57,116,40
200.4781,200.53491,61,116,40
200.53491,200.59174,57,116,40
200.59174,200.64856,61,116,40
200.64856,200.70537,57,116,40
200.70537,200.76219,61,116,40
200.76219,200.81427,57,116,40
200.81902,200.87582,62,116,40
200.87582,200.93265,57,116,40
200.93265,200.98946,62,116,40
200.98946,201.04628,57,116,40
201.04628,201.1031,62,116,40
201.1031,201.15991,57,116,40
201.15991,201.21674,62,116,40
201.21674,201.27356,57,116,40
201.27356,201.33037,62,116,40
201.33037,201.38719,57,116,40
201.38719,201.444,62,116,40
201.444,201.50082,57,116,40
201.50082,201.55765,62,116,40
201.55765,201.61446,57,116,40
201.61446,201.67128,62,116,40
201.67128,201.72336,57,116,40
201.7281,201.78491,61,116,40
201.78491,201.84174,57,116,40
201.84174,201.89856,61,116,40
201.89856,201.95537,57,116,40
201.95537,202.01219,61,116,40
202.01219,202.069,57,116,40
202.069,202.12582,61,116,40
202.12582,202.18265,57,116,40
202.18265,202.23946,61,116,40
202.23946,202.29628,57,116,40
202.29628,202.3531,61,116,40
202.3531,202.40991,57,116,40
202.40991,202.46674,61,116,40
202.46674,202.52356,57,116,40
202.52356,202.58037,61,116,40
202.58037,202.63245,57,116,40
202.63719,202.694,61,116,40
202.694,202.75082,57,116,40
202.75082,202.80765,61,116,40
202.80765,202.86446,57,116,40
202.86446,202.92128,61,116,40
202.92128,202.9781,57,116,40
202.9781,203.03491,61,116,40
203.03491,203.09174,57,116,40
203.09174,203.14854,61,116,40
203.14854,203.20537,57,116,40
203.20537,203.26219,61,116,40
203.26219,203.319,57,116,40
203.319,203.37582,61,116,40
203.37582,203.43265,57,116,40
203.43265,203.48946,61,116,40
203.48946,203.54155,57,116,40
203.54628,203.6031,61,116,40
203.6031,203.65991,57,116,40
203.65991,203.71674,61,116,40
203.71674,203.77354,57,116,40
203.77354,203.83037,61,116,40
203.83037,203.88719,57,116,40
203.88719,203.944,61,116,40
203.944,204.00082,57,116,40
204.00082,204.05765,61,116,40
204.05765,204.11446,57,116,40
204.11446,204.17128,61,116,40
204.17128,204.22809,57,116,40
204.22809,204.28491,61,116,40
204.28491,204.34174,57,116,40
204.34174,204.39854,61,116,40
204.39854,204.45064,57,116,40
204.45537,204.51219,63,116,40
204.51219,204.569,57,116,40
204.569,204.62582,63,116,40
204.62582,204.68265,57,116,40
204.68265,204.73946,63,116,40
204.73946,204.79628,57,116,40
204.79628,204.85309,63,116,40
204.85309,204.90991,57,116,40
204.90991,204.96674,63,116,40
204.96674,205.02354,57,116,40
205.02354,205.08037,63,116,40
205.08037,205.13719,57,116,40
205.13719,205.194,63,116,40
205.194,205.25082,57,116,40
205.25082,205.30765,63,116,40
205.30765,205.35973,57,116,40
205.36446,205.47336,64,116,40
207.18263,207.23946,67,116,40
207.23946,207.29628,60,116,40
207.29628,207.35309,67,116,40
207.35309,207.40991,60,116,40
207.40991,207.46674,67,116,40
207.46674,207.52354,60,116,40
207.52354,207.58037,67,116,40
207.58037,207.63718,60,116,40
207.63718,207.694,67,116,40
207.694,207.75082,60,116,40
207.75082,207.80763,67,116,40
207.80763,207.86446,60,116,40
207.86446,207.92128,67,116,40
207.92128,207.97809,60,116,40
207.97809,208.03491,67,116,40
208.03491,208.08699,60,116,40
208.09174,208.14854,69,116,40
208.14854,208.20537,63,116,40
208.20537,208.26218,69,116,40
208.26218,208.319,63,116,40
208.319,208.37582,69,116,40
208.37582,208.43263,63,116,40
208.43263,208.48946,69,116,40
208.48946,208.54628,63,116,40
208.54628,208.60309,69,116,40
208.60309,208.65991,63,116,40
208.65991,208.71672,69,116,40
208.71672,208.77354,63,116,40
208.77354,208.83037,69,116,40
208.83037,208.88718,63,116,40
208.88718,208.944,69,116,40
208.944,208.99608,63,116,40
209.00082,209.37961,63,116,40
209.00082,209.37961,70,116,40
209.00082,209.37961,78,116,40
209.45537,209.60687,77,116,40
209.60687,209.75839,78,116,40
209.75839,209.90517,80,116,40
209.90991,210.2887,81,116,40
210.36446,210.51598,80,116,40
210.51598,210.66748,81,116,40
210.66748,210.81427,83,116,40
210.819,210.8763,76,116,40
210.8815,210.9388,76,116,40
210.944,211.0013,76,116,40
211.0065,211.0638,76,116,40
211.069,211.12582,76,116,40
211.13098,211.1878,76,116,40
211.19296,211.24979,76,116,40
211.25494,211.31177,76,116,40
211.31693,211.37329,75,116,40
211.3784,211.43475,75,116,40
211.43988,211.49623,75,116,40
211.50136,211.55771,75,116,40
211.56284,211.61873,75,116,40
211.62381,211.6797,75,116,40
211.68478,211.74068,75,116,40
211.74576,211.80165,75,116,40
211.80673,211.86218,75,116,40
211.86722,211.92267,75,116,40
211.9277,211.98314,75,116,40
211.98819,212.04362,75,116,40
212.04868,212.10367,75,116,40
212.10867,212.16367,75,116,40
212.16867,212.22366,75,116,40
212.22867,212.28368,75,116,40
212.28867,212.34323,75,116,40
212.34819,212.40276,75,116,40
212.40771,212.46228,75,116,40
212.46724,212.5218,75,116,40
212.52676,212.5809,75,116,40
212.58582,212.63995,75,116,40
212.64488,212.699,75,116,40
212.70393,212.75806,75,116,40
212.76299,212.91435,66,116,40
212.76299,212.91435,78,116,40
212.91924,213.07004,66,116,40
212.91924,213.07004,78,116,40
213.07487,213.22507,66,116,40
213.07487,213.22507,78,116,40
213.22992,213.61336,66,116,40
213.22992,213.61336,78,116,40
213.6897,213.83647,66,116,40
213.6897,213.83647,78,116,40
213.84122,213.98746,66,116,40
213.84122,213.98746,78,116,40
213.99216,214.13783,66,116,40
213.99216,214.13783,78,116,40
214.14253,214.51456,66,116,40
214.14253,214.51456,78,116,40
214.58864,214.7311,66,127,40
214.58864,214.7311,78,127,40
214.73569,214.87766,66,116,40
214.73569,214.87766,78,116,40
214.88222,215.02364,66,116,40
214.88222,215.02364,78,116,40
215.0282,215.38948,66,116,40
215.0282,215.38948,78,116,40
215.46141,215.59981,66,127,40
215.46141,215.59981,78,127,40
215.60428,215.74219,66,116,40
215.60428,215.74219,78,116,40
215.74663,215.88403,66,116,40
215.74663,215.88403,78,116,40
215.88847,216.2396,66,116,40
215.88847,216.2396,78,116,40
216.30952,216.44408,66,127,40
216.30952,216.44408,78,127,40
216.44841,216.58252,66,116,40
216.44841,216.58252,78,116,40
216.58682,216.72044,66,116,40
216.58682,216.72044,78,116,40
216.72476,216.85747,66,127,40
216.72476,216.85747,78,127,40
216.86174,216.994,66,116,40
216.86174,216.994,78,116,40
216.99826,217.13007,66,116,40
216.99826,217.13007,78,116,40
217.13432,217.26523,66,127,40
217.13432,217.26523,78,127,40
217.26945,217.39993,66,116,40
217.26945,217.39993,78,116,40
217.40413,217.53416,66,116,40
217.40413,217.53416,78,116,40
217.53836,217.66753,66,127,40
217.53836,217.66753,78,127,40
217.67169,217.80045,66,116,40
217.67169,217.80045,78,116,40
217.80458,217.93289,66,116,40
217.80458,217.93289,78,116,40
217.93704,218.0645,66,116,40
217.93704,218.0645,78,116,40
218.06862,218.19568,66,116,40
218.06862,218.19568,78,116,40
218.19977,218.3264,66,116,40
218.19977,218.3264,78,116,40
218.33047,218.4563,66,116,40
218.33047,218.4563,78,116,40
218.46036,218.58577,66,116,40
218.46036,218.58577,78,116,40
218.5898,218.7148,66,116,40
218.5898,218.7148,78,116,40
218.71884,218.84303,66,116,40
218.71884,218.84303,78,116,40
218.84705,218.97086,66,116,40
218.84705,218.97086,78,116,40
218.97484,219.09824,66,116,40
218.97484,219.09824,78,116,40
219.10222,219.22485,66,116,40
219.10222,219.22485,78,116,40
219.2288,219.35106,66,116,40
219.2288,219.35106,78,116,40
219.355,219.47685,66,116,40
219.355,219.47685,78,116,40
219.48077,219.63078,58,116,40
219.48077,219.63078,64,116,40
219.48077,219.63078,70,116,40
219.48077,219.63078,76,116,40
219.63078,219.78078,70,116,40
219.78078,219.92784,64,116,40
219.92784,220.06877,58,116,40
220.07489,220.21913,58,116,40
220.21913,220.36336,64,116,40
220.36336,220.50487,70,116,40
220.50487,220.64047,76,116,40
220.64638,220.78526,76,116,40
220.78526,220.92415,70,116,40
220.92415,221.06052,64,116,40
221.06052,221.1912,58,116,40
221.19688,221.33081,58,116,40
221.33081,221.46474,64,116,40
221.46474,221.59631,70,116,40
221.59631,221.72241,76,116,40
221.72789,221.8561,76,116,40
221.8561,221.9843,70,116,40
221.9843,222.1125,64,116,40
222.1125,222.23537,58,116,40
222.2407,222.36891,58,116,40
222.36891,222.49712,64,116,40
222.49712,222.62532,70,116,40
222.62532,222.74818,76,116,40
222.75354,222.88174,76,116,40
222.88174,223.00995,70,116,40
223.00995,223.13815,64,116,40
223.13815,223.26102,58,116,40
223.26636,223.39456,58,116,40
223.39456,223.52277,64,116,40
223.52277,223.65097,70,116,40
223.65097,223.77383,76,116,40
223.77917,223.90738,76,116,40
223.90738,224.03558,70,116,40
224.03558,224.16379,64,116,40
224.16379,224.28665,58,116,40
224.29199,224.4202,58,116,40
224.4202,224.54306,64,116,40
224.5484,224.6766,64,116,40
224.6766,224.79947,58,116,40
224.80481,225.25935,62,116,40
225.35027,225.623,60,116,40
225.623,225.89005,62,116,40
225.89572,227.25368,57,116,40
227.25935,227.53209,55,116,40
227.53209,227.80481,60,116,40
227.80481,228.07185,62,116,40
228.07753,229.03207,62,116,40
229.16844,229.7139,60,116,40
229.7139,230.16844,62,116,40
230.25935,231.89572,57,116,40
231.89572,232.89572,55,116,40
232.98662,234.07753,60,116,40
234.07753,235.07753,62,116,40
235.16844,235.7139,60,116,40
235.7139,236.8048,62,116,40
236.8048,237.35025,60,116,40
237.35025,238.44116,62,116,40
238.44116,238.98662,60,116,40
238.98662,240.09773,62,116,40
240.09773,240.84773,60,116,40
240.84773,242.00157,62,116,40
242.00157,242.45612,57,116,40
242.45612,242.91066,58,116,40
242.91066,243.3652,60,116,40
243.3652,243.81975,62,116,40
243.81975,244.27429,64,116,40
244.27429,244.72884,65,116,40
244.72884,245.1834,67,116,40
245.1834,245.56218,69,116,40
245.63794,246.09248,70,116,40
246.09248,246.54703,72,116,40
246.54703,247.00157,74,116,40
247.00157,247.38036,76,116,40
247.45612,247.96301,77,116,40
247.96301,248.40202,79,116,40
248.4913,248.76508,74,116,40
248.76508,249.0391,81,116,40
249.04498,249.52626,79,116,40
249.6243,250.07884,76,116,40
250.07884,250.53339,74,116,40
250.53339,250.98793,71,116,40
250.98793,251.44247,69,116,40
251.44247,251.89702,67,116,40
251.89702,252.35156,66,116,40
252.35156,252.8061,64,116,40
252.8061,253.18489,60,116,40
253.26065,253.7152,61,116,40
253.7152,254.16974,59,116,40
254.16974,254.62428,62,116,40
254.62428,255.07883,59,116,40
255.07883,255.53337,57,116,40
255.53337,255.98793,59,116,40
255.98793,256.7834,57,116,40
256.897,257.8061,57,116,40
257.8061,258.71518,60,116,40
258.71518,259.62427,63,116,40
259.62427,260.41974,60,116,40
260.5334,260.9879,90,116,40
260.9879,261.44247,87,116,40
261.44247,261.897,86,116,40
261.897,262.2758,84,116,40
262.35156,262.8061,83,116,40
262.8061,263.03336,81,116,40
263.03336,263.26065,83,116,40
263.26065,263.4879,84,116,40
263.4879,263.71518,86,116,40
263.71518,264.09396,87,116,40
264.16974,264.62427,57,116,40
264.62427,265.07883,59,116,40
265.07883,265.9879,60,116,40
265.9879,266.44244,90,116,40
266.44244,266.897,87,116,40
266.897,267.35156,86,116,40
267.35156,267.73035,84,116,40
267.8061,269.62427,57,116,40
269.62427,270.61255,58,116,40
270.61255,271.54968,70,116,40
270.61255,271.54968,76,116,40
271.6896,272.5987,69,116,40
271.6896,272.5987,76,116,40
272.5987,273.05325,64,116,40
272.5987,273.39417,69,116,40
273.05325,273.50778,62,116,40
273.50778,273.96234,64,116,40
273.96234,274.41687,65,116,40
274.41687,274.87143,67,116,40
274.87143,275.2502,69,116,40
275.32596,275.78052,70,116,40
275.78052,276.23505,72,116,40
276.23505,276.6896,74,116,40
276.6896,277.14417,76,116,40
277.14417,277.5987,77,116,40
277.5987,278.05325,79,116,40
278.05325,278.50778,81,116,40
278.50778,278.88657,76,116,40
279.41687,279.87143,71,127,40
279.87143,280.66687,73,116,40
281.23505,281.6896,71,127,40
281.6896,282.48505,73,116,40
283.05322,283.50778,71,127,40
283.50778,284.30322,73,116,40
284.41687,284.53052,61,116,40
284.53052,284.64413,63,116,40
284.64413,284.75778,64,116,40
284.75778,284.86667,66,116,40
284.87143,284.98505,64,116,40
284.98505,285.0987,66,116,40
285.0987,285.2123,67,116,40
285.2123,285.32123,69,116,40
285.32596,285.4396,67,116,40
285.4396,285.55322,69,116,40
285.55322,285.66687,70,116,40
285.66687,285.77576,72,116,40
285.78052,285.89413,70,116,40
285.89413,286.00778,72,116,40
286.00778,286.12143,73,116,40
286.12143,286.23032,75,116,40
286.23505,286.3487,74,116,40
286.3487,286.4623,76,116,40
286.4623,286.57596,74,116,40
286.57596,286.68488,69,116,40
286.6896,286.80322,62,116,40
286.80322,286.91687,64,116,40
286.91687,287.03052,62,116,40
287.03052,287.1394,57,116,40
287.14413,287.25778,61,116,40
287.25778,287.3714,63,116,40
287.3714,287.48505,64,116,40
287.48505,287.59396,66,116,40
287.5987,287.7123,64,116,40
287.7123,287.82596,66,116,40
287.82596,287.9396,67,116,40
287.9396,288.0485,69,116,40
288.05322,288.16687,67,116,40
288.16687,288.28052,69,116,40
288.28052,288.39413,70,116,40
288.39413,288.50305,72,116,40
288.50778,288.6214,70,116,40
288.6214,288.73505,72,116,40
288.73505,288.8487,73,116,40
288.8487,288.95758,75,116,40
288.9623,289.07596,74,116,40
289.07596,289.1896,76,116,40
289.1896,289.30322,74,116,40
289.30322,289.41214,69,116,40
289.41687,289.53052,62,116,40
289.53052,289.64413,64,116,40
289.64413,289.75778,62,116,40
289.75778,289.86667,57,116,40
289.8714,289.98505,62,116,40
289.98505,290.0987,64,116,40
290.0987,290.2123,65,116,40
290.2123,290.32123,67,116,40
290.32596,290.4396,65,116,40
290.4396,290.55322,67,116,40
290.55322,290.66687,65,116,40
290.66687,290.77576,67,116,40
290.7805,290.89413,68,116,40
290.89413,291.00778,69,116,40
291.00778,291.1214,71,116,40
291.1214,291.23032,72,116,40
291.23505,291.3487,71,116,40
291.3487,291.4623,72,116,40
291.4623,291.57596,74,116,40
291.57596,291.68484,76,116,40
291.6896,291.80322,77,116,40
291.80322,291.91687,79,116,40
291.91687,292.0305,77,116,40
292.0305,292.1394,75,116,40
292.14413,292.25778,75,116,40
292.25778,292.3714,77,116,40
292.3714,292.48505,75,116,40
292.48505,292.59393,73,116,40
292.5987,292.70758,72,116,40
292.7123,292.82123,72,116,40
292.82596,292.93484,67,116,40
292.93958,293.0485,67,116,40
293.05322,293.16214,55,116,40
293.16687,293.27576,55,116,40
293.2805,293.3894,55,116,40
293.39413,293.50302,55,116,40
293.50778,293.6214,60,116,40
293.6214,293.73505,61,116,40
293.73505,293.8487,60,116,40
293.8487,293.95758,58,116,40
293.9623,294.07596,58,116,40
294.07596,294.18958,60,116,40
294.18958,294.30322,58,116,40
294.30322,294.41214,56,116,40
294.41687,295.0987,60,116,40
295.0987,295.32123,58,116,40
295.32596,296.00778,60,116,40
296.00778,296.23032,55,116,40
296.23505,296.4623,55,116,40
296.4623,296.68958,56,116,40
296.68958,296.91687,60,116,40
296.91687,297.1394,65,116,40
297.14413,297.59866,63,116,40
297.59866,297.82596,61,116,40
297.82596,298.05322,63,116,40
298.05322,298.50775,58,116,40
298.50775,298.65927,56,116,40
298.65927,298.8108,61,116,40
298.8108,298.95758,63,116,40
298.9623,299.3411,63,116,40
300.7805,301.23505,75,116,40
301.23505,301.4623,73,116,40
301.4623,301.68958,75,116,40
301.68958,302.14413,70,116,40
302.14413,302.29565,68,116,40
302.29565,302.44714,71,116,40
302.44714,302.59393,73,116,40
302.59866,302.98062,75,116,40
304.5211,306.57236,59,116,40
304.5211,306.57236,71,116,40
306.57236,308.49545,59,116,40
306.57236,308.49545,71,116,40
308.62366,308.68503,77,116,40
308.6906,308.75174,77,116,40
308.7573,308.8181,77,116,40
308.82364,308.88397,77,116,40
308.88947,308.94955,77,116,40
308.955,309.01477,77,116,40
309.0202,309.07953,77,116,40
309.0849,309.14398,77,116,40
309.14935,309.2081,78,116,40
309.21344,309.27176,78,116,40
309.27707,309.3352,78,116,40
309.34045,309.39822,78,116,40
309.40347,309.46085,78,116,40
309.46606,309.52325,78,116,40
309.5284,309.58524,78,116,40
309.5904,309.64685,78,116,40
309.65198,309.70825,79,116,40
309.71332,309.76923,79,116,40
309.7743,309.82986,79,116,40
309.8349,309.8903,79,116,40
309.8953,309.9503,79,116,40
309.9553,310.01,79,116,40
310.01498,310.0695,79,116,40
310.07443,310.12854,79,116,40
310.13348,310.18735,80,116,40
310.19223,310.24594,80,116,40
310.25076,310.30408,80,116,40
310.30893,310.362,80,116,40
310.3668,310.41968,80,116,40
310.42444,310.47693,80,116,40
310.4817,310.534,80,116,40
310.53873,310.5908,80,116,40
310.59555,310.64722,79,116,40
310.65192,310.70346,79,116,40
310.7081,310.75943,79,116,40
310.76407,310.81503,79,116,40
310.81964,310.87042,79,116,40
310.87503,310.92557,79,116,40
310.93018,310.98038,79,116,40
310.98495,311.035,79,116,40
311.03952,311.08936,80,116,40
311.09387,311.14337,80,116,40
311.1479,311.19724,80,116,40
311.20172,311.25082,80,116,40
311.25528,311.3041,80,116,40
311.30853,311.3572,80,116,40
311.3616,311.41003,80,116,40
311.41443,311.4626,80,116,40
311.46695,311.51498,81,116,40
311.51932,311.56705,81,116,40
311.5714,311.6189,81,116,40
311.6232,311.6706,81,116,40
311.67487,311.72195,81,116,40
311.72623,311.7731,81,116,40
311.77737,311.8241,81,116,40
311.82834,311.8748,81,116,40
311.879,311.92526,82,116,40
311.92947,311.9756,82,116,40
311.97977,312.0256,82,116,40
312.02975,312.07544,82,116,40
312.07956,312.1251,82,116,40
312.1292,312.17444,82,116,40
312.17856,312.22363,82,116,40
312.22772,312.27264,82,116,40
312.27673,312.6014,65,116,40
312.27673,312.6014,75,116,40
312.27673,312.6014,83,116,40
312.66635,312.7597,83,116,40
312.76376,312.8571,87,116,40
312.86115,312.9545,83,116,40
312.95856,313.0519,80,116,40
313.05597,313.1493,80,116,40
313.44556,313.5389,77,116,40
313.54297,313.63632,80,116,40
313.64038,313.7337,77,116,40
313.73776,313.83112,75,116,40
313.83517,313.92853,75,116,40
314.2248,314.31815,67,116,40
314.3222,314.41553,71,116,40
314.4196,314.51294,67,116,40
314.517,314.61035,63,116,40
314.6144,314.70773,63,116,40
315.004,315.09735,62,116,40
315.1014,315.19476,64,116,40
315.19882,315.29214,62,116,40
315.2962,315.38956,64,116,40
315.39362,315.49103,65,116,40
315.49103,315.5884,67,116,40
315.5884,315.68582,65,116,40
315.68582,315.78323,67,116,40
315.78323,315.88065,65,116,40
315.88065,315.97803,67,116,40
315.97803,316.07544,65,116,40
316.07544,316.17285,67,116,40
316.17285,316.27023,65,116,40
316.27023,316.36765,67,116,40
316.36765,316.46506,65,116,40
316.46506,316.55838,64,116,40
316.56244,316.65985,62,116,40
316.65985,316.75726,64,116,40
316.75726,316.85464,62,116,40
316.85464,316.948,64,116,40
316.95206,317.04947,65,116,40
317.04947,317.14685,67,116,40
317.14685,317.24426,65,116,40
317.24426,317.34167,67,116,40
317.34167,317.4391,65,116,40
317.4391,317.53647,67,116,40
317.53647,317.63388,65,116,40
317.63388,317.7313,67,116,40
317.7313,317.82867,65,116,40
317.82867,317.9261,67,116,40
317.9261,318.0235,65,116,40
318.0235,318.11682,64,116,40
318.12088,318.2183,62,116,40
318.2183,318.3157,64,116,40
318.3157,318.4131,62,116,40
318.4131,318.50644,64,116,40
318.5105,319.34546,65,116,40
319.34546,320.19183,61,116,40
320.3236,321.15695,64,116,40
324.13315,324.6093,64,116,40
324.6093,325.0855,65,116,40
325.0855,325.5617,67,116,40
325.5617,326.0379,65,116,40
326.0379,326.43472,64,116,40
327.94266,328.41885,76,116,40
328.41885,328.89505,73,116,40
328.89505,329.37122,71,116,40
329.37122,329.8474,73,116,40
329.8474,330.32986,76,116,40
330.32986,330.83163,73,116,40
330.83163,331.35626,71,116,40
331.35626,331.81125,73,116,40
331.90384,332.3584,76,116,40
332.3584,332.81293,73,116,40
332.81293,333.2675,71,116,40
333.2675,333.72202,70,116,40
333.72202,334.17657,64,116,40
334.17657,334.6311,61,116,40
334.6311,335.08566,59,116,40
335.08566,335.46445,58,116,40
335.5402,335.7012,69,116,40
335.7675,335.92847,69,116,40
335.99475,336.15573,69,116,40
336.22202,336.383,69,116,40
336.4493,336.6103,69,116,40
336.67657,336.75232,69,116,40
336.90384,337.05536,67,127,40
337.05536,337.20688,69,116,40
337.20688,337.35364,70,116,40
337.3584,337.51938,69,116,40
337.58566,337.74664,69,116,40
337.81293,337.9739,69,116,40
338.0402,338.2012,69,116,40
338.2675,338.42847,69,116,40
338.49475,338.5705,69,116,40
338.72202,338.87354,67,127,40
338.87354,339.02505,69,116,40
339.02505,339.17184,70,116,40
339.17657,339.33755,69,116,40
339.40384,339.56482,69,116,40
339.6311,339.79208,69,116,40
339.85837,340.01938,69,116,40
340.08566,340.24664,69,116,40
340.31293,340.4739,69,116,40
340.5402,340.70117,69,116,40
340.7675,340.84323,69,116,40
340.99475,341.20435,69,116,40
341.2405,341.45483,69,116,40
341.4919,341.7112,69,116,40
341.74915,341.97382,69,116,40
342.01254,342.2554,69,116,40
342.30017,342.58655,69,116,40
342.64008,342.9604,69,116,40
343.01508,343.3354,69,116,40
343.39008,343.50372,69,116,40
343.50372,343.61737,65,116,40
343.61737,343.731,69,116,40
343.731,343.84464,65,116,40
343.84464,343.95825,69,116,40
343.95825,344.0719,65,116,40
344.0719,344.18555,69,116,40
344.18555,344.29443,65,116,40
344.29916,344.4128,69,116,40
344.4128,344.52646,65,116,40
344.52646,344.64008,69,116,40
344.64008,344.75372,65,116,40
344.75372,344.86734,69,116,40
344.86734,344.981,65,116,40
344.981,345.09464,69,116,40
345.09464,345.20352,65,116,40
345.20825,345.3219,69,116,40
345.3219,345.43555,65,116,40
345.43555,345.54916,69,116,40
345.54916,345.6628,65,116,40
345.6628,345.77646,69,116,40
345.77646,345.89008,65,116,40
345.89008,346.00372,69,116,40
346.00372,346.11734,65,116,40
346.11734,346.231,69,116,40
346.231,346.34464,65,116,40
346.34464,346.45825,69,116,40
346.45825,346.56717,65,116,40
346.5719,346.68555,67,116,40
346.68555,346.79916,64,116,40
346.79916,346.9128,67,116,40
346.9128,347.0217,64,116,40
347.02643,347.14008,69,116,40
347.14008,347.25372,65,116,40
347.25372,347.36734,69,116,40
347.36734,347.481,65,116,40
347.481,347.59464,69,116,40
347.59464,347.70825,65,116,40
347.70825,347.8219,69,116,40
347.8219,347.9308,65,116,40
347.93555,348.04916,69,116,40
348.04916,348.1628,65,116,40
348.1628,348.27643,69,116,40
348.27643,348.39008,65,116,40
348.39008,348.50372,69,116,40
348.50372,348.61734,65,116,40
348.61734,348.731,69,116,40
348.731,348.83987,65,116,40
348.84464,348.95825,69,116,40
348.95825,349.0719,65,116,40
349.0719,349.18552,69,116,40
349.18552,349.29916,65,116,40
349.29916,349.4128,69,116,40
349.4128,349.52643,65,116,40
349.52643,349.64008,69,116,40
349.64008,349.75372,65,116,40
349.75372,349.86734,69,116,40
349.86734,349.981,65,116,40
349.981,350.09464,69,116,40
350.09464,350.20352,65,116,40
350.20825,350.3219,67,116,40
350.3219,350.43552,64,116,40
350.43552,350.54916,67,116,40
350.54916,350.65808,64,116,40
350.6628,350.77643,67,116,40
350.77643,350.89008,63,116,40
350.89008,351.00372,67,116,40
351.00372,351.11734,63,116,40
351.11734,351.231,67,116,40
351.231,351.34464,63,116,40
351.34464,351.45825,67,116,40
351.45825,351.56717,63,116,40
351.5719,351.68552,67,116,40
351.68552,351.79916,63,116,40
351.79916,351.9128,67,116,40
351.9128,352.02643,63,116,40
352.02643,352.14008,67,116,40
352.14008,352.25372,63,116,40
352.25372,352.36734,67,116,40
352.36734,352.47626,63,116,40
352.481,352.5946,67,116,40
352.5946,352.70825,63,116,40
352.70825,352.8219,67,116,40
352.8219,352.93552,63,116,40
352.93552,353.04916,67,116,40
353.04916,353.1628,63,116,40
353.1628,353.27643,67,116,40
353.27643,353.38535,63,116,40
353.39008,353.50372,67,116,40
353.50372,353.61734,63,116,40
353.61734,353.731,67,116,40
353.731,353.8446,63,116,40
353.8446,353.95825,67,116,40
353.95825,354.0719,63,116,40
354.0719,354.18552,67,116,40
354.18552,354.29443,63,116,40
354.29916,354.4128,59,116,40
354.4128,354.52643,65,116,40
354.52643,354.64008,69,116,40
354.64008,354.74896,77,116,40
354.7537,354.86734,77,116,40
354.86734,354.981,69,116,40
354.981,355.0946,65,116,40
355.0946,355.20352,59,116,40
355.20825,355.3219,59,116,40
355.3219,355.43552,65,116,40
355.43552,355.54916,69,116,40
355.54916,355.65805,77,116,40
355.6628,355.77643,77,116,40
355.77643,355.89008,69,116,40
355.89008,356.0037,65,116,40
356.0037,356.1126,59,116,40
356.11734,356.2364,58,116,40
356.2364,356.35626,65,116,40
356.35626,356.477,69,116,40
356.477,356.59344,77,116,40
356.5985,356.72092,77,116,40
356.72092,356.84415,69,116,40
356.84415,356.96826,65,116,40
356.96826,357.08807,58,116,40
357.09326,357.21933,58,116,40
357.21933,357.3463,65,116,40
357.3463,357.4742,69,116,40
357.4742,357.5977,77,116,40
357.60306,357.73288,77,116,40
357.73288,357.86365,69,116,40
357.86365,357.9954,65,116,40
357.9954,358.1226,58,116,40
358.12814,358.24716,69,116,40
358.24716,358.3662,65,116,40
358.3662,358.48526,69,116,40
358.48526,358.6043,65,116,40
358.6043,358.72336,69,116,40
358.72336,358.8424,65,116,40
358.8424,358.96146,69,116,40
358.96146,359.0805,65,116,40
359.0805,359.19955,69,116,40
359.19955,359.3186,65,116,40
359.3186,359.43765,69,116,40
359.43765,359.5567,65,116,40
359.5567,359.67575,69,116,40
359.67575,359.7948,65,116,40
359.7948,359.91385,69,116,40
359.91385,360.0329,65,116,40
360.0329,360.15195,69,116,40
360.15195,360.271,65,116,40
360.271,360.39005,69,116,40
360.39005,360.5091,65,116,40
360.5091,360.6281,69,116,40
360.6281,360.74716,65,116,40
360.74716,360.8662,69,116,40
360.8662,360.98526,65,116,40
360.98526,361.1043,69,116,40
361.1043,361.22336,65,116,40
361.22336,361.3424,69,116,40
361.3424,361.4565,65,116,40
361.46146,361.5805,67,127,40
361.5805,361.69955,63,116,40
361.69955,361.8186,67,116,40
361.8186,361.93268,63,116,40
361.93765,362.0567,69,116,40
362.0567,362.17575,65,116,40
362.17575,362.2948,69,116,40
362.2948,362.41385,65,116,40
362.41385,362.5329,69,116,40
362.5329,362.65195,65,116,40
362.65195,362.771,69,116,40
362.771,362.89,65,116,40
362.89,363.00906,69,116,40
363.00906,363.1281,65,116,40
363.1281,363.24716,69,116,40
363.24716,363.3662,65,116,40
363.3662,363.48526,69,116,40
363.48526,363.6043,65,116,40
363.6043,363.72336,69,116,40
363.72336,363.8424,65,116,40
363.8424,363.96146,69,116,40
363.96146,364.0805,65,116,40
364.0805,364.19955,69,116,40
364.19955,364.3186,65,116,40
364.3186,364.43765,69,116,40
364.43765,364.5567,65,116,40
364.5567,364.67575,69,116,40
364.67575,364.7948,65,116,40
364.7948,364.91385,69,116,40
364.91385,365.0329,65,116,40
365.0329,365.15192,69,116,40
365.15192,365.26602,65,116,40
365.27097,365.39,67,127,40
365.39,365.50906,63,116,40
365.50906,365.6281,67,116,40
365.6281,365.74222,63,116,40
365.74716,365.8662,69,116,40
365.8662,365.98526,65,116,40
365.98526,366.1043,69,116,40
366.1043,366.22336,65,116,40
366.22336,366.3424,69,116,40
366.3424,366.46146,65,116,40
366.46146,366.5805,69,116,40
366.5805,366.69955,65,116,40
366.69955,366.8186,69,116,40
366.8186,366.93765,65,116,40
366.93765,367.0567,69,116,40
367.0567,367.17575,65,116,40
367.17575,367.2948,69,116,40
367.2948,367.41385,65,116,40
367.41385,367.53287,69,116,40
367.53287,367.65192,65,116,40
367.65192,367.77097,69,116,40
367.77097,367.89,65,116,40
367.89,368.00906,69,116,40
368.00906,368.1281,65,116,40
368.1281,368.24716,69,116,40
368.24716,368.3662,65,116,40
368.3662,368.48526,69,116,40
368.48526,368.6043,65,116,40
368.6043,368.72336,69,116,40
368.72336,368.8424,65,116,40
368.8424,368.96146,69,116,40
368.96146,369.0805,65,116,40
369.0805,369.19955,69,116,40
369.19955,369.3186,65,116,40
369.3186,369.43765,69,116,40
369.43765,369.55173,65,116,40
369.5567,375.5609,59,116,40
375.70944,380.58444,59,116,40
380.70944,381.20944,61,116,40
381.20944,381.6261,59,116,40
381.70944,382.20944,63,116,40
382.20944,382.45944,61,116,40
382.45944,382.70422,63,116,40
382.70944,383.20944,58,116,40
383.20944,383.6261,56,116,40
383.70944,383.95944,63,116,40
383.95944,384.20422,61,116,40
384.20944,384.45944,61,116,40
384.45944,384.70557,63,116,40
384.71085,385.21933,58,116,40
385.21933,385.64307,56,116,40
385.72778,386.75644,63,116,40
386.75644,387.66388,61,116,40
387.79544,389.78244,61,116,40
389.91638,391.95047,59,116,40
392.08682,393.72482,57,116,40
392.08682,393.72482,69,116,40
393.73175,394.29236,55,116,40
393.73175,394.29236,67,116,40
394.29236,394.51962,57,116,40
394.29236,394.51962,69,116,40
394.51962,394.7398,58,116,40
394.51962,394.7398,70,116,40
394.74692,396.48404,57,116,40
394.74692,396.48404,69,116,40
396.49146,397.0867,55,116,40
396.49146,397.0867,67,116,40
397.0867,397.3277,57,116,40
397.0867,397.3277,69,116,40
397.3277,397.564,58,116,40
397.3277,397.564,70,116,40
397.5716,399.62064,57,116,40
397.5716,399.62064,69,116,40
400.58215,403.5427,62,127,40
403.74005,410.64005,69,116,40
403.74005,410.64005,77,116,40
0.0,0.90909,48,116,41
0.90909,1.363635,55,116,41
1.363635,1.81818,53,116,41
1.81818,3.5227237,58,116,41
3.63636,4.54545,62,116,41
4.54545,4.999995,65,116,41
4.999995,5.45454,70,116,41
5.45454,7.4945235,70,116,41
7.6401544,7.867427,73,116,41
7.867427,8.0947,68,116,41
8.0947,8.549245,67,116,41
8.549245,9.00379,68,116,41
9.00379,9.458335,67,116,41
9.458335,9.91288,65,116,41
9.91288,10.367425,63,116,41
10.367425,10.821969,61,116,41
10.821969,11.731059,58,116,41
11.731059,12.185604,56,116,41
12.185604,12.640149,53,116,41
12.640149,13.094694,51,116,41
13.094694,13.549239,50,116,41
13.549239,14.003784,48,116,41
14.003784,14.458329,50,116,41
14.458329,14.837117,55,116,41
14.912874,15.821964,65,116,41
15.821964,17.640144,68,116,41
17.640144,18.09469,69,116,41
18.09469,18.473476,73,116,41
18.549234,19.458324,65,116,41
19.458324,21.276505,68,116,41
21.276505,21.731049,69,116,41
21.731049,22.185595,73,116,41
22.185595,23.094685,65,116,41
23.094685,24.003775,68,116,41
24.003775,24.912865,65,116,41
24.912865,25.821955,68,116,41
25.821955,26.731045,65,116,41
26.731045,27.640135,68,116,41
27.640135,28.601427,65,116,41
28.601427,29.704296,58,116,41
29.704296,30.15884,57,127,41
30.15884,30.386112,55,116,41
30.386112,30.613386,57,116,41
30.613386,31.06793,55,127,41
31.06793,31.522476,53,116,41
31.522476,33.22702,58,116,41
35.61338,36.522472,70,116,41
36.522472,36.977016,70,116,41
36.977016,37.886105,69,116,41
37.886105,39.173985,59,116,41
37.886105,39.173985,65,116,41
39.704285,40.992165,59,116,41
39.704285,40.992165,65,116,41
41.522465,42.431557,59,116,41
41.522465,42.431557,65,116,41
42.431557,42.54046,52,116,41
42.545193,42.654095,52,116,41
42.65883,42.76773,55,116,41
42.772465,42.881367,55,116,41
42.8861,42.995003,58,116,41
42.999737,43.10864,58,116,41
43.113373,43.222275,61,116,41
43.22701,43.33591,61,116,41
43.340645,43.449547,58,116,41
43.45428,43.563183,58,116,41
43.567917,43.67682,61,116,41
43.681553,43.790455,61,116,41
43.79519,43.90409,64,116,41
43.908825,44.017727,64,116,41
44.022465,44.131363,67,116,41
44.1361,44.245,67,116,41
44.249737,44.35864,65,116,41
44.249737,44.35864,69,116,41
44.363373,44.472275,65,116,41
44.363373,44.472275,69,116,41
44.47701,44.58591,62,116,41
44.590645,44.699547,62,116,41
44.70428,44.813183,57,116,41
44.817917,44.92682,57,116,41
44.931553,45.040455,53,116,41
45.04519,45.15409,53,116,41
45.158825,45.267727,52,116,41
45.27246,45.381363,52,116,41
45.386097,45.495,55,116,41
45.499733,45.608635,55,116,41
45.61337,45.72227,58,116,41
45.727005,45.835907,58,116,41
45.840645,45.949543,61,116,41
45.95428,46.06318,61,116,41
46.067917,46.176815,58,116,41
46.181553,46.290455,58,116,41
46.29519,46.40409,61,116,41
46.408825,46.517727,61,116,41
46.52246,46.631363,64,116,41
46.636097,46.745,64,116,41
46.749733,46.858635,67,116,41
46.86337,46.97227,67,116,41
46.977005,47.085907,65,116,41
46.977005,47.085907,69,116,41
47.09064,47.199543,65,116,41
47.09064,47.199543,69,116,41
47.204277,47.31318,62,116,41
47.317913,47.426815,62,116,41
47.43155,47.54045,57,116,41
47.545185,47.654087,57,116,41
47.65882,47.767723,53,116,41
47.77246,47.88136,53,116,41
47.886097,47.994995,56,116,41
47.999733,48.108635,56,116,41
48.11337,48.22227,60,116,41
48.227005,48.335907,60,116,41
48.34064,48.449543,65,116,41
48.454277,48.56318,65,116,41
48.567913,48.676815,60,116,41
48.68155,48.79045,60,116,41
48.795185,48.904087,60,116,41
48.90882,49.017723,60,116,41
49.022457,49.13136,63,116,41
49.136093,49.244995,63,116,41
49.24973,49.35863,66,116,41
49.363365,49.472267,66,116,41
49.477,49.585903,68,116,41
49.59064,49.642723,68,116,41
49.647457,49.704277,56,116,41
49.704277,50.386093,62,116,41
49.704277,50.386093,72,116,41
50.386093,50.60863,71,116,41
50.613365,51.29518,72,116,41
51.29518,51.51772,68,116,41
51.522457,51.74973,68,116,41
51.74973,51.977,69,116,41
51.977,52.204273,72,116,41
52.204273,52.36999,77,116,41
52.37473,52.431545,56,116,41
52.431545,52.540447,62,116,41
52.431545,52.540447,72,116,41
52.54518,52.654083,72,116,41
52.658817,52.76772,71,116,41
52.772453,52.881355,71,116,41
52.88609,52.99499,68,116,41
52.999725,53.108627,68,116,41
53.11336,53.222263,56,116,41
53.226997,53.3359,56,116,41
53.340637,53.454273,54,116,41
53.454273,53.56791,56,116,41
53.56791,53.681545,54,116,41
53.681545,53.79518,52,116,41
53.79518,53.908817,52,116,41
53.908817,54.022453,54,116,41
54.022453,54.13609,52,116,41
54.13609,54.24499,50,116,41
54.249725,54.36952,53,116,41
54.374725,54.49452,53,116,41
54.499725,54.61952,53,116,41
54.624725,54.74452,53,116,41
54.749725,54.86952,53,116,41
54.874725,54.99452,53,116,41
54.999725,55.11952,60,116,41
55.124725,55.24452,60,116,41
55.249725,56.158817,59,116,41
56.158817,56.95427,52,116,41
57.067905,57.176807,50,116,41
57.18154,57.290443,50,116,41
57.295177,57.40408,53,116,41
57.408813,57.517715,53,116,41
57.52245,57.63135,53,116,41
57.636086,57.744987,53,116,41
57.74972,57.858624,56,116,41
57.863358,57.97226,56,116,41
57.976997,58.085896,56,116,41
58.090633,58.19953,56,116,41
58.20427,58.313168,59,116,41
58.317905,58.426807,59,116,41
58.43154,58.540443,59,116,41
58.545177,58.65408,59,116,41
58.658813,58.767715,62,116,41
58.77245,58.88135,62,116,41
58.886086,59.795174,65,116,41
59.795174,60.59063,63,116,41
60.704266,60.82406,59,116,41
60.829266,60.94906,59,116,41
60.954266,61.07406,62,116,41
61.079266,61.19906,62,116,41
61.204266,61.32406,62,116,41
61.329266,61.44906,62,116,41
61.454266,61.57406,65,116,41
61.579266,61.69906,65,116,41
61.704266,61.826088,65,116,41
61.831383,61.953205,65,116,41
61.958504,62.080326,68,116,41
62.08562,62.207443,68,116,41
62.212738,62.33456,68,116,41
62.33986,62.46168,68,116,41
62.466976,62.5888,71,116,41
62.594093,62.715916,71,116,41
62.721214,63.755695,56,116,41
62.721214,63.755695,68,116,41
63.755695,64.660866,55,116,41
63.755695,64.660866,67,116,41
64.79018,65.82466,56,116,41
64.79018,65.82466,68,116,41
65.82466,66.72983,55,116,41
65.82466,66.72983,67,116,41
66.85914,66.91841,68,116,41
66.9238,66.98306,68,116,41
66.98845,67.04772,68,116,41
67.05311,67.11173,68,116,41
67.117035,67.17529,68,116,41
67.18059,67.23885,68,116,41
67.24415,67.30219,68,116,41
67.3074,67.36469,68,116,41
67.3699,67.42719,68,116,41
67.4324,67.48969,68,116,41
67.4949,67.55134,68,116,41
67.55646,67.612816,68,116,41
67.617935,67.674286,68,116,41
67.67941,67.73531,68,116,41
67.74035,67.79579,68,116,41
67.800835,67.85628,68,116,41
67.86132,67.91668,71,116,41
67.92164,67.976204,71,116,41
67.98116,68.03573,71,116,41
68.04069,68.09525,71,116,41
68.10021,68.15411,71,116,41
68.159,68.21271,71,116,41
68.21759,68.2713,71,116,41
68.276184,68.32956,71,116,41
68.334366,68.38725,70,116,41
68.39206,68.44495,70,116,41
68.44975,68.50264,70,116,41
68.50737,68.559456,70,116,41
68.56419,68.61627,70,116,41
68.62101,68.67309,70,116,41
68.677826,68.72938,70,116,41
68.73405,68.78535,70,116,41
68.790016,68.84132,73,116,41
68.845985,68.89709,73,116,41
68.90168,68.95223,73,116,41
68.956825,69.00738,73,116,41
69.01197,69.06252,73,116,41
69.06712,69.116974,73,116,41
69.1215,69.17132,73,116,41
69.17585,69.22567,73,116,41
69.230194,69.279625,73,116,41
69.284096,69.3332,73,116,41
69.33766,69.38677,73,116,41
69.391235,69.440216,73,116,41
69.44462,69.493034,73,116,41
69.49744,69.54585,73,116,41
69.550255,69.59866,73,116,41
69.603065,69.6509,73,116,41
69.65524,69.70299,76,116,41
69.70733,69.755066,76,116,41
69.75941,69.806854,76,116,41
69.811134,69.85822,76,116,41
69.8625,69.90959,76,116,41
69.91388,69.96094,76,116,41
69.96516,70.01161,76,116,41
70.01583,70.06229,76,116,41
70.06651,70.11296,76,116,41
70.11719,70.163185,76,116,41
70.16735,70.21319,76,116,41
70.217354,70.26319,76,116,41
70.26736,70.312996,76,116,41
70.31711,70.362335,76,116,41
70.36645,70.41168,76,116,41
70.415794,70.46102,76,116,41
70.46513,70.78981,61,116,41
70.46513,70.78981,71,116,41
70.46513,70.78981,79,116,41
73.192406,73.2898,55,116,41
73.2898,73.38721,57,116,41
73.38721,73.48461,55,116,41
73.48461,73.57796,57,116,41
73.582016,73.67941,58,116,41
73.67941,73.77682,60,116,41
73.77682,73.87422,58,116,41
73.87422,73.97163,60,116,41
73.97163,74.06902,58,116,41
74.06902,74.16643,60,116,41
74.16643,74.26383,58,116,41
74.26383,74.36124,60,116,41
74.36124,74.45863,58,116,41
74.45863,74.55604,60,116,41
74.55604,74.65344,58,116,41
74.65344,74.74679,57,116,41
74.75085,74.84824,55,116,41
74.84824,74.94565,57,116,41
74.94565,75.04305,55,116,41
75.04305,75.1364,57,116,41
75.14046,75.237854,58,116,41
75.237854,75.33526,60,116,41
75.33526,75.43266,58,116,41
75.43266,75.53007,60,116,41
75.53007,75.627464,58,116,41
75.627464,75.72487,60,116,41
75.72487,75.82227,58,116,41
75.82227,75.91967,60,116,41
75.91967,76.017075,58,116,41
76.017075,76.11448,60,116,41
76.11448,76.21188,58,116,41
76.21188,76.30522,57,116,41
76.30928,76.406685,55,116,41
76.406685,76.50409,57,116,41
76.50409,76.601494,55,116,41
76.601494,76.69483,57,116,41
76.69889,76.82389,58,116,41
76.82389,76.949776,60,116,41
76.949776,77.0769,58,116,41
77.0769,77.205795,60,116,41
77.205795,77.33558,58,116,41
77.33558,77.467155,60,116,41
77.467155,77.60015,58,116,41
77.60015,77.7285,57,116,41
77.734085,77.870445,55,116,41
77.870445,78.00786,57,116,41
78.00786,78.14675,55,116,41
78.14675,78.287766,57,116,41
78.287766,78.42985,55,116,41
78.42985,78.57407,57,116,41
78.57407,78.72002,55,116,41
78.72002,78.86707,57,116,41
78.86707,79.66253,52,116,41
82.50343,82.95798,64,116,41
82.95798,83.41252,62,116,41
83.41252,83.867065,59,116,41
83.867065,84.32162,62,116,41
84.32162,84.7004,64,116,41
86.13979,86.59434,76,116,41
86.59434,87.04888,74,116,41
87.04888,87.503426,71,116,41
87.503426,87.95798,74,116,41
87.95798,88.41252,76,116,41
88.41252,88.867065,74,116,41
88.867065,89.32161,71,116,41
89.32161,89.77615,74,116,41
89.77615,90.15494,76,116,41
91.139786,91.59434,70,127,41
91.59434,91.97312,64,116,41
92.95797,93.41251,70,116,41
93.41251,93.7913,64,116,41
94.776146,95.23069,70,116,41
95.23069,95.60948,64,116,41
97.53609,97.75354,69,116,41
97.53609,97.75354,69,116,41
97.79125,98.015724,69,116,41
97.79125,98.015724,69,116,41
98.05479,98.28679,69,116,41
98.05479,98.28679,69,116,41
98.3273,98.5673,69,116,41
98.3273,98.5673,69,116,41
98.60931,98.85829,69,116,41
98.60931,98.85829,69,116,41
98.90162,99.122025,69,116,41
98.90162,99.122025,69,116,41
99.20493,99.68112,57,116,41
99.68112,100.6335,64,116,41
100.6335,100.79223,62,116,41
100.79223,100.95096,64,116,41
100.95096,101.10969,65,116,41
101.10969,101.585884,64,116,41
101.585884,101.823975,62,116,41
101.823975,102.06207,60,116,41
102.06207,102.53826,58,116,41
102.53826,102.77636,60,116,41
102.77636,103.01445,62,116,41
103.01445,104.44302,64,116,41
104.44302,104.60175,62,116,41
104.60175,104.76048,64,116,41
104.76048,104.91921,65,116,41
104.91921,105.3954,64,116,41
105.3954,105.6335,62,116,41
105.6335,105.87159,60,116,41
105.87159,106.34778,58,116,41
106.34778,106.58588,60,116,41
106.58588,106.823975,62,116,41
106.823975,108.01445,62,116,41
108.01445,108.25254,58,116,41
108.25254,108.49064,60,116,41
108.49064,108.72873,62,116,41
108.72873,109.20492,62,116,41
109.20492,109.443016,58,116,41
109.443016,109.681114,57,116,41
109.681114,110.1573,53,116,41
110.1573,110.63349,55,116,41
110.63349,111.81901,57,116,41
111.82397,112.062065,53,116,41
112.062065,112.300156,55,116,41
112.300156,112.53825,57,116,41
112.53825,113.96682,57,116,41
113.96682,114.36365,53,116,41
114.44301,114.56206,69,116,41
114.56206,114.68111,65,116,41
114.68111,114.800156,69,116,41
114.800156,114.919205,65,116,41
114.919205,115.038246,69,116,41
115.038246,115.157295,65,116,41
115.157295,115.276344,69,116,41
115.276344,115.390434,65,116,41
115.39539,115.51444,69,116,41
115.51444,115.633484,65,116,41
115.633484,115.75253,69,116,41
115.75253,115.87158,65,116,41
115.87158,115.99063,69,116,41
115.99063,116.10968,65,116,41
116.10968,116.22872,69,116,41
116.22872,116.34281,65,116,41
116.34777,116.46682,69,116,41
116.46682,116.58587,65,116,41
116.58587,116.70491,69,116,41
116.70491,116.82396,65,116,41
116.82396,116.94301,69,116,41
116.94301,117.06206,65,116,41
117.06206,117.18111,69,116,41
117.18111,117.30015,65,116,41
117.30015,117.4192,69,116,41
117.4192,117.538246,65,116,41
117.538246,117.657295,69,116,41
117.657295,117.77138,65,116,41
117.776344,117.895386,67,116,41
117.895386,118.014435,64,116,41
118.014435,118.133484,67,116,41
118.133484,118.247574,64,116,41
118.25253,119.6811,76,127,41
119.6811,120.15729,74,116,41
120.15729,120.633484,72,116,41
120.633484,121.58586,69,116,41
121.58586,122.06205,67,116,41
122.06205,122.1811,69,116,41
122.1811,122.30015,65,116,41
122.30015,122.4192,69,116,41
122.4192,122.53824,65,116,41
122.53824,122.65729,69,116,41
122.65729,122.77634,65,116,41
122.77634,122.895386,69,116,41
122.895386,123.00947,65,116,41
123.014435,123.13348,69,116,41
123.13348,123.252525,65,116,41
123.252525,123.371574,69,116,41
123.371574,123.49062,65,116,41
123.49062,123.60967,69,116,41
123.60967,123.728714,65,116,41
123.728714,123.84776,69,116,41
123.84776,123.96185,65,116,41
123.96681,124.08586,69,116,41
124.08586,124.2049,65,116,41
124.2049,124.32395,69,116,41
124.32395,124.443,65,116,41
124.443,124.56205,69,116,41
124.56205,124.6811,65,116,41
124.6811,124.80014,69,116,41
124.80014,124.91423,65,116,41
124.91919,125.03824,69,116,41
125.03824,125.15729,65,116,41
125.15729,125.27634,69,116,41
125.27634,125.39538,65,116,41
125.39538,125.53689,69,116,41
125.53689,125.6784,65,116,41
125.6784,125.81991,69,116,41
125.81991,125.96142,65,116,41
125.96142,127.33642,53,116,41
127.46142,127.96142,51,116,41
127.96142,129.33643,53,116,41
129.46143,129.96143,51,116,41
129.96143,130.96143,53,116,41
130.96143,131.46143,55,116,41
131.46143,131.96143,57,116,41
131.96143,133.46143,53,116,41
133.46143,133.87808,51,116,41
133.96143,134.96143,53,116,41
134.96143,135.46143,62,116,41
135.46143,135.96143,53,116,41
135.96143,137.46143,51,116,41
137.46143,137.96143,50,116,41
137.96143,139.4699,51,116,41
139.4699,139.97836,50,116,41
139.97836,141.01285,51,116,41
141.01285,141.53917,53,116,41
141.53917,141.97775,51,116,41
142.06548,142.56548,70,127,41
142.56548,142.81548,68,116,41
142.81548,143.06548,70,116,41
143.06548,143.56548,65,127,41
143.56548,144.06548,63,116,41
144.06548,144.31548,70,127,41
144.31548,144.56548,68,116,41
144.56548,144.81548,68,116,41
144.81548,145.06548,70,116,41
145.06548,145.57396,65,127,41
145.57396,145.99768,63,116,41
146.08243,147.11691,70,116,41
147.11691,148.03796,61,116,41
148.16954,148.66954,56,116,41
148.16954,148.66954,64,116,41
148.66954,149.16954,57,116,41
148.66954,149.16954,66,116,41
149.16954,149.66954,59,116,41
149.16954,149.66954,68,116,41
149.66954,150.16954,57,116,41
149.66954,150.16954,66,116,41
150.16954,150.66954,56,116,41
150.16954,150.66954,64,116,41
150.66954,151.16954,57,116,41
150.66954,151.16954,66,116,41
151.16954,151.66954,59,116,41
151.16954,151.66954,68,116,41
151.66954,152.16954,57,116,41
151.66954,152.16954,66,116,41
152.16954,152.66954,56,116,41
152.16954,152.66954,64,116,41
152.66954,153.16954,57,116,41
152.66954,153.16954,66,116,41
153.16954,153.67801,59,116,41
153.16954,153.67801,68,116,41
153.67801,154.1865,57,116,41
153.67801,154.1865,66,116,41
154.1865,155.22096,56,116,41
154.1865,155.22096,64,116,41
155.22096,155.74728,57,116,41
155.22096,155.74728,64,116,41
155.74728,156.18588,56,116,41
155.74728,156.18588,64,116,41
156.2736,156.38724,50,116,41
156.38724,156.50087,53,116,41
156.50087,156.6145,50,116,41
156.6145,156.72815,53,116,41
156.72815,156.84178,53,116,41
156.84178,156.95541,57,116,41
156.95541,157.06905,53,116,41
157.06905,157.1827,57,116,41
157.1827,157.29633,57,116,41
157.29633,157.40996,60,116,41
157.40996,157.52359,57,116,41
157.52359,157.63724,60,116,41
157.63724,157.75087,60,116,41
157.75087,157.8645,62,116,41
157.8645,157.97815,60,116,41
157.97815,158.08704,62,116,41
158.09178,158.20068,69,116,41
159.45541,160.3645,72,116,41
160.3645,160.81905,69,116,41
160.81905,161.27359,67,116,41
161.27359,161.72813,65,116,41
161.72813,162.10692,64,127,41
162.18268,162.40996,62,116,41
162.40996,162.63722,64,116,41
162.63722,162.8645,65,116,41
162.8645,163.09177,67,116,41
163.09177,163.54633,69,116,41
163.54633,164.90996,72,127,41
164.90996,165.28874,69,116,41
165.3645,166.72813,72,127,41
166.72813,167.18268,69,116,41
167.18268,167.63722,72,116,41
167.63722,168.39006,74,116,41
168.3948,168.69783,72,116,41
168.69783,169.00085,74,116,41
169.00085,169.67795,75,116,41
170.81903,170.92793,59,116,41
170.93268,171.04158,59,116,41
171.04631,171.15521,63,116,41
171.15994,171.26884,63,116,41
171.27359,171.38249,63,116,41
171.38722,171.49612,63,116,41
171.50085,171.60976,68,116,41
171.61449,171.72339,68,116,41
171.72813,171.83704,71,116,41
171.84177,171.95067,71,116,41
171.9554,172.0643,68,116,41
172.06903,172.17793,68,116,41
172.18268,172.29158,65,116,41
172.29631,172.40521,65,116,41
172.40994,172.51884,68,116,41
172.52357,172.63248,68,116,41
172.63722,172.74612,71,116,41
172.75085,172.85976,71,116,41
172.86449,172.97339,68,116,41
172.97813,173.08704,68,116,41
173.09177,173.20067,65,116,41
173.2054,173.3143,65,116,41
173.31903,173.42793,68,116,41
173.43268,173.54158,68,116,41
173.54631,173.65521,71,116,41
173.65994,173.76884,71,116,41
173.77357,173.88248,68,116,41
173.88722,173.99612,68,116,41
174.00085,174.10976,65,116,41
174.11449,174.22339,65,116,41
174.22812,174.33702,68,116,41
174.34177,174.45067,68,116,41
174.4554,174.5643,71,116,41
174.56903,174.67793,71,116,41
174.68268,174.79156,68,116,41
174.79631,174.90521,68,116,41
174.90994,175.01884,65,116,41
175.02357,175.13248,65,116,41
175.13722,175.24612,68,116,41
175.25085,175.35976,68,116,41
175.36449,175.47339,71,116,41
175.47812,175.58702,71,116,41
175.59177,175.70067,68,116,41
175.7054,175.8143,68,116,41
175.81903,175.92793,65,116,41
175.93266,176.04156,65,116,41
176.04631,176.15521,68,116,41
176.15994,176.26884,68,116,41
176.27357,176.38248,71,116,41
176.3872,176.49611,71,116,41
176.50085,176.60976,68,116,41
176.61449,176.72339,68,116,41
176.72812,176.83702,65,116,41
176.84177,176.95067,65,116,41
176.9554,177.0643,68,116,41
177.06903,177.17793,68,116,41
177.18266,177.29156,71,116,41
177.29631,177.40521,71,116,41
177.40994,177.51884,68,116,41
177.52357,177.63248,68,116,41
177.6372,177.74611,65,116,41
177.75085,177.85976,65,116,41
177.86449,177.97339,68,116,41
177.97812,178.08702,68,116,41
178.09175,178.20065,71,116,41
178.2054,178.3143,71,116,41
178.31903,178.42793,68,116,41
178.43266,178.54156,68,116,41
178.54631,178.65521,65,116,41
178.65994,178.76884,65,116,41
178.77357,178.88248,63,116,41
178.8872,178.99611,63,116,41
179.00085,179.10976,59,116,41
179.11449,179.22339,59,116,41
179.22812,179.33702,63,116,41
179.34175,179.45065,63,116,41
179.4554,179.5643,59,116,41
179.56903,179.67793,59,116,41
179.68266,179.79156,56,116,41
179.7963,179.9052,56,116,41
179.90994,180.01884,56,116,41
180.02357,180.13248,56,116,41
180.1372,180.24611,59,116,41
180.25085,180.35974,59,116,41
180.36449,180.47339,56,116,41
180.47812,180.58702,56,116,41
180.59175,180.70065,53,116,41
180.7054,180.8143,53,116,41
180.81903,180.92793,56,116,41
180.93266,181.04156,56,116,41
181.0463,181.1552,59,116,41
181.15994,181.26884,59,116,41
181.27357,181.38248,56,116,41
181.3872,181.49611,56,116,41
181.50084,181.60974,53,116,41
181.61449,181.72339,53,116,41
181.72812,181.84175,51,116,41
181.84175,181.95538,53,116,41
181.95538,182.06903,51,116,41
182.06903,182.17793,53,116,41
182.18266,182.2963,54,116,41
182.2963,182.40994,56,116,41
182.40994,182.52357,54,116,41
182.52357,182.63248,53,116,41
182.6372,182.75084,51,116,41
182.75084,182.86449,53,116,41
182.86449,182.97812,51,116,41
182.97812,183.09175,53,116,41
183.09175,183.20538,54,116,41
183.20538,183.31903,56,116,41
183.31903,183.43266,54,116,41
183.43266,183.54156,53,116,41
183.5463,183.65993,51,116,41
183.65993,183.77357,53,116,41
183.77357,183.8872,51,116,41
183.8872,184.00084,53,116,41
184.00084,184.11449,54,116,41
184.11449,184.22812,56,116,41
184.22812,184.34175,54,116,41
184.34175,184.45538,53,116,41
184.45538,184.56903,51,116,41
184.56903,184.68266,53,116,41
184.68266,184.7963,51,116,41
184.7963,184.90993,53,116,41
184.90993,185.02357,54,116,41
185.02357,185.1372,56,116,41
185.1372,185.25084,54,116,41
185.25084,185.35974,53,116,41
185.36447,185.47812,51,116,41
185.47812,185.59175,53,116,41
185.59175,185.70538,51,116,41
185.70538,185.81429,53,116,41
185.81903,185.93266,54,116,41
185.93266,186.0463,56,116,41
186.0463,186.15993,54,116,41
186.15993,186.26883,53,116,41
186.27357,186.3872,51,116,41
186.3872,186.50084,53,116,41
186.50084,186.61447,51,116,41
186.61447,186.72337,53,116,41
186.72812,186.84175,54,116,41
186.84175,186.95538,56,116,41
186.95538,187.06902,54,116,41
187.06902,187.17792,53,116,41
187.18266,187.2963,51,116,41
187.2963,187.40993,53,116,41
187.40993,187.52356,51,116,41
187.52356,187.63246,53,116,41
187.6372,187.75084,54,116,41
187.75084,187.86447,56,116,41
187.86447,187.97812,54,116,41
187.97812,188.08702,53,116,41
188.09175,188.20538,51,116,41
188.20538,188.31902,53,116,41
188.31902,188.43266,51,116,41
188.43266,188.5463,53,116,41
188.5463,188.65993,51,116,41
188.65993,188.77356,53,116,41
188.77356,188.8872,51,116,41
188.8872,189.00084,53,116,41
189.00084,189.22337,51,116,41
189.45538,189.83417,63,116,41
189.90993,191.27356,66,116,41
191.27356,191.42508,65,116,41
191.42508,191.5766,66,116,41
191.5766,191.7281,68,116,41
191.7281,193.09174,66,116,41
193.09174,193.24326,65,116,41
193.24326,193.39478,66,116,41
193.39478,193.5463,68,116,41
193.5463,193.92508,66,116,41
194.00084,194.90993,69,116,41
194.90993,195.36447,66,116,41
195.36447,195.81902,65,116,41
195.81902,196.1978,63,116,41
202.86446,202.94022,57,116,41
202.94022,203.01598,63,116,41
203.01598,203.087,69,116,41
203.09174,203.1675,69,116,41
203.1675,203.24326,63,116,41
203.24326,203.31427,57,116,41
203.319,203.54155,57,116,41
204.00082,204.37961,69,116,41
204.45537,205.819,72,116,41
205.819,205.97052,71,116,41
205.97052,206.12204,72,116,41
206.12204,206.27354,74,116,41
206.27354,206.72809,72,116,41
206.72809,206.87961,71,116,41
206.87961,207.03113,72,116,41
207.03113,207.18263,74,116,41
207.18263,207.56143,75,116,41
207.63718,207.78397,74,116,41
207.7887,207.93549,75,116,41
207.94022,208.08699,77,116,41
208.09174,208.47052,75,116,41
208.54628,208.69778,74,116,41
208.69778,208.8493,75,116,41
208.8493,208.99608,77,116,41
209.00082,209.22336,78,116,41
209.90991,209.96672,73,116,41
209.96672,210.02354,69,116,41
210.02354,210.08037,73,116,41
210.08037,210.13718,69,116,41
210.13718,210.194,73,116,41
210.194,210.25082,69,116,41
210.25082,210.30763,73,116,41
210.30763,210.35973,69,116,41
210.36446,210.42126,75,116,41
210.42126,210.47809,69,116,41
210.47809,210.53491,75,116,41
210.53491,210.59172,69,116,41
210.59172,210.64854,75,116,41
210.64854,210.70537,69,116,41
210.70537,210.76218,75,116,41
210.76218,210.81427,69,116,41
210.819,210.8763,69,116,41
210.8815,210.9388,69,116,41
210.944,211.0013,69,116,41
211.0065,211.0638,69,116,41
211.069,211.12582,69,116,41
211.13098,211.1878,69,116,41
211.19296,211.24979,69,116,41
211.25494,211.31177,69,116,41
211.31693,211.37329,68,116,41
211.3784,211.43475,68,116,41
211.43988,211.49623,68,116,41
211.50136,211.55771,68,116,41
211.56284,211.61873,68,116,41
211.62381,211.6797,68,116,41
211.68478,211.74068,68,116,41
211.74576,211.80165,68,116,41
211.80673,211.86218,67,116,41
211.86722,211.92267,67,116,41
211.9277,211.98314,67,116,41
211.98819,212.04362,67,116,41
212.04868,212.10367,67,116,41
212.10867,212.16367,67,116,41
212.16867,212.22366,67,116,41
212.22867,212.28368,67,116,41
212.28867,212.34323,66,116,41
212.34819,212.40276,66,116,41
212.40771,212.46228,66,116,41
212.46724,212.5218,66,116,41
212.52676,212.5809,66,116,41
212.58582,212.63995,66,116,41
212.64488,212.699,66,116,41
212.70393,212.75806,66,116,41
212.76299,212.8167,70,116,41
212.82158,212.87529,70,116,41
212.88017,212.93388,70,116,41
212.93877,212.99248,70,116,41
212.99736,213.05066,70,116,41
213.0555,213.1088,70,116,41
213.11363,213.16693,70,116,41
213.17178,213.22507,70,116,41
213.22992,213.2828,69,116,41
213.28761,213.3405,69,116,41
213.3453,213.3982,69,116,41
213.403,213.45589,69,116,41
213.4607,213.51317,69,116,41
213.51794,213.57042,69,116,41
213.5752,213.62767,69,116,41
213.63245,213.68492,69,116,41
213.6897,213.74178,68,116,41
213.7465,213.7986,68,116,41
213.80333,213.85541,68,116,41
213.86015,213.91223,68,116,41
213.91696,213.96866,68,116,41
213.97336,214.02505,68,116,41
214.02975,214.08144,68,116,41
214.08614,214.13783,68,116,41
214.14253,214.19383,69,116,41
214.1985,214.2498,69,116,41
214.25447,214.30577,69,116,41
214.31044,214.36174,69,116,41
214.36641,214.41734,69,116,41
214.42197,214.4729,69,116,41
214.47752,214.52844,69,116,41
214.53308,214.584,69,116,41
214.58864,214.63919,70,116,41
214.64378,214.69434,70,116,41
214.69893,214.74948,70,116,41
214.75407,214.80463,70,116,41
214.80922,214.8594,70,116,41
214.86397,214.91415,70,116,41
214.91872,214.96889,70,116,41
214.97345,215.02364,70,116,41
215.0282,215.07802,69,116,41
215.08255,215.13237,69,116,41
215.1369,215.1867,69,116,41
215.19124,215.24106,69,116,41
215.24559,215.29504,69,116,41
215.29955,215.34901,69,116,41
215.3535,215.40297,69,116,41
215.40746,215.45692,69,116,41
215.46141,215.51053,68,116,41
215.51498,215.5641,68,116,41
215.56856,215.61766,68,116,41
215.62213,215.67123,68,116,41
215.6757,215.72446,68,116,41
215.7289,215.77765,68,116,41
215.78209,215.83084,68,116,41
215.83528,215.88403,68,116,41
215.88847,215.93689,69,116,41
215.94128,215.9897,69,116,41
215.9941,216.04251,69,116,41
216.04692,216.09534,69,116,41
216.09973,216.14781,69,116,41
216.15218,216.20026,69,116,41
216.20464,216.2527,69,116,41
216.25708,216.30516,69,116,41
216.30952,216.35727,70,116,41
216.3616,216.40935,70,116,41
216.4137,216.46144,70,116,41
216.46577,216.51352,70,116,41
216.51785,216.56528,70,116,41
216.56958,216.617,70,116,41
216.6213,216.66872,70,116,41
216.67303,216.72044,70,116,41
216.72476,216.77185,69,116,41
216.77612,216.82321,69,116,41
216.8275,216.87459,69,116,41
216.87886,216.92595,69,116,41
216.93024,216.977,69,116,41
216.98126,217.02803,69,116,41
217.03227,217.07904,69,116,41
217.0833,217.13007,69,116,41
217.13432,217.18077,68,116,41
217.185,217.23145,68,116,41
217.23567,217.28212,68,116,41
217.28635,217.3328,68,116,41
217.33702,217.38316,68,116,41
217.38736,217.4335,68,116,41
217.43768,217.48383,68,116,41
217.48802,217.53416,68,116,41
217.53836,217.5842,69,116,41
217.58836,217.6342,69,116,41
217.63837,217.68419,69,116,41
217.68835,217.73419,69,116,41
217.73836,217.78389,69,116,41
217.78802,217.83356,69,116,41
217.83769,217.88322,69,116,41
217.88736,217.93289,69,116,41
217.93704,217.98227,70,116,41
217.98637,218.0316,70,116,41
218.03572,218.08095,70,116,41
218.08507,218.1303,70,116,41
218.1344,218.17934,70,116,41
218.18343,218.22836,70,116,41
218.23244,218.27737,70,116,41
218.28146,218.3264,70,116,41
218.33047,218.37512,69,116,41
218.37918,218.42383,69,116,41
218.42789,218.47253,69,116,41
218.47658,218.52122,69,116,41
218.52528,218.56964,69,116,41
218.57367,218.61803,69,116,41
218.62206,218.66641,69,116,41
218.67044,218.7148,69,116,41
218.71884,218.76291,68,116,41
218.7669,218.81097,68,116,41
218.81499,218.85905,68,116,41
218.86307,218.90714,68,116,41
218.91115,218.95493,68,116,41
218.95891,219.0027,68,116,41
219.00668,219.05048,68,116,41
219.05446,219.09824,68,116,41
219.10222,219.14574,69,116,41
219.14969,219.1932,69,116,41
219.19716,219.24068,69,116,41
219.24463,219.28815,69,116,41
219.2921,219.33534,69,116,41
219.33926,219.3825,69,116,41
219.38644,219.42967,69,116,41
219.43361,219.47685,69,116,41
219.48077,219.63078,69,116,41
219.63078,220.06877,81,116,41
220.07489,220.36336,79,116,41
220.36336,220.64638,81,116,41
220.64638,221.19688,74,116,41
221.19688,221.46474,72,116,41
221.46474,221.72789,74,116,41
221.72789,222.2407,69,116,41
222.2407,222.49712,67,116,41
222.49712,222.75354,69,116,41
222.75354,223.26636,62,116,41
223.26636,223.52277,60,116,41
223.52277,223.77917,62,116,41
223.77917,224.29199,57,116,41
224.29199,224.5484,55,116,41
224.5484,224.80481,57,116,41
224.80481,224.86731,52,116,41
224.80481,224.86731,58,116,41
224.873,224.9355,52,116,41
224.873,224.9355,58,116,41
224.94118,225.00368,52,116,41
224.94118,225.00368,58,116,41
225.00935,225.07185,52,116,41
225.00935,225.07185,58,116,41
225.07755,225.14005,52,116,41
225.07755,225.14005,58,116,41
225.14572,225.20822,52,116,41
225.14572,225.20822,58,116,41
225.2139,225.2764,52,116,41
225.2139,225.2764,58,116,41
225.28209,225.34459,52,116,41
225.28209,225.34459,58,116,41
225.35027,225.41277,52,116,41
225.35027,225.41277,58,116,41
225.41844,225.48094,52,116,41
225.41844,225.48094,58,116,41
225.48663,225.54913,52,116,41
225.48663,225.54913,58,116,41
225.55481,225.61731,52,116,41
225.55481,225.61731,58,116,41
225.623,225.6855,52,116,41
225.623,225.6855,58,116,41
225.69118,225.75368,52,116,41
225.69118,225.75368,58,116,41
225.75935,225.82185,52,116,41
225.75935,225.82185,58,116,41
225.82755,225.89005,52,116,41
225.82755,225.89005,58,116,41
225.89572,225.95822,52,116,41
225.89572,225.95822,58,116,41
225.9639,226.0264,52,116,41
225.9639,226.0264,58,116,41
226.03209,226.09459,52,116,41
226.03209,226.09459,58,116,41
226.10027,226.16277,52,116,41
226.10027,226.16277,58,116,41
226.16844,226.23094,52,116,41
226.16844,226.23094,58,116,41
226.23663,226.29913,52,116,41
226.23663,226.29913,58,116,41
226.30481,226.36731,52,116,41
226.30481,226.36731,58,116,41
226.37299,226.43549,52,116,41
226.37299,226.43549,58,116,41
226.44118,226.50368,52,116,41
226.44118,226.50368,58,116,41
226.50935,226.57185,52,116,41
226.50935,226.57185,58,116,41
226.57755,226.64005,52,116,41
226.57755,226.64005,58,116,41
226.64572,226.70822,52,116,41
226.64572,226.70822,58,116,41
226.7139,226.7764,52,116,41
226.7139,226.7764,58,116,41
226.78209,226.84459,52,116,41
226.78209,226.84459,58,116,41
226.85027,226.91277,52,116,41
226.85027,226.91277,58,116,41
226.91844,226.98094,52,116,41
226.91844,226.98094,58,116,41
226.98663,227.04913,52,116,41
226.98663,227.04913,58,116,41
227.05481,227.11731,52,116,41
227.05481,227.11731,58,116,41
227.12299,227.18549,52,116,41
227.12299,227.18549,58,116,41
227.19118,227.25368,52,116,41
227.19118,227.25368,58,116,41
227.25935,227.32185,52,116,41
227.25935,227.32185,58,116,41
227.32755,227.39005,52,116,41
227.32755,227.39005,58,116,41
227.39572,227.45822,52,116,41
227.39572,227.45822,58,116,41
227.4639,227.5264,52,116,41
227.4639,227.5264,58,116,41
227.53209,227.59459,52,116,41
227.53209,227.59459,58,116,41
227.60027,227.66277,52,116,41
227.60027,227.66277,58,116,41
227.66844,227.73094,52,116,41
227.66844,227.73094,58,116,41
227.73663,227.79913,52,116,41
227.73663,227.79913,58,116,41
227.80481,227.86731,52,116,41
227.80481,227.86731,58,116,41
227.87299,227.93549,52,116,41
227.87299,227.93549,58,116,41
227.94118,228.00368,52,116,41
227.94118,228.00368,58,116,41
228.00935,228.07185,52,116,41
228.00935,228.07185,58,116,41
228.07753,228.14003,52,116,41
228.07753,228.14003,58,116,41
228.14572,228.20822,52,116,41
228.14572,228.20822,58,116,41
228.2139,228.2764,52,116,41
228.2139,228.2764,58,116,41
228.28209,228.34459,52,116,41
228.28209,228.34459,58,116,41
228.35027,228.41277,52,116,41
228.35027,228.41277,58,116,41
228.41844,228.48094,52,116,41
228.41844,228.48094,58,116,41
228.48663,228.54913,52,116,41
228.48663,228.54913,58,116,41
228.55481,228.61731,52,116,41
228.55481,228.61731,58,116,41
228.62299,228.68549,52,116,41
228.62299,228.68549,58,116,41
228.69118,228.75368,52,116,41
228.69118,228.75368,58,116,41
228.75935,228.82185,52,116,41
228.75935,228.82185,58,116,41
228.82753,228.89003,52,116,41
228.82753,228.89003,58,116,41
228.89572,228.95822,52,116,41
228.89572,228.95822,58,116,41
228.9639,229.0264,52,116,41
228.9639,229.0264,58,116,41
229.03207,229.09457,52,116,41
229.03207,229.09457,58,116,41
229.10027,229.16277,52,116,41
229.10027,229.16277,58,116,41
229.16844,229.23094,52,116,41
229.16844,229.23094,58,116,41
229.23663,229.29913,52,116,41
229.23663,229.29913,58,116,41
229.30481,229.36731,52,116,41
229.30481,229.36731,58,116,41
229.37299,229.43549,52,116,41
229.37299,229.43549,58,116,41
229.44118,229.50368,52,116,41
229.44118,229.50368,58,116,41
229.50935,229.57185,52,116,41
229.50935,229.57185,58,116,41
229.57753,229.64003,52,116,41
229.57753,229.64003,58,116,41
229.64572,229.70822,52,116,41
229.64572,229.70822,58,116,41
229.7139,229.7764,52,116,41
229.7139,229.7764,58,116,41
229.78207,229.84457,52,116,41
229.78207,229.84457,58,116,41
229.85027,229.91277,52,116,41
229.85027,229.91277,58,116,41
229.91844,229.98094,52,116,41
229.91844,229.98094,58,116,41
229.98663,230.04913,52,116,41
229.98663,230.04913,58,116,41
230.05481,230.11731,52,116,41
230.05481,230.11731,58,116,41
230.12299,230.18549,52,116,41
230.12299,230.18549,58,116,41
230.19118,230.25368,52,116,41
230.19118,230.25368,58,116,41
230.25935,230.32185,52,116,41
230.25935,230.32185,58,116,41
230.32753,230.39003,52,116,41
230.32753,230.39003,58,116,41
230.39572,230.45822,52,116,41
230.39572,230.45822,58,116,41
230.4639,230.5264,52,116,41
230.4639,230.5264,58,116,41
230.53207,230.59457,52,116,41
230.53207,230.59457,58,116,41
230.60027,230.66277,52,116,41
230.60027,230.66277,58,116,41
230.66844,230.73094,52,116,41
230.66844,230.73094,58,116,41
230.73662,230.79912,52,116,41
230.73662,230.79912,58,116,41
230.80481,230.86731,52,116,41
230.80481,230.86731,58,116,41
230.87299,230.93549,52,116,41
230.87299,230.93549,58,116,41
230.94118,231.00368,52,116,41
230.94118,231.00368,58,116,41
231.00935,231.07185,52,116,41
231.00935,231.07185,58,116,41
231.07753,231.14003,52,116,41
231.07753,231.14003,58,116,41
231.14572,231.20822,52,116,41
231.14572,231.20822,58,116,41
231.2139,231.2764,52,116,41
231.2139,231.2764,58,116,41
231.28207,231.34457,52,116,41
231.28207,231.34457,58,116,41
231.35027,231.41277,52,116,41
231.35027,231.41277,58,116,41
231.41844,231.48094,52,116,41
231.41844,231.48094,58,116,41
231.48662,231.54912,52,116,41
231.48662,231.54912,58,116,41
231.55481,231.61731,52,116,41
231.55481,231.61731,58,116,41
231.62299,231.68549,52,116,41
231.62299,231.68549,58,116,41
231.69116,231.75366,52,116,41
231.69116,231.75366,58,116,41
231.75935,231.82185,52,116,41
231.75935,231.82185,58,116,41
231.82753,231.89003,52,116,41
231.82753,231.89003,58,116,41
231.89572,231.95822,52,116,41
231.89572,231.95822,58,116,41
231.9639,232.0264,52,116,41
231.9639,232.0264,58,116,41
232.03207,232.09457,52,116,41
232.03207,232.09457,58,116,41
232.10027,232.16277,52,116,41
232.10027,232.16277,58,116,41
232.16844,232.23094,52,116,41
232.16844,232.23094,58,116,41
232.23662,232.29912,52,116,41
232.23662,232.29912,58,116,41
232.30481,232.36731,52,116,41
232.30481,232.36731,58,116,41
232.37299,232.43549,52,116,41
232.37299,232.43549,58,116,41
232.44116,232.50366,52,116,41
232.44116,232.50366,58,116,41
232.50935,232.57185,52,116,41
232.50935,232.57185,58,116,41
232.57753,232.64003,52,116,41
232.57753,232.64003,58,116,41
232.64572,232.70822,52,116,41
232.64572,232.70822,58,116,41
232.7139,232.7764,52,116,41
232.7139,232.7764,58,116,41
232.78207,232.84457,52,116,41
232.78207,232.84457,58,116,41
232.85027,232.91277,52,116,41
232.85027,232.91277,58,116,41
232.91844,232.98094,52,116,41
232.91844,232.98094,58,116,41
232.98662,233.04912,52,116,41
232.98662,233.04912,58,116,41
233.05481,233.11731,52,116,41
233.05481,233.11731,58,116,41
233.12299,233.18549,52,116,41
233.12299,233.18549,58,116,41
233.19116,233.25366,52,116,41
233.19116,233.25366,58,116,41
233.25935,233.32185,52,116,41
233.25935,233.32185,58,116,41
233.32753,233.39003,52,116,41
233.32753,233.39003,58,116,41
233.3957,233.4582,52,116,41
233.3957,233.4582,58,116,41
233.4639,233.5264,52,116,41
233.4639,233.5264,58,116,41
233.53207,233.59457,52,116,41
233.53207,233.59457,58,116,41
233.60027,233.66277,52,116,41
233.60027,233.66277,58,116,41
233.66844,233.73094,52,116,41
233.66844,233.73094,58,116,41
233.73662,233.79912,52,116,41
233.73662,233.79912,58,116,41
233.80481,233.86731,52,116,41
233.80481,233.86731,58,116,41
233.87299,233.93549,52,116,41
233.87299,233.93549,58,116,41
233.94116,234.00366,52,116,41
233.94116,234.00366,58,116,41
234.00935,234.07185,52,116,41
234.00935,234.07185,58,116,41
234.07753,234.14003,52,116,41
234.07753,234.14003,58,116,41
234.1457,234.2082,52,116,41
234.1457,234.2082,58,116,41
234.2139,234.2764,52,116,41
234.2139,234.2764,58,116,41
234.28207,234.34457,52,116,41
234.28207,234.34457,58,116,41
234.35027,234.41275,52,116,41
234.35027,234.41275,58,116,41
234.41844,234.48094,52,116,41
234.41844,234.48094,58,116,41
234.48662,234.54912,52,116,41
234.48662,234.54912,58,116,41
234.55481,234.61731,52,116,41
234.55481,234.61731,58,116,41
234.62299,234.68549,52,116,41
234.62299,234.68549,58,116,41
234.69116,234.75366,52,116,41
234.69116,234.75366,58,116,41
234.75935,234.82185,52,116,41
234.75935,234.82185,58,116,41
234.82753,234.89003,52,116,41
234.82753,234.89003,58,116,41
234.8957,234.9582,52,116,41
234.8957,234.9582,58,116,41
234.9639,235.0264,52,116,41
234.9639,235.0264,58,116,41
235.03207,235.09457,52,116,41
235.03207,235.09457,58,116,41
235.10025,235.16275,52,116,41
235.10025,235.16275,58,116,41
235.16844,235.23094,52,116,41
235.16844,235.23094,58,116,41
235.23662,235.29912,52,116,41
235.23662,235.29912,58,116,41
235.30481,235.36731,52,116,41
235.30481,235.36731,58,116,41
235.37299,235.43549,52,116,41
235.37299,235.43549,58,116,41
235.44116,235.50366,52,116,41
235.44116,235.50366,58,116,41
235.50935,235.57185,52,116,41
235.50935,235.57185,58,116,41
235.57753,235.64003,52,116,41
235.57753,235.64003,58,116,41
235.6457,235.7082,52,116,41
235.6457,235.7082,58,116,41
235.7139,235.7764,52,116,41
235.7139,235.7764,58,116,41
235.78207,235.84457,52,116,41
235.78207,235.84457,58,116,41
235.85025,235.91275,52,116,41
235.85025,235.91275,58,116,41
235.91844,235.98094,52,116,41
235.91844,235.98094,58,116,41
235.98662,236.04912,52,116,41
235.98662,236.04912,58,116,41
236.0548,236.1173,52,116,41
236.0548,236.1173,58,116,41
236.12299,236.18549,52,116,41
236.12299,236.18549,58,116,41
236.19116,236.25366,52,116,41
236.19116,236.25366,58,116,41
236.25935,236.32185,52,116,41
236.25935,236.32185,58,116,41
236.32753,236.39003,52,116,41
236.32753,236.39003,58,116,41
236.3957,236.4582,52,116,41
236.3957,236.4582,58,116,41
236.4639,236.5264,52,116,41
236.4639,236.5264,58,116,41
236.53207,236.59457,52,116,41
236.53207,236.59457,58,116,41
236.60025,236.66275,52,116,41
236.60025,236.66275,58,116,41
236.66844,236.73094,52,116,41
236.66844,236.73094,58,116,41
236.73662,236.79912,52,116,41
236.73662,236.79912,58,116,41
236.8048,236.87299,52,116,41
236.87299,236.94116,58,116,41
236.94116,237.00935,52,116,41
237.00935,237.07753,58,116,41
237.07753,237.1457,52,116,41
237.1457,237.2139,58,116,41
237.2139,237.28207,52,116,41
237.28207,237.35025,58,116,41
237.35025,237.41844,52,116,41
237.41844,237.48662,58,116,41
237.48662,237.5548,52,116,41
237.5548,237.62299,58,116,41
237.62299,237.69116,52,116,41
237.69116,237.75934,58,116,41
237.75934,237.82753,52,116,41
237.82753,237.8957,58,116,41
237.8957,237.9639,52,116,41
237.9639,238.03207,58,116,41
238.03207,238.10025,52,116,41
238.10025,238.16844,58,116,41
238.16844,238.23662,52,116,41
238.23662,238.3048,58,116,41
238.3048,238.37299,52,116,41
238.37299,238.44116,58,116,41
238.44116,238.50934,52,116,41
238.50934,238.57753,58,116,41
238.57753,238.6457,52,116,41
238.6457,238.71388,58,116,41
238.71388,238.78207,52,116,41
238.78207,238.85025,58,116,41
238.85025,238.91844,52,116,41
238.91844,238.98094,58,116,41
238.98662,239.05606,52,116,41
239.05606,239.1255,58,116,41
239.1255,239.19495,52,116,41
239.19495,239.26439,58,116,41
239.26439,239.33383,52,116,41
239.33383,239.40329,58,116,41
239.40329,239.47273,52,116,41
239.47273,239.54218,58,116,41
239.54218,239.61162,52,116,41
239.61162,239.68106,58,116,41
239.68106,239.7505,52,116,41
239.7505,239.81995,58,116,41
239.81995,239.88939,52,116,41
239.88939,239.95883,58,116,41
239.95883,240.02829,52,116,41
240.02829,240.09773,58,116,41
240.09773,240.19148,52,116,41
240.19148,240.28523,58,116,41
240.28523,240.37898,52,116,41
240.37898,240.47273,58,116,41
240.47273,240.56648,52,116,41
240.56648,240.66023,58,116,41
240.66023,240.75398,52,116,41
240.75398,240.84773,58,116,41
240.84773,240.99196,52,116,41
240.99196,241.13618,58,116,41
241.13618,241.28043,52,116,41
241.28043,241.42465,58,116,41
241.42465,241.56888,52,116,41
241.56888,241.7131,58,116,41
241.7131,241.85735,52,116,41
241.85735,241.98955,58,116,41
242.00157,242.45612,52,116,41
242.45612,242.8349,50,116,41
242.91066,243.3652,55,116,41
243.3652,243.81975,53,116,41
243.81975,245.52429,58,116,41
245.63794,246.43338,62,116,41
246.54703,247.00157,65,116,41
247.00157,247.38036,70,116,41
247.45612,249.04498,70,116,41
249.04498,249.52626,69,116,41
249.6243,250.07884,67,116,41
250.07884,250.53339,66,116,41
250.53339,250.98793,67,116,41
250.98793,251.44247,66,116,41
251.44247,251.89702,64,116,41
251.89702,252.35156,62,116,41
252.35156,252.8061,60,116,41
252.8061,253.18489,57,116,41
253.26065,253.7152,57,116,41
253.7152,254.16974,55,116,41
254.16974,254.62428,52,116,41
254.62428,255.07883,50,116,41
255.07883,255.53337,49,116,41
255.53337,255.76065,54,116,41
255.76065,255.98793,52,116,41
255.98793,256.44247,49,116,41
256.44247,256.82126,54,116,41
256.897,257.35156,63,116,41
257.35156,257.8061,65,116,41
257.8061,258.26065,66,116,41
258.26065,258.71518,68,116,41
258.71518,259.62427,69,116,41
259.62427,260.07883,68,116,41
260.07883,260.4576,66,116,41
260.5334,260.9879,63,116,41
260.9879,261.44247,65,116,41
261.44247,261.897,66,116,41
261.897,262.35156,68,116,41
262.35156,263.26065,69,116,41
263.26065,263.71518,68,116,41
263.71518,264.16974,66,116,41
264.16974,265.07883,63,116,41
265.07883,265.53336,66,116,41
265.53336,265.9879,68,116,41
265.9879,266.897,63,116,41
266.897,267.35156,66,116,41
267.35156,267.8061,68,116,41
267.8061,268.71518,63,116,41
268.71518,269.62427,65,116,41
269.62427,270.61255,66,116,41
270.61255,271.139,69,116,41
271.139,271.59616,67,116,41
271.6896,272.14417,57,116,41
272.14417,272.37143,55,116,41
272.37143,272.5987,57,116,41
272.5987,273.05325,55,116,41
273.05325,273.50778,53,116,41
273.50778,275.21234,58,116,41
277.5987,278.50778,70,116,41
278.50778,278.96234,70,116,41
278.96234,279.75778,69,116,41
279.87143,281.1593,59,116,41
279.87143,281.1593,65,116,41
281.6896,282.97748,59,116,41
281.6896,282.97748,65,116,41
283.50778,284.41687,59,116,41
283.50778,284.41687,65,116,41
284.41687,284.5258,52,116,41
284.53052,284.6394,52,116,41
284.64413,284.75305,55,116,41
284.75778,284.86667,55,116,41
284.87143,284.98032,58,116,41
284.98505,285.09396,58,116,41
285.0987,285.20758,61,116,41
285.2123,285.32123,61,116,41
285.32596,285.43488,58,116,41
285.4396,285.5485,58,116,41
285.55322,285.66214,61,116,41
285.66687,285.77576,61,116,41
285.78052,285.8894,64,116,41
285.89413,286.00305,64,116,41
286.00778,286.11667,67,116,41
286.12143,286.23032,67,116,41
286.23505,286.34396,65,116,41
286.23505,286.34396,69,116,41
286.3487,286.45758,65,116,41
286.3487,286.45758,69,116,41
286.4623,286.57123,62,116,41
286.57596,286.68488,62,116,41
286.6896,286.7985,57,116,41
286.80322,286.91214,57,116,41
286.91687,287.02576,53,116,41
287.03052,287.1394,53,116,41
287.14413,287.25305,52,116,41
287.25778,287.36667,52,116,41
287.3714,287.48032,55,116,41
287.48505,287.59396,55,116,41
287.5987,287.70758,58,116,41
287.7123,287.82123,58,116,41
287.82596,287.93488,61,116,41
287.9396,288.0485,61,116,41
288.05322,288.16214,58,116,41
288.16687,288.27576,58,116,41
288.28052,288.3894,61,116,41
288.39413,288.50305,61,116,41
288.50778,288.61667,64,116,41
288.6214,288.73032,64,116,41
288.73505,288.84396,67,116,41
288.8487,288.95758,67,116,41
288.9623,289.07123,65,116,41
288.9623,289.07123,69,116,41
289.07596,289.18484,65,116,41
289.07596,289.18484,69,116,41
289.1896,289.2985,62,116,41
289.30322,289.41214,62,116,41
289.41687,289.52576,57,116,41
289.53052,289.6394,57,116,41
289.64413,289.75305,53,116,41
289.75778,289.86667,53,116,41
289.8714,289.98032,56,116,41
289.98505,290.09396,56,116,41
290.0987,290.20758,50,116,41
290.2123,290.32123,50,116,41
290.32596,290.43484,56,116,41
290.4396,290.5485,56,116,41
290.55322,290.66214,62,116,41
290.66687,290.77576,62,116,41
290.7805,290.8894,60,116,41
290.89413,291.00305,60,116,41
291.00778,291.11667,64,116,41
291.1214,291.23032,64,116,41
291.23505,291.34393,64,116,41
291.3487,291.45758,64,116,41
291.4623,291.57123,69,116,41
291.57596,291.68484,69,116,41
291.6896,291.7464,55,116,41
291.6896,291.7464,65,116,41
291.7464,292.3714,72,116,41
292.3714,292.5987,70,116,41
292.5987,293.2805,72,116,41
293.2805,293.50302,67,116,41
293.50778,293.73505,67,116,41
293.73505,293.9623,68,116,41
293.9623,294.18958,72,116,41
294.18958,294.41214,77,116,41
294.41687,294.52576,55,116,41
294.41687,294.52576,65,116,41
294.41687,294.52576,72,116,41
294.5305,294.6394,72,116,41
294.64413,294.75302,67,116,41
294.75778,294.86667,67,116,41
294.8714,294.98032,55,116,41
294.98505,295.09393,55,116,41
295.0987,295.20758,55,116,41
295.2123,295.32123,55,116,41
295.32596,295.43484,52,116,41
295.43958,295.5485,54,116,41
295.55322,295.66214,52,116,41
295.66687,295.77576,51,116,41
295.7805,295.8894,51,116,41
295.89413,296.00302,52,116,41
296.00778,296.11667,51,116,41
296.1214,296.23032,49,116,41
296.23505,296.34393,51,116,41
296.34866,296.45758,51,116,41
296.4623,296.57123,51,116,41
296.57596,296.68484,51,116,41
296.68958,296.7985,53,116,41
296.80322,296.9121,53,116,41
296.91687,297.02576,56,116,41
297.0305,297.1394,56,116,41
297.14413,298.05322,58,116,41
298.05322,298.84866,51,116,41
298.9623,299.0712,49,116,41
299.07596,299.18484,49,116,41
299.18958,299.2985,52,116,41
299.30322,299.4121,52,116,41
299.41687,299.52576,52,116,41
299.5305,299.6394,52,116,41
299.64413,299.75302,55,116,41
299.75775,299.86667,55,116,41
299.8714,299.98032,55,116,41
299.98505,300.09393,55,116,41
300.09866,300.20758,58,116,41
300.2123,300.3212,58,116,41
300.32596,300.43484,58,116,41
300.43958,300.5485,58,116,41
300.55322,300.6621,61,116,41
300.66687,300.77576,61,116,41
300.7805,301.68958,64,116,41
301.68958,302.48505,62,116,41
302.59866,302.70758,58,116,41
302.7123,302.822,58,116,41
302.82675,302.93723,61,116,41
302.94202,303.05328,61,116,41
303.05814,303.17023,61,116,41
303.1751,303.288,61,116,41
303.2929,303.40662,64,116,41
303.4116,303.52615,64,116,41
303.53116,303.64658,64,116,41
303.6516,303.7679,64,116,41
303.77298,303.89014,67,116,41
303.89526,304.01334,67,116,41
304.0185,304.13748,67,116,41
304.14267,304.26257,67,116,41
304.26782,304.38867,70,116,41
304.39398,304.5158,70,116,41
304.5211,305.54672,53,116,41
305.54672,306.57236,54,116,41
306.57236,307.59802,65,116,41
307.59802,308.49545,66,116,41
308.62366,308.68503,71,116,41
308.6906,308.75174,71,116,41
308.7573,308.8181,71,116,41
308.82364,308.88397,71,116,41
308.88947,308.94955,71,116,41
308.955,309.01477,71,116,41
309.0202,309.07953,71,116,41
309.0849,309.14398,71,116,41
309.14935,309.2081,71,116,41
309.21344,309.27176,71,116,41
309.27707,309.3352,71,116,41
309.34045,309.39822,71,116,41
309.40347,309.46085,71,116,41
309.46606,309.52325,71,116,41
309.5284,309.58524,71,116,41
309.5904,309.64685,71,116,41
309.65198,309.70825,71,116,41
309.71332,309.76923,71,116,41
309.7743,309.82986,71,116,41
309.8349,309.8903,71,116,41
309.8953,309.9503,71,116,41
309.9553,310.01,71,116,41
310.01498,310.0695,71,116,41
310.07443,310.12854,71,116,41
310.13348,310.18735,71,116,41
310.19223,310.24594,71,116,41
310.25076,310.30408,71,116,41
310.30893,310.362,71,116,41
310.3668,310.41968,71,116,41
310.42444,310.47693,71,116,41
310.4817,310.534,71,116,41
310.53873,310.5908,71,116,41
310.59555,310.64722,70,116,41
310.65192,310.70346,70,116,41
310.7081,310.75943,70,116,41
310.76407,310.81503,70,116,41
310.81964,310.87042,70,116,41
310.87503,310.92557,70,116,41
310.93018,310.98038,70,116,41
310.98495,311.035,70,116,41
311.03952,311.08936,71,116,41
311.09387,311.14337,71,116,41
311.1479,311.19724,71,116,41
311.20172,311.25082,71,116,41
311.25528,311.3041,71,116,41
311.30853,311.3572,71,116,41
311.3616,311.41003,71,116,41
311.41443,311.4626,71,116,41
311.46695,311.51498,75,116,41
311.51932,311.56705,75,116,41
311.5714,311.6189,75,116,41
311.6232,311.6706,75,116,41
311.67487,311.72195,75,116,41
311.72623,311.7731,75,116,41
311.77737,311.8241,75,116,41
311.82834,311.8748,75,116,41
311.879,311.92526,76,116,41
311.92947,311.9756,76,116,41
311.97977,312.0256,76,116,41
312.02975,312.07544,76,116,41
312.07956,312.1251,76,116,41
312.1292,312.17444,76,116,41
312.17856,312.22363,76,116,41
312.22772,312.27264,76,116,41
312.27673,312.6014,61,116,41
312.27673,312.6014,68,116,41
312.27673,312.6014,77,116,41
315.004,315.09735,58,116,41
315.1014,315.19476,60,116,41
315.19882,315.29214,58,116,41
315.2962,315.38956,60,116,41
315.39362,315.49103,61,116,41
315.49103,315.5884,63,116,41
315.5884,315.68582,61,116,41
315.68582,315.78323,63,116,41
315.78323,315.88065,61,116,41
315.88065,315.97803,63,116,41
315.97803,316.07544,61,116,41
316.07544,316.17285,63,116,41
316.17285,316.27023,61,116,41
316.27023,316.36765,63,116,41
316.36765,316.46506,61,116,41
316.46506,316.55838,60,116,41
316.56244,316.65985,58,116,41
316.65985,316.75726,60,116,41
316.75726,316.85464,58,116,41
316.85464,316.948,60,116,41
316.95206,317.04947,61,116,41
317.04947,317.14685,63,116,41
317.14685,317.24426,61,116,41
317.24426,317.34167,63,116,41
317.34167,317.4391,61,116,41
317.4391,317.53647,63,116,41
317.53647,317.63388,61,116,41
317.63388,317.7313,63,116,41
317.7313,317.82867,61,116,41
317.82867,317.9261,63,116,41
317.9261,318.0235,61,116,41
318.0235,318.11682,60,116,41
318.12088,318.2183,58,116,41
318.2183,318.3157,60,116,41
318.3157,318.4131,58,116,41
318.4131,318.50644,60,116,41
318.5105,318.60846,61,116,41
318.60846,318.7081,63,116,41
318.7081,318.8095,61,116,41
318.8095,318.91278,63,116,41
318.91278,319.0179,61,116,41
319.0179,319.12503,63,116,41
319.12503,319.2342,61,116,41
319.2342,319.3408,60,116,41
319.34546,319.45898,58,116,41
319.45898,319.57477,60,116,41
319.57477,319.69296,58,116,41
319.69296,319.8086,60,116,41
319.8137,319.93695,58,116,41
319.93695,320.06296,60,116,41
320.06296,320.19183,58,116,41
320.19183,320.31808,60,116,41
320.3236,321.15695,55,116,41
324.13315,324.6093,55,116,41
324.6093,325.0855,56,116,41
325.0855,325.5617,58,116,41
325.5617,326.0379,56,116,41
326.0379,326.43472,48,116,41
326.0379,326.43472,55,116,41
327.94266,328.41885,79,116,41
328.41885,328.89505,77,116,41
328.89505,329.37122,74,116,41
329.37122,329.8474,77,116,41
329.8474,330.32986,79,116,41
330.32986,330.83163,77,116,41
330.83163,331.35626,74,116,41
331.35626,331.81125,77,116,41
331.90384,332.3584,79,116,41
332.3584,332.81293,77,116,41
332.81293,333.2675,74,116,41
333.2675,333.72202,73,116,41
333.72202,334.17657,67,116,41
334.17657,334.6311,65,116,41
334.6311,335.08566,62,116,41
335.08566,335.46445,61,116,41
335.5402,336.90384,58,116,41
335.5402,336.90384,62,116,41
336.90384,337.28262,61,127,41
337.3584,338.72202,58,116,41
337.3584,338.72202,62,116,41
338.72202,339.1008,61,127,41
339.17657,340.08566,58,116,41
339.17657,340.08566,62,116,41
340.08566,340.99475,60,116,41
340.08566,340.99475,64,116,41
340.99475,341.4919,58,116,41
340.99475,341.4919,62,116,41
341.4919,341.92404,60,116,41
341.4919,341.92404,64,116,41
343.39008,343.84464,57,116,41
343.84464,344.75372,64,116,41
344.75372,344.90524,62,116,41
344.90524,345.05676,64,116,41
345.05676,345.20825,65,116,41
345.20825,345.6628,64,116,41
345.6628,345.89008,62,116,41
345.89008,346.11734,60,116,41
346.11734,346.5719,58,116,41
346.5719,346.79916,60,116,41
346.79916,347.02643,62,116,41
347.02643,348.39008,64,116,41
348.39008,348.5416,62,116,41
348.5416,348.6931,64,116,41
348.6931,348.84464,65,116,41
348.84464,349.29916,64,116,41
349.29916,349.52643,62,116,41
349.52643,349.75372,60,116,41
349.75372,350.20825,58,116,41
350.20825,350.43552,60,116,41
350.43552,350.6628,62,116,41
350.6628,351.79443,62,116,41
351.79916,352.02643,58,116,41
352.02643,352.25372,60,116,41
352.25372,352.481,62,116,41
352.481,352.93552,62,116,41
352.93552,353.1628,58,116,41
353.1628,353.39008,57,116,41
353.39008,353.8446,53,116,41
353.8446,354.29916,55,116,41
354.29916,355.43552,57,116,41
355.43552,355.6628,53,116,41
355.6628,355.89008,55,116,41
355.89008,356.11734,57,116,41
356.11734,356.96826,57,116,41
358.12814,358.6043,60,116,41
358.6043,359.5567,63,116,41
359.5567,359.71542,62,116,41
359.71542,359.87415,63,116,41
359.87415,360.0329,65,116,41
360.0329,360.5091,63,116,41
360.5091,360.74716,62,116,41
360.74716,360.98526,60,116,41
360.98526,361.46146,58,116,41
361.46146,361.69955,60,116,41
361.69955,361.93765,62,116,41
361.93765,363.3662,63,116,41
363.3662,363.52496,62,116,41
363.52496,363.6837,63,116,41
363.6837,363.8424,65,116,41
363.8424,364.3186,63,116,41
364.3186,364.5567,62,116,41
364.5567,364.78983,60,116,41
364.7948,365.27097,58,116,41
365.27097,365.50906,60,116,41
365.50906,365.74716,62,116,41
365.74716,367.0567,63,116,41
367.17575,367.33447,62,116,41
367.33447,367.4932,63,116,41
367.4932,367.65192,65,116,41
367.65192,368.96146,63,116,41
369.0805,369.23923,62,116,41
369.23923,369.39795,63,116,41
369.39795,369.5567,65,116,41
369.5567,370.8662,63,116,41
370.98526,371.14398,62,116,41
371.14398,371.3027,63,116,41
371.3027,371.46146,65,116,41
371.46146,372.81427,63,116,41
372.94238,373.11447,62,116,41
373.11447,373.28818,63,116,41
373.28818,373.46353,65,116,41
373.46353,374.9778,63,116,41
375.12195,375.31573,62,116,41
375.31573,375.51154,63,116,41
375.51154,375.70944,65,116,41
375.70944,377.08444,63,116,41
377.20944,377.3761,62,116,41
377.3761,377.54276,63,116,41
377.54276,377.70944,65,116,41
377.70944,379.08444,63,116,41
379.20944,379.3761,62,116,41
379.3761,379.54276,63,116,41
379.54276,379.70944,65,116,41
379.70944,380.70944,63,116,41
380.70944,381.20944,65,116,41
381.20944,381.6261,63,116,41
381.70944,383.20944,70,116,41
383.20944,383.6261,68,116,41
383.70944,385.21933,70,116,41
385.21933,385.64307,68,116,41
385.72778,386.75644,70,116,41
386.75644,387.66388,68,116,41
387.79544,388.84808,66,116,41
388.84808,389.38068,68,116,41
389.38068,389.8271,66,116,41
389.91638,390.9959,65,116,41
390.9959,391.54138,67,116,41
391.54138,391.9959,65,116,41
392.08682,392.739,59,127,41
392.739,393.28732,60,116,41
393.39844,394.57645,61,116,41
394.74692,395.9599,60,116,41
396.13434,397.38867,61,116,41
397.5716,399.62064,60,116,41
199.00082,199.05765,51,116,45
199.05765,199.11447,63,116,45
199.11447,199.45064,66,116,45
199.11447,199.45064,69,116,45
200.81902,200.87582,51,116,45
200.87582,200.93265,57,116,45
200.93265,201.26881,62,116,45
200.93265,201.26881,69,116,45
313.83517,314.15985,55,116,45
313.83517,314.15985,65,116,45
313.83517,314.15985,71,116,45
402.1611,402.5476,59,116,45
402.55585,402.94235,65,116,45
402.9506,403.3371,69,116,45
403.3453,403.73184,74,116,45
403.74005,404.74005,77,116,45
404.94006,405.94006,57,116,45
404.94006,405.94006,65,116,45
407.34006,408.34006,57,116,45
407.34006,408.34006,65,116,45
0.0,0.454545,41,116,42
0.454545,0.90909,43,116,42
0.90909,1.363635,45,116,42
1.363635,1.81818,46,116,42
1.81818,2.272725,48,116,42
2.272725,2.72727,50,116,42
2.72727,3.181815,52,116,42
3.181815,3.5606024,53,116,42
3.63636,4.090905,55,116,42
4.090905,4.54545,57,116,42
4.54545,4.999995,58,116,42
4.999995,5.45454,60,116,42
5.45454,5.9718194,62,116,42
5.9718194,6.507576,64,116,42
6.507576,7.0631785,65,116,42
7.0631785,7.543067,64,116,42
7.6401544,8.549245,63,116,42
8.549245,9.458335,61,116,42
9.458335,9.91288,60,116,42
9.91288,10.367425,58,116,42
10.367425,10.821969,56,116,42
10.821969,11.731059,53,116,42
11.731059,12.185604,51,116,42
12.185604,12.564392,48,116,42
12.640149,13.094694,44,116,42
13.094694,14.003784,44,116,42
14.003784,14.799238,43,116,42
14.912874,15.821964,43,116,42
14.912874,15.821964,50,116,42
15.821964,16.731054,46,116,42
15.821964,16.731054,53,116,42
16.731054,18.09469,50,116,42
18.09469,18.473476,46,116,42
18.09469,18.473476,53,116,42
18.549234,19.458324,43,116,42
18.549234,19.458324,50,116,42
19.458324,20.367414,46,116,42
19.458324,20.367414,53,116,42
20.367414,21.617413,50,116,42
21.731049,22.185595,46,116,42
21.731049,22.185595,53,116,42
22.185595,23.094685,43,116,42
22.185595,23.094685,50,116,42
23.094685,24.003775,46,116,42
24.003775,24.912865,43,116,42
24.003775,24.912865,50,116,42
24.912865,25.821955,46,116,42
25.821955,26.731045,43,116,42
25.821955,26.731045,50,116,42
26.731045,27.640135,46,116,42
27.640135,28.601427,43,116,42
27.640135,28.601427,50,116,42
28.601427,29.704296,48,116,42
29.704296,30.613386,41,116,42
30.613386,31.06793,45,116,42
31.06793,31.522476,46,116,42
31.522476,31.97702,48,116,42
31.97702,32.431564,50,116,42
32.431564,32.886112,52,116,42
32.886112,33.264896,53,116,42
33.340656,33.7952,55,116,42
33.7952,34.249744,57,116,42
34.249744,34.704292,58,116,42
34.704292,35.158836,60,116,42
35.158836,35.61338,62,116,42
35.61338,36.067924,64,116,42
36.067924,36.522472,65,116,42
36.522472,36.977016,67,116,42
36.977016,37.355804,69,116,42
42.431557,43.79519,36,116,42
43.79519,44.173977,48,116,42
44.249737,44.70428,60,116,42
44.70428,45.08307,48,116,42
45.158825,46.52246,36,116,42
46.52246,46.90125,48,116,42
46.977005,47.43155,60,116,42
47.43155,47.810337,48,116,42
47.886097,48.795185,50,116,42
48.795185,49.59064,51,116,42
49.704277,50.15882,40,116,42
50.15882,51.06791,52,116,42
51.06791,51.90124,52,116,42
51.977,52.88609,40,116,42
52.88609,53.71942,52,116,42
53.79518,54.249725,40,116,42
54.249725,54.374725,48,116,42
54.374725,54.499725,50,116,42
54.499725,54.624725,48,116,42
54.624725,54.749725,47,116,42
54.749725,54.874725,45,116,42
54.874725,54.999725,47,116,42
54.999725,55.124725,45,116,42
55.124725,55.24452,43,116,42
55.249725,56.158817,41,116,42
56.158817,56.95427,42,116,42
57.067905,57.446693,41,116,42
58.886086,59.795174,56,116,42
59.795174,60.59063,57,116,42
60.704266,61.120934,56,116,42
62.721214,63.755695,37,116,42
63.755695,64.660866,40,116,42
64.79018,65.82466,49,116,42
65.82466,66.72983,52,116,42
66.85914,66.91841,61,116,42
66.9238,66.98306,61,116,42
66.98845,67.04772,61,116,42
67.05311,67.11173,61,116,42
67.117035,67.17529,61,116,42
67.18059,67.23885,61,116,42
67.24415,67.30219,61,116,42
67.3074,67.36469,61,116,42
67.3699,67.42719,63,116,42
67.4324,67.48969,63,116,42
67.4949,67.55134,63,116,42
67.55646,67.612816,63,116,42
67.617935,67.674286,63,116,42
67.67941,67.73531,63,116,42
67.74035,67.79579,63,116,42
67.800835,67.85628,63,116,42
67.86132,67.91668,64,116,42
67.92164,67.976204,64,116,42
67.98116,68.03573,64,116,42
68.04069,68.09525,64,116,42
68.10021,68.15411,64,116,42
68.159,68.21271,64,116,42
68.21759,68.2713,64,116,42
68.276184,68.32956,64,116,42
68.334366,68.38725,66,116,42
68.39206,68.44495,66,116,42
68.44975,68.50264,66,116,42
68.50737,68.559456,66,116,42
68.56419,68.61627,66,116,42
68.62101,68.67309,66,116,42
68.677826,68.72938,66,116,42
68.73405,68.78535,66,116,42
68.790016,68.84132,67,116,42
68.845985,68.89709,67,116,42
68.90168,68.95223,67,116,42
68.956825,69.00738,67,116,42
69.01197,69.06252,67,116,42
69.06712,69.116974,67,116,42
69.1215,69.17132,67,116,42
69.17585,69.22567,67,116,42
69.230194,69.279625,69,116,42
69.284096,69.3332,69,116,42
69.33766,69.38677,69,116,42
69.391235,69.440216,69,116,42
69.44462,69.493034,69,116,42
69.49744,69.54585,69,116,42
69.550255,69.59866,69,116,42
69.603065,69.6509,69,116,42
69.65524,69.70299,70,116,42
69.70733,69.755066,70,116,42
69.75941,69.806854,70,116,42
69.811134,69.85822,70,116,42
69.8625,69.90959,70,116,42
69.91388,69.96094,70,116,42
69.96516,70.01161,70,116,42
70.01583,70.06229,70,116,42
70.06651,70.11296,72,116,42
70.11719,70.163185,72,116,42
70.16735,70.21319,72,116,42
70.217354,70.26319,72,116,42
70.26736,70.312996,72,116,42
70.31711,70.362335,72,116,42
70.36645,70.41168,72,116,42
70.415794,70.46102,72,116,42
70.46513,70.78981,73,116,42
73.192406,73.51708,49,116,42
73.582016,73.90669,52,116,42
74.75085,75.14046,49,116,42
75.14046,75.465126,52,116,42
76.30928,76.69889,49,116,42
76.69889,77.734085,52,116,42
77.734085,78.86707,51,116,42
78.86707,78.98071,45,116,42
78.98071,79.094345,46,116,42
79.094345,79.207985,45,116,42
79.207985,79.32162,46,116,42
79.32162,79.43526,45,116,42
79.43526,79.54889,46,116,42
79.54889,79.66253,45,116,42
79.66253,79.77616,46,116,42
79.77616,79.8898,45,116,42
79.8898,80.00343,46,116,42
80.00343,80.11707,45,116,42
80.11707,80.230705,46,116,42
80.230705,80.344345,45,116,42
80.344345,80.457985,46,116,42
80.457985,80.57162,45,116,42
80.57162,80.68526,46,116,42
80.68526,80.90779,45,116,42
80.91253,81.1398,46,116,42
81.1398,81.36707,49,116,42
81.36707,81.594345,50,116,42
81.594345,81.82162,52,116,42
81.82162,82.04889,53,116,42
82.04889,82.27616,55,116,42
82.27616,82.50343,56,116,42
82.50343,84.32162,57,127,42
84.32162,84.54415,57,116,42
84.54889,84.77616,58,116,42
84.77616,85.00343,61,116,42
85.00343,85.230705,62,116,42
85.230705,85.45798,64,116,42
85.45798,85.68525,65,116,42
85.68525,85.91252,67,116,42
85.91252,86.135056,68,116,42
86.13979,86.59434,69,116,42
86.59434,87.04888,67,116,42
87.04888,87.503426,64,116,42
87.503426,87.95798,67,116,42
87.95798,88.41252,69,116,42
88.41252,88.867065,67,116,42
88.867065,89.32161,64,116,42
89.32161,89.77615,67,116,42
89.77615,90.15494,69,116,42
91.139786,91.59434,63,127,42
91.59434,91.97312,57,116,42
92.95797,93.41251,63,116,42
93.41251,93.7913,57,116,42
94.776146,95.23069,63,116,42
95.23069,95.60948,57,116,42
125.96142,131.83643,46,116,42
131.96143,135.96143,46,116,42
135.96143,142.06548,44,116,42
142.06548,148.16954,42,116,42
142.06548,148.16954,49,116,42
148.16954,156.14201,40,116,42
148.16954,156.14201,47,116,42
156.2736,156.65239,38,116,42
156.2736,156.65239,45,116,42
172.18268,173.09177,63,116,42
173.09177,173.54631,59,116,42
173.54631,174.00085,58,116,42
174.00085,174.4554,56,116,42
174.4554,174.90994,55,116,42
174.90994,175.13722,53,116,42
175.13722,175.36449,55,116,42
175.36449,175.59177,56,116,42
175.59177,175.81903,58,116,42
175.81903,176.27357,59,116,42
176.27357,177.6372,63,127,42
177.6372,178.09175,59,116,42
178.09175,179.4554,63,116,42
179.4554,179.90994,59,116,42
179.90994,180.36449,63,116,42
180.36449,181.11732,65,116,42
181.12206,181.4251,63,116,42
181.4251,181.72812,65,116,42
181.72812,182.97812,66,116,42
196.27356,196.34932,39,116,42
196.34932,196.42508,47,116,42
196.42508,196.4961,54,116,42
196.50082,196.72337,54,116,42
196.95538,197.03113,54,116,42
197.03113,197.10689,47,116,42
197.10689,197.17792,39,116,42
197.18265,197.40518,39,116,42
197.63719,198.01598,63,116,42
198.09174,199.45537,66,116,42
199.45537,199.60689,65,116,42
199.60689,199.7584,66,116,42
199.7584,199.90518,68,116,42
199.90991,200.36446,66,116,42
200.36446,201.27356,69,116,42
201.27356,201.7281,66,116,42
201.7281,202.18265,65,116,42
202.18265,202.56143,63,116,42
202.63719,202.71295,39,116,42
202.71295,202.7887,47,116,42
202.7887,202.85973,54,116,42
202.86446,203.087,54,116,42
203.319,203.39476,54,116,42
203.39476,203.47052,47,116,42
203.47052,203.54155,39,116,42
203.54628,204.45537,39,116,42
204.45537,205.36446,41,116,42
205.36446,206.27354,42,116,42
206.27354,207.18263,44,116,42
207.18263,208.09174,45,116,42
208.09174,208.88718,47,116,42
209.00082,209.45537,48,116,42
209.45537,209.90991,50,116,42
209.90991,210.36446,51,116,42
210.36446,210.74324,53,116,42
210.819,211.31693,54,116,42
211.31693,211.80673,56,116,42
211.80673,212.28867,57,116,42
212.28867,212.68425,59,116,42
212.76299,212.8167,60,116,42
212.82158,212.87529,60,116,42
212.88017,212.93388,60,116,42
212.93877,212.99248,60,116,42
212.99736,213.05066,60,116,42
213.0555,213.1088,60,116,42
213.11363,213.16693,60,116,42
213.17178,213.22507,60,116,42
213.22992,213.2828,62,116,42
213.28761,213.3405,62,116,42
213.3453,213.3982,62,116,42
213.403,213.45589,62,116,42
213.4607,213.51317,62,116,42
213.51794,213.57042,62,116,42
213.5752,213.62767,62,116,42
213.63245,213.68492,62,116,42
213.6897,213.74178,63,116,42
213.7465,213.7986,63,116,42
213.80333,213.85541,63,116,42
213.86015,213.91223,63,116,42
213.91696,213.96866,63,116,42
213.97336,214.02505,63,116,42
214.02975,214.08144,63,116,42
214.08614,214.13783,63,116,42
214.14253,214.19383,62,116,42
214.1985,214.2498,62,116,42
214.25447,214.30577,62,116,42
214.31044,214.36174,62,116,42
214.36641,214.41734,62,116,42
214.42197,214.4729,62,116,42
214.47752,214.52844,62,116,42
214.53308,214.584,62,116,42
214.58864,214.63919,60,116,42
214.64378,214.69434,60,116,42
214.69893,214.74948,60,116,42
214.75407,214.80463,60,116,42
214.80922,214.8594,60,116,42
214.86397,214.91415,60,116,42
214.91872,214.96889,60,116,42
214.97345,215.02364,60,116,42
215.0282,215.07802,62,116,42
215.08255,215.13237,62,116,42
215.1369,215.1867,62,116,42
215.19124,215.24106,62,116,42
215.24559,215.29504,62,116,42
215.29955,215.34901,62,116,42
215.3535,215.40297,62,116,42
215.40746,215.45692,62,116,42
215.46141,215.51053,63,116,42
215.51498,215.5641,63,116,42
215.56856,215.61766,63,116,42
215.62213,215.67123,63,116,42
215.6757,215.72446,63,116,42
215.7289,215.77765,63,116,42
215.78209,215.83084,63,116,42
215.83528,215.88403,63,116,42
215.88847,215.93689,62,116,42
215.94128,215.9897,62,116,42
215.9941,216.04251,62,116,42
216.04692,216.09534,62,116,42
216.09973,216.14781,62,116,42
216.15218,216.20026,62,116,42
216.20464,216.2527,62,116,42
216.25708,216.30516,62,116,42
216.30952,216.35727,60,116,42
216.3616,216.40935,60,116,42
216.4137,216.46144,60,116,42
216.46577,216.51352,60,116,42
216.51785,216.56528,60,116,42
216.56958,216.617,60,116,42
216.6213,216.66872,60,116,42
216.67303,216.72044,60,116,42
216.72476,216.77185,62,116,42
216.77612,216.82321,62,116,42
216.8275,216.87459,62,116,42
216.87886,216.92595,62,116,42
216.93024,216.977,62,116,42
216.98126,217.02803,62,116,42
217.03227,217.07904,62,116,42
217.0833,217.13007,62,116,42
217.13432,217.18077,63,116,42
217.185,217.23145,63,116,42
217.23567,217.28212,63,116,42
217.28635,217.3328,63,116,42
217.33702,217.38316,63,116,42
217.38736,217.4335,63,116,42
217.43768,217.48383,63,116,42
217.48802,217.53416,63,116,42
217.53836,217.5842,62,116,42
217.58836,217.6342,62,116,42
217.63837,217.68419,62,116,42
217.68835,217.73419,62,116,42
217.73836,217.78389,62,116,42
217.78802,217.83356,62,116,42
217.83769,217.88322,62,116,42
217.88736,217.93289,62,116,42
217.93704,217.98227,60,116,42
217.98637,218.0316,60,116,42
218.03572,218.08095,60,116,42
218.08507,218.1303,60,116,42
218.1344,218.17934,60,116,42
218.18343,218.22836,60,116,42
218.23244,218.27737,60,116,42
218.28146,218.3264,60,116,42
218.33047,218.37512,62,116,42
218.37918,218.42383,62,116,42
218.42789,218.47253,62,116,42
218.47658,218.52122,62,116,42
218.52528,218.56964,62,116,42
218.57367,218.61803,62,116,42
218.62206,218.66641,62,116,42
218.67044,218.7148,62,116,42
218.71884,218.76291,63,116,42
218.7669,218.81097,63,116,42
218.81499,218.85905,63,116,42
218.86307,218.90714,63,116,42
218.91115,218.95493,63,116,42
218.95891,219.0027,63,116,42
219.00668,219.05048,63,116,42
219.05446,219.09824,63,116,42
219.10222,219.14574,62,116,42
219.14969,219.1932,62,116,42
219.19716,219.24068,62,116,42
219.24463,219.28815,62,116,42
219.2921,219.33534,62,116,42
219.33926,219.3825,62,116,42
219.38644,219.42967,62,116,42
219.43361,219.47685,62,116,42
219.48077,219.63078,42,116,42
219.48077,219.63078,49,116,42
219.63078,219.77452,49,116,42
219.63078,219.77452,58,116,42
219.78078,219.92784,49,116,42
219.78078,219.92784,58,116,42
219.92784,220.06877,42,116,42
219.92784,220.06877,49,116,42
220.07489,220.21913,42,116,42
220.07489,220.21913,49,116,42
220.21913,220.35735,49,116,42
220.21913,220.35735,58,116,42
220.36336,220.50487,49,116,42
220.36336,220.50487,58,116,42
220.50487,220.64047,42,116,42
220.50487,220.64047,49,116,42
220.64638,220.78526,42,116,42
220.64638,220.78526,48,116,42
220.78526,220.91837,48,116,42
220.78526,220.91837,58,116,42
220.92415,221.06052,48,116,42
220.92415,221.06052,58,116,42
221.06052,221.1912,42,116,42
221.06052,221.1912,48,116,42
221.19688,221.33081,42,116,42
221.19688,221.33081,48,116,42
221.33081,221.45915,48,116,42
221.33081,221.45915,58,116,42
221.46474,221.59631,48,116,42
221.46474,221.59631,58,116,42
221.59631,221.72241,42,116,42
221.59631,221.72241,48,116,42
221.72789,221.8561,42,116,42
221.72789,221.8561,49,116,42
221.8561,221.97896,49,116,42
221.8561,221.97896,58,116,42
221.9843,222.1125,49,116,42
221.9843,222.1125,58,116,42
222.1125,222.23537,42,116,42
222.1125,222.23537,49,116,42
222.2407,222.36891,42,116,42
222.2407,222.36891,49,116,42
222.36891,222.49178,49,116,42
222.36891,222.49178,58,116,42
222.49712,222.62532,49,116,42
222.49712,222.62532,58,116,42
222.62532,222.74818,42,116,42
222.62532,222.74818,49,116,42
222.75354,222.88174,42,116,42
222.75354,222.88174,48,116,42
222.88174,223.00461,48,116,42
222.88174,223.00461,58,116,42
223.00995,223.13815,48,116,42
223.00995,223.13815,58,116,42
223.13815,223.26102,42,116,42
223.13815,223.26102,48,116,42
223.26636,223.39456,42,116,42
223.26636,223.39456,48,116,42
223.39456,223.51743,48,116,42
223.39456,223.51743,58,116,42
223.52277,223.65097,48,116,42
223.52277,223.65097,58,116,42
223.65097,223.77383,42,116,42
223.65097,223.77383,48,116,42
223.77917,223.90738,42,116,42
223.77917,223.90738,49,116,42
223.90738,224.03024,49,116,42
223.90738,224.03024,58,116,42
224.03558,224.16379,49,116,42
224.03558,224.16379,58,116,42
224.16379,224.28665,42,116,42
224.16379,224.28665,49,116,42
224.29199,224.4202,42,116,42
224.29199,224.4202,49,116,42
224.4202,224.54306,49,116,42
224.4202,224.54306,58,116,42
224.5484,224.6766,49,116,42
224.5484,224.6766,58,116,42
224.6766,224.79947,42,116,42
224.6766,224.79947,49,116,42
226.44118,226.98663,43,116,42
226.98663,227.44118,36,116,42
224.80481,230.80481,42,116,42
228.07753,230.80481,42,116,42
230.80481,231.35027,43,116,42
231.35027,232.30481,36,116,42
234.62299,241.7131,42,116,42
242.00157,242.45612,41,116,42
242.45612,242.91066,43,116,42
242.91066,243.3652,45,116,42
243.3652,243.81975,46,116,42
243.81975,244.27429,48,116,42
244.27429,244.72884,50,116,42
244.72884,245.1834,52,116,42
245.1834,245.56218,53,116,42
245.63794,246.09248,55,116,42
246.09248,246.54703,57,116,42
246.54703,247.00157,58,116,42
247.00157,247.38036,60,116,42
247.45612,247.96301,62,116,42
247.96301,248.4913,64,116,42
248.4913,249.04498,65,116,42
249.04498,249.52626,64,116,42
249.6243,250.53339,62,116,42
250.53339,251.44247,60,116,42
251.44247,251.89702,59,116,42
251.89702,252.35156,57,116,42
252.35156,252.8061,55,116,42
252.8061,253.18489,52,116,42
253.26065,253.7152,52,116,42
253.7152,254.16974,50,116,42
254.16974,254.62428,47,116,42
254.62428,255.07883,43,116,42
255.07883,255.98793,43,116,42
255.98793,256.7834,42,116,42
256.897,257.8061,41,116,42
257.8061,258.71518,44,116,42
258.71518,259.62427,47,116,42
259.62427,260.41974,44,116,42
260.5334,261.44247,41,116,42
261.44247,262.35156,44,116,42
262.35156,263.26065,47,116,42
263.26065,264.16974,44,116,42
264.16974,265.07883,41,116,42
265.07883,265.9879,44,116,42
265.9879,266.897,41,116,42
266.897,267.8061,44,116,42
267.8061,269.51065,47,116,42
269.62427,271.54968,48,116,42
271.6896,272.5987,41,116,42
272.5987,273.05325,45,116,42
273.05325,273.50778,46,116,42
273.50778,273.96234,48,116,42
273.96234,274.41687,50,116,42
274.41687,274.87143,52,116,42
274.87143,275.2502,53,116,42
275.32596,275.78052,55,116,42
275.78052,276.23505,57,116,42
276.23505,276.6896,58,116,42
276.6896,277.14417,60,116,42
277.14417,277.5987,62,116,42
277.5987,278.05325,64,116,42
278.05325,278.50778,65,116,42
278.50778,278.96234,67,116,42
278.96234,279.34113,69,116,42
284.41687,285.78052,36,116,42
285.78052,286.1593,48,116,42
286.23505,286.6896,60,116,42
286.6896,287.0684,48,116,42
287.14413,288.50778,36,116,42
288.50778,288.88657,48,116,42
288.9623,289.41687,60,116,42
289.41687,289.79565,48,116,42
289.8714,290.7805,41,116,42
290.7805,291.57596,40,116,42
291.6896,292.14413,39,116,42
292.14413,292.5987,51,116,42
292.5987,292.97748,61,116,42
293.05322,293.9623,51,116,42
293.9623,294.75778,39,116,42
294.8714,295.7805,51,116,42
295.7805,296.15927,39,116,42
296.23505,296.34866,48,116,42
296.34866,296.4623,46,116,42
296.4623,296.57596,44,116,42
296.57596,296.68484,43,116,42
296.68958,296.80322,43,116,42
296.80322,296.91687,44,116,42
296.91687,297.0305,43,116,42
297.0305,297.1394,41,116,42
297.14413,298.05322,40,116,42
298.05322,298.84866,41,116,42
298.9623,299.3411,40,116,42
300.7805,301.68958,55,116,42
301.68958,302.48505,56,116,42
302.59866,302.98062,55,116,42
304.5211,305.54672,37,116,42
305.54672,306.57236,44,116,42
306.57236,307.59802,49,116,42
307.59802,308.49545,56,116,42
308.62366,308.68503,61,116,42
308.6906,308.75174,61,116,42
308.7573,308.8181,61,116,42
308.82364,308.88397,61,116,42
308.88947,308.94955,61,116,42
308.955,309.01477,61,116,42
309.0202,309.07953,61,116,42
309.0849,309.14398,61,116,42
309.14935,309.2081,63,116,42
309.21344,309.27176,63,116,42
309.27707,309.3352,63,116,42
309.34045,309.39822,63,116,42
309.40347,309.46085,63,116,42
309.46606,309.52325,63,116,42
309.5284,309.58524,63,116,42
309.5904,309.64685,63,116,42
309.65198,309.70825,64,116,42
309.71332,309.76923,64,116,42
309.7743,309.82986,64,116,42
309.8349,309.8903,64,116,42
309.8953,309.9503,64,116,42
309.9553,310.01,64,116,42
310.01498,310.0695,64,116,42
310.07443,310.12854,64,116,42
310.13348,310.18735,65,116,42
310.19223,310.24594,65,116,42
310.25076,310.30408,65,116,42
310.30893,310.362,65,116,42
310.3668,310.41968,65,116,42
310.42444,310.47693,65,116,42
310.4817,310.534,65,116,42
310.53873,310.5908,65,116,42
310.59555,310.64722,64,116,42
310.65192,310.70346,64,116,42
310.7081,310.75943,64,116,42
310.76407,310.81503,64,116,42
310.81964,310.87042,64,116,42
310.87503,310.92557,64,116,42
310.93018,310.98038,64,116,42
310.98495,311.035,64,116,42
311.03952,311.08936,65,116,42
311.09387,311.14337,65,116,42
311.1479,311.19724,65,116,42
311.20172,311.25082,65,116,42
311.25528,311.3041,65,116,42
311.30853,311.3572,65,116,42
311.3616,311.41003,65,116,42
311.41443,311.4626,65,116,42
311.46695,311.51498,66,116,42
311.51932,311.56705,66,116,42
311.5714,311.6189,66,116,42
311.6232,311.6706,66,116,42
311.67487,311.72195,66,116,42
311.72623,311.7731,66,116,42
311.77737,311.8241,66,116,42
311.82834,311.8748,66,116,42
311.879,311.92526,67,116,42
311.92947,311.9756,67,116,42
311.97977,312.0256,67,116,42
312.02975,312.07544,67,116,42
312.07956,312.1251,67,116,42
312.1292,312.17444,67,116,42
312.17856,312.22363,67,116,42
312.22772,312.27264,67,116,42
312.27673,312.6014,68,116,42
315.004,315.32867,52,116,42
315.39362,315.7183,55,116,42
316.56244,316.88712,52,116,42
316.95206,317.27673,55,116,42
318.12088,318.44556,52,116,42
318.5105,320.19183,55,127,42
320.3236,320.44266,48,116,42
320.44266,320.5617,49,116,42
320.5617,320.68076,48,116,42
320.68076,320.7998,49,116,42
320.7998,320.91885,48,116,42
320.91885,321.0379,49,116,42
321.0379,321.15695,48,116,42
321.15695,321.276,49,116,42
321.276,321.39505,48,116,42
321.39505,321.5141,49,116,42
321.5141,321.63315,48,116,42
321.63315,321.7522,49,116,42
321.7522,321.87125,48,116,42
321.87125,321.9903,49,116,42
321.9903,322.10934,48,116,42
322.10934,322.22836,49,116,42
322.22836,322.46152,48,116,42
322.46646,322.70456,49,116,42
322.70456,322.94266,52,116,42
322.94266,323.18076,53,116,42
323.18076,323.41885,55,116,42
323.41885,323.65695,56,116,42
323.65695,323.89505,58,116,42
323.89505,324.12817,59,116,42
324.13315,324.6093,60,127,42
324.6093,325.0855,61,116,42
325.0855,325.5617,63,127,42
325.5617,326.0379,61,116,42
326.0379,326.27103,60,127,42
326.276,326.5141,61,116,42
326.5141,326.7522,64,116,42
326.7522,326.99026,65,116,42
326.99026,327.22836,67,116,42
327.22836,327.46646,68,116,42
327.46646,327.70456,70,116,42
327.70456,327.93768,71,116,42
327.94266,328.41885,72,116,42
328.41885,328.89505,70,116,42
328.89505,329.37122,67,116,42
329.37122,329.8474,70,116,42
329.8474,330.32986,72,116,42
330.32986,330.83163,70,116,42
330.83163,331.35626,67,116,42
331.35626,331.81125,70,116,42
331.90384,332.3584,72,116,42
332.3584,332.81293,70,116,42
332.81293,333.2675,67,116,42
333.2675,333.72202,65,116,42
333.72202,334.17657,60,116,42
334.17657,334.6311,58,116,42
334.6311,335.08566,55,116,42
335.08566,335.46445,53,116,42
369.5567,375.5609,49,116,42
375.70944,381.58444,49,116,42
381.70944,383.20944,54,116,42
381.70944,383.58444,47,116,42
383.20944,383.6261,53,116,42
383.70944,385.21933,54,116,42
383.70944,385.60068,47,116,42
385.21933,385.64307,53,116,42
385.72778,386.75644,54,116,42
385.72778,387.66388,47,116,42
386.75644,387.66388,53,116,42
387.79544,389.78244,45,116,42
387.79544,389.78244,52,116,42
389.91638,391.95047,43,116,42
389.91638,391.95047,50,116,42
392.08682,393.23175,41,116,42
392.08682,393.23175,48,116,42
393.39844,394.57645,39,116,42
393.39844,394.57645,46,116,42
394.74692,395.9599,41,116,42
394.74692,395.9599,48,116,42
396.13434,397.38867,39,116,42
396.13434,397.38867,46,116,42
397.5716,399.62064,41,116,42
397.5716,399.62064,48,116,42
38.795197,39.173985,43,116,45
41.522465,41.901253,43,116,45
99.68112,100.07795,45,116,45
100.15731,100.55414,38,116,45
103.49064,103.88747,45,116,45
103.966835,104.363655,38,116,45
107.30016,107.69698,46,116,45
107.77635,108.17318,39,116,45
111.10968,111.50651,50,116,45
111.58587,111.9827,43,116,45
113.01444,113.41127,57,116,45
113.49063,113.88746,45,116,45
114.919205,115.316025,45,116,45
115.39539,115.79221,38,116,45
117.30015,117.696976,43,116,45
117.30015,117.696976,50,116,45
118.72872,119.12555,45,116,45
119.20491,119.60174,38,116,45
121.10967,121.50649,43,116,45
121.10967,121.50649,50,116,45
122.53824,122.93507,45,116,45
123.014435,123.411255,38,116,45
168.94405,169.00085,41,116,45
169.00085,169.37964,47,116,45
169.00085,169.37964,56,116,45
183.5463,183.92508,41,116,45
185.36447,185.74327,41,116,45
187.18266,187.56145,41,116,45
189.00084,189.37962,39,116,45
190.81902,191.1978,39,116,45
194.45538,194.83417,39,116,45
280.78052,281.1593,43,116,45
283.50778,283.88657,43,116,45
335.5402,335.919,43,116,45
335.5402,335.919,50,116,45
336.4493,336.8281,36,116,45
337.3584,337.73718,43,116,45
337.3584,337.73718,50,116,45
338.2675,338.64627,36,116,45
339.17657,339.55536,43,116,45
339.17657,339.55536,50,116,45
340.08566,340.46445,36,127,45
343.84464,344.22342,48,116,45
344.29916,344.67795,41,116,45
347.481,347.85977,48,116,45
347.93555,348.31433,41,116,45
351.11734,351.49612,46,116,45
351.5719,351.95068,39,116,45
354.7537,355.1325,50,116,45
355.20825,355.58704,43,116,45
356.5985,357.00995,48,116,45
357.09326,357.51694,36,116,45
358.6043,359.00113,48,116,45
359.0805,359.47733,41,116,45
360.98526,361.38208,43,116,45
360.98526,361.38208,50,116,45
362.41385,362.81067,48,116,45
362.89,363.28687,41,116,45
364.7948,365.19162,43,116,45
364.7948,365.19162,50,116,45
366.22336,366.62018,48,116,45
366.69955,367.09637,41,116,45
400.9769,401.3634,43,116,45
401.37164,401.75815,50,116,45
401.76636,402.1529,57,116,45
404.94006,405.94006,41,116,45
404.94006,405.94006,48,116,45
407.34006,408.34006,41,116,45
407.34006,408.34006,48,116,45
