start_time,end_time,note_value,velocity,instrument_program_number
0.0,0.36231834,69,112,45
0.434782,0.64764404,76,112,45
0.869564,1.0824261,72,112,45
1.086955,1.299817,74,112,45
1.304346,1.6666644,76,112,45
1.739128,2.1014464,69,112,45
2.17391,2.5362284,67,112,45
2.608692,2.9710104,69,112,45
3.043474,3.256336,76,112,45
3.478256,3.691118,72,112,45
3.695647,3.908509,74,112,45
3.913038,4.2753563,76,112,45
4.34782,4.7101383,69,112,45
4.782602,5.1449203,67,112,45
5.217384,5.5797024,65,112,45
5.652166,5.865028,72,112,45
6.086948,6.29981,69,112,45
6.304339,6.517201,71,112,45
6.52173,6.8840485,72,112,45
6.956512,7.3188305,65,112,45
7.391294,7.7536125,64,112,45
7.826076,8.188395,62,112,45
8.260858,8.47372,69,112,45
8.69564,8.908502,62,112,45
8.913031,9.125893,60,112,45
9.130422,9.492741,59,112,45
27.391266,27.753584,61,112,45
27.826048,28.03891,68,112,45
28.26083,28.473692,64,112,45
28.478222,28.691084,66,112,45
28.695612,29.05793,68,112,45
30.43474,30.489088,61,112,45
30.489088,30.864992,70,112,45
30.489088,30.864992,76,112,45
30.869522,30.92387,61,112,45
30.92387,31.299774,70,112,45
30.92387,31.299774,76,112,45
46.956455,47.318775,56,112,45
47.39124,47.753555,61,112,45
47.82602,48.18834,56,112,45
47.82602,48.18834,68,112,45
48.260803,48.62312,61,112,45
48.695583,49.071487,68,112,45
49.07602,49.125835,61,112,45
49.130367,49.492683,68,112,45
49.130367,49.492683,73,112,45
49.565147,49.927467,68,112,45
49.99993,50.362247,73,112,45
50.43471,50.810616,73,112,45
50.43471,50.810616,80,112,45
50.815147,50.864964,64,112,45
50.869495,51.23181,72,112,45
50.869495,51.23181,81,112,45
52.608624,52.97094,69,112,45
53.043404,53.405724,67,112,45
53.478188,53.840504,69,112,45
55.217316,55.57963,69,112,45
55.652096,56.014416,67,112,45
56.08688,56.449196,65,112,45
56.52166,56.734524,72,112,45
56.956444,57.169304,69,112,45
57.173832,57.386696,71,112,45
57.391224,57.753544,72,112,45
57.826008,58.188324,65,112,45
58.260788,58.623108,64,112,45
58.69557,59.057888,62,112,45
59.130352,59.343212,69,112,45
59.565132,59.777996,62,112,45
59.782524,59.995388,60,112,45
59.999916,60.362236,59,112,45
60.434696,60.797016,64,112,45
60.86948,61.2318,62,112,45
61.30426,61.66658,59,112,45
61.739044,62.101364,64,112,45
62.173824,62.536144,62,112,45
78.26076,78.62308,57,112,45
78.26076,78.62308,62,112,45
78.69554,78.9084,69,112,45
79.130325,79.343185,65,112,45
79.34772,79.56058,67,112,45
79.56511,79.92742,62,112,45
79.56511,79.92742,69,112,45
81.249886,81.299706,62,112,45
81.30424,81.68014,69,112,45
81.30424,81.68014,77,112,45
81.68467,81.73449,62,112,45
81.73901,82.10133,69,112,45
81.73901,82.10133,77,112,45
106.52159,106.88391,64,112,45
106.956375,107.31869,69,112,45
107.39115,107.75347,72,112,45
107.825935,108.20184,76,112,45
108.20637,108.25619,64,112,45
108.26072,108.62304,72,112,45
108.26072,108.62304,81,112,45
185.00021,185.5877,56,112,45
185.6002,186.18771,68,112,45
186.20021,186.7877,80,112,45
187.4002,187.98772,68,112,45
188.6002,189.18771,56,112,45
189.20021,189.7877,68,112,45
189.80022,190.38771,80,112,45
191.00021,191.5877,68,112,45
192.20021,192.7877,56,112,45
192.80022,193.38771,68,112,45
193.4002,193.98772,80,112,45
194.6002,195.18771,68,112,45
195.85239,196.49097,80,112,45
205.41336,205.47195,67,112,45
205.47195,206.2532,76,112,45
205.47195,206.2532,83,112,45
212.73541,212.78348,67,112,45
212.7931,213.56233,76,112,45
212.7931,213.56233,83,112,45
223.79848,224.18597,59,112,45
224.19847,224.58597,64,112,45
224.59846,224.78596,59,112,45
224.79848,224.98598,62,112,45
224.99847,225.58597,64,112,45
226.19847,226.58597,72,112,45
226.59846,226.98598,79,112,45
226.99847,227.18597,76,112,45
227.19847,227.38597,78,112,45
227.39847,227.98598,79,112,45
228.59846,228.98598,72,112,45
228.99847,229.38597,79,112,45
229.39847,229.58597,76,112,45
229.59846,229.78596,78,112,45
229.79848,230.38597,79,112,45
230.99847,231.38597,60,112,45
231.39847,231.78596,67,112,45
231.79848,231.98598,64,112,45
231.99847,232.18597,66,112,45
232.19847,232.93285,67,112,45
275.43756,275.79987,64,112,45
275.87234,276.0852,71,112,45
276.30713,276.52,64,112,45
276.5245,276.73737,71,112,45
276.7419,277.10422,64,112,45
277.1767,277.38956,71,112,45
279.3506,279.71292,71,112,45
279.3506,279.71292,76,112,45
279.78537,279.99823,83,112,45
280.22015,280.433,71,112,45
280.22015,280.433,76,112,45
280.43756,280.65042,83,112,45
280.65494,281.01727,71,112,45
280.65494,281.01727,76,112,45
281.08972,281.30258,64,112,45
281.08972,281.30258,71,112,45
283.26364,283.62595,63,112,45
283.26364,283.62595,68,112,45
283.69843,283.9113,75,112,45
284.1332,284.34607,63,112,45
284.1332,284.34607,68,112,45
284.3506,284.56345,75,112,45
284.568,284.9303,63,112,45
284.568,284.9303,68,112,45
285.00278,285.21564,75,112,45
287.17667,287.539,63,127,45
287.17667,287.539,68,127,45
287.61145,287.8243,63,112,45
291.3071,291.66943,58,112,45
291.74188,292.1042,58,112,45
292.17667,292.38953,58,112,45
292.61145,292.97375,58,112,45
293.04623,293.40854,58,112,45
293.48102,293.69388,58,112,45
293.9158,294.2781,58,112,45
294.3506,294.7129,61,112,45
294.78537,294.99823,63,112,45
295.22015,295.58246,65,112,45
295.6549,296.03082,64,112,45
295.6549,296.03082,69,112,45
296.03537,296.08517,62,112,45
296.0897,296.30255,69,112,45
296.0897,296.30255,76,112,45
296.3071,296.6694,69,112,45
296.3071,296.6694,81,112,45
296.74188,296.95474,88,112,45
297.17667,297.38953,84,112,45
297.39404,297.6069,86,112,45
297.61145,297.98734,76,112,45
297.61145,297.98734,88,112,45
297.99188,298.0417,57,112,45
297.99188,298.0417,64,112,45
298.04623,298.42212,72,112,45
298.04623,298.42212,81,112,45
298.42667,298.47647,55,112,45
298.42667,298.47647,64,112,45
298.48102,298.84332,71,112,45
298.48102,298.84332,79,112,45
298.91577,299.2781,69,112,45
298.91577,299.2781,81,112,45
299.35056,299.56342,88,112,45
299.78534,299.9982,84,112,45
300.00275,300.2156,86,112,45
300.22012,300.59604,76,112,45
300.22012,300.59604,88,112,45
300.60056,300.6504,57,112,45
300.60056,300.6504,64,112,45
300.6549,301.03082,72,112,45
300.6549,301.03082,81,112,45
301.03534,301.08517,55,112,45
301.03534,301.08517,64,112,45
301.0897,301.4656,71,112,45
301.0897,301.4656,79,112,45
301.47012,301.51996,65,112,45
301.52448,301.8868,72,112,45
301.52448,301.8868,77,112,45
301.95926,302.17212,72,112,45
301.95926,302.17212,84,112,45
302.39404,302.6069,69,112,45
302.39404,302.6069,81,112,45
302.61142,302.8243,71,112,45
302.61142,302.8243,83,112,45
302.82883,303.20474,72,112,45
302.82883,303.20474,84,112,45
303.20926,303.25906,60,112,45
303.20926,303.25906,65,112,45
303.2636,303.63953,69,112,45
303.2636,303.63953,77,112,45
303.64404,303.69385,65,112,45
303.6984,304.07428,69,112,45
303.6984,304.07428,76,112,45
304.07883,304.12863,57,112,45
304.13318,304.49548,65,112,45
304.13318,304.49548,74,112,45
304.56796,304.78082,69,112,45
304.56796,304.78082,81,112,45
305.00275,305.2156,62,112,45
305.00275,305.2156,74,112,45
305.22012,305.43298,72,112,45
305.43753,305.79984,56,112,45
305.43753,305.79984,64,112,45
305.43753,305.79984,71,112,45
323.69836,324.06067,58,112,45
324.13315,324.346,64,112,45
324.56793,324.7808,61,112,45
324.7853,324.99817,63,112,45
325.00272,325.36502,55,112,45
325.00272,325.36502,64,112,45
326.6875,326.71014,55,112,45
326.71466,326.7373,64,112,45
326.74182,327.11774,70,112,45
326.74182,327.11774,76,112,45
327.12225,327.14493,55,112,45
327.14944,327.1721,64,112,45
327.1766,327.53894,73,112,45
350.22006,350.58237,76,112,45
350.65485,350.8677,72,112,45
350.87222,351.08508,74,112,45
351.08963,351.45193,76,112,45
351.5244,351.88672,69,112,45
351.9592,352.3215,72,112,45
352.39398,352.7563,69,112,45
352.39398,352.7563,81,112,45
352.82877,353.19107,69,112,45
352.82877,353.19107,88,112,45
353.26355,353.4764,84,112,45
353.48093,353.6938,86,112,45
353.6983,354.06064,69,112,45
353.6983,354.06064,88,112,45
354.1331,354.34595,84,112,45
354.3505,354.56335,86,112,45
354.56787,354.9302,88,112,45
355.00266,355.2155,69,112,45
355.00266,355.2155,84,112,45
355.22006,355.43292,86,112,45
355.43744,355.79977,88,112,45
355.87222,356.08508,84,112,45
356.08963,356.3025,86,112,45
356.307,356.66934,69,112,45
356.307,356.66934,88,112,45
357.61136,357.86465,72,112,45
357.87024,358.14743,74,112,45
358.15356,358.695,72,112,45
358.15356,358.695,76,112,45
359.4727,359.49503,57,112,45
359.49948,359.5218,64,112,45
359.52628,359.73608,57,112,45
359.52628,359.73608,64,112,45
359.52628,359.73608,72,112,45
359.52628,359.73608,81,112,45
10.86955,10.923898,64,112,40
10.923898,10.978246,66,112,40
10.978246,11.032593,64,112,40
11.032593,11.086941,66,112,40
11.086941,11.141289,64,112,40
11.141289,11.195637,66,112,40
11.195637,11.249984,64,112,40
11.249984,11.304332,66,112,40
11.304332,11.35868,64,112,40
11.35868,11.413028,66,112,40
11.413028,11.467375,64,112,40
11.467375,11.521723,66,112,40
11.521723,11.576071,64,112,40
11.576071,11.630419,66,112,40
11.630419,11.684766,64,112,40
11.684766,11.739114,66,112,40
11.739114,11.793462,64,112,40
11.793462,11.84781,66,112,40
11.84781,11.902157,64,112,40
11.902157,11.956505,66,112,40
11.956505,12.010853,64,112,40
12.010853,12.065201,66,112,40
12.065201,12.119548,64,112,40
12.119548,12.173896,66,112,40
12.173896,12.228244,76,112,40
12.228244,12.282592,78,112,40
12.282592,12.336939,76,112,40
12.336939,12.391287,78,112,40
12.391287,12.445635,76,112,40
12.445635,12.499983,78,112,40
12.499983,12.55433,76,112,40
12.55433,12.608678,78,112,40
12.608678,12.663026,76,112,40
12.663026,12.717374,78,112,40
12.717374,12.771721,76,112,40
12.771721,12.826069,78,112,40
12.826069,12.880417,76,112,40
12.880417,12.934765,78,112,40
12.934765,12.989112,76,112,40
12.989112,13.04346,78,112,40
13.04346,13.097808,76,112,40
13.097808,13.152156,78,112,40
13.152156,13.206503,76,112,40
13.206503,13.260851,78,112,40
13.260851,13.315199,76,112,40
13.315199,13.369547,78,112,40
13.369547,13.423894,76,112,40
13.423894,13.478242,78,112,40
13.478242,13.53259,88,112,40
13.53259,13.586938,90,112,40
13.586938,13.641285,88,112,40
13.641285,13.695633,90,112,40
13.695633,13.749981,88,112,40
13.749981,13.804329,90,112,40
13.804329,13.858676,88,112,40
13.858676,13.913024,90,112,40
13.913024,13.967372,88,112,40
13.967372,14.02172,90,112,40
14.02172,14.076067,88,112,40
14.076067,14.130415,90,112,40
14.130415,14.184763,88,112,40
14.184763,14.239111,90,112,40
14.239111,14.293458,88,112,40
14.293458,14.347806,90,112,40
14.347806,14.402154,88,112,40
14.402154,14.456502,90,112,40
14.456502,14.510849,88,112,40
14.510849,14.565197,90,112,40
14.565197,14.619545,88,112,40
14.619545,14.673893,90,112,40
14.673893,14.72824,88,112,40
14.72824,14.782588,90,112,40
14.782588,14.836936,88,112,40
14.836936,14.891283,90,112,40
14.891283,14.945631,88,112,40
14.945631,14.999979,90,112,40
14.999979,15.054327,88,112,40
15.054327,15.108674,90,112,40
15.108674,15.163022,88,112,40
15.163022,15.21737,90,112,40
15.21737,15.271718,88,112,40
15.271718,15.326065,90,112,40
15.326065,15.380413,88,112,40
15.380413,15.434761,90,112,40
15.434761,15.489109,88,112,40
15.489109,15.543456,90,112,40
15.543456,15.597804,88,112,40
15.597804,15.647623,90,112,40
15.652152,16.086933,88,112,40
16.086933,16.521715,87,112,40
16.521715,16.666643,85,112,40
16.666643,16.811571,87,112,40
16.811571,16.956497,88,112,40
16.956497,17.39128,90,112,40
17.39128,17.826061,85,112,40
17.826061,18.260843,90,112,40
18.260843,18.695625,88,112,40
18.695625,19.130407,87,112,40
19.130407,19.275335,85,112,40
19.275335,19.420263,87,112,40
19.420263,19.56519,88,112,40
19.56519,20.760841,80,112,40
20.869535,20.978231,76,127,40
20.978231,21.086927,80,112,40
21.086927,21.195623,82,112,40
21.195623,21.29979,80,112,40
21.304317,21.413013,76,127,40
21.413013,21.52171,80,112,40
21.52171,21.630405,82,112,40
21.630405,21.734571,80,112,40
21.7391,21.847795,76,127,40
21.847795,21.956491,80,112,40
21.956491,22.065186,82,112,40
22.065186,22.169353,80,112,40
22.173882,22.282578,78,112,40
22.282578,22.386744,80,112,40
22.391273,22.499968,82,112,40
22.499968,22.604136,80,112,40
22.608664,22.71736,78,112,40
22.71736,22.821526,80,112,40
22.826056,22.93475,82,112,40
22.93475,23.038918,80,112,40
23.043446,23.152142,78,112,40
23.152142,23.256308,80,112,40
23.260838,23.369532,82,112,40
23.369532,23.4737,80,112,40
23.478228,23.586924,76,112,40
23.586924,23.69109,80,112,40
23.69562,23.804314,82,112,40
23.804314,23.908482,80,112,40
23.91301,24.021706,76,112,40
24.021706,24.125872,80,112,40
24.130402,24.239096,82,112,40
24.239096,24.343264,80,112,40
24.347792,24.456488,76,112,40
24.456488,24.560654,80,112,40
24.565184,24.673878,82,112,40
24.673878,24.778046,80,112,40
24.782574,24.89127,76,112,40
24.89127,24.995436,78,112,40
24.999966,25.10866,83,112,40
25.10866,25.212828,78,112,40
25.217356,25.326052,76,112,40
25.326052,25.430218,78,112,40
25.434748,25.543442,83,112,40
25.543442,25.64761,78,112,40
25.652138,25.760834,76,112,40
25.760834,25.865,78,112,40
25.86953,25.978224,83,112,40
25.978224,26.082392,78,112,40
26.08692,26.141268,76,112,40
26.141268,26.195616,73,112,40
26.195616,26.249964,76,112,40
26.249964,26.304312,73,112,40
26.304312,26.358658,76,112,40
26.358658,26.413006,73,112,40
26.413006,26.467354,76,112,40
26.467354,26.521702,73,112,40
26.521702,26.57605,76,112,40
26.57605,26.630398,73,112,40
26.630398,26.684746,76,112,40
26.684746,26.739094,73,112,40
26.739094,26.79344,76,112,40
26.79344,26.847788,73,112,40
26.847788,26.902136,76,112,40
26.902136,26.956484,73,112,40
26.956484,27.169346,76,112,40
29.130394,29.23909,76,112,40
29.23909,29.347786,73,112,40
29.347786,29.45648,76,112,40
29.45648,29.565176,73,112,40
29.565176,29.673872,76,112,40
29.673872,29.782566,73,112,40
29.782566,29.891262,76,112,40
29.891262,29.999958,73,112,40
29.999958,30.21282,76,112,40
31.304304,31.739086,80,112,40
31.739086,32.101406,78,112,40
32.173866,32.318794,76,112,40
32.318794,32.463722,78,112,40
32.463722,32.60865,80,112,40
32.60865,32.97097,85,127,40
33.04343,33.18836,76,112,40
33.18836,33.333286,78,112,40
33.333286,33.473686,80,112,40
33.478214,33.840534,85,112,40
33.912994,34.057922,76,112,40
34.057922,34.20285,78,112,40
34.20285,34.34325,80,112,40
34.34778,34.710094,85,112,40
34.78256,34.927486,76,112,40
34.927486,35.072414,78,112,40
35.072414,35.217342,80,112,40
35.217342,35.57966,85,112,40
35.652122,35.79705,76,112,40
35.79705,35.94198,78,112,40
35.94198,36.086906,80,112,40
36.086906,36.449223,85,112,40
36.521687,36.666615,76,112,40
36.666615,36.811543,78,112,40
36.811543,36.95647,80,112,40
36.95647,37.318787,85,112,40
37.39125,37.53618,76,112,40
37.53618,37.681107,78,112,40
37.681107,37.821507,80,112,40
37.826035,37.875854,85,112,40
37.880383,37.9302,85,112,40
37.93473,37.984547,85,112,40
37.98908,38.038895,85,112,40
38.043427,38.093243,85,112,40
38.097775,38.14759,85,112,40
38.15212,38.20194,85,112,40
38.206467,38.256287,85,112,40
38.260815,38.310635,83,112,40
38.315163,38.364983,83,112,40
38.36951,38.41933,83,112,40
38.42386,38.47368,83,112,40
38.478207,38.528027,83,112,40
38.532555,38.582375,83,112,40
38.586903,38.636723,83,112,40
38.64125,38.69107,83,112,40
38.6956,38.74542,80,112,40
38.749947,38.799763,80,112,40
38.804295,38.85411,80,112,40
38.858643,38.90846,80,112,40
38.91299,38.962807,80,112,40
38.96734,39.017155,80,112,40
39.021683,39.071503,80,112,40
39.07603,39.12585,80,112,40
39.13038,39.1802,73,112,40
39.184727,39.234547,73,112,40
39.239075,39.288895,73,112,40
39.293423,39.343243,73,112,40
39.34777,39.39759,73,112,40
39.40212,39.45194,73,112,40
39.456467,39.506287,73,112,40
39.510815,39.560635,73,112,40
39.565163,39.614983,71,112,40
39.61951,39.669327,71,112,40
39.67386,39.723675,71,112,40
39.728207,39.778023,71,112,40
39.782555,39.83237,71,112,40
39.836903,39.88672,71,112,40
39.891247,39.941067,71,112,40
39.945595,39.995415,71,112,40
39.999943,40.049763,68,112,40
40.05429,40.10411,68,112,40
40.10864,40.15846,68,112,40
40.162987,40.212807,68,112,40
40.217335,40.267155,68,112,40
40.271683,40.321503,68,112,40
40.32603,40.37585,68,112,40
40.38038,40.4302,68,112,40
40.434727,40.484547,61,112,40
40.489075,40.53889,61,112,40
40.543423,40.59324,61,112,40
40.59777,40.647587,61,112,40
40.65212,40.701935,61,112,40
40.706463,40.756283,61,112,40
40.76081,40.81063,61,112,40
40.81516,40.86498,61,112,40
40.869507,40.919327,59,112,40
40.923855,40.973675,59,112,40
40.978203,41.028023,59,112,40
41.03255,41.08237,59,112,40
41.0869,41.13672,59,112,40
41.141247,41.191067,59,112,40
41.195595,41.245415,59,112,40
41.249943,41.299763,59,112,40
41.30429,41.354107,56,112,40
41.35864,41.408455,56,112,40
41.412987,41.462803,56,112,40
41.467335,41.51715,56,112,40
41.521683,41.5715,56,112,40
41.576027,41.625847,56,112,40
41.630375,41.680195,56,112,40
41.684723,41.734543,56,112,40
41.73907,41.78889,61,112,40
41.79342,41.84324,61,112,40
41.847767,41.897587,61,112,40
41.902115,41.951935,61,112,40
41.956463,42.006283,61,112,40
42.01081,42.06063,61,112,40
42.06516,42.11498,61,112,40
42.119507,42.169327,61,112,40
42.173855,42.22367,63,127,40
42.228203,42.27802,63,112,40
42.28255,42.332367,63,112,40
42.3369,42.386715,63,112,40
42.391247,42.441063,63,112,40
42.44559,42.49541,63,112,40
42.49994,42.54976,63,112,40
42.554287,42.604107,63,112,40
42.608635,42.658455,63,112,40
42.662983,42.712803,63,112,40
42.71733,42.76715,63,112,40
42.77168,42.8215,63,112,40
42.826027,42.875847,63,112,40
42.880375,42.930195,63,112,40
42.934723,42.984543,63,112,40
42.98907,43.03889,63,112,40
43.04342,43.093235,61,112,40
43.097767,43.147583,61,112,40
43.152115,43.20193,61,112,40
43.206463,43.25628,61,112,40
43.26081,43.310627,61,112,40
43.315155,43.364975,61,112,40
43.369503,43.419323,61,112,40
43.42385,43.47367,61,112,40
43.4782,43.52802,63,127,40
43.532547,43.582367,63,112,40
43.586895,43.636715,63,112,40
43.641243,43.691063,63,112,40
43.69559,43.74541,63,112,40
43.74994,43.79976,63,112,40
43.804287,43.854107,63,112,40
43.858635,43.908455,63,112,40
43.912983,43.9628,63,112,40
43.96733,44.017147,63,112,40
44.02168,44.071495,63,112,40
44.076027,44.125843,63,112,40
44.13037,44.18019,63,112,40
44.18472,44.23454,63,112,40
44.239067,44.288887,63,112,40
44.293415,44.343235,63,112,40
44.347763,44.560627,61,112,40
62.60861,62.717304,64,112,40
62.717304,62.826,66,112,40
62.826,62.934696,68,112,40
62.934696,63.04339,69,112,40
63.04339,63.152084,71,112,40
63.152084,63.26078,72,112,40
63.26078,63.369476,74,112,40
63.369476,63.478172,76,112,40
63.478172,63.58687,77,112,40
63.58687,63.695564,79,112,40
63.695564,63.80426,81,112,40
63.80426,63.908424,83,112,40
63.912952,63.962772,88,112,40
63.9673,64.01712,90,112,40
64.02165,64.071465,88,112,40
64.076,64.12582,90,112,40
64.13035,64.18016,88,112,40
64.18469,64.23451,90,112,40
64.239044,64.28886,88,112,40
64.29339,64.34321,90,112,40
64.34773,64.39755,88,112,40
64.402084,64.451904,90,112,40
64.45643,64.50625,88,112,40
64.51078,64.5606,90,112,40
64.565125,64.614944,88,112,40
64.61948,64.6693,90,112,40
64.67382,64.72364,88,112,40
64.72817,64.77799,90,112,40
64.78252,64.83234,88,112,40
64.83687,64.88669,90,112,40
64.89121,64.94103,88,112,40
64.945564,64.99538,90,112,40
64.99991,65.04973,88,112,40
65.05426,65.10407,90,112,40
65.108604,65.158424,88,112,40
65.16295,65.21277,90,112,40
65.2173,65.26712,88,112,40
65.271645,65.321465,90,112,40
65.326,65.37582,88,112,40
65.38034,65.43016,90,112,40
65.43469,65.48451,88,112,40
65.48904,65.53886,90,112,40
65.54339,65.59321,88,112,40
65.59773,65.64755,90,112,40
65.652084,65.701904,88,112,40
65.70643,65.75625,90,112,40
65.76078,65.81059,88,112,40
65.815125,65.864944,90,112,40
65.86948,65.91929,88,112,40
65.92382,65.97364,90,112,40
65.97817,66.027985,88,112,40
66.03252,66.08234,90,112,40
66.08686,66.13668,88,112,40
66.14121,66.19103,90,112,40
66.19556,66.24538,88,112,40
66.24991,66.29973,90,112,40
66.30425,66.35407,88,112,40
66.358604,66.408424,90,112,40
66.41295,66.46277,88,112,40
66.4673,66.51712,90,112,40
66.521645,66.95643,88,112,40
66.95643,67.39121,86,112,40
67.39121,67.53614,84,112,40
67.53614,67.68107,86,112,40
67.68107,67.821465,88,112,40
67.82599,68.26077,90,112,40
68.26077,68.69556,85,112,40
68.69556,69.05788,90,112,40
69.13034,69.56512,88,112,40
69.56512,69.9999,86,112,40
69.9999,70.14483,84,112,40
70.14483,70.28976,86,112,40
70.28976,70.43015,88,112,40
70.434685,71.63033,81,112,40
71.73903,71.847725,76,112,40
71.847725,71.95189,79,112,40
71.95642,72.06512,81,112,40
72.06512,72.16928,79,112,40
72.17381,72.28251,76,112,40
72.28251,72.38667,79,112,40
72.391205,72.4999,81,112,40
72.4999,72.604065,79,112,40
72.6086,72.71729,76,112,40
72.71729,72.82146,79,112,40
72.82599,72.93468,81,112,40
72.93468,73.03885,79,112,40
73.04337,73.15207,78,112,40
73.15207,73.25624,80,112,40
73.260765,73.36946,82,112,40
73.36946,73.47363,80,112,40
73.47816,73.58685,78,112,40
73.58685,73.69102,80,112,40
73.69555,73.804245,82,112,40
73.804245,73.90841,80,112,40
73.91294,74.02164,78,112,40
74.02164,74.1258,80,112,40
74.13033,74.23903,82,112,40
74.23903,74.34319,80,112,40
74.347725,74.45642,76,112,40
74.45642,74.560585,79,112,40
74.56511,74.673805,81,112,40
74.673805,74.77798,79,112,40
74.7825,74.8912,76,112,40
74.8912,74.99537,79,112,40
74.99989,75.10859,81,112,40
75.10859,75.21275,79,112,40
75.217285,75.32598,76,112,40
75.32598,75.430145,79,112,40
75.43468,75.54337,81,112,40
75.54337,75.64754,79,112,40
75.65207,75.760765,77,112,40
75.760765,75.86493,79,112,40
75.86946,75.97816,81,112,40
75.97816,76.08232,79,112,40
76.08685,76.19555,77,112,40
76.19555,76.29971,79,112,40
76.30424,76.41293,81,112,40
76.41293,76.517105,79,112,40
76.52163,76.630325,77,112,40
76.630325,76.7345,79,112,40
76.73902,76.84772,81,112,40
76.84772,76.95188,79,112,40
76.95641,77.010765,77,112,40
77.010765,77.06511,74,112,40
77.06511,77.11946,77,112,40
77.11946,77.173805,74,112,40
77.173805,77.22815,77,112,40
77.22815,77.2825,74,112,40
77.2825,77.336845,77,112,40
77.336845,77.3912,74,112,40
77.3912,77.44554,77,112,40
77.44554,77.49989,74,112,40
77.49989,77.55424,77,112,40
77.55424,77.60859,74,112,40
77.60859,77.66293,77,112,40
77.66293,77.717285,74,112,40
77.717285,77.77163,77,112,40
77.77163,77.82598,74,112,40
77.82598,78.03884,77,112,40
79.999886,80.05424,77,112,40
80.05424,80.10858,74,112,40
80.10858,80.16293,77,112,40
80.16293,80.21728,74,112,40
80.21728,80.27163,77,112,40
80.27163,80.32597,74,112,40
80.32597,80.380325,77,112,40
80.380325,80.43467,74,112,40
80.43467,80.48902,77,112,40
80.48902,80.543365,74,112,40
80.543365,80.59771,77,112,40
80.59771,80.65206,74,112,40
80.65206,80.706406,77,112,40
80.706406,80.76076,74,112,40
80.76076,80.8151,77,112,40
80.8151,80.86945,74,112,40
80.86945,81.08231,77,112,40
82.1738,82.60858,81,112,40
82.60858,82.9709,79,112,40
83.043365,83.188286,77,112,40
83.188286,83.33321,79,112,40
83.33321,83.47814,81,112,40
83.47814,83.84046,86,127,40
83.912926,84.05785,77,112,40
84.05785,84.20278,79,112,40
84.20278,84.34771,81,112,40
84.34771,84.71003,86,127,40
84.78249,84.927414,77,112,40
84.927414,85.07234,79,112,40
85.07234,85.21727,81,112,40
85.21727,85.57959,86,127,40
85.652054,85.79698,77,112,40
85.79698,85.94191,79,112,40
85.94191,86.08684,81,112,40
86.08684,86.44916,86,127,40
86.52162,86.66654,77,112,40
86.66654,86.81147,79,112,40
86.81147,86.9564,81,112,40
86.9564,87.31872,86,127,40
87.39118,87.53611,77,112,40
87.53611,87.68104,79,112,40
87.68104,87.825966,81,112,40
87.825966,88.188286,86,127,40
88.26074,88.40567,77,112,40
88.40567,88.5506,79,112,40
88.5506,88.691,81,112,40
88.695526,88.745346,86,112,40
88.74988,88.7997,86,112,40
88.80422,88.85404,86,112,40
88.858574,88.90839,86,112,40
88.91292,88.96274,86,112,40
88.96727,89.01708,86,112,40
89.021614,89.071434,86,112,40
89.075966,89.12578,86,112,40
89.13031,89.18013,85,112,40
89.184654,89.234474,85,112,40
89.239006,89.288826,85,112,40
89.29335,89.34317,85,112,40
89.3477,89.39752,85,112,40
89.40205,89.451866,85,112,40
89.4564,89.50622,85,112,40
89.51074,89.56056,85,112,40
89.565094,89.614914,84,112,40
89.61944,89.66926,84,112,40
89.67379,89.72361,84,112,40
89.728134,89.777954,84,112,40
89.782486,89.8323,84,112,40
89.83683,89.88665,84,112,40
89.89118,89.940994,84,112,40
89.945526,89.995346,84,112,40
89.99987,90.04969,83,112,40
90.05422,90.10404,83,112,40
90.10857,90.15839,83,112,40
90.16292,90.21274,83,112,40
90.21726,90.26708,83,112,40
90.271614,90.321434,83,112,40
90.32596,90.37578,83,112,40
90.38031,90.43013,83,112,40
90.434654,90.484474,82,112,40
90.489006,90.538826,82,112,40
90.54335,90.59317,82,112,40
90.5977,90.647514,82,112,40
90.65205,90.701866,82,112,40
90.7064,90.75621,82,112,40
90.76074,90.81056,82,112,40
90.815094,90.86491,82,112,40
90.86944,90.91926,81,112,40
90.92378,90.9736,81,112,40
90.978134,91.027954,81,112,40
91.03248,91.0823,81,112,40
91.08683,91.13665,81,112,40
91.141174,91.190994,81,112,40
91.195526,91.245346,81,112,40
91.24987,91.29969,81,112,40
91.30422,91.35404,80,112,40
91.35857,91.40839,80,112,40
91.41292,91.46274,80,112,40
91.46726,91.51708,80,112,40
91.521614,91.57143,80,112,40
91.57596,91.62578,80,112,40
91.63031,91.68012,80,112,40
91.684654,91.734474,80,112,40
91.739,91.78882,79,112,40
91.79335,91.84317,79,112,40
91.847694,91.897514,79,112,40
91.90205,91.951866,79,112,40
91.95639,92.00621,79,112,40
92.01074,92.06056,79,112,40
92.06509,92.11491,79,112,40
92.11944,92.16926,79,112,40
92.17378,92.2236,78,112,40
92.228134,92.277954,78,112,40
92.28248,92.3323,78,112,40
92.33683,92.38664,78,112,40
92.391174,92.440994,78,112,40
92.445526,92.49534,78,112,40
92.49987,92.54969,78,112,40
92.554214,92.604034,78,112,40
92.60857,92.65839,77,112,40
92.66291,92.71273,77,112,40
92.71726,92.76708,77,112,40
92.77161,92.82143,77,112,40
92.82596,92.87578,77,112,40
92.8803,92.93012,77,112,40
92.934654,92.984474,77,112,40
92.989,93.03882,77,112,40
93.04335,93.09317,76,112,40
93.097694,93.147514,76,112,40
93.15205,93.20186,76,112,40
93.20639,93.25621,76,112,40
93.26074,93.310555,76,112,40
93.31509,93.36491,76,112,40
93.36944,93.41925,76,112,40
93.42378,93.4736,76,112,40
93.47813,93.52795,75,112,40
93.53248,93.5823,75,112,40
93.58682,93.63664,75,112,40
93.641174,93.690994,75,112,40
93.69552,93.74534,75,112,40
93.74987,93.79969,75,112,40
93.804214,93.854034,75,112,40
93.85857,93.90839,75,112,40
93.91291,93.96273,74,112,40
93.96726,94.01708,74,112,40
94.02161,94.07143,74,112,40
94.07596,94.12577,74,112,40
94.1303,94.18012,74,112,40
94.184654,94.23447,74,112,40
94.239,94.28882,74,112,40
94.29334,94.34316,74,112,40
94.347694,94.397514,73,112,40
94.40204,94.45186,73,112,40
94.45639,94.50621,73,112,40
94.510735,94.560555,73,112,40
94.56509,94.61491,73,112,40
94.61943,94.66925,73,112,40
94.67378,94.7236,73,112,40
94.72813,94.77795,73,112,40
94.78248,94.8323,72,112,40
94.83682,94.88664,72,112,40
94.891174,94.94099,72,112,40
94.94552,94.99534,72,112,40
94.99987,95.04968,72,112,40
95.054214,95.104034,72,112,40
95.10857,95.15838,72,112,40
95.16291,95.21273,72,112,40
95.217255,95.267075,71,112,40
95.27161,95.32143,71,112,40
95.32595,95.37577,71,112,40
95.3803,95.43012,71,112,40
95.43465,95.48447,71,112,40
95.489,95.53882,71,112,40
95.54334,95.59316,71,112,40
95.597694,95.647514,71,112,40
95.65204,95.70186,70,112,40
95.70639,95.75621,70,112,40
95.760735,95.810555,70,112,40
95.81509,95.8649,70,112,40
95.86943,95.91925,70,112,40
95.92378,95.973595,70,112,40
95.97813,96.02795,70,112,40
96.03247,96.08229,70,112,40
96.08682,96.13664,69,112,40
96.14117,96.19099,69,112,40
96.19552,96.24534,69,112,40
96.24986,96.29968,69,112,40
96.304214,96.354034,69,112,40
96.35856,96.40838,69,112,40
96.41291,96.46273,69,112,40
96.467255,96.517075,69,112,40
96.52161,96.57143,56,112,40
96.52161,96.57143,68,112,40
96.57595,96.62577,56,112,40
96.57595,96.62577,68,112,40
96.6303,96.680115,56,112,40
96.6303,96.680115,68,112,40
96.68465,96.73447,56,112,40
96.68465,96.73447,68,112,40
96.739,96.78881,56,112,40
96.739,96.78881,68,112,40
96.79334,96.84316,56,112,40
96.79334,96.84316,68,112,40
96.84769,96.89751,56,112,40
96.84769,96.89751,68,112,40
96.90204,96.95186,56,112,40
96.90204,96.95186,68,112,40
96.95638,97.0062,56,112,40
96.95638,97.0062,67,112,40
97.010735,97.060555,56,112,40
97.010735,97.060555,67,112,40
97.06508,97.1149,56,112,40
97.06508,97.1149,67,112,40
97.11943,97.16925,56,112,40
97.11943,97.16925,67,112,40
97.173775,97.223595,56,112,40
97.173775,97.223595,67,112,40
97.22813,97.27795,56,112,40
97.22813,97.27795,67,112,40
97.28247,97.33229,56,112,40
97.28247,97.33229,67,112,40
97.33682,97.38664,56,112,40
97.33682,97.38664,67,112,40
97.39117,97.44099,55,112,40
97.39117,97.44099,66,112,40
97.44552,97.49533,55,112,40
97.44552,97.49533,66,112,40
97.49986,97.54968,55,112,40
97.49986,97.54968,66,112,40
97.554214,97.60403,55,112,40
97.554214,97.60403,66,112,40
97.60856,97.65838,55,112,40
97.60856,97.65838,66,112,40
97.66291,97.71272,55,112,40
97.66291,97.71272,66,112,40
97.717255,97.767075,55,112,40
97.717255,97.767075,66,112,40
97.7716,97.82142,55,112,40
97.7716,97.82142,66,112,40
97.82595,97.87577,56,112,40
97.82595,97.87577,65,112,40
97.880295,97.930115,56,112,40
97.880295,97.930115,65,112,40
97.93465,97.98447,56,112,40
97.93465,97.98447,65,112,40
97.98899,98.03881,56,112,40
97.98899,98.03881,65,112,40
98.04334,98.09316,56,112,40
98.04334,98.09316,65,112,40
98.09769,98.14751,56,112,40
98.09769,98.14751,65,112,40
98.15204,98.20186,56,112,40
98.15204,98.20186,65,112,40
98.20638,98.2562,56,112,40
98.20638,98.2562,65,112,40
98.260735,98.310555,56,112,40
98.260735,98.310555,64,112,40
98.31508,98.3649,56,112,40
98.31508,98.3649,64,112,40
98.36943,98.41924,56,112,40
98.36943,98.41924,64,112,40
98.423775,98.473595,56,112,40
98.423775,98.473595,64,112,40
98.47813,98.52794,56,112,40
98.47813,98.52794,64,112,40
98.53247,98.58229,56,112,40
98.53247,98.58229,64,112,40
98.586815,98.636635,56,112,40
98.586815,98.636635,64,112,40
98.64117,98.69099,56,112,40
98.64117,98.69099,64,112,40
98.69551,98.74533,60,112,40
98.74986,98.79968,60,112,40
98.80421,98.85403,60,112,40
98.85856,98.90838,60,112,40
98.9129,98.96272,60,112,40
98.967255,99.017075,60,112,40
99.0216,99.07142,60,112,40
99.07595,99.12577,60,112,40
99.130295,99.180115,60,112,40
99.18465,99.23446,60,112,40
99.23899,99.28881,60,112,40
99.29334,99.343155,60,112,40
99.34769,99.39751,60,112,40
99.40203,99.45185,60,112,40
99.45638,99.5062,60,112,40
99.51073,99.56055,60,112,40
99.56508,99.6149,59,112,40
99.61942,99.66924,59,112,40
99.673775,99.723595,59,112,40
99.72812,99.77794,59,112,40
99.78247,99.83229,59,112,40
99.836815,99.886635,59,112,40
99.89117,99.94099,59,112,40
99.94551,99.99533,59,112,40
99.99986,100.049675,58,112,40
100.05421,100.10403,58,112,40
100.10856,100.15837,58,112,40
100.1629,100.21272,58,112,40
100.217255,100.26707,58,112,40
100.2716,100.32142,58,112,40
100.32594,100.37576,58,112,40
100.380295,100.430115,58,112,40
100.43464,100.48446,57,112,40
100.48899,100.53881,57,112,40
100.543335,100.593155,57,112,40
100.59769,100.64751,57,112,40
100.65203,100.70185,56,112,40
100.70638,100.7562,56,112,40
100.76073,100.81055,56,112,40
100.81508,100.8649,56,112,40
100.86942,100.91924,55,112,40
100.923775,100.97359,55,112,40
100.97812,101.02794,55,112,40
101.03247,101.08228,55,112,40
101.086815,101.136635,55,112,40
101.14116,101.19098,55,112,40
101.19551,101.24533,55,112,40
101.249855,101.299675,55,112,40
101.30421,101.35403,56,112,40
101.35855,101.40837,56,112,40
101.4129,101.46272,56,112,40
101.46725,101.51707,56,112,40
101.5216,101.57142,56,112,40
101.57594,101.62576,56,112,40
101.630295,101.680115,56,112,40
101.68464,101.73446,56,112,40
101.73899,101.7888,60,112,40
101.793335,101.843155,60,112,40
101.84769,101.8975,60,112,40
101.90203,101.95185,60,112,40
101.95638,102.006195,60,112,40
102.01073,102.06055,60,112,40
102.06507,102.11489,60,112,40
102.11942,102.16924,60,112,40
102.17377,102.22359,59,112,40
102.22812,102.27794,59,112,40
102.28246,102.33228,59,112,40
102.336815,102.386635,59,112,40
102.39116,102.44098,59,112,40
102.44551,102.49533,59,112,40
102.499855,102.549675,59,112,40
102.55421,102.60403,59,112,40
102.60855,102.65837,58,112,40
102.6629,102.712715,58,112,40
102.71725,102.76707,58,112,40
102.7716,102.82141,58,112,40
102.82594,102.87576,58,112,40
102.88029,102.93011,58,112,40
102.93464,102.98446,58,112,40
102.98898,103.0388,58,112,40
103.043335,103.093155,57,112,40
103.09768,103.1475,57,112,40
103.15203,103.20185,57,112,40
103.206375,103.256195,57,112,40
103.26073,103.31055,56,112,40
103.31507,103.36489,56,112,40
103.36942,103.41924,56,112,40
103.42377,103.47359,56,112,40
103.47812,103.52793,55,112,40
103.53246,103.58228,55,112,40
103.586815,103.63663,55,112,40
103.64116,103.69098,55,112,40
103.6955,103.74532,55,112,40
103.749855,103.799675,55,112,40
103.8042,103.85402,55,112,40
103.85855,103.90837,55,112,40
103.912895,103.962715,56,112,40
103.96725,104.01707,56,112,40
104.02159,104.07141,56,112,40
104.07594,104.12576,56,112,40
104.13029,104.18011,56,112,40
104.18464,104.23446,56,112,40
104.23898,104.2888,56,112,40
104.293335,104.34315,56,112,40
104.34768,104.3975,57,112,40
104.40203,104.45184,57,112,40
104.456375,104.506195,57,112,40
104.51073,104.56054,57,112,40
104.56507,104.61489,57,112,40
104.619415,104.669235,57,112,40
104.67377,104.72359,57,112,40
104.72811,104.77793,57,112,40
104.78246,104.83228,56,112,40
104.83681,104.88663,56,112,40
104.89116,104.94098,56,112,40
104.9455,104.99532,56,112,40
104.999855,105.049675,56,112,40
105.0542,105.10402,56,112,40
105.10855,105.15837,56,112,40
105.162895,105.212715,56,112,40
105.21725,105.26706,57,112,40
105.27159,105.32141,57,112,40
105.32594,105.375755,57,112,40
105.38029,105.43011,57,112,40
105.43463,105.48445,57,112,40
105.48898,105.5388,57,112,40
105.54333,105.59315,57,112,40
105.59768,105.6475,57,112,40
105.65202,105.72449,56,112,40
136.04803,137.45021,62,112,40
137.45021,139.20021,71,112,40
139.20021,140.20021,70,112,40
140.20021,141.20021,69,112,40
141.20021,141.80022,68,112,40
141.80022,142.4002,67,112,40
142.4002,143.00021,64,112,40
143.00021,143.6002,65,112,40
143.6002,144.00021,68,112,40
144.00021,144.4002,67,112,40
144.4002,144.80022,66,112,40
144.80022,145.4002,64,112,40
145.4002,145.98772,65,112,40
146.00021,146.4002,68,112,40
146.4002,146.80022,67,112,40
146.80022,147.20021,66,112,40
147.20021,147.6002,64,112,40
147.6002,148.00021,65,112,40
148.00021,148.4002,66,112,40
148.4002,148.80022,67,112,40
148.80022,149.20021,66,112,40
149.20021,149.6002,67,112,40
149.6002,150.20021,66,112,40
150.20021,150.80022,65,112,40
150.80022,151.4002,64,112,40
151.4002,152.00021,63,112,40
152.00021,152.6002,62,112,40
152.6002,153.20021,63,112,40
153.20021,153.80022,67,112,40
153.80022,154.4002,70,112,40
154.4002,155.00021,75,112,40
155.00021,155.5877,82,112,40
155.6002,156.80022,82,112,40
156.80022,157.38771,81,112,40
157.4002,158.6002,78,112,40
158.6002,159.18771,79,112,40
159.80022,160.38771,82,112,40
160.4002,160.98772,81,112,40
161.00021,162.20021,78,112,40
162.20021,162.7877,79,112,40
162.80022,164.00021,86,112,40
164.00021,164.6002,84,112,40
164.6002,165.20021,81,112,40
165.20021,165.7877,79,112,40
165.80022,167.00021,74,112,40
167.00021,167.6002,69,112,40
167.6002,168.20021,67,112,40
168.20021,168.7877,70,112,40
168.80022,169.4002,62,112,40
170.00021,170.6002,62,112,40
173.6002,174.80022,63,112,40
174.80022,176.00021,61,112,40
176.00021,176.4002,60,112,40
176.4002,176.80022,61,112,40
176.80022,177.20021,63,112,40
177.20021,178.4002,65,112,40
178.4002,179.6002,60,112,40
179.6002,180.80022,65,112,40
180.80022,181.80022,63,112,40
197.15674,198.7464,68,112,40
198.7464,199.66437,80,112,40
199.6839,200.98825,80,127,40
200.98825,202.07521,78,127,40
202.2926,202.72739,76,112,40
202.72739,203.16217,78,112,40
203.16217,203.59695,80,112,40
203.59695,204.99344,83,127,40
207.34695,208.54695,80,127,40
208.54695,209.54695,78,127,40
209.74695,210.14694,76,127,40
210.14694,210.54695,78,127,40
210.54695,210.94695,80,127,40
210.94695,212.32195,83,127,40
214.63925,214.71425,59,112,40
214.71425,214.78925,55,112,40
214.78925,214.86426,59,112,40
214.86426,214.93925,55,112,40
214.93925,215.01425,59,112,40
215.01425,215.08925,55,112,40
215.08925,215.16425,59,112,40
215.16425,215.23926,55,112,40
215.23926,215.31425,59,112,40
215.31425,215.38925,55,112,40
215.38925,215.46425,59,112,40
215.46425,215.53925,55,112,40
215.53925,215.61426,59,112,40
215.61426,215.68925,55,112,40
215.68925,215.76425,59,112,40
215.76425,215.83925,55,112,40
215.83925,215.91425,59,112,40
215.91425,215.98926,55,112,40
215.98926,216.06425,59,112,40
216.06425,216.13925,55,112,40
216.13925,216.21425,59,112,40
216.21425,216.28925,55,112,40
216.28925,216.36426,59,112,40
216.36426,216.43925,55,112,40
216.43925,216.51425,59,112,40
216.51425,216.58925,55,112,40
216.58925,216.66425,59,112,40
216.66425,216.73926,55,112,40
216.73926,216.81425,59,112,40
216.81425,216.88925,55,112,40
216.88925,216.96425,59,112,40
216.96425,217.03925,55,112,40
217.03925,217.11426,59,112,40
217.11426,217.18925,55,112,40
217.18925,217.26425,59,112,40
217.26425,217.33925,55,112,40
217.33925,217.41425,59,112,40
217.41425,217.48926,55,112,40
217.48926,217.56425,59,112,40
217.56425,217.63925,55,112,40
217.63925,217.71425,59,112,40
217.71425,217.78925,55,112,40
217.78925,217.86426,59,112,40
217.86426,217.93925,55,112,40
217.93925,218.01425,59,112,40
218.01425,218.08925,55,112,40
218.08925,218.16425,59,112,40
218.16425,218.22675,55,112,40
218.23926,218.32077,59,112,40
218.32077,218.4023,55,112,40
218.4023,218.48381,59,112,40
218.48381,218.56534,55,112,40
218.56534,218.64731,59,112,40
218.64731,218.73065,55,112,40
218.73065,218.81398,59,112,40
218.81398,218.89731,55,112,40
218.89731,218.98065,59,112,40
218.98065,219.06477,55,112,40
219.06477,219.15,59,112,40
219.15,219.23523,55,112,40
219.23523,219.32045,59,112,40
219.32045,219.40567,55,112,40
219.40567,219.49223,59,112,40
219.49223,219.57944,55,112,40
219.57944,219.66664,59,112,40
219.66664,219.75386,55,112,40
219.75386,219.84106,59,112,40
219.84106,219.93001,55,112,40
219.93001,220.01929,59,112,40
220.01929,220.10857,55,112,40
220.10857,220.19786,59,112,40
220.19786,220.28732,55,112,40
220.28732,220.37878,59,112,40
220.37878,220.47026,55,112,40
220.47026,220.56172,59,112,40
220.56172,220.65318,55,112,40
220.65318,220.74521,59,112,40
220.74521,220.83896,55,112,40
220.83896,220.93271,59,112,40
220.93271,221.02646,55,112,40
221.02646,221.12021,59,112,40
221.12021,221.21497,55,112,40
221.21497,221.31113,59,112,40
221.31113,221.40727,55,112,40
221.40727,221.50343,59,112,40
221.50343,221.59958,55,112,40
221.59958,221.69742,59,112,40
221.69742,221.79611,55,112,40
221.79611,221.89479,59,112,40
221.89479,221.99347,55,112,40
221.99347,222.09216,59,112,40
222.09216,222.19307,55,112,40
222.19307,222.29442,59,112,40
222.29442,222.39577,55,112,40
222.39577,222.49712,59,112,40
222.49712,222.58157,55,112,40
233.69847,233.78,57,112,40
233.78,233.85472,69,112,40
233.86151,236.13733,69,112,40
233.86151,236.13733,81,112,40
236.14412,237.12238,74,112,40
236.14412,237.12238,86,112,40
237.12238,237.60472,72,112,40
237.12238,237.60472,84,112,40
237.61151,240.05037,69,112,40
237.61151,240.05037,81,112,40
240.05716,240.53949,74,112,40
240.05716,240.53949,86,112,40
240.5463,241.03542,74,112,40
240.5463,241.03542,86,112,40
241.03542,241.51776,72,112,40
241.03542,241.51776,84,112,40
241.52455,242.01367,69,112,40
241.52455,242.01367,81,112,40
242.01367,242.49602,70,112,40
242.01367,242.49602,82,112,40
242.5028,243.9702,67,112,40
242.5028,243.9702,79,112,40
243.9702,244.45253,69,112,40
243.9702,244.45253,81,112,40
244.45932,245.92671,65,112,40
244.45932,245.92671,77,112,40
245.92671,246.40906,67,112,40
245.92671,246.40906,79,112,40
246.41585,248.8547,62,112,40
246.41585,248.8547,74,112,40
248.8615,249.34383,74,112,40
248.8615,249.34383,86,112,40
249.35062,251.95932,86,112,40
251.95932,252.6115,91,112,40
252.6115,253.25008,89,112,40
253.26367,255.22018,86,112,40
255.22018,255.85876,91,112,40
255.87236,256.51096,91,112,40
256.52454,257.16312,89,112,40
257.1767,257.8289,86,112,40
257.8289,258.46747,88,112,40
258.48105,260.76367,83,112,40
265.65497,267.61148,62,112,40
267.61148,268.69843,64,112,40
268.91583,269.78085,59,112,40
308.481,308.62592,64,112,40
308.62592,308.76633,76,112,40
308.77084,308.91125,76,112,40
308.91577,309.0607,76,112,40
309.0607,309.2011,88,112,40
309.20563,309.34604,88,112,40
309.35056,309.45926,81,112,40
309.45926,309.56793,76,112,40
309.56793,309.62228,88,112,40
309.62228,309.67664,90,112,40
309.67664,309.731,88,112,40
309.731,309.78534,90,112,40
309.78534,309.8397,88,112,40
309.8397,309.89404,90,112,40
309.89404,309.9484,88,112,40
309.9484,310.00272,90,112,40
310.00272,310.05707,88,112,40
310.05707,310.11142,90,112,40
310.11142,310.16577,88,112,40
310.16577,310.22012,90,112,40
310.22012,310.27448,88,112,40
310.27448,310.32883,90,112,40
310.32883,310.38315,88,112,40
310.38315,310.4375,90,112,40
310.4375,310.49185,88,112,40
310.49185,310.5462,90,112,40
310.5462,310.60056,88,112,40
310.60056,310.6549,90,112,40
310.6549,310.70926,88,112,40
310.70926,310.7636,90,112,40
310.7636,310.81793,88,112,40
310.81793,310.87228,90,112,40
310.87228,310.92664,88,112,40
310.92664,310.981,90,112,40
310.981,311.03534,88,112,40
311.03534,311.0897,90,112,40
311.0897,311.14404,88,112,40
311.14404,311.19836,90,112,40
311.19836,311.25272,88,112,40
311.25272,311.30707,90,112,40
311.30707,311.36142,88,112,40
311.36142,311.41577,90,112,40
311.41577,311.47012,88,112,40
311.47012,311.52448,90,112,40
311.52448,311.57883,88,112,40
311.57883,311.63315,90,112,40
311.63315,311.6875,88,112,40
311.6875,311.74185,90,112,40
311.74185,311.7962,88,112,40
311.7962,311.85056,90,112,40
311.85056,311.9049,88,112,40
311.9049,311.95926,90,112,40
311.95926,312.39404,88,112,40
312.39404,312.8288,87,112,40
312.8288,312.97372,85,112,40
312.97372,313.11865,87,112,40
313.11865,313.25906,88,112,40
313.26358,313.69836,90,112,40
313.69836,314.13315,85,112,40
314.13315,314.49548,90,112,40
314.56793,315.00272,88,112,40
315.00272,315.4375,87,112,40
315.4375,315.58243,85,112,40
315.58243,315.72736,87,112,40
315.72736,315.86777,88,112,40
315.87228,317.06793,80,112,40
317.17664,317.28534,76,112,40
317.28534,317.3895,80,112,40
317.394,317.50272,82,112,40
317.50272,317.60687,80,112,40
317.61142,317.7201,76,112,40
317.7201,317.82428,80,112,40
317.8288,317.9375,82,112,40
317.9375,318.04166,80,112,40
318.0462,318.15488,76,112,40
318.15488,318.25906,80,112,40
318.26358,318.37228,82,112,40
318.37228,318.47644,80,112,40
318.481,318.58966,78,112,40
318.58966,318.69385,80,112,40
318.69836,318.80707,82,112,40
318.80707,318.91122,80,112,40
318.91577,319.02444,78,112,40
319.02444,319.12863,80,112,40
319.13315,319.24185,82,112,40
319.24185,319.346,80,112,40
319.35056,319.45923,78,112,40
319.45923,319.56342,80,112,40
319.56793,319.67664,82,112,40
319.67664,319.7808,80,112,40
319.7853,319.894,76,112,40
319.894,319.9982,80,112,40
320.00272,320.11142,82,112,40
320.11142,320.21558,80,112,40
320.2201,320.3288,76,112,40
320.3288,320.43295,80,112,40
320.4375,320.5462,82,112,40
320.5462,320.65036,80,112,40
320.65488,320.76358,76,112,40
320.76358,320.86774,80,112,40
320.87228,320.981,82,112,40
320.981,321.08514,80,112,40
321.08966,321.19836,76,112,40
321.19836,321.30252,79,112,40
321.30707,321.41574,82,112,40
321.41574,321.51993,79,112,40
321.52444,321.63315,76,112,40
321.63315,321.7373,79,112,40
321.74185,321.85052,82,112,40
321.85052,321.9547,79,112,40
321.95923,322.06793,76,112,40
322.06793,322.1721,79,112,40
322.17664,322.2853,82,112,40
322.2853,322.3895,79,112,40
322.394,322.44836,76,112,40
322.44836,322.50272,73,112,40
322.50272,322.55707,76,112,40
322.55707,322.61142,73,112,40
322.61142,322.66574,76,112,40
322.66574,322.7201,73,112,40
322.7201,322.77444,76,112,40
322.77444,322.8288,73,112,40
322.8288,322.88315,76,112,40
322.88315,322.9375,73,112,40
322.9375,322.99185,76,112,40
322.99185,323.04617,73,112,40
323.04617,323.10052,76,112,40
323.10052,323.15488,73,112,40
323.15488,323.20923,76,112,40
323.20923,323.26358,73,112,40
323.26358,323.47644,76,112,40
325.4375,325.49182,76,112,40
325.49182,325.54617,73,112,40
325.54617,325.60052,76,112,40
325.60052,325.65488,73,112,40
325.65488,325.70923,76,112,40
325.70923,325.76358,73,112,40
325.76358,325.81793,76,112,40
325.81793,325.87228,73,112,40
325.87228,325.9266,76,112,40
325.9266,325.98096,73,112,40
325.98096,326.0353,76,112,40
326.0353,326.08966,73,112,40
326.08966,326.144,76,112,40
326.144,326.19836,73,112,40
326.19836,326.25272,76,112,40
326.25272,326.30704,73,112,40
326.30704,326.51993,76,112,40
327.6114,328.04617,79,112,40
328.04617,328.4085,78,112,40
328.48096,328.6259,76,112,40
328.6259,328.7708,78,112,40
328.7708,328.91122,79,112,40
328.91574,329.27808,82,112,40
329.35052,329.49545,75,112,40
329.49545,329.64038,77,112,40
329.64038,329.7808,79,112,40
329.7853,330.1476,82,112,40
330.2201,330.36502,75,112,40
330.36502,330.50995,77,112,40
330.50995,330.65033,79,112,40
330.65488,331.01718,82,112,40
331.08966,331.2346,75,112,40
331.2346,331.37952,77,112,40
331.37952,331.5199,79,112,40
331.52444,331.88675,83,112,40
331.95923,332.10416,76,112,40
332.10416,332.24908,78,112,40
332.24908,332.38947,79,112,40
332.394,332.75632,83,112,40
332.8288,332.97372,76,112,40
332.97372,333.11862,78,112,40
333.11862,333.25903,79,112,40
333.26355,333.6259,83,112,40
333.69833,333.84326,76,112,40
333.84326,333.9882,78,112,40
333.9882,334.1286,79,112,40
334.13312,334.18295,86,112,40
334.18747,334.2373,86,112,40
334.24182,334.29166,86,112,40
334.29617,334.34598,86,112,40
334.35052,334.40033,86,112,40
334.40488,334.45468,86,112,40
334.45923,334.50903,86,112,40
334.51355,334.5634,86,112,40
334.5679,334.61774,85,112,40
334.62225,334.6721,85,112,40
334.6766,334.7264,85,112,40
334.73096,334.78076,85,112,40
334.7853,334.8351,85,112,40
334.83966,334.88947,85,112,40
334.89398,334.94382,85,112,40
334.94833,334.99817,85,112,40
335.0027,335.05252,84,112,40
335.05704,335.10687,84,112,40
335.1114,335.1612,84,112,40
335.16574,335.21555,84,112,40
335.2201,335.2699,84,112,40
335.27444,335.32425,84,112,40
335.32877,335.3786,84,112,40
335.38312,335.43295,84,112,40
335.43747,335.4873,83,112,40
335.49182,335.54163,83,112,40
335.54617,335.59598,83,112,40
335.60052,335.65033,83,112,40
335.65488,335.70468,83,112,40
335.7092,335.75903,83,112,40
335.76355,335.8134,83,112,40
335.8179,335.86774,83,112,40
335.87225,335.9221,82,112,40
335.9266,335.9764,82,112,40
335.98096,336.03076,82,112,40
336.0353,336.0851,82,112,40
336.08966,336.13947,82,112,40
336.14398,336.19382,82,112,40
336.19833,336.24817,82,112,40
336.2527,336.30252,82,112,40
336.30704,336.35684,81,112,40
336.3614,336.4112,81,112,40
336.41574,336.46555,81,112,40
336.4701,336.5199,81,112,40
336.52444,336.57425,81,112,40
336.57877,336.6286,81,112,40
336.63312,336.68295,81,112,40
336.68747,336.7373,81,112,40
336.74182,336.79163,80,112,40
336.79617,336.84598,80,112,40
336.85052,336.90033,80,112,40
336.90488,336.95468,80,112,40
336.9592,337.00903,80,112,40
337.01355,337.0634,80,112,40
337.0679,337.11774,80,112,40
337.12225,337.1721,80,112,40
337.1766,337.2264,79,112,40
337.23096,337.28076,79,112,40
337.2853,337.3351,79,112,40
337.33966,337.38947,79,112,40
337.39398,337.44382,79,112,40
337.44833,337.49817,79,112,40
337.5027,337.55252,79,112,40
337.55704,337.60684,79,112,40
337.6114,337.6612,78,112,40
337.66574,337.71555,78,112,40
337.7201,337.7699,78,112,40
337.7744,337.82425,78,112,40
337.82877,337.8786,78,112,40
337.88312,337.93295,78,112,40
337.93747,337.9873,78,112,40
337.99182,338.04163,78,112,40
338.04617,338.09598,77,112,40
338.10052,338.15033,77,112,40
338.15488,338.20468,77,112,40
338.2092,338.25903,77,112,40
338.26355,338.3134,77,112,40
338.3179,338.36774,77,112,40
338.37225,338.42206,77,112,40
338.4266,338.4764,77,112,40
338.48096,338.53076,76,112,40
338.5353,338.5851,76,112,40
338.58963,338.63947,76,112,40
338.64398,338.69382,76,112,40
338.69833,338.74817,76,112,40
338.7527,338.80252,76,112,40
338.80704,338.85684,76,112,40
338.8614,338.9112,76,112,40
338.91574,338.96555,75,112,40
338.9701,339.0199,75,112,40
339.0244,339.07425,75,112,40
339.07877,339.1286,75,112,40
339.13312,339.18295,75,112,40
339.18747,339.23727,75,112,40
339.24182,339.29163,75,112,40
339.29617,339.34598,75,112,40
339.35052,339.40033,74,112,40
339.40485,339.45468,74,112,40
339.4592,339.50903,74,112,40
339.51355,339.5634,74,112,40
339.5679,339.61774,74,112,40
339.62225,339.67206,74,112,40
339.6766,339.7264,74,112,40
339.73096,339.78076,74,112,40
339.7853,339.8351,73,112,40
339.83963,339.88947,73,112,40
339.89398,339.94382,73,112,40
339.94833,339.99817,73,112,40
340.0027,340.0525,73,112,40
340.05704,340.10684,73,112,40
340.1114,340.1612,73,112,40
340.16574,340.21555,73,112,40
340.22006,340.2699,72,112,40
340.2744,340.32425,72,112,40
340.32877,340.3786,72,112,40
340.38312,340.43295,72,112,40
340.43747,340.48727,72,112,40
340.49182,340.54163,72,112,40
340.54617,340.59598,72,112,40
340.60052,340.65033,72,112,40
340.65485,340.70468,71,112,40
340.7092,340.75903,71,112,40
340.76355,340.8134,71,112,40
340.8179,340.8677,71,112,40
340.87225,340.92206,71,112,40
340.9266,340.9764,71,112,40
340.98096,341.03076,71,112,40
341.03528,341.0851,71,112,40
341.08963,341.13947,70,112,40
341.14398,341.19382,70,112,40
341.19833,341.24817,70,112,40
341.2527,341.3025,70,112,40
341.30704,341.35684,70,112,40
341.3614,341.4112,70,112,40
341.41574,341.46555,70,112,40
341.47006,341.5199,70,112,40
341.5244,341.57425,69,112,40
341.57877,341.6286,69,112,40
341.63312,341.68292,69,112,40
341.68747,341.73727,69,112,40
341.74182,341.79163,69,112,40
341.79617,341.84598,69,112,40
341.8505,341.90033,69,112,40
341.90485,341.95468,69,112,40
341.9592,342.00903,56,112,40
341.9592,342.00903,68,112,40
342.01355,342.0634,56,112,40
342.01355,342.0634,68,112,40
342.0679,342.1177,56,112,40
342.0679,342.1177,68,112,40
342.12225,342.17206,56,112,40
342.12225,342.17206,68,112,40
342.1766,342.2264,56,112,40
342.1766,342.2264,68,112,40
342.23096,342.28076,56,112,40
342.23096,342.28076,68,112,40
342.28528,342.3351,56,112,40
342.28528,342.3351,68,112,40
342.33963,342.38947,56,112,40
342.33963,342.38947,68,112,40
342.39398,342.44382,56,112,40
342.39398,342.44382,67,112,40
342.44833,342.49814,56,112,40
342.44833,342.49814,67,112,40
342.5027,342.5525,56,112,40
342.5027,342.5525,67,112,40
342.55704,342.60684,56,112,40
342.55704,342.60684,67,112,40
342.6114,342.6612,56,112,40
342.6114,342.6612,67,112,40
342.6657,342.71555,56,112,40
342.6657,342.71555,67,112,40
342.72006,342.7699,56,112,40
342.72006,342.7699,67,112,40
342.7744,342.82425,56,112,40
342.7744,342.82425,67,112,40
342.82877,342.8786,55,112,40
342.82877,342.8786,66,112,40
342.88312,342.93292,55,112,40
342.88312,342.93292,66,112,40
342.93747,342.98727,55,112,40
342.93747,342.98727,66,112,40
342.99182,343.04163,55,112,40
342.99182,343.04163,66,112,40
343.04617,343.09598,55,112,40
343.04617,343.09598,66,112,40
343.1005,343.15033,55,112,40
343.1005,343.15033,66,112,40
343.15485,343.20468,55,112,40
343.15485,343.20468,66,112,40
343.2092,343.25903,55,112,40
343.2092,343.25903,66,112,40
343.26355,343.31335,56,112,40
343.26355,343.31335,65,112,40
343.3179,343.3677,56,112,40
343.3179,343.3677,65,112,40
343.37225,343.42206,56,112,40
343.37225,343.42206,65,112,40
343.4266,343.4764,56,112,40
343.4266,343.4764,65,112,40
343.48093,343.53076,56,112,40
343.48093,343.53076,65,112,40
343.53528,343.5851,56,112,40
343.53528,343.5851,65,112,40
343.58963,343.63947,56,112,40
343.58963,343.63947,65,112,40
343.64398,343.69382,56,112,40
343.64398,343.69382,65,112,40
343.69833,343.74814,56,112,40
343.69833,343.74814,64,112,40
343.7527,343.8025,56,112,40
343.7527,343.8025,64,112,40
343.80704,343.85684,56,112,40
343.80704,343.85684,64,112,40
343.8614,343.9112,56,112,40
343.8614,343.9112,64,112,40
343.9157,343.96555,56,112,40
343.9157,343.96555,64,112,40
343.97006,344.0199,56,112,40
343.97006,344.0199,64,112,40
344.0244,344.07425,56,112,40
344.0244,344.07425,64,112,40
344.07877,344.12857,56,112,40
344.07877,344.12857,64,112,40
344.13312,344.18292,60,112,40
344.18747,344.23727,60,112,40
344.24182,344.29163,60,112,40
344.29614,344.34598,60,112,40
344.3505,344.40033,60,112,40
344.40485,344.45468,60,112,40
344.4592,344.50903,60,112,40
344.51355,344.56335,60,112,40
344.5679,344.6177,60,112,40
344.62225,344.67206,60,112,40
344.6766,344.7264,60,112,40
344.73093,344.78076,60,112,40
344.78528,344.8351,60,112,40
344.83963,344.88947,60,112,40
344.89398,344.9438,60,112,40
344.94833,344.99814,60,112,40
345.0027,345.0525,59,112,40
345.05704,345.10684,59,112,40
345.11136,345.1612,59,112,40
345.1657,345.21555,59,112,40
345.22006,345.2699,59,112,40
345.2744,345.32425,59,112,40
345.32877,345.37857,59,112,40
345.38312,345.43292,59,112,40
345.43747,345.48727,58,112,40
345.49182,345.54163,58,112,40
345.54614,345.59598,58,112,40
345.6005,345.65033,58,112,40
345.65485,345.70468,58,112,40
345.7092,345.759,58,112,40
345.76355,345.81335,58,112,40
345.8179,345.8677,58,112,40
345.87225,345.92206,57,112,40
345.9266,345.9764,57,112,40
345.98093,346.03076,57,112,40
346.03528,346.0851,57,112,40
346.08963,346.13947,56,112,40
346.14398,346.1938,56,112,40
346.19833,346.24814,56,112,40
346.2527,346.3025,56,112,40
346.30704,346.35684,55,112,40
346.36136,346.4112,55,112,40
346.4157,346.46555,55,112,40
346.47006,346.5199,55,112,40
346.5244,346.57425,55,112,40
346.57877,346.62857,55,112,40
346.63312,346.68292,55,112,40
346.68747,346.73727,55,112,40
346.74182,346.79163,56,112,40
346.79614,346.84598,56,112,40
346.8505,346.90033,56,112,40
346.90485,346.95468,56,112,40
346.9592,347.009,56,112,40
347.01355,347.06335,56,112,40
347.0679,347.1177,56,112,40
347.12225,347.17206,56,112,40
347.17657,347.2264,60,112,40
347.23093,347.28076,60,112,40
347.28528,347.3351,60,112,40
347.33963,347.38947,60,112,40
347.39398,347.4438,60,112,40
347.44833,347.49814,60,112,40
347.5027,347.5525,60,112,40
347.55704,347.60684,60,112,40
347.61136,347.6612,59,112,40
347.6657,347.71555,59,112,40
347.72006,347.7699,59,112,40
347.7744,347.82422,59,112,40
347.82877,347.87857,59,112,40
347.88312,347.93292,59,112,40
347.93747,347.98727,59,112,40
347.9918,348.04163,59,112,40
348.04614,348.09598,58,112,40
348.1005,348.15033,58,112,40
348.15485,348.20468,58,112,40
348.2092,348.259,58,112,40
348.26355,348.31335,58,112,40
348.3179,348.3677,58,112,40
348.37225,348.42206,58,112,40
348.42657,348.4764,58,112,40
348.48093,348.53076,57,112,40
348.53528,348.5851,57,112,40
348.58963,348.63943,57,112,40
348.64398,348.6938,57,112,40
348.69833,348.74814,56,112,40
348.7527,348.8025,56,112,40
348.807,348.85684,56,112,40
348.86136,348.9112,56,112,40
348.9157,348.96555,55,112,40
348.97006,349.0199,55,112,40
349.0244,349.07422,55,112,40
349.07877,349.12857,55,112,40
349.13312,349.18292,55,112,40
349.18747,349.23727,55,112,40
349.2418,349.29163,55,112,40
349.29614,349.34598,55,112,40
349.3505,349.40033,56,112,40
349.40485,349.45465,56,112,40
349.4592,349.509,56,112,40
349.51355,349.56335,56,112,40
349.5679,349.6177,56,112,40
349.62222,349.67206,56,112,40
349.67657,349.7264,56,112,40
349.73093,349.78076,56,112,40
349.78528,349.99814,60,112,40
0.0,0.21286201,64,127,45
0.217391,0.43025303,72,112,45
0.434782,0.64764404,64,112,45
0.652173,0.865035,64,127,45
0.869564,1.0824261,72,112,45
1.086955,1.299817,64,112,45
1.304346,1.517208,60,127,45
1.521737,1.734599,69,112,45
1.739128,1.95199,60,127,45
1.956519,2.169381,65,112,45
2.17391,2.386772,59,127,45
2.391301,2.604163,64,112,45
2.608692,2.821554,64,127,45
2.826083,3.038945,72,112,45
3.043474,3.256336,64,112,45
3.260865,3.473727,64,127,45
3.478256,3.691118,72,112,45
3.695647,3.908509,64,112,45
3.913038,4.1259,60,127,45
4.130429,4.343291,69,112,45
4.34782,4.560682,60,127,45
4.565211,4.778073,65,112,45
4.782602,4.995464,59,127,45
4.999993,5.212855,64,112,45
5.217384,5.430246,64,127,45
5.434775,5.647637,72,112,45
5.652166,5.865028,64,112,45
5.869557,6.082419,64,127,45
6.086948,6.29981,72,112,45
6.304339,6.517201,64,112,45
6.52173,6.734592,64,127,45
6.739121,6.951983,72,112,45
6.956512,7.169374,64,127,45
7.173903,7.386765,72,112,45
7.391294,7.604156,64,127,45
7.608685,7.821547,71,112,45
7.826076,8.038938,60,127,45
8.043467,8.256329,69,112,45
8.260858,8.47372,60,112,45
8.478249,8.691111,60,127,45
8.69564,8.908502,65,112,45
8.913031,9.125893,57,112,45
9.130422,9.492741,59,112,45
9.565204,9.927523,60,112,45
9.565204,9.927523,64,112,45
9.999986,10.362305,58,112,45
9.999986,10.362305,62,112,45
10.434768,10.797087,59,112,45
10.86955,11.231869,60,112,45
10.86955,11.231869,64,112,45
11.304332,11.666651,58,112,45
11.304332,11.666651,62,112,45
11.739114,12.101433,59,112,45
12.173896,12.536214,60,112,45
12.173896,12.536214,64,112,45
12.608678,12.970996,58,112,45
12.608678,12.970996,62,112,45
13.04346,13.405778,59,112,45
14.347806,14.533494,56,112,45
14.538023,14.560668,68,112,45
14.565197,14.778059,71,112,45
14.565197,14.778059,76,112,45
27.826048,28.188366,56,112,45
27.826048,28.188366,64,112,45
28.26083,28.623148,56,112,45
28.26083,28.623148,64,112,45
29.999958,30.362276,73,112,45
30.43474,30.647602,80,112,45
30.869522,31.082384,76,112,45
31.086912,31.299774,78,112,45
31.304304,31.517166,80,112,45
47.39124,47.753555,56,112,45
47.82602,48.18834,61,112,45
48.260803,48.62312,56,112,45
48.695583,49.057903,61,112,45
49.130367,49.492683,56,112,45
49.130367,49.492683,68,112,45
49.565147,49.927467,61,112,45
49.565147,49.927467,68,112,45
49.99993,50.362247,61,112,45
49.99993,50.362247,68,112,45
50.43471,50.83779,61,112,45
50.43471,50.83779,68,112,45
50.84232,50.864964,57,112,45
50.869495,51.2454,69,112,45
50.869495,51.27257,64,112,45
51.249928,51.27257,69,112,45
51.277103,51.299747,64,112,45
51.304276,51.51714,69,112,45
51.304276,51.51714,76,112,45
51.711884,51.734528,57,112,45
51.73906,51.95192,64,112,45
51.73906,51.95192,72,112,45
51.956448,52.142136,74,112,45
52.146667,52.16931,64,112,45
52.17384,52.53616,64,112,45
52.17384,52.53616,69,112,45
52.17384,52.53616,76,112,45
52.608624,52.97094,57,112,45
52.608624,52.97094,64,112,45
53.043404,53.446484,59,112,45
53.043404,53.446484,64,112,45
53.45101,53.473656,57,112,45
53.478188,53.881264,64,112,45
53.478188,53.881264,69,112,45
53.885796,53.90844,64,112,45
53.912968,54.12583,69,112,45
53.912968,54.12583,76,112,45
54.320576,54.34322,57,112,45
54.34775,54.56061,64,112,45
54.34775,54.56061,72,112,45
54.56514,54.750828,74,112,45
54.75536,54.778004,64,112,45
54.78253,55.14485,69,112,45
54.78253,55.14485,76,112,45
55.217316,55.57963,57,112,45
55.217316,55.57963,64,112,45
55.652096,56.014416,59,112,45
55.652096,56.014416,64,112,45
56.08688,56.29974,64,127,45
56.304268,56.51713,72,112,45
56.52166,56.734524,64,112,45
56.73905,56.951912,64,127,45
56.956444,57.169304,72,112,45
57.173832,57.386696,64,112,45
57.391224,57.604088,64,127,45
57.608616,57.821476,72,112,45
57.826008,58.038868,64,127,45
58.043396,58.25626,72,112,45
58.260788,58.47365,65,127,45
58.47818,58.69104,71,112,45
58.69557,58.908432,60,127,45
58.91296,59.125824,69,112,45
59.130352,59.343212,60,112,45
59.347744,59.560604,60,112,45
59.565132,59.777996,65,112,45
59.782524,59.995388,57,112,45
60.434696,60.797016,69,112,45
60.434696,60.797016,76,112,45
60.86948,61.2318,67,112,45
60.86948,61.2318,74,112,45
61.30426,61.66658,64,112,45
61.30426,61.66658,71,112,45
61.739044,62.101364,69,112,45
61.739044,62.101364,76,112,45
62.173824,62.536144,67,112,45
62.173824,62.536144,74,112,45
62.60861,62.97093,64,112,45
62.60861,62.97093,71,112,45
63.04339,63.40571,69,112,45
63.04339,63.40571,76,112,45
63.478172,63.84049,67,112,45
63.478172,63.84049,74,112,45
63.912952,64.27527,64,112,45
63.912952,64.27527,71,112,45
65.2173,65.402985,56,112,45
65.40752,65.43016,64,112,45
65.43469,65.64755,71,112,45
65.43469,65.64755,76,112,45
78.69554,79.05786,55,112,45
78.69554,79.05786,64,112,45
79.130325,79.492645,57,112,45
79.130325,79.492645,62,112,45
80.86945,81.23177,62,112,45
80.86945,81.23177,74,112,45
81.30424,81.5171,81,112,45
81.73901,81.95188,77,112,45
81.956406,82.11492,79,112,45
82.11945,82.169266,62,112,45
82.1738,82.53612,69,112,45
82.1738,82.53612,81,112,45
99.130295,99.492615,57,112,45
99.56508,99.77794,64,112,45
99.99986,100.21272,60,112,45
100.217255,100.430115,62,112,45
100.43464,100.79696,64,112,45
100.86942,101.23174,57,112,45
101.30421,101.66653,60,112,45
101.73899,102.1013,57,112,45
102.17377,102.386635,64,112,45
102.60855,102.82141,60,112,45
102.82594,103.0388,62,112,45
103.043335,103.405655,64,112,45
103.47812,103.84043,57,112,45
103.912895,104.275215,60,112,45
104.34768,104.71,57,112,45
105.65202,106.01434,57,112,45
106.08681,106.44913,60,112,45
106.52159,106.88391,57,112,45
106.956375,107.31869,60,112,45
107.39115,107.75347,64,112,45
107.825935,108.20184,69,112,45
108.20637,108.22901,57,112,45
108.23354,108.25619,64,112,45
108.26072,108.62304,69,112,45
108.26072,108.62304,76,112,45
224.99847,225.38597,64,112,45
225.39847,225.78596,71,112,45
225.79848,225.98598,67,112,45
225.99847,226.18597,69,112,45
226.19847,226.78596,71,112,45
227.39847,227.78596,60,112,45
227.79848,228.18597,67,112,45
228.19847,228.38597,64,112,45
228.39847,228.58597,66,112,45
228.59846,229.18597,67,112,45
229.79848,230.18597,55,112,45
230.19847,230.58597,60,112,45
230.59846,230.78596,55,112,45
230.79848,230.98598,58,112,45
230.99847,231.58597,60,112,45
232.19847,232.68285,67,112,45
232.69847,233.18285,72,112,45
233.19847,233.43285,67,112,45
233.44847,233.55785,70,112,45
233.57347,233.62035,60,112,45
233.63597,233.68285,67,112,45
233.69847,234.1808,60,112,45
233.69847,234.1808,67,112,45
233.69847,234.1808,72,112,45
234.1876,234.26233,63,112,45
234.26912,234.34386,72,112,45
234.35065,234.9145,63,112,45
234.35065,234.9145,72,112,45
234.35065,234.9145,79,112,45
234.9213,234.99602,67,112,45
235.00282,235.32211,67,112,45
235.00282,235.32211,75,112,45
235.3289,235.48515,77,112,45
235.49194,235.56668,63,112,45
235.57347,235.6482,72,112,45
235.65498,236.13733,63,112,45
235.65498,236.13733,72,112,45
235.65498,236.13733,79,112,45
236.14412,236.21884,60,112,45
236.22565,236.30037,67,112,45
236.30716,236.87102,60,112,45
236.30716,236.87102,67,112,45
236.30716,236.87102,72,112,45
236.8778,236.91179,59,112,45
236.91858,236.95255,66,112,45
236.95934,237.5232,59,112,45
236.95934,237.5232,66,112,45
236.95934,237.5232,71,112,45
237.52998,237.56395,60,112,45
237.57076,237.60472,67,112,45
237.61151,238.17537,60,112,45
237.61151,238.17537,67,112,45
237.61151,238.17537,72,112,45
238.18216,238.21613,63,112,45
238.22292,238.25688,72,112,45
238.26369,238.82755,63,112,45
238.26369,238.82755,72,112,45
238.26369,238.82755,79,112,45
238.83434,238.90906,67,112,45
238.91585,239.23515,67,112,45
238.91585,239.23515,75,112,45
239.24194,239.4797,77,112,45
239.48651,239.52048,63,112,45
239.52727,239.56123,72,112,45
239.56802,240.13188,63,112,45
239.56802,240.13188,72,112,45
239.56802,240.13188,79,112,45
240.13869,240.17265,60,112,45
240.17944,240.21341,67,112,45
240.2202,240.78406,60,112,45
240.2202,240.78406,67,112,45
240.2202,240.78406,72,112,45
240.79085,240.82481,59,112,45
240.83162,240.86559,66,112,45
240.87238,241.43623,59,112,45
240.87238,241.43623,66,112,45
240.87238,241.43623,71,112,45
241.44302,241.47699,59,112,45
241.48378,241.51776,66,112,45
241.52455,242.08841,58,112,45
241.52455,242.08841,65,112,45
241.52455,242.08841,70,112,45
242.0952,242.12917,62,112,45
242.13596,242.16992,70,112,45
242.17673,242.74059,62,112,45
242.17673,242.74059,70,112,45
242.17673,242.74059,77,112,45
242.74738,242.8221,65,112,45
242.82889,243.1482,65,112,45
242.82889,243.1482,74,112,45
243.15498,243.39275,76,112,45
243.39955,243.43352,62,112,45
243.4403,243.47427,70,112,45
243.48106,244.04492,62,112,45
243.48106,244.04492,70,112,45
243.48106,244.04492,77,112,45
244.05171,244.08568,55,112,45
244.09248,244.12645,62,112,45
244.13324,244.6971,55,112,45
244.13324,244.6971,62,112,45
244.13324,244.6971,70,112,45
244.70389,244.73785,55,112,45
244.74464,244.77863,62,112,45
244.78542,245.34927,55,112,45
244.78542,245.34927,62,112,45
244.78542,245.34927,69,112,45
245.35606,245.43079,55,112,45
245.43759,246.00145,67,112,45
246.00824,246.08296,62,112,45
246.08975,246.65361,74,112,45
246.66042,246.73514,55,112,45
246.66042,246.73514,62,112,45
246.74193,247.06122,71,112,45
247.06802,247.30579,73,112,45
247.31258,247.34656,55,112,45
247.35335,247.38731,62,112,45
247.3941,247.95796,74,112,45
247.96475,248.03949,55,112,45
248.04628,248.61014,67,112,45
248.61693,248.69165,55,112,45
248.69846,249.24193,65,112,45
275.43756,275.79987,56,112,45
276.30713,276.66943,56,112,45
276.7419,277.10422,60,112,45
277.1767,277.38956,64,112,45
279.3506,279.56345,64,127,45
279.568,279.78085,65,112,45
279.78537,279.99823,64,112,45
280.00278,280.21564,65,127,45
280.22015,280.433,64,112,45
280.43756,280.65042,65,112,45
280.65494,280.8678,64,127,45
280.87234,281.0852,65,112,45
281.08972,281.30258,66,112,45
281.30713,281.52,65,127,45
281.5245,281.73737,64,112,45
281.74188,281.95477,63,112,45
281.9593,282.17215,62,112,45
282.17667,282.38953,61,112,45
282.39407,282.60693,60,112,45
282.61145,282.8243,59,112,45
282.82886,283.04172,58,112,45
283.04623,283.2591,57,112,45
283.26364,283.4765,56,112,45
283.48102,283.69388,57,112,45
283.69843,283.9113,56,112,45
283.9158,284.12866,57,127,45
284.1332,284.34607,56,112,45
284.3506,284.56345,57,112,45
284.568,284.78085,58,127,45
284.78537,284.99823,59,112,45
285.00278,285.21564,60,112,45
285.22015,285.433,61,127,45
285.43753,285.65042,60,112,45
285.65494,285.8678,59,112,45
285.8723,286.08517,58,112,45
286.08972,286.30258,57,112,45
286.3071,286.51996,56,112,45
286.5245,286.73737,57,112,45
286.74188,286.95474,56,112,45
286.9593,287.17215,57,112,45
287.17667,287.38953,56,112,45
287.39407,287.60693,57,112,45
287.61145,287.8243,56,112,45
287.82886,288.04172,57,112,45
288.04623,288.2591,56,112,45
288.26364,288.4765,57,112,45
288.48102,288.69388,56,127,45
288.6984,288.9113,57,112,45
288.9158,289.12866,56,112,45
289.13318,289.34604,57,112,45
289.3506,289.56345,56,112,45
289.56796,289.78082,57,112,45
289.78537,289.99823,56,127,45
290.00275,290.2156,57,112,45
290.22015,290.433,56,112,45
290.43753,290.6504,57,112,45
290.65494,290.8678,56,112,45
290.8723,291.08517,57,112,45
291.08972,291.45203,56,112,45
291.5245,291.8868,56,112,45
291.9593,292.3216,56,112,45
292.39404,292.75638,56,112,45
292.82883,293.19116,56,112,45
293.2636,293.62595,56,112,45
293.6984,294.06073,56,112,45
294.13318,294.4955,59,112,45
294.56796,294.9303,58,112,45
294.56796,294.9303,62,112,45
295.00275,295.36508,64,112,45
295.43753,295.81345,60,112,45
295.43753,295.81345,66,112,45
295.81796,295.8678,58,112,45
295.8723,296.24823,62,112,45
295.8723,296.24823,69,112,45
296.25275,296.30255,57,112,45
296.25275,296.30255,64,112,45
296.3071,296.683,69,112,45
296.3071,296.683,76,112,45
296.68753,296.73734,64,112,45
296.74188,296.95474,69,112,45
296.74188,296.95474,76,112,45
297.1223,297.17212,60,112,45
297.1223,297.17212,64,112,45
297.17667,297.38953,69,112,45
297.17667,297.38953,76,112,45
297.39404,297.55255,62,112,45
297.39404,297.55255,69,112,45
297.5571,297.6069,64,112,45
297.61145,297.98734,69,112,45
297.61145,297.98734,76,112,45
297.99188,298.0417,57,112,45
297.99188,298.0417,64,112,45
298.04623,298.42212,69,112,45
298.04623,298.42212,76,112,45
298.42667,298.47647,55,112,45
298.42667,298.47647,64,112,45
298.48102,298.8569,71,112,45
298.48102,298.8569,76,112,45
298.86145,298.91125,57,112,45
298.86145,298.91125,64,112,45
298.91577,299.2917,69,112,45
298.91577,299.2917,76,112,45
299.29623,299.34604,64,112,45
299.35056,299.56342,69,112,45
299.35056,299.56342,76,112,45
299.731,299.78082,60,112,45
299.731,299.78082,64,112,45
299.78534,299.9982,69,112,45
299.78534,299.9982,76,112,45
300.00275,300.16125,62,112,45
300.00275,300.16125,67,112,45
300.16577,300.2156,64,112,45
300.22012,300.59604,69,112,45
300.22012,300.59604,76,112,45
300.60056,300.6504,57,112,45
300.60056,300.6504,64,112,45
300.6549,301.03082,69,112,45
300.6549,301.03082,76,112,45
301.03534,301.08517,55,112,45
301.03534,301.08517,64,112,45
301.0897,301.45203,71,112,45
301.0897,301.45203,76,112,45
301.52448,301.73734,64,127,45
301.74188,301.95474,72,112,45
301.95926,302.17212,64,112,45
302.17667,302.38953,64,127,45
302.39404,302.6069,72,112,45
302.61142,302.8243,64,112,45
302.82883,303.0417,64,127,45
303.0462,303.25906,72,112,45
303.2636,303.47647,64,127,45
303.481,303.69385,72,112,45
303.6984,303.91125,65,127,45
303.91577,304.12863,71,112,45
304.13318,304.34604,60,112,45
304.35056,304.56342,69,112,45
304.56796,304.78082,60,112,45
304.78534,304.9982,60,112,45
305.00275,305.2156,65,112,45
305.22012,305.43298,57,112,45
305.43753,305.79984,64,112,45
305.87228,306.23462,69,112,45
305.87228,306.23462,76,112,45
306.30707,306.6694,67,112,45
306.30707,306.6694,74,112,45
306.74185,307.1042,64,112,45
306.74185,307.1042,71,112,45
307.17664,307.53897,69,112,45
307.17664,307.53897,76,112,45
307.61142,307.97375,67,112,45
307.61142,307.97375,74,112,45
308.0462,308.40854,64,112,45
308.0462,308.40854,71,112,45
308.481,308.84332,69,112,45
308.481,308.84332,76,112,45
308.91577,309.27808,67,112,45
308.91577,309.27808,74,112,45
309.35056,309.71286,64,112,45
309.35056,309.71286,71,112,45
310.6549,310.86777,56,112,45
310.87228,311.08514,64,112,45
310.87228,311.08514,68,112,45
310.87228,311.08514,71,112,45
310.87228,311.08514,76,112,45
324.13315,324.49545,55,112,45
324.13315,324.49545,64,112,45
324.56793,324.93024,55,112,45
324.56793,324.93024,64,112,45
326.27988,326.30252,55,112,45
326.30704,326.66937,64,112,45
326.30704,326.66937,70,112,45
326.74182,326.95468,76,112,45
327.1766,327.38947,73,112,45
327.394,327.60687,75,112,45
327.6114,327.97372,64,112,45
327.6114,327.97372,73,112,45
327.6114,327.97372,76,112,45
344.5679,344.9302,57,112,45
345.0027,345.365,64,112,45
345.43747,345.65033,60,112,45
345.65485,345.8677,62,112,45
345.87225,346.23456,64,112,45
346.30704,346.66934,57,112,45
346.74182,347.10413,60,112,45
347.17657,347.5389,57,112,45
347.61136,347.9737,64,112,45
348.04614,348.259,60,112,45
348.26355,348.4764,62,112,45
348.48093,348.84326,64,112,45
348.9157,349.27805,57,112,45
349.3505,349.71283,60,112,45
349.78528,350.1476,57,112,45
349.78528,350.1476,64,112,45
349.78528,350.1476,69,112,45
350.22006,350.58237,57,112,45
350.22006,350.58237,65,112,45
350.22006,350.58237,69,112,45
350.65485,351.01715,58,112,45
350.65485,351.01715,64,112,45
351.08963,351.45193,57,112,45
351.08963,351.45193,64,112,45
351.08963,351.45193,69,112,45
351.5244,351.88672,55,112,45
351.5244,351.88672,67,112,45
351.9592,352.3215,55,112,45
351.9592,352.3215,64,112,45
352.39398,352.7563,57,112,45
352.39398,352.7563,64,112,45
352.39398,352.7563,69,112,45
352.82877,353.19107,57,112,45
352.82877,353.19107,65,112,45
352.82877,353.19107,69,112,45
352.82877,353.19107,76,112,45
353.26355,353.4764,55,112,45
353.26355,353.4764,64,112,45
353.26355,353.4764,72,112,45
353.48093,353.6938,74,112,45
353.6983,354.06064,57,112,45
353.6983,354.06064,64,112,45
353.6983,354.06064,69,112,45
353.6983,354.06064,76,112,45
354.1331,354.34595,62,112,45
354.1331,354.34595,72,112,45
354.3505,354.56335,74,112,45
354.56787,354.9302,57,112,45
354.56787,354.9302,64,112,45
354.56787,354.9302,69,112,45
354.56787,354.9302,76,112,45
355.00266,355.2155,55,112,45
355.00266,355.2155,62,112,45
355.00266,355.2155,72,112,45
355.22006,355.43292,74,112,45
355.43744,355.79977,57,112,45
355.43744,355.79977,64,112,45
355.43744,355.79977,69,112,45
355.43744,355.79977,76,112,45
355.87222,356.08508,55,112,45
355.87222,356.08508,62,112,45
355.87222,356.08508,72,112,45
356.08963,356.2753,74,112,45
356.27985,356.3025,62,112,45
356.307,356.66934,62,112,45
356.307,356.66934,69,112,45
356.307,356.66934,76,112,45
357.61136,358.0562,56,112,45
357.61136,358.0562,68,112,45
358.15356,358.695,56,112,45
358.15356,358.695,68,112,45
359.4727,359.49503,57,112,45
359.49948,359.5218,64,112,45
359.52628,359.73608,57,112,45
359.52628,359.73608,64,112,45
359.52628,359.73608,69,112,45
359.52628,359.73608,76,112,45
15.652152,15.760847,64,127,40
15.760847,15.865014,68,112,40
15.869543,15.978238,70,112,40
15.978238,16.082405,68,112,40
16.086933,16.19563,64,127,40
16.19563,16.299795,68,112,40
16.304325,16.413021,70,112,40
16.413021,16.517187,68,112,40
16.521715,16.630411,64,127,40
16.630411,16.734577,68,112,40
16.739107,16.847803,70,112,40
16.847803,16.95197,68,112,40
16.956497,17.065193,66,127,40
17.065193,17.16936,68,112,40
17.17389,17.282585,70,112,40
17.282585,17.386751,68,112,40
17.39128,17.499975,66,127,40
17.499975,17.604141,68,112,40
17.608671,17.717367,70,112,40
17.717367,17.821533,68,112,40
17.826061,17.934757,66,127,40
17.934757,18.038923,68,112,40
18.043453,18.15215,70,112,40
18.15215,18.256315,68,112,40
18.260843,18.36954,64,112,40
18.36954,18.473705,68,112,40
18.478235,18.586931,70,112,40
18.586931,18.691097,68,112,40
18.695625,18.804321,64,112,40
18.804321,18.908487,68,112,40
18.913017,19.021713,70,112,40
19.021713,19.12588,68,112,40
19.130407,19.239103,64,112,40
19.239103,19.34327,68,112,40
19.3478,19.456495,70,112,40
19.456495,19.560661,68,112,40
19.56519,19.673885,64,112,40
19.673885,19.778051,66,112,40
19.782581,19.891277,71,112,40
19.891277,19.995443,66,112,40
19.999971,20.108667,64,112,40
20.108667,20.212833,66,112,40
20.217363,20.32606,71,112,40
20.32606,20.430225,66,112,40
20.434753,20.54345,64,112,40
20.54345,20.647615,66,112,40
20.652145,20.760841,71,112,40
20.760841,20.865007,66,112,40
20.869535,20.978231,68,127,40
20.978231,21.086927,73,112,40
21.086927,21.195623,76,112,40
21.195623,21.29979,73,112,40
21.304317,21.413013,68,127,40
21.413013,21.52171,73,112,40
21.52171,21.630405,76,112,40
21.630405,21.734571,73,112,40
21.7391,21.847795,68,127,40
21.847795,21.956491,73,112,40
21.956491,22.065186,76,112,40
22.065186,22.169353,73,112,40
22.173882,22.282578,70,112,40
22.282578,22.386744,73,112,40
22.391273,22.499968,78,112,40
22.499968,22.604136,73,112,40
22.608664,22.71736,70,112,40
22.71736,22.821526,73,112,40
22.826056,22.93475,78,112,40
22.93475,23.038918,73,112,40
23.043446,23.152142,70,112,40
23.152142,23.256308,73,112,40
23.260838,23.369532,78,112,40
23.369532,23.4737,73,112,40
23.478228,23.586924,68,112,40
23.586924,23.69109,73,112,40
23.69562,23.804314,76,112,40
23.804314,23.908482,73,112,40
23.91301,24.021706,68,112,40
24.021706,24.125872,73,112,40
24.130402,24.239096,76,112,40
24.239096,24.343264,73,112,40
24.347792,24.456488,68,112,40
24.456488,24.560654,73,112,40
24.565184,24.673878,76,112,40
24.673878,24.778046,73,112,40
24.782574,24.89127,68,112,40
24.89127,24.995436,74,112,40
24.999966,25.10866,76,112,40
25.10866,25.212828,74,112,40
25.217356,25.326052,68,112,40
25.326052,25.430218,74,112,40
25.434748,25.543442,76,112,40
25.543442,25.64761,74,112,40
25.652138,25.760834,68,112,40
25.760834,25.865,74,112,40
25.86953,25.978224,76,112,40
25.978224,26.082392,74,112,40
26.08692,26.299782,76,112,40
26.521702,26.57605,64,112,40
26.57605,26.630398,61,112,40
26.630398,26.684746,64,112,40
26.684746,26.739094,61,112,40
26.739094,26.79344,64,112,40
26.79344,26.847788,61,112,40
26.847788,26.902136,64,112,40
26.902136,26.956484,61,112,40
26.956484,27.010832,64,112,40
27.010832,27.06518,61,112,40
27.06518,27.119528,64,112,40
27.119528,27.173876,61,112,40
27.173876,27.228222,64,112,40
27.228222,27.28257,61,112,40
27.28257,27.336918,64,112,40
27.336918,27.391266,61,112,40
27.391266,27.604128,64,112,40
28.695612,28.804308,88,112,40
28.804308,28.913004,85,112,40
28.913004,29.021698,88,112,40
29.021698,29.130394,85,112,40
29.130394,29.23909,88,112,40
29.23909,29.347786,85,112,40
29.347786,29.45648,88,112,40
29.45648,29.565176,85,112,40
29.565176,29.778038,88,112,40
32.60865,32.75358,66,112,40
32.75358,32.898506,68,112,40
32.898506,33.04343,70,112,40
33.04343,33.40575,76,127,40
33.478214,33.623142,66,112,40
33.623142,33.76807,68,112,40
33.76807,33.912994,70,112,40
33.912994,34.275314,76,127,40
34.34778,34.492706,66,112,40
34.492706,34.637634,68,112,40
34.637634,34.78256,70,112,40
34.78256,35.14488,76,127,40
35.217342,35.36227,64,112,40
35.36227,35.5072,66,112,40
35.5072,35.652122,68,112,40
35.652122,36.014442,74,127,40
36.086906,36.231834,64,112,40
36.231834,36.376762,66,112,40
36.376762,36.521687,68,112,40
36.521687,36.884007,74,127,40
36.95647,37.1014,64,112,40
37.1014,37.246326,66,112,40
37.246326,37.39125,68,112,40
37.39125,37.75357,74,127,40
37.826035,37.875854,80,112,40
37.880383,37.9302,80,112,40
37.93473,37.984547,80,112,40
37.98908,38.038895,80,112,40
38.043427,38.093243,80,112,40
38.097775,38.14759,80,112,40
38.15212,38.20194,80,112,40
38.206467,38.256287,80,112,40
38.260815,38.310635,80,112,40
38.315163,38.364983,80,112,40
38.36951,38.41933,80,112,40
38.42386,38.47368,80,112,40
38.478207,38.528027,80,112,40
38.532555,38.582375,80,112,40
38.586903,38.636723,80,112,40
38.64125,38.69107,80,112,40
38.6956,38.74542,75,112,40
38.749947,38.799763,75,112,40
38.804295,38.85411,75,112,40
38.858643,38.90846,75,112,40
38.91299,38.962807,75,112,40
38.96734,39.017155,75,112,40
39.021683,39.071503,75,112,40
39.07603,39.12585,75,112,40
39.13038,39.1802,68,112,40
39.184727,39.234547,68,112,40
39.239075,39.288895,68,112,40
39.293423,39.343243,68,112,40
39.34777,39.39759,68,112,40
39.40212,39.45194,68,112,40
39.456467,39.506287,68,112,40
39.510815,39.560635,68,112,40
39.565163,39.614983,68,112,40
39.61951,39.669327,68,112,40
39.67386,39.723675,68,112,40
39.728207,39.778023,68,112,40
39.782555,39.83237,68,112,40
39.836903,39.88672,68,112,40
39.891247,39.941067,68,112,40
39.945595,39.995415,68,112,40
39.999943,40.049763,63,112,40
40.05429,40.10411,63,112,40
40.10864,40.15846,63,112,40
40.162987,40.212807,63,112,40
40.217335,40.267155,63,112,40
40.271683,40.321503,63,112,40
40.32603,40.37585,63,112,40
40.38038,40.4302,63,112,40
40.434727,40.484547,56,112,40
40.489075,40.53889,56,112,40
40.543423,40.59324,56,112,40
40.59777,40.647587,56,112,40
40.65212,40.701935,56,112,40
40.706463,40.756283,56,112,40
40.76081,40.81063,56,112,40
40.81516,40.86498,56,112,40
40.869507,40.919327,56,112,40
40.923855,40.973675,56,112,40
40.978203,41.028023,56,112,40
41.03255,41.08237,56,112,40
41.0869,41.13672,56,112,40
41.141247,41.191067,56,112,40
41.195595,41.245415,56,112,40
41.249943,41.299763,56,112,40
41.30429,41.354107,56,112,40
41.35864,41.408455,56,112,40
41.412987,41.462803,56,112,40
41.467335,41.51715,56,112,40
41.521683,41.5715,56,112,40
41.576027,41.625847,56,112,40
41.630375,41.680195,56,112,40
41.684723,41.734543,56,112,40
41.73907,41.78889,56,112,40
41.79342,41.84324,56,112,40
41.847767,41.897587,56,112,40
41.902115,41.951935,56,112,40
41.956463,42.006283,56,112,40
42.01081,42.06063,56,112,40
42.06516,42.11498,56,112,40
42.119507,42.169327,56,112,40
42.173855,42.22367,59,127,40
42.228203,42.27802,59,112,40
42.28255,42.332367,59,112,40
42.3369,42.386715,59,112,40
42.391247,42.441063,59,112,40
42.44559,42.49541,59,112,40
42.49994,42.54976,59,112,40
42.554287,42.604107,59,112,40
42.608635,42.658455,59,112,40
42.662983,42.712803,59,112,40
42.71733,42.76715,59,112,40
42.77168,42.8215,59,112,40
42.826027,42.875847,59,112,40
42.880375,42.930195,59,112,40
42.934723,42.984543,59,112,40
42.98907,43.03889,59,112,40
43.04342,43.093235,56,112,40
43.097767,43.147583,56,112,40
43.152115,43.20193,56,112,40
43.206463,43.25628,56,112,40
43.26081,43.310627,56,112,40
43.315155,43.364975,56,112,40
43.369503,43.419323,56,112,40
43.42385,43.47367,56,112,40
43.4782,43.52802,59,127,40
43.532547,43.582367,59,112,40
43.586895,43.636715,59,112,40
43.641243,43.691063,59,112,40
43.69559,43.74541,59,112,40
43.74994,43.79976,59,112,40
43.804287,43.854107,59,112,40
43.858635,43.908455,59,112,40
43.912983,43.9628,59,112,40
43.96733,44.017147,59,112,40
44.02168,44.071495,59,112,40
44.076027,44.125843,59,112,40
44.13037,44.18019,59,112,40
44.18472,44.23454,59,112,40
44.239067,44.288887,59,112,40
44.293415,44.343235,59,112,40
44.347763,44.397583,61,112,40
44.40211,44.45193,61,112,40
44.45646,44.50628,61,112,40
44.510807,44.560627,61,112,40
44.565155,44.614975,61,112,40
44.619503,44.669323,61,112,40
44.67385,44.72367,61,112,40
44.7282,44.778015,61,112,40
44.782547,44.832363,61,112,40
44.836895,44.88671,61,112,40
44.891243,44.94106,61,112,40
44.94559,44.995407,61,112,40
44.999935,45.049755,61,112,40
45.054283,45.104103,61,112,40
45.10863,45.15845,61,112,40
45.16298,45.2128,61,112,40
45.217327,45.267147,61,112,40
45.271675,45.321495,61,112,40
45.326023,45.375843,61,112,40
45.38037,45.43019,61,112,40
45.43472,45.48454,61,112,40
45.489067,45.538887,61,112,40
45.543415,45.593235,61,112,40
45.597763,45.64758,61,112,40
45.65211,45.701927,61,112,40
45.70646,45.756275,61,112,40
45.760807,45.810623,61,112,40
45.815155,45.86497,61,112,40
45.8695,45.91932,61,112,40
45.923847,45.973667,61,112,40
45.978195,46.028015,61,112,40
46.032543,46.082363,61,112,40
46.08689,46.13671,61,112,40
46.14124,46.19106,61,112,40
46.195587,46.245407,61,112,40
46.249935,46.299755,61,112,40
46.304283,46.354103,61,112,40
46.35863,46.40845,61,112,40
46.41298,46.4628,61,112,40
46.467327,46.517143,61,112,40
46.521675,46.57149,61,112,40
46.576023,46.62584,61,112,40
46.63037,46.680187,61,112,40
46.68472,46.734535,61,112,40
46.739063,46.788883,61,112,40
46.79341,46.84323,61,112,40
46.84776,46.89758,61,112,40
46.902107,46.951927,61,112,40
46.956455,47.16932,61,112,40
66.521645,66.63034,64,112,40
66.63034,66.734505,67,112,40
66.73904,66.84773,69,112,40
66.84773,66.9519,67,112,40
66.95643,67.065125,64,112,40
67.065125,67.16929,67,112,40
67.17382,67.28252,69,112,40
67.28252,67.38668,67,112,40
67.39121,67.49991,64,112,40
67.49991,67.60407,67,112,40
67.608604,67.71729,69,112,40
67.71729,67.821465,67,112,40
67.82599,67.934685,66,112,40
67.934685,68.03886,68,112,40
68.04338,68.15208,70,112,40
68.15208,68.25625,68,112,40
68.26077,68.36947,66,112,40
68.36947,68.47363,68,112,40
68.478165,68.58686,70,112,40
68.58686,68.691025,68,112,40
68.69556,68.80425,66,112,40
68.80425,68.90842,68,112,40
68.91295,69.021645,70,112,40
69.021645,69.12581,68,112,40
69.13034,69.23904,64,112,40
69.23904,69.3432,67,112,40
69.34773,69.45642,69,112,40
69.45642,69.56059,67,112,40
69.56512,69.67381,64,112,40
69.67381,69.777985,67,112,40
69.78251,69.891205,69,112,40
69.891205,69.99538,67,112,40
69.9999,70.1086,64,112,40
70.1086,70.21276,67,112,40
70.21729,70.32599,69,112,40
70.32599,70.43015,67,112,40
70.434685,70.54338,64,112,40
70.54338,70.647545,67,112,40
70.65208,70.76077,69,112,40
70.76077,70.86494,67,112,40
70.86947,70.978165,64,112,40
70.978165,71.08233,67,112,40
71.08686,71.19555,69,112,40
71.19555,71.29972,67,112,40
71.304245,71.41294,64,112,40
71.41294,71.51711,67,112,40
71.52164,71.63033,69,112,40
71.63033,71.734505,67,112,40
71.73903,71.847725,67,112,40
71.847725,71.95189,70,112,40
71.95642,72.06512,76,112,40
72.06512,72.16928,70,112,40
72.17381,72.28251,67,112,40
72.28251,72.38667,70,112,40
72.391205,72.4999,76,112,40
72.4999,72.604065,70,112,40
72.6086,72.71729,67,112,40
72.71729,72.82146,70,112,40
72.82599,72.93468,76,112,40
72.93468,73.03885,70,112,40
73.04337,73.15207,70,112,40
73.15207,73.25624,73,112,40
73.260765,73.36946,77,112,40
73.36946,73.47363,73,112,40
73.47816,73.58685,70,112,40
73.58685,73.69102,73,112,40
73.69555,73.804245,77,112,40
73.804245,73.90841,73,112,40
73.91294,74.02164,70,112,40
74.02164,74.1258,73,112,40
74.13033,74.23903,77,112,40
74.23903,74.34319,73,112,40
74.347725,74.45642,67,112,40
74.45642,74.560585,70,112,40
74.56511,74.673805,76,112,40
74.673805,74.77798,70,112,40
74.7825,74.8912,67,112,40
74.8912,74.99537,70,112,40
74.99989,75.10859,76,112,40
75.10859,75.21275,70,112,40
75.217285,75.32598,67,112,40
75.32598,75.430145,70,112,40
75.43468,75.54337,76,112,40
75.54337,75.64754,70,112,40
75.65207,75.760765,69,112,40
75.760765,75.86493,75,112,40
75.86946,75.97816,77,112,40
75.97816,76.08232,75,112,40
76.08685,76.19555,69,112,40
76.19555,76.29971,75,112,40
76.30424,76.41293,77,112,40
76.41293,76.517105,75,112,40
76.52163,76.630325,69,112,40
76.630325,76.7345,75,112,40
76.73902,76.84772,77,112,40
76.84772,76.95188,75,112,40
76.95641,77.16927,69,112,40
77.3912,77.44554,65,112,40
77.44554,77.49989,62,112,40
77.49989,77.55424,65,112,40
77.55424,77.60859,62,112,40
77.60859,77.66293,65,112,40
77.66293,77.717285,62,112,40
77.717285,77.77163,65,112,40
77.77163,77.82598,62,112,40
77.82598,77.880325,65,112,40
77.880325,77.93468,62,112,40
77.93468,77.98902,65,112,40
77.98902,78.043365,62,112,40
78.043365,78.09772,65,112,40
78.09772,78.15206,62,112,40
78.15206,78.20641,65,112,40
78.20641,78.26076,62,112,40
78.26076,78.473625,65,112,40
79.56511,79.61945,89,112,40
79.61945,79.673805,86,112,40
79.673805,79.72815,89,112,40
79.72815,79.78249,86,112,40
79.78249,79.836845,89,112,40
79.836845,79.89119,86,112,40
79.89119,79.94554,89,112,40
79.94554,79.999886,86,112,40
79.999886,80.05424,89,112,40
80.05424,80.10858,86,112,40
80.10858,80.16293,89,112,40
80.16293,80.21728,86,112,40
80.21728,80.27163,89,112,40
80.27163,80.32597,86,112,40
80.32597,80.380325,89,112,40
80.380325,80.43467,86,112,40
80.43467,80.64753,89,112,40
83.47814,83.62307,67,112,40
83.62307,83.768,69,112,40
83.768,83.912926,71,112,40
83.912926,84.275246,77,127,40
84.34771,84.49264,67,112,40
84.49264,84.637566,69,112,40
84.637566,84.78249,71,112,40
84.78249,85.144806,77,127,40
85.21727,85.3622,67,112,40
85.3622,85.507126,69,112,40
85.507126,85.652054,71,112,40
85.652054,86.01437,77,127,40
86.08684,86.231766,65,112,40
86.231766,86.37669,67,112,40
86.37669,86.52162,69,112,40
86.52162,86.883934,75,127,40
86.9564,87.101326,65,112,40
87.101326,87.246254,67,112,40
87.246254,87.39118,69,112,40
87.39118,87.7535,75,127,40
87.825966,87.970894,65,112,40
87.970894,88.11582,67,112,40
88.11582,88.26074,69,112,40
88.26074,88.62306,75,127,40
88.695526,88.745346,68,112,40
88.695526,88.745346,77,112,40
88.74988,88.7997,68,112,40
88.74988,88.7997,77,112,40
88.80422,88.85404,68,112,40
88.80422,88.85404,77,112,40
88.858574,88.90839,68,112,40
88.858574,88.90839,77,112,40
88.91292,88.96274,68,112,40
88.91292,88.96274,77,112,40
88.96727,89.01708,68,112,40
88.96727,89.01708,77,112,40
89.021614,89.071434,68,112,40
89.021614,89.071434,77,112,40
89.075966,89.12578,68,112,40
89.075966,89.12578,77,112,40
89.13031,89.18013,68,112,40
89.13031,89.18013,77,112,40
89.184654,89.234474,68,112,40
89.184654,89.234474,77,112,40
89.239006,89.288826,68,112,40
89.239006,89.288826,77,112,40
89.29335,89.34317,68,112,40
89.29335,89.34317,77,112,40
89.3477,89.39752,68,112,40
89.3477,89.39752,77,112,40
89.40205,89.451866,68,112,40
89.40205,89.451866,77,112,40
89.4564,89.50622,68,112,40
89.4564,89.50622,77,112,40
89.51074,89.56056,68,112,40
89.51074,89.56056,77,112,40
89.565094,89.614914,68,112,40
89.565094,89.614914,77,112,40
89.61944,89.66926,68,112,40
89.61944,89.66926,77,112,40
89.67379,89.72361,68,112,40
89.67379,89.72361,77,112,40
89.728134,89.777954,68,112,40
89.728134,89.777954,77,112,40
89.782486,89.8323,68,112,40
89.782486,89.8323,77,112,40
89.83683,89.88665,68,112,40
89.83683,89.88665,77,112,40
89.89118,89.940994,68,112,40
89.89118,89.940994,77,112,40
89.945526,89.995346,68,112,40
89.945526,89.995346,77,112,40
89.99987,90.04969,65,112,40
89.99987,90.04969,74,112,40
90.05422,90.10404,65,112,40
90.05422,90.10404,74,112,40
90.10857,90.15839,65,112,40
90.10857,90.15839,74,112,40
90.16292,90.21274,65,112,40
90.16292,90.21274,74,112,40
90.21726,90.26708,65,112,40
90.21726,90.26708,74,112,40
90.271614,90.321434,65,112,40
90.271614,90.321434,74,112,40
90.32596,90.37578,65,112,40
90.32596,90.37578,74,112,40
90.38031,90.43013,65,112,40
90.38031,90.43013,74,112,40
90.434654,90.484474,65,112,40
90.434654,90.484474,74,112,40
90.489006,90.538826,65,112,40
90.489006,90.538826,74,112,40
90.54335,90.59317,65,112,40
90.54335,90.59317,74,112,40
90.5977,90.647514,65,112,40
90.5977,90.647514,74,112,40
90.65205,90.701866,65,112,40
90.65205,90.701866,74,112,40
90.7064,90.75621,65,112,40
90.7064,90.75621,74,112,40
90.76074,90.81056,65,112,40
90.76074,90.81056,74,112,40
90.815094,90.86491,65,112,40
90.815094,90.86491,74,112,40
90.86944,90.91926,65,112,40
90.86944,90.91926,74,112,40
90.92378,90.9736,65,112,40
90.92378,90.9736,74,112,40
90.978134,91.027954,65,112,40
90.978134,91.027954,74,112,40
91.03248,91.0823,65,112,40
91.03248,91.0823,74,112,40
91.08683,91.13665,65,112,40
91.08683,91.13665,74,112,40
91.141174,91.190994,65,112,40
91.141174,91.190994,74,112,40
91.195526,91.245346,65,112,40
91.195526,91.245346,74,112,40
91.24987,91.29969,65,112,40
91.24987,91.29969,74,112,40
91.30422,91.35404,63,112,40
91.30422,91.35404,72,112,40
91.35857,91.40839,63,112,40
91.35857,91.40839,72,112,40
91.41292,91.46274,63,112,40
91.41292,91.46274,72,112,40
91.46726,91.51708,63,112,40
91.46726,91.51708,72,112,40
91.521614,91.57143,63,112,40
91.521614,91.57143,72,112,40
91.57596,91.62578,63,112,40
91.57596,91.62578,72,112,40
91.63031,91.68012,63,112,40
91.63031,91.68012,72,112,40
91.684654,91.734474,63,112,40
91.684654,91.734474,72,112,40
91.739,91.78882,63,112,40
91.739,91.78882,72,112,40
91.79335,91.84317,63,112,40
91.79335,91.84317,72,112,40
91.847694,91.897514,63,112,40
91.847694,91.897514,72,112,40
91.90205,91.951866,63,112,40
91.90205,91.951866,72,112,40
91.95639,92.00621,63,112,40
91.95639,92.00621,72,112,40
92.01074,92.06056,63,112,40
92.01074,92.06056,72,112,40
92.06509,92.11491,63,112,40
92.06509,92.11491,72,112,40
92.11944,92.16926,63,112,40
92.11944,92.16926,72,112,40
92.17378,92.2236,63,112,40
92.17378,92.2236,72,112,40
92.228134,92.277954,63,112,40
92.228134,92.277954,72,112,40
92.28248,92.3323,63,112,40
92.28248,92.3323,72,112,40
92.33683,92.38664,63,112,40
92.33683,92.38664,72,112,40
92.391174,92.440994,63,112,40
92.391174,92.440994,72,112,40
92.445526,92.49534,63,112,40
92.445526,92.49534,72,112,40
92.49987,92.54969,63,112,40
92.49987,92.54969,72,112,40
92.554214,92.604034,63,112,40
92.554214,92.604034,72,112,40
92.60857,92.65839,60,112,40
92.60857,92.65839,68,112,40
92.66291,92.71273,60,112,40
92.66291,92.71273,68,112,40
92.71726,92.76708,60,112,40
92.71726,92.76708,68,112,40
92.77161,92.82143,60,112,40
92.77161,92.82143,68,112,40
92.82596,92.87578,60,112,40
92.82596,92.87578,68,112,40
92.8803,92.93012,60,112,40
92.8803,92.93012,68,112,40
92.934654,92.984474,60,112,40
92.934654,92.984474,68,112,40
92.989,93.03882,60,112,40
92.989,93.03882,68,112,40
93.04335,93.09317,60,112,40
93.04335,93.09317,68,112,40
93.097694,93.147514,60,112,40
93.097694,93.147514,68,112,40
93.15205,93.20186,60,112,40
93.15205,93.20186,68,112,40
93.20639,93.25621,60,112,40
93.20639,93.25621,68,112,40
93.26074,93.310555,60,112,40
93.26074,93.310555,68,112,40
93.31509,93.36491,60,112,40
93.31509,93.36491,68,112,40
93.36944,93.41925,60,112,40
93.36944,93.41925,68,112,40
93.42378,93.4736,60,112,40
93.42378,93.4736,68,112,40
93.47813,93.52795,60,112,40
93.47813,93.52795,68,112,40
93.53248,93.5823,60,112,40
93.53248,93.5823,68,112,40
93.58682,93.63664,60,112,40
93.58682,93.63664,68,112,40
93.641174,93.690994,60,112,40
93.641174,93.690994,68,112,40
93.69552,93.74534,60,112,40
93.69552,93.74534,68,112,40
93.74987,93.79969,60,112,40
93.74987,93.79969,68,112,40
93.804214,93.854034,60,112,40
93.804214,93.854034,68,112,40
93.85857,93.90839,60,112,40
93.85857,93.90839,68,112,40
93.91291,93.96273,58,112,40
93.91291,93.96273,64,112,40
93.96726,94.01708,58,112,40
93.96726,94.01708,64,112,40
94.02161,94.07143,58,112,40
94.02161,94.07143,64,112,40
94.07596,94.12577,58,112,40
94.07596,94.12577,64,112,40
94.1303,94.18012,58,112,40
94.1303,94.18012,64,112,40
94.184654,94.23447,58,112,40
94.184654,94.23447,64,112,40
94.239,94.28882,58,112,40
94.239,94.28882,64,112,40
94.29334,94.34316,58,112,40
94.29334,94.34316,64,112,40
94.347694,94.397514,58,112,40
94.347694,94.397514,64,112,40
94.40204,94.45186,58,112,40
94.40204,94.45186,64,112,40
94.45639,94.50621,58,112,40
94.45639,94.50621,64,112,40
94.510735,94.560555,58,112,40
94.510735,94.560555,64,112,40
94.56509,94.61491,58,112,40
94.56509,94.61491,64,112,40
94.61943,94.66925,58,112,40
94.61943,94.66925,64,112,40
94.67378,94.7236,58,112,40
94.67378,94.7236,64,112,40
94.72813,94.77795,58,112,40
94.72813,94.77795,64,112,40
94.78248,94.8323,58,112,40
94.78248,94.8323,64,112,40
94.83682,94.88664,58,112,40
94.83682,94.88664,64,112,40
94.891174,94.94099,58,112,40
94.891174,94.94099,64,112,40
94.94552,94.99534,58,112,40
94.94552,94.99534,64,112,40
94.99987,95.04968,58,112,40
94.99987,95.04968,64,112,40
95.054214,95.104034,58,112,40
95.054214,95.104034,64,112,40
95.10857,95.15838,58,112,40
95.10857,95.15838,64,112,40
95.16291,95.21273,58,112,40
95.16291,95.21273,64,112,40
95.217255,95.267075,55,112,40
95.217255,95.267075,64,112,40
95.27161,95.32143,55,112,40
95.27161,95.32143,64,112,40
95.32595,95.37577,55,112,40
95.32595,95.37577,64,112,40
95.3803,95.43012,55,112,40
95.3803,95.43012,64,112,40
95.43465,95.48447,55,112,40
95.43465,95.48447,64,112,40
95.489,95.53882,55,112,40
95.489,95.53882,64,112,40
95.54334,95.59316,55,112,40
95.54334,95.59316,64,112,40
95.597694,95.647514,55,112,40
95.597694,95.647514,64,112,40
95.65204,95.70186,55,112,40
95.65204,95.70186,64,112,40
95.70639,95.75621,55,112,40
95.70639,95.75621,64,112,40
95.760735,95.810555,55,112,40
95.760735,95.810555,64,112,40
95.81509,95.8649,55,112,40
95.81509,95.8649,64,112,40
95.86943,95.91925,55,112,40
95.86943,95.91925,64,112,40
95.92378,95.973595,55,112,40
95.92378,95.973595,64,112,40
95.97813,96.02795,55,112,40
95.97813,96.02795,64,112,40
96.03247,96.08229,55,112,40
96.03247,96.08229,64,112,40
96.08682,96.13664,55,112,40
96.08682,96.13664,64,112,40
96.14117,96.19099,55,112,40
96.14117,96.19099,64,112,40
96.19552,96.24534,55,112,40
96.19552,96.24534,64,112,40
96.24986,96.29968,55,112,40
96.24986,96.29968,64,112,40
96.304214,96.354034,55,112,40
96.304214,96.354034,64,112,40
96.35856,96.40838,55,112,40
96.35856,96.40838,64,112,40
96.41291,96.46273,55,112,40
96.41291,96.46273,64,112,40
96.467255,96.517075,55,112,40
96.467255,96.517075,64,112,40
96.52161,96.57143,62,112,40
96.57595,96.62577,62,112,40
96.6303,96.680115,62,112,40
96.68465,96.73447,62,112,40
96.739,96.78881,62,112,40
96.79334,96.84316,62,112,40
96.84769,96.89751,62,112,40
96.90204,96.95186,62,112,40
96.95638,97.0062,62,112,40
97.010735,97.060555,62,112,40
97.06508,97.1149,62,112,40
97.11943,97.16925,62,112,40
97.173775,97.223595,62,112,40
97.22813,97.27795,62,112,40
97.28247,97.33229,62,112,40
97.33682,97.38664,62,112,40
97.39117,97.44099,60,112,40
97.44552,97.49533,60,112,40
97.49986,97.54968,60,112,40
97.554214,97.60403,60,112,40
97.60856,97.65838,60,112,40
97.66291,97.71272,60,112,40
97.717255,97.767075,60,112,40
97.7716,97.82142,60,112,40
97.82595,97.87577,60,112,40
97.880295,97.930115,60,112,40
97.93465,97.98447,60,112,40
97.98899,98.03881,60,112,40
98.04334,98.09316,60,112,40
98.09769,98.14751,60,112,40
98.15204,98.20186,60,112,40
98.20638,98.2562,60,112,40
98.260735,98.310555,60,112,40
98.31508,98.3649,60,112,40
98.36943,98.41924,60,112,40
98.423775,98.473595,60,112,40
98.47813,98.52794,60,112,40
98.53247,98.58229,60,112,40
98.586815,98.636635,60,112,40
98.64117,98.69099,60,112,40
115.83066,117.13501,65,112,40
117.13501,118.439354,63,112,40
118.439354,118.87414,62,112,40
118.87414,119.30892,63,112,40
119.30892,119.7437,64,112,40
119.7437,120.395874,65,112,40
120.395874,121.04805,63,112,40
121.04805,121.70022,62,112,40
121.70022,122.352394,63,112,40
122.352394,122.78718,64,112,40
122.78718,123.22196,63,112,40
123.22196,123.65674,62,112,40
123.65674,125.613266,61,112,40
125.613266,126.265434,60,112,40
126.265434,128.00456,59,112,40
128.00456,128.43935,58,112,40
128.43935,128.87413,57,112,40
128.87413,130.17848,56,112,40
130.17848,131.48282,55,112,40
131.48282,132.135,58,112,40
132.135,133.43935,57,112,40
133.43935,134.7437,56,112,40
134.7437,136.04803,55,112,40
136.04803,136.70021,59,112,40
136.70021,139.70021,62,112,40
139.70021,141.16896,61,112,40
141.20021,141.80022,60,112,40
141.80022,142.4002,58,112,40
142.4002,143.00021,55,112,40
143.00021,143.5877,56,112,40
143.6002,144.00021,60,112,40
144.00021,144.4002,58,112,40
144.4002,144.80022,57,112,40
144.80022,145.80022,56,112,40
146.00021,146.4002,60,112,40
146.4002,146.80022,58,112,40
146.80022,147.20021,57,112,40
147.20021,147.80022,56,112,40
147.80022,148.38771,57,112,40
148.4002,148.80022,58,112,40
148.80022,149.20021,57,112,40
149.20021,149.6002,58,112,40
149.6002,150.18771,57,112,40
150.20021,151.4002,56,112,40
151.4002,153.00021,55,112,40
153.20021,153.80022,58,112,40
153.80022,154.80022,63,112,40
154.80022,155.20021,62,112,40
155.20021,155.5877,61,112,40
156.20021,156.3502,60,112,40
156.3502,156.50021,64,112,40
156.50021,156.6502,60,112,40
156.6502,156.7877,64,112,40
156.80022,156.95021,62,112,40
156.95021,157.1002,66,112,40
157.1002,157.25021,62,112,40
157.25021,157.38771,66,112,40
158.00021,158.1502,61,112,40
158.1502,158.30022,65,112,40
158.30022,158.45021,61,112,40
158.45021,158.5877,65,112,40
158.6002,158.75021,60,112,40
158.75021,158.9002,64,112,40
158.9002,159.05022,60,112,40
159.05022,159.18771,64,112,40
159.80022,159.95021,60,112,40
159.95021,160.1002,64,112,40
160.1002,160.25021,60,112,40
160.25021,160.38771,64,112,40
160.4002,160.55022,62,112,40
160.55022,160.70021,66,112,40
160.70021,160.8502,62,112,40
160.8502,160.98772,66,112,40
161.6002,161.75021,61,112,40
161.75021,161.9002,65,112,40
161.9002,162.05022,61,112,40
162.05022,162.18771,65,112,40
162.20021,162.3502,60,112,40
162.3502,162.50021,64,112,40
162.50021,162.6502,60,112,40
162.6502,162.7877,64,112,40
163.4002,164.00021,79,112,40
164.00021,164.6002,75,112,40
164.6002,165.20021,72,112,40
165.20021,165.7877,69,112,40
165.80022,166.4002,67,112,40
166.4002,167.00021,63,112,40
167.00021,167.6002,62,112,40
167.6002,168.18771,60,112,40
168.80022,173.6002,58,112,40
173.6002,174.18771,58,112,40
174.20021,175.20021,60,112,40
175.4002,176.4002,58,112,40
176.6002,177.18771,57,112,40
177.20021,177.7877,58,112,40
177.80022,178.80022,60,112,40
179.00021,180.00021,58,112,40
180.20021,180.7877,57,112,40
180.80022,181.4002,58,112,40
181.4002,182.00021,60,112,40
182.00021,182.6002,63,112,40
182.6002,183.20021,66,112,40
183.20021,183.7877,69,112,40
183.80022,185.00021,70,112,40
185.00021,185.6002,72,112,40
185.6002,186.20021,70,112,40
186.20021,186.80022,69,112,40
186.80022,187.4002,68,112,40
187.4002,188.00021,69,112,40
188.00021,188.6002,70,112,40
188.6002,189.20021,69,112,40
189.20021,189.80022,68,112,40
189.80022,190.4002,69,112,40
190.4002,191.00021,70,112,40
191.00021,191.6002,72,112,40
191.6002,192.20021,70,112,40
192.20021,192.80022,72,112,40
192.80022,193.4002,70,112,40
193.4002,194.00021,72,112,40
194.00021,194.6002,70,112,40
194.6002,195.18771,72,112,40
195.20021,196.50456,70,112,40
196.50456,197.8089,72,112,40
197.8089,199.3714,70,112,40
199.6839,199.84695,64,112,40
199.84695,199.9964,68,112,40
200.01,200.17303,70,112,40
200.17303,200.3225,68,112,40
200.33607,200.49913,64,112,40
200.49913,200.64857,68,112,40
200.66217,200.82521,70,112,40
200.82521,200.97467,68,112,40
200.98825,201.15129,64,112,40
201.15129,201.30075,68,112,40
201.31435,201.47739,70,112,40
201.47739,201.62685,68,112,40
201.64043,201.80347,64,112,40
201.80347,201.95293,68,112,40
201.9665,202.12956,70,112,40
202.12956,202.279,68,112,40
202.2926,202.45564,64,112,40
202.45564,202.6051,68,112,40
202.61868,202.78172,70,112,40
202.78172,202.93118,68,112,40
202.94478,203.10782,64,112,40
203.10782,203.25728,68,112,40
203.27086,203.4339,70,112,40
203.4339,203.58336,68,112,40
203.59695,203.71414,64,112,40
203.71414,203.83133,66,112,40
203.83133,203.94852,64,112,40
203.94852,204.05594,66,112,40
204.0657,204.18289,67,112,40
204.18289,204.30008,71,112,40
204.30008,204.41727,67,112,40
204.41727,204.52469,71,112,40
204.53445,204.65164,71,112,40
204.65164,204.76883,76,112,40
204.76883,204.88602,71,112,40
204.88602,204.99344,76,112,40
205.0032,205.12039,76,112,40
205.12039,205.23758,79,112,40
205.23758,205.35477,76,112,40
205.35477,205.46219,79,112,40
205.47195,205.58914,79,112,40
205.58914,205.70633,83,112,40
205.70633,205.82352,79,112,40
205.82352,205.93094,76,112,40
205.9407,206.05789,76,112,40
206.05789,206.17508,79,112,40
206.17508,206.29227,76,112,40
206.29227,206.39969,71,112,40
206.40945,206.52664,71,112,40
206.52664,206.64383,76,112,40
206.64383,206.76102,71,112,40
206.76102,206.86844,67,112,40
206.8782,206.99539,67,112,40
206.99539,207.11258,71,112,40
207.11258,207.22977,67,112,40
207.22977,207.33719,64,112,40
207.34695,207.49695,64,112,40
207.49695,207.63445,68,112,40
207.64694,207.79695,70,112,40
207.79695,207.93445,68,112,40
207.94695,208.09695,64,112,40
208.09695,208.23445,68,112,40
208.24695,208.39694,70,112,40
208.39694,208.53445,68,112,40
208.54695,208.69695,64,112,40
208.69695,208.83444,68,112,40
208.84695,208.99695,70,112,40
208.99695,209.13445,68,112,40
209.14694,209.29695,64,112,40
209.29695,209.43445,68,112,40
209.44695,209.59695,70,112,40
209.59695,209.73445,68,112,40
209.74695,209.89694,64,112,40
209.89694,210.03445,68,112,40
210.04695,210.19695,70,112,40
210.19695,210.33444,68,112,40
210.34695,210.49695,64,112,40
210.49695,210.63445,68,112,40
210.64694,210.79695,70,112,40
210.79695,210.93445,68,112,40
210.94695,211.06233,64,112,40
211.06233,211.17772,66,112,40
211.17772,211.2931,64,112,40
211.2931,211.39886,66,112,40
211.40848,211.52386,68,112,40
211.52386,211.63925,72,112,40
211.63925,211.75464,68,112,40
211.75464,211.86041,72,112,40
211.87003,211.98541,72,112,40
211.98541,212.1008,76,112,40
212.1008,212.21617,72,112,40
212.21617,212.32195,76,112,40
212.33156,212.44695,76,112,40
212.44695,212.56233,80,112,40
212.56233,212.67772,76,112,40
212.67772,212.78348,80,112,40
212.7931,212.90848,80,112,40
212.90848,213.02386,83,112,40
213.02386,213.13925,80,112,40
213.13925,213.24503,76,112,40
213.25464,213.37003,76,112,40
213.37003,213.48541,80,112,40
213.48541,213.60078,76,112,40
213.60078,213.70656,71,112,40
213.71617,213.83156,71,112,40
213.83156,213.94695,76,112,40
213.94695,214.06233,71,112,40
214.06233,214.16809,68,112,40
214.17772,214.29309,68,112,40
214.29309,214.40848,71,112,40
214.40848,214.52386,68,112,40
214.52386,214.62964,64,112,40
214.63925,214.71425,66,112,40
214.71425,214.78925,64,112,40
214.78925,214.86426,66,112,40
214.86426,214.93925,64,112,40
214.93925,215.01425,66,112,40
215.01425,215.08925,64,112,40
215.08925,215.16425,66,112,40
215.16425,215.23926,64,112,40
215.23926,215.31425,66,112,40
215.31425,215.38925,64,112,40
215.38925,215.46425,66,112,40
215.46425,215.53925,64,112,40
215.53925,215.61426,66,112,40
215.61426,215.68925,64,112,40
215.68925,215.76425,66,112,40
215.76425,215.83925,64,112,40
215.83925,215.91425,66,112,40
215.91425,215.98926,64,112,40
215.98926,216.06425,66,112,40
216.06425,216.13925,64,112,40
216.13925,216.21425,66,112,40
216.21425,216.28925,64,112,40
216.28925,216.36426,66,112,40
216.36426,216.43925,64,112,40
216.43925,216.51425,66,112,40
216.51425,216.58925,64,112,40
216.58925,216.66425,66,112,40
216.66425,216.73926,64,112,40
216.73926,216.81425,66,112,40
216.81425,216.88925,64,112,40
216.88925,216.96425,66,112,40
216.96425,217.03925,64,112,40
217.03925,217.11426,66,112,40
217.11426,217.18925,64,112,40
217.18925,217.26425,66,112,40
217.26425,217.33925,64,112,40
217.33925,217.41425,66,112,40
217.41425,217.48926,64,112,40
217.48926,217.56425,66,112,40
217.56425,217.63925,64,112,40
217.63925,217.71425,66,112,40
217.71425,217.78925,64,112,40
217.78925,217.86426,66,112,40
217.86426,217.93925,64,112,40
217.93925,218.01425,66,112,40
218.01425,218.08925,64,112,40
218.08925,218.16425,66,112,40
218.16425,218.22675,64,112,40
218.23926,218.32077,66,112,40
218.32077,218.4023,64,112,40
218.4023,218.48381,66,112,40
218.48381,218.56534,64,112,40
218.56534,218.64731,66,112,40
218.64731,218.73065,64,112,40
218.73065,218.81398,66,112,40
218.81398,218.89731,64,112,40
218.89731,218.98065,66,112,40
218.98065,219.06477,64,112,40
219.06477,219.15,66,112,40
219.15,219.23523,64,112,40
219.23523,219.32045,66,112,40
219.32045,219.40567,64,112,40
219.40567,219.49223,66,112,40
219.49223,219.57944,64,112,40
219.57944,219.66664,66,112,40
219.66664,219.75386,64,112,40
219.75386,219.84106,66,112,40
219.84106,219.93001,64,112,40
219.93001,220.01929,66,112,40
220.01929,220.10857,64,112,40
220.10857,220.19786,66,112,40
220.19786,220.28732,64,112,40
220.28732,220.37878,66,112,40
220.37878,220.47026,64,112,40
220.47026,220.56172,66,112,40
220.56172,220.65318,64,112,40
220.65318,220.74521,66,112,40
220.74521,220.83896,64,112,40
220.83896,220.93271,66,112,40
220.93271,221.02646,64,112,40
221.02646,221.12021,66,112,40
221.12021,221.21497,64,112,40
221.21497,221.31113,66,112,40
221.31113,221.40727,64,112,40
221.40727,221.50343,66,112,40
221.50343,221.59958,64,112,40
221.59958,221.69742,66,112,40
221.69742,221.79611,64,112,40
221.79611,221.89479,66,112,40
221.89479,221.99347,64,112,40
221.99347,222.09216,66,112,40
222.09216,222.19307,64,112,40
222.19307,222.29442,66,112,40
222.29442,222.39577,64,112,40
222.39577,222.49712,66,112,40
222.49712,222.59846,64,112,40
222.59846,223.18597,59,112,40
249.35062,251.95932,62,112,40
251.95932,252.6115,67,112,40
252.6115,253.25008,65,112,40
253.26367,255.22018,62,112,40
255.22018,255.85876,67,112,40
255.87236,256.52454,67,112,40
256.52454,257.16312,65,112,40
257.1767,257.8289,62,112,40
257.8289,258.46747,64,112,40
258.48105,260.76367,59,112,40
261.08975,261.72833,74,112,40
261.7419,262.3805,76,112,40
262.3941,264.6767,71,112,40
311.95926,312.06793,64,112,40
312.06793,312.17212,68,112,40
312.17664,312.28534,70,112,40
312.28534,312.3895,68,112,40
312.39404,312.50272,64,112,40
312.50272,312.6069,68,112,40
312.61142,312.72012,70,112,40
312.72012,312.82428,68,112,40
312.8288,312.9375,64,112,40
312.9375,313.0417,68,112,40
313.0462,313.1549,70,112,40
313.1549,313.25906,68,112,40
313.26358,313.37228,66,112,40
313.37228,313.47644,68,112,40
313.481,313.5897,70,112,40
313.5897,313.69385,68,112,40
313.69836,313.80707,66,112,40
313.80707,313.91122,68,112,40
313.91577,314.02448,70,112,40
314.02448,314.12863,68,112,40
314.13315,314.24185,66,112,40
314.24185,314.346,68,112,40
314.35056,314.45923,70,112,40
314.45923,314.56342,68,112,40
314.56793,314.67664,64,112,40
314.67664,314.7808,68,112,40
314.78534,314.894,70,112,40
314.894,314.9982,68,112,40
315.00272,315.11142,64,112,40
315.11142,315.21558,68,112,40
315.22012,315.3288,70,112,40
315.3288,315.43298,68,112,40
315.4375,315.5462,64,112,40
315.5462,315.65036,68,112,40
315.6549,315.76358,70,112,40
315.76358,315.86777,68,112,40
315.87228,315.981,64,112,40
315.981,316.08514,66,112,40
316.08966,316.19836,71,112,40
316.19836,316.30255,66,112,40
316.30707,316.41577,64,112,40
316.41577,316.51993,66,112,40
316.52444,316.63315,71,112,40
316.63315,316.7373,66,112,40
316.74185,316.85056,64,112,40
316.85056,316.9547,66,112,40
316.95923,317.06793,71,112,40
317.06793,317.1721,66,112,40
317.17664,317.28534,68,112,40
317.28534,317.3895,73,112,40
317.394,317.50272,76,112,40
317.50272,317.60687,73,112,40
317.61142,317.7201,68,112,40
317.7201,317.82428,73,112,40
317.8288,317.9375,76,112,40
317.9375,318.04166,73,112,40
318.0462,318.15488,68,112,40
318.15488,318.25906,73,112,40
318.26358,318.37228,76,112,40
318.37228,318.47644,73,112,40
318.481,318.58966,70,112,40
318.58966,318.69385,73,112,40
318.69836,318.80707,78,112,40
318.80707,318.91122,73,112,40
318.91577,319.02444,70,112,40
319.02444,319.12863,73,112,40
319.13315,319.24185,78,112,40
319.24185,319.346,73,112,40
319.35056,319.45923,70,112,40
319.45923,319.56342,73,112,40
319.56793,319.67664,78,112,40
319.67664,319.7808,73,112,40
319.7853,319.894,68,112,40
319.894,319.9982,73,112,40
320.00272,320.11142,76,112,40
320.11142,320.21558,73,112,40
320.2201,320.3288,68,112,40
320.3288,320.43295,73,112,40
320.4375,320.5462,76,112,40
320.5462,320.65036,73,112,40
320.65488,320.76358,68,112,40
320.76358,320.86774,73,112,40
320.87228,320.981,76,112,40
320.981,321.08514,73,112,40
321.08966,321.19836,67,112,40
321.19836,321.30252,73,112,40
321.30707,321.41574,76,112,40
321.41574,321.51993,73,112,40
321.52444,321.63315,67,112,40
321.63315,321.7373,73,112,40
321.74185,321.85052,76,112,40
321.85052,321.9547,73,112,40
321.95923,322.06793,67,112,40
322.06793,322.1721,73,112,40
322.17664,322.2853,76,112,40
322.2853,322.3895,73,112,40
322.394,322.60687,76,112,40
322.8288,322.88315,64,112,40
322.88315,322.9375,61,112,40
322.9375,322.99185,64,112,40
322.99185,323.04617,61,112,40
323.04617,323.10052,64,112,40
323.10052,323.15488,61,112,40
323.15488,323.20923,64,112,40
323.20923,323.26358,61,112,40
323.26358,323.31793,64,112,40
323.31793,323.37228,61,112,40
323.37228,323.42664,64,112,40
323.42664,323.48096,61,112,40
323.48096,323.5353,64,112,40
323.5353,323.58966,61,112,40
323.58966,323.644,64,112,40
323.644,323.69836,61,112,40
323.69836,323.91122,64,112,40
325.00272,325.05707,88,112,40
325.05707,325.1114,85,112,40
325.1114,325.16574,88,112,40
325.16574,325.2201,85,112,40
325.2201,325.27444,88,112,40
325.27444,325.3288,85,112,40
325.3288,325.38315,88,112,40
325.38315,325.4375,85,112,40
325.4375,325.49182,88,112,40
325.49182,325.54617,85,112,40
325.54617,325.60052,88,112,40
325.60052,325.65488,85,112,40
325.65488,325.70923,88,112,40
325.70923,325.76358,85,112,40
325.76358,325.81793,88,112,40
325.81793,325.87228,85,112,40
325.87228,326.08514,88,112,40
328.91574,329.06067,63,112,40
329.06067,329.2056,65,112,40
329.2056,329.346,67,112,40
329.35052,329.71283,70,112,40
329.7853,329.93024,63,112,40
329.93024,330.07516,65,112,40
330.07516,330.21558,67,112,40
330.2201,330.5824,70,112,40
330.65488,330.7998,63,112,40
330.7998,330.94473,65,112,40
330.94473,331.0851,67,112,40
331.08966,331.45197,70,112,40
331.52444,331.66937,61,112,40
331.66937,331.8143,63,112,40
331.8143,331.95468,64,112,40
331.95923,332.32153,67,112,40
332.394,332.53894,61,112,40
332.53894,332.68387,63,112,40
332.68387,332.82425,64,112,40
332.8288,333.1911,67,112,40
333.26355,333.40848,61,112,40
333.40848,333.5534,63,112,40
333.5534,333.69382,64,112,40
333.69833,334.06067,67,112,40
334.13312,334.18295,70,112,40
334.13312,334.18295,76,112,40
334.18747,334.2373,70,112,40
334.18747,334.2373,76,112,40
334.24182,334.29166,70,112,40
334.24182,334.29166,76,112,40
334.29617,334.34598,70,112,40
334.29617,334.34598,76,112,40
334.35052,334.40033,70,112,40
334.35052,334.40033,76,112,40
334.40488,334.45468,70,112,40
334.40488,334.45468,76,112,40
334.45923,334.50903,70,112,40
334.45923,334.50903,76,112,40
334.51355,334.5634,70,112,40
334.51355,334.5634,76,112,40
334.5679,334.61774,70,112,40
334.5679,334.61774,76,112,40
334.62225,334.6721,70,112,40
334.62225,334.6721,76,112,40
334.6766,334.7264,70,112,40
334.6766,334.7264,76,112,40
334.73096,334.78076,70,112,40
334.73096,334.78076,76,112,40
334.7853,334.8351,70,112,40
334.7853,334.8351,76,112,40
334.83966,334.88947,70,112,40
334.83966,334.88947,76,112,40
334.89398,334.94382,70,112,40
334.89398,334.94382,76,112,40
334.94833,334.99817,70,112,40
334.94833,334.99817,76,112,40
335.0027,335.05252,70,112,40
335.0027,335.05252,76,112,40
335.05704,335.10687,70,112,40
335.05704,335.10687,76,112,40
335.1114,335.1612,70,112,40
335.1114,335.1612,76,112,40
335.16574,335.21555,70,112,40
335.16574,335.21555,76,112,40
335.2201,335.2699,70,112,40
335.2201,335.2699,76,112,40
335.27444,335.32425,70,112,40
335.27444,335.32425,76,112,40
335.32877,335.3786,70,112,40
335.32877,335.3786,76,112,40
335.38312,335.43295,70,112,40
335.38312,335.43295,76,112,40
335.43747,335.4873,70,112,40
335.43747,335.4873,76,112,40
335.49182,335.54163,70,112,40
335.49182,335.54163,76,112,40
335.54617,335.59598,70,112,40
335.54617,335.59598,76,112,40
335.60052,335.65033,70,112,40
335.60052,335.65033,76,112,40
335.65488,335.70468,70,112,40
335.65488,335.70468,76,112,40
335.7092,335.75903,70,112,40
335.7092,335.75903,76,112,40
335.76355,335.8134,70,112,40
335.76355,335.8134,76,112,40
335.8179,335.86774,70,112,40
335.8179,335.86774,76,112,40
335.87225,335.9221,70,112,40
335.87225,335.9221,76,112,40
335.9266,335.9764,70,112,40
335.9266,335.9764,76,112,40
335.98096,336.03076,70,112,40
335.98096,336.03076,76,112,40
336.0353,336.0851,70,112,40
336.0353,336.0851,76,112,40
336.08966,336.13947,70,112,40
336.08966,336.13947,76,112,40
336.14398,336.19382,70,112,40
336.14398,336.19382,76,112,40
336.19833,336.24817,70,112,40
336.19833,336.24817,76,112,40
336.2527,336.30252,70,112,40
336.2527,336.30252,76,112,40
336.30704,336.35684,70,112,40
336.30704,336.35684,76,112,40
336.3614,336.4112,70,112,40
336.3614,336.4112,76,112,40
336.41574,336.46555,70,112,40
336.41574,336.46555,76,112,40
336.4701,336.5199,70,112,40
336.4701,336.5199,76,112,40
336.52444,336.57425,70,112,40
336.52444,336.57425,76,112,40
336.57877,336.6286,70,112,40
336.57877,336.6286,76,112,40
336.63312,336.68295,70,112,40
336.63312,336.68295,76,112,40
336.68747,336.7373,70,112,40
336.68747,336.7373,76,112,40
336.74182,336.79163,68,112,40
336.74182,336.79163,74,112,40
336.79617,336.84598,68,112,40
336.79617,336.84598,74,112,40
336.85052,336.90033,68,112,40
336.85052,336.90033,74,112,40
336.90488,336.95468,68,112,40
336.90488,336.95468,74,112,40
336.9592,337.00903,68,112,40
336.9592,337.00903,74,112,40
337.01355,337.0634,68,112,40
337.01355,337.0634,74,112,40
337.0679,337.11774,68,112,40
337.0679,337.11774,74,112,40
337.12225,337.1721,68,112,40
337.12225,337.1721,74,112,40
337.1766,337.2264,68,112,40
337.1766,337.2264,74,112,40
337.23096,337.28076,68,112,40
337.23096,337.28076,74,112,40
337.2853,337.3351,68,112,40
337.2853,337.3351,74,112,40
337.33966,337.38947,68,112,40
337.33966,337.38947,74,112,40
337.39398,337.44382,68,112,40
337.39398,337.44382,74,112,40
337.44833,337.49817,68,112,40
337.44833,337.49817,74,112,40
337.5027,337.55252,68,112,40
337.5027,337.55252,74,112,40
337.55704,337.60684,68,112,40
337.55704,337.60684,74,112,40
337.6114,337.6612,68,112,40
337.6114,337.6612,74,112,40
337.66574,337.71555,68,112,40
337.66574,337.71555,74,112,40
337.7201,337.7699,68,112,40
337.7201,337.7699,74,112,40
337.7744,337.82425,68,112,40
337.7744,337.82425,74,112,40
337.82877,337.8786,68,112,40
337.82877,337.8786,74,112,40
337.88312,337.93295,68,112,40
337.88312,337.93295,74,112,40
337.93747,337.9873,68,112,40
337.93747,337.9873,74,112,40
337.99182,338.04163,68,112,40
337.99182,338.04163,74,112,40
338.04617,338.09598,62,112,40
338.04617,338.09598,71,112,40
338.10052,338.15033,62,112,40
338.10052,338.15033,71,112,40
338.15488,338.20468,62,112,40
338.15488,338.20468,71,112,40
338.2092,338.25903,62,112,40
338.2092,338.25903,71,112,40
338.26355,338.3134,62,112,40
338.26355,338.3134,71,112,40
338.3179,338.36774,62,112,40
338.3179,338.36774,71,112,40
338.37225,338.42206,62,112,40
338.37225,338.42206,71,112,40
338.4266,338.4764,62,112,40
338.4266,338.4764,71,112,40
338.48096,338.53076,62,112,40
338.48096,338.53076,71,112,40
338.5353,338.5851,62,112,40
338.5353,338.5851,71,112,40
338.58963,338.63947,62,112,40
338.58963,338.63947,71,112,40
338.64398,338.69382,62,112,40
338.64398,338.69382,71,112,40
338.69833,338.74817,62,112,40
338.69833,338.74817,71,112,40
338.7527,338.80252,62,112,40
338.7527,338.80252,71,112,40
338.80704,338.85684,62,112,40
338.80704,338.85684,71,112,40
338.8614,338.9112,62,112,40
338.8614,338.9112,71,112,40
338.91574,338.96555,62,112,40
338.91574,338.96555,71,112,40
338.9701,339.0199,62,112,40
338.9701,339.0199,71,112,40
339.0244,339.07425,62,112,40
339.0244,339.07425,71,112,40
339.07877,339.1286,62,112,40
339.07877,339.1286,71,112,40
339.13312,339.18295,62,112,40
339.13312,339.18295,71,112,40
339.18747,339.23727,62,112,40
339.18747,339.23727,71,112,40
339.24182,339.29163,62,112,40
339.24182,339.29163,71,112,40
339.29617,339.34598,62,112,40
339.29617,339.34598,71,112,40
339.35052,339.40033,59,112,40
339.35052,339.40033,68,112,40
339.40485,339.45468,59,112,40
339.40485,339.45468,68,112,40
339.4592,339.50903,59,112,40
339.4592,339.50903,68,112,40
339.51355,339.5634,59,112,40
339.51355,339.5634,68,112,40
339.5679,339.61774,59,112,40
339.5679,339.61774,68,112,40
339.62225,339.67206,59,112,40
339.62225,339.67206,68,112,40
339.6766,339.7264,59,112,40
339.6766,339.7264,68,112,40
339.73096,339.78076,59,112,40
339.73096,339.78076,68,112,40
339.7853,339.8351,59,112,40
339.7853,339.8351,68,112,40
339.83963,339.88947,59,112,40
339.83963,339.88947,68,112,40
339.89398,339.94382,59,112,40
339.89398,339.94382,68,112,40
339.94833,339.99817,59,112,40
339.94833,339.99817,68,112,40
340.0027,340.0525,59,112,40
340.0027,340.0525,68,112,40
340.05704,340.10684,59,112,40
340.05704,340.10684,68,112,40
340.1114,340.1612,59,112,40
340.1114,340.1612,68,112,40
340.16574,340.21555,59,112,40
340.16574,340.21555,68,112,40
340.22006,340.2699,59,112,40
340.22006,340.2699,68,112,40
340.2744,340.32425,59,112,40
340.2744,340.32425,68,112,40
340.32877,340.3786,59,112,40
340.32877,340.3786,68,112,40
340.38312,340.43295,59,112,40
340.38312,340.43295,68,112,40
340.43747,340.48727,59,112,40
340.43747,340.48727,68,112,40
340.49182,340.54163,59,112,40
340.49182,340.54163,68,112,40
340.54617,340.59598,59,112,40
340.54617,340.59598,68,112,40
340.60052,340.65033,59,112,40
340.60052,340.65033,68,112,40
340.65485,340.70468,56,112,40
340.65485,340.70468,65,112,40
340.7092,340.75903,56,112,40
340.7092,340.75903,65,112,40
340.76355,340.8134,56,112,40
340.76355,340.8134,65,112,40
340.8179,340.8677,56,112,40
340.8179,340.8677,65,112,40
340.87225,340.92206,56,112,40
340.87225,340.92206,65,112,40
340.9266,340.9764,56,112,40
340.9266,340.9764,65,112,40
340.98096,341.03076,56,112,40
340.98096,341.03076,65,112,40
341.03528,341.0851,56,112,40
341.03528,341.0851,65,112,40
341.08963,341.13947,56,112,40
341.08963,341.13947,65,112,40
341.14398,341.19382,56,112,40
341.14398,341.19382,65,112,40
341.19833,341.24817,56,112,40
341.19833,341.24817,65,112,40
341.2527,341.3025,56,112,40
341.2527,341.3025,65,112,40
341.30704,341.35684,56,112,40
341.30704,341.35684,65,112,40
341.3614,341.4112,56,112,40
341.3614,341.4112,65,112,40
341.41574,341.46555,56,112,40
341.41574,341.46555,65,112,40
341.47006,341.5199,56,112,40
341.47006,341.5199,65,112,40
341.5244,341.57425,56,112,40
341.5244,341.57425,65,112,40
341.57877,341.6286,56,112,40
341.57877,341.6286,65,112,40
341.63312,341.68292,56,112,40
341.63312,341.68292,65,112,40
341.68747,341.73727,56,112,40
341.68747,341.73727,65,112,40
341.74182,341.79163,56,112,40
341.74182,341.79163,65,112,40
341.79617,341.84598,56,112,40
341.79617,341.84598,65,112,40
341.8505,341.90033,56,112,40
341.8505,341.90033,65,112,40
341.90485,341.95468,56,112,40
341.90485,341.95468,65,112,40
341.9592,342.00903,62,112,40
342.01355,342.0634,62,112,40
342.0679,342.1177,62,112,40
342.12225,342.17206,62,112,40
342.1766,342.2264,62,112,40
342.23096,342.28076,62,112,40
342.28528,342.3351,62,112,40
342.33963,342.38947,62,112,40
342.39398,342.44382,62,112,40
342.44833,342.49814,62,112,40
342.5027,342.5525,62,112,40
342.55704,342.60684,62,112,40
342.6114,342.6612,62,112,40
342.6657,342.71555,62,112,40
342.72006,342.7699,62,112,40
342.7744,342.82425,62,112,40
342.82877,342.8786,61,112,40
342.88312,342.93292,61,112,40
342.93747,342.98727,61,112,40
342.99182,343.04163,61,112,40
343.04617,343.09598,61,112,40
343.1005,343.15033,61,112,40
343.15485,343.20468,61,112,40
343.2092,343.25903,61,112,40
343.26355,343.31335,60,112,40
343.3179,343.3677,60,112,40
343.37225,343.42206,60,112,40
343.4266,343.4764,60,112,40
343.48093,343.53076,60,112,40
343.53528,343.5851,60,112,40
343.58963,343.63947,60,112,40
343.64398,343.69382,60,112,40
343.69833,343.74814,60,112,40
343.7527,343.8025,60,112,40
343.80704,343.85684,60,112,40
343.8614,343.9112,60,112,40
343.9157,343.96555,60,112,40
343.97006,344.0199,60,112,40
344.0244,344.07425,60,112,40
344.07877,344.12857,60,112,40
0.0,0.21286201,57,127,45
0.217391,0.43025303,64,112,45
0.434782,0.64764404,57,112,45
0.652173,0.865035,55,127,45
0.869564,1.0824261,64,112,45
1.086955,1.299817,55,112,45
1.304346,1.517208,53,127,45
1.521737,1.734599,60,112,45
1.739128,1.95199,53,127,45
1.956519,2.169381,60,112,45
2.17391,2.386772,52,127,45
2.391301,2.604163,59,112,45
2.608692,2.821554,57,127,45
2.826083,3.038945,64,112,45
3.043474,3.256336,57,112,45
3.260865,3.473727,55,127,45
3.478256,3.691118,64,112,45
3.695647,3.908509,55,112,45
3.913038,4.1259,53,127,45
4.130429,4.343291,60,112,45
4.34782,4.560682,53,127,45
4.565211,4.778073,60,112,45
4.782602,4.995464,52,127,45
4.999993,5.212855,59,112,45
5.217384,5.430246,57,127,45
5.434775,5.647637,64,112,45
5.652166,5.865028,57,112,45
5.869557,6.082419,55,127,45
6.086948,6.29981,64,112,45
6.304339,6.517201,55,112,45
6.52173,6.734592,53,127,45
6.739121,6.951983,64,112,45
6.956512,7.169374,53,127,45
7.173903,7.386765,64,112,45
7.391294,7.604156,55,127,45
7.608685,7.821547,65,112,45
7.826076,8.038938,53,127,45
8.043467,8.256329,60,112,45
8.260858,8.47372,52,112,45
8.478249,8.691111,51,127,45
8.69564,8.908502,57,112,45
8.913031,9.125893,51,127,45
9.130422,9.343284,56,127,45
9.347813,9.560675,52,112,45
9.565204,9.778066,54,127,45
9.782595,9.995457,50,127,45
9.999986,10.212848,52,112,45
10.217377,10.430239,48,127,45
10.434768,10.64763,56,112,45
10.652159,10.865021,52,127,45
10.86955,11.082412,54,112,45
11.086941,11.299803,50,127,45
11.304332,11.517194,52,112,45
11.521723,11.734585,48,127,45
11.739114,11.951976,56,112,45
11.956505,12.169367,52,127,45
12.173896,12.386758,54,112,45
12.391287,12.604149,50,127,45
12.608678,12.82154,52,112,45
12.826069,13.038931,48,127,45
13.04346,13.405778,56,112,45
14.347806,14.560668,52,112,45
14.565197,14.778059,56,112,45
14.565197,14.778059,68,112,45
49.565147,49.927467,56,112,45
49.565147,49.927467,64,112,45
49.99993,50.362247,56,112,45
49.99993,50.362247,64,112,45
50.43471,50.79703,56,112,45
50.43471,50.79703,64,112,45
50.869495,51.082355,52,112,45
51.086884,51.299747,60,112,45
51.304276,51.51714,52,112,45
51.521667,51.734528,52,112,45
51.73906,51.95192,60,112,45
51.956448,52.16931,52,112,45
52.17384,52.386703,48,112,45
52.39123,52.60409,57,112,45
52.608624,52.821484,48,112,45
52.82601,53.038876,57,112,45
53.043404,53.256268,53,112,45
53.260796,53.473656,59,112,45
53.478188,53.691048,52,112,45
53.695576,53.90844,60,112,45
53.912968,54.12583,52,112,45
54.13036,54.34322,52,112,45
54.34775,54.56061,60,112,45
54.56514,54.778004,52,112,45
54.78253,54.995396,48,112,45
54.999924,55.212784,57,112,45
55.217316,55.430176,48,112,45
55.434704,55.647568,57,112,45
55.652096,55.86496,53,112,45
55.869488,56.082348,59,112,45
56.08688,56.29974,57,127,45
56.304268,56.51713,64,112,45
56.52166,56.734524,57,112,45
56.73905,56.951912,55,127,45
56.956444,57.169304,64,112,45
57.173832,57.386696,55,112,45
57.391224,57.604088,53,127,45
57.608616,57.821476,64,112,45
57.826008,58.038868,53,112,45
58.043396,58.25626,64,112,45
58.260788,58.47365,55,127,45
58.47818,58.69104,65,112,45
58.69557,58.908432,53,127,45
58.91296,59.125824,60,112,45
59.130352,59.343212,52,127,45
59.347744,59.560604,51,112,45
59.565132,59.777996,57,127,45
59.782524,59.995388,51,112,45
59.999916,60.212776,52,112,45
60.217308,60.43017,56,112,45
60.434696,60.64756,53,112,45
60.65209,60.864952,59,112,45
60.86948,61.08234,51,112,45
61.086872,61.299732,57,112,45
61.30426,61.517124,52,112,45
61.521652,61.734516,56,112,45
61.739044,61.951904,53,112,45
61.956436,62.169296,59,112,45
62.173824,62.38669,51,112,45
62.391216,62.60408,57,112,45
62.60861,62.82147,52,112,45
62.826,63.03886,56,112,45
63.04339,63.256252,53,112,45
63.26078,63.473644,59,112,45
63.478172,63.691032,51,112,45
63.695564,63.908424,57,112,45
63.912952,64.27527,56,112,45
65.2173,65.43016,52,112,45
65.43469,65.64755,56,112,45
65.43469,65.64755,68,112,45
89.3477,89.56056,56,112,45
89.565094,89.777954,62,112,45
89.782486,89.995346,65,112,45
89.99987,90.21274,68,112,45
90.21726,90.43013,71,112,45
90.434654,90.647514,74,112,45
91.95639,92.16926,60,112,45
92.17378,92.38664,63,112,45
92.391174,92.604034,66,112,45
92.60857,92.82143,68,112,45
92.82596,93.03882,72,112,45
93.04335,93.25621,78,112,45
94.78248,94.99534,60,112,45
94.99987,95.21273,67,112,45
95.217255,95.43012,72,112,45
95.43465,95.647514,76,112,45
97.39117,97.60403,50,112,45
97.60856,97.82142,56,112,45
97.82595,98.03881,60,112,45
98.04334,98.2562,65,112,45
98.47813,98.84044,56,112,45
98.47813,98.84044,68,112,45
99.130295,99.343155,52,127,45
99.34769,99.56055,64,112,45
99.56508,99.77794,52,112,45
99.78247,99.99533,52,127,45
99.99986,100.21272,64,112,45
100.217255,100.430115,52,112,45
100.43464,100.64751,48,127,45
100.65203,100.8649,60,112,45
100.86942,101.08228,48,112,45
101.086815,101.299675,49,127,45
101.30421,101.51707,50,112,45
101.5216,101.73446,51,112,45
101.73899,101.95185,52,127,45
101.95638,102.16924,64,112,45
102.17377,102.386635,52,112,45
102.39116,102.60403,52,127,45
102.60855,102.82141,64,112,45
102.82594,103.0388,52,112,45
103.043335,103.256195,48,127,45
103.26073,103.47359,60,112,45
103.47812,103.69098,48,112,45
103.6955,103.90837,49,127,45
103.912895,104.12576,50,112,45
104.13029,104.34315,51,112,45
104.34768,104.71,52,112,45
104.78246,105.14478,48,112,45
105.21725,105.57956,52,112,45
215.83925,216.22675,52,127,45
216.23926,216.62675,59,127,45
216.63925,216.82675,55,127,45
216.83925,217.02675,57,127,45
217.03925,218.03925,59,127,45
274.1332,274.34607,52,127,45
274.35062,274.56348,53,112,45
274.568,274.78085,52,112,45
274.7854,274.99826,53,127,45
275.00278,275.21564,52,112,45
275.22015,275.43304,53,112,45
275.43756,275.65042,52,127,45
275.65494,275.8678,53,112,45
275.87234,276.0852,52,112,45
276.08972,276.30258,53,127,45
276.30713,276.52,52,112,45
276.5245,276.73737,53,112,45
276.7419,276.95477,52,112,45
276.9593,277.17215,53,112,45
277.1767,277.38956,54,112,45
277.39407,277.60693,55,112,45
277.61148,277.82434,56,112,45
277.82886,278.04172,57,112,45
278.04626,278.25912,58,112,45
278.26364,278.4765,59,112,45
278.48102,278.6939,60,112,45
278.69843,278.9113,61,112,45
278.9158,279.12866,62,112,45
279.1332,279.34607,63,112,45
279.3506,279.71292,56,112,45
279.3506,279.71292,64,112,45
280.22015,280.5825,56,112,45
280.22015,280.5825,64,112,45
280.65494,281.01727,54,112,45
280.65494,281.01727,60,112,45
281.08972,281.30258,54,112,45
281.08972,281.30258,60,112,45
283.26364,283.62595,60,127,45
284.1332,284.4955,60,112,45
284.568,284.9303,58,112,45
285.00278,285.21564,64,112,45
285.00278,285.21564,68,112,45
287.17667,287.539,51,112,45
287.17667,287.539,56,112,45
288.48102,288.84332,51,112,45
288.48102,288.84332,56,112,45
289.13318,289.4955,51,112,45
293.6984,294.06073,56,112,45
294.13318,294.4955,55,112,45
294.56796,294.9303,54,112,45
295.00275,295.36508,52,112,45
295.00275,295.36508,56,112,45
295.43753,295.79984,50,112,45
295.43753,295.79984,57,112,45
295.8723,296.23462,48,112,45
295.8723,296.23462,55,112,45
296.3071,296.51996,52,127,45
296.52448,296.73734,60,112,45
296.74188,296.95474,52,112,45
296.95926,297.17212,52,127,45
297.17667,297.38953,60,112,45
297.39404,297.6069,52,112,45
297.61145,297.8243,52,112,45
297.82883,298.0417,57,112,45
298.04623,298.2591,52,112,45
298.2636,298.47647,57,112,45
298.48102,298.69388,53,112,45
298.6984,298.91125,59,112,45
298.91577,299.12866,52,127,45
299.13318,299.34604,60,112,45
299.35056,299.56342,52,112,45
299.56796,299.78082,52,127,45
299.78534,299.9982,60,112,45
300.00275,300.2156,52,112,45
300.22012,300.43298,52,112,45
300.43753,300.6504,57,112,45
300.6549,300.86777,52,112,45
300.8723,301.08517,57,112,45
301.0897,301.30255,53,112,45
301.3071,301.51996,59,112,45
301.52448,301.73734,57,127,45
301.74188,301.95474,64,112,45
301.95926,302.17212,57,112,45
302.17667,302.38953,55,127,45
302.39404,302.6069,64,112,45
302.61142,302.8243,55,112,45
302.82883,303.0417,53,112,45
303.0462,303.25906,64,112,45
303.2636,303.47647,53,112,45
303.481,303.69385,64,112,45
303.6984,303.91125,55,112,45
303.91577,304.12863,65,112,45
304.13318,304.34604,53,127,45
304.35056,304.56342,60,112,45
304.56796,304.78082,52,112,45
304.78534,304.9982,51,127,45
305.00275,305.2156,57,112,45
305.22012,305.43298,51,112,45
305.43753,305.6504,52,127,45
305.6549,305.86777,56,112,45
305.87228,306.08517,53,112,45
306.0897,306.30255,59,112,45
306.30707,306.51993,51,112,45
306.52448,306.73734,57,112,45
306.74185,306.9547,52,127,45
306.95926,307.17212,56,112,45
307.17664,307.3895,53,112,45
307.39404,307.6069,59,112,45
307.61142,307.82428,51,112,45
307.82883,308.0417,57,112,45
308.0462,308.25906,52,127,45
308.2636,308.47647,56,112,45
308.481,308.69385,54,112,45
308.6984,308.91125,60,112,45
308.91577,309.12863,52,112,45
309.13315,309.34604,58,112,45
309.35056,309.71286,56,112,45
310.6549,310.86777,52,112,45
310.87228,311.08514,56,112,45
310.87228,311.08514,64,112,45
310.87228,311.08514,71,112,45
334.7853,334.99817,52,112,45
335.0027,335.21555,58,112,45
335.2201,335.43295,64,112,45
335.43747,335.65033,67,112,45
335.65488,335.86774,70,112,45
335.87225,336.0851,76,112,45
337.39398,337.60684,56,112,45
337.6114,337.82425,62,112,45
337.82877,338.04163,68,112,45
338.04617,338.25903,62,112,45
338.26355,338.4764,68,112,45
338.48096,338.69382,74,112,45
340.22006,340.43295,56,112,45
340.43747,340.65033,62,112,45
340.65485,340.8677,71,112,45
340.87225,341.0851,74,112,45
342.82877,343.04163,50,112,45
343.04617,343.25903,56,112,45
343.26355,343.4764,60,112,45
343.48093,343.69382,65,112,45
343.9157,344.27805,56,112,45
343.9157,344.27805,68,112,45
344.5679,344.78076,52,127,45
344.78528,344.99814,64,112,45
345.0027,345.21555,52,112,45
345.22006,345.43292,52,127,45
345.43747,345.65033,64,112,45
345.65485,345.8677,52,112,45
345.87225,346.0851,48,127,45
346.08963,346.3025,60,112,45
346.30704,346.5199,48,112,45
346.5244,346.73727,49,127,45
346.74182,346.95468,50,112,45
346.9592,347.17206,51,112,45
347.17657,347.38947,52,127,45
347.39398,347.60684,64,112,45
347.61136,347.82422,52,112,45
347.82877,348.04163,52,127,45
348.04614,348.259,64,112,45
348.26355,348.4764,52,112,45
348.48093,348.6938,48,127,45
348.69833,348.9112,60,112,45
348.9157,349.12857,48,112,45
349.13312,349.34598,49,127,45
349.3505,349.56335,50,112,45
349.5679,349.78076,51,112,45
357.61136,357.86465,60,112,45
357.87024,358.14743,62,112,45
358.15356,358.695,64,112,45
359.31198,359.5218,57,112,45
359.52628,359.73608,64,112,45
359.52628,359.73608,72,112,45
15.652152,15.760847,56,127,41
15.760847,15.865014,61,112,41
15.869543,15.978238,64,112,41
15.978238,16.082405,61,112,41
16.086933,16.19563,56,127,41
16.19563,16.299795,61,112,41
16.304325,16.413021,64,112,41
16.413021,16.517187,61,112,41
16.521715,16.630411,56,127,41
16.630411,16.734577,61,112,41
16.739107,16.847803,64,112,41
16.847803,16.95197,61,112,41
16.956497,17.065193,58,127,41
17.065193,17.16936,61,112,41
17.17389,17.282585,66,112,41
17.282585,17.386751,61,112,41
17.39128,17.499975,58,127,41
17.499975,17.604141,61,112,41
17.608671,17.717367,66,112,41
17.717367,17.821533,61,112,41
17.826061,17.934757,58,127,41
17.934757,18.038923,61,112,41
18.043453,18.15215,66,112,41
18.15215,18.256315,61,112,41
18.260843,18.36954,56,112,41
18.36954,18.473705,61,112,41
18.478235,18.586931,64,112,41
18.586931,18.691097,61,112,41
18.695625,18.804321,56,112,41
18.804321,18.908487,61,112,41
18.913017,19.021713,64,112,41
19.021713,19.12588,61,112,41
19.130407,19.239103,56,112,41
19.239103,19.34327,61,112,41
19.3478,19.456495,64,112,41
19.456495,19.560661,61,112,41
19.56519,19.673885,56,112,41
19.673885,19.778051,62,112,41
19.782581,19.891277,64,112,41
19.891277,19.995443,62,112,41
19.999971,20.108667,56,112,41
20.108667,20.212833,62,112,41
20.217363,20.32606,64,112,41
20.32606,20.430225,62,112,41
20.434753,20.54345,56,112,41
20.54345,20.647615,62,112,41
20.652145,20.760841,64,112,41
20.760841,20.865007,62,112,41
20.869535,21.304317,64,112,41
21.304317,21.7391,63,112,41
21.7391,21.884027,61,112,41
21.884027,22.028955,63,112,41
22.028955,22.169353,64,112,41
22.173882,22.608664,66,112,41
22.608664,23.043446,61,112,41
23.043446,23.405764,66,112,41
23.478228,23.91301,64,112,41
23.91301,24.347792,63,112,41
24.347792,24.49272,61,112,41
24.49272,24.637646,63,112,41
24.637646,24.778046,64,112,41
24.782574,25.978224,56,112,41
26.08692,26.521702,56,112,41
26.521702,26.88402,54,112,41
26.956484,27.101412,52,112,41
27.101412,27.246338,54,112,41
27.246338,27.386738,56,112,41
27.391266,27.499962,61,112,41
27.499962,27.608658,56,112,41
27.608658,27.717352,61,112,41
27.717352,27.82152,56,112,41
27.826048,27.934744,63,112,41
27.934744,28.04344,58,112,41
28.04344,28.152134,63,112,41
28.152134,28.256302,58,112,41
28.26083,28.369526,61,112,41
28.369526,28.478222,56,112,41
28.478222,28.586916,61,112,41
28.586916,28.691084,56,112,41
28.695612,29.130394,68,112,41
29.130394,29.492712,66,112,41
29.565176,29.710104,64,112,41
29.710104,29.85503,66,112,41
29.85503,29.995428,68,112,41
29.999958,30.108654,73,112,41
30.108654,30.217348,68,112,41
30.217348,30.326044,73,112,41
30.326044,30.43021,68,112,41
30.43474,30.543436,75,112,41
30.543436,30.65213,70,112,41
30.65213,30.760826,75,112,41
30.760826,30.864992,70,112,41
30.869522,30.978218,73,112,41
30.978218,31.086912,68,112,41
31.086912,31.195608,73,112,41
31.195608,31.299774,68,112,41
31.304304,31.413,76,112,41
31.413,31.517166,73,112,41
31.521694,31.63039,64,112,41
31.63039,31.734556,73,112,41
31.739086,31.847782,76,112,41
31.847782,31.951948,73,112,41
31.956476,32.065174,64,112,41
32.065174,32.16934,73,112,41
32.173866,32.282562,76,112,41
32.282562,32.38673,73,112,41
32.39126,32.499954,64,112,41
32.499954,32.604122,73,112,41
32.60865,32.71282,75,112,41
32.717346,32.82151,75,112,41
32.826042,32.930206,73,112,41
32.93474,33.038902,73,112,41
33.04343,33.1476,70,112,41
33.152126,33.256294,70,112,41
33.260822,33.36499,75,112,41
33.36952,33.473686,75,112,41
33.478214,33.582382,73,112,41
33.58691,33.691074,73,112,41
33.695606,33.79977,70,112,41
33.804302,33.908466,70,112,41
33.912994,34.017162,75,112,41
34.02169,34.12586,75,112,41
34.130386,34.234554,73,112,41
34.239082,34.34325,73,112,41
34.34778,34.451946,70,112,41
34.456474,34.56064,70,112,41
34.56517,34.669334,75,112,41
34.673866,34.77803,75,112,41
34.78256,34.886726,73,112,41
34.891254,34.995422,73,112,41
34.99995,35.10412,70,112,41
35.108646,35.212814,70,112,41
35.217342,35.32151,74,112,41
35.32604,35.430202,74,112,41
35.434734,35.5389,73,112,41
35.54343,35.647594,73,112,41
35.652122,35.75629,73,112,41
35.76082,35.864986,73,112,41
35.869514,35.973682,71,112,41
35.97821,36.08238,71,112,41
36.086906,36.191074,74,112,41
36.195602,36.299767,74,112,41
36.3043,36.408463,73,112,41
36.412994,36.51716,73,112,41
36.521687,36.625854,73,112,41
36.630383,36.73455,73,112,41
36.73908,36.843246,71,112,41
36.847775,36.951942,71,112,41
36.95647,37.06064,74,112,41
37.065166,37.16933,74,112,41
37.173862,37.278027,73,112,41
37.282555,37.386723,73,112,41
37.39125,37.49542,73,112,41
37.499947,37.604115,73,112,41
37.608643,37.71281,71,112,41
37.71734,37.821507,71,112,41
37.826035,37.875854,77,112,41
37.880383,37.9302,77,112,41
37.93473,37.984547,77,112,41
37.98908,38.038895,77,112,41
38.043427,38.093243,77,112,41
38.097775,38.14759,77,112,41
38.15212,38.20194,77,112,41
38.206467,38.256287,77,112,41
38.260815,38.310635,75,112,41
38.315163,38.364983,75,112,41
38.36951,38.41933,75,112,41
38.42386,38.47368,75,112,41
38.478207,38.528027,75,112,41
38.532555,38.582375,75,112,41
38.586903,38.636723,75,112,41
38.64125,38.69107,75,112,41
38.6956,38.74542,71,112,41
38.749947,38.799763,71,112,41
38.804295,38.85411,71,112,41
38.858643,38.90846,71,112,41
38.91299,38.962807,71,112,41
38.96734,39.017155,71,112,41
39.021683,39.071503,71,112,41
39.07603,39.12585,71,112,41
39.13038,39.1802,65,112,41
39.184727,39.234547,65,112,41
39.239075,39.288895,65,112,41
39.293423,39.343243,65,112,41
39.34777,39.39759,65,112,41
39.40212,39.45194,65,112,41
39.456467,39.506287,65,112,41
39.510815,39.560635,65,112,41
39.565163,39.614983,63,112,41
39.61951,39.669327,63,112,41
39.67386,39.723675,63,112,41
39.728207,39.778023,63,112,41
39.782555,39.83237,63,112,41
39.836903,39.88672,63,112,41
39.891247,39.941067,63,112,41
39.945595,39.995415,63,112,41
39.999943,40.049763,59,112,41
40.05429,40.10411,59,112,41
40.10864,40.15846,59,112,41
40.162987,40.212807,59,112,41
40.217335,40.267155,59,112,41
40.271683,40.321503,59,112,41
40.32603,40.37585,59,112,41
40.38038,40.4302,59,112,41
40.434727,40.484547,53,112,41
40.489075,40.53889,53,112,41
40.543423,40.59324,53,112,41
40.59777,40.647587,53,112,41
40.65212,40.701935,53,112,41
40.706463,40.756283,53,112,41
40.76081,40.81063,53,112,41
40.81516,40.86498,53,112,41
40.869507,40.919327,51,112,41
40.923855,40.973675,51,112,41
40.978203,41.028023,51,112,41
41.03255,41.08237,51,112,41
41.0869,41.13672,51,112,41
41.141247,41.191067,51,112,41
41.195595,41.245415,51,112,41
41.249943,41.299763,51,112,41
41.30429,41.354107,51,112,41
41.35864,41.408455,51,112,41
41.412987,41.462803,51,112,41
41.467335,41.51715,51,112,41
41.521683,41.5715,51,112,41
41.576027,41.625847,51,112,41
41.630375,41.680195,51,112,41
41.684723,41.734543,51,112,41
41.73907,41.78889,53,112,41
41.79342,41.84324,53,112,41
41.847767,41.897587,53,112,41
41.902115,41.951935,53,112,41
41.956463,42.006283,53,112,41
42.01081,42.06063,53,112,41
42.06516,42.11498,53,112,41
42.119507,42.169327,53,112,41
42.173855,42.22367,56,127,41
42.228203,42.27802,56,112,41
42.28255,42.332367,56,112,41
42.3369,42.386715,56,112,41
42.391247,42.441063,56,112,41
42.44559,42.49541,56,112,41
42.49994,42.54976,56,112,41
42.554287,42.604107,56,112,41
42.608635,42.658455,56,112,41
42.662983,42.712803,56,112,41
42.71733,42.76715,56,112,41
42.77168,42.8215,56,112,41
42.826027,42.875847,56,112,41
42.880375,42.930195,56,112,41
42.934723,42.984543,56,112,41
42.98907,43.03889,56,112,41
43.04342,43.093235,53,112,41
43.097767,43.147583,53,112,41
43.152115,43.20193,53,112,41
43.206463,43.25628,53,112,41
43.26081,43.310627,53,112,41
43.315155,43.364975,53,112,41
43.369503,43.419323,53,112,41
43.42385,43.47367,53,112,41
43.4782,43.52802,56,127,41
43.532547,43.582367,56,112,41
43.586895,43.636715,56,112,41
43.641243,43.691063,56,112,41
43.69559,43.74541,56,112,41
43.74994,43.79976,56,112,41
43.804287,43.854107,56,112,41
43.858635,43.908455,56,112,41
43.912983,43.9628,56,112,41
43.96733,44.017147,56,112,41
44.02168,44.071495,56,112,41
44.076027,44.125843,56,112,41
44.13037,44.18019,56,112,41
44.18472,44.23454,56,112,41
44.239067,44.288887,56,112,41
44.293415,44.343235,56,112,41
44.347763,44.397583,53,112,41
44.347763,44.397583,56,112,41
44.40211,44.45193,53,112,41
44.40211,44.45193,56,112,41
44.45646,44.50628,53,112,41
44.45646,44.50628,56,112,41
44.510807,44.560627,53,112,41
44.510807,44.560627,56,112,41
44.565155,44.614975,53,112,41
44.565155,44.614975,56,112,41
44.619503,44.669323,53,112,41
44.619503,44.669323,56,112,41
44.67385,44.72367,53,112,41
44.67385,44.72367,56,112,41
44.7282,44.778015,53,112,41
44.7282,44.778015,56,112,41
44.782547,44.832363,53,112,41
44.782547,44.832363,56,112,41
44.836895,44.88671,53,112,41
44.836895,44.88671,56,112,41
44.891243,44.94106,53,112,41
44.891243,44.94106,56,112,41
44.94559,44.995407,53,112,41
44.94559,44.995407,56,112,41
44.999935,45.049755,53,112,41
44.999935,45.049755,56,112,41
45.054283,45.104103,53,112,41
45.054283,45.104103,56,112,41
45.10863,45.15845,53,112,41
45.10863,45.15845,56,112,41
45.16298,45.2128,53,112,41
45.16298,45.2128,56,112,41
45.217327,45.267147,53,112,41
45.217327,45.267147,56,112,41
45.271675,45.321495,53,112,41
45.271675,45.321495,56,112,41
45.326023,45.375843,53,112,41
45.326023,45.375843,56,112,41
45.38037,45.43019,53,112,41
45.38037,45.43019,56,112,41
45.43472,45.48454,53,112,41
45.43472,45.48454,56,112,41
45.489067,45.538887,53,112,41
45.489067,45.538887,56,112,41
45.543415,45.593235,53,112,41
45.543415,45.593235,56,112,41
45.597763,45.64758,53,112,41
45.597763,45.64758,56,112,41
45.65211,45.701927,53,112,41
45.65211,45.701927,56,112,41
45.70646,45.756275,53,112,41
45.70646,45.756275,56,112,41
45.760807,45.810623,53,112,41
45.760807,45.810623,56,112,41
45.815155,45.86497,53,112,41
45.815155,45.86497,56,112,41
45.8695,45.91932,53,112,41
45.8695,45.91932,56,112,41
45.923847,45.973667,53,112,41
45.923847,45.973667,56,112,41
45.978195,46.028015,53,112,41
45.978195,46.028015,56,112,41
46.032543,46.082363,53,112,41
46.032543,46.082363,56,112,41
46.08689,46.13671,53,112,41
46.08689,46.13671,56,112,41
46.14124,46.19106,53,112,41
46.14124,46.19106,56,112,41
46.195587,46.245407,53,112,41
46.195587,46.245407,56,112,41
46.249935,46.299755,53,112,41
46.249935,46.299755,56,112,41
46.304283,46.354103,53,112,41
46.304283,46.354103,56,112,41
46.35863,46.40845,53,112,41
46.35863,46.40845,56,112,41
46.41298,46.4628,53,112,41
46.41298,46.4628,56,112,41
46.467327,46.517143,53,112,41
46.467327,46.517143,56,112,41
46.521675,46.57149,53,112,41
46.521675,46.57149,56,112,41
46.576023,46.62584,53,112,41
46.576023,46.62584,56,112,41
46.63037,46.680187,53,112,41
46.63037,46.680187,56,112,41
46.68472,46.734535,53,112,41
46.68472,46.734535,56,112,41
46.739063,46.788883,53,112,41
46.739063,46.788883,56,112,41
46.79341,46.84323,53,112,41
46.79341,46.84323,56,112,41
46.84776,46.89758,53,112,41
46.84776,46.89758,56,112,41
46.902107,46.951927,53,112,41
46.902107,46.951927,56,112,41
46.956455,47.16932,53,112,41
46.956455,47.16932,56,112,41
66.521645,66.63034,55,112,41
66.63034,66.734505,58,112,41
66.73904,66.84773,64,112,41
66.84773,66.9519,58,112,41
66.95643,67.065125,55,112,41
67.065125,67.16929,58,112,41
67.17382,67.28252,64,112,41
67.28252,67.38668,58,112,41
67.39121,67.49991,55,112,41
67.49991,67.60407,58,112,41
67.608604,67.71729,64,112,41
67.71729,67.821465,58,112,41
67.82599,67.934685,58,112,41
67.934685,68.03886,61,112,41
68.04338,68.15208,66,112,41
68.15208,68.25625,61,112,41
68.26077,68.36947,58,112,41
68.36947,68.47363,61,112,41
68.478165,68.58686,66,112,41
68.58686,68.691025,61,112,41
68.69556,68.80425,58,112,41
68.80425,68.90842,61,112,41
68.91295,69.021645,66,112,41
69.021645,69.12581,61,112,41
69.13034,69.23904,55,112,41
69.23904,69.3432,58,112,41
69.34773,69.45642,64,112,41
69.45642,69.56059,58,112,41
69.56512,69.67381,55,112,41
69.67381,69.777985,58,112,41
69.78251,69.891205,64,112,41
69.891205,69.99538,58,112,41
69.9999,70.1086,55,112,41
70.1086,70.21276,58,112,41
70.21729,70.32599,64,112,41
70.32599,70.43015,58,112,41
70.434685,70.54338,57,112,41
70.54338,70.647545,63,112,41
70.65208,70.76077,65,112,41
70.76077,70.86494,63,112,41
70.86947,70.978165,57,112,41
70.978165,71.08233,63,112,41
71.08686,71.19555,65,112,41
71.19555,71.29972,63,112,41
71.304245,71.41294,57,112,41
71.41294,71.51711,63,112,41
71.52164,71.63033,65,112,41
71.63033,71.734505,63,112,41
71.73903,72.17381,64,112,41
72.17381,72.6086,62,112,41
72.6086,72.753525,60,112,41
72.753525,72.898445,62,112,41
72.898445,73.03885,64,112,41
73.04337,73.47816,66,112,41
73.47816,73.91294,61,112,41
73.91294,74.27526,66,112,41
74.347725,74.7825,64,112,41
74.7825,75.217285,62,112,41
75.217285,75.36221,60,112,41
75.36221,75.50714,62,112,41
75.50714,75.64754,64,112,41
75.65207,76.84772,57,112,41
76.95641,77.3912,57,112,41
77.3912,77.75352,55,112,41
77.82598,77.97091,53,112,41
77.97091,78.11583,55,112,41
78.11583,78.25623,57,112,41
78.26076,78.36945,62,112,41
78.36945,78.47815,57,112,41
78.47815,78.586845,62,112,41
78.586845,78.69101,57,112,41
78.69554,78.80424,64,112,41
78.80424,78.91293,59,112,41
78.91293,79.02163,64,112,41
79.02163,79.12579,59,112,41
79.130325,79.23902,62,112,41
79.23902,79.34772,57,112,41
79.34772,79.45641,62,112,41
79.45641,79.56058,57,112,41
79.56511,79.999886,69,112,41
79.999886,80.362206,67,112,41
80.43467,80.5796,65,112,41
80.5796,80.724525,67,112,41
80.724525,80.86492,69,112,41
80.86945,80.97815,74,112,41
80.97815,81.086845,69,112,41
81.086845,81.19554,74,112,41
81.19554,81.299706,69,112,41
81.30424,81.412926,76,112,41
81.412926,81.52162,71,112,41
81.52162,81.63032,76,112,41
81.63032,81.73449,71,112,41
81.73901,81.84771,74,112,41
81.84771,81.956406,69,112,41
81.956406,82.0651,74,112,41
82.0651,82.169266,69,112,41
82.1738,82.28249,77,112,41
82.28249,82.38666,74,112,41
82.39119,82.499886,62,112,41
82.499886,82.60405,74,112,41
82.60858,82.71728,77,112,41
82.71728,82.82144,74,112,41
82.82597,82.93467,62,112,41
82.93467,83.03883,74,112,41
83.043365,83.152054,77,112,41
83.152054,83.256226,74,112,41
83.26075,83.369446,62,112,41
83.369446,83.47362,74,112,41
83.47814,83.58231,77,112,41
83.58684,83.69101,77,112,41
83.69553,83.7997,76,112,41
83.80423,83.908394,76,112,41
83.912926,84.01709,77,112,41
84.02162,84.125786,77,112,41
84.13032,84.23448,76,112,41
84.23901,84.34318,76,112,41
84.34771,84.45187,77,112,41
84.456406,84.56057,77,112,41
84.5651,84.669266,76,112,41
84.6738,84.77796,76,112,41
84.78249,84.88666,76,112,41
84.89118,84.99535,76,112,41
84.99988,85.10405,74,112,41
85.108574,85.212746,74,112,41
85.21727,85.32144,77,112,41
85.325966,85.43014,77,112,41
85.43466,85.538826,76,112,41
85.54336,85.64752,76,112,41
85.652054,85.75622,76,112,41
85.76075,85.864914,76,112,41
85.869446,85.97361,74,112,41
85.97814,86.082306,74,112,41
86.08684,86.191,76,112,41
86.19553,86.2997,76,112,41
86.30423,86.408394,74,112,41
86.412926,86.51709,74,112,41
86.52162,86.625786,74,112,41
86.63031,86.73448,74,112,41
86.739006,86.84318,72,112,41
86.8477,86.95187,72,112,41
86.9564,87.06057,76,112,41
87.065094,87.169266,76,112,41
87.17379,87.277954,74,112,41
87.282486,87.38665,74,112,41
87.39118,87.495346,74,112,41
87.49988,87.60404,74,112,41
87.608574,87.71274,72,112,41
87.71727,87.821434,72,112,41
87.825966,87.93013,75,112,41
87.93466,88.038826,75,112,41
88.04336,88.14752,74,112,41
88.152054,88.25622,74,112,41
88.26074,88.364914,74,112,41
88.36944,88.47361,74,112,41
88.478134,88.582306,72,112,41
88.58683,88.691,72,112,41
105.65202,105.70184,56,112,41
105.706375,105.756195,56,112,41
105.76072,105.81054,56,112,41
105.81507,105.86489,56,112,41
105.869415,105.919235,56,112,41
105.92377,105.97359,56,112,41
105.97811,106.02793,56,112,41
106.03246,106.082275,56,112,41
106.08681,106.13663,55,112,41
106.14116,106.19097,55,112,41
106.1955,106.24532,55,112,41
106.249855,106.29967,55,112,41
106.3042,106.35402,55,112,41
106.35854,106.40836,55,112,41
106.412895,106.462715,55,112,41
106.46724,106.51706,55,112,41
106.52159,106.57141,54,112,41
106.575935,106.625755,54,112,41
106.63029,106.68011,54,112,41
106.68463,106.73445,54,112,41
106.73898,106.7888,54,112,41
106.79333,106.84315,54,112,41
106.84768,106.8975,54,112,41
106.90202,106.95184,54,112,41
106.956375,107.00619,53,112,41
107.01072,107.06054,53,112,41
107.06507,107.11488,53,112,41
107.119415,107.169235,53,112,41
107.17376,107.22358,53,112,41
107.22811,107.27793,53,112,41
107.282455,107.332275,53,112,41
107.33681,107.38663,53,112,41
107.39115,107.44097,52,112,41
107.4455,107.49532,52,112,41
107.49985,107.54967,52,112,41
107.5542,107.60402,52,112,41
107.60854,107.65836,52,112,41
107.662895,107.712715,52,112,41
107.71724,107.76706,52,112,41
107.77159,107.8214,52,112,41
107.825935,107.875755,48,112,41
107.88029,107.9301,48,112,41
107.93463,107.98445,48,112,41
107.988976,108.038795,48,112,41
108.04333,108.09315,48,112,41
108.09767,108.14749,48,112,41
108.15202,108.20184,48,112,41
108.20637,108.25619,48,112,41
113.87414,117.13501,69,112,41
117.13501,118.439354,67,112,41
118.439354,118.87414,66,112,41
118.87414,119.30892,67,112,41
119.30892,119.7437,68,112,41
119.7437,120.395874,69,112,41
120.395874,121.04805,67,112,41
121.04805,121.70022,66,112,41
121.70022,122.352394,67,112,41
122.352394,122.78718,68,112,41
122.78718,123.22196,67,112,41
123.22196,123.65674,66,112,41
123.65674,125.613266,65,112,41
125.613266,126.265434,64,112,41
126.265434,128.00456,63,112,41
128.00456,128.43935,62,112,41
128.43935,128.87413,61,112,41
128.87413,130.17848,60,112,41
130.17848,131.48282,59,112,41
131.48282,132.135,62,112,41
132.135,133.43935,61,112,41
133.43935,134.7437,60,112,41
134.7437,136.03445,59,112,41
137.45021,139.70021,62,112,41
139.70021,141.20021,74,112,41
141.20021,143.6002,74,112,41
143.6002,144.20021,79,112,41
144.20021,144.80022,77,112,41
144.80022,146.6002,74,112,41
146.6002,147.20021,79,112,41
147.20021,147.80022,79,112,41
147.80022,148.38771,77,112,41
148.4002,149.00021,74,112,41
149.00021,149.6002,75,112,41
149.6002,153.7877,70,112,41
153.80022,155.4002,55,112,41
156.20021,156.80022,54,112,41
156.80022,157.4002,57,112,41
158.00021,159.20021,55,112,41
159.80022,160.38771,54,112,41
160.4002,160.98772,57,112,41
161.6002,162.80022,55,112,41
163.4002,164.00021,70,112,41
164.00021,164.6002,67,112,41
164.6002,165.20021,63,112,41
165.20021,165.7877,60,112,41
165.80022,166.4002,58,112,41
166.4002,167.00021,55,112,41
167.00021,167.6002,53,112,41
167.6002,168.18771,51,112,41
168.80022,169.4002,53,112,41
170.00021,170.6002,53,112,41
173.6002,174.18771,54,112,41
174.20021,175.20021,56,112,41
175.4002,176.4002,54,112,41
176.6002,177.18771,53,112,41
177.20021,177.7877,54,112,41
177.80022,178.80022,56,112,41
179.00021,180.00021,54,112,41
180.20021,180.7877,53,112,41
180.80022,181.4002,54,112,41
181.4002,182.00021,56,112,41
182.00021,182.6002,59,112,41
182.6002,183.20021,62,112,41
183.20021,183.80022,65,112,41
183.80022,184.38771,66,112,41
184.4002,185.6002,75,112,41
185.6002,186.80022,73,112,41
186.80022,187.20021,72,112,41
187.20021,187.6002,73,112,41
187.6002,188.00021,75,112,41
188.00021,189.20021,77,112,41
189.20021,190.4002,72,112,41
190.4002,191.6002,77,112,41
191.6002,192.6002,75,112,41
199.6839,199.84695,56,112,41
199.84695,199.9964,61,112,41
200.01,200.17303,64,112,41
200.17303,200.3225,61,112,41
200.33607,200.49913,56,112,41
200.49913,200.64857,61,112,41
200.66217,200.82521,64,112,41
200.82521,200.97467,61,112,41
200.98825,201.15129,56,112,41
201.15129,201.30075,61,112,41
201.31435,201.47739,64,112,41
201.47739,201.62685,61,112,41
201.64043,201.80347,56,112,41
201.80347,201.95293,61,112,41
201.9665,202.12956,64,112,41
202.12956,202.279,61,112,41
202.2926,202.45564,56,112,41
202.45564,202.6051,61,112,41
202.61868,202.78172,64,112,41
202.78172,202.93118,61,112,41
202.94478,203.10782,56,112,41
203.10782,203.25728,61,112,41
203.27086,203.4339,64,112,41
203.4339,203.58336,61,112,41
203.59695,203.71414,55,112,41
203.71414,203.83133,59,112,41
203.83133,203.94852,55,112,41
203.94852,204.05594,59,112,41
204.0657,204.18289,59,112,41
204.18289,204.30008,64,112,41
204.30008,204.41727,59,112,41
204.41727,204.52469,64,112,41
204.53445,204.65164,64,112,41
204.65164,204.76883,67,112,41
204.76883,204.88602,64,112,41
204.88602,204.99344,67,112,41
205.0032,205.12039,67,112,41
205.12039,205.23758,71,112,41
205.23758,205.35477,67,112,41
205.35477,205.46219,71,112,41
205.47195,205.58914,71,112,41
205.58914,205.70633,76,112,41
205.70633,205.82352,71,112,41
205.82352,205.93094,67,112,41
205.9407,206.05789,67,112,41
206.05789,206.17508,71,112,41
206.17508,206.29227,67,112,41
206.29227,206.39969,64,112,41
206.40945,206.52664,64,112,41
206.52664,206.64383,67,112,41
206.64383,206.76102,64,112,41
206.76102,206.86844,59,112,41
206.8782,206.99539,59,112,41
206.99539,207.11258,64,112,41
207.11258,207.22977,59,112,41
207.22977,207.33719,55,112,41
207.34695,207.49695,56,112,41
207.49695,207.64694,61,112,41
207.64694,207.79695,64,112,41
207.79695,207.94695,61,112,41
207.94695,208.09695,56,112,41
208.09695,208.24695,61,112,41
208.24695,208.39694,64,112,41
208.39694,208.53445,61,112,41
208.54695,208.69695,56,112,41
208.69695,208.84695,61,112,41
208.84695,208.99695,64,112,41
208.99695,209.14694,61,112,41
209.14694,209.29695,56,112,41
209.29695,209.44695,61,112,41
209.44695,209.59695,64,112,41
209.59695,209.73445,61,112,41
209.74695,209.89694,56,112,41
209.89694,210.04695,61,112,41
210.04695,210.19695,64,112,41
210.19695,210.34695,61,112,41
210.34695,210.49695,56,112,41
210.49695,210.64694,61,112,41
210.64694,210.79695,64,112,41
210.79695,210.93445,61,112,41
210.94695,211.06233,55,112,41
211.06233,211.17772,59,112,41
211.17772,211.2931,55,112,41
211.2931,211.39886,59,112,41
211.40848,211.52386,59,112,41
211.52386,211.63925,64,112,41
211.63925,211.75464,59,112,41
211.75464,211.86041,64,112,41
211.87003,211.98541,64,112,41
211.98541,212.1008,67,112,41
212.1008,212.21617,64,112,41
212.21617,212.32195,67,112,41
212.33156,212.44695,67,112,41
212.44695,212.56233,71,112,41
212.56233,212.67772,67,112,41
212.67772,212.78348,71,112,41
212.7931,212.90848,71,112,41
212.90848,213.02386,76,112,41
213.02386,213.13925,71,112,41
213.13925,213.24503,67,112,41
213.25464,213.37003,67,112,41
213.37003,213.48541,71,112,41
213.48541,213.60078,67,112,41
213.60078,213.70656,64,112,41
213.71617,213.83156,64,112,41
213.83156,213.94695,67,112,41
213.94695,214.06233,64,112,41
214.06233,214.16809,59,112,41
214.17772,214.29309,59,112,41
214.29309,214.40848,64,112,41
214.40848,214.52386,59,112,41
214.52386,214.63925,55,112,41
214.63925,215.22675,55,112,41
218.23926,219.57944,67,112,41
219.57944,221.02646,66,112,41
221.02646,221.53548,64,112,41
221.53548,222.05927,66,112,41
222.05927,222.58157,67,112,41
222.59846,222.74847,71,112,41
222.74847,222.89847,64,112,41
222.89847,223.04848,59,112,41
223.04848,223.18597,55,112,41
223.19847,223.34846,55,112,41
223.34846,223.49847,59,112,41
223.49847,223.64847,64,112,41
223.64847,223.78596,71,112,41
223.79848,223.94847,71,112,41
223.94847,224.09846,64,112,41
224.09846,224.24847,59,112,41
224.24847,224.38597,55,112,41
224.39847,224.54848,55,112,41
224.54848,224.69847,59,112,41
224.69847,224.84846,64,112,41
224.84846,224.98598,71,112,41
224.99847,225.14847,71,112,41
225.14847,225.29848,64,112,41
225.29848,225.44847,59,112,41
225.44847,225.58597,55,112,41
225.59846,225.74847,55,112,41
225.74847,225.89847,59,112,41
225.89847,226.04848,64,112,41
226.04848,226.18597,71,112,41
226.19847,226.34846,71,112,41
226.34846,226.49847,64,112,41
226.49847,226.64847,59,112,41
226.64847,226.78596,55,112,41
226.79848,226.94847,55,112,41
226.94847,227.09846,59,112,41
227.09846,227.24847,64,112,41
227.24847,227.38597,71,112,41
227.39847,227.54848,71,112,41
227.54848,227.69847,64,112,41
227.69847,227.84846,59,112,41
227.84846,227.98598,55,112,41
227.99847,228.14847,55,112,41
228.14847,228.29848,59,112,41
228.29848,228.44847,64,112,41
228.44847,228.58597,71,112,41
228.59846,228.74847,71,112,41
228.74847,228.89847,64,112,41
228.89847,229.04848,59,112,41
229.04848,229.18597,55,112,41
229.19847,229.34846,55,112,41
229.34846,229.49847,59,112,41
229.49847,229.64847,64,112,41
229.64847,229.78596,71,112,41
229.79848,229.94847,70,112,41
229.94847,230.09846,64,112,41
230.09846,230.24847,58,112,41
230.24847,230.38597,55,112,41
230.39847,230.54848,55,112,41
230.54848,230.69847,58,112,41
230.69847,230.84846,64,112,41
230.84846,230.98598,70,112,41
230.99847,231.14847,70,112,41
231.14847,231.29848,64,112,41
231.29848,231.44847,58,112,41
231.44847,231.58597,55,112,41
231.59846,231.74847,55,112,41
231.74847,231.89847,58,112,41
231.89847,232.04848,64,112,41
232.04848,232.18597,70,112,41
232.19847,232.38597,70,112,41
232.38597,232.57347,64,112,41
232.57347,232.76097,58,112,41
232.76097,232.93285,55,112,41
232.94847,233.13597,55,112,41
233.13597,233.32347,58,112,41
233.32347,233.51097,64,112,41
233.51097,233.68285,70,112,41
233.69847,233.80716,57,112,41
233.80716,233.91586,63,112,41
233.91586,234.01776,69,112,41
234.02455,234.13326,69,112,41
234.13326,234.24194,63,112,41
234.24194,234.34386,57,112,41
234.35065,234.45934,57,112,41
234.45934,234.56804,63,112,41
234.56804,234.66994,69,112,41
234.67673,234.78543,69,112,41
234.78543,234.89412,63,112,41
234.89412,234.99602,57,112,41
235.00282,235.11151,57,112,41
235.11151,235.22021,63,112,41
235.22021,235.32211,69,112,41
235.3289,235.4376,69,112,41
235.4376,235.5463,63,112,41
235.5463,235.6482,57,112,41
235.65498,235.76369,57,112,41
235.76369,235.87238,63,112,41
235.87238,235.97429,69,112,41
235.98108,236.08977,69,112,41
236.08977,236.19847,63,112,41
236.19847,236.30037,57,112,41
236.30716,236.41586,57,112,41
236.41586,236.52455,63,112,41
236.52455,236.62645,69,112,41
236.63326,236.74194,69,112,41
236.74194,236.85065,63,112,41
236.85065,236.95255,57,112,41
236.95934,237.06804,57,112,41
237.06804,237.17673,63,112,41
237.17673,237.27863,69,112,41
237.28542,237.39412,69,112,41
237.39412,237.5028,63,112,41
237.5028,237.60472,57,112,41
237.61151,237.7202,57,112,41
237.7202,237.8289,63,112,41
237.8289,237.9308,69,112,41
237.93759,238.0463,69,112,41
238.0463,238.15498,63,112,41
238.15498,238.25688,57,112,41
238.26369,238.37238,57,112,41
238.37238,238.48108,63,112,41
238.48108,238.58298,69,112,41
238.58977,238.69847,69,112,41
238.69847,238.80716,63,112,41
238.80716,238.90906,57,112,41
238.91585,239.02455,57,112,41
239.02455,239.13324,63,112,41
239.13324,239.23515,69,112,41
239.24194,239.35063,69,112,41
239.35063,239.45934,63,112,41
239.45934,239.56123,57,112,41
239.56802,239.67673,57,112,41
239.67673,239.78542,63,112,41
239.78542,239.88731,69,112,41
239.89412,240.0028,69,112,41
240.0028,240.11151,63,112,41
240.11151,240.21341,57,112,41
240.2202,240.3289,57,112,41
240.3289,240.43759,63,112,41
240.43759,240.53949,69,112,41
240.5463,240.65498,69,112,41
240.65498,240.76367,63,112,41
240.76367,240.86559,57,112,41
240.87238,240.98106,57,112,41
240.98106,241.08977,63,112,41
241.08977,241.19167,69,112,41
241.19846,241.30716,69,112,41
241.30716,241.41585,63,112,41
241.41585,241.51776,57,112,41
241.52455,241.63324,55,112,41
241.63324,241.74194,62,112,41
241.74194,241.84384,70,112,41
241.85063,241.95934,70,112,41
241.95934,242.06802,62,112,41
242.06802,242.16992,55,112,41
242.17673,242.28542,55,112,41
242.28542,242.3941,62,112,41
242.3941,242.49602,70,112,41
242.5028,242.6115,70,112,41
242.6115,242.7202,62,112,41
242.7202,242.8221,55,112,41
242.82889,242.93759,55,112,41
242.93759,243.04628,62,112,41
243.04628,243.1482,70,112,41
243.15498,243.26367,70,112,41
243.26367,243.37238,62,112,41
243.37238,243.47427,55,112,41
243.48106,243.58977,55,112,41
243.58977,243.69846,62,112,41
243.69846,243.80035,70,112,41
243.80716,243.91585,70,112,41
243.91585,244.02455,62,112,41
244.02455,244.12645,55,112,41
244.13324,244.24193,55,112,41
244.24193,244.35063,62,112,41
244.35063,244.45253,70,112,41
244.45932,244.56802,70,112,41
244.56802,244.67671,62,112,41
244.67671,244.77863,55,112,41
244.78542,244.8941,55,112,41
244.8941,245.0028,62,112,41
245.0028,245.1047,70,112,41
245.1115,245.2202,70,112,41
245.2202,245.32889,62,112,41
245.32889,245.43079,55,112,41
245.43759,245.54628,55,112,41
245.54628,245.65498,62,112,41
245.65498,245.75688,71,112,41
245.76367,245.87236,71,112,41
245.87236,245.98106,62,112,41
245.98106,246.08296,55,112,41
246.08975,246.19846,55,112,41
246.19846,246.30714,62,112,41
246.30714,246.40906,71,112,41
246.41585,246.52454,71,112,41
246.52454,246.63324,62,112,41
246.63324,246.73514,55,112,41
246.74193,246.85063,55,112,41
246.85063,246.95932,62,112,41
246.95932,247.06122,71,112,41
247.06802,247.17671,71,112,41
247.17671,247.28542,62,112,41
247.28542,247.38731,55,112,41
247.3941,247.50279,55,112,41
247.50279,247.6115,62,112,41
247.6115,247.7134,71,112,41
247.72018,247.82889,71,112,41
247.82889,247.93758,62,112,41
247.93758,248.03949,55,112,41
248.04628,248.15497,55,112,41
248.15497,248.26367,62,112,41
248.26367,248.36557,71,112,41
248.37236,248.48106,71,112,41
248.48106,248.58975,62,112,41
248.58975,248.69165,55,112,41
248.69846,248.80714,55,112,41
248.80714,248.91585,62,112,41
248.91585,249.01775,71,112,41
249.02454,249.13324,71,112,41
249.13324,249.24193,62,112,41
249.24193,249.34383,55,112,41
249.35062,249.41856,56,112,41
249.35062,249.41856,65,112,41
249.43214,249.50008,56,112,41
249.43214,249.50008,65,112,41
249.51367,249.5816,56,112,41
249.51367,249.5816,65,112,41
249.59518,249.66312,56,112,41
249.59518,249.66312,65,112,41
249.67671,249.74464,56,112,41
249.67671,249.74464,65,112,41
249.75822,249.82617,56,112,41
249.75822,249.82617,65,112,41
249.83975,249.90768,56,112,41
249.83975,249.90768,65,112,41
249.92128,249.98921,56,112,41
249.92128,249.98921,65,112,41
250.00279,250.07072,56,112,41
250.00279,250.07072,65,112,41
250.08432,250.15225,56,112,41
250.08432,250.15225,65,112,41
250.16585,250.23378,56,112,41
250.16585,250.23378,65,112,41
250.24736,250.31529,56,112,41
250.24736,250.31529,65,112,41
250.32889,250.39682,56,112,41
250.32889,250.39682,65,112,41
250.4104,250.47833,56,112,41
250.4104,250.47833,65,112,41
250.49193,250.55986,56,112,41
250.49193,250.55986,65,112,41
250.57346,250.64139,56,112,41
250.57346,250.64139,65,112,41
250.65497,250.7229,56,112,41
250.65497,250.7229,65,112,41
250.7365,250.80443,56,112,41
250.7365,250.80443,65,112,41
250.81801,250.88596,56,112,41
250.81801,250.88596,65,112,41
250.89954,250.96747,56,112,41
250.89954,250.96747,65,112,41
250.98106,251.049,56,112,41
250.98106,251.049,65,112,41
251.06258,251.13051,56,112,41
251.06258,251.13051,65,112,41
251.1441,251.21204,56,112,41
251.1441,251.21204,65,112,41
251.22562,251.29356,56,112,41
251.22562,251.29356,65,112,41
251.30714,251.37508,56,112,41
251.30714,251.37508,65,112,41
251.38867,251.4566,56,112,41
251.38867,251.4566,65,112,41
251.47018,251.53812,56,112,41
251.47018,251.53812,65,112,41
251.55171,251.61964,56,112,41
251.55171,251.61964,65,112,41
251.63322,251.70117,56,112,41
251.63322,251.70117,65,112,41
251.71475,251.78268,56,112,41
251.71475,251.78268,65,112,41
251.79628,251.86421,56,112,41
251.79628,251.86421,65,112,41
251.87779,251.94572,56,112,41
251.87779,251.94572,65,112,41
251.95932,252.02725,59,112,41
251.95932,252.02725,68,112,41
252.04083,252.10878,59,112,41
252.04083,252.10878,68,112,41
252.12236,252.19029,59,112,41
252.12236,252.19029,68,112,41
252.20389,252.27182,59,112,41
252.20389,252.27182,68,112,41
252.2854,252.35333,59,112,41
252.2854,252.35333,68,112,41
252.36693,252.43486,59,112,41
252.36693,252.43486,68,112,41
252.44844,252.51639,59,112,41
252.44844,252.51639,68,112,41
252.52997,252.5979,59,112,41
252.52997,252.5979,68,112,41
252.6115,252.67943,59,112,41
252.6115,252.67943,68,112,41
252.69301,252.76094,59,112,41
252.69301,252.76094,68,112,41
252.77454,252.84247,59,112,41
252.77454,252.84247,68,112,41
252.85605,252.924,59,112,41
252.85605,252.924,68,112,41
252.93758,253.00551,59,112,41
252.93758,253.00551,68,112,41
253.0191,253.08704,59,112,41
253.0191,253.08704,68,112,41
253.10062,253.16855,59,112,41
253.10062,253.16855,68,112,41
253.18214,253.25008,59,112,41
253.18214,253.25008,68,112,41
253.26367,253.3316,56,112,41
253.26367,253.3316,65,112,41
253.34518,253.41312,56,112,41
253.34518,253.41312,65,112,41
253.42671,253.49464,56,112,41
253.42671,253.49464,65,112,41
253.50822,253.57616,56,112,41
253.50822,253.57616,65,112,41
253.58975,253.65768,56,112,41
253.58975,253.65768,65,112,41
253.67128,253.73921,56,112,41
253.67128,253.73921,65,112,41
253.75279,253.82072,56,112,41
253.75279,253.82072,65,112,41
253.83432,253.90225,56,112,41
253.83432,253.90225,65,112,41
253.91583,253.98378,56,112,41
253.91583,253.98378,65,112,41
253.99736,254.06529,56,112,41
253.99736,254.06529,65,112,41
254.07889,254.14682,56,112,41
254.07889,254.14682,65,112,41
254.1604,254.22833,56,112,41
254.1604,254.22833,65,112,41
254.24193,254.30986,56,112,41
254.24193,254.30986,65,112,41
254.32344,254.39139,56,112,41
254.32344,254.39139,65,112,41
254.40497,254.4729,56,112,41
254.40497,254.4729,65,112,41
254.4865,254.55443,56,112,41
254.4865,254.55443,65,112,41
254.56801,254.63594,56,112,41
254.56801,254.63594,65,112,41
254.64954,254.71747,56,112,41
254.64954,254.71747,65,112,41
254.73105,254.799,56,112,41
254.73105,254.799,65,112,41
254.81258,254.88051,56,112,41
254.81258,254.88051,65,112,41
254.8941,254.96204,56,112,41
254.8941,254.96204,65,112,41
254.97562,255.04355,56,112,41
254.97562,255.04355,65,112,41
255.05714,255.12508,56,112,41
255.05714,255.12508,65,112,41
255.13866,255.2066,56,112,41
255.13866,255.2066,65,112,41
255.22018,255.28812,56,112,41
255.22018,255.28812,65,112,41
255.30171,255.36964,56,112,41
255.30171,255.36964,65,112,41
255.38322,255.45116,56,112,41
255.38322,255.45116,65,112,41
255.46475,255.53268,56,112,41
255.46475,255.53268,65,112,41
255.54626,255.61421,56,112,41
255.54626,255.61421,65,112,41
255.62779,255.69572,56,112,41
255.62779,255.69572,65,112,41
255.70932,255.77725,56,112,41
255.70932,255.77725,65,112,41
255.79083,255.85876,56,112,41
255.79083,255.85876,65,112,41
255.87236,255.94029,59,112,41
255.87236,255.94029,68,112,41
255.95387,256.02182,59,112,41
255.95387,256.02182,68,112,41
256.0354,256.10333,59,112,41
256.0354,256.10333,68,112,41
256.1169,256.18484,59,112,41
256.1169,256.18484,68,112,41
256.19846,256.2664,59,112,41
256.19846,256.2664,68,112,41
256.27997,256.3479,59,112,41
256.27997,256.3479,68,112,41
256.36148,256.4294,59,112,41
256.36148,256.4294,68,112,41
256.44302,256.51096,59,112,41
256.44302,256.51096,68,112,41
256.52454,256.59247,59,112,41
256.52454,256.59247,68,112,41
256.60605,256.67398,59,112,41
256.60605,256.67398,68,112,41
256.68756,256.75552,59,112,41
256.68756,256.75552,68,112,41
256.7691,256.83704,59,112,41
256.7691,256.83704,68,112,41
256.85062,256.91855,59,112,41
256.85062,256.91855,68,112,41
256.93213,257.00006,59,112,41
256.93213,257.00006,68,112,41
257.01367,257.0816,59,112,41
257.01367,257.0816,68,112,41
257.09518,257.16312,59,112,41
257.09518,257.16312,68,112,41
257.1767,257.24463,56,112,41
257.1767,257.24463,65,112,41
257.25824,257.32617,56,112,41
257.25824,257.32617,65,112,41
257.33975,257.40768,56,112,41
257.33975,257.40768,65,112,41
257.42126,257.4892,56,112,41
257.42126,257.4892,65,112,41
257.50278,257.57074,56,112,41
257.50278,257.57074,65,112,41
257.58432,257.65225,56,112,41
257.58432,257.65225,65,112,41
257.66583,257.73376,56,112,41
257.66583,257.73376,65,112,41
257.74734,257.81528,56,112,41
257.74734,257.81528,65,112,41
257.8289,257.89682,56,112,41
257.8289,257.89682,65,112,41
257.9104,257.97833,56,112,41
257.9104,257.97833,65,112,41
257.9919,258.05984,56,112,41
257.9919,258.05984,65,112,41
258.07346,258.1414,56,112,41
258.07346,258.1414,65,112,41
258.15497,258.2229,56,112,41
258.15497,258.2229,65,112,41
258.23648,258.3044,56,112,41
258.23648,258.3044,65,112,41
258.31802,258.38596,56,112,41
258.31802,258.38596,65,112,41
258.39954,258.46747,56,112,41
258.39954,258.46747,65,112,41
258.48105,258.54898,56,112,41
258.48105,258.54898,65,112,41
258.56256,258.63052,56,112,41
258.56256,258.63052,65,112,41
258.6441,258.71204,56,112,41
258.6441,258.71204,65,112,41
258.72562,258.79355,56,112,41
258.72562,258.79355,65,112,41
258.80713,258.87506,56,112,41
258.80713,258.87506,65,112,41
258.88867,258.9566,56,112,41
258.88867,258.9566,65,112,41
258.97018,259.03812,56,112,41
258.97018,259.03812,65,112,41
259.0517,259.11963,56,112,41
259.0517,259.11963,65,112,41
259.13324,259.20117,56,112,41
259.13324,259.20117,65,112,41
259.21475,259.28268,56,112,41
259.21475,259.28268,65,112,41
259.29626,259.3642,56,112,41
259.29626,259.3642,65,112,41
259.37778,259.44574,56,112,41
259.37778,259.44574,65,112,41
259.45932,259.52725,56,112,41
259.45932,259.52725,65,112,41
259.54083,259.60876,56,112,41
259.54083,259.60876,65,112,41
259.62234,259.69028,56,112,41
259.62234,259.69028,65,112,41
259.7039,259.77182,56,112,41
259.7039,259.77182,65,112,41
259.7854,259.85333,56,112,41
259.7854,259.85333,65,112,41
259.8669,259.93484,56,112,41
259.8669,259.93484,65,112,41
259.94846,260.0164,56,112,41
259.94846,260.0164,65,112,41
260.02997,260.0979,56,112,41
260.02997,260.0979,65,112,41
260.11148,260.1794,56,112,41
260.11148,260.1794,65,112,41
260.193,260.26096,56,112,41
260.193,260.26096,65,112,41
260.27454,260.34247,56,112,41
260.27454,260.34247,65,112,41
260.35605,260.42398,56,112,41
260.35605,260.42398,65,112,41
260.43756,260.5055,56,112,41
260.43756,260.5055,65,112,41
260.5191,260.58704,56,112,41
260.5191,260.58704,65,112,41
260.60062,260.66855,56,112,41
260.60062,260.66855,65,112,41
260.68213,260.75006,56,112,41
260.68213,260.75006,65,112,41
260.76367,260.8316,56,112,41
260.76367,260.8316,65,112,41
260.84518,260.91312,56,112,41
260.84518,260.91312,65,112,41
260.9267,260.99463,56,112,41
260.9267,260.99463,65,112,41
261.00824,261.07617,56,112,41
261.00824,261.07617,65,112,41
261.08975,261.15768,56,112,41
261.08975,261.15768,65,112,41
261.17126,261.2392,56,112,41
261.17126,261.2392,65,112,41
261.25278,261.32074,56,112,41
261.25278,261.32074,65,112,41
261.33432,261.40225,56,112,41
261.33432,261.40225,65,112,41
261.41583,261.48376,56,112,41
261.41583,261.48376,65,112,41
261.49734,261.56528,56,112,41
261.49734,261.56528,65,112,41
261.5789,261.64682,56,112,41
261.5789,261.64682,65,112,41
261.6604,261.72833,56,112,41
261.6604,261.72833,65,112,41
261.7419,261.80984,56,112,41
261.7419,261.80984,65,112,41
261.82346,261.8914,56,112,41
261.82346,261.8914,65,112,41
261.90497,261.9729,56,112,41
261.90497,261.9729,65,112,41
261.98648,262.0544,56,112,41
261.98648,262.0544,65,112,41
262.068,262.13596,56,112,41
262.068,262.13596,65,112,41
262.14954,262.21747,56,112,41
262.14954,262.21747,65,112,41
262.23105,262.29898,56,112,41
262.23105,262.29898,65,112,41
262.31256,262.3805,56,112,41
262.31256,262.3805,65,112,41
262.3941,262.46204,56,112,41
262.3941,262.46204,65,112,41
262.47562,262.54355,56,112,41
262.47562,262.54355,65,112,41
262.55713,262.62506,56,112,41
262.55713,262.62506,65,112,41
262.63867,262.7066,56,112,41
262.63867,262.7066,65,112,41
262.72018,262.78812,56,112,41
262.72018,262.78812,65,112,41
262.8017,262.86963,56,112,41
262.8017,262.86963,65,112,41
262.8832,262.95117,56,112,41
262.8832,262.95117,65,112,41
262.96475,263.03268,56,112,41
262.96475,263.03268,65,112,41
263.04626,263.1142,56,112,41
263.04626,263.1142,65,112,41
263.12778,263.1957,56,112,41
263.12778,263.1957,65,112,41
263.20932,263.27725,56,112,41
263.20932,263.27725,65,112,41
263.29083,263.35876,56,112,41
263.29083,263.35876,65,112,41
263.37234,263.44028,56,112,41
263.37234,263.44028,65,112,41
263.4539,263.52182,56,112,41
263.4539,263.52182,65,112,41
263.5354,263.60333,56,112,41
263.5354,263.60333,65,112,41
263.6169,263.68484,56,112,41
263.6169,263.68484,65,112,41
263.69843,263.7664,56,112,41
263.69843,263.7664,65,112,41
263.77997,263.8479,56,112,41
263.77997,263.8479,65,112,41
263.86148,263.9294,56,112,41
263.86148,263.9294,65,112,41
263.943,264.01093,56,112,41
263.943,264.01093,65,112,41
264.02454,264.09247,56,112,41
264.02454,264.09247,65,112,41
264.10605,264.17398,56,112,41
264.10605,264.17398,65,112,41
264.18756,264.2555,56,112,41
264.18756,264.2555,65,112,41
264.2691,264.33704,56,112,41
264.2691,264.33704,65,112,41
264.35062,264.41855,56,112,41
264.35062,264.41855,65,112,41
264.43213,264.50006,56,112,41
264.43213,264.50006,65,112,41
264.51367,264.5816,56,112,41
264.51367,264.5816,65,112,41
264.59518,264.66312,56,112,41
264.59518,264.66312,65,112,41
264.6767,264.74463,56,112,41
264.6767,264.74463,65,112,41
264.7582,264.82617,56,112,41
264.7582,264.82617,65,112,41
264.83975,264.90768,56,112,41
264.83975,264.90768,65,112,41
264.92126,264.9892,56,112,41
264.92126,264.9892,65,112,41
265.00278,265.0707,56,112,41
265.00278,265.0707,65,112,41
265.08432,265.15225,56,112,41
265.08432,265.15225,65,112,41
265.16583,265.23376,56,112,41
265.16583,265.23376,65,112,41
265.24734,265.31528,56,112,41
265.24734,265.31528,65,112,41
265.3289,265.39682,56,112,41
265.3289,265.39682,65,112,41
265.4104,265.47833,56,112,41
265.4104,265.47833,65,112,41
265.4919,265.55984,56,112,41
265.4919,265.55984,65,112,41
265.57343,265.6414,56,112,41
265.57343,265.6414,65,112,41
265.65497,265.7229,56,112,41
265.65497,265.7229,65,112,41
265.73648,265.8044,56,112,41
265.73648,265.8044,65,112,41
265.818,265.88593,56,112,41
265.818,265.88593,65,112,41
265.89954,265.96747,56,112,41
265.89954,265.96747,65,112,41
265.98105,266.04898,56,112,41
265.98105,266.04898,65,112,41
266.06256,266.1305,56,112,41
266.06256,266.1305,65,112,41
266.1441,266.21204,56,112,41
266.1441,266.21204,65,112,41
266.22562,266.29355,56,112,41
266.22562,266.29355,65,112,41
266.30713,266.37506,56,112,41
266.30713,266.37506,65,112,41
266.38864,266.4566,56,112,41
266.38864,266.4566,65,112,41
266.47018,266.53812,56,112,41
266.47018,266.53812,65,112,41
266.5517,266.61963,56,112,41
266.5517,266.61963,65,112,41
266.6332,266.70114,56,112,41
266.6332,266.70114,65,112,41
266.71475,266.78268,56,112,41
266.71475,266.78268,65,112,41
266.79626,266.8642,56,112,41
266.79626,266.8642,65,112,41
266.87778,266.9457,56,112,41
266.87778,266.9457,65,112,41
266.95932,267.02725,56,112,41
266.95932,267.02725,65,112,41
267.04083,267.10876,56,112,41
267.04083,267.10876,65,112,41
267.12234,267.19028,56,112,41
267.12234,267.19028,65,112,41
267.2039,267.27182,56,112,41
267.2039,267.27182,65,112,41
267.2854,267.35333,56,112,41
267.2854,267.35333,65,112,41
267.3669,267.43484,56,112,41
267.3669,267.43484,65,112,41
267.44843,267.5164,56,112,41
267.44843,267.5164,65,112,41
267.52997,267.5979,56,112,41
267.52997,267.5979,65,112,41
267.61148,267.6794,56,112,41
267.61148,267.6794,65,112,41
267.693,267.76093,56,112,41
267.693,267.76093,65,112,41
267.77454,267.84247,56,112,41
267.77454,267.84247,65,112,41
267.85605,267.92398,56,112,41
267.85605,267.92398,65,112,41
267.93756,268.0055,56,112,41
267.93756,268.0055,65,112,41
268.0191,268.08704,56,112,41
268.0191,268.08704,65,112,41
268.10062,268.16855,56,112,41
268.10062,268.16855,65,112,41
268.18213,268.25006,56,112,41
268.18213,268.25006,65,112,41
268.26364,268.3316,56,112,41
268.26364,268.3316,65,112,41
268.34518,268.41312,56,112,41
268.34518,268.41312,65,112,41
268.4267,268.49463,56,112,41
268.4267,268.49463,65,112,41
268.5082,268.57614,56,112,41
268.5082,268.57614,65,112,41
268.58975,268.65768,56,112,41
268.58975,268.65768,65,112,41
268.67126,268.7392,56,112,41
268.67126,268.7392,65,112,41
268.75278,268.8207,56,112,41
268.75278,268.8207,65,112,41
268.83432,268.90225,56,112,41
268.83432,268.90225,65,112,41
268.91583,269.78085,55,112,41
268.91583,269.78085,65,112,41
311.95926,312.06793,56,112,41
312.06793,312.17212,61,112,41
312.17664,312.28534,64,112,41
312.28534,312.3895,61,112,41
312.39404,312.50272,56,112,41
312.50272,312.6069,61,112,41
312.61142,312.72012,64,112,41
312.72012,312.82428,61,112,41
312.8288,312.9375,56,112,41
312.9375,313.0417,61,112,41
313.0462,313.1549,64,112,41
313.1549,313.25906,61,112,41
313.26358,313.37228,58,112,41
313.37228,313.47644,61,112,41
313.481,313.5897,66,112,41
313.5897,313.69385,61,112,41
313.69836,313.80707,58,112,41
313.80707,313.91122,61,112,41
313.91577,314.02448,66,112,41
314.02448,314.12863,61,112,41
314.13315,314.24185,58,112,41
314.24185,314.346,61,112,41
314.35056,314.45923,66,112,41
314.45923,314.56342,61,112,41
314.56793,314.67664,56,112,41
314.67664,314.7808,61,112,41
314.78534,314.894,64,112,41
314.894,314.9982,61,112,41
315.00272,315.11142,56,112,41
315.11142,315.21558,61,112,41
315.22012,315.3288,64,112,41
315.3288,315.43298,61,112,41
315.4375,315.5462,56,112,41
315.5462,315.65036,61,112,41
315.6549,315.76358,64,112,41
315.76358,315.86777,61,112,41
315.87228,315.981,56,112,41
315.981,316.08514,62,112,41
316.08966,316.19836,64,112,41
316.19836,316.30255,62,112,41
316.30707,316.41577,56,112,41
316.41577,316.51993,62,112,41
316.52444,316.63315,64,112,41
316.63315,316.7373,62,112,41
316.74185,316.85056,56,112,41
316.85056,316.9547,62,112,41
316.95923,317.06793,64,112,41
317.06793,317.1721,62,112,41
317.17664,317.61142,64,112,41
317.61142,318.0462,63,112,41
318.0462,318.19113,61,112,41
318.19113,318.33606,63,112,41
318.33606,318.47644,64,112,41
318.481,318.91577,66,112,41
318.91577,319.35056,61,112,41
319.35056,319.71286,66,112,41
319.7853,320.2201,64,112,41
320.2201,320.65488,63,112,41
320.65488,320.7998,61,112,41
320.7998,320.94473,63,112,41
320.94473,321.08966,64,112,41
321.08966,322.2853,55,112,41
322.394,322.8288,55,112,41
322.8288,323.1911,54,112,41
323.26358,323.4085,52,112,41
323.4085,323.55344,54,112,41
323.55344,323.69382,55,112,41
323.69836,323.80707,61,112,41
323.80707,323.91574,55,112,41
323.91574,324.02444,61,112,41
324.02444,324.1286,55,112,41
324.13315,324.24185,63,112,41
324.24185,324.35052,55,112,41
324.35052,324.45923,63,112,41
324.45923,324.5634,55,112,41
324.56793,324.6766,61,112,41
324.6766,324.7853,55,112,41
324.7853,324.894,61,112,41
324.894,324.99817,55,112,41
325.00272,325.4375,67,112,41
325.4375,325.7998,66,112,41
325.87228,326.0172,64,112,41
326.0172,326.16214,66,112,41
326.16214,326.30252,67,112,41
326.30704,326.41574,73,112,41
326.41574,326.52444,70,112,41
326.52444,326.63315,73,112,41
326.63315,326.7373,70,112,41
326.74182,326.85052,75,112,41
326.85052,326.95923,70,112,41
326.95923,327.06793,75,112,41
327.06793,327.1721,70,112,41
327.1766,327.2853,73,112,41
327.2853,327.394,70,112,41
327.394,327.50272,73,112,41
327.50272,327.60687,70,112,41
327.6114,327.7201,76,112,41
327.7201,327.82425,73,112,41
327.8288,327.9375,64,112,41
327.9375,328.04166,73,112,41
328.04617,328.15488,76,112,41
328.15488,328.25903,73,112,41
328.26358,328.37225,64,112,41
328.37225,328.47644,73,112,41
328.48096,328.58966,76,112,41
328.58966,328.69382,73,112,41
328.69836,328.80704,64,112,41
328.80704,328.91122,73,112,41
328.91574,328.9701,75,112,41
328.9701,329.02444,77,112,41
329.02444,329.0788,75,112,41
329.0788,329.13315,77,112,41
329.13315,329.18747,75,112,41
329.18747,329.24182,77,112,41
329.24182,329.29617,75,112,41
329.29617,329.35052,77,112,41
329.35052,329.40488,75,112,41
329.40488,329.45923,77,112,41
329.45923,329.51358,75,112,41
329.51358,329.56793,77,112,41
329.56793,329.62225,75,112,41
329.62225,329.6766,77,112,41
329.6766,329.73096,75,112,41
329.73096,329.7808,77,112,41
329.7853,329.83966,74,112,41
329.83966,329.894,75,112,41
329.894,329.94836,74,112,41
329.94836,330.0027,75,112,41
330.0027,330.05704,74,112,41
330.05704,330.1114,75,112,41
330.1114,330.16574,74,112,41
330.16574,330.2201,75,112,41
330.2201,330.27444,74,112,41
330.27444,330.3288,75,112,41
330.3288,330.38315,74,112,41
330.38315,330.43747,75,112,41
330.43747,330.49182,74,112,41
330.49182,330.54617,75,112,41
330.54617,330.60052,74,112,41
330.60052,330.65033,75,112,41
330.65488,330.70923,73,112,41
330.70923,330.76358,75,112,41
330.76358,330.8179,73,112,41
330.8179,330.87225,75,112,41
330.87225,330.9266,73,112,41
330.9266,330.98096,75,112,41
330.98096,331.0353,73,112,41
331.0353,331.08966,75,112,41
331.08966,331.144,73,112,41
331.144,331.19836,75,112,41
331.19836,331.2527,73,112,41
331.2527,331.30704,75,112,41
331.30704,331.3614,73,112,41
331.3614,331.41574,75,112,41
331.41574,331.4701,73,112,41
331.4701,331.5199,75,112,41
331.52444,331.5788,71,112,41
331.5788,331.63312,73,112,41
331.63312,331.68747,71,112,41
331.68747,331.74182,73,112,41
331.74182,331.79617,71,112,41
331.79617,331.85052,73,112,41
331.85052,331.90488,71,112,41
331.90488,331.95923,73,112,41
331.95923,332.01358,71,112,41
332.01358,332.0679,73,112,41
332.0679,332.12225,71,112,41
332.12225,332.1766,73,112,41
332.1766,332.23096,71,112,41
332.23096,332.2853,73,112,41
332.2853,332.33966,71,112,41
332.33966,332.394,73,112,41
332.394,332.44833,71,112,41
332.44833,332.5027,73,112,41
332.5027,332.55704,71,112,41
332.55704,332.6114,73,112,41
332.6114,332.66574,71,112,41
332.66574,332.7201,73,112,41
332.7201,332.77444,71,112,41
332.77444,332.8288,73,112,41
332.8288,332.88312,71,112,41
332.88312,332.93747,73,112,41
332.93747,332.99182,71,112,41
332.99182,333.04617,73,112,41
333.04617,333.10052,71,112,41
333.10052,333.15488,73,112,41
333.15488,333.20923,71,112,41
333.20923,333.26355,73,112,41
333.26355,333.3179,71,112,41
333.3179,333.37225,73,112,41
333.37225,333.4266,71,112,41
333.4266,333.48096,73,112,41
333.48096,333.5353,71,112,41
333.5353,333.58966,73,112,41
333.58966,333.644,71,112,41
333.644,333.69833,73,112,41
333.69833,333.7527,71,112,41
333.7527,333.80704,73,112,41
333.80704,333.8614,71,112,41
333.8614,333.91574,73,112,41
333.91574,333.9701,71,112,41
333.9701,334.02444,73,112,41
334.02444,334.07877,71,112,41
334.07877,334.1286,73,112,41
349.78528,349.8351,60,112,41
349.83963,349.88943,60,112,41
349.89398,349.9438,60,112,41
349.94833,349.99814,60,112,41
350.0027,350.0525,60,112,41
350.057,350.10684,60,112,41
350.11136,350.1612,60,112,41
350.1657,350.21555,60,112,41
350.22006,350.26987,59,112,41
350.2744,350.32422,59,112,41
350.32877,350.37857,59,112,41
350.38312,350.43292,59,112,41
350.43744,350.48727,59,112,41
350.4918,350.54163,59,112,41
350.54614,350.59598,59,112,41
350.6005,350.65033,59,112,41
350.65485,350.70465,58,112,41
350.7092,350.759,58,112,41
350.76355,350.81335,58,112,41
350.8179,350.8677,58,112,41
350.87222,350.92206,58,112,41
350.92657,350.9764,58,112,41
350.98093,351.03076,58,112,41
351.03528,351.08508,58,112,41
351.08963,351.13943,57,112,41
351.14398,351.1938,57,112,41
351.19833,351.24814,57,112,41
351.25266,351.3025,57,112,41
351.307,351.35684,56,112,41
351.36136,351.4112,56,112,41
351.4157,351.46555,56,112,41
351.47006,351.51987,56,112,41
351.5244,351.57422,55,112,41
351.57877,351.62857,55,112,41
351.63312,351.68292,55,112,41
351.68744,351.73727,55,112,41
351.7418,351.79163,55,112,41
351.79614,351.84598,55,112,41
351.8505,351.9003,55,112,41
351.90485,351.95465,55,112,41
351.9592,352.009,58,112,41
352.01355,352.06335,58,112,41
352.06787,352.1177,58,112,41
352.12222,352.17206,58,112,41
352.17657,352.2264,58,112,41
352.23093,352.28076,58,112,41
352.28528,352.33508,58,112,41
352.33963,352.38943,58,112,41
352.39398,352.4438,60,112,41
352.44833,352.49814,60,112,41
352.50266,352.5525,60,112,41
352.557,352.60684,60,112,41
352.61136,352.6612,60,112,41
352.6657,352.7155,60,112,41
352.72006,352.76987,60,112,41
352.7744,352.82422,60,112,41
352.82877,352.87857,59,112,41
352.8831,352.93292,59,112,41
352.93744,352.98727,59,112,41
352.9918,353.04163,59,112,41
353.04614,353.09598,59,112,41
353.1005,353.1503,59,112,41
353.15485,353.20465,59,112,41
353.2092,353.259,59,112,41
353.26355,353.31335,58,112,41
353.31787,353.3677,58,112,41
353.37222,353.42206,58,112,41
353.42657,353.4764,58,112,41
353.48093,353.53073,58,112,41
353.53528,353.58508,58,112,41
353.58963,353.63943,58,112,41
353.64398,353.6938,58,112,41
353.6983,353.74814,57,112,41
353.75266,353.8025,57,112,41
353.807,353.85684,57,112,41
353.86136,353.9112,57,112,41
353.9157,353.9655,57,112,41
353.97006,354.01987,57,112,41
354.0244,354.07422,57,112,41
354.07877,354.12857,57,112,41
354.1331,354.18292,56,112,41
354.18744,354.23727,56,112,41
354.2418,354.29163,56,112,41
354.29614,354.34595,56,112,41
354.3505,354.4003,56,112,41
354.40485,354.45465,56,112,41
354.4592,354.509,56,112,41
354.51355,354.56335,56,112,41
354.56787,354.6177,54,112,41
354.62222,354.67206,54,112,41
354.67657,354.7264,54,112,41
354.73093,354.78073,54,112,41
354.78528,354.83508,54,112,41
354.83963,354.88943,54,112,41
354.89398,354.9438,54,112,41
354.9483,354.99814,54,112,41
355.00266,355.0525,50,112,41
355.00266,355.0525,58,112,41
355.057,355.10684,50,112,41
355.057,355.10684,58,112,41
355.11136,355.1612,50,112,41
355.11136,355.1612,58,112,41
355.1657,355.2155,50,112,41
355.1657,355.2155,58,112,41
355.22006,355.26987,50,112,41
355.22006,355.26987,58,112,41
355.2744,355.32422,50,112,41
355.2744,355.32422,58,112,41
355.32877,355.37857,50,112,41
355.32877,355.37857,58,112,41
355.3831,355.43292,50,112,41
355.3831,355.43292,58,112,41
355.43744,355.48727,58,112,41
355.43744,355.48727,62,112,41
355.4918,355.54163,58,112,41
355.4918,355.54163,62,112,41
355.54614,355.59595,58,112,41
355.54614,355.59595,62,112,41
355.6005,355.6503,58,112,41
355.6005,355.6503,62,112,41
355.65485,355.70465,58,112,41
355.65485,355.70465,62,112,41
355.7092,355.759,58,112,41
355.7092,355.759,62,112,41
355.76352,355.81335,58,112,41
355.76352,355.81335,62,112,41
355.81787,355.8677,58,112,41
355.81787,355.8677,62,112,41
355.87222,355.92206,62,112,41
355.87222,355.92206,69,112,41
355.92657,355.9764,62,112,41
355.92657,355.9764,69,112,41
355.98093,356.03073,62,112,41
355.98093,356.03073,69,112,41
356.03528,356.08508,62,112,41
356.03528,356.08508,69,112,41
356.08963,356.13943,62,112,41
356.08963,356.13943,69,112,41
356.14398,356.1938,62,112,41
356.14398,356.1938,69,112,41
356.1983,356.24814,62,112,41
356.1983,356.24814,69,112,41
356.25266,356.3025,62,112,41
356.25266,356.3025,69,112,41
356.307,356.51987,62,112,41
356.307,356.51987,69,112,41
1.739128,2.1014464,50,112,45
2.17391,2.5362284,52,112,45
2.608692,2.9710104,45,112,45
4.34782,4.7101383,50,112,45
4.782602,5.1449203,52,112,45
5.217384,5.5797024,45,112,45
8.69564,9.057959,47,112,45
9.130422,9.343284,40,127,45
9.347813,9.560675,47,112,45
9.565204,9.778066,38,127,45
9.782595,9.995457,45,112,45
9.999986,10.212848,36,127,45
10.217377,10.430239,43,112,45
10.434768,10.64763,40,127,45
10.652159,10.865021,47,112,45
10.86955,11.082412,38,127,45
11.086941,11.299803,45,112,45
11.304332,11.517194,36,127,45
11.521723,11.734585,43,112,45
11.739114,11.951976,40,127,45
11.956505,12.169367,47,112,45
12.173896,12.386758,38,127,45
12.391287,12.604149,45,112,45
12.608678,12.82154,36,127,45
12.826069,13.038931,43,112,45
13.04346,13.256322,40,112,45
13.260851,13.473713,47,112,45
13.260851,13.473713,56,112,45
14.293458,14.347806,40,112,45
14.347806,14.710124,47,112,45
14.347806,14.710124,56,112,45
15.652152,15.865014,37,127,45
15.869543,16.082405,44,112,45
16.086933,16.299795,49,112,45
16.304325,16.666643,44,127,45
16.304325,16.666643,52,127,45
16.956497,17.16936,42,127,45
17.17389,17.386751,49,112,45
17.39128,17.604141,54,112,45
17.608671,17.97099,49,127,45
17.608671,17.97099,58,127,45
18.260843,18.473705,37,127,45
18.478235,18.691097,44,112,45
18.695625,18.908487,49,112,45
18.913017,19.275335,44,127,45
18.913017,19.275335,52,127,45
19.56519,19.778051,40,127,45
19.782581,19.995443,47,112,45
19.999971,20.212833,52,112,45
20.217363,20.579681,47,127,45
20.217363,20.579681,56,127,45
20.869535,21.082397,37,127,45
21.086927,21.29979,44,112,45
21.304317,21.51718,49,112,45
21.52171,21.884027,44,127,45
21.52171,21.884027,52,127,45
22.173882,22.386744,42,127,45
22.391273,22.604136,49,112,45
22.608664,22.821526,54,112,45
22.826056,23.188374,49,127,45
22.826056,23.188374,58,127,45
23.478228,23.69109,37,127,45
23.69562,23.908482,44,112,45
23.91301,24.125872,47,112,45
24.130402,24.49272,44,127,45
24.130402,24.49272,52,127,45
24.782574,24.995436,40,127,45
24.999966,25.212828,47,112,45
25.217356,25.430218,52,112,45
25.434748,25.797066,47,127,45
25.434748,25.797066,56,127,45
26.08692,26.299782,45,127,45
26.304312,26.517174,52,112,45
26.521702,26.734564,56,112,45
26.739094,27.101412,52,127,45
26.739094,27.101412,61,127,45
27.391266,27.604128,42,127,45
27.608658,27.82152,49,112,45
27.826048,27.984562,58,112,45
27.989092,28.04344,49,112,45
28.04344,28.405758,58,127,45
28.04344,28.405758,64,127,45
28.695612,28.908474,45,127,45
28.913004,29.125866,52,112,45
29.130394,29.343256,56,112,45
29.347786,29.710104,52,127,45
29.347786,29.710104,61,127,45
29.999958,30.21282,42,127,45
30.217348,30.43021,49,112,45
30.43474,30.538906,58,112,45
30.543436,30.647602,49,127,45
30.65213,31.01445,58,127,45
30.65213,31.01445,64,127,45
31.304304,31.517166,45,127,45
31.521694,31.734556,52,112,45
31.739086,31.951948,56,112,45
31.956476,32.318794,52,112,45
31.956476,32.318794,61,112,45
32.60865,32.97097,54,112,45
32.60865,32.97097,61,112,45
35.217342,35.430202,52,112,45
35.434734,35.647594,54,112,45
35.652122,35.864986,56,112,45
35.869514,36.08238,57,112,45
36.086906,36.299767,59,112,45
36.3043,36.51716,61,112,45
36.521687,36.73455,62,112,45
36.73908,36.951942,64,112,45
36.95647,37.16933,66,112,45
37.173862,37.386723,68,112,45
37.39125,37.604115,69,112,45
37.608643,37.821507,71,112,45
37.826035,38.18835,73,112,45
38.478207,38.840527,68,112,45
39.13038,39.4927,61,112,45
39.782555,40.14487,56,112,45
40.434727,40.647587,49,127,45
40.65212,40.86498,47,112,45
40.869507,41.08237,46,112,45
41.0869,41.299763,44,127,45
41.30429,41.51715,46,112,45
41.521683,41.734543,47,112,45
41.73907,41.951935,49,127,45
41.956463,42.169327,47,112,45
42.173855,42.386715,46,112,45
42.391247,42.604107,44,127,45
42.608635,42.8215,46,112,45
42.826027,43.03889,47,112,45
43.04342,43.25628,49,127,45
43.26081,43.47367,47,112,45
43.4782,43.691063,46,112,45
43.69559,43.908455,44,127,45
43.912983,44.125843,46,112,45
44.13037,44.343235,47,112,45
44.347763,44.560627,49,127,45
44.565155,44.778015,47,112,45
44.782547,44.995407,49,112,45
44.999935,45.2128,47,127,45
45.217327,45.43019,49,112,45
45.43472,45.64758,47,112,45
45.65211,45.86497,49,127,45
45.8695,46.082363,47,112,45
46.08689,46.299755,49,112,45
46.304283,46.517143,47,127,45
46.521675,46.734535,49,112,45
46.739063,46.951927,47,112,45
46.956455,47.16932,49,127,45
47.173847,47.386707,47,112,45
47.39124,47.6041,49,112,45
47.608627,47.82149,47,127,45
47.82602,48.038883,49,112,45
48.04341,48.25627,47,112,45
48.260803,48.473663,49,127,45
48.47819,48.691055,47,112,45
48.695583,48.908447,49,112,45
48.912975,49.125835,47,127,45
49.130367,49.343227,49,112,45
49.347755,49.56062,47,112,45
49.565147,49.77801,49,127,45
49.78254,49.9954,46,112,45
49.99993,50.21279,49,112,45
50.21732,50.430183,46,127,45
50.43471,50.647575,49,112,45
50.652103,50.864964,46,112,45
50.869495,51.082355,45,112,45
51.086884,51.299747,52,112,45
51.304276,51.51714,45,112,45
51.521667,51.734528,43,112,45
51.73906,51.95192,52,112,45
51.956448,52.16931,43,112,45
52.17384,52.386703,41,112,45
52.39123,52.60409,48,112,45
52.608624,52.821484,41,112,45
52.82601,53.038876,48,112,45
53.043404,53.256268,43,112,45
53.260796,53.473656,53,112,45
53.478188,53.691048,45,112,45
53.695576,53.90844,52,112,45
53.912968,54.12583,45,112,45
54.13036,54.34322,43,112,45
54.34775,54.56061,52,112,45
54.56514,54.778004,43,112,45
54.78253,54.995396,41,112,45
54.999924,55.212784,48,112,45
55.217316,55.430176,41,112,45
55.434704,55.647568,48,112,45
55.652096,55.86496,43,112,45
55.869488,56.082348,53,112,45
56.08688,56.449196,45,112,45
59.565132,59.927452,47,112,45
59.999916,60.212776,40,112,45
60.217308,60.43017,47,112,45
60.434696,60.64756,43,112,45
60.65209,60.864952,50,112,45
60.86948,61.08234,41,112,45
61.086872,61.299732,48,112,45
61.30426,61.517124,40,112,45
61.521652,61.734516,47,112,45
61.739044,61.951904,43,112,45
61.956436,62.169296,50,112,45
62.173824,62.38669,41,112,45
62.391216,62.60408,48,112,45
62.60861,62.82147,40,112,45
62.826,63.03886,47,112,45
63.04339,63.256252,43,112,45
63.26078,63.473644,50,112,45
63.478172,63.691032,41,112,45
63.695564,63.908424,48,112,45
63.912952,64.12582,40,112,45
64.13035,64.34321,47,112,45
64.13035,64.34321,56,112,45
65.16295,65.2173,40,112,45
65.2173,65.57962,47,112,45
65.2173,65.57962,56,112,45
66.521645,66.734505,36,127,45
66.73904,66.9519,43,112,45
66.95643,67.16929,48,112,45
67.17382,67.53614,43,127,45
67.17382,67.53614,52,127,45
67.82599,68.03886,42,127,45
68.04338,68.25625,49,112,45
68.26077,68.47363,54,112,45
68.478165,68.840485,49,127,45
68.478165,68.840485,58,127,45
69.13034,69.3432,36,127,45
69.34773,69.56059,43,112,45
69.56512,69.777985,48,112,45
69.78251,70.14483,43,127,45
69.78251,70.14483,52,127,45
70.434685,70.647545,41,127,45
70.65208,70.86494,48,112,45
70.86947,71.02798,53,112,45
71.03251,71.08233,48,112,45
71.08686,71.44917,53,127,45
71.08686,71.44917,57,127,45
71.73903,71.95189,36,127,45
71.95642,72.16928,43,112,45
72.17381,72.38667,48,112,45
72.391205,72.753525,43,127,45
72.391205,72.753525,52,127,45
73.04337,73.25624,42,127,45
73.260765,73.47363,49,112,45
73.47816,73.69102,54,112,45
73.69555,74.05787,49,127,45
73.69555,74.05787,58,127,45
74.347725,74.560585,36,127,45
74.56511,74.77798,43,112,45
74.7825,74.99537,48,112,45
74.99989,75.36221,43,127,45
74.99989,75.36221,52,127,45
75.65207,75.86493,41,127,45
75.86946,76.08232,48,112,45
76.08685,76.24536,53,112,45
76.24989,76.29971,48,112,45
76.30424,76.66656,53,127,45
76.30424,76.66656,57,127,45
76.95641,77.16927,46,127,45
77.173805,77.386665,53,112,45
77.3912,77.60406,58,112,45
77.60859,77.97091,62,127,45
78.26076,78.473625,43,112,45
78.47815,78.69101,50,112,45
78.69554,78.9084,59,112,45
78.91293,79.27525,50,127,45
78.91293,79.27525,65,127,45
79.56511,79.77797,46,112,45
79.78249,79.99536,53,112,45
79.999886,80.21275,58,112,45
80.21728,80.5796,62,127,45
80.86945,81.08231,43,112,45
81.086845,81.299706,50,112,45
81.30424,81.5171,59,112,45
81.52162,81.88394,50,127,45
81.52162,81.88394,65,127,45
82.1738,82.38666,46,112,45
82.39119,82.60405,53,112,45
82.60858,82.82144,58,112,45
82.82597,83.188286,62,127,45
83.4238,83.47814,43,112,45
83.47814,83.84046,50,112,45
83.47814,83.84046,59,112,45
86.08684,86.44916,53,112,45
86.08684,86.44916,60,112,45
88.695526,88.90839,40,112,45
88.91292,89.12578,47,112,45
89.13031,89.34317,52,112,45
89.3477,89.71002,56,112,45
91.30422,91.51708,44,112,45
91.521614,91.734474,51,112,45
91.739,91.951866,56,112,45
91.95639,92.31871,60,112,45
93.91291,94.12577,48,112,45
94.1303,94.34316,55,112,45
94.347694,94.560555,60,112,45
94.56509,94.92741,64,112,45
96.52161,96.73447,40,112,45
96.739,96.95186,47,112,45
96.95638,97.16925,52,112,45
97.173775,97.536095,56,112,45
99.130295,99.492615,45,112,45
99.56508,99.9274,43,112,45
99.99986,100.362175,42,112,45
100.43464,100.64751,41,112,45
100.65203,100.8649,40,112,45
100.86942,101.23174,39,112,45
101.30421,101.66653,41,112,45
101.73899,102.1013,45,112,45
102.17377,102.53609,43,112,45
102.60855,102.97087,42,112,45
103.043335,103.256195,41,112,45
103.26073,103.47359,40,112,45
103.47812,103.84043,39,112,45
103.912895,104.275215,42,112,45
104.34768,104.56054,45,112,45
104.56507,104.77793,44,112,45
104.78246,104.99532,45,112,45
104.999855,105.212715,44,112,45
105.21725,105.43011,45,112,45
105.43463,105.6475,44,112,45
105.65202,105.86489,45,112,45
105.869415,106.082275,44,112,45
106.08681,106.29967,45,112,45
106.3042,106.51706,44,112,45
106.52159,106.73445,45,112,45
106.73898,106.95184,44,112,45
106.956375,107.169235,45,112,45
107.17376,107.38663,44,112,45
107.39115,107.60402,45,112,45
107.60854,107.8214,44,112,45
107.825935,108.038795,45,112,45
108.04333,108.25619,44,112,45
108.26072,108.47358,45,112,45
108.47811,108.69097,44,112,45
108.6955,108.90836,45,112,45
108.91289,109.125755,44,112,45
109.13028,109.34315,45,112,45
109.34767,109.56053,44,112,45
109.56506,109.77792,45,112,45
109.782455,109.995316,44,112,45
109.99985,110.21271,45,112,45
110.21724,110.4301,44,112,45
110.43463,110.64749,45,112,45
110.652016,110.86488,44,112,45
110.86941,111.23173,45,112,45
111.30419,111.66651,45,112,45
111.738976,112.101295,45,112,45
112.17376,112.60282,45,112,45
112.96791,113.45559,45,112,45
214.63925,215.02675,36,127,45
215.03925,215.42676,43,127,45
215.43925,215.62675,40,127,45
215.63925,215.82675,42,127,45
215.83925,216.83925,43,127,45
217.43925,217.82675,36,127,45
217.83925,218.22675,43,127,45
218.23926,219.34886,36,127,45
222.59846,222.98598,36,112,45
222.99847,223.38597,43,112,45
223.39847,223.58597,40,112,45
223.59846,223.78596,42,112,45
223.79848,224.79848,43,112,45
227.79848,228.18597,36,112,45
228.19847,228.58597,43,112,45
228.59846,229.18597,36,112,45
249.35062,249.77182,40,112,45
249.7854,250.2066,47,112,45
250.22018,250.424,44,112,45
250.43758,250.64139,46,112,45
250.65497,251.74193,47,112,45
252.3941,252.81529,43,112,45
252.82889,253.25008,50,112,45
253.26367,253.68486,40,112,45
253.69844,254.11964,47,112,45
254.13322,254.33704,44,112,45
254.35062,254.55443,46,112,45
254.56801,255.65497,47,112,45
256.30713,256.72833,43,112,45
256.7419,257.16312,50,112,45
257.61148,258.03268,40,112,45
258.04626,258.46747,47,112,45
260.22018,260.6414,40,112,45
260.65497,261.07617,47,112,45
262.8289,263.25006,40,112,45
263.26367,263.68484,47,112,45
265.00278,265.42398,40,112,45
265.43756,265.85876,47,112,45
268.91583,269.1287,40,127,45
269.1332,269.34607,41,112,45
269.35062,269.56348,40,112,45
269.568,269.78085,41,127,45
269.7854,269.99826,40,112,45
270.00278,270.21564,41,112,45
270.22018,270.43304,40,127,45
270.43756,270.65042,41,112,45
270.65497,270.86783,40,112,45
270.87234,271.0852,41,127,45
271.08975,271.3026,40,112,45
271.30713,271.52,41,112,45
271.5245,271.7374,40,112,45
271.7419,271.95477,41,112,45
271.9593,272.17215,42,112,45
272.1767,272.38956,43,112,45
272.39407,272.60693,44,112,45
272.61148,272.82434,45,112,45
272.82886,273.04172,46,112,45
273.04626,273.25912,47,112,45
273.26364,273.4765,48,112,45
273.48105,273.6939,49,112,45
273.69843,273.9113,50,112,45
273.91583,274.1287,51,112,45
274.1332,274.49554,52,112,45
275.43756,275.79987,40,112,45
275.43756,275.79987,47,112,45
276.30713,276.66943,40,112,45
276.30713,276.66943,47,112,45
276.7419,277.10422,38,112,45
276.7419,277.10422,45,112,45
279.3506,279.71292,40,112,45
279.3506,279.71292,47,112,45
280.22015,280.5825,40,112,45
280.22015,280.5825,47,112,45
280.65494,281.01727,38,112,45
280.65494,281.01727,45,112,45
283.26364,283.62595,44,112,45
283.26364,283.62595,51,112,45
284.1332,284.4955,44,112,45
284.1332,284.4955,51,112,45
284.568,284.9303,42,112,45
284.568,284.9303,49,112,45
287.17667,287.539,44,112,45
287.17667,287.539,51,112,45
288.48102,288.84332,44,112,45
288.48102,288.84332,51,112,45
289.78537,290.14767,44,112,45
296.3071,296.51996,45,127,45
296.52448,296.73734,52,112,45
296.74188,296.95474,45,112,45
296.95926,297.17212,43,127,45
297.17667,297.38953,52,112,45
297.39404,297.6069,43,112,45
297.61145,297.8243,41,112,45
297.82883,298.0417,48,112,45
298.04623,298.2591,41,112,45
298.2636,298.47647,48,112,45
298.48102,298.69388,43,112,45
298.6984,298.91125,53,112,45
298.91577,299.12866,45,127,45
299.13318,299.34604,52,112,45
299.35056,299.56342,45,112,45
299.56796,299.78082,43,127,45
299.78534,299.9982,52,112,45
300.00275,300.2156,43,112,45
300.22012,300.43298,41,112,45
300.43753,300.6504,48,112,45
300.6549,300.86777,41,112,45
300.8723,301.08517,48,112,45
301.0897,301.30255,43,112,45
301.3071,301.51996,53,112,45
305.00275,305.36505,47,112,45
305.43753,305.6504,40,112,45
305.6549,305.86777,47,112,45
305.87228,306.08517,43,112,45
306.0897,306.30255,50,112,45
306.30707,306.51993,41,112,45
306.52448,306.73734,48,112,45
306.74185,306.9547,40,112,45
306.95926,307.17212,47,112,45
307.17664,307.3895,43,112,45
307.39404,307.6069,50,112,45
307.61142,307.82428,41,112,45
307.82883,308.0417,48,112,45
308.0462,308.25906,40,112,45
308.2636,308.47647,47,112,45
308.481,308.69385,38,112,45
308.6984,308.91125,45,112,45
308.91577,309.12863,36,112,45
309.13315,309.34604,43,112,45
309.35056,309.56342,40,112,45
309.56793,309.7808,47,112,45
309.56793,309.7808,56,112,45
310.6549,311.0172,40,112,45
310.6549,311.0172,47,112,45
310.6549,311.0172,56,112,45
311.95926,312.17212,37,112,45
312.17664,312.3895,44,112,45
312.39404,312.6069,49,112,45
312.61142,312.97372,44,127,45
312.61142,312.97372,52,127,45
313.26358,313.47644,42,112,45
313.481,313.69385,49,112,45
313.69836,313.91122,54,112,45
313.91577,314.27808,49,112,45
313.91577,314.27808,58,112,45
314.56793,314.7808,37,112,45
314.78534,314.9982,44,112,45
315.00272,315.21558,49,112,45
315.22012,315.58243,44,127,45
315.22012,315.58243,52,127,45
315.87228,316.08514,40,112,45
316.08966,316.30255,47,112,45
316.30707,316.51993,52,112,45
316.52444,316.88678,47,127,45
316.52444,316.88678,56,127,45
317.17664,317.3895,37,112,45
317.394,317.60687,44,112,45
317.61142,317.82428,49,112,45
317.8288,318.19113,44,127,45
317.8288,318.19113,52,127,45
318.481,318.69385,42,112,45
318.69836,318.91122,49,112,45
318.91577,319.12863,54,112,45
319.13315,319.49545,49,127,45
319.13315,319.49545,58,127,45
319.7853,319.9982,37,112,45
320.00272,320.21558,44,112,45
320.2201,320.43295,49,112,45
320.4375,320.7998,44,127,45
320.4375,320.7998,52,127,45
321.08966,321.30252,39,112,45
321.30707,321.51993,46,112,45
321.52444,321.7373,55,112,45
321.74185,322.10416,55,112,45
321.74185,322.10416,61,112,45
322.394,322.60687,45,112,45
322.61142,322.82428,52,112,45
322.8288,323.04166,55,112,45
323.04617,323.4085,61,127,45
323.69836,323.91122,39,112,45
323.91574,324.1286,46,112,45
324.13315,324.31882,55,112,45
324.32336,324.346,46,112,45
324.35052,324.71286,55,112,45
324.35052,324.71286,61,112,45
325.00272,325.21558,45,112,45
325.2201,325.43295,52,112,45
325.4375,325.65036,55,112,45
325.65488,326.0172,61,127,45
326.30704,326.51993,39,112,45
326.52444,326.7373,46,112,45
326.74182,326.92752,55,112,45
326.93204,326.95468,46,112,45
326.95923,327.32153,46,112,45
326.95923,327.32153,55,112,45
326.95923,327.32153,61,112,45
327.6114,327.82425,45,112,45
327.8288,328.04166,52,112,45
328.04617,328.25903,55,112,45
328.26358,328.6259,61,127,45
328.91574,329.27808,51,112,45
328.91574,329.27808,58,112,45
331.49725,331.5199,49,112,45
331.52444,331.88675,55,112,45
331.52444,331.88675,64,112,45
334.13312,334.34598,36,112,45
334.35052,334.5634,43,112,45
334.5679,334.78076,48,112,45
334.7853,335.1476,52,127,45
336.74182,336.95468,40,112,45
336.9592,337.1721,47,112,45
337.1766,337.38947,52,112,45
337.39398,337.75632,55,127,45
339.35052,339.5634,43,112,45
339.5679,339.78076,50,112,45
339.7853,339.99817,55,112,45
340.0027,340.365,59,127,45
341.9592,342.17206,47,112,45
342.1766,342.38947,53,112,45
342.39398,342.60684,56,112,45
342.6114,342.9737,62,127,45
344.5679,344.9302,45,112,45
345.0027,345.365,43,112,45
345.43747,345.79977,42,112,45
345.87225,346.0851,41,112,45
346.08963,346.3025,40,112,45
346.30704,346.66934,39,112,45
346.74182,347.10413,41,112,45
347.17657,347.5389,45,112,45
347.61136,347.9737,43,112,45
348.04614,348.40848,42,112,45
348.48093,348.6938,41,112,45
348.69833,348.9112,40,112,45
348.9157,349.27805,39,112,45
349.3505,349.71283,42,112,45
357.61136,358.0562,46,112,45
357.61136,358.0562,53,112,45
358.15356,358.695,46,112,45
358.15356,358.695,52,112,45
359.2584,359.30753,45,112,45
359.31198,359.66913,45,112,45
359.31198,359.66913,52,112,45
359.31198,359.66913,60,112,45
115.83066,118.439354,69,112,42
118.439354,119.09153,74,112,42
119.09153,119.7437,72,112,42
119.7437,121.70022,69,112,42
121.70022,122.352394,74,112,42
122.352394,123.00457,74,112,42
123.00457,123.65674,72,112,42
123.65674,124.308914,69,112,42
124.308914,124.96109,70,112,42
124.96109,126.91761,67,112,42
126.91761,127.569786,69,112,42
127.569786,128.22195,65,112,42
128.22195,128.87413,67,112,42
128.87413,130.61327,62,112,42
130.83066,131.80891,65,112,42
131.80891,131.86327,67,112,42
131.86327,131.9176,68,112,42
131.9176,132.28445,69,112,42
132.35239,132.71924,67,112,42
132.78717,137.82521,62,112,42
141.20021,148.1002,46,112,42
148.4002,153.00021,39,112,42
148.4002,153.00021,46,112,42
155.6002,157.20021,38,112,42
157.4002,158.6002,43,112,42
158.6002,159.18771,48,112,42
159.20021,160.80022,38,112,42
161.00021,162.20021,43,112,42
162.20021,162.7877,48,112,42
162.80022,168.00021,41,112,42
168.20021,171.80022,46,112,42
171.80022,173.6002,45,112,42
173.6002,182.5877,44,112,42
184.4002,185.00021,66,112,42
185.00021,185.6002,68,112,42
185.6002,186.20021,66,112,42
186.20021,186.80022,65,112,42
186.80022,187.4002,64,112,42
187.4002,188.00021,65,112,42
188.00021,188.6002,66,112,42
188.6002,189.20021,65,112,42
189.20021,189.80022,64,112,42
189.80022,190.4002,65,112,42
190.4002,191.00021,66,112,42
191.00021,191.6002,68,112,42
191.6002,192.20021,66,112,42
192.20021,192.80022,68,112,42
192.80022,193.4002,66,112,42
193.4002,194.00021,68,112,42
194.00021,194.6002,66,112,42
194.6002,195.18771,68,112,42
195.20021,196.50456,66,112,42
196.50456,197.8089,68,112,42
197.8089,199.3714,66,112,42
199.6839,203.27086,37,112,42
203.59695,205.23758,49,112,42
205.47195,206.40945,61,112,42
206.40945,207.1907,49,112,42
207.34695,210.64694,37,112,42
210.94695,213.48541,36,112,42
230.99847,233.69847,42,112,42
233.69847,249.18758,41,112,42
349.78528,349.8351,45,112,42
349.83963,349.88943,45,112,42
349.89398,349.9438,45,112,42
349.94833,349.99814,45,112,42
350.0027,350.0525,45,112,42
350.057,350.10684,45,112,42
350.11136,350.1612,45,112,42
350.1657,350.21555,45,112,42
350.22006,350.26987,43,112,42
350.2744,350.32422,43,112,42
350.32877,350.37857,43,112,42
350.38312,350.43292,43,112,42
350.43744,350.48727,43,112,42
350.4918,350.54163,43,112,42
350.54614,350.59598,43,112,42
350.6005,350.65033,43,112,42
350.65485,350.70465,42,112,42
350.7092,350.759,42,112,42
350.76355,350.81335,42,112,42
350.8179,350.8677,42,112,42
350.87222,350.92206,42,112,42
350.92657,350.9764,42,112,42
350.98093,351.03076,42,112,42
351.03528,351.08508,42,112,42
351.08963,351.13943,41,112,42
351.14398,351.1938,41,112,42
351.19833,351.24814,41,112,42
351.25266,351.3025,41,112,42
351.307,351.35684,40,112,42
351.36136,351.4112,40,112,42
351.4157,351.46555,40,112,42
351.47006,351.51987,40,112,42
351.5244,351.57422,39,112,42
351.57877,351.62857,39,112,42
351.63312,351.68292,39,112,42
351.68744,351.73727,39,112,42
351.7418,351.79163,39,112,42
351.79614,351.84598,39,112,42
351.8505,351.9003,39,112,42
351.90485,351.95465,39,112,42
351.9592,352.009,42,112,42
352.01355,352.06335,42,112,42
352.06787,352.1177,42,112,42
352.12222,352.17206,42,112,42
352.17657,352.2264,42,112,42
352.23093,352.28076,42,112,42
352.28528,352.33508,42,112,42
352.33963,352.38943,42,112,42
352.39398,352.4438,45,112,42
352.44833,352.49814,45,112,42
352.50266,352.5525,45,112,42
352.557,352.60684,45,112,42
352.61136,352.6612,45,112,42
352.6657,352.7155,45,112,42
352.72006,352.76987,45,112,42
352.7744,352.82422,45,112,42
352.82877,352.87857,43,112,42
352.8831,352.93292,43,112,42
352.93744,352.98727,43,112,42
352.9918,353.04163,43,112,42
353.04614,353.09598,43,112,42
353.1005,353.1503,43,112,42
353.15485,353.20465,43,112,42
353.2092,353.259,43,112,42
353.26355,353.31335,42,112,42
353.31787,353.3677,42,112,42
353.37222,353.42206,42,112,42
353.42657,353.4764,42,112,42
353.48093,353.53073,42,112,42
353.53528,353.58508,42,112,42
353.58963,353.63943,42,112,42
353.64398,353.6938,42,112,42
353.6983,353.74814,41,112,42
353.75266,353.8025,41,112,42
353.807,353.85684,41,112,42
353.86136,353.9112,41,112,42
353.9157,353.9655,41,112,42
353.97006,354.01987,41,112,42
354.0244,354.07422,41,112,42
354.07877,354.12857,41,112,42
354.1331,354.18292,40,112,42
354.18744,354.23727,40,112,42
354.2418,354.29163,40,112,42
354.29614,354.34595,40,112,42
354.3505,354.4003,40,112,42
354.40485,354.45465,40,112,42
354.4592,354.509,40,112,42
354.51355,354.56335,40,112,42
354.56787,354.6177,38,112,42
354.56787,354.6177,45,112,42
354.62222,354.67206,38,112,42
354.62222,354.67206,45,112,42
354.67657,354.7264,38,112,42
354.67657,354.7264,45,112,42
354.73093,354.78073,38,112,42
354.73093,354.78073,45,112,42
354.78528,354.83508,38,112,42
354.78528,354.83508,45,112,42
354.83963,354.88943,38,112,42
354.83963,354.88943,45,112,42
354.89398,354.9438,38,112,42
354.89398,354.9438,45,112,42
354.9483,354.99814,38,112,42
354.9483,354.99814,45,112,42
355.00266,355.0525,36,112,42
355.00266,355.0525,43,112,42
355.057,355.10684,36,112,42
355.057,355.10684,43,112,42
355.11136,355.1612,36,112,42
355.11136,355.1612,43,112,42
355.1657,355.2155,36,112,42
355.1657,355.2155,43,112,42
355.22006,355.26987,36,112,42
355.22006,355.26987,43,112,42
355.2744,355.32422,36,112,42
355.2744,355.32422,43,112,42
355.32877,355.37857,36,112,42
355.32877,355.37857,43,112,42
355.3831,355.43292,36,112,42
355.3831,355.43292,43,112,42
355.43744,355.48727,43,112,42
355.43744,355.48727,52,112,42
355.4918,355.54163,43,112,42
355.4918,355.54163,52,112,42
355.54614,355.59595,43,112,42
355.54614,355.59595,52,112,42
355.6005,355.6503,43,112,42
355.6005,355.6503,52,112,42
355.65485,355.70465,43,112,42
355.65485,355.70465,52,112,42
355.7092,355.759,43,112,42
355.7092,355.759,52,112,42
355.76352,355.81335,43,112,42
355.76352,355.81335,52,112,42
355.81787,355.8677,43,112,42
355.81787,355.8677,52,112,42
355.87222,355.92206,52,112,42
355.87222,355.92206,58,112,42
355.92657,355.9764,52,112,42
355.92657,355.9764,58,112,42
355.98093,356.03073,52,112,42
355.98093,356.03073,58,112,42
356.03528,356.08508,52,112,42
356.03528,356.08508,58,112,42
356.08963,356.13943,52,112,42
356.08963,356.13943,58,112,42
356.14398,356.1938,52,112,42
356.14398,356.1938,58,112,42
356.1983,356.24814,52,112,42
356.1983,356.24814,58,112,42
356.25266,356.3025,52,112,42
356.25266,356.3025,58,112,42
356.307,357.50266,58,112,42
