start_time,end_time,note_value,velocity,instrument_program_number
1.363636,1.5340905,64,127,40
1.5340905,1.7613631,60,127,40
2.045454,3.8636353,62,127,40
6.81818,6.9886346,64,127,40
6.9886346,7.215907,60,127,40
7.499998,9.318179,62,127,40
20.909084,21.07954,66,127,40
21.07954,21.306812,61,127,40
21.590902,23.409084,55,127,40
21.590902,23.409084,63,127,40
26.363628,26.534084,66,127,40
26.534084,26.761356,61,127,40
27.045446,28.863628,55,127,40
27.045446,28.863628,63,127,40
34.99999,35.10331,80,127,40
35.112637,35.21525,80,127,40
35.22458,35.32719,80,127,40
35.336517,35.43913,80,127,40
35.448456,35.551003,82,127,40
35.560192,35.661297,82,127,40
35.670486,35.771587,82,127,40
35.78078,35.88188,82,127,40
35.891075,35.992176,83,127,40
36.00137,36.10147,83,127,40
36.11053,36.210167,83,127,40
36.219227,36.318863,83,127,40
36.327923,36.42756,87,127,40
36.436615,36.535995,87,127,40
36.544926,36.64314,87,127,40
36.652065,36.750282,87,127,40
36.75921,36.857426,83,127,40
36.866352,36.964565,83,127,40
36.973495,37.07064,83,127,40
37.079445,37.176273,83,127,40
37.185078,37.28191,82,127,40
37.29071,37.387543,82,127,40
37.396343,37.49275,82,127,40
37.501427,37.596912,82,127,40
37.605595,37.70108,80,127,40
37.709763,37.80525,80,127,40
37.813927,37.909412,80,127,40
37.918095,38.01239,80,127,40
38.020954,38.11513,76,127,40
38.12369,38.217873,76,127,40
38.226433,38.32061,76,127,40
38.32917,38.42283,76,127,40
38.431274,38.52418,68,127,40
38.532627,38.62553,68,127,40
38.63398,38.726883,68,127,40
38.73533,38.828236,68,127,40
38.83668,38.9288,61,127,40
38.937244,39.03125,61,127,40
39.039932,39.13609,61,127,40
39.144894,39.24343,61,127,40
41.46788,44.195152,69,127,40
44.195152,44.862766,67,127,40
44.87697,48.271854,69,127,40
48.28606,49.422424,67,127,40
49.422424,49.87697,69,127,40
49.87697,50.331512,67,127,40
50.331512,51.467876,63,127,40
51.69515,52.37697,67,127,40
52.37697,57.149693,69,127,40
57.149693,58.499126,70,127,40
78.90943,80.27306,78,127,40
80.27306,80.95488,76,127,40
80.95488,81.6225,78,127,40
81.6367,83.000336,73,127,40
83.000336,84.1367,76,127,40
84.363976,85.04579,78,127,40
85.04579,85.72761,76,127,40
85.72761,86.409424,76,127,40
86.409424,87.07704,78,127,40
87.09125,88.45488,73,127,40
88.45488,89.59124,76,127,40
89.81852,90.95488,78,127,40
102.09124,103.45488,66,127,40
103.45488,104.59124,63,127,40
106.18215,108.80715,55,127,40
110.89643,112.26007,85,127,40
112.26007,112.94189,83,127,40
112.94189,113.6095,85,127,40
113.6237,114.98734,80,127,40
114.98734,116.1237,83,127,40
116.350975,117.0328,85,127,40
117.0328,117.714615,83,127,40
117.714615,118.39643,83,127,40
118.39643,119.07825,85,127,40
119.07825,120.44189,80,127,40
120.44189,121.80552,83,127,40
121.80552,122.94189,85,127,40
142.26006,142.94188,59,127,40
142.94188,143.6237,61,127,40
143.6237,144.30551,62,127,40
144.30551,144.98734,65,127,40
144.98734,145.66916,66,127,40
145.66916,146.35097,70,127,40
146.35097,147.03279,71,127,40
147.03279,147.7146,73,127,40
147.7146,148.4289,74,127,40
148.4289,149.14317,78,127,40
149.14317,149.89317,82,127,40
149.89317,150.62755,83,127,40
150.64317,151.325,89,127,40
151.325,152.68863,84,127,40
152.68863,153.37045,82,127,40
153.37045,153.825,80,127,40
153.825,154.27954,82,127,40
154.27954,154.71988,83,127,40
154.73409,155.41591,89,127,40
155.41591,156.77954,84,127,40
156.77954,157.0068,82,127,40
157.0068,157.23409,84,127,40
157.23409,157.46135,82,127,40
157.46135,157.91591,80,127,40
157.91591,158.37045,82,127,40
158.37045,158.81363,83,127,40
158.825,159.5068,89,127,40
159.5068,160.87045,84,127,40
160.87045,161.55226,82,127,40
161.55226,162.23409,89,127,40
162.23409,163.59772,84,127,40
163.59772,164.27954,82,127,40
164.27954,164.96135,89,127,40
164.96135,165.18863,87,127,40
165.18863,165.4159,89,127,40
165.4159,165.64317,87,127,40
165.64317,166.325,84,127,40
166.325,166.9926,82,127,40
167.0068,167.68863,78,127,40
167.68863,168.35625,70,127,40
168.37044,169.05226,73,127,40
169.05226,169.71988,72,127,40
169.73409,170.075,70,127,40
170.075,170.7568,82,127,40
170.7568,171.77548,94,127,40
177.26529,178.62894,58,127,40
178.62894,179.99257,60,127,40
179.99257,181.3562,61,127,40
181.3562,185.44711,55,127,40
181.3562,185.44711,65,127,40
185.44711,186.81075,63,127,40
186.81075,187.94711,70,127,40
193.62892,194.99255,66,127,40
194.99255,195.67438,64,127,40
195.67438,196.3562,66,127,40
196.3562,197.71983,61,127,40
197.71983,198.8562,64,127,40
199.08347,199.76529,66,127,40
199.76529,200.4471,64,127,40
200.4471,201.12892,64,127,40
201.12892,201.81075,66,127,40
201.81075,203.17438,61,127,40
203.17438,204.31075,64,127,40
204.53801,206.92438,66,127,40
212.1354,212.2247,70,127,40
212.2247,212.34375,66,127,40
212.49255,212.84225,68,127,40
213.31845,213.7872,61,127,40
214.25595,214.7247,61,127,40
218.11118,218.20045,88,127,40
218.20045,218.28975,90,127,40
218.28975,218.37903,88,127,40
218.37903,218.46832,90,127,40
218.46832,218.5576,88,127,40
218.5576,218.6469,90,127,40
218.6469,218.73618,88,127,40
218.73618,218.82545,90,127,40
218.82545,218.91475,88,127,40
218.91475,219.00403,90,127,40
219.00403,219.09332,88,127,40
219.09332,219.1826,90,127,40
219.1826,219.27188,88,127,40
219.27188,219.36118,90,127,40
219.36118,219.45045,88,127,40
219.45045,219.5323,90,127,40
219.53975,219.62903,87,127,40
219.62903,219.71832,88,127,40
219.71832,219.8076,87,127,40
219.8076,219.89688,88,127,40
219.89688,219.98618,87,127,40
219.98618,220.07545,88,127,40
220.07545,220.16475,87,127,40
220.16475,220.2466,88,127,40
220.25403,220.34332,85,127,40
220.34332,220.4326,87,127,40
220.4326,220.52188,85,127,40
220.52188,220.61118,87,127,40
220.61118,220.70045,85,127,40
220.70045,220.78975,87,127,40
220.78975,220.87903,85,127,40
220.87903,220.96088,87,127,40
220.96832,221.0576,81,127,40
221.0576,221.14688,83,127,40
221.14688,221.23618,81,127,40
221.23618,221.32545,83,127,40
221.32545,221.41475,81,127,40
221.41475,221.50403,83,127,40
221.50403,221.5933,81,127,40
221.5933,221.67516,83,127,40
221.6826,221.82552,81,127,40
221.82552,221.96844,83,127,40
221.96844,222.11136,81,127,40
222.11136,222.25314,79,127,40
222.25429,222.39607,76,127,40
222.3972,222.4865,76,127,40
222.4865,222.57578,78,127,40
222.57578,222.66505,76,127,40
222.66505,222.75435,78,127,40
222.75435,222.84363,76,127,40
222.84363,222.93292,78,127,40
222.93292,223.0222,76,127,40
223.0222,223.1115,78,127,40
223.1115,223.20078,76,127,40
223.20078,223.29005,78,127,40
223.29005,223.37935,76,127,40
223.37935,223.46863,78,127,40
223.46863,223.55792,76,127,40
223.55792,223.6472,78,127,40
223.6472,223.7365,76,127,40
223.7365,223.81833,78,127,40
223.82578,223.91505,75,127,40
223.91505,224.00435,76,127,40
224.00435,224.09363,75,127,40
224.09363,224.18292,76,127,40
224.18292,224.2722,75,127,40
224.2722,224.36148,76,127,40
224.36148,224.45078,75,127,40
224.45078,224.53262,76,127,40
224.54005,224.62935,73,127,40
224.62935,224.71863,75,127,40
224.71863,224.80792,73,127,40
224.80792,224.8972,75,127,40
224.8972,224.98648,73,127,40
224.98648,225.07578,75,127,40
225.07578,225.16505,73,127,40
225.16505,225.2469,75,127,40
225.25435,225.34363,69,127,40
225.34363,225.43292,71,127,40
225.43292,225.5222,69,127,40
225.5222,225.61148,71,127,40
225.61148,225.70078,69,127,40
225.70078,225.79005,71,127,40
225.79005,225.87935,69,127,40
225.87935,225.96118,71,127,40
225.96863,226.11156,69,127,40
226.11156,226.25447,71,127,40
226.25447,226.39738,69,127,40
226.39738,226.53918,67,127,40
226.54031,226.6821,64,127,40
226.68323,226.77252,64,127,40
226.77252,226.8618,66,127,40
226.8618,226.9511,64,127,40
226.9511,227.04037,66,127,40
227.04037,227.12965,64,127,40
227.12965,227.21895,66,127,40
227.21895,227.30823,64,127,40
227.30823,227.39752,66,127,40
227.39752,227.4868,64,127,40
227.4868,227.5761,66,127,40
227.5761,227.66537,64,127,40
227.66537,227.75465,66,127,40
227.75465,227.84395,64,127,40
227.84395,227.93323,66,127,40
227.93323,228.02252,64,127,40
228.02252,228.1118,66,127,40
228.1118,228.4615,63,127,40
231.2118,231.30109,67,127,40
231.30109,231.42014,63,127,40
231.56894,231.91864,65,127,40
232.39484,232.86359,58,127,40
233.33234,233.80109,58,127,40
237.18756,237.27686,85,127,40
237.27686,237.36613,87,127,40
237.36613,237.45541,85,127,40
237.45541,237.54471,87,127,40
237.54471,237.63399,85,127,40
237.63399,237.72328,87,127,40
237.72328,237.81256,85,127,40
237.81256,237.90186,87,127,40
237.90186,237.99113,85,127,40
237.99113,238.08041,87,127,40
238.08041,238.16971,85,127,40
238.16971,238.25899,87,127,40
238.25899,238.34828,85,127,40
238.34828,238.43756,87,127,40
238.43756,238.52684,85,127,40
238.52684,238.60869,87,127,40
238.61613,238.70541,84,127,40
238.70541,238.79471,85,127,40
238.79471,238.88399,84,127,40
238.88399,238.97328,85,127,40
238.97328,239.06256,84,127,40
239.06256,239.15184,85,127,40
239.15184,239.24113,84,127,40
239.24113,239.32298,85,127,40
239.33041,239.41971,82,127,40
239.41971,239.50899,84,127,40
239.50899,239.59828,82,127,40
239.59828,239.68756,84,127,40
239.68756,239.77684,82,127,40
239.77684,239.86613,84,127,40
239.86613,239.95541,82,127,40
239.95541,240.03726,84,127,40
240.04471,240.13399,78,127,40
240.13399,240.22328,80,127,40
240.22328,240.31256,78,127,40
240.31256,240.40184,80,127,40
240.40184,240.49113,78,127,40
240.49113,240.58041,80,127,40
240.58041,240.66971,78,127,40
240.66971,240.75154,80,127,40
240.75899,240.90192,78,127,40
240.90192,241.04483,80,127,40
241.04483,241.18774,78,127,40
241.18774,241.33067,76,127,40
241.33067,241.47246,73,127,40
241.47359,241.56288,73,127,40
241.56288,241.65216,75,127,40
241.65216,241.74146,73,127,40
241.74146,241.83073,75,127,40
241.83073,241.92001,73,127,40
241.92001,242.00931,75,127,40
242.00931,242.09859,73,127,40
242.09859,242.18788,75,127,40
242.18788,242.27716,73,127,40
242.27716,242.36646,75,127,40
242.36646,242.45573,73,127,40
242.45573,242.54501,75,127,40
242.54501,242.63431,73,127,40
242.63431,242.72359,75,127,40
242.72359,242.81288,73,127,40
242.81288,242.89471,75,127,40
242.90216,242.99146,72,127,40
242.99146,243.08073,73,127,40
243.08073,243.17001,72,127,40
243.17001,243.25931,73,127,40
243.25931,243.34859,72,127,40
243.34859,243.43788,73,127,40
243.43788,243.52716,72,127,40
243.52716,243.60901,73,127,40
243.61644,243.70573,70,127,40
243.70573,243.79501,72,127,40
243.79501,243.88431,70,127,40
243.88431,243.97359,72,127,40
243.97359,244.06288,70,127,40
244.06288,244.15216,72,127,40
244.15216,244.24144,70,127,40
244.24144,244.32329,72,127,40
244.33073,244.42001,66,127,40
244.42001,244.50931,68,127,40
244.50931,244.59859,66,127,40
244.59859,244.68788,68,127,40
244.68788,244.77716,66,127,40
244.77716,244.86644,68,127,40
244.86644,244.95573,66,127,40
244.95573,245.03758,68,127,40
245.04501,245.09264,66,127,40
245.09264,245.18788,66,127,40
245.18788,245.22359,66,127,40
245.22359,245.27121,68,127,40
245.27121,245.36644,68,127,40
245.36644,245.40216,68,127,40
245.40216,245.44978,66,127,40
245.44978,245.54501,66,127,40
245.54501,245.58073,66,127,40
245.58073,245.62637,64,127,40
245.62836,245.7216,64,127,40
245.72359,245.75732,64,127,40
245.75931,245.84859,64,127,40
245.84859,245.93787,66,127,40
245.93787,246.02716,64,127,40
246.02716,246.11644,66,127,40
246.11644,246.20573,64,127,40
246.20573,246.29501,66,127,40
246.29501,246.38431,64,127,40
246.38431,246.47359,66,127,40
246.47359,246.56287,64,127,40
246.56287,246.65216,66,127,40
246.65216,246.74144,64,127,40
246.74144,246.83073,66,127,40
246.83073,246.92001,64,127,40
246.92001,247.00931,66,127,40
247.00931,247.09859,64,127,40
247.09859,247.18044,66,127,40
247.18787,247.53757,64,127,40
251.61644,251.74144,57,127,40
251.74144,251.86644,67,127,40
251.86644,251.99144,72,127,40
251.99144,252.10602,76,127,40
252.11644,252.24144,76,127,40
252.24144,252.36644,72,127,40
252.36644,252.49144,67,127,40
252.49144,252.60602,57,127,40
252.61644,252.74144,57,127,40
252.74144,252.86644,67,127,40
252.86644,252.99144,72,127,40
252.99144,253.10602,76,127,40
253.11644,253.24144,76,127,40
253.24144,253.36644,72,127,40
253.36644,253.49144,67,127,40
253.49144,253.60602,57,127,40
253.61644,253.74144,57,127,40
253.74144,253.86644,67,127,40
253.86644,253.99144,72,127,40
253.99144,254.10602,76,127,40
254.11644,254.24144,76,127,40
254.24144,254.36644,72,127,40
254.36644,254.49144,67,127,40
254.49144,254.60602,57,127,40
254.61644,254.74144,57,127,40
254.74144,254.86644,62,127,40
254.86644,254.99144,71,127,40
254.99144,255.10602,78,127,40
255.11644,255.24144,78,127,40
255.24144,255.36644,71,127,40
255.36644,255.49144,62,127,40
255.49144,255.60602,57,127,40
255.61644,255.74144,57,127,40
255.74144,255.86644,67,127,40
255.86644,255.99144,72,127,40
255.99144,256.10602,76,127,40
256.11646,256.24146,76,127,40
256.24146,256.36646,72,127,40
256.36646,256.49146,67,127,40
256.49146,256.60602,57,127,40
256.61646,256.74146,57,127,40
256.74146,256.86646,67,127,40
256.86646,256.99146,72,127,40
256.99146,257.10602,76,127,40
257.11646,257.24146,76,127,40
257.24146,257.36646,72,127,40
257.36646,257.49146,67,127,40
257.49146,257.60602,57,127,40
257.61646,257.74146,57,127,40
257.74146,257.86646,62,127,40
257.86646,257.99146,71,127,40
257.99146,258.10602,78,127,40
258.11646,258.24146,78,127,40
258.24146,258.36646,71,127,40
258.36646,258.49146,62,127,40
258.49146,258.60602,57,127,40
258.61646,258.74146,57,127,40
258.74146,258.86646,67,127,40
258.86646,258.99146,72,127,40
258.99146,259.10602,76,127,40
259.11646,259.24146,76,127,40
259.24146,259.36646,72,127,40
259.36646,259.49146,67,127,40
259.49146,259.60602,57,127,40
259.61646,259.74146,57,127,40
259.74146,259.86646,67,127,40
259.86646,259.99146,72,127,40
259.99146,260.10602,76,127,40
260.11646,260.24146,76,127,40
260.24146,260.36646,72,127,40
260.36646,260.49146,67,127,40
260.49146,260.60602,57,127,40
260.61646,260.74146,57,127,40
260.74146,260.86646,67,127,40
260.86646,260.99146,72,127,40
260.99146,261.10602,76,127,40
261.11646,261.24146,76,127,40
261.24146,261.36646,72,127,40
261.36646,261.49146,67,127,40
261.49146,261.60602,57,127,40
261.61646,261.74146,57,127,40
261.74146,261.86646,67,127,40
261.86646,261.99146,73,127,40
261.99146,262.10602,76,127,40
262.11646,262.24146,76,127,40
262.24146,262.36646,73,127,40
262.36646,262.49146,67,127,40
262.49146,262.60602,57,127,40
262.61646,262.74146,57,127,40
262.74146,262.86646,67,127,40
262.86646,262.99146,73,127,40
262.99146,263.10602,76,127,40
263.11646,263.24146,76,127,40
263.24146,263.36646,73,127,40
263.36646,263.49146,67,127,40
263.49146,263.60602,57,127,40
263.61646,263.74146,57,127,40
263.74146,263.86646,67,127,40
263.86646,263.99146,73,127,40
263.99146,264.10602,76,127,40
264.11646,264.24146,76,127,40
264.24146,264.36646,73,127,40
264.36646,264.49146,67,127,40
264.49146,264.60602,57,127,40
264.61646,264.7528,55,127,40
264.7528,264.88916,65,127,40
264.88916,265.02554,69,127,40
265.02554,265.15054,76,127,40
265.1619,265.29825,76,127,40
265.29825,265.43463,69,127,40
265.43463,265.57098,65,127,40
265.57098,265.69598,55,127,40
265.70734,265.84885,55,127,40
265.84885,265.99036,65,127,40
265.99036,266.13187,69,127,40
266.13187,266.2616,76,127,40
266.27338,266.4149,76,127,40
266.4149,266.5564,69,127,40
266.5564,266.6979,65,127,40
266.6979,266.82764,55,127,40
266.83942,266.98944,55,127,40
266.98944,267.13943,65,127,40
267.13943,267.28943,69,127,40
267.28943,267.42694,76,127,40
267.43942,267.58942,76,127,40
267.58942,267.73944,69,127,40
267.73944,267.88943,65,127,40
267.88943,268.02692,55,127,40
268.03943,268.2061,55,127,40
268.2061,268.37277,64,127,40
268.37277,268.52902,72,127,40
268.53943,269.03943,72,127,40
269.03943,270.53943,79,127,40
270.53943,271.02902,81,127,40
271.03943,271.53943,78,127,40
271.53943,272.02902,74,127,40
272.03943,273.53943,79,127,40
273.53943,274.02902,81,127,40
274.03943,274.37277,78,127,40
274.37277,274.7061,74,127,40
274.7061,275.02902,78,127,40
275.03943,276.53943,82,127,40
276.53943,277.02902,79,127,40
277.03943,277.53943,82,127,40
277.53943,278.02902,84,127,40
278.03943,278.39658,85,127,40
278.39658,278.75372,90,127,40
278.75372,279.11084,87,127,40
279.11084,279.46054,85,127,40
279.468,279.7061,84,127,40
279.7061,279.93674,86,127,40
279.94418,280.53943,81,127,40
280.53943,280.88913,79,127,40
280.89658,281.25372,82,127,40
281.25372,281.60342,84,127,40
281.61084,281.968,85,127,40
281.968,282.32513,90,127,40
282.32513,282.68228,87,127,40
282.68228,283.03198,85,127,40
283.03943,283.27753,84,127,40
283.27753,283.50818,86,127,40
283.51562,284.11084,81,127,40
284.11084,284.46054,79,127,40
284.468,284.82513,82,127,40
284.82513,285.17484,84,127,40
285.18228,285.53943,85,127,40
285.53943,285.88913,87,127,40
285.89658,286.2537,82,127,40
286.2537,286.6034,80,127,40
286.61084,286.968,85,127,40
286.968,287.3177,87,127,40
287.32513,287.68228,81,127,40
287.68228,288.03198,79,127,40
288.03943,288.39655,85,127,40
288.39655,288.74625,87,127,40
288.7537,289.11084,82,127,40
289.11084,289.46054,80,127,40
289.468,289.8177,85,127,40
289.82513,290.17484,87,127,40
290.18228,290.53198,82,127,40
290.53943,290.65845,80,127,40
290.65845,290.7775,82,127,40
290.7775,290.88913,80,127,40
290.89655,290.9561,78,127,40
290.9561,291.53146,90,127,40
291.61084,291.963,88,127,40
291.968,292.32016,86,127,40
292.32513,292.68228,83,127,40
292.68228,293.03445,78,127,40
293.0394,293.67432,78,127,40
293.7537,294.10587,76,127,40
294.11084,294.463,74,127,40
294.468,294.82513,71,127,40
294.82513,295.1773,66,127,40
295.18225,295.99313,66,127,40
295.99313,297.26703,64,127,40
297.26703,297.7082,62,127,40
297.7082,298.15643,56,127,40
300.4355,301.14975,86,127,40
301.14975,301.5069,84,127,40
301.5069,301.8566,86,127,40
301.86404,302.57834,81,127,40
302.57834,303.17355,84,127,40
303.2926,303.64975,86,127,40
303.64975,303.99945,84,127,40
304.0069,304.36404,84,127,40
304.36404,304.71375,86,127,40
304.7212,305.43546,81,127,40
305.43546,306.0307,84,127,40
316.5307,316.88785,65,127,40
316.88785,317.23755,62,127,40
317.245,317.5947,64,127,40
317.60214,317.95926,65,127,40
317.95926,318.30896,62,127,40
318.3164,318.6661,64,127,40
318.67355,319.03955,65,127,40
319.03955,319.42603,62,127,40
319.43448,319.86328,64,127,40
319.86328,320.32227,65,127,40
320.33234,320.84998,62,127,40
320.84998,321.4275,63,127,40
321.4275,322.0525,66,127,40
322.0525,322.6775,65,127,40
322.6775,323.3025,62,127,40
323.3025,323.9275,63,127,40
323.9275,324.5525,66,127,40
324.5525,325.1775,65,127,40
325.1775,325.8025,62,127,40
325.8025,326.4275,63,127,40
326.4275,327.0525,66,127,40
327.0525,327.6775,65,127,40
327.6775,328.3025,62,127,40
328.3025,328.9275,63,127,40
328.9275,329.5525,64,127,40
329.5525,330.1775,65,127,40
330.1775,330.8025,70,127,40
330.8025,331.4275,64,127,40
331.4275,332.0525,65,127,40
332.0525,332.6775,66,127,40
332.6775,333.3025,64,127,40
333.3025,333.9275,65,127,40
333.9275,334.5525,70,127,40
334.5525,335.1775,64,127,40
335.1775,335.8025,65,127,40
335.8025,336.4275,70,127,40
336.4275,337.0525,64,127,40
337.0525,337.6775,65,127,40
337.6775,338.3025,64,127,40
338.3025,338.9275,65,127,40
338.9275,339.5525,64,127,40
339.5525,340.16446,65,127,40
340.1775,343.615,66,127,40
343.9275,344.34415,71,127,40
344.34415,344.7608,73,127,40
344.7608,345.1775,74,127,40
345.1775,345.59415,77,127,40
345.59415,346.0108,78,127,40
346.0108,346.4275,82,127,40
346.4275,346.84415,83,127,40
346.84415,347.2608,85,127,40
347.2608,347.66446,86,127,40
347.6775,348.3025,89,127,40
348.3025,349.5525,84,127,40
349.5525,350.16446,81,127,40
350.1775,350.59415,80,127,40
350.59415,351.0108,82,127,40
351.0108,351.41446,83,127,40
351.4275,352.0525,89,127,40
352.0525,353.2858,84,127,40
353.2858,353.87332,81,127,40
353.8858,354.2858,80,127,40
354.2858,354.67044,82,127,40
354.67044,355.04303,83,127,40
355.05505,355.63196,89,127,40
355.63196,356.74307,84,127,40
356.74307,357.27423,81,127,40
357.2854,357.8211,89,127,40
357.8211,358.6955,84,127,40
358.86792,359.3744,81,127,40
359.38516,359.88516,89,127,40
359.88516,360.05182,87,127,40
360.05182,360.21848,89,127,40
360.21848,360.38516,87,127,40
360.38516,360.88516,84,127,40
360.88516,361.37473,82,127,40
361.38516,361.88516,78,127,40
361.88516,362.37473,70,127,40
362.38516,362.88516,73,127,40
362.88516,363.37473,72,127,40
363.38516,363.63516,70,127,40
363.63516,364.13516,82,127,40
364.13516,364.87473,94,127,40
368.38516,369.38516,58,127,40
369.38516,370.38516,60,127,40
370.38516,371.21848,61,127,40
371.38516,374.13516,55,127,40
371.38516,374.13516,65,127,40
374.38516,375.63516,63,127,40
375.63516,376.88516,70,127,40
376.88516,378.13516,73,127,40
378.13516,378.88516,77,127,40
378.88516,379.63516,82,127,40
379.63516,380.38516,85,127,40
380.38516,381.17462,89,127,40
381.17462,381.9641,94,127,40
381.9641,382.5891,92,127,40
382.5891,384.86774,90,127,40
384.88077,385.28442,88,127,40
385.29742,385.70108,90,127,40
385.7141,386.3391,85,127,40
386.3391,386.95108,83,127,40
386.9641,387.38077,85,127,40
387.38077,387.79742,83,127,40
387.79742,388.20108,85,127,40
388.2141,389.86774,78,127,40
389.88077,390.28442,76,127,40
390.29742,390.70108,78,127,40
390.7141,391.3391,73,127,40
391.3391,391.95108,71,127,40
391.9641,392.41864,66,127,40
392.41864,392.8732,64,127,40
392.8732,393.31354,66,127,40
393.32773,394.48575,61,127,40
397.6524,397.80865,66,127,40
397.80865,398.10815,62,127,40
398.2774,399.9441,64,127,40
405.1524,405.30865,64,127,40
405.30865,405.60815,60,127,40
405.7774,407.4441,62,127,40
414.34827,414.44733,82,127,40
414.45624,414.55414,82,127,40
414.56296,414.65967,82,127,40
414.66833,414.76382,82,127,40
414.77252,414.8667,84,127,40
414.87524,414.96832,84,127,40
414.97678,415.0688,84,127,40
415.07712,415.16812,84,127,40
415.17633,415.26633,85,127,40
415.27444,415.36346,85,127,40
415.3715,415.45953,85,127,40
415.46744,415.55444,85,127,40
415.56238,415.64832,89,127,40
415.65613,415.74207,89,127,40
415.74988,415.83582,89,127,40
415.84363,415.92957,89,127,40
415.93738,416.02332,85,127,40
416.03113,416.11707,85,127,40
416.12488,416.21082,85,127,40
416.21863,416.30457,85,127,40
416.31238,416.39832,84,127,40
416.40613,416.49207,84,127,40
416.49988,416.58582,84,127,40
416.59363,416.67957,84,127,40
416.68738,416.77332,82,127,40
416.78113,416.86707,82,127,40
416.87488,416.96082,82,127,40
416.96863,417.05457,82,127,40
417.06238,417.15613,70,127,40
417.15613,417.24988,70,127,40
417.24988,417.34363,70,127,40
417.34363,417.43738,70,127,40
417.43738,417.5317,70,127,40
417.5317,417.62848,70,127,40
417.62848,417.72784,70,127,40
417.72784,417.82986,70,127,40
417.82986,417.93478,70,127,40
417.93478,418.0427,70,127,40
418.0427,418.1538,70,127,40
418.1538,418.2683,70,127,40
418.2683,418.38644,66,127,40
418.38644,418.5084,66,127,40
418.5084,418.63446,66,127,40
418.63446,418.7649,66,127,40
418.7649,418.90005,61,127,40
418.90005,419.04025,61,127,40
419.04025,419.18588,61,127,40
419.18588,419.33743,61,127,40
419.33743,419.49368,58,127,40
419.49368,419.64993,58,127,40
419.64993,419.80618,58,127,40
419.80618,419.96243,58,127,40
419.96243,420.11868,55,127,40
419.96243,420.11868,65,127,40
420.11868,420.27493,55,127,40
420.11868,420.27493,65,127,40
420.27493,420.43118,55,127,40
420.27493,420.43118,65,127,40
420.43118,420.58743,55,127,40
420.43118,420.58743,65,127,40
420.58743,420.74368,55,127,40
420.58743,420.74368,65,127,40
420.74368,420.89993,55,127,40
420.74368,420.89993,65,127,40
420.89993,421.05618,55,127,40
420.89993,421.05618,65,127,40
421.05618,421.21243,55,127,40
421.05618,421.21243,65,127,40
421.21243,421.36868,55,127,40
421.21243,421.36868,65,127,40
421.36868,421.52493,55,127,40
421.36868,421.52493,65,127,40
421.52493,421.68118,55,127,40
421.52493,421.68118,65,127,40
421.68118,421.83743,55,127,40
421.68118,421.83743,65,127,40
421.83743,421.99368,55,127,40
421.83743,421.99368,65,127,40
421.99368,422.14993,55,127,40
421.99368,422.14993,65,127,40
422.14993,422.30618,55,127,40
422.14993,422.30618,65,127,40
422.30618,422.46243,55,127,40
422.30618,422.46243,65,127,40
422.46243,422.61868,55,127,40
422.46243,422.61868,65,127,40
422.61868,422.77493,55,127,40
422.61868,422.77493,65,127,40
422.77493,422.93118,55,127,40
422.77493,422.93118,65,127,40
422.93118,423.08743,55,127,40
422.93118,423.08743,65,127,40
423.08743,423.24368,55,127,40
423.08743,423.24368,65,127,40
423.24368,423.39993,55,127,40
423.24368,423.39993,65,127,40
423.39993,423.55618,55,127,40
423.39993,423.55618,65,127,40
423.55618,423.71243,55,127,40
423.55618,423.71243,65,127,40
423.71243,423.86868,55,127,40
423.71243,423.86868,64,127,40
423.86868,424.02493,55,127,40
423.86868,424.02493,64,127,40
424.02493,424.18118,55,127,40
424.02493,424.18118,64,127,40
424.18118,424.33743,55,127,40
424.18118,424.33743,64,127,40
424.33743,424.49368,55,127,40
424.33743,424.49368,64,127,40
424.49368,424.64993,55,127,40
424.49368,424.64993,64,127,40
424.64993,424.80618,55,127,40
424.64993,424.80618,64,127,40
424.80618,424.96243,55,127,40
424.80618,424.96243,64,127,40
424.96243,425.12546,63,127,40
425.12546,425.2885,63,127,40
425.2885,425.45157,63,127,40
425.45157,425.6146,63,127,40
425.6146,425.77765,65,127,40
425.77765,425.94067,65,127,40
425.94067,426.10373,65,127,40
426.10373,426.26678,65,127,40
426.26678,426.4298,65,127,40
426.4298,426.59286,65,127,40
426.59286,426.75836,65,127,40
426.75836,426.92883,65,127,40
429.7102,431.6745,68,127,40
431.6745,432.2995,66,127,40
432.2995,432.9245,68,127,40
432.9245,434.1745,61,127,40
434.1745,435.4245,66,127,40
435.4245,436.6745,75,127,40
436.6745,437.9245,73,127,40
437.9245,440.4245,73,127,40
440.4245,443.67966,82,127,40
443.67966,448.97794,94,127,40
14.999996,16.13636,61,127,45
14.999996,16.13636,64,127,45
307.5337,307.57834,62,127,45
307.57834,308.82834,74,127,45
307.57834,308.82834,86,127,45
310.6929,310.745,62,127,45
310.6929,310.745,74,127,45
310.745,311.995,74,127,45
310.745,311.995,86,127,45
411.4024,412.4441,62,127,45
1.363636,1.5909086,60,120,40
2.045454,3.8636353,58,120,40
6.81818,7.0454526,60,120,40
7.499998,9.318179,58,120,40
20.909084,21.07954,61,127,40
21.07954,21.306812,57,120,40
21.590902,23.409084,57,120,40
26.363628,26.534084,61,127,40
26.534084,26.761356,57,120,40
27.045446,28.863628,57,120,40
34.99999,35.10331,71,120,40
35.112637,35.21525,71,120,40
35.22458,35.32719,71,120,40
35.336517,35.43913,71,120,40
35.448456,35.551003,70,120,40
35.560192,35.661297,70,120,40
35.670486,35.771587,70,120,40
35.78078,35.88188,70,120,40
35.891075,35.992176,68,120,40
36.00137,36.10147,68,120,40
36.11053,36.210167,68,120,40
36.219227,36.318863,68,120,40
36.327923,36.42756,67,120,40
36.436615,36.535995,67,120,40
36.544926,36.64314,67,120,40
36.652065,36.750282,67,120,40
36.75921,36.857426,68,120,40
36.866352,36.964565,68,120,40
36.973495,37.07064,68,120,40
37.079445,37.176273,68,120,40
37.185078,37.28191,70,120,40
37.29071,37.387543,70,120,40
37.396343,37.49275,70,120,40
37.501427,37.596912,70,120,40
37.605595,37.70108,71,120,40
37.709763,37.80525,71,120,40
37.813927,37.909412,71,120,40
37.918095,38.01239,71,120,40
38.020954,38.11513,76,120,40
38.12369,38.217873,76,120,40
38.226433,38.32061,76,120,40
38.32917,38.42283,76,120,40
38.431274,38.52418,64,120,40
38.532627,38.62553,64,120,40
38.63398,38.726883,64,120,40
38.73533,38.828236,64,120,40
38.83668,38.9288,68,120,40
38.937244,39.03125,68,120,40
39.039932,39.13609,68,120,40
39.144894,39.24343,68,120,40
39.25249,39.353127,64,120,40
39.362457,39.465775,64,120,40
39.475243,39.581097,64,120,40
39.590862,39.69929,64,120,40
39.70921,39.82076,59,120,40
39.831005,39.945335,59,120,40
39.95593,40.07346,59,120,40
40.084236,40.20534,59,120,40
40.216503,40.340794,56,120,40
40.352367,40.480774,56,120,40
40.492565,40.62491,56,120,40
40.637165,40.77356,56,120,40
40.78606,40.94231,59,120,40
40.78606,40.94231,63,120,40
40.956516,41.112766,59,120,40
40.956516,41.112766,63,120,40
41.126972,41.283222,59,120,40
41.126972,41.283222,63,120,40
41.297424,41.453674,59,120,40
41.297424,41.453674,63,120,40
41.46788,41.62413,59,120,40
41.46788,41.62413,63,120,40
41.638332,41.794582,59,120,40
41.638332,41.794582,63,120,40
41.80879,41.96504,59,120,40
41.80879,41.96504,63,120,40
41.979244,42.135494,59,120,40
41.979244,42.135494,63,120,40
42.149696,42.305946,59,120,40
42.149696,42.305946,63,120,40
42.320152,42.476402,59,120,40
42.320152,42.476402,63,120,40
42.49061,42.64686,59,120,40
42.49061,42.64686,63,120,40
42.66106,42.81731,59,120,40
42.66106,42.81731,63,120,40
42.831516,42.987766,59,120,40
42.831516,42.987766,63,120,40
43.00197,43.15822,59,120,40
43.00197,43.15822,63,120,40
43.172424,43.328674,59,120,40
43.172424,43.328674,63,120,40
43.34288,43.49913,59,120,40
43.34288,43.49913,63,120,40
43.513332,43.669582,59,120,40
43.513332,43.669582,62,120,40
43.68379,43.84004,59,120,40
43.68379,43.84004,62,120,40
43.854244,44.010494,59,120,40
43.854244,44.010494,62,120,40
44.024696,44.180946,59,120,40
44.024696,44.180946,62,120,40
44.195152,44.351402,59,120,40
44.195152,44.351402,62,120,40
44.365604,44.521854,59,120,40
44.365604,44.521854,62,120,40
44.53606,44.69231,59,120,40
44.53606,44.69231,62,120,40
44.706516,44.862766,59,120,40
44.706516,44.862766,62,120,40
44.87697,45.03322,59,120,40
44.87697,45.03322,62,120,40
45.047424,45.203674,59,120,40
45.047424,45.203674,62,120,40
45.21788,45.374126,59,120,40
45.21788,45.374126,62,120,40
45.388332,45.544582,59,120,40
45.388332,45.544582,62,120,40
45.55879,45.71504,59,120,40
45.55879,45.71504,62,120,40
45.72924,45.88549,59,120,40
45.72924,45.88549,62,120,40
45.899696,46.055946,59,120,40
45.899696,46.055946,62,120,40
46.070152,46.226402,59,120,40
46.070152,46.226402,62,120,40
46.240604,46.396854,59,120,40
46.240604,46.396854,63,120,40
46.41106,46.56731,59,120,40
46.41106,46.56731,63,120,40
46.581516,46.737762,59,120,40
46.581516,46.737762,63,120,40
46.75197,46.90822,59,120,40
46.75197,46.90822,63,120,40
46.922424,47.078674,59,120,40
46.922424,47.078674,63,120,40
47.092876,47.249126,59,120,40
47.092876,47.249126,63,120,40
47.263332,47.419582,59,120,40
47.263332,47.419582,63,120,40
47.43379,47.59004,59,120,40
47.43379,47.59004,63,120,40
47.60424,47.76049,59,120,40
47.60424,47.76049,62,120,40
47.774696,47.930946,59,120,40
47.774696,47.930946,62,120,40
47.94515,48.1014,59,120,40
47.94515,48.1014,62,120,40
48.115604,48.271854,59,120,40
48.115604,48.271854,62,120,40
48.28606,48.44231,59,120,40
48.28606,48.44231,62,120,40
48.456512,48.612762,59,120,40
48.456512,48.612762,62,120,40
48.62697,48.78322,59,120,40
48.62697,48.78322,62,120,40
48.797424,48.953674,59,120,40
48.797424,48.953674,62,120,40
48.967876,49.63549,59,120,40
48.967876,49.63549,63,120,40
53.058784,54.42242,63,120,40
54.42242,55.558784,65,120,40
58.51333,59.19515,66,120,40
59.19515,59.876965,65,120,40
59.876965,60.558784,66,120,40
60.558784,61.2406,65,120,40
61.2406,61.908215,63,120,40
61.92242,62.604237,61,120,40
62.604237,63.286057,63,120,40
63.286057,63.967873,65,120,40
63.967873,64.64969,68,120,40
64.64969,65.33151,65,120,40
65.33151,65.99912,61,120,40
66.01333,66.695145,58,120,40
66.695145,67.37696,61,120,40
67.37696,68.058784,66,120,40
68.058784,68.7406,61,120,40
68.7406,69.42242,58,120,40
69.42242,70.090034,56,120,40
70.10423,70.78606,58,120,40
70.78606,71.46787,56,120,40
71.46787,72.14969,58,120,40
72.14969,72.831505,59,120,40
72.831505,73.51333,61,120,40
73.51333,74.18094,63,120,40
74.195145,74.945145,58,120,40
74.945145,75.695145,63,120,40
75.695145,76.445145,65,120,40
76.445145,77.195145,61,120,40
77.195145,78.052284,59,120,40
78.052284,78.89157,61,120,40
78.90943,81.6367,58,120,40
81.6367,83.000336,61,120,40
83.000336,84.363976,59,120,40
84.363976,87.09125,58,120,40
87.09125,88.45488,61,120,40
88.45488,89.81852,59,120,40
89.81852,93.2134,58,120,40
93.22761,93.909424,70,120,40
93.909424,94.59124,68,120,40
94.59124,95.27306,70,120,40
95.27306,95.95488,66,120,40
95.95488,96.636696,68,120,40
96.636696,97.31851,65,120,40
97.31851,97.98613,68,120,40
98.000336,98.68215,66,120,40
98.68215,99.36397,68,120,40
99.36397,100.045784,66,120,40
100.045784,100.72761,68,120,40
100.72761,101.409424,65,120,40
101.409424,102.077034,68,120,40
102.09124,102.773056,71,120,40
102.773056,103.45488,75,120,40
103.45488,104.136696,71,120,40
104.136696,104.81851,66,120,40
104.81851,105.50033,63,120,40
105.50033,106.167946,59,120,40
106.18215,106.72903,61,120,40
106.93215,107.47903,61,120,40
107.68215,108.43215,60,120,40
108.43215,109.18215,61,120,40
109.18215,110.61072,55,120,40
110.89643,113.6237,73,120,40
110.89643,113.6237,77,120,40
113.6237,116.350975,71,120,40
113.6237,116.350975,76,120,40
116.350975,119.07825,73,120,40
116.350975,119.07825,77,120,40
119.07825,121.80552,71,120,40
119.07825,121.80552,76,120,40
121.80552,122.48734,73,120,40
121.80552,122.48734,77,120,40
122.48734,123.16916,61,120,40
123.16916,123.850975,60,120,40
123.850975,124.53279,61,120,40
124.53279,125.214615,62,120,40
125.214615,125.89643,63,120,40
125.89643,126.57825,66,120,40
126.57825,127.24586,65,120,40
127.26006,127.94189,62,120,40
127.94189,128.6237,63,120,40
128.6237,129.07825,66,120,40
129.07825,129.53279,62,120,40
129.53279,129.98734,66,120,40
129.98734,130.66916,62,120,40
130.66916,131.35097,63,120,40
131.35097,132.03279,66,120,40
132.03279,132.71461,65,120,40
132.71461,133.39642,62,120,40
133.39642,134.07825,63,120,40
134.07825,134.76007,64,120,40
134.76007,135.44188,65,120,40
135.44188,136.1237,70,120,40
136.1237,136.80551,64,120,40
136.80551,137.48734,65,120,40
137.48734,138.16916,70,120,40
138.16916,138.85097,64,120,40
138.85097,139.53279,65,120,40
139.53279,140.21461,70,120,40
140.21461,140.89642,64,120,40
140.89642,141.57825,65,120,40
141.57825,142.26006,66,120,40
142.26006,144.2913,67,120,40
146.35097,150.26817,56,120,40
150.64317,151.325,74,120,40
151.325,152.0068,77,120,40
152.0068,152.68863,80,120,40
152.68863,153.37045,74,120,40
153.37045,154.5068,71,120,40
153.37045,154.5068,76,120,40
154.73409,155.41591,74,120,40
155.41591,156.09772,77,120,40
156.09772,156.77954,80,120,40
156.77954,157.46135,74,120,40
157.46135,158.81363,71,120,40
157.46135,158.81363,76,120,40
158.825,159.5068,74,120,40
159.5068,160.18863,75,120,40
160.18863,160.87045,76,120,40
160.87045,161.55226,77,120,40
161.55226,162.23409,78,120,40
162.23409,162.9159,79,120,40
162.9159,164.27954,80,120,40
164.27954,168.02954,78,120,40
168.37044,169.05226,66,120,40
169.05226,169.71988,68,120,40
169.73409,170.075,70,120,40
170.075,170.7568,78,120,40
170.7568,171.77548,90,120,40
177.94711,178.62894,66,120,40
178.62894,179.31075,65,120,40
179.31075,179.99257,66,120,40
179.99257,180.67438,65,120,40
180.67438,181.3562,63,120,40
181.3562,182.03802,61,120,40
182.03802,182.71983,63,120,40
182.71983,183.40166,65,120,40
183.40166,184.08348,70,120,40
184.08348,184.76529,65,120,40
184.76529,185.44711,61,120,40
185.44711,187.83347,59,120,40
193.62892,196.3562,58,120,40
196.3562,197.71983,57,120,40
197.71983,199.08347,59,120,40
199.08347,201.81075,58,120,40
201.81075,203.17438,57,120,40
203.17438,204.53801,59,120,40
204.53801,206.92438,58,120,40
212.1354,212.2247,61,120,40
212.2247,212.34375,58,120,40
212.49255,212.84225,59,120,40
213.31845,213.7872,58,120,40
214.25595,214.7247,58,120,40
218.11118,218.20045,79,120,40
218.20045,218.28975,83,120,40
218.28975,218.37903,79,120,40
218.37903,218.46832,83,120,40
218.46832,218.5576,79,120,40
218.5576,218.6469,83,120,40
218.6469,218.73618,79,120,40
218.73618,218.82545,83,120,40
218.82545,218.91475,79,120,40
218.91475,219.00403,83,120,40
219.00403,219.09332,79,120,40
219.09332,219.1826,83,120,40
219.1826,219.27188,79,120,40
219.27188,219.36118,83,120,40
219.36118,219.45045,79,120,40
219.45045,219.5323,83,120,40
219.53975,219.62903,79,120,40
219.62903,219.71832,82,120,40
219.71832,219.8076,79,120,40
219.8076,219.89688,82,120,40
219.89688,219.98618,79,120,40
219.98618,220.07545,82,120,40
220.07545,220.16475,79,120,40
220.16475,220.2466,82,120,40
220.25403,220.34332,79,127,40
220.34332,220.4326,81,120,40
220.4326,220.52188,79,120,40
220.52188,220.61118,81,120,40
220.61118,220.70045,79,120,40
220.70045,220.78975,81,120,40
220.78975,220.87903,79,120,40
220.87903,220.96088,81,120,40
220.96832,221.0576,76,120,40
221.0576,221.14688,79,120,40
221.14688,221.23618,76,120,40
221.23618,221.32545,79,120,40
221.32545,221.41475,76,120,40
221.41475,221.50403,79,120,40
221.50403,221.5933,76,120,40
221.5933,221.67516,79,120,40
221.6826,221.8017,76,120,40
221.8017,221.9208,79,120,40
221.9208,222.0399,76,120,40
222.0399,222.159,73,120,40
222.159,222.2781,71,120,40
222.2781,222.39607,69,120,40
222.3972,222.4865,67,120,40
222.4865,222.57578,71,120,40
222.57578,222.66505,67,120,40
222.66505,222.75435,71,120,40
222.75435,222.84363,67,120,40
222.84363,222.93292,71,120,40
222.93292,223.0222,67,120,40
223.0222,223.1115,71,120,40
223.1115,223.20078,67,120,40
223.20078,223.29005,71,120,40
223.29005,223.37935,67,120,40
223.37935,223.46863,71,120,40
223.46863,223.55792,67,120,40
223.55792,223.6472,71,120,40
223.6472,223.7365,67,120,40
223.7365,223.81833,71,120,40
223.82578,223.91505,67,120,40
223.91505,224.00435,70,120,40
224.00435,224.09363,67,120,40
224.09363,224.18292,70,120,40
224.18292,224.2722,67,120,40
224.2722,224.36148,70,120,40
224.36148,224.45078,67,120,40
224.45078,224.53262,70,120,40
224.54005,224.62935,67,127,40
224.62935,224.71863,69,120,40
224.71863,224.80792,67,127,40
224.80792,224.8972,69,120,40
224.8972,224.98648,67,127,40
224.98648,225.07578,69,120,40
225.07578,225.16505,67,127,40
225.16505,225.2469,69,120,40
225.25435,225.34363,64,120,40
225.34363,225.43292,67,120,40
225.43292,225.5222,64,120,40
225.5222,225.61148,67,120,40
225.61148,225.70078,64,120,40
225.70078,225.79005,67,120,40
225.79005,225.87935,64,120,40
225.87935,225.96118,67,120,40
225.96863,226.08772,64,120,40
226.08772,226.20683,67,120,40
226.20683,226.32593,64,120,40
226.32593,226.44504,61,120,40
226.44504,226.56413,59,120,40
226.56413,226.6821,57,120,40
226.68323,226.77252,55,120,40
226.77252,226.8618,59,120,40
226.8618,226.9511,55,120,40
226.9511,227.04037,59,120,40
227.04037,227.12965,55,120,40
227.12965,227.21895,59,120,40
227.21895,227.30823,55,120,40
227.30823,227.39752,59,120,40
227.39752,227.4868,55,120,40
227.4868,227.5761,59,120,40
227.5761,227.66537,55,120,40
227.66537,227.75465,59,120,40
227.75465,227.84395,55,120,40
227.84395,227.93323,59,120,40
227.93323,228.02252,55,120,40
228.02252,228.1118,59,120,40
228.1118,228.4615,55,120,40
231.2118,231.30109,58,127,40
231.30109,231.42014,55,120,40
231.56894,231.91864,56,120,40
232.39484,232.86359,55,120,40
233.33234,233.80109,55,120,40
237.18756,237.27686,76,120,40
237.27686,237.36613,79,120,40
237.36613,237.45541,76,120,40
237.45541,237.54471,79,120,40
237.54471,237.63399,76,120,40
237.63399,237.72328,79,120,40
237.72328,237.81256,76,120,40
237.81256,237.90186,79,120,40
237.90186,237.99113,76,120,40
237.99113,238.08041,79,120,40
238.08041,238.16971,76,120,40
238.16971,238.25899,79,120,40
238.25899,238.34828,76,120,40
238.34828,238.43756,79,120,40
238.43756,238.52684,76,120,40
238.52684,238.61613,79,120,40
238.61613,238.70541,76,120,40
238.70541,238.79471,79,120,40
238.79471,238.88399,76,120,40
238.88399,238.97328,79,120,40
238.97328,239.06256,76,120,40
239.06256,239.15184,79,120,40
239.15184,239.24113,76,120,40
239.24113,239.32298,79,120,40
239.33041,239.41971,78,127,40
239.41971,239.50899,79,120,40
239.50899,239.59828,78,120,40
239.59828,239.68756,79,120,40
239.68756,239.77684,78,120,40
239.77684,239.86613,79,120,40
239.86613,239.95541,78,120,40
239.95541,240.03726,79,120,40
240.04471,240.13399,73,120,40
240.13399,240.22328,76,120,40
240.22328,240.31256,73,120,40
240.31256,240.40184,76,120,40
240.40184,240.49113,73,120,40
240.49113,240.58041,76,120,40
240.58041,240.66971,73,120,40
240.66971,240.75154,76,120,40
240.75899,240.87808,73,120,40
240.87808,240.9972,76,120,40
240.9972,241.11629,73,120,40
241.11629,241.2354,70,120,40
241.2354,241.35449,68,120,40
241.35449,241.47246,64,120,40
241.47359,241.56288,64,120,40
241.56288,241.65216,67,120,40
241.65216,241.74146,64,120,40
241.74146,241.83073,67,120,40
241.83073,241.92001,64,120,40
241.92001,242.00931,67,120,40
242.00931,242.09859,64,120,40
242.09859,242.18788,67,120,40
242.18788,242.27716,64,120,40
242.27716,242.36646,67,120,40
242.36646,242.45573,64,120,40
242.45573,242.54501,67,120,40
242.54501,242.63431,64,120,40
242.63431,242.72359,67,120,40
242.72359,242.81288,64,120,40
242.81288,242.90216,67,120,40
242.90216,242.99146,64,120,40
242.99146,243.08073,67,120,40
243.08073,243.17001,64,120,40
243.17001,243.25931,67,120,40
243.25931,243.34859,64,120,40
243.34859,243.43788,67,120,40
243.43788,243.52716,64,120,40
243.52716,243.60901,67,120,40
243.61644,243.70573,66,127,40
243.70573,243.79501,67,120,40
243.79501,243.88431,66,120,40
243.88431,243.97359,67,120,40
243.97359,244.06288,66,120,40
244.06288,244.15216,67,120,40
244.15216,244.24144,66,120,40
244.24144,244.32329,67,120,40
244.33073,244.42001,61,120,40
244.42001,244.50931,64,120,40
244.50931,244.59859,61,120,40
244.59859,244.68788,64,120,40
244.68788,244.77716,61,120,40
244.77716,244.86644,64,120,40
244.86644,244.95573,61,120,40
244.95573,245.03758,64,120,40
245.04501,245.09264,61,120,40
245.09264,245.18788,61,120,40
245.18788,245.23549,64,120,40
245.23549,245.33073,64,120,40
245.33073,245.37836,61,120,40
245.37836,245.47359,61,120,40
245.47359,245.52121,60,120,40
245.52121,245.61644,60,120,40
245.61644,245.66208,58,120,40
245.66406,245.75732,58,120,40
245.75931,245.84859,58,120,40
245.84859,245.93787,61,120,40
245.93787,246.02716,58,120,40
246.02716,246.11644,61,120,40
246.11644,246.20573,58,120,40
246.20573,246.29501,61,120,40
246.29501,246.38431,58,120,40
246.38431,246.47359,61,120,40
246.47359,246.56287,58,120,40
246.56287,246.65216,60,120,40
246.65216,246.74144,58,120,40
246.74144,246.83073,60,120,40
246.83073,246.92001,58,120,40
246.92001,247.00931,60,120,40
247.00931,247.09859,58,120,40
247.09859,247.18044,60,120,40
247.18787,247.53757,58,120,40
250.5093,254.10602,72,127,40
254.11644,254.61644,74,120,40
254.61644,255.11644,71,120,40
255.11644,255.60602,66,120,40
255.61644,257.11646,72,120,40
257.11646,257.61646,74,120,40
257.61646,257.94977,71,120,40
257.94977,258.2831,66,120,40
258.2831,258.60602,69,120,40
258.61646,259.94977,72,120,40
260.11646,260.24146,71,120,40
260.24146,260.36646,72,120,40
260.36646,260.49146,74,120,40
260.49146,260.61646,71,120,40
260.61646,261.11646,71,120,40
261.11646,261.60602,67,120,40
261.61646,262.11646,71,120,40
262.11646,262.94977,69,120,40
263.11646,263.36646,71,120,40
263.36646,263.60602,69,120,40
263.61646,264.11646,67,120,40
264.11646,264.60602,69,120,40
264.61646,265.70734,64,120,40
265.70734,267.23944,62,120,40
267.43942,267.73944,64,120,40
267.73944,268.02692,62,120,40
268.03943,268.53943,62,120,40
268.53943,269.02902,60,120,40
275.53943,276.02902,67,120,40
276.03943,276.87277,63,120,40
277.03943,277.36234,62,120,40
277.37277,277.69568,63,120,40
277.7061,278.02902,62,120,40
278.03943,278.39658,61,120,40
278.39658,278.75372,66,120,40
278.75372,279.11084,63,120,40
279.11084,279.46054,61,120,40
279.468,279.7061,60,120,40
279.7061,279.93674,62,120,40
279.94418,280.53943,57,120,40
280.53943,280.88913,55,120,40
280.89658,281.25372,58,120,40
281.25372,281.60342,60,120,40
281.61084,281.968,61,120,40
281.968,282.32513,66,120,40
282.32513,282.68228,63,120,40
282.68228,283.03198,61,120,40
283.03943,283.27753,60,120,40
283.27753,283.50818,62,120,40
283.51562,284.11084,57,120,40
284.11084,284.46054,55,120,40
284.468,284.82513,58,120,40
284.82513,285.17484,60,120,40
285.18228,285.89658,58,120,40
285.89658,286.61084,60,120,40
286.61084,287.32513,62,120,40
287.32513,288.03943,64,120,40
288.03943,288.7537,66,120,40
288.7537,289.34894,68,120,40
289.468,289.8177,70,120,40
289.82513,290.41293,72,120,40
290.42038,290.65845,73,120,40
290.65845,290.88913,78,120,40
290.89655,290.9561,55,120,40
290.89655,290.9561,62,120,40
290.9561,291.53146,55,120,40
290.9561,291.53146,62,120,40
290.9561,291.53146,71,120,40
290.9561,291.53146,78,120,40
291.61084,291.963,76,120,40
291.968,292.32016,74,120,40
292.32513,292.68228,71,120,40
292.68228,293.03445,66,120,40
293.0394,293.11877,71,120,40
293.11877,293.19815,62,120,40
293.19815,293.27255,55,120,40
293.2775,293.35687,55,120,40
293.35687,293.43625,62,120,40
293.43625,293.51065,71,120,40
293.5156,293.59497,71,120,40
293.59497,293.67432,62,120,40
293.67432,293.74875,55,120,40
293.7537,293.83307,71,120,40
293.83307,293.9124,62,120,40
293.9124,293.98682,55,120,40
293.9918,294.07117,55,120,40
294.07117,294.1505,62,120,40
294.1505,294.2249,71,120,40
294.2299,294.30927,71,120,40
294.30927,294.3886,62,120,40
294.3886,294.463,55,120,40
294.468,294.54733,71,120,40
294.54733,294.6267,62,120,40
294.6267,294.7011,55,120,40
294.7061,294.78543,55,120,40
294.78543,294.8648,62,120,40
294.8648,294.9392,71,120,40
294.94418,295.02353,71,120,40
295.02353,295.1029,62,120,40
295.1029,295.1773,55,120,40
295.18225,295.24365,55,120,40
295.18225,295.24365,62,120,40
295.24924,295.3106,55,120,40
295.24924,295.3106,62,120,40
295.3162,295.37756,55,120,40
295.3162,295.37756,62,120,40
295.38315,295.44455,55,120,40
295.38315,295.44455,62,120,40
295.45013,295.5115,55,120,40
295.45013,295.5115,62,120,40
295.5171,295.57846,55,120,40
295.5171,295.57846,62,120,40
295.58405,295.64655,55,120,40
295.58405,295.64655,62,120,40
295.65222,295.71472,55,120,40
295.65222,295.71472,62,120,40
295.72043,295.78293,55,120,40
295.72043,295.78293,62,120,40
295.7886,295.8511,55,120,40
295.7886,295.8511,62,120,40
295.85678,295.91928,55,120,40
295.85678,295.91928,62,120,40
295.92496,295.98746,55,120,40
295.92496,295.98746,62,120,40
295.99313,296.0568,55,120,40
295.99313,296.0568,62,120,40
296.0626,296.12625,55,120,40
296.0626,296.12625,62,120,40
296.13202,296.19568,55,120,40
296.13202,296.19568,62,120,40
296.20148,296.26514,55,120,40
296.20148,296.26514,62,120,40
296.2709,296.33456,55,120,40
296.2709,296.33456,62,120,40
296.34036,296.40402,55,120,40
296.34036,296.40402,62,120,40
296.40982,296.47467,55,120,40
296.40982,296.47467,62,120,40
296.48056,296.5454,55,120,40
296.48056,296.5454,62,120,40
296.55133,296.61618,55,120,40
296.55133,296.61618,62,120,40
296.62207,296.68692,55,120,40
296.62207,296.68692,62,120,40
296.69284,296.7577,55,120,40
296.69284,296.7577,62,120,40
296.76358,296.82843,55,120,40
296.76358,296.82843,62,120,40
296.83435,296.90045,55,120,40
296.83435,296.90045,62,120,40
296.90646,296.97256,55,120,40
296.90646,296.97256,62,120,40
296.97858,297.04468,55,120,40
296.97858,297.04468,62,120,40
297.0507,297.1168,55,120,40
297.0507,297.1168,62,120,40
297.1228,297.1889,55,120,40
297.1228,297.1889,62,120,40
297.19492,297.26102,55,120,40
297.19492,297.26102,62,120,40
297.26703,297.33444,55,120,40
297.26703,297.33444,62,120,40
297.34055,297.40796,55,120,40
297.34055,297.40796,62,120,40
297.4141,297.48148,55,120,40
297.4141,297.48148,62,120,40
297.4876,297.55502,55,120,40
297.4876,297.55502,62,120,40
297.56116,297.62854,55,120,40
297.56116,297.62854,62,120,40
297.63467,297.7021,55,120,40
297.63467,297.7021,62,120,40
297.7082,298.16275,56,120,40
297.7082,298.16275,62,120,40
298.16275,299.07184,56,120,40
298.16275,299.07184,62,120,40
299.07184,299.98093,56,120,40
299.07184,299.98093,62,120,40
299.98093,300.42917,56,120,40
299.98093,300.42917,62,120,40
300.4355,300.52475,66,127,40
300.52475,300.6959,62,120,40
300.7926,301.745,64,120,40
301.86404,302.34024,57,127,40
301.86404,302.34024,63,127,40
302.34024,302.81644,57,127,40
302.34024,302.81644,63,127,40
302.81644,303.2926,56,127,40
302.81644,303.2926,62,127,40
303.2926,303.3819,66,127,40
303.3819,303.55304,62,120,40
303.64975,304.60214,64,120,40
304.7212,305.1974,57,127,40
304.7212,305.1974,63,127,40
305.1974,305.67355,57,127,40
305.1974,305.67355,63,127,40
305.67355,306.14975,56,127,40
305.67355,306.14975,62,127,40
306.14975,306.23904,66,127,40
306.23904,306.41016,62,120,40
306.5069,308.70334,64,127,40
309.07834,309.1825,65,127,40
309.1825,309.38214,62,120,40
309.495,311.87,64,127,40
316.5307,316.8804,59,120,40
316.88785,317.4831,59,120,40
317.60214,318.19736,59,120,40
318.3164,319.86328,59,120,40
319.03955,319.86328,59,120,40
319.86328,320.84998,59,120,40
320.84998,322.0525,59,120,40
322.0525,323.3025,59,120,40
323.3025,324.5525,59,120,40
324.5525,325.8025,59,120,40
325.8025,327.0525,59,127,40
327.0525,328.3025,59,127,40
328.3025,329.5525,58,127,40
329.5525,330.8025,58,127,40
330.8025,332.0525,58,127,40
332.0525,332.6775,58,127,40
332.6775,333.3025,55,127,40
333.3025,334.5525,61,120,40
334.5525,335.1775,55,120,40
335.1775,336.4275,61,120,40
336.4275,337.0525,55,120,40
337.0525,337.6775,61,120,40
337.6775,338.3025,55,120,40
338.3025,338.9275,61,120,40
338.9275,339.96915,61,120,40
340.1775,343.615,62,120,40
343.9275,347.365,56,120,40
347.6775,347.8207,69,120,40
347.6775,347.8207,77,120,40
347.83374,347.97696,69,120,40
347.83374,347.97696,77,120,40
347.99,348.1332,69,120,40
347.99,348.1332,77,120,40
348.14624,348.28946,69,120,40
348.14624,348.28946,77,120,40
348.3025,348.4457,69,120,40
348.3025,348.4457,77,120,40
348.45874,348.60196,69,120,40
348.45874,348.60196,77,120,40
348.615,348.7582,69,120,40
348.615,348.7582,77,120,40
348.77124,348.91446,69,120,40
348.77124,348.91446,77,120,40
348.9275,349.0707,69,120,40
348.9275,349.0707,77,120,40
349.08374,349.22696,69,120,40
349.08374,349.22696,77,120,40
349.24,349.3832,69,120,40
349.24,349.3832,77,120,40
349.39624,349.53946,69,120,40
349.39624,349.53946,77,120,40
349.5525,349.6957,69,120,40
349.5525,349.6957,77,120,40
349.70874,349.85196,69,120,40
349.70874,349.85196,77,120,40
349.865,350.0082,69,120,40
349.865,350.0082,77,120,40
350.02124,350.16446,69,120,40
350.02124,350.16446,77,120,40
350.1775,350.3207,71,120,40
350.33374,350.47696,71,120,40
350.49,350.6332,71,120,40
350.64624,350.78946,71,120,40
350.8025,350.9457,66,120,40
350.95874,351.10196,66,120,40
351.115,351.2582,66,120,40
351.27124,351.41446,66,120,40
351.4275,351.5707,69,120,40
351.4275,351.5707,77,120,40
351.58374,351.72696,69,120,40
351.58374,351.72696,77,120,40
351.74,351.8832,69,120,40
351.74,351.8832,77,120,40
351.89624,352.03946,69,120,40
351.89624,352.03946,77,120,40
352.0525,352.1957,69,120,40
352.0525,352.1957,77,120,40
352.20874,352.35196,69,120,40
352.20874,352.35196,77,120,40
352.365,352.5082,69,120,40
352.365,352.5082,77,120,40
352.52124,352.66446,69,120,40
352.52124,352.66446,77,120,40
352.6775,352.8207,69,120,40
352.6775,352.8207,77,120,40
352.83374,352.9733,69,120,40
352.83374,352.9733,77,120,40
352.9858,353.12332,69,120,40
352.9858,353.12332,77,120,40
353.1358,353.27332,69,120,40
353.1358,353.27332,77,120,40
353.2858,353.4233,69,120,40
353.2858,353.4233,77,120,40
353.43582,353.5733,69,120,40
353.43582,353.5733,77,120,40
353.58582,353.7233,69,120,40
353.58582,353.7233,77,120,40
353.7358,353.87332,69,120,40
353.7358,353.87332,77,120,40
353.8858,354.02332,71,120,40
354.0358,354.1733,71,120,40
354.18582,354.32187,71,120,40
354.3339,354.4661,71,120,40
354.47812,354.61032,66,120,40
354.62234,354.75455,66,120,40
354.76657,354.8988,66,120,40
354.9108,355.04303,66,120,40
355.05505,355.18726,69,120,40
355.05505,355.18726,77,120,40
355.19928,355.33148,69,120,40
355.19928,355.33148,77,120,40
355.3435,355.4757,69,120,40
355.3435,355.4757,77,120,40
355.48773,355.61993,69,120,40
355.48773,355.61993,77,120,40
355.63196,355.75928,69,120,40
355.63196,355.75928,77,120,40
355.77084,355.89816,69,120,40
355.77084,355.89816,77,120,40
355.90973,356.03705,69,120,40
355.90973,356.03705,77,120,40
356.04865,356.17593,69,120,40
356.04865,356.17593,77,120,40
356.18753,356.31482,69,120,40
356.18753,356.31482,77,120,40
356.32642,356.45374,69,120,40
356.32642,356.45374,77,120,40
356.4653,356.59262,69,120,40
356.4653,356.59262,77,120,40
356.6042,356.7315,69,120,40
356.6042,356.7315,77,120,40
356.74307,356.8704,69,120,40
356.74307,356.8704,77,120,40
356.88196,357.00638,69,120,40
356.88196,357.00638,77,120,40
357.01755,357.14032,69,120,40
357.01755,357.14032,77,120,40
357.1515,357.27423,69,120,40
357.1515,357.27423,77,120,40
357.2854,357.40817,69,120,40
357.2854,357.40817,77,120,40
357.41934,357.5421,69,120,40
357.41934,357.5421,77,120,40
357.55325,357.67603,69,120,40
357.55325,357.67603,77,120,40
357.6872,357.80997,69,120,40
357.6872,357.80997,77,120,40
357.8211,357.94388,69,120,40
357.8211,357.94388,77,120,40
357.95505,358.07782,69,120,40
357.95505,358.07782,77,120,40
358.089,358.2106,69,120,40
358.089,358.2106,77,120,40
358.22137,358.3399,69,120,40
358.22137,358.3399,77,120,40
358.35068,358.4692,69,120,40
358.35068,358.4692,77,120,40
358.47998,358.5985,69,120,40
358.47998,358.5985,77,120,40
358.60928,358.7278,69,120,40
358.60928,358.7278,77,120,40
358.73862,358.85715,69,120,40
358.73862,358.85715,77,120,40
358.86792,358.98645,69,120,40
358.86792,358.98645,77,120,40
358.99722,359.11575,69,120,40
358.99722,359.11575,77,120,40
359.12653,359.24506,69,120,40
359.12653,359.24506,77,120,40
359.25586,359.3744,69,120,40
359.25586,359.3744,77,120,40
359.38516,362.13516,78,120,40
362.38516,362.88516,66,120,40
362.88516,363.37473,68,120,40
363.38516,363.63516,70,120,40
363.63516,364.13516,78,120,40
364.13516,364.87473,90,120,40
368.88516,369.38516,66,120,40
369.38516,369.88516,65,120,40
369.88516,370.38516,66,120,40
370.38516,370.88516,65,120,40
370.88516,371.37473,63,120,40
371.38516,371.88516,61,120,40
371.88516,372.37473,63,120,40
372.38516,372.63516,65,120,40
372.63516,372.67682,66,120,40
372.67682,372.71848,67,120,40
372.71848,372.76016,68,120,40
372.76016,372.80182,69,120,40
372.80182,372.84348,70,120,40
372.84348,372.88516,71,120,40
372.88516,373.37473,72,120,40
373.38516,373.71848,71,120,40
373.71848,374.05182,65,120,40
374.05182,374.37473,61,120,40
374.38516,381.76672,59,120,40
381.9641,384.4641,58,120,40
384.4641,385.7141,57,120,40
385.7141,386.9641,59,120,40
386.9641,389.1516,58,120,40
389.4641,390.7141,57,120,40
390.7141,391.9641,59,120,40
391.9641,393.10046,58,120,40
397.6524,398.5899,60,120,40
398.5899,398.9024,59,120,40
398.9024,399.9441,58,120,40
405.1524,405.36075,56,127,40
405.7774,407.4441,56,120,40
414.34827,414.44733,78,120,40
414.45624,414.55414,78,120,40
414.56296,414.65967,78,120,40
414.66833,414.76382,78,120,40
414.77252,414.8667,78,120,40
414.87524,414.96832,78,120,40
414.97678,415.0688,78,120,40
415.07712,415.16812,78,120,40
415.17633,415.26633,78,120,40
415.27444,415.36346,78,120,40
415.3715,415.45953,78,120,40
415.46744,415.55444,78,120,40
415.56238,415.64832,78,120,40
415.65613,415.74207,78,120,40
415.74988,415.83582,78,120,40
415.84363,415.92957,78,120,40
415.93738,416.02332,78,120,40
416.03113,416.11707,78,120,40
416.12488,416.21082,78,120,40
416.21863,416.30457,78,120,40
416.31238,416.39832,78,120,40
416.40613,416.49207,78,120,40
416.49988,416.58582,78,120,40
416.59363,416.67957,78,120,40
416.68738,416.77332,78,120,40
416.78113,416.86707,78,120,40
416.87488,416.96082,78,120,40
416.96863,417.05457,78,120,40
417.06238,417.14832,78,120,40
417.15613,417.24207,78,120,40
417.24988,417.33582,78,120,40
417.34363,417.42957,78,120,40
417.43738,417.5238,66,120,40
417.5317,417.62036,66,120,40
417.62848,417.71948,66,120,40
417.72784,417.82132,66,120,40
417.82986,417.92596,66,120,40
417.93478,418.03363,66,120,40
418.0427,418.14447,66,120,40
418.1538,418.2587,66,120,40
418.2683,418.37653,61,120,40
418.38644,418.49814,61,120,40
418.5084,418.62387,61,120,40
418.63446,418.75394,61,120,40
418.7649,418.88867,58,120,40
418.90005,419.02844,58,120,40
419.04025,419.17365,58,120,40
419.18588,419.32468,58,120,40
419.33743,419.48065,61,120,40
419.49368,419.6369,61,120,40
419.64993,419.79315,61,120,40
419.80618,419.9494,61,120,40
419.96243,420.11868,61,120,40
420.11868,420.27493,61,120,40
420.27493,420.43118,61,120,40
420.43118,420.58743,61,120,40
420.58743,420.74368,61,120,40
420.74368,420.89993,61,120,40
420.89993,421.05618,61,120,40
421.05618,421.21243,61,120,40
421.21243,421.36868,61,120,40
421.36868,421.52493,61,120,40
421.52493,421.68118,61,120,40
421.68118,421.83743,61,120,40
421.83743,421.99368,61,120,40
421.99368,422.14993,61,120,40
422.14993,422.30618,61,120,40
422.30618,422.46243,61,120,40
422.46243,422.61868,61,120,40
422.61868,422.77493,61,120,40
422.77493,422.93118,61,120,40
422.93118,423.08743,61,120,40
423.08743,423.24368,61,120,40
423.24368,423.39993,61,120,40
423.39993,423.55618,61,120,40
423.55618,423.71243,61,120,40
424.96243,425.12546,59,120,40
425.12546,425.2885,59,120,40
425.2885,425.45157,59,120,40
425.45157,425.6146,59,120,40
425.6146,425.77765,61,120,40
425.77765,425.94067,61,120,40
425.94067,426.10373,61,120,40
426.10373,426.26678,61,120,40
426.26678,426.4298,61,120,40
426.4298,426.59286,61,120,40
426.59286,426.75836,61,120,40
426.75836,426.92883,61,120,40
430.4245,431.6745,63,120,40
431.6745,432.9245,61,120,40
432.9245,435.112,61,120,40
435.4245,436.6745,80,127,40
436.6745,437.2995,78,127,40
437.2995,437.9245,80,127,40
437.9245,439.1745,73,127,40
439.1745,440.4245,78,127,40
440.4245,441.96396,87,120,40
441.96396,443.67966,85,120,40
443.67966,448.97794,90,120,40
14.999996,16.13636,57,120,45
14.999996,16.13636,64,120,45
270.97693,271.02902,55,120,45
271.03943,271.87277,62,120,45
271.03943,271.87277,69,120,45
273.97693,274.03943,55,120,45
274.03943,274.90402,62,120,45
274.03943,274.90402,69,120,45
274.97693,275.02902,55,120,45
275.03943,275.52902,63,120,45
275.03943,275.52902,70,120,45
411.4024,412.4441,58,120,45
0.0,4.772726,57,112,41
4.772726,5.4403396,55,112,41
5.454544,10.22727,57,112,41
10.22727,11.363633,55,112,41
11.363633,11.818179,57,112,41
11.818179,12.272724,55,112,41
12.272724,13.63636,52,112,41
13.63636,14.318178,50,112,41
14.318178,17.386358,57,112,41
20.909084,21.136358,54,127,41
21.590902,23.409084,51,112,41
26.363628,26.590902,54,127,41
27.045446,28.863628,51,112,41
34.99999,35.10331,76,112,41
35.112637,35.21525,76,112,41
35.22458,35.32719,76,112,41
35.336517,35.43913,76,112,41
35.448456,35.551003,76,112,41
35.560192,35.661297,76,112,41
35.670486,35.771587,76,112,41
35.78078,35.88188,76,112,41
35.891075,35.992176,76,112,41
36.00137,36.10147,76,112,41
36.11053,36.210167,76,112,41
36.219227,36.318863,76,112,41
36.327923,36.42756,76,112,41
36.436615,36.535995,76,112,41
36.544926,36.64314,76,112,41
36.652065,36.750282,76,112,41
36.75921,36.857426,76,112,41
36.866352,36.964565,76,112,41
36.973495,37.07064,76,112,41
37.079445,37.176273,76,112,41
37.185078,37.28191,76,112,41
37.29071,37.387543,76,112,41
37.396343,37.49275,76,112,41
37.501427,37.596912,76,112,41
37.605595,37.70108,76,112,41
37.709763,37.80525,76,112,41
37.813927,37.909412,76,112,41
37.918095,38.01239,76,112,41
38.020954,38.11513,71,112,41
38.12369,38.217873,71,112,41
38.226433,38.32061,71,112,41
38.32917,38.42283,71,112,41
38.431274,38.52418,68,112,41
38.532627,38.62553,68,112,41
38.63398,38.726883,68,112,41
38.73533,38.828236,68,112,41
38.83668,38.9288,64,112,41
38.937244,39.03125,64,112,41
39.039932,39.13609,64,112,41
39.144894,39.24343,64,112,41
39.25249,39.353127,59,112,41
39.362457,39.465775,59,112,41
39.475243,39.581097,59,112,41
39.590862,39.69929,59,112,41
39.70921,39.82076,56,112,41
39.831005,39.945335,56,112,41
39.95593,40.07346,56,112,41
40.084236,40.20534,56,112,41
40.216503,40.340794,52,112,41
40.352367,40.480774,52,112,41
40.492565,40.62491,52,112,41
40.637165,40.77356,52,112,41
40.78606,40.94231,53,112,41
40.956516,41.112766,53,112,41
41.126972,41.283222,53,112,41
41.297424,41.453674,53,112,41
41.46788,41.62413,53,112,41
41.638332,41.794582,53,112,41
41.80879,41.96504,53,112,41
41.979244,42.135494,53,112,41
42.149696,42.305946,53,112,41
42.320152,42.476402,53,112,41
42.49061,42.64686,53,112,41
42.66106,42.81731,53,112,41
42.831516,42.987766,53,112,41
43.00197,43.15822,53,112,41
43.172424,43.328674,53,112,41
43.34288,43.49913,53,112,41
43.513332,43.669582,53,112,41
43.68379,43.84004,53,112,41
43.854244,44.010494,53,112,41
44.024696,44.180946,53,112,41
44.195152,44.351402,53,112,41
44.365604,44.521854,53,112,41
44.53606,44.69231,53,112,41
44.706516,44.862766,53,112,41
44.87697,45.03322,53,112,41
45.047424,45.203674,53,112,41
45.21788,45.374126,53,112,41
45.388332,45.544582,53,112,41
45.55879,45.71504,53,112,41
45.72924,45.88549,53,112,41
45.899696,46.055946,53,112,41
46.070152,46.226402,53,112,41
46.240604,46.396854,53,112,41
46.41106,46.56731,53,112,41
46.581516,46.737762,53,112,41
46.75197,46.90822,53,112,41
46.922424,47.078674,53,112,41
47.092876,47.249126,53,112,41
47.263332,47.419582,53,112,41
47.43379,47.59004,53,112,41
47.60424,47.76049,53,112,41
47.774696,47.930946,53,112,41
47.94515,48.1014,53,112,41
48.115604,48.271854,53,112,41
48.28606,48.44231,53,112,41
48.456512,48.612762,53,112,41
48.62697,48.78322,53,112,41
48.797424,48.953674,53,112,41
48.967876,49.63549,53,112,41
53.058784,54.42242,59,112,41
54.42242,55.558784,61,112,41
57.831512,60.558784,70,112,41
60.558784,61.69515,66,112,41
61.92242,64.64969,73,112,41
64.64969,66.01333,70,112,41
66.01333,68.058784,65,112,41
68.058784,68.7406,63,112,41
68.7406,69.42242,65,112,41
69.42242,70.10423,61,112,41
70.10423,73.49912,63,112,41
73.51333,74.195145,63,112,41
74.195145,74.945145,66,112,41
74.945145,75.695145,68,112,41
75.695145,77.195145,65,112,41
77.195145,78.052284,63,112,41
78.052284,78.89157,68,112,41
78.90943,81.6367,70,112,41
81.6367,83.000336,64,112,41
83.000336,84.363976,65,112,41
81.6367,84.363976,69,112,41
84.363976,87.09125,70,112,41
87.09125,88.22761,64,112,41
88.45488,89.59124,65,112,41
87.09125,89.59124,69,112,41
90.500336,91.18215,70,112,41
91.18215,91.86397,73,112,41
91.86397,92.531586,75,112,41
92.54579,95.045784,77,112,41
95.27306,95.95488,75,112,41
95.95488,96.62249,73,112,41
96.636696,97.09124,70,112,41
97.09124,97.545784,73,112,41
97.545784,97.98613,77,112,41
98.000336,100.045784,75,112,41
100.045784,100.7134,77,112,41
100.72761,101.409424,73,112,41
101.409424,102.09124,70,112,41
102.09124,103.45488,80,112,41
103.45488,104.136696,78,112,41
104.136696,104.81851,75,112,41
104.81851,105.50033,71,112,41
105.50033,106.18215,66,112,41
106.18215,107.68215,65,112,41
107.68215,110.03929,63,112,41
110.03929,110.87858,61,112,41
110.89643,113.6237,59,112,41
110.89643,113.6237,65,112,41
113.6237,116.350975,56,112,41
113.6237,116.350975,62,112,41
116.350975,119.07825,59,112,41
116.350975,119.07825,65,112,41
119.07825,121.80552,56,112,41
119.07825,121.80552,62,112,41
121.80552,122.94189,59,112,41
121.80552,122.94189,65,112,41
124.53279,125.66916,61,112,41
125.89643,128.6237,68,112,41
128.6237,129.76007,70,112,41
129.98734,132.71461,68,112,41
132.71461,133.73734,66,112,41
133.73734,134.07825,73,112,41
134.07825,136.1237,73,112,41
136.1237,136.80551,75,112,41
136.80551,137.48734,70,112,41
137.48734,138.15495,75,112,41
138.16916,138.6237,73,127,41
138.6237,139.07825,71,112,41
139.07825,139.53279,70,112,41
139.53279,141.35097,70,112,41
141.57825,142.26006,70,112,41
142.26006,143.6237,73,112,41
143.6237,145.44188,71,112,41
145.66916,146.35097,70,112,41
146.35097,147.7146,70,112,41
147.7146,149.89317,68,112,41
149.89317,150.62755,66,112,41
150.64317,151.325,65,112,41
151.325,152.0068,68,112,41
152.0068,152.68863,70,112,41
152.68863,153.37045,77,112,41
153.37045,153.825,75,112,41
153.825,154.27954,73,112,41
154.27954,154.71988,68,112,41
154.73409,155.41591,65,112,41
155.41591,156.09772,68,112,41
156.09772,156.77954,70,112,41
156.77954,157.46135,77,112,41
157.46135,157.73409,75,127,41
157.73409,158.0068,73,127,41
158.0068,158.27954,75,127,41
158.27954,158.55226,73,127,41
158.55226,158.81363,68,127,41
158.825,159.5068,65,112,41
159.5068,160.18863,66,112,41
160.18863,160.87045,67,112,41
160.87045,161.55226,68,112,41
161.55226,162.23409,69,112,41
162.23409,162.9159,70,112,41
162.9159,163.2568,71,112,41
163.2568,163.59772,72,112,41
163.59772,163.93863,73,112,41
163.93863,164.27954,74,112,41
164.27954,164.96135,77,112,41
164.96135,165.64317,70,112,41
165.64317,167.0068,72,112,41
167.0068,167.68863,73,112,41
167.68863,168.37044,77,112,41
168.37044,169.05226,77,112,41
169.05226,169.27954,75,112,41
169.27954,169.5068,77,112,41
169.5068,169.73409,75,112,41
169.73409,170.4159,72,112,41
170.4159,171.09772,70,112,41
171.09772,171.79036,66,112,41
171.79036,172.52846,58,112,41
172.52846,174.1074,58,112,41
174.1074,175.68634,60,112,41
175.68634,177.26529,61,112,41
177.26529,179.99257,70,112,41
179.99257,181.12892,66,112,41
181.3562,184.08348,73,112,41
184.08348,185.44711,70,112,41
185.44711,187.49257,65,112,41
187.49257,188.17438,63,112,41
188.17438,188.8562,65,112,41
188.8562,189.53802,61,112,41
189.53802,191.3562,63,112,41
191.58347,194.29654,66,112,41
204.53801,206.92438,49,112,41
212.1354,212.2247,66,112,41
212.2247,212.34375,61,112,41
212.49255,212.84225,62,112,41
213.31845,213.7872,56,112,41
214.25595,214.7247,56,112,41
218.11118,218.20045,73,112,41
218.20045,218.28975,76,112,41
218.28975,218.37903,73,112,41
218.37903,218.46832,76,112,41
218.46832,218.5576,73,112,41
218.5576,218.6469,76,112,41
218.6469,218.73618,73,112,41
218.73618,218.82545,76,112,41
218.82545,218.91475,73,112,41
218.91475,219.00403,76,112,41
219.00403,219.09332,73,112,41
219.09332,219.1826,76,112,41
219.1826,219.27188,73,112,41
219.27188,219.36118,76,112,41
219.36118,219.45045,73,112,41
219.45045,219.5323,76,112,41
219.53975,219.62903,75,112,41
219.62903,219.71832,76,112,41
219.71832,219.8076,75,112,41
219.8076,219.89688,76,112,41
219.89688,219.98618,75,112,41
219.98618,220.07545,76,112,41
220.07545,220.16475,75,112,41
220.16475,220.2466,76,112,41
220.25403,220.34332,69,127,41
220.34332,220.4326,71,112,41
220.4326,220.52188,69,112,41
220.52188,220.61118,71,112,41
220.61118,220.70045,69,112,41
220.70045,220.78975,71,112,41
220.78975,220.87903,69,112,41
220.87903,220.96088,71,112,41
220.96832,221.0576,73,112,41
221.0576,221.14688,76,112,41
221.14688,221.23618,73,112,41
221.23618,221.32545,76,112,41
221.32545,221.41475,73,112,41
221.41475,221.50403,76,112,41
221.50403,221.5933,73,112,41
221.5933,221.67516,76,112,41
221.6826,221.78468,73,112,41
221.78468,221.88678,76,112,41
221.88678,221.98886,73,112,41
221.98886,222.09094,71,112,41
222.09094,222.19304,69,112,41
222.19304,222.29512,67,112,41
222.29512,222.39607,64,112,41
222.3972,222.4865,61,112,41
222.4865,222.57578,64,112,41
222.57578,222.66505,61,112,41
222.66505,222.75435,64,112,41
222.75435,222.84363,61,112,41
222.84363,222.93292,64,112,41
222.93292,223.0222,61,112,41
223.0222,223.1115,64,112,41
223.1115,223.20078,61,112,41
223.20078,223.29005,64,112,41
223.29005,223.37935,61,112,41
223.37935,223.46863,64,112,41
223.46863,223.55792,61,112,41
223.55792,223.6472,64,112,41
223.6472,223.7365,61,112,41
223.7365,223.81833,64,112,41
223.82578,223.91505,63,112,41
223.91505,224.00435,64,112,41
224.00435,224.09363,63,112,41
224.09363,224.18292,64,112,41
224.18292,224.2722,63,112,41
224.2722,224.36148,64,112,41
224.36148,224.45078,63,112,41
224.45078,224.53262,64,112,41
224.54005,224.62935,57,112,41
224.62935,224.71863,59,112,41
224.71863,224.80792,57,112,41
224.80792,224.8972,59,112,41
224.8972,224.98648,57,112,41
224.98648,225.07578,59,112,41
225.07578,225.16505,57,112,41
225.16505,225.2469,59,112,41
225.25435,225.34363,61,112,41
225.34363,225.43292,64,112,41
225.43292,225.5222,61,112,41
225.5222,225.61148,64,112,41
225.61148,225.70078,61,112,41
225.70078,225.79005,64,112,41
225.79005,225.87935,61,112,41
225.87935,225.96118,64,112,41
225.96863,226.07071,61,112,41
226.07071,226.1728,64,112,41
226.1728,226.27489,61,112,41
226.27489,226.37697,59,112,41
226.37697,226.47906,57,112,41
226.47906,226.58115,55,112,41
226.58115,226.6821,52,112,41
226.68323,226.77252,49,112,41
226.77252,226.8618,52,112,41
226.8618,226.9511,49,112,41
226.9511,227.04037,52,112,41
227.04037,227.12965,49,112,41
227.12965,227.21895,52,112,41
227.21895,227.30823,49,112,41
227.30823,227.39752,52,112,41
227.39752,227.4868,49,112,41
227.4868,227.5761,52,112,41
227.5761,227.66537,49,112,41
227.66537,227.75465,52,112,41
227.75465,227.84395,49,112,41
227.84395,227.93323,52,112,41
227.93323,228.02252,49,112,41
228.02252,228.1118,52,112,41
228.1118,228.4615,49,112,41
231.2118,231.30109,63,127,41
231.30109,231.42014,58,112,41
231.56894,231.91864,59,112,41
232.39484,232.86359,53,112,41
233.33234,233.80109,53,112,41
237.18756,237.27686,70,112,41
237.27686,237.36613,73,112,41
237.36613,237.45541,70,112,41
237.45541,237.54471,73,112,41
237.54471,237.63399,70,112,41
237.63399,237.72328,73,112,41
237.72328,237.81256,70,112,41
237.81256,237.90186,73,112,41
237.90186,237.99113,70,112,41
237.99113,238.08041,73,112,41
238.08041,238.16971,70,112,41
238.16971,238.25899,73,112,41
238.25899,238.34828,70,112,41
238.34828,238.43756,73,112,41
238.43756,238.52684,70,112,41
238.52684,238.60869,73,112,41
238.61613,238.70541,72,112,41
238.70541,238.79471,73,112,41
238.79471,238.88399,72,112,41
238.88399,238.97328,73,112,41
238.97328,239.06256,72,112,41
239.06256,239.15184,73,112,41
239.15184,239.24113,72,112,41
239.24113,239.32298,73,112,41
239.33041,239.41971,66,127,41
239.41971,239.50899,68,112,41
239.50899,239.59828,66,112,41
239.59828,239.68756,68,112,41
239.68756,239.77684,66,112,41
239.77684,239.86613,68,112,41
239.86613,239.95541,66,112,41
239.95541,240.03726,68,112,41
240.04471,240.13399,70,112,41
240.13399,240.22328,73,112,41
240.22328,240.31256,70,112,41
240.31256,240.40184,73,112,41
240.40184,240.49113,70,112,41
240.49113,240.58041,73,112,41
240.58041,240.66971,70,112,41
240.66971,240.75154,73,112,41
240.75899,240.86107,70,112,41
240.86107,240.96317,73,112,41
240.96317,241.06525,70,112,41
241.06525,241.16733,68,112,41
241.16733,241.26942,66,112,41
241.26942,241.3715,64,112,41
241.3715,241.47246,61,112,41
241.47359,241.56288,58,112,41
241.56288,241.65216,61,112,41
241.65216,241.74146,58,112,41
241.74146,241.83073,61,112,41
241.83073,241.92001,58,112,41
241.92001,242.00931,61,112,41
242.00931,242.09859,58,112,41
242.09859,242.18788,61,112,41
242.18788,242.27716,58,112,41
242.27716,242.36646,61,112,41
242.36646,242.45573,58,112,41
242.45573,242.54501,61,112,41
242.54501,242.63431,58,112,41
242.63431,242.72359,61,112,41
242.72359,242.81288,58,112,41
242.81288,242.89471,61,112,41
242.90216,242.99146,60,112,41
242.99146,243.08073,61,112,41
243.08073,243.17001,60,112,41
243.17001,243.25931,61,112,41
243.25931,243.34859,60,112,41
243.34859,243.43788,61,112,41
243.43788,243.52716,60,112,41
243.52716,243.60901,61,112,41
243.61644,243.70573,54,127,41
243.70573,243.79501,56,112,41
243.79501,243.88431,54,112,41
243.88431,243.97359,56,112,41
243.97359,244.06288,54,112,41
244.06288,244.15216,56,112,41
244.15216,244.24144,54,112,41
244.24144,244.32329,56,112,41
244.33073,244.42001,58,112,41
244.42001,244.50931,61,112,41
244.50931,244.59859,58,112,41
244.59859,244.68788,61,112,41
244.68788,244.77716,58,112,41
244.77716,244.86644,61,112,41
244.86644,244.95573,58,112,41
244.95573,245.03758,61,112,41
245.04501,245.09264,58,112,41
245.09264,245.14026,58,112,41
245.14026,245.16406,58,112,41
245.16406,245.21169,61,112,41
245.21169,245.25931,61,112,41
245.25931,245.28311,61,112,41
245.28311,245.33073,58,112,41
245.33073,245.37836,58,112,41
245.37836,245.40216,58,112,41
245.40216,245.44978,56,112,41
245.44978,245.49739,56,112,41
245.49739,245.52121,56,112,41
245.52121,245.56883,54,112,41
245.56883,245.61644,54,112,41
245.61644,245.64026,54,112,41
245.64026,245.68588,52,112,41
245.68787,245.7335,52,112,41
245.73549,245.75732,52,112,41
245.75931,245.84114,48,112,41
245.84859,245.93044,48,112,41
245.93787,246.01971,48,112,41
246.02716,246.10901,48,112,41
246.11644,246.19829,48,112,41
246.20573,246.28758,48,112,41
246.29501,246.37686,48,112,41
246.38431,246.46614,48,112,41
246.47359,246.55544,48,112,41
246.56287,246.64471,48,112,41
246.65216,246.73401,48,112,41
246.74144,246.82329,48,112,41
246.83073,246.91257,48,112,41
246.92001,247.00186,48,112,41
247.00931,247.09114,48,112,41
247.09859,247.18044,48,112,41
247.18787,247.53757,48,112,41
248.65216,250.2593,72,127,41
248.65216,250.85901,84,127,41
258.61646,260.61646,76,112,41
260.61646,261.61646,72,112,41
261.61646,263.61646,79,112,41
263.61646,264.61646,76,112,41
264.61646,266.27338,71,112,41
266.27338,266.83942,69,112,41
266.83942,267.43942,71,112,41
267.43942,268.02692,67,112,41
268.03943,268.16443,69,112,41
268.16443,268.28943,62,112,41
268.28943,268.41443,55,112,41
268.41443,268.52902,48,112,41
268.53943,268.66443,48,112,41
268.66443,268.78943,55,112,41
268.78943,268.91443,62,112,41
268.91443,269.02902,69,112,41
269.03943,269.16443,71,112,41
269.16443,269.28943,64,112,41
269.28943,269.41443,55,112,41
269.41443,269.52902,48,112,41
269.53943,269.66443,48,112,41
269.66443,269.78943,55,112,41
269.78943,269.91443,64,112,41
269.91443,270.02902,71,112,41
270.03943,270.16443,70,112,41
270.16443,270.28943,63,112,41
270.28943,270.41443,55,112,41
270.41443,270.52902,48,112,41
270.53943,270.66443,48,112,41
270.66443,270.78943,55,112,41
270.78943,270.91443,63,112,41
270.91443,271.02902,70,112,41
271.03943,271.16443,69,112,41
271.16443,271.28943,62,112,41
271.28943,271.41443,55,112,41
271.41443,271.52902,48,112,41
271.53943,271.66443,48,112,41
271.66443,271.78943,55,112,41
271.78943,271.91443,62,112,41
271.91443,272.02902,69,112,41
272.03943,272.16443,71,112,41
272.16443,272.28943,64,112,41
272.28943,272.41443,55,112,41
272.41443,272.52902,48,112,41
272.53943,272.66443,48,112,41
272.66443,272.78943,55,112,41
272.78943,272.91443,64,112,41
272.91443,273.02902,71,112,41
273.03943,273.16443,70,112,41
273.16443,273.28943,63,112,41
273.28943,273.41443,55,112,41
273.41443,273.52902,48,112,41
273.53943,273.66443,48,112,41
273.66443,273.78943,55,112,41
273.78943,273.91443,63,112,41
273.91443,274.02902,70,112,41
274.03943,274.16443,69,112,41
274.16443,274.28943,62,112,41
274.28943,274.41443,55,112,41
274.41443,274.52902,48,112,41
274.53943,274.66443,48,112,41
274.66443,274.78943,55,112,41
274.78943,274.91443,62,112,41
274.91443,275.02902,69,112,41
275.03943,275.16443,70,112,41
275.16443,275.28943,63,112,41
275.28943,275.41443,55,112,41
275.41443,275.52902,48,112,41
275.53943,275.66443,48,112,41
275.66443,275.78943,55,112,41
275.78943,275.91443,63,112,41
275.91443,276.02902,70,112,41
276.03943,276.16443,70,112,41
276.16443,276.28943,63,112,41
276.28943,276.41443,55,112,41
276.41443,276.52902,48,112,41
276.53943,276.66443,48,112,41
276.66443,276.78943,55,112,41
276.78943,276.91443,63,112,41
276.91443,277.02902,70,112,41
277.03943,277.16443,70,112,41
277.16443,277.28943,63,112,41
277.28943,277.41443,55,112,41
277.41443,277.52902,48,112,41
277.53943,277.66443,48,112,41
277.66443,277.78943,55,112,41
277.78943,277.91443,63,112,41
277.91443,278.02902,70,112,41
278.03943,278.12872,70,112,41
278.12872,278.218,64,112,41
278.218,278.30728,58,112,41
278.30728,278.38913,49,112,41
278.39658,278.48584,49,112,41
278.48584,278.57513,58,112,41
278.57513,278.66443,64,112,41
278.66443,278.74628,70,112,41
278.75372,278.843,70,112,41
278.843,278.93228,64,112,41
278.93228,279.02158,58,112,41
279.02158,279.10342,49,112,41
279.11084,279.20013,49,112,41
279.20013,279.28943,58,112,41
279.28943,279.37872,64,112,41
279.37872,279.46054,70,112,41
279.468,279.55728,70,112,41
279.55728,279.64658,64,112,41
279.64658,279.73584,58,112,41
279.73584,279.8177,48,112,41
279.82513,279.91443,48,112,41
279.91443,280.00372,58,112,41
280.00372,280.093,64,112,41
280.093,280.17484,70,112,41
280.18228,280.27158,70,112,41
280.27158,280.36084,64,112,41
280.36084,280.45013,58,112,41
280.45013,280.53198,48,112,41
280.53943,280.62872,48,112,41
280.62872,280.718,58,112,41
280.718,280.80728,64,112,41
280.80728,280.88913,70,112,41
280.89658,280.98584,70,112,41
280.98584,281.07513,64,112,41
281.07513,281.16443,58,112,41
281.16443,281.24628,48,112,41
281.25372,281.343,48,112,41
281.343,281.43228,58,112,41
281.43228,281.52158,64,112,41
281.52158,281.60342,70,112,41
281.61084,281.70013,70,112,41
281.70013,281.78943,64,112,41
281.78943,281.87872,58,112,41
281.87872,281.96054,49,112,41
281.968,282.05728,49,112,41
282.05728,282.14658,58,112,41
282.14658,282.23584,64,112,41
282.23584,282.3177,70,112,41
282.32513,282.41443,70,112,41
282.41443,282.5037,64,112,41
282.5037,282.593,58,112,41
282.593,282.67484,49,112,41
282.68228,282.77158,49,112,41
282.77158,282.86084,58,112,41
282.86084,282.95013,64,112,41
282.95013,283.03198,70,112,41
283.03943,283.1287,70,112,41
283.1287,283.218,64,112,41
283.218,283.30728,58,112,41
283.30728,283.38913,48,112,41
283.39658,283.48584,48,112,41
283.48584,283.57513,58,112,41
283.57513,283.66443,64,112,41
283.66443,283.74628,70,112,41
283.7537,283.843,70,112,41
283.843,283.93228,64,112,41
283.93228,284.02158,58,112,41
284.02158,284.1034,48,112,41
284.11084,284.20013,48,112,41
284.20013,284.28943,58,112,41
284.28943,284.3787,64,112,41
284.3787,284.46054,70,112,41
284.468,284.55728,70,112,41
284.55728,284.64658,64,112,41
284.64658,284.73584,58,112,41
284.73584,284.8177,48,112,41
284.82513,284.91443,48,112,41
284.91443,285.0037,58,112,41
285.0037,285.093,64,112,41
285.093,285.17484,70,112,41
285.18228,285.27158,70,112,41
285.27158,285.36084,64,112,41
285.36084,285.45013,58,112,41
285.45013,285.53198,49,112,41
285.53943,285.6287,49,112,41
285.6287,285.718,58,112,41
285.718,285.80728,64,112,41
285.80728,285.88913,70,112,41
285.89658,285.98584,70,112,41
285.98584,286.07513,64,112,41
286.07513,286.16443,58,112,41
286.16443,286.24628,49,112,41
286.2537,286.343,49,112,41
286.343,286.43228,58,112,41
286.43228,286.52155,64,112,41
286.52155,286.6034,70,112,41
286.61084,286.70013,70,112,41
286.70013,286.78943,64,112,41
286.78943,286.8787,58,112,41
286.8787,286.96054,48,112,41
286.968,287.05728,48,112,41
287.05728,287.14655,58,112,41
287.14655,287.23584,64,112,41
287.23584,287.3177,70,112,41
287.32513,287.41443,70,112,41
287.41443,287.5037,64,112,41
287.5037,287.593,58,112,41
287.593,287.67484,48,112,41
287.68228,287.77155,48,112,41
287.77155,287.86084,58,112,41
287.86084,287.95013,64,112,41
287.95013,288.03198,70,112,41
288.03943,288.1287,70,112,41
288.1287,288.218,64,112,41
288.218,288.30728,58,112,41
288.30728,288.38913,49,112,41
288.39655,288.48584,49,112,41
288.48584,288.57513,58,112,41
288.57513,288.66443,64,112,41
288.66443,288.74625,70,112,41
288.7537,288.843,70,112,41
288.843,288.93228,64,112,41
288.93228,289.02155,58,112,41
289.02155,289.1034,49,112,41
289.11084,289.20013,49,112,41
289.20013,289.28943,58,112,41
289.28943,289.3787,64,112,41
289.3787,289.46054,70,112,41
289.468,289.55728,70,112,41
289.55728,289.64655,64,112,41
289.64655,289.73584,58,112,41
289.73584,289.8177,49,112,41
289.82513,289.91443,49,112,41
289.91443,290.0037,58,112,41
290.0037,290.093,64,112,41
290.093,290.17484,70,112,41
290.18228,290.27155,70,112,41
290.27155,290.36084,64,112,41
290.36084,290.45013,58,112,41
290.45013,290.53198,49,112,41
290.53943,290.6287,49,112,41
290.6287,290.718,58,112,41
290.718,290.80728,64,112,41
290.80728,290.88913,70,112,41
290.89655,290.97592,55,112,41
290.97592,291.0553,62,112,41
291.0553,291.1297,71,112,41
291.13464,291.21402,71,112,41
291.21402,291.2934,62,112,41
291.2934,291.3678,55,112,41
291.37274,291.45212,55,112,41
291.45212,291.53146,62,112,41
291.53146,291.60587,71,112,41
291.61084,291.69022,55,112,41
291.69022,291.76956,62,112,41
291.76956,291.84396,71,112,41
291.84894,291.9283,71,112,41
291.9283,292.00766,62,112,41
292.00766,292.08206,55,112,41
292.08704,292.16638,55,112,41
292.16638,292.24576,62,112,41
292.24576,292.32016,71,112,41
292.32513,292.40448,55,112,41
292.40448,292.48386,62,112,41
292.48386,292.55826,71,112,41
292.56323,292.64258,71,112,41
292.64258,292.72195,62,112,41
292.72195,292.79636,55,112,41
292.80133,292.88068,55,112,41
292.88068,292.96005,62,112,41
292.96005,293.03445,71,112,41
293.0394,293.67432,55,112,41
293.0394,293.67432,66,112,41
293.7537,294.10587,64,112,41
294.11084,294.463,62,112,41
294.468,294.82513,59,112,41
294.82513,295.1773,54,112,41
295.18225,295.99313,54,112,41
295.99313,297.26703,52,112,41
297.26703,297.7021,50,112,41
300.4355,300.91165,54,127,41
300.4355,300.91165,60,127,41
300.91165,301.38785,54,127,41
300.91165,301.38785,60,127,41
301.38785,301.86404,54,127,41
301.38785,301.86404,60,127,41
301.86404,301.95334,69,127,41
301.95334,302.12445,65,112,41
302.2212,303.17355,67,112,41
303.2926,303.7688,54,127,41
303.2926,303.7688,60,127,41
303.7688,304.245,54,127,41
303.7688,304.245,60,127,41
304.245,304.7212,54,127,41
304.245,304.7212,60,127,41
304.7212,304.81046,69,127,41
304.81046,304.9816,65,112,41
305.07834,306.0307,67,112,41
306.14975,306.6185,54,112,41
306.14975,306.6185,60,112,41
306.62595,308.70334,54,112,41
306.62595,308.70334,60,112,41
309.07834,309.6252,53,112,41
309.07834,309.6252,59,112,41
309.63388,311.87,53,112,41
309.63388,311.87,59,112,41
312.245,312.60214,65,112,41
312.60214,312.95184,62,112,41
312.9593,313.309,64,112,41
313.3164,313.67355,65,112,41
313.67355,314.02325,62,112,41
314.0307,314.3804,64,112,41
314.38785,314.745,65,112,41
314.745,315.0947,62,112,41
315.10214,315.45184,64,112,41
315.45926,315.8164,65,112,41
315.8164,316.1661,62,112,41
316.17355,316.52325,64,112,41
316.5307,316.8804,65,112,41
320.33234,321.4275,61,112,41
321.4275,323.9275,68,112,41
323.9275,325.1775,70,112,41
325.1775,327.6775,68,112,41
327.6775,328.615,66,112,41
328.615,328.9275,73,112,41
328.9275,330.8025,73,112,41
330.8025,331.4275,75,112,41
331.4275,332.0525,70,112,41
332.0525,332.6775,75,112,41
332.6775,333.09415,73,112,41
333.09415,333.5108,71,112,41
333.5108,333.9275,70,112,41
333.9275,339.53946,70,112,41
339.5525,340.1775,70,112,41
340.1775,341.4275,73,112,41
341.4275,343.3025,71,112,41
343.3025,343.9275,70,112,41
343.9275,345.1775,70,112,41
345.1775,347.0525,68,112,41
347.0525,347.66446,66,112,41
347.6775,347.8207,57,112,41
347.6775,347.8207,65,112,41
347.83374,347.97696,57,112,41
347.83374,347.97696,65,112,41
347.99,348.1332,57,112,41
347.99,348.1332,65,112,41
348.14624,348.28946,57,112,41
348.14624,348.28946,65,112,41
348.3025,348.4457,57,112,41
348.3025,348.4457,65,112,41
348.45874,348.60196,57,112,41
348.45874,348.60196,65,112,41
348.615,348.7582,57,112,41
348.615,348.7582,65,112,41
348.77124,348.91446,57,112,41
348.77124,348.91446,65,112,41
348.9275,349.0707,57,112,41
348.9275,349.0707,65,112,41
349.08374,349.22696,57,112,41
349.08374,349.22696,65,112,41
349.24,349.3832,57,112,41
349.24,349.3832,65,112,41
349.39624,349.53946,57,112,41
349.39624,349.53946,65,112,41
349.5525,349.6957,60,112,41
349.70874,349.85196,60,112,41
349.865,350.0082,60,112,41
350.02124,350.16446,60,112,41
350.1775,350.3207,63,112,41
350.33374,350.47696,63,112,41
350.49,350.6332,63,112,41
350.64624,350.78946,63,112,41
350.8025,350.9457,59,112,41
350.95874,351.10196,59,112,41
351.115,351.2582,59,112,41
351.27124,351.41446,59,112,41
351.4275,351.5707,57,112,41
351.4275,351.5707,65,112,41
351.58374,351.72696,57,112,41
351.58374,351.72696,65,112,41
351.74,351.8832,57,112,41
351.74,351.8832,65,112,41
351.89624,352.03946,57,112,41
351.89624,352.03946,65,112,41
352.0525,352.1957,57,112,41
352.0525,352.1957,65,112,41
352.20874,352.35196,57,112,41
352.20874,352.35196,65,112,41
352.365,352.5082,57,112,41
352.365,352.5082,65,112,41
352.52124,352.66446,57,112,41
352.52124,352.66446,65,112,41
352.6775,352.8207,57,112,41
352.6775,352.8207,65,112,41
352.83374,352.9733,57,112,41
352.83374,352.9733,65,112,41
352.9858,353.12332,57,112,41
352.9858,353.12332,65,112,41
353.1358,353.27332,57,112,41
353.1358,353.27332,65,112,41
353.2858,353.4233,60,112,41
353.43582,353.5733,60,112,41
353.58582,353.7233,60,112,41
353.7358,353.87332,60,112,41
353.8858,354.02332,63,112,41
354.0358,354.1733,63,112,41
354.18582,354.32187,63,112,41
354.3339,354.4661,63,112,41
354.47812,354.61032,59,112,41
354.62234,354.75455,59,112,41
354.76657,354.8988,59,112,41
354.9108,355.04303,59,112,41
355.05505,355.18726,57,112,41
355.05505,355.18726,65,112,41
355.19928,355.33148,57,112,41
355.19928,355.33148,65,112,41
355.3435,355.4757,57,112,41
355.3435,355.4757,65,112,41
355.48773,355.61993,57,112,41
355.48773,355.61993,65,112,41
355.63196,355.75928,57,112,41
355.63196,355.75928,65,112,41
355.77084,355.89816,57,112,41
355.77084,355.89816,65,112,41
355.90973,356.03705,57,112,41
355.90973,356.03705,65,112,41
356.04865,356.17593,57,112,41
356.04865,356.17593,65,112,41
356.18753,356.31482,57,112,41
356.18753,356.31482,65,112,41
356.32642,356.45374,57,112,41
356.32642,356.45374,65,112,41
356.4653,356.59262,57,112,41
356.4653,356.59262,65,112,41
356.6042,356.7315,57,112,41
356.6042,356.7315,65,112,41
356.74307,356.8704,57,112,41
356.74307,356.8704,65,112,41
356.88196,357.00638,57,112,41
356.88196,357.00638,65,112,41
357.01755,357.14032,57,112,41
357.01755,357.14032,65,112,41
357.1515,357.27423,57,112,41
357.1515,357.27423,65,112,41
357.2854,357.40817,60,112,41
357.41934,357.5421,60,112,41
357.55325,357.67603,60,112,41
357.6872,357.80997,60,112,41
357.8211,357.94388,65,112,41
357.95505,358.07782,65,112,41
358.089,358.2106,65,112,41
358.22137,358.3399,65,112,41
358.35068,358.4692,65,112,41
358.47998,358.5985,65,112,41
358.60928,358.7278,65,112,41
358.73862,358.85715,65,112,41
358.86792,358.98645,72,112,41
358.99722,359.11575,72,112,41
359.12653,359.24506,72,112,41
359.25586,359.3744,72,112,41
359.38516,360.38516,70,112,41
360.38516,361.38516,72,112,41
361.38516,362.21848,73,112,41
362.38516,362.88516,77,112,41
362.88516,363.05182,75,112,41
363.05182,363.21848,77,112,41
363.21848,363.38516,75,112,41
363.38516,363.88516,72,112,41
363.88516,364.38516,70,112,41
364.38516,364.88516,66,112,41
364.88516,365.37473,58,112,41
365.38516,366.38516,58,112,41
366.38516,367.38516,60,112,41
367.38516,368.21848,61,112,41
368.38516,370.38516,70,112,41
370.38516,371.38516,66,112,41
371.38516,373.88516,73,112,41
373.88516,374.38516,70,112,41
374.38516,376.26016,65,112,41
376.26016,376.88516,63,112,41
376.88516,377.51016,65,112,41
377.51016,378.12213,61,112,41
378.13516,381.76672,63,112,41
381.9641,383.2141,66,112,41
383.2141,383.8391,64,112,41
383.8391,384.45108,66,112,41
384.4641,385.7141,61,112,41
385.7141,386.75577,64,112,41
386.9641,387.5891,66,112,41
387.5891,388.20108,64,112,41
388.2141,388.8391,64,112,41
388.8391,389.45108,66,112,41
389.4641,390.7141,61,112,41
390.7141,391.75577,64,112,41
391.9641,393.10046,66,112,41
394.00955,395.42325,61,127,41
395.43814,396.1524,59,112,41
396.1524,396.9024,61,112,41
396.9024,397.6524,54,127,41
397.6524,400.7644,54,112,41
400.7774,401.80606,52,112,41
401.8191,402.22272,54,112,41
402.23575,402.6394,52,112,41
402.6524,403.6941,48,112,41
405.1524,405.36075,52,127,41
405.7774,407.4441,52,112,41
414.34827,414.44733,73,112,41
414.45624,414.55414,73,112,41
414.56296,414.65967,73,112,41
414.66833,414.76382,73,112,41
414.77252,414.8667,72,112,41
414.87524,414.96832,72,112,41
414.97678,415.0688,72,112,41
415.07712,415.16812,72,112,41
415.17633,415.26633,70,112,41
415.27444,415.36346,70,112,41
415.3715,415.45953,70,112,41
415.46744,415.55444,70,112,41
415.56238,415.64832,69,112,41
415.65613,415.74207,69,112,41
415.74988,415.83582,69,112,41
415.84363,415.92957,69,112,41
415.93738,416.02332,70,112,41
416.03113,416.11707,70,112,41
416.12488,416.21082,70,112,41
416.21863,416.30457,70,112,41
416.31238,416.39832,72,112,41
416.40613,416.49207,72,112,41
416.49988,416.58582,72,112,41
416.59363,416.67957,72,112,41
416.68738,416.77332,73,112,41
416.78113,416.86707,73,112,41
416.87488,416.96082,73,112,41
416.96863,417.05457,73,112,41
417.06238,417.14832,77,112,41
417.15613,417.24207,77,112,41
417.24988,417.33582,77,112,41
417.34363,417.42957,77,112,41
417.43738,417.5238,73,112,41
417.5317,417.62036,73,112,41
417.62848,417.71948,73,112,41
417.72784,417.82132,73,112,41
417.82986,417.92596,61,112,41
417.93478,418.03363,61,112,41
418.0427,418.14447,61,112,41
418.1538,418.2587,61,112,41
418.2683,418.37653,58,112,41
418.38644,418.49814,58,112,41
418.5084,418.62387,58,112,41
418.63446,418.75394,58,112,41
418.7649,418.88867,54,112,41
418.90005,419.02844,54,112,41
419.04025,419.17365,54,112,41
419.18588,419.32468,54,112,41
419.33743,419.48065,54,112,41
419.49368,419.6369,54,112,41
419.64993,419.79315,54,112,41
419.80618,419.9494,54,112,41
420.58743,422.14993,69,127,41
422.14993,422.4494,67,112,41
422.46243,428.9959,69,112,41
428.9959,430.4245,70,112,41
430.4245,431.6745,58,112,41
431.6745,432.9245,56,112,41
432.9245,435.112,55,112,41
435.84116,436.25784,54,112,41
436.25784,437.09116,61,112,41
437.09116,437.50784,63,112,41
437.50784,437.91147,66,112,41
437.9245,438.5495,69,112,41
438.5495,439.7995,71,127,41
439.7995,440.41147,81,112,41
440.4245,441.96396,80,127,41
441.96396,442.7973,78,127,41
442.7973,443.67966,87,127,41
443.67966,448.97794,85,127,41
251.61644,251.74144,57,112,45
251.74144,252.60602,64,112,45
251.74144,252.60602,72,112,45
254.49144,254.61644,57,112,45
254.61644,255.44977,57,112,45
254.61644,255.44977,62,112,45
254.61644,255.44977,71,112,45
255.61644,255.74144,57,112,45
255.74144,256.60602,57,112,45
255.74144,256.60602,64,112,45
255.74144,256.60602,72,112,45
257.61646,257.74146,57,112,45
257.74146,258.60602,57,112,45
257.74146,258.60602,62,112,45
257.74146,258.60602,71,112,45
411.4024,412.4441,54,112,45
1.363636,1.5909086,45,127,42
1.363636,1.5909086,52,127,42
2.045454,3.8636353,43,120,42
2.045454,3.8636353,50,120,42
6.81818,7.0454526,45,127,42
6.81818,7.0454526,52,127,42
7.499998,9.318179,43,120,42
7.499998,9.318179,50,120,42
19.545448,24.318174,69,120,42
24.318174,24.999992,67,120,42
24.999992,29.772718,69,120,42
29.772718,30.909082,67,120,42
30.909082,31.363628,69,120,42
31.363628,31.818172,67,120,42
31.818172,32.954536,63,120,42
33.18181,33.86363,62,120,42
33.86363,38.83668,61,127,42
38.83668,39.25249,59,120,42
39.25249,39.70921,56,120,42
39.70921,40.216503,52,120,42
40.216503,40.78606,47,120,42
40.78606,40.94231,37,120,42
40.956516,41.112766,37,120,42
41.126972,41.283222,37,120,42
41.297424,41.453674,37,120,42
41.46788,41.62413,37,120,42
41.638332,41.794582,37,120,42
41.80879,41.96504,37,120,42
41.979244,42.135494,37,120,42
42.149696,42.305946,37,120,42
42.320152,42.476402,37,120,42
42.49061,42.64686,37,120,42
42.66106,42.81731,37,120,42
42.831516,42.987766,37,120,42
43.00197,43.15822,37,120,42
43.172424,43.328674,37,120,42
43.34288,43.49913,37,120,42
43.513332,43.669582,37,120,42
43.68379,43.84004,37,120,42
43.854244,44.010494,37,120,42
44.024696,44.180946,37,120,42
44.195152,44.351402,37,120,42
44.365604,44.521854,37,120,42
44.53606,44.69231,37,120,42
44.706516,44.862766,37,120,42
44.87697,45.03322,37,120,42
45.047424,45.203674,37,120,42
45.21788,45.374126,37,120,42
45.388332,45.544582,37,120,42
45.55879,45.71504,37,120,42
45.72924,45.88549,37,120,42
45.899696,46.055946,37,120,42
46.070152,46.226402,37,120,42
46.240604,46.396854,37,120,42
46.41106,46.56731,37,120,42
46.581516,46.737762,37,120,42
46.75197,46.90822,37,120,42
46.922424,47.078674,37,120,42
47.092876,47.249126,37,120,42
47.263332,47.419582,37,120,42
47.43379,47.59004,37,120,42
47.60424,47.76049,37,120,42
47.774696,47.930946,37,120,42
47.94515,48.1014,37,120,42
48.115604,48.271854,37,120,42
48.28606,48.44231,37,120,42
48.456512,48.612762,37,120,42
48.62697,48.78322,37,120,42
48.797424,48.953674,37,120,42
48.967876,49.63549,37,120,42
52.973557,53.058784,37,120,42
53.058784,54.19515,44,120,42
53.058784,54.19515,53,120,42
61.92242,66.01333,58,120,42
66.01333,70.10423,51,120,42
70.10423,73.85423,47,120,42
74.195145,75.695145,59,120,42
75.695145,76.945145,56,120,42
77.195145,78.052284,54,120,42
78.052284,78.89157,53,120,42
78.90943,81.6367,42,120,42
78.90943,81.6367,49,120,42
81.6367,83.000336,45,120,42
81.6367,83.000336,52,120,42
83.000336,84.363976,43,120,42
83.000336,84.363976,50,120,42
84.363976,87.09125,42,120,42
84.363976,87.09125,49,120,42
87.09125,88.45488,45,120,42
87.09125,88.45488,52,120,42
88.45488,89.81852,43,120,42
88.45488,89.81852,50,120,42
89.81852,92.20488,42,120,42
89.81852,92.20488,49,120,42
96.636696,98.000336,58,120,42
98.000336,100.72761,70,120,42
100.72761,102.09124,58,120,42
102.09124,105.50033,56,120,42
105.50033,106.18215,51,120,42
106.18215,110.467865,46,120,42
110.89643,113.6237,37,120,42
110.89643,113.6237,44,120,42
113.6237,116.350975,40,120,42
113.6237,116.350975,47,120,42
116.350975,119.07825,37,120,42
116.350975,119.07825,44,120,42
119.07825,121.80552,40,120,42
119.07825,121.80552,47,120,42
121.80552,122.94189,37,120,42
121.80552,122.94189,44,120,42
127.26006,128.6237,59,120,42
128.6237,129.76007,58,120,42
131.35097,132.71461,59,120,42
132.71461,135.44188,58,120,42
135.44188,136.80551,56,120,42
136.80551,139.98734,55,120,42
140.21461,141.57825,54,120,42
141.57825,142.26006,64,120,42
142.26006,150.26817,62,120,42
150.64317,151.325,58,120,42
151.325,152.0068,62,120,42
152.0068,152.68863,65,120,42
152.68863,153.37045,68,120,42
153.37045,154.5068,61,120,42
154.73409,155.41591,58,120,42
155.41591,156.09772,62,120,42
156.09772,156.77954,65,120,42
156.77954,157.46135,68,120,42
157.46135,158.81363,61,120,42
158.825,164.27954,58,120,42
164.27954,169.05226,63,120,42
169.05226,169.73409,65,120,42
169.73409,170.40169,66,120,42
177.26529,185.44711,51,120,42
185.44711,187.83347,49,120,42
193.62892,196.3562,42,120,42
193.62892,196.3562,49,120,42
196.3562,197.71983,45,120,42
196.3562,197.71983,52,120,42
197.71983,199.08347,43,120,42
197.71983,199.08347,50,120,42
199.08347,201.81075,42,120,42
199.08347,201.81075,49,120,42
201.81075,203.17438,45,120,42
201.81075,203.17438,52,120,42
203.17438,204.53801,43,120,42
203.17438,204.53801,50,120,42
204.53801,210.1116,42,120,42
210.3497,211.30208,41,127,42
211.42113,211.49925,42,127,42
211.54018,211.6183,41,127,42
211.65923,211.73735,40,127,42
211.77827,215.41806,40,127,42
215.42783,215.6622,42,120,42
215.6622,216.88669,40,120,42
216.88669,217.18005,44,120,42
217.19281,217.48618,40,120,42
217.49893,217.7923,43,120,42
217.80505,229.18799,39,120,42
229.42609,230.37846,38,120,42
230.49751,230.60912,39,127,42
230.61656,230.72816,38,127,42
230.73561,230.84721,37,127,42
230.85466,234.49445,37,127,42
234.50421,234.73859,39,120,42
234.73859,235.96307,37,120,42
235.96307,236.2692,41,120,42
236.2692,236.57532,37,120,42
236.57532,236.88144,40,120,42
236.88144,242.42598,36,120,42
242.54501,242.89471,43,120,42
242.90216,243.14026,48,120,42
243.14026,243.37836,52,120,42
243.37836,243.61644,55,120,42
243.61644,244.33073,58,120,42
244.33073,245.40018,61,120,42
245.40216,246.11644,66,120,42
246.11644,246.46614,70,120,42
246.47359,248.89026,72,120,42
268.53943,269.03943,60,120,42
269.03943,270.53943,67,120,42
270.53943,271.02902,69,120,42
271.03943,271.53943,66,120,42
271.53943,272.02902,62,120,42
272.03943,273.53943,67,120,42
273.53943,274.02902,69,120,42
274.03943,274.37277,66,120,42
274.37277,274.7061,62,120,42
274.7061,275.02902,66,120,42
275.03943,277.03943,70,120,42
277.03943,277.87277,55,120,42
278.03943,280.18228,42,120,42
280.18228,280.89658,54,120,42
280.89658,281.4918,48,120,42
281.61084,283.7537,42,120,42
283.7537,284.468,54,120,42
284.468,285.06323,48,120,42
289.82513,290.42038,54,120,42
285.18228,290.88913,42,120,42
290.53943,290.88913,42,120,42
290.89655,290.97592,40,120,42
290.97592,291.0553,47,120,42
291.0553,291.1297,55,120,42
291.13464,291.21402,55,120,42
291.21402,291.2934,47,120,42
291.2934,291.3678,40,120,42
291.37274,291.45212,40,120,42
291.45212,291.53146,47,120,42
291.53146,291.60587,55,120,42
291.61084,291.69022,40,120,42
291.69022,291.76956,47,120,42
291.76956,291.84396,55,120,42
291.84894,291.9283,55,120,42
291.9283,292.00766,47,120,42
292.00766,292.08206,40,120,42
292.08704,292.16638,40,120,42
292.16638,292.24576,47,120,42
292.24576,292.32016,55,120,42
292.32513,292.40448,40,120,42
292.40448,292.48386,47,120,42
292.48386,292.55826,55,120,42
292.56323,292.64258,55,120,42
292.64258,292.72195,47,120,42
292.72195,292.79636,40,120,42
292.80133,292.88068,40,120,42
292.88068,292.96005,47,120,42
292.96005,293.03445,55,120,42
293.0394,293.11877,55,120,42
293.11877,293.19815,47,120,42
293.19815,293.27255,40,120,42
293.2775,293.35687,40,120,42
293.35687,293.43625,47,120,42
293.43625,293.51065,55,120,42
293.5156,293.59497,40,120,42
293.59497,293.67432,47,120,42
293.67432,293.74875,55,120,42
293.7537,293.83307,55,120,42
293.83307,293.9124,47,120,42
293.9124,293.98682,40,120,42
293.9918,294.07117,40,120,42
294.07117,294.1505,47,120,42
294.1505,294.2249,55,120,42
294.2299,294.30927,40,120,42
294.30927,294.3886,47,120,42
294.3886,294.463,55,120,42
294.468,294.54733,55,120,42
294.54733,294.6267,47,120,42
294.6267,294.7011,40,120,42
294.7061,294.78543,40,120,42
294.78543,294.8648,47,120,42
294.8648,294.9392,55,120,42
294.94418,295.02353,55,120,42
295.02353,295.1029,47,120,42
295.1029,295.1773,40,120,42
295.18225,295.38315,40,120,42
295.38315,295.58405,47,120,42
295.58405,295.7886,40,120,42
295.7886,295.99313,47,120,42
295.99313,296.2709,40,120,42
296.2709,296.55133,47,120,42
296.55133,296.83435,40,120,42
296.83435,297.1228,47,120,42
297.1228,297.4141,40,120,42
297.4141,297.7021,47,120,42
297.7082,298.6173,40,120,42
297.7082,298.6173,47,120,42
297.7082,298.6173,53,120,42
298.6173,299.98093,53,120,42
299.98093,300.42917,47,120,42
300.4355,300.67358,45,120,42
300.67358,300.91165,38,120,42
300.91165,301.14975,45,120,42
301.14975,301.38785,38,120,42
301.38785,301.62595,45,120,42
301.62595,301.8566,38,120,42
301.86404,302.10214,47,120,42
302.10214,302.34024,41,120,42
302.34024,302.57834,47,120,42
302.57834,302.81644,41,120,42
302.81644,303.0545,46,120,42
303.0545,303.2852,41,120,42
303.2926,303.5307,45,120,42
303.5307,303.7688,38,120,42
303.7688,304.0069,45,120,42
304.0069,304.245,38,120,42
304.245,304.4831,45,120,42
304.4831,304.71375,38,120,42
304.7212,304.9593,47,120,42
304.9593,305.1974,41,120,42
305.1974,305.43546,47,120,42
305.43546,305.67355,41,120,42
305.67355,305.91165,46,120,42
305.91165,306.1423,41,120,42
306.14975,306.38785,45,120,42
306.38785,306.62595,38,120,42
306.62595,306.86404,45,120,42
306.86404,307.10214,38,120,42
307.10214,307.34024,45,120,42
307.34024,307.5709,38,120,42
309.07834,309.3561,44,120,42
309.3561,309.63388,38,120,42
309.63388,309.91165,44,120,42
309.91165,310.18942,38,120,42
310.18942,310.46722,44,120,42
310.46722,310.7363,38,120,42
312.245,312.5947,59,127,42
312.60214,313.19736,53,120,42
313.3164,313.6661,59,127,42
313.67355,314.2688,53,120,42
314.38785,314.73755,59,127,42
314.745,315.34024,53,120,42
315.45926,315.80896,59,127,42
315.8164,316.41165,53,120,42
321.4275,321.84415,49,120,42
321.84415,322.2608,42,120,42
322.2608,322.6775,49,120,42
322.6775,323.09415,42,120,42
323.09415,323.5108,49,120,42
323.5108,323.9275,42,120,42
323.9275,324.34415,49,120,42
324.34415,324.7608,42,120,42
324.7608,325.1775,49,120,42
325.1775,325.59415,42,120,42
325.59415,326.0108,49,120,42
326.0108,326.4275,42,120,42
326.4275,326.84415,49,120,42
326.84415,327.2608,42,120,42
327.2608,327.6775,49,120,42
327.6775,328.09415,42,120,42
328.09415,328.5108,49,120,42
328.5108,328.9275,42,120,42
328.9275,329.34415,49,120,42
329.34415,329.7608,42,120,42
329.7608,330.1775,49,120,42
330.1775,330.59415,42,120,42
330.59415,331.0108,49,120,42
331.0108,331.4275,42,120,42
331.4275,331.84415,49,120,42
331.84415,332.2608,42,120,42
332.2608,332.6775,49,120,42
332.6775,333.09415,46,120,42
333.09415,333.5108,39,120,42
333.5108,333.9275,46,120,42
333.9275,334.34415,39,120,42
334.34415,334.7608,46,120,42
334.7608,335.1775,39,120,42
335.1775,335.59415,46,120,42
335.59415,336.0108,51,120,42
336.0108,336.4275,55,120,42
336.4275,336.84415,58,120,42
336.84415,337.2608,63,120,42
337.2608,337.66446,65,120,42
337.6775,337.8858,61,120,42
337.8858,338.09415,59,120,42
338.09415,338.3025,61,120,42
338.3025,338.5108,59,120,42
338.5108,338.9275,58,120,42
338.9275,339.34415,55,120,42
339.34415,339.7608,51,120,42
339.7608,340.16446,46,120,42
340.1775,340.59415,47,120,42
340.59415,341.0108,49,120,42
341.0108,341.4275,50,120,42
341.4275,341.84415,53,120,42
341.84415,342.2608,54,120,42
342.2608,342.6775,58,120,42
342.6775,343.09415,59,120,42
343.09415,343.5108,61,120,42
343.5108,343.91446,62,120,42
343.9275,347.365,62,120,42
347.6775,347.8207,41,120,42
347.6775,347.8207,48,120,42
347.83374,347.97696,41,120,42
347.83374,347.97696,48,120,42
347.99,348.1332,41,120,42
347.99,348.1332,48,120,42
348.14624,348.28946,41,120,42
348.14624,348.28946,48,120,42
348.3025,348.4457,45,120,42
348.3025,348.4457,53,120,42
348.45874,348.60196,45,120,42
348.45874,348.60196,53,120,42
348.615,348.7582,45,120,42
348.615,348.7582,53,120,42
348.77124,348.91446,45,120,42
348.77124,348.91446,53,120,42
348.9275,349.0707,48,120,42
349.08374,349.22696,48,120,42
349.24,349.3832,48,120,42
349.39624,349.53946,48,120,42
349.5525,349.6957,53,120,42
349.70874,349.85196,53,120,42
349.865,350.0082,53,120,42
350.02124,350.16446,53,120,42
350.1775,350.3207,56,120,42
350.33374,350.47696,56,120,42
350.49,350.6332,56,120,42
350.64624,350.78946,56,120,42
350.8025,350.9457,51,120,42
350.95874,351.10196,51,120,42
351.115,351.2582,51,120,42
351.27124,351.41446,51,120,42
351.4275,351.5707,41,120,42
351.4275,351.5707,48,120,42
351.58374,351.72696,41,120,42
351.58374,351.72696,48,120,42
351.74,351.8832,41,120,42
351.74,351.8832,48,120,42
351.89624,352.03946,41,120,42
351.89624,352.03946,48,120,42
352.0525,352.1957,45,120,42
352.0525,352.1957,53,120,42
352.20874,352.35196,45,120,42
352.20874,352.35196,53,120,42
352.365,352.5082,45,120,42
352.365,352.5082,53,120,42
352.52124,352.66446,45,120,42
352.52124,352.66446,53,120,42
352.6775,352.8207,48,120,42
352.83374,352.9733,48,120,42
352.9858,353.12332,48,120,42
353.1358,353.27332,48,120,42
353.2858,353.4233,53,120,42
353.43582,353.5733,53,120,42
353.58582,353.7233,53,120,42
353.7358,353.87332,53,120,42
353.8858,354.02332,56,120,42
354.0358,354.1733,56,120,42
354.18582,354.32187,56,120,42
354.3339,354.4661,56,120,42
354.47812,354.61032,51,120,42
354.62234,354.75455,51,120,42
354.76657,354.8988,51,120,42
354.9108,355.04303,51,120,42
355.05505,355.18726,41,120,42
355.05505,355.18726,48,120,42
355.19928,355.33148,41,120,42
355.19928,355.33148,48,120,42
355.3435,355.4757,41,120,42
355.3435,355.4757,48,120,42
355.48773,355.61993,41,120,42
355.48773,355.61993,48,120,42
355.63196,355.75928,45,120,42
355.63196,355.75928,53,120,42
355.77084,355.89816,45,120,42
355.77084,355.89816,53,120,42
355.90973,356.03705,45,120,42
355.90973,356.03705,53,120,42
356.04865,356.17593,45,120,42
356.04865,356.17593,53,120,42
356.18753,356.31482,48,120,42
356.32642,356.45374,48,120,42
356.4653,356.59262,48,120,42
356.6042,356.7315,48,120,42
356.74307,356.8704,53,120,42
356.88196,357.00638,53,120,42
357.01755,357.14032,53,120,42
357.1515,357.27423,53,120,42
357.2854,357.40817,53,120,42
357.41934,357.5421,53,120,42
357.55325,357.67603,53,120,42
357.6872,357.80997,53,120,42
357.8211,357.94388,57,120,42
357.95505,358.07782,57,120,42
358.089,358.2106,57,120,42
358.22137,358.3399,57,120,42
358.35068,358.4692,60,120,42
358.47998,358.5985,60,120,42
358.60928,358.7278,60,120,42
358.73862,358.85715,60,120,42
358.86792,358.98645,65,120,42
358.99722,359.11575,65,120,42
359.12653,359.24506,65,120,42
359.25586,359.3744,65,120,42
359.38516,362.88516,63,120,42
362.88516,363.38516,65,120,42
363.38516,363.87473,66,120,42
368.38516,374.38516,51,120,42
374.38516,381.76672,49,120,42
381.9641,384.4641,42,120,42
381.9641,384.4641,49,120,42
384.4641,385.7141,45,120,42
384.4641,385.7141,52,120,42
385.7141,386.9641,43,120,42
385.7141,386.9641,50,120,42
386.9641,389.4641,42,120,42
386.9641,389.4641,49,120,42
389.4641,390.7141,45,120,42
389.4641,390.7141,52,120,42
390.7141,391.9641,43,120,42
390.7141,391.9641,50,120,42
391.9641,393.10046,42,120,42
391.9641,393.10046,49,120,42
397.6524,398.5899,45,120,42
397.6524,398.6941,38,120,42
398.5899,398.8894,44,120,42
398.9024,399.9441,36,120,42
398.9024,399.9441,43,120,42
403.2774,404.3191,48,120,42
404.5274,405.1394,47,120,42
405.1524,408.05606,46,120,42
408.0691,408.48575,48,120,42
408.48575,408.8894,46,120,42
408.9024,410.1524,42,120,42
410.1524,410.7644,41,120,42
410.7774,413.0691,40,120,42
413.2774,414.77252,39,120,42
414.77252,416.31238,51,120,42
416.31238,419.64993,63,120,42
419.96243,423.39993,51,120,42
430.84116,431.25784,42,120,42
431.25784,432.09116,49,120,42
432.09116,432.50784,51,120,42
432.50784,432.9245,54,120,42
432.9245,433.5495,57,120,42
433.5495,434.7995,59,120,42
434.7995,435.41147,69,120,42
435.4245,436.6745,70,120,42
436.6745,437.71616,68,120,42
437.9245,440.112,67,120,42
440.9245,441.4212,66,120,42
441.43765,441.9475,73,120,42
441.96396,442.77994,75,120,42
442.7973,448.97794,78,120,42
14.914769,14.999996,45,120,45
14.999996,16.13636,52,120,45
14.999996,16.13636,57,120,45
259.11646,259.60602,45,120,45
259.61646,260.10602,55,120,45
260.11646,260.60602,60,120,45
260.61646,261.10602,64,120,45
261.11646,261.60602,67,120,45
261.61646,262.44977,57,120,45
261.61646,262.44977,64,120,45
264.61646,265.52554,55,120,45
268.03943,268.52902,48,120,45
268.03943,268.52902,55,120,45
268.03943,268.52902,64,120,45
316.5307,317.12595,49,120,45
317.245,317.8402,43,120,45
317.95926,318.5545,49,120,45
318.67355,319.29935,43,120,45
424.8843,424.96243,37,120,45
424.8843,424.96243,44,120,45
424.96243,426.04938,53,120,45
424.96243,426.04938,61,120,45
