start_time,end_time,note_value,velocity,instrument_program_number
0.0,0.071875,57,127,40
0.075,0.146875,57,127,40
0.15,0.221875,58,127,40
0.225,0.296875,58,127,40
0.3,0.371875,55,127,40
0.375,0.446875,55,127,40
0.45,0.521875,56,127,40
0.525,0.596875,56,127,40
0.6,0.671875,57,127,40
0.675,0.746875,57,127,40
0.75,1.35,70,127,40
0.75,1.35,77,127,40
1.7,1.771875,57,127,40
1.775,1.846875,57,127,40
1.85,1.921875,58,127,40
1.925,1.996875,58,127,40
2.0,2.071875,55,127,40
2.075,2.146875,55,127,40
2.15,2.221875,56,127,40
2.225,2.296875,56,127,40
2.3,2.371875,57,127,40
2.375,2.409375,57,127,40
2.4125,2.45,63,127,40
2.45,3.05,73,127,40
2.45,3.05,79,127,40
4.9,4.971875,64,127,40
4.9,4.971875,73,127,40
4.9,4.971875,81,127,40
4.975,5.046875,81,127,40
5.05,5.121875,82,127,40
5.125,5.196875,82,127,40
5.2,5.271875,79,127,40
5.275,5.346875,79,127,40
5.35,5.421875,80,127,40
5.425,5.496875,80,127,40
5.5,5.571875,81,127,40
5.575,5.646875,81,127,40
5.65,5.721875,81,127,40
5.725,5.796875,81,127,40
5.8,5.871875,82,127,40
5.875,5.946875,82,127,40
5.95,6.021875,79,127,40
6.025,6.096875,79,127,40
6.1,6.171875,80,127,40
6.175,6.246875,80,127,40
6.25,6.321875,81,127,40
6.325,6.396875,81,127,40
6.4,6.471875,81,127,40
6.475,6.546875,81,127,40
6.55,6.621875,83,127,40
6.625,6.696875,83,127,40
6.7,6.771875,79,127,40
6.775,6.846875,79,127,40
6.85,6.921875,80,127,40
6.925,6.996875,80,127,40
7.0,7.071875,81,127,40
7.075,7.146875,81,127,40
7.15,7.221875,81,127,40
7.225,7.296875,81,127,40
7.3,7.371875,83,127,40
7.375,7.446875,83,127,40
7.45,7.521875,79,127,40
7.525,7.596875,79,127,40
7.6,7.671875,80,127,40
7.675,7.746875,80,127,40
7.75,7.821875,81,127,40
7.825,7.896875,81,127,40
7.9,7.971875,81,127,40
7.975,8.046875,81,127,40
8.05,8.121875,82,127,40
8.125,8.196875,82,127,40
8.2,8.271875,79,127,40
8.275,8.346875,79,127,40
8.35,8.421875,80,127,40
8.425,8.496875,80,127,40
8.5,8.571875,81,127,40
8.575,8.646875,81,127,40
8.65,8.721875,81,127,40
8.725,8.796875,81,127,40
8.8,8.871875,83,127,40
8.875,8.946875,83,127,40
8.95,9.021875,79,127,40
9.025,9.096875,79,127,40
9.1,9.171875,80,127,40
9.175,9.246875,80,127,40
9.25,9.321875,81,127,40
9.325,9.396875,81,127,40
9.4,9.471875,81,127,40
9.475,9.546875,81,127,40
9.55,9.621875,83,127,40
9.625,9.696875,83,127,40
9.7,9.771875,79,127,40
9.775,9.846875,79,127,40
9.85,9.921875,80,127,40
9.925,9.996875,80,127,40
10.0,10.071875,81,127,40
10.075,10.146875,81,127,40
10.15,10.221875,81,127,40
10.225,10.296875,81,127,40
10.3,10.371875,82,127,40
10.375,10.446875,82,127,40
10.45,10.521875,79,127,40
10.525,10.596875,79,127,40
10.6,10.671875,80,127,40
10.675,10.746875,80,127,40
10.75,10.821875,81,127,40
10.825,10.896875,81,127,40
10.9,11.046875,81,127,40
12.4,12.471875,69,127,40
12.475,12.546875,69,127,40
12.55,12.621875,70,127,40
12.625,12.696875,70,127,40
12.7,12.771875,67,127,40
12.775,12.846875,67,127,40
12.85,12.921875,68,127,40
12.925,12.996875,68,127,40
13.0,13.071875,69,127,40
13.075,13.146875,69,127,40
13.15,13.221875,69,127,40
13.225,13.296875,69,127,40
13.3,13.371875,70,127,40
13.375,13.446875,70,127,40
13.45,13.521875,67,127,40
13.525,13.596875,67,127,40
13.6,13.671875,68,127,40
13.675,13.746875,68,127,40
13.75,13.821875,69,127,40
13.825,13.896875,69,127,40
13.9,13.971875,69,127,40
13.975,14.046875,69,127,40
14.05,14.121875,70,127,40
14.125,14.196875,70,127,40
14.2,14.271875,67,127,40
14.275,14.346875,67,127,40
14.35,14.421875,68,127,40
14.425,14.496875,68,127,40
14.5,14.571875,69,127,40
14.575,14.646875,69,127,40
14.65,14.721875,69,127,40
14.725,14.796875,69,127,40
14.8,14.871875,70,127,40
14.875,14.946875,70,127,40
14.95,15.021875,67,127,40
15.025,15.096875,67,127,40
15.1,15.171875,68,127,40
15.175,15.246875,68,127,40
15.25,15.321875,69,127,40
15.325,15.396875,69,127,40
15.4,15.471875,69,127,40
15.475,15.546875,69,127,40
15.55,15.621875,70,127,40
15.625,15.696875,70,127,40
15.7,15.771875,71,127,40
15.775,15.846875,71,127,40
15.85,15.921875,72,127,40
15.925,15.996875,72,127,40
16.0,16.071875,73,127,40
16.075,16.146875,73,127,40
16.15,16.221874,73,127,40
16.225,16.296875,73,127,40
16.3,16.371876,74,127,40
16.375,16.446875,74,127,40
16.45,16.521875,75,127,40
16.525,16.596874,75,127,40
16.6,16.671875,76,127,40
16.675,16.746876,76,127,40
16.75,16.821875,77,127,40
16.825,16.896875,77,127,40
16.9,16.971874,77,127,40
16.975,17.046875,77,127,40
17.05,17.121876,78,127,40
17.125,17.196875,78,127,40
17.2,17.271875,75,127,40
17.275,17.346874,75,127,40
17.35,17.421875,76,127,40
17.425,17.496876,76,127,40
17.5,17.571875,77,127,40
17.575,17.646875,77,127,40
17.65,17.721874,77,127,40
17.725,17.796875,77,127,40
17.8,17.871876,78,127,40
17.875,17.946875,78,127,40
17.95,18.021875,75,127,40
18.025,18.096874,75,127,40
18.1,18.171875,76,127,40
18.175,18.246876,76,127,40
18.25,18.321875,77,127,40
18.325,18.396875,77,127,40
18.4,18.471874,77,127,40
18.475,18.546875,77,127,40
18.55,18.621876,78,127,40
18.625,18.696875,78,127,40
18.7,18.771875,79,127,40
18.775,18.846874,79,127,40
18.85,18.921875,80,127,40
18.925,18.996876,80,127,40
19.0,19.071875,81,127,40
19.075,19.146875,81,127,40
19.15,19.221874,81,127,40
19.225,19.296875,81,127,40
19.3,19.371876,82,127,40
19.375,19.446875,82,127,40
19.45,19.521875,83,127,40
19.525,19.596874,83,127,40
19.6,19.671875,84,127,40
19.675,19.746876,84,127,40
19.75,19.821875,85,127,40
19.825,19.896875,85,127,40
19.9,19.971874,85,127,40
19.975,20.046875,85,127,40
20.05,20.121876,87,127,40
20.125,20.196875,87,127,40
20.2,20.271875,82,127,40
20.275,20.346874,82,127,40
20.35,20.421875,83,127,40
20.425,20.496876,83,127,40
20.5,20.571875,84,127,40
20.575,20.646875,84,127,40
20.65,20.796875,85,127,40
20.8,21.05,88,127,40
21.1,21.25,90,127,40
21.25,21.396875,87,127,40
21.4,21.471874,85,127,40
21.475,21.546875,85,127,40
21.55,21.621876,87,127,40
21.625,21.696875,87,127,40
21.7,21.771875,82,127,40
21.775,21.846874,82,127,40
21.85,21.921875,83,127,40
21.925,21.996876,83,127,40
22.0,22.071875,84,127,40
22.075,22.146875,84,127,40
22.15,22.296875,85,127,40
22.3,22.55,88,127,40
22.6,22.75,90,127,40
22.75,22.896875,87,127,40
22.9,22.971874,85,127,40
22.975,23.046875,85,127,40
23.05,23.121876,87,127,40
23.125,23.196875,87,127,40
23.2,23.271875,85,127,40
23.275,23.346874,85,127,40
23.35,23.421875,82,127,40
23.425,23.496876,82,127,40
23.5,23.571875,80,127,40
23.575,23.646875,80,127,40
23.65,23.721874,79,127,40
23.725,23.796875,79,127,40
23.8,23.871876,81,127,40
23.875,23.946875,81,127,40
23.95,24.021875,79,127,40
24.025,24.096874,79,127,40
24.1,24.171875,76,127,40
24.175,24.246876,76,127,40
24.25,24.321875,74,127,40
24.325,24.396875,74,127,40
24.4,24.471874,73,127,40
24.475,24.546875,73,127,40
24.55,24.621876,75,127,40
24.625,24.696875,75,127,40
24.7,24.771875,73,127,40
24.775,24.846874,73,127,40
24.85,24.921875,70,127,40
24.925,24.996876,70,127,40
25.0,25.071875,68,127,40
25.075,25.146875,68,127,40
25.15,25.2,67,127,40
25.225,25.275,67,127,40
25.3,25.35,69,127,40
25.375,25.425,69,127,40
25.45,25.5,67,127,40
25.525,25.575,67,127,40
25.6,25.65,64,127,40
25.675,25.725,64,127,40
25.75,25.8,62,127,40
25.825,25.875,62,127,40
25.9,25.971874,67,127,40
25.975,26.046875,67,127,40
26.05,26.121876,69,127,40
26.125,26.196875,69,127,40
26.2,26.271875,67,127,40
26.275,26.346874,67,127,40
26.35,26.421875,64,127,40
26.425,26.496876,64,127,40
26.5,26.571875,62,127,40
26.575,26.646875,62,127,40
26.65,26.721874,67,127,40
26.725,26.796875,67,127,40
26.8,26.871876,69,127,40
26.875,26.946875,69,127,40
26.95,27.021875,67,127,40
27.025,27.096874,67,127,40
27.1,27.171875,64,127,40
27.175,27.246876,64,127,40
27.25,27.321875,62,127,40
27.325,27.396875,62,127,40
27.4,27.471874,64,127,40
27.475,27.546875,64,127,40
27.55,27.621876,66,127,40
27.625,27.696875,66,127,40
27.7,27.771875,61,127,40
27.775,27.846874,61,127,40
27.85,27.921875,62,127,40
27.925,27.996876,62,127,40
28.0,28.071875,63,127,40
28.075,28.146875,63,127,40
28.15,28.4,64,127,40
28.45,28.85,61,127,40
28.9,28.971874,64,127,40
28.975,29.046875,64,127,40
29.05,29.121876,66,127,40
29.125,29.196875,66,127,40
29.2,29.271875,61,127,40
29.275,29.346874,61,127,40
29.35,29.421875,62,127,40
29.425,29.496876,62,127,40
29.5,29.571875,63,127,40
29.575,29.646875,63,127,40
29.65,29.9,64,127,40
29.95,30.35,61,127,40
30.4,30.546875,64,127,40
31.15,31.221874,69,127,40
31.225,31.296875,69,127,40
31.3,31.371876,70,127,40
31.375,31.446875,70,127,40
31.45,31.521875,69,127,40
31.525,31.596874,69,127,40
31.6,31.671875,70,127,40
31.675,31.746876,70,127,40
31.75,31.821875,70,127,40
31.825,31.896875,70,127,40
31.9,32.046875,69,127,40
33.4,33.7,81,127,40
33.7,34.0,79,127,40
34.0,34.3,81,127,40
34.3,34.6,76,127,40
34.6,34.75,77,127,40
34.75,34.896873,79,127,40
34.9,35.15,81,127,40
36.4,36.7,58,127,40
36.7,37.225,59,127,40
37.3,37.6,60,127,40
37.6,37.9,59,127,40
37.9,38.425,58,127,40
39.4,40.3,70,127,40
40.3,41.2,71,127,40
41.2,42.1,70,127,40
42.1,43.0,71,127,40
43.0,43.9,72,127,40
43.9,44.725,73,127,40
45.1,45.4,74,127,40
45.4,45.7,72,127,40
45.7,45.95,74,127,40
46.0,46.15,69,127,40
46.15,46.3,67,127,40
46.3,46.45,69,127,40
46.45,46.6,74,127,40
46.6,46.9,74,127,40
46.9,47.2,69,127,40
47.2,47.45,72,127,40
47.8,48.1,74,127,40
48.1,48.4,72,127,40
48.4,48.65,74,127,40
48.7,48.85,69,127,40
48.85,49.0,67,127,40
49.0,49.15,69,127,40
49.15,49.3,74,127,40
49.3,49.6,74,127,40
49.6,49.9,69,127,40
49.9,50.15,72,127,40
50.2,50.5,74,127,40
50.5,50.8,77,127,40
50.8,51.1,79,127,40
51.1,51.25,77,127,40
51.25,51.4,79,127,40
51.4,51.7,74,127,40
51.7,51.85,72,127,40
51.85,52.0,74,127,40
52.0,52.3,70,127,40
52.3,52.825,72,127,40
52.9,53.15,70,127,40
53.2,53.725,72,127,40
53.8,54.05,69,127,40
54.1,54.625,70,127,40
54.7,54.85,71,127,40
54.85,55.0,74,127,40
55.0,55.15,72,127,40
55.15,55.3,74,127,40
55.3,55.55,69,127,40
55.6,56.125,70,127,40
56.2,56.8,71,127,40
56.8,57.4,72,127,40
57.4,57.65,71,127,40
57.7,58.3,72,127,40
58.3,58.6,74,127,40
58.6,58.9,76,127,40
58.9,59.5,77,127,40
59.5,59.75,81,127,40
59.8,60.766666,86,127,40
60.766666,61.51146,89,127,40
63.466667,63.766666,79,127,40
63.766666,64.36667,84,127,40
64.36667,64.46667,82,127,40
64.46667,64.566666,84,127,40
64.566666,64.666664,86,127,40
64.666664,64.96667,84,127,40
64.96667,65.11667,82,127,40
65.11667,65.26666,79,127,40
65.26666,65.71667,77,127,40
65.71667,65.86667,77,127,40
65.86667,66.01666,79,127,40
66.01666,66.166664,82,127,40
66.166664,66.76666,84,127,40
66.76666,66.86667,82,127,40
66.86667,66.96667,84,127,40
66.96667,67.066666,86,127,40
67.066666,67.36667,84,127,40
67.36667,67.51666,82,127,40
67.51666,67.666664,79,127,40
67.666664,68.50952,77,127,40
68.50952,68.709526,77,127,40
68.709526,68.90952,79,127,40
68.90952,69.105354,82,127,40
69.10952,69.709526,82,127,40
69.709526,69.959526,80,127,40
70.00952,70.60952,77,127,40
70.60952,70.85952,75,127,40
70.90952,71.50952,70,127,40
71.50952,71.75952,68,127,40
71.809525,72.40952,65,127,40
72.40952,72.65952,63,127,40
73.00952,73.35238,61,127,40
73.69524,74.09524,59,127,40
74.49524,74.93899,61,127,40
75.09524,75.39524,70,127,40
75.39524,75.99524,65,127,40
75.99524,76.295235,68,127,40
76.295235,76.51711,73,127,40
76.59524,76.89524,70,127,40
76.89524,77.49524,65,127,40
77.49524,77.795235,68,127,40
77.795235,78.01711,73,127,40
78.09524,80.12024,70,127,40
81.09524,81.166664,70,127,40
81.166664,81.23809,66,127,40
81.23809,81.309525,70,127,40
81.309525,81.38095,66,127,40
81.38095,81.45238,70,127,40
81.45238,81.52381,66,127,40
81.52381,81.59524,70,127,40
81.59524,81.666664,66,127,40
81.666664,81.73809,70,127,40
81.73809,81.809525,66,127,40
81.809525,81.88095,70,127,40
81.88095,81.95238,66,127,40
81.95238,82.0238,70,127,40
82.0238,82.09524,66,127,40
82.09524,82.235115,70,127,40
82.5238,82.59524,70,127,40
82.59524,82.666664,66,127,40
82.666664,82.73809,70,127,40
82.73809,82.809525,66,127,40
82.809525,82.88095,70,127,40
82.88095,82.95238,66,127,40
82.95238,83.0238,70,127,40
83.0238,83.09524,66,127,40
83.09524,83.166664,70,127,40
83.166664,83.23809,66,127,40
83.23809,83.30952,70,127,40
83.30952,83.38095,66,127,40
83.38095,83.45238,70,127,40
83.45238,83.5238,66,127,40
83.5238,83.66369,70,127,40
83.95238,84.02083,85,127,40
84.0238,84.092255,85,127,40
84.09524,84.16369,87,127,40
84.166664,84.235115,87,127,40
84.23809,84.30654,85,127,40
84.30952,84.377975,85,127,40
84.38095,84.4494,78,127,40
84.45238,84.52083,78,127,40
84.5238,84.592255,75,127,40
84.59523,84.66369,75,127,40
84.666664,84.735115,73,127,40
84.73809,84.80654,73,127,40
84.80952,84.87797,75,127,40
84.88095,84.9494,75,127,40
84.95238,85.02083,73,127,40
85.0238,85.092255,73,127,40
85.09523,85.16369,66,127,40
85.166664,85.235115,66,127,40
85.23809,85.30654,63,127,40
85.30952,85.37797,63,127,40
85.38094,85.4494,61,127,40
85.45238,85.52083,61,127,40
85.5238,85.592255,63,127,40
85.59523,85.66368,63,127,40
85.666664,85.735115,58,127,40
85.73809,85.80654,58,127,40
85.80952,85.87797,61,127,40
85.88094,85.9494,61,127,40
85.95238,86.02083,63,127,40
86.0238,86.092255,63,127,40
86.09523,86.16368,61,127,40
86.166664,86.235115,61,127,40
86.23809,86.30654,63,127,40
86.30952,86.37797,63,127,40
86.38094,86.4494,58,127,40
86.45238,86.52083,58,127,40
86.5238,86.592255,61,127,40
86.59523,86.66368,61,127,40
86.66666,86.735115,63,127,40
86.73809,86.80654,63,127,40
86.80952,86.84523,64,127,40
86.84523,86.88094,73,127,40
86.88094,86.95238,69,127,40
86.95238,87.0238,73,127,40
87.0238,87.09523,69,127,40
87.09523,87.16666,73,127,40
87.16666,87.23809,69,127,40
87.23809,87.30952,73,127,40
87.30952,87.38094,69,127,40
87.38094,87.45237,73,127,40
87.45237,87.52083,69,127,40
87.5238,87.592255,69,127,40
87.59523,87.66368,69,127,40
87.66666,87.735115,70,127,40
87.73809,87.80654,70,127,40
87.80952,87.87797,71,127,40
87.88094,87.949394,71,127,40
87.95237,88.02083,71,127,40
88.0238,88.092255,71,127,40
88.09523,88.16368,70,127,40
88.16666,88.23511,70,127,40
88.23809,88.30952,73,127,40
88.30952,88.38094,69,127,40
88.38094,88.45237,73,127,40
88.45237,88.52083,69,127,40
88.5238,88.59523,73,127,40
88.59523,88.66666,69,127,40
88.66666,88.73808,73,127,40
88.73808,88.80952,69,127,40
88.80952,88.88094,73,127,40
88.88094,88.949394,69,127,40
88.95237,89.02082,69,127,40
89.0238,89.092255,69,127,40
89.09523,89.16368,70,127,40
89.16666,89.23511,70,127,40
89.23808,89.30654,71,127,40
89.30952,89.37797,71,127,40
89.38094,89.449394,71,127,40
89.45237,89.52082,71,127,40
89.5238,89.592255,70,127,40
89.59523,89.66368,70,127,40
89.66666,89.70237,69,127,40
89.70237,89.73511,88,127,40
89.73808,89.80654,88,127,40
89.80952,89.87797,90,127,40
89.88094,89.949394,90,127,40
89.95237,90.02082,88,127,40
90.023796,90.092255,88,127,40
90.09523,90.16368,81,127,40
90.16666,90.23511,81,127,40
90.23808,90.30653,78,127,40
90.30952,90.37797,78,127,40
90.38094,90.449394,76,127,40
90.45237,90.52082,76,127,40
90.523796,90.592255,78,127,40
90.59523,90.66368,78,127,40
90.66666,90.73511,76,127,40
90.73808,90.80653,76,127,40
90.80951,90.87797,69,127,40
90.88094,90.949394,69,127,40
90.95237,91.02082,66,127,40
91.023796,91.09225,66,127,40
91.09523,91.16368,64,127,40
91.16666,91.23511,64,127,40
91.23808,91.30653,66,127,40
91.30951,91.37797,66,127,40
91.38094,91.449394,64,127,40
91.45237,91.52082,64,127,40
91.523796,91.59225,61,127,40
91.59523,91.66368,61,127,40
91.66666,91.73511,57,127,40
91.73808,91.80653,57,127,40
91.80951,91.87797,64,127,40
91.88094,91.949394,64,127,40
91.95237,92.02082,66,127,40
92.023796,92.09225,66,127,40
92.09522,92.16368,64,127,40
92.16666,92.23511,64,127,40
92.23808,92.30653,61,127,40
92.30951,92.37796,61,127,40
92.38094,92.449394,57,127,40
92.45237,92.52082,57,127,40
92.523796,92.55951,55,127,40
92.523796,92.59225,79,127,40
92.55951,92.59522,64,127,40
92.59522,92.62796,73,127,40
92.59522,92.66368,79,127,40
92.66666,92.73511,81,127,40
92.73808,92.80653,81,127,40
92.80951,92.87796,76,127,40
92.88094,92.949394,76,127,40
92.95237,93.02082,77,127,40
93.023796,93.09225,77,127,40
93.09522,93.16368,78,127,40
93.16666,93.23511,78,127,40
93.23808,93.34225,79,127,40
93.380936,93.61903,84,127,40
93.66666,93.80951,82,127,40
93.80951,93.949394,80,127,40
93.95237,94.09225,79,127,40
95.380936,95.44939,67,127,40
95.45236,95.52082,67,127,40
95.523796,95.59225,69,127,40
95.59522,95.66367,69,127,40
95.66665,95.7351,64,127,40
95.73808,95.80653,64,127,40
95.80951,95.87796,65,127,40
95.880936,95.94939,65,127,40
95.95236,96.02082,66,127,40
96.023796,96.09225,66,127,40
96.09522,96.16367,67,127,40
96.16665,96.2351,67,127,40
96.238075,96.30653,69,127,40
96.30951,96.37796,69,127,40
96.380936,96.44939,64,127,40
96.45236,96.52082,64,127,40
96.523796,96.59225,65,127,40
96.59522,96.66367,65,127,40
96.66665,96.7351,66,127,40
96.738075,96.80653,66,127,40
96.80951,97.02081,58,127,40
97.09522,97.47617,58,127,40
97.52379,97.7351,58,127,40
97.80951,98.19046,61,127,40
98.238075,98.306526,57,127,40
98.30951,98.37796,57,127,40
98.380936,98.44939,57,127,40
98.45236,98.52081,57,127,40
98.52379,98.59225,66,127,40
98.59522,98.66367,66,127,40
98.66665,98.7351,66,127,40
98.738075,98.806526,66,127,40
98.8095,98.87796,66,127,40
98.880936,98.94939,66,127,40
98.95236,99.02081,66,127,40
99.02379,99.09224,66,127,40
99.09522,99.16367,66,127,40
99.09522,99.16367,78,127,40
99.16665,99.2351,66,127,40
99.16665,99.2351,78,127,40
99.238075,99.306526,66,127,40
99.238075,99.306526,78,127,40
99.3095,99.37796,66,127,40
99.3095,99.37796,78,127,40
99.380936,99.44939,66,127,40
99.380936,99.44939,78,127,40
99.45236,99.52081,66,127,40
99.45236,99.52081,78,127,40
99.52379,99.59224,66,127,40
99.52379,99.59224,78,127,40
99.595215,99.66367,66,127,40
99.595215,99.66367,78,127,40
99.66665,99.7351,66,127,40
99.66665,99.7351,78,127,40
99.738075,99.806526,66,127,40
99.738075,99.806526,78,127,40
99.8095,99.87795,66,127,40
99.8095,99.87795,78,127,40
99.880936,99.94939,66,127,40
99.880936,99.94939,78,127,40
99.95236,100.02081,66,127,40
99.95236,100.02081,78,127,40
100.02379,100.09224,66,127,40
100.02379,100.09224,78,127,40
100.095215,100.16367,66,127,40
100.095215,100.16367,78,127,40
100.16665,100.2351,66,127,40
100.16665,100.2351,78,127,40
100.238075,100.306526,66,127,40
100.238075,100.306526,78,127,40
100.3095,100.37795,66,127,40
100.3095,100.37795,78,127,40
100.380936,100.44939,66,127,40
100.380936,100.44939,78,127,40
100.45236,100.52081,66,127,40
100.45236,100.52081,78,127,40
100.52379,100.59224,66,127,40
100.52379,100.59224,78,127,40
100.595215,100.66367,66,127,40
100.595215,100.66367,78,127,40
100.66665,100.7351,66,127,40
100.66665,100.7351,78,127,40
100.738075,100.806526,66,127,40
100.738075,100.806526,78,127,40
100.8095,100.87795,78,127,40
100.88093,100.94939,78,127,40
100.95236,101.02081,78,127,40
101.02379,101.09224,78,127,40
101.095215,101.163666,78,127,40
101.16665,101.2351,78,127,40
101.238075,101.306526,78,127,40
101.3095,101.37795,78,127,40
101.38093,101.44939,90,127,40
101.45236,101.52081,90,127,40
101.52379,101.59224,90,127,40
101.595215,101.663666,90,127,40
101.66664,101.7351,90,127,40
101.738075,101.806526,90,127,40
101.8095,101.87795,90,127,40
101.88093,101.94939,90,127,40
101.95236,102.02081,88,127,40
102.02379,102.09224,88,127,40
102.095215,102.163666,88,127,40
102.16664,102.2351,88,127,40
102.238075,102.306526,90,127,40
102.3095,102.37795,90,127,40
102.38093,102.44938,90,127,40
102.45236,102.52081,90,127,40
102.52379,102.59224,85,127,40
102.595215,102.663666,85,127,40
102.66664,102.7351,85,127,40
102.738075,102.806526,85,127,40
102.8095,102.87795,83,127,40
102.88093,102.94938,83,127,40
102.952354,103.02081,83,127,40
103.02379,103.09224,83,127,40
103.095215,103.163666,85,127,40
103.16664,103.23509,85,127,40
103.238075,103.306526,85,127,40
103.3095,103.37795,85,127,40
103.38093,103.44938,78,127,40
103.452354,103.52081,78,127,40
103.52379,103.59224,78,127,40
103.595215,103.663666,78,127,40
103.66664,103.73509,76,127,40
103.738075,103.806526,76,127,40
103.8095,103.87795,76,127,40
103.88093,103.94938,76,127,40
103.952354,104.02081,78,127,40
104.02379,104.09224,78,127,40
104.095215,104.163666,78,127,40
104.16664,104.23509,78,127,40
104.23807,104.306526,73,127,40
104.3095,104.37795,73,127,40
104.38093,104.44938,73,127,40
104.452354,104.520805,73,127,40
104.52379,104.59224,71,127,40
104.595215,104.663666,71,127,40
104.66664,104.73509,71,127,40
104.73807,104.806526,71,127,40
104.8095,104.87795,73,127,40
104.88093,104.94938,73,127,40
104.952354,105.020805,73,127,40
105.02378,105.09224,73,127,40
105.095215,105.163666,66,127,40
105.16664,105.23509,66,127,40
105.23807,105.30652,66,127,40
105.3095,105.37795,66,127,40
105.38093,105.44938,64,127,40
105.452354,105.520805,64,127,40
105.52378,105.59224,64,127,40
105.595215,105.663666,64,127,40
105.66664,105.73509,66,127,40
105.73807,105.80652,66,127,40
105.8095,105.87795,66,127,40
105.88093,105.94938,66,127,40
105.952354,106.020805,66,127,40
106.02378,106.09224,66,127,40
106.095215,106.163666,66,127,40
106.16664,106.23509,66,127,40
106.23807,106.30652,64,127,40
106.309494,106.37795,64,127,40
106.38093,106.44938,64,127,40
106.452354,106.520805,64,127,40
106.52378,106.59223,66,127,40
106.595215,106.663666,66,127,40
106.66664,106.73509,66,127,40
106.73807,106.80652,66,127,40
106.809494,107.09521,66,127,40
107.09521,107.38093,64,127,40
107.38093,108.06664,66,127,40
108.06664,108.46664,64,127,40
108.46664,109.15235,66,127,40
109.15235,109.438065,64,127,40
109.438065,110.0095,66,127,40
110.0095,110.15235,61,127,40
110.15235,110.29521,59,127,40
110.29521,110.438065,61,127,40
110.438065,110.580925,66,127,40
110.580925,110.86664,66,127,40
110.86664,111.10473,61,127,40
111.15235,111.39045,64,127,40
111.438065,111.72378,66,127,40
111.438065,112.00949,55,127,40
111.72378,112.00949,64,127,40
112.295204,112.58092,55,127,40
112.00949,112.58092,66,127,40
112.58092,112.72378,61,127,40
112.72378,112.86664,59,127,40
112.86664,113.00949,61,127,40
113.00949,113.15235,66,127,40
113.15235,113.438065,55,127,40
113.15235,113.438065,66,127,40
113.438065,113.676155,61,127,40
113.72378,113.96187,64,127,40
114.295204,114.58092,66,127,40
114.58092,114.86663,69,127,40
114.86663,115.15234,71,127,40
115.15234,115.295204,69,127,40
115.295204,115.438065,71,127,40
115.438065,115.72378,66,127,40
115.72378,115.86663,64,127,40
115.86663,116.00949,66,127,40
116.00949,116.295204,62,127,40
116.295204,116.533295,64,127,40
116.86663,117.15234,62,127,40
116.86663,117.15234,70,127,40
117.15234,117.43806,63,127,40
117.43806,117.72377,62,127,40
117.43806,117.72377,70,127,40
117.72377,117.86663,60,127,40
117.86663,118.00948,58,127,40
118.00948,118.295204,60,127,40
118.295204,118.58092,70,127,40
118.295204,118.81901,62,127,40
118.58092,118.81901,69,127,40
118.86663,119.10472,63,127,40
120.58091,120.86663,62,127,40
120.58091,121.15234,74,127,40
121.15234,121.43806,77,127,40
121.43806,121.72377,79,127,40
121.72377,121.86662,77,127,40
121.86662,122.00948,79,127,40
122.00948,122.2952,74,127,40
122.2952,122.43806,72,127,40
122.43806,122.58091,74,127,40
122.58091,122.86662,70,127,40
122.86662,123.10472,72,127,40
123.72377,124.00948,67,127,40
124.00948,124.2952,65,127,40
124.2952,124.58091,67,127,40
124.58091,124.72376,62,127,40
124.72376,124.86365,60,127,40
124.86662,125.00948,62,127,40
125.00948,125.14936,67,127,40
126.5452,126.58091,55,127,40
126.5452,126.58091,62,127,40
126.58091,127.152336,81,127,40
126.58091,127.29221,69,127,40
127.152336,127.29221,76,127,40
128.00948,128.2952,67,127,40
128.2952,128.5809,65,127,40
128.5809,128.86662,67,127,40
128.86662,129.00948,62,127,40
129.00948,129.15233,60,127,40
129.15233,129.2952,62,127,40
129.2952,129.43507,67,127,40
130.79518,130.8309,55,127,40
130.8309,130.86662,62,127,40
130.86662,131.39043,81,127,40
130.86662,131.57793,69,127,40
131.43805,131.57793,76,127,40
131.72375,132.29518,59,127,40
132.29518,132.43507,57,127,40
132.86661,133.0065,57,127,40
133.15233,133.53328,60,127,40
133.5809,133.72078,63,127,40
133.86661,134.24756,66,127,40
134.29518,134.43506,69,127,40
134.5809,134.96185,72,127,40
135.00948,135.14935,75,127,40
135.29518,135.67613,78,127,40
135.72375,135.7922,80,127,40
135.79518,135.86363,80,127,40
135.86661,135.93506,82,127,40
135.93803,136.0065,82,127,40
136.00948,136.07793,77,127,40
136.0809,136.14935,77,127,40
136.15233,136.22078,78,127,40
136.22375,136.2922,78,127,40
136.29518,136.36363,79,127,40
136.36661,136.43506,79,127,40
136.43803,136.50648,80,127,40
136.50948,136.57793,80,127,40
136.5809,136.64935,82,127,40
136.65233,136.72078,82,127,40
136.72375,136.7922,77,127,40
136.79518,136.86363,77,127,40
136.86661,136.93506,78,127,40
136.93803,137.00648,78,127,40
137.00946,137.07793,79,127,40
137.0809,137.14935,79,127,40
137.15233,137.22078,80,127,40
137.22375,137.2922,80,127,40
137.29518,137.36363,82,127,40
137.36661,137.43506,82,127,40
137.43803,137.50648,77,127,40
137.50946,137.57793,77,127,40
137.5809,137.64935,78,127,40
137.65233,137.72078,78,127,40
137.72375,137.7922,79,127,40
137.79518,137.86363,79,127,40
137.86661,137.93506,80,127,40
137.93803,138.00648,80,127,40
138.00946,138.07793,82,127,40
138.0809,138.14935,82,127,40
138.15233,138.22078,77,127,40
138.22375,138.2922,77,127,40
138.29518,138.36363,78,127,40
138.36661,138.43506,78,127,40
138.43803,138.50648,79,127,40
138.50946,138.57791,79,127,40
138.5809,138.64935,80,127,40
138.65233,138.72078,80,127,40
138.72375,138.7922,82,127,40
138.79518,138.86363,82,127,40
138.86661,138.93506,80,127,40
138.93803,139.00648,80,127,40
139.00946,139.07791,77,127,40
139.0809,139.14935,77,127,40
139.15233,139.22078,75,127,40
139.22375,139.2922,75,127,40
139.29518,139.36363,74,127,40
139.36661,139.43506,74,127,40
139.43803,139.50648,76,127,40
139.50946,139.57791,76,127,40
139.58089,139.64935,74,127,40
139.65233,139.72078,74,127,40
139.72375,139.7922,71,127,40
139.79518,139.86363,71,127,40
139.86661,139.93506,69,127,40
139.93803,140.00648,69,127,40
140.00946,140.07791,68,127,40
140.08089,140.14935,68,127,40
140.15233,140.22078,70,127,40
140.22375,140.2922,70,127,40
140.29518,140.36363,68,127,40
140.36661,140.43506,68,127,40
140.43803,140.50648,65,127,40
140.50946,140.57791,65,127,40
140.58089,140.64934,63,127,40
140.65233,140.72078,63,127,40
140.72375,140.7922,62,127,40
140.79518,140.86363,62,127,40
140.86661,140.93506,64,127,40
140.93803,141.00648,64,127,40
141.00946,141.07791,62,127,40
141.08089,141.14934,62,127,40
141.15233,141.22078,59,127,40
141.22375,141.2922,59,127,40
141.29518,141.36363,62,127,40
141.36661,141.43506,62,127,40
141.43803,141.50648,62,127,40
141.50946,141.57791,62,127,40
141.58089,141.64934,64,127,40
141.65231,141.72078,64,127,40
141.72375,141.7922,62,127,40
141.79518,141.86363,62,127,40
141.86661,141.93506,59,127,40
141.93803,142.00648,59,127,40
142.00946,142.07791,62,127,40
142.08089,142.14934,62,127,40
142.15231,142.22078,62,127,40
142.22375,142.2922,62,127,40
142.29518,142.36363,64,127,40
142.36661,142.43506,64,127,40
142.43803,142.50648,62,127,40
142.50946,142.57791,62,127,40
142.58089,142.64934,59,127,40
142.65231,142.72078,59,127,40
142.72375,142.7922,62,127,40
142.79518,142.86363,62,127,40
142.86661,142.93506,64,127,40
142.93803,143.00648,64,127,40
143.00946,143.07791,65,127,40
143.08089,143.14934,65,127,40
143.15231,143.22076,62,127,40
143.22375,143.2922,62,127,40
143.29518,143.36363,63,127,40
143.36661,143.43506,63,127,40
143.43803,143.50648,64,127,40
143.50946,143.57791,64,127,40
143.58089,143.7922,64,127,40
143.86661,144.24756,59,127,40
144.29518,144.36363,64,127,40
144.36661,144.43506,64,127,40
144.43803,144.50648,65,127,40
144.50946,144.57791,65,127,40
144.58089,144.64934,62,127,40
144.65231,144.72076,62,127,40
144.72374,144.7922,63,127,40
144.79518,144.86363,63,127,40
144.86661,144.93506,64,127,40
144.93803,145.00648,64,127,40
145.00946,145.22076,64,127,40
145.29518,145.67613,59,127,40
145.72374,145.86363,56,127,40
145.72374,145.86363,64,127,40
147.43803,147.72374,76,127,40
147.72374,147.96184,83,127,40
148.00946,148.10469,81,127,40
148.10469,148.19994,83,127,40
148.19994,148.29517,84,127,40
148.29517,148.43803,81,127,40
148.43803,148.58089,79,127,40
148.58089,148.81898,76,127,40
148.8666,149.00946,77,127,40
149.00946,149.15231,81,127,40
149.15231,149.39041,83,127,40
150.00946,150.29517,64,127,40
150.29517,150.58089,71,127,40
150.58089,150.67612,69,127,40
150.67612,150.77136,71,127,40
150.77136,150.8666,72,127,40
150.8666,151.00946,69,127,40
151.00946,151.15231,67,127,40
151.15231,151.43802,64,127,40
151.43802,151.58089,65,127,40
151.58089,151.72374,69,127,40
151.72374,152.22374,71,127,40
152.58089,153.43802,65,127,40
153.43802,154.22374,66,127,40
154.29517,155.15231,65,127,40
155.15231,155.93802,66,127,40
156.00945,156.8666,65,127,40
156.8666,157.72374,66,127,40
157.72374,158.66959,67,127,40
158.66959,159.6337,68,127,40
159.72662,160.10162,64,127,40
160.10162,160.47662,62,127,40
160.47662,161.22662,64,127,40
161.22662,161.97662,62,127,40
161.97662,162.72662,64,127,40
159.72662,162.72662,69,127,40
162.72662,163.72662,62,127,40
163.72662,164.60162,64,127,40
162.72662,164.60162,69,127,40
165.02663,165.32663,81,127,40
165.32663,165.62663,79,127,40
165.62663,165.92664,81,127,40
165.92664,166.07663,76,127,40
166.07663,166.22662,74,127,40
166.22662,166.37663,76,127,40
166.37663,166.52663,81,127,40
166.52663,166.82663,81,127,40
166.82663,167.12663,76,127,40
167.12663,167.37663,79,127,40
167.72662,168.02663,81,127,40
168.02663,168.32663,79,127,40
168.32663,168.62663,81,127,40
168.62663,168.77663,76,127,40
168.77663,168.92664,74,127,40
168.92664,169.07663,76,127,40
169.07663,169.22662,81,127,40
169.22662,169.52663,81,127,40
169.52663,169.82663,76,127,40
169.82663,169.97351,79,127,40
170.12663,170.42664,81,127,40
170.42664,170.72662,84,127,40
170.72662,171.02663,86,127,40
171.02663,171.17664,84,127,40
171.17664,171.32663,86,127,40
171.32663,171.62663,81,127,40
171.62663,171.77663,79,127,40
171.77663,171.92664,81,127,40
171.92664,172.22662,77,127,40
172.22662,172.75163,79,127,40
172.82663,173.12663,65,127,40
173.12663,173.72662,67,127,40
173.72662,174.02663,64,127,40
174.02663,174.55164,65,127,40
174.62663,174.77663,66,127,40
174.77663,174.92664,69,127,40
174.92664,175.07663,67,127,40
175.07663,175.22662,69,127,40
175.22662,175.52663,64,127,40
175.52663,176.05164,65,127,40
176.12663,176.67664,66,127,40
176.72662,177.57663,67,127,40
177.62663,177.92664,66,127,40
177.92664,178.17664,67,127,40
178.22662,178.52663,69,127,40
178.52663,178.77663,71,127,40
178.82663,179.42923,72,127,40
179.42923,179.68744,76,127,40
179.73979,180.725,81,127,40
180.725,181.28114,84,127,40
182.78412,183.06984,62,127,40
183.06984,183.64127,67,127,40
183.64127,183.73651,65,127,40
183.73651,183.83174,67,127,40
183.83174,183.92699,69,127,40
183.92699,184.21269,67,127,40
184.21269,184.35555,65,127,40
184.35555,184.49841,64,127,40
184.49841,184.87936,60,127,40
184.92699,185.06984,60,127,40
185.06984,185.21269,62,127,40
185.21269,185.35555,65,127,40
185.35555,186.21269,67,127,40
186.21269,186.30794,65,127,40
186.30794,186.40317,67,127,40
186.40317,186.49841,69,127,40
186.49841,186.78412,67,127,40
186.78412,186.92697,65,127,40
186.92697,187.06984,64,127,40
187.06984,187.57074,60,127,40
187.57074,187.76173,60,127,40
187.76599,187.97513,62,127,40
187.9798,188.21089,65,127,40
188.21606,188.81606,65,127,40
188.81606,189.41606,62,127,40
189.41606,189.71606,57,127,40
189.71606,190.01605,55,127,40
190.01605,190.61606,77,127,40
190.61606,191.21606,74,127,40
191.21606,191.51605,69,127,40
191.51605,191.76605,65,127,40
191.81606,192.41606,57,127,40
192.41606,193.01605,62,127,40
193.01605,193.61606,65,127,40
193.61606,194.14105,69,127,40
194.21606,194.76605,74,127,40
194.81606,195.34106,77,127,40
195.41606,195.48793,81,127,40
195.49106,195.56293,81,127,40
195.56606,195.63794,81,127,40
195.64105,195.71294,81,127,40
195.71606,195.78793,81,127,40
195.79106,195.86293,81,127,40
195.86606,195.93793,81,127,40
195.94106,196.01294,81,127,40
196.01605,196.08794,86,127,40
196.09106,196.16293,86,127,40
196.16606,196.23793,86,127,40
196.24106,196.31293,86,127,40
196.31606,196.38794,86,127,40
196.39105,196.46294,86,127,40
196.46606,196.53793,86,127,40
196.54106,196.61293,86,127,40
196.61606,196.68793,89,127,40
196.69106,196.76294,89,127,40
196.76605,196.83794,89,127,40
196.84106,196.91293,89,127,40
196.91606,196.98793,89,127,40
196.99106,197.06293,89,127,40
197.06606,197.13794,89,127,40
197.14105,197.21294,89,127,40
197.21606,197.28793,81,127,40
197.21606,197.28793,93,127,40
197.29106,197.36293,81,127,40
197.29106,197.36293,93,127,40
197.36606,197.43793,81,127,40
197.36606,197.43793,93,127,40
197.44106,197.51294,81,127,40
197.44106,197.51294,93,127,40
197.51605,197.58794,81,127,40
197.51605,197.58794,93,127,40
197.59106,197.66293,81,127,40
197.59106,197.66293,93,127,40
197.66606,197.73793,81,127,40
197.66606,197.73793,93,127,40
197.74106,197.81293,81,127,40
197.74106,197.81293,93,127,40
197.81606,197.88794,81,127,40
197.81606,197.88794,93,127,40
197.89105,197.96294,81,127,40
197.89105,197.96294,93,127,40
197.96606,198.03793,81,127,40
197.96606,198.03793,93,127,40
198.04106,198.11293,81,127,40
198.04106,198.11293,93,127,40
198.11606,198.18793,81,127,40
198.11606,198.18793,93,127,40
198.19106,198.26294,81,127,40
198.19106,198.26294,93,127,40
198.26605,198.33794,81,127,40
198.26605,198.33794,93,127,40
198.34106,198.41293,81,127,40
198.34106,198.41293,93,127,40
198.41606,198.48793,76,127,40
198.41606,198.48793,88,127,40
198.49106,198.56293,76,127,40
198.49106,198.56293,88,127,40
198.56606,198.63794,76,127,40
198.56606,198.63794,88,127,40
198.64105,198.71294,76,127,40
198.64105,198.71294,88,127,40
198.71606,198.78793,76,127,40
198.71606,198.78793,88,127,40
198.79106,198.86293,76,127,40
198.79106,198.86293,88,127,40
198.86606,198.93793,76,127,40
198.86606,198.93793,88,127,40
198.94106,199.01294,76,127,40
198.94106,199.01294,88,127,40
199.01605,199.08794,69,127,40
199.01605,199.08794,81,127,40
199.09106,199.16293,69,127,40
199.09106,199.16293,81,127,40
199.16606,199.23793,69,127,40
199.16606,199.23793,81,127,40
199.24106,199.31293,69,127,40
199.24106,199.31293,81,127,40
199.31606,199.38794,69,127,40
199.31606,199.38794,81,127,40
199.39105,199.46294,69,127,40
199.39105,199.46294,81,127,40
199.46606,199.53793,69,127,40
199.46606,199.53793,81,127,40
199.54106,199.61293,69,127,40
199.54106,199.61293,81,127,40
199.61606,199.68793,69,127,40
199.61606,199.68793,81,127,40
199.69106,199.76294,69,127,40
199.69106,199.76294,81,127,40
199.76605,199.83794,69,127,40
199.76605,199.83794,81,127,40
199.84106,199.91293,69,127,40
199.84106,199.91293,81,127,40
199.91606,199.98793,69,127,40
199.91606,199.98793,81,127,40
199.99106,200.06293,69,127,40
199.99106,200.06293,81,127,40
200.06606,200.13794,69,127,40
200.06606,200.13794,81,127,40
200.14105,200.21294,69,127,40
200.14105,200.21294,81,127,40
200.21606,200.28793,76,127,40
200.29106,200.36293,76,127,40
200.36606,200.43793,76,127,40
200.44106,200.51294,76,127,40
200.51605,200.58794,76,127,40
200.59106,200.66293,76,127,40
200.66606,200.73793,76,127,40
200.74106,200.81293,76,127,40
200.81606,202.20972,69,127,40
202.20972,203.17142,64,127,40
203.17142,205.20206,69,127,40
205.46419,205.89276,67,127,40
205.89276,206.13086,65,127,40
206.17848,206.60706,67,127,40
206.60706,206.84514,65,127,40
206.89276,207.17848,70,127,40
207.17848,207.41656,65,127,40
207.46419,207.60406,63,127,40
207.60704,208.03561,67,127,40
208.03561,208.27371,65,127,40
208.32133,208.60704,70,127,40
208.60704,208.84514,65,127,40
208.89276,209.03264,63,127,40
209.03561,209.32133,71,127,40
209.32133,210.03264,69,127,40
210.03561,210.10406,61,127,40
210.10704,210.17549,61,127,40
210.17847,210.24693,62,127,40
210.24991,210.31836,62,127,40
210.32133,210.38979,57,127,40
210.39276,210.46121,57,127,40
210.46419,210.53264,59,127,40
210.53561,210.60406,59,127,40
210.60704,210.67549,60,127,40
210.67847,210.74693,60,127,40
210.74991,211.03561,71,127,40
211.03561,211.74692,69,127,40
211.74991,211.81836,61,127,40
211.82133,211.88979,61,127,40
211.89276,211.96121,62,127,40
211.96419,212.03264,62,127,40
212.03561,212.10406,57,127,40
212.10704,212.17549,57,127,40
212.17847,212.24692,59,127,40
212.2499,212.31836,59,127,40
212.32133,212.38979,60,127,40
212.39276,212.46121,60,127,40
212.60704,212.67549,56,127,40
212.67847,212.74692,56,127,40
212.7499,212.81836,57,127,40
212.82133,212.88979,57,127,40
212.89276,212.96121,58,127,40
212.96419,213.03264,58,127,40
213.03561,213.10406,59,127,40
213.10704,213.17549,59,127,40
213.17847,213.24692,62,127,40
213.2499,213.31836,62,127,40
213.32133,213.38979,62,127,40
213.39276,213.46121,62,127,40
213.46419,213.53264,59,127,40
213.53561,213.60406,59,127,40
213.60704,213.67549,60,127,40
213.67847,213.74692,60,127,40
213.7499,213.81834,63,127,40
213.82133,213.88979,63,127,40
213.89276,213.96121,64,127,40
213.96419,214.03264,64,127,40
214.03561,214.10406,69,127,40
214.10704,214.17549,69,127,40
214.17847,214.24692,69,127,40
214.2499,214.31834,69,127,40
214.32132,214.38979,66,127,40
214.39276,214.46121,66,127,40
214.46419,214.53264,67,127,40
214.53561,214.60406,67,127,40
214.60704,214.67549,70,127,40
214.67847,214.74692,70,127,40
214.7499,214.81834,71,127,40
214.82132,214.88979,71,127,40
214.89276,214.96121,76,127,40
214.96419,215.03264,76,127,40
215.03561,215.10406,76,127,40
215.10704,215.17549,76,127,40
215.17847,215.24692,73,127,40
215.2499,215.31834,73,127,40
215.32132,215.38979,74,127,40
215.39276,215.46121,74,127,40
215.46419,215.53264,75,127,40
215.53561,215.60406,75,127,40
215.60704,215.67549,76,127,40
215.67847,215.74692,76,127,40
215.7499,215.81834,79,127,40
215.82132,215.88977,79,127,40
215.89276,216.32132,79,127,40
216.32132,216.55942,77,127,40
216.60704,217.03561,79,127,40
217.03561,217.27371,77,127,40
217.32132,217.60704,82,127,40
217.60704,217.84514,77,127,40
217.89275,218.03264,75,127,40
218.03561,218.46419,79,127,40
218.46419,218.70227,77,127,40
218.7499,219.03561,82,127,40
219.03561,219.2737,77,127,40
219.32132,219.4612,80,127,40
219.46417,219.7499,86,127,40
219.7499,220.55942,84,127,40
220.60704,220.89275,80,127,40
220.89275,221.13084,77,127,40
221.17847,221.46417,86,127,40
221.46417,222.2737,84,127,40
222.32132,222.60704,80,127,40
222.60704,222.84512,77,127,40
222.89275,223.46417,89,127,40
223.46417,223.98799,87,127,40
224.0356,224.32132,85,127,40
224.32132,224.55942,78,127,40
224.60703,225.17845,77,127,40
225.17845,225.70227,75,127,40
225.7499,226.0356,73,127,40
226.0356,226.2737,66,127,40
226.32132,226.4612,65,127,40
226.60703,227.10703,63,127,40
227.17845,227.67845,60,127,40
227.74988,227.88977,65,127,40
228.0356,228.5356,63,127,40
228.60703,229.10703,60,127,40
229.17845,229.31833,65,127,40
229.46417,229.96417,63,127,40
230.0356,230.5356,60,127,40
230.60703,230.7469,77,127,40
230.89275,231.39275,75,127,40
231.46417,231.96417,72,127,40
232.0356,232.2469,89,127,40
232.3213,232.70226,68,127,40
232.3213,232.70226,75,127,40
232.3213,232.70226,84,127,40
232.74988,232.9612,89,127,40
233.0356,233.41655,68,127,40
233.0356,233.41655,75,127,40
233.0356,233.41655,84,127,40
233.46417,233.67548,89,127,40
233.74988,234.13083,68,127,40
233.74988,234.13083,75,127,40
233.74988,234.13083,84,127,40
234.17845,234.2469,69,127,40
234.17845,234.2469,89,127,40
234.24988,234.31833,89,127,40
234.3213,234.38976,91,127,40
234.39273,234.46118,91,127,40
234.46416,234.53262,87,127,40
234.5356,234.60405,87,127,40
234.60703,234.67548,88,127,40
234.67845,234.7469,88,127,40
234.74988,234.81833,89,127,40
234.8213,234.88976,89,127,40
234.89273,234.96118,89,127,40
234.96416,235.03262,89,127,40
235.0356,235.10405,91,127,40
235.10703,235.17548,91,127,40
235.17845,235.2469,87,127,40
235.24988,235.31833,87,127,40
235.3213,235.38976,88,127,40
235.39273,235.46118,88,127,40
235.46416,235.53261,89,127,40
235.5356,235.60405,89,127,40
235.60703,235.67548,89,127,40
235.67845,235.7469,89,127,40
235.74988,235.81833,91,127,40
235.8213,235.88976,91,127,40
235.89273,235.96118,87,127,40
235.96416,236.03261,87,127,40
236.03558,236.10405,88,127,40
236.10703,236.17548,88,127,40
236.17845,236.2469,89,127,40
236.24988,236.31833,89,127,40
236.3213,236.38976,89,127,40
236.39273,236.46118,89,127,40
236.46416,236.53261,91,127,40
236.53558,236.60405,91,127,40
236.60703,236.67548,87,127,40
236.67845,236.7469,87,127,40
236.74988,236.81833,88,127,40
236.8213,236.88976,88,127,40
236.89273,236.96118,89,127,40
236.96416,237.03261,89,127,40
237.03558,237.10405,89,127,40
237.10703,237.17548,89,127,40
237.17845,237.2469,91,127,40
237.24988,237.31833,91,127,40
237.3213,237.38976,87,127,40
237.39273,237.46118,87,127,40
237.46416,237.53261,88,127,40
237.53558,237.60403,88,127,40
237.60703,237.67548,89,127,40
237.67845,237.7469,89,127,40
237.74988,237.81833,89,127,40
237.8213,237.88976,89,127,40
237.89273,237.96118,91,127,40
237.96416,238.03261,91,127,40
238.03558,238.10403,87,127,40
238.10701,238.17548,87,127,40
238.17845,238.2469,88,127,40
238.24988,238.31833,88,127,40
238.3213,238.38976,89,127,40
238.39273,238.46118,89,127,40
238.46416,238.53261,89,127,40
238.53558,238.60403,89,127,40
238.60701,238.67548,91,127,40
238.67845,238.7469,91,127,40
238.74988,238.81833,87,127,40
238.8213,238.88976,87,127,40
238.89273,238.96118,88,127,40
238.96416,239.03261,88,127,40
239.03558,239.10403,89,127,40
239.10701,239.17548,89,127,40
239.17845,239.51178,89,127,40
239.97844,240.05656,57,127,40
240.08955,240.16768,57,127,40
240.20067,240.27359,57,127,40
240.31178,240.38991,57,127,40
240.42288,240.501,57,127,40
240.534,240.60692,57,127,40
240.64511,240.72324,60,127,40
240.75623,240.83435,60,127,40
240.86734,240.94025,60,127,40
240.97844,241.05656,63,127,40
241.08955,241.16768,63,127,40
241.20067,241.27359,63,127,40
241.31178,241.38991,66,127,40
241.42288,241.501,66,127,40
241.534,241.60692,66,127,40
241.64511,241.72324,69,127,40
241.75623,241.83435,69,127,40
241.86732,241.94025,69,127,40
241.97844,242.05656,72,127,40
242.08955,242.16768,72,127,40
242.20067,242.27357,72,127,40
242.31178,242.62428,65,127,40
242.31178,242.62428,72,127,40
242.31178,243.99928,81,127,40
11.65,11.9,57,127,45
35.5,35.75,81,127,45
35.8,36.05,69,127,45
36.1,36.35,57,127,45
38.5,38.75,57,127,45
38.8,39.05,69,127,45
39.1,39.35,81,127,45
61.766666,62.183334,65,127,45
61.766666,62.183334,77,127,45
62.566666,62.816666,65,127,45
62.566666,62.816666,77,127,45
149.43803,149.67612,88,127,45
149.72374,149.96184,76,127,45
181.35556,181.59364,60,127,45
181.35556,181.59364,72,127,45
182.21269,182.45079,60,127,45
182.21269,182.45079,72,127,45
0.0,0.071875,57,127,40
0.075,0.146875,57,120,40
0.15,0.221875,58,120,40
0.225,0.296875,58,120,40
0.3,0.371875,55,120,40
0.375,0.446875,55,120,40
0.45,0.521875,56,120,40
0.525,0.596875,56,120,40
0.6,0.671875,57,120,40
0.675,0.746875,57,120,40
0.75,1.35,61,120,40
0.75,1.35,70,120,40
1.7,1.771875,57,127,40
1.775,1.846875,57,120,40
1.85,1.921875,58,120,40
1.925,1.996875,58,120,40
2.0,2.071875,55,120,40
2.075,2.146875,55,120,40
2.15,2.221875,56,120,40
2.225,2.296875,56,120,40
2.3,2.371875,57,120,40
2.375,2.446875,57,120,40
2.45,3.05,63,120,40
2.45,3.05,73,120,40
3.4,3.471875,57,127,40
3.475,3.546875,57,120,40
3.55,3.621875,58,120,40
3.625,3.696875,58,120,40
3.7,3.771875,55,120,40
3.775,3.846875,55,120,40
3.85,3.921875,56,120,40
3.925,3.996875,56,120,40
4.0,4.071875,57,120,40
4.075,4.146875,57,120,40
4.15,4.221875,69,127,40
4.225,4.296875,69,120,40
4.3,4.371875,70,120,40
4.375,4.446875,70,120,40
4.45,4.521875,67,120,40
4.525,4.596875,67,120,40
4.6,4.671875,68,120,40
4.675,4.746875,68,120,40
4.75,4.821875,69,120,40
4.825,4.859375,69,120,40
4.8625,4.9,57,120,40
4.8625,4.9,64,120,40
4.9,5.046875,69,120,40
4.9,5.046875,76,120,40
10.9,10.971875,69,127,40
10.975,11.046875,69,120,40
11.05,11.121875,70,120,40
11.125,11.196875,70,120,40
11.2,11.271875,67,120,40
11.275,11.346875,67,120,40
11.35,11.421875,68,120,40
11.425,11.496875,68,120,40
11.5,11.571875,69,120,40
11.575,11.646875,69,120,40
11.65,11.796875,69,127,40
13.9,13.971875,65,120,40
13.975,14.046875,65,120,40
14.05,14.121875,66,120,40
14.125,14.196875,66,120,40
14.2,14.271875,63,120,40
14.275,14.346875,63,120,40
14.35,14.421875,64,120,40
14.425,14.496875,64,120,40
14.5,14.571875,65,120,40
14.575,14.646875,65,120,40
14.65,14.721875,65,120,40
14.725,14.796875,65,120,40
14.8,14.871875,66,120,40
14.875,14.946875,66,120,40
14.95,15.021875,63,120,40
15.025,15.096875,63,120,40
15.1,15.171875,64,120,40
15.175,15.246875,64,120,40
15.25,15.321875,65,120,40
15.325,15.396875,65,120,40
15.4,15.471875,65,120,40
15.475,15.546875,65,120,40
15.55,15.621875,66,120,40
15.625,15.696875,66,120,40
15.7,15.771875,67,120,40
15.775,15.846875,67,120,40
15.85,15.921875,68,120,40
15.925,15.996875,68,120,40
16.0,16.071875,69,120,40
16.075,16.146875,69,120,40
16.15,16.221874,69,120,40
16.225,16.296875,69,120,40
16.3,16.371876,70,120,40
16.375,16.446875,70,120,40
16.45,16.521875,71,120,40
16.525,16.596874,71,120,40
16.6,16.671875,72,120,40
16.675,16.746876,72,120,40
16.75,16.821875,73,120,40
16.825,16.896875,73,120,40
16.9,16.971874,73,127,40
16.975,17.046875,73,120,40
17.05,17.121876,72,120,40
17.125,17.196875,72,120,40
17.2,17.271875,71,120,40
17.275,17.346874,71,120,40
17.35,17.421875,70,120,40
17.425,17.496876,70,120,40
17.5,17.571875,69,120,40
17.575,17.646875,69,120,40
17.65,17.721874,73,127,40
17.725,17.796875,73,120,40
17.8,17.871876,72,120,40
17.875,17.946875,72,120,40
17.95,18.021875,71,120,40
18.025,18.096874,71,120,40
18.1,18.171875,70,120,40
18.175,18.246876,70,120,40
18.25,18.321875,69,120,40
18.325,18.396875,69,120,40
18.4,18.471874,73,120,40
18.475,18.546875,73,120,40
18.55,18.621876,74,120,40
18.625,18.696875,74,120,40
18.7,18.771875,75,120,40
18.775,18.846874,75,120,40
18.85,18.921875,76,120,40
18.925,18.996876,76,120,40
19.0,19.071875,77,120,40
19.075,19.146875,77,120,40
19.15,19.221874,77,120,40
19.225,19.296875,77,120,40
19.3,19.371876,78,120,40
19.375,19.446875,78,120,40
19.45,19.521875,79,120,40
19.525,19.596874,79,120,40
19.6,19.671875,80,120,40
19.675,19.746876,80,120,40
19.75,19.821875,81,120,40
19.825,19.896875,81,120,40
19.9,19.971874,70,120,40
19.9,19.971874,76,120,40
19.975,20.046875,70,120,40
19.975,20.046875,76,120,40
20.05,20.121876,70,120,40
20.05,20.121876,76,120,40
20.125,20.196875,70,120,40
20.125,20.196875,76,120,40
20.2,20.271875,70,120,40
20.2,20.271875,76,120,40
20.275,20.346874,70,120,40
20.275,20.346874,76,120,40
20.35,20.421875,70,120,40
20.35,20.421875,76,120,40
20.425,20.496876,70,120,40
20.425,20.496876,76,120,40
20.5,20.571875,70,120,40
20.5,20.571875,76,120,40
20.575,20.646875,70,120,40
20.575,20.646875,76,120,40
20.65,20.721874,70,120,40
20.65,20.721874,76,120,40
20.725,20.796875,70,120,40
20.725,20.796875,76,120,40
20.8,20.871876,70,120,40
20.8,20.871876,76,120,40
20.875,20.946875,70,120,40
20.875,20.946875,76,120,40
20.95,21.021875,70,120,40
20.95,21.021875,76,120,40
21.025,21.096874,70,120,40
21.025,21.096874,76,120,40
21.1,21.171875,70,120,40
21.1,21.171875,76,120,40
21.175,21.246876,70,120,40
21.175,21.246876,76,120,40
21.25,21.321875,70,120,40
21.25,21.321875,76,120,40
21.325,21.396875,70,120,40
21.325,21.396875,76,120,40
21.4,21.471874,70,120,40
21.4,21.471874,76,120,40
21.475,21.546875,70,120,40
21.475,21.546875,76,120,40
21.55,21.621876,70,120,40
21.55,21.621876,76,120,40
21.625,21.696875,70,120,40
21.625,21.696875,76,120,40
21.7,21.771875,70,120,40
21.7,21.771875,76,120,40
21.775,21.846874,70,120,40
21.775,21.846874,76,120,40
21.85,21.921875,70,120,40
21.85,21.921875,76,120,40
21.925,21.996876,70,120,40
21.925,21.996876,76,120,40
22.0,22.071875,70,120,40
22.0,22.071875,76,120,40
22.075,22.146875,70,120,40
22.075,22.146875,76,120,40
22.15,22.221874,70,120,40
22.15,22.221874,76,120,40
22.225,22.296875,70,120,40
22.225,22.296875,76,120,40
22.3,22.371876,70,120,40
22.3,22.371876,76,120,40
22.375,22.446875,70,120,40
22.375,22.446875,76,120,40
22.45,22.521875,70,120,40
22.45,22.521875,76,120,40
22.525,22.596874,70,120,40
22.525,22.596874,76,120,40
22.6,22.671875,70,120,40
22.6,22.671875,76,120,40
22.675,22.746876,70,120,40
22.675,22.746876,76,120,40
22.75,22.821875,70,120,40
22.75,22.821875,76,120,40
22.825,22.896875,70,120,40
22.825,22.896875,76,120,40
22.9,22.971874,70,127,40
22.9,22.971874,76,127,40
22.975,23.046875,76,120,40
23.05,23.121876,82,120,40
23.125,23.196875,82,120,40
23.2,23.271875,80,120,40
23.275,23.346874,80,120,40
23.35,23.421875,78,120,40
23.425,23.496876,78,120,40
23.5,23.571875,76,120,40
23.575,23.646875,76,120,40
23.65,23.721874,74,127,40
23.725,23.796875,74,120,40
23.8,23.871876,76,120,40
23.875,23.946875,76,120,40
23.95,24.021875,74,120,40
24.025,24.096874,74,120,40
24.1,24.171875,72,120,40
24.175,24.246876,72,120,40
24.25,24.321875,70,120,40
24.325,24.396875,70,120,40
24.4,24.471874,68,127,40
24.475,24.546875,68,120,40
24.55,24.621876,70,120,40
24.625,24.696875,70,120,40
24.7,24.771875,68,120,40
24.775,24.846874,68,120,40
24.85,24.921875,66,120,40
24.925,24.996876,66,120,40
25.0,25.071875,64,120,40
25.075,25.146875,64,120,40
25.15,25.2,62,127,40
25.225,25.275,62,120,40
25.3,25.35,64,120,40
25.375,25.425,64,120,40
25.45,25.5,62,120,40
25.525,25.575,62,120,40
25.6,25.65,60,120,40
25.675,25.725,60,120,40
25.75,25.8,58,120,40
25.825,25.875,58,120,40
25.9,25.971874,62,127,40
25.975,26.046875,62,120,40
26.05,26.121876,64,120,40
26.125,26.196875,64,120,40
26.2,26.271875,62,120,40
26.275,26.346874,62,120,40
26.35,26.421875,60,120,40
26.425,26.496876,60,120,40
26.5,26.571875,58,120,40
26.575,26.646875,58,120,40
26.65,26.721874,62,127,40
26.725,26.796875,62,120,40
26.8,26.871876,64,120,40
26.875,26.946875,64,120,40
26.95,27.021875,62,120,40
27.025,27.096874,62,120,40
27.1,27.171875,60,120,40
27.175,27.246876,60,120,40
27.25,27.321875,58,120,40
27.325,27.396875,58,120,40
27.4,27.621876,61,120,40
27.7,28.1,58,127,40
28.15,28.221874,57,127,40
28.225,28.296875,57,120,40
28.3,28.371876,58,120,40
28.375,28.446875,58,120,40
28.45,28.521875,55,120,40
28.525,28.596874,55,120,40
28.6,28.671875,56,120,40
28.675,28.746876,56,120,40
28.75,28.821875,57,120,40
28.825,28.896875,57,120,40
28.9,29.121876,61,120,40
29.2,29.6,58,127,40
29.65,29.721874,57,127,40
29.725,29.796875,57,120,40
29.8,29.871876,58,120,40
29.875,29.946875,58,120,40
29.95,30.021875,55,120,40
30.025,30.096874,55,120,40
30.1,30.171875,56,120,40
30.175,30.246876,56,120,40
30.25,30.321875,57,120,40
30.325,30.396875,57,120,40
30.4,30.471874,57,127,40
30.475,30.546875,57,120,40
30.55,30.621876,58,120,40
30.625,30.696875,58,120,40
30.7,30.771875,55,120,40
30.775,30.846874,55,120,40
30.85,30.921875,56,120,40
30.925,30.996876,56,120,40
31.0,31.071875,57,120,40
31.075,31.146875,57,120,40
31.15,31.296875,57,120,40
31.9,31.975,69,120,40
31.975,32.046875,93,120,40
32.05,32.125,93,120,40
32.125,32.196877,69,120,40
32.2,32.275,69,120,40
32.275,32.346874,93,120,40
32.35,32.425,93,120,40
32.425,32.496876,69,120,40
32.5,32.575,69,120,40
32.575,32.646873,93,120,40
32.65,32.725,93,120,40
32.725,32.796875,69,120,40
32.8,32.875,69,120,40
32.875,32.946877,93,120,40
32.95,33.025,93,120,40
33.025,33.096874,69,120,40
33.1,33.175,69,120,40
33.175,33.246876,93,120,40
33.25,33.325,93,120,40
33.325,33.396873,69,120,40
33.4,33.475,69,120,40
33.475,33.546875,93,120,40
33.55,33.625,93,120,40
33.625,33.696877,69,120,40
33.7,33.775,69,120,40
33.775,33.846874,93,120,40
33.85,33.925,93,120,40
33.925,33.996876,69,120,40
34.0,34.075,69,120,40
34.075,34.146873,93,120,40
34.15,34.225,93,120,40
34.225,34.296875,69,120,40
34.3,34.375,69,120,40
34.375,34.446877,93,120,40
34.45,34.525,93,120,40
34.525,34.596874,69,120,40
34.6,34.675,69,120,40
34.675,34.746876,93,120,40
34.75,34.825,93,120,40
34.825,34.896873,69,120,40
34.9,34.975,69,120,40
34.975,35.046875,93,120,40
35.05,35.125,93,120,40
35.125,35.196877,69,120,40
35.2,35.275,69,120,40
35.275,35.346874,93,120,40
35.35,35.425,93,120,40
35.425,35.496876,69,120,40
35.5,35.575,69,120,40
35.575,35.646873,81,120,40
35.65,35.725,81,120,40
35.725,35.796875,69,120,40
35.8,35.875,69,120,40
35.875,35.946877,81,120,40
35.95,36.025,81,120,40
36.025,36.096874,69,120,40
36.1,36.175,69,120,40
36.175,36.246876,81,120,40
36.25,36.325,81,120,40
36.325,36.396873,69,120,40
36.4,36.475,57,120,40
36.475,36.546875,69,120,40
36.55,36.625,69,127,40
36.625,36.696877,69,120,40
36.7,36.775,57,120,40
36.775,36.846874,69,120,40
36.85,36.925,69,127,40
36.925,36.996876,69,120,40
37.0,37.075,57,120,40
37.075,37.146873,69,120,40
37.15,37.225,69,127,40
37.225,37.296875,69,120,40
37.3,37.375,57,120,40
37.375,37.446877,69,120,40
37.45,37.525,69,127,40
37.525,37.596874,69,120,40
37.6,37.675,57,120,40
37.675,37.746876,69,120,40
37.75,37.825,69,127,40
37.825,37.896873,69,120,40
37.9,37.975,57,120,40
37.975,38.046875,69,120,40
38.05,38.125,69,127,40
38.125,38.196877,69,120,40
38.2,38.275,57,120,40
38.275,38.346874,69,120,40
38.35,38.425,69,127,40
38.425,38.496876,69,120,40
38.5,38.575,57,120,40
38.575,38.646873,69,120,40
38.65,38.725,69,127,40
38.725,38.796875,69,120,40
38.8,38.875,57,120,40
38.875,38.946877,69,120,40
38.95,39.025,69,127,40
39.025,39.096874,69,120,40
39.1,39.175,69,120,40
39.175,39.246876,81,120,40
39.25,39.325,81,120,40
39.325,39.396873,69,120,40
39.4,39.471874,69,120,40
39.4,39.471874,93,120,40
39.475,39.546875,69,120,40
39.475,39.546875,93,120,40
39.55,39.621876,69,120,40
39.55,39.621876,93,120,40
39.625,39.696877,69,120,40
39.625,39.696877,93,120,40
39.7,39.771873,69,120,40
39.7,39.771873,91,120,40
39.775,39.846874,69,120,40
39.775,39.846874,91,120,40
39.85,39.921875,69,120,40
39.85,39.921875,91,120,40
39.925,39.996876,69,120,40
39.925,39.996876,91,120,40
40.0,40.071877,69,120,40
40.0,40.071877,93,120,40
40.075,40.146873,69,120,40
40.075,40.146873,93,120,40
40.15,40.221874,69,120,40
40.15,40.221874,93,120,40
40.225,40.296875,69,120,40
40.225,40.296875,93,120,40
40.3,40.371876,69,120,40
40.3,40.371876,88,120,40
40.375,40.446877,69,120,40
40.375,40.446877,88,120,40
40.45,40.521873,69,120,40
40.45,40.521873,88,120,40
40.525,40.596874,69,120,40
40.525,40.596874,88,120,40
40.6,40.671875,69,120,40
40.6,40.671875,86,120,40
40.675,40.746876,69,120,40
40.675,40.746876,86,120,40
40.75,40.821877,69,120,40
40.75,40.821877,86,120,40
40.825,40.896873,69,120,40
40.825,40.896873,86,120,40
40.9,40.971874,69,120,40
40.9,40.971874,88,120,40
40.975,41.046875,69,120,40
40.975,41.046875,88,120,40
41.05,41.121876,69,120,40
41.05,41.121876,88,120,40
41.125,41.196877,69,120,40
41.125,41.196877,88,120,40
41.2,41.271873,69,120,40
41.2,41.271873,81,120,40
41.275,41.346874,69,120,40
41.275,41.346874,81,120,40
41.35,41.421875,69,120,40
41.35,41.421875,81,120,40
41.425,41.496876,69,120,40
41.425,41.496876,81,120,40
41.5,41.571877,69,120,40
41.5,41.571877,79,120,40
41.575,41.646873,69,120,40
41.575,41.646873,79,120,40
41.65,41.721874,69,120,40
41.65,41.721874,79,120,40
41.725,41.796875,69,120,40
41.725,41.796875,79,120,40
41.8,41.871876,69,120,40
41.8,41.871876,81,120,40
41.875,41.946877,69,120,40
41.875,41.946877,81,120,40
41.95,42.021873,69,120,40
41.95,42.021873,81,120,40
42.025,42.096874,69,120,40
42.025,42.096874,81,120,40
42.1,42.171875,76,120,40
42.175,42.246876,76,120,40
42.25,42.321877,76,120,40
42.325,42.396873,76,120,40
42.4,42.471874,74,120,40
42.475,42.546875,74,120,40
42.55,42.621876,74,120,40
42.625,42.696877,74,120,40
42.7,42.771873,76,120,40
42.775,42.846874,76,120,40
42.85,42.921875,76,120,40
42.925,42.996876,76,120,40
43.0,43.071877,69,120,40
43.075,43.146873,69,120,40
43.15,43.221874,69,120,40
43.225,43.296875,69,120,40
43.3,43.371876,67,120,40
43.375,43.446877,67,120,40
43.45,43.521873,67,120,40
43.525,43.596874,67,120,40
43.6,43.671875,69,120,40
43.675,43.746876,69,120,40
43.75,43.821877,69,120,40
43.825,43.896873,69,120,40
43.9,43.971874,69,120,40
43.975,44.046875,69,120,40
44.05,44.121876,69,120,40
44.125,44.196877,69,120,40
44.2,44.271873,67,120,40
44.275,44.346874,67,120,40
44.35,44.421875,67,120,40
44.425,44.496876,67,120,40
44.5,44.571877,69,120,40
44.575,44.646873,69,120,40
44.65,44.721874,69,120,40
44.725,44.796875,69,120,40
44.8,45.4,63,120,40
45.4,46.0,65,120,40
46.0,46.6,67,120,40
46.6,46.9,63,120,40
46.9,47.2,65,120,40
47.2,47.45,67,120,40
47.5,48.1,63,120,40
48.1,48.7,65,120,40
48.7,49.3,67,120,40
49.3,49.6,63,120,40
49.6,49.9,65,120,40
49.9,50.15,63,120,40
50.2,50.5,74,120,40
50.5,50.8,73,120,40
50.8,51.1,72,120,40
51.1,51.4,71,120,40
51.4,51.7,70,120,40
51.7,52.0,69,120,40
52.0,52.3,68,120,40
52.3,52.6,67,120,40
52.6,52.9,66,120,40
52.9,53.2,67,120,40
53.2,53.5,66,120,40
53.5,53.8,65,120,40
53.8,54.1,64,120,40
54.1,54.4,65,120,40
54.4,54.65,66,120,40
54.7,55.0,67,120,40
55.0,55.3,66,120,40
55.3,55.6,65,120,40
55.6,55.9,64,120,40
55.9,56.2,65,120,40
56.2,56.5,66,120,40
56.5,56.8,67,120,40
56.8,57.1,66,120,40
57.1,57.4,67,120,40
57.4,57.7,66,120,40
57.7,58.0,67,120,40
58.0,58.3,66,120,40
58.3,58.375,69,120,40
58.375,58.45,65,120,40
58.45,58.525,69,120,40
58.525,58.6,65,120,40
58.6,58.675,71,120,40
58.675,58.75,67,120,40
58.75,58.825,71,120,40
58.825,58.9,67,120,40
58.9,58.975,72,120,40
58.975,59.05,69,120,40
59.05,59.125,72,120,40
59.125,59.2,69,120,40
59.2,59.275,74,120,40
59.275,59.35,71,120,40
59.35,59.425,74,120,40
59.425,59.496876,71,120,40
59.5,59.571877,72,120,40
59.5,59.571877,76,120,40
59.575,59.646873,72,120,40
59.575,59.646873,76,120,40
59.65,59.721874,72,120,40
59.65,59.721874,76,120,40
59.725,59.796875,72,120,40
59.725,59.796875,76,120,40
59.8,59.871876,71,120,40
59.8,59.871876,77,120,40
59.875,59.946877,71,120,40
59.875,59.946877,77,120,40
59.95,60.021873,71,120,40
59.95,60.021873,77,120,40
60.025,60.096874,71,120,40
60.025,60.096874,77,120,40
60.1,62.141666,69,120,40
60.1,62.41354,77,120,40
63.466667,63.541664,77,120,40
63.541664,63.616665,72,120,40
63.616665,63.691666,77,120,40
63.691666,63.766666,72,120,40
63.766666,63.841667,72,120,40
63.841667,63.916664,65,120,40
63.916664,63.991665,72,120,40
63.991665,64.066666,65,120,40
64.066666,64.14166,77,120,40
64.14166,64.21667,72,120,40
64.21667,64.291664,77,120,40
64.291664,64.36667,72,120,40
64.36667,64.441666,72,120,40
64.441666,64.51666,65,120,40
64.51666,64.59167,72,120,40
64.59167,64.666664,65,120,40
64.666664,64.74167,77,120,40
64.74167,64.816666,72,120,40
64.816666,64.89166,77,120,40
64.89166,64.96667,72,120,40
64.96667,65.041664,72,120,40
65.041664,65.11667,65,120,40
65.11667,65.191666,72,120,40
65.191666,65.26666,65,120,40
65.26666,65.34167,77,120,40
65.34167,65.416664,72,120,40
65.416664,65.49167,77,120,40
65.49167,65.566666,72,120,40
65.566666,65.64166,72,120,40
65.64166,65.71667,65,120,40
65.71667,65.791664,72,120,40
65.791664,65.86667,65,120,40
65.86667,65.941666,77,120,40
65.941666,66.01666,72,120,40
66.01666,66.09167,77,120,40
66.09167,66.166664,72,120,40
66.166664,66.24167,72,120,40
66.24167,66.316666,65,120,40
66.316666,66.39166,72,120,40
66.39166,66.46667,65,120,40
66.46667,66.541664,77,120,40
66.541664,66.61667,72,120,40
66.61667,66.691666,77,120,40
66.691666,66.76666,72,120,40
66.76666,66.84167,72,120,40
66.84167,66.916664,65,120,40
66.916664,66.99167,72,120,40
66.99167,67.066666,65,120,40
67.066666,67.14166,77,120,40
67.14166,67.21667,72,120,40
67.21667,67.291664,77,120,40
67.291664,67.36667,72,120,40
67.36667,67.441666,72,120,40
67.441666,67.51666,65,120,40
67.51666,67.59167,72,120,40
67.59167,67.666664,65,120,40
67.666664,67.74167,77,120,40
67.74167,67.816666,72,120,40
67.816666,67.89166,77,120,40
67.89166,67.96667,72,120,40
67.96667,68.05238,72,120,40
68.05238,68.13809,65,120,40
68.13809,68.22381,72,120,40
68.22381,68.309525,65,120,40
68.309525,68.40952,77,120,40
68.40952,68.50952,72,120,40
68.50952,68.60952,77,120,40
68.60952,68.709526,72,120,40
68.709526,68.809525,72,120,40
68.809525,68.90952,65,120,40
68.90952,69.00952,72,120,40
69.00952,69.105354,65,120,40
69.40952,69.709526,77,120,40
69.709526,69.959526,75,120,40
70.00952,70.309525,73,120,40
70.309525,70.834526,71,120,40
71.209526,71.50952,65,120,40
71.50952,71.75952,63,120,40
71.809525,72.10952,61,120,40
72.10952,72.63452,59,120,40
73.00952,73.22381,65,120,40
73.69524,73.94524,63,120,40
74.49524,74.93899,65,120,40
75.09524,75.39524,62,120,40
75.39524,75.99524,61,120,40
75.99524,76.295235,64,120,40
76.295235,76.51711,65,120,40
76.59524,76.89524,62,120,40
76.89524,77.49524,61,120,40
77.49524,77.795235,64,120,40
77.795235,78.01711,65,120,40
78.09524,80.12024,62,120,40
81.09524,81.16369,73,120,40
81.166664,81.235115,73,120,40
81.23809,81.30655,75,120,40
81.309525,81.377975,75,120,40
81.38095,81.4494,70,120,40
81.45238,81.52083,70,120,40
81.52381,81.59226,71,120,40
81.59524,81.66369,71,120,40
81.666664,81.735115,72,120,40
81.73809,81.80655,72,120,40
81.809525,81.91369,73,120,40
81.95238,82.190475,76,127,40
82.23809,82.38095,78,120,40
82.38095,82.52083,75,120,40
82.5238,82.59226,72,120,40
82.59524,82.66369,72,120,40
82.666664,82.735115,75,120,40
82.73809,82.80654,75,120,40
82.809525,82.877975,70,120,40
82.88095,82.9494,70,120,40
82.95238,83.02083,71,120,40
83.0238,83.09226,71,120,40
83.09524,83.16369,72,120,40
83.166664,83.235115,72,120,40
83.23809,83.34226,73,120,40
83.38095,83.61904,76,127,40
83.666664,83.80952,78,120,40
83.80952,83.9494,75,120,40
83.95238,84.0238,82,120,40
84.0238,84.09524,78,120,40
84.09524,84.166664,82,120,40
84.166664,84.235115,78,120,40
84.23809,84.30952,78,120,40
84.30952,84.38095,75,120,40
84.38095,84.45238,78,120,40
84.45238,84.5238,75,120,40
84.5238,84.59523,78,120,40
84.59523,84.66369,75,120,40
84.666664,84.73809,75,120,40
84.73809,84.80952,73,120,40
84.80952,84.88095,75,120,40
84.88095,84.9494,73,120,40
84.95238,85.0238,73,120,40
85.0238,85.09523,70,120,40
85.09523,85.166664,73,120,40
85.166664,85.23809,70,120,40
85.23809,85.30952,73,120,40
85.30952,85.37797,70,120,40
85.38094,85.45238,70,120,40
85.45238,85.5238,66,120,40
85.5238,85.59523,70,120,40
85.59523,85.66368,66,120,40
85.666664,85.73809,66,120,40
85.73809,85.80952,63,120,40
85.80952,85.88094,66,120,40
85.88094,85.95238,63,120,40
85.95238,86.0238,66,120,40
86.0238,86.092255,63,120,40
86.09523,86.166664,63,120,40
86.166664,86.23809,61,120,40
86.23809,86.30952,63,120,40
86.30952,86.37797,61,120,40
86.38094,86.45238,61,120,40
86.45238,86.5238,58,120,40
86.5238,86.59523,61,120,40
86.59523,86.66666,58,120,40
86.66666,86.73809,61,120,40
86.73809,86.80654,58,120,40
86.80952,86.87797,57,120,40
86.80952,86.87797,64,120,40
86.80952,86.87797,69,120,40
86.80952,86.87797,76,120,40
86.88094,86.949394,76,120,40
86.95238,87.02083,78,120,40
87.0238,87.092255,78,120,40
87.09523,87.16368,73,120,40
87.16666,87.235115,73,120,40
87.23809,87.30654,74,120,40
87.30952,87.37797,74,120,40
87.38094,87.449394,75,120,40
87.45237,87.52083,75,120,40
87.5238,87.62797,76,120,40
87.66666,87.904755,81,127,40
87.95237,88.09523,79,120,40
88.09523,88.23511,77,120,40
88.23809,88.30654,76,120,40
88.30952,88.37797,76,120,40
88.38094,88.449394,78,120,40
88.45237,88.52083,78,120,40
88.5238,88.592255,73,120,40
88.59523,88.66368,73,120,40
88.66666,88.73511,74,120,40
88.73808,88.80654,74,120,40
88.80952,88.87797,75,120,40
88.88094,88.949394,75,120,40
88.95237,89.05654,76,120,40
89.09523,89.33332,81,127,40
89.38094,89.52082,79,120,40
89.5238,89.66368,77,120,40
89.66666,89.73808,81,120,40
89.73808,89.80952,78,120,40
89.80952,89.88094,81,120,40
89.88094,89.949394,78,120,40
89.95237,90.023796,78,120,40
90.023796,90.09523,76,120,40
90.09523,90.16666,78,120,40
90.16666,90.23808,76,120,40
90.23808,90.30952,78,120,40
90.30952,90.37797,76,120,40
90.38094,90.45237,76,120,40
90.45237,90.523796,73,120,40
90.523796,90.59523,76,120,40
90.59523,90.66368,73,120,40
90.66666,90.73808,73,120,40
90.73808,90.80951,69,120,40
90.80951,90.88094,73,120,40
90.88094,90.95237,69,120,40
90.95237,91.023796,73,120,40
91.023796,91.09225,69,120,40
91.09523,91.16666,69,120,40
91.16666,91.23808,66,120,40
91.23808,91.30951,69,120,40
91.30951,91.37797,66,120,40
91.38094,91.45237,66,120,40
91.45237,91.523796,64,120,40
91.523796,91.59523,66,120,40
91.59523,91.66666,64,120,40
91.66666,91.73808,66,120,40
91.73808,91.80653,64,120,40
91.80951,91.88094,64,120,40
91.88094,91.95237,61,120,40
91.95237,92.023796,64,120,40
92.023796,92.09225,61,120,40
92.09522,92.16666,61,120,40
92.16666,92.23808,57,120,40
92.23808,92.30951,61,120,40
92.30951,92.38094,57,120,40
92.38094,92.45237,61,120,40
92.45237,92.52082,57,120,40
92.523796,92.59522,55,120,40
92.523796,92.59522,64,120,40
92.523796,92.59522,70,120,40
92.523796,92.59522,76,120,40
92.59522,92.66368,55,120,40
92.59522,92.66368,64,120,40
92.66666,92.73808,55,120,40
92.66666,92.73808,64,120,40
92.73808,92.80653,70,120,40
92.73808,92.80653,76,120,40
92.80951,92.88094,70,120,40
92.80951,92.88094,76,120,40
92.88094,92.949394,55,120,40
92.88094,92.949394,64,120,40
92.95237,93.023796,55,120,40
92.95237,93.023796,64,120,40
93.023796,93.09225,70,120,40
93.023796,93.09225,76,120,40
93.09522,93.16666,70,120,40
93.09522,93.16666,76,120,40
93.16666,93.23511,55,120,40
93.16666,93.23511,64,120,40
93.23808,93.30951,55,120,40
93.23808,93.30951,64,120,40
93.30951,93.37796,70,120,40
93.30951,93.37796,76,120,40
93.380936,93.45237,70,120,40
93.380936,93.45237,76,120,40
93.45237,93.52082,55,120,40
93.45237,93.52082,64,120,40
93.523796,93.59522,55,120,40
93.523796,93.59522,64,120,40
93.59522,93.66367,70,120,40
93.59522,93.66367,76,120,40
93.66666,93.73808,70,120,40
93.66666,93.73808,76,120,40
93.73808,93.80653,55,120,40
93.73808,93.80653,64,120,40
93.80951,93.880936,55,120,40
93.80951,93.880936,64,120,40
93.880936,93.949394,70,120,40
93.880936,93.949394,76,120,40
93.95237,94.02082,67,127,40
94.023796,94.09225,67,120,40
94.09522,94.16367,69,120,40
94.16665,94.23511,69,120,40
94.23808,94.30653,64,120,40
94.30951,94.37796,64,120,40
94.380936,94.44939,65,120,40
94.45237,94.52082,65,120,40
94.523796,94.59225,66,120,40
94.59522,94.66367,66,120,40
94.66665,94.77082,67,120,40
94.80951,95.04761,72,127,40
95.09522,95.23808,70,120,40
95.23808,95.37796,68,120,40
95.380936,95.62796,58,120,40
95.66665,96.0476,58,127,40
96.09522,96.34225,58,120,40
96.380936,96.76189,61,127,40
96.80951,96.87796,67,120,40
96.880936,96.94939,67,120,40
96.95236,97.02081,69,120,40
97.023796,97.09225,69,120,40
97.09522,97.16367,64,120,40
97.16665,97.2351,64,120,40
97.238075,97.30653,65,120,40
97.30951,97.37796,65,120,40
97.380936,97.44939,66,120,40
97.45236,97.52081,66,120,40
97.52379,97.59225,67,120,40
97.59522,97.66367,67,120,40
97.66665,97.7351,69,120,40
97.738075,97.806526,69,120,40
97.80951,97.87796,64,120,40
97.880936,97.94939,64,120,40
97.95236,98.02081,65,120,40
98.02379,98.09225,65,120,40
98.09522,98.16367,66,120,40
98.16665,98.2351,66,120,40
98.238075,98.94939,67,120,40
99.09522,99.380936,70,120,40
99.380936,99.66665,71,120,40
99.66665,99.90474,72,120,40
99.95236,100.238075,73,120,40
100.238075,100.52379,72,120,40
100.52379,100.76189,71,120,40
101.66664,102.52379,67,120,40
102.52379,103.38093,68,120,40
103.38093,104.23807,67,120,40
104.23807,105.02378,68,120,40
105.095215,105.66664,67,120,40
105.66664,105.90474,69,120,40
105.952354,106.52378,67,120,40
106.52378,106.76188,69,120,40
106.809494,107.66664,67,120,40
107.66664,108.81247,68,120,40
109.15235,109.2208,55,120,40
109.22378,109.29224,55,120,40
109.29521,109.36366,55,120,40
109.36664,109.43509,55,120,40
109.438065,109.506516,57,127,40
109.5095,109.57795,57,120,40
109.580925,109.649376,57,120,40
109.65235,109.7208,57,120,40
109.72378,109.79224,55,120,40
109.79521,109.86366,55,120,40
109.86664,109.93509,55,120,40
109.938065,110.006516,55,120,40
110.0095,110.07795,55,120,40
110.080925,110.149376,55,120,40
110.15235,110.2208,55,120,40
110.22378,110.29224,55,120,40
110.29521,110.36366,57,127,40
110.36664,110.43509,57,120,40
110.438065,110.506516,57,120,40
110.50949,110.57795,57,120,40
110.580925,110.649376,55,120,40
110.65235,110.7208,55,120,40
110.72378,110.79223,55,120,40
110.79521,110.86366,55,120,40
110.86664,110.93509,55,120,40
110.938065,111.006516,55,120,40
111.00949,111.07795,55,120,40
111.080925,111.149376,55,120,40
111.15235,111.2208,57,127,40
111.22378,111.29223,57,120,40
111.29521,111.36366,57,120,40
111.36664,111.399376,57,120,40
114.00949,114.07794,66,120,40
114.08092,114.14937,66,120,40
114.15235,114.2208,66,120,40
114.22378,114.29223,66,120,40
114.295204,114.363655,65,120,40
114.36663,114.43509,65,120,40
114.438065,114.506516,65,120,40
114.50949,114.57794,65,120,40
114.58092,114.64937,64,120,40
114.65234,114.7208,64,120,40
114.72378,114.79223,64,120,40
114.795204,114.863655,64,120,40
114.86663,114.93509,63,120,40
114.938065,115.006516,63,120,40
115.00949,115.07794,63,120,40
115.08092,115.14937,63,120,40
115.15234,115.2208,62,120,40
115.22378,115.29223,62,120,40
115.295204,115.363655,62,120,40
115.36663,115.43508,62,120,40
115.438065,115.506516,61,120,40
115.50949,115.57794,61,120,40
115.58092,115.64937,61,120,40
115.65234,115.7208,61,120,40
115.72378,115.79223,60,120,40
115.795204,115.863655,60,120,40
115.86663,115.93508,60,120,40
115.93806,116.006516,60,120,40
116.00949,116.07794,59,120,40
116.08092,116.14937,59,120,40
116.15234,116.220795,59,120,40
116.22378,116.29223,59,120,40
116.295204,116.363655,58,120,40
116.36663,116.43508,58,120,40
116.43806,116.506516,58,120,40
116.50949,116.57794,58,120,40
116.58092,116.86663,58,120,40
116.86663,117.15234,65,120,40
117.15234,117.43806,67,120,40
117.43806,117.72377,65,120,40
117.72377,117.86663,65,120,40
117.86663,118.00948,63,120,40
118.00948,118.15234,65,120,40
118.15234,118.295204,66,120,40
118.295204,118.795204,65,120,40
118.86663,119.10472,67,120,40
119.86663,119.93508,62,127,40
119.93806,120.00651,62,120,40
120.00948,120.077934,63,120,40
120.08091,120.14937,63,120,40
120.15234,120.220795,60,120,40
120.22377,120.29222,60,120,40
120.2952,120.363655,61,120,40
120.36663,120.43508,61,120,40
120.43806,120.50651,62,120,40
120.50948,120.577934,62,120,40
120.58091,120.64937,62,120,40
120.65234,120.720795,62,120,40
120.72377,120.79222,86,120,40
120.7952,120.86365,86,120,40
120.86663,120.93508,86,120,40
120.93806,121.00651,86,120,40
121.00948,121.077934,62,120,40
121.08091,121.14937,62,120,40
121.15234,121.220795,69,120,40
121.22377,121.29222,69,120,40
121.2952,121.36365,69,120,40
121.36662,121.43508,69,120,40
121.43806,121.50651,68,120,40
121.50948,121.577934,68,120,40
121.58091,121.64936,68,120,40
121.65234,121.720795,68,120,40
121.72377,121.79222,67,120,40
121.7952,121.86365,67,120,40
121.86662,121.93508,67,120,40
121.93806,122.00651,67,120,40
122.00948,122.077934,66,120,40
122.08091,122.14936,66,120,40
122.15234,122.220795,66,120,40
122.22377,122.29222,66,120,40
122.2952,122.36365,65,120,40
122.36662,122.43508,65,120,40
122.43806,122.50651,65,120,40
122.50948,122.577934,65,120,40
122.58091,122.64936,64,120,40
122.652336,122.720795,64,120,40
122.72377,122.79222,64,120,40
122.7952,122.86365,64,120,40
122.86662,122.935074,63,120,40
122.93806,123.00651,63,120,40
123.00948,123.077934,63,120,40
123.08091,123.14936,63,120,40
123.152336,123.220795,62,120,40
123.22377,123.29222,62,120,40
123.2952,123.36365,62,120,40
123.36662,123.435074,62,120,40
123.72377,124.00948,56,120,40
124.00948,124.2952,58,120,40
124.2952,124.7952,56,120,40
124.86662,125.10472,58,120,40
125.86662,125.935074,62,127,40
125.93805,126.0065,62,120,40
126.009476,126.077934,63,120,40
126.08091,126.14936,63,120,40
126.152336,126.22079,60,120,40
126.22376,126.29221,60,120,40
126.2952,126.36365,61,120,40
126.36662,126.435074,61,120,40
126.43805,126.5065,62,120,40
126.509476,126.577934,62,120,40
126.58091,126.64936,62,120,40
126.652336,126.72079,62,120,40
126.72376,126.79221,86,120,40
126.79519,126.86365,86,120,40
126.86662,126.935074,86,120,40
126.93805,127.0065,86,120,40
127.009476,127.07793,62,120,40
127.08091,127.14936,62,120,40
127.152336,127.22079,74,120,40
127.22376,127.29221,74,120,40
127.29519,127.36365,62,120,40
127.36662,127.435074,62,120,40
127.43805,127.5065,62,120,40
127.509476,127.57793,62,120,40
127.58091,127.64936,62,120,40
127.652336,127.72079,62,120,40
128.00948,128.2952,56,120,40
128.2952,128.5809,58,120,40
128.5809,129.15233,56,120,40
129.15233,129.39043,58,120,40
130.15233,130.22078,62,127,40
130.22375,130.2922,62,120,40
130.2952,130.36365,63,120,40
130.36662,130.43507,63,120,40
130.43805,130.5065,60,120,40
130.50948,130.57793,60,120,40
130.5809,130.64935,61,120,40
130.65233,130.72078,61,120,40
130.72375,130.7922,62,120,40
130.79518,130.86365,62,120,40
130.86662,130.93507,62,120,40
130.93805,131.0065,62,120,40
131.00948,131.07793,86,120,40
131.0809,131.14935,86,120,40
131.15233,131.22078,86,120,40
131.22375,131.2922,86,120,40
131.29518,131.36365,62,120,40
131.36662,131.43507,62,120,40
131.43805,131.5065,74,120,40
131.50948,131.57793,74,120,40
131.5809,131.64935,62,120,40
131.65233,131.72078,62,120,40
131.72375,132.29518,62,127,40
131.72375,132.29518,69,127,40
132.29518,132.43507,64,120,40
132.86661,132.91423,57,120,40
133.15233,133.53328,55,127,40
133.5809,133.72078,59,120,40
133.86661,134.24756,62,127,40
134.29518,134.43506,65,120,40
134.5809,134.96185,68,127,40
135.00948,135.14935,71,120,40
135.29518,135.67613,74,127,40
135.72375,135.7922,75,127,40
135.79518,135.86363,75,120,40
135.86661,135.93506,76,120,40
135.93803,136.0065,76,120,40
136.00948,136.07793,77,127,40
136.0809,136.14935,77,120,40
136.15233,136.22078,76,120,40
136.22375,136.2922,76,120,40
136.29518,136.36363,75,120,40
136.36661,136.43506,75,120,40
136.43803,136.50648,75,127,40
136.50948,136.57793,75,120,40
136.5809,136.64935,76,120,40
136.65233,136.72078,76,120,40
136.72375,136.7922,77,127,40
136.79518,136.86363,77,120,40
136.86661,136.93506,76,120,40
136.93803,137.00648,76,120,40
137.00946,137.07793,75,120,40
137.0809,137.14935,75,120,40
137.15233,137.22078,75,127,40
137.22375,137.2922,75,120,40
137.29518,137.36363,76,120,40
137.36661,137.43506,76,120,40
137.43803,137.50648,77,127,40
137.50946,137.57793,77,120,40
137.5809,137.64935,76,120,40
137.65233,137.72078,76,120,40
137.72375,137.7922,75,120,40
137.79518,137.86363,75,120,40
137.86661,137.93506,75,127,40
137.93803,138.00648,75,120,40
138.00946,138.07793,76,120,40
138.0809,138.14935,76,120,40
138.15233,138.22078,77,127,40
138.22375,138.2922,77,120,40
138.29518,138.36363,76,120,40
138.36661,138.43506,76,120,40
138.43803,138.50648,75,120,40
138.50946,138.57791,75,120,40
138.5809,138.64935,75,127,40
138.65233,138.72078,75,120,40
138.72375,138.7922,77,120,40
138.79518,138.86363,77,120,40
138.86661,138.93506,75,127,40
138.93803,139.00648,75,120,40
139.00946,139.07791,73,120,40
139.0809,139.14935,73,120,40
139.15233,139.22078,71,120,40
139.22375,139.2922,71,120,40
139.29518,139.36363,69,127,40
139.36661,139.43506,69,120,40
139.43803,139.50648,71,120,40
139.50946,139.57791,71,120,40
139.58089,139.64935,69,120,40
139.65233,139.72078,69,120,40
139.72375,139.7922,67,120,40
139.79518,139.86363,67,120,40
139.86661,139.93506,65,120,40
139.93803,140.00648,65,120,40
140.00946,140.07791,63,120,40
140.08089,140.14935,63,120,40
140.15233,140.22078,65,120,40
140.22375,140.2922,65,120,40
140.29518,140.36363,63,120,40
140.36661,140.43506,63,120,40
140.43803,140.50648,61,120,40
140.50946,140.57791,61,120,40
140.58089,140.64934,59,120,40
140.65233,140.72078,59,120,40
140.72375,140.7922,57,127,40
140.79518,140.86363,57,120,40
140.86661,140.93506,59,120,40
140.93803,141.00648,59,120,40
141.00946,141.07791,57,120,40
141.08089,141.14934,57,120,40
141.15233,141.22078,55,120,40
141.22375,141.2922,55,120,40
141.29518,141.36363,57,120,40
141.36661,141.43506,57,120,40
141.43803,141.50648,57,127,40
141.50946,141.57791,57,120,40
141.58089,141.64934,59,120,40
141.65231,141.72078,59,120,40
141.72375,141.7922,57,120,40
141.79518,141.86363,57,120,40
141.86661,141.93506,55,120,40
141.93803,142.00648,55,120,40
142.00946,142.07791,57,120,40
142.08089,142.14934,57,120,40
142.15231,142.22078,57,127,40
142.22375,142.2922,57,120,40
142.29518,142.36363,59,120,40
142.36661,142.43506,59,120,40
142.43803,142.50648,57,120,40
142.50946,142.57791,57,120,40
142.58089,142.64934,55,120,40
142.65231,142.72078,55,120,40
142.72375,142.7922,57,120,40
142.79518,142.86363,57,120,40
142.86661,143.07791,56,120,40
143.15231,143.53326,59,127,40
143.58089,143.7922,56,120,40
143.86661,144.24756,55,127,40
144.29518,144.50648,56,120,40
144.58089,144.96184,59,127,40
145.00946,145.22076,56,120,40
145.29518,145.67613,55,127,40
145.72374,145.79517,64,120,40
145.79517,145.86363,88,120,40
145.86661,145.93803,76,120,40
145.93803,146.00648,88,120,40
146.00946,146.08089,64,120,40
146.08089,146.14934,88,120,40
146.15231,146.22374,76,120,40
146.22374,146.29219,88,120,40
146.29517,146.36661,64,120,40
146.36661,146.43506,88,120,40
146.43803,146.50946,76,120,40
146.50946,146.57791,88,120,40
146.58089,146.65231,64,120,40
146.65231,146.72076,88,120,40
146.72374,146.79517,76,120,40
146.79517,146.86363,88,120,40
146.86661,146.93803,64,120,40
146.93803,147.00648,88,120,40
147.00946,147.08089,76,120,40
147.08089,147.14934,88,120,40
147.15231,147.22374,64,120,40
147.22374,147.29219,88,120,40
147.29517,147.36661,76,120,40
147.36661,147.43506,88,120,40
147.43803,147.50946,64,120,40
147.50946,147.57791,88,120,40
147.58089,147.65231,76,120,40
147.65231,147.72076,88,120,40
147.72374,147.79517,64,120,40
147.79517,147.86362,88,120,40
147.8666,147.93803,76,120,40
147.93803,148.00648,88,120,40
148.00946,148.08089,64,120,40
148.08089,148.14934,88,120,40
148.15231,148.22374,76,120,40
148.22374,148.29219,88,120,40
148.29517,148.3666,64,120,40
148.3666,148.43506,88,120,40
148.43803,148.50946,76,120,40
148.50946,148.57791,88,120,40
148.58089,148.65231,64,120,40
148.65231,148.72076,88,120,40
148.72374,148.79517,76,120,40
148.79517,148.86362,88,120,40
148.8666,148.93803,64,120,40
148.93803,149.00648,88,120,40
149.00946,149.08089,76,120,40
149.08089,149.14934,88,120,40
149.15231,149.22374,64,120,40
149.22374,149.29219,88,120,40
149.29517,149.3666,76,120,40
149.3666,149.43504,88,120,40
149.43803,149.50946,64,120,40
149.50946,149.57791,88,120,40
149.58089,149.65231,76,120,40
149.65231,149.72076,88,120,40
149.72374,149.79517,64,120,40
149.79517,149.86362,76,120,40
149.8666,149.93803,76,127,40
149.93803,150.00648,76,120,40
150.00946,150.58089,62,120,40
150.58089,150.81898,61,120,40
150.8666,151.10469,60,120,40
151.15231,151.43802,64,127,40
151.43802,151.67612,63,120,40
151.72374,151.79517,64,120,40
151.79517,151.86362,76,120,40
151.8666,151.93802,76,120,40
151.93802,152.00647,76,120,40
152.00946,152.08089,64,120,40
152.08089,152.14934,76,120,40
152.15231,152.22374,76,120,40
152.22374,152.29219,76,120,40
152.29517,152.3666,64,120,40
152.3666,152.43802,76,120,40
152.43802,152.50945,76,120,40
152.50945,152.57791,88,120,40
152.58089,152.64934,88,120,40
152.65231,152.72076,88,120,40
152.72374,152.79219,88,120,40
152.79517,152.86362,88,120,40
152.8666,152.93504,86,120,40
152.93802,153.00647,86,120,40
153.00945,153.07791,86,120,40
153.08089,153.14934,86,120,40
153.15231,153.22076,88,120,40
153.22374,153.29219,88,120,40
153.29517,153.36362,88,120,40
153.3666,153.43504,88,120,40
153.43802,153.50647,83,120,40
153.50945,153.57791,83,120,40
153.58089,153.64934,83,120,40
153.65231,153.72076,83,120,40
153.72374,153.79219,81,120,40
153.79517,153.86362,81,120,40
153.8666,153.93504,81,120,40
153.93802,154.00647,81,120,40
154.00945,154.0779,83,120,40
154.08089,154.14934,83,120,40
154.15231,154.22076,83,120,40
154.22374,154.29219,83,120,40
154.29517,154.36362,76,120,40
154.3666,154.43504,76,120,40
154.43802,154.50647,76,120,40
154.50945,154.5779,76,120,40
154.58087,154.64934,74,120,40
154.65231,154.72076,74,120,40
154.72374,154.79219,74,120,40
154.79517,154.86362,74,120,40
154.8666,154.93504,76,120,40
154.93802,155.00647,76,120,40
155.00945,155.0779,76,120,40
155.08087,155.14934,76,120,40
155.15231,155.22076,71,120,40
155.22374,155.29219,71,120,40
155.29517,155.36362,71,120,40
155.3666,155.43504,71,120,40
155.43802,155.50647,69,120,40
155.50945,155.5779,69,120,40
155.58087,155.64934,69,120,40
155.65231,155.72076,69,120,40
155.72374,155.79219,71,120,40
155.79517,155.86362,71,120,40
155.8666,155.93504,71,120,40
155.93802,156.00647,71,120,40
156.00945,156.0779,64,120,40
156.08087,156.14932,64,120,40
156.15231,156.22076,64,120,40
156.22374,156.29219,64,120,40
156.29517,156.36362,62,120,40
156.3666,156.43504,62,120,40
156.43802,156.50647,62,120,40
156.50945,156.5779,62,120,40
156.58087,156.64932,64,120,40
156.6523,156.72076,64,120,40
156.72374,156.79219,64,120,40
156.79517,156.86362,64,120,40
156.8666,156.93504,64,120,40
156.93802,157.00647,64,120,40
157.00945,157.0779,64,120,40
157.08087,157.14932,64,120,40
157.1523,157.22076,62,120,40
157.22374,157.29219,62,120,40
157.29517,157.36362,62,120,40
157.3666,157.43504,62,120,40
157.43802,157.50647,64,120,40
157.50945,157.5779,64,120,40
157.58087,157.64932,64,120,40
157.6523,157.72076,64,120,40
157.72374,157.79575,64,120,40
157.79889,157.87149,64,120,40
157.87465,157.94785,64,120,40
157.95103,158.0249,64,120,40
158.02812,158.1026,62,120,40
158.10587,158.18095,62,120,40
158.18423,158.26006,62,120,40
158.26337,158.33981,62,120,40
158.34315,158.42027,64,120,40
158.42365,158.50151,64,120,40
158.5049,158.58345,64,120,40
158.58688,158.66612,64,120,40
158.66959,158.74962,64,120,40
158.75311,158.83386,64,120,40
158.83739,158.91888,64,120,40
158.92244,159.00476,64,120,40
159.00836,159.09145,62,120,40
159.09508,159.17894,62,120,40
159.1826,159.26736,62,120,40
159.27106,159.35661,62,120,40
159.36035,159.44673,64,120,40
159.45052,159.53784,64,120,40
159.54166,159.62984,64,120,40
159.6337,159.72275,64,120,40
159.72662,159.91022,64,120,40
164.72662,164.79851,69,120,40
164.80164,164.8735,69,120,40
164.87663,164.9485,69,120,40
164.95163,165.0235,69,120,40
165.02663,165.09851,69,120,40
165.10162,165.17351,69,120,40
165.17664,165.2485,69,120,40
165.25163,165.3235,69,120,40
165.32663,165.3985,69,120,40
165.40163,165.47351,69,120,40
165.47662,165.54851,69,120,40
165.55164,165.6235,69,120,40
165.62663,165.6985,69,120,40
165.70163,165.7735,69,120,40
165.77663,165.84851,69,120,40
165.85162,165.92351,69,120,40
165.92664,165.9985,69,120,40
166.00163,166.0735,69,120,40
166.07663,166.1485,69,120,40
166.15163,166.22351,69,120,40
166.22662,166.29851,69,120,40
166.30164,166.3735,69,120,40
166.37663,166.4485,69,120,40
166.45163,166.5235,69,120,40
166.52663,166.59851,69,120,40
166.60162,166.67351,69,120,40
166.67664,166.7485,69,120,40
166.75163,166.8235,69,120,40
166.82663,166.8985,69,120,40
166.90163,166.97351,69,120,40
166.97662,167.04851,69,120,40
167.05164,167.1235,69,120,40
167.12663,167.1985,74,120,40
167.20163,167.2735,74,120,40
167.27663,167.34851,74,120,40
167.35162,167.42351,74,120,40
167.42664,167.4985,69,120,40
167.50163,167.5735,69,120,40
167.57663,167.6485,69,120,40
167.65163,167.72351,69,120,40
167.72662,167.79851,69,120,40
167.80164,167.8735,69,120,40
167.87663,167.9485,69,120,40
167.95163,168.0235,69,120,40
168.02663,168.09851,69,120,40
168.10162,168.17351,69,120,40
168.17664,168.2485,69,120,40
168.25163,168.3235,69,120,40
168.32663,168.3985,69,120,40
168.40163,168.47351,69,120,40
168.47662,168.54851,69,120,40
168.55164,168.6235,69,120,40
168.62663,168.6985,69,120,40
168.70163,168.7735,69,120,40
168.77663,168.84851,69,120,40
168.85162,168.92351,69,120,40
168.92664,168.9985,69,120,40
169.00163,169.0735,69,120,40
169.07663,169.1485,69,120,40
169.15163,169.22351,69,120,40
169.22662,169.29851,69,120,40
169.30164,169.3735,69,120,40
169.37663,169.4485,69,120,40
169.45163,169.5235,69,120,40
169.52663,169.59851,69,120,40
169.60162,169.67351,69,120,40
169.67664,169.7485,69,120,40
169.75163,169.8235,69,120,40
169.82663,169.8985,74,120,40
169.90163,169.97351,74,120,40
169.97662,170.04851,74,120,40
170.05164,170.1235,74,120,40
170.12663,170.20163,77,127,40
170.20163,170.2735,79,120,40
170.27663,170.32663,77,120,40
170.35162,170.40163,76,120,40
170.42664,170.50163,76,127,40
170.50163,170.5735,77,120,40
170.57663,170.62663,76,120,40
170.65163,170.70163,74,120,40
170.72662,170.80164,74,127,40
170.80164,170.8735,76,120,40
170.87663,170.92664,74,120,40
170.95163,171.00163,72,120,40
171.02663,171.10162,72,127,40
171.10162,171.17351,74,120,40
171.17664,171.22662,72,120,40
171.25163,171.30164,70,120,40
171.32663,171.40163,70,127,40
171.40163,171.47351,72,120,40
171.47662,171.52663,70,120,40
171.55164,171.60162,69,120,40
171.62663,171.70163,69,127,40
171.70163,171.7735,70,120,40
171.77663,171.82663,69,120,40
171.85162,171.90163,67,120,40
171.92664,172.00163,67,127,40
172.00163,172.0735,69,120,40
172.07663,172.12663,67,120,40
172.15163,172.20163,65,120,40
172.22662,172.30164,64,127,40
172.30164,172.3735,65,120,40
172.37663,172.42664,64,120,40
172.45163,172.50163,62,120,40
172.52663,172.60162,62,127,40
172.60162,172.67351,64,120,40
172.67664,172.72662,62,120,40
172.75163,172.80164,60,120,40
172.82663,172.8985,58,120,40
172.90163,172.97351,58,120,40
172.97662,173.04851,58,120,40
173.05164,173.1235,58,120,40
173.12663,173.1985,57,120,40
173.20163,173.2735,57,120,40
173.27663,173.34851,57,120,40
173.35162,173.42351,57,120,40
173.42664,173.4985,56,120,40
173.50163,173.5735,56,120,40
173.57663,173.6485,56,120,40
173.65163,173.72351,56,120,40
173.72662,173.79851,55,120,40
173.80164,173.8735,55,120,40
173.87663,173.9485,55,120,40
173.95163,174.0235,55,120,40
174.02663,174.09851,56,120,40
174.10162,174.17351,56,120,40
174.17664,174.2485,56,120,40
174.25163,174.3235,56,120,40
174.32663,174.3985,57,120,40
174.40163,174.47351,57,120,40
174.47662,174.54851,57,120,40
174.55164,174.6235,57,120,40
174.62663,174.6985,58,120,40
174.70163,174.7735,58,120,40
174.77663,174.84851,58,120,40
174.85162,174.92351,58,120,40
174.92664,174.9985,57,120,40
175.00163,175.0735,57,120,40
175.07663,175.1485,57,120,40
175.15163,175.22351,57,120,40
175.22662,175.29851,56,120,40
175.30164,175.3735,56,120,40
175.37663,175.4485,56,120,40
175.45163,175.5235,56,120,40
175.52663,175.59851,55,120,40
175.60162,175.67351,55,120,40
175.67664,175.7485,55,120,40
175.75163,175.8235,55,120,40
175.82663,175.8985,56,120,40
175.90163,175.97351,56,120,40
175.97662,176.04851,56,120,40
176.05164,176.1235,56,120,40
176.12663,176.1985,57,120,40
176.20163,176.2735,57,120,40
176.27663,176.34851,57,120,40
176.35162,176.42351,57,120,40
176.42664,176.72662,58,120,40
176.72662,176.97662,57,120,40
177.02663,177.32663,58,120,40
177.32663,177.57663,57,120,40
177.62663,177.92664,58,120,40
177.92664,178.17664,57,120,40
178.22662,178.52663,64,120,40
178.52663,179.05164,66,120,40
179.12663,179.42923,69,120,40
179.42923,179.73979,70,120,40
179.73979,180.0052,72,120,40
179.73979,180.0052,76,120,40
180.05898,180.38731,74,120,40
180.38731,181.30794,72,120,40
180.05898,181.30794,76,120,40
182.78412,182.85555,70,120,40
182.85555,182.92699,72,120,40
182.92699,182.99841,70,120,40
182.99841,183.06984,72,120,40
183.06984,183.14127,70,120,40
183.14127,183.21269,72,120,40
183.21269,183.28412,70,120,40
183.28412,183.35555,72,120,40
183.35555,183.42699,70,120,40
183.42699,183.49841,72,120,40
183.49841,183.56984,70,120,40
183.56984,183.64127,72,120,40
183.64127,183.71269,70,120,40
183.71269,183.78412,72,120,40
183.78412,183.85555,70,120,40
183.85555,183.92699,72,120,40
183.92699,183.99841,70,120,40
183.99841,184.06984,72,120,40
184.06984,184.14127,70,120,40
184.14127,184.21269,72,120,40
184.21269,184.28412,70,120,40
184.28412,184.35555,72,120,40
184.35555,184.42699,70,120,40
184.42699,184.49841,72,120,40
184.49841,184.56984,70,120,40
184.56984,184.64127,72,120,40
184.64127,184.71269,70,120,40
184.71269,184.78412,72,120,40
184.78412,184.85555,70,120,40
184.85555,184.92699,72,120,40
184.92699,184.99841,70,120,40
184.99841,185.06984,72,120,40
185.06984,185.14127,70,120,40
185.14127,185.21269,72,120,40
185.21269,185.28412,70,120,40
185.28412,185.35555,72,120,40
185.35555,185.42697,70,120,40
185.42697,185.49841,72,120,40
185.49841,185.56984,70,120,40
185.56984,185.64127,72,120,40
185.64127,185.71269,70,120,40
185.71269,185.78412,72,120,40
185.78412,185.85555,70,120,40
185.85555,185.92697,72,120,40
185.92697,185.99841,70,120,40
185.99841,186.06984,72,120,40
186.06984,186.14127,70,120,40
186.14127,186.21269,72,120,40
186.21269,186.28412,70,120,40
186.28412,186.35555,72,120,40
186.35555,186.42697,70,120,40
186.42697,186.49841,72,120,40
186.49841,186.56984,70,120,40
186.56984,186.64127,72,120,40
186.64127,186.71269,70,120,40
186.71269,186.78412,72,120,40
186.78412,186.85555,70,120,40
186.85555,186.92697,72,120,40
186.92697,186.99841,70,120,40
186.99841,187.06984,72,120,40
187.06984,187.14595,70,120,40
187.14595,187.22473,72,120,40
187.22473,187.30638,70,120,40
187.30638,187.3911,72,120,40
187.3911,187.47913,70,120,40
187.47913,187.57074,72,120,40
187.57074,187.66624,70,120,40
187.66624,187.76599,72,120,40
187.76599,187.87035,70,120,40
187.87035,187.9798,72,120,40
187.9798,188.09483,70,120,40
188.09483,188.21606,72,120,40
188.21606,188.29106,70,120,40
188.29106,188.36606,72,120,40
188.36606,188.44106,70,120,40
188.44106,188.51605,72,120,40
188.51605,188.59106,70,120,40
188.59106,188.66606,72,120,40
188.66606,188.74106,70,120,40
188.74106,188.81606,72,120,40
188.81606,188.89105,70,120,40
188.89105,188.96606,72,120,40
188.96606,189.04106,70,120,40
189.04106,189.11606,72,120,40
189.11606,189.19106,70,120,40
189.19106,189.26605,72,120,40
189.26605,189.34106,70,120,40
189.34106,189.41606,72,120,40
189.41606,189.49106,70,120,40
189.49106,189.56606,72,120,40
189.56606,189.64105,70,120,40
189.64105,189.71606,72,120,40
189.71606,189.79106,70,120,40
189.79106,189.86606,72,120,40
189.86606,189.94106,70,120,40
189.94106,190.01605,72,120,40
190.01605,190.09106,70,120,40
190.09106,190.16606,72,120,40
190.16606,190.24106,70,120,40
190.24106,190.31606,72,120,40
190.31606,190.39105,70,120,40
190.39105,190.46606,72,120,40
190.46606,190.54106,70,120,40
190.54106,190.61606,72,120,40
190.61606,190.69106,70,120,40
190.69106,190.76605,72,120,40
190.76605,190.84106,70,120,40
190.84106,190.91606,72,120,40
190.91606,190.99106,70,120,40
190.99106,191.06606,72,120,40
191.06606,191.14105,70,120,40
191.14105,191.21606,72,120,40
191.21606,191.29106,70,120,40
191.29106,191.36606,72,120,40
191.36606,191.44106,70,120,40
191.44106,191.51605,72,120,40
191.51605,191.59106,70,120,40
191.59106,191.66606,72,120,40
182.78412,191.74106,62,120,40
191.66606,191.74106,70,120,40
191.74106,191.81293,72,120,40
191.81606,191.96294,62,120,40
191.81606,191.96294,69,120,40
193.61606,194.14105,57,120,40
194.21606,194.76605,62,120,40
194.81606,195.34106,65,120,40
195.41606,195.48793,69,120,40
195.49106,195.56293,69,120,40
195.56606,195.63794,69,120,40
195.64105,195.71294,69,120,40
195.71606,195.78793,69,120,40
195.79106,195.86293,69,120,40
195.86606,195.93793,69,120,40
195.94106,196.01294,69,120,40
196.01605,196.08794,74,120,40
196.09106,196.16293,74,120,40
196.16606,196.23793,74,120,40
196.24106,196.31293,74,120,40
196.31606,196.38794,74,120,40
196.39105,196.46294,74,120,40
196.46606,196.53793,74,120,40
196.54106,196.61293,74,120,40
196.61606,196.68793,77,120,40
196.69106,196.76294,77,120,40
196.76605,196.83794,77,120,40
196.84106,196.91293,77,120,40
196.91606,196.98793,77,120,40
196.99106,197.06293,77,120,40
197.06606,197.13794,77,120,40
197.14105,197.21294,77,120,40
197.21606,197.25356,55,120,40
197.21606,197.25356,62,120,40
197.25356,197.28793,69,120,40
197.25356,197.28793,81,120,40
197.29106,197.36293,69,120,40
197.29106,197.36293,81,120,40
197.36606,197.43793,69,120,40
197.36606,197.43793,81,120,40
197.44106,197.51294,69,120,40
197.44106,197.51294,81,120,40
197.51605,197.58794,69,120,40
197.51605,197.58794,81,120,40
197.59106,197.66293,69,120,40
197.59106,197.66293,81,120,40
197.66606,197.73793,69,120,40
197.66606,197.73793,81,120,40
197.74106,197.81293,69,120,40
197.74106,197.81293,81,120,40
197.81606,197.88794,69,120,40
197.81606,197.88794,81,120,40
197.89105,197.96294,69,120,40
197.89105,197.96294,81,120,40
197.96606,198.03793,69,120,40
197.96606,198.03793,81,120,40
198.04106,198.11293,69,120,40
198.04106,198.11293,81,120,40
198.11606,198.18793,69,120,40
198.11606,198.18793,81,120,40
198.19106,198.26294,69,120,40
198.19106,198.26294,81,120,40
198.26605,198.33794,69,120,40
198.26605,198.33794,81,120,40
198.34106,198.41293,69,120,40
198.34106,198.41293,81,120,40
198.41606,198.48793,69,120,40
198.41606,198.48793,76,120,40
198.49106,198.56293,69,120,40
198.49106,198.56293,76,120,40
198.56606,198.63794,69,120,40
198.56606,198.63794,76,120,40
198.64105,198.71294,69,120,40
198.64105,198.71294,76,120,40
198.71606,198.78793,69,120,40
198.71606,198.78793,76,120,40
198.79106,198.86293,69,120,40
198.79106,198.86293,76,120,40
198.86606,198.93793,69,120,40
198.86606,198.93793,76,120,40
198.94106,199.01294,69,120,40
198.94106,199.01294,76,120,40
199.01605,199.08794,62,120,40
199.01605,199.08794,69,120,40
199.09106,199.16293,62,120,40
199.09106,199.16293,69,120,40
199.16606,199.23793,62,120,40
199.16606,199.23793,69,120,40
199.24106,199.31293,62,120,40
199.24106,199.31293,69,120,40
199.31606,199.38794,62,120,40
199.31606,199.38794,69,120,40
199.39105,199.46294,62,120,40
199.39105,199.46294,69,120,40
199.46606,199.53793,62,120,40
199.46606,199.53793,69,120,40
199.54106,199.61293,62,120,40
199.54106,199.61293,69,120,40
199.61606,199.68793,62,120,40
199.61606,199.68793,69,120,40
199.69106,199.76294,62,120,40
199.69106,199.76294,69,120,40
199.76605,199.83794,62,120,40
199.76605,199.83794,69,120,40
199.84106,199.91293,62,120,40
199.84106,199.91293,69,120,40
199.91606,199.98793,62,120,40
199.91606,199.98793,69,120,40
199.99106,200.06293,62,120,40
199.99106,200.06293,69,120,40
200.06606,200.13794,62,120,40
200.06606,200.13794,69,120,40
200.14105,200.21294,62,120,40
200.14105,200.21294,69,120,40
200.21606,200.28793,64,120,40
200.29106,200.36293,64,120,40
200.36606,200.43793,64,120,40
200.44106,200.51294,64,120,40
200.51605,200.58794,64,120,40
200.59106,200.66293,64,120,40
200.66606,200.73793,64,120,40
200.74106,200.81293,64,120,40
200.81606,200.89137,62,127,40
200.89137,200.96793,62,120,40
200.96793,201.04575,62,127,40
201.04575,201.12505,62,120,40
201.12505,201.2057,62,127,40
201.2057,201.2878,62,120,40
201.2878,201.37152,62,127,40
201.37152,201.45677,62,120,40
201.45677,201.5436,62,127,40
201.5436,201.63228,62,120,40
201.63228,201.72266,62,127,40
201.72266,201.8148,62,120,40
201.8148,201.90935,62,127,40
201.90935,202.00658,62,120,40
202.00658,202.10664,62,127,40
202.10664,202.20972,62,120,40
202.20972,202.31601,62,127,40
202.31601,202.42584,62,120,40
202.42584,202.53929,62,127,40
202.53929,202.65665,62,120,40
202.65665,202.77815,62,127,40
202.77815,202.90422,62,120,40
202.90422,203.03525,62,127,40
203.03525,203.17142,62,120,40
203.17142,205.20206,62,120,40
205.46419,205.89276,60,120,40
205.89276,206.13086,61,120,40
206.17848,206.60706,60,120,40
206.60706,206.84514,61,120,40
206.89276,207.17848,63,127,40
207.17848,207.41656,61,120,40
207.46419,207.60406,59,120,40
207.60704,208.03561,60,120,40
208.03561,208.27371,61,120,40
208.32133,208.60704,63,127,40
208.60704,208.84514,61,120,40
208.89276,209.03264,59,120,40
209.17848,209.24693,66,120,40
209.24991,209.31836,66,120,40
209.32133,209.38979,68,120,40
209.39276,209.46121,68,120,40
209.46419,209.53264,63,120,40
209.53561,209.60406,63,120,40
209.60704,209.67549,64,120,40
209.67848,209.74693,64,120,40
209.74991,209.81836,65,120,40
209.82133,209.88979,65,120,40
209.89276,210.46419,66,120,40
210.46419,210.70229,62,120,40
210.89276,210.96121,66,120,40
210.96419,211.03264,66,120,40
211.03561,211.10406,68,120,40
211.10704,211.17549,68,120,40
211.17847,211.24692,63,120,40
211.24991,211.31836,63,120,40
211.32133,211.38979,64,120,40
211.39276,211.46121,64,120,40
211.46419,211.53264,65,120,40
211.53561,211.60406,65,120,40
211.60704,212.17847,66,120,40
212.17847,212.41656,62,120,40
212.46419,213.2499,55,120,40
212.46419,213.2499,62,120,40
213.32133,214.10704,55,120,40
213.32133,214.10704,64,120,40
214.17847,214.24692,66,120,40
214.2499,214.31834,66,120,40
214.32132,214.38979,58,127,40
214.39276,214.46121,58,120,40
214.46419,214.53264,59,120,40
214.53561,214.60406,59,120,40
214.60704,214.67549,61,120,40
214.67847,214.74692,61,120,40
214.7499,214.81834,62,120,40
214.82132,214.88979,62,120,40
214.89276,214.96121,59,120,40
214.96419,215.03264,59,120,40
215.03561,215.10406,59,120,40
215.10704,215.17549,59,120,40
215.17847,215.24692,61,120,40
215.2499,215.31834,61,120,40
215.32132,215.38979,62,120,40
215.39276,215.46121,62,120,40
215.46419,215.53264,63,120,40
215.53561,215.60406,63,120,40
215.60704,215.67549,64,120,40
215.67847,215.74692,64,120,40
215.7499,215.81834,67,120,40
215.82132,215.88977,67,120,40
215.89276,215.96121,68,120,40
215.96419,216.03264,68,120,40
216.03561,216.10406,69,120,40
216.10704,216.17549,69,120,40
216.17847,216.24692,65,120,40
216.2499,216.31834,65,120,40
216.32132,216.38977,66,120,40
216.39275,216.46121,66,120,40
216.46419,216.53264,67,120,40
216.53561,216.60406,67,120,40
216.60704,216.67549,68,120,40
216.67847,216.74692,68,120,40
216.7499,216.81834,69,120,40
216.82132,216.88977,69,120,40
216.89275,216.96121,65,120,40
216.96419,217.03264,65,120,40
217.03561,217.10406,66,120,40
217.10704,217.17549,66,120,40
217.17847,217.24692,67,120,40
217.2499,217.31834,67,120,40
217.32132,217.60704,75,120,40
217.60704,217.84514,73,120,40
217.89275,218.03264,71,120,40
218.03561,218.10406,68,120,40
218.10704,218.17549,68,120,40
218.17847,218.24692,69,120,40
218.2499,218.31834,69,120,40
218.32132,218.38977,65,120,40
218.39275,218.4612,65,120,40
218.46419,218.53264,66,120,40
218.53561,218.60406,66,120,40
218.60704,218.67549,67,120,40
218.67847,218.74692,67,120,40
218.7499,219.03561,75,127,40
219.03561,219.2737,71,120,40
219.32132,219.4612,75,120,40
219.60704,219.67549,77,127,40
219.67847,219.74692,77,120,40
219.7499,219.81834,79,120,40
219.82132,219.88977,79,120,40
219.89275,219.9612,74,120,40
219.96417,220.03262,74,120,40
220.03561,220.10406,75,120,40
220.10704,220.17549,75,120,40
220.17847,220.24692,76,120,40
220.2499,220.31834,76,120,40
220.32132,220.89275,77,120,40
220.89275,221.13084,73,120,40
221.32132,221.38977,77,120,40
221.39275,221.4612,77,120,40
221.46417,221.53262,79,120,40
221.5356,221.60406,79,120,40
221.60704,221.67549,74,120,40
221.67847,221.74692,74,120,40
221.7499,221.81834,75,120,40
221.82132,221.88977,75,120,40
221.89275,221.9612,76,120,40
221.96417,222.03262,76,120,40
222.0356,222.60704,77,120,40
222.60704,222.84512,73,120,40
222.89275,222.98799,82,127,40
222.98799,223.08322,73,120,40
223.08322,223.17549,66,120,40
223.17847,223.2737,66,120,40
223.2737,223.36894,73,120,40
223.36894,223.4612,82,120,40
223.46417,223.55942,82,120,40
223.55942,223.65465,73,120,40
223.65465,223.74692,66,120,40
223.7499,223.84512,66,120,40
223.84512,223.94037,73,120,40
223.94037,224.03262,82,120,40
224.0356,224.13084,82,120,40
224.13084,224.22607,73,120,40
224.22607,224.31834,66,120,40
224.32132,224.41655,66,120,40
224.41655,224.5118,73,120,40
224.5118,224.60405,82,120,40
224.60703,224.70227,82,120,40
224.70227,224.7975,73,120,40
224.7975,224.88977,66,120,40
224.89275,224.98798,58,120,40
224.98798,225.08322,66,120,40
225.08322,225.17548,73,120,40
225.17845,225.2737,73,120,40
225.2737,225.36894,66,120,40
225.36894,225.4612,58,120,40
225.46417,225.55942,58,120,40
225.55942,225.65465,66,120,40
225.65465,225.74692,73,120,40
225.7499,225.84512,73,120,40
225.84512,225.94037,66,120,40
225.94037,226.03262,58,120,40
226.0356,226.13084,58,120,40
226.13084,226.22607,66,120,40
226.22607,226.31834,73,120,40
226.32132,226.4612,58,127,40
226.60703,227.10703,56,127,40
227.17845,227.67845,56,120,40
227.74988,227.88977,58,127,40
228.0356,228.5356,56,127,40
228.60703,229.10703,56,120,40
229.17845,229.31833,58,127,40
229.46417,229.96417,56,127,40
230.0356,230.5356,56,120,40
230.60703,230.7469,62,127,40
230.60703,230.7469,70,127,40
230.89275,231.39275,60,127,40
230.89275,231.39275,68,127,40
231.46417,231.96417,60,120,40
231.46417,231.96417,68,120,40
232.0356,232.2469,66,120,40
232.0356,232.2469,73,120,40
232.0356,232.2469,82,120,40
232.3213,232.70226,63,127,40
232.3213,232.70226,72,127,40
232.3213,232.70226,80,127,40
232.74988,232.9612,66,120,40
232.74988,232.9612,73,120,40
232.74988,232.9612,82,120,40
233.0356,233.41655,63,127,40
233.0356,233.41655,72,127,40
233.0356,233.41655,80,127,40
233.46417,233.67548,66,120,40
233.46417,233.67548,73,120,40
233.46417,233.67548,82,120,40
233.74988,234.13083,63,127,40
233.74988,234.13083,72,127,40
233.74988,234.13083,80,127,40
234.17845,234.2469,65,127,40
234.17845,234.2469,72,127,40
234.17845,234.2469,77,127,40
234.24988,234.31833,77,120,40
234.3213,234.38976,79,120,40
234.39273,234.46118,79,120,40
234.46416,234.53262,75,120,40
234.5356,234.60405,75,120,40
234.60703,234.67548,76,120,40
234.67845,234.7469,76,120,40
234.74988,234.81833,77,120,40
234.8213,234.88976,77,120,40
234.89273,234.96118,77,127,40
234.96416,235.03262,77,120,40
235.0356,235.10405,79,120,40
235.10703,235.17548,79,120,40
235.17845,235.2469,75,120,40
235.24988,235.31833,75,120,40
235.3213,235.38976,76,120,40
235.39273,235.46118,76,120,40
235.46416,235.53261,77,120,40
235.5356,235.60405,77,120,40
235.60703,235.67548,77,127,40
235.67845,235.7469,77,120,40
235.74988,235.81833,79,120,40
235.8213,235.88976,79,120,40
235.89273,235.96118,75,120,40
235.96416,236.03261,75,120,40
236.03558,236.10405,76,120,40
236.10703,236.17548,76,120,40
236.17845,236.2469,77,120,40
236.24988,236.31833,77,120,40
236.3213,236.38976,77,127,40
236.39273,236.46118,77,120,40
236.46416,236.53261,79,120,40
236.53558,236.60405,79,120,40
236.60703,236.67548,75,120,40
236.67845,236.7469,75,120,40
236.74988,236.81833,76,120,40
236.8213,236.88976,76,120,40
236.89273,236.96118,77,120,40
236.96416,237.03261,77,120,40
237.03558,237.10405,77,127,40
237.10703,237.17548,77,120,40
237.17845,237.2469,79,120,40
237.24988,237.31833,79,120,40
237.3213,237.38976,75,120,40
237.39273,237.46118,75,120,40
237.46416,237.53261,76,120,40
237.53558,237.60403,76,120,40
237.60703,237.67548,77,120,40
237.67845,237.7469,77,120,40
237.74988,237.81833,77,127,40
237.8213,237.88976,77,120,40
237.89273,237.96118,79,120,40
237.96416,238.03261,79,120,40
238.03558,238.10403,75,120,40
238.10701,238.17548,75,120,40
238.17845,238.2469,76,120,40
238.24988,238.31833,76,120,40
238.3213,238.38976,77,120,40
238.39273,238.46118,77,120,40
238.46416,238.53261,77,127,40
238.53558,238.60403,77,120,40
238.60701,238.67548,79,120,40
238.67845,238.7469,79,120,40
238.74988,238.81833,75,120,40
238.8213,238.88976,75,120,40
238.89273,238.96118,76,120,40
238.96416,239.03261,76,120,40
239.03558,239.10403,77,120,40
239.10701,239.17548,77,120,40
239.17845,239.51178,77,127,40
239.97844,240.05656,57,120,40
240.08955,240.16768,57,120,40
240.20067,240.27359,57,120,40
240.31178,240.38991,57,127,40
240.42288,240.501,57,120,40
240.534,240.60692,57,120,40
240.64511,240.72324,56,127,40
240.75623,240.83435,56,120,40
240.86734,240.94025,56,120,40
240.97844,241.05656,59,127,40
241.08955,241.16768,59,120,40
241.20067,241.27359,59,120,40
241.31178,241.38991,62,127,40
241.42288,241.501,62,120,40
241.534,241.60692,62,120,40
241.64511,241.72324,65,127,40
241.75623,241.83435,65,120,40
241.86732,241.94025,65,120,40
241.97844,242.05656,68,127,40
242.08955,242.16768,68,120,40
242.20067,242.27357,68,120,40
242.31178,242.62428,60,120,40
242.31178,243.99928,69,120,40
242.31178,243.99928,77,120,40
5.575,5.6125,57,120,45
5.6125,5.65,64,120,45
5.65,5.9,73,120,45
5.65,5.9,81,120,45
6.325,6.3625,55,120,45
6.3625,6.4,62,120,45
6.4,6.65,71,120,45
6.4,6.65,79,120,45
7.45,7.4875,60,120,45
7.4875,7.525,65,120,45
7.525,7.775,69,120,45
7.525,7.775,77,120,45
7.825,7.8625,57,120,45
7.8625,7.9,64,120,45
7.9,8.15,72,120,45
7.9,8.15,82,120,45
8.575,8.6125,55,120,45
8.6125,8.65,62,120,45
8.65,8.9,71,120,45
8.65,8.9,79,120,45
9.7,9.7375,60,120,45
9.7375,9.775,65,120,45
9.775,10.025,69,120,45
9.775,10.025,77,120,45
10.075,10.1125,57,120,45
10.1125,10.15,64,120,45
10.15,10.4,72,120,45
10.15,10.4,82,120,45
101.095215,101.33331,66,120,45
101.38093,101.619026,78,120,45
108.81664,108.86664,56,120,45
108.81664,108.86664,62,120,45
108.86664,109.10474,62,120,45
108.86664,109.10474,69,120,45
111.40235,111.438065,55,120,45
111.40235,111.438065,62,120,45
111.438065,111.67616,62,120,45
111.438065,111.67616,69,120,45
112.00949,112.256516,69,120,45
112.00949,112.256516,81,120,45
112.25949,112.295204,55,120,45
112.25949,112.295204,62,120,45
112.295204,112.5333,62,120,45
112.295204,112.5333,69,120,45
112.86664,113.113655,69,120,45
112.86664,113.113655,81,120,45
113.11664,113.15235,55,120,45
113.11664,113.15235,62,120,45
113.15235,113.39044,62,120,45
113.15235,113.39044,69,120,45
113.72378,113.96187,69,120,45
113.72378,113.96187,81,120,45
161.22662,161.53912,62,120,45
161.22662,161.53912,74,120,45
161.92975,161.97662,64,120,45
161.97662,162.28912,69,120,45
161.97662,162.28912,76,120,45
162.72662,163.1433,62,120,45
163.72662,164.1433,64,120,45
0.0,0.075,57,127,41
0.075,0.146875,57,112,41
0.15,0.221875,58,112,41
0.225,0.296875,58,112,41
0.3,0.371875,55,112,41
0.375,0.446875,55,112,41
0.45,0.521875,56,112,41
0.525,0.596875,56,112,41
0.6,0.671875,57,112,41
0.675,0.746875,57,112,41
0.75,1.35,55,112,41
0.75,1.35,65,112,41
1.7,1.771875,57,127,41
1.775,1.846875,57,112,41
1.85,1.921875,58,112,41
1.925,1.996875,58,112,41
2.0,2.071875,55,112,41
2.075,2.146875,55,112,41
2.15,2.221875,56,112,41
2.225,2.296875,56,112,41
2.3,2.371875,57,112,41
2.375,2.446875,57,112,41
2.45,3.05,58,112,41
2.45,3.05,65,112,41
4.15,4.221875,57,127,41
4.225,4.296875,57,112,41
4.3,4.371875,58,112,41
4.375,4.446875,58,112,41
4.45,4.521875,55,112,41
4.525,4.596875,55,112,41
4.6,4.671875,58,112,41
4.675,4.746875,58,112,41
4.75,4.821875,58,112,41
4.825,4.896875,58,112,41
4.9,4.971875,69,127,41
4.975,5.046875,69,112,41
5.05,5.121875,70,112,41
5.125,5.196875,70,112,41
5.2,5.271875,67,112,41
5.275,5.346875,67,112,41
5.35,5.421875,68,112,41
5.425,5.496875,68,112,41
5.5,5.571875,69,112,41
5.575,5.646875,69,112,41
5.65,5.721875,69,127,41
5.725,5.796875,69,112,41
5.8,5.871875,70,112,41
5.875,5.946875,70,112,41
5.95,6.021875,67,112,41
6.025,6.096875,67,112,41
6.1,6.171875,68,112,41
6.175,6.246875,68,112,41
6.25,6.321875,69,112,41
6.325,6.396875,69,112,41
6.4,6.471875,69,127,41
6.475,6.546875,69,112,41
6.55,6.621875,71,112,41
6.625,6.696875,71,112,41
6.7,6.771875,67,112,41
6.775,6.846875,67,112,41
6.85,6.921875,68,112,41
6.925,6.996875,68,112,41
7.0,7.071875,69,112,41
7.075,7.146875,69,112,41
7.15,7.221875,69,127,41
7.225,7.296875,69,112,41
7.3,7.371875,71,112,41
7.375,7.446875,71,112,41
7.45,7.521875,67,112,41
7.525,7.596875,67,112,41
7.6,7.671875,68,112,41
7.675,7.746875,68,112,41
7.75,7.821875,69,112,41
7.825,7.896875,69,112,41
7.9,7.971875,69,127,41
7.975,8.046875,69,112,41
8.05,8.121875,70,112,41
8.125,8.196875,70,112,41
8.2,8.271875,67,112,41
8.275,8.346875,67,112,41
8.35,8.421875,68,112,41
8.425,8.496875,68,112,41
8.5,8.571875,69,112,41
8.575,8.646875,69,112,41
8.65,8.721875,69,127,41
8.725,8.796875,69,112,41
8.8,8.871875,71,112,41
8.875,8.946875,71,112,41
8.95,9.021875,67,112,41
9.025,9.096875,67,112,41
9.1,9.171875,68,112,41
9.175,9.246875,68,112,41
9.25,9.321875,69,112,41
9.325,9.396875,69,112,41
9.4,9.471875,69,127,41
9.475,9.546875,69,112,41
9.55,9.621875,71,112,41
9.625,9.696875,71,112,41
9.7,9.771875,67,112,41
9.775,9.846875,67,112,41
9.85,9.921875,68,112,41
9.925,9.996875,68,112,41
10.0,10.071875,69,112,41
10.075,10.146875,69,112,41
10.15,10.221875,69,127,41
10.225,10.296875,69,112,41
10.3,10.371875,70,112,41
10.375,10.446875,70,112,41
10.45,10.521875,67,112,41
10.525,10.596875,67,112,41
10.6,10.671875,68,112,41
10.675,10.746875,68,112,41
10.75,10.821875,69,112,41
10.825,10.896875,69,112,41
10.9,10.971875,69,127,41
10.975,11.046875,69,112,41
11.05,11.121875,70,112,41
11.125,11.196875,70,112,41
11.2,11.271875,67,112,41
11.275,11.346875,67,112,41
11.35,11.421875,68,112,41
11.425,11.496875,68,112,41
11.5,11.571875,69,112,41
11.575,11.646875,69,112,41
11.65,11.796875,69,127,41
13.9,13.971875,62,112,41
13.975,14.046875,62,112,41
14.05,14.121875,61,112,41
14.125,14.196875,61,112,41
14.2,14.271875,60,127,41
14.275,14.346875,60,112,41
14.35,14.421875,60,112,41
14.425,14.496875,60,112,41
14.5,14.571875,59,112,41
14.575,14.646875,59,112,41
14.65,14.721875,62,112,41
14.725,14.796875,62,112,41
14.8,14.871875,61,112,41
14.875,14.946875,61,112,41
14.95,15.021875,60,127,41
15.025,15.096875,60,112,41
15.1,15.171875,60,112,41
15.175,15.246875,60,112,41
15.25,15.321875,59,112,41
15.325,15.396875,59,112,41
15.4,15.471875,62,112,41
15.475,15.546875,62,112,41
15.55,15.621875,61,112,41
15.625,15.696875,61,112,41
15.7,15.771875,65,127,41
15.775,15.846875,65,112,41
15.85,15.921875,65,112,41
15.925,15.996875,65,112,41
16.0,16.071875,64,112,41
16.075,16.146875,64,112,41
16.15,16.221874,65,112,41
16.225,16.296875,65,112,41
16.3,16.371876,64,112,41
16.375,16.446875,64,112,41
16.45,16.521875,68,127,41
16.525,16.596874,68,112,41
16.6,16.671875,68,112,41
16.675,16.746876,68,112,41
16.75,16.821875,67,112,41
16.825,16.896875,67,112,41
16.9,16.971874,65,127,41
16.975,17.046875,65,112,41
17.05,17.121876,64,112,41
17.125,17.196875,64,112,41
17.2,17.271875,63,112,41
17.275,17.346874,63,112,41
17.35,17.421875,62,112,41
17.425,17.496876,62,112,41
17.5,17.571875,61,112,41
17.575,17.646875,61,112,41
17.65,17.721874,65,127,41
17.725,17.796875,65,112,41
17.8,17.871876,64,112,41
17.875,17.946875,64,112,41
17.95,18.021875,63,112,41
18.025,18.096874,63,112,41
18.1,18.171875,62,112,41
18.175,18.246876,62,112,41
18.25,18.321875,61,112,41
18.325,18.396875,61,112,41
18.4,18.471874,65,112,41
18.475,18.546875,65,112,41
18.55,18.621876,66,112,41
18.625,18.696875,66,112,41
18.7,18.771875,67,112,41
18.775,18.846874,67,112,41
18.85,18.921875,68,112,41
18.925,18.996876,68,112,41
19.0,19.071875,69,112,41
19.075,19.146875,69,112,41
19.15,19.221874,69,112,41
19.225,19.296875,69,112,41
19.3,19.371876,70,112,41
19.375,19.446875,70,112,41
19.45,19.521875,71,112,41
19.525,19.596874,71,112,41
19.6,19.671875,72,112,41
19.675,19.746876,72,112,41
19.75,19.821875,73,112,41
19.825,19.896875,73,112,41
19.9,19.971874,80,112,41
19.975,20.046875,80,112,41
20.05,20.121876,79,112,41
20.125,20.196875,79,112,41
20.2,20.271875,78,127,41
20.275,20.346874,78,112,41
20.35,20.421875,78,112,41
20.425,20.496876,78,112,41
20.5,20.571875,79,112,41
20.575,20.646875,79,112,41
20.65,20.721874,80,112,41
20.725,20.796875,80,112,41
20.8,20.871876,79,112,41
20.875,20.946875,79,112,41
20.95,21.021875,78,127,41
21.025,21.096874,78,112,41
21.1,21.171875,78,112,41
21.175,21.246876,78,112,41
21.25,21.321875,79,112,41
21.325,21.396875,79,112,41
21.4,21.471874,80,112,41
21.475,21.546875,80,112,41
21.55,21.621876,79,112,41
21.625,21.696875,79,112,41
21.7,21.771875,78,127,41
21.775,21.846874,78,112,41
21.85,21.921875,78,112,41
21.925,21.996876,78,112,41
22.0,22.071875,79,112,41
22.075,22.146875,79,112,41
22.15,22.221874,80,112,41
22.225,22.296875,80,112,41
22.3,22.371876,79,112,41
22.375,22.446875,79,112,41
22.45,22.521875,78,127,41
22.525,22.596874,78,112,41
22.6,22.671875,78,112,41
22.675,22.746876,78,112,41
22.75,22.821875,79,112,41
22.825,22.896875,79,112,41
22.9,22.971874,80,127,41
22.975,23.046875,80,112,41
23.05,23.121876,78,112,41
23.125,23.196875,78,112,41
23.2,23.271875,76,112,41
23.275,23.346874,76,112,41
23.35,23.421875,73,112,41
23.425,23.496876,73,112,41
23.5,23.571875,70,112,41
23.575,23.646875,70,112,41
23.65,23.721874,70,127,41
23.725,23.796875,70,112,41
23.8,23.871876,72,112,41
23.875,23.946875,72,112,41
23.95,24.021875,70,112,41
24.025,24.096874,70,112,41
24.1,24.171875,67,112,41
24.175,24.246876,67,112,41
24.25,24.321875,64,112,41
24.325,24.396875,64,112,41
24.4,24.471874,64,127,41
24.475,24.546875,64,112,41
24.55,24.621876,66,112,41
24.625,24.696875,66,112,41
24.7,24.771875,64,112,41
24.775,24.846874,64,112,41
24.85,24.921875,61,112,41
24.925,24.996876,61,112,41
25.0,25.071875,58,112,41
25.075,25.146875,58,112,41
25.15,25.2,58,127,41
25.225,25.275,58,112,41
25.3,25.35,60,112,41
25.375,25.425,60,112,41
25.45,25.5,58,112,41
25.525,25.575,58,112,41
25.6,25.65,55,112,41
25.675,25.725,55,112,41
25.75,25.8,52,112,41
25.825,25.875,52,112,41
25.9,25.971874,58,127,41
25.975,26.046875,58,112,41
26.05,26.121876,60,112,41
26.125,26.196875,60,112,41
26.2,26.271875,58,112,41
26.275,26.346874,58,112,41
26.35,26.421875,55,112,41
26.425,26.496876,55,112,41
26.5,26.571875,52,112,41
26.575,26.646875,52,112,41
26.65,26.721874,58,127,41
26.725,26.796875,58,112,41
26.8,26.871876,60,112,41
26.875,26.946875,60,112,41
26.95,27.021875,58,112,41
27.025,27.096874,58,112,41
27.1,27.171875,55,112,41
27.175,27.246876,55,112,41
27.25,27.321875,52,112,41
27.325,27.396875,52,112,41
27.4,27.621876,52,112,41
27.7,28.1,49,127,41
28.15,28.371876,52,112,41
28.45,28.85,51,127,41
28.9,29.121876,52,112,41
29.2,29.6,49,127,41
29.65,29.871876,52,112,41
29.95,30.35,51,127,41
30.4,30.471874,57,127,41
30.475,30.546875,57,112,41
30.55,30.621876,58,112,41
30.625,30.696875,58,112,41
30.7,30.771875,55,112,41
30.775,30.846874,55,112,41
30.85,30.921875,56,112,41
30.925,30.996876,56,112,41
31.0,31.071875,57,112,41
31.075,31.146875,57,112,41
31.15,31.221874,57,112,41
31.225,31.296875,57,112,41
31.3,31.371876,58,112,41
31.375,31.446875,58,112,41
31.45,31.521875,55,112,41
31.525,31.596874,55,112,41
31.6,31.671875,56,112,41
31.675,31.746876,56,112,41
31.75,31.821875,57,112,41
31.825,31.896875,57,112,41
31.9,32.046875,57,112,41
33.4,33.7,70,112,41
33.7,34.3,71,112,41
34.3,34.6,72,112,41
34.6,34.9,71,112,41
34.9,35.725,70,112,41
36.4,36.7,49,112,41
36.7,37.225,50,112,41
37.3,37.6,51,112,41
37.6,37.85,50,112,41
37.9,38.425,49,112,41
39.1,39.171875,81,112,41
39.175,39.246876,81,112,41
39.25,39.321877,81,112,41
39.325,39.396873,81,112,41
39.4,39.471874,81,112,41
39.475,39.546875,81,112,41
39.55,39.621876,81,112,41
39.625,39.696877,81,112,41
39.7,39.771873,79,112,41
39.775,39.846874,79,112,41
39.85,39.921875,79,112,41
39.925,39.996876,79,112,41
40.0,40.071877,81,112,41
40.075,40.146873,81,112,41
40.15,40.221874,81,112,41
40.225,40.296875,81,112,41
40.3,40.371876,76,112,41
40.375,40.446877,76,112,41
40.45,40.521873,76,112,41
40.525,40.596874,76,112,41
40.6,40.671875,74,112,41
40.675,40.746876,74,112,41
40.75,40.821877,74,112,41
40.825,40.896873,74,112,41
40.9,40.971874,76,112,41
40.975,41.046875,76,112,41
41.05,41.121876,76,112,41
41.125,41.196877,76,112,41
41.2,41.271873,69,112,41
41.275,41.346874,69,112,41
41.35,41.421875,69,112,41
41.425,41.496876,69,112,41
41.5,41.571877,67,112,41
41.575,41.646873,67,112,41
41.65,41.721874,67,112,41
41.725,41.796875,67,112,41
41.8,41.871876,69,112,41
41.875,41.946877,69,112,41
41.95,42.021873,69,112,41
42.025,42.096874,69,112,41
42.1,42.171875,64,112,41
42.1,42.171875,69,112,41
42.175,42.246876,64,112,41
42.175,42.246876,69,112,41
42.25,42.321877,64,112,41
42.25,42.321877,69,112,41
42.325,42.396873,64,112,41
42.325,42.396873,69,112,41
42.4,42.471874,62,112,41
42.4,42.471874,69,112,41
42.475,42.546875,62,112,41
42.475,42.546875,69,112,41
42.55,42.621876,62,112,41
42.55,42.621876,69,112,41
42.625,42.696877,62,112,41
42.625,42.696877,69,112,41
42.7,42.771873,64,112,41
42.7,42.771873,69,112,41
42.775,42.846874,64,112,41
42.775,42.846874,69,112,41
42.85,42.921875,64,112,41
42.85,42.921875,69,112,41
42.925,42.996876,64,112,41
42.925,42.996876,69,112,41
43.0,44.725,70,112,41
44.8,45.4,55,112,41
44.8,46.0,48,112,41
45.4,46.0,57,112,41
46.0,46.6,58,112,41
46.6,46.9,55,112,41
46.6,47.125,48,112,41
46.9,47.2,57,112,41
47.2,47.45,58,112,41
47.5,48.1,55,112,41
47.5,48.7,48,112,41
48.1,48.7,57,112,41
48.7,49.3,58,112,41
49.3,49.6,55,112,41
49.3,49.825,48,112,41
49.6,49.9,57,112,41
49.9,50.15,48,112,41
49.9,50.15,55,112,41
50.2,50.5,70,112,41
50.5,50.8,69,112,41
50.8,51.1,68,112,41
51.1,51.4,67,112,41
51.4,51.7,66,112,41
51.7,52.0,65,112,41
52.0,52.3,64,112,41
52.3,52.6,63,112,41
52.6,52.9,62,112,41
52.9,53.2,63,112,41
53.2,53.5,62,112,41
53.5,53.8,61,112,41
53.8,54.1,60,112,41
54.1,54.4,61,112,41
54.4,54.65,62,112,41
54.7,55.0,63,112,41
55.0,55.3,62,112,41
55.3,55.6,61,112,41
55.6,55.9,60,112,41
55.9,56.2,61,112,41
56.2,56.45,62,112,41
56.5,56.8,63,112,41
56.8,57.05,62,112,41
57.1,57.4,63,112,41
57.4,57.65,62,112,41
57.7,58.0,63,112,41
58.0,58.3,62,112,41
58.3,58.6,59,112,41
58.6,59.125,62,112,41
59.2,59.271873,62,112,41
59.2,59.271873,69,112,41
59.275,59.346874,62,112,41
59.275,59.346874,69,112,41
59.35,59.421875,62,112,41
59.35,59.421875,69,112,41
59.425,59.496876,62,112,41
59.425,59.496876,69,112,41
59.5,59.571877,65,112,41
59.5,59.571877,69,112,41
59.575,59.646873,65,112,41
59.575,59.646873,69,112,41
59.65,59.721874,65,112,41
59.65,59.721874,69,112,41
59.725,59.796875,65,112,41
59.725,59.796875,69,112,41
59.8,59.871876,62,112,41
59.8,59.871876,69,112,41
59.875,59.946877,62,112,41
59.875,59.946877,69,112,41
59.95,60.021873,62,112,41
59.95,60.021873,69,112,41
60.025,60.096874,62,112,41
60.025,60.096874,69,112,41
60.1,60.433334,55,112,41
60.433334,61.683334,57,112,41
60.1,61.683334,63,112,41
62.266666,62.866665,65,112,41
62.866665,63.166664,67,112,41
63.166664,63.466667,70,112,41
63.466667,63.541664,75,112,41
63.541664,63.616665,70,112,41
63.616665,63.691666,75,112,41
63.691666,63.763542,70,112,41
63.766666,63.841667,70,112,41
63.841667,63.916664,63,112,41
63.916664,63.991665,70,112,41
63.991665,64.06354,63,112,41
64.066666,64.14166,75,112,41
64.14166,64.21667,70,112,41
64.21667,64.291664,75,112,41
64.291664,64.36354,70,112,41
64.36667,64.441666,70,112,41
64.441666,64.51666,63,112,41
64.51666,64.59167,70,112,41
64.59167,64.66354,63,112,41
64.666664,64.74167,75,112,41
64.74167,64.816666,70,112,41
64.816666,64.89166,75,112,41
64.89166,64.96354,70,112,41
64.96667,65.041664,70,112,41
65.041664,65.11667,63,112,41
65.11667,65.191666,70,112,41
65.191666,65.26354,63,112,41
65.26666,65.34167,75,112,41
65.34167,65.416664,70,112,41
65.416664,65.49167,75,112,41
65.49167,65.56354,70,112,41
65.566666,65.64166,70,112,41
65.64166,65.71667,63,112,41
65.71667,65.791664,70,112,41
65.791664,65.86354,63,112,41
65.86667,65.941666,75,112,41
65.941666,66.01666,70,112,41
66.01666,66.09167,75,112,41
66.09167,66.16354,70,112,41
66.166664,66.24167,70,112,41
66.24167,66.316666,63,112,41
66.316666,66.39166,70,112,41
66.39166,66.46354,63,112,41
66.46667,66.541664,75,112,41
66.541664,66.61667,70,112,41
66.61667,66.691666,75,112,41
66.691666,66.76354,70,112,41
66.76666,66.84167,70,112,41
66.84167,66.916664,63,112,41
66.916664,66.99167,70,112,41
66.99167,67.06354,63,112,41
67.066666,67.14166,75,112,41
67.14166,67.21667,70,112,41
67.21667,67.291664,75,112,41
67.291664,67.36354,70,112,41
67.36667,67.441666,70,112,41
67.441666,67.51666,63,112,41
67.51666,67.59167,70,112,41
67.59167,67.66354,63,112,41
67.666664,67.74167,75,112,41
67.74167,67.816666,70,112,41
67.816666,67.89166,75,112,41
67.89166,67.96354,70,112,41
67.96667,68.05238,70,112,41
68.05238,68.13809,63,112,41
68.13809,68.22381,70,112,41
68.22381,68.305954,63,112,41
68.309525,68.40952,75,112,41
68.40952,68.50952,70,112,41
68.50952,68.60952,75,112,41
68.60952,68.70535,70,112,41
68.709526,68.809525,70,112,41
68.809525,68.90952,63,112,41
68.90952,69.00952,70,112,41
69.00952,69.105354,63,112,41
69.40952,69.709526,73,112,41
69.709526,69.959526,71,112,41
70.00952,70.309525,68,112,41
70.309525,70.834526,66,112,41
71.209526,71.50952,61,112,41
71.50952,71.75952,59,112,41
71.809525,72.10952,56,112,41
72.10952,72.63452,54,112,41
73.00952,73.22381,70,112,41
73.69524,73.94524,70,112,41
74.49524,74.93899,70,112,41
75.09524,75.39524,58,112,41
75.39524,75.99524,53,112,41
75.99524,76.295235,56,112,41
76.295235,76.51711,61,112,41
76.59524,76.89524,58,112,41
76.89524,77.49524,53,112,41
77.49524,77.795235,56,112,41
77.795235,78.01711,61,112,41
78.09524,80.12024,58,112,41
82.09524,82.166664,73,127,41
82.166664,82.23809,69,112,41
82.23809,82.309525,73,112,41
82.309525,82.38095,69,112,41
82.38095,82.45238,73,112,41
82.45238,82.5238,69,112,41
82.5238,82.66369,73,112,41
83.5238,83.59524,73,127,41
83.59524,83.666664,69,112,41
83.666664,83.73809,73,112,41
83.73809,83.80952,69,112,41
83.80952,83.88095,73,112,41
83.88095,83.9494,69,112,41
83.95238,84.0238,73,112,41
84.0238,84.09524,70,112,41
84.09524,84.166664,73,112,41
84.166664,84.235115,70,112,41
84.23809,84.30952,70,112,41
84.30952,84.38095,66,112,41
84.38095,84.45238,70,112,41
84.45238,84.5238,66,112,41
84.5238,84.59523,70,112,41
84.59523,84.66369,66,112,41
84.666664,84.73809,66,112,41
84.73809,84.80952,63,112,41
84.80952,84.88095,66,112,41
84.88095,84.9494,63,112,41
84.95238,85.0238,63,112,41
85.0238,85.09523,61,112,41
85.09523,85.166664,63,112,41
85.166664,85.23809,61,112,41
85.23809,85.30952,63,112,41
85.30952,85.37797,61,112,41
85.38094,85.45238,61,112,41
85.45238,85.5238,58,112,41
85.5238,85.59523,61,112,41
85.59523,85.66368,58,112,41
85.666664,85.73809,58,112,41
85.73809,85.80952,54,112,41
85.80952,85.88094,58,112,41
85.88094,85.95238,54,112,41
85.95238,86.0238,58,112,41
86.0238,86.092255,54,112,41
86.09523,86.166664,58,112,41
86.166664,86.23809,54,112,41
86.23809,86.30952,58,112,41
86.30952,86.37797,54,112,41
86.38094,86.45238,54,112,41
86.45238,86.5238,51,112,41
86.5238,86.59523,54,112,41
86.59523,86.66666,51,112,41
86.66666,86.73809,54,112,41
86.73809,86.80654,51,112,41
86.80952,86.949394,49,112,41
87.5238,87.592255,73,112,41
87.59523,87.66368,73,112,41
87.66666,87.735115,74,112,41
87.73809,87.80654,74,112,41
87.80952,87.87797,75,112,41
87.88094,87.949394,75,112,41
87.95237,88.02083,75,112,41
88.0238,88.092255,75,112,41
88.09523,88.16368,74,112,41
88.16666,88.23511,74,112,41
88.23809,88.37797,73,112,41
88.95237,89.02082,73,112,41
89.0238,89.092255,73,112,41
89.09523,89.16368,74,112,41
89.16666,89.23511,74,112,41
89.23808,89.30654,75,112,41
89.30952,89.37797,75,112,41
89.38094,89.449394,75,112,41
89.45237,89.52082,75,112,41
89.5238,89.592255,74,112,41
89.59523,89.66368,74,112,41
89.66666,89.73808,73,112,41
89.73808,89.80952,69,112,41
89.80952,89.88094,73,112,41
89.88094,89.949394,69,112,41
89.95237,90.023796,73,112,41
90.023796,90.09523,69,112,41
90.09523,90.16666,73,112,41
90.16666,90.23808,69,112,41
90.23808,90.30952,73,112,41
90.30952,90.37797,69,112,41
90.38094,90.45237,69,112,41
90.45237,90.523796,66,112,41
90.523796,90.59523,69,112,41
90.59523,90.66368,66,112,41
90.66666,90.73808,66,112,41
90.73808,90.80951,64,112,41
90.80951,90.88094,66,112,41
90.88094,90.95237,64,112,41
90.95237,91.023796,66,112,41
91.023796,91.09225,64,112,41
91.09523,91.16666,64,112,41
91.16666,91.23808,61,112,41
91.23808,91.30951,64,112,41
91.30951,91.37797,61,112,41
91.38094,91.45237,61,112,41
91.45237,91.523796,57,112,41
91.523796,91.59523,61,112,41
91.59523,91.66666,57,112,41
91.66666,91.73808,61,112,41
91.73808,91.80653,57,112,41
91.80951,91.88094,57,112,41
91.88094,91.95237,54,112,41
91.95237,92.023796,57,112,41
92.023796,92.09225,54,112,41
92.09522,92.16666,54,112,41
92.16666,92.23808,52,112,41
92.23808,92.30951,54,112,41
92.30951,92.38094,52,112,41
92.38094,92.45237,54,112,41
92.45237,92.52082,52,112,41
92.523796,92.66368,58,112,41
93.95237,94.023796,49,112,41
93.95237,94.023796,58,112,41
93.95237,94.023796,64,112,41
94.023796,94.09225,49,112,41
94.023796,94.09225,58,112,41
94.09522,94.16665,49,112,41
94.09522,94.16665,58,112,41
94.16665,94.23511,49,112,41
94.16665,94.23511,58,112,41
94.16665,94.23511,64,112,41
94.23808,94.30951,58,112,41
94.23808,94.30951,64,112,41
94.30951,94.37796,49,112,41
94.30951,94.37796,58,112,41
94.380936,94.45237,49,112,41
94.380936,94.45237,58,112,41
94.45237,94.52082,58,112,41
94.45237,94.52082,64,112,41
94.523796,94.59522,58,112,41
94.523796,94.59522,64,112,41
94.59522,94.66367,49,112,41
94.59522,94.66367,58,112,41
94.66665,94.73808,49,112,41
94.66665,94.73808,58,112,41
94.73808,94.80653,58,112,41
94.73808,94.80653,64,112,41
94.80951,94.880936,58,112,41
94.80951,94.880936,64,112,41
94.880936,94.94939,49,112,41
94.880936,94.94939,58,112,41
94.95237,95.023796,49,112,41
94.95237,95.023796,58,112,41
95.023796,95.09225,58,112,41
95.023796,95.09225,64,112,41
95.09522,95.16665,58,112,41
95.09522,95.16665,64,112,41
95.16665,95.23511,49,112,41
95.16665,95.23511,58,112,41
95.23808,95.30951,49,112,41
95.23808,95.30951,58,112,41
95.30951,95.37796,58,112,41
95.30951,95.37796,64,112,41
95.380936,95.62796,64,112,41
95.66665,96.0476,52,127,41
96.09522,96.34225,64,112,41
96.380936,96.76189,52,127,41
96.80951,97.02081,64,112,41
97.09522,97.47617,52,127,41
97.52379,97.7351,64,112,41
97.80951,98.19046,52,127,41
98.238075,98.47617,64,112,41
98.8095,99.33331,78,127,41
99.380936,99.66665,76,112,41
99.66665,99.90474,78,112,41
99.95236,100.238075,73,127,41
100.238075,100.380936,74,112,41
100.380936,100.52081,76,112,41
100.52379,100.76189,78,127,41
100.8095,100.87795,66,112,41
100.88093,100.94939,66,112,41
100.95236,101.02081,66,112,41
101.02379,101.09224,66,112,41
101.095215,101.163666,66,112,41
101.16665,101.2351,66,112,41
101.238075,101.306526,66,112,41
101.3095,101.37795,66,112,41
101.38093,101.44939,78,112,41
101.45236,101.52081,78,112,41
101.52379,101.59224,78,112,41
101.595215,101.663666,78,112,41
101.66664,101.7351,78,112,41
101.738075,101.806526,78,112,41
101.8095,101.87795,78,112,41
101.88093,101.94939,78,112,41
101.95236,102.02081,76,112,41
102.02379,102.09224,76,112,41
102.095215,102.163666,76,112,41
102.16664,102.2351,76,112,41
102.238075,102.306526,78,112,41
102.3095,102.37795,78,112,41
102.38093,102.44938,78,112,41
102.45236,102.52081,78,112,41
102.52379,102.59224,73,112,41
102.595215,102.663666,73,112,41
102.66664,102.7351,73,112,41
102.738075,102.806526,73,112,41
102.8095,102.87795,71,112,41
102.88093,102.94938,71,112,41
102.952354,103.02081,71,112,41
103.02379,103.09224,71,112,41
103.095215,103.163666,73,112,41
103.16664,103.23509,73,112,41
103.238075,103.306526,73,112,41
103.3095,103.37795,73,112,41
103.38093,103.44938,66,112,41
103.452354,103.52081,66,112,41
103.52379,103.59224,66,112,41
103.595215,103.663666,66,112,41
103.66664,103.73509,64,112,41
103.738075,103.806526,64,112,41
103.8095,103.87795,64,112,41
103.88093,103.94938,64,112,41
103.952354,104.02081,66,112,41
104.02379,104.09224,66,112,41
104.095215,104.163666,66,112,41
104.16664,104.23509,66,112,41
104.23807,104.306526,61,112,41
104.3095,104.37795,61,112,41
104.38093,104.44938,61,112,41
104.452354,104.520805,61,112,41
104.52379,104.59224,59,112,41
104.595215,104.663666,59,112,41
104.66664,104.73509,59,112,41
104.73807,104.806526,59,112,41
104.8095,104.87795,61,112,41
104.88093,104.94938,61,112,41
104.952354,105.020805,61,112,41
105.02378,105.09224,61,112,41
105.095215,105.66664,58,112,41
105.66664,105.90474,61,112,41
105.952354,106.52378,58,112,41
106.52378,106.76188,61,112,41
106.809494,108.76664,58,112,41
108.86664,108.93509,59,112,41
108.938065,109.00652,59,112,41
109.0095,109.07795,59,112,41
109.080925,109.149376,59,112,41
109.15235,109.2208,59,112,41
109.22378,109.29224,59,112,41
109.29521,109.36366,59,112,41
109.36664,109.43509,59,112,41
109.438065,109.506516,61,127,41
109.5095,109.57795,61,112,41
109.580925,109.649376,61,112,41
109.65235,109.7208,61,112,41
109.72378,109.79224,59,112,41
109.79521,109.86366,59,112,41
109.86664,109.93509,59,112,41
109.938065,110.006516,59,112,41
110.0095,110.07795,59,112,41
110.080925,110.149376,59,112,41
110.15235,110.2208,59,112,41
110.22378,110.29224,59,112,41
110.29521,110.36366,61,127,41
110.36664,110.43509,61,112,41
110.438065,110.506516,61,112,41
110.50949,110.57795,61,112,41
110.580925,110.649376,59,112,41
110.65235,110.7208,59,112,41
110.72378,110.79223,59,112,41
110.79521,110.86366,59,112,41
110.86664,110.93509,59,112,41
110.938065,111.006516,59,112,41
111.00949,111.07795,59,112,41
111.080925,111.149376,59,112,41
111.15235,111.2208,61,127,41
111.22378,111.29223,61,112,41
111.29521,111.36366,61,112,41
111.36664,111.43509,61,112,41
111.438065,111.506516,59,112,41
111.50949,111.57795,59,112,41
111.580925,111.649376,59,112,41
111.65235,111.7208,59,112,41
111.72378,111.79223,59,112,41
111.795204,111.86366,59,112,41
111.86664,111.93509,59,112,41
111.938065,112.006516,59,112,41
112.00949,112.07794,61,127,41
112.080925,112.149376,61,112,41
112.15235,112.2208,61,112,41
112.22378,112.29223,61,112,41
112.295204,112.36366,59,112,41
112.36664,112.43509,59,112,41
112.438065,112.506516,59,112,41
112.50949,112.57794,59,112,41
112.58092,112.649376,55,112,41
112.65235,112.7208,55,112,41
112.72378,112.79223,55,112,41
112.795204,112.863655,55,112,41
112.86664,112.93509,57,112,41
112.938065,113.006516,57,112,41
113.00949,113.07794,57,112,41
113.08092,113.149376,57,112,41
113.15235,113.2208,59,112,41
113.22378,113.29223,59,112,41
113.295204,113.363655,59,112,41
113.36664,113.43509,59,112,41
113.438065,113.506516,57,112,41
113.50949,113.57794,57,112,41
113.58092,113.649376,57,112,41
113.65235,113.7208,57,112,41
113.72378,113.79223,55,112,41
113.795204,113.863655,55,112,41
113.86663,113.93509,55,112,41
113.938065,114.006516,55,112,41
114.00949,114.07794,62,112,41
114.08092,114.14937,62,112,41
114.15235,114.2208,62,112,41
114.22378,114.29223,62,112,41
114.295204,114.363655,61,112,41
114.36663,114.43509,61,112,41
114.438065,114.506516,61,112,41
114.50949,114.57794,61,112,41
114.58092,114.64937,60,112,41
114.65234,114.7208,60,112,41
114.72378,114.79223,60,112,41
114.795204,114.863655,60,112,41
114.86663,114.93509,59,112,41
114.938065,115.006516,59,112,41
115.00949,115.07794,59,112,41
115.08092,115.14937,59,112,41
115.15234,115.2208,58,112,41
115.22378,115.29223,58,112,41
115.295204,115.363655,58,112,41
115.36663,115.43508,58,112,41
115.438065,115.506516,57,112,41
115.50949,115.57794,57,112,41
115.58092,115.64937,57,112,41
115.65234,115.7208,57,112,41
115.72378,115.79223,56,112,41
115.795204,115.863655,56,112,41
115.86663,115.93508,56,112,41
115.93806,116.006516,56,112,41
116.00949,116.07794,55,112,41
116.08092,116.14937,55,112,41
116.15234,116.220795,55,112,41
116.22378,116.29223,55,112,41
116.295204,116.363655,54,112,41
116.36663,116.43508,54,112,41
116.43806,116.506516,54,112,41
116.50949,116.57794,54,112,41
116.58092,116.676155,53,112,41
116.676155,116.77139,58,112,41
116.77139,116.86663,62,112,41
116.86663,117.15234,74,112,41
117.15234,117.43806,72,112,41
117.43806,117.72377,74,112,41
117.72377,117.86663,69,112,41
117.86663,118.00948,67,112,41
118.00948,118.15234,69,112,41
118.15234,118.295204,74,112,41
118.295204,118.58092,74,112,41
118.58092,118.81901,69,112,41
118.86663,119.10472,72,112,41
119.15234,119.220795,50,127,41
119.22377,119.29222,50,112,41
119.2952,119.363655,51,112,41
119.36663,119.43508,51,112,41
119.43806,119.50651,48,112,41
119.50948,119.577934,48,112,41
119.58092,119.64937,49,112,41
119.65234,119.720795,49,112,41
119.72377,119.79222,50,112,41
119.7952,119.863655,50,112,41
120.58091,121.10472,62,112,41
120.58091,121.10472,70,112,41
121.15234,121.220795,61,112,41
121.22377,121.29222,61,112,41
121.2952,121.36365,61,112,41
121.36662,121.43508,61,112,41
121.43806,121.50651,60,112,41
121.50948,121.577934,60,112,41
121.58091,121.64936,60,112,41
121.65234,121.720795,60,112,41
121.72377,121.79222,59,112,41
121.7952,121.86365,59,112,41
121.86662,121.93508,59,112,41
121.93806,122.00651,59,112,41
122.00948,122.077934,58,112,41
122.08091,122.14936,58,112,41
122.15234,122.220795,58,112,41
122.22377,122.29222,58,112,41
122.2952,122.36365,57,112,41
122.36662,122.43508,57,112,41
122.43806,122.50651,57,112,41
122.50948,122.577934,57,112,41
122.58091,122.64936,56,112,41
122.652336,122.720795,56,112,41
122.72377,122.79222,56,112,41
122.7952,122.86365,56,112,41
122.86662,122.935074,55,112,41
122.93806,123.00651,55,112,41
123.00948,123.077934,55,112,41
123.08091,123.14936,55,112,41
123.152336,123.220795,54,112,41
123.22377,123.29222,54,112,41
123.2952,123.36365,54,112,41
123.36662,123.435074,54,112,41
123.72377,124.00948,60,112,41
124.00948,124.2952,62,112,41
124.2952,124.7952,60,112,41
124.86662,125.10472,62,112,41
125.152336,125.22079,50,127,41
125.22376,125.29222,50,112,41
125.2952,125.36365,51,112,41
125.36662,125.435074,51,112,41
125.43805,125.5065,48,112,41
125.509476,125.577934,48,112,41
125.58091,125.64936,49,112,41
125.652336,125.72079,49,112,41
125.72376,125.79222,50,112,41
125.7952,125.86365,50,112,41
126.86662,127.29221,62,112,41
126.86662,127.29221,71,112,41
127.43805,127.5065,62,112,41
127.509476,127.57793,62,112,41
127.58091,127.64936,50,112,41
127.652336,127.72079,50,112,41
127.72376,127.86365,50,112,41
128.00948,128.2952,60,112,41
128.2952,128.5809,62,112,41
128.5809,129.15233,60,112,41
129.15233,129.39043,62,112,41
129.43805,129.5065,50,112,41
129.50948,129.57793,50,112,41
129.5809,129.64935,51,112,41
129.65233,129.72078,51,112,41
129.72375,129.7922,48,112,41
129.7952,129.86365,48,112,41
129.86662,129.93507,49,112,41
129.93805,130.0065,49,112,41
130.00948,130.14935,50,112,41
131.15233,131.57793,62,112,41
131.15233,131.57793,71,112,41
131.72375,131.7922,62,112,41
131.79518,131.86363,62,112,41
131.86662,131.93507,86,112,41
131.93805,132.0065,86,112,41
132.00948,132.07793,86,112,41
132.0809,132.14935,86,112,41
132.15233,132.22078,62,112,41
132.22375,132.2922,62,112,41
132.29518,132.36363,62,112,41
132.36662,132.43507,62,112,41
132.43805,132.5065,50,112,41
132.50948,132.57793,50,112,41
132.5809,132.64935,50,112,41
132.65233,132.72078,50,112,41
132.72375,132.7922,50,112,41
132.79518,132.86363,50,112,41
132.86661,133.0065,53,112,41
133.15233,133.53328,50,127,41
133.5809,133.72078,53,112,41
133.86661,134.24756,56,127,41
134.29518,134.43506,59,112,41
134.5809,134.96185,62,127,41
135.00948,135.14935,65,112,41
135.29518,135.67613,68,127,41
135.72375,135.7922,71,127,41
135.79518,135.86363,71,112,41
135.86661,135.93506,72,112,41
135.93803,136.0065,72,112,41
136.00948,136.07793,73,127,41
136.0809,136.14935,73,112,41
136.15233,136.22078,72,112,41
136.22375,136.2922,72,112,41
136.29518,136.36363,71,112,41
136.36661,136.43506,71,112,41
136.43803,136.50648,71,127,41
136.50948,136.57793,71,112,41
136.5809,136.64935,72,112,41
136.65233,136.72078,72,112,41
136.72375,136.7922,73,127,41
136.79518,136.86363,73,112,41
136.86661,136.93506,72,112,41
136.93803,137.00648,72,112,41
137.00946,137.07793,71,112,41
137.0809,137.14935,71,112,41
137.15233,137.22078,71,127,41
137.22375,137.2922,71,112,41
137.29518,137.36363,72,112,41
137.36661,137.43506,72,112,41
137.43803,137.50648,73,127,41
137.50946,137.57793,73,112,41
137.5809,137.64935,72,112,41
137.65233,137.72078,72,112,41
137.72375,137.7922,71,112,41
137.79518,137.86363,71,112,41
137.86661,137.93506,71,127,41
137.93803,138.00648,71,112,41
138.00946,138.07793,72,112,41
138.0809,138.14935,72,112,41
138.15233,138.22078,73,127,41
138.22375,138.2922,73,112,41
138.29518,138.36363,72,112,41
138.36661,138.43506,72,112,41
138.43803,138.50648,71,112,41
138.50946,138.57791,71,112,41
138.5809,138.64935,71,127,41
138.65233,138.72078,71,112,41
138.72375,138.7922,73,112,41
138.79518,138.86363,73,112,41
138.86661,138.93506,71,112,41
138.93803,139.00648,71,112,41
139.00946,139.07791,68,112,41
139.0809,139.14935,68,112,41
139.15233,139.22078,65,112,41
139.22375,139.2922,65,112,41
139.29518,139.36363,65,127,41
139.36661,139.43506,65,112,41
139.43803,139.50648,67,112,41
139.50946,139.57791,67,112,41
139.58089,139.64935,65,112,41
139.65233,139.72078,65,112,41
139.72375,139.7922,62,112,41
139.79518,139.86363,62,112,41
139.86661,139.93506,59,112,41
139.93803,140.00648,59,112,41
140.00946,140.07791,59,112,41
140.08089,140.14935,59,112,41
140.15233,140.22078,61,112,41
140.22375,140.2922,61,112,41
140.29518,140.36363,59,112,41
140.36661,140.43506,59,112,41
140.43803,140.50648,56,112,41
140.50946,140.57791,56,112,41
140.58089,140.64934,53,112,41
140.65233,140.72078,53,112,41
140.72375,140.7922,53,112,41
140.79518,140.86363,53,112,41
140.86661,140.93506,55,112,41
140.93803,141.00648,55,112,41
141.00946,141.07791,53,112,41
141.08089,141.14934,53,112,41
141.15233,141.22078,50,112,41
141.22375,141.2922,50,112,41
141.29518,141.36363,53,112,41
141.36661,141.43506,53,112,41
141.43803,141.50648,53,127,41
141.50946,141.57791,53,112,41
141.58089,141.64934,55,112,41
141.65231,141.72078,55,112,41
141.72375,141.7922,53,112,41
141.79518,141.86363,53,112,41
141.86661,141.93506,50,112,41
141.93803,142.00648,50,112,41
142.00946,142.07791,53,112,41
142.08089,142.14934,53,112,41
142.15231,142.22078,53,127,41
142.22375,142.2922,53,112,41
142.29518,142.36363,55,112,41
142.36661,142.43506,55,112,41
142.43803,142.50648,53,112,41
142.50946,142.57791,53,112,41
142.58089,142.64934,50,112,41
142.65231,142.72078,50,112,41
142.72375,142.7922,53,112,41
142.79518,142.86363,53,112,41
142.86661,143.07791,52,112,41
143.15231,143.53326,53,127,41
143.58089,143.64934,52,127,41
143.65231,143.72076,52,112,41
143.72374,143.7922,53,112,41
143.79518,143.86363,53,112,41
143.86661,143.93506,50,112,41
143.93803,144.00648,50,112,41
144.00946,144.07791,51,112,41
144.08089,144.14934,51,112,41
144.15231,144.22076,52,112,41
144.22374,144.2922,52,112,41
144.29518,144.50648,52,112,41
144.58089,144.96184,53,127,41
145.00946,145.07791,52,127,41
145.08089,145.14934,52,112,41
145.15231,145.22076,53,112,41
145.22374,145.29219,53,112,41
145.29518,145.36363,50,112,41
145.36661,145.43506,50,112,41
145.43803,145.50648,51,112,41
145.50946,145.57791,51,112,41
145.58089,145.64934,52,112,41
145.65231,145.72076,52,112,41
145.72374,145.86363,52,112,41
147.43803,148.00946,74,112,41
148.00946,148.24756,73,112,41
148.29517,148.53326,72,112,41
148.58089,148.8666,76,127,41
148.8666,149.15231,75,112,41
149.15231,149.65231,76,112,41
150.00946,150.58089,53,112,41
150.58089,150.81898,54,112,41
150.8666,151.10469,55,112,41
151.15231,151.43802,58,127,41
151.43802,151.67612,57,112,41
151.72374,152.22374,56,112,41
152.58089,152.64934,62,112,41
152.58089,152.64934,76,112,41
152.65231,152.72076,62,112,41
152.65231,152.72076,76,112,41
152.72374,152.79219,62,112,41
152.72374,152.79219,76,112,41
152.79517,152.86362,62,112,41
152.79517,152.86362,76,112,41
152.8666,152.93504,62,112,41
152.8666,152.93504,74,112,41
152.93802,153.00647,62,112,41
152.93802,153.00647,74,112,41
153.00945,153.07791,62,112,41
153.00945,153.07791,74,112,41
153.08089,153.14934,62,112,41
153.08089,153.14934,74,112,41
153.15231,153.22076,62,112,41
153.15231,153.22076,76,112,41
153.22374,153.29219,62,112,41
153.22374,153.29219,76,112,41
153.29517,153.36362,62,112,41
153.29517,153.36362,76,112,41
153.3666,153.43504,62,112,41
153.3666,153.43504,76,112,41
153.43802,153.50647,62,112,41
153.43802,153.50647,71,112,41
153.50945,153.57791,62,112,41
153.50945,153.57791,71,112,41
153.58089,153.64934,62,112,41
153.58089,153.64934,71,112,41
153.65231,153.72076,62,112,41
153.65231,153.72076,71,112,41
153.72374,153.79219,62,112,41
153.72374,153.79219,69,112,41
153.79517,153.86362,62,112,41
153.79517,153.86362,69,112,41
153.8666,153.93504,62,112,41
153.8666,153.93504,69,112,41
153.93802,154.00647,62,112,41
153.93802,154.00647,69,112,41
154.00945,154.0779,62,112,41
154.00945,154.0779,71,112,41
154.08089,154.14934,62,112,41
154.08089,154.14934,71,112,41
154.15231,154.22076,62,112,41
154.15231,154.22076,71,112,41
154.22374,154.29219,62,112,41
154.22374,154.29219,71,112,41
154.29517,154.36362,64,112,41
154.3666,154.43504,64,112,41
154.43802,154.50647,64,112,41
154.50945,154.5779,64,112,41
154.58087,154.64934,62,112,41
154.65231,154.72076,62,112,41
154.72374,154.79219,62,112,41
154.79517,154.86362,62,112,41
154.8666,154.93504,64,112,41
154.93802,155.00647,64,112,41
155.00945,155.0779,64,112,41
155.08087,155.14934,64,112,41
155.15231,155.22076,62,112,41
155.22374,155.29219,62,112,41
155.29517,155.36362,62,112,41
155.3666,155.43504,62,112,41
155.43802,155.50647,62,112,41
155.50945,155.5779,62,112,41
155.58087,155.64934,62,112,41
155.65231,155.72076,62,112,41
155.72374,155.79219,62,112,41
155.79517,155.86362,62,112,41
155.8666,155.93504,62,112,41
155.93802,156.00647,62,112,41
159.72662,163.10162,50,112,41
159.72662,164.60162,58,112,41
164.72662,165.32663,57,112,41
164.72662,165.32663,62,112,41
165.32663,165.92664,60,112,41
165.32663,165.92664,64,112,41
165.92664,166.52663,58,112,41
165.92664,166.52663,62,112,41
166.52663,166.82663,62,112,41
166.82663,167.12663,64,112,41
166.52663,167.35162,58,112,41
167.12663,167.37663,62,112,41
167.42664,168.02663,57,112,41
167.42664,168.02663,62,112,41
168.02663,168.62663,60,112,41
168.02663,168.62663,64,112,41
168.62663,169.22662,58,112,41
168.62663,169.22662,62,112,41
169.22662,169.52663,62,112,41
169.52663,169.82663,64,112,41
169.82663,169.97351,62,112,41
169.22662,170.05164,58,112,41
170.12663,170.1985,69,112,41
170.20163,170.2735,69,112,41
170.27663,170.34851,81,112,41
170.35162,170.42351,81,112,41
170.42664,170.67664,79,112,41
170.72662,171.02663,77,112,41
171.02663,171.32663,76,112,41
171.32663,171.62663,74,112,41
171.62663,171.92664,72,112,41
171.92664,172.17664,70,112,41
172.22662,172.29851,69,112,41
172.30164,172.3735,69,112,41
172.37663,172.4485,72,112,41
172.45163,172.5235,72,112,41
172.52663,172.59851,65,112,41
172.60162,172.67351,65,112,41
172.67664,172.7485,69,112,41
172.75163,172.8235,69,112,41
172.82663,172.8985,62,112,41
172.90163,172.97351,62,112,41
172.97662,173.04851,62,112,41
173.05164,173.1235,62,112,41
173.12663,173.1985,61,112,41
173.20163,173.2735,61,112,41
173.27663,173.34851,61,112,41
173.35162,173.42351,61,112,41
173.42664,173.4985,60,112,41
173.50163,173.5735,60,112,41
173.57663,173.6485,60,112,41
173.65163,173.72351,60,112,41
173.72662,173.79851,59,112,41
173.80164,173.8735,59,112,41
173.87663,173.9485,59,112,41
173.95163,174.0235,59,112,41
174.02663,174.09851,60,112,41
174.10162,174.17351,60,112,41
174.17664,174.2485,60,112,41
174.25163,174.3235,60,112,41
174.32663,174.3985,61,112,41
174.40163,174.47351,61,112,41
174.47662,174.54851,61,112,41
174.55164,174.6235,61,112,41
174.62663,174.6985,62,112,41
174.70163,174.7735,62,112,41
174.77663,174.84851,62,112,41
174.85162,174.92351,62,112,41
174.92664,174.9985,61,112,41
175.00163,175.0735,61,112,41
175.07663,175.1485,61,112,41
175.15163,175.22351,61,112,41
175.22662,175.29851,60,112,41
175.30164,175.3735,60,112,41
175.37663,175.4485,60,112,41
175.45163,175.5235,60,112,41
175.52663,175.59851,59,112,41
175.60162,175.67351,59,112,41
175.67664,175.7485,59,112,41
175.75163,175.8235,59,112,41
175.82663,175.8985,60,112,41
175.90163,175.97351,60,112,41
175.97662,176.04851,60,112,41
176.05164,176.1235,60,112,41
176.12663,176.1985,61,112,41
176.20163,176.2735,61,112,41
176.27663,176.34851,61,112,41
176.35162,176.42351,61,112,41
176.42664,176.72662,62,112,41
176.72662,176.97662,61,112,41
177.02663,177.32663,62,112,41
177.32663,177.57663,61,112,41
177.62663,177.92664,62,112,41
177.92664,178.17664,61,112,41
178.22662,178.52663,54,112,41
178.52663,179.05164,57,112,41
179.12663,179.42923,64,112,41
179.42923,179.97833,66,112,41
180.05898,181.30794,70,112,41
182.78412,183.06984,74,112,41
183.06984,183.64127,79,112,41
183.64127,183.73651,77,112,41
183.73651,183.83174,79,112,41
183.83174,183.92699,81,112,41
183.92699,184.21269,79,112,41
184.21269,184.35555,77,112,41
184.35555,184.49841,74,112,41
184.49841,184.87936,72,112,41
184.92699,185.06984,72,112,41
185.06984,185.21269,74,112,41
185.21269,185.35555,77,112,41
185.35555,186.21269,79,112,41
186.21269,186.30794,77,112,41
186.30794,186.40317,79,112,41
186.40317,186.49841,81,112,41
186.49841,186.78412,79,112,41
186.78412,186.92697,77,112,41
186.92697,187.06984,74,112,41
187.06984,187.57074,72,112,41
187.57074,187.76173,72,127,41
187.76599,187.97513,74,127,41
187.9798,188.21089,77,127,41
188.21606,188.81606,77,112,41
188.81606,189.36606,74,112,41
189.41606,189.71606,69,112,41
189.71606,189.96606,67,112,41
190.01605,190.61606,65,112,41
190.61606,191.16606,62,112,41
191.21606,191.51605,57,112,41
191.51605,191.76605,53,112,41
191.81606,191.89105,50,112,41
191.89105,191.96294,58,112,41
191.96606,192.04106,58,112,41
192.04106,192.11293,50,112,41
192.11606,192.19106,51,112,41
192.19106,192.26294,60,112,41
192.26605,192.34106,60,112,41
192.34106,192.41293,51,112,41
192.41606,192.49106,52,112,41
192.49106,192.56293,61,112,41
192.56606,192.64105,61,112,41
192.64105,192.71294,52,112,41
192.71606,192.79106,53,112,41
192.79106,192.86293,62,112,41
192.86606,192.94106,62,112,41
192.94106,193.01294,53,112,41
193.01605,193.09106,52,112,41
193.09106,193.16293,61,112,41
193.16606,193.24106,61,112,41
193.24106,193.31293,52,112,41
193.31606,193.39105,51,112,41
193.39105,193.46294,60,112,41
193.46606,193.54106,60,112,41
193.54106,193.61293,51,112,41
193.61606,193.68793,55,112,41
193.69106,193.76294,62,112,41
193.76605,193.83794,62,112,41
193.84106,193.91293,55,112,41
193.91606,193.98793,55,112,41
193.99106,194.06293,63,112,41
194.06606,194.13794,63,112,41
194.14105,194.21294,55,112,41
194.21606,194.28793,55,112,41
194.29106,194.36293,64,112,41
194.36606,194.43793,64,112,41
194.44106,194.51294,55,112,41
194.51605,194.58794,55,112,41
194.59106,194.66293,65,112,41
194.66606,194.73793,65,112,41
194.74106,194.81293,55,112,41
194.81606,194.88794,55,112,41
194.89105,194.96294,64,112,41
194.96606,195.03793,64,112,41
195.04106,195.11293,55,112,41
195.11606,195.18793,55,112,41
195.19106,195.26294,63,112,41
195.26605,195.33794,63,112,41
195.34106,195.41293,55,112,41
195.41606,195.49106,55,112,41
195.41606,195.49106,62,112,41
195.49106,195.56293,62,112,41
195.49106,195.56293,71,112,41
195.56606,195.64105,62,112,41
195.56606,195.64105,71,112,41
195.64105,195.71294,55,112,41
195.64105,195.71294,62,112,41
195.71606,195.79106,55,112,41
195.71606,195.79106,63,112,41
195.79106,195.86293,63,112,41
195.79106,195.86293,72,112,41
195.86606,195.94106,63,112,41
195.86606,195.94106,72,112,41
195.94106,196.01294,55,112,41
195.94106,196.01294,63,112,41
196.01605,196.09106,55,112,41
196.01605,196.09106,64,112,41
196.09106,196.16293,64,112,41
196.09106,196.16293,73,112,41
196.16606,196.24106,64,112,41
196.16606,196.24106,73,112,41
196.24106,196.31293,55,112,41
196.24106,196.31293,64,112,41
196.31606,196.39105,55,112,41
196.31606,196.39105,65,112,41
196.39105,196.46294,65,112,41
196.39105,196.46294,74,112,41
196.46606,196.54106,65,112,41
196.46606,196.54106,74,112,41
196.54106,196.61293,55,112,41
196.54106,196.61293,65,112,41
196.61606,196.69106,55,112,41
196.61606,196.69106,64,112,41
196.69106,196.76294,64,112,41
196.69106,196.76294,73,112,41
196.76605,196.84106,64,112,41
196.76605,196.84106,73,112,41
196.84106,196.91293,55,112,41
196.84106,196.91293,64,112,41
196.91606,196.99106,55,112,41
196.91606,196.99106,63,112,41
196.99106,197.06293,63,112,41
196.99106,197.06293,72,112,41
197.06606,197.14105,63,112,41
197.06606,197.14105,72,112,41
197.14105,197.21294,55,112,41
197.14105,197.21294,63,112,41
197.21606,197.29106,48,112,41
197.21606,197.29106,55,112,41
197.29106,197.36293,62,112,41
197.29106,197.36293,70,112,41
197.36606,197.44106,62,112,41
197.36606,197.44106,70,112,41
197.44106,197.51294,48,112,41
197.44106,197.51294,55,112,41
197.51605,197.59106,48,112,41
197.51605,197.59106,55,112,41
197.59106,197.66293,64,112,41
197.59106,197.66293,72,112,41
197.66606,197.74106,64,112,41
197.66606,197.74106,72,112,41
197.74106,197.81293,48,112,41
197.74106,197.81293,55,112,41
197.81606,197.89105,48,112,41
197.81606,197.89105,55,112,41
197.89105,197.96294,62,112,41
197.89105,197.96294,70,112,41
197.96606,198.04106,62,112,41
197.96606,198.04106,70,112,41
198.04106,198.11293,48,112,41
198.04106,198.11293,55,112,41
198.11606,198.19106,48,112,41
198.11606,198.19106,55,112,41
198.19106,198.26294,64,112,41
198.19106,198.26294,72,112,41
198.26605,198.34106,64,112,41
198.26605,198.34106,72,112,41
198.34106,198.41293,48,112,41
198.34106,198.41293,55,112,41
198.41606,198.49106,48,112,41
198.41606,198.49106,55,112,41
198.49106,198.56293,62,112,41
198.49106,198.56293,70,112,41
198.56606,198.64105,62,112,41
198.56606,198.64105,70,112,41
198.64105,198.71294,48,112,41
198.64105,198.71294,55,112,41
198.71606,198.79106,48,112,41
198.71606,198.79106,55,112,41
198.79106,198.86293,64,112,41
198.79106,198.86293,72,112,41
198.86606,198.94106,64,112,41
198.86606,198.94106,72,112,41
198.94106,199.01294,48,112,41
198.94106,199.01294,55,112,41
199.01605,199.09106,48,112,41
199.01605,199.09106,55,112,41
199.09106,199.16293,62,112,41
199.09106,199.16293,70,112,41
199.16606,199.24106,62,112,41
199.16606,199.24106,70,112,41
199.24106,199.31293,48,112,41
199.24106,199.31293,55,112,41
199.31606,199.39105,48,112,41
199.31606,199.39105,55,112,41
199.39105,199.46294,64,112,41
199.39105,199.46294,72,112,41
199.46606,199.54106,64,112,41
199.46606,199.54106,72,112,41
199.54106,199.61293,48,112,41
199.54106,199.61293,55,112,41
199.61606,199.69106,48,112,41
199.61606,199.69106,55,112,41
199.69106,199.76294,62,112,41
199.69106,199.76294,70,112,41
199.76605,199.84106,62,112,41
199.76605,199.84106,70,112,41
199.84106,199.91293,48,112,41
199.84106,199.91293,55,112,41
199.91606,199.99106,48,112,41
199.91606,199.99106,55,112,41
199.99106,200.06293,64,112,41
199.99106,200.06293,72,112,41
200.06606,200.14105,64,112,41
200.06606,200.14105,72,112,41
200.14105,200.21294,48,112,41
200.14105,200.21294,55,112,41
200.21606,200.29106,48,112,41
200.21606,200.29106,55,112,41
200.29106,200.36293,62,112,41
200.29106,200.36293,70,112,41
200.36606,200.44106,62,112,41
200.36606,200.44106,70,112,41
200.44106,200.51294,48,112,41
200.44106,200.51294,55,112,41
200.51605,200.59106,48,112,41
200.51605,200.59106,55,112,41
200.59106,200.66293,64,112,41
200.59106,200.66293,72,112,41
200.66606,200.74106,64,112,41
200.66606,200.74106,72,112,41
200.74106,200.81293,48,112,41
200.74106,200.81293,55,112,41
200.81606,200.89137,50,112,41
200.89137,200.96793,58,112,41
200.96793,201.04575,58,112,41
201.04575,201.12505,50,112,41
201.12505,201.2057,52,112,41
201.2057,201.2878,60,112,41
201.2878,201.37152,60,112,41
201.37152,201.45677,52,112,41
201.45677,201.5436,50,112,41
201.5436,201.63228,58,112,41
201.63228,201.72266,58,112,41
201.72266,201.8148,50,112,41
201.8148,201.90935,52,112,41
201.90935,202.00658,60,112,41
202.00658,202.10664,60,112,41
202.10664,202.20972,52,112,41
202.20972,202.31601,50,112,41
202.31601,202.42584,58,112,41
202.42584,202.53929,58,112,41
202.53929,202.65665,50,112,41
202.65665,202.77815,52,112,41
202.77815,202.90422,60,112,41
202.90422,203.03525,60,112,41
203.03525,203.17142,52,112,41
203.17142,203.77837,50,112,41
203.17142,203.77837,58,112,41
203.77837,204.5179,52,112,41
203.77837,204.5179,60,112,41
204.5179,205.46419,50,112,41
204.5179,205.46419,58,112,41
205.46419,205.53264,56,127,41
205.53561,205.60408,56,112,41
205.60706,205.6755,57,112,41
205.67848,205.74693,57,112,41
205.74991,205.81836,53,112,41
205.82133,205.88979,53,112,41
205.89276,205.96121,54,112,41
205.96419,206.03264,54,112,41
206.03561,206.10408,55,112,41
206.10706,206.1755,55,112,41
206.17848,206.24693,56,127,41
206.24991,206.31836,56,112,41
206.32133,206.38979,57,112,41
206.39276,206.46121,57,112,41
206.46419,206.53264,53,112,41
206.53561,206.60408,53,112,41
206.60706,206.6755,54,112,41
206.67848,206.74693,54,112,41
206.74991,206.81836,55,112,41
206.82133,206.88979,55,112,41
206.89276,207.17848,59,127,41
207.17848,207.41656,56,112,41
207.46419,207.60406,53,112,41
207.60704,207.6755,56,112,41
207.67848,207.74693,56,112,41
207.74991,207.81836,57,112,41
207.82133,207.88979,57,112,41
207.89276,207.96121,53,112,41
207.96419,208.03264,53,112,41
208.03561,208.10406,54,112,41
208.10704,208.1755,54,112,41
208.17848,208.24693,55,112,41
208.24991,208.31836,55,112,41
208.32133,208.60704,59,127,41
208.60704,208.84514,56,112,41
208.89276,209.03264,53,112,41
209.03561,209.32133,75,127,41
209.32133,210.13086,73,112,41
210.17847,210.46419,69,112,41
210.46419,210.70229,66,112,41
210.74991,211.03561,75,127,41
211.03561,211.84514,73,112,41
211.89276,212.17847,69,112,41
212.17847,212.41656,66,112,41
212.46419,213.03561,78,112,41
213.03561,213.55942,76,112,41
213.60704,213.89276,74,112,41
213.89276,214.13084,67,112,41
214.17847,214.7499,66,112,41
214.7499,215.32132,64,112,41
215.32132,215.82132,59,112,41
215.89276,215.96121,59,112,41
215.96419,216.03264,59,112,41
216.03561,216.10406,60,112,41
216.10704,216.17549,60,112,41
216.17847,216.24692,57,112,41
216.2499,216.31834,57,112,41
216.32132,216.38977,58,112,41
216.39275,216.46121,58,112,41
216.46419,216.53264,59,112,41
216.53561,216.60406,59,112,41
216.60704,216.67549,59,112,41
216.67847,216.74692,59,112,41
216.7499,216.81834,60,112,41
216.82132,216.88977,60,112,41
216.89275,216.96121,57,112,41
216.96419,217.03264,57,112,41
217.03561,217.10406,58,112,41
217.10704,217.17549,58,112,41
217.17847,217.24692,59,112,41
217.2499,217.31834,59,112,41
217.32132,217.60704,71,112,41
217.60704,217.84514,68,112,41
217.89275,218.03264,65,112,41
218.03561,218.10406,59,112,41
218.10704,218.17549,59,112,41
218.17847,218.24692,60,112,41
218.2499,218.31834,60,112,41
218.32132,218.38977,57,112,41
218.39275,218.4612,57,112,41
218.46419,218.53264,58,112,41
218.53561,218.60406,58,112,41
218.60704,218.67549,59,112,41
218.67847,218.74692,59,112,41
218.7499,219.03561,71,127,41
219.03561,219.2737,68,112,41
219.32132,219.4612,71,112,41
219.46417,219.7499,70,127,41
219.7499,220.38977,68,112,41
220.39275,220.4612,68,112,41
220.46417,220.53262,72,127,41
220.53561,220.60406,72,112,41
220.60704,220.67549,73,112,41
220.67847,220.74692,73,112,41
220.7499,220.81834,68,112,41
220.82132,220.88977,68,112,41
220.89275,220.9612,70,112,41
220.96417,221.03262,70,112,41
221.0356,221.10406,71,112,41
221.10704,221.17549,71,112,41
221.17847,221.46417,70,127,41
221.46417,222.10406,68,112,41
222.10704,222.17549,68,112,41
222.17847,222.24692,72,127,41
222.2499,222.31834,72,112,41
222.32132,222.38977,73,112,41
222.39275,222.4612,73,112,41
222.46417,222.53262,68,112,41
222.5356,222.60405,68,112,41
222.60704,222.67549,70,112,41
222.67847,222.74692,70,112,41
222.7499,222.81834,71,112,41
222.82132,222.88977,71,112,41
222.89275,222.98799,73,112,41
222.98799,223.08322,66,112,41
223.08322,223.17549,58,112,41
223.17847,223.2737,58,112,41
223.2737,223.36894,66,112,41
223.36894,223.4612,73,112,41
223.46417,223.55942,73,112,41
223.55942,223.65465,66,112,41
223.65465,223.74692,58,112,41
223.7499,223.84512,58,112,41
223.84512,223.94037,66,112,41
223.94037,224.03262,73,112,41
224.0356,224.13084,73,112,41
224.13084,224.22607,66,112,41
224.22607,224.31834,58,112,41
224.32132,224.41655,58,112,41
224.41655,224.5118,66,112,41
224.5118,224.60405,73,112,41
224.60703,224.70227,73,112,41
224.70227,224.7975,66,112,41
224.7975,224.88977,58,112,41
224.89275,224.98798,49,112,41
224.98798,225.08322,58,112,41
225.08322,225.17548,66,112,41
225.17845,225.2737,66,112,41
225.2737,225.36894,58,112,41
225.36894,225.4612,49,112,41
225.46417,225.55942,49,112,41
225.55942,225.65465,58,112,41
225.65465,225.74692,66,112,41
225.7499,225.84512,66,112,41
225.84512,225.94037,58,112,41
225.94037,226.03262,49,112,41
226.0356,226.13084,49,112,41
226.13084,226.22607,58,112,41
226.22607,226.31834,66,112,41
226.32132,226.4612,49,127,41
226.60703,227.10703,48,127,41
227.17845,227.67845,51,112,41
227.74988,227.88977,49,127,41
228.0356,228.5356,48,127,41
228.60703,229.10703,51,112,41
229.17845,229.2469,54,127,41
229.24988,229.31833,54,112,41
229.32132,229.38977,56,112,41
229.39275,229.4612,56,112,41
229.46417,229.53262,53,112,41
229.5356,229.60405,53,112,41
229.60703,229.67548,54,112,41
229.67845,229.7469,54,112,41
229.74988,229.81833,56,112,41
229.8213,229.88977,56,112,41
229.89275,229.9612,54,127,41
229.96417,230.03262,54,112,41
230.0356,230.10405,56,112,41
230.10703,230.17548,56,112,41
230.17845,230.2469,53,112,41
230.24988,230.31833,53,112,41
230.3213,230.38977,54,112,41
230.39275,230.4612,54,112,41
230.46417,230.53262,56,112,41
230.5356,230.60405,56,112,41
230.60703,230.67548,54,127,41
230.67845,230.7469,54,112,41
230.74988,230.81833,56,112,41
230.8213,230.88976,56,112,41
230.89275,230.9612,53,112,41
230.96417,231.03262,53,112,41
231.0356,231.10405,54,112,41
231.10703,231.17548,54,112,41
231.17845,231.2469,56,112,41
231.24988,231.31833,56,112,41
231.3213,231.38976,54,127,41
231.39275,231.4612,54,112,41
231.46417,231.53262,56,112,41
231.5356,231.60405,56,112,41
231.60703,231.67548,53,112,41
231.67845,231.7469,53,112,41
231.74988,231.81833,54,112,41
231.8213,231.88976,54,112,41
231.89273,231.9612,56,112,41
231.96417,232.03262,56,112,41
232.0356,232.10405,66,127,41
232.10703,232.17548,66,112,41
232.17845,232.2469,68,112,41
232.24988,232.31833,68,112,41
232.3213,232.38976,65,112,41
232.39273,232.4612,65,112,41
232.46417,232.53262,66,112,41
232.5356,232.60405,66,112,41
232.60703,232.67548,68,112,41
232.67845,232.7469,68,112,41
232.74988,232.81833,66,127,41
232.8213,232.88976,66,112,41
232.89273,232.9612,68,112,41
232.96417,233.03262,68,112,41
233.0356,233.10405,65,112,41
233.10703,233.17548,65,112,41
233.17845,233.2469,66,112,41
233.24988,233.31833,66,112,41
233.3213,233.38976,70,112,41
233.39273,233.46118,70,112,41
233.46417,233.53262,66,127,41
233.5356,233.60405,66,112,41
233.60703,233.67548,68,112,41
233.67845,233.7469,68,112,41
233.74988,233.81833,65,112,41
233.8213,233.88976,65,112,41
233.89273,233.96118,66,112,41
233.96416,234.03262,66,112,41
234.0356,234.10405,70,112,41
234.10703,234.13976,70,112,41
234.14273,234.17845,60,112,41
234.17845,234.41655,65,112,41
234.17845,234.41655,69,112,41
239.97844,240.05656,48,112,41
240.08955,240.16768,48,112,41
240.20067,240.27359,48,112,41
240.31178,240.38991,48,112,41
240.42288,240.501,48,112,41
240.534,240.60692,48,112,41
240.64511,240.72324,51,112,41
240.75623,240.83435,51,112,41
240.86734,240.94025,51,112,41
240.97844,241.05656,54,112,41
241.08955,241.16768,54,112,41
241.20067,241.27359,54,112,41
241.31178,241.38991,57,112,41
241.42288,241.501,57,112,41
241.534,241.60692,57,112,41
241.64511,241.72324,60,112,41
241.75623,241.83435,60,112,41
241.86732,241.94025,60,112,41
241.97844,242.05656,63,112,41
242.08955,242.16768,63,112,41
242.20067,242.27357,63,112,41
242.31178,242.62428,48,112,41
242.31178,242.62428,57,112,41
242.31178,243.99928,65,112,41
242.31178,243.99928,72,112,41
12.4,12.65,69,112,45
81.02024,81.09524,49,112,45
81.09524,81.33333,58,127,45
81.09524,81.33333,66,127,45
93.45237,93.48808,48,112,45
93.48808,93.523796,55,112,45
93.523796,93.761894,64,112,45
93.523796,93.761894,72,112,45
126.5452,126.58091,50,112,45
126.5452,126.58091,55,112,45
126.58091,126.819,62,112,45
126.58091,126.819,71,112,45
130.79518,130.8309,50,112,45
130.8309,130.86662,55,112,45
130.86662,131.1047,62,112,45
130.86662,131.1047,71,112,45
146.86661,147.10469,64,112,45
147.15231,147.39041,76,112,45
234.8213,234.85405,53,112,45
234.85703,234.88976,60,112,45
234.89273,235.13083,69,112,45
234.89273,235.13083,77,112,45
235.5356,235.56833,51,112,45
235.5713,235.60405,58,112,45
235.60703,235.84511,67,112,45
235.60703,235.84511,75,112,45
236.60703,236.63976,49,112,45
236.64273,236.67548,56,112,45
236.67845,236.91655,65,112,45
236.67845,236.91655,73,112,45
236.96416,236.9969,53,112,45
236.99988,237.03261,60,112,45
237.03558,237.27368,69,112,45
237.03558,237.27368,77,112,45
237.67845,237.71118,51,112,45
237.71416,237.7469,58,112,45
237.74988,237.98798,67,112,45
237.74988,237.98798,75,112,45
238.74988,238.78261,49,112,45
238.78558,238.81833,56,112,45
238.8213,239.0594,65,112,45
238.8213,239.0594,73,112,45
239.10701,239.13976,53,112,45
239.14273,239.17548,60,112,45
239.17845,239.51178,69,112,45
239.17845,239.51178,77,112,45
0.0,0.071875,45,127,42
0.075,0.146875,45,120,42
0.15,0.221875,46,120,42
0.225,0.296875,46,120,42
0.3,0.371875,43,120,42
0.375,0.446875,43,120,42
0.45,0.521875,44,120,42
0.525,0.596875,44,120,42
0.6,0.671875,45,120,42
0.675,0.746875,45,120,42
0.75,1.35,55,120,42
1.7,1.771875,45,127,42
1.775,1.846875,45,120,42
1.85,1.921875,46,120,42
1.925,1.996875,46,120,42
2.0,2.071875,43,120,42
2.075,2.146875,43,120,42
2.15,2.221875,44,120,42
2.225,2.296875,44,120,42
2.3,2.371875,45,120,42
2.375,2.446875,45,120,42
2.45,3.05,58,120,42
3.4,3.471875,45,127,42
3.475,3.546875,45,120,42
3.55,3.621875,46,120,42
3.625,3.696875,46,120,42
3.7,3.771875,43,120,42
3.775,3.846875,43,120,42
3.85,3.921875,44,120,42
3.925,3.996875,44,120,42
4.0,4.071875,45,120,42
4.075,4.146875,45,120,42
4.15,4.296875,57,120,42
11.65,11.721875,57,127,42
11.725,11.796875,57,120,42
11.8,11.871875,58,120,42
11.875,11.946875,58,120,42
11.95,12.021875,55,120,42
12.025,12.096875,55,120,42
12.1,12.171875,56,120,42
12.175,12.246875,56,120,42
12.25,12.321875,57,120,42
12.325,12.396875,57,120,42
12.4,12.546875,57,127,42
16.9,16.971874,58,127,42
16.975,17.046875,58,120,42
17.05,17.121876,57,120,42
17.125,17.196875,57,120,42
17.2,17.271875,56,127,42
17.275,17.346874,56,120,42
17.35,17.421875,56,120,42
17.425,17.496876,56,120,42
17.5,17.571875,55,120,42
17.575,17.646875,55,120,42
17.65,17.721874,58,120,42
17.725,17.796875,58,120,42
17.8,17.871876,57,120,42
17.875,17.946875,57,120,42
17.95,18.021875,56,127,42
18.025,18.096874,56,120,42
18.1,18.171875,56,120,42
18.175,18.246876,56,120,42
18.25,18.321875,55,120,42
18.325,18.396875,55,120,42
18.4,18.471874,58,120,42
18.475,18.546875,58,120,42
18.55,18.621876,57,120,42
18.625,18.696875,57,120,42
18.7,18.771875,61,127,42
18.775,18.846874,61,120,42
18.85,18.921875,61,120,42
18.925,18.996876,61,120,42
19.0,19.071875,60,120,42
19.075,19.146875,60,120,42
19.15,19.221874,61,120,42
19.225,19.296875,61,120,42
19.3,19.371876,60,120,42
19.375,19.446875,60,120,42
19.45,19.521875,66,127,42
19.525,19.596874,66,120,42
19.6,19.671875,66,120,42
19.675,19.746876,66,120,42
19.75,19.821875,65,120,42
19.825,19.896875,65,120,42
19.9,19.971874,64,120,42
19.975,20.046875,64,120,42
20.05,20.121876,63,120,42
20.125,20.196875,63,120,42
20.2,20.271875,63,127,42
20.275,20.346874,63,120,42
20.35,20.421875,63,120,42
20.425,20.496876,63,120,42
20.5,20.571875,61,120,42
20.575,20.646875,61,120,42
20.65,20.721874,58,120,42
20.725,20.796875,58,120,42
20.8,20.871876,60,120,42
20.875,20.946875,60,120,42
20.95,21.021875,61,127,42
21.025,21.096874,61,120,42
21.1,21.171875,61,120,42
21.175,21.246876,61,120,42
21.25,21.321875,63,120,42
21.325,21.396875,63,120,42
21.4,21.471874,64,120,42
21.475,21.546875,64,120,42
21.55,21.621876,63,120,42
21.625,21.696875,63,120,42
21.7,21.771875,63,127,42
21.775,21.846874,63,120,42
21.85,21.921875,63,120,42
21.925,21.996876,63,120,42
22.0,22.071875,61,120,42
22.075,22.146875,61,120,42
22.15,22.221874,58,120,42
22.225,22.296875,58,120,42
22.3,22.371876,60,120,42
22.375,22.446875,60,120,42
22.45,22.521875,61,127,42
22.525,22.596874,61,120,42
22.6,22.671875,61,120,42
22.675,22.746876,61,120,42
22.75,22.821875,63,120,42
22.825,22.896875,63,120,42
22.9,23.046875,64,120,42
27.4,27.621876,45,120,42
27.7,28.1,42,127,42
28.15,28.371876,45,120,42
28.45,28.85,39,127,42
28.45,28.85,46,127,42
28.9,29.121876,45,120,42
29.2,29.6,42,127,42
29.65,29.871876,45,120,42
29.95,30.35,39,127,42
29.95,30.35,46,127,42
30.4,30.546875,45,120,42
33.4,33.7,61,120,42
33.7,34.3,62,120,42
34.3,34.6,63,120,42
34.6,34.9,62,120,42
34.9,35.725,61,120,42
36.4,36.7,69,127,42
36.7,37.0,67,120,42
37.0,37.25,69,120,42
37.3,37.6,64,127,42
37.6,37.75,65,120,42
37.75,37.9,67,120,42
37.9,38.15,69,120,42
39.4,40.3,61,120,42
40.3,41.2,62,120,42
41.2,42.1,61,120,42
42.1,43.0,62,120,42
43.0,43.6,63,120,42
43.6,44.725,64,120,42
44.8,46.0,41,120,42
46.0,46.6,48,120,42
46.6,47.2,41,120,42
47.2,47.5,48,120,42
47.5,48.7,41,120,42
48.7,49.3,48,120,42
49.3,50.125,41,120,42
50.2,50.8,46,120,42
50.8,51.4,58,120,42
51.4,52.0,70,120,42
52.0,52.9,58,120,42
52.9,53.2,51,127,42
53.2,53.5,46,120,42
53.5,54.625,58,127,42
54.7,55.0,51,127,42
55.0,55.25,46,120,42
55.3,56.425,58,127,42
56.5,57.65,57,120,42
57.7,58.0,58,120,42
58.0,58.3,57,120,42
58.3,60.025,55,120,42
60.1,61.683334,41,120,42
60.1,61.683334,48,120,42
69.10952,69.709526,61,120,42
70.00952,70.60952,56,120,42
70.90952,71.50952,49,120,42
71.809525,72.40952,44,120,42
72.709526,73.69524,37,120,42
73.69524,74.93899,49,120,42
75.09524,75.167114,46,127,42
75.170235,75.24211,46,120,42
75.24524,75.317116,47,120,42
75.32024,75.39211,47,120,42
75.39524,75.46711,44,120,42
75.47024,75.542114,44,120,42
75.545235,75.61711,45,120,42
75.62024,75.692116,45,120,42
75.69524,75.76711,46,120,42
75.77024,75.84211,46,120,42
75.84524,75.917114,46,127,42
75.920235,75.99211,46,120,42
75.99524,76.067116,47,120,42
76.07024,76.14211,47,120,42
76.14524,76.21711,44,120,42
76.22024,76.292114,44,120,42
76.295235,76.36711,45,120,42
76.37024,76.442116,45,120,42
76.44524,76.51711,46,120,42
76.52024,76.59211,46,120,42
76.59524,76.667114,46,127,42
76.670235,76.74211,46,120,42
76.74524,76.817116,47,120,42
76.82024,76.89211,47,120,42
76.89524,76.96711,44,120,42
76.97024,77.042114,44,120,42
77.045235,77.11711,45,120,42
77.12024,77.192116,45,120,42
77.19524,77.26711,46,120,42
77.27024,77.34211,46,120,42
77.34524,77.417114,46,127,42
77.420235,77.49211,46,120,42
77.49524,77.567116,47,120,42
77.57024,77.64211,47,120,42
77.64524,77.71711,44,120,42
77.72024,77.792114,44,120,42
77.795235,77.86711,45,120,42
77.87024,77.942116,45,120,42
77.94524,78.01711,46,120,42
78.02024,78.09211,46,120,42
78.09524,78.167114,46,127,42
78.170235,78.24211,46,120,42
78.24524,78.317116,47,120,42
78.32024,78.39211,47,120,42
78.39524,78.46711,44,120,42
78.47024,78.542114,44,120,42
78.545235,78.61711,45,120,42
78.62024,78.692116,45,120,42
78.69524,78.76711,46,120,42
78.77024,78.84211,46,120,42
78.84524,78.917114,46,127,42
78.920235,78.99211,46,120,42
78.99524,79.067116,47,120,42
79.07024,79.14211,47,120,42
79.14524,79.21711,44,120,42
79.22024,79.292114,44,120,42
79.295235,79.36711,45,120,42
79.37024,79.442116,45,120,42
79.44524,79.51711,46,120,42
79.52024,79.59211,46,120,42
79.59524,79.667114,46,127,42
79.670235,79.74211,46,120,42
79.74524,79.817116,47,120,42
79.82024,79.89211,47,120,42
79.89524,79.96711,44,120,42
79.97024,80.042114,44,120,42
80.045235,80.11711,45,120,42
80.12024,80.192116,45,120,42
80.19524,80.26711,46,120,42
80.27024,80.34211,46,120,42
80.34524,80.417114,46,127,42
80.420235,80.49211,46,120,42
80.49524,80.567116,47,120,42
80.57024,80.64211,47,120,42
80.64524,80.71711,46,120,42
80.72024,80.792114,46,120,42
80.795235,80.86711,45,120,42
80.87024,80.942116,45,120,42
80.94524,81.01711,44,120,42
81.02024,81.09211,44,120,42
81.09524,81.235115,42,120,42
83.95238,84.0238,66,120,42
84.0238,84.09524,63,120,42
84.09524,84.166664,66,120,42
84.166664,84.235115,63,120,42
84.23809,84.30952,63,120,42
84.30952,84.38095,61,120,42
84.38095,84.45238,63,120,42
84.45238,84.5238,61,120,42
84.5238,84.59523,63,120,42
84.59523,84.66369,61,120,42
84.666664,84.73809,61,120,42
84.73809,84.80952,58,120,42
84.80952,84.88095,61,120,42
84.88095,84.9494,58,120,42
84.95238,85.0238,58,120,42
85.0238,85.09523,54,120,42
85.09523,85.166664,58,120,42
85.166664,85.23809,54,120,42
85.23809,85.30952,58,120,42
85.30952,85.37797,54,120,42
85.38094,85.45238,54,120,42
85.45238,85.5238,51,120,42
85.5238,85.59523,54,120,42
85.59523,85.66368,51,120,42
85.666664,85.73809,51,120,42
85.73809,85.80952,49,120,42
85.80952,85.88094,51,120,42
85.88094,85.95238,49,120,42
85.95238,86.0238,51,120,42
86.0238,86.092255,49,120,42
86.09523,86.235115,51,120,42
89.66666,89.73808,66,120,42
89.73808,89.80952,64,120,42
89.80952,89.88094,66,120,42
89.88094,89.949394,64,120,42
89.95237,90.023796,64,120,42
90.023796,90.09523,61,120,42
90.09523,90.16666,64,120,42
90.16666,90.23808,61,120,42
90.23808,90.30952,64,120,42
90.30952,90.37797,61,120,42
90.38094,90.45237,61,120,42
90.45237,90.523796,57,120,42
90.523796,90.59523,61,120,42
90.59523,90.66368,57,120,42
90.66666,90.73808,57,120,42
90.73808,90.80951,54,120,42
90.80951,90.88094,57,120,42
90.88094,90.95237,54,120,42
90.95237,91.023796,57,120,42
91.023796,91.09225,54,120,42
91.09523,91.16666,54,120,42
91.16666,91.23808,52,120,42
91.23808,91.30951,54,120,42
91.30951,91.37797,52,120,42
91.38094,91.45237,52,120,42
91.45237,91.523796,49,120,42
91.523796,91.59523,52,120,42
91.59523,91.66666,49,120,42
91.66666,91.73808,52,120,42
91.73808,91.80653,49,120,42
91.80951,91.949394,52,120,42
95.380936,95.62796,42,120,42
95.380936,95.62796,49,120,42
95.66665,96.0476,36,127,42
95.66665,96.0476,43,127,42
96.09522,96.34225,42,120,42
96.09522,96.34225,49,120,42
96.380936,96.76189,45,127,42
96.80951,97.02081,42,120,42
96.80951,97.02081,49,120,42
97.09522,97.47617,36,127,42
97.09522,97.47617,43,127,42
97.52379,97.7351,42,120,42
97.52379,97.7351,49,120,42
97.80951,98.19046,45,127,42
98.8095,99.380936,67,127,42
99.380936,99.880936,68,120,42
99.95236,100.238075,69,120,42
100.238075,100.52379,68,120,42
100.52379,100.76189,67,120,42
101.66664,102.52379,58,120,42
101.66664,103.38093,54,120,42
102.52379,103.38093,59,120,42
103.38093,104.23807,58,120,42
103.38093,105.095215,54,120,42
104.23807,105.095215,59,120,42
105.095215,105.333305,54,120,42
105.095215,105.333305,58,120,42
108.86664,108.93509,38,127,42
108.86664,108.93509,45,127,42
108.938065,109.00652,38,120,42
108.938065,109.00652,45,120,42
109.0095,109.07795,38,120,42
109.0095,109.07795,45,120,42
109.080925,109.149376,38,120,42
109.080925,109.149376,45,120,42
109.15235,109.2208,38,127,42
109.15235,109.2208,45,127,42
109.22378,109.29224,38,120,42
109.22378,109.29224,45,120,42
109.29521,109.36366,38,120,42
109.29521,109.36366,45,120,42
109.36664,109.43509,38,120,42
109.36664,109.43509,45,120,42
109.438065,109.5095,50,127,42
109.5095,109.580925,57,120,42
109.580925,109.65235,50,120,42
109.65235,109.7208,45,120,42
109.72378,109.79224,38,127,42
109.72378,109.79224,45,127,42
109.79521,109.86366,38,120,42
109.79521,109.86366,45,120,42
109.86664,109.93509,38,120,42
109.86664,109.93509,45,120,42
109.938065,110.006516,38,120,42
109.938065,110.006516,45,120,42
110.0095,110.07795,38,127,42
110.0095,110.07795,45,127,42
110.080925,110.149376,38,120,42
110.080925,110.149376,45,120,42
110.15235,110.2208,38,120,42
110.15235,110.2208,45,120,42
110.22378,110.29224,38,120,42
110.22378,110.29224,45,120,42
110.29521,110.36664,50,127,42
110.36664,110.438065,57,120,42
110.438065,110.50949,50,120,42
110.50949,110.57795,45,120,42
110.580925,110.649376,38,127,42
110.580925,110.649376,45,127,42
110.65235,110.7208,38,120,42
110.65235,110.7208,45,120,42
110.72378,110.79223,38,120,42
110.72378,110.79223,45,120,42
110.79521,110.86366,38,120,42
110.79521,110.86366,45,120,42
110.86664,110.93509,38,127,42
110.86664,110.93509,45,127,42
110.938065,111.006516,38,120,42
110.938065,111.006516,45,120,42
111.00949,111.07795,38,120,42
111.00949,111.07795,45,120,42
111.080925,111.149376,38,120,42
111.080925,111.149376,45,120,42
111.15235,111.22378,50,127,42
111.22378,111.29521,57,120,42
111.29521,111.36664,50,120,42
111.36664,111.43509,45,120,42
111.438065,111.506516,38,127,42
111.438065,111.506516,45,127,42
111.50949,111.57795,38,120,42
111.50949,111.57795,45,120,42
111.580925,111.649376,38,120,42
111.580925,111.649376,45,120,42
111.65235,111.7208,38,120,42
111.65235,111.7208,45,120,42
111.72378,111.79223,38,127,42
111.72378,111.79223,45,127,42
111.795204,111.86366,38,120,42
111.795204,111.86366,45,120,42
111.86664,111.93509,38,120,42
111.86664,111.93509,45,120,42
111.938065,112.006516,38,120,42
111.938065,112.006516,45,120,42
112.00949,112.080925,50,127,42
112.080925,112.15235,57,120,42
112.15235,112.22378,50,120,42
112.22378,112.29223,45,120,42
112.295204,112.36366,38,127,42
112.295204,112.36366,45,127,42
112.36664,112.43509,38,120,42
112.36664,112.43509,45,120,42
112.438065,112.506516,38,120,42
112.438065,112.506516,45,120,42
112.50949,112.57794,38,120,42
112.50949,112.57794,45,120,42
112.58092,112.649376,38,127,42
112.58092,112.649376,45,127,42
112.65235,112.7208,38,120,42
112.65235,112.7208,45,120,42
112.72378,112.79223,38,120,42
112.72378,112.79223,45,120,42
112.795204,112.863655,38,120,42
112.795204,112.863655,45,120,42
112.86664,112.938065,50,127,42
112.938065,113.00949,57,120,42
113.00949,113.08092,50,120,42
113.08092,113.149376,45,120,42
113.15235,113.2208,38,127,42
113.15235,113.2208,45,127,42
113.22378,113.29223,38,120,42
113.22378,113.29223,45,120,42
113.295204,113.363655,38,120,42
113.295204,113.363655,45,120,42
113.36664,113.43509,38,120,42
113.36664,113.43509,45,120,42
113.438065,113.506516,38,127,42
113.438065,113.506516,45,127,42
113.50949,113.57794,38,120,42
113.50949,113.57794,45,120,42
113.58092,113.649376,38,120,42
113.58092,113.649376,45,120,42
113.65235,113.7208,38,120,42
113.65235,113.7208,45,120,42
113.72378,113.795204,50,127,42
113.795204,113.86663,57,120,42
113.86663,113.938065,50,120,42
113.938065,114.006516,45,120,42
114.00949,114.07794,38,120,42
114.08092,114.14937,38,120,42
114.15235,114.2208,38,120,42
114.22378,114.29223,38,120,42
114.295204,114.363655,38,120,42
114.36663,114.43509,38,120,42
114.438065,114.506516,38,120,42
114.50949,114.57794,38,120,42
114.58092,114.64937,50,120,42
114.65234,114.7208,50,120,42
114.72378,114.79223,50,120,42
114.795204,114.863655,50,120,42
114.86663,114.93509,50,120,42
114.938065,115.006516,50,120,42
115.00949,115.07794,50,120,42
115.08092,115.14937,50,120,42
115.15234,115.2208,60,120,42
115.22378,115.29223,60,120,42
115.295204,115.363655,60,120,42
115.36663,115.43508,60,120,42
115.438065,115.506516,60,120,42
115.50949,115.57794,60,120,42
115.58092,115.64937,60,120,42
115.65234,115.7208,60,120,42
115.72378,115.79223,50,120,42
115.795204,115.863655,50,120,42
115.86663,115.93508,50,120,42
115.93806,116.006516,50,120,42
116.00949,116.07794,50,120,42
116.08092,116.14937,50,120,42
116.15234,116.220795,50,120,42
116.22378,116.29223,50,120,42
116.295204,116.363655,50,120,42
116.36663,116.43508,50,120,42
116.43806,116.506516,50,120,42
116.50949,116.57794,50,120,42
116.58092,116.64937,38,127,42
116.65234,116.720795,38,120,42
116.72378,116.79223,38,120,42
116.795204,116.863655,38,120,42
116.86663,116.93508,50,120,42
116.93806,117.006516,50,120,42
117.00949,117.07794,50,120,42
117.08092,117.14937,50,120,42
117.15234,117.220795,50,127,42
117.15234,117.220795,58,127,42
117.22377,117.29223,50,120,42
117.22377,117.29223,58,120,42
117.295204,117.363655,50,120,42
117.295204,117.363655,58,120,42
117.36663,117.43508,50,120,42
117.36663,117.43508,58,120,42
117.43806,117.50651,38,127,42
117.50949,117.57794,38,120,42
117.58092,117.64937,38,120,42
117.65234,117.720795,38,120,42
117.72377,117.79223,50,120,42
117.795204,117.863655,50,120,42
117.86663,117.93508,50,120,42
117.93806,118.00651,50,120,42
118.00948,118.07794,50,127,42
118.00948,118.07794,62,127,42
118.08092,118.14937,50,120,42
118.08092,118.14937,62,120,42
118.15234,118.220795,50,120,42
118.15234,118.220795,62,120,42
118.22377,118.29222,50,120,42
118.22377,118.29222,62,120,42
118.295204,118.363655,38,127,42
118.36663,118.43508,38,120,42
118.43806,118.50651,38,120,42
118.50948,118.57794,38,120,42
118.58092,118.64937,50,120,42
118.65234,118.720795,50,120,42
118.72377,118.79222,50,120,42
118.795204,118.863655,50,120,42
118.86663,118.93508,50,127,42
118.86663,118.93508,58,127,42
118.93806,119.00651,50,120,42
118.93806,119.00651,58,120,42
119.00948,119.07794,50,120,42
119.00948,119.07794,58,120,42
119.08092,119.14937,50,120,42
119.08092,119.14937,58,120,42
119.15234,119.220795,38,127,42
119.22377,119.29222,38,120,42
119.2952,119.363655,39,120,42
119.36663,119.43508,39,120,42
119.43806,119.50651,36,120,42
119.50948,119.577934,36,120,42
119.58092,119.64937,37,120,42
119.65234,119.720795,37,120,42
119.72377,119.79222,38,120,42
119.7952,119.863655,38,120,42
119.86663,119.93508,50,127,42
119.93806,120.00651,50,120,42
120.00948,120.077934,51,120,42
120.08091,120.14937,51,120,42
120.15234,120.220795,48,120,42
120.22377,120.29222,48,120,42
120.2952,120.363655,49,120,42
120.36663,120.43508,49,120,42
120.43806,120.50651,50,120,42
120.50948,120.577934,50,120,42
120.58091,120.64937,62,120,42
120.65234,120.720795,62,120,42
120.72377,120.79222,74,120,42
120.7952,120.86365,74,120,42
120.86663,120.93508,74,120,42
120.93806,121.00651,74,120,42
121.00948,121.077934,62,120,42
121.08091,121.14937,62,120,42
121.15234,121.2952,62,120,42
121.2952,121.43508,50,120,42
121.43806,121.58091,50,120,42
121.58091,121.720795,62,120,42
121.72377,121.86662,62,120,42
121.86662,122.00651,50,120,42
122.00948,122.15234,50,120,42
122.15234,122.29222,62,120,42
122.2952,122.43806,62,120,42
122.43806,122.577934,50,120,42
122.58091,122.72377,50,120,42
122.72377,122.86365,62,120,42
122.86662,123.00948,62,120,42
123.00948,123.14936,50,120,42
123.152336,123.2952,50,120,42
123.2952,123.435074,62,120,42
123.43805,123.50651,38,120,42
123.43805,123.50651,46,120,42
123.50948,123.577934,38,120,42
123.50948,123.577934,46,120,42
123.58091,123.64936,38,120,42
123.58091,123.64936,46,120,42
123.652336,123.72079,38,120,42
123.652336,123.72079,46,120,42
123.72377,123.79222,38,120,42
123.72377,123.79222,46,120,42
123.7952,123.86365,38,120,42
123.7952,123.86365,46,120,42
123.86662,123.935074,38,120,42
123.86662,123.935074,46,120,42
123.93805,124.00651,38,120,42
123.93805,124.00651,46,120,42
124.00948,124.077934,38,120,42
124.00948,124.077934,46,120,42
124.08091,124.14936,38,120,42
124.08091,124.14936,46,120,42
124.152336,124.22079,38,120,42
124.152336,124.22079,46,120,42
124.22377,124.29222,38,120,42
124.22377,124.29222,46,120,42
124.2952,124.36365,38,120,42
124.2952,124.36365,46,120,42
124.36662,124.435074,38,120,42
124.36662,124.435074,46,120,42
124.43805,124.50651,38,120,42
124.43805,124.50651,46,120,42
124.50948,124.577934,38,120,42
124.50948,124.577934,46,120,42
124.58091,124.64936,38,120,42
124.58091,124.64936,46,120,42
124.652336,124.72079,38,120,42
124.652336,124.72079,46,120,42
124.72376,124.79222,38,120,42
124.72376,124.79222,46,120,42
124.7952,124.86365,38,120,42
124.7952,124.86365,46,120,42
124.86662,125.10472,50,120,42
124.86662,125.10472,58,120,42
125.152336,125.22079,38,127,42
125.22376,125.29222,38,120,42
125.2952,125.36365,39,120,42
125.36662,125.435074,39,120,42
125.43805,125.5065,36,120,42
125.509476,125.577934,36,120,42
125.58091,125.64936,37,120,42
125.652336,125.72079,37,120,42
125.72376,125.79222,38,120,42
125.7952,125.86365,38,120,42
125.86662,125.935074,50,127,42
125.93805,126.0065,50,120,42
126.009476,126.077934,51,120,42
126.08091,126.14936,51,120,42
126.152336,126.22079,48,120,42
126.22376,126.29221,48,120,42
126.2952,126.36365,49,120,42
126.36662,126.435074,49,120,42
126.43805,126.5065,50,120,42
126.509476,126.577934,50,120,42
126.58091,126.64936,62,120,42
126.652336,126.72079,62,120,42
126.72376,126.79221,74,120,42
126.79519,126.86365,74,120,42
126.86662,126.935074,74,120,42
126.93805,127.0065,74,120,42
127.009476,127.07793,62,120,42
127.08091,127.14936,62,120,42
127.152336,127.22079,62,120,42
127.22376,127.29221,62,120,42
127.29519,127.36365,50,120,42
127.36662,127.435074,50,120,42
127.43805,127.57793,50,120,42
127.72376,127.79221,38,120,42
127.72376,127.79221,46,120,42
127.79519,127.86365,38,120,42
127.79519,127.86365,46,120,42
127.86662,127.935074,38,120,42
127.86662,127.935074,46,120,42
127.93805,128.0065,38,120,42
127.93805,128.0065,46,120,42
128.00948,128.07793,38,120,42
128.00948,128.07793,46,120,42
128.0809,128.14935,38,120,42
128.0809,128.14935,46,120,42
128.15233,128.22078,38,120,42
128.15233,128.22078,46,120,42
128.22375,128.29222,38,120,42
128.22375,128.29222,46,120,42
128.2952,128.36365,38,120,42
128.2952,128.36365,46,120,42
128.36662,128.43507,38,120,42
128.36662,128.43507,46,120,42
128.43805,128.5065,38,120,42
128.43805,128.5065,46,120,42
128.50948,128.57793,38,120,42
128.50948,128.57793,46,120,42
128.5809,128.64935,38,120,42
128.5809,128.64935,46,120,42
128.65233,128.72078,38,120,42
128.65233,128.72078,46,120,42
128.72375,128.79222,38,120,42
128.72375,128.79222,46,120,42
128.7952,128.86365,38,120,42
128.7952,128.86365,46,120,42
128.86662,128.93507,38,120,42
128.86662,128.93507,46,120,42
128.93805,129.0065,38,120,42
128.93805,129.0065,46,120,42
129.00948,129.07793,38,120,42
129.00948,129.07793,46,120,42
129.0809,129.14935,38,120,42
129.0809,129.14935,46,120,42
129.15233,129.39043,50,120,42
129.15233,129.39043,58,120,42
129.43805,129.5065,38,127,42
129.50948,129.57793,38,120,42
129.5809,129.64935,39,120,42
129.65233,129.72078,39,120,42
129.72375,129.7922,36,120,42
129.7952,129.86365,36,120,42
129.86662,129.93507,37,120,42
129.93805,130.0065,37,120,42
130.00948,130.07793,38,120,42
130.0809,130.14935,38,120,42
130.15233,130.22078,50,127,42
130.22375,130.2922,50,120,42
130.2952,130.36365,51,120,42
130.36662,130.43507,51,120,42
130.43805,130.5065,48,120,42
130.50948,130.57793,48,120,42
130.5809,130.64935,49,120,42
130.65233,130.72078,49,120,42
130.72375,130.7922,50,120,42
130.79518,130.86365,50,120,42
130.86662,130.93507,62,120,42
130.93805,131.0065,62,120,42
131.00948,131.07793,74,120,42
131.0809,131.14935,74,120,42
131.15233,131.22078,74,120,42
131.22375,131.2922,74,120,42
131.29518,131.36365,62,120,42
131.36662,131.43507,62,120,42
131.43805,131.5065,62,120,42
131.50948,131.57793,62,120,42
131.5809,131.64935,50,120,42
131.65233,131.72078,50,120,42
131.72375,131.7922,50,120,42
131.79518,131.86363,50,120,42
131.86662,131.93507,74,120,42
131.93805,132.0065,74,120,42
132.00948,132.07793,74,120,42
132.0809,132.14935,74,120,42
132.15233,132.22078,50,120,42
132.22375,132.2922,50,120,42
132.29518,132.36363,50,120,42
132.36662,132.43507,50,120,42
132.43805,132.5065,50,120,42
132.50948,132.57793,50,120,42
132.5809,132.64935,50,120,42
132.65233,132.72078,50,120,42
132.72375,132.7922,38,120,42
132.79518,132.86363,38,120,42
132.86661,132.93507,38,120,42
132.93805,133.0065,38,120,42
133.00948,133.07793,39,120,42
133.0809,133.14935,39,120,42
133.15233,133.22078,40,120,42
133.22375,133.2922,40,120,42
133.29518,133.36363,41,120,42
133.36661,133.43507,41,120,42
133.43805,133.5065,42,120,42
133.50948,133.57793,42,120,42
133.5809,133.64935,43,120,42
133.65233,133.72078,43,120,42
133.72375,133.7922,44,120,42
133.79518,133.86363,44,120,42
133.86661,133.93507,45,120,42
133.93805,134.0065,45,120,42
134.00948,134.07793,46,120,42
134.0809,134.14935,46,120,42
134.15233,134.22078,47,120,42
134.22375,134.2922,47,120,42
134.29518,134.36363,50,120,42
134.36661,134.43506,50,120,42
134.43805,134.5065,51,120,42
134.50948,134.57793,51,120,42
134.5809,134.64935,52,120,42
134.65233,134.72078,52,120,42
134.72375,134.7922,53,120,42
134.79518,134.86363,53,120,42
134.86661,134.93506,54,120,42
134.93803,135.0065,54,120,42
135.00948,135.07793,55,120,42
135.0809,135.14935,55,120,42
135.15233,135.22078,56,120,42
135.22375,135.2922,56,120,42
135.29518,135.36363,57,120,42
135.36661,135.43506,57,120,42
135.43803,135.5065,58,120,42
135.50948,135.57793,58,120,42
135.5809,135.64935,59,120,42
135.65233,135.72078,59,120,42
135.72375,135.86363,65,120,42
136.00948,136.39043,68,127,42
136.43803,136.57793,65,120,42
136.72375,137.1047,68,127,42
137.15233,137.2922,65,120,42
137.43803,137.72375,70,127,42
137.72375,137.86363,68,120,42
137.86661,138.00648,65,120,42
138.15233,138.43803,70,127,42
138.43803,138.57791,68,120,42
138.5809,138.72078,65,120,42
142.86661,143.07791,40,120,42
143.15231,143.53326,37,127,42
143.58089,143.7922,40,120,42
143.86661,144.24756,43,127,42
144.29518,144.50648,40,120,42
144.58089,144.96184,37,127,42
145.00946,145.22076,40,120,42
145.29518,145.67613,43,127,42
145.72374,145.86363,40,120,42
145.72374,145.86363,47,120,42
147.43803,148.00946,65,120,42
148.00946,148.24756,66,120,42
148.29517,148.53326,67,120,42
148.58089,148.8666,70,127,42
148.8666,149.15231,69,120,42
149.15231,149.65231,68,120,42
150.00946,150.07791,52,120,42
150.00946,150.07791,64,120,42
150.08089,150.14934,52,120,42
150.08089,150.14934,64,120,42
150.15231,150.22076,52,120,42
150.15231,150.22076,64,120,42
150.22374,150.29219,52,120,42
150.22374,150.29219,64,120,42
150.29517,150.36362,52,120,42
150.29517,150.36362,64,120,42
150.3666,150.43504,52,120,42
150.3666,150.43504,64,120,42
150.43802,150.50648,52,120,42
150.43802,150.50648,64,120,42
150.50946,150.57791,52,120,42
150.50946,150.57791,64,120,42
150.58089,150.64934,52,120,42
150.58089,150.64934,64,120,42
150.65231,150.72076,52,120,42
150.65231,150.72076,64,120,42
150.72374,150.79219,52,120,42
150.72374,150.79219,64,120,42
150.79517,150.86362,52,120,42
150.79517,150.86362,64,120,42
150.8666,150.93504,52,120,42
150.8666,150.93504,64,120,42
150.93802,151.00648,52,120,42
150.93802,151.00648,64,120,42
151.00946,151.07791,52,120,42
151.00946,151.07791,64,120,42
151.08089,151.14934,52,120,42
151.08089,151.14934,64,120,42
151.15231,151.22076,52,120,42
151.15231,151.22076,64,120,42
151.22374,151.29219,52,120,42
151.22374,151.29219,64,120,42
151.29517,151.36362,52,120,42
151.29517,151.36362,64,120,42
151.3666,151.43504,52,120,42
151.3666,151.43504,64,120,42
151.43802,151.50647,52,120,42
151.43802,151.50647,64,120,42
151.50946,151.57791,52,120,42
151.50946,151.57791,64,120,42
151.58089,151.64934,52,120,42
151.58089,151.64934,64,120,42
151.65231,151.72076,52,120,42
151.65231,151.72076,64,120,42
151.72374,151.79219,52,120,42
151.72374,151.79219,64,120,42
151.79517,151.86362,52,120,42
151.79517,151.86362,64,120,42
151.8666,151.93504,52,120,42
151.8666,151.93504,64,120,42
151.93802,152.00647,52,120,42
151.93802,152.00647,64,120,42
152.00946,152.24754,52,120,42
152.29517,152.53326,64,120,42
152.58089,153.43802,56,120,42
153.43802,154.22374,57,120,42
154.29517,155.15231,56,120,42
155.15231,155.93802,57,120,42
156.00945,156.8666,56,120,42
156.8666,157.72374,57,120,42
157.72374,158.66959,58,120,42
158.66959,159.6337,59,120,42
159.72662,162.63287,36,120,42
159.72662,162.63287,43,120,42
164.72662,165.32663,41,120,42
164.72662,165.32663,48,120,42
165.32663,165.92664,45,120,42
165.32663,165.92664,52,120,42
165.92664,166.45163,43,120,42
165.92664,166.45163,50,120,42
166.52663,166.60162,36,120,42
166.60162,166.67664,43,120,42
166.67664,166.75163,50,120,42
166.75163,166.8235,43,120,42
166.82663,166.90163,36,120,42
166.90163,166.97662,43,120,42
166.97662,167.05164,50,120,42
167.05164,167.1235,43,120,42
167.12663,167.20163,36,120,42
167.20163,167.27663,43,120,42
167.27663,167.35162,50,120,42
167.35162,167.42351,43,120,42
167.42664,168.02663,41,120,42
167.42664,168.02663,48,120,42
168.02663,168.62663,45,120,42
168.02663,168.62663,52,120,42
168.62663,169.22662,43,120,42
168.62663,169.22662,50,120,42
169.22662,169.30164,36,127,42
169.30164,169.37663,43,120,42
169.37663,169.45163,50,120,42
169.45163,169.52663,43,120,42
169.52663,169.60162,36,127,42
169.60162,169.67664,43,120,42
169.67664,169.75163,50,120,42
169.75163,169.82663,43,120,42
169.82663,169.90163,36,127,42
169.90163,169.97662,43,120,42
169.97662,170.05164,50,120,42
170.05164,170.1235,43,120,42
170.12663,170.72662,41,120,42
170.72662,171.32663,53,120,42
171.32663,172.22662,65,120,42
172.22662,172.75163,53,120,42
173.42664,174.25163,53,120,42
175.22662,176.35162,53,120,42
176.42664,177.57663,52,120,42
177.62663,177.92664,53,120,42
177.92664,178.17664,52,120,42
178.22662,178.52663,60,120,42
178.22662,179.05164,50,120,42
178.52663,179.05164,62,120,42
179.12663,179.42923,54,120,42
179.42923,179.68744,57,120,42
179.73979,180.0052,62,120,42
180.05898,181.56984,60,120,42
181.64127,182.21269,60,120,42
182.21269,182.49841,62,120,42
182.49841,182.78412,65,120,42
182.78412,183.02222,72,120,42
188.51605,190.26605,58,120,42
190.31606,191.74106,55,120,42
191.81606,191.89105,43,120,42
191.89105,191.96294,50,120,42
191.96606,192.04106,50,120,42
192.04106,192.11293,43,120,42
192.11606,192.19106,43,120,42
192.19106,192.26294,51,120,42
192.26605,192.34106,51,120,42
192.34106,192.41293,43,120,42
192.41606,192.49106,43,120,42
192.49106,192.56293,52,120,42
192.56606,192.64105,52,120,42
192.64105,192.71294,43,120,42
192.71606,192.79106,43,120,42
192.79106,192.86293,53,120,42
192.86606,192.94106,53,120,42
192.94106,193.01294,43,120,42
193.01605,193.09106,43,120,42
193.09106,193.16293,52,120,42
193.16606,193.24106,52,120,42
193.24106,193.31293,43,120,42
193.31606,193.39105,43,120,42
193.39105,193.46294,51,120,42
193.46606,193.54106,51,120,42
193.54106,193.61293,43,120,42
193.61606,193.68793,43,120,42
193.61606,193.68793,50,120,42
193.69106,193.76294,50,120,42
193.69106,193.76294,59,120,42
193.76605,193.83794,50,120,42
193.76605,193.83794,59,120,42
193.84106,193.91293,43,120,42
193.84106,193.91293,50,120,42
193.91606,193.98793,43,120,42
193.91606,193.98793,51,120,42
193.99106,194.06293,51,120,42
193.99106,194.06293,60,120,42
194.06606,194.13794,51,120,42
194.06606,194.13794,60,120,42
194.14105,194.21294,43,120,42
194.14105,194.21294,51,120,42
194.21606,194.28793,43,120,42
194.21606,194.28793,52,120,42
194.29106,194.36293,52,120,42
194.29106,194.36293,61,120,42
194.36606,194.43793,52,120,42
194.36606,194.43793,61,120,42
194.44106,194.51294,43,120,42
194.44106,194.51294,52,120,42
194.51605,194.58794,43,120,42
194.51605,194.58794,53,120,42
194.59106,194.66293,53,120,42
194.59106,194.66293,62,120,42
194.66606,194.73793,53,120,42
194.66606,194.73793,62,120,42
194.74106,194.81293,43,120,42
194.74106,194.81293,53,120,42
194.81606,194.88794,43,120,42
194.81606,194.88794,52,120,42
194.89105,194.96294,52,120,42
194.89105,194.96294,61,120,42
194.96606,195.03793,52,120,42
194.96606,195.03793,61,120,42
195.04106,195.11293,43,120,42
195.04106,195.11293,52,120,42
195.11606,195.18793,43,120,42
195.11606,195.18793,52,120,42
195.19106,195.26294,51,120,42
195.19106,195.26294,60,120,42
195.26605,195.33794,51,120,42
195.26605,195.33794,60,120,42
195.34106,195.41293,43,120,42
195.34106,195.41293,51,120,42
195.41606,195.49106,43,120,42
195.41606,195.49106,50,120,42
195.49106,195.56293,50,120,42
195.49106,195.56293,59,120,42
195.56606,195.64105,50,120,42
195.56606,195.64105,59,120,42
195.64105,195.71294,43,120,42
195.64105,195.71294,50,120,42
195.71606,195.79106,43,120,42
195.71606,195.79106,51,120,42
195.79106,195.86293,51,120,42
195.79106,195.86293,60,120,42
195.86606,195.94106,51,120,42
195.86606,195.94106,60,120,42
195.94106,196.01294,43,120,42
195.94106,196.01294,51,120,42
196.01605,196.09106,43,120,42
196.01605,196.09106,52,120,42
196.09106,196.16293,52,120,42
196.09106,196.16293,61,120,42
196.16606,196.24106,52,120,42
196.16606,196.24106,61,120,42
196.24106,196.31293,43,120,42
196.24106,196.31293,52,120,42
196.31606,196.39105,43,120,42
196.31606,196.39105,53,120,42
196.39105,196.46294,53,120,42
196.39105,196.46294,62,120,42
196.46606,196.54106,53,120,42
196.46606,196.54106,62,120,42
196.54106,196.61293,43,120,42
196.54106,196.61293,53,120,42
196.61606,196.69106,43,120,42
196.61606,196.69106,52,120,42
196.69106,196.76294,52,120,42
196.69106,196.76294,61,120,42
196.76605,196.84106,52,120,42
196.76605,196.84106,61,120,42
196.84106,196.91293,43,120,42
196.84106,196.91293,52,120,42
196.91606,196.99106,43,120,42
196.91606,196.99106,51,120,42
196.99106,197.06293,51,120,42
196.99106,197.06293,60,120,42
197.06606,197.14105,51,120,42
197.06606,197.14105,60,120,42
197.14105,197.21294,43,120,42
197.14105,197.21294,51,120,42
197.21606,197.29106,36,120,42
197.21606,197.29106,43,120,42
197.29106,197.36293,50,120,42
197.29106,197.36293,58,120,42
197.36606,197.44106,50,120,42
197.36606,197.44106,58,120,42
197.44106,197.51294,36,120,42
197.44106,197.51294,43,120,42
197.51605,197.59106,36,120,42
197.51605,197.59106,43,120,42
197.59106,197.66293,52,120,42
197.59106,197.66293,60,120,42
197.66606,197.74106,52,120,42
197.66606,197.74106,60,120,42
197.74106,197.81293,36,120,42
197.74106,197.81293,43,120,42
197.81606,197.89105,36,120,42
197.81606,197.89105,43,120,42
197.89105,197.96294,50,120,42
197.89105,197.96294,58,120,42
197.96606,198.04106,50,120,42
197.96606,198.04106,58,120,42
198.04106,198.11293,36,120,42
198.04106,198.11293,43,120,42
198.11606,198.19106,36,120,42
198.11606,198.19106,43,120,42
198.19106,198.26294,52,120,42
198.19106,198.26294,60,120,42
198.26605,198.34106,52,120,42
198.26605,198.34106,60,120,42
198.34106,198.41293,36,120,42
198.34106,198.41293,43,120,42
198.41606,198.49106,36,120,42
198.41606,198.49106,43,120,42
198.49106,198.56293,50,120,42
198.49106,198.56293,58,120,42
198.56606,198.64105,50,120,42
198.56606,198.64105,58,120,42
198.64105,198.71294,36,120,42
198.64105,198.71294,43,120,42
198.71606,198.79106,36,120,42
198.71606,198.79106,43,120,42
198.79106,198.86293,52,120,42
198.79106,198.86293,60,120,42
198.86606,198.94106,52,120,42
198.86606,198.94106,60,120,42
198.94106,199.01294,36,120,42
198.94106,199.01294,43,120,42
199.01605,199.09106,36,120,42
199.01605,199.09106,43,120,42
199.09106,199.16293,50,120,42
199.09106,199.16293,58,120,42
199.16606,199.24106,50,120,42
199.16606,199.24106,58,120,42
199.24106,199.31293,36,120,42
199.24106,199.31293,43,120,42
199.31606,199.39105,36,120,42
199.31606,199.39105,43,120,42
199.39105,199.46294,52,120,42
199.39105,199.46294,60,120,42
199.46606,199.54106,52,120,42
199.46606,199.54106,60,120,42
199.54106,199.61293,36,120,42
199.54106,199.61293,43,120,42
199.61606,199.69106,36,120,42
199.61606,199.69106,43,120,42
199.69106,199.76294,50,120,42
199.69106,199.76294,58,120,42
199.76605,199.84106,50,120,42
199.76605,199.84106,58,120,42
199.84106,199.91293,36,120,42
199.84106,199.91293,43,120,42
199.91606,199.99106,36,120,42
199.91606,199.99106,43,120,42
199.99106,200.06293,52,120,42
199.99106,200.06293,60,120,42
200.06606,200.14105,52,120,42
200.06606,200.14105,60,120,42
200.14105,200.21294,36,120,42
200.14105,200.21294,43,120,42
200.21606,200.29106,36,120,42
200.21606,200.29106,43,120,42
200.29106,200.36293,50,120,42
200.29106,200.36293,58,120,42
200.36606,200.44106,50,120,42
200.36606,200.44106,58,120,42
200.44106,200.51294,36,120,42
200.44106,200.51294,43,120,42
200.51605,200.59106,36,120,42
200.51605,200.59106,43,120,42
200.59106,200.66293,52,120,42
200.59106,200.66293,60,120,42
200.66606,200.74106,52,120,42
200.66606,200.74106,60,120,42
200.74106,200.81293,36,120,42
200.74106,200.81293,43,120,42
200.81606,200.88821,36,120,42
200.81606,200.88821,43,120,42
200.89137,200.9647,36,120,42
200.89137,200.9647,43,120,42
200.96793,201.04248,36,120,42
200.96793,201.04248,43,120,42
201.04575,201.12172,36,120,42
201.04575,201.12172,43,120,42
201.12505,201.20232,36,120,42
201.12505,201.20232,43,120,42
201.2057,201.28433,36,120,42
201.2057,201.28433,43,120,42
201.2878,201.36801,36,120,42
201.2878,201.36801,43,120,42
201.37152,201.45317,36,120,42
201.37152,201.45317,43,120,42
201.45677,201.53995,36,120,42
201.45677,201.53995,43,120,42
201.5436,201.62856,36,120,42
201.5436,201.62856,43,120,42
201.63228,201.71886,36,120,42
201.63228,201.71886,43,120,42
201.72266,201.81094,36,120,42
201.72266,201.81094,43,120,42
201.8148,201.90535,36,120,42
201.8148,201.90535,43,120,42
201.90935,202.00247,36,120,42
201.90935,202.00247,43,120,42
202.00658,202.10242,36,120,42
202.00658,202.10242,43,120,42
202.10664,202.20538,36,120,42
202.10664,202.20538,43,120,42
202.20972,202.31152,36,120,42
202.20972,202.31152,43,120,42
202.31601,202.42119,36,120,42
202.31601,202.42119,43,120,42
202.42584,202.53447,36,120,42
202.42584,202.53447,43,120,42
202.53929,202.65167,36,120,42
202.53929,202.65167,43,120,42
202.65665,202.77303,36,120,42
202.65665,202.77303,43,120,42
202.77815,202.89883,36,120,42
202.77815,202.89883,43,120,42
202.90422,203.02966,36,120,42
202.90422,203.02966,43,120,42
203.03525,203.16563,36,120,42
203.03525,203.16563,43,120,42
203.17142,205.20206,36,120,42
203.17142,205.20206,43,120,42
209.03561,209.89276,47,120,42
209.89276,210.13086,59,120,42
210.74991,211.60704,47,120,42
211.60704,211.84514,59,120,42
212.46419,213.2499,47,120,42
213.32133,214.10704,45,120,42
214.17847,214.7499,50,120,42
214.17847,214.96419,43,120,42
214.7499,214.98799,52,120,42
215.03561,215.82132,43,120,42
215.03561,215.82132,53,120,42
219.46417,220.32132,58,127,42
220.32132,220.55942,70,120,42
221.17847,222.0356,58,127,42
222.0356,222.2737,70,120,42
222.89275,223.67847,58,120,42
223.7499,224.5356,56,120,42
224.60703,225.39275,46,120,42
225.46417,226.2499,44,120,42
226.32132,226.38977,42,127,42
226.39275,226.4612,42,120,42
226.46417,226.53262,44,120,42
226.5356,226.60405,44,120,42
226.60703,226.67548,41,120,42
226.67845,226.7469,41,120,42
226.7499,226.81834,42,120,42
226.82132,226.88977,42,120,42
226.89275,226.9612,44,120,42
226.96417,227.03262,44,120,42
227.0356,227.10405,42,127,42
227.10703,227.17548,42,120,42
227.17845,227.2469,44,120,42
227.24988,227.31834,44,120,42
227.32132,227.38977,41,120,42
227.39275,227.4612,41,120,42
227.46417,227.53262,42,120,42
227.5356,227.60405,42,120,42
227.60703,227.67548,44,120,42
227.67845,227.7469,44,120,42
227.74988,227.81834,42,127,42
227.82132,227.88977,42,120,42
227.89275,227.9612,44,120,42
227.96417,228.03262,44,120,42
228.0356,228.10405,41,120,42
228.10703,228.17548,41,120,42
228.17845,228.2469,42,120,42
228.24988,228.31834,42,120,42
228.32132,228.38977,44,120,42
228.39275,228.4612,44,120,42
228.46417,228.53262,42,127,42
228.5356,228.60405,42,120,42
228.60703,228.67548,44,120,42
228.67845,228.7469,44,120,42
228.74988,228.81833,41,120,42
228.82132,228.88977,41,120,42
228.89275,228.9612,42,120,42
228.96417,229.03262,42,120,42
229.0356,229.10405,44,120,42
229.10703,229.17548,44,120,42
229.17845,229.2469,42,127,42
229.24988,229.31833,42,120,42
229.32132,229.38977,44,120,42
229.39275,229.4612,44,120,42
229.46417,229.53262,41,120,42
229.5356,229.60405,41,120,42
229.60703,229.67548,42,120,42
229.67845,229.7469,42,120,42
229.74988,229.81833,44,120,42
229.8213,229.88977,44,120,42
229.89275,229.9612,42,127,42
229.96417,230.03262,42,120,42
230.0356,230.10405,44,120,42
230.10703,230.17548,44,120,42
230.17845,230.2469,41,120,42
230.24988,230.31833,41,120,42
230.3213,230.38977,42,120,42
230.39275,230.4612,42,120,42
230.46417,230.53262,44,120,42
230.5356,230.60405,44,120,42
230.60703,230.67548,42,127,42
230.67845,230.7469,42,120,42
230.74988,230.81833,44,120,42
230.8213,230.88976,44,120,42
230.89275,230.9612,41,120,42
230.96417,231.03262,41,120,42
231.0356,231.10405,42,120,42
231.10703,231.17548,42,120,42
231.17845,231.2469,44,120,42
231.24988,231.31833,44,120,42
231.3213,231.38976,42,127,42
231.39275,231.4612,42,120,42
231.46417,231.53262,44,120,42
231.5356,231.60405,44,120,42
231.60703,231.67548,41,120,42
231.67845,231.7469,41,120,42
231.74988,231.81833,42,120,42
231.8213,231.88976,42,120,42
231.89273,231.9612,44,120,42
231.96417,232.03262,44,120,42
232.0356,232.10405,54,127,42
232.10703,232.17548,54,120,42
232.17845,232.2469,56,120,42
232.24988,232.31833,56,120,42
232.3213,232.38976,53,120,42
232.39273,232.4612,53,120,42
232.46417,232.53262,54,120,42
232.5356,232.60405,54,120,42
232.60703,232.67548,56,120,42
232.67845,232.7469,56,120,42
232.74988,232.81833,54,127,42
232.8213,232.88976,54,120,42
232.89273,232.9612,56,120,42
232.96417,233.03262,56,120,42
233.0356,233.10405,53,120,42
233.10703,233.17548,53,120,42
233.17845,233.2469,54,120,42
233.24988,233.31833,54,120,42
233.3213,233.38976,58,120,42
233.39273,233.46118,58,120,42
233.46417,233.53262,54,127,42
233.5356,233.60405,54,120,42
233.60703,233.67548,56,120,42
233.67845,233.7469,56,120,42
233.74988,233.81833,53,120,42
233.8213,233.88976,53,120,42
233.89273,233.96118,54,120,42
233.96416,234.03262,54,120,42
234.0356,234.10405,58,120,42
234.10703,234.17548,58,120,42
234.17845,234.41655,53,120,42
234.17845,234.41655,60,120,42
234.8213,234.85405,41,120,42
234.85703,234.88976,48,120,42
234.89273,235.13083,57,120,42
234.89273,235.13083,65,120,42
235.5356,235.56833,39,120,42
235.5713,235.60405,46,120,42
235.60703,235.84511,55,120,42
235.60703,235.84511,63,120,42
236.60703,236.63976,37,120,42
236.64273,236.67548,44,120,42
236.67845,236.91655,53,120,42
236.67845,236.91655,61,120,42
236.96416,236.9969,41,120,42
236.99988,237.03261,48,120,42
237.03558,237.27368,57,120,42
237.03558,237.27368,65,120,42
237.67845,237.71118,39,120,42
237.71416,237.7469,46,120,42
237.74988,237.98798,55,120,42
237.74988,237.98798,63,120,42
238.74988,238.78261,37,120,42
238.78558,238.81833,44,120,42
238.8213,239.0594,53,120,42
238.8213,239.0594,61,120,42
239.10701,239.13976,41,120,42
239.14273,239.17548,48,120,42
239.17845,239.51178,57,120,42
239.17845,239.51178,65,120,42
239.97844,240.05656,41,120,42
240.08955,240.16768,41,120,42
240.20067,240.27359,41,120,42
240.31178,240.38991,41,120,42
240.42288,240.501,41,120,42
240.534,240.60692,41,120,42
240.64511,240.72324,44,120,42
240.75623,240.83435,44,120,42
240.86734,240.94025,44,120,42
240.97844,241.05656,47,120,42
241.08955,241.16768,47,120,42
241.20067,241.27359,47,120,42
241.31178,241.38991,50,120,42
241.42288,241.501,50,120,42
241.534,241.60692,50,120,42
241.64511,241.72324,53,120,42
241.75623,241.83435,53,120,42
241.86732,241.94025,53,120,42
241.97844,242.05656,56,120,42
242.08955,242.16768,56,120,42
242.20067,242.27357,56,120,42
242.31178,242.62428,41,120,42
242.31178,242.62428,48,120,42
242.31178,242.62428,57,120,42
242.31178,243.99928,65,120,42
4.9,5.15,57,120,45
4.9,5.15,64,120,45
5.6125,5.65,45,120,45
5.65,5.9,52,120,45
5.65,5.9,61,120,45
6.3625,6.4,43,120,45
6.4,6.65,50,120,45
6.4,6.65,59,120,45
7.45,7.4875,41,120,45
7.4875,7.525,48,120,45
7.525,7.775,53,120,45
7.525,7.775,57,120,45
7.8625,7.9,45,120,45
7.9,8.15,52,120,45
7.9,8.15,61,120,45
8.6125,8.65,43,120,45
8.65,8.9,50,120,45
8.65,8.9,59,120,45
9.7,9.7375,41,120,45
9.7375,9.775,48,120,45
9.775,10.025,53,120,45
9.775,10.025,57,120,45
10.1125,10.15,45,120,45
10.15,10.4,52,120,45
10.15,10.4,61,120,45
10.9,11.15,69,120,45
23.6125,23.65,48,120,45
23.65,23.9,55,120,45
23.65,23.9,64,120,45
24.3625,24.4,42,120,45
24.4,24.65,49,120,45
24.4,24.65,58,120,45
25.1125,25.15,37,120,45
25.15,25.4,43,120,45
25.15,25.4,52,120,45
26.6125,26.65,36,120,45
26.65,26.9,43,120,45
26.65,26.9,52,120,45
31.9,32.15,57,120,45
31.9,32.15,57,120,45
63.766666,64.01666,65,120,45
64.066666,64.316666,60,120,45
64.36667,64.61667,53,120,45
64.666664,64.916664,48,120,45
64.96667,65.21667,41,120,45
65.566666,65.816666,53,120,45
66.166664,66.416664,65,120,45
66.46667,66.71667,60,120,45
66.76666,67.01666,53,120,45
67.066666,67.316666,48,120,45
67.36667,67.61667,41,120,45
67.96667,68.25238,53,120,45
86.73809,86.7738,42,120,45
86.7738,86.80952,49,120,45
86.80952,87.047615,54,120,45
86.80952,87.047615,57,120,45
92.45237,92.523796,42,120,45
92.523796,92.761894,49,120,45
92.523796,92.761894,58,120,45
93.91666,93.95237,42,120,45
93.95237,94.19046,49,120,45
93.95237,94.19046,58,120,45
94.880936,94.91665,36,120,45
94.91665,94.95237,43,120,45
94.95237,95.19046,52,120,45
94.95237,95.19046,60,120,45
98.238075,98.47617,42,120,45
98.52379,98.76189,54,120,45
100.8095,101.0476,54,120,45
101.095215,101.33331,66,120,45
139.22375,139.29518,43,120,45
139.29518,139.53328,50,120,45
139.29518,139.53328,59,120,45
140.00946,140.24756,44,120,45
140.00946,140.24756,53,120,45
140.65233,140.72375,43,120,45
140.72375,140.96184,50,120,45
140.72375,140.96184,57,120,45
142.15231,142.39041,50,120,45
142.15231,142.39041,57,120,45
142.43803,142.67613,43,120,45
142.43803,142.67613,50,120,45
146.58089,146.81898,52,120,45
146.86661,147.10469,64,120,45
172.82663,173.07663,46,120,45
173.12663,173.37663,41,120,45
174.62663,174.87663,46,120,45
174.92664,175.17664,41,120,45
183.06984,183.30794,62,120,45
183.35555,183.59364,55,120,45
183.64127,183.87936,50,120,45
183.92699,184.16507,43,120,45
184.21269,184.45079,36,120,45
184.78412,185.02222,60,120,45
185.64127,185.87936,62,120,45
185.92697,186.16507,55,120,45
186.21269,186.45079,50,120,45
186.49841,186.7365,43,120,45
186.78412,187.02222,36,120,45
187.3911,187.69899,60,120,45
205.46419,205.70229,41,127,45
205.89276,206.13086,46,120,45
206.17848,206.41658,41,127,45
206.60706,206.84514,46,120,45
206.89276,207.03264,37,127,45
207.03561,207.1755,44,120,45
207.17848,207.31836,49,120,45
207.32133,207.46121,53,120,45
207.60704,207.84514,41,120,45
208.03561,208.27371,46,120,45
208.32133,208.46121,37,127,45
208.46419,208.60406,44,120,45
208.60704,208.74693,49,120,45
208.74991,208.88979,53,120,45
215.89276,216.13084,41,127,45
215.89276,216.13084,48,127,45
216.32132,216.55942,49,120,45
216.60704,216.84514,41,127,45
216.60704,216.84514,48,127,45
217.03561,217.27371,49,120,45
217.32132,217.46121,37,120,45
217.46419,217.60406,44,120,45
217.60704,217.74692,53,120,45
217.7499,217.88977,59,120,45
218.03561,218.2737,41,127,45
218.03561,218.2737,48,127,45
218.46419,218.70227,49,120,45
218.7499,218.88977,37,120,45
218.89275,219.03264,44,120,45
219.03561,219.17549,53,120,45
219.17847,219.31834,59,120,45
1.25,1.65,70,110,41
2.95,3.35,70,110,41
239.17845,239.87845,69,110,41
242.31178,244.74928,65,110,41
31.9,32.15,57,110,45
164.72662,164.97662,62,110,45
165.32663,165.57663,64,110,45
165.92664,166.17664,62,110,45
166.52663,166.77663,62,110,45
166.82663,167.07663,64,110,45
167.42664,167.67664,62,110,45
168.02663,168.27663,64,110,45
168.62663,168.87663,62,110,45
169.22662,169.47662,62,110,45
169.52663,169.77663,64,110,45
34.9,35.15,81,110,73
37.9,38.15,69,110,73
120.72377,120.79222,74,110,73
120.72377,120.79222,86,110,73
120.7952,120.86365,74,110,73
120.7952,120.86365,86,110,73
120.86663,120.93508,74,110,73
120.86663,120.93508,86,110,73
120.93806,121.00651,74,110,73
120.93806,121.00651,86,110,73
126.72376,126.79221,74,110,73
126.72376,126.79221,86,110,73
126.79519,126.86365,74,110,73
126.79519,126.86365,86,110,73
126.86662,126.935074,74,110,73
126.86662,126.935074,86,110,73
126.93805,127.0065,74,110,73
126.93805,127.0065,86,110,73
131.00948,131.07793,74,110,73
131.00948,131.07793,86,110,73
131.0809,131.14935,74,110,73
131.0809,131.14935,86,110,73
131.15233,131.22078,74,110,73
131.15233,131.22078,86,110,73
131.22375,131.2922,74,110,73
131.22375,131.2922,86,110,73
131.86662,131.93507,62,110,73
131.86662,131.93507,74,110,73
131.93805,132.0065,62,110,73
131.93805,132.0065,74,110,73
132.00948,132.07793,62,110,73
132.00948,132.07793,74,110,73
132.0809,132.14935,62,110,73
132.0809,132.14935,74,110,73
145.79517,145.86363,88,110,73
145.93803,146.00648,88,110,73
146.08089,146.14934,88,110,73
146.22374,146.29219,88,110,73
146.36661,146.43506,88,110,73
146.50946,146.57791,88,110,73
146.65231,146.72076,88,110,73
146.79517,146.86363,88,110,73
146.93803,147.00648,88,110,73
147.08089,147.14934,88,110,73
147.22374,147.29219,88,110,73
147.36661,147.43506,88,110,73
147.50946,147.57791,88,110,73
147.65231,147.72076,88,110,73
147.79517,147.86362,88,110,73
147.93803,148.00648,88,110,73
148.08089,148.14934,88,110,73
148.22374,148.29219,88,110,73
148.3666,148.43506,88,110,73
148.50946,148.57791,88,110,73
148.65231,148.72076,88,110,73
148.79517,148.86362,88,110,73
148.93803,149.00648,88,110,73
149.08089,149.14934,88,110,73
149.22374,149.29219,88,110,73
149.3666,149.43504,88,110,73
149.50946,149.57791,88,110,73
149.65231,149.72076,88,110,73
149.79517,149.86362,88,110,73
149.93803,150.00648,88,110,73
