start_time,end_time,note_value,velocity,instrument_program_number
1.3487844,3.1786218,79,83,0
3.1786218,3.330137,81,53,0
3.330137,3.4816523,82,53,0
3.4816523,3.6265798,81,53,0
1.3487844,3.6265798,74,70,0
1.3487844,3.6265798,70,70,0
1.3487844,3.6265798,67,70,0
3.6265798,3.7661147,79,56,0
3.7661147,3.90125,81,54,0
3.90125,4.036385,79,54,0
4.036385,4.1715207,77,54,0
4.1715207,4.3091354,74,57,0
4.3091354,4.4436646,77,54,0
4.4436646,4.5781937,74,54,0
4.5781937,4.712723,72,54,0
4.712723,4.850338,70,58,0
4.850338,4.984867,67,54,0
4.984867,5.119396,62,53,0
5.119396,5.2539253,64,53,0
5.2539253,5.3961053,67,52,0
5.3961053,5.540336,65,48,0
5.540336,5.6831937,67,48,0
5.6831937,5.824703,69,47,0
5.2539253,6.401626,60,44,0
5.824703,6.545857,67,47,0
6.545857,6.688037,65,48,0
6.688037,6.8315773,67,49,0
6.8315773,6.9717646,69,52,0
6.9717646,7.1153054,72,53,0
7.1153054,7.256815,69,53,0
7.256815,7.398324,67,53,0
7.398324,7.5372133,65,53,0
6.401626,7.5372133,62,44,0
7.5372133,7.6835546,67,54,0
7.6835546,7.8320694,65,49,0
7.8320694,7.978411,67,51,0
7.978411,8.121268,69,49,0
7.5372133,8.715327,64,45,0
8.121268,8.863842,67,48,0
8.863842,9.010183,65,49,0
9.010183,9.156525,67,51,0
9.156525,9.299382,69,52,0
9.299382,9.451667,74,56,0
9.451667,9.600921,69,54,0
9.600921,9.750174,67,54,0
8.715327,9.899427,62,45,0
9.750174,10.049104,65,54,0
10.049104,10.20511,70,52,0
10.20511,10.356839,74,54,0
10.356839,10.522129,77,57,0
9.899427,10.522129,62,49,0
10.522129,11.1525755,74,47,0
10.522129,11.4786625,81,60,0
11.4786625,11.7978115,79,54,0
11.7978115,12.1103115,77,52,0
12.1103115,12.590844,79,54,0
12.590844,12.753007,77,49,0
12.753007,12.910902,76,51,0
12.910902,13.068796,79,51,0
11.1525755,13.4116535,72,52,0
13.4116535,13.572944,70,49,0
13.572944,13.731674,69,49,0
13.068796,14.057761,77,54,0
14.057761,14.396744,76,46,0
14.396744,14.743565,65,37,0
14.396744,14.743565,74,45,0
14.743565,15.090385,64,36,0
14.743565,15.090385,72,43,0
13.731674,15.090385,70,51,0
16.43917,18.269007,79,83,0
18.269007,18.420523,81,53,0
18.420523,18.572039,82,53,0
18.572039,18.716965,81,53,0
16.43917,18.716965,67,70,0
16.43917,18.716965,70,70,0
16.43917,18.716965,74,70,0
18.716965,18.8565,79,56,0
18.8565,18.991636,81,54,0
18.991636,19.126772,79,54,0
19.126772,19.261906,77,54,0
19.261906,19.39952,74,57,0
19.39952,19.53405,77,54,0
19.53405,19.66858,74,54,0
19.66858,19.803108,72,54,0
19.803108,19.940723,70,58,0
19.940723,20.075253,67,54,0
20.075253,20.209782,62,53,0
20.209782,20.34431,64,53,0
20.34431,20.490652,67,51,0
20.490652,20.63558,65,47,0
20.63558,20.779812,67,48,0
20.779812,20.922668,69,47,0
20.922668,21.643822,67,46,0
21.643822,21.785332,65,48,0
21.785332,21.928873,67,49,0
21.928873,22.070381,69,52,0
22.070381,22.214613,72,53,0
22.214613,22.356792,69,53,0
22.356792,22.498972,67,53,0
22.498972,22.63916,65,53,0
22.63916,22.785501,67,52,0
22.785501,22.934015,65,49,0
22.934015,23.080357,67,51,0
23.080357,23.225285,69,49,0
23.225285,23.96786,67,48,0
23.96786,24.1142,65,49,0
24.1142,24.260542,67,51,0
24.260542,24.403399,69,52,0
24.403399,24.555683,74,56,0
24.555683,24.704937,69,54,0
24.704937,24.85419,67,54,0
24.85419,25.003445,65,54,0
23.819344,25.003445,63,45,0
25.70799,26.735262,77,63,0
25.70799,26.735262,74,53,0
26.735262,26.882322,76,60,0
26.735262,26.882322,72,51,0
26.882322,27.02938,77,59,0
26.882322,27.02938,74,50,0
27.02938,27.32938,76,64,0
27.02938,27.32938,72,54,0
27.32938,27.476439,70,46,0
27.32938,27.476439,74,55,0
27.476439,27.623497,72,46,0
27.476439,27.623497,76,54,0
27.623497,27.911488,70,52,0
27.623497,27.911488,74,62,0
27.917616,28.186272,67,47,0
27.917616,28.186272,72,56,0
28.216124,28.489756,67,47,0
28.216124,28.489756,72,57,0
28.51463,28.820753,70,49,0
28.51463,28.820753,74,58,0
28.820753,29.11412,76,58,0
28.820753,29.11412,69,48,0
28.820753,29.11412,72,48,0
29.126875,29.408125,70,52,0
29.126875,29.408125,79,62,0
29.126875,29.408125,74,52,0
29.439375,29.756836,70,55,0
29.439375,29.756836,79,65,0
29.439375,29.756836,74,55,0
29.756836,30.079416,81,64,0
29.756836,30.079416,73,54,0
29.756836,30.079416,69,54,0
30.79393,31.821203,77,63,0
30.79393,31.821203,74,53,0
31.821203,31.968262,76,60,0
31.821203,31.968262,72,51,0
31.968262,32.115322,77,59,0
31.968262,32.115322,74,50,0
32.115322,32.41532,76,64,0
32.115322,32.41532,72,54,0
32.41532,32.562378,74,55,0
32.41532,32.562378,70,46,0
32.562378,32.70944,76,56,0
32.562378,32.70944,72,46,0
32.70944,32.99743,70,52,0
32.70944,32.99743,74,62,0
33.003555,33.276283,67,47,0
33.003555,33.276283,72,56,0
33.306587,33.584362,67,47,0
33.306587,33.584362,72,57,0
33.609615,33.922115,70,51,0
33.609615,33.922115,74,61,0
33.922115,34.221596,76,61,0
33.922115,34.221596,69,52,0
33.922115,34.221596,72,52,0
34.234615,34.529697,74,53,0
34.234615,34.529697,70,53,0
34.234615,34.529697,79,63,0
34.562485,34.899563,70,55,0
34.562485,34.899563,74,55,0
34.562485,34.899563,79,66,0
34.899563,35.29172,81,63,0
34.899563,35.29172,73,53,0
34.899563,35.29172,69,53,0
35.697124,36.028618,84,62,0
36.028618,36.186512,82,57,0
36.186512,36.344406,81,54,0
35.697124,36.66873,77,45,0
35.697124,36.66873,74,45,0
36.344406,36.82916,79,57,0
36.82916,36.987053,77,54,0
36.987053,37.141693,79,52,0
37.141693,37.296333,81,52,0
37.296333,37.61891,76,57,0
37.61891,37.948586,74,54,0
37.296333,37.948586,70,45,0
38.29144,38.617527,72,53,0
38.617527,38.77542,70,52,0
38.77542,38.93332,69,52,0
37.948586,38.93332,65,56,0
38.93332,39.091213,67,54,0
39.091213,39.249107,65,52,0
39.249107,39.402954,67,53,0
39.402954,39.545,69,53,0
38.93332,39.573406,62,54,0
39.573406,39.867527,64,66,0
39.894264,40.193176,62,63,0
40.22035,40.49209,65,68,0
39.573406,40.546436,58,56,0
40.872524,41.045933,57,51,0
40.872524,41.045933,52,51,0
40.872524,41.045933,60,61,0
41.219345,41.392757,53,50,0
41.219345,41.392757,50,50,0
41.219345,41.392757,57,59,0
41.566166,41.73958,52,51,0
41.566166,41.73958,60,61,0
41.566166,41.73958,55,51,0
42.232136,42.33852,60,63,0
42.33852,42.4449,62,63,0
42.4449,42.551285,60,63,0
42.232136,42.551285,57,53,0
42.551285,42.86542,57,66,0
42.551285,42.86542,53,55,0
42.86542,43.179558,60,66,0
42.86542,43.179558,55,55,0
43.179558,43.51854,58,50,0
43.179558,43.51854,62,59,0
43.51854,43.869415,60,48,0
43.51854,43.869415,65,57,0
43.869415,44.922047,67,54,0
44.922047,45.04326,67,49,0
45.04326,45.16447,69,49,0
45.16447,45.285683,67,49,0
43.869415,45.285683,62,45,0
45.285683,45.672783,65,54,0
45.672783,46.089447,64,51,0
45.285683,46.089447,62,45,0
46.089447,46.905773,62,43,0
46.089447,46.905773,58,43,0
46.905773,47.305775,57,33,0
46.905773,47.305775,60,39,0
47.305775,47.753536,55,30,0
47.305775,47.753536,58,36,0
47.753536,48.17552,60,33,0
46.089447,48.6046,65,51,0
47.753536,49.61758,57,27,0
49.61758,50.065342,88,48,0
50.065342,50.960865,83,43,0
50.960865,51.701607,81,45,0
49.61758,52.071976,76,33,0
51.701607,52.071976,76,42,0
52.071976,52.162884,71,39,0
52.162884,52.253796,69,39,0
52.253796,52.344704,71,39,0
52.344704,52.43561,74,39,0
52.071976,52.43561,65,32,0
52.799248,53.24701,88,48,0
53.24701,54.05782,83,43,0
54.05782,54.79856,81,45,0
52.799248,55.168934,76,33,0
54.79856,55.168934,76,42,0
55.168934,55.53257,71,39,0
55.168934,55.896206,65,39,0
55.53257,55.986748,69,39,0
55.986748,56.0784,71,35,0
56.0784,56.171185,69,37,0
56.171185,56.26513,67,39,0
56.26513,57.054825,64,36,0
56.26513,57.054825,60,30,0
57.054825,57.862125,62,38,0
57.862125,58.234795,64,41,0
58.234795,58.59624,65,45,0
58.59624,58.948807,69,41,0
57.054825,58.980858,57,32,0
58.980858,59.371685,64,38,0
59.371685,59.55241,62,36,0
59.55241,59.727848,64,34,0
59.727848,60.064774,62,37,0
58.980858,60.522987,59,32,0
60.13216,60.91382,64,38,0
60.91382,61.120712,62,32,0
61.120712,61.33348,64,30,0
61.33348,61.737225,62,31,0
60.522987,61.817974,57,28,0
61.817974,62.373177,55,19,0
61.817974,62.373177,64,24,0
61.817974,62.373177,59,24,0
62.373177,62.82094,88,45,0
62.82094,63.716457,83,43,0
63.716457,64.4572,81,45,0
62.373177,64.82757,76,30,0
64.4572,64.82757,76,42,0
64.82757,64.91848,71,39,0
64.91848,65.00939,69,39,0
65.00939,65.100296,71,39,0
65.100296,65.19121,74,39,0
64.82757,65.19121,65,32,0
65.59937,66.047134,88,48,0
66.047134,66.85794,83,43,0
66.85794,67.26335,81,43,0
65.59937,67.26335,76,33,0
67.26335,67.711105,93,53,0
67.711105,68.52192,88,46,0
68.52192,68.92732,86,46,0
67.26335,68.92732,81,36,0
68.92732,69.062004,74,35,0
69.02822,69.16451,76,36,0
69.130264,69.26844,79,38,0
68.92732,69.338615,71,29,0
69.23372,69.369865,81,39,0
69.338615,70.088615,86,46,0
70.088615,70.473236,88,43,0
70.473236,70.60976,69,36,0
70.57551,70.71368,72,36,0
70.678955,70.81907,74,37,0
70.473236,70.89024,67,21,0
70.78386,70.92189,76,38,0
70.89024,71.45986,81,45,0
71.45986,71.65341,79,39,0
71.65341,71.84696,81,44,0
71.84696,72.04051,84,42,0
72.04051,72.17703,74,35,0
72.142784,72.28096,76,36,0
72.24623,72.386345,77,38,0
72.04051,72.45752,71,29,0
72.351135,72.48877,81,39,0
72.45752,73.20752,86,46,0
73.20752,73.59968,88,43,0
73.59968,73.7362,69,36,0
73.70195,73.840126,72,36,0
73.805405,73.94551,74,37,0
73.59968,74.016685,67,21,0
73.9103,74.04833,76,38,0
74.016685,74.5863,81,45,0
74.5863,74.78239,83,44,0
74.78239,74.97846,81,44,0
74.97846,75.174545,79,43,0
75.174545,75.30153,61,28,0
75.269684,75.398094,63,30,0
75.36584,75.495926,66,32,0
75.174545,75.56193,59,24,0
75.46324,75.59299,69,33,0
75.56193,76.307274,73,38,0
76.307274,76.69943,75,34,0
76.69943,76.825615,61,30,0
76.79397,76.92156,63,30,0
76.88951,77.01875,64,31,0
76.69943,77.08433,59,18,0
76.98629,77.11638,66,32,0
77.08433,77.661255,68,38,0
77.661255,77.848755,71,33,0
77.848755,78.036255,68,36,0
78.036255,78.223755,71,34,0
78.223755,78.35074,61,28,0
78.31889,78.4473,63,30,0
78.41505,78.545135,66,32,0
78.223755,78.61114,59,24,0
78.51245,78.643196,69,33,0
78.61114,79.188065,73,38,0
79.188065,79.37915,75,35,0
79.37915,79.57023,73,38,0
79.57023,79.761314,75,36,0
79.761314,79.8875,73,37,0
79.85585,79.983444,75,37,0
79.95139,80.08064,76,38,0
79.761314,80.14622,71,27,0
80.04817,80.178474,78,39,0
80.14622,80.72939,80,47,0
80.72939,80.93487,83,47,0
80.93487,81.150696,80,54,0
81.150696,81.39069,83,53,0
81.39069,81.83187,86,53,0
81.83187,82.044,84,52,0
82.044,82.245346,83,52,0
81.39069,82.245346,77,45,0
82.245346,82.43168,81,53,0
82.43168,82.61801,79,51,0
82.61801,82.79874,81,51,0
82.79874,82.943245,83,51,0
82.245346,82.972145,74,42,0
82.972145,83.155075,76,53,0
83.155075,83.338005,77,51,0
82.972145,83.338005,71,42,0
83.338005,83.51447,79,51,0
83.51447,83.655716,81,51,0
83.68397,83.8636,74,53,0
83.8636,84.04324,76,49,0
83.338005,84.04324,69,39,0
84.04324,84.21666,77,49,0
84.21666,84.3571,79,49,0
84.38519,84.56702,72,53,0
84.56702,84.74883,74,52,0
84.04324,84.74883,67,39,0
84.74883,84.92026,76,52,0
84.92026,85.0888,77,52,0
84.74883,85.45465,65,39,0
85.45465,85.827324,67,45,0
85.0888,85.97976,71,56,0
86.010254,86.19318,72,51,0
85.827324,86.19318,69,41,0
86.19318,86.368614,74,48,0
86.368614,86.54405,76,46,0
86.19318,86.54405,67,33,0
86.54405,86.98201,65,45,0
86.98201,87.46982,64,38,0
86.54405,87.93857,69,45,0
87.93857,88.12261,71,43,0
88.12261,88.30666,69,43,0
88.30666,88.490715,68,45,0
88.490715,88.67476,69,43,0
88.67476,88.851234,66,45,0
88.851234,89.0277,68,43,0
89.0277,89.37145,69,45,0
89.4027,89.58563,71,43,0
89.58563,89.768555,69,43,0
89.768555,90.15317,66,45,0
90.15317,90.55317,68,43,0
87.46982,90.55317,63,35,0
90.55317,90.89478,64,43,0
90.92584,91.103355,66,38,0
91.103355,91.28087,64,38,0
91.28087,91.45839,60,38,0
91.45839,91.6318,62,37,0
91.6318,92.346085,64,36,0
92.37714,92.55466,66,38,0
92.55466,92.73217,64,38,0
92.73217,92.90968,60,38,0
92.90968,93.08309,62,37,0
90.55317,93.455765,57,22,0
90.55317,93.455765,69,27,0
93.08309,93.82914,64,36,0
93.845375,94.028305,66,37,0
94.028305,94.21123,64,37,0
94.21123,94.39416,60,37,0
94.39416,94.57272,62,35,0
94.57272,95.28701,64,34,0
95.31807,95.510376,66,35,0
95.510376,95.70268,64,35,0
95.70268,95.91851,60,34,0
95.91851,96.149284,62,31,0
93.455765,96.62547,58,25,0
96.62547,96.904976,62,38,0
96.149284,96.998146,64,28,0
96.998146,97.16763,64,41,0
97.16763,97.25238,66,41,0
97.33713,97.421394,68,41,0
97.50566,97.589935,69,41,0
97.6742,97.758,71,41,0
97.841805,97.9256,72,41,0
98.0094,98.092735,74,39,0
98.17606,98.2594,76,39,0
98.342735,98.425606,78,38,0
98.50848,98.591354,80,37,0
98.674225,98.75771,81,37,0
98.84327,98.93117,83,36,0
99.021355,99.114334,84,35,0
99.21008,99.314255,86,35,0
99.417946,99.8657,88,45,0
99.8657,100.76122,83,41,0
100.76122,101.50197,81,45,0
99.417946,101.87234,76,30,0
101.50197,101.87234,76,42,0
101.87234,101.96325,71,39,0
101.96325,102.05415,69,39,0
102.05415,102.145065,71,39,0
102.145065,102.23597,74,39,0
101.87234,102.23597,65,39,0
102.59961,103.04737,88,48,0
103.04737,103.858185,83,43,0
103.858185,104.59892,81,45,0
102.59961,104.96929,76,33,0
104.59892,104.96929,76,42,0
104.96929,105.33293,66,33,0
104.96929,105.33293,71,39,0
105.33293,105.78711,69,39,0
105.78711,105.87876,71,35,0
105.87876,105.97154,69,37,0
105.97154,106.06549,67,39,0
105.69656,106.06549,65,39,0
106.06549,106.85519,64,36,0
106.06549,106.85519,60,30,0
106.85519,107.66248,62,38,0
107.66248,108.03516,64,41,0
108.03516,108.3966,65,45,0
108.3966,108.74917,69,41,0
106.85519,108.78122,57,32,0
108.78122,109.17204,64,38,0
109.17204,109.35723,62,36,0
109.35723,109.53796,64,34,0
109.53796,109.87488,62,37,0
108.78122,110.3331,59,32,0
109.94227,110.72392,64,38,0
110.72392,110.930824,62,32,0
110.930824,111.143585,64,30,0
111.143585,111.54733,57,26,0
111.143585,111.54733,62,31,0
111.62808,112.18328,64,24,0
111.62808,112.18328,55,19,0
111.62808,112.18328,59,19,0
112.18328,112.63104,88,45,0
112.63104,113.526566,83,43,0
113.526566,114.2673,81,45,0
112.18328,114.63768,76,30,0
114.2673,114.63768,76,42,0
114.63768,114.728584,71,39,0
114.728584,114.819496,69,39,0
114.819496,114.91041,71,39,0
114.91041,115.00131,74,39,0
114.63768,115.00131,65,33,0
115.40948,115.85724,88,48,0
115.85724,116.66805,83,43,0
116.66805,117.0997,81,43,0
115.40948,117.0997,76,33,0
117.0997,117.54746,76,42,0
117.54746,118.35828,71,37,0
117.0997,118.76368,64,31,0
118.76368,119.18035,57,37,0
118.35828,119.18035,69,36,0
119.18035,119.98035,64,36,0
119.18035,120.38035,59,25,0
119.98035,120.47589,62,35,0
120.47589,120.571434,60,32,0
120.571434,120.66697,62,32,0
120.66697,120.76251,64,32,0
120.38035,120.76251,57,32,0
120.76251,121.55199,57,34,0
120.76251,121.55199,53,24,0
121.55199,121.946724,52,22,0
121.55199,121.946724,59,32,0
122.35213,122.50416,57,27,0
122.35213,122.50416,52,22,0
123.18307,123.28723,53,25,0
123.18307,123.28723,50,20,0
123.59973,123.69974,57,27,0
123.59973,123.69974,52,22,0
123.99973,124.09973,57,27,0
123.99973,124.09973,52,22,0
125.51093,125.6874,48,36,0
125.6874,125.86387,50,36,0
125.86387,126.96143,52,38,0
126.96143,127.310265,53,38,0
126.96143,127.310265,50,32,0
127.310265,127.66955,55,38,0
127.310265,127.66955,52,32,0
127.66955,128.0124,53,38,0
127.66955,128.0124,57,32,0
125.86387,128.0124,48,32,0
128.0124,128.36534,58,36,0
128.0124,128.36534,55,36,0
128.36534,128.7082,60,37,0
128.36534,128.7082,57,37,0
128.0124,128.7082,48,36,0
128.7082,129.06114,58,32,0
128.7082,129.06114,53,32,0
128.7082,129.06114,62,38,0
129.06114,129.40598,60,35,0
129.06114,129.40598,57,35,0
129.06114,129.40598,65,41,0
129.40598,129.75446,62,35,0
129.40598,129.75446,58,35,0
129.40598,129.75446,67,42,0
129.7696,130.4755,60,32,0
129.7696,130.4755,57,32,0
129.7696,130.4755,65,38,0
130.4755,130.82843,62,36,0
130.4755,130.82843,53,30,0
130.4755,130.82843,58,30,0
131.19429,131.36972,48,36,0
131.36972,131.54517,50,36,0
131.54517,132.64273,52,38,0
132.64273,132.99156,50,38,0
132.64273,132.99156,53,38,0
132.99156,133.35085,52,38,0
132.99156,133.35085,55,38,0
133.35085,133.6937,53,38,0
133.35085,133.6937,57,38,0
131.54517,133.6937,48,32,0
133.6937,134.04665,58,36,0
133.6937,134.04665,55,30,0
134.04665,134.3895,60,37,0
134.04665,134.3895,57,31,0
133.6937,134.3895,48,36,0
134.3895,134.74243,62,40,0
134.3895,134.74243,53,34,0
134.3895,134.74243,58,34,0
134.74243,135.08727,65,42,0
134.74243,135.08727,57,35,0
134.74243,135.08727,60,35,0
135.08727,135.43575,58,36,0
135.08727,135.43575,67,44,0
135.08727,135.43575,62,36,0
135.4509,136.15678,60,33,0
135.4509,136.15678,57,33,0
135.4509,136.15678,65,39,0
136.15678,136.49503,58,33,0
136.15678,136.49503,67,39,0
136.15678,136.49503,62,33,0
136.85857,137.02902,65,39,0
137.02902,137.19948,67,39,0
137.19948,138.25854,69,42,0
138.25854,138.59187,67,35,0
138.25854,138.59187,70,42,0
138.59187,138.92896,69,35,0
138.59187,138.92896,72,42,0
138.92896,139.25682,70,35,0
138.92896,139.25682,74,42,0
137.19948,139.25682,65,35,0
139.25682,139.59016,75,39,0
139.25682,139.59016,72,33,0
139.59016,139.91624,77,41,0
139.59016,139.91624,74,35,0
139.25682,139.91624,65,30,0
139.91624,140.25333,79,42,0
139.91624,140.25333,75,35,0
140.25333,140.5923,82,46,0
140.25333,140.5923,79,39,0
139.91624,140.5923,72,30,0
140.5923,140.93321,84,49,0
140.5923,140.93321,81,49,0
140.93321,141.26842,77,46,0
140.93321,141.26842,81,46,0
140.5923,141.26842,72,32,0
141.26842,141.60175,79,43,0
141.26842,141.60175,75,43,0
141.60175,141.93507,75,41,0
141.26842,141.93507,72,27,0
141.60175,141.93507,72,35,0
142.28595,142.45544,65,39,0
142.45544,142.62494,67,39,0
142.62494,143.62613,69,42,0
143.6547,143.98257,67,35,0
143.6547,143.98257,70,42,0
143.98257,144.32347,69,35,0
143.98257,144.32347,72,42,0
144.32347,144.64957,74,42,0
144.32347,144.64957,70,35,0
142.62494,144.64957,65,35,0
144.64957,144.98665,72,33,0
144.64957,144.98665,75,39,0
144.98665,145.31451,74,35,0
144.98665,145.31451,77,41,0
144.64957,145.31451,65,30,0
145.31451,145.65543,79,42,0
145.31451,145.65543,75,42,0
145.65543,145.99632,79,47,0
145.65543,145.99632,82,47,0
145.31451,145.99632,72,30,0
145.99632,146.31425,84,52,0
146.34315,146.67834,81,56,0
146.67834,147.01353,82,58,0
145.99632,147.36037,72,35,0
145.99632,147.36037,76,35,0
147.01353,147.6711,84,60,0
147.69934,148.02722,81,59,0
148.02722,148.35509,82,60,0
148.35509,148.99368,84,60,0
149.02194,149.34981,81,57,0
149.34981,149.67767,82,58,0
147.36037,150.00554,74,54,0
147.36037,150.00554,77,63,0
149.67767,150.3334,84,60,0
150.3334,150.49048,82,53,0
150.49048,150.64755,81,53,0
150.64755,150.97363,79,56,0
150.97363,151.28613,81,54,0
151.28613,151.58669,82,53,0
151.614,151.92815,79,51,0
151.92815,152.24228,81,51,0
152.24228,152.54997,82,51,0
150.00554,152.54997,73,39,0
150.00554,152.54997,76,46,0
152.54997,152.85553,84,60,0
152.8833,153.20416,81,57,0
153.20416,153.52501,82,58,0
153.52501,154.13998,84,60,0
154.16672,154.48758,81,54,0
154.48758,154.79214,82,54,0
152.54997,155.10143,74,54,0
152.54997,155.10143,77,63,0
154.79214,155.39398,84,54,0
155.42058,155.57442,82,53,0
155.57442,155.72827,81,53,0
155.72827,156.04405,79,56,0
156.04405,156.35017,81,54,0
156.35017,156.59474,82,54,0
156.67627,156.99542,67,42,0
156.99542,157.31973,69,38,0
157.31973,157.65872,70,36,0
155.10143,157.65872,73,39,0
155.10143,157.65872,76,46,0
157.65872,157.98482,71,35,0
157.98482,158.29408,68,35,0
158.29408,158.60658,69,35,0
158.60658,159.21164,71,36,0
159.23824,159.55074,68,35,0
159.55074,159.8553,69,35,0
157.65872,160.15834,73,32,0
157.65872,160.15834,76,38,0
159.8553,160.46762,71,36,0
160.46762,160.61836,69,35,0
160.61836,160.76912,68,35,0
160.76912,161.0784,66,35,0
161.0784,161.37991,68,36,0
161.37991,161.6634,69,37,0
161.6892,161.99069,66,36,0
161.99069,162.2922,68,36,0
162.2922,162.5937,69,37,0
160.15834,162.5937,72,25,0
160.15834,162.5937,75,30,0
162.5937,162.91286,71,35,0
162.91286,163.22055,68,35,0
163.22055,163.53143,69,35,0
163.53143,164.13179,71,36,0
164.1581,164.46579,68,35,0
164.46579,164.77037,69,35,0
162.5937,165.0734,73,38,0
162.5937,165.0734,76,38,0
164.77037,165.39032,71,36,0
165.39032,165.54515,69,35,0
165.54515,165.69998,68,35,0
165.69998,166.01762,66,35,0
166.01762,166.32729,68,36,0
166.32729,166.61844,69,37,0
166.64491,166.95457,66,36,0
166.95457,167.26424,68,36,0
167.26424,167.5739,69,37,0
165.0734,167.5739,75,30,0
165.0734,167.5739,72,30,0
167.5739,167.87695,70,35,0
167.5739,167.87695,82,41,0
167.87695,168.18465,79,37,0
167.5739,168.18465,74,30,0
167.5739,168.18465,76,30,0
167.87695,168.18465,67,31,0
168.18465,168.47876,69,31,0
168.18465,168.47876,81,37,0
168.18465,168.77727,72,25,0
168.18465,168.77727,76,30,0
168.47876,169.07578,82,42,0
168.47876,169.07578,70,35,0
169.07578,169.38036,67,33,0
168.77727,169.38036,74,32,0
168.77727,169.38036,76,38,0
169.07578,169.38036,79,39,0
169.38036,169.67886,69,33,0
169.38036,169.67886,81,39,0
169.67886,169.99617,70,33,0
169.38036,169.99617,72,27,0
169.38036,169.99617,76,32,0
169.67886,169.99617,82,39,0
169.99617,170.28383,74,45,0
170.30998,170.90414,77,47,0
170.90414,171.04736,76,46,0
171.04736,171.19058,77,46,0
171.19058,171.48929,74,52,0
171.48929,171.63399,72,48,0
171.63399,171.7787,74,48,0
169.99617,172.07741,70,35,0
171.7787,172.07741,70,54,0
172.07741,172.37631,74,52,0
169.99617,172.37631,82,42,0
172.37631,172.67273,82,48,0
172.37631,172.67273,70,40,0
172.67273,172.97678,67,37,0
172.37631,172.97678,74,36,0
172.37631,172.97678,76,36,0
172.67273,172.97678,79,45,0
172.97678,173.26804,69,37,0
172.97678,173.26804,81,45,0
172.97678,173.56215,72,30,0
172.97678,173.56215,76,36,0
173.26804,173.85626,82,49,0
173.26804,173.85626,70,41,0
173.85626,174.1572,67,39,0
173.56215,174.1572,74,40,0
173.56215,174.1572,76,48,0
173.85626,174.1572,79,46,0
174.1572,174.45216,69,39,0
174.1572,174.45216,81,46,0
174.45216,174.76501,70,39,0
174.1572,174.76501,76,38,0
174.1572,174.76501,72,32,0
174.45216,174.76501,82,46,0
174.76501,175.04645,74,54,0
175.07198,175.65225,77,58,0
175.65225,175.79211,76,57,0
175.79211,175.93198,77,57,0
175.93198,176.22371,74,63,0
176.22371,176.36502,72,59,0
176.36502,176.50633,74,59,0
174.76501,176.79808,70,41,0
176.50633,176.79808,70,64,0
176.79808,177.08159,74,63,0
174.76501,177.10736,82,49,0
177.10736,177.38829,77,58,0
177.41382,177.9941,81,62,0
177.9941,178.13396,79,60,0
178.13396,178.27382,81,60,0
178.27382,178.56555,77,67,0
178.56555,178.70686,76,63,0
178.70686,178.84818,77,63,0
177.10736,179.13992,74,53,0
178.84818,179.13992,74,69,0
179.13992,179.44449,77,67,0
177.10736,179.44449,70,45,0
179.44449,179.52527,84,54,0
179.52025,179.6002,86,48,0
179.59525,179.6742,84,54,0
179.66927,179.75035,86,49,0
179.74518,179.82808,84,54,0
179.82289,179.9035,86,49,0
179.89856,179.97736,84,54,0
179.97244,180.05095,86,49,0
180.04597,180.12149,84,54,0
180.12149,180.2034,86,52,0
180.19827,180.28033,84,47,0
180.2752,180.35617,86,52,0
180.35123,180.43044,84,48,0
180.42548,180.50468,86,53,0
180.49974,180.57895,84,49,0
180.57399,180.6555,86,51,0
180.6503,180.72856,84,54,0
180.72856,180.80655,86,51,0
180.80655,180.88321,84,56,0
180.88321,180.96027,86,53,0
180.96027,181.03867,84,58,0
181.03867,181.11761,86,56,0
181.11761,181.19508,84,64,0
181.19508,181.27122,86,60,0
181.27122,181.34737,84,68,0
181.34737,181.42482,86,65,0
181.42482,181.50162,84,77,0
181.50162,181.58049,86,71,0
181.58049,181.6701,84,86,0
181.6701,181.76266,86,90,0
181.76266,181.85837,88,96,0
181.85837,181.95746,89,100,0
181.95746,182.61319,91,108,0
183.30624,185.13608,79,83,0
185.13608,185.2876,81,53,0
185.2876,185.43912,82,53,0
185.43912,185.58403,81,53,0
183.30624,185.58403,74,70,0
183.30624,185.58403,70,70,0
183.30624,185.58403,67,70,0
185.58403,185.72357,79,56,0
185.72357,185.8587,81,54,0
185.8587,185.99384,79,54,0
185.99384,186.12898,77,54,0
186.12898,186.26659,74,57,0
186.26659,186.40112,77,54,0
186.40112,186.53564,74,54,0
186.53564,186.67018,72,54,0
186.67018,186.8078,70,58,0
186.8078,186.94232,67,54,0
186.94232,187.07686,62,53,0
187.07686,187.21138,64,53,0
187.21138,187.35289,67,52,0
187.35289,187.49643,65,48,0
187.49643,187.63861,67,48,0
187.63861,187.7788,69,47,0
187.21138,188.35573,61,42,0
187.7788,188.49995,67,47,0
188.49995,188.64214,65,48,0
188.64214,188.78568,67,49,0
188.78568,188.92586,69,52,0
188.92586,189.0694,72,53,0
189.0694,189.2109,69,53,0
189.2109,189.35242,67,53,0
189.35242,189.49132,65,53,0
188.35573,189.49132,62,44,0
189.49132,189.63765,67,54,0
189.63765,189.78616,65,49,0
189.78616,189.93251,67,51,0
189.93251,190.07536,69,49,0
189.49132,190.66942,63,43,0
190.07536,190.81793,67,48,0
190.81793,190.96428,65,49,0
190.96428,191.11063,67,51,0
191.11063,191.25348,69,52,0
191.25348,191.40576,74,56,0
191.40576,191.55502,69,54,0
191.55502,191.70427,67,54,0
190.66942,191.85353,62,45,0
191.70427,192.0032,65,54,0
192.0032,192.15921,70,52,0
192.15921,192.31094,74,54,0
192.31094,192.47623,77,57,0
191.85353,192.47623,62,49,0
192.47623,193.10667,74,40,0
192.47623,193.43275,81,60,0
193.43275,193.7519,79,54,0
193.7519,194.0644,77,52,0
194.0644,194.54494,79,54,0
194.54494,194.7071,77,49,0
194.7071,194.865,76,51,0
194.865,195.02289,79,51,0
193.10667,195.36575,72,44,0
195.36575,195.52704,70,49,0
195.52704,195.68578,69,49,0
195.02289,196.0191,77,54,0
196.0191,196.36794,76,46,0
196.36794,196.72508,65,45,0
196.36794,196.72508,74,45,0
196.72508,197.08223,64,43,0
196.72508,197.08223,72,43,0
195.68578,197.08223,70,51,0
198.45325,200.28308,79,83,0
200.28308,200.43459,81,53,0
200.43459,200.5861,82,53,0
200.5861,200.73103,81,53,0
198.45325,200.73103,70,70,0
198.45325,200.73103,74,70,0
198.45325,200.73103,67,70,0
200.73103,200.87057,79,56,0
200.87057,201.0057,81,54,0
201.0057,201.14084,79,54,0
201.14084,201.27597,77,54,0
201.27597,201.41359,74,57,0
201.41359,201.54813,77,54,0
201.54813,201.68265,74,54,0
201.68265,201.81718,72,54,0
201.81718,201.95479,70,58,0
201.95479,202.08932,67,54,0
202.08932,202.22385,62,53,0
202.22385,202.35838,64,53,0
202.35838,202.50473,67,51,0
202.50473,202.64964,65,47,0
202.64964,202.79388,67,48,0
202.79388,202.93674,69,47,0
202.93674,203.66292,67,46,0
203.66292,203.80855,65,45,0
203.80855,203.95418,67,46,0
203.95418,204.09772,69,48,0
204.09772,204.24406,72,49,0
204.24406,204.38829,69,49,0
204.38829,204.53183,67,49,0
204.53183,204.67401,65,49,0
202.35838,204.67401,62,43,0
204.67401,204.82036,67,48,0
204.82036,204.96887,65,46,0
204.96887,205.1152,67,47,0
205.1152,205.26013,69,46,0
205.26013,206.00726,67,45,0
206.00726,206.15726,65,46,0
206.15726,206.30432,67,47,0
206.30432,206.45816,69,48,0
206.45816,206.61044,74,52,0
206.61044,206.7597,69,51,0
206.7597,206.90895,67,51,0
206.90895,207.05821,65,51,0
204.67401,207.05821,62,43,0
207.05821,207.20723,76,51,0
207.20723,207.35034,70,49,0
207.35034,207.49345,69,49,0
207.49345,207.62465,67,49,0
207.63657,207.77556,77,52,0
207.77556,207.91257,72,51,0
207.91257,208.04959,70,51,0
208.04959,208.17519,69,51,0
208.1866,208.32106,79,53,0
208.32106,208.45308,74,51,0
208.45308,208.58508,72,51,0
208.58508,208.70445,70,51,0
208.7153,208.84976,81,54,0
208.84976,208.98117,76,52,0
208.98117,209.11258,74,52,0
209.11258,209.23141,72,52,0
209.24222,209.37668,82,56,0
209.37668,209.50809,77,54,0
209.50809,209.6395,76,54,0
209.6395,209.75781,74,54,0
209.76855,209.9024,84,58,0
209.9024,210.03381,79,56,0
210.03381,210.16522,77,56,0
210.16522,210.28352,76,57,0
210.29428,210.42876,86,60,0
210.42876,210.56076,81,58,0
210.56076,210.69276,79,59,0
210.69276,210.81213,77,59,0
210.82298,210.95999,88,63,0
210.95999,211.09384,82,60,0
211.09384,211.23283,81,60,0
211.23283,211.37273,79,60,0
211.3855,211.5246,91,87,0
211.53725,211.66133,86,67,0
211.67262,211.7967,84,67,0
211.80798,211.93207,82,67,0
212.48257,212.60326,77,63,0
212.61423,212.73491,79,65,0
212.74588,212.86655,81,67,0
212.87752,212.9982,82,69,0
213.00917,213.12985,84,72,0
213.14082,213.2615,86,72,0
213.27248,213.39314,88,75,0
213.40411,213.52762,89,77,0
213.53885,213.67795,91,87,0
213.6906,213.81468,86,67,0
213.82596,213.95004,84,67,0
213.96133,214.08542,82,67,0
214.63129,214.75197,77,64,0
214.76294,214.8836,79,66,0
214.89458,215.01526,81,69,0
215.02623,215.14691,82,72,0
215.15788,215.27855,84,73,0
215.28952,215.4102,86,76,0
215.42117,215.54185,88,78,0
215.55283,215.67714,89,80,0
215.68813,215.82735,91,89,0
215.8401,215.96349,86,72,0
215.9747,216.09808,84,72,0
216.1093,216.23268,82,72,0
216.78233,216.90402,79,72,0
216.91508,217.03679,81,73,0
217.04785,217.16954,82,76,0
217.1806,217.30229,84,78,0
217.31335,217.43571,86,80,0
217.44693,217.57158,88,83,0
217.583,217.71002,89,85,0
217.72166,217.8791,91,87,0
217.89313,218.25543,93,89,0
217.89313,218.25543,81,75,0
217.89313,218.25543,89,75,0
218.6178,219.50626,67,69,0
218.6178,219.50626,63,58,0
219.50626,219.64648,65,63,0
219.50626,219.64648,62,53,0
219.64648,219.78673,67,63,0
219.64648,219.78673,63,53,0
219.78673,220.08745,65,68,0
219.78673,220.08745,62,57,0
220.08745,220.22769,63,65,0
220.08745,220.22769,60,55,0
220.22769,220.36794,62,55,0
220.22769,220.36794,65,65,0
220.36794,220.6394,60,59,0
220.36794,220.6394,63,70,0
220.97115,221.2782,62,79,0
221.2782,221.57585,63,79,0
220.66408,221.57585,60,79,0
221.57585,221.69794,79,72,0
221.70905,221.83113,81,73,0
221.84224,221.96432,82,76,0
221.97543,222.09752,84,78,0
222.10861,222.23138,86,80,0
222.24263,222.36769,88,83,0
222.37915,222.50659,89,85,0
222.51828,222.67747,91,87,0
222.69202,223.0409,89,89,0
222.69202,223.0409,81,75,0
222.69202,223.0409,93,89,0
223.38977,224.28236,63,58,0
223.38977,224.28236,67,69,0
224.28236,224.42326,62,53,0
224.28236,224.42326,65,63,0
224.42326,224.56415,63,53,0
224.42326,224.56415,67,63,0
224.56415,224.86627,62,57,0
224.56415,224.86627,65,68,0
224.86627,225.00717,60,55,0
224.86627,225.00717,63,65,0
225.00717,225.14807,62,55,0
225.00717,225.14807,65,65,0
225.14807,225.4208,60,70,0
225.14807,225.4208,63,70,0
225.75407,226.06256,62,79,0
226.06256,226.36469,63,79,0
225.4456,226.36469,60,79,0
226.36469,226.49446,79,75,0
226.50626,226.63603,81,77,0
226.64783,226.7776,82,80,0
226.78941,226.91913,84,83,0
226.93086,227.0624,86,85,0
227.07454,227.21118,88,88,0
227.22383,227.36598,89,90,0
227.3792,227.57285,91,94,0
227.59084,227.98817,94,98,0
227.59084,227.98817,82,81,0
227.59084,227.98817,86,96,0
228.38553,229.3585,70,81,0
229.3585,229.50204,69,76,0
229.50204,229.64558,70,76,0
229.64558,229.95328,69,81,0
228.38553,229.95328,65,68,0
229.95328,230.09682,67,77,0
230.09682,230.24036,69,77,0
229.95328,230.24036,62,65,0
230.24036,230.56468,67,81,0
230.56468,230.86925,65,72,0
230.24036,230.86925,62,64,0
230.86925,231.17383,67,76,0
231.17383,231.46794,69,79,0
231.46794,231.76205,70,83,0
231.76205,232.05406,72,86,0
232.05406,232.34024,74,90,0
232.34024,232.6594,77,94,0
232.6594,233.93599,82,80,0
232.6594,233.93599,77,80,0
233.93599,234.57428,77,80,0
233.93599,234.57428,81,94,0
234.57428,234.6779,74,80,0
234.57428,234.6779,79,80,0
234.6779,234.78154,81,76,0
234.78154,234.88516,79,76,0
234.88516,234.98878,77,80,0
234.98878,235.09242,74,76,0
235.09242,235.20802,77,76,0
232.6594,235.20802,84,94,0
235.20802,235.66956,77,73,0
235.20802,235.66956,72,73,0
235.20802,235.66956,84,87,0
235.20802,235.66956,81,73,0
237.05417,237.51572,81,83,0
237.05417,237.51572,77,83,0
237.05417,237.51572,89,99,0
237.05417,237.51572,84,83,0
0.0013661209,0.3292351,29,87,0
0.327869,0.655738,41,78,0
0.655738,0.9407123,48,81,0
1.3487844,3.6265798,55,58,0
0.966619,3.6265798,48,81,0
1.3487844,3.6265798,62,70,0
1.3487844,3.6265798,58,58,0
5.2539253,6.401626,48,36,0
5.2539253,6.401626,41,36,0
6.401626,7.5372133,46,37,0
6.401626,7.5372133,53,37,0
5.2539253,7.5372133,57,44,0
7.5372133,8.715327,48,37,0
8.715327,9.899427,50,45,0
7.5372133,9.899427,57,37,0
9.899427,10.522129,58,41,0
9.899427,10.522129,53,41,0
9.899427,10.522129,46,41,0
10.522129,11.1525755,65,47,0
11.1525755,11.7978115,64,47,0
11.7978115,12.1103115,62,51,0
10.522129,12.4228115,58,42,0
12.1103115,12.590844,64,53,0
12.590844,12.753007,65,45,0
12.753007,12.910902,67,45,0
12.910902,13.068796,69,45,0
12.4228115,13.731674,57,53,0
13.068796,14.057761,62,45,0
14.057761,14.396744,64,45,0
13.731674,14.396744,55,46,0
14.396744,15.090385,48,41,0
15.091752,15.4196205,29,89,0
15.418255,15.746124,41,77,0
15.746124,16.031097,48,81,0
16.43917,18.716965,55,60,0
16.057005,18.716965,48,81,0
16.43917,18.716965,62,71,0
16.43917,18.716965,58,60,0
20.34431,21.499592,58,43,0
21.499592,22.63916,57,38,0
20.34431,22.63916,63,36,0
20.352848,22.647696,60,36,0
22.63916,23.819344,62,41,0
22.63916,23.819344,58,35,0
22.63916,23.819344,51,35,0
23.819344,25.003445,57,38,0
23.819344,25.003445,48,32,0
23.819344,25.003445,41,32,0
25.003445,25.344353,46,72,0
25.003445,25.344353,34,72,0
25.344353,25.70799,53,72,0
25.70799,26.735262,65,50,0
25.70799,26.735262,62,42,0
26.735262,26.882322,67,44,0
26.735262,26.882322,64,37,0
26.882322,27.02938,69,43,0
26.882322,27.02938,65,36,0
27.02938,27.32938,67,49,0
27.02938,27.32938,64,41,0
27.32938,27.476439,65,42,0
27.32938,27.476439,62,35,0
27.476439,27.623497,67,42,0
27.476439,27.623497,64,35,0
27.623497,27.911488,65,47,0
27.623497,27.911488,62,40,0
27.917616,28.186272,64,44,0
27.917616,28.186272,60,37,0
28.216124,28.489756,64,45,0
28.216124,28.489756,60,38,0
28.51463,28.820753,65,45,0
28.51463,28.820753,58,38,0
28.820753,29.11412,57,37,0
28.820753,29.11412,60,37,0
28.820753,29.11412,64,44,0
29.126875,29.408125,62,46,0
29.126875,29.408125,58,39,0
29.126875,29.408125,55,39,0
29.439375,29.756836,62,50,0
29.439375,29.756836,58,43,0
29.439375,29.756836,55,43,0
29.756836,30.079416,61,48,0
29.756836,30.079416,57,40,0
29.756836,30.079416,53,40,0
30.079416,30.430294,46,72,0
30.079416,30.430294,34,61,0
30.430294,30.79393,53,72,0
30.79393,31.821203,65,53,0
30.79393,31.821203,62,45,0
31.821203,31.968262,67,47,0
31.821203,31.968262,64,40,0
31.968262,32.115322,69,46,0
31.968262,32.115322,65,39,0
32.115322,32.41532,67,51,0
32.115322,32.41532,64,43,0
32.41532,32.562378,65,46,0
32.41532,32.562378,62,39,0
32.562378,32.70944,67,46,0
32.562378,32.70944,64,39,0
32.70944,32.99743,65,51,0
32.70944,32.99743,62,42,0
33.003555,33.276283,64,47,0
33.003555,33.276283,60,40,0
33.306587,33.584362,64,47,0
33.306587,33.584362,60,40,0
33.609615,33.922115,65,48,0
33.609615,33.922115,58,40,0
33.922115,34.221596,57,41,0
33.922115,34.221596,60,41,0
33.922115,34.221596,64,48,0
34.234615,34.529697,62,48,0
34.234615,34.529697,58,41,0
34.234615,34.529697,55,41,0
34.562485,34.899563,62,55,0
34.562485,34.899563,58,45,0
34.562485,34.899563,55,45,0
34.899563,35.29172,61,53,0
34.899563,35.29172,57,44,0
34.899563,35.29172,53,44,0
35.29172,35.62956,43,58,0
35.29172,35.62956,31,53,0
35.697124,36.028618,53,37,0
36.028618,36.344406,55,37,0
36.344406,36.66873,58,37,0
36.66873,36.987053,62,39,0
36.987053,37.296333,65,36,0
37.296333,37.61891,67,36,0
37.61891,37.945835,65,36,0
38.29144,38.617527,64,48,0
38.617527,38.77542,62,46,0
38.77542,38.93332,60,46,0
38.93332,39.249107,58,48,0
39.249107,39.545,57,49,0
39.573406,39.867527,55,58,0
39.894264,40.193176,53,56,0
40.22035,40.49209,50,58,0
40.872524,41.045933,45,57,0
40.872524,41.045933,33,48,0
41.219345,41.392757,46,56,0
41.219345,41.392757,34,47,0
41.566166,41.73958,48,57,0
41.566166,41.73958,36,48,0
42.232136,42.551285,45,53,0
42.232136,42.551285,52,63,0
42.551285,42.86542,50,63,0
42.86542,43.179558,52,63,0
42.86542,43.179558,48,53,0
43.179558,43.51854,53,56,0
43.179558,43.51854,46,47,0
43.51854,43.869415,57,53,0
43.51854,43.869415,45,45,0
43.869415,45.285683,58,51,0
43.869415,45.285683,50,43,0
43.869415,45.285683,43,43,0
45.285683,46.089447,58,46,0
45.285683,46.089447,48,40,0
46.089447,46.497612,41,51,0
46.497612,47.305775,48,46,0
47.305775,48.17907,53,42,0
48.17907,49.07704,60,33,0
49.07704,49.4374,65,30,0
46.089447,49.61758,29,40,0
49.61758,52.071976,72,33,0
49.550014,52.071976,64,28,0
49.482445,52.071976,57,28,0
52.071976,52.43561,50,31,0
52.071976,52.43561,57,33,0
52.43561,52.799248,77,37,0
52.43561,52.799248,81,37,0
52.43561,52.799248,83,37,0
52.799248,55.168934,72,33,0
52.799248,55.168934,64,27,0
52.799248,55.168934,57,27,0
55.168934,55.896206,50,27,0
55.168934,55.896206,60,33,0
55.896206,56.26513,59,35,0
55.896206,56.26513,50,29,0
55.896206,56.26513,43,29,0
56.26513,57.054825,55,41,0
56.26513,57.054825,48,35,0
57.054825,57.862125,41,31,0
57.862125,58.234795,40,35,0
58.234795,58.980858,38,35,0
57.054825,58.980858,48,37,0
58.980858,61.817974,53,37,0
58.980858,61.817974,43,31,0
61.817974,62.373177,52,25,0
61.817974,62.373177,47,20,0
61.817974,62.373177,40,20,0
62.373177,64.82757,72,30,0
62.373177,64.82757,64,30,0
62.373177,64.82757,57,30,0
64.82757,65.19121,50,27,0
64.82757,65.19121,57,33,0
65.19121,65.59937,77,37,0
65.19121,65.59937,81,37,0
65.19121,65.59937,83,37,0
65.59937,67.26335,72,33,0
65.59937,67.26335,64,27,0
65.59937,67.26335,57,27,0
67.26335,68.92732,77,39,0
67.26335,68.92732,69,33,0
67.26335,68.92732,62,33,0
68.92732,70.473236,65,32,0
68.92732,70.473236,55,27,0
70.473236,72.04051,55,21,0
70.473236,72.04051,64,26,0
70.473236,72.04051,48,21,0
72.04051,73.59968,55,27,0
72.04051,73.59968,65,32,0
73.59968,75.174545,48,24,0
73.59968,75.174545,55,24,0
73.59968,75.174545,64,28,0
75.174545,76.69943,57,27,0
75.174545,76.69943,47,23,0
75.174545,76.69943,42,23,0
76.69943,78.223755,56,27,0
76.69943,78.223755,47,23,0
76.69943,78.223755,40,23,0
78.223755,79.761314,57,34,0
78.223755,79.761314,47,28,0
78.223755,79.761314,42,28,0
79.761314,81.39069,52,35,0
79.761314,81.39069,59,35,0
79.761314,81.39069,68,42,0
81.39069,82.245346,69,45,0
81.39069,82.245346,62,38,0
82.245346,82.972145,71,42,0
82.245346,82.972145,65,35,0
82.972145,83.338005,67,42,0
82.972145,83.68397,60,35,0
83.338005,84.04324,65,39,0
83.68397,84.38519,59,42,0
84.04324,84.74883,64,39,0
84.38519,85.0888,57,42,0
85.0888,85.45465,57,42,0
85.45465,85.827324,55,44,0
84.74883,85.827324,62,39,0
85.827324,86.19318,62,39,0
85.827324,86.19318,53,33,0
86.19318,86.54405,59,33,0
86.19318,86.54405,52,27,0
86.54405,86.98201,60,38,0
86.54405,86.98201,50,32,0
86.98201,87.46982,52,36,0
86.98201,87.46982,48,30,0
87.46982,90.55317,54,36,0
87.46982,90.55317,47,30,0
90.55317,96.62547,54,27,0
90.55317,96.62547,48,22,0
96.62547,96.904976,56,35,0
96.62547,96.904976,47,29,0
96.998146,97.25238,40,38,0
99.417946,101.87234,72,30,0
99.417946,101.87234,64,25,0
99.417946,101.87234,57,25,0
101.87234,102.23597,50,27,0
101.87234,102.23597,57,33,0
102.23597,102.59961,77,37,0
102.23597,102.59961,81,37,0
102.23597,102.59961,83,37,0
102.59961,104.96929,72,33,0
102.59961,104.96929,64,27,0
102.59961,104.96929,57,27,0
104.96929,105.69656,50,27,0
104.96929,105.69656,60,33,0
105.69656,106.06549,59,35,0
105.69656,106.06549,50,29,0
105.69656,106.06549,43,29,0
106.06549,106.85519,55,41,0
106.06549,106.85519,48,35,0
106.85519,107.66248,41,31,0
107.66248,108.03516,40,35,0
108.03516,108.78122,38,35,0
106.85519,108.78122,48,37,0
108.78122,111.143585,53,37,0
108.78122,111.143585,43,31,0
111.143585,111.54733,41,26,0
111.62808,112.18328,40,25,0
111.143585,112.18328,47,31,0
112.18328,114.63768,72,30,0
112.18328,114.63768,64,25,0
112.18328,114.63768,57,25,0
114.63768,115.00131,50,27,0
114.63768,115.00131,57,33,0
115.00131,115.40948,77,37,0
115.00131,115.40948,81,37,0
115.00131,115.40948,83,37,0
115.40948,117.0997,72,33,0
115.40948,117.0997,64,27,0
115.40948,117.0997,57,27,0
117.0997,118.76368,61,33,0
117.0997,118.76368,52,27,0
117.0997,118.76368,45,27,0
118.76368,119.18035,48,27,0
118.76368,119.18035,41,19,0
119.18035,120.38035,53,32,0
119.18035,120.38035,43,22,0
120.38035,120.76251,52,33,0
120.38035,120.76251,45,23,0
120.76251,121.55199,50,33,0
121.55199,121.946724,55,31,0
122.35213,122.50416,48,24,0
122.35213,122.50416,45,19,0
123.18307,123.28723,47,21,0
123.18307,123.28723,43,17,0
123.59973,123.69974,48,24,0
123.59973,123.69974,45,19,0
123.99973,124.09973,48,24,0
123.99973,124.09973,45,19,0
125.14507,125.86387,46,30,0
125.14507,125.86387,34,25,0
125.86387,126.59558,45,34,0
125.86387,126.59558,33,28,0
126.59558,127.310265,43,36,0
126.59558,127.310265,31,30,0
127.310265,128.0124,41,34,0
127.310265,128.0124,29,28,0
128.0124,128.7082,40,31,0
128.0124,128.7082,28,26,0
128.7082,129.40598,38,35,0
128.7082,129.40598,26,29,0
129.40598,130.12254,36,38,0
129.40598,130.12254,24,32,0
130.12254,130.82843,38,34,0
130.12254,130.82843,26,28,0
130.82843,131.54517,46,37,0
130.82843,131.54517,34,31,0
131.54517,132.27687,45,34,0
131.54517,132.27687,33,28,0
132.27687,132.99156,43,36,0
132.27687,132.99156,31,30,0
132.99156,133.6937,41,34,0
132.99156,133.6937,29,28,0
133.6937,134.3895,40,31,0
133.6937,134.3895,28,26,0
134.3895,135.08727,38,35,0
134.3895,135.08727,26,29,0
135.08727,135.80385,36,38,0
135.08727,135.80385,24,32,0
135.80385,136.50972,48,41,0
137.19948,137.9097,62,45,0
137.9097,138.59187,60,42,0
138.59187,139.25682,58,42,0
136.50972,139.25682,63,46,0
139.25682,139.91624,57,30,0
139.25682,139.91624,60,30,0
139.25682,139.91624,63,36,0
139.91624,140.5923,55,30,0
139.91624,140.5923,67,36,0
139.91624,140.5923,63,30,0
139.91624,140.5923,60,30,0
140.5923,141.26842,53,32,0
140.5923,141.26842,69,38,0
140.5923,141.26842,63,32,0
140.5923,141.26842,60,32,0
141.26842,141.93507,55,27,0
141.26842,141.93507,67,33,0
141.26842,141.93507,63,27,0
141.26842,141.93507,60,27,0
142.62494,143.31184,62,45,0
143.31184,143.98257,60,42,0
143.98257,144.64957,58,42,0
141.93507,144.64957,63,46,0
144.64957,145.31451,57,30,0
144.64957,145.31451,60,30,0
144.64957,145.31451,63,36,0
145.31451,145.99632,55,30,0
145.31451,145.99632,67,36,0
145.31451,145.99632,63,30,0
145.31451,145.99632,60,30,0
145.99632,146.31425,69,52,0
146.34315,146.67834,65,54,0
146.67834,147.01353,67,56,0
147.01353,147.36037,69,59,0
145.99632,147.36037,53,35,0
145.99632,147.36037,60,35,0
145.99632,147.36037,63,41,0
148.68295,148.9372,53,54,0
149.02194,149.26784,65,46,0
150.00554,150.25145,65,53,0
150.3334,150.56902,77,51,0
151.28613,151.53204,53,51,0
151.614,151.84961,65,46,0
147.36037,152.54997,41,64,0
147.36037,152.54997,34,54,0
153.84587,154.0865,53,54,0
154.16672,154.40736,65,47,0
155.10143,155.34079,65,53,0
155.42058,155.65135,77,47,0
152.54997,157.65872,41,64,0
152.54997,157.65872,34,54,0
158.91908,159.15845,52,33,0
159.23824,159.47261,64,27,0
157.65872,160.15834,40,39,0
157.65872,160.15834,33,33,0
160.15834,160.39029,90,44,0
160.76912,161.00108,87,44,0
161.37991,161.61186,84,43,0
161.99069,162.21683,81,39,0
163.84232,164.07916,52,33,0
164.1581,164.38887,64,27,0
162.5937,165.0734,40,39,0
162.5937,165.0734,33,39,0
165.0734,165.39032,66,37,0
165.69998,166.01762,63,37,0
166.32729,166.64491,60,37,0
166.95457,167.26424,57,35,0
167.5739,168.18465,43,31,0
167.5739,168.18465,31,26,0
168.18465,168.77727,48,31,0
168.18465,168.77727,36,26,0
168.77727,169.38036,55,37,0
168.77727,169.38036,43,31,0
169.38036,169.99617,60,33,0
169.38036,169.99617,48,27,0
169.99617,170.28383,62,45,0
170.30998,170.90414,65,47,0
170.90414,171.04736,64,45,0
171.04736,171.19058,65,45,0
171.19058,171.48929,62,49,0
171.48929,171.63399,60,46,0
171.63399,171.7787,62,46,0
169.99617,172.07741,58,35,0
171.7787,172.07741,58,52,0
172.07741,172.37631,62,49,0
169.99617,172.37631,55,35,0
172.37631,172.97678,43,37,0
172.37631,172.97678,31,31,0
172.97678,173.56215,48,37,0
172.97678,173.56215,36,31,0
173.56215,174.1572,55,44,0
173.56215,174.1572,43,36,0
174.1572,174.76501,60,39,0
174.1572,174.76501,48,33,0
174.76501,175.04645,62,54,0
175.07198,175.65225,65,58,0
175.65225,175.79211,64,54,0
175.79211,175.93198,65,54,0
175.93198,176.22371,62,60,0
176.22371,176.36502,60,57,0
176.36502,176.50633,62,57,0
174.76501,176.79808,58,41,0
176.50633,176.79808,58,63,0
176.79808,177.08159,62,60,0
174.76501,177.10736,55,41,0
177.10736,177.38829,65,58,0
177.41382,177.9941,69,62,0
177.9941,178.13396,67,58,0
178.13396,178.27382,69,58,0
178.27382,178.56555,65,63,0
178.56555,178.70686,64,60,0
178.70686,178.84818,65,60,0
177.10736,179.13992,62,53,0
178.84818,179.13992,62,67,0
179.13992,179.44449,65,63,0
177.10736,179.44449,58,45,0
179.44449,180.04597,70,66,0
179.44449,180.04597,67,55,0
179.44449,180.04597,60,55,0
179.44449,180.04597,62,55,0
179.44449,180.04597,65,55,0
180.04597,180.6503,55,62,0
180.6503,181.27122,60,80,0
181.27122,181.95746,48,77,0
181.95882,182.2867,29,97,0
182.28532,182.61319,41,78,0
182.61319,182.89816,48,81,0
183.30624,185.58403,55,62,0
182.92407,185.58403,48,81,0
183.30624,185.58403,62,75,0
183.30624,185.58403,58,62,0
187.21138,188.35573,57,42,0
187.21138,188.35573,49,39,0
187.21138,188.35573,41,37,0
188.35573,189.49132,46,40,0
188.35573,189.49132,53,45,0
189.49132,190.66942,48,40,0
190.66942,191.85353,50,40,0
189.49132,191.85353,57,45,0
191.85353,192.47623,58,49,0
191.85353,192.47623,53,41,0
191.85353,192.47623,46,41,0
192.47623,193.10667,65,47,0
193.10667,193.7519,64,47,0
193.7519,194.0644,62,51,0
192.47623,194.3769,58,39,0
194.0644,194.54494,64,53,0
194.54494,194.7071,65,53,0
194.7071,194.865,67,53,0
194.865,195.02289,69,53,0
194.3769,195.68578,57,53,0
195.02289,196.0191,62,54,0
196.0191,196.36794,64,45,0
195.68578,196.36794,55,46,0
196.36794,197.08223,48,41,0
197.08363,197.42262,29,89,0
197.4212,197.7602,41,77,0
197.7602,198.04517,48,81,0
198.45325,200.73103,55,63,0
198.07108,200.73103,48,81,0
198.45325,200.73103,62,76,0
198.45325,200.73103,58,63,0
202.35838,203.36943,57,43,0
202.35838,203.36943,50,36,0
203.51366,204.67401,58,38,0
203.44154,204.67401,50,33,0
203.36943,204.67401,43,28,0
204.67401,205.70567,50,35,0
204.67401,205.70567,57,41,0
205.8542,207.05821,59,38,0
205.77994,207.05821,50,35,0
205.70567,207.05821,43,32,0
207.63657,207.91257,60,46,0
207.63657,207.91257,57,39,0
207.91257,208.16376,65,38,0
207.91257,208.16376,62,32,0
208.1866,208.45308,62,47,0
208.1866,208.45308,58,40,0
208.45308,208.6936,64,32,0
208.45308,208.6936,67,38,0
208.7153,208.98117,64,49,0
208.7153,208.98117,60,41,0
208.98117,209.22061,69,41,0
208.98117,209.22061,65,35,0
207.05821,209.24222,48,51,0
207.05821,209.24222,36,43,0
209.24222,209.50809,65,51,0
209.24222,209.50809,62,43,0
209.50809,209.74706,70,41,0
209.50809,209.74706,67,35,0
209.76855,210.03381,67,53,0
209.76855,210.03381,64,45,0
210.03381,210.27277,69,36,0
210.03381,210.27277,72,43,0
210.29428,210.56076,65,45,0
210.29428,210.56076,69,54,0
210.56076,210.80128,74,45,0
210.56076,210.80128,70,37,0
210.82298,211.09384,67,48,0
210.82298,211.09384,70,57,0
211.09384,211.24565,76,47,0
211.09384,211.24565,72,40,0
211.94334,212.07228,79,60,0
211.3855,212.20578,74,58,0
212.084,212.20578,74,57,0
212.21686,212.33865,72,57,0
212.34972,212.47151,70,57,0
211.27129,213.53885,58,40,0
211.30972,213.53885,65,52,0
211.34767,213.53885,67,54,0
214.0967,214.22137,79,60,0
214.2327,214.35449,74,57,0
214.36557,214.48735,72,57,0
213.53885,214.62021,70,58,0
214.49843,214.62021,70,57,0
213.53885,215.68813,55,49,0
213.53885,215.68813,60,49,0
213.53885,215.68813,62,58,0
216.24391,216.36903,79,64,0
216.3804,216.50322,74,59,0
216.51439,216.63719,72,59,0
216.64836,216.77116,70,59,0
215.68813,217.89313,64,65,0
215.68813,217.89313,48,55,0
215.68813,217.89313,55,55,0
215.68813,217.89313,58,55,0
217.89313,218.25543,41,81,0
217.89313,218.25543,29,68,0
218.6178,220.08745,57,58,0
218.6178,220.08745,60,69,0
218.25543,221.46423,48,81,0
220.08745,221.51384,57,50,0
220.08745,221.51384,53,42,0
221.57585,222.10861,64,72,0
222.10861,222.69202,62,72,0
221.53865,222.69202,58,56,0
221.46423,222.69202,48,50,0
221.50143,222.69202,55,63,0
222.69202,223.0409,41,81,0
222.69202,223.0409,29,68,0
223.38977,224.86627,57,58,0
223.38977,224.86627,60,69,0
224.86627,226.36469,57,51,0
223.0409,226.36469,48,81,0
226.25139,226.36469,48,59,0
224.86627,226.36469,53,43,0
226.36469,226.93086,64,72,0
226.93086,227.59084,62,72,0
226.28915,227.59084,55,54,0
226.32692,227.59084,58,67,0
227.59084,227.98817,46,81,0
227.59084,227.98817,34,68,0
227.98817,228.38553,53,81,0
228.38553,229.3585,58,57,0
229.3585,229.50204,57,65,0
229.50204,229.64558,58,65,0
229.64558,229.95328,57,68,0
228.38553,229.95328,62,68,0
229.95328,230.09682,55,64,0
230.09682,230.24036,57,64,0
229.95328,230.24036,58,54,0
230.24036,230.56468,55,68,0
230.56468,230.86925,53,63,0
230.24036,230.86925,58,54,0
230.86925,231.17383,55,65,0
231.17383,231.46794,57,68,0
231.46794,231.76205,58,71,0
231.76205,232.05406,60,73,0
232.05406,232.34024,62,76,0
232.34024,232.6594,65,80,0
232.6594,233.93599,70,72,0
232.6594,233.93599,62,60,0
232.6594,233.93599,65,60,0
232.6594,233.93599,72,72,0
233.93599,234.57428,72,72,0
233.93599,234.57428,60,60,0
233.93599,234.57428,65,60,0
233.93599,234.57428,69,60,0
234.57428,235.20802,65,55,0
234.57428,235.20802,58,55,0
234.57428,235.20802,62,55,0
234.57428,235.20802,67,65,0
235.20802,235.66956,69,75,0
235.20802,235.66956,53,63,0
235.20802,235.66956,60,63,0
235.20802,235.66956,65,63,0
237.05417,237.51572,41,68,0
237.05417,237.51572,36,57,0
237.05417,237.51572,29,57,0
