start_time,end_time,note_value,velocity,instrument_program_number
0.2080445,0.2590372,65,45,0
0.2080445,0.2590372,59,45,0
0.60956573,0.6629922,62,45,0
0.60956573,0.6629922,69,45,0
0.8232715,0.99216753,59,48,0
1.0259467,1.1266314,59,44,0
1.1266314,1.227316,60,44,0
1.227316,1.423651,59,45,0
1.227316,1.423651,65,45,0
1.227316,1.423651,69,45,0
1.423651,1.5872635,57,45,0
1.641801,1.7203295,59,48,0
2.06062,2.2219796,60,43,0
2.06062,2.2219796,69,43,0
2.06062,2.2219796,65,43,0
2.4909124,2.698957,59,48,0
2.698957,2.9029276,60,45,0
2.9029276,3.0029678,62,48,0
3.1030078,3.2030478,64,45,0
2.9029276,3.3030877,69,48,0
2.9029276,3.3030877,72,48,0
3.3030877,3.401863,66,48,0
3.5006382,3.5648725,66,45,0
3.5648725,3.629107,67,44,0
3.629107,3.6933413,66,44,0
3.6933413,3.8934212,64,48,0
3.8934212,4.102831,62,45,0
3.6933413,4.102831,69,42,0
3.6933413,4.102831,72,42,0
4.102831,4.2773385,60,48,0
4.31224,4.486748,62,44,0
4.52165,4.905567,64,44,0
4.52165,4.905567,69,44,0
4.52165,4.905567,72,44,0
4.940469,5.1485133,64,48,0
5.1485133,5.352484,66,45,0
5.352484,5.4494333,68,45,0
5.546383,5.6532354,69,45,0
5.352484,5.7600884,59,48,0
5.7600884,5.931181,66,48,0
5.9653993,6.0673847,66,49,0
6.0673847,6.16937,68,51,0
6.16937,6.36945,62,48,0
6.16937,6.36945,66,55,0
6.36945,6.5330625,64,50,0
6.36945,6.5330625,60,43,0
6.5876,6.7942686,62,48,0
6.5876,6.7942686,66,55,0
7.000937,7.216083,69,57,0
7.000937,7.216083,66,57,0
7.000937,7.216083,62,57,0
7.4312296,7.644935,64,49,0
7.4312296,7.644935,68,49,0
7.644935,7.845015,69,46,0
7.644935,7.845015,66,46,0
7.845015,8.442451,68,49,0
7.845015,8.442451,64,49,0
8.477588,8.678957,69,48,0
8.477588,8.678957,66,48,0
8.678957,9.27125,71,51,0
8.678957,9.27125,68,51,0
9.305924,9.506004,72,50,0
9.305924,9.506004,69,50,0
9.506004,9.948461,68,45,0
9.506004,9.948461,64,45,0
9.948461,10.155129,79,45,0
9.948461,10.155129,76,45,0
10.155129,10.255814,77,43,0
10.155129,10.255814,74,43,0
10.255814,10.356499,79,43,0
10.255814,10.356499,76,43,0
10.356499,10.563167,77,45,0
10.356499,10.563167,74,45,0
10.563167,10.767138,76,42,0
10.563167,10.767138,72,42,0
10.767138,10.973806,70,45,0
10.767138,10.973806,74,45,0
10.973806,11.18606,72,43,0
10.973806,11.18606,69,43,0
11.18606,11.806066,74,44,0
11.18606,11.806066,70,44,0
11.806066,11.906751,72,42,0
11.806066,11.906751,69,42,0
11.906751,12.007435,74,42,0
11.906751,12.007435,70,42,0
12.007435,12.214104,69,44,0
12.007435,12.214104,72,44,0
12.214104,12.420772,67,42,0
12.214104,12.420772,70,42,0
12.420772,12.628817,69,44,0
12.420772,12.628817,65,44,0
12.628817,12.841071,67,43,0
12.628817,12.841071,64,43,0
12.841071,13.222486,69,43,0
12.841071,13.222486,65,43,0
13.25716,13.459835,79,51,0
13.25716,13.459835,76,51,0
13.459835,13.559238,77,49,0
13.459835,13.559238,74,49,0
13.559238,13.658642,79,49,0
13.559238,13.658642,76,49,0
13.658642,13.865311,77,51,0
13.658642,13.865311,74,51,0
13.865311,14.06668,76,48,0
13.865311,14.06668,72,48,0
13.25716,14.06668,69,48,0
14.06668,14.273349,74,51,0
14.06668,14.273349,70,51,0
14.273349,14.484171,72,49,0
14.273349,14.484171,69,49,0
14.06668,14.894793,65,39,0
14.484171,15.100103,74,50,0
14.484171,15.100103,70,50,0
15.100103,15.200788,72,46,0
15.100103,15.200788,69,46,0
15.200788,15.301473,74,46,0
15.200788,15.301473,70,46,0
15.301473,15.508141,69,49,0
15.301473,15.508141,72,49,0
15.508141,15.714809,67,45,0
15.508141,15.714809,70,45,0
14.894793,15.714809,64,43,0
15.714809,15.92575,69,46,0
15.714809,15.92575,65,46,0
15.92575,16.140959,67,45,0
15.92575,16.140959,64,45,0
16.140959,16.758854,69,49,0
16.758854,16.969793,67,48,0
16.140959,17.177982,65,49,0
17.177982,17.38085,64,46,0
16.969793,17.58769,69,49,0
17.58769,17.790558,67,46,0
17.790558,18.403131,69,49,0
18.403131,18.61132,71,52,0
18.61132,18.814186,74,56,0
18.814186,19.012024,71,52,0
19.012024,19.214891,69,50,0
19.214891,19.417759,71,49,0
19.417759,19.620626,64,50,0
19.620626,19.828814,67,49,0
17.38085,19.828814,62,46,0
19.828814,20.034323,69,52,0
20.034323,20.23983,67,49,0
20.23983,20.848509,69,52,0
20.848509,21.055347,71,54,0
21.055347,21.258215,74,56,0
21.258215,21.454834,71,52,0
21.454834,21.657701,69,55,0
21.657701,21.860567,71,50,0
21.860567,22.063435,69,49,0
22.063435,22.271624,65,48,0
19.828814,22.271624,62,52,0
23.297005,23.372953,57,44,0
23.49881,23.574324,59,44,0
22.271624,23.774778,60,39,0
23.699749,23.774778,60,44,0
23.89983,23.974382,62,46,0
22.271624,24.17319,64,39,0
24.098637,24.17319,64,42,0
24.297443,24.371996,66,42,0
24.495832,24.573849,68,42,0
25.744099,25.822115,57,40,0
25.951248,26.02875,59,40,0
26.158377,26.236677,60,40,0
24.703876,26.44691,62,40,0
26.367794,26.44691,62,44,0
24.703876,26.65971,64,40,0
26.57957,26.65971,64,38,0
26.793997,26.874987,66,37,0
27.01089,27.102922,68,34,0
27.252274,27.304283,57,44,0
27.460318,27.510338,59,42,0
27.660397,27.709785,60,44,0
27.660397,27.709785,69,39,0
27.660397,27.709785,65,39,0
27.857948,27.911375,62,42,0
28.071653,28.241629,59,44,0
28.275625,28.375029,59,40,0
28.375029,28.474432,60,40,0
28.474432,28.667135,59,42,0
28.474432,28.667135,65,39,0
28.474432,28.667135,69,39,0
28.667135,28.826324,57,42,0
28.879389,28.955393,59,44,0
29.284739,29.338526,60,39,0
29.284739,29.338526,69,39,0
29.284739,29.338526,65,39,0
29.715033,29.9217,59,44,0
29.9217,30.12307,60,42,0
30.12307,30.221846,62,44,0
30.32062,30.419395,64,42,0
30.12307,30.518171,69,39,0
30.12307,30.518171,72,39,0
30.518171,30.616945,66,44,0
30.715721,30.780354,66,42,0
30.780354,30.844988,67,40,0
30.844988,30.90962,66,40,0
30.90962,31.10717,64,44,0
31.10717,31.311142,62,42,0
30.90962,31.311142,69,38,0
30.90962,31.311142,72,38,0
31.311142,31.480038,60,44,0
31.513817,31.682713,62,40,0
31.716492,32.13531,69,40,0
31.716492,32.13531,72,40,0
31.716492,32.13531,64,40,0
32.13531,32.18732,69,44,0
32.343353,32.393375,71,42,0
32.543434,32.592823,72,44,0
32.543434,32.592823,62,39,0
32.543434,32.592823,65,39,0
32.740986,32.79441,74,43,0
32.954693,33.12467,71,45,0
33.15866,33.258064,71,43,0
33.258064,33.357468,72,43,0
33.357468,33.55017,71,44,0
33.357468,33.55017,65,42,0
33.357468,33.55017,62,42,0
33.55017,33.709362,69,44,0
33.76243,33.83843,71,48,0
34.167778,34.221565,72,43,0
34.167778,34.221565,62,43,0
34.167778,34.221565,65,43,0
34.59807,34.804737,71,50,0
34.804737,35.006107,72,48,0
35.006107,35.10488,74,52,0
35.20366,35.302433,76,50,0
35.006107,35.401207,69,44,0
35.006107,35.401207,72,44,0
35.401207,35.499985,78,52,0
35.59876,35.66261,78,48,0
35.66261,35.726456,79,48,0
35.726456,35.790306,78,48,0
35.790306,35.990387,76,52,0
35.990387,36.199795,74,50,0
36.199795,36.403767,72,52,0
36.403767,36.61747,74,48,0
37.03629,37.23766,72,50,0
37.03629,37.23766,69,45,0
37.23766,37.44297,74,48,0
36.61747,37.44297,76,48,0
37.44297,37.816917,76,48,0
37.44297,37.816917,71,40,0
37.44297,37.816917,67,40,0
37.85091,38.05359,69,46,0
38.05359,38.26441,71,45,0
37.85091,38.26441,66,40,0
38.26441,38.677746,68,39,0
38.26441,38.677746,65,39,0
38.26441,39.06688,72,46,0
38.677746,39.102257,67,38,0
38.677746,39.102257,64,38,0
39.102257,39.51559,66,34,0
39.102257,39.51559,63,34,0
39.51559,39.92893,62,31,0
39.51559,39.92893,65,31,0
39.102257,39.92893,68,37,0
39.92893,40.35803,61,32,0
40.35803,40.520634,60,32,0
40.794086,40.959484,59,31,0
41.23731,41.42578,58,31,0
41.23731,41.42578,62,31,0
39.92893,42.327103,64,32,0
42.834618,42.910088,69,45,0
42.834618,42.910088,64,38,0
42.834618,42.910088,60,38,0
43.035877,43.10908,64,39,0
43.035877,43.10908,62,33,0
43.035877,43.10908,59,33,0
43.231087,43.286396,64,39,0
43.231087,43.286396,62,33,0
43.231087,43.286396,59,33,0
43.4263,43.500843,69,39,0
43.4263,43.500843,64,33,0
43.4263,43.500843,60,33,0
43.62508,43.699623,69,44,0
43.62508,43.699623,64,37,0
43.62508,43.699623,60,37,0
43.82386,43.896618,62,37,0
43.82386,43.896618,59,37,0
43.82386,43.896618,64,44,0
44.017883,44.073864,62,34,0
44.017883,44.073864,64,40,0
44.017883,44.073864,59,34,0
44.21546,44.29236,69,43,0
44.21546,44.29236,64,36,0
44.21546,44.29236,60,36,0
44.420517,44.482327,71,49,0
44.420517,44.482327,67,41,0
44.420517,44.482327,62,41,0
44.85678,45.250294,69,68,0
44.85678,45.250294,81,78,0
45.267403,45.342205,69,45,0
45.267403,45.342205,64,38,0
45.267403,45.342205,60,38,0
45.46687,45.538265,64,39,0
45.46687,45.538265,62,33,0
45.46687,45.538265,59,33,0
45.65725,45.711193,64,39,0
45.65725,45.711193,62,33,0
45.65725,45.711193,59,33,0
45.84763,45.92151,69,39,0
45.84763,45.92151,64,33,0
45.84763,45.92151,60,33,0
46.044636,46.11851,60,37,0
46.044636,46.11851,69,44,0
46.044636,46.11851,64,37,0
46.241642,46.312603,64,44,0
46.241642,46.312603,59,37,0
46.241642,46.312603,62,37,0
46.430866,46.48774,62,34,0
46.430866,46.48774,64,40,0
46.430866,46.48774,59,34,0
46.63159,46.710304,69,46,0
46.63159,46.710304,64,39,0
46.63159,46.710304,60,39,0
46.8415,46.903744,71,51,0
46.8415,46.903744,67,43,0
46.8415,46.903744,62,43,0
47.280865,47.67698,72,69,0
47.280865,47.67698,84,79,0
47.694202,47.768795,72,50,0
47.694202,47.768795,67,42,0
47.694202,47.768795,64,42,0
47.893116,47.964508,67,43,0
47.893116,47.964508,65,36,0
47.893116,47.964508,62,36,0
48.083496,48.137436,67,43,0
48.083496,48.137436,65,36,0
48.083496,48.137436,62,36,0
48.273872,48.34755,67,36,0
48.273872,48.34755,64,36,0
48.273872,48.34755,72,43,0
48.470337,48.54401,72,49,0
48.470337,48.54401,67,41,0
48.470337,48.54401,64,41,0
48.6668,48.737762,67,49,0
48.6668,48.737762,65,41,0
48.6668,48.737762,62,41,0
48.85603,48.913097,65,37,0
48.85603,48.913097,67,44,0
48.85603,48.913097,62,37,0
49.057453,49.135937,72,51,0
49.057453,49.135937,67,43,0
49.057453,49.135937,64,43,0
49.266743,49.328472,74,56,0
49.266743,49.328472,70,47,0
49.266743,49.328472,65,47,0
49.702473,50.095985,72,75,0
49.702473,50.095985,84,88,0
50.113094,50.18678,72,57,0
50.113094,50.18678,67,48,0
50.113094,50.18678,64,48,0
50.309586,50.381058,67,49,0
50.309586,50.381058,65,41,0
50.309586,50.381058,62,41,0
50.500183,50.554184,62,41,0
50.500183,50.554184,65,41,0
50.500183,50.554184,67,49,0
50.69078,50.763557,72,49,0
50.69078,50.763557,67,41,0
50.69078,50.763557,64,41,0
50.884853,50.95763,72,56,0
50.884853,50.95763,67,47,0
50.884853,50.95763,64,47,0
51.07893,51.150402,67,56,0
51.07893,51.150402,65,47,0
51.07893,51.150402,62,47,0
51.269527,51.3259,65,42,0
51.269527,51.3259,67,50,0
51.269527,51.3259,62,42,0
51.46849,51.547585,72,58,0
51.46849,51.547585,67,49,0
51.46849,51.547585,64,49,0
51.6794,52.12497,74,65,0
51.6794,52.12497,70,55,0
51.6794,52.12497,65,55,0
52.12497,52.34645,75,62,0
52.34645,52.557274,74,60,0
52.557274,53.184322,75,63,0
53.184322,53.386997,74,60,0
53.386997,54.009903,75,63,0
54.009903,54.211273,74,61,0
52.12497,54.630093,70,57,0
54.211273,54.8395,75,64,0
54.8395,55.043472,74,60,0
55.043472,55.244843,75,60,0
55.244843,55.45566,79,62,0
55.45566,55.659634,67,48,0
55.659634,55.863605,69,52,0
55.863605,56.067574,67,51,0
56.067574,56.271545,64,46,0
56.271545,56.476856,67,48,0
56.476856,56.68083,69,45,0
56.68083,56.8848,67,44,0
56.8848,57.060482,64,38,0
55.45566,57.060482,74,62,0
57.09562,57.30503,74,55,0
57.30503,57.51034,72,54,0
57.51034,58.13039,74,56,0
58.13039,58.333065,72,54,0
58.333065,58.951828,74,56,0
58.951828,59.1532,72,54,0
57.09562,59.572018,69,50,0
59.1532,59.778687,74,57,0
59.778687,59.980057,72,55,0
59.980057,60.1881,74,55,0
60.1881,60.401806,77,57,0
59.572018,60.401806,70,51,0
60.401806,60.605778,65,43,0
60.605778,60.809746,63,46,0
60.809746,61.013718,62,45,0
61.013718,61.21769,63,44,0
61.21769,61.421658,65,43,0
61.421658,61.62563,63,40,0
61.62563,61.8296,62,39,0
61.8296,62.23754,63,38,0
62.23754,62.441513,62,46,0
62.441513,62.645485,60,46,0
60.401806,62.849453,70,55,0
62.645485,63.06168,63,46,0
63.06168,63.267075,62,34,0
63.267075,63.475117,60,34,0
63.475117,63.6792,63,34,0
62.849453,63.7141,69,55,0
63.6792,63.888607,60,38,0
63.888607,64.09139,58,36,0
64.09139,64.29418,57,36,0
63.6792,64.53187,67,54,0
64.29418,64.706375,60,36,0
64.706375,64.90916,58,34,0
64.90916,65.111946,57,34,0
65.111946,65.31473,60,34,0
65.31473,65.52013,58,34,0
65.52013,65.715485,62,34,0
64.49696,65.715485,65,54,0
65.715485,65.91946,65,38,0
65.91946,66.12343,62,36,0
65.715485,66.1566,67,52,0
66.12343,66.1566,67,39,0
66.32245,66.51431,65,36,0
66.12343,66.548325,70,57,0
66.51431,66.548325,70,40,0
66.71839,66.92248,67,37,0
66.51431,66.92248,74,55,0
66.92248,67.12645,63,30,0
67.12645,67.32652,62,37,0
67.32652,67.5266,60,37,0
66.92248,67.76159,70,55,0
67.5266,67.9361,63,37,0
67.9361,68.13877,62,34,0
68.13877,68.34682,60,34,0
68.34682,68.54949,63,34,0
67.726685,68.58439,69,55,0
68.54949,68.7589,60,38,0
68.7589,68.961685,58,36,0
68.961685,69.16447,57,36,0
68.54949,69.40215,67,54,0
69.16447,69.57667,60,36,0
69.57667,69.77674,58,34,0
69.77674,69.979416,57,34,0
69.979416,70.1821,60,34,0
70.1821,70.38749,58,34,0
70.38749,70.582855,62,34,0
69.367256,70.582855,65,54,0
70.582855,70.78553,65,38,0
70.78553,70.988205,62,36,0
70.582855,71.02137,67,54,0
70.988205,71.02137,67,39,0
71.187225,71.37909,65,36,0
70.988205,71.41244,70,57,0
71.37909,71.41244,70,40,0
71.57917,71.77924,67,37,0
71.37909,71.81259,74,55,0
71.77924,71.979324,70,42,0
71.979324,72.179405,67,37,0
71.77924,72.21192,76,58,0
72.179405,72.37452,72,39,0
72.37452,72.569626,69,37,0
72.179405,72.569626,77,54,0
72.569626,72.76473,70,39,0
72.76473,72.95985,67,37,0
72.95985,73.15495,70,39,0
73.15495,73.35006,67,37,0
72.569626,73.35006,74,55,0
73.35006,73.552734,70,42,0
73.552734,73.75542,67,37,0
73.35006,73.789406,72,55,0
73.75542,73.95938,70,42,0
73.95938,74.16335,67,37,0
73.75542,74.196915,74,55,0
74.16335,74.196915,74,45,0
74.36472,74.56609,70,40,0
74.16335,74.56609,79,63,0
74.56609,74.770065,76,44,0
74.770065,74.97404,72,40,0
74.56609,74.97404,81,57,0
74.97404,75.172844,76,46,0
75.172844,75.37165,72,40,0
74.97404,75.37165,81,63,0
75.37165,75.57046,72,44,0
75.57046,75.769264,69,38,0
75.37165,75.769264,76,57,0
75.769264,75.96807,72,44,0
75.96807,76.16688,69,36,0
76.16688,76.37085,72,44,0
76.37085,76.57482,69,36,0
75.769264,76.57482,76,57,0
76.57482,76.7749,70,44,0
76.7749,76.97498,67,38,0
76.57482,77.0075,76,61,0
76.97498,77.17009,72,40,0
77.17009,77.3652,69,38,0
76.97498,77.3652,77,56,0
77.3652,77.56031,70,40,0
77.56031,77.75542,67,38,0
77.75542,77.95052,70,40,0
77.95052,78.14564,67,38,0
77.3652,78.14564,74,57,0
78.14564,78.34831,70,44,0
78.34831,78.55099,67,38,0
78.14564,78.58412,72,57,0
78.55099,78.749794,70,44,0
78.749794,78.9486,67,38,0
78.55099,78.9816,74,57,0
78.9486,78.9816,74,48,0
79.14657,79.344536,70,43,0
78.9486,79.344536,79,67,0
79.344536,79.54623,76,46,0
79.54623,79.747925,72,43,0
79.344536,79.747925,81,60,0
79.747925,79.94467,76,49,0
79.94467,80.14142,72,43,0
79.747925,80.14142,81,67,0
80.14142,80.33119,72,46,0
80.33119,80.52097,69,39,0
80.14142,80.52097,76,60,0
80.52097,80.7214,72,46,0
80.7214,80.92183,69,37,0
80.52097,80.92183,76,60,0
80.92183,81.11048,77,52,0
81.11048,81.29914,74,44,0
80.92183,81.29914,82,70,0
81.29914,81.49589,77,58,0
81.49589,81.692635,74,40,0
81.29914,81.692635,82,76,0
81.692635,81.88129,79,58,0
81.88129,82.06995,76,40,0
81.692635,82.06995,84,70,0
82.06995,82.26549,79,58,0
82.26549,82.46103,76,40,0
82.06995,82.46103,84,78,0
82.46103,82.65001,76,58,0
82.65001,82.837,72,40,0
82.46103,82.837,81,70,0
82.837,83.02398,76,58,0
83.02398,83.21097,72,40,0
82.837,83.21097,81,76,0
83.21097,83.39795,81,58,0
83.39795,83.58494,76,40,0
83.21097,83.58494,84,79,0
83.58494,83.77192,82,78,0
83.77192,83.95891,76,44,0
83.58494,83.95891,86,78,0
83.95891,84.15161,82,76,0
84.15161,84.344315,77,44,0
83.95891,84.344315,86,76,0
84.344315,84.5313,86,66,0
84.344315,84.5313,82,66,0
84.5313,84.718285,74,51,0
84.718285,84.90527,86,65,0
84.718285,84.90527,82,65,0
84.90527,85.092255,74,51,0
85.092255,85.27924,86,63,0
85.092255,85.27924,82,63,0
85.27924,85.46623,72,50,0
85.46623,85.64992,86,60,0
85.46623,85.64992,82,60,0
85.64992,85.8336,74,52,0
85.8336,86.02399,86,60,0
85.8336,86.02399,82,60,0
86.02399,86.21436,79,53,0
86.21436,86.397,86,60,0
86.21436,86.397,82,60,0
86.397,86.57964,81,52,0
86.57964,86.76773,86,59,0
86.57964,86.76773,82,59,0
86.76773,86.95582,81,45,0
86.95582,87.14971,86,57,0
86.95582,87.14971,82,57,0
87.14971,87.34361,76,43,0
87.34361,87.53751,86,49,0
87.34361,87.53751,82,49,0
87.53751,87.73141,76,39,0
87.73141,87.92531,86,47,0
87.73141,87.92531,82,47,0
87.92531,88.11921,76,38,0
88.11921,88.31929,82,50,0
88.31929,88.51937,76,34,0
88.11921,88.51937,86,69,0
88.51937,88.72468,82,49,0
88.72468,88.92999,77,34,0
88.51937,88.92999,86,67,0
88.92999,89.12754,86,58,0
88.92999,89.12754,82,58,0
89.12754,89.32509,74,37,0
89.32509,89.522644,86,57,0
89.32509,89.522644,82,57,0
89.522644,89.72019,74,37,0
89.72019,89.924164,86,51,0
89.72019,89.924164,82,51,0
89.924164,90.128136,72,35,0
90.128136,90.34477,86,48,0
90.128136,90.34477,82,48,0
90.34477,90.5253,74,33,0
90.56141,90.751785,88,44,0
90.56141,90.751785,83,44,0
90.751785,90.93656,76,38,0
90.93656,91.12134,76,38,0
90.93656,91.12134,71,38,0
91.12134,91.306114,64,38,0
91.306114,91.49649,69,45,0
91.306114,91.49649,76,45,0
91.49649,91.682365,64,42,0
91.682365,91.86824,64,45,0
91.682365,91.86824,57,45,0
91.86824,92.05411,52,42,0
92.05411,92.24449,64,47,0
92.05411,92.24449,59,47,0
92.24449,92.43037,52,45,0
92.43037,92.61624,64,48,0
92.43037,92.61624,59,48,0
92.61624,92.80211,52,46,0
92.80211,92.98798,64,50,0
92.80211,92.98798,60,50,0
92.98798,93.17386,52,47,0
93.17386,93.35973,64,50,0
93.17386,93.35973,60,50,0
93.35973,93.54561,52,48,0
93.54561,93.73483,62,49,0
93.54561,93.73483,64,49,0
93.73483,93.92406,52,47,0
93.92406,94.11796,64,49,0
93.92406,94.11796,60,49,0
94.11796,94.31186,52,47,0
94.31186,94.7252,65,41,0
94.7252,95.1676,69,39,0
94.31186,95.1676,62,41,0
94.31186,95.1676,59,41,0
95.1676,95.35799,88,44,0
95.1676,95.35799,83,44,0
95.35799,95.54276,76,38,0
95.54276,95.72753,76,38,0
95.54276,95.72753,71,38,0
95.72753,95.91231,64,38,0
95.91231,96.10269,76,45,0
95.91231,96.10269,69,45,0
96.10269,96.28856,64,42,0
96.28856,96.474434,57,45,0
96.28856,96.474434,64,45,0
96.474434,96.66031,52,42,0
96.66031,96.850685,64,46,0
96.66031,96.850685,59,46,0
96.850685,97.03656,52,43,0
97.03656,97.222435,64,46,0
97.03656,97.222435,59,46,0
97.222435,97.40831,52,43,0
97.40831,97.594185,64,45,0
97.40831,97.594185,60,45,0
97.594185,97.78005,52,41,0
97.78005,97.9716,64,44,0
97.78005,97.9716,60,44,0
97.9716,98.16315,52,41,0
98.16315,98.36712,64,41,0
98.16315,98.36712,62,41,0
98.36712,98.57109,52,39,0
98.57109,98.78924,62,40,0
98.57109,98.78924,64,40,0
98.78924,99.00739,52,38,0
99.00739,99.2509,64,39,0
99.2509,99.4944,52,34,0
99.4944,99.802414,64,36,0
99.802414,100.059074,52,32,0
100.059074,100.11006,69,44,0
100.06587,100.11686,64,37,0
100.06587,100.11686,60,37,0
100.26304,100.31243,71,42,0
100.460594,100.50906,72,44,0
100.65449,100.7072,74,43,0
100.86531,101.035286,71,44,0
101.06928,101.168686,71,39,0
101.168686,101.26809,72,39,0
101.26809,101.46079,71,44,0
101.46079,101.61999,69,44,0
101.67305,101.749054,71,48,0
101.67305,101.82506,64,34,0
101.67305,101.82506,60,34,0
102.0784,102.23976,72,43,0
102.50869,102.71536,71,45,0
102.71536,102.91673,72,43,0
102.50869,102.91673,60,37,0
102.50869,102.91673,64,37,0
102.91673,103.0155,74,45,0
103.11428,103.21306,76,43,0
103.31183,103.41061,78,45,0
103.509384,103.57323,78,43,0
103.57323,103.63708,79,41,0
103.63708,103.70093,78,41,0
103.70093,103.90101,76,45,0
103.90101,104.11042,74,43,0
104.11042,104.32706,72,45,0
104.32706,104.55306,74,41,0
104.55306,105.00507,76,41,0
105.00507,105.05606,81,44,0
105.209045,105.25722,83,42,0
105.40175,105.44877,84,44,0
105.589836,105.64254,86,43,0
105.80066,105.970634,83,44,0
106.00462,106.100975,83,39,0
106.100975,106.19733,84,39,0
106.19733,106.385414,83,44,0
106.385414,106.54461,81,44,0
106.59767,106.673676,83,48,0
107.00302,107.16438,84,43,0
105.00507,107.43331,74,37,0
107.43331,107.639984,83,45,0
107.639984,107.841354,84,43,0
107.841354,107.940125,86,45,0
108.0389,108.13768,88,43,0
108.23645,108.33523,90,45,0
108.434006,108.49785,90,43,0
108.49785,108.5617,91,41,0
108.5617,108.62555,90,41,0
108.62555,108.82563,88,45,0
108.82563,109.03504,86,43,0
109.03504,109.25168,84,45,0
109.25168,109.477684,86,41,0
107.43331,109.929695,74,37,0
109.477684,110.13237,88,41,0
110.13237,110.23054,86,42,0
109.929695,110.42687,83,30,0
110.328705,110.42687,83,41,0
110.52504,110.62321,81,41,0
109.929695,110.721375,79,30,0
109.929695,110.721375,74,30,0
110.721375,110.82206,83,44,0
110.922745,111.01969,79,41,0
111.116646,111.21359,76,41,0
111.31054,111.4132,74,41,0
111.515854,111.93194,72,46,0
111.93194,112.37751,69,38,0
111.515854,112.37751,67,31,0
111.515854,112.580185,76,31,0
112.580185,112.67835,74,42,0
112.37751,112.87469,71,30,0
112.77652,112.87469,71,41,0
112.972855,113.07102,69,41,0
112.37751,113.16919,62,30,0
112.37751,113.16919,67,30,0
113.16919,113.269875,71,44,0
113.37056,113.46751,67,41,0
113.56445,113.66141,64,41,0
113.758354,113.86169,62,41,0
113.96503,114.40132,60,44,0
114.40132,114.87369,57,38,0
113.96503,115.08173,64,30,0
115.08173,115.285706,66,40,0
115.285706,115.38148,67,40,0
115.47725,115.57924,69,40,0
115.68122,115.84903,64,43,0
115.88259,115.981995,64,39,0
115.981995,116.08078,66,39,0
116.08078,116.27468,64,43,0
116.27468,116.42669,62,39,0
116.477356,116.60652,64,44,0
116.89069,117.013405,67,44,0
114.87369,117.28336,55,35,0
117.28336,117.40922,67,44,0
117.28336,117.40922,62,44,0
117.28336,117.40922,71,44,0
117.686104,117.81196,69,41,0
117.686104,117.81196,64,41,0
117.686104,117.81196,60,41,0
119.69979,119.896736,81,77,0
119.896736,119.99371,79,70,0
119.99371,120.09068,77,70,0
120.09068,120.18766,76,70,0
120.18766,120.28464,74,70,0
120.28464,120.38161,72,70,0
120.38161,120.478584,71,70,0
119.69979,120.478584,69,77,0
120.478584,121.477974,69,77,0
121.461815,121.623436,72,65,0
121.65576,121.87459,71,68,0
121.85832,122.020935,74,65,0
122.05346,122.27101,72,68,0
122.254745,122.41736,76,65,0
122.44988,122.667435,74,67,0
122.65117,122.81378,77,68,0
122.846306,123.0667,76,71,0
123.05014,123.26549,72,61,0
123.24892,123.464264,71,59,0
123.4477,123.646484,67,55,0
122.05346,123.646484,65,58,0
123.646484,124.076096,62,55,0
123.646484,124.076096,65,55,0
124.076096,124.45456,67,55,0
124.076096,124.45456,64,55,0
124.50862,124.70557,81,77,0
124.70557,124.802536,79,70,0
124.802536,124.89951,77,70,0
124.89951,124.99649,76,70,0
124.99649,125.09346,74,70,0
125.09346,125.19044,72,70,0
125.19044,125.28741,71,70,0
124.50862,125.28741,69,77,0
125.28741,126.28434,69,77,0
126.26817,126.4298,72,65,0
126.46213,126.67836,71,68,0
126.6622,126.823784,74,65,0
126.8561,127.073654,72,68,0
127.05739,127.22,76,65,0
127.252525,127.47008,74,67,0
127.45381,127.616425,77,68,0
127.64895,127.86935,76,71,0
127.85278,128.06813,72,59,0
128.05156,128.2669,71,59,0
128.25034,128.44913,67,57,0
126.8561,128.44913,65,58,0
128.44913,128.87874,62,55,0
128.44913,128.87874,65,55,0
128.87874,129.26585,65,55,0
128.87874,129.26585,69,55,0
129.32115,129.5181,79,79,0
129.5181,129.61507,77,70,0
129.61507,129.71204,75,70,0
129.71204,129.80902,74,70,0
129.80902,129.90599,72,70,0
129.90599,130.00296,70,70,0
130.00296,130.09995,69,70,0
129.32115,130.09995,67,77,0
130.09995,131.09933,67,77,0
131.08316,131.2448,70,65,0
131.27711,131.49594,69,68,0
131.47968,131.64229,72,65,0
131.67482,131.89236,70,68,0
131.8761,132.03871,74,65,0
132.07124,132.28879,72,67,0
132.27252,132.43513,75,68,0
132.46767,132.68806,74,71,0
132.6715,132.88684,70,58,0
132.87027,133.08562,69,59,0
133.06906,133.26784,65,55,0
131.67482,133.26784,63,58,0
133.26784,133.69745,63,55,0
133.26784,133.69745,60,55,0
133.69745,134.07591,62,55,0
133.69745,134.07591,65,55,0
134.12997,134.32692,79,79,0
134.32692,134.42328,77,70,0
134.42328,134.51962,75,70,0
134.51962,134.61598,74,70,0
134.61598,134.71233,72,70,0
134.71233,134.80869,70,70,0
134.80869,134.90503,69,70,0
134.12997,134.90503,67,77,0
134.90503,135.90068,67,77,0
135.88452,136.04614,70,65,0
136.07848,136.2973,69,68,0
136.28104,136.44365,72,65,0
136.47617,136.69373,70,68,0
136.67746,136.84007,74,65,0
136.87259,137.09015,72,67,0
137.07388,137.2365,75,68,0
137.26901,137.48941,74,71,0
137.47285,137.68819,70,58,0
137.67163,137.88698,69,63,0
137.8704,138.06918,65,54,0
136.47617,138.06918,63,58,0
138.06918,138.49881,63,55,0
138.06918,138.49881,60,55,0
138.49881,138.81772,63,40,0
138.49881,138.81772,67,55,0
138.92038,139.5168,62,48,0
138.92038,139.5168,66,48,0
139.5168,139.6718,67,42,0
139.5168,139.6718,63,34,0
139.5168,139.6718,60,34,0
139.72346,140.31989,62,48,0
139.72346,140.31989,66,48,0
140.31989,140.46442,67,42,0
140.31989,140.46442,63,34,0
140.31989,140.46442,60,34,0
140.51259,140.9102,66,47,0
140.51259,140.9102,62,47,0
140.9102,141.32355,69,50,0
140.9102,141.32355,63,38,0
140.9102,141.32355,60,38,0
141.32355,141.73688,67,55,0
141.32355,141.73688,62,45,0
141.32355,141.73688,58,45,0
141.73688,141.93697,66,43,0
141.73688,141.93697,62,43,0
141.73688,141.93697,57,43,0
141.93697,142.13704,67,46,0
142.13704,142.93736,64,45,0
142.13704,143.14267,62,45,0
143.14267,143.34276,61,44,0
143.34276,143.5508,59,44,0
143.5508,143.75883,61,44,0
142.13704,143.75883,55,45,0
143.75883,144.16158,62,44,0
143.75883,144.16158,57,44,0
143.75883,144.16158,66,44,0
144.16158,144.5518,69,51,0
144.16158,144.5518,60,51,0
144.5518,145.36272,72,48,0
144.5518,145.36272,66,48,0
144.5518,145.36272,64,48,0
145.36272,145.77881,71,46,0
145.36272,145.77881,67,46,0
145.36272,145.77881,62,46,0
145.77881,146.19696,74,49,0
145.77881,146.19696,71,49,0
145.77881,146.19696,66,49,0
146.19696,147.0182,78,52,0
146.19696,147.0182,69,52,0
146.19696,147.0182,71,52,0
147.0182,147.42355,76,49,0
147.0182,147.42355,67,49,0
147.42355,147.81622,66,49,0
147.42355,147.81622,74,49,0
147.0182,147.81622,71,42,0
147.81622,148.02704,64,46,0
148.02704,148.23102,62,45,0
147.81622,148.23102,71,46,0
147.81622,148.23102,67,46,0
148.23102,148.44069,61,43,0
148.44069,148.64467,59,42,0
148.23102,148.64467,67,43,0
148.23102,148.64467,64,43,0
148.64467,149.24109,62,48,0
148.64467,149.24109,66,48,0
149.24109,149.39609,67,42,0
149.24109,149.39609,63,34,0
149.24109,149.39609,60,34,0
149.44775,150.04417,62,48,0
149.44775,150.04417,66,48,0
150.04417,150.1887,67,42,0
150.04417,150.1887,63,34,0
150.04417,150.1887,60,34,0
150.23688,150.63449,66,47,0
150.23688,150.63449,62,47,0
150.63449,151.04784,69,50,0
150.63449,151.04784,63,38,0
150.63449,151.04784,60,38,0
151.04784,151.46117,59,45,0
151.04784,151.46117,67,55,0
151.04784,151.46117,62,45,0
151.46117,151.66124,66,43,0
151.46117,151.66124,57,43,0
151.46117,151.66124,62,43,0
151.66124,151.86133,67,46,0
151.86133,152.23027,64,45,0
151.86133,152.23027,55,45,0
151.86133,152.23027,62,45,0
152.28297,152.69092,71,46,0
152.28297,152.69092,67,46,0
152.28297,152.69092,64,46,0
152.69092,153.09627,69,50,0
152.69092,153.09627,66,50,0
152.69092,153.09627,61,50,0
153.09627,153.50688,67,52,0
153.09627,153.50688,64,52,0
153.09627,153.50688,59,52,0
153.50688,153.86618,66,52,0
153.50688,153.86618,58,52,0
153.50688,153.86618,61,52,0
153.91751,154.32025,74,52,0
153.91751,154.32025,71,52,0
153.91751,154.32025,66,52,0
154.32025,154.72214,73,54,0
154.32025,154.72214,67,54,0
154.32025,154.72214,64,54,0
154.72214,155.1148,71,56,0
154.72214,155.1148,62,56,0
154.72214,155.1148,66,56,0
155.1148,155.51755,69,60,0
155.51755,155.84477,81,66,0
155.1148,155.95386,67,60,0
155.1148,155.95386,64,60,0
155.95386,156.55028,78,48,0
155.95386,156.55028,74,48,0
156.55028,156.64662,79,42,0
156.55028,156.64662,75,34,0
156.74298,157.3394,74,48,0
156.74298,157.3394,78,48,0
157.3394,157.43575,79,42,0
157.3394,157.43575,75,34,0
157.5321,157.87782,78,47,0
157.5321,157.87782,74,47,0
155.95386,157.87782,81,48,0
157.9272,158.33255,81,49,0
157.9272,158.33255,75,49,0
157.9272,158.33255,72,49,0
158.33255,158.7379,79,49,0
158.33255,158.7379,74,49,0
158.33255,158.7379,70,49,0
158.7379,158.93799,69,40,0
158.7379,158.93799,74,40,0
158.7379,158.93799,78,40,0
158.93799,159.13806,79,43,0
159.13806,159.93839,76,38,0
159.13806,159.93839,67,38,0
159.13806,159.93839,74,38,0
159.93839,160.75963,70,42,0
159.93839,160.75963,76,42,0
159.93839,160.75963,79,42,0
160.75963,161.16237,74,44,0
160.75963,161.16237,78,44,0
161.16237,161.57846,81,54,0
160.75963,161.57846,69,44,0
161.57846,162.38393,84,47,0
161.57846,162.38393,78,47,0
161.57846,162.38393,72,47,0
162.38393,162.80002,71,52,0
162.80002,163.23633,74,50,0
163.23633,164.08534,78,55,0
164.08534,164.49069,76,49,0
164.49069,164.93005,74,46,0
162.38393,164.93005,67,52,0
164.93005,165.39888,71,43,0
164.93005,165.39888,67,43,0
165.39888,165.90555,67,38,0
165.39888,165.90555,64,38,0
165.90555,166.82271,66,36,0
165.90555,166.82271,59,36,0
165.90555,166.82271,62,36,0
166.82271,167.259,64,38,0
166.82271,167.259,61,38,0
166.82271,167.259,56,38,0
167.259,167.68065,62,36,0
167.259,167.68065,59,36,0
167.259,167.68065,54,36,0
167.68065,168.11093,61,38,0
167.68065,168.11093,59,38,0
167.68065,168.11093,53,38,0
168.11093,168.51367,61,36,0
168.11093,168.91641,68,36,0
168.91641,169.04568,66,33,0
169.04568,169.17494,68,37,0
169.17494,169.30421,69,41,0
169.30421,169.7203,66,43,0
169.7203,170.52061,64,40,0
170.52061,170.89952,66,45,0
168.51367,170.93396,62,36,0
168.11093,170.93396,59,36,0
170.93396,171.7552,74,39,0
170.93396,171.7552,78,39,0
171.7552,172.1713,76,38,0
171.7552,172.1713,73,38,0
172.1713,172.57664,71,36,0
172.1713,172.57664,74,36,0
170.93396,172.57664,68,39,0
172.57664,172.99545,73,38,0
172.57664,172.99545,71,38,0
172.57664,172.99545,68,38,0
172.99545,173.42874,73,44,0
172.99545,173.83936,80,44,0
173.83936,174.24998,78,38,0
174.24998,174.67448,80,39,0
174.67448,175.1169,81,36,0
175.1169,175.62772,78,38,0
175.62772,177.0556,80,35,0
173.42874,177.0556,74,43,0
172.99545,177.0556,71,44,0
177.0556,177.96492,55,35,0
177.0556,177.96492,58,35,0
177.0556,177.96492,51,35,0
178.11545,179.03937,82,41,0
177.96819,179.03937,70,32,0
178.01727,179.03937,75,34,0
178.06636,179.03937,79,35,0
179.03937,180.92227,58,38,0
179.03937,180.92227,55,38,0
179.03937,180.92227,51,38,0
181.07373,182.00453,82,40,0
180.92557,182.00453,70,32,0
180.97495,182.00453,75,33,0
181.02434,182.00453,79,35,0
182.00453,183.13931,58,40,0
183.13931,183.33687,60,42,0
182.00453,183.33687,55,40,0
182.00453,183.33687,51,40,0
183.33687,183.53076,62,44,0
183.53076,183.7416,63,43,0
183.7416,183.91156,60,44,0
183.94556,184.04497,60,39,0
184.04497,184.14436,62,39,0
184.14436,184.2889,60,44,0
184.33707,184.49626,58,44,0
184.54932,184.60065,60,43,0
184.95995,185.01373,63,39,0
185.39024,185.59421,62,42,0
185.59421,185.79176,63,42,0
185.79176,185.98566,65,44,0
185.98566,186.19647,67,43,0
186.19647,186.36646,62,44,0
186.40045,186.49985,62,39,0
186.49985,186.59926,63,39,0
186.59926,186.74379,62,44,0
186.79196,186.95116,60,42,0
187.00421,187.21088,58,39,0
187.21088,187.41756,60,39,0
187.41756,187.84784,62,39,0
187.84784,188.05182,63,42,0
188.05182,188.24936,65,42,0
188.24936,188.44327,67,44,0
188.44327,188.65408,68,43,0
187.84784,188.65408,61,36,0
188.65408,188.82407,65,44,0
188.85806,188.95746,65,39,0
188.95746,189.05687,67,39,0
189.05687,189.20139,65,44,0
189.24957,189.40875,63,44,0
189.46182,189.51282,65,46,0
189.86977,189.92319,68,44,0
190.29718,190.50114,67,46,0
190.50114,190.6987,68,46,0
190.6987,190.8926,70,48,0
190.8926,191.10341,72,47,0
191.10341,191.27339,67,48,0
191.30739,191.40678,65,42,0
191.37366,191.43993,67,42,0
191.43993,191.5062,65,42,0
190.29718,191.5062,61,39,0
191.5062,191.65073,63,48,0
191.6989,191.85596,61,46,0
191.90831,192.11227,63,42,0
192.11227,192.31625,65,42,0
192.31625,192.74654,67,42,0
192.74654,192.9487,67,50,0
192.9487,193.14452,68,50,0
193.14452,193.3367,70,52,0
193.3367,193.54068,72,51,0
193.54068,193.70914,67,52,0
193.74283,193.84135,65,46,0
193.80852,193.8742,67,46,0
193.8742,193.9399,65,46,0
192.74654,193.9399,61,42,0
193.9399,194.08315,63,53,0
194.1309,194.28352,61,50,0
194.3344,194.53448,63,54,0
194.53448,194.73456,65,51,0
194.73456,195.14789,67,51,0
195.14789,195.34767,68,55,0
195.34767,195.54144,69,56,0
195.54144,195.73163,71,58,0
195.73163,195.93301,73,57,0
195.93301,196.09561,68,58,0
196.12813,196.22563,66,51,0
196.19313,196.25813,68,51,0
196.25813,196.32314,66,51,0
195.14789,196.32314,61,55,0
196.32314,196.46492,64,59,0
196.51218,196.66032,63,56,0
196.7097,196.90471,64,60,0
196.90471,197.09972,66,57,0
197.09972,197.69716,68,57,0
197.69716,197.88625,69,55,0
197.88625,198.0776,71,57,0
198.0776,198.26555,73,60,0
198.26555,198.45924,68,65,0
198.45924,198.64497,69,59,0
197.49988,198.64497,62,60,0
198.64497,198.83406,71,63,0
198.83406,199.01979,73,66,0
199.01979,199.21115,74,70,0
199.21115,199.39581,76,64,0
199.39581,199.58376,78,67,0
199.58376,199.767,80,69,0
199.95718,200.13464,73,58,0
200.13464,200.31615,74,58,0
199.767,200.31615,81,76,0
200.31615,200.49344,81,58,0
200.6781,200.85654,71,56,0
200.85654,201.0391,74,56,0
200.49344,201.0391,80,75,0
201.0391,201.21553,80,56,0
201.39809,201.57721,71,55,0
201.57721,201.75977,74,55,0
201.21553,201.75977,78,72,0
201.75977,201.93524,78,55,0
202.11674,202.2952,69,52,0
202.2952,202.47363,73,52,0
201.93524,202.47363,76,71,0
202.65208,202.83463,73,52,0
202.83463,203.01718,69,52,0
202.47363,203.01718,76,52,0
203.01718,203.19562,73,55,0
203.19562,203.37407,69,55,0
203.01718,203.37407,78,67,0
203.37407,203.55557,78,55,0
203.55557,203.73709,73,55,0
203.37407,203.73709,81,66,0
203.73709,203.92282,81,55,0
203.92282,204.11008,78,55,0
203.73709,204.11008,85,67,0
204.29721,204.47699,73,58,0
204.47699,204.6641,74,58,0
204.11008,204.6641,81,76,0
204.6641,204.84372,81,58,0
205.02972,205.21054,71,56,0
205.21054,205.39764,74,56,0
204.84372,205.39764,80,75,0
205.39764,205.57643,80,56,0
205.76244,205.94394,71,55,0
205.94394,206.12889,74,55,0
205.57643,206.12889,78,72,0
206.12889,206.30669,78,55,0
206.49379,206.67459,69,52,0
206.67459,206.85849,73,52,0
206.30669,206.85849,76,71,0
207.04237,207.22734,73,52,0
207.22734,207.4123,69,52,0
206.85849,207.4123,76,52,0
207.4123,207.59311,73,61,0
207.59311,207.77391,69,53,0
207.4123,207.77391,78,61,0
207.77391,207.95781,78,62,0
207.95781,208.1417,73,54,0
207.77391,208.1417,81,62,0
208.1417,208.32771,81,64,0
208.32771,208.48735,78,54,0
208.1417,208.48735,85,64,0
208.51927,208.70529,64,44,0
208.70529,208.8913,66,44,0
208.51927,208.8913,76,53,0
208.51927,208.8913,73,53,0
208.8913,209.07211,69,44,0
208.8913,209.2228,73,52,0
209.07211,209.23785,66,44,0
209.25291,209.43474,69,44,0
209.43474,209.61656,66,44,0
209.61656,209.79837,69,46,0
209.25291,209.94989,73,52,0
209.79837,209.96504,66,44,0
209.9802,210.16621,66,44,0
210.16621,210.35222,62,44,0
209.9802,210.35222,69,53,0
210.35222,210.531,69,44,0
210.531,210.7098,62,44,0
210.35222,210.7098,73,53,0
210.7098,210.8916,68,44,0
210.8916,211.07343,62,44,0
210.7098,211.07343,71,56,0
211.07343,211.2512,71,51,0
211.07343,211.2512,68,44,0
211.2512,211.429,69,48,0
211.2512,211.429,65,39,0
211.429,211.61183,68,44,0
211.61183,211.79399,62,44,0
211.79399,211.97247,68,44,0
211.97247,212.15096,62,44,0
211.429,212.15096,71,51,0
212.33574,212.52051,62,44,0
212.15096,212.52051,68,52,0
212.52051,212.7,68,48,0
212.7,212.87949,62,44,0
212.52051,212.87949,71,52,0
212.87949,213.06317,64,45,0
213.06317,213.24687,66,45,0
212.87949,213.24687,76,54,0
212.87949,213.24687,73,54,0
213.24687,213.42767,69,44,0
213.24687,213.57835,73,52,0
213.42767,213.59341,66,44,0
213.60849,213.7903,69,44,0
213.7903,213.97212,66,44,0
213.97212,214.15395,69,46,0
213.60849,214.30545,73,52,0
214.15395,214.3206,66,44,0
214.33575,214.52177,66,44,0
214.52177,214.70778,62,44,0
214.33575,214.70778,69,53,0
214.70778,214.88657,69,44,0
214.88657,215.06535,62,44,0
214.70778,215.06535,73,53,0
215.06535,215.24083,71,44,0
215.24083,215.4163,66,44,0
215.4163,215.5918,71,47,0
215.5918,215.76727,66,43,0
215.76727,215.94275,71,46,0
215.94275,216.11823,66,43,0
216.11823,216.29372,71,46,0
216.29372,216.4692,66,43,0
215.06535,216.4692,74,56,0
216.4692,216.65077,66,56,0
216.65077,216.83234,62,47,0
216.4692,216.83234,71,56,0
216.83234,217.01712,71,59,0
217.01712,217.1711,66,51,0
216.83234,217.1711,74,59,0
217.20189,217.38138,74,48,0
217.38138,217.56087,71,47,0
217.20189,217.56087,78,60,0
217.56087,217.73636,66,45,0
217.56087,217.88258,74,56,0
217.73636,217.8972,71,47,0
218.09132,218.27081,71,47,0
218.27081,218.4503,66,50,0
217.91183,218.59988,74,56,0
218.4503,218.61484,71,47,0
218.62979,218.81566,73,56,0
218.81566,219.00154,71,47,0
218.62979,219.00154,76,56,0
219.00154,219.18033,74,57,0
219.18033,219.3591,71,47,0
219.00154,219.3591,78,57,0
219.3591,219.53789,77,61,0
219.3591,219.71667,80,61,0
219.71667,219.89119,80,57,0
219.71667,219.89119,77,57,0
219.89119,220.06572,78,57,0
219.89119,220.06572,75,57,0
219.53789,220.06572,71,57,0
220.06572,220.2432,77,55,0
220.2432,220.39108,71,50,0
220.06572,220.39108,80,60,0
220.42065,220.6033,73,55,0
220.6033,220.78593,71,50,0
220.42065,220.78593,77,61,0
220.78593,220.96857,75,58,0
220.96857,221.15121,71,50,0
220.78593,221.15121,78,65,0
221.15121,221.3297,77,58,0
221.3297,221.50818,71,50,0
221.15121,221.50818,80,69,0
221.50818,221.68767,78,59,0
221.68767,221.86716,73,51,0
221.50818,221.86716,81,74,0
221.86716,222.04265,73,50,0
221.86716,222.19308,78,73,0
222.04265,222.20813,69,51,0
222.22318,222.40266,73,56,0
222.40266,222.58215,69,51,0
222.58215,222.76164,73,56,0
222.22318,222.91122,78,73,0
222.76164,222.92618,69,51,0
222.94113,223.127,78,78,0
223.127,223.31288,73,65,0
222.94113,223.31288,81,78,0
223.31288,223.508,81,79,0
223.508,223.7031,78,65,0
223.31288,223.7031,85,79,0
223.7031,223.88898,81,63,0
223.7031,223.88898,78,63,0
223.88898,224.07484,74,45,0
224.07484,224.25433,81,45,0
224.07484,224.25433,78,45,0
224.25433,224.43382,74,46,0
224.43382,224.61331,81,47,0
224.43382,224.61331,78,47,0
224.61331,224.7928,74,48,0
224.7928,224.97229,78,48,0
224.7928,224.97229,81,48,0
224.97229,225.15178,74,48,0
225.15178,225.33128,78,49,0
225.15178,225.33128,81,49,0
225.33128,225.51077,74,50,0
225.51077,225.69446,81,50,0
225.51077,225.69446,78,50,0
225.69446,225.87814,74,51,0
225.87814,226.05763,81,46,0
225.87814,226.05763,78,46,0
226.05763,226.23712,74,43,0
226.23712,226.41661,81,48,0
226.23712,226.41661,78,48,0
226.41661,226.5961,74,43,0
223.7031,226.5961,86,89,0
226.5961,226.77663,86,41,0
226.5961,226.77663,81,41,0
226.77663,226.95715,76,37,0
226.95715,227.13768,86,43,0
226.95715,227.13768,81,43,0
227.13768,227.3182,76,40,0
226.5961,227.3182,88,59,0
227.3182,227.5019,86,45,0
227.3182,227.5019,81,45,0
227.5019,227.6856,78,42,0
227.6856,227.86928,81,48,0
227.6856,227.86928,86,48,0
227.86928,228.05296,78,44,0
227.3182,228.05296,90,67,0
228.05296,228.23996,86,42,0
228.05296,228.23996,81,42,0
228.23996,228.42694,78,38,0
228.42694,228.60747,86,42,0
228.42694,228.60747,81,42,0
228.60747,228.788,78,37,0
228.788,228.96852,86,39,0
228.788,228.96852,81,39,0
228.96852,229.14905,78,36,0
229.14905,229.32957,86,38,0
229.14905,229.32957,81,38,0
229.32957,229.5101,78,34,0
229.5101,229.69063,86,36,0
229.5101,229.69063,81,36,0
229.69063,229.87115,78,32,0
229.87115,230.06038,86,34,0
229.87115,230.06038,81,34,0
230.06038,230.2496,78,31,0
230.2496,230.43225,81,35,0
230.2496,230.43225,86,35,0
230.43225,230.61488,78,34,0
230.61488,230.79752,81,33,0
230.61488,230.79752,86,33,0
230.79752,230.98016,78,34,0
228.05296,230.98016,90,69,0
230.98016,231.1628,81,33,0
230.98016,231.1628,78,33,0
231.1628,231.34543,74,30,0
231.34543,231.52808,81,28,0
231.34543,231.52808,78,28,0
231.52808,231.71071,74,30,0
230.98016,231.71071,86,49,0
231.71071,231.89334,86,33,0
231.71071,231.89334,83,33,0
231.89334,232.07599,78,30,0
232.07599,232.25862,86,28,0
232.07599,232.25862,83,28,0
232.25862,232.47879,78,30,0
231.71071,232.47879,90,52,0
232.47879,232.61493,81,41,0
232.47879,232.61493,88,41,0
232.47879,232.61493,93,41,0
232.84186,233.00461,69,33,0
232.84186,233.00461,64,33,0
233.00461,233.1831,62,33,0
233.1831,233.22902,64,37,0
233.1831,233.22902,69,37,0
233.55048,233.64232,69,33,0
233.55048,233.64232,64,33,0
234.2789,234.36917,71,34,0
234.2789,234.36917,79,34,0
234.2789,234.36917,83,34,0
234.63997,234.73235,72,41,0
234.63997,234.73235,79,41,0
234.63997,234.73235,84,41,0
235.0095,235.17227,72,33,0
235.0095,235.17227,67,33,0
235.17227,235.35075,65,33,0
235.35075,235.39668,72,36,0
235.35075,235.39668,67,36,0
235.71814,235.80998,72,33,0
235.71814,235.80998,67,33,0
236.44449,236.53424,71,34,0
236.44449,236.53424,79,34,0
236.44449,236.53424,83,34,0
236.80347,236.89586,69,40,0
236.80347,236.89586,76,40,0
236.80347,236.89586,81,40,0
237.17302,237.33578,69,33,0
237.17302,237.33578,64,33,0
237.33578,237.51427,64,33,0
237.51427,237.5602,69,36,0
237.51427,237.5602,64,36,0
237.88165,237.9735,69,32,0
237.88165,237.9735,64,32,0
238.61008,238.70035,71,37,0
238.61008,238.70035,79,37,0
238.61008,238.70035,83,37,0
238.97113,239.06352,72,41,0
238.97113,239.06352,79,41,0
238.97113,239.06352,84,41,0
239.34068,239.50345,72,32,0
239.34068,239.50345,67,32,0
239.50345,239.68193,65,32,0
239.68193,239.72784,72,35,0
239.68193,239.72784,67,35,0
240.0493,240.14114,72,32,0
240.0493,240.14114,67,32,0
240.79065,240.892,71,33,0
240.79065,240.892,79,33,0
240.79065,240.892,83,33,0
241.196,241.29295,83,35,0
241.196,241.29295,79,35,0
241.196,241.29295,71,35,0
243.60336,244.49626,64,51,0
244.49626,244.56792,65,33,0
244.56792,244.6398,67,33,0
244.6398,244.71191,69,33,0
244.71191,244.78404,71,33,0
244.78404,244.85663,72,33,0
244.85663,244.92921,74,33,0
244.92921,245.00206,76,33,0
245.00206,245.07513,77,33,0
245.07513,245.14821,79,33,0
245.14821,245.22176,81,33,0
245.22176,245.29532,83,33,0
245.29532,245.36896,84,33,0
245.36896,245.44295,86,33,0
245.44295,245.51802,88,33,0
245.51802,245.59416,89,33,0
245.59416,245.67116,91,33,0
245.67116,245.74901,93,33,0
245.74901,245.82805,95,33,0
245.82805,245.90828,96,33,0
245.90828,245.98914,98,33,0
245.98914,246.07127,100,33,0
246.07127,246.1547,101,33,0
246.1547,246.23949,103,33,0
246.23949,246.64754,105,38,0
248.68724,248.8912,57,27,0
0.0,0.052011125,57,48,0
0.0,0.052011125,50,48,0
0.41201526,0.46140286,53,48,0
0.41201526,0.46140286,60,48,0
0.8232715,1.0259467,50,48,0
1.641801,1.7203295,50,48,0
2.4909124,2.9029276,45,48,0
3.3030877,3.6933413,38,45,0
4.102831,4.52165,45,48,0
4.940469,5.352484,40,48,0
5.7600884,6.16937,52,48,0
6.16937,6.5876,57,51,0
6.5876,6.7942686,40,48,0
7.4312296,8.058721,59,54,0
8.058721,8.266766,60,54,0
8.266766,8.8912115,59,51,0
8.8912115,9.097879,60,48,0
9.097879,9.714048,62,51,0
9.714048,9.948461,64,48,0
7.4312296,9.948461,52,54,0
9.948461,10.767138,53,42,0
9.948461,10.767138,60,42,0
9.948461,10.767138,69,42,0
10.767138,11.599398,55,34,0
10.767138,11.599398,62,34,0
10.767138,11.599398,65,34,0
11.599398,12.420772,64,38,0
11.599398,12.420772,55,38,0
11.599398,12.420772,48,38,0
12.420772,12.841071,60,36,0
12.420772,12.841071,57,36,0
12.420772,12.841071,53,36,0
12.841071,13.222486,62,34,0
12.841071,13.222486,57,34,0
12.841071,13.222486,50,34,0
13.25716,14.06668,48,48,0
13.25716,14.06668,57,48,0
13.25716,14.06668,41,48,0
14.06668,14.894793,50,39,0
14.06668,14.894793,58,39,0
14.06668,14.894793,43,39,0
14.894793,15.714809,60,43,0
14.894793,15.714809,55,43,0
14.894793,15.714809,48,43,0
15.714809,16.349146,60,38,0
15.714809,16.349146,53,38,0
16.349146,16.552013,52,43,0
16.552013,17.177982,50,45,0
17.177982,17.38085,48,45,0
16.552013,17.38085,53,45,0
17.38085,17.997396,47,48,0
17.997396,18.200264,45,50,0
18.200264,18.814186,43,54,0
18.814186,19.012024,45,57,0
17.38085,19.417759,53,48,0
19.417759,19.620626,55,48,0
19.620626,19.828814,52,48,0
19.012024,19.828814,47,62,0
19.828814,20.445337,47,52,0
20.445337,20.646923,45,49,0
20.646923,21.258215,43,54,0
21.258215,21.454834,45,55,0
19.828814,22.063435,53,52,0
22.063435,22.271624,55,52,0
21.454834,22.271624,47,61,0
22.271624,22.478397,56,45,0
22.478397,22.683708,54,43,0
22.683708,22.889019,52,43,0
22.889019,23.09433,54,43,0
23.09433,23.297005,56,46,0
22.271624,24.703876,48,45,0
24.703876,24.91192,56,44,0
24.91192,25.119967,54,40,0
25.119967,25.32801,52,40,0
25.32801,25.536055,54,40,0
25.536055,25.744099,56,44,0
24.703876,27.252274,47,44,0
27.252274,27.304283,38,44,0
27.660397,27.709785,53,39,0
27.660397,27.709785,45,39,0
28.071653,28.275625,38,44,0
28.474432,28.522608,45,39,0
28.474432,28.522608,53,39,0
28.879389,28.955393,38,44,0
29.284739,29.338526,45,44,0
29.284739,29.338526,53,44,0
29.715033,29.766699,38,44,0
30.12307,30.172457,45,39,0
30.12307,30.172457,54,39,0
30.518171,30.715721,38,44,0
30.90962,30.959007,45,39,0
30.90962,30.959007,54,39,0
31.311142,31.513817,38,44,0
31.716492,31.768845,45,39,0
31.716492,31.768845,54,39,0
32.13531,32.18732,38,44,0
32.543434,32.592823,53,39,0
32.543434,32.592823,45,39,0
32.954693,33.15866,38,45,0
33.357468,33.405643,45,42,0
33.357468,33.405643,53,42,0
33.76243,33.83843,38,48,0
34.167778,34.221565,45,49,0
34.167778,34.221565,53,49,0
34.59807,34.64974,38,50,0
35.006107,35.10488,62,50,0
35.20366,35.302433,64,48,0
35.401207,35.499985,66,50,0
35.59876,35.66261,66,48,0
35.66261,35.726456,67,46,0
35.726456,35.790306,66,46,0
35.790306,35.990387,64,50,0
35.990387,36.199795,62,48,0
36.199795,36.403767,60,50,0
36.403767,36.61747,62,46,0
37.03629,37.23766,60,50,0
37.03629,37.23766,57,45,0
37.23766,37.44297,62,46,0
36.61747,37.44297,64,46,0
37.44297,37.816917,64,46,0
37.44297,37.816917,59,40,0
37.44297,37.816917,55,40,0
37.85091,38.05359,57,44,0
38.05359,38.26441,59,43,0
37.85091,38.26441,54,40,0
38.26441,38.677746,56,39,0
38.26441,38.677746,53,39,0
38.26441,39.06688,60,44,0
38.677746,39.102257,55,39,0
38.677746,39.102257,52,39,0
39.102257,39.51559,54,34,0
39.102257,39.51559,51,34,0
39.51559,39.92893,53,33,0
39.51559,39.92893,50,33,0
39.102257,39.92893,56,38,0
39.92893,40.35803,49,33,0
40.35803,40.520634,48,33,0
40.794086,40.959484,47,32,0
41.23731,41.42578,50,31,0
41.23731,41.42578,46,31,0
41.739902,41.960102,40,37,0
39.92893,42.327103,52,33,0
42.327103,42.78414,33,34,0
42.834618,42.910088,57,44,0
43.035877,43.10908,52,38,0
43.231087,43.286396,52,38,0
43.4263,43.500843,57,38,0
43.62508,43.699623,57,44,0
43.82386,43.896618,52,44,0
44.017883,44.073864,52,39,0
44.21546,44.29236,45,42,0
44.420517,44.482327,40,49,0
44.85678,45.250294,33,68,0
45.267403,45.342205,57,44,0
45.46687,45.538265,52,38,0
45.65725,45.711193,52,38,0
45.84763,45.92151,57,38,0
46.044636,46.11851,57,44,0
46.241642,46.312603,52,44,0
46.430866,46.48774,52,39,0
46.63159,46.710304,45,46,0
46.8415,46.903744,43,51,0
47.280865,47.67698,36,69,0
47.694202,47.768795,60,49,0
47.893116,47.964508,55,42,0
48.083496,48.137436,55,42,0
48.273872,48.34755,60,42,0
48.470337,48.54401,60,49,0
48.6668,48.737762,55,49,0
48.85603,48.913097,55,43,0
49.057453,49.135937,48,51,0
49.266743,49.328472,43,56,0
49.702473,50.095985,36,75,0
50.113094,50.18678,60,56,0
50.309586,50.381058,55,48,0
50.500183,50.554184,55,48,0
50.69078,50.763557,60,48,0
50.884853,50.95763,60,56,0
51.07893,51.150402,55,56,0
51.269527,51.3259,55,49,0
51.46849,51.547585,60,58,0
51.6794,52.12497,58,65,0
52.12497,52.768097,63,57,0
52.12497,52.768097,67,57,0
52.768097,52.972065,65,52,0
52.768097,52.972065,58,52,0
52.972065,53.597816,67,57,0
52.972065,53.597816,63,57,0
53.597816,53.800495,69,52,0
53.597816,53.800495,65,52,0
53.800495,54.42068,67,58,0
53.800495,54.42068,63,58,0
54.42068,54.630093,58,54,0
54.42068,54.630093,65,54,0
54.630093,55.45566,67,57,0
54.630093,55.45566,57,57,0
55.45566,57.060482,57,52,0
55.45566,57.060482,50,52,0
57.09562,57.71701,62,51,0
57.09562,57.71701,65,51,0
57.71701,57.92098,64,46,0
57.71701,57.92098,57,46,0
57.92098,58.54111,65,51,0
57.92098,58.54111,62,51,0
58.54111,58.743786,67,46,0
58.54111,58.743786,64,46,0
58.743786,59.362606,65,52,0
58.743786,59.362606,62,52,0
59.362606,59.572018,57,48,0
59.362606,59.572018,64,48,0
59.572018,60.401806,65,51,0
59.572018,60.401806,55,51,0
60.401806,62.03357,48,46,0
60.401806,62.849453,55,46,0
62.849453,63.7141,53,38,0
63.6792,64.53187,51,38,0
64.49696,65.715485,50,38,0
65.715485,66.1566,53,39,0
66.12343,66.548325,55,40,0
66.51431,66.92248,58,38,0
62.03357,66.92248,41,46,0
67.726685,68.58439,53,38,0
68.54949,69.40215,51,38,0
69.367256,70.582855,50,38,0
70.582855,71.02137,53,39,0
70.988205,71.41244,55,40,0
71.37909,71.77924,58,39,0
66.92248,71.77924,41,46,0
72.179405,72.569626,65,39,0
72.179405,72.569626,60,39,0
72.179405,72.569626,57,39,0
71.77924,72.95985,43,50,0
72.95985,73.35006,41,48,0
72.569626,73.35006,55,39,0
72.569626,73.35006,62,39,0
72.569626,73.35006,58,39,0
73.35006,73.75542,40,50,0
73.75542,74.16335,38,52,0
74.56609,74.97404,60,40,0
74.56609,74.97404,64,40,0
74.56609,74.97404,69,40,0
74.97404,75.37165,69,44,0
74.97404,75.37165,64,44,0
74.97404,75.37165,60,44,0
75.37165,75.769264,60,40,0
75.37165,75.769264,57,40,0
75.37165,75.769264,64,40,0
75.769264,76.57482,64,40,0
74.16335,76.57482,36,57,0
75.769264,76.57482,57,40,0
75.769264,76.57482,60,40,0
76.97498,77.3652,65,40,0
76.97498,77.3652,60,40,0
76.97498,77.3652,57,40,0
76.57482,77.75542,43,52,0
77.75542,78.14564,41,50,0
77.3652,78.14564,55,40,0
77.3652,78.14564,62,40,0
77.3652,78.14564,58,40,0
78.14564,78.55099,40,52,0
78.55099,78.9486,38,55,0
79.344536,79.747925,60,43,0
79.344536,79.747925,64,43,0
79.344536,79.747925,69,43,0
79.747925,80.14142,69,46,0
79.747925,80.14142,64,46,0
79.747925,80.14142,60,46,0
80.14142,80.52097,60,43,0
80.14142,80.52097,57,43,0
80.14142,80.52097,64,43,0
80.52097,80.92183,64,45,0
80.52097,80.92183,60,45,0
80.52097,80.92183,57,45,0
80.92183,81.29914,65,48,0
80.92183,81.29914,62,48,0
80.92183,81.29914,70,48,0
81.29914,81.692635,70,52,0
81.29914,81.692635,65,52,0
81.29914,81.692635,62,52,0
81.692635,82.06995,72,48,0
81.692635,82.06995,67,48,0
81.692635,82.06995,64,48,0
82.06995,82.46103,72,52,0
82.06995,82.46103,67,52,0
82.06995,82.46103,64,52,0
82.46103,82.837,69,48,0
82.46103,82.837,64,48,0
82.46103,82.837,60,48,0
82.837,83.21097,69,52,0
82.837,83.21097,64,52,0
82.837,83.21097,60,52,0
83.21097,83.58494,72,56,0
78.9486,83.58494,36,60,0
83.21097,83.58494,64,56,0
83.21097,83.58494,69,56,0
83.95891,84.344315,65,71,0
84.344315,85.092255,62,74,0
85.092255,85.46623,60,68,0
85.46623,85.8336,62,63,0
84.344315,85.8336,55,44,0
83.58494,85.8336,34,66,0
83.58494,85.8336,41,66,0
84.344315,85.8336,58,44,0
85.8336,86.21436,67,67,0
86.21436,86.57964,69,58,0
86.57964,86.95582,69,60,0
86.95582,87.34361,64,58,0
87.34361,88.11921,64,57,0
85.8336,88.11921,62,44,0
85.8336,88.11921,58,44,0
88.51937,88.92999,65,49,0
88.92999,89.72019,62,49,0
89.72019,90.128136,60,47,0
90.128136,90.5253,62,44,0
88.92999,90.56141,53,29,0
88.11921,90.56141,34,52,0
88.11921,90.56141,41,52,0
88.92999,90.56141,58,29,0
90.56141,91.306114,40,40,0
90.56141,91.306114,28,40,0
91.306114,92.05411,41,42,0
91.306114,92.05411,29,42,0
92.05411,92.80211,43,45,0
92.05411,92.80211,31,45,0
92.80211,93.54561,45,47,0
92.80211,93.54561,33,47,0
93.54561,93.92406,47,42,0
93.54561,93.92406,35,42,0
93.92406,94.31186,45,42,0
93.92406,94.31186,33,42,0
94.31186,94.7252,43,40,0
94.31186,94.7252,31,40,0
94.7252,95.1676,41,39,0
94.7252,95.1676,29,39,0
95.1676,95.91231,40,40,0
95.1676,95.91231,28,40,0
95.91231,96.66031,41,42,0
95.91231,96.66031,29,42,0
96.66031,97.40831,43,42,0
96.66031,97.40831,31,42,0
97.40831,98.16315,45,36,0
97.40831,98.16315,33,36,0
98.16315,99.00739,35,32,0
98.16315,99.00739,47,32,0
99.00739,100.059074,48,29,0
99.00739,100.059074,36,29,0
100.059074,100.11006,54,37,0
99.95641,100.11006,38,29,0
100.007744,100.11006,45,33,0
101.67305,101.875725,54,35,0
101.61999,101.875725,45,32,0
101.566925,101.875725,38,27,0
102.50869,102.560356,54,37,0
102.4549,102.560356,45,37,0
102.401115,102.560356,38,37,0
103.31183,103.36122,69,39,0
104.11042,104.16457,62,39,0
105.00507,107.43331,65,37,0
107.43331,108.23645,66,37,0
108.23645,109.03504,69,37,0
105.00507,109.03504,62,33,0
105.00507,109.03504,60,33,0
109.03504,109.25168,50,37,0
109.87319,110.27962,62,35,0
109.929695,110.328705,71,37,0
109.81669,110.328705,55,31,0
111.515854,112.37751,55,32,0
111.515854,112.37751,48,32,0
111.515854,112.37751,64,32,0
112.37751,112.77652,59,37,0
112.26611,112.77652,43,37,0
112.321815,112.77652,50,37,0
113.96503,114.40132,45,32,0
114.40132,114.87369,42,32,0
113.96503,116.477356,48,32,0
116.477356,117.28336,47,32,0
114.87369,117.28336,40,32,0
117.28336,117.686104,45,39,0
117.28336,117.686104,33,39,0
118.08884,118.2147,57,44,0
118.49158,118.61743,52,41,0
118.89432,119.04534,45,51,0
119.29706,119.44808,43,50,0
120.67613,120.77311,67,69,0
120.77311,120.87008,65,69,0
120.87008,120.96706,64,69,0
120.96706,121.06403,62,69,0
121.06403,121.161,60,69,0
121.161,121.25798,59,69,0
121.25798,121.65576,57,77,0
121.65576,122.05346,55,68,0
119.69979,122.05346,41,77,0
119.69979,122.05346,29,77,0
122.05346,122.44988,57,71,0
122.44988,122.846306,59,66,0
122.846306,123.24892,60,63,0
123.24892,123.646484,62,62,0
123.646484,124.076096,59,55,0
124.076096,124.29236,57,53,0
124.29236,124.50862,55,50,0
125.48496,125.58193,67,69,0
125.58193,125.67891,65,69,0
125.67891,125.77589,64,69,0
125.77589,125.872856,62,69,0
125.872856,125.96983,60,69,0
125.96983,126.0668,59,69,0
126.0668,126.46213,57,77,0
126.46213,126.8561,55,68,0
124.50862,126.8561,41,77,0
124.50862,126.8561,29,77,0
126.8561,127.252525,57,71,0
127.252525,127.64895,59,66,0
127.64895,128.05156,60,63,0
128.05156,128.44913,62,62,0
128.44913,128.87874,57,55,0
128.87874,129.09995,55,53,0
129.09995,129.32115,53,50,0
130.29749,130.39447,65,69,0
130.39447,130.49144,63,69,0
130.49144,130.58841,62,69,0
130.58841,130.6854,60,69,0
130.6854,130.78236,58,69,0
130.78236,130.87933,57,69,0
130.87933,131.27711,55,77,0
131.27711,131.67482,53,68,0
129.32115,131.67482,39,81,0
129.32115,131.67482,27,81,0
131.67482,132.07124,55,71,0
132.07124,132.46767,57,66,0
132.46767,132.87027,58,63,0
132.87027,133.26784,60,62,0
133.26784,133.69745,57,55,0
133.69745,133.91371,55,53,0
133.91371,134.12997,53,50,0
135.10258,135.19893,65,69,0
135.19893,135.29529,63,69,0
135.29529,135.39163,62,69,0
135.39163,135.48799,60,69,0
135.48799,135.58434,58,69,0
135.58434,135.6807,57,69,0
135.6807,136.07848,55,77,0
136.07848,136.47617,53,68,0
134.12997,136.47617,39,81,0
134.12997,136.47617,27,81,0
136.47617,136.87259,55,71,0
136.87259,137.26901,57,66,0
137.26901,137.67163,58,63,0
137.67163,138.06918,60,62,0
138.06918,138.49881,57,55,0
138.49881,138.71507,58,53,0
138.71507,138.92038,60,50,0
138.92038,139.5168,57,46,0
138.92038,139.5168,50,46,0
139.5168,139.6718,45,41,0
139.72346,140.31989,57,46,0
139.72346,140.31989,50,46,0
140.31989,140.51259,45,42,0
140.51259,140.9102,57,45,0
140.51259,140.9102,50,45,0
140.9102,141.32355,42,49,0
141.32355,141.73688,43,52,0
141.73688,142.13704,45,45,0
142.13704,142.93736,46,42,0
142.93736,143.75883,45,43,0
143.75883,145.25659,50,45,0
145.36272,146.08476,59,44,0
145.30966,146.08476,50,39,0
145.25659,146.08476,43,36,0
146.19696,147.81622,47,48,0
146.14085,147.81622,55,44,0
146.08476,147.81622,40,40,0
147.81622,148.64467,45,40,0
148.64467,149.24109,57,46,0
148.64467,149.24109,50,46,0
149.24109,149.39609,45,41,0
149.44775,150.04417,57,46,0
149.44775,150.04417,50,46,0
150.04417,150.23688,45,42,0
150.23688,150.63449,57,45,0
150.23688,150.63449,50,45,0
150.63449,151.04784,42,49,0
151.04784,151.46117,43,52,0
151.46117,151.86133,45,45,0
151.86133,152.23027,47,45,0
152.28297,152.69092,49,48,0
152.69092,153.09627,50,51,0
153.09627,153.50688,52,51,0
153.50688,153.86618,54,51,0
153.91751,154.32025,55,50,0
154.32025,154.72214,57,52,0
154.72214,155.1148,59,54,0
155.1148,155.95386,61,57,0
155.95386,156.05325,69,43,0
155.95386,156.05325,62,43,0
156.35147,156.45087,57,35,0
156.74298,156.84238,50,42,0
157.1406,157.23999,57,37,0
157.5321,157.63087,62,43,0
157.9272,158.33255,54,36,0
157.9272,158.33255,69,36,0
157.9272,158.33255,63,36,0
157.9272,158.33255,60,36,0
158.33255,158.7379,55,36,0
158.33255,158.7379,67,36,0
158.33255,158.7379,62,36,0
158.33255,158.7379,58,36,0
158.7379,159.13806,57,35,0
158.7379,159.13806,62,35,0
158.7379,159.13806,66,35,0
159.13806,159.93839,58,34,0
159.13806,159.93839,62,34,0
159.13806,159.93839,64,34,0
159.93839,160.75963,61,36,0
159.93839,160.75963,64,36,0
159.93839,160.75963,67,36,0
161.57846,162.38393,57,38,0
160.75963,162.38393,62,42,0
160.75963,162.38393,66,42,0
162.38393,163.23633,55,36,0
162.38393,164.93005,59,36,0
164.93005,165.90555,61,38,0
163.23633,165.90555,45,37,0
163.23633,165.90555,52,37,0
165.90555,166.82271,44,38,0
166.82271,167.259,45,39,0
167.259,167.68065,47,38,0
167.68065,168.11093,49,39,0
168.11093,168.3123,51,37,0
168.3123,168.51367,53,40,0
168.51367,169.30421,54,45,0
169.30421,170.12047,56,36,0
170.12047,170.89952,57,38,0
170.93396,171.7552,59,38,0
171.7552,172.1713,61,39,0
172.1713,172.57664,62,38,0
172.57664,172.99545,64,39,0
172.99545,173.42874,65,39,0
173.42874,177.0556,66,39,0
177.0556,177.96819,46,35,0
177.0556,177.96819,34,35,0
178.11545,179.0259,67,40,0
178.06636,179.03168,63,35,0
178.01727,179.03552,58,33,0
177.96819,179.03552,55,31,0
180.02882,180.92557,34,44,0
179.03937,180.92557,46,38,0
181.07373,181.99872,67,41,0
181.02434,181.99872,63,35,0
180.97495,182.00066,58,33,0
180.92557,182.00066,55,31,0
182.93535,183.33687,34,41,0
182.00453,183.33687,46,41,0
183.7416,184.14436,55,36,0
183.7416,184.14436,51,36,0
184.54932,184.65198,75,33,0
184.54932,184.65198,72,33,0
184.54932,184.65198,67,33,0
185.39024,185.79176,34,41,0
185.39024,185.79176,46,41,0
186.19647,186.59926,55,36,0
186.19647,186.59926,50,36,0
186.19647,186.59926,58,36,0
187.00421,187.10754,74,33,0
187.00421,187.10754,70,33,0
187.00421,187.10754,67,33,0
187.84784,188.65408,55,36,0
188.65408,189.46182,56,38,0
189.46182,189.51282,73,36,0
189.46182,189.51282,77,36,0
189.46182,189.51282,68,36,0
187.84784,190.29718,46,41,0
190.29718,191.10341,51,41,0
190.29718,191.10341,46,41,0
191.10341,191.5062,73,36,0
191.10341,191.5062,75,36,0
192.74654,193.54068,46,45,0
191.90831,193.54068,51,41,0
193.54068,193.9399,73,40,0
193.54068,193.9399,75,40,0
194.3344,195.14789,51,47,0
195.14789,195.93301,42,52,0
195.14789,195.93301,52,52,0
195.93301,196.32314,73,45,0
195.93301,196.32314,76,45,0
197.49988,197.88625,40,60,0
196.7097,197.88625,52,52,0
198.26555,198.64497,76,46,0
198.26555,198.64497,74,46,0
199.58376,199.767,40,65,0
199.01979,199.767,52,54,0
199.767,200.49344,69,56,0
199.767,200.49344,61,56,0
199.767,200.49344,62,56,0
200.49344,201.21553,59,53,0
200.49344,201.21553,62,53,0
200.49344,201.21553,68,53,0
201.21553,201.93524,56,48,0
201.21553,201.93524,62,48,0
201.21553,201.93524,66,48,0
201.93524,203.01718,57,47,0
201.93524,203.01718,64,47,0
201.93524,203.01718,61,47,0
203.01718,203.37407,66,54,0
203.01718,203.37407,61,54,0
203.01718,203.37407,57,54,0
203.37407,203.73709,69,54,0
203.37407,203.73709,66,54,0
203.37407,203.73709,61,54,0
203.73709,204.11008,73,54,0
202.65208,204.11008,40,64,0
203.73709,204.11008,66,54,0
203.73709,204.11008,69,54,0
204.11008,204.84372,69,56,0
204.11008,204.84372,61,56,0
204.11008,204.84372,62,56,0
204.84372,205.57643,59,53,0
204.84372,205.57643,62,53,0
204.84372,205.57643,68,53,0
205.57643,206.30669,56,48,0
205.57643,206.30669,62,48,0
205.57643,206.30669,66,48,0
206.30669,207.4123,57,47,0
206.30669,207.4123,64,47,0
206.30669,207.4123,61,47,0
207.4123,207.77391,54,49,0
207.77391,208.1417,57,52,0
208.1417,208.48735,61,54,0
207.04237,208.48735,40,64,0
208.8913,209.25291,61,56,0
209.25291,209.9802,61,48,0
209.25291,209.9802,54,48,0
209.25291,209.9802,57,48,0
208.51927,210.7098,45,56,0
209.9802,210.7098,45,52,0
208.51927,210.7098,38,56,0
211.07343,211.2512,59,43,0
211.07343,211.2512,56,43,0
211.2512,211.429,57,40,0
210.7098,211.429,32,53,0
210.7098,211.429,44,53,0
211.2512,211.429,53,36,0
211.429,212.15096,59,43,0
211.429,212.15096,56,43,0
211.429,212.15096,50,43,0
212.15096,212.87949,44,45,0
213.24687,213.60849,61,56,0
212.87949,213.60849,45,57,0
212.87949,213.60849,38,57,0
213.60849,214.33575,61,48,0
213.60849,214.33575,57,48,0
213.60849,214.33575,54,48,0
214.33575,215.06535,45,52,0
215.06535,215.76727,47,53,0
215.06535,215.76727,35,53,0
215.76727,216.4692,62,47,0
215.76727,216.4692,59,47,0
215.76727,216.4692,54,47,0
216.4692,217.20189,33,45,0
216.4692,217.20189,45,45,0
217.56087,217.91183,62,56,0
217.20189,217.91183,44,57,0
217.20189,217.91183,32,57,0
217.91183,218.62979,62,48,0
218.62979,219.00154,61,47,0
218.62979,219.00154,64,47,0
219.00154,219.3591,66,47,0
217.91183,219.3591,56,48,0
217.91183,219.3591,59,48,0
219.00154,219.3591,62,47,0
219.71667,219.89119,68,51,0
219.71667,219.89119,65,51,0
219.89119,220.06572,66,51,0
219.3591,220.06572,37,53,0
219.3591,220.06572,49,53,0
219.89119,220.06572,63,51,0
220.06572,220.39108,68,54,0
220.06572,220.39108,65,54,0
220.42065,220.78593,65,54,0
220.42065,220.78593,61,54,0
220.78593,221.15121,66,58,0
220.78593,221.15121,63,58,0
221.15121,221.50818,68,62,0
221.15121,221.50818,65,62,0
220.06572,221.50818,59,53,0
221.86716,222.22318,66,73,0
221.50818,222.22318,49,74,0
221.50818,222.22318,42,74,0
222.22318,222.94113,66,71,0
222.22318,222.94113,61,71,0
222.22318,222.94113,57,71,0
222.94113,223.7031,61,66,0
222.94113,223.7031,57,66,0
222.94113,223.7031,54,66,0
224.07484,224.43382,57,57,0
224.07484,224.43382,50,57,0
224.07484,224.43382,54,57,0
224.43382,225.15178,62,57,0
224.43382,225.15178,54,57,0
224.43382,225.15178,57,57,0
225.15178,225.51077,57,60,0
225.15178,225.51077,66,60,0
225.15178,225.51077,62,60,0
225.51077,225.87814,62,59,0
225.51077,225.87814,69,59,0
223.7031,225.87814,38,74,0
223.7031,225.87814,45,74,0
225.51077,225.87814,66,59,0
225.87814,228.05296,69,64,0
225.87814,228.05296,66,64,0
225.87814,228.05296,62,64,0
228.42694,228.788,54,45,0
228.42694,228.788,50,45,0
228.42694,228.788,57,45,0
228.788,229.5101,62,44,0
228.788,229.5101,54,44,0
228.788,229.5101,57,44,0
229.5101,229.87115,57,44,0
229.5101,229.87115,66,44,0
229.5101,229.87115,62,44,0
229.87115,230.2496,62,41,0
229.87115,230.2496,69,41,0
228.05296,230.2496,35,52,0
228.05296,230.2496,47,52,0
229.87115,230.2496,66,41,0
230.2496,230.98016,62,41,0
230.2496,230.98016,66,41,0
230.2496,230.98016,69,41,0
231.71071,231.89334,59,35,0
231.71071,231.89334,71,35,0
231.71071,231.89334,66,35,0
231.71071,231.89334,62,35,0
232.47879,232.61493,45,38,0
232.47879,232.61493,40,38,0
232.47879,232.61493,33,38,0
232.84186,233.00461,57,34,0
232.84186,233.00461,60,34,0
233.00461,233.1831,59,34,0
233.00461,233.1831,52,34,0
233.1831,233.22902,57,37,0
233.1831,233.22902,60,37,0
233.55048,233.64232,57,33,0
233.55048,233.64232,60,33,0
234.2789,234.36917,55,33,0
234.2789,234.36917,50,33,0
234.2789,234.36917,43,33,0
234.63997,234.73235,48,36,0
234.63997,234.73235,43,36,0
234.63997,234.73235,36,36,0
235.0095,235.17227,60,34,0
235.0095,235.17227,64,34,0
235.17227,235.35075,62,34,0
235.17227,235.35075,55,34,0
235.35075,235.39668,64,36,0
235.35075,235.39668,60,36,0
235.71814,235.80998,64,33,0
235.71814,235.80998,60,33,0
236.44449,236.53424,55,33,0
236.44449,236.53424,50,33,0
236.44449,236.53424,43,33,0
236.80347,236.89586,57,35,0
236.80347,236.89586,52,35,0
236.80347,236.89586,45,35,0
237.17302,237.33578,60,34,0
237.17302,237.33578,57,34,0
237.33578,237.51427,59,34,0
237.33578,237.51427,52,34,0
237.51427,237.5602,57,36,0
237.51427,237.5602,60,36,0
237.88165,237.9735,57,32,0
237.88165,237.9735,60,32,0
238.61008,238.70035,55,32,0
238.61008,238.70035,50,32,0
238.61008,238.70035,43,32,0
238.97113,239.06352,48,37,0
238.97113,239.06352,43,37,0
238.97113,239.06352,36,37,0
239.34068,239.50345,60,33,0
239.34068,239.50345,64,33,0
239.50345,239.68193,62,33,0
239.50345,239.68193,55,33,0
239.68193,239.72784,64,35,0
239.68193,239.72784,60,35,0
240.0493,240.14114,64,32,0
240.0493,240.14114,60,32,0
240.79065,240.892,52,32,0
240.79065,240.892,59,32,0
240.79065,240.892,64,32,0
241.196,241.29295,64,34,0
241.196,241.29295,59,34,0
241.196,241.29295,52,34,0
241.9716,242.37955,40,40,0
242.78748,243.19542,52,44,0
244.4246,244.85663,36,38,0
245.29532,245.74901,35,36,0
246.23949,246.64754,33,36,0
248.68724,248.8912,45,24,0
248.68724,248.8912,33,24,0
