start_time,end_time,note_value,velocity,instrument_program_number
0.0,0.124626,76,32,0
0.249252,0.373878,77,26,0
0.498504,0.62313,79,26,0
0.747756,0.872382,81,26,0
0.997008,1.121634,76,32,0
1.24626,1.370886,77,28,0
1.495512,1.620138,79,28,0
1.744764,1.86939,81,28,0
2.118642,2.2121115,76,36,0
2.3651497,2.456561,77,30,0
2.6089132,2.7003245,79,30,0
2.8526769,2.944088,81,30,0
3.0991845,3.192654,76,36,0
3.3452482,3.4363265,77,29,0
3.5881238,3.679202,79,29,0
3.8421404,3.9415748,81,29,0
4.0993457,4.192815,76,40,0
4.3454094,4.4364877,77,34,0
4.588285,4.6793633,79,34,0
4.83116,4.9222383,81,34,0
5.077224,5.1706934,76,40,0
5.3223996,5.412812,77,33,0
5.5634995,5.6539116,79,33,0
5.804599,5.895011,81,33,0
6.0483823,6.1408076,76,40,0
6.29485,6.385928,77,34,0
6.5377254,6.6288037,79,34,0
6.7806005,6.871679,81,34,0
7.024368,7.1161146,76,40,0
7.2681346,7.359213,77,33,0
7.51101,7.6020885,79,33,0
7.7538857,7.844964,81,33,0
7.9971557,8.08853,76,40,0
8.240426,8.331837,77,34,0
8.484189,8.575601,79,34,0
8.727953,8.819364,81,34,0
8.96972,9.059633,76,40,0
9.210591,9.301332,77,33,0
9.452566,9.543306,79,33,0
9.694541,9.785281,81,33,0
9.93736,10.028734,76,40,0
10.180631,10.2717085,77,34,0
10.423506,10.514584,79,34,0
10.666381,10.75746,81,34,0
10.910149,11.001895,76,40,0
11.153464,11.244205,77,33,0
11.395439,11.486179,79,33,0
11.645905,11.743012,81,33,0
11.897711,11.989458,76,36,0
12.141027,12.231769,77,30,0
12.38048,12.469328,79,30,0
12.619795,12.710433,81,30,0
12.862083,12.953162,74,36,0
13.1049595,13.196037,76,29,0
13.346512,13.436599,77,29,0
13.58846,13.679834,79,29,0
13.830842,13.921254,76,36,0
14.071941,14.1623535,77,30,0
14.312175,14.401938,79,30,0
14.551115,14.640556,81,30,0
14.790485,14.880572,74,36,0
15.030716,15.120803,76,29,0
15.2709465,15.361033,77,29,0
15.514753,15.607521,79,29,0
15.758559,15.848646,76,36,0
15.99879,16.088877,77,30,0
16.23902,16.329107,74,30,0
16.47925,16.569338,76,30,0
16.718773,16.808329,72,36,0
16.95759,17.045742,74,29,0
17.192663,17.280815,70,29,0
17.431187,17.521927,72,29,0
17.671858,17.76162,76,36,0
17.911224,18.000988,77,30,0
18.150593,18.240356,74,30,0
18.389961,18.479725,76,30,0
18.631975,18.72372,72,36,0
18.876633,18.96838,74,29,0
19.124056,19.217876,76,29,0
19.383533,19.484324,77,29,0
19.639357,19.760794,77,40,0
19.879202,19.997612,76,38,0
20.11602,20.234428,77,43,0
20.355865,20.477304,76,41,0
20.596134,20.714966,77,46,0
20.833796,20.952627,76,44,0
21.071457,21.190289,77,50,0
21.309118,21.42795,76,47,0
21.549387,21.670826,77,42,0
21.789234,21.907642,76,38,0
22.02605,22.144459,77,41,0
22.265898,22.387335,76,37,0
22.506165,22.624996,77,40,0
22.743828,22.862658,76,37,0
22.98149,23.100319,77,39,0
23.21915,23.33798,76,36,0
23.45942,23.580856,77,40,0
23.699265,23.817673,76,38,0
23.93608,24.054491,77,42,0
24.175928,24.297365,76,39,0
24.416197,24.535027,77,43,0
24.653858,24.772688,76,40,0
24.89152,25.010351,77,45,0
25.12918,25.248013,76,42,0
25.36945,25.490887,75,42,0
25.609295,25.727705,77,38,0
25.846113,25.964521,75,41,0
26.088213,26.236816,77,37,0
26.356636,26.475958,71,39,0
26.595802,26.716167,73,35,0
26.837223,26.95866,71,38,0
27.085178,27.233109,73,34,0
27.354546,27.475983,75,42,0
27.594393,27.712801,77,38,0
27.83121,27.949617,75,41,0
28.073309,28.221912,77,37,0
28.341734,28.461054,71,39,0
28.580898,28.701263,73,35,0
28.822319,28.943756,71,38,0
29.070768,29.218044,73,34,0
29.339481,29.460918,68,37,0
29.579327,29.697737,70,34,0
29.816145,29.934553,68,37,0
30.05599,30.17743,70,34,0
30.296259,30.41509,68,37,0
30.531948,30.648808,70,34,0
30.765667,30.882524,68,37,0
30.999384,31.116241,70,34,0
31.23768,31.359118,68,41,0
31.477526,31.595936,70,36,0
31.714344,31.832752,68,37,0
31.956444,32.105045,70,32,0
32.22487,32.34419,68,33,0
32.464035,32.5844,70,29,0
32.705452,32.826893,68,32,0
32.94833,33.069767,70,28,0
33.191204,33.31264,68,35,0
33.43105,33.549458,70,32,0
33.66787,33.786278,68,34,0
33.904686,34.023094,70,31,0
34.142914,34.262234,68,33,0
34.38208,34.502445,70,29,0
34.6235,34.744938,68,32,0
34.87195,35.019226,70,28,0
35.140663,35.2621,68,41,0
35.38051,35.498917,70,36,0
35.617325,35.735733,68,37,0
35.859425,36.00803,70,32,0
36.12785,36.24717,68,33,0
36.367016,36.48738,70,29,0
36.608437,36.729874,68,32,0
36.85639,37.004322,70,28,0
37.12576,37.247196,68,36,0
37.365604,37.484013,70,37,0
37.60242,37.72083,68,43,0
37.84452,37.993126,70,43,0
38.112946,38.232265,68,38,0
38.35211,38.472477,70,32,0
38.593533,38.71497,68,34,0
38.84198,39.005184,70,28,0
39.12662,39.24806,68,36,0
39.36647,39.48488,70,37,0
39.603287,39.721695,68,43,0
39.845387,39.993988,70,43,0
40.11381,40.23313,68,38,0
40.352974,40.47334,70,32,0
40.594395,40.71583,68,34,0
40.842846,41.001373,70,28,0
41.12281,41.244247,66,37,0
41.362656,41.481064,68,34,0
41.599476,41.717884,66,37,0
41.83932,41.96076,68,34,0
41.001373,41.96076,78,39,0
42.07959,42.19842,66,37,0
42.31725,42.43608,68,34,0
42.554913,42.673744,66,37,0
42.792572,42.911404,68,34,0
41.96076,42.911404,74,39,0
43.03284,43.154278,66,37,0
43.27269,43.391098,68,34,0
43.509506,43.627914,66,37,0
43.74935,43.87079,68,34,0
43.98962,44.10845,66,37,0
44.22728,44.364746,68,34,0
42.911404,44.364746,76,39,0
44.483208,44.601673,66,37,0
44.72014,44.838604,68,34,0
44.364746,44.838604,76,39,0
44.96004,45.08148,66,37,0
45.199886,45.318295,68,34,0
44.838604,45.318295,78,39,0
45.436707,45.555115,66,37,0
45.67655,45.79799,68,34,0
45.318295,45.79799,78,39,0
45.91682,46.03565,66,37,0
46.15448,46.27331,68,34,0
45.79799,46.27331,74,39,0
46.392143,46.510975,66,37,0
46.629803,46.76664,68,34,0
46.27331,46.76664,74,39,0
46.888077,47.009514,66,36,0
47.127926,47.246334,68,32,0
47.364742,47.48315,66,34,0
47.604588,47.726025,68,31,0
47.844856,47.963688,66,32,0
48.082516,48.201347,68,29,0
48.32018,48.43901,66,31,0
48.557842,48.67667,68,27,0
46.76664,48.67667,76,39,0
48.798107,48.919548,66,37,0
49.037956,49.156364,68,34,0
49.274773,49.39318,66,37,0
49.514618,49.636055,68,34,0
48.67667,49.636055,76,39,0
49.754887,49.87372,66,37,0
49.99255,50.111378,68,34,0
50.23021,50.34904,66,37,0
50.467873,50.5867,68,34,0
49.636055,50.5867,72,39,0
50.70814,50.82958,65,37,0
50.947987,51.066395,67,34,0
51.184803,51.30321,65,37,0
51.42465,51.546085,67,34,0
51.664917,51.78375,65,37,0
51.90258,52.02141,67,34,0
50.5867,52.02141,74,39,0
52.14024,52.25907,65,37,0
52.377903,52.496735,67,34,0
52.02141,52.496735,74,39,0
52.61817,52.73961,66,37,0
52.858017,52.976425,68,34,0
52.496735,52.976425,76,39,0
53.094833,53.21324,66,37,0
53.33468,53.45612,68,34,0
52.976425,53.45612,76,39,0
53.574947,53.69378,66,37,0
53.81261,53.931442,68,34,0
53.45612,53.931442,72,39,0
54.05027,54.1691,66,37,0
54.287933,54.406765,68,34,0
53.931442,54.406765,72,39,0
54.528202,54.64964,65,36,0
54.768047,54.886456,67,32,0
55.004864,55.123272,65,34,0
55.244713,55.36615,67,31,0
55.48498,55.60381,65,32,0
55.72264,55.841473,67,29,0
55.960304,56.079132,65,31,0
56.197964,56.316795,67,27,0
54.406765,56.316795,74,39,0
56.44142,56.53489,64,40,0
56.687485,56.778564,65,34,0
56.93036,57.02144,67,34,0
57.173237,57.264313,69,34,0
57.4193,57.512768,62,44,0
57.664474,57.754887,64,33,0
57.905575,57.995987,65,33,0
58.146675,58.237087,67,33,0
58.39185,58.48532,64,40,0
58.637913,58.728992,65,34,0
58.88079,58.971867,67,34,0
59.123665,59.214745,69,34,0
59.369728,59.4632,62,44,0
59.614902,59.70532,64,33,0
59.856003,59.946415,65,33,0
60.097103,60.187515,67,33,0
60.341816,60.434937,62,40,0
60.58653,60.67694,63,34,0
60.827625,60.918037,65,34,0
61.068726,61.159138,67,34,0
61.309826,61.400238,62,43,0
61.550926,61.64134,63,35,0
61.792023,61.882435,65,39,0
62.036736,62.130207,67,41,0
60.21765,62.16136,60,45,0
62.285522,62.378647,62,40,0
62.530235,62.620647,63,34,0
62.771336,62.861748,65,34,0
63.012436,63.102848,67,34,0
63.253536,63.34395,62,43,0
63.494633,63.585045,63,35,0
63.735733,63.826145,65,39,0
63.980446,64.07391,67,41,0
62.16136,64.10507,60,45,0
64.60172,64.72588,82,53,0
64.767265,64.89143,82,47,0
64.932816,65.05698,82,47,0
65.098366,65.22253,82,54,0
65.263916,65.38808,82,46,0
65.42947,65.55363,82,46,0
65.59502,65.71918,82,54,0
65.76057,65.886665,82,47,0
65.92999,66.059975,82,47,0
66.1033,66.35163,82,54,0
66.35163,66.59995,81,50,0
66.59995,67.59325,79,48,0
67.59325,67.7588,82,58,0
67.7588,67.92823,81,63,0
67.92823,68.10154,79,67,0
68.10154,68.59818,79,70,0
68.59818,68.76373,77,71,0
68.76373,68.9367,76,67,0
68.9367,69.11707,74,62,0
69.11707,69.30613,73,64,0
69.369156,70.13328,70,49,0
70.62993,70.79547,77,68,0
70.79547,70.96844,76,61,0
70.96844,71.14881,74,57,0
71.14881,71.337875,73,61,0
71.400894,71.65297,70,49,0
71.65297,71.82102,77,63,0
71.82102,71.99171,76,54,0
71.99171,72.123146,74,50,0
72.21126,72.468216,85,74,0
72.468216,72.725174,82,54,0
72.123146,74.16541,73,50,0
72.15251,74.18691,76,54,0
72.181885,74.208405,78,57,0
74.28582,74.54278,73,62,0
74.26002,74.77833,66,45,0
74.208405,74.79974,61,39,0
74.234215,74.79974,64,39,0
74.54278,74.79974,70,46,0
75.83156,75.96053,58,32,0
75.96053,76.08951,60,25,0
76.08951,76.21848,58,31,0
76.21848,76.347466,60,26,0
76.347466,76.475945,58,29,0
76.475945,76.60442,60,25,0
76.60442,76.728584,58,29,0
76.728584,76.852745,60,24,0
76.852745,76.98073,58,29,0
76.98073,77.10872,60,24,0
77.10872,77.23288,58,29,0
77.23288,77.35704,60,24,0
77.35704,77.484535,58,30,0
77.484535,77.61204,60,24,0
77.61204,77.73953,58,30,0
77.73953,77.86703,60,24,0
77.86703,77.99307,58,33,0
77.99307,78.11911,60,24,0
78.11911,78.24515,58,30,0
78.24515,78.371185,60,25,0
78.371185,78.50017,58,35,0
78.50017,78.62914,60,26,0
78.62914,78.75812,58,26,0
78.75812,78.88709,60,36,0
78.88709,79.016075,58,27,0
79.016075,79.14505,61,32,0
79.14505,79.27157,58,34,0
79.27157,79.39809,61,39,0
79.65112,79.77764,70,55,0
79.77764,79.90416,73,48,0
80.157196,80.283714,58,45,0
80.283714,80.41023,61,40,0
80.41023,80.53871,58,29,0
80.53871,80.66719,60,25,0
80.66719,80.79135,58,29,0
80.79135,80.91551,60,24,0
80.91551,81.0435,58,29,0
81.0435,81.171486,60,24,0
81.171486,81.29565,58,29,0
81.29565,81.41981,60,24,0
81.41981,81.54731,58,30,0
81.54731,81.674805,60,24,0
81.674805,81.8023,58,30,0
81.8023,81.9298,60,24,0
81.9298,82.05584,58,33,0
82.05584,82.18188,60,24,0
82.18188,82.307915,58,30,0
82.307915,82.43396,60,25,0
82.43396,82.562935,58,35,0
82.562935,82.69191,60,26,0
82.69191,82.820885,58,26,0
82.820885,82.94987,60,36,0
82.94987,83.07884,58,27,0
83.07884,83.20782,61,32,0
83.20782,83.334335,58,34,0
83.334335,83.46085,61,39,0
83.71389,83.84041,70,55,0
83.84041,83.96693,73,48,0
83.96693,84.093445,70,54,0
84.093445,84.21996,73,49,0
84.96965,85.09381,82,53,0
85.1352,85.25936,82,47,0
85.30074,85.42491,82,47,0
85.46629,85.59046,82,54,0
85.63184,85.756004,82,46,0
85.79739,85.921555,82,46,0
85.962944,86.087105,82,54,0
86.128494,86.25459,82,47,0
86.29792,86.42791,82,47,0
86.47124,86.71956,82,54,0
86.71956,86.96788,81,50,0
86.96788,87.961174,79,48,0
87.961174,88.126724,82,69,0
88.126724,88.29616,81,65,0
88.29616,88.46947,79,57,0
88.46947,88.96612,79,64,0
88.96612,89.13167,77,66,0
89.13167,89.30463,76,59,0
89.30463,89.485,74,55,0
89.485,89.674065,73,61,0
89.73708,90.501205,70,49,0
91.00536,91.173416,77,66,0
91.173416,91.34763,76,59,0
91.34763,91.52801,74,56,0
91.00536,91.52801,68,66,0
91.52801,91.720726,73,61,0
91.784966,91.977684,70,49,0
91.52801,92.04192,67,44,0
92.04192,92.213234,77,63,0
92.213234,92.38944,76,54,0
92.38944,92.58007,74,50,0
92.04192,92.58007,68,63,0
92.58007,92.77737,73,61,0
92.84313,93.040436,70,49,0
92.58007,93.1062,67,44,0
93.1062,93.284744,77,63,0
93.284744,93.472786,76,54,0
93.472786,93.67462,74,50,0
93.1062,93.67462,68,51,0
93.67462,93.79685,73,75,0
93.67462,93.79685,70,75,0
93.79685,93.91908,66,69,0
94.66942,94.79116,73,75,0
94.66942,94.79116,70,75,0
94.79116,94.9129,65,68,0
95.65956,95.78179,73,75,0
95.65956,95.78179,70,75,0
95.78179,95.87347,63,69,0
97.631004,97.753235,73,75,0
97.631004,97.753235,70,75,0
97.753235,97.875465,66,69,0
98.6258,98.74754,73,75,0
98.6258,98.74754,70,75,0
98.74754,98.869286,65,68,0
99.615944,99.738174,73,75,0
99.615944,99.738174,70,75,0
99.738174,99.82985,63,69,0
100.597244,100.68855,63,42,0
100.71899,100.810295,62,35,0
100.84073,100.93204,66,42,0
100.96247,101.05378,65,37,0
101.08421,101.17552,63,42,0
101.205956,101.297264,65,37,0
101.3277,101.41692,66,37,0
101.44666,101.54658,67,37,0
101.57988,101.67083,63,42,0
101.70115,101.79211,62,35,0
101.82242,101.913376,66,42,0
101.943695,102.034645,65,36,0
102.064964,102.155914,63,42,0
102.18623,102.27718,65,37,0
102.3075,102.39605,66,37,0
102.42556,102.52421,67,37,0
102.55709,102.6484,66,42,0
102.67883,102.77014,65,35,0
102.800575,102.891884,70,42,0
102.922325,103.013626,69,37,0
103.04407,103.135376,66,42,0
103.16581,103.25712,68,37,0
103.28755,103.37677,70,37,0
103.40652,103.506424,71,37,0
103.53973,103.630684,66,42,0
103.661,103.75195,65,35,0
103.78227,103.87322,70,42,0
103.90354,103.9945,69,36,0
104.02481,104.11577,66,42,0
104.14609,104.23704,69,37,0
104.26736,104.355896,70,37,0
104.38541,104.48406,71,37,0
104.516945,104.60825,70,42,0
104.63869,104.729996,69,35,0
104.76043,104.85174,73,42,0
104.88217,104.97348,72,37,0
105.003914,105.09522,70,42,0
105.125656,105.216965,71,37,0
105.2474,105.336624,73,37,0
105.36636,105.46628,74,37,0
105.49958,105.59053,70,42,0
105.62085,105.71181,69,35,0
105.74212,105.83308,73,42,0
105.863396,105.954346,72,36,0
105.984665,106.075615,70,42,0
106.105934,106.19689,71,37,0
106.2272,106.31575,73,37,0
106.34526,106.44391,74,37,0
106.47679,106.5995,70,42,0
106.5995,106.71984,71,41,0
106.71984,106.84018,73,41,0
106.84018,106.96051,74,40,0
106.96051,107.08085,70,39,0
107.08085,107.20119,71,39,0
107.20119,107.321526,73,39,0
107.321526,107.441864,74,38,0
107.441864,107.5622,70,37,0
107.5622,107.68253,71,37,0
107.68253,107.80287,73,36,0
107.80287,107.92321,74,36,0
107.92321,108.04355,70,35,0
108.04355,108.16389,71,35,0
108.16389,108.28422,73,34,0
108.28422,108.41576,74,34,0
108.53033,108.61626,76,36,0
108.765884,108.85663,77,30,0
109.00571,109.094826,79,30,0
109.244225,109.333984,81,30,0
109.485344,109.57642,74,36,0
109.72822,109.8193,76,29,0
109.96977,110.05986,77,29,0
110.214516,110.30798,79,29,0
110.45969,110.5501,76,36,0
110.70079,110.7912,77,30,0
110.941025,111.030785,79,30,0
111.17996,111.2694,81,30,0
111.419334,111.50942,74,36,0
111.65956,111.74965,76,29,0
111.899796,111.989876,77,29,0
112.1436,112.23637,79,29,0
112.387405,112.47749,76,36,0
112.62764,112.71772,77,30,0
112.86787,112.957954,74,30,0
113.1081,113.19818,76,30,0
113.34575,113.4346,72,36,0
113.58083,113.668304,74,29,0
113.81408,113.90155,70,29,0
114.05169,114.14243,72,29,0
114.29236,114.382126,76,36,0
114.53173,114.62149,77,30,0
114.771095,114.86086,74,30,0
115.01047,115.10023,76,30,0
115.25248,115.34422,72,36,0
115.49714,115.58888,74,29,0
115.74456,115.83838,76,29,0
116.00016,116.09804,77,29,0
116.2521,116.373535,77,37,0
116.49194,116.61035,76,34,0
116.72876,116.84717,77,38,0
116.968605,117.09004,76,36,0
117.20888,117.327705,77,39,0
117.44654,117.56537,76,37,0
117.6842,117.80303,77,41,0
117.92186,118.04069,76,38,0
118.16213,118.28357,77,42,0
118.40198,118.520386,76,38,0
118.638794,118.7572,77,41,0
118.87864,119.00008,76,37,0
119.118904,119.23774,77,40,0
119.35657,119.4754,76,37,0
119.59423,119.71306,77,39,0
119.831894,119.95072,76,36,0
120.07216,120.193596,77,37,0
120.312004,120.43041,76,34,0
120.54882,120.66723,77,37,0
120.788666,120.91011,76,34,0
121.02894,121.147766,77,37,0
121.2666,121.38543,76,34,0
121.50426,121.62309,77,37,0
121.74192,121.860756,76,34,0
121.98219,122.10363,77,42,0
122.22204,122.34045,76,38,0
122.458855,122.57726,77,41,0
122.70095,122.849556,76,37,0
122.969376,123.0887,75,39,0
123.20854,123.32891,73,35,0
123.44997,123.5714,75,38,0
123.69792,123.84585,73,34,0
123.967285,124.08872,72,42,0
124.20713,124.32554,70,38,0
124.44395,124.562355,72,41,0
124.68605,124.834656,70,37,0
124.954475,125.07379,69,39,0
125.19364,125.314,67,35,0
125.43506,125.556496,69,38,0
125.68351,125.83079,67,34,0
125.952225,126.07366,63,37,0
126.19207,126.31048,63,34,0
126.42889,126.547295,63,37,0
126.66873,126.79017,63,34,0
126.909424,127.02868,63,37,0
127.147934,127.26719,63,34,0
127.38908,127.510956,64,37,0
127.632835,127.75472,64,34,0
129.88689,130.00662,82,35,0
130.00662,130.12637,81,35,0
130.12637,130.25006,82,40,0
130.37375,130.49744,78,37,0
130.49744,130.62062,82,31,0
130.62062,130.7433,81,38,0
130.7433,130.86598,82,41,0
130.86598,131.47491,84,46,0
131.47491,131.59612,85,42,0
131.59612,131.97183,86,51,0
131.97183,132.09708,87,51,0
132.09708,132.96552,88,57,0
132.96552,133.09076,89,49,0
133.09076,133.47946,90,57,0
133.47946,133.64429,92,46,0
133.64429,133.7689,93,32,0
133.7689,133.89108,94,27,0
133.89108,134.01665,93,32,0
134.01665,134.13882,94,28,0
134.13882,134.26299,93,32,0
134.26299,134.38487,94,29,0
134.38487,134.50856,93,32,0
134.50856,134.62878,94,28,0
134.62878,134.75388,93,32,0
134.75388,134.8741,95,29,0
134.8741,134.99826,93,32,0
134.99826,135.11925,95,28,0
135.11925,135.24243,93,32,0
135.24243,135.36266,95,28,0
135.36266,135.48434,93,32,0
135.48434,135.60712,95,28,0
135.60712,135.73035,93,32,0
135.73035,135.85004,94,27,0
135.85004,135.97281,93,32,0
135.97281,136.09337,94,28,0
136.09337,136.21706,93,32,0
136.21706,136.33675,94,29,0
136.33675,136.456,93,32,0
136.456,136.57878,94,28,0
136.57878,136.70247,93,32,0
136.70247,136.82259,95,29,0
136.82259,136.94492,93,32,0
136.94492,137.06503,95,28,0
137.06503,137.18736,93,32,0
137.18736,137.30746,95,28,0
137.30746,137.43071,93,32,0
137.43071,137.55394,95,28,0
137.55394,137.67406,93,32,0
137.67406,137.79373,94,27,0
137.79373,137.91606,93,32,0
137.91606,138.03839,95,28,0
138.03839,138.15808,93,32,0
138.15808,138.27606,94,29,0
138.27606,138.39883,93,32,0
138.39883,138.51682,95,28,0
138.51682,138.6396,93,32,0
138.6396,138.7593,94,29,0
138.7593,138.88116,93,32,0
138.88116,139.00043,95,28,0
139.00043,139.12459,93,32,0
139.12459,139.24646,94,28,0
139.24646,139.36879,93,32,0
139.36879,139.49203,95,28,0
139.49203,139.61258,93,32,0
139.61258,139.73357,94,27,0
139.73357,139.85725,93,32,0
139.85725,139.97781,95,28,0
139.97781,140.10014,93,32,0
140.10014,140.22025,94,29,0
140.22025,140.34258,93,32,0
140.34258,140.46227,95,28,0
140.46227,140.58504,93,32,0
140.58504,140.7056,94,29,0
140.7056,140.82976,93,32,0
140.82976,140.95299,95,28,0
140.95299,141.07443,93,32,0
141.07443,141.19952,94,28,0
141.19952,141.32095,93,32,0
141.32095,141.45735,95,28,0
141.64084,143.41461,105,40,0
141.57968,143.41461,98,36,0
141.51851,143.41461,93,30,0
1.994016,2.0874856,64,33,0
2.243268,2.3346794,65,29,0
2.4870315,2.5784428,67,29,0
2.730795,2.8222063,69,29,0
2.9745586,3.068028,64,33,0
3.2238104,3.3148887,65,30,0
3.466686,3.5577643,67,30,0
3.7095616,3.8089957,69,30,0
3.9747195,4.068189,64,37,0
4.2239714,4.3150496,65,33,0
4.466847,4.557925,67,33,0
4.7097225,4.800801,69,33,0
4.952598,5.0460677,64,37,0
5.20185,5.292262,65,34,0
5.4429493,5.533362,67,34,0
5.684049,5.7744613,69,34,0
3.9747195,5.9251485,70,45,0
5.9251485,6.017574,64,37,0
6.171616,6.2640414,65,33,0
6.4162874,6.5073657,67,33,0
6.659163,6.7502413,69,33,0
6.9020386,6.9937854,64,37,0
7.146697,7.2377753,65,34,0
7.3895726,7.480651,67,34,0
7.632448,7.7235265,69,34,0
5.9251485,7.8753233,72,45,0
7.8753233,7.9666977,64,37,0
8.118988,8.210066,65,33,0
8.362308,8.453719,67,33,0
8.606071,8.697482,69,33,0
8.849834,8.939748,64,37,0
9.089604,9.180345,65,34,0
9.331579,9.422319,67,34,0
9.573553,9.664294,69,34,0
7.8753233,9.815528,70,45,0
9.815528,9.906902,64,37,0
10.059193,10.15027,65,33,0
10.302068,10.3931465,67,33,0
10.544944,10.636022,69,33,0
10.787819,10.879566,64,37,0
11.032477,11.123218,65,34,0
11.274452,11.365192,67,34,0
11.516426,11.613535,69,34,0
9.815528,11.775382,73,45,0
11.775382,11.867129,74,39,0
12.0200405,12.110781,72,29,0
12.262015,12.350863,70,29,0
12.498944,12.589582,69,29,0
12.740646,12.831724,72,36,0
12.983521,13.0746,70,30,0
13.226397,13.3164835,69,30,0
13.466627,13.5580015,67,30,0
11.775382,13.710292,62,39,0
13.710292,13.800704,74,33,0
13.951391,14.041803,72,29,0
14.192491,14.282254,70,29,0
14.431859,14.521301,69,29,0
14.67037,14.760457,72,33,0
14.910601,15.000688,70,30,0
15.150831,15.240918,69,30,0
15.391062,15.48383,67,30,0
13.710292,15.638444,62,40,0
15.638444,15.728531,69,33,0
15.8786745,15.9687605,72,29,0
16.118904,16.208992,70,29,0
16.359135,16.449223,67,29,0
16.599365,16.688921,69,33,0
16.838182,16.927738,65,30,0
17.075127,17.163279,67,30,0
17.310198,17.40094,64,30,0
15.638444,17.552174,62,40,0
17.552174,17.641935,69,33,0
17.791542,17.881304,72,29,0
18.030909,18.120672,70,29,0
18.270277,18.36004,67,29,0
18.509645,18.601393,69,33,0
18.754303,18.84605,65,30,0
18.998962,19.092783,69,32,0
19.24915,19.349937,74,33,0
17.552174,19.51792,62,40,0
19.51792,19.639357,73,51,0
19.760794,19.879202,81,43,0
19.997612,20.11602,73,37,0
20.234428,20.355865,81,39,0
20.477304,20.596134,73,49,0
20.714966,20.833796,79,48,0
20.952627,21.071457,73,43,0
21.190289,21.309118,79,45,0
21.42795,21.549387,73,54,0
21.670826,21.789234,82,44,0
21.907642,22.02605,73,37,0
22.144459,22.265898,82,36,0
22.387335,22.506165,73,44,0
22.624996,22.743828,82,41,0
22.862658,22.98149,73,35,0
23.100319,23.21915,82,35,0
21.42795,23.33798,70,46,0
23.33798,23.45942,73,51,0
23.580856,23.699265,81,43,0
23.817673,23.93608,73,37,0
24.054491,24.175928,81,37,0
24.297365,24.416197,73,46,0
24.535027,24.653858,79,45,0
24.772688,24.89152,73,39,0
25.010351,25.12918,79,40,0
25.248013,25.36945,73,54,0
25.490887,25.609295,82,44,0
25.727705,25.846113,73,36,0
25.964521,26.088213,82,36,0
25.248013,26.236816,70,46,0
25.248013,26.236816,66,39,0
26.236816,26.356636,70,43,0
26.475958,26.595802,78,40,0
26.716167,26.837223,70,34,0
26.95866,27.085178,78,33,0
26.236816,27.233109,66,43,0
26.236816,27.233109,63,36,0
27.233109,27.354546,73,54,0
27.475983,27.594393,82,44,0
27.712801,27.83121,73,36,0
27.949617,28.073309,82,36,0
27.233109,28.221912,70,46,0
27.233109,28.221912,66,39,0
28.221912,28.341734,70,43,0
28.461054,28.580898,78,40,0
28.701263,28.822319,70,34,0
28.943756,29.070768,78,33,0
28.221912,29.218044,66,43,0
28.221912,29.218044,63,36,0
29.218044,29.339481,66,47,0
29.460918,29.579327,75,39,0
29.697737,29.816145,66,33,0
29.934553,30.05599,75,33,0
30.17743,30.296259,66,40,0
30.41509,30.531948,75,38,0
30.648808,30.765667,66,33,0
30.882524,30.999384,75,33,0
29.218044,31.116241,63,43,0
29.218044,31.116241,59,36,0
31.116241,31.23768,66,54,0
31.359118,31.477526,75,42,0
31.595936,31.714344,66,33,0
31.832752,31.956444,75,32,0
31.116241,32.105045,63,46,0
32.105045,32.22487,66,36,0
32.34419,32.464035,75,34,0
32.5844,32.705452,66,28,0
32.826893,32.94833,75,28,0
32.105045,33.069767,63,36,0
32.105045,33.069767,61,30,0
33.069767,33.191204,66,45,0
33.31264,33.43105,75,33,0
33.549458,33.66787,66,27,0
33.786278,33.904686,75,27,0
34.023094,34.142914,66,32,0
34.262234,34.38208,75,30,0
34.502445,34.6235,66,25,0
34.744938,34.87195,75,25,0
33.069767,35.019226,63,39,0
33.069767,35.019226,59,33,0
35.019226,35.140663,66,54,0
35.2621,35.38051,75,42,0
35.498917,35.617325,66,33,0
35.735733,35.859425,75,32,0
35.019226,36.00803,63,46,0
36.00803,36.12785,66,36,0
36.24717,36.367016,75,34,0
36.48738,36.608437,66,28,0
36.729874,36.85639,75,28,0
36.00803,37.004322,63,36,0
36.00803,37.004322,61,30,0
37.004322,37.12576,66,38,0
37.247196,37.365604,75,36,0
37.484013,37.60242,66,41,0
37.72083,37.84452,75,44,0
37.004322,37.993126,63,33,0
37.004322,37.993126,60,28,0
37.993126,38.112946,66,43,0
38.232265,38.35211,77,39,0
37.993126,38.472477,63,39,0
37.993126,38.472477,61,39,0
38.472477,38.593533,66,30,0
38.71497,38.84198,77,29,0
38.472477,39.005184,58,36,0
39.005184,39.12662,66,40,0
39.24806,39.36647,75,40,0
39.48488,39.603287,66,36,0
39.721695,39.845387,75,40,0
39.005184,39.993988,63,35,0
39.005184,39.993988,60,29,0
39.993988,40.11381,66,43,0
40.23313,40.352974,77,39,0
39.993988,40.47334,63,39,0
39.993988,40.47334,61,39,0
40.47334,40.594395,66,30,0
40.71583,40.842846,77,29,0
40.47334,41.001373,58,36,0
41.001373,41.12281,60,47,0
41.244247,41.362656,62,35,0
41.001373,41.481064,54,34,0
41.481064,41.599476,60,33,0
41.717884,41.83932,62,33,0
41.96076,42.07959,60,40,0
42.19842,42.31725,62,37,0
41.96076,42.43608,50,34,0
42.43608,42.554913,60,33,0
42.673744,42.792572,62,33,0
42.911404,43.03284,60,47,0
43.154278,43.27269,62,35,0
42.911404,43.391098,52,34,0
43.391098,43.509506,60,33,0
43.627914,43.74935,62,33,0
43.87079,43.98962,60,40,0
44.10845,44.22728,62,37,0
44.364746,44.483208,60,33,0
44.601673,44.72014,62,33,0
44.364746,44.838604,52,34,0
44.838604,44.96004,60,47,0
45.08148,45.199886,62,35,0
44.838604,45.318295,54,34,0
45.318295,45.436707,60,33,0
45.555115,45.67655,62,33,0
45.79799,45.91682,60,40,0
46.03565,46.15448,62,37,0
45.79799,46.27331,50,34,0
46.27331,46.392143,60,33,0
46.510975,46.629803,62,33,0
46.76664,46.888077,60,47,0
47.009514,47.127926,62,34,0
46.76664,47.246334,52,34,0
47.246334,47.364742,60,31,0
47.48315,47.604588,62,30,0
47.726025,47.844856,60,36,0
47.963688,48.082516,62,32,0
48.201347,48.32018,60,28,0
48.43901,48.557842,62,27,0
48.67667,48.798107,60,47,0
48.919548,49.037956,62,35,0
48.67667,49.156364,52,34,0
49.156364,49.274773,60,33,0
49.39318,49.514618,62,33,0
49.636055,49.754887,60,40,0
49.87372,49.99255,62,37,0
49.636055,50.111378,48,34,0
50.111378,50.23021,60,33,0
50.34904,50.467873,62,33,0
50.5867,50.70814,58,47,0
50.82958,50.947987,60,33,0
50.5867,51.066395,50,34,0
51.066395,51.184803,58,38,0
51.30321,51.42465,60,33,0
51.546085,51.664917,58,43,0
51.78375,51.90258,60,32,0
52.02141,52.14024,58,40,0
52.25907,52.377903,60,33,0
52.02141,52.496735,50,40,0
52.496735,52.61817,60,47,0
52.73961,52.858017,62,35,0
52.496735,52.976425,52,34,0
52.976425,53.094833,60,33,0
53.21324,53.33468,62,33,0
53.45612,53.574947,60,40,0
53.69378,53.81261,62,37,0
53.45612,53.931442,48,34,0
53.931442,54.05027,60,33,0
54.1691,54.287933,62,33,0
54.406765,54.528202,58,47,0
54.64964,54.768047,60,34,0
54.886456,55.004864,58,31,0
55.123272,55.244713,60,30,0
55.36615,55.48498,58,36,0
55.60381,55.72264,60,32,0
55.841473,55.960304,58,28,0
56.079132,56.197964,60,27,0
54.406765,56.316795,50,34,0
56.316795,56.410263,62,42,0
56.566048,56.657124,60,33,0
56.80892,56.9,58,33,0
57.0518,57.142876,57,33,0
57.294674,57.38814,60,37,0
57.543926,57.63434,58,34,0
57.785027,57.87544,57,34,0
58.026123,58.116535,55,34,0
56.316795,58.267223,50,28,0
58.267223,58.360695,62,42,0
58.516476,58.607555,60,33,0
58.75935,58.85043,58,33,0
59.002228,59.093304,57,33,0
59.245102,59.338573,60,37,0
59.494354,59.584766,58,34,0
59.735455,59.825867,57,34,0
59.976555,60.066967,55,34,0
58.267223,60.21765,50,35,0
60.21765,60.341816,55,37,0
60.465977,60.58653,48,32,0
60.707077,60.827625,43,32,0
60.948177,61.068726,36,32,0
61.189274,61.309826,43,32,0
61.430374,61.550926,48,32,0
61.671474,61.792023,57,33,0
61.912575,62.036736,53,36,0
62.16136,62.285522,55,37,0
62.409687,62.530235,48,32,0
62.650787,62.771336,43,32,0
62.891884,63.012436,36,32,0
63.132984,63.253536,43,32,0
63.374084,63.494633,48,32,0
63.615185,63.735733,57,33,0
63.85628,63.980446,53,36,0
64.10507,64.1982,62,36,0
64.22923,64.35339,60,27,0
64.35339,64.44652,63,30,0
64.477554,64.60172,60,27,0
64.60172,64.69484,65,30,0
64.72588,64.850044,60,27,0
64.850044,64.94316,67,30,0
64.974205,65.098366,60,27,0
65.098366,65.19149,62,38,0
65.22253,65.346695,60,27,0
65.346695,65.43981,63,31,0
65.470856,65.59502,60,27,0
65.59502,65.68813,65,35,0
65.71918,65.84334,60,27,0
65.84334,65.94083,67,36,0
65.97332,66.1033,60,27,0
66.1033,66.19643,62,40,0
66.22747,66.35163,60,30,0
66.35163,66.44475,63,34,0
66.47579,66.59995,60,30,0
66.59995,66.69308,65,34,0
66.72411,66.848274,60,30,0
66.848274,66.9414,67,36,0
66.972435,67.0966,60,32,0
67.0966,67.18972,62,48,0
67.220764,67.344925,60,34,0
67.344925,67.43805,63,41,0
67.469086,67.59325,60,36,0
67.59325,67.68637,65,48,0
67.71741,67.841576,60,37,0
67.841576,67.93906,67,51,0
67.97156,68.10154,60,37,0
68.10154,68.19466,62,50,0
68.2257,68.34986,60,37,0
68.34986,68.442986,63,42,0
68.47402,68.59818,60,37,0
68.59818,68.69131,65,50,0
68.72235,68.84651,60,46,0
68.84651,68.94797,67,46,0
68.98179,69.11707,60,45,0
69.11707,69.2116,67,49,0
69.24311,69.369156,58,37,0
69.369156,69.463684,67,43,0
69.49519,69.62123,58,35,0
69.62123,69.71576,67,39,0
69.74727,69.873314,58,30,0
69.873314,69.9708,67,41,0
70.003296,70.13328,58,30,0
70.13328,70.2264,67,40,0
70.25744,70.3816,58,30,0
70.3816,70.474724,67,34,0
70.50576,70.62993,58,30,0
70.75409,70.87825,58,43,0
70.62993,70.87825,65,48,0
70.87825,70.97971,65,37,0
71.01353,71.14881,58,40,0
71.27485,71.400894,58,32,0
71.14881,71.400894,64,49,0
71.400894,71.49542,64,38,0
71.52693,71.65297,58,35,0
71.779015,71.90505,58,30,0
71.65297,71.90505,65,39,0
71.90505,72.00254,65,41,0
72.035034,72.123146,58,30,0
72.21126,72.33974,58,39,0
72.33974,72.468216,60,37,0
72.468216,72.596695,58,34,0
72.596695,72.725174,60,32,0
72.725174,72.85415,58,34,0
72.85415,72.98313,60,30,0
72.98313,73.11211,58,33,0
73.11211,73.24108,60,30,0
73.24108,73.370056,58,33,0
73.370056,73.49903,60,30,0
73.49903,73.62801,58,33,0
73.62801,73.75699,60,31,0
73.75699,73.88596,58,32,0
73.88596,74.01494,60,31,0
74.01494,74.14392,58,35,0
74.14392,74.28582,60,31,0
72.21126,74.28582,66,44,0
72.1672,74.28582,64,37,0
72.123146,74.28582,61,37,0
74.28582,74.4143,58,37,0
74.4143,74.54278,60,31,0
74.54278,74.671265,58,31,0
74.671265,74.79974,60,32,0
74.79974,74.92872,58,34,0
74.92872,75.05769,60,30,0
75.05769,75.18667,58,32,0
75.18667,75.31565,60,31,0
75.31565,75.444626,58,33,0
75.444626,75.5736,60,30,0
75.5736,75.702576,58,33,0
75.702576,75.83156,60,31,0
76.60442,76.728584,46,35,0
76.728584,76.852745,45,35,0
76.852745,76.98073,46,40,0
77.10872,77.23288,42,37,0
77.23288,77.35704,46,31,0
77.35704,77.484535,45,38,0
77.484535,77.61204,46,41,0
77.61204,78.24515,48,46,0
78.24515,78.371185,49,41,0
78.371185,78.75812,50,48,0
78.75812,78.88709,51,44,0
79.37383,79.50035,58,63,0
79.524605,79.65112,61,51,0
79.90416,80.03068,58,52,0
80.03068,80.157196,61,46,0
78.88709,80.41023,52,56,0
80.66719,80.79135,46,35,0
80.79135,80.91551,45,35,0
80.91551,81.0435,46,40,0
81.171486,81.29565,42,37,0
81.29565,81.41981,46,31,0
81.41981,81.54731,45,38,0
81.54731,81.674805,46,41,0
81.674805,82.307915,48,46,0
82.307915,82.43396,49,41,0
82.43396,82.820885,51,48,0
82.820885,82.94987,53,44,0
83.43661,83.563126,58,63,0
83.58737,83.71389,61,51,0
84.21996,84.34648,70,55,0
84.34648,84.473,73,44,0
82.94987,84.473,54,56,0
84.59716,84.72132,73,37,0
84.473,84.72132,70,48,0
84.84549,84.96965,73,35,0
84.72132,84.96965,70,41,0
84.96965,85.09381,70,30,0
85.09381,85.21797,73,27,0
85.21797,85.34213,70,30,0
85.34213,85.46629,73,27,0
84.96965,85.46629,68,36,0
85.46629,85.59046,70,38,0
85.59046,85.71462,73,27,0
85.71462,85.83878,70,31,0
85.83878,85.962944,73,27,0
85.46629,85.962944,66,36,0
85.962944,86.087105,70,35,0
86.087105,86.211266,73,27,0
86.211266,86.34125,70,36,0
86.34125,86.47124,73,27,0
85.962944,86.47124,65,36,0
86.47124,86.5954,70,34,0
86.5954,86.71956,73,30,0
86.71956,86.84372,70,34,0
86.84372,86.96788,73,30,0
86.96788,87.09204,70,40,0
87.09204,87.21621,73,34,0
87.21621,87.34037,70,40,0
87.34037,87.46453,73,35,0
86.47124,87.46453,64,32,0
87.46453,87.58869,70,43,0
87.58869,87.71285,73,35,0
87.71285,87.83701,70,41,0
87.83701,87.961174,73,30,0
87.961174,88.08534,70,49,0
88.08534,88.2095,73,40,0
88.2095,88.339485,70,46,0
88.339485,88.46947,73,39,0
87.46453,88.46947,65,40,0
88.59363,88.71779,73,35,0
88.46947,88.71779,70,40,0
88.84195,88.96612,73,35,0
88.71779,88.96612,70,39,0
89.09028,89.21444,70,30,0
88.96612,89.21444,67,40,0
89.349724,89.485,70,30,0
89.21444,89.485,67,34,0
89.61104,89.73708,67,30,0
89.485,89.73708,64,38,0
89.86312,89.98916,67,30,0
89.73708,89.98916,64,35,0
90.115204,90.24124,65,30,0
89.98916,90.24124,61,40,0
90.24124,90.37122,61,41,0
90.37122,90.501205,65,30,0
90.62724,90.75329,61,30,0
90.501205,90.75329,58,40,0
90.879326,91.00536,61,30,0
90.75329,91.00536,58,34,0
91.00536,91.13141,59,40,0
91.13141,91.25745,62,40,0
91.25745,91.39272,59,37,0
91.39272,91.52801,62,40,0
91.52801,91.65649,58,49,0
91.65649,91.784966,63,32,0
91.784966,91.913445,58,38,0
91.913445,92.04192,63,35,0
91.00536,92.04192,51,40,0
92.04192,92.13828,59,39,0
92.17041,92.29889,62,30,0
92.29889,92.434715,59,41,0
92.434715,92.58007,62,30,0
92.58007,92.7116,58,49,0
92.7116,92.84313,63,32,0
92.84313,92.97466,58,38,0
92.97466,93.1062,63,35,0
92.04192,93.1062,51,40,0
93.1062,93.20485,59,39,0
93.23773,93.37876,62,44,0
93.37876,93.51979,64,48,0
93.51979,93.67462,65,50,0
93.67462,93.79685,61,75,0
93.67462,93.79685,54,75,0
93.91908,93.980194,63,58,0
94.04131,94.102425,63,63,0
94.16354,94.224655,63,63,0
94.285774,94.346886,63,66,0
94.408,94.46912,63,68,0
94.53023,94.59982,63,72,0
94.66942,94.79116,58,74,0
94.66942,94.79116,61,74,0
94.9129,94.97377,63,66,0
95.034645,95.09552,63,68,0
95.15639,95.21726,63,73,0
95.27813,95.339005,63,75,0
95.39987,95.46075,63,78,0
95.521614,95.59059,63,78,0
95.65956,95.78179,61,75,0
95.65956,95.78179,55,75,0
95.90402,95.96513,63,69,0
96.02625,96.087364,63,67,0
96.148476,96.209595,63,67,0
96.270706,96.331825,63,67,0
96.39294,96.454056,63,67,0
96.51517,96.57801,63,64,0
96.64086,96.70173,63,61,0
96.7626,96.82347,63,61,0
96.884346,96.94522,63,61,0
97.00609,97.06696,63,61,0
97.12783,97.188705,63,61,0
97.24957,97.31045,63,60,0
97.371315,97.43219,63,57,0
97.493065,97.562035,63,57,0
97.631004,97.753235,61,75,0
97.631004,97.753235,54,75,0
97.875465,97.93658,63,58,0
97.997696,98.05881,63,63,0
98.11993,98.18104,63,63,0
98.24215,98.30327,63,66,0
98.36438,98.4255,63,68,0
98.48661,98.556206,63,72,0
98.6258,98.74754,58,74,0
98.6258,98.74754,61,74,0
98.869286,98.93015,63,66,0
98.99103,99.051895,63,68,0
99.11277,99.173645,63,73,0
99.23451,99.29539,63,75,0
99.356255,99.41713,63,78,0
99.478,99.546974,63,78,0
99.615944,99.738174,61,75,0
99.615944,99.738174,55,75,0
99.860405,99.92152,63,64,0
99.982635,100.04375,63,61,0
100.10486,100.16598,63,57,0
100.22709,100.28821,63,55,0
100.34932,100.41044,63,51,0
100.47155,100.53439,63,50,0
108.41576,108.501686,74,33,0
108.6449,108.73564,72,29,0
108.88688,108.976,70,29,0
109.124535,109.2143,69,29,0
109.36391,109.45499,72,33,0
109.60678,109.69786,70,30,0
109.849655,109.93974,69,30,0
110.08989,110.18336,67,30,0
108.41576,110.33914,62,40,0
110.33914,110.42955,74,33,0
110.58024,110.67065,72,29,0
110.821335,110.9111,70,29,0
111.06071,111.15015,69,29,0
111.29922,111.389305,72,33,0
111.539444,111.62953,70,30,0
111.77968,111.86977,69,30,0
112.019905,112.11268,67,30,0
110.33914,112.26729,62,40,0
112.26729,112.357376,69,33,0
112.50752,112.59761,72,29,0
112.74775,112.83784,70,29,0
112.98798,113.07807,67,29,0
113.22821,113.31637,69,33,0
113.46421,113.55168,65,30,0
113.69746,113.78493,67,30,0
113.9307,114.02145,64,30,0
112.26729,114.172676,62,40,0
114.172676,114.26244,69,33,0
114.41205,114.50181,72,29,0
114.65141,114.74118,70,29,0
114.890785,114.980545,67,29,0
115.13015,115.22189,69,33,0
115.37481,115.46655,65,30,0
115.61947,115.71329,69,30,0
115.86965,115.96753,74,30,0
114.172676,116.13066,62,40,0
116.13066,116.2521,73,47,0
116.373535,116.49194,81,39,0
116.61035,116.72876,73,33,0
116.84717,116.968605,81,34,0
117.09004,117.20888,73,42,0
117.327705,117.44654,79,41,0
117.56537,117.6842,73,36,0
117.80303,117.92186,79,37,0
118.04069,118.16213,73,54,0
118.28357,118.40198,82,44,0
118.520386,118.638794,73,37,0
118.7572,118.87864,82,36,0
119.00008,119.118904,73,44,0
119.23774,119.35657,82,41,0
119.4754,119.59423,73,35,0
119.71306,119.831894,82,35,0
118.04069,119.95072,70,46,0
119.95072,120.07216,73,47,0
120.193596,120.312004,81,39,0
120.43041,120.54882,73,33,0
120.66723,120.788666,81,33,0
120.91011,121.02894,73,40,0
121.147766,121.2666,79,38,0
121.38543,121.50426,73,33,0
121.62309,121.74192,79,33,0
121.860756,121.98219,73,54,0
122.10363,122.22204,82,44,0
122.34045,122.458855,73,36,0
122.57726,122.70095,82,36,0
121.860756,122.849556,70,46,0
122.849556,122.969376,70,43,0
123.0887,123.20854,79,40,0
123.32891,123.44997,70,34,0
123.5714,123.69792,79,33,0
122.849556,123.84585,67,43,0
123.84585,123.967285,67,54,0
124.08872,124.20713,76,44,0
124.32554,124.44395,67,36,0
124.562355,124.68605,76,36,0
123.84585,124.834656,64,46,0
124.834656,124.954475,64,43,0
125.07379,125.19364,73,40,0
125.314,125.43506,64,34,0
125.556496,125.68351,73,33,0
124.834656,125.83079,61,43,0
126.07366,126.19207,61,39,0
126.31048,126.42889,61,33,0
126.547295,126.66873,61,33,0
126.79017,126.909424,69,46,0
127.02868,127.147934,61,38,0
127.26719,127.38908,67,41,0
127.510956,127.632835,61,33,0
125.83079,127.75472,55,43,0
127.75472,127.87439,61,40,0
127.87439,127.99408,55,39,0
127.99408,128.11334,61,35,0
128.11334,128.23259,55,34,0
128.23259,128.35143,61,34,0
128.35143,128.47026,55,33,0
128.47026,128.58867,61,33,0
128.58867,128.70708,55,33,0
128.70708,128.82506,61,33,0
128.82506,128.94304,55,32,0
128.94304,129.06102,61,31,0
129.06102,129.179,55,30,0
129.179,129.29698,61,30,0
129.29698,129.41496,55,30,0
129.41496,129.53294,61,30,0
129.53294,129.62143,55,30,0
129.65092,129.7689,54,29,0
129.7689,129.88689,61,23,0
129.88689,130.00662,54,25,0
130.00662,130.12637,61,23,0
130.12637,130.25006,54,29,0
130.25006,130.37375,61,23,0
130.37375,130.49744,54,25,0
130.49744,130.62062,61,23,0
130.62062,130.7433,54,29,0
130.7433,130.86598,61,23,0
130.86598,130.98866,54,25,0
130.98866,131.11134,61,23,0
131.11134,131.23253,54,29,0
131.23253,131.35373,61,23,0
131.35373,131.47491,54,25,0
131.47491,131.59612,61,23,0
131.59612,131.72134,54,29,0
131.72134,131.84659,61,23,0
131.84659,131.97183,54,25,0
131.97183,132.09708,61,23,0
132.09708,132.2223,66,29,0
132.2223,132.34755,73,23,0
132.34755,132.47073,66,25,0
132.47073,132.59392,73,23,0
132.59392,132.84029,66,36,0
134.62878,134.8741,64,26,0
134.8741,135.11925,65,23,0
135.11925,135.36266,67,20,0
135.36266,135.60712,69,20,0
134.62878,135.60712,62,26,0
136.57878,136.82259,76,26,0
136.82259,137.06503,77,23,0
137.06503,137.30746,79,20,0
137.30746,137.55394,81,20,0
136.57878,137.55394,74,26,0
138.03839,138.27606,74,23,0
138.03839,138.27606,81,23,0
138.51682,138.7593,86,23,0
139.00043,139.24646,81,23,0
139.00043,139.24646,74,23,0
139.49203,139.73357,86,23,0
139.97781,140.22025,74,23,0
139.97781,140.22025,81,23,0
140.46227,140.7056,86,23,0
140.95299,141.19952,81,23,0
140.95299,141.19952,74,23,0
141.45735,143.41461,86,23,0
