start_time,end_time,note_value,velocity,instrument_program_number
0.12211,0.25305954,55,25,0
0.25305954,0.38348305,60,26,0
0.38348305,0.51390654,62,24,0
0.51390654,0.64423716,64,29,0
0.64423716,0.7716945,55,27,0
0.7716945,0.8970872,60,27,0
0.8970872,1.0204184,64,26,0
1.0204184,1.1423596,62,31,0
1.1423596,1.2643008,53,29,0
1.2643008,1.3862422,60,30,0
1.3862422,1.5081834,62,27,0
1.5081834,1.6286556,65,34,0
1.6286556,1.7491279,57,31,0
1.7491279,1.8696,59,32,0
1.8696,1.9900724,65,30,0
1.9900724,2.1081734,64,37,0
2.1081734,2.2262743,55,34,0
2.2262743,2.3443754,60,34,0
2.3443754,2.4624763,64,32,0
2.4624763,2.5796547,67,37,0
2.5796547,2.696833,59,34,0
2.696833,2.814011,60,34,0
2.814011,2.9311893,67,32,0
2.9311893,3.0483675,65,38,0
3.0483675,3.165546,57,35,0
3.165546,3.2827241,60,35,0
3.2827241,3.4082365,65,32,0
3.4082365,3.5359502,69,38,0
3.5359502,3.666056,59,35,0
3.666056,3.7987413,65,35,0
3.7987413,3.9341068,69,32,0
3.9341068,4.051139,67,42,0
4.051139,4.168171,60,36,0
4.168171,4.285203,64,36,0
4.285203,4.420131,67,30,0
4.420131,4.6000304,72,50,0
4.540064,4.659997,64,38,0
4.659997,4.7799296,67,38,0
4.7799296,4.8998623,72,32,0
4.8998623,5.077391,74,53,0
5.0182147,5.136567,64,42,0
5.136567,5.2549195,67,42,0
5.2549195,5.3732724,74,35,0
5.3732724,5.550801,72,52,0
5.491625,5.6099772,64,41,0
5.6099772,5.7283297,67,41,0
5.7283297,5.846682,72,38,0
5.846682,6.024211,71,47,0
5.965035,6.0833874,64,38,0
6.0833874,6.20174,67,38,0
6.20174,6.320092,71,27,0
6.320092,6.497621,69,47,0
6.4384446,6.556797,64,35,0
6.556797,6.67515,67,35,0
6.67515,6.7979293,69,27,0
6.7979293,6.9755564,67,45,0
6.9163475,7.0347657,60,35,0
7.0347657,7.1531835,64,35,0
7.1531835,7.2716017,67,27,0
7.2716017,7.4492283,65,46,0
7.3900194,7.5084376,60,35,0
7.5084376,7.6268554,64,35,0
7.6268554,7.7452736,65,27,0
7.862764,7.9802547,59,32,0
7.7452736,8.0879545,64,41,0
7.9802547,8.097745,60,32,0
8.097745,8.215236,64,27,0
8.3327265,8.450216,57,32,0
8.215236,8.557916,62,35,0
8.450216,8.567707,60,32,0
8.567707,8.696828,62,27,0
8.815181,8.933533,59,32,0
8.696828,9.042023,67,41,0
8.933533,9.051886,64,32,0
9.051886,9.189499,67,33,0
9.319542,9.452768,60,37,0
9.189499,9.577697,69,47,0
9.452768,9.589095,64,32,0
9.589095,9.74754,69,27,0
9.886984,10.004475,57,32,0
9.74754,10.111837,64,40,0
10.004475,10.121598,60,32,0
10.121598,10.238722,64,27,0
10.355845,10.472968,57,32,0
10.238722,10.580332,62,39,0
10.472968,10.590092,60,32,0
10.590092,10.707215,62,27,0
10.826623,10.946031,55,32,0
10.707215,11.055489,60,35,0
10.946031,11.065439,57,32,0
11.065439,11.184847,60,27,0
11.306402,11.4279585,53,32,0
11.184847,11.539385,59,35,0
11.4279585,11.549515,55,32,0
11.549515,11.67107,59,27,0
19.661766,19.780119,52,26,0
19.780119,19.90741,56,26,0
20.147274,20.267208,56,31,0
20.267208,20.395096,59,32,0
20.634962,20.754894,59,43,0
20.754894,20.883396,64,43,0
21.125874,21.2495,64,47,0
21.2495,21.411068,68,47,0
23.449924,23.565746,69,32,0
23.565746,23.681566,65,32,0
23.681566,23.797388,62,27,0
23.91321,24.02903,65,32,0
24.02903,24.144852,62,32,0
24.144852,24.26426,59,27,0
24.383667,24.499489,69,32,0
24.499489,24.61531,65,32,0
24.61531,24.73113,62,27,0
24.846952,24.962774,65,34,0
24.962774,25.078594,62,38,0
25.078594,25.198528,59,38,0
25.328894,25.447247,72,44,0
25.447247,25.561594,69,35,0
25.561594,25.675941,65,30,0
25.790287,25.904634,69,38,0
25.904634,26.01898,65,32,0
26.01898,26.135803,62,27,0
26.25521,26.369558,65,31,0
26.369558,26.483904,62,32,0
26.483904,26.598251,59,27,0
26.712599,26.826944,62,30,0
26.826944,26.941292,59,32,0
26.941292,27.06918,55,25,0
27.189112,27.304934,69,32,0
27.304934,27.420755,65,32,0
27.420755,27.536577,62,27,0
27.652397,27.768219,65,32,0
27.768219,27.88404,62,32,0
27.88404,28.003448,59,27,0
28.122856,28.238676,69,32,0
28.238676,28.354498,65,32,0
28.354498,28.47032,62,27,0
28.58614,28.701962,65,33,0
28.701962,28.817783,62,37,0
28.817783,28.950327,59,38,0
29.080694,29.200102,72,43,0
29.200102,29.316923,69,40,0
29.316923,29.433746,65,30,0
29.55057,29.66739,69,40,0
29.66739,29.784214,65,32,0
29.784214,29.903622,62,27,0
30.019938,30.135757,65,31,0
30.135757,30.25158,62,32,0
30.25158,30.367401,59,27,0
30.483223,30.599043,62,30,0
30.599043,30.714865,59,32,0
30.714865,30.834797,55,25,0
30.954731,31.07055,59,32,0
31.07055,31.186373,56,32,0
31.186373,31.302195,52,27,0
31.418015,31.533836,61,38,0
31.533836,31.649658,58,32,0
31.649658,31.769066,54,27,0
31.888998,32.004818,59,32,0
32.004818,32.12064,56,32,0
32.12064,32.23646,52,27,0
32.352283,32.468105,61,39,0
32.468105,32.583927,58,32,0
32.583927,32.703335,54,27,0
32.823265,32.939087,59,32,0
32.939087,33.05491,56,32,0
33.05491,33.17073,52,27,0
33.286552,33.40237,59,32,0
33.40237,33.518192,56,32,0
33.518192,33.635017,52,27,0
33.75133,33.867153,59,32,0
33.867153,33.982975,56,32,0
33.982975,34.098797,52,27,0
34.214615,34.330437,59,30,0
34.330437,34.44626,56,32,0
34.44626,34.565666,52,27,0
34.6856,34.801422,57,32,0
34.801422,34.91724,53,32,0
34.91724,35.033062,50,27,0
35.148884,35.264706,60,39,0
35.264706,35.380527,56,32,0
35.380527,35.499935,53,27,0
35.619865,35.735687,57,32,0
35.735687,35.85151,53,32,0
35.85151,35.96733,50,27,0
36.083153,36.198975,60,38,0
36.198975,36.314796,56,32,0
36.314796,36.434204,53,27,0
36.554134,36.669956,57,32,0
36.669956,36.785778,53,32,0
36.785778,36.9016,50,27,0
37.01742,37.13324,57,32,0
37.13324,37.24906,53,32,0
37.24906,37.365887,50,27,0
37.4822,37.598022,57,32,0
37.598022,37.713844,53,32,0
37.713844,37.829666,50,27,0
37.945484,38.061306,57,30,0
38.061306,38.177128,53,32,0
38.177128,38.296535,50,27,0
38.41647,38.53229,59,28,0
38.53229,38.64811,56,28,0
38.64811,38.76393,50,23,0
38.88173,38.999523,59,26,0
38.999523,39.117317,56,26,0
39.117317,39.250923,50,22,0
39.38219,39.51176,59,25,0
39.51176,39.640217,56,24,0
39.640217,39.76833,50,20,0
39.89788,40.038166,59,22,0
40.038166,40.190125,56,23,0
40.190125,40.403584,50,19,0
40.550255,40.70526,55,24,0
40.70526,40.839973,60,24,0
40.839973,40.973625,62,21,0
40.973625,41.106148,64,28,0
41.106148,41.2371,55,24,0
41.2371,41.364006,60,24,0
41.364006,41.486683,64,24,0
41.486683,41.60929,62,31,0
41.60929,41.7319,53,29,0
41.7319,41.85451,60,30,0
41.85451,41.97712,62,27,0
41.97712,42.09759,65,34,0
42.09759,42.218063,57,31,0
42.218063,42.338535,59,32,0
42.338535,42.459007,65,30,0
42.459007,42.577362,64,37,0
42.577362,42.695713,55,34,0
42.695713,42.814064,60,34,0
42.814064,42.93242,64,32,0
42.93242,43.05077,67,37,0
43.05077,43.169125,59,34,0
43.169125,43.287476,60,34,0
43.287476,43.405827,67,32,0
43.405827,43.52418,66,38,0
43.52418,43.642532,57,35,0
43.642532,43.760887,62,35,0
43.760887,43.8864,66,32,0
43.8864,44.00475,69,38,0
44.00475,44.123104,60,35,0
44.123104,44.241455,66,35,0
44.241455,44.359806,69,32,0
44.359806,44.47816,67,39,0
44.47816,44.59651,62,37,0
44.59651,44.714867,67,40,0
44.714867,44.849792,71,42,0
44.969727,45.08966,71,38,0
44.849792,45.08966,76,62,0
45.08966,45.20669,67,38,0
45.20669,45.32327,62,32,0
45.4403,45.55733,64,36,0
45.55733,45.674366,67,39,0
45.674366,45.807495,69,36,0
45.926384,46.045273,69,40,0
45.807495,46.045273,78,62,0
46.045273,46.161396,67,37,0
46.161396,46.277523,64,35,0
46.395874,46.51423,62,37,0
46.51423,46.63258,67,40,0
46.63258,46.756886,71,42,0
46.87682,46.996754,71,38,0
46.756886,46.996754,76,63,0
46.996754,47.113785,67,38,0
47.113785,47.230362,62,32,0
47.347393,47.464424,64,36,0
47.464424,47.58146,67,39,0
47.58146,47.71459,70,36,0
47.833477,47.952366,70,40,0
47.71459,47.952366,78,61,0
47.952366,48.06849,67,37,0
48.06849,48.184616,64,35,0
48.302967,48.42132,64,37,0
48.42132,48.539673,67,40,0
48.539673,48.66398,74,42,0
48.783913,48.903847,74,38,0
48.903847,49.020878,67,38,0
49.020878,49.137455,64,32,0
48.66398,49.137455,78,63,0
49.254486,49.371517,64,36,0
49.371517,49.488552,67,39,0
49.488552,49.62168,73,36,0
49.74057,49.85946,73,40,0
49.85946,49.975582,67,37,0
49.975582,50.09171,64,35,0
49.62168,50.09171,78,63,0
50.21006,50.328415,64,37,0
50.328415,50.446766,67,40,0
50.446766,50.57107,72,42,0
50.688564,50.806053,72,38,0
50.806053,50.923084,67,38,0
50.57107,50.923084,79,63,0
50.923084,51.03966,64,32,0
51.156696,51.273727,72,38,0
51.273727,51.39076,67,38,0
51.03966,51.39076,78,63,0
51.39076,51.507336,64,32,0
51.623913,51.74049,72,38,0
51.74049,51.857067,67,38,0
51.507336,51.857067,76,63,0
51.857067,51.98086,64,32,0
52.099213,52.217567,64,41,0
52.217567,52.33592,67,41,0
52.33592,52.456238,72,45,0
52.573727,52.691216,72,46,0
52.456238,52.691216,74,58,0
52.691216,52.80825,67,54,0
52.80825,52.936268,64,47,0
52.691216,52.936268,76,54,0
53.0533,53.170334,72,51,0
53.170334,53.287365,67,41,0
53.287365,53.52052,64,32,0
53.52052,53.637096,72,41,0
53.637096,53.753674,67,41,0
53.753674,53.87747,64,34,0
52.936268,53.87747,78,63,0
53.99582,54.11417,64,41,0
54.11417,54.232525,67,41,0
54.232525,54.35284,71,45,0
54.478817,54.604794,71,46,0
54.35284,54.604794,74,58,0
54.604794,54.73687,67,55,0
54.73687,54.87315,64,47,0
54.604794,54.87315,76,55,0
54.99018,55.107212,71,51,0
55.107212,55.224243,67,41,0
55.224243,55.457397,64,32,0
55.457397,55.573975,71,41,0
55.573975,55.69055,67,41,0
55.69055,55.814346,64,34,0
54.87315,55.814346,78,63,0
55.932697,56.051052,64,37,0
56.051052,56.169403,67,40,0
56.169403,56.29371,70,42,0
56.4112,56.52869,70,38,0
56.52869,56.64572,67,38,0
56.29371,56.64572,74,55,0
56.64572,56.7623,64,32,0
56.879333,56.996365,70,37,0
56.996365,57.113396,67,35,0
56.7623,57.113396,76,57,0
57.113396,57.229973,64,32,0
57.34655,57.463127,70,38,0
57.463127,57.579704,67,38,0
57.229973,57.579704,72,53,0
57.579704,57.713093,64,32,0
57.713093,57.826584,74,41,0
57.826584,57.940327,70,41,0
57.940327,58.05431,69,40,0
58.05431,58.168663,67,40,0
58.168663,58.283325,65,39,0
58.283325,58.3983,64,39,0
58.3983,58.513535,62,39,0
58.513535,58.629208,60,38,0
58.629208,58.74513,62,38,0
58.74513,58.861298,58,37,0
58.861298,58.977875,57,35,0
58.977875,59.094826,55,31,0
60.187847,60.329666,58,30,0
60.329666,60.474915,55,30,0
60.474915,60.620167,58,30,0
60.046032,60.620167,62,38,0
60.75935,60.898537,58,31,0
60.898537,61.03772,55,31,0
61.03772,61.176907,58,31,0
60.620167,61.176907,64,38,0
61.317455,61.46194,58,32,0
61.46194,61.610813,55,32,0
61.610813,61.792038,58,32,0
61.176907,61.792038,60,39,0
62.095158,62.39828,53,25,0
62.39828,62.701405,58,25,0
62.701405,63.004524,60,29,0
63.29169,63.59329,65,25,0
63.004524,63.59329,62,32,0
63.59329,63.894886,70,29,0
63.894886,64.19649,72,32,0
64.19649,64.78224,74,37,0
65.37944,65.66388,60,33,0
66.561165,71.52226,63,33,0
65.66388,71.52226,54,32,0
65.96397,71.52226,58,32,0
66.262566,71.52226,60,31,0
71.796814,72.04835,51,22,0
72.04835,72.29171,56,22,0
72.29171,72.53508,58,26,0
72.53508,72.77845,60,33,0
72.77845,73.02182,51,28,0
73.02182,73.26518,56,28,0
73.26518,73.532394,60,28,0
73.532394,73.775764,58,31,0
73.775764,74.03378,51,28,0
74.03378,74.27423,54,28,0
74.27423,74.51467,58,28,0
74.51467,74.75511,61,33,0
74.75511,74.99555,51,28,0
74.99555,75.236,54,28,0
75.236,75.49182,61,28,0
75.766365,76.0179,51,22,0
76.0179,76.26127,56,22,0
76.26127,76.50463,58,26,0
76.50463,76.748,60,33,0
76.748,76.99137,51,28,0
76.99137,77.23474,56,28,0
77.23474,77.50195,60,28,0
77.50195,77.745316,58,31,0
77.745316,78.00334,51,28,0
78.00334,78.24378,54,28,0
78.24378,78.48422,58,28,0
78.48422,78.72466,61,33,0
78.72466,78.96511,51,28,0
78.96511,79.20555,54,28,0
79.20555,79.46137,61,28,0
79.73592,79.98745,54,22,0
79.98745,80.23082,60,22,0
80.23082,80.47419,61,26,0
80.47419,80.71177,63,33,0
80.71177,80.949356,54,29,0
80.949356,81.18694,60,29,0
81.18694,81.42453,63,29,0
81.42453,81.65482,61,41,0
81.65482,81.88512,54,34,0
81.88512,82.1154,58,34,0
82.1154,82.345695,61,41,0
82.345695,82.57599,65,31,0
82.57599,82.806274,54,37,0
82.806274,83.03657,58,43,0
83.03657,83.53319,65,49,0
83.53319,83.7741,54,29,0
83.7741,84.004395,60,29,0
84.004395,84.23468,61,29,0
84.23468,84.46497,63,35,0
84.46497,84.69527,54,27,0
84.69527,84.92556,60,27,0
84.92556,85.16697,63,26,0
85.16697,85.39904,61,30,0
85.39904,85.63111,54,25,0
85.63111,85.86318,58,24,0
85.86318,86.10648,61,24,0
86.10648,86.36064,65,30,0
86.36064,86.6366,54,23,0
86.6366,86.92358,58,23,0
86.92358,87.222466,65,22,0
87.33938,87.466774,55,25,0
87.466774,87.59179,60,26,0
87.59179,87.7168,62,24,0
87.7168,87.84166,64,29,0
87.84166,87.96531,55,27,0
87.96531,88.086555,60,27,0
88.086555,88.20538,64,26,0
88.20538,88.3226,62,31,0
88.3226,88.4398,53,29,0
88.4398,88.55699,60,30,0
88.55699,88.674194,62,27,0
88.674194,88.78954,65,34,0
88.78954,88.90489,57,31,0
88.90489,89.02024,59,32,0
89.02024,89.13559,65,30,0
89.13559,89.24891,64,37,0
89.24891,89.36222,55,34,0
89.36222,89.47554,60,34,0
89.47554,89.58886,64,32,0
89.58886,89.70218,67,37,0
89.70218,89.8155,59,34,0
89.8155,89.92882,60,34,0
89.92882,90.04214,67,32,0
90.04214,90.15546,65,38,0
90.15546,90.268776,57,35,0
90.268776,90.382095,60,35,0
90.382095,90.502266,65,32,0
90.502266,90.621056,69,38,0
90.621056,90.73985,59,35,0
90.73985,90.85864,65,35,0
90.85864,90.97744,69,32,0
90.97744,91.09084,67,42,0
91.09084,91.20425,60,36,0
91.20425,91.31765,64,36,0
91.31765,91.44684,67,30,0
91.44684,91.61908,72,50,0
91.56167,91.6765,64,38,0
91.6765,91.79132,67,38,0
91.79132,91.90615,72,32,0
91.90615,92.07613,74,53,0
92.01947,92.13279,64,42,0
92.13279,92.24611,67,42,0
92.24611,92.35943,74,35,0
92.35943,92.5294,72,52,0
92.47275,92.58607,64,41,0
92.58607,92.69939,67,41,0
92.69939,92.8127,72,38,0
92.8127,92.98268,71,47,0
92.92602,93.03934,64,38,0
93.03934,93.15266,67,38,0
93.15266,93.265976,71,27,0
93.265976,93.43596,69,47,0
93.379295,93.492615,64,35,0
93.492615,93.605934,67,35,0
93.605934,93.71925,69,27,0
93.71925,93.88923,67,45,0
93.83257,93.94589,60,35,0
93.94589,94.05921,64,35,0
94.05921,94.17252,67,27,0
94.17252,94.34251,65,46,0
94.28584,94.39916,60,35,0
94.39916,94.51248,64,35,0
94.51248,94.6258,65,27,0
94.73962,94.85344,57,32,0
94.6258,94.95777,64,41,0
94.85344,94.967255,60,32,0
94.967255,95.08107,64,27,0
95.19489,95.30871,57,32,0
95.08107,95.41304,62,35,0
95.30871,95.42252,60,32,0
95.42252,95.54616,62,27,0
95.65947,95.77279,59,32,0
95.54616,95.87667,67,41,0
95.77279,95.88611,64,32,0
95.88611,96.0195,67,33,0
96.145294,96.27541,60,37,0
96.0195,96.39952,69,47,0
96.27541,96.41104,64,32,0
96.41104,96.55274,69,27,0
96.681755,96.81076,57,32,0
96.55274,96.91472,64,40,0
96.81076,96.924164,60,32,0
96.924164,97.037575,64,27,0
97.15098,97.26438,57,32,0
97.037575,97.36833,62,39,0
97.26438,97.377785,60,32,0
97.377785,97.49119,62,27,0
97.60552,97.71985,55,32,0
97.49119,97.82465,60,35,0
97.71985,97.834175,57,32,0
97.834175,97.94851,60,27,0
98.064896,98.18128,53,32,0
97.94851,98.28797,59,35,0
98.18128,98.29767,55,32,0
98.29767,98.414055,59,27,0
106.0648,106.178116,52,26,0
106.178116,106.29999,56,26,0
106.52964,106.64447,56,31,0
106.64447,106.76692,60,32,0
106.996574,107.111404,60,43,0
107.111404,107.234436,64,43,0
107.464485,107.58013,64,47,0
107.58013,107.698074,68,47,0
107.9283,108.0434,64,50,0
108.0434,108.160866,68,50,0
108.390526,108.505356,68,55,0
108.505356,108.6278,72,53,0
108.85746,108.97229,72,65,0
108.97229,109.09532,76,62,0
109.32537,109.44162,76,68,0
109.44162,109.56153,80,63,0
109.791016,109.901985,79,68,0
109.901985,110.012955,84,64,0
110.23867,110.35153,79,68,0
110.35153,110.464386,84,67,0
110.68513,110.795494,79,68,0
110.795494,110.90586,86,64,0
111.126595,111.23696,79,68,0
111.23696,111.36487,84,64,0
111.64583,111.767876,84,54,0
111.767876,111.883995,89,51,0
112.11028,112.22226,84,54,0
112.22226,112.333374,87,53,0
112.5545,112.66506,80,54,0
112.66506,112.77562,86,51,0
112.99675,113.10731,80,54,0
113.10731,113.23522,84,51,0
113.46569,113.5779,79,54,0
113.5779,113.69012,86,51,0
113.91476,114.02673,79,54,0
114.02673,114.13785,84,53,0
114.35897,114.469536,76,54,0
114.469536,114.58009,83,51,0
114.80122,114.91178,76,54,0
114.91178,115.02235,81,51,0
115.23754,115.34591,72,53,0
115.34591,115.454285,79,49,0
115.673805,115.784805,72,51,0
115.784805,115.89592,77,49,0
116.11704,116.2276,68,48,0
116.2276,116.338165,76,45,0
116.55929,116.66985,68,46,0
116.66985,116.81167,74,43,0
117.029205,117.13797,67,48,0
117.13797,117.25103,74,45,0
117.47298,117.58395,67,61,0
117.58395,117.69311,72,60,0
117.91143,118.02059,67,61,0
118.02059,118.12976,74,57,0
118.34808,118.457245,67,61,0
118.457245,118.57073,72,57,0
118.794334,118.90613,72,61,0
118.901474,119.01327,77,60,0
119.23987,119.350845,72,61,0
119.350845,119.461815,75,60,0
119.67778,119.78577,68,61,0
119.78577,119.893745,74,57,0
120.10972,120.2177,68,61,0
120.2177,120.3419,72,57,0
120.56183,120.67179,67,61,0
120.67179,120.78175,74,60,0
120.9985,121.10687,67,61,0
121.10687,121.21525,72,60,0
121.425674,121.53404,64,61,0
121.54037,121.64874,71,57,0
121.85917,121.96754,64,61,0
121.97386,122.089096,69,57,0
122.310646,122.42142,60,56,0
122.42142,122.532196,67,55,0
122.75132,122.86088,60,53,0
122.86088,122.970436,65,52,0
123.18956,123.299126,56,50,0
123.299126,123.40868,64,46,0
123.62781,123.737366,56,47,0
123.737366,123.8526,62,43,0
123.961365,124.07014,52,59,0
124.07014,124.1789,55,56,0
124.1789,124.28767,62,51,0
124.398636,124.509605,52,48,0
124.509605,124.62058,55,53,0
124.62058,124.73582,60,48,0
124.84458,124.95335,53,46,0
124.95335,125.06211,57,48,0
125.06211,125.17088,62,50,0
125.28268,125.39448,53,56,0
125.39448,125.50628,57,60,0
125.50628,125.61807,60,63,0
125.72783,125.83758,64,59,0
125.83758,125.947334,67,56,0
125.947334,126.05709,74,51,0
126.16806,126.27903,64,48,0
126.27903,126.39,67,53,0
126.39,126.50523,72,48,0
126.615395,126.72555,65,47,0
126.72555,126.83571,69,50,0
126.83571,126.94586,74,54,0
127.05766,127.16946,65,57,0
127.16946,127.28126,69,61,0
127.28126,127.39306,72,62,0
127.50123,127.6094,76,50,0
127.6094,127.71757,72,57,0
127.71757,127.82574,64,61,0
127.9359,128.04605,76,55,0
128.1562,128.26636,64,54,0
128.04605,128.26636,71,62,0
128.37453,128.48271,76,50,0
128.48271,128.59088,72,57,0
128.59088,128.69905,64,61,0
128.808,128.91696,76,55,0
129.02591,129.13487,64,54,0
128.91696,129.13487,71,62,0
129.24304,129.35121,76,55,0
129.35121,129.45938,72,50,0
129.45938,129.56755,64,50,0
129.67456,129.78159,79,59,0
129.78159,129.8886,75,50,0
129.8886,129.9956,67,55,0
130.10094,130.20627,82,61,0
130.20627,130.3116,78,56,0
130.3116,130.41693,70,55,0
130.52225,130.62758,83,64,0
130.62758,130.73291,79,55,0
130.73291,130.84859,71,55,0
130.95676,131.06493,76,50,0
131.06493,131.1731,72,57,0
131.1731,131.28128,64,61,0
131.39143,131.50159,76,55,0
131.61174,131.7219,64,54,0
131.50159,131.7219,71,62,0
131.83006,131.93825,76,50,0
131.93825,132.04642,72,57,0
132.04642,132.15459,64,61,0
132.26353,132.3725,76,55,0
132.48145,132.59041,64,54,0
132.3725,132.59041,71,62,0
132.69858,132.80675,76,55,0
132.80675,132.91492,72,50,0
132.91492,133.02309,64,50,0
133.1301,133.23712,79,59,0
133.23712,133.34413,75,50,0
133.34413,133.45114,67,55,0
133.55684,133.66254,82,61,0
133.66254,133.76825,78,56,0
133.76825,133.87395,70,55,0
133.97964,134.08534,83,64,0
134.08534,134.19104,79,55,0
134.19104,134.30672,71,55,0
134.41077,134.51482,88,73,0
134.51482,134.61885,84,59,0
134.61885,134.7229,76,59,0
134.82695,134.93098,88,72,0
134.93098,135.03503,84,60,0
135.03503,135.13907,76,60,0
135.24312,135.34717,76,71,0
135.34717,135.4512,72,58,0
135.4512,135.55525,64,58,0
135.65929,135.76334,76,71,0
135.76334,135.86739,72,59,0
135.86739,135.97142,64,59,0
136.07642,136.18057,64,73,0
136.18057,136.28441,60,60,0
136.28441,136.38792,52,60,0
136.49113,136.59402,64,73,0
136.59402,136.69661,60,61,0
136.69661,136.79889,52,61,0
136.90082,137.00244,64,76,0
137.00244,137.10376,60,62,0
137.10376,137.2051,52,62,0
137.30783,137.41205,64,75,0
137.41205,137.51758,60,63,0
137.51758,137.77678,52,63,0
137.77678,140.3269,48,72,0
137.77678,140.3269,52,85,0
140.3269,141.28178,50,79,0
140.3269,141.28178,47,79,0
141.28178,141.52051,48,81,0
141.28178,141.52051,52,81,0
143.19154,143.43027,36,92,0
0.0,0.061055,36,28,0
0.061055,4.420131,48,28,0
4.8998623,5.3732724,59,29,0
5.3732724,5.846682,57,29,0
5.846682,6.320092,59,29,0
4.420131,6.320092,60,35,0
6.320092,6.7979293,60,28,0
6.7979293,7.2716017,59,28,0
7.2716017,7.7452736,57,28,0
7.7452736,8.215236,55,29,0
8.215236,8.696828,53,27,0
8.696828,9.189499,52,27,0
9.189499,9.74754,57,27,0
9.74754,10.238722,55,29,0
10.238722,10.707215,53,27,0
10.707215,11.184847,52,27,0
11.184847,11.67107,50,27,0
11.805999,11.927006,48,20,0
11.927006,12.048013,50,21,0
12.048013,12.16902,52,23,0
12.16902,12.288721,53,28,0
12.288721,12.409533,57,31,0
12.409533,12.531486,60,34,0
12.531486,12.653811,62,36,0
12.653811,12.775368,64,41,0
12.775368,12.896383,62,41,0
12.896383,13.0171,60,38,0
13.0171,13.137519,57,35,0
13.137519,13.257452,53,32,0
13.257452,13.377384,52,30,0
13.377384,13.497317,50,26,0
13.497317,13.61725,48,24,0
11.67107,13.61725,41,21,0
13.756345,13.876278,48,21,0
13.876278,13.996211,50,22,0
13.996211,14.11573,52,25,0
14.11573,14.233609,53,30,0
14.233609,14.353117,57,34,0
14.353117,14.474302,60,38,0
14.474302,14.597208,62,42,0
14.597208,14.7193365,64,48,0
14.7193365,14.840705,62,41,0
14.840705,14.961423,60,38,0
14.961423,15.081494,59,35,0
15.081494,15.2009325,57,32,0
15.2009325,15.320341,52,30,0
15.320341,15.439749,50,26,0
15.439749,15.559156,48,24,0
13.61725,15.559156,41,21,0
15.695445,15.815378,48,21,0
15.815378,15.935311,50,22,0
15.935311,16.055244,52,25,0
16.055244,16.174486,53,30,0
16.174486,16.294104,56,34,0
16.294104,16.414509,60,39,0
16.414509,16.535776,62,42,0
16.535776,16.65712,64,48,0
16.65712,16.777376,62,42,0
16.777376,16.89691,60,40,0
16.89691,17.016317,56,36,0
17.016317,17.135725,53,33,0
17.135725,17.255133,52,30,0
17.255133,17.37454,50,26,0
17.37454,17.493948,48,24,0
15.559156,17.493948,41,21,0
17.631626,17.75156,48,21,0
17.75156,17.871492,50,22,0
17.871492,17.990751,52,25,0
17.990751,18.108635,53,31,0
18.108635,18.22769,56,35,0
18.22769,18.34803,60,39,0
18.34803,18.469587,62,42,0
18.469587,18.591532,64,48,0
18.591532,18.71254,62,41,0
18.71254,18.832605,60,40,0
18.832605,18.95165,58,35,0
18.95165,19.070004,56,33,0
19.070004,19.188356,52,30,0
19.188356,19.306707,50,26,0
19.306707,19.42506,48,24,0
17.493948,19.42506,41,21,0
19.42506,19.543413,40,28,0
19.543413,19.661766,47,23,0
19.90741,20.027342,47,35,0
20.027342,20.147274,52,30,0
20.395096,20.515028,52,42,0
20.515028,20.634962,56,39,0
20.883396,21.00389,56,49,0
21.00389,21.125874,59,40,0
21.411068,23.329992,64,61,0
23.329992,23.41994,64,32,0
23.797388,23.884254,64,34,0
24.26426,24.353815,64,34,0
24.73113,24.817997,64,31,0
25.198528,25.296303,67,53,0
25.675941,25.7617,64,37,0
26.135803,26.225359,60,33,0
26.598251,26.684011,57,30,0
27.06918,27.15913,64,32,0
27.536577,27.623442,64,34,0
28.003448,28.093004,64,34,0
28.47032,28.557186,64,31,0
28.950327,29.048101,67,48,0
29.433746,29.521364,64,37,0
29.903622,29.990858,60,33,0
30.367401,30.454268,57,30,0
30.834797,30.924747,53,32,0
31.302195,31.38906,55,46,0
31.769066,31.859015,53,32,0
32.23646,32.323326,55,46,0
32.703335,32.79328,53,32,0
33.17073,33.257595,53,34,0
33.635017,33.72225,53,32,0
34.098797,34.18566,53,34,0
34.565666,34.655617,52,32,0
35.033062,35.11993,55,46,0
35.499935,35.589886,52,32,0
35.96733,36.054195,55,46,0
36.434204,36.52415,52,32,0
36.9016,36.988464,52,34,0
37.365887,37.45312,52,32,0
37.829666,37.91653,52,34,0
38.296535,38.386486,52,28,0
38.76393,38.85228,52,28,0
39.250923,39.349377,52,25,0
39.76833,39.86446,52,25,0
40.403584,40.47692,36,23,0
40.47692,42.93242,48,30,0
42.93242,43.405827,45,30,0
43.405827,43.8864,50,30,0
43.8864,44.359806,47,30,0
45.32327,45.41104,61,50,0
44.359806,46.277523,52,43,0
46.277523,47.230362,52,43,0
47.230362,47.318134,61,50,0
48.184616,49.137455,59,43,0
49.137455,50.09171,58,50,0
50.09171,51.98086,57,43,0
51.98086,53.87747,58,43,0
53.87747,55.814346,59,49,0
55.814346,57.713093,60,58,0
59.094826,59.212032,53,37,0
59.212032,59.32952,52,34,0
59.32952,59.44745,50,34,0
59.44745,59.565548,48,34,0
59.565548,59.68408,46,33,0
59.68408,59.80364,45,33,0
59.80364,59.924324,43,33,0
59.924324,60.046032,41,33,0
60.046032,60.620167,40,31,0
60.620167,61.176907,38,35,0
61.176907,61.792038,36,29,0
64.48365,64.78224,53,25,0
64.78224,65.08084,58,25,0
65.08084,65.37944,62,29,0
61.792038,66.561165,34,26,0
66.561165,67.75555,34,26,0
67.75555,68.33264,39,23,0
68.33264,69.50574,34,26,0
69.50574,70.69775,39,22,0
70.69775,71.52226,34,23,0
74.03378,74.99555,66,41,0
74.03378,74.99555,70,41,0
74.99555,75.49182,65,35,0
74.99555,75.49182,68,35,0
71.538284,75.507835,32,26,0
76.50463,77.50195,66,41,0
76.50463,77.50195,63,41,0
78.00334,78.96511,66,41,0
78.00334,78.96511,70,41,0
78.96511,79.46137,65,35,0
78.96511,79.46137,68,35,0
75.507835,79.47739,32,26,0
83.30378,85.16697,68,60,0
85.16697,86.10648,51,27,0
86.10648,87.222466,44,26,0
79.47739,87.23611,32,26,0
87.222466,90.97744,31,24,0
90.97744,91.44684,36,28,0
87.222466,91.44684,43,28,0
91.90615,92.35943,59,29,0
92.35943,92.8127,57,29,0
92.8127,93.265976,59,29,0
91.44684,93.265976,60,35,0
93.265976,93.71925,60,28,0
93.71925,94.17252,59,28,0
94.17252,94.6258,57,28,0
94.6258,95.08107,55,29,0
95.08107,95.54616,53,27,0
95.54616,96.0195,52,27,0
96.0195,96.55274,57,27,0
96.55274,97.037575,55,29,0
97.037575,97.49119,53,27,0
97.49119,97.94851,52,27,0
97.94851,98.414055,50,27,0
98.54324,98.6591,48,20,0
98.6591,98.774956,50,21,0
98.774956,98.890816,52,23,0
98.890816,99.005424,53,28,0
99.005424,99.12109,57,31,0
99.12109,99.23786,60,34,0
99.23786,99.35499,62,36,0
99.35499,99.471375,64,41,0
99.471375,99.58724,62,41,0
99.58724,99.70282,60,38,0
99.70282,99.818115,57,35,0
99.818115,99.932945,53,32,0
99.932945,100.047775,52,30,0
100.047775,100.162605,50,26,0
100.162605,100.27743,48,24,0
98.414055,100.27743,41,21,0
100.41061,100.52544,48,21,0
100.52544,100.64027,50,22,0
100.64027,100.7547,52,25,0
100.7547,100.86756,53,30,0
100.86756,100.98199,57,34,0
100.98199,101.098015,60,38,0
101.098015,101.21569,62,42,0
101.21569,101.33263,64,48,0
101.33263,101.44883,62,41,0
101.44883,101.564415,60,38,0
101.564415,101.679375,59,35,0
101.679375,101.79373,57,32,0
101.79373,101.908066,52,30,0
101.908066,102.02239,50,26,0
102.02239,102.13673,48,24,0
100.27743,102.13673,41,21,0
102.26721,102.38204,48,21,0
102.38204,102.49687,50,22,0
102.49687,102.6117,52,25,0
102.6117,102.72587,53,30,0
102.72587,102.84039,56,34,0
102.84039,102.95568,60,39,0
102.95568,103.071785,62,42,0
103.071785,103.187965,64,48,0
103.187965,103.30311,62,42,0
103.30311,103.41756,60,40,0
103.41756,103.53188,56,36,0
103.53188,103.64622,53,33,0
103.64622,103.760544,52,30,0
103.760544,103.87487,50,26,0
103.87487,103.989204,48,24,0
102.13673,103.989204,41,21,0
104.121025,104.235855,48,21,0
104.235855,104.35068,50,22,0
104.35068,104.46487,52,25,0
104.46487,104.57773,53,31,0
104.57773,104.69172,56,35,0
104.69172,104.806946,60,39,0
104.806946,104.92333,62,42,0
104.92333,105.040085,64,48,0
105.040085,105.155945,62,41,0
105.155945,105.2709,60,40,0
105.2709,105.38488,58,35,0
105.38488,105.4982,56,33,0
105.4982,105.61152,52,30,0
105.61152,105.72484,50,26,0
105.72484,105.83816,48,24,0
103.989204,105.83816,41,21,0
105.83816,105.95148,40,28,0
105.95148,106.0648,48,23,0
106.29999,106.41481,48,35,0
106.41481,106.52964,52,30,0
106.76692,106.881744,52,42,0
106.881744,106.996574,56,39,0
107.234436,107.34944,56,49,0
107.34944,107.464485,60,40,0
107.698074,107.81319,56,52,0
107.81319,107.9283,60,45,0
108.160866,108.275696,60,55,0
108.275696,108.390526,64,46,0
108.6278,108.74263,64,67,0
108.74263,108.85746,68,56,0
109.09532,109.21033,68,71,0
109.21033,109.32537,72,64,0
109.67628,109.791016,76,72,0
109.56153,110.012955,72,79,0
110.12582,110.23867,76,64,0
110.012955,110.464386,72,71,0
110.57475,110.68513,76,68,0
110.464386,110.90586,74,74,0
111.01623,111.126595,76,64,0
110.90586,111.36487,72,71,0
111.50669,111.64583,80,57,0
111.36487,111.883995,77,63,0
111.99757,112.11028,80,51,0
111.883995,112.333374,75,57,0
112.44393,112.5545,75,54,0
112.333374,112.77562,74,58,0
112.886185,112.99675,75,51,0
112.77562,113.23522,72,57,0
113.35046,113.46569,76,57,0
113.23522,113.69012,74,63,0
113.80234,113.91476,76,51,0
113.69012,114.13785,72,57,0
114.248405,114.35897,72,54,0
114.13785,114.58009,71,58,0
114.69066,114.80122,72,51,0
114.58009,115.02235,69,57,0
115.129944,115.23754,69,57,0
115.02235,115.454285,67,63,0
115.56266,115.673805,69,48,0
115.454285,115.89592,65,55,0
116.00648,116.11704,65,49,0
115.89592,116.338165,64,54,0
116.44873,116.55929,65,44,0
116.338165,116.81167,62,50,0
116.92044,117.029205,64,45,0
116.81167,117.25103,62,48,0
117.36201,117.47298,64,57,0
117.25103,117.69311,60,63,0
117.80227,117.91143,64,61,0
117.69311,118.12976,62,66,0
118.23892,118.34808,64,57,0
118.12976,118.57073,60,63,0
118.68253,118.794334,68,57,0
118.57073,119.01793,65,63,0
119.1289,119.23987,68,57,0
119.01793,119.461815,63,63,0
119.56979,119.67778,63,61,0
119.461815,119.893745,62,66,0
120.00173,120.10972,63,57,0
119.893745,120.3419,60,63,0
120.451866,120.56183,64,57,0
120.3419,120.78175,62,63,0
120.89012,120.9985,64,57,0
120.78175,121.21525,60,63,0
121.32362,121.43199,60,61,0
121.21525,121.64874,59,66,0
121.75712,121.865486,60,57,0
121.64874,122.089096,57,63,0
122.199875,122.310646,57,53,0
122.089096,122.532196,55,59,0
122.641754,122.75132,57,50,0
122.532196,122.970436,53,56,0
123.08,123.18956,53,51,0
122.970436,123.40868,52,56,0
123.51824,123.62781,53,45,0
123.40868,123.8526,50,50,0
123.8526,124.28767,50,66,0
124.28767,124.73582,48,55,0
124.73582,125.17088,50,61,0
125.17088,125.61807,48,55,0
124.73582,125.61807,41,61,0
125.61807,126.05709,62,66,0
126.05709,126.50523,60,55,0
126.50523,126.94586,62,66,0
126.94586,127.39306,60,55,0
126.50523,127.39306,53,57,0
127.39306,127.82574,67,55,0
127.82574,128.04605,69,61,0
127.39306,128.26636,60,57,0
128.26636,128.69905,67,55,0
128.69905,128.91696,69,61,0
128.26636,129.13487,60,57,0
129.13487,129.56755,67,56,0
129.13487,129.56755,60,47,0
129.56755,129.9956,70,61,0
129.56755,129.9956,63,51,0
129.9956,130.41693,66,54,0
129.9956,130.41693,73,64,0
130.41693,130.84859,74,67,0
130.41693,130.84859,67,56,0
130.84859,131.28128,67,55,0
131.28128,131.50159,69,61,0
130.84859,131.7219,60,57,0
131.7219,132.15459,67,55,0
132.15459,132.3725,69,61,0
131.7219,132.59041,60,57,0
132.59041,133.02309,67,56,0
132.59041,133.02309,60,47,0
133.02309,133.45114,70,61,0
133.02309,133.45114,63,51,0
133.45114,133.87395,66,54,0
133.45114,133.87395,73,64,0
133.87395,134.30672,74,67,0
133.87395,134.30672,67,56,0
134.7229,135.13907,72,65,0
134.30672,135.13907,79,70,0
135.55525,135.97142,60,64,0
135.13907,135.97142,67,67,0
135.97142,136.38792,55,70,0
136.38792,136.79889,48,66,0
136.79889,137.2051,43,73,0
137.2051,137.77678,36,68,0
137.77678,141.28178,45,76,0
137.77678,141.28178,41,64,0
141.28178,141.52051,36,61,0
141.28178,141.52051,43,61,0
143.19055,143.42928,24,69,0
