start_time,end_time,note_value,velocity,instrument_program_number
0.0,0.1329315,82,80,0
0.1329315,0.265863,80,74,0
0.3987945,0.531726,82,74,0
0.531726,0.67165124,77,76,0
0.8115765,0.91127515,82,80,0
1.0774395,1.210371,80,80,0
1.210371,1.3433025,77,80,0
1.4820116,1.6207205,75,74,0
1.6207205,2.1502416,71,80,0
2.2826219,2.4123123,68,80,0
2.4123123,2.5420027,65,79,0
2.5420027,2.6716933,63,84,0
2.6716933,3.2012143,59,86,0
3.3335946,3.4638143,56,80,0
3.4638143,3.594034,53,79,0
3.594034,3.7242537,51,84,0
3.7242537,4.002883,47,86,0
4.002883,4.265465,50,82,0
4.002883,4.265465,55,97,0
5.579459,5.678334,58,40,0
5.579459,5.678334,51,40,0
6.1117263,6.1695566,51,50,0
6.1117263,6.1695566,58,57,0
6.227387,6.285217,51,56,0
6.227387,6.285217,58,64,0
6.606714,6.705589,58,40,0
6.606714,6.705589,51,40,0
7.1340466,7.2329216,58,40,0
7.1340466,7.2329216,51,40,0
7.667522,7.72513,51,50,0
7.667522,7.72513,58,57,0
7.782738,7.8403463,51,56,0
7.782738,7.8403463,58,64,0
8.162715,8.262,58,40,0
8.162715,8.262,51,40,0
8.692236,8.791521,58,32,0
8.692236,8.791521,51,32,0
9.221757,9.32445,58,29,0
9.221757,9.32445,51,29,0
9.4956045,9.623733,70,80,0
9.623733,9.751862,68,74,0
9.751862,9.884241,63,45,0
9.751862,9.884241,59,45,0
9.884241,10.016622,70,74,0
10.016622,10.149002,65,76,0
10.281383,10.380668,70,80,0
10.281383,10.413762,63,45,0
10.281383,10.413762,59,45,0
10.546143,10.674272,68,80,0
10.674272,10.8024,65,80,0
10.8024,10.901275,59,45,0
10.934233,11.066066,63,74,0
11.066066,11.20358,59,80,0
11.341094,11.40701,63,80,0
11.341094,11.40701,59,72,0
11.60476,11.707895,58,80,0
11.742274,11.879787,58,74,0
12.013275,12.146763,60,74,0
12.146763,12.278596,58,76,0
12.410429,12.516302,70,80,0
12.377471,12.516302,63,68,0
12.692756,13.783465,58,80,0
13.783465,13.911594,58,64,0
13.911594,14.039722,56,57,0
14.172103,14.304483,58,56,0
14.304483,14.436864,60,64,0
14.569243,14.6723795,56,53,0
14.844272,14.9724,58,64,0
14.9724,15.100529,56,57,0
15.232908,15.365289,58,56,0
15.365289,15.497669,59,64,0
15.63005,15.733185,56,53,0
15.905077,16.033205,58,64,0
16.033205,16.161333,56,59,0
16.293715,16.393,53,59,0
16.426094,16.558474,51,61,0
16.690855,16.823235,50,65,0
16.955616,17.091373,48,71,0
17.227133,17.366447,43,68,0
17.505762,17.6482,48,76,0
17.790636,17.933071,50,80,0
18.075508,18.203636,70,80,0
18.203636,18.331766,68,74,0
18.331766,18.464146,63,45,0
18.331766,18.464146,59,45,0
18.464146,18.596525,70,74,0
18.596525,18.728907,65,76,0
18.861286,18.960571,70,80,0
18.861286,18.993666,63,45,0
18.861286,18.993666,59,45,0
19.126047,19.254175,68,80,0
19.254175,19.382303,65,80,0
19.382303,19.481178,59,45,0
19.514137,19.64597,63,74,0
19.64597,19.783484,59,80,0
19.920998,19.986914,63,80,0
19.920998,19.986914,59,72,0
20.184664,20.2878,58,80,0
20.322178,20.459692,58,74,0
20.59318,20.726667,60,74,0
20.726667,20.8585,58,76,0
20.990334,21.096205,70,80,0
20.957375,21.096205,63,68,0
21.27266,22.363369,58,80,0
22.363369,22.459467,58,55,0
22.491499,22.619627,58,49,0
22.752007,22.884388,60,53,0
22.884388,23.016768,58,61,0
23.149147,23.252283,61,53,0
23.424175,23.520271,63,64,0
23.680431,23.779716,65,61,0
23.945192,24.044477,63,65,0
24.209953,24.309238,66,71,0
24.474714,24.577848,65,80,0
24.612228,24.74974,65,74,0
24.883228,25.016716,67,74,0
25.016716,25.247425,65,76,0
25.280382,25.386255,74,80,0
25.247425,25.386255,67,68,0
25.56271,26.15083,62,72,0
25.56271,26.15083,70,85,0
26.15083,26.44489,94,106,0
26.15083,26.44489,82,90,0
26.738949,26.867077,63,64,0
26.738949,26.867077,60,54,0
26.867077,27.127586,65,57,0
26.867077,27.127586,62,48,0
27.127586,27.259966,67,56,0
27.127586,27.259966,63,47,0
27.259966,27.359251,65,64,0
27.259966,27.359251,62,54,0
27.524727,27.631363,63,53,0
27.524727,27.631363,60,45,0
28.388798,28.678652,82,54,0
28.388798,28.678652,94,64,0
27.809088,28.968508,62,45,0
27.809088,28.968508,65,53,0
28.968508,29.096636,63,64,0
28.968508,29.096636,60,54,0
29.096636,29.357145,65,57,0
29.096636,29.357145,62,48,0
29.357145,29.489525,67,56,0
29.357145,29.489525,63,47,0
29.489525,29.621904,65,64,0
29.489525,29.621904,62,54,0
29.754286,29.858936,63,53,0
29.754286,29.858936,60,45,0
30.033356,30.16972,62,45,0
30.033356,30.16972,65,53,0
30.306084,30.58386,63,53,0
30.306084,30.58386,60,53,0
30.58386,30.850527,65,53,0
30.58386,30.850527,62,53,0
30.850527,30.98386,72,53,0
30.850527,30.98386,70,53,0
30.850527,30.98386,67,53,0
31.117193,33.25747,63,42,0
31.117193,33.25747,60,36,0
31.117193,33.25747,56,36,0
33.25747,34.342373,63,36,0
33.25747,34.342373,60,30,0
33.25747,34.342373,55,30,0
34.4705,34.59863,46,65,0
34.59863,34.734375,48,65,0
34.734375,34.87012,50,67,0
34.87012,35.01505,48,68,0
35.159977,35.272476,46,62,0
35.459976,35.588104,63,64,0
35.459976,35.588104,60,54,0
35.588104,35.848614,65,57,0
35.588104,35.848614,62,48,0
35.848614,35.980995,67,56,0
35.848614,35.980995,63,47,0
35.980995,36.08028,65,64,0
35.980995,36.08028,62,54,0
36.245754,36.35239,63,53,0
36.245754,36.35239,60,45,0
37.109825,37.39968,82,54,0
37.109825,37.39968,94,64,0
36.530113,37.689533,62,45,0
36.530113,37.689533,65,53,0
37.689533,37.81766,63,64,0
37.689533,37.81766,60,54,0
37.81766,38.07817,65,57,0
37.81766,38.07817,62,48,0
38.07817,38.210552,67,56,0
38.07817,38.210552,63,47,0
38.210552,38.342934,65,64,0
38.210552,38.342934,62,54,0
38.47531,38.579964,63,53,0
38.47531,38.579964,60,45,0
38.754383,38.890747,62,45,0
38.754383,38.890747,65,53,0
39.02711,39.304886,63,53,0
39.02711,39.304886,60,53,0
39.304886,39.571556,65,53,0
39.304886,39.571556,62,53,0
39.571556,39.704887,72,53,0
39.571556,39.704887,70,53,0
39.571556,39.704887,67,53,0
39.838223,39.971153,82,80,0
39.971153,40.104084,80,74,0
40.237015,40.369946,82,74,0
40.369946,40.509872,77,76,0
40.649796,40.749496,82,80,0
40.91566,41.04859,80,80,0
41.04859,41.181522,77,80,0
39.838223,41.458942,75,60,0
41.320232,41.458942,75,74,0
39.838223,41.458942,71,60,0
41.458942,41.98846,71,80,0
42.120842,42.25106,68,80,0
42.25106,42.381283,65,79,0
42.381283,42.5115,63,84,0
42.5115,42.650818,59,86,0
42.79013,43.05271,50,82,0
42.79013,43.05271,55,97,0
43.31638,43.415253,58,40,0
43.31638,43.415253,51,40,0
43.84371,43.954548,58,40,0
43.84371,43.954548,51,40,0
45.455578,45.55445,58,39,0
45.455578,45.55445,51,39,0
45.98291,46.093746,58,36,0
45.98291,46.093746,51,36,0
47.594776,47.69365,58,39,0
47.594776,47.69365,51,39,0
48.12211,48.232944,58,36,0
48.12211,48.232944,51,36,0
49.6712,49.738163,57,25,0
49.738163,49.805126,58,25,0
49.738163,49.805126,61,30,0
50.206913,50.273876,57,25,0
50.273876,50.340843,58,25,0
50.273876,50.340843,61,30,0
50.742626,50.809593,55,25,0
50.809593,50.87567,59,33,0
50.809593,50.87567,56,28,0
51.267876,51.33253,56,25,0
51.33253,51.397186,57,32,0
51.33253,51.397186,60,38,0
51.33253,51.397186,65,38,0
51.79204,51.859005,57,25,0
51.859005,51.925972,58,25,0
51.859005,51.925972,61,30,0
52.327755,52.394722,57,25,0
52.394722,52.461685,58,25,0
52.394722,52.461685,61,30,0
52.863472,52.930435,55,25,0
52.930435,52.996513,59,33,0
52.930435,52.996513,56,28,0
53.388718,53.453373,56,25,0
53.453373,53.51803,57,32,0
53.453373,53.51803,60,38,0
53.453373,53.51803,65,38,0
53.912884,53.97985,57,25,0
53.97985,54.046814,58,25,0
53.97985,54.046814,61,30,0
55.267605,55.33226,57,25,0
55.33226,55.396915,61,33,0
55.33226,55.396915,58,28,0
57.408943,57.476723,48,21,0
57.476723,57.54538,51,27,0
57.476723,57.54538,47,22,0
58.24681,58.313778,57,25,0
58.313778,58.38074,58,25,0
58.313778,58.38074,61,30,0
58.782528,58.84949,57,25,0
58.84949,58.916454,58,25,0
58.84949,58.916454,61,30,0
59.31824,59.385204,55,25,0
59.385204,59.451283,59,33,0
59.385204,59.451283,56,28,0
59.843487,59.908142,56,25,0
59.908142,59.972797,57,32,0
59.908142,59.972797,60,38,0
59.908142,59.972797,65,38,0
60.367657,60.43462,57,25,0
60.43462,60.501583,58,25,0
60.43462,60.501583,61,30,0
60.90337,60.970333,57,25,0
60.970333,61.037296,58,25,0
60.970333,61.037296,61,30,0
61.439083,61.506046,55,25,0
61.506046,61.57213,59,33,0
61.506046,61.57213,56,28,0
61.96433,62.028984,56,25,0
62.028984,62.09364,57,32,0
62.028984,62.09364,60,38,0
62.028984,62.09364,65,38,0
62.4885,62.55546,57,25,0
62.55546,62.622425,58,25,0
62.55546,62.622425,61,30,0
65.65671,66.82513,65,63,0
65.00806,66.82513,57,46,0
66.82513,67.301315,58,68,0
66.82513,67.301315,64,68,0
67.624954,67.691734,74,25,0
67.691734,67.75781,75,33,0
67.691734,67.75781,71,28,0
67.88998,67.956055,72,25,0
67.956055,68.020706,73,33,0
67.956055,68.020706,71,28,0
68.15002,68.214676,74,25,0
68.214676,68.27933,71,38,0
68.214676,68.27933,75,38,0
67.301315,68.4733,59,41,0
67.301315,68.4733,63,49,0
68.66726,68.73405,74,25,0
68.73405,68.800125,75,33,0
68.73405,68.800125,71,28,0
68.93228,68.99836,72,25,0
68.99836,69.06302,73,33,0
68.99836,69.06302,71,28,0
69.19233,69.25698,74,25,0
69.25698,69.32164,71,38,0
69.25698,69.32164,75,38,0
70.681496,71.849915,65,63,0
71.849915,72.3261,64,68,0
70.032845,72.3261,57,46,0
72.649734,72.71652,74,25,0
72.71652,72.7826,75,33,0
72.71652,72.7826,70,28,0
72.91476,72.98084,72,25,0
72.98084,73.045494,73,33,0
72.98084,73.045494,70,28,0
73.174805,73.23946,74,25,0
73.23946,73.304115,70,38,0
73.23946,73.304115,75,38,0
72.3261,73.49808,58,41,0
72.3261,73.49808,63,49,0
73.69205,73.758835,74,25,0
73.758835,73.82491,75,33,0
73.758835,73.82491,70,28,0
73.95707,74.02315,72,25,0
74.02315,74.08781,73,33,0
74.02315,74.08781,70,28,0
74.21712,74.28177,74,25,0
74.28177,74.34643,70,38,0
74.28177,74.34643,75,38,0
75.05763,75.706276,69,50,0
75.706276,76.07438,77,63,0
76.07438,76.874695,80,74,0
76.874695,77.35089,78,68,0
77.35089,77.48031,75,68,0
77.35089,77.60973,70,57,0
77.48031,77.73915,78,74,0
77.73915,77.878174,77,68,0
77.60973,77.878174,68,72,0
77.878174,78.13702,66,66,0
78.13702,78.40511,65,57,0
77.878174,78.40511,73,78,0
78.40511,78.542854,68,57,0
78.40511,78.680595,63,48,0
78.542854,78.829994,71,61,0
78.829994,79.006676,70,57,0
78.680595,79.006676,61,55,0
79.006676,79.694176,61,50,0
79.32787,80.06048,58,42,0
79.006676,80.7511,59,42,0
80.42677,81.83568,57,46,0
81.075424,82.24384,65,63,0
82.24384,82.72003,64,68,0
81.83568,82.72003,58,68,0
83.04367,83.11045,74,25,0
83.11045,83.17654,75,33,0
83.11045,83.17654,71,28,0
83.30869,83.37477,72,25,0
83.37477,83.43942,73,33,0
83.37477,83.43942,71,28,0
83.56873,83.63339,74,25,0
83.63339,83.698044,71,38,0
83.63339,83.698044,75,38,0
82.72003,83.89201,59,41,0
82.72003,83.89201,63,49,0
85.08482,86.25324,65,63,0
86.25324,86.72943,64,53,0
84.43617,86.72943,57,46,0
87.05306,87.11985,74,25,0
87.11985,87.18593,75,33,0
87.11985,87.18593,70,28,0
87.31809,87.38417,72,25,0
87.38417,87.44882,73,33,0
87.38417,87.44882,70,28,0
87.57813,87.64279,74,25,0
87.64279,87.70744,70,38,0
87.64279,87.70744,75,38,0
86.72943,87.901405,58,41,0
86.72943,87.901405,63,49,0
88.41865,89.0673,73,50,0
89.0673,89.435394,81,63,0
89.435394,90.23572,83,74,0
90.23572,90.71191,82,68,0
90.71191,90.84133,77,68,0
90.71191,90.97075,70,57,0
90.84133,91.100174,80,74,0
91.100174,91.23919,78,68,0
90.97075,91.23919,68,72,0
91.23919,91.49804,66,66,0
91.49804,91.76613,65,57,0
91.23919,91.76613,75,78,0
91.76613,91.8976,70,57,0
91.8976,92.17178,73,61,0
92.17178,92.3145,71,57,0
92.3145,92.70547,65,50,0
92.70547,92.88839,66,50,0
95.52811,95.66028,70,43,0
95.66028,95.93427,68,47,0
95.93427,96.208275,70,41,0
96.61329,96.7443,70,43,0
96.7443,97.01582,68,47,0
97.01582,97.31733,70,41,0
92.88839,97.31733,63,31,0
92.88839,97.31733,59,31,0
92.88839,97.31733,54,31,0
97.31733,98.4137,54,31,0
98.82469,98.95923,70,34,0
98.95923,99.24497,68,39,0
99.24497,99.530716,70,34,0
99.95933,100.12509,70,33,0
100.12509,100.48229,68,40,0
100.48229,100.84161,70,32,0
98.4137,100.84161,53,31,0
97.31733,100.84161,61,31,0
97.31733,100.84161,59,31,0
100.84161,100.97899,70,39,0
100.97899,101.11636,68,34,0
101.25374,101.39111,70,42,0
101.39111,101.537186,65,45,0
101.68326,101.78676,70,48,0
101.95927,102.10463,68,39,0
102.10463,102.24999,65,34,0
102.395355,102.540726,63,42,0
102.540726,102.70082,59,45,0
102.86092,102.9755,63,48,0
103.16646,103.26959,58,80,0
103.30397,103.44148,58,74,0
103.574974,103.70846,60,74,0
103.70846,103.840294,58,76,0
103.97213,104.077995,70,80,0
103.93917,104.077995,63,68,0
104.254456,105.34516,58,80,0
105.34516,105.47329,58,64,0
105.47329,105.60142,56,57,0
105.7338,105.86618,58,56,0
105.86618,105.96546,60,64,0
106.13094,106.23408,56,53,0
106.40597,106.534096,58,64,0
106.534096,106.662224,56,57,0
106.79461,106.92699,58,56,0
106.92699,107.02627,59,64,0
107.19175,107.29488,56,53,0
107.466774,107.5949,58,64,0
107.5949,107.72303,56,59,0
107.85541,107.9547,53,59,0
107.98779,108.12017,51,61,0
108.25255,108.38493,50,65,0
108.51731,108.65307,48,71,0
108.78883,108.92815,43,68,0
109.06746,109.20989,48,76,0
109.35233,109.49477,50,80,0
109.63721,109.765335,70,80,0
109.765335,109.89346,68,74,0
109.89346,110.02584,59,45,0
109.89346,110.02584,63,45,0
110.02584,110.158226,70,74,0
110.158226,110.2906,65,76,0
110.42298,110.52227,70,80,0
110.42298,110.55537,63,45,0
110.42298,110.55537,59,45,0
110.687744,110.81587,68,80,0
110.81587,110.944,65,80,0
110.944,111.04288,59,45,0
111.075836,111.207664,63,74,0
111.207664,111.345184,59,80,0
111.4827,111.548615,59,72,0
111.4827,111.548615,63,80,0
111.74636,111.849495,58,80,0
111.88387,112.021385,58,74,0
112.15488,112.28836,60,74,0
112.28836,112.4202,58,76,0
112.55203,112.657906,70,80,0
112.51907,112.657906,63,68,0
112.83436,113.925064,58,80,0
113.925064,114.021164,58,55,0
114.05319,114.18132,58,49,0
114.313705,114.44608,60,53,0
114.44608,114.54537,58,61,0
114.710846,114.81398,61,53,0
114.98587,115.08197,63,64,0
115.24213,115.341415,65,61,0
115.50689,115.60618,63,65,0
115.77165,115.87093,66,71,0
116.03641,116.13955,65,80,0
116.17393,116.31144,65,74,0
116.44492,116.578415,67,74,0
116.578415,116.80912,65,76,0
116.84208,116.94795,74,80,0
116.80912,116.94795,67,68,0
117.124405,117.712524,70,85,0
117.124405,117.712524,62,72,0
117.712524,118.006584,82,90,0
117.712524,118.006584,94,106,0
118.300644,118.42877,60,54,0
118.300644,118.42877,63,64,0
118.42877,118.689285,65,57,0
118.42877,118.689285,62,48,0
118.689285,118.82166,63,47,0
118.689285,118.82166,67,56,0
118.82166,118.92095,65,64,0
118.82166,118.92095,62,54,0
119.086426,119.19306,63,53,0
119.086426,119.19306,60,45,0
119.95049,120.24035,82,54,0
119.95049,120.24035,94,64,0
119.37078,120.530205,62,45,0
119.37078,120.530205,65,53,0
120.530205,120.65833,63,64,0
120.530205,120.65833,60,54,0
120.65833,120.91884,62,48,0
120.65833,120.91884,65,57,0
120.91884,121.05122,63,47,0
120.91884,121.05122,67,56,0
121.05122,121.150505,62,54,0
121.05122,121.150505,65,64,0
121.31598,121.42063,63,53,0
121.31598,121.42063,60,45,0
121.595055,121.731415,62,45,0
121.595055,121.731415,65,53,0
121.86778,122.14556,63,53,0
121.86778,122.14556,60,53,0
122.14556,122.412224,65,53,0
122.14556,122.412224,62,53,0
122.412224,122.545555,67,53,0
122.412224,122.545555,72,53,0
122.412224,122.545555,70,53,0
122.69262,123.76276,64,42,0
122.69262,123.76276,61,36,0
122.69262,123.76276,57,36,0
123.76276,124.83289,65,42,0
123.76276,124.83289,60,36,0
123.76276,124.83289,56,36,0
124.83289,125.91779,53,30,0
126.17405,126.3098,48,69,0
126.3098,126.44554,50,73,0
126.44554,126.59047,48,76,0
124.83289,127.209404,55,30,0
124.83289,127.209404,58,36,0
125.91779,127.209404,51,30,0
127.209404,127.33753,63,64,0
127.209404,127.33753,60,54,0
127.33753,127.598045,65,57,0
127.33753,127.598045,62,48,0
127.598045,127.73042,63,47,0
127.598045,127.73042,67,56,0
127.73042,127.82971,62,54,0
127.73042,127.82971,65,64,0
127.995186,128.10182,60,45,0
127.995186,128.10182,63,53,0
128.8852,129.17505,82,54,0
128.8852,129.17505,94,64,0
128.27954,129.4649,65,53,0
128.27954,129.4649,62,45,0
129.4649,129.59303,63,64,0
129.4649,129.59303,60,54,0
129.59303,129.85353,65,57,0
129.59303,129.85353,62,48,0
129.85353,129.98592,63,47,0
129.85353,129.98592,67,56,0
129.98592,130.0852,62,54,0
129.98592,130.0852,65,64,0
130.25067,130.35533,60,45,0
130.25067,130.35533,63,53,0
130.52975,130.6661,65,53,0
130.52975,130.6661,62,45,0
130.80247,131.08025,60,53,0
130.80247,131.08025,63,53,0
131.08025,131.34692,62,53,0
131.08025,131.34692,65,53,0
131.34692,131.48026,72,53,0
131.34692,131.48026,67,53,0
131.34692,131.48026,70,53,0
131.61359,131.74652,82,80,0
131.74652,131.87946,80,74,0
132.01237,132.14531,82,74,0
132.14531,132.28523,77,76,0
132.42516,132.52486,82,80,0
132.69102,132.82396,80,80,0
132.82396,132.9569,77,80,0
131.61359,133.23431,75,60,0
133.0956,133.23431,75,74,0
131.61359,133.23431,71,60,0
133.23431,133.76382,71,80,0
133.89621,134.02643,68,80,0
134.02643,134.15665,65,79,0
134.15665,134.28687,63,84,0
134.28687,134.42618,59,86,0
134.56549,134.82808,50,82,0
134.56549,134.82808,55,97,0
135.09175,135.19061,51,40,0
135.09175,135.19061,58,40,0
135.61908,135.72992,51,40,0
135.61908,135.72992,58,40,0
137.23094,137.32982,58,33,0
137.23094,137.32982,51,33,0
137.75827,137.86911,58,30,0
137.75827,137.86911,51,30,0
139.41382,139.52097,51,28,0
139.41382,139.52097,58,28,0
139.98524,140.10182,51,25,0
139.98524,140.10182,58,25,0
140.88905,141.20088,47,70,0
141.20088,141.2793,46,75,0
141.27222,141.34953,44,77,0
141.34254,141.41905,43,79,0
141.41216,141.48907,41,81,0
141.48189,141.76955,51,85,0
142.63252,142.95935,51,89,0
0.0,0.1329315,70,68,0
0.1329315,0.265863,68,62,0
0.3987945,0.531726,70,62,0
0.531726,0.67165124,65,64,0
0.8115765,0.91127515,70,68,0
1.0774395,1.210371,68,68,0
1.210371,1.3433025,65,68,0
1.4820116,1.6207205,63,62,0
1.6207205,2.1502416,59,68,0
2.2826219,2.4123123,56,65,0
2.4123123,2.5420027,53,65,0
2.5420027,2.6716933,51,67,0
2.6716933,3.2012143,47,71,0
3.3335946,3.4638143,44,65,0
3.4638143,3.594034,41,65,0
3.594034,3.7242537,39,67,0
3.7242537,4.002883,35,71,0
4.002883,4.265465,34,66,0
4.002883,4.265465,46,78,0
5.3157926,5.4146676,46,40,0
5.3157926,5.4146676,39,40,0
5.579459,5.678334,53,33,0
5.579459,5.678334,55,33,0
5.843126,5.943851,46,40,0
5.843126,5.943851,39,40,0
6.1117263,6.1984715,53,35,0
6.1117263,6.1984715,55,35,0
6.343047,6.441922,46,40,0
6.343047,6.441922,39,40,0
6.606714,6.705589,53,33,0
6.606714,6.705589,55,33,0
6.8703804,6.969255,46,40,0
6.8703804,6.969255,39,40,0
7.1340466,7.2329216,53,33,0
7.1340466,7.2329216,55,33,0
7.397713,7.4988914,46,40,0
7.397713,7.4988914,39,40,0
7.667522,7.753934,53,35,0
7.667522,7.753934,55,35,0
7.8979545,7.9972396,46,40,0
7.8979545,7.9972396,39,40,0
8.162715,8.262,53,33,0
8.162715,8.262,55,33,0
8.427475,8.52676,46,34,0
8.427475,8.52676,39,34,0
8.692236,8.791521,53,27,0
8.692236,8.791521,55,27,0
8.956996,9.056281,46,31,0
8.956996,9.056281,39,31,0
9.221757,9.32445,53,24,0
9.221757,9.32445,55,24,0
9.4956045,9.591701,46,40,0
9.4956045,9.591701,39,40,0
9.751862,9.851147,53,33,0
9.751862,9.851147,56,33,0
10.016622,10.115907,46,40,0
10.016622,10.115907,39,40,0
10.281383,10.380668,53,35,0
10.281383,10.380668,56,35,0
10.546143,10.64224,46,40,0
10.546143,10.64224,39,40,0
10.8024,10.901275,53,33,0
10.8024,10.901275,56,33,0
11.066066,11.169202,46,40,0
11.066066,11.169202,39,40,0
11.341094,11.439969,53,33,0
11.341094,11.439969,56,33,0
11.60476,11.707895,46,40,0
11.60476,11.707895,39,34,0
11.879787,11.979903,53,28,0
11.879787,11.979903,55,33,0
12.146763,12.245638,39,39,0
12.146763,12.245638,46,47,0
12.410429,12.516302,55,41,0
12.410429,12.516302,53,34,0
12.692756,12.79501,39,42,0
12.692756,12.79501,46,50,0
12.965433,13.067687,55,40,0
12.965433,13.067687,53,34,0
13.238111,13.340364,39,36,0
13.238111,13.340364,46,43,0
13.510788,13.613042,55,35,0
13.510788,13.613042,53,29,0
13.783465,13.879562,46,40,0
13.783465,13.879562,39,40,0
14.039722,14.139008,51,33,0
14.039722,14.139008,53,33,0
14.304483,14.403769,46,40,0
14.304483,14.403769,39,40,0
14.569243,14.6723795,51,35,0
14.569243,14.6723795,53,35,0
14.844272,14.940368,46,40,0
14.844272,14.940368,39,40,0
15.100529,15.199814,51,33,0
15.100529,15.199814,53,33,0
15.365289,15.464574,46,40,0
15.365289,15.464574,39,40,0
15.63005,15.733185,51,35,0
15.63005,15.733185,53,35,0
15.905077,16.033205,46,54,0
16.033205,16.161333,44,50,0
16.293715,16.393,41,50,0
16.426094,16.558474,39,51,0
16.690855,16.823235,38,55,0
16.955616,17.091373,36,60,0
17.227133,17.366447,31,57,0
17.505762,17.6482,36,64,0
17.790636,17.933071,38,68,0
18.075508,18.171604,46,40,0
18.075508,18.171604,39,40,0
18.331766,18.431051,53,33,0
18.331766,18.431051,56,33,0
18.596525,18.69581,46,40,0
18.596525,18.69581,39,40,0
18.861286,18.960571,53,35,0
18.861286,18.960571,56,35,0
19.126047,19.222143,46,40,0
19.126047,19.222143,39,40,0
19.382303,19.481178,53,33,0
19.382303,19.481178,56,33,0
19.64597,19.749105,46,40,0
19.64597,19.749105,39,40,0
19.920998,20.019873,53,33,0
19.920998,20.019873,56,33,0
20.184664,20.2878,46,40,0
20.184664,20.2878,39,34,0
20.459692,20.559807,53,28,0
20.459692,20.559807,55,33,0
20.726667,20.825542,39,39,0
20.726667,20.825542,46,47,0
20.990334,21.096205,55,41,0
20.990334,21.096205,53,34,0
21.27266,21.374914,39,42,0
21.27266,21.374914,46,50,0
21.545338,21.64759,55,40,0
21.545338,21.64759,53,34,0
21.818014,21.920269,39,36,0
21.818014,21.920269,46,43,0
22.090693,22.192945,55,35,0
22.090693,22.192945,53,29,0
22.363369,22.459467,49,40,0
22.363369,22.459467,42,34,0
22.619627,22.685818,49,28,0
22.619627,22.718912,54,28,0
22.619627,22.718912,56,33,0
22.884388,22.983673,49,40,0
22.884388,22.983673,42,34,0
23.149147,23.217905,49,29,0
23.149147,23.252283,54,29,0
23.149147,23.252283,57,35,0
23.424175,23.520271,42,36,0
23.424175,23.520271,49,43,0
23.680431,23.746622,49,31,0
23.680431,23.779716,58,37,0
23.680431,23.779716,54,31,0
23.945192,24.044477,42,38,0
23.945192,24.044477,49,45,0
24.209953,24.276144,49,35,0
24.209953,24.309238,59,42,0
24.209953,24.309238,54,35,0
24.74974,24.849857,61,42,0
24.74974,24.883228,64,67,0
25.016716,25.280382,63,64,0
25.016716,25.280382,60,57,0
25.280382,25.350964,53,49,0
25.280382,25.386255,57,49,0
25.280382,25.386255,63,58,0
25.56271,25.85677,46,62,0
25.56271,25.85677,58,73,0
25.56271,25.85677,53,62,0
26.15083,26.44489,46,71,0
26.15083,26.44489,34,60,0
26.738949,26.835045,58,40,0
26.738949,26.835045,56,40,0
26.995207,27.094492,68,33,0
26.995207,27.094492,70,33,0
27.259966,27.359251,58,40,0
27.259966,27.359251,56,40,0
27.524727,27.631363,68,35,0
27.524727,27.631363,70,35,0
27.809088,27.917784,58,40,0
27.809088,27.917784,56,40,0
28.098942,28.207638,68,33,0
28.098942,28.207638,70,33,0
28.388798,28.497494,58,40,0
28.388798,28.497494,56,40,0
28.678652,28.787348,68,35,0
28.678652,28.787348,70,35,0
28.968508,29.064604,58,40,0
28.968508,29.064604,55,40,0
29.224764,29.324049,70,33,0
29.489525,29.58881,58,40,0
29.489525,29.58881,55,40,0
29.754286,29.858936,70,35,0
30.033356,30.16972,58,40,0
30.033356,30.16972,55,40,0
30.306084,30.41025,70,33,0
30.58386,30.850527,58,40,0
30.58386,30.850527,55,40,0
30.850527,30.950527,63,35,0
31.117193,31.245323,46,44,0
31.245323,31.373451,48,39,0
31.50583,31.63821,50,39,0
31.63821,31.770592,48,44,0
31.902971,32.009605,46,37,0
32.187332,32.31546,46,44,0
32.31546,32.44359,48,39,0
32.57597,32.70835,50,39,0
32.70835,32.84073,48,44,0
32.97311,33.079746,46,37,0
33.25747,33.386227,46,37,0
33.386227,33.51498,48,33,0
33.64951,33.78404,50,33,0
33.78404,33.921024,48,37,0
34.05801,34.164646,46,31,0
34.4705,34.59863,34,65,0
34.59863,34.734375,36,65,0
34.734375,34.87012,38,67,0
34.87012,35.01505,36,68,0
35.159977,35.272476,34,62,0
35.159977,35.272476,22,55,0
35.459976,35.556072,58,40,0
35.459976,35.556072,56,40,0
35.716232,35.815517,68,33,0
35.716232,35.815517,70,33,0
35.980995,36.08028,58,40,0
35.980995,36.08028,56,40,0
36.245754,36.35239,68,35,0
36.245754,36.35239,70,35,0
36.530113,36.63881,58,40,0
36.530113,36.63881,56,40,0
36.81997,36.928665,68,33,0
36.81997,36.928665,70,33,0
37.109825,37.21852,58,40,0
37.109825,37.21852,56,40,0
37.39968,37.508373,68,35,0
37.39968,37.508373,70,35,0
37.689533,37.78563,58,40,0
37.689533,37.78563,55,40,0
37.945793,38.04508,70,33,0
37.945793,38.04508,67,33,0
38.210552,38.309837,58,40,0
38.210552,38.309837,55,40,0
38.47531,38.579964,70,35,0
38.47531,38.579964,67,33,0
38.754383,38.890747,58,40,0
38.754383,38.890747,55,40,0
39.02711,39.131275,70,33,0
39.02711,39.131275,67,33,0
39.304886,39.571556,58,40,0
39.304886,39.571556,55,40,0
39.571556,39.671555,63,35,0
39.838223,39.971153,70,68,0
39.971153,40.104084,68,62,0
40.237015,40.369946,70,62,0
40.369946,40.509872,65,64,0
40.649796,40.749496,70,68,0
40.91566,41.04859,68,68,0
41.04859,41.181522,65,68,0
39.838223,41.458942,63,51,0
41.320232,41.458942,63,62,0
39.838223,41.458942,59,51,0
41.458942,41.98846,59,68,0
42.120842,42.25106,56,65,0
42.25106,42.381283,53,65,0
42.381283,42.5115,51,67,0
42.5115,42.650818,47,71,0
42.79013,43.05271,34,66,0
42.79013,43.05271,46,78,0
43.31638,43.415253,53,33,0
43.31638,43.415253,55,33,0
43.580048,43.67892,46,40,0
43.580048,43.67892,39,40,0
43.84371,43.954548,53,33,0
43.84371,43.954548,55,33,0
44.13928,44.665596,46,40,0
44.13928,44.665596,39,34,0
45.455578,45.55445,53,32,0
45.455578,45.55445,55,32,0
45.719242,45.81812,46,38,0
45.719242,45.81812,39,38,0
45.98291,46.093746,53,29,0
45.98291,46.093746,55,29,0
46.278477,46.804794,46,34,0
46.278477,46.804794,39,29,0
47.594776,47.69365,53,32,0
47.594776,47.69365,55,32,0
47.85844,47.957317,46,38,0
47.85844,47.957317,39,38,0
48.12211,48.232944,53,30,0
48.12211,48.232944,55,30,0
48.417675,48.943993,39,34,0
48.943993,49.470306,41,34,0
49.470306,49.604237,42,30,0
50.00602,50.13995,42,29,0
50.541737,50.675663,42,30,0
51.07391,51.20322,42,29,0
51.526493,51.59115,51,24,0
49.470306,51.59115,49,30,0
51.59115,51.72508,42,30,0
52.126865,52.26079,42,29,0
52.66258,52.796505,42,30,0
53.19475,53.324062,42,29,0
51.59115,53.711994,49,30,0
53.97985,54.113777,42,29,0
54.247707,54.382843,41,29,0
54.51798,54.65882,39,29,0
54.799667,55.07364,37,37,0
53.711994,55.849503,49,30,0
56.11736,56.251286,42,29,0
56.385216,56.52035,41,29,0
56.655487,56.79633,39,29,0
56.937176,57.07416,37,37,0
57.211147,57.342106,35,32,0
57.476723,57.61419,34,30,0
57.7518,57.89886,32,30,0
58.04592,58.179848,42,30,0
58.581635,58.71556,42,29,0
59.117348,59.251278,42,30,0
59.64952,59.77883,42,29,0
60.102108,60.166763,51,24,0
58.04592,60.166763,49,30,0
60.166763,60.30069,42,30,0
60.702477,60.836407,42,29,0
61.23819,61.37212,42,30,0
61.770363,61.899673,42,29,0
60.166763,62.287605,49,30,0
62.55546,62.689392,42,29,0
62.82332,62.958454,41,29,0
63.09359,63.234436,39,29,0
63.37528,63.649254,37,37,0
62.287605,64.68373,49,30,0
64.68373,65.00806,39,37,0
65.00806,65.33238,41,41,0
65.33238,65.65671,42,38,0
65.65671,66.0248,45,49,0
66.0248,66.41696,46,42,0
66.41696,66.82513,47,55,0
66.82513,67.301315,48,46,0
67.691734,67.75781,65,29,0
67.691734,67.75781,56,29,0
67.691734,67.75781,59,29,0
67.956055,68.020706,65,29,0
67.956055,68.020706,56,29,0
67.956055,68.020706,59,29,0
68.214676,68.27933,65,29,0
68.214676,68.27933,59,29,0
68.214676,68.27933,56,29,0
67.301315,68.4733,44,24,0
67.301315,68.4733,49,29,0
68.73405,68.800125,65,29,0
68.73405,68.800125,59,29,0
68.73405,68.800125,56,29,0
68.99836,69.06302,65,29,0
68.99836,69.06302,59,29,0
68.99836,69.06302,56,29,0
69.25698,69.32164,65,29,0
69.25698,69.32164,56,29,0
69.25698,69.32164,59,29,0
72.71652,72.7826,66,29,0
72.71652,72.7826,58,29,0
72.71652,72.7826,61,29,0
72.98084,73.045494,66,29,0
72.98084,73.045494,58,29,0
72.98084,73.045494,61,29,0
73.23946,73.304115,66,29,0
73.23946,73.304115,61,29,0
73.23946,73.304115,58,29,0
72.3261,73.49808,42,24,0
70.681496,73.49808,49,29,0
73.758835,73.82491,66,29,0
73.758835,73.82491,61,29,0
73.758835,73.82491,58,29,0
74.02315,74.08781,66,29,0
74.02315,74.08781,61,29,0
74.02315,74.08781,58,29,0
74.28177,74.34643,66,29,0
74.28177,74.34643,58,29,0
74.28177,74.34643,61,29,0
75.05763,75.706276,57,42,0
75.706276,76.07438,65,53,0
76.07438,76.874695,68,62,0
76.874695,77.35089,66,57,0
77.60973,77.878174,65,49,0
77.878174,78.13702,63,49,0
78.13702,78.40511,61,41,0
77.35089,78.40511,49,29,0
77.60973,78.40511,56,41,0
77.60973,78.40511,59,41,0
78.40511,78.680595,54,41,0
78.680595,79.006676,53,41,0
79.006676,79.32787,51,36,0
78.40511,79.32787,59,34,0
79.32787,80.06048,49,34,0
80.06048,80.7511,49,34,0
79.694176,81.075424,42,29,0
80.7511,81.44352,49,34,0
81.44352,82.72003,49,42,0
81.075424,82.72003,43,29,0
83.11045,83.17654,66,29,0
83.11045,83.17654,56,29,0
83.11045,83.17654,59,29,0
83.37477,83.43942,65,29,0
83.37477,83.43942,56,29,0
83.37477,83.43942,59,29,0
83.63339,83.698044,63,29,0
83.63339,83.698044,59,29,0
83.63339,83.698044,56,29,0
82.72003,83.89201,44,24,0
82.72003,83.89201,49,29,0
84.150635,84.43617,54,34,0
84.43617,84.7605,53,34,0
84.7605,85.84508,51,34,0
85.84508,86.72943,48,32,0
87.11985,87.18593,66,29,0
87.11985,87.18593,58,29,0
87.11985,87.18593,61,29,0
87.38417,87.44882,65,29,0
87.38417,87.44882,58,29,0
87.38417,87.44882,61,29,0
87.64279,87.70744,63,29,0
87.64279,87.70744,61,29,0
87.64279,87.70744,58,29,0
86.72943,87.901405,42,24,0
86.72943,87.901405,49,29,0
88.41865,89.0673,61,42,0
89.0673,89.435394,69,53,0
89.435394,90.23572,71,62,0
90.23572,90.71191,70,57,0
90.97075,91.76613,54,30,0
90.97075,91.76613,63,49,0
90.71191,91.76613,47,29,0
90.97075,91.76613,59,41,0
90.97075,91.76613,56,30,0
91.76613,92.02906,63,41,0
92.02906,92.3145,61,41,0
92.3145,92.488266,59,36,0
92.488266,92.662025,58,36,0
92.662025,92.88839,56,36,0
92.88839,93.01986,46,31,0
93.01986,93.294044,49,41,0
93.294044,93.43676,47,37,0
93.43676,94.144646,37,31,0
94.144646,94.41865,39,33,0
94.41865,94.570175,41,27,0
94.570175,94.84543,39,34,0
94.84543,97.31733,37,31,0
97.31733,97.44879,46,31,0
97.44879,97.72298,49,41,0
97.72298,97.8657,47,37,0
97.8657,98.0027,37,31,0
98.0027,98.276695,39,30,0
98.276695,98.4137,41,33,0
98.4137,98.68769,39,30,0
98.6797,100.83113,37,27,0
103.16646,103.26959,46,40,0
103.16646,103.26959,39,34,0
103.44148,103.5416,53,28,0
103.44148,103.5416,55,33,0
103.70846,103.807335,39,39,0
103.70846,103.807335,46,47,0
103.97213,104.077995,55,41,0
103.97213,104.077995,53,34,0
104.254456,104.356705,39,42,0
104.254456,104.356705,46,50,0
104.52713,104.62939,55,40,0
104.52713,104.62939,53,34,0
104.799805,104.90206,39,36,0
104.799805,104.90206,46,43,0
105.07249,105.174736,55,35,0
105.07249,105.174736,53,29,0
105.34516,105.44126,46,40,0
105.34516,105.44126,39,40,0
105.60142,105.70071,51,33,0
105.60142,105.70071,53,33,0
105.86618,105.96546,46,40,0
105.86618,105.96546,39,40,0
106.13094,106.23408,51,35,0
106.13094,106.23408,53,35,0
106.40597,106.50207,46,40,0
106.40597,106.50207,39,40,0
106.662224,106.76151,51,33,0
106.662224,106.76151,53,33,0
106.92699,107.02627,46,40,0
106.92699,107.02627,39,40,0
107.19175,107.29488,51,35,0
107.19175,107.29488,53,35,0
107.466774,107.5949,46,54,0
107.5949,107.72303,44,50,0
107.85541,107.9547,41,50,0
107.98779,108.12017,39,51,0
108.25255,108.38493,38,55,0
108.51731,108.65307,36,60,0
108.78883,108.92815,31,57,0
109.06746,109.20989,36,64,0
109.35233,109.49477,38,68,0
109.63721,109.7333,46,40,0
109.63721,109.7333,39,40,0
109.89346,109.992744,53,33,0
109.89346,109.992744,56,33,0
110.158226,110.25751,46,40,0
110.158226,110.25751,39,40,0
110.42298,110.52227,53,35,0
110.42298,110.52227,56,35,0
110.687744,110.78384,46,40,0
110.687744,110.78384,39,40,0
110.944,111.04288,53,33,0
110.944,111.04288,56,33,0
111.207664,111.3108,46,40,0
111.207664,111.3108,39,40,0
111.4827,111.548615,53,33,0
111.4827,111.548615,56,33,0
111.74636,111.849495,46,40,0
111.74636,111.849495,39,34,0
112.021385,112.121506,53,28,0
112.021385,112.121506,55,33,0
112.28836,112.38724,39,39,0
112.28836,112.38724,46,47,0
112.55203,112.657906,55,41,0
112.55203,112.657906,53,34,0
112.83436,112.93661,39,42,0
112.83436,112.93661,46,50,0
113.10703,113.20929,55,40,0
113.10703,113.20929,53,34,0
113.379715,113.481964,39,36,0
113.379715,113.481964,46,43,0
113.65239,113.75465,55,35,0
113.65239,113.75465,53,29,0
113.925064,114.021164,49,40,0
113.925064,114.021164,42,34,0
114.18132,114.24751,49,28,0
114.18132,114.28061,54,28,0
114.18132,114.28061,56,33,0
114.44608,114.54537,49,40,0
114.44608,114.54537,42,34,0
114.710846,114.7796,49,29,0
114.710846,114.81398,54,29,0
114.710846,114.81398,57,35,0
114.98587,115.08197,42,36,0
114.98587,115.08197,49,43,0
115.24213,115.30832,49,31,0
115.24213,115.341415,58,37,0
115.24213,115.341415,54,31,0
115.50689,115.60618,42,38,0
115.50689,115.60618,49,45,0
115.77165,115.83784,49,35,0
115.77165,115.87093,59,42,0
115.77165,115.87093,54,35,0
116.31144,116.41155,61,42,0
116.31144,116.44492,64,67,0
116.578415,116.84208,63,64,0
116.578415,116.84208,60,57,0
116.84208,116.91266,53,49,0
116.84208,116.94795,57,49,0
116.84208,116.94795,63,58,0
117.124405,117.418465,46,62,0
117.124405,117.418465,58,73,0
117.124405,117.418465,53,62,0
117.712524,118.006584,46,71,0
117.712524,118.006584,34,60,0
118.300644,118.39674,58,40,0
118.300644,118.39674,56,40,0
118.5569,118.65619,68,33,0
118.5569,118.65619,70,33,0
118.82166,118.92095,58,40,0
118.82166,118.92095,56,40,0
119.086426,119.19306,68,35,0
119.086426,119.19306,70,35,0
119.37078,119.47948,58,40,0
119.37078,119.47948,56,40,0
119.66064,119.76933,68,33,0
119.66064,119.76933,70,33,0
119.95049,120.05919,58,40,0
119.95049,120.05919,56,40,0
120.24035,120.349045,68,35,0
120.24035,120.349045,70,35,0
120.530205,120.6263,58,40,0
120.530205,120.6263,55,40,0
120.78646,120.88575,70,33,0
121.05122,121.150505,58,40,0
121.05122,121.150505,55,40,0
121.31598,121.42063,70,35,0
121.595055,121.731415,58,40,0
121.595055,121.731415,55,40,0
121.86778,121.97195,70,33,0
122.14556,122.412224,58,40,0
122.14556,122.412224,55,40,0
122.412224,122.51222,63,35,0
122.69262,122.82075,47,44,0
122.82075,122.948875,49,39,0
123.08125,123.21363,51,39,0
123.21363,123.346016,49,44,0
123.47839,123.58503,47,37,0
123.76276,123.890884,46,44,0
123.890884,124.01901,48,39,0
124.15139,124.283775,50,39,0
124.283775,124.41615,48,44,0
124.54853,124.65517,46,37,0
124.83289,124.96165,46,37,0
124.96165,125.0904,48,33,0
125.22493,125.35946,50,33,0
125.35946,125.496445,48,37,0
125.63343,125.74007,46,31,0
126.04592,126.17405,34,70,0
126.04592,126.17405,46,70,0
126.17405,126.3098,36,70,0
126.3098,126.44554,38,73,0
126.44554,126.59047,36,78,0
126.7354,126.913155,34,83,0
126.7354,126.913155,22,74,0
127.209404,127.305504,58,40,0
127.209404,127.305504,56,40,0
127.46567,127.56495,68,33,0
127.46567,127.56495,70,33,0
127.73042,127.82971,58,40,0
127.73042,127.82971,56,40,0
127.995186,128.10182,68,35,0
127.995186,128.10182,70,35,0
128.27954,128.38824,58,40,0
128.27954,128.38824,56,40,0
128.5694,128.68782,68,33,0
128.5694,128.68782,70,33,0
128.8852,128.99388,58,40,0
128.8852,128.99388,56,40,0
129.17505,129.28374,68,35,0
129.17505,129.28374,70,35,0
129.4649,129.56099,58,40,0
129.4649,129.56099,55,40,0
129.72116,129.82043,70,33,0
129.72116,129.82043,67,33,0
129.98592,130.0852,58,40,0
129.98592,130.0852,55,40,0
130.25067,130.35533,70,35,0
130.25067,130.35533,67,33,0
130.52975,130.6661,58,40,0
130.52975,130.6661,55,40,0
130.80247,130.90665,70,33,0
130.80247,130.90665,67,33,0
131.08025,131.34692,58,40,0
131.08025,131.34692,55,40,0
131.34692,131.44691,63,35,0
131.61359,131.74652,70,68,0
131.74652,131.87946,68,62,0
132.01237,132.14531,70,62,0
132.14531,132.28523,65,64,0
132.42516,132.52486,70,68,0
132.69102,132.82396,68,68,0
132.82396,132.9569,65,68,0
131.61359,133.23431,63,51,0
133.0956,133.23431,63,62,0
131.61359,133.23431,59,51,0
133.23431,133.76382,59,68,0
133.89621,134.02643,56,65,0
134.02643,134.15665,53,65,0
134.15665,134.28687,51,67,0
134.28687,134.42618,47,71,0
134.56549,134.82808,34,66,0
134.56549,134.82808,46,78,0
135.09175,135.19061,53,33,0
135.09175,135.19061,55,33,0
135.35541,135.45428,46,40,0
135.35541,135.45428,39,40,0
135.61908,135.72992,53,33,0
135.61908,135.72992,55,33,0
135.91464,136.44096,46,40,0
135.91464,136.44096,39,34,0
137.23094,137.32982,53,27,0
137.23094,137.32982,55,27,0
137.49461,137.59349,46,32,0
137.49461,137.59349,39,32,0
137.75827,137.86911,53,24,0
137.75827,137.86911,55,24,0
138.05385,138.58015,46,28,0
138.05385,138.58015,39,24,0
139.41382,139.52097,53,22,0
139.41382,139.52097,55,22,0
139.69954,139.80667,46,27,0
139.69954,139.80667,39,27,0
139.98524,140.10182,53,21,0
139.98524,140.10182,55,21,0
140.88905,141.20088,35,59,0
141.20088,141.2793,34,63,0
141.27222,141.34953,32,65,0
141.34254,141.41905,31,67,0
141.41216,141.48907,29,68,0
141.48189,141.76955,39,72,0
141.48189,141.76955,27,61,0
142.63252,142.95935,39,74,0
142.63252,142.95935,27,62,0
