start_time,end_time,note_value,velocity,instrument_program_number
0.4875,0.7875,79,72,0
0.525,0.825,85,72,0
0.5625,0.8625,88,77,0
0.6,0.9,94,79,0
1.6875,1.9875,74,68,0
1.725,2.025,80,69,0
1.7625,2.0625,83,71,0
1.8,2.1,89,73,0
2.8608055,3.1066127,69,59,0
2.8766954,3.1217458,75,61,0
2.892585,3.136879,78,64,0
2.908475,3.152012,84,66,0
3.3474271,3.5850387,64,59,0
3.3623793,3.5998142,70,60,0
3.3773155,3.6145353,73,63,0
3.3922083,3.629253,79,64,0
3.8196278,4.0512576,59,59,0
3.834174,4.0656366,65,62,0
3.84872,4.080015,68,65,0
3.8632662,4.0943575,74,68,0
4.279919,4.5058193,54,62,0
4.2941346,4.519822,60,65,0
4.308336,4.5338254,63,68,0
4.3224974,4.547828,69,71,0
4.728984,4.9513707,55,65,0
4.742883,4.96527,61,67,0
4.756782,4.9791694,64,69,0
4.7706814,4.9930687,70,71,0
5.187657,5.410044,56,69,0
5.201556,5.423943,59,73,0
5.2154555,5.4378424,65,77,0
5.632431,5.854818,53,70,0
5.6463304,5.868717,56,73,0
5.6602297,5.8826165,62,76,0
6.063306,6.2898026,57,70,0
6.077205,6.304018,62,74,0
6.0911045,6.318233,65,77,0
6.1050034,6.3324485,69,78,0
7.0147834,7.255941,74,71,0
7.0147834,7.255941,81,84,0
7.0147834,7.255941,69,71,0
7.0147834,7.255941,77,71,0
7.9794135,8.219605,81,71,0
7.9794135,8.219605,85,71,0
7.9794135,8.219605,79,71,0
7.9794135,8.219605,93,84,0
7.9794135,8.219605,88,71,0
10.025535,10.192746,45,39,0
10.137009,10.308996,46,42,0
10.248484,10.42667,49,43,0
10.36951,10.506694,53,46,0
10.460966,10.59815,52,45,0
10.552423,10.689607,50,44,0
10.643879,10.781063,49,43,0
10.735335,10.879997,46,41,0
10.826792,10.960914,45,43,0
10.915467,11.048481,46,43,0
11.004144,11.137157,49,44,0
11.092819,11.225834,50,45,0
11.181496,11.3231945,52,47,0
11.274514,11.416435,53,48,0
11.371876,11.505553,58,50,0
11.460995,11.594672,57,49,0
11.550113,11.683791,55,48,0
11.639232,11.77291,53,47,0
11.728351,11.862028,52,45,0
11.817469,11.956028,50,44,0
11.908418,12.015113,49,45,0
11.979707,12.085688,50,44,0
12.050443,12.155662,52,45,0
12.120759,12.225192,53,46,0
12.190445,12.294198,55,48,0
12.259772,12.362873,57,48,0
12.328624,12.430886,58,49,0
12.39696,12.493615,61,49,0
12.464789,12.603155,65,51,0
12.557034,12.695399,64,51,0
12.649277,12.7876425,62,50,0
12.741521,12.879887,61,50,0
12.833764,12.979214,58,50,0
12.926008,13.059022,57,50,0
13.014685,13.147698,58,51,0
13.10336,13.236374,61,52,0
13.192037,13.32505,62,53,0
13.280712,13.41692,64,54,0
13.370985,13.507193,65,56,0
13.462854,13.595869,70,57,0
13.551531,13.684545,69,57,0
13.640206,13.773221,67,56,0
13.728883,13.8618965,65,54,0
13.817558,13.950573,64,53,0
13.906235,14.047871,62,52,0
13.998144,14.109684,61,53,0
14.072596,14.183454,62,54,0
14.146664,14.256752,64,56,0
14.220135,14.330228,65,56,0
14.293344,14.4039955,67,57,0
14.367112,14.477672,69,57,0
14.440759,14.556196,70,59,0
14.5161295,14.625026,73,60,0
14.5971575,14.7309265,77,61,0
14.686337,14.8201065,76,61,0
14.7755165,14.9092865,74,60,0
14.8646965,14.998466,73,59,0
14.953876,15.096261,70,58,0
15.043056,15.176069,69,58,0
15.131731,15.264746,70,58,0
15.2204075,15.353421,73,60,0
15.309083,15.442098,74,61,0
15.397759,15.530773,76,62,0
15.486436,15.61945,77,63,0
15.575111,15.708125,82,63,0
15.663788,15.796802,81,63,0
15.752463,15.885477,79,62,0
15.84114,15.9741535,77,61,0
15.929815,16.06283,76,60,0
16.018492,16.166327,74,59,0
16.112917,16.23169,73,58,0
16.192654,16.308407,74,58,0
16.270048,16.385069,76,59,0
16.346766,16.461357,77,60,0
16.423212,16.537445,79,62,0
16.499502,16.613302,81,63,0
16.575375,16.692678,82,64,0
16.652607,16.760824,85,65,0
16.733072,16.866287,89,66,0
16.821882,16.955097,88,66,0
16.910692,17.043907,86,65,0
16.999502,17.132717,85,65,0
17.088312,17.221527,82,64,0
17.177122,17.310337,81,65,0
17.265932,17.399147,82,68,0
17.354742,17.487957,85,70,0
17.443552,17.576767,86,71,0
17.532362,17.665577,88,72,0
17.621172,17.754387,89,74,0
17.709982,17.843197,91,76,0
17.798792,17.932007,93,78,0
17.887602,18.020817,94,80,0
17.976412,18.14672,97,81,0
18.080017,18.163397,101,85,0
18.163397,18.246777,100,85,0
18.246777,18.330156,98,84,0
18.330156,18.413536,97,84,0
18.413536,18.50088,94,83,0
18.50088,18.592266,93,83,0
18.592266,18.682367,91,83,0
18.682367,18.771133,89,82,0
18.771133,18.858685,88,82,0
18.858685,18.94497,86,81,0
18.94497,19.029947,85,81,0
19.029947,19.113886,82,80,0
19.113886,19.196585,81,80,0
19.196585,19.2783,79,80,0
19.2783,19.358845,77,79,0
19.358845,19.438366,76,79,0
19.438366,19.517239,74,79,0
19.517239,19.595798,73,79,0
19.595798,19.674078,70,78,0
19.674078,19.752098,69,78,0
19.752098,19.829987,67,78,0
19.829987,19.907555,65,77,0
19.907555,19.98485,64,77,0
19.98485,20.061892,62,77,0
20.061892,20.138807,61,78,0
20.138807,20.215416,58,78,0
20.215416,20.29176,57,79,0
20.29176,20.367851,55,80,0
20.367851,20.443815,53,81,0
20.443815,20.519482,52,82,0
20.519482,20.594889,50,82,0
20.594889,20.670053,49,82,0
20.670053,20.730103,46,80,0
20.730103,20.789955,45,80,0
20.789955,20.849686,43,82,0
20.849686,20.909245,41,83,0
20.909245,20.968805,40,84,0
21.254324,21.372341,56,60,0
21.254324,21.372341,52,48,0
21.372341,21.489803,53,50,0
21.372341,21.489803,57,63,0
21.489803,21.606718,61,51,0
21.489803,21.606718,64,65,0
21.606718,21.723177,65,67,0
21.606718,21.723177,62,54,0
21.723177,21.839008,68,69,0
21.723177,21.839008,64,55,0
21.839008,21.954306,69,71,0
20.968805,21.954306,86,97,0
20.968805,21.954306,74,76,0
20.968805,21.954306,77,76,0
21.839008,21.954306,65,56,0
22.194305,22.313354,56,60,0
22.194305,22.313354,52,48,0
22.313354,22.431187,57,63,0
21.954306,22.431187,77,79,0
21.954306,22.431187,86,101,0
21.954306,22.431187,74,75,0
22.313354,22.431187,53,50,0
22.431187,22.548101,64,65,0
22.431187,22.548101,61,51,0
22.548101,22.663933,65,67,0
22.548101,22.663933,62,54,0
22.663933,22.806925,68,69,0
22.663933,22.806925,64,69,0
22.878422,22.949919,72,70,0
22.806925,22.949919,65,56,0
22.806925,22.949919,69,71,0
22.878422,22.949919,84,89,0
23.190126,23.308144,57,60,0
23.190126,23.308144,54,48,0
23.308144,23.425608,55,50,0
23.308144,23.425608,58,63,0
23.425608,23.54252,66,65,0
23.425608,23.54252,63,51,0
23.54252,23.658981,67,67,0
23.54252,23.658981,64,54,0
23.658981,23.77481,66,55,0
23.658981,23.77481,69,69,0
23.77481,23.890108,67,56,0
22.949919,23.890108,70,75,0
23.77481,23.890108,70,71,0
22.949919,23.890108,82,100,0
22.949919,23.890108,76,77,0
24.130108,24.249157,54,48,0
24.130108,24.249157,57,60,0
24.249157,24.36699,55,50,0
23.890108,24.36699,76,72,0
23.890108,24.36699,70,72,0
23.890108,24.36699,82,92,0
24.249157,24.36699,58,63,0
24.36699,24.483904,66,65,0
24.36699,24.483904,63,51,0
24.483904,24.599735,64,54,0
24.483904,24.599735,67,67,0
24.599735,24.72484,66,69,0
24.599735,24.72484,69,69,0
24.72484,24.795328,67,56,0
24.72484,24.795328,70,71,0
24.795328,24.865818,82,89,0
24.795328,24.865818,70,70,0
25.105818,25.224867,54,60,0
25.105818,25.224867,51,48,0
25.224867,25.3427,55,63,0
24.865818,25.3427,81,95,0
24.865818,25.3427,69,75,0
24.865818,25.3427,76,75,0
25.224867,25.3427,52,50,0
25.3427,25.459614,63,65,0
25.3427,25.459614,60,51,0
25.459614,25.575445,64,67,0
25.459614,25.575445,61,54,0
25.575445,25.70055,63,69,0
25.575445,25.70055,66,69,0
25.768793,25.837036,81,89,0
25.70055,25.837036,64,56,0
25.70055,25.837036,67,71,0
25.768793,25.837036,69,70,0
26.077038,26.196087,54,60,0
26.077038,26.196087,51,48,0
26.196087,26.31392,55,63,0
25.837036,26.31392,79,75,0
25.837036,26.31392,76,75,0
25.837036,26.31392,88,95,0
26.196087,26.31392,52,50,0
26.31392,26.430834,63,65,0
26.31392,26.430834,60,51,0
26.430834,26.546665,61,54,0
26.430834,26.546665,64,67,0
26.546665,26.670734,63,69,0
26.546665,26.670734,66,69,0
26.670734,26.732769,64,56,0
26.670734,26.732769,67,71,0
26.732769,26.794804,67,62,0
26.732769,26.794804,79,80,0
27.034803,27.153852,52,38,0
27.034803,27.153852,56,50,0
27.153852,27.271687,57,51,0
26.794804,27.271687,65,67,0
26.794804,27.271687,77,85,0
26.794804,27.271687,69,67,0
27.153852,27.271687,53,41,0
27.271687,27.388601,61,41,0
27.271687,27.388601,64,53,0
27.388601,27.50443,65,54,0
27.388601,27.50443,62,43,0
27.50443,27.62698,64,55,0
27.50443,27.62698,68,55,0
27.62698,27.688255,65,44,0
27.62698,27.688255,69,56,0
27.688255,27.749529,81,82,0
27.688255,27.749529,69,64,0
27.98953,28.10858,52,38,0
27.98953,28.10858,56,49,0
28.10858,28.226412,53,39,0
27.749529,28.226412,62,70,0
27.749529,28.226412,65,70,0
27.749529,28.226412,74,88,0
28.10858,28.226412,57,50,0
28.226412,28.343327,64,51,0
28.226412,28.343327,61,41,0
28.343327,28.459335,62,42,0
28.343327,28.459335,65,52,0
28.459335,28.578478,64,53,0
28.459335,28.578478,68,53,0
28.578478,28.722157,65,43,0
28.578478,28.722157,69,54,0
28.962364,29.080381,54,40,0
28.962364,29.080381,59,51,0
29.080381,29.197845,60,52,0
29.080381,29.197845,55,42,0
29.197845,29.314758,59,43,0
29.197845,29.314758,63,55,0
29.314758,29.43122,60,44,0
28.722157,29.43122,72,65,0
28.722157,29.43122,84,83,0
28.722157,29.43122,76,65,0
29.314758,29.43122,64,57,0
29.43122,29.547049,71,58,0
29.43122,29.547049,66,46,0
29.547049,29.662346,72,59,0
29.547049,29.662346,67,47,0
29.902346,30.021395,59,51,0
29.902346,30.021395,54,40,0
30.021395,30.139227,55,42,0
29.662346,30.139227,79,58,0
29.662346,30.139227,84,73,0
29.662346,30.139227,72,58,0
30.021395,30.139227,60,52,0
30.139227,30.256142,63,55,0
30.139227,30.256142,59,43,0
30.256142,30.371973,64,57,0
30.256142,30.371973,60,44,0
30.371973,30.504833,63,58,0
30.371973,30.504833,66,58,0
30.571264,30.637695,82,69,0
30.504833,30.637695,64,47,0
30.504833,30.637695,67,59,0
30.571264,30.637695,70,54,0
30.877695,30.996744,59,51,0
30.877695,30.996744,56,40,0
30.996744,31.114576,57,42,0
30.637695,31.114576,77,58,0
30.637695,31.114576,69,58,0
30.637695,31.114576,81,73,0
30.996744,31.114576,60,52,0
31.114576,31.231491,64,55,0
31.114576,31.231491,59,43,0
31.231491,31.347322,65,57,0
31.231491,31.347322,60,44,0
31.347322,31.469872,68,58,0
31.347322,31.469872,71,58,0
31.534863,31.599854,84,69,0
31.469872,31.599854,69,47,0
31.469872,31.599854,72,59,0
31.534863,31.599854,72,54,0
31.839855,31.958904,56,40,0
31.839855,31.958904,59,51,0
31.958904,32.076736,57,42,0
31.599854,32.076736,77,73,0
31.599854,32.076736,65,58,0
31.599854,32.076736,69,58,0
31.958904,32.076736,60,52,0
32.076736,32.19365,59,43,0
32.076736,32.19365,64,55,0
32.19365,32.30966,65,57,0
32.19365,32.30966,60,44,0
32.30966,32.44311,64,58,0
32.30966,32.44311,68,58,0
32.44311,32.576565,65,47,0
32.44311,32.576565,69,59,0
32.816772,32.93479,55,37,0
32.816772,32.93479,58,48,0
32.93479,33.052254,56,40,0
32.93479,33.052254,59,50,0
33.052254,33.169167,67,52,0
33.052254,33.169167,63,41,0
33.169167,33.285625,64,43,0
33.169167,33.285625,68,55,0
33.285625,33.40146,70,56,0
33.285625,33.40146,67,43,0
33.40146,33.516754,68,46,0
32.576565,33.516754,76,65,0
32.576565,33.516754,80,69,0
32.576565,33.516754,88,90,0
33.40146,33.516754,71,58,0
33.756756,33.8758,58,50,0
33.756756,33.8758,55,40,0
33.8758,33.993637,56,42,0
33.516754,33.993637,83,65,0
33.516754,33.993637,88,82,0
33.516754,33.993637,76,65,0
33.8758,33.993637,59,52,0
33.993637,34.11055,63,43,0
33.993637,34.11055,67,55,0
34.11055,34.22638,64,44,0
34.11055,34.22638,68,57,0
34.22638,34.35415,70,58,0
34.22638,34.35415,67,58,0
34.421474,34.4888,74,58,0
34.35415,34.4888,68,51,0
34.35415,34.4888,71,65,0
34.421474,34.4888,86,74,0
34.7288,34.847847,63,52,0
34.7288,34.847847,60,42,0
34.847847,34.965683,61,43,0
34.4888,34.965683,73,63,0
34.4888,34.965683,85,79,0
34.4888,34.965683,81,63,0
34.847847,34.965683,64,55,0
34.965683,35.082596,72,57,0
34.965683,35.082596,68,44,0
35.082596,35.19843,73,59,0
35.082596,35.19843,69,47,0
35.19843,35.323532,75,62,0
35.19843,35.323532,72,62,0
35.323532,35.386086,76,66,0
35.323532,35.386086,73,52,0
35.386086,35.448635,76,60,0
35.386086,35.448635,88,78,0
35.688637,35.807686,63,58,0
35.688637,35.807686,60,46,0
35.807686,35.925518,64,60,0
35.448635,35.925518,73,65,0
35.448635,35.925518,81,82,0
35.448635,35.925518,69,65,0
35.807686,35.925518,61,48,0
35.925518,36.04243,72,63,0
35.925518,36.04243,68,50,0
36.04243,36.158264,73,65,0
36.04243,36.158264,69,52,0
36.158264,36.282333,75,67,0
36.158264,36.282333,72,67,0
36.34847,36.414608,81,80,0
36.282333,36.414608,76,70,0
36.282333,36.414608,73,55,0
36.34847,36.414608,69,63,0
36.654816,36.772835,66,60,0
36.654816,36.772835,63,48,0
36.772835,36.890297,64,50,0
36.772835,36.890297,67,63,0
36.890297,37.00721,75,65,0
36.890297,37.00721,72,51,0
37.00721,37.12367,76,67,0
36.414608,37.12367,85,78,0
36.414608,37.12367,91,98,0
36.414608,37.12367,79,78,0
37.00721,37.12367,73,54,0
37.12367,37.239502,75,55,0
37.12367,37.239502,78,69,0
37.239502,37.354797,79,71,0
37.239502,37.354797,76,56,0
37.5948,37.71385,66,60,0
37.5948,37.71385,63,48,0
37.71385,37.83168,67,63,0
37.354797,37.83168,69,69,0
37.354797,37.83168,81,87,0
37.71385,37.83168,64,50,0
37.83168,37.948593,72,51,0
37.83168,37.948593,75,65,0
37.948593,38.064426,76,67,0
37.948593,38.064426,73,54,0
38.064426,38.190052,75,69,0
38.064426,38.190052,78,69,0
38.257683,38.32531,69,64,0
38.190052,38.32531,76,56,0
38.190052,38.32531,79,71,0
38.257683,38.32531,81,81,0
38.565517,38.683537,65,60,0
38.565517,38.683537,62,48,0
38.683537,38.801,66,63,0
38.683537,38.801,63,50,0
38.801,38.91791,74,65,0
38.801,38.91791,71,51,0
38.91791,39.03437,75,67,0
38.32531,39.03437,78,78,0
38.32531,39.03437,90,98,0
38.32531,39.03437,84,78,0
38.91791,39.03437,72,54,0
39.03437,39.150204,74,55,0
39.03437,39.150204,77,69,0
39.150204,39.2655,75,56,0
39.150204,39.2655,78,71,0
39.5055,39.62455,65,60,0
39.5055,39.62455,62,48,0
39.62455,39.742382,66,63,0
39.2655,39.742382,69,69,0
39.2655,39.742382,81,87,0
39.62455,39.742382,63,50,0
39.742382,39.859295,71,51,0
39.742382,39.859295,74,65,0
39.859295,39.97513,75,67,0
39.859295,39.97513,72,54,0
39.97513,40.098686,74,69,0
39.97513,40.098686,77,69,0
40.16482,40.23096,81,81,0
40.098686,40.23096,75,56,0
40.098686,40.23096,78,71,0
40.16482,40.23096,69,64,0
40.470963,40.59001,61,48,0
40.470963,40.59001,64,60,0
40.59001,40.707844,62,50,0
40.23096,40.707844,80,69,0
40.23096,40.707844,89,87,0
40.23096,40.707844,77,69,0
40.59001,40.707844,65,63,0
40.707844,40.824757,67,51,0
40.707844,40.824757,70,65,0
40.824757,40.94059,71,67,0
40.824757,40.94059,68,54,0
40.94059,41.065693,73,69,0
40.94059,41.065693,76,69,0
41.065693,41.202805,77,71,0
41.134247,41.202805,77,64,0
41.065693,41.202805,74,56,0
41.134247,41.202805,89,81,0
41.442806,41.56185,55,48,0
41.442806,41.56185,58,60,0
41.56185,41.679688,59,63,0
41.202805,41.679688,76,69,0
41.202805,41.679688,88,87,0
41.202805,41.679688,80,69,0
41.56185,41.679688,56,50,0
41.679688,41.7966,67,65,0
41.679688,41.7966,63,51,0
41.7966,41.91243,64,67,0
41.7966,41.91243,68,54,0
41.91243,42.036503,67,69,0
41.91243,42.036503,70,69,0
42.105057,42.173615,86,81,0
42.036503,42.173615,68,56,0
42.036503,42.173615,71,71,0
42.105057,42.173615,74,64,0
42.413612,42.53266,63,60,0
42.413612,42.53266,60,48,0
42.53266,42.650494,61,50,0
42.173615,42.650494,81,69,0
42.173615,42.650494,73,69,0
42.173615,42.650494,85,87,0
42.53266,42.650494,64,63,0
42.650494,42.76741,68,51,0
42.650494,42.76741,72,65,0
42.76741,42.88324,73,67,0
42.76741,42.88324,69,54,0
42.88324,43.00579,72,69,0
42.88324,43.00579,75,69,0
43.00579,43.072514,76,71,0
43.00579,43.072514,73,56,0
43.072514,43.13924,76,64,0
43.072514,43.13924,88,81,0
43.379242,43.49829,60,60,0
43.379242,43.49829,56,48,0
43.49829,43.616123,57,50,0
43.13924,43.616123,73,69,0
43.13924,43.616123,69,69,0
43.13924,43.616123,81,87,0
43.49829,43.616123,61,63,0
43.616123,43.73304,63,65,0
43.616123,43.73304,60,51,0
43.73304,43.84905,64,67,0
43.73304,43.84905,61,54,0
43.84905,43.96819,63,69,0
43.84905,43.96819,68,69,0
43.96819,44.087334,69,71,0
43.96819,44.087334,64,56,0
44.32754,44.445557,54,54,0
44.32754,44.445557,51,42,0
44.445557,44.56302,55,56,0
44.445557,44.56302,52,44,0
44.56302,44.679935,63,58,0
44.56302,44.679935,60,46,0
44.679935,44.796394,64,60,0
44.087334,44.796394,79,88,0
44.087334,44.796394,67,70,0
44.087334,44.796394,73,70,0
44.679935,44.796394,61,48,0
44.796394,44.912224,66,62,0
44.796394,44.912224,63,49,0
44.912224,45.02752,64,50,0
44.912224,45.02752,67,63,0
45.26752,45.38657,54,54,0
45.26752,45.38657,51,42,0
45.38657,45.504402,55,56,0
45.02752,45.504402,69,78,0
45.02752,45.504402,57,62,0
45.38657,45.504402,52,44,0
45.504402,45.62132,60,46,0
45.504402,45.62132,63,58,0
45.62132,45.73715,61,48,0
45.62132,45.73715,64,60,0
45.73715,45.861217,66,62,0
45.73715,45.861217,63,62,0
45.933056,46.004898,57,57,0
45.861217,46.004898,64,50,0
45.861217,46.004898,67,63,0
45.933056,46.004898,69,72,0
46.245106,46.36312,50,42,0
46.245106,46.36312,53,54,0
46.36312,46.480583,54,56,0
46.36312,46.480583,51,44,0
46.480583,46.5975,59,46,0
46.480583,46.5975,62,58,0
46.5975,46.71396,60,48,0
46.004898,46.71396,78,88,0
46.004898,46.71396,66,70,0
46.004898,46.71396,72,70,0
46.5975,46.71396,63,60,0
46.71396,46.82979,62,49,0
46.71396,46.82979,65,62,0
46.82979,46.945084,66,63,0
46.82979,46.945084,63,50,0
47.185085,47.304134,50,42,0
47.185085,47.304134,53,54,0
47.304134,47.421967,54,56,0
46.945084,47.421967,57,62,0
46.945084,47.421967,69,78,0
47.304134,47.421967,51,44,0
47.421967,47.538883,62,58,0
47.421967,47.538883,59,46,0
47.538883,47.654713,60,48,0
47.538883,47.654713,63,60,0
47.654713,47.777264,65,62,0
47.654713,47.777264,62,62,0
47.84775,47.91824,69,72,0
47.777264,47.91824,66,63,0
47.777264,47.91824,63,50,0
47.84775,47.91824,57,57,0
48.15824,48.27729,49,42,0
48.15824,48.27729,52,54,0
48.27729,48.395123,50,44,0
47.91824,48.395123,65,62,0
47.91824,48.395123,77,78,0
47.91824,48.395123,68,62,0
48.27729,48.395123,53,56,0
48.395123,48.512035,58,58,0
48.395123,48.512035,55,46,0
48.512035,48.62787,56,48,0
48.512035,48.62787,59,60,0
48.62787,48.75297,61,62,0
48.62787,48.75297,64,62,0
48.75297,48.815525,62,50,0
48.75297,48.815525,65,63,0
48.815525,48.878075,65,57,0
48.815525,48.878075,77,72,0
49.118076,49.237125,52,54,0
49.118076,49.237125,49,42,0
49.237125,49.354958,50,44,0
48.878075,49.354958,76,78,0
48.878075,49.354958,64,62,0
48.878075,49.354958,68,62,0
49.237125,49.354958,53,56,0
49.354958,49.471874,61,58,0
49.354958,49.471874,57,46,0
49.471874,49.587704,62,48,0
49.471874,49.587704,58,60,0
49.587704,49.711773,63,62,0
49.587704,49.711773,55,62,0
49.773808,49.835842,62,57,0
49.711773,49.835842,64,63,0
49.711773,49.835842,56,50,0
49.773808,49.835842,74,72,0
49.835842,49.99627,57,62,0
49.835842,49.99627,61,62,0
49.835842,49.99627,69,78,0
50.156002,50.2555,64,46,0
50.2555,50.35486,65,46,0
50.35486,50.454044,66,47,0
50.156002,50.454044,73,70,0
50.454044,50.553055,67,48,0
50.553055,50.65183,68,48,0
50.65183,50.750435,69,49,0
50.454044,50.750435,76,73,0
50.750435,50.848873,70,50,0
50.848873,50.947144,71,50,0
50.947144,51.045185,72,51,0
50.750435,51.045185,79,77,0
51.045185,51.14305,73,51,0
51.14305,51.240753,74,52,0
51.240753,51.338295,76,52,0
51.045185,51.338295,82,80,0
51.338295,51.438046,71,43,0
51.438046,51.537796,77,55,0
51.537796,51.637547,80,55,0
51.338295,51.637547,83,77,0
51.637547,51.79022,88,78,0
51.637547,51.79022,76,62,0
51.637547,51.79022,85,62,0
51.637547,51.79022,81,62,0
51.94204,52.040806,76,46,0
52.040806,52.139427,77,46,0
52.139427,52.237926,78,47,0
51.94204,52.237926,85,70,0
52.237926,52.33621,79,48,0
52.33621,52.434345,80,48,0
52.434345,52.53236,81,49,0
52.237926,52.53236,88,73,0
52.53236,52.63016,82,50,0
52.63016,52.727863,83,50,0
52.727863,52.825424,84,51,0
52.53236,52.825424,91,77,0
52.825424,52.92277,85,51,0
52.92277,53.019997,86,52,0
53.019997,53.117085,88,52,0
52.825424,53.117085,94,80,0
53.117085,53.216095,83,50,0
53.216095,53.315105,89,55,0
53.315105,53.414116,92,55,0
53.117085,53.414116,95,77,0
53.414116,53.559044,100,85,0
53.414116,53.559044,93,67,0
53.414116,53.559044,97,67,0
53.414116,53.559044,88,67,0
53.70397,53.803226,83,55,0
53.803226,53.90248,89,55,0
53.90248,54.001736,92,55,0
53.70397,54.001736,95,67,0
54.001736,54.146317,97,67,0
54.001736,54.146317,100,85,0
54.001736,54.146317,93,67,0
54.001736,54.146317,88,67,0
54.290894,54.389175,83,55,0
54.389175,54.487453,89,55,0
54.487453,54.585735,92,55,0
54.290894,54.585735,95,67,0
54.585735,54.730663,93,67,0
54.585735,54.730663,97,67,0
54.585735,54.730663,88,67,0
54.585735,54.730663,100,85,0
54.875587,54.97339,83,55,0
54.97339,55.07119,89,55,0
55.07119,55.168987,92,55,0
54.875587,55.168987,95,67,0
55.168987,55.464554,97,67,0
55.168987,55.464554,93,67,0
55.168987,55.464554,88,67,0
55.168987,55.464554,100,85,0
55.76012,56.034096,70,62,0
55.76012,56.034096,82,73,0
56.034096,56.17038,81,67,0
56.034096,56.17038,69,56,0
56.17038,56.29587,79,74,0
56.17038,56.29587,67,62,0
56.29587,56.42036,65,59,0
56.29587,56.42036,77,70,0
56.42036,56.543915,64,59,0
56.42036,56.543915,76,70,0
56.543915,56.666496,62,54,0
56.543915,56.666496,74,64,0
56.666496,56.788124,73,71,0
56.666496,56.788124,61,60,0
56.788124,56.908855,76,67,0
56.788124,56.908855,64,56,0
56.908855,57.028618,72,73,0
56.908855,57.028618,60,62,0
57.028618,57.147556,64,58,0
57.028618,57.147556,76,69,0
57.147556,57.265747,59,62,0
57.147556,57.265747,71,73,0
57.265747,57.387062,64,56,0
57.265747,57.387062,76,67,0
57.387062,57.512722,58,64,0
57.387062,57.512722,70,76,0
57.512722,57.645184,64,59,0
57.512722,57.645184,76,70,0
57.645184,57.858704,57,68,0
57.645184,57.858704,69,81,0
58.072227,58.34714,73,76,0
58.072227,58.34714,85,76,0
58.34714,58.4846,82,68,0
58.34714,58.4846,70,57,0
58.4846,58.61045,69,62,0
58.4846,58.61045,81,73,0
58.61045,58.734554,79,70,0
58.61045,58.734554,67,59,0
58.734554,58.85763,65,57,0
58.734554,58.85763,77,68,0
58.85763,58.979702,64,61,0
58.85763,58.979702,76,72,0
58.979702,59.100708,67,54,0
58.979702,59.100708,79,64,0
59.100708,59.220715,63,61,0
59.100708,59.220715,75,72,0
59.220715,59.339764,67,56,0
59.220715,59.339764,79,66,0
59.339764,59.457867,74,73,0
59.339764,59.457867,62,62,0
59.457867,59.574886,67,56,0
59.457867,59.574886,79,66,0
59.574886,59.693478,61,62,0
59.574886,59.693478,73,74,0
59.693478,59.81569,67,56,0
59.693478,59.81569,79,67,0
59.81569,59.956753,70,75,0
59.81569,59.956753,58,63,0
59.956753,60.05109,79,86,0
59.956753,60.05109,67,69,0
60.14543,60.273636,69,74,0
60.14543,60.273636,57,63,0
60.40184,60.676754,76,63,0
60.40184,60.676754,88,74,0
60.676754,60.81208,86,64,0
60.676754,60.81208,74,54,0
60.81208,60.941635,73,60,0
60.81208,60.941635,85,71,0
60.941635,61.06954,70,50,0
60.941635,61.06954,82,60,0
61.06954,61.205204,69,50,0
61.06954,61.205204,81,60,0
61.205204,61.335075,79,60,0
61.205204,61.335075,91,71,0
61.335075,61.464943,77,59,0
61.335075,61.464943,89,70,0
61.464943,61.594814,76,57,0
61.464943,61.594814,88,68,0
61.594814,61.724686,74,55,0
61.594814,61.724686,86,66,0
61.724686,61.854553,73,55,0
61.724686,61.854553,85,65,0
61.854553,61.99154,94,67,0
61.854553,61.99154,82,57,0
61.99154,62.12057,93,76,0
61.99154,62.12057,81,64,0
62.12057,62.249603,91,74,0
62.12057,62.249603,79,62,0
62.249603,62.37864,89,69,0
62.249603,62.37864,77,58,0
62.37864,62.50767,88,65,0
62.37864,62.50767,76,55,0
62.50767,62.64235,100,82,0
62.50767,62.64235,88,69,0
62.64235,62.770966,86,68,0
62.64235,62.770966,98,81,0
62.770966,62.899586,85,67,0
62.770966,62.899586,97,79,0
62.899586,63.028202,94,74,0
62.899586,63.028202,82,62,0
63.028202,63.15679,81,68,0
63.028202,63.15679,93,80,0
63.15679,63.284973,82,61,0
63.15679,63.284973,94,72,0
63.284973,63.412693,79,68,0
63.284973,63.412693,91,81,0
63.412693,63.539955,94,71,0
63.412693,63.539955,82,60,0
63.539955,63.666813,77,68,0
63.539955,63.666813,89,80,0
63.666813,63.79322,79,61,0
63.666813,63.79322,91,72,0
63.79322,63.91918,76,68,0
63.79322,63.91918,88,81,0
63.91918,64.04475,91,72,0
63.91918,64.04475,79,61,0
64.04475,64.16987,86,82,0
64.04475,64.16987,74,69,0
64.16987,64.29455,88,74,0
64.16987,64.29455,76,62,0
64.29455,64.418846,85,81,0
64.29455,64.418846,73,68,0
64.418846,64.54269,88,72,0
64.418846,64.54269,76,61,0
64.54269,64.66607,70,67,0
64.54269,64.66607,82,79,0
64.66607,64.78915,73,59,0
64.66607,64.78915,85,70,0
64.78915,64.912224,81,77,0
64.78915,64.912224,69,65,0
64.912224,65.0353,82,68,0
64.912224,65.0353,70,57,0
65.0353,65.15838,67,62,0
65.0353,65.15838,79,74,0
65.15838,65.281456,82,67,0
65.15838,65.281456,70,56,0
65.281456,65.40451,65,66,0
65.281456,65.40451,77,78,0
65.40451,65.52721,79,69,0
65.40451,65.52721,67,58,0
65.52721,65.64996,76,75,0
65.52721,65.64996,64,63,0
65.64996,65.77304,79,69,0
65.64996,65.77304,67,58,0
65.77304,65.89626,62,64,0
65.77304,65.89626,74,76,0
65.89626,66.01972,64,59,0
65.89626,66.01972,76,70,0
66.01972,66.14346,61,64,0
66.01972,66.14346,73,76,0
66.14346,66.26731,76,69,0
66.14346,66.26731,64,58,0
66.26731,66.39153,58,65,0
66.26731,66.39153,70,77,0
66.39153,66.51591,61,60,0
66.39153,66.51591,73,71,0
66.51591,66.64052,57,66,0
66.51591,66.64052,69,78,0
66.64052,66.76538,58,61,0
66.64052,66.76538,70,72,0
66.76538,66.89038,68,79,0
66.76538,66.89038,56,67,0
66.89038,67.01578,69,71,0
66.89038,67.01578,57,60,0
67.01578,67.14117,67,79,0
67.01578,67.14117,55,67,0
67.14117,67.266556,57,61,0
67.14117,67.266556,69,72,0
67.266556,67.39195,66,79,0
67.266556,67.39195,54,67,0
67.39195,67.51734,69,73,0
67.39195,67.51734,57,62,0
67.51734,67.64273,53,68,0
67.51734,67.64273,65,80,0
67.64273,67.76818,69,72,0
67.64273,67.76818,57,61,0
67.76818,67.89407,52,68,0
67.76818,67.89407,64,81,0
67.89407,68.01731,57,62,0
67.89407,68.01731,69,74,0
68.01731,68.17053,51,68,0
68.01731,68.17053,63,81,0
68.17053,68.32521,69,71,0
68.17053,68.32521,57,60,0
68.32521,68.48228,48,69,0
68.32521,68.48228,60,82,0
68.48228,68.64217,69,75,0
68.48228,68.64217,57,63,0
68.64217,68.80493,61,83,0
68.64217,68.80493,49,70,0
68.80493,69.00362,69,77,0
68.80493,69.00362,57,65,0
69.45651,69.593216,61,51,0
69.45651,69.593216,64,65,0
69.593216,69.729126,65,67,0
69.593216,69.729126,62,54,0
69.00362,69.863846,77,76,0
69.00362,69.863846,74,76,0
69.00362,69.863846,86,97,0
69.863846,70.27993,74,75,0
69.863846,70.27993,77,79,0
69.863846,70.27993,86,101,0
70.27993,70.41772,61,51,0
70.27993,70.41772,64,65,0
70.41772,70.565506,65,67,0
70.41772,70.565506,62,54,0
70.605064,70.72169,84,89,0
70.605064,70.72169,72,70,0
70.72169,71.13562,70,75,0
70.72169,71.13562,76,77,0
70.72169,71.13562,82,100,0
71.13562,71.27237,66,65,0
71.13562,71.27237,63,51,0
71.27237,71.40851,67,67,0
71.27237,71.40851,64,54,0
71.54304,71.958115,82,92,0
71.54304,71.958115,76,72,0
71.54304,71.958115,70,72,0
71.958115,72.09482,66,65,0
71.958115,72.09482,63,51,0
72.09482,72.23464,67,67,0
72.09482,72.23464,64,54,0
72.27057,72.38947,82,89,0
72.27057,72.38947,70,70,0
72.38947,72.80128,81,95,0
72.38947,72.80128,76,75,0
72.38947,72.80128,69,75,0
72.80128,72.93728,60,51,0
72.80128,72.93728,63,65,0
72.93728,73.07688,64,67,0
72.93728,73.07688,61,54,0
73.1128,73.23038,81,89,0
73.1128,73.23038,69,70,0
73.23038,73.641945,76,75,0
73.23038,73.641945,79,75,0
73.23038,73.641945,88,95,0
73.641945,73.777954,63,62,0
73.641945,73.777954,60,48,0
73.777954,73.916954,64,63,0
73.777954,73.916954,61,51,0
73.952576,74.05945,79,74,0
73.952576,74.05945,67,57,0
74.05945,74.471176,77,78,0
74.05945,74.471176,69,61,0
74.05945,74.471176,65,61,0
74.471176,74.60695,61,40,0
74.471176,74.60695,64,51,0
74.60695,74.74494,65,52,0
74.60695,74.74494,62,41,0
74.78013,74.884796,81,69,0
74.78013,74.884796,69,53,0
74.884796,75.29768,62,58,0
74.884796,75.29768,74,73,0
74.884796,75.29768,65,58,0
75.29768,75.43373,61,36,0
75.29768,75.43373,64,45,0
75.43373,75.56991,65,45,0
75.43373,75.56991,62,36,0
75.72789,76.138695,72,57,0
75.72789,76.138695,84,73,0
75.72789,76.138695,76,57,0
76.138695,76.27277,59,39,0
76.138695,76.27277,63,50,0
76.27277,76.41105,64,51,0
76.27277,76.41105,60,42,0
76.564545,76.97535,84,73,0
76.564545,76.97535,72,57,0
76.564545,76.97535,79,57,0
76.97535,77.10943,63,39,0
76.97535,77.10943,66,50,0
77.10943,77.2471,67,51,0
77.10943,77.2471,64,42,0
77.28273,77.3896,82,62,0
77.28273,77.3896,70,48,0
77.3896,77.80041,72,51,0
77.3896,77.80041,80,66,0
77.3896,77.80041,68,51,0
77.80041,77.934494,67,45,0
77.80041,77.934494,64,34,0
77.934494,78.07129,65,37,0
77.934494,78.07129,68,46,0
78.106476,78.21204,84,63,0
78.106476,78.21204,72,49,0
78.21204,78.62285,77,68,0
78.21204,78.62285,68,54,0
78.21204,78.62285,65,54,0
78.62285,78.756935,64,34,0
78.62285,78.756935,67,44,0
78.756935,78.89193,65,36,0
78.756935,78.89193,68,44,0
79.04991,79.46072,75,60,0
79.04991,79.46072,79,60,0
79.04991,79.46072,87,79,0
79.46072,79.5948,62,37,0
79.46072,79.5948,66,48,0
79.5948,79.73307,63,39,0
79.5948,79.73307,67,49,0
79.886566,80.29737,82,61,0
79.886566,80.29737,87,79,0
79.886566,80.29737,75,61,0
80.29737,80.43146,69,48,0
80.29737,80.43146,66,38,0
80.43146,80.56912,67,39,0
80.43146,80.56912,70,49,0
80.60475,80.711624,85,68,0
80.60475,80.711624,73,52,0
80.711624,81.12244,84,72,0
80.711624,81.12244,72,55,0
80.711624,81.12244,80,55,0
81.12244,81.256516,67,36,0
81.12244,81.256516,71,49,0
81.256516,81.39331,72,51,0
81.256516,81.39331,68,39,0
81.4285,81.534065,87,71,0
81.4285,81.534065,75,53,0
81.534065,81.94488,72,59,0
81.534065,81.94488,68,59,0
81.534065,81.94488,80,75,0
81.94488,82.07896,67,37,0
81.94488,82.07896,71,48,0
82.07896,82.21395,72,49,0
82.07896,82.21395,68,39,0
82.36882,82.7711,83,59,0
82.36882,82.7711,89,76,0
82.36882,82.7711,77,59,0
82.7711,82.90298,70,40,0
82.7711,82.90298,73,52,0
82.90298,83.04035,71,44,0
82.90298,83.04035,74,53,0
83.19385,83.59713,83,59,0
83.19385,83.59713,77,59,0
83.19385,83.59713,89,76,0
83.59713,83.728806,70,41,0
83.59713,83.728806,73,53,0
83.728806,83.865204,71,44,0
83.728806,83.865204,74,54,0
83.9002,84.00476,89,65,0
83.9002,84.00476,77,50,0
84.00476,84.40994,84,67,0
84.00476,84.40994,80,67,0
84.00476,84.40994,92,79,0
84.40994,84.54217,71,55,0
84.40994,84.54217,67,46,0
84.54217,84.67723,68,46,0
84.54217,84.67723,72,55,0
84.81572,85.21572,75,56,0
84.81572,85.21572,87,72,0
84.81572,85.21572,80,62,0
85.21572,85.34695,67,45,0
85.21572,85.34695,71,53,0
85.34695,85.4806,72,53,0
85.34695,85.4806,68,45,0
85.61681,86.01963,77,61,0
85.61681,86.01963,83,61,0
85.61681,86.01963,89,78,0
86.01963,86.1512,73,54,0
86.01963,86.1512,70,42,0
86.1512,86.285835,71,45,0
86.1512,86.285835,74,55,0
86.42312,86.821915,89,79,0
86.42312,86.821915,83,62,0
86.42312,86.821915,77,62,0
86.821915,86.95267,73,55,0
86.821915,86.95267,70,42,0
86.95267,87.088806,74,56,0
86.95267,87.088806,71,46,0
87.124435,87.23035,89,68,0
87.124435,87.23035,77,52,0
87.23035,87.6295,84,62,0
87.23035,87.6295,80,62,0
87.23035,87.6295,92,80,0
87.6295,87.7599,67,43,0
87.6295,87.7599,71,55,0
87.7599,87.89303,68,46,0
87.7599,87.89303,72,56,0
88.02778,88.42696,80,63,0
88.02778,88.42696,92,81,0
88.42696,88.55825,73,56,0
88.42696,88.55825,70,43,0
88.55825,88.695435,71,47,0
88.55825,88.695435,74,57,0
88.73106,88.862015,92,69,0
88.73106,88.862015,80,53,0
88.862015,89.24036,93,87,0
88.862015,89.24036,81,73,0
89.24036,89.36463,76,56,0
89.24036,89.36463,73,43,0
89.36463,89.48804,77,57,0
89.36463,89.48804,74,47,0
89.61059,89.975334,77,69,0
89.61059,89.975334,89,82,0
89.975334,90.09691,68,44,0
89.975334,90.09691,73,56,0
90.09691,90.21849,74,58,0
90.09691,90.21849,69,47,0
90.339615,90.696754,86,85,0
90.339615,90.696754,74,72,0
90.696754,90.8158,68,57,0
90.696754,90.8158,64,44,0
90.8158,90.93485,65,48,0
90.8158,90.93485,69,58,0
91.0539,91.41104,69,55,0
91.0539,91.41104,81,83,0
91.41104,91.53189,61,44,0
91.41104,91.53189,64,57,0
91.53189,91.65273,62,48,0
91.53189,91.65273,65,58,0
91.77358,92.123436,82,88,0
91.77358,92.123436,70,74,0
92.123436,92.24005,62,45,0
92.123436,92.24005,66,58,0
92.24005,92.356674,67,59,0
92.24005,92.356674,63,48,0
92.47329,92.83473,67,72,0
92.47329,92.83473,79,85,0
92.83473,92.955215,62,58,0
92.83473,92.955215,57,45,0
92.955215,93.0757,63,59,0
92.955215,93.0757,58,49,0
93.19618,93.55121,64,73,0
93.19618,93.55121,76,86,0
93.55121,93.669556,54,46,0
93.55121,93.669556,57,59,0
93.669556,93.787895,58,60,0
93.669556,93.787895,55,49,0
93.90624,94.26338,81,85,0
93.90624,94.26338,69,72,0
94.26338,94.38243,60,46,0
94.26338,94.38243,63,59,0
94.38243,94.50148,64,60,0
94.38243,94.50148,61,49,0
94.53124,94.64235,69,73,0
94.53124,94.64235,57,52,0
94.64235,94.998474,74,86,0
94.64235,94.998474,62,62,0
94.998474,95.11641,54,45,0
94.998474,95.11641,57,54,0
95.11641,95.23379,68,61,0
95.11641,95.23379,64,51,0
95.23379,95.350586,65,54,0
95.23379,95.350586,69,64,0
95.350586,95.466805,76,56,0
95.350586,95.466805,80,67,0
95.466805,95.58249,77,59,0
95.466805,95.58249,81,70,0
95.58249,95.6976,88,62,0
95.58249,95.6976,92,73,0
95.6976,95.94656,89,70,0
95.6976,95.94656,93,83,0
96.071045,96.18915,74,78,0
96.071045,96.18915,62,66,0
96.54527,96.66321,60,54,0
96.54527,96.66321,57,45,0
96.66321,96.78059,71,61,0
96.66321,96.78059,68,51,0
96.18915,96.897385,72,62,0
96.78059,96.897385,72,64,0
96.18915,96.897385,78,62,0
96.18915,96.897385,84,86,0
96.78059,96.897385,69,54,0
96.897385,97.0136,80,56,0
96.897385,97.0136,83,67,0
97.0136,97.12929,84,70,0
97.0136,97.12929,81,59,0
97.12929,97.2444,95,73,0
97.12929,97.2444,92,62,0
97.2444,97.495445,96,83,0
97.2444,97.495445,93,70,0
97.620964,97.73861,62,66,0
97.620964,97.73861,74,78,0
98.094734,98.21267,56,45,0
98.094734,98.21267,59,54,0
98.21267,98.33005,70,61,0
98.21267,98.33005,67,51,0
98.33005,98.446846,68,54,0
97.73861,98.446846,77,62,0
97.73861,98.446846,83,86,0
97.73861,98.446846,71,62,0
98.33005,98.446846,71,64,0
98.446846,98.563065,79,56,0
98.446846,98.563065,82,67,0
98.563065,98.67875,83,70,0
98.563065,98.67875,80,59,0
98.67875,98.79386,91,62,0
98.67875,98.79386,94,73,0
98.79386,99.02641,95,83,0
98.79386,99.02641,92,70,0
99.14269,99.25897,74,78,0
99.14269,99.25897,62,66,0
99.25897,99.61739,70,73,0
99.25897,99.61739,82,86,0
99.61739,99.73687,63,59,0
99.61739,99.73687,60,46,0
99.73687,99.856346,61,49,0
99.73687,99.856346,64,60,0
99.886215,99.97582,82,73,0
99.886215,99.97582,70,73,0
99.97582,100.33424,81,85,0
99.97582,100.33424,69,72,0
100.33424,100.45372,63,59,0
100.33424,100.45372,60,46,0
100.45372,100.57319,64,60,0
100.45372,100.57319,61,49,0
100.60306,100.71417,79,73,0
100.60306,100.71417,67,52,0
100.71417,101.0703,62,62,0
100.71417,101.0703,66,62,0
100.71417,101.0703,74,86,0
101.0703,101.188225,57,54,0
101.0703,101.188225,54,45,0
101.188225,101.30561,68,61,0
101.188225,101.30561,65,51,0
101.30561,101.4224,66,54,0
101.30561,101.4224,69,64,0
101.4224,101.53862,77,56,0
101.4224,101.53862,80,67,0
101.53862,101.654305,81,70,0
101.53862,101.654305,78,59,0
101.654305,101.76942,92,73,0
101.654305,101.76942,89,62,0
101.76942,102.04465,93,83,0
101.76942,102.04465,90,70,0
102.18226,102.30938,62,66,0
102.18226,102.30938,74,78,0
102.665504,102.78344,60,54,0
102.665504,102.78344,57,45,0
102.78344,102.90082,71,61,0
102.78344,102.90082,68,51,0
102.90082,103.01761,69,54,0
102.30938,103.01761,84,86,0
102.30938,103.01761,72,62,0
102.90082,103.01761,72,64,0
102.30938,103.01761,78,62,0
103.01761,103.13383,83,67,0
103.01761,103.13383,80,56,0
103.13383,103.24951,84,70,0
103.13383,103.24951,81,59,0
103.24951,103.364624,92,62,0
103.24951,103.364624,95,73,0
103.364624,103.61359,93,70,0
103.364624,103.61359,96,83,0
103.73807,103.85618,62,66,0
103.73807,103.85618,74,78,0
104.2123,104.33024,59,54,0
104.2123,104.33024,56,45,0
104.33024,104.44762,70,61,0
104.33024,104.44762,67,51,0
103.85618,104.56441,71,62,0
104.44762,104.56441,71,64,0
103.85618,104.56441,83,86,0
103.85618,104.56441,77,62,0
104.44762,104.56441,68,54,0
104.56441,104.680626,82,67,0
104.56441,104.680626,79,56,0
104.680626,104.79631,83,70,0
104.680626,104.79631,80,59,0
104.79631,104.91142,94,73,0
104.79631,104.91142,91,62,0
104.91142,105.148575,92,70,0
104.91142,105.148575,95,83,0
105.26715,105.38036,62,66,0
105.26715,105.38036,74,78,0
105.38036,105.738785,70,73,0
105.38036,105.738785,82,86,0
105.738785,105.85826,60,46,0
105.738785,105.85826,63,59,0
105.85826,105.97773,61,49,0
105.85826,105.97773,64,60,0
106.0076,106.097206,82,73,0
106.0076,106.097206,70,73,0
106.097206,106.45563,81,85,0
106.097206,106.45563,69,72,0
106.45563,106.5751,63,59,0
106.45563,106.5751,60,46,0
106.5751,106.69458,64,60,0
106.5751,106.69458,61,49,0
106.72445,106.835556,79,73,0
106.72445,106.835556,67,52,0
106.835556,106.99599,62,62,0
106.835556,106.99599,74,78,0
106.835556,106.99599,66,62,0
107.15539,107.25084,85,46,0
107.25084,107.346054,84,46,0
107.346054,107.44105,83,47,0
107.15539,107.44105,94,70,0
107.44105,107.53582,82,48,0
107.53582,107.63036,81,48,0
107.63036,107.724686,80,49,0
107.44105,107.724686,91,73,0
107.724686,107.81879,79,50,0
107.81879,107.91266,78,50,0
107.91266,108.00632,77,51,0
107.724686,108.00632,88,77,0
108.00632,108.14638,76,51,0
108.00632,108.14638,85,80,0
108.286,108.38262,70,47,0
108.38262,108.47924,73,60,0
108.47924,108.57586,76,60,0
108.286,108.57586,82,84,0
108.57586,108.733345,78,68,0
108.57586,108.733345,86,85,0
108.57586,108.733345,74,68,0
108.890076,108.986626,73,46,0
108.986626,109.0829,72,46,0
109.0829,109.1789,71,47,0
108.890076,109.1789,82,70,0
109.1789,109.2746,70,48,0
109.2746,109.37,69,48,0
109.37,109.46513,68,49,0
109.1789,109.46513,79,73,0
109.46513,109.55999,67,50,0
109.55999,109.654564,66,50,0
109.654564,109.74884,65,51,0
109.46513,109.74884,76,77,0
109.74884,109.889755,73,80,0
109.74884,109.889755,64,51,0
110.03006,110.129814,58,47,0
110.129814,110.22956,61,60,0
110.22956,110.329315,64,60,0
110.03006,110.329315,70,84,0
110.329315,110.47355,62,73,0
110.329315,110.47355,74,93,0
110.329315,110.47355,66,73,0
110.617775,110.71581,64,57,0
110.71581,110.81386,70,57,0
110.81386,110.911896,73,57,0
110.617775,110.911896,76,70,0
110.911896,111.05578,66,71,0
110.911896,111.05578,78,90,0
110.911896,111.05578,69,71,0
111.19966,111.29699,70,58,0
111.29699,111.39431,73,58,0
111.39431,111.49164,76,59,0
111.19966,111.49164,82,71,0
111.49164,111.634834,86,91,0
111.49164,111.634834,74,72,0
111.49164,111.634834,78,72,0
111.77803,111.87583,76,60,0
111.87583,111.97363,82,60,0
111.97363,112.071434,85,60,0
111.77803,112.071434,88,73,0
112.071434,112.21532,78,74,0
112.071434,112.21532,81,74,0
112.071434,112.21532,90,94,0
112.3592,112.45724,82,61,0
112.45724,112.55528,85,61,0
112.55528,112.65332,88,62,0
112.3592,112.65332,94,75,0
112.65332,112.7972,98,96,0
112.65332,112.7972,86,75,0
112.65332,112.7972,90,75,0
112.941086,113.03937,82,63,0
113.03937,113.13765,85,63,0
113.13765,113.23593,88,63,0
112.941086,113.23593,94,77,0
113.23593,113.37947,98,98,0
113.23593,113.37947,90,77,0
113.23593,113.37947,86,77,0
113.52301,113.62081,82,64,0
113.62081,113.718605,85,64,0
113.718605,113.81647,88,64,0
113.52301,113.81647,94,78,0
113.81647,113.96335,90,78,0
113.81647,113.96335,86,66,0
113.81647,113.96335,98,78,0
113.96335,114.10955,82,63,0
113.96335,114.10955,94,75,0
114.39997,114.544205,86,74,0
114.39997,114.544205,74,62,0
114.544205,114.688095,82,74,0
114.544205,114.688095,70,62,0
114.97586,115.11975,62,62,0
114.97586,115.11975,74,73,0
115.11975,115.26363,70,73,0
115.11975,115.26363,58,62,0
115.55141,115.695595,62,72,0
115.55141,115.695595,50,61,0
115.83989,115.98447,50,60,0
115.83989,115.98447,62,71,0
116.129196,116.27412,50,59,0
116.129196,116.27412,62,70,0
116.41929,116.564995,50,58,0
116.41929,116.564995,62,69,0
116.712006,116.860374,50,57,0
116.712006,116.860374,62,68,0
117.01,117.16099,50,56,0
117.01,117.16099,62,67,0
117.391655,117.469124,51,61,0
117.391655,117.469124,39,50,0
117.54644,117.623764,41,50,0
117.54644,117.623764,53,61,0
117.700905,117.77803,43,50,0
117.700905,117.77803,55,61,0
117.855,117.93193,57,61,0
117.855,117.93193,45,50,0
118.00878,118.08551,59,61,0
118.00878,118.08551,47,50,0
118.1622,118.23873,61,61,0
118.1622,118.23873,49,50,0
118.31526,118.39163,51,50,0
118.31526,118.39163,63,61,0
118.46797,118.544174,65,61,0
118.46797,118.544174,53,50,0
118.62032,118.69641,67,62,0
118.62032,118.69641,55,52,0
118.77236,118.84831,57,54,0
118.77236,118.84831,69,63,0
118.924095,118.99985,59,55,0
118.924095,118.99985,71,66,0
119.07547,119.15103,61,56,0
119.07547,119.15103,73,67,0
119.22654,119.30192,63,57,0
119.22654,119.30192,75,68,0
119.37725,119.45244,65,58,0
119.37725,119.45244,77,69,0
119.527626,119.60267,67,58,0
119.527626,119.60267,79,70,0
119.677666,119.75269,69,60,0
119.677666,119.75269,81,72,0
119.82776,119.902466,83,73,0
119.82776,119.902466,71,61,0
119.97692,120.05113,85,74,0
119.97692,120.05113,73,74,0
120.12539,120.199646,73,63,0
120.12539,120.199646,85,75,0
120.2739,120.34816,83,74,0
120.2739,120.34816,71,62,0
120.42242,120.496826,81,73,0
120.42242,120.496826,69,61,0
120.571266,120.645706,67,60,0
120.571266,120.645706,79,72,0
120.720146,120.79459,65,58,0
120.720146,120.79459,77,70,0
120.86907,120.943695,75,69,0
120.86907,120.943695,63,58,0
121.018326,121.09295,61,57,0
121.018326,121.09295,73,68,0
121.16758,121.2422,71,67,0
121.16758,121.2422,59,56,0
121.317154,121.3923,57,55,0
121.317154,121.3923,69,66,0
121.46763,121.54318,55,52,0
121.46763,121.54318,67,62,0
121.61893,121.69488,53,50,0
121.61893,121.69488,65,61,0
121.77106,121.84742,51,50,0
121.77106,121.84742,63,61,0
121.92402,122.00079,61,60,0
121.92402,122.00079,49,50,0
122.07781,122.155014,47,48,0
122.07781,122.155014,59,57,0
122.23253,122.31078,45,46,0
122.23253,122.31078,57,56,0
122.38981,122.46963,55,55,0
122.38981,122.46963,43,45,0
122.55025,122.631676,53,54,0
122.55025,122.631676,41,44,0
122.71396,122.79713,51,52,0
122.71396,122.79713,39,44,0
125.142395,125.29966,65,24,0
125.29966,125.44935,74,24,0
125.29966,125.44935,70,20,0
125.44935,125.59822,77,25,0
125.44935,125.59822,74,21,0
125.142395,125.59822,62,20,0
125.59822,125.74623,82,22,0
125.59822,125.74623,86,26,0
125.74623,125.89294,89,27,0
125.74623,125.89294,86,22,0
125.89294,126.0443,98,28,0
125.89294,126.0443,94,23,0
126.0443,126.19549,89,29,0
126.0443,126.19549,86,24,0
126.19549,126.346054,82,23,0
126.19549,126.346054,86,28,0
126.346054,126.4961,74,22,0
126.346054,126.4961,77,27,0
126.4961,126.65704,70,21,0
126.4961,126.65704,74,25,0
126.65704,126.721664,62,20,0
126.65704,126.721664,65,24,0
127.01561,127.172874,65,24,0
127.172874,127.32256,70,20,0
127.172874,127.32256,74,24,0
127.32256,127.471436,74,21,0
127.32256,127.471436,77,25,0
127.01561,127.471436,62,20,0
127.471436,127.619446,82,22,0
127.471436,127.619446,86,26,0
127.619446,127.76615,89,27,0
127.619446,127.76615,86,22,0
127.76615,127.91751,98,28,0
127.76615,127.91751,94,23,0
127.91751,128.06871,86,24,0
127.91751,128.06871,89,29,0
128.06871,128.21927,82,23,0
128.06871,128.21927,86,28,0
128.21927,128.36931,77,27,0
128.21927,128.36931,74,22,0
128.36931,128.53026,70,21,0
128.36931,128.53026,74,25,0
128.53026,128.59488,62,20,0
128.53026,128.59488,65,24,0
128.88882,129.0461,66,24,0
128.88882,129.0461,63,20,0
129.0461,129.19577,72,20,0
129.0461,129.19577,75,24,0
129.19577,129.34465,75,21,0
129.19577,129.34465,78,25,0
129.34465,129.49266,87,26,0
129.34465,129.49266,84,22,0
129.49266,129.65941,90,27,0
129.49266,129.65941,87,22,0
129.65941,129.81076,96,23,0
129.65941,129.81076,99,28,0
129.81076,129.96196,90,29,0
129.81076,129.96196,87,24,0
129.96196,130.11252,84,23,0
129.96196,130.11252,87,28,0
130.11252,130.26257,78,27,0
130.11252,130.26257,75,22,0
130.26257,130.42351,72,21,0
130.26257,130.42351,75,25,0
130.42351,130.48813,63,20,0
130.42351,130.48813,66,24,0
130.78207,130.93935,62,20,0
130.78207,130.93935,65,24,0
130.93935,131.08904,74,24,0
130.93935,131.08904,70,20,0
131.08904,131.2379,74,21,0
131.08904,131.2379,77,25,0
131.2379,131.38591,82,22,0
131.2379,131.38591,86,26,0
131.38591,131.53235,89,27,0
131.38591,131.53235,86,22,0
131.53235,131.67767,94,23,0
131.53235,131.67767,98,28,0
131.67767,131.82387,89,29,0
131.67767,131.82387,86,24,0
131.82387,131.97092,86,28,0
131.82387,131.97092,82,23,0
131.97092,132.11885,77,27,0
131.97092,132.11885,74,22,0
132.11885,132.28049,70,21,0
132.11885,132.28049,74,25,0
132.28049,132.34837,65,24,0
132.28049,132.34837,62,20,0
132.64778,132.80505,67,24,0
132.80505,132.95474,70,20,0
132.80505,132.95474,74,24,0
132.95474,133.1036,79,25,0
132.95474,133.1036,74,21,0
132.64778,133.1036,62,20,0
133.1036,133.25162,86,26,0
133.1036,133.25162,82,22,0
133.25162,133.39833,86,22,0
133.25162,133.39833,91,27,0
133.39833,133.54968,98,28,0
133.39833,133.54968,94,23,0
133.54968,133.70088,91,29,0
133.54968,133.70088,86,24,0
133.70088,133.85144,86,28,0
133.70088,133.85144,82,23,0
133.85144,134.0015,74,22,0
133.85144,134.0015,79,27,0
134.0015,134.16243,70,21,0
134.0015,134.16243,74,25,0
134.16243,134.33475,62,20,0
134.16243,134.33475,67,24,0
134.521,134.67827,67,24,0
134.521,134.67827,62,20,0
134.67827,134.82796,74,24,0
134.67827,134.82796,70,20,0
134.82796,134.97682,79,25,0
134.82796,134.97682,74,21,0
134.97682,135.12483,82,22,0
134.97682,135.12483,86,26,0
135.12483,135.27155,91,27,0
135.12483,135.27155,86,22,0
135.27155,135.4229,98,28,0
135.27155,135.4229,94,23,0
135.4229,135.5741,86,24,0
135.4229,135.5741,91,29,0
135.5741,135.72466,86,28,0
135.5741,135.72466,82,23,0
135.72466,135.87471,74,22,0
135.72466,135.87471,79,27,0
135.87471,136.03564,70,21,0
135.87471,136.03564,74,25,0
136.03564,136.20796,62,20,0
136.03564,136.20796,67,24,0
136.39421,136.55148,64,20,0
136.39421,136.55148,67,24,0
136.55148,136.70117,70,20,0
136.55148,136.70117,76,24,0
136.70117,136.85004,79,25,0
136.70117,136.85004,76,21,0
136.85004,136.99805,82,22,0
136.85004,136.99805,88,26,0
136.99805,137.1648,88,22,0
136.99805,137.1648,91,27,0
137.1648,137.31615,100,28,0
137.1648,137.31615,94,23,0
137.31615,137.46735,91,29,0
137.31615,137.46735,88,24,0
137.46735,137.6179,88,28,0
137.46735,137.6179,82,23,0
137.6179,137.76796,76,22,0
137.6179,137.76796,79,27,0
137.76796,137.92891,70,21,0
137.76796,137.92891,76,25,0
137.92891,138.10121,67,24,0
138.28746,138.44473,69,24,0
138.44473,138.59442,77,24,0
138.44473,138.59442,72,20,0
138.59442,138.74329,77,21,0
138.59442,138.74329,81,25,0
138.74329,138.89131,84,22,0
138.74329,138.89131,89,26,0
138.89131,139.03773,93,27,0
138.89131,139.03773,89,22,0
139.03773,139.18307,101,28,0
139.03773,139.18307,96,23,0
138.28746,139.18307,65,20,0
139.18307,139.32925,93,29,0
139.18307,139.32925,89,24,0
139.32925,139.4763,89,28,0
139.32925,139.4763,84,23,0
139.4763,139.62424,77,22,0
139.4763,139.62424,81,27,0
139.62424,139.78587,72,21,0
139.62424,139.78587,77,25,0
139.78587,139.96692,69,24,0
139.78587,139.96692,65,21,0
140.15318,140.31044,68,24,0
140.31044,140.46013,77,24,0
140.31044,140.46013,73,20,0
140.46013,140.609,77,21,0
140.46013,140.609,80,25,0
140.15318,140.609,65,20,0
140.609,140.75702,89,26,0
140.609,140.75702,85,22,0
140.75702,140.90372,92,27,0
140.75702,140.90372,89,22,0
140.90372,141.05507,101,28,0
140.90372,141.05507,97,23,0
141.05507,141.20627,89,24,0
141.05507,141.20627,92,29,0
141.20627,141.35684,85,23,0
141.20627,141.35684,89,28,0
141.35684,141.50688,77,22,0
141.35684,141.50688,80,27,0
141.50688,141.66783,73,21,0
141.50688,141.66783,77,25,0
141.66783,141.73244,68,24,0
142.0264,142.18365,63,20,0
142.18365,142.33334,75,24,0
142.18365,142.33334,73,20,0
142.33334,142.48221,80,25,0
142.33334,142.48221,75,21,0
142.0264,142.48221,68,24,0
142.48221,142.63023,87,26,0
142.48221,142.63023,85,22,0
142.63023,142.77693,92,27,0
142.63023,142.77693,87,22,0
142.77693,142.92828,99,28,0
142.77693,142.92828,96,23,0
142.92828,143.07948,87,24,0
142.92828,143.07948,92,29,0
143.07948,143.23006,84,23,0
143.07948,143.23006,87,28,0
143.23006,143.3801,80,27,0
143.23006,143.3801,75,22,0
143.3801,143.54213,75,25,0
143.3801,143.54213,72,21,0
143.54213,143.61003,68,24,0
143.54213,143.61003,63,22,0
143.90944,144.0667,67,24,0
144.0667,144.21638,72,20,0
144.0667,144.21638,75,24,0
144.21638,144.36525,79,25,0
144.21638,144.36525,75,21,0
143.90944,144.36525,63,20,0
144.36525,144.51328,84,22,0
144.36525,144.51328,87,26,0
144.51328,144.65997,91,27,0
144.51328,144.65997,87,22,0
144.65997,144.81133,99,28,0
144.65997,144.81133,96,23,0
144.81133,144.96252,87,24,0
144.81133,144.96252,91,29,0
144.96252,145.1131,84,23,0
144.96252,145.1131,87,28,0
145.1131,145.26314,75,22,0
145.1131,145.26314,79,27,0
145.26314,145.42409,72,21,0
145.26314,145.42409,75,25,0
145.42409,145.51024,67,24,0
145.78265,145.93991,62,20,0
145.93991,146.0896,72,20,0
145.93991,146.0896,74,24,0
146.0896,146.23848,74,21,0
146.0896,146.23848,79,25,0
145.78265,146.23848,67,24,0
146.23848,146.38649,86,26,0
146.23848,146.38649,84,22,0
146.38649,146.53319,86,22,0
146.38649,146.53319,91,27,0
146.53319,146.68454,98,28,0
146.53319,146.68454,95,23,0
146.68454,146.83574,86,24,0
146.68454,146.83574,91,29,0
146.83574,146.98631,86,28,0
146.83574,146.98631,83,23,0
146.98631,147.13635,79,27,0
146.98631,147.13635,74,22,0
147.13635,147.29839,71,21,0
147.13635,147.29839,74,25,0
147.29839,147.36629,67,24,0
147.29839,147.36629,62,20,0
147.6657,147.82295,65,24,0
147.82295,147.97264,74,24,0
147.82295,147.97264,70,20,0
147.97264,148.12152,74,21,0
147.97264,148.12152,77,25,0
147.6657,148.12152,62,20,0
148.12152,148.26953,86,26,0
148.12152,148.26953,82,22,0
148.26953,148.41623,89,27,0
148.26953,148.41623,86,22,0
148.41623,148.5676,98,28,0
148.41623,148.5676,94,23,0
148.5676,148.71878,89,29,0
148.5676,148.71878,86,24,0
148.71878,148.86935,86,28,0
148.71878,148.86935,82,23,0
148.86935,149.0194,74,22,0
148.86935,149.0194,77,27,0
149.0194,149.18034,70,21,0
149.0194,149.18034,74,25,0
149.18034,149.24496,62,21,0
149.18034,149.2665,65,24,0
149.53891,149.69617,67,24,0
149.53891,149.69617,62,20,0
149.69617,149.84586,74,24,0
149.69617,149.84586,70,20,0
149.84586,149.99474,74,21,0
149.84586,149.99474,79,25,0
149.99474,150.14275,86,26,0
149.99474,150.14275,82,22,0
150.14275,150.28944,91,27,0
150.14275,150.28944,86,22,0
150.28944,150.44081,94,23,0
150.28944,150.44081,98,28,0
150.44081,150.592,91,29,0
150.44081,150.592,86,24,0
150.592,150.74257,86,28,0
150.592,150.74257,82,23,0
150.74257,150.89261,79,27,0
150.74257,150.89261,74,22,0
150.89261,151.05356,70,21,0
150.89261,151.05356,74,25,0
151.05356,151.22586,62,20,0
151.05356,151.22586,67,24,0
151.37775,151.52963,63,25,0
151.37775,151.52963,67,25,0
151.52963,151.68152,74,25,0
151.83447,151.98743,75,27,0
151.83447,151.98743,72,27,0
151.98743,152.14037,79,27,0
151.98743,152.14037,84,27,0
152.29225,152.44414,82,27,0
152.29225,152.44414,87,27,0
152.44414,152.59602,91,27,0
152.44414,152.59602,94,27,0
152.75397,152.9119,87,25,0
152.75397,152.9119,84,25,0
152.9119,153.06984,91,25,0
152.9119,153.06984,96,25,0
153.22664,153.38391,66,24,0
153.38391,153.5336,69,20,0
153.38391,153.5336,74,24,0
153.5336,153.68246,78,25,0
153.5336,153.68246,74,21,0
153.68246,153.83047,86,26,0
153.68246,153.83047,81,22,0
153.83047,153.97719,86,22,0
153.83047,153.97719,90,27,0
153.97719,154.12854,93,23,0
153.97719,154.12854,98,28,0
154.12854,154.27974,86,24,0
154.12854,154.27974,90,29,0
154.27974,154.4303,86,28,0
154.27974,154.4303,81,23,0
154.4303,154.58035,78,27,0
154.4303,154.58035,74,22,0
154.58035,154.7413,81,21,0
154.58035,154.7413,86,25,0
153.22664,154.82745,62,20,0
154.7413,154.9136,78,24,0
154.7413,154.9136,74,20,0
154.9136,155.07329,74,26,0
154.9136,155.07329,69,22,0
155.07329,155.23297,66,24,0
155.07329,155.23297,62,20,0
155.23297,155.39265,69,22,0
155.23297,155.39265,74,27,0
157.10031,157.38576,74,33,0
157.38576,157.77086,86,30,0
157.77086,158.68378,98,37,0
158.8647,159.02191,86,29,0
158.8647,159.02191,74,24,0
159.03917,159.19139,86,31,0
159.03917,159.19139,74,26,0
159.20807,159.35558,86,34,0
159.20807,159.35558,74,28,0
159.37172,159.51479,74,29,0
159.37172,159.51479,86,36,0
159.53043,159.66884,74,32,0
159.53043,159.66884,86,39,0
159.6834,160.60538,74,44,0
159.6834,160.60538,86,52,0
160.60538,161.26132,74,41,0
160.60538,161.26132,86,49,0
161.34044,161.49866,84,41,0
161.34044,161.49866,72,35,0
161.49866,162.37813,70,46,0
161.49866,162.37813,82,55,0
162.37813,163.01086,82,54,0
162.37813,163.01086,70,45,0
163.08997,163.2482,82,57,0
163.08997,163.2482,70,48,0
163.2482,163.92181,69,52,0
163.2482,163.92181,81,62,0
163.99315,164.1462,69,63,0
163.99315,164.1462,81,63,0
164.1462,164.79248,78,69,0
164.1462,164.79248,90,69,0
164.8773,165.04694,81,58,0
164.8773,165.04694,69,49,0
165.04694,165.9518,84,66,0
165.04694,165.9518,72,55,0
165.9518,166.38065,70,50,0
165.9518,166.38065,82,60,0
166.8351,167.75403,86,68,0
166.8351,167.75403,74,57,0
167.75403,168.40074,86,63,0
167.75403,168.40074,74,53,0
168.47984,168.63808,84,60,0
168.47984,168.63808,72,50,0
168.63808,169.51752,82,68,0
168.63808,169.51752,70,57,0
170.22937,170.3876,82,63,0
170.22937,170.3876,70,53,0
170.3876,171.06122,73,57,0
170.3876,171.06122,85,68,0
171.13255,171.29509,84,73,0
171.13255,171.29509,72,61,0
171.29509,171.94136,94,79,0
171.29509,171.94136,82,66,0
172.02655,172.1969,88,63,0
172.02655,172.1969,76,53,0
172.1969,173.11139,77,60,0
172.1969,173.11139,89,72,0
173.97809,174.877,89,78,0
173.97809,174.877,77,64,0
174.877,175.52405,89,74,0
174.877,175.52405,77,62,0
175.60316,175.76138,89,72,0
175.60316,175.76138,77,60,0
175.76138,176.64082,92,83,0
175.76138,176.64082,80,69,0
176.64082,177.0642,87,80,0
176.64082,177.0642,75,67,0
177.51091,178.40982,80,74,0
177.51091,178.40982,92,89,0
178.40982,179.05687,92,84,0
178.40982,179.05687,80,71,0
179.13599,179.29422,92,82,0
179.13599,179.29422,80,69,0
179.29422,180.17365,83,79,0
179.29422,180.17365,95,94,0
180.17365,180.59702,78,75,0
180.17365,180.59702,90,90,0
181.3602,181.50261,71,40,0
181.3602,181.50261,61,34,0
181.51843,181.65088,62,34,0
181.51843,181.65088,71,40,0
181.66559,181.79805,63,34,0
181.66559,181.79805,71,40,0
181.81276,181.9452,64,34,0
181.81276,181.9452,71,40,0
181.95993,182.09238,71,40,0
181.95993,182.09238,65,34,0
182.1071,182.23955,66,34,0
182.1071,182.23955,71,40,0
182.25426,182.38672,67,34,0
182.25426,182.38672,71,40,0
182.40143,182.53387,68,34,0
182.40143,182.53387,71,40,0
182.5486,182.68105,69,34,0
182.5486,182.68105,71,40,0
182.69577,182.82822,70,34,0
182.69577,182.82822,71,40,0
182.84293,182.97508,71,40,0
182.98973,183.12149,72,41,0
182.98973,183.12149,71,35,0
183.1361,183.26727,73,42,0
183.1361,183.26727,71,36,0
183.28181,183.4124,71,37,0
183.28181,183.4124,74,44,0
183.4269,183.55692,71,37,0
183.4269,183.55692,75,45,0
183.5713,183.7007,76,46,0
183.5713,183.7007,71,38,0
183.71513,183.84511,71,39,0
183.71513,183.84511,77,47,0
183.85954,183.9892,71,40,0
183.85954,183.9892,78,48,0
184.00359,184.1335,71,42,0
184.00359,184.1335,79,50,0
184.1481,184.27948,80,51,0
184.1481,184.27948,71,42,0
184.29408,184.42548,71,44,0
184.29408,184.42548,81,52,0
184.44006,184.57367,71,45,0
184.44006,184.57367,82,53,0
184.5895,184.7319,83,51,0
184.74773,184.89014,72,52,0
184.74773,184.89014,83,44,0
184.90594,185.04836,73,52,0
184.90594,185.04836,83,44,0
185.06418,185.19662,74,53,0
185.06418,185.19662,83,45,0
185.21135,185.3438,75,55,0
185.21135,185.3438,83,46,0
185.35852,185.49097,83,47,0
185.35852,185.49097,76,56,0
185.50568,185.63716,83,48,0
185.50568,185.63716,77,57,0
185.65178,185.78325,78,58,0
185.65178,185.78325,83,49,0
185.79787,185.92935,83,49,0
185.79787,185.92935,79,59,0
185.94395,186.07544,83,50,0
185.94395,186.07544,80,60,0
186.09004,186.22153,83,50,0
186.09004,186.22153,81,60,0
186.23615,186.36763,82,61,0
186.23615,186.36763,83,51,0
186.38223,186.5129,83,62,0
186.52739,186.6575,83,53,0
186.52739,186.6575,84,63,0
186.67189,186.80118,85,64,0
186.67189,186.80118,83,55,0
186.81552,186.94405,86,64,0
186.81552,186.94405,83,55,0
186.95828,187.08609,87,66,0
186.95828,187.08609,83,56,0
187.10022,187.22723,83,56,0
187.10022,187.22723,88,67,0
187.24136,187.36897,83,57,0
187.24136,187.36897,89,68,0
187.38321,187.51193,90,69,0
187.38321,187.51193,83,58,0
187.52628,187.65593,83,59,0
187.52628,187.65593,91,70,0
187.67041,187.80116,92,70,0
187.67041,187.80116,83,59,0
187.81572,187.94662,93,71,0
187.81572,187.94662,83,60,0
187.96117,188.09207,94,72,0
187.96117,188.09207,83,61,0
188.10663,188.24207,95,61,0
188.10663,188.24207,83,72,0
188.25711,188.39255,84,73,0
188.25711,188.39255,95,61,0
188.40761,188.54305,95,62,0
188.40761,188.54305,85,74,0
188.55748,188.68703,86,74,0
188.55748,188.68703,95,62,0
188.70137,188.82979,87,75,0
188.70137,188.82979,95,63,0
188.84396,188.97113,95,64,0
188.84396,188.97113,88,77,0
189.12997,189.25993,86,79,0
189.12997,189.25993,95,67,0
189.12997,189.25993,88,79,0
189.27438,189.40434,95,68,0
189.27438,189.40434,86,68,0
189.27438,189.40434,89,80,0
189.41878,189.54875,95,68,0
189.41878,189.54875,90,81,0
189.41878,189.54875,86,68,0
189.56319,189.6977,86,69,0
189.56319,189.6977,95,69,0
189.56319,189.6977,91,82,0
189.71327,189.80089,92,83,0
189.71327,189.80089,86,70,0
189.71327,189.80089,95,70,0
190.01355,190.15602,96,73,0
190.01355,190.15602,100,86,0
190.01355,190.15602,91,73,0
190.15602,190.29736,95,73,0
190.15602,190.29736,90,73,0
190.15602,190.29736,99,86,0
190.29736,190.43997,98,85,0
190.29736,190.43997,94,72,0
190.29736,190.43997,89,72,0
190.43997,190.58427,88,71,0
190.43997,190.58427,93,71,0
190.43997,190.58427,97,84,0
190.58427,190.72868,92,71,0
190.58427,190.72868,87,71,0
190.58427,190.72868,96,84,0
190.72868,190.87308,91,70,0
190.72868,190.87308,86,70,0
190.72868,190.87308,95,83,0
190.87308,191.01749,90,83,0
190.87308,191.01749,85,70,0
190.87308,191.01749,94,83,0
191.01749,191.1619,93,82,0
191.01749,191.1619,84,69,0
191.01749,191.1619,89,69,0
191.1619,191.31181,92,81,0
191.1619,191.31181,88,68,0
191.1619,191.31181,83,68,0
191.31181,191.46175,82,68,0
191.31181,191.46175,91,81,0
191.31181,191.46175,87,68,0
191.46175,191.61166,81,68,0
191.46175,191.61166,86,68,0
191.46175,191.61166,90,80,0
191.61166,191.75722,89,79,0
191.61166,191.75722,80,56,0
191.61166,191.75722,85,56,0
191.75722,191.90097,84,56,0
191.75722,191.90097,88,79,0
191.75722,191.90097,79,56,0
191.90097,192.04384,83,78,0
191.90097,192.04384,87,78,0
191.90097,192.04384,78,56,0
192.04384,192.18799,86,77,0
192.04384,192.18799,82,55,0
192.04384,192.18799,77,55,0
192.18799,192.33344,81,55,0
192.18799,192.33344,76,55,0
192.18799,192.33344,85,77,0
192.33344,192.47942,80,53,0
192.33344,192.47942,84,75,0
192.33344,192.47942,75,53,0
192.62541,192.7714,74,62,0
192.62541,192.7714,83,74,0
192.62541,192.7714,79,62,0
192.7714,192.91737,73,62,0
192.7714,192.91737,78,62,0
192.7714,192.91737,82,74,0
192.91737,193.0673,81,73,0
192.91737,193.0673,77,73,0
192.91737,193.0673,72,61,0
193.0673,193.21722,71,61,0
193.0673,193.21722,74,61,0
193.0673,193.21722,80,72,0
193.21722,193.36716,71,61,0
193.21722,193.36716,79,72,0
193.21722,193.36716,74,61,0
193.51324,193.65712,84,61,0
193.51324,193.65712,79,61,0
193.51324,193.65712,88,73,0
193.65712,193.80101,87,73,0
193.65712,193.80101,78,61,0
193.65712,193.80101,83,61,0
193.80101,193.94594,77,61,0
193.80101,193.94594,82,61,0
193.80101,193.94594,86,71,0
193.94594,194.09187,76,59,0
193.94594,194.09187,85,70,0
193.94594,194.09187,81,59,0
194.09187,194.23785,84,70,0
194.09187,194.23785,75,59,0
194.09187,194.23785,80,59,0
194.23785,194.38383,79,58,0
194.23785,194.38383,74,58,0
194.23785,194.38383,83,69,0
194.38383,194.52983,78,58,0
194.38383,194.52983,73,58,0
194.38383,194.52983,82,69,0
194.52983,194.67581,77,56,0
194.52983,194.67581,72,56,0
194.52983,194.67581,81,67,0
194.67581,194.82574,80,66,0
194.67581,194.82574,71,55,0
194.67581,194.82574,76,55,0
194.82574,194.97566,75,55,0
194.82574,194.97566,70,55,0
194.82574,194.97566,79,65,0
194.97566,195.12558,69,55,0
194.97566,195.12558,78,65,0
194.97566,195.12558,74,55,0
195.12558,195.27275,77,64,0
195.12558,195.27275,73,53,0
195.12558,195.27275,68,53,0
195.27275,195.41992,72,54,0
195.27275,195.41992,76,65,0
195.41992,195.5671,71,53,0
195.41992,195.5671,75,64,0
195.5671,195.71425,74,62,0
195.5671,195.71425,70,52,0
195.71425,195.86142,73,61,0
195.71425,195.86142,69,50,0
195.71425,195.86142,64,50,0
195.86142,196.00859,68,50,0
195.86142,196.00859,72,60,0
195.86142,196.00859,63,50,0
196.00859,196.15576,62,50,0
196.00859,196.15576,71,59,0
196.00859,196.15576,67,50,0
196.15576,196.30292,61,50,0
196.15576,196.30292,66,50,0
196.15576,196.30292,70,59,0
196.30292,196.45009,65,48,0
196.30292,196.45009,69,58,0
196.30292,196.45009,60,48,0
196.45009,196.59726,68,57,0
196.45009,196.59726,59,47,0
196.45009,196.59726,64,47,0
196.59726,196.74443,67,56,0
196.59726,196.74443,63,47,0
196.59726,196.74443,58,47,0
196.74443,196.89127,62,46,0
196.74443,196.89127,66,54,0
196.74443,196.89127,57,46,0
196.89127,197.03731,56,46,0
196.89127,197.03731,65,54,0
196.89127,197.03731,61,54,0
197.03731,197.18286,55,45,0
197.03731,197.18286,60,45,0
197.03731,197.18286,64,53,0
197.18286,197.32796,63,52,0
197.18286,197.32796,59,43,0
197.18286,197.32796,54,43,0
197.32796,197.47252,58,43,0
197.32796,197.47252,53,43,0
197.32796,197.47252,62,50,0
197.47252,197.61665,61,50,0
197.47252,197.61665,57,42,0
197.47252,197.61665,52,42,0
197.61665,197.76039,56,40,0
197.61665,197.76039,60,48,0
197.61665,197.76039,51,40,0
197.76039,197.90294,59,47,0
197.76039,197.90294,55,39,0
197.76039,197.90294,50,39,0
197.90294,198.04504,49,38,0
197.90294,198.04504,58,46,0
197.90294,198.04504,54,38,0
198.04504,198.18663,48,37,0
198.04504,198.18663,57,45,0
198.04504,198.18663,53,37,0
198.18663,198.32773,47,37,0
198.18663,198.32773,52,37,0
198.18663,198.32773,56,44,0
198.32773,198.46832,46,35,0
198.32773,198.46832,51,35,0
198.32773,198.46832,55,43,0
198.46832,198.60843,54,42,0
198.46832,198.60843,45,35,0
198.46832,198.60843,50,35,0
204.60207,205.048,60,48,0
205.048,205.48093,61,49,0
205.48093,205.9038,62,52,0
205.9038,206.30772,63,53,0
206.30772,206.70993,64,57,0
206.70993,207.1105,65,58,0
207.1105,207.50906,66,61,0
207.50906,207.90668,67,65,0
207.90668,208.30406,68,66,0
208.30406,208.69907,69,69,0
208.69907,209.09406,70,71,0
209.09406,209.4919,71,75,0
209.4919,209.8969,72,78,0
209.8969,210.11667,73,80,0
209.8969,210.11667,61,70,0
210.99689,211.1221,81,66,0
210.33646,211.1221,70,75,0
210.33646,211.1221,82,90,0
210.99689,211.1221,69,55,0
211.1221,211.24667,79,63,0
211.1221,211.24667,67,53,0
211.2459,211.36987,65,53,0
211.24667,211.37064,77,63,0
211.37064,211.49406,64,59,0
211.37064,211.49406,76,70,0
211.49174,211.6146,62,55,0
211.49406,211.61688,74,65,0
211.61688,211.73917,61,62,0
211.61688,211.73917,73,73,0
211.73917,211.86086,64,55,0
211.73917,211.86086,76,65,0
211.86086,211.98218,60,60,0
211.86086,211.98218,72,72,0
211.98218,212.11005,64,55,0
211.98218,212.11005,76,65,0
212.11005,212.24258,71,72,0
212.11005,212.24258,59,60,0
212.24258,212.3668,64,55,0
212.24258,212.3668,76,65,0
212.3668,212.49103,70,72,0
212.3668,212.49103,58,60,0
212.49103,212.62349,64,55,0
212.49103,212.62349,76,66,0
212.62349,212.84103,69,72,0
212.62349,212.84103,57,60,0
213.05858,213.31017,85,90,0
213.05858,213.31017,73,75,0
213.31017,213.4346,70,55,0
213.31017,213.4346,82,66,0
213.4346,213.5584,69,53,0
213.4346,213.5584,81,63,0
213.5584,213.68167,67,53,0
213.5584,213.68167,79,63,0
213.68167,213.80441,77,70,0
213.68167,213.80441,65,59,0
213.80441,213.92656,64,60,0
213.80441,213.92656,76,72,0
213.92656,214.04817,67,55,0
213.92656,214.04817,79,65,0
214.04817,214.16922,75,72,0
214.04817,214.16922,63,60,0
214.16922,214.2886,79,62,0
214.16922,214.2886,67,52,0
214.2886,214.41081,62,62,0
214.2886,214.41081,74,73,0
214.41081,214.53389,79,62,0
214.41081,214.53389,67,52,0
214.53389,214.65364,73,72,0
214.53389,214.65364,61,60,0
214.65364,214.77805,79,63,0
214.65364,214.77805,67,53,0
214.77805,214.91989,58,48,0
214.77805,214.91989,70,64,0
214.91989,215.03535,67,58,0
214.91989,215.03535,79,73,0
215.15083,215.25882,69,75,0
215.15083,215.25882,57,63,0
215.36264,215.62003,88,90,0
215.36264,215.62003,76,75,0
215.62003,215.75569,86,66,0
215.62003,215.75569,74,55,0
215.75569,215.88556,73,53,0
215.75569,215.88556,85,63,0
215.88556,216.01543,70,53,0
215.88556,216.01543,82,63,0
216.01543,216.1453,69,59,0
216.01543,216.1453,81,70,0
216.1453,216.27516,91,77,0
216.1453,216.27516,79,64,0
216.27516,216.40504,77,61,0
216.27516,216.40504,89,72,0
216.40504,216.54202,76,60,0
216.40504,216.54202,88,71,0
216.54202,216.67105,74,57,0
216.54202,216.67105,86,68,0
216.67105,216.8001,85,68,0
216.67105,216.8001,73,57,0
216.8001,216.92912,82,63,0
216.8001,216.92912,94,75,0
216.92912,217.05815,81,64,0
216.92912,217.05815,93,77,0
217.05815,217.19284,79,63,0
217.05815,217.19284,91,75,0
217.19284,217.32146,89,73,0
217.19284,217.32146,77,62,0
217.32146,217.45007,76,61,0
217.32146,217.45007,88,72,0
217.45007,217.57869,88,71,0
217.45007,217.57869,100,84,0
217.57869,217.70728,98,82,0
217.57869,217.70728,86,69,0
217.70728,217.83545,85,65,0
217.70728,217.83545,97,78,0
217.83545,217.96318,94,79,0
217.83545,217.96318,82,67,0
217.96318,218.09044,81,66,0
217.96318,218.09044,93,78,0
218.09044,218.2173,94,72,0
218.09044,218.2173,82,61,0
218.2173,218.3437,91,76,0
218.2173,218.3437,79,63,0
218.3437,218.46967,82,59,0
218.3437,218.46967,94,70,0
218.46967,218.59523,89,76,0
218.46967,218.59523,77,63,0
218.59523,218.72035,79,70,0
218.59523,218.72035,91,70,0
218.72035,218.84503,88,76,0
218.72035,218.84503,76,63,0
218.84503,218.96933,79,70,0
218.84503,218.96933,91,70,0
218.96933,219.09317,74,63,0
218.96933,219.09317,86,76,0
219.09317,219.21655,88,71,0
219.09317,219.21655,76,60,0
219.21655,219.33963,73,64,0
219.21655,219.33963,85,77,0
219.33963,219.4627,76,61,0
219.33963,219.4627,88,73,0
219.4627,219.58578,82,78,0
219.4627,219.58578,70,64,0
219.58578,219.70886,85,69,0
219.58578,219.70886,73,59,0
219.70886,219.83194,69,66,0
219.70886,219.83194,81,79,0
219.83194,219.95499,82,72,0
219.83194,219.95499,70,61,0
219.95499,220.0777,67,67,0
219.95499,220.0777,79,79,0
220.0777,220.20044,70,61,0
220.0777,220.20044,82,73,0
220.20044,220.32352,65,67,0
220.20044,220.32352,77,81,0
220.32352,220.44675,67,62,0
220.32352,220.44675,79,74,0
220.44675,220.5702,64,69,0
220.44675,220.5702,76,82,0
220.5702,220.69395,79,74,0
220.5702,220.69395,67,63,0
220.69395,220.8178,62,70,0
220.69395,220.8178,74,84,0
220.8178,220.94202,76,75,0
220.8178,220.94202,64,64,0
220.94202,221.06639,61,68,0
220.94202,221.06639,73,82,0
221.06639,221.191,64,63,0
221.06639,221.191,76,73,0
221.191,221.31586,70,83,0
221.191,221.31586,58,69,0
221.31586,221.44087,73,75,0
221.31586,221.44087,61,64,0
221.44087,221.56625,69,85,0
221.44087,221.56625,57,71,0
221.56625,221.69165,70,76,0
221.56625,221.69165,58,65,0
221.69165,221.81705,56,71,0
221.69165,221.81705,68,86,0
221.81705,221.94243,57,66,0
221.81705,221.94243,69,79,0
221.94243,222.06783,67,86,0
221.94243,222.06783,55,73,0
222.06783,222.19322,69,79,0
222.06783,222.19322,57,66,0
222.19322,222.31866,54,74,0
222.19322,222.31866,66,86,0
222.31866,222.44455,57,65,0
222.31866,222.44455,69,77,0
222.44455,222.57027,53,74,0
222.44455,222.57027,65,88,0
222.57027,222.69684,69,80,0
222.57027,222.69684,57,67,0
222.69684,222.82443,52,75,0
222.69684,222.82443,64,88,0
222.82443,222.9518,57,68,0
222.82443,222.9518,69,80,0
222.9518,223.10954,51,76,0
222.9518,223.10954,63,90,0
223.10954,223.2695,57,71,0
223.10954,223.2695,69,83,0
223.2695,223.43217,60,91,0
223.2695,223.43217,48,77,0
223.43217,223.59766,57,71,0
223.43217,223.59766,69,83,0
223.59766,223.77751,61,91,0
223.59766,223.77751,49,77,0
223.77751,224.10889,69,83,0
223.77751,224.10889,57,70,0
224.21935,224.7433,74,50,0
224.21935,224.7433,77,50,0
224.21935,224.7433,86,59,0
225.00304,225.50815,86,59,0
225.00304,225.50815,77,50,0
225.00304,225.50815,74,50,0
225.6342,225.76024,84,54,0
225.6342,225.76024,72,45,0
225.76024,226.2788,70,50,0
225.76024,226.2788,76,50,0
225.76024,226.2788,82,59,0
226.53197,227.03218,76,50,0
226.53197,227.03218,82,59,0
226.53197,227.03218,70,50,0
227.16148,227.2908,70,47,0
227.16148,227.2908,82,56,0
227.2908,227.80457,76,52,0
227.2908,227.80457,81,62,0
227.2908,227.80457,69,52,0
227.93224,228.05989,69,51,0
227.93224,228.05989,81,61,0
228.05989,228.5656,76,54,0
228.05989,228.5656,88,64,0
228.05989,228.5656,79,54,0
228.69435,228.8231,67,52,0
228.69435,228.8231,79,62,0
228.8231,229.34283,69,55,0
228.8231,229.34283,65,55,0
228.8231,229.34283,77,65,0
229.46996,229.5996,81,58,0
229.46996,229.5996,69,49,0
229.5996,230.11243,65,52,0
229.5996,230.11243,74,62,0
229.5996,230.11243,62,52,0
230.36884,230.89279,76,50,0
230.36884,230.89279,84,59,0
230.36884,230.89279,72,50,0
231.15253,231.65764,84,60,0
231.15253,231.65764,72,51,0
231.15253,231.65764,79,51,0
231.78368,231.90973,82,56,0
231.78368,231.90973,70,47,0
231.90973,232.42828,69,53,0
231.90973,232.42828,81,62,0
231.90973,232.42828,77,53,0
232.55487,232.68146,84,60,0
232.55487,232.68146,72,50,0
232.68146,233.18167,65,54,0
232.68146,233.18167,69,54,0
232.68146,233.18167,77,64,0
233.44029,233.96425,76,56,0
233.44029,233.96425,80,56,0
233.44029,233.96425,88,66,0
234.22398,234.7291,88,67,0
234.22398,234.7291,83,57,0
234.22398,234.7291,76,57,0
234.85513,234.98119,86,63,0
234.85513,234.98119,74,53,0
234.98119,235.49974,85,69,0
234.98119,235.49974,73,59,0
234.98119,235.49974,81,59,0
235.62633,235.75291,88,67,0
235.62633,235.75291,76,56,0
235.75291,236.25313,73,60,0
235.75291,236.25313,69,60,0
235.75291,236.25313,81,71,0
236.38243,236.51175,69,58,0
236.38243,236.51175,81,69,0
236.51175,237.0357,79,62,0
236.51175,237.0357,85,62,0
236.51175,237.0357,91,73,0
237.29544,237.80055,69,62,0
237.29544,237.80055,81,73,0
237.9266,238.05264,69,56,0
237.9266,238.05264,81,67,0
238.05264,238.5712,90,73,0
238.05264,238.5712,78,62,0
238.05264,238.5712,84,62,0
238.82437,239.32458,81,73,0
238.82437,239.32458,69,62,0
239.45389,239.5832,69,58,0
239.45389,239.5832,81,70,0
239.5832,240.09697,80,65,0
239.5832,240.09697,89,77,0
239.5832,240.09697,77,65,0
240.22464,240.3523,77,63,0
240.22464,240.3523,89,76,0
240.3523,240.858,88,80,0
240.3523,240.858,80,67,0
240.3523,240.858,76,67,0
240.98676,241.11551,86,77,0
240.98676,241.11551,74,65,0
241.11551,241.63524,81,68,0
241.11551,241.63524,73,68,0
241.11551,241.63524,85,81,0
241.76236,241.892,76,61,0
241.76236,241.892,88,72,0
241.892,242.40483,69,65,0
241.892,242.40483,73,65,0
241.892,242.40483,81,77,0
242.53304,242.66124,69,72,0
242.53304,242.66124,57,61,0
242.66124,243.1852,67,57,0
242.66124,243.1852,79,67,0
242.66124,243.1852,73,57,0
243.44493,243.95004,69,67,0
243.44493,243.95004,57,57,0
244.07608,244.20213,69,62,0
244.07608,244.20213,57,51,0
244.20213,244.72069,78,67,0
244.20213,244.72069,66,57,0
244.20213,244.72069,72,57,0
244.97386,245.47408,69,67,0
244.97386,245.47408,57,57,0
245.60338,245.7327,57,54,0
245.60338,245.7327,69,64,0
245.7327,246.24646,77,71,0
245.7327,246.24646,68,59,0
245.7327,246.24646,65,59,0
246.37411,246.50179,77,70,0
246.37411,246.50179,65,58,0
246.50179,247.00748,64,62,0
246.50179,247.00748,76,73,0
246.50179,247.00748,68,62,0
247.13623,247.265,62,59,0
247.13623,247.265,74,71,0
247.265,247.52975,73,74,0
247.265,247.52975,61,63,0
247.265,247.52975,69,63,0
247.65555,247.77977,73,58,0
247.65555,247.77977,64,49,0
247.90247,248.02368,76,60,0
247.90247,248.02368,67,51,0
248.14474,248.26718,79,63,0
248.14474,248.26718,70,63,0
248.39099,248.51625,73,54,0
248.39099,248.51625,82,65,0
248.51625,248.65387,77,67,0
248.51625,248.65387,83,80,0
248.51625,248.65387,80,67,0
248.51625,248.65387,71,67,0
248.79147,248.92305,81,71,0
248.79147,248.92305,76,71,0
248.79147,248.92305,88,84,0
248.79147,248.92305,85,71,0
249.17886,249.3019,76,53,0
249.17886,249.3019,85,64,0
249.42377,249.54433,88,66,0
249.42377,249.54433,79,55,0
249.66547,249.78833,82,69,0
249.66547,249.78833,91,69,0
249.91307,250.03975,85,59,0
249.91307,250.03975,94,71,0
250.03975,250.17863,95,77,0
250.03975,250.17863,89,64,0
250.03975,250.17863,83,64,0
250.03975,250.17863,92,64,0
250.31752,250.44684,100,79,0
250.31752,250.44684,97,67,0
250.31752,250.44684,88,67,0
250.31752,250.44684,93,67,0
250.70546,250.84308,89,57,0
250.70546,250.84308,92,57,0
250.70546,250.84308,95,69,0
250.70546,250.84308,83,57,0
250.84308,250.9686,88,59,0
250.84308,250.9686,97,59,0
250.84308,250.9686,100,71,0
250.84308,250.9686,93,59,0
251.09412,251.22804,89,57,0
251.09412,251.22804,92,57,0
251.09412,251.22804,83,57,0
251.09412,251.22804,95,70,0
251.36197,251.48909,88,61,0
251.36197,251.48909,93,61,0
251.36197,251.48909,97,61,0
251.36197,251.48909,100,73,0
251.61621,251.75075,95,71,0
251.61621,251.75075,83,59,0
251.61621,251.75075,92,59,0
251.61621,251.75075,89,59,0
251.88527,252.01079,88,61,0
251.88527,252.01079,93,61,0
251.88527,252.01079,97,61,0
251.88527,252.01079,100,74,0
252.2679,252.40614,83,60,0
252.2679,252.40614,89,60,0
252.2679,252.40614,95,73,0
252.2679,252.40614,92,60,0
252.40614,252.53273,97,64,0
252.40614,252.53273,88,64,0
252.40614,252.53273,93,64,0
252.40614,252.53273,100,75,0
252.6593,252.79205,83,61,0
252.6593,252.79205,89,61,0
252.6593,252.79205,92,61,0
252.6593,252.79205,95,73,0
252.92479,253.05246,100,76,0
252.92479,253.05246,88,64,0
252.92479,253.05246,97,64,0
252.92479,253.05246,93,64,0
253.18011,253.31586,83,61,0
253.18011,253.31586,92,61,0
253.18011,253.31586,89,61,0
253.18011,253.31586,95,74,0
253.45161,253.58675,93,66,0
253.45161,253.58675,97,66,0
253.45161,253.58675,88,66,0
253.45161,253.58675,100,78,0
253.72188,253.84846,68,47,0
253.72188,253.84846,80,55,0
253.84846,253.97504,81,55,0
253.84846,253.97504,69,47,0
253.97504,254.10663,70,50,0
253.97504,254.10663,82,59,0
254.2382,254.36533,69,49,0
254.2382,254.36533,81,57,0
254.36533,254.49243,70,49,0
254.36533,254.49243,82,58,0
254.49243,254.62344,71,53,0
254.49243,254.62344,83,63,0
254.75444,254.88156,70,51,0
254.75444,254.88156,82,60,0
254.88156,255.00868,83,61,0
254.88156,255.00868,71,52,0
255.00868,255.1397,72,55,0
255.00868,255.1397,84,67,0
255.27069,255.40001,69,51,0
255.27069,255.40001,81,60,0
255.40001,255.52931,70,51,0
255.40001,255.52931,82,60,0
255.52931,255.66089,83,64,0
255.52931,255.66089,71,54,0
255.79247,255.92122,82,61,0
255.79247,255.92122,70,52,0
255.92122,256.05,71,53,0
255.92122,256.05,83,63,0
256.05,256.18274,72,57,0
256.05,256.18274,84,68,0
256.31546,256.44366,71,55,0
256.31546,256.44366,83,66,0
256.44366,256.57187,84,67,0
256.44366,256.57187,72,56,0
256.57187,256.70346,73,60,0
256.57187,256.70346,85,72,0
256.83502,256.96323,82,69,0
256.83502,256.96323,70,57,0
256.96323,257.09146,71,57,0
256.96323,257.09146,83,69,0
257.09146,257.2236,72,61,0
257.09146,257.2236,84,74,0
257.35577,257.48453,83,71,0
257.35577,257.48453,71,59,0
257.48453,257.61328,72,60,0
257.48453,257.61328,84,72,0
257.61328,257.7466,73,64,0
257.61328,257.7466,85,77,0
257.87994,258.01038,84,74,0
257.87994,258.01038,72,61,0
258.01038,258.19,85,74,0
258.01038,258.19,73,61,0
258.19,258.39923,74,70,0
258.19,258.39923,86,83,0
258.39923,258.4656,65,42,0
258.39923,258.4656,68,50,0
258.4656,258.66443,66,51,0
258.4656,258.66443,69,60,0
258.73053,258.92874,74,70,0
258.73053,258.92874,86,83,0
258.92874,258.99484,65,42,0
258.92874,258.99484,68,50,0
258.99484,259.1981,66,51,0
258.99484,259.1981,69,60,0
259.12698,259.26917,84,68,0
259.12698,259.26917,72,57,0
259.26917,259.4674,70,70,0
259.26917,259.4674,82,83,0
259.4674,259.53348,63,42,0
259.4674,259.53348,66,50,0
259.53348,259.73575,67,60,0
259.53348,259.73575,64,51,0
259.80585,260.00583,70,71,0
259.80585,260.00583,82,84,0
260.00583,260.0725,66,50,0
260.00583,260.0725,63,42,0
260.0725,260.27762,64,51,0
260.0725,260.27762,67,60,0
260.20584,260.34937,82,68,0
260.20584,260.34937,70,57,0
260.34937,260.55026,69,69,0
260.34937,260.55026,81,82,0
260.55026,260.61725,60,42,0
260.55026,260.61725,63,50,0
260.61725,260.8433,64,60,0
260.61725,260.8433,61,51,0
260.76077,260.92578,81,75,0
260.76077,260.92578,69,63,0
260.92578,261.13126,88,83,0
260.92578,261.13126,76,68,0
261.13126,261.19977,60,42,0
261.13126,261.19977,63,50,0
261.19977,261.40887,64,60,0
261.19977,261.40887,61,51,0
261.33676,261.481,67,57,0
261.33676,261.481,79,68,0
261.481,261.6846,78,82,0
261.481,261.6846,66,69,0
261.6846,261.75247,68,50,0
261.6846,261.75247,65,42,0
261.75247,261.9561,69,60,0
261.8882,261.9561,69,55,0
261.75247,261.9561,66,51,0
261.8882,262.02396,81,65,0
262.02396,262.2323,62,67,0
262.02396,262.2323,74,79,0
262.2323,262.30176,61,42,0
262.2323,262.30176,65,50,0
262.30176,262.52127,62,51,0
262.30176,262.52127,66,60,0
262.60193,262.81116,85,83,0
262.60193,262.81116,73,70,0
262.81116,262.87753,67,50,0
262.81116,262.87753,64,42,0
262.87753,263.07635,65,51,0
262.87753,263.07635,68,60,0
263.14243,263.34067,85,83,0
263.14243,263.34067,73,70,0
263.34067,263.40674,67,50,0
263.34067,263.40674,64,42,0
263.40674,263.61,65,51,0
263.40674,263.61,68,60,0
263.5389,263.6811,71,57,0
263.5389,263.6811,83,68,0
263.6811,263.87933,81,83,0
263.6811,263.87933,69,70,0
263.87933,263.9454,68,50,0
263.87933,263.9454,65,42,0
263.9454,264.14764,69,60,0
263.9454,264.14764,66,51,0
264.21774,264.41776,78,84,0
264.21774,264.41776,66,71,0
264.41776,264.4844,68,50,0
264.41776,264.4844,65,42,0
264.4844,264.6895,69,60,0
264.61774,264.6895,69,57,0
264.4844,264.6895,66,51,0
264.61774,264.7613,81,68,0
264.7613,264.97052,88,83,0
264.7613,264.97052,76,70,0
264.97052,265.0369,67,42,0
264.97052,265.0369,70,50,0
265.0369,265.23572,68,51,0
265.0369,265.23572,71,60,0
265.3018,265.50003,76,70,0
265.3018,265.50003,88,83,0
265.50003,265.5661,67,42,0
265.50003,265.5661,70,50,0
265.5661,265.76935,71,60,0
265.5661,265.76935,68,51,0
265.69827,265.84045,86,68,0
265.69827,265.84045,74,57,0
265.84045,266.03867,73,70,0
265.84045,266.03867,85,83,0
266.03867,266.10477,68,42,0
266.03867,266.10477,72,50,0
266.10477,266.307,69,51,0
266.10477,266.307,73,60,0
266.3771,266.57712,81,84,0
266.3771,266.57712,69,71,0
266.57712,266.64377,68,42,0
266.57712,266.64377,72,50,0
266.64377,266.84888,69,51,0
266.7771,266.84888,69,57,0
266.64377,266.84888,73,60,0
266.7771,266.92065,81,68,0
266.92065,267.12988,78,56,0
266.92065,267.12988,90,66,0
266.92065,267.12988,84,56,0
267.12988,267.19626,71,33,0
267.12988,267.19626,74,40,0
267.19626,267.39508,75,48,0
267.19626,267.39508,72,40,0
267.46115,267.6594,84,56,0
267.46115,267.6594,78,56,0
267.46115,267.6594,90,66,0
267.6594,267.72546,74,40,0
267.6594,267.72546,71,33,0
267.72546,267.9287,75,48,0
267.72546,267.9287,72,40,0
267.85764,267.99982,78,45,0
267.85764,267.99982,84,45,0
267.85764,267.99982,90,54,0
267.99982,268.19803,93,66,0
267.99982,268.19803,85,56,0
267.99982,268.19803,81,56,0
268.19803,268.26413,72,33,0
268.19803,268.26413,75,40,0
268.26413,268.46637,76,48,0
268.26413,268.46637,73,40,0
268.53647,268.73645,81,56,0
268.53647,268.73645,76,56,0
268.53647,268.73645,88,67,0
268.73645,268.80313,68,33,0
268.73645,268.80313,72,40,0
268.80313,269.00824,73,48,0
268.80313,269.00824,69,40,0
269.08002,269.28925,90,69,0
269.08002,269.28925,78,58,0
269.08002,269.28925,84,58,0
269.28925,269.35562,74,42,0
269.28925,269.35562,71,34,0
269.35562,269.55444,75,50,0
269.35562,269.55444,72,42,0
269.6205,269.81876,90,69,0
269.6205,269.81876,84,58,0
269.6205,269.81876,78,58,0
269.81876,269.88483,74,42,0
269.81876,269.88483,71,34,0
269.88483,270.08807,75,50,0
269.88483,270.08807,72,42,0
270.017,270.15915,78,47,0
270.017,270.15915,84,47,0
270.017,270.15915,90,56,0
270.15915,270.3574,82,58,0
270.15915,270.3574,94,69,0
270.15915,270.3574,86,58,0
270.3574,270.4235,73,34,0
270.3574,270.4235,76,42,0
270.4235,270.62573,74,42,0
270.4235,270.62573,77,50,0
270.69583,270.8958,82,58,0
270.69583,270.8958,89,70,0
270.69583,270.8958,77,58,0
270.8958,270.9625,69,34,0
270.8958,270.9625,73,42,0
270.9625,271.1676,74,50,0
270.9625,271.1676,70,42,0
271.23938,271.4486,85,60,0
271.23938,271.4486,79,60,0
271.23938,271.4486,91,72,0
271.4486,271.51495,72,36,0
271.4486,271.51495,75,44,0
271.51495,271.71378,73,44,0
271.51495,271.71378,76,53,0
271.77988,271.97812,79,62,0
271.77988,271.97812,85,62,0
271.77988,271.97812,91,74,0
271.97812,272.0442,72,37,0
271.97812,272.0442,75,45,0
272.0442,272.24744,73,46,0
272.0442,272.24744,76,55,0
272.17633,272.3185,85,51,0
272.17633,272.3185,91,61,0
272.17633,272.3185,79,51,0
272.3185,272.52774,83,64,0
272.3185,272.52774,87,64,0
272.3185,272.52774,95,76,0
272.52774,272.59412,70,38,0
272.52774,272.59412,74,47,0
272.59412,272.79294,71,47,0
272.59412,272.79294,75,56,0
272.85904,273.05725,95,79,0
272.85904,273.05725,83,66,0
273.05725,273.12335,76,48,0
273.05725,273.12335,73,39,0
273.12335,273.3266,77,58,0
273.12335,273.3266,74,48,0
273.2555,273.39767,83,54,0
273.2555,273.39767,95,65,0
273.39767,273.6069,96,81,0
273.39767,273.6069,84,68,0
273.6069,273.67328,75,49,0
273.6069,273.67328,71,40,0
273.67328,273.8721,72,50,0
273.67328,273.8721,76,60,0
273.93817,274.1364,97,83,0
273.93817,274.1364,85,70,0
274.1364,274.2025,75,41,0
274.1364,274.2025,78,51,0
274.2025,274.412,76,51,0
274.2025,274.412,79,61,0
274.33466,274.4893,85,58,0
274.33466,274.4893,97,69,0
274.4893,274.68494,98,85,0
274.4893,274.68494,86,72,0
274.68494,274.75018,80,53,0
274.68494,274.75018,76,45,0
274.75018,274.95068,77,52,0
274.75018,274.95068,81,62,0
275.02078,275.21643,93,78,0
275.02078,275.21643,81,66,0
275.21643,275.28165,76,53,0
275.21643,275.28165,73,45,0
275.28165,275.48187,74,51,0
275.28165,275.48187,77,60,0
275.55164,275.74728,89,85,0
275.55164,275.74728,77,72,0
275.74728,275.8125,73,53,0
275.74728,275.8125,68,45,0
275.8125,276.01303,69,52,0
275.8125,276.01303,74,62,0
276.08313,276.2805,74,66,0
276.08313,276.2805,86,78,0
276.2805,276.34628,68,53,0
276.2805,276.34628,64,45,0
276.34628,276.5473,69,60,0
276.34628,276.5473,65,51,0
276.61676,276.80988,94,85,0
276.61676,276.80988,82,72,0
276.80988,276.87427,76,53,0
276.80988,276.87427,73,45,0
276.87427,277.0715,77,62,0
276.87427,277.0715,74,52,0
277.13998,277.33566,89,78,0
277.13998,277.33566,77,66,0
277.33566,277.40088,73,53,0
277.33566,277.40088,69,45,0
277.40088,277.60043,74,60,0
277.40088,277.60043,70,51,0
277.66956,277.8652,86,85,0
277.66956,277.8652,74,72,0
277.8652,277.93042,64,45,0
277.8652,277.93042,69,53,0
277.93042,278.13095,65,52,0
277.93042,278.13095,70,62,0
278.20105,278.3967,70,66,0
278.20105,278.3967,82,78,0
278.3967,278.4619,61,45,0
278.3967,278.4619,64,53,0
278.4619,278.66245,65,60,0
278.4619,278.66245,62,51,0
278.73254,278.9265,75,72,0
278.73254,278.9265,87,85,0
278.9265,278.99115,62,40,0
278.9265,278.99115,66,47,0
278.99115,279.19055,67,55,0
278.99115,279.19055,63,46,0
279.26065,279.45544,70,66,0
279.26065,279.45544,82,78,0
279.45544,279.5204,62,40,0
279.45544,279.5204,66,47,0
279.5204,279.72205,63,45,0
279.5204,279.72205,67,54,0
279.7938,279.98944,87,85,0
279.7938,279.98944,75,72,0
279.98944,280.0547,62,40,0
279.98944,280.0547,66,47,0
280.0547,280.2552,63,46,0
280.0547,280.2552,67,55,0
280.3253,280.52267,70,66,0
280.3253,280.52267,82,78,0
280.52267,280.58844,62,40,0
280.52267,280.58844,66,47,0
280.58844,280.7918,67,54,0
280.58844,280.7918,63,45,0
280.8636,281.06268,81,85,0
280.8636,281.06268,69,72,0
281.06268,281.12906,61,45,0
281.06268,281.12906,64,53,0
281.12906,281.33463,65,62,0
281.12906,281.33463,62,52,0
281.40744,281.60834,65,66,0
281.40744,281.60834,77,78,0
281.60834,281.6753,61,53,0
281.60834,281.6753,56,45,0
281.6753,281.88098,62,60,0
281.6753,281.88098,57,51,0
281.95276,282.15546,76,85,0
281.95276,282.15546,64,72,0
282.22302,282.43393,62,62,0
282.22302,282.43393,58,52,0
282.22302,282.43393,55,52,0
282.50967,282.719,81,78,0
282.50967,282.719,69,66,0
282.78876,283.0294,64,51,0
282.78876,283.0294,69,60,0
282.78876,283.0294,61,51,0
282.78876,283.0294,57,51,0
283.10962,283.203,62,70,0
283.21948,283.3129,62,53,0
283.32938,283.4228,74,54,0
283.43927,283.52924,74,54,0
283.5451,283.63504,86,54,0
283.6509,283.74088,86,58,0
283.75674,283.84668,98,62,0
283.86255,283.9525,86,54,0
283.96838,284.05832,86,58,0
284.0742,284.16415,74,54,0
284.18002,284.27695,74,58,0
284.2958,284.40274,62,54,0
284.5321,284.62604,66,54,0
284.5321,284.62604,62,45,0
284.6426,284.7365,74,54,0
284.6426,284.7365,72,45,0
284.7531,284.84256,78,55,0
284.7531,284.84256,74,46,0
284.85837,284.94785,86,58,0
284.85837,284.94785,84,49,0
284.96362,285.0531,86,46,0
284.96362,285.0531,90,55,0
285.06888,285.15836,98,63,0
285.06888,285.15836,96,53,0
285.17416,285.2636,86,46,0
285.17416,285.2636,90,55,0
285.27942,285.3689,84,51,0
285.27942,285.3689,86,60,0
285.38467,285.47415,74,46,0
285.38467,285.47415,78,55,0
285.48993,285.5858,74,58,0
285.48993,285.5858,72,49,0
285.6043,285.70923,62,45,0
285.6043,285.70923,66,54,0
285.83887,285.93332,62,45,0
285.83887,285.93332,65,53,0
285.94998,286.04443,71,45,0
285.94998,286.04443,74,53,0
286.0611,286.152,74,45,0
286.0611,286.152,77,53,0
286.16803,286.25894,83,47,0
286.16803,286.25894,86,56,0
286.275,286.3659,86,45,0
286.275,286.3659,89,53,0
286.38196,286.47287,95,51,0
286.38196,286.47287,98,60,0
286.4889,286.5798,89,53,0
286.4889,286.5798,86,45,0
286.59586,286.68677,86,56,0
286.59586,286.68677,83,47,0
286.7028,286.7937,74,45,0
286.7028,286.7937,77,53,0
286.80975,286.90442,74,57,0
286.80975,286.90442,71,48,0
286.92206,287.02206,65,53,0
286.92206,287.02206,62,45,0
287.1496,287.243,64,53,0
287.1496,287.243,62,45,0
287.2595,287.35287,74,53,0
287.2595,287.35287,70,45,0
287.3694,287.45932,74,45,0
287.3694,287.45932,76,53,0
287.4752,287.56512,86,56,0
287.4752,287.56512,82,47,0
287.58102,287.67096,88,53,0
287.58102,287.67096,86,45,0
287.68683,287.77676,94,51,0
287.68683,287.77676,98,60,0
287.79266,287.88403,88,53,0
287.79266,287.88403,86,45,0
287.9005,287.99393,86,56,0
287.9005,287.99393,82,47,0
288.0104,288.1038,76,53,0
288.0104,288.1038,74,45,0
288.1203,288.23215,74,57,0
288.1203,288.23215,70,48,0
288.25653,288.39474,64,53,0
288.25653,288.39474,62,45,0
288.53085,288.62582,62,45,0
288.53085,288.62582,66,54,0
288.6426,288.73758,74,54,0
288.6426,288.73758,69,45,0
288.75433,288.8438,78,55,0
288.75433,288.8438,74,46,0
288.8596,288.94907,86,58,0
288.8596,288.94907,81,49,0
288.96484,289.05432,90,55,0
288.96484,289.05432,86,46,0
289.07013,289.1596,98,63,0
289.07013,289.1596,93,53,0
289.17538,289.26486,86,46,0
289.17538,289.26486,90,55,0
289.28064,289.37012,81,51,0
289.28064,289.37012,86,60,0
289.3859,289.47537,74,46,0
289.3859,289.47537,78,55,0
289.49118,289.585,74,58,0
289.49118,289.585,69,49,0
289.60263,289.70264,62,45,0
289.60263,289.70264,66,54,0
289.832,289.92697,60,45,0
289.832,289.92697,63,54,0
289.94373,290.0387,72,54,0
289.94373,290.0387,66,45,0
290.05548,290.1459,72,46,0
290.05548,290.1459,75,55,0
290.16187,290.2523,84,58,0
290.16187,290.2523,78,49,0
290.26825,290.35867,87,55,0
290.26825,290.35867,84,46,0
290.37463,290.46506,90,53,0
290.37463,290.46506,96,63,0
290.481,290.57144,84,46,0
290.481,290.57144,87,55,0
290.58737,290.6778,78,51,0
290.58737,290.6778,84,60,0
290.69376,290.78418,75,55,0
290.69376,290.78418,72,46,0
290.80014,290.89478,66,49,0
290.80014,290.89478,72,58,0
290.9125,291.0131,63,54,0
290.9125,291.0131,60,45,0
291.14197,291.23642,59,45,0
291.14197,291.23642,62,53,0
291.25308,291.34753,65,45,0
291.25308,291.34753,71,53,0
291.3642,291.45462,71,45,0
291.3642,291.45462,74,53,0
291.47058,291.561,77,47,0
291.47058,291.561,83,56,0
291.57697,291.6674,83,45,0
291.57697,291.6674,86,53,0
291.68335,291.77377,89,51,0
291.68335,291.77377,95,60,0
291.78973,291.88016,86,53,0
291.78973,291.88016,83,45,0
291.89612,291.98654,83,56,0
291.89612,291.98654,77,47,0
292.0025,292.09293,71,45,0
292.0025,292.09293,74,53,0
292.1089,292.2035,65,48,0
292.1089,292.2035,71,57,0
292.22122,292.32184,62,53,0
292.22122,292.32184,59,45,0
292.33957,292.43454,61,53,0
292.33957,292.43454,58,45,0
292.45132,292.5463,70,53,0
292.45132,292.5463,64,45,0
292.56305,292.65802,73,53,0
292.56305,292.65802,70,45,0
292.67477,292.7647,76,47,0
292.67477,292.7647,82,56,0
292.78058,292.87054,85,53,0
292.78058,292.87054,82,45,0
292.8864,292.97635,88,51,0
292.8864,292.97635,94,60,0
292.99225,293.08218,55,45,0
292.99225,293.08218,58,53,0
293.09805,293.188,61,45,0
293.09805,293.188,67,53,0
293.2039,293.29382,70,53,0
293.2039,293.29382,67,45,0
293.3097,293.39963,73,47,0
293.3097,293.39963,79,56,0
293.41553,293.51035,79,45,0
293.41553,293.51035,82,53,0
293.5283,293.6301,85,51,0
293.5283,293.6301,91,60,0
293.64807,293.8277,62,70,0
294.00735,294.10635,85,60,0
294.10635,294.20535,84,60,0
294.20535,294.30438,83,60,0
294.00735,294.30438,94,70,0
294.30438,294.40338,82,60,0
294.40338,294.5024,81,60,0
294.5024,294.6014,80,60,0
294.30438,294.6014,91,76,0
294.6014,294.70667,79,60,0
294.70667,294.81192,78,60,0
294.81192,294.9172,77,60,0
294.6014,294.9172,88,70,0
294.9172,295.0751,76,64,0
294.9172,295.0751,85,76,0
295.23297,295.38843,82,70,0
295.23297,295.38843,70,59,0
295.38843,295.54385,76,62,0
295.38843,295.54385,73,52,0
295.54385,295.6993,81,70,0
295.54385,295.6993,69,59,0
295.6993,295.85474,73,52,0
295.6993,295.85474,76,62,0
295.85474,296.0205,79,70,0
295.85474,296.0205,67,59,0
296.0205,296.18625,73,63,0
296.0205,296.18625,70,53,0
296.18625,296.3393,78,60,0
296.18625,296.3393,86,72,0
296.18625,296.3393,74,60,0
296.49237,296.59186,73,54,0
296.59186,296.69138,72,54,0
296.69138,296.79086,71,54,0
296.49237,296.79086,82,63,0
296.79086,296.89038,70,54,0
296.89038,296.98987,69,54,0
296.98987,297.0894,68,54,0
296.79086,297.0894,79,68,0
297.0894,297.19748,67,54,0
297.19748,297.3056,66,54,0
297.3056,297.4137,65,54,0
297.0894,297.4137,76,63,0
297.4137,297.56915,73,68,0
297.4137,297.56915,64,57,0
297.72458,297.88004,70,69,0
297.72458,297.88004,58,58,0
297.88004,298.03546,61,50,0
297.88004,298.03546,64,60,0
298.03546,298.19092,57,58,0
298.03546,298.19092,69,69,0
298.19092,298.34634,64,60,0
298.19092,298.34634,61,50,0
298.34634,298.50763,55,58,0
298.34634,298.50763,67,69,0
298.50763,298.6689,61,61,0
298.50763,298.6689,58,51,0
298.6689,298.8268,74,70,0
298.6689,298.8268,66,59,0
298.6689,298.8268,62,59,0
298.9847,299.09665,76,69,0
298.9847,299.09665,64,58,0
298.9847,299.09665,70,58,0
298.9847,299.09665,73,58,0
299.13397,299.2459,76,69,0
299.13397,299.2459,73,58,0
299.13397,299.2459,64,58,0
299.13397,299.2459,70,58,0
299.28323,299.43787,69,65,0
299.28323,299.43787,74,65,0
299.28323,299.43787,78,77,0
299.28323,299.43787,66,65,0
299.5925,299.7012,70,61,0
299.5925,299.7012,82,73,0
299.5925,299.7012,76,61,0
299.5925,299.7012,73,61,0
299.73743,299.84613,73,61,0
299.73743,299.84613,70,61,0
299.73743,299.84613,82,73,0
299.73743,299.84613,76,61,0
299.88235,300.03778,81,65,0
299.88235,300.03778,78,58,0
299.88235,300.03778,74,58,0
299.88235,300.03778,86,85,0
300.19324,300.30353,85,61,0
300.19324,300.30353,76,61,0
300.19324,300.30353,88,72,0
300.19324,300.30353,82,61,0
300.3403,300.4506,85,61,0
300.3403,300.4506,76,61,0
300.3403,300.4506,88,72,0
300.3403,300.4506,82,61,0
300.48737,300.642,90,82,0
300.48737,300.642,78,69,0
300.48737,300.642,81,69,0
300.48737,300.642,86,69,0
300.79663,300.90857,94,77,0
300.79663,300.90857,82,65,0
300.79663,300.90857,85,65,0
300.79663,300.90857,88,65,0
300.9459,301.05783,94,77,0
300.9459,301.05783,82,65,0
300.9459,301.05783,85,65,0
300.9459,301.05783,88,65,0
301.09515,301.25058,86,73,0
301.09515,301.25058,90,73,0
301.09515,301.25058,98,87,0
301.406,301.51852,82,66,0
301.406,301.51852,88,66,0
301.406,301.51852,94,78,0
301.406,301.51852,85,66,0
301.55603,301.66852,94,78,0
301.55603,301.66852,85,66,0
301.55603,301.66852,82,66,0
301.55603,301.66852,88,66,0
301.70602,301.86145,90,76,0
301.70602,301.86145,98,91,0
301.70602,301.86145,86,76,0
302.0169,302.12997,82,72,0
302.0169,302.12997,85,72,0
302.0169,302.12997,88,72,0
302.0169,302.12997,94,85,0
302.16766,302.28073,94,85,0
302.16766,302.28073,85,72,0
302.16766,302.28073,82,72,0
302.16766,302.28073,88,72,0
302.31842,302.6293,90,79,0
302.31842,302.6293,98,93,0
302.31842,302.6293,86,79,0
302.6293,302.94095,85,73,0
302.6293,302.94095,94,86,0
302.6293,302.94095,82,73,0
302.6293,302.94095,88,73,0
303.25528,303.56952,85,73,0
303.25528,303.56952,94,86,0
303.25528,303.56952,82,73,0
303.25528,303.56952,88,73,0
303.9194,304.24384,88,70,0
303.9194,304.24384,82,70,0
303.9194,304.24384,94,83,0
303.9194,304.24384,85,70,0
304.24384,304.57227,80,70,0
304.24384,304.57227,77,70,0
304.24384,304.57227,83,83,0
304.24384,304.57227,89,83,0
304.57227,304.90643,84,83,0
304.57227,304.90643,72,70,0
304.57227,304.90643,75,70,0
304.57227,304.90643,78,70,0
304.90643,305.24658,73,70,0
304.90643,305.24658,67,70,0
304.90643,305.24658,70,70,0
304.90643,305.24658,79,83,0
305.24658,305.59506,68,70,0
305.24658,305.59506,74,83,0
305.24658,305.59506,62,70,0
305.24658,305.59506,65,70,0
305.59506,305.9565,57,70,0
305.59506,305.9565,60,70,0
305.59506,305.9565,69,83,0
305.59506,305.9565,63,70,0
305.9565,306.31458,64,70,0
305.9565,306.31458,70,83,0
305.9565,306.31458,58,70,0
305.9565,306.31458,61,70,0
307.0082,307.8358,59,68,0
307.0082,307.8358,53,68,0
307.0082,308.18262,65,81,0
308.18262,308.52942,61,72,0
308.52942,309.04965,62,72,0
309.04965,309.1775,64,72,0
309.22012,309.34796,64,72,0
309.39056,310.58105,67,81,0
310.58105,310.9144,65,77,0
310.9144,311.30084,64,79,0
311.30084,311.68732,62,75,0
311.68732,312.0738,61,75,0
312.0738,312.46027,60,80,0
312.46027,312.84674,59,76,0
312.84674,313.2984,58,68,0
312.84674,313.2984,56,57,0
312.84674,313.2984,53,57,0
313.2984,314.60275,54,58,0
313.2984,314.60275,58,69,0
314.60275,315.93512,58,69,0
314.60275,315.93512,53,58,0
315.93512,317.23947,51,58,0
315.93512,317.23947,63,69,0
315.93512,317.23947,58,58,0
317.23947,318.45337,56,63,0
317.23947,318.45337,51,63,0
317.23947,318.45337,63,75,0
318.45337,318.61758,56,62,0
318.45337,318.61758,53,62,0
318.45337,318.61758,62,62,0
318.45337,318.61758,65,74,0
318.67233,319.1103,65,80,0
318.67233,319.1103,56,68,0
318.67233,319.1103,53,68,0
318.67233,319.1103,62,68,0
323.9278,324.36575,65,54,0
323.9278,324.36575,61,54,0
325.5237,325.7037,62,49,0
325.5237,325.7037,65,49,0
325.7637,325.9827,62,54,0
325.7637,325.9827,65,54,0
331.0192,331.45715,65,54,0
331.0192,331.45715,61,54,0
332.6151,332.7951,65,49,0
332.6151,332.7951,62,49,0
332.8551,333.07407,62,54,0
332.8551,333.07407,65,54,0
334.16898,334.60693,62,48,0
334.60693,335.9208,71,54,0
335.9208,336.35873,62,51,0
337.6726,338.11057,56,43,0
338.11057,339.42444,65,51,0
339.42444,339.8624,56,46,0
351.64737,351.9134,65,55,0
351.88947,352.15042,64,57,0
352.1268,352.3836,62,59,0
352.36053,352.61185,61,61,0
352.5893,352.83533,60,63,0
352.81326,353.05423,59,65,0
353.03262,353.2674,58,67,0
353.24738,354.4474,57,76,0
354.64737,354.7195,81,64,0
354.64737,354.7195,69,54,0
354.64737,354.7195,74,54,0
354.64737,354.7195,78,54,0
354.74353,354.81564,81,64,0
354.74353,354.81564,69,54,0
354.74353,354.81564,74,54,0
354.74353,354.81564,78,54,0
354.8397,356.04773,81,72,0
354.8397,356.04773,69,61,0
354.8397,356.04773,74,61,0
354.8397,356.04773,78,61,0
356.24908,356.45044,57,74,0
356.45044,357.6269,59,78,0
357.82297,357.892,74,54,0
357.82297,357.892,86,64,0
357.82297,357.892,83,54,0
357.82297,357.892,78,54,0
357.915,357.984,74,54,0
357.915,357.984,86,64,0
357.915,357.984,83,54,0
357.915,357.984,78,54,0
358.00702,359.202,74,58,0
358.00702,359.202,86,69,0
358.00702,359.202,83,58,0
358.00702,359.202,78,58,0
359.39682,359.5916,59,75,0
360.17603,360.2434,78,54,0
360.17603,360.2434,85,54,0
360.17603,360.2434,90,64,0
360.17603,360.2434,82,54,0
360.26584,360.33322,78,54,0
360.26584,360.33322,85,54,0
360.26584,360.33322,90,64,0
360.26584,360.33322,82,54,0
360.35568,360.74277,78,57,0
359.5916,360.74277,66,79,0
360.35568,360.74277,90,68,0
359.5916,360.74277,54,67,0
360.35568,360.74277,82,57,0
360.35568,360.74277,85,57,0
361.7105,361.77707,81,54,0
361.7105,361.77707,88,54,0
361.7105,361.77707,93,64,0
361.7105,361.77707,85,54,0
361.7993,361.86584,81,54,0
361.7993,361.86584,88,54,0
361.7993,361.86584,93,64,0
361.7993,361.86584,85,54,0
361.88803,362.2607,81,58,0
361.12988,362.2607,69,77,0
361.88803,362.2607,93,69,0
361.12988,362.2607,57,65,0
361.88803,362.2607,85,58,0
361.88803,362.2607,88,58,0
362.44702,362.5868,69,81,0
362.44702,362.5868,57,68,0
362.44702,362.5868,62,68,0
362.44702,362.5868,66,68,0
362.63336,363.59454,69,80,0
362.63336,363.59454,57,57,0
362.63336,363.59454,62,57,0
362.63336,363.59454,66,57,0
363.70245,363.7834,93,67,0
363.70245,363.7834,81,56,0
363.70245,363.7834,86,56,0
363.70245,363.7834,90,56,0
363.81036,363.9934,93,78,0
363.81036,363.9934,81,66,0
363.81036,363.9934,86,66,0
363.81036,363.9934,90,66,0
364.08493,364.15356,86,59,0
364.08493,364.15356,98,70,0
364.08493,364.15356,93,59,0
364.08493,364.15356,90,59,0
364.17645,364.35916,86,67,0
364.17645,364.35916,98,79,0
364.17645,364.35916,93,67,0
364.17645,364.35916,90,67,0
364.4496,364.5174,78,60,0
364.4496,364.5174,86,60,0
364.4496,364.5174,90,71,0
364.54,364.7187,78,68,0
364.54,364.7187,86,68,0
364.54,364.7187,90,80,0
364.808,364.87503,81,59,0
364.808,364.87503,93,70,0
364.808,364.87503,90,59,0
364.808,364.87503,86,59,0
364.89737,365.07602,81,68,0
364.89737,365.07602,93,80,0
364.89737,365.07602,90,68,0
364.89737,365.07602,86,68,0
365.16537,365.2324,74,61,0
365.16537,365.2324,86,72,0
365.16537,365.2324,81,61,0
365.16537,365.2324,78,61,0
365.2547,365.43127,74,67,0
365.2547,365.43127,86,79,0
365.2547,365.43127,81,67,0
365.2547,365.43127,78,67,0
365.51956,365.5858,78,62,0
365.51956,365.5858,86,62,0
365.51956,365.5858,90,74,0
365.60785,365.78442,90,81,0
365.60785,365.78442,86,68,0
365.60785,365.78442,78,68,0
365.8727,365.93893,81,67,0
365.8727,365.93893,69,56,0
365.8727,365.93893,74,56,0
365.8727,365.93893,78,56,0
365.961,366.13504,81,78,0
365.961,366.13504,69,66,0
365.961,366.13504,74,66,0
365.961,366.13504,78,66,0
366.2223,366.28772,74,59,0
366.2223,366.28772,86,70,0
366.2223,366.28772,81,59,0
366.2223,366.28772,78,59,0
366.30954,366.48407,74,67,0
366.30954,366.48407,86,79,0
366.30954,366.48407,81,67,0
366.30954,366.48407,78,67,0
366.57132,366.63678,66,60,0
366.57132,366.63678,74,60,0
366.57132,366.63678,78,71,0
366.6586,366.8311,66,68,0
366.6586,366.8311,74,68,0
366.6586,366.8311,78,80,0
366.91736,366.98206,69,59,0
366.91736,366.98206,81,70,0
366.91736,366.98206,78,59,0
366.91736,366.98206,74,59,0
367.0036,367.17612,69,68,0
367.0036,367.17612,81,80,0
367.0036,367.17612,78,68,0
367.0036,367.17612,74,68,0
367.2624,367.3271,62,61,0
367.2624,367.3271,74,72,0
367.2624,367.3271,69,61,0
367.2624,367.3271,66,61,0
367.34863,367.5192,62,67,0
367.34863,367.5192,74,79,0
367.34863,367.5192,69,67,0
367.34863,367.5192,66,67,0
367.60446,367.66843,66,62,0
367.60446,367.66843,74,62,0
367.60446,367.66843,78,74,0
367.68973,367.8603,78,81,0
367.68973,367.8603,74,68,0
367.68973,367.8603,66,68,0
367.94556,368.00952,69,67,0
367.94556,368.00952,57,56,0
367.94556,368.00952,62,56,0
367.94556,368.00952,66,56,0
368.03085,368.2014,69,78,0
368.03085,368.2014,57,66,0
368.03085,368.2014,62,66,0
368.03085,368.2014,66,66,0
368.28668,368.35062,62,59,0
368.28668,368.35062,74,70,0
368.28668,368.35062,69,59,0
368.28668,368.35062,66,59,0
368.37195,368.5425,62,67,0
368.37195,368.5425,74,79,0
368.37195,368.5425,69,67,0
368.37195,368.5425,66,67,0
368.62778,368.69174,54,60,0
368.62778,368.69174,62,60,0
368.62778,368.69174,66,71,0
368.71304,368.88263,54,68,0
368.71304,368.88263,62,68,0
368.71304,368.88263,66,80,0
368.96744,369.03104,57,59,0
368.96744,369.03104,69,70,0
368.96744,369.03104,66,59,0
368.96744,369.03104,62,59,0
369.05222,369.2218,57,68,0
369.05222,369.2218,69,80,0
369.05222,369.2218,66,68,0
369.05222,369.2218,62,68,0
369.3066,369.3702,50,59,0
369.3066,369.3702,62,70,0
369.3066,369.3702,57,59,0
369.3066,369.3702,54,59,0
369.3914,369.53876,62,77,0
369.3914,369.53876,50,65,0
369.3914,369.53876,54,65,0
369.3914,369.53876,57,65,0
369.55508,369.70352,50,59,0
369.55508,369.70352,62,70,0
369.55508,369.70352,58,59,0
369.55508,369.70352,55,59,0
369.72012,369.87088,62,77,0
369.72012,369.87088,50,65,0
369.72012,369.87088,54,65,0
369.72012,369.87088,57,65,0
369.88776,370.0409,62,70,0
369.88776,370.0409,50,59,0
369.88776,370.0409,55,59,0
369.88776,370.0409,58,59,0
370.05804,370.21603,62,77,0
370.05804,370.21603,50,65,0
370.05804,370.21603,54,65,0
370.05804,370.21603,57,65,0
370.2336,370.3916,50,59,0
370.2336,370.3916,62,70,0
370.2336,370.3916,58,59,0
370.2336,370.3916,55,59,0
370.40915,370.56714,62,77,0
370.40915,370.56714,50,65,0
370.40915,370.56714,54,65,0
370.40915,370.56714,57,65,0
370.5847,370.74268,62,70,0
370.5847,370.74268,50,59,0
370.5847,370.74268,55,59,0
370.5847,370.74268,58,59,0
370.76022,370.89188,62,77,0
370.76022,370.89188,50,65,0
370.76022,370.89188,54,65,0
370.76022,370.89188,57,65,0
370.93576,371.0674,50,59,0
370.93576,371.0674,62,70,0
370.93576,371.0674,58,59,0
370.93576,371.0674,55,59,0
371.1113,371.24774,62,77,0
371.1113,371.24774,50,65,0
371.1113,371.24774,54,65,0
371.1113,371.24774,57,65,0
371.29324,371.4297,62,70,0
371.29324,371.4297,50,59,0
371.29324,371.4297,55,59,0
371.29324,371.4297,58,59,0
371.47516,371.87543,62,79,0
371.47516,371.87543,50,67,0
371.47516,371.87543,54,67,0
371.47516,371.87543,57,67,0
371.87543,372.2757,74,86,0
371.87543,372.2757,62,73,0
371.87543,372.2757,66,73,0
371.87543,372.2757,69,73,0
372.2757,372.67596,86,92,0
372.2757,372.67596,74,78,0
372.2757,372.67596,78,78,0
372.2757,372.67596,81,78,0
372.67596,373.24252,98,97,0
372.67596,373.24252,86,82,0
372.67596,373.24252,90,82,0
372.67596,373.24252,93,82,0
373.24252,375.50882,62,113,0
0.3375,0.6375,61,56,0
0.375,0.675,67,58,0
0.4125,0.7125,70,60,0
0.45,0.75,76,62,0
1.5375,1.8375,56,54,0
1.575,1.875,62,55,0
1.6125,1.9125,65,58,0
1.65,1.95,71,61,0
2.797246,3.0459247,51,44,0
2.8131359,3.061119,57,45,0
2.8290257,3.0763135,60,47,0
2.8449156,3.0914795,66,48,0
3.2875068,3.525937,46,42,0
3.3025186,3.5407124,52,43,0
3.3175228,3.5554879,55,45,0
3.332475,3.5702634,61,47,0
3.7612655,3.993602,41,44,0
3.7758684,4.008036,47,46,0
3.7904713,4.0224705,50,49,0
3.805074,4.0368786,56,51,0
4.223026,4.449608,36,46,0
4.237273,4.4636636,42,48,0
4.2514887,4.477719,45,51,0
4.265704,4.491774,51,53,0
4.673387,4.8957744,37,47,0
4.6872864,4.909673,43,49,0
4.7011857,4.9235725,46,51,0
4.7150846,4.937472,52,53,0
5.1320605,5.3544474,38,49,0
5.1459594,5.3683467,44,51,0
5.1598587,5.3822455,47,54,0
5.173758,5.396145,53,56,0
5.576834,5.7992215,34,50,0
5.5907335,5.8131204,41,52,0
5.604633,5.8270197,44,54,0
5.6185317,5.840919,50,56,0
6.007709,6.232941,33,53,0
6.0216084,6.2471566,38,54,0
6.0355077,6.261372,41,57,0
6.0494065,6.275587,45,59,0
7.0147834,7.255941,53,53,0
7.0147834,7.255941,45,53,0
7.0147834,7.255941,50,53,0
7.0147834,7.255941,57,63,0
7.9794135,8.219605,64,53,0
7.9794135,8.219605,61,53,0
7.9794135,8.219605,69,63,0
7.9794135,8.219605,57,53,0
10.028321,10.195533,33,29,0
10.138866,10.311013,34,31,0
10.250501,10.4285755,37,32,0
10.368501,10.505741,41,34,0
10.461919,10.599103,40,34,0
10.552423,10.689607,38,33,0
10.6419735,10.779158,37,32,0
10.73343,10.87778,34,30,0
10.830117,10.964239,33,32,0
10.914359,11.047373,34,32,0
11.001926,11.13494,37,32,0
11.092819,11.225834,38,34,0
11.181496,11.3231945,40,35,0
11.27208,11.414207,41,36,0
11.37299,11.506668,46,37,0
11.462109,11.595786,45,36,0
11.551227,11.684905,43,36,0
11.641459,11.775138,41,34,0
11.730578,11.864256,40,34,0
11.8185835,11.957212,38,32,0
11.911989,12.018645,37,33,0
11.982075,12.08803,38,33,0
12.048088,12.153342,40,33,0
12.12309,12.227499,41,34,0
12.188126,12.2919035,43,35,0
12.258625,12.361732,45,35,0
12.330907,12.433146,46,36,0
12.398096,12.494576,49,37,0
12.466711,12.605077,53,38,0
12.555111,12.693477,52,37,0
12.648316,12.786682,50,37,0
12.743443,12.881808,49,37,0
12.836647,12.982539,46,37,0
12.926008,13.059022,45,38,0
13.016901,13.149916,46,39,0
13.104468,13.237483,49,40,0
13.189819,13.322833,50,41,0
13.280712,13.41692,52,41,0
13.3732815,13.50941,53,42,0
13.460558,13.593652,58,43,0
13.552639,13.685653,57,43,0
13.642424,13.775437,55,43,0
13.7266655,13.859679,53,42,0
13.820884,13.953897,52,42,0
13.90956,14.051579,50,40,0
14.00063,14.112157,49,40,0
14.076304,14.187121,50,40,0
14.144204,14.254319,52,41,0
14.2238035,14.333916,53,42,0
14.290885,14.401537,55,43,0
14.364653,14.475185,57,43,0
14.441981,14.557544,58,43,0
14.518747,14.6268835,61,44,0
14.595784,14.729998,65,45,0
14.684479,14.818249,64,45,0
14.778303,14.912073,62,45,0
14.865625,14.999394,61,44,0
14.955733,15.098478,58,44,0
15.045272,15.178287,57,44,0
15.133948,15.266962,58,44,0
15.219299,15.352313,61,46,0
15.309083,15.442098,62,47,0
15.401085,15.534099,64,48,0
15.486436,15.61945,65,48,0
15.574003,15.707017,70,48,0
15.663788,15.796802,69,47,0
15.754681,15.887694,67,46,0
15.844465,15.977479,65,46,0
15.932033,16.065046,64,44,0
16.017384,16.164995,62,43,0
16.112917,16.23169,61,43,0
16.195286,16.310965,62,44,0
16.26749,16.382524,64,45,0
16.345488,16.460087,65,46,0
16.423212,16.537445,67,47,0
16.49696,16.610773,69,48,0
16.576637,16.69402,70,49,0
16.652607,16.760824,73,51,0
16.733997,16.867212,77,52,0
16.822807,16.956022,76,52,0
16.909767,17.042982,74,50,0
16.999502,17.132717,73,51,0
17.087387,17.220602,70,49,0
17.178047,17.311262,69,48,0
17.266857,17.400072,70,50,0
17.354742,17.487957,73,51,0
17.446327,17.579542,74,53,0
17.531437,17.664652,76,54,0
17.623022,17.756237,77,55,0
17.709057,17.842272,79,56,0
17.800642,17.933857,81,58,0
17.889452,18.022667,82,59,0
17.974562,18.143942,85,60,0
18.077238,18.160618,89,63,0
18.159227,18.242607,88,63,0
18.248167,18.331547,86,63,0
18.325987,18.409367,85,63,0
18.413536,18.50088,82,62,0
18.493216,18.584692,81,62,0
18.593782,18.683853,79,62,0
18.685339,18.774076,77,61,0
18.765247,18.8529,76,61,0
18.865906,18.952122,74,60,0
18.943537,19.028543,73,60,0
19.024323,19.108318,70,60,0
19.120846,19.20342,69,60,0
19.202053,19.283722,67,60,0
19.283722,19.364172,65,59,0
19.358845,19.438366,64,59,0
19.440996,19.519857,62,59,0
19.521168,19.599726,61,59,0
19.597107,19.675383,58,58,0
19.67799,19.755993,57,58,0
19.746904,19.82481,55,58,0
19.835157,19.912725,53,58,0
19.912725,19.99,52,58,0
19.980988,20.058046,50,57,0
20.059328,20.136253,49,58,0
20.138807,20.215416,46,58,0
20.21414,20.290487,45,58,0
20.290487,20.366585,43,59,0
20.370384,20.446337,41,60,0
20.440031,20.515697,40,61,0
20.513176,20.588608,38,61,0
20.5974,20.672556,37,62,0
20.66505,20.725098,34,63,0
20.730103,20.968805,33,63,0
20.968805,21.954306,38,59,0
20.968805,21.954306,45,59,0
20.968805,21.954306,50,74,0
21.954306,22.431187,38,62,0
21.954306,22.431187,50,78,0
21.954306,22.431187,45,62,0
22.949919,23.890108,43,63,0
22.949919,23.890108,38,63,0
22.949919,23.890108,50,79,0
23.890108,24.36699,43,59,0
23.890108,24.36699,50,75,0
23.890108,24.36699,38,59,0
24.865818,25.3427,49,75,0
24.865818,25.3427,37,59,0
25.837036,26.31392,45,75,0
25.837036,26.31392,33,59,0
26.794804,27.271687,38,59,0
26.794804,27.271687,50,75,0
27.749529,28.226412,50,70,0
27.749529,28.226412,45,55,0
27.749529,28.226412,38,55,0
28.722157,29.662346,36,52,0
28.722157,29.662346,48,66,0
29.662346,30.139227,52,64,0
29.662346,30.139227,40,50,0
30.637695,31.114576,53,64,0
30.637695,31.114576,41,50,0
31.599854,32.076736,53,64,0
31.599854,32.076736,41,50,0
32.576565,33.516754,40,52,0
32.576565,33.516754,52,66,0
33.516754,33.993637,56,66,0
33.516754,33.993637,44,51,0
34.4888,34.965683,45,54,0
34.4888,34.965683,52,54,0
34.4888,34.965683,57,69,0
35.448635,35.925518,57,72,0
35.448635,35.925518,52,56,0
35.448635,35.925518,45,56,0
36.414608,37.354797,52,65,0
36.414608,37.354797,46,65,0
36.414608,37.354797,58,82,0
37.354797,37.83168,57,78,0
37.354797,37.83168,45,62,0
38.32531,39.2655,58,79,0
38.32531,39.2655,46,63,0
38.32531,39.2655,51,63,0
39.2655,39.742382,45,59,0
39.2655,39.742382,57,75,0
40.23096,40.707844,59,75,0
40.23096,40.707844,47,59,0
40.23096,40.707844,50,59,0
41.202805,41.679688,47,59,0
41.202805,41.679688,40,59,0
41.202805,41.679688,52,75,0
42.173615,42.650494,52,59,0
42.173615,42.650494,45,59,0
42.173615,42.650494,57,75,0
43.13924,43.616123,52,59,0
43.13924,43.616123,45,59,0
43.13924,43.616123,57,75,0
44.087334,45.02752,46,73,0
44.087334,45.02752,40,58,0
44.087334,45.02752,34,58,0
45.02752,45.504402,45,70,0
45.02752,45.504402,33,55,0
46.004898,46.945084,46,71,0
46.004898,46.945084,39,56,0
46.004898,46.945084,34,56,0
46.945084,47.421967,33,52,0
46.945084,47.421967,45,67,0
47.91824,48.395123,47,67,0
47.91824,48.395123,35,52,0
47.91824,48.395123,38,52,0
48.878075,49.354958,34,52,0
48.878075,49.354958,38,52,0
48.878075,49.354958,46,67,0
49.835842,49.99627,40,52,0
49.835842,49.99627,33,52,0
49.835842,49.99627,45,67,0
50.156002,50.2555,55,39,0
50.2555,50.35486,56,39,0
50.35486,50.454044,57,39,0
50.156002,50.454044,46,56,0
50.454044,50.553055,58,40,0
50.553055,50.65183,59,41,0
50.65183,50.750435,60,41,0
50.454044,50.750435,49,59,0
50.750435,50.848873,61,41,0
50.848873,50.947144,62,42,0
50.947144,51.045185,63,43,0
50.750435,51.045185,52,62,0
51.045185,51.14305,64,43,0
51.14305,51.240753,62,43,0
51.240753,51.338295,61,44,0
51.045185,51.338295,55,65,0
51.338295,51.637547,56,51,0
51.338295,51.637547,59,36,0
51.338295,51.637547,65,36,0
51.338295,51.637547,50,31,0
51.637547,51.79022,52,52,0
51.637547,51.79022,57,67,0
51.637547,51.79022,45,52,0
51.94204,52.040806,67,39,0
52.040806,52.139427,68,39,0
52.139427,52.237926,69,39,0
51.94204,52.237926,58,56,0
52.237926,52.33621,70,40,0
52.33621,52.434345,71,41,0
52.434345,52.53236,72,41,0
52.237926,52.53236,61,59,0
52.53236,52.63016,73,41,0
52.63016,52.727863,74,42,0
52.727863,52.825424,75,43,0
52.53236,52.825424,64,62,0
52.825424,52.92277,76,43,0
52.92277,53.019997,74,43,0
53.019997,53.117085,73,44,0
52.825424,53.117085,67,65,0
53.117085,53.265602,77,36,0
53.117085,53.265602,71,36,0
53.117085,53.265602,62,31,0
53.117085,53.265602,68,51,0
53.414116,53.559044,61,52,0
53.414116,53.559044,69,67,0
53.414116,53.559044,57,52,0
53.414116,53.559044,64,52,0
53.70397,53.85285,53,51,0
53.70397,53.85285,50,51,0
53.70397,53.85285,62,51,0
53.70397,53.85285,56,51,0
54.001736,54.146317,49,51,0
54.001736,54.146317,45,51,0
54.001736,54.146317,52,51,0
54.001736,54.146317,57,51,0
54.290894,54.438313,44,51,0
54.290894,54.438313,50,51,0
54.290894,54.438313,41,51,0
54.290894,54.438313,38,51,0
54.585735,54.730663,45,51,0
54.585735,54.730663,33,51,0
54.585735,54.730663,40,51,0
54.585735,54.730663,37,51,0
54.875587,55.02229,38,51,0
54.875587,55.02229,50,51,0
54.875587,55.02229,44,51,0
54.875587,55.02229,41,51,0
55.168987,55.464554,40,52,0
55.168987,55.464554,37,52,0
55.168987,55.464554,33,52,0
55.168987,55.464554,45,67,0
55.75766,56.032383,46,46,0
55.76098,56.03495,58,54,0
56.033237,56.169594,45,42,0
56.033237,56.169594,57,50,0
56.168808,56.294308,55,55,0
56.17038,56.29587,43,46,0
56.29509,56.419586,53,52,0
56.29587,56.42036,41,44,0
56.421135,56.54468,52,52,0
56.42191,56.545452,40,44,0
56.543915,56.666496,50,48,0
56.546223,56.668785,38,40,0
56.665733,56.787365,49,53,0
56.666496,56.788124,37,45,0
56.787365,56.908108,40,42,0
56.788883,56.909607,52,50,0
56.907356,57.027126,48,54,0
56.908108,57.02787,36,46,0
57.03011,57.149036,40,43,0
57.03011,57.149036,52,51,0
57.148296,57.2665,47,54,0
57.149776,57.268,35,46,0
57.264263,57.385506,40,42,0
57.268,57.3894,52,50,0
57.386284,57.511894,46,57,0
57.387062,57.512722,34,48,0
57.512722,57.645184,40,44,0
57.515205,57.64785,52,52,0
57.645184,57.858704,33,51,0
57.645184,57.858704,45,60,0
58.073086,58.348,61,56,0
58.074806,58.34972,49,47,0
58.345425,58.48288,46,45,0
58.346283,58.483738,58,53,0
58.486317,58.612007,45,48,0
58.487175,58.61279,57,57,0
58.609673,58.733784,43,43,0
58.609673,58.733784,55,51,0
58.734554,58.85763,53,51,0
58.73533,58.8584,41,43,0
58.856865,58.978943,52,56,0
58.8584,58.98046,40,47,0
58.978943,59.099957,55,50,0
58.98046,59.10146,43,42,0
59.10146,59.221462,51,56,0
59.102215,59.22221,39,47,0
59.219223,59.33828,55,49,0
59.221462,59.340508,43,41,0
59.340508,59.458603,50,57,0
59.340508,59.458603,38,48,0
59.457867,59.574886,43,42,0
59.458603,59.57562,55,50,0
59.57342,59.691982,37,48,0
59.57562,59.69423,49,57,0
59.69273,59.81492,43,42,0
59.69498,59.817226,55,50,0
59.81569,59.956753,34,51,0
59.81646,59.95754,46,60,0
59.955833,60.050304,55,61,0
59.956753,60.05109,43,49,0
60.14543,60.273636,45,54,0
60.14543,60.273636,33,45,0
60.399704,60.675037,52,44,0
60.400772,60.675896,64,52,0
60.675896,60.811264,62,45,0
60.678474,60.81371,50,37,0
60.81045,60.94003,61,49,0
60.81045,60.94003,49,41,0
60.94003,61.067947,58,41,0
60.941635,61.06954,46,35,0
61.067947,61.20358,57,41,0
61.071236,61.20683,45,35,0
61.20358,61.33345,67,49,0
61.20358,61.33345,55,41,0
61.335075,61.464943,53,41,0
61.33751,61.46738,65,48,0
61.465755,61.595627,52,39,0
61.465755,61.595627,64,47,0
61.594,61.723873,50,38,0
61.596436,61.726307,62,45,0
61.724686,61.854553,49,38,0
61.726307,61.856266,61,45,0
61.854553,61.99154,70,46,0
61.857124,61.99396,58,39,0
61.990685,62.119766,69,53,0
61.99154,62.12057,57,44,0
62.119766,62.2488,55,43,0
62.122185,62.251217,67,51,0
62.2488,62.37783,65,48,0
62.2488,62.37783,53,40,0
62.37864,62.50767,52,38,0
62.379444,62.50851,64,45,0
62.50851,62.643154,76,57,0
62.510197,62.64476,64,48,0
62.641506,62.770164,62,47,0
62.64235,62.770966,74,56,0
62.77177,62.900387,61,46,0
62.77177,62.900387,73,55,0
62.89878,63.027397,70,51,0
62.90119,63.029808,58,43,0
63.026592,63.15519,69,56,0
63.030613,63.1592,57,47,0
63.15519,63.283375,70,50,0
63.15599,63.284176,58,42,0
63.284973,63.412693,67,56,0
63.28577,63.413486,55,47,0
63.411896,63.53916,58,42,0
63.412693,63.539955,70,49,0
63.53837,63.66523,53,47,0
63.54075,63.667603,65,56,0
63.666813,63.79322,67,50,0
63.666813,63.79322,55,42,0
63.79164,63.917606,64,56,0
63.79322,63.91918,52,47,0
63.917606,64.043175,67,50,0
63.917606,64.043175,55,42,0
64.04396,64.16908,50,48,0
64.04631,64.17143,62,57,0
64.17221,64.29689,64,51,0
64.17221,64.29689,52,43,0
64.29455,64.418846,49,47,0
64.29689,64.42117,61,56,0
64.418846,64.54269,52,42,0
64.418846,64.54269,64,50,0
64.541916,64.6653,46,46,0
64.54269,64.66607,58,55,0
64.6653,64.788376,49,41,0
64.66607,64.78915,61,49,0
64.78915,64.912224,57,53,0
64.78915,64.912224,45,45,0
64.91145,65.03453,46,39,0
64.913765,65.03684,58,47,0
65.03377,65.15684,55,51,0
65.03761,65.16069,43,43,0
65.15684,65.279915,46,39,0
65.15684,65.279915,58,46,0
65.280685,65.40374,53,54,0
65.28223,65.40527,41,46,0
65.40374,65.52644,43,40,0
65.40374,65.52644,55,48,0
65.52874,65.6515,40,44,0
65.52874,65.6515,52,52,0
65.64919,65.77227,43,40,0
65.65227,65.775345,55,48,0
65.77304,65.89626,38,44,0
65.7738,65.89703,50,53,0
65.89472,66.01817,52,49,0
65.89549,66.01894,40,41,0
66.01972,66.14346,37,44,0
66.02126,66.14501,49,53,0
66.14192,66.265755,52,48,0
66.14424,66.26809,40,40,0
66.265755,66.389984,34,45,0
66.26731,66.39153,46,53,0
66.389984,66.51435,37,42,0
66.39153,66.51591,49,49,0
66.51591,66.64052,33,46,0
66.51746,66.642075,45,54,0
66.63974,66.764595,34,42,0
66.64285,66.76772,46,50,0
66.764595,66.889595,44,55,0
66.76538,66.89038,32,46,0
66.89038,67.01578,33,42,0
66.89195,67.01734,45,49,0
67.01499,67.14038,43,55,0
67.01578,67.14117,31,46,0
67.14273,67.26813,45,50,0
67.14352,67.268906,33,42,0
67.26499,67.39038,30,46,0
67.268906,67.3943,42,55,0
67.39195,67.51734,45,51,0
67.39195,67.51734,33,43,0
67.51734,67.64273,29,47,0
67.51734,67.64273,41,56,0
67.64117,67.76661,45,50,0
67.64195,67.767395,33,42,0
67.767395,67.89328,28,47,0
67.76975,67.895645,40,56,0
67.892494,68.01604,45,51,0
67.89407,68.01731,33,43,0
68.01858,68.171814,27,47,0
68.01922,68.172455,39,56,0
68.16925,68.323906,45,49,0
68.17053,68.32521,33,42,0
68.323906,68.48096,24,48,0
68.324554,68.48162,36,57,0
68.48228,68.64217,45,52,0
68.4836,68.643524,33,44,0
68.6415,68.804245,25,49,0
68.643524,68.80659,37,58,0
68.805756,69.00469,33,45,0
68.80659,69.00576,45,53,0
69.00362,69.00576,45,59,0
69.00362,69.174644,50,74,0
69.00362,69.174644,38,59,0
69.174644,69.31906,56,60,0
69.174644,69.31906,52,48,0
69.31906,69.45651,53,50,0
69.31906,69.45651,57,63,0
69.863846,70.00283,50,78,0
69.863846,70.00283,45,62,0
69.729126,70.00283,38,75,0
70.00283,70.14166,52,48,0
70.00283,70.14166,56,60,0
70.14166,70.27993,53,50,0
70.14166,70.27993,57,63,0
70.72169,70.86019,50,79,0
70.72169,70.86019,43,63,0
70.565506,70.86019,38,75,0
70.86019,70.998215,57,60,0
70.86019,70.998215,54,48,0
70.998215,71.13562,58,63,0
70.998215,71.13562,55,50,0
71.54304,71.6824,43,59,0
71.54304,71.6824,50,75,0
71.40851,71.6824,38,75,0
71.6824,71.82066,57,60,0
71.6824,71.82066,54,48,0
71.82066,71.958115,55,50,0
71.82066,71.958115,58,63,0
72.38947,72.52736,49,75,0
72.38947,72.52736,45,59,0
72.23464,72.52736,37,75,0
72.52736,72.66467,51,48,0
72.52736,72.66467,54,60,0
72.66467,72.80128,52,50,0
72.66467,72.80128,55,63,0
73.07688,73.23038,33,75,0
73.23038,73.36812,45,75,0
73.23038,73.36812,37,68,0
73.36812,73.50534,54,59,0
73.36812,73.50534,51,47,0
73.50534,73.641945,52,49,0
73.50534,73.641945,55,61,0
74.05945,74.19735,50,69,0
73.916954,74.19735,38,70,0
74.0629,74.20079,45,59,0
74.19735,74.33466,52,39,0
74.19735,74.33466,56,50,0
74.33466,74.471176,53,40,0
74.33466,74.471176,57,50,0
74.884796,75.0232,45,46,0
74.884796,75.0232,50,58,0
74.74494,75.0232,38,63,0
75.0232,75.16084,56,45,0
75.0232,75.16084,52,35,0
75.16084,75.29768,57,45,0
75.16084,75.29768,53,35,0
75.72789,75.86583,43,45,0
75.72789,75.86583,48,57,0
75.56991,75.86583,36,57,0
75.86583,76.00311,54,46,0
75.86583,76.00311,51,37,0
76.00311,76.138695,52,38,0
76.00311,76.138695,55,48,0
76.564545,76.702484,48,55,0
76.564545,76.702484,52,57,0
76.41105,76.702484,40,57,0
76.702484,76.83977,54,37,0
76.702484,76.83977,59,46,0
76.83977,76.97535,55,38,0
76.83977,76.97535,60,48,0
77.3896,77.52754,48,55,0
77.3896,77.52754,53,57,0
77.2471,77.52754,41,57,0
77.52754,77.664825,55,32,0
77.52754,77.664825,59,43,0
77.664825,77.80041,60,44,0
77.664825,77.80041,56,34,0
78.21204,78.34998,48,42,0
78.21204,78.34998,53,54,0
78.07129,78.34998,41,57,0
78.34998,78.48727,55,32,0
78.34998,78.48727,59,42,0
78.48727,78.62285,56,33,0
78.48727,78.62285,60,43,0
79.04991,79.18785,46,48,0
79.04991,79.18785,51,60,0
78.89193,79.18785,39,57,0
79.18785,79.325134,57,44,0
79.18785,79.325134,54,35,0
79.325134,79.46072,55,36,0
79.325134,79.46072,58,45,0
79.886566,80.024506,55,61,0
79.886566,80.024506,51,59,0
79.73307,80.024506,43,61,0
80.024506,80.16179,57,34,0
80.024506,80.16179,62,44,0
80.16179,80.29737,58,37,0
80.16179,80.29737,63,46,0
80.711624,80.84956,56,64,0
80.711624,80.84956,51,59,0
80.56912,80.84956,44,61,0
80.84956,80.98685,62,47,0
80.84956,80.98685,59,35,0
80.98685,81.12244,60,37,0
80.98685,81.12244,63,48,0
81.534065,81.672005,51,46,0
81.534065,81.672005,56,59,0
81.39331,81.672005,44,64,0
81.672005,81.80929,62,46,0
81.672005,81.80929,59,35,0
81.80929,81.94488,60,36,0
81.80929,81.94488,63,47,0
82.36882,82.504036,56,59,0
82.36882,82.504036,50,47,0
82.21395,82.504036,44,64,0
82.504036,82.63812,61,38,0
82.504036,82.63812,64,48,0
82.63812,82.7711,62,39,0
82.63812,82.7711,65,50,0
83.19385,83.32971,50,57,0
83.19385,83.32971,56,59,0
83.04035,83.32971,44,59,0
83.32971,83.464165,64,48,0
83.32971,83.464165,61,39,0
83.464165,83.59713,62,40,0
83.464165,83.59713,65,50,0
84.00476,84.14091,51,58,0
84.00476,84.14091,56,60,0
83.865204,84.14091,44,60,0
84.14091,84.276215,59,34,0
84.14091,84.276215,62,46,0
84.276215,84.40994,60,36,0
84.276215,84.40994,63,47,0
84.81572,84.94999,56,57,0
84.81572,84.94999,48,44,0
84.67723,84.94999,44,60,0
84.94999,85.08341,62,44,0
84.94999,85.08341,59,34,0
85.08341,85.21572,60,35,0
85.08341,85.21572,63,46,0
85.61681,85.75158,50,48,0
85.61681,85.75158,56,61,0
85.4806,85.75158,44,61,0
85.75158,85.88631,61,39,0
85.75158,85.88631,64,49,0
85.88631,86.01963,62,41,0
85.88631,86.01963,65,52,0
86.42312,86.55654,50,59,0
86.42312,86.55654,56,62,0
86.285835,86.55654,44,62,0
86.55654,86.68983,64,50,0
86.55654,86.68983,61,40,0
86.68983,86.821915,65,52,0
86.68983,86.821915,62,41,0
87.23035,87.36377,51,49,0
87.23035,87.36377,56,62,0
87.088806,87.36377,44,62,0
87.36377,87.49719,62,50,0
87.36377,87.49719,59,40,0
87.49719,87.6295,63,52,0
87.49719,87.6295,60,41,0
88.02778,88.16179,56,63,0
87.89303,88.16179,44,63,0
88.16179,88.294815,64,51,0
88.16179,88.294815,61,41,0
88.294815,88.42696,62,42,0
88.294815,88.42696,65,53,0
88.73106,88.862015,56,63,0
88.73106,88.862015,44,63,0
88.98905,89.11518,68,51,0
88.98905,89.11518,64,41,0
89.11518,89.24036,69,53,0
88.862015,89.24036,57,63,0
88.862015,89.24036,45,63,0
89.11518,89.24036,65,42,0
89.61059,89.73217,53,64,0
89.48804,89.73217,41,64,0
89.73217,89.85375,64,51,0
89.73217,89.85375,61,41,0
89.85375,89.975334,65,54,0
89.85375,89.975334,62,42,0
90.339615,90.458664,50,64,0
90.21849,90.458664,38,64,0
90.458664,90.57771,56,42,0
90.458664,90.57771,61,52,0
90.57771,90.696754,57,43,0
90.57771,90.696754,62,54,0
91.0539,91.17295,45,65,0
90.93485,91.17295,33,65,0
91.17295,91.29199,52,42,0
91.17295,91.29199,56,52,0
91.29199,91.41104,57,55,0
91.29199,91.41104,53,43,0
91.77358,91.8902,46,66,0
91.65273,91.8902,34,66,0
91.8902,92.00682,54,42,0
91.8902,92.00682,57,53,0
92.00682,92.123436,55,44,0
92.00682,92.123436,58,55,0
92.47329,92.59377,43,66,0
92.356674,92.59377,31,66,0
92.59377,92.71426,54,53,0
92.59377,92.71426,50,43,0
92.71426,92.83473,51,44,0
92.71426,92.83473,55,56,0
93.19618,93.31452,40,67,0
93.0757,93.31452,28,66,0
93.31452,93.43287,49,54,0
93.31452,93.43287,45,43,0
93.43287,93.55121,50,56,0
93.43287,93.55121,46,44,0
93.90624,94.02529,45,67,0
93.787895,94.02529,33,67,0
94.02529,94.14433,51,44,0
94.02529,94.14433,54,54,0
94.14433,94.26338,55,57,0
94.14433,94.26338,52,45,0
94.53124,94.64235,45,64,0
94.53124,94.64235,33,64,0
94.87995,94.998474,52,37,0
94.64235,94.998474,38,62,0
94.64235,94.998474,50,74,0
94.87995,94.998474,56,56,0
96.071045,96.18915,38,60,0
96.071045,96.18915,50,71,0
96.42675,96.54527,59,56,0
96.42675,96.54527,56,37,0
96.18915,96.897385,45,62,0
96.18915,96.897385,38,62,0
96.18915,96.897385,50,74,0
97.620964,97.73861,50,71,0
97.620964,97.73861,38,60,0
97.97621,98.094734,58,56,0
97.97621,98.094734,55,37,0
97.73861,98.446846,38,62,0
97.73861,98.446846,50,74,0
97.73861,98.446846,44,62,0
99.14269,99.25897,38,60,0
99.14269,99.25897,50,71,0
99.37845,99.497925,54,54,0
99.37845,99.497925,51,43,0
99.497925,99.61739,52,44,0
99.25897,99.61739,34,67,0
99.25897,99.61739,46,67,0
99.497925,99.61739,55,56,0
99.886215,99.97582,46,67,0
99.886215,99.97582,34,67,0
100.09529,100.21477,51,44,0
100.09529,100.21477,54,54,0
100.21477,100.33424,52,45,0
99.97582,100.33424,45,67,0
99.97582,100.33424,33,67,0
100.21477,100.33424,55,57,0
100.60306,100.71417,43,64,0
100.60306,100.71417,31,64,0
100.951775,101.0703,52,37,0
100.71417,101.0703,50,74,0
100.71417,101.0703,45,62,0
100.71417,101.0703,38,62,0
100.951775,101.0703,56,56,0
102.18226,102.30938,38,60,0
102.18226,102.30938,50,71,0
102.54698,102.665504,56,37,0
102.54698,102.665504,59,56,0
102.30938,103.01761,45,62,0
102.30938,103.01761,39,62,0
102.30938,103.01761,51,74,0
103.73807,103.85618,50,71,0
103.73807,103.85618,38,60,0
104.09378,104.2123,55,37,0
104.09378,104.2123,58,56,0
103.85618,104.56441,44,62,0
103.85618,104.56441,39,62,0
103.85618,104.56441,51,74,0
105.26715,105.38036,50,71,0
105.26715,105.38036,38,60,0
105.49984,105.61931,54,54,0
105.49984,105.61931,51,43,0
105.61931,105.738785,55,56,0
105.38036,105.738785,34,67,0
105.38036,105.738785,46,67,0
105.61931,105.738785,52,44,0
106.0076,106.097206,46,67,0
106.0076,106.097206,34,67,0
106.21668,106.33616,51,44,0
106.21668,106.33616,54,54,0
106.33616,106.45563,52,45,0
106.097206,106.45563,33,67,0
106.097206,106.45563,45,67,0
106.33616,106.45563,55,57,0
106.72445,106.835556,43,64,0
106.72445,106.835556,31,64,0
106.835556,106.99599,50,67,0
106.835556,106.99599,45,52,0
106.835556,106.99599,38,52,0
107.15539,107.25084,76,39,0
107.25084,107.346054,75,39,0
107.346054,107.44105,74,39,0
107.15539,107.44105,67,56,0
107.44105,107.53582,73,40,0
107.53582,107.63036,72,41,0
107.63036,107.724686,71,41,0
107.44105,107.724686,64,59,0
107.724686,107.81879,70,41,0
107.81879,107.91266,69,42,0
107.91266,108.00632,68,43,0
107.724686,108.00632,61,62,0
108.00632,108.14638,67,43,0
108.00632,108.14638,58,65,0
108.286,108.43093,52,39,0
108.286,108.43093,49,56,0
108.286,108.43093,55,39,0
108.286,108.43093,43,34,0
108.57586,108.733345,57,57,0
108.57586,108.733345,62,73,0
108.57586,108.733345,54,57,0
108.57586,108.733345,50,57,0
108.890076,108.986626,64,39,0
108.986626,109.0829,63,39,0
109.0829,109.1789,62,39,0
108.890076,109.1789,55,56,0
109.1789,109.2746,61,40,0
109.2746,109.37,60,41,0
109.37,109.46513,59,41,0
109.1789,109.46513,52,59,0
109.46513,109.55999,58,41,0
109.55999,109.654564,57,42,0
109.654564,109.74884,56,43,0
109.46513,109.74884,49,62,0
109.74884,109.889755,46,65,0
109.74884,109.889755,55,43,0
110.03006,110.17969,43,34,0
110.03006,110.17969,49,56,0
110.03006,110.17969,52,39,0
110.03006,110.17969,55,39,0
110.329315,110.47355,45,57,0
110.329315,110.47355,50,73,0
110.329315,110.47355,42,57,0
110.329315,110.47355,38,57,0
110.617775,110.76484,55,53,0
110.617775,110.76484,46,53,0
110.617775,110.76484,49,53,0
110.617775,110.76484,43,53,0
110.911896,111.05578,50,54,0
110.911896,111.05578,62,54,0
110.911896,111.05578,57,54,0
110.911896,111.05578,54,54,0
111.19966,111.34565,55,54,0
111.19966,111.34565,43,54,0
111.19966,111.34565,49,54,0
111.19966,111.34565,46,54,0
111.49164,111.634834,50,55,0
111.49164,111.634834,42,55,0
111.49164,111.634834,38,55,0
111.49164,111.634834,45,55,0
111.77803,111.92473,43,56,0
111.77803,111.92473,34,56,0
111.77803,111.92473,31,56,0
111.77803,111.92473,37,56,0
112.071434,112.21532,45,57,0
112.071434,112.21532,50,74,0
112.071434,112.21532,42,57,0
112.071434,112.21532,38,57,0
112.3592,112.506256,37,57,0
112.3592,112.506256,34,57,0
112.3592,112.506256,43,57,0
112.3592,112.506256,31,57,0
112.65332,112.7972,42,57,0
112.65332,112.7972,38,57,0
112.65332,112.7972,45,57,0
112.65332,112.7972,50,57,0
112.941086,113.08851,43,58,0
112.941086,113.08851,37,58,0
112.941086,113.08851,34,58,0
112.941086,113.08851,31,58,0
113.23593,113.37947,45,59,0
113.23593,113.37947,38,59,0
113.23593,113.37947,50,59,0
113.23593,113.37947,42,59,0
113.52301,113.66971,37,59,0
113.52301,113.66971,43,59,0
113.52301,113.66971,31,59,0
113.52301,113.66971,34,59,0
113.81647,113.96335,50,59,0
113.81647,113.96335,38,59,0
113.81647,113.96335,42,59,0
113.81647,113.96335,45,59,0
114.10955,114.25509,69,56,0
114.10955,114.25509,81,66,0
114.25509,114.39997,78,66,0
114.25509,114.39997,66,56,0
114.688095,114.83198,69,61,0
114.688095,114.83198,57,51,0
114.83198,114.97586,54,51,0
114.83198,114.97586,66,61,0
115.26363,115.40752,45,52,0
115.26363,115.40752,57,62,0
115.40752,115.55141,42,52,0
115.40752,115.55141,54,62,0
115.695595,115.83989,36,47,0
115.695595,115.83989,48,56,0
115.98447,116.129196,47,54,0
115.98447,116.129196,35,45,0
116.27412,116.41929,46,53,0
116.27412,116.41929,34,45,0
116.564995,116.712006,43,51,0
116.564995,116.712006,31,43,0
116.860374,117.01,32,41,0
116.860374,117.01,44,49,0
117.16099,117.31413,45,47,0
117.16099,117.31413,33,39,0
117.31413,117.391655,38,56,0
117.31413,117.391655,26,46,0
117.469124,117.54644,40,56,0
117.469124,117.54644,28,46,0
117.623764,117.700905,30,46,0
117.623764,117.700905,42,56,0
117.77803,117.855,32,46,0
117.77803,117.855,44,56,0
117.93193,118.00878,34,46,0
117.93193,118.00878,46,56,0
118.08551,118.1622,48,56,0
118.08551,118.1622,36,46,0
118.23873,118.31526,50,56,0
118.23873,118.31526,38,46,0
118.39163,118.46797,40,46,0
118.39163,118.46797,52,56,0
118.544174,118.62032,42,46,0
118.544174,118.62032,54,56,0
118.69641,118.77236,44,48,0
118.69641,118.77236,56,57,0
118.84831,118.924095,46,49,0
118.84831,118.924095,58,58,0
118.99985,119.07547,60,61,0
118.99985,119.07547,48,51,0
119.15103,119.22654,50,52,0
119.15103,119.22654,62,62,0
119.30192,119.37725,64,63,0
119.30192,119.37725,52,54,0
119.45244,119.527626,66,64,0
119.45244,119.527626,54,54,0
119.60267,119.677666,68,66,0
119.60267,119.677666,56,55,0
119.75269,119.82776,58,56,0
119.75269,119.82776,70,67,0
119.902466,119.97692,72,68,0
119.902466,119.97692,60,57,0
120.05113,120.12539,62,58,0
120.05113,120.12539,74,69,0
120.199646,120.2739,60,57,0
120.199646,120.2739,72,68,0
120.34816,120.42242,70,67,0
120.34816,120.42242,58,56,0
120.496826,120.571266,68,66,0
120.496826,120.571266,56,55,0
120.645706,120.720146,66,64,0
120.645706,120.720146,54,54,0
120.79459,120.86907,52,54,0
120.79459,120.86907,64,63,0
120.943695,121.018326,62,62,0
120.943695,121.018326,50,52,0
121.09295,121.16758,48,51,0
121.09295,121.16758,60,61,0
121.2422,121.317154,58,60,0
121.2422,121.317154,46,50,0
121.3923,121.46763,44,49,0
121.3923,121.46763,56,58,0
121.54318,121.61893,54,57,0
121.54318,121.61893,42,48,0
121.69488,121.77106,40,46,0
121.69488,121.77106,52,56,0
121.84742,121.92402,50,55,0
121.84742,121.92402,38,46,0
122.00079,122.07781,36,45,0
122.00079,122.07781,48,54,0
122.155014,122.23253,46,52,0
122.155014,122.23253,34,44,0
122.31078,122.38981,44,51,0
122.31078,122.38981,32,43,0
122.46963,122.55025,42,50,0
122.46963,122.55025,30,42,0
122.631676,122.71396,40,49,0
122.631676,122.71396,28,40,0
122.79713,123.59183,38,49,0
122.79713,123.59183,26,49,0
123.59183,124.09183,38,42,0
123.59183,124.09183,50,42,0
124.09183,124.68457,50,43,0
124.09183,124.68457,62,43,0
124.752464,125.025986,46,23,0
124.82036,125.09583,53,28,0
124.95614,125.13075,62,41,0
124.88825,125.16568,58,32,0
125.67235,125.89294,34,23,0
125.72776,125.9497,46,25,0
125.7831,126.006454,53,28,0
125.83832,126.06322,58,30,0
125.89294,126.57089,62,39,0
126.57089,126.73243,60,36,0
126.82935,127.00397,58,41,0
126.73243,127.00397,46,28,0
126.76474,127.038895,50,30,0
126.79705,127.06954,53,33,0
127.54556,127.76615,34,26,0
127.600975,127.822914,46,28,0
127.65631,127.87967,50,32,0
127.71153,127.93643,53,35,0
127.76615,128.4441,58,38,0
128.4441,128.60565,58,39,0
128.60565,128.87718,46,28,0
128.63795,128.91211,51,31,0
128.67026,128.94275,54,33,0
128.70258,129.41878,57,41,0
129.41878,129.56279,57,44,0
129.59604,129.82968,54,35,0
129.6293,129.85806,57,42,0
129.65941,130.33736,66,55,0
130.33736,130.5312,57,39,0
130.5312,130.80536,46,29,0
130.56352,130.83601,53,35,0
130.59583,131.53235,60,44,0
131.53235,131.75069,58,40,0
132.46153,132.63614,62,45,0
132.3597,132.63614,50,23,0
132.39365,132.67107,55,28,0
132.42758,132.70172,58,32,0
133.17773,133.39833,31,23,0
133.20544,133.42671,43,23,0
133.23315,133.4551,50,25,0
133.28848,133.51184,55,28,0
133.3437,133.5686,58,30,0
133.39833,134.07628,62,39,0
134.07628,134.23782,60,36,0
134.27013,134.54428,43,28,0
134.30244,134.57494,50,30,0
134.33475,135.05095,58,41,0
135.05095,135.27155,31,26,0
135.10637,135.32831,43,28,0
135.1617,135.38506,50,32,0
135.21692,135.44182,55,35,0
135.27155,135.9495,58,38,0
135.9495,136.11104,58,39,0
136.11104,136.38257,48,28,0
136.14334,136.4175,52,31,0
136.17566,136.44815,58,33,0
136.20796,136.92416,61,41,0
136.92416,137.06818,60,44,0
137.10143,137.33507,55,32,0
137.13469,137.36345,60,34,0
137.1648,137.84274,70,48,0
137.84274,138.03659,64,39,0
138.10121,138.27583,65,44,0
138.00429,138.27583,41,29,0
138.03659,138.31075,48,29,0
138.06891,138.3414,57,35,0
139.96692,140.14154,65,41,0
139.86508,140.14154,49,23,0
139.89903,140.17645,56,28,0
139.93297,140.2071,61,32,0
140.68314,140.90372,37,23,0
140.73854,140.96048,49,25,0
140.79388,141.01724,56,28,0
140.8491,141.07399,61,30,0
140.90372,141.58167,65,39,0
141.58167,141.74321,65,36,0
141.84013,142.01476,68,48,0
141.80783,142.01476,63,33,0
141.74321,142.01476,56,28,0
141.77551,142.04967,61,30,0
142.55635,142.77693,44,26,0
142.61176,142.8337,51,28,0
142.6671,142.89046,56,32,0
142.72232,142.9472,60,35,0
142.77693,143.45488,63,38,0
143.72318,143.8978,63,41,0
143.62134,143.8978,48,23,0
143.65529,143.93271,55,28,0
143.68924,143.96336,60,32,0
144.43939,144.65997,36,23,0
144.4948,144.71674,48,25,0
144.55014,144.7735,55,28,0
144.60536,144.83025,60,30,0
144.65997,145.33794,63,39,0
145.33794,145.49947,63,36,0
145.59639,145.77101,67,41,0
145.56409,145.77101,62,33,0
145.49947,145.77101,55,28,0
145.53178,145.80592,60,30,0
146.3126,146.53319,43,26,0
146.36801,146.58995,50,28,0
146.42336,146.64671,55,32,0
146.47858,146.70346,59,35,0
146.53319,147.21115,62,38,0
147.47943,147.65405,62,41,0
147.3776,147.65405,46,23,0
147.41154,147.68896,53,28,0
147.4455,147.71962,58,32,0
148.19565,148.41623,34,23,0
148.25105,148.47299,46,25,0
148.3064,148.52975,53,28,0
148.36162,148.5865,58,30,0
148.41623,149.0942,62,39,0
149.0942,149.25572,60,36,0
149.28804,149.56218,43,30,0
149.32034,149.59283,50,33,0
149.35265,150.06886,58,41,0
150.06886,150.28944,31,26,0
150.12427,150.3462,43,28,0
150.17961,150.40297,50,32,0
150.23483,150.45972,55,35,0
150.28944,150.9674,58,38,0
150.9674,151.22586,58,36,0
151.22586,151.45369,55,32,0
151.22586,151.45369,51,32,0
151.22586,151.68152,62,40,0
151.68152,151.91095,39,30,0
151.68152,152.14037,60,38,0
152.14037,152.3682,55,30,0
152.14037,152.3682,51,30,0
152.14037,152.59602,58,38,0
152.59602,152.83293,39,29,0
152.59602,153.06984,60,37,0
153.06984,153.21684,62,37,0
152.981,153.21684,38,29,0
153.01062,153.24992,45,32,0
153.04022,153.28058,54,35,0
155.39265,155.55232,62,20,0
155.39265,155.55232,66,24,0
155.55232,155.712,62,27,0
155.55232,155.712,57,22,0
155.712,155.87169,50,19,0
155.712,155.87169,54,23,0
155.87169,156.03137,62,26,0
155.87169,156.03137,57,22,0
156.03137,156.19106,54,24,0
156.03137,156.19106,50,20,0
156.19106,156.35095,26,29,0
156.35095,156.59473,38,24,0
156.59473,156.8444,50,29,0
156.8444,157.10031,62,28,0
159.6834,159.8411,46,41,0
159.8411,159.97966,77,26,0
159.8411,159.97966,65,22,0
159.8411,159.97966,53,18,0
159.8411,159.97966,62,22,0
159.8411,159.97966,82,26,0
159.99506,160.1333,77,28,0
159.99506,160.1333,65,23,0
159.99506,160.1333,62,23,0
159.99506,160.1333,54,19,0
159.99506,160.1333,82,28,0
160.14857,160.28609,55,20,0
160.14857,160.28609,82,29,0
160.14857,160.28609,65,24,0
160.14857,160.28609,62,24,0
160.14857,160.28609,77,29,0
160.30136,160.43887,56,22,0
160.30136,160.43887,62,26,0
160.30136,160.43887,77,31,0
160.30136,160.43887,82,31,0
160.30136,160.43887,65,26,0
160.45415,160.59032,57,22,0
160.45415,160.59032,77,32,0
160.45415,160.59032,62,27,0
160.45415,160.59032,65,27,0
160.45415,160.59032,82,32,0
160.60538,160.73996,58,23,0
160.60538,160.73996,62,28,0
160.60538,160.73996,65,28,0
160.75478,160.8876,65,29,0
160.75478,160.8876,59,24,0
160.75478,160.8876,77,35,0
160.75478,160.8876,82,35,0
160.75478,160.8876,62,29,0
160.9022,161.03319,60,25,0
160.9022,161.03319,65,30,0
160.9022,161.03319,77,36,0
160.9022,161.03319,62,30,0
160.9022,161.03319,82,36,0
161.04768,161.177,62,32,0
161.04768,161.177,61,27,0
161.04768,161.177,77,38,0
161.04768,161.177,65,32,0
161.04768,161.177,82,38,0
161.1913,161.32462,77,39,0
161.1913,161.32462,82,39,0
161.1913,161.32462,62,33,0
161.1913,161.32462,65,33,0
161.49866,161.66476,46,41,0
161.66476,161.79422,74,26,0
161.66476,161.79422,65,22,0
161.66476,161.79422,53,18,0
161.66476,161.79422,62,22,0
161.66476,161.79422,77,26,0
161.80856,161.93745,54,19,0
161.80856,161.93745,74,28,0
161.80856,161.93745,77,28,0
161.80856,161.93745,65,23,0
161.80856,161.93745,62,23,0
161.95174,162.08017,74,29,0
161.95174,162.08017,77,29,0
161.95174,162.08017,65,24,0
161.95174,162.08017,62,24,0
161.95174,162.08017,55,20,0
162.0944,162.22227,65,26,0
162.0944,162.22227,77,31,0
162.0944,162.22227,62,26,0
162.0944,162.22227,56,22,0
162.0944,162.22227,74,31,0
162.23645,162.3639,62,27,0
162.23645,162.3639,57,22,0
162.23645,162.3639,74,32,0
162.23645,162.3639,77,32,0
162.23645,162.3639,65,27,0
162.37813,162.50606,65,28,0
162.37813,162.50606,62,28,0
162.37813,162.50606,58,23,0
162.52025,162.64746,62,29,0
162.52025,162.64746,74,35,0
162.52025,162.64746,65,29,0
162.52025,162.64746,77,35,0
162.52025,162.64746,59,24,0
162.66154,162.78802,65,30,0
162.66154,162.78802,74,36,0
162.66154,162.78802,77,36,0
162.66154,162.78802,60,25,0
162.66154,162.78802,62,30,0
162.80203,162.92773,77,38,0
162.80203,162.92773,61,27,0
162.80203,162.92773,74,38,0
162.80203,162.92773,62,32,0
162.80203,162.92773,65,32,0
162.94168,163.07414,65,33,0
162.94168,163.07414,77,39,0
162.94168,163.07414,74,39,0
162.94168,163.07414,62,33,0
163.2482,163.41924,46,41,0
163.41924,163.54924,54,19,0
163.41924,163.54924,63,24,0
163.41924,163.54924,72,28,0
163.41924,163.54924,75,28,0
163.41924,163.54924,66,24,0
163.56363,163.69287,55,20,0
163.56363,163.69287,63,25,0
163.56363,163.69287,75,30,0
163.56363,163.69287,66,25,0
163.56363,163.69287,72,30,0
163.70721,163.83609,56,22,0
163.70721,163.83609,66,26,0
163.70721,163.83609,75,31,0
163.70721,163.83609,72,31,0
163.70721,163.83609,63,26,0
163.85039,163.97891,57,24,0
163.85039,163.97891,66,28,0
163.85039,163.97891,72,34,0
163.85039,163.97891,63,28,0
163.85039,163.97891,75,34,0
163.99315,164.13176,66,29,0
163.99315,164.13176,58,24,0
163.99315,164.13176,63,29,0
164.1462,164.27617,66,30,0
164.1462,164.27617,59,25,0
164.1462,164.27617,63,30,0
164.2906,164.4201,63,31,0
164.2906,164.4201,84,38,0
164.2906,164.4201,81,38,0
164.2906,164.4201,66,31,0
164.2906,164.4201,60,26,0
164.4345,164.56364,84,39,0
164.4345,164.56364,66,33,0
164.4345,164.56364,61,27,0
164.4345,164.56364,63,33,0
164.4345,164.56364,81,39,0
164.57799,164.70677,62,29,0
164.57799,164.70677,84,41,0
164.57799,164.70677,63,35,0
164.57799,164.70677,66,35,0
164.57799,164.70677,81,41,0
164.72105,164.86034,63,36,0
164.72105,164.86034,84,42,0
164.72105,164.86034,66,36,0
164.72105,164.86034,81,42,0
165.04694,165.2169,46,41,0
165.2169,165.35153,74,28,0
165.2169,165.35153,65,24,0
165.2169,165.35153,77,28,0
165.2169,165.35153,53,19,0
165.2169,165.35153,62,24,0
165.36644,165.49988,54,20,0
165.36644,165.49988,65,25,0
165.36644,165.49988,74,30,0
165.36644,165.49988,62,25,0
165.36644,165.49988,77,30,0
165.51463,165.64688,62,26,0
165.51463,165.64688,65,26,0
165.51463,165.64688,74,31,0
165.51463,165.64688,55,22,0
165.51463,165.64688,77,31,0
165.66154,165.79282,65,28,0
165.66154,165.79282,62,28,0
165.66154,165.79282,56,24,0
165.66154,165.79282,74,34,0
165.66154,165.79282,77,34,0
165.80734,165.93741,77,35,0
165.80734,165.93741,57,24,0
165.80734,165.93741,65,29,0
165.80734,165.93741,74,35,0
165.80734,165.93741,62,29,0
165.9518,166.08037,65,30,0
165.9518,166.08037,58,25,0
165.9518,166.08037,62,30,0
166.09471,166.2237,77,38,0
166.09471,166.2237,62,31,0
166.09471,166.2237,59,26,0
166.09471,166.2237,74,38,0
166.09471,166.2237,65,31,0
166.23799,166.36641,62,33,0
166.23799,166.36641,74,39,0
166.23799,166.36641,65,33,0
166.23799,166.36641,60,27,0
166.23799,166.36641,77,39,0
166.38065,166.50851,62,35,0
166.38065,166.50851,74,41,0
166.38065,166.50851,61,29,0
166.38065,166.50851,77,41,0
166.38065,166.50851,65,35,0
166.5227,166.65001,77,43,0
166.5227,166.65001,62,36,0
166.5227,166.65001,65,36,0
166.5227,166.65001,74,43,0
166.66415,166.81801,77,44,0
166.66415,166.81801,74,44,0
166.8351,166.99695,43,45,0
166.99695,167.13423,82,28,0
166.99695,167.13423,79,28,0
166.99695,167.13423,58,19,0
166.99695,167.13423,67,24,0
166.99695,167.13423,70,24,0
167.14944,167.28621,70,25,0
167.14944,167.28621,59,20,0
167.14944,167.28621,67,25,0
167.14944,167.28621,79,30,0
167.14944,167.28621,82,30,0
167.30136,167.43773,79,31,0
167.30136,167.43773,70,26,0
167.30136,167.43773,60,22,0
167.30136,167.43773,82,31,0
167.30136,167.43773,67,26,0
167.45282,167.58867,70,28,0
167.45282,167.58867,79,34,0
167.45282,167.58867,82,34,0
167.45282,167.58867,61,24,0
167.45282,167.58867,67,28,0
167.60371,167.73904,70,29,0
167.60371,167.73904,79,35,0
167.60371,167.73904,82,35,0
167.60371,167.73904,62,24,0
167.60371,167.73904,67,29,0
167.75403,167.8872,63,25,0
167.75403,167.8872,70,30,0
167.75403,167.8872,67,30,0
167.90192,168.0332,79,38,0
167.90192,168.0332,64,26,0
167.90192,168.0332,70,31,0
167.90192,168.0332,67,31,0
167.90192,168.0332,82,38,0
168.04764,168.17657,79,39,0
168.04764,168.17657,65,27,0
168.04764,168.17657,82,39,0
168.04764,168.17657,67,33,0
168.04764,168.17657,70,33,0
168.19075,168.31741,79,41,0
168.19075,168.31741,66,29,0
168.19075,168.31741,70,35,0
168.19075,168.31741,67,35,0
168.19075,168.31741,82,41,0
168.33136,168.46402,82,42,0
168.33136,168.46402,70,36,0
168.33136,168.46402,67,36,0
168.33136,168.46402,79,42,0
168.63808,168.80418,43,45,0
168.80418,168.93364,67,24,0
168.80418,168.93364,79,28,0
168.80418,168.93364,62,24,0
168.80418,168.93364,74,28,0
168.80418,168.93364,55,19,0
168.94798,169.07686,67,25,0
168.94798,169.07686,62,25,0
168.94798,169.07686,79,30,0
168.94798,169.07686,56,20,0
168.94798,169.07686,74,30,0
169.09116,169.21957,62,26,0
169.09116,169.21957,57,22,0
169.09116,169.21957,79,31,0
169.09116,169.21957,74,31,0
169.09116,169.21957,67,26,0
169.23381,169.36168,67,28,0
169.23381,169.36168,62,28,0
169.23381,169.36168,79,34,0
169.23381,169.36168,74,34,0
169.23381,169.36168,58,24,0
169.37587,169.50333,62,29,0
169.37587,169.50333,67,29,0
169.37587,169.50333,59,24,0
169.37587,169.50333,74,35,0
169.37587,169.50333,79,35,0
169.51752,169.64503,60,25,0
169.51752,169.64503,67,30,0
169.51752,169.64503,74,34,0
169.51752,169.64503,79,34,0
169.51752,169.64503,62,30,0
169.65916,169.78624,61,31,0
169.65916,169.78624,79,38,0
169.65916,169.78624,67,31,0
169.65916,169.78624,74,38,0
169.80032,169.92683,74,39,0
169.80032,169.92683,62,33,0
169.80032,169.92683,79,39,0
169.80032,169.92683,67,33,0
169.94087,170.06696,58,29,0
169.94087,170.06696,74,41,0
169.94087,170.06696,67,35,0
169.94087,170.06696,79,41,0
170.08095,170.21355,79,41,0
170.08095,170.21355,74,41,0
170.3876,170.55862,36,45,0
170.3876,170.55862,48,45,0
170.55862,170.68863,58,19,0
170.55862,170.68863,82,28,0
170.55862,170.68863,76,28,0
170.55862,170.68863,67,24,0
170.55862,170.68863,70,24,0
170.70302,170.83228,82,30,0
170.70302,170.83228,70,25,0
170.70302,170.83228,67,25,0
170.70302,170.83228,76,30,0
170.70302,170.83228,59,20,0
170.8466,170.9755,76,31,0
170.8466,170.9755,82,31,0
170.8466,170.9755,60,22,0
170.8466,170.9755,70,26,0
170.8466,170.9755,67,26,0
170.98979,171.11832,70,28,0
170.98979,171.11832,67,28,0
170.98979,171.11832,61,24,0
170.98979,171.11832,76,34,0
170.98979,171.11832,82,34,0
171.13255,171.28064,67,29,0
171.13255,171.28064,62,24,0
171.13255,171.28064,70,29,0
171.29509,171.42505,63,25,0
171.29509,171.42505,67,30,0
171.29509,171.42505,70,30,0
171.43948,171.569,67,31,0
171.43948,171.569,85,38,0
171.43948,171.569,64,26,0
171.43948,171.569,88,38,0
171.43948,171.569,70,31,0
171.58339,171.71252,70,33,0
171.58339,171.71252,65,27,0
171.58339,171.71252,85,39,0
171.58339,171.71252,67,33,0
171.58339,171.71252,88,39,0
171.72687,171.85565,85,41,0
171.72687,171.85565,70,35,0
171.72687,171.85565,66,29,0
171.72687,171.85565,67,35,0
171.72687,171.85565,88,41,0
171.86993,172.0095,70,36,0
171.86993,172.0095,67,36,0
171.86993,172.0095,88,42,0
171.86993,172.0095,85,42,0
172.1969,172.35934,41,45,0
172.35934,172.4971,69,27,0
172.35934,172.4971,65,27,0
172.35934,172.4971,81,32,0
172.35934,172.4971,84,32,0
172.35934,172.4971,57,21,0
172.5123,172.64883,69,28,0
172.5123,172.64883,58,23,0
172.5123,172.64883,65,28,0
172.5123,172.64883,81,34,0
172.5123,172.64883,84,34,0
172.66394,172.79933,84,35,0
172.66394,172.79933,65,29,0
172.66394,172.79933,69,29,0
172.66394,172.79933,81,35,0
172.66394,172.79933,59,25,0
172.81432,172.94858,69,32,0
172.81432,172.94858,84,39,0
172.81432,172.94858,65,32,0
172.81432,172.94858,60,27,0
172.81432,172.94858,81,39,0
172.96346,173.09674,69,33,0
172.96346,173.09674,84,41,0
172.96346,173.09674,81,41,0
172.96346,173.09674,65,33,0
172.96346,173.09674,61,27,0
173.11139,173.24167,65,35,0
173.11139,173.24167,84,36,0
173.11139,173.24167,81,36,0
173.11139,173.24167,62,29,0
173.11139,173.24167,69,35,0
173.2559,173.38287,63,31,0
173.2559,173.38287,69,36,0
173.2559,173.38287,84,45,0
173.2559,173.38287,81,45,0
173.2559,173.38287,65,36,0
173.39688,173.52231,69,39,0
173.39688,173.52231,81,49,0
173.39688,173.52231,64,32,0
173.39688,173.52231,84,49,0
173.39688,173.52231,65,39,0
173.53618,173.66032,84,53,0
173.53618,173.66032,69,42,0
173.53618,173.66032,65,42,0
173.53618,173.66032,81,53,0
173.67404,173.79707,84,57,0
173.67404,173.79707,81,57,0
173.80646,173.95612,81,59,0
173.80646,173.97495,84,59,0
173.97809,174.14487,49,51,0
173.97809,174.14487,37,51,0
174.14487,174.27766,85,36,0
174.14487,174.27766,65,30,0
174.14487,174.27766,53,23,0
174.14487,174.27766,80,36,0
174.14487,174.27766,61,30,0
174.29237,174.42468,85,38,0
174.29237,174.42468,65,31,0
174.29237,174.42468,61,31,0
174.29237,174.42468,80,38,0
174.29237,174.42468,54,26,0
174.43933,174.57115,61,34,0
174.43933,174.57115,65,34,0
174.43933,174.57115,80,39,0
174.43933,174.57115,85,39,0
174.43933,174.57115,55,28,0
174.58575,174.7171,61,36,0
174.58575,174.7171,85,45,0
174.58575,174.7171,65,36,0
174.58575,174.7171,80,45,0
174.58575,174.7171,56,30,0
174.73164,174.86244,65,38,0
174.73164,174.86244,85,46,0
174.73164,174.86244,57,30,0
174.73164,174.86244,80,46,0
174.73164,174.86244,61,38,0
174.877,175.00775,61,39,0
174.877,175.00775,65,39,0
174.877,175.00775,58,34,0
175.02225,175.15244,85,51,0
175.02225,175.15244,59,35,0
175.02225,175.15244,80,51,0
175.02225,175.15244,61,40,0
175.02225,175.15244,65,40,0
175.16687,175.29634,61,45,0
175.16687,175.29634,80,52,0
175.16687,175.29634,60,36,0
175.16687,175.29634,65,45,0
175.16687,175.29634,85,52,0
175.31067,175.43956,80,56,0
175.31067,175.43956,61,47,0
175.31067,175.43956,65,47,0
175.31067,175.43956,85,56,0
175.45384,175.58734,85,57,0
175.45384,175.58734,80,57,0
175.76138,175.92749,44,55,0
175.76138,175.92749,32,55,0
175.92749,176.05695,63,34,0
175.92749,176.05695,68,34,0
175.92749,176.05695,87,38,0
175.92749,176.05695,56,26,0
175.92749,176.05695,85,38,0
176.07129,176.20018,63,35,0
176.07129,176.20018,57,27,0
176.07129,176.20018,85,40,0
176.07129,176.20018,87,40,0
176.07129,176.20018,68,35,0
176.21446,176.3429,68,36,0
176.21446,176.3429,58,30,0
176.21446,176.3429,85,44,0
176.21446,176.3429,63,36,0
176.21446,176.3429,87,44,0
176.35713,176.485,63,39,0
176.35713,176.485,87,48,0
176.35713,176.485,68,39,0
176.35713,176.485,85,48,0
176.35713,176.485,59,34,0
176.49918,176.62663,68,40,0
176.49918,176.62663,85,50,0
176.49918,176.62663,87,50,0
176.49918,176.62663,60,34,0
176.49918,176.62663,63,40,0
176.78247,176.90955,68,44,0
176.78247,176.90955,59,44,0
176.78247,176.90955,80,55,0
176.78247,176.90955,84,55,0
176.78247,176.90955,63,44,0
176.92363,177.05016,63,47,0
176.92363,177.05016,68,47,0
176.92363,177.05016,80,56,0
176.92363,177.05016,60,45,0
176.92363,177.05016,84,56,0
177.0642,177.19026,80,60,0
177.0642,177.19026,84,60,0
177.0642,177.19026,63,42,0
177.0642,177.19026,68,51,0
177.0642,177.19026,61,45,0
177.20425,177.33687,80,60,0
177.20425,177.33687,68,51,0
177.20425,177.33687,62,42,0
177.20425,177.33687,84,60,0
177.35269,177.49509,84,60,0
177.35269,177.49509,63,42,0
177.35269,177.49509,68,51,0
177.35269,177.49509,80,60,0
177.51091,177.6777,40,59,0
177.51091,177.6777,52,59,0
177.6777,177.8105,88,40,0
177.6777,177.8105,64,35,0
177.6777,177.8105,56,27,0
177.6777,177.8105,83,40,0
177.6777,177.8105,68,35,0
177.8252,177.9575,64,37,0
177.8252,177.9575,68,37,0
177.8252,177.9575,83,45,0
177.8252,177.9575,88,45,0
177.8252,177.9575,57,29,0
177.97217,178.10399,68,38,0
177.97217,178.10399,88,46,0
177.97217,178.10399,83,46,0
177.97217,178.10399,64,38,0
177.97217,178.10399,58,31,0
178.11859,178.24992,83,51,0
178.11859,178.24992,59,36,0
178.11859,178.24992,88,51,0
178.11859,178.24992,68,42,0
178.11859,178.24992,64,42,0
178.26448,178.39528,64,44,0
178.26448,178.39528,68,44,0
178.26448,178.39528,83,53,0
178.26448,178.39528,60,36,0
178.26448,178.39528,88,53,0
178.40982,178.54059,64,45,0
178.40982,178.54059,61,37,0
178.40982,178.54059,68,45,0
178.55507,178.68526,64,47,0
178.55507,178.68526,88,59,0
178.55507,178.68526,62,39,0
178.55507,178.68526,68,47,0
178.55507,178.68526,83,59,0
178.6997,178.82916,68,51,0
178.6997,178.82916,88,60,0
178.6997,178.82916,64,51,0
178.6997,178.82916,63,40,0
178.6997,178.82916,83,60,0
178.8435,178.9724,83,63,0
178.8435,178.9724,64,53,0
178.8435,178.9724,88,63,0
178.8435,178.9724,68,53,0
178.98668,179.12016,83,64,0
178.98668,179.12016,88,64,0
179.29422,179.46033,35,62,0
179.29422,179.46033,47,62,0
179.46033,179.58978,66,37,0
179.46033,179.58978,59,29,0
179.46033,179.58978,90,44,0
179.46033,179.58978,88,44,0
179.46033,179.58978,71,37,0
179.60411,179.733,66,39,0
179.60411,179.733,90,47,0
179.60411,179.733,60,30,0
179.60411,179.733,71,39,0
179.60411,179.733,88,47,0
179.74728,179.87572,88,48,0
179.74728,179.87572,66,40,0
179.74728,179.87572,90,48,0
179.74728,179.87572,61,35,0
179.74728,179.87572,71,40,0
179.88995,180.01782,66,45,0
179.88995,180.01782,88,55,0
179.88995,180.01782,62,38,0
179.88995,180.01782,90,55,0
179.88995,180.01782,71,45,0
180.03201,180.15947,71,46,0
180.03201,180.15947,90,56,0
180.03201,180.15947,88,56,0
180.03201,180.15947,63,38,0
180.03201,180.15947,66,46,0
180.3153,180.44237,71,50,0
180.3153,180.44237,87,61,0
180.3153,180.44237,62,50,0
180.3153,180.44237,66,50,0
180.3153,180.44237,83,61,0
180.45645,180.58298,63,50,0
180.45645,180.58298,83,63,0
180.45645,180.58298,66,53,0
180.45645,180.58298,71,53,0
180.45645,180.58298,87,63,0
180.59702,180.7231,66,47,0
180.59702,180.7231,71,57,0
180.59702,180.7231,64,51,0
180.59702,180.7231,87,68,0
180.59702,180.7231,83,68,0
180.73708,180.86969,83,68,0
180.73708,180.86969,65,47,0
180.73708,180.86969,87,68,0
180.73708,180.86969,71,57,0
180.88551,180.99232,66,47,0
180.88551,180.99232,87,68,0
180.88551,180.99232,83,68,0
180.88551,180.99232,71,57,0
180.99924,181.23659,56,46,0
181.01407,181.25142,62,52,0
181.02892,181.26625,65,59,0
181.04375,181.95993,71,79,0
181.87715,182.0979,44,45,0
181.90474,182.12549,50,49,0
181.93233,182.15309,53,53,0
181.95993,182.62218,59,73,0
182.62218,182.84293,59,71,0
182.78775,183.00804,44,40,0
182.81534,183.03552,51,40,0
182.84293,183.28181,59,75,0
183.60727,183.71513,39,52,0
183.60727,183.71513,32,52,0
183.71513,183.93164,32,61,0
183.71513,183.93164,39,61,0
184.545,184.78233,56,46,0
184.55983,184.79716,62,52,0
184.57466,184.81201,65,59,0
184.5895,185.50568,71,79,0
185.4229,185.64264,44,45,0
185.4505,185.67003,50,49,0
185.47809,185.69743,53,53,0
185.50568,186.1631,59,73,0
186.1631,186.38223,59,71,0
186.32745,186.5455,44,40,0
186.35484,186.57266,51,40,0
186.38223,186.81552,59,75,0
187.13556,187.24136,32,52,0
187.13556,187.24136,39,52,0
187.24136,187.45459,32,62,0
187.24136,187.45459,39,62,0
188.06572,188.29002,56,48,0
188.07935,188.30414,62,55,0
188.09299,188.31825,65,62,0
188.10663,188.98557,71,84,0
188.90596,189.12096,44,49,0
188.9324,189.14803,50,53,0
188.9588,189.1751,53,58,0
188.98557,189.63539,59,80,0
189.63539,189.86903,59,80,0
189.75221,189.97742,43,51,0
189.81062,190.0316,52,64,0
189.83983,190.0587,55,69,0
189.86903,190.72868,64,85,0
189.86903,190.72868,60,85,0
190.72868,190.94528,31,78,0
190.72868,190.94528,43,78,0
191.1619,191.61166,64,82,0
191.1619,191.61166,55,69,0
191.1619,191.61166,60,69,0
191.61166,192.39731,61,72,0
191.61166,192.39731,65,85,0
191.61166,192.39731,56,72,0
192.39731,192.61629,43,49,0
192.42468,192.64366,50,53,0
192.45206,192.67102,53,58,0
192.47942,193.14227,59,80,0
193.14227,193.36716,59,80,0
193.14227,193.36716,50,62,0
193.14227,193.36716,53,62,0
193.36716,194.23785,64,85,0
193.36716,194.23785,55,72,0
193.36716,194.23785,60,72,0
194.23785,194.45683,31,64,0
194.23785,194.45683,43,76,0
194.67581,195.12558,64,80,0
194.67581,195.12558,60,67,0
194.67581,195.12558,55,67,0
195.12558,195.5671,56,69,0
195.12558,195.5671,61,69,0
195.12558,196.45009,65,81,0
198.60843,198.74805,49,35,0
198.60843,198.74805,53,41,0
198.60843,198.74805,44,35,0
198.74805,198.88751,52,41,0
198.74805,198.88751,43,35,0
198.74805,198.88751,48,35,0
198.88751,199.02698,47,33,0
198.88751,199.02698,42,33,0
198.88751,199.02698,51,40,0
199.02698,199.16646,46,38,0
199.02698,199.16646,50,38,0
199.02698,199.16646,41,32,0
199.16646,199.30592,49,38,0
199.16646,199.30592,40,32,0
199.16646,199.30592,45,32,0
199.30592,199.4453,44,30,0
199.30592,199.4453,39,30,0
199.30592,199.4453,48,36,0
199.4453,199.58394,43,30,0
199.4453,199.58394,47,35,0
199.4453,199.58394,38,30,0
199.58394,199.72318,42,29,0
199.58394,199.72318,37,29,0
199.58394,199.72318,46,35,0
199.72318,199.86304,41,28,0
199.72318,199.86304,45,34,0
199.72318,199.86304,36,28,0
199.86304,200.00363,44,34,0
199.86304,200.00363,40,28,0
199.86304,200.00363,35,28,0
200.00363,200.14482,34,27,0
200.00363,200.14482,39,27,0
200.00363,200.14482,43,33,0
200.14482,200.28677,38,26,0
200.14482,200.28677,33,26,0
200.14482,200.28677,42,31,0
200.28677,200.42897,32,24,0
200.28677,200.42897,41,28,0
200.28677,200.42897,37,24,0
200.42897,200.5704,38,25,0
200.42897,200.5704,42,30,0
200.42897,200.5704,33,25,0
200.5704,200.7111,34,28,0
200.5704,200.7111,43,34,0
200.5704,200.7111,39,28,0
200.7111,200.85225,44,35,0
200.7111,200.85225,35,29,0
200.7111,200.85225,40,29,0
200.85225,200.9944,34,28,0
200.85225,200.9944,43,33,0
200.85225,200.9944,39,28,0
200.9944,201.13747,42,32,0
200.9944,201.13747,33,28,0
200.9944,201.13747,38,28,0
201.13747,201.27975,41,32,0
201.13747,201.27975,37,26,0
201.13747,201.27975,32,26,0
201.27975,201.42136,33,28,0
201.27975,201.42136,38,28,0
201.27975,201.42136,42,33,0
201.42136,201.5622,34,28,0
201.42136,201.5622,43,35,0
201.42136,201.5622,39,28,0
201.5622,201.70206,40,31,0
201.5622,201.70206,35,31,0
201.5622,201.70206,44,36,0
201.70206,201.843,39,29,0
201.70206,201.843,43,35,0
201.70206,201.843,34,29,0
201.843,201.9849,42,34,0
201.843,201.9849,38,28,0
201.843,201.9849,33,28,0
201.9849,202.13654,32,32,0
201.9849,202.13654,37,32,0
201.9849,202.13654,41,37,0
202.13654,202.28816,42,36,0
202.13654,202.28816,33,30,0
202.13654,202.28816,38,30,0
202.28816,202.43979,43,37,0
202.28816,202.43979,34,32,0
202.28816,202.43979,39,32,0
202.43979,202.59142,35,32,0
202.43979,202.59142,44,38,0
202.43979,202.59142,40,32,0
202.59142,202.74306,43,40,0
202.59142,202.74306,39,33,0
202.59142,202.74306,34,33,0
202.74306,202.90198,42,41,0
202.74306,202.90198,38,35,0
202.74306,202.90198,33,35,0
202.90198,203.07637,41,38,0
202.90198,203.07637,32,32,0
202.90198,203.07637,37,32,0
203.07637,203.25453,33,32,0
203.07637,203.25453,38,32,0
203.07637,203.25453,42,38,0
203.25453,203.43675,39,31,0
203.25453,203.43675,43,36,0
203.25453,203.43675,34,31,0
203.43675,203.62323,40,38,0
203.62323,203.81415,41,37,0
203.43675,203.81415,35,32,0
203.43675,203.81415,44,38,0
203.62323,204.00974,25,31,0
204.00974,204.60207,40,38,0
203.81415,204.60207,43,37,0
204.00974,204.60207,36,38,0
204.00974,204.60207,24,38,0
204.60207,204.88257,48,38,0
204.75273,204.90103,52,27,0
204.75273,204.90103,55,32,0
204.90103,205.048,48,32,0
204.90103,205.048,36,27,0
205.1936,205.33792,56,35,0
205.1936,205.33792,53,29,0
205.33792,205.48093,47,35,0
205.33792,205.48093,35,29,0
205.048,205.48093,49,40,0
205.62262,205.76407,53,29,0
205.62262,205.76407,56,34,0
205.76407,205.9038,34,29,0
205.76407,205.9038,46,34,0
205.48093,205.9038,50,41,0
206.03856,206.17334,55,32,0
206.03856,206.17334,58,38,0
206.17334,206.30772,27,32,0
206.17334,206.30772,39,39,0
205.9038,206.30772,51,45,0
206.44203,206.57607,56,32,0
206.44203,206.57607,59,39,0
206.57607,206.70993,50,39,0
206.57607,206.70993,38,32,0
206.30772,206.70993,52,46,0
206.84369,206.97711,56,34,0
206.84369,206.97711,59,41,0
206.97711,207.1105,37,36,0
206.97711,207.1105,49,43,0
206.70993,207.1105,53,46,0
207.24348,207.37646,58,36,0
207.24348,207.37646,61,43,0
207.37646,207.50906,42,44,0
207.37646,207.50906,30,36,0
207.1105,207.50906,54,49,0
207.6416,207.77414,59,39,0
207.6416,207.77414,62,46,0
207.77414,207.90668,41,46,0
207.77414,207.90668,29,39,0
207.50906,207.90668,55,52,0
208.03922,208.17175,62,46,0
208.03922,208.17175,59,38,0
208.17175,208.30406,40,46,0
208.17175,208.30406,28,39,0
207.90668,208.30406,56,53,0
208.43573,208.5674,64,47,0
208.43573,208.5674,61,39,0
208.5674,208.69907,45,48,0
208.5674,208.69907,33,40,0
208.30406,208.69907,57,55,0
208.83073,208.9624,62,43,0
208.83073,208.9624,65,51,0
208.9624,209.09406,45,52,0
208.9624,209.09406,33,44,0
208.69907,209.09406,58,56,0
209.22592,209.35852,66,53,0
209.22592,209.35852,63,44,0
209.35852,209.4919,33,45,0
209.35852,209.4919,45,53,0
209.09406,209.4919,59,59,0
209.62608,209.76106,64,46,0
209.62608,209.76106,67,54,0
209.76106,209.8969,33,46,0
209.76106,209.8969,45,55,0
209.4919,209.8969,60,61,0
209.8969,210.11667,52,54,0
209.8969,210.11667,55,64,0
209.8969,210.11667,45,54,0
210.33371,211.11977,58,68,0
210.99768,211.12288,57,50,0
210.33731,211.12288,46,57,0
210.99846,211.12367,45,40,0
211.11897,211.24356,55,48,0
211.11897,211.24356,43,40,0
211.24512,211.3691,41,40,0
211.25055,211.37451,53,48,0
211.36755,211.49098,40,44,0
211.37451,211.49791,52,52,0
211.49406,211.61688,38,40,0
211.49483,211.61766,50,50,0
211.6146,211.73688,37,46,0
211.61919,211.74146,49,55,0
211.74146,211.86311,52,50,0
211.74146,211.86311,40,40,0
211.85858,211.97983,48,52,0
211.86009,211.9814,36,44,0
211.98218,212.11005,52,50,0
211.98296,212.11089,40,40,0
212.1084,212.24094,47,52,0
212.11005,212.24258,35,44,0
212.24176,212.36603,52,50,0
212.24414,212.36836,40,40,0
212.36603,212.49026,34,44,0
212.3707,212.49518,46,52,0
212.49518,212.62802,40,40,0
212.49518,212.62802,52,50,0
212.62183,212.83922,45,52,0
212.6262,212.84375,33,44,0
213.0604,213.31172,49,57,0
213.06311,213.31406,61,68,0
213.30783,213.43227,46,40,0
213.31172,213.43614,58,50,0
213.43149,213.5553,57,48,0
213.4346,213.5584,45,40,0
213.5553,213.6786,55,48,0
213.56224,213.68552,43,40,0
213.68167,213.80441,41,44,0
213.68475,213.80746,53,52,0
213.80746,213.92961,52,55,0
213.80746,213.92961,40,46,0
213.9258,214.04741,43,38,0
213.92656,214.04817,55,46,0
214.04514,214.1662,39,48,0
214.05196,214.17299,51,57,0
214.16544,214.28485,55,52,0
214.16846,214.28786,43,36,0
214.28485,214.40697,50,58,0
214.2901,214.41235,38,50,0
214.40927,214.53235,43,38,0
214.41003,214.53311,55,48,0
214.53613,214.6559,37,50,0
214.53688,214.65665,49,58,0
214.65514,214.77982,55,48,0
214.65665,214.78159,43,38,0
214.77481,214.91634,34,50,0
214.78247,214.9247,46,58,0
214.92181,215.03728,43,36,0
214.92374,215.03922,55,45,0
215.15173,215.25972,45,55,0
215.15443,215.26242,33,46,0
215.3602,215.61765,52,57,0
215.3667,215.62427,64,68,0
215.61606,215.75163,50,40,0
215.62343,215.75894,62,50,0
215.75812,215.88799,49,40,0
215.75975,215.88962,61,48,0
215.88312,216.01299,46,40,0
215.88393,216.01381,58,48,0
216.01543,216.1453,45,44,0
216.01949,216.14935,57,52,0
216.14204,216.27193,55,49,0
216.14368,216.27354,67,58,0
216.27435,216.40422,65,53,0
216.2768,216.40675,53,46,0
216.40099,216.53775,64,53,0
216.40504,216.54202,52,45,0
216.53946,216.66864,50,44,0
216.54117,216.67024,62,51,0
216.66783,216.79686,61,51,0
216.67024,216.79929,49,44,0
216.79929,216.92831,70,57,0
216.80412,216.93315,58,48,0
216.93074,217.05983,69,58,0
216.93153,217.06068,57,49,0
217.05493,217.18947,67,57,0
217.06236,217.19685,55,48,0
217.19199,217.32065,65,55,0
217.19363,217.32225,53,47,0
217.32146,217.45007,52,46,0
217.32146,217.45007,64,53,0
217.45087,217.57948,76,64,0
217.45087,217.57948,64,53,0
217.57788,217.70648,74,62,0
217.5811,217.70969,62,51,0
217.70488,217.83305,73,59,0
217.70728,217.83545,61,50,0
217.83865,217.96635,70,60,0
217.83945,217.96716,58,51,0
217.95999,218.08727,69,59,0
217.96716,218.0944,57,50,0
218.08965,218.2165,70,53,0
218.09361,218.22046,58,46,0
218.2181,218.3445,55,48,0
218.21887,218.34528,67,57,0
218.3437,218.46967,70,52,0
218.3445,218.47044,58,45,0
218.46573,218.59131,53,48,0
218.47124,218.5968,65,57,0
218.59758,218.72269,55,52,0
218.59836,218.72348,67,52,0
218.71722,218.84192,64,57,0
218.72348,218.84814,52,48,0
218.8427,218.967,55,52,0
218.84348,218.96777,67,52,0
218.96855,219.09239,62,57,0
218.96855,219.09239,50,48,0
219.09085,219.21425,52,45,0
219.09625,219.21964,64,52,0
219.21733,219.34041,49,48,0
219.2204,219.34348,61,58,0
219.33809,219.46117,52,46,0
219.33963,219.4627,64,55,0
219.4604,219.58348,46,49,0
219.46655,219.58963,58,58,0
219.5827,219.70578,61,51,0
219.58348,219.70656,49,42,0
219.70578,219.82886,45,49,0
219.71117,219.83424,57,60,0
219.83118,219.95422,46,45,0
219.83118,219.95422,58,52,0
219.95653,220.07922,43,50,0
219.95883,220.08153,55,60,0
220.07616,220.1989,46,46,0
220.07692,220.19968,58,53,0
220.1966,220.31967,41,51,0
220.1989,220.32198,53,61,0
220.32045,220.44366,43,47,0
220.32736,220.4506,55,55,0
220.44675,220.5702,52,61,0
220.4506,220.57407,40,52,0
220.56943,220.69318,55,56,0
220.56943,220.69318,43,47,0
220.6955,220.81935,50,63,0
220.69627,220.82013,38,52,0
220.8178,220.94202,40,48,0
220.82089,220.94513,52,57,0
220.9428,221.06717,37,51,0
220.94435,221.06873,49,62,0
221.0625,221.1871,52,57,0
221.06561,221.19022,40,47,0
221.1871,221.31195,34,51,0
221.19412,221.31898,46,62,0
221.31273,221.43773,37,48,0
221.31586,221.44087,49,57,0
221.4393,221.5647,33,53,0
221.44087,221.56625,45,63,0
221.5639,221.6893,46,58,0
221.56548,221.69087,34,49,0
221.68773,221.81313,32,53,0
221.69008,221.81548,44,63,0
221.82018,221.94557,45,60,0
221.82095,221.94635,33,49,0
221.93852,222.0639,31,55,0
221.9393,222.0647,43,66,0
222.0686,222.194,45,60,0
222.07018,222.19557,33,49,0
222.19243,222.31787,42,64,0
222.19557,222.32101,30,55,0
222.31787,222.44377,45,59,0
222.32024,222.44614,33,48,0
222.44377,222.56947,29,57,0
222.44614,222.57184,41,66,0
222.56711,222.69366,45,60,0
222.57184,222.69843,33,51,0
222.69446,222.82204,40,66,0
222.7008,222.82845,28,57,0
222.82123,222.94913,33,51,0
222.82443,222.9518,45,60,0
222.9518,223.10954,39,68,0
222.9518,223.10954,27,57,0
223.10954,223.2695,33,52,0
223.10954,223.2695,45,63,0
223.2695,223.43217,24,59,0
223.2695,223.43217,36,68,0
223.43217,223.59766,45,63,0
223.43217,223.59766,33,55,0
223.59766,223.77751,25,58,0
223.59766,223.77751,37,68,0
223.77751,224.10889,45,63,0
223.77751,224.10889,33,53,0
224.42865,224.4933,56,32,0
224.42865,224.4933,52,27,0
224.4933,224.52455,53,34,0
224.4933,224.52455,57,40,0
224.6808,224.7433,61,31,0
224.21935,224.7433,50,42,0
224.21935,224.7433,45,35,0
224.21935,224.7433,38,35,0
224.6808,224.7433,64,26,0
224.7433,224.77577,65,35,0
224.7433,224.77577,62,35,0
225.19054,225.25604,56,27,0
225.19054,225.25604,61,32,0
225.25604,225.28755,57,34,0
225.25604,225.28755,62,40,0
225.44511,225.50815,68,31,0
225.00304,225.50815,38,35,0
225.00304,225.50815,50,42,0
225.00304,225.50815,45,35,0
225.44511,225.50815,64,26,0
225.50815,225.53966,69,35,0
225.50815,225.53966,65,29,0
225.96387,226.0288,54,27,0
225.96387,226.0288,57,32,0
226.0288,226.06004,55,35,0
226.0288,226.06004,58,42,0
226.2163,226.2788,63,27,0
225.76024,226.2788,38,35,0
225.76024,226.2788,43,35,0
225.76024,226.2788,50,42,0
226.2163,226.2788,66,32,0
226.2788,226.31044,64,29,0
226.2788,226.31044,67,35,0
226.71638,226.78218,54,27,0
226.71638,226.78218,57,32,0
226.78218,226.81343,58,41,0
226.78218,226.81343,55,34,0
226.96968,227.03218,63,26,0
226.53197,227.03218,50,42,0
226.53197,227.03218,43,35,0
226.53197,227.03218,38,35,0
226.96968,227.03218,66,31,0
227.03218,227.06451,67,35,0
227.03218,227.06451,64,29,0
227.48991,227.55457,54,33,0
227.48991,227.55457,51,28,0
227.55457,227.58582,52,35,0
227.55457,227.58582,55,42,0
227.74207,227.80457,60,28,0
227.2908,227.80457,37,34,0
227.2908,227.80457,49,41,0
227.74207,227.80457,63,33,0
227.80457,227.83649,64,42,0
227.80457,227.83649,61,35,0
228.24817,228.31454,51,27,0
228.24817,228.31454,54,32,0
228.31454,228.34593,52,34,0
228.31454,228.34593,55,41,0
228.50282,228.5656,63,32,0
228.05989,228.5656,33,34,0
228.05989,228.5656,45,41,0
228.50282,228.5656,60,27,0
228.5656,228.59778,61,42,0
228.5656,228.59778,64,35,0
229.0231,229.08861,52,26,0
229.0231,229.08861,56,31,0
229.08861,229.12038,57,35,0
229.08861,229.12038,53,29,0
229.27928,229.34283,61,27,0
228.8231,229.34283,38,41,0
228.8231,229.34283,50,41,0
229.27928,229.34283,64,32,0
229.34283,229.37462,65,35,0
229.34283,229.37462,62,29,0
229.7919,229.856,56,32,0
229.7919,229.856,52,27,0
229.856,229.88806,57,35,0
229.856,229.88806,53,29,0
230.04832,230.11243,61,28,0
229.5996,230.11243,38,34,0
229.5996,230.11243,50,41,0
229.5996,230.11243,45,34,0
230.04832,230.11243,64,33,0
230.11243,230.14447,62,29,0
230.11243,230.14447,65,35,0
230.57814,230.64279,54,32,0
230.57814,230.64279,51,27,0
230.64279,230.67404,52,34,0
230.64279,230.67404,55,40,0
230.83029,230.89279,63,26,0
230.36884,230.89279,48,42,0
230.36884,230.89279,36,35,0
230.83029,230.89279,59,31,0
230.89279,230.92526,64,35,0
230.89279,230.92526,60,35,0
231.34003,231.40553,59,32,0
231.34003,231.40553,54,27,0
231.40553,231.43704,55,35,0
231.40553,231.43704,60,41,0
231.5946,231.65764,63,27,0
231.15253,231.65764,40,36,0
231.15253,231.65764,52,43,0
231.5946,231.65764,66,32,0
231.65764,231.68915,64,30,0
231.65764,231.68915,67,36,0
232.11336,232.17828,56,28,0
232.11336,232.17828,59,34,0
232.17828,232.20953,60,44,0
232.17828,232.20953,57,37,0
232.36578,232.42828,64,29,0
231.90973,232.42828,41,37,0
231.90973,232.42828,48,37,0
231.90973,232.42828,53,44,0
232.36578,232.42828,68,34,0
232.42828,232.45993,69,37,0
232.42828,232.45993,65,31,0
232.86588,232.93167,59,35,0
232.86588,232.93167,56,29,0
232.93167,232.96292,57,37,0
232.93167,232.96292,60,45,0
233.11917,233.18167,68,34,0
232.68146,233.18167,53,45,0
232.68146,233.18167,41,38,0
233.11917,233.18167,64,28,0
233.18167,233.21399,69,38,0
233.18167,233.21399,65,32,0
233.6496,233.71425,58,36,0
233.6496,233.71425,55,30,0
233.71425,233.7455,56,38,0
233.71425,233.7455,59,45,0
233.90175,233.96425,63,35,0
233.44029,233.96425,52,47,0
233.44029,233.96425,40,39,0
233.90175,233.96425,67,29,0
233.96425,233.99672,68,39,0
233.96425,233.99672,64,39,0
234.41148,234.47699,63,37,0
234.41148,234.47699,58,31,0
234.47699,234.5085,64,46,0
234.47699,234.5085,59,39,0
234.66606,234.7291,70,36,0
234.22398,234.7291,44,40,0
234.22398,234.7291,56,48,0
234.66606,234.7291,67,30,0
234.7291,234.7606,68,33,0
234.7291,234.7606,71,40,0
235.18481,235.24974,60,32,0
235.18481,235.24974,63,38,0
235.24974,235.28099,61,41,0
235.24974,235.28099,64,49,0
235.43724,235.49974,68,32,0
234.98119,235.49974,52,41,0
234.98119,235.49974,45,41,0
234.98119,235.49974,57,49,0
235.43724,235.49974,72,38,0
235.49974,235.53139,69,34,0
235.49974,235.53139,73,42,0
235.93733,236.00313,60,32,0
235.93733,236.00313,63,39,0
236.00313,236.03438,61,41,0
236.00313,236.03438,64,50,0
236.19063,236.25313,68,31,0
235.75291,236.25313,57,50,0
235.75291,236.25313,52,42,0
235.75291,236.25313,45,42,0
236.19063,236.25313,72,38,0
236.25313,236.28545,73,43,0
236.25313,236.28545,69,35,0
236.38243,236.51175,57,54,0
236.38243,236.51175,45,47,0
236.72105,236.7857,63,33,0
236.72105,236.7857,66,40,0
236.7857,236.81696,67,50,0
236.7857,236.81696,64,42,0
236.9732,237.0357,72,38,0
236.51175,237.0357,46,43,0
236.51175,237.0357,58,52,0
236.51175,237.0357,52,43,0
236.9732,237.0357,75,32,0
237.0357,237.06818,76,43,0
237.0357,237.06818,73,43,0
237.48294,237.54845,63,33,0
237.48294,237.54845,66,40,0
237.54845,237.57996,67,50,0
237.54845,237.57996,64,42,0
237.73752,237.80055,72,32,0
237.29544,237.80055,57,52,0
237.29544,237.80055,45,43,0
237.73752,237.80055,75,38,0
237.80055,237.83206,73,36,0
237.80055,237.83206,76,43,0
237.9266,238.05264,57,47,0
237.9266,238.05264,45,38,0
238.25627,238.3212,65,40,0
238.25627,238.3212,62,33,0
238.3212,238.35245,66,52,0
238.3212,238.35245,63,43,0
238.5087,238.5712,71,33,0
238.05264,238.5712,51,43,0
238.05264,238.5712,46,43,0
238.05264,238.5712,58,52,0
238.5087,238.5712,74,40,0
238.5712,238.60284,72,36,0
238.5712,238.60284,75,43,0
239.00879,239.07458,62,33,0
239.00879,239.07458,65,40,0
239.07458,239.10583,66,51,0
239.07458,239.10583,63,42,0
239.26208,239.32458,71,32,0
238.82437,239.32458,45,43,0
238.82437,239.32458,57,52,0
239.26208,239.32458,74,38,0
239.32458,239.35692,72,36,0
239.32458,239.35692,75,43,0
239.45389,239.5832,57,47,0
239.45389,239.5832,45,33,0
239.78232,239.84697,61,35,0
239.78232,239.84697,64,41,0
239.84697,239.87822,65,52,0
239.84697,239.87822,62,43,0
240.03447,240.09697,67,35,0
239.5832,240.09697,47,42,0
239.5832,240.09697,59,51,0
239.5832,240.09697,50,42,0
240.03447,240.09697,70,41,0
240.09697,240.12889,71,52,0
240.09697,240.12889,68,43,0
240.54057,240.60695,55,33,0
240.54057,240.60695,58,40,0
240.60695,240.63834,59,51,0
240.60695,240.63834,56,42,0
240.79523,240.858,63,33,0
240.3523,240.858,47,42,0
240.3523,240.858,40,42,0
240.3523,240.858,52,51,0
240.79523,240.858,67,40,0
240.858,240.89018,68,43,0
240.858,240.89018,64,52,0
241.3155,241.38101,60,32,0
241.3155,241.38101,63,38,0
241.38101,241.41278,64,43,0
241.38101,241.41278,61,36,0
241.57169,241.63524,68,33,0
241.11551,241.63524,57,51,0
241.11551,241.63524,45,51,0
241.11551,241.63524,52,51,0
241.57169,241.63524,72,40,0
241.63524,241.66702,73,43,0
241.63524,241.66702,69,36,0
242.0843,242.1484,60,33,0
242.0843,242.1484,63,40,0
242.1484,242.18047,64,43,0
242.1484,242.18047,61,36,0
242.34071,242.40483,72,41,0
241.892,242.40483,52,42,0
241.892,242.40483,45,42,0
241.892,242.40483,57,51,0
242.34071,242.40483,68,35,0
242.40483,242.43687,69,36,0
242.40483,242.43687,73,43,0
242.53304,242.66124,33,41,0
242.53304,242.66124,45,47,0
242.87053,242.9352,54,36,0
242.87053,242.9352,51,31,0
242.9352,242.96645,52,39,0
242.9352,242.96645,55,46,0
243.1227,243.1852,60,35,0
242.66124,243.1852,40,40,0
242.66124,243.1852,46,48,0
242.66124,243.1852,34,40,0
243.1227,243.1852,63,29,0
243.1852,243.21767,61,40,0
243.1852,243.21767,64,40,0
243.63243,243.69794,54,36,0
243.63243,243.69794,51,31,0
243.69794,243.72945,55,46,0
243.69794,243.72945,52,39,0
243.88701,243.95004,63,35,0
243.44493,243.95004,45,48,0
243.44493,243.95004,33,40,0
243.88701,243.95004,60,29,0
243.95004,243.98155,64,40,0
243.95004,243.98155,61,33,0
244.07608,244.20213,45,43,0
244.07608,244.20213,33,35,0
244.40576,244.47069,53,36,0
244.40576,244.47069,50,31,0
244.47069,244.50194,54,48,0
244.47069,244.50194,51,40,0
244.65819,244.72069,59,31,0
244.20213,244.72069,39,40,0
244.20213,244.72069,46,48,0
244.20213,244.72069,34,40,0
244.65819,244.72069,62,36,0
244.72069,244.75233,60,33,0
244.72069,244.75233,63,40,0
245.15828,245.22408,50,31,0
245.15828,245.22408,53,36,0
245.22408,245.25533,51,39,0
245.22408,245.25533,54,47,0
245.41158,245.47408,59,29,0
244.97386,245.47408,45,48,0
244.97386,245.47408,33,40,0
245.41158,245.47408,62,35,0
245.47408,245.5064,63,40,0
245.47408,245.5064,60,33,0
245.60338,245.7327,45,43,0
245.60338,245.7327,33,31,0
245.93181,245.99646,52,32,0
245.93181,245.99646,55,37,0
245.99646,246.02771,53,40,0
245.99646,246.02771,56,48,0
246.18396,246.24646,64,37,0
245.7327,246.24646,38,39,0
245.7327,246.24646,47,47,0
245.7327,246.24646,35,39,0
246.18396,246.24646,61,32,0
246.24646,246.27838,62,40,0
246.24646,246.27838,65,48,0
246.69006,246.75644,51,36,0
246.75644,246.78781,52,47,0
246.94472,247.00748,55,36,0
246.50179,247.00748,34,39,0
246.50179,247.00748,38,39,0
246.50179,247.00748,46,47,0
247.00748,247.03967,56,40,0
247.265,247.52975,40,47,0
247.265,247.52975,45,47,0
247.265,247.52975,33,47,0
247.52975,247.65555,55,51,0
247.52975,247.65555,46,43,0
247.77977,247.90247,58,53,0
247.77977,247.90247,49,44,0
248.02368,248.14474,52,47,0
248.02368,248.14474,61,55,0
248.26718,248.39099,55,49,0
248.26718,248.39099,64,58,0
248.51625,248.65387,62,72,0
248.51625,248.65387,50,59,0
248.79147,248.92305,45,63,0
248.79147,248.92305,57,75,0
249.05464,249.17886,58,55,0
249.05464,249.17886,67,66,0
249.3019,249.42377,70,69,0
249.3019,249.42377,61,57,0
249.54433,249.66547,64,60,0
249.54433,249.66547,73,69,0
249.78833,249.91307,76,75,0
249.78833,249.91307,67,64,0
250.03975,250.17863,74,86,0
250.03975,250.17863,62,72,0
250.31752,250.44684,57,59,0
250.31752,250.44684,69,71,0
250.70546,250.84308,50,72,0
250.70546,250.84308,62,86,0
250.84308,250.9686,45,53,0
250.84308,250.9686,57,64,0
251.09412,251.22804,50,86,0
251.09412,251.22804,38,72,0
251.36197,251.48909,33,55,0
251.36197,251.48909,45,65,0
251.61621,251.75075,38,72,0
251.61621,251.75075,50,86,0
251.88527,252.01079,33,55,0
251.88527,252.01079,45,66,0
252.2679,252.40614,50,72,0
252.2679,252.40614,62,86,0
252.40614,252.53273,57,67,0
252.40614,252.53273,45,56,0
252.6593,252.79205,38,72,0
252.6593,252.79205,50,86,0
252.92479,253.05246,33,57,0
252.92479,253.05246,45,68,0
253.18011,253.31586,38,72,0
253.18011,253.31586,50,86,0
253.45161,253.58675,45,69,0
253.45161,253.58675,33,58,0
253.72188,253.84846,44,34,0
253.72188,253.84846,56,40,0
253.84846,253.97504,57,40,0
253.84846,253.97504,45,34,0
253.97504,254.10663,58,45,0
253.97504,254.10663,46,36,0
254.2382,254.36533,57,42,0
254.2382,254.36533,45,35,0
254.36533,254.49243,58,44,0
254.36533,254.49243,46,35,0
254.49243,254.62344,47,38,0
254.49243,254.62344,59,47,0
254.75444,254.88156,58,46,0
254.75444,254.88156,46,37,0
254.88156,255.00868,59,46,0
254.88156,255.00868,47,38,0
255.00868,255.1397,60,49,0
255.00868,255.1397,48,40,0
255.27069,255.40001,57,46,0
255.27069,255.40001,45,37,0
255.40001,255.52931,46,37,0
255.40001,255.52931,58,46,0
255.52931,255.66089,47,39,0
255.52931,255.66089,59,48,0
255.79247,255.92122,58,46,0
255.79247,255.92122,46,38,0
255.92122,256.05,47,38,0
255.92122,256.05,59,47,0
256.05,256.18274,48,42,0
256.05,256.18274,60,50,0
256.31546,256.44366,59,49,0
256.31546,256.44366,47,40,0
256.44366,256.57187,60,49,0
256.44366,256.57187,48,42,0
256.57187,256.70346,61,53,0
256.57187,256.70346,49,46,0
256.83502,256.96323,46,42,0
256.83502,256.96323,58,51,0
256.96323,257.09146,47,42,0
256.96323,257.09146,59,51,0
257.09146,257.2236,60,55,0
257.09146,257.2236,48,46,0
257.35577,257.48453,47,45,0
257.35577,257.48453,59,52,0
257.48453,257.61328,60,53,0
257.48453,257.61328,48,46,0
257.61328,257.7466,49,48,0
257.61328,257.7466,61,57,0
257.87994,258.01038,60,55,0
257.87994,258.01038,48,46,0
258.01038,258.19,61,55,0
258.01038,258.19,49,46,0
258.19,258.39923,50,58,0
258.19,258.39923,38,49,0
258.39923,258.4656,56,35,0
258.39923,258.4656,53,29,0
258.39923,258.4656,62,29,0
258.4656,258.66443,54,35,0
258.4656,258.66443,57,42,0
258.73053,258.92874,38,49,0
258.73053,258.92874,50,49,0
258.92874,258.99484,53,29,0
258.92874,258.99484,62,29,0
258.92874,258.99484,56,35,0
258.99484,259.1981,57,42,0
258.99484,259.1981,54,35,0
259.26917,259.4674,50,58,0
259.26917,259.4674,38,49,0
259.4674,259.53348,54,29,0
259.4674,259.53348,57,35,0
259.53348,259.73575,58,42,0
259.53348,259.73575,55,35,0
259.80585,260.00583,38,49,0
259.80585,260.00583,50,58,0
260.00583,260.0725,54,29,0
260.00583,260.0725,57,35,0
260.0725,260.27762,58,42,0
260.0725,260.27762,55,35,0
260.34937,260.55026,37,48,0
260.34937,260.55026,49,57,0
260.55026,260.61725,54,35,0
260.55026,260.61725,51,29,0
260.61725,260.8433,52,35,0
260.61725,260.8433,55,42,0
260.92578,261.13126,45,56,0
260.92578,261.13126,33,47,0
261.13126,261.19977,51,29,0
261.13126,261.19977,54,35,0
261.19977,261.40887,55,42,0
261.19977,261.40887,52,35,0
261.481,261.6846,38,48,0
261.481,261.6846,50,57,0
261.6846,261.75247,56,35,0
261.6846,261.75247,62,29,0
261.6846,261.75247,53,29,0
261.75247,261.9561,54,35,0
261.75247,261.9561,57,42,0
262.02396,262.2323,50,55,0
262.02396,262.2323,38,46,0
262.2323,262.30176,53,29,0
262.2323,262.30176,56,35,0
262.30176,262.52127,54,35,0
262.30176,262.52127,57,42,0
262.60193,262.81116,49,58,0
262.60193,262.81116,37,49,0
262.81116,262.87753,52,29,0
262.81116,262.87753,55,35,0
262.81116,262.87753,61,29,0
262.87753,263.07635,56,42,0
262.87753,263.07635,53,35,0
263.14243,263.34067,53,49,0
263.14243,263.34067,41,49,0
263.34067,263.40674,55,35,0
263.34067,263.40674,61,29,0
263.40674,263.61,56,42,0
263.6811,263.87933,42,49,0
263.6811,263.87933,54,58,0
263.87933,263.9454,61,35,0
263.87933,263.9454,56,29,0
263.9454,264.14764,57,42,0
264.21774,264.41776,45,49,0
264.21774,264.41776,57,58,0
264.41776,264.4844,56,29,0
264.41776,264.4844,61,35,0
264.4844,264.6895,57,42,0
264.7613,264.97052,52,58,0
264.7613,264.97052,40,49,0
264.97052,265.0369,58,35,0
264.97052,265.0369,55,29,0
264.97052,265.0369,64,29,0
265.0369,265.23572,56,35,0
265.0369,265.23572,59,42,0
265.3018,265.50003,56,49,0
265.3018,265.50003,44,49,0
265.50003,265.5661,64,29,0
265.50003,265.5661,58,35,0
265.5661,265.76935,59,42,0
265.84045,266.03867,45,49,0
265.84045,266.03867,57,58,0
266.03867,266.10477,60,29,0
266.03867,266.10477,64,35,0
266.10477,266.307,61,42,0
266.3771,266.57712,49,49,0
266.3771,266.57712,61,58,0
266.57712,266.64377,60,29,0
266.57712,266.64377,64,35,0
266.64377,266.84888,61,42,0
266.7771,266.92065,45,42,0
266.7771,266.92065,57,54,0
266.92065,267.12988,45,39,0
266.92065,267.12988,51,39,0
266.92065,267.12988,57,46,0
267.12988,267.19626,62,23,0
267.12988,267.19626,65,28,0
267.19626,267.39508,63,28,0
267.19626,267.39508,66,33,0
267.46115,267.6594,45,39,0
267.46115,267.6594,57,39,0
267.46115,267.6594,51,39,0
267.6594,267.72546,62,28,0
267.6594,267.72546,65,23,0
267.72546,267.9287,63,28,0
267.72546,267.9287,66,33,0
267.85764,267.99982,51,35,0
267.85764,267.99982,57,40,0
267.85764,267.99982,45,35,0
267.99982,268.19803,57,46,0
267.99982,268.19803,52,39,0
267.99982,268.19803,45,39,0
268.19803,268.26413,60,23,0
268.19803,268.26413,63,28,0
268.26413,268.46637,61,28,0
268.26413,268.46637,64,33,0
268.53647,268.73645,57,46,0
268.53647,268.73645,49,39,0
268.53647,268.73645,45,39,0
268.73645,268.80313,60,23,0
268.73645,268.80313,63,28,0
268.80313,269.00824,61,28,0
268.80313,269.00824,64,33,0
269.08002,269.28925,57,48,0
269.08002,269.28925,51,40,0
269.08002,269.28925,45,40,0
269.28925,269.35562,65,29,0
269.28925,269.35562,62,24,0
269.35562,269.55444,63,29,0
269.35562,269.55444,66,34,0
269.6205,269.81876,57,40,0
269.6205,269.81876,51,40,0
269.6205,269.81876,45,40,0
269.81876,269.88483,62,29,0
269.81876,269.88483,65,24,0
269.88483,270.08807,63,29,0
269.88483,270.08807,66,34,0
270.017,270.15915,51,36,0
270.017,270.15915,45,36,0
270.017,270.15915,57,42,0
270.15915,270.3574,58,48,0
270.15915,270.3574,53,40,0
270.15915,270.3574,46,40,0
270.3574,270.4235,64,29,0
270.3574,270.4235,61,24,0
270.4235,270.62573,62,29,0
270.4235,270.62573,65,34,0
270.69583,270.8958,46,40,0
270.69583,270.8958,50,40,0
270.69583,270.8958,58,48,0
270.8958,270.9625,64,29,0
270.8958,270.9625,61,24,0
270.9625,271.1676,65,34,0
270.9625,271.1676,62,29,0
271.23938,271.4486,46,42,0
271.23938,271.4486,58,50,0
271.23938,271.4486,52,42,0
271.4486,271.51495,66,30,0
271.4486,271.51495,63,25,0
271.51495,271.71378,64,30,0
271.51495,271.71378,67,36,0
271.77988,271.97812,46,43,0
271.77988,271.97812,58,43,0
271.77988,271.97812,52,43,0
271.97812,272.0442,63,31,0
271.97812,272.0442,66,26,0
272.0442,272.24744,67,37,0
272.0442,272.24744,64,31,0
272.17633,272.3185,58,46,0
272.17633,272.3185,46,39,0
272.17633,272.3185,52,39,0
272.3185,272.52774,54,44,0
272.3185,272.52774,47,44,0
272.3185,272.52774,59,53,0
272.52774,272.59412,65,32,0
272.52774,272.59412,62,26,0
272.59412,272.79294,66,38,0
272.59412,272.79294,63,32,0
272.85904,273.05725,47,46,0
272.85904,273.05725,59,46,0
273.05725,273.12335,67,27,0
273.05725,273.12335,64,33,0
273.12335,273.3266,68,39,0
273.12335,273.3266,65,33,0
273.2555,273.39767,59,49,0
273.2555,273.39767,47,42,0
273.39767,273.6069,60,56,0
273.39767,273.6069,48,47,0
273.6069,273.67328,66,34,0
273.6069,273.67328,63,28,0
273.67328,273.8721,64,34,0
273.67328,273.8721,67,40,0
273.93817,274.1364,49,48,0
273.93817,274.1364,61,48,0
274.1364,274.2025,66,35,0
274.1364,274.2025,69,29,0
274.2025,274.412,67,35,0
274.2025,274.412,70,41,0
274.33466,274.4893,49,44,0
274.33466,274.4893,61,52,0
274.4893,274.68494,50,50,0
274.4893,274.68494,62,59,0
274.68494,274.75018,64,32,0
274.68494,274.75018,68,38,0
274.75018,274.95068,65,38,0
274.75018,274.95068,69,45,0
275.02078,275.21643,45,45,0
275.02078,275.21643,57,53,0
275.21643,275.28165,64,39,0
275.21643,275.28165,61,33,0
275.28165,275.48187,65,47,0
275.28165,275.48187,62,39,0
275.55164,275.74728,41,50,0
275.55164,275.74728,53,59,0
275.74728,275.8125,56,32,0
275.74728,275.8125,61,38,0
275.8125,276.01303,62,45,0
275.8125,276.01303,57,38,0
276.08313,276.2805,50,53,0
276.08313,276.2805,38,45,0
276.2805,276.34628,56,39,0
276.2805,276.34628,52,33,0
276.34628,276.5473,57,47,0
276.34628,276.5473,53,39,0
276.61676,276.80988,58,59,0
276.61676,276.80988,46,50,0
276.80988,276.87427,61,32,0
276.80988,276.87427,64,38,0
276.87427,277.0715,62,38,0
276.87427,277.0715,65,45,0
277.13998,277.33566,41,45,0
277.13998,277.33566,53,53,0
277.33566,277.40088,61,39,0
277.33566,277.40088,57,33,0
277.40088,277.60043,58,39,0
277.40088,277.60043,62,47,0
277.66956,277.8652,38,50,0
277.66956,277.8652,50,59,0
277.8652,277.93042,52,32,0
277.8652,277.93042,57,38,0
277.93042,278.13095,58,45,0
277.93042,278.13095,53,38,0
278.20105,278.3967,46,53,0
278.20105,278.3967,34,45,0
278.3967,278.4619,52,39,0
278.3967,278.4619,49,33,0
278.4619,278.66245,53,47,0
278.4619,278.66245,50,39,0
278.73254,278.9265,39,50,0
278.73254,278.9265,51,59,0
278.9265,278.99115,57,34,0
278.9265,278.99115,54,28,0
278.99115,279.19055,58,40,0
278.99115,279.19055,55,34,0
279.26065,279.45544,34,45,0
279.26065,279.45544,46,53,0
279.45544,279.5204,54,29,0
279.45544,279.5204,57,35,0
279.5204,279.72205,55,35,0
279.5204,279.72205,58,42,0
279.7938,279.98944,51,59,0
279.7938,279.98944,39,50,0
279.98944,280.0547,54,28,0
279.98944,280.0547,57,34,0
280.0547,280.2552,55,34,0
280.0547,280.2552,58,40,0
280.3253,280.52267,34,45,0
280.3253,280.52267,46,53,0
280.52267,280.58844,54,29,0
280.52267,280.58844,57,35,0
280.58844,280.7918,55,35,0
280.58844,280.7918,58,42,0
280.8636,281.06268,33,50,0
280.8636,281.06268,45,59,0
281.06268,281.12906,52,32,0
281.06268,281.12906,56,38,0
281.12906,281.33463,57,45,0
281.12906,281.33463,53,38,0
281.40744,281.60834,41,53,0
281.40744,281.60834,29,45,0
281.60834,281.6753,52,39,0
281.6753,281.88098,53,47,0
281.95276,282.15546,40,59,0
281.95276,282.15546,28,50,0
282.22302,282.43393,46,38,0
282.22302,282.43393,50,38,0
282.22302,282.43393,52,45,0
282.50967,282.719,45,53,0
282.50967,282.719,33,45,0
282.78876,283.0294,52,38,0
282.78876,283.0294,55,47,0
282.78876,283.0294,45,38,0
282.78876,283.0294,49,38,0
283.10962,283.27444,57,67,0
283.10962,283.27444,53,67,0
283.10962,283.43927,50,56,0
283.10962,283.43927,38,56,0
283.10962,283.43927,45,56,0
284.23294,284.37445,50,69,0
284.23294,284.37445,38,58,0
284.37445,285.5031,39,66,0
284.39017,285.51627,42,66,0
284.40588,285.52942,45,66,0
284.4216,285.54257,51,78,0
285.54257,285.68146,38,57,0
285.54257,285.68146,50,68,0
285.68146,286.82312,41,65,0
285.6969,286.8365,44,65,0
285.7123,286.84985,47,65,0
285.72775,286.86322,53,77,0
286.86322,286.99557,38,56,0
286.86322,286.99557,50,67,0
286.99557,287.32816,46,65,0
287.01028,287.3419,50,65,0
287.025,287.35562,55,65,0
287.0397,287.3694,58,77,0
287.5281,287.68683,46,56,0
287.5281,287.68683,58,67,0
287.68683,288.0104,45,65,0
287.68683,288.0104,57,77,0
288.17523,288.35815,43,56,0
288.17523,288.35815,55,67,0
288.35815,289.34644,38,66,0
288.37848,289.3596,42,66,0
288.3988,289.37274,45,66,0
288.41913,289.3859,50,78,0
289.5438,289.67615,38,57,0
289.5438,289.67615,50,68,0
289.67615,290.81345,39,66,0
289.69086,290.82675,42,66,0
289.70557,290.84006,45,66,0
289.72028,290.85333,51,78,0
290.85333,290.98648,38,57,0
290.85333,290.98648,50,68,0
290.98648,292.12216,35,65,0
291.00128,292.13547,41,65,0
291.01605,292.14877,44,65,0
291.03085,292.16205,47,77,0
292.16205,292.33957,50,67,0
292.16205,292.33957,38,56,0
292.33957,292.67477,37,65,0
292.33957,292.67477,40,65,0
292.33957,292.67477,34,65,0
292.33957,292.67477,46,77,0
292.8335,292.99225,34,56,0
292.8335,292.99225,46,67,0
292.99225,293.3097,37,65,0
292.99225,293.3097,31,65,0
292.99225,293.3097,43,77,0
292.99225,293.3097,40,65,0
293.4684,293.64807,31,56,0
293.4684,293.64807,43,67,0
293.64807,293.8277,50,56,0
293.64807,293.8277,38,56,0
293.64807,293.8277,57,67,0
293.64807,293.8277,53,67,0
293.64807,293.8277,45,56,0
294.00735,294.10635,76,60,0
294.10635,294.20535,75,60,0
294.20535,294.30438,74,60,0
294.00735,294.30438,67,59,0
294.30438,294.40338,73,60,0
294.40338,294.5024,72,60,0
294.5024,294.6014,71,60,0
294.30438,294.6014,64,63,0
294.6014,294.70667,70,60,0
294.70667,294.81192,69,60,0
294.81192,294.9172,68,60,0
294.6014,294.9172,61,58,0
294.9172,295.0751,58,53,0
294.9172,295.0751,67,63,0
295.23297,295.38843,43,53,0
295.23297,295.38843,55,63,0
295.38843,295.54385,49,48,0
295.38843,295.54385,52,57,0
295.54385,295.6993,45,53,0
295.54385,295.6993,57,63,0
295.6993,295.85474,52,58,0
295.6993,295.85474,49,49,0
295.85474,296.0205,58,63,0
295.85474,296.0205,46,53,0
296.0205,296.18625,55,57,0
296.0205,296.18625,52,48,0
296.18625,296.3393,50,64,0
296.18625,296.3393,57,64,0
296.18625,296.3393,54,64,0
296.18625,296.3393,62,64,0
296.49237,296.59186,64,54,0
296.59186,296.69138,63,54,0
296.69138,296.79086,62,54,0
296.49237,296.79086,55,53,0
296.79086,296.89038,61,54,0
296.89038,296.98987,60,54,0
296.98987,297.0894,59,54,0
296.79086,297.0894,52,56,0
297.0894,297.19748,58,54,0
297.19748,297.3056,57,54,0
297.3056,297.4137,56,54,0
297.0894,297.4137,49,52,0
297.4137,297.56915,46,47,0
297.4137,297.56915,55,56,0
297.72458,297.88004,31,51,0
297.72458,297.88004,43,61,0
297.88004,298.03546,37,47,0
297.88004,298.03546,40,56,0
298.03546,298.19092,45,61,0
298.03546,298.19092,33,51,0
298.19092,298.34634,40,57,0
298.19092,298.34634,37,48,0
298.34634,298.50763,34,51,0
298.34634,298.50763,46,61,0
298.50763,298.6689,43,56,0
298.50763,298.6689,40,47,0
298.6689,298.8268,45,62,0
298.6689,298.8268,38,62,0
298.6689,298.8268,50,62,0
298.6689,298.8268,42,62,0
298.9847,299.09665,43,46,0
298.9847,299.09665,49,46,0
298.9847,299.09665,55,55,0
298.9847,299.09665,46,46,0
299.13397,299.2459,55,55,0
299.13397,299.2459,46,46,0
299.13397,299.2459,43,46,0
299.13397,299.2459,49,46,0
299.28323,299.43787,57,54,0
299.28323,299.43787,50,54,0
299.28323,299.43787,62,64,0
299.28323,299.43787,54,54,0
299.5925,299.7012,43,49,0
299.5925,299.7012,49,49,0
299.5925,299.7012,55,58,0
299.5925,299.7012,46,49,0
299.73743,299.84613,55,58,0
299.73743,299.84613,46,49,0
299.73743,299.84613,43,49,0
299.73743,299.84613,49,49,0
299.88235,300.03778,45,57,0
299.88235,300.03778,38,57,0
299.88235,300.03778,50,68,0
299.88235,300.03778,42,57,0
300.19324,300.30353,46,51,0
300.19324,300.30353,55,60,0
300.19324,300.30353,43,51,0
300.19324,300.30353,49,51,0
300.3403,300.4506,49,49,0
300.3403,300.4506,43,49,0
300.3403,300.4506,55,58,0
300.3403,300.4506,46,49,0
300.48737,300.642,57,56,0
300.48737,300.642,50,56,0
300.48737,300.642,54,56,0
300.48737,300.642,62,66,0
300.79663,300.90857,43,50,0
300.79663,300.90857,46,50,0
300.79663,300.90857,49,50,0
300.79663,300.90857,55,59,0
300.9459,301.05783,43,50,0
300.9459,301.05783,49,50,0
300.9459,301.05783,55,59,0
300.9459,301.05783,46,50,0
301.09515,301.25058,45,57,0
301.09515,301.25058,38,57,0
301.09515,301.25058,50,68,0
301.09515,301.25058,42,57,0
301.406,301.51852,43,60,0
301.406,301.51852,40,60,0
301.406,301.51852,31,51,0
301.406,301.51852,37,51,0
301.55603,301.66852,31,51,0
301.55603,301.66852,40,60,0
301.55603,301.66852,43,60,0
301.55603,301.66852,37,51,0
301.70602,301.86145,50,71,0
301.70602,301.86145,38,59,0
301.70602,301.86145,42,59,0
301.70602,301.86145,45,59,0
302.0169,302.12997,43,62,0
302.0169,302.12997,31,52,0
302.0169,302.12997,37,52,0
302.0169,302.12997,40,52,0
302.16766,302.28073,37,52,0
302.16766,302.28073,31,52,0
302.16766,302.28073,43,62,0
302.16766,302.28073,40,52,0
302.31842,302.6293,42,62,0
302.31842,302.6293,45,62,0
302.31842,302.6293,38,62,0
302.31842,302.6293,50,74,0
302.6293,302.94095,31,53,0
302.6293,302.94095,40,53,0
302.6293,302.94095,37,53,0
302.6293,302.94095,43,63,0
303.25528,303.56952,43,63,0
303.25528,303.56952,31,53,0
303.25528,303.56952,40,53,0
303.25528,303.56952,37,53,0
303.9194,304.24384,40,53,0
303.9194,304.24384,31,53,0
303.9194,304.24384,43,63,0
303.9194,304.24384,37,53,0
304.24384,304.57227,44,52,0
304.24384,304.57227,41,52,0
304.24384,304.57227,38,52,0
304.24384,304.57227,50,62,0
304.57227,304.90643,45,52,0
304.57227,304.90643,42,52,0
304.57227,304.90643,38,52,0
304.57227,304.90643,51,62,0
304.90643,305.24658,43,51,0
304.90643,305.24658,46,51,0
304.90643,305.24658,38,51,0
304.90643,305.24658,52,61,0
305.24658,305.59506,53,61,0
305.24658,305.59506,47,51,0
305.24658,305.59506,38,51,0
305.24658,305.59506,44,51,0
305.59506,305.9565,45,51,0
305.59506,305.9565,54,61,0
305.59506,305.9565,48,51,0
305.59506,305.9565,38,51,0
305.9565,306.31458,49,51,0
305.9565,306.31458,38,51,0
305.9565,306.31458,46,51,0
305.9565,306.31458,55,61,0
307.0082,307.8358,56,56,0
307.0082,307.8358,47,47,0
307.0082,307.8358,38,47,0
312.84674,313.2984,46,48,0
312.84674,313.2984,38,42,0
313.2984,314.60275,46,64,0
313.2984,314.60275,39,54,0
314.60275,315.74405,46,64,0
315.74405,315.93512,46,67,0
314.60275,315.93512,37,54,0
315.93512,317.23947,46,69,0
315.93512,317.23947,35,58,0
317.23947,318.45337,35,55,0
317.23947,318.45337,44,65,0
318.45337,318.61758,35,50,0
318.45337,318.61758,44,59,0
318.67233,319.1103,44,68,0
318.67233,319.1103,35,57,0
319.9862,320.42416,53,48,0
320.42416,321.73804,62,54,0
321.73804,322.176,53,51,0
323.9278,324.36575,56,44,0
323.9278,324.36575,53,44,0
323.9278,324.36575,34,44,0
323.9278,324.36575,44,44,0
325.5237,325.7037,35,39,0
325.5237,325.7037,53,39,0
325.5237,325.7037,44,39,0
325.5237,325.7037,56,39,0
325.7637,325.9827,53,44,0
325.7637,325.9827,56,44,0
325.7637,325.9827,35,44,0
325.7637,325.9827,44,44,0
327.07758,327.51553,53,48,0
327.51553,328.8294,62,54,0
328.8294,329.26736,53,51,0
331.0192,331.45715,44,44,0
331.0192,331.45715,34,44,0
331.0192,331.45715,56,44,0
331.0192,331.45715,53,44,0
332.6151,332.7951,53,39,0
332.6151,332.7951,35,39,0
332.6151,332.7951,44,39,0
332.6151,332.7951,56,39,0
332.8551,333.07407,35,44,0
332.8551,333.07407,53,44,0
332.8551,333.07407,44,44,0
332.8551,333.07407,56,44,0
341.21075,341.6832,50,38,0
341.6832,343.10052,59,44,0
343.10052,343.8148,44,37,0
343.8148,349.52908,53,37,0
351.64737,351.9134,53,46,0
351.64737,351.9134,41,39,0
351.88947,352.15042,52,49,0
351.88947,352.15042,40,41,0
352.1268,352.3836,38,43,0
352.1268,352.3836,50,51,0
352.36053,352.61185,37,45,0
352.36053,352.61185,49,54,0
352.5893,352.83533,48,56,0
352.5893,352.83533,36,47,0
352.81326,353.05423,35,50,0
352.81326,353.05423,47,59,0
353.03262,353.2674,34,51,0
353.03262,353.2674,46,61,0
354.64737,354.7195,57,47,0
354.64737,354.7195,66,56,0
354.64737,354.7195,62,47,0
354.74353,354.81564,57,47,0
354.74353,354.81564,66,56,0
354.74353,354.81564,62,47,0
353.24738,355.64505,33,56,0
353.24738,355.64505,45,66,0
354.8397,356.04773,62,53,0
354.8397,356.04773,66,63,0
354.8397,356.04773,57,53,0
356.24908,356.45044,45,59,0
356.24908,356.45044,33,59,0
357.82297,357.892,54,45,0
357.82297,357.892,62,45,0
357.82297,357.892,66,54,0
357.82297,357.892,59,45,0
357.915,357.984,54,45,0
357.915,357.984,62,45,0
357.915,357.984,66,54,0
357.915,357.984,59,45,0
356.45044,358.8124,47,64,0
356.45044,358.8124,35,54,0
358.00702,359.202,59,51,0
358.00702,359.202,62,51,0
358.00702,359.202,54,51,0
358.00702,359.202,66,61,0
359.39682,359.5916,47,62,0
359.39682,359.5916,35,62,0
360.17603,360.2434,54,47,0
360.17603,360.2434,61,47,0
360.17603,360.2434,66,56,0
360.17603,360.2434,58,47,0
360.26584,360.33322,54,48,0
360.26584,360.33322,61,48,0
360.26584,360.33322,66,57,0
360.26584,360.33322,58,48,0
360.35568,360.74277,54,53,0
360.35568,360.74277,61,53,0
360.35568,360.74277,66,63,0
360.35568,360.74277,58,53,0
359.5916,361.12988,30,51,0
359.5916,361.12988,42,60,0
361.7105,361.77707,57,50,0
361.7105,361.77707,64,50,0
361.7105,361.77707,69,59,0
361.7105,361.77707,61,50,0
361.7993,361.86584,57,50,0
361.7993,361.86584,64,50,0
361.7993,361.86584,69,59,0
361.7993,361.86584,61,50,0
361.88803,362.2607,57,55,0
361.12988,362.2607,45,66,0
361.88803,362.2607,69,65,0
361.12988,362.2607,33,55,0
361.88803,362.2607,61,55,0
361.88803,362.2607,64,55,0
362.44702,362.5868,38,66,0
362.44702,362.5868,33,56,0
362.44702,362.5868,26,56,0
363.70245,363.7834,69,67,0
363.70245,363.7834,62,56,0
363.70245,363.7834,57,56,0
363.70245,363.7834,66,56,0
363.81036,363.9934,69,78,0
363.81036,363.9934,62,66,0
363.81036,363.9934,57,66,0
363.81036,363.9934,66,66,0
364.08493,364.15356,62,59,0
364.08493,364.15356,69,59,0
364.08493,364.15356,74,70,0
364.08493,364.15356,66,59,0
364.17645,364.35916,62,67,0
364.17645,364.35916,69,67,0
364.17645,364.35916,74,79,0
364.17645,364.35916,66,67,0
364.4496,364.5174,54,60,0
364.4496,364.5174,66,71,0
364.4496,364.5174,62,60,0
362.63336,364.54,33,51,0
362.63336,364.54,26,51,0
362.63336,364.54,38,73,0
364.54,364.7187,54,68,0
364.54,364.7187,62,68,0
364.54,364.7187,66,80,0
364.808,364.87503,57,59,0
364.808,364.87503,69,70,0
364.808,364.87503,66,59,0
364.808,364.87503,62,59,0
364.89737,365.07602,57,68,0
364.89737,365.07602,69,80,0
364.89737,365.07602,66,68,0
364.89737,365.07602,62,68,0
365.16537,365.2324,50,61,0
365.16537,365.2324,62,72,0
365.16537,365.2324,57,61,0
365.16537,365.2324,54,61,0
365.2547,365.43127,50,67,0
365.2547,365.43127,62,79,0
365.2547,365.43127,57,67,0
365.2547,365.43127,54,67,0
365.51956,365.5858,54,62,0
365.51956,365.5858,62,62,0
365.51956,365.5858,66,62,0
365.60785,365.78442,66,68,0
365.60785,365.78442,62,68,0
365.60785,365.78442,54,68,0
365.8727,365.93893,57,67,0
365.8727,365.93893,45,56,0
365.8727,365.93893,50,56,0
365.8727,365.93893,54,56,0
365.961,366.13504,57,78,0
365.961,366.13504,45,66,0
365.961,366.13504,50,66,0
365.961,366.13504,54,66,0
366.2223,366.28772,50,59,0
366.2223,366.28772,62,70,0
366.2223,366.28772,57,59,0
366.2223,366.28772,54,59,0
366.30954,366.48407,50,67,0
366.30954,366.48407,62,79,0
366.30954,366.48407,57,67,0
366.30954,366.48407,54,67,0
366.57132,366.63678,42,60,0
366.57132,366.63678,50,60,0
366.57132,366.63678,54,71,0
366.6586,366.8311,42,68,0
366.6586,366.8311,50,68,0
366.6586,366.8311,54,80,0
366.91736,366.98206,45,59,0
366.91736,366.98206,57,70,0
366.91736,366.98206,54,59,0
366.91736,366.98206,50,59,0
367.0036,367.17612,45,68,0
367.0036,367.17612,57,80,0
367.0036,367.17612,54,68,0
367.0036,367.17612,50,68,0
367.2624,367.3271,38,61,0
367.2624,367.3271,50,72,0
367.2624,367.3271,45,61,0
367.2624,367.3271,42,61,0
367.34863,367.5192,38,67,0
367.34863,367.5192,50,79,0
367.34863,367.5192,45,67,0
367.34863,367.5192,42,67,0
367.60446,367.66843,42,62,0
367.60446,367.66843,50,62,0
367.60446,367.66843,54,74,0
367.68973,367.8603,54,81,0
367.68973,367.8603,50,68,0
367.68973,367.8603,42,68,0
367.94556,368.00952,45,67,0
367.94556,368.00952,33,56,0
367.94556,368.00952,38,56,0
367.94556,368.00952,42,56,0
368.03085,368.2014,45,78,0
368.03085,368.2014,33,66,0
368.03085,368.2014,38,66,0
368.03085,368.2014,42,66,0
368.28668,368.35062,38,59,0
368.28668,368.35062,50,70,0
368.28668,368.35062,45,59,0
368.28668,368.35062,42,59,0
368.37195,368.5425,38,67,0
368.37195,368.5425,50,79,0
368.37195,368.5425,45,67,0
368.37195,368.5425,42,67,0
368.62778,368.69174,30,60,0
368.62778,368.69174,38,60,0
368.62778,368.69174,42,71,0
368.71304,368.88263,30,68,0
368.71304,368.88263,38,68,0
368.71304,368.88263,42,80,0
368.96744,369.03104,33,59,0
368.96744,369.03104,45,70,0
368.96744,369.03104,42,59,0
368.96744,369.03104,38,59,0
369.05222,369.2218,33,68,0
369.05222,369.2218,45,80,0
369.05222,369.2218,42,68,0
369.05222,369.2218,38,68,0
369.3066,369.3702,38,61,0
369.3066,369.3702,33,51,0
369.3066,369.3702,26,51,0
369.3914,369.53876,38,67,0
369.3914,369.53876,33,56,0
369.3914,369.53876,26,56,0
369.55508,369.70352,38,61,0
369.55508,369.70352,34,51,0
369.55508,369.70352,26,51,0
369.72012,369.87088,38,67,0
369.72012,369.87088,33,56,0
369.72012,369.87088,26,56,0
369.88776,370.0409,38,61,0
369.88776,370.0409,34,51,0
369.88776,370.0409,26,51,0
370.05804,370.21603,38,67,0
370.05804,370.21603,33,56,0
370.05804,370.21603,26,56,0
370.2336,370.3916,38,61,0
370.2336,370.3916,34,51,0
370.2336,370.3916,26,51,0
370.40915,370.56714,38,67,0
370.40915,370.56714,33,56,0
370.40915,370.56714,26,56,0
370.5847,370.74268,38,61,0
370.5847,370.74268,34,51,0
370.5847,370.74268,26,51,0
370.76022,370.89188,38,67,0
370.76022,370.89188,33,56,0
370.76022,370.89188,26,56,0
370.93576,371.0674,38,61,0
370.93576,371.0674,34,51,0
370.93576,371.0674,26,51,0
371.1113,371.24774,38,67,0
371.1113,371.24774,33,56,0
371.1113,371.24774,26,56,0
371.29324,371.4297,38,61,0
371.29324,371.4297,34,51,0
371.29324,371.4297,26,51,0
371.47516,371.87543,38,63,0
371.47516,371.87543,33,53,0
371.47516,371.87543,26,53,0
371.87543,372.2757,50,71,0
371.87543,372.2757,42,60,0
371.87543,372.2757,38,60,0
371.87543,372.2757,45,60,0
372.2757,372.67596,62,74,0
372.2757,372.67596,54,62,0
372.2757,372.67596,50,62,0
372.2757,372.67596,57,62,0
372.67596,373.24252,74,77,0
372.67596,373.24252,66,64,0
372.67596,373.24252,62,64,0
372.67596,373.24252,69,64,0
373.24252,375.50882,50,96,0
373.24252,375.50882,38,81,0
373.24252,375.50882,26,81,0
