start_time,end_time,note_value,velocity,instrument_program_number
1.5,1.7903228,99,34,0
1.5,1.7903228,87,28,0
1.887097,2.1774197,99,34,0
1.887097,2.1774197,87,28,0
2.274194,2.5645168,87,28,0
2.274194,2.5645168,99,34,0
3.7588515,4.0332417,99,34,0
3.7588515,4.0332417,87,28,0
4.124705,4.399095,87,28,0
4.124705,4.399095,99,34,0
4.4905586,4.764949,99,34,0
4.4905586,4.764949,87,28,0
5.2222657,5.5017686,87,27,0
5.2222657,5.5017686,99,33,0
5.5949364,5.885259,87,27,0
5.5949364,5.885259,99,33,0
6.440049,6.872741,87,22,0
6.440049,6.872741,99,27,0
7.0401034,7.88916,87,21,0
7.0401034,7.88916,99,25,0
9.458894,9.536213,87,40,0
9.304255,9.536213,75,43,0
9.764287,9.8396635,99,40,0
9.613533,9.8396635,87,50,0
10.065794,10.141171,99,39,0
9.91504,10.141171,87,46,0
10.367302,10.442678,99,39,0
10.216548,10.442678,85,46,0
10.65759,10.729706,99,40,0
10.518055,10.729706,83,46,0
10.951821,11.027198,99,40,0
10.801821,11.027198,83,45,0
11.256421,11.327176,99,40,0
11.102575,11.327176,82,43,0
11.542858,11.615322,99,40,0
11.39793,11.615322,80,46,0
11.838539,11.913917,99,37,0
11.687785,11.913917,79,45,0
12.140047,12.215424,99,40,0
11.989293,12.215424,80,45,0
12.433658,12.509035,99,40,0
12.290801,12.509035,82,46,0
12.735166,12.810542,99,37,0
12.584412,12.810542,75,43,0
13.040559,13.117878,87,37,0
12.88592,13.117878,75,43,0
13.338055,13.409484,87,43,0
13.195198,13.409484,76,50,0
13.631666,13.707043,87,40,0
13.480912,13.707043,75,46,0
13.933173,14.008551,87,39,0
13.782419,14.008551,73,46,0
14.227468,14.299238,87,40,0
14.083927,14.299238,71,46,0
14.519524,14.595281,87,40,0
14.371009,14.595281,71,45,0
14.824884,14.901808,87,37,0
14.671039,14.901808,70,43,0
15.130183,15.206069,87,40,0
14.978731,15.206069,68,46,0
15.434492,15.511626,87,37,0
15.282019,15.511626,67,45,0
15.746107,15.825375,87,37,0
15.589233,15.825375,68,45,0
16.068674,16.15064,87,40,0
15.904739,16.15064,70,46,0
16.403063,16.48829,75,37,0
16.232609,16.48829,63,43,0
16.728157,16.805477,87,37,0
16.573517,16.805477,75,43,0
17.036642,17.113173,99,43,0
16.882795,17.113173,87,50,0
17.341988,17.417746,99,41,0
17.189703,17.417746,87,46,0
17.644257,17.719633,99,40,0
17.493504,17.719633,85,46,0
17.93652,18.007275,99,41,0
17.795012,18.007275,83,46,0
18.22803,18.30303,99,39,0
18.07803,18.30303,83,45,0
18.531876,18.603647,99,39,0
18.378029,18.603647,82,43,0
18.826931,18.902689,99,40,0
18.675417,18.902689,80,46,0
19.129963,19.20572,99,39,0
18.978447,19.20572,79,45,0
19.432993,19.50875,99,40,0
19.281477,19.50875,80,45,0
19.726688,19.802446,99,40,0
19.584509,19.802446,82,46,0
20.029718,20.105476,99,39,0
19.878204,20.105476,75,43,0
20.338303,20.416836,87,40,0
20.181234,20.416836,75,43,0
20.647654,20.723797,87,45,0
20.49537,20.723797,76,50,0
20.952223,21.028364,87,43,0
20.799938,21.028364,75,46,0
21.256792,21.335325,87,40,0
21.104507,21.335325,75,39,0
21.104507,21.335325,73,46,0
21.413858,21.51999,75,46,0
21.555368,21.626123,87,39,0
21.696878,21.767633,80,39,0
21.838388,21.911917,83,39,0
21.985447,22.095741,87,46,0
22.132505,22.210226,99,41,0
22.287945,22.402159,75,46,0
22.44023,22.51132,87,39,0
22.58241,22.654526,79,39,0
22.72664,22.801268,82,39,0
22.875895,22.990108,87,46,0
23.02818,23.10432,99,45,0
23.96506,24.044437,87,37,0
23.805277,24.044437,75,41,0
24.277649,24.35418,87,40,0
24.123802,24.35418,99,50,0
24.582994,24.658752,87,39,0
24.43071,24.658752,99,46,0
24.885263,24.948078,85,39,0
24.73451,24.96064,99,46,0
24.96064,25.036016,85,39,0
25.174267,25.245695,99,43,0
25.036016,25.245695,83,54,0
25.465637,25.539896,99,40,0
25.317123,25.539896,83,45,0
25.768,25.844923,99,40,0
25.614153,25.844923,82,43,0
25.844923,25.921844,82,49,0
26.06138,26.13315,99,41,0
25.921844,26.13315,80,49,0
26.356436,26.432194,99,40,0
26.204922,26.432194,79,45,0
26.659468,26.735224,99,40,0
26.507952,26.735224,80,45,0
26.735224,26.773104,79,47,0
26.773104,26.810982,80,49,0
26.95117,27.026546,99,39,0
26.810982,27.026546,82,50,0
27.252676,27.328053,99,39,0
27.101923,27.328053,75,43,0
27.55807,27.63539,87,40,0
27.40343,27.63539,75,43,0
27.63539,27.71271,78,46,0
27.854889,27.92842,87,41,0
27.71271,27.92842,76,47,0
28.1527,28.228079,87,40,0
28.001947,28.228079,75,46,0
28.454208,28.529585,87,39,0
28.303455,28.529585,73,46,0
28.529585,28.604963,73,50,0
28.748503,28.823503,87,40,0
28.604963,28.823503,71,50,0
29.048504,29.123503,87,40,0
28.898504,29.123503,71,45,0
29.35235,29.429274,87,40,0
29.198503,29.429274,70,43,0
29.429274,29.506195,70,50,0
29.657648,29.733534,87,40,0
29.506195,29.733534,68,50,0
29.963526,30.040056,87,40,0
29.809675,30.040056,67,45,0
30.272831,30.35055,87,40,0
30.116848,30.35055,68,45,0
30.586166,30.665113,87,39,0
30.42827,30.665113,70,46,0
30.906223,30.987303,75,39,0
30.74406,30.987303,63,43,0
31.223024,31.300344,87,40,0
31.068384,31.300344,75,43,0
31.530594,31.606995,99,45,0
31.377531,31.606995,87,50,0
31.835165,31.910921,99,43,0
31.683136,31.910921,87,46,0
32.137432,32.21281,99,39,0
31.98668,32.21281,85,46,0
32.21281,32.288185,85,54,0
32.428375,32.498466,99,45,0
32.288185,32.498466,83,54,0
32.71856,32.79356,99,40,0
32.56856,32.79356,83,45,0
33.022408,33.09933,99,40,0
32.86856,33.09933,82,45,0
33.09933,33.176254,82,46,0
33.317097,33.38752,99,40,0
33.176254,33.38752,80,51,0
33.61023,33.68637,99,40,0
33.457943,33.68637,79,45,0
33.914795,33.99094,99,40,0
33.762512,33.99094,80,45,0
33.99094,34.02901,79,52,0
34.02901,34.06708,80,54,0
34.20926,34.28035,99,39,0
34.06708,34.28035,82,55,0
34.502193,34.57757,99,39,0
34.35144,34.57757,75,43,0
34.810017,34.88213,87,40,0
34.652946,34.88213,75,43,0
34.88213,34.954247,78,46,0
35.10653,35.182674,92,44,0
34.954247,35.182674,76,50,0
35.4111,35.48724,92,44,0
35.258816,35.48724,75,46,0
35.715668,35.7942,92,44,0
35.563385,35.7942,73,46,0
35.872734,35.979877,75,46,0
36.015594,36.08702,87,39,0
36.15845,36.231266,80,39,0
36.30408,36.37725,83,39,0
36.450424,36.56406,87,46,0
36.601936,36.679657,99,41,0
36.757378,36.86555,75,46,0
36.901608,36.973724,87,39,0
37.04584,37.11973,79,39,0
37.193623,37.269382,82,39,0
37.34514,37.458775,87,46,0
37.496655,37.57907,99,45,0
37.966057,38.080273,63,40,0
38.118343,38.232555,68,37,0
38.270626,38.38484,75,37,0
38.42291,38.537125,80,36,0
40.291313,40.40361,70,41,0
40.291313,40.40361,67,36,0
40.590775,40.70307,69,44,0
40.590775,40.70307,66,39,0
40.88985,41.000793,68,45,0
40.88985,41.000793,65,41,0
41.18645,41.291134,67,47,0
41.18645,41.291134,64,43,0
41.326027,41.395145,73,54,0
41.395145,41.464264,71,54,0
41.464264,41.53338,70,54,0
41.53338,41.602497,71,54,0
41.602497,41.709225,66,61,0
41.7448,41.850483,90,54,0
41.88571,41.991394,71,62,0
42.026623,42.13435,90,54,0
42.170258,42.239376,75,56,0
42.239376,42.308495,73,56,0
42.308495,42.377613,72,56,0
42.377613,42.44673,73,56,0
42.44673,42.55346,66,63,0
42.58903,42.694717,90,61,0
42.729942,42.83563,73,63,0
42.870853,42.97808,90,61,0
43.01382,43.08294,76,54,0
43.08294,43.152058,75,54,0
43.152058,43.221176,74,54,0
43.221176,43.290295,75,54,0
43.290295,43.395977,71,61,0
43.431206,43.53689,90,59,0
43.714973,43.822117,74,41,0
43.714973,43.822117,71,36,0
44.002758,44.111454,73,44,0
44.002758,44.111454,70,39,0
44.292614,44.40131,72,45,0
44.292614,44.40131,69,41,0
44.582466,44.68715,71,47,0
44.582466,44.68715,68,43,0
44.722042,44.79051,77,54,0
44.79051,44.85898,75,54,0
44.85898,44.927444,74,54,0
44.927444,44.995914,75,54,0
44.995914,45.101597,70,61,0
45.136826,45.240993,94,59,0
45.275715,45.379883,75,62,0
45.414604,45.521328,94,59,0
45.556904,45.625374,78,56,0
45.625374,45.69384,77,56,0
45.69384,45.76231,76,56,0
45.76231,45.830776,77,56,0
45.830776,45.936462,70,63,0
45.971687,46.075855,94,60,0
46.110577,46.214745,77,62,0
46.249466,46.355198,94,60,0
46.390446,46.45891,80,54,0
46.45891,46.52738,78,54,0
46.52738,46.595848,77,54,0
46.595848,46.664318,78,54,0
46.664318,46.77,75,61,0
46.80523,46.91091,94,59,0
47.088318,47.194954,77,41,0
47.088318,47.194954,74,36,0
47.37268,47.479313,76,44,0
47.37268,47.479313,73,39,0
47.65704,47.763676,72,41,0
47.65704,47.763676,75,45,0
47.9414,48.046078,71,43,0
47.9414,48.046078,74,47,0
48.080975,48.14944,80,54,0
48.14944,48.21791,78,54,0
48.21791,48.286377,77,54,0
48.286377,48.354847,78,54,0
48.354847,48.46053,73,61,0
48.495758,48.599922,97,64,0
48.634647,48.73881,78,62,0
48.773533,48.87927,97,64,0
48.914513,48.98298,82,56,0
48.98298,49.05145,80,56,0
49.05145,49.119915,79,56,0
49.119915,49.188385,80,56,0
49.188385,49.294067,73,63,0
49.329296,49.433464,97,64,0
49.468185,49.572353,80,62,0
49.607075,49.718315,97,64,0
49.7549,49.863075,82,47,0
49.89913,50.01163,83,47,0
50.193363,50.337593,94,55,0
50.193363,50.337593,97,55,0
50.049133,50.337593,85,50,0
50.337593,50.445766,83,47,0
50.481827,50.589996,82,47,0
50.626057,50.73423,80,47,0
50.770287,50.88058,82,47,0
51.061577,51.205807,87,50,0
51.061577,51.205807,95,55,0
50.917347,51.205807,83,50,0
51.205807,51.31398,82,47,0
51.350037,51.45821,80,47,0
51.494267,51.60244,78,47,0
51.6385,51.749336,80,47,0
51.93051,52.074745,94,54,0
51.93051,52.074745,85,47,0
51.78628,52.074745,82,50,0
52.074745,52.18292,80,47,0
52.218975,52.32715,78,47,0
52.363205,52.47138,77,47,0
52.507435,52.618824,78,47,0
52.800182,52.944412,83,45,0
52.800182,52.944412,92,51,0
52.655952,52.944412,80,50,0
52.944412,53.052586,75,47,0
53.088642,53.200027,77,47,0
53.23716,53.453503,78,50,0
53.38139,53.52562,82,40,0
53.38139,53.52562,90,45,0
54.108143,54.216316,68,61,0
54.252373,54.360546,80,61,0
54.396606,54.61295,92,65,0
54.540836,54.685066,80,56,0
54.685066,54.901413,92,65,0
54.829296,54.973526,78,55,0
54.973526,55.19165,92,67,0
55.11776,55.26554,76,54,0
55.26554,55.481888,102,70,0
55.40977,55.554005,80,55,0
55.554005,55.770348,100,70,0
55.698235,55.842464,80,55,0
55.842464,56.05881,99,70,0
55.986694,56.130928,80,55,0
56.130928,56.34727,97,70,0
56.275158,56.419388,80,55,0
56.419388,56.638245,99,70,0
56.563618,56.71287,80,54,0
56.71287,56.92922,100,73,0
56.8571,57.001335,80,54,0
57.001335,57.217678,97,69,0
57.145565,57.289795,80,55,0
57.586826,57.69346,66,61,0
57.729004,57.83564,78,61,0
57.871185,58.084454,90,65,0
58.013367,58.155544,78,56,0
58.155544,58.368816,90,65,0
58.297726,58.439903,76,55,0
58.439903,58.655975,90,67,0
58.582085,58.72987,75,54,0
58.72987,58.940147,100,70,0
58.870056,59.010242,78,55,0
59.010242,59.220524,99,70,0
59.15043,59.290615,78,55,0
59.290615,59.503887,97,70,0
59.432796,59.574978,78,55,0
59.574978,59.788246,95,70,0
59.717155,59.859337,78,55,0
59.859337,60.07614,97,70,0
60.001514,60.15077,78,54,0
60.15077,60.367115,99,73,0
60.295002,60.43923,78,54,0
60.43923,60.65558,95,69,0
60.58346,60.72769,78,55,0
61.012054,61.117687,63,66,0
61.152897,61.258533,75,61,0
61.293743,61.400887,87,61,0
61.4366,61.543743,75,52,0
61.579456,61.686092,87,60,0
61.721638,61.828274,74,54,0
61.86382,61.969948,87,61,0
62.005325,62.111458,73,55,0
62.146835,62.252472,87,60,0
62.28768,62.428528,73,57,0
62.428528,62.53516,87,61,0
62.570705,62.67734,71,64,0
62.712887,62.817055,88,73,0
62.712887,62.817055,76,54,0
62.851776,62.95594,87,72,0
62.851776,62.95594,82,54,0
62.990665,63.09483,85,71,0
62.990665,63.09483,73,52,0
63.129555,63.23372,83,70,0
63.129555,63.23372,76,51,0
63.268444,63.37261,82,70,0
63.268444,63.37261,71,51,0
63.40733,63.511017,80,69,0
63.40733,63.511017,77,51,0
63.54496,63.649612,79,69,0
63.54496,63.649612,70,51,0
63.684494,63.789146,82,65,0
63.684494,63.789146,75,47,0
63.82403,63.92683,83,62,0
63.82403,63.92683,79,45,0
63.961025,64.06766,82,57,0
63.961025,64.06766,75,43,0
64.384895,64.49053,75,66,0
64.52574,64.63138,87,61,0
64.66659,64.77373,99,60,0
64.80944,64.91653,87,50,0
64.95207,65.05871,99,56,0
65.09425,65.2005,86,52,0
65.23588,65.34195,99,57,0
65.37717,65.482796,85,54,0
65.51801,65.62326,99,61,0
65.6583,65.79849,85,55,0
65.79849,65.90563,99,61,0
65.94135,66.04849,83,63,0
66.084206,66.18838,100,66,0
66.084206,66.18838,88,47,0
66.2231,66.32726,99,64,0
66.2231,66.32726,93,47,0
66.361984,66.46615,97,63,0
66.361984,66.46615,85,46,0
66.50088,66.60504,95,62,0
66.50088,66.60504,88,45,0
66.63976,66.74393,93,62,0
66.63976,66.74393,83,45,0
66.778656,66.88282,92,61,0
66.778656,66.88282,89,45,0
66.91754,67.02318,82,45,0
66.91754,67.02318,91,63,0
67.05839,67.16402,94,57,0
67.05839,67.16402,87,45,0
67.75478,67.858955,99,60,0
67.89368,67.99784,87,55,0
68.58812,68.69229,99,61,0
68.72701,68.83118,87,56,0
69.42028,69.5236,99,64,0
69.558,69.66122,87,57,0
69.969696,70.07207,99,67,0
70.10616,70.208435,87,62,0
70.51412,70.61558,99,70,0
70.64936,70.75071,87,62,0
71.05365,71.1542,99,71,0
71.18767,71.28679,81,71,0
71.319824,71.4189,99,72,0
71.4518,71.550476,82,72,0
71.583374,71.68172,99,72,0
71.71446,71.812645,83,73,0
71.84525,71.94304,99,75,0
71.97551,72.07278,84,75,0
72.10511,72.20187,99,76,0
72.23406,72.33032,85,77,0
72.36237,72.458145,99,79,0
72.490005,72.58534,86,79,0
72.61713,72.71246,99,80,0
72.74424,72.839584,87,81,0
72.87136,72.9667,99,81,0
72.99848,73.09382,87,81,0
73.125595,73.22094,99,82,0
73.252716,73.34805,87,81,0
73.37984,73.47602,99,81,0
73.508415,73.60595,87,79,0
73.63856,73.736725,99,81,0
73.76961,73.86849,87,76,0
73.90153,74.00065,99,72,0
74.03369,74.132805,87,61,0
74.16585,74.26497,99,62,0
74.298004,74.401695,87,61,0
74.57018,74.67063,87,61,0
74.43626,74.70411,75,59,0
74.70411,74.80456,99,61,0
74.838036,74.94221,87,61,0
75.110855,75.2113,87,55,0
74.97693,75.24478,75,59,0
75.24478,75.34523,99,55,0
75.378716,75.4824,87,55,0
75.51696,75.61677,75,61,0
75.6501,75.7501,87,55,0
75.78343,75.88343,99,47,0
75.91676,76.01677,87,47,0
76.18294,76.2825,87,47,0
76.0501,76.31568,75,55,0
76.31568,76.415245,99,47,0
76.448425,76.54799,87,47,0
76.58117,76.67732,75,47,0
76.70937,76.80553,87,47,0
76.83758,76.936264,99,47,0
76.96916,77.06785,87,49,0
77.10074,77.20164,75,51,0
77.23527,77.33617,87,51,0
77.3698,77.46678,99,54,0
77.49911,77.59609,87,54,0
77.62842,77.72754,75,54,0
77.760574,77.859695,87,55,0
77.89274,77.99185,99,57,0
78.024895,78.124016,87,57,0
78.15705,78.25705,75,60,0
78.29038,78.39039,87,60,0
78.42372,78.52372,99,60,0
78.55705,78.65705,87,59,0
78.690384,78.79128,75,59,0
78.82491,78.92581,87,57,0
78.95944,79.05856,99,57,0
79.091606,79.19072,87,57,0
79.22376,79.32288,75,56,0
79.35592,79.45504,87,56,0
79.488075,79.5872,99,54,0
79.62024,79.71935,87,54,0
79.752396,79.85152,75,54,0
79.88455,79.98367,87,54,0
80.01671,80.11583,99,54,0
80.14887,80.247986,87,52,0
80.28103,80.38015,75,52,0
80.413185,80.51231,87,51,0
80.54535,80.64535,99,47,0
80.67868,80.77868,87,47,0
80.81201,80.913826,75,46,0
80.94776,81.04957,87,45,0
81.0835,81.188156,99,45,0
81.22304,81.32769,87,44,0
81.36258,81.46921,75,47,0
81.50475,81.61139,87,47,0
81.646935,81.75357,99,47,0
81.789116,81.89575,87,47,0
81.9313,82.033104,75,47,0
82.06704,82.17218,87,47,0
82.21929,82.31798,99,47,0
82.35087,82.449554,87,47,0
82.6134,82.711655,87,47,0
82.4824,82.74441,75,55,0
82.74441,82.84266,99,47,0
82.87541,82.97366,87,47,0
82.99441,83.091385,75,47,0
83.12371,83.220695,87,47,0
83.25302,83.352585,99,47,0
83.385765,83.48533,87,49,0
83.51851,83.61925,75,51,0
83.66521,83.766106,87,51,0
83.78741,83.88674,99,54,0
83.919785,84.0189,87,54,0
84.05194,84.15106,75,54,0
84.1841,84.28322,87,55,0
84.31625,84.415375,99,57,0
84.44842,84.54753,87,57,0
84.580574,84.680466,75,60,0
84.7138,84.8138,87,60,0
84.84713,84.947136,99,60,0
84.98047,85.08047,87,59,0
85.24822,85.34911,87,57,0
85.1138,85.38275,75,59,0
85.51512,85.647285,87,54,0
85.38275,85.647285,76,54,0
85.77944,85.9116,87,50,0
85.647285,85.9116,75,50,0
86.043755,86.179504,87,50,0
85.9116,86.179504,73,50,0
86.321686,86.46387,87,54,0
86.179504,86.46387,75,59,0
86.46387,86.5705,80,54,0
86.60604,86.70926,83,54,0
86.874664,87.027725,99,54,0
86.74366,87.027725,87,60,0
87.173355,87.318985,87,54,0
87.027725,87.318985,75,59,0
87.318985,87.42821,79,54,0
87.464615,87.573845,82,54,0
87.76409,87.91485,99,54,0
87.61025,87.91485,87,60,0
88.47947,88.52513,75,49,0
88.57059,88.61574,87,49,0
88.66144,88.712456,87,49,0
88.76318,88.81353,87,52,0
88.86353,88.91333,87,52,0
88.96272,89.011734,99,52,0
89.06052,89.10901,87,52,0
89.15715,89.2049,87,52,0
89.25249,89.29988,99,52,0
89.347275,89.39467,85,52,0
89.44206,89.489456,85,52,0
89.53685,89.58424,97,52,0
89.63151,89.6778,83,54,0
89.7241,89.77039,83,54,0
89.816696,89.86299,95,54,0
89.90929,89.95558,83,54,0
90.00188,90.04817,83,54,0
90.09447,90.14077,95,54,0
90.187065,90.232315,82,52,0
90.27756,90.32281,82,52,0
90.36806,90.41331,94,52,0
90.45856,90.504425,80,54,0
90.5503,90.59617,80,54,0
90.642044,90.68791,92,54,0
90.73379,90.778625,79,52,0
90.82347,90.86832,79,52,0
90.913155,90.958,91,52,0
91.002846,91.047485,80,52,0
91.09213,91.13677,80,52,0
91.18142,91.22606,92,52,0
91.2707,91.31679,82,54,0
91.36287,91.40895,82,54,0
91.45503,91.501114,94,54,0
91.547195,91.593285,75,50,0
91.639366,91.68545,75,50,0
91.73153,91.77761,87,47,0
91.8237,91.86894,75,47,0
91.91419,91.95944,75,47,0
92.00469,92.04994,87,47,0
92.09519,92.13983,76,50,0
92.18448,92.22912,76,50,0
92.27376,92.318405,88,50,0
92.363045,92.40769,75,47,0
92.45233,92.49697,75,47,0
92.54162,92.58626,87,47,0
92.630905,92.675545,73,47,0
92.72019,92.76483,73,47,0
92.80947,92.85412,85,47,0
92.89876,92.943405,71,50,0
92.988045,93.03269,71,50,0
93.07733,93.12197,83,50,0
93.16662,93.21126,71,47,0
93.255905,93.300545,71,47,0
93.34519,93.38983,83,47,0
93.43447,93.47912,70,47,0
93.52376,93.568405,70,47,0
93.61345,93.65849,82,47,0
93.70354,93.74962,68,49,0
93.79571,93.84179,68,49,0
93.88787,93.93395,80,49,0
93.980034,94.026764,67,47,0
94.073494,94.120224,67,47,0
94.166954,94.213684,79,47,0
94.26041,94.30849,68,47,0
94.35656,94.40464,68,47,0
94.45272,94.50079,80,47,0
94.548874,94.59789,70,50,0
94.64691,94.69593,70,50,0
94.74495,94.79372,82,50,0
94.84232,94.891106,63,47,0
94.940125,94.98934,63,47,0
95.03885,95.088554,75,43,0
95.13845,95.18852,75,45,0
95.238945,95.28955,75,45,0
95.34032,95.39121,75,45,0
95.442375,95.49237,87,52,0
95.54237,95.59238,87,52,0
95.64237,95.69222,99,52,0
95.741486,95.79053,87,52,0
95.839386,95.88807,87,52,0
95.93658,95.984886,99,52,0
96.03299,96.080925,85,52,0
96.12869,96.17629,85,52,0
96.22369,96.27089,97,52,0
96.31793,96.36468,83,54,0
96.41141,96.45814,83,54,0
96.50487,96.5516,95,54,0
96.59833,96.64505,83,54,0
96.69178,96.73851,83,54,0
96.78524,96.83197,95,54,0
96.8787,96.923744,82,52,0
96.96879,97.01383,82,52,0
97.058876,97.10393,94,52,0
97.14897,97.19527,80,54,0
97.24156,97.28786,80,54,0
97.33415,97.38045,92,54,0
97.42675,97.47139,79,52,0
97.51603,97.56068,79,52,0
97.605316,97.64996,91,52,0
97.6946,97.73885,80,52,0
97.7831,97.82735,80,52,0
97.8716,97.91584,92,52,0
97.96009,98.00555,82,54,0
98.051,98.09645,82,54,0
98.14191,98.18736,94,54,0
98.23282,98.278275,75,50,0
98.32373,98.36918,75,50,0
98.414635,98.46009,87,47,0
98.50555,98.55039,75,49,0
98.59523,98.640076,75,49,0
98.68492,98.72976,87,49,0
98.774605,98.81965,76,52,0
98.86469,98.90974,76,52,0
98.95478,98.99983,88,52,0
99.044876,99.08992,75,50,0
99.134964,99.18001,75,50,0
99.22505,99.2701,87,50,0
99.31515,99.35959,73,47,0
99.40404,99.44848,73,47,0
99.49292,99.53737,85,47,0
99.58171,99.62538,75,46,0
99.66905,99.712715,75,46,0
99.756386,99.80006,87,47,0
99.84372,99.88739,76,47,0
99.93106,99.974724,76,49,0
100.0182,100.06168,87,49,0
100.10516,100.148636,77,50,0
100.192116,100.235596,77,50,0
100.279076,100.322556,87,51,0
100.36603,100.40932,78,51,0
100.452614,100.4959,78,52,0
100.53919,100.58248,87,52,0
100.62577,100.66906,79,54,0
100.71235,100.75564,79,54,0
100.798744,100.84185,87,54,0
100.88495,100.928055,80,55,0
100.97116,101.01426,80,55,0
101.057365,101.10047,87,56,0
101.14357,101.18673,81,56,0
101.23002,101.27331,81,55,0
101.316605,101.35999,87,55,0
101.403465,101.446945,82,55,0
101.490425,101.53404,82,55,0
101.577705,101.621376,87,55,0
101.66515,101.709015,83,55,0
101.75288,101.79674,83,55,0
101.840744,101.884796,87,55,0
101.92885,101.9729,84,54,0
102.01715,102.06139,84,54,0
102.105644,102.14993,87,54,0
102.194374,102.23882,85,52,0
102.28327,102.32792,85,52,0
102.37256,102.417206,87,51,0
102.4619,102.50674,86,50,0
102.55158,102.59643,86,50,0
102.64136,102.68641,87,49,0
102.73145,102.77669,87,47,0
102.82208,102.867744,87,47,0
102.9136,102.95969,99,46,0
103.006004,103.05252,88,45,0
103.09933,103.14629,88,45,0
103.193565,103.241005,99,45,0
103.28875,103.33667,89,44,0
103.3849,103.433304,89,44,0
103.48203,103.53094,99,43,0
103.58029,103.630196,90,41,0
103.68079,103.73199,90,41,0
103.78392,103.83651,99,40,0
103.88975,103.94385,91,39,0
103.99861,104.05411,91,39,0
104.11031,104.16747,99,37,0
104.2254,104.2841,92,36,0
104.34387,104.40446,92,36,0
104.46597,104.528496,99,36,0
105.598885,105.74475,70,43,0
105.45254,105.74475,71,41,0
105.74475,105.85391,69,44,0
105.74475,105.85391,71,37,0
105.890144,105.99884,68,45,0
105.890144,105.99884,71,39,0
106.03496,106.14313,67,45,0
106.03496,106.14313,71,40,0
106.179184,106.28696,66,46,0
106.179184,106.28696,71,41,0
106.322845,106.43033,65,47,0
106.322845,106.43033,71,43,0
106.46604,106.57789,64,49,0
106.46604,106.57789,71,44,0
106.61565,106.69344,73,57,0
106.69344,106.77125,71,50,0
106.77125,106.849045,70,50,0
106.849045,106.92685,71,50,0
107.004654,107.07467,78,50,0
107.08245,107.15247,78,50,0
107.160255,107.23027,78,50,0
106.92685,107.23805,66,54,0
107.31586,107.38587,83,50,0
107.393654,107.46368,83,50,0
107.47146,107.54147,83,50,0
107.23805,107.549255,71,54,0
107.629555,107.70183,85,51,0
107.709854,107.78213,85,51,0
107.79015,107.86243,85,51,0
107.549255,107.87045,73,54,0
107.952965,108.02722,90,51,0
108.03547,108.109726,90,51,0
108.11798,108.19224,90,51,0
107.87045,108.200485,78,54,0
108.3149,108.421555,90,52,0
108.3149,108.421555,97,52,0
108.433914,108.545166,90,54,0
108.433914,108.545166,97,54,0
108.200485,108.557526,85,54,0
108.66346,108.7588,90,54,0
108.66346,108.7588,99,54,0
108.769394,108.86473,90,54,0
108.769394,108.86473,99,54,0
108.557526,108.87532,87,56,0
108.87532,109.02996,83,54,0
109.39403,109.53509,74,43,0
109.25252,109.53509,75,41,0
109.53509,109.64067,73,44,0
109.53509,109.64067,75,37,0
109.67572,109.78085,72,45,0
109.67572,109.78085,75,39,0
109.8159,109.920555,71,45,0
109.8159,109.920555,75,40,0
109.95544,110.05982,70,46,0
109.95544,110.05982,75,41,0
110.09454,110.198654,69,47,0
110.09454,110.198654,75,43,0
110.233215,110.342445,68,49,0
110.233215,110.342445,75,44,0
110.37751,110.455315,77,56,0
110.455315,110.53311,75,50,0
110.53311,110.610916,74,50,0
110.610916,110.68871,75,50,0
110.76652,110.83654,82,50,0
110.84432,110.91434,82,50,0
110.92212,110.99214,82,50,0
110.68871,110.99992,70,54,0
111.07772,111.14774,87,50,0
111.155525,111.22554,87,50,0
111.23332,111.303345,87,50,0
110.99992,111.31113,75,54,0
111.39057,111.462074,89,51,0
111.470024,111.54153,89,51,0
111.54947,111.62097,89,51,0
111.31113,111.62892,77,54,0
111.71053,111.78398,94,51,0
111.792145,111.86559,94,51,0
111.87375,111.947205,94,51,0
111.62892,111.95536,82,54,0
112.06848,112.173004,94,52,0
112.06848,112.173004,101,52,0
112.185,112.29291,94,54,0
112.185,112.29291,101,54,0
111.95536,112.3049,89,54,0
112.41614,112.51625,94,54,0
112.41614,112.51625,102,54,0
112.527374,112.62748,94,54,0
112.527374,112.62748,102,54,0
112.3049,112.6386,90,56,0
112.6386,112.79324,87,54,0
113.15246,113.293526,77,43,0
113.01095,113.293526,78,41,0
113.293526,113.39911,76,44,0
113.293526,113.39911,78,37,0
113.43415,113.53929,75,45,0
113.43415,113.53929,78,39,0
113.57434,113.67899,74,45,0
113.57434,113.67899,78,40,0
113.713875,113.81826,73,46,0
113.713875,113.81826,78,41,0
113.85298,113.95709,72,47,0
113.85298,113.95709,78,43,0
113.99165,114.100876,71,49,0
113.99165,114.100876,78,44,0
114.13595,114.21375,80,56,0
114.21375,114.29155,78,50,0
114.29155,114.369354,77,50,0
114.369354,114.44715,78,50,0
114.524956,114.59498,85,50,0
114.60275,114.672775,85,50,0
114.68056,114.75058,85,50,0
114.44715,114.758354,73,54,0
114.83616,114.90618,90,50,0
114.913956,114.98398,90,50,0
114.99176,115.06178,90,50,0
114.758354,115.06956,78,54,0
115.14736,115.217384,92,51,0
115.22516,115.29518,92,51,0
115.30296,115.37406,92,51,0
115.06956,115.3823,80,54,0
115.48729,115.58313,92,54,0
115.48729,115.58313,97,54,0
115.59388,115.69135,92,54,0
115.59388,115.69135,97,54,0
115.3823,115.70229,85,54,0
115.70229,115.80148,92,54,0
115.70229,115.80148,97,54,0
115.81261,115.91654,97,52,0
115.81261,115.91654,92,52,0
115.93015,116.056335,97,54,0
115.93015,116.056335,92,54,0
116.07052,116.14713,97,40,0
116.14713,116.22374,99,40,0
116.07052,116.22374,94,40,0
116.22374,116.30035,97,39,0
116.30035,116.37695,99,37,0
116.22374,116.37695,93,39,0
116.37695,116.449844,97,37,0
116.449844,116.52273,99,36,0
116.37695,116.52273,92,37,0
116.52273,116.59561,97,36,0
116.59561,116.66693,99,36,0
116.52273,116.66693,91,36,0
116.66693,116.73676,97,35,0
116.73676,116.806595,99,35,0
116.806595,116.877686,97,34,0
116.877686,116.94878,99,34,0
116.66693,116.94878,90,35,0
116.94878,117.023476,95,37,0
117.023476,117.09818,97,37,0
116.94878,117.09818,92,37,0
117.09818,117.17288,95,36,0
117.17288,117.246155,97,36,0
117.09818,117.246155,91,36,0
117.246155,117.31869,95,36,0
117.31869,117.39122,97,36,0
117.246155,117.39122,90,36,0
117.39122,117.46376,95,35,0
117.46376,117.53629,97,35,0
117.39122,117.53629,89,35,0
117.53629,117.606125,95,34,0
117.606125,117.67596,97,34,0
117.67596,117.75103,95,33,0
117.75103,117.8261,97,33,0
117.53629,117.8261,87,34,0
117.8261,117.90007,94,37,0
117.90007,117.97404,95,37,0
117.8261,117.97404,90,37,0
117.97404,118.048,94,36,0
118.048,118.12196,95,36,0
117.97404,118.12196,89,36,0
118.12196,118.1938,94,36,0
118.1938,118.26564,95,36,0
118.12196,118.26564,87,36,0
118.26564,118.33748,94,36,0
118.33748,118.409325,95,35,0
118.26564,118.409325,86,36,0
118.409325,118.478195,94,35,0
118.478195,118.547066,95,34,0
118.547066,118.621765,94,34,0
118.621765,118.696465,95,32,0
118.409325,118.696465,85,35,0
118.696465,118.769,92,37,0
118.769,118.84153,94,37,0
118.696465,118.84153,89,37,0
118.84153,118.91406,92,36,0
118.91406,118.98495,94,36,0
118.84153,118.98495,87,36,0
118.98495,119.0561,92,35,0
119.0561,119.12726,94,34,0
118.98495,119.12726,86,35,0
119.12726,119.19842,92,33,0
119.19842,119.26958,94,32,0
119.12726,119.26958,85,33,0
119.26958,119.34176,92,32,0
119.34176,119.41394,87,36,0
119.41394,119.48755,88,39,0
119.48755,119.56115,89,41,0
119.26958,119.56115,83,32,0
119.56115,119.63091,90,43,0
119.63091,119.70068,92,43,0
119.70068,119.77045,90,43,0
119.77045,119.84022,92,43,0
119.91097,119.98173,90,45,0
119.98173,120.05248,92,45,0
120.05248,120.12324,90,45,0
119.84022,120.12324,78,59,0
120.19399,120.26475,91,47,0
120.26475,120.3355,92,47,0
120.3355,120.40626,91,47,0
120.12324,120.40626,79,60,0
120.477684,120.54911,92,51,0
120.54911,120.620544,93,51,0
120.620544,120.69197,92,50,0
120.40626,120.69197,80,63,0
120.69197,120.764435,93,50,0
120.764435,120.837135,92,49,0
120.837135,120.910065,93,49,0
120.910065,120.98335,92,47,0
120.98335,121.04218,93,47,0
121.04218,121.10122,92,46,0
121.10122,121.160355,93,46,0
121.160355,121.219765,92,45,0
121.219765,121.27917,93,45,0
121.27917,121.35947,92,45,0
121.35947,121.439766,93,45,0
121.439766,121.52007,92,45,0
121.52007,121.60037,93,45,0
121.60037,121.67659,92,51,0
121.67659,121.75281,93,51,0
121.75281,121.829025,92,51,0
121.60037,121.829025,102,61,0
121.829025,121.90525,93,51,0
121.90525,121.98147,92,47,0
121.98147,122.057686,93,47,0
122.057686,122.1339,92,47,0
121.90525,122.1339,100,60,0
122.1339,122.20648,93,47,0
122.20648,122.279015,92,51,0
122.279015,122.35155,93,51,0
122.35155,122.42408,92,51,0
122.20648,122.42408,99,61,0
122.42408,122.49662,93,51,0
122.49662,122.569626,92,47,0
122.569626,122.643105,93,47,0
122.643105,122.71719,92,47,0
122.49662,122.71719,97,57,0
122.71719,122.79177,93,46,0
122.79177,122.86697,92,46,0
122.86697,122.9428,93,46,0
122.9428,123.024864,92,45,0
122.79177,123.024864,99,55,0
123.024864,123.10692,93,45,0
123.10692,123.18125,92,46,0
123.18125,123.25558,93,46,0
123.25558,123.32991,92,45,0
123.10692,123.32991,100,56,0
123.32991,123.40424,93,45,0
123.40424,123.56836,97,51,0
123.40424,123.56836,92,51,0
123.81109,123.8897,91,47,0
123.8897,123.96832,93,47,0
123.96832,124.046936,91,47,0
123.73247,124.046936,79,60,0
124.1209,124.19486,90,51,0
124.19486,124.26883,92,51,0
124.26883,124.3428,90,50,0
124.046936,124.3428,78,63,0
124.3428,124.41725,92,50,0
124.41725,124.492195,90,49,0
124.492195,124.56778,92,49,0
124.56778,124.64387,90,47,0
124.64387,124.70521,92,47,0
124.70521,124.766914,90,46,0
124.766914,124.828995,92,46,0
124.828995,124.89146,90,45,0
124.89146,124.95429,92,45,0
124.95429,125.033325,90,45,0
125.033325,125.11235,92,45,0
125.11235,125.19138,90,45,0
125.19138,125.27042,92,45,0
125.27042,125.34586,90,51,0
125.34586,125.42132,92,51,0
125.42132,125.49677,90,51,0
125.27042,125.49677,100,61,0
125.49677,125.57223,92,51,0
125.57223,125.647675,90,47,0
125.647675,125.72313,92,47,0
125.72313,125.798584,90,47,0
125.57223,125.798584,99,60,0
125.798584,125.8709,92,47,0
125.8709,125.943436,90,51,0
125.943436,126.01644,92,51,0
126.01644,126.089806,90,51,0
125.8709,126.089806,97,61,0
126.089806,126.16365,92,51,0
126.16365,126.237854,90,47,0
126.237854,126.31268,92,47,0
126.31268,126.387886,90,47,0
126.16365,126.387886,95,57,0
126.387886,126.46359,92,46,0
126.46359,126.53968,90,46,0
126.53968,126.616425,92,46,0
126.616425,126.699844,90,45,0
126.46359,126.699844,97,55,0
126.699844,126.78327,92,45,0
126.78327,126.85835,90,46,0
126.85835,126.933426,92,46,0
126.933426,127.0085,90,46,0
126.78327,127.0085,99,56,0
127.0085,127.08357,92,46,0
127.08357,127.24417,95,51,0
127.08357,127.24417,90,51,0
127.48052,127.55752,86,47,0
127.55752,127.63452,87,47,0
127.63452,127.711525,86,47,0
127.40352,127.711525,74,57,0
127.78853,127.86553,87,51,0
127.86553,127.94253,88,50,0
127.94253,128.01953,87,50,0
127.711525,128.01953,75,57,0
128.01953,128.0982,88,49,0
128.0982,128.1777,87,49,0
128.1777,128.25821,88,47,0
128.25821,128.33958,87,47,0
128.33958,128.42201,88,46,0
128.42201,128.50534,87,46,0
128.50534,128.59517,88,45,0
128.59517,128.6767,87,45,0
128.6767,128.73476,88,43,0
128.73476,128.7926,87,44,0
128.7926,128.85036,86,45,0
128.85036,128.90784,87,45,0
128.90784,128.9653,88,46,0
128.9653,129.02257,89,47,0
129.02257,129.07973,90,49,0
129.07973,129.13663,91,49,0
129.13663,129.19351,92,51,0
129.19351,129.2502,93,52,0
129.2502,129.30678,94,54,0
129.30678,129.36313,95,55,0
129.36313,129.41943,96,56,0
129.41943,129.47554,97,57,0
129.47554,129.53157,98,59,0
129.53157,129.58736,99,60,0
129.58736,129.64677,100,61,0
129.64677,129.70593,102,60,0
129.70593,129.76526,100,60,0
129.76526,129.82472,99,59,0
129.82472,129.88443,98,57,0
129.88443,129.94424,97,56,0
129.94424,130.0043,96,55,0
130.0043,130.06451,95,54,0
130.06451,130.12488,94,54,0
130.12488,130.1855,93,52,0
130.1855,130.24622,92,51,0
130.24622,130.30719,91,50,0
130.30719,130.36832,90,49,0
130.36832,130.42961,89,47,0
130.42961,130.49115,88,46,0
130.49115,130.80063,87,46,0
130.87524,130.94987,82,47,0
130.94987,131.0245,83,47,0
131.0245,131.09914,82,47,0
130.80063,131.09914,70,57,0
131.17413,131.24913,86,47,0
131.24913,131.32413,87,47,0
131.32413,131.39912,86,47,0
131.09914,131.39912,74,57,0
131.47414,131.54913,87,51,0
131.54913,131.62413,88,50,0
131.62413,131.69913,87,50,0
131.39912,131.69913,75,57,0
131.69913,131.7778,88,49,0
131.7778,131.8573,87,49,0
131.8573,131.9378,88,47,0
131.9378,132.01918,87,47,0
132.01918,132.10161,88,46,0
132.10161,132.18494,87,46,0
132.18494,132.27477,88,45,0
132.27477,132.35603,87,45,0
132.35603,132.41379,88,43,0
132.41379,132.47154,87,44,0
132.47154,132.52905,86,45,0
132.52905,132.58652,87,45,0
132.58652,132.64394,88,46,0
132.64394,132.7011,89,47,0
132.7011,132.75827,90,49,0
132.75827,132.8153,91,49,0
132.8153,132.87218,92,51,0
132.87218,132.92906,93,52,0
132.92906,132.98584,94,54,0
132.98584,133.04242,95,55,0
133.04242,133.09901,96,56,0
133.09901,133.15541,97,57,0
133.15541,133.21172,98,59,0
133.21172,133.26802,99,60,0
133.26802,133.32779,100,61,0
133.32779,133.38754,102,60,0
133.38754,133.44716,100,60,0
133.44716,133.50662,99,59,0
133.50662,133.56635,98,57,0
133.56635,133.62614,97,56,0
133.62614,133.6862,96,55,0
133.6862,133.74641,95,54,0
133.74641,133.80685,94,54,0
133.80685,133.86752,93,52,0
133.86752,133.92838,92,51,0
133.92838,133.98935,91,50,0
133.98935,134.05061,90,49,0
134.05061,134.11197,89,47,0
134.11197,134.1737,88,46,0
134.1737,134.23177,87,43,0
134.23177,134.28961,88,43,0
134.28961,134.34343,87,44,0
134.34343,134.39706,86,45,0
134.39706,134.45058,87,45,0
134.45058,134.50394,88,46,0
134.50394,134.55704,89,47,0
134.55704,134.6101,90,49,0
134.6101,134.66292,91,50,0
134.66292,134.71558,92,51,0
134.71558,134.76813,93,52,0
134.76813,134.8205,94,54,0
134.8205,134.87271,95,55,0
134.87271,134.92474,96,56,0
134.92474,134.97667,97,57,0
134.97667,135.02844,98,59,0
135.02844,135.07999,99,60,0
135.07875,135.13759,100,61,0
135.13759,135.19618,102,60,0
135.19618,135.25453,100,60,0
135.25453,135.31302,99,59,0
135.31302,135.37184,98,57,0
135.37184,135.4309,97,56,0
135.4309,135.49028,96,55,0
135.49028,135.54988,95,54,0
135.54988,135.60983,94,54,0
135.60983,135.67001,93,52,0
135.67001,135.73056,92,51,0
135.73056,135.79132,91,50,0
135.79132,135.85245,90,49,0
135.85245,135.9138,89,47,0
135.9138,135.97552,88,46,0
135.97682,136.03307,87,43,0
136.03307,136.08932,88,43,0
136.08932,136.14174,87,44,0
136.14174,136.19398,86,45,0
136.19398,136.24622,87,45,0
136.24622,136.29823,88,46,0
136.29823,136.3502,89,47,0
136.3502,136.40205,90,49,0
136.40205,136.45378,91,50,0
136.45378,136.50546,92,51,0
136.50546,136.55693,93,52,0
136.55693,136.6084,94,54,0
136.6084,136.65968,95,55,0
136.65968,136.7109,96,56,0
136.7109,136.76202,97,57,0
136.76202,136.813,98,59,0
136.813,136.865,99,60,0
136.865,136.93971,100,67,0
136.93971,137.0144,102,63,0
137.0144,137.08879,100,63,0
137.08879,137.16304,99,63,0
137.16304,137.237,98,67,0
137.237,137.31088,99,63,0
137.31088,137.38449,98,63,0
137.38449,137.45789,97,63,0
137.45789,137.53113,96,67,0
137.53113,137.60419,97,63,0
137.60419,137.67706,96,63,0
137.67706,137.74965,95,63,0
137.74965,137.82217,94,67,0
137.82701,137.89922,95,63,0
137.88838,137.96053,94,63,0
137.9725,138.04434,93,63,0
138.03955,138.11131,92,67,0
138.10416,138.17566,93,63,0
138.18161,138.25291,92,63,0
138.24936,138.32053,91,63,0
138.32883,138.39978,90,62,0
138.39622,138.46706,91,61,0
138.46823,138.53876,90,61,0
138.53288,138.60332,89,61,0
138.6115,138.68166,88,61,0
138.6723,138.7423,90,59,0
138.7423,138.81209,88,59,0
138.82019,138.88971,87,59,0
138.88391,138.95314,86,60,0
138.96121,139.03032,87,56,0
139.02228,139.09114,86,56,0
139.09114,139.15974,85,56,0
139.15747,139.22588,84,59,0
139.23383,139.30208,85,56,0
139.3032,139.37146,84,56,0
139.36919,139.43742,83,56,0
139.4363,139.50453,82,57,0
139.5068,139.57506,83,54,0
139.56822,139.63647,82,54,0
139.63533,139.70358,81,54,0
139.70244,139.77069,80,56,0
139.77069,139.83893,81,54,0
139.84802,139.91628,80,54,0
139.9174,139.98566,79,54,0
139.97769,140.04593,78,55,0
140.0448,140.11304,79,52,0
140.11873,140.18697,78,52,0
140.18015,140.2484,77,52,0
140.24953,140.31778,76,55,0
140.32118,140.38943,78,52,0
140.39398,140.46222,76,52,0
140.46109,140.52933,75,52,0
140.52705,140.59529,74,54,0
140.58961,140.65785,75,51,0
140.6624,140.73065,74,51,0
140.72838,140.79662,73,51,0
140.8023,140.87054,72,54,0
140.866,140.93423,73,50,0
140.93538,141.00362,72,50,0
141.00134,141.06975,71,50,0
141.07434,141.14316,70,52,0
141.142,141.21112,71,49,0
141.21228,141.28162,70,49,0
141.27583,141.34537,69,49,0
141.35002,141.41989,68,51,0
141.42574,141.49585,69,47,0
141.49232,141.56276,68,47,0
141.56627,141.63695,67,47,0
141.62752,141.69847,66,50,0
141.69966,141.77084,67,46,0
141.76846,141.8399,66,46,0
141.85065,141.92256,65,46,0
141.91655,141.98866,64,46,0
141.99464,142.06639,62,46,0
142.05565,142.12709,64,46,0
142.13306,142.20425,63,46,0
142.19832,142.26921,65,46,0
142.27275,142.34329,64,46,0
142.35033,142.42062,66,46,0
142.40894,142.47894,65,46,0
142.48941,142.55905,67,46,0
142.55211,142.62155,66,46,0
142.62039,142.68953,68,46,0
142.69643,142.76523,67,46,0
142.76065,142.82915,69,46,0
142.82686,142.89536,68,46,0
142.89992,142.96841,70,46,0
142.96841,143.03691,69,46,0
143.03462,143.10312,71,46,0
143.10426,143.17276,70,46,0
143.17389,143.24239,72,46,0
143.24239,143.31088,71,46,0
143.3143,143.3828,73,46,0
143.3828,143.4513,72,46,0
143.44788,143.51636,74,46,0
143.5175,143.586,73,46,0
143.58485,143.65335,75,46,0
143.65106,143.71956,74,46,0
143.71727,143.78577,76,46,0
143.79262,143.86111,75,46,0
143.85883,143.92732,77,45,0
143.93074,143.99924,76,45,0
143.99124,144.05974,78,45,0
144.05974,144.12823,77,46,0
144.1328,144.2013,79,47,0
144.20244,144.27094,78,49,0
144.26979,144.33827,80,49,0
144.33485,144.40335,79,50,0
144.40562,144.47412,81,51,0
144.46841,144.53691,80,52,0
144.54604,144.61453,82,54,0
144.61226,144.68074,81,54,0
144.68074,144.74924,83,54,0
144.75038,144.81888,82,55,0
144.82,144.8885,84,56,0
144.88052,144.949,83,57,0
144.95471,145.02321,85,57,0
145.02664,145.09512,84,59,0
145.09627,145.16476,86,60,0
145.1602,145.22868,85,61,0
145.23096,145.29913,87,62,0
145.29005,145.35823,86,63,0
145.36618,145.43437,88,63,0
145.43777,145.50609,87,64,0
145.4981,145.56659,89,65,0
145.57,145.6385,88,66,0
145.63509,145.70358,90,67,0
145.7013,145.77008,89,67,0
145.77008,145.83888,91,69,0
145.84807,145.91687,90,70,0
145.91687,145.9859,92,71,0
145.98476,146.05388,91,72,0
146.04582,146.11494,93,72,0
146.11725,146.18637,92,72,0
146.1829,146.25233,94,73,0
146.25233,146.32178,93,75,0
146.32988,146.39932,95,76,0
146.40164,146.47131,94,77,0
146.46666,146.53644,96,77,0
146.53528,146.60504,95,79,0
146.60504,146.67491,97,80,0
146.67374,146.7451,96,81,0
146.74751,146.8208,98,81,0
146.8208,146.89618,97,81,0
146.89111,146.96161,99,83,0
146.96394,147.03363,98,77,0
147.03941,147.10873,100,83,0
147.10297,147.17189,98,77,0
147.17892,147.25002,99,83,0
147.2512,147.3223,98,79,0
147.3211,147.3922,100,83,0
147.38983,147.46092,98,79,0
147.45618,147.52727,99,83,0
147.53557,147.60666,98,79,0
147.596,147.66708,100,83,0
147.6659,147.73698,98,79,0
147.74644,147.8176,99,81,0
147.814,147.88612,98,75,0
147.88733,147.96089,100,76,0
147.96584,148.04056,98,72,0
148.02803,148.10338,99,72,0
148.1147,148.19061,98,73,0
148.18808,148.26436,100,73,0
148.25926,148.33604,98,73,0
148.33348,148.41063,99,71,0
148.41579,148.49352,98,70,0
148.48962,148.56784,100,67,0
148.56915,148.64795,98,65,0
148.65712,148.73515,99,61,0
148.73,148.8069,100,61,0
148.80817,148.8839,99,61,0
148.87636,148.95107,100,61,0
148.95602,149.02919,99,61,0
149.02798,149.10011,100,62,0
149.1013,149.1724,99,65,0
149.17592,149.24596,100,67,0
149.2425,149.31161,99,71,0
149.31047,149.37938,100,72,0
149.38283,149.45152,99,75,0
149.44923,149.51762,100,79,0
149.51875,149.58693,99,81,0
149.58467,149.65245,100,82,0
149.64795,149.71544,99,84,0
149.72328,149.79033,100,89,0
149.78365,149.85033,99,90,0
149.85588,149.92215,100,90,0
149.92545,149.99141,99,93,0
149.98703,150.05263,100,92,0
150.0559,150.1211,99,96,0
150.11784,150.1827,100,93,0
150.18161,150.24617,99,99,0
150.25047,150.31465,100,94,0
150.31252,150.37662,99,99,0
150.37341,150.43752,100,92,0
150.44499,150.5091,99,99,0
150.50482,150.56892,100,92,0
150.56358,150.62769,99,99,0
150.63089,150.69499,100,99,0
150.69179,150.75589,99,99,0
150.76337,150.82747,100,94,0
150.8296,150.89383,99,99,0
150.88953,150.9541,100,93,0
150.94763,151.01262,99,99,0
151.01588,151.08127,100,93,0
151.078,151.14409,99,99,0
151.15189,151.2196,100,92,0
151.21277,151.28189,99,95,0
151.29123,151.36221,100,92,0
151.36221,151.43588,99,90,0
151.43219,151.50569,100,86,0
151.50691,151.57935,99,82,0
151.58173,151.65309,100,79,0
151.64246,151.71297,99,75,0
151.71413,151.78365,100,72,0
151.79054,151.85934,99,69,0
151.8582,151.927,100,65,0
151.92242,151.99123,99,59,0
151.98894,152.05774,100,54,0
152.05888,152.1277,99,57,0
152.13344,152.2019,100,56,0
152.1985,152.26639,99,56,0
152.26639,152.33426,100,53,0
152.33539,152.40326,99,55,0
152.40666,152.47545,100,52,0
152.477,152.57005,99,47,0
152.57005,152.6631,100,44,0
152.65845,152.75151,99,46,0
152.75305,152.84596,100,44,0
152.84877,152.93294,99,46,0
152.93434,153.01852,100,45,0
153.0073,153.09148,99,46,0
153.09848,153.18262,100,43,0
153.17705,153.25862,99,46,0
153.25726,153.3387,100,44,0
153.34955,153.43098,99,46,0
153.41878,153.5002,100,45,0
153.18126,153.50699,87,57,0
153.50563,153.50699,87,46,0
153.50832,153.58803,99,46,0
153.58403,153.66374,100,46,0
153.66772,153.74742,99,46,0
153.74211,153.82182,100,44,0
153.82048,153.90349,99,46,0
153.82315,153.9895,87,29,0
153.91321,153.99644,100,44,0
153.98674,154.06998,99,46,0
154.07275,154.15599,100,44,0
154.16402,154.24289,99,46,0
154.24158,154.32043,100,44,0
154.1627,154.32043,87,29,0
154.32043,154.3993,99,46,0
154.39667,154.47556,100,46,0
154.47957,154.5597,99,46,0
154.55034,154.63048,100,44,0
154.47159,154.6318,87,29,0
154.63982,154.71996,99,46,0
154.7106,154.79073,100,45,0
154.79474,154.87529,99,46,0
154.79073,154.95183,87,29,0
154.882,154.96257,100,44,0
154.94914,155.0297,99,46,0
155.0297,155.11026,100,45,0
155.11563,155.19452,99,46,0
155.19058,155.26944,100,44,0
155.11697,155.2747,87,29,0
155.27075,155.34962,99,46,0
155.35883,155.43782,100,44,0
155.42717,155.50803,99,46,0
155.50803,155.58902,100,44,0
155.42848,155.59036,87,29,0
155.60117,155.68216,99,47,0
155.66866,155.74965,100,44,0
155.74965,155.83145,99,47,0
155.74965,155.91333,87,30,0
155.83556,155.91742,100,43,0
155.92697,156.00885,99,47,0
156.00067,156.08255,100,44,0
156.09085,156.17409,99,47,0
156.08255,156.24901,87,30,0
156.1727,156.25594,100,45,0
156.2504,156.33363,99,47,0
156.33919,156.42224,100,43,0
156.41548,156.4961,99,47,0
156.49341,156.57396,100,45,0
156.41956,156.58067,87,29,0
156.57127,156.65184,99,47,0
156.65855,156.7391,100,45,0
156.73776,156.82281,99,47,0
156.81998,156.90512,100,47,0
156.7462,156.91646,87,29,0
156.91078,156.99593,99,47,0
156.99025,157.07538,100,45,0
157.0863,157.16644,99,46,0
157.15842,157.23856,100,44,0
157.0823,157.24255,87,29,0
157.24522,157.32536,99,46,0
157.31334,157.39346,100,44,0
157.40143,157.47867,99,46,0
157.48125,157.55849,100,43,0
157.40659,157.56107,87,29,0
157.55591,157.63315,99,46,0
157.62671,157.70395,100,45,0
157.70781,157.78706,99,46,0
157.78178,157.86105,100,44,0
157.70525,157.86371,87,29,0
157.86635,157.94563,99,46,0
157.94034,158.01962,100,43,0
158.03136,158.1082,99,45,0
158.09666,158.17351,100,43,0
158.0288,158.18248,87,29,0
158.18376,158.2606,99,45,0
158.25932,158.33627,100,43,0
158.33762,158.41774,99,45,0
158.41373,158.49387,100,42,0
158.33627,158.49654,87,27,0
158.49654,158.57666,99,45,0
158.56865,158.64877,100,41,0
158.65819,158.73962,99,44,0
158.65683,158.8197,87,27,0
158.73962,158.82106,100,40,0
158.8102,158.89163,99,44,0
158.90385,158.98563,100,41,0
158.98274,159.06934,99,44,0
159.05923,159.14584,100,40,0
158.98274,159.15594,87,27,0
159.15451,159.2411,99,43,0
159.24689,159.33379,100,39,0
159.32338,159.41351,99,43,0
159.31906,159.49925,87,27,0
159.4105,159.50076,100,39,0
159.5143,159.60455,99,41,0
159.59854,159.68875,100,36,0
159.69463,159.78276,99,44,0
159.68428,159.86061,87,25,0
159.77394,159.86208,100,40,0
159.86649,159.95462,99,45,0
159.94727,160.0354,100,40,0
160.0354,160.11845,99,45,0
160.03394,160.19986,87,25,0
160.12259,160.20537,100,42,0
160.21089,160.29367,99,45,0
160.28264,160.36542,100,41,0
160.36955,160.44768,99,46,0
160.44247,160.52052,100,43,0
160.37614,160.5322,87,25,0
160.5309,160.60855,99,46,0
160.59949,160.67712,100,44,0
160.68626,160.76555,99,46,0
160.76688,160.84615,100,43,0
160.6889,160.84747,87,29,0
160.8369,160.91618,99,46,0
160.92015,160.99942,100,43,0
161.00327,161.08011,99,46,0
160.99281,161.14671,87,29,0
161.07115,161.148,100,43,0
161.15184,161.22868,99,46,0
161.2274,161.30424,100,43,0
161.3004,161.37724,99,46,0
161.3798,161.45665,100,43,0
161.3132,161.46689,87,29,0
161.45665,161.5335,99,46,0
161.5335,161.61034,100,43,0
161.61418,161.68948,99,44,0
161.68948,161.76479,100,49,0
161.76479,161.84009,99,49,0
161.84009,161.90785,87,49,0
161.91539,161.98778,87,40,0
161.98778,162.06018,88,40,0
162.06018,162.13257,87,40,0
162.13257,162.20496,75,40,0
162.20496,162.30638,87,40,0
162.30638,162.4078,88,40,0
162.4078,162.50922,87,40,0
162.50922,162.58304,99,47,0
162.58304,162.65686,100,47,0
162.65686,162.73068,99,47,0
162.73068,162.79712,87,47,0
162.80449,162.87585,87,41,0
162.87585,162.94722,88,40,0
162.94722,163.01859,87,40,0
163.01859,163.08994,75,40,0
163.08994,163.19034,87,40,0
163.19034,163.29074,88,40,0
163.29074,163.39114,87,40,0
163.39114,163.46497,99,49,0
163.46497,163.53879,100,49,0
163.53879,163.6126,99,49,0
163.6126,163.67903,87,49,0
163.68642,163.75778,87,40,0
163.75778,163.82915,88,40,0
163.82915,163.9005,87,40,0
163.9005,163.97186,75,40,0
163.97186,164.07146,87,40,0
164.07146,164.17107,88,40,0
164.17107,164.27066,87,40,0
164.27066,164.34183,99,47,0
164.34183,164.41298,100,47,0
164.41298,164.48415,99,47,0
164.48415,164.54819,87,47,0
164.5553,164.62645,87,41,0
164.62645,164.69762,88,41,0
164.69762,164.76877,87,41,0
164.76877,164.83992,75,41,0
164.83992,164.9348,87,41,0
164.9348,165.02968,88,41,0
165.02968,165.12456,87,41,0
165.12456,165.19852,99,45,0
165.19852,165.27249,100,45,0
165.27249,165.34645,99,45,0
165.34645,165.42041,87,45,0
165.42041,165.56342,71,45,0
165.42041,165.56342,80,45,0
165.56342,165.7064,83,41,0
165.56342,165.7064,75,41,0
165.7064,165.94225,80,46,0
165.7064,165.94225,87,46,0
166.02087,166.09631,99,45,0
166.09631,166.17177,100,44,0
166.17177,166.24722,99,44,0
166.24722,166.32268,87,44,0
166.32268,166.47758,70,40,0
166.32268,166.47758,79,40,0
166.47758,166.63249,82,36,0
166.47758,166.63249,73,36,0
166.63249,166.90312,79,40,0
166.63249,166.90312,87,40,0
167.92145,167.99605,87,43,0
167.99605,168.07014,88,43,0
168.07014,168.14366,87,43,0
167.84624,168.14366,75,54,0
168.21667,168.28911,99,46,0
168.14366,168.28911,87,60,0
168.28911,168.36374,100,46,0
168.36374,168.43407,99,46,0
168.50626,168.57845,99,44,0
168.43407,168.57845,87,60,0
168.57845,168.65062,100,44,0
168.65062,168.72281,99,44,0
168.795,168.86717,97,44,0
168.72281,168.86717,85,55,0
168.86717,168.93733,99,44,0
168.93733,169.00749,97,45,0
169.07933,169.15117,95,45,0
169.00749,169.15117,83,59,0
169.15117,169.223,97,45,0
169.223,169.29485,95,46,0
169.3667,169.43854,95,40,0
169.29485,169.43854,83,54,0
169.43854,169.51038,97,41,0
169.51038,169.58221,95,41,0
169.65204,169.72188,94,40,0
169.58221,169.72188,82,55,0
169.72188,169.7917,95,40,0
169.7917,169.86154,94,41,0
169.93372,170.0059,92,41,0
169.86154,170.0059,80,59,0
170.0059,170.0781,94,41,0
170.0781,170.15028,92,41,0
170.22246,170.29465,91,41,0
170.15028,170.29465,79,59,0
170.29465,170.36684,92,41,0
170.36684,170.43901,91,41,0
170.50853,170.57803,92,43,0
170.43901,170.57803,80,63,0
170.57803,170.64754,94,43,0
170.64754,170.71706,92,44,0
170.7889,170.86073,94,51,0
170.86073,170.93257,95,51,0
170.93257,171.00441,94,51,0
170.71706,171.00441,82,67,0
171.07625,171.14809,87,44,0
171.14809,171.21992,88,44,0
171.00441,171.21992,75,59,0
171.21992,171.29176,87,44,0
171.36064,171.4295,87,44,0
171.4295,171.49838,88,44,0
171.49838,171.56725,87,45,0
171.29176,171.56725,75,59,0
171.63708,171.70691,88,45,0
171.70691,171.77675,90,45,0
171.56725,171.77675,76,62,0
171.77675,171.84657,88,45,0
171.91641,171.98624,87,43,0
171.98624,172.05608,88,43,0
171.84657,172.05608,75,56,0
172.05608,172.1259,87,43,0
172.1951,172.26428,85,43,0
172.26428,172.33347,87,43,0
172.1259,172.33347,73,56,0
172.33347,172.40266,85,43,0
172.47282,172.54298,83,43,0
172.54298,172.61313,85,43,0
172.40266,172.64821,71,60,0
172.61313,172.68329,83,43,0
172.75345,172.82361,83,39,0
172.82361,172.89377,85,39,0
172.68329,172.89377,71,54,0
172.89377,172.96393,83,39,0
173.03409,173.10425,82,41,0
173.10425,173.17441,83,41,0
172.96393,173.17441,70,54,0
173.17441,173.24457,82,43,0
173.31343,173.38231,80,45,0
173.38231,173.45117,82,46,0
173.24457,173.45117,68,60,0
173.45117,173.52005,80,46,0
173.58891,173.65779,79,43,0
173.65779,173.72665,80,43,0
173.52005,173.72665,67,54,0
173.72665,173.79553,79,43,0
173.86595,173.93637,80,41,0
173.93637,174.0068,82,41,0
173.79553,174.0068,68,52,0
174.0068,174.07722,80,41,0
174.14934,174.22145,82,43,0
174.22145,174.29356,83,43,0
174.29356,174.36568,82,43,0
174.07722,174.36568,70,54,0
174.44505,174.52441,75,37,0
174.36568,174.52441,63,49,0
174.52441,174.60378,76,37,0
174.60378,174.68314,75,37,0
174.75291,174.82268,87,43,0
174.82268,174.89244,88,43,0
174.89244,174.96222,87,43,0
174.68314,174.96222,75,59,0
175.03198,175.10263,99,52,0
175.10263,175.17725,100,52,0
174.96222,175.17725,87,64,0
175.17725,175.24757,99,52,0
175.31671,175.38583,99,49,0
175.38583,175.45496,100,49,0
175.24757,175.45496,87,63,0
175.45496,175.52408,99,49,0
175.59418,175.66426,97,49,0
175.66426,175.73436,99,49,0
175.52408,175.73436,85,63,0
175.73436,175.80446,97,49,0
175.87202,175.93959,96,50,0
175.93959,176.00716,97,50,0
175.80446,176.00716,84,62,0
176.00716,176.07472,96,50,0
176.14229,176.20985,96,47,0
176.20985,176.27742,97,47,0
176.07472,176.27742,84,60,0
176.27742,176.345,96,47,0
176.41167,176.47833,93,46,0
176.47833,176.545,95,46,0
176.345,176.545,81,59,0
176.545,176.61166,93,46,0
176.67923,176.7468,92,46,0
176.7468,176.81436,93,46,0
176.61166,176.81436,80,62,0
176.81436,176.88193,92,46,0
176.9495,177.01706,92,45,0
177.01706,177.08464,93,45,0
176.88193,177.08464,80,59,0
177.08464,177.1522,92,45,0
177.22101,177.28981,90,41,0
177.28981,177.35863,92,41,0
177.1522,177.35863,78,57,0
177.35863,177.42743,90,41,0
177.4941,177.56076,88,44,0
177.56076,177.62743,90,44,0
177.62743,177.69409,88,44,0
177.42743,177.69409,76,55,0
177.76076,177.82742,85,40,0
177.82742,177.8941,87,40,0
177.8941,177.96077,85,40,0
177.69409,177.96077,73,51,0
178.02655,178.09235,87,41,0
178.09235,178.15813,88,41,0
178.15813,178.22392,87,41,0
177.96077,178.22392,75,54,0
178.29059,178.35725,88,45,0
178.35725,178.42392,90,45,0
178.42392,178.49059,88,45,0
178.22392,178.49059,76,55,0
178.55725,178.62392,87,40,0
178.62392,178.69058,88,40,0
178.69058,178.75725,87,40,0
178.49059,178.75725,75,52,0
178.82393,178.8906,85,37,0
178.8906,178.95726,87,37,0
178.95726,179.02335,85,37,0
178.75725,179.02335,73,49,0
179.01901,179.08395,75,43,0
179.08936,179.1543,87,43,0
179.15753,179.22218,76,44,0
179.22325,179.28792,77,44,0
179.2793,179.34378,78,45,0
179.35022,179.4146,79,45,0
179.41351,179.4777,80,45,0
179.4777,179.54181,81,45,0
179.54501,179.609,82,46,0
179.60368,179.66751,83,47,0
179.67284,179.73654,84,47,0
179.73337,179.79692,85,49,0
179.79057,179.85413,86,49,0
179.85942,179.92271,87,50,0
179.92271,179.98601,88,50,0
179.9839,180.04692,89,51,0
180.05322,180.11626,90,52,0
180.11101,180.17386,91,52,0
180.1749,180.23766,92,54,0
180.23662,180.2992,93,54,0
180.29608,180.35858,94,54,0
180.36066,180.42308,95,54,0
180.42204,180.48428,96,55,0
180.48117,180.54335,97,56,0
180.5515,180.62122,98,57,0
180.61525,180.68497,99,59,0
180.68297,180.74771,102,63,0
180.7517,180.81644,100,62,0
180.81844,180.88316,97,61,0
180.8772,180.94194,94,60,0
180.94392,181.00867,91,57,0
181.00768,181.07242,86,56,0
181.07838,181.14313,87,55,0
181.14014,181.20488,90,61,0
181.20688,181.27162,88,60,0
181.27261,181.33736,85,59,0
181.33437,181.39911,82,57,0
181.4021,181.46684,79,60,0
181.46385,181.5286,76,55,0
181.53357,181.59831,73,54,0
181.59532,181.66006,70,51,0
181.65608,181.72083,67,49,0
181.72879,181.79453,64,47,0
181.79347,181.86464,61,45,0
181.85893,181.93674,58,44,0
181.94423,182.03358,55,41,0
182.33846,182.42392,59,41,0
182.42392,182.50938,63,41,0
182.50938,182.59486,68,41,0
182.85127,182.93639,71,41,0
182.93639,183.02382,75,41,0
183.02382,183.12091,83,45,0
183.12091,183.45644,80,40,0
183.64633,183.74416,71,37,0
183.64633,183.74416,83,37,0
183.77676,183.87459,71,41,0
183.77676,183.87459,83,41,0
183.9072,184.00504,71,45,0
183.9072,184.00504,83,45,0
184.03764,184.13547,83,47,0
184.03764,184.13547,71,47,0
184.16808,184.27034,71,51,0
184.16808,184.27034,83,51,0
184.30444,184.40579,83,66,0
184.43958,184.53783,66,49,0
184.57057,184.66551,78,60,0
184.57057,184.66551,71,50,0
184.69716,184.79672,66,49,0
184.8299,184.92688,83,64,0
184.95921,185.0562,66,49,0
185.08852,185.1855,85,71,0
185.21783,185.31482,66,49,0
185.34714,185.44412,78,64,0
185.34714,185.44412,73,54,0
185.47646,185.576,66,49,0
185.60826,185.7024,85,70,0
185.73378,185.82793,66,50,0
185.8593,185.99263,87,73,0
185.99263,186.08865,66,60,0
186.12048,186.21515,75,60,0
186.24644,186.33934,83,59,0
186.37,186.46146,87,57,0
186.49194,186.5834,95,62,0
186.77014,186.86589,75,37,0
186.77014,186.86589,87,37,0
186.89781,186.99355,75,41,0
186.89781,186.99355,87,41,0
187.02547,187.12122,75,45,0
187.02547,187.12122,87,45,0
187.15312,187.24887,75,47,0
187.15312,187.24887,87,47,0
187.28087,187.37999,75,51,0
187.28087,187.37999,87,51,0
187.41304,187.51215,87,70,0
187.5452,187.64345,70,49,0
187.6762,187.77113,82,60,0
187.6762,187.77113,75,50,0
187.80278,187.90234,70,49,0
187.93552,188.0325,87,70,0
188.06483,188.16182,70,49,0
188.19414,188.29112,89,76,0
188.32346,188.42044,70,49,0
188.45276,188.54974,82,64,0
188.45276,188.54974,77,54,0
188.58208,188.68163,70,49,0
188.71388,188.80803,89,72,0
188.8394,188.93355,70,50,0
188.96492,189.09827,90,79,0
189.09827,189.19427,70,60,0
189.2261,189.32079,78,60,0
189.35207,189.44496,87,59,0
189.47562,189.56708,90,59,0
189.59756,189.68903,99,62,0
189.87576,189.97151,78,37,0
189.87576,189.97151,90,37,0
190.00343,190.09917,78,41,0
190.00343,190.09917,90,41,0
190.13109,190.22684,78,45,0
190.13109,190.22684,90,45,0
190.25874,190.35449,78,47,0
190.25874,190.35449,90,47,0
190.3865,190.48561,78,51,0
190.3865,190.48561,90,51,0
190.51866,190.61778,90,70,0
190.65082,190.74907,73,49,0
190.78181,190.87675,85,60,0
190.78181,190.87675,78,50,0
190.9084,191.00797,73,49,0
191.04114,191.13812,90,70,0
191.17046,191.26744,73,49,0
191.29976,191.39674,92,76,0
191.42908,191.52606,73,49,0
191.55838,191.65536,85,64,0
191.55838,191.65536,80,54,0
191.6877,191.78725,73,49,0
191.8195,191.91365,92,72,0
191.94502,192.03917,73,50,0
192.07082,192.16638,85,44,0
192.07082,192.16638,90,44,0
192.07082,192.16638,94,44,0
192.19838,192.29482,85,47,0
192.19838,192.29482,92,47,0
192.19838,192.29482,95,47,0
192.32729,192.42493,85,52,0
192.32729,192.42493,94,52,0
192.32729,192.42493,97,52,0
192.45747,192.55511,85,52,0
192.45747,192.55511,94,52,0
192.45747,192.55511,97,52,0
192.58766,192.68205,85,50,0
192.58766,192.68205,92,50,0
192.58766,192.68205,95,50,0
192.7135,192.80789,85,47,0
192.7135,192.80789,90,47,0
192.7135,192.80789,94,47,0
192.83936,192.93434,83,46,0
192.83936,192.93434,87,46,0
192.83936,192.93434,92,46,0
192.96613,193.06168,85,50,0
192.96613,193.06168,87,50,0
192.96613,193.06168,94,50,0
193.0936,193.18976,95,54,0
193.0936,193.18976,87,54,0
193.2218,193.31796,87,54,0
193.2218,193.31796,95,54,0
193.35,193.44337,85,47,0
193.35,193.44337,87,47,0
193.35,193.44337,94,47,0
193.47449,193.56786,83,45,0
193.47449,193.56786,87,45,0
193.47449,193.56786,92,45,0
193.59897,193.69286,82,45,0
193.59897,193.69286,85,45,0
193.59897,193.69286,90,45,0
193.72432,193.81912,92,47,0
193.72432,193.81912,85,47,0
193.72432,193.81912,83,47,0
193.8509,193.94666,85,52,0
193.8509,193.94666,94,52,0
193.97856,194.07431,94,52,0
193.97856,194.07431,85,52,0
194.10622,194.19958,92,49,0
194.10622,194.19958,83,49,0
194.10622,194.19958,85,49,0
194.2307,194.32407,82,46,0
194.2307,194.32407,85,46,0
194.2307,194.32407,90,46,0
194.35518,194.44803,89,45,0
194.35518,194.44803,85,45,0
194.35518,194.44803,80,45,0
194.47916,194.57333,82,46,0
194.47916,194.57333,85,46,0
194.47916,194.57333,90,46,0
194.60493,194.70029,92,50,0
194.60493,194.70029,85,50,0
194.60493,194.70029,83,50,0
194.73206,194.8274,92,50,0
194.73206,194.8274,85,50,0
194.73206,194.8274,83,50,0
194.85918,194.95398,85,47,0
194.85918,194.95398,87,47,0
194.85918,194.95398,78,47,0
194.98557,195.08037,80,45,0
194.98557,195.08037,85,45,0
194.98557,195.08037,89,45,0
195.11195,195.3803,78,50,0
195.11195,195.3803,85,50,0
195.11195,195.3803,90,50,0
196.18677,196.27364,68,64,0
196.18677,196.27364,56,64,0
196.3026,196.38947,68,64,0
196.3026,196.38947,56,64,0
196.65009,196.92915,92,71,0
196.65009,196.92915,80,71,0
196.92915,197.01901,102,45,0
196.92915,197.01901,90,45,0
197.04869,197.13776,90,45,0
197.04869,197.13776,102,45,0
197.16745,197.25652,100,45,0
197.16745,197.25652,88,45,0
197.28621,197.37527,88,45,0
197.28621,197.37527,100,45,0
197.40497,197.49515,87,45,0
197.40497,197.49515,99,45,0
197.5252,197.61539,99,45,0
197.5252,197.61539,87,45,0
197.64545,197.73299,97,45,0
197.64545,197.73299,85,45,0
197.76218,197.84972,85,45,0
197.76218,197.84972,97,45,0
197.8789,197.96478,87,45,0
197.8789,197.96478,99,45,0
197.99341,198.07928,87,45,0
197.99341,198.07928,99,45,0
198.10791,198.38365,88,47,0
198.10791,198.38365,100,47,0
199.1817,199.26857,66,64,0
199.1817,199.26857,54,64,0
199.29753,199.3844,66,64,0
199.29753,199.3844,54,64,0
199.64502,199.92151,90,71,0
199.64502,199.92151,78,71,0
199.92151,200.01045,100,45,0
199.92151,200.01045,88,45,0
200.04008,200.12903,88,45,0
200.04008,200.12903,100,45,0
200.15866,200.2476,99,45,0
200.15866,200.2476,87,45,0
200.27724,200.36618,87,45,0
200.27724,200.36618,99,45,0
200.39583,200.48654,85,45,0
200.39583,200.48654,97,45,0
200.51678,200.60751,97,45,0
200.51678,200.60751,85,45,0
200.63776,200.72565,95,45,0
200.63776,200.72565,83,45,0
200.75494,200.84283,83,45,0
200.75494,200.84283,95,45,0
200.87213,200.95801,85,45,0
200.87213,200.95801,97,45,0
200.98663,201.07251,85,45,0
200.98663,201.07251,97,45,0
201.10114,201.34604,87,47,0
201.10114,201.34604,99,47,0
202.11723,202.2041,63,64,0
202.11723,202.2041,51,64,0
202.23306,202.31993,63,64,0
202.23306,202.31993,51,64,0
202.58055,202.83696,87,71,0
202.58055,202.83696,75,71,0
202.83696,202.95003,75,59,0
202.83696,202.95003,87,59,0
202.98772,203.09384,75,60,0
202.98772,203.09384,87,60,0
203.12923,203.23688,75,62,0
203.12923,203.23688,87,62,0
203.27277,203.36497,75,64,0
203.27277,203.36497,87,64,0
203.39615,203.52167,88,64,0
203.39615,203.52167,76,64,0
203.52167,203.64565,87,64,0
203.52167,203.64565,75,64,0
203.64565,203.76808,85,63,0
203.64565,203.76808,73,63,0
203.76808,203.88881,83,62,0
203.76808,203.88881,71,62,0
203.88881,204.0081,82,61,0
203.88881,204.0081,70,61,0
204.0081,204.12598,80,61,0
204.0081,204.12598,68,61,0
204.12598,204.35945,79,60,0
204.12598,204.35945,67,60,0
205.19447,205.28134,63,69,0
205.19447,205.28134,51,69,0
205.3103,205.39717,63,69,0
205.3103,205.39717,51,69,0
205.65779,205.9142,87,76,0
205.65779,205.9142,75,76,0
205.9142,206.03583,87,69,0
205.9142,206.03583,99,69,0
206.07637,206.19234,87,71,0
206.07637,206.19234,99,71,0
206.231,206.356,87,72,0
206.231,206.356,99,72,0
206.39314,206.4978,99,73,0
206.39314,206.4978,87,73,0
206.53268,206.63094,100,73,0
206.53268,206.63094,88,73,0
206.66368,206.75822,99,73,0
206.66368,206.75822,87,73,0
206.78992,206.88498,97,73,0
206.78992,206.88498,85,73,0
206.9165,207.0106,83,72,0
206.9165,207.0106,95,72,0
207.04185,207.135,94,72,0
207.04185,207.135,82,72,0
207.16591,207.25816,80,72,0
207.16591,207.25816,92,72,0
207.28877,207.37938,79,72,0
207.28877,207.37938,91,72,0
207.4095,207.49945,90,72,0
207.4095,207.49945,78,72,0
207.52934,207.61723,77,72,0
207.52934,207.61723,89,72,0
207.64653,207.73273,88,71,0
207.64653,207.73273,76,71,0
207.76147,207.85147,74,71,0
207.76147,207.85147,86,71,0
207.88147,207.96867,87,72,0
207.88147,207.96867,75,72,0
207.99812,208.08707,76,75,0
207.99812,208.08707,88,75,0
208.1167,208.20564,87,75,0
208.1167,208.20564,75,75,0
208.2352,208.32379,73,73,0
208.2352,208.32379,85,73,0
208.35332,208.4419,83,72,0
208.35332,208.4419,71,72,0
208.47134,208.55959,70,72,0
208.47134,208.55959,82,72,0
208.58899,208.67723,80,72,0
208.58899,208.67723,68,72,0
208.70657,208.79424,79,72,0
208.70657,208.79424,67,72,0
208.8233,208.90994,66,71,0
208.8233,208.90994,78,71,0
208.93869,209.02423,77,70,0
208.93869,209.02423,65,70,0
209.05275,209.13734,64,70,0
209.05275,209.13734,76,70,0
209.16547,209.253,74,72,0
209.16547,209.253,62,72,0
209.2822,209.36678,75,73,0
209.2822,209.36678,63,73,0
209.39542,209.48195,76,73,0
209.39542,209.48195,64,73,0
209.5108,209.59734,75,73,0
209.5108,209.59734,63,73,0
209.62617,209.71262,61,73,0
209.62617,209.71262,73,73,0
209.74135,209.82755,71,72,0
209.74135,209.82755,59,72,0
209.8563,209.94249,58,72,0
209.8563,209.94249,70,72,0
209.97122,210.05717,68,72,0
209.97122,210.05717,56,72,0
210.0858,210.17168,55,72,0
210.0858,210.17168,67,72,0
210.2003,210.2862,66,72,0
210.2003,210.2862,54,72,0
210.31474,210.39839,53,72,0
210.31474,210.39839,65,72,0
210.42627,210.5099,64,72,0
210.42627,210.5099,52,72,0
210.5392,210.62885,62,72,0
210.5392,210.62885,50,72,0
210.65872,210.75613,63,72,0
210.65872,210.75613,51,72,0
210.78859,210.88313,64,73,0
210.78859,210.88313,52,73,0
210.91464,211.00357,52,75,0
210.91464,211.00357,63,75,0
211.03322,211.12204,52,76,0
211.03322,211.12204,61,76,0
211.15149,211.23933,52,77,0
211.15149,211.23933,59,77,0
211.26845,211.35544,58,80,0
211.26845,211.35544,53,80,0
211.38428,211.47026,56,81,0
211.38428,211.47026,53,81,0
211.49878,211.72606,55,81,0
211.72606,211.82832,50,81,0
211.72606,211.83969,62,81,0
211.95319,212.05466,51,81,0
211.95319,212.0659,63,81,0
212.17812,212.27876,57,81,0
212.17812,212.28992,69,81,0
212.40125,212.50107,58,81,0
212.40125,212.51215,70,81,0
212.62257,212.7216,62,81,0
212.62257,212.7326,74,81,0
212.84203,212.93996,63,81,0
212.84203,212.95079,75,81,0
213.05876,213.15529,69,81,0
213.05876,213.16597,81,81,0
213.27242,213.36758,70,81,0
213.27242,213.37811,82,81,0
213.48306,213.57692,74,82,0
213.48306,213.5873,86,82,0
213.69081,213.78337,75,83,0
213.69081,213.79361,87,83,0
213.8957,213.98701,81,84,0
213.8957,213.99712,93,84,0
214.09608,214.19952,82,84,0
214.09608,214.21101,94,84,0
214.32596,214.42343,86,92,0
214.32596,214.43427,98,92,0
214.54257,214.64005,87,89,0
214.54257,214.65088,99,89,0
214.75917,214.85425,86,93,0
214.75917,214.8648,98,93,0
214.97758,215.0791,87,86,0
214.97758,215.09038,99,86,0
215.20316,215.30316,86,87,0
215.20316,215.31427,98,87,0
215.42538,215.53648,87,84,0
215.42538,215.53648,99,84,0
215.6476,215.75789,87,84,0
215.6476,215.75789,99,84,0
215.8682,215.97849,87,86,0
215.8682,215.97849,99,86,0
216.08878,216.19907,87,87,0
216.08878,216.19907,99,87,0
216.30936,216.41966,87,89,0
216.30936,216.41966,99,89,0
216.52995,216.64024,87,89,0
216.52995,216.64024,99,89,0
216.75053,216.86057,87,90,0
216.75053,216.86057,99,90,0
216.97119,217.08252,87,90,0
216.97119,217.08252,99,90,0
217.19452,217.30724,87,91,0
217.19452,217.30724,99,91,0
217.42065,217.5348,87,92,0
217.42065,217.5348,99,92,0
217.64967,217.76527,87,92,0
217.64967,217.76527,99,92,0
217.88164,217.99875,87,93,0
217.88164,217.99875,99,93,0
218.13327,218.22702,99,81,0
218.13327,218.22702,87,81,0
218.25827,218.35185,99,77,0
218.25827,218.35185,87,77,0
218.38277,218.47638,99,81,0
218.38277,218.47638,87,81,0
218.50742,218.60014,99,76,0
218.50742,218.60014,87,76,0
218.63087,218.72275,99,79,0
218.63087,218.72275,87,79,0
218.75323,218.84421,99,76,0
218.75323,218.84421,87,76,0
218.87445,218.96461,99,77,0
218.87445,218.96461,87,77,0
218.99454,219.08394,99,76,0
218.99454,219.08394,87,76,0
219.11359,219.19481,99,75,0
219.11359,219.19481,87,75,0
219.2219,219.3034,99,73,0
219.2219,219.3034,87,73,0
219.33058,219.4124,99,73,0
219.33058,219.4124,87,73,0
219.43967,219.52179,99,72,0
219.43967,219.52179,87,72,0
219.54916,219.63129,99,72,0
219.54916,219.63129,87,72,0
219.65865,219.74054,99,70,0
219.65865,219.74054,87,70,0
219.7678,219.84953,99,71,0
219.7678,219.84953,87,71,0
219.87671,219.95822,99,69,0
219.87671,219.95822,87,69,0
219.98534,220.08232,99,76,0
219.98534,220.08232,87,76,0
220.11464,220.21162,99,70,0
220.11464,220.21162,87,70,0
220.2424,220.33116,99,70,0
220.2424,220.33116,87,70,0
220.36075,220.44952,99,70,0
220.36075,220.44952,87,70,0
220.47911,220.56787,99,66,0
220.47911,220.56787,87,66,0
220.59746,220.68622,99,66,0
220.59746,220.68622,87,66,0
220.71558,220.80093,97,63,0
220.71558,220.80093,85,63,0
220.82938,220.91458,97,62,0
220.82938,220.91458,85,62,0
220.94261,221.02667,83,66,0
220.94261,221.02667,95,66,0
221.05469,221.13875,83,66,0
221.05469,221.13875,95,66,0
221.16678,221.25084,83,66,0
221.16678,221.25084,95,66,0
221.27885,221.36292,83,66,0
221.27885,221.36292,95,66,0
221.39093,221.47531,82,62,0
221.39093,221.47531,94,62,0
221.50343,221.58781,82,62,0
221.50343,221.58781,94,62,0
221.61594,221.69844,80,63,0
221.61594,221.69844,92,63,0
221.72594,221.80843,80,63,0
221.72594,221.80843,92,63,0
221.83594,221.91843,79,62,0
221.83594,221.91843,91,62,0
221.94592,222.02843,79,62,0
221.94592,222.02843,91,62,0
222.05592,222.1372,80,62,0
222.05592,222.1372,92,62,0
222.1643,222.24559,80,62,0
222.1643,222.24559,92,62,0
222.27269,222.35548,82,66,0
222.27269,222.35548,94,66,0
222.38309,222.4659,82,66,0
222.38309,222.4659,94,66,0
222.4935,222.57631,75,62,0
222.4935,222.57631,87,62,0
222.60391,222.6867,75,62,0
222.60391,222.6867,87,62,0
222.71431,222.79501,75,62,0
222.71431,222.79501,87,62,0
222.82191,222.9026,75,62,0
222.82191,222.9026,87,62,0
222.9295,223.0105,76,64,0
222.9295,223.0105,88,64,0
223.03749,223.11848,76,64,0
223.03749,223.11848,88,64,0
223.1455,223.22649,75,64,0
223.1455,223.22649,87,64,0
223.25348,223.33447,75,62,0
223.25348,223.33447,87,62,0
223.36147,223.44188,73,62,0
223.36147,223.44188,85,62,0
223.46867,223.54907,73,62,0
223.46867,223.54907,85,62,0
223.57588,223.65717,71,63,0
223.57588,223.65717,83,63,0
223.68427,223.76555,71,63,0
223.68427,223.76555,83,63,0
223.79265,223.87393,71,63,0
223.79265,223.87393,83,63,0
223.90103,223.98232,71,62,0
223.90103,223.98232,83,62,0
224.0094,224.08923,70,63,0
224.0094,224.08923,82,63,0
224.11584,224.19566,70,63,0
224.11584,224.19566,82,63,0
224.22227,224.30298,68,65,0
224.22227,224.30298,80,65,0
224.32988,224.41057,68,65,0
224.32988,224.41057,80,65,0
224.43747,224.5173,67,62,0
224.43747,224.5173,79,62,0
224.5439,224.62373,67,62,0
224.5439,224.62373,79,62,0
224.65034,224.72931,68,63,0
224.65034,224.72931,80,63,0
224.75565,224.83461,68,63,0
224.75565,224.83461,80,63,0
224.86095,224.94223,70,65,0
224.86095,224.94223,82,65,0
224.96933,225.05061,70,64,0
224.96933,225.05061,82,64,0
225.07858,225.16391,75,59,0
225.07858,225.16391,63,59,0
225.19244,225.27872,63,59,0
225.19244,225.27872,75,59,0
225.30786,225.41158,75,63,0
225.30786,225.41158,87,63,0
225.44582,225.54855,75,63,0
225.44582,225.54855,87,63,0
225.5828,225.67854,87,77,0
225.5828,225.67854,99,77,0
225.71046,225.8062,99,77,0
225.71046,225.8062,87,77,0
225.83812,225.93387,87,77,0
225.83812,225.93387,99,77,0
225.96577,226.06152,87,77,0
225.96577,226.06152,99,77,0
226.09344,226.18758,85,75,0
226.09344,226.18758,97,75,0
226.21896,226.31311,97,75,0
226.21896,226.31311,85,75,0
226.34448,226.43633,84,75,0
226.34448,226.43633,96,75,0
226.46693,226.55878,96,75,0
226.46693,226.55878,84,75,0
226.58939,226.68121,96,72,0
226.58939,226.68121,84,72,0
226.71184,226.80367,96,72,0
226.71184,226.80367,84,72,0
226.83427,226.92726,81,71,0
226.83427,226.92726,93,71,0
226.95825,227.05122,93,71,0
226.95825,227.05122,81,71,0
227.08221,227.1715,80,73,0
227.08221,227.1715,92,73,0
227.20126,227.29054,92,73,0
227.20126,227.29054,80,73,0
227.32031,227.40959,80,73,0
227.32031,227.40959,92,73,0
227.43936,227.52864,92,73,0
227.43936,227.52864,80,73,0
227.55841,227.64987,78,76,0
227.55841,227.64987,90,76,0
227.68036,227.77182,90,76,0
227.68036,227.77182,78,76,0
227.8023,228.05655,76,81,0
227.8023,228.05655,88,81,0
228.05655,228.1503,73,54,0
228.05655,228.1503,69,49,0
228.05655,228.1503,64,49,0
228.18155,228.2753,73,54,0
228.18155,228.2753,69,49,0
228.18155,228.2753,64,49,0
228.30655,228.39914,75,56,0
228.30655,228.39914,69,51,0
228.30655,228.39914,64,51,0
228.43001,228.5226,75,56,0
228.43001,228.5226,69,51,0
228.43001,228.5226,64,51,0
228.55345,228.64455,76,62,0
228.55345,228.64455,69,54,0
228.55345,228.64455,64,54,0
228.67491,228.766,76,62,0
228.67491,228.766,69,54,0
228.67491,228.766,64,54,0
228.79637,228.88673,75,60,0
228.79637,228.88673,69,53,0
228.79637,228.88673,64,53,0
228.91685,229.00722,75,60,0
228.91685,229.00722,69,53,0
228.91685,229.00722,64,53,0
229.03734,229.1277,73,55,0
229.03734,229.1277,69,50,0
229.03734,229.1277,64,50,0
229.15782,229.24818,73,55,0
229.15782,229.24818,69,50,0
229.15782,229.24818,64,50,0
229.2783,229.41164,75,52,0
229.2783,229.41164,63,45,0
229.2783,229.41164,68,45,0
229.2783,229.41164,71,45,0
229.41164,229.53163,76,54,0
229.41164,229.53163,64,54,0
229.53163,229.65164,77,54,0
229.53163,229.65164,65,54,0
229.65164,229.77164,78,55,0
229.65164,229.77164,66,55,0
229.77164,229.89163,79,57,0
229.77164,229.89163,67,57,0
229.89163,230.01164,80,59,0
229.89163,230.01164,68,59,0
230.01164,230.13164,81,60,0
230.01164,230.13164,69,60,0
230.13164,230.25163,82,62,0
230.13164,230.25163,70,62,0
230.25163,230.37021,83,63,0
230.25163,230.37021,71,63,0
230.37021,230.48878,84,64,0
230.37021,230.48878,72,64,0
230.48878,230.60721,85,66,0
230.48878,230.60721,73,66,0
230.60721,230.725,86,67,0
230.60721,230.725,74,67,0
230.725,230.84196,87,62,0
230.725,230.84196,75,62,0
230.725,230.84196,79,62,0
230.725,230.84196,82,62,0
230.84196,230.95818,88,71,0
230.84196,230.95818,76,71,0
230.95818,231.07372,89,72,0
230.95818,231.07372,77,72,0
231.07372,231.18843,90,72,0
231.07372,231.18843,78,72,0
231.18843,231.30243,91,75,0
231.18843,231.30243,79,75,0
231.30243,231.41695,92,76,0
231.30243,231.41695,80,76,0
231.41695,231.53436,93,77,0
231.41695,231.53436,81,77,0
231.53436,231.65501,94,79,0
231.53436,231.65501,82,79,0
231.65501,231.77899,95,81,0
231.65501,231.77899,83,81,0
231.77899,231.9063,97,83,0
231.77899,231.9063,85,83,0
231.9063,232.03845,98,86,0
231.9063,232.03845,86,86,0
232.03845,232.17131,99,90,0
232.03845,232.17131,87,90,0
232.18338,232.44286,68,99,0
232.18338,232.44286,63,89,0
232.18338,232.44286,59,89,0
232.69391,232.87411,71,74,0
232.69391,232.87411,75,74,0
232.69391,232.87411,83,89,0
232.93419,233.05276,70,68,0
232.93419,233.05276,75,68,0
232.93419,233.05276,82,80,0
233.05276,233.16995,83,80,0
233.05276,233.16995,71,68,0
233.16995,233.34875,73,75,0
233.16995,233.34875,85,90,0
233.40836,233.52434,71,68,0
233.40836,233.52434,83,80,0
233.40836,233.52434,75,68,0
233.52434,233.64032,70,68,0
233.52434,233.64032,82,80,0
233.64032,233.75438,71,68,0
233.64032,233.75438,75,68,0
233.64032,233.75438,83,81,0
233.75438,233.87422,73,71,0
233.75438,233.87422,85,84,0
233.87422,234.05042,87,91,0
233.87422,234.05042,75,77,0
234.10915,234.22513,73,70,0
234.10915,234.22513,85,83,0
234.22513,234.34111,83,82,0
234.22513,234.34111,71,69,0
234.34111,234.45605,70,68,0
234.34111,234.45605,75,68,0
234.34111,234.45605,82,81,0
234.45605,234.57716,71,68,0
234.45605,234.57716,83,81,0
234.57716,234.75525,85,89,0
234.57716,234.75525,73,74,0
234.81462,234.9306,71,68,0
234.81462,234.9306,83,81,0
234.81462,234.9306,75,68,0
234.9306,235.05219,82,81,0
234.9306,235.05219,70,68,0
235.05219,235.16826,83,89,0
235.05219,235.16826,75,62,0
235.05219,235.16826,71,62,0
235.16826,235.28621,70,59,0
235.16826,235.28621,82,83,0
235.28621,235.52718,68,59,0
235.28621,235.52718,80,83,0
235.52718,235.70526,83,62,0
235.52718,235.70526,87,62,0
235.52718,235.70526,95,89,0
235.76462,235.87914,82,57,0
235.76462,235.87914,87,57,0
235.76462,235.87914,94,81,0
235.87914,235.99945,95,81,0
235.87914,235.99945,83,57,0
235.99945,236.17496,85,64,0
235.99945,236.17496,97,91,0
236.23346,236.34944,83,56,0
236.23346,236.34944,95,79,0
236.23346,236.34944,87,56,0
236.34944,236.46542,82,56,0
236.34944,236.46542,94,79,0
236.46542,236.58215,83,68,0
236.46542,236.58215,87,68,0
236.46542,236.58215,95,81,0
236.58215,236.69667,85,71,0
236.58215,236.69667,97,84,0
236.69667,236.87218,99,91,0
236.69667,236.87218,87,77,0
236.93068,237.04666,85,68,0
236.93068,237.04666,97,80,0
237.04666,237.16264,95,80,0
237.04666,237.16264,83,68,0
237.16264,237.27965,82,68,0
237.16264,237.27965,87,68,0
237.16264,237.27965,94,80,0
237.27965,237.3937,83,68,0
237.27965,237.3937,95,80,0
237.3937,237.56921,97,91,0
237.3937,237.56921,85,77,0
237.62772,237.74245,83,69,0
237.62772,237.74245,95,82,0
237.62772,237.74245,87,69,0
237.74245,237.86133,94,83,0
237.74245,237.86133,82,70,0
237.86133,237.97672,95,91,0
237.86133,237.97672,87,91,0
237.86133,237.97672,83,77,0
237.97672,238.09529,82,70,0
237.97672,238.09529,94,83,0
238.09529,238.34845,80,70,0
238.09529,238.34845,92,83,0
238.34845,238.58875,75,81,0
238.34845,238.58875,71,68,0
238.34845,238.58875,63,68,0
238.58875,238.70473,75,71,0
238.58875,238.70473,70,60,0
238.58875,238.70473,63,60,0
238.70473,238.82782,75,71,0
238.70473,238.82782,71,60,0
238.70473,238.82782,63,60,0
238.82782,239.06812,75,78,0
238.82782,239.06812,73,78,0
238.82782,239.06812,63,66,0
239.06812,239.1841,75,73,0
239.06812,239.1841,71,61,0
239.06812,239.1841,63,61,0
239.1841,239.3082,75,73,0
239.1841,239.3082,70,61,0
239.1841,239.3082,63,61,0
239.3082,239.4288,75,79,0
239.3082,239.4288,71,79,0
239.3082,239.4288,63,67,0
239.4288,239.55447,75,73,0
239.4288,239.55447,70,61,0
239.4288,239.55447,63,61,0
239.55447,239.80104,75,73,0
239.55447,239.80104,68,61,0
239.55447,239.80104,63,61,0
239.82845,240.0201,75,92,0
239.82845,240.0201,80,92,0
239.82845,240.0201,87,108,0
240.08398,240.2091,75,71,0
240.08398,240.2091,70,60,0
240.08398,240.2091,63,60,0
240.2091,240.34264,75,71,0
240.2091,240.34264,71,71,0
240.2091,240.34264,63,60,0
240.34264,240.59291,75,78,0
240.34264,240.59291,73,66,0
240.34264,240.59291,63,66,0
240.59291,240.71501,75,73,0
240.59291,240.71501,71,61,0
240.59291,240.71501,63,61,0
240.71501,240.84727,75,73,0
240.71501,240.84727,70,61,0
240.71501,240.84727,63,61,0
240.84727,240.9756,75,79,0
240.84727,240.9756,71,67,0
240.84727,240.9756,63,67,0
240.9756,241.10393,75,73,0
240.9756,241.10393,70,61,0
240.9756,241.10393,63,61,0
241.10393,241.34077,75,73,0
241.10393,241.34077,68,61,0
241.10393,241.34077,63,61,0
241.3671,241.54405,75,92,0
241.3671,241.54405,80,92,0
241.3671,241.54405,87,108,0
241.60303,241.7147,75,79,0
241.60303,241.7147,71,67,0
241.60303,241.7147,63,67,0
241.7147,241.83357,75,73,0
241.7147,241.83357,70,61,0
241.7147,241.83357,63,61,0
241.83357,242.05579,75,73,0
241.83357,242.05579,68,61,0
241.83357,242.05579,63,61,0
242.08049,242.25667,92,113,0
242.08049,242.25667,80,95,0
242.08049,242.25667,87,95,0
242.3154,242.42712,75,79,0
242.3154,242.42712,71,79,0
242.3154,242.42712,63,67,0
242.42712,242.54462,75,73,0
242.42712,242.54462,70,61,0
242.42712,242.54462,63,61,0
242.54462,242.76236,75,73,0
242.54462,242.76236,68,61,0
242.54462,242.76236,63,61,0
242.78656,242.96072,95,115,0
242.78656,242.96072,83,97,0
242.78656,242.96072,87,97,0
243.01877,243.12926,75,79,0
243.01877,243.12926,71,67,0
243.01877,243.12926,63,67,0
243.12926,243.24963,75,73,0
243.12926,243.24963,70,61,0
243.12926,243.24963,63,61,0
243.24963,243.47357,75,73,0
243.24963,243.47357,68,61,0
243.24963,243.47357,63,61,0
243.5029,244.01442,87,99,0
243.5029,244.01442,92,99,0
243.5029,244.01442,99,117,0
244.01442,244.1646,99,100,0
244.01442,244.1646,92,84,0
244.01442,244.1646,87,84,0
244.18132,244.33234,99,102,0
244.18132,244.33234,92,86,0
244.18132,244.33234,87,86,0
244.34915,244.50029,99,100,0
244.34915,244.50029,92,84,0
244.34915,244.50029,87,84,0
244.51706,244.66733,99,102,0
244.51706,244.66733,92,86,0
244.51706,244.66733,87,86,0
244.68399,244.83339,99,110,0
244.68399,244.83339,92,93,0
244.68399,244.83339,87,93,0
244.8515,245.08757,99,115,0
244.8515,245.08757,92,97,0
244.8515,245.08757,87,97,0
245.56001,245.80293,68,102,0
245.56001,245.80293,63,86,0
245.56001,245.80293,59,86,0
246.28876,247.74625,80,83,0
246.28876,247.74625,92,104,0
246.28876,247.74625,87,99,0
246.28876,247.74625,83,83,0
0.375,0.65625,75,28,0
0.375,0.65625,63,24,0
0.75,1.03125,75,28,0
0.75,1.03125,63,24,0
1.125,1.40625,63,24,0
1.125,1.40625,75,28,0
2.661291,2.935681,75,29,0
2.661291,2.935681,63,24,0
3.0271444,3.3015347,75,29,0
3.0271444,3.3015347,63,24,0
3.392998,3.6673882,63,24,0
3.392998,3.6673882,75,29,0
4.856412,5.130802,63,22,0
4.856412,5.130802,75,27,0
5.9820337,6.3255453,63,21,0
5.9820337,6.3255453,75,25,0
10.518055,10.729706,71,40,0
10.442678,10.729706,63,39,0
10.367302,10.729706,56,37,0
11.39793,11.615322,75,37,0
11.327176,11.615322,68,36,0
11.256421,11.615322,59,35,0
12.290801,12.509035,79,41,0
12.215424,12.509035,70,39,0
12.140047,12.509035,63,36,0
13.195198,13.409484,70,39,0
13.117878,13.409484,67,36,0
14.083927,14.299238,68,43,0
14.978731,15.206069,65,39,0
14.901808,15.206069,62,36,0
14.824884,15.206069,59,36,0
15.904739,16.15064,67,35,0
15.825375,16.15064,63,33,0
17.795012,18.007275,71,40,0
17.719633,18.007275,63,37,0
17.644257,18.007275,56,36,0
18.675417,18.902689,75,41,0
18.603647,18.902689,68,37,0
18.531876,18.902689,59,36,0
19.584509,19.802446,79,41,0
19.50875,19.802446,70,39,0
19.432993,19.802446,63,36,0
20.49537,20.723797,70,39,0
20.416836,20.723797,67,37,0
21.413858,21.626123,71,39,0
21.413858,21.626123,68,35,0
22.287945,22.51132,67,30,0
22.287945,22.51132,73,34,0
22.287945,22.51132,63,30,0
23.180529,23.296038,56,40,0
23.334698,23.451097,63,35,0
23.49008,23.607656,71,35,0
23.647,23.765594,80,35,0
25.036016,25.245695,44,39,0
25.317123,25.539896,51,34,0
25.317123,25.539896,59,37,0
25.921844,26.13315,47,39,0
26.204922,26.432194,63,37,0
26.204922,26.432194,56,34,0
26.810982,27.026546,51,39,0
27.101923,27.328053,67,37,0
27.101923,27.328053,58,34,0
27.71271,27.92842,70,36,0
27.71271,27.92842,67,33,0
28.001947,28.228079,67,33,0
28.001947,28.228079,70,36,0
28.604963,28.823503,68,40,0
28.898504,29.123503,68,40,0
29.506195,29.733534,62,32,0
29.506195,29.733534,65,36,0
29.506195,29.733534,59,32,0
29.809675,30.040056,62,32,0
29.809675,30.040056,65,36,0
29.809675,30.040056,59,32,0
30.42827,30.665113,51,31,0
30.42827,30.665113,67,35,0
32.288185,32.498466,44,39,0
32.56856,32.79356,51,33,0
32.56856,32.79356,59,36,0
33.176254,33.38752,47,39,0
33.457943,33.68637,63,36,0
33.457943,33.68637,56,33,0
34.06708,34.28035,51,39,0
34.35144,34.57757,67,36,0
34.35144,34.57757,58,33,0
34.954247,35.182674,61,31,0
34.954247,35.182674,70,35,0
34.954247,35.182674,68,31,0
35.258816,35.48724,63,31,0
35.258816,35.48724,70,35,0
35.258816,35.48724,68,31,0
35.563385,35.7942,68,31,0
35.563385,35.7942,64,31,0
35.563385,35.7942,70,35,0
35.872734,36.08702,68,35,0
35.872734,36.08702,71,39,0
35.872734,36.08702,63,35,0
36.757378,36.973724,51,30,0
36.757378,36.973724,67,34,0
36.757378,36.973724,61,30,0
37.661488,37.775703,44,45,0
37.813774,37.927986,59,40,0
38.575195,38.690777,83,35,0
38.72944,38.846222,87,35,0
38.88535,39.00315,92,34,0
40.141582,40.36618,71,45,0
40.441044,40.665638,71,47,0
40.740505,40.963936,71,50,0
41.037582,41.25624,71,54,0
41.602497,41.815254,59,31,0
41.602497,41.815254,63,35,0
41.88571,42.098442,54,31,0
41.88571,42.098442,63,31,0
41.88571,42.098442,66,35,0
42.44673,42.65949,58,32,0
42.44673,42.65949,64,36,0
42.729942,42.942337,54,32,0
42.729942,42.942337,64,32,0
42.729942,42.942337,66,36,0
43.290295,43.572117,59,35,0
43.290295,43.572117,63,35,0
43.572117,43.7864,75,45,0
43.85783,44.075222,75,47,0
44.147686,44.365078,75,50,0
44.437542,44.652256,75,54,0
44.995914,45.20627,66,35,0
44.995914,45.20627,63,31,0
45.275715,45.485752,58,31,0
45.275715,45.485752,66,31,0
45.275715,45.485752,70,35,0
45.830776,46.041134,62,32,0
45.830776,46.041134,68,36,0
46.110577,46.319954,58,32,0
46.110577,46.319954,68,32,0
46.110577,46.319954,70,36,0
46.664318,46.94614,66,35,0
46.664318,46.94614,63,31,0
46.94614,47.15941,78,45,0
47.2305,47.443768,78,47,0
47.51486,47.72813,78,50,0
47.799217,48.011185,78,54,0
48.354847,48.5652,66,31,0
48.354847,48.5652,70,35,0
48.634647,48.844025,61,35,0
48.634647,48.844025,73,35,0
48.634647,48.844025,70,31,0
49.188385,49.39874,65,32,0
49.188385,49.39874,71,36,0
49.468185,49.681347,61,32,0
49.468185,49.681347,71,32,0
49.468185,49.681347,73,36,0
49.7549,49.863075,78,46,0
49.89913,50.01163,80,46,0
50.049133,50.337593,82,47,0
49.974133,50.337593,66,47,0
50.337593,50.445766,80,46,0
50.481827,50.589996,78,46,0
50.626057,50.73423,71,46,0
50.770287,50.88058,73,46,0
50.917347,51.205807,75,49,0
50.843815,51.205807,59,49,0
51.205807,51.31398,73,46,0
51.350037,51.45821,71,46,0
51.494267,51.60244,70,46,0
51.6385,51.749336,71,46,0
51.78628,52.074745,73,49,0
51.71239,52.074745,61,49,0
52.074745,52.18292,71,46,0
52.218975,52.32715,70,46,0
52.363205,52.47138,68,46,0
52.507435,52.618824,70,46,0
52.655952,52.944412,71,47,0
52.58169,52.944412,61,47,0
52.944412,53.052586,66,47,0
53.088642,53.200027,68,47,0
53.23716,53.453503,70,49,0
53.23716,53.453503,54,44,0
53.52562,53.634842,66,51,0
53.67125,53.78047,78,51,0
53.816883,53.926105,67,57,0
53.962513,54.071735,79,57,0
54.396606,54.61295,68,47,0
54.396606,54.61295,64,43,0
54.685066,54.901413,68,47,0
54.685066,54.901413,63,43,0
54.973526,55.19165,68,52,0
54.973526,55.19165,61,45,0
55.26554,55.481888,75,47,0
55.554005,55.770348,73,47,0
55.842464,56.05881,72,51,0
55.842464,56.130928,56,45,0
56.130928,56.34727,70,47,0
56.419388,56.638245,72,47,0
56.71287,56.92922,73,51,0
56.71287,57.001335,61,45,0
57.001335,57.217678,76,47,0
57.289795,57.40118,67,57,0
57.43831,57.549698,79,57,0
57.871185,58.084454,66,47,0
57.871185,58.084454,63,43,0
58.155544,58.368816,66,47,0
58.155544,58.368816,61,43,0
58.439903,58.655975,66,52,0
58.439903,58.655975,59,45,0
58.72987,58.940147,73,47,0
59.010242,59.220524,71,47,0
59.290615,59.503887,70,51,0
59.290615,59.574978,54,45,0
59.574978,59.788246,68,47,0
59.859337,60.07614,70,47,0
60.15077,60.367115,71,51,0
60.15077,60.43923,59,45,0
60.43923,60.65558,75,47,0
60.72769,60.834328,62,57,0
60.869873,60.97651,74,52,0
61.293743,61.50803,55,45,0
61.293743,61.50803,63,52,0
61.579456,61.79273,65,52,0
61.579456,61.79273,56,45,0
61.86382,62.07608,67,57,0
61.86382,62.07608,58,52,0
62.146835,62.358105,67,59,0
62.146835,62.358105,58,53,0
62.428528,62.641796,68,59,0
62.428528,62.641796,59,53,0
62.712887,62.92122,70,57,0
62.712887,62.92122,61,52,0
63.268444,63.476456,65,52,0
63.268444,63.476456,62,45,0
63.54496,63.75426,67,55,0
63.54496,63.75426,63,50,0
64.1032,64.20884,74,57,0
64.24405,64.349686,86,52,0
64.66659,64.880875,67,41,0
64.66659,64.880875,75,45,0
64.95207,65.16512,77,45,0
64.95207,65.16512,68,41,0
65.23588,65.447586,79,51,0
65.23588,65.447586,70,45,0
65.51801,65.7284,79,52,0
65.51801,65.7284,70,45,0
65.79849,66.01278,80,52,0
65.79849,66.01278,71,45,0
66.084206,66.29254,81,51,0
66.084206,66.29254,73,45,0
66.63976,66.8481,77,46,0
66.63976,66.8481,74,42,0
66.91754,67.12881,79,46,0
66.91754,67.12881,75,42,0
67.199234,67.3034,74,57,0
67.33812,67.44228,86,52,0
67.47701,67.58118,75,52,0
67.6159,67.72006,87,52,0
68.03256,68.136734,75,56,0
68.171455,68.27562,87,51,0
68.31034,68.41451,76,57,0
68.449234,68.5534,88,54,0
68.8659,68.97007,76,59,0
69.00479,69.108955,88,54,0
69.14368,69.24747,77,62,0
69.282036,69.38572,89,57,0
69.69562,69.79846,78,61,0
69.83271,69.93545,90,56,0
70.24252,70.34444,79,64,0
70.37837,70.48019,91,60,0
70.78449,70.88549,80,70,0
70.91912,71.02002,92,65,0
75.51696,75.71677,63,49,0
75.78343,75.98344,75,54,0
76.31568,76.5148,73,51,0
76.58117,76.773476,71,54,0
76.58117,76.83758,56,42,0
76.83758,77.03495,71,50,0
77.10074,77.302536,70,51,0
77.3698,77.56377,68,54,0
77.3698,77.62842,59,37,0
77.62842,77.82665,67,54,0
77.89274,78.09097,68,57,0
78.15705,78.42372,70,62,0
78.09097,78.42372,67,45,0
78.42372,78.62372,63,54,0
78.690384,78.89218,63,54,0
78.95944,79.157684,64,56,0
78.95944,79.22376,55,44,0
79.22376,79.422,63,52,0
79.488075,79.68632,61,52,0
79.752396,79.92641,59,54,0
79.752396,80.01671,56,44,0
80.01671,80.21495,59,50,0
80.28103,80.47926,58,49,0
80.54535,80.745346,56,54,0
80.47926,80.81201,52,45,0
80.81201,81.01563,55,50,0
81.0835,81.29281,56,47,0
81.36258,81.646935,58,50,0
81.36258,81.646935,55,40,0
81.646935,81.789116,51,45,0
82.13714,82.20723,63,57,0
82.21929,82.41666,75,56,0
82.74441,82.94091,73,51,0
82.99441,83.18837,71,54,0
82.99441,83.25302,56,42,0
83.25302,83.45214,71,50,0
83.51851,83.72014,70,51,0
83.78741,83.98586,68,54,0
83.78741,84.05194,59,37,0
84.05194,84.250175,67,54,0
84.31625,84.514496,68,57,0
84.580574,84.84713,67,40,0
84.580574,84.84713,70,62,0
84.84713,85.047134,63,54,0
85.38275,85.647285,68,40,0
85.38275,85.647285,70,45,0
85.38275,85.647285,61,45,0
85.647285,85.9116,68,37,0
85.647285,85.9116,70,43,0
85.647285,85.9116,63,44,0
85.9116,86.179504,68,37,0
85.9116,86.179504,70,43,0
85.9116,86.179504,64,44,0
86.179504,86.46387,71,50,0
86.179504,86.46387,68,44,0
86.179504,86.46387,63,44,0
87.027725,87.318985,73,46,0
87.027725,87.318985,67,42,0
87.027725,87.318985,63,42,0
87.91485,88.022964,56,52,0
88.05885,88.16566,63,47,0
88.201035,88.306335,71,47,0
88.341225,88.44507,80,47,0
89.63151,89.90929,44,54,0
89.90929,90.04817,51,44,0
89.90929,90.04817,59,50,0
90.187065,90.32281,59,50,0
90.187065,90.32281,51,44,0
90.45856,90.73379,47,54,0
90.73379,90.86832,56,44,0
90.73379,90.86832,63,50,0
91.002846,91.13677,63,50,0
91.002846,91.13677,56,44,0
91.2707,91.547195,51,54,0
91.547195,91.68545,58,43,0
91.547195,91.68545,67,47,0
91.8237,91.95944,58,43,0
91.8237,91.95944,67,47,0
92.09519,92.363045,55,50,0
92.363045,92.49697,63,40,0
92.363045,92.49697,70,45,0
92.630905,92.76483,70,45,0
92.630905,92.76483,63,40,0
92.89876,93.16662,56,47,0
93.16662,93.300545,63,39,0
93.16662,93.300545,68,44,0
93.43447,93.568405,68,44,0
93.43447,93.568405,63,39,0
93.70354,93.980034,59,49,0
93.980034,94.120224,65,41,0
93.980034,94.120224,62,36,0
94.26041,94.40464,65,41,0
94.26041,94.40464,62,36,0
94.548874,94.84232,51,46,0
94.84232,95.13845,58,34,0
94.84232,95.13845,67,37,0
96.31793,96.59833,44,54,0
96.59833,96.73851,51,44,0
96.59833,96.73851,59,50,0
96.8787,97.01383,59,50,0
96.8787,97.01383,51,44,0
97.14897,97.42675,47,54,0
97.42675,97.56068,56,44,0
97.42675,97.56068,63,50,0
97.6946,97.82735,63,50,0
97.6946,97.82735,56,44,0
97.96009,98.23282,51,54,0
98.23282,98.43736,58,35,0
98.23282,98.43736,67,39,0
98.50555,98.70734,70,41,0
98.50555,98.70734,67,36,0
98.774605,98.97731,71,43,0
98.774605,98.97731,68,37,0
99.044876,99.247574,70,40,0
99.044876,99.247574,66,35,0
99.31515,99.515144,68,39,0
99.31515,99.515144,64,35,0
99.58171,99.84372,71,45,0
99.58171,99.84372,63,41,0
99.58171,99.84372,68,41,0
101.14357,101.403465,51,44,0
101.14357,101.403465,61,44,0
101.14357,101.403465,67,50,0
102.73145,103.006004,44,34,0
102.73145,103.006004,68,37,0
102.73145,103.006004,59,34,0
102.73145,103.006004,51,34,0
105.45254,105.598885,68,41,0
105.598885,105.74475,67,43,0
105.74475,105.85391,66,44,0
105.890144,105.99884,65,45,0
106.03496,106.14313,64,45,0
106.179184,106.28696,63,46,0
106.322845,106.43033,62,47,0
106.46604,106.57789,61,49,0
106.92685,107.160255,59,44,0
106.92685,107.160255,63,49,0
107.23805,107.47146,54,44,0
107.23805,107.47146,63,44,0
107.23805,107.47146,66,49,0
107.87045,108.11798,58,42,0
107.87045,108.11798,64,46,0
108.200485,108.46482,58,42,0
108.200485,108.46482,54,42,0
108.200485,108.46482,66,46,0
108.557526,108.795876,47,50,0
108.87532,109.02996,54,41,0
108.87532,109.02996,63,45,0
109.25252,109.53509,71,41,0
109.53509,109.64067,70,44,0
109.67572,109.78085,69,45,0
109.8159,109.920555,68,45,0
109.95544,110.05982,67,46,0
110.09454,110.198654,66,47,0
110.233215,110.342445,65,49,0
110.68871,110.92212,63,44,0
110.68871,110.92212,66,49,0
110.99992,111.23332,58,44,0
110.99992,111.23332,66,44,0
110.99992,111.23332,70,49,0
111.62892,111.87375,62,42,0
111.62892,111.87375,68,46,0
111.95536,112.21497,62,42,0
111.95536,112.21497,58,42,0
111.95536,112.21497,70,46,0
112.3049,112.55518,51,50,0
112.6386,112.79324,58,41,0
112.6386,112.79324,66,45,0
113.01095,113.15246,75,41,0
113.15246,113.293526,74,41,0
113.293526,113.39911,73,44,0
113.43415,113.53929,72,45,0
113.57434,113.67899,71,45,0
113.713875,113.81826,70,46,0
113.85298,113.95709,69,47,0
113.99165,114.100876,68,49,0
114.44715,114.68056,66,44,0
114.44715,114.68056,70,49,0
114.758354,114.99176,61,44,0
114.758354,114.99176,70,44,0
114.758354,114.99176,73,49,0
115.3823,115.6208,65,42,0
115.3823,115.6208,71,46,0
115.70229,115.96463,65,42,0
115.70229,115.96463,61,42,0
115.70229,115.96463,73,46,0
116.07052,116.37695,66,55,0
116.37695,116.48628,82,49,0
116.37695,116.48628,78,44,0
116.52273,116.63206,83,49,0
116.52273,116.63206,80,44,0
116.66693,116.877686,85,52,0
116.66693,116.877686,82,45,0
116.94878,117.246155,59,55,0
117.246155,117.35496,71,44,0
117.246155,117.35496,80,49,0
117.39122,117.50002,73,44,0
117.39122,117.50002,82,49,0
117.53629,117.75103,83,51,0
117.53629,117.75103,75,45,0
117.8261,118.12196,61,55,0
118.12196,118.22972,78,49,0
118.12196,118.22972,70,44,0
118.26564,118.3734,80,49,0
118.26564,118.3734,71,44,0
118.409325,118.621765,82,52,0
118.409325,118.621765,73,45,0
118.696465,118.98495,61,55,0
118.98495,119.09168,68,44,0
118.98495,119.09168,77,49,0
119.12726,119.23399,78,49,0
119.12726,119.23399,70,44,0
119.26958,119.48755,80,51,0
119.26958,119.48755,71,45,0
119.56115,119.84022,66,53,0
119.56115,119.84022,73,53,0
119.56115,119.84022,82,59,0
120.69197,120.95885,80,57,0
120.66816,120.95885,64,41,0
120.98335,121.27917,78,56,0
120.95885,121.27917,63,45,0
121.27917,121.60037,76,54,0
121.27917,121.60037,61,44,0
121.60037,121.829025,87,55,0
121.90525,122.1339,85,55,0
122.20648,122.42408,84,59,0
122.20648,122.49662,68,37,0
122.49662,122.71719,82,55,0
122.79177,123.024864,84,54,0
123.10692,123.32991,85,51,0
123.10692,123.40424,73,39,0
123.40424,123.56836,88,47,0
124.3428,124.64387,78,57,0
124.3428,124.64387,63,41,0
124.64387,124.95429,76,56,0
124.64387,124.95429,61,41,0
124.95429,125.27042,75,54,0
124.95429,125.27042,59,44,0
125.27042,125.49677,85,55,0
125.57223,125.798584,83,55,0
125.8709,126.089806,82,59,0
125.8709,126.16365,66,37,0
126.16365,126.387886,80,55,0
126.46359,126.699844,82,54,0
126.78327,127.0085,83,51,0
126.78327,127.08357,71,39,0
127.08357,127.24417,87,47,0
128.01953,128.33958,75,45,0
128.01953,128.33958,67,40,0
128.01953,128.33958,63,40,0
128.33958,128.6767,74,43,0
128.33958,128.6767,68,37,0
128.33958,128.6767,65,37,0
128.6767,128.98445,73,39,0
128.6767,128.98445,70,35,0
128.6767,128.98445,67,35,0
129.58736,129.88443,76,47,0
129.58736,129.88443,71,43,0
129.58736,129.88443,68,43,0
130.49115,130.80063,79,49,0
130.41429,130.80063,63,39,0
131.69913,132.01918,75,45,0
131.69913,132.01918,67,40,0
131.69913,132.01918,63,40,0
132.01918,132.35603,74,43,0
132.01918,132.35603,68,37,0
132.01918,132.35603,65,37,0
132.35603,132.663,73,39,0
132.35603,132.663,70,35,0
132.35603,132.663,67,35,0
133.26802,133.56635,76,47,0
133.26802,133.56635,71,43,0
133.26802,133.56635,68,43,0
134.1737,134.48106,70,35,0
134.1737,134.48106,63,35,0
134.1737,134.48106,79,39,0
135.07999,135.37308,71,47,0
135.07999,135.37308,56,43,0
135.97682,136.27596,67,39,0
135.97682,136.27596,51,39,0
136.865,137.16304,59,63,0
136.865,137.16304,44,63,0
141.91655,142.20306,61,51,0
141.84467,142.20306,58,41,0
141.77322,142.20306,43,41,0
152.47235,152.75151,75,48,0
152.84456,153.18126,87,51,0
153.50699,153.7461,85,48,0
153.8258,154.07553,83,50,0
153.8258,154.15877,68,30,0
154.15877,154.39536,83,35,0
154.47423,154.7146,82,43,0
154.79474,155.0364,80,40,0
154.79474,155.11697,71,40,0
155.11697,155.35356,79,26,0
155.43242,155.6754,80,41,0
155.7564,156.08391,82,50,0
155.7564,156.08391,79,40,0
156.08391,156.33363,75,28,0
156.41687,156.65855,75,37,0
156.7391,156.9945,76,42,0
156.7391,157.07964,67,42,0
156.7391,157.07964,70,42,0
157.07964,157.32002,75,35,0
157.40015,157.63187,73,29,0
157.7091,157.94695,71,44,0
157.7091,157.94695,68,29,0
158.02623,158.25676,68,35,0
158.02623,158.25676,71,35,0
158.3336,158.57399,70,41,0
158.3336,158.57399,66,27,0
158.65411,158.89842,64,37,0
158.65411,158.89842,68,37,0
158.97986,159.23967,67,28,0
159.32628,159.59703,68,29,0
159.68729,160.03981,70,38,0
159.68729,160.03981,67,26,0
160.03981,160.37094,63,36,0
160.60466,160.6823,63,40,0
160.6823,160.92015,75,50,0
160.99942,161.22997,75,46,0
161.30681,161.53734,73,45,0
161.61418,161.84009,71,54,0
161.61418,161.91539,56,42,0
161.91539,162.13257,71,50,0
162.20496,162.43315,70,51,0
162.50922,162.73068,68,54,0
162.50922,162.80449,59,37,0
162.80449,163.01859,67,50,0
163.08994,163.31584,68,51,0
163.39114,163.68642,70,59,0
163.39114,163.68642,67,44,0
163.68642,163.9005,63,54,0
163.97186,164.19597,63,54,0
164.27066,164.48415,59,45,0
164.27066,164.48415,68,45,0
164.5553,164.76877,60,44,0
164.5553,164.76877,66,43,0
164.83992,165.0534,61,37,0
164.83992,165.0534,64,49,0
165.12456,165.42041,63,59,0
166.02087,166.32268,63,52,0
167.2046,167.31024,63,40,0
167.31024,167.41588,71,40,0
166.99333,167.41588,56,52,0
167.41588,167.64314,80,46,0
169.00749,169.29485,44,50,0
169.00749,169.29485,32,44,0
169.29485,169.43854,59,39,0
169.29485,169.43854,63,44,0
169.29485,169.43854,51,39,0
169.58221,169.72188,56,39,0
169.58221,169.72188,59,39,0
169.58221,169.72188,63,44,0
169.86154,170.15028,47,47,0
169.86154,170.15028,35,43,0
170.15028,170.29465,51,39,0
170.15028,170.29465,59,39,0
170.15028,170.29465,63,44,0
170.43901,170.57803,56,39,0
170.43901,170.57803,59,39,0
170.43901,170.57803,63,44,0
170.71706,171.00441,51,49,0
170.71706,171.00441,39,44,0
171.00441,171.21992,55,39,0
171.00441,171.21992,63,39,0
171.00441,171.21992,67,44,0
171.29176,171.49838,58,39,0
171.29176,171.49838,63,39,0
171.29176,171.49838,67,44,0
171.56725,171.84657,43,51,0
171.84657,172.05608,70,43,0
171.84657,172.05608,63,37,0
171.84657,172.05608,61,37,0
172.1259,172.33347,70,43,0
172.1259,172.33347,63,37,0
172.1259,172.33347,58,37,0
172.40266,172.68329,44,47,0
172.68329,172.89377,63,35,0
172.68329,172.89377,68,40,0
172.96393,173.17441,59,35,0
172.96393,173.17441,63,40,0
173.24457,173.52005,40,46,0
173.52005,173.72665,59,34,0
173.52005,173.72665,62,37,0
173.79553,174.0068,58,34,0
173.79553,174.0068,62,37,0
174.07722,174.36568,39,43,0
174.36568,174.68314,58,37,0
174.36568,174.68314,55,34,0
174.68314,174.96222,67,33,0
174.68314,174.96222,70,36,0
174.96222,175.24757,79,37,0
174.96222,175.24757,82,43,0
175.80446,176.07472,44,43,0
176.07472,176.27742,57,35,0
176.07472,176.27742,63,35,0
176.07472,176.27742,66,40,0
176.345,176.545,66,40,0
176.345,176.545,63,35,0
176.345,176.545,60,35,0
176.61166,176.88193,48,43,0
176.88193,177.08464,57,35,0
176.88193,177.08464,63,35,0
176.88193,177.08464,66,40,0
177.1522,177.35863,66,40,0
177.1522,177.35863,63,35,0
177.1522,177.35863,60,35,0
177.42743,177.69409,52,43,0
177.69409,177.96077,69,36,0
177.69409,177.96077,64,32,0
177.96077,178.22392,69,40,0
177.96077,178.22392,60,35,0
178.22392,178.49059,69,44,0
178.22392,178.49059,61,39,0
178.49059,178.75725,69,37,0
178.49059,178.75725,66,34,0
178.75725,179.02335,69,36,0
178.75725,179.02335,64,32,0
179.02335,179.28253,63,39,0
179.02335,179.28253,68,39,0
179.02335,179.28253,71,44,0
180.54851,180.78755,51,42,0
180.54851,180.78755,61,42,0
180.54851,180.78755,67,46,0
182.02466,182.16751,44,41,0
182.16751,182.25298,51,41,0
182.25298,182.33846,56,41,0
182.59486,182.68033,71,41,0
182.68033,182.76581,75,41,0
182.76581,182.85127,80,41,0
183.64633,183.74416,68,33,0
183.77676,183.87459,70,36,0
183.77676,183.87459,67,36,0
183.9072,184.00504,69,37,0
183.9072,184.00504,66,37,0
184.03764,184.13547,68,41,0
184.03764,184.13547,65,41,0
184.16808,184.27034,67,45,0
184.16808,184.27034,64,45,0
184.30444,184.40579,47,47,0
184.43958,184.53783,63,34,0
184.57057,184.66551,59,44,0
184.57057,184.66551,54,32,0
184.69716,184.79672,63,34,0
184.8299,184.92688,47,44,0
184.95921,185.0562,63,34,0
185.08852,185.1855,42,45,0
185.21783,185.31482,64,33,0
185.34714,185.44412,58,45,0
185.34714,185.44412,54,34,0
185.47646,185.576,64,36,0
185.60826,185.7024,42,46,0
185.73378,185.82793,64,36,0
185.8593,185.99263,47,47,0
185.99263,186.08865,63,39,0
186.12048,186.21515,54,39,0
186.24644,186.33934,47,37,0
186.37,186.46146,42,36,0
186.49194,186.5834,35,36,0
186.77014,186.86589,71,33,0
186.89781,186.99355,74,36,0
186.89781,186.99355,71,36,0
187.02547,187.12122,73,37,0
187.02547,187.12122,70,37,0
187.15312,187.24887,72,41,0
187.15312,187.24887,69,41,0
187.28087,187.37999,71,45,0
187.28087,187.37999,68,45,0
187.41304,187.51215,51,47,0
187.5452,187.64345,66,34,0
187.6762,187.77113,63,44,0
187.6762,187.77113,58,32,0
187.80278,187.90234,66,34,0
187.93552,188.0325,51,44,0
188.06483,188.16182,66,34,0
188.19414,188.29112,46,45,0
188.32346,188.42044,68,33,0
188.45276,188.54974,62,45,0
188.45276,188.54974,58,34,0
188.58208,188.68163,68,36,0
188.71388,188.80803,46,46,0
188.8394,188.93355,68,36,0
188.96492,189.09827,51,47,0
189.09827,189.19427,66,39,0
189.2261,189.32079,58,39,0
189.35207,189.44496,51,37,0
189.47562,189.56708,46,37,0
189.59756,189.68903,39,36,0
189.87576,189.97151,75,33,0
190.00343,190.09917,77,36,0
190.00343,190.09917,74,36,0
190.13109,190.22684,76,37,0
190.13109,190.22684,73,37,0
190.25874,190.35449,75,41,0
190.25874,190.35449,72,41,0
190.3865,190.48561,74,45,0
190.3865,190.48561,71,45,0
190.51866,190.61778,54,47,0
190.65082,190.74907,70,34,0
190.78181,190.87675,66,44,0
190.78181,190.87675,61,32,0
190.9084,191.00797,70,34,0
191.04114,191.13812,54,44,0
191.17046,191.26744,70,34,0
191.29976,191.39674,49,45,0
191.42908,191.52606,71,33,0
191.55838,191.65536,65,45,0
191.55838,191.65536,61,34,0
191.6877,191.78725,71,36,0
191.8195,191.91365,49,46,0
191.94502,192.03917,71,36,0
192.07082,192.32729,54,46,0
192.32729,192.42493,61,45,0
192.45747,192.55511,70,45,0
192.58766,192.68205,78,43,0
192.7135,192.80789,82,41,0
192.83936,193.0936,47,40,0
193.0936,193.18976,59,43,0
193.2218,193.31796,68,41,0
193.35,193.44337,75,41,0
193.47449,193.56786,80,40,0
193.59897,193.8509,49,45,0
193.8509,193.94666,58,43,0
193.97856,194.07431,66,41,0
194.10622,194.19958,73,40,0
194.2307,194.32407,78,37,0
194.35518,194.60493,61,47,0
194.60493,194.70029,77,43,0
194.73206,194.8274,68,41,0
194.85918,194.95398,61,40,0
194.98557,195.08037,71,39,0
195.11195,195.3803,70,46,0
195.11195,195.3803,66,46,0
195.3803,195.48935,54,61,0
195.3803,195.48935,42,61,0
195.52504,195.62976,54,64,0
195.52504,195.62976,42,64,0
195.66397,195.7645,55,66,0
195.66397,195.7645,43,66,0
195.79744,195.89542,55,70,0
195.79744,195.89542,43,70,0
195.92795,196.02539,56,71,0
195.92795,196.02539,44,71,0
196.05777,196.1546,56,71,0
196.05777,196.1546,44,71,0
196.41843,196.5053,80,64,0
196.41843,196.5053,68,64,0
196.53426,196.62112,80,64,0
196.53426,196.62112,68,64,0
196.92915,197.01901,80,54,0
197.04869,197.13776,80,43,0
196.92915,197.16745,75,54,0
197.16745,197.25652,80,43,0
197.28621,197.37527,80,43,0
197.16745,197.40497,73,43,0
197.40497,197.49515,80,43,0
197.5252,197.61539,80,43,0
197.40497,197.64545,72,43,0
197.64545,197.73299,80,43,0
197.76218,197.84972,80,43,0
197.64545,197.8789,70,43,0
197.8789,197.96478,80,43,0
197.99341,198.07928,80,43,0
197.8789,198.10791,72,43,0
198.10791,198.38365,80,46,0
198.10791,198.38365,73,46,0
198.38365,198.48682,56,61,0
198.38365,198.48682,44,61,0
198.52184,198.6254,56,64,0
198.52184,198.6254,44,64,0
198.65945,198.76024,55,66,0
198.65945,198.76024,43,66,0
198.7934,198.8915,55,70,0
198.7934,198.8915,43,70,0
198.92374,199.02048,54,71,0
198.92374,199.02048,42,71,0
199.05272,199.14944,54,71,0
199.05272,199.14944,42,71,0
199.41336,199.50023,78,64,0
199.41336,199.50023,66,64,0
199.52919,199.61606,78,64,0
199.52919,199.61606,66,64,0
199.92151,200.01045,78,54,0
200.04008,200.12903,78,43,0
199.92151,200.15866,73,54,0
200.15866,200.2476,78,43,0
200.27724,200.36618,78,43,0
200.15866,200.39583,71,43,0
200.39583,200.48654,78,43,0
200.51678,200.60751,78,43,0
200.39583,200.63776,70,43,0
200.63776,200.72565,78,43,0
200.75494,200.84283,78,43,0
200.63776,200.87213,68,43,0
200.87213,200.95801,78,43,0
200.98663,201.07251,78,43,0
200.87213,201.10114,70,43,0
201.10114,201.34604,78,46,0
201.10114,201.34604,71,46,0
201.34604,201.44179,53,63,0
201.34604,201.44179,41,63,0
201.4737,201.56706,53,65,0
201.4737,201.56706,41,65,0
201.59818,201.70091,52,67,0
201.59818,201.70091,40,67,0
201.73517,201.8301,52,70,0
201.73517,201.8301,40,70,0
201.86174,201.96,51,71,0
201.86174,201.96,39,71,0
201.99275,202.0861,51,71,0
201.99275,202.0861,39,71,0
202.34889,202.43576,75,64,0
202.34889,202.43576,63,64,0
202.46472,202.55159,75,64,0
202.46472,202.55159,63,64,0
202.83696,202.98772,67,49,0
202.83696,202.98772,63,49,0
202.98772,203.12923,67,50,0
202.98772,203.12923,63,50,0
203.12923,203.27277,68,52,0
203.12923,203.27277,65,52,0
203.27277,203.39615,68,54,0
203.27277,203.39615,65,54,0
203.39615,203.52167,69,55,0
203.39615,203.52167,66,55,0
203.52167,203.64565,69,55,0
203.52167,203.64565,66,55,0
203.64565,203.76808,67,54,0
203.64565,203.76808,64,54,0
203.76808,203.88881,67,54,0
203.76808,203.88881,64,54,0
203.88881,204.0081,65,52,0
203.88881,204.0081,62,52,0
204.0081,204.12598,65,52,0
204.0081,204.12598,62,52,0
204.12598,204.35945,63,51,0
204.35945,204.47913,46,70,0
204.35945,204.47913,34,70,0
204.51901,204.62932,46,70,0
204.51901,204.62932,34,70,0
204.66608,204.76881,50,71,0
204.66608,204.76881,38,71,0
204.80307,204.90132,50,73,0
204.80307,204.90132,38,73,0
204.93407,205.03363,51,77,0
204.93407,205.03363,39,77,0
205.06682,205.16255,51,77,0
205.06682,205.16255,39,77,0
205.42613,205.513,75,71,0
205.42613,205.513,63,71,0
205.54196,205.62883,75,71,0
205.54196,205.62883,63,71,0
205.9142,206.03583,75,57,0
205.9142,206.03583,67,57,0
206.07637,206.19234,75,59,0
206.07637,206.19234,67,59,0
206.231,206.356,77,61,0
206.231,206.356,68,61,0
206.39314,206.4978,77,62,0
206.39314,206.4978,68,62,0
206.53268,206.63094,78,63,0
206.53268,206.63094,69,63,0
206.66368,206.75822,78,64,0
206.66368,206.75822,69,64,0
206.78992,206.88498,79,64,0
206.78992,206.88498,70,64,0
206.9165,207.0106,79,63,0
206.9165,207.0106,70,63,0
207.04185,207.135,77,63,0
207.04185,207.135,74,63,0
207.16591,207.25816,77,62,0
207.16591,207.25816,74,62,0
207.28877,207.37938,75,62,0
207.28877,207.37938,70,62,0
207.4095,207.49945,75,62,0
207.4095,207.49945,70,62,0
207.52934,207.61723,71,61,0
207.52934,207.61723,68,61,0
207.64653,207.73273,71,61,0
207.64653,207.73273,68,61,0
207.76147,207.85147,69,61,0
207.76147,207.85147,66,61,0
207.88147,207.96867,69,62,0
207.88147,207.96867,66,62,0
207.99812,208.08707,70,62,0
207.99812,208.08707,67,62,0
208.1167,208.20564,70,62,0
208.1167,208.20564,67,62,0
208.2352,208.32379,67,62,0
208.2352,208.32379,64,62,0
208.35332,208.4419,67,61,0
208.35332,208.4419,64,61,0
208.47134,208.55959,65,61,0
208.47134,208.55959,62,61,0
208.58899,208.67723,65,60,0
208.58899,208.67723,62,60,0
208.70657,208.79424,63,60,0
208.70657,208.79424,58,60,0
208.8233,208.90994,63,59,0
208.8233,208.90994,58,59,0
208.93869,209.02423,59,59,0
208.93869,209.02423,56,59,0
209.05275,209.13734,59,59,0
209.05275,209.13734,56,59,0
209.16547,209.253,57,57,0
209.16547,209.253,54,57,0
209.2822,209.36678,57,63,0
209.2822,209.36678,54,63,0
209.39542,209.48195,58,66,0
209.39542,209.48195,55,66,0
209.5108,209.59734,58,66,0
209.5108,209.59734,55,66,0
209.62617,209.71262,55,65,0
209.62617,209.71262,52,65,0
209.74135,209.82755,55,64,0
209.74135,209.82755,52,64,0
209.8563,209.94249,53,64,0
209.8563,209.94249,50,64,0
209.97122,210.05717,53,63,0
209.97122,210.05717,50,63,0
210.0858,210.17168,51,63,0
210.0858,210.17168,46,63,0
210.2003,210.2862,51,62,0
210.2003,210.2862,46,62,0
210.31474,210.39839,47,61,0
210.31474,210.39839,44,61,0
210.42627,210.5099,47,61,0
210.42627,210.5099,44,61,0
210.5392,210.62885,45,57,0
210.5392,210.62885,42,57,0
210.65872,210.75613,45,59,0
210.65872,210.75613,42,59,0
210.78859,210.88313,46,61,0
210.78859,210.88313,43,61,0
210.91464,211.00357,46,62,0
210.91464,211.00357,43,62,0
211.03322,211.12204,46,64,0
211.03322,211.12204,43,64,0
211.15149,211.23933,46,65,0
211.15149,211.23933,43,65,0
211.26845,211.35544,47,67,0
211.26845,211.35544,38,67,0
211.38428,211.47026,47,69,0
211.38428,211.47026,38,69,0
211.49878,211.72606,46,71,0
211.49878,211.72606,39,71,0
211.83969,211.95319,50,81,0
212.0659,212.17812,51,81,0
212.28992,212.40125,57,81,0
212.51215,212.62257,58,81,0
212.7326,212.84203,62,69,0
212.7326,212.84203,50,57,0
212.95079,213.05876,63,67,0
212.95079,213.05876,51,56,0
213.16597,213.27242,69,69,0
213.16597,213.27242,57,69,0
213.37811,213.48306,70,70,0
213.37811,213.48306,58,70,0
213.5873,213.69081,74,71,0
213.5873,213.69081,62,71,0
213.79361,213.8957,75,72,0
213.79361,213.8957,63,72,0
213.99712,214.09608,81,72,0
213.99712,214.09608,69,72,0
214.21101,214.32596,82,72,0
214.21101,214.32596,70,72,0
214.43427,214.54257,86,76,0
214.43427,214.54257,74,76,0
214.65088,214.75917,87,72,0
214.65088,214.75917,75,72,0
214.8648,214.97758,86,76,0
214.8648,214.97758,74,76,0
215.09038,215.20316,87,72,0
215.09038,215.20316,75,72,0
215.31427,215.42538,86,72,0
215.31427,215.42538,74,72,0
215.53648,215.6476,85,72,0
215.53648,215.6476,73,72,0
215.75789,215.8682,82,72,0
215.75789,215.8682,70,72,0
215.97849,216.08878,79,73,0
215.97849,216.08878,67,73,0
216.19907,216.30936,75,73,0
216.19907,216.30936,63,73,0
216.41966,216.52995,73,75,0
216.41966,216.52995,61,75,0
216.64024,216.75053,70,76,0
216.64024,216.75053,58,76,0
216.86057,216.97119,55,77,0
216.86057,216.97119,67,77,0
217.08252,217.19452,51,79,0
217.08252,217.19452,63,79,0
217.30724,217.42065,49,79,0
217.30724,217.42065,61,79,0
217.5348,217.64967,46,80,0
217.5348,217.64967,58,80,0
217.76527,217.88164,43,81,0
217.76527,217.88164,55,81,0
217.99875,218.13327,51,81,0
217.99875,218.13327,39,81,0
219.98534,220.11464,63,72,0
220.2424,220.36075,75,80,0
220.94261,221.16678,44,64,0
220.94261,221.16678,32,57,0
221.16678,221.25084,59,53,0
221.16678,221.25084,63,59,0
221.16678,221.25084,51,53,0
221.27885,221.36292,63,59,0
221.27885,221.36292,59,53,0
221.27885,221.36292,51,53,0
221.39093,221.61594,63,59,0
221.39093,221.61594,59,53,0
221.39093,221.61594,56,53,0
221.61594,221.83594,47,64,0
221.61594,221.83594,35,64,0
221.83594,221.91843,63,59,0
221.83594,221.91843,59,53,0
221.83594,221.91843,51,53,0
221.94592,222.02843,51,53,0
221.94592,222.02843,59,53,0
221.94592,222.02843,63,59,0
222.05592,222.27269,63,59,0
222.05592,222.27269,59,53,0
222.05592,222.27269,56,53,0
222.27269,222.4935,51,63,0
222.27269,222.4935,39,55,0
222.4935,222.57631,67,59,0
222.4935,222.57631,63,53,0
222.4935,222.57631,55,53,0
222.60391,222.6867,67,59,0
222.60391,222.6867,63,53,0
222.60391,222.6867,55,53,0
222.71431,222.9295,67,59,0
222.71431,222.9295,63,53,0
222.71431,222.9295,58,53,0
222.9295,223.1455,55,60,0
222.9295,223.1455,43,60,0
223.1455,223.22649,70,54,0
223.1455,223.22649,63,47,0
223.1455,223.22649,61,47,0
223.25348,223.33447,70,54,0
223.25348,223.33447,63,47,0
223.25348,223.33447,61,47,0
223.36147,223.57588,70,54,0
223.36147,223.57588,63,47,0
223.36147,223.57588,61,47,0
223.57588,223.79265,44,54,0
223.57588,223.79265,56,62,0
223.79265,223.87393,68,54,0
223.79265,223.87393,63,49,0
223.79265,223.87393,59,49,0
223.90103,223.98232,68,54,0
223.90103,223.98232,63,49,0
223.90103,223.98232,59,49,0
224.0094,224.22227,63,54,0
224.0094,224.22227,59,49,0
224.22227,224.43747,40,59,0
224.43747,224.5173,58,51,0
224.43747,224.5173,62,56,0
224.5439,224.62373,58,51,0
224.5439,224.62373,62,56,0
224.65034,224.86095,62,56,0
224.65034,224.86095,58,51,0
224.86095,225.07858,39,60,0
225.07858,225.16391,58,55,0
225.07858,225.16391,55,50,0
225.19244,225.27872,58,55,0
225.19244,225.27872,55,50,0
225.30786,225.5828,55,52,0
225.30786,225.5828,58,52,0
225.30786,225.5828,63,57,0
225.5828,225.83812,75,57,0
225.5828,225.83812,70,52,0
225.5828,225.83812,67,52,0
226.34448,226.58939,44,76,0
226.34448,226.58939,32,69,0
226.58939,226.68121,54,50,0
226.58939,226.68121,57,50,0
226.58939,226.68121,63,55,0
226.71184,226.80367,63,55,0
226.71184,226.80367,57,50,0
226.71184,226.80367,54,50,0
226.83427,227.08221,63,55,0
226.83427,227.08221,57,50,0
226.83427,227.08221,54,50,0
227.08221,227.32031,48,80,0
227.08221,227.32031,36,71,0
227.32031,227.40959,69,60,0
227.32031,227.40959,63,53,0
227.32031,227.40959,57,53,0
227.43936,227.52864,69,60,0
227.43936,227.52864,63,53,0
227.43936,227.52864,57,53,0
227.55841,227.8023,69,60,0
227.55841,227.8023,63,53,0
227.55841,227.8023,57,53,0
227.8023,228.05655,49,82,0
227.8023,228.05655,37,82,0
228.05655,228.1503,61,50,0
228.05655,228.1503,57,44,0
228.05655,228.1503,52,44,0
228.18155,228.2753,61,50,0
228.18155,228.2753,57,44,0
228.18155,228.2753,52,44,0
228.30655,228.39914,61,54,0
228.30655,228.39914,57,47,0
228.30655,228.39914,51,47,0
228.43001,228.5226,61,54,0
228.43001,228.5226,57,47,0
228.43001,228.5226,51,47,0
228.55345,228.64455,61,55,0
228.55345,228.64455,57,50,0
228.55345,228.64455,49,50,0
228.67491,228.766,61,55,0
228.67491,228.766,57,50,0
228.67491,228.766,49,50,0
228.79637,228.88673,61,54,0
228.79637,228.88673,57,47,0
228.79637,228.88673,51,47,0
228.91685,229.00722,61,54,0
228.91685,229.00722,57,47,0
228.91685,229.00722,51,47,0
229.03734,229.1277,61,51,0
229.03734,229.1277,57,45,0
229.03734,229.1277,52,45,0
229.15782,229.24818,61,51,0
229.15782,229.24818,57,45,0
229.15782,229.24818,52,45,0
229.2783,229.41164,59,45,0
229.2783,229.41164,56,41,0
229.2783,229.41164,51,41,0
229.41164,229.53163,62,46,0
229.41164,229.53163,50,46,0
229.53163,229.65164,61,47,0
229.53163,229.65164,49,47,0
229.65164,229.77164,60,49,0
229.65164,229.77164,48,49,0
229.77164,229.89163,59,50,0
229.77164,229.89163,47,50,0
229.89163,230.01164,58,51,0
229.89163,230.01164,46,51,0
230.01164,230.13164,57,54,0
230.01164,230.13164,45,54,0
230.13164,230.25163,56,54,0
230.13164,230.25163,44,54,0
230.25163,230.37021,55,55,0
230.25163,230.37021,43,55,0
230.37021,230.48878,54,56,0
230.37021,230.48878,42,56,0
230.48878,230.60721,53,57,0
230.48878,230.60721,41,57,0
230.60721,230.725,52,59,0
230.60721,230.725,40,59,0
230.725,230.84196,46,56,0
230.725,230.84196,51,56,0
230.725,230.84196,39,56,0
230.725,230.84196,43,56,0
230.84196,230.95818,50,62,0
230.84196,230.95818,38,62,0
230.95818,231.07372,49,63,0
230.95818,231.07372,37,63,0
231.07372,231.18843,48,64,0
231.07372,231.18843,36,64,0
231.18843,231.30243,47,65,0
231.18843,231.30243,35,65,0
231.30243,231.41695,46,66,0
231.30243,231.41695,34,66,0
231.41695,231.53436,45,69,0
231.41695,231.53436,33,69,0
231.53436,231.65501,44,70,0
231.53436,231.65501,32,70,0
231.65501,231.77899,43,67,0
231.65501,231.77899,31,67,0
231.77899,231.9063,42,67,0
231.77899,231.9063,30,67,0
231.9063,232.03845,40,69,0
231.9063,232.03845,28,69,0
232.03845,232.17131,39,71,0
232.03845,232.17131,27,71,0
232.18338,232.44286,44,81,0
232.18338,232.44286,32,61,0
232.44286,232.56837,51,79,0
232.44286,232.56837,39,67,0
232.56837,232.69391,56,79,0
232.56837,232.69391,44,67,0
232.69391,232.87411,51,63,0
232.69391,232.87411,63,75,0
232.93419,233.16995,44,89,0
232.93419,233.16995,32,74,0
233.16995,233.28915,51,80,0
233.16995,233.28915,39,68,0
233.28915,233.40836,56,80,0
233.28915,233.40836,44,68,0
233.40836,233.58232,51,64,0
233.40836,233.58232,63,77,0
233.64032,233.87422,44,89,0
233.64032,233.87422,32,74,0
233.87422,233.99168,51,79,0
233.87422,233.99168,39,67,0
233.99168,234.10915,56,79,0
233.99168,234.10915,44,67,0
234.10915,234.28313,51,61,0
234.10915,234.28313,63,73,0
234.34111,234.57716,44,89,0
234.34111,234.57716,32,74,0
234.57716,234.69589,51,80,0
234.57716,234.69589,39,68,0
234.69589,234.81462,56,80,0
234.69589,234.81462,44,68,0
234.81462,234.9914,51,66,0
234.81462,234.9914,63,78,0
235.05219,235.28621,44,89,0
235.05219,235.28621,32,62,0
235.28621,235.4067,51,79,0
235.28621,235.4067,39,56,0
235.4067,235.52718,56,79,0
235.4067,235.52718,44,56,0
235.52718,235.70526,51,55,0
235.52718,235.70526,63,77,0
235.76462,235.99945,44,89,0
235.76462,235.99945,32,62,0
235.99945,236.11646,51,80,0
235.99945,236.11646,39,57,0
236.11646,236.23346,56,80,0
236.11646,236.23346,44,57,0
236.23346,236.40742,51,55,0
236.23346,236.40742,63,77,0
236.46542,236.69667,44,89,0
236.46542,236.69667,32,74,0
236.69667,236.81367,51,79,0
236.69667,236.81367,39,67,0
236.81367,236.93068,56,79,0
236.81367,236.93068,44,67,0
236.93068,237.10464,51,66,0
236.93068,237.10464,63,78,0
237.16264,237.3937,44,89,0
237.16264,237.3937,32,74,0
237.3937,237.51071,51,81,0
237.3937,237.51071,39,68,0
237.51071,237.62772,56,81,0
237.51071,237.62772,44,68,0
237.62772,237.80188,51,66,0
237.62772,237.80188,63,78,0
237.86133,238.09529,44,89,0
237.86133,238.09529,32,74,0
238.09529,238.22188,51,81,0
238.09529,238.22188,39,68,0
238.22188,238.34845,56,81,0
238.22188,238.34845,44,68,0
238.34845,238.58875,51,74,0
238.34845,238.58875,59,88,0
238.34845,238.58875,47,74,0
238.58875,238.70473,58,82,0
238.58875,238.70473,51,69,0
238.58875,238.70473,46,69,0
238.70473,238.82782,59,82,0
238.70473,238.82782,51,69,0
238.70473,238.82782,47,69,0
238.82782,239.06812,61,88,0
238.82782,239.06812,51,74,0
238.82782,239.06812,49,74,0
239.06812,239.1841,59,81,0
239.06812,239.1841,47,68,0
239.06812,239.1841,51,68,0
239.1841,239.3082,51,68,0
239.1841,239.3082,58,81,0
239.1841,239.3082,46,68,0
239.3082,239.4288,59,88,0
239.3082,239.4288,51,74,0
239.3082,239.4288,47,74,0
239.4288,239.55447,58,83,0
239.4288,239.55447,51,70,0
239.4288,239.55447,46,70,0
239.55447,239.80104,56,83,0
239.55447,239.80104,51,70,0
239.55447,239.80104,44,70,0
239.82845,240.0201,44,104,0
239.82845,240.0201,39,88,0
239.82845,240.0201,32,88,0
240.08398,240.2091,58,82,0
240.08398,240.2091,51,69,0
240.08398,240.2091,46,69,0
240.2091,240.34264,59,82,0
240.2091,240.34264,51,69,0
240.2091,240.34264,47,69,0
240.34264,240.59291,61,88,0
240.34264,240.59291,51,74,0
240.34264,240.59291,49,74,0
240.59291,240.71501,59,81,0
240.59291,240.71501,47,68,0
240.59291,240.71501,51,68,0
240.71501,240.84727,51,68,0
240.71501,240.84727,58,81,0
240.71501,240.84727,46,68,0
240.84727,240.9756,59,88,0
240.84727,240.9756,51,74,0
240.84727,240.9756,47,74,0
240.9756,241.10393,58,83,0
240.9756,241.10393,51,70,0
240.9756,241.10393,46,70,0
241.10393,241.34077,56,83,0
241.10393,241.34077,51,70,0
241.10393,241.34077,44,70,0
241.3671,241.54405,44,104,0
241.3671,241.54405,39,88,0
241.3671,241.54405,32,88,0
241.60303,241.7147,59,88,0
241.60303,241.7147,51,74,0
241.60303,241.7147,47,74,0
241.7147,241.83357,58,83,0
241.7147,241.83357,51,70,0
241.7147,241.83357,46,70,0
241.83357,242.05579,56,70,0
241.83357,242.05579,51,70,0
241.83357,242.05579,44,70,0
242.08049,242.25667,44,104,0
242.08049,242.25667,39,88,0
242.08049,242.25667,32,88,0
242.3154,242.42712,59,88,0
242.3154,242.42712,51,74,0
242.3154,242.42712,47,74,0
242.42712,242.54462,58,83,0
242.42712,242.54462,51,70,0
242.42712,242.54462,46,70,0
242.54462,242.76236,56,83,0
242.54462,242.76236,51,70,0
242.54462,242.76236,44,70,0
242.78656,242.96072,44,106,0
242.78656,242.96072,39,90,0
242.78656,242.96072,32,90,0
243.01877,243.12926,59,88,0
243.01877,243.12926,51,74,0
243.01877,243.12926,47,74,0
243.12926,243.24963,58,83,0
243.12926,243.24963,51,70,0
243.12926,243.24963,46,70,0
243.24963,243.47357,56,83,0
243.24963,243.47357,51,70,0
243.24963,243.47357,44,70,0
243.5029,244.01442,44,106,0
243.5029,244.01442,39,90,0
243.5029,244.01442,32,90,0
244.01442,244.1646,56,73,0
244.01442,244.1646,51,61,0
244.01442,244.1646,44,61,0
244.18132,244.33234,56,64,0
244.18132,244.33234,63,64,0
244.18132,244.33234,68,77,0
244.34915,244.50029,68,68,0
244.34915,244.50029,75,80,0
244.34915,244.50029,80,80,0
244.51706,244.66733,56,70,0
244.51706,244.66733,63,70,0
244.51706,244.66733,68,83,0
244.68399,244.83339,56,82,0
244.68399,244.83339,51,69,0
244.68399,244.83339,44,69,0
244.8515,245.08757,44,86,0
244.8515,245.08757,39,73,0
244.8515,245.08757,32,73,0
245.56001,245.80293,56,94,0
245.56001,245.80293,51,80,0
245.56001,245.80293,44,80,0
246.28876,247.74625,71,99,0
246.28876,247.74625,59,83,0
246.28876,247.74625,63,83,0
246.28876,247.74625,68,83,0
