start_time,end_time,note_value,velocity,instrument_program_number
1.445173,1.5489793,72,76,0
1.445173,1.5489793,75,76,0
1.445173,1.5489793,84,90,0
1.7565918,1.8533661,67,71,0
1.7565918,1.8533661,79,84,0
1.7565918,1.8533661,75,71,0
1.7565918,1.8533661,72,71,0
1.8533661,1.9616693,79,90,0
1.8533661,1.9616693,67,76,0
1.8533661,1.9616693,72,76,0
1.8533661,1.9616693,75,76,0
2.3948824,2.492602,75,82,0
2.3948824,2.492602,67,70,0
2.3948824,2.492602,63,70,0
2.492602,2.6009054,75,90,0
2.492602,2.6009054,67,74,0
2.492602,2.6009054,63,74,0
3.0249984,3.1253328,72,78,0
3.0249984,3.1253328,67,65,0
3.0249984,3.1253328,63,65,0
3.1253328,3.238969,72,85,0
3.1253328,3.238969,67,72,0
3.1253328,3.238969,63,72,0
3.3526053,3.4662416,71,80,0
3.3526053,3.4662416,67,67,0
3.3526053,3.4662416,63,67,0
3.5798779,3.693514,72,85,0
3.5798779,3.693514,67,72,0
3.5798779,3.693514,63,72,0
5.5061383,5.6099443,74,76,0
5.5061383,5.6099443,77,76,0
5.5061383,5.6099443,86,90,0
5.810838,5.9191413,68,71,0
5.810838,5.9191413,74,71,0
5.810838,5.9191413,80,84,0
5.9191413,6.027445,80,90,0
5.9191413,6.027445,74,76,0
5.9191413,6.027445,68,76,0
6.4606576,6.5583773,77,82,0
6.4606576,6.5583773,68,70,0
6.4606576,6.5583773,65,70,0
6.5583773,6.6670732,77,90,0
6.5583773,6.6670732,68,74,0
6.5583773,6.6670732,65,74,0
7.0915585,7.205627,74,78,0
7.0915585,7.205627,68,65,0
7.0915585,7.205627,62,65,0
7.205627,7.3196955,74,85,0
7.205627,7.3196955,68,72,0
7.205627,7.3196955,62,72,0
7.433764,7.5478325,73,80,0
7.433764,7.5478325,68,67,0
7.433764,7.5478325,61,67,0
7.661901,7.7759695,74,85,0
7.661901,7.7759695,68,72,0
7.661901,7.7759695,62,72,0
8.328702,8.440392,75,53,0
8.328702,8.440392,67,45,0
8.328702,8.440392,63,45,0
8.550284,8.600572,60,40,0
8.600572,8.651145,62,41,0
8.651145,8.701973,63,44,0
8.701973,8.7530775,65,45,0
8.7530775,8.858119,67,47,0
8.963161,9.033037,77,57,0
8.963161,9.033037,72,47,0
8.963161,9.033037,65,47,0
9.149497,9.221845,75,49,0
9.149497,9.221845,72,49,0
9.149497,9.221845,84,59,0
9.3424225,9.4407835,84,60,0
9.3424225,9.4407835,72,51,0
9.3424225,9.4407835,74,51,0
9.538808,9.586182,65,42,0
9.586182,9.633771,63,43,0
9.633771,9.681677,62,45,0
9.681677,9.7299,60,46,0
9.7299,9.832081,58,49,0
9.93426,10.004354,82,64,0
9.93426,10.004354,74,54,0
9.93426,10.004354,70,54,0
10.121177,10.193523,82,55,0
10.121177,10.193523,74,55,0
10.121177,10.193523,87,66,0
10.314102,10.409644,87,68,0
10.314102,10.409644,72,57,0
10.314102,10.409644,80,57,0
10.504902,10.551882,56,47,0
10.551882,10.599124,58,48,0
10.599124,10.646657,60,51,0
10.646657,10.694471,62,52,0
10.694471,10.797001,63,56,0
10.899529,10.970958,86,72,0
10.899529,10.970958,80,61,0
10.899529,10.970958,74,61,0
10.899529,10.970958,84,61,0
11.090006,11.165763,84,63,0
11.090006,11.165763,80,63,0
11.090006,11.165763,92,75,0
11.292026,11.390065,92,77,0
11.292026,11.390065,80,65,0
11.292026,11.390065,83,65,0
11.488104,11.534815,62,51,0
11.534815,11.58179,60,52,0
11.58179,11.629092,59,54,0
11.629092,11.67685,56,56,0
11.67685,11.773624,55,61,0
11.8703985,11.948254,91,79,0
11.8703985,11.948254,79,65,0
11.8703985,11.948254,82,65,0
11.8703985,11.948254,85,65,0
12.0780115,12.157237,91,67,0
12.0780115,12.157237,94,67,0
12.0780115,12.157237,96,81,0
12.0780115,12.157237,84,67,0
12.288619,12.386339,96,83,0
12.288619,12.386339,84,70,0
12.288619,12.386339,92,70,0
12.484058,12.531187,59,52,0
12.531187,12.578747,60,54,0
12.578747,12.62694,62,56,0
12.62694,12.675764,64,59,0
12.675764,12.792952,65,63,0
12.910139,13.041372,101,85,0
12.910139,13.041372,89,72,0
12.910139,13.041372,92,72,0
13.1726055,13.219733,61,50,0
13.219733,13.267293,63,51,0
13.267293,13.315487,65,54,0
13.315487,13.36431,66,55,0
13.36431,13.477947,68,67,0
13.591583,13.638711,73,54,0
13.638711,13.686271,75,55,0
13.686271,13.734465,77,58,0
13.734465,13.783288,78,60,0
13.783288,13.896496,80,71,0
14.006877,14.056834,85,58,0
14.056834,14.107496,87,59,0
14.107496,14.158879,89,62,0
14.158879,14.210979,90,63,0
14.210979,14.339735,92,75,0
14.597245,14.698597,97,90,0
14.597245,14.698597,89,77,0
14.597245,14.698597,85,77,0
14.698597,14.8069,85,72,0
14.698597,14.8069,89,72,0
14.698597,14.8069,97,86,0
14.915203,15.023506,92,91,0
14.915203,15.023506,85,78,0
14.915203,15.023506,80,78,0
15.240113,15.341808,89,82,0
15.240113,15.341808,80,69,0
15.240113,15.341808,77,69,0
15.341808,15.450899,89,82,0
15.341808,15.450899,80,69,0
15.341808,15.450899,77,69,0
15.87578,15.976114,85,81,0
15.87578,15.976114,73,68,0
15.87578,15.976114,77,68,0
15.87578,15.976114,80,68,0
15.976114,16.08975,85,89,0
15.976114,16.08975,73,75,0
15.976114,16.08975,77,75,0
15.976114,16.08975,80,75,0
16.203386,16.317022,84,83,0
16.203386,16.317022,72,70,0
16.203386,16.317022,76,70,0
16.203386,16.317022,80,70,0
16.430658,16.544296,85,89,0
16.430658,16.544296,73,75,0
16.430658,16.544296,77,75,0
16.430658,16.544296,80,75,0
16.885204,16.994295,89,79,0
16.885204,16.994295,77,70,0
16.885204,16.994295,80,70,0
16.885204,16.994295,86,70,0
17.212477,17.313828,85,87,0
17.212477,17.313828,73,73,0
17.313828,17.422132,74,70,0
17.313828,17.422132,86,82,0
17.530436,17.638739,87,88,0
17.530436,17.638739,75,74,0
17.530436,17.638739,78,74,0
17.530436,17.638739,81,74,0
17.855345,17.957039,83,79,0
17.855345,17.957039,71,66,0
17.957039,18.066132,84,79,0
17.957039,18.066132,72,66,0
18.175222,18.276232,91,94,0
18.175222,18.276232,83,81,0
18.175222,18.276232,79,75,0
19.577099,19.680904,75,66,0
19.577099,19.680904,78,66,0
19.577099,19.680904,87,79,0
19.888517,19.985292,72,62,0
19.888517,19.985292,75,62,0
19.888517,19.985292,84,73,0
19.985292,20.093596,84,79,0
19.985292,20.093596,75,66,0
19.985292,20.093596,72,66,0
20.526808,20.624527,81,72,0
20.526808,20.624527,72,61,0
20.526808,20.624527,69,61,0
20.624527,20.73283,81,79,0
20.624527,20.73283,72,64,0
20.624527,20.73283,69,64,0
21.05542,21.108992,78,72,0
21.05542,21.108992,66,61,0
21.162563,21.216133,75,68,0
21.162563,21.216133,63,57,0
21.269705,21.326523,74,68,0
21.269705,21.326523,62,57,0
21.38334,21.440159,72,68,0
21.38334,21.440159,60,57,0
21.496977,21.605673,79,76,0
21.496977,21.605673,71,64,0
21.496977,21.605673,67,64,0
22.886051,22.989857,75,66,0
22.886051,22.989857,78,66,0
22.886051,22.989857,87,79,0
23.19747,23.294245,72,62,0
23.19747,23.294245,75,62,0
23.19747,23.294245,84,73,0
23.294245,23.402548,84,79,0
23.294245,23.402548,75,66,0
23.294245,23.402548,72,66,0
23.83576,23.93348,81,72,0
23.83576,23.93348,72,61,0
23.83576,23.93348,69,61,0
23.93348,24.041782,81,79,0
23.93348,24.041782,72,64,0
23.93348,24.041782,69,64,0
24.364372,24.417944,78,72,0
24.364372,24.417944,66,61,0
24.471516,24.525085,75,68,0
24.471516,24.525085,63,57,0
24.578657,24.635475,74,68,0
24.578657,24.635475,62,57,0
24.692293,24.749111,72,68,0
24.692293,24.749111,60,57,0
24.80593,24.92404,79,76,0
24.80593,24.92404,71,64,0
24.80593,24.92404,67,64,0
25.14668,25.250788,62,55,0
25.34935,25.447443,60,56,0
25.545017,25.642109,59,58,0
25.738716,25.834902,57,59,0
25.929539,26.024227,55,61,0
26.121946,26.219381,68,62,0
26.31654,26.413422,66,63,0
26.510029,26.606363,65,65,0
26.702425,26.79817,63,66,0
26.907904,27.086348,61,68,0
27.091,27.20911,89,81,0
27.091,27.20911,80,68,0
27.091,27.20911,77,68,0
27.091,27.20911,85,68,0
27.32722,27.445332,91,82,0
27.32722,27.445332,86,70,0
27.32722,27.445332,83,70,0
27.32722,27.445332,79,70,0
27.66797,27.77208,62,61,0
27.870642,27.968735,60,62,0
28.066309,28.163399,59,63,0
28.260008,28.356192,57,64,0
28.45083,28.545519,55,66,0
28.643238,28.740673,68,67,0
28.837831,28.934711,66,70,0
29.03132,29.127655,65,72,0
29.223717,29.319462,63,72,0
29.433964,29.612291,61,74,0
29.612291,29.730402,89,68,0
29.612291,29.730402,80,57,0
29.612291,29.730402,77,57,0
29.612291,29.730402,85,57,0
29.848513,30.557173,95,80,0
29.848513,30.557173,91,66,0
29.848513,30.557173,86,66,0
29.848513,30.557173,83,66,0
30.557173,31.265835,96,81,0
30.557173,31.265835,84,67,0
30.557173,31.265835,89,67,0
30.557173,31.265835,92,67,0
31.265835,31.96433,97,86,0
31.265835,31.96433,85,72,0
31.265835,31.96433,89,72,0
31.265835,31.96433,92,72,0
31.96433,32.65733,98,91,0
31.96433,32.65733,86,77,0
31.96433,32.65733,89,77,0
31.96433,32.65733,92,77,0
32.65733,33.011658,89,72,0
32.65733,33.011658,101,86,0
32.65733,33.011658,98,86,0
32.65733,33.011658,96,72,0
33.011658,33.36599,101,86,0
33.011658,33.36599,89,72,0
33.011658,33.36599,96,72,0
33.011658,33.36599,98,86,0
33.36599,33.727436,101,86,0
33.36599,33.727436,89,72,0
33.36599,33.727436,96,72,0
33.36599,33.727436,98,86,0
33.727436,34.123146,101,86,0
33.727436,34.123146,89,72,0
33.727436,34.123146,96,72,0
33.727436,34.123146,98,86,0
34.123146,34.26076,59,79,0
34.123146,34.26076,53,72,0
34.123146,34.26076,50,72,0
34.395634,34.452557,92,74,0
34.452557,34.507877,91,73,0
34.507877,34.563732,90,72,0
34.562706,34.618057,89,71,0
34.618057,34.671856,88,70,0
34.671856,34.726517,87,69,0
34.726517,34.780743,86,67,0
34.780743,34.836628,85,66,0
34.83559,34.89217,84,65,0
34.89102,35.028637,83,79,0
35.165966,35.222702,80,63,0
35.222702,35.27809,79,62,0
35.27809,35.333057,78,61,0
35.333057,35.38872,77,60,0
35.387695,35.442005,76,59,0
35.443024,35.49821,75,58,0
35.49821,35.553005,74,56,0
35.553005,35.60843,73,55,0
35.60843,35.66553,72,55,0
35.664383,35.802,71,66,0
35.938267,35.99457,68,53,0
35.99457,36.04954,67,52,0
36.04954,36.1043,66,51,0
36.1043,36.1598,65,50,0
36.158775,36.213047,64,50,0
36.21407,36.269096,63,49,0
36.269096,36.323532,62,47,0
36.323532,36.37838,61,46,0
36.37838,36.43496,60,46,0
36.43381,36.571426,59,55,0
36.70904,36.76379,56,53,0
36.76379,36.81877,55,52,0
36.81981,36.875004,54,51,0
36.875004,36.930412,53,50,0
36.930412,36.98603,52,50,0
36.987083,37.043007,51,49,0
37.043007,37.099144,50,47,0
37.10021,37.156567,49,46,0
37.156567,37.213146,48,46,0
37.213146,37.271114,47,43,0
37.271114,37.32777,48,45,0
37.32777,37.384117,49,46,0
37.384117,37.440144,50,48,0
37.440144,37.495823,51,50,0
37.49687,37.55225,52,51,0
37.55225,37.607285,53,54,0
37.60832,37.663048,54,54,0
37.663048,37.717472,55,56,0
37.717472,37.771564,56,58,0
37.772587,37.82724,55,57,0
37.82724,37.882687,54,55,0
37.88374,37.94004,53,54,0
37.94004,37.997234,52,54,0
37.997234,38.055264,51,52,0
38.056366,38.115307,50,51,0
38.115307,38.17521,49,50,0
38.176346,38.237133,48,49,0
38.235985,38.51172,47,58,0
39.06319,39.33893,55,50,0
42.989983,43.093575,72,76,0
42.989983,43.093575,75,76,0
42.989983,43.093575,84,90,0
43.30076,43.39753,67,71,0
43.30076,43.39753,79,84,0
43.30076,43.39753,75,71,0
43.30076,43.39753,72,71,0
43.39753,43.505836,79,90,0
43.39753,43.505836,67,76,0
43.39753,43.505836,72,76,0
43.39753,43.505836,75,76,0
43.93905,44.036766,75,82,0
43.93905,44.036766,67,70,0
43.93905,44.036766,63,70,0
44.036766,44.14507,75,90,0
44.036766,44.14507,67,74,0
44.036766,44.14507,63,74,0
44.569164,44.672256,72,78,0
44.569164,44.672256,67,65,0
44.569164,44.672256,63,65,0
44.672256,44.791306,72,85,0
44.672256,44.791306,67,72,0
44.672256,44.791306,63,72,0
44.91035,45.023987,71,80,0
44.91035,45.023987,67,67,0
44.91035,45.023987,63,67,0
45.137623,45.25126,72,85,0
45.137623,45.25126,67,72,0
45.137623,45.25126,63,72,0
47.063885,47.16769,73,76,0
47.063885,47.16769,77,76,0
47.063885,47.16769,85,90,0
47.368584,47.476887,68,71,0
47.368584,47.476887,73,71,0
47.368584,47.476887,80,84,0
47.476887,47.58519,80,90,0
47.476887,47.58519,73,76,0
47.476887,47.58519,68,76,0
48.018402,48.116123,77,82,0
48.018402,48.116123,68,70,0
48.018402,48.116123,65,70,0
48.116123,48.22482,77,90,0
48.116123,48.22482,68,74,0
48.116123,48.22482,65,74,0
48.649303,48.763374,73,78,0
48.649303,48.763374,68,65,0
48.649303,48.763374,61,65,0
48.763374,48.87744,73,85,0
48.763374,48.87744,68,72,0
48.763374,48.87744,61,72,0
48.99151,49.10558,72,80,0
48.99151,49.10558,68,67,0
48.99151,49.10558,60,67,0
49.219646,49.333717,73,85,0
49.219646,49.333717,68,72,0
49.219646,49.333717,61,72,0
49.886448,49.99814,74,53,0
49.886448,49.99814,67,45,0
49.886448,49.99814,62,45,0
50.106766,50.156525,58,40,0
50.156525,50.206654,60,41,0
50.206654,50.257195,62,44,0
50.257195,50.307022,63,45,0
50.307022,50.412064,65,47,0
50.517105,50.610275,75,57,0
50.517105,50.610275,66,47,0
50.517105,50.610275,63,47,0
50.70344,50.799904,70,49,0
50.70344,50.799904,66,49,0
50.70344,50.799904,78,59,0
50.896366,50.98811,82,60,0
50.896366,50.98811,70,51,0
50.896366,50.98811,74,51,0
51.080513,51.127106,65,42,0
51.127106,51.174217,63,43,0
51.174217,51.22188,62,45,0
51.22188,51.269325,60,46,0
51.269325,51.371506,58,49,0
51.473686,51.567146,83,64,0
51.473686,51.567146,75,54,0
51.473686,51.567146,71,54,0
51.660603,51.757065,83,55,0
51.660603,51.757065,75,55,0
51.660603,51.757065,87,66,0
51.853527,51.94907,88,68,0
51.853527,51.94907,76,57,0
51.853527,51.94907,83,57,0
52.044613,52.091763,64,47,0
52.091763,52.13933,66,48,0
52.13933,52.18738,68,51,0
52.18738,52.234657,69,52,0
52.234657,52.33719,71,56,0
52.439716,52.534954,87,72,0
52.439716,52.534954,84,61,0
52.439716,52.534954,75,61,0
52.63019,52.7312,87,63,0
52.63019,52.7312,84,63,0
52.63019,52.7312,96,75,0
52.832214,52.930252,95,77,0
52.832214,52.930252,83,65,0
52.832214,52.930252,88,65,0
53.02738,53.073685,71,51,0
53.073685,53.120285,69,52,0
53.120285,53.167187,68,54,0
53.167187,53.214424,66,56,0
53.214424,53.311195,64,61,0
53.40797,53.511776,94,79,0
53.40797,53.511776,85,65,0
53.40797,53.511776,82,65,0
53.615585,53.72122,94,67,0
53.615585,53.72122,85,67,0
53.615585,53.72122,97,81,0
53.82619,53.923912,98,83,0
53.82619,53.923912,86,70,0
53.82619,53.923912,93,70,0
54.02163,54.06876,62,52,0
54.06876,54.116318,64,54,0
54.116318,54.164513,66,56,0
54.164513,54.213337,67,59,0
54.213337,54.330524,69,63,0
54.447712,54.578945,98,85,0
54.447712,54.578945,95,72,0
54.447712,54.578945,92,72,0
54.447712,54.578945,86,72,0
54.71018,54.757305,62,50,0
54.757305,54.804867,65,51,0
54.804867,54.853058,68,54,0
54.853058,54.901882,70,55,0
54.901882,55.01552,71,67,0
55.129154,55.176285,74,54,0
55.176285,55.223843,77,55,0
55.223843,55.272038,80,58,0
55.272038,55.32086,82,60,0
55.32086,55.434067,83,71,0
55.54445,55.594406,86,58,0
55.594406,55.64507,89,59,0
55.64507,55.696453,92,62,0
55.696453,55.74855,94,63,0
55.74855,55.877308,95,75,0
56.13482,56.236168,99,90,0
56.13482,56.236168,95,77,0
56.13482,56.236168,87,77,0
56.236168,56.34447,87,72,0
56.236168,56.34447,95,72,0
56.236168,56.34447,99,86,0
56.452774,56.561077,95,91,0
56.452774,56.561077,87,78,0
56.452774,56.561077,83,78,0
56.777687,56.87938,90,82,0
56.777687,56.87938,83,69,0
56.777687,56.87938,78,69,0
56.87938,56.988472,90,82,0
56.87938,56.988472,83,69,0
56.87938,56.988472,78,69,0
57.413353,57.513687,87,81,0
57.413353,57.513687,83,68,0
57.413353,57.513687,75,68,0
57.513687,57.627323,87,89,0
57.513687,57.627323,83,75,0
57.513687,57.627323,75,75,0
57.74096,57.854595,86,83,0
57.74096,57.854595,83,70,0
57.74096,57.854595,74,70,0
57.96823,58.081867,87,89,0
57.96823,58.081867,83,75,0
57.96823,58.081867,75,75,0
58.422775,58.531868,90,79,0
58.422775,58.531868,83,70,0
58.422775,58.531868,78,70,0
58.75005,58.851402,86,87,0
58.75005,58.851402,74,73,0
58.851402,58.959705,75,70,0
58.851402,58.959705,87,82,0
59.06801,59.17631,90,88,0
59.06801,59.17631,84,74,0
59.06801,59.17631,78,74,0
59.392918,59.494614,86,79,0
59.392918,59.494614,74,66,0
59.494614,59.603703,87,79,0
59.494614,59.603703,75,66,0
59.712795,59.821884,94,94,0
59.712795,59.821884,86,81,0
59.712795,59.821884,82,75,0
61.130833,61.23464,78,66,0
61.130833,61.23464,81,66,0
61.130833,61.23464,90,79,0
61.442253,61.539024,75,62,0
61.442253,61.539024,78,62,0
61.442253,61.539024,87,73,0
61.539024,61.64733,87,79,0
61.539024,61.64733,78,66,0
61.539024,61.64733,75,66,0
62.080544,62.17826,84,72,0
62.080544,62.17826,75,61,0
62.080544,62.17826,72,61,0
62.17826,62.286564,84,79,0
62.17826,62.286564,75,64,0
62.17826,62.286564,72,64,0
62.609154,62.662727,81,72,0
62.609154,62.662727,69,61,0
62.609154,62.662727,72,61,0
62.716297,62.769867,78,68,0
62.716297,62.769867,66,57,0
62.82344,62.880257,77,68,0
62.82344,62.880257,65,57,0
62.937077,62.993893,75,68,0
62.937077,62.993893,63,57,0
63.050713,63.14875,82,76,0
63.050713,63.14875,74,64,0
63.050713,63.14875,70,64,0
63.35132,63.455505,65,75,0
63.55811,63.659378,63,72,0
63.759354,63.858067,62,70,0
63.955547,64.05183,59,66,0
64.1704,64.429924,58,63,0
64.429924,64.53373,87,76,0
64.429924,64.53373,90,76,0
64.429924,64.53373,99,90,0
64.74134,64.83811,84,71,0
64.74134,64.83811,87,71,0
64.74134,64.83811,96,84,0
64.83811,64.94642,96,90,0
64.83811,64.94642,87,76,0
64.83811,64.94642,84,76,0
65.37963,65.47735,93,82,0
65.37963,65.47735,84,70,0
65.37963,65.47735,81,70,0
65.47735,65.585655,93,90,0
65.47735,65.585655,84,73,0
65.47735,65.585655,81,73,0
65.90824,65.961815,90,82,0
65.90824,65.961815,81,70,0
65.90824,65.961815,78,70,0
66.01538,66.068954,89,78,0
66.01538,66.068954,77,65,0
66.12253,66.179344,88,78,0
66.12253,66.179344,76,65,0
66.23616,66.292984,87,78,0
66.23616,66.292984,75,65,0
66.3498,66.46791,94,87,0
66.3498,66.46791,86,73,0
66.3498,66.46791,82,73,0
66.69055,66.7938,70,54,0
66.69055,66.7938,68,45,0
66.89385,66.99322,70,56,0
66.89385,66.99322,68,47,0
67.0919,67.18992,70,59,0
67.0919,67.18992,68,50,0
67.28727,67.38399,70,62,0
67.28727,67.38399,68,52,0
67.48269,67.584366,70,64,0
67.48269,67.584366,68,54,0
67.584366,67.68453,71,68,0
67.584366,67.68453,59,68,0
67.68453,67.78429,64,56,0
67.78429,67.88354,68,58,0
67.88354,67.982346,71,61,0
67.982346,68.08054,76,63,0
68.08054,68.17775,80,64,0
68.17775,68.27413,83,66,0
68.27413,68.369644,88,68,0
68.369644,68.46433,92,70,0
68.46433,68.5582,94,72,0
68.5582,68.68478,83,63,0
68.5582,68.68478,88,63,0
68.5582,68.68478,95,74,0
68.81136,68.91812,98,92,0
68.81136,68.91812,89,81,0
68.81136,68.91812,86,81,0
69.12941,69.232666,70,56,0
69.12941,69.232666,68,47,0
69.33272,69.43208,70,59,0
69.33272,69.43208,68,49,0
69.53077,69.62878,70,62,0
69.53077,69.62878,68,52,0
69.72613,69.822845,70,64,0
69.72613,69.822845,68,54,0
69.921555,70.02323,70,67,0
69.921555,70.02323,68,57,0
70.02323,70.1234,71,71,0
70.02323,70.1234,59,71,0
70.1234,70.223145,64,59,0
70.223145,70.321434,68,61,0
70.321434,70.419075,71,63,0
70.419075,70.515915,76,65,0
70.515915,70.61186,80,67,0
70.61186,70.70697,83,69,0
70.70697,70.801285,88,71,0
70.801285,70.89475,92,72,0
70.89475,70.9874,94,76,0
70.9874,71.11137,83,65,0
70.9874,71.11137,88,65,0
70.9874,71.11137,95,78,0
71.23534,71.342476,98,97,0
71.23534,71.342476,89,84,0
71.23534,71.342476,86,84,0
71.55676,71.64935,70,66,0
71.55676,71.64935,74,66,0
71.55676,71.64935,82,79,0
71.64935,71.84803,82,74,0
71.64935,71.84803,74,63,0
71.64935,71.84803,70,63,0
71.84803,71.95633,82,80,0
71.84803,71.95633,74,67,0
71.84803,71.95633,70,67,0
72.172935,72.266106,83,83,0
72.172935,72.266106,75,71,0
72.172935,72.266106,71,71,0
72.266106,72.46218,83,77,0
72.266106,72.46218,75,65,0
72.266106,72.46218,71,65,0
72.46218,72.57088,83,83,0
72.46218,72.57088,75,71,0
72.46218,72.57088,71,71,0
72.78827,72.88202,72,72,0
72.78827,72.88202,76,72,0
72.78827,72.88202,84,86,0
72.88202,73.07874,84,80,0
72.88202,73.07874,76,67,0
72.88202,73.07874,72,67,0
73.07874,73.18705,84,84,0
73.07874,73.18705,76,71,0
73.07874,73.18705,72,71,0
73.403656,73.49829,85,86,0
73.403656,73.49829,77,72,0
73.403656,73.49829,73,72,0
73.49829,73.70031,85,81,0
73.49829,73.70031,77,68,0
73.49829,73.70031,73,68,0
73.70031,73.8094,85,85,0
73.70031,73.8094,77,72,0
73.70031,73.8094,73,72,0
74.02758,74.12436,80,72,0
74.02758,74.12436,77,72,0
74.02758,74.12436,89,85,0
74.02758,74.12436,85,85,0
74.12436,74.33197,89,81,0
74.12436,74.33197,77,69,0
74.12436,74.33197,80,69,0
74.12436,74.33197,85,81,0
74.33197,74.43988,89,88,0
74.33197,74.43988,77,74,0
74.33197,74.43988,80,74,0
74.33197,74.43988,85,88,0
74.65571,74.75343,94,92,0
74.65571,74.75343,86,78,0
74.65571,74.75343,80,78,0
74.75343,74.962494,94,86,0
74.75343,74.962494,86,72,0
74.75343,74.962494,80,72,0
74.962494,75.070015,94,94,0
74.962494,75.070015,86,80,0
74.962494,75.070015,80,80,0
75.28507,75.33884,70,53,0
75.3926,75.50012,70,48,0
75.60759,75.71554,70,51,0
75.93671,75.99314,70,43,0
76.04967,76.176254,70,46,0
76.300125,76.51831,79,53,0
76.300125,76.51831,70,37,0
76.300125,76.51831,67,37,0
76.62942,76.68261,75,43,0
76.62942,76.68261,70,33,0
76.7358,76.85119,75,43,0
76.7358,76.85119,70,33,0
76.96657,77.07646,75,49,0
76.96657,77.07646,70,37,0
77.29746,77.350655,70,44,0
77.29746,77.350655,67,34,0
77.40385,77.51968,70,44,0
77.40385,77.51968,67,34,0
77.635506,77.7442,67,51,0
77.635506,77.7442,63,39,0
77.96319,78.01833,63,45,0
77.96319,78.01833,60,36,0
78.07349,78.185844,63,45,0
78.07349,78.185844,60,36,0
78.2982,78.96241,63,51,0
78.2982,78.96241,60,39,0
78.96241,79.18059,70,49,0
78.96241,79.18059,62,37,0
78.96241,79.18059,58,37,0
79.2917,79.34726,65,44,0
79.2917,79.34726,58,34,0
79.40281,79.51392,65,44,0
79.40281,79.51392,58,34,0
79.62504,79.73218,64,49,0
79.62504,79.73218,58,37,0
79.83932,79.94881,65,51,0
79.83932,79.94881,58,39,0
80.0583,80.21214,70,51,0
80.0583,80.21214,66,39,0
80.0583,80.21214,58,39,0
80.36599,81.06638,70,54,0
80.36599,81.06638,67,42,0
80.36599,81.06638,58,42,0
81.06638,81.29279,67,49,0
81.06638,81.29279,63,37,0
81.74563,81.963806,79,53,0
81.74563,81.963806,75,37,0
81.74563,81.963806,70,37,0
82.07492,82.128296,75,43,0
82.07492,82.128296,70,33,0
82.07492,82.128296,67,33,0
82.18168,82.297066,75,43,0
82.18168,82.297066,70,33,0
82.18168,82.297066,67,33,0
82.412445,82.52234,75,49,0
82.412445,82.52234,70,37,0
82.412445,82.52234,67,37,0
82.73983,82.79539,70,44,0
82.73983,82.79539,67,34,0
82.73983,82.79539,63,34,0
82.850945,82.966774,70,44,0
82.850945,82.966774,67,34,0
82.850945,82.966774,63,34,0
83.0826,83.1913,67,51,0
83.0826,83.1913,63,39,0
83.410286,83.46386,63,45,0
83.410286,83.46386,60,36,0
83.51743,83.62979,63,45,0
83.51743,83.62979,60,36,0
83.74215,84.40636,63,51,0
83.74215,84.40636,60,39,0
84.40636,84.62454,71,49,0
84.40636,84.62454,62,37,0
84.40636,84.62454,59,37,0
84.73565,84.79121,62,44,0
84.73565,84.79121,59,34,0
84.84676,84.95787,62,44,0
84.84676,84.95787,59,34,0
85.068985,85.176125,61,49,0
85.068985,85.176125,59,37,0
85.28327,85.39275,62,51,0
85.28327,85.39275,59,39,0
85.50224,85.65609,67,51,0
85.50224,85.65609,62,39,0
85.50224,85.65609,59,39,0
85.80994,86.51582,71,54,0
85.80994,86.51582,67,42,0
85.80994,86.51582,59,42,0
86.51582,87.2217,70,49,0
86.51582,87.2217,62,37,0
86.51582,87.2217,58,37,0
87.2217,87.43989,91,78,0
87.2217,87.43989,82,60,0
87.2217,87.43989,79,60,0
87.55572,87.60691,87,64,0
87.55572,87.60691,79,54,0
87.55572,87.60691,75,54,0
87.658104,87.77349,87,64,0
87.658104,87.77349,79,54,0
87.658104,87.77349,75,54,0
87.88887,87.998764,87,72,0
87.88887,87.998764,79,60,0
87.88887,87.998764,75,60,0
88.22493,88.2772,82,63,0
88.22493,88.2772,75,53,0
88.22493,88.2772,70,53,0
88.32946,88.44529,82,63,0
88.32946,88.44529,75,53,0
88.32946,88.44529,70,53,0
88.56112,88.669815,79,72,0
88.56112,88.669815,75,61,0
88.56112,88.669815,67,61,0
88.89045,88.94346,75,64,0
88.89045,88.94346,72,54,0
88.89045,88.94346,67,54,0
88.99646,89.10882,75,64,0
88.99646,89.10882,72,54,0
88.99646,89.10882,67,54,0
89.221176,89.88538,75,71,0
89.221176,89.88538,72,60,0
89.221176,89.88538,67,60,0
89.88538,90.10357,82,60,0
89.88538,90.10357,68,50,0
89.88538,90.10357,70,50,0
89.88538,90.10357,74,50,0
90.214676,90.27023,77,54,0
90.214676,90.27023,70,45,0
90.214676,90.27023,68,45,0
90.32579,90.4369,77,54,0
90.32579,90.4369,70,45,0
90.32579,90.4369,68,45,0
90.54801,90.65515,76,60,0
90.54801,90.65515,70,50,0
90.54801,90.65515,68,50,0
90.7623,90.87179,77,63,0
90.7623,90.87179,70,54,0
90.7623,90.87179,68,54,0
90.98128,91.135124,82,63,0
90.98128,91.135124,68,54,0
90.98128,91.135124,70,54,0
90.98128,91.135124,78,54,0
91.28896,91.955635,82,67,0
91.28896,91.955635,79,56,0
91.28896,91.955635,70,56,0
91.955635,92.17786,79,60,0
91.955635,92.17786,70,50,0
91.955635,92.17786,67,50,0
92.6223,92.840485,99,87,0
92.6223,92.840485,91,67,0
92.6223,92.840485,87,67,0
92.95455,93.006454,94,72,0
92.95455,93.006454,87,60,0
92.95455,93.006454,82,60,0
93.05836,93.17374,94,72,0
93.05836,93.17374,87,61,0
93.05836,93.17374,82,61,0
93.28912,93.39902,94,82,0
93.28912,93.39902,87,69,0
93.28912,93.39902,82,69,0
93.62126,93.67299,91,72,0
93.62126,93.67299,87,62,0
93.62126,93.67299,79,62,0
93.72471,93.840546,91,73,0
93.72471,93.840546,87,62,0
93.72471,93.840546,79,62,0
93.956375,94.06507,91,86,0
93.956375,94.06507,87,72,0
93.956375,94.06507,79,72,0
94.285706,94.33909,87,78,0
94.285706,94.33909,84,66,0
94.285706,94.33909,75,66,0
94.39246,94.50482,87,79,0
94.39246,94.50482,84,66,0
94.39246,94.50482,75,66,0
94.61719,95.28139,87,87,0
94.61719,95.28139,84,74,0
94.61719,95.28139,75,74,0
95.28139,95.49957,95,87,0
95.28139,95.49957,86,72,0
95.28139,95.49957,83,72,0
95.6111,95.66282,86,78,0
95.6111,95.66282,83,64,0
95.6111,95.66282,74,64,0
95.71455,95.82484,86,78,0
95.71455,95.82484,83,64,0
95.71455,95.82484,74,64,0
95.935135,96.042274,85,82,0
95.935135,96.042274,82,68,0
95.935135,96.042274,73,68,0
96.14942,96.25891,86,90,0
96.14942,96.25891,83,77,0
96.14942,96.25891,74,77,0
96.36839,96.49498,91,90,0
96.36839,96.49498,83,77,0
96.36839,96.49498,79,77,0
96.62156,96.839745,83,72,0
96.62156,96.839745,95,87,0
96.62156,96.839745,86,72,0
96.9521,97.00492,86,64,0
96.9521,97.00492,90,78,0
96.9521,97.00492,78,64,0
97.05774,97.168846,90,78,0
97.05774,97.168846,78,64,0
97.05774,97.168846,86,64,0
97.27996,97.946625,86,72,0
97.27996,97.946625,90,87,0
97.27996,97.946625,78,72,0
97.946625,98.1648,94,78,0
97.946625,98.1648,85,64,0
97.946625,98.1648,82,64,0
98.27717,98.32889,85,70,0
98.27717,98.32889,82,57,0
98.27717,98.32889,73,57,0
98.380615,98.49172,85,70,0
98.380615,98.49172,82,57,0
98.380615,98.49172,73,57,0
98.60284,98.70998,84,78,0
98.60284,98.70998,81,64,0
98.60284,98.70998,72,64,0
98.81712,98.92661,85,81,0
98.81712,98.92661,82,69,0
98.81712,98.92661,73,69,0
99.0361,99.16268,90,81,0
99.0361,99.16268,82,69,0
99.0361,99.16268,78,69,0
99.28926,99.50745,82,64,0
99.28926,99.50745,94,78,0
99.28926,99.50745,85,64,0
99.61856,99.67156,85,57,0
99.61856,99.67156,89,70,0
99.61856,99.67156,77,57,0
99.72456,99.83568,89,70,0
99.72456,99.83568,77,57,0
99.72456,99.83568,85,57,0
99.946785,100.61345,85,64,0
99.946785,100.61345,89,78,0
99.946785,100.61345,77,64,0
100.61345,100.831635,93,70,0
100.61345,100.831635,84,59,0
100.61345,100.831635,81,59,0
100.94274,100.99575,84,61,0
100.94274,100.99575,81,61,0
100.94274,100.99575,72,51,0
101.04875,101.15987,84,61,0
101.04875,101.15987,81,61,0
101.04875,101.15987,72,51,0
101.27097,101.37812,88,72,0
101.27097,101.37812,84,61,0
101.27097,101.37812,76,61,0
101.59475,101.646835,87,64,0
101.59475,101.646835,83,54,0
101.59475,101.646835,75,54,0
101.69891,101.8255,88,64,0
101.69891,101.8255,84,54,0
101.69891,101.8255,76,54,0
101.95208,102.170265,92,70,0
101.95208,102.170265,83,59,0
101.95208,102.170265,80,59,0
102.28137,102.33419,83,61,0
102.28137,102.33419,80,61,0
102.28137,102.33419,71,51,0
102.38701,102.49771,83,61,0
102.38701,102.49771,80,61,0
102.38701,102.49771,71,51,0
102.608406,102.71555,87,72,0
102.608406,102.71555,83,61,0
102.608406,102.71555,75,61,0
102.93218,102.98482,86,64,0
102.93218,102.98482,83,54,0
102.93218,102.98482,74,54,0
103.037445,103.16403,87,64,0
103.037445,103.16403,83,54,0
103.037445,103.16403,75,54,0
103.29061,103.50879,91,70,0
103.29061,103.50879,82,59,0
103.29061,103.50879,79,59,0
103.6199,103.67181,79,60,0
103.6199,103.67181,75,60,0
103.6199,103.67181,70,50,0
103.72371,103.83482,79,60,0
103.72371,103.83482,75,60,0
103.72371,103.83482,70,50,0
103.94593,104.05308,90,71,0
103.94593,104.05308,82,59,0
103.94593,104.05308,78,59,0
104.26971,104.32161,78,62,0
104.26971,104.32161,75,53,0
104.26971,104.32161,70,53,0
104.37351,104.50009,78,62,0
104.37351,104.50009,75,52,0
104.37351,104.50009,70,52,0
104.62668,104.84486,88,66,0
104.62668,104.84486,80,55,0
104.62668,104.84486,76,55,0
104.95597,105.00734,76,56,0
104.95597,105.00734,71,56,0
104.95597,105.00734,68,47,0
105.05871,105.16982,76,56,0
105.05871,105.16982,71,56,0
105.05871,105.16982,68,47,0
105.28093,105.38808,87,67,0
105.28093,105.38808,78,56,0
105.28093,105.38808,75,56,0
105.604706,105.65661,75,59,0
105.604706,105.65661,69,50,0
105.604706,105.65661,66,50,0
105.70851,105.8351,75,58,0
105.70851,105.8351,69,49,0
105.70851,105.8351,66,49,0
105.898384,105.96168,87,76,0
105.96168,106.17986,85,82,0
105.96168,106.17986,73,70,0
106.29097,106.342514,73,56,0
106.29097,106.342514,70,56,0
106.29097,106.342514,66,47,0
106.394066,106.50517,73,56,0
106.394066,106.50517,70,56,0
106.394066,106.50517,67,47,0
106.61629,106.72343,73,67,0
106.61629,106.72343,70,56,0
106.61629,106.72343,67,56,0
106.94168,106.993225,73,59,0
106.94168,106.993225,71,50,0
106.94168,106.993225,68,50,0
107.04478,107.17136,73,58,0
107.04478,107.17136,68,49,0
107.04478,107.17136,65,49,0
107.23465,107.297935,87,76,0
107.297935,107.51612,85,82,0
107.297935,107.51612,73,70,0
107.627235,107.67878,73,56,0
107.627235,107.67878,70,56,0
107.627235,107.67878,66,47,0
107.73032,107.84144,73,56,0
107.73032,107.84144,70,56,0
107.73032,107.84144,67,47,0
107.952545,108.05969,73,67,0
107.952545,108.05969,70,56,0
107.952545,108.05969,67,56,0
108.27795,108.32949,73,59,0
108.27795,108.32949,71,50,0
108.27795,108.32949,68,50,0
108.381035,108.50762,73,58,0
108.381035,108.50762,68,49,0
108.381035,108.50762,65,49,0
108.57091,108.6342,83,76,0
108.6342,108.85238,82,82,0
108.6342,108.85238,70,70,0
108.964325,109.0164,70,56,0
108.964325,109.0164,66,56,0
108.964325,109.0164,63,47,0
109.06849,109.1796,70,56,0
109.06849,109.1796,67,56,0
109.06849,109.1796,64,47,0
109.29071,109.39786,70,67,0
109.29071,109.39786,67,56,0
109.29071,109.39786,64,56,0
109.6157,109.66742,70,59,0
109.6157,109.66742,68,50,0
109.6157,109.66742,65,50,0
109.71915,109.845726,70,58,0
109.71915,109.845726,65,49,0
109.71915,109.845726,62,49,0
109.90902,109.97231,83,76,0
109.97231,110.19619,82,78,0
109.97231,110.19619,70,66,0
110.31338,110.36935,70,50,0
110.31338,110.36935,66,50,0
110.31338,110.36935,63,42,0
110.425316,110.55632,70,48,0
110.425316,110.55632,67,48,0
110.425316,110.55632,64,41,0
110.687325,110.81338,70,55,0
110.687325,110.81338,67,46,0
110.687325,110.81338,64,46,0
111.078964,111.14873,70,45,0
111.078964,111.14873,68,38,0
111.078964,111.14873,65,38,0
111.2185,111.36628,70,43,0
111.2185,111.36628,65,36,0
111.2185,111.36628,62,36,0
111.63803,111.762,55,28,0
111.762,111.88596,58,28,0
112.00993,112.1339,55,26,0
112.1339,112.257866,58,26,0
111.88596,112.257866,65,45,0
112.37982,112.50177,55,25,0
112.50177,112.62372,58,26,0
112.257866,112.62372,63,45,0
112.745674,112.87388,55,26,0
112.87388,113.00208,58,26,0
112.62372,113.00208,62,45,0
111.51407,113.00208,67,49,0
113.12554,113.24899,55,28,0
113.24899,113.37245,58,28,0
113.49591,113.62249,55,25,0
113.62249,113.74908,57,25,0
113.37245,113.74908,60,46,0
113.00208,113.74908,67,53,0
113.87253,113.99599,55,27,0
113.99599,114.119446,58,27,0
114.119446,114.242905,63,37,0
114.242905,114.3739,55,25,0
114.3739,114.504906,58,25,0
113.74908,114.504906,67,49,0
114.628876,114.752846,56,28,0
114.752846,114.87681,59,28,0
114.504906,114.87681,67,49,0
115.00078,115.12224,56,27,0
115.12224,115.24369,59,27,0
114.87681,115.24369,64,45,0
115.36466,115.48563,56,27,0
115.48563,115.6066,59,27,0
115.24369,115.6066,65,52,0
115.72756,115.85577,56,29,0
115.85577,115.98397,59,30,0
115.6066,115.98397,67,58,0
116.104454,116.22494,56,33,0
116.22494,116.35099,62,33,0
115.98397,116.35099,68,61,0
116.477036,116.62779,56,32,0
116.62779,116.77855,62,36,0
116.35099,116.77855,69,61,0
116.902,117.02546,56,35,0
117.02546,117.14892,62,33,0
116.77855,117.14892,72,65,0
117.27238,117.40003,56,27,0
117.40003,117.527695,62,27,0
117.14892,117.527695,70,52,0
117.65166,117.77563,55,28,0
117.77563,117.8996,58,28,0
118.02356,118.14753,55,26,0
118.14753,118.27149,58,26,0
117.8996,118.27149,65,45,0
118.39345,118.515396,55,25,0
118.515396,118.637344,58,26,0
118.27149,118.637344,63,45,0
118.7593,118.887505,55,26,0
118.887505,119.01571,58,26,0
118.637344,119.01571,62,45,0
117.527695,119.01571,67,49,0
119.13917,119.26263,55,28,0
119.26263,119.38608,58,28,0
119.50954,119.636116,55,25,0
119.636116,119.7627,57,25,0
119.38608,119.7627,60,44,0
119.01571,119.7627,67,53,0
119.88465,120.00661,55,27,0
120.00661,120.128555,58,27,0
120.128555,120.2505,63,37,0
120.2505,120.38151,55,25,0
120.38151,120.51251,58,25,0
119.7627,120.51251,67,49,0
120.63648,120.76045,57,28,0
120.76045,120.884415,60,28,0
120.51251,120.884415,67,56,0
121.008385,121.12984,57,32,0
121.12984,121.2513,60,32,0
120.884415,121.2513,66,56,0
121.37178,121.49226,60,30,0
121.49226,121.61275,62,33,0
121.2513,121.61275,70,63,0
121.73322,121.8631,60,35,0
121.8631,121.992966,62,35,0
121.61275,121.992966,69,62,0
122.11394,122.2349,58,39,0
122.2349,122.360954,62,40,0
121.992966,122.360954,72,68,0
122.487,122.63776,58,36,0
122.63776,122.78851,62,40,0
122.360954,122.78851,70,67,0
122.911964,123.03542,62,41,0
123.03542,123.15888,65,38,0
122.78851,123.15888,74,72,0
123.28234,123.409996,62,33,0
123.409996,123.53766,70,33,0
123.15888,123.53766,72,60,0
123.66162,123.78559,67,47,0
123.78559,123.90956,70,47,0
124.03352,124.15749,67,44,0
124.15749,124.281456,70,44,0
123.90956,124.281456,77,58,0
124.40341,124.52536,67,42,0
124.52536,124.64731,70,44,0
124.281456,124.64731,75,57,0
124.769264,124.89747,67,44,0
124.89747,125.02567,70,44,0
124.64731,125.02567,74,57,0
123.53766,125.02567,79,63,0
125.14863,125.271576,67,47,0
125.271576,125.39452,70,47,0
125.51748,125.64406,67,42,0
125.64406,125.770645,69,42,0
125.39452,125.770645,72,56,0
125.02567,125.770645,79,67,0
125.89309,126.01554,67,45,0
126.01554,126.137985,70,45,0
126.137985,126.26044,75,57,0
126.26044,126.39144,67,42,0
126.39144,126.522446,70,42,0
125.770645,126.522446,79,63,0
126.522446,126.646416,67,47,0
126.646416,126.77038,68,47,0
126.77038,126.89435,71,47,0
126.522446,126.89435,79,63,0
126.89435,127.01831,64,45,0
127.01831,127.13977,68,45,0
127.13977,127.26123,71,45,0
126.89435,127.26123,76,58,0
127.26123,127.381714,65,45,0
127.381714,127.50219,68,45,0
127.50219,127.62267,71,45,0
127.26123,127.62267,77,66,0
127.62267,127.74316,67,48,0
127.74316,127.873024,71,48,0
127.873024,128.0029,74,50,0
127.62267,128.0029,79,71,0
128.0029,128.12436,68,54,0
128.12436,128.24582,74,54,0
128.24582,128.37186,77,54,0
128.0029,128.37186,80,75,0
128.37186,128.49791,69,54,0
128.49791,128.64867,74,54,0
128.64867,128.79942,77,60,0
128.37186,128.79942,81,75,0
128.79942,128.92929,72,57,0
128.92929,129.05916,74,57,0
129.05916,129.18211,77,54,0
128.79942,129.18211,84,80,0
129.18211,129.30507,70,45,0
129.30507,129.43272,74,45,0
129.43272,129.56038,77,45,0
129.18211,129.56038,82,63,0
129.68434,129.80832,67,47,0
129.80832,129.93228,70,47,0
130.05624,130.18022,67,44,0
130.18022,130.30418,70,44,0
129.93228,130.30418,77,58,0
130.42613,130.54808,67,42,0
130.54808,130.67004,70,44,0
130.30418,130.67004,75,57,0
130.79199,130.9202,67,44,0
130.9202,131.0484,70,44,0
130.67004,131.0484,74,57,0
129.56038,131.0484,79,63,0
131.17186,131.29532,67,47,0
131.29532,131.41876,70,47,0
131.54222,131.66881,67,42,0
131.66881,131.7954,69,42,0
131.41876,131.7954,72,56,0
131.0484,131.7954,79,67,0
131.91885,132.0423,67,45,0
132.0423,132.16426,70,45,0
132.16426,132.28621,75,57,0
132.28621,132.4172,67,42,0
132.4172,132.54822,70,42,0
131.7954,132.54822,79,63,0
132.54822,132.67218,67,47,0
132.67218,132.79614,69,47,0
132.79614,132.92012,72,47,0
132.54822,132.92012,79,72,0
132.92012,133.04408,66,54,0
133.04408,133.17862,69,54,0
133.17862,133.31314,72,54,0
132.92012,133.31314,78,71,0
133.31314,133.4346,75,52,0
133.4346,133.55606,78,51,0
133.55606,133.67752,81,54,0
133.31314,133.67752,87,82,0
133.67752,133.79897,74,50,0
133.79897,133.92885,78,57,0
133.92885,134.05872,81,58,0
133.67752,134.05872,86,81,0
134.05872,134.18018,74,50,0
134.18018,134.30162,79,63,0
134.30162,134.42767,83,62,0
134.05872,134.42767,86,83,0
134.42767,134.55373,71,48,0
134.55373,134.68474,74,60,0
134.68474,134.81573,79,61,0
134.42767,134.81573,83,70,0
134.81573,134.9392,67,47,0
134.9392,135.06265,71,54,0
135.06265,135.18611,74,54,0
134.81573,135.18611,79,66,0
135.18611,135.30957,67,46,0
135.30957,135.43723,71,54,0
135.43723,135.56488,74,50,0
135.18611,135.56488,79,66,0
135.68884,135.81282,67,47,0
135.81282,135.93678,71,47,0
136.06075,136.18472,67,44,0
136.18472,136.30869,71,44,0
135.93678,136.30869,78,58,0
136.43063,136.55258,67,42,0
136.55258,136.67455,71,44,0
136.30869,136.67455,76,57,0
136.7965,136.9247,67,44,0
136.9247,137.0529,71,44,0
136.67455,137.0529,74,57,0
135.56488,137.0529,79,63,0
137.17636,137.29982,67,47,0
137.29982,137.42126,71,47,0
137.54272,137.66931,67,42,0
137.66931,137.7959,71,42,0
137.42126,137.7959,72,56,0
137.0529,137.7959,79,67,0
137.91833,138.04079,67,45,0
138.04079,138.16324,71,45,0
138.16324,138.28569,76,57,0
138.28569,138.41669,67,42,0
138.41669,138.5477,71,42,0
137.7959,138.5477,79,63,0
138.5477,138.67166,67,47,0
138.67166,138.79564,69,47,0
138.79564,138.9196,75,47,0
138.5477,138.9196,79,63,0
138.9196,139.04356,65,45,0
139.04356,139.16502,69,45,0
139.16502,139.28648,75,45,0
138.9196,139.28648,77,58,0
139.28648,139.40648,66,45,0
139.40648,139.52647,69,45,0
139.52647,139.64648,75,45,0
139.28648,139.64648,78,66,0
139.64648,139.76648,67,48,0
139.76648,139.89635,69,48,0
139.89635,140.02621,75,50,0
139.64648,140.02621,79,72,0
140.02621,140.1467,68,54,0
140.1467,140.26718,75,54,0
140.26718,140.39323,78,54,0
140.02621,140.39323,80,75,0
140.39323,140.51929,69,54,0
140.51929,140.67004,75,54,0
140.67004,140.8208,78,60,0
140.39323,140.8208,81,75,0
140.8208,140.95067,72,57,0
140.95067,141.08054,75,57,0
141.08054,141.20349,78,54,0
140.8208,141.20349,84,80,0
141.20349,141.32643,71,45,0
141.32643,141.4541,75,45,0
141.4541,141.58176,78,45,0
141.20349,141.58176,83,63,0
141.70572,141.82968,67,47,0
141.82968,141.95366,71,47,0
142.07762,142.20158,67,44,0
142.20158,142.32556,71,44,0
141.95366,142.32556,78,58,0
142.44751,142.56946,67,42,0
142.56946,142.6914,71,44,0
142.32556,142.6914,76,57,0
142.81335,142.94157,67,44,0
142.94157,143.06978,71,44,0
142.6914,143.06978,74,57,0
141.58176,143.06978,79,63,0
143.19322,143.31668,67,47,0
143.31668,143.44014,71,47,0
143.5636,143.69019,67,42,0
143.69019,143.81676,71,42,0
143.44014,143.81676,72,56,0
143.06978,143.81676,79,67,0
143.93921,144.06166,67,45,0
144.06166,144.18411,71,45,0
144.18411,144.30656,76,57,0
144.30656,144.43756,67,42,0
144.43756,144.56857,71,42,0
143.81676,144.56857,79,63,0
144.56857,144.69254,67,47,0
144.69254,144.8165,69,47,0
144.8165,144.94048,72,47,0
144.56857,144.94048,79,72,0
144.94048,145.06444,65,64,0
145.06444,145.1921,69,54,0
145.1921,145.31975,72,54,0
144.94048,145.31975,77,64,0
145.31975,145.44023,66,68,0
145.44023,145.56071,69,51,0
145.56071,145.6812,72,54,0
145.31975,145.6812,78,68,0
145.6812,145.80168,67,72,0
145.80168,145.93155,69,57,0
145.93155,146.06142,72,58,0
145.6812,146.06142,79,72,0
146.06142,146.18094,68,77,0
146.18094,146.30046,72,60,0
146.30046,146.42651,78,60,0
146.06142,146.42651,80,77,0
146.42651,146.55257,69,72,0
146.55257,146.69275,72,60,0
146.69275,146.83295,78,57,0
146.42651,146.83295,81,72,0
146.83295,146.9564,75,79,0
146.9564,147.07985,78,54,0
147.07985,147.20331,81,54,0
146.83295,147.20331,87,79,0
147.20331,147.32677,74,46,0
147.32677,147.45442,78,54,0
147.45442,147.58209,81,50,0
147.20331,147.58209,86,66,0
147.70605,147.83002,70,47,0
147.83002,147.954,74,47,0
148.07796,148.20192,70,50,0
148.20192,148.3259,74,50,0
147.954,148.3259,81,60,0
148.44785,148.5698,70,51,0
148.5698,148.69174,74,54,0
148.3259,148.69174,79,62,0
148.81369,148.9419,70,53,0
148.9419,149.0701,75,55,0
148.69174,149.0701,77,63,0
147.58209,149.0701,82,63,0
149.19356,149.31702,72,54,0
149.31702,149.44048,75,56,0
149.56393,149.69052,72,52,0
149.69052,149.8171,75,53,0
149.44048,149.8171,82,66,0
149.0701,149.8171,84,72,0
149.8171,149.94005,81,50,0
149.94005,150.063,72,48,0
150.063,150.18594,75,48,0
150.3089,150.43991,72,46,0
150.43991,150.5709,75,46,0
150.18594,150.5709,78,63,0
149.8171,150.5709,84,65,0
150.69487,150.81885,73,54,0
150.81885,150.94281,77,54,0
151.06677,151.19075,73,57,0
151.19075,151.31471,77,57,0
150.94281,151.31471,84,69,0
151.43666,151.55861,73,58,0
151.55861,151.68057,77,62,0
151.31471,151.68057,82,71,0
151.80252,151.93073,73,60,0
151.93073,152.05893,78,63,0
151.68057,152.05893,80,72,0
150.5709,152.05893,85,72,0
152.18239,152.30585,75,62,0
152.30585,152.42929,78,64,0
152.55275,152.67934,75,59,0
152.67934,152.80592,78,60,0
152.42929,152.80592,85,76,0
152.05893,152.80592,87,82,0
152.80592,152.92938,84,57,0
152.92938,153.05283,75,55,0
153.05283,153.17528,78,55,0
153.29773,153.42874,75,53,0
153.42874,153.55974,80,53,0
153.17528,153.55974,81,72,0
152.80592,153.55974,87,74,0
153.6837,153.80768,77,59,0
153.80768,153.93164,80,59,0
154.0556,154.17958,77,63,0
154.17958,154.30354,80,63,0
153.93164,154.30354,87,75,0
154.42549,154.54744,77,63,0
154.54744,154.66939,80,67,0
154.30354,154.66939,85,77,0
154.79135,154.91956,77,65,0
154.91956,155.04776,80,70,0
154.66939,155.04776,84,79,0
153.55974,155.04776,89,79,0
155.17122,155.29466,75,67,0
155.29466,155.41812,80,71,0
155.54158,155.66817,75,64,0
155.66817,155.79475,80,65,0
155.41812,155.79475,83,83,0
155.04776,155.79475,89,90,0
155.91719,156.03964,75,61,0
156.03964,156.1621,80,61,0
156.28455,156.41554,75,57,0
156.41554,156.54655,80,57,0
156.1621,156.54655,83,80,0
155.79475,156.54655,89,81,0
156.669,156.79144,74,67,0
156.79144,156.9139,80,54,0
156.79144,156.9139,82,71,0
156.54655,156.9139,89,90,0
157.03635,157.16293,74,66,0
157.16293,157.2895,80,54,0
157.16293,157.2895,82,67,0
156.9139,157.2895,89,84,0
157.41772,157.54593,74,63,0
157.54593,157.67986,80,54,0
157.54593,157.67986,82,64,0
157.2895,157.67986,90,85,0
157.67986,157.81378,90,85,0
157.81378,157.95663,74,62,0
157.95663,158.09949,80,54,0
157.95663,158.09949,82,62,0
158.09949,158.22554,91,90,0
158.22554,158.3516,82,59,0
158.3516,158.47765,87,59,0
158.09949,158.47765,79,75,0
158.47765,158.6037,89,81,0
158.6037,158.72975,79,54,0
158.72975,158.8558,82,54,0
158.47765,158.8558,77,67,0
158.8558,158.97874,87,80,0
158.97874,159.1017,79,53,0
159.1017,159.22466,82,54,0
158.8558,159.22466,75,66,0
159.22466,159.3476,86,81,0
159.3476,159.4758,79,54,0
159.4758,159.604,82,54,0
159.22466,159.604,74,67,0
159.604,159.72746,84,84,0
159.72746,159.85092,75,59,0
159.85092,159.97438,79,59,0
159.604,159.97438,72,66,0
159.97438,160.09784,81,79,0
160.09784,160.22443,75,53,0
160.22443,160.351,79,53,0
159.97438,160.351,69,66,0
160.351,160.47446,82,82,0
160.47446,160.59792,75,56,0
160.59792,160.72087,79,56,0
160.351,160.72087,70,70,0
160.72087,160.84381,79,73,0
160.84381,160.97482,82,53,0
160.97482,161.10582,87,53,0
160.72087,161.10582,91,87,0
161.10582,161.2298,79,73,0
161.2298,161.35376,83,59,0
161.35376,161.47772,86,59,0
161.10582,161.47772,91,87,0
161.47772,161.6017,76,69,0
161.6017,161.72218,83,55,0
161.72218,161.84265,86,55,0
161.47772,161.84265,88,81,0
161.84265,161.96313,77,75,0
161.96313,162.08362,83,55,0
162.08362,162.2041,86,55,0
161.84265,162.2041,89,90,0
162.2041,162.32458,79,80,0
162.32458,162.45445,83,61,0
162.45445,162.58432,86,63,0
162.2041,162.58432,91,94,0
162.58432,162.7048,80,81,0
162.7048,162.82529,86,69,0
162.82529,162.95134,89,69,0
162.58432,162.95134,92,96,0
162.95134,163.0774,81,82,0
163.0774,163.22517,86,67,0
163.22517,163.37296,89,75,0
162.95134,163.37296,93,94,0
163.37296,163.50282,84,89,0
163.50282,163.6327,86,72,0
163.6327,163.75565,89,69,0
163.37296,163.75565,96,99,0
163.75565,163.8786,82,76,0
163.8786,164.00626,86,56,0
164.00626,164.13393,89,56,0
163.75565,164.13393,94,90,0
164.13393,164.25789,91,90,0
164.25789,164.38185,82,59,0
164.38185,164.50581,87,59,0
164.13393,164.50581,79,75,0
164.50581,164.62979,89,81,0
164.62979,164.75375,79,54,0
164.75375,164.87772,82,54,0
164.50581,164.87772,77,67,0
164.87772,164.99968,87,80,0
164.99968,165.12163,79,53,0
165.12163,165.24211,82,54,0
164.87772,165.24211,75,66,0
165.24211,165.3626,86,81,0
165.3626,165.4908,79,54,0
165.4908,165.619,82,54,0
165.24211,165.619,74,67,0
165.619,165.74246,84,84,0
165.74246,165.8659,75,59,0
165.8659,165.98936,79,59,0
165.619,165.98936,72,66,0
165.98936,166.11282,81,79,0
166.11282,166.23941,75,53,0
166.23941,166.36598,79,53,0
165.98936,166.36598,69,66,0
166.36598,166.48843,82,82,0
166.48843,166.61089,75,56,0
166.61089,166.73334,79,56,0
166.36598,166.73334,70,70,0
166.73334,166.85579,91,87,0
166.73334,166.85579,79,73,0
166.85579,166.98679,82,53,0
166.98679,167.1178,87,53,0
167.1178,167.24176,79,73,0
167.24176,167.36572,81,59,0
167.36572,167.4897,84,59,0
167.1178,167.4897,91,87,0
167.4897,167.61366,78,69,0
167.61366,167.75128,81,63,0
167.75128,167.88889,84,64,0
167.4897,167.88889,90,81,0
167.88889,168.01085,87,89,0
168.01085,168.1328,90,67,0
168.1328,168.25475,93,67,0
167.88889,168.25475,99,100,0
168.25475,168.3767,86,82,0
168.3767,168.50656,90,67,0
168.50656,168.63644,93,67,0
168.25475,168.63644,98,96,0
168.63644,168.75789,86,81,0
168.75789,168.87935,91,69,0
168.87935,169.0054,95,69,0
168.63644,169.0054,98,95,0
169.0054,169.13145,83,79,0
169.13145,169.25966,86,67,0
169.25966,169.38786,91,65,0
169.0054,169.38786,95,91,0
169.38786,169.51773,79,70,0
169.51773,169.6476,83,63,0
169.6476,169.77055,86,63,0
169.38786,169.77055,91,83,0
169.77055,169.89351,79,64,0
169.89351,170.02116,83,58,0
170.02116,170.14882,86,59,0
169.77055,170.14882,91,90,0
170.14882,170.27028,80,74,0
170.27028,170.39174,84,63,0
170.39174,170.5157,87,63,0
170.14882,170.5157,92,88,0
170.5157,170.63968,79,72,0
170.63968,170.76788,84,62,0
170.76788,170.89609,87,60,0
170.5157,170.89609,91,85,0
170.89609,171.02596,77,67,0
171.02596,171.15582,79,60,0
171.15582,171.27878,84,58,0
170.89609,171.27878,89,80,0
171.27878,171.40173,75,59,0
171.40173,171.52939,79,52,0
171.52939,171.65704,84,52,0
171.27878,171.65704,87,82,0
171.65704,171.7785,75,66,0
171.7785,171.89996,80,56,0
171.89996,172.02602,84,56,0
171.65704,172.02602,87,79,0
172.02602,172.15205,74,64,0
172.15205,172.28027,80,55,0
172.28027,172.40848,84,54,0
172.02602,172.40848,86,76,0
172.40848,172.53835,74,60,0
172.53835,172.66821,80,54,0
172.66821,172.79117,84,52,0
172.40848,172.79117,86,72,0
172.79117,172.91411,74,53,0
172.91411,173.04178,80,46,0
173.04178,173.16943,84,46,0
172.79117,173.16943,86,73,0
173.16943,173.2909,75,59,0
173.2909,173.41235,79,50,0
173.41235,173.53839,83,50,0
173.16943,173.53839,87,71,0
173.53839,173.66444,74,57,0
173.66444,173.79265,79,49,0
173.79265,173.92085,83,48,0
173.53839,173.92085,86,68,0
173.92085,174.05186,72,54,0
174.05186,174.18286,74,48,0
174.18286,174.30582,79,46,0
173.92085,174.30582,84,64,0
174.30582,174.42877,71,47,0
174.42877,174.55643,74,41,0
174.55643,174.68408,79,41,0
174.30582,174.68408,83,65,0
174.68408,174.80554,68,55,0
174.80554,174.927,71,47,0
174.927,175.05305,74,47,0
174.68408,175.05305,80,67,0
175.05305,175.17911,67,54,0
175.17911,175.30731,71,46,0
175.30731,175.43552,74,45,0
175.05305,175.43552,79,64,0
175.43552,175.56538,67,51,0
175.56538,175.69525,71,45,0
175.69525,175.8182,74,44,0
175.43552,175.8182,79,61,0
175.8182,175.94116,67,45,0
175.94116,176.06882,71,38,0
176.06882,176.19647,74,38,0
175.8182,176.19647,79,62,0
176.19647,176.31793,70,52,0
176.31793,176.43939,72,45,0
176.43939,176.56544,75,45,0
176.19647,176.56544,82,63,0
176.56544,176.6915,68,51,0
176.6915,176.8197,72,44,0
176.8197,176.9479,75,43,0
176.56544,176.9479,80,61,0
176.9479,177.07777,67,48,0
177.07777,177.20764,72,43,0
177.20764,177.3306,75,41,0
176.9479,177.3306,79,57,0
177.3306,177.45354,65,42,0
177.45354,177.5812,67,36,0
177.5812,177.70886,72,36,0
177.3306,177.70886,77,58,0
177.70886,177.83032,63,49,0
177.83032,177.95178,68,42,0
177.95178,178.07784,72,42,0
177.70886,178.07784,75,60,0
178.07784,178.20387,62,48,0
178.20387,178.33208,68,41,0
178.33208,178.4603,72,40,0
178.07784,178.4603,74,57,0
178.4603,178.59016,62,45,0
178.59016,178.72003,68,40,0
178.72003,178.84299,72,38,0
178.4603,178.84299,74,54,0
178.84299,178.96593,62,39,0
178.96593,179.09041,68,34,0
179.09041,179.21489,72,34,0
178.84299,179.21489,74,54,0
179.21489,179.33635,63,49,0
179.33635,179.45781,67,42,0
179.45781,179.58177,71,42,0
179.21489,179.58177,75,60,0
179.58177,179.70575,62,48,0
179.70575,179.83395,67,41,0
179.83395,179.96216,71,40,0
179.58177,179.96216,74,57,0
179.96216,180.09203,60,45,0
180.09203,180.2219,63,40,0
180.2219,180.34485,67,38,0
179.96216,180.34485,72,54,0
180.34485,180.46779,59,39,0
180.46779,180.59546,62,34,0
180.59546,180.72311,67,34,0
180.34485,180.72311,71,54,0
180.72311,180.84457,58,44,0
180.84457,180.96603,61,37,0
180.96603,181.09209,65,37,0
180.72311,181.09209,70,54,0
181.09209,181.21812,56,43,0
181.21812,181.34633,61,36,0
181.34633,181.47455,65,36,0
181.09209,181.47455,68,51,0
181.47455,181.60442,55,40,0
181.60442,181.73428,56,36,0
181.73428,181.86644,61,34,0
181.47455,181.86644,67,48,0
181.86644,181.9986,53,35,0
181.9986,182.15166,56,30,0
182.15166,182.30472,61,30,0
181.86644,182.30472,65,48,0
182.30472,182.43024,63,35,0
182.43024,182.55577,67,29,0
182.55577,182.68507,71,29,0
182.30472,182.68507,75,42,0
182.68507,182.81439,62,34,0
182.81439,182.94713,67,29,0
182.94713,183.07988,71,28,0
182.68507,183.07988,74,40,0
183.07988,183.21623,60,32,0
183.21623,183.3526,63,28,0
183.3526,183.48476,67,27,0
183.07988,183.48476,72,38,0
183.48476,183.61691,59,27,0
183.61691,183.76115,62,24,0
183.76115,183.90538,67,24,0
183.48476,183.90538,71,38,0
183.90538,184.04175,58,30,0
184.04175,184.1781,61,26,0
184.1781,184.31895,65,26,0
183.90538,184.31895,70,38,0
184.31895,184.4598,56,30,0
184.4598,184.60686,61,25,0
184.60686,184.75392,65,25,0
184.31895,184.75392,68,36,0
184.75392,184.91098,55,28,0
184.91098,185.06805,56,25,0
185.06805,185.21657,61,24,0
184.75392,185.21657,67,34,0
185.21657,185.36508,53,25,0
185.36508,185.54051,56,20,0
185.54051,185.71596,61,20,0
185.21657,185.71596,65,34,0
185.71596,185.83406,62,47,0
185.71596,185.83406,59,40,0
186.0567,186.16081,50,34,0
186.25938,186.35747,48,35,0
186.45505,186.55214,47,36,0
186.64874,186.74493,44,36,0
186.83957,186.93425,43,37,0
187.03197,187.12941,56,38,0
187.22656,187.32346,55,39,0
187.42006,187.51639,53,40,0
187.61246,187.70819,51,40,0
187.8131,187.94049,49,42,0
187.94049,188.0448,65,50,0
187.94049,188.0448,61,42,0
187.94049,188.0448,56,42,0
188.14911,188.25342,67,51,0
188.14911,188.25342,55,43,0
188.14911,188.25342,59,43,0
188.46227,188.56638,50,34,0
188.66493,188.76303,48,35,0
188.8606,188.95769,47,36,0
189.0543,189.15048,44,36,0
189.24603,189.3416,43,37,0
189.43932,189.53676,56,38,0
189.63391,189.73079,55,39,0
189.82741,189.92374,53,40,0
190.0198,190.11554,51,40,0
190.21864,190.34656,49,42,0
190.34656,190.45015,65,50,0
190.34656,190.45015,61,42,0
190.34656,190.45015,56,42,0
190.55374,190.65733,68,51,0
190.55374,190.65733,56,43,0
190.55374,190.65733,60,43,0
190.86545,190.96956,51,34,0
191.06812,191.16621,49,35,0
191.2638,191.36089,48,36,0
191.45749,191.55367,46,36,0
191.64832,191.74136,44,37,0
191.84071,191.93816,56,38,0
192.03531,192.13219,54,39,0
192.2288,192.32513,52,40,0
192.42119,192.51694,51,40,0
192.61967,192.74503,49,42,0
192.74503,192.84862,64,50,0
192.74503,192.84862,61,42,0
192.74503,192.84862,56,42,0
192.95221,193.0558,69,51,0
192.95221,193.0558,57,43,0
192.95221,193.0558,61,43,0
193.26392,193.36803,52,34,0
193.4666,193.56468,50,35,0
193.66226,193.75935,49,36,0
193.85596,193.95215,46,36,0
194.04707,194.14043,45,37,0
194.23978,194.33722,57,38,0
194.43437,194.53125,55,39,0
194.62787,194.7242,53,40,0
194.82027,194.916,52,40,0
195.01839,195.14845,50,42,0
195.14845,195.25276,65,50,0
195.14845,195.25276,62,42,0
195.14845,195.25276,57,42,0
195.35707,195.46138,70,51,0
195.35707,195.46138,58,43,0
195.35707,195.46138,62,43,0
195.67023,195.77434,53,34,0
195.8729,195.971,51,35,0
196.06856,196.16565,50,36,0
196.26225,196.35844,47,36,0
196.45308,196.57367,46,37,0
196.57367,196.67139,70,52,0
196.57367,196.67139,58,43,0
196.57367,196.67139,63,43,0
196.87363,196.97774,54,35,0
197.07631,197.1744,53,36,0
197.27197,197.36906,51,36,0
197.46567,197.56186,47,37,0
197.6565,197.77472,46,38,0
197.77472,197.87244,74,53,0
197.77472,197.87244,62,45,0
197.77472,197.87244,65,45,0
198.07469,198.1788,56,35,0
198.27736,198.37546,53,36,0
198.47302,198.57011,50,37,0
198.66672,198.76291,49,38,0
198.85754,198.97351,47,39,0
198.97351,199.07124,78,54,0
198.97351,199.07124,66,45,0
198.97351,199.07124,69,45,0
199.27348,199.3776,57,36,0
199.47615,199.57425,56,37,0
199.67183,199.76892,54,38,0
199.86552,199.9617,51,39,0
200.05635,200.22278,48,40,0
200.22278,200.41695,81,53,0
200.22278,200.41695,78,37,0
200.22278,200.41695,73,37,0
200.52019,200.57181,73,33,0
200.52019,200.57181,78,43,0
200.52019,200.57181,69,33,0
200.62343,200.73372,78,43,0
200.62343,200.73372,73,33,0
200.62343,200.73372,69,33,0
200.84401,200.94853,73,49,0
200.84401,200.94853,69,37,0
200.84401,200.94853,66,37,0
201.16022,201.21378,66,34,0
201.16022,201.21378,69,44,0
201.16022,201.21378,61,34,0
201.26735,201.3766,66,34,0
201.26735,201.3766,69,44,0
201.26735,201.3766,61,34,0
201.5872,201.68855,50,38,0
201.7899,201.89185,57,43,0
201.9904,202.0885,55,45,0
202.18608,202.28316,54,42,0
202.37978,202.47595,52,39,0
202.57059,202.71033,50,36,0
202.71033,202.8969,82,53,0
202.71033,202.8969,79,37,0
202.71033,202.8969,74,37,0
202.99942,203.05069,74,33,0
202.99942,203.05069,79,43,0
202.99942,203.05069,70,33,0
203.10196,203.21002,79,43,0
203.10196,203.21002,74,33,0
203.10196,203.21002,70,33,0
203.3181,203.42062,74,49,0
203.3181,203.42062,70,37,0
203.3181,203.42062,67,37,0
203.6293,203.68239,67,34,0
203.6293,203.68239,70,44,0
203.6293,203.68239,62,34,0
203.73547,203.84552,67,34,0
203.73547,203.84552,70,44,0
203.73547,203.84552,62,34,0
204.05692,204.15828,51,38,0
204.25963,204.36156,58,43,0
204.46013,204.55821,56,45,0
204.65579,204.75288,55,42,0
204.84949,204.94568,53,39,0
205.04031,205.18005,51,36,0
205.18005,205.3672,83,57,0
205.18005,205.3672,80,41,0
205.18005,205.3672,75,41,0
205.468,205.5184,75,36,0
205.468,205.5184,80,46,0
205.468,205.5184,71,36,0
205.56882,205.67386,80,46,0
205.56882,205.67386,75,36,0
205.56882,205.67386,71,36,0
205.7789,205.88072,75,54,0
205.7789,205.88072,71,41,0
205.7789,205.88072,68,41,0
206.0891,206.14236,68,36,0
206.0891,206.14236,71,47,0
206.0891,206.14236,63,36,0
206.19563,206.30774,68,36,0
206.19563,206.30774,71,47,0
206.19563,206.30774,63,36,0
206.41985,206.60757,88,63,0
206.41985,206.60757,80,45,0
206.41985,206.60757,76,45,0
206.70804,206.75829,76,39,0
206.70804,206.75829,83,52,0
206.70804,206.75829,71,39,0
206.80852,206.9132,83,52,0
206.80852,206.9132,76,39,0
206.80852,206.9132,71,39,0
207.01787,207.12004,80,60,0
207.01787,207.12004,71,45,0
207.01787,207.12004,68,45,0
207.32877,207.38202,68,40,0
207.32877,207.38202,76,53,0
207.32877,207.38202,64,40,0
207.43529,207.54698,68,41,0
207.43529,207.54698,76,53,0
207.43529,207.54698,64,41,0
207.65868,207.8464,88,67,0
207.65868,207.8464,81,47,0
207.65868,207.8464,76,47,0
207.94688,207.99712,76,42,0
207.94688,207.99712,84,54,0
207.94688,207.99712,72,42,0
208.04735,208.15239,84,54,0
208.04735,208.15239,76,42,0
208.04735,208.15239,72,42,0
208.25743,208.3579,81,63,0
208.25743,208.3579,72,48,0
208.25743,208.3579,69,48,0
208.56342,208.61594,69,43,0
208.56342,208.61594,76,55,0
208.56342,208.61594,64,43,0
208.66846,208.7789,69,43,0
208.66846,208.7789,76,55,0
208.66846,208.7789,64,43,0
208.88936,209.07864,89,72,0
208.88936,209.07864,81,51,0
208.88936,209.07864,77,51,0
209.1781,209.22784,77,45,0
209.1781,209.22784,84,58,0
209.1781,209.22784,72,45,0
209.27757,209.38188,84,58,0
209.27757,209.38188,77,45,0
209.27757,209.38188,72,45,0
209.4862,209.587,81,67,0
209.4862,209.587,72,51,0
209.4862,209.587,69,51,0
209.79286,209.84538,69,45,0
209.79286,209.84538,77,59,0
209.79286,209.84538,65,45,0
209.8979,210.00636,69,45,0
209.8979,210.00636,77,59,0
209.8979,210.00636,65,45,0
210.11482,210.3029,89,72,0
210.11482,210.3029,80,52,0
210.11482,210.3029,77,52,0
210.40271,210.4526,85,59,0
210.40271,210.4526,73,45,0
210.5025,210.60791,85,59,0
210.5025,210.60791,73,45,0
210.71333,210.81346,89,69,0
210.71333,210.81346,82,52,0
210.71333,210.81346,77,52,0
210.71333,210.81346,85,52,0
211.01755,211.06952,73,46,0
211.01755,211.06952,85,60,0
211.12149,211.22957,73,46,0
211.12149,211.22957,85,61,0
211.33763,211.52513,90,74,0
211.33763,211.52513,85,53,0
211.33763,211.52513,78,53,0
211.33763,211.52513,82,53,0
211.62395,211.67336,85,59,0
211.62395,211.67336,73,45,0
211.72276,211.82635,85,59,0
211.72276,211.82635,73,45,0
211.92995,212.02974,90,70,0
211.92995,212.02974,82,53,0
211.92995,212.02974,78,53,0
211.92995,212.02974,87,53,0
212.23386,212.28601,75,47,0
212.23386,212.28601,87,61,0
212.33817,212.44742,75,47,0
212.33817,212.44742,87,61,0
212.55643,212.65817,87,56,0
212.55643,212.65817,78,47,0
212.65817,212.7595,90,50,0
212.7595,212.86044,87,56,0
212.7595,212.86044,78,47,0
212.86044,212.96095,90,50,0
212.96095,213.06096,87,57,0
212.96095,213.06096,78,48,0
213.06096,213.16057,90,51,0
213.16057,213.25978,87,57,0
213.16057,213.25978,78,48,0
213.25978,213.35854,90,51,0
213.35854,213.45686,87,58,0
213.35854,213.45686,78,49,0
213.45686,213.55574,90,53,0
213.55574,213.6555,87,59,0
213.55574,213.6555,78,49,0
213.6555,213.75644,90,53,0
213.75644,213.85078,87,59,0
213.75644,213.85078,80,50,0
213.85078,213.94513,92,53,0
213.94513,214.04492,87,60,0
213.94513,214.04492,80,50,0
214.04492,214.14473,92,53,0
214.14473,214.2505,87,61,0
214.14473,214.2505,80,51,0
214.2505,214.3563,92,52,0
214.3563,214.45813,87,61,0
214.3563,214.45813,80,51,0
214.45813,214.55995,92,53,0
214.55995,214.66537,87,62,0
214.55995,214.66537,80,52,0
214.66537,214.77078,92,54,0
214.77078,214.88205,87,62,0
214.77078,214.88205,80,52,0
214.88205,214.9928,92,54,0
214.9928,215.09332,87,63,0
214.9928,215.09332,83,53,0
215.09332,215.19328,95,56,0
215.19328,215.29272,87,63,0
215.19328,215.29272,83,53,0
215.29272,215.39159,95,56,0
215.39159,215.48991,87,63,0
215.39159,215.48991,83,54,0
215.48991,215.58774,95,57,0
215.58774,215.685,87,64,0
215.58774,215.685,83,54,0
215.685,215.78175,95,57,0
215.78175,215.87866,87,65,0
215.78175,215.87866,83,54,0
215.87866,215.9761,95,59,0
215.9761,216.07417,87,65,0
215.9761,216.07417,83,55,0
216.07417,216.17345,95,60,0
216.17345,216.2673,86,66,0
216.17345,216.2673,83,55,0
216.2673,216.36118,95,59,0
216.36118,216.46301,86,66,0
216.36118,216.46301,83,56,0
216.46301,216.56483,95,60,0
216.56483,216.67062,86,67,0
216.56483,216.67062,83,56,0
216.67062,216.7764,95,58,0
216.7764,216.87859,86,68,0
216.7764,216.87859,83,57,0
216.87859,216.98076,95,60,0
216.98076,217.08493,86,68,0
216.98076,217.08493,83,57,0
217.08493,217.1891,95,60,0
217.1891,217.29701,86,69,0
217.1891,217.29701,83,58,0
217.29701,217.40492,95,61,0
217.40492,217.4985,87,70,0
217.40492,217.4985,84,59,0
217.4985,217.59207,96,63,0
217.59207,217.69109,87,71,0
217.59207,217.69109,84,59,0
217.69109,217.7901,96,63,0
217.7901,217.89214,87,72,0
217.7901,217.89214,84,60,0
217.89214,217.99417,96,61,0
217.99417,218.09286,88,72,0
217.99417,218.09286,85,60,0
218.09286,218.19154,97,63,0
218.19154,218.29324,88,73,0
218.19154,218.29324,85,62,0
218.29324,218.39493,97,63,0
218.39493,218.503,88,74,0
218.39493,218.503,85,63,0
218.503,218.61107,97,65,0
218.61107,218.70395,89,75,0
218.61107,218.70395,86,63,0
218.70395,218.79683,98,67,0
218.79683,218.8933,89,77,0
218.79683,218.8933,86,63,0
218.8933,218.98976,98,67,0
218.98976,219.0918,89,77,0
218.98976,219.0918,86,64,0
219.0918,219.19383,98,66,0
219.19383,219.29189,89,79,0
219.19383,219.29189,86,66,0
219.29189,219.38992,98,68,0
219.38992,219.49161,89,81,0
219.38992,219.49161,86,67,0
219.49161,219.5933,98,70,0
219.5933,219.70045,89,81,0
219.5933,219.70045,86,68,0
219.70045,219.80759,98,71,0
219.80759,219.89961,89,82,0
219.80759,219.89961,86,69,0
219.89961,219.99164,98,73,0
219.99164,220.0881,89,82,0
219.99164,220.0881,86,70,0
220.0881,220.18457,98,74,0
220.18457,220.28801,89,83,0
220.18457,220.28801,86,70,0
220.28801,220.39146,98,72,0
220.39146,220.49113,89,85,0
220.39146,220.49113,86,72,0
220.49113,220.59366,98,74,0
220.59366,220.695,89,85,0
220.59366,220.695,86,72,0
220.695,220.79637,98,76,0
220.79637,220.90388,89,87,0
220.79637,220.90388,86,73,0
220.90388,221.01141,98,76,0
221.01141,221.10576,89,89,0
221.01141,221.10576,86,73,0
221.10576,221.2001,98,79,0
221.2001,221.30919,89,89,0
221.2001,221.30919,86,75,0
221.30919,221.41827,98,80,0
221.41827,221.53021,89,90,0
221.41827,221.53021,86,76,0
221.53021,221.64217,98,78,0
221.64217,221.75572,90,90,0
221.64217,221.75572,87,77,0
221.75572,221.87222,99,81,0
221.87222,221.9928,90,92,0
221.87222,221.9928,87,78,0
221.9928,222.12317,99,81,0
222.12317,222.26143,90,94,0
222.12317,222.26143,87,79,0
222.26143,222.39967,99,82,0
222.39967,222.60873,100,106,0
222.39967,222.60873,96,75,0
222.39967,222.60873,88,75,0
222.39967,222.60873,91,75,0
222.71626,222.76727,96,86,0
222.71626,222.76727,84,66,0
222.71626,222.76727,88,66,0
222.71626,222.76727,91,66,0
222.8183,222.92859,96,86,0
222.8183,222.92859,88,66,0
222.8183,222.92859,84,66,0
222.8183,222.92859,91,66,0
223.0389,223.14565,91,75,0
223.0389,223.14565,96,99,0
223.0389,223.14565,88,75,0
223.0389,223.14565,84,75,0
223.36353,223.41728,91,88,0
223.36353,223.41728,79,68,0
223.36353,223.41728,84,68,0
223.36353,223.41728,88,68,0
223.47105,223.58688,91,88,0
223.47105,223.58688,79,68,0
223.47105,223.58688,84,68,0
223.47105,223.58688,88,68,0
223.70271,223.8076,88,102,0
223.70271,223.8076,84,79,0
223.70271,223.8076,81,79,0
223.70271,223.8076,76,79,0
224.0228,224.07416,84,91,0
224.0228,224.07416,72,72,0
224.0228,224.07416,76,72,0
224.0228,224.07416,81,72,0
224.12553,224.23706,84,91,0
224.12553,224.23706,72,72,0
224.12553,224.23706,76,72,0
224.12553,224.23706,81,72,0
224.34859,225.00313,84,102,0
224.34859,225.00313,72,79,0
224.34859,225.00313,76,79,0
224.34859,225.00313,81,79,0
225.00313,225.21664,91,99,0
225.00313,225.21664,77,75,0
225.00313,225.21664,79,75,0
225.00313,225.21664,83,75,0
225.32614,225.3784,86,88,0
225.32614,225.3784,79,68,0
225.32614,225.3784,74,68,0
225.43066,225.53897,86,88,0
225.43066,225.53897,79,68,0
225.43066,225.53897,74,68,0
225.64728,225.74931,85,99,0
225.64728,225.74931,73,75,0
225.64728,225.74931,79,75,0
225.85136,225.95699,86,102,0
225.85136,225.95699,74,79,0
225.85136,225.95699,79,79,0
226.06262,226.22052,87,102,0
226.06262,226.22052,79,79,0
226.06262,226.22052,75,79,0
226.37842,227.04507,88,109,0
226.37842,227.04507,79,84,0
226.37842,227.04507,76,84,0
227.04507,227.28223,84,99,0
227.04507,227.28223,79,75,0
227.04507,227.28223,72,75,0
227.75655,227.9678,100,106,0
227.75655,227.9678,96,75,0
227.75655,227.9678,88,75,0
227.75655,227.9678,91,75,0
228.0777,228.12872,96,86,0
228.0777,228.12872,84,66,0
228.0777,228.12872,88,66,0
228.0777,228.12872,91,66,0
228.17973,228.2921,96,86,0
228.17973,228.2921,88,66,0
228.17973,228.2921,84,66,0
228.17973,228.2921,91,66,0
228.40446,228.512,91,75,0
228.40446,228.512,96,99,0
228.40446,228.512,88,75,0
228.40446,228.512,84,75,0
228.7286,228.78087,91,88,0
228.7286,228.78087,79,68,0
228.7286,228.78087,84,68,0
228.7286,228.78087,88,68,0
228.83313,228.94592,91,88,0
228.83313,228.94592,79,68,0
228.83313,228.94592,84,68,0
228.83313,228.94592,88,68,0
229.0587,229.16661,88,102,0
229.0587,229.16661,84,79,0
229.0587,229.16661,81,79,0
229.0587,229.16661,76,79,0
229.38483,229.43672,84,91,0
229.38483,229.43672,72,72,0
229.38483,229.43672,76,72,0
229.38483,229.43672,81,72,0
229.48863,229.60098,84,91,0
229.48863,229.60098,72,72,0
229.48863,229.60098,76,72,0
229.48863,229.60098,81,72,0
229.71335,230.37755,84,102,0
229.71335,230.37755,72,79,0
229.71335,230.37755,76,79,0
229.71335,230.37755,81,79,0
230.37755,230.60143,87,99,0
230.37755,230.60143,78,75,0
230.37755,230.60143,75,75,0
230.71771,230.77585,78,88,0
230.71771,230.77585,75,68,0
230.71771,230.77585,71,68,0
230.83398,230.95027,78,88,0
230.83398,230.95027,75,68,0
230.83398,230.95027,71,68,0
231.06654,231.17934,77,89,0
231.06654,231.17934,71,67,0
231.06654,231.17934,75,67,0
231.29211,231.41924,78,91,0
231.29211,231.41924,71,71,0
231.29211,231.41924,75,71,0
231.54634,231.72386,83,91,0
231.54634,231.72386,75,71,0
231.54634,231.72386,71,71,0
231.90138,232.69434,87,109,0
231.90138,232.69434,78,84,0
231.90138,232.69434,75,84,0
232.69434,232.95865,86,99,0
232.69434,232.95865,77,75,0
232.69434,232.95865,74,75,0
232.69434,232.95865,79,75,0
233.48727,233.62364,76,61,0
233.48727,233.62364,88,72,0
233.48727,233.62364,84,72,0
233.48727,233.62364,79,61,0
233.76001,233.97227,72,61,0
233.76001,233.97227,84,72,0
233.76001,233.97227,79,61,0
233.76001,233.97227,76,61,0
233.97227,234.03595,67,53,0
233.97227,234.03595,79,63,0
233.97227,234.03595,76,53,0
233.97227,234.03595,72,53,0
234.04303,234.11153,79,72,0
234.04303,234.11153,67,61,0
234.04303,234.11153,72,61,0
234.04303,234.11153,76,61,0
234.317,234.53758,76,72,0
234.317,234.53758,64,61,0
234.317,234.53758,67,61,0
234.317,234.53758,72,61,0
234.53758,234.60376,72,63,0
234.53758,234.60376,60,54,0
234.53758,234.60376,64,54,0
234.53758,234.60376,69,54,0
234.61111,234.67961,60,61,0
234.61111,234.67961,72,72,0
234.61111,234.67961,69,72,0
234.61111,234.67961,64,61,0
234.88509,235.09836,57,61,0
234.88509,235.09836,69,72,0
234.88509,235.09836,64,61,0
234.88509,235.09836,60,61,0
235.09836,235.16234,52,53,0
235.09836,235.16234,64,63,0
235.09836,235.16234,60,53,0
235.09836,235.16234,57,53,0
235.16945,235.24054,64,72,0
235.16945,235.24054,52,61,0
235.16945,235.24054,57,61,0
235.16945,235.24054,60,61,0
235.45381,235.68819,60,72,0
235.45381,235.68819,48,61,0
235.45381,235.68819,52,61,0
235.45381,235.68819,57,61,0
235.68819,235.76631,64,63,0
235.68819,235.76631,52,54,0
235.76631,235.9761,67,79,0
235.76631,235.9761,59,60,0
235.76631,235.9761,53,60,0
236.0848,236.13914,62,70,0
236.0848,236.13914,59,54,0
236.0848,236.13914,53,54,0
236.1935,236.30219,62,70,0
236.1935,236.30219,59,54,0
236.1935,236.30219,53,54,0
236.41089,236.51578,61,79,0
236.41089,236.51578,53,60,0
236.41089,236.51578,58,60,0
236.62067,236.73016,62,81,0
236.62067,236.73016,53,63,0
236.62067,236.73016,59,63,0
236.83965,236.9935,63,81,0
236.83965,236.9935,59,63,0
236.83965,236.9935,53,63,0
237.14734,237.23802,60,83,0
237.14734,237.23802,64,83,0
237.23802,237.32812,55,70,0
237.32812,237.4171,52,71,0
237.4171,237.50507,55,72,0
237.50507,237.59224,60,73,0
237.59224,237.67863,64,74,0
237.67863,237.76933,67,75,0
237.76933,237.85425,72,76,0
237.85425,237.93843,76,78,0
237.93843,238.02193,79,79,0
238.02193,238.10475,84,80,0
238.10475,238.19107,88,81,0
238.19107,238.28627,91,82,0
238.28627,238.39714,96,83,0
238.39714,238.66864,88,66,0
238.39714,238.66864,100,79,0
238.39714,238.66864,96,79,0
238.39714,238.66864,91,66,0
238.66864,238.88191,84,66,0
238.66864,238.88191,96,79,0
238.66864,238.88191,91,66,0
238.66864,238.88191,88,66,0
238.88191,238.94589,79,57,0
238.88191,238.94589,91,69,0
238.88191,238.94589,88,57,0
238.88191,238.94589,84,57,0
238.953,239.09062,91,79,0
238.953,239.09062,79,66,0
238.953,239.09062,84,66,0
238.953,239.09062,88,66,0
239.22823,239.44458,88,79,0
239.22823,239.44458,76,66,0
239.22823,239.44458,79,66,0
239.22823,239.44458,84,66,0
239.44458,239.50948,84,70,0
239.44458,239.50948,72,59,0
239.44458,239.50948,76,59,0
239.44458,239.50948,81,59,0
239.5167,239.65431,72,66,0
239.5167,239.65431,84,79,0
239.5167,239.65431,81,79,0
239.5167,239.65431,76,66,0
239.79192,240.00519,69,66,0
239.79192,240.00519,81,79,0
239.79192,240.00519,76,66,0
239.79192,240.00519,72,66,0
240.00519,240.06917,64,57,0
240.00519,240.06917,76,69,0
240.00519,240.06917,72,57,0
240.00519,240.06917,69,57,0
240.07628,240.21846,76,79,0
240.07628,240.21846,64,66,0
240.07628,240.21846,69,66,0
240.07628,240.21846,72,66,0
240.36064,240.51689,72,79,0
240.36064,240.51689,60,66,0
240.36064,240.51689,64,66,0
240.36064,240.51689,69,66,0
240.67314,240.7685,92,90,0
240.67314,240.7685,83,73,0
240.67314,240.7685,80,72,0
240.96466,241.00998,83,70,0
240.96466,241.00998,71,54,0
241.0553,241.15598,83,70,0
241.0553,241.15598,71,54,0
241.25664,241.35051,82,79,0
241.25664,241.35051,70,60,0
241.44438,241.5419,83,81,0
241.44438,241.5419,71,63,0
241.63338,241.73486,88,88,0
241.63338,241.73486,76,68,0
241.83635,241.9308,92,90,0
241.83635,241.9308,84,73,0
241.83635,241.9308,80,72,0
242.12311,242.16884,87,70,0
242.12311,242.16884,75,54,0
242.21457,242.3123,87,70,0
242.21457,242.3123,75,54,0
242.41002,242.50447,86,79,0
242.41002,242.50447,74,60,0
242.59894,242.69615,87,81,0
242.59894,242.69615,75,63,0
242.78816,242.89105,87,88,0
242.78816,242.89105,75,68,0
242.99393,243.08751,91,90,0
242.99393,243.08751,82,73,0
242.99393,243.08751,79,72,0
243.27925,243.32512,82,70,0
243.27925,243.32512,70,54,0
243.37099,243.46902,82,70,0
243.37099,243.46902,70,54,0
243.56706,243.66064,81,79,0
243.56706,243.66064,69,60,0
243.75421,243.85207,82,81,0
243.75421,243.85207,70,63,0
243.94466,244.04718,87,88,0
243.94466,244.04718,75,68,0
244.14972,244.243,91,90,0
244.14972,244.243,82,73,0
244.14972,244.243,79,72,0
244.43225,244.47784,86,70,0
244.43225,244.47784,74,54,0
244.52344,244.61928,86,70,0
244.52344,244.61928,74,54,0
244.71513,244.80989,85,79,0
244.71513,244.80989,73,60,0
244.90465,245.00313,86,81,0
244.90465,245.00313,74,63,0
245.10162,245.20557,86,88,0
245.10162,245.20557,74,68,0
245.30952,245.4028,90,90,0
245.30952,245.4028,81,73,0
245.30952,245.4028,78,72,0
245.4961,245.59361,81,70,0
245.4961,245.59361,69,54,0
245.4961,245.59361,78,54,0
245.69115,245.78868,83,70,0
245.69115,245.78868,71,54,0
245.69115,245.78868,78,54,0
245.88622,245.98007,85,86,0
245.88622,245.98007,73,65,0
245.88622,245.98007,81,65,0
246.07394,246.17308,84,81,0
246.07394,246.17308,72,63,0
246.07394,246.17308,80,63,0
246.27222,246.37764,85,88,0
246.27222,246.37764,73,68,0
246.27222,246.37764,81,68,0
246.48305,246.57721,89,90,0
246.48305,246.57721,80,73,0
246.48305,246.57721,77,72,0
246.67137,246.76921,80,70,0
246.67137,246.76921,68,54,0
246.67137,246.76921,77,54,0
246.86707,246.9649,82,70,0
246.86707,246.9649,70,54,0
246.86707,246.9649,77,54,0
247.06276,247.15721,84,86,0
247.06276,247.15721,72,65,0
247.06276,247.15721,80,65,0
247.25168,247.35214,83,81,0
247.25168,247.35214,71,63,0
247.25168,247.35214,79,63,0
247.4526,247.56935,84,88,0
247.4526,247.56935,72,68,0
247.4526,247.56935,80,68,0
247.68608,247.92781,76,59,0
247.87202,247.92781,76,62,0
247.87202,247.92781,67,51,0
247.87202,247.92781,72,51,0
247.68608,247.934,88,71,0
247.68608,247.934,79,59,0
247.934,248.1995,67,59,0
247.934,248.1995,72,59,0
247.934,248.1995,76,71,0
248.1995,248.44325,75,59,0
248.387,248.44325,75,62,0
248.387,248.44325,67,51,0
248.387,248.44325,72,51,0
248.1995,248.4495,87,71,0
248.1995,248.4495,79,59,0
248.4495,248.71498,67,59,0
248.4495,248.71498,72,59,0
248.4495,248.71498,75,71,0
248.71498,248.95975,73,59,0
248.90327,248.95975,73,62,0
248.90327,248.95975,65,51,0
248.90327,248.95975,68,51,0
248.71498,248.96603,85,71,0
248.71498,248.96603,77,59,0
248.96603,249.22919,65,59,0
248.96603,249.22919,68,59,0
248.96603,249.22919,73,71,0
249.22919,249.47812,72,59,0
249.42067,249.47812,72,62,0
249.42067,249.47812,63,51,0
249.42067,249.47812,66,51,0
249.22919,249.48451,84,71,0
249.22919,249.48451,75,59,0
249.48451,249.75974,63,59,0
249.48451,249.75974,66,59,0
249.48451,249.75974,72,71,0
249.75974,249.85527,82,65,0
249.75974,249.85527,70,54,0
249.95082,250.04759,70,53,0
249.95082,250.04759,58,45,0
250.14436,250.24306,70,47,0
250.14436,250.24306,82,56,0
250.34174,250.4385,82,57,0
250.34174,250.4385,94,69,0
250.53528,250.63542,82,55,0
250.53528,250.63542,70,46,0
250.73555,250.84009,70,55,0
250.73555,250.84009,58,46,0
250.94461,251.03925,82,65,0
250.94461,251.03925,70,54,0
251.13388,251.23004,70,53,0
251.13388,251.23004,58,45,0
251.32619,251.42392,70,47,0
251.32619,251.42392,82,56,0
251.52164,251.61748,82,57,0
251.52164,251.61748,94,69,0
251.71333,251.81137,82,55,0
251.71333,251.81137,70,46,0
251.90941,252.01263,70,55,0
251.90941,252.01263,58,46,0
252.11588,252.21051,85,72,0
252.11588,252.21051,73,60,0
252.30515,252.4013,73,57,0
252.30515,252.4013,61,49,0
252.49745,252.59486,73,52,0
252.49745,252.59486,85,62,0
252.69226,252.7881,85,63,0
252.69226,252.7881,97,75,0
252.88396,252.98105,85,61,0
252.88396,252.98105,73,51,0
253.07812,253.17813,73,61,0
253.07812,253.17813,61,51,0
253.27812,253.37247,85,72,0
253.27812,253.37247,73,60,0
253.46681,253.56296,73,57,0
253.46681,253.56296,61,49,0
253.65912,253.75652,73,52,0
253.65912,253.75652,85,62,0
253.85393,253.94946,85,63,0
253.85393,253.94946,97,75,0
254.045,254.14241,85,61,0
254.045,254.14241,73,51,0
254.2398,254.34233,73,61,0
254.2398,254.34233,61,51,0
254.44487,254.5395,88,72,0
254.44487,254.5395,76,60,0
254.63414,254.72998,76,57,0
254.63414,254.72998,64,49,0
254.82584,254.92323,76,52,0
254.82584,254.92323,88,62,0
255.02065,255.11618,88,63,0
255.02065,255.11618,100,77,0
255.21172,255.30977,88,63,0
255.21172,255.30977,76,52,0
255.4078,255.5088,76,63,0
255.4078,255.5088,64,53,0
255.60982,255.70416,91,74,0
255.60982,255.70416,79,63,0
255.7985,255.89435,79,60,0
255.7985,255.89435,67,51,0
255.99019,256.0876,79,54,0
255.99019,256.0876,91,65,0
256.185,256.28024,91,66,0
256.185,256.28024,103,81,0
256.3755,256.47226,91,65,0
256.3755,256.47226,79,54,0
256.56903,256.67087,79,65,0
256.56903,256.67087,67,54,0
256.77267,256.86734,94,78,0
256.77267,256.86734,82,65,0
256.96198,257.0578,82,63,0
256.96198,257.0578,70,54,0
257.15366,257.25043,82,57,0
257.15366,257.25043,94,68,0
257.3472,257.44305,94,70,0
257.3472,257.44305,106,83,0
257.5389,257.6363,94,68,0
257.5389,257.6363,82,56,0
257.7337,257.83438,82,68,0
257.7337,257.83438,70,57,0
257.93506,258.03152,95,81,0
257.93506,258.03152,83,68,0
258.12796,258.2271,83,65,0
258.12796,258.2271,71,55,0
258.32626,258.4274,83,59,0
258.32626,258.4274,95,71,0
258.52853,258.62836,95,72,0
258.52853,258.62836,107,87,0
258.72815,258.83267,95,71,0
258.72815,258.83267,83,59,0
258.9372,259.0774,83,71,0
258.9372,259.0774,71,60,0
259.33163,259.4457,79,41,0
259.4457,259.55978,84,41,0
259.2176,259.55978,88,69,0
259.2176,259.55978,76,52,0
259.67386,259.78793,76,37,0
259.78793,259.90198,79,37,0
259.55978,259.90198,86,62,0
259.55978,259.90198,74,46,0
260.0131,260.1242,76,36,0
260.1242,260.23532,79,37,0
259.90198,260.23532,84,61,0
259.90198,260.23532,72,45,0
260.34644,260.4627,76,37,0
260.4627,260.57898,79,37,0
260.23532,260.57898,83,62,0
260.23532,260.57898,71,46,0
260.69135,260.8037,72,41,0
260.8037,260.91608,76,41,0
260.57898,260.91608,81,63,0
260.57898,260.91608,69,45,0
261.02844,261.14517,72,36,0
261.14517,261.2619,76,36,0
260.91608,261.2619,78,60,0
260.91608,261.2619,66,45,0
261.3734,261.48495,72,39,0
261.48495,261.59647,76,39,0
261.2619,261.59647,79,63,0
261.2619,261.59647,67,48,0
261.70798,261.82382,79,36,0
261.82382,261.93967,84,36,0
261.59647,261.93967,88,65,0
261.59647,261.93967,76,51,0
262.05243,262.16522,78,41,0
262.16522,262.27798,81,41,0
261.93967,262.27798,88,69,0
261.93967,262.27798,76,52,0
262.39078,262.50357,78,37,0
262.50357,262.61633,81,37,0
262.27798,262.61633,85,66,0
262.27798,262.61633,73,61,0
262.72745,262.83856,78,36,0
262.83856,262.94968,81,37,0
262.61633,262.94968,86,65,0
262.61633,262.94968,74,50,0
263.0608,263.17618,78,37,0
263.17618,263.29156,81,37,0
262.94968,263.29156,88,70,0
262.94968,263.29156,76,54,0
263.40564,263.51968,83,44,0
263.51968,263.63376,86,45,0
263.29156,263.63376,89,73,0
263.29156,263.63376,77,56,0
263.74783,263.86594,83,45,0
263.86594,264.01746,86,45,0
263.63376,264.01746,90,69,0
263.63376,264.01746,78,53,0
264.13153,264.2456,83,48,0
264.2456,264.35965,86,49,0
264.01746,264.35965,93,75,0
264.01746,264.35965,81,58,0
264.47372,264.59326,83,47,0
264.59326,264.71277,86,46,0
264.35965,264.71277,91,70,0
264.35965,264.71277,79,54,0
264.71277,264.82684,88,69,0
264.71277,264.82684,76,52,0
264.82684,264.94092,79,41,0
264.94092,265.055,84,41,0
265.055,265.16904,86,62,0
265.055,265.16904,74,46,0
265.16904,265.2831,76,37,0
265.2831,265.3972,79,37,0
265.3972,265.50748,84,61,0
265.3972,265.50748,72,45,0
265.50748,265.61777,76,36,0
265.61777,265.72806,79,37,0
265.72806,265.83835,83,62,0
265.72806,265.83835,71,46,0
265.83835,265.9507,76,37,0
265.9507,266.06308,79,37,0
266.06308,266.1763,81,63,0
266.06308,266.1763,69,45,0
266.1763,266.2895,72,41,0
266.2895,266.4027,76,41,0
266.4027,266.5159,78,60,0
266.4027,266.5159,66,45,0
266.5159,266.63354,72,36,0
266.63354,266.7512,76,36,0
266.7512,266.86356,79,63,0
266.7512,266.86356,67,48,0
266.86356,266.97592,72,39,0
266.97592,267.0883,76,39,0
267.0883,267.20065,88,65,0
267.0883,267.20065,76,51,0
267.20065,267.31647,79,36,0
267.31647,267.4323,84,36,0
267.4323,267.54465,88,65,0
267.4323,267.54465,76,45,0
267.54465,267.657,78,43,0
267.657,267.76938,81,43,0
267.76938,267.88174,87,63,0
267.76938,267.88174,75,53,0
267.88174,267.9941,78,48,0
267.9941,268.10645,81,49,0
268.10645,268.22052,91,70,0
268.10645,268.22052,79,59,0
268.22052,268.3346,81,49,0
268.3346,268.44867,87,51,0
268.44867,268.56274,90,76,0
268.44867,268.56274,78,64,0
268.56274,268.67902,81,52,0
268.67902,268.7953,87,54,0
268.7953,268.91876,93,81,0
268.7953,268.91876,81,69,0
268.91876,269.0422,83,58,0
269.0422,269.16565,88,59,0
269.16565,269.28912,91,82,0
269.16565,269.28912,79,69,0
269.28912,269.4157,83,60,0
269.4157,269.577,88,63,0
269.577,269.70044,95,94,0
269.577,269.70044,83,80,0
269.70044,269.8239,86,63,0
269.8239,269.94736,89,64,0
269.94736,270.07083,93,87,0
269.94736,270.07083,81,73,0
270.07083,270.2018,89,59,0
270.07083,270.2018,86,49,0
270.2018,270.33282,91,59,0
270.2018,270.33282,79,59,0
270.33282,270.68814,100,94,0
270.33282,270.68814,88,79,0
270.33282,270.68814,91,79,0
270.68814,271.03522,98,84,0
270.68814,271.03522,91,70,0
270.68814,271.03522,88,70,0
270.68814,271.03522,86,70,0
271.03522,271.36978,96,83,0
271.03522,271.36978,91,69,0
271.03522,271.36978,88,69,0
271.03522,271.36978,84,69,0
271.36978,271.71478,95,84,0
271.36978,271.71478,91,70,0
271.36978,271.71478,88,70,0
271.36978,271.71478,83,70,0
271.71478,272.0527,93,88,0
271.71478,272.0527,88,69,0
271.71478,272.0527,84,69,0
271.71478,272.0527,81,69,0
272.0527,272.40256,90,82,0
272.0527,272.40256,88,69,0
272.0527,272.40256,84,69,0
272.0527,272.40256,78,69,0
272.40256,272.7384,91,86,0
272.40256,272.7384,88,72,0
272.40256,272.7384,84,72,0
272.40256,272.7384,79,72,0
272.7384,273.08844,100,90,0
272.7384,273.08844,96,77,0
272.7384,273.08844,91,77,0
272.7384,273.08844,88,77,0
273.08844,273.43066,100,90,0
273.08844,273.43066,93,77,0
273.08844,273.43066,90,77,0
273.08844,273.43066,88,77,0
273.43066,273.7712,97,85,0
273.43066,273.7712,93,72,0
273.43066,273.7712,90,72,0
273.43066,273.7712,85,72,0
273.7712,274.10916,98,94,0
273.7712,274.10916,93,79,0
273.7712,274.10916,90,79,0
273.7712,274.10916,86,79,0
274.10916,274.4595,100,99,0
274.10916,274.4595,93,83,0
274.10916,274.4595,90,83,0
274.10916,274.4595,88,83,0
274.4595,274.80328,101,99,0
274.4595,274.80328,95,85,0
274.4595,274.80328,92,85,0
274.4595,274.80328,89,85,0
274.80328,275.17874,98,98,0
274.80328,275.17874,92,86,0
274.80328,275.17874,89,86,0
274.80328,275.17874,86,86,0
275.17874,275.54285,92,91,0
275.17874,275.54285,86,79,0
275.17874,275.54285,83,79,0
275.17874,275.54285,80,79,0
275.54285,275.91534,91,80,0
275.54285,275.91534,86,67,0
275.54285,275.91534,83,67,0
275.54285,275.91534,79,67,0
275.91534,276.26913,88,70,0
275.91534,276.26913,76,59,0
275.91534,276.26913,79,59,0
276.26913,276.6153,86,63,0
276.26913,276.6153,79,52,0
276.26913,276.6153,76,52,0
276.26913,276.6153,74,52,0
276.6153,276.9511,84,62,0
276.6153,276.9511,79,51,0
276.6153,276.9511,76,51,0
276.6153,276.9511,72,51,0
276.9511,277.3002,83,63,0
276.9511,277.3002,79,52,0
276.9511,277.3002,76,52,0
276.9511,277.3002,71,52,0
277.3002,277.6403,81,65,0
277.3002,277.6403,76,51,0
277.3002,277.6403,72,51,0
277.3002,277.6403,69,51,0
277.6403,277.99057,78,62,0
277.6403,277.99057,76,51,0
277.6403,277.99057,72,51,0
277.6403,277.99057,66,51,0
277.99057,278.32513,79,64,0
277.99057,278.32513,76,54,0
277.99057,278.32513,72,54,0
277.99057,278.32513,67,54,0
278.32513,278.49942,88,67,0
278.32513,278.49942,84,57,0
278.32513,278.49942,79,57,0
278.32513,278.49942,76,57,0
278.69092,279.04047,89,77,0
278.69092,279.04047,77,64,0
278.69092,279.04047,80,64,0
279.04047,279.38663,87,68,0
279.04047,279.38663,75,57,0
279.04047,279.38663,80,57,0
279.38663,279.72372,85,67,0
279.38663,279.72372,73,56,0
279.38663,279.72372,80,56,0
279.72372,280.07416,84,68,0
279.72372,280.07416,72,57,0
279.72372,280.07416,80,57,0
280.07416,280.41595,82,72,0
280.07416,280.41595,77,56,0
280.07416,280.41595,73,56,0
280.07416,280.41595,70,56,0
280.41595,280.7685,79,67,0
280.41595,280.7685,77,56,0
280.41595,280.7685,73,56,0
280.41595,280.7685,67,56,0
280.7685,281.10684,80,70,0
280.7685,281.10684,77,59,0
280.7685,281.10684,73,59,0
280.7685,281.10684,68,59,0
281.10684,281.2811,89,73,0
281.10684,281.2811,85,63,0
281.10684,281.2811,80,63,0
281.10684,281.2811,77,63,0
281.46838,281.81403,90,81,0
281.46838,281.81403,78,68,0
281.46838,281.81403,81,68,0
281.81403,282.15494,88,77,0
281.81403,282.15494,76,64,0
281.81403,282.15494,81,64,0
282.15494,282.49207,86,75,0
282.15494,282.49207,78,63,0
282.15494,282.49207,81,63,0
282.15494,282.49207,74,63,0
282.49207,282.85797,81,72,0
282.49207,282.85797,74,62,0
282.49207,282.85797,78,62,0
282.49207,282.85797,69,62,0
282.85797,283.20474,91,87,0
282.85797,283.20474,79,73,0
282.85797,283.20474,82,73,0
283.20474,283.54434,89,81,0
283.20474,283.54434,77,68,0
283.20474,283.54434,82,68,0
283.54434,283.87646,88,79,0
283.54434,283.87646,76,66,0
283.54434,283.87646,82,66,0
283.87646,284.23343,82,77,0
283.87646,284.23343,70,64,0
283.87646,284.23343,76,64,0
284.23343,284.5796,92,91,0
284.23343,284.5796,86,78,0
284.23343,284.5796,83,78,0
284.23343,284.5796,80,78,0
284.5796,284.91922,91,86,0
284.5796,284.91922,86,72,0
284.5796,284.91922,83,72,0
284.5796,284.91922,79,72,0
284.91922,285.2513,89,82,0
284.91922,285.2513,80,69,0
284.91922,285.2513,83,69,0
284.91922,285.2513,77,69,0
285.2513,285.60107,86,80,0
285.2513,285.60107,77,67,0
285.2513,285.60107,80,67,0
285.2513,285.60107,74,67,0
285.60107,285.94043,83,80,0
285.60107,285.94043,77,67,0
285.60107,285.94043,74,67,0
285.60107,285.94043,71,67,0
285.94043,286.27753,80,75,0
285.94043,286.27753,74,63,0
285.94043,286.27753,71,63,0
285.94043,286.27753,68,63,0
286.27753,286.6084,79,75,0
286.27753,286.6084,71,63,0
286.27753,286.6084,74,63,0
286.27753,286.6084,67,63,0
286.6084,286.95493,77,77,0
286.6084,286.95493,68,64,0
286.6084,286.95493,71,64,0
286.6084,286.95493,65,64,0
286.95493,287.2921,74,81,0
286.95493,287.2921,68,68,0
286.95493,287.2921,65,68,0
286.95493,287.2921,62,68,0
287.2921,287.63174,71,75,0
287.2921,287.63174,65,63,0
287.2921,287.63174,62,63,0
287.2921,287.63174,59,63,0
287.63174,287.96262,68,78,0
287.63174,287.96262,59,65,0
287.63174,287.96262,62,65,0
287.63174,287.96262,56,65,0
287.96262,288.311,67,81,0
287.96262,288.311,59,68,0
287.96262,288.311,62,68,0
287.96262,288.311,55,68,0
288.311,288.65717,65,88,0
288.311,288.65717,62,73,0
288.311,288.65717,59,73,0
288.311,288.65717,53,73,0
288.65717,289.00333,68,88,0
288.65717,289.00333,62,73,0
288.65717,289.00333,59,73,0
288.65717,289.00333,56,73,0
289.00333,289.34424,67,91,0
289.00333,289.34424,59,76,0
289.00333,289.34424,62,76,0
289.00333,289.34424,55,76,0
289.34424,289.7306,65,94,0
289.34424,289.7306,56,79,0
289.34424,289.7306,62,79,0
289.34424,289.7306,53,79,0
289.7306,289.82706,60,82,0
289.82706,289.92407,55,71,0
289.83026,289.92734,52,60,0
289.92407,289.9973,60,72,0
290.02164,290.11823,60,73,0
290.11823,290.2139,64,63,0
290.11823,290.2139,67,75,0
290.2139,290.28513,72,77,0
289.7306,290.30875,48,70,0
290.30875,290.40268,72,78,0
290.40268,290.49582,76,67,0
290.40268,290.49582,79,80,0
290.49582,290.5651,84,81,0
290.58807,290.64914,84,82,0
290.6795,290.84805,96,95,0
290.66434,290.84805,91,91,0
290.64914,290.84805,88,88,0
291.01657,291.11368,61,82,0
291.11368,291.21182,53,71,0
291.21182,291.28635,61,72,0
291.21182,291.28635,58,67,0
291.31107,291.4091,61,73,0
291.4091,291.50598,65,75,0
291.50598,291.57797,73,77,0
291.50598,291.57797,70,71,0
291.01657,291.6018,49,70,0
291.6018,291.69653,73,78,0
291.69653,291.7902,77,80,0
291.7902,291.8598,85,81,0
291.7902,291.8598,82,77,0
291.88284,291.94403,85,82,0
291.97443,292.13925,97,95,0
291.95923,292.13925,94,91,0
291.94403,292.13925,89,88,0
292.3041,292.40277,60,82,0
292.39456,292.4929,55,71,0
292.39703,292.49533,52,60,0
292.50098,292.57352,60,72,0
292.5976,292.69327,60,73,0
292.69327,292.78806,64,63,0
292.69327,292.78806,67,75,0
292.78806,292.85852,72,77,0
292.3041,292.88193,48,70,0
292.88193,292.975,72,78,0
292.975,293.0672,76,67,0
292.975,293.0672,79,80,0
293.0672,293.1358,84,81,0
293.15857,293.21912,84,82,0
293.24942,293.409,96,95,0
293.23428,293.409,91,91,0
293.21912,293.409,88,88,0
293.56857,293.66663,65,82,0
293.66663,293.76514,59,71,0
293.66663,293.76514,56,64,0
293.76514,293.83804,65,72,0
293.8622,293.95853,65,73,0
293.95853,294.05405,71,75,0
293.95853,294.05405,68,66,0
294.05405,294.1252,77,77,0
293.56857,294.14883,53,70,0
294.14883,294.2427,77,78,0
294.2427,294.33588,83,80,0
294.2427,294.33588,80,71,0
294.33588,294.40527,89,81,0
294.4283,294.48953,89,82,0
294.52002,294.68042,101,95,0
294.5048,294.68042,95,91,0
294.48953,294.68042,92,88,0
294.83405,294.93552,64,82,0
294.83405,294.93552,52,70,0
294.92712,295.02707,55,71,0
295.03534,295.1335,60,72,0
295.1335,295.23035,64,73,0
295.23035,295.3324,67,63,0
295.23035,295.3324,72,75,0
295.23035,295.3324,76,77,0
295.435,295.53754,61,72,0
295.435,295.53754,73,85,0
295.53754,295.63818,65,74,0
295.63818,295.71246,73,76,0
295.63818,295.71246,70,64,0
295.73697,295.83386,73,78,0
295.83386,295.93002,85,80,0
295.83386,295.93002,82,67,0
295.83386,295.93002,77,67,0
296.02768,296.1275,72,82,0
296.02768,296.1275,60,70,0
296.1275,296.22568,64,63,0
296.1275,296.22568,67,71,0
296.22568,296.29825,72,72,0
296.32227,296.41776,72,73,0
296.41776,296.5133,76,63,0
296.41776,296.5133,79,75,0
296.41776,296.5133,84,77,0
296.61017,296.71066,77,72,0
296.61017,296.71066,89,85,0
296.71066,296.80923,83,74,0
296.71066,296.80923,80,69,0
296.80923,296.882,89,78,0
296.906,297.00146,89,81,0
297.00146,297.11426,101,85,0
297.00146,297.11426,95,72,0
297.00146,297.11426,92,72,0
297.22437,297.30768,91,63,0
297.22437,297.30768,96,63,0
297.22437,297.30768,100,75,0
297.3939,297.47794,89,54,0
297.3939,297.47794,97,65,0
297.3939,297.47794,94,54,0
297.56464,297.64963,88,62,0
297.56464,297.64963,91,62,0
297.56464,297.64963,96,73,0
297.73785,297.8231,85,54,0
297.73785,297.8231,89,54,0
297.73785,297.8231,94,65,0
297.91132,297.99655,84,63,0
297.91132,297.99655,88,63,0
297.91132,297.99655,91,75,0
298.084,298.16852,89,63,0
298.084,298.16852,80,53,0
298.084,298.16852,83,53,0
298.084,298.16852,86,53,0
298.25574,298.34024,79,58,0
298.25574,298.34024,84,58,0
298.25574,298.34024,88,69,0
298.42847,298.51395,77,50,0
298.42847,298.51395,85,60,0
298.42847,298.51395,82,50,0
298.6027,298.68793,76,56,0
298.6027,298.68793,79,56,0
298.6027,298.68793,84,67,0
298.77512,298.86035,73,50,0
298.77512,298.86035,77,50,0
298.77512,298.86035,82,60,0
298.94757,299.0328,72,58,0
298.94757,299.0328,76,58,0
298.94757,299.0328,79,69,0
299.12027,299.20547,77,57,0
299.12027,299.20547,68,48,0
299.12027,299.20547,71,48,0
299.12027,299.20547,74,48,0
299.29272,299.37888,67,58,0
299.29272,299.37888,72,58,0
299.29272,299.37888,76,69,0
299.4649,299.5507,65,52,0
299.4649,299.5507,73,61,0
299.4649,299.5507,70,52,0
299.63623,299.7216,64,59,0
299.63623,299.7216,67,59,0
299.63623,299.7216,72,71,0
299.8067,299.89154,61,54,0
299.8067,299.89154,65,54,0
299.8067,299.89154,70,64,0
299.97617,300.0606,60,64,0
299.97617,300.0606,64,64,0
299.97617,300.0606,67,76,0
300.1448,300.22876,65,64,0
300.1448,300.22876,56,54,0
300.1448,300.22876,59,54,0
300.1448,300.22876,62,54,0
300.31262,300.3961,55,68,0
300.31262,300.3961,60,68,0
300.31262,300.3961,64,81,0
300.47937,300.56345,53,60,0
300.47937,300.56345,61,71,0
300.47937,300.56345,58,60,0
300.64777,300.73193,52,70,0
300.64777,300.73193,55,70,0
300.64777,300.73193,60,82,0
300.81604,300.90033,49,63,0
300.81604,300.90033,53,63,0
300.81604,300.90033,58,74,0
300.98413,301.06738,52,74,0
300.98413,301.06738,55,88,0
301.1501,301.234,53,90,0
301.1501,301.234,47,74,0
301.1501,301.234,44,74,0
301.69522,301.78897,50,90,0
301.69522,301.78897,47,74,0
301.69522,301.78897,44,74,0
302.27875,302.3725,47,90,0
302.27875,302.3725,44,74,0
302.46625,302.56,56,99,0
302.46625,302.56,47,81,0
302.46625,302.56,44,81,0
302.65375,302.7475,53,90,0
302.65375,302.7475,47,74,0
302.65375,302.7475,44,74,0
303.91925,303.99384,44,79,0
304.0192,304.09702,43,81,0
304.124,304.2097,42,83,0
304.23932,304.32962,41,86,0
304.35974,305.6833,48,89,0
304.35974,305.6833,43,74,0
304.35974,305.6833,40,74,0
0.1045295,0.209059,48,66,0
0.0,0.209059,36,65,0
0.0,0.209059,24,55,0
0.3135885,0.4177756,55,71,0
0.209059,0.4177756,43,68,0
0.209059,0.4177756,31,57,0
0.52037627,0.6216469,53,73,0
0.4177756,0.6216469,41,72,0
0.4177756,0.6216469,29,61,0
0.7216235,0.8203367,51,78,0
0.6216469,0.8203367,39,76,0
0.6216469,0.8203367,27,64,0
0.9178172,1.014096,50,82,0
0.8203367,1.014096,38,81,0
0.8203367,1.014096,26,68,0
1.132673,1.445173,48,76,0
1.014096,1.445173,36,102,0
1.014096,1.445173,24,84,0
1.445173,1.5489793,48,77,0
1.445173,1.5489793,60,91,0
1.445173,1.5489793,55,77,0
1.445173,1.5489793,51,77,0
1.7565918,1.8533661,48,60,0
1.7565918,1.8533661,60,72,0
1.7565918,1.8533661,55,60,0
1.7565918,1.8533661,51,60,0
1.8533661,1.9616693,48,67,0
1.8533661,1.9616693,60,80,0
1.8533661,1.9616693,55,67,0
1.8533661,1.9616693,51,67,0
2.3948824,2.492602,55,54,0
2.3948824,2.492602,48,54,0
2.3948824,2.492602,51,54,0
2.3948824,2.492602,60,64,0
2.492602,2.6009054,48,63,0
2.492602,2.6009054,60,73,0
2.492602,2.6009054,55,63,0
2.492602,2.6009054,51,63,0
3.0249984,3.1253328,60,63,0
3.0249984,3.1253328,48,53,0
3.0249984,3.1253328,51,53,0
3.0249984,3.1253328,55,53,0
3.1253328,3.238969,48,60,0
3.1253328,3.238969,60,72,0
3.1253328,3.238969,55,60,0
3.1253328,3.238969,51,60,0
3.3526053,3.4662416,59,63,0
3.3526053,3.4662416,48,53,0
3.3526053,3.4662416,51,53,0
3.3526053,3.4662416,55,53,0
3.5798779,3.693514,48,60,0
3.5798779,3.693514,60,72,0
3.5798779,3.693514,55,60,0
3.5798779,3.693514,51,60,0
4.1389523,4.2434816,50,66,0
4.034423,4.2434816,35,55,0
4.034423,4.2434816,38,65,0
4.1389523,4.2434816,47,63,0
4.3480115,4.4523697,56,71,0
4.2434816,4.4523697,44,68,0
4.5552516,4.6568785,55,73,0
4.4523697,4.6568785,43,72,0
4.7572427,4.8564363,53,78,0
4.6568785,4.8564363,41,76,0
4.9544497,5.051298,51,82,0
4.8564363,5.051298,39,81,0
5.169875,5.4609575,50,76,0
5.051298,5.4609575,38,102,0
5.5061383,5.6099443,62,91,0
5.4609575,5.6099443,47,77,0
5.4760175,5.6099443,53,77,0
5.491078,5.6099443,56,77,0
5.810838,5.9191413,47,60,0
5.810838,5.9191413,53,60,0
5.810838,5.9191413,56,72,0
5.9191413,6.027445,47,67,0
5.9191413,6.027445,53,67,0
5.9191413,6.027445,56,80,0
6.4606576,6.5583773,56,54,0
6.4606576,6.5583773,62,64,0
6.4606576,6.5583773,53,54,0
6.5583773,6.6670732,53,63,0
6.5583773,6.6670732,56,63,0
6.5583773,6.6670732,62,73,0
7.0915585,7.205627,56,63,0
7.0915585,7.205627,53,53,0
7.0915585,7.205627,47,53,0
7.205627,7.3196955,47,60,0
7.205627,7.3196955,53,60,0
7.205627,7.3196955,56,72,0
7.433764,7.5478325,56,63,0
7.433764,7.5478325,52,53,0
7.433764,7.5478325,47,53,0
7.661901,7.7759695,47,60,0
7.661901,7.7759695,53,60,0
7.661901,7.7759695,56,72,0
8.328702,8.440392,48,53,0
8.328702,8.440392,43,45,0
8.328702,8.440392,36,45,0
8.550284,8.600572,48,34,0
8.600572,8.651145,50,36,0
8.651145,8.701973,51,37,0
8.701973,8.7530775,53,39,0
8.7530775,8.858119,55,41,0
8.963161,9.033037,44,47,0
8.963161,9.033037,41,40,0
8.963161,9.033037,32,40,0
9.149497,9.221845,44,50,0
9.149497,9.221845,41,42,0
9.149497,9.221845,32,42,0
9.3424225,9.4407835,46,54,0
9.3424225,9.4407835,41,45,0
9.3424225,9.4407835,34,45,0
9.538808,9.586182,53,36,0
9.586182,9.633771,51,36,0
9.633771,9.681677,50,38,0
9.681677,9.7299,48,41,0
9.7299,9.832081,46,43,0
9.93426,10.004354,43,54,0
9.93426,10.004354,39,45,0
9.93426,10.004354,31,45,0
10.121177,10.193523,43,56,0
10.121177,10.193523,39,47,0
10.121177,10.193523,31,47,0
10.314102,10.409644,44,63,0
10.314102,10.409644,39,52,0
10.314102,10.409644,32,52,0
10.504902,10.551882,44,40,0
10.551882,10.599124,46,41,0
10.599124,10.646657,48,43,0
10.646657,10.694471,50,46,0
10.694471,10.797001,51,48,0
10.899529,10.970958,41,61,0
10.899529,10.970958,38,51,0
10.899529,10.970958,29,51,0
11.090006,11.165763,41,63,0
11.090006,11.165763,38,54,0
11.090006,11.165763,29,54,0
11.292026,11.390065,43,70,0
11.292026,11.390065,38,58,0
11.292026,11.390065,31,58,0
11.488104,11.534815,50,43,0
11.534815,11.58179,48,45,0
11.58179,11.629092,47,47,0
11.629092,11.67685,44,50,0
11.67685,11.773624,43,53,0
11.8703985,11.948254,52,65,0
11.8703985,11.948254,49,55,0
11.8703985,11.948254,40,55,0
12.0780115,12.157237,52,69,0
12.0780115,12.157237,48,57,0
12.0780115,12.157237,40,57,0
12.288619,12.386339,53,75,0
12.288619,12.386339,48,63,0
12.288619,12.386339,41,63,0
12.484058,12.531187,47,44,0
12.531187,12.578747,48,46,0
12.578747,12.62694,50,48,0
12.62694,12.675764,52,52,0
12.675764,12.792952,53,54,0
12.910139,13.041372,49,77,0
12.910139,13.041372,44,64,0
12.910139,13.041372,37,64,0
13.1726055,13.219733,49,47,0
13.219733,13.267293,51,49,0
13.267293,13.315487,53,51,0
13.315487,13.36431,54,53,0
13.36431,13.477947,56,60,0
13.591583,13.638711,61,49,0
13.638711,13.686271,63,51,0
13.686271,13.734465,65,53,0
13.734465,13.783288,66,54,0
13.783288,13.896496,68,63,0
14.006877,14.056834,73,51,0
14.056834,14.107496,75,53,0
14.107496,14.158879,77,54,0
14.158879,14.210979,78,57,0
14.210979,14.339735,80,64,0
14.597245,14.698597,53,81,0
14.597245,14.698597,49,68,0
14.597245,14.698597,41,68,0
14.698597,14.8069,53,72,0
14.698597,14.8069,49,61,0
14.698597,14.8069,41,61,0
14.915203,15.023506,56,81,0
14.915203,15.023506,53,67,0
14.915203,15.023506,44,67,0
15.240113,15.341808,61,73,0
15.240113,15.341808,56,62,0
15.240113,15.341808,49,62,0
15.341808,15.450899,61,73,0
15.341808,15.450899,56,62,0
15.341808,15.450899,49,62,0
15.87578,15.976114,65,66,0
15.87578,15.976114,53,54,0
15.87578,15.976114,56,54,0
15.87578,15.976114,61,54,0
15.976114,16.08975,53,63,0
15.976114,16.08975,65,75,0
15.976114,16.08975,61,63,0
15.976114,16.08975,56,63,0
16.203386,16.317022,64,66,0
16.203386,16.317022,52,54,0
16.203386,16.317022,56,54,0
16.203386,16.317022,60,54,0
16.430658,16.544296,53,63,0
16.430658,16.544296,65,75,0
16.430658,16.544296,61,63,0
16.430658,16.544296,56,63,0
16.885204,16.994295,59,67,0
16.885204,16.994295,47,60,0
16.885204,16.994295,53,60,0
16.885204,16.994295,56,60,0
17.212477,17.313828,61,78,0
17.212477,17.313828,49,65,0
17.313828,17.422132,62,70,0
17.313828,17.422132,50,58,0
17.530436,17.638739,63,77,0
17.530436,17.638739,51,64,0
17.530436,17.638739,54,64,0
17.530436,17.638739,60,64,0
17.855345,17.957039,59,71,0
17.855345,17.957039,47,59,0
17.957039,18.066132,60,71,0
17.957039,18.066132,48,59,0
18.175222,18.276232,67,64,0
18.175222,18.276232,55,57,0
18.175222,18.276232,59,57,0
18.175222,18.276232,62,57,0
18.481771,18.585958,50,75,0
18.377241,18.585958,38,77,0
18.688559,18.78983,48,72,0
18.585958,18.78983,36,73,0
18.889807,18.98852,47,70,0
18.78983,18.98852,35,71,0
19.086,19.18228,44,66,0
18.98852,19.18228,32,68,0
19.300856,19.577099,43,63,0
19.18228,19.577099,31,79,0
19.577099,19.680904,43,54,0
19.577099,19.680904,51,54,0
19.577099,19.680904,48,54,0
19.577099,19.680904,54,64,0
19.577099,19.680904,45,54,0
19.888517,19.985292,43,42,0
19.888517,19.985292,51,42,0
19.888517,19.985292,48,42,0
19.888517,19.985292,54,51,0
19.888517,19.985292,45,42,0
19.985292,20.093596,43,48,0
19.985292,20.093596,51,48,0
19.985292,20.093596,48,48,0
19.985292,20.093596,54,56,0
19.985292,20.093596,45,48,0
20.526808,20.624527,51,38,0
20.526808,20.624527,45,38,0
20.526808,20.624527,48,38,0
20.526808,20.624527,43,38,0
20.526808,20.624527,54,45,0
20.624527,20.73283,43,45,0
20.624527,20.73283,51,45,0
20.624527,20.73283,48,45,0
20.624527,20.73283,54,52,0
20.624527,20.73283,45,45,0
21.05542,21.108992,54,45,0
21.05542,21.108992,48,38,0
21.05542,21.108992,43,38,0
21.05542,21.108992,45,38,0
21.05542,21.108992,51,38,0
21.162563,21.216133,54,40,0
21.162563,21.216133,48,34,0
21.162563,21.216133,43,34,0
21.162563,21.216133,45,34,0
21.162563,21.216133,51,34,0
21.269705,21.326523,54,40,0
21.269705,21.326523,48,34,0
21.269705,21.326523,43,34,0
21.269705,21.326523,45,34,0
21.269705,21.326523,51,34,0
21.38334,21.440159,54,40,0
21.38334,21.440159,48,34,0
21.38334,21.440159,43,34,0
21.38334,21.440159,45,34,0
21.38334,21.440159,51,34,0
21.496977,21.605673,55,48,0
21.496977,21.605673,43,40,0
21.496977,21.605673,47,40,0
21.496977,21.605673,50,40,0
21.817024,21.92041,50,75,0
21.713575,21.92041,38,77,0
22.022171,22.122309,48,72,0
21.92041,22.122309,36,73,0
22.22084,22.317867,47,70,0
22.122309,22.317867,35,71,0
22.413368,22.50796,44,66,0
22.317867,22.50796,32,68,0
22.626535,22.886051,43,63,0
22.50796,22.886051,31,79,0
22.886051,22.989857,43,54,0
22.886051,22.989857,51,54,0
22.886051,22.989857,48,54,0
22.886051,22.989857,54,64,0
22.886051,22.989857,45,54,0
23.19747,23.294245,43,42,0
23.19747,23.294245,51,42,0
23.19747,23.294245,48,42,0
23.19747,23.294245,54,51,0
23.19747,23.294245,45,42,0
23.294245,23.402548,43,48,0
23.294245,23.402548,51,48,0
23.294245,23.402548,48,48,0
23.294245,23.402548,54,56,0
23.294245,23.402548,45,48,0
23.83576,23.93348,51,38,0
23.83576,23.93348,45,38,0
23.83576,23.93348,48,38,0
23.83576,23.93348,43,38,0
23.83576,23.93348,54,45,0
23.93348,24.041782,43,45,0
23.93348,24.041782,51,45,0
23.93348,24.041782,48,45,0
23.93348,24.041782,54,52,0
23.93348,24.041782,45,45,0
24.364372,24.417944,54,45,0
24.364372,24.417944,48,38,0
24.364372,24.417944,43,38,0
24.364372,24.417944,45,38,0
24.364372,24.417944,51,38,0
24.471516,24.525085,54,40,0
24.471516,24.525085,48,34,0
24.471516,24.525085,43,34,0
24.471516,24.525085,45,34,0
24.471516,24.525085,51,34,0
24.578657,24.635475,54,40,0
24.578657,24.635475,48,34,0
24.578657,24.635475,43,34,0
24.578657,24.635475,45,34,0
24.578657,24.635475,51,34,0
24.692293,24.749111,54,40,0
24.692293,24.749111,48,34,0
24.692293,24.749111,43,34,0
24.692293,24.749111,45,34,0
24.692293,24.749111,51,34,0
24.80593,24.92404,55,48,0
24.80593,24.92404,43,40,0
24.80593,24.92404,47,40,0
24.80593,24.92404,50,40,0
25.04215,25.250788,38,46,0
25.04215,25.250788,50,55,0
25.250788,25.447443,36,48,0
25.250788,25.447443,48,57,0
25.447443,25.642109,35,50,0
25.447443,25.642109,47,60,0
25.642109,25.834902,33,52,0
25.642109,25.834902,45,62,0
25.834902,26.024227,31,59,0
25.834902,26.024227,43,70,0
26.024227,26.219381,44,62,0
26.024227,26.219381,56,73,0
26.219381,26.413422,42,55,0
26.219381,26.413422,54,65,0
26.413422,26.606363,41,57,0
26.413422,26.606363,53,68,0
26.606363,26.79817,39,61,0
26.606363,26.79817,51,72,0
26.79817,27.091,37,54,0
26.79817,27.091,49,75,0
27.091,27.20911,61,63,0
27.091,27.20911,49,54,0
27.091,27.20911,53,54,0
27.091,27.20911,56,54,0
27.32722,27.445332,55,70,0
27.32722,27.445332,43,59,0
27.32722,27.445332,47,59,0
27.32722,27.445332,50,59,0
27.563442,27.77208,38,51,0
27.563442,27.77208,50,61,0
27.77208,27.968735,36,53,0
27.77208,27.968735,48,63,0
27.968735,28.163399,35,54,0
27.968735,28.163399,47,65,0
28.163399,28.356192,33,56,0
28.163399,28.356192,45,67,0
28.356192,28.545519,31,64,0
28.356192,28.545519,43,76,0
28.545519,28.740673,44,67,0
28.545519,28.740673,56,81,0
28.740673,28.934711,42,61,0
28.740673,28.934711,54,72,0
28.934711,29.127655,41,63,0
28.934711,29.127655,53,74,0
29.127655,29.319462,39,66,0
29.127655,29.319462,51,79,0
29.319462,29.612291,37,59,0
29.319462,29.612291,49,82,0
29.612291,29.730402,61,50,0
29.612291,29.730402,49,36,0
29.612291,29.730402,53,36,0
29.612291,29.730402,56,36,0
29.848513,30.557173,55,55,0
29.848513,30.557173,43,39,0
29.848513,30.557173,47,39,0
29.848513,30.557173,50,39,0
30.557173,31.265835,53,55,0
30.557173,31.265835,41,46,0
30.557173,31.265835,44,46,0
30.557173,31.265835,48,46,0
31.265835,31.96433,49,60,0
31.265835,31.96433,37,50,0
31.265835,31.96433,41,50,0
31.265835,31.96433,44,50,0
31.96433,32.65733,48,64,0
31.96433,32.65733,36,54,0
31.96433,32.65733,41,54,0
31.96433,32.65733,44,54,0
32.65733,33.011658,44,65,0
32.65733,33.011658,32,55,0
32.65733,33.011658,36,55,0
32.65733,33.011658,38,55,0
33.011658,33.36599,44,65,0
33.011658,33.36599,32,55,0
33.011658,33.36599,36,55,0
33.011658,33.36599,38,55,0
33.36599,33.727436,44,65,0
33.36599,33.727436,32,55,0
33.36599,33.727436,36,55,0
33.36599,33.727436,38,55,0
33.727436,34.123146,44,65,0
33.727436,34.123146,32,55,0
33.727436,34.123146,36,55,0
33.727436,34.123146,38,55,0
34.123146,34.26076,43,61,0
34.123146,34.26076,31,51,0
34.123146,34.26076,35,51,0
34.123146,34.26076,38,51,0
34.395634,34.452557,80,62,0
34.452557,34.507877,79,61,0
34.507877,34.563732,78,59,0
34.562706,34.618057,77,58,0
34.618057,34.671856,76,56,0
34.671856,34.726517,75,55,0
34.726517,34.780743,74,54,0
34.780743,34.836628,73,53,0
34.83559,34.89217,72,52,0
34.89102,35.028637,71,60,0
35.165966,35.222702,68,52,0
35.222702,35.27809,67,51,0
35.27809,35.333057,66,50,0
35.333057,35.38872,65,49,0
35.387695,35.442005,64,47,0
35.443024,35.49821,63,46,0
35.49821,35.553005,62,45,0
35.553005,35.60843,61,45,0
35.60843,35.66553,60,44,0
35.664383,35.802,59,50,0
35.938267,35.99457,56,44,0
35.99457,36.04954,55,43,0
36.04954,36.1043,54,42,0
36.1043,36.1598,53,41,0
36.158775,36.213047,52,40,0
36.21407,36.269096,51,39,0
36.269096,36.323532,50,38,0
36.323532,36.37838,49,37,0
36.37838,36.43496,48,36,0
36.43381,36.571426,47,42,0
36.70904,36.76379,44,44,0
36.76379,36.81877,43,43,0
36.81981,36.875004,42,42,0
36.875004,36.930412,41,41,0
36.930412,36.98603,40,40,0
36.987083,37.043007,39,39,0
37.043007,37.099144,38,38,0
37.10021,37.156567,37,37,0
37.156567,37.213146,36,36,0
37.213146,37.271114,35,35,0
37.271114,37.32777,36,36,0
37.32777,37.384117,37,36,0
37.384117,37.440144,38,38,0
37.440144,37.495823,39,39,0
37.49687,37.55225,40,40,0
37.55225,37.607285,41,41,0
37.60832,37.663048,42,43,0
37.663048,37.717472,43,44,0
37.717472,37.771564,44,45,0
37.772587,37.82724,43,44,0
37.82724,37.882687,42,43,0
37.88374,37.94004,41,41,0
37.94004,37.997234,40,40,0
37.997234,38.055264,39,39,0
38.056366,38.115307,38,38,0
38.115307,38.17521,37,37,0
38.176346,38.237133,36,36,0
38.235985,38.51172,35,50,0
39.06319,39.33893,43,50,0
41.64934,41.75387,48,66,0
41.54481,41.75387,36,65,0
41.8584,41.962585,55,71,0
41.75387,41.962585,43,68,0
42.065186,42.16646,53,73,0
41.962585,42.16646,41,72,0
42.266434,42.365147,51,78,0
42.16646,42.365147,39,76,0
42.462627,42.558907,50,82,0
42.365147,42.558907,38,81,0
42.677483,42.989983,48,76,0
42.558907,42.989983,36,102,0
42.989983,43.093575,48,77,0
42.989983,43.093575,60,91,0
42.989983,43.093575,55,77,0
42.989983,43.093575,51,77,0
43.30076,43.39753,48,60,0
43.30076,43.39753,60,72,0
43.30076,43.39753,55,60,0
43.30076,43.39753,51,60,0
43.39753,43.505836,48,67,0
43.39753,43.505836,60,80,0
43.39753,43.505836,55,67,0
43.39753,43.505836,51,67,0
43.93905,44.036766,55,54,0
43.93905,44.036766,48,54,0
43.93905,44.036766,51,54,0
43.93905,44.036766,60,64,0
44.036766,44.14507,48,63,0
44.036766,44.14507,60,73,0
44.036766,44.14507,55,63,0
44.036766,44.14507,51,63,0
44.569164,44.672256,60,63,0
44.569164,44.672256,48,53,0
44.569164,44.672256,51,53,0
44.569164,44.672256,55,53,0
44.672256,44.791306,48,60,0
44.672256,44.791306,60,72,0
44.672256,44.791306,55,60,0
44.672256,44.791306,51,60,0
44.91035,45.023987,59,63,0
44.91035,45.023987,48,53,0
44.91035,45.023987,51,53,0
44.91035,45.023987,55,53,0
45.137623,45.25126,48,60,0
45.137623,45.25126,60,72,0
45.137623,45.25126,55,60,0
45.137623,45.25126,51,60,0
45.696697,45.801228,49,66,0
45.59217,45.801228,37,65,0
45.59217,45.801228,35,55,0
45.905758,46.010117,56,71,0
45.801228,46.010117,44,68,0
46.113,46.214626,54,73,0
46.010117,46.214626,42,72,0
46.314987,46.41418,53,78,0
46.214626,46.41418,41,76,0
46.512196,46.609043,51,82,0
46.41418,46.609043,39,81,0
46.727623,47.018703,49,76,0
46.609043,47.018703,37,102,0
47.063885,47.16769,61,91,0
47.063885,47.16769,47,77,0
47.063885,47.16769,53,77,0
47.063885,47.16769,56,77,0
47.368584,47.476887,47,60,0
47.368584,47.476887,53,60,0
47.368584,47.476887,56,72,0
47.476887,47.58519,47,67,0
47.476887,47.58519,53,67,0
47.476887,47.58519,56,80,0
48.018402,48.116123,56,54,0
48.018402,48.116123,61,64,0
48.018402,48.116123,53,54,0
48.116123,48.22482,53,63,0
48.116123,48.22482,56,63,0
48.116123,48.22482,61,73,0
48.649303,48.763374,56,63,0
48.649303,48.763374,53,53,0
48.649303,48.763374,47,53,0
48.763374,48.87744,47,60,0
48.763374,48.87744,53,60,0
48.763374,48.87744,56,72,0
48.99151,49.10558,56,63,0
48.99151,49.10558,52,53,0
48.99151,49.10558,47,53,0
49.219646,49.333717,47,60,0
49.219646,49.333717,53,60,0
49.219646,49.333717,56,72,0
49.886448,49.99814,46,53,0
49.886448,49.99814,41,45,0
49.886448,49.99814,34,45,0
50.106766,50.156525,46,34,0
50.156525,50.206654,48,36,0
50.206654,50.257195,50,37,0
50.257195,50.307022,51,39,0
50.307022,50.412064,53,41,0
50.517105,50.610275,46,47,0
50.517105,50.610275,42,40,0
50.517105,50.610275,34,40,0
50.70344,50.799904,46,50,0
50.70344,50.799904,39,42,0
50.70344,50.799904,34,42,0
50.896366,50.98811,46,54,0
50.896366,50.98811,41,45,0
50.896366,50.98811,34,45,0
51.080513,51.127106,53,36,0
51.127106,51.174217,51,36,0
51.174217,51.22188,50,38,0
51.22188,51.269325,48,41,0
51.269325,51.371506,46,43,0
51.473686,51.567146,45,54,0
51.473686,51.567146,42,45,0
51.473686,51.567146,33,45,0
51.660603,51.757065,45,56,0
51.660603,51.757065,42,47,0
51.660603,51.757065,33,47,0
51.853527,51.94907,44,63,0
51.853527,51.94907,40,52,0
51.853527,51.94907,32,52,0
52.044613,52.091763,52,40,0
52.091763,52.13933,54,41,0
52.13933,52.18738,56,43,0
52.18738,52.234657,57,46,0
52.234657,52.33719,59,48,0
52.439716,52.534954,45,61,0
52.439716,52.534954,42,51,0
52.439716,52.534954,33,51,0
52.63019,52.7312,45,63,0
52.63019,52.7312,42,54,0
52.63019,52.7312,33,54,0
52.832214,52.930252,44,70,0
52.832214,52.930252,40,58,0
52.832214,52.930252,32,58,0
53.02738,53.073685,59,43,0
53.073685,53.120285,57,45,0
53.120285,53.167187,56,47,0
53.167187,53.214424,54,50,0
53.214424,53.311195,52,53,0
53.40797,53.511776,43,65,0
53.40797,53.511776,40,55,0
53.40797,53.511776,31,55,0
53.615585,53.72122,43,69,0
53.615585,53.72122,40,57,0
53.615585,53.72122,31,57,0
53.82619,53.923912,42,75,0
53.82619,53.923912,38,63,0
53.82619,53.923912,30,63,0
54.02163,54.06876,50,44,0
54.06876,54.116318,52,46,0
54.116318,54.164513,54,48,0
54.164513,54.213337,55,52,0
54.213337,54.330524,57,54,0
54.447712,54.578945,41,77,0
54.447712,54.578945,38,64,0
54.447712,54.578945,29,64,0
54.71018,54.757305,50,47,0
54.757305,54.804867,53,49,0
54.804867,54.853058,56,51,0
54.853058,54.901882,58,53,0
54.901882,55.01552,59,60,0
55.129154,55.176285,62,49,0
55.176285,55.223843,65,51,0
55.223843,55.272038,68,53,0
55.272038,55.32086,70,54,0
55.32086,55.434067,71,63,0
55.54445,55.594406,74,51,0
55.594406,55.64507,77,53,0
55.64507,55.696453,80,54,0
55.696453,55.74855,82,57,0
55.74855,55.877308,83,64,0
56.13482,56.236168,42,81,0
56.13482,56.236168,39,68,0
56.13482,56.236168,30,68,0
56.236168,56.34447,42,72,0
56.236168,56.34447,39,61,0
56.236168,56.34447,30,61,0
56.452774,56.561077,47,81,0
56.452774,56.561077,42,67,0
56.452774,56.561077,35,67,0
56.777687,56.87938,51,73,0
56.777687,56.87938,47,62,0
56.777687,56.87938,39,62,0
56.87938,56.988472,51,73,0
56.87938,56.988472,47,62,0
56.87938,56.988472,39,62,0
57.413353,57.513687,54,66,0
57.413353,57.513687,47,54,0
57.413353,57.513687,42,54,0
57.513687,57.627323,42,63,0
57.513687,57.627323,47,63,0
57.513687,57.627323,54,75,0
57.74096,57.854595,53,66,0
57.74096,57.854595,47,54,0
57.74096,57.854595,41,54,0
57.96823,58.081867,42,63,0
57.96823,58.081867,47,63,0
57.96823,58.081867,54,75,0
58.422775,58.531868,56,67,0
58.422775,58.531868,51,60,0
58.422775,58.531868,44,60,0
58.75005,58.851402,62,78,0
58.75005,58.851402,50,65,0
58.851402,58.959705,63,70,0
58.851402,58.959705,51,58,0
59.06801,59.17631,57,77,0
59.06801,59.17631,45,64,0
59.06801,59.17631,51,64,0
59.06801,59.17631,54,64,0
59.392918,59.494614,62,71,0
59.392918,59.494614,50,59,0
59.494614,59.603703,63,71,0
59.494614,59.603703,51,59,0
59.712795,59.821884,58,64,0
59.712795,59.821884,53,57,0
59.712795,59.821884,46,57,0
60.035507,60.139694,53,75,0
59.930977,60.139694,41,77,0
60.242294,60.343563,51,72,0
60.139694,60.343563,39,73,0
60.443542,60.542255,50,70,0
60.343563,60.542255,38,71,0
60.639736,60.73601,47,66,0
60.542255,60.73601,35,68,0
60.85459,61.130833,46,63,0
60.73601,61.130833,34,79,0
61.130833,61.23464,46,54,0
61.130833,61.23464,54,54,0
61.130833,61.23464,51,54,0
61.130833,61.23464,57,64,0
61.130833,61.23464,48,54,0
61.442253,61.539024,46,42,0
61.442253,61.539024,54,42,0
61.442253,61.539024,51,42,0
61.442253,61.539024,57,51,0
61.442253,61.539024,48,42,0
61.539024,61.64733,46,48,0
61.539024,61.64733,54,48,0
61.539024,61.64733,51,48,0
61.539024,61.64733,57,56,0
61.539024,61.64733,48,48,0
62.080544,62.17826,54,38,0
62.080544,62.17826,48,38,0
62.080544,62.17826,51,38,0
62.080544,62.17826,46,38,0
62.080544,62.17826,57,45,0
62.17826,62.286564,46,45,0
62.17826,62.286564,54,45,0
62.17826,62.286564,51,45,0
62.17826,62.286564,57,52,0
62.17826,62.286564,48,45,0
62.609154,62.662727,57,45,0
62.609154,62.662727,51,38,0
62.609154,62.662727,46,38,0
62.609154,62.662727,48,38,0
62.609154,62.662727,54,38,0
62.716297,62.769867,57,40,0
62.716297,62.769867,51,34,0
62.716297,62.769867,46,34,0
62.716297,62.769867,48,34,0
62.716297,62.769867,54,34,0
62.82344,62.880257,57,40,0
62.82344,62.880257,51,34,0
62.82344,62.880257,46,34,0
62.82344,62.880257,48,34,0
62.82344,62.880257,54,34,0
62.937077,62.993893,57,40,0
62.937077,62.993893,51,34,0
62.937077,62.993893,46,34,0
62.937077,62.993893,48,34,0
62.937077,62.993893,54,34,0
63.050713,63.14875,58,48,0
63.050713,63.14875,46,40,0
63.050713,63.14875,50,40,0
63.050713,63.14875,53,40,0
63.24679,63.455505,53,77,0
63.24679,63.455505,41,61,0
63.455505,63.659378,51,73,0
63.455505,63.659378,39,58,0
63.659378,63.858067,50,71,0
63.659378,63.858067,38,56,0
63.858067,64.05183,47,68,0
63.858067,64.05183,35,54,0
64.05183,64.429924,46,79,0
64.05183,64.429924,34,63,0
64.429924,64.53373,46,54,0
64.429924,64.53373,54,54,0
64.429924,64.53373,51,54,0
64.429924,64.53373,57,64,0
64.429924,64.53373,48,54,0
64.74134,64.83811,46,42,0
64.74134,64.83811,54,42,0
64.74134,64.83811,51,42,0
64.74134,64.83811,57,51,0
64.74134,64.83811,48,42,0
64.83811,64.94642,46,48,0
64.83811,64.94642,54,48,0
64.83811,64.94642,51,48,0
64.83811,64.94642,57,56,0
64.83811,64.94642,48,48,0
65.37963,65.47735,54,38,0
65.37963,65.47735,48,38,0
65.37963,65.47735,51,38,0
65.37963,65.47735,46,38,0
65.37963,65.47735,57,45,0
65.47735,65.585655,46,45,0
65.47735,65.585655,54,45,0
65.47735,65.585655,51,45,0
65.47735,65.585655,57,52,0
65.47735,65.585655,48,45,0
65.90824,65.961815,57,45,0
65.90824,65.961815,51,38,0
65.90824,65.961815,46,38,0
65.90824,65.961815,48,38,0
65.90824,65.961815,54,38,0
66.01538,66.068954,57,36,0
66.01538,66.068954,51,30,0
66.01538,66.068954,46,30,0
66.01538,66.068954,48,30,0
66.01538,66.068954,54,30,0
66.12253,66.179344,57,36,0
66.12253,66.179344,51,30,0
66.12253,66.179344,46,30,0
66.12253,66.179344,48,30,0
66.12253,66.179344,54,30,0
66.23616,66.292984,57,36,0
66.23616,66.292984,51,30,0
66.23616,66.292984,46,30,0
66.23616,66.292984,48,30,0
66.23616,66.292984,54,30,0
66.3498,66.46791,58,48,0
66.3498,66.46791,46,40,0
66.3498,66.46791,50,40,0
66.3498,66.46791,53,40,0
66.58602,66.7938,65,54,0
66.7938,66.99322,63,57,0
66.99322,67.18992,62,60,0
67.18992,67.38399,60,62,0
67.38399,67.584366,58,54,0
67.584366,67.68453,56,56,0
67.584366,67.68453,52,56,0
67.584366,67.68453,44,47,0
67.78429,67.88354,54,58,0
67.78429,67.88354,42,49,0
67.982346,68.08054,52,61,0
67.982346,68.08054,40,51,0
68.17775,68.27413,49,63,0
68.17775,68.27413,37,53,0
68.369644,68.46433,47,65,0
68.369644,68.46433,35,55,0
68.5582,68.68478,44,68,0
68.5582,68.68478,32,57,0
68.81136,68.91812,46,68,0
68.81136,68.91812,41,57,0
68.81136,68.91812,34,57,0
69.02489,69.232666,65,57,0
69.232666,69.43208,63,60,0
69.43208,69.62878,62,63,0
69.62878,69.822845,60,64,0
69.822845,70.02323,58,56,0
70.02323,70.1234,56,59,0
70.02323,70.1234,52,59,0
70.02323,70.1234,44,49,0
70.223145,70.321434,54,61,0
70.223145,70.321434,42,51,0
70.419075,70.515915,52,63,0
70.419075,70.515915,40,53,0
70.61186,70.70697,49,65,0
70.61186,70.70697,37,54,0
70.801285,70.89475,47,68,0
70.801285,70.89475,35,58,0
70.9874,71.11137,44,71,0
70.9874,71.11137,32,60,0
71.23534,71.342476,46,71,0
71.23534,71.342476,41,60,0
71.23534,71.342476,34,60,0
71.55676,71.64935,65,49,0
71.55676,71.64935,68,58,0
71.55676,71.64935,58,49,0
71.64935,71.84803,65,43,0
71.64935,71.84803,68,51,0
71.64935,71.84803,58,43,0
71.84803,71.95633,68,58,0
71.84803,71.95633,65,49,0
71.84803,71.95633,58,49,0
72.172935,72.266106,63,49,0
72.172935,72.266106,66,58,0
72.172935,72.266106,57,49,0
72.266106,72.46218,63,44,0
72.266106,72.46218,66,52,0
72.266106,72.46218,57,44,0
72.46218,72.57088,66,57,0
72.46218,72.57088,63,48,0
72.46218,72.57088,57,48,0
72.78827,72.88202,58,50,0
72.78827,72.88202,64,60,0
72.78827,72.88202,55,50,0
72.88202,73.07874,58,46,0
72.88202,73.07874,64,55,0
72.88202,73.07874,55,46,0
73.07874,73.18705,64,61,0
73.07874,73.18705,58,51,0
73.07874,73.18705,55,51,0
73.403656,73.49829,56,50,0
73.403656,73.49829,61,59,0
73.403656,73.49829,53,50,0
73.49829,73.70031,56,45,0
73.49829,73.70031,61,54,0
73.49829,73.70031,53,45,0
73.70031,73.8094,61,59,0
73.70031,73.8094,56,50,0
73.70031,73.8094,53,50,0
74.02758,74.12436,53,52,0
74.02758,74.12436,59,62,0
74.02758,74.12436,47,52,0
74.12436,74.33197,53,45,0
74.12436,74.33197,59,54,0
74.12436,74.33197,47,45,0
74.33197,74.43988,59,62,0
74.33197,74.43988,53,52,0
74.33197,74.43988,47,52,0
74.65571,74.75343,53,53,0
74.65571,74.75343,58,63,0
74.65571,74.75343,46,53,0
74.75343,74.962494,53,48,0
74.75343,74.962494,58,57,0
74.75343,74.962494,46,48,0
74.962494,75.070015,58,64,0
74.962494,75.070015,53,54,0
74.962494,75.070015,46,54,0
75.28507,75.33884,58,48,0
75.3926,75.50012,58,44,0
75.60759,75.71554,58,43,0
75.93671,75.99314,58,35,0
76.04967,76.176254,58,39,0
76.300125,76.51831,63,30,0
76.300125,76.51831,58,25,0
76.300125,76.51831,51,25,0
76.62942,76.68261,63,20,0
76.62942,76.68261,67,25,0
76.7358,76.85119,67,25,0
76.7358,76.85119,63,20,0
76.96657,77.07646,67,31,0
76.96657,77.07646,63,26,0
77.29746,77.350655,58,21,0
77.29746,77.350655,63,26,0
77.40385,77.51968,63,27,0
77.40385,77.51968,58,22,0
77.635506,77.7442,60,31,0
77.96319,78.01833,55,26,0
77.96319,78.01833,48,21,0
78.07349,78.185844,55,26,0
78.07349,78.185844,48,21,0
78.2982,78.96241,55,30,0
78.2982,78.96241,48,25,0
78.96241,79.18059,56,29,0
78.96241,79.18059,53,25,0
78.96241,79.18059,46,25,0
79.2917,79.34726,56,26,0
79.2917,79.34726,50,21,0
79.2917,79.34726,46,21,0
79.40281,79.51392,56,26,0
79.40281,79.51392,50,21,0
79.40281,79.51392,46,21,0
79.62504,79.73218,56,30,0
79.62504,79.73218,46,25,0
79.62504,79.73218,49,25,0
79.83932,79.94881,56,32,0
79.83932,79.94881,50,27,0
79.83932,79.94881,46,27,0
80.0583,80.21214,56,35,0
80.0583,80.21214,50,28,0
80.0583,80.21214,46,28,0
80.36599,81.06638,55,36,0
80.36599,81.06638,51,31,0
81.06638,81.29279,58,32,0
81.06638,81.29279,51,27,0
81.74563,81.963806,67,30,0
81.74563,81.963806,63,25,0
82.07492,82.128296,58,20,0
82.07492,82.128296,63,25,0
82.18168,82.297066,63,25,0
82.18168,82.297066,58,20,0
82.412445,82.52234,63,31,0
82.412445,82.52234,58,26,0
82.73983,82.79539,55,21,0
82.73983,82.79539,58,26,0
82.850945,82.966774,58,27,0
82.850945,82.966774,55,22,0
83.0826,83.1913,60,31,0
83.0826,83.1913,55,22,0
83.410286,83.46386,55,26,0
83.410286,83.46386,48,21,0
83.51743,83.62979,55,26,0
83.51743,83.62979,48,21,0
83.74215,84.40636,55,30,0
83.74215,84.40636,48,25,0
84.40636,84.62454,55,29,0
84.40636,84.62454,50,25,0
84.40636,84.62454,43,25,0
84.73565,84.79121,55,26,0
84.73565,84.79121,50,21,0
84.73565,84.79121,43,21,0
84.84676,84.95787,55,26,0
84.84676,84.95787,50,21,0
84.84676,84.95787,43,21,0
85.068985,85.176125,55,30,0
85.068985,85.176125,43,25,0
85.068985,85.176125,50,25,0
85.28327,85.39275,55,32,0
85.28327,85.39275,50,27,0
85.28327,85.39275,43,27,0
85.50224,85.65609,55,35,0
85.50224,85.65609,50,28,0
85.50224,85.65609,43,28,0
85.80994,86.51582,55,36,0
85.80994,86.51582,50,31,0
85.80994,86.51582,43,31,0
86.51582,87.2217,56,32,0
86.51582,87.2217,53,27,0
86.51582,87.2217,46,27,0
87.2217,87.43989,51,40,0
87.2217,87.43989,46,34,0
87.2217,87.43989,39,34,0
87.55572,87.60691,51,27,0
87.55572,87.60691,55,33,0
87.55572,87.60691,43,27,0
87.658104,87.77349,55,33,0
87.658104,87.77349,51,27,0
87.658104,87.77349,43,27,0
87.88887,87.998764,55,41,0
87.88887,87.998764,51,35,0
87.88887,87.998764,43,35,0
88.22493,88.2772,55,29,0
88.22493,88.2772,58,35,0
88.22493,88.2772,46,29,0
88.32946,88.44529,58,36,0
88.32946,88.44529,55,30,0
88.32946,88.44529,46,30,0
88.56112,88.669815,60,41,0
88.56112,88.669815,55,29,0
88.56112,88.669815,48,29,0
88.89045,88.94346,63,35,0
88.89045,88.94346,55,29,0
88.89045,88.94346,60,29,0
88.99646,89.10882,63,35,0
88.99646,89.10882,55,29,0
88.99646,89.10882,60,29,0
89.221176,89.88538,63,40,0
89.221176,89.88538,55,34,0
89.221176,89.88538,60,34,0
89.88538,90.10357,58,40,0
89.88538,90.10357,53,33,0
89.88538,90.10357,46,33,0
90.214676,90.27023,65,35,0
90.214676,90.27023,62,29,0
90.214676,90.27023,58,29,0
90.32579,90.4369,65,35,0
90.32579,90.4369,62,29,0
90.32579,90.4369,58,29,0
90.54801,90.65515,64,40,0
90.54801,90.65515,58,34,0
90.54801,90.65515,61,34,0
90.7623,90.87179,65,44,0
90.7623,90.87179,62,36,0
90.7623,90.87179,58,36,0
90.98128,91.135124,66,46,0
90.98128,91.135124,62,39,0
90.98128,91.135124,58,39,0
91.28896,91.955635,67,49,0
91.28896,91.955635,51,41,0
91.28896,91.955635,58,41,0
91.955635,92.17786,63,43,0
91.955635,92.17786,51,36,0
91.955635,92.17786,58,36,0
92.6223,92.840485,51,54,0
92.6223,92.840485,46,45,0
92.6223,92.840485,39,45,0
92.95455,93.006454,51,36,0
92.95455,93.006454,55,45,0
92.95455,93.006454,43,36,0
93.05836,93.17374,55,45,0
93.05836,93.17374,51,36,0
93.05836,93.17374,43,36,0
93.28912,93.39902,55,56,0
93.28912,93.39902,51,47,0
93.28912,93.39902,43,47,0
93.62126,93.67299,55,41,0
93.62126,93.67299,58,48,0
93.62126,93.67299,46,41,0
93.72471,93.840546,58,51,0
93.72471,93.840546,55,42,0
93.72471,93.840546,46,42,0
93.956375,94.06507,60,59,0
93.956375,94.06507,55,42,0
93.956375,94.06507,48,42,0
94.285706,94.33909,63,50,0
94.285706,94.33909,55,42,0
94.285706,94.33909,60,42,0
94.39246,94.50482,63,51,0
94.39246,94.50482,55,43,0
94.39246,94.50482,60,43,0
94.61719,95.28139,63,60,0
94.61719,95.28139,55,50,0
94.61719,95.28139,60,50,0
95.28139,95.49957,55,57,0
95.28139,95.49957,50,48,0
95.28139,95.49957,43,48,0
95.6111,95.66282,62,49,0
95.6111,95.66282,59,41,0
95.6111,95.66282,55,41,0
95.71455,95.82484,62,49,0
95.71455,95.82484,59,41,0
95.71455,95.82484,55,41,0
95.935135,96.042274,61,54,0
95.935135,96.042274,55,45,0
95.935135,96.042274,58,45,0
96.14942,96.25891,62,63,0
96.14942,96.25891,59,53,0
96.14942,96.25891,55,53,0
96.36839,96.49498,67,65,0
96.36839,96.49498,62,55,0
96.36839,96.49498,55,55,0
96.62156,96.839745,47,48,0
96.62156,96.839745,59,57,0
96.62156,96.839745,54,48,0
96.9521,97.00492,62,41,0
96.9521,97.00492,66,49,0
96.9521,97.00492,59,41,0
97.05774,97.168846,59,41,0
97.05774,97.168846,62,41,0
97.05774,97.168846,66,49,0
97.27996,97.946625,66,61,0
97.27996,97.946625,59,51,0
97.27996,97.946625,62,51,0
97.946625,98.1648,54,51,0
97.946625,98.1648,49,43,0
97.946625,98.1648,42,43,0
98.27717,98.32889,61,44,0
98.27717,98.32889,58,36,0
98.27717,98.32889,54,36,0
98.380615,98.49172,61,44,0
98.380615,98.49172,58,36,0
98.380615,98.49172,54,36,0
98.60284,98.70998,60,52,0
98.60284,98.70998,54,43,0
98.60284,98.70998,57,43,0
98.81712,98.92661,61,56,0
98.81712,98.92661,58,47,0
98.81712,98.92661,54,47,0
99.0361,99.16268,66,58,0
99.0361,99.16268,61,49,0
99.0361,99.16268,54,49,0
99.28926,99.50745,46,43,0
99.28926,99.50745,58,51,0
99.28926,99.50745,53,43,0
99.61856,99.67156,61,36,0
99.61856,99.67156,65,44,0
99.61856,99.67156,58,36,0
99.72456,99.83568,58,36,0
99.72456,99.83568,61,36,0
99.72456,99.83568,65,44,0
99.946785,100.61345,65,54,0
99.946785,100.61345,58,45,0
99.946785,100.61345,61,45,0
100.61345,100.831635,53,49,0
100.61345,100.831635,48,41,0
100.61345,100.831635,41,41,0
100.94274,100.99575,60,43,0
100.94274,100.99575,57,36,0
101.04875,101.15987,60,43,0
101.04875,101.15987,57,36,0
101.27097,101.37812,57,50,0
101.27097,101.37812,52,42,0
101.27097,101.37812,45,42,0
101.59475,101.646835,63,45,0
101.59475,101.646835,59,37,0
101.59475,101.646835,57,37,0
101.69891,101.8255,64,45,0
101.69891,101.8255,60,38,0
101.69891,101.8255,57,38,0
101.95208,102.170265,52,49,0
101.95208,102.170265,47,41,0
101.95208,102.170265,40,41,0
102.28137,102.33419,59,43,0
102.28137,102.33419,56,36,0
102.38701,102.49771,59,43,0
102.38701,102.49771,56,36,0
102.608406,102.71555,56,50,0
102.608406,102.71555,51,42,0
102.608406,102.71555,44,42,0
102.93218,102.98482,62,45,0
102.93218,102.98482,59,37,0
102.93218,102.98482,56,37,0
103.037445,103.16403,63,45,0
103.037445,103.16403,59,38,0
103.037445,103.16403,56,38,0
103.29061,103.50879,51,49,0
103.29061,103.50879,39,41,0
103.6199,103.67181,67,42,0
103.6199,103.67181,63,35,0
103.6199,103.67181,58,35,0
103.72371,103.83482,67,42,0
103.72371,103.83482,63,35,0
103.72371,103.83482,58,35,0
103.94593,104.05308,51,48,0
103.94593,104.05308,39,41,0
104.26971,104.32161,66,43,0
104.26971,104.32161,63,36,0
104.26971,104.32161,58,36,0
104.37351,104.50009,66,43,0
104.37351,104.50009,63,36,0
104.37351,104.50009,58,36,0
104.62668,104.84486,47,46,0
104.62668,104.84486,35,38,0
104.95597,105.00734,64,40,0
104.95597,105.00734,59,33,0
104.95597,105.00734,56,33,0
105.05871,105.16982,64,40,0
105.05871,105.16982,59,33,0
105.05871,105.16982,56,33,0
105.28093,105.38808,48,46,0
105.28093,105.38808,36,38,0
105.604706,105.65661,63,41,0
105.604706,105.65661,57,34,0
105.604706,105.65661,54,34,0
105.70851,105.8351,63,41,0
105.70851,105.8351,57,35,0
105.70851,105.8351,54,35,0
105.96168,106.17986,49,55,0
105.96168,106.17986,37,45,0
106.29097,106.342514,61,40,0
106.29097,106.342514,58,33,0
106.29097,106.342514,54,33,0
106.394066,106.50517,61,40,0
106.394066,106.50517,58,33,0
106.394066,106.50517,55,33,0
106.61629,106.72343,61,46,0
106.61629,106.72343,58,38,0
106.61629,106.72343,55,38,0
106.94168,106.993225,61,41,0
106.94168,106.993225,59,34,0
106.94168,106.993225,56,34,0
107.04478,107.17136,61,41,0
107.04478,107.17136,56,35,0
107.04478,107.17136,53,35,0
107.297935,107.51612,49,55,0
107.297935,107.51612,37,45,0
107.627235,107.67878,61,40,0
107.627235,107.67878,58,33,0
107.627235,107.67878,54,33,0
107.73032,107.84144,61,40,0
107.73032,107.84144,58,33,0
107.73032,107.84144,55,33,0
107.952545,108.05969,61,46,0
107.952545,108.05969,58,38,0
107.952545,108.05969,55,38,0
108.27795,108.32949,61,41,0
108.27795,108.32949,59,34,0
108.27795,108.32949,56,34,0
108.381035,108.50762,61,41,0
108.381035,108.50762,56,35,0
108.381035,108.50762,53,35,0
108.6342,108.85238,46,55,0
108.6342,108.85238,34,45,0
108.964325,109.0164,58,40,0
108.964325,109.0164,54,33,0
108.964325,109.0164,51,33,0
109.06849,109.1796,58,40,0
109.06849,109.1796,55,33,0
109.06849,109.1796,52,33,0
109.29071,109.39786,58,46,0
109.29071,109.39786,55,38,0
109.29071,109.39786,52,38,0
109.6157,109.66742,58,41,0
109.6157,109.66742,56,34,0
109.6157,109.66742,53,34,0
109.71915,109.845726,58,41,0
109.71915,109.845726,53,35,0
109.71915,109.845726,50,35,0
109.97231,110.19619,46,52,0
109.97231,110.19619,34,43,0
110.31338,110.36935,58,36,0
110.31338,110.36935,54,28,0
110.31338,110.36935,51,28,0
110.425316,110.55632,58,35,0
110.425316,110.55632,55,28,0
110.425316,110.55632,52,28,0
110.687325,110.81338,58,38,0
110.687325,110.81338,55,31,0
110.687325,110.81338,52,31,0
111.078964,111.14873,58,31,0
111.078964,111.14873,56,26,0
111.078964,111.14873,53,26,0
111.2185,111.36628,58,30,0
111.2185,111.36628,53,26,0
111.2185,111.36628,50,26,0
111.51407,111.63803,51,31,0
111.51407,111.63803,46,26,0
111.51407,111.63803,39,26,0
111.88596,111.94795,51,22,0
111.88596,111.94795,46,18,0
111.88596,111.94795,39,18,0
112.00993,112.1339,51,31,0
112.00993,112.1339,46,26,0
112.00993,112.1339,39,26,0
113.00208,113.12554,51,31,0
113.00208,113.12554,46,26,0
113.00208,113.12554,39,26,0
113.37245,113.43418,51,22,0
113.37245,113.43418,46,18,0
113.37245,113.43418,39,18,0
113.49591,113.62249,51,31,0
113.49591,113.62249,46,26,0
113.49591,113.62249,39,26,0
114.504906,114.628876,50,31,0
114.504906,114.628876,47,26,0
114.504906,114.628876,39,26,0
114.87681,114.9388,50,22,0
114.87681,114.9388,47,18,0
114.87681,114.9388,39,18,0
115.00078,115.12224,50,31,0
115.00078,115.12224,47,26,0
115.00078,115.12224,39,26,0
115.98397,116.104454,50,34,0
115.98397,116.104454,46,27,0
115.98397,116.104454,39,27,0
116.35099,116.41402,50,24,0
116.35099,116.41402,46,20,0
116.35099,116.41402,39,20,0
116.477036,116.62779,50,34,0
116.477036,116.62779,46,27,0
116.477036,116.62779,39,27,0
117.527695,117.65166,51,31,0
117.527695,117.65166,46,26,0
117.527695,117.65166,39,26,0
117.8996,117.96158,51,22,0
117.8996,117.96158,46,18,0
117.8996,117.96158,39,18,0
118.02356,118.14753,51,31,0
118.02356,118.14753,46,26,0
118.02356,118.14753,39,26,0
119.01571,119.13917,51,31,0
119.01571,119.13917,46,26,0
119.01571,119.13917,39,26,0
119.38608,119.44781,51,22,0
119.38608,119.44781,46,18,0
119.38608,119.44781,39,18,0
119.50954,119.636116,51,31,0
119.50954,119.636116,46,26,0
119.50954,119.636116,39,26,0
120.51251,120.63648,50,31,0
120.51251,120.63648,48,26,0
120.51251,120.63648,38,26,0
120.884415,120.946396,50,22,0
120.884415,120.946396,48,18,0
120.884415,120.946396,38,18,0
121.008385,121.12984,50,31,0
121.008385,121.12984,48,26,0
121.008385,121.12984,38,26,0
121.61275,121.73322,54,22,0
121.61275,121.73322,50,18,0
121.73322,121.992966,54,31,0
121.73322,121.992966,50,26,0
122.360954,122.42398,55,26,0
122.360954,122.42398,50,22,0
122.360954,122.42398,43,22,0
122.487,122.63776,55,36,0
122.487,122.63776,50,30,0
122.487,122.63776,43,30,0
123.03542,123.28234,58,34,0
123.03542,123.28234,56,27,0
123.03542,123.28234,46,27,0
123.28234,123.53766,58,34,0
123.28234,123.53766,56,27,0
123.28234,123.53766,46,27,0
123.53766,123.78559,39,38,0
123.78559,124.03352,65,28,0
123.78559,124.03352,58,22,0
123.78559,124.03352,55,22,0
124.03352,124.281456,43,32,0
124.281456,124.52536,55,30,0
124.281456,124.52536,58,30,0
124.281456,124.52536,63,38,0
124.52536,124.769264,46,34,0
124.769264,125.02567,55,27,0
124.769264,125.02567,58,27,0
124.769264,125.02567,62,34,0
125.02567,125.271576,51,38,0
125.271576,125.51748,55,24,0
125.271576,125.51748,60,28,0
125.51748,125.770645,46,35,0
125.770645,126.01554,55,27,0
125.770645,126.01554,58,33,0
126.01554,126.26044,43,33,0
126.26044,126.522446,55,27,0
126.26044,126.522446,58,33,0
126.522446,126.77038,39,38,0
126.77038,127.01831,56,27,0
126.77038,127.01831,59,27,0
126.77038,127.01831,62,35,0
127.01831,127.26123,44,36,0
127.26123,127.50219,56,29,0
127.26123,127.50219,62,37,0
127.26123,127.50219,59,29,0
127.50219,127.74316,47,38,0
127.74316,128.0029,56,31,0
127.74316,128.0029,59,31,0
127.74316,128.0029,62,39,0
128.0029,128.24582,39,40,0
128.24582,128.49791,56,27,0
128.24582,128.49791,58,27,0
128.24582,128.49791,65,34,0
128.49791,128.79942,46,42,0
128.79942,129.05916,56,39,0
128.79942,129.05916,58,39,0
128.79942,129.05916,65,49,0
129.05916,129.30507,50,32,0
129.30507,129.56038,56,26,0
129.30507,129.56038,58,26,0
129.30507,129.56038,65,33,0
129.56038,129.80832,39,38,0
129.80832,130.05624,55,23,0
129.80832,130.05624,58,23,0
129.80832,130.05624,65,29,0
130.05624,130.30418,43,34,0
130.30418,130.54808,55,27,0
130.30418,130.54808,58,27,0
130.30418,130.54808,63,34,0
130.54808,130.79199,46,34,0
130.79199,131.0484,55,27,0
130.79199,131.0484,58,27,0
130.79199,131.0484,62,34,0
131.0484,131.29532,51,38,0
131.29532,131.54222,55,25,0
131.29532,131.54222,60,30,0
131.54222,131.7954,46,36,0
131.7954,132.0423,55,30,0
131.7954,132.0423,58,36,0
132.0423,132.28621,43,36,0
132.28621,132.54822,55,30,0
132.28621,132.54822,58,36,0
132.54822,132.79614,38,38,0
132.79614,133.04408,57,27,0
132.79614,133.04408,60,27,0
132.79614,133.04408,62,35,0
133.04408,133.31314,45,36,0
133.31314,133.55606,54,30,0
133.31314,133.55606,60,30,0
133.31314,133.55606,63,38,0
133.55606,133.79897,50,42,0
133.79897,134.05872,57,36,0
133.79897,134.05872,60,36,0
133.79897,134.05872,62,45,0
134.05872,134.30162,43,38,0
134.30162,134.55373,62,35,0
134.30162,134.55373,59,29,0
134.55373,134.81573,50,38,0
134.81573,135.06265,59,25,0
134.81573,135.06265,62,29,0
135.06265,135.30957,55,34,0
135.30957,135.56488,59,28,0
135.30957,135.56488,62,34,0
135.56488,135.81282,40,38,0
135.81282,136.06075,66,28,0
135.81282,136.06075,59,22,0
135.81282,136.06075,55,17,0
136.06075,136.30869,43,32,0
136.30869,136.55258,55,30,0
136.30869,136.55258,59,30,0
136.30869,136.55258,64,38,0
136.55258,136.7965,47,34,0
136.7965,137.0529,55,27,0
136.7965,137.0529,59,27,0
136.7965,137.0529,62,34,0
137.0529,137.29982,52,38,0
137.29982,137.54272,55,24,0
137.29982,137.54272,60,28,0
137.54272,137.7959,47,35,0
137.7959,138.04079,55,27,0
137.7959,138.04079,59,33,0
138.04079,138.28569,40,33,0
138.28569,138.5477,55,27,0
138.28569,138.5477,59,33,0
138.5477,138.79564,36,38,0
138.79564,139.04356,55,27,0
138.79564,139.04356,57,27,0
138.79564,139.04356,63,35,0
139.04356,139.28648,45,36,0
139.28648,139.52647,54,29,0
139.28648,139.52647,63,37,0
139.28648,139.52647,57,29,0
139.52647,139.76648,48,38,0
139.76648,140.02621,54,31,0
139.76648,140.02621,57,31,0
139.76648,140.02621,63,39,0
140.02621,140.26718,35,40,0
140.26718,140.51929,54,27,0
140.26718,140.51929,57,27,0
140.26718,140.51929,63,34,0
140.51929,140.8208,47,42,0
140.8208,141.08054,57,39,0
140.8208,141.08054,60,39,0
140.8208,141.08054,66,49,0
141.08054,141.32643,51,32,0
141.32643,141.58176,57,26,0
141.32643,141.58176,59,26,0
141.32643,141.58176,66,33,0
141.58176,141.82968,40,38,0
141.82968,142.07762,55,19,0
141.82968,142.07762,59,23,0
141.82968,142.07762,66,29,0
142.07762,142.32556,43,34,0
142.32556,142.56946,55,27,0
142.32556,142.56946,59,27,0
142.32556,142.56946,64,34,0
142.56946,142.81335,47,34,0
142.81335,143.06978,55,27,0
142.81335,143.06978,59,27,0
142.81335,143.06978,62,34,0
143.06978,143.31668,52,38,0
143.31668,143.5636,55,25,0
143.31668,143.5636,60,30,0
143.5636,143.81676,47,36,0
143.81676,144.06166,55,30,0
143.81676,144.06166,59,36,0
144.06166,144.30656,40,36,0
144.30656,144.56857,55,30,0
144.30656,144.56857,59,36,0
144.56857,144.8165,39,38,0
144.8165,145.06444,55,27,0
144.8165,145.06444,57,27,0
144.8165,145.06444,60,35,0
145.06444,145.31975,45,36,0
145.31975,145.56071,54,30,0
145.31975,145.56071,57,30,0
145.31975,145.56071,60,38,0
145.56071,145.80168,48,42,0
145.80168,146.06142,54,36,0
145.80168,146.06142,57,36,0
145.80168,146.06142,63,45,0
146.06142,146.30046,38,42,0
146.30046,146.55257,63,42,0
146.30046,146.55257,60,33,0
146.30046,146.55257,54,33,0
146.55257,146.83295,45,47,0
146.83295,147.07985,60,30,0
146.83295,147.07985,63,38,0
146.83295,147.07985,54,30,0
147.07985,147.32677,50,34,0
147.32677,147.58209,60,28,0
147.32677,147.58209,62,34,0
147.32677,147.58209,57,28,0
147.58209,147.83002,43,38,0
147.83002,148.07796,62,22,0
147.83002,148.07796,58,22,0
147.83002,148.07796,69,28,0
148.07796,148.3259,46,32,0
148.3259,148.5698,58,30,0
148.3259,148.5698,62,30,0
148.3259,148.5698,67,38,0
148.5698,148.81369,50,34,0
148.81369,149.0701,55,27,0
148.81369,149.0701,58,27,0
148.81369,149.0701,63,34,0
149.0701,149.31702,42,38,0
149.31702,149.56393,60,24,0
149.31702,149.56393,70,28,0
149.31702,149.56393,63,24,0
149.56393,149.8171,41,35,0
149.8171,150.063,60,27,0
149.8171,150.063,69,33,0
149.8171,150.063,63,27,0
150.063,150.3089,45,33,0
150.3089,150.5709,63,27,0
150.3089,150.5709,66,33,0
150.3089,150.5709,60,27,0
150.5709,150.81885,46,44,0
150.81885,151.06677,65,25,0
150.81885,151.06677,61,25,0
150.81885,151.06677,72,32,0
151.06677,151.31471,49,36,0
151.31471,151.55861,61,35,0
151.31471,151.55861,65,35,0
151.31471,151.55861,70,44,0
151.55861,151.80252,53,38,0
151.80252,152.05893,58,30,0
151.80252,152.05893,61,30,0
151.80252,152.05893,66,38,0
152.05893,152.30585,45,44,0
152.30585,152.55275,63,27,0
152.30585,152.55275,73,32,0
152.30585,152.55275,66,27,0
152.55275,152.80592,44,39,0
152.80592,153.05283,63,31,0
152.80592,153.05283,72,37,0
152.80592,153.05283,66,31,0
153.05283,153.29773,48,37,0
153.29773,153.55974,66,31,0
153.29773,153.55974,68,37,0
153.29773,153.55974,63,31,0
153.55974,153.80768,49,47,0
153.80768,154.0556,68,27,0
153.80768,154.0556,65,27,0
153.80768,154.0556,75,35,0
154.0556,154.30354,53,40,0
154.30354,154.54744,65,37,0
154.30354,154.54744,68,37,0
154.30354,154.54744,73,47,0
154.54744,154.79135,56,42,0
154.79135,155.04776,65,33,0
154.79135,155.04776,68,33,0
154.79135,155.04776,72,42,0
155.04776,155.29466,47,47,0
155.29466,155.54158,63,30,0
155.29466,155.54158,65,30,0
155.29466,155.54158,68,30,0
155.29466,155.54158,71,35,0
155.54158,155.79475,53,43,0
155.79475,156.03964,63,34,0
155.79475,156.03964,65,34,0
155.79475,156.03964,68,34,0
155.79475,156.03964,71,41,0
156.03964,156.28455,39,41,0
156.28455,156.54655,68,34,0
156.28455,156.54655,65,34,0
156.28455,156.54655,63,34,0
156.28455,156.54655,71,41,0
156.54655,156.79144,46,47,0
156.79144,157.03635,62,30,0
156.79144,157.03635,65,30,0
156.79144,157.03635,68,30,0
156.79144,157.03635,70,35,0
157.03635,157.2895,46,44,0
157.2895,157.54593,62,35,0
157.2895,157.54593,66,35,0
157.2895,157.54593,68,35,0
157.2895,157.54593,70,43,0
157.54593,157.81378,46,43,0
157.81378,158.09949,68,36,0
157.81378,158.09949,66,36,0
157.81378,158.09949,62,36,0
157.81378,158.09949,70,44,0
158.09949,158.47765,39,47,0
158.09949,158.47765,51,47,0
158.28857,158.66672,58,31,0
158.28857,158.66672,55,31,0
158.28857,158.66672,67,45,0
158.66672,159.04022,65,63,0
158.66672,159.04022,58,43,0
158.66672,159.04022,55,43,0
159.04022,159.4117,63,54,0
159.04022,159.4117,55,37,0
159.04022,159.42133,58,37,0
159.4117,159.42133,58,37,0
159.4117,159.604,55,37,0
159.4117,159.604,62,54,0
159.604,159.97438,51,47,0
159.7892,159.97438,51,34,0
159.604,159.97438,39,47,0
159.7892,160.16113,55,34,0
159.7892,160.16113,60,45,0
160.16113,160.5362,57,54,0
160.16113,160.5362,55,39,0
160.16113,160.5362,51,39,0
160.5362,160.90932,58,54,0
160.5362,160.90932,55,39,0
160.5362,160.90932,51,39,0
160.90932,161.10582,67,54,0
160.90932,161.10582,55,43,0
160.90932,161.10582,58,43,0
160.90932,161.10582,63,43,0
161.10582,161.47772,39,47,0
161.10582,161.47772,51,47,0
161.29178,161.66194,59,31,0
161.29178,161.66194,56,31,0
161.29178,161.66194,67,45,0
161.29178,161.66194,62,31,0
161.66194,162.02338,64,63,0
161.66194,162.02338,62,43,0
161.66194,162.02338,56,43,0
161.66194,162.02338,59,43,0
162.02338,162.38953,65,54,0
162.02338,162.38953,62,37,0
162.02338,162.38953,56,37,0
162.02338,162.39926,59,37,0
162.38953,162.39926,59,37,0
162.38953,162.58432,62,37,0
162.38953,162.58432,56,37,0
162.38953,162.58432,67,54,0
162.58432,162.95134,51,47,0
162.58432,162.95134,39,47,0
162.76505,163.15128,65,34,0
162.76505,163.15128,62,34,0
162.76505,163.15128,68,45,0
162.76505,163.15128,59,34,0
163.15128,163.56776,69,54,0
163.15128,163.56776,59,39,0
163.15128,163.56776,62,39,0
163.15128,163.56776,65,39,0
163.56776,163.94243,72,54,0
163.56776,163.94243,65,39,0
163.56776,163.94243,58,39,0
163.56776,163.94243,62,39,0
163.56776,163.94243,68,39,0
163.94243,164.13393,70,54,0
163.94243,164.13393,65,43,0
163.94243,164.13393,62,43,0
163.94243,164.13393,58,43,0
163.94243,164.13393,68,43,0
164.13393,164.50581,39,47,0
164.13393,164.50581,51,47,0
164.31987,164.69177,58,31,0
164.31987,164.69177,55,31,0
164.31987,164.69177,67,45,0
164.69177,165.06065,65,63,0
164.69177,165.06065,58,43,0
164.69177,165.06065,55,43,0
165.06065,165.4267,63,54,0
165.06065,165.4267,55,37,0
165.06065,165.43631,58,37,0
165.4267,165.43631,58,37,0
165.4267,165.619,55,37,0
165.4267,165.619,62,54,0
165.619,165.98936,51,47,0
165.80418,165.98936,51,34,0
165.619,165.98936,39,47,0
165.80418,166.17612,55,34,0
165.80418,166.17612,60,45,0
166.17612,166.54967,57,54,0
166.17612,166.54967,55,39,0
166.17612,166.54967,51,39,0
166.54967,166.92128,58,54,0
166.54967,166.92128,55,39,0
166.54967,166.92128,51,39,0
166.92128,167.1178,67,54,0
166.92128,167.1178,55,43,0
166.92128,167.1178,58,43,0
166.92128,167.1178,63,43,0
167.1178,167.4897,38,47,0
167.1178,167.4897,50,47,0
167.30374,167.68246,60,31,0
167.30374,167.68246,57,31,0
167.30374,167.68246,67,45,0
167.68246,168.07182,66,63,0
167.68246,168.07182,60,43,0
167.68246,168.07182,57,43,0
168.07182,168.44164,75,54,0
168.07182,168.44164,66,37,0
168.07182,168.45137,69,37,0
168.44164,168.45137,69,37,0
168.44164,168.63644,66,37,0
168.44164,168.63644,74,54,0
168.63644,169.0054,55,47,0
168.63644,169.0054,43,47,0
168.81862,169.19556,71,34,0
168.81862,169.19556,67,34,0
168.81862,169.19556,74,45,0
169.19556,169.58267,71,54,0
169.19556,169.58267,67,39,0
169.19556,169.58267,62,39,0
169.58267,169.95734,67,51,0
169.58267,169.95734,62,37,0
169.58267,169.95734,59,37,0
169.95734,170.14882,67,52,0
169.95734,170.14882,55,41,0
169.95734,170.14882,59,41,0
169.95734,170.14882,62,41,0
170.14882,170.5157,43,44,0
170.33101,170.70378,60,31,0
170.33101,170.70378,63,31,0
170.33101,170.70378,68,42,0
170.70378,171.0909,67,49,0
170.70378,171.0909,63,36,0
170.70378,171.0909,60,36,0
171.0909,171.46556,65,49,0
171.0909,171.46556,60,36,0
171.0909,171.46556,55,36,0
171.46556,171.65704,63,50,0
171.46556,171.65704,60,39,0
171.46556,171.65704,55,39,0
171.65704,172.02602,41,39,0
171.83923,172.21616,60,27,0
171.83923,172.21616,53,27,0
171.83923,172.21616,56,27,0
171.83923,172.21616,63,37,0
172.21616,172.60327,62,44,0
172.21616,172.60327,60,32,0
172.21616,172.60327,53,32,0
172.21616,172.60327,56,32,0
172.60327,172.97794,62,44,0
172.60327,172.97794,60,32,0
172.60327,172.97794,56,32,0
172.97794,173.16943,62,45,0
172.97794,173.16943,56,35,0
172.97794,173.16943,53,35,0
172.97794,173.16943,60,35,0
173.16943,173.53839,43,35,0
173.35162,173.72855,55,24,0
173.35162,173.72855,59,24,0
173.35162,173.72855,63,33,0
173.72855,174.11737,62,39,0
173.72855,174.11737,55,28,0
173.72855,174.11737,59,28,0
174.11737,174.4926,60,39,0
174.11737,174.4926,55,28,0
174.11737,174.4926,50,28,0
174.4926,174.68408,59,40,0
174.4926,174.68408,50,31,0
174.4926,174.68408,55,31,0
174.86627,175.24321,56,31,0
174.86627,175.24321,50,22,0
174.86627,175.24321,47,22,0
175.24321,175.63033,55,36,0
175.24321,175.63033,47,26,0
175.24321,175.63033,50,26,0
175.63033,176.00499,55,35,0
175.63033,176.00499,50,25,0
175.63033,176.00499,47,25,0
176.00499,176.19647,55,35,0
176.00499,176.19647,47,27,0
176.00499,176.19647,50,27,0
176.19647,176.56544,31,31,0
176.37866,176.7556,48,20,0
176.37866,176.7556,51,20,0
176.37866,176.7556,58,29,0
176.7556,177.1427,56,34,0
176.7556,177.1427,48,24,0
176.7556,177.1427,51,24,0
177.1427,177.51738,55,33,0
177.1427,177.51738,43,23,0
177.1427,177.51738,48,23,0
177.1427,177.51738,51,23,0
177.51738,177.70886,53,33,0
177.51738,177.70886,43,25,0
177.51738,177.70886,48,25,0
177.70886,178.07784,29,29,0
177.89105,178.26797,48,18,0
177.89105,178.26797,41,18,0
177.89105,178.26797,44,18,0
177.89105,178.26797,51,27,0
178.26797,178.65509,50,32,0
178.26797,178.65509,44,22,0
178.26797,178.65509,48,22,0
178.26797,178.65509,41,22,0
178.65509,179.02817,50,31,0
178.65509,179.02817,48,21,0
178.65509,179.02817,44,21,0
179.02817,179.21489,50,31,0
179.02817,179.21489,44,23,0
179.02817,179.21489,48,23,0
179.02817,179.21489,41,23,0
179.21489,179.58177,31,29,0
179.39708,179.76985,43,18,0
179.39708,179.76985,47,18,0
179.39708,179.76985,51,27,0
179.76985,180.15695,50,32,0
179.76985,180.15695,47,22,0
179.76985,180.15695,43,22,0
180.15695,180.53163,55,31,0
180.15695,180.53163,51,21,0
180.53163,180.72311,55,31,0
180.53163,180.72311,50,23,0
180.72311,181.09209,37,26,0
180.9053,181.28223,53,24,0
180.9053,181.28223,49,16,0
181.28223,181.47455,53,28,0
181.28223,181.47455,49,19,0
181.66934,182.07513,49,27,0
181.66934,182.07513,40,18,0
181.66934,182.07513,44,18,0
182.07513,182.30472,49,27,0
182.07513,182.30472,44,20,0
182.07513,182.30472,41,20,0
182.30472,182.68507,31,20,0
182.49301,182.88075,43,12,0
182.49301,182.88075,47,12,0
182.49301,182.88075,51,19,0
182.88075,183.28442,50,22,0
182.88075,183.28442,47,15,0
182.88075,183.28442,43,15,0
183.28442,183.68904,55,21,0
183.28442,183.68904,51,15,0
183.68904,183.90538,55,21,0
183.68904,183.90538,50,16,0
183.90538,184.31895,37,18,0
184.10992,184.53333,53,16,0
184.10992,184.53333,49,10,0
184.53333,184.75392,53,19,0
184.53333,184.75392,49,13,0
184.98952,185.4528,49,19,0
184.98952,185.4528,40,12,0
184.98952,185.4528,44,12,0
185.4528,185.71596,49,19,0
185.4528,185.71596,44,14,0
185.4528,185.71596,41,14,0
185.71596,185.83406,50,29,0
185.71596,185.83406,43,24,0
185.95218,186.16081,38,34,0
186.16081,186.35747,36,35,0
186.35747,186.55214,35,36,0
186.55214,186.74493,32,38,0
186.74493,186.93425,31,43,0
186.93425,187.12941,44,45,0
187.12941,187.32346,43,40,0
187.32346,187.51639,41,42,0
187.51639,187.70819,39,45,0
187.70819,187.94049,37,46,0
187.94049,188.0448,53,39,0
187.94049,188.0448,49,33,0
188.14911,188.25342,50,43,0
188.14911,188.25342,43,36,0
188.35773,188.56638,38,34,0
188.56638,188.76303,36,35,0
188.76303,188.95769,35,36,0
188.95769,189.15048,32,38,0
189.15048,189.3416,31,43,0
189.3416,189.53676,44,45,0
189.53676,189.73079,43,40,0
189.73079,189.92374,41,42,0
189.92374,190.11554,39,45,0
190.11554,190.34656,37,46,0
190.34656,190.45015,53,39,0
190.34656,190.45015,49,33,0
190.55374,190.65733,51,43,0
190.55374,190.65733,44,36,0
190.76093,190.96956,39,34,0
190.96956,191.16621,37,35,0
191.16621,191.36089,36,36,0
191.36089,191.55367,34,38,0
191.55367,191.743,32,43,0
191.743,191.93816,44,45,0
191.93816,192.13219,42,40,0
192.13219,192.32513,40,42,0
192.32513,192.51694,39,45,0
192.51694,192.74503,37,46,0
192.74503,192.84862,52,39,0
192.74503,192.84862,49,33,0
192.95221,193.0558,52,43,0
192.95221,193.0558,45,36,0
193.1594,193.36803,40,34,0
193.36803,193.56468,38,35,0
193.56468,193.75935,37,36,0
193.75935,193.95215,34,38,0
193.95215,194.14206,33,43,0
194.14206,194.33722,45,45,0
194.33722,194.53125,43,40,0
194.53125,194.7242,41,42,0
194.7242,194.916,40,45,0
194.916,195.14845,38,46,0
195.14845,195.25276,53,39,0
195.14845,195.25276,50,33,0
195.35707,195.46138,53,43,0
195.35707,195.46138,46,36,0
195.56569,195.77434,41,34,0
195.77434,195.971,39,35,0
195.971,196.16565,38,36,0
196.16565,196.35844,35,38,0
196.35844,196.57367,34,43,0
196.57367,196.67139,54,43,0
196.57367,196.67139,46,36,0
196.7691,196.97774,42,34,0
196.97774,197.1744,41,36,0
197.1744,197.36906,39,37,0
197.36906,197.56186,35,39,0
197.56186,197.77472,34,44,0
197.77472,197.87244,59,45,0
197.77472,197.87244,47,38,0
197.77472,197.87244,56,38,0
197.97015,198.1788,44,35,0
198.1788,198.37546,41,36,0
198.37546,198.57011,38,38,0
198.57011,198.76291,37,40,0
198.76291,198.97351,35,45,0
198.97351,199.07124,63,45,0
198.97351,199.07124,51,38,0
198.97351,199.07124,60,38,0
199.16896,199.3776,45,36,0
199.3776,199.57425,44,37,0
199.57425,199.76892,42,39,0
199.76892,199.9617,39,41,0
199.9617,200.22278,36,46,0
200.22278,200.41695,66,25,0
200.22278,200.41695,69,30,0
200.22278,200.41695,61,25,0
200.52019,200.57181,66,25,0
200.52019,200.57181,61,20,0
200.52019,200.57181,57,20,0
200.62343,200.73372,66,25,0
200.62343,200.73372,61,20,0
200.62343,200.73372,57,20,0
200.84401,200.94853,61,31,0
200.84401,200.94853,54,26,0
200.84401,200.94853,57,26,0
201.16022,201.21378,57,26,0
201.16022,201.21378,54,21,0
201.16022,201.21378,49,21,0
201.26735,201.3766,54,22,0
201.26735,201.3766,57,27,0
201.26735,201.3766,49,22,0
201.48586,201.68855,38,43,0
201.68855,201.89185,45,39,0
201.89185,202.0885,43,45,0
202.0885,202.28316,42,42,0
202.28316,202.47595,40,38,0
202.47595,202.71033,38,36,0
202.71033,202.8969,67,25,0
202.71033,202.8969,70,30,0
202.71033,202.8969,62,25,0
202.99942,203.05069,67,25,0
202.99942,203.05069,62,20,0
202.99942,203.05069,58,20,0
203.10196,203.21002,67,25,0
203.10196,203.21002,62,20,0
203.10196,203.21002,58,20,0
203.3181,203.42062,62,31,0
203.3181,203.42062,55,26,0
203.3181,203.42062,58,26,0
203.6293,203.68239,58,26,0
203.6293,203.68239,55,21,0
203.6293,203.68239,50,21,0
203.73547,203.84552,55,22,0
203.73547,203.84552,58,27,0
203.73547,203.84552,50,22,0
203.95557,204.15828,39,43,0
204.15828,204.36156,46,39,0
204.36156,204.55821,44,45,0
204.55821,204.75288,43,42,0
204.75288,204.94568,41,38,0
204.94568,205.18005,39,36,0
205.18005,205.3672,68,27,0
205.18005,205.3672,71,33,0
205.18005,205.3672,63,27,0
205.468,205.5184,68,27,0
205.468,205.5184,63,22,0
205.468,205.5184,59,22,0
205.56882,205.67386,68,27,0
205.56882,205.67386,63,22,0
205.56882,205.67386,59,22,0
205.7789,205.88072,63,34,0
205.7789,205.88072,56,27,0
205.7789,205.88072,59,27,0
206.0891,206.14236,59,27,0
206.0891,206.14236,56,23,0
206.0891,206.14236,51,23,0
206.19563,206.30774,56,24,0
206.19563,206.30774,59,29,0
206.19563,206.30774,51,24,0
206.41985,206.60757,59,29,0
206.41985,206.60757,64,36,0
206.41985,206.60757,52,29,0
206.70804,206.75829,59,29,0
206.70804,206.75829,56,24,0
206.80852,206.9132,59,29,0
206.80852,206.9132,56,24,0
207.01787,207.12004,64,36,0
207.01787,207.12004,59,30,0
207.32877,207.38202,59,30,0
207.32877,207.38202,56,25,0
207.43529,207.54698,56,26,0
207.43529,207.54698,59,33,0
207.65868,207.8464,52,31,0
207.65868,207.8464,60,38,0
207.65868,207.8464,45,31,0
207.94688,207.99712,57,25,0
207.94688,207.99712,60,31,0
208.04735,208.15239,60,31,0
208.04735,208.15239,57,25,0
208.25743,208.3579,64,39,0
208.25743,208.3579,60,32,0
208.56342,208.61594,60,32,0
208.56342,208.61594,57,27,0
208.66846,208.7789,57,27,0
208.66846,208.7789,60,34,0
208.88936,209.07864,48,33,0
208.88936,209.07864,57,41,0
208.88936,209.07864,41,33,0
209.1781,209.22784,57,27,0
209.1781,209.22784,60,33,0
209.1781,209.22784,53,27,0
209.27757,209.38188,60,33,0
209.27757,209.38188,57,27,0
209.27757,209.38188,53,27,0
209.4862,209.587,65,42,0
209.4862,209.587,60,34,0
209.4862,209.587,57,34,0
209.79286,209.84538,60,35,0
209.79286,209.84538,57,27,0
209.79286,209.84538,53,27,0
209.8979,210.00636,57,28,0
209.8979,210.00636,60,36,0
209.8979,210.00636,53,28,0
210.11482,210.3029,56,34,0
210.11482,210.3029,61,41,0
210.11482,210.3029,49,34,0
210.40271,210.4526,65,34,0
210.40271,210.4526,53,27,0
210.5025,210.60791,65,34,0
210.5025,210.60791,53,27,0
210.71333,210.81346,58,43,0
210.71333,210.81346,46,35,0
211.01755,211.06952,61,35,0
211.01755,211.06952,49,28,0
211.12149,211.22957,61,37,0
211.12149,211.22957,49,29,0
211.33763,211.52513,54,42,0
211.33763,211.52513,42,34,0
211.62395,211.67336,58,34,0
211.62395,211.67336,46,27,0
211.72276,211.82635,58,34,0
211.72276,211.82635,46,27,0
211.92995,212.02974,51,44,0
211.92995,212.02974,39,36,0
212.23386,212.28601,54,36,0
212.23386,212.28601,42,28,0
212.33817,212.44742,54,37,0
212.33817,212.44742,42,29,0
212.55643,212.7595,47,33,0
212.55643,212.7595,35,33,0
212.7595,212.96095,54,43,0
212.96095,213.16057,52,40,0
213.16057,213.35854,51,40,0
213.35854,213.55574,49,38,0
213.55574,213.75644,47,38,0
213.75644,213.94513,71,41,0
213.75644,213.94513,63,34,0
214.04492,214.09483,68,34,0
214.04492,214.09483,59,27,0
214.14473,214.2505,68,34,0
214.14473,214.2505,59,27,0
214.3563,214.45813,63,44,0
214.3563,214.45813,56,36,0
214.66537,214.71808,59,36,0
214.66537,214.71808,51,29,0
214.77078,214.88205,59,38,0
214.77078,214.88205,51,30,0
214.9928,215.19328,44,36,0
214.9928,215.19328,32,36,0
215.19328,215.39159,51,48,0
215.39159,215.58774,49,45,0
215.58774,215.78175,47,45,0
215.78175,215.9761,46,43,0
215.9761,216.17345,44,42,0
216.17345,216.36118,71,45,0
216.17345,216.36118,62,37,0
216.46301,216.51392,65,38,0
216.46301,216.51392,59,30,0
216.56483,216.67062,65,38,0
216.56483,216.67062,59,30,0
216.7764,216.87859,62,48,0
216.7764,216.87859,53,39,0
217.08493,217.13701,59,40,0
217.08493,217.13701,50,32,0
217.1891,217.29701,59,42,0
217.1891,217.29701,50,34,0
217.40492,217.59207,56,54,0
217.40492,217.59207,44,44,0
217.69109,217.74059,51,44,0
217.69109,217.74059,39,35,0
217.7901,217.89214,51,45,0
217.7901,217.89214,39,36,0
217.99417,218.09286,56,57,0
217.99417,218.09286,44,47,0
218.29324,218.34409,49,47,0
218.29324,218.34409,37,38,0
218.39493,218.503,49,51,0
218.39493,218.503,37,41,0
218.61107,218.79683,56,59,0
218.61107,218.79683,44,48,0
218.8933,218.94153,47,48,0
218.8933,218.94153,35,39,0
218.98976,219.0918,47,49,0
218.98976,219.0918,35,39,0
219.19383,219.29189,56,63,0
219.19383,219.29189,44,52,0
219.49161,219.54247,46,52,0
219.49161,219.54247,34,43,0
219.5933,219.70045,46,57,0
219.5933,219.70045,34,45,0
219.80759,219.99164,57,65,0
219.80759,219.99164,45,53,0
220.0881,220.13634,45,54,0
220.0881,220.13634,33,44,0
220.18457,220.28801,45,55,0
220.18457,220.28801,33,44,0
220.39146,220.49113,58,70,0
220.39146,220.49113,46,56,0
220.695,220.74568,44,58,0
220.695,220.74568,32,46,0
220.79637,220.90388,44,62,0
220.79637,220.90388,32,49,0
221.01141,221.2001,59,71,0
221.01141,221.2001,47,58,0
221.30919,221.36374,44,60,0
221.30919,221.36374,32,48,0
221.41827,221.53021,44,60,0
221.41827,221.53021,32,48,0
221.64217,221.75572,59,76,0
221.64217,221.75572,47,63,0
221.9928,222.05663,43,63,0
221.9928,222.05663,31,52,0
222.12317,222.26143,43,67,0
222.12317,222.26143,31,53,0
222.39967,222.60873,48,61,0
222.39967,222.60873,36,50,0
222.39967,222.60873,40,50,0
222.39967,222.60873,43,50,0
222.71626,222.76727,48,41,0
222.71626,222.76727,40,41,0
222.71626,222.76727,43,41,0
222.71626,222.76727,52,50,0
222.8183,222.92859,52,50,0
222.8183,222.92859,40,41,0
222.8183,222.92859,43,41,0
222.8183,222.92859,48,41,0
223.0389,223.14565,52,63,0
223.0389,223.14565,40,52,0
223.0389,223.14565,43,52,0
223.0389,223.14565,48,52,0
223.36353,223.41728,52,43,0
223.36353,223.41728,43,43,0
223.36353,223.41728,48,43,0
223.36353,223.41728,55,52,0
223.47105,223.58688,55,54,0
223.47105,223.58688,43,45,0
223.47105,223.58688,48,45,0
223.47105,223.58688,52,45,0
223.70271,223.8076,57,63,0
223.70271,223.8076,45,52,0
223.70271,223.8076,48,52,0
223.70271,223.8076,52,52,0
224.0228,224.07416,60,52,0
224.0228,224.07416,48,43,0
224.0228,224.07416,52,43,0
224.0228,224.07416,57,43,0
224.12553,224.23706,60,52,0
224.12553,224.23706,48,43,0
224.12553,224.23706,52,43,0
224.12553,224.23706,57,43,0
224.34859,225.00313,60,61,0
224.34859,225.00313,48,50,0
224.34859,225.00313,52,50,0
224.34859,225.00313,57,50,0
225.00313,225.21664,55,59,0
225.00313,225.21664,50,50,0
225.00313,225.21664,43,50,0
225.32614,225.3784,65,52,0
225.32614,225.3784,59,43,0
225.32614,225.3784,55,43,0
225.43066,225.53897,65,52,0
225.43066,225.53897,59,43,0
225.43066,225.53897,55,43,0
225.64728,225.74931,65,61,0
225.64728,225.74931,55,50,0
225.64728,225.74931,58,50,0
225.85136,225.95699,65,64,0
225.85136,225.95699,59,55,0
225.85136,225.95699,55,55,0
226.06262,226.22052,65,70,0
226.06262,226.22052,59,57,0
226.06262,226.22052,55,57,0
226.37842,227.04507,64,73,0
226.37842,227.04507,60,63,0
227.04507,227.28223,67,64,0
227.04507,227.28223,64,54,0
227.75655,227.9678,48,61,0
227.75655,227.9678,36,50,0
227.75655,227.9678,40,50,0
227.75655,227.9678,43,50,0
228.0777,228.12872,48,41,0
228.0777,228.12872,40,41,0
228.0777,228.12872,43,41,0
228.0777,228.12872,52,50,0
228.17973,228.2921,52,50,0
228.17973,228.2921,40,41,0
228.17973,228.2921,43,41,0
228.17973,228.2921,48,41,0
228.40446,228.512,52,63,0
228.40446,228.512,40,52,0
228.40446,228.512,43,52,0
228.40446,228.512,48,52,0
228.7286,228.78087,52,43,0
228.7286,228.78087,43,43,0
228.7286,228.78087,48,43,0
228.7286,228.78087,55,52,0
228.83313,228.94592,55,54,0
228.83313,228.94592,43,45,0
228.83313,228.94592,48,45,0
228.83313,228.94592,52,45,0
229.0587,229.16661,57,63,0
229.0587,229.16661,45,52,0
229.0587,229.16661,48,52,0
229.0587,229.16661,52,52,0
229.38483,229.43672,60,52,0
229.38483,229.43672,48,43,0
229.38483,229.43672,52,43,0
229.38483,229.43672,57,43,0
229.48863,229.60098,60,52,0
229.48863,229.60098,48,43,0
229.48863,229.60098,52,43,0
229.48863,229.60098,57,43,0
229.71335,230.37755,60,61,0
229.71335,230.37755,48,50,0
229.71335,230.37755,52,50,0
229.71335,230.37755,57,50,0
230.37755,230.60143,59,59,0
230.37755,230.60143,54,50,0
230.37755,230.60143,47,50,0
230.37755,230.60143,51,50,0
230.71771,230.77585,66,52,0
230.71771,230.77585,63,43,0
230.71771,230.77585,59,43,0
230.83398,230.95027,66,52,0
230.83398,230.95027,63,43,0
230.83398,230.95027,59,43,0
231.06654,231.17934,65,54,0
231.06654,231.17934,59,45,0
231.06654,231.17934,63,45,0
231.29211,231.41924,66,57,0
231.29211,231.41924,63,49,0
231.29211,231.41924,59,49,0
231.54634,231.72386,66,63,0
231.54634,231.72386,63,51,0
231.54634,231.72386,59,51,0
231.90138,232.69434,71,73,0
231.90138,232.69434,59,63,0
231.90138,232.69434,63,63,0
231.90138,232.69434,66,63,0
232.69434,232.95865,71,64,0
232.69434,232.95865,55,54,0
232.69434,232.95865,62,54,0
232.69434,232.95865,65,54,0
233.48727,233.69182,72,57,0
233.48727,233.69182,60,48,0
233.48727,233.69182,64,48,0
233.48727,233.69182,67,48,0
233.69182,233.75319,67,49,0
233.69182,233.75319,55,41,0
233.69182,233.75319,60,41,0
233.69182,233.75319,64,41,0
233.76001,233.83076,67,58,0
233.76001,233.83076,55,49,0
233.76001,233.83076,60,49,0
233.76001,233.83076,64,49,0
234.04303,234.2485,52,49,0
234.04303,234.2485,64,58,0
234.04303,234.2485,60,49,0
234.04303,234.2485,55,49,0
234.2485,234.31015,60,51,0
234.2485,234.31015,48,43,0
234.2485,234.31015,52,43,0
234.2485,234.31015,55,43,0
234.317,234.39053,60,59,0
234.317,234.39053,48,50,0
234.317,234.39053,52,50,0
234.317,234.39053,55,50,0
234.61111,234.81659,57,57,0
234.61111,234.81659,45,48,0
234.61111,234.81659,48,48,0
234.61111,234.81659,52,48,0
234.81659,234.87823,52,49,0
234.81659,234.87823,40,41,0
234.81659,234.87823,45,41,0
234.81659,234.87823,48,41,0
234.88509,234.95618,52,58,0
234.88509,234.95618,40,49,0
234.88509,234.95618,45,49,0
234.88509,234.95618,48,49,0
235.16945,235.38272,36,49,0
235.16945,235.38272,48,58,0
235.16945,235.38272,45,49,0
235.16945,235.38272,40,49,0
235.38272,235.4467,45,51,0
235.38272,235.4467,33,43,0
235.38272,235.4467,36,43,0
235.38272,235.4467,40,43,0
235.45381,235.53194,45,59,0
235.45381,235.53194,33,50,0
235.45381,235.53194,36,50,0
235.45381,235.53194,40,50,0
235.76631,235.9761,43,59,0
235.76631,235.9761,38,50,0
235.76631,235.9761,31,50,0
236.0848,236.13914,50,52,0
236.0848,236.13914,47,43,0
236.0848,236.13914,43,43,0
236.1935,236.30219,50,52,0
236.1935,236.30219,47,43,0
236.1935,236.30219,43,43,0
236.41089,236.51578,49,61,0
236.41089,236.51578,43,50,0
236.41089,236.51578,46,50,0
236.62067,236.73016,50,64,0
236.62067,236.73016,47,55,0
236.62067,236.73016,43,55,0
236.83965,236.9935,51,70,0
236.83965,236.9935,47,57,0
236.83965,236.9935,43,57,0
237.14734,237.76933,52,73,0
237.14734,237.76933,48,63,0
237.76933,237.96797,48,64,0
237.76933,237.96797,43,54,0
237.76933,237.96797,40,54,0
237.76933,237.96797,36,54,0
238.39714,238.60077,84,63,0
238.39714,238.60077,72,53,0
238.39714,238.60077,76,53,0
238.39714,238.60077,79,53,0
238.60077,238.66185,79,54,0
238.60077,238.66185,67,45,0
238.60077,238.66185,72,45,0
238.60077,238.66185,76,45,0
238.66864,238.81082,79,63,0
238.66864,238.81082,67,54,0
238.66864,238.81082,72,54,0
238.66864,238.81082,76,54,0
238.953,239.15942,64,54,0
238.953,239.15942,76,63,0
238.953,239.15942,72,54,0
238.953,239.15942,67,54,0
239.15942,239.22134,72,55,0
239.15942,239.22134,60,46,0
239.15942,239.22134,64,46,0
239.15942,239.22134,67,46,0
239.22823,239.5167,72,64,0
239.22823,239.5167,60,54,0
239.22823,239.5167,64,54,0
239.22823,239.5167,67,54,0
239.5167,239.72311,69,63,0
239.5167,239.72311,57,53,0
239.5167,239.72311,60,53,0
239.5167,239.72311,64,53,0
239.72311,239.78503,64,54,0
239.72311,239.78503,52,45,0
239.72311,239.78503,57,45,0
239.72311,239.78503,60,45,0
239.79192,239.9341,64,63,0
239.79192,239.9341,52,54,0
239.79192,239.9341,57,54,0
239.79192,239.9341,60,54,0
240.07628,240.28955,48,54,0
240.07628,240.28955,60,63,0
240.07628,240.28955,57,54,0
240.07628,240.28955,52,54,0
240.28955,240.35353,57,55,0
240.28955,240.35353,45,46,0
240.28955,240.35353,48,46,0
240.28955,240.35353,52,46,0
240.36064,240.51689,57,64,0
240.36064,240.51689,45,54,0
240.36064,240.51689,48,54,0
240.36064,240.51689,52,54,0
240.55595,240.73274,40,50,0
240.59502,240.74466,44,50,0
240.63408,240.75658,47,50,0
240.67314,240.7685,52,59,0
240.96466,241.00998,59,52,0
240.96466,241.00998,47,43,0
241.0553,241.15598,59,52,0
241.0553,241.15598,47,43,0
241.25664,241.35051,58,61,0
241.25664,241.35051,46,50,0
241.44438,241.5419,59,64,0
241.44438,241.5419,47,55,0
241.63338,241.73486,64,70,0
241.63338,241.73486,52,57,0
241.7856,241.9072,44,50,0
241.81097,241.91507,51,50,0
241.83635,241.9308,56,59,0
242.12311,242.16884,63,52,0
242.12311,242.16884,51,43,0
242.21457,242.3123,63,52,0
242.21457,242.3123,51,43,0
242.41002,242.50447,62,61,0
242.41002,242.50447,50,50,0
242.59894,242.69615,63,64,0
242.59894,242.69615,51,55,0
242.78816,242.89105,63,70,0
242.78816,242.89105,51,57,0
242.91676,243.05241,39,50,0
242.94249,243.06412,43,50,0
242.96822,243.0758,46,50,0
242.99393,243.08751,51,59,0
243.27925,243.32512,58,52,0
243.27925,243.32512,46,43,0
243.37099,243.46902,58,52,0
243.37099,243.46902,46,43,0
243.56706,243.66064,57,61,0
243.56706,243.66064,45,50,0
243.75421,243.85207,58,64,0
243.75421,243.85207,46,55,0
243.94466,244.04718,63,70,0
243.94466,244.04718,51,57,0
244.09845,244.21968,43,50,0
244.12408,244.23134,50,50,0
244.14972,244.243,55,59,0
244.43225,244.47784,62,52,0
244.43225,244.47784,50,43,0
244.52344,244.61928,62,52,0
244.52344,244.61928,50,43,0
244.71513,244.80989,61,61,0
244.71513,244.80989,49,50,0
244.90465,245.00313,62,64,0
244.90465,245.00313,50,55,0
245.10162,245.20557,62,70,0
245.10162,245.20557,50,57,0
245.30952,245.4028,50,59,0
245.30952,245.4028,38,50,0
245.4961,245.59361,57,52,0
245.4961,245.59361,50,43,0
245.4961,245.59361,54,43,0
245.69115,245.78868,59,52,0
245.69115,245.78868,50,43,0
245.69115,245.78868,54,43,0
245.88622,245.98007,54,66,0
245.88622,245.98007,42,54,0
246.07394,246.17308,60,64,0
246.07394,246.17308,54,55,0
246.07394,246.17308,56,55,0
246.27222,246.37764,61,70,0
246.27222,246.37764,54,57,0
246.27222,246.37764,57,57,0
246.48305,246.57721,49,59,0
246.48305,246.57721,37,50,0
246.67137,246.76921,56,52,0
246.67137,246.76921,49,43,0
246.67137,246.76921,53,43,0
246.86707,246.9649,58,52,0
246.86707,246.9649,49,43,0
246.86707,246.9649,53,43,0
247.06276,247.15721,53,66,0
247.06276,247.15721,41,54,0
247.25168,247.35214,59,64,0
247.25168,247.35214,53,55,0
247.25168,247.35214,55,55,0
247.4526,247.56935,60,70,0
247.4526,247.56935,53,57,0
247.4526,247.56935,56,57,0
247.68608,247.81004,48,56,0
247.68608,247.81004,36,47,0
247.87202,247.92781,64,48,0
247.87202,247.92781,60,40,0
247.87202,247.92781,55,40,0
247.934,248.1995,64,56,0
247.934,248.1995,60,48,0
247.934,248.1995,55,48,0
248.1995,248.3245,48,56,0
248.1995,248.3245,36,47,0
248.387,248.44325,63,48,0
248.387,248.44325,60,40,0
248.387,248.44325,55,40,0
248.4495,248.71498,63,56,0
248.4495,248.71498,60,48,0
248.4495,248.71498,55,48,0
248.71498,248.8405,44,56,0
248.71498,248.8405,32,47,0
248.90327,248.95975,61,48,0
248.90327,248.95975,56,40,0
248.90327,248.95975,53,40,0
248.96603,249.22919,61,56,0
248.96603,249.22919,56,48,0
248.96603,249.22919,53,48,0
249.22919,249.35684,45,56,0
249.22919,249.35684,33,47,0
249.42067,249.47812,60,48,0
249.42067,249.47812,54,40,0
249.42067,249.47812,51,40,0
249.48451,249.75974,60,56,0
249.48451,249.75974,54,48,0
249.48451,249.75974,51,48,0
249.75974,249.85527,46,51,0
249.75974,249.85527,34,43,0
250.04759,250.09598,54,43,0
250.04759,250.09598,51,36,0
250.14436,250.24306,55,44,0
250.14436,250.24306,52,36,0
250.34174,250.4385,55,54,0
250.34174,250.4385,52,45,0
250.63542,250.68549,53,36,0
250.63542,250.68549,56,43,0
250.73555,250.84009,53,45,0
250.73555,250.84009,50,37,0
250.94461,251.03925,46,51,0
250.94461,251.03925,34,43,0
251.23004,251.27812,54,43,0
251.23004,251.27812,51,36,0
251.32619,251.42392,55,44,0
251.32619,251.42392,52,36,0
251.52164,251.61748,55,54,0
251.52164,251.61748,52,45,0
251.81137,251.86038,53,36,0
251.81137,251.86038,56,43,0
251.90941,252.01263,53,45,0
251.90941,252.01263,50,37,0
252.11588,252.21051,49,55,0
252.11588,252.21051,37,46,0
252.4013,252.44937,57,46,0
252.4013,252.44937,54,39,0
252.49745,252.59486,58,47,0
252.49745,252.59486,55,40,0
252.69226,252.7881,58,59,0
252.69226,252.7881,55,50,0
252.98105,253.02959,56,39,0
252.98105,253.02959,59,46,0
253.07812,253.17813,56,49,0
253.07812,253.17813,53,41,0
253.27812,253.37247,49,55,0
253.27812,253.37247,37,46,0
253.56296,253.61104,57,46,0
253.56296,253.61104,54,39,0
253.65912,253.75652,58,47,0
253.65912,253.75652,55,40,0
253.85393,253.94946,58,59,0
253.85393,253.94946,55,50,0
254.14241,254.1911,56,39,0
254.14241,254.1911,59,46,0
254.2398,254.34233,56,49,0
254.2398,254.34233,53,41,0
254.44487,254.5395,52,55,0
254.44487,254.5395,40,46,0
254.72998,254.77791,60,47,0
254.72998,254.77791,57,39,0
254.82584,254.92323,61,48,0
254.82584,254.92323,58,40,0
255.02065,255.11618,61,60,0
255.02065,255.11618,58,51,0
255.30977,255.35878,59,40,0
255.30977,255.35878,62,48,0
255.4078,255.5088,59,51,0
255.4078,255.5088,56,42,0
255.60982,255.70416,55,58,0
255.60982,255.70416,43,49,0
255.89435,255.94228,63,49,0
255.89435,255.94228,60,41,0
255.99019,256.0876,64,50,0
255.99019,256.0876,61,42,0
256.185,256.28024,64,63,0
256.185,256.28024,61,53,0
256.47226,256.52063,62,42,0
256.47226,256.52063,65,50,0
256.56903,256.67087,62,53,0
256.56903,256.67087,59,44,0
256.77267,256.86734,55,61,0
256.77267,256.86734,43,51,0
257.0578,257.10574,67,52,0
257.0578,257.10574,60,43,0
257.0578,257.10574,63,43,0
257.15366,257.25043,67,53,0
257.15366,257.25043,61,44,0
257.15366,257.25043,64,44,0
257.3472,257.44305,67,65,0
257.3472,257.44305,64,55,0
257.3472,257.44305,61,55,0
257.6363,257.685,65,44,0
257.6363,257.685,67,53,0
257.6363,257.685,62,44,0
257.7337,257.83438,67,55,0
257.7337,257.83438,62,46,0
257.7337,257.83438,55,46,0
257.93506,258.03152,55,63,0
257.93506,258.03152,43,54,0
258.2271,258.27667,67,54,0
258.2271,258.27667,61,45,0
258.2271,258.27667,64,45,0
258.32626,258.4274,67,54,0
258.32626,258.4274,62,45,0
258.32626,258.4274,65,45,0
258.52853,258.62836,67,68,0
258.52853,258.62836,65,57,0
258.52853,258.62836,62,57,0
258.83267,258.88495,65,45,0
258.83267,258.88495,56,45,0
258.83267,258.88495,62,45,0
258.83267,258.88495,68,54,0
258.9372,259.0774,67,57,0
258.9372,259.0774,65,48,0
258.9372,259.0774,55,48,0
258.9372,259.0774,62,48,0
259.2176,259.33163,36,33,0
259.2176,259.33163,48,33,0
259.4457,259.55978,62,31,0
259.4457,259.55978,55,21,0
259.4457,259.55978,52,21,0
259.67386,259.78793,48,33,0
259.90198,260.0131,60,44,0
259.90198,260.0131,55,29,0
259.90198,260.0131,52,29,0
260.1242,260.23532,48,33,0
260.34644,260.4627,59,37,0
260.34644,260.4627,55,26,0
260.34644,260.4627,52,26,0
260.57898,260.69135,36,33,0
260.8037,260.91608,57,31,0
260.8037,260.91608,54,21,0
260.8037,260.91608,52,21,0
261.02844,261.14517,48,33,0
261.2619,261.3734,55,44,0
261.2619,261.3734,52,29,0
261.48495,261.59647,48,33,0
261.70798,261.82382,64,37,0
261.70798,261.82382,60,26,0
261.70798,261.82382,55,26,0
261.93967,262.05243,36,33,0
261.93967,262.05243,48,33,0
262.16522,262.27798,64,31,0
262.16522,262.27798,57,21,0
262.16522,262.27798,54,21,0
262.39078,262.50357,48,33,0
262.61633,262.72745,62,44,0
262.61633,262.72745,57,29,0
262.61633,262.72745,54,29,0
262.83856,262.94968,48,33,0
263.0608,263.17618,64,37,0
263.0608,263.17618,57,26,0
263.0608,263.17618,54,26,0
263.29156,263.40564,48,41,0
263.51968,263.63376,65,34,0
263.51968,263.63376,59,28,0
263.51968,263.63376,55,28,0
263.74783,263.86594,48,43,0
264.01746,264.13153,69,34,0
264.01746,264.13153,65,28,0
264.01746,264.13153,59,28,0
264.2456,264.35965,48,45,0
264.47372,264.59326,67,39,0
264.47372,264.59326,65,33,0
264.47372,264.59326,59,33,0
264.71277,264.82684,36,33,0
264.71277,264.82684,48,33,0
264.94092,265.16904,62,31,0
264.94092,265.16904,55,21,0
264.94092,265.16904,52,21,0
265.16904,265.3972,48,33,0
265.3972,265.61777,60,44,0
265.3972,265.61777,55,29,0
265.3972,265.61777,52,29,0
265.61777,265.83835,48,33,0
265.83835,266.06308,59,37,0
265.83835,266.06308,55,26,0
265.83835,266.06308,52,26,0
266.06308,266.2895,48,33,0
266.2895,266.5159,57,31,0
266.2895,266.5159,54,21,0
266.2895,266.5159,52,21,0
266.5159,266.7512,48,33,0
266.7512,266.97592,55,44,0
266.7512,266.97592,52,29,0
266.97592,267.20065,48,33,0
267.20065,267.4323,64,37,0
267.20065,267.4323,60,26,0
267.20065,267.4323,55,26,0
267.4323,267.657,35,41,0
267.657,267.88174,63,35,0
267.657,267.88174,57,28,0
267.657,267.88174,54,28,0
267.88174,268.10645,47,48,0
268.10645,268.3346,67,43,0
268.10645,268.3346,63,36,0
268.10645,268.3346,57,36,0
268.3346,268.56274,47,54,0
268.56274,268.7953,66,47,0
268.56274,268.7953,63,47,0
268.56274,268.7953,57,39,0
268.7953,269.0422,52,57,0
268.7953,269.0422,40,57,0
269.0422,269.28912,69,45,0
269.0422,269.28912,64,37,0
269.0422,269.28912,59,37,0
269.28912,269.577,67,55,0
269.28912,269.577,64,45,0
269.28912,269.577,59,45,0
269.577,269.8239,55,44,0
269.577,269.8239,43,44,0
269.8239,270.07083,69,47,0
269.8239,270.07083,59,40,0
269.8239,270.07083,62,40,0
269.8239,270.07083,65,40,0
270.07083,270.33282,67,42,0
270.07083,270.33282,62,36,0
270.07083,270.33282,59,36,0
270.07083,270.33282,65,36,0
270.33282,270.68814,36,49,0
270.33282,270.68814,48,49,0
270.5197,270.8617,67,32,0
270.5197,270.8617,64,32,0
270.5197,270.8617,76,47,0
270.8617,271.2025,74,65,0
270.8617,271.2025,62,45,0
270.8617,271.2025,64,45,0
270.8617,271.2025,67,45,0
271.2025,271.53967,72,57,0
271.2025,271.53967,60,39,0
271.2025,271.53967,64,39,0
271.2025,271.54843,67,39,0
271.53967,271.54843,67,39,0
271.53967,271.71478,59,39,0
271.53967,271.71478,64,39,0
271.53967,271.71478,71,57,0
271.88394,272.2254,69,47,0
271.88394,272.2254,57,35,0
271.88394,272.2254,60,35,0
271.88394,272.2254,64,35,0
272.2254,272.57047,66,56,0
272.2254,272.57047,54,41,0
272.2254,272.57047,60,41,0
272.2254,272.57047,64,41,0
272.57047,272.7384,67,56,0
272.57047,272.7384,55,41,0
272.57047,272.7384,60,41,0
272.57047,272.7384,64,41,0
273.08844,273.43066,48,49,0
272.90985,273.43066,36,49,0
273.25977,273.60223,66,32,0
273.25977,273.60223,64,32,0
273.25977,273.60223,76,47,0
273.25977,273.60223,69,32,0
273.60223,273.9402,73,65,0
273.60223,273.9402,69,45,0
273.60223,273.9402,61,45,0
273.60223,273.9402,66,45,0
273.9402,274.28165,74,57,0
273.9402,274.28165,69,39,0
273.9402,274.28165,62,39,0
273.9402,274.29056,66,39,0
274.28165,274.29056,66,39,0
274.28165,274.4595,69,39,0
274.28165,274.4595,64,39,0
274.28165,274.4595,76,57,0
274.62805,274.98642,77,47,0
274.62805,274.98642,65,35,0
274.62805,274.98642,68,35,0
274.62805,274.98642,71,35,0
274.98642,275.36392,74,56,0
274.98642,275.36392,62,41,0
274.98642,275.36392,65,41,0
274.98642,275.36392,68,41,0
275.36392,275.54285,71,50,0
275.36392,275.54285,59,36,0
275.36392,275.54285,62,36,0
275.36392,275.54285,65,36,0
275.91534,276.26913,48,36,0
275.72385,276.26913,36,36,0
276.0991,276.44223,55,24,0
276.0991,276.44223,52,24,0
276.0991,276.44223,64,35,0
276.44223,276.7832,62,48,0
276.44223,276.7832,55,33,0
276.44223,276.7832,52,33,0
276.7832,277.12234,60,42,0
276.7832,277.12234,52,28,0
276.7832,277.13123,55,28,0
277.12234,277.13123,55,28,0
277.12234,277.3002,52,28,0
277.12234,277.3002,59,42,0
277.46982,277.81342,57,35,0
277.46982,277.81342,52,26,0
277.46982,277.81342,48,26,0
277.81342,278.15787,54,42,0
277.81342,278.15787,52,30,0
277.81342,278.15787,48,30,0
278.15787,278.32513,55,42,0
278.15787,278.32513,52,30,0
278.15787,278.32513,48,30,0
278.69092,279.04047,48,39,0
278.49942,279.04047,36,36,0
278.86957,279.21356,56,26,0
278.86957,279.21356,53,26,0
278.86957,279.21356,65,38,0
279.21356,279.55518,63,53,0
279.21356,279.55518,56,36,0
279.21356,279.55518,53,36,0
279.55518,279.8956,61,45,0
279.55518,279.8956,53,31,0
279.55518,279.9045,56,31,0
279.8956,279.9045,56,31,0
279.8956,280.07416,53,31,0
279.8956,280.07416,60,45,0
280.24463,280.59064,58,38,0
280.24463,280.59064,53,27,0
280.24463,280.59064,48,27,0
280.59064,280.93768,55,45,0
280.59064,280.93768,53,33,0
280.59064,280.93768,48,33,0
280.93768,281.10684,56,45,0
280.93768,281.10684,53,33,0
280.93768,281.10684,48,33,0
281.46838,281.81403,48,47,0
281.2811,281.81403,36,36,0
281.6457,281.9845,57,44,0
281.6457,281.9845,54,44,0
281.6457,281.9845,66,52,0
281.9845,282.32227,64,48,0
281.9845,282.32227,57,41,0
281.9845,282.32227,54,41,0
282.32227,282.6665,62,45,0
282.32227,282.6665,54,37,0
282.32227,282.67606,57,37,0
282.85797,283.20474,48,48,0
282.6665,283.20474,36,40,0
283.0372,283.37454,58,47,0
283.0372,283.37454,55,47,0
283.0372,283.37454,67,56,0
283.37454,283.71042,65,51,0
283.37454,283.71042,58,43,0
283.37454,283.71042,55,43,0
283.71042,284.04715,64,46,0
283.71042,284.04715,55,39,0
283.71042,284.05673,58,39,0
284.23343,284.5796,48,54,0
284.04715,284.5796,36,43,0
284.41162,284.74942,62,49,0
284.41162,284.74942,59,49,0
284.41162,284.74942,68,59,0
284.74942,285.08527,67,54,0
284.74942,285.08527,62,46,0
284.74942,285.08527,59,46,0
285.08527,285.42178,65,50,0
285.08527,285.42178,56,42,0
285.08527,285.43076,59,42,0
285.42178,285.60107,53,39,0
285.42178,285.60107,56,39,0
285.42178,285.60107,62,46,0
285.77347,286.10898,59,61,0
285.77347,286.10898,53,51,0
285.77347,286.10898,50,51,0
286.10898,286.44296,56,57,0
286.10898,286.44296,50,47,0
286.10898,286.44296,47,47,0
286.44296,286.77774,55,53,0
286.44296,286.77774,47,45,0
286.44296,286.78662,50,45,0
286.77774,286.95493,44,42,0
286.77774,286.95493,47,42,0
286.77774,286.95493,53,49,0
287.12332,287.4619,50,62,0
287.12332,287.4619,44,52,0
287.12332,287.4619,41,52,0
287.4619,287.79718,47,59,0
287.4619,287.79718,41,49,0
287.4619,287.79718,38,49,0
287.79718,288.13245,44,57,0
287.79718,288.13245,35,48,0
287.79718,288.14136,38,48,0
288.13245,288.14136,38,46,0
288.13245,288.311,35,46,0
288.13245,288.311,43,54,0
288.48407,288.83023,41,60,0
288.48407,288.83023,38,60,0
288.48407,288.83023,35,60,0
288.83023,289.17377,44,69,0
288.83023,289.17377,38,57,0
288.83023,289.17377,32,57,0
288.83023,289.17377,35,57,0
289.17377,289.52603,43,68,0
289.17377,289.52603,38,56,0
289.17377,289.52603,31,56,0
289.17377,289.53625,35,56,0
289.52603,289.53625,35,55,0
289.52603,289.7306,38,55,0
289.52603,289.7306,29,55,0
289.52603,289.7306,41,66,0
289.7306,290.30875,36,65,0
289.7306,290.30875,28,55,0
289.7306,290.30875,31,55,0
289.7306,290.30875,24,55,0
290.30875,290.40268,55,56,0
290.30875,290.40268,52,56,0
290.30875,290.40268,60,67,0
290.58807,290.63388,52,49,0
290.58807,290.63388,55,58,0
290.58807,290.63388,48,49,0
290.6795,290.84805,55,66,0
290.6795,290.84805,52,55,0
290.6795,290.84805,48,55,0
291.01657,291.6018,43,65,0
291.01657,291.6018,34,55,0
291.01657,291.6018,37,55,0
291.01657,291.6018,31,55,0
291.6018,291.69653,58,56,0
291.6018,291.69653,53,56,0
291.6018,291.69653,61,67,0
291.88284,291.92877,53,49,0
291.88284,291.92877,58,58,0
291.88284,291.92877,49,49,0
291.97443,292.13925,58,66,0
291.97443,292.13925,53,55,0
291.97443,292.13925,49,55,0
292.3041,292.88193,36,65,0
292.3041,292.88193,28,55,0
292.3041,292.88193,31,55,0
292.3041,292.88193,24,55,0
292.88193,292.975,55,56,0
292.88193,292.975,52,56,0
292.88193,292.975,60,67,0
293.15857,293.20398,52,49,0
293.15857,293.20398,55,58,0
293.15857,293.20398,48,49,0
293.24942,293.409,55,66,0
293.24942,293.409,52,55,0
293.24942,293.409,48,55,0
293.56857,294.14883,41,65,0
293.56857,294.14883,38,55,0
293.56857,294.14883,32,55,0
293.56857,294.14883,35,55,0
293.56857,294.14883,29,55,0
294.14883,294.2427,62,56,0
294.14883,294.2427,59,56,0
294.14883,294.2427,68,67,0
294.4283,294.47424,59,49,0
294.4283,294.47424,65,58,0
294.4283,294.47424,56,49,0
294.52002,294.68042,65,66,0
294.52002,294.68042,59,55,0
294.52002,294.68042,56,55,0
294.83405,295.23035,48,65,0
294.83405,295.23035,40,55,0
294.83405,295.23035,43,55,0
294.83405,295.23035,36,55,0
295.23035,295.3324,60,66,0
295.23035,295.3324,55,55,0
295.435,295.83386,43,65,0
295.435,295.83386,31,55,0
295.435,295.83386,34,55,0
295.435,295.83386,37,55,0
295.83386,295.93002,61,66,0
295.83386,295.93002,58,55,0
295.83386,295.93002,53,55,0
296.02768,296.41776,48,65,0
296.02768,296.41776,40,55,0
296.02768,296.41776,43,55,0
296.02768,296.41776,36,55,0
296.41776,296.5133,60,66,0
296.41776,296.5133,55,55,0
296.61017,297.00146,41,65,0
296.61017,297.00146,32,55,0
296.61017,297.00146,35,55,0
296.61017,297.00146,29,55,0
296.61017,297.00146,38,55,0
297.00146,297.11426,65,66,0
297.00146,297.11426,56,55,0
297.00146,297.11426,59,55,0
297.00146,297.11426,62,55,0
297.22437,297.30768,48,61,0
297.22437,297.30768,36,51,0
297.3939,297.47794,43,53,0
297.3939,297.47794,31,45,0
297.56464,297.64963,48,61,0
297.56464,297.64963,36,51,0
297.73785,297.8231,43,52,0
297.73785,297.8231,31,44,0
297.91132,297.99655,48,61,0
297.91132,297.99655,36,51,0
298.084,298.16852,41,51,0
298.084,298.16852,29,43,0
298.25574,298.34024,48,61,0
298.25574,298.34024,36,51,0
298.42847,298.51395,43,53,0
298.42847,298.51395,31,45,0
298.6027,298.68793,48,61,0
298.6027,298.68793,36,51,0
298.77512,298.86035,43,52,0
298.77512,298.86035,31,44,0
298.94757,299.0328,48,61,0
298.94757,299.0328,36,51,0
299.12027,299.20547,41,51,0
299.12027,299.20547,29,43,0
299.29272,299.37888,48,61,0
299.29272,299.37888,36,51,0
299.4649,299.5507,43,54,0
299.4649,299.5507,31,45,0
299.63623,299.7216,48,63,0
299.63623,299.7216,36,54,0
299.8067,299.89154,43,56,0
299.8067,299.89154,31,47,0
299.97617,300.0606,48,67,0
299.97617,300.0606,36,56,0
300.1448,300.22876,41,58,0
300.1448,300.22876,29,48,0
300.31262,300.3961,48,71,0
300.31262,300.3961,36,60,0
300.47937,300.56345,43,63,0
300.47937,300.56345,31,53,0
300.64777,300.73193,48,74,0
300.64777,300.73193,36,63,0
300.81604,300.90033,43,65,0
300.81604,300.90033,31,54,0
300.98413,301.06738,48,77,0
300.98413,301.06738,36,65,0
301.1501,301.234,41,80,0
301.1501,301.234,35,55,0
301.1501,301.234,38,66,0
301.1501,301.234,29,55,0
301.69522,301.78897,41,80,0
301.69522,301.78897,29,55,0
301.69522,301.78897,35,55,0
301.69522,301.78897,38,66,0
302.27875,302.3725,41,80,0
302.27875,302.3725,29,55,0
302.27875,302.3725,35,55,0
302.27875,302.3725,38,66,0
302.46625,302.56,41,87,0
302.46625,302.56,29,61,0
302.46625,302.56,35,61,0
302.46625,302.56,38,72,0
302.65375,302.7475,41,80,0
302.65375,302.7475,29,55,0
302.65375,302.7475,35,55,0
302.65375,302.7475,38,66,0
303.91925,303.99384,32,81,0
304.0192,304.09702,31,83,0
304.124,304.2097,30,85,0
304.23932,304.32962,29,87,0
304.35974,305.6833,36,90,0
304.35974,305.6833,24,63,0
304.35974,305.6833,28,63,0
304.35974,305.6833,31,75,0
