start_time,end_time,note_value,velocity,instrument_program_number
7.2083287,7.310566,46,44,0
7.310566,7.402732,49,38,0
7.402732,7.4944577,46,45,0
7.4944577,7.5853667,49,39,0
7.5853667,7.7205687,46,46,0
7.6757255,7.7654114,49,42,0
7.7654114,7.8544726,46,47,0
7.8544726,7.9429684,49,42,0
7.9429684,8.030768,46,48,0
8.030768,8.118105,49,44,0
8.118105,8.248319,46,50,0
8.2052145,8.291422,49,45,0
8.291422,8.377326,46,51,0
8.377326,8.462433,49,46,0
8.462433,8.547163,46,52,0
8.547163,8.631197,49,47,0
8.631197,8.755795,46,53,0
8.71476,8.796778,49,48,0
8.796778,8.878745,46,55,0
8.878745,8.960165,49,49,0
8.960165,9.041137,46,56,0
9.041137,9.121477,49,50,0
9.121477,9.241263,46,57,0
9.201477,9.280789,49,51,0
9.280789,9.35984,46,58,0
9.35984,9.43815,49,55,0
9.43815,9.517395,46,60,0
9.517395,9.597784,49,53,0
9.597784,9.721119,46,61,0
9.679676,9.76311,49,54,0
9.76311,9.84311,46,62,0
9.84311,9.92311,49,58,0
9.92311,10.00311,46,63,0
10.00311,10.08311,49,59,0
10.08311,10.20311,46,67,0
10.16311,10.242873,49,70,0
10.242873,10.3221855,46,73,0
10.3221855,10.403286,49,76,0
10.403286,10.48561,46,79,0
10.48561,10.569942,49,82,0
10.569942,10.699156,46,85,0
10.655544,10.743375,49,88,0
10.792879,10.89189,48,94,0
10.792879,10.89189,45,84,0
10.89189,11.188919,49,100,0
10.89189,11.188919,46,90,0
13.178426,13.24569,56,65,0
13.178426,13.24569,68,74,0
13.268112,14.209816,68,82,0
13.268112,14.209816,56,72,0
14.254659,14.321923,73,72,0
14.254659,14.321923,61,63,0
14.344345,15.309002,73,81,0
14.344345,15.309002,61,71,0
15.356395,15.427485,71,73,0
15.356395,15.427485,59,64,0
15.451181,15.877722,71,80,0
15.451181,15.877722,59,70,0
15.925116,15.996205,70,74,0
15.925116,15.996205,58,65,0
16.019903,16.446444,70,80,0
16.019903,16.446444,58,70,0
16.493835,16.564926,68,74,0
16.493835,16.564926,56,65,0
16.588623,17.00337,68,81,0
16.588623,17.00337,56,71,0
17.049452,17.118576,55,64,0
17.049452,17.118576,67,73,0
17.141619,17.587162,67,80,0
17.141619,17.587162,55,70,0
17.636667,17.710926,68,72,0
17.636667,17.710926,56,63,0
17.735678,18.072756,68,81,0
17.735678,18.072756,56,71,0
18.409836,18.508018,47,44,0
18.409836,18.508018,50,44,0
18.508018,18.601477,56,38,0
18.601477,18.694935,47,45,0
18.601477,18.694935,50,45,0
18.694935,18.787262,56,39,0
18.787262,18.92551,47,46,0
18.787262,18.92551,50,46,0
18.879427,18.970997,56,42,0
18.970997,19.061905,47,47,0
18.970997,19.061905,50,47,0
19.061905,19.152723,56,42,0
19.152723,19.242409,47,48,0
19.152723,19.242409,50,48,0
19.242409,19.332096,56,44,0
19.332096,19.465792,47,50,0
19.332096,19.465792,50,50,0
19.421543,19.510038,56,45,0
19.510038,19.598534,47,51,0
19.510038,19.598534,50,51,0
19.598534,19.686102,56,46,0
19.686102,19.77344,47,52,0
19.686102,19.77344,50,52,0
19.77344,19.860323,56,47,0
19.860323,19.989634,47,53,0
19.860323,19.989634,50,53,0
19.94653,20.032738,56,48,0
20.032738,20.11779,47,55,0
20.032738,20.11779,50,55,0
20.11779,20.201746,56,49,0
20.201746,20.284605,47,56,0
20.201746,20.284605,50,56,0
20.284605,20.366423,56,50,0
20.366423,20.4872,47,57,0
20.366423,20.4872,50,57,0
20.4472,20.526962,56,51,0
20.526962,20.60576,47,58,0
20.526962,20.60576,50,58,0
20.60576,20.68359,56,55,0
20.68359,20.761127,47,60,0
20.68359,20.761127,50,60,0
20.761127,20.840063,56,53,0
20.840063,20.960915,47,61,0
20.840063,20.960915,50,61,0
20.92043,21.001873,56,54,0
21.001873,21.085411,47,62,0
21.001873,21.085411,50,62,0
21.085411,21.168869,56,58,0
21.168869,21.25112,47,63,0
21.168869,21.25112,50,63,0
21.25112,21.331945,56,59,0
21.331945,21.451073,47,67,0
21.331945,21.451073,50,67,0
21.411757,21.490135,56,70,0
21.490135,21.567339,47,73,0
21.490135,21.567339,50,73,0
21.567339,21.643963,56,77,0
21.643963,21.721498,47,80,0
21.643963,21.721498,50,80,0
21.721498,21.800434,56,83,0
21.800434,21.920801,47,86,0
21.800434,21.920801,50,86,0
21.880363,21.96176,56,89,0
21.96176,22.051445,55,93,0
22.006603,22.096289,46,74,0
21.96176,22.096289,49,83,0
22.096289,22.365347,56,98,0
22.096289,22.365347,50,90,0
22.096289,22.365347,47,78,0
25.238798,25.676756,76,66,0
25.164785,25.676756,62,57,0
25.189457,25.676756,68,59,0
25.214128,25.676756,71,63,0
26.941048,27.379005,76,66,0
26.865545,27.379005,62,57,0
26.890713,27.379005,68,59,0
26.91588,27.379005,71,63,0
28.682053,29.127258,76,66,0
28.604998,29.127258,62,57,0
28.630682,29.127258,66,59,0
28.656366,29.127258,69,63,0
30.400923,30.843727,76,66,0
30.323868,30.843727,62,57,0
30.349554,30.843727,68,59,0
30.375238,30.843727,71,63,0
32.142048,32.58,81,70,0
32.066544,32.58,64,60,0
32.09171,32.58,69,64,0
32.11688,32.58,73,67,0
33.85684,34.29964,81,70,0
33.77898,34.29964,64,60,0
33.80493,34.29964,69,64,0
33.830883,34.29964,73,67,0
35.627365,36.076553,81,70,0
35.54614,36.076553,66,60,0
35.573215,36.076553,72,64,0
35.600292,36.076553,75,67,0
37.41258,37.89258,81,70,0
37.326702,37.89258,64,60,0
37.355328,37.89258,69,64,0
37.383953,37.89258,73,67,0
38.06239,38.1756,61,69,0
38.34541,39.52962,69,77,0
39.52962,39.686687,71,69,0
38.260506,39.829357,57,59,0
39.686687,39.843758,73,69,0
38.31711,39.843758,66,64,0
38.288807,39.856846,61,63,0
39.843758,40.000824,73,73,0
40.000824,40.472027,66,68,0
41.021767,41.074123,66,63,0
41.1003,41.96777,66,78,0
41.96777,42.092995,68,65,0
42.075104,42.205532,69,65,0
42.182438,42.598145,61,70,0
42.598145,42.696667,63,64,0
42.672035,42.7681,64,64,0
52.105877,52.199432,76,61,0
52.105877,52.199432,88,73,0
52.105877,52.199432,85,73,0
52.230618,53.62009,76,70,0
52.230618,53.62009,85,83,0
52.230618,53.62009,88,83,0
53.62009,53.71483,75,61,0
53.62009,53.71483,83,73,0
53.62009,53.71483,87,73,0
53.745716,54.09908,75,70,0
53.745716,54.09908,83,83,0
53.745716,54.09908,87,83,0
54.09908,54.186176,73,61,0
54.09908,54.186176,81,73,0
54.09908,54.186176,85,73,0
54.215134,54.558113,73,68,0
54.215134,54.558113,85,80,0
54.215134,54.558113,81,80,0
54.558113,54.6427,69,61,0
54.558113,54.6427,78,73,0
54.558113,54.6427,81,73,0
54.670734,55.00226,69,68,0
54.670734,55.00226,78,80,0
54.670734,55.00226,81,80,0
55.00226,55.08344,68,63,0
55.00226,55.08344,76,75,0
55.00226,55.08344,80,75,0
55.110367,55.430893,68,70,0
55.110367,55.430893,76,83,0
55.110367,55.430893,80,83,0
55.430893,55.510963,64,61,0
55.430893,55.510963,73,73,0
55.430893,55.510963,76,73,0
55.53765,55.85685,64,68,0
55.53765,55.85685,76,80,0
55.53765,55.85685,73,80,0
55.85685,55.936405,63,61,0
55.85685,55.936405,71,73,0
55.85685,55.936405,75,73,0
55.963,56.2799,63,69,0
55.963,56.2799,71,81,0
55.963,56.2799,75,81,0
56.2799,56.359127,61,66,0
56.2799,56.359127,69,78,0
56.2799,56.359127,73,78,0
56.385536,56.702435,61,70,0
56.385536,56.702435,69,82,0
56.385536,56.702435,73,82,0
56.702435,56.781662,57,67,0
56.702435,56.781662,66,80,0
56.702435,56.781662,69,80,0
56.80807,57.12497,57,72,0
56.80807,57.12497,66,85,0
56.80807,57.12497,69,85,0
57.12497,57.204197,56,68,0
57.12497,57.204197,64,81,0
57.12497,57.204197,68,81,0
57.230606,57.54751,56,73,0
57.230606,57.54751,64,86,0
57.230606,57.54751,68,86,0
57.54751,57.626545,52,70,0
57.54751,57.626545,61,83,0
57.54751,57.626545,64,83,0
57.652817,57.968052,52,74,0
57.652817,57.968052,61,89,0
57.652817,57.968052,64,89,0
57.968052,58.046864,51,71,0
57.968052,58.046864,59,84,0
57.968052,58.046864,63,84,0
58.07313,58.401646,51,77,0
58.07313,58.401646,59,91,0
58.07313,58.401646,63,91,0
58.401646,58.488407,49,72,0
58.401646,58.488407,57,86,0
58.401646,58.488407,61,86,0
58.517254,59.467224,57,78,0
58.517254,59.467224,49,78,0
58.517254,59.467224,61,91,0
59.467224,60.47729,57,72,0
59.467224,60.47729,62,86,0
59.467224,60.47729,50,72,0
59.467224,60.47729,53,72,0
60.47729,61.527122,62,80,0
60.47729,61.527122,66,95,0
60.47729,61.527122,54,80,0
60.47729,61.527122,57,80,0
61.527122,65.521614,63,78,0
61.527122,65.521614,56,70,0
61.527122,65.521614,68,98,0
61.527122,65.521614,54,63,0
61.527122,65.521614,60,70,0
65.567696,65.636826,61,65,0
65.65987,66.61441,52,61,0
65.65987,66.61441,56,61,0
65.65987,66.61441,61,72,0
66.65987,66.72804,66,70,0
66.75077,67.705315,54,60,0
66.75077,67.705315,57,60,0
66.75077,67.705315,66,71,0
67.75077,67.818954,64,69,0
67.84168,68.274376,52,59,0
67.84168,68.274376,56,59,0
67.84168,68.274376,64,70,0
68.32245,68.39457,63,67,0
68.4186,68.851295,51,59,0
68.4186,68.851295,54,59,0
68.4186,68.851295,63,70,0
68.899376,68.97149,61,68,0
68.99553,69.41027,49,60,0
68.99553,69.41027,52,60,0
68.99553,69.41027,61,71,0
69.45636,69.52548,60,68,0
69.54852,69.994064,48,59,0
69.54852,69.994064,51,59,0
69.54852,69.994064,60,70,0
70.04357,70.11783,61,70,0
70.142586,70.53993,49,60,0
70.142586,70.53993,52,60,0
70.142586,70.53993,61,71,0
70.73861,70.93729,49,70,0
70.93729,71.04366,51,66,0
71.04366,71.14791,49,61,0
71.14791,71.25086,51,66,0
71.25086,71.35134,49,61,0
71.35134,71.451004,51,66,0
71.451004,71.54969,49,60,0
71.54969,71.647606,51,66,0
71.647606,71.74476,49,61,0
71.74476,71.84269,51,66,0
71.84269,71.947205,49,61,0
71.947205,72.061,48,66,0
72.061,72.17969,49,61,0
70.93729,72.17969,45,66,0
72.17969,72.320015,52,71,0
72.320015,72.467155,51,65,0
72.467155,72.6218,49,65,0
72.6218,72.749466,49,70,0
72.6218,72.749466,44,70,0
73.91279,74.00496,68,65,0
74.00496,74.9595,59,61,0
74.00496,74.9595,63,61,0
74.00496,74.9595,68,72,0
75.00496,75.073135,73,70,0
75.09586,76.105484,61,60,0
75.09586,76.105484,64,60,0
75.09586,76.105484,73,71,0
76.15356,76.24971,71,69,0
76.24971,76.67027,59,59,0
76.24971,76.67027,63,59,0
76.24971,76.67027,71,70,0
76.71452,76.78089,69,67,0
76.80302,77.20125,57,59,0
76.80302,77.20125,61,59,0
76.80302,77.20125,69,70,0
77.24549,77.31187,68,68,0
77.24549,77.31187,56,68,0
77.33399,77.74873,56,60,0
77.33399,77.74873,59,60,0
77.33399,77.74873,68,71,0
77.794815,77.863945,67,68,0
77.886986,78.33925,55,59,0
77.886986,78.33925,58,59,0
77.886986,78.33925,67,70,0
78.389496,78.464874,68,70,0
78.49,78.88735,56,60,0
78.49,78.88735,59,60,0
78.49,78.88735,68,71,0
79.08603,79.2847,56,63,0
79.2847,79.39108,58,59,0
79.39108,79.49532,56,54,0
79.49532,79.598274,58,59,0
79.598274,79.69875,56,54,0
79.69875,79.79842,58,59,0
79.79842,79.89711,56,54,0
79.89711,79.99502,58,59,0
79.99502,80.09217,56,54,0
80.09217,80.1901,58,59,0
80.1901,80.29462,56,54,0
80.29462,80.40842,55,59,0
80.40842,80.52711,56,54,0
79.2847,80.52711,52,59,0
80.52711,80.66743,59,63,0
80.66743,80.814575,58,58,0
80.814575,80.96922,56,58,0
80.96922,81.08641,56,56,0
80.96922,81.08641,51,56,0
80.96922,81.08641,47,56,0
82.48448,82.7207,68,52,0
82.956924,84.1822,68,55,0
84.1822,84.38768,69,52,0
84.38768,84.54442,71,52,0
84.57577,84.68177,71,52,0
82.897865,86.00651,64,50,0
84.68177,86.00651,64,56,0
86.00651,86.18133,63,56,0
82.83881,86.21629,59,48,0
86.21629,86.490845,63,56,0
87.126884,87.33668,64,44,0
86.384834,87.54646,66,54,0
87.33668,87.54646,66,43,0
87.54646,87.70618,68,46,0
87.70618,87.89048,66,44,0
87.89048,88.112236,64,44,0
86.384834,88.112236,57,47,0
88.112236,89.73543,64,44,0
88.112236,89.73543,56,39,0
89.7889,89.93329,64,33,0
89.7889,89.93329,56,33,0
89.7889,89.93329,68,52,0
89.94933,91.13795,64,35,0
89.94933,91.13795,56,35,0
89.94933,91.13795,68,55,0
91.13795,91.32428,66,44,0
91.13795,91.32428,69,52,0
91.14882,91.33749,57,44,0
91.32428,91.5507,71,55,0
91.32428,91.5507,59,46,0
91.32428,91.5507,68,46,0
91.5507,92.10252,69,49,0
91.5507,92.10252,61,49,0
91.5507,92.10252,73,59,0
92.10252,92.351036,69,45,0
92.10252,92.351036,61,45,0
92.10252,92.351036,73,54,0
92.351036,92.53562,69,48,0
92.351036,92.53562,61,48,0
92.351036,92.53562,73,57,0
92.580315,92.7639,68,46,0
92.580315,92.7639,59,46,0
92.580315,92.7639,71,55,0
92.811806,93.026566,67,44,0
92.811806,93.026566,58,44,0
92.811806,93.026566,70,52,0
93.08026,93.81872,68,48,0
93.08026,93.81872,59,48,0
93.08026,93.81872,71,57,0
94.12694,94.22968,63,44,0
93.81872,94.33035,64,52,0
94.22968,94.33035,64,45,0
94.33035,94.43102,66,44,0
94.43102,94.53169,64,46,0
94.53169,94.63236,63,48,0
93.81872,94.63236,56,44,0
93.81872,94.63236,61,44,0
94.63236,95.19137,63,52,0
95.19137,95.25349,64,49,0
95.25349,95.37771,68,55,0
94.63236,95.37771,57,44,0
95.37771,96.014336,66,52,0
96.014336,96.227104,64,52,0
95.37771,96.26965,57,44,0
96.26965,97.117714,56,44,0
96.26965,97.117714,64,52,0
99.50892,99.74514,76,52,0
99.74514,100.263214,64,48,0
99.92231,101.14758,76,55,0
101.14758,101.353065,78,52,0
101.353065,101.5098,80,52,0
99.86325,101.54115,73,50,0
99.8042,101.54115,68,48,0
101.54115,101.647156,80,52,0
101.647156,102.97189,73,56,0
102.97189,103.18168,72,56,0
103.18168,103.47788,72,56,0
103.223816,103.71612,60,47,0
104.109474,104.25873,73,46,0
103.35022,104.40798,75,54,0
104.25873,104.40798,75,46,0
104.40798,104.557236,76,46,0
104.557236,104.6337,75,46,0
104.65323,104.712425,75,46,0
104.712425,104.87405,73,48,0
104.87405,105.04116,72,44,0
103.26595,105.04116,66,47,0
103.30809,105.04116,68,47,0
105.04116,105.50468,64,39,0
105.101166,106.36182,73,44,0
105.07117,106.36182,68,39,0
106.5761,106.79039,61,69,0
106.5761,106.79039,59,69,0
106.5761,106.79039,65,82,0
106.79039,107.94055,61,76,0
106.79039,107.94055,57,76,0
106.79039,107.94055,66,90,0
107.94055,108.31726,78,68,0
107.94055,108.31726,69,68,0
107.94055,108.31726,81,80,0
108.35151,108.63632,69,72,0
108.35151,108.63632,81,85,0
108.35151,108.63632,78,85,0
108.63632,108.70752,76,67,0
108.63632,108.70752,68,67,0
108.63632,108.70752,80,79,0
108.731255,109.0448,76,72,0
108.731255,109.0448,68,72,0
108.731255,109.0448,80,85,0
109.0448,109.13167,75,68,0
109.0448,109.13167,66,68,0
109.0448,109.13167,78,81,0
109.16063,109.671265,75,68,0
109.16063,109.671265,66,68,0
109.16063,109.671265,78,81,0
110.26797,110.42531,69,45,0
110.26797,110.42531,66,45,0
110.26797,110.42531,75,53,0
110.47775,110.91571,68,49,0
110.47775,110.91571,64,49,0
110.47775,110.91571,76,58,0
110.91571,111.01248,75,48,0
111.01248,111.10926,76,50,0
111.10926,111.20603,78,51,0
111.20603,111.30281,76,50,0
111.30281,111.70959,68,45,0
111.30281,111.70959,75,54,0
111.91298,112.11636,73,48,0
112.11636,112.49612,68,45,0
112.11636,112.49612,75,53,0
112.49612,112.87586,68,50,0
112.11636,112.87586,66,45,0
112.87586,113.44548,72,45,0
112.87586,113.44548,66,45,0
112.87586,113.44548,80,54,0
113.44548,113.63535,72,44,0
113.63535,114.068565,68,43,0
113.63535,114.068565,64,43,0
113.63535,114.068565,73,51,0
114.068565,114.19396,72,51,0
114.19396,114.31935,73,51,0
114.31935,114.44474,75,51,0
114.44474,115.05491,73,55,0
115.05491,115.31353,72,51,0
114.44474,115.31353,68,46,0
114.44474,115.31353,63,46,0
115.31353,115.74674,68,46,0
115.31353,115.74674,61,46,0
115.31353,115.74674,73,55,0
116.98416,117.05329,61,65,0
117.07633,118.16441,52,61,0
117.07633,118.16441,56,61,0
117.07633,118.16441,61,72,0
118.216225,118.293945,66,70,0
118.319855,119.407936,54,60,0
118.319855,119.407936,57,60,0
118.319855,119.407936,66,71,0
119.45975,119.53747,64,69,0
119.56338,120.06899,52,59,0
119.56338,120.06899,56,59,0
119.56338,120.06899,64,70,0
120.125175,120.23753,62,69,0
120.23753,120.74315,57,61,0
120.23753,120.74315,62,72,0
120.23753,120.74315,54,61,0
120.79933,120.91169,61,72,0
120.91169,121.392975,52,64,0
120.91169,121.392975,56,64,0
120.91169,121.392975,61,76,0
121.44645,121.526665,60,75,0
121.553406,122.027084,51,66,0
121.553406,122.027084,54,66,0
121.553406,122.027084,60,78,0
122.07972,122.15867,61,80,0
122.18498,122.58233,49,69,0
122.18498,122.58233,52,69,0
122.18498,122.58233,61,81,0
122.97425,123.06791,49,66,0
123.06791,123.160484,51,61,0
123.160484,123.25148,49,66,0
123.25148,123.34138,51,61,0
123.34138,123.44863,49,61,0
123.44863,123.548386,48,66,0
123.548386,123.64609,49,60,0
123.64853,123.744896,51,66,0
123.744896,123.83968,52,61,0
123.83968,123.93282,54,66,0
123.93282,124.02468,56,61,0
124.02468,124.114365,57,66,0
124.11661,124.20629,56,60,0
124.20629,124.29598,54,59,0
124.29598,124.385666,52,60,0
124.385666,124.47535,51,62,0
122.97425,124.560555,45,66,0
124.47535,124.56504,49,63,0
124.56504,124.65694,48,65,0
124.65928,124.7532,49,66,0
124.7532,124.84918,51,68,0
124.84918,124.94722,52,70,0
124.94722,125.047646,51,72,0
125.047646,125.22793,49,74,0
125.233086,125.36074,49,88,0
125.233086,125.36074,44,88,0
126.57339,126.64251,68,65,0
126.66555,127.77081,59,61,0
126.66555,127.77081,63,61,0
126.66555,127.77081,68,72,0
127.82345,127.9024,73,70,0
127.92871,129.03397,61,60,0
127.92871,129.03397,64,60,0
127.92871,129.03397,73,71,0
129.08661,129.16556,71,69,0
129.19186,129.70616,59,59,0
129.19186,129.70616,63,59,0
129.19186,129.70616,71,70,0
129.76329,129.84901,69,68,0
129.87758,130.39186,61,60,0
129.87758,130.39186,64,60,0
129.87758,130.39186,69,71,0
130.449,130.5633,68,71,0
130.5633,131.02248,59,63,0
130.5633,131.02248,63,63,0
130.5633,131.02248,68,74,0
131.0735,131.15002,67,72,0
131.17554,131.64923,61,63,0
131.17554,131.64923,58,63,0
131.17554,131.64923,67,75,0
131.70186,131.7808,68,77,0
131.80711,132.20447,56,66,0
131.80711,132.20447,59,66,0
131.80711,132.20447,68,78,0
132.59657,132.69249,56,66,0
132.69249,132.7866,57,61,0
132.7866,132.87857,56,66,0
132.87857,132.96846,57,61,0
132.96846,133.06113,56,61,0
133.06113,133.16162,55,66,0
133.16162,133.26079,56,60,0
133.26326,133.36122,58,66,0
133.36122,133.45804,59,61,0
133.45804,133.55374,61,66,0
133.55374,133.64838,63,61,0
133.64838,133.74115,64,66,0
133.74345,133.83562,63,60,0
133.83562,133.92778,61,59,0
133.92778,134.01994,59,60,0
134.01994,134.11212,58,62,0
132.59657,134.19968,52,66,0
134.11212,134.20428,56,63,0
134.20428,134.2968,55,65,0
134.29913,134.39307,56,66,0
134.39307,134.48904,58,68,0
134.48904,134.58708,59,70,0
134.58708,134.68752,58,72,0
134.68752,134.8678,56,74,0
134.87294,135.00061,56,88,0
134.87294,135.00061,51,88,0
134.87294,135.00061,47,88,0
136.40486,136.48158,92,70,0
136.40486,136.48158,83,54,0
136.40486,136.48158,80,54,0
137.01868,137.0954,92,66,0
137.01868,137.0954,83,51,0
137.01868,137.0954,80,51,0
137.63249,138.48619,92,69,0
138.48619,138.58653,90,63,0
138.58653,138.68686,88,63,0
137.63249,138.68686,83,53,0
137.63249,138.68686,80,53,0
138.68686,138.75864,87,71,0
138.97394,139.03554,88,66,0
138.68686,139.22035,83,55,0
138.68686,139.22035,81,55,0
139.22035,139.75792,90,72,0
139.22035,139.75792,83,55,0
139.22035,139.75792,81,55,0
139.75792,140.57997,92,69,0
140.57997,140.68343,90,63,0
140.68343,140.78687,88,63,0
139.75792,140.78687,83,53,0
139.75792,140.78687,80,53,0
140.78687,140.85916,87,71,0
141.07602,141.14299,88,66,0
140.78687,141.34389,83,55,0
140.78687,141.34389,81,55,0
141.34389,141.86925,90,72,0
141.34389,141.86925,83,55,0
141.34389,141.86925,81,55,0
141.86925,142.68019,92,69,0
142.68019,142.78365,90,63,0
142.78365,142.88708,88,63,0
141.86925,142.88708,83,53,0
141.86925,142.88708,80,53,0
142.88708,142.95686,87,71,0
143.16615,143.23181,88,66,0
142.88708,143.42874,83,55,0
142.88708,143.42874,81,55,0
143.42874,143.95264,90,72,0
143.42874,143.95264,83,55,0
143.42874,143.95264,81,55,0
143.95264,144.49197,83,53,0
143.95264,144.49197,80,53,0
143.95264,144.7672,92,69,0
144.7672,144.89679,90,63,0
144.89679,145.02638,88,63,0
145.02638,145.13145,87,71,0
145.13145,145.23654,88,66,0
145.23654,145.35678,90,66,0
145.35678,145.47702,92,66,0
145.02638,145.47702,83,55,0
145.47702,145.54057,90,72,0
145.73125,145.79959,88,70,0
145.47702,146.00461,80,55,0
146.00461,146.06546,87,74,0
146.24802,146.31366,88,77,0
146.00461,146.51059,80,55,0
146.51059,146.90039,90,78,0
146.90039,147.03432,88,73,0
147.03432,147.14107,87,71,0
147.14107,147.24783,88,66,0
147.24783,147.3546,90,66,0
147.3546,147.46136,92,60,0
147.03432,147.46136,80,55,0
147.46136,147.52615,90,72,0
147.72054,147.78534,88,70,0
147.46136,147.97244,80,55,0
147.97244,148.036,87,74,0
148.22668,148.29501,88,77,0
147.97244,148.50003,80,55,0
148.50003,148.89946,90,78,0
148.89946,149.03804,88,73,0
149.03804,149.14366,87,71,0
149.14366,149.2493,88,66,0
149.2493,149.35493,90,66,0
149.35493,149.46057,92,66,0
149.03804,149.46057,80,55,0
149.46057,149.52798,90,72,0
149.73024,149.79765,88,70,0
149.46057,149.9999,80,55,0
149.9999,150.06554,87,74,0
150.26248,150.32812,85,69,0
149.9999,150.52505,80,55,0
150.52505,151.06477,84,69,0
151.06477,151.17041,87,71,0
151.17041,151.27605,88,66,0
151.27605,151.38168,90,66,0
151.38168,151.48732,92,66,0
151.06477,151.48732,80,55,0
151.48732,151.55383,90,72,0
151.75339,151.8199,88,70,0
151.48732,152.01947,81,55,0
151.48732,152.01947,85,55,0
152.01947,152.08875,87,74,0
152.2966,152.36589,88,77,0
152.01947,152.57373,85,55,0
152.01947,152.57373,81,55,0
152.57373,153.11673,90,81,0
152.57373,153.11673,85,62,0
152.57373,153.11673,81,62,0
153.11673,153.23415,88,71,0
153.23415,153.35156,87,63,0
153.35156,153.46898,85,63,0
153.46898,153.6201,88,63,0
153.11673,153.6201,80,60,0
153.6201,153.74034,87,72,0
153.74034,153.8606,85,64,0
153.8606,153.98083,84,64,0
153.98083,154.12415,87,63,0
153.6201,154.12415,80,61,0
154.12415,154.19173,85,54,0
154.19173,154.25778,87,49,0
154.25778,154.32216,85,54,0
154.32216,154.38614,87,49,0
154.38614,154.44978,85,54,0
154.44978,154.51233,87,49,0
154.51233,154.57465,85,54,0
154.57465,154.63785,87,46,0
154.12415,154.63785,80,60,0
154.63785,154.69948,85,53,0
154.69948,154.7608,87,48,0
154.7608,154.82303,85,53,0
154.82303,154.88579,87,47,0
154.88579,154.9708,85,53,0
154.9708,155.05908,87,46,0
155.05908,155.15636,85,52,0
155.16933,155.23431,84,48,0
155.23431,155.29982,85,49,0
155.29982,155.36566,86,51,0
155.36566,155.43204,87,53,0
155.43204,155.49895,88,55,0
155.49895,155.56621,89,56,0
155.56621,155.63405,90,58,0
155.63405,155.70308,91,60,0
155.9758,156.05254,83,48,0
155.9758,156.05254,80,48,0
155.68872,156.28271,92,70,0
156.55606,156.62941,83,50,0
156.55606,156.62941,80,48,0
156.28271,156.84946,92,66,0
157.12852,157.19829,83,54,0
157.12852,157.19829,80,54,0
156.84946,157.66678,92,69,0
157.66678,157.71988,83,51,0
157.66678,157.71988,80,51,0
157.66678,157.77296,90,63,0
157.77296,157.87917,88,63,0
157.87917,157.94992,87,71,0
158.16219,158.22697,88,66,0
158.16219,158.22697,83,54,0
158.16219,158.22697,81,51,0
158.68744,158.75531,83,54,0
158.68744,158.75531,81,51,0
158.42136,158.95894,90,72,0
159.238,159.30777,83,54,0
159.238,159.30777,80,54,0
158.95894,159.77794,92,69,0
159.77794,159.83076,83,51,0
159.77794,159.83076,80,51,0
159.77794,159.88358,90,63,0
159.88358,159.98921,88,63,0
159.98921,160.05708,87,71,0
160.2607,160.3255,88,66,0
160.2607,160.3255,83,54,0
160.2607,160.3255,81,51,0
160.78595,160.85384,83,54,0
160.78595,160.85384,81,51,0
160.51988,161.05745,90,72,0
161.33652,161.40628,83,54,0
161.33652,161.40628,80,54,0
161.05745,161.88167,92,69,0
161.88167,161.93774,83,51,0
161.88167,161.93774,80,51,0
161.88167,161.99382,90,63,0
161.99382,162.10596,88,63,0
162.10596,162.21875,87,71,0
162.21875,162.33153,88,66,0
162.33153,162.38956,80,54,0
162.33153,162.44759,90,66,0
162.44759,162.56363,92,66,0
162.56363,162.63016,90,72,0
162.82971,162.8902,88,70,0
162.82971,162.8902,80,54,0
163.06879,163.13002,87,74,0
163.31369,163.37976,88,77,0
163.31369,163.37976,80,51,0
163.84767,163.91003,80,51,0
163.578,163.97241,90,78,0
163.97241,164.09715,88,73,0
164.09715,164.20993,87,71,0
164.20993,164.32271,88,66,0
164.32271,164.3791,80,51,0
164.32271,164.4355,90,66,0
164.4355,164.54828,92,66,0
164.54828,164.61266,90,72,0
164.80579,164.87016,88,70,0
164.80579,164.87016,80,51,0
165.0633,165.12894,87,74,0
165.32588,165.39153,85,69,0
165.32588,165.39153,80,51,0
165.85104,165.92033,80,51,0
165.58846,166.12817,84,69,0
166.12817,166.2397,87,71,0
166.2397,166.35123,88,66,0
166.35123,166.40698,80,51,0
166.35123,166.46275,90,66,0
166.46275,166.57428,92,66,0
166.57428,166.6408,90,72,0
166.84035,166.9012,88,70,0
166.84035,166.9012,80,51,0
166.84035,166.9012,85,51,0
167.08376,167.15305,87,74,0
167.3609,167.43018,88,77,0
167.3609,167.43018,85,51,0
167.3609,167.43018,81,51,0
167.90953,167.9774,85,51,0
167.90953,167.9774,81,51,0
167.63803,168.18102,90,81,0
168.18102,168.29843,88,71,0
168.29843,168.41585,87,63,0
168.41585,168.47456,82,51,0
168.41585,168.47456,79,51,0
168.41585,168.53326,85,63,0
168.53326,168.6844,88,63,0
168.6844,168.80464,87,72,0
168.80464,168.92488,85,64,0
168.92488,168.985,80,51,0
168.92488,169.04512,84,64,0
169.04512,169.1865,87,63,0
169.1865,169.31224,85,65,0
169.31224,169.43625,80,56,0
169.43625,169.55861,92,64,0
169.55861,169.67947,80,57,0
169.67947,169.79877,85,71,0
169.79877,169.9165,80,63,0
169.9165,170.03276,92,71,0
170.03276,170.14641,80,63,0
170.14641,170.25365,85,72,0
170.25365,170.3602,80,62,0
170.3602,170.46619,92,71,0
170.46619,170.57162,80,63,0
170.57162,170.6767,85,74,0
170.6767,170.78178,80,64,0
170.78178,170.88686,92,72,0
170.88686,170.99214,80,66,0
170.99214,171.09778,85,78,0
171.09778,171.20341,80,66,0
171.20341,171.30925,92,73,0
171.30925,171.41545,80,62,0
171.41545,171.52164,85,71,0
171.52164,171.62839,80,60,0
171.62839,171.73514,92,65,0
171.73514,171.84222,80,58,0
171.84222,171.95056,85,67,0
171.95056,172.06009,80,57,0
172.06009,172.17094,92,63,0
172.17094,172.28319,80,53,0
172.28319,172.3967,85,61,0
172.3967,172.51164,80,51,0
172.51164,172.62805,92,56,0
172.62805,172.74596,80,45,0
172.85938,172.91609,83,54,0
172.74596,172.97281,92,70,0
172.97281,173.02647,95,54,0
173.08014,173.1338,83,54,0
173.299,173.35475,83,54,0
173.18747,173.41052,92,66,0
173.41052,173.46419,95,54,0
173.51785,173.57152,83,51,0
173.73671,173.79248,83,54,0
173.84824,173.90134,95,54,0
173.95444,174.00752,83,54,0
174.06062,174.11607,90,63,0
174.17154,174.22699,83,51,0
173.62518,174.28244,92,69,0
174.28244,174.33582,88,63,0
174.3892,174.44258,83,51,0
174.49596,174.5511,87,71,0
174.60626,174.6614,83,51,0
174.71655,174.77391,88,66,0
174.71655,174.77391,95,54,0
174.83127,174.89067,83,51,0
175.06111,175.11392,83,51,0
175.16673,175.22128,95,54,0
175.27583,175.33038,83,51,0
174.95547,175.38492,90,72,0
175.49644,175.55222,83,54,0
175.60797,175.66373,95,54,0
175.72421,175.77876,83,54,0
175.83331,175.8864,90,63,0
175.9395,175.9926,83,51,0
175.38492,176.0457,92,69,0
176.0457,176.10054,88,63,0
176.0457,176.10054,95,54,0
176.15538,176.21024,83,51,0
176.26508,176.32147,87,71,0
176.37785,176.43425,83,51,0
176.49065,176.54935,88,66,0
176.49065,176.54935,95,54,0
176.60806,176.66231,83,54,0
176.8287,176.88478,83,51,0
176.94086,176.9954,95,54,0
177.04994,177.10449,83,51,0
176.71655,177.15904,90,72,0
177.2658,177.31918,83,54,0
177.37256,177.42455,95,54,0
177.47655,177.52853,83,54,0
177.58054,177.63449,90,63,0
177.68845,177.7424,83,51,0
177.15904,177.79636,92,69,0
177.79636,177.85307,95,51,0
177.79636,177.85307,88,63,0
177.90977,177.96649,83,51,0
178.02321,178.13727,87,71,0
178.13727,178.25336,88,66,0
178.25336,178.3547,90,66,0
178.3547,178.45607,92,66,0
178.45607,178.5106,90,72,0
178.56516,178.6197,83,54,0
178.67424,178.7326,88,70,0
178.67424,178.7326,92,51,0
178.79097,178.84933,83,54,0
178.90771,178.96225,87,74,0
179.0168,179.07135,80,54,0
179.12589,179.18228,88,77,0
179.12589,179.18228,92,51,0
179.23868,179.29506,80,54,0
179.35146,179.4085,90,78,0
179.46552,179.52255,80,54,0
179.57959,179.63864,88,73,0
179.57959,179.63864,92,51,0
179.69771,179.75676,80,51,0
179.81581,179.91873,87,71,0
179.91873,180.02164,88,66,0
180.02164,180.12456,90,66,0
180.12456,180.22748,92,66,0
180.22748,180.28584,90,72,0
180.34421,180.40257,80,51,0
180.46094,180.51518,88,70,0
180.46094,180.51518,92,51,0
180.56944,180.6252,80,51,0
180.68095,180.73799,87,74,0
180.79503,180.85207,80,51,0
180.9091,180.96815,85,69,0
180.9091,180.96815,92,51,0
181.0272,181.08626,80,51,0
181.26343,181.32248,80,51,0
181.38155,181.43793,92,51,0
181.49432,181.5507,80,51,0
181.14532,181.6071,84,69,0
181.6071,181.71274,87,71,0
181.71274,181.81837,88,66,0
181.81837,181.92401,90,66,0
181.92401,182.02963,92,66,0
182.02963,182.088,90,72,0
182.14638,182.20474,80,51,0
182.2631,182.31918,88,70,0
182.2631,182.31918,92,51,0
182.37524,182.43132,80,51,0
182.4874,182.54716,87,74,0
182.60692,182.66669,80,51,0
182.72644,182.78621,85,69,0
182.72644,182.78621,92,51,0
182.84596,182.90573,80,51,0
183.08719,183.14804,80,51,0
183.2089,183.2737,92,51,0
183.33849,183.40327,80,51,0
182.96548,183.46808,84,69,0
183.46808,183.5815,88,71,0
183.5815,183.69492,87,63,0
183.69492,183.75163,92,51,0
183.69492,183.75163,80,51,0
183.69492,183.80833,85,63,0
183.80833,183.93628,88,63,0
183.93628,184.05034,87,72,0
184.05034,184.16441,85,64,0
184.16441,184.22144,80,51,0
184.16441,184.22144,92,51,0
184.16441,184.27847,84,64,0
184.27847,184.40259,87,63,0
184.40259,184.51219,85,65,0
184.51219,184.62128,80,56,0
184.62128,184.72978,92,64,0
184.72978,184.83781,80,57,0
184.83781,184.94534,85,67,0
184.94534,185.0524,80,58,0
185.0524,185.15898,92,65,0
185.15898,185.26509,80,59,0
185.26509,185.37073,85,72,0
185.37073,185.47581,80,62,0
185.47581,185.58044,92,71,0
185.58044,185.68463,80,63,0
185.68463,185.78835,85,74,0
185.78835,185.89163,80,64,0
185.89163,185.99446,92,72,0
185.99446,186.09677,80,66,0
186.09677,186.19864,92,78,0
186.19864,186.3005,85,66,0
186.3005,186.40237,97,73,0
186.40237,186.50424,85,62,0
186.50424,186.60611,92,71,0
186.60611,186.70798,85,60,0
186.70798,186.81728,97,65,0
186.81728,186.93178,85,58,0
186.93178,187.03365,92,67,0
187.03365,187.13551,85,57,0
187.13551,187.23738,97,63,0
187.23738,187.33925,85,53,0
187.33925,187.44112,92,61,0
187.44112,187.54298,85,51,0
187.54298,187.64485,97,56,0
187.64485,187.74672,85,45,0
187.74672,187.84859,92,67,0
187.84859,187.95045,85,55,0
187.95045,188.05249,97,60,0
188.05249,188.1553,85,49,0
188.1553,188.25919,92,56,0
188.25919,188.36407,85,45,0
188.36407,188.46997,97,49,0
188.46997,188.57663,85,38,0
188.57663,188.68329,92,56,0
188.68329,188.79108,85,46,0
188.79108,188.89996,97,50,0
188.89996,189.00993,85,41,0
189.00993,189.12112,92,46,0
189.12112,189.23347,85,37,0
189.23347,189.34698,97,40,0
189.34698,189.46179,85,36,0
189.46179,189.57864,92,46,0
189.57864,189.69804,85,39,0
189.69804,189.81914,97,44,0
189.81914,189.94221,85,37,0
189.94221,190.07018,92,42,0
190.07018,190.20505,85,35,0
190.20505,190.34761,97,39,0
190.34761,190.49956,85,31,0
190.49956,190.68417,92,39,0
190.68417,190.86879,85,31,0
190.86879,191.23802,97,31,0
192.95226,193.12617,73,47,0
193.21313,193.47862,73,57,0
193.47862,193.65038,85,50,0
193.70763,193.93663,85,58,0
193.93663,194.1158,83,51,0
194.18045,194.40945,83,56,0
194.40945,194.5812,81,45,0
194.63846,194.86748,81,49,0
194.86748,195.12279,80,45,0
195.12279,195.3628,83,56,0
195.60278,195.84279,81,48,0
196.09915,197.03665,80,56,0
197.03665,197.30214,83,60,0
197.03665,197.30214,73,60,0
197.30214,197.49745,81,45,0
197.53651,197.59312,81,55,0
197.59312,197.64972,83,55,0
197.64972,197.88011,81,60,0
197.76292,197.95824,80,45,0
197.9973,198.05391,80,55,0
198.05391,198.11052,81,55,0
198.11052,198.22372,80,61,0
198.22372,198.41599,78,45,0
198.4555,198.5148,78,52,0
198.5148,198.57408,80,52,0
198.57408,198.69266,78,58,0
198.69266,198.94798,77,45,0
198.94798,199.18797,80,58,0
199.42798,199.66798,77,49,0
199.39798,199.66798,73,43,0
199.36798,199.66798,68,39,0
199.9266,200.92776,73,53,0
200.78389,200.92776,73,47,0
200.99971,201.2652,73,57,0
201.2652,201.43695,85,50,0
201.4942,201.72322,85,58,0
201.72322,201.90237,83,51,0
201.96703,202.19604,83,56,0
202.19604,202.3678,81,45,0
202.42505,202.65405,81,49,0
202.65405,202.90938,80,45,0
202.90938,203.14937,83,56,0
203.38937,203.62938,81,48,0
204.70605,204.76465,81,52,0
204.76465,204.82324,83,52,0
203.88574,204.82324,80,56,0
204.82324,205.08873,81,60,0
205.08873,205.26451,80,45,0
205.3231,205.54951,78,60,0
205.6667,205.7253,80,53,0
205.54951,205.7253,81,45,0
205.7253,205.78389,81,53,0
205.3231,205.78389,73,49,0
205.78389,206.0103,80,61,0
206.0103,206.24208,78,45,0
206.24208,206.47925,77,58,0
206.47925,206.73456,80,45,0
206.24208,206.73456,73,49,0
206.73456,207.18484,78,58,0
207.11475,207.18484,78,43,0
207.18484,207.25493,80,44,0
207.25493,207.64607,78,49,0
207.64607,207.78825,77,49,0
207.25493,208.26257,73,49,0
208.6183,208.7922,85,54,0
208.6183,208.7922,73,39,0
207.78825,208.87917,78,53,0
208.87917,209.14465,73,51,0
208.87917,209.14465,85,61,0
209.14465,209.3164,85,44,0
209.14465,209.3164,97,52,0
209.37366,209.60268,97,61,0
209.37366,209.60268,85,51,0
209.60268,209.78183,83,45,0
209.60268,209.78183,95,53,0
209.84648,210.07549,83,51,0
209.84648,210.07549,95,61,0
210.07549,210.24725,93,53,0
210.07549,210.24725,81,45,0
210.3045,210.53351,93,60,0
210.3045,210.53351,81,51,0
210.53351,210.78883,92,55,0
210.53351,210.78883,80,46,0
210.78883,211.02882,83,58,0
210.78883,211.02882,95,69,0
211.26883,211.50882,93,60,0
211.23883,211.50882,85,49,0
211.20883,211.50882,81,47,0
211.7652,212.7027,92,66,0
211.7311,212.7027,85,54,0
211.697,212.7027,80,51,0
212.7027,212.96817,83,58,0
212.7027,212.96817,95,69,0
212.96817,213.14395,93,55,0
212.96817,213.14395,81,46,0
213.20255,213.37236,93,67,0
213.20255,213.37236,81,56,0
213.60475,213.66335,93,57,0
213.42897,213.66335,92,55,0
213.42897,213.66335,80,52,0
213.66335,213.77655,80,56,0
213.66335,213.83316,92,66,0
213.88976,214.06226,78,42,0
213.88976,214.06226,90,50,0
214.12154,214.3587,78,53,0
214.12154,214.3587,90,63,0
214.3587,214.61401,77,39,0
214.3587,214.61401,89,47,0
214.61401,214.85402,80,53,0
214.61401,214.85402,92,63,0
215.09401,215.33401,89,59,0
215.00401,215.33401,77,46,0
215.03401,215.33401,80,50,0
215.06401,215.33401,85,52,0
215.59264,216.44992,85,53,0
215.49565,216.44992,73,42,0
215.52798,216.44992,77,44,0
215.5603,216.44992,80,46,0
216.44992,216.59381,85,54,0
216.44992,216.59381,73,47,0
216.66576,216.93124,73,57,0
216.66576,216.93124,85,65,0
216.93124,217.103,97,57,0
216.93124,217.103,85,50,0
217.16025,217.38925,97,66,0
217.16025,217.38925,85,58,0
217.38925,217.5684,83,51,0
217.38925,217.5684,95,58,0
217.63307,217.86208,83,56,0
217.63307,217.86208,95,64,0
217.86208,218.03383,81,45,0
217.86208,218.03383,93,51,0
218.09108,218.32008,93,56,0
218.09108,218.32008,81,49,0
218.32008,218.57541,80,45,0
218.32008,218.57541,92,51,0
218.57541,218.81541,95,64,0
218.57541,218.81541,83,56,0
219.0554,219.29541,93,49,0
219.0254,219.29541,85,48,0
218.9954,219.29541,81,48,0
219.55177,220.48927,92,57,0
219.51768,220.48927,85,50,0
219.4836,220.48927,80,50,0
220.48927,220.76578,81,45,0
220.48927,220.76578,93,51,0
220.76578,220.89343,80,33,0
220.76578,220.95726,92,38,0
221.02109,221.264,78,45,0
221.02109,221.264,90,51,0
221.264,221.48235,93,38,0
221.264,221.52602,81,33,0
221.02109,221.52602,85,36,0
221.52602,221.76602,92,52,0
221.52602,221.76602,80,45,0
221.76602,222.01367,90,38,0
221.76602,222.01367,78,33,0
222.01367,222.269,77,43,0
222.01367,222.269,89,49,0
222.269,222.50938,92,38,0
222.269,222.55745,80,33,0
222.01367,222.55745,85,36,0
222.55745,223.0681,90,49,0
222.55745,223.0681,78,43,0
223.0681,223.48933,78,36,0
223.0681,223.48933,90,42,0
223.48933,223.63785,89,42,0
223.48933,223.63785,77,36,0
223.0681,223.63785,85,36,0
223.63785,224.57788,78,39,0
223.63785,224.57788,90,45,0
223.63785,224.57788,85,39,0
224.57788,224.67186,52,42,0
224.57788,224.67186,56,51,0
224.67186,224.76503,61,42,0
224.76503,224.85753,56,45,0
224.76503,224.85753,52,38,0
224.85753,224.94913,61,43,0
224.94913,225.04015,52,38,0
224.94913,225.04015,56,45,0
225.04015,225.1303,61,43,0
225.1303,225.21986,56,45,0
225.1303,225.21986,52,38,0
225.21986,225.30861,61,42,0
225.30861,225.39685,52,42,0
225.30861,225.39685,56,49,0
225.39685,225.48508,61,42,0
225.48508,225.57332,56,45,0
225.48508,225.57332,52,38,0
225.57332,225.66156,61,41,0
225.66156,225.74979,56,45,0
225.66156,225.74979,52,38,0
225.74979,225.83803,61,41,0
225.83803,225.93971,52,38,0
225.83803,225.93971,56,45,0
225.93971,226.04141,61,40,0
226.04141,226.13043,57,48,0
226.04141,226.13043,54,41,0
226.13043,226.21945,66,42,0
226.21945,226.30847,54,38,0
226.21945,226.30847,57,45,0
226.30847,226.39749,66,42,0
226.39749,226.48651,57,46,0
226.39749,226.48651,54,39,0
226.48651,226.57553,66,41,0
226.57553,226.66457,57,45,0
226.57553,226.66457,54,38,0
226.66457,226.75359,66,42,0
226.75359,226.8426,54,38,0
226.75359,226.8426,57,45,0
226.8426,226.93163,66,42,0
226.93163,227.02065,57,45,0
226.93163,227.02065,54,38,0
227.02065,227.10966,66,42,0
227.10966,227.19868,54,38,0
227.10966,227.19868,57,45,0
227.19868,227.2877,66,41,0
227.2877,227.39719,57,45,0
227.2877,227.39719,54,38,0
227.39719,227.50668,66,42,0
227.50668,227.5957,56,51,0
227.50668,227.5957,52,42,0
227.5957,227.68472,64,42,0
227.68472,227.77374,52,38,0
227.68472,227.77374,56,45,0
227.77374,227.86276,64,44,0
227.86276,227.95178,56,46,0
227.86276,227.95178,52,39,0
227.95178,228.0408,64,45,0
228.0408,228.12982,56,48,0
228.0408,228.12982,52,40,0
228.12982,228.21884,64,45,0
228.21884,228.30786,54,55,0
228.21884,228.30786,50,46,0
228.30786,228.3969,62,46,0
228.3969,228.48592,54,49,0
228.3969,228.48592,50,42,0
228.48592,228.57494,62,48,0
228.57494,228.66396,50,43,0
228.57494,228.66396,54,51,0
228.66396,228.75298,62,49,0
228.75298,228.85571,54,51,0
228.75298,228.85571,50,43,0
228.85571,228.95845,62,49,0
228.95845,229.04828,49,50,0
228.95845,229.04828,52,59,0
229.04828,229.13809,61,50,0
229.13809,229.2279,49,45,0
229.13809,229.2279,52,54,0
229.2279,229.31773,61,52,0
229.31773,229.40755,52,54,0
229.31773,229.40755,49,46,0
229.40755,229.49738,61,53,0
229.49738,229.58719,49,47,0
229.49738,229.58719,52,55,0
229.58719,229.67702,61,53,0
229.67702,229.76683,54,62,0
229.67702,229.76683,51,53,0
229.76683,229.85666,60,54,0
229.85666,229.94647,51,48,0
229.85666,229.94647,54,57,0
229.94647,230.0363,60,56,0
230.0363,230.12611,51,49,0
230.0363,230.12611,54,58,0
230.12611,230.21594,60,57,0
230.21594,230.32788,54,60,0
230.21594,230.32788,51,51,0
230.32788,230.43982,60,57,0
230.43982,230.61946,52,75,0
230.43982,230.61946,49,75,0
230.43982,230.61946,61,92,0
231.15826,231.2369,57,78,0
231.15826,231.2369,61,78,0
231.2369,231.31606,66,67,0
231.31606,231.3956,69,69,0
231.3956,231.47566,73,71,0
231.47415,231.5548,78,73,0
231.5548,231.63586,81,75,0
231.63586,231.71739,85,77,0
231.71739,231.80011,90,79,0
231.79819,231.91016,93,81,0
231.91016,232.15605,97,96,0
231.91016,232.15605,85,92,0
231.91016,232.15605,92,92,0
233.87737,233.97134,59,42,0
233.87737,233.97134,63,51,0
233.97134,234.06451,68,42,0
234.06451,234.15701,63,45,0
234.06451,234.15701,59,38,0
234.15701,234.24861,68,43,0
234.24861,234.33963,63,45,0
234.24861,234.33963,59,38,0
234.33963,234.42978,68,43,0
234.42978,234.51935,63,45,0
234.42978,234.51935,59,38,0
234.51935,234.6081,68,42,0
234.6081,234.69633,63,49,0
234.6081,234.69633,59,42,0
234.69633,234.78456,68,42,0
234.78456,234.8728,59,38,0
234.78456,234.8728,63,45,0
234.8728,234.96104,68,41,0
234.96104,235.04927,63,45,0
234.96104,235.04927,59,38,0
235.04927,235.13751,68,41,0
235.13751,235.2392,59,38,0
235.13751,235.2392,63,45,0
235.2392,235.3409,68,40,0
235.3409,235.42992,61,41,0
235.3409,235.42992,64,48,0
235.42992,235.51894,73,42,0
235.51894,235.60796,64,45,0
235.51894,235.60796,61,38,0
235.60796,235.69698,73,42,0
235.69698,235.786,61,39,0
235.69698,235.786,64,46,0
235.786,235.87502,73,41,0
235.87502,235.96405,64,45,0
235.87502,235.96405,61,38,0
235.96405,236.05307,73,42,0
236.05307,236.14209,61,38,0
236.05307,236.14209,64,45,0
236.14209,236.23111,73,42,0
236.23111,236.32013,61,38,0
236.23111,236.32013,64,45,0
236.32013,236.40915,73,42,0
236.40915,236.49817,64,45,0
236.40915,236.49817,61,38,0
236.49817,236.58719,73,41,0
236.58719,236.69667,61,38,0
236.58719,236.69667,64,45,0
236.69667,236.80617,73,42,0
236.80617,236.89519,63,51,0
236.80617,236.89519,59,42,0
236.89519,236.9842,71,42,0
236.9842,237.07323,59,38,0
236.9842,237.07323,63,45,0
237.07323,237.16225,71,44,0
237.16225,237.25127,59,39,0
237.16225,237.25127,63,46,0
237.25127,237.34029,71,45,0
237.34029,237.4293,63,48,0
237.34029,237.4293,59,40,0
237.4293,237.51833,71,45,0
237.51833,237.60736,57,46,0
237.51833,237.60736,61,55,0
237.60736,237.69638,69,46,0
237.69638,237.7854,61,49,0
237.69638,237.7854,57,42,0
237.7854,237.87442,69,48,0
237.87442,237.96344,61,51,0
237.87442,237.96344,57,43,0
237.96344,238.05246,69,49,0
238.05246,238.1552,61,51,0
238.05246,238.1552,57,43,0
238.1552,238.25793,69,49,0
238.25793,238.34776,59,59,0
238.25793,238.34776,56,50,0
238.34776,238.43758,68,50,0
238.43758,238.5274,59,54,0
238.43758,238.5274,56,45,0
238.5274,238.61722,68,52,0
238.61722,238.70703,56,46,0
238.61722,238.70703,59,54,0
238.70703,238.79686,68,53,0
238.79686,238.88667,59,55,0
238.79686,238.88667,56,47,0
238.88667,238.9765,68,53,0
238.9765,239.06631,58,53,0
238.9765,239.06631,61,62,0
239.06631,239.15614,67,54,0
239.15614,239.24596,61,57,0
239.15614,239.24596,58,48,0
239.24596,239.33578,67,56,0
239.33578,239.4256,61,58,0
239.33578,239.4256,58,49,0
239.4256,239.51543,67,57,0
239.51543,239.62737,58,51,0
239.51543,239.62737,61,60,0
239.62737,239.7393,67,57,0
239.7393,239.91895,59,75,0
239.7393,239.91895,68,92,0
239.7393,239.91895,56,75,0
240.45775,240.53638,68,78,0
240.45775,240.53638,64,78,0
240.53638,240.61554,73,67,0
240.61554,240.69508,76,69,0
240.69508,240.77515,80,71,0
240.77364,240.85428,85,73,0
240.85428,240.93535,88,75,0
240.93535,241.01688,92,77,0
241.01688,241.0996,97,79,0
241.09767,241.20964,100,81,0
241.20964,241.45554,99,92,0
241.20964,241.45554,104,96,0
241.20964,241.45554,92,92,0
243.17685,244.63525,68,83,0
243.17685,244.63525,80,99,0
244.63525,244.74127,69,64,0
244.63525,244.74127,81,77,0
244.74127,244.84727,71,64,0
244.74127,244.84727,83,77,0
244.84727,246.1001,76,92,0
244.84727,246.1001,64,78,0
246.31908,246.56497,75,77,0
246.31908,246.56497,63,64,0
246.56497,247.51497,78,88,0
246.56497,247.51497,66,72,0
247.51497,247.66211,76,77,0
247.51497,247.66211,64,64,0
247.66211,247.80197,78,83,0
247.66211,247.80197,66,70,0
247.80197,247.94797,68,69,0
247.80197,247.94797,80,82,0
247.94797,248.05629,66,66,0
247.94797,248.05629,78,78,0
248.19066,248.2862,76,78,0
248.19066,248.2862,64,66,0
248.31804,249.5509,76,92,0
248.31804,249.5509,64,77,0
249.76988,249.93411,80,83,0
249.76988,249.93411,76,70,0
249.76988,249.93411,68,70,0
249.98886,250.77904,68,78,0
249.98886,250.77904,76,78,0
249.98886,250.77904,80,92,0
250.77904,251.05585,80,80,0
250.77904,251.05585,68,68,0
251.05585,251.32162,69,69,0
251.05585,251.32162,81,82,0
251.32162,251.57722,71,74,0
251.32162,251.57722,83,88,0
251.57722,252.32957,85,92,0
251.57722,252.32957,73,66,0
252.32957,252.62154,73,90,0
252.32957,252.62154,64,75,0
252.32957,252.62154,61,75,0
252.62154,252.90422,64,71,0
252.62154,252.90422,59,71,0
252.62154,252.90422,71,84,0
252.90422,253.17542,58,67,0
252.90422,253.17542,70,79,0
252.90422,253.17542,64,67,0
253.17542,254.02347,71,92,0
253.17542,254.02347,64,78,0
253.17542,254.02347,59,78,0
254.02347,254.65952,52,77,0
254.02347,254.65952,64,77,0
254.65952,254.8718,51,77,0
254.65952,254.8718,63,77,0
254.02347,254.8718,56,77,0
254.8718,255.87083,57,72,0
254.8718,255.87083,63,88,0
254.8718,255.87083,51,72,0
255.85594,256.01627,64,77,0
255.85594,256.01627,52,64,0
256.01627,256.16895,66,83,0
256.01627,256.16895,54,70,0
256.16895,256.3216,56,69,0
256.16895,256.3216,68,82,0
256.3216,256.4361,54,66,0
256.3216,256.4361,66,78,0
256.57614,256.70352,64,78,0
256.57614,256.70352,52,66,0
256.7169,256.8613,52,71,0
256.7169,256.8613,64,71,0
256.8613,257.00497,56,72,0
257.00497,257.14783,59,73,0
257.14783,257.28918,64,74,0
257.28918,257.4298,68,75,0
257.4298,257.56903,71,75,0
257.56903,257.70776,76,77,0
257.70776,257.8477,80,78,0
257.8477,257.98904,83,79,0
257.98904,258.13165,88,80,0
258.13165,258.27548,92,81,0
258.27548,258.42154,95,82,0
258.42154,258.64294,100,93,0
258.42154,258.64294,88,93,0
258.42154,258.64294,92,93,0
260.21725,261.67053,85,86,0
260.21725,261.67053,80,86,0
260.21725,261.67053,88,103,0
260.21725,261.67053,76,86,0
261.67053,261.77655,78,67,0
261.67053,261.77655,90,80,0
261.77655,261.88254,92,80,0
261.77655,261.88254,80,67,0
261.88254,263.35242,73,81,0
261.88254,263.35242,85,96,0
263.35242,263.59833,72,67,0
263.35242,263.59833,84,80,0
263.59833,264.55017,87,92,0
263.59833,264.55017,75,75,0
264.55017,264.69733,85,80,0
264.55017,264.69733,73,67,0
264.69733,264.8372,87,86,0
264.69733,264.8372,75,73,0
264.8372,264.98315,76,72,0
264.8372,264.98315,88,85,0
264.98315,265.0915,75,69,0
264.98315,265.0915,87,81,0
265.22586,265.32138,85,81,0
265.22586,265.32138,73,69,0
265.35324,266.61624,85,96,0
265.35324,266.61624,73,80,0
268.5598,268.64728,81,68,0
268.5598,268.64728,73,68,0
268.5598,268.64728,85,80,0
268.64728,268.9242,73,74,0
268.64728,268.9242,85,89,0
268.64728,268.9242,81,74,0
268.9242,269.0165,83,79,0
268.9242,269.0165,80,67,0
268.9242,269.0165,71,67,0
269.0165,269.31183,71,73,0
269.0165,269.31183,83,86,0
269.0165,269.31183,80,73,0
269.31183,269.42252,78,67,0
269.31183,269.42252,69,67,0
269.31183,269.42252,81,79,0
269.42252,269.86533,78,73,0
269.42252,269.86533,69,73,0
269.42252,269.86533,81,86,0
270.19742,270.32037,61,82,0
270.32037,271.53665,62,92,0
271.79904,271.86465,90,80,0
271.79904,271.86465,81,68,0
271.79904,271.86465,78,68,0
271.8865,272.16342,78,74,0
271.8865,272.16342,81,74,0
271.8865,272.16342,90,89,0
272.16342,272.23267,80,67,0
272.16342,272.23267,88,79,0
272.16342,272.23267,76,67,0
272.25574,272.55106,80,73,0
272.25574,272.55106,88,86,0
272.25574,272.55106,76,73,0
272.55106,272.6341,86,79,0
272.55106,272.6341,74,67,0
272.55106,272.6341,78,67,0
272.66177,273.10455,86,86,0
272.66177,273.10455,78,73,0
272.66177,273.10455,74,73,0
273.43668,273.55963,58,82,0
274.29388,274.36066,85,68,0
274.29388,274.36066,93,80,0
274.29388,274.36066,90,68,0
273.55963,274.3829,59,92,0
274.3829,274.6453,90,74,0
274.3829,274.6453,85,74,0
274.3829,274.6453,93,89,0
274.6453,274.7109,88,67,0
274.6453,274.7109,80,67,0
274.6453,274.7109,92,79,0
274.73276,274.99515,80,73,0
274.73276,274.99515,92,86,0
274.73276,274.99515,88,73,0
274.99515,275.2207,90,79,0
274.99515,275.2207,87,67,0
274.99515,275.2207,78,67,0
275.93988,276.00665,85,68,0
275.93988,276.00665,93,80,0
275.93988,276.00665,90,68,0
275.2207,276.0289,60,92,0
276.0289,276.2913,90,74,0
276.0289,276.2913,85,74,0
276.0289,276.2913,93,89,0
276.2913,276.3569,80,67,0
276.2913,276.3569,92,79,0
276.2913,276.3569,88,67,0
276.37875,276.64114,92,86,0
276.37875,276.64114,88,73,0
276.37875,276.64114,80,73,0
276.64114,276.85242,87,67,0
276.64114,276.85242,78,67,0
276.64114,276.85242,90,79,0
277.5716,277.66382,91,57,0
277.5716,277.66382,100,80,0
277.5716,277.66382,88,57,0
276.85242,277.69193,55,101,0
277.69193,277.98105,91,74,0
277.69193,277.98105,88,74,0
277.69193,277.98105,100,89,0
277.98105,278.0527,87,56,0
277.98105,278.0527,99,79,0
277.98105,278.0527,90,56,0
278.07645,278.35974,99,89,0
278.07645,278.35974,90,74,0
278.07645,278.35974,87,74,0
278.35974,278.4297,85,70,0
278.35974,278.4297,88,70,0
278.35974,278.4297,97,83,0
278.453,278.72647,88,75,0
278.453,278.72647,85,75,0
278.453,278.72647,97,90,0
278.72647,278.7941,85,67,0
278.72647,278.7941,82,67,0
278.72647,278.7941,94,79,0
278.81653,279.08392,94,88,0
278.81653,279.08392,85,74,0
278.81653,279.08392,82,74,0
279.08392,279.14908,93,79,0
279.08392,279.14908,81,67,0
279.08392,279.14908,84,67,0
279.17056,279.42236,93,88,0
279.17056,279.42236,84,74,0
279.17056,279.42236,81,74,0
279.42236,279.4837,79,67,0
279.42236,279.4837,91,79,0
279.42236,279.4837,82,67,0
279.50397,279.7424,82,73,0
279.50397,279.7424,79,73,0
279.50397,279.7424,91,86,0
279.7424,279.80057,76,68,0
279.7424,279.80057,79,68,0
279.7424,279.80057,88,81,0
279.8197,280.04523,76,74,0
279.8197,280.04523,88,88,0
279.8197,280.04523,79,74,0
280.04523,280.101,87,80,0
280.04523,280.101,78,68,0
280.04523,280.101,75,68,0
280.11948,280.33948,75,74,0
280.11948,280.33948,87,88,0
280.11948,280.33948,78,74,0
280.33948,280.39386,76,56,0
280.33948,280.39386,73,56,0
280.33948,280.39386,85,79,0
280.41193,280.6274,76,74,0
280.41193,280.6274,73,74,0
280.41193,280.6274,85,88,0
280.6274,280.68124,70,68,0
280.6274,280.68124,82,81,0
280.6274,280.68124,73,68,0
280.6992,280.9145,82,90,0
280.6992,280.9145,73,75,0
280.6992,280.9145,70,75,0
280.9145,280.96832,69,68,0
280.9145,280.96832,81,81,0
280.9145,280.96832,72,68,0
280.98627,281.2007,72,74,0
280.98627,281.2007,69,74,0
280.98627,281.2007,81,89,0
281.2007,281.2548,70,67,0
281.2007,281.2548,67,67,0
281.2007,281.2548,79,79,0
281.27286,281.49115,67,74,0
281.27286,281.49115,79,88,0
281.27286,281.49115,70,74,0
281.49115,281.54623,76,80,0
281.49115,281.54623,64,68,0
281.49115,281.54623,67,68,0
281.56488,281.78894,64,74,0
281.56488,281.78894,76,88,0
281.56488,281.78894,67,74,0
281.78894,281.84518,66,56,0
281.78894,281.84518,63,56,0
281.78894,281.84518,75,79,0
281.86392,282.09085,63,80,0
281.86392,282.09085,66,80,0
281.86392,282.09085,75,94,0
282.09085,282.14798,73,79,0
282.09085,282.14798,64,56,0
282.09085,282.14798,61,56,0
282.167,282.41223,73,96,0
282.167,282.41223,64,81,0
282.167,282.41223,61,81,0
283.98163,284.07394,58,70,0
283.98163,284.07394,52,70,0
283.98163,284.07394,64,83,0
284.07394,284.2361,56,79,0
284.07394,284.2361,64,93,0
284.07394,284.2361,52,79,0
284.56042,284.74008,51,71,0
284.56042,284.74008,56,71,0
284.56042,284.74008,63,84,0
284.74008,284.90094,51,79,0
284.74008,284.90094,63,93,0
284.74008,284.90094,56,79,0
285.22266,285.3931,61,85,0
285.22266,285.3931,56,72,0
285.22266,285.3931,49,72,0
285.3931,286.10526,60,81,0
285.3931,286.10526,56,81,0
285.3931,286.10526,68,96,0
286.10526,286.6394,56,77,0
286.10526,286.6394,60,91,0
286.10526,286.6394,48,77,0
286.81744,287.28427,76,83,0
287.28427,287.34415,75,75,0
287.37408,287.426,75,67,0
287.426,287.4779,76,72,0
286.80258,287.4779,68,62,0
286.78775,287.4779,64,62,0
287.4779,287.63876,75,80,0
287.79962,287.88004,73,77,0
287.4779,288.15054,64,61,0
287.4779,288.15054,68,61,0
288.17242,288.85025,80,82,0
288.15784,288.85025,72,67,0
288.141,288.85025,66,63,0
288.85025,289.2001,72,77,0
289.54996,290.0168,88,76,0
290.0168,290.11084,87,69,0
290.11084,290.14816,85,63,0
290.14816,290.1855,87,59,0
290.1855,290.22278,88,63,0
289.54996,290.22278,80,54,0
289.54996,290.22278,76,54,0
290.22278,290.38364,87,73,0
290.5445,290.70535,85,66,0
290.22278,290.89926,80,51,0
290.22278,290.89926,76,51,0
290.89926,291.22098,75,54,0
290.89926,291.22098,87,75,0
290.89926,291.22098,80,54,0
291.38184,291.5427,80,63,0
291.5427,291.8644,80,54,0
291.5427,291.8644,92,75,0
292.02527,292.19885,80,68,0
292.19885,292.66776,88,76,0
292.66776,292.75922,87,69,0
292.75922,292.8002,85,59,0
292.8002,292.8412,87,59,0
292.8412,292.88217,88,63,0
292.19885,292.88217,76,54,0
292.19885,292.88217,80,54,0
292.88217,293.04434,87,73,0
293.2065,293.36865,85,66,0
292.88217,293.56833,80,51,0
292.88217,293.56833,76,51,0
293.56833,293.89264,80,54,0
293.56833,293.89264,87,75,0
293.56833,293.89264,75,54,0
294.04874,294.19873,80,63,0
294.19873,294.52045,92,75,0
294.6813,294.8424,80,64,0
294.8424,295.0045,87,68,0
295.0045,295.1652,80,61,0
295.1652,295.32477,92,66,0
295.32477,295.483,80,60,0
295.483,295.63998,87,65,0
295.63998,295.79584,80,57,0
295.79584,295.9505,92,63,0
295.9505,296.10443,80,57,0
296.10443,296.2076,87,62,0
296.2076,296.31027,80,57,0
296.31027,296.41238,92,61,0
296.41238,296.51514,80,56,0
296.5139,296.61487,87,59,0
296.61487,296.71533,80,53,0
296.71533,296.81522,92,58,0
296.81522,296.91458,80,50,0
296.91458,297.0135,87,57,0
297.0135,297.1118,80,48,0
297.1118,297.20963,92,59,0
297.20963,297.3069,80,50,0
297.3069,297.38885,87,57,0
297.38885,297.4715,80,51,0
297.4715,297.55408,92,57,0
297.55408,297.63647,80,51,0
297.63647,297.7189,87,55,0
297.7189,297.80075,80,51,0
297.80075,297.8825,92,54,0
297.8825,297.96408,80,49,0
297.96408,298.04514,87,53,0
298.04514,298.12622,80,47,0
298.12622,298.20685,92,52,0
298.20685,298.28726,80,47,0
298.28726,298.3676,87,51,0
298.3676,298.4474,80,47,0
298.4474,298.5272,92,50,0
298.5272,298.6066,80,45,0
298.6066,298.68576,87,48,0
298.68576,298.76492,80,43,0
298.76492,298.84363,92,47,0
298.84363,298.92215,80,43,0
298.92215,299.0006,87,46,0
299.0006,299.07852,80,42,0
299.07852,299.15643,92,45,0
299.15643,299.234,80,40,0
299.234,299.31134,87,44,0
299.31134,299.38864,80,39,0
299.38864,299.46536,92,43,0
299.46536,299.54208,80,39,0
299.54208,299.61853,87,42,0
299.61853,299.69467,80,38,0
299.69467,299.7708,92,40,0
299.7708,299.84644,80,35,0
303.1807,303.81046,89,58,0
303.81046,304.02164,87,53,0
304.02164,304.65878,90,57,0
304.65878,304.87357,84,52,0
304.87357,305.27365,87,59,0
305.27365,305.70346,85,52,0
306.336,306.43668,91,49,0
306.4031,306.4702,92,52,0
306.4702,306.53732,93,54,0
307.40112,308.24963,92,60,0
308.24963,308.4532,90,56,0
308.65753,309.4798,90,60,0
309.60428,309.69763,93,54,0
309.69763,309.79102,94,56,0
309.79102,309.88437,95,58,0
309.88437,309.97543,96,60,0
310.85257,311.513,96,64,0
311.513,311.77502,94,55,0
311.77502,312.66757,92,65,0
313.12256,313.22504,96,45,0
313.22504,313.32446,97,48,0
313.32446,313.423,98,51,0
313.423,313.51025,101,54,0
313.51025,313.59583,99,48,0
313.59583,313.68307,97,47,0
313.68307,313.77032,96,46,0
313.77032,313.85593,94,45,0
313.85593,313.94406,92,45,0
313.94406,314.03052,90,44,0
314.03052,314.11865,89,43,0
314.11865,314.2068,87,42,0
314.2068,314.2932,85,42,0
314.2932,314.3806,84,41,0
314.3806,314.4662,82,40,0
314.4662,314.55344,80,39,0
314.55344,314.6407,78,39,0
314.6407,314.72626,77,38,0
314.72626,314.813,75,37,0
314.813,314.8977,73,36,0
314.8977,314.9841,72,36,0
314.9841,315.07047,70,35,0
315.07047,315.15518,68,34,0
315.15518,315.24155,66,33,0
315.24155,315.32562,65,33,0
315.32562,315.41116,63,32,0
315.41116,315.49667,61,31,0
315.49667,315.58057,60,30,0
317.3938,317.49734,68,42,0
317.49734,317.60114,73,44,0
317.60114,317.70496,77,46,0
317.70496,317.80875,80,48,0
317.96448,318.22397,97,54,0
317.80875,318.22397,85,48,0
317.86066,318.22397,89,50,0
317.91257,318.22397,92,52,0
319.61853,319.76743,68,50,0
320.08658,320.1599,68,40,0
320.08658,320.1599,65,40,0
319.76743,320.23328,77,58,0
320.23328,320.39285,75,53,0
320.68625,320.7624,68,40,0
320.68625,320.7624,66,40,0
320.39285,320.7624,78,57,0
320.83853,320.91467,72,52,0
320.91467,320.9908,75,59,0
320.9908,321.06998,73,59,0
321.30743,321.38187,68,40,0
321.30743,321.38187,65,40,0
321.30743,321.91934,73,52,0
321.91934,321.99664,68,40,0
321.91934,321.99664,65,40,0
321.91934,322.2286,73,50,0
322.2286,322.30594,82,59,0
322.5379,322.6152,66,40,0
322.5379,322.6152,70,40,0
322.5379,322.69254,82,55,0
323.1715,323.2526,68,40,0
323.1715,323.2526,70,40,0
322.84717,323.49582,80,60,0
323.49582,323.57196,78,56,0
323.80038,323.88147,66,40,0
323.80038,323.88147,70,40,0
323.80038,324.44904,78,60,0
324.44904,324.54135,70,40,0
324.44904,324.54135,66,40,0
324.44904,324.81827,78,53,0
324.81827,324.9932,85,61,0
325.16812,325.5408,82,60,0
325.16812,325.5408,73,40,0
325.16812,325.5408,85,60,0
325.5408,326.1148,72,40,0
325.5408,326.1148,84,64,0
325.5408,326.1148,80,64,0
326.1148,326.255,78,55,0
326.1148,326.255,70,40,0
326.1148,326.255,82,55,0
326.255,326.34903,82,52,0
326.255,326.34903,78,52,0
326.34903,326.4373,80,65,0
326.34903,326.4373,77,65,0
326.702,327.49716,77,56,0
326.702,327.49716,68,56,0
326.702,327.49716,80,56,0
327.72617,327.84024,77,50,0
327.72617,327.84024,81,50,0
327.84024,327.93005,82,56,0
327.84024,327.93005,78,56,0
328.19952,328.84818,78,56,0
328.19952,328.84818,82,56,0
328.84818,329.20743,72,51,0
328.84818,329.20743,66,40,0
329.20743,329.29974,65,43,0
329.20743,329.29974,73,54,0
329.57666,330.32928,65,44,0
329.57666,330.32928,73,56,0
330.47708,330.62485,68,42,0
330.47708,330.62485,80,55,0
330.62485,331.08325,89,63,0
330.62485,331.08325,77,49,0
331.08325,331.24283,75,45,0
331.08325,331.24283,87,58,0
331.24283,331.6885,90,62,0
331.24283,331.6885,78,48,0
331.6885,331.8408,84,57,0
331.6885,331.8408,72,44,0
331.8408,331.91995,75,50,0
331.8408,331.91995,87,64,0
332.1574,332.76932,85,57,0
332.1574,332.76932,73,44,0
332.76932,333.07858,85,55,0
332.76932,333.07858,73,42,0
333.07858,333.1559,94,64,0
333.07858,333.1559,82,55,0
333.38788,333.5425,94,60,0
333.38788,333.5425,82,50,0
333.69714,334.3458,80,51,0
333.69714,334.3458,92,66,0
334.3458,334.42194,90,61,0
334.3458,334.42194,78,47,0
334.65036,335.299,78,51,0
334.65036,335.299,82,60,0
334.65036,335.299,90,66,0
335.299,335.66824,90,58,0
335.299,335.66824,78,45,0
335.299,335.66824,87,45,0
335.66824,336.0181,85,61,0
335.66824,336.0181,94,61,0
335.66824,336.0181,97,67,0
336.0181,336.39078,85,40,0
336.0181,336.39078,97,66,0
336.0181,336.39078,94,60,0
336.39078,336.96478,96,70,0
336.39078,336.96478,92,64,0
336.39078,336.96478,84,40,0
336.96478,337.10498,90,55,0
336.96478,337.10498,82,40,0
336.96478,337.10498,94,60,0
337.199,337.29132,92,71,0
337.199,337.29132,80,55,0
337.199,337.29132,89,65,0
337.56824,338.3634,80,47,0
337.56824,338.3634,89,56,0
337.56824,338.3634,92,61,0
338.59244,338.70847,93,55,0
338.59244,338.70847,81,42,0
338.70847,338.81448,94,61,0
338.70847,338.81448,82,47,0
339.55655,340.2442,60,40,0
339.55655,340.2442,66,40,0
339.55655,340.2442,72,51,0
340.2442,340.33405,73,54,0
340.2442,340.33405,61,43,0
340.2442,340.33405,65,43,0
340.6035,341.5112,73,56,0
340.6035,341.5112,61,44,0
340.6035,341.5112,65,44,0
341.5112,341.66238,85,40,0
341.5112,341.66238,89,40,0
341.66238,341.80942,87,45,0
341.66238,341.80942,90,45,0
341.80942,341.95248,91,51,0
341.80942,341.95248,88,51,0
341.95248,342.0821,90,57,0
341.95248,342.0821,94,57,0
342.0821,342.20508,92,47,0
342.0821,342.20508,89,47,0
342.21875,342.35544,89,47,0
342.21875,342.35544,92,47,0
342.35544,342.48553,88,47,0
342.35544,342.48553,91,47,0
342.5,342.6263,94,53,0
342.5,342.6263,90,53,0
342.6263,342.74527,92,46,0
342.6263,342.74527,89,46,0
342.75848,342.89062,89,47,0
342.75848,342.89062,92,47,0
342.89062,343.0189,88,49,0
342.89062,343.0189,91,49,0
343.03314,343.1556,94,58,0
343.03314,343.1556,90,58,0
343.1556,343.27148,89,50,0
343.1556,343.27148,92,50,0
343.28436,343.41312,89,50,0
343.28436,343.41312,92,50,0
343.41312,343.53696,88,50,0
343.41312,343.53696,91,50,0
343.55072,343.66956,94,60,0
343.55072,343.66956,90,60,0
343.66956,343.7818,92,53,0
343.66956,343.7818,89,53,0
343.79428,343.91904,92,54,0
343.79428,343.91904,89,54,0
343.91904,344.03955,88,56,0
343.91904,344.03955,91,56,0
344.05295,344.17038,94,65,0
344.05295,344.17038,90,65,0
344.17038,344.28333,89,57,0
344.17038,344.28333,92,57,0
344.2959,344.42142,89,57,0
344.2959,344.42142,92,57,0
344.42142,344.54358,91,57,0
344.42142,344.54358,88,57,0
344.55716,344.6739,94,66,0
344.55716,344.6739,90,66,0
344.6739,344.78976,92,60,0
344.6739,344.78976,89,60,0
344.80264,344.9314,92,60,0
344.80264,344.9314,89,60,0
344.9314,345.0544,91,60,0
344.9314,345.0544,88,60,0
345.06808,345.1936,94,74,0
345.06808,345.1936,90,74,0
345.1936,345.3038,89,68,0
345.1936,345.3038,92,68,0
345.31604,345.4385,92,71,0
345.4385,345.55667,101,75,0
345.31604,345.5698,89,57,0
345.5698,345.6872,101,82,0
345.6872,345.79288,100,79,0
345.5698,345.80463,89,60,0
345.80463,345.92203,100,82,0
345.92203,346.04175,99,75,0
345.80463,346.04916,89,57,0
346.04916,346.16656,99,81,0
346.16656,346.27225,98,77,0
346.04916,346.284,89,60,0
346.284,346.4014,98,81,0
346.4014,346.5151,97,75,0
346.284,346.5277,89,57,0
346.5277,346.64514,97,78,0
346.64514,346.75082,96,69,0
346.5277,346.76254,89,57,0
346.76254,346.87997,96,77,0
346.87997,346.94394,95,69,0
346.94394,347.0079,97,58,0
346.76254,347.0079,89,55,0
347.0079,347.12744,96,72,0
347.12744,347.1872,94,68,0
347.1872,347.24695,96,57,0
347.0079,347.24695,89,72,0
347.24695,347.3665,94,70,0
347.3665,347.42963,93,68,0
347.42963,347.4928,97,58,0
347.24695,347.4928,89,70,0
347.4928,347.6123,96,68,0
347.6123,347.67206,94,68,0
347.67206,347.73184,96,57,0
347.4928,347.73184,89,68,0
347.73184,347.85135,94,66,0
347.85135,347.91574,93,59,0
347.91574,347.9801,97,53,0
347.73184,347.9801,89,66,0
347.9801,348.10034,96,66,0
348.10034,348.16046,94,62,0
348.16046,348.22058,96,52,0
347.9801,348.22058,89,66,0
348.22058,348.34082,94,64,0
348.34082,348.40564,93,63,0
348.40564,348.47043,97,52,0
348.22058,348.47043,89,64,0
348.47043,348.59067,96,62,0
348.59067,348.6508,94,62,0
348.6508,348.7109,96,51,0
348.47043,348.7109,89,62,0
348.7109,348.83115,94,61,0
348.83115,348.96002,93,54,0
348.7109,348.96002,89,61,0
348.96002,349.09167,89,62,0
351.93958,352.70554,96,56,0
352.70554,352.95605,94,55,0
352.95605,353.21085,92,61,0
353.46695,353.9902,92,56,0
355.05652,355.12918,101,50,0
355.12918,355.20187,100,50,0
355.20187,355.27454,99,50,0
355.27454,355.3472,98,49,0
355.3472,355.41934,97,49,0
355.41763,355.48956,96,49,0
355.48956,355.5615,95,49,0
355.5615,355.6334,94,48,0
355.6334,355.70523,93,48,0
355.70523,355.77643,92,48,0
355.77472,355.84592,91,47,0
355.84592,355.91708,90,47,0
355.91708,355.98828,89,47,0
355.98828,356.05923,88,46,0
356.05923,356.1297,87,46,0
356.12802,356.1985,86,46,0
356.1985,356.26895,85,46,0
356.26895,356.33942,84,45,0
356.33942,356.40933,83,45,0
356.40933,356.47913,82,45,0
356.47913,356.5489,81,44,0
356.5472,356.61697,80,44,0
356.61697,356.6833,79,44,0
356.6833,356.75238,78,41,0
356.75238,356.82147,77,41,0
356.82147,356.89053,76,40,0
356.89053,356.95963,75,40,0
356.95963,357.0287,74,39,0
357.0287,357.09778,73,39,0
357.09778,357.16684,72,38,0
357.16684,357.23593,71,37,0
357.23593,357.30502,70,37,0
357.30502,357.37408,69,36,0
357.37408,357.44318,68,36,0
357.44318,357.5119,67,35,0
357.5119,357.5803,66,35,0
357.5803,357.6488,65,34,0
357.6488,357.71786,64,33,0
357.71786,357.78696,63,33,0
357.78696,357.85672,62,32,0
357.85672,357.92648,61,32,0
357.92648,357.99686,60,31,0
357.99686,358.06732,59,31,0
358.06732,358.1383,58,30,0
358.1383,358.2095,57,30,0
358.2095,358.27084,56,29,0
358.57513,358.66928,61,37,0
358.66928,358.76245,65,39,0
358.76245,358.85544,68,41,0
358.85544,358.94772,73,43,0
358.94772,359.04004,77,44,0
359.04004,359.1318,80,46,0
359.1318,359.2246,85,48,0
359.2246,359.319,89,49,0
359.319,359.4148,92,51,0
359.4148,359.6108,97,53,0
360.78772,360.93762,73,36,0
360.78772,360.93762,77,36,0
360.93762,361.08447,78,40,0
360.93762,361.08447,75,40,0
361.08447,361.22827,79,45,0
361.08447,361.22827,76,45,0
361.22827,361.35785,78,51,0
361.22827,361.35785,82,51,0
361.35785,361.48087,77,42,0
361.35785,361.48087,80,42,0
361.49454,361.6312,77,42,0
361.49454,361.6312,80,42,0
361.6312,361.76132,76,42,0
361.6312,361.76132,79,42,0
361.7758,361.9021,78,47,0
361.7758,361.9021,82,47,0
361.9021,362.02103,77,41,0
361.9021,362.02103,80,41,0
362.03424,362.1664,80,42,0
362.03424,362.1664,77,42,0
362.1664,362.29468,76,44,0
362.1664,362.29468,79,44,0
362.30893,362.43137,78,52,0
362.30893,362.43137,82,52,0
362.43137,362.54727,77,45,0
362.43137,362.54727,80,45,0
362.56015,362.6889,77,45,0
362.56015,362.6889,80,45,0
362.6889,362.81274,76,45,0
362.6889,362.81274,79,45,0
362.8265,362.9453,78,54,0
362.8265,362.9453,82,54,0
362.9453,363.0576,77,47,0
362.9453,363.0576,80,47,0
363.07007,363.1948,80,48,0
363.07007,363.1948,77,48,0
363.1948,363.31534,76,50,0
363.1948,363.31534,79,50,0
363.32874,363.44614,78,58,0
363.32874,363.44614,82,58,0
363.44614,363.5591,77,51,0
363.44614,363.5591,80,51,0
363.57166,363.69717,77,51,0
363.57166,363.69717,80,51,0
363.69717,363.81937,76,51,0
363.69717,363.81937,79,51,0
363.83295,363.94968,78,59,0
363.83295,363.94968,82,59,0
363.94968,364.06555,77,54,0
363.94968,364.06555,80,54,0
364.07843,364.20718,80,54,0
364.07843,364.20718,77,54,0
364.20718,364.33017,76,54,0
364.20718,364.33017,79,54,0
364.34384,364.46936,82,66,0
364.34384,364.46936,78,66,0
364.46936,364.5796,80,61,0
364.46936,364.5796,77,61,0
364.59183,364.71426,80,63,0
364.71426,364.83243,89,67,0
364.59183,364.84555,77,51,0
364.84555,364.96298,89,73,0
364.96298,365.06866,88,71,0
364.84555,365.08038,77,54,0
365.08038,365.1978,88,73,0
365.1978,365.3175,87,67,0
365.08038,365.32492,77,51,0
365.32492,365.44235,87,72,0
365.44235,365.54803,86,69,0
365.32492,365.55975,77,54,0
365.55975,365.6772,86,72,0
365.6772,365.79086,85,67,0
365.55975,365.8035,77,51,0
365.8035,365.92093,85,70,0
365.92093,366.02658,84,62,0
365.8035,366.03833,77,51,0
366.03833,366.15576,84,69,0
366.15576,366.21973,83,62,0
366.21973,366.2837,85,52,0
366.03833,366.2837,77,49,0
366.2837,366.4032,84,64,0
366.4032,366.46295,82,61,0
366.46295,366.52274,84,51,0
366.2837,366.52274,77,64,0
366.52274,366.64224,82,63,0
366.64224,366.7054,81,61,0
366.7054,366.76855,85,52,0
366.52274,366.76855,77,63,0
366.76855,366.8881,84,61,0
366.8881,366.94785,82,61,0
366.94785,367.0076,84,51,0
366.76855,367.0076,77,61,0
367.0076,367.12714,82,59,0
367.12714,367.1915,81,53,0
367.1915,367.2559,85,47,0
367.0076,367.2559,77,59,0
367.2559,367.37613,84,59,0
367.37613,367.43625,82,55,0
367.43625,367.49637,84,46,0
367.2559,367.49637,77,59,0
367.49637,367.6166,82,57,0
367.6166,367.6814,81,56,0
367.6814,367.7462,85,46,0
367.49637,367.7462,77,57,0
367.7462,367.86642,84,55,0
367.86642,367.92654,82,55,0
367.92654,367.98666,84,45,0
367.7462,367.98666,77,55,0
367.98666,368.1069,82,54,0
368.1069,368.23578,81,48,0
367.98666,368.23578,77,54,0
368.23578,369.2464,77,55,0
369.2464,369.32855,81,42,0
369.32855,369.41068,82,43,0
369.41068,369.4723,83,44,0
369.49283,369.57495,84,45,0
369.57495,369.65707,85,46,0
369.65707,369.73923,86,47,0
369.73923,369.82135,87,48,0
369.82135,369.90305,88,49,0
369.90305,369.9845,89,50,0
369.9845,370.0656,90,51,0
370.0656,370.1464,91,52,0
370.1464,370.2269,92,53,0
370.2269,370.30707,93,54,0
370.30707,370.38724,94,55,0
370.38724,370.46738,95,56,0
370.46738,370.54755,96,57,0
370.54755,370.62772,97,58,0
370.62772,370.70786,99,59,0
370.70786,370.75058,97,63,0
370.75058,370.79327,99,45,0
370.79327,370.83597,97,45,0
370.83597,370.8787,96,45,0
370.8787,370.9214,97,45,0
370.9214,370.97476,99,51,0
370.97476,371.02814,97,46,0
371.02814,371.08154,94,46,0
371.08154,371.13492,92,46,0
371.13492,371.1883,97,51,0
371.1883,371.24167,94,46,0
371.24167,371.29504,92,46,0
371.29504,371.34845,90,46,0
371.34845,371.4246,94,51,0
371.4246,371.50073,92,46,0
371.50073,371.57687,90,46,0
371.57687,371.653,87,46,0
371.653,371.72916,92,51,0
371.72916,371.8053,90,45,0
371.8053,371.88144,87,45,0
371.88144,371.95758,85,45,0
371.95758,372.0304,90,51,0
372.0304,372.1032,87,45,0
372.1032,372.17603,85,45,0
372.17603,372.24866,82,45,0
372.24866,372.32095,87,51,0
372.32095,372.3934,85,45,0
372.3934,372.46622,82,45,0
372.46622,372.5393,80,45,0
372.5393,372.61267,85,51,0
372.61267,372.6863,82,47,0
372.6863,372.7602,80,47,0
372.7602,372.83444,78,47,0
372.83444,372.899,82,51,0
372.899,372.96317,80,46,0
372.9644,373.02844,78,46,0
373.02844,373.0922,75,46,0
373.0922,373.1558,80,51,0
373.1558,373.21915,78,45,0
373.21915,373.28223,75,45,0
373.28345,373.3464,73,45,0
373.3464,373.40906,78,51,0
373.40906,373.4717,75,45,0
373.4717,373.53433,73,45,0
373.53433,373.597,70,45,0
373.5982,373.66086,75,51,0
373.66086,373.7235,73,47,0
373.7235,373.79175,70,47,0
373.79175,373.95126,68,47,0
374.15063,374.23444,61,54,0
374.15063,374.23444,58,54,0
374.15063,374.23444,70,63,0
374.23444,374.3554,61,60,0
374.23444,374.3554,56,60,0
374.23444,374.3554,68,71,0
374.7183,374.77298,92,51,0
374.77298,374.82764,94,46,0
374.82764,374.88232,92,45,0
374.88232,374.93698,91,45,0
374.93698,374.99167,92,45,0
374.99167,375.06448,101,51,0
375.06448,375.1373,99,47,0
375.1373,375.2101,97,47,0
375.2101,375.28293,94,47,0
375.28293,375.35574,99,51,0
375.35574,375.42856,97,46,0
375.42856,375.5011,94,46,0
375.5011,375.5734,92,46,0
375.5734,375.64566,97,51,0
375.64566,375.7176,94,46,0
375.7176,375.78937,92,46,0
375.78937,375.86115,89,46,0
375.86115,375.9325,94,51,0
375.9325,376.00375,92,46,0
376.00375,376.07492,89,46,0
376.07492,376.14566,87,46,0
376.14566,376.21643,92,51,0
376.21643,376.28693,89,45,0
376.28693,376.35718,87,45,0
376.35718,376.42743,85,45,0
376.42743,376.49728,89,51,0
376.49728,376.56705,87,45,0
376.56705,376.63705,85,45,0
376.63705,376.7073,82,45,0
376.7073,376.77774,87,51,0
376.77774,376.8485,85,45,0
376.8485,376.91934,82,45,0
376.91934,376.9906,80,45,0
376.9906,377.061,85,51,0
377.061,377.1313,82,47,0
377.1313,377.20154,80,47,0
377.20154,377.2718,77,47,0
377.2718,377.34204,82,51,0
377.34204,377.4123,80,44,0
377.4123,377.48257,77,44,0
377.48257,377.55283,75,44,0
377.55283,377.62308,80,47,0
377.62308,377.69333,77,40,0
377.69333,377.76358,75,40,0
377.76358,377.83386,73,40,0
377.83386,377.9041,77,43,0
377.9041,377.97437,75,37,0
377.97437,378.04462,73,37,0
378.04462,378.11487,70,37,0
378.11487,378.17587,75,43,0
378.17587,378.2374,73,35,0
378.2386,378.3006,70,35,0
378.3006,378.36307,68,35,0
378.36307,378.426,73,42,0
378.426,378.48938,70,36,0
378.48938,378.55328,68,36,0
378.55453,378.61893,65,36,0
378.61893,378.6838,70,42,0
378.6838,378.74924,68,37,0
378.74924,378.81473,65,37,0
378.81473,378.88022,63,37,0
378.88147,378.94696,68,42,0
378.94696,379.01245,65,38,0
379.01245,379.08517,63,38,0
379.08517,379.27637,61,38,0
379.51535,379.59448,69,64,0
379.51535,379.59448,81,75,0
379.59448,379.7826,70,72,0
379.59448,379.7826,82,85,0
380.34683,381.09918,60,85,0
380.34683,381.09918,54,72,0
385.08444,385.59915,65,39,0
385.08444,385.59915,68,46,0
385.59915,385.6851,63,34,0
385.59915,385.6851,66,41,0
385.77106,385.8413,61,34,0
385.77106,385.8413,65,41,0
385.9116,385.99905,63,34,0
385.9116,385.99905,66,41,0
386.08652,386.1689,65,40,0
386.08652,386.1689,68,48,0
386.3388,386.42627,66,34,0
386.3388,386.42627,70,41,0
386.42627,386.94095,65,39,0
386.42627,386.94095,68,46,0
386.94095,387.0284,63,34,0
386.94095,387.0284,66,41,0
387.11588,387.18665,61,34,0
387.11588,387.18665,65,41,0
387.2574,387.3419,63,34,0
387.2574,387.3419,66,41,0
387.4264,387.50882,65,40,0
387.4264,387.50882,68,48,0
387.6787,387.76617,66,34,0
387.6787,387.76617,70,41,0
387.76617,387.9411,65,39,0
387.76617,387.9411,68,46,0
389.15088,389.66556,64,42,0
389.15088,389.66556,73,47,0
389.15088,389.66556,76,50,0
389.66556,389.74936,71,42,0
389.66556,389.74936,74,44,0
389.83316,389.90393,69,42,0
389.83316,389.90393,73,44,0
389.97467,390.0629,71,42,0
389.97467,390.0629,74,44,0
390.15115,390.23355,73,49,0
390.15115,390.23355,76,52,0
390.40344,390.4909,74,43,0
390.40344,390.4909,78,45,0
390.4909,391.00558,64,43,0
390.4909,391.00558,73,48,0
390.4909,391.00558,76,51,0
391.00558,391.0894,71,42,0
391.00558,391.0894,74,44,0
391.1732,391.2425,69,42,0
391.1732,391.2425,73,44,0
391.31177,391.3935,71,40,0
391.31177,391.3935,74,42,0
391.47525,391.55768,73,47,0
391.47525,391.55768,76,50,0
391.72754,391.815,74,42,0
391.72754,391.815,78,44,0
391.815,391.98993,64,41,0
391.815,391.98993,73,46,0
391.815,391.98993,76,49,0
393.19897,393.7106,69,49,0
393.19897,393.7106,78,54,0
393.19897,393.7106,81,58,0
393.7106,393.79373,76,45,0
393.7106,393.79373,80,48,0
393.87683,393.9481,74,45,0
393.87683,393.9481,78,48,0
394.01935,394.10605,76,46,0
394.01935,394.10605,80,49,0
394.19275,394.27518,78,57,0
394.19275,394.27518,81,61,0
394.44504,394.5325,80,49,0
394.44504,394.5325,83,52,0
394.5325,395.0472,69,50,0
394.5325,395.0472,81,59,0
394.5325,395.0472,78,56,0
395.0472,395.1303,76,45,0
395.0472,395.1303,80,48,0
395.2134,395.28366,74,45,0
395.2134,395.28366,78,48,0
395.3539,395.44376,76,45,0
395.3539,395.44376,80,48,0
395.53357,395.61597,78,48,0
395.53357,395.61597,81,57,0
395.78082,395.86322,80,41,0
395.78082,395.86322,83,49,0
395.86322,395.93997,78,48,0
395.86322,395.93997,81,57,0
396.0934,396.17014,78,43,0
396.0934,396.17014,81,51,0
396.17014,396.2493,80,48,0
396.17014,396.2493,83,57,0
396.4076,396.48676,78,43,0
396.4076,396.48676,81,51,0
396.48676,396.56592,80,48,0
396.48676,396.56592,83,57,0
396.7242,396.80338,77,45,0
396.7242,396.80338,85,53,0
396.80338,396.88647,78,49,0
396.80338,396.88647,86,58,0
397.0527,397.1358,78,43,0
397.0527,397.1358,81,51,0
397.1358,397.21494,77,50,0
397.1358,397.21494,80,59,0
397.37326,397.45242,78,45,0
397.37326,397.45242,81,54,0
397.45242,397.5316,80,50,0
397.45242,397.5316,83,59,0
397.68988,397.76904,78,46,0
397.68988,397.76904,81,55,0
397.76904,397.8482,80,51,0
397.76904,397.8482,83,60,0
398.0065,398.08566,77,46,0
398.0065,398.08566,85,55,0
398.08566,398.17236,78,51,0
398.08566,398.17236,86,60,0
398.4325,398.50806,92,65,0
398.50806,398.58362,93,58,0
398.58362,398.65918,95,58,0
398.65918,398.73474,93,58,0
398.73474,398.8956,90,64,0
398.73474,398.8956,87,64,0
398.8956,399.05646,89,59,0
398.8956,399.05646,85,59,0
399.05646,399.21732,87,59,0
399.05646,399.21732,84,59,0
399.21732,399.37817,92,60,0
399.21732,399.37817,80,60,0
399.37817,399.45673,87,66,0
399.37817,399.45673,90,66,0
399.53525,399.61377,89,59,0
399.53525,399.61377,85,59,0
399.69232,399.7734,87,59,0
399.69232,399.7734,84,59,0
399.8545,399.93555,80,59,0
399.8545,399.93555,68,59,0
400.01663,400.09277,78,64,0
400.01663,400.09277,75,64,0
400.1689,400.24506,77,57,0
400.1689,400.24506,73,57,0
400.3212,400.40295,75,57,0
400.3212,400.40295,72,57,0
400.4847,400.56644,80,58,0
400.4847,400.56644,68,58,0
400.6482,400.72797,77,64,0
400.6482,400.72797,73,64,0
400.97537,401.46887,77,50,0
400.97537,401.46887,80,59,0
400.97537,401.46887,68,50,0
401.46887,401.55634,75,44,0
401.46887,401.55634,78,53,0
401.46887,401.55634,66,44,0
401.6438,401.71405,73,44,0
401.6438,401.71405,77,53,0
401.6438,401.71405,65,44,0
401.7843,401.86346,75,44,0
401.7843,401.86346,78,53,0
401.7843,401.86346,66,44,0
401.94263,402.0224,77,52,0
401.94263,402.0224,80,62,0
401.94263,402.0224,68,52,0
402.1853,402.2684,78,44,0
402.1853,402.2684,82,53,0
402.1853,402.2684,70,44,0
402.2684,402.76566,77,50,0
402.2684,402.76566,80,59,0
402.2684,402.76566,68,50,0
402.76566,402.85312,75,44,0
402.76566,402.85312,78,53,0
402.76566,402.85312,66,44,0
402.94058,403.01132,73,44,0
402.94058,403.01132,77,53,0
402.94058,403.01132,65,44,0
403.0821,403.1594,75,44,0
403.0821,403.1594,78,53,0
403.0821,403.1594,66,44,0
403.23672,403.3159,77,52,0
403.23672,403.3159,80,62,0
403.23672,403.3159,68,52,0
403.47882,403.56262,78,44,0
403.47882,403.56262,82,53,0
403.47882,403.56262,70,44,0
403.56262,403.73022,77,50,0
403.56262,403.73022,80,59,0
403.56262,403.73022,68,50,0
404.22656,404.71857,76,59,0
404.22656,404.71857,85,67,0
404.22656,404.71857,88,71,0
404.71857,404.801,83,59,0
404.71857,404.801,86,62,0
404.71857,404.801,74,59,0
404.8834,404.95465,81,59,0
404.8834,404.95465,85,62,0
404.8834,404.95465,73,59,0
405.0259,405.10324,83,59,0
405.0259,405.10324,86,62,0
405.0259,405.10324,74,59,0
405.18054,405.2597,85,69,0
405.18054,405.2597,88,73,0
405.18054,405.2597,76,69,0
405.42267,405.50647,86,60,0
405.42267,405.50647,90,63,0
405.42267,405.50647,78,60,0
405.50647,405.99997,76,60,0
405.50647,405.99997,85,68,0
405.50647,405.99997,88,72,0
405.99997,406.0824,83,59,0
405.99997,406.0824,86,62,0
405.99997,406.0824,74,59,0
406.1648,406.23508,81,59,0
406.1648,406.23508,85,62,0
406.1648,406.23508,73,59,0
406.30533,406.38147,83,57,0
406.30533,406.38147,86,59,0
406.30533,406.38147,74,57,0
406.4576,406.53738,85,67,0
406.4576,406.53738,88,71,0
406.4576,406.53738,76,67,0
406.701,406.7848,86,59,0
406.701,406.7848,90,62,0
406.701,406.7848,78,59,0
406.7848,406.95236,76,58,0
406.7848,406.95236,85,64,0
406.7848,406.95236,88,69,0
407.45148,407.94498,81,69,0
407.45148,407.94498,90,77,0
407.45148,407.94498,93,82,0
407.94498,408.0274,88,63,0
407.94498,408.0274,92,68,0
407.94498,408.0274,80,63,0
408.1098,408.1791,86,63,0
408.1098,408.1791,90,68,0
408.1098,408.1791,78,63,0
408.24838,408.32452,88,64,0
408.24838,408.32452,92,69,0
408.24838,408.32452,80,64,0
408.40067,408.4792,90,74,0
408.40067,408.4792,93,82,0
408.40067,408.4792,81,70,0
408.64154,408.72534,92,69,0
408.64154,408.72534,95,73,0
408.64154,408.72534,83,69,0
408.72534,409.2201,81,71,0
408.72534,409.2201,93,83,0
408.72534,409.2201,90,79,0
409.2201,409.29926,88,63,0
409.2201,409.29926,92,68,0
409.2201,409.29926,80,63,0
409.37842,409.4477,86,63,0
409.37842,409.4477,90,68,0
409.37842,409.4477,78,63,0
409.51697,409.5931,88,63,0
409.51697,409.5931,92,68,0
409.51697,409.5931,80,63,0
409.66925,409.7484,90,68,0
409.66925,409.7484,93,81,0
409.66925,409.7484,81,68,0
409.90674,409.98587,92,58,0
409.90674,409.98587,95,69,0
409.90674,409.98587,83,58,0
409.98587,410.06033,90,68,0
409.98587,410.06033,93,81,0
409.98587,410.06033,81,68,0
410.2092,410.28366,78,55,0
410.2092,410.28366,81,66,0
410.28366,410.36096,80,62,0
410.28366,410.36096,83,74,0
410.5156,410.59293,78,55,0
410.5156,410.59293,81,66,0
410.59293,410.67026,80,62,0
410.59293,410.67026,83,74,0
410.8249,410.90222,77,58,0
410.8249,410.90222,85,68,0
410.90222,410.98328,78,63,0
410.90222,410.98328,86,75,0
411.14545,411.22653,78,55,0
411.14545,411.22653,81,66,0
411.22653,411.30096,77,65,0
411.22653,411.30096,80,76,0
411.44986,411.5243,78,58,0
411.44986,411.5243,81,70,0
411.5243,411.59872,80,65,0
411.5243,411.59872,83,76,0
411.74762,411.82205,78,59,0
411.74762,411.82205,81,71,0
411.82205,411.8965,80,66,0
411.82205,411.8965,83,78,0
412.04538,412.11984,77,59,0
412.04538,412.11984,85,71,0
412.11984,412.20157,78,66,0
412.11984,412.20157,86,78,0
412.4468,412.51962,92,79,0
412.51962,412.59244,93,72,0
412.59244,412.66525,95,72,0
412.66525,412.73807,93,72,0
412.73807,412.89392,90,78,0
412.73807,412.89392,87,78,0
412.89392,413.04974,89,72,0
412.89392,413.04974,85,72,0
413.04974,413.2056,87,72,0
413.04974,413.2056,84,72,0
413.2056,413.36145,92,74,0
413.2056,413.36145,80,74,0
413.36145,413.437,87,80,0
413.36145,413.437,90,80,0
413.51257,413.58813,89,72,0
413.51257,413.58813,85,72,0
413.66373,413.74478,87,72,0
413.66373,413.74478,84,72,0
413.82587,413.90695,80,72,0
413.82587,413.90695,68,72,0
413.98804,414.0636,78,78,0
413.98804,414.0636,75,78,0
414.13916,414.21475,77,64,0
414.13916,414.21475,73,64,0
414.2903,414.37204,75,64,0
414.2903,414.37204,72,64,0
414.4538,414.55347,80,64,0
414.4538,414.55347,68,64,0
414.65314,414.73553,77,50,0
414.65314,414.73553,73,45,0
414.9828,415.46832,92,55,0
414.9828,415.46832,89,55,0
415.46832,415.54114,97,57,0
415.46832,415.54114,94,57,0
415.61395,415.69186,96,54,0
415.61395,415.69186,92,54,0
415.76978,415.84772,90,54,0
415.76978,415.84772,94,54,0
415.92563,416.00806,92,52,0
415.92563,416.00806,89,47,0
416.2553,416.7192,80,53,0
416.2553,416.7192,77,53,0
416.7192,416.79965,78,55,0
416.7192,416.79965,75,55,0
416.88007,416.9574,77,55,0
416.88007,416.9574,73,55,0
417.03473,417.11783,68,55,0
417.03473,417.11783,75,55,0
417.20093,417.28333,77,50,0
417.20093,417.28333,73,45,0
417.53058,417.9945,92,55,0
417.53058,417.9945,89,55,0
417.9945,418.06628,97,57,0
417.9945,418.06628,94,57,0
418.13806,418.21478,96,54,0
418.13806,418.21478,92,54,0
418.2915,418.36823,90,54,0
418.2915,418.36823,94,54,0
418.44495,418.52737,92,52,0
418.44495,418.52737,89,47,0
418.77463,419.1043,82,64,0
418.77463,419.1043,78,64,0
419.1043,419.17987,80,58,0
419.1043,419.17987,77,58,0
419.25543,419.331,78,54,0
419.25543,419.331,75,54,0
419.40656,419.4851,77,54,0
419.40656,419.4851,73,54,0
419.56363,419.64673,68,53,0
419.56363,419.64673,75,53,0
419.72983,419.81226,77,50,0
419.72983,419.81226,73,45,0
420.0595,420.53452,92,55,0
420.0595,420.53452,89,55,0
420.53452,420.6084,97,57,0
420.53452,420.6084,94,57,0
420.68228,420.7596,96,54,0
420.68228,420.7596,92,54,0
420.8369,420.91425,90,54,0
420.8369,420.91425,94,54,0
420.99158,421.07397,92,52,0
420.99158,421.07397,89,47,0
421.32123,421.78516,80,53,0
421.32123,421.78516,77,53,0
421.78516,421.85797,78,55,0
421.78516,421.85797,75,55,0
421.9308,422.0081,77,53,0
421.9308,422.0081,73,53,0
422.08542,422.16852,68,53,0
422.08542,422.16852,75,53,0
422.25162,422.33405,77,50,0
422.25162,422.33405,73,45,0
422.5813,423.04523,92,55,0
422.5813,423.04523,89,55,0
423.04523,423.11804,97,57,0
423.04523,423.11804,94,57,0
423.19086,423.26816,96,54,0
423.19086,423.26816,92,54,0
423.3455,423.4228,90,54,0
423.3455,423.4228,94,54,0
423.50012,423.5861,92,52,0
423.50012,423.5861,89,47,0
423.84396,424.17636,82,60,0
423.84396,424.17636,78,60,0
424.17636,424.2549,80,59,0
424.17636,424.2549,77,59,0
424.33344,424.412,78,53,0
424.33344,424.412,75,53,0
424.4905,424.56903,77,53,0
424.4905,424.56903,73,53,0
424.64758,424.73068,68,53,0
424.64758,424.73068,75,53,0
424.81378,424.89688,77,55,0
424.81378,424.89688,73,55,0
425.14618,425.30325,73,50,0
425.30325,425.46033,74,51,0
425.14618,425.46033,68,50,0
425.46033,425.93152,75,55,0
425.46033,425.93152,68,55,0
425.93152,426.01007,78,50,0
425.93152,426.01007,75,50,0
426.0886,426.2353,77,55,0
426.2353,426.39114,80,51,0
426.0886,426.39114,73,55,0
426.39114,426.547,73,51,0
426.39114,426.547,68,51,0
426.70914,427.1767,87,57,0
426.70914,427.1767,80,57,0
427.1767,427.2546,90,52,0
427.1767,427.2546,87,52,0
427.33252,427.4814,89,57,0
427.4814,427.6385,92,53,0
427.33252,427.6385,85,57,0
427.6385,427.79553,85,53,0
427.6385,427.79553,80,53,0
427.95905,428.42657,75,55,0
427.95905,428.42657,68,55,0
428.42657,428.47852,78,50,0
428.42657,428.5045,75,50,0
428.47852,428.53046,80,50,0
428.53046,428.5824,78,50,0
428.5824,428.73242,77,55,0
428.73242,428.88947,80,51,0
428.5824,428.88947,73,55,0
428.88947,429.04654,73,51,0
428.88947,429.04654,68,51,0
429.21002,429.67276,87,57,0
429.21002,429.67276,80,57,0
429.67276,429.7243,90,52,0
429.67276,429.7501,87,52,0
429.7243,429.77585,92,52,0
429.77585,429.8274,90,52,0
429.8274,429.97742,89,57,0
429.97742,430.13205,92,53,0
429.8274,430.13205,85,57,0
430.13205,430.28668,85,53,0
430.13205,430.28668,80,53,0
430.44125,430.52002,72,48,0
430.52002,430.59906,73,49,0
430.59906,430.67758,75,50,0
430.67758,430.75583,77,51,0
430.75583,430.83365,78,52,0
430.83365,430.91095,80,52,0
430.91095,430.98798,82,53,0
430.98798,431.0646,84,54,0
431.0646,431.14075,85,56,0
431.14075,431.2169,87,56,0
431.2169,431.29303,89,56,0
431.29303,431.36917,90,57,0
431.36917,431.4453,91,57,0
431.4453,431.52145,94,58,0
431.52145,431.5976,92,58,0
431.5976,431.67365,94,59,0
431.67365,431.7492,92,58,0
431.7492,431.8248,94,52,0
431.8248,431.90085,92,52,0
431.90085,431.977,94,52,0
431.977,432.05362,92,52,0
432.05362,432.13034,94,52,0
431.67365,432.13034,87,61,0
432.13034,432.20755,92,52,0
432.20755,432.28488,94,52,0
432.13034,432.28488,90,52,0
432.28488,432.35822,92,58,0
432.35822,432.43158,94,52,0
432.28488,432.43158,89,57,0
432.5095,432.5874,94,52,0
432.43158,432.5874,92,53,0
432.5874,432.74326,85,53,0
432.5874,432.74326,92,58,0
432.9062,432.9851,72,48,0
432.9851,433.06412,73,49,0
433.06412,433.14264,75,50,0
433.14264,433.22083,77,51,0
433.22083,433.2986,78,52,0
433.2986,433.37595,80,52,0
433.37595,433.4529,82,53,0
433.4529,433.5295,84,54,0
433.5295,433.60565,85,56,0
433.60565,433.6818,87,56,0
433.6818,433.75793,89,56,0
433.75793,433.83408,90,57,0
433.83408,433.91022,91,57,0
433.91022,433.98636,94,58,0
433.98636,434.0625,92,58,0
434.0625,434.13852,94,59,0
434.13852,434.21408,92,58,0
434.21408,434.28964,94,52,0
434.28964,434.36572,92,52,0
434.36572,434.44186,94,52,0
434.44186,434.51855,92,52,0
434.51855,434.59528,94,52,0
434.13852,434.59528,87,61,0
434.59528,434.67252,92,52,0
434.67252,434.74957,94,52,0
434.59528,434.74957,90,52,0
434.74957,434.82294,92,58,0
434.82294,434.89658,94,52,0
434.74957,434.89658,89,57,0
434.9732,435.05115,94,52,0
434.89658,435.05243,92,53,0
435.05115,435.05243,92,58,0
435.12906,435.20712,94,52,0
435.05243,435.2085,85,53,0
435.20712,435.2882,92,52,0
435.2882,435.3693,94,52,0
435.37054,435.44614,92,60,0
435.44614,435.5217,94,54,0
435.5217,435.59778,92,54,0
435.59778,435.67392,94,54,0
435.67392,435.75058,92,54,0
435.75058,435.8273,94,54,0
435.37054,435.8273,87,64,0
435.8273,435.90457,92,54,0
435.90457,435.98163,94,54,0
435.8273,435.98163,90,54,0
435.9804,436.12732,89,63,0
436.12732,436.28317,92,64,0
436.28317,436.43918,85,55,0
436.6008,436.68097,84,57,0
436.76056,436.83954,85,58,0
436.9178,436.99545,87,60,0
437.0726,437.14917,88,61,0
437.2253,437.30145,89,63,0
437.3776,437.45374,90,65,0
437.52988,437.60602,91,64,0
437.68216,437.7639,92,67,0
437.84564,437.92178,90,64,0
437.99792,438.07407,89,65,0
438.1502,438.22635,87,64,0
438.3025,438.38492,90,65,0
438.46732,438.61017,89,63,0
438.61017,438.7602,92,63,0
438.7602,438.9105,85,55,0
439.0707,439.1493,84,57,0
439.22726,439.30457,85,58,0
439.38132,439.4574,87,60,0
439.53293,439.60794,88,62,0
439.68237,439.7552,89,64,0
439.8291,439.90192,90,67,0
439.97635,440.05078,91,67,0
440.1252,440.20502,92,71,0
440.2848,440.3598,90,68,0
440.4348,440.5098,89,70,0
440.5848,440.6598,87,69,0
440.7348,440.8193,92,71,0
440.9038,440.98114,92,61,0
440.98114,441.0609,94,56,0
441.0609,441.13824,92,62,0
441.13824,441.21802,94,56,0
440.9038,441.21802,85,58,0
441.21802,441.29535,92,63,0
441.29535,441.3758,94,57,0
441.3758,441.4537,92,60,0
441.4537,441.53223,94,52,0
441.53223,441.6081,92,59,0
441.6081,441.68414,94,51,0
441.68414,441.7599,92,59,0
441.7599,441.83643,94,51,0
441.83643,441.9152,92,59,0
441.9152,441.9951,94,51,0
441.9951,442.07477,92,56,0
442.07477,442.15457,94,52,0
442.15457,442.2337,92,61,0
442.2337,442.31287,94,56,0
442.31287,442.39203,92,62,0
442.39203,442.4712,94,56,0
442.4712,442.54684,92,59,0
442.54684,442.6227,94,53,0
442.6227,442.69772,92,58,0
442.69772,442.77454,94,52,0
442.77454,442.84937,92,59,0
442.84937,442.92612,94,53,0
442.92612,443.00064,92,60,0
443.00064,443.0766,94,53,0
443.0766,443.15515,92,60,0
443.15515,443.23367,94,53,0
443.23367,443.3122,92,60,0
443.3122,443.39075,94,53,0
443.39075,443.4765,92,61,0
443.4765,443.56396,94,56,0
443.56396,443.65143,92,62,0
443.65143,443.73123,94,56,0
443.73123,443.80856,92,63,0
443.80856,443.88898,94,57,0
443.88898,443.9669,92,60,0
443.9669,444.04544,94,52,0
444.04544,444.12128,92,67,0
444.12128,444.19733,89,51,0
444.19733,444.2731,90,65,0
444.2731,444.34964,87,51,0
444.34964,444.42838,89,65,0
444.42838,444.50827,85,51,0
444.50827,444.58798,90,64,0
444.58798,444.66776,87,52,0
444.66776,444.75372,92,61,0
444.75372,444.8397,89,56,0
444.8397,444.92563,94,62,0
444.92563,445.0116,90,56,0
445.0116,445.08728,92,59,0
445.08728,445.16312,89,53,0
445.16815,445.24323,92,58,0
445.23813,445.31497,89,52,0
445.31497,445.3898,92,59,0
445.3898,445.46652,89,53,0
445.46652,445.54108,90,60,0
445.54108,445.61703,87,53,0
445.61703,445.69556,89,60,0
445.69556,445.77408,85,53,0
445.77408,445.85263,90,60,0
445.85263,445.93115,87,53,0
445.93115,446.0097,92,61,0
446.0097,446.08823,89,56,0
446.08823,446.16675,88,58,0
446.16675,446.2453,91,51,0
446.2453,446.32382,89,54,0
446.32382,446.40237,92,46,0
446.40237,446.4809,89,54,0
446.4809,446.55942,93,48,0
446.55942,446.63797,90,55,0
446.63797,446.7165,94,50,0
446.7165,446.79504,89,56,0
446.79504,446.87357,93,50,0
446.87357,446.9521,90,56,0
446.9521,447.03064,94,49,0
447.03064,447.10916,87,56,0
447.10916,447.1877,96,49,0
447.1877,447.26105,85,59,0
447.26105,447.3344,97,53,0
447.3344,447.41232,89,58,0
447.41232,447.49023,92,48,0
447.49023,447.56818,88,55,0
447.56818,447.6461,91,51,0
447.6461,447.724,89,57,0
447.724,447.80194,92,51,0
447.80194,447.88046,87,55,0
447.88046,447.959,90,50,0
447.959,448.03754,85,56,0
448.03754,448.11606,89,50,0
448.11606,448.1946,84,56,0
448.1946,448.27313,87,49,0
448.27313,448.35168,80,56,0
448.35168,448.4302,92,49,0
448.4302,448.50357,85,59,0
448.50357,448.5769,89,53,0
448.5769,448.65482,80,58,0
448.65482,448.73276,87,48,0
448.73276,448.81067,77,55,0
448.81067,448.88858,85,51,0
448.88858,448.96652,89,57,0
448.96652,449.04443,92,51,0
449.04443,449.123,90,55,0
449.123,449.2015,94,50,0
449.2015,449.28003,89,56,0
449.28003,449.35858,93,50,0
449.35858,449.4371,90,56,0
449.4371,449.51566,94,49,0
449.51566,449.59418,87,56,0
449.59418,449.6727,96,49,0
449.6727,449.74606,85,59,0
449.74606,449.8194,97,53,0
449.8194,449.89734,89,58,0
449.89734,449.97525,92,48,0
449.97525,450.05316,88,55,0
450.05316,450.1311,91,51,0
450.1311,450.209,89,57,0
450.209,450.28696,92,51,0
450.28696,450.36487,87,60,0
450.36487,450.44278,90,55,0
450.44278,450.52023,85,60,0
450.52023,450.59756,89,56,0
450.59756,450.67468,84,61,0
450.67468,450.7514,87,56,0
450.7514,450.82812,80,61,0
450.82812,450.9043,92,58,0
450.9043,450.98044,85,62,0
450.98044,451.05624,89,58,0
451.05624,451.1318,80,62,0
451.1318,451.20728,87,59,0
451.20728,451.2823,77,59,0
451.2823,451.35727,85,62,0
451.35727,451.4463,89,64,0
451.4463,451.5353,92,67,0
451.5353,451.61182,87,64,0
451.61182,451.68854,90,58,0
451.68854,451.76526,85,64,0
451.76526,451.84143,89,60,0
451.84143,451.91757,84,61,0
451.91757,451.99353,87,64,0
451.99353,452.06912,80,67,0
452.06912,452.14468,92,67,0
452.14468,452.21988,85,66,0
452.21988,452.2949,89,61,0
452.2949,452.36987,84,66,0
452.36987,452.44434,87,63,0
452.44434,452.5188,85,67,0
452.5188,452.59308,89,62,0
452.59308,452.68054,80,67,0
452.68054,452.7661,92,63,0
452.7661,452.84225,92,68,0
452.84225,452.9184,95,64,0
452.9184,452.9944,90,68,0
452.9944,453.06998,94,64,0
453.06998,453.14554,89,69,0
453.14554,453.22076,92,65,0
453.22076,453.29578,85,69,0
453.29578,453.3708,97,73,0
453.3708,453.44528,90,70,0
453.44528,453.5197,94,67,0
453.5197,453.59402,85,71,0
453.59402,453.6679,92,67,0
453.6679,453.74182,82,67,0
453.74182,453.8154,90,70,0
453.8154,453.8992,94,72,0
453.8992,453.983,97,75,0
453.983,454.06003,92,72,0
454.06003,454.13736,95,67,0
454.13736,454.21436,90,73,0
454.21436,454.2911,94,67,0
454.2911,454.36777,89,73,0
454.36777,454.4439,92,70,0
454.4439,454.52005,85,74,0
454.52005,454.59564,97,70,0
454.59564,454.6712,90,74,0
454.6712,454.74646,92,70,0
454.74646,454.82144,89,75,0
454.82144,454.89636,92,70,0
454.89636,454.9708,90,75,0
454.9708,455.04523,94,72,0
455.04523,455.1312,85,76,0
455.1312,455.21716,97,72,0
455.29446,455.3718,49,67,0
455.3718,455.44913,51,68,0
455.44913,455.52643,53,70,0
455.52643,455.6075,54,71,0
455.6075,455.6886,56,72,0
455.6886,455.76968,58,74,0
455.76968,455.85077,60,75,0
455.85077,455.92633,61,75,0
455.92633,456.0019,65,76,0
456.0019,456.07745,68,78,0
456.07745,456.153,73,79,0
456.153,456.23544,77,80,0
456.23544,456.31787,80,82,0
456.31787,456.40027,85,83,0
456.40027,456.4827,89,85,0
456.5606,456.63855,54,75,0
456.63855,456.71646,56,76,0
456.71646,456.79437,58,78,0
456.79437,456.8789,59,79,0
456.8789,456.9634,61,80,0
456.9634,457.0479,63,81,0
457.0479,457.13242,65,82,0
457.13242,457.2122,66,83,0
457.2122,457.292,70,84,0
457.292,457.37177,73,86,0
457.37177,457.45157,78,88,0
457.45157,457.53537,82,90,0
457.53537,457.61917,85,92,0
457.61917,457.70297,90,94,0
457.70297,457.78674,92,95,0
457.78674,457.87198,94,97,0
457.78674,457.87198,82,97,0
457.9572,458.04245,90,91,0
458.04245,458.12766,92,94,0
458.12766,458.2129,82,97,0
458.12766,458.2129,94,97,0
458.29813,458.38336,82,88,0
458.29813,458.38336,90,88,0
458.46857,458.5576,82,94,0
458.46857,458.5576,94,94,0
458.5576,458.6466,92,89,0
458.6466,458.73563,90,89,0
458.82465,458.90988,61,74,0
458.82465,458.90988,66,88,0
458.99512,459.08035,61,69,0
458.99512,459.08035,65,81,0
459.16556,459.67694,61,75,0
459.16556,459.67694,65,89,0
459.67694,459.76074,87,90,0
459.76074,459.84454,89,91,0
459.84454,459.92496,90,93,0
459.84454,459.92496,78,93,0
460.00537,460.08582,87,87,0
460.08582,460.16623,89,90,0
460.16623,460.24667,78,93,0
460.16623,460.24667,90,93,0
460.3271,460.40753,78,84,0
460.3271,460.40753,87,84,0
460.48795,460.5684,78,90,0
460.48795,460.5684,90,90,0
460.5684,460.6488,89,83,0
460.6488,460.72925,87,83,0
460.72925,460.80966,86,83,0
460.80966,460.93573,87,90,0
461.06177,461.14093,58,53,0
461.06177,461.14093,70,63,0
461.06177,461.14093,66,63,0
461.2201,461.30118,59,56,0
461.2201,461.30118,66,66,0
461.2201,461.30118,71,66,0
461.38226,461.46332,60,57,0
461.38226,461.46332,68,68,0
461.38226,461.46332,72,68,0
461.5444,461.70657,61,60,0
461.5444,461.70657,73,71,0
461.5444,461.70657,68,71,0
462.02747,462.18515,66,62,0
461.86832,462.18515,72,80,0
461.86832,462.18515,60,68,0
462.02747,462.18515,68,62,0
462.3414,462.49625,66,62,0
462.18515,462.49625,75,75,0
462.18515,462.49625,63,64,0
462.3414,462.49625,68,62,0
462.6495,462.8014,65,64,0
462.49625,462.8014,75,82,0
462.49625,462.8014,63,70,0
462.6495,462.8014,68,64,0
462.95197,463.13,65,64,0
462.8014,463.13,73,77,0
462.8014,463.13,61,65,0
462.95197,463.13,68,64,0
463.28323,463.43613,73,63,0
463.13,463.43613,77,82,0
463.13,463.43613,65,70,0
463.28323,463.43613,71,63,0
463.5884,463.7618,73,65,0
463.43613,463.7618,80,76,0
463.43613,463.7618,68,65,0
463.5884,463.7618,71,65,0
463.91202,464.0615,73,64,0
463.7618,464.0615,80,85,0
463.7618,464.0615,68,71,0
463.91202,464.0615,70,64,0
464.22043,464.38943,73,62,0
464.0615,464.38943,78,80,0
464.0615,464.38943,66,68,0
464.22043,464.38943,70,62,0
464.38943,464.46924,82,97,0
464.38943,464.46924,70,97,0
464.549,464.6288,78,91,0
464.6288,464.7086,80,94,0
464.7086,464.79605,70,97,0
464.7086,464.79605,82,97,0
464.8835,464.97098,70,88,0
464.8835,464.97098,78,88,0
465.05844,465.1467,70,94,0
465.05844,465.1467,82,94,0
465.1467,465.23492,80,89,0
465.23492,465.32315,78,89,0
465.41138,465.49518,61,74,0
465.41138,465.49518,66,88,0
465.41138,465.49518,58,74,0
465.57898,465.66278,60,69,0
465.57898,465.66278,65,81,0
465.57898,465.66278,57,69,0
465.74658,466.2494,60,75,0
465.74658,466.2494,65,89,0
465.74658,466.2494,57,75,0
466.2494,466.3332,75,90,0
466.3332,466.41696,77,91,0
466.41696,466.5015,78,93,0
466.41696,466.5015,66,93,0
466.586,466.6705,75,87,0
466.6705,466.755,77,90,0
466.755,466.83353,66,93,0
466.755,466.83353,78,93,0
466.91208,466.9906,66,84,0
466.91208,466.9906,75,84,0
467.06915,467.14767,66,90,0
467.06915,467.14767,78,90,0
467.14767,467.2262,77,83,0
467.2262,467.30475,75,83,0
467.30475,467.38327,74,83,0
467.38327,467.47644,75,90,0
467.93063,468.0104,58,46,0
467.93063,468.0104,54,46,0
467.93063,468.0104,66,55,0
468.08997,468.1691,59,49,0
468.08997,468.1691,54,49,0
468.08997,468.1691,66,58,0
468.24762,468.32593,60,51,0
468.24762,468.32593,56,51,0
468.24762,468.32593,68,60,0
468.40402,468.48486,61,55,0
468.40402,468.48486,56,55,0
468.40402,468.48486,68,65,0
468.5631,468.64093,58,50,0
468.5631,468.64093,70,59,0
468.5631,468.64093,66,59,0
468.71826,468.79507,66,53,0
468.71826,468.79507,59,53,0
468.71826,468.79507,71,63,0
468.87152,468.94757,68,56,0
468.87152,468.94757,60,56,0
468.87152,468.94757,72,67,0
469.02283,469.10458,68,59,0
469.02283,469.10458,61,59,0
469.02283,469.10458,73,70,0
469.18216,469.25858,70,52,0
469.18216,469.25858,66,52,0
469.18216,469.25858,78,63,0
469.33444,469.4099,71,55,0
469.33444,469.4099,66,55,0
469.33444,469.4099,78,66,0
469.4848,469.55917,72,58,0
469.4848,469.55917,68,58,0
469.4848,469.55917,80,69,0
469.63284,469.7115,73,63,0
469.63284,469.7115,68,63,0
469.63284,469.7115,80,74,0
469.7881,469.86365,70,57,0
469.7881,469.86365,82,67,0
469.7881,469.86365,78,67,0
469.93912,470.01413,78,60,0
469.93912,470.01413,71,60,0
469.93912,470.01413,83,72,0
470.0891,470.16385,80,64,0
470.0891,470.16385,72,64,0
470.0891,470.16385,84,76,0
470.23883,470.31497,80,67,0
470.23883,470.31497,73,67,0
470.23883,470.31497,85,80,0
470.3911,470.4661,82,62,0
470.3911,470.4661,78,62,0
470.3911,470.4661,90,73,0
470.54034,470.61423,83,63,0
470.54034,470.61423,78,63,0
470.54034,470.61423,90,75,0
470.6881,470.762,84,65,0
470.6881,470.762,80,65,0
470.6881,470.762,92,77,0
470.8359,470.9102,85,66,0
470.8359,470.9102,80,66,0
470.8359,470.9102,92,78,0
470.98462,471.05905,84,68,0
470.98462,471.05905,80,68,0
470.98462,471.05905,92,80,0
471.1335,471.20834,85,69,0
471.1335,471.20834,80,69,0
471.1335,471.20834,92,82,0
471.28333,471.35834,84,71,0
471.28333,471.35834,80,71,0
471.28333,471.35834,92,84,0
471.43335,471.5089,85,74,0
471.43335,471.5089,80,74,0
471.43335,471.5089,92,88,0
471.58447,471.66006,84,68,0
471.58447,471.66006,80,68,0
471.58447,471.66006,92,81,0
471.73553,471.81027,85,70,0
471.73553,471.81027,80,70,0
471.73553,471.81027,92,83,0
471.88583,471.9614,84,71,0
471.88583,471.9614,80,71,0
471.88583,471.9614,92,85,0
472.03696,472.11255,85,80,0
472.03696,472.11255,80,80,0
472.03696,472.11255,92,95,0
472.19098,472.27274,84,76,0
472.19098,472.27274,80,76,0
472.19098,472.27274,92,90,0
472.35812,472.4478,85,77,0
472.35812,472.4478,80,77,0
472.35812,472.4478,92,92,0
472.5419,472.64078,84,80,0
472.5419,472.64078,80,80,0
472.5419,472.64078,92,94,0
472.74625,472.88843,85,90,0
472.74625,472.88843,80,90,0
472.74625,472.88843,92,106,0
472.99973,473.05548,73,60,0
472.99973,473.05548,68,60,0
472.99973,473.05548,80,72,0
473.05548,473.11108,65,53,0
473.05548,473.11108,67,63,0
473.11108,473.1665,73,66,0
473.11108,473.1665,70,66,0
473.11108,473.1665,82,78,0
473.1665,473.22165,61,53,0
473.1665,473.22165,65,63,0
473.22165,473.27652,73,59,0
473.22165,473.27652,68,59,0
473.22165,473.27652,80,71,0
473.27652,473.33124,65,54,0
473.27652,473.33124,67,64,0
473.33124,473.3857,73,66,0
473.33124,473.3857,70,66,0
473.33124,473.3857,82,77,0
473.3857,473.43997,61,54,0
473.3857,473.43997,65,65,0
473.43997,473.49408,73,61,0
473.43997,473.49408,68,61,0
473.43997,473.49408,80,74,0
473.49408,473.54797,65,55,0
473.49408,473.54797,67,65,0
473.54797,473.60165,73,67,0
473.54797,473.60165,70,67,0
473.54797,473.60165,82,80,0
473.60165,473.6551,61,56,0
473.60165,473.6551,65,67,0
473.6551,473.7083,73,61,0
473.6551,473.7083,68,61,0
473.6551,473.7083,80,73,0
473.7083,473.76138,65,56,0
473.7083,473.76138,67,67,0
473.76138,473.81424,73,68,0
473.76138,473.81424,70,68,0
473.76138,473.81424,82,81,0
473.81424,473.86746,61,57,0
473.81424,473.86746,65,68,0
473.86746,473.92114,73,62,0
473.86746,473.92114,68,62,0
473.86746,473.92114,80,75,0
473.92114,473.97525,65,57,0
473.92114,473.97525,67,69,0
473.97525,474.0298,73,67,0
473.97525,474.0298,70,67,0
473.97525,474.0298,82,80,0
474.0298,474.08478,61,57,0
474.0298,474.08478,65,69,0
474.08478,474.14008,80,79,0
474.08478,474.14008,73,79,0
474.08478,474.14008,68,79,0
474.14008,474.19586,67,70,0
474.14008,474.19586,65,70,0
474.19586,474.25208,73,72,0
474.19586,474.25208,70,72,0
474.19586,474.25208,82,84,0
474.25208,474.3088,61,58,0
474.25208,474.3088,65,71,0
474.3088,474.366,73,67,0
474.3088,474.366,68,67,0
474.3088,474.366,80,79,0
474.366,474.42368,65,60,0
474.366,474.42368,67,72,0
474.42368,474.4828,73,71,0
474.42368,474.4828,70,71,0
474.42368,474.4828,82,83,0
474.4828,474.54318,61,57,0
474.4828,474.54318,65,68,0
474.54318,474.6044,73,66,0
474.54318,474.6044,68,66,0
474.54318,474.6044,80,77,0
474.77582,474.85373,85,64,0
474.77582,474.85373,89,64,0
474.85373,474.93167,87,63,0
474.93167,475.00958,85,62,0
475.00958,475.0875,79,60,0
475.0875,475.16544,77,59,0
475.0875,475.16544,73,59,0
475.16544,475.24335,75,58,0
475.24335,475.3213,73,56,0
475.3213,475.4898,67,55,0
475.4898,475.56775,85,64,0
475.4898,475.56775,89,64,0
475.56775,475.64566,87,63,0
475.64566,475.72357,85,62,0
475.72357,475.8015,79,60,0
475.8015,475.87943,77,59,0
475.8015,475.87943,73,59,0
475.87943,475.95734,75,58,0
475.95734,476.03528,73,56,0
476.03528,476.1983,67,55,0
476.1983,476.27686,90,64,0
476.1983,476.27686,94,64,0
476.27686,476.35538,92,63,0
476.35538,476.43393,90,62,0
476.43393,476.51245,84,60,0
476.51245,476.59097,82,59,0
476.51245,476.59097,78,59,0
476.59097,476.66953,80,58,0
476.66953,476.74805,78,56,0
476.74805,476.9166,72,55,0
476.9166,476.9945,90,64,0
476.9166,476.9945,94,64,0
476.9945,477.07245,92,63,0
477.07245,477.15036,90,62,0
477.15036,477.22827,84,60,0
477.22827,477.3062,82,59,0
477.22827,477.3062,78,59,0
477.3062,477.38412,80,58,0
477.38412,477.46204,78,56,0
477.46204,477.6251,72,55,0
477.6251,477.78815,73,64,0
477.93344,477.99017,85,60,0
477.93344,477.99017,80,60,0
477.93344,477.99017,92,72,0
477.99017,478.0466,77,53,0
477.99017,478.0466,79,63,0
478.0466,478.10284,85,66,0
478.0466,478.10284,82,66,0
478.0466,478.10284,94,78,0
478.10284,478.15887,73,53,0
478.10284,478.15887,77,63,0
478.15887,478.21463,85,59,0
478.15887,478.21463,80,59,0
478.15887,478.21463,92,71,0
478.21463,478.27014,77,54,0
478.21463,478.27014,79,64,0
478.27014,478.32544,85,66,0
478.27014,478.32544,82,66,0
478.27014,478.32544,94,77,0
478.32544,478.38043,73,54,0
478.32544,478.38043,77,65,0
478.38043,478.4352,85,61,0
478.38043,478.4352,80,61,0
478.38043,478.4352,92,74,0
478.4352,478.48978,77,55,0
478.4352,478.48978,79,65,0
478.48978,478.54407,85,67,0
478.48978,478.54407,82,67,0
478.48978,478.54407,94,80,0
478.54407,478.59818,73,56,0
478.54407,478.59818,77,67,0
478.59818,478.65207,85,61,0
478.59818,478.65207,80,61,0
478.59818,478.65207,92,73,0
478.65207,478.7057,77,56,0
478.65207,478.7057,79,67,0
478.7057,478.75906,85,68,0
478.7057,478.75906,82,68,0
478.7057,478.75906,94,81,0
478.75906,478.8126,73,57,0
478.75906,478.8126,77,68,0
478.8126,478.8663,85,62,0
478.8126,478.8663,80,62,0
478.8126,478.8663,92,75,0
478.8663,478.9203,77,57,0
478.8663,478.9203,79,69,0
478.9203,478.9745,85,67,0
478.9203,478.9745,82,67,0
478.9203,478.9745,94,80,0
478.9745,479.02887,73,57,0
478.9745,479.02887,77,69,0
479.02887,479.0834,92,79,0
479.02887,479.0834,85,79,0
479.02887,479.0834,80,79,0
479.0834,479.1382,79,70,0
479.0834,479.1382,77,70,0
479.1382,479.1932,85,72,0
479.1382,479.1932,82,72,0
479.1382,479.1932,94,84,0
479.1932,479.2484,73,58,0
479.1932,479.2484,77,71,0
479.2484,479.30386,85,67,0
479.2484,479.30386,80,67,0
479.2484,479.30386,92,79,0
479.30386,479.35956,77,60,0
479.30386,479.35956,79,72,0
479.35956,479.4156,85,71,0
479.35956,479.4156,82,71,0
479.35956,479.4156,94,83,0
479.4156,479.47345,73,57,0
479.4156,479.47345,77,68,0
479.47345,479.53342,85,66,0
479.47345,479.53342,80,66,0
479.47345,479.53342,92,77,0
479.70483,479.78275,97,64,0
479.70483,479.78275,101,64,0
479.78275,479.8607,99,63,0
479.8607,479.9386,97,62,0
479.9386,480.0165,91,60,0
480.0165,480.09445,89,59,0
480.0165,480.09445,85,59,0
480.09445,480.17236,87,58,0
480.17236,480.2503,85,56,0
480.2503,480.41882,79,55,0
480.41882,480.49677,85,64,0
480.41882,480.49677,89,64,0
480.49677,480.57468,87,63,0
480.57468,480.6526,85,62,0
480.6526,480.73053,79,60,0
480.73053,480.80844,77,59,0
480.73053,480.80844,73,59,0
480.80844,480.88635,75,58,0
480.88635,480.9643,73,56,0
480.9643,481.12732,67,55,0
481.12732,481.20587,90,64,0
481.12732,481.20587,94,64,0
481.20587,481.2844,92,63,0
481.2844,481.3629,90,62,0
481.3629,481.44147,84,60,0
481.44147,481.52,82,59,0
481.44147,481.52,78,59,0
481.52,481.59854,80,58,0
481.59854,481.67706,78,56,0
481.67706,481.8456,72,55,0
481.8456,481.92352,78,64,0
481.8456,481.92352,82,64,0
481.92352,482.00146,80,63,0
482.00146,482.07938,78,62,0
482.07938,482.1573,72,60,0
482.1573,482.23523,70,59,0
482.1573,482.23523,66,59,0
482.23523,482.31314,68,58,0
482.31314,482.39105,66,56,0
482.39105,482.54892,60,55,0
482.71936,482.80432,68,49,0
482.71936,482.80432,65,49,0
482.71936,482.80432,73,58,0
483.0573,483.1411,73,51,0
483.0573,483.1411,85,60,0
483.0573,483.1411,80,51,0
483.0573,483.1411,77,51,0
483.39108,483.4739,69,52,0
483.39108,483.4739,73,62,0
483.39108,483.4739,76,62,0
483.39108,483.4739,64,52,0
483.72064,483.8024,76,54,0
483.72064,483.8024,88,64,0
483.72064,483.8024,85,54,0
483.72064,483.8024,81,54,0
484.04626,484.12753,72,56,0
484.04626,484.12753,77,66,0
484.04626,484.12753,65,56,0
484.04626,484.12753,69,56,0
484.37308,484.45547,77,57,0
484.37308,484.45547,89,68,0
484.37308,484.45547,84,57,0
484.37308,484.45547,81,57,0
484.70398,484.78708,66,59,0
484.70398,484.78708,74,59,0
484.70398,484.78708,78,70,0
485.0387,485.131,78,61,0
485.0387,485.131,86,72,0
485.0387,485.131,90,72,0
485.38626,485.4687,73,58,0
485.38626,485.4687,68,58,0
485.38626,485.4687,77,69,0
485.38626,485.4687,65,58,0
485.71402,485.79544,77,61,0
485.71402,485.79544,89,72,0
485.71402,485.79544,85,61,0
485.71402,485.79544,80,61,0
486.03836,486.1188,69,62,0
486.03836,486.1188,73,74,0
486.03836,486.1188,81,74,0
486.03836,486.1188,76,62,0
486.3593,486.43912,88,64,0
486.3593,486.43912,90,76,0
486.3593,486.43912,85,64,0
486.3593,486.43912,81,64,0
486.67712,486.7568,72,67,0
486.67712,486.7568,81,79,0
486.67712,486.7568,77,67,0
486.67712,486.7568,69,67,0
486.9973,487.0781,89,68,0
486.9973,487.0781,93,81,0
486.9973,487.0781,84,68,0
486.9973,487.0781,81,68,0
487.32233,487.40417,78,70,0
487.32233,487.40417,69,70,0
487.32233,487.40417,81,84,0
487.32233,487.40417,74,70,0
487.65192,487.74255,90,73,0
487.65192,487.74255,81,86,0
487.65192,487.74255,93,86,0
487.65192,487.74255,86,86,0
487.99057,488.07037,80,58,0
487.99057,488.07037,77,58,0
487.99057,488.07037,85,69,0
487.99057,488.07037,73,58,0
488.30814,488.3873,85,61,0
488.30814,488.3873,97,72,0
488.30814,488.3873,92,61,0
488.30814,488.3873,89,61,0
488.623,488.7014,76,62,0
488.623,488.7014,81,74,0
488.623,488.7014,88,74,0
488.623,488.7014,85,62,0
488.93515,489.01276,97,64,0
488.93515,489.01276,100,76,0
488.93515,489.01276,93,64,0
488.93515,489.01276,88,64,0
489.24472,489.3215,81,67,0
489.24472,489.3215,89,79,0
489.24472,489.3215,84,67,0
489.24472,489.3215,77,67,0
489.55157,489.62772,96,68,0
489.55157,489.62772,101,81,0
489.55157,489.62772,93,68,0
489.55157,489.62772,89,68,0
489.85583,489.9314,86,70,0
489.85583,489.9314,90,84,0
489.85583,489.9314,78,70,0
490.15955,490.251,98,73,0
490.15955,490.251,102,73,0
490.15955,490.251,90,73,0
490.48645,490.56464,87,75,0
490.48645,490.56464,90,89,0
490.48645,490.56464,78,75,0
490.48645,490.56464,83,75,0
490.80673,490.89026,90,78,0
490.80673,490.89026,102,92,0
490.80673,490.89026,99,78,0
490.80673,490.89026,95,78,0
491.14984,491.23944,79,79,0
491.14984,491.23944,91,94,0
491.14984,491.23944,86,94,0
491.14984,491.23944,83,79,0
491.51895,491.72165,98,82,0
491.51895,491.72165,103,97,0
491.51895,491.72165,95,82,0
491.51895,491.72165,91,82,0
491.92435,492.1237,88,85,0
491.92435,492.1237,80,85,0
491.92435,492.1237,92,100,0
492.32303,492.52237,88,85,0
492.32303,492.52237,80,85,0
492.32303,492.52237,92,100,0
492.72168,493.12036,80,90,0
492.72168,493.12036,88,90,0
492.72168,493.12036,92,107,0
493.12036,493.21353,78,85,0
493.12036,493.21353,87,85,0
493.12036,493.21353,90,100,0
493.3067,493.39987,85,85,0
493.3067,493.39987,76,85,0
493.3067,493.39987,88,100,0
493.49304,493.59372,83,85,0
493.49304,493.59372,75,85,0
493.49304,493.59372,87,85,0
493.69437,493.79504,85,86,0
493.69437,493.79504,76,86,0
493.69437,493.79504,88,102,0
493.89572,493.9964,87,89,0
493.89572,493.9964,78,89,0
493.89572,493.9964,90,105,0
494.2984,494.70108,80,90,0
494.2984,494.70108,88,90,0
494.2984,494.70108,92,107,0
494.70108,494.79514,87,85,0
494.70108,494.79514,78,85,0
494.70108,494.79514,90,100,0
494.8892,494.98322,85,85,0
494.8892,494.98322,76,85,0
494.8892,494.98322,88,100,0
495.07727,495.17694,83,88,0
495.07727,495.17694,75,88,0
495.07727,495.17694,87,104,0
495.2766,495.37628,85,83,0
495.2766,495.37628,76,83,0
495.2766,495.37628,88,98,0
495.47592,495.5756,87,85,0
495.47592,495.5756,78,85,0
495.47592,495.5756,90,100,0
495.8746,496.2733,80,89,0
495.8746,496.2733,88,89,0
495.8746,496.2733,92,105,0
496.2733,496.3673,87,85,0
496.2733,496.3673,78,85,0
496.2733,496.3673,90,101,0
496.46136,496.55542,85,85,0
496.46136,496.55542,76,85,0
496.46136,496.55542,88,101,0
496.64944,496.74814,83,84,0
496.64944,496.74814,75,84,0
496.64944,496.74814,87,99,0
496.84683,496.9455,85,85,0
496.84683,496.9455,76,85,0
496.84683,496.9455,88,101,0
497.0442,497.14288,87,88,0
497.0442,497.14288,78,88,0
497.0442,497.14288,90,104,0
497.24155,497.3401,80,90,0
497.24155,497.3401,92,107,0
497.43594,497.53253,78,90,0
497.43594,497.53253,85,90,0
497.43594,497.53253,90,107,0
497.63028,497.72925,76,90,0
497.63028,497.72925,88,106,0
497.8293,497.9306,75,88,0
497.8293,497.9306,87,104,0
498.03305,498.13678,73,86,0
498.03305,498.13678,85,102,0
498.2419,499.02643,85,87,0
498.2419,499.02643,89,103,0
498.2419,499.02643,77,87,0
498.2419,499.02643,80,87,0
499.02643,499.14093,75,85,0
499.02643,499.14093,87,101,0
499.14093,499.8058,78,92,0
499.14093,499.8058,90,109,0
499.14093,499.8058,84,92,0
499.8058,500.01556,72,85,0
499.8058,500.01556,84,101,0
500.01556,500.12387,75,90,0
500.01556,500.12387,87,107,0
500.4488,501.31522,80,83,0
500.4488,501.31522,85,98,0
500.4488,501.31522,73,83,0
500.4488,501.31522,77,83,0
501.31522,501.54163,77,83,0
501.31522,501.54163,73,83,0
501.31522,501.54163,85,98,0
501.76804,501.99448,85,91,0
501.76804,501.99448,82,91,0
501.76804,501.99448,94,108,0
502.21344,502.4324,85,89,0
502.21344,502.4324,82,89,0
502.21344,502.4324,94,105,0
502.66678,503.57077,86,91,0
502.66678,503.57077,92,108,0
502.66678,503.57077,80,91,0
502.66678,503.57077,83,91,0
503.57077,503.80243,82,85,0
503.57077,503.80243,78,85,0
503.57077,503.80243,90,100,0
504.02142,504.93008,82,89,0
504.02142,504.93008,78,89,0
504.02142,504.93008,90,105,0
504.93008,505.428,82,86,0
504.93008,505.428,78,86,0
504.93008,505.428,90,102,0
505.428,505.88904,94,94,0
505.428,505.88904,85,94,0
505.428,505.88904,97,111,0
505.88904,506.36502,94,88,0
505.88904,506.36502,85,88,0
505.88904,506.36502,97,104,0
506.36502,506.8515,92,93,0
506.36502,506.8515,84,93,0
506.36502,506.8515,96,110,0
506.8515,507.35135,90,86,0
506.8515,507.35135,82,86,0
506.8515,507.35135,94,102,0
507.35135,507.59427,89,87,0
507.35135,507.59427,80,87,0
507.35135,507.59427,92,103,0
507.8563,508.88925,89,90,0
507.8563,508.88925,92,106,0
507.8563,508.88925,80,90,0
507.8563,508.88925,85,90,0
509.13217,509.3751,81,86,0
509.13217,509.3751,93,102,0
509.3751,509.618,82,92,0
509.3751,509.618,94,109,0
510.10385,510.3465,77,81,0
510.10385,510.3465,89,96,0
510.3465,510.57397,78,86,0
510.3465,510.57397,90,102,0
510.57397,510.7883,74,79,0
510.57397,510.7883,86,93,0
510.7883,510.9945,75,85,0
510.7883,510.9945,87,100,0
510.9945,511.19305,71,79,0
510.9945,511.19305,83,93,0
511.19305,511.38538,72,85,0
511.19305,511.38538,84,101,0
511.38538,511.57294,69,77,0
511.38538,511.57294,81,91,0
511.57294,511.75684,70,82,0
511.57294,511.75684,82,97,0
511.75684,511.93936,65,76,0
511.75684,511.93936,77,90,0
511.93936,512.12024,66,83,0
511.93936,512.12024,78,98,0
512.12024,512.29974,62,74,0
512.12024,512.29974,74,88,0
512.29974,512.4778,63,81,0
512.29974,512.4778,75,96,0
512.4778,512.6536,59,76,0
512.4778,512.6536,71,91,0
512.6536,512.827,60,81,0
512.6536,512.827,72,96,0
512.827,513.00183,57,79,0
512.827,513.00183,69,93,0
513.00183,513.1776,58,84,0
513.00183,513.1776,70,100,0
513.1776,513.3546,53,80,0
513.1776,513.3546,65,95,0
513.3546,513.53705,54,87,0
513.3546,513.53705,66,103,0
513.53705,513.7263,50,84,0
513.53705,513.7263,62,99,0
513.7263,513.9237,51,90,0
513.7263,513.9237,63,107,0
513.9237,514.1292,54,86,0
513.9237,514.1292,48,86,0
513.9237,514.1292,60,102,0
514.1292,514.9474,54,90,0
514.1292,515.08374,49,90,0
514.1292,515.08374,61,106,0
515.1292,515.2201,54,79,0
515.1292,515.2201,66,94,0
515.2201,516.1747,54,88,0
515.2201,516.1747,66,104,0
516.2201,516.31104,52,75,0
516.2201,516.31104,64,89,0
516.31104,516.7437,52,83,0
516.31104,516.7437,57,83,0
516.31104,516.7437,64,98,0
516.7918,516.88794,50,78,0
516.7918,516.88794,62,92,0
516.88794,517.3206,50,84,0
516.88794,517.3206,62,99,0
516.88794,517.3206,57,84,0
517.3687,517.4649,49,73,0
517.3687,517.4649,61,87,0
517.4649,517.87964,49,82,0
517.4649,517.87964,61,97,0
517.4649,517.87964,57,97,0
517.9257,518.0179,48,76,0
517.9257,518.0179,60,90,0
518.0179,518.46344,48,82,0
518.0179,518.46344,57,82,0
518.0179,518.46344,60,97,0
518.51294,518.61194,49,76,0
518.51294,518.61194,61,90,0
518.61194,518.9119,49,82,0
518.61194,518.9119,61,97,0
519.2119,519.49695,69,81,0
519.2119,519.49695,81,96,0
519.2119,519.49695,78,81,0
519.2119,519.49695,73,81,0
519.782,520.05914,80,81,0
519.782,520.05914,85,96,0
519.782,520.05914,73,81,0
519.782,520.05914,77,81,0
520.05914,520.3363,84,81,0
520.05914,520.3363,87,96,0
520.05914,520.3363,75,81,0
520.05914,520.3363,80,81,0
520.3363,520.6134,85,81,0
520.3363,520.6134,89,96,0
520.3363,520.6134,77,81,0
520.3363,520.6134,80,81,0
520.6134,520.89056,87,81,0
520.6134,520.89056,92,96,0
520.6134,520.89056,80,81,0
520.6134,520.89056,84,81,0
520.89056,521.1602,92,81,0
520.89056,521.1602,97,96,0
520.89056,521.1602,85,81,0
520.89056,521.1602,89,81,0
521.9692,522.24634,82,85,0
521.9692,522.24634,85,100,0
521.9692,522.24634,73,85,0
521.9692,522.24634,78,85,0
523.106,523.3973,56,92,0
523.106,523.3973,53,89,0
523.106,523.3973,61,107,0
1.8387418,1.9078662,61,74,0
1.8387418,1.9078662,49,65,0
1.9309077,2.8854532,61,82,0
1.9309077,2.8854532,49,72,0
2.9309077,2.9990895,66,72,0
2.9309077,2.9990895,54,72,0
3.0218167,3.9763622,54,81,0
3.0218167,3.9763622,66,81,0
4.0218167,4.0899982,64,73,0
4.0218167,4.0899982,52,64,0
4.1127257,4.545418,64,80,0
4.1127257,4.545418,52,70,0
4.593495,4.6656103,63,65,0
4.593495,4.6656103,51,65,0
4.6896486,5.122341,63,80,0
4.6896486,5.122341,51,70,0
5.170418,5.242533,61,74,0
5.170418,5.242533,49,65,0
5.2665715,5.6813183,61,81,0
5.2665715,5.6813183,49,71,0
5.7274013,5.796526,60,73,0
5.7274013,5.796526,48,64,0
5.819567,6.265112,60,80,0
5.819567,6.265112,48,70,0
6.3146167,6.388874,61,72,0
6.3146167,6.388874,49,63,0
6.4136267,6.810978,61,81,0
6.4136267,6.810978,49,71,0
7.2083287,7.310566,31,40,0
7.310566,7.402732,40,29,0
7.402732,7.4944577,31,40,0
7.4944577,7.5853667,40,31,0
7.5853667,7.6757255,31,39,0
7.6757255,7.7654114,40,30,0
7.7654114,7.8544726,31,39,0
7.8544726,7.9429684,40,34,0
7.9429684,8.030768,31,41,0
8.030768,8.118105,40,37,0
8.118105,8.2052145,31,43,0
8.2052145,8.291422,40,38,0
8.291422,8.377326,31,44,0
8.377326,8.462433,40,41,0
8.462433,8.547163,31,46,0
8.547163,8.631197,40,42,0
8.631197,8.71476,31,48,0
8.71476,8.796778,40,43,0
8.796778,8.878745,31,49,0
8.878745,8.960165,40,45,0
8.960165,9.041137,31,51,0
9.041137,9.121477,40,45,0
9.121477,9.201477,31,53,0
9.201477,9.280789,40,47,0
9.280789,9.35984,31,54,0
9.35984,9.43815,40,49,0
9.43815,9.517395,31,56,0
9.517395,9.597784,40,52,0
9.597784,9.679676,31,57,0
9.679676,9.76311,40,58,0
9.76311,9.84311,31,59,0
9.84311,9.92311,40,60,0
9.92311,10.00311,31,61,0
10.00311,10.08311,40,62,0
10.08311,10.16311,31,62,0
10.16311,10.242873,40,63,0
10.242873,10.3221855,31,64,0
10.3221855,10.403286,40,65,0
10.403286,10.48561,31,67,0
10.48561,10.569942,40,68,0
10.569942,10.655544,31,69,0
10.655544,10.743375,40,70,0
10.792879,10.89189,39,72,0
10.792879,10.89189,30,67,0
10.89189,11.188919,40,82,0
10.89189,11.188919,31,78,0
18.409836,18.508018,29,40,0
18.508018,18.601477,38,29,0
18.601477,18.694935,29,40,0
18.694935,18.787262,38,31,0
18.787262,18.879427,29,39,0
18.879427,18.970997,38,30,0
18.970997,19.061905,29,39,0
19.061905,19.152723,38,34,0
19.152723,19.242409,29,41,0
19.242409,19.332096,38,37,0
19.332096,19.421543,29,43,0
19.421543,19.510038,38,38,0
19.510038,19.598534,29,44,0
19.598534,19.686102,38,41,0
19.686102,19.77344,29,46,0
19.77344,19.860323,38,42,0
19.860323,19.94653,29,48,0
19.94653,20.032738,38,43,0
20.032738,20.11779,29,49,0
20.11779,20.201746,38,45,0
20.201746,20.284605,29,51,0
20.284605,20.366423,38,45,0
20.366423,20.4472,29,53,0
20.4472,20.526962,38,47,0
20.526962,20.60576,29,54,0
20.60576,20.68359,38,49,0
20.68359,20.761127,29,56,0
20.761127,20.840063,38,52,0
20.840063,20.92043,29,57,0
20.92043,21.001873,38,58,0
21.001873,21.085411,29,59,0
21.085411,21.168869,38,60,0
21.168869,21.25112,29,61,0
21.25112,21.331945,38,63,0
21.331945,21.411757,29,64,0
21.411757,21.490135,38,65,0
21.490135,21.567339,29,66,0
21.567339,21.643963,38,67,0
21.643963,21.721498,29,68,0
21.721498,21.800434,38,69,0
21.800434,21.880363,29,70,0
21.880363,21.96176,38,71,0
21.96176,22.051445,28,65,0
21.96176,22.051445,37,72,0
22.096289,22.365347,38,81,0
22.096289,22.365347,29,75,0
24.296345,24.410849,56,73,0
24.410849,25.895733,56,73,0
25.895733,25.98804,57,73,0
25.98804,26.080349,59,73,0
26.080349,26.941048,52,73,0
27.597982,27.807774,52,73,0
27.807774,29.025564,54,73,0
29.025564,29.127258,57,73,0
29.127258,29.228954,56,73,0
29.228954,29.330648,54,73,0
29.330648,29.432343,56,73,0
29.432343,29.534039,57,73,0
29.534039,30.400923,56,73,0
31.06513,31.286531,52,73,0
31.286531,32.79898,61,73,0
32.79898,32.89129,62,73,0
32.89129,32.983597,64,73,0
32.983597,33.85684,57,73,0
34.52104,34.730835,57,75,0
34.730835,35.974857,60,77,0
35.974857,36.076553,63,73,0
36.076553,36.178246,61,73,0
36.178246,36.27994,60,73,0
36.27994,36.388245,61,73,0
36.388245,36.496548,63,73,0
36.496548,37.41258,61,73,0
42.745926,43.14504,57,70,0
43.14504,43.238716,59,63,0
43.215298,43.306877,61,63,0
43.285557,43.66935,54,70,0
43.66935,43.758636,56,65,0
43.736317,43.823814,57,66,0
43.80328,44.17289,49,70,0
44.17289,44.25928,51,63,0
44.237682,44.32276,52,63,0
44.30248,44.66759,45,70,0
44.66759,44.7518,47,66,0
44.730747,44.814438,49,66,0
44.793907,45.163517,42,70,0
45.163517,45.24991,44,62,0
45.22831,45.315884,45,62,0
45.293106,45.566452,39,68,0
45.566452,45.63669,40,55,0
45.63669,45.709084,39,49,0
45.709084,45.78465,40,55,0
45.78465,45.859325,39,48,0
45.859325,45.930893,40,55,0
45.930893,46.0034,39,50,0
46.0034,46.07279,40,55,0
46.07279,46.141037,39,51,0
46.141037,46.21081,40,55,0
46.21081,46.27841,39,50,0
46.27841,46.346687,40,55,0
46.346687,46.41542,39,52,0
46.41542,46.481155,40,55,0
46.481155,46.548172,39,50,0
46.548172,46.617302,40,55,0
46.617302,46.683468,39,51,0
46.683468,46.7509,40,55,0
46.7509,46.8199,39,50,0
46.8199,46.88678,40,55,0
46.88678,46.9526,39,52,0
46.9526,47.01834,40,55,0
47.01834,47.08585,39,50,0
47.08585,47.151325,40,55,0
47.151325,47.21612,39,51,0
47.21612,47.284508,40,55,0
47.284508,47.35184,39,50,0
47.35184,47.420536,40,55,0
47.420536,47.4914,39,52,0
47.4914,47.587143,38,55,0
47.571186,47.66693,39,52,0
47.650974,47.74672,40,55,0
47.730762,47.826508,39,50,0
47.81055,47.906292,37,51,0
47.890335,47.98608,35,53,0
47.970123,48.06587,33,54,0
48.04991,48.145657,32,56,0
48.1297,48.226246,33,57,0
48.209484,48.46088,29,59,0
48.46088,48.57729,30,51,0
48.55555,48.681328,32,51,0
48.66114,48.785362,33,51,0
48.76518,48.888626,35,52,0
48.868626,48.971027,37,52,0
48.971027,49.092937,39,54,0
49.07198,49.192493,40,54,0
49.173256,49.29102,42,54,0
49.271904,49.388702,44,55,0
49.36975,49.48704,45,55,0
49.466812,49.583157,47,56,0
49.5631,49.679146,49,56,0
49.66052,49.77513,51,57,0
49.756508,49.87112,52,57,0
49.852497,49.968544,48,64,0
49.948486,50.06453,51,60,0
50.044476,50.16052,49,65,0
50.141895,50.256794,47,67,0
50.238007,50.353992,45,72,0
50.335045,50.453762,44,75,0
50.433174,50.553158,45,78,0
50.532265,50.65233,41,81,0
50.6342,50.755848,42,84,0
50.73415,50.86149,43,87,0
50.841866,50.94791,44,89,0
50.95203,51.2817,44,93,0
51.61137,51.941044,32,92,0
52.105877,52.199432,61,42,0
52.105877,52.199432,73,50,0
52.105877,52.199432,64,50,0
52.230618,53.62009,64,49,0
52.230618,53.62009,61,49,0
52.230618,53.62009,73,58,0
53.62009,53.71483,63,42,0
53.62009,53.71483,59,42,0
53.62009,53.71483,71,50,0
53.745716,54.09908,63,49,0
53.745716,54.09908,59,49,0
53.745716,54.09908,71,58,0
54.09908,54.186176,61,42,0
54.09908,54.186176,57,42,0
54.09908,54.186176,69,50,0
54.215134,54.558113,61,47,0
54.215134,54.558113,57,47,0
54.215134,54.558113,69,56,0
54.558113,54.6427,57,42,0
54.558113,54.6427,54,42,0
54.558113,54.6427,66,50,0
54.670734,55.00226,57,47,0
54.670734,55.00226,54,47,0
54.670734,55.00226,66,56,0
55.00226,55.08344,56,44,0
55.00226,55.08344,52,44,0
55.00226,55.08344,64,52,0
55.110367,55.430893,56,49,0
55.110367,55.430893,52,49,0
55.110367,55.430893,64,58,0
55.430893,55.510963,52,42,0
55.430893,55.510963,49,42,0
55.430893,55.510963,61,50,0
55.53765,55.85685,52,47,0
55.53765,55.85685,49,47,0
55.53765,55.85685,61,56,0
55.85685,55.936405,51,42,0
55.85685,55.936405,47,42,0
55.85685,55.936405,59,50,0
55.963,56.2799,51,47,0
55.963,56.2799,47,47,0
55.963,56.2799,59,57,0
56.2799,56.359127,49,45,0
56.2799,56.359127,45,45,0
56.2799,56.359127,57,53,0
56.385536,56.702435,49,48,0
56.385536,56.702435,45,48,0
56.385536,56.702435,57,58,0
56.702435,56.781662,45,46,0
56.702435,56.781662,42,46,0
56.702435,56.781662,54,55,0
56.80807,57.12497,45,50,0
56.80807,57.12497,42,50,0
56.80807,57.12497,54,59,0
57.12497,57.204197,44,47,0
57.12497,57.204197,40,47,0
57.12497,57.204197,52,56,0
57.230606,57.54751,44,50,0
57.230606,57.54751,40,50,0
57.230606,57.54751,52,60,0
57.54751,57.626545,40,48,0
57.54751,57.626545,37,48,0
57.54751,57.626545,49,58,0
57.652817,57.968052,40,51,0
57.652817,57.968052,37,51,0
57.652817,57.968052,49,61,0
57.968052,58.046864,39,49,0
57.968052,58.046864,35,49,0
57.968052,58.046864,47,59,0
58.07313,58.401646,39,53,0
58.07313,58.401646,35,53,0
58.07313,58.401646,47,63,0
58.401646,58.488407,40,50,0
58.401646,58.488407,33,50,0
58.401646,58.488407,45,60,0
58.517254,58.98575,40,68,0
58.517254,58.98575,33,68,0
58.517254,58.98575,45,81,0
58.98575,59.467224,31,68,0
58.98575,59.467224,43,80,0
59.467224,59.972027,29,71,0
59.467224,59.972027,41,84,0
59.972027,60.47729,28,71,0
59.972027,60.47729,40,84,0
60.47729,61.001957,26,70,0
60.47729,61.001957,38,83,0
61.001957,61.527122,25,68,0
61.001957,61.527122,37,80,0
61.527122,61.925793,24,72,0
61.527122,61.925793,36,85,0
61.925793,63.565094,33,69,0
61.925793,63.565094,45,81,0
63.565094,64.86944,32,67,0
63.565094,64.86944,44,79,0
65.65987,66.75077,44,53,0
65.65987,66.75077,37,53,0
65.65987,66.75077,49,63,0
66.75077,67.84168,45,52,0
66.75077,67.84168,36,52,0
66.75077,67.84168,51,62,0
67.84168,68.4186,44,50,0
67.84168,68.4186,37,50,0
67.84168,68.4186,49,59,0
68.4186,68.99553,42,44,0
68.4186,68.99553,30,44,0
68.4186,68.99553,45,52,0
68.99553,69.54852,40,51,0
68.99553,69.54852,32,51,0
68.99553,69.54852,44,60,0
69.54852,70.142586,32,48,0
69.54852,70.142586,44,57,0
69.54852,70.142586,42,48,0
69.54852,70.142586,39,48,0
70.142586,70.53993,44,57,0
70.142586,70.53993,40,52,0
70.142586,70.53993,37,52,0
70.93729,71.14791,42,57,0
70.93729,71.14791,37,52,0
70.93729,71.14791,30,52,0
72.6218,72.749466,40,57,0
72.6218,72.749466,37,52,0
74.00496,75.09586,51,53,0
74.00496,75.09586,44,53,0
74.00496,75.09586,56,63,0
75.09586,76.24971,52,52,0
75.09586,76.24971,43,52,0
75.09586,76.24971,58,62,0
76.24971,76.80302,51,50,0
76.24971,76.80302,44,50,0
76.24971,76.80302,56,59,0
76.80302,77.33399,49,44,0
76.80302,77.33399,37,44,0
76.80302,77.33399,52,52,0
77.33399,77.886986,47,51,0
77.33399,77.886986,39,51,0
77.33399,77.886986,51,60,0
77.886986,78.49,39,48,0
77.886986,78.49,51,57,0
77.886986,78.49,49,48,0
77.886986,78.49,46,48,0
78.49,78.88735,51,57,0
78.49,78.88735,47,52,0
78.49,78.88735,44,52,0
79.2847,79.39108,46,50,0
79.39108,79.49532,44,45,0
79.49532,79.598274,46,50,0
79.598274,79.69875,44,45,0
79.69875,79.79842,46,50,0
79.79842,79.89711,44,45,0
79.89711,79.99502,46,50,0
79.99502,80.09217,44,45,0
80.09217,80.1901,46,50,0
80.1901,80.29462,44,45,0
80.29462,80.40842,43,50,0
80.40842,80.52711,44,45,0
79.2847,80.52711,37,46,0
80.52711,80.66743,47,54,0
80.66743,80.814575,46,49,0
80.814575,80.96922,44,49,0
80.96922,81.2036,44,45,0
80.96922,81.2036,39,41,0
80.96922,81.2036,32,41,0
82.779755,86.21629,56,48,0
82.7207,86.21629,47,46,0
82.661644,86.21629,40,44,0
86.21629,88.112236,35,39,0
86.21629,88.112236,51,46,0
88.112236,89.73543,40,32,0
88.112236,89.73543,47,39,0
89.7889,89.93329,52,52,0
89.94933,91.13795,52,44,0
91.13795,91.32428,54,35,0
91.32428,91.5507,56,38,0
89.94933,91.5507,47,40,0
89.94933,91.5507,40,37,0
91.5507,92.10252,57,41,0
92.10252,92.351036,57,40,0
92.351036,92.53562,57,44,0
92.580315,92.7639,56,43,0
92.811806,93.026566,55,41,0
91.5507,93.08026,52,40,0
91.5507,93.08026,45,37,0
93.08026,93.81411,56,44,0
93.08026,93.81872,52,36,0
93.08026,93.81872,44,36,0
93.81872,94.63236,37,32,0
93.81872,94.63236,52,38,0
94.63236,95.37771,35,33,0
94.63236,95.37771,54,40,0
95.37771,96.26965,47,31,0
95.37771,96.26965,51,37,0
96.26965,97.117714,47,36,0
96.26965,97.117714,40,36,0
96.26965,97.117714,52,42,0
99.92231,100.34189,37,48,0
100.34189,101.54115,52,36,0
100.34189,101.54115,64,43,0
100.34189,101.54115,61,36,0
100.34189,101.54115,56,36,0
101.54115,101.96518,37,48,0
101.96518,103.18168,56,36,0
101.96518,103.18168,68,43,0
101.96518,103.18168,64,36,0
101.96518,103.18168,61,36,0
103.35022,103.689896,44,48,0
103.35022,103.689896,32,48,0
103.689896,105.04116,63,43,0
103.689896,105.04116,54,36,0
103.689896,105.04116,56,36,0
103.689896,105.04116,60,36,0
105.101166,105.50468,49,48,0
105.101166,105.50468,37,48,0
105.50468,106.36182,64,43,0
105.50468,106.36182,52,36,0
105.50468,106.36182,56,36,0
105.50468,106.36182,61,36,0
106.5761,106.79039,49,51,0
106.5761,106.79039,56,61,0
106.79039,107.94055,49,56,0
106.79039,107.94055,42,56,0
106.79039,107.94055,54,67,0
107.94055,108.31726,66,66,0
108.35151,108.63632,66,70,0
108.63632,108.70752,64,67,0
108.731255,109.0448,64,70,0
109.0448,109.13167,63,67,0
109.16063,109.671265,63,67,0
110.26797,110.42531,57,38,0
110.26797,110.42531,54,38,0
110.26797,110.42531,63,45,0
110.47775,111.30281,61,52,0
110.42531,111.30281,44,58,0
111.30281,111.70959,56,42,0
111.30281,111.70959,64,50,0
112.11636,112.49612,60,51,0
112.06552,112.49612,44,43,0
112.87586,113.25561,56,37,0
112.87586,113.25561,63,44,0
113.63535,114.44474,56,43,0
113.63535,114.44474,49,43,0
113.63535,114.44474,61,51,0
114.44474,115.31353,44,42,0
114.44474,115.31353,54,50,0
115.31353,115.74674,37,42,0
115.31353,115.74674,52,50,0
117.07633,117.23177,49,61,0
117.23177,117.38721,48,61,0
117.38721,117.54265,47,60,0
117.54265,117.69809,46,59,0
117.69809,117.85353,45,58,0
117.85353,118.00897,44,57,0
118.00897,118.16441,43,56,0
118.16441,118.319855,44,55,0
117.07633,118.319855,37,55,0
118.319855,118.475296,45,60,0
118.475296,118.63074,44,53,0
118.63074,118.78617,43,53,0
118.78617,118.94161,42,53,0
118.94161,119.09705,41,53,0
119.09705,119.252495,40,53,0
119.252495,119.407936,39,53,0
118.319855,119.56338,36,55,0
119.407936,119.56338,36,53,0
119.73192,119.90045,38,52,0
119.90045,120.06899,39,53,0
120.06899,120.23753,40,54,0
119.56338,120.23753,37,52,0
120.23753,120.406075,41,54,0
120.406075,120.574615,42,55,0
120.574615,120.74315,41,56,0
120.74315,120.91169,42,56,0
120.23753,120.91169,30,51,0
120.91169,121.07212,43,57,0
121.07212,121.232544,44,58,0
121.232544,121.392975,43,59,0
121.392975,121.553406,44,59,0
120.91169,121.553406,32,51,0
121.553406,121.711296,45,60,0
121.711296,121.869194,44,61,0
121.869194,122.027084,45,61,0
122.027084,122.18498,44,62,0
122.18498,122.58233,44,68,0
122.18498,122.58233,37,68,0
122.97425,123.06791,37,56,0
123.06791,123.160484,39,51,0
122.97425,123.2062,30,52,0
123.160484,123.25148,37,56,0
123.25148,123.34138,39,51,0
123.34138,123.44863,37,51,0
123.44863,123.548386,36,56,0
123.548386,123.64609,37,51,0
123.64853,123.744896,39,56,0
123.744896,123.83968,40,51,0
123.83968,123.93282,42,56,0
123.93282,124.02468,44,51,0
124.02468,124.114365,45,56,0
124.11661,124.20629,44,51,0
124.20629,124.29598,42,50,0
124.29598,124.385666,40,51,0
124.385666,124.47535,39,52,0
124.47535,124.56504,37,53,0
124.56504,124.65694,36,55,0
124.65928,124.7532,37,56,0
124.7532,124.84918,39,57,0
124.84918,124.94722,40,59,0
124.94722,125.047646,39,61,0
125.047646,125.22793,37,62,0
125.233086,125.4884,40,62,0
125.078445,125.4884,25,52,0
126.66555,126.82345,56,61,0
126.82345,126.98134,55,61,0
126.98134,127.13924,54,60,0
127.13924,127.297134,53,59,0
127.297134,127.455025,52,58,0
127.455025,127.61292,51,57,0
127.61292,127.77081,50,56,0
127.77081,127.92871,51,55,0
126.66555,127.92871,44,55,0
127.92871,128.08661,52,60,0
128.08661,128.2445,51,53,0
128.2445,128.40239,50,53,0
128.40239,128.56029,49,53,0
128.56029,128.71819,48,53,0
128.71819,128.87608,47,53,0
127.92871,128.98134,43,55,0
128.87608,129.03397,46,53,0
129.03397,129.19186,43,53,0
129.3633,129.53473,45,52,0
129.53473,129.70616,46,53,0
129.70616,129.87758,47,54,0
129.19186,129.87758,44,52,0
129.87758,130.04901,48,54,0
130.04901,130.22044,49,55,0
130.22044,130.39186,48,56,0
130.39186,130.5633,49,56,0
129.87758,130.5633,37,51,0
130.5633,130.71635,50,57,0
130.71635,130.86942,51,58,0
130.86942,131.02248,50,59,0
131.02248,131.17554,51,59,0
131.17554,131.33344,52,60,0
131.33344,131.49133,51,61,0
131.49133,131.64923,52,61,0
131.64923,131.80711,51,62,0
131.80711,132.20447,51,63,0
131.80711,132.20447,44,55,0
132.59657,132.69249,44,56,0
132.69249,132.7866,45,51,0
132.59657,132.83286,37,52,0
132.7866,132.87857,44,56,0
132.87857,132.96846,45,51,0
132.96846,133.06113,44,51,0
133.06113,133.16162,43,56,0
133.16162,133.26079,44,51,0
133.26326,133.36122,46,56,0
133.36122,133.45804,47,51,0
133.45804,133.55374,49,56,0
133.55374,133.64838,51,51,0
133.64838,133.74115,52,56,0
133.74345,133.83562,51,51,0
133.83562,133.92778,49,50,0
133.92778,134.01994,47,51,0
134.01994,134.11212,46,52,0
134.11212,134.20428,44,53,0
134.20428,134.2968,43,55,0
134.29913,134.39307,44,56,0
134.39307,134.48904,46,57,0
134.48904,134.58708,47,59,0
134.58708,134.68752,46,61,0
134.68752,134.8678,44,62,0
134.87294,135.12827,44,62,0
134.87294,135.12827,32,52,0
134.87294,135.12827,39,52,0
136.2772,136.40486,64,50,0
136.40486,136.48158,71,50,0
136.40486,136.48158,76,59,0
136.94194,137.01868,59,49,0
137.01868,137.0954,71,49,0
137.01868,137.0954,76,58,0
137.55576,137.63249,64,55,0
137.63249,138.19063,71,53,0
137.63249,138.19063,76,63,0
138.19063,138.63669,59,44,0
138.63669,138.68686,63,57,0
138.68686,139.22035,71,54,0
138.68686,139.22035,78,64,0
139.69005,139.75792,64,55,0
139.22035,139.75792,59,47,0
139.75792,140.3009,71,53,0
139.75792,140.3009,76,63,0
140.3009,140.73514,59,46,0
140.73514,140.78687,63,57,0
140.78687,141.34389,71,54,0
140.78687,141.34389,78,64,0
141.80229,141.86925,64,55,0
141.34389,141.86925,59,49,0
141.86925,142.40497,71,53,0
141.86925,142.40497,76,63,0
142.40497,142.83537,59,47,0
142.83537,142.88708,63,57,0
142.88708,143.42874,71,54,0
142.88708,143.42874,78,64,0
143.88522,143.95264,68,57,0
143.42874,143.95264,59,48,0
143.95264,144.42456,71,53,0
143.95264,144.42456,76,63,0
144.49197,144.96158,80,59,0
144.45827,144.96158,71,51,0
144.42456,144.96158,64,47,0
145.02638,145.4169,78,64,0
144.99399,145.4169,71,58,0
144.96158,145.4169,63,53,0
145.47702,145.93626,76,59,0
145.44696,145.93626,68,54,0
145.4169,145.93626,61,51,0
146.00461,146.51059,75,64,0
145.97043,146.51059,68,54,0
145.93626,146.51059,60,52,0
146.51059,147.03432,56,50,0
147.03432,147.40797,76,64,0
147.00082,147.40797,68,58,0
146.96735,147.40797,61,53,0
147.46136,147.97244,56,50,0
147.97244,148.50003,75,64,0
147.94125,148.50003,68,54,0
147.91008,148.50003,60,52,0
148.50003,149.03804,56,50,0
149.03804,149.40776,76,64,0
149.00339,149.40776,68,58,0
148.96875,149.40776,61,53,0
149.46057,149.9999,56,50,0
149.9999,150.52505,75,64,0
149.96619,150.52505,68,54,0
149.93248,150.52505,60,52,0
150.52505,151.06477,56,50,0
151.06477,151.4345,76,64,0
151.03014,151.4345,68,58,0
150.9955,151.4345,61,53,0
151.48732,152.01947,73,42,0
151.48732,152.01947,69,42,0
151.48732,152.01947,76,50,0
152.01947,152.57373,75,64,0
152.01947,152.57373,73,54,0
152.01947,152.57373,66,52,0
152.57373,153.11673,73,42,0
152.57373,153.11673,78,50,0
152.57373,153.11673,63,42,0
152.57373,153.11673,69,42,0
153.11673,153.6201,76,64,0
153.11673,153.6201,73,54,0
153.11673,153.6201,68,54,0
153.6201,154.01778,78,64,0
153.6201,154.01778,75,54,0
153.6201,154.01778,68,54,0
154.12415,154.63785,76,64,0
154.01778,154.63785,61,54,0
154.05447,154.63785,68,54,0
154.08952,154.63785,73,54,0
155.9758,156.05254,76,53,0
155.9758,156.05254,71,45,0
155.68872,156.28271,64,49,0
156.55606,156.62941,76,52,0
156.55606,156.62941,71,44,0
156.28271,156.84946,59,49,0
157.12852,157.19829,76,59,0
157.12852,157.19829,71,50,0
156.84946,157.4076,64,49,0
157.66678,157.71988,71,49,0
157.66678,157.71988,76,58,0
157.4076,157.87917,59,49,0
158.16219,158.22697,71,50,0
158.16219,158.22697,78,59,0
157.87917,158.42136,63,49,0
158.68744,158.75531,71,49,0
158.68744,158.75531,75,58,0
158.42136,158.95894,59,49,0
159.238,159.30777,76,59,0
159.238,159.30777,71,50,0
158.95894,159.51707,64,49,0
159.77794,159.83076,71,49,0
159.77794,159.83076,76,58,0
159.51707,159.98921,59,49,0
160.2607,160.3255,71,50,0
160.2607,160.3255,78,59,0
159.98921,160.51988,63,49,0
160.78595,160.85384,71,49,0
160.78595,160.85384,75,58,0
160.51988,161.05745,59,49,0
161.33652,161.40628,76,59,0
161.33652,161.40628,71,50,0
161.05745,161.61559,64,49,0
161.88167,161.93774,71,49,0
161.88167,161.93774,80,58,0
161.61559,162.10596,64,49,0
162.33153,162.38956,71,50,0
162.33153,162.38956,78,59,0
162.10596,162.56363,63,49,0
162.82971,162.8902,73,49,0
162.82971,162.8902,76,58,0
162.82971,162.8902,68,49,0
162.56363,163.06879,61,49,0
163.31369,163.37976,68,50,0
163.31369,163.37976,75,59,0
163.06879,163.578,60,49,0
163.84767,163.91003,72,58,0
163.84767,163.91003,63,49,0
163.578,164.09715,56,49,0
164.32271,164.3791,68,50,0
164.32271,164.3791,76,59,0
164.09715,164.54828,61,49,0
164.80579,164.87016,64,49,0
164.80579,164.87016,68,49,0
164.80579,164.87016,73,58,0
164.54828,165.0633,56,49,0
165.32588,165.39153,68,50,0
165.32588,165.39153,75,59,0
165.32588,165.39153,66,50,0
165.0633,165.58846,60,49,0
165.85104,165.92033,72,58,0
165.85104,165.92033,63,49,0
165.85104,165.92033,66,49,0
165.58846,166.12817,56,49,0
166.35123,166.40698,68,50,0
166.35123,166.40698,76,59,0
166.12817,166.57428,61,49,0
166.84035,166.9012,73,58,0
166.57428,166.9012,64,49,0
166.84035,166.9012,64,49,0
167.3609,167.43018,69,50,0
167.3609,167.43018,75,59,0
167.3609,167.43018,73,50,0
167.08376,167.63803,66,49,0
167.90953,167.9774,78,58,0
167.90953,167.9774,69,49,0
167.91292,167.98079,73,49,0
167.63803,168.18102,63,49,0
168.41585,168.47456,70,50,0
168.41585,168.47456,73,50,0
168.41585,168.47456,76,59,0
168.18102,168.6844,67,49,0
168.92488,168.985,78,58,0
168.92488,168.985,72,49,0
168.92488,168.985,75,49,0
168.6844,169.1865,68,49,0
169.43625,169.49765,76,59,0
169.43625,169.49765,73,50,0
169.43625,169.49765,68,50,0
169.1865,169.67947,61,49,0
172.85938,172.91609,71,40,0
172.74596,172.97281,64,39,0
172.97281,173.02647,68,47,0
173.08014,173.1338,71,47,0
173.299,173.35475,71,39,0
173.18747,173.41052,59,39,0
173.41052,173.46419,68,46,0
173.51785,173.57152,71,39,0
173.73671,173.79248,71,40,0
173.62518,173.84824,64,39,0
173.84824,173.90134,68,47,0
173.95444,174.00752,71,47,0
174.17154,174.22699,71,39,0
174.06062,174.28244,59,39,0
174.28244,174.33582,68,46,0
174.3892,174.44258,71,39,0
174.60626,174.6614,71,40,0
174.49596,174.71655,66,39,0
174.71655,174.77391,69,47,0
174.83127,174.89067,71,47,0
175.06111,175.11392,71,39,0
174.95547,175.16673,59,39,0
175.16673,175.22128,69,46,0
175.27583,175.33038,71,39,0
175.49644,175.55222,71,40,0
175.38492,175.60797,64,39,0
175.60797,175.66373,68,47,0
175.72421,175.77876,71,47,0
175.9395,175.9926,71,39,0
175.83331,176.0457,59,39,0
176.0457,176.10054,68,46,0
176.15538,176.21024,71,39,0
176.37785,176.43425,71,40,0
176.26508,176.49065,66,39,0
176.49065,176.54935,69,47,0
176.60806,176.66231,71,47,0
176.8287,176.88478,71,39,0
176.71655,176.94086,59,39,0
176.94086,176.9954,69,46,0
177.04994,177.10449,71,39,0
177.2658,177.31918,71,40,0
177.15904,177.37256,64,39,0
177.37256,177.42455,68,47,0
177.47655,177.52853,71,47,0
177.68845,177.7424,71,39,0
177.58054,177.79636,64,39,0
177.79636,177.85307,68,46,0
177.90977,177.96649,71,39,0
178.13727,178.1943,71,40,0
178.02321,178.25336,63,39,0
178.25336,178.30403,66,47,0
178.3547,178.40538,71,47,0
178.56516,178.6197,68,39,0
178.45607,178.67424,61,39,0
178.67424,178.7326,64,46,0
178.79097,178.84933,68,39,0
179.0168,179.07135,68,40,0
178.90771,179.12589,60,39,0
179.12589,179.18228,63,47,0
179.23868,179.29506,68,47,0
179.46552,179.52255,68,39,0
179.35146,179.57959,56,39,0
179.57959,179.63864,63,46,0
179.69771,179.75676,68,39,0
179.91873,179.97018,68,40,0
179.81581,180.02164,61,39,0
180.02164,180.0731,64,47,0
180.12456,180.17601,68,47,0
180.34421,180.40257,68,39,0
180.22748,180.46094,56,39,0
180.46094,180.51518,64,46,0
180.56944,180.6252,68,39,0
180.79503,180.85207,68,40,0
180.68095,180.9091,60,39,0
180.9091,180.96815,63,47,0
181.0272,181.08626,68,47,0
181.26343,181.32248,68,39,0
181.14532,181.38155,56,39,0
181.38155,181.43793,63,46,0
181.49432,181.5507,68,39,0
181.71274,181.76555,68,40,0
181.6071,181.81837,61,39,0
181.81837,181.87119,64,47,0
181.92401,181.97682,68,47,0
182.14638,182.20474,68,39,0
182.02963,182.2631,56,39,0
182.2631,182.31918,64,46,0
182.37524,182.43132,68,39,0
182.60692,182.66669,68,40,0
182.4874,182.72644,60,39,0
182.72644,182.78621,63,47,0
182.84596,182.90573,68,47,0
183.08719,183.14804,68,39,0
182.96548,183.2089,56,39,0
183.2089,183.2737,63,46,0
183.33849,183.40327,68,39,0
183.5815,183.63821,68,40,0
183.46808,183.69492,61,39,0
183.69492,183.75163,64,47,0
183.80833,183.8723,68,47,0
184.05034,184.10738,68,39,0
183.93628,184.16441,56,39,0
184.16441,184.22144,66,46,0
184.16441,184.22144,63,36,0
184.27847,184.3421,68,39,0
184.51219,184.62128,77,37,0
184.40259,184.62128,61,46,0
184.62128,184.72978,68,48,0
184.72978,184.83781,77,39,0
184.83781,184.94534,73,47,0
184.94534,185.0524,77,39,0
185.0524,185.15898,68,48,0
185.15898,185.26509,77,42,0
185.37073,185.47581,77,43,0
185.26509,185.47581,61,50,0
185.47581,185.58044,68,50,0
185.58044,185.68463,77,45,0
185.68463,185.78835,73,52,0
185.78835,185.89163,77,46,0
185.89163,185.99446,68,53,0
185.99446,186.09677,77,48,0
186.19864,186.3005,77,44,0
186.09677,186.3005,61,52,0
186.3005,186.40237,68,51,0
186.40237,186.50424,77,45,0
186.50424,186.60611,73,53,0
186.60611,186.70798,77,46,0
186.70798,186.81728,68,52,0
186.81728,186.93178,77,47,0
187.03365,187.13551,77,36,0
186.93178,187.13551,61,48,0
187.13551,187.23738,68,49,0
187.23738,187.33925,77,43,0
187.33925,187.44112,73,51,0
187.44112,187.54298,77,44,0
187.54298,187.64485,68,50,0
187.64485,187.74672,77,43,0
187.74672,187.84859,61,48,0
187.84859,187.95045,77,35,0
187.95045,188.05249,68,47,0
188.05249,188.1553,77,40,0
188.1553,188.25919,61,46,0
188.25919,188.36407,77,39,0
188.36407,188.46997,68,44,0
188.46997,188.57663,77,36,0
188.57663,188.68329,61,40,0
188.68329,188.79108,77,29,0
188.79108,188.89996,68,39,0
188.89996,189.00993,77,33,0
189.00993,189.12112,61,38,0
189.12112,189.23347,77,32,0
189.23347,189.34698,68,36,0
189.34698,189.46179,77,1,0
189.46179,189.57864,61,33,0
189.57864,189.69804,77,25,0
189.69804,189.81914,68,34,0
189.81914,189.94221,77,30,0
189.94221,190.07018,61,35,0
190.07018,190.20505,77,30,0
190.20505,190.34761,68,35,0
190.34761,190.49956,77,30,0
190.49956,190.86879,61,33,0
190.86879,191.23802,68,30,0
190.86879,191.23802,77,30,0
193.21313,193.42552,45,44,0
193.47862,193.66182,52,34,0
193.70763,193.89084,57,35,0
193.93663,194.12872,61,36,0
194.18045,194.36365,64,37,0
194.40945,194.59267,69,38,0
194.63846,194.82167,73,36,0
195.12279,195.31479,44,44,0
195.3628,195.5548,53,34,0
195.60278,195.79478,59,35,0
195.84279,196.0446,61,36,0
196.09915,196.28665,65,37,0
196.33353,196.52103,71,38,0
196.5679,196.7554,73,36,0
197.03665,197.24904,42,44,0
197.30214,197.48964,49,34,0
197.53651,197.71765,54,35,0
197.76292,197.95042,57,36,0
197.9973,198.17844,61,37,0
198.22372,198.40808,66,38,0
198.4555,198.64523,69,36,0
198.94798,199.13998,37,44,0
199.18797,199.37997,49,34,0
199.42798,199.61998,53,35,0
199.66798,199.87488,56,36,0
199.9266,200.11632,61,37,0
200.16376,200.35347,65,38,0
200.40091,200.60516,68,36,0
200.99971,201.2121,45,44,0
201.2652,201.44841,52,34,0
201.4942,201.67741,57,35,0
201.72322,201.91531,61,36,0
201.96703,202.15024,64,37,0
202.19604,202.37924,69,38,0
202.42505,202.60825,73,36,0
202.90938,203.10138,44,44,0
203.14937,203.34137,53,34,0
203.38937,203.58138,59,35,0
203.62938,203.83119,61,36,0
203.88574,204.07324,65,37,0
204.12012,204.30762,71,38,0
204.35449,204.54199,73,36,0
204.82324,205.3231,42,44,0
205.3231,205.78389,69,35,0
205.3231,205.78389,61,35,0
205.3231,205.78389,66,35,0
205.78389,206.24208,37,37,0
206.24208,206.73456,68,36,0
206.24208,206.73456,59,36,0
206.24208,206.73456,65,36,0
206.73456,207.25493,42,44,0
207.25493,208.87917,66,36,0
207.25493,208.87917,70,36,0
207.25493,208.87917,58,36,0
208.87917,209.09155,45,44,0
209.14465,209.32787,52,34,0
209.37366,209.55687,57,36,0
209.60268,209.79475,61,38,0
209.84648,210.0297,64,40,0
210.07549,210.2587,69,42,0
210.3045,210.4877,73,44,0
210.78883,210.98082,44,44,0
211.02882,211.22083,53,34,0
211.26883,211.46083,59,35,0
211.50882,211.71065,61,36,0
211.7652,211.9527,65,37,0
211.99957,212.18707,71,38,0
212.23395,212.42145,73,36,0
212.7027,212.91508,42,44,0
212.96817,213.15567,49,42,0
213.20255,213.38368,54,41,0
213.42897,213.61647,57,41,0
213.66335,213.84447,61,40,0
213.88976,214.07411,66,39,0
214.12154,214.31126,69,38,0
214.61401,214.80602,37,44,0
214.85402,215.04602,49,34,0
215.09401,215.28601,53,35,0
215.33401,215.54091,56,36,0
215.59264,215.78236,61,37,0
215.82979,216.01952,65,38,0
216.06694,216.2712,68,36,0
216.66576,216.87814,45,44,0
216.93124,217.11444,52,34,0
217.16025,217.34344,57,35,0
217.38925,217.58134,61,36,0
217.63307,217.81627,64,37,0
217.86208,218.04529,69,38,0
218.09108,218.27429,73,36,0
218.57541,218.76741,44,44,0
218.81541,219.00742,53,34,0
219.0554,219.2474,59,31,0
219.29541,219.49722,61,32,0
219.55177,219.73927,65,33,0
219.78615,219.97365,71,34,0
220.02052,220.20802,73,32,0
220.48927,221.02109,42,33,0
221.02109,221.52602,66,26,0
221.02109,221.52602,69,26,0
221.02109,221.52602,61,26,0
221.52602,222.01367,37,27,0
222.01367,222.55745,68,27,0
222.01367,222.55745,59,27,0
222.01367,222.55745,65,27,0
222.55745,223.0681,42,33,0
223.0681,224.57788,70,27,0
223.03618,224.57788,66,27,0
223.00426,224.57788,61,27,0
222.97235,224.57788,58,27,0
224.57788,224.72777,37,46,0
224.57788,224.72777,49,54,0
224.76503,224.91255,36,40,0
224.76503,224.91255,48,48,0
224.94913,225.09438,47,48,0
224.94913,225.09438,35,40,0
225.1303,225.27328,34,40,0
225.1303,225.27328,46,48,0
225.30861,225.44978,33,40,0
225.30861,225.44978,45,48,0
225.48508,225.62627,44,48,0
225.48508,225.62627,32,41,0
225.66156,225.80273,31,43,0
225.66156,225.80273,43,51,0
225.83803,226.00073,32,46,0
225.83803,226.00073,44,55,0
226.04141,226.18385,45,57,0
226.04141,226.18385,33,48,0
226.21945,226.3619,32,45,0
226.21945,226.3619,44,54,0
226.39749,226.53993,31,41,0
226.39749,226.53993,43,48,0
226.57553,226.71797,30,41,0
226.57553,226.71797,42,48,0
226.75359,226.89601,41,48,0
226.75359,226.89601,29,41,0
226.93163,227.07405,28,41,0
226.93163,227.07405,40,48,0
227.10966,227.25209,27,40,0
227.10966,227.25209,39,48,0
227.2877,227.46289,36,48,0
227.2877,227.46289,24,40,0
227.50668,227.64911,37,54,0
227.50668,227.64911,25,46,0
227.68472,227.82716,26,39,0
227.68472,227.82716,38,47,0
227.86276,228.0052,27,42,0
227.86276,228.0052,39,49,0
228.0408,228.18324,40,52,0
228.0408,228.18324,28,44,0
228.21884,228.36128,29,49,0
228.21884,228.36128,41,58,0
228.3969,228.53932,30,46,0
228.3969,228.53932,42,54,0
228.57494,228.71736,41,59,0
228.57494,228.71736,29,50,0
228.75298,228.91736,30,48,0
228.75298,228.91736,42,56,0
228.95845,229.10216,31,54,0
228.95845,229.10216,43,64,0
229.13809,229.2818,44,61,0
229.13809,229.2818,32,51,0
229.31773,229.46144,31,55,0
229.31773,229.46144,43,65,0
229.49738,229.64108,32,50,0
229.49738,229.64108,44,59,0
229.67702,229.82072,45,74,0
229.67702,229.82072,33,62,0
229.85666,230.00037,32,53,0
229.85666,230.00037,44,64,0
230.0363,230.18001,33,62,0
230.0363,230.18001,45,74,0
230.21594,230.39503,44,68,0
230.21594,230.39503,32,57,0
230.43982,230.61946,25,75,0
230.43982,230.61946,37,89,0
231.15826,231.337,49,75,0
231.15826,231.337,42,75,0
231.15826,231.337,54,89,0
231.91016,232.15605,44,75,0
231.91016,232.15605,37,75,0
231.91016,232.15605,52,89,0
233.87737,234.02725,44,46,0
233.87737,234.02725,56,54,0
234.06451,234.21204,55,48,0
234.06451,234.21204,43,40,0
234.24861,234.39386,42,40,0
234.24861,234.39386,54,48,0
234.42978,234.57277,41,40,0
234.42978,234.57277,53,48,0
234.6081,234.74927,52,48,0
234.6081,234.74927,40,40,0
234.78456,234.92575,39,41,0
234.78456,234.92575,51,48,0
234.96104,235.10222,38,43,0
234.96104,235.10222,50,51,0
235.13751,235.30022,51,55,0
235.13751,235.30022,39,46,0
235.3409,235.48334,40,48,0
235.3409,235.48334,52,57,0
235.51894,235.66138,39,45,0
235.51894,235.66138,51,54,0
235.69698,235.83942,50,48,0
235.69698,235.83942,38,41,0
235.87502,236.01746,37,41,0
235.87502,236.01746,49,48,0
236.05307,236.1955,36,41,0
236.05307,236.1955,48,48,0
236.23111,236.37354,47,48,0
236.23111,236.37354,35,41,0
236.40915,236.55157,34,40,0
236.40915,236.55157,46,48,0
236.58719,236.76237,31,40,0
236.58719,236.76237,43,48,0
236.80617,236.9486,44,54,0
236.80617,236.9486,32,46,0
236.9842,237.12665,33,39,0
236.9842,237.12665,45,47,0
237.16225,237.30469,34,42,0
237.16225,237.30469,46,49,0
237.34029,237.48273,47,52,0
237.34029,237.48273,35,44,0
237.51833,237.66077,36,49,0
237.51833,237.66077,48,58,0
237.69638,237.8388,37,46,0
237.69638,237.8388,49,54,0
237.87442,238.01685,48,59,0
237.87442,238.01685,36,50,0
238.05246,238.21684,37,48,0
238.05246,238.21684,49,56,0
238.25793,238.40164,38,54,0
238.25793,238.40164,50,64,0
238.43758,238.58128,39,51,0
238.43758,238.58128,51,61,0
238.61722,238.76093,38,55,0
238.61722,238.76093,50,65,0
238.79686,238.94057,39,50,0
238.79686,238.94057,51,59,0
238.9765,239.12021,40,62,0
238.9765,239.12021,52,74,0
239.15614,239.29985,51,64,0
239.15614,239.29985,39,53,0
239.33578,239.47949,40,62,0
239.33578,239.47949,52,74,0
239.51543,239.69452,39,57,0
239.51543,239.69452,51,68,0
239.7393,239.91895,44,89,0
239.7393,239.91895,32,75,0
240.45775,240.63649,49,75,0
240.45775,240.63649,61,89,0
240.45775,240.63649,56,75,0
241.20964,241.45554,44,75,0
241.20964,241.45554,59,89,0
241.20964,241.45554,51,75,0
242.93095,243.17685,35,58,0
242.93095,243.17685,47,69,0
243.17685,243.39346,40,66,0
243.17685,243.39346,52,78,0
243.78288,243.97833,59,55,0
243.78288,243.97833,64,78,0
243.78288,243.97833,56,55,0
243.97833,244.41629,59,60,0
243.97833,244.41629,64,84,0
243.97833,244.41629,56,60,0
244.63525,244.84727,47,67,0
244.63525,244.84727,35,56,0
244.84727,245.07628,40,60,0
244.84727,245.07628,52,70,0
245.46477,245.66214,56,61,0
245.46477,245.66214,59,73,0
245.66214,246.1001,59,78,0
245.66214,246.1001,56,64,0
246.31908,246.56497,35,69,0
246.31908,246.56497,47,82,0
246.56497,246.78159,39,78,0
246.56497,246.78159,51,92,0
247.16884,247.36052,57,66,0
247.16884,247.36052,59,66,0
247.36052,247.80197,59,70,0
247.36052,247.80197,57,70,0
248.12697,248.31804,47,79,0
248.12697,248.33522,35,67,0
248.31804,248.54706,52,84,0
248.31804,248.54706,40,70,0
248.92487,249.11295,56,64,0
248.92487,249.11295,59,77,0
249.11295,249.5509,56,68,0
249.11295,249.5509,59,82,0
249.76988,249.98886,35,69,0
249.76988,249.98886,47,82,0
249.98886,250.18056,40,78,0
249.98886,250.18056,52,92,0
250.77904,251.05585,52,53,0
250.77904,251.05585,64,63,0
251.05585,251.32162,66,66,0
251.05585,251.32162,54,56,0
251.32162,251.57722,68,70,0
251.32162,251.57722,56,59,0
251.57722,252.32957,69,73,0
251.57722,252.32957,57,51,0
252.32957,252.62154,52,60,0
252.32957,252.62154,57,71,0
252.32957,252.62154,45,60,0
252.62154,252.90422,52,56,0
252.62154,252.90422,56,67,0
252.62154,252.90422,44,56,0
252.90422,253.17542,55,62,0
252.90422,253.17542,43,52,0
252.90422,253.17542,52,52,0
253.17542,254.02347,56,84,0
253.17542,254.02347,44,71,0
253.17542,254.02347,52,71,0
254.02347,254.8718,49,84,0
254.02347,254.8718,37,71,0
254.02347,254.8718,44,71,0
254.8718,256.18228,47,84,0
254.8718,256.18228,42,71,0
254.8718,256.18228,35,71,0
254.8718,256.18228,45,71,0
256.53473,256.66214,40,72,0
256.53473,256.66214,28,61,0
256.7169,256.8613,28,77,0
256.7169,256.8613,40,77,0
256.8613,257.00497,44,68,0
257.00497,257.14783,47,70,0
257.14783,257.28918,52,71,0
257.28918,257.4298,56,73,0
257.4298,257.56903,59,75,0
257.56903,257.70776,64,78,0
257.70776,257.8477,59,79,0
257.8477,257.98904,56,81,0
257.98904,258.13165,52,82,0
258.13165,258.27548,47,84,0
258.27548,258.42154,44,86,0
258.42154,258.64294,47,84,0
258.42154,258.64294,52,84,0
258.42154,258.64294,40,84,0
259.97134,260.21725,44,69,0
259.97134,260.21725,32,58,0
260.21725,260.43387,37,66,0
260.21725,260.43387,49,78,0
260.8255,260.96658,56,55,0
260.8255,260.96658,61,55,0
260.8255,260.96658,64,55,0
260.8255,260.96658,68,78,0
261.0136,261.45157,61,60,0
261.0136,261.45157,56,60,0
261.0136,261.45157,64,60,0
261.0136,261.45157,68,84,0
261.67053,261.88254,44,67,0
261.67053,261.88254,32,56,0
261.88254,262.11154,37,60,0
261.88254,262.11154,49,70,0
262.50003,262.6466,68,73,0
262.50003,262.6466,64,61,0
262.50003,262.6466,56,61,0
262.50003,262.6466,61,61,0
262.69547,263.13342,64,64,0
262.69547,263.13342,68,78,0
262.69547,263.13342,56,64,0
262.69547,263.13342,61,64,0
263.35242,263.59833,44,82,0
263.35242,263.59833,32,69,0
263.59833,263.8149,36,78,0
263.59833,263.8149,48,92,0
264.20218,264.34735,56,66,0
264.20218,264.34735,68,66,0
264.20218,264.34735,66,66,0
264.20218,264.34735,63,66,0
264.39572,264.8372,68,70,0
264.39572,264.8372,56,70,0
264.39572,264.8372,66,70,0
264.39572,264.8372,63,70,0
265.16217,265.35324,44,79,0
265.16217,265.35324,32,67,0
265.35324,265.58224,37,70,0
265.35324,265.58224,49,84,0
265.9685,266.12585,68,77,0
265.9685,266.12585,56,64,0
265.9685,266.12585,64,64,0
265.9685,266.12585,61,64,0
266.1783,266.61624,56,68,0
266.1783,266.61624,68,82,0
266.1783,266.61624,64,68,0
266.1783,266.61624,61,68,0
266.9582,267.08115,41,69,0
266.9582,267.08115,53,82,0
266.9582,267.08115,29,69,0
267.08115,268.29742,30,78,0
267.08115,268.29742,54,92,0
267.08115,268.29742,42,78,0
268.5598,268.64728,61,53,0
268.5598,268.64728,69,63,0
268.5598,268.64728,57,53,0
268.64728,268.9242,61,59,0
268.64728,268.9242,69,70,0
268.64728,268.9242,57,59,0
268.9242,269.0165,59,52,0
268.9242,269.0165,68,62,0
268.9242,269.0165,56,52,0
269.0165,269.31183,59,58,0
269.0165,269.31183,68,69,0
269.0165,269.31183,56,58,0
269.31183,269.42252,57,52,0
269.31183,269.42252,66,62,0
269.31183,269.42252,54,52,0
269.42252,269.86533,57,58,0
269.42252,269.86533,66,69,0
269.42252,269.86533,54,58,0
270.19742,270.32037,37,69,0
270.19742,270.32037,49,69,0
270.32037,271.53665,38,78,0
270.32037,271.53665,50,78,0
271.79904,271.86465,66,53,0
271.79904,271.86465,69,63,0
271.8865,272.16342,69,70,0
271.8865,272.16342,66,59,0
272.16342,272.23267,64,52,0
272.16342,272.23267,68,62,0
272.25574,272.55106,64,58,0
272.25574,272.55106,68,69,0
272.55106,272.6341,66,62,0
272.55106,272.6341,62,52,0
272.66177,273.10455,62,58,0
272.66177,273.10455,66,69,0
273.43668,273.55963,46,69,0
273.43668,273.55963,34,69,0
274.29388,274.36066,66,53,0
274.29388,274.36066,57,53,0
274.29388,274.36066,69,63,0
273.55963,274.3829,35,78,0
273.55963,274.3829,47,78,0
274.3829,274.6453,57,59,0
274.3829,274.6453,69,70,0
274.3829,274.6453,66,59,0
274.6453,274.7109,64,52,0
274.6453,274.7109,56,52,0
274.6453,274.7109,68,62,0
274.73276,274.99515,64,58,0
274.73276,274.99515,56,58,0
274.73276,274.99515,68,69,0
274.99515,275.2207,63,52,0
274.99515,275.2207,54,52,0
274.99515,275.2207,66,62,0
275.93988,276.00665,69,63,0
275.93988,276.00665,66,53,0
275.93988,276.00665,57,53,0
275.2207,276.0289,48,78,0
275.2207,276.0289,36,78,0
276.0289,276.2913,69,70,0
276.0289,276.2913,57,59,0
276.0289,276.2913,66,59,0
276.2913,276.3569,68,62,0
276.2913,276.3569,56,52,0
276.2913,276.3569,64,52,0
276.37875,276.64114,68,69,0
276.37875,276.64114,56,58,0
276.37875,276.64114,64,58,0
276.64114,276.85242,66,62,0
276.64114,276.85242,54,52,0
276.64114,276.85242,63,52,0
277.5716,277.66382,70,45,0
277.5716,277.66382,82,63,0
277.5716,277.66382,79,53,0
276.85242,277.69193,31,78,0
276.85242,277.69193,43,78,0
277.69193,277.98105,70,49,0
277.69193,277.98105,79,59,0
277.69193,277.98105,82,70,0
277.98105,278.0527,69,44,0
277.98105,278.0527,78,52,0
277.98105,278.0527,81,62,0
278.07645,278.35974,69,49,0
278.07645,278.35974,78,58,0
278.07645,278.35974,81,69,0
278.35974,278.4297,67,44,0
278.35974,278.4297,76,52,0
278.35974,278.4297,79,62,0
278.453,278.72647,67,58,0
278.453,278.72647,79,69,0
278.453,278.72647,76,69,0
278.72647,278.7941,64,52,0
278.72647,278.7941,76,62,0
278.72647,278.7941,73,62,0
278.81653,279.08392,64,58,0
278.81653,279.08392,76,69,0
278.81653,279.08392,73,69,0
279.08392,279.14908,63,52,0
279.08392,279.14908,75,62,0
279.08392,279.14908,72,62,0
279.17056,279.42236,63,58,0
279.17056,279.42236,75,69,0
279.17056,279.42236,72,69,0
279.42236,279.4837,61,52,0
279.42236,279.4837,73,62,0
279.42236,279.4837,70,62,0
279.50397,279.7424,61,58,0
279.50397,279.7424,73,69,0
279.50397,279.7424,70,69,0
279.7424,279.80057,58,52,0
279.7424,279.80057,70,62,0
279.7424,279.80057,67,62,0
279.8197,280.04523,58,49,0
279.8197,280.04523,67,59,0
279.8197,280.04523,70,70,0
280.04523,280.101,57,44,0
280.04523,280.101,66,52,0
280.04523,280.101,69,62,0
280.11948,280.33948,57,49,0
280.11948,280.33948,66,58,0
280.11948,280.33948,69,69,0
280.33948,280.39386,55,44,0
280.33948,280.39386,64,52,0
280.33948,280.39386,67,62,0
280.41193,280.6274,55,58,0
280.41193,280.6274,67,69,0
280.41193,280.6274,64,69,0
280.6274,280.68124,52,52,0
280.6274,280.68124,64,62,0
280.6274,280.68124,61,62,0
280.6992,280.9145,64,69,0
280.6992,280.9145,52,58,0
280.6992,280.9145,61,69,0
280.9145,280.96832,63,62,0
280.9145,280.96832,51,52,0
280.9145,280.96832,60,62,0
280.98627,281.2007,63,69,0
280.98627,281.2007,51,58,0
280.98627,281.2007,60,69,0
281.2007,281.2548,61,62,0
281.2007,281.2548,49,52,0
281.2007,281.2548,58,62,0
281.27286,281.49115,49,58,0
281.27286,281.49115,58,69,0
281.27286,281.49115,61,69,0
281.49115,281.54623,46,52,0
281.49115,281.54623,55,62,0
281.49115,281.54623,58,62,0
281.56488,281.78894,46,49,0
281.56488,281.78894,58,70,0
281.56488,281.78894,55,59,0
281.78894,281.84518,45,44,0
281.78894,281.84518,57,62,0
281.78894,281.84518,54,52,0
281.86392,282.09085,45,49,0
281.86392,282.09085,57,69,0
281.86392,282.09085,54,58,0
282.09085,282.14798,43,44,0
282.09085,282.14798,55,62,0
282.09085,282.14798,52,52,0
282.167,282.41223,43,58,0
282.167,282.41223,52,69,0
282.167,282.41223,55,69,0
283.98163,284.07394,40,55,0
283.98163,284.07394,31,55,0
283.98163,284.07394,43,64,0
283.98163,284.07394,37,55,0
284.07394,284.2361,37,55,0
284.07394,284.2361,44,64,0
284.07394,284.2361,40,55,0
284.07394,284.2361,32,55,0
284.56042,284.74008,40,56,0
284.56042,284.74008,37,56,0
284.56042,284.74008,44,67,0
284.56042,284.74008,32,56,0
284.74008,284.90094,40,61,0
284.74008,284.90094,32,61,0
284.74008,284.90094,44,72,0
284.74008,284.90094,37,61,0
285.22266,285.3931,37,55,0
285.22266,285.3931,44,64,0
285.22266,285.3931,40,55,0
285.22266,285.3931,32,55,0
285.3931,286.10526,42,61,0
285.3931,286.10526,39,61,0
285.3931,286.10526,44,72,0
285.3931,286.10526,32,61,0
286.10526,286.6394,42,57,0
286.10526,286.6394,32,57,0
286.10526,286.6394,44,68,0
286.10526,286.6394,39,57,0
286.7581,287.38275,56,45,0
286.72842,287.40005,44,40,0
286.74326,287.40005,52,42,0
286.77292,287.40005,61,51,0
287.4779,288.06467,61,58,0
287.40005,288.06467,44,45,0
287.426,288.06467,52,48,0
287.45197,288.06467,56,53,0
288.12192,288.85025,60,55,0
288.06467,288.85025,44,47,0
288.08374,288.85025,51,49,0
288.10284,288.85025,56,52,0
289.54996,290.13882,73,57,0
289.48438,290.13882,56,48,0
289.50623,290.13882,64,51,0
289.5281,290.13882,68,53,0
290.22278,290.80927,73,44,0
290.13882,290.80927,56,37,0
290.1668,290.80927,64,39,0
290.1948,290.80927,68,41,0
290.89926,291.48236,72,57,0
290.86926,291.48236,66,54,0
290.83926,291.48236,56,51,0
291.5427,292.12897,72,57,0
291.52258,292.12897,66,54,0
291.50247,292.12897,56,51,0
292.19885,292.78995,73,51,0
292.12897,292.78995,56,41,0
292.15228,292.78995,64,44,0
292.17557,292.78995,68,47,0
292.88217,293.4794,73,43,0
292.78995,293.4794,56,36,0
292.8207,293.4794,64,38,0
292.85144,293.4794,68,40,0
293.56833,294.1425,72,55,0
293.53867,294.1425,66,52,0
293.50903,294.1425,56,50,0
302.72186,303.1228,68,50,0
303.1807,303.38718,77,48,0
303.15176,303.38718,68,46,0
303.1228,303.38718,61,44,0
304.02164,304.233,78,51,0
303.99524,304.233,75,49,0
303.96918,304.233,68,47,0
304.87357,305.07233,77,49,0
304.8468,305.07233,68,46,0
304.82,305.07233,61,42,0
306.13464,306.53732,73,50,0
306.53732,306.76376,82,44,0
306.53732,306.99017,73,44,0
306.53732,306.99017,66,44,0
306.99017,307.19565,82,44,0
307.40112,307.82617,74,44,0
307.40112,307.82617,65,44,0
307.40112,308.24963,80,54,0
308.24963,308.4532,78,50,0
308.24963,308.65753,70,48,0
308.24963,308.65753,63,48,0
308.65753,309.4798,78,54,0
309.4798,309.97543,78,53,0
309.4798,309.97543,75,53,0
309.97543,310.41583,85,61,0
309.97543,310.41583,82,61,0
310.41583,310.85257,85,53,0
310.41583,310.85257,82,53,0
310.85257,311.513,84,60,0
310.85257,311.513,80,60,0
311.513,311.77502,82,57,0
311.513,311.77502,78,48,0
311.77502,311.99692,80,65,0
311.77502,311.99692,77,56,0
312.22018,313.12256,80,56,0
312.22018,313.12256,77,56,0
312.22018,313.12256,68,56,0
313.12256,313.36758,81,50,0
313.12256,313.36758,77,50,0
313.423,313.62433,82,58,0
313.36758,313.62433,68,45,0
313.38605,313.62433,72,49,0
313.4045,313.62433,78,53,0
315.58057,315.66608,58,34,0
315.66608,315.7495,56,35,0
315.7495,315.8342,54,35,0
315.8342,315.91888,53,35,0
315.91888,316.00195,51,35,0
316.00195,316.08664,49,35,0
316.08664,316.16946,48,35,0
316.16946,316.25333,46,35,0
316.25333,316.3372,44,35,0
316.3372,316.41946,42,35,0
316.41946,316.50333,41,35,0
316.5017,316.60196,39,35,0
316.60196,316.69757,37,35,0
316.69757,316.7941,41,35,0
316.7941,316.8916,44,36,0
316.8916,316.99005,49,37,0
316.99005,317.08945,53,38,0
317.08945,317.18988,56,39,0
317.18988,317.29132,61,39,0
317.29132,317.3938,65,40,0
319.76743,319.927,49,41,0
320.08658,320.1599,61,34,0
320.08658,320.1599,56,34,0
320.39285,320.53955,44,42,0
320.68625,320.7624,63,34,0
320.68625,320.7624,56,34,0
320.9908,321.06998,49,44,0
321.30743,321.38187,61,34,0
321.30743,321.38187,56,34,0
321.6052,321.68375,49,45,0
321.91934,321.99664,61,34,0
321.91934,321.99664,56,34,0
322.2286,322.30594,54,47,0
322.5379,322.6152,61,34,0
322.5379,322.6152,66,34,0
322.84717,322.92825,53,47,0
323.1715,323.2526,62,34,0
323.1715,323.2526,65,34,0
323.49582,323.6481,51,43,0
323.80038,323.88147,58,34,0
323.80038,323.88147,63,34,0
324.12473,324.28687,51,46,0
324.44904,324.54135,58,34,0
324.44904,324.54135,63,34,0
324.81827,324.9932,42,50,0
325.16812,325.5408,70,40,0
325.16812,325.5408,61,33,0
325.5408,326.1148,68,40,0
326.1148,326.34903,66,40,0
325.5408,326.34903,61,33,0
326.34903,326.5255,44,50,0
326.702,326.8866,61,40,0
326.702,326.8866,65,40,0
327.0712,327.26816,56,40,0
327.72617,327.84024,69,46,0
327.72617,327.84024,65,46,0
327.84024,327.93005,70,50,0
327.84024,327.93005,66,50,0
328.19952,328.84818,70,50,0
328.19952,328.84818,66,50,0
328.84818,329.20743,56,37,0
328.84818,329.20743,63,47,0
329.20743,329.29974,61,51,0
329.57666,330.32928,56,42,0
329.57666,330.32928,49,42,0
329.57666,330.32928,61,53,0
330.62485,330.7807,37,37,0
330.62485,330.7807,49,47,0
330.93655,331.0099,68,34,0
330.93655,331.0099,65,34,0
330.93655,331.0099,61,34,0
331.24283,331.38953,44,37,0
331.24283,331.38953,56,47,0
331.53622,331.61237,68,34,0
331.53622,331.61237,66,34,0
331.53622,331.61237,63,34,0
331.8408,331.91995,37,36,0
331.8408,331.91995,49,45,0
332.1574,332.23184,68,34,0
332.1574,332.23184,65,34,0
332.1574,332.23184,61,34,0
332.45517,332.53372,44,36,0
332.45517,332.53372,56,46,0
332.76932,332.84662,68,34,0
332.76932,332.84662,61,34,0
332.76932,332.84662,65,34,0
333.07858,333.1559,42,34,0
333.07858,333.1559,54,43,0
333.38788,333.46518,66,34,0
333.38788,333.46518,70,34,0
333.38788,333.46518,61,34,0
333.69714,333.77823,41,35,0
333.69714,333.77823,53,44,0
334.02148,334.10254,62,34,0
334.02148,334.10254,68,34,0
334.02148,334.10254,58,34,0
334.3458,334.49808,39,40,0
334.3458,334.49808,51,50,0
334.65036,334.73145,63,34,0
334.65036,334.73145,66,34,0
334.9747,335.13684,46,37,0
334.9747,335.13684,58,47,0
335.299,335.39133,63,34,0
335.299,335.39133,66,34,0
335.66824,336.0181,42,38,0
335.66824,336.0181,54,48,0
336.0181,336.39078,70,34,0
336.0181,336.39078,61,34,0
336.0181,336.39078,73,40,0
336.39078,336.96478,68,34,0
336.39078,336.96478,72,40,0
336.96478,337.199,66,34,0
336.96478,337.199,70,40,0
336.39078,337.199,61,34,0
337.199,337.29132,44,55,0
337.56824,337.75287,61,40,0
337.56824,337.75287,68,40,0
337.56824,337.75287,65,40,0
337.93747,338.1344,56,40,0
338.59244,338.70847,77,46,0
338.59244,338.70847,65,46,0
338.70847,338.81448,78,50,0
338.70847,338.81448,66,50,0
339.55655,340.2442,51,37,0
339.55655,340.2442,56,47,0
339.55655,340.2442,44,37,0
340.2442,340.33405,56,51,0
340.2442,340.33405,49,45,0
340.6035,341.5112,49,42,0
340.6035,341.5112,56,53,0
342.21875,342.32126,61,38,0
342.35544,342.46387,77,34,0
342.5,342.59476,68,39,0
342.6263,342.72543,77,36,0
342.75848,342.8576,73,40,0
342.89062,342.99753,77,37,0
343.03314,343.125,68,42,0
343.1556,343.25217,77,38,0
343.28436,343.38092,61,44,0
343.41312,343.51633,77,40,0
343.55072,343.63983,68,46,0
343.66956,343.7631,77,42,0
343.79428,343.88785,73,47,0
343.91904,344.01947,77,45,0
344.05295,344.14102,68,48,0
344.17038,344.2645,77,42,0
344.2959,344.39005,61,50,0
344.42142,344.52322,77,46,0
344.55716,344.6447,68,52,0
344.6739,344.77045,77,46,0
344.80264,344.8992,73,53,0
344.9314,345.0339,77,48,0
345.06808,345.16223,68,52,0
345.1936,345.31604,77,46,0
345.31604,345.4385,61,50,0
345.5698,345.6872,69,46,0
345.80463,345.92203,77,42,0
345.80463,345.92203,72,42,0
346.04916,346.16656,70,46,0
346.284,346.4014,77,35,0
346.284,346.4014,82,42,0
346.5277,346.64514,65,46,0
346.76254,346.87997,77,34,0
346.76254,346.87997,81,34,0
346.76254,346.87997,87,41,0
347.0079,347.12744,82,39,0
347.0079,347.12744,85,47,0
347.24695,347.3665,77,34,0
347.24695,347.3665,84,34,0
347.24695,347.3665,87,41,0
347.4928,347.6123,82,37,0
347.4928,347.6123,85,45,0
347.73184,347.85135,77,32,0
347.73184,347.85135,84,32,0
347.73184,347.85135,87,39,0
347.9801,348.10034,82,35,0
347.9801,348.10034,85,43,0
348.22058,348.34082,77,31,0
348.22058,348.34082,84,31,0
348.22058,348.34082,87,37,0
348.47043,348.59067,82,34,0
348.47043,348.59067,85,41,0
348.7109,348.83115,77,30,0
348.7109,348.83115,84,30,0
348.7109,348.83115,87,36,0
348.96002,349.09167,85,43,0
348.96002,349.09167,82,35,0
350.95694,351.41785,85,44,0
350.9239,351.41785,70,44,0
351.44827,351.90878,85,49,0
351.41785,351.90878,70,49,0
351.93958,352.67294,84,50,0
351.90878,352.67294,68,48,0
352.70554,352.92505,82,51,0
352.67294,352.92505,66,51,0
352.95605,353.21085,80,58,0
352.92505,353.21085,65,58,0
353.46695,354.7653,80,52,0
353.46695,354.7653,77,52,0
353.46695,354.7653,68,52,0
354.7653,355.05652,77,39,0
354.7653,355.05652,81,47,0
355.05652,355.26413,78,46,0
355.05652,355.26413,82,55,0
355.05652,355.26413,68,46,0
355.05652,355.26413,72,46,0
356.6336,356.84778,63,41,0
356.60867,356.88068,56,39,0
356.6585,356.88068,66,44,0
356.6833,356.88068,72,46,0
358.37357,358.4762,53,39,0
358.4762,358.57513,56,40,0
358.27084,358.66928,49,39,0
358.24515,358.66928,44,36,0
358.21967,358.66928,37,33,0
361.49454,361.59705,49,34,0
361.6312,361.73962,65,30,0
361.7758,361.8705,56,35,0
361.9021,362.00122,65,32,0
362.03424,362.13336,61,36,0
362.1664,362.27332,65,33,0
362.30893,362.40076,56,37,0
362.43137,362.52795,65,34,0
362.56015,362.6567,49,39,0
362.6889,362.7921,65,36,0
362.8265,362.91562,56,41,0
362.9453,363.03888,65,37,0
363.07007,363.1636,61,42,0
363.1948,363.29526,65,40,0
363.32874,363.41678,56,43,0
363.44614,363.54028,65,37,0
363.57166,363.6658,49,45,0
363.69717,363.799,65,41,0
363.83295,363.92047,56,46,0
363.94968,364.04623,65,41,0
364.07843,364.175,61,47,0
364.20718,364.3097,65,43,0
364.34384,364.438,56,46,0
364.46936,364.59183,65,41,0
364.59183,364.71426,49,45,0
364.84555,364.96298,57,41,0
365.08038,365.1978,65,37,0
365.08038,365.1978,60,37,0
365.32492,365.44235,58,41,0
365.55975,365.6772,65,31,0
365.55975,365.6772,70,37,0
365.8035,365.92093,53,41,0
366.03833,366.15576,65,30,0
366.03833,366.15576,69,30,0
366.03833,366.15576,75,36,0
366.2837,366.4032,70,35,0
366.2837,366.4032,73,42,0
366.52274,366.64224,65,30,0
366.52274,366.64224,72,30,0
366.52274,366.64224,75,36,0
366.76855,366.8881,70,33,0
366.76855,366.8881,73,40,0
367.0076,367.12714,65,28,0
367.0076,367.12714,72,28,0
367.0076,367.12714,75,35,0
367.2559,367.37613,70,31,0
367.2559,367.37613,73,38,0
367.49637,367.6166,65,27,0
367.49637,367.6166,72,27,0
367.49637,367.6166,75,33,0
367.7462,367.86642,70,30,0
367.7462,367.86642,73,36,0
367.98666,368.1069,65,27,0
367.98666,368.1069,72,27,0
367.98666,368.1069,75,32,0
368.23578,369.2464,73,38,0
368.23578,369.2464,70,31,0
370.58762,370.70786,54,56,0
370.70786,370.81464,73,56,0
370.70786,370.81464,70,56,0
371.34845,371.95758,73,54,0
371.34845,371.95758,70,54,0
371.95758,372.5393,72,53,0
371.95758,372.5393,68,53,0
374.15063,374.23444,42,45,0
374.15063,374.23444,54,54,0
374.23444,374.3554,44,53,0
374.23444,374.3554,53,63,0
374.99167,377.55283,68,45,0
374.99167,377.55283,65,45,0
374.99167,377.55283,56,45,0
379.51535,379.59448,53,54,0
379.51535,379.59448,65,64,0
379.59448,379.7826,54,63,0
379.59448,379.7826,66,75,0
380.34683,381.09918,44,75,0
380.34683,381.09918,48,63,0
380.34683,381.09918,32,63,0
380.34683,381.09918,39,63,0
383.35623,383.43604,37,37,0
383.5158,383.60645,44,37,0
383.69708,384.04694,49,34,0
383.69708,384.04694,56,40,0
384.04694,384.1261,37,38,0
384.20526,384.29758,44,38,0
384.38986,384.7367,49,34,0
384.38986,384.7367,56,40,0
384.7367,384.81912,37,37,0
384.90152,384.99298,44,37,0
385.08444,385.4343,49,34,0
385.08444,385.4343,56,40,0
385.4343,385.51672,37,38,0
385.59915,385.6851,44,38,0
385.77106,386.08652,49,34,0
385.77106,386.08652,56,40,0
386.08652,386.1689,37,37,0
386.25134,386.3388,44,37,0
386.42627,386.77612,49,34,0
386.42627,386.77612,56,40,0
386.77612,386.85855,37,38,0
386.94095,387.0284,44,38,0
387.11588,387.4264,49,34,0
387.11588,387.4264,56,40,0
387.4264,387.50882,37,37,0
387.59125,387.6787,44,37,0
387.76617,388.11603,49,34,0
387.76617,388.11603,56,40,0
388.11603,388.1958,37,38,0
388.2756,388.36707,44,38,0
388.45853,388.80838,49,34,0
388.45853,388.80838,56,40,0
388.80838,388.88815,37,37,0
388.96796,389.05942,45,37,0
389.15088,389.50073,49,34,0
389.15088,389.50073,57,40,0
389.50073,389.58316,37,38,0
389.66556,389.74936,45,38,0
389.83316,390.15115,49,34,0
389.83316,390.15115,57,40,0
390.15115,390.23355,37,37,0
390.31598,390.40344,45,37,0
390.4909,390.84076,49,34,0
390.4909,390.84076,57,40,0
390.84076,390.9232,37,38,0
391.00558,391.0894,45,38,0
391.1732,391.47525,49,34,0
391.1732,391.47525,57,40,0
391.47525,391.55768,37,37,0
391.64008,391.72754,45,37,0
391.815,392.16486,49,34,0
391.815,392.16486,57,40,0
392.16486,392.24728,37,38,0
392.3297,392.41718,45,38,0
392.50464,392.8545,49,34,0
392.50464,392.8545,57,40,0
392.8545,392.9369,37,37,0
393.01932,393.10913,49,37,0
393.19897,393.54578,54,34,0
393.19897,393.54578,62,40,0
393.54578,393.6282,37,38,0
393.7106,393.79373,49,38,0
393.87683,394.19275,54,34,0
393.87683,394.19275,62,40,0
394.19275,394.27518,37,37,0
394.35757,394.44504,49,37,0
394.5325,394.88235,54,34,0
394.5325,394.88235,62,40,0
394.88235,394.96478,37,38,0
395.0472,395.1303,49,38,0
395.2134,395.53357,54,34,0
395.2134,395.53357,62,40,0
395.53357,395.61597,37,37,0
395.6984,395.78082,49,37,0
395.86322,396.17014,54,34,0
395.86322,396.17014,62,40,0
396.17014,396.2493,65,45,0
396.32846,396.4076,71,41,0
396.48676,396.80338,74,47,0
396.80338,396.88647,61,45,0
396.96957,397.0527,66,42,0
397.1358,397.21494,69,46,0
397.45242,397.5316,65,46,0
397.61072,397.68988,71,41,0
397.76904,397.8482,74,48,0
398.08566,398.17236,61,47,0
398.25906,398.34576,66,41,0
398.4325,398.50806,69,46,0
398.73474,398.8152,68,44,0
398.8956,398.97604,75,38,0
399.05646,399.1369,78,45,0
399.37817,399.45673,61,46,0
399.53525,399.61377,68,42,0
399.69232,399.7734,72,45,0
400.01663,400.09277,56,45,0
400.1689,400.24506,63,42,0
400.3212,400.40295,66,46,0
400.6482,400.72797,37,48,0
400.80777,400.89157,44,48,0
400.97537,401.31055,49,44,0
400.97537,401.31055,56,52,0
401.31055,401.3897,49,49,0
401.46887,401.55634,56,49,0
401.6438,401.94263,61,52,0
401.94263,402.0224,37,48,0
402.1022,402.1853,44,48,0
402.2684,402.6008,49,44,0
402.2684,402.6008,56,52,0
402.6008,402.68323,49,49,0
402.76566,402.85312,56,49,0
402.94058,403.23672,61,52,0
403.23672,403.3159,37,48,0
403.39502,403.47882,44,48,0
403.56262,403.89783,49,44,0
403.56262,403.89783,56,52,0
403.89783,403.97397,37,48,0
404.0501,404.13834,45,48,0
404.22656,404.559,49,44,0
404.22656,404.559,57,52,0
404.559,404.63876,49,49,0
404.71857,404.801,57,49,0
404.8834,405.18054,64,52,0
405.18054,405.2597,37,48,0
405.33887,405.42267,45,48,0
405.50647,405.84164,49,44,0
405.50647,405.84164,57,52,0
405.84164,405.9208,49,49,0
405.99997,406.0824,57,49,0
406.1648,406.4576,64,52,0
406.4576,406.53738,37,48,0
406.6172,406.701,45,48,0
406.7848,407.11996,49,44,0
406.7848,407.11996,57,52,0
407.11996,407.1967,37,48,0
407.27344,407.36246,45,48,0
407.45148,407.78665,49,44,0
407.45148,407.78665,57,52,0
407.78665,407.8658,49,49,0
407.94498,408.0274,54,49,0
408.1098,408.40067,57,44,0
408.1098,408.40067,62,52,0
408.40067,408.4792,37,48,0
408.55774,408.64154,45,48,0
408.72534,409.06052,49,44,0
408.72534,409.06052,57,52,0
409.06052,409.14032,49,49,0
409.2201,409.29926,54,49,0
409.37842,409.66925,57,44,0
409.37842,409.66925,62,52,0
409.66925,409.7484,37,48,0
409.82758,409.90674,45,48,0
409.98587,410.28366,49,44,0
409.98587,410.28366,57,52,0
410.28366,410.36096,65,58,0
410.4383,410.5156,71,53,0
410.59293,410.90222,74,61,0
410.90222,410.98328,61,58,0
411.06436,411.14545,66,54,0
411.22653,411.30096,69,59,0
411.5243,411.59872,65,59,0
411.6732,411.74762,71,53,0
411.82205,411.8965,74,62,0
412.11984,412.20157,61,61,0
412.28333,412.36505,66,53,0
412.4468,412.51962,69,59,0
412.73807,412.81598,68,57,0
412.89392,412.97183,75,49,0
413.04974,413.1277,78,58,0
413.36145,413.437,61,59,0
413.51257,413.58813,68,54,0
413.66373,413.74478,72,58,0
413.98804,414.0636,56,58,0
414.13916,414.21475,63,54,0
414.2903,414.37204,66,59,0
414.65314,414.73553,49,40,0
414.81796,414.9004,56,35,0
414.9828,415.06522,61,35,0
414.9828,415.06522,68,35,0
415.14764,415.23004,56,35,0
415.31247,415.39038,49,40,0
415.46832,415.54114,56,36,0
415.61395,415.69186,61,36,0
415.61395,415.69186,68,36,0
415.76978,415.84772,56,37,0
415.92563,416.00806,49,40,0
416.09045,416.17288,56,35,0
416.2553,416.3326,61,35,0
416.2553,416.3326,68,35,0
416.40994,416.48727,56,35,0
416.56458,416.6419,49,40,0
416.7192,416.79965,56,36,0
416.88007,416.9574,60,36,0
416.88007,416.9574,68,36,0
417.03473,417.11783,56,37,0
417.20093,417.28333,49,40,0
417.36575,417.44818,56,35,0
417.53058,417.6079,61,35,0
417.53058,417.6079,68,35,0
417.68524,417.76254,56,35,0
417.83987,417.9172,49,40,0
417.9945,418.06628,56,36,0
418.13806,418.21478,61,36,0
418.13806,418.21478,68,36,0
418.2915,418.36823,56,37,0
418.44495,418.52737,49,45,0
418.6098,418.6922,56,40,0
418.77463,418.85706,61,40,0
418.77463,418.85706,68,40,0
418.93945,419.02188,56,40,0
419.1043,419.17987,49,46,0
419.25543,419.331,56,39,0
419.40656,419.4851,60,39,0
419.40656,419.4851,68,39,0
419.56363,419.64673,56,37,0
419.72983,419.81226,49,40,0
419.89468,419.97708,56,35,0
420.0595,420.13928,61,35,0
420.0595,420.13928,68,35,0
420.2191,420.29886,56,35,0
420.37866,420.45657,49,40,0
420.53452,420.6084,56,36,0
420.68228,420.7596,61,36,0
420.68228,420.7596,68,36,0
420.8369,420.91425,56,37,0
420.99158,421.07397,49,40,0
421.1564,421.23883,56,35,0
421.32123,421.39856,61,35,0
421.32123,421.39856,68,35,0
421.47586,421.5532,56,35,0
421.63052,421.70782,49,40,0
421.78516,421.85797,56,36,0
421.9308,422.0081,60,36,0
421.9308,422.0081,68,36,0
422.08542,422.16852,56,37,0
422.25162,422.33405,49,40,0
422.41647,422.49887,56,35,0
422.5813,422.65863,61,35,0
422.5813,422.65863,68,35,0
422.73593,422.81326,56,35,0
422.89056,422.9679,49,40,0
423.04523,423.11804,56,36,0
423.19086,423.26816,61,36,0
423.19086,423.26816,68,36,0
423.3455,423.4228,56,37,0
423.50012,423.5861,49,44,0
423.67206,423.758,56,39,0
423.84396,423.92706,61,39,0
423.84396,423.92706,68,39,0
424.01016,424.09326,56,39,0
424.17636,424.2549,49,44,0
424.33344,424.412,56,36,0
424.4905,424.56903,60,36,0
424.4905,424.56903,68,36,0
424.64758,424.73068,56,37,0
424.81378,424.89688,49,40,0
424.97998,425.06308,56,35,0
425.14618,425.22473,61,35,0
425.14618,425.22473,65,35,0
425.30325,425.3818,56,35,0
425.46033,425.53885,49,40,0
425.6174,425.69592,56,36,0
425.77448,425.853,60,36,0
425.77448,425.853,66,36,0
425.93152,426.01007,56,37,0
426.0886,426.16196,49,40,0
426.2353,426.31323,56,35,0
426.39114,426.46906,61,35,0
426.39114,426.46906,65,35,0
426.547,426.62808,56,35,0
426.70914,426.78708,49,40,0
426.865,426.94293,56,36,0
427.02084,427.09875,60,36,0
427.02084,427.09875,66,36,0
427.1767,427.2546,56,37,0
427.33252,427.40698,49,40,0
427.4814,427.55994,56,35,0
427.6385,427.717,61,35,0
427.6385,427.717,65,35,0
427.79553,427.8773,56,35,0
427.95905,428.03696,49,40,0
428.11487,428.1928,56,36,0
428.27072,428.34863,60,36,0
428.27072,428.34863,66,36,0
428.42657,428.5045,56,37,0
428.5824,428.6574,49,40,0
428.73242,428.81094,56,35,0
428.88947,428.96802,61,35,0
428.88947,428.96802,65,35,0
429.04654,429.1283,56,35,0
429.21002,429.28677,49,40,0
429.3635,429.4408,56,36,0
429.51813,429.59546,60,36,0
429.51813,429.59546,66,36,0
429.67276,429.7501,56,37,0
429.8274,429.9024,49,40,0
429.97742,430.05472,56,35,0
430.13205,430.20935,61,35,0
430.13205,430.20935,65,35,0
430.28668,430.364,56,35,0
430.44125,430.52002,49,40,0
430.59906,430.67758,56,36,0
430.75583,430.83365,60,36,0
430.75583,430.83365,66,36,0
430.91095,430.98798,56,37,0
431.0646,431.14075,49,40,0
431.2169,431.29303,56,35,0
431.36917,431.4453,61,35,0
431.36917,431.4453,65,35,0
431.52145,431.5976,56,35,0
431.67365,431.7492,49,40,0
431.8248,431.90085,56,36,0
431.977,432.05362,60,36,0
431.977,432.05362,66,36,0
432.13034,432.20755,56,37,0
432.28488,432.35822,49,40,0
432.43158,432.5095,56,35,0
432.5874,432.66534,61,35,0
432.5874,432.66534,65,35,0
432.74326,432.82434,56,35,0
432.9062,432.9851,49,40,0
433.0628,433.14133,56,36,0
433.21954,433.29733,60,36,0
433.21954,433.29733,66,36,0
433.37466,433.45163,56,37,0
433.5295,433.60565,49,40,0
433.6818,433.75793,56,35,0
433.83408,433.91022,61,35,0
433.83408,433.91022,65,35,0
433.98636,434.0625,56,35,0
434.13852,434.21408,49,40,0
434.28964,434.36572,56,36,0
434.44186,434.51855,60,36,0
434.44186,434.51855,66,36,0
434.59528,434.67252,56,37,0
434.74957,434.82294,49,40,0
434.89658,434.97452,56,35,0
435.05243,435.13034,61,35,0
435.05243,435.13034,65,35,0
435.20712,435.2882,56,35,0
435.37054,435.44614,49,42,0
435.5217,435.59778,56,37,0
435.67392,435.75058,60,37,0
435.67392,435.75058,66,37,0
435.8273,435.90457,56,38,0
435.98163,436.05496,49,42,0
436.12863,436.20654,56,36,0
436.2845,436.3624,61,36,0
436.2845,436.3624,65,36,0
436.44052,436.5216,56,36,0
436.6008,436.68097,49,42,0
436.76056,436.83954,56,37,0
436.9178,436.99545,60,37,0
436.9178,436.99545,66,37,0
437.0726,437.14917,56,38,0
437.22656,437.3027,49,42,0
437.37885,437.455,56,36,0
437.53113,437.60727,61,36,0
437.53113,437.60727,65,36,0
437.6835,437.76526,56,36,0
437.84564,437.92178,49,42,0
437.99792,438.07407,56,37,0
438.1502,438.22635,60,37,0
438.1502,438.22635,66,37,0
438.3025,438.38492,56,38,0
438.4685,438.53976,49,42,0
438.61142,438.68643,56,36,0
438.76144,438.83643,61,36,0
438.76144,438.83643,65,36,0
438.91183,438.9929,56,36,0
439.0707,439.1493,49,42,0
439.22726,439.30457,56,37,0
439.38132,439.4574,60,37,0
439.38132,439.4574,66,37,0
439.53293,439.60794,56,38,0
439.6836,439.75644,49,43,0
439.8303,439.90314,56,37,0
439.9776,440.05203,61,37,0
439.9776,440.05203,65,37,0
440.12656,440.20636,56,38,0
440.2848,440.3598,49,44,0
440.4348,440.5098,56,39,0
440.5848,440.6598,60,40,0
440.5848,440.6598,66,40,0
440.7348,440.8193,56,41,0
440.9038,441.21802,65,54,0
440.86157,441.21802,49,41,0
441.21802,441.6081,77,60,0
441.21802,441.6081,80,60,0
441.68414,441.7599,82,55,0
441.68414,441.7599,85,55,0
441.83643,441.9152,80,55,0
441.83643,441.9152,84,55,0
441.9951,442.07477,78,55,0
441.9951,442.07477,82,55,0
442.15457,442.31287,80,60,0
442.15457,442.31287,77,60,0
442.6227,442.673,82,51,0
442.673,442.7231,84,51,0
442.7231,442.77454,82,51,0
442.6227,442.77454,78,51,0
442.77454,442.84937,77,60,0
442.77454,442.84937,80,60,0
442.92612,443.00064,75,54,0
442.92612,443.00064,78,54,0
443.0766,443.15515,73,54,0
443.0766,443.15515,77,54,0
443.23367,443.3122,75,54,0
443.23367,443.3122,68,54,0
443.39075,443.56396,73,54,0
443.39075,443.56396,65,54,0
443.73123,444.12128,65,60,0
443.73123,444.12128,68,60,0
444.19733,444.2731,70,55,0
444.19733,444.2731,73,55,0
444.34964,444.42838,68,55,0
444.34964,444.42838,72,55,0
444.50827,444.58798,66,55,0
444.50827,444.58798,70,55,0
444.66776,444.8397,68,60,0
444.66776,444.8397,65,60,0
445.0116,445.3898,68,60,0
445.0116,445.3898,65,60,0
445.46652,445.54108,63,54,0
445.46652,445.54108,66,54,0
445.61703,445.69556,61,54,0
445.61703,445.69556,65,54,0
445.77408,445.85263,63,54,0
445.77408,445.85263,56,54,0
445.93115,446.0097,61,62,0
445.93115,446.0097,53,62,0
446.55942,447.03064,63,58,0
447.03064,447.10916,66,53,0
446.55942,447.1877,56,58,0
447.1877,447.26105,65,61,0
447.3344,447.41232,68,55,0
447.1877,447.49023,61,58,0
447.49023,447.6461,61,55,0
447.80194,448.27313,63,58,0
448.27313,448.35168,66,53,0
447.80194,448.4302,56,58,0
448.4302,448.50357,65,61,0
448.5769,448.65482,68,55,0
448.4302,448.73276,61,58,0
448.73276,448.88858,61,55,0
449.04443,449.51566,63,63,0
449.51566,449.59418,66,58,0
449.04443,449.6727,56,63,0
449.6727,449.74606,65,67,0
449.8194,449.89734,68,60,0
449.6727,449.97525,61,63,0
449.97525,450.1311,61,60,0
450.28696,450.36487,48,50,0
450.36487,450.44278,49,51,0
450.44278,450.52023,51,52,0
450.52023,450.59756,53,53,0
450.59756,450.67468,54,54,0
450.67468,450.7514,56,55,0
450.7514,450.82812,58,57,0
450.82812,450.9043,60,58,0
450.9043,450.98044,61,59,0
450.98044,451.05624,63,60,0
451.05624,451.1318,65,61,0
451.1318,451.20728,66,62,0
451.20728,451.35727,68,63,0
451.5353,451.61182,60,56,0
451.61182,451.68854,61,57,0
451.68854,451.76526,63,59,0
451.76526,451.84143,65,60,0
451.84143,451.91757,66,61,0
451.91757,451.99353,68,63,0
451.99353,452.06912,70,64,0
452.06912,452.14468,72,65,0
452.14468,452.21988,73,67,0
452.21988,452.2949,75,68,0
452.2949,452.36987,77,69,0
452.36987,452.44434,78,71,0
452.44434,452.59308,80,72,0
452.7661,452.84225,53,61,0
452.84225,452.9184,54,62,0
452.9184,452.9944,56,64,0
452.9944,453.06998,58,65,0
453.06998,453.14554,59,66,0
453.14554,453.22076,61,67,0
453.22076,453.29578,63,69,0
453.29578,453.3708,65,70,0
453.3708,453.44528,66,72,0
453.44528,453.5197,68,73,0
453.5197,453.59402,70,74,0
453.59402,453.6679,71,76,0
453.6679,453.8154,73,77,0
453.983,454.06003,65,67,0
454.06003,454.13736,66,69,0
454.13736,454.21436,68,70,0
454.21436,454.2911,70,72,0
454.2911,454.36777,71,73,0
454.36777,454.4439,73,75,0
454.4439,454.52005,75,77,0
454.52005,454.59564,77,78,0
454.59564,454.6712,78,80,0
454.6712,454.74646,80,81,0
454.74646,454.82144,82,83,0
454.82144,454.89636,84,85,0
454.89636,455.04523,85,86,0
455.21716,455.52643,42,64,0
455.21716,455.52643,48,88,0
455.21716,455.52643,36,64,0
455.21716,455.52643,44,64,0
455.52643,455.85077,42,57,0
455.52643,455.85077,51,78,0
455.52643,455.85077,39,57,0
455.52643,455.85077,44,57,0
455.85077,456.153,44,63,0
455.85077,456.153,51,85,0
455.85077,456.153,39,63,0
455.85077,456.153,41,63,0
456.153,456.4827,44,57,0
456.153,456.4827,49,78,0
456.153,456.4827,37,57,0
456.153,456.4827,41,57,0
456.4827,456.79437,49,64,0
456.4827,456.79437,53,86,0
456.4827,456.79437,41,64,0
456.4827,456.79437,47,64,0
456.79437,457.13242,49,57,0
456.79437,457.13242,56,78,0
456.79437,457.13242,44,57,0
456.79437,457.13242,47,57,0
457.13242,457.45157,49,64,0
457.13242,457.45157,56,86,0
457.13242,457.45157,44,64,0
457.13242,457.45157,46,64,0
457.45157,457.78674,49,59,0
457.45157,457.78674,54,81,0
457.45157,457.78674,42,59,0
457.45157,457.78674,46,59,0
457.78674,458.12766,42,98,0
457.78674,458.12766,30,71,0
458.12766,458.2129,66,69,0
458.12766,458.2129,70,93,0
458.12766,458.2129,58,69,0
458.12766,458.2129,61,69,0
458.29813,458.38336,66,66,0
458.29813,458.38336,70,88,0
458.29813,458.38336,58,66,0
458.29813,458.38336,61,66,0
458.46857,458.6466,66,71,0
458.46857,458.6466,70,95,0
458.46857,458.6466,58,71,0
458.46857,458.6466,61,71,0
458.82465,458.90988,49,69,0
458.82465,458.90988,42,69,0
458.82465,458.90988,54,81,0
458.99512,459.08035,49,61,0
458.99512,459.08035,41,61,0
458.99512,459.08035,53,73,0
459.16556,459.67694,49,67,0
459.16556,459.67694,41,67,0
459.16556,459.67694,53,80,0
459.84454,460.16623,51,94,0
459.84454,460.16623,39,68,0
460.16623,460.24667,63,66,0
460.16623,460.24667,66,89,0
460.16623,460.24667,54,66,0
460.16623,460.24667,58,66,0
460.3271,460.40753,63,63,0
460.3271,460.40753,66,84,0
460.3271,460.40753,54,63,0
460.3271,460.40753,58,63,0
460.48795,460.6488,63,68,0
460.48795,460.6488,66,91,0
460.48795,460.6488,54,68,0
460.48795,460.6488,58,68,0
461.06177,461.2201,42,47,0
461.06177,461.2201,54,56,0
461.2201,461.30118,47,47,0
461.2201,461.30118,54,56,0
461.38226,461.46332,44,50,0
461.38226,461.46332,56,59,0
461.5444,461.70657,49,53,0
461.5444,461.70657,56,63,0
461.86832,461.9481,36,51,0
461.9481,462.02747,37,53,0
462.02747,462.10663,39,54,0
462.10663,462.18515,41,55,0
462.18515,462.2635,42,57,0
462.2635,462.3414,44,58,0
462.3414,462.4189,46,59,0
462.4189,462.49625,47,60,0
462.49625,462.57297,49,62,0
462.57297,462.6495,51,63,0
462.6495,462.72565,53,65,0
462.72565,462.8014,54,66,0
462.8014,462.95197,56,67,0
463.13,463.2065,41,58,0
463.2065,463.28323,42,60,0
463.28323,463.35995,44,61,0
463.35995,463.43613,46,62,0
463.43613,463.51227,47,63,0
463.51227,463.5884,49,65,0
463.5884,463.6751,51,66,0
463.6751,463.7618,53,67,0
463.7618,463.83704,54,68,0
463.83704,463.91202,56,70,0
463.91202,463.98703,58,71,0
463.98703,464.0615,59,72,0
464.0615,464.22043,61,73,0
464.38943,464.7086,42,98,0
464.38943,464.7086,30,71,0
464.7086,464.79605,58,69,0
464.7086,464.79605,61,93,0
464.7086,464.79605,49,69,0
464.7086,464.79605,54,69,0
464.8835,464.97098,58,66,0
464.8835,464.97098,61,88,0
464.8835,464.97098,49,66,0
464.8835,464.97098,54,66,0
465.05844,465.23492,58,71,0
465.05844,465.23492,61,95,0
465.05844,465.23492,49,71,0
465.05844,465.23492,54,71,0
465.41138,465.49518,49,69,0
465.41138,465.49518,46,69,0
465.41138,465.49518,54,81,0
465.57898,465.66278,48,61,0
465.57898,465.66278,45,61,0
465.57898,465.66278,53,73,0
465.74658,466.2494,48,67,0
465.74658,466.2494,45,67,0
465.74658,466.2494,53,80,0
466.41696,466.755,39,94,0
466.41696,466.755,27,76,0
466.755,466.83353,54,66,0
466.755,466.83353,58,89,0
466.755,466.83353,46,66,0
466.755,466.83353,51,66,0
466.91208,466.9906,54,63,0
466.91208,466.9906,58,84,0
466.91208,466.9906,46,63,0
466.91208,466.9906,51,63,0
467.06915,467.2262,54,68,0
467.06915,467.2262,58,91,0
467.06915,467.2262,46,68,0
467.06915,467.2262,51,68,0
467.93063,468.0104,30,40,0
467.93063,468.0104,42,48,0
468.08997,468.1691,35,43,0
468.08997,468.1691,47,51,0
468.24762,468.32593,32,45,0
468.24762,468.32593,44,54,0
468.40402,468.48486,37,47,0
468.40402,468.48486,49,56,0
468.5631,468.64093,30,44,0
468.5631,468.64093,42,52,0
468.71826,468.79507,35,46,0
468.71826,468.79507,47,55,0
468.87152,468.94757,32,49,0
468.87152,468.94757,44,58,0
469.02283,469.10458,37,51,0
469.02283,469.10458,49,61,0
469.18216,469.25858,30,44,0
469.18216,469.25858,42,52,0
469.33444,469.4099,35,47,0
469.33444,469.4099,47,56,0
469.4848,469.55917,32,49,0
469.4848,469.55917,44,59,0
469.63284,469.7115,37,51,0
469.63284,469.7115,49,61,0
469.7881,469.86365,30,48,0
469.7881,469.86365,42,57,0
469.93912,470.01413,35,50,0
469.93912,470.01413,47,60,0
470.0891,470.16385,32,53,0
470.0891,470.16385,44,63,0
470.23883,470.31497,37,69,0
470.23883,470.31497,49,69,0
470.3911,470.4661,30,55,0
470.3911,470.4661,42,65,0
470.54034,470.61423,35,55,0
470.54034,470.61423,47,65,0
470.6881,470.762,32,55,0
470.6881,470.762,44,65,0
470.8359,470.9102,37,59,0
470.8359,470.9102,49,70,0
470.98462,471.05905,32,53,0
470.98462,471.05905,44,63,0
471.1335,471.20834,37,53,0
471.1335,471.20834,49,63,0
471.28333,471.35834,32,53,0
471.28333,471.35834,44,63,0
471.43335,471.5089,37,61,0
471.43335,471.5089,49,72,0
471.58447,471.66006,32,58,0
471.58447,471.66006,44,69,0
471.73553,471.81027,37,59,0
471.73553,471.81027,49,71,0
471.88583,471.9614,32,60,0
471.88583,471.9614,44,72,0
472.03696,472.11255,37,66,0
472.03696,472.11255,49,78,0
472.19098,472.27274,32,64,0
472.19098,472.27274,44,76,0
472.35812,472.4478,37,65,0
472.35812,472.4478,49,77,0
472.5419,472.64078,32,66,0
472.5419,472.64078,44,79,0
472.74625,472.88843,37,71,0
472.74625,472.88843,49,85,0
474.77582,474.87973,46,63,0
474.87973,474.9836,51,55,0
474.9836,475.0875,55,55,0
475.0875,475.24335,61,62,0
475.4898,475.59372,46,63,0
475.59372,475.6976,51,55,0
475.6976,475.8015,55,55,0
475.8015,475.95734,61,62,0
476.1983,476.30304,44,63,0
476.27686,476.35538,51,59,0
476.35538,476.43393,54,59,0
476.43393,476.51245,60,59,0
476.51245,476.66953,66,62,0
476.9166,476.9945,44,62,0
476.9945,477.07245,51,58,0
477.07245,477.15036,54,58,0
477.15036,477.22827,60,58,0
477.22827,477.38412,66,62,0
477.6251,477.78815,65,62,0
477.6251,477.78815,49,62,0
479.70483,479.78275,46,63,0
479.78275,479.8607,51,58,0
479.8607,479.9386,55,58,0
479.9386,480.0165,61,58,0
480.0165,480.17236,67,62,0
480.41882,480.52274,46,63,0
480.52274,480.62662,51,55,0
480.62662,480.73053,55,55,0
480.73053,480.88635,61,62,0
481.12732,481.23203,44,63,0
481.20587,481.2844,51,59,0
481.2844,481.3629,54,59,0
481.3629,481.44147,60,59,0
481.44147,481.59854,66,62,0
481.8456,481.9495,44,62,0
481.9495,482.0534,51,57,0
482.0534,482.1573,54,57,0
482.1573,482.31314,60,62,0
482.54892,482.63416,49,51,0
482.54892,482.63416,61,60,0
482.71936,482.80432,48,51,0
482.71936,482.80432,60,60,0
482.88882,482.97333,47,51,0
482.88882,482.97333,59,61,0
483.0573,483.1411,46,52,0
483.0573,483.1411,58,62,0
483.22485,483.30795,45,53,0
483.22485,483.30795,57,63,0
483.39108,483.4739,44,54,0
483.39108,483.4739,56,64,0
483.5563,483.63873,43,54,0
483.5563,483.63873,55,64,0
483.72064,483.8024,42,55,0
483.72064,483.8024,54,65,0
483.8841,484.04626,41,64,0
483.8841,484.04626,53,70,0
484.04626,484.20926,40,56,0
484.04626,484.20926,52,67,0
484.20926,484.5379,39,58,0
484.20926,484.5379,51,69,0
484.5379,484.70398,38,67,0
484.5379,484.70398,50,76,0
484.70398,484.87088,37,62,0
484.70398,484.87088,49,73,0
484.87088,485.22144,36,62,0
484.87088,485.22144,48,74,0
485.22144,485.30386,49,61,0
485.22144,485.30386,61,72,0
485.38626,485.4687,48,61,0
485.38626,485.4687,60,72,0
485.55054,485.6323,47,61,0
485.55054,485.6323,59,73,0
485.71402,485.79544,46,62,0
485.71402,485.79544,58,74,0
485.87653,485.9576,45,63,0
485.87653,485.9576,57,75,0
486.03836,486.1188,44,64,0
486.03836,486.1188,56,76,0
486.19922,486.27954,43,64,0
486.19922,486.27954,55,76,0
486.3593,486.43912,42,66,0
486.3593,486.43912,54,78,0
486.5188,486.59796,41,77,0
486.5188,486.59796,53,83,0
486.67712,486.7568,40,67,0
486.67712,486.7568,52,80,0
486.83658,487.15918,39,69,0
486.83658,487.15918,51,82,0
487.15918,487.24057,38,81,0
487.15918,487.24057,50,90,0
487.32233,487.40417,37,74,0
487.32233,487.40417,49,87,0
487.4866,487.83102,36,74,0
487.4866,487.83102,48,88,0
487.83102,487.9108,49,61,0
487.83102,487.9108,61,72,0
487.99057,488.07037,48,61,0
487.99057,488.07037,60,72,0
488.1498,488.22897,47,61,0
488.1498,488.22897,59,73,0
488.30814,488.3873,46,62,0
488.30814,488.3873,58,74,0
488.4659,488.54443,45,63,0
488.4659,488.54443,57,75,0
488.623,488.7014,44,64,0
488.623,488.7014,56,76,0
488.7793,488.85724,43,64,0
488.7793,488.85724,55,76,0
488.93515,489.01276,42,66,0
488.93515,489.01276,54,78,0
489.09006,489.1674,41,78,0
489.09006,489.1674,53,83,0
489.24472,489.3215,40,67,0
489.24472,489.3215,52,80,0
489.39825,489.70386,39,69,0
489.39825,489.70386,51,82,0
489.70386,489.78,38,82,0
489.70386,489.78,50,88,0
489.85583,489.9314,37,74,0
489.85583,489.9314,49,87,0
490.007,490.3337,36,74,0
490.007,490.3337,48,88,0
490.3337,490.4095,35,73,0
490.3337,490.4095,47,87,0
490.48645,490.56464,34,74,0
490.48645,490.56464,46,88,0
490.64404,490.72473,33,76,0
490.64404,490.72473,45,90,0
490.80673,490.89026,32,77,0
490.80673,490.89026,44,91,0
490.9753,491.06183,31,79,0
490.9753,491.06183,43,93,0
491.14984,491.23944,30,79,0
491.14984,491.23944,42,94,0
491.3307,491.92435,29,81,0
491.3307,491.92435,41,96,0
491.92435,492.1237,28,86,0
491.92435,492.1237,40,102,0
492.32303,492.52237,47,81,0
492.32303,492.52237,59,96,0
492.72168,492.92102,40,82,0
492.72168,492.92102,52,97,0
493.12036,493.3067,59,79,0
493.12036,493.3067,71,94,0
493.49304,493.69437,28,86,0
493.49304,493.69437,40,102,0
493.89572,494.09708,47,81,0
493.89572,494.09708,59,96,0
494.2984,494.49976,40,82,0
494.2984,494.49976,52,97,0
494.70108,494.8892,59,79,0
494.70108,494.8892,71,94,0
495.07727,495.2766,28,86,0
495.07727,495.2766,40,102,0
495.47592,495.67526,47,81,0
495.47592,495.67526,59,96,0
495.8746,496.07394,40,82,0
495.8746,496.07394,52,97,0
496.2733,496.46136,59,79,0
496.2733,496.46136,71,94,0
496.64944,496.84683,35,86,0
496.64944,496.84683,47,102,0
497.0442,497.24155,54,81,0
497.0442,497.24155,66,96,0
497.43594,497.63028,33,82,0
497.43594,497.63028,45,97,0
497.8293,498.03305,54,79,0
497.8293,498.03305,66,94,0
498.2419,498.45392,32,88,0
498.2419,498.45392,44,104,0
498.45392,498.68292,43,74,0
498.45392,498.68292,55,88,0
498.68292,498.91193,44,79,0
498.68292,498.91193,56,94,0
498.91193,499.14093,55,79,0
498.91193,499.14093,67,94,0
499.14093,499.35297,56,84,0
499.14093,499.35297,68,99,0
499.35297,499.57938,43,75,0
499.35297,499.57938,55,89,0
499.57938,500.01556,44,79,0
499.57938,500.01556,56,93,0
500.01556,500.23218,32,85,0
500.01556,500.23218,44,101,0
500.23218,500.4488,43,74,0
500.23218,500.4488,55,88,0
500.4488,500.6654,44,79,0
500.4488,500.6654,56,94,0
500.6654,500.88202,55,79,0
500.6654,500.88202,67,94,0
500.88202,501.0986,56,84,0
500.88202,501.0986,68,99,0
501.0986,501.31522,43,75,0
501.0986,501.31522,55,89,0
501.31522,501.76804,44,79,0
501.31522,501.76804,56,93,0
501.76804,501.99448,30,90,0
501.76804,501.99448,42,107,0
501.99448,502.21344,45,74,0
501.99448,502.21344,57,88,0
502.21344,502.66678,46,79,0
502.21344,502.66678,58,94,0
502.66678,502.90115,29,90,0
502.66678,502.90115,41,106,0
502.90115,503.12015,49,75,0
502.90115,503.12015,61,89,0
503.12015,503.57077,50,79,0
503.12015,503.57077,62,93,0
503.57077,503.80243,27,97,0
503.57077,503.80243,39,115,0
503.80243,504.02142,45,74,0
503.80243,504.02142,57,88,0
504.02142,504.2404,46,79,0
504.02142,504.2404,58,94,0
504.2404,504.47205,57,79,0
504.2404,504.47205,69,94,0
504.47205,504.70108,58,84,0
504.47205,504.70108,70,99,0
504.70108,504.93008,45,75,0
504.70108,504.93008,57,89,0
504.93008,505.428,46,79,0
504.93008,505.428,58,93,0
505.428,505.66516,30,91,0
505.428,505.66516,42,108,0
505.66516,505.88904,48,74,0
505.66516,505.88904,60,88,0
505.88904,506.1129,49,79,0
505.88904,506.1129,61,94,0
506.1129,506.36502,60,79,0
506.1129,506.36502,72,94,0
506.36502,506.61713,61,84,0
506.36502,506.61713,73,99,0
506.61713,506.8515,48,75,0
506.61713,506.8515,60,89,0
506.8515,507.35135,49,79,0
506.8515,507.35135,61,93,0
507.35135,507.59427,32,89,0
507.35135,507.59427,44,105,0
507.59427,507.8563,43,74,0
507.59427,507.8563,55,88,0
507.8563,508.1183,44,79,0
507.8563,508.1183,56,94,0
508.1183,508.35828,55,79,0
508.1183,508.35828,67,94,0
508.35828,508.62378,56,84,0
508.35828,508.62378,68,99,0
509.13217,509.3751,77,79,0
509.13217,509.3751,65,79,0
509.3751,509.618,66,85,0
509.3751,509.618,78,100,0
510.10385,510.3465,62,60,0
510.10385,510.3465,74,72,0
510.3465,510.57397,63,64,0
510.3465,510.57397,75,76,0
510.57397,510.7883,59,59,0
510.57397,510.7883,71,69,0
510.7883,510.9945,60,63,0
510.7883,510.9945,72,75,0
510.9945,511.19305,55,59,0
510.9945,511.19305,67,69,0
511.19305,511.38538,56,63,0
511.19305,511.38538,68,75,0
511.38538,511.57294,53,57,0
511.38538,511.57294,65,68,0
511.57294,511.75684,54,61,0
511.57294,511.75684,66,72,0
511.75684,511.93936,50,57,0
511.75684,511.93936,62,67,0
511.93936,512.12024,51,62,0
511.93936,512.12024,63,73,0
512.12024,512.29974,47,55,0
512.12024,512.29974,59,66,0
512.29974,512.4778,48,60,0
512.29974,512.4778,60,72,0
512.4778,512.6536,43,56,0
512.4778,512.6536,55,68,0
512.6536,512.827,44,60,0
512.6536,512.827,56,71,0
512.827,513.00183,41,58,0
512.827,513.00183,53,69,0
513.00183,513.1776,42,62,0
513.00183,513.1776,54,74,0
513.1776,513.3546,38,60,0
513.1776,513.3546,50,70,0
513.3546,513.53705,39,64,0
513.3546,513.53705,51,77,0
513.53705,513.7263,35,62,0
513.53705,513.7263,47,74,0
513.7263,513.9237,36,67,0
513.7263,513.9237,48,80,0
513.9237,514.1292,39,64,0
513.9237,514.1292,32,64,0
513.9237,514.1292,44,75,0
514.1292,514.26556,33,68,0
514.1292,514.26556,42,80,0
514.26556,514.4019,45,75,0
514.4019,514.5383,33,68,0
514.4019,514.5383,42,80,0
514.5383,514.6747,45,74,0
514.6747,514.81104,33,62,0
514.6747,514.81104,42,74,0
514.81104,514.9474,45,80,0
514.9474,515.08374,33,62,0
514.9474,515.08374,42,74,0
515.08374,515.1519,45,80,0
515.2201,515.76556,45,73,0
515.18604,515.76556,42,73,0
515.1519,515.76556,33,73,0
516.31104,516.45526,30,68,0
516.31104,516.45526,37,80,0
516.45526,516.5995,42,75,0
516.5995,516.7437,30,68,0
516.5995,516.7437,37,80,0
516.7437,516.88794,42,74,0
516.88794,517.03217,30,62,0
516.88794,517.03217,37,74,0
517.03217,517.1764,42,80,0
517.1764,517.3206,30,62,0
517.1764,517.3206,37,74,0
517.3206,517.39276,42,80,0
517.4649,518.0179,42,73,0
517.42883,518.0179,37,73,0
517.39276,518.0179,30,73,0
518.61194,518.9119,37,73,0
518.61194,518.9119,25,68,0
519.2119,519.49695,54,67,0
519.2119,519.49695,66,79,0
519.2119,519.49695,61,67,0
519.2119,519.49695,57,67,0
519.782,520.05914,56,67,0
519.782,520.05914,61,79,0
519.782,520.05914,49,67,0
519.782,520.05914,53,67,0
520.05914,520.3363,51,67,0
520.05914,520.3363,56,79,0
520.05914,520.3363,44,67,0
520.05914,520.3363,48,67,0
520.3363,520.6134,44,67,0
520.3363,520.6134,49,79,0
520.3363,520.6134,37,67,0
520.3363,520.6134,41,67,0
520.6134,520.89056,39,67,0
520.6134,520.89056,44,79,0
520.6134,520.89056,32,67,0
520.6134,520.89056,36,67,0
520.89056,521.1602,44,67,0
520.89056,521.1602,49,79,0
520.89056,521.1602,37,67,0
520.89056,521.1602,41,67,0
521.9692,522.24634,54,70,0
521.9692,522.24634,66,82,0
521.9692,522.24634,61,70,0
521.9692,522.24634,58,70,0
523.106,523.3973,44,77,0
523.106,523.3973,49,86,0
523.106,523.3973,37,73,0
523.106,523.3973,41,73,0
25.140114,25.676756,56,51,0
25.066101,25.676756,40,39,0
25.090773,25.676756,47,44,0
25.115444,25.676756,50,47,0
26.840378,27.379005,56,51,0
26.764874,27.379005,40,39,0
26.790041,27.379005,47,44,0
26.81521,27.379005,50,47,0
28.579313,29.127258,54,51,0
28.502258,29.127258,40,39,0
28.527943,29.127258,47,44,0
28.553627,29.127258,50,47,0
30.298183,30.843727,56,51,0
30.221128,30.843727,40,39,0
30.246813,30.843727,47,44,0
30.2725,30.843727,50,47,0
32.041374,32.58,57,54,0
31.965872,32.58,40,43,0
31.99104,32.58,49,47,0
32.01621,32.58,52,50,0
33.75303,34.29964,57,54,0
33.675175,34.29964,40,43,0
33.701126,34.29964,49,47,0
33.727077,34.29964,52,50,0
35.519062,36.076553,57,54,0
35.437836,36.076553,40,43,0
35.464912,36.076553,48,47,0
35.49199,36.076553,51,50,0
37.298077,37.89258,57,54,0
37.212196,37.89258,40,43,0
37.24082,37.89258,49,47,0
37.26945,37.89258,52,50,0
38.2322,41.1003,54,51,0
38.2039,41.1003,49,49,0
38.1756,41.1003,39,48,0
299.84644,299.96677,91,47,0
299.96677,300.0871,92,47,0
300.0871,300.20743,94,47,0
300.20535,300.29456,92,47,0
300.29456,300.37512,94,42,0
300.37512,300.4491,92,47,0
300.4508,300.52628,94,40,0
300.52628,300.6034,92,47,0
300.6034,300.67844,94,41,0
300.67844,300.75455,92,47,0
300.75455,300.8297,94,41,0
300.83145,300.9084,92,47,0
300.9084,300.983,94,41,0
300.983,301.0558,92,47,0
301.0558,301.12854,94,42,0
301.12854,301.2006,92,47,0
301.20224,301.27335,94,41,0
301.27335,301.34378,92,47,0
301.34378,301.41333,94,41,0
301.41333,301.48224,92,47,0
301.48224,301.5503,94,42,0
301.566,301.63312,92,47,0
301.63312,301.6999,94,41,0
301.70142,301.7682,92,47,0
301.7682,301.83496,94,41,0
301.83496,301.90216,92,47,0
301.90216,301.96954,94,42,0
301.96954,302.03696,92,47,0
302.0385,302.1059,94,40,0
302.1059,302.1734,92,47,0
302.1734,302.24216,94,41,0
302.24216,302.31018,92,47,0
302.31018,302.38312,94,41,0
302.38483,302.45697,92,47,0
302.45697,302.52893,94,41,0
302.52893,302.60107,92,47,0
302.60107,302.67322,94,42,0
302.67322,302.7486,92,47,0
302.7505,302.83255,94,41,0
302.83255,302.91296,92,47,0
302.91296,302.9954,94,41,0
302.9954,303.0784,92,47,0
303.0784,303.1614,94,42,0
303.1807,303.25604,92,47,0
303.25604,303.3282,94,41,0
303.32993,303.40515,92,47,0
303.40515,303.4827,94,41,0
303.4827,303.55844,92,47,0
303.55844,303.63293,94,42,0
303.63293,303.70972,92,47,0
303.7115,303.78586,94,40,0
303.78586,303.86255,92,47,0
303.86255,303.93823,94,41,0
303.93823,304.01282,92,47,0
304.01282,304.08948,94,41,0
304.09125,304.16614,92,47,0
304.16614,304.24203,94,41,0
304.24203,304.31927,92,47,0
304.31927,304.394,94,42,0
304.394,304.4708,92,47,0
304.4725,304.54688,94,41,0
304.54688,304.62448,92,47,0
304.62448,304.70212,94,41,0
304.70212,304.77893,92,47,0
304.77893,304.8557,94,42,0
304.87357,304.945,92,47,0
304.945,305.01526,94,41,0
305.01694,305.08908,92,47,0
305.08908,305.16125,94,41,0
305.16125,305.2334,92,47,0
305.2334,305.30795,94,42,0
305.30795,305.3851,92,47,0
305.38687,305.46362,94,40,0
305.46362,305.54123,92,47,0
305.54123,305.6169,94,41,0
305.6169,305.69443,92,47,0
305.69443,305.77203,94,41,0
305.77383,305.85025,92,47,0
305.85025,305.92847,94,41,0
305.92847,306.0275,92,47,0
306.0275,306.13464,94,42,0
306.13464,306.23532,92,47,0
306.23532,306.336,94,42,0
306.53732,306.61847,94,64,0
306.61847,306.6996,96,41,0
306.70148,306.78262,94,47,0
306.78262,306.86374,96,41,0
306.86374,306.9449,94,47,0
306.9449,307.0227,96,42,0
307.0227,307.09634,94,61,0
307.09805,307.17166,96,40,0
307.17166,307.2453,94,47,0
307.2453,307.31894,96,41,0
307.31894,307.39255,94,47,0
307.39255,307.4679,96,41,0
307.46964,307.54596,94,47,0
307.54596,307.62177,96,41,0
307.62177,307.6971,94,47,0
307.6971,307.7752,96,42,0
307.7752,307.85016,94,47,0
307.85187,307.92694,96,41,0
307.92694,308.00443,94,47,0
308.00443,308.08057,96,41,0
308.08057,308.15656,94,47,0
308.15656,308.2325,96,42,0
308.24963,308.32156,94,47,0
308.32156,308.3953,96,41,0
308.39703,308.46997,94,47,0
308.46997,308.54288,96,41,0
308.54288,308.6174,94,47,0
308.6174,308.6891,96,42,0
308.6891,308.76157,94,47,0
308.76334,308.83975,96,40,0
308.83975,308.91446,94,47,0
308.91446,308.98755,96,41,0
308.98755,309.06235,94,47,0
309.06235,309.1338,96,41,0
309.13544,309.20816,94,47,0
309.20816,309.28217,96,41,0
309.28217,309.35522,94,47,0
309.35522,309.42963,96,42,0
309.42963,309.50885,94,47,0
309.51093,309.60013,96,41,0
309.97543,310.05304,97,70,0
310.05304,310.13345,99,41,0
310.13528,310.21274,97,47,0
310.21274,310.2908,99,41,0
310.2908,310.37177,97,47,0
310.37177,310.4505,99,42,0
310.4505,310.529,97,66,0
310.5308,310.61008,99,40,0
310.61008,310.69025,97,47,0
310.69025,310.7674,99,41,0
310.7674,310.84357,97,47,0
310.84357,310.92337,99,41,0
310.9252,311.00336,97,47,0
311.00336,311.08047,99,41,0
311.08047,311.1611,97,47,0
311.1611,311.23956,99,42,0
311.23956,311.3174,97,47,0
311.31927,311.3986,99,41,0
311.3986,311.47794,97,47,0
311.47794,311.5661,99,41,0
311.5661,311.66122,97,47,0
311.66122,311.75635,99,42,0
311.77502,311.85452,97,47,0
311.85452,311.93253,99,41,0
311.9344,312.0158,97,47,0
312.0158,312.09366,99,41,0
312.09366,312.17438,97,47,0
312.17438,312.25644,99,42,0
312.25644,312.33575,97,47,0
312.33755,312.41687,99,40,0
312.41687,312.4974,97,47,0
312.4974,312.57767,99,41,0
312.57767,312.65793,97,47,0
312.65793,312.73938,99,41,0
312.74124,312.82147,97,47,0
312.82147,312.9031,99,41,0
312.9031,312.98517,97,47,0
312.98517,313.06723,99,42,0
313.06723,313.14078,97,47,0
313.14078,313.18704,99,41,0
348.96002,349.02606,94,47,0
349.02606,349.10474,96,41,0
349.09167,349.16968,94,47,0
349.15674,349.23422,96,41,0
349.22134,349.28543,94,47,0
349.28543,349.3617,96,41,0
349.34906,349.42474,94,47,0
349.4122,349.48727,96,41,0
349.4748,349.53717,94,47,0
349.53717,349.61203,96,41,0
349.59955,349.67416,94,47,0
349.66177,349.73615,96,41,0
349.72375,349.78574,94,47,0
349.78574,349.85974,96,41,0
349.84744,349.92136,94,47,0
349.90903,349.98273,96,41,0
349.97064,350.03113,94,47,0
350.03113,350.104,96,41,0
350.0916,350.166,94,47,0
350.1536,350.22745,96,41,0
350.21558,350.27496,94,47,0
350.27496,350.3467,96,41,0
350.33438,350.4083,94,47,0
350.396,350.46982,96,41,0
350.45758,350.5188,94,47,0
350.5188,350.59186,96,41,0
350.58005,350.6509,94,47,0
350.6391,350.71054,96,41,0
350.69815,350.76013,93,48,0
350.76013,350.83798,94,49,0
350.82477,350.90295,95,51,0
350.89087,350.96933,96,52,0
350.95694,351.01892,97,66,0
351.01892,351.0933,99,47,0
351.0809,351.15527,97,54,0
351.14288,351.21704,99,48,0
351.20486,351.26572,97,54,0
351.26572,351.33875,99,47,0
351.32657,351.3996,97,52,0
351.38742,351.46045,99,47,0
351.44827,351.50912,97,59,0
351.50912,351.5823,99,47,0
351.56998,351.6439,97,54,0
351.6316,351.7055,99,48,0
351.69318,351.7548,97,52,0
351.7548,351.8287,99,47,0
351.81638,351.89032,97,51,0
351.878,351.95215,99,48,0
351.93958,352.00235,97,54,0
352.00235,352.07767,99,46,0
352.06512,352.1404,97,52,0
352.12787,352.2032,99,46,0
352.19064,352.2534,97,52,0
352.2534,352.3287,99,44,0
352.31616,352.39148,97,52,0
352.3789,352.4549,99,46,0
352.44168,352.50775,97,52,0
352.50775,352.58707,99,44,0
352.57385,352.65314,97,51,0
352.63992,352.7183,99,44,0
352.70554,352.76794,97,50,0
352.76794,352.84216,99,46,0
352.82944,352.9063,97,51,0
352.89355,352.96838,99,46,0
352.95605,353.01767,97,52,0
353.01767,353.09494,99,44,0
353.08182,353.15964,97,51,0
353.14676,353.22363,99,43,0
353.21085,353.27478,97,50,0
353.27478,353.3507,99,43,0
353.33807,353.41415,97,50,0
353.40134,353.48035,99,43,0
353.46695,353.53278,97,49,0
353.53278,353.60992,99,43,0
353.59686,353.6758,97,50,0
353.66254,353.7408,99,43,0
353.72812,353.7926,97,50,0
353.7926,353.8724,99,44,0
353.8591,353.9381,97,49,0
353.92505,354.0028,99,42,0
353.9902,354.05322,97,50,0
354.05322,354.13116,99,46,0
354.11826,354.19553,97,50,0
354.18246,354.2603,99,44,0
354.24747,354.3106,97,47,0
354.3106,354.38916,99,41,0
354.3758,354.45416,97,47,0
354.4413,354.51837,99,41,0
354.5053,354.59354,97,47,0
354.59354,354.6786,99,41,0
354.6786,354.7653,97,49,0
354.7653,354.85675,96,53,0
354.85675,354.95175,97,58,0
354.95175,355.05652,98,62,0
368.23578,368.30185,82,36,0
368.30185,368.3805,84,32,0
368.36746,368.44547,82,36,0
368.4325,368.51,84,32,0
368.49713,368.56122,82,36,0
368.56122,368.63748,84,32,0
368.62485,368.70053,82,36,0
368.688,368.76306,84,32,0
368.75058,368.81296,82,36,0
368.81296,368.8878,84,32,0
368.87534,368.94992,82,36,0
368.93753,369.0119,84,32,0
368.9995,369.0615,82,36,0
369.0615,369.13553,84,32,0
369.1232,369.19714,82,36,0
369.1848,369.25873,84,32,0
435.9804,436.05374,92,60,0
436.05374,436.12732,94,54,0
436.12732,436.20526,92,60,0
436.20526,436.28317,94,54,0
436.28317,436.3611,92,60,0
436.3611,436.43918,94,54,0
436.43918,436.52026,92,54,0
436.52026,436.6008,94,54,0
436.6008,436.68097,92,60,0
436.68097,436.76056,94,54,0
436.76056,436.83954,92,60,0
436.83954,436.9178,94,54,0
436.9191,436.99677,92,60,0
436.99545,437.0726,94,54,0
437.0726,437.14917,92,54,0
437.14917,437.2253,94,54,0
437.2253,437.30145,92,60,0
437.30145,437.3776,94,54,0
437.3776,437.45374,92,60,0
437.45374,437.52988,94,54,0
437.52988,437.60602,92,60,0
437.60602,437.68216,94,54,0
437.68216,437.7639,92,54,0
437.7639,437.84564,94,54,0
437.84564,437.92178,92,60,0
437.92178,437.99792,94,54,0
437.99792,438.07407,92,60,0
438.07407,438.1502,94,54,0
438.1502,438.22635,92,60,0
438.22635,438.3025,94,54,0
438.3025,438.38492,92,54,0
438.38492,438.46732,94,54,0
438.46732,438.53857,92,60,0
438.53857,438.61017,94,54,0
438.61017,438.68518,92,60,0
438.68518,438.7602,94,54,0
438.7602,438.83517,92,60,0
438.83517,438.9105,94,54,0
438.9105,438.99158,92,54,0
438.99158,439.0707,94,54,0
439.0707,439.1493,92,60,0
439.1493,439.22726,94,54,0
439.22726,439.30457,92,60,0
439.30457,439.38132,94,54,0
439.38132,439.4574,92,60,0
439.4574,439.53293,94,55,0
439.53293,439.60794,92,55,0
439.60794,439.68237,94,55,0
439.68237,439.7552,92,61,0
439.7552,439.8291,94,56,0
439.8291,439.90192,92,62,0
439.90192,439.97635,94,56,0
439.97635,440.05078,92,63,0
440.05078,440.1252,94,57,0
440.1252,440.20502,92,57,0
440.20502,440.2848,94,57,0
440.2848,440.3598,92,64,0
440.3598,440.4348,94,58,0
440.4348,440.5098,92,64,0
440.5098,440.5848,94,58,0
440.5848,440.6598,92,65,0
440.6598,440.7348,94,59,0
440.7348,440.8193,92,59,0
440.8193,440.9038,94,59,0
