start_time,end_time,note_value,velocity,instrument_program_number
6.510761,8.239336,46,79,0
8.239336,8.380546,50,60,0
8.380546,8.50991,55,62,0
8.50991,8.629233,58,63,0
8.629233,8.740288,62,64,0
8.740288,8.847789,67,65,0
8.847789,8.954061,70,67,0
8.954061,9.059214,74,68,0
9.059214,9.163274,79,70,0
9.163274,9.266262,82,71,0
9.266262,9.368199,86,72,0
9.368199,9.46921,91,77,0
9.46921,10.826589,94,80,0
10.826589,10.957183,93,58,0
10.957183,11.08453,91,59,0
11.08453,11.207159,90,59,0
11.207159,11.325406,87,60,0
11.325406,11.439235,86,60,0
11.439235,11.5488405,84,61,0
11.5488405,11.654982,82,62,0
11.654982,11.757824,81,62,0
11.757824,11.857307,79,63,0
11.857307,11.95347,78,63,0
11.95347,12.046452,75,63,0
12.046452,12.13646,74,63,0
12.13646,12.22378,72,64,0
12.22378,12.308532,70,64,0
12.308532,12.390803,69,65,0
12.390803,12.472325,67,65,0
12.472325,12.553435,66,66,0
12.553435,12.634168,63,66,0
12.634168,12.714411,62,67,0
12.714411,12.794283,60,68,0
12.794283,12.873676,58,68,0
12.873676,12.952707,57,69,0
12.952707,13.031269,55,69,0
13.031269,13.109476,54,70,0
13.109476,13.1872225,51,70,0
13.1872225,13.264623,50,71,0
13.264623,13.341572,48,71,0
13.341572,13.418181,46,72,0
13.418181,13.4943495,45,72,0
13.4943495,15.052937,43,80,0
15.052937,15.163034,46,60,0
15.163034,15.265293,50,62,0
15.265293,15.361278,55,63,0
15.361278,15.4516325,58,64,0
15.4516325,15.537041,62,65,0
15.537041,15.618713,67,67,0
15.618713,15.699158,70,68,0
15.699158,15.778974,74,70,0
15.778974,15.858144,79,71,0
15.858144,15.936707,82,72,0
15.936707,16.014643,86,73,0
16.014643,16.09199,91,75,0
16.16873,17.677958,98,80,0
16.09199,17.677958,94,78,0
17.677958,17.808552,96,58,0
17.808552,17.935898,94,58,0
17.935898,18.058527,93,58,0
18.058527,18.176775,91,59,0
18.176775,18.290604,90,59,0
18.290604,18.40021,87,60,0
18.40021,18.506351,86,60,0
18.506351,18.609192,84,61,0
18.609192,18.708675,82,62,0
18.708675,18.804838,81,62,0
18.804838,18.89782,79,63,0
18.89782,18.98783,78,63,0
18.98783,19.075148,75,63,0
19.075148,19.1599,74,63,0
19.1599,19.242172,72,64,0
19.242172,19.323694,70,64,0
19.323694,19.404804,69,65,0
19.404804,19.485537,67,65,0
19.485537,19.565779,66,66,0
19.565779,19.64565,63,66,0
19.64565,19.725044,62,67,0
19.725044,19.804075,60,68,0
19.804075,19.882637,58,68,0
19.882637,19.960844,57,69,0
19.960844,20.038591,55,69,0
20.038591,20.115992,54,70,0
20.115992,20.192942,51,69,0
20.192942,20.26955,50,70,0
20.26955,20.345718,48,72,0
20.345718,20.421553,46,73,0
20.421553,20.496954,45,74,0
20.496954,21.829872,43,80,0
21.829872,21.957449,44,61,0
21.957449,22.079546,45,61,0
22.079546,22.19694,46,62,0
22.19694,22.309847,47,63,0
22.309847,22.418558,48,63,0
22.418558,22.52356,49,63,0
22.52356,22.624739,50,64,0
22.624739,22.722788,51,64,0
22.722788,22.817532,52,65,0
22.817532,22.909452,53,66,0
22.909452,22.998568,54,66,0
22.998568,23.085049,55,67,0
23.085049,23.169165,56,68,0
23.169165,23.250841,57,68,0
23.250841,23.33049,58,69,0
23.33049,23.408615,59,69,0
23.408615,23.48674,60,70,0
23.48674,23.564865,61,71,0
23.564865,23.64299,62,72,0
23.64299,23.721115,63,72,0
23.721115,23.79924,64,72,0
23.79924,23.877365,65,72,0
23.877365,23.95549,66,73,0
23.95549,24.03281,67,76,0
24.03281,24.11013,66,75,0
24.11013,24.187054,65,74,0
24.187054,24.263872,64,72,0
24.263872,24.340403,63,72,0
24.340403,24.416752,62,71,0
24.416752,24.492893,61,70,0
24.492893,24.568779,60,68,0
24.568779,24.644844,59,66,0
24.644844,24.721455,58,67,0
24.721455,24.79851,57,68,0
24.79851,24.876097,56,69,0
24.876097,24.954195,55,70,0
24.954195,25.032839,54,71,0
25.032839,25.111925,53,72,0
25.111925,25.191572,52,73,0
25.191572,25.271757,51,74,0
25.271757,25.35252,50,75,0
25.35252,25.433865,49,77,0
25.433865,25.515684,48,79,0
25.515684,25.598072,47,80,0
25.598072,25.681068,46,81,0
25.681068,25.76468,45,83,0
25.76468,25.848478,44,85,0
25.848478,26.10058,43,97,0
26.856882,27.108982,91,69,0
26.856882,27.108982,103,96,0
26.856882,27.108982,98,81,0
26.856882,27.108982,94,69,0
71.16962,71.898415,70,75,0
71.898415,72.64475,73,78,0
72.64475,73.383934,74,81,0
73.383934,74.12006,70,74,0
91.62291,92.28589,62,66,0
91.62291,92.28589,60,53,0
92.960045,93.61222,63,54,0
92.960045,93.61222,65,69,0
94.2644,94.92374,69,72,0
94.2644,94.92374,65,57,0
95.58308,96.23173,70,72,0
96.89471,97.571144,73,75,0
98.25561,98.95255,82,79,0
99.65022,100.36451,74,72,0
101.10644,101.904854,65,70,0
101.904854,102.63266,66,64,0
110.679535,111.81587,62,66,0
110.679535,111.81587,50,66,0
111.81587,112.24324,62,67,0
111.81587,112.24324,50,67,0
114.401054,115.13725,79,71,0
114.401054,115.13725,67,71,0
115.13725,115.87345,78,69,0
115.13725,115.87345,66,69,0
115.87345,116.64012,77,67,0
115.87345,116.64012,65,67,0
116.64012,117.37254,75,66,0
116.64012,117.37254,63,66,0
117.37254,118.124146,74,65,0
117.37254,118.124146,71,65,0
117.37254,118.124146,68,59,0
118.124146,118.87574,72,63,0
118.124146,118.87574,67,63,0
123.56484,124.20368,71,65,0
123.56484,124.20368,62,54,0
123.56484,124.20368,59,54,0
124.20368,124.84016,72,71,0
124.20368,124.84016,63,59,0
124.20368,124.84016,60,59,0
124.84016,125.46639,74,72,0
124.84016,125.46639,65,60,0
124.84016,125.46639,62,60,0
125.46639,126.083374,75,74,0
125.46639,126.083374,67,63,0
125.46639,126.083374,63,63,0
126.083374,126.69291,77,76,0
126.083374,126.69291,74,64,0
126.083374,126.69291,65,64,0
126.69291,127.29555,79,79,0
126.69291,127.29555,75,67,0
126.69291,127.29555,67,67,0
127.29555,127.8983,79,82,0
127.29555,127.8983,77,70,0
127.29555,127.8983,67,70,0
127.8983,128.51451,75,76,0
127.8983,128.51451,79,76,0
127.8983,128.51451,87,90,0
128.51451,128.8965,74,76,0
128.51451,128.8965,80,76,0
128.51451,128.8965,86,91,0
128.8965,129.23671,73,80,0
128.8965,129.23671,81,80,0
128.8965,129.23671,85,95,0
131.01292,131.75966,81,71,0
131.01292,131.75966,69,71,0
131.75966,132.49136,80,69,0
131.75966,132.49136,68,69,0
132.49136,133.25804,79,67,0
132.49136,133.25804,67,67,0
133.25804,133.9766,77,66,0
133.25804,133.9766,65,66,0
133.9766,134.71733,76,65,0
133.9766,134.71733,73,65,0
133.9766,134.71733,70,59,0
134.71733,135.46268,74,63,0
134.71733,135.46268,69,63,0
140.16853,140.80737,73,65,0
140.16853,140.80737,64,54,0
140.16853,140.80737,61,54,0
140.80737,141.44803,74,71,0
140.80737,141.44803,65,59,0
140.80737,141.44803,62,59,0
141.44803,142.08278,76,72,0
141.44803,142.08278,67,60,0
141.44803,142.08278,64,60,0
142.08278,142.71118,77,74,0
142.08278,142.71118,69,63,0
142.08278,142.71118,65,63,0
142.71118,143.33331,79,77,0
142.71118,143.33331,76,65,0
142.71118,143.33331,67,65,0
143.33331,143.94936,81,81,0
143.33331,143.94936,77,69,0
143.33331,143.94936,69,69,0
143.94936,144.56133,81,84,0
143.94936,144.56133,79,72,0
143.94936,144.56133,69,72,0
144.56133,145.17754,77,77,0
144.56133,145.17754,81,79,0
144.56133,145.17754,89,94,0
145.17754,145.5981,76,74,0
145.17754,145.5981,81,78,0
145.17754,145.5981,88,94,0
147.66353,147.8778,81,83,0
148.3145,148.534,83,88,0
148.98132,149.2008,84,91,0
150.32729,150.5189,84,91,0
150.94003,151.13794,83,90,0
151.56232,151.76692,82,90,0
152.19669,152.40245,81,88,0
152.83472,153.04164,80,87,0
155.56653,155.7808,82,83,0
156.2175,156.437,84,88,0
156.88432,157.1038,85,91,0
158.23029,158.43147,85,91,0
158.85756,159.06102,84,90,0
159.4883,159.6929,83,90,0
160.12268,160.32843,82,88,0
160.7607,160.96762,81,87,0
163.46297,163.67973,84,83,0
164.11244,164.32523,86,88,0
164.76555,164.98499,87,91,0
165.55414,165.75204,91,91,0
166.17725,166.37302,89,90,0
166.79736,166.99527,87,90,0
167.41647,167.6081,84,88,0
168.00967,168.20757,87,87,0
168.6299,168.83109,84,87,0
169.2551,169.44772,89,91,0
169.85205,170.04886,87,90,0
170.45517,170.64577,86,90,0
171.04518,171.24199,82,88,0
171.65903,171.85692,86,87,0
172.27689,172.47696,82,87,0
172.90201,173.09671,87,91,0
173.50114,173.69478,86,90,0
174.097,174.28963,84,90,0
174.69841,174.89738,81,88,0
175.31444,175.51233,84,87,0
175.92992,176.12889,81,87,0
176.55608,176.75505,86,91,0
177.17393,177.37183,84,90,0
177.79903,178.00249,82,90,0
178.43034,178.63493,86,88,0
179.06529,179.27104,86,87,0
179.70392,179.91086,85,87,0
208.40063,209.7751,65,55,0
209.7751,210.44482,64,50,0
210.44482,211.08165,63,60,0
211.08165,211.73503,62,56,0
211.73503,212.4079,63,58,0
212.4079,213.78236,63,55,0
213.78236,214.4569,63,50,0
214.4569,215.1134,63,56,0
215.1134,215.78201,62,53,0
215.78201,216.45488,62,54,0
216.45488,217.12347,62,53,0
217.12347,217.81357,61,50,0
217.81357,218.49399,62,50,0
218.49399,219.18124,58,50,0
219.18124,219.87048,60,45,0
219.87048,220.59195,57,45,0
220.59195,221.27829,58,45,0
221.2812,221.92986,62,47,0
221.92986,222.59566,58,50,0
222.59845,223.2769,62,54,0
223.2769,223.92021,62,55,0
223.9229,224.61926,65,61,0
224.61926,225.2747,67,62,0
225.2747,225.98627,63,63,0
225.98627,226.67073,62,58,0
226.67073,227.39258,58,56,0
227.39258,228.09804,60,52,0
228.09804,228.83119,57,50,0
228.83119,229.52437,58,45,0
229.52727,230.17288,62,48,0
230.17288,230.83485,58,50,0
230.83757,231.51263,62,54,0
231.51263,232.15636,62,55,0
232.159,232.84828,65,61,0
232.84828,233.48999,67,62,0
233.48999,234.17506,63,63,0
234.17506,234.8555,62,58,0
234.8555,235.57733,58,56,0
235.57733,236.2828,60,52,0
236.2828,237.00154,57,50,0
239.00781,239.68098,79,62,0
239.00781,239.68098,91,72,0
239.68098,240.67229,90,70,0
239.68098,240.67229,78,59,0
240.67229,241.0125,87,67,0
240.67229,241.0125,75,57,0
241.0125,241.69696,86,60,0
241.0125,241.69696,74,50,0
243.01288,243.68343,79,70,0
243.01288,243.68343,67,59,0
243.68343,244.67473,78,67,0
243.68343,244.67473,66,56,0
244.67473,245.01494,75,64,0
244.67473,245.01494,63,54,0
245.01494,245.72041,62,50,0
245.01494,245.72041,74,60,0
245.72041,246.41316,62,59,0
245.72041,246.41316,67,59,0
245.72041,246.41316,74,70,0
246.41316,248.43694,62,56,0
246.41316,248.43694,74,67,0
246.41316,248.43694,67,56,0
248.43694,249.19746,60,63,0
248.43694,249.19746,72,73,0
248.43694,249.19746,67,63,0
249.91176,250.14256,67,74,0
250.61293,251.323,66,66,0
251.323,252.03622,64,64,0
252.03622,252.76059,62,65,0
252.76059,253.008,59,68,0
253.51219,253.75305,55,65,0
254.2439,254.98244,54,66,0
254.98244,255.74931,52,68,0
255.74931,256.54675,51,69,0
256.54675,257.41632,50,71,0
257.41632,258.4623,47,72,0
264.9869,266.71548,47,79,0
266.71548,266.8567,50,60,0
266.8567,266.98605,55,62,0
266.98605,267.10538,59,63,0
267.10538,267.21625,62,64,0
267.21625,267.32364,67,65,0
267.32364,267.42932,71,67,0
267.42932,267.53348,74,68,0
267.53348,267.63605,79,70,0
267.63605,267.73718,83,71,0
267.73718,267.83682,86,72,0
267.83682,267.9351,91,77,0
267.9351,269.28195,95,80,0
269.28195,269.41354,93,58,0
269.41354,269.54285,91,59,0
269.54285,269.66925,90,59,0
269.66925,269.79324,88,60,0
269.79324,269.91486,86,60,0
269.91486,270.0339,84,61,0
270.0339,270.14844,83,62,0
270.14844,270.25742,81,62,0
270.25742,270.36136,79,63,0
270.36136,270.46072,78,63,0
270.46072,270.55566,76,63,0
270.55566,270.64676,74,63,0
270.64676,270.7343,72,64,0
270.7343,270.8186,71,64,0
270.8186,270.9006,69,65,0
270.9006,270.98154,67,65,0
270.98154,271.0619,66,66,0
271.0619,271.14185,64,66,0
271.14185,271.22107,62,67,0
271.22107,271.29987,60,68,0
271.29987,271.37814,59,68,0
271.37814,271.456,57,69,0
271.456,271.53317,55,69,0
271.53317,271.60995,54,70,0
271.60995,271.68625,52,70,0
271.68625,271.76212,50,71,0
271.76212,271.83737,48,71,0
271.83737,271.91226,47,72,0
271.91226,271.98663,45,72,0
271.98663,273.53952,43,80,0
273.53952,273.65555,47,60,0
273.65555,273.76352,50,62,0
273.76352,273.86444,55,63,0
273.86444,273.9594,59,64,0
273.9594,274.0489,62,65,0
274.0489,274.13367,67,67,0
274.13367,274.21503,71,68,0
274.21503,274.29526,74,70,0
274.29526,274.3746,79,71,0
274.3746,274.45288,83,72,0
274.45288,274.53018,86,73,0
274.53018,274.6066,91,75,0
274.68198,276.18365,98,80,0
274.6066,276.18365,95,78,0
276.18365,276.3176,96,58,0
276.3176,276.4492,95,58,0
276.4492,276.57703,93,58,0
276.57703,276.69968,91,59,0
276.69968,276.81717,90,59,0
276.81717,276.92996,88,60,0
276.92996,277.0387,86,60,0
277.0387,277.14334,84,61,0
277.14334,277.24426,83,62,0
277.24426,277.34186,81,62,0
277.34186,277.43622,79,63,0
277.43622,277.52768,78,63,0
277.52768,277.61627,76,63,0
277.61627,277.70215,74,63,0
277.70215,277.7852,72,64,0
277.7852,277.867,71,64,0
277.867,277.94824,69,65,0
277.94824,278.02875,67,65,0
278.02875,278.10852,66,66,0
278.10852,278.18762,64,66,0
278.18762,278.26602,62,67,0
278.26602,278.34387,60,68,0
278.34387,278.42105,59,68,0
278.42105,278.4976,57,69,0
278.4976,278.57373,55,69,0
278.57373,278.64948,54,70,0
278.64948,278.72485,52,69,0
278.72485,278.79987,50,70,0
278.79987,278.87448,48,72,0
278.87448,278.94876,47,73,0
278.94876,279.02252,45,74,0
279.02252,280.35544,43,80,0
280.35544,280.483,44,61,0
280.483,280.6051,45,61,0
280.6051,280.7225,46,62,0
280.7225,280.83542,47,63,0
280.83542,280.94412,48,63,0
280.94412,281.04913,49,63,0
281.04913,281.15048,50,64,0
281.15048,281.2494,51,64,0
281.2494,281.34534,52,65,0
281.34534,281.43832,53,66,0
281.43832,281.5287,54,66,0
281.5287,281.6166,55,67,0
281.6166,281.70215,56,68,0
281.70215,281.78534,57,68,0
281.78534,281.8661,58,69,0
281.8661,281.94586,59,69,0
281.94586,282.02524,60,70,0
282.02524,282.10403,61,71,0
282.10403,282.18243,62,72,0
282.18243,282.26044,63,72,0
282.26044,282.3379,64,72,0
282.3379,282.41495,65,72,0
282.41495,282.49133,66,73,0
282.49133,282.5671,67,76,0
282.5671,282.6426,66,75,0
282.6426,282.71786,65,74,0
282.71786,282.79285,64,72,0
282.79285,282.8675,63,72,0
282.8675,282.94186,62,71,0
282.94186,283.016,61,70,0
283.016,283.0899,60,68,0
283.0899,283.16354,59,66,0
283.16354,283.23767,58,67,0
283.23767,283.31244,57,68,0
283.31244,283.38766,56,69,0
283.38766,283.46356,55,70,0
283.46356,283.54022,54,71,0
283.54022,283.6174,53,72,0
283.6174,283.69528,52,73,0
283.69528,283.77368,51,74,0
283.77368,283.85275,50,75,0
283.85275,283.93268,49,77,0
283.93268,284.01318,48,79,0
284.01318,284.09442,47,80,0
284.09442,284.17624,46,81,0
284.17624,284.2588,45,83,0
284.2588,284.34213,44,85,0
284.34213,284.59424,43,97,0
285.35052,285.60263,91,72,0
285.35052,285.60263,103,101,0
285.35052,285.60263,98,86,0
285.35052,285.60263,95,72,0
71.16962,71.26176,64,59,0
71.16962,71.26176,61,59,0
71.26176,71.3539,55,50,0
71.3539,71.44603,64,59,0
71.3539,71.44603,61,59,0
71.44603,71.53817,55,50,0
71.53817,71.629295,64,60,0
71.53817,71.629295,61,60,0
71.629295,71.71983,55,51,0
71.71983,71.80948,64,60,0
71.71983,71.80948,61,60,0
71.80948,71.898415,55,51,0
71.898415,71.98847,67,60,0
71.898415,71.98847,64,60,0
71.98847,72.07964,58,52,0
72.07964,72.17139,67,61,0
72.07964,72.17139,64,61,0
72.17139,72.26373,58,51,0
72.26373,72.35647,67,62,0
72.26373,72.35647,64,62,0
72.35647,72.449814,58,56,0
72.449814,72.54403,67,64,0
72.449814,72.54403,64,64,0
72.54403,72.64475,58,51,0
72.64475,72.7387,65,64,0
72.7387,72.832245,58,52,0
72.832245,72.925186,65,63,0
72.925186,73.017525,58,52,0
73.017525,73.109276,65,63,0
73.109276,73.20083,58,53,0
73.20083,73.29238,65,63,0
73.29238,73.383934,58,52,0
73.383934,73.475876,62,63,0
73.475876,73.56801,53,52,0
73.56801,73.66015,62,62,0
73.66015,73.75229,53,51,0
73.75229,73.84442,62,61,0
73.84442,73.93656,53,50,0
73.93656,74.0287,62,60,0
74.0287,74.12006,53,50,0
91.62291,91.733406,57,50,0
91.733406,91.8439,54,41,0
91.8439,91.9544,57,50,0
91.9544,92.064896,54,43,0
92.064896,92.17539,57,50,0
92.17539,92.28589,54,43,0
92.960045,93.06874,60,53,0
93.06874,93.17744,57,43,0
93.17744,93.28613,60,53,0
93.28613,93.39483,57,45,0
93.39483,93.503525,60,53,0
93.503525,93.61222,57,45,0
94.2644,94.37428,63,55,0
94.37428,94.48418,60,46,0
94.48418,94.59406,63,55,0
94.59406,94.70396,60,48,0
94.70396,94.81384,63,55,0
94.81384,94.92374,60,48,0
95.58308,95.691185,66,56,0
95.691185,95.79929,63,46,0
95.79929,95.9074,66,56,0
95.9074,96.01551,63,49,0
96.01551,96.12362,66,56,0
96.12362,96.23173,63,49,0
96.89471,97.00745,70,59,0
96.89471,97.00745,67,46,0
97.00745,97.120186,64,47,0
97.120186,97.232925,70,59,0
97.120186,97.232925,67,46,0
97.232925,97.345665,64,49,0
97.345665,97.458405,70,59,0
97.345665,97.458405,67,46,0
97.458405,97.571144,64,50,0
98.25561,98.371765,76,61,0
98.25561,98.371765,73,48,0
98.371765,98.48792,67,49,0
98.48792,98.60408,76,61,0
98.48792,98.60408,73,48,0
98.60408,98.72024,67,52,0
98.72024,98.836395,76,61,0
98.72024,98.836395,73,48,0
98.836395,98.95255,67,52,0
99.65022,99.76927,70,57,0
99.65022,99.76927,65,45,0
99.76927,99.88831,62,47,0
99.88831,100.00736,70,57,0
99.88831,100.00736,65,45,0
100.00736,100.12641,62,49,0
100.12641,100.24546,70,56,0
100.12641,100.24546,65,45,0
100.24546,100.36451,62,49,0
101.10644,101.230095,62,54,0
101.10644,101.230095,58,44,0
101.230095,101.35375,53,45,0
101.35375,101.4774,62,54,0
101.35375,101.4774,58,43,0
101.4774,101.60106,53,47,0
101.60106,101.72472,62,54,0
101.60106,101.72472,58,43,0
101.72472,101.786545,53,46,0
101.8457,102.02616,60,51,0
101.786545,102.02616,57,43,0
102.02616,102.14746,51,45,0
102.14746,102.26876,60,52,0
102.14746,102.26876,57,52,0
102.26876,102.39006,51,46,0
102.39006,102.51136,60,50,0
102.39006,102.51136,57,50,0
102.51136,102.63266,51,45,0
112.24324,112.33641,59,53,0
112.24324,112.33641,50,53,0
112.33641,112.429,62,45,0
112.429,112.52122,59,53,0
112.429,112.52122,50,53,0
112.52122,112.61305,62,46,0
112.61305,112.70433,59,52,0
112.61305,112.70433,50,52,0
112.70433,112.79524,62,45,0
112.79524,112.885605,59,51,0
112.79524,112.885605,50,51,0
112.885605,112.9756,62,46,0
112.9756,113.06507,59,51,0
112.9756,113.06507,50,51,0
113.06507,113.154175,62,44,0
113.154175,113.242935,59,50,0
113.154175,113.242935,50,50,0
113.242935,113.33117,62,45,0
113.33117,113.41889,59,50,0
113.33117,113.41889,50,50,0
113.41889,113.50661,62,44,0
113.50661,113.59433,59,49,0
113.50661,113.59433,50,49,0
113.59433,113.68222,62,45,0
113.68222,113.770454,59,49,0
113.68222,113.770454,50,49,0
113.770454,113.859215,62,42,0
113.859215,113.948494,59,48,0
113.859215,113.948494,50,48,0
113.948494,114.03814,62,43,0
114.03814,114.12814,59,48,0
114.03814,114.12814,50,48,0
114.12814,114.21868,62,42,0
114.21868,114.30959,59,47,0
114.21868,114.30959,50,47,0
114.30959,114.401054,62,43,0
118.87574,118.99479,55,63,0
118.87574,118.99479,63,63,0
118.99479,119.11348,67,51,0
119.11348,119.23183,55,58,0
119.11348,119.23183,63,58,0
119.23183,119.34947,67,52,0
119.34947,119.466774,63,60,0
119.34947,119.466774,55,60,0
119.466774,119.58373,67,54,0
119.58373,119.70001,53,66,0
119.58373,119.70001,62,66,0
119.70001,119.81629,65,55,0
119.81629,119.93257,53,62,0
119.81629,119.93257,62,62,0
119.93257,120.04885,65,56,0
120.04885,120.16513,62,63,0
120.04885,120.16513,53,63,0
120.16513,120.28141,65,57,0
120.28141,120.39769,51,70,0
120.28141,120.39769,60,70,0
120.39769,120.51397,63,58,0
120.51397,120.63025,51,65,0
120.51397,120.63025,60,65,0
120.63025,120.76151,63,60,0
120.76151,120.92697,60,67,0
120.76151,120.92697,51,67,0
120.92697,121.12661,63,62,0
121.12661,121.21758,59,53,0
121.12661,121.21758,50,53,0
121.21758,121.30818,62,45,0
121.30818,121.39821,59,53,0
121.30818,121.39821,50,53,0
121.39821,121.48768,62,48,0
121.48768,121.57659,59,54,0
121.48768,121.57659,50,54,0
121.57659,121.66514,62,47,0
121.66514,121.75314,59,54,0
121.66514,121.75314,50,54,0
121.75314,121.840614,62,50,0
121.840614,121.92721,59,54,0
121.840614,121.92721,50,54,0
121.92721,122.01277,62,47,0
122.01277,122.09833,59,55,0
122.01277,122.09833,50,55,0
122.09833,122.184395,62,50,0
122.184395,122.27046,59,56,0
122.184395,122.27046,50,56,0
122.27046,122.357056,62,50,0
122.357056,122.44366,59,56,0
122.357056,122.44366,50,56,0
122.44366,122.53077,62,52,0
122.53077,122.61789,59,57,0
122.53077,122.61789,50,57,0
122.61789,122.705536,62,49,0
122.705536,122.79318,59,56,0
122.705536,122.79318,50,56,0
122.79318,122.88137,62,50,0
122.88137,122.96955,59,54,0
122.88137,122.96955,50,54,0
122.96955,123.05828,62,48,0
123.05828,123.147,59,54,0
123.05828,123.147,50,54,0
123.147,123.23629,62,48,0
129.57693,129.66933,61,55,0
129.57693,129.66933,52,55,0
129.66933,129.7606,64,47,0
129.7606,129.8508,61,54,0
129.7606,129.8508,52,54,0
129.8508,129.9399,64,49,0
129.9399,130.02797,61,54,0
129.9399,130.02797,52,54,0
130.02797,130.11534,64,47,0
130.11534,130.20358,61,54,0
130.11534,130.20358,52,54,0
130.20358,130.29147,64,49,0
130.29147,130.37953,61,54,0
130.29147,130.37953,52,54,0
130.37953,130.46812,64,45,0
130.46812,130.5574,61,53,0
130.46812,130.5574,52,53,0
130.5574,130.64723,64,46,0
130.64723,130.73778,61,53,0
130.64723,130.73778,52,53,0
130.73778,130.82887,64,45,0
130.82887,130.92052,61,52,0
130.82887,130.92052,52,52,0
130.92052,131.01292,64,46,0
135.46268,135.58247,57,63,0
135.46268,135.58247,65,63,0
135.58247,135.70226,69,51,0
135.70226,135.82205,57,58,0
135.70226,135.82205,65,58,0
135.82205,135.94183,69,52,0
135.94183,136.06163,65,60,0
135.94183,136.06163,57,60,0
136.06163,136.18217,69,54,0
136.18217,136.29903,55,66,0
136.18217,136.29903,64,66,0
136.29903,136.4159,67,55,0
136.4159,136.53276,55,62,0
136.4159,136.53276,64,62,0
136.53276,136.64963,67,56,0
136.64963,136.7665,64,63,0
136.64963,136.7665,55,63,0
136.7665,136.88335,67,57,0
136.88335,137.00021,53,70,0
136.88335,137.00021,62,70,0
137.00021,137.11708,65,58,0
137.11708,137.23395,53,65,0
137.11708,137.23395,62,65,0
137.23395,137.3652,65,60,0
137.3652,137.53067,62,67,0
137.3652,137.53067,53,67,0
137.53067,137.7303,65,62,0
137.7303,137.82127,61,53,0
137.7303,137.82127,52,53,0
137.82127,137.91188,64,45,0
137.91188,138.0019,61,53,0
137.91188,138.0019,52,53,0
138.0019,138.09137,64,48,0
138.09137,138.18028,61,54,0
138.09137,138.18028,52,54,0
138.18028,138.26883,64,47,0
138.26883,138.35684,61,54,0
138.26883,138.35684,52,54,0
138.35684,138.4443,64,50,0
138.4443,138.5309,61,54,0
138.4443,138.5309,52,54,0
138.5309,138.61647,64,47,0
138.61647,138.70203,61,55,0
138.61647,138.70203,52,55,0
138.70203,138.78809,64,50,0
138.78809,138.87416,61,56,0
138.78809,138.87416,52,56,0
138.87416,138.96075,64,50,0
138.96075,139.04735,61,56,0
138.96075,139.04735,52,56,0
139.04735,139.13446,64,52,0
139.13446,139.22159,61,57,0
139.13446,139.22159,52,57,0
139.22159,139.30923,64,49,0
139.30923,139.39688,61,56,0
139.30923,139.39688,52,56,0
139.39688,139.48506,64,50,0
139.48506,139.57324,61,54,0
139.48506,139.57324,52,54,0
139.57324,139.66197,64,48,0
139.66197,139.7507,61,54,0
139.66197,139.7507,52,54,0
139.7507,139.83998,64,49,0
145.5981,145.68741,81,78,0
145.5981,145.68741,77,65,0
145.5981,145.68741,75,65,0
145.68741,145.7767,87,65,0
145.7767,145.86601,81,65,0
145.7767,145.86601,77,55,0
145.7767,145.86601,75,55,0
145.86601,145.95494,87,63,0
145.95494,146.04366,81,64,0
145.95494,146.04366,77,54,0
145.95494,146.04366,75,54,0
146.04366,146.13239,87,63,0
146.13239,146.22054,81,64,0
146.13239,146.22054,77,54,0
146.13239,146.22054,75,54,0
146.22054,146.30869,87,63,0
146.30869,146.39673,81,68,0
146.30869,146.39673,77,56,0
146.30869,146.39673,75,56,0
146.39673,146.48343,87,61,0
146.48343,146.56866,81,58,0
146.48343,146.56866,77,49,0
146.48343,146.56866,75,49,0
146.56866,146.65231,87,58,0
146.65231,146.73706,81,57,0
146.65231,146.73706,77,48,0
146.65231,146.73706,75,48,0
146.73706,146.82278,87,58,0
146.82278,146.90912,81,57,0
146.82278,146.90912,77,47,0
146.82278,146.90912,75,47,0
146.90912,146.99672,87,59,0
146.99672,147.08006,81,72,0
146.99672,147.08006,77,61,0
146.99672,147.08006,75,61,0
147.08006,147.16342,87,62,0
147.16342,147.24677,81,60,0
147.16342,147.24677,77,50,0
147.16342,147.24677,75,50,0
147.24677,147.33012,87,62,0
147.33012,147.41348,81,60,0
147.33012,147.41348,77,50,0
147.33012,147.41348,75,50,0
147.41348,147.49683,87,62,0
147.49683,147.58018,81,60,0
147.49683,147.58018,77,50,0
147.49683,147.58018,75,50,0
147.58018,147.66353,87,62,0
147.66353,147.77203,77,66,0
147.66353,147.77203,75,55,0
147.77203,147.88052,87,61,0
147.88052,147.98901,81,66,0
147.88052,147.98901,77,55,0
147.88052,147.98901,75,55,0
147.98901,148.09752,87,61,0
148.09752,148.20601,81,67,0
148.09752,148.20601,77,56,0
148.09752,148.20601,75,56,0
148.20601,148.3145,87,62,0
148.3145,148.42564,77,68,0
148.3145,148.42564,75,57,0
148.42564,148.53677,87,63,0
148.53677,148.6479,83,69,0
148.53677,148.6479,77,58,0
148.53677,148.6479,75,58,0
148.6479,148.75905,87,63,0
148.75905,148.87018,83,69,0
148.75905,148.87018,77,58,0
148.75905,148.87018,75,58,0
148.87018,148.98132,87,63,0
148.98132,149.09245,77,70,0
148.98132,149.09245,75,59,0
149.09245,149.20358,87,64,0
149.20358,149.31473,84,71,0
149.20358,149.31473,77,60,0
149.20358,149.31473,75,60,0
149.31473,149.43013,87,64,0
149.43013,149.54921,84,72,0
149.43013,149.54921,77,61,0
149.43013,149.54921,75,61,0
149.54921,149.66827,87,65,0
149.66827,149.77614,80,72,0
149.66827,149.77614,76,62,0
149.77614,149.884,88,67,0
149.884,149.99187,80,63,0
149.884,149.99187,76,63,0
149.99187,150.10368,88,67,0
150.10368,150.21548,80,63,0
150.10368,150.21548,76,63,0
150.21548,150.32729,88,68,0
150.32729,150.42432,75,62,0
150.42432,150.52133,87,67,0
150.52133,150.61836,84,63,0
150.52133,150.61836,75,63,0
150.61836,150.72559,87,67,0
150.72559,150.83281,84,63,0
150.72559,150.83281,75,63,0
150.83281,150.94003,87,68,0
150.94003,151.04024,74,62,0
151.04024,151.14044,86,67,0
151.14044,151.24063,83,63,0
151.14044,151.24063,74,63,0
151.24063,151.34787,86,67,0
151.34787,151.4551,83,63,0
151.34787,151.4551,74,63,0
151.4551,151.56232,86,68,0
151.56232,151.66591,73,62,0
151.66591,151.7695,85,67,0
151.7695,151.87311,82,63,0
151.7695,151.87311,73,63,0
151.87311,151.98097,85,67,0
151.98097,152.08884,82,63,0
151.98097,152.08884,73,63,0
152.08884,152.19669,85,68,0
152.19669,152.30087,72,62,0
152.30087,152.40504,84,67,0
152.40504,152.50923,81,63,0
152.40504,152.50923,72,63,0
152.50923,152.61772,84,67,0
152.61772,152.72621,81,63,0
152.61772,152.72621,72,63,0
152.72621,152.83472,84,68,0
152.83472,152.93948,71,62,0
152.93948,153.04427,83,67,0
153.04427,153.14905,80,63,0
153.04427,153.14905,71,63,0
153.14905,153.25754,83,67,0
153.25754,153.36603,80,63,0
153.25754,153.36603,71,63,0
153.36603,153.51488,83,68,0
153.51488,153.60364,82,78,0
153.51488,153.60364,79,65,0
153.51488,153.60364,76,65,0
153.60364,153.69086,88,65,0
153.69086,153.77657,82,65,0
153.69086,153.77657,79,55,0
153.69086,153.77657,76,55,0
153.77657,153.86069,88,63,0
153.86069,153.94511,82,64,0
153.86069,153.94511,79,54,0
153.86069,153.94511,76,54,0
153.94511,154.03018,88,63,0
154.03018,154.11606,82,64,0
154.03018,154.11606,79,54,0
154.03018,154.11606,76,54,0
154.11606,154.20226,88,63,0
154.20226,154.28847,82,68,0
154.20226,154.28847,79,56,0
154.20226,154.28847,76,56,0
154.28847,154.3756,88,61,0
154.3756,154.4632,82,58,0
154.3756,154.4632,79,49,0
154.3756,154.4632,76,49,0
154.4632,154.5508,88,58,0
154.5508,154.63785,82,57,0
154.5508,154.63785,79,48,0
154.5508,154.63785,76,48,0
154.63785,154.72488,88,58,0
154.72488,154.81212,82,57,0
154.72488,154.81212,79,47,0
154.72488,154.81212,76,47,0
154.81212,154.89972,88,59,0
154.89972,154.98306,82,72,0
154.89972,154.98306,79,61,0
154.89972,154.98306,76,61,0
154.98306,155.06642,88,62,0
155.06642,155.14977,82,60,0
155.06642,155.14977,79,50,0
155.06642,155.14977,76,50,0
155.14977,155.23312,88,62,0
155.23312,155.31647,82,60,0
155.23312,155.31647,79,50,0
155.23312,155.31647,76,50,0
155.31647,155.39983,88,62,0
155.39983,155.48318,82,60,0
155.39983,155.48318,79,50,0
155.39983,155.48318,76,50,0
155.48318,155.56653,88,62,0
155.56653,155.67502,79,66,0
155.56653,155.67502,76,55,0
155.67502,155.78352,88,61,0
155.78352,155.89201,82,66,0
155.78352,155.89201,79,55,0
155.78352,155.89201,76,55,0
155.89201,156.0005,88,61,0
156.0005,156.10901,82,67,0
156.0005,156.10901,79,56,0
156.0005,156.10901,76,56,0
156.10901,156.2175,88,62,0
156.2175,156.32864,79,68,0
156.2175,156.32864,76,57,0
156.32864,156.43977,88,63,0
156.43977,156.5509,84,69,0
156.43977,156.5509,79,58,0
156.43977,156.5509,76,58,0
156.5509,156.66205,88,63,0
156.66205,156.77318,84,69,0
156.66205,156.77318,79,58,0
156.66205,156.77318,76,58,0
156.77318,156.88432,88,63,0
156.88432,156.99545,79,70,0
156.88432,156.99545,76,59,0
156.99545,157.10658,88,64,0
157.10658,157.21773,85,71,0
157.10658,157.21773,79,60,0
157.10658,157.21773,76,60,0
157.21773,157.33313,88,64,0
157.33313,157.45221,85,72,0
157.33313,157.45221,79,61,0
157.33313,157.45221,76,61,0
157.45221,157.57127,88,65,0
157.57127,157.67914,81,72,0
157.57127,157.67914,77,62,0
157.67914,157.787,89,67,0
157.787,157.89487,81,63,0
157.787,157.89487,77,63,0
157.89487,158.00667,89,67,0
158.00667,158.11848,81,63,0
158.00667,158.11848,77,63,0
158.11848,158.23029,89,68,0
158.23029,158.33215,76,62,0
158.33215,158.43402,88,67,0
158.43402,158.53589,85,63,0
158.43402,158.53589,76,63,0
158.53589,158.64311,88,67,0
158.64311,158.75034,85,63,0
158.64311,158.75034,76,63,0
158.75034,158.85756,88,68,0
158.85756,158.96059,75,62,0
158.96059,159.0636,87,67,0
159.0636,159.16663,84,63,0
159.0636,159.16663,75,63,0
159.16663,159.27385,87,67,0
159.27385,159.38107,84,63,0
159.27385,159.38107,75,63,0
159.38107,159.4883,87,68,0
159.4883,159.59189,74,62,0
159.59189,159.6955,86,67,0
159.6955,159.79909,83,63,0
159.6955,159.79909,74,63,0
159.79909,159.90695,86,67,0
159.90695,160.01482,83,63,0
159.90695,160.01482,74,63,0
160.01482,160.12268,86,68,0
160.12268,160.22685,73,62,0
160.22685,160.33102,85,67,0
160.33102,160.43521,82,63,0
160.33102,160.43521,73,63,0
160.43521,160.5437,85,67,0
160.5437,160.65219,82,63,0
160.5437,160.65219,73,63,0
160.65219,160.7607,85,68,0
160.7607,160.86546,72,62,0
160.86546,160.97025,84,67,0
160.97025,161.07503,81,63,0
160.97025,161.07503,72,63,0
161.07503,161.18352,84,67,0
161.18352,161.29202,81,63,0
161.18352,161.29202,72,63,0
161.29202,161.44086,84,68,0
161.44086,161.52892,84,78,0
161.44086,161.52892,81,65,0
161.44086,161.52892,78,65,0
161.52892,161.61415,90,65,0
161.61415,161.69658,84,65,0
161.61415,161.69658,81,55,0
161.61415,161.69658,78,55,0
161.69658,161.77914,90,63,0
161.77914,161.86264,84,65,0
161.77914,161.86264,81,55,0
161.77914,161.86264,78,55,0
161.86264,161.94707,90,64,0
161.94707,162.03246,84,65,0
161.94707,162.03246,81,55,0
161.94707,162.03246,78,55,0
162.03246,162.11882,90,64,0
162.11882,162.20587,84,70,0
162.11882,162.20587,81,58,0
162.11882,162.20587,78,58,0
162.20587,162.29175,90,63,0
162.29175,162.3765,84,61,0
162.29175,162.3765,81,51,0
162.29175,162.3765,78,51,0
162.3765,162.46077,90,61,0
162.46077,162.54648,84,60,0
162.46077,162.54648,81,50,0
162.46077,162.54648,78,50,0
162.54648,162.6332,90,61,0
162.6332,162.72018,84,60,0
162.6332,162.72018,81,50,0
162.6332,162.72018,78,50,0
162.72018,162.80779,90,62,0
162.80779,162.89082,84,72,0
162.80779,162.89082,81,61,0
162.80779,162.89082,78,61,0
162.89082,162.97308,90,62,0
162.97308,163.05461,84,60,0
162.97308,163.05461,81,50,0
162.97308,163.05461,78,50,0
163.05461,163.1357,90,62,0
163.1357,163.21707,84,60,0
163.1357,163.21707,81,50,0
163.1357,163.21707,78,50,0
163.21707,163.29874,90,62,0
163.29874,163.3807,84,60,0
163.29874,163.3807,81,50,0
163.29874,163.3807,78,50,0
163.3807,163.46297,90,62,0
163.46297,163.57317,81,66,0
163.46297,163.57317,78,55,0
163.57317,163.68245,90,61,0
163.68245,163.79027,84,66,0
163.68245,163.79027,81,55,0
163.68245,163.79027,78,55,0
163.79027,163.8968,90,61,0
163.8968,164.00404,84,67,0
163.8968,164.00404,81,56,0
163.8968,164.00404,78,56,0
164.00404,164.11244,90,62,0
164.11244,164.21997,81,68,0
164.11244,164.21997,78,57,0
164.21997,164.32793,90,63,0
164.32793,164.43648,86,69,0
164.32793,164.43648,81,58,0
164.32793,164.43648,78,58,0
164.43648,164.54562,90,63,0
164.54562,164.65536,86,69,0
164.54562,164.65536,81,58,0
164.54562,164.65536,78,58,0
164.65536,164.76555,90,63,0
164.76555,164.87636,81,70,0
164.76555,164.87636,78,59,0
164.87636,164.98778,90,64,0
164.98778,165.09982,87,71,0
164.98778,165.09982,81,60,0
164.98778,165.09982,78,60,0
165.09982,165.21579,90,64,0
165.21579,165.33487,87,72,0
165.21579,165.33487,81,61,0
165.21579,165.33487,78,61,0
165.33487,165.45395,90,65,0
165.45395,165.55414,83,72,0
165.45395,165.55414,79,62,0
165.65434,165.75455,83,63,0
165.65434,165.75455,79,63,0
165.86241,165.97028,83,63,0
165.86241,165.97028,79,63,0
165.75455,165.97028,91,67,0
165.97028,166.07814,91,68,0
166.07814,166.15248,86,62,0
166.07814,166.17725,77,62,0
166.07814,166.17725,79,62,0
166.27637,166.37549,86,63,0
166.27637,166.37549,77,63,0
166.27637,166.37549,79,62,0
166.48271,166.58995,86,63,0
166.37549,166.58995,89,67,0
166.48271,166.58995,79,63,0
166.48271,166.58995,77,63,0
166.58995,166.69717,89,68,0
166.69717,166.79736,79,62,0
166.69717,166.79736,75,62,0
166.89757,166.99777,79,63,0
166.89757,166.99777,75,63,0
167.105,167.21222,79,63,0
167.105,167.21222,75,63,0
166.99777,167.21222,87,67,0
167.21222,167.31946,87,68,0
167.31946,167.41647,75,62,0
167.31946,167.41647,72,62,0
167.51349,167.61052,75,63,0
167.51349,167.61052,72,63,0
167.71017,167.80981,75,63,0
167.71017,167.80981,72,63,0
167.61052,167.80981,84,67,0
167.80981,167.90947,84,68,0
167.90947,168.00967,79,62,0
167.90947,168.00967,75,62,0
168.10988,168.21007,79,63,0
168.10988,168.21007,75,63,0
168.31606,168.42204,79,63,0
168.31606,168.42204,75,63,0
168.21007,168.42204,87,67,0
168.42204,168.52803,87,68,0
168.52803,168.6299,75,62,0
168.52803,168.6299,72,62,0
168.73177,168.83363,75,63,0
168.73177,168.83363,72,63,0
168.94212,169.05061,75,63,0
168.94212,169.05061,72,63,0
168.83363,169.05061,84,67,0
169.05061,169.15756,84,68,0
169.15756,169.2551,81,72,0
169.15756,169.2551,77,62,0
169.35263,169.45016,81,63,0
169.35263,169.45016,77,63,0
169.5509,169.65164,81,63,0
169.5509,169.65164,77,63,0
169.45016,169.65164,89,67,0
169.65164,169.7524,89,68,0
169.7524,169.85205,75,62,0
169.7524,169.85205,84,62,0
169.95169,170.05135,84,63,0
169.95169,170.05135,75,63,0
170.15378,170.25623,84,63,0
170.15378,170.25623,75,63,0
170.05135,170.25623,87,67,0
170.25623,170.35866,87,68,0
170.35866,170.45517,77,62,0
170.35866,170.45517,74,62,0
170.55168,170.64818,77,63,0
170.55168,170.64818,74,63,0
170.7473,170.84642,77,63,0
170.7473,170.84642,74,63,0
170.64818,170.84642,86,67,0
170.84642,170.94554,86,68,0
170.94554,171.04518,74,62,0
170.94554,171.04518,70,62,0
171.14484,171.24449,74,63,0
171.14484,171.24449,70,63,0
171.34926,171.45404,74,63,0
171.34926,171.45404,70,63,0
171.24449,171.45404,82,67,0
171.45404,171.55882,82,68,0
171.55882,171.65903,77,62,0
171.55882,171.65903,74,62,0
171.75922,171.85942,77,63,0
171.75922,171.85942,74,63,0
171.96481,172.07019,77,63,0
171.96481,172.07019,74,63,0
171.85942,172.07019,86,67,0
172.07019,172.17558,86,68,0
172.17558,172.27689,74,62,0
172.17558,172.27689,70,62,0
172.37819,172.47949,74,63,0
172.37819,172.47949,70,63,0
172.588,172.69649,74,63,0
172.588,172.69649,70,63,0
172.47949,172.69649,82,67,0
172.69649,172.80344,82,68,0
172.80344,172.90201,79,72,0
172.80344,172.90201,75,62,0
173.0006,173.09917,79,63,0
173.0006,173.09917,75,63,0
173.20047,173.30179,79,63,0
173.20047,173.30179,75,63,0
173.09917,173.30179,87,67,0
173.30179,173.40309,87,68,0
173.40309,173.50114,74,62,0
173.40309,173.50114,82,62,0
173.59918,173.69724,82,63,0
173.59918,173.69724,74,63,0
173.79799,173.89873,82,63,0
173.79799,173.89873,74,63,0
173.69724,173.89873,86,67,0
173.89873,173.99948,86,68,0
173.99948,174.097,75,62,0
173.99948,174.097,72,62,0
174.19453,174.29207,75,63,0
174.19453,174.29207,72,63,0
174.39394,174.4958,75,63,0
174.39394,174.4958,72,63,0
174.29207,174.4958,84,67,0
174.4958,174.59766,84,68,0
174.59766,174.69841,72,62,0
174.59766,174.69841,69,62,0
174.79915,174.8999,72,63,0
174.79915,174.8999,69,63,0
175.00468,175.10945,72,63,0
175.00468,175.10945,69,63,0
174.8999,175.10945,81,67,0
175.10945,175.21423,81,68,0
175.21423,175.31444,75,62,0
175.21423,175.31444,72,62,0
175.41463,175.51483,75,63,0
175.41463,175.51483,72,63,0
175.61961,175.7244,75,63,0
175.61961,175.7244,72,63,0
175.51483,175.7244,84,67,0
175.7244,175.82916,84,68,0
175.82916,175.92992,72,62,0
175.82916,175.92992,69,62,0
176.03065,176.13141,72,63,0
176.03065,176.13141,69,63,0
176.2399,176.34839,72,63,0
176.2399,176.34839,69,63,0
176.13141,176.34839,81,67,0
176.34839,176.45534,81,68,0
176.45534,176.55608,78,72,0
176.45534,176.55608,74,62,0
176.65683,176.75757,78,63,0
176.65683,176.75757,74,63,0
176.86296,176.96834,78,63,0
176.86296,176.96834,74,63,0
176.75757,176.96834,86,67,0
176.96834,177.07373,86,68,0
177.07373,177.17393,72,62,0
177.07373,177.17393,81,62,0
177.27412,177.37433,81,63,0
177.27412,177.37433,72,63,0
177.48155,177.58878,81,63,0
177.48155,177.58878,72,63,0
177.37433,177.58878,84,67,0
177.58878,177.69601,84,68,0
177.69601,177.79903,79,62,0
177.69601,177.79903,70,62,0
177.90205,178.00507,79,63,0
177.90205,178.00507,70,63,0
178.11229,178.21951,79,63,0
178.11229,178.21951,70,63,0
178.00507,178.21951,82,67,0
178.21951,178.32675,82,68,0
178.32675,178.43034,81,62,0
178.32675,178.43034,74,62,0
178.53394,178.63753,81,63,0
178.53394,178.63753,74,63,0
178.74539,178.85326,81,63,0
178.74539,178.85326,74,63,0
178.63753,178.85326,86,67,0
178.85326,178.96112,86,68,0
178.96112,179.06529,79,62,0
178.96112,179.06529,74,62,0
179.16948,179.27365,79,63,0
179.16948,179.27365,74,63,0
179.38214,179.49065,79,63,0
179.38214,179.49065,74,63,0
179.27365,179.49065,86,67,0
179.49065,179.59914,86,68,0
179.59914,179.70392,79,62,0
179.59914,179.70392,73,62,0
179.8087,179.91347,79,63,0
179.8087,179.91347,73,63,0
180.02197,180.13046,79,63,0
180.02197,180.13046,73,63,0
179.91347,180.13046,85,67,0
180.13046,180.2374,85,68,0
180.2374,180.33815,78,72,0
180.2374,180.33815,74,62,0
180.33815,180.43889,86,67,0
180.43889,180.53964,74,63,0
180.53964,180.64502,86,67,0
180.64502,180.75041,74,63,0
180.75041,180.85579,86,67,0
180.85579,180.956,74,61,0
180.956,181.0562,86,62,0
181.0562,181.1564,74,61,0
181.1564,181.23682,86,65,0
181.26363,181.37085,74,62,0
181.37085,181.47807,86,65,0
181.47807,181.5811,82,69,0
181.47807,181.5811,74,69,0
181.5811,181.68411,86,61,0
181.68411,181.78712,74,59,0
181.78712,181.89436,86,63,0
181.89436,182.00159,74,59,0
182.00159,182.10881,86,63,0
182.2124,182.31601,86,57,0
182.31601,182.4196,74,56,0
182.4196,182.52747,86,60,0
182.52747,182.63533,74,55,0
182.63533,182.7432,86,60,0
182.84737,182.95154,84,58,0
182.95154,183.05573,72,54,0
183.05573,183.16422,84,57,0
183.16422,183.2727,72,54,0
183.2727,183.38121,84,57,0
183.48598,183.59076,82,55,0
183.59076,183.69554,70,51,0
183.69554,183.80403,82,55,0
183.80403,183.91254,70,51,0
183.91254,184.02103,82,54,0
184.1252,184.22939,81,58,0
184.22939,184.33356,69,54,0
184.33356,184.44205,81,56,0
184.44205,184.55055,69,53,0
184.55055,184.65904,81,55,0
184.76382,184.86859,79,54,0
184.86859,184.97337,67,50,0
184.97337,185.08186,79,54,0
185.08186,185.19037,67,49,0
185.19037,185.29886,79,52,0
185.40305,185.50722,78,54,0
185.50722,185.61139,66,51,0
185.61139,185.7199,78,53,0
185.7199,185.82838,66,51,0
185.82838,185.93687,78,53,0
186.04166,186.14644,75,51,0
186.14644,186.2512,63,47,0
186.2512,186.35971,75,51,0
186.35971,186.4682,63,47,0
186.4682,186.57669,75,50,0
186.68088,186.78505,74,52,0
186.78505,186.88924,62,48,0
186.88924,186.99773,74,51,0
186.99773,187.10622,62,47,0
187.10622,187.21472,74,51,0
187.31949,187.42427,70,49,0
187.31949,187.42427,62,49,0
187.42427,187.52905,58,45,0
187.52905,187.63754,70,48,0
187.52905,187.63754,62,47,0
187.63754,187.74603,58,45,0
187.74603,187.85362,70,46,0
187.74603,187.85362,62,46,0
187.9562,188.05946,69,49,0
187.9562,188.05946,62,45,0
188.05946,188.16335,57,45,0
188.16335,188.26791,69,47,0
188.16335,188.26791,62,44,0
188.26791,188.37314,57,44,0
188.37314,188.47917,69,45,0
188.37314,188.47917,62,43,0
188.58594,188.69342,67,44,0
188.58594,188.69342,62,38,0
188.69342,188.80159,55,40,0
188.80159,188.9105,67,44,0
188.80159,188.9105,62,38,0
188.9105,189.02014,55,38,0
189.02014,189.1307,67,42,0
189.02014,189.1307,62,37,0
189.242,189.35408,66,44,0
189.242,189.35408,62,36,0
189.35408,189.46692,54,40,0
189.46692,189.58057,66,41,0
189.46692,189.58057,62,36,0
189.58057,189.6951,54,39,0
189.6951,189.81053,66,41,0
189.6951,189.81053,62,34,0
189.92679,190.04387,63,39,0
189.92679,190.04387,57,34,0
189.92679,190.04387,54,33,0
190.04387,190.16179,51,36,0
190.16179,190.2806,63,38,0
190.16179,190.2806,57,33,0
190.16179,190.2806,54,33,0
190.2806,190.40036,51,35,0
190.40036,190.52112,63,36,0
190.40036,190.52112,57,33,0
190.40036,190.52112,54,33,0
190.64275,190.76532,62,38,0
190.64275,190.76532,58,33,0
190.64275,190.76532,55,33,0
190.76532,190.8888,50,35,0
190.8888,191.01334,62,37,0
190.8888,191.01334,58,32,0
190.8888,191.01334,55,32,0
191.01334,191.13884,50,34,0
191.13884,191.26543,62,36,0
191.13884,191.26543,58,32,0
191.13884,191.26543,55,32,0
191.39299,191.52158,62,35,0
191.39299,191.52158,54,35,0
191.39299,191.52158,60,34,0
191.52158,191.6513,50,32,0
191.6513,191.78134,62,34,0
191.6513,191.78134,54,28,0
191.6513,191.78134,60,27,0
191.78134,191.91138,50,32,0
191.91138,192.03705,62,33,0
191.91138,192.03705,54,27,0
191.91138,192.03705,60,27,0
192.15836,192.76031,62,46,0
192.06737,192.76031,50,40,0
192.0977,192.76031,55,43,0
192.12802,192.76031,58,44,0
192.76031,192.87646,70,45,0
192.87646,192.99228,86,37,0
192.99228,193.10773,74,40,0
193.10773,193.22249,86,38,0
193.22249,193.33656,79,41,0
193.33656,193.4503,86,39,0
193.4503,193.56339,82,47,0
193.56339,193.67612,86,39,0
193.67612,193.7892,79,43,0
193.7892,193.9026,86,43,0
193.9026,194.01634,74,44,0
194.01634,194.13042,86,41,0
194.13042,194.24449,75,50,0
194.24449,194.35823,91,43,0
194.35823,194.47163,79,45,0
194.47163,194.58438,91,42,0
194.58438,194.6968,87,45,0
194.6968,194.80887,91,42,0
194.80887,194.9203,74,50,0
194.9203,195.03174,90,42,0
195.03174,195.14317,78,45,0
195.14317,195.25461,90,42,0
195.25461,195.36604,86,45,0
195.36604,195.47746,90,42,0
195.47746,195.58824,72,50,0
195.58824,195.69936,87,42,0
195.69936,195.81111,75,45,0
195.81111,195.92352,87,43,0
195.92352,196.03659,79,45,0
196.03659,196.15033,87,41,0
196.15033,196.2644,70,50,0
196.2644,196.3785,86,42,0
196.3785,196.49257,74,45,0
196.49257,196.60664,86,43,0
196.60664,196.72072,79,45,0
196.72072,196.8348,86,41,0
196.8348,196.95096,82,50,0
196.95096,197.06676,86,42,0
197.06676,197.18222,79,45,0
197.18222,197.29698,86,42,0
197.29698,197.41106,74,45,0
197.41106,197.5248,86,42,0
197.5248,197.63788,70,50,0
197.63788,197.75061,86,42,0
197.75061,197.86368,74,45,0
197.86368,197.97708,86,45,0
197.97708,198.09084,79,45,0
198.09084,198.20491,86,42,0
198.20491,198.31898,69,50,0
198.31898,198.43272,86,43,0
198.43272,198.54613,74,45,0
198.54613,198.65887,86,42,0
198.65887,198.77127,77,45,0
198.77127,198.88336,86,42,0
198.88336,198.9948,67,50,0
198.9948,199.10623,84,42,0
199.10623,199.21767,72,45,0
199.21767,199.32909,84,42,0
199.32909,199.44052,75,45,0
199.44052,199.55196,84,42,0
199.55196,199.66273,65,50,0
199.66273,199.77385,82,42,0
199.77385,199.8856,70,45,0
199.8856,199.99802,82,43,0
199.99802,200.11108,74,45,0
200.11108,200.22482,82,41,0
200.22482,200.3389,63,50,0
200.3389,200.45297,81,42,0
200.45297,200.56706,69,45,0
200.56706,200.68114,81,43,0
200.68114,200.79521,72,45,0
200.79521,200.90967,81,41,0
200.90967,201.02495,75,50,0
201.02495,201.1389,81,42,0
201.1389,201.2519,72,45,0
201.2519,201.36363,81,42,0
201.36363,201.47444,69,45,0
201.47444,201.58403,81,42,0
201.58403,201.69272,63,50,0
201.69272,201.80232,81,42,0
201.80232,201.91441,69,45,0
201.91441,202.02852,81,45,0
202.02852,202.14871,72,45,0
202.14871,202.2761,81,42,0
202.2761,202.39156,69,59,0
202.39156,202.50598,84,43,0
202.50598,202.61938,72,50,0
202.61938,202.73213,84,42,0
202.73213,202.84453,75,47,0
202.84453,202.95662,84,42,0
202.95662,203.06805,63,50,0
203.06805,203.17949,81,42,0
203.17949,203.29092,69,45,0
203.29092,203.40234,81,42,0
203.40234,203.51378,72,45,0
203.51378,203.62521,81,42,0
203.62521,203.736,64,50,0
203.736,203.8471,79,42,0
203.8471,203.95886,70,45,0
203.95886,204.0733,79,43,0
204.0733,204.19621,76,45,0
204.19621,204.32616,79,41,0
204.32616,204.44023,67,58,0
204.44023,204.5543,82,46,0
204.5543,204.66838,70,50,0
204.66838,204.78246,82,43,0
204.78246,204.89653,74,45,0
204.89653,205.01062,82,41,0
205.01062,205.12677,79,50,0
205.12677,205.24258,82,42,0
205.24258,205.35803,74,45,0
205.35803,205.4728,82,42,0
205.4728,205.58687,70,45,0
205.58687,205.7006,82,42,0
205.7006,205.81369,66,50,0
205.81369,205.92642,81,42,0
205.92642,206.0395,69,45,0
206.0395,206.15291,81,45,0
206.15291,206.26665,74,45,0
206.26665,206.38072,81,42,0
206.38072,206.4948,66,50,0
206.4948,206.60854,81,43,0
206.60854,206.72194,69,45,0
206.72194,206.83469,81,42,0
206.83469,206.9471,75,45,0
206.9471,207.05917,81,42,0
207.05917,207.17061,67,50,0
207.17061,207.28204,79,42,0
207.28204,207.39348,70,45,0
207.39348,207.50491,79,42,0
207.50491,207.61633,74,45,0
207.61633,207.72777,79,42,0
207.72777,207.83855,66,50,0
207.83855,207.94966,78,42,0
207.94966,208.06142,69,45,0
208.06142,208.17383,78,43,0
208.17383,208.2869,74,45,0
208.2869,208.40063,78,41,0
208.51471,208.6288,77,46,0
208.6288,208.74287,68,50,0
208.74287,208.85695,77,43,0
208.85695,208.97102,71,45,0
208.97102,209.0851,77,41,0
209.0851,209.20126,74,50,0
209.20126,209.31706,77,42,0
209.31706,209.43253,71,45,0
209.43253,209.54729,77,42,0
209.54729,209.66136,68,45,0
209.66136,209.7751,77,42,0
209.88818,210.00092,76,42,0
210.00092,210.11398,67,45,0
210.11398,210.22351,76,45,0
210.22351,210.33302,72,45,0
210.33302,210.44482,76,42,0
210.54898,210.65314,75,43,0
210.65314,210.7573,67,45,0
210.7573,210.86145,75,42,0
210.86145,210.96956,72,45,0
210.96956,211.08165,75,42,0
211.19054,211.29944,74,42,0
211.29944,211.40834,67,45,0
211.40834,211.51723,74,42,0
211.51723,211.62613,71,45,0
211.62613,211.73503,74,42,0
211.84581,211.95691,75,42,0
211.95691,212.06866,67,45,0
212.06866,212.18108,75,43,0
212.18108,212.29414,72,45,0
212.29414,212.4079,75,41,0
212.52197,212.63605,75,46,0
212.63605,212.75012,67,50,0
212.75012,212.8642,75,43,0
212.8642,212.97827,68,45,0
212.97827,213.09236,75,41,0
213.09236,213.20851,72,50,0
213.20851,213.32433,75,42,0
213.32433,213.43977,67,45,0
213.43977,213.55453,75,42,0
213.55453,213.66861,68,45,0
213.66861,213.78236,75,42,0
213.89543,214.00816,75,42,0
214.00816,214.12091,68,45,0
214.12091,214.23364,75,45,0
214.23364,214.34639,69,45,0
214.34639,214.4569,75,42,0
214.4569,214.56519,72,42,0
214.56519,214.67407,75,43,0
214.67407,214.78328,68,45,0
214.78328,214.8928,75,42,0
214.8928,215.00294,69,45,0
215.00294,215.1134,75,42,0
215.22484,215.33627,74,42,0
215.33627,215.44771,69,45,0
215.44771,215.55914,74,42,0
215.55914,215.67058,70,45,0
215.67058,215.78201,74,42,0
215.78201,215.89279,71,42,0
215.89279,216.00389,74,42,0
216.00389,216.11565,67,45,0
216.11565,216.22806,74,43,0
216.22806,216.34113,68,45,0
216.34113,216.45488,74,41,0
216.5663,216.67773,74,42,0
216.67773,216.78917,67,45,0
216.78917,216.9006,74,42,0
216.9006,217.01204,69,45,0
217.01204,217.12347,74,42,0
217.12347,217.23755,70,42,0
217.23755,217.35162,73,42,0
217.35162,217.46536,66,45,0
217.46536,217.58014,73,43,0
217.58014,217.697,67,45,0
217.697,217.81357,73,41,0
217.92697,218.04037,74,39,0
218.04037,218.15378,66,42,0
218.15378,218.26718,74,39,0
218.26718,218.38058,67,41,0
218.38058,218.49399,74,38,0
218.60477,218.71588,70,37,0
218.71588,218.82796,61,40,0
218.82796,218.94273,70,38,0
218.94273,219.06032,62,39,0
219.06032,219.18124,70,36,0
219.296,219.41075,72,36,0
219.41075,219.52551,63,38,0
219.52551,219.64027,72,36,0
219.64027,219.75504,62,37,0
219.75504,219.87048,72,35,0
219.987,220.10422,69,35,0
220.10422,220.2218,63,36,0
220.2218,220.34048,69,35,0
220.34048,220.46375,62,36,0
220.46375,220.59195,69,33,0
220.70671,220.82147,70,36,0
220.70671,220.82147,67,30,0
220.82147,220.93623,61,38,0
220.93623,221.05098,70,36,0
220.93623,221.05098,67,29,0
221.05098,221.16574,62,37,0
221.16574,221.2812,70,36,0
221.16574,221.2812,67,29,0
221.38931,221.49742,74,36,0
221.38931,221.49742,70,30,0
221.49742,221.60553,66,43,0
221.60553,221.71364,74,36,0
221.60553,221.71364,70,28,0
221.71364,221.82175,67,43,0
221.82175,221.92986,74,36,0
221.82175,221.92986,70,31,0
222.04129,222.15271,70,39,0
222.04129,222.15271,67,34,0
222.15271,222.26414,61,42,0
222.26414,222.37558,70,40,0
222.26414,222.37558,67,33,0
222.37558,222.48701,62,42,0
222.48701,222.59845,70,39,0
222.48701,222.59845,67,33,0
222.70773,222.81703,74,41,0
222.70773,222.81703,70,34,0
222.81703,222.92632,66,47,0
222.92632,223.04318,74,41,0
222.92632,223.04318,70,32,0
223.04318,223.16005,67,49,0
223.16005,223.2769,74,40,0
223.16005,223.2769,70,34,0
223.38457,223.49223,74,43,0
223.38457,223.49223,71,36,0
223.49223,223.5999,66,47,0
223.5999,223.70757,74,45,0
223.5999,223.70757,71,36,0
223.70757,223.81523,67,46,0
223.81523,223.9229,74,44,0
223.81523,223.9229,71,37,0
224.03056,224.13823,77,45,0
224.03056,224.13823,74,37,0
224.13823,224.2459,68,50,0
224.2459,224.37036,77,45,0
224.2459,224.37036,74,36,0
224.37036,224.49481,67,51,0
224.49481,224.61926,77,45,0
224.49481,224.61926,74,37,0
224.7307,224.84213,79,49,0
224.7307,224.84213,75,41,0
224.84213,224.95357,71,52,0
224.95357,225.06052,79,49,0
224.95357,225.06052,75,40,0
225.06052,225.16747,72,50,0
225.16747,225.2747,79,46,0
225.16747,225.2747,75,39,0
225.38431,225.49635,75,46,0
225.38431,225.49635,72,39,0
225.49635,225.61047,66,51,0
225.61047,225.73575,75,45,0
225.61047,225.73575,72,36,0
225.73575,225.86101,67,51,0
225.86101,225.98627,75,45,0
225.86101,225.98627,72,37,0
226.10036,226.21443,74,45,0
226.10036,226.21443,70,37,0
226.21443,226.3285,66,48,0
226.3285,226.44258,74,44,0
226.3285,226.44258,70,36,0
226.44258,226.55666,67,45,0
226.55666,226.67073,74,42,0
226.55666,226.67073,70,36,0
226.7869,226.90305,70,41,0
226.7869,226.90305,67,34,0
226.90305,227.01921,61,46,0
227.01921,227.14366,70,41,0
227.01921,227.14366,67,32,0
227.14366,227.26813,62,45,0
227.26813,227.39258,70,38,0
227.26813,227.39258,67,32,0
227.51015,227.62773,72,40,0
227.51015,227.62773,69,34,0
227.62773,227.74532,63,42,0
227.74532,227.86288,72,39,0
227.74532,227.86288,69,32,0
227.86288,227.98047,62,40,0
227.98047,228.09804,72,36,0
227.98047,228.09804,69,30,0
228.21783,228.338,69,36,0
228.21783,228.338,66,30,0
228.338,228.45929,63,42,0
228.45929,228.58176,69,36,0
228.45929,228.58176,66,27,0
228.58176,228.70703,62,41,0
228.70703,228.83119,69,34,0
228.70703,228.83119,66,28,0
228.9506,229.06819,70,36,0
228.9506,229.06819,67,30,0
229.06819,229.18399,61,38,0
229.18399,229.29808,70,36,0
229.18399,229.29808,67,29,0
229.29808,229.41216,62,37,0
229.41216,229.52727,70,36,0
229.41216,229.52727,67,29,0
229.63808,229.74648,74,36,0
229.63808,229.74648,70,30,0
229.74648,229.85272,66,43,0
229.85272,229.95883,74,36,0
229.85272,229.95883,70,28,0
229.95883,230.06549,67,43,0
230.06549,230.17288,74,36,0
230.06549,230.17288,70,31,0
230.28549,230.39738,70,39,0
230.28549,230.39738,67,34,0
230.39738,230.5085,61,42,0
230.5085,230.61885,70,40,0
230.5085,230.61885,67,33,0
230.61885,230.72858,62,42,0
230.72858,230.83757,70,39,0
230.72858,230.83757,67,33,0
230.94583,231.05394,74,41,0
230.94583,231.05394,70,34,0
231.05394,231.16205,66,46,0
231.16205,231.27892,74,41,0
231.16205,231.27892,70,32,0
231.27892,231.39578,67,47,0
231.39578,231.51263,74,40,0
231.39578,231.51263,70,34,0
231.62279,231.73293,74,43,0
231.62279,231.73293,71,36,0
231.73293,231.84308,66,47,0
231.84308,231.94838,74,45,0
231.84308,231.94838,71,36,0
231.94838,232.05368,67,46,0
232.05368,232.159,74,44,0
232.05368,232.159,71,37,0
232.2643,232.36961,77,45,0
232.2643,232.36961,74,37,0
232.36961,232.47491,68,50,0
232.47491,232.59937,77,45,0
232.47491,232.59937,74,36,0
232.59937,232.72383,67,52,0
232.72383,232.84828,77,45,0
232.72383,232.84828,74,37,0
232.95523,233.06218,79,49,0
232.95523,233.06218,75,41,0
233.06218,233.16914,71,52,0
233.16914,233.2761,79,49,0
233.16914,233.2761,75,40,0
233.2761,233.38304,72,50,0
233.38304,233.48999,79,46,0
233.38304,233.48999,75,39,0
233.59854,233.70859,75,46,0
233.59854,233.70859,72,39,0
233.70859,233.82016,66,52,0
233.82016,233.93846,75,45,0
233.82016,233.93846,72,36,0
233.93846,234.05676,67,50,0
234.05676,234.17506,75,45,0
234.05676,234.17506,72,37,0
234.28847,234.40187,74,45,0
234.28847,234.40187,70,37,0
234.40187,234.51527,66,48,0
234.51527,234.6287,74,44,0
234.51527,234.6287,70,36,0
234.6287,234.7421,67,45,0
234.7421,234.8555,74,42,0
234.7421,234.8555,70,36,0
234.97165,235.08781,70,41,0
234.97165,235.08781,67,34,0
235.08781,235.20396,61,47,0
235.20396,235.32841,70,41,0
235.20396,235.32841,67,32,0
235.32841,235.45288,62,47,0
235.45288,235.57733,70,38,0
235.45288,235.57733,67,32,0
235.69492,235.81248,72,40,0
235.69492,235.81248,69,34,0
235.81248,235.93007,63,42,0
235.93007,236.04764,72,39,0
235.93007,236.04764,69,32,0
236.04764,236.16522,62,40,0
236.16522,236.2828,72,36,0
236.16522,236.2828,69,30,0
236.40259,236.52238,69,36,0
236.40259,236.52238,66,30,0
236.52238,236.64217,63,42,0
236.64217,236.76196,69,36,0
236.64217,236.76196,66,27,0
236.76196,236.88174,62,41,0
236.88174,237.00154,69,34,0
236.88174,237.00154,66,28,0
249.19746,249.31651,67,63,0
249.19746,249.31651,59,63,0
249.31651,249.43556,71,51,0
249.43556,249.55461,67,54,0
249.43556,249.55461,59,54,0
249.55461,249.67366,71,49,0
249.67366,249.79271,67,54,0
249.67366,249.79271,59,54,0
249.79271,249.91176,71,50,0
249.91176,250.02861,59,62,0
250.02861,250.14548,71,50,0
250.14548,250.26234,67,54,0
250.14548,250.26234,59,54,0
250.26234,250.37921,71,50,0
250.37921,250.49606,67,54,0
250.37921,250.49606,59,54,0
250.49606,250.61293,71,50,0
250.61293,250.73128,67,63,0
250.61293,250.73128,59,63,0
250.73128,250.84962,71,50,0
250.84962,250.96796,67,54,0
250.84962,250.96796,59,54,0
250.96796,251.0863,71,52,0
251.0863,251.20465,67,55,0
251.0863,251.20465,59,55,0
251.20465,251.323,71,51,0
251.323,251.44133,67,64,0
251.323,251.44133,59,64,0
251.44133,251.55968,71,52,0
251.55968,251.67838,67,56,0
251.55968,251.67838,59,56,0
251.67838,251.79742,71,51,0
251.79742,251.91647,67,56,0
251.79742,251.91647,59,56,0
251.91647,252.03622,71,53,0
252.03622,252.15599,67,65,0
252.03622,252.15599,59,65,0
252.15599,252.27647,71,53,0
252.27647,252.39696,67,56,0
252.27647,252.39696,59,56,0
252.39696,252.5178,71,52,0
252.5178,252.639,67,57,0
252.5178,252.639,59,57,0
252.639,252.76059,71,53,0
252.76059,252.88586,67,64,0
252.88586,253.01112,71,53,0
253.01112,253.1364,67,57,0
253.01112,253.1364,59,57,0
253.1364,253.26166,71,54,0
253.26166,253.38693,67,57,0
253.26166,253.38693,59,57,0
253.38693,253.51219,71,54,0
253.63414,253.75609,59,54,0
253.75609,253.87805,55,59,0
253.87805,254.0,59,54,0
254.0,254.12195,55,59,0
254.12195,254.2439,59,54,0
254.2439,254.36511,55,66,0
254.36511,254.48706,59,55,0
254.48706,254.60976,55,59,0
254.60976,254.73322,59,55,0
254.73322,254.85744,55,60,0
254.85744,254.98244,59,54,0
254.98244,255.10823,55,68,0
255.10823,255.2348,59,55,0
255.2348,255.3622,55,60,0
255.3622,255.4904,59,54,0
255.4904,255.61943,55,60,0
255.61943,255.74931,59,55,0
255.74931,255.88002,55,70,0
255.88002,256.0116,59,55,0
256.0116,256.14404,55,61,0
256.14404,256.27737,59,56,0
256.27737,256.41162,55,62,0
256.41162,256.54675,59,56,0
256.54675,256.69168,55,70,0
256.69168,256.8366,59,56,0
256.8366,256.98154,55,62,0
256.98154,257.12646,59,56,0
257.12646,257.2714,55,62,0
257.2714,257.41632,59,57,0
257.41632,257.57016,55,72,0
257.57016,257.7283,59,58,0
257.7283,257.8936,55,63,0
257.8936,258.0664,59,57,0
258.0664,258.25262,55,63,0
258.25262,258.4623,59,59,0
0.0,1.37931,31,80,0
1.37931,1.5517237,34,55,0
1.5517237,1.7228314,38,58,0
1.7228314,1.885494,43,61,0
1.885494,2.0297904,46,63,0
2.0297904,2.1699677,50,66,0
2.1699677,2.3039823,55,68,0
2.3039823,2.4354126,58,68,0
2.4354126,2.5642822,62,71,0
2.5642822,4.1675835,67,77,0
4.1675835,4.3336697,66,60,0
4.3336697,4.491816,63,61,0
4.491816,4.642849,62,62,0
4.642849,4.7872877,60,62,0
4.7872877,4.9257693,58,63,0
4.9257693,5.058687,57,63,0
5.058687,5.186544,55,63,0
5.186544,5.3036785,54,64,0
5.3036785,5.4170394,51,63,0
5.4170394,5.527123,50,63,0
5.527123,5.6340203,48,64,0
5.6340203,5.7376657,46,64,0
5.7376657,5.838797,45,65,0
5.838797,5.9369287,43,66,0
5.9369287,6.033124,42,67,0
6.033124,6.1292777,39,68,0
6.1292777,6.2250233,38,69,0
6.2250233,6.3205647,36,70,0
6.3205647,6.415824,34,70,0
6.415824,6.510761,33,71,0
6.510761,8.239336,31,74,0
8.239336,8.380546,34,54,0
8.380546,8.50991,38,55,0
8.50991,8.629233,43,56,0
8.629233,8.740288,46,58,0
8.740288,8.847789,50,59,0
8.847789,8.954061,55,60,0
8.954061,9.059214,58,62,0
9.059214,9.163274,62,63,0
9.163274,9.266262,67,64,0
9.266262,9.368199,70,65,0
9.368199,9.46921,74,67,0
9.46921,10.826589,79,75,0
10.826589,10.957183,78,50,0
10.957183,11.08453,75,51,0
11.08453,11.207159,74,51,0
11.207159,11.325406,72,52,0
11.325406,11.439235,70,52,0
11.439235,11.5488405,69,53,0
11.5488405,11.654982,67,54,0
11.654982,11.757824,66,54,0
11.757824,11.857307,63,54,0
11.857307,11.95347,62,54,0
11.95347,12.046452,60,55,0
12.046452,12.13646,58,56,0
12.13646,12.22378,57,56,0
12.22378,12.308532,55,57,0
12.308532,12.390803,54,57,0
12.390803,12.472325,51,58,0
12.472325,12.553435,50,58,0
12.553435,12.634168,48,59,0
12.634168,12.714411,46,60,0
12.714411,12.794283,45,60,0
12.794283,12.873676,43,61,0
12.873676,12.952707,42,61,0
12.952707,13.031269,39,62,0
13.031269,13.109476,38,63,0
13.109476,13.1872225,36,63,0
13.1872225,13.264623,34,63,0
13.264623,13.341572,33,63,0
13.341572,13.418181,38,64,0
13.418181,13.4943495,36,64,0
13.4943495,15.052937,34,73,0
13.4943495,15.052937,31,73,0
15.052937,15.163034,38,54,0
15.163034,15.265293,43,55,0
15.265293,15.361278,46,56,0
15.361278,15.4516325,50,58,0
15.4516325,15.537041,55,59,0
15.537041,15.618713,58,60,0
15.618713,15.699158,62,62,0
15.699158,15.778974,67,63,0
15.778974,15.858144,70,64,0
15.858144,15.936707,74,65,0
15.936707,16.014643,79,64,0
16.014643,16.09199,82,66,0
16.09199,16.16873,86,68,0
16.16873,17.677958,91,75,0
17.677958,17.808552,87,50,0
17.808552,17.935898,86,50,0
17.935898,18.058527,84,50,0
18.058527,18.176775,82,51,0
18.176775,18.290604,81,51,0
18.290604,18.40021,79,52,0
18.40021,18.506351,78,52,0
18.506351,18.609192,75,53,0
18.609192,18.708675,74,54,0
18.708675,18.804838,72,54,0
18.804838,18.89782,70,54,0
18.89782,18.98783,69,54,0
18.98783,19.075148,67,55,0
19.075148,19.1599,66,56,0
19.1599,19.242172,63,56,0
19.242172,19.323694,62,57,0
19.323694,19.404804,60,57,0
19.404804,19.485537,58,58,0
19.485537,19.565779,57,58,0
19.565779,19.64565,55,59,0
19.64565,19.725044,54,60,0
19.725044,19.804075,51,60,0
19.804075,19.882637,50,61,0
19.882637,19.960844,48,61,0
19.960844,20.038591,46,62,0
20.038591,20.115992,45,61,0
20.115992,20.192942,43,62,0
20.192942,20.26955,42,63,0
20.26955,20.345718,39,63,0
20.345718,20.421553,38,65,0
20.421553,20.496954,36,66,0
20.496954,21.829872,34,73,0
20.496954,21.829872,31,73,0
21.829872,21.957449,35,43,0
21.957449,22.079546,36,44,0
22.079546,22.19694,37,44,0
22.19694,22.309847,38,45,0
22.309847,22.418558,39,45,0
22.418558,22.52356,40,46,0
22.52356,22.624739,41,46,0
22.624739,22.722788,42,47,0
22.722788,22.817532,43,48,0
22.817532,22.909452,44,49,0
22.909452,22.998568,45,49,0
22.998568,23.085049,46,50,0
23.085049,23.169165,47,51,0
23.169165,23.250841,48,52,0
23.250841,23.33049,49,52,0
23.33049,23.408615,50,53,0
23.408615,23.48674,51,54,0
23.48674,23.564865,52,54,0
23.564865,23.64299,53,54,0
23.64299,23.721115,54,55,0
23.721115,23.79924,55,56,0
23.79924,23.877365,56,57,0
23.877365,23.95549,57,57,0
23.95549,24.03281,58,53,0
24.03281,24.11013,57,53,0
24.11013,24.187054,56,52,0
24.187054,24.263872,55,51,0
24.263872,24.340403,54,51,0
24.340403,24.416752,53,50,0
24.416752,24.492893,52,49,0
24.492893,24.568779,51,49,0
24.568779,24.644844,50,46,0
24.644844,24.721455,49,47,0
24.721455,24.79851,48,48,0
24.79851,24.876097,47,50,0
24.876097,24.954195,46,51,0
24.954195,25.032839,45,53,0
25.032839,25.111925,44,54,0
25.111925,25.191572,43,55,0
25.191572,25.271757,42,59,0
25.271757,25.35252,41,60,0
25.35252,25.433865,40,62,0
25.433865,25.515684,39,63,0
25.515684,25.598072,38,64,0
25.598072,25.681068,37,66,0
25.681068,25.76468,36,67,0
25.76468,25.848478,35,69,0
25.848478,26.10058,34,79,0
25.848478,26.10058,31,79,0
26.856882,27.108982,55,54,0
26.856882,27.108982,67,76,0
26.856882,27.108982,62,63,0
26.856882,27.108982,58,63,0
31.395315,33.68019,62,50,0
33.68019,34.418434,67,56,0
34.418434,35.164093,66,54,0
35.164093,35.969135,63,54,0
35.969135,38.26325,62,50,0
38.26325,39.057796,62,56,0
39.057796,39.85128,60,54,0
39.85128,40.668682,58,54,0
40.668682,42.91586,57,50,0
42.91586,43.714546,60,72,0
43.714546,44.462868,57,67,0
44.462868,45.275375,55,61,0
45.275375,46.758526,58,60,0
46.758526,47.555035,57,48,0
47.555035,48.3448,57,56,0
48.3448,49.142117,55,54,0
49.142117,50.001823,54,54,0
50.001823,52.258278,62,50,0
52.258278,52.996525,62,68,0
52.996525,53.742184,63,72,0
53.742184,54.542923,63,66,0
53.742184,54.542923,60,66,0
54.542923,56.75139,63,61,0
54.542923,56.75139,60,61,0
56.75139,57.49153,63,56,0
56.75139,57.49153,60,56,0
57.49153,58.241806,62,54,0
58.241806,59.075863,62,54,0
59.075863,61.32304,60,50,0
61.32304,62.077885,61,72,0
62.077885,62.826206,60,67,0
62.826206,63.57814,58,61,0
63.57814,64.33285,60,61,0
64.33285,65.12724,65,64,0
65.12724,65.91251,65,63,0
65.91251,66.69224,60,66,0
66.69224,67.49229,62,67,0
67.49229,68.25632,65,67,0
68.25632,68.97099,65,69,0
68.97099,69.70176,66,74,0
69.70176,70.42981,67,72,0
70.42981,71.16962,67,75,0
74.12006,75.608116,65,70,0
75.608116,77.13525,65,63,0
77.13525,79.318054,58,50,0
77.13525,79.318054,46,50,0
79.38242,80.08805,62,51,0
79.350044,80.08805,53,43,0
79.318054,80.08805,46,45,0
80.18111,80.8646,63,56,0
80.08805,80.8646,46,47,0
80.92943,81.63854,63,61,0
80.8646,81.63854,46,50,0
81.741936,83.177124,63,63,0
81.63854,83.177124,45,54,0
83.25407,83.95492,62,61,0
83.177124,83.95492,46,51,0
84.050575,84.75303,62,48,0
84.00275,84.75303,53,44,0
83.95492,84.75303,46,44,0
84.84034,85.548874,63,55,0
84.75303,85.548874,46,46,0
85.63766,86.382454,63,62,0
85.548874,86.382454,46,54,0
86.52767,87.96287,63,63,0
86.382454,87.96287,45,54,0
88.0398,88.83631,62,61,0
87.96287,88.83631,46,51,0
88.83631,89.54612,58,61,0
88.83631,89.54612,56,52,0
89.54612,90.25593,58,61,0
90.25593,90.94462,60,63,0
90.25593,90.94462,58,50,0
90.94462,91.62008,60,63,0
92.28589,92.960045,62,66,0
93.61222,94.26168,65,69,0
94.92374,95.58033,70,72,0
96.23173,96.89471,72,76,0
96.23173,96.89471,70,61,0
97.571144,98.25561,79,78,0
98.95255,99.65022,77,76,0
100.36451,101.10644,70,70,0
102.63266,103.37459,57,61,0
103.37459,104.11422,58,60,0
104.11422,104.82925,57,58,0
104.82925,105.549484,56,57,0
105.549484,106.275,55,55,0
106.275,107.00588,54,54,0
107.00588,107.74027,53,53,0
107.74027,109.2005,53,53,0
109.2005,110.679535,53,50,0
110.679535,112.24324,54,50,0
112.24324,113.68222,43,60,0
112.24324,113.68222,31,50,0
112.24324,113.68222,35,50,0
112.24324,113.68222,38,50,0
118.87574,119.58373,39,66,0
118.87574,119.58373,27,55,0
119.58373,120.28141,41,67,0
119.58373,120.28141,29,56,0
120.28141,120.63025,42,69,0
120.28141,120.63025,30,57,0
120.82715,120.902016,31,58,0
120.902016,120.976875,35,62,0
120.976875,121.05174,38,66,0
121.05174,121.12661,43,70,0
121.12661,123.23629,74,80,0
121.12661,123.23629,71,80,0
123.23629,123.400566,53,74,0
123.88426,124.043976,51,75,0
124.52339,124.68212,44,76,0
125.15457,125.31082,43,77,0
125.77594,125.92979,41,77,0
126.38898,126.54126,39,79,0
126.99505,127.14555,38,80,0
127.59431,128.20334,36,81,0
128.20334,128.4086,34,81,0
128.8965,129.23671,45,79,0
128.8965,129.23671,40,79,0
128.8965,129.23671,33,79,0
135.46268,136.18217,41,66,0
135.46268,136.18217,29,55,0
136.18217,136.88335,43,67,0
136.18217,136.88335,31,56,0
136.88335,137.23395,44,69,0
136.88335,137.23395,32,57,0
137.43085,137.5057,33,58,0
137.5057,137.58057,37,62,0
137.58057,137.65544,40,66,0
137.65544,137.7303,45,70,0
137.7303,139.83998,76,80,0
137.7303,139.83998,73,80,0
139.83998,140.00426,55,74,0
140.48796,140.64766,53,75,0
141.1277,141.28831,46,76,0
141.76628,141.92482,45,77,0
142.39784,142.55495,43,78,0
143.02309,143.17848,41,80,0
143.64215,143.7959,40,81,0
144.25493,144.45755,38,82,0
144.86636,145.07162,37,84,0
145.47089,145.5345,36,79,0
145.5345,145.5981,48,79,0
146.90912,146.95291,35,79,0
146.95291,146.99672,47,79,0
145.5981,146.99672,60,92,0
146.99672,147.66353,59,92,0
147.66353,148.3145,72,75,0
147.66353,148.3145,60,75,0
148.3145,148.98132,71,79,0
148.3145,148.98132,59,79,0
148.98132,149.66827,69,82,0
148.98132,149.66827,57,82,0
149.66827,150.32729,64,82,0
150.32729,150.94003,63,84,0
150.94003,151.56232,62,83,0
151.56232,152.19669,61,82,0
152.19669,152.83472,60,81,0
152.83472,153.39316,59,81,0
153.39316,153.45401,37,79,0
153.45401,153.51488,49,79,0
154.81212,154.85591,36,79,0
154.85591,154.89972,48,79,0
153.51488,154.89972,61,92,0
154.89972,155.56653,60,92,0
155.56653,156.2175,73,75,0
155.56653,156.2175,61,75,0
156.2175,156.88432,72,79,0
156.2175,156.88432,60,79,0
156.88432,157.57127,70,82,0
156.88432,157.57127,58,82,0
157.57127,158.23029,65,82,0
158.23029,158.85756,64,84,0
158.85756,159.4883,63,83,0
159.4883,160.12268,62,82,0
160.12268,160.7607,61,81,0
161.31914,161.37999,39,79,0
161.37999,161.44086,51,79,0
160.7607,161.44086,60,81,0
162.72018,162.76399,38,79,0
162.76399,162.80779,50,79,0
161.44086,162.80779,63,92,0
162.80779,163.46297,62,92,0
163.46297,164.11244,75,75,0
163.46297,164.11244,63,75,0
164.11244,164.76555,74,79,0
164.11244,164.76555,62,79,0
164.76555,165.45395,72,82,0
164.76555,165.45395,60,82,0
165.45395,166.07814,67,82,0
165.45395,166.07814,59,75,0
166.07814,166.69717,65,84,0
166.69717,167.31946,63,83,0
167.31946,167.90947,60,82,0
167.90947,168.52803,63,81,0
168.52803,169.15756,60,81,0
169.15756,169.7524,65,82,0
169.15756,169.7524,57,75,0
169.7524,170.35866,63,84,0
170.35866,170.94554,62,83,0
170.94554,171.55882,58,82,0
171.55882,172.17558,62,81,0
172.17558,172.80344,58,81,0
172.80344,173.40309,63,82,0
172.80344,173.40309,55,75,0
173.40309,173.99948,62,84,0
173.99948,174.59766,60,83,0
174.59766,175.21423,57,82,0
175.21423,175.82916,60,81,0
175.82916,176.45534,57,81,0
176.45534,177.07373,62,82,0
176.45534,177.07373,54,75,0
177.07373,177.69601,60,84,0
177.69601,178.32675,58,83,0
178.32675,178.96112,62,82,0
178.96112,179.59914,62,81,0
179.59914,180.2374,61,81,0
180.2374,180.85579,50,79,0
180.2374,180.85579,45,79,0
180.2374,180.85579,38,79,0
180.85579,181.39766,62,71,0
180.85579,181.39766,50,71,0
181.47807,182.0284,70,72,0
181.43787,182.0284,62,68,0
181.39766,182.0284,55,61,0
182.10881,182.31342,74,73,0
182.0686,182.6623,67,67,0
182.0284,182.6623,58,62,0
182.7432,182.94894,72,66,0
182.6623,183.29984,57,48,0
182.68925,183.29984,62,54,0
182.71622,183.29984,66,61,0
183.38121,183.58813,70,68,0
183.34052,183.93965,62,62,0
183.29984,183.93965,55,55,0
184.02103,184.22678,69,66,0
183.98033,184.57767,62,60,0
183.93965,184.57767,54,56,0
184.65904,184.86598,67,65,0
184.61836,185.21748,62,59,0
184.57767,185.21748,51,54,0
185.29886,185.50461,66,63,0
185.25818,185.85551,57,57,0
185.21748,185.85551,50,54,0
185.93687,186.14381,63,62,0
185.85551,186.49533,48,42,0
185.88263,186.49533,54,46,0
185.90976,186.49533,57,51,0
186.57669,186.78246,62,58,0
186.53601,187.13335,55,53,0
186.49533,187.13335,46,48,0
187.21472,187.42165,58,59,0
187.17403,187.77316,50,52,0
187.13335,187.77316,43,50,0
187.85362,188.05687,57,55,0
187.81384,188.39958,50,50,0
187.77316,188.39958,42,47,0
188.47917,188.69072,55,54,0
188.43933,189.04776,50,48,0
188.39958,189.04776,39,44,0
189.1307,189.35127,54,50,0
189.08919,189.72394,45,45,0
189.04776,189.72394,38,43,0
189.81053,190.04094,51,47,0
189.72394,190.43053,36,32,0
189.75276,190.43053,42,36,0
189.7816,190.43053,45,39,0
190.52112,190.76225,50,44,0
190.47575,191.17046,43,34,0
190.43053,191.17046,34,31,0
191.26543,191.9439,48,43,0
191.17046,191.9439,33,28,0
191.20207,191.9439,38,31,0
191.23369,191.9439,42,36,0
192.03705,192.76031,46,44,0
191.99156,192.76031,38,37,0
191.9439,192.76031,31,34,0
194.13042,194.80887,67,54,0
194.08763,194.80887,55,40,0
194.76685,194.80887,55,41,0
194.80887,195.47746,66,58,0
195.43568,195.47746,55,43,0
195.47746,196.15033,63,59,0
196.15033,196.8348,55,45,0
196.15033,198.20491,62,53,0
198.20491,198.88336,65,54,0
198.88336,199.55196,63,57,0
199.55196,200.22482,62,57,0
200.22482,202.2761,60,53,0
202.2761,202.95381,63,59,0
202.2761,202.95662,48,49,0
202.95662,203.62521,60,57,0
202.95662,203.62521,48,48,0
203.62521,204.32616,58,57,0
203.62521,204.32616,49,48,0
204.32616,205.7006,58,48,0
204.32616,205.7006,50,48,0
205.7006,206.38072,57,48,0
205.7006,206.38072,50,48,0
204.32616,206.38072,62,57,0
206.38072,207.05917,63,54,0
206.38072,207.05917,60,45,0
207.05917,207.72777,62,57,0
207.05917,207.72777,58,48,0
207.72777,208.40063,62,57,0
207.72777,208.40063,60,40,0
207.72777,208.40063,57,40,0
208.40063,209.7751,62,57,0
208.40063,209.7751,59,48,0
208.40063,209.7751,56,48,0
209.7751,210.44482,55,48,0
210.44482,211.08165,67,58,0
211.08165,211.73503,65,54,0
211.73503,212.4079,60,54,0
211.73503,212.4079,55,48,0
212.4079,213.78236,54,48,0
213.78236,214.4569,53,48,0
212.4079,214.4569,60,57,0
214.4569,215.1134,60,54,0
214.4569,215.1134,54,48,0
215.1134,215.78201,58,51,0
215.1134,215.78201,55,45,0
215.78201,216.45488,56,51,0
215.78201,216.45488,53,45,0
216.45488,217.12347,55,51,0
216.45488,217.12347,52,45,0
217.12347,217.81357,55,45,0
217.12347,217.81357,51,40,0
217.81357,218.49115,58,48,0
218.49399,219.18124,55,46,0
217.81357,219.18124,50,43,0
219.18124,219.86758,57,45,0
219.87048,220.59195,54,42,0
219.18124,220.59195,50,39,0
220.59195,221.2812,43,44,0
220.59195,221.2812,31,36,0
221.2812,221.92715,58,40,0
221.2812,221.92986,55,34,0
221.2812,221.92986,50,34,0
221.92986,222.59845,43,47,0
221.92986,222.59845,31,40,0
222.59845,223.2769,58,45,0
222.59845,223.2769,55,38,0
222.59845,223.2769,50,38,0
223.2769,223.9229,43,53,0
223.2769,223.9229,31,44,0
223.9229,224.61926,62,50,0
223.9229,224.61926,55,42,0
223.9229,224.61926,53,42,0
223.9229,224.61926,59,42,0
224.61926,225.2747,43,60,0
224.61926,225.2747,31,50,0
225.2747,225.98627,60,53,0
225.2747,225.98627,55,45,0
225.2747,225.98627,51,45,0
225.98627,226.67073,38,55,0
226.67073,227.39258,55,46,0
226.67073,227.39258,50,39,0
227.39258,228.09511,57,47,0
227.39258,228.09804,50,36,0
228.09804,228.83119,54,41,0
228.09804,228.83119,50,34,0
228.83119,229.52727,43,44,0
228.83119,229.52727,31,36,0
229.52727,230.1702,58,40,0
229.52727,230.17288,55,34,0
229.52727,230.17288,50,34,0
230.17288,230.83757,43,47,0
230.17288,230.83757,31,40,0
230.83757,231.51263,58,45,0
230.83757,231.51263,55,38,0
230.83757,231.51263,50,38,0
231.51263,232.159,43,53,0
231.51263,232.159,31,44,0
232.159,232.84828,62,50,0
232.159,232.84828,55,42,0
232.159,232.84828,53,42,0
232.159,232.84828,59,42,0
232.84828,233.48999,43,60,0
232.84828,233.48999,31,50,0
233.48999,234.17506,60,53,0
233.48999,234.17506,55,45,0
233.48999,234.17506,51,45,0
234.17506,234.8555,38,55,0
234.8555,235.57733,55,46,0
234.8555,235.57733,50,39,0
235.57733,236.27986,57,47,0
235.57733,236.2828,50,36,0
236.2828,237.00154,54,41,0
236.2828,237.00154,50,34,0
237.00154,237.68541,67,51,0
237.00154,237.68541,62,51,0
237.68541,238.35056,65,56,0
237.68541,238.35056,62,56,0
238.35056,239.00781,64,62,0
239.00781,239.68098,63,58,0
239.68098,241.0125,66,58,0
241.0125,241.69696,67,51,0
241.0125,241.69696,62,51,0
241.69696,242.36069,65,56,0
241.69696,242.36069,62,56,0
242.36069,243.01288,64,62,0
243.01288,243.68343,63,58,0
245.01494,245.72041,55,51,0
245.72041,246.41316,53,56,0
246.41316,247.7484,55,62,0
247.7484,249.19746,55,63,0
249.19746,249.55461,55,49,0
249.15614,249.55461,50,45,0
249.11482,249.55461,43,44,0
249.91176,250.61293,55,50,0
249.91176,250.61293,47,42,0
249.91176,250.61293,43,42,0
250.61293,251.323,54,51,0
250.61293,251.323,47,43,0
250.61293,251.323,42,43,0
251.323,252.03622,52,52,0
251.323,252.03622,47,44,0
251.323,252.03622,40,44,0
252.03622,252.76059,50,53,0
252.03622,252.76059,47,45,0
252.03622,252.76059,38,45,0
252.76059,253.51219,47,54,0
252.76059,253.51219,35,45,0
253.51219,254.2439,43,53,0
253.51219,254.2439,35,45,0
253.51219,254.2439,31,45,0
254.2439,254.98244,42,54,0
254.2439,254.98244,35,45,0
254.2439,254.98244,31,45,0
254.98244,255.74931,40,56,0
254.98244,255.74931,35,47,0
254.98244,255.74931,31,47,0
255.74931,256.54675,39,58,0
255.74931,256.54675,35,49,0
255.74931,256.54675,31,49,0
256.54675,257.41632,38,61,0
256.54675,257.41632,35,51,0
256.54675,257.41632,31,51,0
257.41632,258.4623,35,63,0
257.41632,258.4623,31,53,0
258.4623,259.82593,31,80,0
259.82593,259.99835,35,55,0
259.99835,260.16946,38,58,0
260.16946,260.33212,43,61,0
260.33212,260.4764,47,63,0
260.4764,260.6166,50,66,0
260.6166,260.7506,55,68,0
260.7506,260.88205,59,68,0
260.88205,261.01093,62,71,0
261.01093,262.61423,67,77,0
262.61423,262.7803,66,60,0
262.7803,262.93845,64,61,0
262.93845,263.08948,62,62,0
263.08948,263.23392,60,62,0
263.23392,263.3724,59,63,0
263.3724,263.5053,57,63,0
263.5053,263.63312,55,63,0
263.63312,263.7564,54,64,0
263.7564,263.87515,52,63,0
263.87515,263.98996,50,63,0
263.98996,264.1008,48,64,0
264.1008,264.2077,47,64,0
264.2077,264.3114,45,65,0
264.3114,264.41183,43,66,0
264.41183,264.50928,42,67,0
264.50928,264.6054,40,68,0
264.6054,264.70117,38,69,0
264.70117,264.7967,36,70,0
264.7967,264.89197,35,70,0
264.89197,264.9869,33,71,0
264.9869,266.71548,31,74,0
266.71548,266.8567,35,54,0
266.8567,266.98605,38,55,0
266.98605,267.10538,43,56,0
267.10538,267.21625,47,58,0
267.21625,267.32364,50,59,0
267.32364,267.42932,55,60,0
267.42932,267.53348,59,62,0
267.53348,267.63605,62,63,0
267.63605,267.73718,67,64,0
267.73718,267.83682,71,65,0
267.83682,267.9351,74,67,0
267.9351,269.28195,79,75,0
269.28195,269.41354,78,50,0
269.41354,269.54285,76,51,0
269.54285,269.66925,74,51,0
269.66925,269.79324,72,52,0
269.79324,269.91486,71,52,0
269.91486,270.0339,69,53,0
270.0339,270.14844,67,54,0
270.14844,270.25742,66,54,0
270.25742,270.36136,64,54,0
270.36136,270.46072,62,54,0
270.46072,270.55566,60,55,0
270.55566,270.64676,59,56,0
270.64676,270.7343,57,56,0
270.7343,270.8186,55,57,0
270.8186,270.9006,54,57,0
270.9006,270.98154,52,58,0
270.98154,271.0619,50,58,0
271.0619,271.14185,48,59,0
271.14185,271.22107,47,60,0
271.22107,271.29987,45,60,0
271.29987,271.37814,43,61,0
271.37814,271.456,42,61,0
271.456,271.53317,40,62,0
271.53317,271.60995,38,63,0
271.60995,271.68625,36,63,0
271.68625,271.76212,35,63,0
271.76212,271.83737,33,63,0
271.83737,271.91226,38,64,0
271.91226,271.98663,36,64,0
271.98663,273.53952,35,73,0
271.98663,273.53952,31,73,0
273.53952,273.65555,38,54,0
273.65555,273.76352,43,55,0
273.76352,273.86444,47,56,0
273.86444,273.9594,50,58,0
273.9594,274.0489,55,59,0
274.0489,274.13367,59,60,0
274.13367,274.21503,62,62,0
274.21503,274.29526,67,63,0
274.29526,274.3746,71,64,0
274.3746,274.45288,74,65,0
274.45288,274.53018,79,64,0
274.53018,274.6066,83,66,0
274.6066,274.68198,86,68,0
274.68198,276.18365,91,75,0
276.18365,276.3176,88,50,0
276.3176,276.4492,86,50,0
276.4492,276.57703,84,50,0
276.57703,276.69968,83,51,0
276.69968,276.81717,81,51,0
276.81717,276.92996,79,52,0
276.92996,277.0387,78,52,0
277.0387,277.14334,76,53,0
277.14334,277.24426,74,54,0
277.24426,277.34186,72,54,0
277.34186,277.43622,71,54,0
277.43622,277.52768,69,54,0
277.52768,277.61627,67,55,0
277.61627,277.70215,66,56,0
277.70215,277.7852,64,56,0
277.7852,277.867,62,57,0
277.867,277.94824,60,57,0
277.94824,278.02875,59,58,0
278.02875,278.10852,57,58,0
278.10852,278.18762,55,59,0
278.18762,278.26602,54,60,0
278.26602,278.34387,52,60,0
278.34387,278.42105,50,61,0
278.42105,278.4976,48,61,0
278.4976,278.57373,47,62,0
278.57373,278.64948,45,61,0
278.64948,278.72485,43,62,0
278.72485,278.79987,42,63,0
278.79987,278.87448,40,63,0
278.87448,278.94876,38,65,0
278.94876,279.02252,36,66,0
279.02252,280.35544,35,73,0
279.02252,280.35544,31,73,0
280.35544,280.483,36,43,0
280.483,280.6051,37,44,0
280.6051,280.7225,38,44,0
280.7225,280.83542,39,45,0
280.83542,280.94412,40,45,0
280.94412,281.04913,41,46,0
281.04913,281.15048,42,46,0
281.15048,281.2494,43,47,0
281.2494,281.34534,44,48,0
281.34534,281.43832,45,49,0
281.43832,281.5287,46,49,0
281.5287,281.6166,47,50,0
281.6166,281.70215,48,51,0
281.70215,281.78534,49,52,0
281.78534,281.8661,50,52,0
281.8661,281.94586,51,53,0
281.94586,282.02524,52,54,0
282.02524,282.10403,53,54,0
282.10403,282.18243,54,54,0
282.18243,282.26044,55,55,0
282.26044,282.3379,56,56,0
282.3379,282.41495,57,57,0
282.41495,282.49133,58,57,0
282.49133,282.5671,59,53,0
282.5671,282.6426,58,53,0
282.6426,282.71786,57,52,0
282.71786,282.79285,56,51,0
282.79285,282.8675,55,51,0
282.8675,282.94186,54,50,0
282.94186,283.016,53,49,0
283.016,283.0899,52,49,0
283.0899,283.16354,51,46,0
283.16354,283.23767,50,47,0
283.23767,283.31244,49,48,0
283.31244,283.38766,48,50,0
283.38766,283.46356,47,51,0
283.46356,283.54022,46,53,0
283.54022,283.6174,45,54,0
283.6174,283.69528,44,55,0
283.69528,283.77368,43,59,0
283.77368,283.85275,42,60,0
283.85275,283.93268,41,62,0
283.93268,284.01318,40,63,0
284.01318,284.09442,39,64,0
284.09442,284.17624,38,66,0
284.17624,284.2588,37,67,0
284.2588,284.34213,36,69,0
284.34213,284.59424,35,79,0
284.34213,284.59424,31,79,0
285.35052,285.60263,55,56,0
285.35052,285.60263,67,81,0
285.35052,285.60263,62,67,0
285.35052,285.60263,59,67,0
31.281897,31.498575,58,47,0
31.498575,31.600714,55,32,0
31.600714,31.701612,58,40,0
31.701612,31.801346,55,31,0
31.801346,31.900023,58,40,0
31.900023,31.997585,55,31,0
31.997585,32.093933,58,40,0
32.093933,32.189217,55,32,0
32.189217,32.283165,58,41,0
32.283165,32.377033,55,33,0
32.377033,32.470375,58,41,0
32.470375,32.56352,55,33,0
32.56352,32.656258,58,42,0
32.656258,32.74864,55,33,0
32.74864,32.840775,58,42,0
31.171366,32.840775,50,42,0
31.069378,32.840775,43,37,0
32.840775,32.932697,55,34,0
32.932697,33.0252,58,42,0
33.0252,33.11785,55,34,0
33.11785,33.210915,58,43,0
33.210915,33.304127,55,34,0
33.304127,33.397747,58,43,0
33.397747,33.491524,55,34,0
33.491524,33.58572,58,44,0
33.58572,33.68019,55,35,0
33.68019,33.77431,63,48,0
33.77431,33.86715,55,36,0
33.86715,33.958664,63,44,0
33.958664,34.05007,55,33,0
34.05007,34.14148,63,40,0
34.14148,34.23339,55,45,0
34.23339,34.32541,63,34,0
34.32541,34.418434,55,40,0
34.418434,34.512554,62,47,0
34.512554,34.605915,55,34,0
34.605915,34.698456,62,43,0
34.698456,34.7904,55,35,0
34.7904,34.882977,62,40,0
34.882977,34.97604,55,35,0
34.97604,35.06974,62,44,0
35.06974,35.164093,55,40,0
35.164093,35.25868,60,47,0
35.25868,35.352608,55,33,0
35.352608,35.445896,60,43,0
35.445896,35.538807,55,34,0
35.538807,35.636448,60,42,0
35.636448,35.74012,55,33,0
35.74012,35.850727,60,42,0
35.850727,35.969135,55,34,0
35.969135,36.066116,58,44,0
36.066116,36.163498,55,32,0
36.163498,36.260113,58,40,0
36.260113,36.3558,55,31,0
36.3558,36.45082,58,40,0
36.45082,36.544903,55,31,0
36.544903,36.638336,58,40,0
36.638336,36.731026,55,31,0
36.731026,36.82297,58,40,0
36.82297,36.914917,55,31,0
36.914917,37.006863,58,39,0
37.006863,37.09881,55,30,0
37.09881,37.190754,58,37,0
37.190754,37.2827,55,29,0
37.2827,37.374645,58,36,0
37.374645,37.46674,55,29,0
37.46674,37.559242,58,32,0
37.559242,37.651894,55,28,0
37.651894,37.744957,58,36,0
37.744957,37.83817,55,29,0
37.83817,37.93179,58,37,0
37.93179,38.025562,55,30,0
38.025562,38.119762,58,39,0
38.119762,38.16759,55,31,0
38.21542,38.36711,57,48,0
38.16759,38.36711,53,35,0
38.36711,38.45995,53,36,0
38.45995,38.551464,57,44,0
38.551464,38.64287,53,33,0
38.64287,38.73428,57,40,0
38.73428,38.826187,53,45,0
38.826187,38.91821,57,34,0
38.91821,38.964737,53,40,0
39.011265,39.151917,55,47,0
38.964737,39.151917,51,39,0
39.151917,39.245277,51,34,0
39.245277,39.33782,55,43,0
39.33782,39.429764,51,35,0
39.429764,39.52234,55,40,0
39.52234,39.615402,51,35,0
39.615402,39.7091,55,44,0
39.7091,39.756493,51,40,0
39.803886,39.947063,53,47,0
39.756493,39.947063,50,39,0
39.947063,40.040993,50,33,0
40.040993,40.134277,53,43,0
40.134277,40.226818,50,34,0
40.226818,40.320065,53,42,0
40.320065,40.413956,50,33,0
40.413956,40.508698,53,42,0
40.508698,40.562027,50,34,0
40.615356,40.765663,51,44,0
40.562027,40.765663,48,32,0
40.765663,40.86305,48,32,0
40.86305,40.95966,51,40,0
40.95966,41.05535,48,32,0
41.05535,41.150368,51,42,0
41.150368,41.24445,48,33,0
41.24445,41.337887,51,43,0
41.337887,41.430576,48,33,0
41.430576,41.522522,51,44,0
41.522522,41.614468,48,35,0
41.614468,41.706413,51,45,0
41.706413,41.79836,48,36,0
41.79836,41.890305,51,45,0
41.890305,41.98225,48,36,0
41.98225,42.074196,51,46,0
42.074196,42.166286,48,37,0
42.166286,42.25879,51,48,0
42.25879,42.35144,48,38,0
42.35144,42.444504,51,48,0
42.444504,42.537716,48,39,0
42.537716,42.631336,51,50,0
42.631336,42.725113,48,40,0
42.725113,42.819622,51,51,0
42.819622,42.91586,48,41,0
42.91586,43.01255,51,57,0
43.01255,43.107956,48,39,0
43.107956,43.202316,51,51,0
43.202316,43.29566,48,36,0
43.29566,43.389,51,44,0
43.389,43.482338,48,48,0
43.482338,43.57496,51,36,0
43.57496,43.621487,48,43,0
43.668015,43.808666,52,52,0
43.621487,43.808666,49,42,0
43.808666,43.902027,49,36,0
43.902027,43.994568,52,45,0
43.994568,44.086514,49,36,0
44.086514,44.17909,52,44,0
44.17909,44.272152,49,38,0
44.272152,44.36585,52,45,0
44.36585,44.462868,49,41,0
44.462868,44.55865,52,52,0
44.55865,44.65258,49,34,0
44.65258,44.745865,52,44,0
44.745865,44.838406,49,35,0
44.838406,44.931656,52,42,0
44.931656,45.025543,49,33,0
45.025543,45.12029,52,42,0
45.12029,45.17198,49,34,0
45.22368,45.372356,55,44,0
45.17198,45.372356,50,44,0
45.372356,45.469738,50,32,0
45.469738,45.566353,55,40,0
45.566353,45.662045,50,32,0
45.662045,45.75706,55,42,0
45.75706,45.851143,50,33,0
45.851143,45.944576,55,43,0
45.944576,46.037064,50,33,0
46.037064,46.127773,55,44,0
46.127773,46.217728,50,35,0
46.217728,46.308247,55,43,0
46.308247,46.399147,50,34,0
46.399147,46.488914,55,42,0
46.488914,46.577717,50,33,0
46.577717,46.667374,55,41,0
46.667374,46.758526,50,32,0
46.758526,46.85103,54,40,0
46.85103,46.94368,50,32,0
46.94368,47.036743,54,40,0
47.036743,47.129955,50,32,0
47.129955,47.223576,54,40,0
47.223576,47.317352,50,32,0
47.317352,47.41155,54,40,0
47.41155,47.459377,50,32,0
47.507206,47.65328,51,48,0
47.459377,47.65328,48,35,0
47.65328,47.747147,48,36,0
47.747147,47.839645,51,44,0
47.839645,47.93128,48,33,0
47.93128,48.023697,51,40,0
48.023697,48.117,48,45,0
48.117,48.21096,51,34,0
48.21096,48.257492,48,40,0
48.30402,48.440975,50,47,0
48.257492,48.440975,46,39,0
48.440975,48.53571,46,34,0
48.53571,48.628986,50,43,0
48.628986,48.721287,46,35,0
48.721287,48.814873,50,40,0
48.814873,48.9099,46,35,0
48.9099,49.005943,50,44,0
49.005943,49.053337,46,40,0
49.10073,49.238937,50,47,0
49.053337,49.238937,45,39,0
49.238937,49.334816,45,33,0
49.334816,49.429714,50,43,0
49.429714,49.52399,45,34,0
49.52399,49.619442,50,42,0
49.619442,49.716396,45,33,0
49.716396,49.814304,50,42,0
49.814304,49.86876,45,32,0
49.975784,50.10559,58,40,0
50.10559,50.20773,55,32,0
50.20773,50.308628,58,40,0
50.308628,50.408363,55,31,0
50.408363,50.50704,58,40,0
50.50704,50.604603,55,31,0
50.604603,50.70095,58,40,0
50.70095,50.796127,55,31,0
50.796127,50.889297,58,41,0
50.889297,50.981888,55,33,0
50.981888,51.07395,58,41,0
51.07395,51.165527,55,33,0
51.165527,51.256622,58,42,0
51.256622,51.347202,55,33,0
51.347202,51.43731,58,42,0
51.43731,51.526493,55,34,0
49.923218,51.526493,50,40,0
49.86876,51.548683,43,40,0
51.526493,51.615604,58,42,0
51.615604,51.70532,55,34,0
51.70532,51.795788,58,43,0
51.795788,51.886883,55,34,0
51.886883,51.978607,58,43,0
51.978607,52.071087,55,34,0
52.071087,52.164215,58,44,0
52.164215,52.258278,55,35,0
52.258278,52.3524,59,53,0
52.3524,52.44524,55,39,0
52.44524,52.536755,59,47,0
52.536755,52.628162,55,36,0
52.628162,52.71957,59,44,0
52.71957,52.81148,55,50,0
52.81148,52.9035,59,37,0
52.9035,52.996525,55,45,0
52.996525,53.090645,60,59,0
53.090645,53.184006,55,44,0
53.184006,53.276546,60,53,0
53.276546,53.368492,55,42,0
53.368492,53.461067,60,50,0
53.461067,53.55413,55,44,0
53.55413,53.64783,60,50,0
53.64783,53.742184,55,46,0
53.742184,53.83677,58,61,0
53.83677,53.9307,54,44,0
53.9307,54.023983,58,55,0
54.023983,54.116413,54,44,0
54.116413,54.211063,58,52,0
54.211063,54.310493,54,38,0
54.310493,54.421955,58,49,0
54.421955,54.542923,54,40,0
54.542923,54.63877,57,44,0
54.63877,54.733707,53,32,0
54.733707,54.827694,57,40,0
54.827694,54.920616,53,31,0
54.920616,55.012714,57,40,0
55.012714,55.10383,53,31,0
55.10383,55.194046,57,40,0
55.194046,55.283527,53,31,0
55.283527,55.372814,57,40,0
55.372814,55.46219,53,32,0
55.46219,55.55201,57,40,0
55.55201,55.64192,53,32,0
55.64192,55.73228,57,40,0
55.73228,55.82273,53,32,0
55.82273,55.913643,57,40,0
55.913643,56.004642,53,32,0
56.004642,56.096107,57,40,0
56.096107,56.187996,53,32,0
56.187996,56.28106,57,40,0
56.28106,56.37427,53,33,0
56.37427,56.467896,57,42,0
56.467896,56.56167,53,34,0
56.56167,56.656197,57,43,0
56.656197,56.75139,53,35,0
56.75139,56.845592,57,48,0
56.845592,56.93843,54,36,0
56.93843,57.029945,57,44,0
57.029945,57.121353,54,33,0
57.121353,57.21276,57,40,0
57.21276,57.30467,54,45,0
57.30467,57.396965,57,34,0
57.396965,57.49153,54,40,0
57.49153,57.58565,58,47,0
57.58565,57.679012,55,34,0
57.679012,57.771553,58,43,0
57.771553,57.8635,55,35,0
57.8635,57.956074,58,40,0
57.956074,58.049137,55,35,0
58.049137,58.14333,58,44,0
58.14333,58.241806,55,40,0
58.241806,58.368988,56,47,0
58.33759,58.43152,53,33,0
58.43152,58.524803,56,43,0
58.524803,58.617264,53,34,0
58.617264,58.711807,56,42,0
58.711807,58.81137,53,33,0
58.81137,58.915882,56,42,0
58.915882,58.969208,53,34,0
59.022537,59.172844,55,44,0
58.969208,59.172844,51,32,0
59.172844,59.27023,51,32,0
59.27023,59.36684,55,40,0
59.36684,59.462532,51,32,0
59.462532,59.55755,55,42,0
59.55755,59.65163,51,33,0
59.65163,59.745068,55,43,0
59.745068,59.837757,51,33,0
59.837757,59.929703,55,44,0
59.929703,60.02165,51,35,0
60.02165,60.113594,55,45,0
60.113594,60.20554,51,36,0
60.20554,60.297485,55,45,0
60.297485,60.38943,51,36,0
60.38943,60.481377,55,46,0
60.481377,60.573467,51,37,0
60.573467,60.66597,55,48,0
60.66597,60.75862,51,38,0
60.75862,60.851685,55,48,0
60.851685,60.944897,51,39,0
60.944897,61.038517,55,50,0
61.038517,61.132294,51,40,0
61.132294,61.226803,55,51,0
61.226803,61.32304,51,41,0
61.32304,61.41973,55,57,0
61.41973,61.515137,52,39,0
61.515137,61.609497,55,51,0
61.609497,61.70284,52,36,0
61.70284,61.79618,55,44,0
61.79618,61.889523,52,48,0
61.889523,61.983337,55,36,0
61.983337,62.077885,52,43,0
62.077885,62.203213,55,52,0
62.172005,62.265366,52,36,0
62.265366,62.357906,55,45,0
62.357906,62.449852,52,36,0
62.449852,62.542427,55,44,0
62.542427,62.63549,52,38,0
62.63549,62.72919,55,45,0
62.72919,62.826206,52,41,0
62.826206,62.92199,55,52,0
62.92199,63.01592,52,34,0
63.01592,63.109203,55,44,0
63.109203,63.201744,52,35,0
63.201744,63.294994,55,42,0
63.294994,63.38888,52,33,0
63.38888,63.483532,55,42,0
63.483532,63.57814,52,33,0
63.57814,63.67333,57,46,0
63.67333,63.76852,53,37,0
63.76852,63.863293,57,46,0
63.863293,63.95786,53,36,0
63.95786,64.05201,57,45,0
64.05201,64.145966,53,34,0
64.145966,64.23951,57,45,0
64.23951,64.27062,53,36,0
64.301735,64.42559,57,45,0
64.27062,64.42559,51,36,0
64.42559,64.51833,51,38,0
64.51833,64.61108,57,47,0
64.61108,64.70381,51,44,0
64.70381,64.796555,57,48,0
64.796555,64.8893,51,38,0
64.8893,64.98204,57,45,0
64.98204,65.03044,51,37,0
65.07884,65.22059,58,46,0
65.03044,65.22059,50,40,0
65.22059,65.31393,50,38,0
65.31393,65.40727,58,46,0
65.40727,65.50061,50,38,0
65.50061,65.593956,58,47,0
65.593956,65.687294,50,39,0
65.687294,65.78064,58,47,0
65.78064,65.8246,50,39,0
65.86856,66.00586,57,47,0
65.8246,66.00586,54,42,0
66.00586,66.0988,54,39,0
66.0988,66.19094,57,48,0
66.19094,66.282295,54,39,0
66.282295,66.37366,57,48,0
66.37366,66.465996,54,40,0
66.465996,66.559135,57,49,0
66.559135,66.60351,54,40,0
66.64787,66.7866,58,49,0
66.60351,66.7866,53,43,0
66.7866,66.88034,53,40,0
66.88034,66.97349,58,50,0
66.97349,67.066025,53,40,0
67.066025,67.15877,58,50,0
67.15877,67.253334,53,41,0
67.253334,67.348526,58,51,0
67.348526,67.39645,53,42,0
67.44437,67.58326,57,51,0
67.39645,67.58326,51,44,0
67.58326,67.67423,51,44,0
67.67423,67.76521,57,52,0
67.76521,67.856186,51,43,0
67.856186,67.94716,57,52,0
67.94716,68.03813,51,43,0
68.03813,68.12911,57,53,0
68.12911,68.17151,51,43,0
68.21391,68.34672,58,53,0
68.17151,68.34672,50,46,0
68.34672,68.436935,50,44,0
68.436935,68.52678,58,52,0
68.52678,68.61625,50,43,0
68.61625,68.705536,58,52,0
68.705536,68.794266,50,44,0
68.794266,68.882805,58,52,0
68.882805,68.97099,50,44,0
68.97099,69.05864,58,52,0
69.05864,69.14611,50,44,0
69.14611,69.233406,58,52,0
69.233406,69.32141,50,44,0
69.32141,69.410324,58,52,0
69.410324,69.49998,50,45,0
69.49998,69.58982,58,52,0
69.58982,69.62714,50,45,0
69.664444,69.7939,58,53,0
69.62714,69.7939,51,48,0
69.7939,69.88584,51,45,0
69.88584,69.977394,58,53,0
69.977394,70.06856,51,45,0
70.06856,70.15954,58,52,0
70.15954,70.24994,51,45,0
70.24994,70.33997,58,54,0
70.33997,70.42981,51,46,0
70.42981,70.51965,58,54,0
70.42981,70.51965,61,54,0
70.51965,70.60968,52,47,0
70.60968,70.70009,58,55,0
70.60968,70.70009,61,55,0
70.70009,70.7905,52,47,0
70.7905,70.8809,58,56,0
70.7905,70.8809,61,56,0
70.8809,70.97187,52,47,0
70.97187,71.06285,58,57,0
70.97187,71.06285,61,57,0
71.06285,71.16962,52,48,0
74.12006,74.21104,58,56,0
74.21104,74.30259,50,46,0
74.30259,74.39453,58,55,0
74.39453,74.48687,50,45,0
74.48687,74.57961,58,55,0
74.57961,74.67275,50,45,0
74.67275,74.7663,58,54,0
74.7663,74.86005,50,45,0
74.86005,74.953186,59,54,0
74.953186,75.045525,50,44,0
75.045525,75.13689,59,54,0
75.13689,75.227486,50,44,0
75.227486,75.31846,59,53,0
75.31846,75.4112,50,44,0
75.4112,75.50454,59,52,0
75.50454,75.608116,50,43,0
75.608116,75.70268,60,52,0
75.70268,75.79684,51,43,0
75.79684,75.89059,60,51,0
75.89059,75.98393,51,42,0
75.98393,76.07788,60,50,0
76.07788,76.17224,51,41,0
76.17224,76.26701,60,50,0
76.26701,76.362206,51,41,0
76.362206,76.45654,57,50,0
76.45654,76.55128,48,40,0
76.55128,76.64662,57,49,0
76.64662,76.74257,48,40,0
76.74257,76.83893,57,48,0
76.83893,76.93591,48,39,0
76.93591,77.03353,57,47,0
77.03353,77.13525,48,39,0
77.13525,77.23222,50,40,0
77.23222,77.329605,53,32,0
77.329605,77.42622,50,40,0
77.42622,77.52191,53,32,0
77.52191,77.61693,50,42,0
77.61693,77.71101,53,34,0
77.71101,77.80445,50,44,0
77.80445,77.89714,53,34,0
77.89714,77.98908,50,44,0
77.98908,78.081024,53,32,0
78.081024,78.17297,50,43,0
78.17297,78.264915,53,35,0
78.264915,78.356865,50,45,0
78.356865,78.44881,53,35,0
78.44881,78.54076,50,46,0
78.54076,78.63285,53,35,0
78.63285,78.72535,50,47,0
78.72535,78.818,53,36,0
78.818,78.911064,50,45,0
78.911064,79.00428,53,34,0
79.00428,79.0979,50,45,0
79.0979,79.19167,53,34,0
79.19167,79.28619,50,45,0
79.28619,79.38242,53,34,0
79.38242,79.47911,56,45,0
79.47911,79.57452,53,36,0
79.57452,79.66888,56,44,0
79.66888,79.762215,53,32,0
79.762215,79.85556,56,44,0
79.85556,79.9489,53,36,0
79.9489,80.04152,56,44,0
80.04152,80.18111,53,35,0
80.18111,80.27523,55,46,0
80.27523,80.36859,51,38,0
80.36859,80.46113,55,48,0
80.46113,80.55308,51,36,0
80.55308,80.64565,55,48,0
80.64565,80.738716,51,40,0
80.738716,80.83241,55,49,0
80.83241,80.92943,51,41,0
80.92943,81.025215,54,49,0
81.025215,81.11914,49,34,0
81.11914,81.212425,54,50,0
81.212425,81.30497,49,35,0
81.30497,81.39822,54,49,0
81.39822,81.4921,49,38,0
81.4921,81.586845,54,48,0
81.586845,81.741936,49,34,0
81.83892,81.9363,48,32,0
81.741936,81.9363,54,51,0
82.03291,82.1286,48,32,0
81.9363,82.1286,54,40,0
82.223625,82.3177,48,33,0
82.1286,82.3177,54,42,0
82.41114,82.503624,48,34,0
82.3177,82.503624,54,43,0
82.59434,82.68429,48,37,0
82.503624,82.68429,53,46,0
82.77481,82.86571,48,32,0
82.68429,82.86571,53,42,0
82.955475,83.04428,48,32,0
82.86571,83.04428,53,40,0
83.13356,83.25407,48,32,0
83.04428,83.25407,53,40,0
83.25407,83.346565,53,40,0
83.346565,83.43922,50,32,0
83.43922,83.53228,53,40,0
83.53228,83.625496,50,32,0
83.625496,83.71912,53,40,0
83.71912,83.81289,50,32,0
83.81289,83.90709,53,40,0
84.050575,84.14882,56,41,0
84.14882,84.24268,53,31,0
84.24268,84.33519,56,40,0
84.33519,84.42682,53,33,0
84.42682,84.51923,56,40,0
84.51923,84.61254,53,34,0
84.61254,84.706505,56,41,0
84.706505,84.84034,53,34,0
84.84034,84.96825,55,45,0
84.936516,85.03125,51,38,0
85.03125,85.12453,55,45,0
85.12453,85.21683,51,35,0
85.21683,85.31042,55,45,0
85.31042,85.40544,51,35,0
85.40544,85.50149,55,47,0
85.50149,85.63766,51,35,0
85.63766,85.76655,54,47,0
85.73448,85.83035,49,33,0
85.83035,85.925255,54,43,0
85.925255,86.01953,49,34,0
86.01953,86.11498,54,42,0
86.11498,86.21194,49,33,0
86.21194,86.309845,54,42,0
86.309845,86.52767,49,33,0
86.62466,86.72204,48,32,0
86.52767,86.72204,54,51,0
86.81866,86.914345,48,31,0
86.72204,86.914345,54,40,0
87.00936,87.10345,48,34,0
86.914345,87.10345,54,44,0
87.19688,87.28937,48,36,0
87.10345,87.28937,54,43,0
87.38007,87.47003,48,36,0
87.28937,87.47003,53,46,0
87.56055,87.65144,48,32,0
87.47003,87.65144,53,41,0
87.74122,87.83002,48,32,0
87.65144,87.83002,53,40,0
87.919304,88.0398,48,32,0
87.83002,88.0398,53,40,0
88.0398,88.16314,53,40,0
88.16314,88.287,50,32,0
88.287,88.41123,53,40,0
88.41123,88.536064,50,32,0
88.536064,88.66143,53,40,0
88.66143,88.83631,50,32,0
88.83631,88.95461,53,45,0
88.95461,89.072914,50,38,0
89.072914,89.191216,53,45,0
89.191216,89.30952,50,38,0
89.30952,89.42782,53,45,0
89.42782,89.54612,50,38,0
89.54612,89.66442,55,45,0
89.66442,89.78272,51,38,0
89.78272,89.901024,55,45,0
89.901024,90.019325,51,38,0
90.019325,90.13763,55,45,0
90.13763,90.25593,51,37,0
90.25593,90.37154,55,48,0
90.37154,90.487144,52,39,0
90.487144,90.60208,55,48,0
90.60208,90.7167,52,41,0
90.7167,90.830986,55,48,0
90.830986,90.94462,52,41,0
90.94462,91.05794,57,48,0
91.05794,91.17093,53,39,0
91.17093,91.28393,57,48,0
91.28393,91.39692,53,41,0
91.39692,91.50991,57,48,0
91.50991,91.62291,53,41,0
92.28589,92.39825,58,50,0
92.39825,92.51061,55,41,0
92.51061,92.62297,58,50,0
92.62297,92.73533,55,43,0
92.73533,92.84769,58,51,0
92.84769,92.960045,55,43,0
93.61222,93.72092,62,53,0
93.72092,93.82961,58,44,0
93.82961,93.93831,62,53,0
93.93831,94.047005,58,45,0
94.047005,94.1557,62,53,0
94.1557,94.2644,58,46,0
94.92374,95.03362,65,56,0
95.03362,95.14352,62,46,0
95.14352,95.25341,65,56,0
95.25341,95.3633,62,48,0
95.3633,95.47319,65,56,0
95.47319,95.58308,62,48,0
96.23173,96.342224,67,56,0
96.342224,96.45272,64,47,0
96.45272,96.56322,67,57,0
96.56322,96.67371,64,49,0
96.67371,96.78421,67,57,0
96.78421,96.89471,64,49,0
97.571144,97.68523,73,59,0
97.571144,97.68523,70,46,0
97.68523,97.7993,64,49,0
97.7993,97.913376,73,59,0
97.7993,97.913376,70,46,0
97.913376,98.02746,64,52,0
98.02746,98.14153,73,59,0
98.02746,98.14153,70,46,0
98.14153,98.25561,64,52,0
98.95255,99.069435,74,59,0
98.95255,99.069435,70,46,0
99.069435,99.18559,65,49,0
99.18559,99.30175,74,58,0
99.18559,99.30175,70,46,0
99.30175,99.41791,65,50,0
99.41791,99.534065,74,57,0
99.41791,99.534065,70,45,0
99.534065,99.65022,65,50,0
100.36451,100.48816,65,55,0
100.36451,100.48816,62,44,0
100.48816,100.61182,58,46,0
100.61182,100.73547,65,54,0
100.61182,100.73547,62,44,0
100.73547,100.85913,58,47,0
100.85913,100.98278,65,54,0
100.85913,100.98278,62,43,0
100.98278,101.10644,58,47,0
102.63266,102.75632,51,48,0
102.63266,102.75632,48,38,0
102.75632,102.87997,41,40,0
102.87997,103.003624,51,48,0
102.87997,103.003624,48,38,0
103.003624,103.12728,41,41,0
103.12728,103.25094,51,48,0
103.12728,103.25094,48,38,0
103.25094,103.37459,41,41,0
103.37459,103.498245,50,45,0
103.498245,103.6219,46,37,0
103.6219,103.74555,50,45,0
103.74555,103.86921,46,36,0
103.86921,103.99287,50,44,0
103.99287,104.11422,46,35,0
104.11422,104.23327,50,44,0
104.23327,104.35231,46,35,0
104.35231,104.47136,50,43,0
104.47136,104.59041,46,35,0
104.59041,104.70946,50,43,0
104.70946,104.82925,46,34,0
104.82925,104.949036,50,42,0
104.949036,105.068825,46,34,0
105.068825,105.188614,50,42,0
105.188614,105.3084,46,34,0
105.3084,105.42894,50,41,0
105.42894,105.549484,46,30,0
105.549484,105.67002,51,41,0
105.67002,105.790565,46,32,0
105.790565,105.9111,51,40,0
105.9111,106.0324,46,30,0
106.0324,106.1537,51,40,0
106.1537,106.275,46,30,0
106.275,106.3963,51,39,0
106.3963,106.5176,45,31,0
106.5176,106.63967,51,39,0
106.63967,106.76174,45,29,0
106.76174,106.88381,51,38,0
106.88381,107.00588,45,29,0
107.00588,107.12795,51,38,0
107.12795,107.25081,45,29,0
107.25081,107.37366,51,37,0
107.37366,107.496506,45,29,0
107.496506,107.619354,51,37,0
107.619354,107.74027,45,29,0
107.74027,107.86158,51,39,0
107.86158,107.98288,46,32,0
107.98288,108.10418,51,39,0
108.10418,108.22548,46,32,0
108.22548,108.34678,51,38,0
108.34678,108.46808,46,28,0
108.46808,108.59015,51,38,0
108.59015,108.71222,46,30,0
108.71222,108.83429,51,37,0
108.83429,108.95636,46,28,0
108.95636,109.07843,51,37,0
109.07843,109.2005,46,28,0
109.2005,109.32335,50,36,0
109.32335,109.4462,46,29,0
109.4462,109.56905,50,36,0
109.56905,109.6919,46,27,0
109.6919,109.81475,50,36,0
109.81475,109.9376,46,27,0
109.9376,110.06126,50,36,0
110.06126,110.18491,46,27,0
110.18491,110.30856,50,35,0
110.30856,110.43222,46,27,0
110.43222,110.55588,50,35,0
110.55588,110.679535,46,27,0
110.679535,110.803986,48,50,0
110.803986,110.928444,45,42,0
110.928444,111.052895,48,50,0
111.052895,111.17735,45,44,0
111.17735,111.30181,48,51,0
111.30181,111.42626,45,45,0
111.42626,111.55614,48,52,0
111.55614,111.686005,45,46,0
111.686005,111.81587,48,53,0
111.81587,111.95999,45,46,0
111.95999,112.1041,48,54,0
112.1041,112.24324,45,47,0
114.401054,114.52376,47,64,0
114.52376,114.646454,55,55,0
114.646454,114.76916,47,63,0
114.76916,114.89185,55,53,0
114.89185,115.01456,47,63,0
115.01456,115.13725,55,55,0
115.13725,115.25995,48,63,0
115.25995,115.38265,57,55,0
115.38265,115.50535,48,63,0
115.50535,115.62805,57,53,0
115.62805,115.75075,48,62,0
115.75075,115.87345,57,53,0
115.87345,116.00123,50,62,0
116.00123,116.129005,59,54,0
116.129005,116.25678,50,63,0
116.25678,116.38457,59,57,0
116.38457,116.512344,50,64,0
116.512344,116.64012,59,59,0
116.64012,116.76219,51,67,0
116.76219,116.88426,60,54,0
116.88426,117.00633,51,60,0
117.00633,117.1284,60,52,0
117.1284,117.25047,51,60,0
117.25047,117.37254,60,52,0
117.37254,117.49781,53,59,0
117.49781,117.62308,62,53,0
117.62308,117.748344,53,58,0
117.748344,117.87361,62,51,0
117.87361,117.99888,53,58,0
117.99888,118.124146,62,51,0
118.124146,118.24941,55,57,0
118.24941,118.37467,63,51,0
118.37467,118.49994,55,56,0
118.49994,118.625206,63,50,0
118.625206,118.75047,55,57,0
118.75047,118.87574,63,51,0
123.34581,123.45532,56,54,0
123.45532,123.56484,53,60,0
123.56484,123.67132,56,54,0
123.67132,123.77779,53,60,0
123.77779,123.88426,56,54,0
123.99074,124.097206,55,52,0
124.097206,124.20368,51,57,0
124.20368,124.31016,55,53,0
124.31016,124.41663,51,57,0
124.41663,124.52339,55,54,0
124.62921,124.73489,53,56,0
124.73489,124.84016,44,61,0
124.84016,124.94528,53,55,0
124.94528,125.049995,44,61,0
125.049995,125.15457,53,61,0
125.258736,125.36277,51,54,0
125.36277,125.46639,43,60,0
125.46639,125.569885,51,56,0
125.569885,125.67298,43,61,0
125.67298,125.77594,51,55,0
125.87851,125.98107,50,58,0
125.98107,126.083374,41,63,0
126.083374,126.18542,50,57,0
126.18542,126.28745,41,63,0
126.28745,126.38898,50,56,0
126.4905,126.591896,48,59,0
126.591896,126.69291,39,63,0
126.69291,126.793915,48,60,0
126.793915,126.89455,39,64,0
126.89455,126.99505,48,59,0
127.09555,127.19555,47,60,0
127.19555,127.29555,38,65,0
127.29555,127.3953,47,59,0
127.3953,127.494804,38,64,0
127.494804,127.59431,47,62,0
127.59431,127.69331,39,75,0
127.69331,127.79581,48,62,0
127.79581,127.8983,39,66,0
127.8983,128.00024,48,61,0
128.00024,128.10165,39,65,0
128.10165,128.20334,48,61,0
128.20334,128.30528,40,77,0
128.30528,128.4086,46,63,0
128.4086,128.51451,40,67,0
128.51451,128.6449,46,63,0
128.4086,128.6449,34,67,0
128.6449,128.77527,40,66,0
128.77527,128.8965,46,63,0
128.6449,128.8965,34,67,0
131.01292,131.13737,49,64,0
131.13737,131.26183,57,55,0
131.26183,131.38629,49,63,0
131.38629,131.51074,57,53,0
131.51074,131.6352,49,63,0
131.6352,131.75966,57,55,0
131.75966,131.8816,50,63,0
131.8816,132.00356,59,55,0
132.00356,132.1255,50,63,0
132.1255,132.24745,59,53,0
132.24745,132.36942,50,62,0
132.36942,132.49136,59,53,0
132.49136,132.61914,52,62,0
132.61914,132.74692,61,54,0
132.74692,132.8747,52,61,0
132.8747,133.00247,61,53,0
133.00247,133.13025,52,62,0
133.13025,133.25804,61,54,0
133.25804,133.37779,53,65,0
133.37779,133.49756,62,55,0
133.49756,133.61731,53,60,0
133.61731,133.73708,62,52,0
133.73708,133.85684,53,60,0
133.85684,133.9766,62,52,0
133.9766,134.10005,55,59,0
134.10005,134.22351,64,53,0
134.22351,134.34697,55,58,0
134.34697,134.47043,64,51,0
134.47043,134.59389,55,58,0
134.59389,134.71733,64,51,0
134.71733,134.84157,57,57,0
134.84157,134.96579,65,51,0
134.96579,135.09001,57,56,0
135.09001,135.21423,65,50,0
135.21423,135.33846,57,57,0
135.33846,135.46268,65,51,0
139.94951,140.05902,58,54,0
140.05902,140.16853,55,60,0
140.16853,140.27501,58,53,0
140.27501,140.38148,55,60,0
140.38148,140.48796,58,54,0
140.59444,140.7009,57,52,0
140.7009,140.80737,53,57,0
140.80737,140.91385,57,51,0
140.91385,141.02032,53,57,0
141.02032,141.1277,57,53,0
141.23508,141.34155,55,55,0
141.34155,141.44803,46,61,0
141.44803,141.5545,55,54,0
141.5545,141.66039,46,61,0
141.66039,141.76628,55,54,0
141.87216,141.97748,53,54,0
141.97748,142.08278,45,60,0
142.08278,142.1881,53,54,0
142.1881,142.2931,45,61,0
142.2931,142.39784,53,55,0
142.50258,142.60703,52,57,0
142.60703,142.71118,43,63,0
142.71118,142.81534,52,56,0
142.81534,142.9195,43,63,0
142.9195,143.02309,52,57,0
143.12668,143.23027,50,58,0
143.23027,143.33331,41,63,0
143.33331,143.43636,50,58,0
143.43636,143.5394,41,64,0
143.5394,143.64215,50,60,0
143.74464,143.84714,49,61,0
143.84714,143.94936,40,65,0
143.94936,144.0513,49,59,0
144.0513,144.15324,40,64,0
144.15324,144.25493,49,60,0
144.25493,144.35634,41,64,0
144.25493,144.35634,45,75,0
144.35634,144.45883,50,63,0
144.45883,144.56133,41,66,0
144.45883,144.56133,38,57,0
144.45883,144.56133,45,57,0
144.56133,144.66327,50,62,0
144.66327,144.76468,41,65,0
144.66327,144.76468,38,63,0
144.66327,144.76468,45,63,0
144.76468,144.86636,50,62,0
144.86636,144.9683,40,77,0
144.86636,144.9683,45,77,0
144.9683,145.07162,49,63,0
145.07162,145.17754,40,67,0
145.07162,145.17754,37,67,0
145.07162,145.17754,45,67,0
145.17754,145.30792,49,62,0
145.30792,145.4383,45,66,0
145.30792,145.4383,37,67,0
145.30792,145.4383,40,66,0
145.4383,145.5981,49,63,0
149.66827,149.83008,56,76,0
149.99187,150.15958,40,63,0
150.32729,150.47282,60,74,0
150.61836,150.77919,52,63,0
150.94003,151.09033,59,75,0
151.24063,151.40147,40,64,0
151.56232,151.71771,58,75,0
151.87311,152.0349,52,64,0
152.19669,152.35297,57,77,0
152.19669,152.35297,51,77,0
152.50923,152.67197,40,64,0
152.83472,152.99188,56,80,0
152.83472,152.99188,52,67,0
157.57127,157.73308,57,73,0
157.89487,158.06258,41,63,0
158.23029,158.38309,61,76,0
158.53589,158.69672,53,63,0
158.85756,159.01208,60,72,0
159.16663,159.32745,41,64,0
159.4883,159.64369,59,72,0
159.79909,159.96088,53,64,0
160.12268,160.27895,58,72,0
160.12268,160.27895,52,62,0
160.43521,160.59795,41,64,0
160.7607,160.91786,57,72,0
160.7607,160.91786,53,62,0
165.45395,165.60425,55,72,0
165.75455,165.91634,43,63,0
166.07814,166.2268,62,72,0
166.07814,166.2268,59,63,0
166.37549,166.53633,47,63,0
166.69717,166.84747,60,72,0
166.99777,167.15862,48,64,0
167.31946,167.46498,58,72,0
167.61052,167.76,46,64,0
167.90947,168.05977,60,72,0
167.90947,168.05977,57,62,0
168.21007,168.36905,45,64,0
168.52803,168.68083,57,72,0
168.52803,168.68083,55,62,0
168.83363,168.99637,43,64,0
169.15756,169.30386,53,72,0
169.45016,169.60127,41,63,0
169.7524,169.90187,60,72,0
169.7524,169.90187,57,63,0
170.05135,170.205,45,63,0
170.35866,170.50342,58,72,0
170.64818,170.79686,46,64,0
170.94554,171.09502,57,72,0
171.24449,171.40166,45,64,0
171.55882,171.70912,58,72,0
171.55882,171.70912,55,62,0
171.85942,172.0175,43,64,0
172.17558,172.32755,57,72,0
172.17558,172.32755,53,62,0
172.47949,172.64224,41,64,0
172.80344,172.9513,51,72,0
173.09917,173.25113,39,63,0
173.40309,173.55017,58,72,0
173.40309,173.55017,55,63,0
173.69724,173.84836,43,63,0
173.99948,174.14577,57,72,0
174.29207,174.44487,45,64,0
174.59766,174.74878,55,72,0
174.8999,175.05707,43,64,0
175.21423,175.36453,57,72,0
175.21423,175.36453,54,62,0
175.51483,175.672,42,64,0
175.82916,175.98029,55,72,0
175.82916,175.98029,51,62,0
176.13141,176.29414,39,64,0
176.45534,176.60646,50,72,0
176.75757,176.91565,38,63,0
177.07373,177.22403,57,72,0
177.07373,177.22403,54,63,0
177.37433,177.53517,42,63,0
177.69601,177.85054,55,72,0
178.00507,178.16591,43,64,0
178.32675,178.48213,57,72,0
178.32675,178.48213,53,70,0
178.63753,178.79933,41,64,0
178.96112,179.11739,55,72,0
178.96112,179.11739,51,62,0
179.27365,179.4364,39,64,0
179.59914,179.7563,55,72,0
179.59914,179.7563,51,62,0
237.00154,237.11562,58,45,0
237.11562,237.22969,55,39,0
237.22969,237.34377,58,44,0
237.34377,237.45784,55,41,0
237.45784,237.57191,58,49,0
237.57191,237.68541,55,46,0
237.68541,237.79715,59,53,0
237.79715,237.90857,55,47,0
237.90857,238.01967,59,53,0
238.01967,238.13017,55,50,0
238.13017,238.24037,59,54,0
238.24037,238.35056,55,50,0
238.35056,238.46106,60,59,0
238.46106,238.5711,55,52,0
238.5711,238.68085,60,54,0
238.68085,238.79013,55,45,0
238.79013,238.89912,60,51,0
238.89912,239.00781,55,44,0
239.00781,239.11592,60,64,0
239.11592,239.22403,55,50,0
239.22403,239.33214,60,60,0
239.33214,239.44025,55,50,0
239.44025,239.55653,60,56,0
239.68098,239.79114,63,63,0
239.79114,239.90128,60,48,0
239.90128,240.01141,63,56,0
240.01141,240.12157,60,48,0
240.12157,240.2317,63,54,0
240.2317,240.34186,60,45,0
240.34186,240.452,63,52,0
240.452,240.56215,60,39,0
240.56215,240.67229,63,47,0
240.67229,240.78569,60,38,0
240.78569,240.8991,63,45,0
240.8991,241.0125,60,37,0
239.68098,241.0125,57,51,0
239.55653,241.0125,55,46,0
241.0125,241.12657,58,45,0
241.12657,241.24065,55,39,0
241.24065,241.35474,58,44,0
241.35474,241.46881,55,41,0
241.46881,241.58289,58,49,0
241.58289,241.69696,55,46,0
241.69696,241.80878,59,53,0
241.80878,241.9202,55,47,0
241.9202,242.03116,59,53,0
242.03116,242.14151,55,50,0
242.14151,242.2514,59,54,0
242.2514,242.36069,55,50,0
242.36069,242.46997,60,59,0
242.46997,242.57927,55,52,0
242.57927,242.68796,60,54,0
242.68796,242.79666,55,45,0
242.79666,242.90477,60,51,0
242.90477,243.01288,55,44,0
243.01288,243.1204,60,64,0
243.1204,243.22792,55,50,0
243.22792,243.33545,60,60,0
243.33545,243.44298,55,50,0
243.44298,243.55898,60,56,0
243.68343,243.79358,57,63,0
243.79358,243.90372,60,48,0
243.90372,244.01385,57,56,0
244.01385,244.12401,60,48,0
244.12401,244.23415,57,54,0
244.23415,244.3443,60,45,0
244.3443,244.45444,57,52,0
244.45444,244.56458,60,39,0
244.56458,244.67473,57,47,0
244.67473,244.78813,60,38,0
244.78813,244.90154,57,45,0
244.90154,245.01494,60,37,0
243.55898,245.01494,55,46,0
245.01494,245.13252,46,45,0
245.13252,245.25009,43,39,0
245.25009,245.36768,46,44,0
245.36768,245.48524,43,41,0
245.48524,245.60283,46,49,0
245.60283,245.72041,43,46,0
245.72041,245.83586,47,53,0
245.83586,245.95132,43,47,0
245.95132,246.06679,47,53,0
246.06679,246.18225,43,50,0
246.18225,246.29771,47,54,0
246.29771,246.41316,43,50,0
246.41316,246.52591,52,59,0
246.52591,246.63832,43,52,0
246.63832,246.7504,52,54,0
246.7504,246.86183,43,46,0
246.86183,246.97295,52,52,0
246.97295,247.08372,43,45,0
247.08372,247.1945,52,52,0
247.1945,247.30528,43,41,0
247.30528,247.41606,52,50,0
247.41606,247.52684,43,43,0
247.52684,247.63762,52,50,0
247.63762,247.7484,43,41,0
247.7484,247.86314,51,57,0
247.86314,247.9779,43,45,0
247.9779,248.09267,51,53,0
248.09267,248.20743,43,46,0
248.20743,248.32217,51,54,0
248.32217,248.43694,43,45,0
248.43694,248.55598,51,54,0
248.55598,248.67503,43,42,0
248.67503,248.79408,51,52,0
248.79408,248.91313,43,42,0
248.91313,249.03218,51,51,0
249.03218,249.19746,43,44,0
