start_time,end_time,note_value,velocity,instrument_program_number
1.1341883,1.3063155,61,77,0
1.312251,3.436423,61,85,0
3.436423,3.6096132,61,73,0
3.6096132,3.73908,59,70,0
3.73908,3.8935437,61,68,0
3.8935437,6.1745353,59,77,0
6.1745353,6.3414803,61,64,0
6.3414803,6.4940133,64,70,0
6.4940133,6.650347,62,66,0
6.650347,6.8437366,61,66,0
6.8613176,9.018389,61,79,0
8.891388,9.018389,61,73,0
9.018389,9.166669,59,70,0
9.166669,9.342292,61,68,0
9.342292,11.449693,59,81,0
11.453322,11.596215,57,62,0
11.646308,11.800438,56,67,0
11.800438,11.981952,59,59,0
11.981952,12.166059,57,63,0
12.166059,12.367513,56,66,0
12.372426,15.225421,56,75,0
14.997587,15.225421,56,46,0
15.229282,17.69904,56,54,0
17.703175,17.864222,57,48,0
17.917604,18.111105,56,47,0
18.111105,18.296919,59,53,0
18.296919,18.530222,57,47,0
18.530222,18.804344,56,44,0
18.81805,24.25215,56,60,0
31.397503,31.48226,56,48,0
31.499212,31.58397,56,48,0
31.60092,31.918447,61,58,0
32.730515,33.263943,56,48,0
32.730515,33.263943,52,48,0
32.730515,33.9892,61,60,0
33.9892,34.220898,60,48,0
34.220898,34.46785,61,58,0
34.46785,34.561905,63,62,0
34.655964,34.90705,64,65,0
34.608932,35.15814,57,52,0
34.90705,35.15814,57,55,0
34.561905,35.15814,54,52,0
35.15814,35.409225,64,61,0
35.409225,35.65823,63,48,0
35.65823,36.444393,61,62,0
36.444393,36.530857,61,54,0
36.530857,36.617325,63,54,0
36.617325,37.18875,56,47,0
36.617325,37.18875,52,47,0
36.617325,37.47447,61,59,0
37.47447,37.655758,60,55,0
38.661377,39.214474,56,47,0
38.661377,39.214474,52,47,0
37.655758,39.491024,61,62,0
39.491024,39.675663,63,60,0
39.675663,39.99319,64,63,0
40.805256,41.313732,59,48,0
40.805256,41.313732,56,48,0
40.805256,42.04202,64,66,0
42.04202,42.27019,63,52,0
42.27019,42.51409,64,63,0
42.51409,42.7022,66,68,0
42.7022,42.938423,68,71,0
42.938423,43.174644,63,60,0
42.7022,43.174644,59,52,0
42.7022,43.174644,57,52,0
43.174644,43.410866,68,67,0
43.410866,43.65987,66,52,0
43.65987,44.446033,64,68,0
44.446033,44.532497,64,56,0
44.532497,44.61896,66,56,0
44.61896,45.18245,59,47,0
44.61896,45.18245,56,47,0
44.61896,45.46419,64,64,0
45.46419,45.64548,63,60,0
45.64548,46.521954,64,68,0
46.521954,47.07505,54,37,0
46.521954,47.07505,56,37,0
46.521954,47.07505,60,47,0
46.521954,47.3516,64,57,0
47.3516,47.523067,63,60,0
47.523067,47.578674,56,35,0
47.550873,47.606476,61,37,0
47.578674,47.634277,64,40,0
46.521954,47.634277,68,67,0
47.606476,47.634277,68,42,0
47.634277,48.177364,73,77,0
48.625916,49.07455,64,55,0
48.625916,49.07455,68,55,0
48.625916,49.734447,61,55,0
48.625916,49.734447,73,69,0
49.734447,49.964367,60,48,0
49.734447,49.964367,72,57,0
49.964367,50.174335,61,58,0
49.964367,50.174335,73,69,0
50.174335,50.37186,75,73,0
50.174335,50.37186,63,62,0
50.37186,50.586327,76,77,0
50.37186,50.586327,64,65,0
50.586327,50.819103,69,67,0
50.819103,51.036682,76,74,0
50.819103,51.036682,64,62,0
51.036682,51.31477,75,58,0
51.036682,51.31477,63,49,0
51.31477,52.049583,73,72,0
51.31477,52.049583,61,61,0
52.049583,52.13605,73,64,0
52.13605,52.222515,75,64,0
52.222515,52.722515,68,61,0
52.222515,52.972515,61,61,0
52.222515,52.972515,73,72,0
52.972515,53.153805,60,52,0
52.972515,53.153805,72,62,0
54.030277,54.583374,68,67,0
54.030277,54.583374,64,56,0
53.153805,54.859924,61,59,0
53.153805,54.859924,73,70,0
54.859924,55.044563,64,62,0
54.859924,55.044563,68,62,0
54.859924,55.044563,76,74,0
54.859924,55.044563,71,62,0
55.044563,55.324936,68,71,0
55.044563,55.324936,71,71,0
55.044563,55.324936,80,84,0
56.062695,57.12955,68,86,0
57.12955,57.306023,68,60,0
57.306023,57.482494,67,54,0
57.482494,57.658962,68,54,0
57.658962,57.7604,67,53,0
57.7604,57.857967,64,55,0
57.857967,57.95267,67,57,0
57.95267,58.04484,68,59,0
58.04484,58.13427,70,61,0
58.13427,58.221733,71,63,0
58.221733,58.308567,73,64,0
58.308567,58.3948,75,66,0
58.3948,58.480465,76,68,0
58.480465,58.56562,79,70,0
58.56562,58.650196,80,72,0
58.650196,58.734207,82,74,0
58.734207,58.817753,83,76,0
58.817753,58.900738,85,81,0
58.900738,58.983273,87,84,0
58.983273,59.065193,88,87,0
59.065193,59.146782,87,83,0
59.146782,59.228996,85,81,0
59.228996,59.312008,83,80,0
59.312008,59.3956,82,78,0
59.3956,59.48001,80,77,0
59.48001,59.570374,79,75,0
59.570374,59.651695,83,80,0
59.651695,59.733955,82,78,0
59.733955,59.817337,80,75,0
59.817337,59.901917,79,73,0
59.901917,59.987682,76,70,0
59.987682,60.074364,75,68,0
60.074364,60.167587,73,65,0
60.167587,60.251717,76,71,0
60.251717,60.336994,75,67,0
60.336994,60.423252,73,63,0
60.423252,60.510796,71,58,0
60.510796,60.59903,70,54,0
60.59903,60.69609,68,50,0
60.69609,60.787003,67,46,0
60.787003,60.87791,68,42,0
60.87791,60.96882,67,46,0
60.96882,61.05973,64,34,0
61.05973,61.1784,67,33,0
61.1784,61.387577,71,38,0
61.387577,61.46481,71,34,0
61.490387,61.566574,71,30,0
61.59181,61.66711,71,34,0
61.692112,61.791252,71,28,0
61.791252,63.311684,71,36,0
63.311684,63.470448,70,30,0
63.470448,64.28126,68,42,0
64.28126,64.36772,68,35,0
64.36772,64.45419,70,35,0
64.45419,65.01768,59,28,0
64.45419,65.01768,63,28,0
64.45419,65.299416,68,39,0
65.299416,65.48071,67,37,0
65.48071,66.66015,68,35,0
66.66015,67.51729,59,23,0
66.66015,67.51729,63,23,0
67.94586,68.07187,68,41,0
68.09707,68.2777,68,41,0
68.313835,68.63136,76,45,0
68.313835,68.63136,80,54,0
69.35492,69.93227,71,48,0
69.44343,70.650566,80,57,0
69.39918,70.650566,76,48,0
70.650566,70.900566,75,40,0
70.650566,70.900566,78,48,0
70.900566,71.12829,76,43,0
70.900566,71.12829,80,51,0
71.12829,71.370224,81,53,0
71.12829,71.370224,78,45,0
71.370224,71.594536,83,56,0
71.370224,71.594536,80,47,0
71.594536,71.83454,71,42,0
71.594536,71.83454,76,50,0
71.83454,72.05842,81,55,0
71.83454,72.05842,78,46,0
72.05842,72.30232,76,41,0
72.05842,72.30232,80,49,0
72.30232,72.56842,75,45,0
72.30232,72.56842,78,54,0
73.10062,73.15962,78,48,0
73.15962,73.21863,78,44,0
73.2201,73.27973,80,44,0
73.27763,73.52973,78,57,0
73.27763,73.52973,75,48,0
74.15998,74.28603,74,46,0
74.15998,74.28603,77,51,0
74.28603,74.57522,78,54,0
74.28603,74.57522,75,45,0
75.3306,76.36899,75,48,0
75.3306,76.36899,68,48,0
75.3306,76.36899,80,61,0
76.36899,76.66386,76,54,0
76.36899,76.66386,73,45,0
77.3421,77.89667,68,48,0
77.43061,78.595276,76,57,0
77.38635,78.595276,73,48,0
78.595276,78.845276,75,48,0
78.595276,78.845276,72,40,0
78.845276,79.07474,73,43,0
78.845276,79.07474,76,51,0
79.07474,79.19571,75,45,0
79.07474,79.19571,78,53,0
79.19571,79.256195,73,40,0
79.19571,79.256195,76,47,0
79.256195,79.31667,78,47,0
79.256195,79.31667,75,40,0
79.31667,79.53933,76,47,0
79.31667,79.53933,80,56,0
79.659325,79.77933,73,50,0
79.659325,79.77933,68,42,0
79.77933,80.001976,78,55,0
79.77933,80.001976,75,46,0
80.001976,80.24588,73,41,0
80.001976,80.24588,76,49,0
80.24588,80.52111,75,54,0
80.24588,80.52111,72,45,0
81.07157,81.13057,75,48,0
81.13057,81.189575,75,44,0
81.191055,81.25068,76,44,0
81.24858,81.50068,72,48,0
81.24858,81.50068,75,57,0
82.130936,82.25698,70,46,0
82.130936,82.25698,73,51,0
82.25698,83.42425,72,45,0
82.25698,83.42425,75,54,0
84.22036,84.35266,75,42,0
84.37912,84.462746,75,42,0
84.62168,85.19894,75,54,0
84.47947,85.29069,80,42,0
85.2601,85.32127,72,35,0
85.19894,85.38244,68,44,0
85.38244,85.91036,72,52,0
85.91036,85.99167,73,36,0
85.96457,86.018776,75,44,0
85.32127,86.018776,80,35,0
86.07298,86.60091,75,54,0
86.654816,86.70873,76,36,0
86.018776,86.70873,80,36,0
86.60091,86.76265,78,46,0
86.76265,87.290565,76,53,0
87.34537,87.40017,73,38,0
86.70873,87.40017,80,36,0
87.290565,87.45497,75,49,0
87.45497,87.99573,73,54,0
88.05114,88.106544,73,37,0
87.40017,88.106544,80,37,0
87.99573,88.16195,68,46,0
88.16195,88.68987,73,53,0
88.74438,88.798874,76,37,0
88.106544,88.798874,80,37,0
88.68987,88.85338,75,49,0
88.85338,89.3813,76,54,0
88.798874,89.436104,80,37,0
89.3813,89.436104,80,46,0
89.436104,89.4909,78,36,0
89.4909,89.5457,80,36,0
89.5457,90.07362,78,53,0
90.128426,90.18322,75,38,0
90.07362,90.23802,76,49,0
90.47266,90.52939,68,38,0
90.18322,90.52939,80,38,0
90.23802,90.58418,75,54,0
90.81344,90.86949,72,38,0
90.52939,90.86949,80,38,0
90.58418,90.92429,68,46,0
91.15893,91.21596,73,38,0
90.86949,91.21596,80,38,0
90.92429,91.27137,72,53,0
91.506,91.56258,75,37,0
91.21596,91.56258,80,38,0
91.27137,91.61708,73,49,0
91.84766,91.90403,78,36,0
91.56258,91.90403,80,37,0
91.61708,91.95913,75,54,0
92.189705,92.245926,76,36,0
91.90403,92.245926,80,36,0
91.95913,92.30073,78,46,0
92.53674,92.593796,75,38,0
92.245926,92.593796,80,40,0
92.30073,92.648895,76,53,0
92.648895,93.002716,75,49,0
92.593796,93.002716,80,38,0
93.002716,93.0906,80,44,0
93.0906,93.17797,81,39,0
93.17797,93.26494,80,44,0
93.26494,93.3514,81,39,0
93.002716,93.3514,73,54,0
93.3514,93.43737,80,44,0
93.43737,93.52285,81,39,0
93.52285,93.60795,80,44,0
93.60795,93.69256,81,39,0
93.69256,93.77469,80,44,0
93.77469,93.85754,81,39,0
93.85754,93.94134,80,44,0
93.94134,94.02322,81,39,0
93.69256,94.02322,73,53,0
94.02322,94.10648,80,44,0
94.10648,94.187386,81,39,0
94.187386,94.26889,80,44,0
94.26889,94.35161,81,39,0
94.187386,94.35161,75,49,0
94.35161,94.432945,80,44,0
94.432945,94.51598,81,39,0
94.51598,94.60049,80,44,0
94.60049,94.68203,81,39,0
94.35161,94.68203,76,50,0
94.68203,94.764,80,60,0
94.764,94.84685,81,39,0
94.84685,94.92928,80,44,0
94.92928,95.01217,81,39,0
95.01217,95.09349,80,44,0
95.09349,95.17538,81,39,0
95.17538,95.258415,80,44,0
95.258415,95.33988,81,39,0
95.01217,95.33988,85,65,0
95.33988,95.4237,80,44,0
95.4237,95.50622,81,39,0
95.50622,95.593185,80,44,0
95.593185,95.68091,81,39,0
95.33988,95.68091,88,66,0
95.68091,95.74914,80,59,0
95.74914,95.81679,87,42,0
95.81679,95.88374,92,51,0
95.88374,95.95002,87,45,0
95.95002,95.99936,80,39,0
96.015785,96.079895,80,58,0
96.101265,96.186745,80,40,0
96.186745,96.272224,92,51,0
96.272224,96.357704,80,40,0
96.44128,96.52485,92,52,0
96.357704,96.52485,84,65,0
96.52485,96.60843,87,41,0
96.60843,96.69199,84,41,0
96.77499,96.85717,92,49,0
96.69199,96.85717,85,61,0
96.85717,96.93869,85,39,0
96.93869,97.020355,80,39,0
97.020355,97.10347,87,63,0
97.10347,97.18658,92,51,0
97.18658,97.26969,87,41,0
97.26969,97.3528,80,41,0
97.3528,97.43591,90,58,0
97.43591,97.51903,92,48,0
97.51903,97.602135,90,41,0
97.602135,97.68525,80,41,0
97.68525,97.77024,88,63,0
97.77024,97.85524,92,49,0
97.85524,97.94023,88,40,0
97.94023,98.02523,80,40,0
98.02523,98.108345,87,60,0
98.108345,98.19145,92,48,0
98.19145,98.27457,87,41,0
98.27457,98.33763,80,41,0
98.35963,98.42856,80,65,0
98.42856,98.496086,85,42,0
98.496086,98.56281,92,51,0
98.56281,98.61232,85,45,0
98.62876,98.67766,80,39,0
98.69383,98.75794,80,58,0
98.77931,98.86479,80,40,0
98.86479,98.95027,92,51,0
98.95027,99.03575,80,40,0
99.1198,99.20384,92,52,0
99.03575,99.20384,85,65,0
99.20384,99.28788,85,41,0
99.28788,99.371925,80,41,0
99.455956,99.539055,92,49,0
99.371925,99.539055,87,63,0
99.539055,99.62135,87,39,0
99.62135,99.70287,80,39,0
99.70287,99.78599,88,64,0
99.78599,99.8691,92,51,0
99.8691,99.95221,88,41,0
99.95221,100.035324,80,41,0
100.035324,100.11843,92,53,0
100.11843,100.201546,80,44,0
100.201546,100.28466,92,51,0
100.28466,100.36777,80,41,0
100.36777,100.45277,90,63,0
100.45277,100.53776,92,49,0
100.53776,100.62276,90,40,0
100.62276,100.70775,80,40,0
100.70775,100.79574,88,63,0
100.79574,100.88373,92,48,0
100.88373,100.97171,88,41,0
100.97171,101.0597,80,41,0
101.0597,101.12793,87,64,0
101.12793,101.19557,92,46,0
101.19557,101.262535,93,51,0
101.262535,101.32881,92,45,0
101.32881,101.39458,87,39,0
101.39458,101.46296,80,63,0
101.46296,101.53134,92,46,0
101.53134,101.599724,93,52,0
101.599724,101.668106,92,46,0
101.668106,101.736496,80,40,0
101.736496,101.80335,84,60,0
101.80335,101.87022,92,47,0
101.87022,101.93707,93,53,0
101.93707,102.00393,92,46,0
102.00393,102.070786,80,40,0
102.070786,102.137245,85,61,0
102.137245,102.2032,92,48,0
102.2032,102.26866,93,54,0
102.26866,102.33365,92,47,0
102.33365,102.39915,80,41,0
102.39915,102.46738,87,66,0
102.46738,102.53502,92,49,0
102.53502,102.60198,93,55,0
102.60198,102.66826,92,48,0
102.66826,102.73402,80,42,0
102.73402,102.799065,90,64,0
102.799065,102.86411,92,50,0
102.86411,102.92916,93,56,0
102.92916,102.99421,92,49,0
102.99421,103.05926,80,42,0
103.05926,103.12612,88,65,0
103.12612,103.19298,92,51,0
103.19298,103.259834,93,57,0
103.259834,103.3267,92,50,0
103.3267,103.39355,80,43,0
103.39355,103.46001,87,66,0
103.46001,103.52596,92,51,0
103.52596,103.59143,93,57,0
103.59143,103.65642,92,51,0
103.65642,103.72191,80,44,0
103.72191,103.80979,92,55,0
103.80979,103.89716,93,48,0
103.89716,103.98413,92,55,0
103.98413,104.070595,93,48,0
103.72191,104.070595,85,67,0
104.070595,104.15657,92,55,0
104.15657,104.24205,93,48,0
104.24205,104.32714,92,55,0
104.32714,104.41175,93,48,0
104.41175,104.49388,92,55,0
104.49388,104.57673,93,48,0
104.57673,104.66054,92,55,0
104.66054,104.74241,93,48,0
104.41175,104.74241,85,66,0
104.74241,104.825676,92,55,0
104.825676,104.90658,93,48,0
104.90658,104.98808,92,55,0
104.98808,105.0708,93,48,0
104.90658,105.0708,84,60,0
105.0708,105.15214,92,55,0
105.15214,105.235176,93,48,0
105.235176,105.31968,92,55,0
105.31968,105.40122,93,48,0
105.40122,105.4832,92,58,0
105.4832,105.5662,93,48,0
105.5662,105.6563,92,55,0
105.6563,105.74973,93,48,0
105.0708,105.74973,85,63,0
105.74973,105.81234,88,52,0
105.81234,105.871445,92,47,0
105.871445,105.930595,100,54,0
105.930595,105.99049,99,51,0
105.98912,106.04952,97,49,0
106.04952,106.11037,92,47,0
106.11037,106.171875,88,45,0
106.171875,106.233955,87,42,0
106.233955,106.2965,85,40,0
106.295074,106.35817,80,38,0
106.35817,106.418076,76,41,0
106.418076,106.50063,75,53,0
106.663055,106.742966,76,37,0
106.742966,106.82286,78,47,0
106.98151,107.06036,80,43,0
107.06036,107.13901,81,51,0
107.29629,107.37493,80,42,0
107.37493,107.45357,83,51,0
107.610855,107.68949,81,46,0
107.68949,107.8602,80,54,0
108.01425,108.168304,80,55,0
107.937225,108.168304,68,51,0
108.32236,108.47641,80,58,0
108.24533,108.47641,70,53,0
108.630455,108.78451,80,60,0
108.55344,108.78451,72,55,0
108.875565,108.92109,73,37,0
108.92109,108.96661,75,37,0
108.96661,109.044846,73,50,0
109.20131,109.27954,72,37,0
109.27954,109.3586,73,48,0
109.51671,109.55624,75,39,0
109.55624,109.576,76,34,0
109.576,109.595665,78,35,0
109.595665,109.67431,76,51,0
109.83159,109.91023,75,42,0
109.91023,109.99013,76,53,0
110.153946,110.23787,78,42,0
110.23787,110.316505,79,55,0
110.47346,110.55168,80,45,0
110.55168,110.629585,81,54,0
110.784904,110.862305,80,48,0
110.862305,110.94013,78,55,0
111.09578,111.17361,76,42,0
111.17361,111.2625,80,52,0
111.17361,111.2625,75,52,0
111.440285,111.48473,73,42,0
111.52918,111.60824,87,57,0
111.76635,111.845406,88,55,0
111.845406,111.922035,90,62,0
112.0753,112.15193,92,55,0
111.48473,112.15193,72,49,0
112.15193,112.22866,93,61,0
112.38361,112.461945,92,49,0
112.461945,112.540794,95,57,0
112.700165,112.78071,93,51,0
112.78071,112.95239,92,60,0
113.12408,113.28938,80,58,0
113.03823,113.28938,68,51,0
113.45469,113.62964,82,62,0
113.45469,113.62964,80,62,0
113.37204,113.62964,70,53,0
113.80459,113.99631,80,65,0
113.80459,113.99631,84,65,0
113.71711,113.99631,72,55,0
114.09216,114.17424,73,61,0
114.17424,114.25631,80,55,0
114.25631,114.33839,87,66,0
114.33839,114.43231,85,62,0
114.43231,114.52535,87,40,0
114.52535,114.61505,85,50,0
114.61505,114.701645,87,40,0
114.701645,114.786995,85,49,0
114.786995,114.87187,87,40,0
114.87187,114.95626,85,47,0
114.95626,115.040184,87,39,0
115.040184,115.123634,85,47,0
115.123634,115.20663,87,39,0
115.20663,115.28916,85,46,0
115.28916,115.37125,87,39,0
115.37125,115.45267,85,46,0
115.45267,115.53543,87,39,0
115.53543,115.61959,85,45,0
115.61959,115.70531,87,39,0
115.70531,115.786285,85,51,0
115.786285,115.865555,87,38,0
115.865555,115.943184,85,48,0
115.943184,116.021416,87,38,0
116.021416,116.10132,85,46,0
116.10132,116.179955,87,38,0
116.179955,116.2586,85,45,0
116.2586,116.33734,87,38,0
116.33734,116.4164,85,45,0
116.4164,116.49545,87,38,0
116.49545,116.57248,85,43,0
116.57248,116.6528,87,37,0
116.6528,116.73292,85,43,0
116.73292,116.81468,87,37,0
116.81468,116.90079,85,43,0
116.90079,116.98714,87,37,0
116.98714,117.07013,77,31,0
116.98714,117.07013,85,44,0
117.07013,117.152664,87,33,0
117.152664,117.23486,77,31,0
117.152664,117.23486,85,41,0
117.23486,117.31672,87,33,0
117.31672,117.39836,85,42,0
117.31672,117.39836,77,33,0
117.39836,117.47955,87,35,0
117.47955,117.560425,85,42,0
117.47955,117.560425,77,33,0
117.560425,117.64075,87,36,0
117.64075,117.7198,77,35,0
117.64075,117.7198,85,44,0
117.7198,117.79876,87,37,0
117.79876,117.877396,77,36,0
117.79876,117.877396,85,44,0
117.877396,117.955734,87,38,0
117.955734,118.033966,85,45,0
117.955734,118.033966,77,36,0
118.033966,118.111786,87,40,0
118.111786,118.189415,85,47,0
118.111786,118.189415,77,38,0
118.189415,118.26684,87,41,0
118.26684,118.343864,77,40,0
118.26684,118.343864,85,56,0
118.343864,118.42089,87,42,0
118.42089,118.49801,85,51,0
118.42089,118.49801,77,39,0
118.49801,118.57544,87,40,0
118.57544,118.65286,77,37,0
118.57544,118.65286,85,48,0
118.65286,118.730484,87,39,0
118.730484,118.80831,77,36,0
118.730484,118.80831,85,45,0
118.80831,118.88613,87,37,0
118.88613,118.96436,85,44,0
118.88613,118.96436,77,35,0
118.96436,119.04301,87,36,0
119.04301,119.12216,85,41,0
119.04301,119.12216,77,33,0
119.12216,119.201744,87,35,0
119.201744,119.28186,77,32,0
119.201744,119.28186,85,39,0
119.28186,119.3624,87,33,0
119.3624,119.44349,85,38,0
119.3624,119.44349,77,31,0
119.44349,119.52501,87,32,0
119.52501,119.60709,85,39,0
119.52501,119.60709,77,39,0
119.60709,119.68918,84,33,0
119.68918,119.77126,87,42,0
119.77126,119.86122,85,37,0
119.86122,119.943306,89,47,0
119.943306,120.02539,87,44,0
120.02539,120.107475,85,41,0
120.107475,120.19431,80,39,0
120.19431,120.277176,77,44,0
120.277176,120.36017,75,39,0
120.36017,120.44272,73,39,0
120.44272,120.52504,68,39,0
120.52504,120.607124,65,42,0
120.607124,120.688774,68,36,0
120.688774,120.77021,73,39,0
120.77021,120.8514,75,43,0
120.8514,120.932175,77,46,0
120.932175,121.01263,80,42,0
121.01263,121.09275,85,44,0
121.09275,121.172554,87,46,0
121.172554,121.25203,89,52,0
121.25203,121.3313,92,46,0
121.3313,121.41138,97,53,0
121.41138,121.492325,92,46,0
121.492325,121.57427,99,59,0
121.57427,121.66477,97,52,0
121.66477,121.74676,101,59,0
121.74676,121.82736,99,53,0
121.82736,121.90685,97,59,0
121.90685,121.98633,92,54,0
121.98633,122.07266,89,59,0
122.07266,122.15139,97,59,0
122.15139,122.230644,92,65,0
122.230644,122.31042,89,56,0
122.31042,122.39082,87,56,0
122.39082,122.478676,85,40,0
122.478676,122.557556,89,58,0
122.557556,122.637,87,51,0
122.637,122.7173,85,50,0
122.7173,122.79837,80,50,0
122.79837,122.88727,77,62,0
122.88727,122.966644,85,52,0
122.966644,123.04693,80,59,0
123.04693,123.12821,77,55,0
123.12821,123.2106,75,63,0
123.2106,123.29755,73,56,0
123.29755,123.37765,77,57,0
123.37765,123.45828,75,58,0
123.45828,123.53956,73,69,0
123.53956,123.62151,68,60,0
123.62151,123.70886,65,63,0
123.70886,123.79846,73,58,0
123.79846,123.89167,68,69,0
123.89167,123.98879,65,64,0
123.98879,124.089874,63,66,0
124.089874,124.21135,61,68,0
124.21135,124.41847,65,70,0
124.41847,124.670715,63,77,0
124.670715,124.951324,61,82,0
124.99389,127.11806,61,85,0
127.11806,127.267,61,73,0
127.267,127.39921,59,70,0
127.39921,127.553665,61,68,0
127.553665,129.69939,59,77,0
129.69939,129.86633,61,64,0
129.86633,130.01886,64,70,0
130.01886,130.17519,62,66,0
130.17519,130.351,61,66,0
130.38617,132.35829,61,74,0
132.2313,132.35829,61,73,0
132.35829,132.50656,59,70,0
132.50656,132.68219,61,68,0
132.68219,134.66675,59,77,0
134.67038,134.81328,57,54,0
134.86337,135.0175,56,62,0
135.0175,135.20097,59,56,0
135.20097,135.39708,57,56,0
135.39708,135.62344,56,56,0
135.62897,138.49255,56,65,0
138.28075,138.49255,56,46,0
138.49614,140.89554,56,54,0
140.89944,141.05447,57,45,0
141.11052,141.28299,56,44,0
141.28299,141.50749,59,50,0
141.50749,141.77467,57,44,0
141.77467,142.10492,56,41,0
146.72356,147.61935,51,26,0
146.72356,147.61935,54,30,0
146.72356,147.61935,48,26,0
142.12143,148.51514,56,56,0
153.12332,154.19019,56,32,0
153.12332,154.19019,61,32,0
153.12332,154.19019,52,32,0
153.12332,154.19019,64,40,0
155.14627,156.14854,57,32,0
155.14627,156.14854,61,32,0
155.14627,156.14854,66,32,0
155.14627,156.14854,69,40,0
157.13173,158.17017,56,32,0
157.13173,158.17017,61,32,0
157.13173,158.17017,52,32,0
157.13173,158.17017,64,40,0
159.17578,160.19006,61,32,0
159.17578,160.19006,64,40,0
159.17578,160.19006,56,32,0
159.17578,160.19006,52,32,0
161.32236,162.39397,64,32,0
161.32236,162.39397,68,40,0
161.32236,162.39397,59,32,0
161.32236,162.39397,56,32,0
163.3038,164.26147,71,40,0
163.3038,164.26147,57,32,0
163.3038,164.26147,63,32,0
163.3038,164.26147,59,32,0
165.37029,166.39285,64,32,0
165.37029,166.39285,68,40,0
165.37029,166.39285,56,32,0
165.37029,166.39285,59,32,0
167.32513,168.15477,64,56,0
168.15477,168.32625,63,57,0
167.32513,168.43745,54,44,0
167.32513,168.43745,60,44,0
167.32513,168.43745,68,56,0
167.32513,168.43745,56,44,0
169.52362,170.59047,68,66,0
169.52362,170.59047,64,60,0
169.52362,170.81865,61,55,0
170.81865,171.05435,60,67,0
170.59047,171.05435,66,58,0
170.59047,171.05435,69,65,0
169.52362,171.05435,73,75,0
171.05435,171.30971,61,69,0
171.30971,171.52824,63,72,0
171.52824,171.77159,64,74,0
171.77159,172.01494,57,65,0
172.01494,172.25829,64,74,0
172.25829,172.5073,63,66,0
172.5073,172.73988,61,78,0
173.19424,173.30513,61,63,0
173.30513,173.416,63,63,0
173.416,173.92891,68,56,0
173.416,173.92891,64,56,0
173.416,173.92891,73,70,0
173.416,174.18536,61,70,0
174.18536,174.41978,60,72,0
174.41978,174.66573,61,78,0
175.40355,176.17926,76,78,0
175.40355,176.17926,67,62,0
175.40355,176.17926,73,62,0
175.40355,176.17926,64,62,0
176.36372,176.60966,73,68,0
176.36372,176.60966,68,68,0
176.36372,176.60966,80,85,0
178.43423,179.0606,81,86,0
178.17255,179.0606,66,64,0
178.25977,179.0606,72,67,0
178.347,179.0606,75,71,0
181.99698,182.09698,67,71,0
182.09698,182.197,68,76,0
182.197,182.29701,71,80,0
182.29701,182.39703,69,71,0
182.39703,182.48962,68,64,0
182.48962,182.58223,69,65,0
182.58223,182.67484,72,67,0
182.67484,182.76744,73,69,0
182.76744,182.87393,75,70,0
182.87393,182.97888,76,72,0
182.97888,183.08539,78,74,0
183.08383,183.19342,79,80,0
183.19342,183.30455,80,83,0
183.30455,183.41731,83,88,0
183.41566,183.52722,81,82,0
183.52722,183.61101,80,69,0
183.61101,183.69444,81,61,0
183.69444,183.7775,80,69,0
183.7775,183.86028,81,63,0
183.86028,183.9427,80,72,0
183.9427,184.02466,81,64,0
184.02466,184.10628,80,72,0
184.10628,184.18762,81,65,0
184.18762,184.26862,80,74,0
184.26862,184.34926,81,66,0
184.34926,184.42957,80,74,0
184.42957,184.50952,81,67,0
184.50952,184.58914,80,76,0
184.58914,184.6685,81,68,0
184.6685,184.74745,80,77,0
184.74745,184.82607,81,69,0
184.82607,184.90443,80,79,0
184.90443,184.98248,81,70,0
184.98248,185.0602,80,79,0
185.0602,185.13753,81,70,0
185.13753,185.2146,80,81,0
185.2146,185.29137,81,72,0
185.29137,185.3679,80,82,0
185.3679,185.44405,81,73,0
185.44405,185.51988,80,83,0
185.51988,185.5954,81,74,0
185.5954,185.6707,80,84,0
185.6707,185.74571,81,76,0
185.74571,185.82033,80,87,0
185.82033,185.89474,81,76,0
185.89474,185.96884,80,86,0
185.96884,186.04266,81,77,0
186.04266,186.1162,80,88,0
186.1162,186.18944,81,78,0
186.18944,186.26247,80,88,0
186.26247,186.33528,81,79,0
186.33528,186.40775,80,91,0
186.40775,186.48,81,81,0
186.48,186.55205,80,91,0
186.55205,186.62361,81,81,0
186.62361,186.69437,80,93,0
186.69437,186.76512,81,82,0
186.76512,186.83588,80,93,0
186.83588,186.90671,81,83,0
186.90671,186.9778,80,95,0
186.9778,187.04889,81,85,0
187.04889,187.11998,80,95,0
187.11998,187.19128,81,85,0
187.19128,187.26271,80,97,0
187.26271,187.33429,81,86,0
187.33429,187.40607,80,97,0
187.40607,187.47801,81,87,0
187.47801,187.55013,80,99,0
187.55013,187.62245,81,88,0
187.62245,187.69492,80,100,0
187.69492,187.76761,81,90,0
187.76761,187.84044,80,101,0
187.84044,187.91339,81,88,0
187.91339,187.98657,80,95,0
187.98657,188.05992,81,82,0
188.05992,188.13347,80,91,0
188.13347,188.2072,81,80,0
188.2072,188.2811,80,86,0
188.2811,188.35547,81,75,0
188.35547,188.43088,80,83,0
188.43088,188.50734,81,71,0
188.50734,188.58478,80,79,0
188.58478,188.66345,81,68,0
188.66345,188.74306,80,74,0
188.74306,188.824,81,64,0
188.824,188.90593,80,70,0
188.90593,188.98923,81,61,0
188.98923,189.074,80,66,0
189.074,189.16054,81,57,0
189.16054,189.24893,80,61,0
189.24893,189.33945,81,53,0
189.33945,189.4321,80,59,0
189.4321,189.52684,81,50,0
189.52684,189.62408,80,54,0
189.62408,189.72275,81,46,0
189.72275,189.92548,80,47,0
189.92548,190.11195,81,45,0
190.1313,190.31833,80,44,0
190.33994,190.5299,79,42,0
190.54985,190.74484,80,41,0
190.76512,190.96286,81,39,0
190.98347,191.18353,82,38,0
191.20398,191.41208,83,37,0
191.43501,191.66208,84,35,0
191.68605,192.00357,85,48,0
192.72714,193.31984,76,44,0
192.81564,194.05661,85,57,0
192.7714,194.05661,81,46,0
194.05661,194.30661,84,48,0
194.05661,194.30661,80,40,0
194.30661,194.54099,81,43,0
194.30661,194.54099,85,51,0
194.54099,194.78291,83,45,0
194.54099,194.78291,87,53,0
194.78291,195.01192,85,47,0
194.78291,195.01192,88,56,0
195.01192,195.25192,81,50,0
195.01192,195.25192,76,42,0
195.25192,195.4758,83,46,0
195.25192,195.4758,87,55,0
195.4758,195.71971,81,41,0
195.4758,195.71971,85,49,0
195.71971,195.99493,83,54,0
195.71971,195.99493,80,45,0
196.5454,196.6339,83,48,0
196.6339,196.72241,85,44,0
196.72241,197.47871,83,57,0
196.72241,197.47871,80,48,0
197.47871,197.68422,79,46,0
197.47871,197.68422,82,51,0
197.68422,198.00174,80,45,0
197.68422,198.00174,83,54,0
198.81381,199.82222,73,48,0
198.81381,199.82222,80,48,0
198.81381,199.82222,85,57,0
199.82222,200.09253,73,45,0
199.82222,200.09253,78,45,0
199.82222,200.09253,81,54,0
200.81018,202.05115,73,48,0
200.81018,202.05115,78,48,0
200.81018,202.05115,81,57,0
202.05115,202.30115,77,40,0
202.05115,202.30115,80,48,0
202.30115,202.53552,78,43,0
202.30115,202.53552,81,51,0
202.53552,202.77745,83,53,0
202.53552,202.77745,80,45,0
202.77745,203.00645,81,47,0
202.77745,203.00645,85,56,0
203.00645,203.24646,78,50,0
203.00645,203.24646,73,42,0
203.24646,203.47034,80,46,0
203.24646,203.47034,83,55,0
203.47034,203.71425,81,49,0
203.47034,203.71425,78,41,0
203.71425,203.98947,76,45,0
203.71425,203.98947,80,54,0
204.53993,204.62843,80,48,0
204.62843,204.71695,81,48,0
204.71695,205.47325,76,48,0
204.71695,205.47325,80,57,0
205.47325,205.72534,79,51,0
205.47325,205.72534,75,46,0
205.72534,206.76901,76,45,0
205.72534,206.76901,80,54,0
208.69415,208.75316,69,48,0
208.75316,208.81216,74,48,0
208.81216,208.87115,80,48,0
208.87115,209.62747,74,48,0
208.87115,209.62747,78,57,0
209.62747,209.87956,77,51,0
209.62747,209.87956,73,46,0
209.87956,210.37965,78,54,0
209.87956,210.37965,74,45,0
212.7594,212.8184,66,48,0
212.8184,212.87741,69,48,0
212.87741,212.93642,76,48,0
212.93642,213.69272,66,48,0
212.93642,213.69272,74,57,0
213.69272,213.94482,65,46,0
213.69272,213.94482,73,51,0
213.94482,215.99243,66,45,0
213.94482,215.99243,74,54,0
215.99243,216.25082,73,37,0
215.99243,216.25082,64,31,0
212.93642,216.33694,69,48,0
216.33694,216.96799,64,31,0
216.33694,216.96799,73,37,0
217.59904,218.84,69,36,0
217.59904,218.84,73,45,0
217.59904,218.86084,64,35,0
218.84,219.09,72,43,0
218.84,219.09,68,36,0
219.09,219.32437,73,45,0
219.09,219.32437,69,38,0
219.32437,219.56631,75,47,0
219.32437,219.56631,71,40,0
219.56631,219.79532,73,42,0
219.56631,219.79532,76,50,0
219.79532,220.03532,64,37,0
219.79532,220.03532,69,45,0
220.03532,220.2592,75,49,0
220.03532,220.2592,71,41,0
220.2592,220.5031,73,44,0
220.2592,220.5031,69,36,0
220.5031,220.77834,68,40,0
220.5031,220.77834,71,48,0
221.3288,221.4173,71,43,0
221.4173,221.5058,73,39,0
221.5058,222.2621,68,43,0
221.5058,222.2621,71,51,0
222.2621,222.46762,67,41,0
222.2621,222.46762,70,45,0
222.46762,222.78514,71,48,0
222.46762,222.78514,68,40,0
223.59721,224.6056,61,43,0
223.59721,224.6056,68,43,0
223.59721,224.6056,73,51,0
224.6056,224.87593,66,40,0
224.6056,224.87593,61,40,0
224.6056,224.87593,69,48,0
225.59358,226.83453,61,43,0
225.59358,226.83453,69,51,0
225.59358,226.83453,66,43,0
226.83453,227.08453,68,43,0
226.83453,227.08453,65,36,0
227.08453,227.31891,66,38,0
227.08453,227.31891,69,45,0
227.31891,227.45395,68,40,0
227.31891,227.45395,71,47,0
227.45395,227.52742,69,40,0
227.45395,227.52742,66,40,0
227.52742,227.60089,68,40,0
227.52742,227.60089,71,40,0
227.60089,227.82991,69,42,0
227.60089,227.82991,73,50,0
227.82991,228.0699,61,37,0
227.82991,228.0699,66,45,0
228.0699,228.2938,68,41,0
228.0699,228.2938,71,49,0
228.2938,228.53769,66,36,0
228.2938,228.53769,69,44,0
228.53769,228.81291,68,48,0
228.53769,228.81291,64,40,0
229.36337,229.45189,68,43,0
229.45189,229.54039,69,43,0
229.54039,230.29669,68,51,0
229.54039,230.29669,64,43,0
230.29669,230.5488,67,45,0
230.29669,230.5488,63,41,0
230.5488,231.59245,64,40,0
230.5488,231.59245,68,48,0
233.5176,233.5766,57,43,0
233.5766,233.6356,62,43,0
233.6356,233.69461,68,43,0
233.69461,234.45091,62,43,0
233.69461,234.45091,66,51,0
234.45091,234.703,65,45,0
234.45091,234.703,61,41,0
234.703,235.22484,66,48,0
234.703,235.22484,62,40,0
233.69461,235.22484,57,35,0
237.89102,238.67377,57,45,0
237.89102,238.67377,54,38,0
238.67377,238.93468,53,36,0
238.67377,238.93468,56,40,0
238.93468,242.06566,57,43,0
238.93468,242.06566,54,36,0
242.06566,243.31477,50,32,0
242.06566,243.31477,54,32,0
242.06566,243.31477,56,38,0
242.06566,243.31477,48,32,0
244.43542,245.61258,53,32,0
244.43542,245.61258,56,38,0
244.43542,245.61258,49,32,0
246.76665,247.99925,54,32,0
246.76665,247.99925,56,38,0
246.76665,247.99925,50,32,0
249.24951,250.61195,53,32,0
249.24951,250.61195,49,32,0
249.24951,250.61195,56,38,0
251.91516,253.4693,54,32,0
251.91516,253.4693,56,38,0
251.91516,253.4693,50,32,0
254.98676,256.5042,56,34,0
254.98676,256.5042,49,28,0
254.98676,256.5042,53,28,0
258.08148,260.3004,56,38,0
258.08148,260.3004,48,32,0
258.08148,260.3004,54,32,0
258.08148,260.3004,51,32,0
260.3004,265.74835,56,38,0
260.3004,265.74835,49,28,0
260.3004,265.74835,44,28,0
260.3004,265.74835,53,32,0
266.8673,266.89233,73,39,0
266.89233,266.9174,80,42,0
266.9424,267.32672,80,50,0
267.32672,267.43942,73,44,0
267.43942,267.83453,80,50,0
266.9174,267.8864,85,45,0
267.83453,267.91235,81,46,0
267.91235,267.9383,73,39,0
267.9383,267.96423,80,42,0
267.99017,268.37122,80,50,0
268.37122,268.48697,83,53,0
268.48697,268.87628,81,51,0
267.96423,268.92737,85,45,0
268.87628,268.9529,80,46,0
268.9529,268.97794,73,39,0
268.97794,269.00296,78,42,0
269.02798,269.40906,78,50,0
269.40906,269.52435,73,44,0
269.52435,269.912,78,50,0
269.00296,269.96387,85,45,0
269.912,269.9898,80,46,0
269.9898,270.01572,73,39,0
270.01572,270.04166,81,42,0
270.0676,270.44705,81,50,0
270.04166,270.44705,85,45,0
270.55975,270.94907,83,50,0
270.94907,271.0257,81,46,0
270.44705,271.0257,85,54,0
271.0257,271.05072,73,39,0
271.05072,271.07574,80,42,0
271.10077,271.4851,80,50,0
271.4851,271.5978,73,44,0
271.5978,271.99292,80,50,0
271.07574,272.0448,85,45,0
271.99292,272.07074,81,46,0
272.07074,272.09665,73,39,0
272.09665,272.1226,80,42,0
272.14853,272.5296,80,50,0
272.5296,272.64536,83,53,0
272.64536,273.03467,81,51,0
272.1226,273.08572,85,45,0
273.03467,273.11127,80,46,0
273.11127,273.1363,73,39,0
273.1363,273.16132,78,42,0
273.18634,273.5674,78,50,0
273.5674,273.68274,73,44,0
273.68274,274.07034,78,50,0
273.16132,274.12222,85,45,0
274.07034,274.14816,80,46,0
274.14816,274.1741,73,39,0
274.1741,274.20004,78,42,0
274.22598,274.60544,78,50,0
274.60544,274.71814,73,54,0
274.71814,275.10745,81,50,0
274.20004,275.1585,85,45,0
275.10745,275.18405,73,46,0
275.18405,275.20908,73,39,0
275.20908,275.23413,80,42,0
275.25916,275.6357,80,50,0
275.6357,275.7484,73,44,0
275.7484,276.13635,80,50,0
275.23413,276.18823,85,45,0
276.13635,276.21417,81,46,0
276.21417,276.24008,73,39,0
276.24008,276.26602,80,42,0
276.29196,276.6654,80,50,0
276.6654,276.78116,83,53,0
276.78116,277.16092,81,51,0
276.26602,277.21198,85,45,0
277.16092,277.23752,80,46,0
277.23752,277.26254,73,39,0
277.26254,277.28757,78,42,0
277.3126,277.68604,78,50,0
277.68604,277.80136,73,44,0
277.80136,278.1811,78,50,0
278.1811,278.2589,80,46,0
277.28757,278.2589,85,45,0
278.2589,278.28485,73,39,0
278.28485,278.3108,81,42,0
278.33673,278.70862,81,50,0
278.3108,278.70862,85,45,0
278.82132,279.19946,83,50,0
279.19946,279.2761,81,46,0
278.70862,279.2761,85,54,0
279.2761,279.30112,73,39,0
279.30112,279.32614,80,42,0
279.35117,279.72003,80,50,0
279.72003,279.83273,73,44,0
279.83273,280.219,80,50,0
279.32614,280.27087,85,45,0
280.219,280.2968,81,46,0
280.2968,280.32275,73,39,0
280.32275,280.3487,80,42,0
280.3746,280.74808,80,50,0
280.74808,280.8638,83,53,0
280.8638,281.2468,81,51,0
280.3487,281.29788,85,45,0
281.2468,281.3234,80,46,0
281.3234,281.34845,73,39,0
281.34845,281.37347,78,42,0
281.3985,281.7704,78,50,0
281.7704,281.88568,73,44,0
281.88568,282.26706,78,50,0
281.37347,282.31894,85,45,0
282.26706,282.34485,80,46,0
282.34485,282.3708,73,39,0
282.3708,282.39673,78,42,0
282.42267,282.79456,78,50,0
282.79456,282.9073,73,54,0
282.9073,283.29657,81,50,0
283.29657,283.33743,73,46,0
282.39673,283.33743,85,45,0
283.3725,283.41003,80,42,0
283.41003,283.4424,85,45,0
283.4424,283.8034,80,50,0
283.8034,283.9161,73,44,0
283.9161,284.29398,85,50,0
284.29398,284.3718,73,46,0
284.3718,284.40933,80,42,0
284.40933,284.4417,85,45,0
284.4417,284.80405,80,50,0
284.80405,284.91675,73,44,0
284.91675,285.29462,85,50,0
285.29462,285.37244,73,46,0
285.37244,285.41135,78,42,0
285.41135,285.45026,85,45,0
285.45026,285.81235,78,50,0
285.81235,285.92947,73,44,0
285.92947,286.30457,85,50,0
286.30457,286.38235,73,46,0
286.38235,286.41992,81,42,0
286.41992,286.4523,85,45,0
286.4523,286.80927,81,50,0
286.80927,286.92957,73,44,0
286.92957,287.30325,85,50,0
287.30325,287.38107,73,46,0
287.38107,287.4186,80,42,0
287.4186,287.45102,85,45,0
287.45102,287.80798,80,50,0
287.80798,287.92514,73,44,0
287.92514,288.29883,85,50,0
288.29883,288.37665,73,46,0
288.37665,288.41418,80,42,0
288.41418,288.4466,85,45,0
288.4466,288.80356,80,50,0
288.80356,288.91626,73,44,0
288.91626,289.28998,85,50,0
289.28998,289.36777,73,46,0
289.36777,289.3989,78,42,0
289.3989,289.43088,85,45,0
289.43088,289.7905,78,50,0
289.7905,289.90762,73,44,0
289.90762,290.2827,85,50,0
290.2827,290.36053,73,46,0
290.36053,290.39807,81,42,0
290.39807,290.43048,85,45,0
290.43048,290.80014,81,50,0
290.80014,290.9173,73,44,0
290.9173,291.318,85,50,0
291.318,291.4736,73,46,0
291.594,291.6542,73,45,0
291.71262,291.76862,73,46,0
291.8244,291.88004,73,46,0
291.4736,291.93558,68,50,0
291.93558,291.99094,73,46,0
292.0461,292.10123,73,46,0
292.15616,292.2109,73,46,0
292.26556,292.32007,73,46,0
292.48273,292.53687,73,43,0
292.59103,292.64517,73,43,0
292.69934,292.75348,73,43,0
292.91833,292.9737,73,45,0
293.02902,293.08627,73,45,0
293.14355,293.2008,73,45,0
293.37335,293.43057,73,44,0
293.4878,293.54495,73,44,0
293.6007,293.65634,73,44,0
293.25806,293.71182,66,50,0
293.71182,293.76712,73,44,0
293.82227,293.87723,73,44,0
293.93207,293.9868,73,44,0
294.04132,294.09567,68,46,0
294.25784,294.3118,73,44,0
294.36575,294.4197,73,44,0
294.47366,294.52765,73,44,0
294.6947,294.7509,73,45,0
294.80707,294.86325,73,45,0
294.9194,294.9756,73,45,0
295.1485,295.20688,73,44,0
295.26523,295.32156,73,44,0
295.37692,295.43207,73,44,0
295.03177,295.48712,68,50,0
295.48712,295.54202,73,44,0
295.59677,295.6514,73,44,0
295.70593,295.76028,73,44,0
295.81448,295.8686,71,49,0
296.03036,296.08432,73,46,0
296.1383,296.19226,73,46,0
296.24622,296.30017,73,46,0
296.4656,296.52115,73,45,0
296.57672,296.63474,73,45,0
296.6922,296.74966,73,45,0
296.92316,296.98123,73,42,0
297.03934,297.0955,73,42,0
297.15045,297.20535,73,42,0
296.80713,297.26007,66,50,0
297.26007,297.31482,73,42,0
297.36942,297.42395,73,42,0
297.47842,297.53278,73,42,0
297.58713,297.64127,68,50,0
297.80356,297.8575,73,45,0
297.91147,297.96542,73,45,0
298.01938,298.07333,73,45,0
298.23682,298.29218,73,44,0
298.34753,298.4029,73,44,0
298.45822,298.51358,73,44,0
298.68652,298.74533,73,45,0
298.8041,298.86185,73,45,0
298.91678,298.97168,73,45,0
298.56897,299.02643,80,57,0
298.56897,299.02643,68,57,0
299.02643,299.08105,73,45,0
299.1356,299.18994,73,45,0
299.2442,299.29834,73,45,0
299.35236,299.40625,73,45,0
299.56723,299.62082,73,45,0
299.46002,299.67438,69,54,0
299.46002,299.67438,81,54,0
299.67438,299.72797,73,45,0
299.78152,299.83508,73,45,0
299.99738,300.05252,73,46,0
299.88867,300.10767,68,54,0
299.88867,300.10767,80,54,0
300.10767,300.1645,73,46,0
300.2213,300.27814,73,46,0
300.4485,300.5051,73,42,0
300.5618,300.61942,73,42,0
300.67514,300.73038,73,42,0
300.33496,300.78543,78,55,0
300.33496,300.78543,66,55,0
300.78543,300.84033,73,42,0
300.89508,300.9496,73,42,0
301.00394,301.05807,73,42,0
301.11206,301.16592,68,50,0
301.11206,301.16592,80,50,0
301.32642,301.37982,73,43,0
301.4332,301.48657,73,43,0
301.53995,301.59332,73,43,0
301.2196,301.64673,69,55,0
301.2196,301.64673,81,55,0
301.75867,301.81464,73,43,0
301.8706,301.92657,73,43,0
301.98254,302.0385,73,43,0
301.64673,302.09448,78,50,0
301.64673,302.09448,66,50,0
302.21158,302.27014,73,41,0
302.32718,302.38214,73,41,0
302.43692,302.49155,73,41,0
302.09448,302.546,80,57,0
302.09448,302.546,68,57,0
302.546,302.6003,73,41,0
302.65445,302.7084,73,41,0
302.86935,302.92267,73,43,0
302.7622,302.97586,71,49,0
302.7622,302.97586,83,49,0
303.08298,303.13617,73,44,0
302.97586,303.18936,69,56,0
302.97586,303.18936,81,56,0
303.18936,303.24255,73,44,0
303.29575,303.34894,73,44,0
303.51273,303.56827,73,44,0
303.40213,303.62384,68,54,0
303.40213,303.62384,80,54,0
303.62384,303.6812,73,44,0
303.74023,303.79926,73,44,0
303.97177,304.02838,73,44,0
304.08508,304.14243,73,44,0
304.1985,304.25433,73,44,0
303.85825,304.30994,66,55,0
303.85825,304.30994,78,55,0
304.30994,304.36526,73,44,0
304.42047,304.47537,73,44,0
304.5301,304.5846,73,44,0
304.63885,304.69296,68,50,0
304.63885,304.69296,80,50,0
304.85406,304.90765,73,43,0
304.9612,305.01477,73,44,0
305.06836,305.12192,73,44,0
304.74686,305.1755,81,57,0
304.74686,305.1755,69,57,0
305.28912,305.34723,73,44,0
305.40533,305.46344,73,44,0
305.5215,305.57962,73,44,0
305.1755,305.63773,66,54,0
305.1755,305.63773,78,54,0
305.63773,305.69604,85,57,0
305.75436,305.80814,73,43,0
305.8619,305.91568,73,44,0
305.96942,306.0232,73,44,0
306.07697,306.13293,85,54,0
306.18948,306.24606,73,44,0
306.3026,306.3592,73,44,0
306.41574,306.47232,73,44,0
306.52887,306.58405,85,57,0
306.6392,306.69434,73,43,0
306.74948,306.80228,73,44,0
306.8551,306.90793,73,44,0
306.96072,307.01355,85,54,0
307.06638,307.1192,73,44,0
307.172,307.22482,73,44,0
307.27765,307.3332,73,44,0
307.38876,307.4453,85,57,0
307.5019,307.55508,73,43,0
307.60828,307.66147,73,44,0
307.71466,307.76785,73,44,0
307.82104,307.8784,85,54,0
307.9352,307.992,73,44,0
308.04883,308.10565,73,44,0
308.16248,308.2193,73,44,0
308.27612,308.33066,85,57,0
308.3852,308.43976,73,43,0
308.4943,308.54694,73,44,0
308.59955,308.6522,73,44,0
308.7048,308.75745,85,54,0
308.8101,308.8627,73,44,0
308.91534,308.968,73,44,0
309.0206,309.07635,73,44,0
309.13214,309.1928,85,57,0
309.2535,309.30707,73,43,0
309.36066,309.4142,73,44,0
309.46777,309.52136,73,44,0
309.57492,309.6323,85,54,0
309.69037,309.74847,73,44,0
309.80658,309.8647,73,44,0
309.92276,309.98087,73,44,0
310.03897,310.09372,85,57,0
310.14847,310.20322,73,43,0
310.25797,310.3104,73,44,0
310.36285,310.41528,73,44,0
310.46774,310.5202,85,54,0
310.57263,310.6251,73,44,0
310.67752,310.72998,73,44,0
310.78244,310.8392,73,44,0
310.896,310.95255,85,57,0
311.00912,311.06268,73,43,0
311.11627,311.16983,73,44,0
311.2234,311.27698,73,44,0
311.33054,311.3879,85,54,0
311.44598,311.5041,73,44,0
311.5622,311.6203,73,44,0
311.67838,311.73648,73,44,0
311.7946,311.8501,85,57,0
311.90564,311.96115,73,43,0
312.01666,312.0693,73,44,0
312.12192,312.17456,73,44,0
312.2272,312.27982,85,54,0
312.33246,312.38507,73,44,0
312.4377,312.49036,73,44,0
312.54297,312.59976,73,44,0
312.65652,312.71722,85,57,0
312.7779,312.83017,73,43,0
312.88245,312.9347,85,51,0
312.98697,313.0392,85,51,0
313.0915,313.14624,97,63,0
313.201,313.25574,85,44,0
313.3105,313.3652,85,44,0
313.41995,313.4747,73,44,0
313.52945,313.58823,85,57,0
313.647,313.69965,73,43,0
313.7523,313.8049,73,44,0
313.85754,313.9102,73,44,0
313.9628,314.01776,85,55,0
314.0727,314.12762,73,45,0
314.1826,314.23752,73,45,0
314.29248,314.3474,73,45,0
314.40237,314.4616,85,59,0
314.52084,314.57443,73,44,0
314.628,314.68158,85,53,0
314.73514,314.78873,85,53,0
314.8423,314.89844,97,65,0
314.95456,315.0107,85,46,0
315.06686,315.123,85,47,0
315.17914,315.2353,73,47,0
315.2914,315.35043,85,60,0
315.40945,315.46338,73,46,0
315.5173,315.57123,73,47,0
315.62512,315.67905,73,47,0
315.73297,315.78848,85,59,0
315.84402,315.89954,73,47,0
315.95505,316.01056,73,48,0
316.0661,316.1216,73,48,0
316.17712,316.23163,85,63,0
316.28595,316.33987,73,48,0
316.3938,316.44772,85,60,0
316.50165,316.55557,85,60,0
316.60947,316.664,97,76,0
316.7177,316.77145,85,49,0
316.82516,316.8791,85,49,0
316.9338,316.98853,73,49,0
317.0432,317.0968,85,65,0
317.15036,317.20447,73,48,0
317.2586,317.3127,73,49,0
317.36783,317.42294,73,50,0
317.47806,317.53162,85,62,0
317.5852,317.63876,73,51,0
317.69232,317.74786,73,51,0
317.80338,317.8589,73,51,0
317.9144,317.9674,85,67,0
318.02042,318.07343,73,50,0
318.12643,318.18216,85,64,0
318.23706,318.29196,85,63,0
318.34686,318.3995,97,82,0
318.45215,318.50476,85,61,0
318.5574,318.61002,85,61,0
318.66595,318.72107,73,52,0
318.77618,318.829,85,69,0
318.8818,318.93463,73,51,0
318.98746,319.04236,73,53,0
319.09726,319.1522,73,53,0
319.2071,319.25992,85,66,0
319.3127,319.36554,73,54,0
319.41837,319.47348,73,54,0
319.52856,319.58368,73,54,0
319.6388,319.69162,85,71,0
319.74445,319.79724,73,53,0
319.85007,319.9029,85,68,0
319.9578,320.0127,85,68,0
320.0676,320.12006,97,83,0
320.17252,320.22495,85,64,0
320.2774,320.32983,85,64,0
320.38477,320.43967,73,56,0
320.49457,320.54684,85,74,0
320.5991,320.65137,73,56,0
320.70364,320.7574,85,65,0
320.81116,320.86493,85,65,0
320.91867,320.97113,97,83,0
321.0236,321.07602,85,64,0
321.1294,321.1828,85,64,0
321.23618,321.28955,73,59,0
321.34293,321.39502,85,77,0
321.4471,321.49918,73,58,0
321.55127,321.60446,85,72,0
321.65765,321.71085,85,72,0
321.76404,321.81644,97,92,0
321.86835,321.92026,85,68,0
321.97327,322.02625,85,68,0
322.07925,322.13226,73,62,0
322.18527,322.23718,85,80,0
322.2894,322.34164,73,61,0
322.39386,322.44687,85,72,0
322.49988,322.5529,85,72,0
322.6059,322.65778,97,93,0
322.7097,322.7616,85,76,0
322.81815,322.87473,85,76,0
322.93127,323.00446,73,63,0
323.07764,323.14645,77,72,0
323.07764,323.14645,72,72,0
323.07764,323.14645,84,85,0
323.3529,323.47842,80,68,0
323.3529,323.47842,73,68,0
323.3529,323.47842,85,81,0
323.60394,323.9528,71,72,0
323.60394,323.9528,77,72,0
323.60394,323.9528,83,85,0
323.9528,324.0699,73,67,0
323.9528,324.0699,85,79,0
324.0699,324.12848,84,85,0
324.0699,324.12848,77,72,0
324.0699,324.12848,72,72,0
324.30426,324.42145,80,68,0
324.30426,324.42145,73,68,0
324.30426,324.42145,85,81,0
324.53864,324.88214,83,85,0
324.53864,324.88214,71,72,0
324.53864,324.88214,77,72,0
324.88214,325.00168,85,79,0
324.88214,325.00168,73,67,0
325.00168,325.05893,84,85,0
325.00168,325.05893,72,72,0
325.00168,325.05893,81,72,0
325.23068,325.34518,82,68,0
325.23068,325.34518,85,81,0
325.23068,325.34518,73,68,0
325.4597,325.79675,82,85,0
325.4597,325.79675,78,72,0
325.4597,325.79675,70,72,0
325.79675,325.90787,82,67,0
325.79675,325.90787,73,67,0
325.79675,325.90787,85,79,0
325.90787,325.96466,72,72,0
325.90787,325.96466,81,72,0
325.90787,325.96466,84,85,0
326.13498,326.24857,73,68,0
326.13498,326.24857,85,81,0
326.13498,326.24857,82,68,0
326.36212,326.69897,70,72,0
326.36212,326.69897,82,85,0
326.36212,326.69897,78,72,0
326.69897,326.81296,85,79,0
326.69897,326.81296,73,67,0
326.81296,326.8689,72,72,0
326.81296,326.8689,84,85,0
327.03668,327.1498,85,81,0
327.03668,327.1498,80,68,0
327.03668,327.1498,73,68,0
327.26294,327.5998,75,72,0
327.26294,327.5998,83,72,0
327.26294,327.5998,87,85,0
327.5998,327.71423,80,67,0
327.5998,327.71423,85,79,0
327.5998,327.71423,73,67,0
327.71423,327.77014,84,85,0
327.71423,327.77014,72,72,0
327.93796,328.0511,80,68,0
327.93796,328.0511,85,81,0
327.93796,328.0511,73,68,0
328.1642,328.50107,83,72,0
328.1642,328.50107,87,85,0
328.1642,328.50107,75,72,0
328.50107,328.61548,85,79,0
328.50107,328.61548,80,67,0
328.50107,328.61548,73,67,0
328.61548,328.6727,72,72,0
328.61548,328.6727,84,85,0
328.61548,328.6727,81,72,0
328.84177,328.95447,85,81,0
328.84177,328.95447,73,68,0
328.84177,328.95447,82,68,0
329.06717,329.40402,78,72,0
329.06717,329.40402,82,72,0
329.06717,329.40402,90,85,0
329.40402,329.52023,73,67,0
329.40402,329.52023,85,79,0
329.52023,329.57635,81,72,0
329.52023,329.57635,72,72,0
329.52023,329.57635,84,85,0
329.74478,329.8577,82,68,0
329.74478,329.8577,85,81,0
329.74478,329.8577,73,68,0
329.97128,330.31415,78,72,0
329.97128,330.31415,82,72,0
329.97128,330.31415,90,85,0
330.31415,330.43814,73,61,0
330.31415,330.43814,85,72,0
330.43814,330.50452,84,62,0
330.43814,330.50452,77,52,0
330.43814,330.50452,72,52,0
330.70364,330.82452,73,49,0
330.70364,330.82452,80,49,0
330.70364,330.82452,85,59,0
330.9454,331.28607,77,52,0
330.9454,331.28607,71,52,0
330.9454,331.28607,83,62,0
331.28607,331.4032,73,48,0
331.28607,331.4032,85,57,0
331.4032,331.45996,84,62,0
331.4032,331.45996,72,52,0
331.4032,331.45996,77,52,0
331.6303,331.74387,85,59,0
331.6303,331.74387,80,49,0
331.6303,331.74387,73,49,0
331.85742,332.19427,77,52,0
331.85742,332.19427,83,62,0
331.85742,332.19427,71,52,0
332.19427,332.3105,73,48,0
332.19427,332.3105,85,57,0
332.3105,332.36725,72,52,0
332.3105,332.36725,81,52,0
332.3105,332.36725,84,62,0
332.5376,332.65115,82,49,0
332.5376,332.65115,73,49,0
332.5376,332.65115,85,59,0
332.7647,333.10156,82,62,0
332.7647,333.10156,78,52,0
332.7647,333.10156,70,52,0
333.10156,333.2114,85,57,0
333.10156,333.2114,73,48,0
333.2114,333.26816,84,62,0
333.2114,333.26816,72,52,0
333.2114,333.26816,81,52,0
333.4385,333.55206,73,49,0
333.4385,333.55206,82,49,0
333.4385,333.55206,85,59,0
333.66562,334.00247,78,52,0
333.66562,334.00247,70,52,0
333.66562,334.00247,82,62,0
334.00247,334.11646,73,48,0
334.00247,334.11646,85,57,0
334.11646,334.1724,72,52,0
334.11646,334.1724,84,62,0
334.34018,334.4533,80,49,0
334.34018,334.4533,73,49,0
334.34018,334.4533,85,59,0
334.56647,334.9033,87,62,0
334.56647,334.9033,75,52,0
334.56647,334.9033,83,52,0
334.9033,335.01773,73,48,0
334.9033,335.01773,80,48,0
334.9033,335.01773,85,57,0
335.01773,335.07367,72,52,0
335.01773,335.07367,84,62,0
335.2427,335.35544,73,49,0
335.2427,335.35544,80,49,0
335.2427,335.35544,85,59,0
335.46814,335.805,75,52,0
335.46814,335.805,83,52,0
335.46814,335.805,87,62,0
335.805,335.92117,85,57,0
335.805,335.92117,73,48,0
335.805,335.92117,80,48,0
335.92117,335.97733,81,52,0
335.92117,335.97733,72,52,0
335.92117,335.97733,84,62,0
336.14575,336.25867,82,49,0
336.14575,336.25867,85,59,0
336.14575,336.25867,73,49,0
336.37222,336.70908,78,52,0
336.37222,336.70908,82,52,0
336.37222,336.70908,90,62,0
336.70908,336.8253,73,48,0
336.70908,336.8253,85,57,0
336.8253,336.8814,81,52,0
336.8253,336.8814,72,52,0
336.8253,336.8814,84,62,0
337.04984,337.16278,73,49,0
337.04984,337.16278,82,49,0
337.04984,337.16278,85,59,0
337.27634,337.6132,78,52,0
337.27634,337.6132,90,62,0
337.27634,337.6132,82,52,0
337.6132,337.72937,73,48,0
337.6132,337.72937,85,57,0
337.72937,337.8059,75,49,0
337.72937,337.8059,83,49,0
337.72937,337.8059,87,64,0
337.93347,338.01215,78,44,0
337.93347,338.01215,83,56,0
338.14328,338.22302,78,56,0
338.14328,338.22302,75,44,0
338.3559,338.434,75,56,0
338.3559,338.434,71,44,0
338.56412,338.64273,78,56,0
338.56412,338.64273,75,44,0
338.77377,338.8524,83,58,0
338.77377,338.8524,78,46,0
338.98343,339.0607,87,60,0
338.98343,339.0607,83,48,0
339.18948,339.26923,87,49,0
339.18948,339.26923,90,62,0
339.4021,339.47787,85,64,0
339.4021,339.47787,82,51,0
339.4021,339.47787,73,51,0
339.60416,339.68173,82,55,0
339.60416,339.68173,78,44,0
339.81107,339.88995,73,44,0
339.81107,339.88995,78,55,0
340.02145,340.10147,73,55,0
340.02145,340.10147,70,44,0
340.23483,340.31317,78,57,0
340.23483,340.31317,73,45,0
340.44376,340.52213,82,56,0
340.44376,340.52213,78,44,0
340.65268,340.91568,85,62,0
340.65268,340.91568,73,49,0
340.65268,340.91568,82,49,0
340.65268,340.91568,78,49,0
341.0735,341.17694,87,64,0
340.9946,341.17694,75,49,0
341.02087,341.17694,78,49,0
341.04718,341.17694,83,49,0
341.28036,341.35797,83,56,0
341.28036,341.35797,78,44,0
341.48727,341.56677,78,56,0
341.48727,341.56677,75,44,0
341.6996,341.7772,71,44,0
341.6996,341.7772,75,56,0
341.9065,341.98434,78,56,0
341.9065,341.98434,75,44,0
342.1141,342.19196,78,46,0
342.1141,342.19196,83,58,0
342.32172,342.39774,87,60,0
342.32172,342.39774,83,48,0
342.5244,342.60147,87,49,0
342.5244,342.60147,90,62,0
342.7299,342.80798,85,64,0
342.7299,342.80798,82,51,0
342.93732,343.0149,82,55,0
342.93732,343.0149,78,44,0
343.1442,343.22308,73,44,0
343.1442,343.22308,78,55,0
343.35458,343.4355,70,44,0
343.35458,343.4355,73,55,0
343.57028,343.64862,78,57,0
343.57028,343.64862,73,45,0
343.7792,343.85754,82,56,0
343.7792,343.85754,78,44,0
343.98813,344.38263,73,49,0
343.98813,344.38263,78,49,0
343.98813,344.38263,82,49,0
343.98813,344.38263,85,62,0
344.40878,344.51083,84,65,0
344.51083,344.61252,97,50,0
344.61252,344.71378,85,59,0
344.71378,344.8147,97,50,0
344.91525,345.01538,97,50,0
344.8147,345.01538,83,65,0
345.1152,345.22012,97,50,0
345.01538,345.22012,85,60,0
345.22012,345.31918,84,65,0
345.31918,345.41824,97,50,0
345.41824,345.5173,85,59,0
345.5173,345.61636,97,50,0
345.71542,345.81448,97,50,0
345.61636,345.81448,83,65,0
345.9135,346.01257,97,50,0
345.81448,346.01257,85,60,0
346.01257,346.11465,84,65,0
346.11465,346.2163,97,50,0
346.2163,346.3176,85,59,0
346.3176,346.41852,97,50,0
346.51904,346.6192,97,50,0
346.41852,346.6192,82,65,0
346.719,346.82394,97,50,0
346.6192,346.82394,85,60,0
346.82394,346.923,84,65,0
346.923,347.02206,97,50,0
347.02206,347.12112,85,59,0
347.12112,347.22018,97,50,0
347.3192,347.41827,97,50,0
347.22018,347.41827,82,65,0
347.51733,347.6164,97,50,0
347.41827,347.6164,85,60,0
347.6164,347.71848,84,65,0
347.71848,347.82013,97,50,0
347.82013,347.92142,85,59,0
347.92142,348.02234,97,50,0
348.12286,348.223,97,50,0
348.02234,348.223,83,56,0
348.02234,348.223,89,65,0
348.3228,348.42776,97,50,0
348.223,348.42776,85,60,0
348.42776,348.52682,84,65,0
348.52682,348.6259,97,50,0
348.6259,348.7249,85,59,0
348.7249,348.82397,97,50,0
348.92303,349.0221,97,50,0
348.82397,349.0221,89,65,0
348.82397,349.0221,83,55,0
349.12115,349.2202,97,50,0
349.0221,349.2202,85,60,0
349.2202,349.32227,82,65,0
349.32227,349.42395,97,50,0
349.42395,349.5252,85,59,0
349.5252,349.62613,97,50,0
349.72668,349.8268,97,50,0
349.62613,349.8268,82,53,0
349.62613,349.8268,90,65,0
349.92664,350.0316,97,50,0
349.8268,350.0316,85,60,0
350.0316,350.1306,82,65,0
350.1306,350.22968,97,50,0
350.22968,350.32874,85,59,0
350.32874,350.4278,97,50,0
350.52686,350.62592,97,50,0
350.4278,350.62592,82,58,0
350.4278,350.62592,90,65,0
350.72498,350.824,97,50,0
350.62592,350.824,85,60,0
350.824,350.92148,87,65,0
350.92148,351.01892,97,47,0
351.01892,351.11636,83,60,0
351.11636,351.2138,97,47,0
351.2138,351.31,82,60,0
351.31,351.4062,97,47,0
351.4062,351.5024,83,62,0
351.5024,351.6008,97,47,0
351.6008,351.6973,87,65,0
351.6973,351.79382,97,48,0
351.79382,351.89032,83,62,0
351.89032,351.98682,97,47,0
351.98682,352.08304,90,65,0
352.08304,352.17923,97,46,0
352.17923,352.2796,87,61,0
352.2796,352.37997,97,48,0
352.37997,352.47745,85,65,0
352.47745,352.5749,97,47,0
352.5749,352.67233,82,60,0
352.67233,352.76978,97,47,0
352.76978,352.86597,81,60,0
352.86597,352.96216,97,47,0
352.96216,353.05838,82,62,0
353.05838,353.15677,97,47,0
353.15677,353.25327,85,65,0
353.25327,353.3498,97,48,0
353.3498,353.4463,82,62,0
353.4463,353.5428,97,47,0
353.5428,353.639,90,65,0
353.639,353.7352,97,46,0
353.7352,353.83557,85,61,0
353.83557,353.93594,97,48,0
353.93594,354.03342,87,65,0
354.03342,354.13086,97,47,0
354.13086,354.2283,83,60,0
354.2283,354.32574,97,47,0
354.32574,354.42194,82,60,0
354.42194,354.51813,97,47,0
354.51813,354.61435,83,62,0
354.61435,354.71274,97,47,0
354.71274,354.80923,87,65,0
354.80923,354.90576,97,48,0
354.90576,355.00226,83,62,0
355.00226,355.09875,97,47,0
355.09875,355.19498,90,65,0
355.19498,355.29117,97,46,0
355.29117,355.39154,87,61,0
355.39154,355.4919,97,48,0
355.4919,355.58936,85,65,0
355.58936,355.68683,97,47,0
355.68683,355.78427,82,60,0
355.78427,355.8817,97,47,0
355.8817,355.9779,81,60,0
355.9779,356.0741,97,47,0
356.0741,356.1703,82,62,0
356.1703,356.2687,97,47,0
356.2687,356.3652,85,65,0
356.3652,356.46173,97,48,0
356.46173,356.55823,82,62,0
356.55823,356.65472,97,47,0
356.65472,356.75095,90,65,0
356.75095,356.84714,97,46,0
356.84714,356.9475,85,61,0
356.9475,357.04788,97,48,0
357.04788,357.1414,89,65,0
357.04788,357.1414,83,55,0
357.1414,357.2349,97,48,0
357.2349,357.35178,85,52,0
357.2349,357.35178,92,62,0
357.3284,357.42188,97,47,0
357.42188,357.51688,89,65,0
357.42188,357.51688,83,55,0
357.51688,357.61185,97,46,0
357.61185,357.73486,92,61,0
357.61185,357.73486,85,51,0
357.71024,357.80865,97,48,0
357.80865,357.90216,83,55,0
357.80865,357.90216,89,65,0
357.90216,357.99567,97,48,0
357.99567,358.11252,92,62,0
357.99567,358.11252,85,52,0
358.08914,358.18265,97,47,0
358.18265,358.27792,89,65,0
358.18265,358.27792,83,55,0
358.27792,358.3732,97,46,0
358.3732,358.4987,92,61,0
358.3732,358.4987,85,51,0
358.4736,358.57037,97,48,0
358.57037,358.66354,82,55,0
358.57037,358.66354,90,65,0
358.66354,358.7567,97,48,0
358.7567,358.87317,85,52,0
358.7567,358.87317,94,62,0
358.84988,358.94302,97,47,0
358.94302,359.03864,82,55,0
358.94302,359.03864,90,65,0
359.03864,359.13422,97,46,0
359.13422,359.25967,85,51,0
359.13422,359.25967,94,61,0
359.2346,359.33496,97,48,0
359.33496,359.42905,90,65,0
359.33496,359.42905,82,55,0
359.42905,359.52313,97,48,0
359.52313,359.64075,94,62,0
359.52313,359.64075,85,52,0
359.61722,359.7113,97,47,0
359.7113,359.8075,90,65,0
359.7113,359.8075,82,55,0
359.8075,359.90372,97,46,0
359.90372,360.02917,94,61,0
359.90372,360.02917,85,51,0
360.0041,360.10446,97,48,0
360.10446,360.19797,89,65,0
360.10446,360.19797,83,55,0
360.19797,360.29147,97,48,0
360.29147,360.40833,85,52,0
360.29147,360.40833,92,62,0
360.38495,360.47845,97,47,0
360.47845,360.57346,89,65,0
360.47845,360.57346,83,55,0
360.57346,360.66843,97,46,0
360.66843,360.7914,85,51,0
360.66843,360.7914,92,61,0
360.7668,360.86523,97,48,0
360.86523,360.95874,83,55,0
360.86523,360.95874,89,65,0
360.95874,361.05222,97,48,0
361.05222,361.1691,92,62,0
361.05222,361.1691,85,52,0
361.14572,361.23923,97,47,0
361.23923,361.3345,89,65,0
361.23923,361.3345,83,55,0
361.3345,361.42978,97,46,0
361.42978,361.55527,92,61,0
361.42978,361.55527,85,51,0
361.53018,361.63055,97,48,0
361.63055,361.72464,90,65,0
361.63055,361.72464,82,55,0
361.72464,361.81873,97,48,0
361.81873,361.93634,94,62,0
361.81873,361.93634,85,52,0
361.9128,362.0069,97,47,0
362.0069,362.10248,90,65,0
362.0069,362.10248,82,55,0
362.10248,362.19806,97,46,0
362.19806,362.32355,94,61,0
362.19806,362.32355,85,51,0
362.29843,362.39883,97,48,0
362.39883,362.49292,90,65,0
362.39883,362.49292,82,55,0
362.49292,362.587,97,48,0
362.587,362.7046,85,52,0
362.587,362.7046,94,62,0
362.6811,362.77518,97,47,0
362.77518,362.87137,90,65,0
362.77518,362.87137,82,55,0
362.87137,362.96756,97,46,0
362.96756,363.09305,94,61,0
362.96756,363.09305,85,51,0
363.06793,363.16833,97,48,0
363.16833,363.25983,89,65,0
363.16833,363.25983,83,55,0
363.25983,363.35132,97,48,0
363.35132,363.4657,85,52,0
363.35132,363.4657,92,62,0
363.44284,363.53433,97,47,0
363.53433,363.62842,83,55,0
363.53433,363.62842,89,65,0
363.62842,363.7225,97,46,0
363.7225,363.85278,92,61,0
363.7225,363.85278,85,51,0
363.82672,363.93094,97,48,0
363.93094,364.03165,83,55,0
363.93094,364.03165,89,65,0
364.03165,364.1324,97,48,0
364.1324,364.2727,92,62,0
364.1324,364.2727,85,52,0
364.2423,364.36383,97,47,0
364.36383,364.78192,77,55,0
364.36383,364.78192,85,55,0
364.36383,364.78192,89,65,0
364.78192,364.87567,90,65,0
364.78192,364.87567,82,55,0
364.87567,364.96942,97,48,0
364.96942,365.0866,85,52,0
364.96942,365.0866,94,62,0
365.06317,365.15692,97,47,0
365.15692,365.2513,82,55,0
365.15692,365.2513,90,65,0
365.2513,365.34567,97,46,0
365.34567,365.47595,85,51,0
365.34567,365.47595,94,61,0
365.4499,365.5541,97,48,0
365.5541,365.65485,90,65,0
365.5541,365.65485,82,55,0
365.65485,365.75555,97,48,0
365.75555,365.89587,85,52,0
365.75555,365.89587,94,62,0
365.8655,365.98703,97,47,0
365.98703,366.41202,78,55,0
365.98703,366.41202,90,65,0
365.98703,366.41202,85,55,0
366.41202,366.50665,83,55,0
366.41202,366.50665,89,65,0
366.50665,366.6013,97,48,0
366.6013,366.7196,85,52,0
366.6013,366.7196,92,62,0
366.69592,366.7906,97,47,0
366.7906,366.88467,83,55,0
366.7906,366.88467,89,65,0
366.88467,366.97876,97,46,0
366.97876,367.109,92,61,0
366.97876,367.109,85,51,0
367.08298,367.18716,97,48,0
367.18716,367.2879,89,65,0
367.18716,367.2879,83,55,0
367.2879,367.3886,97,48,0
367.3886,367.52893,92,62,0
367.3886,367.52893,85,52,0
367.49857,367.6201,97,47,0
367.6201,368.03818,77,55,0
367.6201,368.03818,85,55,0
367.6201,368.03818,89,65,0
368.03818,368.1331,82,55,0
368.03818,368.1331,90,65,0
368.1331,368.22803,97,48,0
368.22803,368.3467,94,62,0
368.22803,368.3467,85,52,0
368.32297,368.4179,97,47,0
368.4179,368.51505,90,65,0
368.4179,368.51505,82,55,0
368.51505,368.61218,97,46,0
368.61218,368.75113,94,61,0
368.61218,368.75113,85,51,0
368.72336,368.8345,97,48,0
368.8345,368.9391,90,65,0
368.8345,368.9391,82,55,0
368.9391,369.04367,97,48,0
369.04367,369.18964,94,62,0
369.04367,369.18964,85,52,0
369.15823,369.28384,97,47,0
369.7163,369.78418,83,66,0
369.28384,369.78418,85,55,0
369.28384,369.78418,78,55,0
369.28384,369.78418,90,65,0
369.78418,369.90564,99,82,0
370.2624,370.9106,80,65,0
370.9106,371.01483,82,65,0
371.11905,371.22144,83,69,0
371.32382,371.4262,80,65,0
371.4798,371.5334,82,63,0
371.5334,371.63705,97,83,0
371.9474,372.56128,78,65,0
372.56128,372.66095,80,65,0
372.7606,372.85928,82,69,0
372.95798,373.05664,78,59,0
373.15533,373.25507,77,65,0
373.35477,373.45184,78,61,0
373.54895,373.64478,80,65,0
373.74063,373.8365,82,61,0
373.93234,374.03073,83,65,0
374.12915,374.22437,85,60,0
374.3193,374.41394,87,65,0
374.5086,374.60324,89,59,0
374.65054,374.6742,90,61,0
374.6742,374.69788,92,61,0
374.69788,374.79498,90,75,0
374.89212,374.98602,89,65,0
375.0795,375.17294,90,71,0
375.2664,375.36105,92,65,0
375.4569,375.55035,94,73,0
375.64383,375.73727,92,65,0
375.83072,375.92538,94,73,0
376.02002,376.11465,90,65,0
376.18222,376.20474,83,50,0
376.20474,376.22726,89,54,0
376.22726,376.2498,92,57,0
376.2498,376.36057,99,82,0
376.6928,377.31897,80,65,0
376.6928,377.31897,77,55,0
377.31897,377.41846,78,56,0
377.31897,377.41846,82,66,0
377.5178,377.61456,83,70,0
377.5178,377.61456,80,59,0
377.71136,377.80814,80,66,0
377.71136,377.80814,77,56,0
377.86172,377.87958,82,46,0
377.87958,377.89746,85,58,0
377.89746,377.89923,90,61,0
377.9153,378.01706,97,85,0
378.3223,378.92993,78,67,0
378.3223,378.92993,70,57,0
378.92993,379.02798,80,68,0
378.92993,379.02798,71,58,0
379.126,379.22327,82,73,0
379.126,379.22327,73,61,0
379.32034,379.41742,70,53,0
379.32034,379.41742,78,63,0
379.51453,379.61423,68,58,0
379.51453,379.61423,77,69,0
379.71396,379.80984,70,54,0
379.71396,379.80984,78,65,0
379.90573,380.00006,80,70,0
379.90573,380.00006,71,59,0
380.0947,380.18933,82,65,0
380.0947,380.18933,73,55,0
380.284,380.3824,83,70,0
380.284,380.3824,75,59,0
380.4808,380.57516,85,65,0
380.4808,380.57516,77,55,0
380.66956,380.76242,78,60,0
380.66956,380.76242,87,71,0
380.85532,380.94818,89,64,0
380.85532,380.94818,80,55,0
381.04108,381.1382,90,83,0
381.04108,381.1382,82,69,0
381.23532,381.3274,89,72,0
381.23532,381.3274,80,61,0
381.41946,381.51154,90,79,0
381.41946,381.51154,82,67,0
381.60358,381.69693,92,72,0
381.60358,381.69693,83,61,0
381.79156,381.88492,85,70,0
381.79156,381.88492,94,82,0
381.97693,382.06897,92,73,0
381.97693,382.06897,83,62,0
382.16098,382.25302,85,70,0
382.16098,382.25302,94,83,0
382.34503,382.43707,82,62,0
382.34503,382.43707,90,74,0
382.48306,382.51474,87,58,0
382.51474,382.5464,94,62,0
382.5464,382.65717,102,93,0
382.98944,383.60562,66,65,0
382.98944,383.60562,75,77,0
383.60562,383.70633,77,75,0
383.60562,383.70633,68,63,0
383.80377,383.89902,70,66,0
383.80377,383.89902,78,78,0
383.99365,384.0883,75,71,0
383.99365,384.0883,66,60,0
384.13562,384.1673,85,58,0
384.1673,384.19894,92,62,0
384.19894,384.30972,101,93,0
384.64197,385.25818,73,77,0
384.64197,385.25818,65,65,0
385.25818,385.3589,75,75,0
385.25818,385.3589,66,63,0
385.45633,385.55377,77,78,0
385.45633,385.55377,68,66,0
385.65125,385.7487,73,71,0
385.65125,385.7487,65,60,0
385.84613,385.94357,63,59,0
385.84613,385.94357,72,70,0
386.04102,386.13687,73,72,0
386.04102,386.13687,65,61,0
386.23273,386.32855,66,62,0
386.23273,386.32855,75,74,0
386.4244,386.52026,77,77,0
386.4244,386.52026,68,65,0
386.6161,386.71194,78,79,0
386.6161,386.71194,70,67,0
386.8078,386.90213,80,75,0
386.8078,386.90213,72,63,0
386.99646,387.08994,73,65,0
386.99646,387.08994,82,77,0
387.18338,387.27686,75,68,0
387.18338,387.27686,84,80,0
387.3703,387.46378,85,82,0
387.3703,387.46378,77,69,0
387.55707,387.65146,84,79,0
387.55707,387.65146,75,67,0
387.74585,387.8402,77,67,0
387.74585,387.8402,85,79,0
387.9346,388.029,87,80,0
387.9346,388.029,78,68,0
388.12643,388.2193,80,73,0
388.12643,388.2193,89,87,0
388.31247,388.40564,87,80,0
388.31247,388.40564,78,68,0
388.4988,388.59348,89,87,0
388.4988,388.59348,80,73,0
388.68817,388.78497,77,68,0
388.68817,388.78497,85,80,0
388.8334,388.86505,87,58,0
388.86505,388.89673,94,62,0
388.89673,389.00748,102,97,0
389.33975,389.95264,66,68,0
389.33975,389.95264,75,80,0
389.95264,390.05136,68,66,0
389.95264,390.05136,77,79,0
390.14667,390.24042,70,69,0
390.14667,390.24042,78,82,0
390.33417,390.42792,66,63,0
390.33417,390.42792,75,75,0
390.4748,390.50644,85,61,0
390.50644,390.53812,92,65,0
390.53812,390.64886,101,98,0
390.98114,391.58752,65,69,0
390.98114,391.58752,73,82,0
391.58752,391.68628,66,67,0
391.58752,391.68628,75,80,0
391.7809,391.87527,77,83,0
391.7809,391.87527,68,70,0
391.96967,392.06406,65,64,0
391.96967,392.06406,73,76,0
392.15842,392.251,63,63,0
392.15842,392.251,72,75,0
392.34363,392.43622,65,65,0
392.34363,392.43622,73,77,0
392.5288,392.62216,75,79,0
392.5288,392.62216,66,66,0
392.7156,392.80908,68,70,0
392.7156,392.80908,77,83,0
392.90225,392.9944,70,73,0
392.90225,392.9944,78,86,0
393.0861,393.1774,72,68,0
393.0861,393.1774,80,81,0
393.26825,393.35873,82,83,0
393.26825,393.35873,73,70,0
393.44876,393.53842,84,87,0
393.44876,393.53842,75,74,0
393.62775,393.8058,73,73,0
393.62775,393.8058,77,73,0
393.62775,393.8058,85,87,0
393.8058,393.8967,84,76,0
393.8058,393.8967,72,64,0
393.9876,394.16406,74,73,0
393.9876,394.16406,86,87,0
394.16406,394.2547,85,76,0
394.16406,394.2547,73,64,0
394.34534,394.5204,75,74,0
394.34534,394.5204,87,88,0
394.5204,394.61023,86,77,0
394.5204,394.61023,74,64,0
394.70004,394.8755,88,89,0
394.70004,394.8755,76,75,0
394.8755,394.9653,87,79,0
394.8755,394.9653,75,66,0
395.0551,395.22903,89,91,0
395.0551,395.22903,77,76,0
395.22903,395.31912,76,66,0
395.22903,395.31912,88,78,0
395.4092,395.58163,78,77,0
395.4092,395.58163,90,92,0
395.58163,395.67117,89,80,0
395.58163,395.67117,77,67,0
395.76074,395.93118,79,78,0
395.76074,395.93118,91,93,0
395.93118,396.01865,78,69,0
395.93118,396.01865,90,82,0
396.1061,396.27466,92,93,0
396.1061,396.27466,80,78,0
396.27466,396.3611,79,68,0
396.27466,396.3611,91,81,0
396.44757,396.61493,93,95,0
396.44757,396.61493,81,80,0
396.61493,396.7009,92,82,0
396.61493,396.7009,80,69,0
396.78683,396.95398,82,81,0
396.78683,396.95398,94,96,0
396.95398,397.03824,81,68,0
396.95398,397.03824,93,82,0
397.12347,397.28876,95,97,0
397.12347,397.28876,83,81,0
397.28876,397.37326,94,84,0
397.28876,397.37326,82,71,0
397.45776,397.62445,83,82,0
397.45776,397.62445,95,98,0
397.62445,397.71216,84,70,0
397.62445,397.71216,96,84,0
397.7999,397.96655,85,86,0
397.7999,397.96655,97,102,0
397.7999,397.96655,89,86,0
397.96655,398.13797,96,95,0
397.96655,398.13797,84,80,0
398.13797,398.30283,85,86,0
398.13797,398.30283,89,86,0
398.13797,398.30283,97,102,0
398.30283,398.47278,90,80,0
398.30283,398.47278,96,95,0
398.30283,398.47278,84,80,0
398.47278,398.63898,89,86,0
398.47278,398.63898,97,102,0
398.47278,398.63898,85,86,0
398.63898,398.8119,90,80,0
398.63898,398.8119,96,95,0
398.63898,398.8119,84,80,0
398.8119,398.98138,85,86,0
398.8119,398.98138,89,86,0
398.8119,398.98138,97,102,0
398.98138,399.15787,96,95,0
398.98138,399.15787,90,80,0
398.98138,399.15787,84,80,0
399.15787,399.3318,97,102,0
399.15787,399.3318,85,86,0
399.15787,399.3318,89,86,0
399.3318,399.51538,84,81,0
399.3318,399.51538,72,68,0
399.50125,399.68488,73,74,0
399.50125,399.68488,85,88,0
399.67075,399.8555,84,81,0
399.67075,399.8555,72,68,0
399.84024,399.9317,73,74,0
399.84024,399.9317,85,88,0
400.02316,400.211,60,62,0
400.02316,400.211,72,74,0
400.1966,400.38507,73,80,0
400.1966,400.38507,61,68,0
400.3695,400.55643,60,61,0
400.3695,400.55643,72,72,0
400.7293,400.81577,68,76,0
400.7293,400.81577,65,64,0
400.55643,400.90222,73,93,0
400.55643,400.90222,61,77,0
401.07513,401.1634,68,64,0
401.07513,401.1634,73,76,0
400.90222,401.25162,77,84,0
400.90222,401.25162,65,71,0
401.42404,401.51022,77,76,0
401.42404,401.51022,73,64,0
401.59644,401.68265,73,64,0
401.59644,401.68265,77,76,0
401.25162,401.76886,70,85,0
401.25162,401.76886,82,100,0
401.76886,401.85507,80,92,0
401.76886,401.85507,68,77,0
401.94128,402.026,66,64,0
401.94128,402.026,78,96,0
401.94128,402.026,70,64,0
401.94128,402.026,73,81,0
402.11075,402.1955,65,74,0
402.11075,402.1955,77,88,0
402.28024,402.36746,64,74,0
402.28024,402.36746,76,88,0
402.4256,402.52548,66,71,0
402.41107,402.53964,63,69,0
402.44012,402.53964,70,73,0
402.45468,402.53964,75,89,0
402.62463,402.70963,62,74,0
402.62463,402.70963,74,88,0
402.79462,402.88132,73,83,0
402.75214,402.88132,61,63,0
402.7663,402.88132,66,67,0
402.78046,402.88132,70,70,0
402.96802,403.054,72,91,0
402.96802,403.054,60,76,0
403.13995,403.23312,73,88,0
403.13995,403.23312,61,74,0
403.49918,403.58563,68,76,0
403.49918,403.58563,65,64,0
403.3263,403.6721,61,77,0
403.3263,403.6721,73,93,0
403.845,403.93326,68,64,0
403.845,403.93326,73,76,0
403.6721,404.02148,77,84,0
403.6721,404.02148,65,71,0
404.1939,404.2801,73,64,0
404.1939,404.2801,77,76,0
404.3663,404.4525,77,76,0
404.3663,404.4525,73,64,0
404.02148,404.53873,70,85,0
404.02148,404.53873,82,100,0
404.53873,404.62494,68,77,0
404.53873,404.62494,80,92,0
404.71115,404.7959,78,96,0
404.71115,404.7959,73,81,0
404.71115,404.7959,66,64,0
404.71115,404.7959,70,64,0
404.8806,404.96536,77,88,0
404.8806,404.96536,65,74,0
405.0501,405.13583,75,88,0
405.0501,405.13583,63,74,0
405.22156,405.31357,73,74,0
405.22156,405.31357,61,58,0
405.22156,405.31357,70,61,0
405.22156,405.32123,66,60,0
405.4056,405.78534,70,74,0
405.4056,405.78534,66,74,0
405.4056,405.78534,73,74,0
405.4056,405.78534,78,89,0
405.78534,406.1786,78,68,0
405.78534,406.1786,73,68,0
405.78534,406.1786,82,80,0
405.78534,406.1786,70,68,0
406.1786,406.27454,83,55,0
406.1786,406.27454,89,55,0
406.27454,406.36765,97,56,0
406.36765,406.4584,85,57,0
406.36765,406.4584,92,57,0
406.4584,406.54846,97,59,0
406.54846,406.63812,89,60,0
406.54846,406.63812,84,60,0
406.63812,406.72736,97,61,0
406.72736,406.81622,92,63,0
406.72736,406.81622,85,63,0
406.81622,406.90472,97,64,0
406.90472,406.99332,83,66,0
406.90472,406.99332,89,66,0
406.99332,407.0813,97,67,0
407.0813,407.1687,85,69,0
407.0813,407.1687,92,69,0
407.1687,407.25555,97,69,0
407.25555,407.342,84,68,0
407.25555,407.342,89,68,0
407.342,407.42847,97,67,0
407.42847,407.51492,85,67,0
407.42847,407.51492,92,67,0
407.51492,407.60138,97,66,0
407.60138,407.68588,90,71,0
407.60138,407.68588,82,71,0
407.68588,407.7704,97,64,0
407.7704,407.8566,94,67,0
407.7704,407.8566,85,67,0
407.8566,407.9428,97,63,0
407.9428,408.0278,90,68,0
407.9428,408.0278,84,68,0
408.0278,408.1128,97,62,0
408.1128,408.20154,94,68,0
408.1128,408.20154,85,68,0
408.20154,408.29028,97,61,0
408.29028,408.37408,82,69,0
408.29028,408.37408,90,69,0
408.37408,408.4579,97,60,0
408.4579,408.5441,85,63,0
408.4579,408.5441,94,63,0
408.5441,408.6303,97,58,0
408.6303,408.7153,90,61,0
408.6303,408.7153,84,61,0
408.7153,408.80026,97,57,0
408.80026,408.89062,94,61,0
408.80026,408.89062,85,61,0
408.89062,408.98123,97,56,0
408.98123,409.0724,83,60,0
408.98123,409.0724,89,60,0
409.0724,409.16284,97,60,0
409.16284,409.25262,92,61,0
409.16284,409.25262,85,61,0
409.25262,409.3426,97,62,0
409.3426,409.43225,89,62,0
409.3426,409.43225,84,62,0
409.43225,409.52148,97,63,0
409.52148,409.61035,92,64,0
409.52148,409.61035,85,64,0
409.61035,409.69885,97,66,0
409.69885,409.78745,89,66,0
409.69885,409.78745,83,66,0
409.78745,409.87543,97,67,0
409.87543,409.96283,92,69,0
409.87543,409.96283,85,69,0
409.96283,410.04968,97,69,0
410.04968,410.13614,89,68,0
410.04968,410.13614,84,68,0
410.13614,410.2226,97,67,0
410.2226,410.30905,85,67,0
410.2226,410.30905,92,67,0
410.30905,410.3955,97,66,0
410.3955,410.48,90,71,0
410.3955,410.48,82,71,0
410.48,410.5645,97,64,0
410.5645,410.65073,85,67,0
410.5645,410.65073,94,67,0
410.65073,410.73694,97,63,0
410.73694,410.82193,90,68,0
410.73694,410.82193,84,68,0
410.82193,410.90692,97,62,0
410.90692,410.99567,94,68,0
410.90692,410.99567,85,68,0
410.99567,411.08444,97,61,0
411.08444,411.1682,82,69,0
411.08444,411.1682,90,69,0
411.1682,411.252,97,59,0
411.252,411.33823,85,61,0
411.252,411.33823,94,61,0
411.33823,411.42444,97,56,0
411.42444,411.50943,82,58,0
411.42444,411.50943,90,58,0
411.50943,411.59442,97,52,0
411.59442,411.68478,85,57,0
411.59442,411.68478,94,57,0
411.68478,411.77515,97,50,0
411.77515,411.8621,89,65,0
411.77515,411.8621,83,55,0
411.8621,411.94904,97,48,0
411.94904,412.05774,85,52,0
411.94904,412.05774,92,62,0
412.036,412.12296,97,47,0
412.12296,412.21387,83,55,0
412.12296,412.21387,89,65,0
412.21387,412.30478,97,46,0
412.30478,412.43506,85,51,0
412.30478,412.43506,92,61,0
412.409,412.5132,97,48,0
412.5132,412.61392,83,55,0
412.5132,412.61392,89,65,0
412.61392,412.71466,97,48,0
412.71466,412.85498,85,52,0
412.71466,412.85498,92,62,0
412.8246,412.94614,97,47,0
412.94614,413.3642,89,65,0
412.94614,413.3642,85,55,0
412.94614,413.3642,77,55,0
413.3642,413.45456,82,55,0
413.3642,413.45456,90,65,0
413.45456,413.54492,97,48,0
413.54492,413.65787,94,62,0
413.54492,413.65787,85,52,0
413.63528,413.72565,97,47,0
413.72565,413.81882,82,55,0
413.72565,413.81882,90,65,0
413.81882,413.912,97,46,0
413.912,414.04227,94,61,0
413.912,414.04227,85,51,0
414.0162,414.12042,97,48,0
414.12042,414.22113,82,55,0
414.12042,414.22113,90,65,0
414.22113,414.32184,97,48,0
414.32184,414.4622,94,62,0
414.32184,414.4622,85,52,0
414.4318,414.5533,97,47,0
414.5533,414.9714,78,55,0
414.5533,414.9714,90,65,0
414.5533,414.9714,85,55,0
414.9714,415.06342,83,55,0
414.9714,415.06342,89,65,0
415.06342,415.15546,97,48,0
415.15546,415.27048,85,52,0
415.15546,415.27048,92,62,0
415.24747,415.3395,97,47,0
415.3395,415.43326,83,55,0
415.3395,415.43326,89,65,0
415.43326,415.527,97,46,0
415.527,415.65726,85,51,0
415.527,415.65726,92,61,0
415.63123,415.73544,97,48,0
415.73544,415.83615,89,65,0
415.73544,415.83615,83,55,0
415.83615,415.93686,97,48,0
415.93686,416.0772,85,52,0
415.93686,416.0772,92,62,0
416.0468,416.16833,97,47,0
416.16833,416.58643,77,55,0
416.16833,416.58643,89,65,0
416.16833,416.58643,85,55,0
416.58643,416.68106,90,65,0
416.58643,416.68106,82,55,0
416.68106,416.7757,97,48,0
416.7757,416.89398,85,52,0
416.7757,416.89398,94,62,0
416.87033,416.96497,97,47,0
416.96497,417.06564,90,65,0
416.96497,417.06564,82,55,0
417.06564,417.16632,97,46,0
417.16632,417.31165,85,51,0
417.16632,417.31165,94,61,0
417.2826,417.39886,97,48,0
417.39886,417.51697,90,65,0
417.39886,417.51697,82,55,0
417.51697,417.6351,97,48,0
417.6351,417.79163,85,52,0
417.6351,417.79163,94,62,0
417.75754,417.8939,97,47,0
417.8939,418.32968,78,55,0
417.8939,418.32968,85,55,0
417.8939,418.32968,90,65,0
418.39352,418.49884,87,65,0
418.49884,418.60416,97,47,0
418.60416,418.70322,83,60,0
418.70322,418.80228,97,47,0
418.80228,418.89786,82,60,0
418.89786,418.99344,97,47,0
418.99344,419.08902,83,62,0
419.08902,419.18744,97,47,0
419.18744,419.27866,87,65,0
419.27866,419.36987,97,48,0
419.36987,419.46112,83,62,0
419.46112,419.55234,97,47,0
419.55234,419.64166,90,65,0
419.64166,419.731,97,46,0
419.731,419.82193,87,61,0
419.82193,419.91287,97,48,0
419.91287,420.00012,85,65,0
420.00012,420.08737,97,47,0
420.08737,420.17462,82,60,0
420.17462,420.26184,97,47,0
420.26184,420.34735,81,60,0
420.34735,420.43286,97,47,0
420.43286,420.51837,82,62,0
420.51837,420.6077,97,47,0
420.6077,420.69223,85,65,0
420.69223,420.77676,97,48,0
420.77676,420.8613,82,62,0
420.8613,420.94586,97,47,0
420.94586,421.03088,90,65,0
421.03088,421.1159,97,46,0
421.1159,421.20163,85,61,0
421.20163,421.28738,97,48,0
421.28738,421.37216,87,65,0
421.37216,421.45694,97,47,0
421.45694,421.54172,83,60,0
421.54172,421.6265,97,47,0
421.6265,421.70987,82,60,0
421.70987,421.79324,97,47,0
421.79324,421.8766,83,62,0
421.8766,421.9614,97,47,0
421.9614,422.04498,87,65,0
422.04498,422.12857,97,48,0
422.12857,422.2122,83,62,0
422.2122,422.29578,97,47,0
422.29578,422.38007,90,65,0
422.38007,422.4644,97,46,0
422.4644,422.54965,87,61,0
422.54965,422.6349,97,48,0
422.6349,422.7185,85,65,0
422.7185,422.8021,97,47,0
422.8021,422.88568,82,60,0
422.88568,422.9693,97,47,0
422.9693,423.05197,81,60,0
423.05197,423.13464,97,47,0
423.13464,423.21872,82,62,0
423.21872,423.3108,97,47,0
423.3108,423.40036,85,65,0
423.40036,423.48996,97,48,0
423.48996,423.57956,82,62,0
423.57956,423.67303,97,47,0
423.67303,423.7651,90,65,0
423.7651,423.85718,97,46,0
424.0332,424.11823,49,46,0
424.20084,424.28348,51,48,0
424.3661,424.44873,53,50,0
424.533,424.61722,54,53,0
424.65936,424.70148,58,50,0
424.70148,424.78387,56,55,0
424.86627,424.94867,55,46,0
425.03064,425.11215,56,50,0
425.19366,425.27722,53,46,0
425.36078,425.44272,54,46,0
425.52536,425.60797,56,48,0
425.6906,425.77322,58,50,0
425.85724,425.94125,59,53,0
425.98328,426.02527,63,50,0
426.02527,426.10745,61,55,0
426.1896,426.2718,60,46,0
426.35397,426.43613,61,50,0
426.5183,426.60284,58,46,0
426.6874,426.76868,59,55,0
426.80933,426.84998,62,50,0
426.84998,426.8921,63,46,0
427.01846,427.0993,56,50,0
427.13974,427.18015,58,50,0
427.18015,427.2223,59,46,0
427.34866,427.4295,53,55,0
427.4699,427.51035,55,50,0
427.51035,427.55246,56,46,0
427.67883,427.7597,49,50,0
427.8001,427.84055,52,50,0
427.84055,427.88266,53,46,0
428.00903,428.08966,54,55,0
428.12997,428.1703,57,50,0
428.1703,428.21243,58,46,0
428.3388,428.42053,49,50,0
428.4614,428.50226,53,50,0
428.50226,428.54535,54,46,0
428.67462,428.75613,46,55,0
428.79688,428.83762,48,50,0
428.83762,428.882,49,46,0
429.0151,429.09818,42,50,0
429.34976,429.43478,73,48,0
429.34976,429.43478,61,40,0
429.51654,429.59827,75,50,0
429.51654,429.59827,63,42,0
429.68002,429.76178,77,52,0
429.68002,429.76178,65,44,0
429.8451,429.92844,78,55,0
429.8451,429.92844,66,47,0
429.9701,430.01178,82,52,0
430.01178,430.0933,80,57,0
430.01178,430.0933,68,48,0
430.1748,430.25632,79,48,0
430.1748,430.25632,67,40,0
430.33786,430.41937,68,44,0
430.33786,430.41937,80,52,0
430.5009,430.58444,65,40,0
430.5009,430.58444,77,48,0
430.668,430.7493,66,40,0
430.668,430.7493,78,48,0
430.8308,430.91232,80,50,0
430.8308,430.91232,68,42,0
430.99387,431.07538,70,44,0
430.99387,431.07538,82,52,0
431.1594,431.2434,83,55,0
431.1594,431.2434,71,47,0
431.2854,431.32742,90,52,0
431.32742,431.40894,85,57,0
431.32742,431.40894,73,48,0
431.49048,431.572,72,40,0
431.49048,431.572,84,48,0
431.6535,431.73502,85,52,0
431.6535,431.73502,73,44,0
431.81656,431.9011,82,48,0
431.81656,431.9011,70,40,0
431.98563,432.06586,75,50,0
431.98563,432.06586,83,66,0
432.10596,432.14606,86,60,0
432.14606,432.18726,87,55,0
432.31088,432.3909,80,60,0
432.31088,432.3909,71,50,0
432.4309,432.4709,82,60,0
432.4709,432.51212,83,55,0
432.63574,432.71573,68,50,0
432.63574,432.71573,77,66,0
432.75574,432.79575,79,60,0
432.79575,432.83694,80,55,0
432.96057,433.03992,65,50,0
432.96057,433.03992,73,60,0
433.07962,433.1193,76,60,0
433.1193,433.16028,77,55,0
433.28323,433.363,70,50,0
433.28323,433.363,78,66,0
433.40292,433.4428,81,60,0
433.4428,433.484,82,55,0
433.60764,433.68936,66,50,0
433.60764,433.68936,73,60,0
433.73022,433.7711,77,60,0
433.7711,433.81494,78,55,0
433.94653,434.03058,61,50,0
433.94653,434.03058,70,66,0
434.07257,434.1146,72,60,0
434.1146,434.15897,73,55,0
434.29208,434.45944,58,50,0
434.29208,434.6364,66,60,0
434.6364,434.73917,44,46,0
434.8335,434.9197,46,48,0
435.00592,435.09213,48,50,0
435.175,435.25787,49,53,0
435.29932,435.34073,53,50,0
435.34073,435.42227,51,55,0
435.50378,435.5853,50,46,0
435.66684,435.74835,51,50,0
435.82986,435.91342,48,46,0
435.99698,436.07803,49,46,0
436.15912,436.2402,51,48,0
436.3213,436.40237,53,50,0
436.48523,436.5681,54,53,0
436.60956,436.651,58,50,0
436.651,436.73163,56,55,0
436.8123,436.8929,55,46,0
436.97357,437.0542,56,50,0
437.13486,437.2194,53,46,0
437.30396,437.38437,54,55,0
437.4246,437.4648,57,50,0
437.4648,437.50623,58,46,0
437.63055,437.71054,51,50,0
437.75055,437.79056,53,50,0
437.79056,437.83197,54,46,0
437.9563,438.03607,48,55,0
438.07596,438.11588,50,50,0
438.11588,438.158,51,46,0
438.28436,438.3648,44,50,0
438.405,438.44522,47,50,0
438.44522,438.48734,48,46,0
438.61374,438.69437,49,55,0
438.73468,438.775,52,50,0
438.775,438.8171,53,46,0
438.94348,439.0252,44,50,0
439.06607,439.10693,48,50,0
439.10693,439.15002,49,46,0
439.2793,439.3608,41,55,0
439.40155,439.44232,43,50,0
439.44232,439.4867,44,46,0
439.61978,439.70288,37,50,0
439.95447,440.04156,68,44,0
439.95447,440.04156,80,52,0
439.95447,440.04156,72,44,0
440.12756,440.21222,82,55,0
440.12756,440.21222,73,46,0
440.12756,440.21222,70,46,0
440.2957,440.37854,84,57,0
440.2957,440.37854,75,48,0
440.2957,440.37854,72,48,0
440.46097,440.54337,85,60,0
440.46097,440.54337,73,51,0
440.46097,440.54337,77,51,0
440.6258,440.70645,87,62,0
440.6258,440.70645,78,52,0
440.6258,440.70645,75,52,0
440.78708,440.86774,86,52,0
440.78708,440.86774,77,44,0
440.78708,440.86774,74,44,0
440.94836,441.02902,87,57,0
440.94836,441.02902,78,48,0
440.94836,441.02902,75,48,0
441.10968,441.1932,75,44,0
441.10968,441.1932,72,44,0
441.10968,441.1932,84,52,0
441.27676,441.35696,77,44,0
441.27676,441.35696,73,44,0
441.27676,441.35696,85,52,0
441.4372,441.5174,80,46,0
441.4372,441.5174,87,55,0
441.4372,441.5174,75,46,0
441.59763,441.67783,77,48,0
441.59763,441.67783,85,48,0
441.59763,441.67783,89,57,0
441.76047,441.8431,87,51,0
441.76047,441.8431,78,51,0
441.76047,441.8431,90,60,0
441.92578,442.00598,80,52,0
441.92578,442.00598,83,52,0
441.92578,442.00598,92,62,0
442.08618,442.1664,88,44,0
442.08618,442.1664,91,52,0
442.08618,442.1664,79,44,0
442.2466,442.32684,80,48,0
442.2466,442.32684,89,48,0
442.2466,442.32684,92,57,0
442.40704,442.49158,85,44,0
442.40704,442.49158,77,44,0
442.40704,442.49158,89,52,0
442.57614,442.65613,90,72,0
442.57614,442.65613,82,55,0
442.69614,442.73615,93,66,0
442.73615,442.77734,94,60,0
442.90097,442.98096,78,55,0
442.90097,442.98096,87,66,0
443.02097,443.06097,89,66,0
443.06097,443.10217,90,60,0
443.2258,443.30582,75,55,0
443.2258,443.30582,84,72,0
443.3458,443.3858,86,66,0
443.3858,443.427,87,60,0
443.55063,443.63,72,55,0
443.55063,443.63,80,66,0
443.66968,443.70938,83,66,0
443.70938,443.75034,84,60,0
443.8733,443.9531,77,55,0
443.8733,443.9531,85,72,0
443.99298,444.03287,88,66,0
444.03287,444.0741,89,60,0
444.19772,444.27945,80,66,0
444.19772,444.27945,73,55,0
444.3203,444.36118,84,66,0
444.36118,444.40503,85,60,0
444.5366,444.6197,68,55,0
444.5366,444.6197,77,72,0
444.66125,444.70282,79,66,0
444.70282,444.74716,80,60,0
444.88028,445.04507,65,55,0
444.88028,445.21494,73,66,0
445.21494,445.29895,92,59,0
445.21494,445.29895,84,50,0
445.21494,445.29895,80,50,0
445.3821,445.4644,82,52,0
445.3821,445.4644,85,52,0
445.3821,445.4644,94,63,0
445.54584,445.62692,96,65,0
445.54584,445.62692,84,55,0
445.54584,445.62692,87,55,0
445.708,445.7891,85,58,0
445.708,445.7891,97,69,0
445.708,445.7891,89,58,0
445.87018,445.95038,87,64,0
445.87018,445.95038,99,78,0
445.87018,445.95038,90,64,0
446.0306,446.1108,98,64,0
446.0306,446.1108,89,55,0
446.0306,446.1108,86,55,0
446.19104,446.27124,99,71,0
446.19104,446.27124,90,60,0
446.19104,446.27124,87,60,0
446.35147,446.435,84,55,0
446.35147,446.435,87,55,0
446.35147,446.435,96,64,0
446.51855,446.59854,85,55,0
446.51855,446.59854,97,64,0
446.51855,446.59854,89,55,0
446.67877,446.75897,99,69,0
446.67877,446.75897,92,57,0
446.67877,446.75897,87,57,0
446.8392,446.9194,97,60,0
446.8392,446.9194,101,71,0
446.8392,446.9194,89,60,0
447.00204,447.0847,99,63,0
447.00204,447.0847,90,63,0
447.00204,447.0847,102,75,0
447.16733,447.24713,95,64,0
447.16733,447.24713,92,64,0
447.16733,447.24713,104,78,0
447.3269,447.4067,100,55,0
447.3269,447.4067,91,55,0
447.3269,447.4067,103,64,0
447.48648,447.56628,104,71,0
447.48648,447.56628,92,60,0
447.48648,447.56628,101,60,0
447.64606,447.7306,97,55,0
447.64606,447.7306,101,64,0
447.64606,447.7306,89,55,0
447.7729,447.81516,93,82,0
447.81516,447.8945,94,69,0
447.81516,447.8945,102,90,0
447.97388,448.01508,90,75,0
448.0975,448.1387,89,82,0
448.1387,448.21786,90,69,0
448.1387,448.21786,99,82,0
448.29703,448.33823,90,75,0
448.42065,448.46185,86,82,0
448.46185,448.54144,87,69,0
448.46185,448.54144,96,90,0
448.621,448.6622,84,75,0
448.74463,448.78583,83,82,0
448.78583,448.8646,84,69,0
448.78583,448.8646,92,82,0
448.94333,448.9843,80,75,0
449.10678,449.26645,77,59,0
449.10678,449.26645,85,70,0
449.10678,449.26645,73,59,0
449.26645,449.42526,78,61,0
449.26645,449.42526,74,61,0
449.26645,449.42526,86,72,0
449.42526,449.58316,75,62,0
449.42526,449.58316,87,74,0
449.42526,449.58316,79,62,0
449.58316,449.7402,80,66,0
449.58316,449.7402,76,66,0
449.58316,449.7402,88,78,0
449.7402,449.8966,81,79,0
449.7402,449.8966,89,79,0
449.7402,449.8966,77,67,0
449.8966,450.05365,80,64,0
449.8966,450.05365,88,77,0
449.8966,450.05365,76,64,0
450.05365,450.2114,87,73,0
450.05365,450.2114,75,61,0
450.05365,450.2114,79,61,0
450.2114,450.36993,86,70,0
450.2114,450.36993,78,59,0
450.2114,450.36993,74,59,0
450.36993,450.52768,75,59,0
450.36993,450.52768,87,70,0
450.36993,450.52768,79,59,0
450.52768,450.6847,80,61,0
450.52768,450.6847,76,61,0
450.52768,450.6847,88,72,0
450.6847,450.8409,89,74,0
450.6847,450.8409,77,62,0
450.6847,450.8409,81,62,0
450.8409,450.99637,90,78,0
450.8409,450.99637,82,66,0
450.8409,450.99637,78,66,0
450.99637,451.1519,83,79,0
450.99637,451.1519,91,79,0
450.99637,451.1519,79,67,0
451.1519,451.30844,90,77,0
451.1519,451.30844,78,64,0
451.1519,451.30844,82,64,0
451.30844,451.46603,81,62,0
451.30844,451.46603,89,74,0
451.30844,451.46603,77,62,0
451.46603,451.62433,80,60,0
451.46603,451.62433,88,71,0
451.46603,451.62433,76,60,0
451.62433,451.7816,77,60,0
451.62433,451.7816,89,71,0
451.62433,451.7816,81,60,0
451.7816,451.9381,82,62,0
451.7816,451.9381,90,73,0
451.7816,451.9381,78,62,0
451.9381,452.0941,83,63,0
451.9381,452.0941,91,75,0
451.9381,452.0941,79,63,0
452.0941,452.24933,92,79,0
452.0941,452.24933,84,67,0
452.0941,452.24933,80,67,0
452.24933,452.40356,85,80,0
452.24933,452.40356,81,68,0
452.24933,452.40356,93,80,0
452.40356,452.5588,80,65,0
452.40356,452.5588,84,65,0
452.40356,452.5588,92,79,0
452.5588,452.7152,79,62,0
452.5588,452.7152,83,62,0
452.5588,452.7152,91,75,0
452.7152,452.8728,78,60,0
452.7152,452.8728,90,72,0
452.7152,452.8728,82,60,0
452.8728,453.03098,79,61,0
452.8728,453.03098,91,74,0
452.8728,453.03098,83,61,0
453.03098,453.18842,80,64,0
453.03098,453.18842,92,76,0
453.03098,453.18842,84,64,0
453.18842,453.34515,85,65,0
453.18842,453.34515,81,65,0
453.18842,453.34515,93,78,0
453.34515,453.5012,94,82,0
453.34515,453.5012,82,68,0
453.34515,453.5012,86,68,0
453.5012,453.65643,95,85,0
453.5012,453.65643,83,71,0
453.5012,453.65643,87,71,0
453.65643,453.811,88,74,0
453.65643,453.811,96,88,0
453.65643,453.811,84,74,0
453.811,453.96487,85,75,0
453.811,453.96487,97,90,0
453.811,453.96487,89,75,0
453.96487,454.11804,90,79,0
453.96487,454.11804,86,79,0
453.96487,454.11804,98,93,0
454.11804,454.2705,91,81,0
454.11804,454.2705,87,81,0
454.11804,454.2705,99,95,0
454.2705,454.42227,88,83,0
454.2705,454.42227,92,83,0
454.2705,454.42227,100,100,0
454.42227,454.5734,93,87,0
454.42227,454.5734,101,103,0
454.42227,454.5734,89,87,0
454.5734,454.72418,88,85,0
454.5734,454.72418,92,85,0
454.5734,454.72418,100,101,0
454.72418,454.87555,99,98,0
454.72418,454.87555,87,84,0
454.72418,454.87555,91,98,0
454.87555,455.02734,98,97,0
454.87555,455.02734,86,82,0
454.87555,455.02734,90,82,0
455.02734,455.1796,89,81,0
455.02734,455.1796,97,96,0
455.02734,455.1796,85,81,0
455.1796,455.33237,96,95,0
455.1796,455.33237,88,80,0
455.1796,455.33237,84,80,0
455.33237,455.48557,87,78,0
455.33237,455.48557,95,94,0
455.33237,455.48557,83,78,0
455.48557,455.63922,86,77,0
455.48557,455.63922,82,77,0
455.48557,455.63922,94,93,0
455.63922,455.79333,85,77,0
455.63922,455.79333,81,77,0
455.63922,455.79333,93,92,0
455.79333,455.94794,82,76,0
455.79333,455.94794,94,90,0
455.79333,455.94794,86,76,0
455.94794,456.1044,87,75,0
455.94794,456.1044,83,75,0
455.94794,456.1044,95,89,0
456.1044,456.25943,96,92,0
456.1044,456.25943,88,77,0
456.1044,456.25943,84,77,0
456.25943,456.4139,89,78,0
456.25943,456.4139,85,78,0
456.25943,456.4139,97,94,0
456.4139,456.56793,86,81,0
456.4139,456.56793,90,81,0
456.4139,456.56793,98,96,0
456.56793,456.72147,99,98,0
456.56793,456.72147,91,84,0
456.56793,456.72147,87,84,0
456.72147,456.87448,88,85,0
456.72147,456.87448,92,85,0
456.72147,456.87448,100,101,0
456.87448,457.027,101,105,0
456.87448,457.027,93,88,0
456.87448,457.027,89,88,0
457.027,457.17908,92,85,0
457.027,457.17908,88,85,0
457.027,457.17908,100,101,0
457.17908,457.33167,91,98,0
457.17908,457.33167,87,84,0
457.17908,457.33167,99,98,0
457.33167,457.48505,98,97,0
457.33167,457.48505,90,82,0
457.33167,457.48505,86,82,0
457.48505,457.63922,85,81,0
457.48505,457.63922,89,81,0
457.48505,457.63922,97,96,0
457.63922,457.79425,96,95,0
457.63922,457.79425,84,80,0
457.63922,457.79425,90,80,0
457.79425,457.96045,85,90,0
457.79425,457.96045,97,107,0
457.79425,457.96045,89,90,0
457.96045,458.13336,90,84,0
457.96045,458.13336,96,99,0
457.96045,458.13336,84,84,0
458.13336,458.30286,97,107,0
458.13336,458.30286,89,90,0
458.13336,458.30286,85,90,0
458.30286,458.47934,84,84,0
458.30286,458.47934,90,84,0
458.30286,458.47934,96,99,0
458.47934,458.65326,89,90,0
458.47934,458.65326,97,107,0
458.47934,458.65326,85,90,0
458.65326,458.83685,84,81,0
458.65326,458.83685,72,68,0
458.82272,459.00635,85,88,0
458.82272,459.00635,73,74,0
458.99222,459.17697,84,81,0
458.99222,459.17697,72,68,0
459.1617,459.25317,85,88,0
459.1617,459.25317,73,74,0
459.34464,459.53247,61,62,0
459.34464,459.53247,73,74,0
459.51807,459.70654,74,80,0
459.51807,459.70654,62,68,0
459.69098,459.87787,75,72,0
459.69098,459.87787,63,61,0
460.05078,460.13724,68,67,0
460.05078,460.13724,71,79,0
459.87787,460.2237,64,80,0
459.87787,460.2237,76,97,0
460.3966,460.48486,76,79,0
460.3966,460.48486,71,67,0
460.2237,460.5731,80,88,0
460.2237,460.5731,68,74,0
460.74548,460.8317,76,67,0
460.74548,460.8317,80,79,0
460.9179,461.00412,76,67,0
460.9179,461.00412,80,79,0
460.5731,461.09033,73,89,0
460.5731,461.09033,85,105,0
461.09033,461.17654,83,96,0
461.09033,461.17654,71,80,0
461.26273,461.34747,69,85,0
461.26273,461.34747,76,85,0
461.26273,461.34747,73,85,0
461.26273,461.34747,81,100,0
461.43222,461.51697,68,77,0
461.43222,461.51697,80,92,0
461.6017,461.68893,79,92,0
461.6017,461.68893,67,77,0
461.74707,461.84695,69,74,0
461.73254,461.8611,66,72,0
461.7616,461.8611,73,76,0
461.77615,461.8611,78,93,0
461.9461,462.0311,65,77,0
461.9461,462.0311,77,92,0
462.1161,462.2028,76,80,0
462.07358,462.2028,64,60,0
462.08777,462.2028,69,64,0
462.10193,462.2028,73,67,0
462.2895,462.37546,75,90,0
462.2895,462.37546,63,75,0
462.46143,462.5546,76,77,0
462.41843,462.5546,64,65,0
462.43277,462.5546,69,65,0
462.44708,462.5546,73,65,0
462.82065,462.9071,68,67,0
462.82065,462.9071,71,79,0
462.64777,462.99356,76,97,0
462.64777,462.99356,64,80,0
463.16647,463.25473,71,67,0
463.16647,463.25473,76,79,0
462.99356,463.34296,80,88,0
462.99356,463.34296,68,74,0
463.51538,463.60156,80,79,0
463.51538,463.60156,76,67,0
463.68777,463.774,80,79,0
463.68777,463.774,76,67,0
463.34296,463.8602,85,105,0
463.34296,463.8602,73,89,0
463.8602,463.9464,71,80,0
463.8602,463.9464,83,96,0
464.03262,464.11734,73,79,0
464.03262,464.11734,81,95,0
464.03262,464.11734,69,79,0
464.03262,464.11734,76,79,0
464.2021,464.28683,68,77,0
464.2021,464.28683,80,92,0
464.37158,464.4573,66,77,0
464.37158,464.4573,78,92,0
464.54303,464.6323,76,77,0
464.54303,464.6323,64,60,0
464.54303,464.6323,73,64,0
464.54303,464.63974,69,63,0
464.7216,465.09656,81,93,0
464.7216,465.09656,73,77,0
464.7216,465.09656,76,77,0
464.7216,465.09656,69,77,0
465.09656,465.48502,76,71,0
465.09656,465.48502,85,84,0
465.09656,465.48502,73,71,0
465.09656,465.48502,81,71,0
465.48502,465.58096,92,57,0
465.48502,465.58096,86,57,0
465.58096,465.67407,100,58,0
465.67407,465.76483,95,59,0
465.67407,465.76483,88,59,0
465.76483,465.8549,100,61,0
465.8549,465.94455,86,63,0
465.8549,465.94455,92,63,0
465.94455,466.03378,100,64,0
466.03378,466.12265,95,66,0
466.03378,466.12265,88,66,0
466.12265,466.21115,100,67,0
466.21115,466.29974,92,69,0
466.21115,466.29974,86,69,0
466.29974,466.3877,100,70,0
466.3877,466.47513,88,72,0
466.3877,466.47513,95,72,0
466.47513,466.56198,100,72,0
466.56198,466.64844,86,71,0
466.56198,466.64844,92,71,0
466.64844,466.7349,100,70,0
466.7349,466.82135,88,70,0
466.7349,466.82135,95,70,0
466.82135,466.9078,100,69,0
466.9078,466.9923,93,74,0
466.9078,466.9923,85,74,0
466.9923,467.0768,100,67,0
467.0768,467.16302,97,70,0
467.0768,467.16302,88,70,0
467.16302,467.24924,100,66,0
467.24924,467.33423,93,71,0
467.24924,467.33423,85,71,0
467.33423,467.4192,100,65,0
467.4192,467.50797,88,71,0
467.4192,467.50797,97,71,0
467.50797,467.5967,100,64,0
467.5967,467.6805,93,72,0
467.5967,467.6805,85,72,0
467.6805,467.7643,100,63,0
467.7643,467.85052,88,66,0
467.7643,467.85052,97,66,0
467.85052,467.93674,100,60,0
467.93674,468.02173,85,64,0
467.93674,468.02173,93,64,0
468.02173,468.1067,100,59,0
468.1067,468.19705,88,64,0
468.1067,468.19705,97,64,0
468.19705,468.28766,100,58,0
468.28766,468.3788,92,63,0
468.28766,468.3788,86,63,0
468.3788,468.46927,100,63,0
468.46927,468.55905,88,64,0
468.46927,468.55905,95,64,0
468.55905,468.64902,100,65,0
468.64902,468.73868,92,65,0
468.64902,468.73868,86,65,0
468.73868,468.8279,100,66,0
468.8279,468.91678,88,67,0
468.8279,468.91678,95,67,0
468.91678,469.00528,100,69,0
469.00528,469.09387,92,69,0
469.00528,469.09387,86,69,0
469.09387,469.18185,100,70,0
469.18185,469.26926,95,72,0
469.18185,469.26926,88,72,0
469.26926,469.3561,100,72,0
469.3561,469.44257,86,71,0
469.3561,469.44257,92,71,0
469.44257,469.52902,100,70,0
469.52902,469.61548,88,70,0
469.52902,469.61548,95,70,0
469.61548,469.70193,100,69,0
469.70193,469.78644,93,74,0
469.70193,469.78644,85,74,0
469.78644,469.87094,100,67,0
469.87094,469.95715,88,70,0
469.87094,469.95715,97,70,0
469.95715,470.04337,100,66,0
470.04337,470.12836,93,71,0
470.04337,470.12836,85,71,0
470.12836,470.21335,100,65,0
470.21335,470.3021,88,71,0
470.21335,470.3021,97,71,0
470.3021,470.39084,100,64,0
470.39084,470.47464,85,72,0
470.39084,470.47464,93,72,0
470.47464,470.55844,100,61,0
470.55844,470.64465,97,64,0
470.55844,470.64465,88,64,0
470.64465,470.73087,100,58,0
470.73087,470.81586,93,60,0
470.73087,470.81586,85,60,0
470.81586,470.90085,100,54,0
470.90085,470.9912,88,59,0
470.90085,470.9912,97,59,0
470.9912,471.08157,100,52,0
471.08157,471.1229,90,71,0
471.08157,471.1229,98,71,0
471.1229,471.1641,100,75,0
471.1641,471.19156,102,79,0
471.41553,471.4566,86,71,0
471.41553,471.4566,95,71,0
471.4566,471.4977,97,75,0
471.4977,471.52512,98,80,0
471.74844,471.78955,92,71,0
471.74844,471.78955,83,71,0
471.78955,471.83063,93,75,0
471.83063,471.85803,95,80,0
472.0823,472.12363,80,71,0
472.0823,472.12363,88,71,0
472.12363,472.16498,90,75,0
472.16498,472.1925,92,80,0
472.41873,472.46875,69,66,0
472.46875,472.5179,71,67,0
472.5179,472.5677,73,68,0
472.567,472.61664,74,69,0
472.61664,472.66544,76,70,0
472.66544,472.7148,78,71,0
472.7148,472.76337,80,72,0
472.76337,472.81253,81,73,0
472.8118,472.86087,83,74,0
472.86087,472.9091,85,75,0
472.9091,472.9579,86,76,0
472.9579,473.00586,88,77,0
473.00586,473.05444,90,78,0
473.05374,473.10358,92,79,0
473.10358,473.1519,93,80,0
473.1519,473.19952,95,81,0
473.19952,473.2478,97,82,0
473.2471,473.2946,98,84,0
473.2953,473.34277,100,85,0
473.34277,473.39093,102,86,0
473.39093,473.4383,104,87,0
473.439,473.52493,105,88,0
473.6109,473.69687,97,71,0
473.6109,473.69687,93,71,0
473.78284,473.82416,98,71,0
473.78284,473.82416,90,71,0
473.82416,473.86536,100,75,0
473.86536,473.89282,102,79,0
474.1168,474.15787,86,71,0
474.1168,474.15787,95,71,0
474.15787,474.19897,97,75,0
474.19897,474.22638,98,80,0
474.4497,474.4908,83,71,0
474.4497,474.4908,92,71,0
474.4908,474.5319,93,75,0
474.5319,474.5593,95,80,0
474.78357,474.8249,80,71,0
474.78357,474.8249,88,71,0
474.8249,474.86624,90,75,0
474.86624,474.89377,92,80,0
475.12,475.17,69,66,0
475.17,475.21918,71,67,0
475.21918,475.26895,73,68,0
475.26825,475.3179,74,69,0
475.3179,475.3667,76,70,0
475.3667,475.41608,78,71,0
475.41608,475.46463,80,72,0
475.46463,475.5138,81,73,0
475.51306,475.56213,83,74,0
475.56213,475.61035,85,75,0
475.61035,475.65915,86,76,0
475.65915,475.70712,88,77,0
475.70712,475.7557,90,78,0
475.755,475.80484,92,79,0
475.80484,475.85315,93,80,0
475.85315,475.9008,95,81,0
475.9008,475.94907,97,82,0
475.94836,475.99585,98,84,0
475.99655,476.04404,100,85,0
476.04404,476.0922,102,86,0
476.0922,476.13956,104,87,0
476.14026,476.2262,105,88,0
476.48407,476.52542,95,71,0
476.48407,476.52542,87,71,0
476.52542,476.56662,97,75,0
476.56662,476.5941,99,79,0
476.81805,476.85913,92,71,0
476.81805,476.85913,83,71,0
476.85913,476.90024,94,75,0
476.90024,476.92764,95,80,0
477.15097,477.19208,89,71,0
477.15097,477.19208,80,71,0
477.19208,477.23315,90,75,0
477.23315,477.26056,92,80,0
477.48483,477.52615,77,71,0
477.48483,477.52615,85,71,0
477.52615,477.5675,87,75,0
477.5675,477.59503,89,80,0
477.82126,477.87128,66,66,0
477.87128,477.92044,68,67,0
477.92044,477.9702,70,68,0
477.9695,478.01913,71,69,0
478.01913,478.06796,73,70,0
478.06796,478.11734,75,71,0
478.11734,478.1659,77,72,0
478.1659,478.21506,78,73,0
478.21432,478.2634,80,74,0
478.2634,478.3116,82,75,0
478.3116,478.3604,83,76,0
478.3604,478.4084,85,77,0
478.4084,478.45697,87,78,0
478.45627,478.5061,89,79,0
478.5061,478.5544,90,80,0
478.5544,478.60205,92,81,0
478.60205,478.65033,94,82,0
478.64963,478.6971,95,84,0
478.6978,478.7453,97,85,0
478.7453,478.79346,99,86,0
478.79346,478.84082,101,87,0
478.84152,478.92746,102,88,0
479.01343,479.0994,94,71,0
479.01343,479.0994,90,71,0
479.18533,479.22668,87,71,0
479.18533,479.22668,95,71,0
479.22668,479.26788,97,75,0
479.26788,479.29535,99,79,0
479.51932,479.5604,92,71,0
479.51932,479.5604,83,71,0
479.5604,479.6015,94,75,0
479.6015,479.6289,95,80,0
479.85223,479.89334,80,71,0
479.85223,479.89334,89,71,0
479.89334,479.93442,90,75,0
479.93442,479.96182,92,80,0
480.1861,480.22742,77,71,0
480.1861,480.22742,85,71,0
480.22742,480.26874,87,75,0
480.26874,480.2963,89,80,0
480.52252,480.57254,66,66,0
480.57254,480.6217,68,67,0
480.6217,480.67148,70,68,0
480.67078,480.7204,71,69,0
480.7204,480.76923,73,70,0
480.76923,480.8186,75,71,0
480.8186,480.86716,77,72,0
480.86716,480.91632,78,73,0
480.9156,480.96466,80,74,0
480.96466,481.01288,82,75,0
481.01288,481.06168,83,76,0
481.06168,481.10965,85,77,0
481.10965,481.15823,87,78,0
481.15753,481.20737,89,79,0
481.20737,481.2746,90,80,0
481.2746,481.34183,92,81,0
481.34183,481.40884,94,82,0
481.40884,481.4759,95,84,0
481.4759,481.543,97,85,0
481.543,481.6133,99,88,0
481.6133,481.6855,97,86,0
481.6855,481.7596,96,80,0
481.7596,481.83417,97,86,0
481.83417,481.95193,99,88,0
481.95193,482.03668,101,89,0
482.03668,482.10022,97,67,0
482.12143,482.20123,97,83,0
482.20618,482.2697,97,64,0
482.29092,482.37863,89,82,0
482.37863,482.44443,97,66,0
482.46634,482.5575,97,76,0
482.5631,482.6357,97,60,0
482.6599,482.7508,101,80,0
482.7508,482.819,97,61,0
482.8417,482.93527,97,78,0
482.94104,483.02,97,60,0
483.04633,483.13977,89,77,0
483.13977,483.20987,97,63,0
483.23325,483.32123,97,77,0
483.3267,483.4139,97,63,0
483.44296,483.5287,102,85,0
483.5287,483.59296,97,64,0
483.6144,483.69513,97,83,0
483.7001,483.7644,97,64,0
483.78583,483.8754,90,82,0
483.8754,483.94214,97,66,0
483.96442,484.05582,97,76,0
484.0615,484.1343,97,60,0
484.15857,484.2492,102,80,0
484.2492,484.3172,97,61,0
484.33984,484.43097,97,78,0
484.4366,484.5167,97,60,0
484.5434,484.63657,90,77,0
484.63657,484.70642,97,63,0
484.7297,484.81744,97,77,0
484.82288,484.9101,97,63,0
484.93918,485.02637,101,87,0
485.02637,485.0918,97,67,0
485.1136,485.1957,97,83,0
485.2008,485.2662,97,64,0
485.288,485.37784,89,82,0
485.37784,485.4452,97,66,0
485.46765,485.55997,97,76,0
485.56567,485.63922,97,60,0
485.66373,485.7552,101,80,0
485.7552,485.8238,97,61,0
485.84665,485.93988,97,78,0
485.94565,486.02573,97,60,0
486.05243,486.14618,89,77,0
486.14618,486.2165,97,63,0
486.23993,486.33698,97,77,0
486.34363,486.4243,97,63,0
486.4512,486.53714,102,87,0
486.53714,486.60162,97,67,0
486.6231,486.70407,97,83,0
486.70908,486.77356,97,64,0
486.79504,486.8854,90,82,0
486.8854,486.95316,97,66,0
486.97577,487.06747,97,76,0
487.07315,487.1462,97,60,0
487.17056,487.2601,102,80,0
487.2601,487.32727,97,61,0
487.34967,487.43936,97,78,0
487.44492,487.52332,97,60,0
487.54944,487.64145,90,77,0
487.64145,487.71048,97,63,0
487.7335,487.82013,97,77,0
487.8255,487.9213,97,63,0
487.95325,488.04123,101,89,0
488.04123,488.1072,97,67,0
488.1292,488.21204,97,83,0
488.21716,488.28314,97,64,0
488.30515,488.39633,89,82,0
488.39633,488.46637,97,66,0
488.49078,488.5819,97,76,0
488.58755,488.66016,97,60,0
488.68433,488.77722,101,80,0
488.77722,488.84686,97,61,0
488.8701,488.96365,97,78,0
488.96942,489.055,97,60,0
489.0835,489.18155,89,77,0
489.18155,489.25507,97,63,0
489.27957,489.3719,97,77,0
489.37762,489.46484,97,63,0
489.4939,489.59357,101,76,0
489.59357,489.6683,97,57,0
489.69324,489.79382,97,74,0
489.80054,489.88675,97,57,0
489.91547,490.01822,89,73,0
490.01822,490.09528,97,59,0
490.12097,490.22443,97,68,0
490.23087,490.31326,97,54,0
490.34073,490.44385,101,72,0
490.44385,490.52115,97,54,0
490.54694,490.643,97,70,0
490.64896,490.74118,97,54,0
490.7719,490.87906,89,69,0
490.87906,490.9594,97,56,0
490.9862,491.0871,97,69,0
491.09335,491.1867,97,56,0
491.21667,491.3239,101,78,0
491.3239,491.4047,97,60,0
491.43167,491.53372,97,73,0
491.54007,491.6217,97,56,0
491.649,491.75854,89,71,0
491.75854,491.84113,97,56,0
491.86868,491.973,97,65,0
491.97946,492.06296,97,51,0
492.0909,492.20352,101,67,0
492.20352,492.2885,97,50,0
492.317,492.42468,97,63,0
492.4314,492.5178,97,49,0
492.54675,492.66302,89,62,0
492.66302,492.7509,97,50,0
492.7803,492.8917,97,60,0
492.8986,492.98795,97,49,0
493.01788,493.13864,101,67,0
493.13864,493.23077,97,51,0
493.26178,493.37964,97,63,0
493.38702,493.4827,97,48,0
493.5149,493.64502,89,60,0
493.64502,493.7445,97,48,0
493.77798,493.9054,97,55,0
493.9134,494.01694,97,43,0
494.0515,494.19006,101,56,0
494.19006,494.29453,97,42,0
494.3294,494.46136,97,53,0
494.46957,494.57526,97,41,0
494.61063,494.75247,89,52,0
494.75247,494.8594,97,42,0
494.8951,495.05066,97,50,0
495.06174,495.20416,97,40,0
495.25162,495.41736,102,82,0
495.8924,496.18225,78,58,0
496.4721,497.56497,81,67,0
497.56497,497.69595,80,65,0
497.95303,498.07907,81,59,0
498.07907,498.2062,83,65,0
498.45724,498.5968,86,70,0
498.5968,498.71924,85,65,0
498.96414,499.08658,73,59,0
499.08658,499.20563,75,65,0
499.44373,499.5104,77,60,0
499.5104,499.54373,78,49,0
499.54373,499.57706,80,50,0
499.57706,499.70312,78,65,0
499.9447,500.06375,77,59,0
500.06375,500.1814,78,65,0
500.4167,500.54712,80,70,0
500.54712,501.57367,81,65,0
501.57367,501.69662,80,65,0
501.93954,502.06052,81,59,0
502.06052,502.17816,83,65,0
502.4216,502.5555,86,70,0
502.5555,502.67798,85,65,0
502.92065,503.03995,73,59,0
503.03995,503.1576,75,65,0
503.39288,503.45728,77,60,0
503.45728,503.48947,78,49,0
503.48947,503.52164,80,50,0
503.52164,503.64612,78,65,0
503.89014,504.00964,77,59,0
504.00964,504.12918,78,65,0
504.36823,504.4361,80,70,0
504.4361,504.47003,78,60,0
504.47003,504.50397,80,60,0
504.50397,504.75513,81,65,0
504.99683,505.521,81,65,0
505.521,505.66736,80,59,0
505.96002,506.10638,81,47,0
506.10638,506.26767,83,53,0
506.59024,506.80453,86,57,0
506.80453,508.5151,85,51,0
508.5902,508.64636,49,48,0
508.5902,508.64636,61,48,0
508.73975,508.79562,63,49,0
508.73975,508.79562,51,49,0
508.88843,508.944,65,51,0
508.88843,508.944,53,51,0
509.03632,509.09155,66,52,0
509.03632,509.09155,54,52,0
509.18347,509.23886,56,54,0
509.18347,509.23886,68,54,0
509.18347,509.23886,61,54,0
509.3317,509.3877,67,53,0
509.3317,509.3877,55,53,0
509.4816,509.53824,68,51,0
509.4816,509.53824,56,51,0
509.63937,509.70102,53,49,0
509.63937,509.70102,65,49,0
509.79465,509.8497,66,48,0
509.79465,509.8497,54,48,0
509.9412,509.9959,56,49,0
509.9412,509.9959,68,49,0
510.08682,510.1412,58,51,0
510.08682,510.1412,70,51,0
510.23154,510.28558,71,52,0
510.23154,510.28558,59,52,0
510.37567,510.43,61,54,0
510.37567,510.43,66,54,0
510.37567,510.43,73,54,0
510.52103,510.57593,60,53,0
510.52103,510.57593,72,53,0
510.66797,510.7235,73,51,0
510.66797,510.7235,61,51,0
510.82404,510.88553,70,49,0
510.82404,510.88553,58,49,0
510.97733,511.03082,59,59,0
510.97733,511.03082,71,59,0
511.1247,511.1817,75,51,0
511.1247,511.1817,63,51,0
511.27203,511.32553,68,60,0
511.27203,511.32553,56,60,0
511.4194,511.4764,59,55,0
511.4194,511.4764,71,55,0
511.56726,511.62115,65,60,0
511.56726,511.62115,53,60,0
511.71457,511.77115,68,52,0
511.71457,511.77115,56,52,0
511.86203,511.91602,61,62,0
511.86203,511.91602,49,62,0
512.0097,512.0664,65,56,0
512.0097,512.0664,53,56,0
512.1568,512.21045,54,62,0
512.1568,512.21045,66,62,0
512.30396,512.36066,70,53,0
512.30396,512.36066,58,53,0
512.4509,512.5044,49,63,0
512.4509,512.5044,61,63,0
512.5981,512.65497,54,58,0
512.5981,512.65497,66,58,0
512.74524,512.79877,46,63,0
512.74524,512.79877,58,63,0
512.89166,512.94794,49,55,0
512.89166,512.94794,61,55,0
513.038,513.09155,54,64,0
513.038,513.09155,66,64,0
513.18445,513.259,58,59,0
513.18445,513.259,70,59,0
513.3547,513.429,68,55,0
513.3547,513.429,65,55,0
513.3547,513.4296,73,55,0
513.3547,513.4296,61,55,0
513.50305,513.5774,63,56,0
513.50305,513.5774,75,56,0
513.6502,513.72394,65,59,0
513.6502,513.72394,77,59,0
513.7962,513.8694,66,61,0
513.7962,513.8694,78,61,0
513.9413,514.0148,68,64,0
513.9413,514.0148,80,64,0
513.9413,514.0148,73,64,0
514.0874,514.161,67,63,0
514.0874,514.161,79,63,0
514.23505,514.3094,73,61,0
514.23505,514.3101,68,61,0
514.23505,514.3101,80,61,0
514.3916,514.4732,77,59,0
514.3916,514.4732,65,59,0
514.54663,514.6204,70,58,0
514.54663,514.6204,73,58,0
514.54663,514.62103,66,58,0
514.54663,514.62103,78,58,0
514.6939,514.7677,80,60,0
514.6939,514.7677,68,60,0
514.84,514.91327,70,63,0
514.84,514.91327,82,63,0
514.98505,515.05774,83,65,0
514.98505,515.05774,71,65,0
515.12946,515.20276,85,68,0
515.12946,515.20276,78,68,0
515.12946,515.20276,73,68,0
515.2752,515.3493,72,67,0
515.2752,515.3493,84,67,0
515.4226,515.49695,78,65,0
515.4226,515.49756,85,65,0
515.4226,515.49756,73,65,0
515.5716,515.6469,82,63,0
515.5716,515.6469,70,63,0
515.72095,515.79517,77,62,0
515.72095,515.79517,80,62,0
515.72095,515.7958,85,62,0
515.72095,515.7958,73,62,0
515.8691,515.94324,75,64,0
515.8691,515.94324,87,64,0
516.0158,516.0893,89,67,0
516.0158,516.0893,77,67,0
516.16125,516.2341,90,69,0
516.16125,516.2341,78,69,0
516.30566,516.37897,85,72,0
516.30566,516.37897,80,72,0
516.30566,516.37897,92,72,0
516.4516,516.52527,91,71,0
516.4516,516.52527,79,71,0
516.5994,516.6742,85,69,0
516.5994,516.67487,80,69,0
516.5994,516.67487,92,69,0
516.75635,516.8379,89,67,0
516.75635,516.8379,77,67,0
516.911,516.9844,85,65,0
516.911,516.9844,82,65,0
516.911,516.985,90,65,0
516.911,516.985,78,65,0
517.05743,517.13086,80,67,0
517.05743,517.13086,92,67,0
517.2027,517.27545,94,70,0
517.2027,517.27545,82,70,0
517.34674,517.41895,95,72,0
517.34674,517.41895,83,72,0
517.48987,517.5626,85,76,0
517.48987,517.5626,90,76,0
517.48987,517.5626,97,76,0
517.63477,517.70886,96,75,0
517.63477,517.70886,84,75,0
517.78235,517.85706,90,72,0
517.78235,517.85767,97,72,0
517.78235,517.85767,85,72,0
517.93524,518.0383,82,70,0
517.93524,518.0383,94,70,0
518.1203,518.2036,95,82,0
518.1203,518.2036,83,82,0
518.28625,518.37024,99,71,0
518.28625,518.37024,87,71,0
518.4456,518.5223,92,82,0
518.4456,518.5223,80,82,0
518.6003,518.6795,95,75,0
518.6003,518.6795,83,75,0
518.7534,518.8279,89,83,0
518.7534,518.8279,77,83,0
518.9055,518.9837,80,72,0
518.9055,518.9837,92,72,0
519.0565,519.1306,85,84,0
519.0565,519.1306,73,84,0
519.2068,519.28357,89,78,0
519.2068,519.28357,77,78,0
519.35645,519.4293,82,85,0
519.35645,519.4293,70,85,0
519.50574,519.5826,85,74,0
519.50574,519.5826,73,74,0
519.6542,519.727,78,86,0
519.6542,519.727,66,86,0
519.8022,519.878,70,79,0
519.8022,519.878,82,79,0
519.94965,520.02136,63,86,0
519.94965,520.02136,75,86,0
520.0966,520.1725,78,75,0
520.0966,520.1725,66,75,0
520.2439,520.3165,59,87,0
520.2439,520.3165,71,87,0
520.3912,520.46643,75,81,0
520.3912,520.46643,63,81,0
520.53845,520.6104,68,88,0
520.53845,520.6104,56,88,0
520.68555,520.76117,59,77,0
520.68555,520.76117,71,77,0
520.8326,520.9046,53,89,0
520.8326,520.9053,65,89,0
520.9803,521.0557,56,82,0
520.9803,521.0557,68,82,0
521.12787,521.2001,49,90,0
521.12787,521.2001,61,90,0
521.2757,521.352,53,78,0
521.2757,521.352,65,78,0
521.4241,521.49677,46,91,0
521.4241,521.49744,58,91,0
521.57294,521.64874,61,84,0
521.57294,521.64874,49,84,0
521.722,521.7952,54,92,0
521.87305,521.9513,58,80,0
522.02686,522.1038,51,93,0
522.19165,522.2803,54,85,0
522.2803,522.45746,47,103,0
523.0724,523.1597,75,95,0
523.0724,523.1597,71,80,0
523.0724,523.1597,63,80,0
523.18884,523.53827,71,85,0
523.18884,523.53827,75,101,0
523.18884,523.53827,63,85,0
523.53827,523.6256,68,79,0
523.53827,523.6256,65,79,0
523.53827,523.6256,77,93,0
523.53827,523.6256,71,79,0
523.6547,524.0041,77,101,0
523.6547,524.0041,71,85,0
523.6547,524.0041,68,85,0
523.6547,524.0041,65,85,0
524.0041,524.10126,66,80,0
524.0041,524.10126,70,80,0
524.0041,524.10126,78,95,0
524.0041,524.10126,73,80,0
524.1336,525.1699,66,85,0
524.1336,525.1699,70,85,0
524.1336,525.1699,78,101,0
524.1336,525.1699,73,85,0
525.1699,525.24243,85,85,0
525.1699,525.24243,90,101,0
525.1699,525.24243,82,85,0
525.1699,525.24243,78,85,0
525.46,525.53253,97,85,0
525.46,525.53253,94,85,0
525.46,525.53253,102,101,0
525.46,525.53253,90,85,0
525.7502,525.8227,54,91,0
525.7502,525.8227,66,107,0
2.4738412,2.6073883,53,59,0
2.4738412,2.6073883,44,59,0
2.4738412,2.6073883,37,59,0
2.4738412,2.6073883,56,70,0
2.651904,3.436423,37,67,0
2.651904,3.436423,44,67,0
2.651904,3.436423,53,67,0
2.651904,3.436423,56,79,0
5.0551343,5.188681,32,59,0
5.0551343,5.188681,54,70,0
5.0551343,5.188681,44,59,0
5.0551343,5.188681,50,59,0
5.2331967,6.0075903,54,80,0
5.2331967,6.0075903,32,68,0
5.2331967,6.0075903,44,68,0
5.2331967,6.0075903,50,68,0
7.9216385,8.060561,44,59,0
7.9216385,8.060561,56,70,0
7.9216385,8.060561,37,59,0
7.9216385,8.060561,53,59,0
8.10687,8.891388,53,67,0
8.10687,8.891388,37,67,0
8.10687,8.891388,56,79,0
8.10687,8.891388,44,67,0
10.35554,10.50119,44,53,0
10.35554,10.50119,50,53,0
10.35554,10.50119,32,53,0
10.35554,10.50119,54,63,0
10.54974,11.355326,32,60,0
10.54974,11.355326,44,60,0
10.54974,11.355326,50,60,0
10.54974,11.355326,54,71,0
13.597249,13.731593,53,59,0
13.597249,13.731593,44,50,0
13.597249,13.731593,49,50,0
13.597249,13.731593,37,50,0
13.776375,14.639933,49,57,0
13.776375,14.639933,53,68,0
13.776375,14.639933,37,57,0
13.776375,14.639933,44,57,0
16.50624,16.702782,49,39,0
16.50624,16.702782,44,39,0
16.50624,16.702782,40,39,0
16.50624,16.702782,52,46,0
16.768295,17.591566,40,43,0
16.768295,17.591566,52,51,0
16.768295,17.591566,44,43,0
16.768295,17.591566,49,43,0
20.132303,20.36551,49,36,0
20.132303,20.36551,51,44,0
20.132303,20.36551,44,36,0
20.443249,21.345776,49,43,0
20.443249,21.345776,51,51,0
20.443249,22.828348,44,43,0
22.828348,23.17992,45,50,0
22.248302,23.400671,54,42,0
22.248302,23.400671,51,36,0
22.248302,23.400671,48,36,0
23.124733,23.452972,44,44,0
23.400671,23.718136,47,50,0
23.662176,24.00401,45,43,0
23.941975,24.30811,44,43,0
24.25215,24.591225,42,52,0
24.531948,24.88761,40,43,0
24.828331,25.190853,42,43,0
25.124716,25.684237,39,43,0
25.455404,26.790117,45,49,0
26.790117,26.980665,44,39,0
27.95385,28.127783,44,43,0
28.127783,29.288616,49,52,0
26.980665,29.288616,37,54,0
30.2618,30.43473,44,48,0
30.43473,31.60092,49,54,0
29.288616,31.60092,37,52,0
32.553505,32.730515,44,48,0
32.730515,33.76612,49,54,0
31.60092,33.76612,37,52,0
34.46785,34.655964,45,48,0
34.655964,35.65823,49,54,0
33.76612,35.65823,37,52,0
36.444393,36.617325,44,48,0
36.617325,37.655758,49,54,0
35.65823,37.655758,37,52,0
38.485405,38.661377,44,48,0
38.661377,39.675663,49,54,0
37.655758,39.675663,37,52,0
40.628242,40.805256,47,48,0
40.805256,41.822205,52,54,0
39.675663,41.822205,35,53,0
42.51409,42.7022,47,48,0
42.7022,43.65987,51,53,0
41.822205,43.65987,35,53,0
44.446033,44.61896,47,48,0
44.61896,45.64548,52,58,0
43.65987,45.64548,40,55,0
45.64548,46.34598,40,52,0
46.34598,46.433968,47,48,0
46.521954,47.634277,48,54,0
46.433968,47.634277,32,54,0
48.448906,48.625916,44,52,0
48.625916,49.523182,52,59,0
48.625916,49.523182,49,50,0
47.634277,49.523182,37,62,0
50.174335,50.37186,49,58,0
50.37186,51.31477,57,63,0
50.37186,51.31477,54,53,0
49.523182,51.31477,30,59,0
52.049583,52.222515,44,57,0
52.222515,53.153805,52,68,0
52.222515,53.153805,49,57,0
51.31477,53.153805,25,64,0
53.153805,53.854305,37,70,0
53.854305,54.030277,44,59,0
54.030277,54.859924,56,74,0
54.030277,54.859924,49,63,0
54.859924,55.044563,50,59,0
54.859924,55.044563,38,50,0
55.044563,55.885685,39,54,0
55.044563,55.885685,51,64,0
55.885685,56.062695,51,49,0
55.885685,56.062695,56,58,0
56.062695,57.658962,59,51,0
56.062695,57.658962,63,61,0
57.658962,58.650196,51,64,0
57.658962,58.650196,39,54,0
58.650196,58.983273,51,49,0
58.650196,58.983273,58,58,0
58.983273,59.651695,61,61,0
58.983273,59.651695,63,74,0
63.470448,64.28126,32,28,0
63.470448,64.28126,44,34,0
64.28126,64.45419,51,29,0
64.28126,64.45419,44,24,0
64.45419,65.48071,56,36,0
64.45419,65.48071,51,30,0
65.48071,66.41821,32,23,0
65.48071,66.41821,44,28,0
66.41821,66.66015,51,24,0
66.41821,66.66015,44,20,0
66.66015,67.94586,56,30,0
66.66015,67.94586,51,25,0
68.313835,68.94889,52,42,0
68.313835,68.94889,40,35,0
69.26642,69.44343,56,27,0
69.26642,69.44343,64,33,0
69.26642,69.44343,59,27,0
69.44343,70.421104,68,39,0
69.44343,70.421104,64,33,0
69.44343,70.421104,59,33,0
70.421104,70.900566,40,35,0
70.421104,70.900566,52,42,0
71.12829,71.370224,56,27,0
71.12829,71.370224,64,33,0
71.12829,71.370224,59,27,0
71.370224,72.30232,64,33,0
71.370224,72.30232,68,39,0
71.370224,72.30232,59,33,0
72.30232,72.83452,47,42,0
72.30232,72.83452,35,35,0
73.10062,73.27763,54,27,0
73.10062,73.27763,63,33,0
73.10062,73.27763,59,27,0
73.27763,74.28603,59,33,0
73.27763,74.28603,66,39,0
73.27763,74.28603,63,33,0
74.28603,74.8644,47,42,0
75.15359,75.3306,59,29,0
75.15359,75.3306,63,36,0
75.15359,75.3306,54,29,0
75.3306,75.892715,48,52,0
76.17377,76.36899,68,33,0
76.17377,76.36899,56,27,0
76.17377,76.36899,63,27,0
76.36899,76.958725,49,42,0
76.36899,76.958725,37,35,0
77.25359,77.43061,52,27,0
77.25359,77.43061,61,33,0
77.25359,77.43061,56,27,0
77.43061,78.36272,64,39,0
77.43061,78.36272,56,33,0
77.43061,78.36272,61,33,0
78.36272,78.845276,40,35,0
78.36272,78.845276,52,42,0
79.07474,79.31667,61,27,0
79.07474,79.31667,64,33,0
79.07474,79.31667,56,27,0
79.31667,80.24588,64,33,0
79.31667,80.24588,61,33,0
79.31667,80.24588,68,39,0
80.24588,80.79634,44,42,0
81.07157,81.24858,60,33,0
81.07157,81.24858,56,27,0
81.07157,81.24858,51,27,0
81.24858,82.25698,56,33,0
81.24858,82.25698,63,39,0
81.24858,82.25698,60,33,0
82.25698,82.89204,44,42,0
83.209564,83.42425,56,27,0
83.209564,83.42425,63,33,0
83.209564,83.42425,60,27,0
83.42425,84.62168,63,33,0
83.42425,84.62168,60,33,0
83.42425,84.62168,68,33,0
84.62168,85.01008,32,42,0
85.19894,85.2601,51,31,0
85.2601,85.32127,56,31,0
85.32127,85.38244,63,31,0
85.38244,86.07298,60,42,0
86.07298,86.42493,44,42,0
86.60091,86.654816,56,29,0
86.654816,86.70873,60,29,0
86.70873,86.76265,68,29,0
86.76265,87.45497,63,42,0
87.45497,87.819756,32,42,0
87.99573,88.05114,52,30,0
88.05114,88.106544,56,30,0
88.106544,88.16195,64,30,0
88.16195,88.85338,61,42,0
88.85338,89.20532,44,42,0
89.3813,89.436104,56,30,0
89.436104,89.4909,61,30,0
89.4909,89.5457,68,30,0
89.5457,90.23802,64,42,0
90.23802,90.58418,32,42,0
90.75613,90.81344,51,29,0
90.81344,90.86949,56,29,0
90.86949,90.92429,63,29,0
90.92429,91.61708,60,42,0
91.61708,91.95913,44,42,0
92.132065,92.189705,56,30,0
92.189705,92.245926,60,30,0
92.245926,92.30073,68,30,0
92.30073,93.002716,63,42,0
93.002716,93.3514,32,42,0
93.52285,93.57961,52,30,0
93.57961,93.636215,56,30,0
93.636215,93.69256,64,30,0
93.69256,94.35161,61,42,0
94.35161,94.68203,44,42,0
94.84685,94.90158,56,30,0
94.90158,94.95699,61,30,0
94.95699,95.01217,68,30,0
95.01217,95.68091,64,42,0
96.186745,96.24373,56,31,0
96.24373,96.30072,60,31,0
96.30072,96.357704,68,31,0
95.68091,96.357704,32,46,0
96.357704,97.020355,63,46,0
97.51903,97.57443,63,33,0
97.57443,97.62984,72,33,0
97.62984,97.68525,75,33,0
97.020355,97.68525,44,46,0
97.68525,98.35963,68,46,0
98.86479,98.92178,56,31,0
98.92178,98.97877,61,31,0
98.97877,99.03575,68,31,0
98.35963,99.03575,32,46,0
99.03575,99.70287,64,46,0
100.201546,100.25695,64,33,0
100.25695,100.31236,73,33,0
100.31236,100.36777,76,33,0
99.70287,100.36777,44,46,0
100.36777,101.0597,68,46,0
101.56554,101.62252,56,31,0
101.62252,101.679504,60,31,0
101.679504,101.736496,68,31,0
101.0597,101.736496,32,46,0
101.736496,102.39915,63,47,0
102.89664,102.95084,63,34,0
102.95084,103.00505,72,34,0
103.00505,103.05926,75,34,0
102.39915,103.05926,44,49,0
103.05926,103.72191,68,51,0
104.24205,104.298805,56,34,0
104.298805,104.35541,61,34,0
104.35541,104.41175,68,34,0
103.72191,104.41175,32,48,0
104.41175,105.0708,64,48,0
105.5662,105.624374,64,34,0
105.624374,105.69027,73,34,0
105.69027,105.74973,76,34,0
105.0708,105.74973,44,48,0
105.74973,106.418076,68,42,0
106.418076,106.50063,44,42,0
106.58228,106.663055,51,34,0
106.742966,106.82286,54,34,0
106.90234,106.98151,60,34,0
107.06036,107.13901,63,42,0
107.21764,107.29629,68,35,0
107.37493,107.45357,63,35,0
107.53221,107.610855,68,35,0
107.68949,107.77485,44,42,0
107.8602,107.937225,51,34,0
108.01425,108.09128,54,34,0
108.168304,108.24533,60,34,0
108.32236,108.39938,63,42,0
108.47641,108.55344,68,35,0
108.630455,108.70748,63,35,0
108.78451,108.875565,68,35,0
108.96661,109.044846,44,42,0
109.12308,109.20131,52,34,0
109.27954,109.3586,56,34,0
109.43765,109.51671,61,34,0
109.595665,109.67431,64,42,0
109.752945,109.83159,68,35,0
109.91023,109.99013,64,35,0
110.07002,110.153946,68,35,0
110.23787,110.316505,44,43,0
110.39515,110.47346,52,34,0
110.55168,110.629585,56,39,0
110.70741,110.784904,61,34,0
110.862305,110.94013,64,45,0
111.01795,111.09578,68,35,0
111.17361,111.2625,64,41,0
111.351395,111.440285,68,35,0
111.52918,111.60824,44,43,0
111.687294,111.76635,51,34,0
111.845406,111.922035,54,39,0
111.998665,112.0753,60,34,0
112.15193,112.22866,63,45,0
112.305885,112.38361,68,35,0
112.461945,112.540794,63,41,0
112.62016,112.700165,68,35,0
112.78071,112.866554,44,42,0
112.95239,113.03823,51,34,0
113.12408,113.20673,54,34,0
113.28938,113.37204,60,34,0
113.45469,113.54217,63,42,0
113.62964,113.71711,68,35,0
113.80459,113.900444,63,35,0
113.99631,114.09216,68,35,0
114.33839,114.43231,37,46,0
114.52535,114.61505,44,37,0
114.701645,114.786995,53,37,0
114.87187,114.95626,56,37,0
115.040184,115.123634,61,45,0
115.20663,115.28916,68,37,0
115.37125,115.45267,61,37,0
115.53543,115.61959,68,37,0
115.70531,115.786285,49,44,0
115.865555,115.943184,56,35,0
116.021416,116.10132,65,35,0
116.179955,116.2586,68,35,0
116.33734,116.4164,73,43,0
116.49545,116.57248,80,35,0
116.6528,116.73292,73,35,0
116.81468,116.90079,80,35,0
116.98714,117.07013,73,31,0
117.07013,117.152664,80,26,0
117.152664,117.23486,73,31,0
117.23486,117.31672,80,26,0
117.31672,117.39836,73,33,0
117.39836,117.47955,80,27,0
117.47955,117.560425,73,33,0
117.560425,117.64075,80,28,0
117.64075,117.7198,73,35,0
117.7198,117.79876,80,30,0
117.79876,117.877396,73,36,0
117.877396,117.955734,80,32,0
117.955734,118.033966,73,36,0
118.033966,118.111786,80,33,0
118.111786,118.189415,73,38,0
118.189415,118.26684,80,34,0
118.26684,118.343864,73,40,0
118.343864,118.42089,80,33,0
118.42089,118.49801,73,39,0
118.49801,118.57544,80,31,0
118.57544,118.65286,73,37,0
118.65286,118.730484,80,30,0
118.730484,118.80831,73,36,0
118.80831,118.88613,80,29,0
118.88613,118.96436,73,35,0
118.96436,119.04301,80,29,0
119.04301,119.12216,73,33,0
119.12216,119.201744,80,29,0
119.201744,119.28186,73,32,0
119.28186,119.3624,80,28,0
119.3624,119.44349,73,31,0
119.44349,119.52501,80,26,0
119.52501,119.566055,73,31,0
119.566055,119.64814,80,31,0
126.15547,126.289024,56,70,0
126.15547,126.289024,44,59,0
126.15547,126.289024,37,59,0
126.15547,126.289024,53,59,0
126.15547,126.289024,49,59,0
126.333534,127.11806,44,67,0
126.333534,127.11806,49,67,0
126.333534,127.11806,37,67,0
126.333534,127.11806,56,79,0
126.333534,127.11806,53,67,0
128.71526,128.8488,38,59,0
128.71526,128.8488,42,59,0
128.71526,128.8488,54,70,0
128.71526,128.8488,47,59,0
128.71526,128.8488,50,59,0
128.89333,129.53244,50,68,0
128.89333,129.53244,38,68,0
128.89333,129.53244,42,68,0
128.89333,129.53244,47,68,0
128.89333,129.53244,54,80,0
131.33075,131.46967,53,59,0
131.33075,131.46967,56,70,0
131.33075,131.46967,49,59,0
131.33075,131.46967,44,59,0
131.33075,131.46967,37,59,0
131.51598,132.2313,53,67,0
131.51598,132.2313,44,67,0
131.51598,132.2313,49,67,0
131.51598,132.2313,37,67,0
131.51598,132.2313,56,79,0
133.69543,133.8411,54,63,0
133.69543,133.8411,38,53,0
133.69543,133.8411,42,53,0
133.69543,133.8411,50,53,0
133.69543,133.8411,47,53,0
133.88963,134.57239,50,60,0
133.88963,134.57239,47,60,0
133.88963,134.57239,54,71,0
133.88963,134.57239,38,60,0
133.88963,134.57239,42,60,0
136.85379,137.00307,53,59,0
136.85379,137.00307,49,50,0
136.85379,137.00307,44,50,0
136.85379,137.00307,37,50,0
137.03291,137.91165,49,57,0
137.03291,137.91165,53,68,0
137.03291,137.91165,37,57,0
137.03291,137.91165,44,57,0
139.73105,139.91064,49,39,0
139.73105,139.91064,52,46,0
139.73105,139.91064,40,39,0
139.73105,139.91064,44,39,0
139.9705,140.79378,40,43,0
139.9705,140.79378,49,43,0
139.9705,140.79378,44,43,0
139.9705,140.79378,52,51,0
143.5901,143.83932,49,33,0
143.5901,143.83932,51,40,0
143.5901,143.83932,44,33,0
143.92241,144.87509,51,46,0
143.92241,144.87509,44,39,0
143.92241,144.87509,49,39,0
146.72356,147.61935,44,26,0
150.07042,150.6891,32,39,0
150.6891,151.66757,33,42,0
151.66757,151.99373,35,46,0
151.99373,152.31126,37,55,0
153.03482,153.12332,37,42,0
153.12332,154.41835,49,52,0
154.41835,154.66531,48,43,0
154.19019,154.66531,30,47,0
154.66531,154.92067,49,52,0
154.92067,155.14627,51,55,0
155.14627,155.39735,52,57,0
155.39735,155.64845,45,48,0
155.64845,155.89954,52,55,0
155.89954,156.14854,51,43,0
156.14854,156.36755,49,51,0
156.80557,156.8871,37,43,0
156.8871,156.96864,44,45,0
156.96864,157.05019,49,46,0
157.05019,157.13173,51,48,0
157.13173,157.98886,49,56,0
157.98886,158.17017,48,48,0
159.17578,159.72888,37,43,0
158.17017,160.00543,49,56,0
160.00543,160.09775,51,49,0
160.19006,160.47313,52,57,0
160.09775,160.47313,35,53,0
161.32236,162.62215,52,63,0
162.62215,162.8547,51,46,0
162.39397,162.8547,35,48,0
162.8547,163.0986,52,56,0
163.0986,163.3038,54,61,0
163.3038,163.54002,56,66,0
163.54002,163.77625,47,53,0
163.77625,164.01247,56,60,0
164.01247,164.26147,54,48,0
164.26147,164.52353,52,61,0
165.04764,165.1283,37,48,0
165.1283,165.20895,47,49,0
165.20895,165.28961,52,50,0
165.28961,165.37029,54,51,0
165.37029,166.21156,52,64,0
166.21156,166.39285,51,51,0
166.39285,166.64496,52,59,0
167.32513,168.15477,52,44,0
168.15477,168.32625,51,45,0
168.32625,168.38185,37,39,0
168.38185,168.43745,49,41,0
167.32513,168.43745,44,48,0
168.43745,168.98053,61,64,0
169.52362,170.81865,49,57,0
170.81865,171.05435,48,43,0
170.59047,171.05435,30,47,0
171.05435,171.30971,49,52,0
171.30971,171.52824,51,55,0
171.52824,171.77159,52,57,0
171.77159,172.01494,45,48,0
172.01494,172.25829,52,55,0
172.25829,172.5073,51,43,0
172.5073,172.73988,49,51,0
173.416,173.92891,37,61,0
173.416,174.18536,49,56,0
174.18536,174.41978,48,57,0
174.41978,174.66573,49,81,0
175.40355,175.86873,46,66,0
175.86873,176.17926,45,77,0
175.40355,176.36372,61,66,0
175.40355,176.36372,55,52,0
175.40355,176.36372,52,52,0
176.24075,176.36372,52,55,0
176.36372,176.60966,64,69,0
176.30223,176.60966,56,55,0
176.17926,176.60966,44,55,0
177.36183,178.7222,32,77,0
178.70842,178.82654,31,38,0
178.82654,178.94385,32,39,0
178.94385,179.0606,33,39,0
179.0606,179.17662,36,42,0
179.17662,179.29202,37,43,0
179.29202,179.40663,39,45,0
179.40663,179.52072,40,47,0
179.52072,179.63412,42,49,0
179.63412,179.76572,44,51,0
179.76572,179.87901,47,53,0
179.87901,179.98941,45,46,0
179.98941,180.09898,44,43,0
180.09898,180.2077,43,43,0
180.2077,180.33078,44,45,0
180.33078,180.4357,45,46,0
180.4357,180.53867,48,47,0
180.53867,180.6397,49,49,0
180.6397,180.73872,51,50,0
180.73872,180.83607,52,51,0
180.83607,180.93164,54,52,0
180.93164,181.03027,55,57,0
181.03027,181.13097,56,62,0
181.13097,181.23164,59,69,0
181.23164,181.33234,57,58,0
181.33234,181.42728,56,47,0
181.42728,181.52223,57,48,0
181.52223,181.61717,60,49,0
181.61717,181.71213,61,50,0
181.71213,181.80707,63,51,0
181.80707,181.90202,64,52,0
181.90202,181.99698,66,53,0
191.68605,192.3211,45,36,0
192.63863,192.81564,61,27,0
192.63863,192.81564,64,27,0
192.63863,192.81564,69,33,0
192.81564,193.82405,73,39,0
192.81564,193.82405,69,33,0
192.81564,193.82405,64,33,0
193.82405,194.30661,49,42,0
194.54099,194.78291,61,27,0
194.54099,194.78291,64,27,0
194.54099,194.78291,69,33,0
194.78291,195.71971,64,33,0
194.78291,195.71971,69,33,0
194.78291,195.71971,73,39,0
195.71971,196.27017,40,42,0
196.5454,196.72241,59,27,0
196.5454,196.72241,68,33,0
196.5454,196.72241,64,27,0
196.72241,197.68422,68,33,0
196.72241,197.68422,64,33,0
196.72241,197.68422,71,39,0
198.81381,199.82222,68,52,0
198.81381,199.82222,61,39,0
198.81381,199.82222,53,39,0
199.82222,200.36285,42,42,0
200.63316,200.81018,61,27,0
200.63316,200.81018,66,33,0
200.63316,200.81018,57,27,0
200.81018,201.81859,61,33,0
200.81018,201.81859,69,39,0
200.81018,201.81859,66,33,0
201.81859,202.30115,45,42,0
202.53552,202.77745,57,27,0
202.53552,202.77745,66,33,0
202.53552,202.77745,61,27,0
202.77745,203.71425,66,33,0
202.77745,203.71425,69,39,0
202.77745,203.71425,61,33,0
203.71425,204.26471,49,42,0
204.53993,204.71695,61,27,0
204.53993,204.71695,64,33,0
204.53993,204.71695,56,27,0
204.71695,205.72534,61,33,0
204.71695,205.72534,64,33,0
204.71695,205.72534,68,39,0
207.45094,207.58734,37,39,0
207.58734,207.72011,39,43,0
207.72011,207.85287,40,47,0
207.85287,208.41373,42,50,0
208.87115,210.37965,57,33,0
208.87115,210.37965,62,33,0
208.87115,210.37965,54,33,0
208.87115,210.37965,66,39,0
211.5162,211.65259,38,39,0
211.65259,211.78535,40,43,0
211.78535,211.91812,42,47,0
211.91812,212.19855,44,50,0
212.93642,214.52185,54,33,0
212.93642,214.52185,57,33,0
212.93642,214.52185,62,39,0
212.93642,214.52185,60,33,0
216.33694,216.96799,45,28,0
217.59904,218.60744,57,26,0
217.59904,218.60744,52,26,0
217.59904,218.60744,61,31,0
218.60744,219.09,49,37,0
219.56631,220.5031,61,35,0
219.56631,220.5031,57,29,0
219.56631,220.5031,52,29,0
220.5031,221.05356,40,37,0
221.5058,222.46762,59,35,0
221.5058,222.46762,56,29,0
221.5058,222.46762,52,29,0
223.59721,224.6056,41,35,0
223.59721,224.6056,49,35,0
223.59721,224.6056,56,46,0
224.6056,224.87593,42,37,0
225.59358,226.60199,57,35,0
225.59358,226.60199,54,29,0
225.59358,226.60199,49,29,0
226.60199,227.08453,45,37,0
227.60089,228.53769,57,35,0
227.60089,228.53769,54,29,0
227.60089,228.53769,49,29,0
228.53769,229.08815,37,37,0
229.54039,230.5488,49,29,0
229.54039,230.5488,52,29,0
229.54039,230.5488,56,35,0
232.2744,232.41078,37,35,0
232.41078,232.54355,39,38,0
232.54355,232.67632,40,42,0
232.67632,233.23717,30,45,0
233.69461,235.22484,45,29,0
233.69461,235.22484,54,35,0
233.69461,235.22484,42,29,0
233.69461,235.22484,50,29,0
236.39896,236.55347,38,35,0
236.55347,236.70041,40,38,0
236.70041,236.84735,42,42,0
236.84735,237.36919,32,45,0
237.89102,241.02199,45,26,0
237.89102,241.02199,42,26,0
237.89102,241.02199,50,31,0
237.89102,241.02199,48,26,0
242.83131,242.99248,32,30,0
242.99248,243.15363,33,31,0
243.15363,243.31477,36,33,0
243.31477,245.17981,37,31,0
245.17981,245.32407,37,30,0
245.32407,245.46832,35,31,0
245.46832,245.61258,37,33,0
245.61258,247.01172,35,31,0
247.01172,247.27924,37,31,0
247.27924,247.51207,40,35,0
247.51207,247.7492,38,33,0
247.7492,247.98363,37,35,0
247.99925,250.08304,37,31,0
250.08304,250.25934,37,30,0
250.25934,250.43564,35,31,0
250.43564,250.61195,37,31,0
250.61195,252.16492,35,31,0
252.16492,252.41466,33,35,0
252.41466,252.64174,32,30,0
252.64174,252.8688,35,35,0
252.8688,253.12494,33,31,0
253.12494,253.42625,32,31,0
253.4693,256.5042,32,31,0
256.5042,260.3004,32,39,0
260.3004,265.74835,32,23,0
260.3004,265.74835,37,27,0
260.3004,265.74835,25,23,0
275.6357,275.69208,68,29,0
275.69208,275.7484,77,29,0
275.7484,276.21417,68,38,0
276.6654,276.7233,92,36,0
276.7233,276.78116,97,33,0
276.78116,277.23752,92,45,0
277.68604,277.7437,61,29,0
277.7437,277.80136,69,29,0
277.80136,278.2589,61,38,0
278.70862,278.76498,90,36,0
278.76498,278.82132,97,36,0
278.82132,279.2761,90,45,0
279.72003,279.77637,68,29,0
279.77637,279.83273,77,29,0
279.83273,280.2968,68,38,0
280.74808,280.80594,92,36,0
280.80594,280.8638,97,33,0
280.8638,281.3234,92,45,0
281.7704,281.82803,61,29,0
281.82803,281.88568,69,29,0
281.88568,282.34485,61,38,0
282.79456,282.85092,90,36,0
282.85092,282.9073,97,36,0
282.9073,283.33743,90,45,0
283.8034,283.85974,68,29,0
283.85974,283.9161,77,29,0
283.9161,284.3718,68,38,0
284.80405,284.8604,92,36,0
284.8604,284.91675,97,36,0
284.91675,285.29462,92,45,0
285.81235,285.86868,61,29,0
285.86868,285.92947,69,29,0
285.92947,286.30457,61,38,0
286.80927,286.86563,90,36,0
286.86563,286.92957,97,36,0
286.92957,287.30325,90,45,0
287.80798,287.86435,68,29,0
287.86435,287.92514,77,29,0
287.92514,288.29883,68,38,0
288.80356,288.8599,92,36,0
288.8599,288.91626,97,36,0
288.91626,289.28998,92,45,0
289.7905,289.84686,61,29,0
289.84686,289.90762,69,29,0
289.90762,290.2827,61,38,0
290.80014,290.8565,90,36,0
290.8565,290.9173,97,36,0
290.9173,291.4736,90,45,0
291.71262,291.8244,52,44,0
291.93558,292.0461,59,44,0
292.15616,292.26556,65,44,0
292.37442,292.48273,69,50,0
292.59103,292.69934,61,46,0
292.80765,292.91833,68,50,0
293.02902,293.14355,61,46,0
293.4878,293.6007,49,44,0
293.71182,293.82227,57,44,0
293.93207,294.04132,61,44,0
294.14987,294.25784,69,50,0
294.36575,294.47366,61,46,0
294.5816,294.6947,66,50,0
294.80707,294.9194,61,46,0
295.26523,295.37692,49,44,0
295.48712,295.59677,59,44,0
295.70593,295.81448,65,44,0
295.92255,296.03036,69,50,0
296.1383,296.24622,61,46,0
296.35413,296.4656,68,50,0
296.57672,296.6922,61,46,0
297.03934,297.15045,49,44,0
297.26007,297.36942,57,44,0
297.47842,297.58713,61,44,0
297.6954,297.80356,69,50,0
297.91147,298.01938,61,46,0
298.1273,298.23682,66,50,0
298.34753,298.45822,61,46,0
298.8041,298.91678,49,44,0
299.02643,299.1356,59,44,0
299.2442,299.35236,65,44,0
299.67438,299.78152,65,46,0
299.88867,299.99738,59,50,0
300.10767,300.2213,49,46,0
300.5618,300.67514,49,44,0
300.78543,300.89508,57,44,0
301.00394,301.11206,66,44,0
301.4332,301.53995,66,46,0
301.64673,301.75867,57,50,0
301.8706,301.98254,49,46,0
302.32718,302.43692,49,44,0
302.546,302.65445,59,44,0
302.7622,302.86935,65,44,0
303.18936,303.29575,65,46,0
303.40213,303.51273,59,50,0
303.62384,303.74023,49,46,0
304.08508,304.1985,49,44,0
304.30994,304.42047,57,44,0
304.5301,304.63885,66,44,0
304.9612,305.06836,66,46,0
305.1755,305.28912,57,50,0
305.40533,305.5215,49,46,0
305.63773,305.75436,56,62,0
306.07697,306.52887,65,50,0
306.07697,306.52887,61,50,0
306.07697,306.52887,71,60,0
306.52887,306.6392,49,57,0
306.74948,306.80228,61,39,0
306.74948,306.80228,69,46,0
306.74948,306.80228,65,39,0
306.96072,307.01355,59,46,0
307.172,307.22482,65,39,0
307.172,307.22482,68,46,0
307.172,307.22482,61,39,0
307.38876,307.5019,54,64,0
307.82104,308.27612,61,50,0
307.82104,308.27612,69,60,0
307.82104,308.27612,66,50,0
308.27612,308.3852,49,61,0
308.4943,308.54694,61,39,0
308.4943,308.54694,68,46,0
308.4943,308.54694,57,39,0
308.7048,308.75745,54,46,0
308.91534,308.968,61,39,0
308.91534,308.968,66,46,0
308.91534,308.968,57,39,0
309.13214,309.2535,56,60,0
309.57492,310.03897,61,50,0
309.57492,310.03897,71,60,0
309.57492,310.03897,65,50,0
310.03897,310.14847,49,57,0
310.25797,310.3104,65,39,0
310.25797,310.3104,69,46,0
310.25797,310.3104,61,39,0
310.46774,310.5202,59,46,0
310.67752,310.72998,65,39,0
310.67752,310.72998,68,46,0
310.67752,310.72998,61,39,0
310.896,311.00912,54,62,0
311.33054,311.7946,69,60,0
311.33054,311.7946,66,50,0
311.33054,311.7946,61,50,0
311.7946,311.90564,49,57,0
312.01666,312.0693,68,46,0
312.01666,312.0693,61,39,0
312.01666,312.0693,57,39,0
312.2272,312.27982,54,46,0
312.4377,312.49036,57,39,0
312.4377,312.49036,66,46,0
312.4377,312.49036,61,39,0
312.65652,312.7779,56,55,0
313.0915,313.52945,65,46,0
313.0915,313.52945,71,55,0
313.0915,313.52945,61,46,0
313.52945,313.647,49,55,0
313.9628,314.40237,71,56,0
313.9628,314.40237,65,46,0
313.9628,314.40237,61,46,0
314.40237,314.52084,54,57,0
314.8423,315.2914,66,48,0
314.8423,315.2914,61,48,0
314.8423,315.2914,70,58,0
315.2914,315.40945,49,58,0
315.73297,316.17712,66,49,0
315.73297,316.17712,61,49,0
315.73297,316.17712,70,60,0
316.17712,316.28595,56,60,0
316.3938,316.44772,71,55,0
316.3938,316.44772,65,46,0
316.3938,316.44772,61,46,0
316.60947,316.7177,49,61,0
316.82516,316.8791,71,56,0
316.82516,316.8791,61,47,0
316.82516,316.8791,65,47,0
317.0432,317.15036,56,62,0
317.2586,317.3127,71,57,0
317.2586,317.3127,65,47,0
317.2586,317.3127,61,47,0
317.47806,317.5852,49,63,0
317.69232,317.74786,71,58,0
317.69232,317.74786,61,49,0
317.69232,317.74786,65,49,0
317.9144,318.02042,54,65,0
318.12643,318.18216,66,49,0
318.12643,318.18216,70,58,0
318.12643,318.18216,61,49,0
318.34686,318.45215,49,65,0
318.5574,318.61002,66,50,0
318.5574,318.61002,61,50,0
318.5574,318.61002,70,60,0
318.77618,318.8818,54,66,0
318.98746,319.04236,61,51,0
318.98746,319.04236,66,51,0
318.98746,319.04236,70,61,0
319.2071,319.3127,49,67,0
319.41837,319.47348,66,51,0
319.41837,319.47348,61,51,0
319.41837,319.47348,70,62,0
319.6388,319.74445,56,69,0
319.85007,319.9029,71,62,0
319.85007,319.9029,61,52,0
319.85007,319.9029,65,52,0
320.0676,320.17252,49,69,0
320.2774,320.32983,65,53,0
320.2774,320.32983,61,53,0
320.2774,320.32983,71,63,0
320.49457,320.5991,56,71,0
320.70364,320.7574,71,65,0
320.70364,320.7574,61,54,0
320.70364,320.7574,65,54,0
320.91867,321.0236,49,73,0
321.1294,321.1828,71,67,0
321.1294,321.1828,61,56,0
321.1294,321.1828,65,56,0
321.34293,321.4471,54,75,0
321.55127,321.60446,70,68,0
321.55127,321.60446,61,57,0
321.55127,321.60446,66,57,0
321.76404,321.86835,49,76,0
321.97327,322.02625,66,58,0
321.97327,322.02625,70,70,0
321.97327,322.02625,61,58,0
322.18527,322.2894,54,77,0
322.39386,322.44687,61,60,0
322.39386,322.44687,66,60,0
322.39386,322.44687,70,71,0
322.6059,322.7097,49,79,0
322.81815,322.87473,70,72,0
322.81815,322.87473,66,61,0
322.81815,322.87473,61,61,0
323.07764,323.14645,56,73,0
323.07764,323.14645,44,61,0
323.3529,323.47842,65,68,0
323.3529,323.47842,56,57,0
323.3529,323.47842,61,57,0
323.60394,323.7202,49,73,0
323.60394,323.7202,37,61,0
323.83652,323.9528,65,69,0
323.83652,323.9528,56,58,0
323.83652,323.9528,61,58,0
324.0699,324.12848,56,73,0
324.0699,324.12848,44,61,0
324.30426,324.42145,65,68,0
324.30426,324.42145,61,57,0
324.30426,324.42145,56,57,0
324.53864,324.65314,49,73,0
324.53864,324.65314,37,61,0
324.76764,324.88214,56,58,0
324.76764,324.88214,61,58,0
324.76764,324.88214,65,69,0
325.00168,325.05893,42,61,0
325.00168,325.05893,54,73,0
325.23068,325.34518,58,57,0
325.23068,325.34518,66,68,0
325.23068,325.34518,61,57,0
325.4597,325.57205,37,61,0
325.4597,325.57205,49,73,0
325.68442,325.79675,66,69,0
325.68442,325.79675,58,58,0
325.68442,325.79675,61,58,0
325.90787,325.96466,42,61,0
325.90787,325.96466,54,73,0
326.13498,326.24857,66,68,0
326.13498,326.24857,58,57,0
326.13498,326.24857,61,57,0
326.36212,326.4744,49,73,0
326.36212,326.4744,37,61,0
326.58667,326.69897,66,69,0
326.58667,326.69897,61,58,0
326.58667,326.69897,58,58,0
326.81296,326.8689,56,73,0
326.81296,326.8689,44,61,0
327.03668,327.1498,65,68,0
327.03668,327.1498,61,57,0
327.26294,327.3752,49,73,0
327.26294,327.3752,37,61,0
327.48752,327.5998,59,58,0
327.48752,327.5998,61,58,0
327.48752,327.5998,65,69,0
327.71423,327.77014,56,73,0
327.71423,327.77014,44,61,0
327.93796,328.0511,65,68,0
327.93796,328.0511,61,57,0
327.93796,328.0511,59,57,0
328.1642,328.2765,37,61,0
328.1642,328.2765,49,73,0
328.3888,328.50107,65,69,0
328.3888,328.50107,61,58,0
328.3888,328.50107,59,58,0
328.61548,328.6727,54,73,0
328.61548,328.6727,42,61,0
328.84177,328.95447,61,57,0
328.84177,328.95447,58,57,0
328.84177,328.95447,66,68,0
329.06717,329.17944,37,61,0
329.06717,329.17944,49,73,0
329.29175,329.40402,61,58,0
329.29175,329.40402,66,69,0
329.29175,329.40402,58,58,0
329.52023,329.57635,42,61,0
329.52023,329.57635,54,73,0
329.74478,329.8577,66,68,0
329.74478,329.8577,61,57,0
329.74478,329.8577,58,57,0
329.97128,330.08356,49,73,0
329.97128,330.08356,37,61,0
330.19885,330.31415,66,69,0
330.19885,330.31415,61,58,0
330.19885,330.31415,58,58,0
330.43814,330.50452,56,53,0
330.70364,330.82452,65,49,0
330.70364,330.82452,61,41,0
330.9454,331.05896,49,53,0
331.17252,331.28607,65,50,0
331.17252,331.28607,56,42,0
331.17252,331.28607,61,42,0
331.4032,331.45996,44,53,0
331.6303,331.74387,61,41,0
331.6303,331.74387,65,49,0
331.6303,331.74387,56,41,0
331.85742,331.96973,37,53,0
332.082,332.19427,56,42,0
332.082,332.19427,61,42,0
332.082,332.19427,65,50,0
332.3105,332.36725,54,53,0
332.5376,332.65115,61,41,0
332.5376,332.65115,66,49,0
332.5376,332.65115,58,41,0
332.7647,332.87698,49,53,0
332.9893,333.10156,61,42,0
332.9893,333.10156,66,50,0
332.9893,333.10156,58,42,0
333.2114,333.26816,42,53,0
333.4385,333.55206,61,41,0
333.4385,333.55206,66,49,0
333.4385,333.55206,58,41,0
333.66562,333.7779,37,53,0
333.8902,334.00247,66,50,0
333.8902,334.00247,61,42,0
333.8902,334.00247,58,42,0
334.11646,334.1724,56,53,0
334.34018,334.4533,61,41,0
334.34018,334.4533,65,49,0
334.56647,334.67874,49,53,0
334.79102,334.9033,61,42,0
334.79102,334.9033,56,42,0
334.79102,334.9033,65,50,0
335.01773,335.07367,44,53,0
335.2427,335.35544,56,41,0
335.2427,335.35544,65,49,0
335.2427,335.35544,61,41,0
335.46814,335.5804,37,53,0
335.6927,335.805,56,42,0
335.6927,335.805,65,50,0
335.6927,335.805,61,42,0
335.92117,335.97733,54,53,0
336.14575,336.25867,66,49,0
336.14575,336.25867,58,41,0
336.14575,336.25867,61,41,0
336.37222,336.4845,49,53,0
336.5968,336.70908,61,42,0
336.5968,336.70908,58,42,0
336.5968,336.70908,66,50,0
336.8253,336.8814,42,53,0
337.04984,337.16278,66,49,0
337.04984,337.16278,58,41,0
337.04984,337.16278,61,41,0
337.27634,337.3886,37,53,0
337.5009,337.6132,66,50,0
337.5009,337.6132,61,42,0
337.5009,337.6132,58,42,0
337.72937,337.8059,54,42,0
337.93347,338.01215,63,35,0
337.93347,338.01215,59,29,0
338.14328,338.22302,49,33,0
338.3559,338.434,63,28,0
338.3559,338.434,66,33,0
338.56412,338.64273,54,42,0
338.77377,338.8524,59,30,0
338.77377,338.8524,63,36,0
338.98343,339.0607,49,36,0
339.18948,339.26923,66,36,0
339.18948,339.26923,63,30,0
339.4021,339.47787,54,42,0
339.60416,339.68173,58,30,0
339.60416,339.68173,61,36,0
339.81107,339.88995,49,36,0
340.02145,340.10147,61,30,0
340.02145,340.10147,66,36,0
340.23483,340.31317,54,42,0
340.44376,340.52213,61,37,0
340.44376,340.52213,58,30,0
340.65268,340.7579,49,37,0
340.8631,340.9683,66,37,0
340.8631,340.9683,61,31,0
341.0735,341.17694,54,42,0
341.28036,341.35797,59,29,0
341.28036,341.35797,63,35,0
341.48727,341.56677,49,33,0
341.6996,341.7772,66,33,0
341.6996,341.7772,63,28,0
341.9065,341.98434,54,42,0
342.1141,342.19196,63,36,0
342.1141,342.19196,59,30,0
342.32172,342.39774,49,36,0
342.5244,342.60147,63,30,0
342.5244,342.60147,66,36,0
342.7299,342.80798,54,42,0
342.93732,343.0149,58,30,0
342.93732,343.0149,61,36,0
343.1442,343.22308,49,36,0
343.35458,343.4355,66,36,0
343.35458,343.4355,61,30,0
343.57028,343.64862,54,42,0
343.7792,343.85754,61,37,0
343.7792,343.85754,58,30,0
343.98813,344.09332,49,37,0
344.19852,344.30374,66,37,0
344.19852,344.30374,61,31,0
344.40878,344.51083,56,42,0
344.61252,344.71378,61,31,0
344.61252,344.71378,65,37,0
344.8147,344.91525,49,42,0
345.01538,345.1152,65,37,0
345.01538,345.1152,61,31,0
345.22012,345.31918,68,42,0
345.41824,345.5173,73,31,0
345.41824,345.5173,77,37,0
345.61636,345.71542,61,42,0
345.81448,345.9135,73,31,0
345.81448,345.9135,77,37,0
346.01257,346.11465,54,42,0
346.2163,346.3176,61,31,0
346.2163,346.3176,58,31,0
346.2163,346.3176,66,37,0
346.41852,346.51904,49,42,0
346.6192,346.719,66,37,0
346.6192,346.719,61,31,0
346.6192,346.719,58,31,0
346.82394,346.923,70,42,0
347.02206,347.12112,78,37,0
347.02206,347.12112,73,31,0
347.22018,347.3192,66,42,0
347.41827,347.51733,78,37,0
347.41827,347.51733,73,31,0
347.6164,347.71848,56,42,0
347.82013,347.92142,65,37,0
347.82013,347.92142,61,31,0
348.02234,348.12286,49,42,0
348.223,348.3228,65,37,0
348.223,348.3228,61,31,0
348.42776,348.52682,68,42,0
348.6259,348.7249,77,37,0
348.6259,348.7249,73,31,0
348.82397,348.92303,61,42,0
349.0221,349.12115,73,31,0
349.0221,349.12115,77,37,0
349.2202,349.32227,54,42,0
349.42395,349.5252,61,31,0
349.42395,349.5252,58,31,0
349.42395,349.5252,66,37,0
349.62613,349.72668,49,42,0
349.8268,349.92664,58,31,0
349.8268,349.92664,66,37,0
349.8268,349.92664,61,31,0
350.0316,350.1306,70,42,0
350.22968,350.32874,78,37,0
350.22968,350.32874,73,31,0
350.4278,350.52686,66,42,0
350.62592,350.72498,73,31,0
350.62592,350.72498,78,37,0
350.824,350.92148,66,42,0
351.01892,351.11636,75,37,0
351.01892,351.11636,71,31,0
351.2138,351.31,61,42,0
351.4062,351.5024,75,31,0
351.4062,351.5024,78,37,0
351.6008,351.6973,66,42,0
351.79382,351.89032,75,31,0
351.79382,351.89032,78,37,0
351.98682,352.08304,71,42,0
352.17923,352.2796,78,37,0
352.17923,352.2796,75,31,0
352.37997,352.47745,66,42,0
352.5749,352.67233,73,37,0
352.5749,352.67233,70,31,0
352.76978,352.86597,61,42,0
352.96216,353.05838,73,31,0
352.96216,353.05838,78,37,0
353.15677,353.25327,66,42,0
353.3498,353.4463,73,31,0
353.3498,353.4463,78,37,0
353.5428,353.639,70,42,0
353.7352,353.83557,73,31,0
353.7352,353.83557,78,37,0
353.93594,354.03342,66,42,0
354.13086,354.2283,71,31,0
354.13086,354.2283,75,37,0
354.32574,354.42194,61,42,0
354.51813,354.61435,75,31,0
354.51813,354.61435,78,37,0
354.71274,354.80923,66,42,0
354.90576,355.00226,75,31,0
354.90576,355.00226,78,37,0
355.09875,355.19498,71,42,0
355.29117,355.39154,75,31,0
355.29117,355.39154,78,37,0
355.4919,355.58936,66,42,0
355.68683,355.78427,70,31,0
355.68683,355.78427,73,37,0
355.8817,355.9779,61,42,0
356.0741,356.1703,73,31,0
356.0741,356.1703,78,37,0
356.2687,356.3652,66,42,0
356.46173,356.55823,78,37,0
356.46173,356.55823,73,31,0
356.65472,356.75095,70,42,0
356.84714,356.9475,78,37,0
356.84714,356.9475,73,31,0
357.18814,357.2349,60,42,0
357.2349,357.3284,61,48,0
357.56436,357.61185,64,48,0
357.61185,357.71024,65,49,0
357.9489,357.99567,69,50,0
357.99567,358.08914,70,51,0
358.32556,358.3732,67,42,0
358.3732,358.4736,68,49,0
358.7101,358.7567,65,42,0
358.7567,358.84988,66,50,0
358.89645,358.94302,64,42,0
358.94302,359.03864,65,48,0
359.08643,359.13422,63,42,0
359.13422,359.2346,64,54,0
359.4761,359.52313,62,42,0
359.52313,359.61722,63,49,0
359.66428,359.7113,61,42,0
359.7113,359.8075,62,49,0
359.8556,359.90372,60,54,0
359.90372,360.0041,61,56,0
360.24472,360.29147,60,42,0
360.29147,360.38495,61,48,0
360.62094,360.66843,64,48,0
360.66843,360.7668,65,49,0
361.0055,361.05222,69,50,0
361.05222,361.14572,70,51,0
361.38214,361.42978,67,42,0
361.42978,361.53018,68,49,0
361.77167,361.81873,65,42,0
361.81873,361.9128,66,50,0
361.95984,362.0069,64,42,0
362.0069,362.10248,65,48,0
362.15027,362.19806,63,42,0
362.19806,362.29843,64,54,0
362.53995,362.587,62,42,0
362.587,362.6811,63,49,0
362.72812,362.77518,61,42,0
362.77518,362.87137,62,49,0
362.91946,362.96756,60,54,0
362.96756,363.06793,61,56,0
363.16833,363.25983,56,42,0
363.35132,363.44284,65,37,0
363.35132,363.44284,61,37,0
363.53433,363.62842,49,42,0
363.7225,363.82672,65,37,0
363.7225,363.82672,61,37,0
363.93094,364.03165,72,42,0
363.93094,364.03165,68,37,0
364.1324,364.2423,65,37,0
364.1324,364.2423,73,37,0
364.36383,364.67435,68,42,0
364.36383,364.67435,71,48,0
364.67435,364.78192,65,37,0
364.67435,364.78192,73,37,0
364.78192,364.87567,54,42,0
364.96942,365.06317,66,37,0
364.96942,365.06317,61,37,0
365.15692,365.2513,49,42,0
365.34567,365.4499,66,37,0
365.34567,365.4499,61,37,0
365.5541,365.65485,69,37,0
365.5541,365.65485,72,42,0
365.75555,365.8655,70,37,0
365.75555,365.8655,73,37,0
365.98703,366.29752,70,48,0
366.29752,366.41202,73,37,0
365.98703,366.41202,66,42,0
366.41202,366.50665,56,42,0
366.6013,366.69592,65,37,0
366.6013,366.69592,61,37,0
366.7906,366.88467,49,42,0
366.97876,367.08298,61,37,0
366.97876,367.08298,65,37,0
367.18716,367.2879,68,37,0
367.18716,367.2879,72,42,0
367.3886,367.49857,65,37,0
367.3886,367.49857,73,37,0
367.6201,367.93057,71,48,0
367.6201,367.93057,68,42,0
367.93057,368.03818,73,37,0
367.93057,368.03818,65,37,0
368.03818,368.1331,54,42,0
368.22803,368.32297,66,37,0
368.22803,368.32297,61,37,0
368.4179,368.51505,49,42,0
368.61218,368.72336,61,37,0
368.61218,368.72336,66,37,0
368.8345,368.9391,69,37,0
368.8345,368.9391,72,42,0
369.04367,369.15823,73,37,0
369.04367,369.15823,70,37,0
369.28384,369.6484,70,48,0
369.6484,369.78418,73,37,0
369.28384,369.78418,66,42,0
369.78418,369.90564,56,42,0
370.0271,370.14474,65,30,0
370.0271,370.14474,71,36,0
370.0271,370.14474,61,30,0
370.2624,370.3723,49,36,0
370.48227,370.59222,61,30,0
370.48227,370.59222,71,36,0
370.48227,370.59222,65,30,0
370.70218,370.8064,56,42,0
370.9106,371.01483,71,36,0
370.9106,371.01483,61,36,0
370.9106,371.01483,65,36,0
371.11905,371.22144,49,36,0
371.32382,371.4262,65,30,0
371.32382,371.4262,71,36,0
371.32382,371.4262,61,30,0
371.5334,371.63705,54,42,0
371.7405,371.84396,70,34,0
371.7405,371.84396,66,28,0
371.7405,371.84396,61,28,0
371.9474,372.05084,49,34,0
372.1543,372.25604,66,28,0
372.1543,372.25604,61,28,0
372.1543,372.25604,70,34,0
372.3578,372.45953,54,42,0
372.56128,372.66095,61,30,0
372.56128,372.66095,66,30,0
372.56128,372.66095,70,36,0
372.7606,372.85928,49,36,0
372.95798,373.05664,66,30,0
372.95798,373.05664,61,30,0
372.95798,373.05664,70,36,0
373.15533,373.25507,56,42,0
373.35477,373.45184,61,28,0
373.35477,373.45184,71,34,0
373.35477,373.45184,65,28,0
373.54895,373.64478,49,34,0
373.74063,373.8365,71,34,0
373.74063,373.8365,61,28,0
373.74063,373.8365,65,28,0
373.93234,374.03073,56,42,0
374.12915,374.22437,61,31,0
374.12915,374.22437,71,37,0
374.12915,374.22437,65,31,0
374.3193,374.41394,49,37,0
374.5086,374.60324,71,36,0
374.5086,374.60324,65,30,0
374.5086,374.60324,61,30,0
374.69788,374.79498,54,42,0
374.89212,374.98602,61,33,0
374.89212,374.98602,66,33,0
374.89212,374.98602,70,39,0
375.0795,375.17294,49,39,0
375.2664,375.36105,66,33,0
375.2664,375.36105,70,39,0
375.2664,375.36105,61,33,0
375.4569,375.55035,54,42,0
375.64383,375.73727,66,32,0
375.64383,375.73727,70,38,0
375.64383,375.73727,61,32,0
375.83072,375.92538,49,38,0
376.02002,376.11465,61,32,0
376.02002,376.11465,70,38,0
376.02002,376.11465,66,32,0
376.2498,376.36057,56,42,0
376.4713,376.58206,71,36,0
376.4713,376.58206,61,30,0
376.4713,376.58206,65,30,0
376.6928,376.79813,49,36,0
376.90344,377.00876,65,30,0
376.90344,377.00876,61,30,0
376.90344,377.00876,71,36,0
377.11407,377.21652,56,42,0
377.31897,377.41846,61,36,0
377.31897,377.41846,65,36,0
377.31897,377.41846,71,36,0
377.5178,377.61456,49,36,0
377.71136,377.80814,61,30,0
377.71136,377.80814,65,30,0
377.71136,377.80814,71,37,0
377.9153,378.01706,54,43,0
378.1188,378.22055,61,29,0
378.1188,378.22055,70,35,0
378.1188,378.22055,66,29,0
378.3223,378.42264,49,35,0
378.52295,378.6247,61,29,0
378.52295,378.6247,66,35,0
378.72644,378.8282,54,44,0
378.92993,379.02798,61,31,0
378.92993,379.02798,66,38,0
379.126,379.22327,49,38,0
379.32034,379.41742,66,38,0
379.32034,379.41742,61,32,0
379.51453,379.61423,56,44,0
379.71396,379.80984,61,29,0
379.71396,379.80984,59,29,0
379.71396,379.80984,65,36,0
379.90573,380.00006,49,36,0
380.0947,380.18933,59,30,0
380.0947,380.18933,61,30,0
380.0947,380.18933,65,36,0
380.284,380.3824,56,45,0
380.4808,380.57516,59,33,0
380.4808,380.57516,65,40,0
380.4808,380.57516,61,33,0
380.66956,380.76242,49,40,0
380.85532,380.94818,65,39,0
380.85532,380.94818,59,33,0
380.85532,380.94818,61,33,0
381.04108,381.1382,54,46,0
381.23532,381.3274,58,36,0
381.23532,381.3274,66,43,0
381.23532,381.3274,61,36,0
381.41946,381.51154,49,43,0
381.60358,381.69693,66,43,0
381.60358,381.69693,58,36,0
381.60358,381.69693,61,36,0
381.79156,381.88492,54,47,0
381.97693,382.06897,61,36,0
381.97693,382.06897,66,42,0
381.97693,382.06897,58,36,0
382.16098,382.25302,49,43,0
382.34503,382.43707,58,36,0
382.34503,382.43707,66,43,0
382.34503,382.43707,61,36,0
382.5464,382.65717,51,53,0
382.7679,382.87866,56,37,0
382.7679,382.87866,66,44,0
382.7679,382.87866,60,37,0
382.98944,383.0933,44,48,0
383.19714,383.301,56,37,0
383.19714,383.301,60,44,0
383.40485,383.50525,54,52,0
383.60562,383.70633,56,36,0
383.60562,383.70633,60,43,0
383.80377,383.89902,44,48,0
383.99365,384.0883,60,44,0
383.99365,384.0883,56,37,0
384.19894,384.30972,49,53,0
384.42047,384.53122,65,44,0
384.42047,384.53122,56,37,0
384.42047,384.53122,61,37,0
384.64197,384.74585,44,48,0
384.8497,384.95355,56,37,0
384.8497,384.95355,61,44,0
385.0574,385.15778,49,52,0
385.25818,385.3589,61,43,0
385.25818,385.3589,56,36,0
385.45633,385.55377,44,48,0
385.65125,385.7487,56,37,0
385.65125,385.7487,61,44,0
385.84613,385.94357,51,52,0
386.04102,386.13687,56,38,0
386.04102,386.13687,60,45,0
386.04102,386.13687,54,38,0
386.23273,386.32855,44,45,0
386.4244,386.52026,54,38,0
386.4244,386.52026,60,45,0
386.4244,386.52026,56,38,0
386.6161,386.71194,51,54,0
386.8078,386.90213,56,39,0
386.8078,386.90213,66,47,0
386.8078,386.90213,60,47,0
386.99646,387.08994,44,47,0
387.18338,387.27686,56,39,0
387.18338,387.27686,60,46,0
387.3703,387.46378,49,56,0
387.55707,387.65146,56,43,0
387.55707,387.65146,65,51,0
387.55707,387.65146,61,43,0
387.74585,387.8402,44,51,0
387.9346,388.029,61,51,0
387.9346,388.029,56,43,0
388.12643,388.2193,49,57,0
388.31247,388.40564,61,43,0
388.31247,388.40564,56,43,0
388.31247,388.40564,65,51,0
388.4988,388.59348,44,51,0
388.68817,388.78497,56,43,0
388.68817,388.78497,61,51,0
388.89673,389.00748,51,55,0
389.11826,389.229,60,38,0
389.11826,389.229,56,38,0
389.11826,389.229,66,46,0
389.33975,389.4436,44,50,0
389.5475,389.65134,60,46,0
389.5475,389.65134,56,38,0
389.7552,389.8539,51,54,0
389.95264,390.05136,56,38,0
389.95264,390.05136,60,45,0
390.14667,390.24042,44,50,0
390.33417,390.42792,60,46,0
390.33417,390.42792,56,39,0
390.53812,390.64886,49,56,0
390.7596,390.8704,56,39,0
390.7596,390.8704,61,39,0
390.7596,390.8704,65,46,0
390.98114,391.08368,44,51,0
391.18576,391.28784,56,39,0
391.18576,391.28784,61,47,0
391.38995,391.4888,49,55,0
391.58752,391.68628,61,46,0
391.58752,391.68628,56,38,0
391.7809,391.87527,44,51,0
391.96967,392.06406,56,39,0
391.96967,392.06406,61,47,0
392.15842,392.251,51,56,0
392.34363,392.43622,56,41,0
392.34363,392.43622,60,48,0
392.34363,392.43622,54,41,0
392.5288,392.62216,44,48,0
392.7156,392.80908,54,41,0
392.7156,392.80908,56,41,0
392.7156,392.80908,60,48,0
392.90225,392.9944,51,58,0
393.0861,393.1774,66,51,0
393.0861,393.1774,60,51,0
393.0861,393.1774,56,42,0
393.26825,393.35873,44,51,0
393.44876,393.53842,56,42,0
393.44876,393.53842,60,50,0
393.62775,393.8058,61,60,0
393.62775,393.8058,49,51,0
393.62775,393.8058,56,51,0
393.8058,393.8967,62,48,0
393.8058,393.8967,50,40,0
393.9876,394.16406,60,60,0
393.9876,394.16406,48,51,0
394.16406,394.2547,49,41,0
394.16406,394.2547,61,49,0
394.34534,394.5204,59,61,0
394.34534,394.5204,47,52,0
394.5204,394.61023,48,44,0
394.5204,394.61023,60,52,0
394.70004,394.8755,46,52,0
394.70004,394.8755,58,61,0
394.8755,394.9653,59,53,0
394.8755,394.9653,47,44,0
395.0551,395.22903,45,53,0
395.0551,395.22903,57,63,0
395.22903,395.31912,58,54,0
395.22903,395.31912,46,46,0
395.4092,395.58163,56,63,0
395.4092,395.58163,44,54,0
395.58163,395.67117,45,46,0
395.58163,395.67117,57,55,0
395.76074,395.93118,43,54,0
395.76074,395.93118,55,64,0
395.93118,396.01865,56,55,0
395.93118,396.01865,44,46,0
396.1061,396.27466,42,55,0
396.1061,396.27466,54,64,0
396.27466,396.3611,55,55,0
396.27466,396.3611,43,46,0
396.44757,396.61493,41,56,0
396.44757,396.61493,53,66,0
396.61493,396.7009,54,57,0
396.61493,396.7009,42,48,0
396.78683,396.95398,52,66,0
396.78683,396.95398,40,56,0
396.95398,397.03824,53,57,0
396.95398,397.03824,41,48,0
397.12347,397.28876,51,67,0
397.12347,397.28876,39,57,0
397.28876,397.37326,40,49,0
397.28876,397.37326,52,58,0
397.45776,397.62445,38,57,0
397.45776,397.62445,50,67,0
397.62445,397.71216,39,50,0
397.62445,397.71216,51,59,0
397.7999,397.96655,49,71,0
397.7999,397.96655,37,60,0
397.96655,398.13797,50,64,0
397.96655,398.13797,38,54,0
398.13797,398.30283,37,61,0
398.13797,398.30283,49,72,0
398.13797,398.30283,44,61,0
398.30283,398.47278,38,56,0
398.30283,398.47278,50,66,0
398.47278,398.63898,37,60,0
398.47278,398.63898,44,60,0
398.47278,398.63898,49,71,0
398.63898,398.8119,38,54,0
398.63898,398.8119,50,64,0
398.8119,398.98138,44,61,0
398.8119,398.98138,37,61,0
398.8119,398.98138,49,72,0
398.98138,399.15787,50,66,0
398.98138,399.15787,38,56,0
399.15787,399.3318,49,71,0
399.15787,399.3318,44,60,0
399.15787,399.3318,37,60,0
399.3318,399.51538,60,67,0
399.3318,399.51538,48,56,0
399.50125,399.68488,49,61,0
399.50125,399.68488,61,72,0
399.67075,399.8555,48,56,0
399.67075,399.8555,60,67,0
399.84024,399.9317,49,61,0
399.84024,399.9317,61,73,0
400.02316,400.211,36,56,0
400.02316,400.211,48,67,0
400.1966,400.38507,37,61,0
400.1966,400.38507,49,72,0
400.3695,400.55643,48,67,0
400.3695,400.55643,36,56,0
400.7293,400.81577,56,66,0
400.7293,400.81577,53,55,0
400.55643,400.90222,49,82,0
400.55643,400.90222,37,70,0
401.07513,401.1634,56,55,0
401.07513,401.1634,61,66,0
400.90222,401.25162,53,75,0
400.90222,401.25162,41,64,0
401.42404,401.51022,61,55,0
401.42404,401.51022,65,66,0
401.59644,401.68265,65,66,0
401.59644,401.68265,61,55,0
401.25162,401.76886,46,76,0
401.25162,401.76886,58,90,0
401.76886,401.85507,44,67,0
401.76886,401.85507,56,80,0
401.94128,402.026,54,85,0
401.94128,402.026,49,72,0
401.94128,402.026,46,57,0
401.94128,402.026,42,57,0
402.11075,402.1955,41,63,0
402.11075,402.1955,53,75,0
402.28024,402.36746,40,63,0
402.28024,402.36746,52,75,0
402.45468,402.53964,51,78,0
402.41107,402.53964,39,60,0
402.4256,402.53964,42,62,0
402.44012,402.53964,46,64,0
402.62463,402.70963,50,74,0
402.62463,402.70963,38,62,0
402.79462,402.88132,49,74,0
402.75214,402.88132,37,55,0
402.7663,402.88132,42,57,0
402.78046,402.88132,46,58,0
402.96802,403.054,36,59,0
402.96802,403.054,48,75,0
403.13995,403.23312,37,61,0
403.13995,403.23312,49,72,0
403.49918,403.58563,53,55,0
403.49918,403.58563,56,55,0
403.3263,403.6721,37,70,0
403.3263,403.6721,49,82,0
403.845,403.93326,61,55,0
403.845,403.93326,56,55,0
403.6721,404.02148,41,64,0
403.6721,404.02148,53,75,0
404.1939,404.2801,65,66,0
404.1939,404.2801,61,55,0
404.3663,404.4525,65,66,0
404.3663,404.4525,61,55,0
404.02148,404.53873,58,90,0
404.02148,404.53873,46,76,0
404.53873,404.62494,44,67,0
404.53873,404.62494,56,80,0
404.71115,404.7959,49,72,0
404.71115,404.7959,54,85,0
404.71115,404.7959,46,57,0
404.71115,404.7959,42,57,0
404.8806,404.96536,53,75,0
404.8806,404.96536,41,63,0
405.0501,405.13583,39,63,0
405.0501,405.13583,51,75,0
405.22156,405.31357,46,55,0
405.22156,405.31357,49,66,0
405.22156,405.31357,42,52,0
405.22156,405.31357,37,50,0
405.4056,405.78534,49,67,0
405.4056,405.78534,54,79,0
405.4056,405.78534,46,67,0
405.4056,405.78534,42,67,0
405.78534,406.1786,46,61,0
405.78534,406.1786,54,61,0
405.78534,406.1786,49,61,0
405.78534,406.1786,58,72,0
406.1786,406.27454,37,51,0
406.1786,406.27454,49,61,0
406.36765,406.54846,49,65,0
406.36765,406.54846,61,77,0
406.54846,406.63812,44,51,0
406.55368,406.64334,56,61,0
406.72736,406.90472,65,80,0
406.72736,406.90472,53,67,0
406.90472,406.99332,61,65,0
406.90472,406.99332,49,54,0
407.0813,407.42847,58,73,0
407.0813,407.42847,70,87,0
407.42847,407.51492,56,64,0
407.42847,407.51492,68,75,0
407.60138,407.68588,54,71,0
407.60138,407.68588,66,84,0
407.7704,407.8566,65,70,0
407.7704,407.8566,53,58,0
407.9428,408.0278,52,58,0
407.9428,408.0278,64,70,0
408.1128,408.20154,63,70,0
408.1128,408.20154,51,58,0
408.29028,408.37408,62,85,0
408.29028,408.37408,50,71,0
408.4579,408.5441,49,58,0
408.4579,408.5441,61,69,0
408.6303,408.7153,58,69,0
408.6303,408.7153,46,58,0
408.80026,408.89062,42,58,0
408.80026,408.89062,54,69,0
408.98123,409.0724,37,57,0
408.98123,409.0724,49,67,0
409.16284,409.3426,61,84,0
409.16284,409.3426,49,71,0
409.3426,409.43225,44,53,0
409.34784,409.43747,56,64,0
409.52148,409.69885,53,70,0
409.52148,409.69885,65,82,0
409.69885,409.78745,49,54,0
409.69885,409.78745,61,65,0
409.87543,410.2226,70,87,0
409.87543,410.2226,58,73,0
410.2226,410.30905,56,64,0
410.2226,410.30905,68,75,0
410.3955,410.48,66,84,0
410.3955,410.48,54,71,0
410.5645,410.65073,53,58,0
410.5645,410.65073,65,70,0
410.73694,410.82193,52,58,0
410.73694,410.82193,64,70,0
410.90692,410.99567,63,70,0
410.90692,410.99567,51,58,0
411.08444,411.1682,62,76,0
411.08444,411.1682,50,64,0
411.252,411.33823,49,55,0
411.252,411.33823,61,66,0
411.42444,411.50943,48,54,0
411.42444,411.50943,60,65,0
411.59442,411.68478,61,63,0
411.59442,411.68478,49,52,0
411.77515,411.8621,56,42,0
411.94904,412.036,71,37,0
411.94904,412.036,61,37,0
411.94904,412.036,65,37,0
412.12296,412.21387,49,42,0
412.30478,412.409,71,37,0
412.30478,412.409,61,37,0
412.30478,412.409,65,37,0
412.5132,412.61392,72,42,0
412.5132,412.61392,68,37,0
412.71466,412.8246,73,37,0
412.71466,412.8246,65,37,0
412.94614,413.25662,71,48,0
412.94614,413.25662,68,42,0
413.25662,413.3642,73,37,0
413.25662,413.3642,65,37,0
413.3642,413.45456,54,42,0
413.54492,413.63528,61,37,0
413.54492,413.63528,70,37,0
413.54492,413.63528,66,37,0
413.72565,413.81882,49,42,0
413.912,414.0162,61,37,0
413.912,414.0162,70,37,0
413.912,414.0162,66,37,0
414.12042,414.22113,72,42,0
414.12042,414.22113,69,37,0
414.32184,414.4318,73,37,0
414.32184,414.4318,70,37,0
414.5533,414.86383,70,48,0
414.86383,414.9714,73,37,0
414.5533,414.9714,66,42,0
414.9714,415.06342,56,42,0
415.15546,415.24747,71,37,0
415.15546,415.24747,61,37,0
415.15546,415.24747,65,37,0
415.3395,415.43326,49,42,0
415.527,415.63123,61,37,0
415.527,415.63123,71,37,0
415.527,415.63123,65,37,0
415.73544,415.83615,72,42,0
415.73544,415.83615,68,37,0
415.93686,416.0468,73,37,0
415.93686,416.0468,65,37,0
416.16833,416.47885,68,42,0
416.16833,416.47885,71,48,0
416.47885,416.58643,65,37,0
416.47885,416.58643,73,37,0
416.58643,416.68106,54,42,0
416.7757,416.87033,61,37,0
416.7757,416.87033,70,37,0
416.7757,416.87033,66,37,0
416.96497,417.06564,49,42,0
417.16632,417.2826,61,37,0
417.16632,417.2826,70,37,0
417.16632,417.2826,66,37,0
417.39886,417.51697,72,42,0
417.39886,417.51697,69,37,0
417.6351,417.75754,73,37,0
417.6351,417.75754,70,37,0
417.8939,418.2658,70,48,0
418.2658,418.32968,73,37,0
417.8939,418.32968,66,42,0
418.39352,418.49884,66,42,0
418.60416,418.70322,75,37,0
418.60416,418.70322,71,31,0
418.80228,418.89786,61,42,0
418.99344,419.08902,75,31,0
418.99344,419.08902,78,37,0
419.18744,419.27866,66,42,0
419.36987,419.46112,78,37,0
419.36987,419.46112,75,31,0
419.55234,419.64166,71,42,0
419.731,419.82193,75,31,0
419.731,419.82193,78,37,0
419.91287,420.00012,66,42,0
420.08737,420.17462,73,37,0
420.08737,420.17462,70,31,0
420.26184,420.34735,61,42,0
420.43286,420.51837,78,37,0
420.43286,420.51837,73,31,0
420.6077,420.69223,66,42,0
420.77676,420.8613,78,37,0
420.77676,420.8613,73,31,0
420.94586,421.03088,70,42,0
421.1159,421.20163,78,37,0
421.1159,421.20163,73,31,0
421.28738,421.37216,66,42,0
421.45694,421.54172,71,31,0
421.45694,421.54172,75,37,0
421.6265,421.70987,61,42,0
421.79324,421.8766,78,37,0
421.79324,421.8766,75,31,0
421.9614,422.04498,66,42,0
422.12857,422.2122,75,31,0
422.12857,422.2122,78,37,0
422.29578,422.38007,71,42,0
422.4644,422.54965,75,31,0
422.4644,422.54965,78,37,0
422.6349,422.7185,66,42,0
422.8021,422.88568,73,37,0
422.8021,422.88568,70,31,0
422.9693,423.05197,61,42,0
423.13464,423.21872,78,37,0
423.13464,423.21872,73,31,0
423.3108,423.40036,66,42,0
423.48996,423.57956,78,37,0
423.48996,423.57956,73,31,0
423.67303,423.7651,70,42,0
423.85718,423.9452,73,31,0
423.85718,423.9452,78,37,0
424.0332,424.11823,56,42,0
424.20084,424.28348,65,28,0
424.20084,424.28348,71,33,0
424.3661,424.44873,61,36,0
424.533,424.61722,65,28,0
424.533,424.61722,71,33,0
424.86627,424.94867,71,33,0
424.86627,424.94867,65,28,0
425.03064,425.11215,61,38,0
425.19366,425.27722,71,33,0
425.19366,425.27722,65,28,0
425.36078,425.44272,58,42,0
425.52536,425.60797,70,33,0
425.52536,425.60797,66,28,0
425.6906,425.77322,61,36,0
425.85724,425.94125,66,28,0
425.85724,425.94125,70,33,0
426.02527,426.10745,58,44,0
426.1896,426.2718,70,33,0
426.1896,426.2718,66,28,0
426.5183,426.60284,66,28,0
426.5183,426.60284,70,33,0
426.6874,426.76868,56,44,0
426.84998,426.8921,71,33,0
426.84998,426.8921,65,28,0
427.01846,427.0993,61,38,0
427.18015,427.2223,71,33,0
427.18015,427.2223,65,28,0
427.34866,427.4295,56,44,0
427.51035,427.55246,71,33,0
427.51035,427.55246,65,28,0
427.67883,427.7597,61,38,0
427.84055,427.88266,65,28,0
427.84055,427.88266,71,33,0
428.00903,428.08966,58,44,0
428.1703,428.21243,66,28,0
428.1703,428.21243,70,33,0
428.3388,428.42053,61,38,0
428.50226,428.54535,66,28,0
428.50226,428.54535,70,33,0
428.67462,428.75613,58,44,0
428.83762,428.882,70,33,0
428.83762,428.882,66,28,0
429.0151,429.09818,61,38,0
429.18127,429.2234,70,33,0
429.18127,429.2234,66,28,0
429.34976,429.43478,56,42,0
429.51654,429.59827,65,33,0
429.51654,429.59827,59,28,0
429.68002,429.76178,49,36,0
429.8451,429.92844,61,33,0
429.8451,429.92844,59,28,0
430.01178,430.0933,56,44,0
430.1748,430.25632,65,33,0
430.1748,430.25632,59,28,0
430.33786,430.41937,49,38,0
430.5009,430.58444,61,33,0
430.5009,430.58444,59,28,0
430.668,430.7493,54,42,0
430.8308,430.91232,58,28,0
430.8308,430.91232,66,33,0
430.99387,431.07538,49,36,0
431.1594,431.2434,61,33,0
431.1594,431.2434,58,28,0
431.32742,431.40894,54,44,0
431.49048,431.572,58,28,0
431.49048,431.572,66,33,0
431.6535,431.73502,49,38,0
431.81656,431.9011,61,33,0
431.81656,431.9011,58,28,0
431.98764,432.06784,56,44,0
432.14606,432.18726,59,28,0
432.14606,432.18726,65,33,0
432.31088,432.3909,49,38,0
432.4709,432.51212,59,28,0
432.4709,432.51212,61,33,0
432.63574,432.71573,56,44,0
432.79575,432.83694,65,33,0
432.79575,432.83694,59,28,0
432.96057,433.03992,49,38,0
433.1193,433.16028,61,33,0
433.1193,433.16028,59,28,0
433.28323,433.363,54,44,0
433.4428,433.484,66,33,0
433.4428,433.484,58,28,0
433.60764,433.68936,49,38,0
433.7711,433.81494,58,28,0
433.7711,433.81494,61,33,0
433.94653,434.03058,54,44,0
434.1146,434.15897,58,28,0
434.1146,434.15897,66,33,0
434.29208,434.37753,49,38,0
434.463,434.50635,61,33,0
434.463,434.50635,58,28,0
434.6364,434.73917,51,42,0
434.8335,434.9197,60,28,0
434.8335,434.9197,66,33,0
435.00592,435.09213,56,36,0
435.175,435.25787,60,28,0
435.175,435.25787,66,33,0
435.50378,435.5853,66,33,0
435.50378,435.5853,60,28,0
435.66684,435.74835,56,38,0
435.82986,435.91342,66,33,0
435.82986,435.91342,60,28,0
435.99698,436.07803,53,42,0
436.15912,436.2402,65,33,0
436.15912,436.2402,61,28,0
436.3213,436.40237,56,36,0
436.48523,436.5681,65,33,0
436.48523,436.5681,61,28,0
436.651,436.73163,53,44,0
436.8123,436.8929,61,28,0
436.8123,436.8929,65,33,0
437.13486,437.2194,61,28,0
437.13486,437.2194,65,33,0
437.30396,437.38437,51,44,0
437.4648,437.50623,60,28,0
437.4648,437.50623,66,33,0
437.63055,437.71054,56,38,0
437.79056,437.83197,66,33,0
437.79056,437.83197,60,28,0
437.9563,438.03607,51,44,0
438.11588,438.158,60,28,0
438.11588,438.158,66,33,0
438.28436,438.3648,56,38,0
438.44522,438.48734,66,33,0
438.44522,438.48734,60,28,0
438.61374,438.69437,53,44,0
438.775,438.8171,65,33,0
438.775,438.8171,61,28,0
438.94348,439.0252,56,38,0
439.10693,439.15002,65,33,0
439.10693,439.15002,61,28,0
439.2793,439.3608,53,44,0
439.44232,439.4867,65,33,0
439.44232,439.4867,61,28,0
439.61978,439.70288,56,38,0
439.78595,439.8281,61,28,0
439.78595,439.8281,65,33,0
439.95447,440.04156,51,46,0
440.12756,440.21222,66,36,0
440.12756,440.21222,56,30,0
440.12756,440.21222,60,30,0
440.2957,440.37854,44,39,0
440.46097,440.54337,66,36,0
440.46097,440.54337,56,30,0
440.46097,440.54337,60,30,0
440.6258,440.70645,51,48,0
440.78708,440.86774,60,30,0
440.78708,440.86774,56,30,0
440.78708,440.86774,66,36,0
440.94836,441.02902,44,41,0
441.10968,441.1932,56,30,0
441.10968,441.1932,66,36,0
441.10968,441.1932,60,30,0
441.27676,441.35696,49,46,0
441.4372,441.5174,61,30,0
441.4372,441.5174,65,36,0
441.4372,441.5174,56,30,0
441.59763,441.67783,44,39,0
441.76047,441.8431,65,36,0
441.76047,441.8431,56,30,0
441.76047,441.8431,61,30,0
441.92578,442.00598,49,48,0
442.08618,442.1664,61,30,0
442.08618,442.1664,65,36,0
442.08618,442.1664,56,30,0
442.2466,442.32684,44,41,0
442.40704,442.49158,65,36,0
442.40704,442.49158,56,30,0
442.40704,442.49158,61,30,0
442.57812,442.65814,51,48,0
442.73615,442.77734,56,30,0
442.73615,442.77734,60,30,0
442.73615,442.77734,66,36,0
442.90097,442.98096,44,41,0
443.06097,443.10217,66,36,0
443.06097,443.10217,56,30,0
443.06097,443.10217,60,30,0
443.2258,443.30582,51,48,0
443.3858,443.427,66,36,0
443.3858,443.427,60,30,0
443.3858,443.427,56,30,0
443.55063,443.63,44,41,0
443.70938,443.75034,56,30,0
443.70938,443.75034,60,30,0
443.70938,443.75034,66,36,0
443.8733,443.9531,49,48,0
444.03287,444.0741,61,30,0
444.03287,444.0741,56,30,0
444.03287,444.0741,65,36,0
444.19772,444.27945,44,41,0
444.36118,444.40503,56,30,0
444.36118,444.40503,61,30,0
444.36118,444.40503,65,36,0
444.5366,444.6197,49,48,0
444.70282,444.74716,56,30,0
444.70282,444.74716,61,30,0
444.70282,444.74716,65,36,0
444.88028,444.96335,44,41,0
445.04645,445.08856,61,30,0
445.04645,445.08856,56,30,0
445.04645,445.21494,65,36,0
445.21494,445.29895,51,52,0
445.3821,445.4644,56,34,0
445.3821,445.4644,60,34,0
445.3821,445.4644,66,41,0
445.54584,445.62692,44,44,0
445.708,445.7891,66,41,0
445.708,445.7891,56,34,0
445.708,445.7891,60,34,0
445.87018,445.95038,51,55,0
446.0306,446.1108,56,34,0
446.0306,446.1108,60,34,0
446.0306,446.1108,66,41,0
446.19104,446.27124,44,47,0
446.35147,446.435,56,34,0
446.35147,446.435,66,41,0
446.35147,446.435,60,34,0
446.51855,446.59854,49,57,0
446.67877,446.75897,56,37,0
446.67877,446.75897,61,37,0
446.67877,446.75897,65,45,0
446.8392,446.9194,44,48,0
447.00204,447.0847,61,37,0
447.00204,447.0847,65,45,0
447.00204,447.0847,56,37,0
447.16733,447.24713,49,60,0
447.3269,447.4067,65,45,0
447.3269,447.4067,56,37,0
447.3269,447.4067,61,37,0
447.48648,447.56628,44,51,0
447.64606,447.7306,61,37,0
447.64606,447.7306,65,45,0
447.64606,447.7306,56,37,0
447.81714,447.89648,51,60,0
447.97388,448.01508,66,45,0
447.97388,448.01508,56,37,0
447.97388,448.01508,60,37,0
448.1387,448.21786,44,51,0
448.29703,448.33823,56,37,0
448.29703,448.33823,66,45,0
448.29703,448.33823,60,37,0
448.46185,448.54144,51,60,0
448.621,448.6622,56,37,0
448.621,448.6622,60,37,0
448.621,448.6622,66,45,0
448.78583,448.8646,44,51,0
448.94333,448.9843,60,37,0
448.94333,448.9843,56,37,0
448.94333,448.9843,66,45,0
449.10678,449.26645,49,42,0
449.10678,449.26645,61,50,0
449.26645,449.42526,48,45,0
449.26645,449.42526,60,53,0
449.42526,449.58316,59,56,0
449.42526,449.58316,47,47,0
449.58316,449.7402,46,49,0
449.58316,449.7402,58,59,0
449.7402,449.8966,57,62,0
449.7402,449.8966,45,52,0
449.8966,450.05365,46,49,0
449.8966,450.05365,58,58,0
450.05365,450.2114,47,45,0
450.05365,450.2114,59,53,0
450.2114,450.36993,60,49,0
450.2114,450.36993,48,41,0
450.36993,450.52768,47,42,0
450.36993,450.52768,59,50,0
450.52768,450.6847,58,53,0
450.52768,450.6847,46,45,0
450.6847,450.8409,45,47,0
450.6847,450.8409,57,56,0
450.8409,450.99637,44,49,0
450.8409,450.99637,56,59,0
450.99637,451.1519,55,62,0
450.99637,451.1519,43,52,0
451.1519,451.30844,44,49,0
451.1519,451.30844,56,58,0
451.30844,451.46603,45,45,0
451.30844,451.46603,57,54,0
451.46603,451.62433,58,49,0
451.46603,451.62433,46,41,0
451.62433,451.7816,45,42,0
451.62433,451.7816,57,51,0
451.7816,451.9381,44,45,0
451.7816,451.9381,56,54,0
451.9381,452.0941,55,57,0
451.9381,452.0941,43,47,0
452.0941,452.24933,42,49,0
452.0941,452.24933,54,60,0
452.24933,452.40356,53,63,0
452.24933,452.40356,41,53,0
452.40356,452.5588,54,59,0
452.40356,452.5588,42,50,0
452.5588,452.7152,55,54,0
452.5588,452.7152,43,46,0
452.7152,452.8728,56,50,0
452.7152,452.8728,44,42,0
452.8728,453.03098,43,43,0
452.8728,453.03098,55,51,0
453.03098,453.18842,42,45,0
453.03098,453.18842,54,53,0
453.18842,453.34515,53,55,0
453.18842,453.34515,41,47,0
453.34515,453.5012,52,58,0
453.34515,453.5012,40,48,0
453.5012,453.65643,39,50,0
453.5012,453.65643,51,61,0
453.65643,453.811,38,54,0
453.65643,453.811,50,64,0
453.811,453.96487,37,55,0
453.811,453.96487,49,66,0
453.96487,454.11804,48,68,0
453.96487,454.11804,36,58,0
454.11804,454.2705,47,71,0
454.11804,454.2705,35,61,0
454.2705,454.42227,34,63,0
454.2705,454.42227,46,75,0
454.42227,454.5734,45,78,0
454.42227,454.5734,33,66,0
454.5734,454.72418,34,64,0
454.5734,454.72418,46,76,0
454.72418,454.87555,47,75,0
454.72418,454.87555,35,64,0
454.87555,455.02734,48,73,0
454.87555,455.02734,36,63,0
455.02734,455.1796,49,71,0
455.02734,455.1796,37,59,0
455.1796,455.33237,50,70,0
455.1796,455.33237,38,58,0
455.33237,455.48557,51,67,0
455.33237,455.48557,39,55,0
455.48557,455.63922,40,55,0
455.48557,455.63922,52,66,0
455.63922,455.79333,53,64,0
455.63922,455.79333,41,53,0
455.79333,455.94794,52,60,0
455.79333,455.94794,40,51,0
455.94794,456.1044,39,53,0
455.94794,456.1044,51,64,0
456.1044,456.25943,38,55,0
456.1044,456.25943,50,66,0
456.25943,456.4139,49,69,0
456.25943,456.4139,37,57,0
456.4139,456.56793,48,71,0
456.4139,456.56793,36,59,0
456.56793,456.72147,35,63,0
456.56793,456.72147,47,73,0
456.72147,456.87448,46,76,0
456.72147,456.87448,34,64,0
456.87448,457.027,45,78,0
456.87448,457.027,33,66,0
457.027,457.17908,34,64,0
457.027,457.17908,46,76,0
457.17908,457.33167,47,75,0
457.17908,457.33167,35,64,0
457.33167,457.48505,48,73,0
457.33167,457.48505,36,63,0
457.48505,457.63922,44,59,0
457.48505,457.63922,49,71,0
457.48505,457.63922,37,59,0
457.63922,457.79425,50,70,0
457.63922,457.79425,38,58,0
457.79425,457.96045,49,74,0
457.79425,457.96045,37,63,0
457.79425,457.96045,44,63,0
457.96045,458.13336,38,56,0
457.96045,458.13336,50,67,0
458.13336,458.30286,49,75,0
458.13336,458.30286,37,64,0
458.13336,458.30286,44,64,0
458.30286,458.47934,50,69,0
458.30286,458.47934,38,58,0
458.47934,458.65326,37,63,0
458.47934,458.65326,44,63,0
458.47934,458.65326,49,74,0
458.65326,458.83685,60,67,0
458.65326,458.83685,48,56,0
458.82272,459.00635,61,72,0
458.82272,459.00635,49,61,0
458.99222,459.17697,60,67,0
458.99222,459.17697,48,56,0
459.1617,459.25317,61,73,0
459.1617,459.25317,49,61,0
459.34464,459.53247,37,56,0
459.34464,459.53247,49,67,0
459.51807,459.70654,50,72,0
459.51807,459.70654,38,61,0
459.69098,459.87787,39,56,0
459.69098,459.87787,51,67,0
460.05078,460.13724,56,57,0
460.05078,460.13724,59,69,0
459.87787,460.2237,52,86,0
459.87787,460.2237,40,73,0
460.3966,460.48486,59,57,0
460.3966,460.48486,64,69,0
460.2237,460.5731,56,78,0
460.2237,460.5731,44,67,0
460.74548,460.8317,64,57,0
460.74548,460.8317,68,69,0
460.9179,461.00412,64,57,0
460.9179,461.00412,68,69,0
460.5731,461.09033,49,79,0
460.5731,461.09033,61,94,0
461.09033,461.17654,47,70,0
461.09033,461.17654,59,84,0
461.26273,461.34747,45,75,0
461.26273,461.34747,52,75,0
461.26273,461.34747,57,89,0
461.26273,461.34747,49,75,0
461.43222,461.51697,44,66,0
461.43222,461.51697,56,78,0
461.6017,461.68893,43,66,0
461.6017,461.68893,55,78,0
461.77615,461.8611,54,81,0
461.73254,461.8611,42,63,0
461.74707,461.8611,45,65,0
461.7616,461.8611,49,67,0
461.9461,462.0311,53,77,0
461.9461,462.0311,41,65,0
462.1161,462.2028,52,71,0
462.07358,462.2028,40,52,0
462.08777,462.2028,45,54,0
462.10193,462.2028,49,55,0
462.2895,462.37546,51,74,0
462.2895,462.37546,39,63,0
462.46143,462.5546,52,64,0
462.41843,462.5546,40,53,0
462.43277,462.5546,45,53,0
462.44708,462.5546,49,53,0
462.82065,462.9071,59,57,0
462.82065,462.9071,56,57,0
462.64777,462.99356,52,86,0
462.64777,462.99356,40,73,0
463.16647,463.25473,64,57,0
463.16647,463.25473,59,57,0
462.99356,463.34296,56,78,0
462.99356,463.34296,44,67,0
463.51538,463.60156,68,69,0
463.51538,463.60156,64,57,0
463.68777,463.774,64,57,0
463.68777,463.774,68,69,0
463.34296,463.8602,61,94,0
463.34296,463.8602,49,79,0
463.8602,463.9464,59,84,0
463.8602,463.9464,47,70,0
464.03262,464.11734,49,71,0
464.03262,464.11734,57,84,0
464.03262,464.11734,52,71,0
464.03262,464.11734,45,71,0
464.2021,464.28683,44,66,0
464.2021,464.28683,56,78,0
464.37158,464.4573,54,78,0
464.37158,464.4573,42,66,0
464.54303,464.6323,52,69,0
464.54303,464.6323,40,52,0
464.54303,464.6323,49,57,0
464.54303,464.6323,45,54,0
464.7216,465.09656,52,70,0
464.7216,465.09656,45,70,0
464.7216,465.09656,49,70,0
464.7216,465.09656,57,82,0
465.09656,465.48502,52,64,0
465.09656,465.48502,49,64,0
465.09656,465.48502,61,75,0
465.09656,465.48502,57,64,0
465.48502,465.58096,52,64,0
465.48502,465.58096,40,53,0
465.67407,465.8549,64,80,0
465.67407,465.8549,52,68,0
465.8549,465.94455,47,53,0
465.8549,465.94455,59,64,0
466.03378,466.21115,56,70,0
466.03378,466.21115,68,84,0
466.21115,466.29974,52,56,0
466.21115,466.29974,64,68,0
466.3877,466.7349,73,91,0
466.3877,466.7349,61,76,0
466.7349,466.9078,59,67,0
466.7349,466.9078,71,78,0
466.9078,466.9923,69,88,0
466.9078,466.9923,57,74,0
467.0768,467.16302,56,60,0
467.0768,467.16302,68,73,0
467.24924,467.33423,67,73,0
467.24924,467.33423,55,60,0
467.4192,467.50797,66,73,0
467.4192,467.50797,54,60,0
467.5967,467.7643,65,80,0
467.5967,467.7643,53,66,0
467.7643,467.93674,64,72,0
467.7643,467.93674,52,60,0
467.93674,468.02173,49,60,0
467.93674,468.02173,61,72,0
468.1067,468.19705,57,72,0
468.1067,468.19705,45,60,0
468.28766,468.3788,52,70,0
468.28766,468.3788,40,59,0
468.46927,468.64902,52,74,0
468.46927,468.64902,64,88,0
468.64902,468.73868,47,55,0
468.64902,468.73868,59,67,0
468.8279,469.00528,68,86,0
468.8279,469.00528,56,73,0
469.00528,469.09387,52,56,0
469.00528,469.09387,64,68,0
469.18185,469.52902,73,91,0
469.18185,469.52902,61,76,0
469.52902,469.70193,71,78,0
469.52902,469.70193,59,67,0
469.70193,469.78644,69,88,0
469.70193,469.78644,57,74,0
469.87094,469.95715,68,73,0
469.87094,469.95715,56,60,0
470.04337,470.12836,55,60,0
470.04337,470.12836,67,73,0
470.21335,470.3021,66,73,0
470.21335,470.3021,54,60,0
470.39084,470.55844,65,71,0
470.39084,470.55844,53,60,0
470.55844,470.73087,64,69,0
470.55844,470.73087,52,57,0
470.73087,470.81586,51,56,0
470.73087,470.81586,63,68,0
470.90085,470.9912,52,54,0
470.90085,470.9912,64,66,0
471.08157,471.1641,64,68,0
471.08157,471.1641,62,57,0
471.08157,471.1641,56,57,0
471.24652,471.33102,52,67,0
471.41553,471.4977,62,57,0
471.41553,471.4977,64,68,0
471.41553,471.4977,56,57,0
471.5799,471.66418,47,66,0
471.74844,471.83063,56,57,0
471.74844,471.83063,62,57,0
471.74844,471.83063,64,68,0
471.91284,471.99756,40,67,0
472.0823,472.16498,56,57,0
472.0823,472.16498,62,57,0
472.0823,472.16498,64,68,0
472.24866,472.3334,47,66,0
472.41873,472.50565,57,57,0
472.41873,472.50565,64,68,0
472.41873,472.50565,61,57,0
472.5922,472.6783,52,67,0
472.7641,472.8495,64,68,0
472.7641,472.8495,61,57,0
472.7641,472.8495,57,57,0
472.93457,473.01926,49,66,0
473.10358,473.18762,57,57,0
473.10358,473.18762,61,57,0
473.10358,473.18762,64,68,0
473.27155,473.35535,40,67,0
473.439,473.52493,61,57,0
473.439,473.52493,57,57,0
473.439,473.52493,64,68,0
473.6109,473.69687,49,66,0
473.78284,473.86536,62,57,0
473.78284,473.86536,64,68,0
473.78284,473.86536,56,57,0
473.94778,474.0323,52,67,0
474.1168,474.19897,64,68,0
474.1168,474.19897,62,57,0
474.1168,474.19897,56,57,0
474.28116,474.36545,47,66,0
474.4497,474.5319,56,57,0
474.4497,474.5319,64,68,0
474.4497,474.5319,62,57,0
474.6141,474.69882,40,67,0
474.78357,474.86624,64,68,0
474.78357,474.86624,62,57,0
474.78357,474.86624,56,57,0
474.94992,475.03467,47,66,0
475.12,475.2069,61,57,0
475.12,475.2069,64,68,0
475.12,475.2069,57,57,0
475.29346,475.37958,52,67,0
475.46536,475.55075,64,68,0
475.46536,475.55075,57,57,0
475.46536,475.55075,61,57,0
475.63583,475.72052,49,66,0
475.80484,475.88885,64,68,0
475.80484,475.88885,61,57,0
475.80484,475.88885,57,57,0
475.9728,476.0566,40,67,0
476.14026,476.2262,61,57,0
476.14026,476.2262,64,68,0
476.14026,476.2262,57,57,0
476.31216,476.39813,49,66,0
476.48407,476.56662,65,68,0
476.48407,476.56662,61,57,0
476.48407,476.56662,56,57,0
476.64905,476.73355,49,67,0
476.81805,476.90024,61,57,0
476.81805,476.90024,65,68,0
476.81805,476.90024,56,57,0
476.98242,477.0667,44,66,0
477.15097,477.23315,61,57,0
477.15097,477.23315,65,68,0
477.15097,477.23315,56,57,0
477.31537,477.4001,37,67,0
477.48483,477.5675,61,57,0
477.48483,477.5675,56,57,0
477.48483,477.5675,65,68,0
477.65118,477.73593,49,66,0
477.82126,477.90817,58,57,0
477.82126,477.90817,61,68,0
477.99472,478.08084,49,67,0
478.16663,478.252,61,57,0
478.16663,478.252,66,68,0
478.16663,478.252,58,57,0
478.3371,478.42178,46,66,0
478.5061,478.59012,66,68,0
478.5061,478.59012,58,57,0
478.5061,478.59012,61,57,0
478.67407,478.75787,37,67,0
478.84152,478.92746,66,68,0
478.84152,478.92746,58,57,0
478.84152,478.92746,61,57,0
479.01343,479.0994,49,66,0
479.18533,479.26788,61,57,0
479.18533,479.26788,56,57,0
479.18533,479.26788,65,68,0
479.35028,479.4348,49,67,0
479.51932,479.6015,56,57,0
479.51932,479.6015,65,68,0
479.51932,479.6015,61,57,0
479.6837,479.76797,44,66,0
479.85223,479.93442,65,68,0
479.85223,479.93442,56,57,0
479.85223,479.93442,61,57,0
480.0166,480.10135,37,67,0
480.1861,480.26874,56,57,0
480.1861,480.26874,65,68,0
480.1861,480.26874,61,57,0
480.35245,480.4372,49,66,0
480.52252,480.60944,58,57,0
480.52252,480.60944,61,68,0
480.69598,480.7821,49,67,0
480.8679,480.95328,66,68,0
480.8679,480.95328,61,57,0
480.8679,480.95328,58,57,0
481.03836,481.12305,46,66,0
481.20737,481.29138,58,57,0
481.20737,481.29138,61,57,0
481.20737,481.29138,66,68,0
481.37534,481.45914,37,67,0
481.543,481.63116,66,68,0
481.543,481.63116,58,57,0
481.543,481.63116,61,57,0
481.72238,481.81552,49,66,0
481.95193,482.03668,56,42,0
482.12143,482.20618,71,37,0
482.12143,482.20618,65,37,0
482.12143,482.20618,61,37,0
482.29092,482.37863,49,42,0
482.46634,482.5631,71,37,0
482.46634,482.5631,61,37,0
482.46634,482.5631,65,37,0
482.6599,482.7508,72,42,0
482.6599,482.7508,68,37,0
482.8417,482.94104,65,37,0
482.8417,482.94104,73,37,0
483.04633,483.3267,71,48,0
483.3267,483.44296,73,37,0
483.04633,483.44296,68,42,0
483.44296,483.5287,54,42,0
483.6144,483.7001,70,37,0
483.6144,483.7001,61,37,0
483.6144,483.7001,66,37,0
483.78583,483.8754,49,42,0
483.96442,484.0615,61,37,0
483.96442,484.0615,70,37,0
483.96442,484.0615,66,37,0
484.15857,484.2492,69,37,0
484.15857,484.2492,72,42,0
484.33984,484.4366,70,37,0
484.33984,484.4366,73,37,0
484.5434,484.82288,70,48,0
484.82288,484.93918,73,37,0
484.5434,484.93918,66,42,0
484.93918,485.02637,56,42,0
485.1136,485.2008,61,37,0
485.1136,485.2008,65,37,0
485.1136,485.2008,71,37,0
485.288,485.37784,49,42,0
485.46765,485.56567,61,37,0
485.46765,485.56567,71,37,0
485.46765,485.56567,65,37,0
485.66373,485.7552,68,37,0
485.66373,485.7552,72,42,0
485.84665,485.94565,73,37,0
485.84665,485.94565,65,37,0
486.05243,486.34363,71,48,0
486.34363,486.4512,73,37,0
486.05243,486.4512,68,42,0
486.4512,486.53714,54,42,0
486.6231,486.70908,70,37,0
486.6231,486.70908,61,37,0
486.6231,486.70908,66,37,0
486.79504,486.8854,49,42,0
486.97577,487.07315,61,37,0
486.97577,487.07315,66,37,0
486.97577,487.07315,70,37,0
487.17056,487.2601,69,37,0
487.17056,487.2601,72,42,0
487.34967,487.44492,73,37,0
487.34967,487.44492,70,37,0
487.54944,487.8255,70,48,0
487.8255,487.95325,73,37,0
487.54944,487.95325,66,42,0
487.95325,488.04123,56,42,0
488.1292,488.21716,71,37,0
488.1292,488.21716,65,37,0
488.1292,488.21716,61,37,0
488.30515,488.39633,49,42,0
488.49078,488.58755,65,37,0
488.49078,488.58755,61,37,0
488.49078,488.58755,71,37,0
488.68433,488.77722,72,42,0
488.68433,488.77722,68,37,0
488.8701,488.96942,65,37,0
488.8701,488.96942,73,37,0
489.0835,489.37762,71,48,0
489.37762,489.4939,73,37,0
489.0835,489.4939,68,42,0
489.4939,489.59357,80,37,0
489.4939,489.59357,84,48,0
489.69324,489.80054,77,37,0
489.69324,489.80054,85,48,0
489.91547,490.23087,83,56,0
490.23087,490.34073,85,37,0
489.91547,490.34073,80,42,0
490.34073,490.44385,80,37,0
490.34073,490.44385,84,48,0
490.54694,490.64896,85,49,0
490.54694,490.64896,77,37,0
490.7719,491.09335,83,42,0
490.7719,491.09335,87,56,0
491.09335,491.21667,85,37,0
491.09335,491.21667,80,38,0
495.25162,495.41736,54,42,0
495.5831,495.73776,61,30,0
495.5831,495.73776,70,36,0
495.5831,495.73776,66,30,0
495.8924,496.03732,49,36,0
496.18225,496.32718,66,30,0
496.18225,496.32718,70,36,0
496.18225,496.32718,61,30,0
496.4721,496.61163,54,42,0
496.75116,496.88535,69,36,0
496.75116,496.88535,61,36,0
496.75116,496.88535,66,36,0
497.0195,497.15588,49,36,0
497.29224,497.4286,66,30,0
497.29224,497.4286,69,36,0
497.29224,497.4286,61,30,0
497.56497,497.69595,56,42,0
497.82697,497.95303,65,36,0
497.82697,497.95303,71,36,0
497.82697,497.95303,61,36,0
498.07907,498.2062,49,36,0
498.33173,498.45724,61,30,0
498.33173,498.45724,65,30,0
498.33173,498.45724,71,36,0
498.5968,498.71924,56,42,0
498.84167,498.96414,61,36,0
498.84167,498.96414,65,36,0
498.84167,498.96414,71,36,0
499.08658,499.20563,49,36,0
499.32468,499.44373,65,30,0
499.32468,499.44373,61,30,0
499.32468,499.44373,71,36,0
499.57706,499.70312,54,42,0
499.82565,499.9447,66,36,0
499.82565,499.9447,70,36,0
499.82565,499.9447,61,36,0
500.06375,500.1814,49,36,0
500.29904,500.4167,61,30,0
500.29904,500.4167,66,30,0
500.29904,500.4167,70,36,0
500.54712,500.6829,54,42,0
500.81863,500.94415,66,36,0
500.81863,500.94415,69,36,0
500.81863,500.94415,61,36,0
501.06967,501.19467,49,36,0
501.31967,501.446,61,30,0
501.31967,501.446,66,30,0
501.31967,501.446,69,36,0
501.57367,501.69662,56,42,0
501.81857,501.93954,61,36,0
501.81857,501.93954,65,36,0
501.81857,501.93954,71,36,0
502.06052,502.17816,49,36,0
502.2958,502.4216,65,30,0
502.2958,502.4216,61,30,0
502.2958,502.4216,71,36,0
502.5555,502.67798,56,42,0
502.79968,502.92065,65,36,0
502.79968,502.92065,71,36,0
502.79968,502.92065,61,36,0
503.03995,503.1576,49,36,0
503.27524,503.39288,61,30,0
503.27524,503.39288,65,30,0
503.27524,503.39288,71,36,0
503.52164,503.64612,54,42,0
503.7706,503.89014,70,36,0
503.7706,503.89014,61,36,0
503.7706,503.89014,66,36,0
504.00964,504.12918,49,36,0
504.2487,504.36823,66,30,0
504.2487,504.36823,61,30,0
504.2487,504.36823,70,36,0
504.50397,504.63107,54,42,0
504.75513,504.8761,66,36,0
504.75513,504.8761,61,36,0
504.75513,504.8761,69,36,0
504.99683,505.1208,49,36,0
505.24475,505.3687,69,36,0
505.24475,505.3687,61,30,0
505.24475,505.3687,66,30,0
505.521,505.66736,56,42,0
505.8137,505.96002,71,36,0
505.8137,505.96002,61,36,0
505.8137,505.96002,65,36,0
506.10638,506.26767,49,36,0
506.42896,506.59024,65,30,0
506.42896,506.59024,71,36,0
506.42896,506.59024,61,30,0
508.5151,508.57144,37,39,0
508.6651,508.7211,39,41,0
508.8142,508.8699,41,42,0
508.9625,509.01785,42,44,0
509.10995,509.16507,44,46,0
509.10995,509.16507,49,46,0
509.25735,509.31308,43,44,0
509.4064,509.46277,44,43,0
509.5572,509.61884,41,41,0
509.72107,509.77625,42,39,0
509.868,509.9229,44,41,0
510.01413,510.06866,46,42,0
510.15927,510.2135,47,44,0
510.30356,510.3576,54,46,0
510.30356,510.3576,49,46,0
510.44812,510.50275,48,44,0
510.59427,510.64954,49,43,0
510.74207,510.80356,46,41,0
510.906,510.9595,47,49,0
511.04868,511.10568,51,43,0
511.2007,511.2542,44,50,0
511.34338,511.4004,47,46,0
511.49542,511.54932,41,50,0
511.6391,511.69568,44,44,0
511.79,511.84402,37,51,0
511.93402,511.99075,41,47,0
512.0853,512.1389,42,51,0
512.22833,512.28503,46,45,0
512.3796,512.4331,37,53,0
512.5223,512.5791,42,48,0
512.6739,512.7274,34,52,0
512.8166,512.87286,37,46,0
512.96674,513.0202,42,54,0
512.96674,513.0202,30,54,0
513.1094,513.1657,34,50,0
513.1094,513.1657,46,50,0
513.2801,513.3547,41,44,0
513.2801,513.3547,44,44,0
513.2801,513.3547,49,44,0
513.2801,513.35535,37,44,0
513.429,513.50305,51,47,0
513.429,513.50366,39,47,0
513.5768,513.6502,53,48,0
513.5768,513.6508,41,48,0
513.7233,513.7962,54,51,0
513.7233,513.7968,42,51,0
513.8688,513.9413,56,54,0
513.8688,513.9419,49,54,0
513.8688,513.9419,44,54,0
514.01416,514.0874,55,52,0
514.01416,514.088,43,52,0
514.161,514.23505,56,51,0
514.161,514.23566,44,51,0
514.3094,514.3916,53,49,0
514.3094,514.3923,41,49,0
514.4726,514.54663,49,47,0
514.4726,514.54663,54,47,0
514.4726,514.54663,46,47,0
514.4726,514.54724,42,47,0
514.6204,514.6939,56,50,0
514.6204,514.6945,44,50,0
514.7671,514.84,58,52,0
514.7671,514.84064,46,52,0
514.91266,514.98505,59,55,0
514.91266,514.98566,47,55,0
515.0572,515.12946,61,57,0
515.0572,515.13007,54,57,0
515.0572,515.13007,49,57,0
515.20215,515.2752,60,55,0
515.20215,515.2758,48,55,0
515.3487,515.4226,54,55,0
515.3487,515.4226,61,55,0
515.3487,515.4232,49,55,0
515.49695,515.5716,58,52,0
515.49695,515.57227,46,52,0
515.6463,515.72095,61,50,0
515.6463,515.72095,56,50,0
515.6463,515.72095,53,50,0
515.6463,515.72156,49,50,0
515.79517,515.8691,63,53,0
515.79517,515.8697,51,53,0
515.9426,516.0158,65,55,0
515.9426,516.0164,53,55,0
516.08875,516.16125,66,58,0
516.08875,516.16187,54,58,0
516.2335,516.30566,68,61,0
516.2335,516.3063,56,61,0
516.2335,516.3063,61,61,0
516.3784,516.4516,55,58,0
516.3784,516.4516,67,58,0
516.52527,516.5994,68,58,0
516.52527,516.5994,61,58,0
516.52527,516.6001,56,58,0
516.6742,516.75635,65,55,0
516.6742,516.7571,53,55,0
516.8373,516.911,61,53,0
516.8373,516.911,66,53,0
516.8373,516.911,58,53,0
516.8373,516.9116,54,53,0
516.9844,517.05743,68,56,0
516.9844,517.05804,56,56,0
517.13025,517.2027,70,58,0
517.13025,517.2033,58,58,0
517.2749,517.34674,71,61,0
517.2749,517.34735,59,61,0
517.41833,517.48987,73,64,0
517.41833,517.4905,66,64,0
517.41833,517.4905,61,64,0
517.562,517.63477,72,62,0
517.562,517.6354,60,62,0
517.70825,517.78235,66,61,0
517.70825,517.78235,73,61,0
517.70825,517.78296,61,61,0
517.85706,517.93524,70,59,0
517.85706,517.9361,58,59,0
518.03766,518.1203,59,68,0
518.03766,518.1203,71,68,0
518.20294,518.28625,75,59,0
518.20294,518.2869,63,59,0
518.36957,518.4456,68,69,0
518.36957,518.4462,56,69,0
518.52167,518.6003,71,63,0
518.52167,518.6009,59,63,0
518.6789,518.7534,53,69,0
518.6789,518.7534,65,69,0
518.8279,518.9055,68,60,0
518.8279,518.9061,56,60,0
518.9831,519.0565,61,71,0
518.9831,519.0571,49,71,0
519.12994,519.2068,65,64,0
519.12994,519.2068,53,64,0
519.28357,519.35645,46,70,0
519.28357,519.35645,58,70,0
519.4293,519.50574,61,61,0
519.4293,519.5064,49,61,0
519.582,519.6542,54,72,0
519.582,519.6548,42,72,0
519.7263,519.8022,58,66,0
519.7263,519.8022,46,66,0
519.878,519.94965,51,72,0
519.878,519.94965,39,72,0
520.02136,520.0966,54,62,0
520.02136,520.0972,42,62,0
520.1719,520.2439,47,73,0
520.1719,520.2445,35,73,0
520.3159,520.3912,39,68,0
520.3159,520.3912,51,68,0
520.46643,520.53845,44,73,0
520.46643,520.53845,32,73,0
520.6104,520.68555,47,64,0
520.6104,520.68616,35,64,0
520.7606,520.8326,41,75,0
520.7606,520.8332,29,75,0
520.9046,520.9803,44,69,0
520.9046,520.9803,32,69,0
521.0557,521.12787,37,74,0
521.2001,521.2757,41,65,0
521.3514,521.4241,34,76,0
521.49677,521.57294,37,70,0
521.64874,521.722,30,76,0
521.64874,521.722,42,76,0
521.7952,521.87305,34,66,0
521.7952,521.87305,46,66,0
521.9506,522.02686,27,77,0
521.9506,522.02686,39,77,0
522.1031,522.19165,30,71,0
522.1031,522.19165,42,71,0
522.2803,522.3689,23,90,0
522.2803,522.3689,35,90,0
523.0724,523.1597,35,59,0
523.0724,523.1597,47,70,0
523.18884,523.53827,51,64,0
523.18884,523.53827,59,77,0
523.18884,523.53827,54,64,0
523.53827,523.6256,49,85,0
523.53827,523.6256,37,72,0
523.6547,524.0041,53,64,0
523.6547,524.0041,56,64,0
523.6547,524.0041,61,77,0
523.6547,524.0041,49,64,0
524.0041,524.10126,30,83,0
524.0041,524.10126,42,99,0
524.1336,525.1699,61,77,0
524.1336,525.1699,54,64,0
524.1336,525.1699,58,64,0
524.1336,525.1699,49,64,0
525.1699,525.24243,73,77,0
525.1699,525.24243,66,64,0
525.1699,525.24243,61,64,0
525.1699,525.24243,70,64,0
525.46,525.53253,78,64,0
525.46,525.53253,82,64,0
525.46,525.53253,73,64,0
525.46,525.53253,85,77,0
525.7502,525.8227,30,74,0
525.7502,525.8227,42,88,0
