start_time,end_time,note_value,velocity,instrument_program_number
0.30214748,0.39445525,65,37,0
0.3790706,0.47137836,66,37,0
0.45599374,0.5482361,65,37,0
0.53291684,0.6247667,67,38,0
0.6094606,0.70129734,68,38,0
0.6859912,0.7778279,69,38,0
0.7625218,0.85435855,68,39,0
0.83905244,0.9305007,70,39,0
0.9152723,1.0066428,71,39,0
0.99141437,1.0827849,72,41,0
1.0675565,1.1589271,71,41,0
1.1436987,1.2347488,73,41,0
1.2195972,1.3105065,74,42,0
1.2953548,1.3862641,75,42,0
1.3711125,1.4620217,74,42,0
1.4468701,1.5375191,76,43,0
1.5224438,1.612896,77,43,0
1.5978206,1.6882728,78,43,0
1.6731975,1.7636497,77,44,0
1.7485744,1.8388319,79,44,0
1.8238319,1.9138318,80,44,0
1.8988318,1.9888319,81,45,0
1.9738319,2.0638318,80,45,0
2.048832,2.138695,82,45,0
2.1237698,2.213322,83,45,0
2.1983967,2.2879488,84,45,0
2.2730234,2.3625758,83,45,0
2.3476503,2.4371288,86,46,0
2.4222772,2.5113862,84,46,0
2.4965346,2.5856435,85,46,0
2.570792,2.659901,84,48,0
2.6450493,2.7341583,86,48,0
2.7193067,2.8084157,87,48,0
2.793564,2.8823924,89,49,0
2.8676143,2.956284,87,49,0
2.941506,3.0301032,90,49,0
3.0153975,3.1036327,91,50,0
3.0889268,3.1771622,92,50,0
3.1624563,3.250578,91,50,0
3.2359438,3.3237486,95,51,0
3.3091145,3.3969195,96,51,0
3.382285,3.4698179,97,51,0
3.4552546,3.5426333,96,52,0
3.5280702,3.6154487,98,52,0
3.6008856,3.673701,99,54,0
3.673701,3.7465167,98,54,0
3.7465167,3.8193321,99,53,0
3.8193321,3.8921478,97,53,0
3.8921478,3.9649632,96,52,0
3.9649632,4.0380926,95,52,0
4.0380926,4.1112633,96,51,0
4.1112633,4.184434,94,51,0
4.184434,4.2576046,93,50,0
4.2576046,4.3307753,92,50,0
4.3307753,4.404102,93,49,0
4.404102,4.477631,91,49,0
4.477631,4.5511603,90,48,0
4.5511603,4.6246896,89,48,0
4.6246896,4.6982193,90,46,0
4.6982193,4.7717485,88,45,0
4.7717485,4.844564,87,44,0
4.844564,4.9173794,86,44,0
4.9173794,4.9904675,87,44,0
4.9904675,5.063638,85,43,0
5.063638,5.137108,84,43,0
5.137108,5.210637,83,43,0
5.210637,5.284384,84,42,0
5.284384,5.3582754,82,42,0
5.3582754,5.432417,81,41,0
5.432417,5.5066743,80,41,0
5.5066743,5.581215,81,41,0
5.581215,5.655842,79,39,0
5.655842,5.7306614,78,39,0
5.7306614,5.8056617,77,38,0
5.8056617,5.8808875,78,38,0
5.8808875,5.9562645,75,37,0
5.9562645,6.031902,74,37,0
6.031902,6.1084943,73,37,0
6.1084943,6.1857214,74,36,0
6.1857214,6.263235,72,36,0
6.263235,6.341164,70,36,0
6.341164,6.4193845,69,36,0
6.4193845,6.498036,70,36,0
6.498036,6.5771155,68,35,0
6.5771155,6.6564946,67,35,0
6.6564946,6.7363176,66,33,0
6.7363176,6.816531,67,33,0
6.816531,6.8970904,65,33,0
6.8970904,6.978099,73,32,0
6.978099,7.0594296,70,32,0
7.0594296,7.1412187,67,31,0
7.1412187,7.223471,65,31,0
7.223471,7.596142,64,38,0
7.897955,7.9737124,97,43,0
7.9737124,8.049502,94,43,0
8.049502,8.125644,90,42,0
8.125644,8.201786,87,41,0
8.201786,8.278007,91,41,0
8.278007,8.354537,88,39,0
8.354537,8.431067,84,39,0
8.431067,8.507722,81,38,0
8.507722,8.584645,85,37,0
8.584645,8.661569,82,36,0
8.661569,8.738492,78,36,0
8.738492,8.815414,75,36,0
8.815414,8.892338,79,35,0
8.892338,8.969261,76,35,0
8.969261,9.046185,72,33,0
9.046185,9.123107,69,32,0
9.123107,9.200867,73,32,0
9.200867,9.283442,70,31,0
9.283442,9.371608,66,31,0
9.371608,9.452348,64,30,0
9.452348,9.610807,67,30,0
9.452348,9.610807,64,30,0
10.020359,10.103231,73,33,0
10.020359,10.103231,76,33,0
10.020359,10.103231,85,39,0
10.186105,10.268977,76,28,0
10.186105,10.268977,73,28,0
10.186105,10.268977,84,35,0
10.3518505,10.434723,73,31,0
10.3518505,10.434723,76,31,0
10.3518505,10.434723,83,37,0
10.517596,10.607958,76,28,0
10.517596,10.607958,82,33,0
10.517596,10.607958,73,28,0
10.6983185,10.781652,85,38,0
10.6983185,10.781652,73,32,0
10.6983185,10.781652,76,32,0
10.864985,10.9507,84,42,0
10.9507,11.036414,83,41,0
10.864985,11.036414,76,35,0
10.864985,11.036414,73,35,0
11.036414,11.1221285,82,39,0
11.550699,11.626457,99,43,0
11.626457,11.702247,96,43,0
11.702247,11.778389,92,42,0
11.778389,11.854531,89,41,0
11.854531,11.930751,93,41,0
11.930751,12.007281,90,39,0
12.007281,12.083813,86,39,0
12.083813,12.160467,83,38,0
12.160467,12.2373905,87,37,0
12.2373905,12.314314,84,36,0
12.314314,12.391236,80,36,0
12.391236,12.46816,77,36,0
12.46816,12.545083,81,35,0
12.545083,12.622006,78,35,0
12.622006,12.698929,74,33,0
12.698929,12.775852,71,32,0
12.775852,12.852255,75,32,0
12.852255,12.928975,72,31,0
12.928975,13.006469,68,31,0
13.006469,13.08471,65,30,0
13.08471,13.24317,69,30,0
13.08471,13.24317,66,30,0
13.9141655,13.997039,78,39,0
13.9141655,13.997039,81,39,0
13.9141655,13.997039,90,46,0
14.079911,14.162785,78,33,0
14.079911,14.162785,81,33,0
14.079911,14.162785,89,41,0
14.245657,14.32853,88,45,0
14.245657,14.32853,81,37,0
14.245657,14.32853,78,37,0
14.411403,14.501764,81,33,0
14.411403,14.501764,87,39,0
14.411403,14.501764,78,33,0
14.592126,14.675459,78,38,0
14.592126,14.675459,90,45,0
14.592126,14.675459,81,38,0
14.758793,14.844507,89,50,0
14.844507,14.930222,88,48,0
14.758793,14.930222,81,41,0
14.758793,14.930222,78,41,0
14.930222,15.015936,87,43,0
15.296455,15.382317,78,31,0
15.296455,15.382317,75,31,0
15.296455,15.382317,87,38,0
15.468178,15.554039,78,27,0
15.468178,15.554039,75,27,0
15.468178,15.554039,86,33,0
15.639901,15.725762,78,29,0
15.639901,15.725762,75,29,0
15.639901,15.725762,85,36,0
15.811624,15.904965,75,27,0
15.811624,15.904965,84,31,0
15.811624,15.904965,78,27,0
15.998307,16.08417,87,37,0
15.998307,16.08417,78,30,0
15.998307,16.08417,75,30,0
16.17003,16.260012,86,39,0
16.260012,16.349995,85,38,0
16.17003,16.349995,78,33,0
16.17003,16.349995,75,33,0
16.349995,16.439976,84,37,0
16.709923,16.795784,72,29,0
16.709923,16.795784,75,29,0
16.709923,16.795784,84,36,0
16.881645,16.97217,83,38,0
16.97217,17.062695,82,37,0
16.881645,17.062695,75,32,0
16.881645,17.062695,72,32,0
17.062695,17.15322,81,37,0
17.43893,17.528376,81,35,0
17.43893,17.528376,72,28,0
17.43893,17.528376,75,28,0
17.61782,17.712938,80,36,0
17.712938,17.808056,79,36,0
17.61782,17.808056,72,30,0
17.61782,17.808056,75,30,0
17.808056,17.903173,78,35,0
18.18974,18.285463,72,28,0
18.18974,18.285463,77,36,0
18.380379,18.474304,78,30,0
18.380379,18.474304,75,24,0
18.568232,18.661602,77,36,0
18.568232,18.661602,72,28,0
18.754944,18.847881,79,31,0
18.754944,18.847881,75,24,0
18.940645,19.033297,72,28,0
18.940645,19.033297,77,36,0
19.12549,19.217684,78,30,0
19.12549,19.217684,75,24,0
19.309343,19.400974,72,28,0
19.309343,19.400974,77,36,0
19.491762,19.547943,79,32,0
19.604067,19.659933,77,36,0
19.715574,19.771038,78,30,0
19.826286,19.881277,77,36,0
19.936222,19.990889,79,29,0
20.045385,20.099718,77,36,0
20.153772,20.207645,78,32,0
20.261358,20.314835,77,36,0
20.368309,20.421785,79,30,0
20.475262,20.554853,77,36,0
20.554853,20.634218,78,31,0
20.634218,20.713583,77,36,0
20.713583,20.792727,79,31,0
20.792727,20.871674,77,36,0
20.871674,20.95062,78,31,0
20.95062,21.029568,77,36,0
21.029568,21.108515,79,31,0
21.108515,21.187462,77,36,0
21.187462,21.26641,78,31,0
21.26641,21.345026,77,36,0
21.345026,21.423851,79,30,0
21.423851,21.503153,77,36,0
21.503153,21.58314,78,31,0
21.58314,21.663786,77,36,0
21.663786,21.74511,79,31,0
21.74511,21.827152,77,36,0
21.827152,21.90985,78,31,0
21.90985,21.99334,77,36,0
21.99334,22.0775,79,32,0
22.0775,22.180439,77,36,0
22.165733,22.268675,78,32,0
22.25397,22.35691,77,36,0
22.342205,22.430439,79,31,0
22.430439,22.526117,69,29,0
22.430439,22.526117,77,36,0
22.526117,22.622469,78,32,0
22.526117,22.622469,72,27,0
22.622469,22.71882,69,29,0
22.622469,22.71882,77,36,0
22.71882,22.815172,72,26,0
22.71882,22.815172,79,31,0
22.815172,22.915977,77,36,0
22.815172,22.915977,70,29,0
22.915977,23.016785,74,27,0
22.915977,23.016785,78,32,0
23.016785,23.117592,77,36,0
23.016785,23.117592,70,29,0
23.117592,23.218397,74,26,0
23.117592,23.218397,79,31,0
23.218397,23.313696,77,36,0
23.218397,23.313696,69,29,0
23.313696,23.408995,78,32,0
23.313696,23.408995,75,27,0
23.408995,23.504293,69,29,0
23.408995,23.504293,77,36,0
23.504293,23.599592,79,31,0
23.504293,23.599592,75,26,0
23.599592,23.702784,77,36,0
23.599592,23.702784,70,29,0
23.702784,23.754381,74,27,0
23.702784,23.754381,78,32,0
23.805977,23.909168,70,42,0
23.805977,23.909168,78,42,0
23.909168,23.960764,79,36,0
23.909168,23.960764,74,36,0
24.011065,24.11049,74,37,0
24.011065,24.11049,80,45,0
24.11049,24.209328,77,32,0
24.11049,24.209328,81,38,0
24.209328,24.307413,81,45,0
24.209328,24.307413,74,38,0
24.307413,24.35621,77,32,0
24.307413,24.35621,82,38,0
24.404816,24.501568,82,46,0
24.404816,24.501568,72,39,0
24.501568,24.549692,75,35,0
24.501568,24.549692,81,41,0
24.597603,24.693424,81,45,0
24.597603,24.693424,72,38,0
24.693424,24.741335,80,38,0
24.693424,24.741335,75,32,0
24.789248,24.885069,80,43,0
24.789248,24.885069,72,36,0
24.885069,24.93298,79,37,0
24.885069,24.93298,75,31,0
24.98089,25.086584,72,35,0
24.98089,25.086584,79,42,0
25.086584,25.139431,78,36,0
25.086584,25.139431,75,29,0
25.192278,25.303165,70,29,0
25.192278,25.303165,77,36,0
25.293085,25.40397,78,32,0
25.293085,25.40397,74,27,0
25.39389,25.505735,77,36,0
25.39389,25.505735,70,29,0
25.494698,25.605072,74,26,0
25.494698,25.605072,79,31,0
25.605072,25.701424,69,29,0
25.605072,25.701424,77,36,0
25.701424,25.797775,78,32,0
25.701424,25.797775,72,27,0
25.797775,25.894127,69,29,0
25.797775,25.894127,77,36,0
25.894127,25.990479,72,26,0
25.894127,25.990479,79,31,0
25.990479,26.091286,77,36,0
25.990479,26.091286,70,29,0
26.091286,26.192091,78,32,0
26.091286,26.192091,74,27,0
26.192091,26.292898,70,29,0
26.192091,26.292898,77,36,0
26.292898,26.393705,79,31,0
26.292898,26.393705,74,26,0
26.393705,26.489004,77,36,0
26.393705,26.489004,69,29,0
26.489004,26.584301,75,27,0
26.489004,26.584301,78,32,0
26.584301,26.6796,69,29,0
26.584301,26.6796,77,36,0
26.6796,26.774899,79,31,0
26.6796,26.774899,75,26,0
26.774899,26.878092,70,29,0
26.774899,26.878092,77,36,0
26.878092,26.929688,74,27,0
26.878092,26.929688,78,32,0
26.981283,27.084475,70,42,0
26.981283,27.084475,78,42,0
27.084475,27.136072,79,36,0
27.084475,27.136072,74,36,0
27.18637,27.285799,80,45,0
27.18637,27.285799,74,37,0
27.285799,27.335342,77,32,0
27.285799,27.335342,81,38,0
27.384636,27.482721,74,38,0
27.384636,27.482721,81,45,0
27.482721,27.531517,77,32,0
27.482721,27.531517,82,38,0
27.580122,27.676876,72,39,0
27.580122,27.676876,82,46,0
27.676876,27.724998,81,41,0
27.676876,27.724998,75,35,0
27.77291,27.86873,72,38,0
27.77291,27.86873,81,45,0
27.86873,27.916643,80,38,0
27.86873,27.916643,75,32,0
27.964554,28.060375,72,36,0
27.964554,28.060375,80,43,0
28.060375,28.108286,75,31,0
28.060375,28.108286,79,37,0
28.156199,28.26189,72,35,0
28.156199,28.26189,79,42,0
28.26189,28.314737,75,29,0
28.26189,28.314737,78,36,0
28.367584,28.467812,74,29,0
28.367584,28.467812,77,36,0
28.467812,28.568039,70,27,0
28.467812,28.568039,78,32,0
28.568039,28.668266,77,36,0
28.568039,28.668266,74,29,0
28.668266,28.775917,81,36,0
28.775917,28.872269,74,29,0
28.775917,28.872269,82,36,0
28.872269,28.96862,83,32,0
28.872269,28.96862,77,27,0
28.96862,29.06497,74,29,0
28.96862,29.06497,82,36,0
29.06497,29.161322,77,26,0
29.06497,29.161322,83,31,0
29.161322,29.262129,75,29,0
29.161322,29.262129,82,36,0
29.262129,29.362936,78,27,0
29.262129,29.362936,83,32,0
29.362936,29.463741,75,29,0
29.362936,29.463741,82,36,0
29.463741,29.564548,78,26,0
29.463741,29.564548,83,31,0
29.564548,29.659847,74,29,0
29.564548,29.659847,82,36,0
29.659847,29.755146,80,27,0
29.659847,29.755146,83,32,0
29.755146,29.850445,82,36,0
29.755146,29.850445,74,29,0
29.850445,29.945744,80,26,0
29.850445,29.945744,83,31,0
29.945744,30.048935,75,29,0
29.945744,30.048935,82,36,0
30.048935,30.10053,83,32,0
30.048935,30.10053,78,27,0
30.152126,30.25532,75,42,0
30.152126,30.25532,83,42,0
30.25532,30.306915,84,36,0
30.25532,30.306915,78,36,0
30.357214,30.456642,85,45,0
30.357214,30.456642,78,37,0
30.456642,30.55548,86,38,0
30.456642,30.55548,82,32,0
30.55548,30.653564,78,38,0
30.55548,30.653564,86,45,0
30.653564,30.70236,82,32,0
30.653564,30.70236,87,38,0
30.750967,30.84772,77,39,0
30.750967,30.84772,87,46,0
30.84772,30.895842,80,35,0
30.84772,30.895842,86,41,0
30.943752,31.039576,77,38,0
30.943752,31.039576,86,45,0
31.039576,31.087486,85,38,0
31.039576,31.087486,80,32,0
31.135397,31.23122,85,43,0
31.135397,31.23122,77,36,0
31.23122,31.27913,84,37,0
31.23122,31.27913,80,31,0
31.327042,31.432735,77,35,0
31.327042,31.432735,84,42,0
31.432735,31.485582,80,29,0
31.432735,31.485582,83,36,0
31.53843,31.63425,82,36,0
31.53843,31.63425,78,29,0
31.63425,31.730072,75,27,0
31.63425,31.730072,83,32,0
31.730072,31.825895,78,29,0
31.730072,31.825895,82,36,0
31.825895,31.921717,75,26,0
31.825895,31.921717,83,31,0
31.921717,32.01807,82,36,0
31.921717,32.01807,74,29,0
32.01807,32.114418,77,27,0
32.01807,32.114418,83,32,0
32.114418,32.21077,82,36,0
32.114418,32.21077,74,29,0
32.21077,32.30712,83,31,0
32.21077,32.30712,77,26,0
32.30712,32.40793,82,36,0
32.30712,32.40793,75,29,0
32.40793,32.508736,83,32,0
32.40793,32.508736,78,27,0
32.508736,32.609543,82,36,0
32.508736,32.609543,75,29,0
32.609543,32.71035,78,26,0
32.609543,32.71035,83,31,0
32.71035,32.80565,74,29,0
32.71035,32.80565,82,36,0
32.80565,32.900948,80,27,0
32.80565,32.900948,83,32,0
32.900948,32.996246,82,36,0
32.900948,32.996246,74,29,0
32.996246,33.091545,83,31,0
32.996246,33.091545,80,26,0
33.091545,33.194736,75,29,0
33.091545,33.194736,82,36,0
33.194736,33.24633,83,32,0
33.194736,33.24633,78,27,0
33.297928,33.40112,75,42,0
33.297928,33.40112,83,42,0
33.40112,33.452717,78,36,0
33.40112,33.452717,84,36,0
33.503014,33.602444,85,45,0
33.503014,33.602444,78,37,0
33.602444,33.70128,86,38,0
33.602444,33.70128,82,32,0
33.70128,33.799366,78,38,0
33.70128,33.799366,86,45,0
33.799366,33.84816,82,32,0
33.799366,33.84816,87,38,0
33.896767,33.99352,77,39,0
33.896767,33.99352,87,46,0
33.99352,34.04164,86,41,0
33.99352,34.04164,80,35,0
34.089554,34.185375,77,38,0
34.089554,34.185375,86,45,0
34.185375,34.233288,80,32,0
34.185375,34.233288,85,38,0
34.281197,34.37702,85,43,0
34.281197,34.37702,77,36,0
34.37702,34.42493,80,31,0
34.37702,34.42493,84,37,0
34.472843,34.578537,84,42,0
34.472843,34.578537,77,35,0
34.578537,34.631382,83,36,0
34.578537,34.631382,80,29,0
34.68423,34.787422,82,36,0
34.68423,34.787422,78,29,0
34.787422,34.890614,83,32,0
34.787422,34.890614,75,27,0
34.890614,34.993805,82,36,0
34.890614,34.993805,78,29,0
34.993805,35.11325,87,33,0
35.11325,35.210655,78,37,0
35.210655,35.308056,87,36,0
35.210655,35.308056,85,29,0
35.11325,35.308056,90,45,0
35.308056,35.40546,78,31,0
35.308056,35.40546,90,38,0
35.40546,35.50286,85,29,0
35.40546,35.50286,88,36,0
35.50286,35.600266,78,39,0
35.600266,35.697666,83,28,0
35.600266,35.697666,86,35,0
35.50286,35.697666,88,48,0
35.697666,35.79507,78,31,0
35.697666,35.79507,88,38,0
35.79507,35.89247,87,36,0
35.79507,35.89247,83,29,0
35.89247,35.989876,76,45,0
35.989876,36.087276,82,27,0
35.989876,36.087276,84,33,0
35.89247,36.087276,87,45,0
36.087276,36.18468,76,31,0
36.087276,36.18468,87,38,0
36.18468,36.298317,85,35,0
36.18468,36.298317,82,35,0
36.298317,36.395718,75,37,0
36.395718,36.493122,78,27,0
36.395718,36.493122,82,33,0
36.298317,36.493122,85,45,0
36.493122,36.590523,75,31,0
36.493122,36.590523,85,38,0
36.590523,36.670883,83,35,0
36.590523,36.670883,78,35,0
36.697666,36.7959,73,35,0
36.7959,36.89413,79,33,0
36.7959,36.89413,81,33,0
36.697666,36.89413,84,42,0
36.89413,36.992363,73,29,0
36.89413,36.992363,84,36,0
36.992363,37.071587,82,32,0
36.992363,37.071587,79,32,0
37.097996,37.196877,72,35,0
37.196877,37.295753,80,32,0
37.196877,37.295753,77,27,0
37.097996,37.295753,82,41,0
37.295753,37.394634,82,36,0
37.295753,37.394634,72,29,0
37.394634,37.47616,81,31,0
37.394634,37.47616,77,26,0
37.50333,37.602867,70,35,0
37.602867,37.7024,76,26,0
37.602867,37.7024,78,31,0
37.50333,37.7024,81,41,0
37.7024,37.801937,70,29,0
37.7024,37.801937,81,36,0
37.801937,37.882465,76,26,0
37.801937,37.882465,79,31,0
37.90931,38.00819,69,32,0
38.00819,38.107067,72,24,0
38.00819,38.107067,76,29,0
37.90931,38.107067,79,38,0
38.107067,38.205948,69,29,0
38.107067,38.205948,79,36,0
38.205948,38.284786,77,30,0
38.205948,38.284786,72,25,0
38.31106,38.409943,77,33,0
38.409943,38.508823,75,28,0
38.31106,38.508823,73,28,0
38.508823,38.6077,77,33,0
38.6077,38.714085,76,28,0
38.508823,38.714085,70,28,0
38.714085,38.81362,79,31,0
38.81362,38.913155,76,27,0
38.714085,38.913155,75,26,0
38.913155,39.01269,79,32,0
39.01269,39.11223,77,25,0
38.913155,39.11223,72,27,0
39.11223,39.21176,77,30,0
39.11223,39.21176,70,25,0
39.21176,39.3113,75,26,0
39.3113,39.41083,77,31,0
39.41083,39.519764,76,26,0
39.519764,39.61717,72,27,0
39.519764,39.61717,79,32,0
39.61717,39.71457,75,28,0
39.71457,39.811974,79,31,0
39.811974,39.909374,78,28,0
39.909374,40.001163,77,36,0
40.001163,40.092953,78,31,0
40.092953,40.184357,77,36,0
40.184357,40.27592,79,30,0
40.27592,40.36783,77,36,0
40.36783,40.460102,78,31,0
40.460102,40.55285,77,36,0
40.55285,40.645954,79,31,0
40.645954,40.739414,77,36,0
40.739414,40.833244,78,31,0
40.833244,40.927513,77,36,0
40.927513,41.022217,79,32,0
41.022217,41.11857,77,36,0
41.11857,41.21492,78,32,0
41.21492,41.31127,77,36,0
41.31127,41.407623,79,31,0
41.407623,41.503975,77,36,0
41.407623,41.503975,69,29,0
41.503975,41.600327,72,27,0
41.503975,41.600327,78,32,0
41.600327,41.69668,77,36,0
41.600327,41.69668,69,29,0
41.69668,41.79303,79,31,0
41.69668,41.79303,72,26,0
41.79303,41.893833,77,36,0
41.79303,41.893833,70,29,0
41.893833,41.99464,78,32,0
41.893833,41.99464,74,27,0
41.99464,42.095448,77,36,0
41.99464,42.095448,70,29,0
42.095448,42.196255,79,31,0
42.095448,42.196255,74,26,0
42.196255,42.291553,77,36,0
42.196255,42.291553,69,29,0
42.291553,42.386852,72,27,0
42.291553,42.386852,78,32,0
42.386852,42.48215,69,29,0
42.386852,42.48215,77,36,0
42.48215,42.57745,79,31,0
42.48215,42.57745,72,26,0
42.57745,42.68064,70,29,0
42.57745,42.68064,77,36,0
42.68064,42.73224,74,27,0
42.68064,42.73224,78,32,0
42.783833,42.887024,78,42,0
42.783833,42.887024,70,42,0
42.887024,42.93862,79,36,0
42.887024,42.93862,74,36,0
42.988922,43.08835,74,45,0
42.988922,43.08835,80,45,0
43.08835,43.187183,77,38,0
43.08835,43.187183,81,38,0
43.187183,43.28527,74,45,0
43.187183,43.28527,81,45,0
43.28527,43.33407,77,38,0
43.28527,43.33407,82,38,0
43.38267,43.479424,82,46,0
43.38267,43.479424,72,46,0
43.479424,43.52755,75,41,0
43.479424,43.52755,81,41,0
43.57546,43.67128,72,45,0
43.57546,43.67128,81,45,0
43.67128,43.719193,80,38,0
43.67128,43.719193,75,38,0
43.767105,43.862926,72,43,0
43.767105,43.862926,80,43,0
43.862926,43.910835,75,37,0
43.862926,43.910835,79,37,0
43.958748,44.06444,72,42,0
43.958748,44.06444,79,42,0
44.06444,44.117287,75,36,0
44.06444,44.117287,78,36,0
44.170135,44.268173,77,36,0
44.170135,44.268173,74,29,0
44.268173,44.366215,78,32,0
44.268173,44.366215,70,27,0
44.366215,44.464252,77,36,0
44.366215,44.464252,74,29,0
44.464252,44.574627,70,26,0
44.464252,44.574627,79,31,0
44.574627,44.67098,77,36,0
44.574627,44.67098,69,29,0
44.67098,44.76733,78,32,0
44.67098,44.76733,72,27,0
44.76733,44.86368,69,29,0
44.76733,44.86368,77,36,0
44.86368,44.960033,79,31,0
44.86368,44.960033,72,26,0
44.960033,45.06084,70,29,0
44.960033,45.06084,77,36,0
45.06084,45.161648,78,32,0
45.06084,45.161648,74,27,0
45.161648,45.26245,70,29,0
45.161648,45.26245,77,36,0
45.26245,45.36326,79,31,0
45.26245,45.36326,74,26,0
45.36326,45.458557,69,29,0
45.36326,45.458557,77,36,0
45.458557,45.553856,75,27,0
45.458557,45.553856,78,32,0
45.553856,45.649155,77,36,0
45.553856,45.649155,69,29,0
45.649155,45.744453,79,31,0
45.649155,45.744453,75,26,0
45.744453,45.847645,77,36,0
45.744453,45.847645,70,29,0
45.847645,45.899242,78,32,0
45.847645,45.899242,74,27,0
45.95084,46.05403,70,42,0
45.95084,46.05403,78,42,0
46.05403,46.105625,79,36,0
46.05403,46.105625,74,36,0
46.155926,46.255352,80,45,0
46.155926,46.255352,74,45,0
46.255352,46.35419,77,38,0
46.255352,46.35419,81,38,0
46.35419,46.452274,74,45,0
46.35419,46.452274,81,45,0
46.452274,46.501072,82,38,0
46.452274,46.501072,77,38,0
46.54968,46.64643,82,46,0
46.54968,46.64643,72,46,0
46.64643,46.694553,75,41,0
46.64643,46.694553,81,41,0
46.742466,46.838287,81,45,0
46.742466,46.838287,72,45,0
46.838287,46.886196,80,38,0
46.838287,46.886196,75,38,0
46.93411,47.02993,72,43,0
46.93411,47.02993,80,43,0
47.02993,47.077843,75,37,0
47.02993,47.077843,79,37,0
47.12575,47.231445,79,42,0
47.12575,47.231445,72,42,0
47.231445,47.284294,78,37,0
47.231445,47.284294,75,37,0
47.33714,47.437366,77,37,0
47.33714,47.437366,74,29,0
47.437366,47.537594,78,33,0
47.437366,47.537594,70,28,0
47.537594,47.63782,74,30,0
47.537594,47.63782,77,37,0
47.63782,47.745472,81,36,0
47.745472,47.838814,82,37,0
47.745472,47.838814,74,30,0
47.838814,47.932156,83,33,0
47.838814,47.932156,77,28,0
47.932156,48.025497,74,30,0
47.932156,48.025497,82,38,0
48.025497,48.11884,84,33,0
48.025497,48.11884,77,27,0
48.11884,48.21643,75,31,0
48.11884,48.21643,82,38,0
48.21643,48.314022,78,28,0
48.21643,48.314022,83,34,0
48.314022,48.411617,82,38,0
48.314022,48.411617,75,31,0
48.411617,48.50921,84,33,0
48.411617,48.50921,78,28,0
48.50921,48.60084,82,39,0
48.50921,48.60084,77,31,0
48.60084,48.69247,80,29,0
48.60084,48.69247,83,34,0
48.69247,48.784103,82,39,0
48.69247,48.784103,77,31,0
48.784103,48.875732,84,34,0
48.784103,48.875732,80,28,0
48.875732,48.97729,82,39,0
48.875732,48.97729,75,32,0
48.97729,49.02807,83,35,0
48.97729,49.02807,79,29,0
49.078846,49.180405,83,47,0
49.078846,49.180405,75,47,0
49.180405,49.230835,84,40,0
49.180405,49.230835,79,40,0
49.279003,49.374996,85,50,0
49.279003,49.374996,79,50,0
49.374996,49.470184,82,42,0
49.374996,49.470184,86,42,0
49.470184,49.564514,79,51,0
49.470184,49.564514,86,51,0
49.564514,49.611477,82,43,0
49.564514,49.611477,87,43,0
49.658257,49.75127,87,52,0
49.658257,49.75127,77,52,0
49.75127,49.79747,86,47,0
49.75127,49.79747,80,47,0
49.843533,49.93516,77,51,0
49.843533,49.93516,86,51,0
49.93516,49.98098,80,44,0
49.93516,49.98098,85,44,0
50.026794,50.118423,85,49,0
50.026794,50.118423,77,49,0
50.118423,50.16424,84,43,0
50.118423,50.16424,80,43,0
50.210056,50.31093,84,49,0
50.210056,50.31093,77,49,0
50.31093,50.361366,83,42,0
50.31093,50.361366,80,42,0
50.411804,50.50457,82,42,0
50.411804,50.50457,79,34,0
50.50457,50.597332,75,32,0
50.50457,50.597332,83,38,0
50.597332,50.690098,79,34,0
50.597332,50.690098,82,42,0
50.690098,50.78286,84,37,0
50.690098,50.78286,75,31,0
50.78286,50.87738,74,34,0
50.78286,50.87738,82,43,0
50.87738,50.971897,77,32,0
50.87738,50.971897,83,38,0
50.971897,51.066414,82,43,0
50.971897,51.066414,74,35,0
51.066414,51.160934,77,31,0
51.066414,51.160934,84,37,0
51.160934,51.259167,75,35,0
51.160934,51.259167,82,43,0
51.259167,51.3574,83,39,0
51.259167,51.3574,78,33,0
51.3574,51.455627,82,44,0
51.3574,51.455627,75,35,0
51.455627,51.55386,84,38,0
51.455627,51.55386,78,32,0
51.55386,51.646626,77,35,0
51.55386,51.646626,82,44,0
51.646626,51.73939,80,33,0
51.646626,51.73939,83,39,0
51.73939,51.832153,77,36,0
51.73939,51.832153,82,45,0
51.832153,51.92492,80,32,0
51.832153,51.92492,84,38,0
51.92492,52.02579,75,36,0
51.92492,52.02579,82,45,0
52.02579,52.07623,83,40,0
52.02579,52.07623,79,34,0
52.126667,52.227238,75,53,0
52.126667,52.227238,83,53,0
52.227238,52.27541,84,45,0
52.227238,52.27541,79,45,0
52.323536,52.41922,79,57,0
52.323536,52.41922,85,57,0
52.41922,52.51415,86,48,0
52.41922,52.51415,82,48,0
52.51415,52.60848,79,58,0
52.51415,52.60848,86,58,0
52.60848,52.655403,87,49,0
52.60848,52.655403,82,49,0
52.702072,52.795273,77,59,0
52.702072,52.795273,87,59,0
52.795273,52.84194,80,53,0
52.795273,52.84194,86,53,0
52.888615,52.981953,86,58,0
52.888615,52.981953,77,58,0
52.981953,53.028625,85,49,0
52.981953,53.028625,80,49,0
53.075294,53.168636,77,55,0
53.075294,53.168636,85,55,0
53.168636,53.21531,80,48,0
53.168636,53.21531,84,48,0
53.26198,53.367672,84,54,0
53.26198,53.367672,77,54,0
53.367672,53.42052,80,46,0
53.367672,53.42052,83,46,0
53.473366,53.56909,82,58,0
53.473366,53.56909,79,44,0
53.56909,53.664814,75,42,0
53.56909,53.664814,84,55,0
53.664814,53.76054,82,58,0
53.664814,53.76054,79,44,0
53.76054,53.8818,87,54,0
53.8818,53.980034,80,43,0
53.980034,54.078262,88,41,0
53.980034,54.078262,86,33,0
53.8818,54.078262,91,54,0
54.078262,54.176495,91,45,0
54.078262,54.176495,80,36,0
54.176495,54.25017,86,33,0
54.176495,54.25017,89,42,0
54.274727,54.371067,79,45,0
54.371067,54.467407,86,39,0
54.371067,54.467407,84,32,0
54.274727,54.467407,89,55,0
54.467407,54.563744,79,36,0
54.467407,54.563744,89,45,0
54.563744,54.677937,87,42,0
54.563744,54.677937,84,33,0
54.677937,54.77617,77,52,0
54.77617,54.874397,85,37,0
54.77617,54.874397,83,31,0
54.677937,54.874397,87,52,0
54.874397,54.97263,77,36,0
54.874397,54.97263,87,45,0
54.97263,55.046307,86,39,0
54.97263,55.046307,82,39,0
55.07086,55.17242,75,43,0
55.17242,55.273975,79,31,0
55.17242,55.273975,83,37,0
55.07086,55.273975,86,50,0
55.273975,55.375534,86,44,0
55.273975,55.375534,75,36,0
55.375534,55.461834,79,39,0
55.375534,55.461834,84,39,0
55.4906,55.58948,79,39,0
55.58948,55.68836,81,37,0
55.58948,55.68836,73,37,0
55.4906,55.68836,84,48,0
55.68836,55.78724,79,32,0
55.68836,55.78724,84,39,0
55.78724,55.88612,82,36,0
55.78724,55.88612,73,36,0
55.88612,55.984997,73,37,0
55.984997,56.083878,70,29,0
55.984997,56.083878,78,35,0
55.88612,56.083878,81,45,0
56.083878,56.182755,73,31,0
56.083878,56.182755,81,37,0
56.182755,56.281635,79,33,0
56.182755,56.281635,70,27,0
56.281635,56.380516,70,36,0
56.380516,56.483467,67,27,0
56.380516,56.483467,75,32,0
56.281635,56.483467,77,43,0
56.483467,56.58642,73,29,0
56.483467,56.58642,77,36,0
56.58642,56.740486,67,26,0
56.58642,56.740486,76,31,0
56.740486,56.854675,70,40,0
56.854675,56.968864,65,36,0
56.968864,57.083054,70,45,0
56.740486,57.083054,79,52,0
57.083054,57.197247,77,41,0
57.197247,57.311436,68,40,0
57.311436,57.425625,65,40,0
57.425625,57.539814,68,40,0
57.197247,57.539814,74,52,0
57.539814,57.65947,75,41,0
57.65947,57.770287,64,40,0
57.65947,57.770287,70,40,0
57.770287,57.8811,67,40,0
57.8811,57.991917,64,40,0
57.65947,57.991917,74,52,0
57.991917,58.102734,72,41,0
58.102734,58.213547,63,40,0
58.213547,58.324364,60,40,0
58.324364,58.43518,63,40,0
58.102734,58.43518,67,52,0
58.43518,58.545994,69,41,0
58.545994,58.65363,62,40,0
58.65363,58.761265,65,36,0
58.761265,58.8689,62,45,0
58.545994,58.8689,72,52,0
58.8689,58.976536,70,41,0
58.976536,59.08417,56,40,0
59.08417,59.191803,62,40,0
59.191803,59.29944,56,40,0
58.976536,59.29944,67,52,0
59.29944,59.415394,65,41,0
59.29944,59.415394,62,40,0
59.415394,59.52076,55,40,0
59.52076,59.62613,60,40,0
59.62613,59.731495,55,40,0
59.415394,59.731495,65,52,0
59.731495,59.83686,63,41,0
59.83686,59.942226,51,40,0
59.942226,60.047596,57,40,0
60.047596,60.15296,51,40,0
59.83686,60.15296,60,52,0
60.15296,60.258327,57,40,0
60.15296,60.258327,62,41,0
60.258327,60.518383,50,47,0
60.258327,60.518383,58,52,0
60.518383,60.611923,50,31,0
60.705463,60.799004,48,36,0
60.89254,60.98608,47,32,0
61.07962,61.179382,46,36,0
61.271202,61.358738,50,32,0
61.446274,61.542206,48,36,0
61.542206,61.638138,47,31,0
61.638138,61.73407,46,31,0
62.12025,62.198036,87,37,0
62.198036,62.27654,84,37,0
62.27654,62.35534,80,36,0
62.35534,62.434464,77,36,0
62.434464,62.513798,81,36,0
62.513798,62.59343,78,35,0
62.59343,62.673397,74,35,0
62.673397,62.75358,71,33,0
62.75358,62.83407,75,33,0
62.83407,62.914898,72,32,0
62.914898,62.995945,68,32,0
62.995945,63.07731,65,31,0
63.07731,63.15902,69,30,0
63.15902,63.241066,78,30,0
63.241066,63.50112,77,38,0
63.241066,63.50112,70,38,0
63.50112,63.594658,50,31,0
63.688198,63.78174,48,36,0
63.87528,63.96882,47,32,0
64.062355,64.16212,46,36,0
64.25394,64.34148,50,32,0
64.42901,64.52494,48,36,0
64.52494,64.62087,47,31,0
64.62087,64.716805,46,31,0
65.10069,65.177086,87,37,0
65.177086,65.253586,84,37,0
65.253586,65.33037,80,36,0
65.33037,65.407364,77,36,0
65.407364,65.484535,81,36,0
65.484535,65.56203,78,35,0
65.56203,65.63962,74,35,0
65.63962,65.71759,71,33,0
65.71759,65.795685,75,33,0
65.795685,65.87408,72,32,0
65.87408,65.95268,68,32,0
65.95268,66.03148,65,31,0
66.03148,66.1106,69,30,0
66.1106,66.162094,78,30,0
66.189835,66.33495,65,36,0
66.189835,66.33495,62,36,0
66.48008,66.5557,89,41,0
66.5557,66.63132,86,41,0
66.63132,66.70708,82,39,0
66.70708,66.78287,79,39,0
66.78287,66.85901,83,38,0
66.85901,66.93515,80,37,0
66.93515,67.01137,76,37,0
67.01137,67.0879,73,36,0
67.0879,67.16443,77,36,0
67.16443,67.24109,74,36,0
67.24109,67.31801,70,36,0
67.31801,67.394936,67,35,0
67.394936,67.47332,71,33,0
67.47332,67.58665,80,33,0
67.58665,67.73177,67,39,0
67.58665,67.73177,63,39,0
67.874466,67.94691,91,45,0
67.94691,68.01988,88,45,0
68.01988,68.093475,84,43,0
68.093475,68.167625,81,43,0
68.167625,68.24241,85,42,0
68.24241,68.34086,82,41,0
68.34086,68.485985,63,43,0
68.34086,68.485985,69,43,0
68.613,68.68569,93,45,0
68.68569,68.758644,90,45,0
68.758644,68.83177,86,43,0
68.83177,68.905174,83,43,0
68.905174,68.97884,87,42,0
68.97884,69.06842,84,41,0
69.06842,69.14254,96,55,0
69.14254,69.21694,93,55,0
69.21694,69.291534,89,54,0
69.291534,69.366394,86,54,0
69.366394,69.441635,90,51,0
69.441635,69.52536,87,49,0
69.52536,69.601364,99,62,0
69.601364,69.67736,96,57,0
69.67736,69.75356,92,60,0
69.75356,69.82995,89,53,0
69.82995,69.90673,93,60,0
69.90673,69.98371,90,52,0
69.98371,70.06099,100,63,0
70.06099,70.138565,87,57,0
70.138565,70.21695,101,74,0
70.21695,70.33028,87,67,0
70.52015,70.603485,98,45,0
70.52015,70.603485,94,45,0
70.603485,70.68681,93,45,0
70.68681,70.77015,92,45,0
70.68681,70.77015,98,45,0
70.77015,70.853485,91,45,0
70.853485,70.93681,98,45,0
70.853485,70.93681,90,45,0
70.93681,71.03749,89,45,0
71.03749,71.12082,98,44,0
71.03749,71.12082,94,44,0
71.12082,71.204155,88,44,0
71.204155,71.28749,89,44,0
71.204155,71.28749,94,44,0
71.28749,71.37082,86,44,0
71.37082,71.454155,89,43,0
71.37082,71.454155,84,43,0
71.454155,71.53749,83,43,0
71.53749,71.62082,82,42,0
71.53749,71.62082,86,42,0
71.62082,71.736206,81,42,0
71.736206,71.82342,82,45,0
71.736206,71.82342,89,45,0
71.82342,71.91062,81,45,0
71.91062,71.99396,82,45,0
71.91062,71.99396,86,45,0
71.99396,72.07729,81,45,0
72.07729,72.16062,80,45,0
72.07729,72.16062,86,45,0
72.16062,72.24396,79,45,0
72.24396,72.32729,82,45,0
72.24396,72.32729,78,45,0
72.32729,72.42796,77,45,0
72.42796,72.5113,82,44,0
72.42796,72.5113,86,44,0
72.5113,72.59463,76,44,0
72.59463,72.67796,82,44,0
72.59463,72.67796,77,44,0
72.67796,72.7613,74,44,0
72.7613,72.84463,72,43,0
72.7613,72.84463,77,43,0
72.84463,72.92796,71,43,0
72.92796,73.0113,70,42,0
72.92796,73.0113,74,42,0
73.0113,73.12668,68,42,0
73.12668,73.22162,66,39,0
73.12668,73.22162,70,46,0
73.12668,73.22162,78,53,0
73.31655,73.39852,87,52,0
73.31655,73.39852,90,52,0
73.39852,73.48049,86,52,0
73.48049,73.562454,90,51,0
73.48049,73.562454,85,51,0
73.562454,73.644424,84,52,0
73.644424,73.72639,90,50,0
73.644424,73.72639,87,50,0
73.72639,73.827065,83,51,0
73.827065,73.90948,90,50,0
73.827065,73.90948,82,50,0
73.90948,73.9919,81,50,0
73.9919,74.07432,87,50,0
73.9919,74.07432,80,50,0
74.07432,74.15673,79,51,0
74.15673,74.23915,78,50,0
74.15673,74.23915,87,50,0
74.23915,74.32157,77,50,0
74.32157,74.403984,78,49,0
74.32157,74.403984,82,49,0
74.403984,74.51937,76,50,0
74.51937,74.60658,78,55,0
74.51937,74.60658,87,55,0
74.60658,74.69379,75,55,0
74.69379,74.77487,82,56,0
74.69379,74.77487,75,56,0
74.77487,74.85595,74,56,0
74.85595,74.937035,78,55,0
74.85595,74.937035,73,55,0
74.937035,75.01811,72,55,0
75.01811,75.0992,78,54,0
75.01811,75.0992,75,54,0
75.0992,75.19295,71,54,0
75.19295,75.27359,75,54,0
75.19295,75.27359,78,54,0
75.27359,75.35423,70,54,0
75.35423,75.43488,75,54,0
75.35423,75.43488,78,54,0
75.43488,75.515526,69,54,0
75.515526,75.59617,68,54,0
75.515526,75.59617,75,54,0
75.59617,75.67681,67,54,0
75.67681,75.75746,66,53,0
75.67681,75.75746,70,53,0
75.75746,75.89056,63,53,0
76.05539,76.13781,87,31,0
76.05539,76.13781,95,31,0
76.13781,76.22023,90,36,0
76.13781,76.22023,83,36,0
76.38506,76.46748,78,32,0
76.38506,76.46748,87,32,0
76.46748,76.5499,75,36,0
76.46748,76.5499,83,36,0
76.71872,76.80313,80,31,0
76.71872,76.80313,71,31,0
76.80313,76.88754,77,36,0
76.80313,76.88754,68,36,0
77.07665,77.24091,97,45,0
77.02937,77.24091,92,38,0
76.9821,77.24091,83,32,0
77.40575,77.48817,85,31,0
77.40575,77.48817,94,31,0
77.48817,77.57058,82,36,0
77.48817,77.57058,89,36,0
77.73541,77.81783,77,32,0
77.73541,77.81783,85,32,0
77.81783,77.90025,73,36,0
77.81783,77.90025,82,36,0
78.0672,78.150665,70,31,0
78.0672,78.150665,78,31,0
78.150665,78.23414,66,36,0
78.150665,78.23414,75,36,0
78.42325,78.58751,95,45,0
78.37597,78.58751,90,38,0
78.3287,78.58751,82,32,0
78.75234,78.83476,92,31,0
78.75234,78.83476,83,31,0
78.83476,78.917175,80,36,0
78.83476,78.917175,87,36,0
79.08201,79.16443,80,32,0
79.08201,79.16443,87,32,0
79.16443,79.24685,77,36,0
79.16443,79.24685,83,36,0
79.413795,79.49726,74,31,0
79.49726,79.580734,76,36,0
79.413795,79.580734,80,31,0
79.580734,79.769844,77,31,0
79.769844,79.934105,94,45,0
79.769844,79.934105,80,38,0
80.09836,80.18049,82,32,0
80.09836,80.18049,90,32,0
80.18049,80.26262,78,36,0
80.18049,80.26262,87,36,0
80.42687,80.509,75,32,0
80.42687,80.509,82,32,0
80.509,80.59113,78,36,0
80.509,80.59113,87,36,0
80.59113,80.67325,90,45,0
80.67325,80.7557,89,36,0
80.7557,80.83884,88,38,0
80.83884,80.922676,87,42,0
80.59113,80.922676,78,45,0
80.922676,81.00722,93,48,0
81.00722,81.09236,92,41,0
81.09236,81.17835,91,44,0
81.17835,81.26498,90,48,0
80.922676,81.26498,81,48,0
81.26498,81.35234,85,51,0
81.26498,81.35234,97,63,0
81.614426,81.70178,86,33,0
81.70178,81.78915,83,31,0
81.614426,81.78915,77,29,0
81.614426,81.78915,80,29,0
81.78915,81.87651,79,33,0
81.87651,81.96387,76,27,0
81.96387,82.05123,80,33,0
82.05123,82.13891,77,28,0
82.13891,82.226974,85,33,0
82.226974,82.31542,82,33,0
82.31542,82.40434,86,35,0
82.40434,82.49371,83,36,0
82.49371,82.58349,91,37,0
82.58349,82.673676,88,38,0
82.673676,82.76819,92,39,0
82.76819,82.86271,89,37,0
82.86271,82.972435,98,48,0
82.972435,83.08217,86,36,0
82.972435,83.08217,89,36,0
83.08217,83.17976,97,45,0
83.17976,83.27735,85,36,0
83.17976,83.27735,89,36,0
83.27735,83.37495,95,48,0
83.37495,83.47254,89,39,0
83.37495,83.47254,83,39,0
83.47254,83.57013,94,46,0
83.57013,83.667725,85,36,0
83.57013,83.667725,82,36,0
83.667725,83.76532,93,45,0
83.76532,83.86291,81,39,0
83.76532,83.86291,84,39,0
83.86291,83.9605,92,48,0
83.9605,84.0581,80,38,0
83.9605,84.0581,84,38,0
84.0581,84.155685,90,46,0
84.155685,84.25328,78,39,0
84.155685,84.25328,84,39,0
84.25328,84.44846,85,50,0
84.25328,84.44846,89,50,0
84.25328,84.44846,77,50,0
84.643654,84.73101,74,33,0
84.73101,84.818375,71,31,0
84.818375,84.90574,67,33,0
84.90574,84.993095,64,27,0
84.643654,84.993095,65,28,0
84.643654,84.993095,68,28,0
84.993095,85.08046,68,33,0
85.08046,85.16782,65,28,0
85.16782,85.25518,73,33,0
85.25518,85.342606,70,33,0
85.342606,85.430855,74,35,0
85.430855,85.5201,71,36,0
85.5201,85.61021,79,37,0
85.61021,85.701416,76,38,0
85.701416,85.79714,80,39,0
85.79714,85.89286,77,37,0
85.89286,86.002594,86,48,0
86.002594,86.11232,77,36,0
86.002594,86.11232,74,36,0
86.11232,86.209915,85,45,0
86.209915,86.30751,77,36,0
86.209915,86.30751,73,36,0
86.30751,86.4051,83,48,0
86.4051,86.50269,71,39,0
86.4051,86.50269,77,39,0
86.50269,86.60029,82,46,0
86.60029,86.697876,70,36,0
86.60029,86.697876,73,36,0
86.697876,86.79547,81,45,0
86.79547,86.89307,72,39,0
86.79547,86.89307,69,39,0
86.89307,86.990654,80,48,0
86.990654,87.08825,72,38,0
86.990654,87.08825,68,38,0
87.08825,87.18577,78,46,0
87.18577,87.28273,72,39,0
87.18577,87.28273,66,39,0
87.28273,87.37962,77,46,0
87.37962,87.47596,68,38,0
87.37962,87.47596,65,38,0
87.47596,87.57223,74,46,0
87.57223,87.66795,65,38,0
87.57223,87.66795,62,38,0
87.66795,87.76345,73,48,0
87.76345,87.858574,65,39,0
87.76345,87.858574,61,39,0
87.858574,87.95347,71,49,0
87.95347,88.04799,65,41,0
87.95347,88.04799,59,41,0
88.04799,88.142136,70,50,0
88.142136,88.23665,58,42,0
88.142136,88.23665,61,42,0
88.23665,88.331985,69,51,0
88.331985,88.428314,60,42,0
88.331985,88.428314,57,42,0
88.428314,88.52551,68,52,0
88.52551,88.62357,60,43,0
88.52551,88.62357,56,43,0
88.62357,88.722694,66,52,0
88.722694,88.822716,60,44,0
88.722694,88.822716,54,44,0
88.822716,89.02447,56,59,0
88.822716,89.02447,65,59,0
89.02447,89.11898,53,71,0
89.02447,89.11898,56,71,0
89.02447,89.11898,62,83,0
89.2135,89.30802,53,65,0
89.2135,89.30802,61,77,0
89.2135,89.30802,56,65,0
89.402534,89.497055,56,65,0
89.402534,89.497055,53,65,0
89.402534,89.497055,60,77,0
89.591576,89.68609,59,83,0
89.591576,89.68609,56,71,0
89.591576,89.68609,53,71,0
89.78061,89.881485,53,65,0
89.78061,89.881485,62,77,0
89.78061,89.881485,56,65,0
89.98236,90.07629,61,83,0
90.07629,90.17021,60,75,0
89.98236,90.17021,53,71,0
89.98236,90.17021,56,71,0
90.17021,90.35806,59,75,0
90.54591,90.640434,74,39,0
90.54591,90.640434,65,33,0
90.54591,90.640434,68,33,0
90.73495,90.82947,73,36,0
90.73495,90.82947,68,30,0
90.73495,90.82947,65,30,0
90.92399,91.0185,68,30,0
90.92399,91.0185,72,36,0
90.92399,91.0185,65,30,0
91.11302,91.20754,71,39,0
91.11302,91.20754,68,33,0
91.11302,91.20754,65,33,0
91.302055,91.40293,74,36,0
91.302055,91.40293,65,30,0
91.302055,91.40293,68,30,0
91.50381,91.59773,73,39,0
91.59773,91.69166,72,36,0
91.50381,91.69166,68,33,0
91.50381,91.69166,65,33,0
91.69166,91.87951,71,36,0
92.08126,92.17578,62,83,0
92.08126,92.17578,56,71,0
92.08126,92.17578,65,71,0
92.270294,92.364815,56,65,0
92.270294,92.364815,61,77,0
92.270294,92.364815,65,65,0
92.459335,92.55385,60,77,0
92.459335,92.55385,65,65,0
92.459335,92.55385,56,65,0
92.64837,92.74289,59,83,0
92.64837,92.74289,56,71,0
92.64837,92.74289,65,71,0
92.8374,92.93828,56,65,0
92.8374,92.93828,65,65,0
92.8374,92.93828,62,77,0
93.039154,93.13308,61,83,0
93.13308,93.227005,60,75,0
93.039154,93.227005,65,71,0
93.039154,93.227005,56,71,0
93.227005,93.414856,59,75,0
93.61393,93.70844,68,33,0
93.61393,93.70844,74,39,0
93.61393,93.70844,77,33,0
93.80296,93.897484,77,30,0
93.80296,93.897484,73,36,0
93.80296,93.897484,68,30,0
93.992,94.08652,77,30,0
93.992,94.08652,72,36,0
93.992,94.08652,68,30,0
94.18104,94.27555,68,33,0
94.18104,94.27555,71,39,0
94.18104,94.27555,77,33,0
94.37007,94.47095,74,36,0
94.37007,94.47095,77,30,0
94.37007,94.47095,68,30,0
94.57182,94.66575,73,39,0
94.66575,94.759674,72,36,0
94.57182,94.759674,68,33,0
94.57182,94.759674,77,33,0
94.759674,94.947525,71,36,0
95.14271,95.232155,80,33,0
95.14271,95.232155,77,39,0
95.14271,95.232155,71,33,0
95.3216,95.41105,80,30,0
95.3216,95.41105,71,30,0
95.3216,95.41105,76,36,0
95.500496,95.589935,71,30,0
95.500496,95.589935,75,36,0
95.500496,95.589935,80,30,0
95.67938,95.76883,71,33,0
95.67938,95.76883,80,33,0
95.67938,95.76883,74,39,0
95.85828,95.956505,83,30,0
95.85828,95.956505,74,30,0
95.85828,95.956505,80,36,0
96.05474,96.14472,79,39,0
96.14472,96.2347,78,36,0
96.05474,96.2347,83,33,0
96.05474,96.2347,74,33,0
96.2347,96.414665,77,36,0
96.414665,96.764114,86,37,0
96.414665,96.764114,77,37,0
96.764114,97.113556,80,38,0
96.764114,97.113556,89,38,0
97.113556,97.458984,92,39,0
97.113556,97.458984,83,39,0
97.458984,97.804405,95,37,0
97.458984,97.804405,86,37,0
97.804405,98.14785,98,48,0
97.804405,98.14785,89,48,0
98.14785,98.491295,89,45,0
98.14785,98.491295,98,45,0
98.491295,98.83475,89,49,0
98.491295,98.83475,98,49,0
98.83475,99.17819,98,45,0
98.83475,99.17819,89,45,0
104.84551,104.93834,77,26,0
104.93834,105.03352,78,23,0
105.03352,105.130516,77,26,0
105.130516,105.22811,78,23,0
105.22811,105.31809,76,26,0
105.31809,105.40807,78,23,0
105.22811,105.40807,70,33,0
105.40807,105.498055,76,30,0
105.498055,105.588036,78,23,0
105.40807,105.588036,71,30,0
105.588036,105.67802,76,26,0
105.67802,105.768005,78,23,0
105.588036,105.768005,72,35,0
105.768005,105.85799,76,26,0
105.85799,105.94797,78,23,0
105.768005,105.94797,73,31,0
105.94797,106.03795,76,26,0
106.03795,106.12793,78,23,0
105.94797,106.12793,73,36,0
106.12793,106.21791,76,26,0
106.21791,106.30789,78,23,0
106.12793,106.30789,74,31,0
106.30789,106.40743,76,27,0
106.30789,106.40743,73,27,0
106.40743,106.506966,78,23,0
106.506966,106.59749,85,47,0
106.506966,106.59749,76,23,0
106.59749,106.68801,73,19,0
106.59749,106.68801,78,19,0
106.68801,106.77854,83,47,0
106.68801,106.77854,76,24,0
106.77854,106.869064,73,19,0
106.77854,106.869064,78,19,0
106.869064,106.95959,81,42,0
106.869064,106.95959,76,24,0
106.95959,107.05012,73,20,0
106.95959,107.05012,78,20,0
107.05012,107.14064,81,47,0
107.05012,107.14064,74,25,0
107.14064,107.23116,76,21,0
107.14064,107.23116,71,21,0
107.23116,107.32876,80,43,0
107.23116,107.32876,74,24,0
107.32876,107.42635,71,19,0
107.32876,107.42635,76,19,0
107.42635,107.51527,79,47,0
107.42635,107.51527,74,24,0
107.51527,107.60418,78,38,0
107.51527,107.60418,71,18,0
107.60418,107.69363,74,23,0
107.60418,107.69363,77,47,0
107.69363,107.78307,71,19,0
107.78307,107.87252,76,47,0
107.78307,107.87252,73,24,0
107.87252,107.96196,69,22,0
107.96196,108.05141,73,22,0
108.05141,108.140854,78,22,0
108.140854,108.230835,76,26,0
108.230835,108.320816,78,23,0
108.140854,108.320816,70,33,0
108.320816,108.4108,76,30,0
108.4108,108.50078,78,23,0
108.320816,108.50078,71,30,0
108.50078,108.59077,76,26,0
108.59077,108.68075,78,23,0
108.50078,108.68075,72,35,0
108.68075,108.77073,76,26,0
108.77073,108.86071,78,23,0
108.68075,108.86071,73,31,0
108.86071,108.95069,76,26,0
108.95069,109.04067,78,23,0
108.86071,109.04067,73,36,0
109.04067,109.13065,76,26,0
109.13065,109.220634,78,23,0
109.04067,109.220634,74,31,0
109.220634,109.320175,76,27,0
109.220634,109.320175,73,27,0
109.320175,109.41971,78,23,0
109.41971,109.50969,76,23,0
109.41971,109.50969,85,51,0
109.50969,109.59967,73,19,0
109.50969,109.59967,78,19,0
109.59967,109.68965,83,51,0
109.59967,109.68965,76,24,0
109.68965,109.77964,73,19,0
109.68965,109.77964,78,19,0
109.77964,109.86962,81,49,0
109.77964,109.86962,76,24,0
109.86962,109.9596,78,20,0
109.86962,109.9596,73,20,0
109.9596,110.04958,81,51,0
109.9596,110.04958,74,25,0
110.04958,110.139565,76,21,0
110.04958,110.139565,71,21,0
110.139565,110.23716,80,49,0
110.139565,110.23716,74,24,0
110.23716,110.33475,71,19,0
110.23716,110.33475,76,19,0
110.33475,110.42367,79,51,0
110.33475,110.42367,74,24,0
110.42367,110.51258,78,32,0
110.42367,110.51258,71,18,0
110.51258,110.60203,74,23,0
110.51258,110.60203,77,51,0
110.60203,110.691475,71,23,0
110.691475,110.780914,73,29,0
110.691475,110.780914,76,51,0
110.780914,110.87036,69,22,0
110.87036,110.969246,73,22,0
110.969246,111.06812,80,22,0
111.06812,111.159195,81,26,0
111.159195,111.25027,82,23,0
111.06812,111.25027,75,33,0
111.25027,111.34135,81,30,0
111.34135,111.43242,82,23,0
111.25027,111.43242,76,30,0
111.43242,111.5224,81,26,0
111.5224,111.61238,82,23,0
111.43242,111.61238,76,35,0
111.61238,111.70237,81,26,0
111.70237,111.79235,82,23,0
111.61238,111.79235,77,31,0
111.79235,111.88233,81,26,0
111.88233,111.97231,82,23,0
111.79235,111.97231,78,36,0
111.97231,112.062294,81,26,0
112.062294,112.152275,82,23,0
111.97231,112.152275,79,31,0
112.152275,112.25181,77,27,0
112.152275,112.25181,81,27,0
112.25181,112.35135,82,23,0
112.35135,112.440796,81,23,0
112.35135,112.440796,89,56,0
112.440796,112.530235,77,19,0
112.440796,112.530235,82,19,0
112.530235,112.61968,81,24,0
112.530235,112.61968,88,56,0
112.61968,112.70913,82,19,0
112.61968,112.70913,77,19,0
112.70913,112.79858,86,52,0
112.70913,112.79858,81,24,0
112.79858,112.88802,77,20,0
112.79858,112.88802,82,24,0
112.88802,112.978004,79,25,0
112.88802,112.978004,86,56,0
112.978004,113.067986,76,21,0
112.978004,113.067986,81,21,0
113.067986,113.16557,79,24,0
113.067986,113.16557,85,52,0
113.16557,113.26317,81,19,0
113.16557,113.26317,76,19,0
113.26317,113.35208,84,56,0
113.26317,113.35208,79,24,0
113.35208,113.441,76,18,0
113.35208,113.441,83,46,0
113.441,113.53045,79,23,0
113.441,113.53045,82,49,0
113.53045,113.61989,76,19,0
113.61989,113.709335,81,56,0
113.61989,113.709335,77,29,0
113.709335,113.79878,74,22,0
113.79878,113.88823,77,22,0
113.88823,113.97768,82,22,0
113.97768,114.06766,81,26,0
114.06766,114.15764,82,23,0
113.97768,114.15764,75,33,0
114.15764,114.24762,81,30,0
114.24762,114.3376,82,23,0
114.15764,114.3376,76,30,0
114.3376,114.42758,81,26,0
114.42758,114.51756,82,23,0
114.3376,114.51756,76,35,0
114.51756,114.607544,81,26,0
114.607544,114.69753,82,23,0
114.51756,114.69753,77,31,0
114.69753,114.78751,81,26,0
114.78751,114.877495,82,23,0
114.69753,114.877495,78,36,0
114.877495,114.967476,81,26,0
114.967476,115.05746,82,23,0
114.877495,115.05746,79,31,0
115.05746,115.15699,81,27,0
115.05746,115.15699,77,27,0
115.15699,115.25653,82,23,0
115.25653,115.34597,81,23,0
115.25653,115.34597,89,51,0
115.34597,115.43542,77,19,0
115.34597,115.43542,82,19,0
115.43542,115.524864,88,51,0
115.43542,115.524864,81,24,0
115.524864,115.61431,77,19,0
115.524864,115.61431,82,19,0
115.61431,115.70376,81,24,0
115.61431,115.70376,86,49,0
115.70376,115.7932,77,20,0
115.70376,115.7932,82,20,0
115.7932,115.882645,79,25,0
115.7932,115.882645,86,51,0
115.882645,115.97209,81,21,0
115.882645,115.97209,76,21,0
115.97209,116.06969,79,24,0
115.97209,116.06969,85,49,0
116.06969,116.167274,81,23,0
116.06969,116.167274,76,19,0
116.167274,116.256195,84,51,0
116.167274,116.256195,79,24,0
116.256195,116.34511,76,18,0
116.256195,116.34511,83,43,0
116.34511,116.434555,79,23,0
116.34511,116.434555,82,51,0
116.434555,116.524,76,19,0
116.524,116.61344,81,51,0
116.524,116.61344,77,29,0
116.61344,116.70289,74,22,0
116.70289,116.792336,77,22,0
116.792336,116.88178,86,22,0
116.88178,116.97341,77,37,0
116.97341,117.06504,84,29,0
116.97341,117.06504,86,36,0
116.88178,117.06504,89,45,0
117.06504,117.15668,77,31,0
117.06504,117.15668,89,38,0
117.15668,117.24831,87,36,0
117.15668,117.24831,84,29,0
117.24831,117.339935,77,39,0
117.339935,117.431564,82,28,0
117.339935,117.431564,85,35,0
117.24831,117.431564,87,48,0
117.431564,117.5232,77,31,0
117.431564,117.5232,87,38,0
117.5232,117.61483,86,36,0
117.5232,117.61483,82,29,0
117.61483,117.70646,75,45,0
117.70646,117.79809,81,27,0
117.70646,117.79809,83,33,0
117.61483,117.79809,86,45,0
117.79809,117.889725,86,38,0
117.79809,117.889725,75,31,0
117.889725,117.99709,84,35,0
117.889725,117.99709,81,35,0
117.99709,118.08986,74,37,0
118.08986,118.182625,81,33,0
118.08986,118.182625,77,27,0
117.99709,118.182625,84,45,0
118.182625,118.27539,74,31,0
118.182625,118.27539,84,38,0
118.27539,118.38253,82,35,0
118.27539,118.38253,77,35,0
118.38253,118.476456,72,35,0
118.476456,118.57038,78,33,0
118.476456,118.57038,80,33,0
118.38253,118.57038,83,42,0
118.57038,118.66431,83,36,0
118.57038,118.66431,72,29,0
118.66431,118.76994,81,32,0
118.66431,118.76994,78,32,0
118.76994,118.86446,71,35,0
118.86446,118.95898,76,27,0
118.86446,118.95898,79,32,0
118.76994,118.95898,81,41,0
118.95898,119.0535,81,36,0
118.95898,119.0535,71,29,0
119.0535,119.16219,76,26,0
119.0535,119.16219,80,31,0
119.16219,119.25792,69,35,0
119.25792,119.35364,75,26,0
119.25792,119.35364,77,31,0
119.16219,119.35364,80,41,0
119.35364,119.44936,80,36,0
119.35364,119.44936,69,29,0
119.44936,119.55426,75,26,0
119.44936,119.55426,78,31,0
119.55426,119.651665,68,32,0
119.651665,119.74907,71,24,0
119.651665,119.74907,75,29,0
119.55426,119.74907,78,38,0
119.74907,119.846466,78,36,0
119.74907,119.846466,68,29,0
119.846466,119.94921,71,25,0
119.846466,119.94921,76,30,0
119.94921,120.04661,76,33,0
120.04661,120.14401,74,28,0
119.94921,120.14401,72,28,0
120.14401,120.24142,76,33,0
120.24142,120.3478,75,28,0
120.14401,120.3478,69,28,0
120.3478,120.445206,78,31,0
120.445206,120.5426,75,27,0
120.3478,120.5426,74,26,0
120.5426,120.64001,78,32,0
120.64001,120.73741,76,25,0
120.5426,120.73741,71,27,0
120.73741,120.834816,69,25,0
120.73741,120.834816,76,30,0
120.834816,120.93221,74,26,0
120.93221,121.02962,76,31,0
121.02962,121.135254,75,26,0
121.135254,121.23479,71,27,0
121.135254,121.23479,78,32,0
121.23479,121.33432,76,28,0
121.33432,121.43386,78,31,0
121.43386,121.533394,77,28,0
121.533394,121.62732,76,33,0
121.62732,121.721245,78,30,0
121.721245,121.81517,76,33,0
121.81517,121.909096,90,39,0
121.909096,122.00073,88,39,0
122.00073,122.09236,78,33,0
122.09236,122.18399,76,33,0
122.18399,122.27562,66,30,0
122.27562,122.36298,64,33,0
122.36298,122.45035,66,29,0
122.45035,122.537704,64,33,0
122.537704,122.62507,78,32,0
122.62507,122.7246,76,27,0
122.7246,122.82414,73,23,0
122.7246,122.82414,78,23,0
122.82414,122.91358,76,28,0
122.82414,122.91358,85,51,0
122.91358,123.00303,78,23,0
122.91358,123.00303,73,23,0
123.00303,123.092476,76,29,0
123.00303,123.092476,83,51,0
123.092476,123.18192,78,23,0
123.092476,123.18192,73,23,0
123.18192,123.27137,76,29,0
123.18192,123.27137,81,49,0
123.27137,123.36081,78,24,0
123.27137,123.36081,73,24,0
123.36081,123.4508,74,30,0
123.36081,123.4508,81,51,0
123.4508,123.54078,76,25,0
123.4508,123.54078,71,25,0
123.54078,123.63837,80,42,0
123.54078,123.63837,74,29,0
123.63837,123.73596,76,23,0
123.63837,123.73596,71,23,0
123.73596,123.824875,74,29,0
123.73596,123.824875,79,45,0
123.824875,123.913795,78,41,0
123.824875,123.913795,71,22,0
123.913795,124.003235,74,28,0
123.913795,124.003235,77,51,0
124.003235,124.09268,71,23,0
124.09268,124.18213,73,29,0
124.09268,124.18213,76,51,0
124.18213,124.271576,69,22,0
124.271576,124.36102,73,22,0
124.36102,124.45046,78,22,0
124.45046,124.5421,76,33,0
124.5421,124.63373,78,30,0
124.63373,124.72536,76,33,0
124.72536,124.816986,90,39,0
124.816986,124.90643,88,39,0
124.90643,124.99588,78,33,0
124.99588,125.08533,76,30,0
125.08533,125.174774,66,33,0
125.174774,125.34367,64,30,0
125.26213,125.349495,66,33,0
125.349495,125.43686,64,30,0
125.43686,125.524216,78,33,0
125.524216,125.62376,76,27,0
125.62376,125.72329,73,23,0
125.62376,125.72329,78,23,0
125.72329,125.81274,76,28,0
125.72329,125.81274,85,51,0
125.81274,125.90218,73,23,0
125.81274,125.90218,78,23,0
125.90218,125.99162,83,51,0
125.90218,125.99162,76,29,0
125.99162,126.08107,73,23,0
125.99162,126.08107,78,23,0
126.08107,126.17052,81,48,0
126.08107,126.17052,76,29,0
126.17052,126.259964,73,24,0
126.17052,126.259964,78,24,0
126.259964,126.349945,74,30,0
126.259964,126.349945,81,51,0
126.349945,126.439926,76,25,0
126.349945,126.439926,71,25,0
126.439926,126.53752,80,48,0
126.439926,126.53752,74,29,0
126.53752,126.63511,71,23,0
126.53752,126.63511,76,23,0
126.63511,126.72403,79,51,0
126.63511,126.72403,74,29,0
126.72403,126.81294,71,22,0
126.72403,126.81294,78,38,0
126.81294,126.90239,74,28,0
126.81294,126.90239,77,51,0
126.90239,126.99184,71,23,0
126.99184,127.081276,73,29,0
126.99184,127.081276,76,51,0
127.081276,127.17072,69,22,0
127.17072,127.26017,73,22,0
127.26017,127.34962,80,25,0
127.34962,127.442955,81,33,0
127.442955,127.5363,82,30,0
127.5363,127.62964,81,33,0
127.62964,127.722984,94,38,0
127.722984,127.81351,93,38,0
127.81351,127.90403,82,33,0
127.90403,127.99456,81,31,0
127.99456,128.08508,70,33,0
128.08508,128.25859,69,30,0
128.17561,128.26613,70,33,0
128.26613,128.35666,69,31,0
128.35666,128.44717,82,33,0
128.44717,128.54372,81,27,0
128.54372,128.64325,82,23,0
128.54372,128.64325,77,23,0
128.64325,128.73378,89,51,0
128.64325,128.73378,81,28,0
128.73378,128.8243,77,23,0
128.73378,128.8243,82,23,0
128.8243,128.91483,88,51,0
128.8243,128.91483,81,29,0
128.91483,129.00322,77,23,0
128.91483,129.00322,82,23,0
129.00322,129.09161,81,29,0
129.00322,129.09161,86,49,0
129.09161,129.18,82,24,0
129.09161,129.18,77,24,0
129.18,129.26945,79,30,0
129.18,129.26945,86,51,0
129.26945,129.35944,76,25,0
129.26945,129.35944,81,25,0
129.35944,129.45448,79,29,0
129.35944,129.45448,85,49,0
129.45448,129.55208,76,23,0
129.45448,129.55208,81,23,0
129.55208,129.64389,84,51,0
129.55208,129.64389,79,29,0
129.64389,129.7328,76,22,0
129.64389,129.7328,83,42,0
129.7328,129.82207,79,28,0
129.7328,129.82207,82,51,0
129.82207,129.91151,76,23,0
129.91151,130.00096,81,51,0
129.91151,130.00096,77,29,0
130.00096,130.09041,74,22,0
130.09041,130.17986,77,22,0
130.17986,130.2693,82,22,0
130.2693,130.36322,81,33,0
130.36322,130.45715,82,29,0
130.45715,130.55107,81,33,0
130.55107,130.645,94,38,0
130.645,130.73608,93,38,0
130.73608,130.82715,82,33,0
130.82715,130.91823,81,31,0
130.91823,131.00931,70,33,0
131.00931,131.09769,69,31,0
131.09769,131.18608,70,33,0
131.18608,131.27448,69,30,0
131.27448,131.36287,82,33,0
131.36287,131.4587,81,27,0
131.4587,131.55823,82,23,0
131.4587,131.55823,77,23,0
131.55823,131.65103,81,28,0
131.55823,131.65103,89,51,0
131.65103,131.74048,82,23,0
131.65103,131.74048,77,23,0
131.74048,131.82993,88,51,0
131.74048,131.82993,81,29,0
131.82993,131.91937,82,23,0
131.82993,131.91937,77,23,0
131.91937,132.00882,86,49,0
131.91937,132.00882,81,29,0
132.00882,132.09827,77,24,0
132.00882,132.09827,82,24,0
132.09827,132.18806,79,30,0
132.09827,132.18806,86,45,0
132.18806,132.27805,76,25,0
132.18806,132.27805,81,25,0
132.27805,132.37311,85,49,0
132.27805,132.37311,79,29,0
132.37311,132.47069,81,23,0
132.37311,132.47069,76,23,0
132.47069,132.5625,79,29,0
132.47069,132.5625,84,51,0
132.5625,132.65141,76,22,0
132.5625,132.65141,83,42,0
132.65141,132.74069,82,51,0
132.65141,132.74069,79,28,0
132.74069,132.83012,76,23,0
132.83012,132.91957,77,29,0
132.83012,132.91957,81,51,0
132.91957,133.00902,74,22,0
133.00902,133.10922,77,22,0
133.10922,133.22226,86,25,0
133.22226,133.31966,77,44,0
133.31966,133.41707,81,44,0
133.31966,133.41707,84,44,0
133.41707,133.51447,75,41,0
133.22226,133.51447,89,53,0
133.51447,133.61186,87,49,0
133.61186,133.70927,73,46,0
133.70927,133.80667,77,41,0
133.70927,133.80667,82,41,0
133.80667,133.90408,74,45,0
133.61186,133.90408,85,57,0
133.90408,134.00148,86,50,0
134.00148,134.09888,68,54,0
134.09888,134.19629,72,31,0
134.09888,134.19629,75,39,0
134.19629,134.29369,69,43,0
134.00148,134.29369,80,54,0
134.29369,134.40732,81,51,0
134.40732,134.50621,72,46,0
134.50621,134.60509,74,47,0
134.50621,134.60509,77,47,0
134.60509,134.70396,70,43,0
134.40732,134.70396,84,55,0
134.70396,134.81111,82,43,0
134.81111,134.90851,77,47,0
134.90851,135.0059,81,47,0
134.90851,135.0059,84,47,0
135.0059,135.10332,75,44,0
134.81111,135.10332,89,56,0
135.10332,135.20071,87,52,0
135.20071,135.29813,73,49,0
135.29813,135.39552,77,43,0
135.29813,135.39552,82,43,0
135.39552,135.49292,74,48,0
135.20071,135.49292,85,61,0
135.49292,135.59033,86,53,0
135.59033,135.68773,68,58,0
135.68773,135.78513,72,33,0
135.68773,135.78513,75,41,0
135.78513,135.88254,69,46,0
135.59033,135.88254,80,58,0
135.88254,135.99617,81,54,0
135.99617,136.09505,72,49,0
136.09505,136.19392,77,49,0
136.09505,136.19392,74,49,0
136.19392,136.29282,70,46,0
135.99617,136.29282,84,58,0
136.29282,136.39995,82,46,0
136.39995,136.49448,82,56,0
136.49448,136.58899,86,56,0
136.49448,136.58899,89,56,0
136.58899,136.6835,80,54,0
136.39995,136.6835,94,70,0
136.6835,136.77803,92,63,0
136.77803,136.87254,77,60,0
136.87254,136.96706,82,51,0
136.87254,136.96706,87,51,0
136.96706,137.06158,78,59,0
136.77803,137.06158,89,72,0
137.06158,137.1561,90,64,0
137.1561,137.25061,73,71,0
137.25061,137.34514,80,51,0
137.25061,137.34514,77,41,0
137.34514,137.43965,74,56,0
137.1561,137.43965,85,71,0
137.43965,137.55328,86,66,0
137.55328,137.65025,77,58,0
137.65025,137.74721,82,59,0
137.65025,137.74721,78,59,0
137.74721,137.84418,75,56,0
137.55328,137.84418,89,72,0
137.84418,137.95131,87,56,0
137.95131,138.04584,82,66,0
138.04584,138.14035,89,66,0
138.04584,138.14035,86,66,0
138.14035,138.23486,80,61,0
137.95131,138.23486,94,81,0
138.23486,138.32939,92,74,0
138.32939,138.4239,77,69,0
138.4239,138.51842,82,60,0
138.4239,138.51842,87,60,0
138.51842,138.61295,78,68,0
138.32939,138.61295,89,84,0
138.61295,138.70746,90,74,0
138.70746,138.80197,73,83,0
138.80197,138.8965,77,46,0
138.80197,138.8965,80,60,0
138.8965,138.99101,74,64,0
138.70746,138.99101,85,83,0
138.99101,139.10464,86,76,0
139.10464,139.20161,77,68,0
139.20161,139.29857,78,69,0
139.20161,139.29857,82,69,0
139.29857,139.39554,75,64,0
139.10464,139.39554,89,84,0
139.39554,139.50267,87,64,0
139.50267,139.5966,85,75,0
139.5966,139.69054,90,75,0
139.69054,139.78445,85,70,0
139.50267,139.78445,97,91,0
139.78445,139.87839,97,83,0
139.87839,139.9723,88,80,0
139.9723,140.06624,90,68,0
140.06624,140.16016,87,78,0
139.87839,140.16016,100,92,0
140.16016,140.25409,99,82,0
140.25409,140.348,81,91,0
140.348,140.44194,88,53,0
140.348,140.44194,90,67,0
140.44194,140.53586,82,72,0
140.25409,140.53586,93,91,0
140.53586,140.6495,94,83,0
140.6495,140.74646,85,75,0
140.74646,140.84343,87,75,0
140.74646,140.84343,90,75,0
140.84343,140.9418,83,70,0
140.6495,140.9418,97,91,0
140.9418,141.04247,95,70,0
141.04247,141.14247,96,66,0
141.04247,141.14247,91,56,0
141.14247,141.24196,94,56,0
141.14247,141.24196,85,46,0
141.24196,141.34079,91,46,0
141.24196,141.34079,96,56,0
141.34079,141.43915,94,56,0
141.34079,141.43915,85,46,0
141.43915,141.53685,88,50,0
141.43915,141.53685,93,60,0
141.53685,141.6341,91,49,0
141.53685,141.6341,82,42,0
141.6341,141.73087,88,41,0
141.6341,141.73087,93,49,0
141.73087,141.82732,91,49,0
141.73087,141.82732,82,41,0
141.82732,141.92346,85,50,0
141.82732,141.92346,90,58,0
141.92346,142.01901,88,48,0
141.92346,142.01901,79,40,0
142.01901,142.11423,85,40,0
142.01901,142.11423,90,47,0
142.11423,142.20917,79,39,0
142.11423,142.20917,88,46,0
142.20917,142.30411,79,43,0
142.20917,142.30411,87,51,0
142.30411,142.39905,85,40,0
142.30411,142.39905,76,33,0
142.39905,142.49353,87,40,0
142.39905,142.49353,79,33,0
142.49353,142.58879,85,39,0
142.49353,142.58879,76,32,0
142.58879,142.68527,84,49,0
142.58879,142.68527,79,40,0
142.68527,142.78302,81,38,0
142.68527,142.78302,73,31,0
142.78302,142.88205,84,38,0
142.78302,142.88205,79,31,0
142.88205,142.9824,82,37,0
142.88205,142.9824,73,31,0
142.9824,143.08394,76,37,0
142.9824,143.08394,81,43,0
143.08394,143.18634,78,34,0
143.08394,143.18634,70,29,0
143.18634,143.28983,81,34,0
143.18634,143.28983,76,29,0
143.28983,143.395,79,33,0
143.28983,143.395,70,28,0
143.395,143.50368,73,34,0
143.395,143.50368,77,42,0
143.50368,143.61635,75,30,0
143.50368,143.61635,67,25,0
143.61635,143.74345,73,25,0
143.61635,143.74345,77,30,0
143.74345,143.87166,67,26,0
143.74345,143.87166,76,31,0
143.87166,143.97702,74,32,0
143.87166,143.97702,70,32,0
143.97702,144.0824,65,29,0
144.0824,144.18776,70,36,0
143.87166,144.18776,79,42,0
144.18776,144.29312,77,33,0
144.29312,144.3985,68,32,0
144.3985,144.50386,65,32,0
144.50386,144.60922,68,32,0
144.29312,144.60922,74,42,0
144.60922,144.72517,75,33,0
144.72517,144.83055,70,32,0
144.72517,144.83055,64,32,0
144.83055,144.93591,67,32,0
144.93591,145.04128,64,32,0
144.72517,145.04128,74,42,0
145.04128,145.14665,72,33,0
145.14665,145.25201,63,32,0
145.25201,145.35738,60,32,0
145.35738,145.46275,63,32,0
145.14665,145.46275,67,42,0
145.46275,145.56812,69,33,0
145.56812,145.67348,74,32,0
145.56812,145.67348,70,32,0
145.67348,145.77884,65,29,0
145.77884,145.88422,70,36,0
145.56812,145.88422,79,42,0
145.88422,145.98958,77,33,0
145.98958,146.09494,68,32,0
146.09494,146.20032,65,32,0
146.20032,146.30568,68,32,0
145.98958,146.30568,74,42,0
146.30568,146.42163,75,33,0
146.42163,146.52701,64,32,0
146.42163,146.52701,70,32,0
146.52701,146.63237,67,32,0
146.63237,146.73773,64,32,0
146.42163,146.73773,74,42,0
146.73773,146.8431,72,33,0
146.8431,146.94847,63,32,0
146.94847,147.05383,60,32,0
147.05383,147.1592,63,32,0
146.8431,147.1592,67,42,0
147.1592,147.26457,69,33,0
147.26457,147.36993,62,32,0
147.36993,147.4753,65,29,0
147.4753,147.58067,62,36,0
147.26457,147.58067,72,42,0
147.58067,147.68604,70,33,0
147.68604,147.7914,56,32,0
147.7914,147.89677,62,32,0
147.89677,148.00214,56,32,0
147.68604,148.00214,67,42,0
148.00214,148.11809,65,33,0
148.00214,148.11809,62,28,0
148.11809,148.22345,55,32,0
148.22345,148.32883,60,32,0
148.32883,148.43419,55,32,0
148.11809,148.43419,65,42,0
148.43419,148.53955,60,28,0
148.43419,148.53955,63,33,0
148.53955,148.64493,51,32,0
148.64493,148.75029,57,32,0
148.75029,148.85565,51,32,0
148.53955,148.85565,60,42,0
148.85565,148.97104,57,32,0
148.85565,148.97104,62,33,0
149.20181,149.29941,74,39,0
149.20181,149.29941,62,33,0
149.20181,149.29941,65,33,0
149.39699,149.49333,65,30,0
149.39699,149.49333,72,36,0
149.39699,149.49333,62,30,0
149.58968,149.68602,71,36,0
149.58968,149.68602,65,30,0
149.58968,149.68602,62,30,0
149.78235,149.8787,70,39,0
149.78235,149.8787,62,33,0
149.78235,149.8787,65,33,0
149.97504,150.08397,65,30,0
149.97504,150.08397,74,36,0
149.97504,150.08397,62,30,0
150.1929,150.29048,72,39,0
150.29048,150.38808,71,36,0
150.1929,150.38808,62,33,0
150.1929,150.38808,65,33,0
150.38808,150.58327,70,36,0
150.81458,150.91345,70,33,0
150.81458,150.91345,65,33,0
150.81458,150.91345,77,39,0
151.01233,151.1112,70,30,0
151.01233,151.1112,76,36,0
151.01233,151.1112,65,30,0
151.21008,151.30896,70,30,0
151.21008,151.30896,65,30,0
151.21008,151.30896,75,36,0
151.40785,151.50673,74,39,0
151.40785,151.50673,65,33,0
151.40785,151.50673,70,33,0
151.6056,151.72125,70,30,0
151.6056,151.72125,65,30,0
151.6056,151.72125,77,36,0
151.83691,151.93987,76,39,0
151.93987,152.04282,75,36,0
151.83691,152.04282,70,33,0
151.83691,152.04282,65,33,0
152.04282,152.2451,74,36,0
152.48003,152.58159,70,33,0
152.48003,152.58159,73,33,0
152.48003,152.58159,82,39,0
152.68314,152.78334,80,36,0
152.68314,152.78334,70,30,0
152.68314,152.78334,73,30,0
152.88354,152.98373,73,30,0
152.88354,152.98373,79,36,0
152.88354,152.98373,70,30,0
153.08394,153.18414,78,39,0
153.08394,153.18414,73,33,0
153.08394,153.18414,70,33,0
153.28435,153.39488,70,30,0
153.28435,153.39488,73,30,0
153.28435,153.39488,82,36,0
153.50542,153.60837,80,39,0
153.60837,153.71132,79,36,0
153.50542,153.71132,73,33,0
153.50542,153.71132,70,33,0
153.71132,153.9199,78,36,0
154.1792,154.29666,69,33,0
154.1792,154.29666,78,39,0
154.1792,154.29666,72,33,0
154.41412,154.52466,69,30,0
154.41412,154.52466,77,36,0
154.41412,154.52466,72,30,0
154.6352,154.74573,76,36,0
154.6352,154.74573,69,30,0
154.6352,154.74573,72,30,0
154.85628,154.97192,75,39,0
154.85628,154.97192,69,33,0
154.85628,154.97192,72,33,0
155.08757,155.22432,72,36,0
155.08757,155.22432,69,30,0
155.36105,155.47852,79,39,0
155.47852,155.59598,78,36,0
155.36105,155.59598,69,33,0
155.36105,155.59598,72,33,0
155.59598,155.90303,77,36,0
156.1338,156.22433,62,33,0
156.1338,156.22433,74,39,0
156.22433,156.31485,66,31,0
156.31485,156.40593,62,30,0
156.31485,156.40593,72,36,0
156.40593,156.49701,67,28,0
156.49701,156.59093,71,36,0
156.49701,156.59093,62,30,0
156.59093,156.68486,66,29,0
156.68486,156.77878,70,39,0
156.68486,156.77878,62,33,0
156.77878,156.87271,67,31,0
156.87271,156.97566,74,36,0
156.87271,156.97566,62,30,0
156.97566,157.07861,66,29,0
157.07861,157.17253,72,39,0
157.17253,157.26646,71,36,0
157.07861,157.26646,62,33,0
157.26646,157.45432,70,36,0
157.68509,157.7756,65,33,0
157.68509,157.7756,77,39,0
157.7756,157.86613,71,31,0
157.86613,157.95776,65,30,0
157.86613,157.95776,76,36,0
157.95776,158.0517,72,28,0
158.0517,158.14561,65,30,0
158.0517,158.14561,75,36,0
158.14561,158.23955,71,29,0
158.23955,158.33347,74,39,0
158.23955,158.33347,65,33,0
158.33347,158.4274,72,31,0
158.4274,158.53035,77,36,0
158.4274,158.53035,65,30,0
158.53035,158.6333,71,29,0
158.6333,158.72723,76,39,0
158.72723,158.82115,75,36,0
158.6333,158.82115,65,33,0
158.82115,159.023,74,36,0
159.20934,159.3102,73,29,0
159.20934,159.3102,82,37,0
159.20934,159.3102,70,30,0
159.41107,159.505,80,41,0
159.505,159.59892,79,39,0
159.41107,159.59892,73,35,0
159.41107,159.59892,70,35,0
159.59892,159.80397,78,39,0
159.99147,160.09235,75,35,0
159.99147,160.09235,87,42,0
159.99147,160.09235,78,34,0
160.19322,160.28714,85,47,0
160.28714,160.38107,84,44,0
160.19322,160.38107,78,40,0
160.19322,160.38107,75,40,0
160.38107,160.56892,83,45,0
160.77655,160.87779,93,50,0
160.77655,160.87779,84,42,0
160.77655,160.87779,87,42,0
160.97867,161.0789,87,45,0
160.97867,161.0789,92,54,0
160.97867,161.0789,84,45,0
161.1788,161.27835,91,53,0
161.1788,161.27835,87,45,0
161.1788,161.27835,84,45,0
161.37726,161.47585,84,42,0
161.37726,161.47585,90,50,0
161.37726,161.47585,87,42,0
161.57408,161.6717,89,50,0
161.57408,161.6717,84,42,0
161.57408,161.6717,81,42,0
161.76901,161.86597,81,41,0
161.76901,161.86597,84,41,0
161.76901,161.86597,88,49,0
161.96234,162.05841,87,48,0
161.96234,162.05841,81,40,0
161.96234,162.05841,84,40,0
162.15413,162.24928,86,53,0
162.15413,162.24928,78,45,0
162.15413,162.24928,81,45,0
162.34439,162.43951,81,45,0
162.34439,162.43951,85,54,0
162.34439,162.43951,78,45,0
162.53462,162.62975,84,54,0
162.53462,162.62975,81,45,0
162.53462,162.62975,78,45,0
162.72487,162.81998,83,55,0
162.72487,162.81998,75,46,0
162.72487,162.81998,78,46,0
162.9151,163.01079,75,46,0
162.9151,163.01079,78,46,0
162.9151,163.01079,82,57,0
163.10664,163.20297,81,58,0
163.10664,163.20297,75,48,0
163.10664,163.20297,72,48,0
163.29976,163.39671,80,58,0
163.29976,163.39671,72,49,0
163.29976,163.39671,75,49,0
163.49428,163.59216,72,50,0
163.49428,163.59216,79,59,0
163.49428,163.59216,75,50,0
163.69038,163.78923,75,50,0
163.69038,163.78923,78,62,0
163.69038,163.78923,72,50,0
163.8881,163.987,72,50,0
163.8881,163.987,75,50,0
163.8881,163.987,77,59,0
164.08588,164.18475,79,58,0
164.08588,164.18475,75,48,0
164.28363,164.3825,75,46,0
164.28363,164.3825,77,55,0
164.48138,164.67915,78,45,0
164.48138,164.67915,75,37,0
164.67915,164.8769,77,37,0
164.67915,164.8769,75,37,0
164.8769,165.07466,79,45,0
164.8769,165.07466,75,37,0
165.07466,165.27243,75,32,0
165.07466,165.27243,77,38,0
165.27243,165.46819,75,37,0
165.27243,165.46819,78,45,0
165.46819,165.6652,75,31,0
165.46819,165.6652,77,37,0
165.6652,165.86427,75,35,0
165.6652,165.86427,79,42,0
165.86427,166.06541,77,36,0
165.86427,166.06541,75,29,0
166.06541,166.27132,79,39,0
166.06541,166.27132,75,33,0
166.27132,166.48567,77,33,0
166.27132,166.48567,75,28,0
166.48567,166.70836,79,37,0
166.48567,166.70836,75,31,0
166.70836,166.98183,77,31,0
166.70836,166.98183,75,26,0
166.98183,167.23038,74,28,0
166.98183,167.23038,77,35,0
167.47893,167.59837,62,35,0
167.57846,167.6979,63,35,0
167.678,167.79744,62,35,0
167.77753,167.89534,64,35,0
167.87656,167.98926,65,36,0
167.97047,168.08319,66,36,0
168.0644,168.17711,65,36,0
168.15833,168.27104,67,36,0
168.25226,168.36496,68,36,0
168.34618,168.4589,69,36,0
168.44011,168.55283,68,37,0
168.53403,168.64774,70,37,0
168.62796,168.74661,71,37,0
168.72684,168.84416,72,37,0
168.82571,168.93636,71,38,0
168.91791,169.02866,73,38,0
169.0101,169.12143,74,38,0
169.10287,169.21419,75,39,0
169.19563,169.30696,74,39,0
169.2884,169.39972,76,39,0
169.38116,169.49248,77,39,0
169.47392,169.58673,78,38,0
169.5667,169.68694,77,38,0
169.6669,169.78587,79,38,0
169.76709,169.8798,80,38,0
169.86102,169.97372,81,39,0
169.95494,170.06766,80,39,0
170.04887,170.16159,83,39,0
170.14279,170.23672,86,39,0
170.23672,170.33066,87,41,0
170.33066,170.42458,86,41,0
170.42458,170.51851,89,41,0
170.51851,170.61243,90,41,0
170.61243,170.70636,91,42,0
170.70636,170.80028,90,42,0
170.80028,170.89421,92,42,0
170.89421,170.98813,93,43,0
170.98813,171.08206,94,43,0
171.08206,171.17598,93,43,0
171.17598,171.26991,97,43,0
171.26991,171.36385,98,44,0
171.36385,171.45776,97,44,0
171.45776,171.5517,98,44,0
171.5517,171.65755,97,44,0
171.65755,171.74974,96,45,0
171.74974,171.84193,95,39,0
171.84193,171.93413,96,39,0
171.93413,172.02632,94,39,0
171.65755,172.02632,99,55,0
172.02632,172.11852,93,39,0
172.11852,172.21071,91,39,0
172.21071,172.3029,92,39,0
172.3029,172.3951,90,39,0
172.3951,172.48729,89,45,0
172.48729,172.5795,88,39,0
172.5795,172.67169,89,39,0
172.67169,172.76389,87,39,0
172.3951,172.76389,101,54,0
172.76389,172.85608,86,39,0
172.85608,172.94827,85,39,0
172.94827,173.04047,84,39,0
173.04047,173.11581,83,39,0
173.1535,173.24626,98,58,0
173.13466,173.24626,82,49,0
173.92218,174.68312,56,30,0
173.92218,174.68312,53,30,0
173.92218,174.68312,62,30,0
173.92218,174.68312,59,30,0
174.88087,174.97365,77,33,0
174.88087,174.97365,80,33,0
174.88087,174.97365,86,46,0
175.0664,175.15918,77,33,0
175.0664,175.15918,80,33,0
175.0664,175.15918,85,46,0
175.25194,175.3447,80,33,0
175.25194,175.3447,84,46,0
175.25194,175.3447,77,33,0
175.43747,175.53023,83,46,0
175.623,175.72319,86,49,0
175.43747,175.8234,74,33,0
175.43747,175.8234,80,33,0
175.8234,175.91733,77,29,0
175.8234,175.91733,85,50,0
175.8234,175.91733,74,27,0
175.91733,176.01125,84,46,0
176.01125,176.10518,83,46,0
176.19951,176.38853,93,38,0
176.19951,176.38853,78,30,0
176.19951,176.38853,86,30,0
177.70909,177.89348,79,30,0
177.70909,177.89348,87,30,0
177.70909,177.89348,96,38,0
178.44664,178.63103,101,38,0
178.44664,178.63103,93,30,0
178.44664,178.63103,87,30,0
179.19861,179.29138,94,30,0
179.19861,179.29138,101,38,0
179.19861,179.29138,86,30,0
179.38414,179.47768,50,31,0
179.57123,179.66476,48,36,0
179.7583,179.85184,47,32,0
179.94537,180.04514,46,36,0
180.13696,180.2245,50,32,0
180.31203,180.40796,48,36,0
180.40796,180.50389,47,31,0
180.50389,180.59982,46,31,0
180.97514,181.05513,87,37,0
181.05513,181.13554,84,37,0
181.13554,181.21649,80,36,0
181.21649,181.2979,77,36,0
181.2979,181.37973,81,36,0
181.37973,181.46214,78,35,0
181.46214,181.545,74,35,0
181.545,181.62831,71,33,0
181.62831,181.71222,75,33,0
181.71222,181.79659,72,32,0
181.79659,181.88152,68,32,0
181.88152,181.96698,65,31,0
181.96698,182.05292,69,30,0
182.05292,182.13948,78,30,0
182.13948,182.39954,70,38,0
182.13948,182.39954,77,38,0
182.39954,182.49307,50,31,0
182.58662,182.68016,48,36,0
182.7737,182.86723,47,32,0
182.96077,183.06053,46,36,0
183.15236,183.2399,50,32,0
183.32742,183.42336,48,36,0
183.42336,183.51929,47,31,0
183.51929,183.61522,46,31,0
183.99013,184.06757,87,37,0
184.06757,184.14526,84,37,0
184.14526,184.22328,80,36,0
184.22328,184.30159,77,36,0
184.30159,184.38025,81,36,0
184.38025,184.45929,78,35,0
184.45929,184.53865,74,35,0
184.53865,184.61832,71,33,0
184.61832,184.6983,75,33,0
184.6983,184.77864,72,32,0
184.77864,184.85938,68,32,0
184.85938,184.94044,65,31,0
184.94044,185.02185,69,30,0
185.02185,185.07492,78,30,0
185.10349,185.24861,66,36,0
185.10349,185.24861,60,36,0
185.39374,185.46936,90,41,0
185.46936,185.54498,87,41,0
185.54498,185.62074,83,39,0
185.62074,185.69653,80,39,0
185.69653,185.77267,84,38,0
185.77267,185.84882,81,37,0
185.84882,185.92503,77,37,0
185.92503,186.00156,74,36,0
186.00156,186.0781,78,36,0
186.0781,186.15474,75,36,0
186.15474,186.23167,71,36,0
186.23167,186.3086,68,35,0
186.3086,186.38698,72,33,0
186.38698,186.5003,81,33,0
186.5003,186.64543,63,36,0
186.5003,186.64543,69,36,0
186.79056,186.86618,93,41,0
186.86618,186.94179,90,41,0
186.94179,187.01755,86,39,0
187.01755,187.09334,83,39,0
187.09334,187.16948,87,38,0
187.16948,187.24562,84,37,0
187.24562,187.32184,96,37,0
187.32184,187.39838,93,36,0
187.39838,187.47491,89,36,0
187.47491,187.55156,86,36,0
187.55156,187.62848,90,36,0
187.62848,187.70541,87,35,0
187.70541,187.7838,99,33,0
187.7838,187.86218,96,33,0
187.86218,187.94043,92,41,0
187.94043,188.01868,89,36,0
188.01868,188.09692,93,42,0
188.09692,188.17517,90,36,0
188.17517,188.25342,100,38,0
188.25342,188.33167,87,31,0
188.33167,188.40991,101,36,0
188.40991,188.48816,87,27,0
188.48816,188.56755,100,45,0
188.56755,188.64749,87,27,0
188.64749,188.72803,101,42,0
188.72803,188.80908,87,29,0
188.80908,188.89078,100,37,0
188.89078,188.97307,87,29,0
188.97307,189.05592,101,37,0
189.05592,189.13943,87,29,0
189.13943,189.42326,101,43,0
189.42326,189.50188,98,35,0
189.42326,189.50188,90,28,0
189.50188,189.58028,89,26,0
189.50188,189.58028,94,31,0
189.58028,189.65836,90,30,0
189.58028,189.65836,86,25,0
189.65836,189.73605,82,24,0
189.65836,189.73605,89,29,0
189.73605,189.81343,86,28,0
189.73605,189.81343,78,23,0
189.81343,189.89043,77,23,0
189.81343,189.89043,82,28,0
189.89043,189.96638,74,22,0
189.89043,189.96638,78,27,0
189.96638,190.0426,70,23,0
189.96638,190.0426,77,28,0
190.0426,190.1192,74,24,0
190.0426,190.1192,78,29,0
190.1192,190.1962,82,30,0
190.1192,190.1962,77,25,0
190.1962,190.27359,78,26,0
190.1962,190.27359,86,31,0
190.27359,190.35138,89,32,0
190.27359,190.35138,82,27,0
190.35138,190.42958,86,28,0
190.35138,190.42958,90,33,0
190.42958,190.50826,89,28,0
190.42958,190.50826,94,35,0
190.50826,190.65721,98,36,0
190.50826,190.65721,82,29,0
190.80617,190.88478,78,27,0
190.80617,190.88478,86,32,0
190.88478,190.96317,77,24,0
190.88478,190.96317,82,29,0
190.96317,191.04126,78,28,0
190.96317,191.04126,74,23,0
191.04126,191.11896,77,28,0
191.04126,191.11896,70,22,0
191.11896,191.19633,66,22,0
191.11896,191.19633,74,27,0
191.19633,191.27333,70,26,0
191.19633,191.27333,65,22,0
191.27333,191.34929,66,25,0
191.27333,191.34929,62,21,0
191.34929,191.4255,58,22,0
191.34929,191.4255,65,26,0
191.4255,191.5021,66,28,0
191.4255,191.5021,62,22,0
191.5021,191.5791,65,23,0
191.5021,191.5791,70,28,0
191.5791,191.6565,74,29,0
191.5791,191.6565,66,24,0
191.6565,191.73428,70,25,0
191.6565,191.73428,77,30,0
191.73428,191.81248,74,26,0
191.73428,191.81248,78,31,0
191.81248,191.89116,82,32,0
191.81248,191.89116,77,27,0
191.89116,192.00089,70,28,0
191.89116,192.00089,86,33,0
192.11061,192.18922,66,29,0
192.11061,192.18922,74,29,0
192.18922,192.26762,65,28,0
192.18922,192.26762,70,28,0
192.26762,192.34572,66,27,0
192.26762,192.34572,62,27,0
192.34572,192.4234,65,26,0
192.34572,192.4234,58,26,0
192.4234,192.50078,62,24,0
192.4234,192.50078,54,24,0
192.50078,192.57777,58,23,0
192.50078,192.57777,53,23,0
192.57777,192.65373,54,22,0
192.57777,192.65373,62,22,0
192.65373,192.72995,65,21,0
192.65373,192.72995,58,21,0
192.72995,192.80655,66,21,0
192.72995,192.80655,62,21,0
192.80655,192.88354,65,22,0
192.80655,192.88354,70,22,0
192.88354,192.96094,66,22,0
192.88354,192.96094,74,22,0
192.96094,193.03874,77,24,0
192.96094,193.03874,70,24,0
193.03874,193.11693,78,26,0
193.03874,193.11693,74,26,0
193.11693,193.1956,82,27,0
193.11693,193.1956,77,27,0
193.1956,193.273,78,28,0
193.1956,193.273,86,28,0
193.273,193.35078,89,29,0
193.273,193.35078,82,29,0
193.35078,193.42899,90,30,0
193.35078,193.42899,86,30,0
193.42899,193.50766,89,32,0
193.42899,193.50766,94,32,0
193.50766,193.58673,98,35,0
193.50766,193.58673,90,28,0
193.58673,193.6658,89,22,0
193.58673,193.6658,94,28,0
193.6658,193.74487,86,22,0
193.6658,193.74487,90,26,0
193.74487,193.82394,89,26,0
193.74487,193.82394,82,22,0
193.82394,193.90302,98,32,0
193.82394,193.90302,90,27,0
193.90302,193.98209,94,26,0
193.90302,193.98209,89,21,0
193.98209,194.06116,90,24,0
193.98209,194.06116,86,21,0
194.06116,194.14023,89,24,0
194.06116,194.14023,82,21,0
194.14023,194.2193,90,25,0
194.14023,194.2193,98,31,0
194.2193,194.29837,89,20,0
194.2193,194.29837,94,24,0
194.29837,194.37744,86,20,0
194.29837,194.37744,90,24,0
194.37744,194.45651,82,20,0
194.37744,194.45651,89,23,0
194.45651,194.5356,90,24,0
194.45651,194.5356,98,29,0
194.5356,194.61467,89,18,0
194.5356,194.61467,94,23,0
194.61467,194.69374,86,18,0
194.61467,194.69374,90,22,0
194.69374,194.77281,82,18,0
194.69374,194.77281,89,22,0
194.77281,194.85188,90,22,0
194.77281,194.85188,98,28,0
194.85188,194.93095,94,22,0
194.85188,194.93095,89,18,0
194.93095,195.01003,90,22,0
194.93095,195.01003,86,18,0
195.01003,195.0891,82,18,0
195.01003,195.0891,89,22,0
195.28677,195.40538,101,43,0
195.24724,195.40538,94,38,0
195.2077,195.40538,86,32,0
1.7862628,2.4222772,62,41,0
1.7485744,2.4222772,59,37,0
1.8238319,2.7193067,68,51,0
2.7193067,3.0153975,67,44,0
2.3849638,3.2725291,60,29,0
2.4222772,3.3091145,63,41,0
3.0153975,3.3091145,63,48,0
3.3091145,3.6008856,60,44,0
1.7108859,3.6008856,53,33,0
5.3213296,5.8431993,63,38,0
5.284384,5.8431993,60,36,0
5.247438,5.8431993,57,33,0
6.263235,6.5771155,65,31,0
5.3582754,6.5771155,66,41,0
5.9562645,6.5771155,62,43,0
6.5771155,6.8970904,61,41,0
5.9185762,7.100235,58,32,0
6.8970904,7.100235,58,30,0
5.210637,7.100235,53,31,0
7.223471,7.596142,61,30,0
7.100235,7.596142,53,30,0
7.1412187,7.596142,55,30,0
7.1822624,7.596142,58,30,0
7.897955,7.9737124,91,30,0
7.897955,7.9737124,88,30,0
8.049502,8.125644,84,26,0
8.049502,8.125644,81,26,0
8.201786,8.278007,82,26,0
8.201786,8.278007,85,26,0
8.354537,8.431067,78,26,0
8.354537,8.431067,75,26,0
8.507722,8.584645,79,30,0
8.507722,8.584645,76,30,0
8.661569,8.738492,69,26,0
8.661569,8.738492,72,26,0
8.815414,8.892338,70,26,0
8.815414,8.892338,73,26,0
8.969261,9.046185,66,26,0
8.969261,9.046185,63,26,0
9.123107,9.200867,67,30,0
9.123107,9.200867,64,30,0
9.283442,9.371608,60,27,0
9.283442,9.371608,57,27,0
9.452348,9.610807,61,30,0
9.452348,9.610807,58,30,0
9.825554,9.922956,41,36,0
10.020359,10.103231,61,18,0
10.020359,10.103231,53,18,0
10.020359,10.103231,67,23,0
10.020359,10.103231,58,18,0
10.186105,10.268977,67,23,0
10.186105,10.268977,58,18,0
10.186105,10.268977,61,18,0
10.186105,10.268977,53,18,0
10.3518505,10.434723,61,18,0
10.3518505,10.434723,67,23,0
10.3518505,10.434723,53,18,0
10.3518505,10.434723,58,18,0
10.517596,10.607958,58,20,0
10.517596,10.607958,67,24,0
10.517596,10.607958,53,20,0
10.517596,10.607958,61,20,0
10.6983185,10.781652,53,22,0
10.6983185,10.781652,67,27,0
10.6983185,10.781652,61,22,0
10.6983185,10.781652,58,22,0
10.864985,11.207843,58,18,0
10.864985,11.207843,67,22,0
10.864985,11.207843,53,18,0
10.864985,11.207843,61,18,0
11.550699,11.626457,90,30,0
11.550699,11.626457,93,30,0
11.702247,11.778389,86,26,0
11.702247,11.778389,83,26,0
11.854531,11.930751,87,26,0
11.854531,11.930751,84,26,0
12.007281,12.083813,77,26,0
12.007281,12.083813,80,26,0
12.160467,12.2373905,81,30,0
12.160467,12.2373905,78,30,0
12.314314,12.391236,71,26,0
12.314314,12.391236,74,26,0
12.46816,12.545083,75,26,0
12.46816,12.545083,72,26,0
12.622006,12.698929,68,26,0
12.622006,12.698929,65,26,0
12.775852,12.852255,66,30,0
12.775852,12.852255,69,30,0
12.928975,13.006469,59,27,0
12.928975,13.006469,62,27,0
13.08471,13.24317,63,30,0
13.08471,13.24317,60,30,0
13.71936,13.816763,41,39,0
13.9141655,13.997039,69,27,0
13.9141655,13.997039,63,22,0
13.9141655,13.997039,60,22,0
14.079911,14.162785,63,22,0
14.079911,14.162785,60,22,0
14.079911,14.162785,69,27,0
14.245657,14.32853,69,27,0
14.245657,14.32853,60,22,0
14.245657,14.32853,63,22,0
14.411403,14.501764,63,24,0
14.411403,14.501764,60,24,0
14.411403,14.501764,69,28,0
14.592126,14.675459,63,26,0
14.592126,14.675459,60,26,0
14.592126,14.675459,69,31,0
14.758793,15.101649,63,20,0
14.758793,15.101649,60,20,0
14.758793,15.101649,69,26,0
15.296455,15.382317,69,22,0
15.296455,15.382317,63,18,0
15.296455,15.382317,60,18,0
15.468178,15.554039,63,18,0
15.468178,15.554039,60,18,0
15.468178,15.554039,69,22,0
15.639901,15.725762,69,22,0
15.639901,15.725762,60,18,0
15.639901,15.725762,63,18,0
15.811624,15.904965,63,18,0
15.811624,15.904965,69,23,0
15.811624,15.904965,60,18,0
15.998307,16.08417,60,20,0
15.998307,16.08417,69,26,0
15.998307,16.08417,63,20,0
16.17003,16.529959,60,17,0
16.17003,16.529959,63,17,0
16.17003,16.529959,69,20,0
16.709923,16.795784,69,25,0
16.709923,16.795784,63,18,0
16.709923,16.795784,66,18,0
16.881645,17.243746,69,18,0
16.881645,17.243746,66,16,0
16.881645,17.243746,63,16,0
17.43893,17.528376,69,24,0
17.43893,17.528376,66,18,0
17.61782,17.998291,69,18,0
17.61782,17.998291,66,15,0
18.18974,18.285463,75,31,0
18.18974,18.285463,69,24,0
18.380379,18.474304,72,25,0
18.568232,18.661602,75,31,0
18.568232,18.661602,69,24,0
18.754944,18.847881,72,27,0
18.940645,19.033297,75,31,0
18.940645,19.033297,69,24,0
19.12549,19.217684,72,26,0
19.309343,19.400974,69,24,0
19.309343,19.400974,75,31,0
22.430439,22.815172,63,41,0
22.815172,23.218397,62,32,0
22.430439,23.218397,65,32,0
23.218397,23.599592,60,38,0
23.599592,24.011065,58,33,0
23.218397,24.011065,65,30,0
24.011065,24.209328,62,32,0
24.011065,24.209328,53,25,0
24.011065,24.209328,65,25,0
24.404816,24.597603,65,23,0
24.404816,24.597603,63,29,0
24.404816,24.597603,53,23,0
24.789248,24.98089,57,26,0
24.789248,24.98089,63,33,0
25.192278,25.39389,62,29,0
25.192278,25.39389,58,23,0
24.789248,25.39389,65,26,0
25.605072,25.990479,63,41,0
25.990479,26.393705,62,32,0
25.605072,26.393705,65,32,0
26.393705,26.774899,60,38,0
26.774899,27.18637,58,33,0
26.393705,27.18637,65,30,0
27.18637,27.384636,65,25,0
27.18637,27.384636,62,32,0
27.18637,27.384636,53,25,0
27.580122,27.77291,53,23,0
27.580122,27.77291,65,23,0
27.580122,27.77291,63,29,0
27.964554,28.156199,57,26,0
27.964554,28.156199,63,33,0
27.964554,28.568039,65,26,0
28.367584,28.775917,58,23,0
28.367584,28.775917,62,29,0
28.775917,29.161322,68,41,0
29.161322,29.564548,66,32,0
28.775917,29.564548,70,32,0
29.564548,29.945744,65,38,0
29.945744,30.357214,63,33,0
29.564548,30.357214,70,30,0
30.357214,30.55548,66,32,0
30.357214,30.55548,58,25,0
30.357214,30.55548,70,25,0
30.750967,30.943752,58,23,0
30.750967,30.943752,70,23,0
30.750967,30.943752,68,29,0
31.135397,31.327042,68,33,0
31.135397,31.327042,62,26,0
31.53843,31.730072,63,23,0
31.53843,31.730072,66,29,0
31.135397,31.730072,70,26,0
31.921717,32.30712,68,41,0
32.30712,32.71035,66,32,0
31.921717,32.71035,70,32,0
32.71035,33.091545,65,38,0
33.091545,33.503014,63,33,0
32.71035,33.503014,70,30,0
33.503014,33.70128,66,32,0
33.503014,33.70128,70,25,0
33.503014,33.70128,58,25,0
33.896767,34.089554,58,23,0
33.896767,34.089554,70,23,0
33.896767,34.089554,68,29,0
34.281197,34.472843,62,26,0
34.281197,34.472843,68,33,0
34.68423,34.890614,66,29,0
34.68423,34.890614,63,23,0
34.281197,34.890614,70,26,0
35.11325,35.50286,46,30,0
35.11325,35.50286,61,36,0
35.50286,35.697666,63,29,0
35.50286,35.697666,47,24,0
35.89247,36.298317,49,28,0
35.89247,36.298317,64,35,0
36.298317,36.493122,51,20,0
36.298317,36.493122,66,25,0
36.697666,37.097996,52,26,0
36.697666,37.097996,67,31,0
37.097996,37.295753,53,21,0
37.097996,37.295753,69,25,0
37.50333,37.7024,64,27,0
37.7024,37.90931,61,23,0
37.50333,37.90931,55,22,0
37.90931,38.00819,65,29,0
38.107067,38.205948,60,25,0
37.90931,38.31106,57,24,0
38.31106,38.409943,67,29,0
38.508823,38.6077,61,24,0
38.31106,38.714085,58,29,0
38.714085,38.81362,69,29,0
38.913155,39.01269,63,24,0
38.714085,39.11223,60,24,0
39.11223,39.21176,61,24,0
39.11223,39.21176,67,29,0
39.519764,39.61717,63,24,0
39.519764,39.61717,69,29,0
41.407623,41.503975,51,41,0
41.55215,41.600327,67,36,0
41.600327,41.648502,65,41,0
41.79303,41.893833,50,41,0
41.944237,41.99464,66,36,0
41.99464,42.045044,65,41,0
42.196255,42.291553,48,41,0
42.339203,42.386852,67,36,0
42.386852,42.4345,65,41,0
42.57745,42.68064,46,41,0
42.73224,42.783833,66,35,0
42.783833,42.83543,65,41,0
42.988922,43.08835,41,44,0
43.137894,43.187183,67,39,0
43.187183,43.236282,65,45,0
43.38267,43.479424,41,46,0
43.52755,43.57546,66,39,0
43.57546,43.62337,65,45,0
43.767105,43.862926,45,45,0
43.910835,43.958748,67,36,0
43.958748,44.011593,65,41,0
44.170135,44.268173,46,41,0
44.317192,44.366215,66,36,0
44.366215,44.415234,65,41,0
44.574627,44.67098,51,41,0
44.719154,44.76733,67,36,0
44.76733,44.815506,65,41,0
44.960033,45.06084,50,41,0
45.111244,45.161648,66,36,0
45.161648,45.21205,65,41,0
45.36326,45.458557,48,41,0
45.506207,45.553856,67,36,0
45.553856,45.601505,65,41,0
45.744453,45.847645,46,41,0
45.899242,45.95084,66,35,0
45.95084,46.002434,65,41,0
46.155926,46.255352,41,44,0
46.304897,46.35419,67,39,0
46.35419,46.40329,65,45,0
46.54968,46.64643,41,46,0
46.694553,46.742466,66,39,0
46.742466,46.790375,65,45,0
46.93411,47.02993,45,45,0
47.077843,47.12575,67,36,0
47.12575,47.1786,65,41,0
47.33714,47.437366,46,46,0
47.48748,47.537594,67,42,0
47.537594,47.587708,65,46,0
47.745472,47.838814,56,52,0
47.885483,47.932156,71,46,0
47.932156,47.978825,70,53,0
48.11884,48.21643,55,54,0
48.26523,48.314022,72,48,0
48.314022,48.36282,70,55,0
48.50921,48.60084,50,55,0
48.646656,48.69247,71,49,0
48.69247,48.738285,70,56,0
48.875732,48.97729,51,56,0
49.02807,49.078846,71,49,0
49.078846,49.129627,70,57,0
49.279003,49.374996,46,59,0
49.422665,49.470184,72,51,0
49.470184,49.517445,70,60,0
49.658257,49.75127,46,60,0
49.79747,49.843533,71,52,0
49.843533,49.889347,70,60,0
50.026794,50.118423,50,61,0
50.16424,50.210056,72,52,0
50.210056,50.260494,70,60,0
50.411804,50.50457,51,60,0
50.55095,50.597332,71,53,0
50.597332,50.643715,70,60,0
50.78286,50.87738,56,54,0
50.924637,50.971897,72,47,0
50.971897,51.019157,70,54,0
51.160934,51.259167,55,54,0
51.30828,51.3574,71,46,0
51.3574,51.406513,70,55,0
51.55386,51.646626,50,55,0
51.69301,51.73939,72,48,0
51.73939,51.78577,70,56,0
51.92492,52.02579,51,56,0
52.07623,52.126667,71,52,0
52.126667,52.177105,70,57,0
52.323536,52.41922,46,62,0
52.466778,52.51415,72,55,0
52.51415,52.56141,70,63,0
52.702072,52.795273,46,63,0
52.84194,52.888615,71,57,0
52.888615,52.935284,70,63,0
53.075294,53.168636,50,58,0
53.21531,53.26198,72,50,0
53.26198,53.314827,70,58,0
53.473366,53.8818,51,44,0
53.8818,53.980034,35,35,0
53.8818,53.980034,47,42,0
54.078262,54.176495,53,27,0
54.078262,54.176495,62,33,0
54.078262,54.176495,56,27,0
54.274727,54.467407,63,42,0
54.225613,54.467407,55,35,0
54.176495,54.467407,48,35,0
54.677937,54.77617,38,35,0
54.677937,54.77617,50,42,0
54.874397,54.97263,56,28,0
54.874397,54.97263,59,28,0
54.874397,54.97263,65,35,0
55.07086,55.273975,67,42,0
55.021748,55.273975,60,35,0
54.97263,55.273975,51,35,0
55.4906,55.58948,40,36,0
55.68836,55.78724,46,28,0
55.88612,55.984997,52,35,0
56.083878,56.182755,58,27,0
56.281635,56.483467,61,28,0
56.483467,56.663452,58,23,0
56.281635,56.740486,55,18,0
56.740486,56.968864,62,36,0
56.663452,56.968864,53,20,0
57.197247,57.65947,59,27,0
57.65947,58.102734,60,27,0
57.197247,58.102734,53,22,0
58.102734,58.213547,40,41,0
58.213547,58.324364,41,36,0
58.324364,58.43518,40,43,0
58.545994,58.976536,53,36,0
58.43518,58.976536,41,36,0
58.976536,59.415394,47,27,0
59.415394,59.83686,48,27,0
58.976536,59.83686,41,22,0
59.83686,60.047596,42,41,0
60.047596,60.258327,41,36,0
60.258327,60.518383,34,41,0
60.518383,60.611923,58,22,0
60.518383,60.611923,53,26,0
60.611923,60.705463,62,25,0
60.705463,60.799004,58,21,0
60.705463,60.799004,54,25,0
60.799004,60.89254,62,25,0
60.89254,60.98608,58,21,0
60.89254,60.98608,55,25,0
60.98608,61.07962,62,25,0
61.07962,61.179382,58,25,0
61.07962,61.179382,54,30,0
61.179382,61.271202,62,22,0
61.271202,61.358738,58,25,0
61.271202,61.358738,53,30,0
61.358738,61.446274,62,21,0
61.446274,61.542206,58,25,0
61.446274,61.542206,54,30,0
61.542206,61.638138,62,25,0
61.638138,61.73407,55,30,0
61.638138,61.73407,58,25,0
61.73407,61.798027,62,22,0
61.83,61.97513,63,30,0
61.814014,61.97513,57,30,0
61.798027,61.97513,54,30,0
62.12025,62.198036,78,41,0
62.12025,62.198036,81,41,0
62.27654,62.35534,71,39,0
62.27654,62.35534,74,39,0
62.434464,62.513798,72,38,0
62.434464,62.513798,75,38,0
62.59343,62.673397,65,38,0
62.59343,62.673397,68,38,0
62.75358,62.83407,69,37,0
62.75358,62.83407,66,37,0
62.914898,62.995945,62,36,0
62.914898,62.995945,59,36,0
63.07731,63.15902,60,36,0
63.07731,63.15902,63,36,0
63.241066,63.50112,41,45,0
63.50112,63.594658,58,22,0
63.50112,63.594658,53,26,0
63.594658,63.688198,62,25,0
63.688198,63.78174,54,25,0
63.688198,63.78174,58,21,0
63.78174,63.87528,62,25,0
63.87528,63.96882,58,21,0
63.87528,63.96882,55,25,0
63.96882,64.062355,62,25,0
64.062355,64.16212,58,25,0
64.062355,64.16212,54,30,0
64.16212,64.25394,62,22,0
64.25394,64.34148,58,25,0
64.25394,64.34148,53,30,0
64.34148,64.42901,62,21,0
64.42901,64.52494,58,25,0
64.42901,64.52494,54,30,0
64.52494,64.62087,62,25,0
64.62087,64.716805,58,25,0
64.62087,64.716805,55,30,0
64.716805,64.78076,62,22,0
64.81274,64.95786,63,30,0
64.79675,64.95786,57,25,0
64.78076,64.95786,54,25,0
65.10069,65.177086,78,35,0
65.10069,65.177086,81,41,0
65.253586,65.33037,74,39,0
65.253586,65.33037,71,33,0
65.407364,65.484535,72,32,0
65.407364,65.484535,75,38,0
65.56203,65.63962,65,32,0
65.56203,65.63962,68,38,0
65.71759,65.795685,69,37,0
65.71759,65.795685,66,31,0
65.87408,65.95268,59,30,0
65.87408,65.95268,62,36,0
66.03148,66.1106,60,29,0
66.03148,66.1106,63,36,0
66.189835,66.33495,59,43,0
66.17661,66.33495,56,36,0
66.163414,66.33495,46,36,0
66.48008,66.5557,83,45,0
66.48008,66.5557,80,37,0
66.63132,66.70708,73,36,0
66.63132,66.70708,76,43,0
66.78287,66.85901,77,42,0
66.78287,66.85901,74,35,0
66.93515,67.01137,67,35,0
66.93515,67.01137,70,42,0
67.0879,67.16443,71,41,0
67.0879,67.16443,68,35,0
67.24109,67.31801,64,39,0
67.24109,67.31801,61,33,0
67.394936,67.47332,62,32,0
67.394936,67.47332,65,38,0
67.58665,67.73177,61,46,0
67.548874,67.73177,46,39,0
67.874466,67.94691,82,41,0
67.874466,67.94691,85,49,0
68.01988,68.093475,78,46,0
68.01988,68.093475,75,39,0
68.167625,68.24241,79,45,0
68.167625,68.24241,75,38,0
68.34086,68.485985,60,51,0
68.308044,68.485985,54,43,0
68.27523,68.485985,46,43,0
68.613,68.68569,87,49,0
68.613,68.68569,84,41,0
68.758644,68.83177,77,39,0
68.758644,68.83177,80,46,0
68.905174,68.97884,78,38,0
68.905174,68.97884,81,45,0
69.06842,69.14254,75,41,0
69.06842,69.14254,78,49,0
69.21694,69.291534,68,41,0
69.21694,69.291534,71,49,0
69.366394,69.441635,72,46,0
69.366394,69.441635,69,39,0
69.52536,69.601364,66,38,0
69.52536,69.601364,69,45,0
69.67736,69.75356,59,44,0
69.67736,69.75356,62,52,0
69.82995,69.90673,63,55,0
69.82995,69.90673,60,45,0
69.98371,70.06099,56,51,0
69.98371,70.06099,64,60,0
69.98371,70.06099,59,51,0
70.138565,70.21695,57,53,0
70.138565,70.21695,60,53,0
70.138565,70.21695,65,63,0
70.52015,70.68681,50,44,0
70.52015,70.68681,62,52,0
70.68681,70.853485,60,52,0
70.68681,70.853485,53,44,0
70.853485,71.03749,58,52,0
70.33028,71.03749,46,72,0
70.33028,71.03749,34,59,0
71.204155,71.37082,62,53,0
71.204155,71.37082,50,45,0
71.37082,71.454155,60,55,0
71.454155,71.53749,59,48,0
71.37082,71.53749,53,45,0
71.53749,71.736206,58,56,0
71.03749,71.736206,44,72,0
71.03749,71.736206,32,59,0
71.91062,72.07729,50,44,0
71.91062,72.07729,62,52,0
72.07729,72.24396,54,44,0
72.07729,72.24396,60,52,0
72.24396,72.42796,58,52,0
71.736206,72.42796,42,72,0
71.736206,72.42796,30,59,0
72.59463,72.7613,62,53,0
72.59463,72.7613,50,45,0
72.7613,72.84463,60,55,0
72.84463,72.92796,59,48,0
72.7613,72.92796,56,45,0
72.92796,73.12668,58,56,0
72.42796,73.12668,41,72,0
72.42796,73.12668,29,59,0
73.31655,73.48049,54,52,0
73.31655,73.48049,66,58,0
73.48049,73.644424,65,58,0
73.48049,73.644424,58,49,0
73.644424,73.827065,63,59,0
73.12668,73.827065,39,68,0
73.12668,73.827065,51,81,0
73.9919,74.15673,54,51,0
73.9919,74.15673,66,62,0
74.15673,74.23915,65,65,0
74.23915,74.32157,64,57,0
74.15673,74.32157,58,54,0
74.32157,74.51937,63,66,0
73.827065,74.51937,49,83,0
73.827065,74.51937,37,70,0
74.69379,74.85595,66,63,0
74.69379,74.85595,54,52,0
74.85595,75.01811,65,63,0
74.85595,75.01811,59,53,0
75.01811,75.19295,63,63,0
74.51937,75.19295,47,87,0
74.51937,75.19295,35,72,0
75.35423,75.515526,54,55,0
75.35423,75.515526,66,65,0
75.515526,75.59617,65,70,0
75.59617,75.67681,64,60,0
75.515526,75.67681,58,58,0
75.67681,75.89056,63,72,0
75.19295,75.89056,46,91,0
75.19295,75.89056,34,75,0
75.89056,75.989456,44,36,0
75.97298,76.05539,45,28,0
76.05539,76.13781,45,28,0
76.13781,76.22023,46,29,0
75.89056,76.22023,32,36,0
76.22023,76.31913,47,29,0
76.30264,76.38506,48,29,0
76.38506,76.46748,47,30,0
76.46748,76.5499,48,30,0
76.5499,76.65119,49,36,0
76.63431,76.71872,50,31,0
76.71872,76.80313,49,32,0
76.80313,76.88754,51,32,0
76.5499,76.88754,37,36,0
76.88754,77.00101,52,33,0
76.9821,77.07665,53,35,0
77.07665,77.15878,52,36,0
77.15878,77.24091,53,36,0
77.24091,77.33981,54,36,0
77.323326,77.40575,55,28,0
77.40575,77.48817,54,28,0
77.48817,77.57058,56,29,0
77.24091,77.57058,42,36,0
77.57058,77.66948,57,29,0
77.653,77.73541,58,29,0
77.73541,77.81783,57,30,0
77.81783,77.90025,58,30,0
77.90025,78.00042,59,36,0
77.98373,78.0672,60,31,0
78.0672,78.150665,59,32,0
78.150665,78.23414,61,32,0
77.90025,78.23414,47,36,0
78.23414,78.3476,62,33,0
78.3287,78.42325,63,35,0
78.42325,78.50538,62,36,0
78.50538,78.58751,63,36,0
78.58751,78.68641,65,36,0
78.66992,78.75234,66,28,0
78.75234,78.83476,65,28,0
78.83476,78.917175,67,29,0
78.58751,78.917175,53,36,0
78.917175,79.016075,68,29,0
78.999596,79.08201,69,29,0
79.08201,79.16443,68,30,0
79.16443,79.24685,69,30,0
79.24685,79.347015,70,36,0
79.33032,79.413795,71,31,0
79.413795,79.49726,70,32,0
79.49726,79.580734,73,32,0
79.24685,79.580734,58,36,0
79.580734,79.67529,74,33,0
79.67529,79.769844,73,35,0
79.769844,79.851974,74,36,0
79.851974,79.934105,70,36,0
79.934105,80.03265,75,33,0
80.01623,80.09836,74,33,0
80.09836,80.18049,73,33,0
80.18049,80.26262,72,33,0
79.934105,80.26262,63,36,0
80.26262,80.36117,71,33,0
80.34475,80.42687,70,33,0
80.42687,80.509,66,33,0
80.509,80.59113,63,33,0
80.59113,80.67325,69,43,0
80.67325,80.7557,68,35,0
80.7557,80.83884,67,36,0
80.83884,80.922676,66,36,0
80.59113,80.922676,59,43,0
80.922676,81.00722,65,45,0
81.00722,81.09236,64,37,0
81.09236,81.17835,63,38,0
81.17835,81.26498,62,38,0
80.922676,81.26498,60,45,0
81.26498,81.35234,49,56,0
81.26498,81.35234,61,56,0
81.614426,81.70178,71,28,0
81.70178,81.78915,74,22,0
81.78915,81.87651,70,28,0
81.87651,81.96387,73,24,0
81.96387,82.05123,71,28,0
82.05123,82.13891,74,25,0
82.13891,82.226974,64,30,0
82.226974,82.31542,67,29,0
82.31542,82.40434,65,30,0
82.40434,82.49371,68,32,0
82.49371,82.58349,58,33,0
82.58349,82.673676,61,36,0
82.673676,82.76819,59,36,0
82.76819,82.86271,62,33,0
82.86271,82.972435,59,39,0
82.972435,83.08217,49,33,0
83.08217,83.17976,57,39,0
83.17976,83.27735,49,32,0
83.27735,83.37495,56,39,0
83.37495,83.47254,49,31,0
83.47254,83.57013,55,39,0
83.57013,83.667725,49,33,0
83.667725,83.76532,54,39,0
83.76532,83.86291,49,32,0
83.86291,83.9605,57,39,0
83.9605,84.0581,49,32,0
84.0581,84.155685,63,39,0
84.155685,84.25328,49,33,0
84.25328,84.350876,61,43,0
84.25328,84.350876,68,43,0
84.44846,84.54606,37,43,0
84.643654,84.73101,59,28,0
84.73101,84.818375,62,22,0
84.818375,84.90574,58,28,0
84.90574,84.993095,61,24,0
84.993095,85.08046,59,28,0
85.08046,85.16782,62,25,0
85.16782,85.25518,52,30,0
85.25518,85.342606,55,29,0
85.342606,85.430855,53,30,0
85.430855,85.5201,56,32,0
85.5201,85.61021,46,33,0
85.61021,85.701416,49,36,0
85.701416,85.79714,47,36,0
85.79714,85.89286,50,33,0
85.89286,86.002594,47,39,0
86.002594,86.11232,37,33,0
86.11232,86.209915,45,39,0
86.209915,86.30751,37,32,0
86.30751,86.4051,44,39,0
86.4051,86.50269,37,31,0
86.50269,86.60029,43,39,0
86.60029,86.697876,37,33,0
86.697876,86.79547,42,39,0
86.79547,86.89307,37,32,0
86.89307,86.990654,45,39,0
86.990654,87.08825,37,32,0
87.08825,87.18577,51,39,0
87.18577,87.28273,37,33,0
87.28273,87.37962,49,39,0
87.37962,87.47596,37,32,0
87.47596,87.57223,47,39,0
87.57223,87.66795,37,32,0
87.66795,87.76345,45,41,0
87.76345,87.858574,37,33,0
87.858574,87.95347,44,41,0
87.95347,88.04799,37,33,0
88.04799,88.142136,43,42,0
88.142136,88.23665,37,35,0
88.23665,88.331985,42,43,0
88.331985,88.428314,37,36,0
88.428314,88.52551,45,44,0
88.52551,88.62357,37,36,0
88.62357,88.722694,51,45,0
88.722694,88.822716,37,36,0
88.822716,89.02447,49,50,0
89.02447,89.11898,47,69,0
89.02447,89.11898,35,58,0
89.2135,89.30802,36,51,0
89.2135,89.30802,48,60,0
89.402534,89.497055,49,60,0
89.402534,89.497055,37,51,0
89.591576,89.68609,50,69,0
89.591576,89.68609,38,58,0
89.78061,89.881485,47,65,0
89.98236,90.07629,48,69,0
90.07629,90.17021,49,64,0
90.17021,90.35806,50,64,0
90.54591,90.640434,59,33,0
90.73495,90.82947,60,28,0
90.92399,91.0185,61,28,0
91.11302,91.20754,62,33,0
91.302055,91.40293,59,30,0
91.50381,91.59773,60,33,0
91.59773,91.69166,61,30,0
91.69166,91.87951,62,30,0
92.08126,92.17578,47,69,0
92.08126,92.17578,35,58,0
92.270294,92.364815,48,60,0
92.270294,92.364815,36,51,0
92.459335,92.55385,37,51,0
92.459335,92.55385,49,60,0
92.64837,92.74289,38,58,0
92.64837,92.74289,50,69,0
92.8374,92.93828,47,65,0
93.039154,93.13308,48,69,0
93.13308,93.227005,49,64,0
93.227005,93.414856,50,64,0
93.61393,93.70844,59,33,0
93.80296,93.897484,60,28,0
93.992,94.08652,61,28,0
94.18104,94.27555,62,33,0
94.37007,94.47095,59,30,0
94.57182,94.66575,60,33,0
94.66575,94.759674,61,30,0
94.759674,94.947525,62,30,0
95.14271,95.232155,62,33,0
95.3216,95.41105,63,28,0
95.500496,95.589935,64,28,0
95.67938,95.76883,65,33,0
95.85828,95.956505,65,30,0
96.05474,96.14472,66,33,0
96.14472,96.2347,67,30,0
96.2347,96.414665,68,30,0
96.414665,96.50203,68,31,0
96.414665,96.50203,83,31,0
96.50203,96.58939,69,25,0
96.50203,96.58939,81,25,0
96.58939,96.67675,70,25,0
96.58939,96.67675,82,25,0
96.67675,96.764114,80,25,0
96.67675,96.764114,71,25,0
96.764114,96.85148,87,31,0
96.764114,96.85148,71,31,0
96.85148,96.938835,84,25,0
96.85148,96.938835,72,25,0
96.938835,97.0262,85,25,0
96.938835,97.0262,73,25,0
97.0262,97.113556,83,25,0
97.0262,97.113556,74,25,0
97.113556,97.19991,88,31,0
97.113556,97.19991,74,31,0
97.19991,97.28627,75,27,0
97.19991,97.28627,87,27,0
97.28627,97.37263,88,27,0
97.28627,97.37263,76,27,0
97.37263,97.458984,77,27,0
97.37263,97.458984,86,27,0
97.458984,97.54534,77,31,0
97.458984,97.54534,92,31,0
97.54534,97.63169,78,27,0
97.54534,97.63169,90,27,0
97.63169,97.71805,79,27,0
97.63169,97.71805,91,27,0
97.71805,97.804405,80,27,0
97.71805,97.804405,89,27,0
97.804405,97.89027,80,32,0
97.804405,97.89027,95,32,0
97.89027,97.97613,81,29,0
97.89027,97.97613,93,29,0
97.97613,98.06199,94,29,0
97.97613,98.06199,82,29,0
98.06199,98.14785,83,29,0
98.06199,98.14785,92,29,0
98.14785,98.23371,95,32,0
98.14785,98.23371,80,32,0
98.23371,98.31957,93,29,0
98.23371,98.31957,81,29,0
98.31957,98.40543,94,29,0
98.31957,98.40543,82,29,0
98.40543,98.491295,83,28,0
98.40543,98.491295,92,28,0
98.491295,98.577156,80,32,0
98.491295,98.577156,95,32,0
98.577156,98.66302,93,29,0
98.577156,98.66302,81,29,0
98.66302,98.74888,94,29,0
98.66302,98.74888,82,29,0
98.74888,98.83475,83,29,0
98.74888,98.83475,92,29,0
98.83475,98.92061,95,32,0
98.83475,98.92061,80,32,0
98.92061,99.00647,81,28,0
98.92061,99.00647,93,28,0
99.00647,99.09233,94,28,0
99.00647,99.09233,82,28,0
99.09233,99.17819,83,28,0
99.09233,99.17819,92,28,0
99.17819,99.26405,95,37,0
99.17819,99.26405,98,37,0
99.17819,99.26405,101,49,0
99.26405,99.349915,94,30,0
99.26405,99.349915,97,30,0
99.349915,99.435776,95,30,0
99.349915,99.435776,98,30,0
99.349915,99.435776,101,37,0
99.435776,99.52164,93,30,0
99.435776,99.52164,96,30,0
99.52164,99.6075,95,37,0
99.52164,99.6075,92,37,0
99.52164,99.6075,98,46,0
99.6075,99.69336,94,30,0
99.6075,99.69336,91,30,0
99.69336,99.77922,92,30,0
99.69336,99.77922,95,30,0
99.69336,99.77922,98,37,0
99.77922,99.86508,93,30,0
99.77922,99.86508,90,30,0
99.86508,99.95094,92,37,0
99.86508,99.95094,89,37,0
99.86508,99.95094,95,48,0
99.95094,100.036804,88,31,0
99.95094,100.036804,91,31,0
100.036804,100.122665,92,31,0
100.036804,100.122665,89,31,0
100.036804,100.122665,95,37,0
100.122665,100.20853,90,31,0
100.122665,100.20853,87,31,0
100.20853,100.29439,89,37,0
100.20853,100.29439,86,37,0
100.20853,100.29439,92,45,0
100.29439,100.38025,88,30,0
100.29439,100.38025,85,30,0
100.38025,100.46611,86,30,0
100.38025,100.46611,89,30,0
100.38025,100.46611,92,37,0
100.46611,100.55192,87,30,0
100.46611,100.55192,84,30,0
100.55192,100.63729,83,33,0
100.55192,100.63729,86,33,0
100.55192,100.63729,89,44,0
100.63729,100.72284,85,27,0
100.63729,100.72284,82,27,0
100.72284,100.8087,86,27,0
100.72284,100.8087,83,27,0
100.72284,100.8087,89,33,0
100.8087,100.89487,84,27,0
100.8087,100.89487,81,27,0
100.89487,100.981224,80,33,0
100.89487,100.981224,83,33,0
100.89487,100.981224,86,42,0
100.981224,101.068016,79,27,0
100.981224,101.068016,82,27,0
101.068016,101.15493,83,27,0
101.068016,101.15493,80,27,0
101.068016,101.15493,86,33,0
101.15493,101.242294,78,27,0
101.15493,101.242294,81,27,0
101.242294,101.32984,80,33,0
101.242294,101.32984,77,33,0
101.242294,101.32984,83,43,0
101.32984,101.41772,76,27,0
101.32984,101.41772,79,27,0
101.41772,101.505905,80,27,0
101.41772,101.505905,77,27,0
101.41772,101.505905,83,33,0
101.505905,101.5943,75,27,0
101.505905,101.5943,78,27,0
101.5943,101.68314,74,33,0
101.5943,101.68314,77,33,0
101.5943,101.68314,80,41,0
101.68314,101.77212,73,27,0
101.68314,101.77212,76,27,0
101.77212,101.861565,74,27,0
101.77212,101.861565,77,27,0
101.77212,101.861565,80,33,0
101.861565,101.95121,75,27,0
101.861565,101.95121,72,27,0
101.95121,102.04119,77,33,0
101.95121,102.04119,74,33,0
101.95121,102.04119,80,33,0
102.04119,102.13117,76,27,0
102.04119,102.13117,73,27,0
102.13117,102.22115,80,27,0
102.13117,102.22115,74,27,0
102.13117,102.22115,77,27,0
102.22115,102.311134,73,27,0
102.22115,102.311134,76,27,0
102.311134,102.401115,80,33,0
102.311134,102.401115,74,33,0
102.311134,102.401115,77,33,0
102.401115,102.4911,76,27,0
102.401115,102.4911,73,27,0
102.4911,102.581085,74,27,0
102.4911,102.581085,77,27,0
102.4911,102.581085,80,27,0
102.581085,102.67107,73,27,0
102.581085,102.67107,76,27,0
102.67107,102.76105,80,33,0
102.67107,102.76105,74,33,0
102.67107,102.76105,77,33,0
102.76105,102.85103,76,27,0
102.76105,102.85103,73,27,0
102.85103,102.94101,74,27,0
102.85103,102.94101,77,27,0
102.85103,102.94101,80,27,0
102.94101,103.03099,76,27,0
102.94101,103.03099,73,27,0
103.03099,103.12097,80,33,0
103.03099,103.12097,77,33,0
103.03099,103.12097,74,33,0
103.12097,103.21095,76,27,0
103.12097,103.21095,73,27,0
103.21095,103.30094,77,27,0
103.21095,103.30094,80,27,0
103.21095,103.30094,74,27,0
103.30094,103.39092,76,27,0
103.30094,103.39092,73,27,0
103.39092,103.4809,77,27,0
103.39092,103.4809,74,27,0
103.39092,103.4809,80,27,0
103.4809,103.570885,78,27,0
103.570885,103.660866,77,27,0
103.660866,103.75107,78,27,0
103.75107,103.84159,77,25,0
103.84159,103.93211,78,25,0
103.93211,104.02264,77,25,0
104.02264,104.11366,78,27,0
104.11366,104.204735,77,27,0
104.204735,104.29581,78,27,0
104.29581,104.38711,77,27,0
104.38711,104.47874,78,27,0
104.47874,104.570366,77,23,0
104.570366,104.662,78,23,0
104.662,104.754135,77,24,0
104.754135,104.84551,78,24,0
105.22811,105.40807,67,30,0
105.40807,105.588036,68,26,0
105.22811,105.588036,62,32,0
105.588036,105.768005,68,30,0
105.768005,105.94797,69,26,0
105.588036,105.94797,61,36,0
105.94797,106.12793,70,35,0
106.12793,106.30789,71,29,0
105.94797,106.30789,56,32,0
106.30789,106.68801,64,36,0
106.30789,106.68801,57,29,0
106.68801,107.05012,64,30,0
106.68801,107.05012,52,24,0
106.68801,107.05012,57,24,0
107.05012,107.42635,52,24,0
107.05012,107.42635,64,30,0
107.05012,107.42635,59,24,0
107.42635,107.78307,56,24,0
107.42635,107.78307,64,30,0
107.78307,108.140854,64,36,0
107.78307,108.140854,57,29,0
108.140854,108.320816,67,30,0
108.320816,108.50078,68,26,0
108.140854,108.50078,62,32,0
108.50078,108.68075,68,30,0
108.68075,108.86071,69,26,0
108.50078,108.86071,61,36,0
108.86071,109.04067,70,35,0
109.04067,109.220634,71,29,0
108.86071,109.220634,56,32,0
109.220634,109.59967,57,29,0
109.220634,109.59967,64,36,0
109.59967,109.9596,64,30,0
109.59967,109.9596,52,24,0
109.59967,109.9596,57,24,0
109.9596,110.33475,59,24,0
109.9596,110.33475,52,24,0
109.9596,110.33475,64,30,0
110.33475,110.691475,64,30,0
110.33475,110.691475,56,24,0
110.691475,111.06812,57,24,0
110.691475,111.06812,64,30,0
111.06812,111.25027,72,30,0
111.25027,111.43242,73,26,0
111.06812,111.43242,67,32,0
111.43242,111.61238,73,30,0
111.61238,111.79235,74,26,0
111.43242,111.79235,65,36,0
111.79235,111.97231,75,35,0
111.97231,112.152275,76,29,0
111.79235,112.152275,61,32,0
112.152275,112.530235,69,36,0
112.152275,112.530235,62,29,0
112.530235,112.88802,62,24,0
112.530235,112.88802,69,30,0
112.530235,112.88802,57,24,0
112.88802,113.26317,69,30,0
112.88802,113.26317,57,24,0
112.88802,113.26317,64,24,0
113.26317,113.61989,61,24,0
113.61989,113.97768,62,29,0
113.26317,113.97768,69,30,0
113.97768,114.15764,72,30,0
114.15764,114.3376,73,26,0
113.97768,114.3376,67,32,0
114.3376,114.51756,73,30,0
114.51756,114.69753,74,26,0
114.3376,114.69753,65,36,0
114.69753,114.877495,75,35,0
114.877495,115.05746,76,29,0
114.69753,115.05746,61,32,0
115.05746,115.43542,62,29,0
115.05746,115.43542,69,36,0
115.43542,115.7932,57,24,0
115.43542,115.7932,62,24,0
115.43542,115.7932,69,30,0
115.7932,116.167274,57,24,0
115.7932,116.167274,64,24,0
115.7932,116.167274,69,30,0
116.167274,116.524,61,24,0
116.524,116.88178,62,29,0
116.167274,116.88178,69,30,0
116.88178,117.24831,45,30,0
116.88178,117.24831,60,36,0
117.24831,117.431564,62,29,0
117.24831,117.431564,46,24,0
117.61483,117.99709,63,35,0
117.61483,117.99709,48,28,0
117.99709,118.182625,50,20,0
117.99709,118.182625,65,25,0
118.38253,118.76994,51,26,0
118.38253,118.76994,66,31,0
118.76994,118.95898,52,21,0
118.76994,118.95898,68,25,0
119.16219,119.35364,63,27,0
119.35364,119.55426,60,23,0
119.16219,119.55426,54,22,0
119.55426,119.651665,64,29,0
119.74907,119.846466,59,25,0
119.55426,119.94921,56,24,0
119.94921,120.04661,66,29,0
120.14401,120.24142,60,24,0
119.94921,120.3478,57,29,0
120.3478,120.445206,68,29,0
120.5426,120.64001,62,24,0
120.3478,120.73741,59,24,0
120.73741,120.834816,60,24,0
120.73741,120.834816,66,29,0
121.135254,121.23479,68,29,0
121.135254,121.23479,62,24,0
121.533394,121.62732,68,37,0
121.533394,121.62732,71,43,0
121.721245,121.81517,62,32,0
121.909096,122.00073,73,46,0
121.909096,122.00073,69,41,0
122.09236,122.18399,61,31,0
122.27562,122.36298,68,41,0
122.27562,122.36298,74,46,0
122.45035,122.537704,59,32,0
122.77437,122.82414,63,36,0
122.82414,122.91358,64,48,0
122.62507,123.00303,73,43,0
122.58139,123.00303,57,38,0
123.00303,123.092476,49,37,0
123.1372,123.18192,66,32,0
123.18192,123.27137,64,45,0
123.36081,123.4508,40,38,0
123.49579,123.54078,63,26,0
123.54078,123.63837,64,42,0
123.73596,123.824875,44,37,0
123.86933,123.913795,65,31,0
123.913795,124.003235,64,42,0
124.09268,124.18213,45,39,0
124.22685,124.271576,63,26,0
124.271576,124.36102,64,43,0
124.45046,124.5421,68,37,0
124.45046,124.5421,71,43,0
124.63373,124.72536,62,32,0
124.816986,124.90643,69,41,0
124.816986,124.90643,73,46,0
124.99588,125.08533,61,31,0
125.174774,125.26213,68,41,0
125.174774,125.26213,74,46,0
125.349495,125.43686,59,32,0
125.67352,125.72329,63,36,0
125.72329,125.81274,64,48,0
125.524216,125.90218,73,43,0
125.493645,125.915596,57,37,0
125.90218,125.99162,49,37,0
126.03635,126.08107,66,32,0
126.08107,126.17052,64,45,0
126.259964,126.349945,40,38,0
126.394936,126.439926,63,26,0
126.439926,126.53752,64,42,0
126.63511,126.72403,44,37,0
126.768486,126.81294,65,31,0
126.81294,126.90239,64,42,0
126.99184,127.081276,45,39,0
127.126,127.17072,63,26,0
127.17072,127.26017,64,43,0
127.34962,127.442955,76,43,0
127.34962,127.442955,73,37,0
127.5363,127.62964,67,32,0
127.722984,127.81351,74,41,0
127.722984,127.81351,77,46,0
127.90403,127.99456,65,31,0
128.08508,128.17561,79,46,0
128.08508,128.17561,73,41,0
128.26613,128.35666,64,32,0
128.59348,128.64325,68,36,0
128.64325,128.73378,69,48,0
128.44717,128.8243,77,43,0
128.44717,128.8243,62,43,0
128.8243,128.91483,53,37,0
128.95901,129.00322,70,32,0
129.00322,129.09161,69,45,0
129.18,129.26945,45,38,0
129.31444,129.35944,68,26,0
129.35944,129.45448,69,42,0
129.55208,129.64389,49,37,0
129.68834,129.7328,70,31,0
129.7328,129.82207,69,42,0
129.91151,130.00096,50,39,0
130.04568,130.09041,68,26,0
130.09041,130.17986,69,43,0
130.2693,130.36322,73,37,0
130.2693,130.36322,76,43,0
130.45715,130.55107,67,32,0
130.645,130.73608,77,46,0
130.645,130.73608,74,41,0
130.82715,130.91823,65,31,0
131.00931,131.09769,79,46,0
131.00931,131.09769,73,41,0
131.18608,131.27448,64,32,0
131.50845,131.55823,68,36,0
131.55823,131.65103,69,48,0
131.36287,131.74048,77,43,0
131.36287,131.74048,62,43,0
131.74048,131.82993,53,37,0
131.87465,131.91937,70,32,0
131.91937,132.00882,69,45,0
132.09827,132.18806,45,38,0
132.23305,132.27805,68,26,0
132.27805,132.37311,69,42,0
132.47069,132.5625,49,37,0
132.60696,132.65141,70,31,0
132.65141,132.74069,69,42,0
132.83012,132.91957,50,39,0
133.22226,133.31966,41,44,0
133.31966,133.41707,42,36,0
133.41707,133.51447,41,36,0
133.51447,133.61186,42,36,0
133.22226,133.61186,29,44,0
133.61186,133.70927,53,45,0
133.70927,133.80667,54,38,0
133.80667,133.90408,53,38,0
133.90408,134.00148,54,38,0
133.61186,134.00148,41,45,0
134.00148,134.09888,65,45,0
134.09888,134.19629,66,38,0
134.19629,134.29369,65,37,0
134.29369,134.40732,66,37,0
134.00148,134.40732,53,45,0
134.40732,134.50621,65,46,0
134.50621,134.60509,67,37,0
134.60509,134.70396,65,37,0
134.81111,134.90851,41,47,0
134.90851,135.0059,42,39,0
135.0059,135.10332,41,39,0
135.10332,135.20071,42,39,0
134.81111,135.20071,29,47,0
135.20071,135.29813,53,48,0
135.29813,135.39552,54,40,0
135.39552,135.49292,53,40,0
135.49292,135.59033,54,40,0
135.20071,135.59033,41,48,0
135.59033,135.68773,65,48,0
135.68773,135.78513,66,40,0
135.78513,135.88254,65,39,0
135.88254,135.99617,66,39,0
135.59033,135.99617,53,48,0
135.99617,136.09505,65,49,0
136.09505,136.19392,67,40,0
136.19392,136.29282,65,40,0
136.39995,136.49448,46,56,0
136.49448,136.58899,47,47,0
136.58899,136.6835,46,47,0
136.6835,136.77803,47,47,0
136.39995,136.77803,34,56,0
136.77803,136.87254,58,57,0
136.87254,136.96706,59,50,0
136.96706,137.06158,58,50,0
137.06158,137.1561,59,51,0
136.77803,137.1561,46,57,0
137.1561,137.25061,70,57,0
137.25061,137.34514,71,51,0
137.34514,137.43965,70,44,0
137.43965,137.55328,71,44,0
137.1561,137.55328,58,57,0
137.55328,137.65025,70,58,0
137.95131,138.04584,46,66,0
138.04584,138.14035,47,54,0
138.14035,138.23486,46,54,0
138.23486,138.32939,47,54,0
137.95131,138.32939,34,66,0
138.32939,138.4239,58,67,0
138.4239,138.51842,59,58,0
138.51842,138.61295,58,58,0
138.61295,138.70746,59,59,0
138.32939,138.70746,46,67,0
138.70746,138.80197,70,67,0
138.80197,138.8965,71,59,0
138.8965,138.99101,70,51,0
138.99101,139.10464,71,51,0
138.70746,139.10464,58,67,0
139.10464,139.20161,70,68,0
139.50267,139.5966,34,77,0
139.50267,139.5966,46,93,0
139.69054,139.78445,54,82,0
139.69054,139.78445,42,70,0
139.87839,139.9723,47,97,0
139.87839,139.9723,35,81,0
140.06624,140.16016,42,70,0
140.06624,140.16016,54,83,0
140.25409,140.348,37,81,0
140.25409,140.348,49,96,0
140.44194,140.53586,54,87,0
140.44194,140.53586,42,75,0
140.6495,140.74646,51,96,0
140.6495,140.74646,39,81,0
140.84343,140.9418,54,90,0
140.84343,140.9418,42,76,0
141.04247,141.14247,40,81,0
141.04247,141.14247,52,96,0
141.24196,141.34079,46,77,0
141.24196,141.34079,55,91,0
141.43915,141.53685,49,76,0
141.43915,141.53685,58,90,0
141.6341,141.73087,52,76,0
141.6341,141.73087,61,92,0
141.82732,141.92346,55,77,0
141.82732,141.92346,64,91,0
142.01901,142.11423,58,77,0
142.01901,142.11423,67,91,0
142.20917,142.30411,70,86,0
142.20917,142.30411,61,72,0
142.39905,142.49353,73,80,0
142.39905,142.49353,64,67,0
142.58879,142.68527,76,73,0
142.78302,142.88205,64,68,0
142.9824,143.08394,73,63,0
143.18634,143.28983,61,57,0
143.395,143.50368,70,53,0
143.61635,143.74345,58,45,0
143.87166,144.0824,62,29,0
144.29312,144.72517,59,22,0
144.72517,145.14665,60,22,0
144.29312,145.14665,53,18,0
145.14665,145.25201,40,33,0
145.25201,145.35738,41,29,0
145.35738,145.46275,40,35,0
145.56812,145.67348,53,29,0
145.46275,145.67348,41,29,0
145.98958,146.42163,59,22,0
146.42163,146.8431,60,22,0
145.98958,146.8431,53,18,0
146.8431,146.94847,40,33,0
146.94847,147.05383,41,29,0
147.05383,147.1592,40,35,0
147.26457,147.36993,53,29,0
147.1592,147.36993,41,29,0
147.68604,148.11809,47,22,0
147.6913,148.12335,50,22,0
148.11809,148.53955,48,22,0
147.68604,148.53955,41,18,0
148.12335,148.54483,51,22,0
148.53955,148.64493,42,33,0
148.64493,148.75029,41,29,0
148.75029,148.85565,42,35,0
148.85565,148.97104,41,29,0
148.97104,149.20181,50,30,0
148.97104,149.20181,34,38,0
148.97104,149.20181,58,38,0
149.20181,149.29941,53,20,0
149.20181,149.29941,50,20,0
149.20181,149.29941,58,26,0
149.39699,149.49333,50,17,0
149.39699,149.49333,53,17,0
149.39699,149.49333,58,22,0
149.58968,149.68602,58,22,0
149.58968,149.68602,50,17,0
149.58968,149.68602,53,17,0
149.78235,149.8787,53,20,0
149.78235,149.8787,58,25,0
149.78235,149.8787,50,20,0
149.97504,150.08397,58,22,0
149.97504,150.08397,53,17,0
149.97504,150.08397,50,17,0
150.1929,150.29048,58,22,0
150.1929,150.29048,50,17,0
150.1929,150.29048,53,17,0
150.58327,150.81458,32,44,0
150.81458,150.91345,62,26,0
150.81458,150.91345,58,20,0
150.81458,150.91345,53,20,0
151.01233,151.1112,62,22,0
151.01233,151.1112,58,17,0
151.01233,151.1112,53,17,0
151.21008,151.30896,53,17,0
151.21008,151.30896,62,22,0
151.21008,151.30896,58,17,0
151.40785,151.50673,58,20,0
151.40785,151.50673,62,25,0
151.40785,151.50673,53,20,0
151.6056,151.72125,58,17,0
151.6056,151.72125,62,22,0
151.6056,151.72125,53,17,0
151.83691,151.93987,62,22,0
151.83691,151.93987,58,17,0
151.83691,151.93987,53,17,0
152.2451,152.48003,30,45,0
152.48003,152.58159,54,20,0
152.48003,152.58159,61,20,0
152.48003,152.58159,64,26,0
152.68314,152.78334,54,17,0
152.68314,152.78334,64,22,0
152.68314,152.78334,61,17,0
152.88354,152.98373,54,17,0
152.88354,152.98373,61,17,0
152.88354,152.98373,64,22,0
153.08394,153.18414,54,20,0
153.08394,153.18414,61,20,0
153.08394,153.18414,64,25,0
153.28435,153.39488,61,17,0
153.28435,153.39488,64,22,0
153.28435,153.39488,54,17,0
153.50542,153.60837,54,17,0
153.50542,153.60837,61,17,0
153.50542,153.60837,64,22,0
153.9199,154.1792,29,42,0
154.1792,154.29666,63,20,0
154.1792,154.29666,66,26,0
154.1792,154.29666,57,20,0
154.41412,154.52466,57,17,0
154.41412,154.52466,65,22,0
154.41412,154.52466,63,17,0
154.6352,154.74573,65,22,0
154.6352,154.74573,63,17,0
154.6352,154.74573,57,17,0
154.85628,154.97192,57,20,0
154.85628,154.97192,63,20,0
154.85628,154.97192,65,25,0
155.08757,155.22432,65,22,0
155.08757,155.22432,63,17,0
155.08757,155.22432,60,20,0
155.36105,155.47852,65,22,0
155.36105,155.47852,63,17,0
155.90303,156.1338,34,46,0
156.1338,156.22433,65,26,0
156.1338,156.22433,58,20,0
156.31485,156.40593,53,17,0
156.31485,156.40593,65,22,0
156.49701,156.59093,65,22,0
156.49701,156.59093,58,17,0
156.68486,156.77878,53,20,0
156.68486,156.77878,65,25,0
156.87271,156.97566,65,22,0
156.87271,156.97566,58,17,0
157.07861,157.26646,53,20,0
157.07861,157.26646,65,22,0
157.45432,157.68509,32,46,0
157.68509,157.7756,70,26,0
157.68509,157.7756,62,20,0
157.86613,157.95776,56,17,0
157.86613,157.95776,70,22,0
158.0517,158.14561,70,22,0
158.0517,158.14561,62,17,0
158.23955,158.33347,70,25,0
158.23955,158.33347,56,20,0
158.4274,158.53035,70,22,0
158.4274,158.53035,62,17,0
158.6333,158.82115,70,22,0
158.6333,158.82115,56,20,0
159.023,159.20934,30,46,0
159.023,159.20934,42,46,0
159.20934,159.3102,64,22,0
159.20934,159.3102,61,17,0
159.20934,159.3102,54,17,0
159.41107,159.59892,58,21,0
159.41107,159.59892,61,21,0
159.41107,159.59892,64,23,0
159.80397,159.99147,47,52,0
159.80397,159.99147,35,52,0
159.99147,160.09235,69,26,0
159.99147,160.09235,66,20,0
159.99147,160.09235,59,20,0
160.19322,160.38107,66,24,0
160.19322,160.38107,69,26,0
160.19322,160.38107,63,24,0
160.56892,160.77655,41,59,0
160.56892,160.77655,29,59,0
160.77655,160.87779,53,46,0
160.87779,160.97867,52,39,0
160.97867,161.0789,54,46,0
161.0789,161.1788,53,39,0
161.1788,161.27835,55,46,0
161.27835,161.37726,54,39,0
161.37726,161.47585,56,46,0
161.47585,161.57408,55,40,0
161.57408,161.6717,57,46,0
161.6717,161.76901,56,40,0
161.76901,161.86597,58,46,0
161.86597,161.96234,57,40,0
161.96234,162.05841,59,46,0
162.05841,162.15413,58,40,0
162.15413,162.24928,60,46,0
162.24928,162.34439,59,46,0
162.34439,162.43951,61,46,0
162.43951,162.53462,60,42,0
162.53462,162.62975,62,48,0
162.62975,162.72487,61,42,0
162.72487,162.81998,63,49,0
162.81998,162.9151,62,46,0
162.9151,163.01079,64,50,0
163.01079,163.10664,63,46,0
163.10664,163.20297,65,54,0
163.20297,163.29976,64,48,0
163.29976,163.39671,66,57,0
163.39671,163.49428,65,53,0
163.49428,163.59216,67,58,0
163.59216,163.69038,66,55,0
163.69038,163.78923,68,62,0
163.78923,163.8881,67,53,0
163.8881,163.987,69,58,0
163.987,164.08588,68,50,0
164.08588,164.18475,70,54,0
164.18475,164.28363,69,48,0
164.28363,164.3825,72,50,0
164.3825,164.48138,69,42,0
164.48138,164.58028,68,38,0
164.58028,164.67915,71,35,0
164.67915,164.77803,69,38,0
164.77803,164.8769,72,33,0
164.8769,164.97578,68,38,0
164.97578,165.07466,71,35,0
165.07466,165.17354,69,38,0
165.17354,165.27243,72,35,0
165.27243,165.37051,68,38,0
165.37051,165.46819,71,35,0
165.46819,165.5664,69,37,0
165.5664,165.6652,72,32,0
165.6652,165.76448,68,36,0
165.76448,165.86427,71,31,0
165.86427,165.96454,69,36,0
165.96454,166.06541,72,30,0
166.06541,166.16739,68,35,0
166.16739,166.27132,71,29,0
166.27132,166.37744,69,33,0
166.37744,166.48567,72,28,0
166.48567,166.59619,68,32,0
166.59619,166.70836,71,27,0
166.70836,166.8451,69,31,0
166.8451,166.98183,72,26,0
166.98183,167.23038,70,30,0
168.82571,168.91791,62,43,0
167.87656,169.0101,59,30,0
167.87656,169.0101,50,30,0
167.87656,169.0101,56,30,0
169.0101,169.10287,61,43,0
169.19563,169.2884,60,43,0
169.0101,169.38116,53,30,0
169.0101,169.38116,56,30,0
169.38116,169.47392,59,43,0
169.5667,169.6669,62,43,0
169.38116,169.76709,55,30,0
169.38116,169.76709,50,30,0
169.76709,169.86102,61,43,0
169.86102,169.95494,60,43,0
169.95494,170.04887,59,43,0
169.76709,170.14279,55,30,0
169.76709,170.14279,53,30,0
170.14279,170.33066,57,28,0
170.14279,170.33066,54,28,0
170.14279,170.33066,50,28,0
170.14279,170.33066,62,36,0
171.65755,171.84193,63,36,0
171.65755,171.84193,48,28,0
171.65755,171.84193,55,28,0
172.3951,172.5795,41,28,0
172.3951,172.5795,48,28,0
172.3951,172.5795,57,36,0
172.3951,172.5795,51,28,0
173.11581,173.24626,62,36,0
173.09698,173.24626,53,28,0
173.07814,173.24626,46,28,0
173.52455,173.644,38,35,0
173.62408,173.74353,39,35,0
173.72363,173.84306,38,35,0
173.82317,173.94121,40,35,0
173.92218,174.03633,41,36,0
174.0173,174.13144,42,36,0
174.11241,174.22656,41,36,0
174.20753,174.32167,43,36,0
174.30266,174.4168,44,36,0
174.39777,174.51192,45,36,0
174.49289,174.60703,44,37,0
174.588,174.7029,46,37,0
174.68312,174.80177,47,37,0
174.782,174.89943,48,37,0
174.88087,174.9922,47,38,0
174.97365,175.08496,49,38,0
175.0664,175.17772,50,38,0
175.15918,175.2705,51,39,0
175.25194,175.36325,50,39,0
175.3447,175.45602,52,39,0
175.43747,175.54878,53,39,0
175.53023,175.64304,54,38,0
175.623,175.74324,53,38,0
175.72319,175.84218,55,38,0
175.8234,175.93611,56,38,0
175.91733,176.03003,57,39,0
176.01125,176.12396,56,39,0
176.10518,176.21841,59,39,0
176.19951,176.31293,62,33,0
176.29402,176.40744,63,35,0
176.38853,176.50188,62,35,0
176.19951,176.57703,50,33,0
176.48306,176.59581,65,35,0
176.57703,176.68973,66,35,0
176.67094,176.78366,67,35,0
176.76488,176.87737,66,35,0
176.85869,176.9707,68,35,0
176.95204,177.06404,69,36,0
177.04538,177.1574,70,36,0
177.13872,177.25037,69,36,0
177.23181,177.34312,73,36,0
177.32457,177.4359,74,36,0
177.41734,177.52866,73,36,0
177.5101,177.6238,74,36,0
177.60248,177.72752,73,36,0
177.70909,177.81972,72,38,0
177.80128,177.91191,71,33,0
177.89348,178.0041,72,33,0
177.70909,178.07787,60,45,0
177.98567,178.0963,70,33,0
178.07787,178.18849,69,33,0
178.17006,178.2807,67,33,0
178.26225,178.3729,68,33,0
178.35445,178.46509,66,33,0
178.44664,178.55728,65,38,0
178.53883,178.64948,64,33,0
178.63103,178.74167,65,33,0
178.44664,178.81541,53,45,0
178.72322,178.83386,63,33,0
178.81541,178.92606,62,33,0
178.90761,179.01825,61,33,0
178.9998,179.11333,60,33,0
179.09201,179.17729,59,33,0
179.19861,179.29138,58,49,0
179.19861,179.29138,46,41,0
179.38414,179.47768,53,26,0
179.38414,179.47768,58,22,0
179.47768,179.57123,62,25,0
179.57123,179.66476,54,25,0
179.57123,179.66476,58,21,0
179.66476,179.7583,62,25,0
179.7583,179.85184,55,25,0
179.7583,179.85184,58,21,0
179.85184,179.94537,62,25,0
179.94537,180.04514,54,30,0
179.94537,180.04514,58,25,0
180.04514,180.13696,62,22,0
180.13696,180.2245,58,25,0
180.13696,180.2245,53,30,0
180.2245,180.31203,62,21,0
180.31203,180.40796,54,30,0
180.31203,180.40796,58,25,0
180.40796,180.50389,62,25,0
180.50389,180.59982,55,30,0
180.50389,180.59982,58,25,0
180.59982,180.66379,62,22,0
180.69576,180.84088,63,30,0
180.67978,180.84088,57,30,0
180.66379,180.84088,54,30,0
180.97514,181.05513,78,41,0
180.97514,181.05513,81,41,0
181.13554,181.21649,74,39,0
181.13554,181.21649,71,39,0
181.2979,181.37973,75,38,0
181.2979,181.37973,72,38,0
181.46214,181.545,65,38,0
181.46214,181.545,68,38,0
181.62831,181.71222,66,37,0
181.62831,181.71222,69,37,0
181.79659,181.88152,59,36,0
181.79659,181.88152,62,36,0
181.96698,182.05292,63,36,0
181.96698,182.05292,60,36,0
182.13948,182.39954,41,45,0
182.39954,182.49307,53,26,0
182.39954,182.49307,58,22,0
182.49307,182.58662,62,25,0
182.58662,182.68016,54,25,0
182.58662,182.68016,58,21,0
182.68016,182.7737,62,25,0
182.7737,182.86723,55,25,0
182.7737,182.86723,58,21,0
182.86723,182.96077,62,25,0
182.96077,183.06053,58,25,0
182.96077,183.06053,54,30,0
183.06053,183.15236,62,22,0
183.15236,183.2399,58,25,0
183.15236,183.2399,53,30,0
183.2399,183.32742,62,21,0
183.32742,183.42336,54,30,0
183.32742,183.42336,58,25,0
183.42336,183.51929,62,25,0
183.51929,183.61522,55,30,0
183.51929,183.61522,58,25,0
183.61522,183.71115,62,22,0
183.71115,183.85628,63,30,0
183.69518,183.85628,57,25,0
183.67918,183.85628,54,25,0
183.99013,184.06757,81,41,0
183.99013,184.06757,78,35,0
184.14526,184.22328,74,39,0
184.14526,184.22328,71,33,0
184.30159,184.38025,75,38,0
184.30159,184.38025,72,32,0
184.45929,184.53865,65,32,0
184.45929,184.53865,68,38,0
184.61832,184.6983,66,31,0
184.61832,184.6983,69,37,0
184.77864,184.85938,59,30,0
184.77864,184.85938,62,36,0
184.94044,185.02185,60,29,0
184.94044,185.02185,63,36,0
185.10349,185.24861,51,36,0
185.10349,185.24861,57,43,0
185.39374,185.54498,81,37,0
185.39374,185.54498,84,45,0
185.54498,185.69653,74,36,0
185.54498,185.69653,77,43,0
185.69653,185.84882,78,42,0
185.69653,185.84882,75,35,0
185.84882,186.00156,68,35,0
185.84882,186.00156,70,42,0
186.00156,186.15474,69,35,0
186.00156,186.15474,72,41,0
186.15474,186.3086,65,39,0
186.15474,186.3086,62,33,0
186.3086,186.5003,66,38,0
186.3086,186.5003,63,32,0
186.5003,186.64543,46,36,0
186.5003,186.64543,54,36,0
186.5003,186.64543,60,43,0
186.79056,186.94179,87,45,0
186.79056,186.94179,84,37,0
186.94179,187.09334,80,43,0
186.94179,187.09334,77,36,0
187.09334,187.24562,78,35,0
187.09334,187.24562,81,42,0
187.24562,187.39838,87,35,0
187.24562,187.39838,90,42,0
187.39838,187.55156,80,35,0
187.39838,187.55156,83,41,0
187.55156,187.70541,84,39,0
187.55156,187.70541,81,33,0
187.70541,187.86218,93,38,0
187.70541,187.86218,90,32,0
187.86218,188.01868,86,39,0
187.86218,188.01868,83,39,0
188.01868,188.17517,84,35,0
188.01868,188.17517,87,35,0
188.17517,188.33167,83,39,0
188.17517,188.33167,80,39,0
188.33167,188.48816,84,33,0
188.33167,188.48816,81,33,0
188.48816,188.64749,83,39,0
188.48816,188.64749,80,39,0
188.64749,188.80908,81,32,0
188.64749,188.80908,84,32,0
188.80908,188.97307,83,39,0
188.80908,188.97307,80,39,0
188.97307,189.13943,81,35,0
188.97307,189.13943,84,35,0
189.13943,189.42326,86,39,0
189.13943,189.42326,82,39,0
195.16817,195.40538,77,24,0
195.12863,195.40538,70,22,0
195.0891,195.40538,65,20,0
195.99414,196.04358,62,32,0
195.9447,196.04358,53,28,0
195.89526,196.04358,46,24,0
