start_time,end_time,note_value,velocity,instrument_program_number
0.631995,0.75010526,81,61,0
0.5726282,0.75010526,64,44,0
0.5924171,0.75010526,69,48,0
0.61220604,0.75010526,72,53,0
1.0528744,1.138812,69,48,0
1.1466244,1.2647347,69,57,0
1.2647347,1.382845,72,54,0
1.382845,1.495627,71,57,0
1.495627,1.608409,69,54,0
1.7394135,1.8575238,88,59,0
1.6902868,1.8575238,71,45,0
1.7066624,1.8575238,76,49,0
1.723038,1.8575238,80,53,0
2.161127,2.2470646,64,48,0
2.254877,2.3729873,64,57,0
2.3729873,2.4910975,68,54,0
2.4910975,2.6038795,66,57,0
2.6038795,2.7166615,64,54,0
2.8473804,2.9654908,81,59,0
2.7983608,2.9654908,64,44,0
2.8147008,2.9654908,69,47,0
2.8310406,2.9654908,72,51,0
3.270809,3.3567464,69,48,0
3.364559,3.4826694,69,57,0
3.4826694,3.6007795,72,54,0
3.6007795,3.7188897,71,57,0
3.7188897,3.837,69,54,0
3.9482286,4.092324,88,54,0
3.916449,4.092324,71,48,0
3.932339,4.092324,80,51,0
3.9641185,4.4769397,76,63,0
4.4769397,4.605145,64,62,0
5.1204796,5.2414474,81,45,0
5.07146,5.2414474,64,36,0
5.0877995,5.2414474,69,40,0
5.10414,5.2414474,72,42,0
5.550209,5.6361465,69,36,0
5.643959,5.762069,69,43,0
5.762069,5.8801794,72,40,0
5.8801794,5.9929614,71,43,0
5.9929614,6.1057434,69,40,0
6.2364626,6.354573,88,44,0
6.187443,6.354573,71,36,0
6.2037826,6.354573,76,39,0
6.220123,6.354573,80,41,0
6.6607723,6.74671,64,36,0
6.7545223,6.872633,64,43,0
6.872633,6.990743,68,40,0
6.990743,7.104379,66,43,0
7.104379,7.2180157,64,40,0
7.3484507,7.466561,81,44,0
7.299537,7.466561,64,36,0
7.3158417,7.466561,69,39,0
7.332146,7.466561,72,41,0
7.7727604,7.858698,69,36,0
7.8665104,7.9846206,69,43,0
7.9846206,8.102731,72,40,0
8.102731,8.220841,71,43,0
8.220841,8.338951,69,40,0
8.448326,8.592156,88,43,0
8.417076,8.592156,71,36,0
8.432701,8.592156,80,41,0
8.463951,8.976772,76,53,0
8.976772,9.104978,64,53,0
9.6200285,9.731139,93,61,0
9.5711155,9.731139,76,46,0
9.5874195,9.731139,81,50,0
9.6037245,9.731139,85,53,0
10.025287,10.111224,81,48,0
10.119037,10.237146,81,57,0
10.237146,10.350782,82,54,0
10.350782,10.464419,81,57,0
10.464419,10.578055,79,54,0
10.704639,10.82275,89,61,0
10.657371,10.82275,69,45,0
10.673127,10.82275,77,49,0
10.688884,10.82275,81,52,0
11.12895,11.214888,74,48,0
11.2227,11.336336,74,57,0
11.336336,11.449972,77,54,0
11.449972,11.563608,76,57,0
11.563608,11.677245,74,54,0
11.807963,11.926074,91,61,0
11.7589445,11.926074,74,45,0
11.775284,11.926074,79,48,0
11.791624,11.926074,83,52,0
12.22722,12.313157,79,48,0
12.32097,12.433752,79,57,0
12.433752,12.546534,81,54,0
12.546534,12.659316,79,57,0
12.659316,12.772098,77,54,0
12.897621,13.015731,88,61,0
12.85055,13.015731,67,45,0
12.8662405,13.015731,76,48,0
12.88193,13.015731,79,52,0
13.322228,13.408166,72,48,0
13.415978,13.534089,72,51,0
13.534089,13.652199,76,48,0
13.652199,13.764139,74,50,0
13.764139,13.87608,72,47,0
14.006515,14.124625,89,53,0
13.957602,14.124625,71,39,0
13.973906,14.124625,77,42,0
13.990211,14.124625,83,45,0
14.431422,14.51736,71,40,0
14.525172,14.64236,71,47,0
14.64236,14.759547,74,45,0
14.759547,14.876735,72,47,0
14.876735,14.993922,71,44,0
15.125213,15.243323,88,48,0
15.075979,15.243323,69,36,0
15.09239,15.243323,76,39,0
15.108802,15.243323,81,42,0
15.551337,15.637275,69,40,0
15.645087,15.763198,69,48,0
15.763198,15.881308,72,45,0
15.881308,15.999418,71,48,0
15.999418,16.144346,69,45,0
16.523172,16.6571,75,40,0
16.144346,16.6571,65,52,0
16.791029,16.924957,76,40,0
16.924957,17.055391,74,46,0
17.055391,17.231863,71,40,0
16.6571,17.231863,64,46,0
17.231863,17.765196,69,45,0
17.231863,17.765196,64,45,0
17.765196,17.89853,72,40,0
17.765196,17.89853,81,40,0
18.4771,18.601067,93,45,0
18.410135,18.601067,76,36,0
18.432457,18.601067,81,40,0
18.454779,18.601067,85,42,0
18.907068,18.971321,81,36,0
18.977161,19.097643,81,43,0
19.097643,19.218126,82,40,0
19.218126,19.338608,81,43,0
19.338608,19.45909,79,40,0
19.637661,19.762661,89,45,0
19.570696,19.762661,69,36,0
19.593018,19.762661,77,40,0
19.61534,19.762661,81,42,0
20.064898,20.12915,74,36,0
20.13499,20.254038,74,43,0
20.254038,20.373085,77,40,0
20.373085,20.492134,76,43,0
20.492134,20.611181,74,40,0
20.757528,20.883053,91,45,0
20.702648,20.883053,74,36,0
20.720942,20.883053,79,40,0
20.739235,20.883053,83,42,0
21.189247,21.256649,79,36,0
21.262777,21.382776,79,43,0
21.382776,21.502777,81,40,0
21.502777,21.622776,79,43,0
21.622776,21.742777,77,40,0
21.921349,22.0474,88,45,0
21.854383,22.0474,67,36,0
21.876705,22.0474,76,40,0
21.899027,22.0474,79,42,0
22.348465,22.410683,72,36,0
22.416338,22.534449,72,46,0
22.534449,22.65256,76,44,0
22.65256,22.77067,74,46,0
22.77067,22.888779,72,44,0
23.043427,23.17001,89,50,0
23.024096,23.17001,77,44,0
23.004765,23.17001,70,40,0
23.46521,23.52156,70,39,0
23.526684,23.644794,70,46,0
23.644794,23.762905,74,44,0
23.762905,23.881016,72,46,0
23.881016,23.999126,70,44,0
24.177696,24.30322,88,50,0
24.155376,24.30322,76,44,0
24.133055,24.30322,69,40,0
24.629635,24.715572,69,37,0
24.723385,24.847353,69,45,0
24.847353,24.97132,72,42,0
24.97132,25.095287,71,45,0
25.095287,25.240213,69,42,0
25.629461,25.773693,75,37,0
25.240213,25.773693,65,45,0
25.928347,26.083002,76,37,0
26.083002,26.216944,74,44,0
26.216944,26.451355,71,37,0
25.773693,26.451355,64,44,0
26.451355,27.125587,69,43,0
26.451355,27.125587,64,43,0
27.125587,27.339874,72,37,0
27.125587,27.339874,81,37,0
27.807816,27.847185,72,41,0
27.847185,27.886555,81,45,0
27.886555,27.977648,88,58,0
28.048498,28.167065,84,49,0
28.204659,28.32524,81,49,0
28.366734,28.486256,76,52,0
28.526096,28.645618,72,48,0
28.68546,28.767317,69,48,0
28.767317,28.809334,68,41,0
28.809334,28.85135,76,45,0
28.85135,28.942076,83,61,0
29.01264,29.130598,80,54,0
29.167912,29.288559,76,53,0
29.330225,29.449747,71,52,0
29.489588,29.60911,68,45,0
29.64895,29.73046,64,45,0
29.73046,29.772125,72,41,0
29.772125,29.813791,81,45,0
29.813791,29.904154,88,58,0
29.974434,30.092491,84,49,0
30.130228,30.250267,81,49,0
30.29142,30.410942,76,52,0
30.450783,30.570305,72,48,0
30.610146,30.753078,69,48,0
30.99154,31.138763,76,49,0
30.99154,31.138763,68,49,0
31.192526,31.353817,80,46,0
31.192526,31.353817,71,46,0
31.40758,31.56887,76,44,0
31.40758,31.56887,88,44,0
31.91953,31.9589,72,32,0
31.9589,31.99827,81,36,0
31.99827,32.089363,88,46,0
32.160213,32.27755,84,39,0
32.31391,32.433266,81,39,0
32.47476,32.59428,76,41,0
32.63412,32.753643,72,38,0
32.793484,32.882103,69,38,0
32.882103,32.930885,68,32,0
32.930885,32.979664,76,36,0
32.979664,33.0686,83,48,0
33.137768,33.25413,80,43,0
33.291447,33.412094,76,42,0
33.45376,33.57328,71,41,0
33.61312,33.732643,68,36,0
33.772484,33.861343,64,36,0
33.861343,33.910366,72,32,0
33.910366,33.959385,81,36,0
33.959385,34.049747,88,46,0
34.120026,34.238083,84,39,0
34.27582,34.39586,81,39,0
34.43701,34.556534,76,41,0
34.595444,34.712177,72,38,0
34.751087,34.91195,69,38,0
35.1625,35.312534,76,39,0
35.1625,35.312534,68,39,0
35.367783,35.533527,80,36,0
35.367783,35.533527,71,36,0
35.588776,35.75452,76,35,0
35.588776,35.75452,88,35,0
36.188377,36.279472,93,58,0
36.15885,36.279472,85,45,0
36.129322,36.279472,81,41,0
36.350323,36.468887,88,49,0
36.50648,36.627064,85,49,0
36.668556,36.78808,81,52,0
36.82792,36.94744,76,48,0
36.98728,37.111156,73,48,0
37.31446,37.432423,74,54,0
37.31446,37.432423,69,45,0
37.469734,37.59038,77,53,0
37.469734,37.59038,74,45,0
37.63205,37.75157,81,52,0
37.63205,37.75157,77,44,0
37.791412,37.910934,86,48,0
37.791412,37.910934,81,40,0
37.950775,38.05159,89,49,0
37.950775,38.05159,86,41,0
38.212513,38.303604,91,58,0
38.186424,38.303604,83,50,0
38.16034,38.303604,79,47,0
38.374454,38.493023,86,49,0
38.530617,38.651196,83,49,0
38.69269,38.812214,79,52,0
38.852055,38.971577,74,48,0
39.011417,39.135292,71,48,0
39.338596,39.456554,72,54,0
39.338596,39.456554,67,45,0
39.49387,39.614517,76,53,0
39.49387,39.614517,72,45,0
39.65618,39.775703,79,52,0
39.65618,39.775703,76,44,0
39.815544,39.935066,84,48,0
39.815544,39.935066,79,40,0
39.974907,40.106415,88,49,0
39.974907,40.106415,84,41,0
40.156414,40.24939,89,46,0
40.156414,40.24939,83,39,0
40.321705,40.441944,86,39,0
40.321705,40.441944,80,33,0
40.479538,40.60012,83,39,0
40.479538,40.60012,77,33,0
40.641613,40.761135,80,41,0
40.641613,40.761135,74,35,0
40.800976,40.920498,77,38,0
40.800976,40.920498,71,32,0
40.96034,41.048958,74,38,0
41.048958,41.09774,76,32,0
41.09774,41.14652,81,36,0
41.14652,41.237247,88,48,0
41.30781,41.42577,84,43,0
41.46308,41.58373,81,42,0
41.625397,41.74492,76,41,0
41.78476,41.90428,72,38,0
41.944122,42.082,69,39,0
42.30196,42.43017,71,39,0
42.30196,42.43017,63,33,0
42.4729,42.612255,69,36,0
42.4729,42.612255,75,36,0
42.836002,42.970234,68,33,0
42.836002,42.970234,76,39,0
43.016747,43.175617,71,30,0
43.016747,43.175617,80,36,0
43.426918,43.590267,72,33,0
43.426918,43.590267,81,39,0
43.65606,43.87933,84,36,0
43.65606,43.87933,76,30,0
43.95807,44.19429,93,45,0
43.95807,44.19429,81,38,0
45.3193,45.38779,46,54,0
45.378212,45.502754,45,58,0
45.49317,45.617714,47,48,0
45.60813,45.733036,48,51,0
45.72309,45.842407,50,47,0
46.26018,46.328518,53,52,0
46.31909,46.4415,52,56,0
46.432224,46.55286,50,48,0
46.543583,46.666206,48,51,0
46.654938,46.79016,47,47,0
47.21869,47.28703,46,48,0
47.277603,47.400158,45,50,0
47.39073,47.51329,47,41,0
47.503864,47.62742,48,44,0
47.616993,47.74209,50,40,0
48.233585,48.311806,53,40,0
48.301517,48.486706,52,36,0
49.207554,49.276043,58,53,0
49.266464,49.391003,57,56,0
49.381424,49.505962,59,48,0
49.496384,49.62129,60,51,0
49.611343,49.730656,62,47,0
50.148434,50.21677,65,50,0
50.207344,50.329754,64,54,0
50.320473,50.441113,62,48,0
50.43183,50.55446,60,51,0
50.54319,50.678413,59,47,0
51.10694,51.17528,58,48,0
51.16585,51.28841,57,53,0
51.278984,51.401543,59,41,0
51.392113,51.51567,60,44,0
51.505245,51.63034,62,40,0
52.12129,52.189224,65,40,0
52.189224,52.37441,64,36,0
53.095257,53.163746,70,50,0
53.154167,53.278706,69,54,0
53.269127,53.39367,67,48,0
53.384087,53.50899,65,51,0
53.499046,53.618362,64,47,0
54.036137,54.104473,63,47,0
54.095047,54.217644,62,54,0
54.208176,54.331226,64,48,0
54.321762,54.446617,65,51,0
54.43535,54.570568,62,47,0
54.999096,55.067513,68,51,0
55.05801,55.181557,67,54,0
55.17205,55.295597,65,45,0
55.286095,55.41056,64,48,0
55.400135,55.52523,62,44,0
55.943005,56.011456,61,47,0
56.001915,56.12584,60,52,0
56.11641,56.238968,62,48,0
56.22954,56.353943,64,51,0
56.342674,56.477894,60,47,0
56.894245,56.962734,67,48,0
56.953156,57.077694,65,52,0
57.068115,57.192654,62,48,0
57.183075,57.30798,60,51,0
57.298035,57.417347,59,47,0
57.835125,57.903576,65,51,0
57.894035,58.01807,64,54,0
58.00853,58.132565,60,48,0
58.123024,58.248787,59,51,0
58.23752,58.37274,57,47,0
58.80127,58.8698,60,47,0
58.86018,58.98523,59,51,0
58.97561,59.10066,65,41,0
59.091038,59.216892,64,44,0
59.206467,59.331562,56,40,0
59.57916,59.644585,53,41,0
59.57916,59.644585,50,41,0
59.843327,59.90128,52,41,0
59.843327,59.90128,48,41,0
60.782196,61.24639,55,36,0
60.782196,61.24639,52,36,0
60.782196,61.24639,61,43,0
61.723076,62.194145,57,36,0
61.723076,62.194145,53,36,0
61.723076,62.194145,65,43,0
62.669407,63.1336,53,36,0
62.669407,63.1336,50,36,0
62.669407,63.1336,59,43,0
63.610287,64.08135,55,36,0
63.610287,64.08135,52,36,0
63.610287,64.08135,64,43,0
64.55662,65.02081,56,36,0
64.55662,65.02081,50,36,0
64.55662,65.02081,59,43,0
65.4975,65.96857,57,36,0
65.4975,65.96857,52,36,0
65.4975,65.96857,60,43,0
65.96857,66.23174,62,43,0
66.23174,66.512146,63,43,0
65.96857,66.512146,57,36,0
65.96857,66.512146,53,36,0
66.512146,67.16475,56,36,0
66.512146,67.16475,52,36,0
66.512146,67.16475,64,43,0
69.01053,69.239555,57,30,0
69.01053,69.239555,53,30,0
69.01053,69.239555,62,36,0
69.47703,69.70782,60,36,0
69.47703,69.70782,57,30,0
69.47703,69.70782,52,30,0
69.944046,70.18028,57,32,0
69.944046,70.18028,53,26,0
69.944046,70.18028,50,26,0
70.42662,70.68088,57,29,0
70.42662,70.68088,52,24,0
70.42662,70.68088,48,24,0
70.93206,71.182076,53,25,0
70.93206,71.182076,50,20,0
71.549644,71.92469,57,18,0
71.549644,71.92469,52,15,0
71.549644,71.92469,48,15,0
73.04983,73.17209,57,61,0
73.04983,73.17209,69,70,0
73.17209,73.233215,66,52,0
73.17209,73.233215,63,43,0
73.435524,73.58806,69,54,0
73.435524,73.58806,57,47,0
73.58806,73.717224,57,58,0
73.58806,73.717224,69,66,0
73.717224,73.84639,60,54,0
73.717224,73.84639,72,62,0
73.84639,73.97648,59,58,0
73.84639,73.97648,71,66,0
73.97648,74.110794,57,54,0
73.97648,74.110794,69,62,0
74.110794,74.2405,64,61,0
74.110794,74.2405,76,70,0
74.2405,74.30536,71,52,0
74.2405,74.30536,68,43,0
74.50881,74.65616,76,54,0
74.50881,74.65616,64,47,0
74.65616,74.78755,64,58,0
74.65616,74.78755,76,66,0
74.78755,74.918945,67,54,0
74.78755,74.918945,79,62,0
74.918945,75.05034,65,58,0
74.918945,75.05034,77,66,0
75.05034,75.18831,64,54,0
75.05034,75.18831,76,62,0
75.18831,75.317474,57,63,0
75.18831,75.317474,69,72,0
75.317474,75.38206,66,54,0
75.317474,75.38206,63,46,0
75.575806,75.726074,69,58,0
75.575806,75.726074,57,50,0
75.726074,75.85524,57,60,0
75.726074,75.85524,69,68,0
75.85524,75.984406,60,56,0
75.85524,75.984406,72,64,0
75.984406,76.1145,59,60,0
75.984406,76.1145,71,68,0
76.1145,76.24881,57,56,0
76.1145,76.24881,69,64,0
76.24881,76.38194,56,63,0
76.24881,76.38194,68,72,0
76.38194,76.44851,59,68,0
76.65758,76.80009,63,64,0
76.80009,77.08509,59,63,0
76.80009,77.08509,65,73,0
76.80009,77.08509,56,63,0
77.08509,77.2276,64,70,0
77.3701,77.49927,69,66,0
77.3701,77.49927,81,77,0
77.49927,77.56385,78,57,0
77.49927,77.56385,75,48,0
77.76961,77.92214,81,61,0
77.76961,77.92214,69,52,0
77.92214,78.05131,69,63,0
77.92214,78.05131,81,72,0
78.05131,78.18047,72,60,0
78.05131,78.18047,84,67,0
78.18047,78.31056,71,63,0
78.18047,78.31056,83,72,0
78.31056,78.44488,69,60,0
78.31056,78.44488,81,67,0
78.44488,78.57459,76,66,0
78.44488,78.57459,88,77,0
78.57459,78.63944,83,57,0
78.57459,78.63944,80,48,0
78.842896,78.99024,88,61,0
78.842896,78.99024,76,52,0
78.99024,79.121635,76,63,0
78.99024,79.121635,88,72,0
79.121635,79.25303,79,60,0
79.121635,79.25303,91,67,0
79.25303,79.38443,77,63,0
79.25303,79.38443,89,72,0
79.38443,79.52239,76,60,0
79.38443,79.52239,88,67,0
79.52239,79.65156,69,69,0
79.52239,79.65156,81,80,0
79.65156,79.71614,78,60,0
79.65156,79.71614,75,50,0
79.90989,80.060165,81,63,0
79.90989,80.060165,69,54,0
80.060165,80.18933,69,63,0
80.060165,80.18933,81,72,0
80.18933,80.3185,72,60,0
80.18933,80.3185,84,67,0
80.3185,80.448586,71,63,0
80.3185,80.448586,83,72,0
80.448586,80.5829,69,60,0
80.448586,80.5829,81,67,0
80.5829,80.71603,68,66,0
80.5829,80.71603,80,77,0
80.71603,80.78259,71,67,0
80.71603,80.78259,83,72,0
80.99167,81.13417,75,57,0
80.99167,81.13417,87,67,0
81.13417,81.41918,77,56,0
81.13417,81.41918,89,78,0
81.41918,81.56168,76,62,0
81.41918,81.56168,88,73,0
81.704185,81.83335,79,69,0
81.704185,81.83335,93,81,0
81.704185,81.83335,81,69,0
81.83335,81.897934,88,60,0
81.83335,81.897934,85,50,0
82.10369,82.256226,93,63,0
82.10369,82.256226,81,54,0
82.256226,82.38539,81,66,0
82.256226,82.38539,93,76,0
82.38539,82.51456,82,62,0
82.38539,82.51456,94,70,0
82.51456,82.644646,81,66,0
82.51456,82.644646,93,76,0
82.644646,82.77896,79,62,0
82.644646,82.77896,91,70,0
82.77896,82.908676,77,69,0
82.77896,82.908676,89,81,0
82.908676,82.97353,86,60,0
82.908676,82.97353,81,50,0
83.17698,83.324326,85,63,0
83.17698,83.324326,73,54,0
83.324326,83.45573,74,66,0
83.324326,83.45573,86,76,0
83.45573,83.58712,77,62,0
83.45573,83.58712,89,70,0
83.58712,83.71851,75,66,0
83.58712,83.71851,87,76,0
83.71851,83.85648,74,62,0
83.71851,83.85648,86,70,0
83.85648,83.98565,77,69,0
83.85648,83.98565,91,81,0
83.85648,83.98565,79,69,0
83.98565,84.05023,86,60,0
83.98565,84.05023,83,50,0
84.25599,84.40852,91,63,0
84.25599,84.40852,79,54,0
84.40852,84.53769,79,66,0
84.40852,84.53769,91,76,0
84.53769,84.666855,80,62,0
84.53769,84.666855,92,70,0
84.666855,84.79694,79,66,0
84.666855,84.79694,91,76,0
84.79694,84.93125,77,62,0
84.79694,84.93125,89,70,0
84.93125,85.06097,76,69,0
84.93125,85.06097,88,81,0
85.06097,85.125824,84,60,0
85.06097,85.125824,79,50,0
85.32928,85.47662,83,63,0
85.32928,85.47662,71,54,0
85.47662,85.60802,72,66,0
85.47662,85.60802,84,76,0
85.60802,85.73941,75,62,0
85.60802,85.73941,87,70,0
85.73941,85.870804,73,66,0
85.73941,85.870804,85,76,0
85.870804,86.00877,72,62,0
85.870804,86.00877,84,70,0
86.00877,86.13794,77,69,0
86.00877,86.13794,89,81,0
86.13794,86.20252,83,60,0
86.13794,86.20252,80,50,0
86.40828,86.560814,71,54,0
86.40828,86.560814,68,47,0
86.560814,86.692406,71,66,0
86.692406,86.83131,74,62,0
86.83131,86.96645,72,66,0
86.96645,87.11953,71,62,0
86.560814,87.11953,68,58,0
87.11953,87.248695,76,69,0
87.11953,87.248695,88,81,0
87.248695,87.31328,84,60,0
87.248695,87.31328,81,50,0
87.519035,87.68034,69,54,0
87.519035,87.68034,64,49,0
87.68034,87.83036,69,61,0
87.83036,87.96799,72,56,0
87.96799,88.108185,71,61,0
88.108185,88.25412,69,57,0
87.68034,88.25412,64,54,0
88.25412,88.41543,74,62,0
88.25412,88.41543,62,52,0
88.41543,88.55897,77,60,0
88.41543,88.55897,65,51,0
88.55897,88.703896,76,60,0
88.55897,88.703896,64,51,0
88.703896,88.8618,75,56,0
88.703896,88.8618,63,47,0
88.8618,89.00888,76,60,0
88.8618,89.00888,64,51,0
89.00888,89.16845,71,50,0
89.00888,89.16845,59,41,0
89.16845,89.333305,74,52,0
89.16845,89.333305,62,44,0
89.333305,89.49816,72,50,0
89.333305,89.49816,60,41,0
89.49816,89.67675,64,54,0
89.67675,89.83634,67,45,0
89.83634,90.01283,65,45,0
89.49816,90.21834,71,40,0
89.49816,90.21834,59,30,0
90.21834,90.477005,69,35,0
90.21834,90.477005,57,29,0
90.01283,90.477005,64,42,0
91.120285,91.41936,81,45,0
91.284225,91.44283,93,51,0
91.41936,91.58483,80,43,0
91.41936,91.58483,92,51,0
91.5602,91.731346,91,50,0
91.5602,91.731346,79,42,0
91.707985,91.87154,90,50,0
91.707985,91.87154,78,42,0
91.848175,92.01173,89,49,0
91.848175,92.01173,77,41,0
91.98836,92.152245,88,49,0
91.98836,92.152245,76,41,0
92.12855,92.27073,87,48,0
92.12855,92.27073,75,40,0
92.27073,92.42997,89,51,0
92.27073,92.42997,77,43,0
92.407036,92.56791,76,37,0
92.407036,92.56791,88,45,0
92.54465,92.70744,75,40,0
92.54465,92.70744,87,48,0
92.68419,92.82372,89,45,0
92.68419,92.82372,77,37,0
92.82372,92.98673,88,47,0
92.82372,93.1041,76,40,0
92.96326,93.12757,83,46,0
93.1041,93.26842,80,45,0
93.24494,93.38579,76,45,0
93.1041,93.38579,71,38,0
93.38579,93.68486,81,45,0
93.54973,93.70867,93,51,0
93.68486,93.8513,80,43,0
93.68486,93.8513,92,51,0
93.82772,93.99227,91,50,0
93.82772,93.99227,79,42,0
93.96923,94.130516,90,50,0
93.96923,94.130516,78,42,0
94.107475,94.26877,89,49,0
94.107475,94.26877,77,41,0
94.24573,94.40767,88,49,0
94.24573,94.40767,76,41,0
94.38397,94.52615,87,48,0
94.38397,94.52615,75,40,0
94.52615,94.6854,89,51,0
94.52615,94.6854,77,43,0
94.66246,94.821724,76,37,0
94.66246,94.821724,88,45,0
94.79936,94.957184,75,40,0
94.79936,94.957184,87,48,0
94.93442,95.09814,89,45,0
94.93442,95.09814,77,37,0
95.071815,95.22971,76,40,0
95.071815,95.22971,88,47,0
95.3876,95.5455,76,47,0
95.7034,95.99576,81,45,0
95.86733,96.01832,93,51,0
95.99576,96.15472,80,43,0
95.99576,96.15472,92,51,0
96.131134,96.29634,91,50,0
96.131134,96.29634,79,42,0
96.272644,96.43852,90,50,0
96.272644,96.43852,78,42,0
96.414825,96.5807,89,49,0
96.414825,96.5807,77,41,0
96.55701,96.722885,88,49,0
96.55701,96.722885,76,41,0
96.69919,96.84136,87,48,0
96.69919,96.84136,75,40,0
96.84136,97.00061,89,51,0
96.84136,97.00061,77,43,0
96.97768,97.13822,76,37,0
96.97768,97.13822,88,45,0
97.11529,97.27584,75,40,0
97.11529,97.27584,87,48,0
97.25291,97.39052,89,45,0
97.25291,97.39052,77,37,0
97.39052,97.551605,88,47,0
97.39052,97.668976,76,40,0
97.52813,97.69245,83,46,0
97.668976,97.8333,80,45,0
97.80982,97.95067,76,45,0
97.668976,97.95067,71,38,0
97.95067,98.23656,81,45,0
98.101425,98.25872,93,51,0
98.23656,98.39312,80,43,0
98.23656,98.39312,92,51,0
98.36954,98.53409,91,50,0
98.36954,98.53409,79,42,0
98.51105,98.67233,90,50,0
98.51105,98.67233,78,42,0
98.64929,98.81095,89,49,0
98.64929,98.81095,77,41,0
98.787544,98.95169,88,49,0
98.787544,98.95169,76,41,0
98.92799,99.070175,87,48,0
98.92799,99.070175,75,40,0
99.070175,99.229416,89,51,0
99.070175,99.229416,77,43,0
99.20648,99.36779,76,37,0
99.20648,99.36779,88,45,0
99.34409,99.50997,75,40,0
99.34409,99.50997,87,48,0
99.486275,99.65477,89,45,0
99.486275,99.65477,77,37,0
99.628456,99.786354,76,40,0
99.628456,99.786354,88,47,0
99.944244,100.10214,76,47,0
100.26003,100.55821,81,53,0
100.42308,100.58225,93,60,0
100.55821,100.72707,80,50,0
100.55821,100.72707,92,60,0
100.702446,100.8736,91,59,0
100.702446,100.8736,79,49,0
100.85023,101.01378,90,59,0
100.85023,101.01378,78,49,0
100.99042,101.15397,89,59,0
100.99042,101.15397,77,49,0
101.1306,101.29449,88,59,0
101.1306,101.29449,76,49,0
101.27079,101.41297,86,58,0
101.27079,101.41297,74,48,0
101.41297,101.57221,85,60,0
101.41297,101.68689,73,50,0
101.54928,101.71015,88,53,0
101.68689,101.849686,81,58,0
101.82643,101.965965,85,53,0
101.68689,101.965965,73,48,0
101.965965,102.128975,86,57,0
101.965965,102.246346,74,48,0
102.1055,102.26982,81,56,0
102.246346,102.41066,77,55,0
102.38719,102.52803,74,53,0
102.246346,102.52803,69,46,0
102.52803,102.81168,79,56,0
102.67655,102.835724,91,63,0
102.81168,102.980545,78,52,0
102.81168,102.980545,90,63,0
102.95592,103.12706,89,62,0
102.95592,103.12706,77,51,0
103.1037,103.26213,88,62,0
103.1037,103.26213,76,51,0
103.23977,103.3963,87,61,0
103.23977,103.3963,75,50,0
103.37394,103.53181,86,61,0
103.37394,103.53181,74,50,0
103.50811,103.65029,84,59,0
103.50811,103.65029,72,49,0
103.65029,103.80953,83,63,0
103.65029,103.92421,71,52,0
103.7866,103.94747,86,56,0
103.92421,104.087006,79,59,0
104.06374,104.203285,83,56,0
103.92421,104.203285,71,49,0
104.203285,104.366295,84,59,0
104.203285,104.483665,72,49,0
104.34282,104.50713,79,58,0
104.483665,104.65028,76,57,0
104.624504,104.779144,72,56,0
104.483665,104.779144,67,48,0
104.883316,104.98748,93,63,0
104.779144,104.98748,77,50,0
105.135994,105.2946,76,43,0
105.135994,105.2946,88,51,0
105.27113,105.4347,87,50,0
105.27113,105.4347,75,42,0
105.54834,105.70743,73,41,0
105.54834,105.70743,85,49,0
105.6847,105.84711,84,49,0
105.6847,105.84711,72,41,0
105.82107,105.97732,83,48,0
105.82107,105.97732,71,40,0
106.08295,106.18858,91,66,0
105.97732,106.18858,76,54,0
106.33282,106.493195,75,43,0
106.33282,106.493195,87,51,0
106.46856,106.63907,86,50,0
106.46856,106.63907,74,42,0
106.75271,106.9118,71,41,0
106.75271,106.9118,83,49,0
106.88907,107.04913,82,49,0
106.88907,107.04913,70,41,0
107.02544,107.16762,81,48,0
107.02544,107.16762,69,40,0
107.3078,107.47135,64,41,0
107.3078,107.47135,76,49,0
107.44799,107.61187,75,49,0
107.44799,107.61187,63,41,0
107.58817,107.730354,74,48,0
107.58817,107.730354,62,40,0
107.870544,108.034096,60,41,0
107.870544,108.034096,72,49,0
108.01073,108.174614,71,49,0
108.01073,108.174614,59,41,0
108.15092,108.2931,70,48,0
108.15092,108.2931,58,40,0
108.45526,108.62341,65,50,0
108.59949,108.76718,64,49,0
108.74315,108.91188,63,48,0
108.887726,109.05775,62,46,0
109.033356,109.20457,60,45,0
109.18005,109.35259,59,45,0
109.32784,109.47672,58,44,0
109.47672,109.64066,57,45,0
109.804596,109.97007,81,43,0
109.804596,109.97007,89,51,0
109.94544,110.116585,84,50,0
109.94544,110.116585,77,42,0
110.399155,110.49577,60,47,0
110.49577,110.59239,59,46,0
110.59239,110.68901,57,45,0
110.68901,110.84944,56,45,0
111.009865,111.17534,80,43,0
111.009865,111.17534,87,51,0
111.15071,111.32186,83,50,0
111.15071,111.32186,75,42,0
111.60443,111.70012,52,39,0
111.70012,111.795364,54,41,0
111.795364,111.89015,56,43,0
111.89015,112.05144,57,45,0
112.21273,112.3719,81,43,0
112.21273,112.3719,89,51,0
112.34786,112.51546,84,50,0
112.34786,112.51546,77,42,0
112.79895,112.8951,60,47,0
112.8951,112.99126,59,46,0
112.99126,113.08741,57,45,0
113.08741,113.23892,56,45,0
113.39044,113.555916,80,43,0
113.39044,113.555916,87,51,0
113.53129,113.70243,83,50,0
113.53129,113.70243,75,42,0
114.12798,114.2008,52,75,0
114.2008,114.27361,54,79,0
114.27361,114.34643,56,81,0
114.34643,114.51036,57,83,0
114.6743,114.839066,81,67,0
114.6743,114.839066,89,80,0
114.81514,114.98205,84,79,0
114.81514,114.98205,77,65,0
115.26462,115.36124,60,81,0
115.36124,115.457855,59,80,0
115.457855,115.554474,57,77,0
115.554474,115.7149,56,81,0
115.87533,116.03477,80,67,0
115.87533,116.03477,87,80,0
116.01107,116.17662,83,79,0
116.01107,116.17662,75,65,0
116.46104,116.55673,52,66,0
116.55673,116.65197,54,72,0
116.65197,116.74676,56,77,0
116.74676,116.900604,57,83,0
117.05445,117.22401,81,67,0
117.05445,117.22401,89,80,0
117.19938,117.37053,84,79,0
117.19938,117.37053,77,65,0
117.65589,117.752045,60,77,0
117.752045,117.8482,59,76,0
117.8482,117.94435,57,74,0
117.94435,118.09586,56,73,0
118.24738,118.41286,80,67,0
118.24738,118.41286,87,80,0
118.38822,118.55843,83,79,0
118.38822,118.55843,75,65,0
118.95844,119.03126,57,42,0
119.03126,119.10407,59,44,0
119.10407,119.17689,60,45,0
119.17689,119.34082,61,47,0
119.50476,119.670235,88,43,0
119.50476,119.670235,94,51,0
119.6456,119.81675,91,50,0
119.6456,119.81675,82,42,0
120.10117,120.19779,57,46,0
120.19779,120.2944,59,50,0
120.2944,120.39102,61,52,0
120.39102,120.55145,62,55,0
120.71188,120.8711,81,50,0
120.71188,120.8711,88,59,0
120.847626,121.01183,86,58,0
120.847626,121.01183,76,49,0
121.29533,121.39102,64,51,0
121.39102,121.48626,62,53,0
121.48626,121.58105,60,54,0
121.58105,121.74498,59,57,0
121.90891,122.074394,86,52,0
121.90891,122.074394,92,63,0
122.04976,122.221466,89,62,0
122.04976,122.221466,80,51,0
122.50775,122.60437,55,66,0
122.60437,122.70099,57,70,0
122.70099,122.79761,59,73,0
122.79761,122.95467,60,76,0
123.11174,123.277214,79,61,0
123.11174,123.277214,87,72,0
123.25259,123.42374,84,71,0
123.25259,123.42374,75,60,0
123.70722,123.80384,59,70,0
123.80384,123.90046,60,72,0
123.90046,123.99708,61,74,0
123.99708,124.16101,62,77,0
124.32495,124.48479,86,64,0
124.32495,124.48479,95,77,0
124.45888,124.63768,89,76,0
124.45888,124.63768,83,63,0
124.922104,125.01872,58,74,0
125.01872,125.11534,60,78,0
125.11534,125.21196,62,81,0
125.21196,125.37589,64,84,0
125.539825,125.7053,83,71,0
125.539825,125.7053,92,84,0
125.68067,125.85182,86,83,0
125.68067,125.85182,80,70,0
126.13531,126.231926,65,78,0
126.231926,126.328545,64,81,0
126.328545,126.42516,63,84,0
126.42516,126.589096,62,87,0
126.75303,126.91851,81,84,0
126.75303,126.91851,89,84,0
126.893875,127.06717,83,81,0
126.893875,127.06717,77,81,0
127.04166,127.22023,68,79,0
127.04166,127.22023,76,79,0
127.194725,127.37511,64,76,0
127.194725,127.37511,71,76,0
127.347786,127.45753,62,73,0
127.45753,127.56957,60,77,0
127.56957,127.68419,59,81,0
127.68419,127.85273,57,87,0
128.02127,128.23073,88,80,0
128.02127,128.23073,96,95,0
128.19986,128.41594,84,92,0
128.38507,128.60115,93,95,0
128.38507,128.60115,88,80,0
128.57028,128.78636,81,92,0
129.11943,129.97673,88,80,0
129.11943,129.97673,96,80,0
129.11943,129.97673,100,94,0
129.97673,130.08235,86,59,0
129.97673,130.08235,95,59,0
129.97673,130.08235,98,71,0
130.11757,130.2232,96,71,0
130.11757,130.2232,93,59,0
130.11757,130.2232,84,59,0
130.2584,130.35977,83,65,0
130.2584,130.35977,92,78,0
130.2584,130.35977,95,78,0
130.39355,130.4949,93,71,0
130.39355,130.4949,89,59,0
130.39355,130.4949,81,59,0
130.52869,130.63004,92,73,0
130.52869,130.63004,88,63,0
130.52869,130.63004,80,63,0
130.66382,130.76945,89,71,0
130.66382,130.76945,86,59,0
130.66382,130.76945,77,59,0
130.80467,130.90694,76,63,0
130.80467,130.90694,84,63,0
130.80467,130.90694,88,73,0
130.94102,131.0433,74,60,0
130.94102,131.0433,83,60,0
130.94102,131.0433,86,72,0
131.0774,131.17967,72,62,0
131.0774,131.17967,81,62,0
131.0774,131.17967,84,72,0
131.21376,131.32405,80,62,0
131.21376,131.32405,83,72,0
131.21376,131.32405,71,62,0
131.36081,132.21466,72,64,0
131.36081,132.21466,81,64,0
131.36081,132.21466,84,76,0
132.21466,132.35103,74,59,0
132.21466,132.35103,83,59,0
132.21466,132.35103,86,71,0
132.35103,132.49954,76,59,0
132.35103,132.49954,84,59,0
132.35103,132.49954,88,71,0
132.49954,132.64038,86,76,0
132.49954,132.64038,83,76,0
132.49954,132.64038,74,64,0
132.64038,132.78123,72,63,0
132.64038,132.78123,81,63,0
132.64038,132.78123,84,74,0
132.78123,132.92207,71,60,0
132.78123,132.92207,80,60,0
132.78123,132.92207,83,72,0
132.92207,133.06914,81,71,0
132.92207,133.06914,77,59,0
132.92207,133.06914,69,59,0
133.06914,133.7121,80,68,0
133.06914,133.7121,76,57,0
133.06914,133.7121,68,57,0
133.7121,134.57121,88,80,0
133.7121,134.57121,96,80,0
133.7121,134.57121,100,94,0
134.57121,134.67685,86,59,0
134.57121,134.67685,95,59,0
134.57121,134.67685,98,71,0
134.71207,134.8177,96,71,0
134.71207,134.8177,93,59,0
134.71207,134.8177,84,59,0
134.8529,134.95425,83,65,0
134.8529,134.95425,92,78,0
134.8529,134.95425,95,78,0
134.98804,135.0894,93,71,0
134.98804,135.0894,89,59,0
134.98804,135.0894,81,59,0
135.12318,135.22453,92,73,0
135.12318,135.22453,88,63,0
135.12318,135.22453,80,63,0
135.25832,135.36395,89,71,0
135.25832,135.36395,86,59,0
135.25832,135.36395,77,59,0
135.39915,135.50143,76,63,0
135.39915,135.50143,84,63,0
135.39915,135.50143,88,73,0
135.53552,135.6378,74,62,0
135.53552,135.6378,83,62,0
135.53552,135.6378,86,72,0
135.67189,135.77415,72,63,0
135.67189,135.77415,81,63,0
135.67189,135.77415,84,74,0
135.80826,135.91855,80,63,0
135.80826,135.91855,83,73,0
135.9553,136.79692,72,62,0
135.9553,136.79692,81,62,0
135.9553,136.79692,84,72,0
136.79692,136.93327,74,59,0
136.79692,136.93327,83,59,0
136.79692,136.93327,86,71,0
136.93327,137.08179,76,59,0
136.93327,137.08179,84,59,0
136.93327,137.08179,88,71,0
137.08179,137.22264,86,76,0
137.08179,137.22264,74,64,0
137.22264,137.36348,72,63,0
137.22264,137.36348,84,74,0
137.36348,137.50433,71,60,0
137.36348,137.50433,83,72,0
137.50433,137.65138,81,71,0
137.50433,137.65138,69,59,0
137.65138,138.23962,80,68,0
137.65138,138.23962,68,57,0
138.23962,138.81746,76,80,0
138.81746,138.95831,81,90,0
138.23962,138.95831,73,80,0
138.23962,138.95831,85,94,0
139.09915,139.20479,74,55,0
139.09915,139.20479,83,55,0
139.09915,139.20479,86,79,0
139.23999,139.34563,88,79,0
139.23999,139.34563,85,66,0
139.23999,139.34563,76,66,0
139.38084,139.4822,77,67,0
139.38084,139.4822,86,67,0
139.38084,139.4822,89,81,0
139.51598,139.61732,91,83,0
139.51598,139.61732,88,71,0
139.51598,139.61732,79,71,0
139.65111,139.75246,93,86,0
139.65111,139.75246,89,73,0
139.65111,139.75246,81,73,0
139.78624,139.89188,95,87,0
139.78624,139.89188,91,75,0
139.78624,139.89188,83,75,0
139.9271,140.02666,85,76,0
139.9271,140.02666,93,76,0
139.9271,140.02666,97,91,0
140.05984,140.15941,86,78,0
140.05984,140.15941,95,78,0
140.05984,140.15941,98,93,0
140.1926,140.29216,88,81,0
140.1926,140.29216,97,81,0
140.1926,140.29216,100,97,0
140.32536,140.45619,89,83,0
140.32536,140.45619,101,99,0
140.32536,140.45619,98,83,0
140.4998,141.07764,74,80,0
141.07764,141.21848,79,90,0
140.4998,141.21848,71,80,0
140.4998,141.21848,83,94,0
141.35933,141.46497,72,55,0
141.35933,141.46497,81,55,0
141.35933,141.46497,84,79,0
141.50017,141.6058,86,79,0
141.50017,141.6058,83,66,0
141.50017,141.6058,74,66,0
141.64102,141.74237,76,67,0
141.64102,141.74237,84,67,0
141.64102,141.74237,88,81,0
141.77615,141.8775,89,83,0
141.77615,141.8775,86,71,0
141.77615,141.8775,77,71,0
141.91129,142.01263,91,86,0
141.91129,142.01263,88,73,0
141.91129,142.01263,79,73,0
142.04642,142.15205,93,87,0
142.04642,142.15205,89,75,0
142.04642,142.15205,81,75,0
142.18727,142.28954,83,76,0
142.18727,142.28954,91,76,0
142.18727,142.28954,95,91,0
142.32362,142.4259,84,78,0
142.32362,142.4259,93,78,0
142.32362,142.4259,96,93,0
142.45999,142.55783,86,81,0
142.45999,142.55783,95,81,0
142.45999,142.55783,98,97,0
142.59044,142.71408,88,83,0
142.59044,142.71408,100,99,0
142.59044,142.71408,96,83,0
142.7553,142.89505,101,93,0
142.7553,142.89505,89,79,0
142.7553,142.89505,95,79,0
142.7553,142.89505,92,79,0
142.94164,143.04163,98,90,0
142.94164,143.04163,86,75,0
143.07497,143.17632,95,86,0
143.07497,143.17632,83,72,0
143.2101,143.31145,92,86,0
143.2101,143.31145,80,72,0
143.34523,143.45187,89,83,0
143.34523,143.45187,77,71,0
143.34523,143.45187,80,71,0
143.34523,143.45187,83,71,0
143.48741,143.59404,87,77,0
143.48741,143.59404,75,65,0
143.6296,143.73828,88,82,0
143.6296,143.73828,76,70,0
143.77452,143.88702,86,89,0
143.77452,143.88702,74,74,0
143.92451,144.06256,96,93,0
143.92451,144.06256,84,79,0
143.92451,144.06256,90,79,0
143.92451,144.06256,87,79,0
144.10857,144.20901,93,90,0
144.10857,144.20901,81,75,0
144.2425,144.3443,90,86,0
144.2425,144.3443,78,72,0
144.37825,144.48006,87,86,0
144.37825,144.48006,75,72,0
144.51399,144.62057,84,83,0
144.51399,144.62057,72,71,0
144.51399,144.62057,75,71,0
144.51399,144.62057,78,71,0
144.6563,144.76498,82,77,0
144.6563,144.76498,70,65,0
144.80122,144.90991,83,82,0
144.80122,144.90991,71,70,0
144.94615,145.05865,81,89,0
144.94615,145.05865,69,74,0
145.09615,145.20432,77,79,0
145.09615,145.20432,65,66,0
145.09615,145.20432,71,66,0
145.09615,145.20432,69,66,0
145.24037,145.34312,75,75,0
145.24037,145.34312,63,63,0
145.37737,145.4801,76,72,0
145.37737,145.4801,64,61,0
145.51436,145.62411,74,72,0
145.51436,145.62411,62,61,0
145.66069,145.76733,73,71,0
145.66069,145.76733,61,60,0
145.80287,145.91316,71,65,0
145.80287,145.91316,59,54,0
145.94994,146.07358,72,70,0
145.94994,146.07358,60,59,0
146.11479,146.252,71,74,0
146.11479,146.252,59,63,0
146.29773,147.14293,65,63,0
146.29773,147.14293,62,63,0
147.14293,147.74898,64,52,0
146.29773,147.74898,69,75,0
146.29773,147.74898,57,63,0
147.14293,147.74898,60,44,0
148.35504,148.54735,88,52,0
148.54735,148.69887,89,45,0
148.69887,148.85039,88,45,0
149.4329,149.66728,76,33,0
149.4329,149.66728,72,33,0
148.85039,149.90166,84,49,0
149.90166,150.07025,81,48,0
150.05432,150.19765,83,45,0
150.18172,150.32463,81,45,0
150.30911,150.44885,83,47,0
150.43333,150.57307,84,45,0
150.55756,150.69731,83,45,0
150.68178,150.82153,80,47,0
150.806,150.94576,81,44,0
150.93022,151.07089,80,44,0
151.05444,151.20247,76,46,0
151.18602,151.35492,77,41,0
151.31761,151.63255,76,42,0
151.61612,151.81348,62,30,0
151.61612,151.81348,64,30,0
151.61612,151.81348,71,30,0
152.01085,152.20316,88,52,0
152.20316,152.35583,89,45,0
152.35583,152.5085,88,45,0
153.07993,153.31615,76,37,0
153.07993,153.31615,72,37,0
152.5085,153.55237,84,49,0
153.55237,153.68394,60,54,0
153.68394,153.81552,62,53,0
153.81552,153.94711,60,56,0
153.55237,153.94711,64,45,0
153.94711,154.07133,59,63,0
154.07133,154.19556,60,63,0
154.19556,154.31978,59,67,0
153.94711,154.31978,64,51,0
154.31978,154.44798,69,72,0
154.44798,154.57619,71,67,0
154.57619,154.70439,69,68,0
154.31978,154.70439,63,56,0
154.70439,154.83597,68,74,0
154.83597,154.96754,69,66,0
154.96754,155.16957,68,69,0
154.70439,155.16957,64,56,0
155.66544,155.85774,88,52,0
155.85774,156.00926,89,45,0
156.00926,156.16078,88,45,0
156.7433,156.97768,76,33,0
156.7433,156.97768,72,33,0
156.16078,157.21205,84,49,0
157.21205,157.38065,81,48,0
157.36473,157.50804,83,45,0
157.49211,157.63503,81,45,0
157.6195,157.75925,83,47,0
157.74373,157.88348,84,45,0
157.86795,158.0077,83,45,0
157.99217,158.13193,80,47,0
158.1164,158.25615,81,44,0
158.24062,158.38129,80,44,0
158.36484,158.51286,76,46,0
158.49643,158.66531,77,41,0
158.628,158.94296,76,42,0
158.92651,159.12387,62,30,0
158.92651,159.12387,64,30,0
158.92651,159.12387,71,30,0
159.32124,159.51355,88,52,0
159.51355,159.66623,89,45,0
159.66623,159.8189,88,45,0
160.39032,160.62654,76,37,0
160.39032,160.62654,72,37,0
159.8189,160.86276,84,49,0
160.86276,160.99434,60,54,0
160.99434,161.12593,62,53,0
161.12593,161.2575,60,56,0
160.86276,161.2575,64,45,0
161.2575,161.38173,59,63,0
161.38173,161.50595,60,63,0
161.50595,161.63017,59,67,0
161.2575,161.63017,64,51,0
161.63017,161.75838,69,72,0
161.75838,161.88658,71,67,0
161.88658,162.01479,69,68,0
161.63017,162.01479,63,56,0
162.01479,162.14636,68,74,0
162.14636,162.27795,69,66,0
162.27795,162.47997,68,69,0
162.01479,162.47997,64,56,0
162.98418,163.17648,88,52,0
163.17648,163.32799,89,45,0
163.32799,163.4795,88,45,0
164.06203,164.2964,76,33,0
164.06203,164.2964,73,33,0
163.4795,164.53078,85,49,0
164.53078,164.71751,81,48,0
164.69885,164.86676,82,45,0
164.8481,165.0163,81,45,0
164.99736,165.16782,86,47,0
165.14886,165.3254,88,45,0
165.30038,165.51918,86,45,0
165.65076,165.8028,70,62,0
165.65076,165.8028,64,53,0
165.7859,165.93915,69,62,0
166.06596,166.275,67,61,0
166.06596,166.275,62,52,0
166.21089,166.4795,65,61,0
166.8578,167.05011,86,52,0
167.05011,167.20161,88,45,0
167.20161,167.35313,86,45,0
167.93565,168.17003,74,33,0
167.93565,168.17003,71,33,0
167.35313,168.4044,83,49,0
168.4044,168.59114,79,48,0
168.57248,168.74039,81,45,0
168.72173,168.88992,79,45,0
168.87099,169.04144,84,47,0
169.0225,169.19902,86,45,0
169.17401,169.3928,84,45,0
169.5244,169.67642,69,62,0
169.5244,169.67642,62,53,0
169.65953,169.81277,67,62,0
169.93959,170.14862,65,61,0
169.93959,170.14862,60,52,0
170.08452,170.36328,64,61,0
170.97499,171.18117,86,52,0
171.18117,171.35359,88,45,0
171.35359,171.526,86,45,0
172.18533,172.60788,80,33,0
172.18533,172.60788,77,33,0
171.526,173.03041,89,49,0
173.03041,173.11444,68,43,0
173.03041,173.11444,65,36,0
173.03041,173.11444,62,36,0
173.11444,173.19847,64,33,0
173.19847,173.2358,62,33,0
173.72595,173.93214,84,52,0
173.93214,174.10455,86,45,0
174.10455,174.27696,84,45,0
174.93631,175.31606,81,33,0
174.93631,175.31606,76,33,0
174.27696,175.6958,88,49,0
175.6958,175.77983,64,43,0
175.6958,175.77983,60,36,0
175.77983,175.86386,62,33,0
175.86386,175.90118,60,33,0
176.4671,176.5423,71,45,0
176.4671,176.5423,65,45,0
176.5423,176.61748,72,31,0
176.5423,176.61748,69,31,0
176.61748,176.65508,71,27,0
176.61748,176.65508,65,27,0
176.96294,177.03986,77,47,0
176.96294,177.03986,69,47,0
177.03986,177.11678,79,32,0
177.03986,177.11678,71,32,0
177.11678,177.15524,77,28,0
177.11678,177.15524,69,28,0
177.4592,177.53552,76,49,0
177.4592,177.53552,68,49,0
177.53552,177.61186,71,34,0
177.53552,177.61186,77,34,0
177.61186,177.65004,76,30,0
177.61186,177.65004,68,30,0
177.96342,178.03862,83,51,0
177.96342,178.03862,74,51,0
178.03862,178.1138,84,35,0
178.03862,178.1138,76,35,0
178.1138,178.1514,83,31,0
178.1138,178.1514,74,31,0
178.45448,178.53024,81,53,0
178.45448,178.53024,72,53,0
178.53024,178.606,83,36,0
178.53024,178.606,76,36,0
178.606,178.64388,81,32,0
178.606,178.64388,72,32,0
179.02266,179.10396,89,45,0
179.02266,179.10396,81,45,0
179.10396,179.18526,91,31,0
179.10396,179.18526,86,31,0
179.18526,179.22592,89,27,0
179.18526,179.22592,81,27,0
179.6891,180.11163,84,34,0
179.6891,180.11163,88,34,0
179.6891,180.11163,96,40,0
181.37924,181.4817,60,67,0
181.37924,181.4817,57,67,0
181.37924,181.4817,64,83,0
181.66621,181.74828,64,61,0
181.83032,181.91238,62,51,0
181.83032,181.91238,64,61,0
182.00357,182.07196,60,46,0
182.00357,182.07196,64,58,0
182.18578,182.2768,59,50,0
182.18578,182.2768,64,68,0
182.3631,182.4494,64,45,0
182.3631,182.4494,59,45,0
182.3631,182.4494,71,60,0
182.54044,182.63145,57,56,0
182.54044,182.63145,64,53,0
182.74509,182.83032,59,54,0
182.74509,182.83032,64,52,0
182.85873,182.95717,60,67,0
182.85873,182.95717,57,67,0
182.85873,182.95717,64,83,0
183.13995,183.22432,64,61,0
183.30869,183.39305,62,51,0
183.30869,183.39305,64,61,0
183.48352,183.55138,60,46,0
183.48352,183.55138,64,58,0
183.66844,183.76291,59,50,0
183.66844,183.76291,64,63,0
183.85072,183.93855,63,49,0
183.85072,183.93855,59,49,0
183.85072,183.93855,69,61,0
184.03633,184.13411,59,49,0
184.03633,184.13411,64,49,0
184.03633,184.13411,68,61,0
184.24863,184.33452,64,56,0
184.36314,184.4656,72,71,0
184.36314,184.4656,64,71,0
184.36314,184.4656,76,88,0
184.36314,184.4656,69,71,0
184.64914,184.73022,76,66,0
184.64914,184.73022,64,53,0
184.8113,184.89238,64,53,0
184.8113,184.89238,74,66,0
184.81401,184.89554,76,53,0
184.98701,185.058,72,50,0
184.98701,185.058,76,64,0
184.98701,185.058,64,50,0
185.1738,185.26593,71,55,0
185.1738,185.26593,76,69,0
185.1738,185.26593,64,55,0
185.35274,185.43954,71,48,0
185.35274,185.43954,83,62,0
185.53111,185.6227,69,53,0
185.53111,185.6227,76,62,0
185.53111,185.6227,64,48,0
185.7322,185.81432,71,52,0
185.7322,185.81432,76,62,0
185.7322,185.81432,64,48,0
185.84169,185.94011,72,71,0
185.84169,185.94011,64,71,0
185.84169,185.94011,76,88,0
185.84169,185.94011,69,71,0
186.12141,186.20428,64,57,0
186.12141,186.20428,76,68,0
186.28716,186.37003,64,59,0
186.28716,186.37003,76,59,0
186.28716,186.37003,74,70,0
186.4605,186.52835,72,54,0
186.4605,186.52835,76,69,0
186.4605,186.52835,64,54,0
186.6485,186.74603,71,63,0
186.6485,186.74603,76,78,0
186.6485,186.74603,64,63,0
186.83334,186.92065,75,60,0
186.83334,186.92065,69,60,0
186.83334,186.92065,81,77,0
187.01451,187.10838,68,61,0
187.01451,187.10838,76,61,0
187.01451,187.10838,80,79,0
187.2265,187.3151,71,70,0
187.2265,187.3151,68,70,0
187.2265,187.3151,76,82,0
187.34462,187.44708,64,73,0
187.34462,187.44708,76,94,0
187.34462,187.44708,69,73,0
187.34462,187.44708,73,77,0
187.63478,187.72,76,70,0
187.63478,187.72,64,55,0
187.63478,187.72,74,55,0
187.63478,187.72,69,55,0
187.80524,187.89047,64,55,0
187.80524,187.89047,69,55,0
187.80524,187.89047,76,65,0
187.99252,188.06905,73,53,0
187.99252,188.06905,76,67,0
187.99252,188.06905,64,53,0
188.19261,188.38269,77,63,0
188.19261,188.38269,86,78,0
188.19261,188.38269,74,63,0
188.38269,188.5715,79,59,0
188.38269,188.5715,88,75,0
188.38269,188.5715,76,59,0
188.5715,188.76964,81,61,0
188.5715,188.76964,89,78,0
188.5715,188.76964,77,61,0
188.76964,188.84566,77,63,0
188.76964,188.84566,86,80,0
188.76964,188.84566,74,63,0
188.87099,188.9718,71,73,0
188.87099,188.9718,62,73,0
188.87099,188.9718,74,93,0
188.87099,188.9718,67,73,0
189.15833,189.24405,62,58,0
189.15833,189.24405,72,58,0
189.15833,189.24405,67,58,0
189.15833,189.24405,74,70,0
189.32976,189.41548,62,58,0
189.32976,189.41548,74,70,0
189.32976,189.41548,67,58,0
189.52112,189.60092,71,53,0
189.52112,189.60092,74,67,0
189.52112,189.60092,62,53,0
189.7282,189.92262,84,63,0
189.7282,189.92262,88,79,0
189.7282,189.92262,76,63,0
189.92262,190.11572,84,60,0
189.92262,190.11572,77,60,0
189.92262,190.11572,89,76,0
190.11572,190.32161,79,62,0
190.11572,190.32161,84,62,0
190.11572,190.32161,91,78,0
190.32161,190.4015,84,65,0
190.32161,190.4015,76,65,0
190.32161,190.4015,88,80,0
190.42815,190.52657,77,70,0
190.42815,190.52657,89,90,0
190.42815,190.52657,80,70,0
190.42815,190.52657,83,75,0
190.71481,190.84955,74,58,0
190.71481,190.84955,83,58,0
190.71481,190.84955,80,58,0
190.71481,190.84955,86,70,0
190.89447,191.03117,80,58,0
190.89447,191.03117,76,58,0
190.89447,191.03117,83,58,0
190.89447,191.03117,88,70,0
191.07805,191.1718,83,53,0
191.07805,191.1718,77,53,0
191.07805,191.1718,80,53,0
191.07805,191.1718,89,67,0
191.27316,191.42053,81,60,0
191.27316,191.42053,88,75,0
191.27316,191.42053,76,60,0
191.46655,191.6076,77,54,0
191.46655,191.6076,80,54,0
191.46655,191.6076,86,67,0
191.46655,191.6076,74,54,0
191.65663,191.80983,72,54,0
191.65663,191.80983,76,54,0
191.65663,191.80983,84,67,0
191.65663,191.80983,81,54,0
191.86497,191.97528,82,56,0
191.86497,191.97528,76,56,0
191.86497,191.97528,85,67,0
191.86497,191.97528,73,56,0
192.08167,192.23943,77,66,0
192.08167,192.23943,82,66,0
192.08167,192.23943,74,66,0
192.08167,192.23943,86,83,0
192.2908,192.45038,84,62,0
192.2908,192.45038,89,62,0
192.2908,192.45038,93,78,0
192.2908,192.45038,81,62,0
192.5072,192.69397,81,65,0
192.5072,192.69397,84,65,0
192.5072,192.69397,93,83,0
192.5072,192.69397,88,65,0
192.75977,192.93835,88,71,0
192.75977,192.93835,83,71,0
192.75977,192.93835,92,87,0
192.75977,192.93835,80,71,0
192.93835,193.42621,93,92,0
192.93835,193.42621,81,75,0
192.93835,193.42621,84,76,0
192.93835,193.42621,88,78,0
193.42621,193.70816,81,83,0
193.42621,193.70816,76,76,0
193.42621,193.70816,72,76,0
194.40819,194.46579,84,56,0
194.52339,194.58235,81,40,0
194.34012,194.64131,76,38,0
194.64131,194.7022,76,41,0
194.76306,194.82599,72,36,0
194.8889,194.9576,69,36,0
195.02628,195.08714,76,38,0
195.14803,195.21213,72,38,0
195.27623,195.3298,69,38,0
195.41908,195.47714,83,64,0
195.53519,195.59462,80,40,0
195.34766,195.65404,76,38,0
195.65404,195.7289,76,41,0
195.80374,195.86667,86,41,0
195.92958,195.99007,83,45,0
196.05055,196.11104,76,41,0
196.17152,196.24033,80,38,0
196.30914,196.36731,76,38,0
196.45097,196.50858,84,61,0
196.56618,196.62608,81,40,0
196.3834,196.68599,76,38,0
196.68599,196.75797,76,41,0
196.82994,196.89339,72,41,0
196.95685,197.01733,69,39,0
197.07782,197.13829,76,45,0
197.19878,197.26288,72,40,0
197.32698,197.38144,69,38,0
197.4755,197.5379,83,59,0
197.6003,197.66269,80,40,0
197.40125,197.72508,76,38,0
197.72508,197.79637,76,37,0
197.86768,197.93277,76,31,0
197.99788,198.0609,71,38,0
198.12393,198.19893,68,34,0
198.63423,198.69183,96,59,0
198.74944,198.80934,93,40,0
198.6002,198.86525,88,38,0
198.56618,198.86925,84,38,0
198.86925,198.92915,88,41,0
198.98906,199.05197,84,36,0
199.1149,199.18358,81,36,0
199.25226,199.31314,88,38,0
199.37401,199.43811,84,38,0
199.50221,199.56293,81,38,0
199.64508,199.70497,95,59,0
199.76488,199.82677,92,40,0
199.60936,199.88246,88,38,0
199.57364,199.88864,83,38,0
199.88864,199.9635,88,41,0
200.03835,200.10126,98,41,0
200.16418,200.22467,95,45,0
200.28516,200.34564,88,41,0
200.40611,200.47755,92,38,0
200.549,200.61334,88,38,0
200.69081,200.7527,96,62,0
200.81458,200.87646,93,40,0
200.65703,200.93422,88,38,0
200.62325,200.93834,84,38,0
200.93834,201.01031,88,41,0
201.08229,201.14575,84,41,0
201.2092,201.26968,81,39,0
201.33017,201.39066,88,45,0
201.45113,201.51523,84,40,0
201.57935,201.63875,81,38,0
201.72786,201.78923,95,62,0
201.8506,201.91197,92,40,0
201.69072,201.96823,88,38,0
201.6536,201.97336,83,38,0
201.97336,202.04465,88,37,0
202.11594,202.18105,83,31,0
202.24614,202.30917,80,37,0
202.3722,202.44719,71,31,0
202.5222,202.7637,76,37,0
202.84596,202.96117,88,70,0
202.96117,203.07817,85,52,0
202.77791,203.07817,76,49,0
203.07817,203.19798,81,53,0
203.19798,203.32382,76,46,0
203.45291,203.57466,69,51,0
203.57466,203.70287,67,54,0
203.70287,203.83537,64,56,0
203.83537,203.89539,65,63,0
203.95538,204.02106,62,57,0
204.08673,204.1481,86,61,0
204.20947,204.2724,81,57,0
204.57726,204.64136,65,53,0
204.70546,204.7723,62,53,0
204.84778,204.96777,86,70,0
204.96777,205.08777,83,49,0
204.77971,205.08777,79,46,0
205.08777,205.20778,79,50,0
205.20778,205.33362,77,44,0
205.46269,205.58446,71,48,0
205.58446,205.71266,65,51,0
205.71266,205.84517,62,53,0
205.84517,205.90517,64,60,0
205.96516,206.03084,60,54,0
206.09651,206.1579,84,57,0
206.21927,206.28218,79,54,0
206.58704,206.65114,64,50,0
206.71524,206.80785,60,45,0
206.90045,206.96182,83,54,0
207.02321,207.08458,89,40,0
207.02321,207.08458,81,53,0
207.14595,207.20642,80,53,0
207.26492,207.32343,86,40,0
207.26492,207.32343,77,52,0
207.3821,207.44106,76,53,0
207.50002,207.55937,83,38,0
207.50002,207.55937,74,51,0
207.6188,207.67822,72,52,0
207.73808,207.79797,80,37,0
207.73808,207.79797,71,51,0
207.85806,207.91844,69,51,0
207.97884,208.03922,76,40,0
207.97884,208.03922,67,50,0
208.22038,208.28076,72,39,0
208.22038,208.28076,64,45,0
208.46193,208.52231,69,38,0
208.46193,208.52231,60,45,0
208.70348,208.77153,64,36,0
208.70348,208.77153,57,44,0
209.08113,209.14153,71,42,0
209.08113,209.14153,81,50,0
209.2019,209.2623,74,37,0
209.2019,209.2623,77,45,0
209.56422,209.62769,71,42,0
209.56422,209.62769,83,50,0
209.69113,209.75458,74,36,0
209.69113,209.75458,80,44,0
209.81804,209.89001,72,37,0
209.81804,209.89001,81,45,0
210.13014,210.22989,60,42,0
210.32962,210.4761,57,37,0
211.7857,213.52338,93,55,0
213.52338,213.83025,88,52,0
213.83025,214.13371,96,54,0
211.7857,214.13371,84,38,0
211.7857,214.13371,81,38,0
214.13371,214.4426,95,54,0
214.4426,214.72606,93,52,0
214.72606,215.00304,92,51,0
215.00304,215.29381,90,49,0
214.13371,215.58627,88,37,0
215.29381,215.58627,88,51,0
215.58627,215.86852,90,49,0
215.86852,216.17583,92,52,0
216.17583,216.49644,88,54,0
214.13371,216.49644,83,37,0
217.4931,217.53987,95,47,0
216.49644,217.58586,93,57,0
217.53987,217.58586,93,42,0
217.58586,217.63185,92,42,0
217.63185,217.90776,93,58,0
217.90776,218.1838,95,54,0
218.1838,218.46298,96,55,0
218.46298,218.7742,98,58,0
216.49644,218.7742,88,39,0
216.49644,218.7742,84,39,0
218.7742,219.59566,99,62,0
219.59566,219.89777,100,54,0
219.89777,221.06299,88,55,0
218.7742,221.06299,92,41,0
218.7742,221.06299,86,41,0
221.06299,222.81496,93,55,0
222.81496,223.12183,88,56,0
223.12183,223.42528,96,55,0
221.06299,223.42528,81,38,0
221.06299,223.42528,84,38,0
223.42528,223.73418,95,54,0
223.73418,224.01764,93,51,0
224.01764,224.2946,92,51,0
224.2946,224.58539,90,51,0
223.42528,224.87785,88,37,0
224.58539,224.87785,88,52,0
224.87785,225.16008,90,51,0
225.16008,225.4674,92,52,0
225.4674,225.78778,88,54,0
223.42528,225.78778,83,37,0
226.79471,226.83963,95,47,0
225.78778,226.8856,93,57,0
226.83963,226.8856,93,42,0
226.8856,226.93173,92,42,0
226.93173,227.20764,93,58,0
227.20764,227.48369,95,54,0
227.48369,227.76286,96,55,0
227.76286,228.06248,98,57,0
225.78778,228.06248,88,39,0
225.78778,228.06248,84,39,0
228.06248,228.87004,99,59,0
228.87004,229.17216,100,54,0
229.17216,230.36061,88,55,0
228.06248,230.36061,92,41,0
228.06248,230.36061,86,41,0
230.36061,231.82387,93,55,0
231.82387,232.10635,100,49,0
232.10635,232.38884,97,49,0
232.38884,232.65543,93,53,0
230.36061,232.65543,85,38,0
230.36061,232.65543,79,38,0
232.65543,232.92203,91,54,0
232.92203,233.18861,88,52,0
233.18861,233.45522,85,51,0
234.28296,234.56657,81,45,0
234.28296,234.56657,86,45,0
234.28296,234.56657,89,53,0
234.92047,236.36044,91,55,0
236.36044,236.65616,98,49,0
236.65616,236.93864,95,49,0
236.93864,237.22113,91,53,0
234.92047,237.22113,86,38,0
234.92047,237.22113,79,38,0
237.22113,237.50362,89,54,0
237.50362,237.77324,86,52,0
237.77324,238.04285,83,51,0
238.86801,239.17534,79,45,0
238.86801,239.17534,84,45,0
238.86801,239.17534,88,53,0
239.51265,240.95753,83,38,0
239.51265,240.95753,89,55,0
240.95753,241.23671,86,49,0
241.23671,241.51588,83,49,0
241.51588,241.79506,81,53,0
241.79506,242.07759,80,49,0
242.07759,242.35033,76,49,0
242.35033,242.62624,74,45,0
242.62624,242.93854,71,45,0
242.93854,243.22444,72,47,0
243.22444,243.51036,76,49,0
243.51036,243.78627,81,49,0
243.78627,244.06218,79,49,0
244.06218,244.34808,77,49,0
244.34808,244.63399,86,47,0
244.63399,244.91989,83,47,0
244.91989,245.2058,81,47,0
245.2058,245.53096,80,49,0
245.53096,245.85614,95,49,0
245.85614,246.1813,92,45,0
246.1813,246.46457,88,39,0
246.46457,246.57063,92,38,0
246.57063,247.78154,93,38,0
247.78154,248.13914,81,27,0
249.18611,249.26,52,69,0
249.26,249.33388,57,69,0
249.33388,249.40776,60,66,0
249.33388,249.40776,64,78,0
249.40776,249.48164,64,67,0
249.48164,249.55553,69,67,0
249.55553,249.63675,72,67,0
249.55553,249.63675,76,79,0
249.64578,249.73604,76,69,0
249.73604,249.8263,81,68,0
249.8263,249.90752,84,67,0
249.8263,249.90752,88,79,0
249.91653,250.00679,88,71,0
250.00679,250.09705,93,71,0
250.09705,250.1898,98,67,0
250.09705,250.1898,100,79,0
250.1898,250.28258,92,70,0
250.28258,250.36606,88,70,0
250.37534,250.46811,86,67,0
250.37534,250.46811,88,79,0
250.46811,250.56087,80,70,0
250.56087,250.64435,76,67,0
250.65363,250.7509,72,61,0
250.65363,250.7509,76,73,0
250.7509,250.84819,69,69,0
250.84819,250.93573,64,64,0
250.94547,251.26643,60,53,0
250.94547,251.26643,64,63,0
251.26643,251.41826,59,60,0
251.26643,251.41826,56,60,0
251.26643,251.41826,64,71,0
251.57008,252.11159,76,71,0
251.57008,252.11159,88,84,0
251.57008,252.11159,83,71,0
251.57008,252.11159,80,71,0
252.11159,252.6531,79,71,0
252.11159,252.6531,91,84,0
252.11159,252.6531,86,71,0
252.11159,252.6531,83,71,0
252.6531,253.2149,77,71,0
252.6531,253.2149,89,84,0
252.6531,253.2149,86,71,0
252.6531,253.2149,83,71,0
253.2149,253.55034,76,67,0
253.2149,253.55034,88,79,0
253.2149,253.55034,86,67,0
253.2149,253.55034,83,67,0
253.65677,253.7504,52,69,0
253.7504,253.84402,57,69,0
253.84402,253.9283,60,66,0
253.84402,253.9283,64,78,0
253.93767,254.0313,64,67,0
254.0313,254.12492,69,67,0
254.12492,254.20616,72,67,0
254.12492,254.20616,76,79,0
254.21518,254.30544,76,69,0
254.30544,254.39569,81,68,0
254.39569,254.48595,84,67,0
254.39569,254.48595,88,79,0
254.48595,254.57619,88,71,0
254.57619,254.66644,93,71,0
254.66644,254.7567,98,67,0
254.66644,254.7567,100,79,0
254.7567,254.84865,92,70,0
254.84865,254.9329,88,70,0
254.94228,255.0359,86,67,0
254.94228,255.0359,88,79,0
255.0359,255.12955,80,70,0
255.12955,255.2138,76,67,0
255.22318,255.32045,72,61,0
255.22318,255.32045,76,73,0
255.32045,255.41772,69,69,0
255.41772,255.50528,64,64,0
255.515,255.84036,60,53,0
255.515,255.84036,64,63,0
255.84036,256.00165,56,50,0
255.84036,256.00165,64,71,0
256.00165,256.1255,64,49,0
256.00165,256.1255,76,59,0
256.1255,256.24744,65,50,0
256.1255,256.24744,77,61,0
256.24744,256.3678,66,52,0
256.24744,256.3678,78,63,0
256.3678,256.4864,67,56,0
256.3678,256.4864,79,66,0
256.4864,256.60327,68,58,0
256.4864,256.60327,80,68,0
256.60327,256.71838,69,60,0
256.60327,256.71838,81,71,0
256.71838,256.83398,70,61,0
256.71838,256.83398,82,73,0
256.83398,256.95044,71,64,0
256.83398,256.95044,83,75,0
256.95044,257.0669,72,66,0
256.95044,257.0669,84,78,0
257.0669,257.18335,73,68,0
257.0669,257.18335,85,81,0
257.18335,257.30106,74,70,0
257.18335,257.30106,86,84,0
257.30106,257.42227,75,73,0
257.30106,257.42227,87,88,0
257.42227,257.54755,76,78,0
257.42227,257.54755,88,92,0
257.54755,257.67657,77,81,0
257.54755,257.67657,89,96,0
257.67657,257.91193,76,69,0
257.67657,257.91193,88,82,0
258.4108,258.50443,52,69,0
258.50443,258.59808,57,69,0
258.59808,258.68234,60,66,0
258.59808,258.68234,64,78,0
258.6917,258.78534,64,67,0
258.78534,258.87897,69,67,0
258.87897,258.9602,72,67,0
258.87897,258.9602,76,79,0
258.96924,259.05948,76,69,0
259.05948,259.14972,81,68,0
259.14972,259.23096,84,67,0
259.14972,259.23096,88,79,0
259.24,259.33023,88,71,0
259.33023,259.4205,93,71,0
259.4205,259.51324,98,67,0
259.4205,259.51324,100,79,0
259.51324,259.60602,92,70,0
259.60602,259.6988,88,70,0
259.6988,259.79153,86,67,0
259.6988,259.79153,88,79,0
259.79153,259.8843,80,70,0
259.8843,259.9678,76,67,0
259.97708,260.07434,72,61,0
259.97708,260.07434,76,73,0
260.07434,260.17163,69,69,0
260.17163,260.2592,64,64,0
260.2689,260.58987,60,53,0
260.2689,260.58987,64,63,0
260.58987,260.7417,59,60,0
260.58987,260.7417,56,60,0
260.58987,260.7417,64,71,0
260.89352,261.43503,76,71,0
260.89352,261.43503,88,84,0
260.89352,261.43503,83,71,0
260.89352,261.43503,80,71,0
261.43503,261.97656,79,71,0
261.43503,261.97656,91,84,0
261.43503,261.97656,86,71,0
261.43503,261.97656,83,71,0
261.97656,262.53836,77,71,0
261.97656,262.53836,89,84,0
261.97656,262.53836,86,71,0
261.97656,262.53836,83,71,0
262.53836,262.87378,76,67,0
262.53836,262.87378,88,79,0
262.53836,262.87378,86,67,0
262.53836,262.87378,83,67,0
262.9802,263.07385,52,69,0
263.07385,263.16748,57,69,0
263.16748,263.25174,60,66,0
263.16748,263.25174,64,78,0
263.2611,263.35474,64,67,0
263.35474,263.44836,69,67,0
263.44836,263.5296,72,67,0
263.44836,263.5296,76,79,0
263.53864,263.62888,76,69,0
263.62888,263.71912,81,68,0
263.71912,263.80035,84,67,0
263.71912,263.80035,88,79,0
263.8094,263.89963,88,71,0
263.89963,263.9899,93,71,0
263.9899,264.08014,98,67,0
263.9899,264.08014,100,79,0
264.08014,264.1721,92,70,0
264.1721,264.25635,88,70,0
264.26572,264.35934,86,67,0
264.26572,264.35934,88,79,0
264.35934,264.45297,80,70,0
264.45297,264.53726,76,67,0
264.54663,264.6439,72,61,0
264.54663,264.6439,76,73,0
264.6439,264.74118,69,69,0
264.74118,264.8287,64,64,0
264.83844,265.1638,60,53,0
264.83844,265.1638,64,63,0
265.1638,265.3251,56,50,0
265.1638,265.3251,64,71,0
265.3251,265.4489,64,49,0
265.3251,265.4489,76,59,0
265.4489,265.5709,65,50,0
265.4489,265.5709,77,61,0
265.5709,265.69122,66,52,0
265.5709,265.69122,78,63,0
265.69122,265.8098,67,56,0
265.69122,265.8098,79,66,0
265.8098,265.92673,68,58,0
265.8098,265.92673,80,68,0
265.92673,266.04184,69,60,0
265.92673,266.04184,81,71,0
266.04184,266.1574,70,61,0
266.04184,266.1574,82,73,0
266.1574,266.2739,71,64,0
266.1574,266.2739,83,75,0
266.2739,266.39035,72,66,0
266.2739,266.39035,84,78,0
266.39035,266.5068,73,68,0
266.39035,266.5068,85,81,0
266.5068,266.6245,74,70,0
266.5068,266.6245,86,84,0
266.6245,266.74573,75,73,0
266.6245,266.74573,87,88,0
266.74573,266.87097,76,78,0
266.74573,266.87097,88,92,0
266.87097,267.0,77,81,0
266.87097,267.0,89,96,0
267.0,267.40323,76,69,0
267.0,267.40323,88,82,0
267.50967,267.6033,61,59,0
267.6033,267.69693,64,59,0
267.69693,267.7812,69,69,0
267.79056,267.8842,69,59,0
267.8842,267.9778,73,59,0
267.9778,268.05905,79,60,0
267.9778,268.05905,82,71,0
268.06808,268.15833,82,62,0
268.15833,268.2486,85,62,0
268.2486,268.33884,91,62,0
268.2486,268.33884,94,74,0
268.33884,268.42908,85,66,0
268.42908,268.51935,82,66,0
268.51935,268.6096,89,60,0
268.51935,268.6096,93,72,0
268.6096,268.70154,85,64,0
268.70154,268.79517,81,64,0
268.79517,268.8888,77,59,0
268.79517,268.8888,81,70,0
268.8888,268.98242,73,70,0
268.98242,269.07608,69,62,0
269.07608,269.17334,76,44,0
269.07608,269.17334,79,61,0
269.17334,269.27063,70,68,0
269.27063,269.3679,69,63,0
269.3679,269.46518,64,52,0
269.3679,269.46518,67,62,0
269.46518,269.56244,58,61,0
269.56244,269.69324,57,59,0
269.69324,269.84256,65,75,0
269.69324,269.84256,62,66,0
269.97656,270.07645,73,53,0
270.06537,270.1645,74,52,0
269.97656,270.24127,67,53,0
270.15347,270.2522,76,53,0
270.24127,270.33945,77,55,0
270.32855,270.4261,79,56,0
270.24127,270.5017,74,55,0
270.41528,270.51242,81,57,0
270.5017,270.59818,85,58,0
270.58746,270.68335,86,59,0
270.5017,270.7564,79,58,0
270.6728,270.76675,88,59,0
270.7564,270.84802,89,60,0
270.83798,270.92746,91,61,0
270.7564,270.99548,86,60,0
270.9176,271.00522,93,62,0
270.99548,271.08423,97,62,0
271.07425,271.16492,98,63,0
270.99548,271.23685,91,62,0
271.1548,271.24725,100,64,0
271.23685,271.36307,101,66,0
271.23685,271.36307,98,66,0
271.23685,271.36307,93,66,0
271.8502,271.94382,59,59,0
271.94382,272.03748,62,59,0
272.03748,272.12173,67,69,0
272.1311,272.22473,67,59,0
272.22473,272.31836,71,59,0
272.31836,272.3996,77,60,0
272.31836,272.3996,80,71,0
272.4086,272.49887,80,62,0
272.49887,272.5891,83,62,0
272.5891,272.67938,89,62,0
272.5891,272.67938,92,74,0
272.67938,272.76962,83,66,0
272.76962,272.85986,80,66,0
272.85986,272.95013,88,60,0
272.85986,272.95013,91,72,0
272.95013,273.04208,83,64,0
273.04208,273.1357,79,64,0
273.1357,273.22934,76,59,0
273.1357,273.22934,79,70,0
273.22934,273.32297,71,68,0
273.32297,273.4166,67,62,0
273.4166,273.5139,74,44,0
273.4166,273.5139,77,61,0
273.5139,273.61115,68,68,0
273.61115,273.70844,67,63,0
273.70844,273.8057,62,52,0
273.70844,273.8057,65,62,0
273.8057,273.90298,56,61,0
273.90298,274.03378,55,59,0
274.03378,274.1831,64,75,0
274.03378,274.1831,60,63,0
274.3171,274.417,71,53,0
274.4059,274.50504,72,52,0
274.3171,274.58182,65,53,0
274.49402,274.5927,74,53,0
274.58182,274.68,76,55,0
274.66907,274.76663,77,56,0
274.58182,274.84222,72,55,0
274.7558,274.85297,79,57,0
274.84222,274.93872,83,58,0
274.928,275.02386,84,59,0
274.84222,275.09695,77,58,0
275.01334,275.1073,86,59,0
275.09695,275.18854,88,60,0
275.17853,275.26797,89,61,0
275.09695,275.33603,84,60,0
275.25815,275.34573,91,62,0
275.33603,275.42477,95,62,0
275.4148,275.50546,96,63,0
275.33603,275.5773,89,62,0
275.4953,275.5902,98,64,0
275.5773,275.73227,100,66,0
275.5773,275.73227,96,66,0
275.5773,275.73227,91,66,0
275.88724,275.9765,60,67,0
275.9765,276.0662,62,70,0
276.0662,276.15628,64,71,0
276.15628,276.44568,65,85,0
276.44568,276.7189,77,62,0
276.44568,276.7189,89,74,0
276.7189,277.0165,71,64,0
276.7189,277.0165,83,77,0
277.0165,277.1076,59,68,0
277.1076,277.19818,60,71,0
277.19818,277.28827,62,73,0
277.28827,277.57516,63,85,0
277.57516,277.8446,75,64,0
277.57516,277.8446,87,77,0
277.8446,278.1452,69,66,0
277.8446,278.1452,81,78,0
278.1452,278.2345,57,69,0
278.2345,278.32416,59,72,0
278.32416,278.41428,60,75,0
278.41428,278.69995,61,89,0
278.69995,278.96542,73,66,0
278.69995,278.96542,85,78,0
278.96542,279.2539,67,68,0
278.96542,279.2539,79,79,0
279.2539,279.3465,55,70,0
279.3465,279.43784,56,74,0
279.43784,279.52792,58,77,0
279.52792,279.8196,59,88,0
279.8196,280.1,71,68,0
279.8196,280.1,83,79,0
280.1,280.38785,65,69,0
280.1,280.38785,77,81,0
280.38785,280.48044,53,71,0
280.48044,280.574,56,75,0
280.574,280.66837,58,78,0
280.66837,280.9658,59,91,0
280.9658,281.25153,71,69,0
280.9658,281.25153,83,81,0
281.25153,281.53976,65,70,0
281.25153,281.53976,77,83,0
281.53976,281.63513,53,73,0
281.63513,281.73404,57,78,0
281.73404,281.83505,58,79,0
281.83505,282.15027,59,94,0
282.15027,282.4479,71,70,0
282.15027,282.4479,83,83,0
282.4479,282.7747,65,71,0
282.4479,282.7747,77,84,0
282.7747,282.887,57,92,0
282.887,283.01025,55,95,0
283.01025,283.13522,53,99,0
283.13522,283.442,52,106,0
283.74872,284.13434,71,77,0
283.74872,284.13434,83,90,0
283.74872,284.13434,81,90,0
283.74872,284.13434,76,77,0
284.51993,284.88226,64,96,0
285.24457,285.68704,76,75,0
285.24457,285.68704,88,89,0
285.24457,285.68704,83,89,0
285.24457,285.68704,80,75,0
286.22244,286.31415,52,59,0
286.31415,286.4039,57,59,0
286.4039,286.4847,60,69,0
286.4039,286.4847,64,69,0
286.49368,286.58344,64,59,0
286.58344,286.67322,69,59,0
286.67322,286.7519,72,60,0
286.67322,286.7519,76,71,0
286.76062,286.84802,76,62,0
286.84802,286.93546,81,62,0
286.93546,287.01413,84,62,0
286.93546,287.01413,88,74,0
287.02286,287.1154,88,66,0
287.1154,287.21304,93,66,0
287.21304,287.30704,96,60,0
287.21304,287.30704,100,72,0
287.30704,287.39893,93,64,0
287.39893,287.4797,88,64,0
287.48868,287.57843,84,59,0
287.48868,287.57843,88,70,0
287.57843,287.6682,81,66,0
287.6682,287.749,76,62,0
287.75797,287.85107,72,44,0
287.75797,287.85107,76,61,0
287.85107,287.94418,69,68,0
287.94418,288.02798,64,63,0
288.0373,288.134,60,52,0
288.0373,288.134,64,62,0
288.134,288.23523,57,61,0
288.23523,288.34143,52,59,0
288.43436,288.52606,52,59,0
288.52606,288.6158,57,59,0
288.6158,288.6952,61,69,0
288.6158,288.6952,64,69,0
288.704,288.79218,64,59,0
288.79218,288.88037,69,59,0
288.88037,288.95975,73,60,0
288.88037,288.95975,76,71,0
288.96857,289.05673,76,62,0
289.05673,289.14493,81,62,0
289.14493,289.22427,85,62,0
289.14493,289.22427,88,74,0
289.2331,289.32465,88,66,0
289.32465,289.41953,93,66,0
289.41953,289.51437,97,60,0
289.41953,289.51437,100,72,0
289.51437,289.60712,93,64,0
289.60712,289.68863,88,64,0
289.6977,289.78827,85,59,0
289.6977,289.78827,88,70,0
289.78827,289.87885,81,66,0
289.87885,289.9604,76,62,0
289.96942,290.0667,73,44,0
289.96942,290.0667,76,61,0
290.0667,290.1619,69,68,0
290.1619,290.24582,64,63,0
290.25528,290.35098,61,52,0
290.25528,290.35098,64,62,0
290.35098,290.44952,57,61,0
290.44952,290.5511,52,59,0
290.64398,290.7376,53,59,0
290.7376,290.83127,57,59,0
290.83127,290.91553,62,69,0
290.83127,290.91553,65,69,0
290.9249,291.01852,65,59,0
291.01852,291.11215,69,59,0
291.11215,291.1934,74,60,0
291.11215,291.1934,77,71,0
291.2024,291.29123,77,62,0
291.29123,291.37866,81,62,0
291.37866,291.45734,86,62,0
291.37866,291.45734,89,74,0
291.46606,291.55347,89,66,0
291.55347,291.6409,93,66,0
291.6409,291.7283,98,60,0
291.6409,291.7283,101,72,0
291.7283,291.8173,93,64,0
291.8173,291.89883,89,64,0
291.90787,291.99844,86,59,0
291.90787,291.99844,89,70,0
291.99844,292.08905,81,66,0
292.08905,292.17056,77,62,0
292.17963,292.2736,74,44,0
292.17963,292.2736,77,61,0
292.2736,292.36758,69,68,0
292.36758,292.45218,65,63,0
292.46158,292.55557,62,64,0
292.46158,292.55557,65,64,0
292.55557,292.64954,57,64,0
292.64954,292.74353,53,67,0
293.00714,293.29898,74,71,0
293.00714,293.29898,71,71,0
293.00714,293.29898,83,85,0
293.56973,293.86444,77,71,0
293.56973,293.86444,74,71,0
293.56973,293.86444,86,85,0
294.13766,294.41962,80,71,0
294.13766,294.41962,77,71,0
294.13766,294.41962,89,85,0
294.68417,294.99408,80,71,0
294.68417,294.99408,76,71,0
294.68417,294.99408,88,85,0
295.08698,295.17868,52,59,0
295.17868,295.26846,57,59,0
295.26846,295.34924,60,69,0
295.26846,295.34924,64,69,0
295.35822,295.448,64,59,0
295.448,295.53775,69,59,0
295.53775,295.61642,72,60,0
295.53775,295.61642,76,71,0
295.62515,295.7126,76,62,0
295.7126,295.8,81,62,0
295.8,295.87866,84,62,0
295.8,295.87866,88,74,0
295.8874,295.97766,88,66,0
295.97766,296.07077,93,66,0
296.07077,296.16135,96,60,0
296.07077,296.16135,100,72,0
296.16135,296.25153,93,64,0
296.25153,296.3323,88,64,0
296.3413,296.43106,84,59,0
296.3413,296.43106,88,70,0
296.43106,296.5208,81,66,0
296.5208,296.60162,76,62,0
296.6106,296.7037,72,44,0
296.6106,296.7037,76,61,0
296.7037,296.7968,69,68,0
296.7968,296.8806,64,63,0
296.88992,296.9839,60,52,0
296.88992,296.9839,64,62,0
296.9839,297.0818,57,61,0
297.0818,297.18393,52,59,0
297.27682,297.36853,52,59,0
297.36853,297.4583,57,59,0
297.4583,297.53766,61,69,0
297.4583,297.53766,64,69,0
297.54648,297.63467,64,59,0
297.63467,297.72287,69,59,0
297.72287,297.80222,73,60,0
297.72287,297.80222,76,71,0
297.81104,297.89923,76,62,0
297.89923,297.9874,81,62,0
297.9874,298.06677,85,62,0
297.9874,298.06677,88,74,0
298.0756,298.1671,88,66,0
298.1671,298.262,93,66,0
298.262,298.35687,97,60,0
298.262,298.35687,100,72,0
298.35687,298.44962,93,64,0
298.44962,298.53113,88,64,0
298.5402,298.63077,85,59,0
298.5402,298.63077,88,70,0
298.63077,298.72134,81,66,0
298.72134,298.80286,76,62,0
298.81192,298.9092,73,44,0
298.81192,298.9092,76,61,0
298.9092,299.0044,69,68,0
299.0044,299.0882,64,63,0
299.0975,299.1964,61,52,0
299.0975,299.1964,64,62,0
299.1964,299.29813,57,61,0
299.29813,299.4033,52,59,0
299.4962,299.5898,53,59,0
299.5898,299.68347,57,59,0
299.68347,299.76773,62,69,0
299.68347,299.76773,65,69,0
299.7771,299.87073,65,59,0
299.87073,299.96436,69,59,0
299.96436,300.0456,74,60,0
299.96436,300.0456,77,71,0
300.05463,300.14343,77,62,0
300.14343,300.23087,81,62,0
300.23087,300.30954,86,62,0
300.23087,300.30954,89,74,0
300.31827,300.40942,89,66,0
300.40942,300.5043,93,66,0
300.5043,300.59406,98,60,0
300.5043,300.59406,101,72,0
300.59406,300.68423,93,64,0
300.68423,300.76575,89,64,0
300.7748,300.8654,86,59,0
300.7748,300.8654,89,70,0
300.8654,300.95596,81,66,0
300.95596,301.0375,77,62,0
301.04654,301.14053,74,44,0
301.04654,301.14053,77,61,0
301.14053,301.23453,69,68,0
301.23453,301.31912,65,63,0
301.3285,301.42538,62,64,0
301.3285,301.42538,65,64,0
301.42538,301.52264,57,64,0
301.52264,301.61993,53,67,0
301.89166,302.1736,74,71,0
301.89166,302.1736,71,71,0
301.89166,302.1736,83,85,0
302.44293,302.73306,77,71,0
302.44293,302.73306,74,71,0
302.44293,302.73306,86,85,0
303.04105,303.3693,80,71,0
303.04105,303.3693,77,71,0
303.04105,303.3693,89,85,0
303.72305,304.15286,80,71,0
303.72305,304.15286,76,71,0
303.72305,304.15286,88,85,0
304.45447,304.55814,49,67,0
304.55814,304.65134,52,69,0
304.65134,304.74805,57,69,0
304.74805,304.84424,61,71,0
304.84424,304.94003,64,72,0
304.94003,305.03497,69,74,0
305.03497,305.12952,73,77,0
305.12952,305.2235,76,78,0
305.2235,305.31683,81,79,0
305.31683,305.40982,85,80,0
305.40982,305.50208,88,82,0
304.15286,305.50208,45,97,0
305.50208,305.61545,93,95,0
305.61545,305.70618,88,84,0
305.70618,305.7987,85,84,0
305.7987,305.8927,81,83,0
305.8927,305.98755,76,81,0
305.98755,306.08273,73,80,0
306.08273,306.17853,69,79,0
306.17853,306.275,64,78,0
306.275,306.37152,61,75,0
306.37152,306.4683,57,74,0
306.4683,306.5687,52,72,0
306.5687,306.67273,49,71,0
306.95206,307.05432,49,68,0
307.05432,307.14548,52,69,0
307.14548,307.23526,57,71,0
307.23526,307.32382,61,72,0
307.32382,307.41144,64,74,0
307.41144,307.49814,69,77,0
307.49814,307.58392,73,79,0
307.58392,307.67374,76,80,0
307.67374,307.76096,81,82,0
307.76096,307.84573,85,83,0
307.84573,307.9284,88,85,0
307.9284,308.00894,93,86,0
306.67273,308.00894,45,99,0
308.00894,308.11002,97,88,0
308.11002,308.19907,93,86,0
308.19907,308.28204,88,86,0
308.28204,308.3624,85,84,0
308.3624,308.44498,81,82,0
308.44498,308.52893,76,81,0
308.52893,308.61447,73,79,0
308.61447,308.7015,69,79,0
308.7015,308.79025,64,77,0
308.79025,308.88058,61,74,0
308.88058,308.9726,57,73,0
308.9726,309.0665,52,71,0
309.0665,309.16266,49,70,0
309.4054,309.49362,49,71,0
309.49362,309.58066,52,69,0
309.58066,309.66696,57,70,0
309.66696,309.7525,61,71,0
309.7525,309.8375,64,73,0
309.8375,309.92172,69,75,0
309.92172,310.00528,73,77,0
310.00528,310.0883,76,79,0
310.0883,310.1706,81,80,0
310.1706,310.25223,85,81,0
310.25223,310.33322,88,86,0
309.16266,310.33322,45,97,0
310.33322,310.43118,93,89,0
310.43118,310.59302,97,89,0
310.59302,310.71637,101,92,0
310.71637,310.82938,100,91,0
310.82938,310.92508,97,89,0
310.9291,311.01047,93,88,0
311.01047,311.0933,88,84,0
311.0933,311.1776,85,83,0
311.1776,311.26346,81,82,0
311.26346,311.35107,76,81,0
311.35107,311.44028,73,79,0
311.44028,311.53125,69,79,0
311.53125,311.62408,64,78,0
311.62408,311.71878,61,77,0
311.71878,311.8154,57,75,0
311.8154,311.91464,52,74,0
311.91464,312.02084,49,73,0
312.0134,312.15848,45,77,0
312.125,312.23666,46,69,0
312.2142,312.31012,45,77,0
312.2883,312.38168,46,70,0
312.3603,312.45544,45,79,0
312.43323,312.52957,46,69,0
312.50732,312.60278,45,77,0
312.5812,312.67368,46,70,0
312.6525,312.7458,45,78,0
312.72336,312.82065,46,69,0
312.7982,312.89255,45,73,0
312.87137,312.9619,46,70,0
312.94113,313.03204,45,75,0
313.01022,313.10587,46,70,0
313.08386,313.17642,45,77,0
313.15564,313.24573,46,74,0
313.22495,313.2977,45,79,0
313.2977,313.37332,46,79,0
313.37332,313.44766,47,80,0
313.44766,313.52637,48,83,0
313.52637,313.60388,49,85,0
313.60388,313.6822,50,88,0
313.6822,313.7617,51,89,0
313.7617,313.84198,52,91,0
313.84198,313.92328,53,94,0
313.92328,314.0054,52,96,0
314.0054,314.08615,51,97,0
314.08615,314.16534,50,96,0
314.16534,314.24374,49,94,0
314.24374,314.32065,48,93,0
314.32065,314.39633,47,92,0
314.39633,314.47195,46,90,0
314.47195,314.71744,45,105,0
314.96295,315.23618,69,83,0
314.96295,315.23618,81,99,0
314.96295,315.23618,76,99,0
314.96295,315.23618,73,83,0
315.5094,315.78262,81,83,0
315.5094,315.78262,93,99,0
315.5094,315.78262,88,99,0
315.5094,315.78262,85,83,0
0.4736835,0.74026275,45,34,0
0.5000687,0.75010526,52,37,0
0.526454,0.75010526,57,41,0
0.5528393,0.75010526,60,44,0
1.608409,1.8476813,52,36,0
1.6302431,1.8575238,59,38,0
1.6520772,1.8575238,64,42,0
1.6739112,1.8575238,68,45,0
2.7166615,2.9556482,45,33,0
2.738448,2.9654908,52,36,0
2.7602346,2.9654908,57,39,0
2.782021,2.9654908,60,42,0
3.837,4.08164,52,38,0
3.8581865,4.092324,59,36,0
3.8793728,4.092324,64,41,0
3.9005592,4.092324,68,45,0
4.9897604,5.2313666,45,29,0
5.011547,5.2414474,52,32,0
5.0333333,5.2414474,57,33,0
5.05512,5.2414474,60,36,0
6.1057434,6.3447304,52,28,0
6.12753,6.354573,59,31,0
6.1493163,6.354573,64,33,0
6.171103,6.354573,68,36,0
7.2180157,7.4567184,45,28,0
7.2397547,7.466561,52,31,0
7.2614937,7.466561,57,33,0
7.283233,7.466561,60,36,0
8.338951,8.581473,52,28,0
8.359785,8.592156,59,31,0
8.380618,8.592156,64,33,0
8.401451,8.592156,68,36,0
9.4895935,9.72188,45,34,0
9.5113325,9.731139,52,36,0
9.5330715,9.731139,57,40,0
9.554811,9.731139,61,43,0
10.578055,10.812907,50,36,0
10.599241,10.82275,57,37,0
10.620428,10.82275,62,40,0
10.641615,10.82275,65,43,0
11.677245,11.916231,43,35,0
11.699031,11.926074,50,37,0
11.720818,11.926074,55,41,0
11.742604,11.926074,59,45,0
12.772098,13.005889,48,39,0
12.793018,13.015731,55,39,0
12.813939,13.015731,60,42,0
12.83486,13.015731,64,45,0
13.87608,14.114782,50,33,0
13.897819,14.124625,53,35,0
13.919559,14.124625,59,37,0
13.941298,14.124625,65,39,0
14.993922,15.23348,48,32,0
15.059567,15.243323,64,38,0
15.037685,15.243323,60,36,0
16.523172,16.6571,57,36,0
16.523172,16.6571,63,36,0
16.144346,16.6571,53,44,0
17.055391,17.231863,56,33,0
17.055391,17.231863,62,33,0
16.6571,17.231863,52,40,0
17.231863,17.765196,57,40,0
17.231863,17.765196,60,40,0
17.765196,17.89853,64,33,0
17.765196,17.89853,69,33,0
18.298529,18.590736,45,29,0
18.32829,18.601067,52,32,0
18.358053,18.601067,57,33,0
18.387814,18.601067,61,36,0
18.977161,19.218126,69,32,0
18.977161,19.218126,64,27,0
18.977161,19.218126,61,27,0
19.45909,19.752245,50,29,0
19.548376,19.762661,65,36,0
19.503733,19.762661,57,32,0
20.13499,20.373085,69,32,0
20.13499,20.373085,65,27,0
20.13499,20.373085,62,27,0
20.611181,20.872593,43,29,0
20.684355,20.883053,59,36,0
20.647768,20.883053,50,32,0
21.262777,21.502777,67,32,0
21.262777,21.502777,62,27,0
21.262777,21.502777,59,27,0
21.742777,22.036894,48,29,0
21.832062,22.0474,64,36,0
21.78742,22.0474,55,32,0
22.416338,22.65256,67,35,0
22.416338,22.65256,64,29,0
22.92744,23.064524,58,36,0
22.888779,23.15946,50,32,0
22.966103,23.17001,65,39,0
23.526684,23.762905,62,29,0
23.526684,23.762905,65,35,0
24.043768,24.198618,60,36,0
23.999126,24.292759,48,32,0
24.088411,24.30322,64,39,0
24.723385,24.97132,60,28,0
24.723385,24.97132,64,34,0
25.629461,25.773693,57,34,0
25.629461,25.773693,63,34,0
25.240213,25.773693,53,37,0
26.216944,26.451355,56,31,0
26.216944,26.451355,62,31,0
25.773693,26.451355,52,37,0
26.451355,27.125587,57,37,0
26.451355,27.125587,60,37,0
27.125587,27.339874,64,31,0
27.125587,27.339874,69,31,0
27.886555,27.977648,57,61,0
28.242252,28.304493,57,48,0
28.366734,28.486256,57,57,0
28.486256,28.605778,60,54,0
28.605778,28.7253,59,57,0
28.7253,28.85135,57,54,0
28.85135,28.942076,64,59,0
29.205225,29.267725,52,48,0
29.330225,29.449747,52,57,0
29.449747,29.56927,55,54,0
29.56927,29.688791,53,57,0
29.688791,29.813791,52,54,0
29.813791,29.904154,57,61,0
30.167963,30.229692,57,48,0
30.29142,30.410942,57,57,0
30.410942,30.530464,60,54,0
30.530464,30.649986,59,57,0
30.649986,30.804625,57,54,0
30.804625,31.40758,64,61,0
31.40758,31.56887,52,46,0
31.99827,32.089363,57,48,0
32.350277,32.412518,57,38,0
32.47476,32.59428,57,45,0
32.59428,32.713802,60,43,0
32.713802,32.833324,59,45,0
32.833324,32.979664,57,43,0
32.979664,33.0686,64,46,0
33.32876,33.39126,52,38,0
33.45376,33.57328,52,45,0
33.57328,33.692802,55,43,0
33.692802,33.812325,53,45,0
33.812325,33.959385,52,43,0
33.959385,34.049747,57,48,0
34.313557,34.375282,57,38,0
34.43701,34.556534,57,45,0
34.556534,34.673267,60,43,0
34.673267,34.789997,59,45,0
34.789997,34.972923,57,43,0
34.972923,35.588776,64,48,0
35.588776,35.75452,52,36,0
36.099796,36.279472,69,43,0
36.070267,36.279472,64,41,0
36.03277,36.279472,57,39,0
36.544075,36.606316,69,48,0
36.668556,36.78808,69,57,0
36.78808,36.9076,70,54,0
36.9076,37.027122,69,57,0
37.027122,37.111156,67,54,0
37.15317,37.27414,65,59,0
37.111156,37.27414,50,53,0
37.50705,37.56955,62,48,0
37.63205,37.75157,62,57,0
37.75157,37.871094,65,54,0
37.871094,37.990616,64,57,0
37.990616,38.082077,62,54,0
38.13425,38.303604,67,44,0
38.108166,38.303604,62,40,0
38.082077,38.303604,55,37,0
38.56821,38.63045,67,48,0
38.69269,38.812214,67,57,0
38.812214,38.931736,69,54,0
38.931736,39.051258,67,57,0
39.051258,39.135292,65,54,0
39.177307,39.298275,64,59,0
39.135292,39.298275,48,53,0
39.53118,39.59368,60,48,0
39.65618,39.775703,60,57,0
39.775703,39.895226,64,54,0
39.895226,40.014748,62,57,0
40.014748,40.081417,60,54,0
40.156414,40.24939,65,48,0
40.118916,40.24939,56,36,0
40.081417,40.24939,50,32,0
40.51713,40.579372,59,38,0
40.641613,40.761135,59,45,0
40.761135,40.880657,62,43,0
40.880657,41.00018,60,45,0
41.00018,41.07335,59,43,0
41.07335,41.14652,48,42,0
41.14652,41.237247,64,46,0
41.500397,41.562897,57,38,0
41.625397,41.74492,57,45,0
41.74492,41.86444,60,43,0
41.86444,41.983963,59,45,0
41.983963,42.13102,57,43,0
42.515636,42.660564,59,38,0
42.13102,42.660564,53,48,0
42.792145,42.92372,64,43,0
42.92372,43.063255,62,45,0
43.063255,43.231796,59,43,0
42.660564,43.231796,52,45,0
43.231796,43.95807,57,48,0
43.95807,44.19429,72,36,0
43.95807,44.19429,64,27,0
44.90295,45.031662,45,51,0
45.021763,45.150234,44,48,0
45.140575,45.26695,45,51,0
45.256477,45.378212,44,48,0
44.90295,45.378212,41,43,0
45.842407,45.966946,52,51,0
45.957367,46.081753,51,48,0
46.072327,46.19791,52,51,0
45.842407,46.31909,40,43,0
45.842407,46.31909,44,43,0
46.185455,46.31909,51,48,0
46.79016,46.918335,45,45,0
46.908474,47.036488,44,43,0
47.02679,47.155754,45,45,0
47.14317,47.277603,44,41,0
46.79016,47.277603,41,38,0
47.74209,47.87355,52,43,0
47.863438,47.994564,51,40,0
47.984787,48.12403,52,42,0
47.74209,48.301517,40,36,0
47.74209,48.301517,44,36,0
48.10212,48.301517,51,39,0
48.791203,48.919914,57,51,0
48.910015,49.038483,56,48,0
49.028828,49.155197,57,51,0
49.144726,49.266464,56,48,0
48.791203,49.266464,53,43,0
49.730656,49.855198,64,51,0
49.84562,49.970005,63,48,0
49.96058,50.086163,64,51,0
49.730656,50.207344,52,43,0
49.730656,50.207344,56,43,0
50.073708,50.207344,63,48,0
50.678413,50.806587,57,45,0
50.796726,50.92474,56,43,0
50.915043,51.044006,57,45,0
51.03142,51.16585,56,41,0
50.678413,51.16585,53,38,0
51.63034,51.76124,64,43,0
51.75117,51.88182,63,40,0
51.872,52.011734,64,42,0
51.63034,52.189224,52,36,0
51.63034,52.189224,56,36,0
51.989822,52.189224,63,39,0
52.678905,52.807617,69,51,0
52.797718,52.92619,68,48,0
52.91653,53.0429,69,51,0
52.678905,53.154167,61,40,0
52.678905,53.154167,64,43,0
53.032433,53.154167,68,48,0
53.618362,53.7429,62,51,0
53.733322,53.857708,61,48,0
53.84828,53.973866,62,51,0
53.618362,54.095047,53,43,0
53.618362,54.095047,57,43,0
53.96141,54.095047,61,48,0
54.570568,54.698742,67,49,0
54.68888,54.816895,66,47,0
54.807198,54.936165,67,48,0
54.570568,55.05801,59,39,0
54.570568,55.05801,62,41,0
54.923576,55.05801,66,45,0
55.52523,55.64977,60,51,0
55.64019,55.76458,59,48,0
55.75515,55.880733,60,51,0
55.52523,56.001915,52,43,0
55.52523,56.001915,55,43,0
55.868282,56.001915,59,48,0
56.477894,56.606606,65,51,0
56.596706,56.725174,64,48,0
56.71552,56.84189,65,51,0
56.477894,56.953156,50,39,0
56.477894,56.953156,56,43,0
56.831417,56.953156,64,48,0
57.417347,57.54189,64,51,0
57.53231,57.656696,63,48,0
57.64727,57.772854,64,51,0
57.417347,57.894035,48,43,0
57.417347,57.894035,57,43,0
57.7604,57.894035,63,48,0
58.37274,58.500916,58,45,0
58.491055,58.61907,57,43,0
58.60937,58.738335,58,45,0
58.37274,58.86018,50,36,0
58.37274,58.86018,53,38,0
58.72575,58.86018,57,41,0
58.86018,59.091038,56,43,0
58.86018,59.091038,52,36,0
59.331562,59.462955,57,44,0
59.452393,59.59006,56,40,0
59.57916,59.722466,57,45,0
59.710014,59.843327,56,39,0
59.843327,59.90128,57,43,0
60.306934,60.43565,45,51,0
60.425747,60.55422,44,48,0
60.54456,60.670933,45,51,0
60.66046,60.723286,44,48,0
60.723286,60.79178,46,46,0
60.782196,60.90674,45,51,0
60.897156,61.021698,43,48,0
61.012115,61.13702,41,51,0
61.12708,61.24639,40,47,0
61.24639,61.37093,38,51,0
61.36135,61.485737,37,48,0
61.47631,61.601894,38,51,0
61.589443,61.664165,37,48,0
61.664165,61.732506,39,48,0
61.723076,61.845486,38,53,0
61.83621,61.956844,40,48,0
61.947567,62.070194,41,51,0
62.058926,62.204044,38,47,0
62.194145,62.322857,43,51,0
62.312958,62.441425,42,48,0
62.43177,62.55814,43,51,0
62.547672,62.610497,42,48,0
62.610497,62.678986,44,49,0
62.669407,62.793945,43,51,0
62.784367,62.908905,41,48,0
62.899326,63.02423,40,51,0
63.014286,63.1336,38,47,0
63.1336,63.25814,36,51,0
63.24856,63.372948,35,48,0
63.36352,63.489105,36,51,0
63.47665,63.551376,35,48,0
63.551376,63.619713,37,47,0
63.610287,63.732697,36,52,0
63.723415,63.844055,38,48,0
63.834774,63.9574,40,51,0
63.946133,64.091255,36,47,0
64.08135,64.21007,41,51,0
64.200165,64.328636,40,48,0
64.31898,64.44535,41,51,0
64.43488,64.4977,40,48,0
64.4977,64.56619,43,46,0
64.55662,64.68116,41,50,0
64.67158,64.79612,38,48,0
64.78654,64.91144,36,51,0
64.9015,65.03039,35,47,0
65.02081,65.14535,40,51,0
65.13577,65.260155,39,48,0
65.25073,65.37631,40,51,0
65.36386,65.43858,39,48,0
65.43858,65.50692,41,45,0
65.4975,65.6199,40,50,0
65.61063,65.73126,36,48,0
65.721985,65.84461,35,51,0
65.83334,65.96857,33,47,0
65.96857,66.11112,35,51,0
66.10015,66.24343,34,48,0
66.23174,66.38363,35,51,0
66.37195,66.512146,34,48,0
66.512146,66.77178,36,51,0
66.73606,67.269005,35,48,0
67.16475,68.42706,41,51,0
68.415794,68.55102,40,47,0
68.55102,68.664604,33,43,0
68.664604,68.77818,32,40,0
68.77818,68.89042,33,43,0
68.89042,68.95162,32,40,0
68.95162,69.02007,34,36,0
69.01053,69.125046,33,43,0
69.125046,69.239555,32,40,0
69.239555,69.354065,33,43,0
69.354065,69.47703,32,40,0
69.47703,69.59242,33,43,0
69.59242,69.70782,32,39,0
69.70782,69.82231,33,42,0
69.82231,69.88513,32,38,0
69.88513,69.95389,34,40,0
69.944046,70.062164,33,38,0
70.062164,70.18028,32,35,0
70.18028,70.29841,33,37,0
70.29841,70.42662,32,33,0
70.42662,70.55375,33,35,0
70.55375,70.68088,32,31,0
70.68088,70.8091,33,32,0
70.8091,70.870575,32,28,0
70.870575,70.942474,34,29,0
70.93206,71.05707,33,29,0
71.05707,71.182076,32,27,0
71.182076,71.33834,33,27,0
71.33834,71.549644,32,24,0
71.549644,71.92469,33,23,0
73.435524,73.58806,60,48,0
73.435524,73.58806,51,41,0
73.04983,73.58806,36,57,0
73.04983,73.58806,48,69,0
73.435524,73.58806,54,41,0
73.58806,73.717224,60,54,0
73.58806,73.717224,54,45,0
73.58806,73.717224,51,45,0
73.84639,74.110794,45,55,0
73.84639,74.110794,33,46,0
74.110794,74.37022,44,66,0
74.110794,74.37022,32,55,0
74.37022,74.65616,47,64,0
74.37022,74.65616,35,53,0
74.65616,75.18831,52,72,0
74.65616,75.18831,44,60,0
74.65616,75.18831,40,60,0
75.575806,75.726074,60,51,0
75.575806,75.726074,51,43,0
75.18831,75.726074,36,64,0
75.18831,75.726074,48,77,0
75.575806,75.726074,54,43,0
75.726074,75.85524,60,56,0
75.726074,75.85524,54,47,0
75.726074,75.85524,51,47,0
75.984406,76.24881,45,57,0
75.984406,76.24881,33,49,0
76.24881,76.515076,47,63,0
76.24881,76.515076,35,53,0
76.515076,76.80009,51,71,0
76.515076,76.80009,39,59,0
76.80009,77.08509,53,77,0
76.80009,77.08509,41,65,0
77.08509,77.2276,52,73,0
77.08509,77.2276,40,63,0
77.76961,77.92214,60,48,0
77.76961,77.92214,51,41,0
77.3701,77.92214,36,62,0
77.3701,77.92214,48,74,0
77.76961,77.92214,54,41,0
77.92214,78.05131,60,54,0
77.92214,78.05131,54,45,0
77.92214,78.05131,51,45,0
78.18047,78.44488,45,55,0
78.18047,78.44488,33,46,0
78.44488,78.7043,44,66,0
78.44488,78.7043,32,55,0
78.7043,78.99024,47,64,0
78.7043,78.99024,35,53,0
78.99024,79.52239,52,72,0
78.99024,79.52239,44,60,0
78.99024,79.52239,40,60,0
79.90989,80.060165,60,51,0
79.90989,80.060165,51,43,0
79.52239,80.060165,36,64,0
79.52239,80.060165,48,77,0
79.90989,80.060165,54,43,0
80.060165,80.18933,60,56,0
80.060165,80.18933,54,47,0
80.060165,80.18933,51,47,0
80.3185,80.5829,45,57,0
80.3185,80.5829,33,49,0
80.5829,80.84916,47,63,0
80.5829,80.84916,35,53,0
80.84916,81.13417,51,71,0
80.84916,81.13417,39,59,0
81.13417,81.41918,53,77,0
81.13417,81.41918,41,65,0
81.41918,81.56168,52,73,0
81.41918,81.56168,40,63,0
82.10369,82.256226,69,48,0
81.704185,82.256226,52,54,0
81.704185,82.256226,61,65,0
82.10369,82.256226,61,41,0
81.704185,82.256226,45,54,0
82.10369,82.256226,64,41,0
82.256226,82.38539,69,54,0
82.256226,82.38539,64,45,0
82.256226,82.38539,61,45,0
82.51456,82.77896,52,55,0
82.51456,82.77896,37,46,0
82.77896,83.03838,53,66,0
82.77896,83.03838,38,55,0
83.03838,83.324326,55,64,0
83.03838,83.324326,40,53,0
83.324326,83.58712,56,72,0
83.324326,83.58712,41,60,0
83.58712,83.85648,57,76,0
83.58712,83.85648,42,64,0
84.25599,84.40852,67,48,0
83.85648,84.40852,50,54,0
83.85648,84.40852,59,65,0
84.25599,84.40852,59,41,0
83.85648,84.40852,43,54,0
84.25599,84.40852,62,41,0
84.40852,84.53769,67,54,0
84.40852,84.53769,62,45,0
84.40852,84.53769,59,45,0
84.666855,84.93125,50,55,0
84.666855,84.93125,35,46,0
84.93125,85.19068,52,66,0
84.93125,85.19068,36,55,0
85.19068,85.47662,53,64,0
85.19068,85.47662,38,53,0
85.47662,85.73941,54,75,0
85.47662,85.73941,39,63,0
85.73941,86.00877,55,83,0
85.73941,86.00877,40,70,0
86.00877,86.13794,56,74,0
86.00877,86.13794,50,62,0
86.00877,86.13794,41,62,0
86.00877,86.13794,47,62,0
86.40828,86.560814,65,48,0
86.40828,86.560814,62,41,0
86.560814,86.692406,62,45,0
86.692406,86.83131,59,45,0
86.83131,86.96645,60,45,0
86.96645,87.11953,62,45,0
86.560814,87.11953,65,54,0
87.11953,87.248695,57,60,0
87.11953,87.248695,48,50,0
87.11953,87.248695,40,50,0
87.519035,87.68034,60,45,0
87.68034,87.83036,60,49,0
87.83036,87.96799,57,42,0
87.96799,88.108185,59,42,0
88.108185,88.25412,60,42,0
88.25412,88.8618,57,46,0
88.25412,88.8618,53,39,0
88.25412,88.8618,47,39,0
88.8618,89.49816,56,45,0
88.8618,89.49816,40,37,0
89.49816,89.67675,52,41,0
89.67675,89.83634,55,38,0
89.83634,90.01283,53,36,0
89.49816,90.21834,45,21,0
89.49816,90.21834,56,26,0
89.49816,90.21834,50,41,0
90.21834,90.477005,45,31,0
90.21834,90.477005,48,31,0
90.01283,90.477005,52,35,0
91.120285,91.202255,69,43,0
91.120285,91.202255,60,36,0
91.120285,91.202255,57,36,0
91.41936,91.48978,72,43,0
91.41936,91.48978,64,36,0
91.707985,91.778076,71,42,0
91.707985,91.778076,62,35,0
91.98836,92.05846,69,40,0
91.98836,92.05846,60,34,0
92.27073,92.33947,64,43,0
92.27073,92.33947,56,36,0
92.27073,92.33947,52,36,0
92.54465,92.61442,67,39,0
92.54465,92.61442,59,33,0
92.82372,92.893486,65,45,0
92.82372,92.893486,57,37,0
93.1041,93.17452,64,42,0
93.1041,93.17452,56,35,0
93.38579,93.46776,69,43,0
93.38579,93.46776,60,36,0
93.38579,93.46776,57,36,0
93.68486,93.75629,72,43,0
93.68486,93.75629,64,36,0
93.96923,94.03835,71,42,0
93.96923,94.03835,62,35,0
94.24573,94.31485,69,40,0
94.24573,94.31485,60,34,0
94.52615,94.66246,65,43,0
94.52615,94.66246,60,36,0
94.52615,94.66246,57,36,0
95.071815,95.22971,64,45,0
95.071815,95.22971,56,37,0
95.071815,95.22971,52,37,0
95.7034,95.78536,69,43,0
95.7034,95.78536,60,36,0
95.7034,95.78536,57,36,0
95.99576,96.063446,72,43,0
95.99576,96.063446,64,36,0
96.272644,96.343735,71,42,0
96.272644,96.343735,62,35,0
96.55701,96.6281,69,40,0
96.55701,96.6281,60,34,0
96.84136,96.9101,64,43,0
96.84136,96.9101,56,36,0
96.84136,96.9101,52,36,0
97.11529,97.1841,67,39,0
97.11529,97.1841,59,33,0
97.39052,97.45933,65,45,0
97.39052,97.45933,57,37,0
97.668976,97.7394,64,42,0
97.668976,97.7394,56,35,0
97.95067,98.02605,69,43,0
97.95067,98.02605,60,36,0
97.95067,98.02605,57,36,0
98.23656,98.30305,72,43,0
98.23656,98.30305,64,36,0
98.51105,98.58017,71,42,0
98.51105,98.58017,62,35,0
98.787544,98.857765,69,40,0
98.787544,98.857765,60,34,0
99.070175,99.20648,65,43,0
99.070175,99.20648,60,36,0
99.070175,99.20648,57,36,0
99.628456,99.786354,64,45,0
99.628456,99.786354,56,37,0
99.628456,99.786354,52,37,0
100.26003,100.34156,69,50,0
100.26003,100.34156,61,42,0
100.26003,100.34156,57,42,0
100.55821,100.63033,70,50,0
100.55821,100.63033,62,42,0
100.85023,100.92032,69,49,0
100.85023,100.92032,61,40,0
101.1306,101.2007,67,48,0
101.1306,101.2007,58,39,0
101.41297,101.48171,65,50,0
101.41297,101.48171,57,42,0
101.68689,101.75666,64,47,0
101.68689,101.75666,55,39,0
101.965965,102.03573,62,53,0
101.965965,102.03573,53,45,0
102.246346,102.316765,65,49,0
102.246346,102.316765,50,40,0
102.52803,102.60229,67,52,0
102.52803,102.60229,59,45,0
102.52803,102.60229,55,45,0
102.81168,102.8838,68,52,0
102.81168,102.8838,60,45,0
103.1037,103.17268,67,51,0
103.1037,103.17268,59,42,0
103.37394,103.441025,65,49,0
103.37394,103.441025,56,41,0
103.65029,103.71903,64,52,0
103.65029,103.71903,55,45,0
103.92421,103.99398,62,49,0
103.92421,103.99398,53,40,0
104.203285,104.27305,60,56,0
104.203285,104.27305,52,47,0
104.483665,104.554085,64,51,0
104.483665,104.554085,48,42,0
104.779144,104.98748,65,43,0
104.779144,104.98748,59,36,0
104.779144,104.98748,50,36,0
104.779144,104.98748,56,36,0
105.41197,105.57107,74,50,0
105.97732,106.18858,64,43,0
105.97732,106.18858,48,36,0
105.97732,106.18858,57,36,0
106.61634,106.77544,72,50,0
107.16762,107.23771,65,50,0
107.16762,107.23771,57,43,0
107.730354,107.80045,64,50,0
107.730354,107.80045,56,43,0
108.2931,108.4793,57,52,0
108.45526,108.62341,53,44,0
108.59949,108.76718,52,44,0
108.74315,108.91188,51,43,0
108.887726,109.05775,50,42,0
109.033356,109.20457,48,41,0
109.18005,109.35259,47,41,0
109.32784,109.47672,46,40,0
109.47672,109.64066,45,43,0
110.09322,110.26103,69,37,0
110.09322,110.26103,76,45,0
110.23341,110.42331,72,44,0
110.23341,110.42331,64,36,0
110.399155,110.49577,48,45,0
110.49577,110.59239,47,44,0
110.59239,110.68901,45,42,0
110.68901,110.84944,44,43,0
111.29849,111.46631,68,37,0
111.29849,111.46631,76,45,0
111.43868,111.62835,71,44,0
111.43868,111.62835,64,36,0
111.60443,111.70012,40,36,0
111.70012,111.795364,42,39,0
111.795364,111.89015,44,42,0
111.89015,112.05144,45,43,0
112.492096,112.66006,69,37,0
112.492096,112.66006,76,45,0
112.63228,112.82299,72,44,0
112.63228,112.82299,64,36,0
112.79895,112.8951,48,45,0
112.8951,112.99126,47,44,0
112.99126,113.08741,45,42,0
113.08741,113.23892,44,43,0
113.67907,113.84262,68,37,0
113.67907,113.84262,76,45,0
113.81925,114.015625,71,44,0
113.81925,114.015625,64,36,0
114.12798,114.2008,40,63,0
114.2008,114.27361,42,66,0
114.27361,114.34643,44,70,0
114.34643,114.51036,45,72,0
114.34643,114.51036,33,72,0
114.95869,115.126495,69,59,0
114.95869,115.126495,76,70,0
115.09887,115.28877,72,68,0
115.09887,115.28877,64,57,0
115.26462,115.36124,48,74,0
115.36124,115.457855,47,72,0
115.457855,115.554474,45,69,0
115.554474,115.7149,44,74,0
115.55848,115.71891,32,74,0
116.15325,116.32137,68,59,0
116.15325,116.32137,76,70,0
116.29344,116.48496,71,68,0
116.29344,116.48496,64,57,0
116.46104,116.55673,40,64,0
116.55673,116.65197,42,69,0
116.65197,116.74676,44,72,0
116.74676,116.900604,45,75,0
116.74676,116.900604,33,75,0
117.34716,117.51544,69,59,0
117.34716,117.51544,76,70,0
117.48735,117.679924,72,68,0
117.48735,117.679924,64,57,0
117.65589,117.752045,48,77,0
117.752045,117.8482,47,75,0
117.8482,117.94435,45,72,0
117.94435,118.09586,44,73,0
117.9494,118.100914,32,73,0
118.53601,118.694016,68,59,0
118.53601,118.694016,76,70,0
118.67054,118.860405,71,68,0
118.67054,118.860405,64,57,0
118.95844,119.03126,45,37,0
119.03126,119.10407,47,40,0
119.10407,119.17689,48,43,0
119.17689,119.34082,49,45,0
119.17689,119.34082,37,38,0
119.79339,119.9615,76,37,0
119.79339,119.9615,81,45,0
119.93357,120.12533,79,44,0
119.93357,120.12533,69,36,0
120.10117,120.19779,45,48,0
120.19779,120.2944,47,50,0
120.2944,120.39102,49,52,0
120.39102,120.55145,50,54,0
120.39102,120.55145,38,47,0
120.98847,121.15643,69,43,0
120.98847,121.15643,77,52,0
121.12866,121.31925,74,51,0
121.12866,121.31925,65,42,0
121.29533,121.39102,52,45,0
121.39102,121.48626,50,48,0
121.48626,121.58105,48,52,0
121.58105,121.74498,47,54,0
121.58105,121.74498,35,51,0
122.19754,122.368866,74,46,0
122.19754,122.368866,79,54,0
122.34109,122.531906,77,54,0
122.34109,122.531906,67,45,0
122.50775,122.60437,43,63,0
122.60437,122.70099,45,65,0
122.70099,122.79761,47,67,0
122.79761,122.95467,48,69,0
122.79761,122.95467,36,58,0
123.40037,123.56834,67,53,0
123.40037,123.56834,76,63,0
123.54056,123.73138,72,62,0
123.54056,123.73138,64,52,0
123.70722,123.80384,47,67,0
123.80384,123.90046,48,70,0
123.90046,123.99708,49,73,0
123.99708,124.16101,50,76,0
123.99708,124.16101,38,64,0
124.61432,124.78244,74,56,0
124.61432,124.78244,82,66,0
124.7545,124.94626,77,65,0
124.7545,124.94626,70,54,0
124.922104,125.01872,46,71,0
125.01872,125.11534,48,74,0
125.11534,125.21196,50,78,0
125.21196,125.37589,52,81,0
125.21196,125.37589,40,69,0
125.82845,125.99642,72,63,0
125.82845,125.99642,81,73,0
125.96864,126.15946,76,72,0
125.96864,126.15946,69,61,0
126.13531,126.231926,53,76,0
126.231926,126.328545,52,79,0
126.328545,126.42516,51,81,0
126.42516,126.589096,50,83,0
126.42516,126.589096,38,71,0
126.75303,126.84693,47,69,0
126.84693,126.94314,48,71,0
126.94314,127.04166,50,73,0
127.04166,127.194725,40,69,0
127.04166,127.194725,52,72,0
127.347786,127.45753,50,69,0
127.45753,127.56957,48,77,0
127.56957,127.68419,47,81,0
127.68419,127.85273,45,83,0
127.68419,127.85273,33,83,0
128.02127,128.19986,72,79,0
128.02127,128.19986,64,70,0
128.38507,128.57028,69,79,0
128.38507,128.57028,60,68,0
129.11943,129.229,36,63,0
129.11943,129.229,33,54,0
129.26541,129.37393,38,56,0
129.26541,129.37393,35,47,0
129.40999,129.51747,40,64,0
129.40999,129.51747,36,54,0
129.55319,129.65965,41,59,0
129.55319,129.65965,38,50,0
129.69504,129.80067,44,66,0
129.69504,129.80067,40,55,0
129.83588,129.94151,45,61,0
129.83588,129.94151,41,52,0
129.97673,130.08235,47,60,0
129.97673,130.08235,44,50,0
130.11757,130.2232,48,55,0
130.11757,130.2232,45,47,0
130.2584,130.35977,50,63,0
130.2584,130.35977,47,53,0
130.39355,130.4949,52,56,0
130.39355,130.4949,48,48,0
130.52869,130.63004,53,63,0
130.52869,130.63004,50,53,0
130.66382,130.76945,56,56,0
130.66382,130.76945,52,48,0
130.80467,130.90694,57,63,0
130.80467,130.90694,53,53,0
130.94102,131.0433,59,63,0
130.94102,131.0433,56,53,0
131.0774,131.17967,60,63,0
131.0774,131.17967,57,53,0
131.21376,131.32405,62,57,0
131.21376,131.32405,59,48,0
131.36081,131.46309,57,53,0
131.36081,131.46309,60,63,0
131.4976,131.60225,62,60,0
131.4976,131.60225,59,49,0
131.63757,131.7468,64,65,0
131.63757,131.7468,60,53,0
131.7832,131.90225,65,68,0
131.7832,131.90225,62,58,0
131.94194,132.0442,65,71,0
131.94194,132.0442,62,60,0
132.0783,132.18057,64,69,0
132.0783,132.18057,60,58,0
132.21466,132.35103,62,66,0
132.21466,132.35103,59,55,0
132.35103,132.49954,60,63,0
132.35103,132.49954,57,52,0
132.49954,132.64038,62,56,0
132.49954,132.64038,59,48,0
132.64038,132.78123,57,46,0
132.64038,132.78123,60,56,0
132.78123,132.92207,56,45,0
132.78123,132.92207,59,54,0
132.92207,133.06914,57,51,0
132.92207,133.06914,53,44,0
133.06914,133.7121,56,49,0
133.06914,133.7121,52,40,0
133.7121,133.8235,45,63,0
133.7121,133.8235,33,54,0
133.85991,133.96843,47,56,0
133.85991,133.96843,35,47,0
134.00449,134.11197,48,64,0
134.00449,134.11197,36,54,0
134.14769,134.25415,50,59,0
134.14769,134.25415,38,50,0
134.28954,134.39516,52,66,0
134.28954,134.39516,40,55,0
134.43037,134.53601,53,61,0
134.43037,134.53601,41,52,0
134.57121,134.67685,56,60,0
134.57121,134.67685,44,50,0
134.71207,134.8177,57,55,0
134.71207,134.8177,45,47,0
134.8529,134.95425,59,63,0
134.8529,134.95425,47,53,0
134.98804,135.0894,60,56,0
134.98804,135.0894,48,48,0
135.12318,135.22453,62,63,0
135.12318,135.22453,50,53,0
135.25832,135.36395,64,56,0
135.25832,135.36395,52,48,0
135.39915,135.50143,65,63,0
135.39915,135.50143,53,53,0
135.53552,135.6378,68,63,0
135.53552,135.6378,56,53,0
135.67189,135.77415,69,63,0
135.67189,135.77415,57,53,0
135.80826,135.91855,71,57,0
135.80826,135.91855,59,48,0
135.9553,136.05759,57,53,0
135.9553,136.05759,69,63,0
136.09209,136.19675,68,59,0
136.09209,136.19675,56,49,0
136.23207,136.34055,65,62,0
136.23207,136.34055,53,51,0
136.37712,136.48743,64,63,0
136.37712,136.48743,52,54,0
136.52419,136.62646,65,65,0
136.52419,136.62646,53,55,0
136.66055,136.76282,64,64,0
136.66055,136.76282,52,54,0
136.79692,136.93327,62,63,0
136.79692,136.93327,50,53,0
136.93327,137.08179,48,51,0
136.93327,137.08179,60,62,0
137.08179,137.22264,47,48,0
137.08179,137.22264,59,56,0
137.22264,137.36348,57,56,0
137.22264,137.36348,45,46,0
137.36348,137.50433,56,54,0
137.36348,137.50433,44,45,0
137.50433,137.65138,53,44,0
137.50433,137.65138,65,51,0
137.65138,138.23962,52,40,0
137.65138,138.23962,64,49,0
138.23962,138.3593,58,62,0
138.23962,138.3593,70,73,0
138.39641,138.50322,57,56,0
138.39641,138.50322,69,67,0
138.53859,138.64395,67,66,0
138.53859,138.64395,55,55,0
138.6789,138.783,64,66,0
138.6789,138.783,52,55,0
138.81746,138.9231,61,65,0
138.81746,138.9231,49,54,0
138.95831,139.06393,58,64,0
138.95831,139.06393,46,54,0
139.09915,139.20479,57,63,0
139.23999,139.34563,55,63,0
139.09915,139.38084,45,54,0
139.38084,139.4822,53,63,0
139.38084,139.4822,50,53,0
139.51598,139.61732,52,64,0
139.51598,139.61732,49,54,0
139.65111,139.75246,50,65,0
139.65111,139.75246,47,56,0
139.78624,139.89188,49,68,0
139.78624,139.89188,45,56,0
139.9271,140.02666,47,69,0
139.9271,140.02666,43,58,0
140.05984,140.15941,45,71,0
140.05984,140.15941,41,59,0
140.1926,140.29216,43,75,0
140.1926,140.29216,40,63,0
140.32536,140.45619,41,77,0
140.32536,140.45619,38,65,0
140.4998,140.61948,68,73,0
140.4998,140.61948,56,62,0
140.65659,140.76338,67,67,0
140.65659,140.76338,55,56,0
140.79877,140.90413,65,66,0
140.79877,140.90413,53,55,0
140.93906,141.04318,62,66,0
140.93906,141.04318,50,55,0
141.07764,141.18327,59,65,0
141.07764,141.18327,47,54,0
141.21848,141.32411,56,64,0
141.21848,141.32411,44,54,0
141.35933,141.46497,55,63,0
141.50017,141.6058,53,63,0
141.35933,141.64102,43,54,0
141.64102,141.74237,52,63,0
141.64102,141.74237,48,53,0
141.77615,141.8775,50,64,0
141.77615,141.8775,47,54,0
141.91129,142.01263,48,65,0
141.91129,142.01263,45,56,0
142.04642,142.15205,47,68,0
142.04642,142.15205,43,56,0
142.18727,142.28954,41,58,0
142.18727,142.28954,45,69,0
142.32362,142.4259,40,59,0
142.32362,142.4259,43,71,0
142.45999,142.55783,38,63,0
142.45999,142.55783,41,75,0
142.59044,142.71408,36,65,0
142.59044,142.71408,40,77,0
142.7553,142.89505,38,63,0
142.7553,142.89505,44,63,0
142.7553,142.89505,47,63,0
142.7553,142.89505,50,74,0
142.94164,143.04163,41,55,0
142.94164,143.04163,53,66,0
143.07497,143.17632,56,66,0
143.07497,143.17632,44,55,0
143.2101,143.31145,59,66,0
143.2101,143.31145,47,55,0
143.34523,143.45187,56,60,0
143.34523,143.45187,59,60,0
143.34523,143.45187,62,71,0
143.34523,143.45187,50,60,0
143.48741,143.59404,51,52,0
143.48741,143.59404,63,62,0
143.6296,143.73828,64,65,0
143.6296,143.73828,52,54,0
143.77452,143.88702,53,59,0
143.77452,143.88702,65,70,0
143.92451,144.06256,39,63,0
143.92451,144.06256,33,63,0
143.92451,144.06256,45,74,0
143.92451,144.06256,42,63,0
144.10857,144.20901,48,66,0
144.10857,144.20901,36,55,0
144.2425,144.3443,51,66,0
144.2425,144.3443,39,55,0
144.37825,144.48006,54,66,0
144.37825,144.48006,42,55,0
144.51399,144.62057,51,60,0
144.51399,144.62057,54,60,0
144.51399,144.62057,57,71,0
144.51399,144.62057,45,60,0
144.6563,144.76498,46,52,0
144.6563,144.76498,58,62,0
144.80122,144.90991,59,65,0
144.80122,144.90991,47,54,0
144.94615,145.05865,48,59,0
144.94615,145.05865,60,70,0
145.09615,145.20432,59,66,0
145.09615,145.20432,57,55,0
145.09615,145.20432,50,55,0
145.24037,145.34312,51,60,0
145.37737,145.4801,52,60,0
145.51436,145.62411,53,60,0
145.66069,145.94994,64,71,0
145.66069,145.94994,56,60,0
145.66069,145.94994,52,60,0
145.94994,146.29773,52,54,0
145.94994,146.29773,56,54,0
145.94994,146.29773,62,65,0
146.29773,147.14293,53,65,0
146.29773,147.14293,50,54,0
147.14293,147.74898,52,44,0
147.14293,147.74898,48,37,0
146.29773,147.74898,45,54,0
148.35504,148.54735,64,44,0
148.54735,148.69887,65,37,0
148.69887,148.85039,64,37,0
149.4329,149.66728,52,27,0
149.4329,149.66728,45,27,0
148.85039,149.90166,60,41,0
149.90166,150.07025,57,40,0
150.05432,150.19765,59,37,0
150.18172,150.32463,57,37,0
150.30911,150.44885,59,40,0
150.43333,150.57307,60,37,0
150.55756,150.69731,59,37,0
150.68178,150.82153,56,40,0
150.806,150.94576,57,36,0
150.93022,151.07089,56,36,0
151.05444,151.20247,52,39,0
151.18602,151.35492,53,35,0
151.31761,151.63255,52,35,0
151.61612,151.81348,56,25,0
151.61612,151.81348,45,25,0
152.01085,152.20316,64,44,0
152.20316,152.35583,65,37,0
152.35583,152.5085,64,37,0
153.07993,153.31615,52,31,0
153.07993,153.31615,45,31,0
152.5085,153.55237,60,41,0
153.55237,153.68394,57,45,0
153.68394,153.81552,59,44,0
153.81552,153.94711,57,46,0
153.94711,154.07133,56,53,0
154.07133,154.19556,57,53,0
154.19556,154.31978,55,56,0
154.31978,154.44798,54,61,0
154.44798,154.57619,55,56,0
154.57619,154.70439,53,57,0
154.70439,154.83597,52,63,0
154.83597,154.96754,53,56,0
154.96754,155.16957,52,56,0
155.16957,155.41751,40,72,0
155.66544,155.85774,64,44,0
155.85774,156.00926,65,37,0
156.00926,156.16078,64,37,0
156.7433,156.97768,52,27,0
156.7433,156.97768,45,27,0
156.16078,157.21205,60,41,0
157.21205,157.38065,57,40,0
157.36473,157.50804,59,37,0
157.49211,157.63503,57,37,0
157.6195,157.75925,59,40,0
157.74373,157.88348,60,37,0
157.86795,158.0077,59,37,0
157.99217,158.13193,56,40,0
158.1164,158.25615,57,36,0
158.24062,158.38129,56,36,0
158.36484,158.51286,52,39,0
158.49643,158.66531,53,35,0
158.628,158.94296,52,35,0
158.92651,159.12387,56,25,0
158.92651,159.12387,45,25,0
159.32124,159.51355,64,44,0
159.51355,159.66623,65,37,0
159.66623,159.8189,64,37,0
160.39032,160.62654,52,31,0
160.39032,160.62654,45,31,0
159.8189,160.86276,60,41,0
160.86276,160.99434,57,45,0
160.99434,161.12593,59,44,0
161.12593,161.2575,57,46,0
161.2575,161.38173,56,53,0
161.38173,161.50595,57,53,0
161.50595,161.63017,55,56,0
161.63017,161.75838,54,61,0
161.75838,161.88658,55,56,0
161.88658,162.01479,53,57,0
162.01479,162.14636,52,63,0
162.14636,162.27795,53,56,0
162.27795,162.47997,52,56,0
162.47997,162.73207,40,72,0
162.98418,163.17648,64,44,0
163.17648,163.32799,65,37,0
163.32799,163.4795,64,37,0
164.06203,164.2964,58,27,0
164.06203,164.2964,45,27,0
164.06203,164.2964,55,27,0
163.4795,164.53078,61,41,0
164.53078,164.71751,57,40,0
164.69885,164.86676,58,37,0
164.8481,165.0163,57,37,0
164.99736,165.16782,62,40,0
165.14886,165.3254,64,37,0
165.30038,165.51918,62,37,0
165.50038,165.92104,69,67,0
165.50038,165.92104,61,57,0
165.92104,166.3391,65,65,0
165.92104,166.3391,57,56,0
166.46306,166.66043,62,73,0
166.40108,166.66043,57,72,0
166.3391,166.66043,53,69,0
166.8578,167.05011,62,44,0
167.05011,167.20161,64,37,0
167.20161,167.35313,62,37,0
167.93565,168.17003,56,27,0
167.93565,168.17003,43,27,0
167.93565,168.17003,53,27,0
167.35313,168.4044,59,41,0
168.4044,168.59114,55,40,0
168.57248,168.74039,57,37,0
168.72173,168.88992,55,37,0
168.87099,169.04144,60,40,0
169.0225,169.19902,62,37,0
169.17401,169.3928,60,37,0
169.37401,169.79466,67,67,0
169.37401,169.79466,59,57,0
169.79466,170.21272,64,65,0
169.79466,170.21272,55,56,0
170.33669,170.65584,60,73,0
170.2747,170.65584,55,72,0
170.21272,170.65584,52,69,0
170.97499,171.18117,62,44,0
171.18117,171.35359,64,37,0
171.35359,171.526,62,37,0
172.18533,172.60788,59,27,0
172.18533,172.60788,50,27,0
171.526,173.03041,65,41,0
173.03041,173.11444,71,44,0
173.11444,173.19847,72,33,0
173.19847,173.2358,71,33,0
173.72595,173.93214,60,44,0
173.93214,174.10455,62,37,0
174.10455,174.27696,60,37,0
174.93631,175.31606,57,27,0
174.93631,175.31606,48,27,0
174.27696,175.6958,64,41,0
175.6958,175.77983,69,44,0
175.77983,175.86386,70,33,0
175.86386,175.90118,69,33,0
176.4671,176.96294,50,27,0
176.96294,177.4592,62,28,0
176.96294,177.4592,65,28,0
177.4592,177.96342,52,29,0
177.96342,178.45448,64,31,0
177.96342,178.45448,68,31,0
178.45448,179.02266,57,32,0
178.45448,179.02266,69,32,0
178.45448,179.02266,64,32,0
179.02266,179.26657,45,27,0
179.02266,179.26657,38,27,0
179.6891,180.11163,45,27,0
179.6891,180.11163,33,27,0
181.37924,181.4817,45,72,0
181.37924,181.4817,52,86,0
181.58415,181.66621,52,54,0
181.58415,181.66621,48,45,0
181.74828,181.83032,47,45,0
181.74828,181.83032,52,54,0
181.91238,182.00357,45,45,0
181.91238,182.00357,52,54,0
182.09476,182.18578,44,54,0
182.09476,182.18578,52,63,0
182.2768,182.3631,40,48,0
182.2768,182.3631,52,57,0
182.4494,182.54044,52,56,0
182.4494,182.54044,42,47,0
182.63145,182.74509,44,47,0
182.63145,182.74509,52,56,0
182.85873,182.95717,45,72,0
182.85873,182.95717,52,86,0
183.05559,183.13995,48,45,0
183.05559,183.13995,52,54,0
183.22432,183.30869,47,45,0
183.22432,183.30869,52,54,0
183.39305,183.48352,45,45,0
183.39305,183.48352,52,54,0
183.57399,183.66844,44,54,0
183.57399,183.66844,52,63,0
183.76291,183.85072,41,48,0
183.76291,183.85072,51,57,0
183.93855,184.03633,40,51,0
183.93855,184.03633,52,61,0
184.13411,184.24863,52,47,0
184.13411,184.24863,56,56,0
184.36314,184.4656,45,75,0
184.36314,184.4656,57,90,0
184.56805,184.64914,48,49,0
184.56805,184.64914,60,59,0
184.73022,184.8113,47,49,0
184.73022,184.8113,59,59,0
184.89238,184.98701,45,49,0
184.89238,184.98701,57,59,0
185.08165,185.1738,44,58,0
185.08165,185.1738,56,69,0
185.26593,185.35274,40,54,0
185.26593,185.35274,52,63,0
185.43954,185.53111,42,51,0
185.43954,185.53111,54,62,0
185.6227,185.7322,44,51,0
185.6227,185.7322,56,62,0
185.84169,185.94011,45,75,0
185.84169,185.94011,57,90,0
186.03854,186.12141,48,50,0
186.03854,186.12141,60,60,0
186.20428,186.28716,47,51,0
186.20428,186.28716,59,61,0
186.37003,186.4605,45,53,0
186.37003,186.4605,57,63,0
186.55096,186.6485,44,63,0
186.55096,186.6485,56,74,0
186.74603,186.83334,41,65,0
186.74603,186.83334,53,76,0
186.92065,187.01451,40,64,0
186.92065,187.01451,52,78,0
187.10838,187.2265,59,67,0
187.10838,187.2265,64,80,0
187.10838,187.2265,56,67,0
187.34462,187.44708,45,79,0
187.34462,187.44708,57,94,0
187.54955,187.63478,47,52,0
187.54955,187.63478,59,62,0
187.72,187.80524,61,62,0
187.72,187.80524,49,52,0
187.89047,187.99252,45,52,0
187.89047,187.99252,57,62,0
188.09456,188.19261,50,61,0
188.09456,188.19261,62,72,0
188.29065,188.47472,70,76,0
188.29065,188.47472,61,64,0
188.47472,188.66827,62,63,0
188.47472,188.66827,69,77,0
188.66827,188.87099,65,64,0
188.66827,188.87099,69,79,0
188.87099,188.9718,43,79,0
188.87099,188.9718,55,94,0
189.0726,189.15833,45,52,0
189.0726,189.15833,57,62,0
189.24405,189.32976,47,52,0
189.24405,189.32976,59,62,0
189.41548,189.52112,43,52,0
189.41548,189.52112,55,62,0
189.62752,189.7282,48,64,0
189.62752,189.7282,60,75,0
189.82887,190.01639,62,65,0
189.82887,190.01639,67,77,0
190.01639,190.21507,64,63,0
190.01639,190.21507,67,78,0
190.21507,190.42815,60,64,0
190.21507,190.42815,67,79,0
190.42815,190.52657,50,75,0
190.42815,190.52657,62,90,0
190.62498,190.75974,71,62,0
190.62498,190.75974,68,52,0
190.62498,190.75974,65,52,0
190.80464,190.93938,71,62,0
190.80464,190.93938,68,52,0
190.80464,190.93938,64,52,0
190.9843,191.12492,71,62,0
190.9843,191.12492,68,52,0
190.9843,191.12492,62,52,0
191.1718,191.32384,69,61,0
191.1718,191.32384,72,72,0
191.1718,191.32384,60,61,0
191.37453,191.51257,59,58,0
191.37453,191.51257,68,69,0
191.37453,191.51257,65,58,0
191.55858,191.70566,64,56,0
191.55858,191.70566,69,67,0
191.55858,191.70566,57,56,0
191.75467,191.92012,55,56,0
191.75467,191.92012,64,67,0
191.75467,191.92012,61,56,0
191.97528,192.13486,62,67,0
191.97528,192.13486,65,79,0
191.97528,192.13486,53,67,0
192.18806,192.34218,57,65,0
192.18806,192.34218,51,65,0
192.18806,192.34218,63,77,0
192.18806,192.34218,60,65,0
192.39355,192.56769,57,66,0
192.39355,192.56769,60,66,0
192.39355,192.56769,52,66,0
192.39355,192.56769,64,80,0
192.62817,192.84906,52,70,0
192.62817,192.84906,56,70,0
192.62817,192.84906,59,70,0
192.62817,192.84906,64,85,0
192.93835,193.42621,57,93,0
192.93835,193.42621,52,80,0
192.93835,193.42621,45,80,0
193.42621,193.70816,60,67,0
193.42621,193.70816,69,77,0
193.42621,193.70816,64,67,0
194.40819,194.46579,57,38,0
194.52339,194.58235,64,32,0
194.64131,194.7022,52,32,0
194.76306,194.82599,64,32,0
194.8889,194.9576,60,34,0
195.02628,195.08714,64,31,0
195.14803,195.21213,57,29,0
195.27623,195.34766,64,30,0
195.41908,195.47714,56,38,0
195.53519,195.59462,64,32,0
195.65404,195.7289,52,32,0
195.80374,195.86667,64,32,0
195.92958,195.99007,56,38,0
196.05055,196.11104,64,32,0
196.17152,196.24033,59,29,0
196.30914,196.3834,64,30,0
196.45097,196.50858,57,38,0
196.56618,196.62608,64,32,0
196.68599,196.75797,52,32,0
196.82994,196.89339,64,32,0
196.95685,197.01733,60,36,0
197.07782,197.13829,64,32,0
197.19878,197.26288,57,29,0
197.32698,197.40125,64,30,0
197.4755,197.5379,56,38,0
197.6003,197.66269,64,32,0
197.72508,197.79637,52,32,0
197.86768,197.93277,64,32,0
197.99788,198.0609,56,35,0
198.12393,198.19893,59,29,0
198.27393,198.63423,64,39,0
198.63423,198.69183,57,38,0
198.74944,198.80934,64,32,0
198.86925,198.92915,52,32,0
198.98906,199.05197,64,32,0
199.1149,199.18358,60,34,0
199.25226,199.31314,64,31,0
199.37401,199.43811,57,29,0
199.50221,199.57364,64,30,0
199.64508,199.70497,56,38,0
199.76488,199.82677,64,32,0
199.88864,199.9635,52,32,0
200.03835,200.10126,64,32,0
200.16418,200.22467,56,38,0
200.28516,200.34564,64,32,0
200.40611,200.47755,59,29,0
200.549,200.62325,64,30,0
200.69081,200.7527,57,38,0
200.81458,200.87646,64,32,0
200.93834,201.01031,52,32,0
201.08229,201.14575,64,32,0
201.2092,201.26968,60,36,0
201.33017,201.39066,64,32,0
201.45113,201.51523,57,29,0
201.57935,201.6536,64,30,0
201.72786,201.78923,56,38,0
201.8506,201.91197,64,32,0
201.97336,202.04465,52,32,0
202.11594,202.18105,64,32,0
202.24614,202.30917,59,33,0
202.3722,202.44719,68,26,0
202.5222,202.84596,64,32,0
202.84596,202.96117,61,49,0
202.96117,203.07817,69,41,0
203.07817,203.19798,57,41,0
203.19798,203.32382,69,41,0
203.32382,203.38837,73,44,0
203.83537,204.08673,57,54,0
203.83537,204.08673,50,54,0
204.33531,204.3958,77,56,0
204.45628,204.51677,74,49,0
204.84778,204.96777,59,46,0
204.96777,205.08777,67,38,0
205.08777,205.20778,55,38,0
205.20778,205.33362,67,38,0
205.33362,205.39816,74,41,0
205.84517,206.09651,55,51,0
205.84517,206.09651,48,51,0
206.34511,206.4056,76,53,0
206.46606,206.52655,72,46,0
206.90045,207.14595,62,32,0
206.90045,207.14595,56,32,0
206.90045,207.14595,65,38,0
207.85806,208.09961,60,32,0
207.85806,208.09961,64,38,0
208.09961,208.15999,65,45,0
208.34116,208.40154,62,45,0
208.5827,208.64308,59,45,0
208.83958,208.89998,65,45,0
208.96036,209.02075,50,45,0
209.32268,209.38307,68,45,0
209.44345,209.50385,52,45,0
209.96199,210.04607,64,35,0
209.96199,210.04607,69,42,0
210.62259,211.20853,45,38,0
211.7857,214.13371,69,38,0
214.13371,216.49644,74,38,0
214.13371,216.49644,69,38,0
216.49644,218.7742,69,38,0
216.49644,218.7742,72,38,0
218.7742,221.06299,69,38,0
218.7742,221.06299,71,38,0
221.06299,223.42528,69,38,0
223.42528,225.78778,74,38,0
223.42528,225.78778,69,38,0
225.78778,228.06248,72,38,0
225.78778,228.06248,69,38,0
228.06248,230.36061,69,38,0
228.06248,230.36061,71,38,0
230.36061,231.51958,69,38,0
233.45522,233.73112,81,50,0
233.73112,234.00703,79,50,0
234.00703,234.28296,77,49,0
234.28296,234.56657,76,48,0
234.56657,234.92047,74,46,0
234.92047,236.05275,71,38,0
238.04285,238.31247,79,50,0
238.31247,238.58838,77,50,0
238.58838,238.86801,76,49,0
238.86801,239.17534,74,48,0
239.17534,239.51265,72,46,0
239.51265,240.64825,74,38,0
239.51265,240.64825,68,36,0
242.35033,242.62624,80,41,0
242.35033,242.62624,88,49,0
242.93854,243.22444,81,40,0
242.93854,243.22444,88,47,0
243.51036,243.78627,85,40,0
243.51036,243.78627,88,47,0
244.06218,244.34808,86,41,0
244.06218,244.34808,89,49,0
245.2058,245.53096,86,44,0
245.2058,245.53096,76,36,0
248.85437,248.94032,40,69,0
248.94032,249.02628,42,74,0
249.02628,249.11223,44,79,0
246.57063,249.11223,81,34,0
246.57063,249.11223,84,40,0
249.33388,249.55553,57,79,0
249.11223,249.55553,33,69,0
249.11223,249.55553,45,81,0
249.8263,250.09705,60,79,0
249.55553,250.09705,36,69,0
249.55553,250.09705,48,82,0
250.37534,250.65363,59,77,0
250.09705,250.65363,35,69,0
250.09705,250.65363,47,82,0
250.94547,251.26643,57,77,0
250.65363,251.26643,33,69,0
250.65363,251.26643,45,81,0
251.36765,251.46886,32,58,0
251.46886,251.57008,35,59,0
251.57008,251.66032,40,60,0
251.66032,251.75058,44,61,0
251.75058,251.84084,47,62,0
251.84084,251.93109,52,64,0
251.93109,252.02135,56,63,0
252.02135,252.11159,59,66,0
252.11159,252.20184,64,67,0
252.20184,252.2921,68,68,0
252.2921,252.38235,71,69,0
252.38235,252.47261,76,73,0
252.47261,252.56285,71,70,0
252.56285,252.6531,68,70,0
252.6531,252.74675,64,69,0
252.74675,252.84038,59,69,0
252.84038,252.934,56,68,0
252.934,253.02765,52,67,0
253.02765,253.12128,47,66,0
253.12128,253.2149,44,64,0
253.2149,253.30855,40,63,0
253.30855,253.40285,35,62,0
253.40285,253.55034,32,61,0
253.84402,254.12492,57,79,0
253.55034,254.12492,45,81,0
253.55034,254.12492,33,69,0
254.39569,254.66644,60,79,0
254.12492,254.66644,36,69,0
254.12492,254.66644,48,82,0
254.94228,255.22318,59,77,0
254.66644,255.22318,35,69,0
254.66644,255.22318,47,82,0
255.515,255.84036,57,77,0
255.22318,255.84036,33,69,0
255.22318,255.84036,45,81,0
255.84036,256.00165,47,59,0
255.84036,256.00165,40,59,0
255.84036,256.00165,52,70,0
256.00165,256.1255,52,51,0
256.1255,256.24744,53,52,0
256.24744,256.3678,54,55,0
256.3678,256.4864,55,57,0
256.4864,256.60327,56,59,0
256.60327,256.71838,57,61,0
256.71838,256.83398,58,62,0
256.83398,256.95044,59,64,0
256.95044,257.0669,60,67,0
257.0669,257.18335,61,69,0
257.18335,257.30106,62,71,0
257.30106,257.42227,63,73,0
257.42227,257.54755,64,75,0
257.54755,257.67657,65,73,0
257.67657,257.91193,64,67,0
257.9904,258.0993,40,69,0
258.0993,258.20825,42,74,0
258.20825,258.31717,44,79,0
258.59808,258.87897,57,79,0
258.31717,258.87897,33,69,0
258.31717,258.87897,45,81,0
259.14972,259.4205,60,79,0
258.87897,259.4205,36,69,0
258.87897,259.4205,48,82,0
259.6988,259.97708,59,77,0
259.4205,259.97708,35,69,0
259.4205,259.97708,47,82,0
260.2689,260.58987,57,77,0
259.97708,260.58987,33,69,0
259.97708,260.58987,45,81,0
260.6911,260.7923,32,58,0
260.7923,260.89352,35,59,0
260.89352,260.98376,40,60,0
260.98376,261.07404,44,61,0
261.07404,261.16428,47,62,0
261.16428,261.25455,52,64,0
261.25455,261.3448,56,63,0
261.3448,261.43503,59,66,0
261.43503,261.5253,64,67,0
261.5253,261.61554,68,68,0
261.61554,261.7058,71,69,0
261.7058,261.79605,76,73,0
261.79605,261.8863,71,70,0
261.8863,261.97656,68,70,0
261.97656,262.0702,64,69,0
262.0702,262.16382,59,69,0
262.16382,262.25745,56,68,0
262.25745,262.35107,52,67,0
262.35107,262.44473,47,66,0
262.44473,262.53836,44,64,0
262.53836,262.632,40,63,0
262.632,262.7263,35,62,0
262.7263,262.87378,32,61,0
263.16748,263.44836,57,79,0
262.87378,263.44836,45,81,0
262.87378,263.44836,33,69,0
263.71912,263.9899,60,79,0
263.44836,263.9899,36,69,0
263.44836,263.9899,48,82,0
264.26572,264.54663,59,77,0
263.9899,264.54663,35,69,0
263.9899,264.54663,47,82,0
264.83844,265.1638,57,77,0
264.54663,265.1638,33,69,0
264.54663,265.1638,45,81,0
265.1638,265.3251,47,59,0
265.1638,265.3251,40,59,0
265.1638,265.3251,52,70,0
265.3251,265.4489,52,51,0
265.4489,265.5709,53,52,0
265.5709,265.69122,54,55,0
265.69122,265.8098,55,57,0
265.8098,265.92673,56,59,0
265.92673,266.04184,57,61,0
266.04184,266.1574,58,62,0
266.1574,266.2739,59,64,0
266.2739,266.39035,60,67,0
266.39035,266.5068,61,69,0
266.5068,266.6245,62,71,0
266.6245,266.74573,63,73,0
266.74573,266.87097,64,75,0
266.87097,267.0,65,73,0
267.0,267.40323,64,67,0
267.40323,267.69693,52,59,0
267.40323,267.69693,49,59,0
267.40323,267.69693,57,70,0
267.69693,267.9778,37,67,0
267.9778,268.2486,55,60,0
267.9778,268.2486,49,60,0
267.9778,268.2486,58,72,0
268.2486,268.51935,45,67,0
268.51935,268.79517,53,62,0
268.51935,268.79517,49,62,0
268.51935,268.79517,57,74,0
268.79517,269.07608,37,67,0
269.07608,269.3679,52,64,0
269.07608,269.3679,49,59,0
269.07608,269.3679,55,77,0
269.3679,269.69324,45,69,0
269.69324,269.84256,38,63,0
269.69324,269.84256,53,75,0
269.97656,270.10947,58,38,0
269.97656,270.10947,55,38,0
269.97656,270.10947,64,45,0
270.24127,270.372,62,39,0
270.24127,270.372,57,39,0
270.24127,270.372,65,47,0
270.5017,270.63034,70,40,0
270.5017,270.63034,67,40,0
270.5017,270.63034,76,48,0
270.7564,270.878,74,41,0
270.7564,270.878,69,41,0
270.7564,270.878,77,49,0
270.99548,271.11426,79,42,0
270.99548,271.11426,82,42,0
270.99548,271.11426,88,51,0
271.23685,271.36307,86,45,0
271.23685,271.36307,81,45,0
271.23685,271.36307,89,53,0
271.74377,272.03748,50,59,0
271.74377,272.03748,47,59,0
271.74377,272.03748,55,70,0
272.03748,272.31836,35,67,0
272.31836,272.5891,53,60,0
272.31836,272.5891,47,60,0
272.31836,272.5891,56,72,0
272.5891,272.85986,43,67,0
272.85986,273.1357,52,62,0
272.85986,273.1357,47,62,0
272.85986,273.1357,55,74,0
273.1357,273.4166,35,67,0
273.4166,273.70844,50,64,0
273.4166,273.70844,47,59,0
273.4166,273.70844,53,77,0
273.70844,274.03378,43,69,0
274.03378,274.1831,36,63,0
274.03378,274.1831,52,71,0
274.3171,274.45,56,38,0
274.3171,274.45,53,38,0
274.3171,274.45,62,45,0
274.58182,274.71255,60,39,0
274.58182,274.71255,55,39,0
274.58182,274.71255,64,47,0
274.84222,274.9709,65,40,0
274.84222,274.9709,74,48,0
274.84222,274.9709,68,40,0
275.09695,275.2185,72,41,0
275.09695,275.2185,67,41,0
275.09695,275.2185,76,49,0
275.33603,275.4548,77,42,0
275.33603,275.4548,80,42,0
275.33603,275.4548,86,51,0
275.5773,275.73227,84,45,0
275.5773,275.73227,79,45,0
275.5773,275.73227,88,53,0
275.88724,275.9765,48,61,0
275.9765,276.0662,50,66,0
276.0662,276.15628,52,69,0
276.15628,276.44568,41,74,0
276.15628,276.44568,53,74,0
276.44568,276.7189,59,58,0
276.44568,276.7189,62,58,0
276.44568,276.7189,68,69,0
276.7189,277.0165,59,59,0
276.7189,277.0165,62,59,0
276.7189,277.0165,68,69,0
277.0165,277.28827,47,72,0
277.0165,277.28827,35,60,0
277.28827,277.57516,39,79,0
277.28827,277.57516,51,79,0
277.57516,277.8446,57,59,0
277.57516,277.8446,60,59,0
277.57516,277.8446,66,69,0
277.8446,278.1452,57,55,0
277.8446,278.1452,60,58,0
277.8446,278.1452,66,68,0
278.1452,278.41428,45,74,0
278.1452,278.41428,33,62,0
278.41428,278.69995,37,79,0
278.41428,278.69995,49,79,0
278.69995,278.96542,55,60,0
278.69995,278.96542,58,60,0
278.69995,278.96542,64,71,0
278.96542,279.2539,55,60,0
278.96542,279.2539,58,60,0
278.96542,279.2539,64,72,0
279.2539,279.52792,43,75,0
279.2539,279.52792,31,63,0
279.52792,279.8196,35,83,0
279.52792,279.8196,47,83,0
279.8196,280.1,53,61,0
279.8196,280.1,56,61,0
279.8196,280.1,62,72,0
280.1,280.38785,53,62,0
280.1,280.38785,56,62,0
280.1,280.38785,62,73,0
280.38785,280.66837,41,78,0
280.38785,280.66837,29,64,0
280.66837,280.9658,35,85,0
280.66837,280.9658,47,85,0
280.9658,281.25153,53,62,0
280.9658,281.25153,57,62,0
280.9658,281.25153,62,74,0
281.25153,281.53976,53,63,0
281.25153,281.53976,57,63,0
281.25153,281.53976,62,75,0
281.53976,281.83505,41,79,0
281.53976,281.83505,29,67,0
281.83505,282.15027,35,86,0
281.83505,282.15027,47,86,0
282.15027,282.4479,53,64,0
282.15027,282.4479,57,64,0
282.15027,282.4479,63,77,0
282.4479,282.7747,53,64,0
282.4479,282.7747,57,64,0
282.4479,282.7747,63,77,0
282.7747,282.887,45,79,0
282.887,283.01025,43,82,0
283.01025,283.13522,41,85,0
283.13522,283.442,40,89,0
283.74872,284.13434,52,68,0
283.74872,284.13434,64,80,0
283.74872,284.13434,59,80,0
283.74872,284.13434,57,68,0
284.51993,284.88226,40,74,0
284.51993,284.88226,52,89,0
285.24457,285.68704,52,68,0
285.24457,285.68704,64,80,0
285.24457,285.68704,59,80,0
285.24457,285.68704,56,68,0
286.12955,286.4039,36,73,0
286.12955,286.4039,45,88,0
286.12955,286.4039,33,73,0
286.13293,286.4073,40,73,0
286.53854,286.67322,57,78,0
286.67322,286.80432,57,82,0
286.80432,286.93546,60,79,0
286.93546,287.06656,59,83,0
287.06656,287.21304,57,79,0
287.21304,287.48868,64,85,0
287.62332,287.75797,40,80,0
287.75797,287.89764,40,85,0
287.89764,288.0373,43,80,0
288.0373,288.18417,41,86,0
288.18417,288.34143,40,80,0
288.34143,288.6158,37,73,0
288.34143,288.6158,45,88,0
288.34143,288.6158,33,73,0
288.34485,288.61914,40,73,0
288.7481,288.88037,57,79,0
288.88037,289.01263,57,83,0
289.01263,289.14493,60,78,0
289.14493,289.2772,58,82,0
289.2772,289.41953,57,79,0
289.41953,289.6977,67,83,0
289.83356,289.96942,45,81,0
289.96942,290.11536,45,86,0
290.11536,290.25528,48,81,0
290.25528,290.3998,46,86,0
290.3998,290.5511,45,79,0
290.5511,290.83127,41,73,0
290.5511,290.83127,45,73,0
290.5511,290.83127,50,88,0
290.5511,290.83127,38,73,0
290.9717,291.11215,57,79,0
291.11215,291.24753,57,83,0
291.24753,291.37866,60,77,0
291.37866,291.50977,58,82,0
291.50977,291.6409,57,73,0
291.6409,291.90787,65,85,0
292.04376,292.17963,38,81,0
292.17963,292.3206,38,89,0
292.3206,292.46158,37,82,0
292.46158,292.60254,38,88,0
292.60254,292.74353,40,80,0
293.00714,293.29898,62,68,0
293.00714,293.29898,65,80,0
292.74353,293.29898,53,89,0
292.74353,293.29898,41,74,0
293.00714,293.29898,56,68,0
293.56973,293.86444,59,69,0
293.56973,293.86444,68,81,0
293.29898,293.86444,56,89,0
293.29898,293.86444,44,75,0
293.56973,293.86444,65,69,0
294.13766,294.41962,62,68,0
294.13766,294.41962,71,80,0
293.86444,294.41962,59,89,0
293.86444,294.41962,47,74,0
294.13766,294.41962,68,68,0
294.68417,294.99408,56,70,0
294.68417,294.99408,64,83,0
294.41962,294.99408,52,90,0
294.41962,294.99408,40,77,0
294.68417,294.99408,59,70,0
294.99408,295.26846,36,73,0
294.99408,295.26846,45,88,0
294.99408,295.26846,33,73,0
294.99747,295.27182,40,73,0
295.4031,295.53775,57,79,0
295.53775,295.66888,57,84,0
295.66888,295.8,60,79,0
295.8,295.93112,59,86,0
295.93112,296.07077,57,79,0
296.07077,296.3413,64,88,0
296.47595,296.6106,40,80,0
296.6106,296.75024,40,85,0
296.75024,296.88992,43,80,0
296.88992,297.03226,41,86,0
297.03226,297.18393,40,80,0
297.18393,297.4583,37,73,0
297.18393,297.4583,45,88,0
297.18393,297.4583,33,73,0
297.18732,297.4616,40,73,0
297.59058,297.72287,57,79,0
297.72287,297.85513,57,83,0
297.85513,297.9874,60,79,0
297.9874,298.1197,58,82,0
298.1197,298.262,57,78,0
298.262,298.5402,67,84,0
298.67606,298.81192,45,81,0
298.81192,298.95782,45,86,0
298.95782,299.0975,48,81,0
299.0975,299.2469,46,86,0
299.2469,299.4033,45,79,0
299.4033,299.68347,41,73,0
299.4033,299.68347,45,73,0
299.4033,299.68347,50,88,0
299.4033,299.68347,38,73,0
299.8239,299.96436,57,80,0
299.96436,300.09973,57,83,0
300.09973,300.23087,60,79,0
300.23087,300.36197,58,83,0
300.36197,300.5043,57,77,0
300.5043,300.7748,65,82,0
300.91068,301.04654,38,81,0
301.04654,301.18753,38,89,0
301.18753,301.3285,37,82,0
301.3285,301.474,38,88,0
301.474,301.61993,40,80,0
301.89166,302.1701,56,68,0
301.89166,302.1736,65,80,0
301.61993,302.1736,53,89,0
301.61993,302.1736,41,74,0
301.89166,302.1736,62,68,0
302.44293,302.72943,59,69,0
302.44293,302.73306,68,81,0
302.1736,302.73306,56,89,0
302.1736,302.73306,44,75,0
302.44293,302.73306,65,69,0
303.04105,303.3693,62,68,0
303.04105,303.3693,71,80,0
302.73306,303.3693,59,89,0
302.73306,303.3693,47,74,0
303.04105,303.3693,68,68,0
303.72305,304.15286,56,70,0
303.72305,304.15286,64,83,0
303.3693,304.15286,52,90,0
303.3693,304.15286,40,77,0
303.72305,304.15286,59,70,0
304.45447,304.55814,37,61,0
304.55814,304.65134,40,62,0
304.65134,304.74805,45,63,0
304.74805,304.84424,49,63,0
304.84424,304.94003,52,64,0
304.94003,305.03497,57,66,0
305.03497,305.12952,61,67,0
305.12952,305.2235,64,68,0
305.2235,305.31683,69,69,0
305.31683,305.40982,73,69,0
305.40982,305.50208,76,69,0
304.15286,305.50208,33,88,0
305.50208,305.61545,81,80,0
305.61545,305.70618,76,70,0
305.70618,305.7987,73,70,0
305.7987,305.8927,69,69,0
305.8927,305.98755,64,69,0
305.98755,306.08273,61,68,0
306.08273,306.17853,57,67,0
306.17853,306.275,52,66,0
306.275,306.37152,49,64,0
306.37152,306.4683,45,63,0
306.4683,306.5687,40,63,0
306.5687,306.67273,37,61,0
306.95206,307.05432,37,56,0
307.05432,307.14548,40,58,0
307.14548,307.23526,45,59,0
307.23526,307.32382,49,60,0
307.32382,307.41144,52,62,0
307.41144,307.49814,57,64,0
307.49814,307.58392,61,67,0
307.58392,307.67374,64,69,0
307.67374,307.76096,69,70,0
307.76096,307.84573,73,71,0
307.84573,307.9284,76,72,0
307.9284,308.00894,81,74,0
306.67273,308.00894,33,85,0
308.00894,308.11002,85,75,0
308.11002,308.19907,81,74,0
308.19907,308.28204,76,73,0
308.28204,308.3624,73,72,0
308.3624,308.44498,69,70,0
308.44498,308.52893,64,69,0
308.52893,308.61447,61,69,0
308.61447,308.7015,57,67,0
308.7015,308.79025,52,64,0
308.79025,308.88058,49,63,0
308.88058,308.9726,45,61,0
308.9726,309.0665,40,60,0
309.0665,309.16266,37,59,0
309.4054,309.49362,37,59,0
309.49362,309.58066,40,59,0
309.58066,309.66696,45,61,0
309.66696,309.7525,49,62,0
309.7525,309.8375,52,63,0
309.8375,309.92172,57,66,0
309.92172,310.00528,61,67,0
310.00528,310.0883,64,69,0
310.0883,310.1706,69,69,0
310.1706,310.25223,73,71,0
310.25223,310.33322,76,72,0
309.16266,310.33322,33,88,0
310.33322,310.43118,81,74,0
310.43118,310.59302,85,75,0
310.59302,310.71637,89,78,0
310.71637,310.82938,88,77,0
310.82938,310.92508,85,77,0
310.9291,311.01047,81,74,0
311.01047,311.0933,76,72,0
311.0933,311.1776,73,71,0
311.1776,311.26346,69,69,0
311.26346,311.35107,64,69,0
311.35107,311.44028,61,67,0
311.44028,311.53125,57,66,0
311.53125,311.62408,52,63,0
311.62408,311.71878,49,62,0
311.71878,311.8154,45,60,0
311.8154,311.91464,40,59,0
311.91464,312.02084,37,58,0
312.0134,312.15848,33,67,0
312.125,312.23666,34,59,0
312.2142,312.31012,33,64,0
312.2883,312.38168,34,58,0
312.3603,312.45544,33,64,0
312.43323,312.52957,34,58,0
312.50732,312.60278,33,64,0
312.5812,312.67368,34,58,0
312.6525,312.7458,33,64,0
312.72336,312.82065,34,58,0
312.7982,312.89255,33,66,0
312.87137,312.9619,34,59,0
312.94113,313.03204,33,66,0
313.01022,313.10587,34,60,0
313.08386,313.17642,33,66,0
313.15564,313.24573,34,59,0
313.22495,313.2977,33,62,0
313.2977,313.37332,34,64,0
313.37332,313.44766,35,67,0
313.44766,313.52637,36,69,0
313.52637,313.60388,37,71,0
313.60388,313.6822,38,73,0
313.6822,313.7617,39,75,0
313.7617,313.84198,40,78,0
313.84198,313.92328,41,80,0
313.92328,314.0054,40,81,0
314.0054,314.08615,39,80,0
314.08615,314.16534,38,80,0
314.16534,314.24374,37,79,0
314.24374,314.32065,36,79,0
314.32065,314.39633,35,79,0
314.39633,314.47195,34,78,0
314.47195,314.71744,33,89,0
314.96295,315.23618,45,70,0
314.96295,315.23618,57,84,0
314.96295,315.23618,52,77,0
314.96295,315.23618,49,70,0
315.5094,315.78262,57,70,0
315.5094,315.78262,69,84,0
315.5094,315.78262,64,77,0
315.5094,315.78262,61,70,0
211.7857,211.88414,76,17,0
211.88414,211.98032,77,17,0
211.98032,212.07477,76,18,0
212.07477,212.16852,77,18,0
212.16852,212.26198,76,18,0
212.26198,212.35437,77,18,0
212.35437,212.4454,76,18,0
212.4454,212.53632,77,20,0
212.53632,212.62723,76,20,0
212.62723,212.71854,77,22,0
212.71854,212.81271,76,23,0
212.81271,212.91162,77,23,0
212.91162,213.01555,76,22,0
213.01555,213.11948,77,22,0
213.11948,213.21931,76,22,0
213.21931,213.31728,77,22,0
213.31728,213.41696,76,22,0
213.41696,213.52338,77,22,0
213.52338,213.62871,76,22,0
213.62871,213.73038,77,22,0
213.73038,213.83025,76,22,0
213.83025,213.93427,77,22,0
213.93427,214.03209,76,22,0
214.03209,214.13371,77,22,0
214.13371,214.23781,76,21,0
214.23781,214.3419,77,21,0
214.3419,214.4426,76,21,0
214.4426,214.53937,77,22,0
214.53937,214.63382,76,22,0
214.63382,214.72606,77,22,0
214.72606,214.81645,76,23,0
214.81645,214.90843,77,24,0
214.90843,215.00304,76,24,0
215.00304,215.0995,77,25,0
215.0995,215.19597,76,26,0
215.19597,215.29381,77,29,0
215.29381,215.39317,76,31,0
215.39317,215.49052,77,30,0
215.49052,215.58627,76,29,0
215.58627,215.68016,77,29,0
215.68016,215.77364,76,29,0
215.77364,215.86852,77,27,0
215.86852,215.96426,76,25,0
215.96426,216.06622,77,25,0
216.06622,216.17583,76,25,0
216.17583,216.28229,77,25,0
216.28229,216.3892,76,25,0
216.3892,216.49644,77,23,0
216.49644,216.60173,76,19,0
216.60173,216.69853,77,23,0
216.69853,216.79555,76,24,0
216.79555,216.88899,77,24,0
216.88899,216.97905,76,25,0
216.97905,217.0739,77,25,0
217.0739,217.16618,76,25,0
217.16618,217.2565,77,26,0
217.2565,217.349,76,26,0
217.349,217.44487,77,26,0
217.44487,217.53987,76,28,0
217.53987,217.63185,77,28,0
217.63185,217.72382,76,28,0
217.72382,217.81578,77,29,0
217.81578,217.90776,76,29,0
217.90776,217.99973,77,29,0
217.99973,218.0917,76,29,0
218.0917,218.1838,77,29,0
218.1838,218.27687,76,29,0
218.27687,218.36992,77,29,0
218.36992,218.46298,76,27,0
218.46298,218.56006,77,25,0
218.56006,218.6635,76,25,0
218.6635,218.7742,77,25,0
218.7742,218.88184,76,26,0
218.88184,218.97421,77,22,0
218.97421,219.06526,76,23,0
219.06526,219.15514,77,24,0
219.15514,219.24362,76,24,0
219.24362,219.3309,77,24,0
219.3309,219.41817,76,26,0
219.41817,219.50641,77,28,0
219.50641,219.59566,76,28,0
219.59566,219.68764,77,30,0
219.68764,219.78398,76,31,0
219.78398,219.89777,77,31,0
219.89777,219.9956,76,30,0
219.9956,220.09135,77,30,0
220.09135,220.18442,76,30,0
220.18442,220.27481,77,30,0
220.27481,220.36572,76,29,0
220.36572,220.4581,77,26,0
220.4581,220.55157,76,26,0
220.55157,220.64395,77,25,0
220.64395,220.7377,76,24,0
220.7377,220.83333,77,24,0
220.83333,220.93771,76,23,0
220.93771,221.06299,77,21,0
221.06299,221.17697,76,21,0
221.17697,221.2719,77,21,0
221.2719,221.36635,76,21,0
221.36635,221.46008,77,22,0
221.46008,221.55356,76,24,0
221.55356,221.64594,77,24,0
221.64594,221.73698,76,25,0
221.73698,221.8279,77,26,0
221.8279,221.91881,76,26,0
221.91881,222.0101,77,28,0
222.0101,222.1043,76,28,0
222.1043,222.2032,77,28,0
222.2032,222.30713,76,27,0
222.30713,222.41106,77,27,0
222.41106,222.5109,76,27,0
222.5109,222.60886,77,27,0
222.60886,222.70853,76,25,0
222.70853,222.81496,77,23,0
222.81496,222.92027,76,23,0
222.92027,223.02196,77,23,0
223.02196,223.12183,76,23,0
223.12183,223.22585,77,23,0
223.22585,223.32367,76,23,0
223.32367,223.42528,77,23,0
223.42528,223.52939,76,23,0
223.52939,223.63348,77,23,0
223.63348,223.73418,76,23,0
223.73418,223.83095,77,23,0
223.83095,223.9254,76,25,0
223.9254,224.01764,77,22,0
224.01764,224.10803,76,22,0
224.10803,224.20001,77,22,0
224.20001,224.2946,76,22,0
224.2946,224.39108,77,23,0
224.39108,224.48755,76,25,0
224.48755,224.58539,77,26,0
224.58539,224.68474,76,27,0
224.68474,224.7821,77,27,0
224.7821,224.87785,76,27,0
224.87785,224.97174,77,27,0
224.97174,225.06522,76,27,0
225.06522,225.16008,77,27,0
225.16008,225.25584,76,26,0
225.25584,225.3578,77,25,0
225.3578,225.4674,76,25,0
225.4674,225.57387,77,25,0
225.57387,225.68079,76,24,0
225.68079,225.78778,77,19,0
225.78778,225.8965,76,17,0
225.8965,225.99954,77,18,0
225.99954,226.09747,76,18,0
226.09747,226.19183,77,20,0
226.19183,226.286,76,20,0
226.286,226.37924,77,22,0
226.37924,226.4723,76,24,0
226.4723,226.56636,77,25,0
226.56636,226.6599,76,26,0
226.6599,226.74977,77,29,0
226.74977,226.83963,76,29,0
226.83963,226.93173,77,30,0
226.93173,227.0237,76,25,0
227.0237,227.11568,77,25,0
227.11568,227.20764,76,25,0
227.20764,227.29962,77,25,0
227.29962,227.39159,76,25,0
227.39159,227.48369,77,25,0
227.48369,227.57675,76,25,0
227.57675,227.66982,77,25,0
227.66982,227.76286,76,25,0
227.76286,227.85818,77,25,0
227.85818,227.95903,76,25,0
227.95903,228.06248,77,24,0
228.06248,228.15623,76,26,0
228.15623,228.24861,77,23,0
228.24861,228.33965,76,24,0
228.33965,228.42952,77,26,0
228.42952,228.51802,76,28,0
228.51802,228.60529,77,29,0
228.60529,228.69255,76,29,0
228.69255,228.7808,77,29,0
228.7808,228.87004,76,29,0
228.87004,228.96204,77,29,0
228.96204,229.05836,76,29,0
229.05836,229.17216,77,26,0
229.17216,229.26999,76,27,0
229.26999,229.36574,77,26,0
229.36574,229.4588,76,26,0
229.4588,229.5492,77,26,0
229.5492,229.6401,76,26,0
229.6401,229.73248,77,26,0
229.73248,229.82596,76,26,0
229.82596,229.91833,77,23,0
229.91833,230.01208,76,21,0
230.01208,230.10764,77,18,0
230.10764,230.21277,76,18,0
230.21277,230.36061,77,18,0
230.36061,230.53754,76,23,0
230.53754,230.68312,77,16,0
230.68312,230.82341,76,16,0
230.82341,230.96231,77,16,0
230.96231,231.0988,76,17,0
231.0988,231.23517,77,17,0
231.23517,231.37302,76,18,0
231.37302,231.51958,77,18,0
231.51958,232.10635,76,30,0
234.92047,235.07364,77,24,0
235.07364,235.21588,76,16,0
235.21588,235.35658,77,16,0
235.35658,235.49548,76,16,0
235.49548,235.63199,77,17,0
235.63199,235.76834,76,17,0
235.76834,235.90619,77,18,0
235.90619,236.05275,76,18,0
236.05275,236.65616,77,30,0
239.51265,239.66914,77,23,0
239.66914,239.81139,76,19,0
239.81139,239.95209,77,16,0
239.95209,240.09099,76,16,0
240.09099,240.22748,77,17,0
240.22748,240.36385,76,17,0
240.36385,240.5017,77,18,0
240.5017,240.64825,76,18,0
240.64825,241.23671,77,30,0
29.894114,30.073624,57,45,0
29.813791,30.15853,45,38,0
29.853952,30.167963,52,41,0
29.934275,30.167963,60,48,0
