start_time,end_time,note_value,velocity,instrument_program_number
2.5659175,2.782087,63,34,0
2.782087,2.9672835,68,40,0
2.9672835,3.156224,72,36,0
3.156224,3.3522255,68,32,0
3.3522255,3.552908,63,32,0
3.7925055,3.9941454,63,37,0
3.9941454,4.181073,68,40,0
4.181073,4.371731,72,37,0
4.371731,4.5677323,68,33,0
4.5677323,4.803953,63,34,0
5.0477166,5.254314,64,30,0
5.254314,5.441568,70,34,0
5.441568,5.6339746,72,31,0
5.6339746,5.826381,70,27,0
5.826381,6.022472,64,27,0
6.233013,6.428097,64,30,0
6.428097,6.6176825,70,34,0
6.6176825,6.807268,72,30,0
6.807268,7.010865,70,26,0
7.010865,7.229285,64,26,0
7.4622407,7.661961,63,34,0
7.661961,7.84379,69,36,0
7.84379,8.031044,72,35,0
8.031044,8.223451,69,36,0
8.223451,8.471918,63,38,0
8.693795,8.886202,63,38,0
8.886202,9.069699,69,43,0
9.069699,9.257799,72,40,0
9.257799,9.450206,69,37,0
9.450206,9.746993,63,37,0
9.979949,10.1825695,62,38,0
10.1825695,10.369496,68,43,0
10.369496,10.561903,72,42,0
10.561903,10.75431,68,39,0
10.75431,10.965057,62,39,0
11.196718,11.399339,62,36,0
11.399339,11.590872,68,40,0
11.590872,11.782406,72,37,0
11.782406,11.990033,68,32,0
11.990033,12.228261,62,34,0
12.436913,12.630199,61,38,0
12.630199,12.823485,63,45,0
12.823485,13.016772,72,38,0
13.016772,13.217455,63,34,0
13.217455,13.438172,61,33,0
13.646825,13.849445,61,38,0
13.849445,14.044529,63,43,0
14.044529,14.239614,67,38,0
14.239614,14.460331,63,34,0
14.460331,14.681049,61,34,0
14.885632,15.090214,60,38,0
15.090214,15.290896,63,43,0
15.290896,15.491579,68,38,0
15.491579,15.702327,63,34,0
15.702327,15.925376,60,34,0
16.122831,16.33252,56,38,0
16.344751,16.562033,60,43,0
16.587646,16.809225,68,38,0
16.781588,17.018478,63,34,0
17.018478,17.255371,56,34,0
17.503448,17.713137,63,34,0
17.713137,17.898333,68,40,0
17.898333,18.090738,72,36,0
18.090738,18.288576,68,32,0
18.288576,18.492172,63,30,0
18.73177,18.926905,63,37,0
18.926905,19.108734,68,40,0
19.108734,19.294792,72,37,0
19.294792,19.497412,68,33,0
19.497412,19.7733,63,33,0
19.99172,20.19434,64,28,0
20.19434,20.386747,70,32,0
20.386747,20.579153,72,30,0
20.579153,20.77156,70,28,0
20.77156,20.971281,64,28,0
21.196726,21.402317,64,32,0
21.402317,21.587103,70,37,0
21.587103,21.78039,72,35,0
21.78039,21.973677,70,32,0
21.973677,22.175316,64,37,0
22.394873,22.594593,63,42,0
22.594593,22.77642,69,45,0
22.77642,22.965363,72,43,0
22.965363,23.160446,69,45,0
23.160446,23.365028,63,46,0
23.578993,23.77318,63,47,0
23.77318,23.956678,69,54,0
23.956678,24.145618,72,50,0
24.145618,24.3502,69,47,0
24.3502,24.622335,63,51,0
24.833082,25.032803,62,38,0
25.032803,25.220057,68,43,0
25.220057,25.410715,77,42,0
25.410715,25.601374,72,39,0
25.601374,25.822092,68,39,0
26.032839,26.23256,56,36,0
26.23256,26.422361,58,40,0
26.422361,26.612164,65,37,0
26.612164,26.814783,62,33,0
26.814783,27.032064,58,33,0
27.243868,27.44265,58,38,0
27.44265,27.635937,61,45,0
27.635937,27.829224,67,38,0
27.829224,28.022509,63,34,0
28.022509,28.22513,61,35,0
28.445848,28.640932,61,38,0
28.640932,28.836016,63,43,0
28.836016,29.0311,67,38,0
29.0311,29.255348,63,33,0
29.255348,29.479597,61,33,0
29.691402,29.894999,60,38,0
29.894999,30.08394,63,43,0
30.08394,30.279942,68,38,0
30.279942,30.475943,63,34,0
30.475943,30.671944,60,34,0
30.872627,31.073309,60,38,0
31.073309,31.270224,68,43,0
31.270224,31.466227,63,38,0
31.466227,31.662228,60,38,0
31.662228,31.913841,56,47,0
32.13099,32.33263,61,38,0
32.33263,32.526817,68,40,0
32.526817,32.721004,64,38,0
32.721004,32.91519,61,34,0
33.32424,33.519325,61,40,0
33.519325,33.71441,68,45,0
33.71441,33.909492,64,42,0
33.909492,34.10458,61,42,0
34.529724,34.72664,63,40,0
34.72664,34.917297,72,45,0
34.917297,35.107956,68,42,0
35.107956,35.298615,63,38,0
35.298615,35.504208,60,38,0
35.727253,35.926037,63,40,0
35.926037,36.11757,72,45,0
36.11757,36.309105,68,42,0
36.309105,36.500637,63,42,0
36.500637,36.700596,60,46,0
36.91956,37.116474,65,43,0
37.116474,37.2983,72,46,0
37.2983,37.48896,68,39,0
37.48896,37.67962,65,40,0
38.094265,38.280323,65,48,0
38.280323,38.459705,72,53,0
38.459705,38.64951,68,47,0
38.64951,38.85115,65,47,0
39.31243,39.504837,67,50,0
39.504837,39.697243,72,56,0
39.697243,39.88965,76,52,0
39.88965,40.082054,72,49,0
40.082054,40.286636,67,49,0
40.510887,40.714485,67,50,0
40.714485,40.90689,72,56,0
40.90689,41.099297,76,52,0
41.099297,41.291702,72,49,0
41.291702,41.53547,67,49,0
41.755024,41.95764,69,39,0
41.95764,42.143253,72,45,0
42.143253,42.336536,76,38,0
42.336536,42.529823,72,33,0
42.529823,42.732445,69,33,0
42.956696,43.148228,69,34,0
43.148228,43.333015,72,41,0
43.333015,43.523674,76,35,0
43.523674,43.741077,72,32,0
43.741077,43.98771,69,32,0
44.232906,44.423565,68,33,0
44.423565,44.614223,71,41,0
44.614223,44.804882,76,36,0
44.804882,44.99554,71,32,0
44.99554,45.21282,68,33,0
45.455185,45.64847,64,31,0
45.64847,45.84176,68,37,0
45.84176,46.035046,71,31,0
46.035046,46.228333,68,31,0
46.228333,46.455,64,27,0
46.681675,46.881393,64,26,0
46.881393,47.072052,68,33,0
47.072052,47.26271,73,31,0
47.26271,47.456898,68,30,0
47.456898,47.66249,64,30,0
48.076912,48.266712,64,34,0
48.266712,48.456516,68,30,0
47.88091,48.622593,61,27,0
48.456516,48.646317,64,26,0
48.646317,48.859203,61,29,0
49.09345,49.284985,63,31,0
49.284985,49.476517,67,38,0
49.476517,49.664616,70,34,0
49.664616,49.85272,67,31,0
49.85272,50.056313,63,31,0
50.27936,50.474445,64,31,0
50.474445,50.66953,68,38,0
50.66953,50.864613,73,32,0
50.864613,51.0597,68,29,0
51.0597,51.267326,64,29,0
51.488045,51.684044,63,31,0
51.684044,51.880047,67,38,0
51.880047,52.076046,70,33,0
52.076046,52.27205,67,30,0
52.27205,52.486015,63,30,0
52.690598,52.889378,64,33,0
52.889378,53.088158,68,40,0
53.088158,53.28694,73,34,0
53.28694,53.48572,68,31,0
53.48572,53.69647,64,31,0
53.930717,54.130436,63,31,0
54.130436,54.33016,67,39,0
54.33016,54.529877,70,34,0
54.529877,54.73547,67,32,0
54.73547,54.986515,63,33,0
55.20048,55.414444,68,36,0
55.414444,55.650017,70,45,0
55.650017,55.88559,76,41,0
55.88559,56.139675,70,38,0
56.139675,56.39376,68,41,0
66.18868,66.31334,64,37,0
66.18868,66.31334,68,37,0
66.31334,66.437256,67,39,0
66.31334,66.437256,63,39,0
66.437256,66.56045,73,40,0
66.437256,66.56045,68,40,0
66.56045,66.68293,70,42,0
66.56045,66.68293,67,42,0
66.68293,66.804695,76,43,0
66.68293,66.804695,73,43,0
66.804695,66.92576,75,45,0
66.804695,66.92576,70,45,0
66.92576,67.04613,80,46,0
66.92576,67.04613,76,46,0
67.04613,67.16582,79,48,0
67.04613,67.16582,75,48,0
67.16582,67.28481,80,49,0
67.16582,67.28481,85,49,0
67.28481,67.40315,82,51,0
67.28481,67.40315,79,51,0
67.40315,67.52083,88,52,0
67.40315,67.52083,85,52,0
67.52083,67.63784,87,54,0
67.52083,67.63784,82,54,0
67.63784,67.75421,92,55,0
67.63784,67.75421,88,55,0
67.75421,67.87004,91,57,0
67.75421,67.87004,87,57,0
67.87004,67.98587,97,58,0
67.87004,67.98587,92,58,0
67.98587,68.1017,91,60,0
67.98587,68.1017,94,60,0
68.1017,68.21743,100,61,0
68.1017,68.21743,97,61,0
68.21743,68.33263,99,61,0
68.21743,68.33263,94,61,0
68.33263,68.44782,100,60,0
68.33263,68.44782,97,60,0
68.44782,68.56292,99,59,0
68.44782,68.56292,94,59,0
68.56292,68.67749,97,57,0
68.56292,68.67749,92,57,0
68.67749,68.79207,94,57,0
68.67749,68.79207,91,57,0
68.79207,68.90654,88,55,0
68.79207,68.90654,92,55,0
68.90654,69.020485,91,54,0
68.90654,69.020485,87,54,0
69.020485,69.13443,88,53,0
69.020485,69.13443,92,53,0
69.13443,69.248276,91,52,0
69.13443,69.248276,87,52,0
69.248276,69.36161,88,51,0
69.248276,69.36161,85,51,0
69.36161,69.474945,87,50,0
69.36161,69.474945,82,50,0
69.474945,69.58818,80,49,0
69.474945,69.58818,85,49,0
69.58818,69.701004,79,48,0
69.58818,69.701004,82,48,0
69.701004,69.814445,80,47,0
69.701004,69.814445,85,47,0
69.814445,69.9285,79,46,0
69.814445,69.9285,82,46,0
69.9285,70.043175,76,45,0
69.9285,70.043175,80,45,0
70.043175,70.15848,79,44,0
70.043175,70.15848,75,44,0
70.15848,70.274414,76,43,0
70.15848,70.274414,73,43,0
70.274414,70.391,75,42,0
70.274414,70.391,70,42,0
70.391,70.50823,76,41,0
70.391,70.50823,73,41,0
70.50823,70.62613,75,40,0
70.50823,70.62613,70,40,0
70.62613,70.74469,73,39,0
70.62613,70.74469,68,39,0
70.74469,70.863914,70,38,0
70.74469,70.863914,67,38,0
70.863914,70.983826,73,41,0
70.863914,70.983826,68,41,0
70.983826,71.10442,70,42,0
70.983826,71.10442,67,42,0
71.10442,71.22572,73,43,0
71.10442,71.22572,68,43,0
71.22572,71.34811,70,44,0
71.22572,71.34811,67,44,0
71.34811,71.471344,73,46,0
71.34811,71.471344,73,46,0
71.34811,71.471344,68,46,0
71.34811,71.471344,68,46,0
71.471344,71.59405,70,48,0
71.471344,71.59405,67,48,0
71.59405,71.715775,73,51,0
71.59405,71.715775,68,51,0
71.715775,71.836655,70,53,0
71.715775,71.836655,67,53,0
71.836655,71.956894,73,55,0
71.836655,71.956894,68,55,0
71.956894,72.07631,70,57,0
71.956894,72.07631,67,57,0
72.07631,72.194916,73,60,0
72.07631,72.194916,68,60,0
72.194916,72.31273,70,62,0
72.194916,72.31273,67,62,0
72.31273,72.42986,73,65,0
72.31273,72.42986,68,65,0
72.42986,72.54616,70,64,0
72.42986,72.54616,67,64,0
72.54616,72.661674,73,61,0
72.54616,72.661674,68,61,0
72.661674,72.77644,70,58,0
72.661674,72.77644,67,58,0
72.77644,72.89163,73,55,0
72.77644,72.89163,68,55,0
72.89163,73.00765,70,53,0
72.89163,73.00765,67,53,0
73.00765,73.12444,73,48,0
73.00765,73.12444,68,48,0
73.12444,73.242134,70,44,0
73.12444,73.242134,67,44,0
73.242134,73.35992,73,41,0
73.242134,73.35992,68,41,0
73.35992,73.479355,70,37,0
73.35992,73.479355,67,37,0
73.479355,73.60158,73,34,0
73.479355,73.60158,68,34,0
73.60158,73.72679,70,30,0
73.60158,73.72679,67,30,0
75.046875,75.515366,74,46,0
75.75913,75.96472,63,27,0
75.96472,76.144104,66,32,0
76.144104,76.328896,71,28,0
76.328896,76.51869,66,27,0
76.51869,76.719376,63,27,0
75.515366,76.719376,75,52,0
76.95233,77.16099,63,29,0
77.16099,77.346596,66,32,0
77.346596,77.5236,71,29,0
77.5236,77.71688,66,28,0
77.71688,77.9195,63,29,0
76.719376,77.9195,75,52,0
78.15375,78.357346,63,32,0
78.357346,78.54545,67,38,0
78.54545,78.73023,73,32,0
78.73023,78.90802,67,30,0
78.90802,79.11064,63,30,0
77.9195,79.11064,75,54,0
79.33853,79.52747,63,32,0
79.52747,79.70916,67,35,0
79.70916,79.89084,73,32,0
79.89084,80.08868,67,28,0
80.08868,80.29527,63,33,0
79.89084,80.29527,75,52,0
80.52317,80.720085,63,35,0
80.720085,80.90097,66,37,0
80.90097,81.085754,73,34,0
80.29527,81.085754,75,56,0
81.085754,81.27556,66,31,0
81.27556,81.4734,63,35,0
81.085754,81.4734,75,50,0
81.70129,81.89109,63,38,0
81.89109,82.0767,66,42,0
82.0767,82.26068,72,37,0
81.4734,82.26068,76,55,0
82.26068,82.45309,66,33,0
82.45309,82.67151,63,33,0
82.26068,82.67151,75,49,0
82.89575,83.096436,63,30,0
83.096436,83.28624,65,34,0
83.28624,83.47374,71,33,0
83.47374,83.658936,65,31,0
83.658936,83.86352,63,31,0
82.67151,83.86352,75,56,0
84.08896,84.28964,59,24,0
83.86352,84.28964,68,46,0
84.28964,84.484726,61,30,0
84.484726,84.67981,65,24,0
84.67981,84.89598,61,31,0
84.89598,85.12764,59,31,0
84.67981,85.12764,68,46,0
85.33222,85.52181,61,36,0
85.12764,85.52181,68,52,0
85.52181,85.703636,64,38,0
85.703636,85.89233,66,38,0
85.52181,85.89233,70,54,0
85.89233,86.09301,64,38,0
86.09301,86.30698,61,42,0
85.89233,86.30698,71,56,0
86.51257,86.71135,64,40,0
86.71135,86.90643,66,48,0
86.90643,87.10152,70,40,0
86.30698,87.10152,75,60,0
87.10152,87.3188,66,31,0
87.3188,87.56221,64,37,0
87.10152,87.56221,73,53,0
87.762886,87.96357,63,37,0
87.56221,87.96357,73,60,0
87.96357,88.17155,66,34,0
88.17155,88.37952,63,36,0
87.96357,88.37952,71,53,0
88.59889,88.821945,62,31,0
88.37952,88.821945,68,53,0
88.821945,89.02854,63,34,0
88.821945,89.23514,66,52,0
89.854935,90.06153,66,65,0
90.29578,90.499374,63,49,0
90.499374,90.67406,66,56,0
90.67406,90.85031,71,47,0
90.85031,91.04011,66,47,0
91.04011,91.23889,63,47,0
90.06153,91.23889,75,72,0
91.46804,91.67164,63,57,0
91.67164,91.84632,67,63,0
91.84632,92.018,73,58,0
92.018,92.20953,67,58,0
92.20953,92.395966,63,58,0
91.23889,92.395966,75,79,0
92.61901,92.82163,63,62,0
92.82163,92.99787,66,67,0
92.99787,93.17264,72,66,0
93.17264,93.34214,66,69,0
93.34214,93.54574,63,69,0
92.395966,93.54574,75,81,0
93.7774,93.95923,63,62,0
93.95923,94.13058,66,68,0
94.13058,94.29936,72,65,0
94.29936,94.4972,66,57,0
94.4972,94.71009,63,66,0
94.29936,94.71009,75,76,0
94.94305,95.13723,64,67,0
95.13723,95.30528,67,71,0
95.30528,95.465935,72,64,0
94.71009,95.465935,75,82,0
95.465935,95.65319,67,54,0
95.65319,95.8456,64,63,0
95.465935,95.8456,76,75,0
96.07104,96.25502,64,64,0
96.25502,96.42597,67,71,0
96.42597,96.59059,72,61,0
95.8456,96.59059,75,80,0
96.59059,96.78039,67,54,0
96.78039,96.98107,64,54,0
96.59059,96.98107,76,78,0
97.20532,97.406006,65,67,0
97.406006,97.58185,69,72,0
97.58185,97.75656,72,58,0
97.75656,97.92255,69,51,0
97.92255,98.12323,65,51,0
96.98107,99.00145,77,84,0
99.00145,99.433784,69,79,0
99.00145,99.433784,57,70,0
99.433784,99.84408,69,87,0
99.433784,99.84408,57,75,0
99.84408,100.24736,71,70,0
99.84408,100.24736,59,60,0
100.24736,100.66876,72,72,0
100.24736,100.66876,60,63,0
100.66876,101.503365,76,79,0
100.65496,101.503365,64,67,0
101.503365,101.92914,74,67,0
101.503365,101.92914,62,58,0
101.92914,102.29735,72,75,0
101.92914,102.29735,60,65,0
101.92914,102.29735,67,65,0
103.859634,104.06522,72,65,0
103.859634,104.06522,84,82,0
104.06522,104.98464,84,84,0
104.06522,104.98464,72,68,0
104.06522,104.98464,77,68,0
104.06522,104.98464,80,68,0
104.98464,105.18629,83,78,0
104.98464,105.18629,71,70,0
104.98464,105.18629,77,70,0
104.98464,105.18629,80,70,0
105.18629,106.101395,84,81,0
105.18629,106.101395,72,78,0
105.18629,106.101395,77,78,0
105.18629,106.101395,80,78,0
106.101395,106.30598,86,80,0
106.101395,106.30598,74,68,0
106.101395,106.30598,77,68,0
106.101395,106.30598,80,68,0
106.30598,107.204544,88,90,0
106.30598,107.204544,79,73,0
106.30598,107.204544,76,72,0
107.204544,107.39783,86,83,0
107.204544,107.39783,79,75,0
107.204544,107.39783,74,75,0
107.39783,107.77571,84,84,0
107.39783,107.77571,79,81,0
107.39783,107.77571,72,78,0
108.296394,108.50198,76,75,0
108.296394,108.50198,88,88,0
108.50198,109.4231,88,93,0
108.50198,109.4231,76,80,0
108.50198,109.4231,81,80,0
108.50198,109.4231,84,80,0
109.4231,109.62474,87,88,0
109.4231,109.62474,75,74,0
109.4231,109.62474,81,74,0
109.4231,109.62474,84,74,0
109.62474,110.55422,88,93,0
109.62474,110.55422,76,75,0
109.62474,110.55422,81,75,0
109.62474,110.55422,84,75,0
110.55422,110.791115,90,88,0
110.55422,110.791115,78,83,0
110.99084,111.195885,71,63,0
111.17893,111.36443,76,70,0
111.348434,111.52532,68,62,0
111.508446,111.69862,71,63,0
110.791115,111.8912,80,80,0
110.791115,111.8912,92,95,0
111.67723,111.8912,76,63,0
112.07598,112.27765,71,67,0
112.260765,112.44562,76,67,0
112.42955,112.60737,68,65,0
112.5902,112.783844,71,62,0
111.8912,112.981445,80,80,0
111.8912,112.981445,92,95,0
112.76189,112.981445,76,62,0
113.18804,113.394554,72,67,0
113.37784,113.55665,78,71,0
113.54078,113.71654,68,67,0
113.69952,113.888,72,73,0
112.981445,114.0524,80,80,0
112.981445,114.0524,92,95,0
113.869736,114.0524,78,76,0
114.0524,114.25547,80,81,0
114.23737,114.43504,72,71,0
114.41837,114.60093,78,76,0
114.58505,114.76111,72,70,0
114.91696,115.153854,92,88,0
114.91696,115.153854,80,83,0
115.35358,115.55537,71,68,0
115.53877,115.720566,76,70,0
115.153854,115.86286,80,80,0
115.153854,115.86286,92,95,0
115.70476,115.880104,68,68,0
116.035286,116.23693,80,77,0
116.035286,116.23693,92,82,0
116.42587,116.631004,71,67,0
116.61481,116.79295,77,73,0
116.23693,116.93871,81,80,0
116.23693,116.93871,93,95,0
116.776764,116.957695,68,67,0
117.12852,117.380936,80,76,0
117.12852,117.380936,92,83,0
117.380936,118.45909,92,95,0
117.380936,118.45909,80,80,0
118.45909,118.83061,85,85,0
118.45909,118.83061,73,70,0
119.15191,119.53498,85,80,0
119.15191,119.53498,73,70,0
119.53498,119.915306,85,85,0
119.53498,119.915306,81,70,0
119.53498,119.915306,73,70,0
119.915306,120.25146,87,84,0
119.915306,120.25146,75,70,0
119.915306,120.25146,83,70,0
119.915306,120.25146,81,70,0
120.25146,120.646904,88,85,0
120.25146,120.646904,76,71,0
120.25146,120.646904,83,71,0
120.25146,120.646904,81,71,0
120.646904,121.34958,92,90,0
120.646904,121.34958,80,7,0
120.646904,121.34958,83,75,0
120.646904,121.34958,87,81,0
121.34958,121.71599,90,85,0
121.34958,121.71599,78,76,0
121.71599,122.104576,90,89,0
121.71599,122.104576,78,73,0
121.71599,122.104576,80,73,0
121.71599,122.104576,83,73,0
122.104576,122.46118,88,85,0
122.104576,122.46118,76,79,0
122.46118,122.84778,85,82,0
122.46118,122.84778,79,70,0
122.46118,122.84778,73,70,0
122.84778,123.22566,83,78,0
122.84778,123.22566,80,67,0
122.84778,123.22566,71,67,0
123.582275,123.95038,83,83,0
123.582275,123.95038,71,71,0
124.1501,124.35451,71,68,0
124.3382,124.51687,76,71,0
124.50124,124.67431,68,68,0
124.6575,124.845085,71,64,0
123.95038,125.02066,80,80,0
123.95038,125.02066,92,95,0
124.82558,125.02066,76,64,0
125.2096,125.41478,72,67,0
125.398544,125.576614,78,70,0
125.56092,125.73526,68,67,0
125.7178,125.91444,72,62,0
125.02066,126.11203,80,80,0
125.02066,126.11203,92,95,0
125.89248,126.11203,78,62,0
126.31863,126.517715,71,67,0
126.501,126.684326,77,70,0
126.66813,126.847626,68,67,0
126.830086,127.023964,71,73,0
127.00553,127.1878,77,76,0
126.11203,127.1878,80,80,0
127.1878,127.36512,80,84,0
127.36512,127.55562,71,72,0
127.53905,127.720924,77,73,0
127.704796,127.88507,68,67,0
127.86609,128.07558,71,63,0
128.0559,128.2528,77,68,0
126.11203,128.2528,92,95,0
128.44511,128.64986,72,68,0
128.63322,128.81584,77,70,0
128.79965,128.97939,68,68,0
128.96161,129.15956,72,64,0
128.2528,129.34103,80,80,0
128.2528,129.34103,92,95,0
129.13939,129.34103,77,64,0
129.52628,129.72475,73,67,0
129.70782,129.89346,77,70,0
129.87708,130.06035,68,67,0
130.04102,130.25908,73,64,0
129.34103,130.48203,80,80,0
129.34103,130.48203,92,95,0
130.2343,130.48203,77,64,0
130.48203,131.2288,92,96,0
130.48203,131.2288,80,79,0
130.48203,131.2288,86,79,0
131.2288,131.60004,91,90,0
131.2288,131.60004,79,78,0
131.60004,131.97581,77,78,0
131.60004,131.97581,89,90,0
131.97581,132.34056,79,81,0
131.97581,132.34056,67,68,0
132.34056,132.75375,80,81,0
132.34056,132.75375,68,69,0
132.75375,133.87032,80,78,0
132.75375,133.87032,72,78,0
132.75375,133.87032,77,78,0
132.75453,133.87111,84,90,0
133.87032,134.24532,70,67,0
133.87032,134.24532,82,80,0
134.60193,134.99353,92,84,0
134.60193,134.99353,80,78,0
134.99353,135.5534,92,90,0
134.99353,135.5534,86,82,0
134.99353,135.5534,80,82,0
135.5534,135.74004,79,69,0
135.5534,135.74004,91,78,0
135.74004,135.86162,94,87,0
135.74004,135.86162,82,81,0
135.86162,135.98106,92,80,0
135.86162,135.98106,80,73,0
135.98106,136.09836,91,80,0
135.98106,136.09836,79,72,0
136.09836,136.48053,77,78,0
136.09836,136.48053,89,90,0
136.48053,136.83556,79,81,0
136.48053,136.83556,67,68,0
136.83556,137.25081,80,81,0
136.83556,137.25081,68,69,0
137.25081,138.38507,84,90,0
137.25081,138.38507,72,78,0
137.25081,138.38507,77,78,0
137.25081,138.38507,80,78,0
138.38507,138.76608,70,67,0
138.38507,138.76608,82,80,0
139.12917,139.51877,92,84,0
139.12917,139.51877,80,78,0
139.51877,140.06609,92,90,0
139.51877,140.06609,86,82,0
139.51877,140.06609,80,82,0
140.06609,140.25537,79,69,0
140.06609,140.25537,91,78,0
140.25537,140.458,94,87,0
140.25537,140.458,82,81,0
140.458,140.66061,92,80,0
140.458,140.66061,80,73,0
140.66061,140.87677,95,97,0
140.66061,140.87677,83,85,0
140.87677,141.11774,94,88,0
140.87677,141.11774,82,88,0
141.11774,141.49867,91,94,0
141.11774,141.49867,103,105,0
141.70227,141.90587,101,85,0
141.70227,141.90587,89,73,0
141.90587,142.09482,99,84,0
141.90587,142.09482,87,73,0
142.09482,142.28572,86,69,0
142.09482,142.28572,98,79,0
142.28572,142.47864,96,74,0
142.28572,142.47864,84,64,0
142.47864,142.67358,94,70,0
142.47864,142.67358,82,60,0
142.67358,142.87079,92,64,0
142.67358,142.87079,80,55,0
142.87079,143.07027,91,60,0
142.87079,143.07027,79,51,0
143.07027,143.47804,89,56,0
143.07027,143.47804,77,48,0
143.47804,143.89742,79,45,0
143.47804,143.89742,67,37,0
143.89742,144.32219,80,45,0
143.89742,144.32219,68,37,0
144.32219,145.10522,84,52,0
144.32219,145.10522,72,45,0
144.32219,145.10522,77,45,0
144.32219,145.10522,80,45,0
145.10522,145.53001,70,51,0
145.10522,145.53001,82,54,0
145.53001,146.30545,82,60,0
145.53001,146.30545,87,72,0
145.53001,146.30545,75,60,0
145.53001,146.30545,80,60,0
146.30545,146.7492,73,65,0
146.30545,146.7492,85,73,0
146.7492,147.55188,91,89,0
146.7492,147.55188,79,75,0
146.7492,147.55188,82,75,0
146.7492,147.55188,85,75,0
147.55188,148.01018,77,70,0
147.55188,148.01018,89,81,0
148.01018,148.82928,89,84,0
148.01018,148.82928,84,84,0
148.01018,148.82928,96,96,0
148.82928,149.36342,82,76,0
148.82928,149.36342,94,89,0
149.36342,152.29172,101,99,0
149.36342,152.29172,94,85,0
149.36342,152.29172,91,85,0
149.36342,152.29172,89,85,0
149.36342,152.29172,97,85,0
152.29172,152.4296,100,44,0
152.4296,152.56747,96,40,0
152.56747,152.6908,99,44,0
152.6908,152.80855,95,41,0
152.80855,152.91866,98,44,0
152.91866,153.02786,94,40,0
153.02786,153.1362,97,43,0
153.1362,153.24373,93,39,0
153.24373,153.35048,96,42,0
153.35048,153.45624,92,39,0
153.45624,153.5613,95,42,0
153.5613,153.6655,91,39,0
153.6655,153.76895,94,41,0
153.76895,153.87161,90,37,0
153.87161,153.97362,93,41,0
153.97362,154.07468,89,37,0
154.07468,154.17516,92,40,0
154.17516,154.2755,88,36,0
154.2755,154.37567,91,40,0
154.37567,154.47552,88,36,0
154.47552,154.5754,90,39,0
154.5754,154.67493,86,35,0
154.67493,154.7743,89,39,0
154.7743,154.87352,85,35,0
154.87352,154.97244,88,38,0
154.97244,155.07135,84,35,0
155.07135,155.1698,87,38,0
155.1698,155.26826,83,33,0
155.26826,155.36641,86,37,0
155.36641,155.4644,82,33,0
155.4644,155.56273,85,37,0
155.56273,155.6612,81,33,0
155.6612,155.76012,84,36,0
155.76012,155.8592,80,33,0
155.8592,155.9586,83,35,0
155.9586,156.05832,79,31,0
156.05832,156.15819,82,35,0
156.15819,156.25853,78,31,0
156.25853,156.3592,81,35,0
156.3592,156.46005,77,31,0
156.46005,156.56136,80,34,0
156.56136,156.66284,76,30,0
156.66284,156.76465,79,33,0
156.76465,156.86679,76,29,0
156.86679,156.9691,78,33,0
156.9691,157.07188,74,29,0
157.07188,157.20978,77,32,0
157.20978,157.29562,73,28,0
157.38147,157.50407,77,32,0
157.35286,157.50407,73,32,0
157.50407,157.62668,75,32,0
157.62668,157.73166,73,32,0
157.73166,157.83598,70,31,0
157.83598,157.9403,67,32,0
157.9403,158.04428,62,33,0
158.04428,158.1481,63,33,0
158.1481,158.25189,67,34,0
158.25189,158.3552,70,35,0
158.3552,158.4585,73,35,0
158.4585,158.56143,74,36,0
158.56143,158.66423,77,37,0
158.66423,158.76701,75,37,0
158.76701,158.86931,79,38,0
158.86931,158.97159,82,39,0
158.97159,159.0736,85,39,0
159.0736,159.1761,86,40,0
159.1761,159.281,89,40,0
159.281,159.38841,87,41,0
159.38841,159.49849,91,42,0
159.49849,159.61147,94,44,0
159.61147,159.74934,97,44,0
159.74934,159.90533,100,48,0
159.90533,160.01585,101,44,0
160.01585,160.12357,96,48,0
160.12357,160.2286,97,45,0
160.2286,160.3311,93,46,0
160.3311,160.43138,94,40,0
160.43138,160.53172,90,44,0
160.53172,160.63206,91,40,0
160.63206,160.7324,88,43,0
160.7324,160.83275,89,39,0
160.83275,160.93309,84,42,0
160.93309,161.03343,85,38,0
161.03343,161.13411,81,40,0
161.13411,161.23492,82,37,0
161.23492,161.33575,78,40,0
161.33575,161.43675,79,36,0
161.43675,161.53806,76,39,0
161.53806,161.63937,77,35,0
161.63937,161.741,72,38,0
161.741,161.84346,73,33,0
161.84346,161.9466,69,37,0
161.9466,162.05058,70,33,0
162.05058,162.15524,66,36,0
162.15524,162.2608,67,33,0
162.2608,162.36707,64,35,0
162.36707,162.47423,65,31,0
162.47423,162.58696,62,33,0
162.58696,162.70009,63,27,0
162.70009,162.81383,64,32,0
162.81383,162.92819,63,27,0
162.92819,163.04318,65,32,0
163.04318,163.15858,63,28,0
163.15858,163.27464,66,32,0
163.27464,163.39133,63,28,0
163.39133,163.50868,67,32,0
163.50868,163.62646,63,29,0
163.62646,163.7449,68,32,0
163.7449,163.86401,63,29,0
163.86401,163.98383,69,32,0
163.98383,164.10715,63,29,0
164.10715,164.2635,70,32,0
164.2635,164.41988,63,29,0
164.41988,164.68134,71,32,0
165.46571,166.03214,63,36,0
166.30084,166.5338,60,21,0
166.5338,166.75223,63,27,0
166.75223,166.97064,68,20,0
166.97064,167.2023,63,20,0
167.2023,167.44467,60,20,0
166.03214,167.44467,72,45,0
167.72227,167.9605,60,20,0
167.9605,168.19345,63,25,0
168.19345,168.41074,68,21,0
168.41074,168.628,63,21,0
168.628,168.86359,60,21,0
167.44467,168.86359,72,28,0
169.14873,169.37787,60,23,0
169.37787,169.59294,64,28,0
169.59294,169.80801,70,23,0
169.80801,170.0253,64,24,0
170.0253,170.26627,60,24,0
170.5553,170.78825,60,20,0
168.86359,170.78825,72,45,0
170.78825,171.00781,64,26,0
171.00781,171.22737,70,21,0
171.22737,171.45776,64,36,0
171.45776,171.7428,60,24,0
171.22737,171.7428,72,40,0
172.00812,172.24237,63,20,0
172.24237,172.46193,65,26,0
172.46193,172.68265,69,24,0
171.7428,172.68265,72,48,0
172.68265,172.90337,65,34,0
172.90337,173.13893,63,24,0
172.68265,173.13893,72,40,0
173.39302,173.62598,63,28,0
173.62598,173.85387,65,36,0
173.85387,174.07343,69,28,0
173.13893,174.07343,73,47,0
174.07343,174.29071,65,36,0
174.29071,174.54633,63,26,0
174.07343,174.54633,72,41,0
174.83739,175.07428,56,30,0
175.07428,175.29616,62,36,0
175.29616,175.51804,65,29,0
175.51804,175.74109,62,29,0
175.74109,175.99214,56,29,0
174.54633,175.99214,72,49,0
176.28522,176.51688,56,23,0
175.99214,176.51688,65,37,0
176.51688,176.73416,58,28,0
176.73416,176.94075,62,22,0
176.94075,177.17633,58,28,0
177.17633,177.46341,56,22,0
176.94075,177.46341,65,32,0
177.69507,177.90372,58,21,0
177.46341,177.90372,65,37,0
177.90372,178.11989,61,32,0
178.11989,178.33606,63,26,0
177.90372,178.33606,67,38,0
178.33606,178.61003,61,34,0
178.61003,178.84428,58,28,0
178.33606,178.84428,68,39,0
179.07468,179.29309,61,26,0
179.29309,179.51265,63,26,0
179.51265,179.73221,67,26,0
178.84428,179.73221,72,42,0
179.73221,179.97884,63,36,0
179.97884,180.22546,61,25,0
179.73221,180.22546,70,40,0
180.48586,180.7113,60,21,0
180.7113,180.93202,63,33,0
180.93202,181.15274,65,24,0
180.22546,181.15274,68,45,0
181.15274,181.38063,63,24,0
181.38063,181.6216,60,24,0
181.6216,181.86679,56,28,0
181.86679,182.112,60,27,0
182.112,182.35435,63,32,0
182.35435,182.59673,65,36,0
182.8391,183.09319,68,36,0
182.59673,183.09319,63,39,0
183.3619,183.59485,62,31,0
183.59485,183.81328,63,36,0
183.81328,184.0317,68,28,0
184.0317,184.26335,63,28,0
184.26335,184.50572,60,25,0
183.09319,184.50572,72,45,0
184.77272,185.01094,60,20,0
185.01094,185.2439,63,28,0
185.2439,185.45465,68,26,0
185.45465,185.67194,63,27,0
185.67194,185.9129,60,31,0
184.50572,185.9129,72,33,0
186.19804,186.42719,60,23,0
186.42719,186.64226,64,33,0
186.64226,186.85733,70,25,0
186.85733,187.0746,64,25,0
187.0746,187.31557,60,25,0
187.57758,187.81053,60,22,0
185.9129,187.81053,72,44,0
187.81053,188.03009,64,29,0
188.03009,188.24965,70,25,0
188.24965,188.48004,64,32,0
188.48004,188.72101,60,26,0
188.24965,188.72101,72,38,0
189.01207,189.24632,60,28,0
189.24632,189.46587,65,32,0
189.46587,189.68658,69,27,0
188.72101,189.68658,72,44,0
189.68658,189.9073,65,36,0
189.9073,190.14288,60,30,0
189.68658,190.14288,72,40,0
190.40489,190.63785,60,40,0
190.63785,190.8708,66,48,0
190.8708,191.09035,69,43,0
190.14288,191.09035,73,52,0
191.09035,191.30763,66,42,0
191.30763,191.63019,60,47,0
191.09035,191.63019,72,50,0
191.92125,192.15814,65,32,0
192.15814,192.38002,68,41,0
192.38002,192.6019,72,29,0
192.6019,192.84149,68,37,0
192.84149,193.09253,65,30,0
193.38562,193.61728,65,23,0
193.61728,193.83456,68,31,0
193.83456,194.05183,71,27,0
194.05183,194.2785,68,26,0
194.2785,194.5656,65,25,0
191.63019,194.5656,77,61,0
194.85268,195.09364,58,21,0
195.09364,195.31668,64,27,0
195.31668,195.53397,68,20,0
195.53397,195.75125,64,20,0
195.75125,196.00081,58,20,0
196.29597,196.53833,58,20,0
196.53833,196.76378,64,25,0
196.76378,196.97346,67,21,0
196.97346,197.19534,64,21,0
197.19534,197.46085,58,21,0
196.00081,197.46085,70,32,0
197.7366,197.97757,63,22,0
197.97757,198.20923,66,28,0
198.20923,198.44089,70,22,0
198.44089,198.67912,66,22,0
198.67912,198.92432,63,22,0
199.22583,199.45497,63,20,0
199.45497,199.68413,66,26,0
199.68413,199.91327,69,21,0
199.91327,200.15149,66,30,0
200.15149,200.40712,63,24,0
197.46085,200.40712,75,37,0
200.7002,200.9622,56,20,0
200.9622,201.19646,62,25,0
201.19646,201.4219,66,20,0
201.4219,201.6498,62,20,0
201.6498,201.90857,56,20,0
202.1899,202.44867,56,20,0
202.44867,202.68556,62,24,0
202.68556,202.91472,65,20,0
202.91472,203.15848,62,20,0
203.15848,203.41887,56,20,0
201.90857,203.41887,68,29,0
203.7293,203.98492,61,19,0
203.98492,204.21788,65,27,0
204.21788,204.45084,68,18,0
204.45084,204.71783,65,18,0
204.71783,204.99359,61,18,0
205.2951,205.5347,61,20,0
205.5347,205.77429,64,26,0
205.77429,206.0139,67,21,0
203.41887,206.0139,73,35,0
206.0139,206.27267,64,26,0
206.27267,206.55399,61,22,0
206.0139,206.55399,72,32,0
206.8555,207.11427,61,20,0
207.11427,207.34593,64,25,0
207.34593,207.58553,67,21,0
206.55399,207.58553,72,36,0
207.58553,207.82649,64,21,0
207.82649,208.08058,61,21,0
207.58553,208.08058,70,32,0
208.37164,208.62573,61,20,0
208.62573,208.8681,63,25,0
208.8681,209.10907,67,21,0
208.08058,209.10907,72,36,0
209.10907,209.3557,63,21,0
209.3557,209.57896,61,21,0
209.10907,209.66344,70,31,0
209.66344,210.33049,68,36,0
209.6212,210.33049,63,29,0
209.57896,210.33049,60,24,0
211.07037,211.317,60,24,0
211.317,211.56363,63,25,0
211.56363,211.81026,68,25,0
211.81026,212.05263,72,26,0
212.05263,212.295,75,27,0
212.295,212.54019,80,28,0
212.54019,212.87012,82,28,0
212.87012,214.00294,84,32,0
212.87012,214.00294,75,32,0
214.00294,214.48282,84,25,0
214.00294,214.48282,76,25,0
214.50807,214.99084,84,26,0
214.50807,214.99084,77,26,0
215.01625,215.53345,85,29,0
215.01625,215.53345,78,29,0
215.56067,216.14612,84,25,0
215.56067,216.14612,78,25,0
216.17693,216.67168,89,30,0
216.17693,216.67168,80,30,0
219.42555,220.52144,82,32,0
219.42555,220.52144,73,32,0
220.52144,221.0042,82,25,0
220.52144,221.0042,74,25,0
221.02962,221.50378,82,26,0
221.02962,221.50378,75,26,0
221.52873,222.03285,84,29,0
221.52873,222.03285,76,29,0
222.05939,222.67183,82,25,0
222.05939,222.67183,76,25,0
222.70406,223.20187,87,30,0
222.70406,223.20187,78,30,0
225.9927,228.85704,73,58,0
225.89107,228.85704,64,52,0
225.78943,228.85704,61,47,0
229.25967,231.41048,65,43,0
229.25967,231.41048,61,41,0
229.25967,231.96935,70,52,0
231.96935,232.68542,72,37,0
231.41048,232.68542,63,37,0
232.68542,234.9595,60,38,0
234.9595,235.54567,59,37,0
235.54567,236.06871,60,37,0
232.68542,236.23056,68,38,0
236.17662,238.10693,63,38,0
238.10693,239.51506,61,34,0
239.51506,240.36084,60,31,0
236.23056,240.36084,68,40,0
240.98273,245.33595,68,37,0
240.77544,245.33595,60,34,0
1.84786,2.316354,51,44,0
2.316354,2.782087,44,40,0
2.316354,3.552908,60,49,0
3.552908,4.803953,60,44,0
4.803953,5.254314,43,32,0
4.803953,6.807268,60,38,0
6.807268,7.229285,60,39,0
7.229285,7.661961,41,36,0
7.229285,8.031044,60,45,0
8.031044,8.471918,60,47,0
8.471918,9.257799,61,52,0
9.257799,9.746993,60,49,0
9.746993,10.1825695,34,40,0
9.746993,10.965057,60,56,0
10.965057,11.399339,53,42,0
11.782406,12.228261,53,42,0
12.228261,12.630199,53,48,0
12.168704,12.630199,39,41,0
12.630199,13.016772,55,40,0
13.016772,13.382994,56,46,0
13.382994,13.849445,51,42,0
13.438172,14.239614,60,50,0
14.239614,14.681049,58,50,0
14.681049,15.090214,44,42,0
14.681049,15.925376,56,46,0
15.925376,16.344751,32,42,0
16.781588,17.196148,51,41,0
17.196148,17.713137,44,40,0
17.255371,18.492172,60,44,0
18.492172,19.7733,60,42,0
19.7733,20.19434,43,35,0
20.971281,21.402317,42,45,0
19.7733,21.78039,60,38,0
21.78039,22.175316,60,45,0
22.175316,22.594593,41,49,0
22.175316,22.965363,60,56,0
22.965363,23.262737,60,59,0
23.313883,23.77318,57,49,0
23.262737,23.77318,53,47,0
23.365028,24.145618,61,64,0
24.145618,24.622335,60,62,0
24.554302,25.032803,46,49,0
24.622335,25.822092,65,62,0
25.822092,26.23256,34,39,0
26.612164,27.032064,53,42,0
27.032064,27.44265,53,48,0
27.032064,27.44265,39,41,0
27.44265,27.829224,55,40,0
27.829224,28.22513,56,46,0
28.22513,28.640932,51,42,0
28.22513,29.0311,60,50,0
29.0311,29.479597,58,50,0
29.479597,29.894999,56,46,0
29.479597,29.894999,44,42,0
30.671944,31.073309,32,42,0
31.917027,32.33263,40,40,0
31.917027,32.91519,56,50,0
32.91519,33.11028,55,51,0
33.11028,33.519325,52,37,0
33.11028,33.519325,37,35,0
33.11028,34.10458,56,55,0
34.10458,34.31017,58,51,0
34.31017,34.72664,51,40,0
34.31017,34.72664,44,35,0
34.31017,35.504208,60,56,0
35.504208,35.926037,32,40,0
36.70228,37.116474,44,46,0
36.70228,37.48896,60,57,0
37.67962,37.880302,59,59,0
37.880302,38.280323,56,42,0
37.880302,38.280323,41,40,0
37.880302,38.85115,60,62,0
38.85115,39.10274,62,59,0
39.10274,39.504837,36,46,0
39.10274,39.504837,55,46,0
39.10274,40.286636,64,63,0
40.286636,41.53547,64,63,0
41.53547,41.95764,60,42,0
41.413586,41.95764,45,41,0
41.474525,41.95764,52,42,0
41.53547,42.732445,64,46,0
42.732445,43.98771,64,53,0
43.98771,44.423565,56,42,0
43.864395,44.423565,40,33,0
43.926052,44.423565,47,37,0
43.98771,45.21282,64,42,0
45.21282,46.455,59,39,0
46.455,46.881393,56,42,0
46.398335,46.881393,40,33,0
46.455,47.66249,61,42,0
47.66249,47.87909,61,44,0
48.456516,48.859203,56,36,0
48.859203,49.284985,55,41,0
48.80598,49.284985,39,40,0
48.859203,50.056313,58,45,0
50.056313,50.474445,56,44,0
50.056313,50.474445,40,44,0
50.056313,50.864613,61,48,0
50.864613,51.267326,59,42,0
51.267326,51.684044,58,46,0
51.267326,51.684044,55,37,0
51.267326,51.684044,39,37,0
51.684044,52.076046,57,42,0
52.076046,52.486015,58,43,0
52.486015,52.889378,56,52,0
52.43252,52.889378,40,43,0
52.486015,53.28694,61,52,0
53.28694,53.69647,59,45,0
53.69647,54.130436,58,46,0
53.69647,54.130436,55,36,0
53.69647,54.130436,39,36,0
54.130436,54.529877,57,39,0
54.529877,54.986515,58,41,0
54.986515,55.414444,49,42,0
54.986515,55.414444,37,42,0
55.414444,55.88559,56,41,0
54.986515,55.88559,64,45,0
55.88559,56.39376,58,43,0
56.39376,58.99229,64,51,0
58.99229,59.582607,63,41,0
59.582607,60.172928,61,40,0
60.172928,60.76866,59,39,0
60.76866,61.39421,58,37,0
61.39421,62.05621,56,36,0
62.05621,62.731964,55,35,0
64.078445,64.35482,39,37,0
64.35482,64.62762,46,33,0
64.62762,64.89691,49,37,0
64.89691,65.162796,55,33,0
65.162796,65.42536,58,37,0
65.42536,65.682526,61,32,0
65.682526,65.93712,64,37,0
65.93712,66.18868,63,34,0
66.437256,66.56045,64,33,0
66.56045,66.68293,63,35,0
66.68293,66.804695,68,36,0
66.804695,66.92576,67,37,0
66.92576,67.04613,73,38,0
67.04613,67.16582,70,40,0
67.16582,67.28481,76,41,0
67.28481,67.40315,75,42,0
67.40315,67.52083,80,43,0
67.52083,67.63784,79,45,0
67.63784,67.75421,85,46,0
67.75421,67.87004,82,47,0
67.87004,67.98587,88,48,0
67.98587,68.1017,87,50,0
68.1017,68.21743,92,51,0
68.21743,68.33263,91,52,0
68.33263,68.44782,92,51,0
68.44782,68.56292,91,50,0
68.56292,68.67749,88,49,0
68.67749,68.79207,87,48,0
68.79207,68.90654,85,46,0
68.90654,69.020485,82,45,0
69.020485,69.13443,85,44,0
69.13443,69.248276,82,43,0
69.248276,69.36161,80,42,0
69.36161,69.474945,79,41,0
69.474945,69.58818,76,40,0
69.58818,69.701004,75,39,0
69.701004,69.814445,76,38,0
69.814445,69.9285,75,37,0
69.9285,70.043175,73,36,0
70.043175,70.15848,70,35,0
70.15848,70.274414,68,33,0
70.274414,70.391,67,31,0
70.391,70.50823,68,33,0
70.50823,70.62613,67,31,0
70.62613,70.74469,64,33,0
70.74469,70.863914,63,31,0
70.863914,70.983826,64,29,0
70.983826,71.10442,63,30,0
71.10442,71.22572,64,31,0
71.22572,71.34811,63,32,0
71.34811,71.471344,64,34,0
71.471344,71.59405,63,36,0
71.59405,71.715775,64,38,0
71.715775,71.836655,63,39,0
71.836655,71.956894,64,41,0
71.956894,72.07631,63,43,0
72.07631,72.194916,64,45,0
72.194916,72.31273,63,47,0
72.31273,72.42986,64,49,0
72.42986,72.54616,63,51,0
72.54616,72.661674,64,50,0
72.661674,72.77644,63,48,0
72.77644,72.89163,64,46,0
72.89163,73.00765,63,45,0
73.00765,73.12444,64,43,0
73.12444,73.242134,63,41,0
73.242134,73.35992,64,38,0
73.35992,73.479355,63,36,0
73.479355,73.60158,64,33,0
73.60158,73.72679,63,30,0
75.75913,75.96472,54,22,0
75.515366,75.96472,47,35,0
75.96472,76.144104,59,27,0
76.144104,76.328896,63,24,0
76.328896,76.51869,59,22,0
76.51869,76.719376,54,22,0
76.95233,77.16099,54,24,0
77.16099,77.346596,59,27,0
77.346596,77.5236,63,24,0
77.5236,77.71688,59,24,0
77.71688,77.9195,54,24,0
78.15375,78.357346,55,27,0
77.9195,78.357346,46,35,0
78.357346,78.54545,61,31,0
78.54545,78.73023,63,27,0
78.73023,78.90802,61,27,0
78.90802,79.11064,55,25,0
79.33853,79.52747,55,26,0
79.52747,79.70916,61,31,0
79.70916,79.89084,63,26,0
79.89084,80.08868,61,28,0
80.08868,80.29527,55,28,0
80.52317,80.720085,54,25,0
80.29527,80.720085,45,35,0
80.720085,80.90097,61,29,0
80.90097,81.085754,63,28,0
81.085754,81.27556,61,28,0
81.27556,81.4734,54,28,0
81.70129,81.89109,54,30,0
81.4734,81.89109,44,38,0
81.89109,82.0767,60,34,0
82.0767,82.26068,63,32,0
82.26068,82.45309,60,32,0
82.45309,82.67151,54,32,0
82.89575,83.096436,53,25,0
82.67151,83.096436,37,35,0
83.096436,83.28624,59,28,0
83.28624,83.47374,63,28,0
83.47374,83.658936,59,26,0
83.658936,83.86352,53,26,0
84.08896,84.28964,49,20,0
84.28964,84.484726,53,24,0
84.484726,84.67981,59,22,0
84.67981,84.89598,53,22,0
84.89598,85.12764,49,22,0
85.33222,85.52181,52,25,0
85.12764,85.52181,42,35,0
85.52181,85.703636,54,28,0
85.703636,85.89233,61,28,0
85.89233,86.09301,54,26,0
86.09301,86.30698,52,27,0
86.51257,86.71135,54,31,0
86.71135,86.90643,58,36,0
86.90643,87.10152,64,31,0
87.10152,87.3188,58,31,0
87.3188,87.56221,54,28,0
87.762886,87.96357,47,24,0
87.96357,88.17155,54,28,0
88.17155,88.37952,59,26,0
88.37952,88.59889,53,28,0
88.59889,88.821945,59,25,0
88.821945,89.02854,54,28,0
89.02854,89.23514,63,27,0
89.23514,89.441734,61,27,0
89.441734,89.64833,59,26,0
89.64833,89.854935,56,33,0
89.854935,90.06153,54,32,0
90.29578,90.499374,54,38,0
90.06153,90.499374,47,54,0
90.499374,90.67406,59,45,0
90.67406,90.85031,63,38,0
90.85031,91.04011,59,37,0
91.04011,91.23889,54,37,0
91.46804,91.67164,55,45,0
91.23889,91.67164,46,60,0
91.67164,91.84632,61,50,0
91.84632,92.018,63,46,0
92.018,92.20953,61,46,0
92.20953,92.395966,55,46,0
92.61901,92.82163,54,46,0
92.395966,92.82163,45,68,0
92.82163,92.99787,60,49,0
92.99787,93.17264,63,47,0
93.17264,93.34214,60,47,0
93.34214,93.54574,54,48,0
93.7774,93.95923,54,49,0
93.54574,93.95923,44,77,0
93.95923,94.13058,60,52,0
94.13058,94.29936,63,48,0
94.29936,94.4972,60,48,0
94.4972,94.71009,54,48,0
94.94305,95.13723,55,45,0
94.71009,95.13723,43,81,0
95.13723,95.30528,60,54,0
95.30528,95.465935,64,48,0
95.465935,95.65319,60,45,0
95.65319,95.8456,55,45,0
96.07104,96.25502,55,47,0
96.25502,96.42597,60,57,0
96.42597,96.59059,64,47,0
96.59059,96.78039,60,47,0
96.78039,96.98107,55,47,0
97.20532,97.406006,57,52,0
96.98107,97.406006,43,75,0
97.406006,97.58185,60,54,0
97.406006,97.58185,62,54,0
97.58185,97.75656,65,48,0
97.75656,97.92255,60,48,0
97.75656,97.92255,62,48,0
97.92255,98.12323,57,48,0
99.64244,99.84408,43,63,0
99.84408,100.045715,53,69,0
99.84408,100.045715,50,60,0
100.045715,100.24736,57,54,0
100.24736,100.448044,53,65,0
100.24736,100.448044,50,55,0
100.448044,100.61358,43,58,0
100.64117,100.82525,59,74,0
100.62737,100.82525,53,73,0
100.61358,100.82525,43,73,0
101.92914,102.29735,52,62,0
101.92914,102.29735,36,62,0
102.29735,102.45769,72,73,0
102.45769,102.62939,64,63,0
102.62939,102.79436,67,70,0
102.79436,102.97286,60,61,0
102.97286,103.14202,64,68,0
103.14202,103.32129,55,62,0
103.32129,103.494095,60,70,0
103.494095,103.67648,52,60,0
103.67648,103.859634,55,68,0
103.859634,104.06522,48,61,0
104.06522,104.251656,53,69,0
104.06522,104.251656,41,69,0
104.43808,104.61559,68,68,0
104.61559,104.79311,60,61,0
104.79311,104.98464,65,67,0
104.98464,105.18629,56,61,0
105.18629,105.36949,60,66,0
105.36949,105.5527,53,61,0
105.5527,105.731476,56,66,0
105.731476,105.90899,48,61,0
105.90899,106.101395,53,67,0
106.101395,106.30598,44,61,0
106.30598,106.68386,48,62,0
106.30598,106.68386,36,62,0
106.68386,106.85742,72,73,0
106.85742,107.03098,64,63,0
107.03098,107.204544,67,70,0
107.204544,107.39783,60,61,0
107.39783,107.58677,64,68,0
107.58677,107.77571,55,62,0
107.77571,107.94927,60,70,0
107.94927,108.12283,52,60,0
108.12283,108.296394,55,68,0
108.296394,108.50198,48,61,0
108.50198,108.690926,45,69,0
108.50198,108.690926,33,69,0
108.87987,109.05572,72,68,0
109.05572,109.23157,64,61,0
109.23157,109.4231,69,67,0
109.4231,109.62474,60,61,0
109.62474,109.80879,64,72,0
109.80879,109.992836,57,66,0
109.992836,110.17689,60,73,0
110.17689,110.36094,52,68,0
110.36094,110.55422,57,77,0
110.55422,110.791115,48,71,0
110.99084,111.195885,59,57,0
111.17893,111.36443,56,58,0
111.348434,111.52532,64,57,0
111.508446,111.69862,59,53,0
110.791115,111.8912,40,70,0
110.791115,111.8912,52,80,0
111.67723,111.8912,56,53,0
112.07598,112.27765,59,57,0
112.260765,112.44562,56,62,0
112.42955,112.60737,64,59,0
112.5902,112.783844,59,59,0
111.8912,112.981445,40,70,0
111.8912,112.981445,52,80,0
112.76189,112.981445,56,62,0
113.18804,113.394554,60,61,0
113.37784,113.55665,56,65,0
113.54078,113.71654,66,61,0
113.69952,113.888,60,59,0
112.981445,114.0524,39,70,0
112.981445,114.0524,51,80,0
113.869736,114.0524,56,65,0
114.0524,114.25547,51,73,0
114.23737,114.43504,60,61,0
114.41837,114.60093,56,64,0
114.58505,114.76111,66,59,0
114.74379,114.94065,60,64,0
114.91696,115.153854,56,67,0
115.35358,115.55537,59,60,0
115.53877,115.720566,56,62,0
115.70476,115.880104,66,61,0
115.86286,116.05545,59,57,0
115.153854,116.23693,38,70,0
115.153854,116.23693,50,80,0
116.035286,116.23693,56,66,0
116.42587,116.631004,59,61,0
116.61481,116.79295,56,65,0
116.776764,116.957695,65,62,0
116.93871,117.153755,59,59,0
116.23693,117.380936,37,70,0
116.23693,117.380936,49,80,0
117.12852,117.380936,56,67,0
117.380936,117.58753,42,80,0
117.58753,117.777336,52,63,0
117.777336,117.90399,58,65,0
117.94481,118.108086,58,67,0
118.108086,118.28051,64,70,0
118.28051,118.414444,68,72,0
118.45909,118.64485,68,77,0
118.64485,118.83061,64,69,0
118.83061,118.951096,58,71,0
118.99126,119.15191,58,64,0
119.15191,119.343445,52,70,0
119.343445,119.53498,42,64,0
119.53498,119.73376,35,80,0
119.73376,119.915306,47,63,0
119.915306,120.08338,54,65,0
120.08338,120.25146,57,67,0
120.25146,120.43722,61,70,0
120.43722,120.646904,64,72,0
120.646904,120.82681,68,77,0
120.82681,121.00672,63,69,0
121.00672,121.17815,59,71,0
121.17815,121.34958,57,64,0
121.34958,121.53278,51,70,0
121.53278,121.71599,47,64,0
121.71599,121.91477,40,80,0
121.91477,122.104576,47,63,0
122.104576,122.28288,52,65,0
122.28288,122.46118,56,67,0
122.46118,122.65537,58,70,0
122.65537,122.84778,64,69,0
122.84778,123.03672,59,77,0
123.03672,123.22566,68,69,0
123.22566,123.40397,64,71,0
123.40397,123.582275,59,64,0
123.582275,123.760574,56,70,0
123.760574,123.95038,47,64,0
124.1501,124.35451,59,60,0
124.3382,124.51687,56,63,0
124.50124,124.67431,64,61,0
124.6575,124.845085,59,57,0
123.95038,125.02066,40,70,0
123.95038,125.02066,52,80,0
124.82558,125.02066,56,57,0
125.2096,125.41478,60,61,0
125.398544,125.576614,56,64,0
125.56092,125.73526,66,62,0
125.7178,125.91444,60,57,0
125.02066,126.11203,39,70,0
125.02066,126.11203,51,80,0
125.89248,126.11203,56,57,0
126.31863,126.517715,59,61,0
126.501,126.684326,56,65,0
126.66813,126.847626,65,61,0
126.830086,127.023964,59,60,0
126.11203,127.1878,38,70,0
126.11203,127.1878,50,80,0
127.00553,127.1878,56,63,0
127.36512,127.55562,59,61,0
127.53905,127.720924,56,64,0
127.704796,127.88507,65,59,0
127.86609,128.07558,59,64,0
128.0559,128.2528,56,63,0
127.1878,128.2528,49,77,0
128.44511,128.64986,60,60,0
128.63322,128.81584,56,64,0
128.79965,128.97939,65,61,0
128.96161,129.15956,60,57,0
128.2528,129.34103,36,70,0
128.2528,129.34103,48,80,0
129.13939,129.34103,56,57,0
129.52628,129.72475,61,61,0
129.70782,129.89346,56,66,0
129.87708,130.06035,65,62,0
130.04102,130.25908,61,59,0
129.34103,130.48203,47,89,0
129.34103,130.48203,35,89,0
130.2343,130.48203,56,62,0
130.67711,130.8722,56,78,0
130.48203,130.8722,46,96,0
130.48203,130.8722,34,96,0
130.8722,131.0505,62,78,0
131.0505,131.2288,65,78,0
131.2288,131.40712,62,74,0
131.40712,131.60004,56,74,0
131.60004,131.79112,53,82,0
131.79112,131.97581,56,78,0
131.97581,132.15819,62,78,0
132.15819,132.34056,65,78,0
132.34056,132.54716,62,74,0
132.54716,132.75375,56,74,0
132.75375,132.93866,39,88,0
132.93866,133.12355,49,68,0
133.12355,133.29721,53,70,0
133.29721,133.47089,56,72,0
133.47089,133.6706,58,74,0
133.6706,133.87032,61,80,0
133.87032,134.05782,65,85,0
134.05782,134.24532,61,83,0
134.24532,134.42363,58,75,0
134.42363,134.60193,56,74,0
134.60193,134.80165,53,72,0
134.80165,134.99353,49,69,0
135.18016,135.36679,56,69,0
134.99353,135.36679,46,78,0
134.99353,135.36679,34,70,0
135.36679,135.5534,62,69,0
135.5534,135.74004,65,69,0
135.74004,135.92241,62,65,0
135.92241,136.09836,56,66,0
136.09836,136.28944,53,82,0
136.28944,136.48053,56,78,0
136.48053,136.65804,62,78,0
136.65804,136.83556,65,71,0
136.83556,137.04318,62,78,0
137.04318,137.25081,56,72,0
137.25081,137.43831,39,88,0
137.43831,137.62581,49,68,0
137.62581,137.80573,53,70,0
137.80573,137.98563,56,72,0
137.98563,138.18535,58,74,0
138.18535,138.38507,61,80,0
138.38507,138.5768,65,84,0
138.5768,138.76608,61,82,0
138.76608,138.94762,58,78,0
138.94762,139.12917,56,74,0
139.12917,139.32397,53,72,0
139.32397,139.51877,49,69,0
139.70627,139.88618,56,69,0
139.88618,140.06609,62,69,0
140.06609,140.25537,65,69,0
140.25537,140.458,62,66,0
140.458,140.66061,56,68,0
139.51877,140.66061,47,78,0
139.51877,140.66061,35,69,0
140.87677,141.11774,53,69,0
140.66061,141.11774,46,78,0
140.66061,141.11774,34,70,0
141.11774,141.30612,56,69,0
141.30612,141.49867,62,69,0
141.49867,141.70227,56,65,0
141.70227,141.90587,53,65,0
144.32219,144.51796,39,33,0
144.51796,144.71371,49,37,0
144.71371,144.90947,53,40,0
144.90947,145.10522,56,45,0
145.10522,145.31761,58,48,0
145.31761,145.53001,61,53,0
145.53001,145.72386,65,57,0
145.72386,145.91772,61,59,0
145.91772,146.11159,58,59,0
146.11159,146.30545,56,59,0
146.30545,146.52733,53,58,0
146.52733,146.7492,49,56,0
146.7492,146.94987,39,59,0
146.94987,147.15054,49,60,0
147.15054,147.35121,53,63,0
147.35121,147.55188,56,66,0
147.55188,147.78104,58,69,0
147.78104,148.01018,61,72,0
148.01018,148.21495,68,74,0
148.21495,148.41974,65,72,0
148.41974,148.62451,61,70,0
148.62451,148.82928,56,67,0
148.82928,149.06618,53,65,0
149.06618,149.36342,49,63,0
149.36342,149.6505,39,82,0
149.6505,149.88829,46,64,0
149.88829,150.11569,49,64,0
150.11569,150.33759,55,64,0
150.33759,150.55792,58,64,0
150.55792,150.77719,61,63,0
150.77719,150.99513,67,64,0
150.99513,151.21176,70,66,0
151.21176,151.42702,73,64,0
151.42702,151.64098,79,58,0
151.64098,151.8995,82,49,0
151.8995,152.29172,85,37,0
152.29172,152.4296,91,35,0
152.4296,152.56747,94,31,0
152.56747,152.6908,90,35,0
152.6908,152.80855,93,31,0
152.80855,152.91866,89,34,0
152.91866,153.02786,92,29,0
153.02786,153.1362,88,33,0
153.1362,153.24373,91,30,0
153.24373,153.35048,87,33,0
153.35048,153.45624,90,29,0
153.45624,153.5613,86,33,0
153.5613,153.6655,89,28,0
153.6655,153.76895,85,33,0
153.76895,153.87161,88,28,0
153.87161,153.97362,84,32,0
153.97362,154.07468,87,28,0
154.07468,154.17516,83,32,0
154.17516,154.2755,86,28,0
154.2755,154.37567,82,31,0
154.37567,154.47552,85,27,0
154.47552,154.5754,81,31,0
154.5754,154.67493,84,27,0
154.67493,154.7743,80,31,0
154.7743,154.87352,83,26,0
154.87352,154.97244,79,30,0
154.97244,155.07135,82,26,0
155.07135,155.1698,78,29,0
155.1698,155.26826,81,26,0
155.26826,155.36641,77,29,0
155.36641,155.4644,80,26,0
155.4644,155.56273,76,29,0
155.56273,155.6612,79,26,0
155.6612,155.76012,75,28,0
155.76012,155.8592,78,25,0
155.8592,155.9586,74,28,0
155.9586,156.05832,77,24,0
156.05832,156.15819,73,27,0
156.15819,156.25853,76,24,0
156.25853,156.3592,72,27,0
156.3592,156.46005,75,24,0
156.46005,156.56136,71,27,0
156.56136,156.66284,74,24,0
156.66284,156.76465,70,26,0
156.76465,156.86679,73,24,0
156.86679,156.9691,69,26,0
156.9691,157.07188,72,24,0
157.07188,157.20978,68,26,0
157.20978,157.29562,71,22,0
157.32423,157.50407,70,32,0
157.29562,157.50407,67,32,0
166.03214,166.5338,44,30,0
166.97064,167.3962,75,18,0
166.97064,167.3962,80,23,0
166.97064,167.3962,84,23,0
167.44467,167.91286,84,24,0
167.44467,167.91286,80,21,0
167.44467,167.91286,75,20,0
168.86359,169.37787,43,31,0
169.80801,170.21806,84,21,0
169.80801,170.21806,82,21,0
169.80801,170.21806,76,17,0
170.26627,170.74167,84,24,0
170.26627,170.74167,82,24,0
170.26627,170.74167,76,20,0
171.7428,172.24237,41,36,0
172.68265,173.09181,75,21,0
172.68265,173.09181,81,25,0
172.68265,173.09181,84,25,0
173.13893,173.57939,85,27,0
173.13893,173.57939,81,27,0
173.13893,173.57939,75,21,0
174.54633,175.07428,46,34,0
174.54633,175.07428,34,34,0
175.51804,175.94193,74,19,0
175.51804,175.94193,77,24,0
175.51804,175.94193,84,24,0
175.99214,176.47055,77,28,0
175.99214,176.47055,74,23,0
177.46341,177.90372,51,33,0
177.46341,177.90372,39,33,0
178.33606,178.75644,70,24,0
178.33606,178.75644,73,24,0
178.33606,178.75644,80,24,0
178.815,179.29309,79,27,0
178.75644,179.29309,73,26,0
178.78572,179.29309,75,27,0
178.84428,179.73221,84,28,0
179.73221,180.22546,82,25,0
180.22546,180.7113,44,28,0
180.22546,180.7113,32,28,0
181.15274,181.57341,75,23,0
181.15274,181.57341,72,23,0
181.15274,181.57341,80,23,0
181.6216,182.06296,80,25,0
181.6216,182.06296,75,25,0
181.6216,182.06296,72,25,0
183.09319,183.59485,60,39,0
183.06142,183.59485,51,36,0
183.02966,183.59485,44,35,0
184.0317,184.45724,75,17,0
184.0317,184.45724,80,21,0
184.0317,184.45724,84,21,0
184.50572,184.9633,75,22,0
184.50572,184.9633,80,26,0
184.50572,184.9633,84,26,0
185.9129,186.42719,58,32,0
185.9129,186.42719,52,32,0
185.9129,186.42719,43,32,0
186.85733,187.26738,76,19,0
186.85733,187.26738,82,23,0
186.85733,187.26738,84,23,0
187.31557,187.76395,76,28,0
187.31557,187.76395,82,30,0
187.31557,187.76395,84,30,0
188.72101,190.14288,57,32,0
188.72101,190.14288,41,32,0
190.14288,191.63019,54,28,0
190.14288,191.63019,39,28,0
191.63019,192.15814,53,45,0
191.63019,192.15814,38,45,0
192.6019,193.04233,80,25,0
192.6019,193.04233,84,31,0
192.6019,193.04233,89,31,0
193.09253,193.57094,89,32,0
193.09253,193.57094,80,28,0
193.09253,193.57094,83,32,0
194.5656,195.09364,52,30,0
194.5656,195.09364,37,26,0
195.53397,195.9509,76,20,0
195.53397,195.9509,80,24,0
195.53397,195.9509,82,24,0
196.00081,196.48987,82,27,0
196.00081,196.48987,79,27,0
196.00081,196.48987,76,22,0
197.46085,197.97757,51,31,0
197.42343,197.97757,36,29,0
198.44089,198.87527,87,20,0
198.44089,198.87527,82,20,0
198.44089,198.87527,78,16,0
198.92432,199.40915,87,23,0
198.92432,199.40915,81,23,0
198.92432,199.40915,78,20,0
200.40712,200.9622,50,30,0
200.40712,200.9622,35,26,0
201.4219,201.85681,74,16,0
201.4219,201.85681,78,20,0
201.4219,201.85681,80,20,0
201.90857,202.39691,80,23,0
201.90857,202.39691,77,23,0
201.90857,202.39691,74,19,0
203.41887,203.98492,49,31,0
203.41887,203.98492,34,27,0
204.45084,204.93845,85,20,0
204.45084,204.93845,80,20,0
204.45084,204.93845,77,16,0
204.99359,205.48679,85,23,0
204.99359,205.48679,80,23,0
204.99359,205.48679,76,18,0
208.08058,209.66344,55,27,0
206.55399,209.66344,39,27,0
210.0374,210.33049,32,20,0
210.33049,210.57712,44,21,0
210.57712,210.82375,51,23,0
210.82375,211.07037,56,24,0
212.87012,214.00294,72,25,0
212.87012,214.00294,68,25,0
214.00294,214.48282,70,21,0
214.00294,214.48282,67,21,0
214.50807,214.99084,69,21,0
214.50807,214.99084,65,21,0
215.01625,215.53345,69,24,0
215.01625,215.53345,63,24,0
215.56067,216.14612,63,21,0
215.56067,216.14612,69,21,0
216.17693,216.67168,71,26,0
216.17693,216.67168,62,26,0
219.42555,220.52144,70,25,0
219.42555,220.52144,66,25,0
220.52144,221.0042,68,21,0
220.52144,221.0042,65,21,0
221.02962,221.50378,67,21,0
221.02962,221.50378,63,21,0
221.52873,222.03285,67,24,0
221.52873,222.03285,61,24,0
222.05939,222.67183,61,21,0
222.05939,222.67183,67,21,0
222.70406,223.20187,69,26,0
222.70406,223.20187,60,26,0
225.68779,228.85704,57,46,0
225.58615,228.85704,37,41,0
229.25967,230.85161,56,41,0
230.85161,232.68542,55,33,0
228.85704,232.68542,39,33,0
232.68542,234.9595,51,31,0
234.9595,235.54567,50,34,0
235.54567,236.06871,51,35,0
232.68542,236.23056,44,31,0
236.06871,236.23056,44,31,0
236.12267,238.10693,55,33,0
238.10693,239.51506,53,30,0
239.51506,240.36084,51,30,0
240.56813,245.33595,51,34,0
240.36084,245.33595,44,26,0
