start_time,end_time,note_value,velocity,instrument_program_number
1.4522783,1.585316,46,77,0
1.585316,2.5165803,51,89,0
2.5165803,2.649618,55,77,0
2.649618,2.7844496,56,83,0
3.188944,3.3271146,57,81,0
3.751643,4.7871256,58,89,0
4.7871256,4.916715,75,70,0
4.7871256,4.916715,87,84,0
4.7871256,4.916715,82,70,0
4.7871256,4.916715,79,70,0
5.694254,5.823437,46,77,0
5.823437,6.7485466,51,89,0
6.7485466,6.882499,55,77,0
6.882499,7.0182457,58,83,0
7.425485,7.564053,60,81,0
7.979758,9.016476,61,89,0
9.016476,9.146066,79,70,0
9.016476,9.146066,91,85,0
9.016476,9.146066,87,70,0
9.016476,9.146066,82,70,0
9.923604,10.051536,48,77,0
10.051536,10.968893,51,89,0
10.968893,11.101058,56,64,0
11.101058,11.453816,60,72,0
11.453816,11.8306675,61,75,0
11.8306675,12.23369,62,79,0
12.23369,13.27551,63,89,0
13.27551,13.405945,80,70,0
13.27551,13.405945,92,84,0
13.27551,13.405945,87,70,0
13.27551,13.405945,84,70,0
14.188553,14.317314,48,77,0
14.317314,15.212836,51,89,0
15.212836,15.340768,56,70,0
15.340768,15.599413,60,68,0
15.599413,15.870341,63,70,0
15.870341,16.164625,64,74,0
16.164625,16.464626,65,79,0
16.464626,17.514954,66,89,0
17.514954,17.667238,81,70,0
17.514954,17.667238,93,84,0
17.514954,17.667238,90,70,0
17.514954,17.667238,84,70,0
19.048239,19.14274,68,36,0
19.048239,19.14274,63,36,0
19.361124,19.455664,71,36,0
19.361124,19.455664,65,36,0
19.667437,19.754772,72,40,0
19.667437,19.754772,66,40,0
19.950752,20.031612,74,37,0
19.950752,20.031612,68,37,0
20.214008,20.289919,75,37,0
20.214008,20.289919,69,37,0
20.465195,20.540194,77,41,0
20.465195,20.540194,71,41,0
20.710886,20.78262,78,37,0
20.710886,20.78262,72,37,0
20.94694,21.016039,80,38,0
20.94694,21.016039,74,38,0
21.174496,21.241163,81,42,0
21.174496,21.241163,75,42,0
21.394398,21.460241,83,40,0
21.394398,21.460241,77,40,0
21.612389,21.677166,84,40,0
21.612389,21.677166,78,40,0
21.826872,21.89062,86,42,0
21.826872,21.89062,80,42,0
22.03716,22.098541,87,44,0
22.03716,22.098541,81,44,0
22.241394,22.302309,89,45,0
22.241394,22.302309,83,45,0
22.443989,22.503387,90,46,0
22.443989,22.503387,84,46,0
22.638914,22.696537,92,47,0
22.638914,22.696537,86,47,0
22.8294,22.885849,93,48,0
22.8294,22.885849,87,48,0
23.01642,23.071976,95,51,0
23.01642,23.071976,89,51,0
23.200092,23.254578,96,53,0
23.200092,23.254578,90,53,0
23.380281,23.433853,97,55,0
23.380281,23.433853,91,55,0
23.558102,23.597818,98,58,0
23.558102,23.597818,92,58,0
23.689922,23.72911,99,61,0
23.689922,23.72911,93,61,0
23.820293,23.859087,100,62,0
23.820293,23.859087,94,62,0
23.949308,23.98777,101,64,0
23.949308,23.98777,95,64,0
24.07683,24.114645,96,67,0
24.07683,24.114645,102,67,0
26.459692,27.379675,75,50,0
27.379675,27.470308,77,46,0
27.470308,27.560944,75,47,0
27.560944,27.923481,74,50,0
27.923481,28.178787,72,41,0
26.835867,28.346697,69,40,0
28.346697,28.687607,77,47,0
28.290728,28.687607,72,30,0
28.687607,29.063782,69,37,0
29.063782,29.439957,70,37,0
30.51584,31.77821,70,50,0
31.77821,31.868845,72,46,0
31.868845,31.95948,70,47,0
31.95948,32.322018,68,50,0
32.322018,32.577324,67,41,0
31.234404,32.74523,64,40,0
32.74523,33.086143,72,47,0
32.689262,33.086143,67,30,0
33.086143,33.46232,64,37,0
33.46232,33.838493,65,37,0
34.96702,36.21345,65,50,0
36.21345,36.303272,67,46,0
36.303272,36.393093,65,47,0
36.393093,36.73112,64,50,0
36.73112,36.96836,65,41,0
35.6729,37.136272,63,40,0
37.136272,37.47718,70,45,0
37.0803,37.47718,65,41,0
37.47718,37.853355,62,37,0
37.02433,37.853355,58,36,0
37.853355,38.22953,63,37,0
38.623604,38.96451,71,45,0
38.56763,38.96451,63,35,0
38.96451,39.340687,62,37,0
38.51166,39.340687,58,36,0
39.340687,39.71686,63,37,0
40.02353,40.12234,63,31,0
40.142105,40.51828,63,37,0
40.51828,40.894455,59,31,0
40.894455,41.27063,63,37,0
41.27063,41.646805,60,31,0
40.142105,41.646805,56,37,0
40.142105,41.646805,53,37,0
41.646805,42.148373,63,39,0
42.148373,42.64994,61,33,0
42.64994,43.15151,63,33,0
43.15151,43.609524,62,35,0
43.609524,43.7281,63,28,0
43.7281,43.84668,62,28,0
43.84668,43.965256,61,28,0
43.965256,44.08383,62,28,0
44.202408,45.669853,67,38,0
44.14312,45.669853,62,35,0
44.08383,45.669853,58,32,0
45.669853,45.877464,65,35,0
45.669853,45.877464,56,35,0
50.607586,50.74615,58,60,0
50.74615,51.78887,63,68,0
51.78887,51.91846,67,57,0
51.91846,51.990753,68,57,0
52.496777,52.56753,69,66,0
53.069923,54.20526,70,71,0
54.20526,54.280262,75,68,0
54.80526,55.223866,70,63,0
54.80526,55.223866,67,49,0
55.223866,55.293633,68,59,0
55.223866,55.293633,65,46,0
55.293633,55.3634,70,59,0
55.293633,55.3634,67,47,0
55.3634,55.66797,68,69,0
55.3634,55.66797,65,54,0
56.22047,56.468407,64,50,0
56.22047,56.468407,67,60,0
56.468407,56.540176,65,51,0
56.468407,56.540176,68,66,0
57.04257,57.115383,70,64,0
57.04257,57.115383,67,50,0
57.62509,58.833317,63,54,0
57.62509,58.833317,67,68,0
59.041107,59.2489,58,58,0
59.2489,59.45669,59,50,0
59.45669,59.647064,60,51,0
59.647064,59.83845,61,55,0
59.83845,60.029842,62,58,0
60.029842,61.07256,63,68,0
61.07256,61.202152,67,57,0
61.202152,61.27444,68,57,0
61.780464,61.85122,69,66,0
62.21007,62.257915,69,49,0
62.257915,62.305763,70,44,0
62.305763,62.35361,72,47,0
62.35361,62.416935,70,54,0
62.416935,62.48026,72,49,0
62.48026,62.543583,70,50,0
62.543583,62.60691,72,47,0
62.60691,62.670235,70,50,0
62.670235,62.73356,72,47,0
62.73356,62.796883,70,50,0
62.796883,62.860207,72,47,0
62.860207,62.92353,70,50,0
62.92353,62.986855,72,45,0
62.986855,63.037064,70,50,0
63.037064,63.087273,72,46,0
63.087273,63.13748,70,50,0
63.13748,63.187695,72,45,0
63.187695,63.237904,70,50,0
63.237904,63.300663,72,47,0
63.300663,63.363426,70,53,0
63.363426,63.426186,69,50,0
63.426186,63.48895,70,50,0
63.48895,63.56395,75,58,0
63.48895,63.56395,79,68,0
64.36802,64.50755,70,63,0
64.36802,64.50755,67,49,0
64.50755,64.577324,68,59,0
64.50755,64.577324,65,46,0
64.577324,64.64709,70,59,0
64.577324,64.64709,67,47,0
64.64709,64.95166,68,69,0
64.64709,64.95166,65,54,0
65.50416,65.75209,67,60,0
65.50416,65.75209,64,50,0
65.75209,65.82386,65,51,0
65.75209,65.82386,68,66,0
66.326256,66.39907,70,64,0
66.326256,66.39907,62,50,0
66.90878,68.117004,63,68,0
71.61582,71.754395,70,60,0
71.754395,72.742424,75,74,0
71.754395,72.742424,63,62,0
72.742424,72.867165,79,62,0
72.742424,72.867165,67,52,0
72.867165,72.93693,80,62,0
72.867165,72.93693,68,52,0
73.4253,73.49975,81,67,0
73.4253,73.49975,69,56,0
73.871956,73.946396,70,44,0
73.946396,74.020836,75,46,0
74.020836,74.09997,82,53,0
74.09997,74.17795,84,41,0
74.17795,74.25707,82,41,0
74.25593,74.33506,81,41,0
74.33506,74.41304,82,41,0
74.41304,74.492165,84,48,0
74.492165,74.570145,82,41,0
74.5713,74.654976,75,48,0
74.654976,74.73866,70,42,0
74.73866,74.82234,63,46,0
74.82234,74.90602,70,52,0
74.90602,74.98971,75,63,0
74.98971,75.07339,82,73,0
75.07339,75.146736,87,81,0
75.93168,76.056114,70,54,0
75.93168,76.056114,67,54,0
76.06742,76.1353,70,40,0
76.06742,76.1353,67,33,0
76.1353,76.20317,69,40,0
76.1353,76.20317,66,33,0
76.20317,76.268814,68,49,0
76.20317,76.268814,65,39,0
76.597046,76.66269,79,36,0
76.597046,76.66269,82,42,0
76.66269,76.72833,78,37,0
76.66269,76.72833,81,43,0
76.72833,76.79031,80,50,0
76.72833,76.79031,77,44,0
77.100235,77.16222,91,36,0
77.100235,77.16222,94,41,0
77.16222,77.224205,93,41,0
77.16222,77.224205,90,37,0
77.224205,77.29117,89,44,0
77.224205,77.29117,92,48,0
77.625984,77.75992,67,42,0
77.625984,77.75992,64,36,0
77.75992,77.82872,68,49,0
77.75992,77.82872,65,43,0
78.03515,78.10904,70,44,0
78.03515,78.10904,67,38,0
78.33071,79.53893,63,44,0
78.33071,79.53893,67,52,0
79.74673,79.95452,58,52,0
79.74673,79.98049,70,52,0
79.95452,80.162315,59,52,0
79.95452,80.1859,71,52,0
80.162315,80.352684,60,50,0
80.162315,80.37661,72,50,0
80.352684,80.544075,61,56,0
80.352684,80.56799,73,56,0
80.544075,80.73546,62,60,0
80.544075,80.76103,74,60,0
80.73546,81.72822,63,71,0
80.73546,81.72822,75,84,0
81.72822,81.85454,67,56,0
81.72822,81.85454,79,66,0
81.85454,81.9243,68,61,0
81.85454,81.9243,80,73,0
82.412674,82.482445,69,66,0
82.412674,82.482445,81,78,0
82.84129,82.91306,70,44,0
82.91306,82.98483,75,46,0
82.98483,83.06236,82,60,0
83.06236,83.13876,84,45,0
83.13876,83.21629,82,45,0
83.21517,83.2927,81,45,0
83.2927,83.3691,82,45,0
83.3691,83.44663,84,52,0
83.44663,83.52303,82,45,0
83.52416,83.59738,75,52,0
83.59738,83.669556,70,47,0
83.669556,83.74278,63,51,0
83.74278,83.816,70,58,0
83.816,83.888176,75,62,0
83.888176,83.950935,82,68,0
83.96035,84.02625,82,74,0
84.02625,84.10125,87,75,0
84.02625,84.10125,91,85,0
84.90148,85.027626,70,54,0
84.90148,85.027626,67,54,0
85.03909,85.1079,70,40,0
85.03909,85.1079,67,33,0
85.1079,85.17671,69,40,0
85.1079,85.17671,66,33,0
85.17671,85.24323,68,49,0
85.17671,85.24323,65,39,0
85.57582,85.64234,79,36,0
85.57582,85.64234,82,42,0
85.64234,85.70886,78,37,0
85.64234,85.70886,81,43,0
85.70886,85.77084,80,50,0
85.70886,85.77084,77,44,0
86.080765,86.142746,91,36,0
86.080765,86.142746,94,41,0
86.142746,86.20473,93,41,0
86.142746,86.20473,90,37,0
86.20473,86.2717,89,44,0
86.20473,86.2717,92,48,0
86.606514,86.74045,67,42,0
86.606514,86.74045,64,36,0
86.74045,86.922676,68,49,0
86.74045,86.922676,65,41,0
86.922676,87.2345,72,44,0
86.922676,87.2345,68,38,0
87.2345,87.35214,70,44,0
87.2345,87.35214,67,38,0
87.35214,88.006096,63,44,0
87.35214,88.006096,67,52,0
89.09207,89.58794,82,55,0
89.09207,89.58794,85,69,0
89.58794,89.99243,80,48,0
89.58794,89.99243,84,58,0
89.99243,90.05599,86,43,0
90.05599,90.11955,84,49,0
90.11955,90.18434,79,46,0
90.11955,90.18434,82,54,0
90.37873,90.44353,77,40,0
90.37873,90.44353,80,49,0
90.63791,90.70355,75,43,0
90.63791,90.70355,79,51,0
90.90049,90.96613,70,38,0
90.90049,90.96613,77,46,0
91.16307,91.23095,67,46,0
91.16307,91.23095,75,54,0
91.57031,91.71594,63,40,0
91.57031,91.71594,67,48,0
91.71594,91.98202,65,52,0
91.71594,91.98202,68,61,0
91.98202,92.04854,70,45,0
92.04854,92.11506,68,45,0
92.11506,92.24809,64,43,0
92.11506,92.24809,67,51,0
92.24809,92.31247,65,47,0
92.24809,92.31247,68,56,0
92.50561,92.573944,66,46,0
92.50561,92.573944,69,54,0
92.77895,93.05998,67,50,0
92.77895,93.05998,70,59,0
93.34101,93.83688,82,55,0
93.34101,93.83688,85,69,0
93.83688,94.24138,80,48,0
93.83688,94.24138,84,58,0
94.24138,94.30494,86,43,0
94.30494,94.36849,84,49,0
94.36849,94.43086,79,46,0
94.36849,94.43086,82,54,0
94.61797,94.68034,77,40,0
94.61797,94.68034,80,49,0
94.867455,94.9331,75,43,0
94.867455,94.9331,79,51,0
95.130035,95.19569,70,38,0
95.130035,95.19569,77,46,0
95.39262,95.460495,67,46,0
95.39262,95.460495,75,54,0
95.79986,95.94549,63,40,0
95.79986,95.94549,67,48,0
95.94549,96.21156,65,52,0
95.94549,96.21156,68,61,0
96.21156,96.27808,70,45,0
96.27808,96.344604,68,45,0
96.344604,96.47764,64,43,0
96.344604,96.47764,67,51,0
96.47764,96.542015,65,47,0
96.47764,96.542015,68,56,0
96.73515,96.80349,62,46,0
96.73515,96.80349,70,54,0
97.0085,97.28953,63,59,0
97.63798,98.04247,97,71,0
97.60427,98.04247,87,67,0
97.570564,98.04247,82,63,0
98.109886,98.51438,96,69,0
98.07618,98.51438,87,66,0
98.04247,98.51438,80,64,0
98.51438,98.57794,98,48,0
98.51438,98.57794,94,40,0
98.57794,98.6415,96,55,0
98.57794,98.6415,92,42,0
98.6415,98.76624,91,61,0
98.6415,98.76624,94,61,0
98.89098,98.953354,89,51,0
98.89098,98.953354,92,51,0
99.14046,99.20611,87,56,0
99.14046,99.20611,91,56,0
99.403046,99.46869,82,49,0
99.403046,99.46869,89,49,0
99.66563,99.7335,79,55,0
99.66563,99.7335,87,55,0
100.145676,100.2185,67,48,0
100.145676,100.2185,63,40,0
100.2185,100.48457,65,52,0
100.2185,100.48457,68,61,0
100.48457,100.55109,70,45,0
100.55109,100.61761,68,45,0
100.61761,100.75065,64,43,0
100.61761,100.75065,67,51,0
100.75065,100.815025,65,47,0
100.75065,100.815025,68,56,0
101.008156,101.07649,66,46,0
101.008156,101.07649,69,54,0
101.2815,101.56254,67,50,0
101.2815,101.56254,70,59,0
101.84357,102.25081,82,61,0
101.91144,102.31868,97,68,0
101.8775,102.31868,87,65,0
102.38655,102.791046,96,67,0
102.352615,102.791046,87,64,0
102.31868,102.791046,80,61,0
102.791046,102.85461,98,51,0
102.791046,102.85461,94,31,0
102.85461,102.91817,96,55,0
102.85461,102.91817,92,42,0
102.91817,103.04291,91,60,0
102.91817,103.04291,94,60,0
103.16765,103.23002,89,54,0
103.16765,103.23002,92,54,0
103.41712,103.48277,87,58,0
103.41712,103.48277,91,58,0
103.67971,103.74535,82,54,0
103.67971,103.74535,89,54,0
103.94229,104.01238,79,63,0
103.94229,104.01238,87,63,0
104.36285,104.508484,63,40,0
104.36285,104.508484,67,48,0
104.508484,105.35264,65,52,0
104.508484,105.35264,68,61,0
105.35264,105.66514,64,43,0
105.35264,105.6775,67,51,0
105.66514,105.74756,68,56,0
105.66514,105.74756,65,47,0
106.32448,106.41707,70,54,0
106.32448,106.41707,62,46,0
107.63182,107.699234,70,46,0
107.52016,107.699234,58,40,0
107.55737,107.699234,63,42,0
107.5946,107.699234,67,44,0
108.73321,108.801544,79,46,0
108.627815,108.801544,67,40,0
108.66295,108.801544,70,42,0
108.698074,108.801544,75,44,0
109.831505,109.894264,91,47,0
109.72995,109.894264,79,42,0
109.76389,109.894264,82,44,0
109.7978,109.894264,87,45,0
111.3172,111.45772,67,34,0
111.3172,111.45772,70,40,0
111.45772,111.59439,65,38,0
111.45772,111.59439,68,45,0
111.59439,111.731064,72,34,0
111.59439,111.731064,75,40,0
111.731064,111.867744,70,38,0
111.731064,111.867744,74,45,0
111.867744,112.00442,75,34,0
111.867744,112.00442,79,41,0
112.00442,112.12838,74,40,0
112.00442,112.12838,77,48,0
112.12838,112.25235,80,36,0
112.12838,112.25235,84,43,0
112.25235,112.38451,79,36,0
112.25235,112.38451,82,43,0
112.38451,112.51666,77,36,0
112.38451,112.51666,80,43,0
112.51666,112.6506,75,49,0
112.51666,112.6506,79,49,0
112.6506,112.78452,74,37,0
112.6506,112.78452,77,44,0
112.78452,112.91845,72,37,0
112.78452,112.91845,75,44,0
112.91845,113.05238,70,37,0
112.91845,113.05238,74,44,0
113.05238,113.189995,68,39,0
113.05238,113.189995,72,47,0
113.189995,113.32761,67,38,0
113.189995,113.32761,70,45,0
113.32761,113.42165,66,36,0
113.32761,113.42165,69,43,0
113.59486,113.67401,65,34,0
113.59486,113.67401,68,40,0
113.67401,114.32796,63,38,0
113.67401,114.32796,67,45,0
116.660736,116.72861,70,46,0
116.55151,116.72861,58,40,0
116.58792,116.72861,63,42,0
116.62433,116.72861,67,44,0
117.773796,117.84308,79,46,0
117.66691,117.84308,67,40,0
117.70254,117.84308,70,42,0
117.73817,117.84308,75,44,0
118.879524,118.94229,91,47,0
118.77798,118.94229,79,42,0
118.81191,118.94229,82,44,0
118.84582,118.94229,87,45,0
120.36523,120.505745,67,34,0
120.36523,120.505745,70,40,0
120.505745,120.618416,70,45,0
120.505745,120.618416,67,40,0
120.618416,120.731094,69,41,0
120.618416,120.731094,66,36,0
120.731094,120.85304,68,41,0
120.731094,120.85304,65,36,0
120.85304,120.96572,72,40,0
120.96572,121.0784,71,40,0
120.85304,121.0784,75,45,0
121.0784,121.19107,74,40,0
121.0784,121.19107,70,34,0
121.19107,121.30668,79,51,0
121.30668,121.42838,78,49,0
121.19107,121.42838,75,44,0
121.42838,121.556175,77,49,0
121.42838,121.556175,74,42,0
121.556175,121.67475,80,53,0
121.556175,121.67475,84,60,0
122.63307,122.81093,76,45,0
122.63307,122.81093,79,45,0
122.81093,122.97964,77,45,0
122.81093,122.97964,80,45,0
122.97964,123.137024,73,45,0
122.97964,123.137024,76,45,0
123.137024,123.28417,77,45,0
123.137024,123.28417,74,45,0
123.28417,123.42363,69,45,0
123.28417,123.42363,73,45,0
123.42363,123.56177,74,45,0
123.42363,123.56177,70,45,0
123.56177,123.69604,71,45,0
123.56177,123.69604,67,45,0
123.69604,123.77647,72,45,0
123.69604,123.77647,68,45,0
123.856895,123.93189,67,45,0
123.856895,123.93189,64,45,0
124.0069,124.084816,70,45,0
124.0069,124.084816,67,45,0
124.16274,124.24066,68,45,0
124.16274,124.24066,65,45,0
124.31858,124.972534,63,38,0
124.31858,124.972534,67,45,0
126.644,126.71328,58,38,0
126.71328,127.20374,63,52,0
127.20374,127.26505,67,39,0
127.28549,127.346794,67,36,0
127.36666,127.4251,68,39,0
127.44446,127.50227,68,36,0
127.521454,127.5788,69,39,0
127.59783,127.654495,69,36,0
127.67325,127.72944,70,39,0
127.74805,127.80363,70,36,0
127.82205,127.87707,75,39,0
127.89534,127.94983,75,36,0
127.9679,128.02182,79,39,0
128.03986,128.09424,79,35,0
128.11244,128.16742,80,39,0
128.1859,128.24153,80,35,0
128.26013,128.31645,81,39,0
128.33534,128.39229,81,34,0
128.41136,128.46902,82,39,0
128.48834,128.54668,82,34,0
128.56615,128.62746,87,39,0
128.64789,128.7092,87,34,0
128.72964,128.79094,91,39,0
128.81139,128.8727,91,35,0
128.89313,128.95444,92,41,0
128.97487,129.03618,92,36,0
129.05661,129.11792,93,42,0
129.13835,129.19966,93,37,0
129.22011,129.30757,93,43,0
129.30757,129.39503,94,38,0
129.39503,129.4825,96,38,0
129.4825,129.56996,94,34,0
129.56996,129.64975,91,42,0
129.64975,129.72952,87,35,0
129.72952,129.80931,84,41,0
129.80931,129.8891,82,34,0
129.8891,129.963,79,40,0
129.963,130.03688,75,33,0
130.03688,130.11078,72,38,0
130.11078,130.18468,70,32,0
130.18468,130.25856,67,38,0
130.25856,130.33246,63,33,0
130.33246,130.40634,62,37,0
130.40634,130.48041,63,34,0
130.48041,130.55551,67,33,0
130.55551,130.63121,70,34,0
130.63121,130.70752,75,35,0
130.70752,130.78444,79,36,0
130.78444,130.86217,82,38,0
130.86217,130.94054,87,39,0
130.94054,131.01953,91,40,0
131.01953,131.09929,94,41,0
131.09929,131.40155,99,47,0
131.55269,131.62825,67,33,0
131.55269,131.62825,70,39,0
131.70383,131.79515,65,39,0
131.70383,131.79515,68,47,0
131.89359,131.99913,82,39,0
132.10468,132.21022,64,33,0
132.10468,132.21022,67,39,0
132.31557,132.40526,65,39,0
132.31557,132.40526,68,46,0
132.5001,132.60011,94,41,0
132.70012,132.80373,67,34,0
132.70012,132.80373,70,41,0
132.91096,133.00272,68,39,0
132.91096,133.00272,72,47,0
133.09975,133.20206,82,41,0
133.30435,133.40665,70,34,0
133.30435,133.40665,74,41,0
133.50896,133.59946,72,38,0
133.50896,133.59946,75,45,0
133.69548,133.797,94,40,0
133.89853,134.02393,74,34,0
133.89853,134.02393,77,40,0
134.15892,134.26936,75,39,0
134.15892,134.26936,79,46,0
134.26936,134.37737,70,34,0
134.26936,134.37737,77,40,0
134.37737,134.48346,67,34,0
134.37737,134.48346,75,40,0
134.48346,134.58751,70,34,0
134.48346,134.58751,77,40,0
134.58751,134.6914,75,34,0
134.58751,134.6914,79,40,0
134.69011,134.7938,77,34,0
134.6914,134.79507,82,41,0
134.79507,134.89845,79,36,0
134.79507,134.89845,87,43,0
134.89845,135.003,82,37,0
134.89845,135.003,89,44,0
135.003,135.10892,87,38,0
135.003,135.10892,91,45,0
135.10892,135.21616,89,38,0
135.10892,135.21616,94,45,0
135.21616,135.32475,91,39,0
135.21616,135.32475,99,46,0
135.32475,135.43416,94,39,0
135.32475,135.43416,101,47,0
135.43416,135.58644,103,57,0
135.43416,135.58644,99,57,0
136.50014,136.6387,58,38,0
136.6387,137.12917,63,52,0
137.12917,137.19048,67,39,0
137.21092,137.27223,67,36,0
137.29208,137.35052,68,39,0
137.36989,137.4277,68,36,0
137.44688,137.50423,69,39,0
137.52325,137.57993,69,36,0
137.59868,137.65486,70,39,0
137.67348,137.72905,70,36,0
137.74748,137.80249,75,39,0
137.82077,137.87526,75,36,0
137.89333,137.94725,79,39,0
137.96529,138.01967,79,35,0
138.03787,138.09285,80,39,0
138.11133,138.16696,80,35,0
138.18556,138.24187,81,39,0
138.26077,138.3177,81,34,0
138.33679,138.39444,82,39,0
138.41377,138.47209,82,34,0
138.49158,138.55289,87,39,0
138.57332,138.63463,87,34,0
138.65506,138.71637,91,39,0
138.73682,138.79811,91,35,0
138.81856,138.87987,92,41,0
138.9003,138.96161,92,36,0
138.98204,139.04335,93,42,0
139.06378,139.12509,93,37,0
139.14552,139.23299,93,43,0
139.23299,139.32045,94,38,0
139.32045,139.40791,96,38,0
139.40791,139.49538,94,34,0
139.49538,139.57516,91,42,0
139.57516,139.65495,87,35,0
139.65495,139.73474,84,41,0
139.73474,139.81453,82,34,0
139.81453,139.88843,79,40,0
139.88843,139.96231,75,33,0
139.96231,140.03621,72,38,0
140.03621,140.11009,70,32,0
140.11009,140.18399,67,38,0
140.18399,140.25789,63,33,0
140.25789,140.33177,62,37,0
140.33177,140.40584,63,34,0
140.40584,140.48094,67,33,0
140.48094,140.55664,70,34,0
140.55664,140.63295,75,36,0
140.63295,140.70987,79,38,0
140.70987,140.7876,82,41,0
140.7876,140.86597,87,43,0
140.86597,140.94496,91,45,0
140.94496,141.02472,94,47,0
141.02472,141.32698,103,54,0
141.02472,141.32698,99,46,0
141.55368,141.61037,70,39,0
141.55368,141.61037,67,33,0
141.62926,141.72293,65,39,0
141.62926,141.72293,68,47,0
141.82254,141.92809,82,39,0
142.03362,142.13916,64,33,0
142.03362,142.13916,67,39,0
142.24452,142.33626,65,39,0
142.24452,142.33626,68,46,0
142.43213,142.53214,94,41,0
142.63213,142.73575,67,34,0
142.63213,142.73575,70,41,0
142.84299,142.93666,68,39,0
142.84299,142.93666,72,47,0
143.03465,143.13696,82,41,0
143.23926,143.34155,70,41,0
143.23926,143.34155,67,34,0
143.44386,143.53624,65,38,0
143.44386,143.53624,68,45,0
143.6332,143.73471,94,40,0
143.83624,143.94797,65,40,0
143.83624,143.94797,58,34,0
144.06555,144.68182,63,40,0
144.06555,144.68182,55,40,0
145.91895,146.00423,82,46,0
146.00423,146.08952,87,45,0
146.08952,146.1748,97,60,0
146.1748,146.2601,87,45,0
146.2601,146.34538,89,45,0
146.34538,146.43066,87,45,0
146.43066,146.51878,80,53,0
146.51878,146.60689,87,46,0
146.60689,146.69499,96,46,0
146.69499,146.7831,87,57,0
146.7831,146.8712,89,46,0
146.8712,146.9593,87,46,0
146.9593,147.05547,79,48,0
147.08752,147.18369,94,52,0
147.21574,147.3119,77,44,0
147.34395,147.44011,92,52,0
147.47217,147.56572,75,44,0
147.59691,147.69046,91,47,0
147.72165,147.8152,74,41,0
147.84639,147.93994,90,45,0
147.97113,148.06468,75,40,0
148.09587,148.18942,91,45,0
148.22061,148.31416,76,41,0
148.34535,148.4389,91,45,0
148.4701,148.56728,77,42,0
148.59969,148.69687,92,47,0
148.72926,148.82646,76,43,0
148.85886,148.95605,91,49,0
148.98845,149.08563,77,46,0
149.11804,149.21523,92,52,0
149.24762,149.34482,78,43,0
149.37721,149.47441,93,46,0
149.5068,149.604,79,47,0
149.6364,149.73358,94,55,0
150.02516,150.10832,70,45,0
150.10832,150.19148,75,38,0
150.19148,150.27464,85,58,0
150.27464,150.3578,75,42,0
150.3578,150.44096,77,38,0
150.44096,150.52412,75,40,0
150.52412,150.60924,68,45,0
150.60924,150.69435,75,35,0
150.69435,150.77946,84,51,0
150.77946,150.86458,75,35,0
150.86458,150.94969,77,35,0
150.94969,151.0348,75,35,0
151.0348,151.12975,67,42,0
151.1614,151.25635,82,48,0
151.288,151.38293,65,44,0
151.41458,151.50954,80,48,0
151.54118,151.63474,63,40,0
151.66592,151.75948,79,47,0
151.79066,151.88422,62,39,0
151.9154,152.00896,78,46,0
152.04015,152.1337,63,38,0
152.16489,152.25844,79,45,0
152.28963,152.38318,64,38,0
152.41435,152.50792,79,47,0
152.5391,152.63629,65,41,0
152.66869,152.76588,80,44,0
152.79828,152.89548,64,38,0
152.92787,153.02505,79,46,0
153.05746,153.15465,65,40,0
153.18704,153.28424,80,45,0
153.31664,153.41383,61,38,0
153.44623,153.54343,76,44,0
153.57582,153.673,62,40,0
153.70541,153.8026,77,46,0
154.09418,154.17946,82,50,0
154.17946,154.26476,87,45,0
154.26476,154.35004,97,54,0
154.35004,154.43533,87,45,0
154.43533,154.52061,89,45,0
154.52061,154.6059,87,45,0
154.6059,154.69402,80,50,0
154.69402,154.78212,87,46,0
154.78212,154.87022,96,54,0
154.87022,154.95833,87,46,0
154.95833,155.04494,89,46,0
155.04494,155.13005,87,46,0
155.13005,155.2258,79,42,0
155.25772,155.35347,94,49,0
155.38539,155.48114,77,44,0
155.51306,155.60881,92,47,0
155.64073,155.73428,75,41,0
155.76547,155.85902,91,48,0
155.89021,155.98376,74,41,0
156.01495,156.1085,90,46,0
156.1397,156.23325,75,41,0
156.26443,156.35799,91,46,0
156.38918,156.48273,76,40,0
156.51392,156.60747,91,45,0
156.63866,156.73584,77,39,0
156.76823,156.86543,92,47,0
156.89783,156.99503,76,40,0
157.02742,157.12462,91,46,0
157.15701,157.2542,77,43,0
157.2866,157.38379,92,48,0
157.41618,157.51338,78,45,0
157.54578,157.64297,93,51,0
157.67537,157.77257,79,47,0
157.80496,157.90215,94,52,0
158.19373,158.27689,70,45,0
158.27689,158.36005,75,38,0
158.36005,158.4432,85,50,0
158.4432,158.52637,75,38,0
158.52637,158.60953,77,38,0
158.60953,158.69269,75,40,0
158.69269,158.77908,68,45,0
158.77908,158.86548,75,38,0
158.86548,158.95187,84,48,0
158.95187,159.03825,75,38,0
159.03825,159.12465,77,38,0
159.12465,159.21104,75,38,0
159.21104,159.306,67,40,0
159.33765,159.43259,82,46,0
159.46423,159.55917,65,39,0
159.59082,159.68578,80,47,0
159.71742,159.81097,63,39,0
159.84216,159.93571,79,45,0
159.9669,160.06046,62,40,0
160.09164,160.1852,78,45,0
160.21638,160.30994,63,39,0
160.34113,160.43468,79,43,0
160.46587,160.55942,64,38,0
160.5906,160.68425,79,37,0
160.71686,160.84729,65,44,0
160.84729,160.9776,80,37,0
160.9776,161.10718,67,47,0
161.10718,161.23672,82,38,0
161.23672,161.36548,68,47,0
161.36548,161.49411,83,38,0
161.49411,161.62204,71,45,0
161.62204,161.74992,88,33,0
161.74992,161.87704,74,47,0
161.87704,162.00417,89,37,0
162.00417,162.13051,76,45,0
162.13051,162.25679,91,33,0
162.25679,162.38231,77,45,0
162.38231,162.50783,92,33,0
162.50783,162.63261,79,47,0
162.63261,162.75731,94,34,0
162.75731,162.88127,80,52,0
162.88127,163.00523,95,37,0
163.00523,163.12921,83,50,0
163.12921,163.25317,100,37,0
163.25317,163.37714,86,57,0
163.37714,163.5011,101,43,0
163.5011,163.62508,85,53,0
163.62508,163.74925,100,44,0
163.74925,163.87465,86,58,0
163.87465,164.00174,101,44,0
164.00174,164.13054,85,53,0
164.13054,164.26094,100,44,0
164.26094,164.39314,86,62,0
164.39314,164.52722,101,51,0
164.52722,164.66304,85,60,0
164.66304,164.80159,100,57,0
164.80159,164.88876,86,46,0
164.88876,164.97537,92,50,0
164.97537,165.0609,95,54,0
165.0609,165.14522,98,59,0
165.14522,165.22816,103,66,0
165.22816,165.3101,102,49,0
165.3101,165.39099,98,49,0
165.39099,165.47055,95,48,0
165.47055,165.54921,102,59,0
165.54921,165.62692,101,46,0
165.62692,165.70338,98,45,0
165.70338,165.77899,95,45,0
165.77899,165.85378,101,57,0
165.85378,165.92737,100,41,0
165.92737,166.00018,95,41,0
166.00018,166.0722,92,41,0
166.0722,166.14316,100,55,0
166.14316,166.21335,99,40,0
166.21335,166.28282,95,40,0
166.28282,166.35132,92,40,0
166.35132,166.41908,99,53,0
166.41908,166.48618,98,40,0
166.48618,166.55238,92,40,0
166.55238,166.6178,89,40,0
166.6178,166.68289,98,52,0
166.68289,166.74768,97,38,0
166.74768,166.81206,92,38,0
166.81206,166.87617,89,38,0
166.87617,166.94002,97,50,0
166.94002,167.00357,96,38,0
167.00357,167.0666,92,38,0
167.0666,167.13013,89,38,0
167.13013,167.19249,96,53,0
167.19249,167.25487,95,35,0
167.25487,167.31723,92,35,0
167.31723,167.37961,89,35,0
167.37961,167.44197,95,52,0
167.44197,167.50435,94,35,0
167.50435,167.56671,89,35,0
167.56671,167.62909,86,35,0
167.62909,167.69145,94,51,0
167.69145,167.75383,93,35,0
167.75383,167.8162,89,35,0
167.8162,167.87857,86,35,0
167.87857,167.94093,93,52,0
167.94093,168.00331,92,35,0
168.00331,168.07356,89,35,0
168.07356,168.14381,86,35,0
168.14381,168.2102,92,54,0
168.2102,168.27336,91,38,0
168.27336,168.33612,86,35,0
168.33612,168.39888,83,35,0
168.39888,168.46164,91,53,0
168.46164,168.52441,90,35,0
168.52441,168.58717,86,35,0
168.58717,168.64993,83,35,0
168.64993,168.71309,90,54,0
168.71309,168.77625,89,35,0
168.77625,168.8394,86,35,0
168.8394,168.90256,83,35,0
168.90256,168.96571,89,53,0
168.96571,169.02888,88,35,0
169.02888,169.09865,83,35,0
169.09865,169.16841,80,35,0
169.16841,169.23694,88,55,0
169.23694,169.29997,87,35,0
169.29997,169.36273,83,35,0
169.36273,169.42549,80,35,0
169.42549,169.48825,87,55,0
169.48825,169.55101,86,35,0
169.55101,169.61377,80,35,0
169.61377,169.67653,77,35,0
169.67653,169.7393,86,56,0
169.7393,169.80206,85,35,0
169.80206,169.86482,80,35,0
169.86482,169.92758,77,35,0
169.92758,169.99034,85,51,0
169.99034,170.0531,84,35,0
170.0531,170.12386,80,35,0
170.12386,170.19438,77,35,0
170.19438,170.25835,84,55,0
170.25835,170.32233,83,35,0
170.32233,170.38629,80,35,0
170.38629,170.45026,77,35,0
170.45026,170.51422,83,53,0
170.51422,170.57819,82,35,0
170.57819,170.64215,77,35,0
170.64215,170.70612,74,35,0
170.70612,170.77008,82,55,0
170.77008,170.83405,81,35,0
170.83405,170.89801,77,35,0
170.89801,170.96198,74,35,0
170.96198,171.02594,81,53,0
171.02594,171.0899,80,35,0
171.0899,171.16168,77,35,0
171.16168,171.23344,74,35,0
171.23344,171.29782,80,56,0
171.29782,171.36221,79,37,0
171.36221,171.42659,74,34,0
171.42659,171.49097,71,35,0
171.49097,171.55534,79,56,0
171.55534,171.61972,78,38,0
171.61972,171.6841,74,36,0
171.6841,171.74847,71,36,0
171.74847,171.81288,78,57,0
171.81288,171.87769,77,40,0
171.87769,171.94247,74,35,0
171.94247,172.00726,71,35,0
172.00726,172.07219,77,55,0
172.07219,172.1374,76,40,0
172.1374,172.20262,71,36,0
172.20262,172.26784,68,36,0
172.26784,172.33327,76,58,0
172.33327,172.39893,75,39,0
172.39893,172.46457,71,35,0
172.46457,172.53021,68,36,0
172.53021,172.59616,75,58,0
172.59616,172.66225,74,39,0
172.66225,172.72833,68,37,0
172.72833,172.7944,65,37,0
172.7944,172.8609,74,61,0
172.8609,172.92741,73,45,0
172.92741,172.99393,68,40,0
172.99393,173.06052,65,40,0
173.06052,173.12747,73,61,0
173.12747,173.19444,72,45,0
173.19444,173.2614,68,39,0
173.2614,173.32852,65,39,0
173.32852,173.39594,72,63,0
173.39594,173.46336,71,47,0
173.46336,173.53078,68,43,0
173.53078,173.59819,65,44,0
173.59819,173.6656,71,63,0
173.6656,173.73302,70,49,0
173.73302,173.80043,65,46,0
173.80043,173.86784,62,39,0
173.86784,173.95773,61,66,0
173.95773,174.04741,62,39,0
174.04741,174.13147,65,39,0
174.13147,174.20952,68,40,0
174.20952,174.2823,69,41,0
174.2823,174.35199,70,42,0
174.35199,174.42143,71,43,0
174.42143,174.49074,74,43,0
174.49074,174.55971,77,44,0
174.55971,174.62839,80,45,0
174.62839,174.69693,81,46,0
174.69693,174.76518,82,47,0
174.76518,174.83311,83,49,0
174.83311,174.9009,86,50,0
174.9009,174.96843,89,51,0
174.96843,175.03564,92,53,0
175.03564,175.1027,93,54,0
175.1027,175.16959,94,56,0
175.16959,175.23648,95,63,0
175.23648,175.30338,98,51,0
175.30338,175.37025,96,51,0
175.37025,175.43715,93,57,0
175.43715,175.50404,96,45,0
175.50404,175.57092,94,45,0
175.57092,175.63782,91,53,0
175.63782,175.70471,94,43,0
175.70471,175.77159,92,43,0
175.77159,175.83849,88,47,0
175.83849,175.90538,91,41,0
175.90538,175.97226,89,41,0
175.97226,176.03915,85,48,0
176.03915,176.10605,87,38,0
176.10605,176.17294,86,38,0
176.17294,176.23982,83,48,0
176.23982,176.30672,86,35,0
176.30672,176.37361,84,35,0
176.37361,176.44049,81,47,0
176.44049,176.50739,84,35,0
176.50739,176.57428,82,35,0
176.57428,176.64116,79,44,0
176.64116,176.70805,82,35,0
176.70805,176.77495,80,35,0
176.77495,176.84183,76,44,0
176.84183,176.90907,79,35,0
176.90907,176.97664,77,35,0
176.97664,177.04448,73,41,0
177.04448,177.11269,75,35,0
177.11269,177.18115,74,35,0
177.18115,177.24998,71,41,0
177.24998,177.31918,74,34,0
177.31918,177.38867,72,34,0
177.38867,177.45853,68,41,0
177.45853,177.52866,72,33,0
177.52866,177.59918,70,33,0
177.59918,177.67009,67,40,0
177.67009,177.74129,70,31,0
177.74129,177.81288,68,31,0
177.81288,177.88483,64,40,0
177.88483,177.95709,67,29,0
177.95709,178.02977,65,29,0
178.02977,178.10287,61,39,0
178.10287,178.17628,63,30,0
178.17628,178.2501,62,30,0
178.2501,178.32425,59,39,0
178.32425,178.39873,62,30,0
178.39873,178.473,60,30,0
178.473,178.54889,57,38,0
178.54889,178.62775,58,31,0
178.62775,178.70985,60,31,0
178.70985,178.79549,58,39,0
178.79549,178.88492,57,32,0
178.88492,178.99855,58,47,0
178.99855,179.04602,62,49,0
179.3783,179.71921,62,56,0
179.71921,179.79837,60,52,0
180.03583,180.3381,60,56,0
180.3381,180.41725,55,52,0
180.65472,180.7698,58,46,0
180.92326,180.96162,60,48,0
180.96162,181.07672,58,49,0
181.1918,181.26852,57,46,0
181.26852,181.35095,58,52,0
181.5982,181.67493,53,52,0
181.75165,181.82838,55,49,0
181.9051,181.98067,56,50,0
182.05624,182.1318,60,50,0
182.20737,182.28294,58,52,0
182.3585,182.43408,56,48,0
182.50964,182.5852,55,49,0
182.66078,182.71745,53,49,0
182.77412,182.8119,57,46,0
182.8119,182.8917,58,52,0
183.13106,183.2444,58,46,0
183.2822,183.35776,58,48,0
183.35776,183.43332,60,48,0
183.43332,183.49,58,49,0
183.66002,183.7356,57,46,0
183.7356,184.05992,58,52,0
184.05992,184.10182,62,49,0
184.39511,184.71173,62,55,0
184.71173,184.7909,60,52,0
185.02835,185.33063,60,56,0
185.33063,185.40977,55,49,0
185.64725,185.76233,58,56,0
185.91579,185.95415,60,48,0
185.95415,186.06924,58,49,0
186.18433,186.26106,57,46,0
186.26106,186.34348,58,52,0
186.59073,186.66745,53,52,0
186.74419,186.8209,55,49,0
186.89763,186.9732,56,50,0
187.04877,187.12433,60,50,0
187.1999,187.27547,58,52,0
187.35103,187.4266,56,48,0
187.50217,187.57773,55,49,0
187.6533,187.72887,53,49,0
187.80443,187.88,55,53,0
188.1067,188.71123,51,56,0
188.71123,188.7868,54,45,0
188.7868,188.86237,55,47,0
188.86237,188.93794,57,49,0
188.93794,189.0135,58,51,0
189.0135,189.05405,62,49,0
189.33783,189.65955,62,55,0
189.65955,189.7387,60,51,0
189.97617,190.27843,60,56,0
190.27843,190.35759,55,52,0
190.59505,190.71014,58,46,0
190.8636,190.90196,60,48,0
190.90196,191.01704,58,49,0
191.13214,191.20886,57,46,0
191.20886,191.29129,58,52,0
191.53853,191.61526,53,52,0
191.69199,191.7687,55,49,0
191.84544,191.921,56,50,0
191.99658,192.07214,60,50,0
192.1477,192.22328,58,52,0
192.29884,192.3744,56,48,0
192.44998,192.52554,55,49,0
192.6011,192.65779,53,49,0
192.71446,192.75224,57,46,0
192.75224,192.83203,58,52,0
193.0714,193.18474,58,46,0
193.22252,193.2981,58,48,0
193.2981,193.37366,60,48,0
193.37366,193.48701,58,49,0
193.60036,193.67592,57,46,0
193.67592,194.00024,58,52,0
194.00024,194.04214,62,49,0
194.33545,194.65207,62,54,0
194.65207,194.73122,60,49,0
194.96869,195.27095,60,55,0
195.27095,195.35011,55,52,0
195.58759,195.70267,58,46,0
195.85612,195.89449,60,48,0
195.89449,196.00957,58,49,0
196.12466,196.20139,57,46,0
196.20139,196.36623,58,52,0
196.53107,196.60779,53,52,0
196.68451,196.76125,55,49,0
196.83797,196.91353,56,50,0
196.9891,197.06467,60,50,0
197.14023,197.2158,58,52,0
197.29137,197.36693,56,48,0
197.4425,197.51807,55,49,0
197.59363,197.6692,53,49,0
197.74477,197.82033,55,56,0
198.61378,198.65157,69,49,0
198.576,198.65157,66,41,0
198.04703,198.65157,51,58,0
198.65157,198.95384,67,41,0
198.65157,198.95384,70,49,0
198.95384,199.03763,70,41,0
198.95384,199.03763,65,41,0
198.95384,199.03763,74,49,0
199.28903,199.60565,70,41,0
199.28903,199.60565,65,41,0
199.28903,199.60565,74,49,0
199.60565,199.72438,68,44,0
199.60565,199.72438,72,52,0
199.92227,200.22455,68,39,0
199.92227,200.22455,62,39,0
199.92227,200.22455,72,47,0
200.22455,200.34328,63,44,0
200.22455,200.34328,67,52,0
200.54117,200.65625,58,39,0
200.54117,200.65625,70,46,0
200.54117,200.65625,67,46,0
200.77135,200.84807,72,48,0
200.84807,200.96317,67,41,0
200.84807,200.96317,70,49,0
201.07825,201.15498,66,39,0
201.07825,201.15498,69,46,0
201.15498,201.31981,67,44,0
201.15498,201.31981,70,52,0
201.48465,201.56137,65,52,0
201.6381,201.71483,67,49,0
201.79155,201.86713,68,50,0
201.94269,202.01825,72,50,0
201.48465,202.09383,58,44,0
202.09383,202.16939,70,52,0
202.24495,202.32053,68,48,0
202.39609,202.47165,67,49,0
202.54723,202.62279,65,49,0
202.69835,202.8117,70,52,0
202.69835,202.8117,67,52,0
203.00063,203.11397,58,39,0
203.00063,203.11397,70,46,0
203.00063,203.11397,67,46,0
203.2651,203.30289,72,48,0
203.30289,203.41624,67,41,0
203.30289,203.41624,70,49,0
203.52959,203.60515,66,39,0
203.52959,203.60515,69,46,0
203.60515,203.75629,67,44,0
203.60515,203.75629,70,52,0
203.90742,203.99123,82,41,0
203.90742,203.99123,77,41,0
203.90742,203.99123,86,49,0
204.24261,204.55923,82,41,0
204.24261,204.55923,77,41,0
204.24261,204.55923,86,49,0
204.55923,204.67798,80,44,0
204.55923,204.67798,84,52,0
204.87587,205.17813,80,39,0
204.87587,205.17813,74,39,0
204.87587,205.17813,84,47,0
205.17813,205.29686,75,44,0
205.17813,205.29686,79,52,0
205.49475,205.60985,70,39,0
205.49475,205.60985,82,46,0
205.49475,205.60985,79,46,0
205.76329,205.80165,84,48,0
205.80165,205.91675,79,41,0
205.80165,205.91675,82,49,0
206.03183,206.10857,78,39,0
206.03183,206.10857,81,46,0
206.10857,206.27339,79,44,0
206.10857,206.27339,82,52,0
206.43823,206.51495,77,52,0
206.59169,206.66841,79,49,0
206.74513,206.82071,80,50,0
206.89627,206.97183,84,50,0
206.43823,207.04741,70,44,0
207.04741,207.12297,82,52,0
207.19853,207.27411,80,48,0
207.34967,207.42523,79,49,0
207.50081,207.57637,77,49,0
207.04741,207.65195,70,44,0
207.65195,207.76529,79,52,0
207.65195,207.76529,70,52,0
207.95421,208.48317,67,39,0
207.95421,208.48317,75,46,0
207.95421,208.48317,70,46,0
208.52095,208.55875,74,46,0
208.55875,208.70987,75,43,0
208.55875,208.70987,70,37,0
208.55875,208.70987,67,36,0
208.86101,208.93773,89,52,0
209.01447,209.09119,91,49,0
209.16791,209.24348,92,50,0
209.31905,209.3946,96,50,0
208.86101,209.47018,82,44,0
209.47018,209.54575,94,52,0
209.6213,209.69688,92,48,0
209.77245,209.848,91,49,0
209.92358,209.99915,89,49,0
209.47018,210.0747,82,44,0
210.0747,210.19345,91,44,0
210.0747,210.19345,94,52,0
210.0747,210.19345,82,44,0
210.39134,210.62152,91,41,0
210.39134,210.62152,94,49,0
210.62152,210.69824,90,39,0
210.62152,210.69824,93,46,0
210.39134,210.69824,82,44,0
210.69824,211.35759,91,44,0
210.69824,211.35759,94,52,0
210.69824,211.35759,82,44,0
211.35759,211.43431,77,52,0
211.51103,211.58777,79,49,0
211.66449,211.74005,80,50,0
211.81563,211.89119,84,50,0
211.35759,211.96675,70,44,0
211.96675,212.04233,82,52,0
212.11789,212.19345,80,48,0
212.26903,212.34459,79,49,0
212.42015,212.49573,77,49,0
211.96675,212.57129,70,44,0
212.57129,212.68465,79,52,0
212.57129,212.68465,70,52,0
212.87355,213.40253,67,39,0
212.87355,213.40253,75,46,0
212.87355,213.40253,70,46,0
213.4403,213.47809,74,46,0
213.47809,213.62923,75,43,0
213.47809,213.62923,70,37,0
213.47809,213.62923,67,36,0
213.78036,213.85709,89,52,0
213.9338,214.01054,91,49,0
214.08727,214.16283,92,50,0
214.2384,214.31396,96,50,0
213.78036,214.38953,82,44,0
214.38953,214.4651,94,52,0
214.54066,214.61623,92,48,0
214.6918,214.76736,91,49,0
214.84293,214.9185,89,49,0
214.38953,214.99406,82,44,0
214.99406,215.1128,91,44,0
214.99406,215.1128,94,52,0
214.99406,215.1128,82,44,0
215.31068,215.54086,91,41,0
215.31068,215.54086,94,49,0
215.54086,215.6176,90,39,0
215.54086,215.6176,93,46,0
215.31068,215.6176,82,44,0
215.6176,216.27693,91,44,0
215.6176,216.27693,94,52,0
215.6176,216.27693,82,44,0
216.27693,216.35934,77,52,0
216.44177,216.52419,79,49,0
216.6066,216.68452,80,50,0
216.76245,216.84036,84,50,0
216.27693,216.91829,70,44,0
216.91829,216.99808,82,52,0
217.07787,217.15765,80,48,0
217.23744,217.31853,79,49,0
217.3996,217.48068,77,49,0
217.52122,217.56177,78,49,0
216.91829,217.56177,70,44,0
217.56177,217.64847,79,49,0
217.90858,218.10092,70,44,0
218.10092,218.19708,75,49,0
217.90858,218.29326,67,37,0
218.29326,218.48558,74,42,0
218.48558,218.59274,77,49,0
218.29326,218.6999,68,35,0
218.6999,218.93803,65,42,0
218.93803,219.0571,71,49,0
218.6999,219.17616,62,35,0
219.17616,220.2242,67,39,0
219.17616,220.2242,72,46,0
220.2242,220.38614,71,47,0
220.38614,220.54808,72,41,0
220.54808,220.7093,74,41,0
220.7093,220.87599,72,45,0
220.87599,221.05283,71,40,0
221.05283,221.24171,72,45,0
221.64279,223.16685,77,51,0
221.56258,223.16685,72,49,0
221.48236,223.16685,65,47,0
223.16685,223.64813,75,49,0
223.64813,223.80856,75,42,0
224.21352,226.17903,74,51,0
224.11008,226.17903,68,49,0
224.0347,226.17903,62,47,0
226.3067,226.37053,77,58,0
226.24286,226.37053,68,50,0
226.17903,226.37053,62,46,0
226.68967,226.77637,67,47,0
226.68967,226.77637,75,56,0
226.85999,226.94011,70,41,0
226.85999,226.94011,77,49,0
227.0199,227.09969,75,42,0
227.0199,227.09969,79,50,0
227.17947,227.26694,77,37,0
227.17947,227.26694,80,44,0
227.31067,227.3544,84,56,0
227.3544,227.43614,79,42,0
227.3544,227.43614,82,50,0
227.59962,227.68137,78,38,0
227.59962,227.68137,81,45,0
227.68137,227.76758,79,50,0
227.68137,227.76758,82,50,0
228.0262,228.28632,56,97,0
228.37302,228.45543,75,47,0
228.37302,228.45543,72,47,0
228.37302,228.45543,84,56,0
228.69417,228.77939,72,56,0
228.69417,228.77939,80,56,0
228.69417,228.77939,84,66,0
228.94614,229.02766,79,42,0
228.94614,229.02766,71,42,0
228.94614,229.02766,83,51,0
229.02766,229.10918,72,42,0
229.02766,229.10918,80,42,0
229.02766,229.10918,84,51,0
229.36717,229.62729,55,96,0
229.71399,229.79642,75,47,0
229.71399,229.79642,70,47,0
229.71399,229.79642,82,56,0
230.03302,230.11972,70,56,0
230.03302,230.11972,79,56,0
230.03302,230.11972,82,66,0
230.28885,230.37126,78,42,0
230.28885,230.37126,69,42,0
230.28885,230.37126,81,51,0
230.37126,230.45367,70,42,0
230.37126,230.45367,79,42,0
230.37126,230.45367,82,51,0
230.71574,230.97586,53,95,0
231.06256,231.14497,74,47,0
231.06256,231.14497,68,47,0
231.06256,231.14497,80,56,0
231.38158,231.46754,68,56,0
231.38158,231.46754,77,56,0
231.38158,231.46754,80,66,0
231.63593,231.71834,76,42,0
231.63593,231.71834,67,42,0
231.63593,231.71834,79,51,0
231.71834,231.80075,68,42,0
231.71834,231.80075,77,42,0
231.71834,231.80075,80,51,0
232.06282,232.32294,51,99,0
232.40964,232.49205,70,47,0
232.40964,232.49205,67,47,0
232.40964,232.49205,79,56,0
232.72865,232.8169,67,56,0
232.72865,232.8169,75,56,0
232.72865,232.8169,79,66,0
232.98846,233.0718,74,42,0
232.98846,233.0718,66,42,0
232.98846,233.0718,78,51,0
233.0718,233.15422,67,42,0
233.0718,233.15422,75,42,0
233.0718,233.15422,79,51,0
233.41628,233.50008,72,44,0
233.41628,233.50008,80,52,0
233.58388,233.66766,70,39,0
233.58388,233.66766,79,47,0
233.75146,233.833,68,39,0
233.75146,233.833,77,47,0
233.9145,234.00275,67,39,0
233.9145,234.00275,75,47,0
234.09099,234.17477,65,44,0
234.09099,234.17477,74,52,0
234.25858,234.34238,62,38,0
234.25858,234.34238,70,45,0
234.42618,234.5152,63,38,0
234.42618,234.5152,72,45,0
234.60422,234.69324,65,38,0
234.60422,234.69324,74,45,0
234.78226,234.864,67,47,0
234.78226,234.864,75,56,0
234.94576,235.0275,70,41,0
234.94576,235.0275,77,49,0
235.10924,235.18819,75,42,0
235.10924,235.18819,79,50,0
235.26714,235.3546,77,37,0
235.26714,235.3546,80,44,0
235.39833,235.44206,84,56,0
235.44206,235.5238,79,42,0
235.44206,235.5238,82,50,0
235.68729,235.76903,78,38,0
235.68729,235.76903,81,45,0
235.76903,235.85078,79,50,0
235.76903,235.85078,82,50,0
236.109,236.1928,84,44,0
236.109,236.1928,92,52,0
236.2766,236.36038,82,39,0
236.2766,236.36038,91,47,0
236.44418,236.52313,80,39,0
236.44418,236.52313,89,47,0
236.60208,236.69032,79,39,0
236.60208,236.69032,87,47,0
236.77855,236.86235,77,44,0
236.77855,236.86235,86,52,0
236.94615,237.02995,74,38,0
236.94615,237.02995,82,45,0
237.11375,237.20277,75,38,0
237.11375,237.20277,84,45,0
237.2918,237.38081,77,38,0
237.2918,237.38081,86,45,0
237.46983,237.55157,79,47,0
237.46983,237.55157,87,56,0
237.63332,237.71506,82,41,0
237.63332,237.71506,89,49,0
237.7968,237.87856,87,42,0
237.7968,237.87856,91,50,0
237.9603,238.04776,89,37,0
237.9603,238.04776,92,44,0
238.09149,238.13522,96,56,0
238.13522,238.21696,91,42,0
238.13522,238.21696,94,50,0
238.38045,238.4622,90,38,0
238.38045,238.4622,93,45,0
238.4622,238.54742,91,50,0
238.4622,238.54742,94,50,0
238.8031,239.06322,56,93,0
239.14993,239.23235,75,47,0
239.14993,239.23235,72,47,0
239.14993,239.23235,84,56,0
239.47107,239.5617,72,56,0
239.47107,239.5617,80,56,0
239.47107,239.5617,84,66,0
239.73567,239.819,79,42,0
239.73567,239.819,71,42,0
239.73567,239.819,83,51,0
239.819,239.90234,72,42,0
239.819,239.90234,80,42,0
239.819,239.90234,84,51,0
240.16214,240.42226,55,101,0
240.50897,240.59138,75,47,0
240.50897,240.59138,70,47,0
240.50897,240.59138,82,56,0
240.82799,240.91623,70,56,0
240.82799,240.91623,79,56,0
240.82799,240.91623,82,66,0
241.0878,241.17113,78,42,0
241.0878,241.17113,69,42,0
241.0878,241.17113,81,51,0
241.17113,241.25446,70,42,0
241.17113,241.25446,79,42,0
241.17113,241.25446,82,51,0
241.51743,241.77754,53,96,0
241.86426,241.94667,74,47,0
241.86426,241.94667,68,47,0
241.86426,241.94667,80,56,0
242.18327,242.2723,68,56,0
242.18327,242.2723,77,56,0
242.18327,242.2723,80,66,0
242.44284,242.52437,76,42,0
242.44284,242.52437,67,42,0
242.44284,242.52437,79,51,0
242.52437,242.60588,68,42,0
242.52437,242.60588,77,42,0
242.52437,242.60588,80,51,0
242.86705,243.12717,51,92,0
243.21387,243.29628,70,47,0
243.21387,243.29628,67,47,0
243.21387,243.29628,79,56,0
243.5329,243.62192,67,56,0
243.5329,243.62192,75,56,0
243.5329,243.62192,79,66,0
243.79335,243.87576,74,42,0
243.79335,243.87576,66,42,0
243.79335,243.87576,78,51,0
243.87576,243.95819,67,42,0
243.87576,243.95819,75,42,0
243.87576,243.95819,79,51,0
244.22025,244.30176,84,44,0
244.22025,244.30176,92,52,0
244.38329,244.46481,82,39,0
244.38329,244.46481,91,47,0
244.54633,244.62967,80,39,0
244.54633,244.62967,89,47,0
244.713,244.80124,79,39,0
244.713,244.80124,87,47,0
244.88947,244.97327,77,44,0
244.88947,244.97327,86,52,0
245.05707,245.14087,74,38,0
245.05707,245.14087,82,45,0
245.22467,245.308,75,38,0
245.22467,245.308,84,45,0
245.39133,245.47957,77,38,0
245.39133,245.47957,86,45,0
245.5678,245.64758,79,47,0
245.5678,245.64758,87,56,0
245.72737,245.80716,82,41,0
245.72737,245.80716,89,49,0
245.88695,245.96848,87,42,0
245.88695,245.96848,91,50,0
246.04999,246.13745,89,37,0
246.04999,246.13745,92,44,0
246.18118,246.22491,96,56,0
246.22491,246.30557,91,42,0
246.22491,246.30557,94,50,0
246.38622,246.46686,93,45,0
246.38622,246.46686,90,38,0
246.5475,246.62903,92,50,0
246.5475,246.62903,96,50,0
246.71054,246.79207,91,50,0
246.71054,246.79207,94,50,0
246.87358,246.95738,72,44,0
246.87358,246.95738,80,52,0
247.04118,247.12498,70,39,0
247.04118,247.12498,79,47,0
247.20879,247.28943,68,39,0
247.20879,247.28943,77,47,0
247.37007,247.45435,67,39,0
247.37007,247.45435,75,47,0
247.53862,247.6224,65,44,0
247.53862,247.6224,74,52,0
247.7062,247.79001,62,38,0
247.7062,247.79001,70,45,0
247.87381,247.95714,63,38,0
247.87381,247.95714,72,45,0
248.04048,248.12871,65,38,0
248.04048,248.12871,74,45,0
248.21695,248.29869,67,47,0
248.21695,248.29869,75,56,0
248.38043,248.46217,70,41,0
248.38043,248.46217,77,49,0
248.54391,248.62567,75,42,0
248.54391,248.62567,79,50,0
248.70741,248.79488,77,37,0
248.70741,248.79488,80,44,0
248.88234,248.96408,79,42,0
248.88234,248.96408,82,50,0
249.04582,249.12756,81,45,0
249.04582,249.12756,78,38,0
249.2093,249.29106,80,50,0
249.2093,249.29106,84,50,0
249.3728,249.45454,79,50,0
249.3728,249.45454,82,50,0
249.53629,249.62009,84,44,0
249.53629,249.62009,92,52,0
249.70389,249.78769,82,39,0
249.70389,249.78769,91,47,0
249.87148,249.95528,80,39,0
249.87148,249.95528,89,47,0
250.03908,250.12732,79,39,0
250.03908,250.12732,87,47,0
250.21555,250.29935,77,44,0
250.21555,250.29935,86,52,0
250.38315,250.46695,74,38,0
250.38315,250.46695,82,45,0
250.55075,250.63501,75,38,0
250.55075,250.63501,84,45,0
250.71928,250.80356,77,38,0
250.71928,250.80356,86,45,0
250.88782,250.96957,79,47,0
250.88782,250.96957,87,56,0
251.05132,251.13306,82,41,0
251.05132,251.13306,89,49,0
251.2148,251.29654,87,42,0
251.2148,251.29654,91,50,0
251.37828,251.46255,89,37,0
251.37828,251.46255,92,44,0
251.54683,251.62857,91,42,0
251.54683,251.62857,94,50,0
251.71031,251.79205,93,45,0
251.71031,251.79205,90,38,0
251.87381,251.95555,92,42,0
251.87381,251.95555,96,50,0
252.0373,252.12875,91,42,0
252.0373,252.12875,94,50,0
252.22021,252.30196,84,47,0
252.22021,252.30196,92,56,0
252.3837,252.46545,82,45,0
252.3837,252.46545,91,53,0
252.5472,252.62894,80,45,0
252.5472,252.62894,89,53,0
252.71068,252.79242,79,45,0
252.71068,252.79242,87,53,0
252.87416,252.95592,77,47,0
252.87416,252.95592,86,56,0
253.03766,253.12912,74,42,0
253.03766,253.12912,82,50,0
253.22058,253.30232,73,42,0
253.22058,253.30232,81,50,0
253.38406,253.46582,74,42,0
253.38406,253.46582,82,50,0
253.54756,253.62975,75,43,0
253.54756,253.62975,83,51,0
253.71217,253.79459,76,36,0
253.71217,253.79459,84,43,0
253.877,253.9592,77,38,0
253.877,253.9592,85,45,0
254.04094,254.12268,78,39,0
254.04094,254.12268,86,46,0
254.20442,254.28595,79,40,0
254.20442,254.28595,87,48,0
254.36703,254.44812,80,42,0
254.36703,254.44812,88,50,0
254.52919,254.61006,81,43,0
254.52919,254.61006,89,51,0
254.69049,254.77092,82,45,0
254.69049,254.77092,90,53,0
254.85135,254.93178,83,46,0
254.85135,254.93178,91,55,0
255.01178,255.09114,84,47,0
255.01178,255.09114,92,56,0
255.16988,255.24821,85,49,0
255.16988,255.24821,93,58,0
255.32593,255.40306,86,51,0
255.32593,255.40306,94,60,0
255.48038,255.55861,85,57,0
255.48038,255.55861,93,68,0
255.63777,255.71788,86,58,0
255.63777,255.71788,94,69,0
255.79895,255.88014,81,62,0
255.79895,255.88014,93,73,0
255.96123,256.05737,82,60,0
255.96123,256.05737,94,71,0
256.15353,256.33002,94,72,0
256.15353,256.33002,86,72,0
256.15353,256.33002,98,85,0
256.50647,256.8503,94,66,0
256.50647,256.8503,86,66,0
256.50647,256.8503,98,78,0
256.8503,257.01517,92,72,0
256.8503,257.01517,84,72,0
256.8503,257.01517,96,85,0
257.18,257.5209,92,68,0
257.18,257.5209,84,68,0
257.18,257.5209,96,80,0
257.5209,257.68573,87,71,0
257.5209,257.68573,79,71,0
257.5209,257.68573,91,84,0
257.85056,258.024,91,64,0
257.85056,258.024,82,64,0
257.85056,258.024,94,76,0
258.1974,258.27914,91,68,0
258.1974,258.27914,82,68,0
258.1974,258.27914,94,81,0
258.44263,258.52435,90,61,0
258.44263,258.52435,81,61,0
258.44263,258.52435,93,72,0
258.52435,258.69778,91,68,0
258.52435,258.69778,82,68,0
258.52435,258.69778,94,80,0
258.8712,258.95294,80,63,0
258.8712,258.95294,77,63,0
258.8712,258.95294,89,75,0
259.03467,259.11642,82,62,0
259.03467,259.11642,79,62,0
259.03467,259.11642,91,74,0
259.19815,259.2771,84,62,0
259.19815,259.2771,80,62,0
259.19815,259.2771,92,74,0
259.35605,259.435,84,62,0
259.35605,259.435,96,74,0
259.35605,259.435,87,74,0
259.51395,259.59546,82,64,0
259.51395,259.59546,94,76,0
259.51395,259.59546,86,76,0
259.677,259.7585,84,62,0
259.677,259.7585,80,62,0
259.677,259.7585,92,73,0
259.84003,259.92157,82,62,0
259.84003,259.92157,79,62,0
259.84003,259.92157,91,74,0
260.00308,260.0846,80,62,0
260.00308,260.0846,77,62,0
260.00308,260.0846,89,74,0
260.16614,260.33096,82,71,0
260.16614,260.33096,91,84,0
260.16614,260.33096,94,84,0
260.4958,260.66922,82,64,0
260.4958,260.66922,94,76,0
260.4958,260.66922,91,76,0
260.75592,260.84262,93,72,0
260.75592,260.84262,90,72,0
260.75592,260.84262,81,61,0
260.84262,261.52567,82,68,0
260.84262,261.52567,91,81,0
260.84262,261.52567,94,81,0
261.52567,261.71738,94,72,0
261.52567,261.71738,86,72,0
261.52567,261.71738,98,85,0
261.90906,262.28174,94,66,0
261.90906,262.28174,86,66,0
261.90906,262.28174,98,78,0
262.28174,262.45218,92,72,0
262.28174,262.45218,84,72,0
262.28174,262.45218,96,85,0
262.62265,262.98193,92,68,0
262.62265,262.98193,84,68,0
262.62265,262.98193,96,80,0
262.98193,263.14676,87,71,0
262.98193,263.14676,79,71,0
262.98193,263.14676,91,84,0
263.31158,263.48502,91,64,0
263.31158,263.48502,82,64,0
263.31158,263.48502,94,76,0
263.65842,263.74014,91,68,0
263.65842,263.74014,82,68,0
263.65842,263.74014,94,81,0
263.90366,263.98538,90,61,0
263.90366,263.98538,81,61,0
263.90366,263.98538,93,72,0
263.98538,264.1588,91,68,0
263.98538,264.1588,82,68,0
263.98538,264.1588,94,80,0
264.3322,264.41394,80,56,0
264.3322,264.41394,77,56,0
264.3322,264.41394,89,66,0
264.4957,264.57745,82,57,0
264.4957,264.57745,79,57,0
264.4957,264.57745,91,68,0
264.65918,264.73813,83,59,0
264.65918,264.73813,80,59,0
264.65918,264.73813,92,70,0
264.81708,264.89603,81,61,0
264.81708,264.89603,93,72,0
264.81708,264.89603,84,61,0
264.97498,265.0565,82,62,0
264.97498,265.0565,85,62,0
264.97498,265.0565,94,74,0
265.13803,265.21954,86,64,0
265.13803,265.21954,83,64,0
265.13803,265.21954,95,76,0
265.30106,265.3844,87,66,0
265.30106,265.3844,84,66,0
265.30106,265.3844,96,78,0
265.46774,265.55106,89,67,0
265.46774,265.55106,86,67,0
265.46774,265.55106,98,79,0
265.6344,265.7159,91,68,0
265.6344,265.7159,87,68,0
265.6344,265.7159,99,81,0
266.28656,266.3681,87,81,0
266.28656,266.3681,75,68,0
266.28656,266.3681,79,68,0
266.28656,266.3681,82,68,0
267.917,267.99017,58,57,0
267.99017,268.06335,60,54,0
268.06335,268.1365,58,55,0
268.1365,268.2097,57,55,0
268.2097,268.28287,58,55,0
268.28287,268.3621,62,60,0
268.49414,268.58817,61,53,0
268.68222,268.77124,60,53,0
268.86026,268.94928,59,53,0
269.0383,269.13147,58,57,0
269.22464,269.3121,57,54,0
269.39957,269.48703,56,54,0
269.5745,269.66196,60,54,0
269.74942,269.83844,55,57,0
269.92746,270.01648,56,54,0
270.1055,270.19452,57,54,0
270.28354,270.33145,58,54,0
270.3794,270.42087,57,49,0
270.42087,270.46237,58,49,0
270.46237,270.50388,60,49,0
270.50388,270.5843,58,57,0
270.66473,270.74515,57,53,0
270.8256,270.91623,58,57,0
271.00684,271.09747,55,54,0
271.1992,271.2874,53,57,0
271.37564,271.4639,55,51,0
271.55212,271.64035,56,51,0
271.72858,271.81683,60,51,0
271.90506,271.9933,58,54,0
272.08154,272.16977,56,51,0
272.258,272.34625,55,51,0
272.43448,272.5227,53,51,0
272.61588,272.7041,57,54,0
272.79236,272.88058,58,45,0
272.9688,273.05707,58,47,0
273.145,273.2324,59,48,0
273.3191,273.40524,59,50,0
273.49094,273.5761,60,52,0
273.6606,273.7446,60,54,0
273.82812,273.91122,61,55,0
274.02072,274.11133,62,58,0
274.20197,274.29343,61,53,0
274.38492,274.47394,60,53,0
274.56296,274.65198,59,53,0
274.741,274.82846,58,57,0
274.91592,275.0034,57,54,0
275.09085,275.1783,56,54,0
275.26578,275.35324,60,54,0
275.4407,275.533,55,57,0
275.6253,275.71353,56,54,0
275.8018,275.89,57,54,0
275.97824,276.02618,58,54,0
276.0741,276.1156,57,49,0
276.1156,276.15707,58,49,0
276.15707,276.19858,60,49,0
276.19858,276.281,58,57,0
276.3634,276.44583,57,53,0
276.52826,276.6165,58,57,0
276.7047,276.79297,55,54,0
276.89465,276.98288,53,57,0
277.07114,277.15936,55,51,0
277.2476,277.33582,56,51,0
277.42407,277.5123,60,51,0
277.60052,277.68878,58,54,0
277.777,277.86523,56,51,0
277.95346,278.04172,55,51,0
278.12994,278.21817,53,51,0
278.31134,278.3996,55,54,0
278.48782,278.57605,51,51,0
278.66428,278.75253,55,53,0
278.84045,278.92786,58,55,0
279.01456,279.10074,63,57,0
279.1864,279.27158,66,52,0
279.35608,279.44006,67,53,0
279.5236,279.6067,70,55,0
279.7162,279.78802,74,63,0
279.88858,279.9748,65,55,0
280.22406,280.3871,82,55,0
280.061,280.3871,74,76,0
280.3871,280.4695,72,59,0
280.55194,280.63434,65,55,0
280.8714,281.02603,80,55,0
280.71677,281.02603,72,76,0
281.02603,281.10583,67,63,0
281.1856,281.2654,58,55,0
281.49982,281.65448,75,55,0
281.34518,281.65448,67,75,0
281.65448,281.73022,70,59,0
281.806,281.88174,63,55,0
282.109,282.18478,79,55,0
282.22266,282.26053,73,59,0
281.9575,282.26053,70,72,0
282.26053,282.33334,74,63,0
282.40616,282.47897,65,55,0
282.74118,282.77905,82,55,0
282.81696,282.85483,76,56,0
282.5518,282.85483,74,77,0
282.85483,282.92493,77,59,0
282.99503,283.0651,70,55,0
283.28226,283.35577,86,61,0
283.39255,283.42932,78,60,0
283.1352,283.42932,77,79,0
283.42932,283.49875,79,64,0
283.5682,283.63763,70,56,0
283.85132,283.92343,87,58,0
283.9595,283.99554,81,57,0
283.7071,283.99554,79,79,0
283.99554,284.06375,82,61,0
284.13193,284.2001,75,57,0
284.5207,284.55673,85,62,0
284.4125,284.55673,91,57,0
284.26828,284.55673,82,78,0
284.55673,284.62494,86,66,0
284.6931,284.7613,77,57,0
284.97232,285.04376,94,58,0
285.07947,285.11517,83,58,0
284.82947,285.11517,86,81,0
285.11517,285.18274,84,62,0
285.25034,285.3179,77,58,0
285.6308,285.66583,78,63,0
285.52563,285.66583,92,58,0
285.38547,285.66583,84,83,0
285.66583,285.7334,79,68,0
285.80096,285.86853,70,59,0
286.0763,286.1464,87,59,0
286.18143,286.21646,81,60,0
285.9361,286.21646,79,81,0
286.21646,286.28284,82,64,0
286.3492,286.4156,75,59,0
286.7273,286.76233,85,68,0
286.62216,286.76233,91,60,0
286.48196,286.76233,82,81,0
286.76233,286.82812,86,69,0
286.89392,286.95972,77,61,0
287.16837,287.23978,94,61,0
287.23978,287.27548,88,70,0
287.02548,287.31122,86,87,0
287.31122,287.37698,89,66,0
287.44278,287.50858,82,61,0
287.82437,287.86008,90,64,0
287.71722,287.86008,98,62,0
287.57437,287.86008,89,84,0
287.86008,287.92587,91,83,0
287.99167,288.05743,82,62,0
288.2703,288.34384,99,62,0
288.12323,288.41736,91,70,0
288.41736,288.93207,63,79,0
288.93207,289.00558,64,48,0
289.00558,289.09567,65,48,0
289.09567,289.18576,67,50,0
289.18576,289.27585,68,52,0
289.27585,289.3711,72,54,0
289.3711,289.46634,70,53,0
289.46634,289.56158,68,52,0
289.56158,289.65085,67,51,0
289.65085,289.74014,65,50,0
289.74014,289.82944,63,49,0
289.82944,289.9265,62,48,0
289.9265,290.02362,60,48,0
290.02362,290.1207,58,47,0
290.1207,290.2116,57,49,0
290.2116,290.30252,58,50,0
290.30252,290.39343,60,51,0
290.39343,290.4905,62,51,0
290.4905,290.5876,63,52,0
290.5876,290.6847,66,53,0
290.6847,290.77396,67,54,0
290.77396,290.86325,68,54,0
290.86325,290.95255,70,55,0
290.95255,291.04688,72,56,0
291.04688,291.14124,74,57,0
291.14124,291.2002,75,58,0
291.23557,291.32486,77,63,0
291.2002,291.32486,74,56,0
291.32486,291.41412,79,58,0
291.41412,291.50342,80,59,0
291.50342,291.59775,84,64,0
291.59775,291.6921,82,63,0
291.6921,291.78644,80,62,0
291.78644,291.87573,79,60,0
291.87573,291.965,77,59,0
291.965,292.0543,75,58,0
292.0543,292.14862,74,57,0
292.14862,292.24298,72,55,0
292.24298,292.3373,70,54,0
292.3373,292.4258,69,55,0
292.4258,292.5143,70,55,0
292.5143,292.6028,72,56,0
292.6028,292.6954,74,56,0
292.6954,292.788,75,57,0
292.788,292.88058,78,58,0
292.88058,292.9691,79,58,0
292.9691,293.05756,80,59,0
293.05756,293.14606,82,60,0
293.14606,293.23953,84,60,0
293.23953,293.33298,86,61,0
293.33298,293.3914,87,63,0
293.42645,293.51416,89,63,0
293.3914,293.51416,86,52,0
293.51416,293.60187,91,58,0
293.60187,293.6896,92,59,0
293.6896,293.78305,96,64,0
293.78305,293.87653,94,63,0
293.87653,293.96997,92,62,0
293.96997,294.05768,91,60,0
294.05768,294.14542,89,59,0
294.14542,294.23312,87,58,0
294.23312,294.3257,86,57,0
294.3257,294.4183,84,55,0
294.4183,294.5109,82,54,0
294.5109,294.59863,81,55,0
294.59863,294.68634,82,55,0
294.68634,294.77408,84,56,0
294.77408,294.8658,86,56,0
294.8658,294.95755,87,57,0
294.95755,295.0493,90,58,0
295.0493,295.13702,91,58,0
295.13702,295.22473,92,58,0
295.22473,295.31244,94,57,0
295.31244,295.40503,96,56,0
295.40503,295.49765,98,56,0
295.49765,295.59024,99,55,0
295.59024,295.6787,100,55,0
295.6787,295.7672,101,50,0
295.7672,295.85815,94,54,0
295.85815,295.95316,97,50,0
295.95316,296.0482,98,54,0
296.0482,296.1432,89,50,0
296.1432,296.2309,100,54,0
296.2309,296.31863,101,50,0
296.31863,296.40634,94,54,0
296.40634,296.49893,97,50,0
296.49893,296.59152,98,55,0
296.59152,296.6841,89,50,0
296.6841,296.77185,102,55,0
296.77185,296.85956,103,50,0
296.85956,296.9473,94,54,0
296.9473,297.0399,98,50,0
297.0399,297.13248,99,54,0
297.13248,297.22507,91,50,0
297.22507,297.31357,102,54,0
297.31357,297.40204,103,50,0
297.40204,297.49298,94,54,0
297.49298,297.58798,98,50,0
297.58798,297.683,99,55,0
297.683,297.778,91,50,0
297.778,297.8673,100,55,0
297.8673,297.95657,101,50,0
297.95657,298.04587,94,54,0
298.04587,298.1409,97,50,0
298.1409,298.2359,98,54,0
298.2359,298.3309,89,50,0
298.3309,298.4202,100,54,0
298.4202,298.5095,101,50,0
298.5095,298.59875,94,54,0
298.59875,298.6931,97,50,0
298.6931,298.78745,98,55,0
298.78745,298.88177,89,50,0
298.88177,298.97107,102,55,0
298.97107,299.06036,103,50,0
299.06036,299.14963,94,54,0
299.14963,299.24466,98,50,0
299.24466,299.33966,99,54,0
299.33966,299.4347,91,50,0
299.4347,299.52396,102,54,0
299.52396,299.61325,103,50,0
299.61325,299.70255,94,54,0
299.70255,299.79755,98,50,0
299.79755,299.89255,99,55,0
299.89255,299.98758,91,50,0
299.98758,300.07684,100,55,0
300.07684,300.16614,101,50,0
300.16614,300.25543,94,54,0
300.25543,300.34888,97,50,0
300.34888,300.44235,98,54,0
300.44235,300.5358,89,50,0
300.5358,300.6267,100,54,0
300.6267,300.71762,101,50,0
300.71762,300.80853,94,54,0
300.80853,300.90286,97,50,0
300.90286,300.99722,98,55,0
300.99722,301.09155,89,50,0
301.09155,301.1833,102,55,0
301.1833,301.27502,103,50,0
301.27502,301.3668,94,54,0
301.3668,301.4618,98,50,0
301.4618,301.5568,99,54,0
301.5568,301.65182,91,50,0
301.65182,301.74356,102,54,0
301.74356,301.8353,103,50,0
301.8353,301.92703,94,54,0
301.92703,302.02206,98,50,0
302.02206,302.11707,99,55,0
302.11707,302.21207,91,50,0
302.21207,302.30383,100,55,0
302.30383,302.39557,101,50,0
302.39557,302.4873,94,54,0
302.4873,302.5823,97,50,0
302.5823,302.67734,98,54,0
302.67734,302.77234,89,50,0
302.77234,302.86407,100,54,0
302.86407,302.95584,101,50,0
302.95584,303.04758,94,54,0
303.04758,303.1419,97,50,0
303.1419,303.23624,98,55,0
303.23624,303.3306,89,50,0
303.3306,303.4034,93,50,0
303.3306,303.4034,102,50,0
303.4034,303.54904,103,55,0
303.4034,303.54904,94,55,0
303.91312,303.99103,66,47,0
303.91312,303.99103,74,47,0
303.99103,304.14688,75,52,0
303.99103,304.14688,67,52,0
304.5365,304.63232,77,45,0
304.5365,304.63232,86,45,0
304.63232,304.82404,80,51,0
304.63232,304.82404,89,51,0
305.30325,305.41156,71,46,0
305.30325,305.41156,62,46,0
305.41156,305.62817,74,52,0
305.41156,305.62817,65,52,0
306.16968,306.25937,72,36,0
306.25937,306.3431,74,33,0
306.3431,306.42575,72,37,0
306.42575,306.50732,74,33,0
306.50732,306.58795,72,37,0
306.58795,306.6675,74,33,0
306.6675,306.7461,72,37,0
306.7461,306.82364,74,33,0
306.82364,306.89865,72,37,0
306.89865,306.97363,74,33,0
306.97363,307.04977,72,37,0
307.04977,307.12592,74,33,0
307.12592,307.2015,72,37,0
307.2015,307.27707,74,33,0
307.27707,307.35205,72,37,0
307.35205,307.42816,74,33,0
307.42816,307.50488,71,38,0
307.50488,307.5816,72,33,0
307.5816,307.65793,74,34,0
307.65793,307.73407,75,34,0
307.73407,307.81012,74,41,0
307.81012,307.8857,75,36,0
307.8857,307.96127,78,37,0
307.96127,308.03647,79,44,0
308.03647,308.11148,78,38,0
308.11148,308.18646,79,39,0
308.18646,308.26108,83,39,0
308.26108,308.33554,84,40,0
308.33554,308.40988,83,47,0
308.40988,308.4838,84,42,0
308.4838,308.55768,86,42,0
308.55768,308.63123,87,43,0
308.63123,308.70456,86,51,0
308.70456,308.77792,87,45,0
308.77792,308.85126,90,45,0
308.85126,308.92462,91,54,0
308.92462,308.998,90,47,0
308.998,309.07132,91,47,0
309.07132,309.14468,95,48,0
309.14468,309.21793,96,49,0
309.21793,309.29074,95,57,0
309.29074,309.3636,96,50,0
309.3636,309.43695,98,51,0
309.43695,309.51053,99,52,0
309.51053,309.5844,98,61,0
309.5844,309.65872,99,53,0
309.65872,309.7425,102,54,0
309.7425,309.8263,103,65,0
309.8263,309.89966,95,61,0
309.89966,309.973,96,53,0
309.973,310.046,98,53,0
310.046,310.1188,99,53,0
310.1188,310.1911,90,54,0
310.1911,310.2634,91,48,0
310.2634,310.33517,95,49,0
310.33517,310.40646,96,49,0
310.40646,310.4779,86,51,0
310.4779,310.54965,87,45,0
310.54965,310.6218,90,45,0
310.6218,310.6941,91,45,0
310.6941,310.7669,83,47,0
310.7669,310.8401,84,42,0
310.8401,310.92117,86,42,0
310.92117,311.00226,87,43,0
311.00226,311.07562,78,44,0
311.07562,311.14896,79,39,0
311.14896,311.22232,83,40,0
311.22232,311.29565,84,40,0
311.29565,311.36902,74,40,0
311.36902,311.44235,75,36,0
311.44235,311.52478,78,37,0
311.52478,311.6072,79,36,0
311.6072,311.68054,71,41,0
311.68054,311.75385,72,38,0
311.75385,311.82666,74,40,0
311.82666,311.89926,75,41,0
311.89926,311.97147,66,43,0
311.97147,312.04324,67,44,0
312.04324,312.11478,71,46,0
312.11478,312.1859,72,47,0
312.1859,312.25687,71,49,0
312.25687,312.3284,72,49,0
312.3284,312.4005,74,51,0
312.4005,312.47324,75,53,0
312.47324,312.54666,74,55,0
312.54666,312.62097,75,57,0
312.62097,312.70407,78,59,0
312.70407,312.781,79,61,0
312.781,312.85434,71,41,0
312.85434,312.92743,72,38,0
312.92743,313.00024,74,40,0
313.00024,313.0726,75,41,0
313.0726,313.14484,66,43,0
313.14484,313.21658,67,44,0
313.21658,313.28812,71,46,0
313.28812,313.35938,72,47,0
313.35938,313.43024,71,49,0
313.43024,313.50153,72,49,0
313.50153,313.57346,74,51,0
313.57346,313.64594,75,53,0
313.64594,313.7191,74,55,0
313.7191,313.79282,75,57,0
313.79282,313.87457,78,59,0
313.87457,313.9563,79,61,0
313.9563,314.0291,71,54,0
314.0291,314.10193,72,49,0
314.10193,314.17474,74,47,0
314.17474,314.24756,75,47,0
314.24756,314.32037,66,47,0
314.32037,314.39322,67,53,0
314.39322,314.46603,71,45,0
314.46603,314.53885,72,45,0
314.53885,314.61166,62,50,0
314.61166,314.68475,63,41,0
314.68475,314.7581,66,41,0
314.7581,314.83145,67,41,0
314.83145,314.90533,66,46,0
314.90533,314.97922,67,43,0
314.97922,315.05338,71,43,0
315.05338,315.1278,72,43,0
315.39258,315.68478,77,43,0
315.68478,315.78046,76,43,0
315.78046,315.87518,77,42,0
315.87518,315.9689,79,43,0
315.33328,315.9689,72,43,0
315.28192,315.9689,65,43,0
315.9689,316.03848,77,48,0
316.03848,316.10754,79,43,0
316.10754,316.17603,77,47,0
316.17603,316.24435,79,43,0
316.24435,316.31268,77,47,0
316.31268,316.38104,79,43,0
316.38104,316.44937,77,50,0
316.44937,316.5177,79,43,0
316.5177,316.58533,77,49,0
316.58533,316.65298,79,43,0
316.65298,316.72116,77,48,0
316.72116,316.7897,79,43,0
316.7897,316.8588,77,46,0
316.8588,316.92822,79,43,0
316.92822,316.9982,77,49,0
316.9982,317.0688,79,43,0
317.0688,317.35587,76,47,0
317.35587,317.64294,77,47,0
317.64294,317.7709,86,58,0
317.7709,317.89972,85,56,0
317.89807,318.03107,84,55,0
318.0294,318.16336,83,54,0
318.16336,318.30008,82,53,0
318.30008,318.43964,81,52,0
318.4432,318.58582,80,51,0
318.5822,318.72974,79,50,0
318.73343,318.88327,78,49,0
318.8768,319.0492,77,49,0
319.0492,319.2453,71,48,0
319.2453,319.45535,72,46,0
319.45535,319.7083,77,45,0
319.7083,319.98096,76,44,0
319.98096,320.1372,75,43,0
320.18927,320.36768,75,43,0
320.77264,322.73816,74,51,0
320.6692,322.73816,68,49,0
320.5938,322.73816,62,47,0
322.8658,322.92966,77,58,0
322.80197,322.92966,68,50,0
322.73816,322.92966,62,46,0
323.24878,323.33054,67,47,0
323.24878,323.33054,75,56,0
323.4123,323.49402,70,41,0
323.4123,323.49402,77,49,0
323.57578,323.6575,75,42,0
323.57578,323.6575,79,50,0
323.73926,323.82672,77,37,0
323.73926,323.82672,80,44,0
323.87045,323.91418,84,56,0
323.91418,323.9959,79,42,0
323.91418,323.9959,82,50,0
324.15942,324.24115,78,38,0
324.15942,324.24115,81,45,0
324.24115,324.3229,79,50,0
324.24115,324.3229,82,59,0
324.72644,324.8056,72,51,0
324.72644,324.8056,63,51,0
325.0496,325.13202,84,51,0
325.0496,325.13202,75,43,0
325.2059,325.289,75,51,0
325.2059,325.289,84,60,0
326.02103,326.1002,70,51,0
326.02103,326.1002,63,51,0
326.34418,326.42657,82,51,0
326.34418,326.42657,75,43,0
326.5005,326.5836,75,51,0
326.5005,326.5836,82,60,0
327.3156,327.39474,68,51,0
327.3156,327.39474,62,51,0
327.63873,327.72116,80,51,0
327.63873,327.72116,74,43,0
327.79504,327.87817,74,51,0
327.79504,327.87817,80,60,0
328.61188,328.69186,67,51,0
328.61188,328.69186,63,51,0
328.9367,329.01913,79,51,0
328.9367,329.01913,75,43,0
329.09302,329.17612,75,51,0
329.09302,329.17612,79,60,0
329.74982,329.83362,72,44,0
329.74982,329.83362,80,52,0
329.91742,330.00122,70,39,0
329.91742,330.00122,79,47,0
330.08502,330.16882,68,39,0
330.08502,330.16882,77,47,0
330.25262,330.3401,67,39,0
330.25262,330.3401,75,47,0
330.42755,330.51135,65,44,0
330.42755,330.51135,74,52,0
330.59515,330.67896,62,38,0
330.59515,330.67896,70,45,0
330.76273,330.85175,63,38,0
330.76273,330.85175,72,45,0
330.9408,331.02982,65,38,0
330.9408,331.02982,74,45,0
331.11884,331.20056,67,47,0
331.11884,331.20056,75,56,0
331.28232,331.36404,70,41,0
331.28232,331.36404,77,49,0
331.4458,331.52753,75,42,0
331.4458,331.52753,79,50,0
331.60928,331.69675,77,37,0
331.60928,331.69675,80,44,0
331.74048,331.7842,84,56,0
331.7842,331.86597,79,42,0
331.7842,331.86597,82,50,0
331.9477,332.02945,81,45,0
331.9477,332.02945,78,38,0
332.11118,332.19293,79,50,0
332.11118,332.19293,82,59,0
332.59946,332.68008,84,51,0
332.59946,332.68008,75,51,0
332.90854,332.98172,96,51,0
332.90854,332.98172,87,43,0
333.0549,333.138,87,51,0
333.0549,333.138,96,60,0
333.8749,333.95734,82,51,0
333.8749,333.95734,75,51,0
334.1861,334.25928,94,51,0
334.1861,334.25928,87,43,0
334.33246,334.41556,87,51,0
334.33246,334.41556,94,60,0
335.1457,335.22635,80,51,0
335.1457,335.22635,74,51,0
335.45407,335.5276,92,51,0
335.45407,335.5276,86,43,0
335.60114,335.68423,86,51,0
335.60114,335.68423,92,60,0
336.41925,336.49988,79,51,0
336.41925,336.49988,75,51,0
336.7276,336.80115,91,51,0
336.7276,336.80115,87,43,0
336.87466,336.95776,87,51,0
336.87466,336.95776,91,60,0
337.5315,337.61212,84,44,0
337.5315,337.61212,92,52,0
337.69278,337.7734,82,39,0
337.69278,337.7734,91,47,0
337.85406,337.93472,80,39,0
337.85406,337.93472,89,47,0
338.01535,338.1028,79,39,0
338.01535,338.1028,87,47,0
338.19028,338.27072,77,44,0
338.19028,338.27072,86,52,0
338.35114,338.43158,74,38,0
338.35114,338.43158,82,45,0
338.512,338.597,75,38,0
338.512,338.597,84,45,0
338.68198,338.76697,77,38,0
338.68198,338.76697,86,45,0
338.85193,338.93152,79,47,0
338.85193,338.93152,87,56,0
339.0111,339.09067,82,41,0
339.0111,339.09067,89,49,0
339.17026,339.24982,87,42,0
339.17026,339.24982,91,50,0
339.3294,339.4116,89,37,0
339.3294,339.4116,92,44,0
339.49377,339.5725,91,42,0
339.49377,339.5725,94,50,0
339.65128,339.73,93,45,0
339.65128,339.73,90,38,0
339.80875,339.88748,92,50,0
339.80875,339.88748,96,50,0
339.96622,340.05026,94,45,0
339.96622,340.05026,91,38,0
340.13428,340.21558,84,44,0
340.13428,340.21558,92,52,0
340.2969,340.3782,82,39,0
340.2969,340.3782,91,47,0
340.4595,340.5408,80,39,0
340.4595,340.5408,89,47,0
340.6221,340.70612,79,40,0
340.6221,340.70612,87,48,0
340.79016,340.87082,77,45,0
340.79016,340.87082,86,54,0
340.95145,341.0321,74,39,0
340.95145,341.0321,82,47,0
341.11273,341.19318,75,40,0
341.11273,341.19318,84,48,0
341.2736,341.35403,77,41,0
341.2736,341.35403,86,48,0
341.43445,341.51117,79,51,0
341.43445,341.51117,87,61,0
341.58792,341.66464,82,45,0
341.58792,341.66464,89,53,0
341.74136,341.81808,87,46,0
341.74136,341.81808,91,55,0
341.8948,341.97525,89,41,0
341.8948,341.97525,92,49,0
342.05566,342.13278,91,47,0
342.05566,342.13278,94,57,0
342.20993,342.28705,93,51,0
342.20993,342.28705,90,43,0
342.36417,342.44128,92,58,0
342.36417,342.44128,96,58,0
342.5184,342.59552,94,52,0
342.5184,342.59552,91,44,0
342.67264,342.75223,84,52,0
342.67264,342.75223,92,61,0
342.8318,342.91138,82,46,0
342.8318,342.91138,91,56,0
342.99094,343.07053,80,47,0
342.99094,343.07053,89,56,0
343.1501,343.23755,79,47,0
343.1501,343.23755,87,57,0
343.325,343.4088,77,54,0
343.325,343.4088,86,63,0
343.66022,343.82108,82,60,0
343.66022,343.82108,70,51,0
343.82108,343.98193,83,60,0
343.82108,343.98193,71,51,0
343.98193,344.1428,84,63,0
343.98193,344.1428,72,53,0
344.1428,344.30365,85,58,0
344.1428,344.30365,73,49,0
344.30365,344.4645,86,58,0
344.30365,344.4645,74,49,0
344.4645,344.62537,87,58,0
344.4645,344.62537,75,49,0
344.62537,344.78622,74,53,0
344.62537,344.78622,86,63,0
344.78622,344.94708,75,50,0
344.78622,344.94708,87,59,0
344.94708,345.10794,76,50,0
344.94708,345.10794,88,59,0
345.10794,345.2678,89,59,0
345.10794,345.2678,77,50,0
345.2678,345.42365,88,69,0
345.2678,345.42365,76,58,0
345.42365,345.57947,89,62,0
345.42365,345.57947,77,52,0
345.57947,345.73532,90,62,0
345.57947,345.73532,78,52,0
345.73532,345.89117,91,62,0
345.73532,345.89117,79,52,0
345.89117,346.04764,90,70,0
345.89117,346.04764,78,59,0
346.04764,346.2035,91,64,0
346.04764,346.2035,79,54,0
346.2035,346.35934,92,64,0
346.2035,346.35934,80,54,0
346.35934,346.51517,93,64,0
346.35934,346.51517,81,54,0
346.51517,346.66827,92,74,0
346.51517,346.66827,80,62,0
346.66827,346.82095,93,63,0
346.66827,346.82095,81,53,0
346.82095,346.97217,94,64,0
346.82095,346.97217,82,54,0
346.97217,347.12302,95,64,0
346.97217,347.12302,83,54,0
347.12302,347.27884,94,75,0
347.12302,347.27884,82,64,0
347.27884,347.44003,95,71,0
347.27884,347.44003,83,59,0
347.44003,347.6023,96,77,0
347.44003,347.6023,84,64,0
347.6023,347.7997,97,82,0
347.6023,347.7997,85,69,0
347.7997,348.1537,94,79,0
347.7997,348.1537,86,79,0
347.7997,348.1537,98,93,0
348.1537,348.48425,94,72,0
348.1537,348.48425,86,72,0
348.1537,348.48425,98,85,0
348.48425,348.81125,92,79,0
348.48425,348.81125,84,79,0
348.48425,348.81125,96,93,0
348.81125,349.13467,92,74,0
348.81125,349.13467,84,74,0
348.81125,349.13467,96,88,0
349.13467,349.44476,87,78,0
349.13467,349.44476,79,78,0
349.13467,349.44476,91,92,0
349.44476,349.77533,91,70,0
349.44476,349.77533,82,70,0
349.44476,349.77533,94,83,0
349.77533,349.9304,91,74,0
349.77533,349.9304,82,74,0
349.77533,349.9304,94,89,0
349.9304,350.08542,93,79,0
349.9304,350.08542,90,67,0
349.9304,350.08542,81,67,0
350.08542,350.41968,91,74,0
350.08542,350.41968,82,74,0
350.08542,350.41968,94,88,0
350.41968,350.57632,77,69,0
350.41968,350.57632,89,82,0
350.57632,350.733,79,68,0
350.57632,350.733,91,81,0
350.733,350.88965,80,68,0
350.733,350.88965,92,81,0
350.88965,351.04633,84,68,0
350.88965,351.04633,96,81,0
351.04633,351.20297,82,70,0
351.04633,351.20297,94,83,0
351.20297,351.35962,80,68,0
351.20297,351.35962,92,80,0
351.35962,351.5163,79,68,0
351.35962,351.5163,91,81,0
351.5163,351.67294,77,68,0
351.5163,351.67294,89,81,0
351.67294,351.97986,82,78,0
351.67294,351.97986,91,92,0
351.67294,351.97986,94,92,0
351.97986,352.22778,82,70,0
351.97986,352.22778,94,83,0
351.97986,352.22778,91,83,0
352.22778,352.31042,93,79,0
352.22778,352.31042,90,79,0
352.22778,352.31042,81,67,0
352.31042,352.95108,82,74,0
352.31042,352.95108,91,89,0
352.31042,352.95108,94,89,0
352.95108,353.32614,94,79,0
352.95108,353.32614,86,79,0
352.95108,353.32614,98,93,0
353.32614,353.66415,94,72,0
353.32614,353.66415,86,72,0
353.32614,353.66415,98,85,0
353.66415,354.00604,92,79,0
353.66415,354.00604,84,79,0
353.66415,354.00604,96,93,0
354.00604,354.35187,92,74,0
354.00604,354.35187,84,74,0
354.00604,354.35187,96,88,0
354.35187,354.6652,87,78,0
354.35187,354.6652,79,78,0
354.35187,354.6652,91,92,0
354.6652,354.99216,91,70,0
354.6652,354.99216,82,70,0
354.6652,354.99216,94,83,0
354.99216,355.1488,91,74,0
354.99216,355.1488,82,74,0
354.99216,355.1488,94,89,0
355.1488,355.30548,93,79,0
355.1488,355.30548,90,67,0
355.1488,355.30548,81,67,0
355.30548,355.65228,91,74,0
355.30548,355.65228,82,74,0
355.30548,355.65228,94,88,0
355.65228,355.81577,80,61,0
355.65228,355.81577,77,61,0
355.65228,355.81577,89,72,0
355.81577,355.97928,82,62,0
355.81577,355.97928,79,62,0
355.81577,355.97928,91,74,0
355.97928,356.14276,83,64,0
355.97928,356.14276,80,64,0
355.97928,356.14276,92,77,0
356.14276,356.30624,81,67,0
356.14276,356.30624,93,79,0
356.14276,356.30624,84,67,0
356.30624,356.4629,82,68,0
356.30624,356.4629,85,68,0
356.30624,356.4629,94,81,0
356.4629,356.61957,86,70,0
356.4629,356.61957,83,70,0
356.4629,356.61957,95,83,0
356.61957,356.7762,87,72,0
356.61957,356.7762,84,72,0
356.61957,356.7762,96,85,0
356.7762,356.93286,89,73,0
356.7762,356.93286,86,73,0
356.7762,356.93286,98,86,0
356.93286,357.01462,91,74,0
356.93286,357.01462,87,74,0
356.93286,357.01462,99,89,0
357.25986,357.9138,87,81,0
357.25986,357.9138,79,68,0
357.25986,357.9138,75,68,0
357.9138,358.0773,87,72,0
357.9138,358.0773,79,61,0
357.9138,358.0773,75,61,0
358.24078,358.3191,65,63,0
358.24078,358.39743,62,51,0
358.39743,358.47577,67,59,0
358.55408,358.63242,68,59,0
358.71075,358.7891,72,59,0
358.8674,358.94113,70,64,0
359.01483,359.08853,68,55,0
358.55408,359.16226,62,52,0
359.16226,359.23978,67,56,0
359.16226,359.3173,62,50,0
359.3173,359.3948,65,57,0
359.47232,359.54602,67,53,0
359.47232,359.54602,70,63,0
359.73032,359.76715,72,57,0
359.76715,359.84235,70,63,0
359.76715,359.84235,67,53,0
359.99274,360.06793,69,56,0
359.99274,360.06793,66,47,0
360.06793,360.6805,70,62,0
360.06793,360.6805,67,52,0
360.6805,360.75726,65,63,0
360.6805,360.83398,60,51,0
360.83398,360.9107,67,59,0
360.98743,361.06113,68,59,0
361.13486,361.20856,72,59,0
361.28226,361.356,70,64,0
361.4297,361.5034,68,55,0
360.98743,361.57712,60,52,0
361.57712,361.65463,67,56,0
361.57712,361.73215,62,50,0
361.73215,361.80966,65,57,0
361.88718,361.9717,63,53,0
361.88718,361.9717,67,63,0
362.77032,362.80188,62,46,0
362.22522,362.80188,63,52,0
362.22522,362.80188,58,46,0
362.80188,362.95227,63,63,0
362.80188,362.95227,58,53,0
363.10263,363.17636,77,63,0
363.10263,363.17636,65,53,0
363.25006,363.32376,79,59,0
363.25006,363.32376,67,50,0
363.3975,363.4712,80,59,0
363.3975,363.4712,68,50,0
363.5449,363.61862,84,59,0
363.5449,363.61862,72,50,0
363.69232,363.76602,82,64,0
363.69232,363.76602,70,54,0
363.83975,363.91345,80,55,0
363.83975,363.91345,68,46,0
363.98715,364.06088,79,56,0
363.98715,364.06088,67,47,0
364.13458,364.20828,77,57,0
364.13458,364.20828,65,48,0
364.282,364.35294,70,53,0
364.282,364.35294,82,63,0
364.53024,364.5657,84,57,0
364.5657,364.64087,82,63,0
364.5657,364.64087,70,53,0
364.79126,364.86646,81,56,0
364.79126,364.86646,69,47,0
364.86646,365.47906,82,62,0
364.86646,365.47906,70,52,0
365.47906,365.5558,77,63,0
365.47906,365.5558,65,53,0
365.6325,365.70923,79,59,0
365.6325,365.70923,67,50,0
365.78595,365.85968,80,59,0
365.78595,365.85968,68,50,0
365.93338,366.00708,84,59,0
365.93338,366.00708,72,50,0
366.0808,366.1545,82,64,0
366.0808,366.1545,70,54,0
366.2282,366.30194,80,55,0
366.2282,366.30194,68,46,0
366.37564,366.45316,79,56,0
366.37564,366.45316,67,47,0
366.53067,366.6082,77,57,0
366.53067,366.6082,65,48,0
366.68573,366.77023,67,53,0
366.68573,366.77023,79,63,0
367.56885,367.60043,74,46,0
367.02374,367.60043,75,52,0
367.02374,367.60043,63,46,0
367.60043,367.76215,75,63,0
367.60043,367.76215,63,53,0
367.87485,367.9067,66,36,0
367.9067,367.9912,59,42,0
367.9067,367.9912,67,50,0
368.78983,368.8214,62,36,0
368.24472,368.8214,63,41,0
368.24472,368.8214,60,36,0
368.8214,368.97177,63,50,0
368.8214,368.97177,59,42,0
369.12216,369.20667,79,42,0
369.12216,369.20667,91,50,0
370.00528,370.03687,86,36,0
369.46017,370.03687,87,41,0
369.46017,370.03687,75,36,0
370.03687,370.19858,87,50,0
370.03687,370.19858,75,42,0
370.3113,370.34314,66,36,0
370.34314,370.42764,59,42,0
370.34314,370.42764,67,50,0
371.22626,371.25784,62,36,0
370.68118,371.25784,63,41,0
370.68118,371.25784,60,36,0
371.25784,371.41452,63,50,0
371.25784,371.41452,59,42,0
371.57117,371.6618,58,42,0
371.57117,371.6618,67,50,0
371.57117,371.6618,55,42,0
372.51428,372.54587,62,36,0
371.93372,372.54587,55,36,0
371.93372,372.54587,60,36,0
371.93372,372.54587,63,41,0
372.54587,372.7042,63,50,0
372.54587,372.7042,59,42,0
372.54587,372.7042,56,42,0
372.8625,372.95312,58,42,0
372.8625,372.95312,67,50,0
372.8625,372.95312,55,42,0
373.8022,373.83377,62,36,0
373.22504,373.83377,55,36,0
373.22504,373.83377,60,36,0
373.22504,373.83377,63,41,0
373.83377,374.01074,63,50,0
373.83377,374.01074,59,42,0
373.83377,374.01074,56,42,0
374.18774,374.8638,58,39,0
374.18774,374.8638,67,46,0
374.18774,374.8638,55,39,0
374.8638,375.53986,63,39,0
374.8638,375.53986,60,33,0
374.8638,375.53986,55,33,0
376.16495,376.19852,62,36,0
376.19852,376.79007,63,39,0
376.19852,376.79007,59,33,0
376.19852,376.79007,56,33,0
376.87457,378.0923,70,40,0
376.8323,378.0923,63,39,0
376.79007,378.0923,55,37,0
378.5197,378.66025,63,28,0
378.66025,378.79944,67,28,0
378.79944,378.9378,68,27,0
378.9378,379.07532,69,26,0
379.07532,379.21182,70,25,0
379.21182,379.34726,75,27,0
379.34726,379.4827,79,27,0
379.4827,379.61813,80,27,0
379.61813,379.75375,81,27,0
379.75375,379.89084,82,27,0
379.89084,380.02945,87,27,0
380.02945,380.16962,91,27,0
380.16962,380.31174,92,27,0
380.31174,380.4556,93,27,0
380.4556,380.6011,94,27,0
380.6011,380.7484,99,33,0
382.70242,382.96,82,96,0
382.70242,382.96,70,81,0
383.04584,383.10803,82,91,0
383.04584,383.10803,70,77,0
383.21164,383.2738,82,91,0
383.21164,383.2738,70,77,0
383.37744,383.90512,87,101,0
383.37744,383.90512,75,85,0
383.90512,383.9711,87,89,0
383.90512,383.9711,75,74,0
384.08102,384.14148,85,93,0
384.08102,384.14148,73,79,0
384.2422,384.30264,83,93,0
384.2422,384.30264,71,79,0
384.40335,384.46625,82,92,0
384.40335,384.46625,70,78,0
384.57108,384.63397,80,96,0
384.57108,384.63397,68,81,0
384.7388,384.80475,82,94,0
384.7388,384.80475,70,80,0
384.9147,384.98065,75,90,0
384.9147,384.98065,63,75,0
385.0906,385.48578,75,90,0
385.0906,385.48578,63,75,0
385.48578,385.74802,70,68,0
385.48578,385.74802,67,57,0
385.83545,385.8976,70,64,0
385.83545,385.8976,67,54,0
386.00125,386.06342,67,54,0
386.00125,386.06342,70,64,0
386.16702,386.6884,75,71,0
386.16702,386.6884,66,60,0
386.6884,386.75354,66,52,0
386.6884,386.75354,75,62,0
386.86215,386.9226,73,66,0
386.86215,387.02332,67,56,0
387.02332,387.08374,70,66,0
387.18448,387.24738,71,65,0
387.18448,387.3522,63,55,0
387.3522,387.41583,68,68,0
387.52188,387.58826,70,67,0
387.52188,387.6974,63,56,0
387.69888,387.76523,63,63,0
388.26834,388.52902,70,68,0
388.26834,388.52902,67,57,0
388.6159,388.67807,70,64,0
388.6159,388.67807,67,54,0
388.7817,388.84387,67,54,0
388.7817,388.84387,70,64,0
388.94748,389.29297,66,60,0
389.28793,389.46066,67,60,0
388.94748,389.46573,75,71,0
389.46573,389.5305,68,52,0
389.46573,389.5305,75,62,0
389.63846,389.69888,73,66,0
389.63846,389.79962,68,56,0
389.63846,389.79962,64,56,0
389.79962,389.86005,71,66,0
389.9608,390.02594,70,65,0
389.9608,390.13455,67,55,0
389.9608,390.13455,61,55,0
390.13455,390.19974,63,68,0
390.30835,390.37512,68,70,0
390.30835,390.37512,63,58,0
390.48642,390.5532,63,66,0
390.6645,390.9316,68,70,0
390.6645,390.9316,63,60,0
391.02063,391.2782,82,96,0
391.02063,391.2782,70,81,0
391.36407,391.42624,82,91,0
391.36407,391.42624,70,77,0
391.52985,391.592,82,91,0
391.52985,391.592,70,77,0
391.69565,392.22336,87,101,0
391.69565,392.22336,75,85,0
392.22336,392.2893,87,89,0
392.22336,392.2893,75,74,0
392.39926,392.46002,85,93,0
392.39926,392.46002,73,79,0
392.5613,392.6221,83,93,0
392.5613,392.6221,71,79,0
392.7234,392.7863,82,92,0
392.7234,392.7863,70,78,0
392.8911,392.954,80,96,0
392.8911,392.954,68,81,0
393.0588,393.1256,82,94,0
393.0588,393.1256,70,80,0
393.2369,393.30368,75,90,0
393.2369,393.30368,63,75,0
393.41498,393.81015,75,90,0
393.41498,393.81015,63,75,0
393.81015,394.0724,70,68,0
393.81015,394.0724,67,57,0
394.15982,394.222,70,64,0
394.15982,394.222,67,54,0
394.32562,394.3878,67,54,0
394.32562,394.3878,70,64,0
394.4914,395.01276,75,71,0
394.4914,395.01276,66,60,0
395.01276,395.0779,66,52,0
395.01276,395.0779,75,62,0
395.18652,395.24695,73,66,0
395.18652,395.3477,67,56,0
395.3477,395.4081,70,66,0
395.50885,395.57175,71,65,0
395.50885,395.67657,63,55,0
395.67657,395.73947,68,68,0
395.8443,395.91025,70,67,0
395.8443,396.01874,63,56,0
396.0202,396.08615,63,63,0
396.5886,396.84924,70,68,0
396.5886,396.84924,67,57,0
396.93616,396.99658,70,64,0
396.93616,396.99658,67,54,0
397.0973,397.15775,67,54,0
397.0973,397.15775,70,64,0
397.25845,397.6019,66,60,0
397.5969,397.7737,67,60,0
397.25845,397.77887,75,71,0
397.77887,397.84525,68,52,0
397.77887,397.84525,75,62,0
397.95584,398.01804,73,66,0
397.95584,398.12164,68,56,0
397.95584,398.12164,64,56,0
398.12164,398.1838,71,66,0
398.28745,398.35547,70,65,0
398.28745,398.46887,67,55,0
398.28745,398.46887,61,55,0
398.46887,398.5369,63,68,0
398.6503,398.72055,68,70,0
398.6503,398.83606,63,58,0
398.83762,398.90787,63,66,0
399.02496,399.30594,68,70,0
399.02496,399.30594,63,60,0
399.3996,399.4909,63,55,0
399.58218,399.67346,65,49,0
399.76477,399.85605,67,48,0
399.94736,400.03864,68,47,0
400.1299,400.3125,70,60,0
400.1299,400.3125,63,51,0
400.1299,400.3125,61,51,0
400.48526,400.56863,70,52,0
400.48526,400.56863,61,44,0
400.652,400.74628,72,52,0
400.652,400.74628,63,44,0
400.84055,401.01862,68,58,0
400.84055,401.01862,63,49,0
400.84055,401.01862,60,49,0
401.55283,401.73093,70,60,0
401.55283,401.73093,63,51,0
401.55283,401.73093,61,51,0
401.9016,401.98404,70,52,0
401.9016,401.98404,61,44,0
402.06647,402.15833,72,52,0
402.06647,402.15833,63,44,0
402.2502,402.42828,68,58,0
402.2502,402.42828,63,49,0
402.2502,402.42828,60,49,0
402.9625,403.31125,70,60,0
402.9625,403.31125,67,51,0
402.9625,403.31125,63,51,0
403.31125,403.39322,70,52,0
403.31125,403.39322,63,44,0
403.31125,403.39322,67,44,0
403.47516,403.56705,70,52,0
403.47516,403.56705,63,44,0
403.47516,403.56705,67,44,0
403.6589,404.0077,75,60,0
403.6589,404.0077,66,51,0
403.6589,404.0077,63,51,0
404.0077,404.09058,75,52,0
404.0077,404.09058,63,44,0
404.0077,404.09058,71,44,0
404.17346,404.26535,75,52,0
404.17346,404.26535,63,44,0
404.17346,404.26535,71,44,0
404.3572,404.44107,73,59,0
404.3572,404.44107,64,50,0
404.52493,404.6113,71,51,0
404.52493,404.6113,63,43,0
404.6977,404.78406,70,51,0
404.6977,404.78406,61,43,0
404.87042,404.9568,68,51,0
404.87042,404.9568,59,43,0
405.04315,405.38992,70,60,0
405.04315,405.38992,63,51,0
405.04315,405.38992,58,51,0
405.38992,405.47235,70,52,0
405.38992,405.47235,58,44,0
405.38992,405.47235,63,44,0
405.55478,405.64667,70,52,0
405.55478,405.64667,58,44,0
405.55478,405.64667,63,44,0
405.73853,405.8249,63,59,0
405.73853,405.8249,61,50,0
405.73853,405.8249,55,50,0
405.91125,405.99765,65,51,0
405.91125,405.99765,56,43,0
406.084,406.17038,67,51,0
406.084,406.17038,61,43,0
406.084,406.17038,58,43,0
406.25674,406.34805,63,51,0
406.25674,406.34805,55,43,0
406.43933,406.61105,68,60,0
406.43933,406.61105,60,51,0
406.43933,406.61105,56,51,0
407.15195,407.24323,75,63,0
407.15195,407.24323,63,52,0
407.33453,407.4258,77,56,0
407.33453,407.4258,65,47,0
407.51712,407.604,79,55,0
407.51712,407.604,67,46,0
407.6909,407.77777,80,54,0
407.6909,407.77777,68,44,0
407.86465,408.03845,82,69,0
407.86465,408.03845,73,58,0
407.86465,408.03845,70,58,0
408.21222,408.2956,82,59,0
408.21222,408.2956,73,50,0
408.21222,408.2956,70,50,0
408.379,408.47327,84,59,0
408.379,408.47327,75,50,0
408.379,408.47327,72,50,0
408.56754,408.7456,80,66,0
408.56754,408.7456,72,56,0
408.56754,408.7456,68,56,0
409.27536,409.45343,82,69,0
409.27536,409.45343,73,58,0
409.27536,409.45343,70,58,0
409.6231,409.70554,82,59,0
409.6231,409.70554,73,50,0
409.6231,409.70554,70,50,0
409.78796,409.87982,84,59,0
409.78796,409.87982,75,50,0
409.78796,409.87982,72,50,0
409.9717,410.14978,80,66,0
409.9717,410.14978,72,56,0
409.9717,410.14978,68,56,0
410.6788,411.0317,82,69,0
410.6788,411.0317,70,58,0
410.6788,411.0317,75,58,0
410.6788,411.0317,79,58,0
411.0317,411.11368,82,59,0
411.0317,411.11368,70,50,0
411.0317,411.11368,79,50,0
411.0317,411.11368,75,50,0
411.19562,411.2931,82,59,0
411.19562,411.2931,70,50,0
411.19562,411.2931,79,50,0
411.19562,411.2931,75,50,0
411.39053,411.7402,87,69,0
411.39053,411.7402,78,58,0
411.39053,411.7402,75,58,0
411.7402,411.82608,87,59,0
411.7402,411.82608,75,50,0
411.7402,411.82608,83,50,0
411.91193,412.00497,87,59,0
411.91193,412.00497,75,50,0
411.91193,412.00497,83,50,0
412.09805,412.18094,85,67,0
412.09805,412.18094,76,57,0
412.09805,412.18094,73,57,0
412.26382,412.34674,83,58,0
412.26382,412.34674,75,49,0
412.26382,412.34674,71,49,0
412.42963,412.51447,82,58,0
412.42963,412.51447,73,49,0
412.42963,412.51447,70,49,0
412.59933,412.68622,80,58,0
412.59933,412.68622,71,49,0
412.59933,412.68622,68,49,0
412.7731,413.12393,82,69,0
412.7731,413.12393,75,58,0
412.7731,413.12393,70,58,0
413.12393,413.20682,82,59,0
413.12393,413.20682,70,50,0
413.12393,413.20682,75,50,0
413.2897,413.3816,82,59,0
413.2897,413.3816,70,50,0
413.2897,413.3816,75,50,0
413.47345,413.5598,75,67,0
413.47345,413.5598,73,57,0
413.47345,413.5598,67,57,0
413.6462,413.73257,77,58,0
413.6462,413.73257,68,49,0
413.81894,413.9053,79,58,0
413.81894,413.9053,73,49,0
413.81894,413.9053,70,49,0
413.99167,414.08298,75,58,0
413.99167,414.08298,67,49,0
414.17426,414.34598,80,69,0
414.17426,414.34598,75,58,0
414.17426,414.34598,68,58,0
414.90118,415.25302,82,79,0
414.90118,415.25302,70,66,0
414.90118,415.25302,75,66,0
414.90118,415.25302,79,66,0
415.25302,415.33594,82,67,0
415.25302,415.33594,70,57,0
415.25302,415.33594,79,57,0
415.25302,415.33594,75,57,0
415.41882,415.51068,82,67,0
415.41882,415.51068,70,57,0
415.41882,415.51068,79,57,0
415.41882,415.51068,75,57,0
415.60257,415.9587,87,79,0
415.60257,415.9587,78,66,0
415.60257,415.9587,75,66,0
415.9587,416.04257,87,67,0
415.9587,416.04257,75,57,0
415.9587,416.04257,78,57,0
416.12643,416.2183,87,67,0
416.12643,416.2183,75,57,0
416.12643,416.2183,78,57,0
416.31018,416.39355,85,77,0
416.31018,416.39355,76,65,0
416.31018,416.39355,73,65,0
416.47693,416.56277,83,66,0
416.47693,416.56277,75,56,0
416.47693,416.56277,71,56,0
416.64865,416.7345,82,66,0
416.64865,416.7345,73,56,0
416.64865,416.7345,70,56,0
416.82034,416.91916,80,66,0
416.82034,416.91916,71,56,0
416.82034,416.91916,68,56,0
417.01794,417.37408,82,79,0
417.01794,417.37408,75,66,0
417.01794,417.37408,70,66,0
417.37408,417.45993,82,67,0
417.37408,417.45993,70,57,0
417.37408,417.45993,75,57,0
417.5458,417.63766,82,67,0
417.5458,417.63766,70,57,0
417.5458,417.63766,75,57,0
417.72955,417.81592,75,77,0
417.72955,417.81592,73,65,0
417.72955,417.81592,67,65,0
417.90228,417.98865,77,66,0
417.90228,417.98865,68,56,0
418.07504,418.1614,79,66,0
418.07504,418.1614,73,56,0
418.07504,418.1614,70,56,0
418.24777,418.34656,75,66,0
418.24777,418.34656,67,56,0
418.44537,418.61707,80,79,0
418.44537,418.61707,75,66,0
418.44537,418.61707,68,66,0
419.24353,419.5816,81,50,0
419.5816,419.63193,83,36,0
419.63193,419.68228,81,36,0
419.68228,419.90448,80,50,0
419.90448,420.11282,78,41,0
419.24353,420.11282,71,35,0
420.11282,420.34183,83,43,0
420.34183,420.51358,75,45,0
420.51358,420.56326,78,35,0
420.56326,421.0077,76,43,0
420.11282,421.0077,71,29,0
421.0077,421.3512,81,50,0
421.3512,421.40155,83,36,0
421.40155,421.45187,81,36,0
421.45187,421.66617,80,50,0
421.66617,421.87024,78,41,0
421.0077,421.87024,71,35,0
421.87024,422.09924,83,44,0
422.09924,422.271,75,45,0
422.271,422.32068,78,35,0
422.32068,422.7868,76,43,0
421.87024,422.7868,71,29,0
422.89243,422.99808,54,36,0
422.99808,423.1037,58,41,0
423.1037,423.2209,64,28,0
423.1037,423.2209,66,36,0
423.33118,423.44147,54,24,0
423.44147,423.56754,59,27,0
423.56754,423.75742,63,19,0
423.56754,423.75742,66,24,0
423.75742,424.10898,81,50,0
424.10898,424.1593,83,36,0
424.1593,424.20963,81,36,0
424.20963,424.42392,80,50,0
424.42392,424.62802,78,41,0
423.75742,424.62802,71,35,0
424.62802,424.85703,83,43,0
424.85703,425.02878,75,45,0
425.02878,425.07843,78,35,0
425.07843,425.5229,76,43,0
424.62802,425.5229,71,29,0
425.5229,425.87445,81,50,0
425.87445,425.92477,83,36,0
425.92477,425.97513,81,36,0
425.97513,426.1894,80,50,0
426.1894,426.3935,78,41,0
425.5229,426.3935,71,35,0
426.3935,426.6225,83,44,0
426.6225,426.79425,75,45,0
426.79425,426.8439,78,35,0
426.8439,427.31003,76,43,0
426.3935,427.31003,71,29,0
427.41568,427.5213,54,36,0
427.5213,427.62695,58,41,0
427.62695,427.73972,64,28,0
427.62695,427.73972,66,36,0
427.85,427.9682,54,24,0
427.9682,428.09424,59,27,0
428.09424,428.29425,63,19,0
428.09424,428.29425,66,24,0
428.29425,428.6458,78,50,0
428.6458,428.69614,80,36,0
428.69614,428.74646,78,36,0
428.74646,428.96075,77,50,0
428.96075,429.11383,78,41,0
429.11383,429.16483,81,35,0
428.29425,429.16483,71,35,0
429.16483,429.5656,80,43,0
429.5656,429.61526,80,35,0
429.16483,429.61526,71,29,0
429.61526,430.05972,78,43,0
429.61526,430.05972,71,29,0
430.16534,430.271,54,36,0
430.271,430.37662,58,41,0
430.37662,430.49026,64,28,0
430.37662,430.49026,66,36,0
430.60056,430.71872,54,24,0
430.71872,430.84476,59,27,0
430.84476,430.99783,63,19,0
430.84476,430.99783,66,24,0
430.99783,431.0453,81,37,0
431.0453,431.1556,80,50,0
431.21075,431.2579,80,37,0
431.2579,431.3658,78,50,0
431.4194,431.46655,78,37,0
431.46655,431.5785,77,50,0
431.6345,431.68195,77,37,0
431.68195,431.80005,74,50,0
431.91815,432.03265,73,50,0
432.1472,432.2617,85,50,0
432.3762,432.4907,85,50,0
432.6052,432.7197,97,50,0
432.95212,433.0585,54,32,0
433.0585,433.1649,58,36,0
433.1649,433.276,64,25,0
433.1649,433.276,66,32,0
433.3863,433.50446,54,21,0
433.50446,433.63052,59,24,0
433.63052,433.8305,63,17,0
433.63052,433.8305,66,21,0
433.8305,434.18207,78,50,0
434.18207,434.23242,80,36,0
434.23242,434.28275,78,36,0
434.28275,434.49704,77,50,0
434.49704,434.6501,78,41,0
434.6501,434.7011,81,35,0
433.8305,434.7011,71,35,0
434.7011,435.10187,80,43,0
435.10187,435.15155,80,35,0
434.7011,435.15155,71,29,0
435.15155,435.596,78,43,0
435.15155,435.596,71,29,0
435.70163,435.80725,54,32,0
435.80725,435.9129,58,36,0
435.9129,436.02402,64,25,0
435.9129,436.02402,66,32,0
436.1343,436.25247,54,21,0
436.25247,436.3785,59,24,0
436.3785,436.5316,63,19,0
436.3785,436.5316,66,24,0
436.5316,436.57904,81,37,0
436.57904,436.68774,80,50,0
436.7421,436.78928,80,37,0
436.78928,436.9004,78,50,0
436.95593,437.0031,78,37,0
437.0031,437.11588,77,50,0
437.17227,437.21976,77,37,0
437.21976,437.33337,74,50,0
437.44702,437.56152,73,50,0
437.67603,437.79053,85,50,0
437.90503,438.01953,85,50,0
438.13403,438.26562,97,50,0
438.52878,438.66037,54,30,0
438.66037,438.79193,58,34,0
438.79193,438.93344,64,23,0
438.79193,438.93344,66,30,0
439.0805,439.22757,54,20,0
439.22757,439.37463,59,22,0
439.37463,439.66873,63,16,0
439.37463,439.66873,66,20,0
439.66873,440.0203,93,50,0
440.0203,440.07065,95,36,0
440.07065,440.12097,93,36,0
439.66873,440.12097,81,42,0
440.12097,440.3432,92,50,0
440.12097,440.3432,80,42,0
440.3432,440.5515,90,41,0
440.3432,440.5515,78,34,0
440.5515,440.78055,95,43,0
440.5515,440.78055,83,36,0
440.78055,440.9523,87,45,0
440.9523,441.00195,90,35,0
440.78055,441.00195,75,38,0
441.00195,441.4464,88,43,0
441.00195,441.4464,76,36,0
441.4464,441.78992,93,50,0
441.78992,441.84024,95,36,0
441.84024,441.8906,93,36,0
441.4464,441.8906,81,42,0
441.8906,442.10486,92,50,0
441.8906,442.10486,80,42,0
442.10486,442.30896,90,41,0
442.10486,442.30896,78,34,0
442.30896,442.53796,95,44,0
442.30896,442.53796,83,37,0
442.53796,442.70972,87,45,0
442.70972,442.7594,90,35,0
442.53796,442.7594,75,38,0
442.7594,443.2255,88,43,0
442.7594,443.2255,76,36,0
443.33115,443.43677,54,34,0
443.43677,443.54242,58,38,0
443.54242,443.6596,64,26,0
443.54242,443.6596,66,34,0
443.7699,443.8802,54,22,0
443.8802,444.00623,59,25,0
444.00623,444.1961,63,18,0
444.00623,444.1961,66,22,0
444.1961,444.54767,93,50,0
444.54767,444.59802,95,36,0
444.59802,444.64835,93,36,0
444.1961,444.64835,81,42,0
444.64835,444.87057,92,50,0
444.64835,444.87057,80,42,0
444.87057,445.0789,90,41,0
444.87057,445.0789,78,34,0
445.0789,445.3079,95,43,0
445.0789,445.3079,83,36,0
445.3079,445.47968,87,45,0
445.47968,445.52933,90,35,0
445.3079,445.52933,75,38,0
445.52933,445.9738,88,43,0
445.52933,445.9738,76,36,0
445.9738,446.3173,93,50,0
446.3173,446.3676,95,36,0
446.3676,446.41797,93,36,0
445.9738,446.41797,81,42,0
446.41797,446.63223,92,50,0
446.41797,446.63223,80,42,0
446.63223,446.83633,90,41,0
446.63223,446.83633,78,34,0
446.83633,447.06534,95,44,0
446.83633,447.06534,83,37,0
447.06534,447.2371,87,45,0
447.2371,447.28674,90,35,0
447.06534,447.28674,75,38,0
447.28674,447.75287,88,43,0
447.28674,447.75287,76,36,0
447.85852,447.96414,54,34,0
447.96414,448.0698,58,38,0
448.0698,448.18698,64,26,0
448.0698,448.18698,66,34,0
448.29727,448.40756,54,22,0
448.40756,448.5336,59,25,0
448.5336,448.72348,63,18,0
448.5336,448.72348,66,22,0
448.72348,449.07504,90,50,0
449.07504,449.12537,92,36,0
449.12537,449.17572,90,36,0
448.72348,449.17572,78,42,0
449.17572,449.39,89,50,0
449.17572,449.39,77,42,0
449.39,449.54306,90,41,0
449.54306,449.5941,93,35,0
449.39,449.5941,78,34,0
449.5941,449.99484,92,43,0
449.99484,450.04453,92,35,0
449.5941,450.04453,80,36,0
450.04453,450.48895,90,43,0
450.04453,450.48895,78,24,0
450.5946,450.70023,54,36,0
450.70023,450.80585,58,41,0
450.80585,450.92303,64,28,0
450.80585,450.92303,66,36,0
451.03336,451.14365,54,24,0
451.14365,451.26968,59,27,0
451.26968,451.36462,63,19,0
451.26968,451.36462,66,24,0
451.36462,451.41208,93,37,0
451.41208,451.52078,92,50,0
451.41208,451.52078,80,42,0
451.57513,451.6223,92,37,0
451.6223,451.73343,90,50,0
451.6223,451.73343,78,42,0
451.78897,451.83615,90,37,0
451.83615,451.9489,88,50,0
451.83615,451.9489,76,42,0
452.0053,452.0528,88,37,0
452.0528,452.1664,86,50,0
452.0528,452.1664,74,42,0
452.28006,452.39456,73,50,0
452.50906,452.62357,85,50,0
452.73807,452.85257,85,50,0
452.96707,453.10858,97,50,0
453.37204,453.494,54,30,0
453.494,453.61594,58,34,0
453.61594,453.7602,64,23,0
453.61594,453.7602,66,30,0
453.8852,454.0102,54,20,0
454.0102,454.13623,59,22,0
454.13623,454.3261,63,16,0
454.13623,454.3261,66,20,0
454.3261,454.67767,90,50,0
454.67767,454.72974,92,36,0
454.72974,454.78183,90,36,0
454.3261,454.78183,78,42,0
454.78183,455.0024,89,50,0
454.78183,455.0024,77,42,0
455.0024,455.15866,90,41,0
455.15866,455.21075,93,35,0
455.0024,455.21075,78,34,0
455.21075,455.6274,92,43,0
455.6274,455.6771,92,35,0
455.21075,455.6771,80,36,0
455.6771,456.12152,90,43,0
455.6771,456.12152,78,24,0
456.23022,456.33893,54,36,0
456.33893,456.44763,58,41,0
456.44763,456.5716,64,28,0
456.44763,456.5716,66,36,0
456.6897,456.8078,54,24,0
456.8078,456.93387,59,27,0
456.93387,457.0599,66,24,0
456.93387,457.0599,63,19,0
457.0599,457.139,93,45,0
457.139,457.21713,92,44,0
457.21616,457.29428,90,44,0
457.29428,457.3724,88,43,0
457.3724,457.4462,86,43,0
457.4462,457.51562,85,42,0
457.51562,457.58917,83,42,0
457.58917,457.6627,81,41,0
457.6627,457.73624,80,41,0
457.73624,457.80566,78,40,0
457.80566,457.87512,76,39,0
457.87512,457.94455,74,39,0
457.94455,458.0041,73,40,0
458.0636,458.12314,85,36,0
458.18265,458.2422,85,36,0
458.3017,458.36124,97,38,0
458.4109,458.46057,97,39,0
458.51022,458.5599,85,36,0
458.60956,458.65924,85,36,0
458.70892,458.7666,73,37,0
458.82428,458.87396,73,44,0
458.92365,458.9733,85,36,0
459.02298,459.07263,85,36,0
459.1223,459.17197,97,41,0
459.22165,459.2713,97,41,0
459.32098,459.37067,85,36,0
459.42032,459.47,85,36,0
459.51965,459.5769,73,36,0
459.63416,459.68417,73,42,0
459.73416,459.78415,85,37,0
459.83417,459.88416,85,37,0
459.93417,459.98416,97,40,0
460.03415,460.08417,97,40,0
460.13416,460.18417,85,37,0
460.23416,460.28415,85,37,0
460.33417,460.3923,97,37,0
460.45044,460.50043,97,42,0
460.55045,460.60043,85,37,0
460.65045,460.70044,85,37,0
460.75043,460.80045,97,39,0
460.8506,460.90143,97,39,0
460.95303,461.00552,85,37,0
461.05878,461.1129,85,37,0
461.16806,461.26065,97,37,0
461.3142,461.3894,98,39,0
461.3894,461.4646,100,38,0
461.4646,461.53976,98,37,0
461.53976,461.61496,97,36,0
461.61496,461.68613,95,36,0
461.68613,461.75323,93,36,0
461.75323,461.82465,92,35,0
461.82465,461.8961,90,34,0
461.8961,461.9675,88,33,0
461.9675,462.03696,86,32,0
462.03696,462.1064,85,31,0
462.1064,462.17584,83,30,0
462.17584,462.2505,81,29,0
462.2505,462.3251,80,28,0
462.3251,462.39972,81,29,0
462.39972,462.47437,83,31,0
462.47437,462.54898,85,32,0
462.54898,462.6236,86,33,0
462.6236,462.69452,88,34,0
462.69452,462.76544,90,35,0
462.76544,462.83673,92,36,0
462.83673,462.91003,93,36,0
462.91003,463.0108,95,37,0
463.0108,463.0972,97,38,0
463.0972,463.17236,98,39,0
463.17236,463.24756,100,38,0
463.24756,463.32275,98,37,0
463.32275,463.39795,97,36,0
463.39795,463.4691,95,36,0
463.4691,463.5362,93,36,0
463.5362,463.60764,92,35,0
463.60764,463.67905,90,34,0
463.67905,463.7505,88,33,0
463.7505,463.81995,86,32,0
463.81995,463.88937,85,31,0
463.88937,463.95883,83,30,0
463.95883,464.03345,81,29,0
464.03345,464.10806,80,28,0
464.10806,464.1827,81,29,0
464.1827,464.25732,83,31,0
464.25732,464.33197,85,32,0
464.33197,464.4066,86,33,0
464.4066,464.4775,88,34,0
464.4775,464.54843,90,35,0
464.54843,464.6197,92,36,0
464.6197,464.69263,93,36,0
464.69263,464.79227,95,37,0
464.79227,464.87708,97,38,0
464.87708,464.95227,98,39,0
464.95227,465.02747,100,38,0
465.02747,465.10266,98,37,0
465.10266,465.17786,97,36,0
465.17786,465.249,95,36,0
465.249,465.3161,93,36,0
465.3161,465.38754,92,35,0
465.38754,465.45895,90,34,0
465.45895,465.5304,88,33,0
465.5304,465.59982,86,32,0
465.59982,465.66928,85,31,0
465.66928,465.73874,83,30,0
465.73874,465.81335,81,29,0
465.81335,465.88797,80,28,0
465.88797,465.96262,81,29,0
465.96262,466.03723,83,31,0
466.03723,466.11185,85,32,0
466.11185,466.1865,86,33,0
466.1865,466.25742,88,34,0
466.25742,466.32834,90,35,0
466.32834,466.39926,92,36,0
466.39926,466.47052,93,36,0
466.47052,466.54343,95,37,0
466.54343,466.61807,97,38,0
466.61807,466.68976,98,41,0
466.68976,466.76065,99,44,0
466.76065,466.83066,100,46,0
466.83066,466.9006,101,49,0
466.9006,466.97104,100,49,0
466.97104,467.0417,99,47,0
467.0417,467.11258,98,46,0
467.11258,467.18396,97,45,0
467.18396,467.2555,96,44,0
467.2555,467.32745,95,43,0
467.32745,467.39972,94,41,0
467.39972,467.47223,93,40,0
467.47223,467.54507,92,39,0
467.54507,467.6172,93,44,0
467.6172,467.6884,94,46,0
467.6884,467.75888,95,48,0
467.75888,467.82944,94,49,0
467.82944,467.90036,93,48,0
467.90036,467.9717,92,47,0
467.9717,468.04337,91,46,0
468.04337,468.11533,90,45,0
468.11533,468.1878,89,45,0
468.1878,468.2606,88,44,0
468.2606,468.3337,87,43,0
468.3337,468.40543,86,41,0
468.40543,468.47632,87,44,0
468.47632,468.54633,88,46,0
468.54633,468.61627,89,49,0
468.61627,468.68668,88,49,0
468.68668,468.75732,87,47,0
468.75732,468.82825,86,46,0
468.82825,468.8996,85,45,0
468.8996,468.97116,84,44,0
468.97116,469.04312,83,43,0
469.04312,469.1154,82,41,0
469.1154,469.1879,81,40,0
469.1879,469.26074,80,39,0
469.26074,469.33286,81,44,0
469.33286,469.40405,82,46,0
469.40405,469.47455,83,48,0
469.47455,469.54507,82,49,0
469.54507,469.616,81,48,0
469.616,469.68735,80,47,0
469.68735,469.75903,79,46,0
469.75903,469.831,78,45,0
469.831,469.90344,77,45,0
469.90344,469.97626,76,44,0
469.97626,470.04938,75,43,0
470.04938,470.12268,74,41,0
470.12268,470.1953,75,44,0
470.1953,470.26733,76,46,0
470.26733,470.33875,77,49,0
470.33875,470.4103,76,49,0
470.4103,470.48224,75,47,0
470.48224,470.5544,74,46,0
470.5544,470.6269,73,45,0
470.6269,470.6997,72,44,0
470.6997,470.77267,71,43,0
470.77267,470.84613,70,41,0
470.84613,470.9198,69,40,0
470.9198,470.99362,68,39,0
470.99362,471.06656,69,44,0
471.06656,471.13867,70,46,0
471.13867,471.20987,71,48,0
471.20987,471.28134,70,49,0
471.28134,471.35376,69,48,0
471.35376,471.40872,68,45,0
471.40872,471.46417,67,45,0
471.46417,471.5203,66,47,0
471.5203,471.57693,65,49,0
471.57693,471.6918,64,50,0
471.86826,472.12512,70,54,0
471.86826,472.12512,67,45,0
472.21072,472.2716,70,51,0
472.21072,472.2716,67,43,0
472.3731,472.434,67,43,0
472.37582,472.4367,70,51,0
472.5355,473.0341,75,56,0
472.5355,473.0341,66,48,0
473.0341,473.0964,66,41,0
473.0341,473.0964,75,49,0
473.2003,473.2598,73,52,0
473.2003,473.359,64,44,0
473.359,473.41852,70,52,0
473.51773,473.5786,71,52,0
473.51773,473.6801,63,44,0
473.6801,473.741,68,54,0
473.8425,473.9075,70,53,0
473.8425,474.0144,67,44,0
474.01584,474.08084,63,50,0
474.5491,474.80597,70,59,0
474.5491,474.80597,67,49,0
474.89157,474.95245,70,56,0
474.89157,474.95245,67,47,0
475.05396,475.11484,67,47,0
475.05396,475.11484,70,56,0
475.21634,475.71494,75,61,0
475.21634,475.71494,66,52,0
475.71494,475.77725,66,45,0
475.71494,475.77725,75,53,0
475.8811,475.94064,73,57,0
475.8811,476.03986,64,48,0
476.03986,476.09937,71,57,0
476.19858,476.25946,70,58,0
476.19858,476.36096,67,48,0
476.36096,476.42184,63,61,0
476.52335,476.58835,68,60,0
476.6967,476.7617,63,58,0
476.87003,476.9421,68,62,0
476.87003,476.9421,63,55,0
477.25443,477.5113,82,70,0
477.25443,477.5113,70,58,0
477.25443,477.5113,75,58,0
477.25443,477.5113,79,58,0
477.5969,477.6578,82,66,0
477.5969,477.6578,70,55,0
477.5969,477.6578,75,55,0
477.5969,477.6578,79,55,0
477.75928,477.8202,79,55,0
477.75928,477.8202,82,66,0
477.75928,477.8202,70,55,0
477.75928,477.8202,75,55,0
477.92166,478.42026,87,72,0
477.92166,478.42026,78,62,0
477.92166,478.42026,75,62,0
478.42026,478.48257,78,53,0
478.42026,478.48257,87,63,0
478.42026,478.48257,75,53,0
478.58646,478.64597,85,67,0
478.58646,478.64597,76,57,0
478.58646,478.64597,73,57,0
478.74518,478.80472,82,67,0
478.74518,478.80472,70,67,0
478.9039,478.9648,83,67,0
478.9039,478.9648,75,57,0
478.9039,478.9648,71,57,0
479.06628,479.1272,80,70,0
479.06628,479.1272,68,70,0
479.22867,479.29138,82,68,0
479.22867,479.29138,75,57,0
479.22867,479.29138,70,57,0
479.39587,479.45856,75,65,0
479.39587,479.45856,63,57,0
479.56305,479.62613,75,68,0
479.56305,479.62613,63,57,0
479.9067,480.16357,82,73,0
479.9067,480.16357,70,60,0
479.9067,480.16357,75,60,0
479.9067,480.16357,79,60,0
480.24918,480.3101,82,69,0
480.24918,480.3101,70,57,0
480.24918,480.3101,75,57,0
480.24918,480.3101,79,57,0
480.41156,480.47247,79,57,0
480.41156,480.47247,82,69,0
480.41156,480.47247,70,57,0
480.41156,480.47247,75,57,0
480.57394,481.23874,87,75,0
480.57394,481.23874,78,65,0
480.57394,481.23874,75,65,0
481.23874,481.49557,86,76,0
481.23874,481.49557,74,63,0
481.23874,481.49557,79,63,0
481.23874,481.49557,83,63,0
481.5812,481.6421,86,72,0
481.5812,481.6421,74,59,0
481.5812,481.6421,79,59,0
481.5812,481.6421,83,59,0
481.7436,481.80447,83,59,0
481.7436,481.80447,86,72,0
481.7436,481.80447,74,59,0
481.7436,481.80447,79,59,0
481.90598,482.57074,91,78,0
481.90598,482.57074,79,68,0
481.90598,482.57074,82,68,0
481.90598,482.57074,87,68,0
482.57074,482.8276,91,79,0
482.57074,482.8276,79,66,0
482.57074,482.8276,84,66,0
482.57074,482.8276,88,66,0
482.9132,482.9741,91,75,0
482.9132,482.9741,79,61,0
482.9132,482.9741,84,61,0
482.9132,482.9741,88,61,0
483.0756,483.13647,88,61,0
483.0756,483.13647,91,75,0
483.0756,483.13647,79,61,0
483.0756,483.13647,84,61,0
483.23798,483.90277,96,81,0
483.23798,483.90277,84,71,0
483.23798,483.90277,88,71,0
483.23798,483.90277,91,71,0
483.90277,484.1596,79,80,0
483.90277,484.1596,67,67,0
483.90277,484.1596,72,67,0
483.90277,484.1596,76,67,0
484.24524,484.30612,79,77,0
484.24524,484.30612,67,62,0
484.24524,484.30612,72,62,0
484.24524,484.30612,76,62,0
484.4076,484.4685,76,62,0
484.4076,484.4685,79,77,0
484.4076,484.4685,67,62,0
484.4076,484.4685,72,62,0
484.56998,485.23477,84,83,0
484.56998,485.23477,72,73,0
484.56998,485.23477,76,73,0
484.56998,485.23477,79,73,0
485.23477,485.4916,91,82,0
485.23477,485.4916,79,69,0
485.23477,485.4916,84,69,0
485.23477,485.4916,88,69,0
485.57724,485.63812,91,78,0
485.57724,485.63812,79,64,0
485.57724,485.63812,84,64,0
485.57724,485.63812,88,64,0
485.73962,485.8005,88,64,0
485.73962,485.8005,91,78,0
485.73962,485.8005,79,64,0
485.73962,485.8005,84,64,0
485.902,486.56677,96,85,0
485.902,486.56677,84,75,0
485.902,486.56677,88,75,0
485.902,486.56677,91,75,0
486.56677,486.82364,79,84,0
486.56677,486.82364,67,70,0
486.56677,486.82364,72,70,0
486.56677,486.82364,76,70,0
486.90924,486.97015,79,81,0
486.90924,486.97015,67,65,0
486.90924,486.97015,72,65,0
486.90924,486.97015,76,65,0
487.07162,487.13254,76,65,0
487.07162,487.13254,79,81,0
487.07162,487.13254,67,65,0
487.07162,487.13254,72,65,0
487.234,487.9185,84,87,0
487.234,487.9185,72,76,0
487.234,487.9185,76,76,0
487.234,487.9185,79,76,0
487.9185,488.1801,97,86,0
487.9185,488.1801,93,72,0
487.9185,488.1801,85,72,0
488.2673,488.32892,97,82,0
488.2673,488.32892,93,67,0
488.2673,488.32892,85,67,0
488.43158,488.49316,93,67,0
488.43158,488.49316,85,67,0
488.43158,488.49316,97,82,0
488.59583,489.27258,100,89,0
488.59583,489.27258,97,78,0
488.59583,489.27258,88,78,0
488.59583,489.27258,93,78,0
489.27258,489.53885,85,86,0
489.27258,489.53885,81,72,0
489.27258,489.53885,73,72,0
489.6276,489.6908,85,82,0
489.6276,489.6908,81,67,0
489.6276,489.6908,73,67,0
489.7961,489.8593,81,67,0
489.7961,489.8593,73,67,0
489.7961,489.8593,85,82,0
489.96466,490.65427,88,89,0
489.96466,490.65427,85,78,0
489.96466,490.65427,76,78,0
489.96466,490.65427,81,78,0
490.65427,490.91913,97,86,0
490.65427,490.91913,93,72,0
490.65427,490.91913,85,72,0
491.00745,491.06976,97,82,0
491.00745,491.06976,93,67,0
491.00745,491.06976,85,67,0
491.17365,491.23596,93,67,0
491.17365,491.23596,85,67,0
491.17365,491.23596,97,82,0
491.3398,492.0436,100,89,0
491.3398,492.0436,97,78,0
491.3398,492.0436,88,78,0
491.3398,492.0436,93,78,0
492.0436,492.3257,85,86,0
492.0436,492.3257,81,72,0
492.0436,492.3257,73,72,0
492.41974,492.48672,85,82,0
492.41974,492.48672,81,67,0
492.41974,492.48672,73,67,0
492.5983,492.66528,81,67,0
492.5983,492.66528,73,67,0
492.5983,492.66528,85,82,0
492.7769,493.53058,88,89,0
492.7769,493.53058,85,78,0
492.7769,493.53058,76,78,0
492.7769,493.53058,81,78,0
493.53058,493.88373,66,87,0
493.53058,493.88373,54,73,0
493.53058,493.88373,58,73,0
493.53058,493.88373,61,73,0
493.88373,494.2369,53,68,0
493.88373,494.2369,58,68,0
493.88373,494.2369,61,68,0
493.88373,494.2369,65,80,0
494.2369,494.5901,63,85,0
494.2369,494.5901,51,72,0
494.2369,494.5901,54,72,0
494.2369,494.5901,58,72,0
494.5901,494.97968,49,68,0
494.5901,494.97968,54,68,0
494.5901,494.97968,58,68,0
494.5901,494.97968,61,80,0
494.97968,495.14532,66,86,0
494.97968,495.14532,54,73,0
494.97968,495.14532,58,73,0
494.97968,495.14532,61,73,0
495.16373,495.32938,66,80,0
495.16373,495.32938,54,68,0
495.16373,495.32938,58,68,0
495.16373,495.32938,61,68,0
495.34778,495.72995,68,86,0
495.34778,495.72995,61,73,0
495.34778,495.72995,56,73,0
495.72995,496.10495,70,89,0
495.72995,496.10495,58,75,0
495.72995,496.10495,61,75,0
495.72995,496.10495,66,75,0
496.4823,496.84814,66,87,0
496.4823,496.84814,54,73,0
496.4823,496.84814,58,73,0
496.4823,496.84814,61,73,0
496.84814,497.21402,53,68,0
496.84814,497.21402,58,68,0
496.84814,497.21402,61,68,0
496.84814,497.21402,65,80,0
497.21402,497.5733,63,85,0
497.21402,497.5733,51,72,0
497.21402,497.5733,54,72,0
497.21402,497.5733,58,72,0
497.5733,497.95792,49,68,0
497.5733,497.95792,54,68,0
497.5733,497.95792,58,68,0
497.5733,497.95792,61,80,0
497.95792,498.11862,66,86,0
497.95792,498.11862,54,73,0
497.95792,498.11862,58,73,0
497.95792,498.11862,61,73,0
498.13647,498.2972,66,80,0
498.13647,498.2972,54,68,0
498.13647,498.2972,58,68,0
498.13647,498.2972,61,68,0
498.31506,498.6972,68,86,0
498.31506,498.6972,61,73,0
498.31506,498.6972,56,73,0
498.6972,499.0722,70,89,0
498.6972,499.0722,58,75,0
498.6972,499.0722,61,75,0
498.6972,499.0722,66,75,0
499.4472,500.00748,73,91,0
499.4472,500.00748,61,77,0
499.4472,500.00748,66,77,0
499.4472,500.00748,70,77,0
500.00748,500.19733,73,85,0
500.00748,500.19733,61,72,0
500.00748,500.19733,66,72,0
500.00748,500.19733,70,72,0
500.19733,500.57233,75,92,0
500.19733,500.57233,63,78,0
500.19733,500.57233,66,78,0
500.19733,500.57233,71,78,0
500.57233,500.9545,73,86,0
500.57233,500.9545,61,73,0
500.57233,500.9545,66,73,0
500.57233,500.9545,70,73,0
500.9545,501.51352,70,93,0
500.9545,501.51352,58,79,0
501.51352,501.69983,68,87,0
501.51352,501.69983,58,73,0
501.69983,501.79074,66,91,0
501.69983,501.79074,58,77,0
501.88165,501.97256,65,85,0
501.88165,501.97256,58,72,0
502.06348,502.25098,63,84,0
502.06348,502.25098,58,71,0
502.43848,502.50845,70,78,0
502.50845,502.5784,71,73,0
502.5784,502.64838,70,73,0
502.64838,502.71835,69,73,0
502.71835,502.7883,70,73,0
502.43848,502.7883,66,66,0
502.7883,502.8784,71,73,0
502.7883,502.8784,68,62,0
502.96848,503.06915,70,70,0
502.96848,503.06915,66,59,0
503.16983,503.263,68,80,0
503.16983,503.263,65,68,0
503.35617,503.44934,66,73,0
503.35617,503.44934,63,62,0
503.5425,503.73605,65,73,0
503.5425,503.73605,58,62,0
503.9296,504.11594,63,89,0
503.9296,504.11594,58,75,0
503.9296,504.11594,54,75,0
504.67493,505.23517,85,91,0
504.67493,505.23517,73,77,0
504.67493,505.23517,78,77,0
504.67493,505.23517,82,77,0
505.23517,505.42505,85,85,0
505.23517,505.42505,73,72,0
505.23517,505.42505,78,72,0
505.23517,505.42505,82,72,0
505.42505,505.80005,87,92,0
505.42505,505.80005,75,78,0
505.42505,505.80005,78,78,0
505.42505,505.80005,83,78,0
505.80005,506.18222,85,86,0
505.80005,506.18222,73,73,0
505.80005,506.18222,78,73,0
505.80005,506.18222,82,73,0
506.18222,506.7412,82,93,0
506.18222,506.7412,70,79,0
506.7412,506.92755,80,87,0
506.7412,506.92755,68,73,0
506.92755,507.01846,78,91,0
506.92755,507.01846,66,77,0
507.10938,507.2003,77,85,0
507.10938,507.2003,65,72,0
507.2912,507.4787,75,84,0
507.2912,507.4787,63,71,0
507.6662,507.73557,82,78,0
507.73557,507.80493,83,73,0
507.80493,507.8743,82,73,0
507.8743,507.94366,81,73,0
507.94366,508.01303,82,73,0
507.6662,508.01303,78,66,0
508.01303,508.1034,83,73,0
508.01303,508.1034,71,62,0
508.19373,508.2944,82,70,0
508.19373,508.2944,70,59,0
508.39508,508.4849,80,80,0
508.39508,508.4849,68,68,0
508.57474,508.66455,78,73,0
508.57474,508.66455,66,62,0
508.75436,508.9479,77,73,0
508.75436,508.9479,65,62,0
509.14145,509.32666,75,89,0
509.14145,509.32666,70,75,0
509.14145,509.32666,63,75,0
509.8822,510.01456,66,78,0
509.8822,510.01456,54,65,0
509.8822,510.01456,58,65,0
509.8822,510.01456,61,65,0
510.0587,510.191,66,65,0
510.0587,510.191,54,55,0
510.0587,510.191,58,55,0
510.0587,510.191,61,55,0
510.41696,510.5533,53,54,0
510.41696,510.5533,58,54,0
510.41696,510.5533,61,54,0
510.41696,510.5533,65,64,0
510.7806,510.91696,63,68,0
510.7806,510.91696,51,57,0
510.7806,510.91696,54,57,0
510.7806,510.91696,58,57,0
511.15228,511.29468,49,54,0
511.15228,511.29468,54,54,0
511.15228,511.29468,58,54,0
511.15228,511.29468,61,64,0
511.5229,511.64487,66,64,0
511.5229,511.64487,54,54,0
511.5229,511.64487,58,54,0
511.5229,511.64487,61,54,0
511.89227,512.0338,68,69,0
511.89227,512.0338,61,58,0
511.89227,512.0338,56,58,0
512.2639,512.40106,70,72,0
512.2639,512.40106,58,60,0
512.2639,512.40106,61,60,0
512.2639,512.40106,66,60,0
512.82416,512.95575,66,78,0
512.82416,512.95575,54,65,0
512.82416,512.95575,58,65,0
512.82416,512.95575,61,65,0
512.99963,513.13116,66,65,0
512.99963,513.13116,54,55,0
512.99963,513.13116,58,55,0
512.99963,513.13116,61,55,0
513.3558,513.49133,53,54,0
513.3558,513.49133,58,54,0
513.3558,513.49133,61,54,0
513.3558,513.49133,65,64,0
513.7172,513.8528,63,68,0
513.7172,513.8528,51,57,0
513.7172,513.8528,54,57,0
513.7172,513.8528,58,57,0
514.0878,514.2302,49,54,0
514.0878,514.2302,54,54,0
514.0878,514.2302,58,54,0
514.0878,514.2302,61,64,0
514.45844,514.5804,66,64,0
514.45844,514.5804,54,54,0
514.45844,514.5804,58,54,0
514.45844,514.5804,61,54,0
514.8278,514.9693,68,69,0
514.8278,514.9693,61,58,0
514.8278,514.9693,56,58,0
515.1994,515.3366,70,72,0
515.1994,515.3366,58,60,0
515.1994,515.3366,61,60,0
515.1994,515.3366,66,60,0
515.7597,516.31995,73,91,0
515.7597,516.31995,61,77,0
515.7597,516.31995,66,77,0
515.7597,516.31995,70,77,0
516.31995,516.5098,73,85,0
516.31995,516.5098,61,72,0
516.31995,516.5098,66,72,0
516.31995,516.5098,70,72,0
516.5098,516.8848,75,92,0
516.5098,516.8848,63,78,0
516.5098,516.8848,66,78,0
516.5098,516.8848,71,78,0
516.8848,517.26697,73,86,0
516.8848,517.26697,61,73,0
516.8848,517.26697,66,73,0
516.8848,517.26697,70,73,0
517.26697,517.81915,70,93,0
517.26697,517.81915,58,79,0
517.81915,518.0032,68,87,0
517.81915,518.0032,58,73,0
518.0032,518.09143,66,91,0
518.0032,518.09143,58,77,0
518.1797,518.2679,65,85,0
518.1797,518.2679,58,72,0
518.35614,518.5425,63,84,0
518.35614,518.5425,58,71,0
518.72766,518.7982,70,78,0
518.7982,518.86884,71,73,0
518.86884,518.9394,70,73,0
518.9394,519.01,69,73,0
519.01,519.0806,70,73,0
518.72766,519.0806,66,66,0
519.0806,519.1726,71,73,0
519.0806,519.1726,68,62,0
519.26465,519.3653,70,70,0
519.26465,519.3653,66,59,0
519.466,519.55914,68,80,0
519.466,519.55914,65,68,0
519.65234,519.7455,66,73,0
519.65234,519.7455,63,62,0
519.8387,520.03345,65,73,0
519.8387,520.03345,58,62,0
520.2283,520.4158,63,89,0
520.2283,520.4158,58,75,0
520.2283,520.4158,54,75,0
520.9783,521.52527,85,91,0
520.9783,521.52527,73,77,0
520.9783,521.52527,78,77,0
520.9783,521.52527,82,77,0
521.52527,521.71515,85,85,0
521.52527,521.71515,73,72,0
521.52527,521.71515,78,72,0
521.52527,521.71515,82,72,0
521.71515,522.07446,87,92,0
521.71515,522.07446,75,78,0
521.71515,522.07446,78,78,0
521.71515,522.07446,83,78,0
522.07446,522.44946,85,86,0
522.07446,522.44946,73,73,0
522.07446,522.44946,78,73,0
522.07446,522.44946,82,73,0
522.44946,523.0018,82,93,0
522.44946,523.0018,70,79,0
523.0018,523.1814,80,87,0
523.0018,523.1814,68,73,0
523.1814,523.2686,78,91,0
523.1814,523.2686,66,77,0
523.35583,523.443,77,85,0
523.35583,523.443,65,72,0
523.5302,523.7143,75,84,0
523.5302,523.7143,63,71,0
523.8983,523.9719,82,78,0
523.9719,524.0456,83,73,0
524.0456,524.1192,82,73,0
524.1192,524.1928,81,73,0
524.1928,524.2664,82,73,0
523.8983,524.2664,78,66,0
524.2664,524.35846,83,73,0
524.2664,524.35846,71,62,0
524.4505,524.55115,82,70,0
524.4505,524.55115,70,59,0
524.6518,524.7411,80,80,0
524.6518,524.7411,68,68,0
524.8304,524.9197,78,73,0
524.8304,524.9197,66,62,0
525.009,525.19824,77,73,0
525.009,525.19824,65,62,0
525.3875,525.45996,70,78,0
525.45996,525.5325,71,73,0
525.5325,525.605,70,73,0
525.605,525.6775,69,73,0
525.6775,525.75,70,73,0
525.3875,525.75,66,66,0
525.75,525.84406,71,73,0
525.75,525.84406,68,62,0
525.93805,526.03876,70,70,0
525.93805,526.03876,66,59,0
526.1394,526.2401,68,80,0
526.1394,526.2401,65,68,0
526.34076,526.4414,66,73,0
526.34076,526.4414,63,62,0
526.5421,526.7595,65,73,0
526.5421,526.7595,58,62,0
526.97687,527.06445,58,78,0
527.06445,527.1521,59,73,0
527.1521,527.2397,58,73,0
527.2397,527.3273,57,73,0
527.3273,527.41486,58,73,0
526.97687,527.41486,54,66,0
527.41486,527.52515,59,73,0
527.41486,527.52515,56,62,0
527.63544,527.7526,58,70,0
527.63544,527.7526,54,59,0
527.8698,527.9908,56,80,0
527.8698,527.9908,53,68,0
528.11176,528.24567,54,73,0
528.11176,528.24567,51,62,0
528.3796,528.6626,53,73,0
528.3796,528.6626,46,62,0
528.9456,529.4541,51,86,0
529.4541,529.7084,67,66,0
529.4541,529.7084,55,56,0
529.4541,529.7084,58,56,0
529.4541,529.7084,63,56,0
529.7084,529.9626,67,56,0
529.7084,529.9626,79,66,0
529.7084,529.9626,75,56,0
529.7084,529.9626,70,56,0
529.9626,530.22577,79,60,0
529.9626,530.22577,91,71,0
529.9626,530.22577,87,71,0
529.9626,530.22577,82,60,0
530.22577,530.4889,91,66,0
530.22577,530.4889,103,78,0
530.22577,530.4889,99,78,0
530.22577,530.4889,94,66,0
531.0152,531.26416,46,82,0
531.0152,531.5237,58,86,0
531.5237,531.77795,67,66,0
531.5237,531.77795,55,56,0
531.5237,531.77795,58,56,0
531.5237,531.77795,63,56,0
531.77795,532.03217,67,56,0
531.77795,532.03217,79,66,0
531.77795,532.03217,75,56,0
531.77795,532.03217,70,56,0
532.03217,532.29535,79,61,0
532.03217,532.29535,91,72,0
532.03217,532.29535,87,72,0
532.03217,532.29535,82,61,0
532.29535,532.5668,91,65,0
532.29535,532.5668,103,77,0
532.29535,532.5668,99,77,0
532.29535,532.5668,94,65,0
532.9615,533.0931,55,79,0
532.9615,533.0931,43,79,0
533.0931,533.6059,56,86,0
533.0931,533.6059,44,75,0
533.6059,533.8623,65,66,0
533.6059,533.8623,53,56,0
533.6059,533.8623,58,56,0
533.6059,533.8623,62,56,0
533.8623,534.1187,65,56,0
533.8623,534.1187,77,66,0
533.8623,534.1187,74,56,0
533.8623,534.1187,70,56,0
534.1187,534.3842,77,61,0
534.1187,534.3842,89,72,0
534.1187,534.3842,86,61,0
534.1187,534.3842,82,61,0
534.3842,534.64966,89,68,0
534.3842,534.64966,101,81,0
534.3842,534.64966,98,81,0
534.3842,534.64966,94,68,0
535.18066,535.68915,58,86,0
535.18066,535.68915,46,86,0
535.68915,535.94336,67,66,0
535.68915,535.94336,55,56,0
535.68915,535.94336,58,56,0
535.68915,535.94336,63,56,0
535.94336,536.19763,67,56,0
535.94336,536.19763,79,66,0
535.94336,536.19763,75,56,0
535.94336,536.19763,70,56,0
536.19763,536.46075,79,62,0
536.19763,536.46075,91,73,0
536.19763,536.46075,87,73,0
536.19763,536.46075,82,62,0
536.46075,536.73346,91,68,0
536.46075,536.73346,103,81,0
536.46075,536.73346,99,81,0
536.46075,536.73346,94,68,0
536.9966,537.0843,46,71,0
537.0843,537.172,48,73,0
537.172,537.2249,50,75,0
537.2559,537.7644,51,86,0
537.7644,538.0103,67,66,0
537.7644,538.0103,63,56,0
537.7644,538.0103,58,56,0
537.7644,538.0103,55,56,0
538.0103,538.2562,75,56,0
538.0103,538.2562,67,56,0
538.0103,538.2562,70,56,0
538.0103,538.2562,79,66,0
538.2562,538.51935,87,71,0
538.2562,538.51935,82,60,0
538.2562,538.51935,79,60,0
538.2562,538.51935,91,71,0
538.51935,538.78253,94,66,0
538.51935,538.78253,91,66,0
538.51935,538.78253,99,78,0
538.51935,538.78253,103,78,0
539.30884,539.5578,46,86,0
539.30884,539.8173,58,86,0
539.8173,540.07153,63,56,0
539.8173,540.07153,67,66,0
539.8173,540.07153,55,56,0
539.8173,540.07153,58,56,0
540.07153,540.3258,70,56,0
540.07153,540.3258,67,56,0
540.07153,540.3258,79,66,0
540.07153,540.3258,75,56,0
540.3258,540.5889,79,61,0
540.3258,540.5889,91,72,0
540.3258,540.5889,82,61,0
540.3258,540.5889,87,72,0
540.5889,540.8693,91,65,0
540.5889,540.8693,103,77,0
540.5889,540.8693,94,65,0
540.5889,540.8693,99,77,0
541.264,541.39557,43,79,0
541.264,541.39557,55,79,0
541.39557,541.9084,56,86,0
541.39557,541.9084,44,75,0
541.9084,542.1648,65,66,0
541.9084,542.1648,53,56,0
541.9084,542.1648,58,56,0
541.9084,542.1648,62,56,0
542.1648,542.4212,65,56,0
542.1648,542.4212,77,66,0
542.1648,542.4212,74,56,0
542.1648,542.4212,70,56,0
542.4212,542.6867,77,61,0
542.4212,542.6867,89,72,0
542.4212,542.6867,86,61,0
542.4212,542.6867,82,61,0
542.6867,542.9522,89,68,0
542.6867,542.9522,101,81,0
542.6867,542.9522,98,81,0
542.6867,542.9522,94,68,0
543.99164,544.24585,63,66,0
543.99164,544.24585,58,56,0
543.99164,544.24585,55,56,0
544.24585,544.5001,67,56,0
543.48315,544.5001,51,86,0
544.24585,544.5001,75,66,0
544.24585,544.5001,70,56,0
544.5001,544.76324,79,62,0
544.5001,544.76324,82,73,0
544.5001,544.76324,87,73,0
544.76324,545.0264,91,68,0
544.76324,545.0264,94,81,0
544.76324,545.0264,99,81,0
545.5577,545.80664,51,75,0
545.9391,546.06616,55,62,0
545.5577,546.06616,63,82,0
546.06616,546.18964,67,62,0
546.06616,546.18964,63,53,0
546.06616,546.18964,58,53,0
546.18964,546.31305,67,57,0
546.31305,546.4365,70,53,0
546.31305,546.4365,75,53,0
546.31305,546.4365,79,62,0
546.4365,546.56,79,56,0
546.56,546.6915,82,57,0
546.56,546.6915,87,67,0
546.56,546.6915,91,67,0
546.6915,546.8231,79,60,0
546.8231,546.9547,82,58,0
546.8231,546.9547,87,58,0
546.8231,546.9547,91,70,0
546.9547,547.0863,91,62,0
547.0863,547.3494,94,62,0
547.0863,547.3494,99,78,0
547.0863,547.3494,103,81,0
547.9989,548.12604,55,62,0
548.12604,548.25,67,62,0
547.61755,548.25,58,73,0
548.12604,548.25,58,53,0
548.12604,548.25,63,53,0
547.61755,548.3719,70,82,0
548.25,548.37396,67,57,0
548.37396,548.4979,70,53,0
548.37396,548.4979,75,53,0
548.37396,548.4979,79,62,0
548.4979,548.6219,79,56,0
548.6219,548.7534,82,57,0
548.6219,548.7534,87,67,0
548.6219,548.7534,91,67,0
548.7534,548.885,79,60,0
548.885,549.0166,82,58,0
548.885,549.0166,87,58,0
548.885,549.0166,91,70,0
549.0166,549.1482,91,62,0
549.1482,549.4113,94,62,0
549.1482,549.4113,99,78,0
549.1482,549.4113,103,81,0
549.5429,549.67944,67,76,0
549.5429,549.67944,55,76,0
550.0608,550.1879,53,62,0
549.67944,550.1879,56,73,0
549.67944,550.1879,68,82,0
550.1879,550.31244,65,62,0
550.1879,550.31244,62,53,0
550.1879,550.31244,58,53,0
550.31244,550.4369,65,57,0
550.4369,550.56134,70,53,0
550.4369,550.56134,74,53,0
550.4369,550.56134,77,62,0
550.56134,550.68585,77,56,0
550.68585,550.8174,82,57,0
550.68585,550.8174,86,67,0
550.68585,550.8174,89,67,0
550.8174,550.949,77,60,0
550.949,551.08057,82,58,0
550.949,551.08057,86,58,0
550.949,551.08057,89,70,0
551.08057,551.21216,89,62,0
551.21216,551.4753,94,62,0
551.21216,551.4753,98,74,0
551.21216,551.4753,101,81,0
552.12476,552.2519,55,62,0
552.2519,552.37585,67,62,0
551.7434,552.37585,58,73,0
552.2519,552.37585,58,53,0
552.2519,552.37585,63,53,0
551.7434,552.49774,70,82,0
552.37585,552.4998,67,57,0
552.4998,552.6238,70,53,0
552.4998,552.6238,75,53,0
552.4998,552.6238,79,62,0
552.6238,552.74774,79,56,0
552.74774,552.8793,82,57,0
552.74774,552.8793,87,67,0
552.74774,552.8793,91,67,0
552.8793,553.01086,79,60,0
553.01086,553.14246,82,58,0
553.01086,553.14246,87,58,0
553.01086,553.14246,91,70,0
553.14246,553.2813,91,62,0
553.2813,553.55176,94,62,0
553.2813,553.55176,99,78,0
553.2813,553.55176,103,81,0
553.68335,553.8199,58,76,0
553.68335,553.8199,46,76,0
553.8199,554.06885,51,75,0
554.20123,554.32837,55,62,0
553.8199,554.32837,63,82,0
554.32837,554.4555,67,62,0
554.32837,554.4555,63,53,0
554.32837,554.4555,58,53,0
554.4555,554.57996,67,57,0
554.57996,554.7044,70,53,0
554.57996,554.7044,75,53,0
554.57996,554.7044,79,62,0
554.7044,554.8289,79,56,0
554.8289,554.96045,82,57,0
554.8289,554.96045,87,67,0
554.8289,554.96045,91,67,0
554.96045,555.09204,79,60,0
555.09204,555.22363,82,58,0
555.09204,555.22363,87,58,0
555.09204,555.22363,91,70,0
555.22363,555.3552,91,62,0
555.3552,555.61835,94,62,0
555.3552,555.61835,99,78,0
555.3552,555.61835,103,81,0
556.2678,556.39496,55,62,0
556.39496,556.5189,67,62,0
555.8865,556.5189,58,73,0
556.39496,556.5189,58,53,0
556.39496,556.5189,63,53,0
555.8865,556.6408,70,82,0
556.5189,556.6429,67,57,0
556.6429,556.76685,70,53,0
556.6429,556.76685,75,53,0
556.6429,556.76685,79,62,0
556.76685,556.8908,79,56,0
556.8908,557.02234,82,57,0
556.8908,557.02234,87,67,0
556.8908,557.02234,91,67,0
557.02234,557.15393,79,60,0
557.15393,557.2855,82,58,0
557.15393,557.2855,87,58,0
557.15393,557.2855,91,70,0
557.2855,557.4171,91,62,0
557.4171,557.68024,94,62,0
557.4171,557.68024,99,78,0
557.4171,557.68024,103,81,0
557.8118,557.94836,67,76,0
557.8118,557.94836,55,76,0
558.3298,558.45685,53,62,0
557.94836,558.45685,56,73,0
557.94836,558.45685,68,82,0
558.45685,558.584,65,62,0
558.45685,558.584,62,53,0
558.45685,558.584,58,53,0
558.584,558.70795,65,57,0
558.70795,558.8319,70,53,0
558.70795,558.8319,74,53,0
558.70795,558.8319,77,62,0
558.8319,558.9559,77,56,0
558.9559,559.0874,82,57,0
558.9559,559.0874,86,67,0
558.9559,559.0874,89,67,0
559.0874,559.219,77,60,0
559.219,559.3506,82,58,0
559.219,559.3506,86,58,0
559.219,559.3506,89,70,0
559.3506,559.4822,89,62,0
559.4822,559.7453,94,62,0
559.4822,559.7453,98,74,0
559.4822,559.7453,101,81,0
560.0134,560.2624,51,73,0
560.3948,560.5219,55,62,0
560.0134,560.5219,63,82,0
560.5219,560.64905,63,62,0
560.5219,560.64905,58,53,0
560.64905,560.773,67,57,0
560.773,560.897,70,53,0
560.773,560.897,75,62,0
560.897,561.02094,79,56,0
561.02094,561.15247,82,58,0
561.02094,561.15247,87,70,0
561.15247,561.28406,79,60,0
561.28406,561.41565,82,64,0
561.28406,561.41565,87,76,0
561.41565,561.54724,91,62,0
561.54724,561.79517,94,69,0
561.54724,561.79517,99,86,0
562.1603,562.27747,75,60,0
562.27747,562.39465,80,52,0
562.27747,562.39465,87,62,0
562.39465,562.51184,87,64,0
562.51184,562.62463,92,55,0
562.51184,562.62463,99,65,0
562.62463,562.7374,87,60,0
562.7374,562.8502,92,54,0
562.7374,562.8502,99,64,0
562.8502,562.96295,87,60,0
563.0792,563.19556,70,60,0
563.19556,563.3118,75,53,0
563.19556,563.3118,82,63,0
563.3118,563.4281,82,60,0
563.4281,563.5491,87,54,0
563.4281,563.5491,94,64,0
563.5491,563.67004,82,60,0
563.67004,563.791,87,54,0
563.67004,563.791,94,64,0
563.791,563.912,82,60,0
564.02826,564.14453,70,60,0
564.14453,564.2608,74,53,0
564.14453,564.2608,82,63,0
564.2608,564.3771,82,60,0
564.3771,564.48987,86,54,0
564.3771,564.48987,94,64,0
564.48987,564.60223,82,60,0
564.60223,564.71454,86,54,0
564.60223,564.71454,94,64,0
564.71454,564.8269,82,60,0
564.945,565.0631,70,60,0
565.0631,565.1813,75,53,0
565.0631,565.1813,82,63,0
565.1813,565.2994,82,60,0
565.2994,565.4175,87,54,0
565.2994,565.4175,94,64,0
565.4175,565.5356,82,60,0
565.5356,565.6537,87,54,0
565.5356,565.6537,94,64,0
565.6537,565.7718,82,60,0
565.8885,566.00525,75,60,0
566.00525,566.12195,80,52,0
566.00525,566.12195,87,62,0
566.12195,566.2387,87,64,0
566.2387,566.35144,92,55,0
566.2387,566.35144,99,65,0
566.35144,566.4634,87,60,0
566.4634,566.5753,92,54,0
566.4634,566.5753,99,64,0
566.5753,566.68726,87,60,0
566.80536,566.92346,70,60,0
566.92346,567.04156,75,53,0
566.92346,567.04156,82,63,0
567.04156,567.15967,82,60,0
567.15967,567.28064,87,54,0
567.15967,567.28064,94,64,0
567.28064,567.4016,82,60,0
567.4016,567.5226,87,54,0
567.4016,567.5226,94,64,0
567.5226,567.64355,82,60,0
567.7598,567.87476,70,60,0
567.87476,567.9897,74,53,0
567.87476,567.9897,82,63,0
567.9897,568.1047,82,60,0
568.1047,568.217,86,54,0
568.1047,568.217,94,64,0
568.217,568.32935,82,60,0
568.32935,568.4417,86,54,0
568.32935,568.4417,94,64,0
568.4417,568.5541,82,60,0
568.5541,568.6722,94,63,0
568.5541,568.6722,87,53,0
569.0265,569.1419,82,75,0
569.1419,569.25726,97,60,0
569.25726,569.3726,87,67,0
569.3726,569.48804,97,60,0
569.48804,569.6017,80,72,0
569.6017,569.7153,96,57,0
569.7153,569.8289,87,57,0
569.8289,569.94257,96,57,0
569.94257,570.05286,79,69,0
570.05286,570.16315,94,56,0
570.16315,570.27344,77,67,0
570.27344,570.38794,92,56,0
570.38794,570.5016,75,67,0
570.5016,570.6152,91,56,0
570.6152,570.7288,74,66,0
570.7288,570.84247,90,56,0
570.84247,570.95874,75,67,0
570.95874,571.075,91,56,0
571.075,571.1913,76,68,0
571.1913,571.3076,91,57,0
571.3076,571.42163,77,67,0
571.42163,571.5357,92,60,0
571.5357,571.6498,76,66,0
571.6498,571.76385,91,60,0
571.76385,571.87415,77,67,0
571.87415,571.98444,92,57,0
571.98444,572.0947,78,65,0
572.0947,572.2101,93,57,0
572.2101,572.3246,79,70,0
572.3246,572.4391,94,58,0
572.4391,572.5536,87,58,0
572.5536,572.66986,94,58,0
572.66986,572.788,82,75,0
572.788,572.9061,97,60,0
572.9061,573.02423,87,67,0
573.02423,573.14233,97,60,0
573.14233,573.25684,80,72,0
573.25684,573.37006,96,57,0
573.37006,573.4832,87,57,0
573.4832,573.59644,96,57,0
573.59644,573.7067,79,69,0
573.7067,573.8162,94,56,0
573.8162,573.92566,77,67,0
573.92566,574.03516,92,56,0
574.03516,574.1488,75,67,0
574.1488,574.26245,91,56,0
574.26245,574.3761,74,66,0
574.3761,574.4897,90,56,0
574.4897,574.606,75,67,0
574.606,574.7223,91,56,0
574.7223,574.83856,76,68,0
574.83856,574.95483,91,57,0
574.95483,575.0702,77,67,0
575.0702,575.18384,92,60,0
575.18384,575.2975,76,66,0
575.2975,575.4111,91,60,0
575.4111,575.52136,77,67,0
575.52136,575.63165,92,57,0
575.63165,575.742,78,65,0
575.742,575.8523,93,57,0
575.8523,575.9668,79,70,0
575.9668,576.0813,94,58,0
576.0813,576.1958,87,58,0
576.1958,576.3103,94,58,0
576.3103,576.4266,82,75,0
576.4266,576.54285,97,60,0
576.54285,576.6591,87,67,0
576.6591,576.7754,97,60,0
576.7754,576.8908,80,72,0
576.8908,577.00616,96,57,0
577.00616,577.1216,87,57,0
577.1216,577.23694,96,57,0
577.23694,577.348,79,69,0
577.348,577.45917,94,56,0
577.45917,577.57025,77,67,0
577.57025,577.6814,92,56,0
577.6814,577.79675,75,67,0
577.79675,577.9122,91,56,0
577.9122,578.0275,74,66,0
578.0275,578.14294,90,56,0
578.14294,578.254,75,67,0
578.254,578.3651,91,56,0
578.47626,578.58734,91,57,0
578.47626,578.58734,79,48,0
578.693,578.79865,92,61,0
578.693,578.79865,80,51,0
578.90894,579.0192,91,58,0
578.90894,579.0192,79,49,0
579.1249,579.23047,92,59,0
579.1249,579.23047,80,50,0
579.34076,579.44995,91,55,0
579.34076,579.44995,79,46,0
579.5548,579.6597,92,59,0
579.5548,579.6597,80,50,0
579.7692,579.8787,91,56,0
579.7692,579.8787,79,47,0
579.9836,580.0885,92,58,0
579.9836,580.0885,80,49,0
580.1956,580.3028,91,56,0
580.1956,580.3028,79,47,0
580.1956,580.3028,82,47,0
580.4053,580.508,92,59,0
580.4053,580.508,80,50,0
580.4053,580.508,83,50,0
580.6129,580.71783,91,54,0
580.6129,580.71783,79,45,0
580.6129,580.71783,82,45,0
580.8185,580.9191,92,60,0
580.8185,580.9191,80,51,0
580.8185,580.9191,83,60,0
581.0226,581.12604,91,57,0
581.0226,581.12604,79,48,0
581.0226,581.12604,82,48,0
581.2274,581.32947,92,63,0
581.2274,581.32947,80,53,0
581.2274,581.32947,83,63,0
581.4336,581.5378,91,60,0
581.4336,581.5378,79,51,0
581.4336,581.5378,82,51,0
581.6384,581.73914,92,63,0
581.6384,581.73914,80,54,0
581.6384,581.73914,83,54,0
581.8426,581.94604,91,62,0
581.8426,581.94604,79,52,0
581.8426,581.94604,88,52,0
582.0467,582.14703,92,65,0
582.0467,582.14703,80,55,0
582.0467,582.14703,89,65,0
582.2505,582.35345,91,63,0
582.2505,582.35345,79,53,0
582.2505,582.35345,88,53,0
582.4528,582.55145,92,66,0
582.4528,582.55145,80,56,0
582.4528,582.55145,89,56,0
582.65375,582.7538,91,64,0
582.65375,582.7538,79,54,0
582.65375,582.7538,88,54,0
582.85114,582.94885,92,68,0
582.85114,582.94885,80,57,0
582.85114,582.94885,89,68,0
583.05023,583.1516,91,65,0
583.05023,583.1516,79,55,0
583.05023,583.1516,88,55,0
583.24866,583.34735,92,68,0
583.24866,583.34735,80,58,0
583.24866,583.34735,89,58,0
583.44806,583.5487,91,66,0
583.44806,583.5487,79,56,0
583.44806,583.5487,88,56,0
583.64484,583.741,92,70,0
583.64484,583.741,80,59,0
583.64484,583.741,89,70,0
583.8406,583.938,91,67,0
583.8406,583.938,79,57,0
583.8406,583.938,88,57,0
584.0335,584.1293,92,72,0
584.0335,584.1293,80,61,0
584.0335,584.1293,89,61,0
584.22925,584.3293,91,71,0
584.22925,584.3293,79,60,0
584.22925,584.3293,88,60,0
584.42444,584.52057,92,76,0
584.42444,584.52057,80,64,0
584.42444,584.52057,89,76,0
584.61926,584.7174,91,74,0
584.61926,584.7174,79,62,0
584.61926,584.7174,88,62,0
584.82227,584.92993,92,78,0
584.82227,584.92993,80,66,0
584.82227,584.92993,89,66,0
585.0472,585.17554,91,77,0
585.0472,585.17554,79,65,0
585.0472,585.17554,87,65,0
585.17554,585.49023,92,91,0
585.17554,585.49023,86,77,0
585.17554,585.49023,80,77,0
585.49023,585.54266,94,78,0
585.54266,585.59515,92,78,0
585.59515,585.7023,91,88,0
585.59515,585.7023,79,74,0
585.80945,585.9222,89,82,0
585.80945,585.9222,77,69,0
586.035,586.1429,94,90,0
586.035,586.1429,82,75,0
586.2508,586.3587,86,81,0
586.2508,586.3587,74,68,0
586.4666,586.8983,87,88,0
586.4666,586.8983,75,74,0
586.8983,587.21295,92,91,0
586.8983,587.21295,86,77,0
586.8983,587.21295,80,77,0
587.21295,587.26544,94,78,0
587.26544,587.3179,92,78,0
587.3179,587.42505,91,88,0
587.3179,587.42505,79,74,0
587.53217,587.64496,89,82,0
587.53217,587.64496,77,69,0
587.75775,587.86566,94,90,0
587.75775,587.86566,82,75,0
587.9736,588.0815,86,81,0
587.9736,588.0815,74,68,0
588.1894,588.6552,87,88,0
588.1894,588.6552,75,74,0
588.89716,589.02875,65,72,0
588.89716,589.02875,53,61,0
588.89716,589.02875,57,61,0
588.89716,589.02875,63,72,0
589.1603,589.2864,65,75,0
589.1603,589.2864,58,63,0
589.1603,589.2864,53,63,0
589.1603,589.2864,62,75,0
589.8645,590.0743,77,64,0
589.8645,590.0743,86,77,0
589.8645,590.0743,82,77,0
589.8645,590.0743,74,64,0
590.277,590.3898,86,64,0
590.277,590.3898,98,77,0
590.277,590.3898,94,77,0
590.277,590.3898,89,64,0
590.70807,590.8129,82,64,0
590.70807,590.8129,91,77,0
590.70807,590.8129,87,77,0
590.70807,590.8129,79,64,0
591.1276,591.3374,91,64,0
591.1276,591.3374,103,77,0
591.1276,591.3374,99,77,0
591.1276,591.3374,94,64,0
591.53876,591.7471,65,64,0
591.53876,591.7471,74,77,0
591.53876,591.7471,70,77,0
591.53876,591.7471,62,64,0
591.9526,592.06537,74,64,0
591.9526,592.06537,86,77,0
591.9526,592.06537,82,77,0
591.9526,592.06537,77,64,0
592.385,592.4899,70,64,0
592.385,592.4899,79,77,0
592.385,592.4899,75,77,0
592.385,592.4899,67,64,0
592.8046,593.05255,79,64,0
592.8046,593.05255,91,77,0
592.8046,593.05255,87,77,0
592.8046,593.05255,82,64,0
593.29645,593.42804,65,72,0
593.29645,593.42804,53,61,0
593.29645,593.42804,57,61,0
593.29645,593.42804,63,72,0
593.5596,593.68567,65,75,0
593.5596,593.68567,53,63,0
593.5596,593.68567,62,75,0
593.5638,593.6899,58,63,0
594.0638,594.4986,82,77,0
594.0638,594.4986,85,77,0
594.0638,594.4986,77,77,0
594.0665,594.5013,89,91,0
594.4986,594.6057,88,88,0
594.4986,594.6057,76,74,0
594.7129,594.8256,89,82,0
594.7129,594.8256,77,69,0
594.9384,595.3764,82,77,0
594.9384,595.3764,79,77,0
594.9384,595.3764,91,91,0
595.3764,595.85284,89,88,0
595.3764,595.85284,77,74,0
595.3764,595.85284,82,74,0
596.09094,596.22253,65,72,0
596.09094,596.22253,53,61,0
596.09094,596.22253,57,61,0
596.09094,596.22253,63,72,0
596.3541,596.4823,65,75,0
596.3541,596.4823,53,63,0
596.3541,596.4823,62,75,0
596.3584,596.4866,58,63,0
596.86694,597.0196,91,81,0
596.86694,597.0196,79,68,0
596.86694,597.0196,82,68,0
597.0196,597.1688,89,68,0
597.0196,597.1688,77,57,0
597.1688,597.3181,88,68,0
597.1688,597.3181,76,57,0
597.3181,597.46094,87,75,0
597.3181,597.46094,75,63,0
597.46094,597.6093,86,70,0
597.46094,597.6093,74,59,0
597.6093,597.7632,85,70,0
597.6093,597.7632,73,59,0
597.7632,597.8759,84,84,0
597.7632,597.8759,72,71,0
597.9887,598.1015,96,77,0
597.9887,598.1015,84,64,0
598.2143,598.3271,84,83,0
598.2143,598.3271,72,70,0
598.4398,598.5526,96,77,0
598.4398,598.5526,84,64,0
598.90735,599.0334,65,72,0
598.90735,599.0334,53,61,0
598.90735,599.0334,57,61,0
598.90735,599.0334,63,72,0
599.1594,599.2855,65,75,0
599.1594,599.2855,53,63,0
599.1594,599.2855,62,75,0
599.16364,599.2897,58,63,0
599.88104,599.98975,70,69,0
599.88104,599.98975,73,69,0
599.88104,599.98975,82,82,0
600.31274,600.4255,82,68,0
600.31274,600.4255,85,68,0
600.31274,600.4255,94,81,0
600.75726,600.86676,70,69,0
600.75726,600.86676,75,69,0
600.75726,600.86676,82,82,0
601.1985,601.3185,82,68,0
601.1985,601.3185,85,68,0
601.1985,601.3185,94,81,0
601.6885,601.8189,65,72,0
601.6885,601.8189,53,61,0
601.6885,601.8189,57,61,0
601.6885,601.8189,63,72,0
601.94934,602.0798,65,75,0
601.94934,602.0798,53,63,0
601.94934,602.0798,62,75,0
601.9537,602.0841,58,63,0
602.70197,602.8139,82,82,0
602.70197,602.8139,73,69,0
602.70197,602.8139,70,69,0
602.70197,602.8139,77,69,0
603.14014,603.2555,94,81,0
603.14014,603.2555,82,68,0
603.14014,603.2555,89,68,0
603.14014,603.2555,85,68,0
603.58984,603.69934,72,69,0
603.58984,603.69934,79,69,0
603.58984,603.69934,84,82,0
603.58984,603.69934,76,69,0
604.03107,604.1582,89,68,0
604.03107,604.1582,96,68,0
604.03107,604.1582,101,81,0
604.03107,604.1582,93,68,0
604.5353,604.6669,65,72,0
604.5353,604.6669,53,61,0
604.5353,604.6669,57,61,0
604.5353,604.6669,63,72,0
604.79846,604.91943,65,75,0
604.79846,604.91943,53,63,0
604.79846,604.91943,62,75,0
604.8025,604.92346,58,63,0
605.47723,605.54584,74,52,0
605.54584,605.6129,77,54,0
605.6129,605.67896,82,55,0
605.67896,605.7499,86,57,0
605.7499,605.8208,89,59,0
605.8208,605.8905,94,60,0
605.8905,606.0008,98,62,0
606.3178,606.39075,79,53,0
606.39075,606.4636,82,55,0
606.4636,606.5332,87,57,0
606.5332,606.6041,91,59,0
606.6041,606.67505,94,61,0
606.67505,606.746,99,64,0
606.746,606.8849,103,66,0
607.21234,607.2803,70,52,0
607.2803,607.34705,73,54,0
607.34705,607.41327,78,56,0
607.41327,607.4842,82,58,0
607.4842,607.5551,85,60,0
607.5551,607.6248,90,61,0
607.6248,607.7351,94,63,0
608.0521,608.1231,71,54,0
608.1231,608.1972,75,55,0
608.1972,608.26843,78,57,0
608.26843,608.3371,83,58,0
608.3371,608.40485,87,60,0
608.40485,608.4721,90,61,0
608.4721,608.6123,95,63,0
608.94055,609.0095,66,54,0
609.0095,609.07697,69,56,0
609.07697,609.14307,74,57,0
609.14307,609.2125,78,58,0
609.2125,609.282,81,59,0
609.282,609.35077,86,60,0
609.35077,609.46106,90,62,0
609.7781,609.849,67,54,0
609.849,609.9231,71,55,0
609.9231,609.9944,74,57,0
609.9944,610.063,79,58,0
610.063,610.1308,83,59,0
610.1308,610.198,86,60,0
610.198,610.3152,91,62,0
610.5393,610.6463,71,54,0
610.5393,610.6463,59,45,0
610.75244,610.85754,65,46,0
610.75244,610.85754,77,55,0
610.96063,611.0625,60,47,0
610.96063,611.0625,72,56,0
611.1631,611.26227,66,47,0
611.1631,611.26227,78,56,0
611.3636,611.46497,63,51,0
611.3636,611.46497,75,60,0
611.5663,611.66766,70,51,0
611.5663,611.66766,82,60,0
611.769,611.87036,67,51,0
611.769,611.87036,79,61,0
611.9743,612.08685,75,51,0
611.9743,612.08685,87,61,0
612.18616,612.2855,70,52,0
612.18616,612.2855,82,62,0
612.3848,612.4842,77,52,0
612.3848,612.4842,89,62,0
612.58356,612.68286,74,53,0
612.58356,612.68286,86,63,0
612.78314,612.8985,82,53,0
612.78314,612.8985,94,63,0
613.11096,613.17957,74,52,0
613.17957,613.24664,77,54,0
613.24664,613.3126,82,55,0
613.3126,613.38354,86,57,0
613.38354,613.45447,89,59,0
613.45447,613.52423,94,60,0
613.52423,613.6345,98,62,0
613.95154,614.0245,79,53,0
614.0245,614.09735,82,55,0
614.09735,614.16693,87,57,0
614.16693,614.23785,91,59,0
614.23785,614.3088,94,61,0
614.3088,614.3797,99,64,0
614.3797,614.5186,103,66,0
614.84607,614.914,70,52,0
614.914,614.9807,73,54,0
614.9807,615.04694,78,56,0
615.04694,615.11786,82,58,0
615.11786,615.1888,85,60,0
615.1888,615.25854,90,61,0
615.25854,615.36884,94,63,0
615.68585,615.75684,71,54,0
615.75684,615.83093,75,55,0
615.83093,615.90216,78,57,0
615.90216,615.97076,83,58,0
615.97076,616.0386,87,60,0
616.0386,616.10583,90,61,0
616.10583,616.246,95,63,0
616.5743,616.6432,66,54,0
616.6432,616.7107,68,56,0
616.7107,616.7768,74,57,0
616.7768,616.84625,78,58,0
616.84625,616.91565,80,59,0
616.91565,616.98444,86,60,0
616.98444,617.0947,90,62,0
617.4118,617.4827,67,54,0
617.4827,617.5568,71,55,0
617.5568,617.62805,74,57,0
617.62805,617.6967,79,58,0
617.6967,617.76447,83,59,0
617.76447,617.8317,86,60,0
617.8317,617.9489,91,62,0
618.17303,618.28,71,54,0
618.17303,618.28,59,45,0
618.3861,618.4897,65,46,0
618.3861,618.4897,77,55,0
618.59174,618.6924,60,47,0
618.59174,618.6924,72,56,0
618.7919,618.89,66,47,0
618.7919,618.89,78,56,0
618.99133,619.0927,63,48,0
618.99133,619.0927,75,57,0
619.19403,619.2954,70,48,0
619.19403,619.2954,82,57,0
619.3967,619.4981,67,48,0
619.3967,619.4981,79,57,0
619.602,619.7146,75,49,0
619.602,619.7146,87,58,0
619.81323,619.9119,70,50,0
619.81323,619.9119,82,59,0
620.0106,620.1093,79,50,0
620.0106,620.1093,91,59,0
620.20795,620.30664,75,55,0
620.20795,620.30664,87,55,0
620.4063,620.52167,82,55,0
620.4063,620.52167,94,55,0
620.62103,620.72034,80,50,0
620.62103,620.72034,92,50,0
620.8197,620.919,77,50,0
620.8197,620.919,89,50,0
621.0183,621.1177,74,50,0
621.0183,621.1177,86,50,0
621.217,621.3249,70,50,0
621.217,621.3249,82,50,0
621.42426,621.52356,68,50,0
621.42426,621.52356,80,50,0
621.6229,621.7223,65,50,0
621.6229,621.7223,77,50,0
621.8216,621.92096,62,51,0
621.8216,621.92096,74,51,0
622.02026,622.13654,77,53,0
622.02026,622.13654,65,53,0
622.2366,622.33655,68,56,0
622.2366,622.33655,80,56,0
622.4366,622.53656,70,58,0
622.4366,622.53656,82,58,0
622.63654,622.7366,74,61,0
622.63654,622.7366,86,61,0
622.83655,622.9366,89,64,0
622.83655,622.9366,77,64,0
623.0352,623.1339,80,67,0
623.0352,623.1339,92,67,0
623.2326,623.3314,82,70,0
623.2326,623.3314,94,70,0
623.4315,623.5335,84,73,0
623.4315,623.5335,96,73,0
623.63727,623.7428,98,75,0
623.63727,623.7428,86,75,0
623.8428,623.94275,87,70,0
623.8428,623.94275,99,82,0
624.0428,624.14276,89,62,0
624.0428,624.14276,101,73,0
624.0428,624.14276,98,73,0
624.0428,624.14276,94,62,0
624.2428,624.3421,91,66,0
624.2428,624.3421,103,77,0
624.2428,624.3421,99,77,0
624.2428,624.3421,94,66,0
624.4414,624.54706,89,66,0
624.4414,624.54706,101,77,0
624.4414,624.54706,98,77,0
624.4414,624.54706,94,66,0
624.6471,624.7471,91,66,0
624.6471,624.7471,103,77,0
624.6471,624.7471,99,77,0
624.6471,624.7471,94,66,0
624.84705,624.94574,89,66,0
624.84705,624.94574,101,77,0
624.84705,624.94574,98,77,0
624.84705,624.94574,94,66,0
625.04407,625.14246,94,66,0
625.04407,625.14246,103,77,0
625.04407,625.14246,99,77,0
625.04407,625.14246,91,66,0
625.2408,625.34796,89,66,0
625.2408,625.34796,101,77,0
625.2408,625.34796,98,77,0
625.2408,625.34796,94,66,0
625.44696,625.54596,91,66,0
625.44696,625.54596,103,77,0
625.44696,625.54596,99,77,0
625.44696,625.54596,94,66,0
625.64496,625.74396,89,66,0
625.64496,625.74396,101,77,0
625.64496,625.74396,98,77,0
625.64496,625.74396,94,66,0
625.84296,625.94196,94,66,0
625.84296,625.94196,103,77,0
625.84296,625.94196,99,77,0
625.84296,625.94196,91,66,0
626.04095,626.15045,89,66,0
626.04095,626.15045,101,77,0
626.04095,626.15045,98,77,0
626.04095,626.15045,94,66,0
626.2505,626.35046,91,66,0
626.2505,626.35046,103,77,0
626.2505,626.35046,99,77,0
626.2505,626.35046,94,66,0
626.45044,626.5505,89,66,0
626.45044,626.5505,101,77,0
626.45044,626.5505,98,77,0
626.45044,626.5505,94,66,0
626.65125,626.7538,94,66,0
626.65125,626.7538,103,77,0
626.65125,626.7538,99,77,0
626.65125,626.7538,91,66,0
626.8583,626.96466,89,66,0
626.8583,626.96466,101,77,0
626.8583,626.96466,98,77,0
626.8583,626.96466,94,66,0
626.96466,627.17896,103,93,0
626.96466,627.17896,91,77,0
626.96466,627.17896,94,77,0
626.96466,627.17896,99,77,0
627.28613,627.3899,79,80,0
627.28613,627.3899,70,68,0
627.28613,627.3899,67,68,0
627.28613,627.3899,75,68,0
627.3899,627.4971,79,89,0
627.3899,627.4971,67,75,0
627.3899,627.4971,70,75,0
627.3899,627.4971,75,75,0
627.7113,627.8184,63,82,0
627.7113,627.8184,58,70,0
627.7113,627.8184,55,70,0
627.8184,627.9256,63,91,0
627.8184,627.9256,58,76,0
627.8184,627.9256,55,76,0
628.13727,628.24176,82,80,0
628.13727,628.24176,75,68,0
628.13727,628.24176,70,68,0
628.24176,628.3485,82,89,0
628.24176,628.3485,75,75,0
628.24176,628.3485,70,75,0
628.562,628.66876,63,82,0
628.562,628.66876,58,70,0
628.562,628.66876,55,70,0
628.66876,628.7755,63,91,0
628.66876,628.7755,58,76,0
628.66876,628.7755,55,76,0
629.5228,629.6311,87,99,0
629.5228,629.6311,79,84,0
629.5228,629.6311,75,84,0
630.38916,630.4975,99,99,0
630.38916,630.4975,91,84,0
630.38916,630.4975,87,84,0
1.4522783,1.585316,34,61,0
1.585316,2.5165803,27,59,0
1.585316,2.5165803,39,70,0
2.5165803,2.649618,31,51,0
2.5165803,2.649618,43,61,0
2.649618,2.7844496,32,56,0
2.649618,2.7844496,44,66,0
3.188944,3.3271146,33,55,0
3.188944,3.3271146,45,64,0
3.751643,4.7871256,34,59,0
3.751643,4.7871256,46,70,0
4.7871256,4.916715,55,56,0
4.7871256,4.916715,67,67,0
4.7871256,4.916715,63,56,0
4.7871256,4.916715,58,56,0
5.694254,5.823437,34,61,0
5.823437,6.7485466,27,59,0
5.823437,6.7485466,39,70,0
6.7485466,6.882499,31,50,0
6.7485466,6.882499,43,61,0
6.882499,7.0182457,34,56,0
6.882499,7.0182457,46,67,0
7.425485,7.564053,36,55,0
7.425485,7.564053,48,66,0
7.979758,9.016476,37,59,0
7.979758,9.016476,49,70,0
9.016476,9.146066,58,56,0
9.016476,9.146066,70,67,0
9.016476,9.146066,67,56,0
9.016476,9.146066,63,56,0
9.923604,10.051536,36,61,0
9.923604,10.051536,24,49,0
10.051536,10.968893,27,59,0
10.051536,10.968893,39,70,0
10.968893,11.101058,32,44,0
10.968893,11.101058,44,52,0
11.101058,11.453816,36,47,0
11.101058,11.453816,48,56,0
11.453816,11.8306675,37,49,0
11.453816,11.8306675,49,59,0
11.8306675,12.23369,38,53,0
11.8306675,12.23369,50,63,0
12.23369,13.27551,39,59,0
12.23369,13.27551,51,70,0
13.27551,13.405945,60,56,0
13.27551,13.405945,72,67,0
13.27551,13.405945,68,56,0
13.27551,13.405945,63,56,0
14.188553,14.317314,36,61,0
14.188553,14.317314,24,49,0
14.317314,15.212836,27,59,0
14.317314,15.212836,39,70,0
15.212836,15.340768,32,56,0
15.212836,15.340768,44,56,0
15.340768,15.599413,36,45,0
15.340768,15.599413,48,53,0
15.599413,15.870341,39,49,0
15.599413,15.870341,51,58,0
15.870341,16.164625,40,52,0
15.870341,16.164625,52,62,0
16.164625,16.464626,41,57,0
16.164625,16.464626,53,68,0
16.464626,17.514954,42,59,0
16.464626,17.514954,54,70,0
17.514954,17.667238,63,56,0
17.514954,17.667238,75,67,0
17.514954,17.667238,72,56,0
17.514954,17.667238,66,56,0
19.048239,19.14274,60,28,0
19.048239,19.14274,54,28,0
19.361124,19.455664,62,29,0
19.361124,19.455664,56,29,0
19.667437,19.754772,63,33,0
19.667437,19.754772,57,33,0
19.950752,20.031612,65,30,0
19.950752,20.031612,59,30,0
20.214008,20.289919,66,30,0
20.214008,20.289919,60,30,0
20.465195,20.540194,68,34,0
20.465195,20.540194,62,34,0
20.710886,20.78262,69,29,0
20.710886,20.78262,63,29,0
20.94694,21.016039,71,30,0
20.94694,21.016039,65,30,0
21.174496,21.241163,72,35,0
21.174496,21.241163,66,35,0
21.394398,21.460241,74,33,0
21.394398,21.460241,68,33,0
21.612389,21.677166,75,33,0
21.612389,21.677166,69,33,0
21.826872,21.89062,77,38,0
21.826872,21.89062,71,38,0
22.03716,22.098541,78,38,0
22.03716,22.098541,72,38,0
22.241394,22.302309,80,39,0
22.241394,22.302309,74,39,0
22.443989,22.503387,81,39,0
22.443989,22.503387,75,39,0
22.638914,22.696537,83,40,0
22.638914,22.696537,77,40,0
22.8294,22.885849,84,41,0
22.8294,22.885849,78,41,0
23.01642,23.071976,86,42,0
23.01642,23.071976,80,42,0
23.200092,23.254578,87,43,0
23.200092,23.254578,81,43,0
23.380281,23.433853,88,47,0
23.380281,23.433853,82,47,0
23.558102,23.597818,89,48,0
23.558102,23.597818,83,48,0
23.689922,23.72911,90,49,0
23.689922,23.72911,84,49,0
23.820293,23.859087,91,51,0
23.820293,23.859087,85,51,0
23.949308,23.98777,92,52,0
23.949308,23.98777,86,52,0
24.07683,24.114645,87,57,0
24.07683,24.114645,93,57,0
26.835867,27.560944,66,33,0
27.560944,27.923481,65,38,0
27.923481,28.178787,63,38,0
28.234756,28.687607,65,31,0
28.178787,28.687607,62,26,0
31.234404,31.95948,61,36,0
31.95948,32.322018,60,38,0
32.322018,32.577324,58,38,0
32.577324,33.086143,57,26,0
33.46232,33.838493,56,30,0
32.633293,34.21467,60,31,0
35.6729,37.136272,44,30,0
35.6729,37.136272,59,36,0
37.136272,38.623604,46,26,0
37.136272,38.623604,55,31,0
38.623604,40.142105,46,26,0
38.623604,40.142105,54,31,0
40.142105,40.894455,47,31,0
40.894455,41.646805,46,31,0
40.142105,41.646805,34,26,0
45.877464,46.066498,39,35,0
46.57786,46.653427,63,35,0
46.535248,46.653427,55,34,0
46.492634,46.653427,46,33,0
47.78693,47.851727,63,36,0
47.749146,47.851727,55,34,0
47.711365,47.851727,46,33,0
48.30529,48.457546,39,35,0
48.982327,49.057896,63,36,0
48.938595,49.057896,55,34,0
48.894863,49.057896,46,33,0
50.191395,50.261166,63,38,0
50.153614,50.261166,55,37,0
50.11583,50.261166,46,35,0
50.74615,50.90964,39,38,0
51.400105,51.464897,63,39,0
51.35923,51.464897,55,38,0
51.31836,51.464897,46,37,0
52.496777,52.56753,63,39,0
52.460632,52.56753,55,38,0
52.424488,52.56753,46,37,0
53.069923,53.228233,39,38,0
53.703167,53.76593,63,40,0
53.66359,53.76593,55,38,0
53.624012,53.76593,46,36,0
54.80526,54.875027,63,41,0
54.76776,54.875027,55,39,0
54.73026,54.875027,46,38,0
55.3634,55.515686,39,38,0
55.972538,56.03452,62,40,0
55.858322,56.03452,46,35,0
55.896397,56.03452,53,37,0
55.934467,56.03452,56,39,0
57.04257,57.115383,62,40,0
56.9708,57.115383,53,38,0
56.9708,57.115383,46,38,0
57.006683,57.115383,56,39,0
57.62509,57.788578,39,38,0
58.27904,58.348328,63,42,0
58.23817,58.348328,55,41,0
58.1973,58.348328,46,39,0
59.45669,59.527447,63,40,0
59.417732,59.527447,55,39,0
59.378773,59.527447,46,37,0
60.029842,60.19333,39,38,0
60.683792,60.748585,63,41,0
60.642918,60.748585,55,39,0
60.602047,60.748585,46,38,0
61.780464,61.85122,63,41,0
61.74432,61.85122,55,40,0
61.708176,61.85122,46,38,0
62.35361,62.51192,39,38,0
62.986855,63.049618,63,41,0
62.947277,63.049618,55,39,0
62.9077,63.049618,46,38,0
64.08895,64.158714,63,42,0
64.051445,64.158714,55,40,0
64.01395,64.158714,46,38,0
64.64709,64.79937,39,38,0
65.256226,65.31821,62,41,0
65.14201,65.31821,46,37,0
65.180084,65.31821,53,38,0
65.218155,65.31821,56,39,0
66.326256,66.39907,56,39,0
66.29037,66.39907,53,38,0
66.254486,66.39907,46,36,0
66.90878,67.072266,39,38,0
67.56273,67.63201,63,41,0
67.52186,67.63201,55,38,0
67.48099,67.63201,46,35,0
68.74038,68.811134,63,39,0
68.701416,68.811134,55,37,0
68.66246,68.811134,46,34,0
69.31353,69.46579,39,38,0
69.99057,70.06613,63,42,0
69.94684,70.06613,55,39,0
69.90311,70.06613,46,36,0
71.19964,71.2694,63,41,0
71.16185,71.2694,55,38,0
71.12407,71.2694,46,36,0
71.754395,71.907845,39,48,0
72.3682,72.43057,63,48,0
72.32984,72.43057,55,46,0
72.29147,72.43057,46,42,0
73.4253,73.49975,63,44,0
73.39042,73.49975,55,41,0
73.35554,73.49975,46,39,0
74.020836,74.15845,39,38,0
74.5713,74.634056,63,46,0
74.53689,74.634056,55,42,0
74.50249,74.634056,46,39,0
75.66019,75.72806,63,38,0
75.62351,75.72806,55,37,0
75.58684,75.72806,46,35,0
76.20317,76.33446,39,35,0
76.72833,76.79031,62,36,0
76.62987,76.79031,46,31,0
76.66269,76.79031,53,33,0
76.69551,76.79031,56,34,0
77.75992,77.82872,62,36,0
77.692955,77.82872,46,32,0
77.692955,77.82872,53,32,0
77.72643,77.82872,56,34,0
78.33071,78.4942,39,35,0
78.984665,79.05395,63,39,0
78.943794,79.05395,55,37,0
78.902916,79.05395,46,35,0
80.162315,80.23307,63,41,0
80.12335,80.23307,55,39,0
80.08439,80.23307,46,37,0
80.73546,80.888916,39,53,0
81.34927,81.41243,63,48,0
81.310905,81.41243,55,45,0
81.272545,81.41243,46,42,0
82.412674,82.482445,63,47,0
82.37779,82.482445,55,46,0
82.3429,82.482445,46,44,0
82.98483,83.11967,39,48,0
83.52416,83.58692,63,40,0
83.490456,83.58692,55,38,0
83.45674,83.58692,46,36,0
84.62625,84.69506,63,38,0
84.58875,84.69506,55,37,0
84.551254,84.69506,46,35,0
85.17671,85.309746,39,35,0
85.70886,85.77084,62,36,0
85.609085,85.77084,46,31,0
85.64234,85.77084,53,33,0
85.675606,85.77084,56,34,0
86.74045,86.808784,62,36,0
86.67348,86.808784,46,32,0
86.67348,86.808784,53,32,0
86.70696,86.808784,56,34,0
87.35214,87.51563,39,35,0
88.006096,88.07397,63,39,0
87.965225,88.07397,55,37,0
87.924355,88.07397,46,35,0
89.09207,89.15405,63,39,0
89.05813,89.15405,55,37,0
89.02419,89.15405,46,35,0
89.58794,89.72277,39,36,0
90.11955,90.18434,63,40,0
90.08777,90.18434,56,38,0
90.05599,90.18434,48,36,0
91.16307,91.23095,63,39,0
91.13025,91.23095,58,37,0
91.09743,91.23095,51,35,0
91.71594,91.84898,39,36,0
92.24809,92.31247,62,40,0
92.148315,92.31247,46,36,0
92.18157,92.31247,53,38,0
92.214836,92.31247,56,38,0
93.34101,93.403,63,39,0
93.305885,93.403,55,37,0
93.27076,93.403,51,35,0
93.83688,93.97171,39,36,0
94.36849,94.43086,63,40,0
94.336716,94.43086,56,38,0
94.30494,94.43086,48,36,0
95.39262,95.460495,63,39,0
95.359795,95.460495,58,37,0
95.32697,95.460495,51,35,0
95.94549,96.07853,39,36,0
96.47764,96.542015,62,40,0
96.37786,96.542015,46,36,0
96.411125,96.542015,53,38,0
96.44438,96.542015,56,38,0
97.570564,97.63798,63,39,0
97.53543,97.63798,55,37,0
97.500305,97.63798,51,35,0
98.109886,98.24472,39,36,0
98.6415,98.70387,63,40,0
98.60972,98.70387,56,38,0
98.57794,98.70387,48,36,0
99.66563,99.7335,63,39,0
99.632805,99.7335,58,37,0
99.599976,99.7335,51,35,0
100.2185,100.35153,39,36,0
100.75065,100.815025,62,40,0
100.65086,100.815025,46,36,0
100.68413,100.815025,53,38,0
100.717384,100.815025,56,38,0
101.84357,101.91144,63,39,0
101.80843,101.91144,55,37,0
101.77331,101.91144,51,35,0
102.38655,102.521385,39,36,0
102.91817,102.98054,63,40,0
102.88638,102.98054,56,38,0
102.85461,102.98054,48,36,0
103.94229,104.01238,63,39,0
103.90947,104.01238,58,37,0
103.87664,104.01238,51,35,0
104.508484,104.65134,39,36,0
105.07991,105.148094,62,40,0
104.97277,105.148094,46,36,0
105.008484,105.148094,53,38,0
105.0442,105.148094,56,38,0
106.95816,107.036285,34,61,0
107.036285,107.81159,39,68,0
107.81159,107.90148,43,64,0
107.99137,108.08125,44,64,0
108.17114,108.26482,45,68,0
108.3585,108.45217,46,64,0
108.54585,108.63953,51,64,0
108.73321,108.82432,55,68,0
108.915436,109.00655,56,64,0
109.09767,109.131836,57,64,0
109.14323,109.18878,57,56,0
109.18878,109.234344,58,50,0
109.234344,109.28019,60,46,0
109.28019,109.336395,58,58,0
109.336395,109.392365,60,50,0
109.392365,109.448166,58,57,0
109.448166,109.50359,60,50,0
109.50359,109.558846,58,56,0
109.558846,109.61389,60,49,0
109.61389,109.6686,58,55,0
109.6686,109.72317,60,50,0
109.72317,109.777466,58,56,0
109.777466,109.831505,60,48,0
109.831505,109.881714,58,55,0
109.881714,109.93192,60,50,0
109.93192,109.98213,58,58,0
109.98213,110.03234,60,51,0
110.03234,110.08255,58,60,0
110.08255,110.14531,60,56,0
110.14531,110.20808,58,63,0
110.20808,110.270836,57,60,0
110.270836,110.333595,58,60,0
110.333595,110.47411,63,74,0
110.89566,110.96591,63,58,0
110.86053,110.96591,55,56,0
110.8254,110.96591,46,52,0
111.45772,111.59439,39,35,0
112.00442,112.0664,62,36,0
111.90191,112.0664,46,31,0
111.93608,112.0664,53,33,0
111.970245,112.0664,56,34,0
113.05238,113.121185,62,36,0
112.98541,113.121185,46,32,0
112.98541,113.121185,53,32,0
113.0189,113.121185,56,34,0
113.67401,113.837494,39,35,0
114.32796,114.39725,63,38,0
114.28709,114.39725,55,35,0
114.246216,114.39725,46,32,0
115.50561,115.57636,63,36,0
115.46665,115.57636,55,34,0
115.42769,115.57636,46,31,0
116.00089,116.07821,34,61,0
116.07821,116.841736,39,68,0
116.841736,116.93223,43,64,0
117.02273,117.11323,44,64,0
117.20372,117.29874,45,68,0
117.393745,117.48876,46,64,0
117.58377,117.67878,51,64,0
117.773796,117.86617,55,68,0
117.95855,118.050934,56,64,0
118.14331,118.17795,57,64,0
118.1895,118.23569,57,56,0
118.23569,118.281876,58,50,0
118.281876,118.32821,60,46,0
118.32821,118.38442,58,58,0
118.38442,118.44039,60,50,0
118.44039,118.496185,58,57,0
118.496185,118.55161,60,50,0
118.55161,118.606865,58,56,0
118.606865,118.66191,60,49,0
118.66191,118.71663,58,55,0
118.71663,118.77119,60,50,0
118.77119,118.825485,58,56,0
118.825485,118.879524,60,48,0
118.879524,118.92973,58,55,0
118.92973,118.97995,60,50,0
118.97995,119.03016,58,58,0
119.03016,119.08037,60,51,0
119.08037,119.13058,58,60,0
119.13058,119.19334,60,56,0
119.19334,119.256096,58,63,0
119.256096,119.318855,57,60,0
119.318855,119.38162,58,60,0
119.38162,119.52213,63,68,0
119.38162,119.52213,67,74,0
119.94368,120.01394,63,63,0
119.908554,120.01394,55,61,0
119.87342,120.01394,46,57,0
120.505745,120.67476,39,35,0
121.19107,121.27778,62,36,0
121.064316,121.27778,46,31,0
121.10657,121.27778,53,33,0
121.14882,121.27778,56,34,0
123.69604,123.77647,62,36,0
123.59573,123.77647,46,25,0
123.62937,123.77647,53,28,0
123.66285,123.77647,56,34,0
124.31858,124.48207,39,35,0
124.972534,125.04182,63,38,0
124.93166,125.04182,55,35,0
124.89079,125.04182,46,32,0
126.150185,126.22094,63,36,0
126.11122,126.22094,55,34,0
126.072266,126.22094,46,31,0
126.71328,126.87677,39,35,0
127.36666,127.44446,63,36,0
127.32636,127.44446,55,35,0
127.28549,127.44446,46,34,0
128.56615,128.64789,63,36,0
128.52719,128.64789,55,35,0
128.48834,128.64789,46,34,0
129.22011,129.39503,39,35,0
129.84921,129.963,55,37,0
129.80931,129.963,46,33,0
129.8891,129.99994,63,35,0
131.09929,131.17485,63,38,0
131.0593,131.17485,55,36,0
131.01953,131.17485,46,35,0
131.70383,131.84082,39,35,0
132.31557,132.38284,62,36,0
132.19702,132.38284,46,31,0
132.2366,132.38284,53,33,0
132.27618,132.38284,56,34,0
133.50896,133.57683,62,36,0
133.45142,133.57683,46,25,0
133.4706,133.57683,53,28,0
133.48978,133.57683,56,34,0
134.15892,134.32367,39,35,0
134.75635,134.87248,55,37,0
134.71739,134.87248,46,33,0
134.79507,134.91144,63,35,0
136.04329,136.11943,63,38,0
136.00522,136.11943,55,36,0
135.96715,136.11943,46,35,0
136.6387,136.8022,39,35,0
137.29208,137.36989,63,36,0
137.25179,137.36989,55,35,0
137.21092,137.36989,46,34,0
138.49158,138.57332,63,36,0
138.45262,138.57332,55,35,0
138.41377,138.57332,46,34,0
139.14552,139.32045,39,35,0
139.77464,139.88843,55,37,0
139.73474,139.88843,46,33,0
139.81453,139.92537,63,35,0
141.02472,141.10028,63,38,0
140.98473,141.10028,55,36,0
140.94496,141.10028,46,35,0
141.62926,141.76976,39,35,0
142.24452,142.31332,62,36,0
142.12596,142.31332,46,31,0
142.16554,142.31332,53,33,0
142.20512,142.31332,56,34,0
143.44386,143.51315,62,36,0
143.38632,143.51315,46,25,0
143.4055,143.51315,53,28,0
143.42468,143.51315,56,34,0
144.06555,144.2263,39,35,0
144.64404,144.75854,55,38,0
144.60626,144.75854,46,36,0
144.68182,144.7969,63,39,0
145.91895,145.98291,67,38,0
145.88087,145.98291,58,36,0
145.8428,145.98291,51,35,0
146.43066,146.56284,39,35,0
146.92627,147.0234,56,36,0
146.89322,147.0234,48,34,0
146.9593,147.05547,63,38,0
147.97113,148.0335,67,38,0
147.93994,148.0335,58,36,0
147.90875,148.0335,51,35,0
148.4701,148.59969,39,35,0
148.95605,149.05324,56,35,0
148.92366,149.05324,46,33,0
148.98845,149.08563,62,36,0
150.02516,150.08754,67,37,0
149.99277,150.08754,58,34,0
149.96037,150.08754,51,31,0
150.52412,150.6518,39,35,0
151.00288,151.0981,56,34,0
150.97098,151.0981,48,32,0
151.0348,151.12975,63,35,0
152.04015,152.08691,67,35,0
152.00896,152.10251,58,34,0
151.97777,152.10251,51,32,0
152.5391,152.66869,39,33,0
153.02505,153.12225,56,28,0
152.99266,153.12225,46,27,0
153.05746,153.15465,62,29,0
154.09418,154.15814,67,35,0
154.06178,154.15814,58,33,0
154.02939,154.15814,51,31,0
154.6059,154.73807,39,35,0
155.09813,155.19388,56,36,0
155.06621,155.19388,48,34,0
155.13005,155.2258,63,38,0
156.1397,156.20206,67,38,0
156.1085,156.20206,58,36,0
156.07732,156.20206,51,35,0
156.63866,156.76823,39,35,0
157.12462,157.2218,56,35,0
157.09221,157.2218,46,34,0
157.15701,157.2542,62,38,0
158.19373,158.2561,67,37,0
158.16133,158.2561,58,33,0
158.12894,158.2561,51,30,0
158.69269,158.82228,39,35,0
159.17865,159.27434,56,34,0
159.14626,159.27434,48,31,0
159.21104,159.306,63,36,0
160.21638,160.27875,67,36,0
160.1852,160.27875,58,34,0
160.154,160.27875,51,32,0
160.71686,160.84729,39,35,0
161.23672,162.25679,51,25,0
161.23672,162.25679,59,30,0
161.23672,162.25679,56,25,0
161.23672,162.25679,47,25,0
162.25679,163.25317,56,25,0
162.25679,163.25317,59,30,0
162.25679,163.25317,47,25,0
162.25679,163.25317,51,25,0
163.25317,163.74925,56,25,0
163.25317,163.74925,59,30,0
163.25317,163.74925,47,25,0
163.25317,163.74925,51,25,0
163.74925,164.26094,56,25,0
163.74925,164.26094,59,30,0
163.74925,164.26094,47,25,0
163.74925,164.26094,51,25,0
164.26094,166.0722,56,25,0
164.26094,166.0722,59,30,0
164.26094,166.0722,47,25,0
164.26094,166.0722,51,25,0
179.18843,179.3783,53,39,0
179.3783,179.54875,46,41,0
179.54875,179.87752,39,34,0
179.87752,180.03583,53,40,0
180.03583,180.18697,46,41,0
180.18697,180.49641,39,35,0
180.49641,180.65472,51,37,0
180.65472,180.80817,46,41,0
180.80817,181.11508,39,34,0
181.11508,181.26852,51,40,0
181.26852,181.43336,46,41,0
181.43336,181.75165,39,37,0
181.75165,181.9051,50,39,0
181.9051,182.05624,46,41,0
182.05624,182.3585,39,36,0
182.3585,182.50964,50,39,0
182.50964,182.66078,46,41,0
182.66078,182.97148,39,36,0
182.97148,183.13106,55,39,0
183.13106,183.2822,46,41,0
183.2822,183.58446,39,35,0
183.58446,183.7356,55,39,0
183.7356,183.89775,46,41,0
183.89775,184.22751,39,36,0
184.22751,184.39511,53,39,0
184.39511,184.55342,46,41,0
184.55342,184.87004,39,34,0
184.87004,185.02835,53,40,0
185.02835,185.17949,46,41,0
185.17949,185.48894,39,35,0
185.48894,185.64725,51,37,0
185.64725,185.8007,46,41,0
185.8007,186.1076,39,34,0
186.1076,186.26106,51,40,0
186.26106,186.42589,46,41,0
186.42589,186.74419,39,37,0
186.74419,186.89763,50,39,0
186.89763,187.04877,46,41,0
187.04877,187.35103,39,36,0
187.35103,187.50217,50,39,0
187.50217,187.6533,46,41,0
187.6533,187.95557,39,36,0
187.95557,188.1067,46,39,0
188.1067,188.25783,39,41,0
188.25783,188.5601,46,36,0
188.5601,188.71123,46,39,0
188.71123,188.86237,39,41,0
188.86237,189.0135,46,36,0
189.17566,189.33783,53,39,0
189.33783,189.49869,46,41,0
189.49869,189.81786,39,34,0
189.81786,189.97617,53,40,0
189.97617,190.1273,46,41,0
190.1273,190.43674,39,35,0
190.43674,190.59505,51,37,0
190.59505,190.7485,46,41,0
190.7485,191.05542,39,34,0
191.05542,191.20886,51,40,0
191.20886,191.3737,46,41,0
191.3737,191.69199,39,37,0
191.69199,191.84544,50,39,0
191.84544,191.99658,46,41,0
191.99658,192.29884,39,36,0
192.29884,192.44998,50,39,0
192.44998,192.6011,46,41,0
192.6011,192.91182,39,36,0
192.91182,193.0714,55,39,0
193.0714,193.22252,46,41,0
193.22252,193.5248,39,35,0
193.5248,193.67592,55,39,0
193.67592,193.83809,46,41,0
193.83809,194.16785,39,36,0
194.16785,194.33545,53,39,0
194.33545,194.49376,46,41,0
194.49376,194.81038,39,34,0
194.81038,194.96869,53,40,0
194.96869,195.11983,46,41,0
195.11983,195.42928,39,35,0
195.42928,195.58759,51,37,0
195.58759,195.74103,46,41,0
195.74103,196.04794,39,34,0
196.04794,196.20139,51,40,0
196.20139,196.36623,46,41,0
196.36623,196.68451,39,37,0
196.68451,196.83797,50,39,0
196.83797,196.9891,46,41,0
196.9891,197.29137,39,36,0
197.29137,197.4425,50,39,0
197.4425,197.59363,46,41,0
197.59363,197.8959,39,36,0
197.8959,198.04703,46,39,0
198.04703,198.19817,39,41,0
198.19817,198.50044,46,36,0
198.50044,198.65157,51,39,0
198.65157,198.8027,46,41,0
198.8027,199.12143,39,36,0
199.12143,199.28903,53,39,0
199.28903,199.44734,46,41,0
199.44734,199.76396,39,34,0
199.76396,199.92227,53,40,0
199.92227,200.07341,46,41,0
200.07341,200.38286,39,35,0
200.38286,200.54117,55,37,0
200.54117,200.69463,46,41,0
200.69463,201.00153,39,34,0
201.00153,201.15498,55,40,0
201.15498,201.31981,46,41,0
201.31981,201.6381,39,37,0
201.6381,201.79155,50,39,0
201.79155,201.94269,46,41,0
201.94269,202.24495,39,36,0
202.24495,202.39609,50,39,0
202.39609,202.54723,46,41,0
202.54723,202.84949,39,36,0
202.84949,203.00063,51,39,0
203.00063,203.15175,46,41,0
203.15175,203.45403,39,36,0
203.45403,203.60515,51,39,0
203.60515,203.75629,46,41,0
203.75629,204.07501,39,36,0
204.07501,204.24261,53,39,0
204.24261,204.40092,46,41,0
204.40092,204.71754,39,34,0
204.71754,204.87587,53,40,0
204.87587,205.027,46,41,0
205.027,205.33644,39,35,0
205.33644,205.49475,55,37,0
205.49475,205.64821,46,41,0
205.64821,205.95511,39,34,0
205.95511,206.10857,55,40,0
206.10857,206.27339,46,41,0
206.27339,206.59169,39,37,0
206.59169,206.74513,50,39,0
206.74513,206.89627,46,41,0
206.89627,207.19853,39,36,0
207.19853,207.34967,50,39,0
207.34967,207.50081,46,41,0
207.50081,207.80307,39,36,0
207.80307,207.95421,51,39,0
207.95421,208.10535,46,41,0
208.10535,208.40761,39,36,0
208.40761,208.55875,51,39,0
208.55875,208.70987,46,41,0
208.70987,208.86101,39,36,0
209.01447,209.16791,68,39,0
209.16791,209.31905,62,41,0
209.31905,209.47018,58,36,0
209.6213,209.77245,50,39,0
209.77245,209.92358,46,41,0
209.92358,210.0747,39,36,0
210.23303,210.39134,67,37,0
210.39134,210.54478,63,41,0
210.54478,210.69824,58,34,0
210.86308,211.02791,51,40,0
211.02791,211.19275,46,41,0
211.19275,211.35759,39,37,0
211.51103,211.66449,68,39,0
211.66449,211.81563,62,41,0
211.81563,211.96675,58,36,0
212.11789,212.26903,50,39,0
212.26903,212.42015,46,41,0
212.42015,212.57129,39,36,0
212.72243,212.87355,63,39,0
212.87355,213.02469,58,41,0
213.02469,213.17583,51,36,0
213.32695,213.47809,51,39,0
213.47809,213.62923,46,41,0
213.62923,213.78036,39,36,0
213.9338,214.08727,68,39,0
214.08727,214.2384,62,41,0
214.2384,214.38953,58,36,0
214.54066,214.6918,50,39,0
214.6918,214.84293,46,41,0
214.84293,214.99406,39,36,0
215.15237,215.31068,67,37,0
215.31068,215.46414,63,41,0
215.46414,215.6176,58,34,0
215.78242,215.94727,51,40,0
215.94727,216.11209,46,41,0
216.11209,216.27693,39,37,0
216.44177,216.6066,68,39,0
216.6066,216.76245,62,41,0
216.76245,216.91829,58,36,0
217.07787,217.23744,50,39,0
217.23744,217.3996,46,41,0
217.3996,217.56177,39,36,0
217.90858,218.29326,39,32,0
217.90858,218.29326,55,38,0
218.29326,218.6999,41,32,0
218.29326,218.6999,56,38,0
218.6999,219.17616,43,32,0
218.6999,219.17616,59,38,0
219.17616,221.24171,55,39,0
219.17616,221.24171,48,39,0
219.17616,221.24171,63,47,0
221.40215,223.16685,60,39,0
221.32193,223.16685,53,38,0
221.24171,223.16685,44,37,0
223.95932,226.17903,58,39,0
223.88394,226.17903,53,38,0
223.80856,226.17903,46,37,0
226.17903,226.37053,34,35,0
226.68967,226.77637,39,43,0
227.0199,227.09969,55,31,0
227.0199,227.09969,63,31,0
227.0199,227.09969,67,37,0
227.68137,227.76758,58,29,0
227.68137,227.76758,63,29,0
227.68137,227.76758,67,35,0
228.0262,228.28632,32,63,0
228.0262,228.28632,44,74,0
228.37302,228.45543,63,40,0
228.37302,228.45543,56,40,0
228.37302,228.45543,68,48,0
228.62027,228.69417,55,35,0
228.62027,228.69417,67,41,0
228.69417,228.77939,63,46,0
228.69417,228.77939,56,46,0
228.69417,228.77939,68,55,0
229.36717,229.62729,31,63,0
229.36717,229.62729,43,74,0
229.71399,229.79642,63,40,0
229.71399,229.79642,55,40,0
229.71399,229.79642,67,48,0
229.96124,230.03302,54,35,0
229.96124,230.03302,66,41,0
230.03302,230.11972,63,46,0
230.03302,230.11972,55,46,0
230.03302,230.11972,67,55,0
230.71574,230.97586,29,63,0
230.71574,230.97586,41,74,0
231.06256,231.14497,62,40,0
231.06256,231.14497,53,40,0
231.06256,231.14497,65,48,0
231.30981,231.38158,52,35,0
231.30981,231.38158,64,41,0
231.38158,231.46754,62,46,0
231.38158,231.46754,53,46,0
231.38158,231.46754,65,55,0
232.06282,232.32294,27,63,0
232.06282,232.32294,39,74,0
232.40964,232.49205,58,40,0
232.40964,232.49205,51,40,0
232.40964,232.49205,63,48,0
232.65689,232.72865,50,35,0
232.65689,232.72865,62,41,0
232.72865,232.8169,58,46,0
232.72865,232.8169,51,46,0
232.72865,232.8169,63,55,0
233.41628,233.50008,34,48,0
233.75146,233.833,53,35,0
233.75146,233.833,56,35,0
233.75146,233.833,62,42,0
234.09099,234.17477,46,47,0
234.42618,234.5152,56,34,0
234.42618,234.5152,53,34,0
234.42618,234.5152,58,40,0
234.78226,234.864,39,43,0
235.10924,235.18819,55,31,0
235.10924,235.18819,58,31,0
235.10924,235.18819,63,37,0
235.44206,235.5238,46,43,0
235.76903,235.85078,55,29,0
235.76903,235.85078,58,29,0
235.76903,235.85078,63,35,0
236.109,236.1928,34,48,0
236.44418,236.52313,53,35,0
236.44418,236.52313,56,35,0
236.44418,236.52313,62,42,0
236.77855,236.86235,46,47,0
237.11375,237.20277,56,34,0
237.11375,237.20277,53,34,0
237.11375,237.20277,58,40,0
237.46983,237.55157,39,43,0
237.7968,237.87856,55,31,0
237.7968,237.87856,58,31,0
237.7968,237.87856,63,37,0
238.13522,238.21696,46,43,0
238.4622,238.54742,55,29,0
238.4622,238.54742,58,29,0
238.4622,238.54742,63,35,0
238.8031,239.06322,32,63,0
238.8031,239.06322,44,74,0
239.14993,239.23235,63,40,0
239.14993,239.23235,56,40,0
239.14993,239.23235,68,48,0
239.39719,239.47107,55,35,0
239.39719,239.47107,67,41,0
239.47107,239.5617,63,46,0
239.47107,239.5617,56,46,0
239.47107,239.5617,68,55,0
240.16214,240.42226,31,63,0
240.16214,240.42226,43,74,0
240.50897,240.59138,63,40,0
240.50897,240.59138,55,40,0
240.50897,240.59138,67,48,0
240.75621,240.82799,54,35,0
240.75621,240.82799,66,41,0
240.82799,240.91623,63,46,0
240.82799,240.91623,55,46,0
240.82799,240.91623,67,55,0
241.51743,241.77754,29,63,0
241.51743,241.77754,41,74,0
241.86426,241.94667,62,40,0
241.86426,241.94667,53,40,0
241.86426,241.94667,65,48,0
242.11151,242.18327,52,35,0
242.11151,242.18327,64,41,0
242.18327,242.2723,62,46,0
242.18327,242.2723,53,46,0
242.18327,242.2723,65,55,0
242.86705,243.12717,27,63,0
242.86705,243.12717,39,74,0
243.21387,243.29628,58,40,0
243.21387,243.29628,51,40,0
243.21387,243.29628,63,48,0
243.46112,243.5329,50,35,0
243.46112,243.5329,62,41,0
243.5329,243.62192,58,46,0
243.5329,243.62192,51,46,0
243.5329,243.62192,63,55,0
244.22025,244.30176,34,48,0
244.54633,244.62967,53,35,0
244.54633,244.62967,56,35,0
244.54633,244.62967,62,42,0
244.88947,244.97327,46,47,0
245.22467,245.308,56,34,0
245.22467,245.308,53,34,0
245.22467,245.308,58,40,0
245.5678,245.64758,39,43,0
245.88695,245.96848,55,31,0
245.88695,245.96848,58,31,0
245.88695,245.96848,63,37,0
246.22491,246.30557,46,43,0
246.5475,246.62903,55,29,0
246.5475,246.62903,58,29,0
246.5475,246.62903,63,35,0
246.87358,246.95738,34,48,0
247.20879,247.28943,53,35,0
247.20879,247.28943,56,35,0
247.20879,247.28943,62,42,0
247.53862,247.6224,46,47,0
247.87381,247.95714,56,34,0
247.87381,247.95714,53,34,0
247.87381,247.95714,58,40,0
248.21695,248.29869,39,43,0
248.54391,248.62567,55,31,0
248.54391,248.62567,58,31,0
248.54391,248.62567,63,37,0
248.88234,248.96408,46,43,0
249.2093,249.29106,55,29,0
249.2093,249.29106,58,29,0
249.2093,249.29106,63,35,0
249.53629,249.62009,34,48,0
249.87148,249.95528,53,35,0
249.87148,249.95528,56,35,0
249.87148,249.95528,62,42,0
250.21555,250.29935,46,47,0
250.55075,250.63501,56,34,0
250.55075,250.63501,53,34,0
250.55075,250.63501,62,40,0
250.88782,250.96957,39,43,0
251.2148,251.29654,55,31,0
251.2148,251.29654,58,31,0
251.2148,251.29654,63,37,0
251.54683,251.62857,46,43,0
251.87381,251.95555,55,29,0
251.87381,251.95555,58,29,0
251.87381,251.95555,63,35,0
252.22021,252.30196,34,59,0
252.5472,252.62894,62,35,0
252.5472,252.62894,56,29,0
252.5472,252.62894,53,29,0
253.22058,253.30232,64,37,0
253.22058,253.30232,67,44,0
253.38406,253.46582,65,37,0
253.38406,253.46582,68,44,0
253.54756,253.62975,66,35,0
253.54756,253.62975,69,42,0
253.71217,253.79459,67,36,0
253.71217,253.79459,70,43,0
253.877,253.9592,68,37,0
253.877,253.9592,71,44,0
254.04094,254.12268,69,38,0
254.04094,254.12268,72,45,0
254.20442,254.28595,70,39,0
254.20442,254.28595,73,46,0
254.36703,254.44812,71,39,0
254.36703,254.44812,74,47,0
254.52919,254.61006,72,40,0
254.52919,254.61006,75,48,0
254.69049,254.77092,73,41,0
254.69049,254.77092,76,49,0
254.85135,254.93178,74,42,0
254.85135,254.93178,77,50,0
255.01178,255.09114,75,43,0
255.01178,255.09114,78,51,0
255.16988,255.24821,76,45,0
255.16988,255.24821,79,53,0
255.32593,255.40306,77,45,0
255.32593,255.40306,80,54,0
255.48038,255.55861,76,46,0
255.48038,255.55861,79,55,0
255.63777,255.71788,77,47,0
255.63777,255.71788,80,56,0
256.15353,256.33002,32,60,0
256.15353,256.33002,44,71,0
256.50647,256.8503,53,54,0
256.50647,256.8503,60,54,0
256.50647,256.8503,65,64,0
256.8503,257.01517,34,60,0
256.8503,257.01517,46,71,0
257.18,257.5209,53,55,0
257.18,257.5209,62,55,0
257.18,257.5209,65,65,0
257.5209,257.68573,39,60,0
257.5209,257.68573,51,71,0
257.85056,258.024,55,55,0
257.85056,258.024,63,55,0
257.85056,258.024,67,65,0
258.1974,258.36087,39,60,0
258.1974,258.36087,51,71,0
258.52435,258.69778,55,55,0
258.52435,258.69778,63,55,0
258.52435,258.69778,67,65,0
258.8712,259.03467,41,60,0
258.8712,259.03467,53,71,0
259.19815,259.35605,56,55,0
259.19815,259.35605,60,55,0
259.19815,259.35605,65,65,0
259.51395,259.677,34,60,0
259.51395,259.677,46,71,0
259.84003,260.00308,56,55,0
259.84003,260.00308,62,55,0
259.84003,260.00308,65,65,0
260.16614,260.33096,39,60,0
260.16614,260.33096,51,71,0
260.4958,260.66922,55,55,0
260.4958,260.66922,63,55,0
260.4958,260.66922,67,65,0
260.84262,261.0061,39,60,0
260.84262,261.0061,51,71,0
261.1696,261.34763,55,55,0
261.1696,261.34763,63,55,0
261.1696,261.34763,67,65,0
261.52567,261.71738,32,60,0
261.52567,261.71738,44,71,0
261.90906,262.28174,53,54,0
261.90906,262.28174,60,54,0
261.90906,262.28174,65,64,0
262.28174,262.45218,34,60,0
262.28174,262.45218,46,71,0
262.62265,262.98193,53,55,0
262.62265,262.98193,62,55,0
262.62265,262.98193,65,65,0
262.98193,263.14676,39,60,0
262.98193,263.14676,51,71,0
263.31158,263.48502,55,55,0
263.31158,263.48502,63,55,0
263.31158,263.48502,67,65,0
263.65842,263.8219,39,60,0
263.65842,263.8219,51,71,0
263.98538,264.1588,55,55,0
263.98538,264.1588,63,55,0
263.98538,264.1588,67,65,0
264.3322,264.4957,41,60,0
264.3322,264.4957,53,71,0
264.65918,264.81708,56,55,0
264.65918,264.81708,60,55,0
264.65918,264.81708,65,65,0
264.97498,265.13803,34,60,0
264.97498,265.13803,46,71,0
265.30106,265.46774,56,55,0
265.30106,265.46774,62,55,0
265.30106,265.46774,65,65,0
265.6344,265.79742,51,71,0
265.6344,265.79742,39,60,0
266.28656,266.44962,55,60,0
266.28656,266.44962,63,60,0
266.28656,266.44962,67,71,0
266.292,266.45505,58,60,0
268.68222,268.77124,53,41,0
268.68222,268.77124,46,34,0
269.0383,269.13147,39,45,0
269.39957,269.48703,53,44,0
269.39957,269.48703,46,37,0
270.1055,270.19452,51,40,0
270.1055,270.19452,46,34,0
270.50388,270.5843,39,45,0
270.8256,270.91623,51,43,0
270.8256,270.91623,46,36,0
271.55212,271.64035,50,42,0
271.55212,271.64035,46,35,0
271.90506,271.9933,39,45,0
272.258,272.34625,50,43,0
272.258,272.34625,46,36,0
272.9688,273.05707,55,41,0
272.9688,273.05707,46,34,0
273.3191,273.40524,39,45,0
273.6606,273.7446,55,49,0
273.6606,273.7446,46,41,0
274.38492,274.47394,53,41,0
274.38492,274.47394,46,34,0
274.741,274.82846,39,45,0
275.09085,275.1783,53,44,0
275.09085,275.1783,46,37,0
275.8018,275.89,51,40,0
275.8018,275.89,46,34,0
276.19858,276.281,39,45,0
276.52826,276.6165,51,43,0
276.52826,276.6165,46,36,0
277.2476,277.33582,50,42,0
277.2476,277.33582,46,35,0
277.60052,277.68878,39,45,0
277.95346,278.04172,50,43,0
277.95346,278.04172,46,36,0
278.66428,278.75253,51,41,0
278.66428,278.75253,46,34,0
279.01456,279.10074,39,45,0
280.061,280.3871,56,63,0
280.061,280.3871,46,54,0
280.3871,280.71677,39,47,0
280.71677,281.02603,56,56,0
280.71677,281.02603,46,46,0
281.34518,281.65448,55,63,0
281.34518,281.65448,46,54,0
281.65448,281.9575,39,47,0
281.9575,282.26053,55,56,0
281.9575,282.26053,46,46,0
282.5518,282.85483,56,63,0
282.5518,282.85483,46,54,0
282.85483,283.1352,39,47,0
283.1352,283.42932,56,56,0
283.1352,283.42932,46,46,0
283.7071,283.99554,55,64,0
283.7071,283.99554,46,55,0
283.99554,284.26828,39,48,0
284.26828,284.55673,55,57,0
284.26828,284.55673,46,48,0
284.82947,285.11517,56,67,0
284.82947,285.11517,46,56,0
285.11517,285.38547,39,49,0
285.38547,285.66583,56,60,0
285.38547,285.66583,46,49,0
285.9361,286.21646,55,68,0
285.9361,286.21646,46,57,0
286.21646,286.48196,39,51,0
286.48196,286.76233,55,61,0
286.48196,286.76233,46,50,0
287.02548,287.31122,56,69,0
287.02548,287.31122,46,58,0
287.31122,287.57437,39,52,0
287.57437,287.86008,56,62,0
287.57437,287.86008,46,51,0
288.12323,288.41736,55,60,0
288.12323,288.41736,46,51,0
288.41736,288.7115,39,47,0
288.7115,289.00558,55,47,0
288.7115,289.00558,46,39,0
289.27585,289.56158,56,42,0
289.27585,289.56158,46,42,0
289.56158,289.82944,39,44,0
289.82944,290.1207,56,40,0
289.82944,290.1207,46,40,0
290.39343,290.6847,55,40,0
290.39343,290.6847,46,40,0
290.6847,290.95255,39,44,0
290.95255,291.23557,55,41,0
290.95255,291.23557,46,41,0
291.50342,291.78644,62,40,0
291.50342,291.78644,56,40,0
291.50342,291.78644,53,40,0
291.78644,292.0543,39,44,0
292.0543,292.3373,53,40,0
292.0543,292.3373,56,40,0
292.0543,292.3373,62,40,0
292.6028,292.88058,63,41,0
292.6028,292.88058,58,41,0
292.6028,292.88058,55,41,0
292.88058,293.14606,39,44,0
293.14606,293.42645,55,42,0
293.14606,293.42645,58,42,0
293.14606,293.42645,63,42,0
293.6896,293.96997,65,40,0
293.6896,293.96997,62,40,0
293.6896,293.96997,56,40,0
293.96997,294.23312,39,44,0
294.23312,294.5109,56,40,0
294.23312,294.5109,62,40,0
294.23312,294.5109,65,40,0
294.77408,295.0493,67,41,0
294.77408,295.0493,63,41,0
294.77408,295.0493,58,41,0
295.0493,295.31244,39,44,0
295.31244,295.59024,58,42,0
295.31244,295.59024,63,42,0
295.31244,295.59024,67,42,0
295.85815,296.1432,62,32,0
295.85815,296.1432,58,32,0
295.85815,296.1432,68,32,0
296.1432,296.40634,39,35,0
296.40634,296.6841,58,33,0
296.40634,296.6841,62,33,0
296.40634,296.6841,68,33,0
296.9473,297.22507,67,32,0
296.9473,297.22507,63,32,0
296.9473,297.22507,58,32,0
297.22507,297.49298,39,35,0
297.49298,297.778,58,33,0
297.49298,297.778,63,33,0
297.49298,297.778,67,33,0
298.04587,298.3309,62,32,0
298.04587,298.3309,58,32,0
298.04587,298.3309,68,32,0
298.3309,298.59875,39,35,0
298.59875,298.88177,58,33,0
298.59875,298.88177,62,33,0
298.59875,298.88177,68,33,0
299.14963,299.4347,67,32,0
299.14963,299.4347,63,32,0
299.14963,299.4347,58,32,0
299.4347,299.70255,39,35,0
299.70255,299.98758,58,33,0
299.70255,299.98758,63,33,0
299.70255,299.98758,67,33,0
300.25543,300.5358,62,32,0
300.25543,300.5358,58,32,0
300.25543,300.5358,68,32,0
300.5358,300.80853,39,35,0
300.80853,301.09155,58,33,0
300.80853,301.09155,62,33,0
300.80853,301.09155,68,33,0
301.3668,301.65182,67,32,0
301.3668,301.65182,63,32,0
301.3668,301.65182,58,32,0
301.65182,301.92703,39,35,0
301.92703,302.21207,58,33,0
301.92703,302.21207,63,33,0
301.92703,302.21207,67,33,0
302.4873,302.77234,62,32,0
302.4873,302.77234,58,32,0
302.4873,302.77234,68,32,0
302.77234,303.04758,39,35,0
303.04758,303.3306,58,33,0
303.04758,303.3306,62,33,0
303.04758,303.3306,68,33,0
303.91312,304.5365,39,33,0
303.8767,304.5365,58,32,0
304.5365,305.30325,56,33,0
304.49753,305.30325,41,30,0
305.30325,306.0614,59,33,0
305.25534,306.0614,43,30,0
306.16968,307.42816,63,33,0
306.11554,307.42816,55,33,0
306.0614,307.42816,48,33,0
315.23056,315.9689,60,43,0
315.1792,315.9689,53,43,0
315.1278,315.9689,44,43,0
320.51843,322.73816,58,39,0
320.44305,322.73816,53,38,0
320.36768,322.73816,46,37,0
322.73816,322.92966,34,35,0
323.24878,323.33054,39,43,0
323.57578,323.6575,46,46,0
323.91418,323.9959,55,51,0
324.24115,324.3229,63,68,0
324.56815,324.64728,56,68,0
324.88477,324.96716,68,37,0
324.88477,324.96716,72,44,0
325.3721,325.45065,83,55,0
325.3721,325.45065,79,55,0
325.52917,325.6077,84,64,0
325.52917,325.6077,80,54,0
325.8627,325.94186,55,68,0
326.17932,326.26175,67,37,0
326.17932,326.26175,70,44,0
326.6667,326.7452,81,55,0
326.6667,326.7452,78,55,0
326.82376,326.90228,82,64,0
326.82376,326.90228,79,54,0
327.1573,327.23645,53,68,0
327.4739,327.55634,65,37,0
327.4739,327.55634,68,44,0
327.96127,328.0398,79,55,0
327.96127,328.0398,76,55,0
328.11832,328.19687,80,64,0
328.11832,328.19687,77,54,0
328.45187,328.53186,51,68,0
328.77188,328.85428,63,37,0
328.77188,328.85428,67,44,0
329.25922,329.33774,78,55,0
329.25922,329.33774,74,55,0
329.4163,329.4948,79,64,0
329.4163,329.4948,75,54,0
329.74982,329.83362,46,48,0
330.08502,330.16882,62,42,0
330.42755,330.51135,46,47,0
330.76273,330.85175,56,40,0
331.11884,331.20056,39,43,0
331.4458,331.52753,46,46,0
331.7842,331.86597,55,51,0
332.11118,332.19293,63,68,0
332.43817,332.5188,68,68,0
332.76074,332.83466,80,37,0
332.76074,332.83466,84,44,0
333.2211,333.29922,95,55,0
333.2211,333.29922,91,55,0
333.37735,333.45547,96,64,0
333.37735,333.45547,92,54,0
333.71008,333.79248,67,68,0
334.03973,334.1129,79,37,0
334.03973,334.1129,82,44,0
334.49866,334.576,93,55,0
334.49866,334.576,90,55,0
334.6533,334.73062,94,64,0
334.6533,334.73062,91,54,0
334.9844,335.06506,65,68,0
335.30698,335.38052,77,37,0
335.30698,335.38052,80,44,0
335.76733,335.8459,91,55,0
335.76733,335.8459,88,55,0
335.9244,336.00293,92,64,0
335.9244,336.00293,89,54,0
336.25793,336.3386,63,68,0
336.58054,336.65405,75,37,0
336.58054,336.65405,79,44,0
337.0409,337.11942,90,55,0
337.0409,337.11942,86,55,0
337.19794,337.2765,91,64,0
337.19794,337.2765,87,54,0
337.5315,337.61212,58,48,0
337.85406,337.93472,74,42,0
338.19028,338.27072,58,47,0
338.512,338.597,68,40,0
338.85193,338.93152,51,43,0
339.17026,339.24982,58,41,0
339.49377,339.5725,67,48,0
339.80875,339.88748,75,51,0
340.13428,340.21558,58,48,0
340.4595,340.5408,74,42,0
340.79016,340.87082,58,48,0
341.11273,341.19318,68,42,0
341.43445,341.51117,51,46,0
341.74136,341.81808,58,46,0
342.05566,342.13278,67,51,0
342.36417,342.44128,75,57,0
342.67264,342.75223,58,57,0
342.99094,343.07053,74,50,0
342.99094,343.07053,65,43,0
343.66022,343.82108,68,49,0
343.66022,343.82108,56,41,0
343.82108,343.98193,55,41,0
343.82108,343.98193,67,49,0
343.98193,344.1428,54,48,0
343.98193,344.1428,66,57,0
344.1428,344.30365,53,44,0
344.1428,344.30365,65,52,0
344.30365,344.4645,52,44,0
344.30365,344.4645,64,52,0
344.4645,344.62537,51,44,0
344.4645,344.62537,63,52,0
344.62537,344.78622,50,49,0
344.62537,344.78622,62,58,0
344.78622,344.94708,49,45,0
344.78622,344.94708,61,53,0
344.94708,345.10794,48,45,0
344.94708,345.10794,60,53,0
345.10794,345.2678,59,53,0
345.10794,345.2678,47,45,0
345.2678,345.42365,46,50,0
345.2678,345.42365,58,59,0
345.42365,345.57947,45,45,0
345.42365,345.57947,57,54,0
345.57947,345.73532,56,55,0
345.57947,345.73532,44,46,0
345.73532,345.89117,43,46,0
345.73532,345.89117,55,55,0
345.89117,346.04764,54,55,0
345.89117,346.04764,42,46,0
346.04764,346.2035,53,63,0
346.04764,346.2035,41,53,0
346.2035,346.35934,52,57,0
346.2035,346.35934,40,48,0
346.35934,346.51517,51,57,0
346.35934,346.51517,39,48,0
346.51517,346.66827,50,66,0
346.51517,346.66827,38,56,0
346.66827,346.82095,49,59,0
346.66827,346.82095,37,50,0
346.82095,346.97217,48,60,0
346.82095,346.97217,36,51,0
346.97217,347.12302,47,60,0
346.97217,347.12302,35,51,0
347.12302,347.44003,46,71,0
347.12302,347.44003,34,59,0
347.44003,347.7997,45,72,0
347.44003,347.7997,33,60,0
347.7997,348.1537,32,66,0
347.7997,348.1537,44,78,0
348.1537,348.48425,53,59,0
348.1537,348.48425,60,59,0
348.1537,348.48425,65,70,0
348.48425,348.81125,34,66,0
348.48425,348.81125,46,78,0
348.81125,349.13467,53,60,0
348.81125,349.13467,62,60,0
348.81125,349.13467,65,71,0
349.13467,349.44476,39,66,0
349.13467,349.44476,51,78,0
349.44476,349.77533,55,60,0
349.44476,349.77533,63,60,0
349.44476,349.77533,67,71,0
349.77533,350.08542,39,66,0
349.77533,350.08542,51,78,0
350.08542,350.41968,55,60,0
350.08542,350.41968,63,60,0
350.08542,350.41968,67,71,0
350.41968,350.733,41,66,0
350.41968,350.733,53,78,0
350.733,351.04633,56,60,0
350.733,351.04633,60,60,0
350.733,351.04633,65,71,0
351.04633,351.35962,34,66,0
351.04633,351.35962,46,78,0
351.35962,351.67294,56,60,0
351.35962,351.67294,62,60,0
351.35962,351.67294,65,71,0
351.67294,351.97986,39,66,0
351.67294,351.97986,51,78,0
351.97986,352.31042,55,60,0
351.97986,352.31042,63,60,0
351.97986,352.31042,67,71,0
352.31042,352.6205,39,66,0
352.31042,352.6205,51,78,0
352.6205,352.95108,55,60,0
352.6205,352.95108,63,60,0
352.6205,352.95108,67,71,0
352.95108,353.32614,32,66,0
352.95108,353.32614,44,78,0
353.32614,353.66415,53,59,0
353.32614,353.66415,60,59,0
353.32614,353.66415,65,70,0
353.66415,354.00604,34,66,0
353.66415,354.00604,46,78,0
354.00604,354.35187,53,60,0
354.00604,354.35187,62,60,0
354.00604,354.35187,65,71,0
354.35187,354.6652,39,66,0
354.35187,354.6652,51,78,0
354.6652,354.99216,55,60,0
354.6652,354.99216,63,60,0
354.6652,354.99216,67,71,0
354.99216,355.30548,39,66,0
354.99216,355.30548,51,78,0
355.30548,355.65228,55,60,0
355.30548,355.65228,63,60,0
355.30548,355.65228,67,71,0
355.65228,355.97928,41,66,0
355.65228,355.97928,53,78,0
355.97928,356.30624,56,60,0
355.97928,356.30624,60,60,0
355.97928,356.30624,65,71,0
356.30624,356.61957,34,66,0
356.30624,356.61957,46,78,0
356.61957,356.93286,56,60,0
356.61957,356.93286,62,60,0
356.61957,356.93286,65,71,0
356.93286,357.09637,51,78,0
356.93286,357.09637,39,66,0
357.25986,357.9138,67,71,0
357.25986,357.9138,55,60,0
357.25986,357.9138,58,60,0
357.25986,357.9138,63,60,0
357.9138,357.99554,67,63,0
357.9138,357.99554,55,54,0
357.9138,357.99554,58,54,0
357.9138,357.99554,63,54,0
358.24078,358.39743,51,36,0
358.24078,358.39743,58,43,0
358.24078,358.39743,56,36,0
358.55408,359.16226,51,33,0
358.55408,359.16226,56,33,0
358.55408,359.16226,58,39,0
359.16226,359.3173,51,33,0
359.16226,359.3173,56,33,0
359.16226,359.3173,58,39,0
359.47232,359.54602,51,51,0
359.47232,359.54602,61,51,0
359.76715,360.3571,51,33,0
359.76715,360.3571,61,39,0
360.3571,360.5188,51,40,0
360.3571,360.5188,61,43,0
360.6805,360.83398,51,36,0
360.6805,360.83398,56,43,0
360.98743,361.57712,51,33,0
360.98743,361.57712,56,39,0
361.57712,361.73215,51,33,0
361.57712,361.73215,59,43,0
361.88718,361.9717,51,51,0
361.88718,361.9717,58,51,0
362.22522,362.73874,51,33,0
362.22522,362.73874,55,39,0
362.77032,362.80188,54,37,0
362.80188,362.95227,51,40,0
362.80188,362.95227,55,43,0
363.10263,363.25006,39,43,0
363.3975,363.98715,46,33,0
363.3975,363.98715,50,33,0
363.3975,363.98715,56,39,0
363.98715,364.13458,46,33,0
363.98715,364.13458,50,33,0
363.98715,364.13458,56,39,0
364.282,364.35294,39,51,0
364.5657,365.1556,49,33,0
364.5657,365.1556,58,39,0
364.5657,365.1556,55,33,0
365.1556,365.31732,49,40,0
365.1556,365.31732,58,43,0
365.1556,365.31732,55,40,0
365.47906,365.6325,39,43,0
365.78595,366.37564,51,33,0
365.78595,366.37564,56,39,0
365.78595,366.37564,48,33,0
366.37564,366.53067,51,33,0
366.37564,366.53067,56,43,0
366.37564,366.53067,47,33,0
366.68573,366.77023,39,51,0
367.02374,367.60043,46,33,0
367.02374,367.60043,55,39,0
367.60043,367.76215,46,40,0
367.60043,367.76215,55,43,0
367.9067,367.9912,50,40,0
367.9067,367.9912,43,32,0
368.24472,368.8214,48,26,0
368.24472,368.8214,55,31,0
368.8214,368.97177,44,32,0
368.8214,368.97177,51,34,0
369.12216,369.20667,39,40,0
369.46017,370.03687,46,26,0
369.46017,370.03687,55,31,0
370.03687,370.19858,46,32,0
370.03687,370.19858,55,34,0
370.34314,370.42764,50,40,0
370.34314,370.42764,43,32,0
370.68118,371.25784,48,26,0
370.68118,371.25784,55,31,0
371.25784,371.41452,44,32,0
371.25784,371.41452,51,34,0
371.57117,371.6618,51,40,0
371.57117,371.6618,39,32,0
371.93372,372.54587,36,26,0
371.93372,372.54587,48,31,0
372.54587,372.7042,32,32,0
372.54587,372.7042,44,34,0
372.8625,372.95312,51,40,0
372.8625,372.95312,39,32,0
373.22504,373.83377,36,26,0
373.22504,373.83377,48,31,0
373.83377,374.01074,32,32,0
373.83377,374.01074,44,34,0
374.18774,374.8638,51,39,0
374.18774,374.8638,39,33,0
374.8638,375.53986,48,31,0
374.8638,375.53986,36,22,0
376.19852,376.87457,44,31,0
376.19852,376.87457,32,22,0
376.87457,377.2126,39,31,0
377.2126,377.3694,43,31,0
377.3694,377.51398,44,30,0
376.87457,377.51398,27,22,0
377.51398,377.65854,45,30,0
377.65854,377.80313,46,30,0
377.80313,377.9477,51,30,0
377.9477,378.0923,55,30,0
378.0923,378.23566,56,30,0
378.23566,378.37814,57,30,0
378.37814,378.5197,58,30,0
382.70242,382.96,58,72,0
382.70242,382.96,46,61,0
383.04584,383.10803,58,68,0
383.04584,383.10803,46,57,0
383.21164,383.2738,58,68,0
383.21164,383.2738,46,57,0
383.37744,383.90512,63,75,0
383.37744,383.90512,51,63,0
383.90512,383.9711,63,66,0
383.90512,383.9711,51,55,0
384.08102,384.14148,61,69,0
384.08102,384.14148,49,58,0
384.2422,384.30264,59,69,0
384.2422,384.30264,47,58,0
384.40335,384.46625,58,68,0
384.40335,384.46625,46,57,0
384.57108,384.63397,56,72,0
384.57108,384.63397,44,61,0
384.7388,384.80475,58,70,0
384.7388,384.80475,46,60,0
384.9147,384.98065,51,67,0
384.9147,384.98065,39,56,0
385.0906,385.48578,51,67,0
385.0906,385.48578,39,56,0
385.48578,385.74802,63,51,0
385.83545,385.8976,61,40,0
385.83823,385.9004,63,48,0
386.00125,386.06342,63,48,0
386.00125,386.06342,61,40,0
386.16702,386.6884,63,53,0
386.16702,386.6884,59,45,0
386.6884,386.75354,63,46,0
386.6884,386.75354,59,39,0
386.86215,386.9226,58,49,0
386.86215,387.02332,63,55,0
387.02332,387.08374,61,49,0
387.18448,387.24738,56,48,0
387.3522,387.41583,59,51,0
387.52188,387.58826,55,50,0
387.69888,387.76523,58,47,0
387.87585,388.26834,63,57,0
388.26834,388.52902,63,51,0
388.6159,388.67807,61,40,0
388.61868,388.68085,63,48,0
388.7817,388.84387,63,48,0
388.7817,388.84387,61,40,0
388.94748,389.46573,63,53,0
388.94748,389.46573,59,45,0
389.46573,389.5305,63,46,0
389.46573,389.5305,59,39,0
389.63846,389.69888,58,49,0
389.79962,389.86005,61,49,0
389.9608,390.02594,51,48,0
390.13455,390.19974,55,51,0
390.30835,390.35287,56,43,0
390.30835,390.37512,59,52,0
390.48642,390.5532,59,49,0
390.6645,390.9316,59,56,0
390.6645,390.9316,56,47,0
391.02063,391.2782,58,72,0
391.02063,391.2782,46,61,0
391.36407,391.42624,58,68,0
391.36407,391.42624,46,57,0
391.52985,391.592,58,68,0
391.52985,391.592,46,57,0
391.69565,392.22336,63,75,0
391.69565,392.22336,51,63,0
392.22336,392.2893,63,66,0
392.22336,392.2893,51,55,0
392.39926,392.46002,61,69,0
392.39926,392.46002,49,58,0
392.5613,392.6221,59,69,0
392.5613,392.6221,47,58,0
392.7234,392.7863,58,68,0
392.7234,392.7863,46,57,0
392.8911,392.954,56,72,0
392.8911,392.954,44,61,0
393.0588,393.1256,58,70,0
393.0588,393.1256,46,60,0
393.2369,393.30368,51,67,0
393.2369,393.30368,39,56,0
393.41498,393.81015,51,67,0
393.41498,393.81015,39,56,0
393.81015,394.0724,63,51,0
394.15982,394.222,61,40,0
394.16257,394.22476,63,48,0
394.32562,394.3878,63,48,0
394.32562,394.3878,61,40,0
394.4914,395.01276,63,53,0
394.4914,395.01276,59,45,0
395.01276,395.0779,63,46,0
395.01276,395.0779,59,39,0
395.18652,395.24695,58,49,0
395.18652,395.3477,63,55,0
395.3477,395.4081,61,49,0
395.50885,395.57175,56,48,0
395.67657,395.73947,59,51,0
395.8443,395.91025,55,50,0
396.0202,396.08615,58,47,0
396.19608,396.5886,63,57,0
396.5886,396.84924,63,51,0
396.93616,396.99658,61,40,0
396.93884,396.99927,63,48,0
397.0973,397.15775,63,48,0
397.0973,397.15775,61,40,0
397.25845,397.77887,63,53,0
397.25845,397.77887,59,45,0
397.77887,397.84525,63,46,0
397.77887,397.84525,59,39,0
397.95584,398.01804,58,49,0
398.12164,398.1838,61,49,0
398.28745,398.35547,51,48,0
398.46887,398.5369,55,51,0
398.6503,398.69714,56,43,0
398.6503,398.72055,59,52,0
398.83762,398.90787,59,49,0
399.02496,399.30594,59,56,0
399.02496,399.30594,56,47,0
400.1299,400.22122,55,41,0
400.3125,400.39886,51,37,0
400.10712,400.48526,39,33,0
400.84055,400.9296,56,43,0
401.01862,401.10767,51,35,0
400.817,401.1967,44,32,0
401.1967,401.28574,63,42,0
401.37476,401.4638,56,36,0
401.55283,401.64188,55,41,0
401.73093,401.81625,51,37,0
401.53058,401.9016,39,33,0
402.2502,402.33923,56,43,0
402.42828,402.5173,51,35,0
402.22723,402.60635,44,32,0
402.60635,402.69537,63,42,0
402.78442,402.87344,56,36,0
402.9625,403.0515,51,43,0
403.14056,403.22592,63,33,0
403.31125,403.39322,49,43,0
403.47516,403.56705,61,37,0
403.6589,403.74796,47,43,0
403.83698,403.92233,59,33,0
404.0077,404.09058,42,43,0
404.17346,404.26535,54,37,0
404.3572,404.44107,43,43,0
404.52493,404.6113,51,38,0
404.6977,404.78406,44,43,0
404.87042,404.9568,51,40,0
405.04315,405.1322,39,43,0
405.22122,405.30557,46,33,0
405.38992,405.47235,51,43,0
405.55478,405.64667,46,37,0
405.73853,405.8249,39,43,0
405.91125,405.99765,46,38,0
406.084,406.17038,51,43,0
406.25674,406.34805,46,40,0
406.43933,406.52518,51,47,0
406.43933,406.52518,44,47,0
406.61105,406.7012,39,38,0
406.79135,406.8815,32,43,0
407.6909,407.77777,39,37,0
407.86465,407.95157,55,47,0
408.03845,408.12534,51,42,0
408.21222,408.2956,63,47,0
408.379,408.47327,44,36,0
408.56754,408.65656,56,49,0
408.7456,408.83466,51,40,0
408.92368,409.00705,63,48,0
409.09042,409.1829,39,41,0
409.27536,409.36438,55,47,0
409.45343,409.53827,51,42,0
409.6231,409.70554,63,47,0
409.78796,409.87982,44,36,0
409.9717,410.06073,56,49,0
410.14978,410.2388,51,40,0
410.32785,410.41028,63,48,0
410.4927,410.58575,56,41,0
410.6788,410.76785,51,49,0
410.85687,410.9443,63,37,0
411.0317,411.11368,49,49,0
411.19562,411.2931,61,42,0
411.39053,411.47797,47,49,0
411.56537,411.6528,59,37,0
411.7402,411.82608,42,49,0
411.91193,412.00497,54,42,0
412.09805,412.18094,43,49,0
412.26382,412.34674,55,43,0
412.26382,412.34674,51,36,0
412.42963,412.51447,44,49,0
412.59933,412.68622,56,46,0
412.59933,412.68622,51,39,0
412.7731,412.86215,39,49,0
412.95117,413.03754,46,37,0
413.12393,413.20682,51,49,0
413.2897,413.3816,58,42,0
413.47345,413.5598,63,49,0
413.6462,413.73257,58,43,0
413.81894,413.9053,51,49,0
413.99167,414.08298,61,46,0
414.17426,414.26013,60,54,0
414.34598,414.43613,51,43,0
414.52628,414.61642,44,49,0
414.90118,414.9902,51,64,0
414.90118,414.9902,39,54,0
415.07925,415.16614,52,55,0
415.07925,415.16614,40,46,0
415.25302,415.33594,49,67,0
415.25302,415.33594,37,56,0
415.41882,415.51068,51,59,0
415.41882,415.51068,39,50,0
415.60257,415.6916,47,69,0
415.60257,415.6916,35,58,0
415.78064,415.8697,49,60,0
415.78064,415.8697,37,51,0
415.9587,416.04257,45,66,0
415.9587,416.04257,33,56,0
416.12643,416.2183,47,59,0
416.12643,416.2183,35,50,0
416.31018,416.64865,43,70,0
416.31018,416.64865,31,59,0
416.64865,417.01794,44,71,0
416.64865,417.01794,32,60,0
417.01794,417.10696,39,67,0
417.196,417.28506,46,59,0
417.37408,417.45993,51,67,0
417.5458,417.63766,58,61,0
417.72955,417.81592,63,69,0
417.90228,417.98865,58,57,0
418.07504,418.1614,51,67,0
418.24777,418.34656,61,61,0
418.44537,418.53122,60,76,0
418.61707,418.7072,51,64,0
418.79736,418.8875,44,71,0
419.24353,419.35623,63,34,0
419.35623,419.4689,73,25,0
419.4689,419.5816,66,25,0
419.5816,419.68228,73,25,0
419.68228,419.79337,59,31,0
419.79337,419.90448,73,25,0
419.90448,420.00867,66,25,0
420.00867,420.11282,73,25,0
420.11282,420.22733,64,34,0
420.22733,420.34183,73,25,0
420.34183,420.45633,68,25,0
420.45633,420.56326,73,25,0
420.56326,420.67438,59,31,0
420.67438,420.78546,73,25,0
420.78546,420.89658,68,25,0
420.89658,421.0077,73,25,0
421.0077,421.1222,63,34,0
421.1222,421.2367,73,25,0
421.2367,421.3512,66,25,0
421.3512,421.45187,73,25,0
421.45187,421.55902,59,31,0
421.55902,421.66617,73,25,0
421.66617,421.76822,66,25,0
421.76822,421.87024,73,25,0
421.87024,421.98474,64,34,0
421.98474,422.09924,73,25,0
422.09924,422.21375,68,25,0
422.21375,422.32068,73,25,0
422.32068,422.4318,59,31,0
422.4318,422.5429,73,25,0
422.5429,422.66486,68,25,0
422.66486,422.7868,64,25,0
422.7868,422.89243,49,52,0
422.89243,423.2209,42,47,0
422.7868,423.2209,37,44,0
423.2209,423.33118,47,38,0
423.33118,423.75742,42,35,0
423.2209,423.75742,35,32,0
423.75742,423.8746,63,34,0
423.8746,423.9918,73,25,0
423.9918,424.10898,66,25,0
424.10898,424.20963,73,25,0
424.20963,424.31677,59,31,0
424.31677,424.42392,73,25,0
424.42392,424.52597,66,25,0
424.52597,424.62802,73,25,0
424.62802,424.74252,64,34,0
424.74252,424.85703,73,25,0
424.85703,424.97153,68,25,0
424.97153,425.07843,73,25,0
425.07843,425.18954,59,31,0
425.18954,425.30066,73,25,0
425.30066,425.41177,68,25,0
425.41177,425.5229,73,25,0
425.5229,425.64008,63,34,0
425.64008,425.75726,73,25,0
425.75726,425.87445,66,25,0
425.87445,425.97513,73,25,0
425.97513,426.08224,59,31,0
426.08224,426.1894,73,25,0
426.1894,426.29144,66,25,0
426.29144,426.3935,73,25,0
426.3935,426.508,64,34,0
426.508,426.6225,73,25,0
426.6225,426.737,68,25,0
426.737,426.8439,73,25,0
426.8439,426.95502,59,31,0
426.95502,427.06613,73,25,0
427.06613,427.18808,68,25,0
427.18808,427.31003,64,25,0
427.31003,427.41568,49,52,0
427.41568,427.73972,42,47,0
427.31003,427.73972,37,44,0
427.73972,427.85,47,38,0
427.85,428.29425,42,35,0
427.73972,428.29425,35,32,0
428.29425,428.41144,62,34,0
428.41144,428.52863,73,25,0
428.52863,428.6458,66,25,0
428.6458,428.74646,73,25,0
428.74646,428.8536,62,31,0
428.8536,428.96075,73,25,0
428.96075,429.0628,66,25,0
429.0628,429.16483,73,25,0
429.16483,429.27936,64,34,0
429.27936,429.39386,73,25,0
429.39386,429.50836,68,25,0
429.50836,429.61526,73,25,0
429.61526,429.72638,62,31,0
429.72638,429.8375,73,25,0
429.8375,429.9486,66,25,0
429.9486,430.05972,73,25,0
430.05972,430.16534,49,52,0
430.16534,430.49026,42,47,0
430.05972,430.49026,37,44,0
430.49026,430.60056,47,38,0
430.60056,431.0453,42,35,0
430.49026,431.0453,35,32,0
431.0453,431.1556,62,34,0
431.1556,431.2579,73,25,0
431.2579,431.3658,66,25,0
431.3658,431.46655,73,25,0
431.46655,431.5785,62,31,0
431.5785,431.68195,71,25,0
431.68195,431.80005,66,25,0
431.80005,431.91815,71,25,0
431.91815,432.03265,65,34,0
432.03265,432.1472,71,25,0
432.1472,432.2617,68,25,0
432.2617,432.3762,71,25,0
432.3762,432.4907,66,31,0
432.4907,432.6052,76,25,0
432.6052,432.7197,70,25,0
432.7197,432.84573,76,25,0
432.95212,433.276,49,42,0
432.84573,433.276,42,46,0
433.3863,433.8305,47,31,0
433.276,433.8305,35,34,0
433.8305,433.9477,62,34,0
433.9477,434.06488,73,25,0
434.06488,434.18207,66,25,0
434.18207,434.28275,73,25,0
434.28275,434.3899,62,31,0
434.3899,434.49704,73,25,0
434.49704,434.5991,66,25,0
434.5991,434.7011,73,25,0
434.7011,434.8156,64,34,0
434.8156,434.9301,73,25,0
434.9301,435.04462,68,25,0
435.04462,435.15155,73,25,0
435.15155,435.26266,62,31,0
435.26266,435.37378,73,25,0
435.37378,435.4849,66,25,0
435.4849,435.596,73,25,0
435.596,435.70163,49,46,0
435.70163,436.02402,42,42,0
435.596,436.02402,37,39,0
436.02402,436.1343,47,34,0
436.1343,436.57904,42,31,0
436.02402,436.57904,35,28,0
436.57904,436.68774,62,34,0
436.68774,436.78928,73,25,0
436.78928,436.9004,66,25,0
436.9004,437.0031,73,25,0
437.0031,437.11588,62,31,0
437.11588,437.21976,71,25,0
437.21976,437.33337,66,25,0
437.33337,437.44702,71,25,0
437.44702,437.56152,65,34,0
437.56152,437.67603,71,25,0
437.67603,437.79053,68,25,0
437.79053,437.90503,71,25,0
437.90503,438.01953,66,31,0
438.01953,438.13403,76,25,0
438.13403,438.26562,70,25,0
438.26562,438.3972,76,25,0
438.52878,438.93344,49,39,0
438.3972,438.93344,42,44,0
439.0805,439.66873,47,29,0
438.93344,439.66873,35,32,0
439.66873,439.82498,51,34,0
439.82498,439.98123,61,25,0
439.98123,440.12097,59,25,0
440.12097,440.2321,69,31,0
440.2321,440.3432,66,25,0
440.3432,440.44736,61,25,0
440.44736,440.5515,59,25,0
440.5515,440.7042,52,34,0
440.7042,440.85687,61,25,0
440.85687,441.00195,59,25,0
441.00195,441.11307,68,31,0
441.11307,441.22418,64,25,0
441.22418,441.3353,61,25,0
441.3353,441.4464,59,25,0
441.4464,441.59906,51,34,0
441.59906,441.75174,61,25,0
441.75174,441.8906,59,25,0
441.8906,441.99774,69,31,0
441.99774,442.10486,66,25,0
442.10486,442.2069,61,25,0
442.2069,442.30896,59,25,0
442.30896,442.46164,52,34,0
442.46164,442.6143,61,25,0
442.6143,442.7594,59,25,0
442.7594,442.87048,68,31,0
442.87048,442.9816,64,25,0
442.9816,443.10355,61,25,0
443.10355,443.2255,59,25,0
443.2255,443.33115,49,49,0
443.33115,443.6596,42,44,0
443.2255,443.6596,37,41,0
443.6596,443.7699,47,36,0
443.7699,444.1961,42,33,0
443.6596,444.1961,35,30,0
444.1961,444.35236,51,34,0
444.35236,444.5086,61,25,0
444.5086,444.64835,59,25,0
444.64835,444.75946,69,31,0
444.75946,444.87057,66,25,0
444.87057,444.97473,61,25,0
444.97473,445.0789,59,25,0
445.0789,445.23157,52,34,0
445.23157,445.38425,61,25,0
445.38425,445.52933,59,25,0
445.52933,445.64044,68,31,0
445.64044,445.75156,64,25,0
445.75156,445.86267,61,25,0
445.86267,445.9738,59,25,0
445.9738,446.12643,51,34,0
446.12643,446.2791,61,25,0
446.2791,446.41797,59,25,0
446.41797,446.52512,69,31,0
446.52512,446.63223,66,25,0
446.63223,446.73428,61,25,0
446.73428,446.83633,59,25,0
446.83633,446.98898,52,34,0
446.98898,447.14166,61,25,0
447.14166,447.28674,59,25,0
447.28674,447.39786,68,31,0
447.39786,447.50897,64,25,0
447.50897,447.63092,61,25,0
447.63092,447.75287,59,25,0
447.75287,447.85852,49,49,0
447.85852,448.18698,42,44,0
447.75287,448.18698,37,41,0
448.18698,448.29727,47,36,0
448.29727,448.72348,42,33,0
448.18698,448.72348,35,30,0
448.72348,448.87973,50,34,0
448.87973,449.03598,61,25,0
449.03598,449.17572,59,25,0
449.17572,449.31857,66,34,0
449.31857,449.45804,61,25,0
449.45804,449.5941,59,25,0
449.5941,449.74677,52,34,0
449.74677,449.8994,59,29,0
449.8994,450.04453,68,28,0
450.04453,450.19266,50,34,0
450.19266,450.34082,59,27,0
450.34082,450.48895,66,27,0
450.48895,450.5946,49,52,0
450.5946,450.92303,42,47,0
450.48895,450.92303,37,44,0
450.92303,451.03336,47,38,0
451.03336,451.41208,42,35,0
450.92303,451.41208,35,32,0
451.41208,451.557,50,34,0
451.557,451.69638,61,25,0
451.69638,451.83615,59,25,0
451.83615,451.9865,66,34,0
451.9865,452.12854,61,25,0
452.12854,452.28006,59,25,0
452.28006,452.43274,53,34,0
452.43274,452.5854,59,29,0
452.5854,452.73807,68,28,0
452.73807,452.89075,54,34,0
452.89075,453.06143,64,27,0
453.06143,453.2501,70,27,0
453.37204,453.7602,49,39,0
453.2501,453.7602,42,44,0
453.8852,454.3261,47,29,0
453.7602,454.3261,35,32,0
454.3261,454.48236,50,34,0
454.48236,454.6386,61,25,0
454.6386,454.78183,59,25,0
454.78183,454.9289,66,34,0
454.9289,455.07187,61,25,0
455.07187,455.21075,59,25,0
455.21075,455.36948,52,34,0
455.36948,455.52823,59,29,0
455.52823,455.6771,68,28,0
455.6771,455.82523,50,34,0
455.82523,455.9734,59,27,0
455.9734,456.12152,66,27,0
456.12152,456.23022,49,52,0
456.23022,456.5716,42,47,0
456.12152,456.5716,37,44,0
456.5716,456.6897,47,38,0
456.6897,457.0599,42,35,0
456.5716,457.0599,35,32,0
457.0599,457.21616,50,34,0
457.21616,457.3724,61,25,0
457.3724,457.51562,59,25,0
457.51562,457.6627,66,34,0
457.6627,457.80566,61,25,0
457.80566,457.94455,59,25,0
457.94455,458.1033,53,34,0
458.1033,458.26202,59,29,0
458.26202,458.4109,68,28,0
461.3142,461.75323,74,49,0
461.75323,461.9675,73,47,0
461.9675,462.17584,71,41,0
461.2874,462.17584,68,42,0
461.26065,462.17584,64,37,0
462.17584,462.39972,76,45,0
462.39972,462.6236,68,39,0
462.6236,463.04245,69,45,0
462.17584,463.0972,73,38,0
462.17584,463.0972,64,38,0
463.04245,463.0972,64,37,0
463.0972,463.5362,74,49,0
463.5362,463.7505,73,47,0
463.7505,463.95883,71,41,0
463.06982,463.95883,68,42,0
463.95883,464.1827,76,45,0
464.1827,464.4066,68,39,0
464.4066,464.82352,69,45,0
463.95883,464.87708,73,38,0
463.95883,464.87708,64,38,0
464.82352,464.87708,64,37,0
464.87708,465.3161,74,49,0
465.3161,465.5304,73,47,0
465.5304,465.73874,71,41,0
464.8503,465.73874,68,42,0
465.73874,465.96262,76,45,0
465.96262,466.1865,68,39,0
466.1865,466.61807,69,45,0
465.73874,466.61807,73,38,0
465.73874,466.61807,64,38,0
466.61807,468.75732,74,49,0
466.61807,468.75732,64,39,0
466.61807,468.75732,68,39,0
466.61807,468.75732,71,39,0
471.86826,471.93246,63,40,0
472.0395,472.1037,64,38,0
472.21072,472.2716,61,38,0
472.3731,472.434,63,38,0
472.5355,472.5978,59,40,0
472.7017,472.764,61,38,0
472.8679,472.9302,57,38,0
473.0341,473.0964,59,38,0
473.2003,473.2598,55,44,0
473.359,473.41852,61,39,0
473.51773,473.5786,56,38,0
473.6801,473.741,59,40,0
473.8425,473.9075,51,40,0
474.01584,474.08084,58,37,0
474.18918,474.5491,63,45,0
474.5491,474.6133,63,44,0
474.72034,474.78455,64,41,0
474.89157,474.95245,61,41,0
475.05396,475.11484,63,41,0
475.21634,475.27866,59,44,0
475.38254,475.44485,61,41,0
475.54874,475.61105,57,41,0
475.71494,475.77725,59,41,0
475.8811,475.94064,56,48,0
476.03986,476.09937,61,39,0
476.19858,476.25946,51,41,0
476.36096,476.42184,61,45,0
476.36096,476.42184,55,39,0
476.52335,476.58835,56,46,0
476.6967,476.7617,59,42,0
476.87003,476.9421,59,52,0
476.87003,476.9421,56,48,0
477.25443,477.31866,63,52,0
477.25443,477.31866,51,44,0
477.42566,477.4899,64,49,0
477.42566,477.4899,52,41,0
477.5969,477.6578,61,49,0
477.5969,477.6578,49,41,0
477.75928,477.8202,63,49,0
477.75928,477.8202,51,41,0
477.92166,477.98398,59,52,0
477.92166,477.98398,47,44,0
478.08786,478.15018,61,49,0
478.08786,478.15018,49,41,0
478.25406,478.31638,57,49,0
478.25406,478.31638,45,41,0
478.42026,478.48257,59,49,0
478.42026,478.48257,47,41,0
478.58646,478.9039,55,57,0
478.58646,478.9039,43,48,0
478.9039,479.22867,56,49,0
478.9039,479.22867,44,41,0
479.22867,479.29138,51,52,0
479.22867,479.29138,39,44,0
479.39587,479.45856,55,48,0
479.39587,479.45856,43,40,0
479.56305,479.62613,58,48,0
479.56305,479.62613,46,40,0
479.73123,479.79703,62,48,0
479.73123,479.79703,50,40,0
479.9067,479.97095,63,54,0
479.9067,479.97095,51,46,0
480.07794,480.14215,64,51,0
480.07794,480.14215,52,43,0
480.24918,480.3101,61,51,0
480.24918,480.3101,49,43,0
480.41156,480.47247,63,51,0
480.41156,480.47247,51,43,0
480.57394,480.63626,59,54,0
480.57394,480.63626,47,46,0
480.74014,480.80246,61,51,0
480.74014,480.80246,49,43,0
480.90634,480.96866,57,51,0
480.90634,480.96866,45,43,0
481.07254,481.13486,59,51,0
481.07254,481.13486,47,43,0
481.23874,481.30295,55,56,0
481.23874,481.30295,43,48,0
481.40997,481.47418,57,53,0
481.40997,481.47418,45,45,0
481.5812,481.6421,53,53,0
481.5812,481.6421,41,45,0
481.7436,481.80447,55,53,0
481.7436,481.80447,43,45,0
481.90598,481.9683,51,56,0
481.90598,481.9683,39,48,0
482.07214,482.1345,53,53,0
482.07214,482.1345,41,45,0
482.23834,482.3007,49,53,0
482.23834,482.3007,37,45,0
482.40454,482.4669,51,53,0
482.40454,482.4669,39,45,0
482.74197,482.80618,48,55,0
482.57074,482.9132,36,67,0
483.0756,483.13647,47,55,0
482.9132,483.23798,35,64,0
483.40417,483.4665,45,55,0
483.23798,483.57037,33,70,0
483.73657,483.7989,43,56,0
483.57037,483.90277,31,67,0
484.074,484.1382,48,56,0
483.90277,484.24524,36,68,0
484.4076,484.4685,50,56,0
484.24524,484.56998,38,65,0
484.73618,485.23477,52,75,0
484.56998,485.23477,40,72,0
485.23477,485.29898,48,70,0
485.23477,485.29898,36,58,0
485.406,485.4702,60,57,0
485.406,485.4702,48,48,0
485.57724,485.63812,47,67,0
485.57724,485.63812,35,56,0
485.73962,485.8005,47,48,0
485.73962,485.8005,59,57,0
485.902,485.96432,33,62,0
485.902,485.96432,45,74,0
486.0682,486.13052,45,48,0
486.0682,486.13052,57,58,0
486.2344,486.29672,31,59,0
486.2344,486.29672,43,71,0
486.4006,486.46292,43,49,0
486.4006,486.46292,55,58,0
486.56677,486.631,48,71,0
486.56677,486.631,36,59,0
486.738,486.80225,60,58,0
486.738,486.80225,48,49,0
486.90924,486.97015,50,69,0
486.90924,486.97015,38,58,0
487.07162,487.13254,50,49,0
487.07162,487.13254,62,59,0
487.234,487.29633,40,63,0
487.234,487.29633,52,75,0
487.4002,487.9185,52,65,0
487.4002,487.9185,64,80,0
487.9185,487.9839,45,73,0
487.9185,487.9839,33,61,0
488.0929,488.1583,57,60,0
488.0929,488.1583,45,50,0
488.2673,488.32892,44,70,0
488.2673,488.32892,32,59,0
488.43158,488.49316,44,50,0
488.43158,488.49316,56,60,0
488.59583,488.65927,30,64,0
488.59583,488.65927,42,77,0
488.765,488.82846,42,50,0
488.765,488.82846,54,60,0
488.9342,488.99765,28,61,0
488.9342,488.99765,40,73,0
489.1034,489.16684,40,50,0
489.1034,489.16684,52,60,0
489.27258,489.33914,45,73,0
489.27258,489.33914,33,61,0
489.45007,489.51666,57,60,0
489.45007,489.51666,45,50,0
489.6276,489.6908,47,70,0
489.6276,489.6908,35,59,0
489.7961,489.8593,47,50,0
489.7961,489.8593,59,60,0
489.96466,490.0293,37,64,0
489.96466,490.0293,49,77,0
490.13705,490.65427,49,66,0
490.13705,490.65427,61,81,0
490.65427,490.7205,45,73,0
490.65427,490.7205,33,61,0
490.83084,490.89706,57,60,0
490.83084,490.89706,45,50,0
491.00745,491.06976,44,70,0
491.00745,491.06976,32,59,0
491.17365,491.23596,44,50,0
491.17365,491.23596,56,60,0
491.3398,491.4058,30,64,0
491.3398,491.4058,42,77,0
491.51578,491.58176,42,50,0
491.51578,491.58176,54,60,0
491.6917,491.7577,28,61,0
491.6917,491.7577,40,73,0
491.86765,491.93362,40,50,0
491.86765,491.93362,52,60,0
492.0436,492.11414,45,73,0
492.0436,492.11414,33,61,0
492.2317,492.30222,57,60,0
492.2317,492.30222,45,50,0
492.41974,492.48672,47,70,0
492.41974,492.48672,35,59,0
492.5983,492.66528,47,50,0
492.5983,492.66528,59,60,0
492.7769,492.8531,37,64,0
492.7769,492.8531,49,77,0
492.98013,493.48468,49,66,0
492.98013,493.48468,61,81,0
493.53058,493.88373,42,65,0
493.53058,493.88373,30,55,0
493.53058,493.88373,34,55,0
493.53058,493.88373,37,55,0
493.88373,494.2369,41,60,0
493.88373,494.2369,29,51,0
493.88373,494.2369,34,51,0
493.88373,494.2369,37,51,0
494.2369,494.5901,39,65,0
494.2369,494.5901,27,55,0
494.2369,494.5901,30,55,0
494.2369,494.5901,34,55,0
494.5901,494.97968,37,51,0
494.5901,494.97968,25,51,0
494.5901,494.97968,30,51,0
494.5901,494.97968,34,51,0
494.97968,495.14532,42,65,0
494.97968,495.14532,30,55,0
494.97968,495.14532,34,55,0
494.97968,495.14532,37,55,0
495.16373,495.32938,42,60,0
495.16373,495.32938,30,51,0
495.16373,495.32938,34,51,0
495.16373,495.32938,37,51,0
495.34778,495.72995,44,65,0
495.34778,495.72995,37,55,0
495.34778,495.72995,32,55,0
495.72995,496.10495,46,68,0
495.72995,496.10495,34,57,0
495.72995,496.10495,37,57,0
495.72995,496.10495,42,57,0
496.4823,496.84814,42,65,0
496.4823,496.84814,30,55,0
496.4823,496.84814,34,55,0
496.4823,496.84814,37,55,0
496.84814,497.21402,41,60,0
496.84814,497.21402,29,51,0
496.84814,497.21402,34,51,0
496.84814,497.21402,37,51,0
497.21402,497.5733,39,65,0
497.21402,497.5733,27,55,0
497.21402,497.5733,30,55,0
497.21402,497.5733,34,55,0
497.5733,497.95792,37,51,0
497.5733,497.95792,25,51,0
497.5733,497.95792,30,51,0
497.5733,497.95792,34,51,0
497.95792,498.11862,42,65,0
497.95792,498.11862,30,55,0
497.95792,498.11862,34,55,0
497.95792,498.11862,37,55,0
498.13647,498.2972,42,60,0
498.13647,498.2972,30,51,0
498.13647,498.2972,34,51,0
498.13647,498.2972,37,51,0
498.31506,498.6972,44,65,0
498.31506,498.6972,37,55,0
498.31506,498.6972,32,55,0
498.6972,499.0722,46,68,0
498.6972,499.0722,34,57,0
498.6972,499.0722,37,57,0
498.6972,499.0722,42,57,0
499.4472,500.00748,54,73,0
499.4472,500.00748,42,62,0
499.4472,500.00748,46,62,0
499.4472,500.00748,49,62,0
500.00748,500.19733,54,68,0
500.00748,500.19733,42,57,0
500.00748,500.19733,46,57,0
500.00748,500.19733,49,57,0
500.19733,500.57233,59,73,0
500.19733,500.57233,47,62,0
500.19733,500.57233,51,62,0
500.19733,500.57233,54,62,0
500.57233,500.9545,54,70,0
500.57233,500.9545,42,59,0
500.57233,500.9545,46,59,0
500.57233,500.9545,49,59,0
500.9545,501.51352,46,74,0
500.9545,501.51352,34,62,0
501.51352,501.69983,46,67,0
501.51352,501.69983,38,56,0
501.69983,501.79074,46,72,0
501.69983,501.79074,39,61,0
501.88165,501.97256,46,69,0
501.88165,501.97256,41,58,0
502.06348,502.25098,46,69,0
502.06348,502.25098,42,58,0
502.43848,502.7883,58,78,0
502.43848,502.7883,54,66,0
502.7883,502.8784,59,69,0
502.7883,502.8784,56,58,0
502.96848,503.06915,58,69,0
502.96848,503.06915,54,58,0
503.16983,503.263,56,74,0
503.16983,503.263,53,62,0
503.35617,503.44934,54,69,0
503.35617,503.44934,51,58,0
503.5425,503.73605,53,69,0
503.5425,503.73605,46,58,0
503.9296,504.11594,51,76,0
503.9296,504.11594,46,64,0
503.9296,504.11594,39,64,0
504.67493,505.23517,54,73,0
504.67493,505.23517,42,62,0
504.67493,505.23517,46,62,0
504.67493,505.23517,49,62,0
505.23517,505.42505,54,68,0
505.23517,505.42505,42,57,0
505.23517,505.42505,46,57,0
505.23517,505.42505,49,57,0
505.42505,505.80005,59,73,0
505.42505,505.80005,47,62,0
505.42505,505.80005,51,62,0
505.42505,505.80005,54,62,0
505.80005,506.18222,54,70,0
505.80005,506.18222,42,59,0
505.80005,506.18222,46,59,0
505.80005,506.18222,49,59,0
506.18222,506.7412,46,74,0
506.18222,506.7412,34,62,0
506.7412,506.92755,50,67,0
506.7412,506.92755,38,56,0
506.7412,506.92755,46,56,0
506.92755,507.01846,51,72,0
506.92755,507.01846,39,61,0
506.92755,507.01846,46,61,0
507.10938,507.2003,53,69,0
507.10938,507.2003,41,58,0
507.10938,507.2003,46,58,0
507.2912,507.4787,54,69,0
507.2912,507.4787,42,58,0
507.2912,507.4787,46,58,0
507.6662,508.01303,66,78,0
507.6662,508.01303,54,66,0
507.6662,508.01303,58,66,0
508.01303,508.1034,68,69,0
508.01303,508.1034,56,58,0
508.19373,508.2944,66,69,0
508.19373,508.2944,54,58,0
508.39508,508.4849,65,74,0
508.39508,508.4849,53,62,0
508.57474,508.66455,63,69,0
508.57474,508.66455,51,58,0
508.75436,508.9479,58,69,0
508.75436,508.9479,46,58,0
509.14145,509.32666,58,76,0
509.14145,509.32666,54,64,0
509.14145,509.32666,51,64,0
509.8822,510.23514,42,78,0
509.8822,510.23514,30,66,0
509.8822,510.23514,34,66,0
509.8822,510.23514,37,66,0
510.23514,510.5988,41,72,0
510.23514,510.5988,29,61,0
510.23514,510.5988,34,61,0
510.23514,510.5988,37,61,0
510.5988,510.9624,39,78,0
510.5988,510.9624,27,66,0
510.5988,510.9624,30,66,0
510.5988,510.9624,34,66,0
510.9624,511.34216,37,61,0
510.9624,511.34216,25,61,0
510.9624,511.34216,30,61,0
510.9624,511.34216,34,61,0
511.34216,511.7036,42,78,0
511.34216,511.7036,30,66,0
511.34216,511.7036,34,66,0
511.34216,511.7036,37,66,0
511.7036,512.081,44,78,0
511.7036,512.081,37,66,0
511.7036,512.081,32,66,0
512.081,512.44684,46,81,0
512.081,512.44684,34,68,0
512.081,512.44684,37,68,0
512.081,512.44684,42,68,0
512.82416,513.17505,42,78,0
512.82416,513.17505,30,66,0
512.82416,513.17505,34,66,0
512.82416,513.17505,37,66,0
513.17505,513.5365,41,72,0
513.17505,513.5365,29,61,0
513.17505,513.5365,34,61,0
513.17505,513.5365,37,61,0
513.5365,513.89795,39,78,0
513.5365,513.89795,27,66,0
513.5365,513.89795,30,66,0
513.5365,513.89795,34,66,0
513.89795,514.2777,37,61,0
513.89795,514.2777,25,61,0
513.89795,514.2777,30,61,0
513.89795,514.2777,34,61,0
514.2777,514.63916,42,78,0
514.2777,514.63916,30,66,0
514.2777,514.63916,34,66,0
514.2777,514.63916,37,66,0
514.63916,515.0165,44,78,0
514.63916,515.0165,37,66,0
514.63916,515.0165,32,66,0
515.0165,515.3823,46,81,0
515.0165,515.3823,34,68,0
515.0165,515.3823,37,68,0
515.0165,515.3823,42,68,0
515.7597,516.31995,54,73,0
515.7597,516.31995,42,62,0
515.7597,516.31995,46,62,0
515.7597,516.31995,49,62,0
516.31995,516.5098,54,68,0
516.31995,516.5098,42,57,0
516.31995,516.5098,46,57,0
516.31995,516.5098,49,57,0
516.5098,516.8848,59,73,0
516.5098,516.8848,47,62,0
516.5098,516.8848,51,62,0
516.5098,516.8848,54,62,0
516.8848,517.26697,54,70,0
516.8848,517.26697,42,59,0
516.8848,517.26697,46,59,0
516.8848,517.26697,49,59,0
517.26697,517.81915,46,74,0
517.26697,517.81915,34,62,0
517.81915,518.0032,46,67,0
517.81915,518.0032,38,56,0
518.0032,518.09143,46,72,0
518.0032,518.09143,39,61,0
518.1797,518.2679,46,69,0
518.1797,518.2679,41,58,0
518.35614,518.5425,46,69,0
518.35614,518.5425,42,58,0
518.72766,519.0806,58,78,0
518.72766,519.0806,54,66,0
519.0806,519.1726,59,69,0
519.0806,519.1726,56,58,0
519.26465,519.3653,58,69,0
519.26465,519.3653,54,58,0
519.466,519.55914,56,74,0
519.466,519.55914,53,62,0
519.65234,519.7455,54,69,0
519.65234,519.7455,51,58,0
519.8387,520.03345,53,69,0
519.8387,520.03345,46,58,0
520.2283,520.4158,51,76,0
520.2283,520.4158,46,64,0
520.2283,520.4158,39,64,0
520.9783,521.52527,54,73,0
520.9783,521.52527,42,62,0
520.9783,521.52527,46,62,0
520.9783,521.52527,49,62,0
521.52527,521.71515,54,68,0
521.52527,521.71515,42,57,0
521.52527,521.71515,46,57,0
521.52527,521.71515,49,57,0
521.71515,522.07446,59,73,0
521.71515,522.07446,47,62,0
521.71515,522.07446,51,62,0
521.71515,522.07446,54,62,0
522.07446,522.44946,54,70,0
522.07446,522.44946,42,59,0
522.07446,522.44946,46,59,0
522.07446,522.44946,49,59,0
522.44946,523.0018,46,74,0
522.44946,523.0018,34,62,0
523.0018,523.1814,50,67,0
523.0018,523.1814,38,56,0
523.0018,523.1814,46,56,0
523.1814,523.2686,51,72,0
523.1814,523.2686,39,61,0
523.1814,523.2686,46,61,0
523.35583,523.443,53,69,0
523.35583,523.443,41,58,0
523.35583,523.443,46,58,0
523.5302,523.7143,54,69,0
523.5302,523.7143,42,58,0
523.5302,523.7143,46,58,0
523.8983,524.2664,66,78,0
523.8983,524.2664,54,66,0
523.8983,524.2664,58,66,0
524.2664,524.35846,68,69,0
524.2664,524.35846,56,58,0
524.4505,524.55115,66,69,0
524.4505,524.55115,54,58,0
524.6518,524.7411,65,74,0
524.6518,524.7411,53,62,0
524.8304,524.9197,63,69,0
524.8304,524.9197,51,58,0
525.009,525.19824,58,69,0
525.009,525.19824,46,58,0
525.3875,525.75,58,78,0
525.3875,525.75,54,66,0
525.75,525.84406,59,69,0
525.75,525.84406,56,58,0
525.93805,526.03876,58,69,0
525.93805,526.03876,54,58,0
526.1394,526.2401,56,74,0
526.1394,526.2401,53,62,0
526.34076,526.4414,54,69,0
526.34076,526.4414,51,58,0
526.5421,526.7595,53,69,0
526.5421,526.7595,46,58,0
526.97687,527.41486,46,78,0
526.97687,527.41486,42,66,0
527.41486,527.52515,47,69,0
527.41486,527.52515,44,58,0
527.63544,527.7526,46,69,0
527.63544,527.7526,42,58,0
527.8698,527.9908,44,74,0
527.8698,527.9908,41,62,0
528.11176,528.24567,42,69,0
528.11176,528.24567,39,58,0
528.3796,528.6626,41,69,0
528.3796,528.6626,34,58,0
528.9456,529.1999,39,69,0
528.8749,529.1999,27,58,0
528.89844,529.1999,31,58,0
528.92206,529.1999,34,58,0
529.1999,529.4541,51,69,0
529.1999,529.4541,46,58,0
529.1999,529.4541,39,58,0
529.83545,529.9626,55,79,0
529.83545,529.9626,43,79,0
529.9626,530.4889,56,85,0
529.9626,530.4889,44,85,0
530.4889,530.9494,57,84,0
530.4889,530.9494,45,84,0
531.0152,531.2695,39,69,0
530.9494,531.2695,27,58,0
530.9714,531.2695,31,58,0
530.9933,531.2695,34,58,0
531.2695,531.5237,51,69,0
531.2695,531.5237,46,58,0
531.2695,531.5237,39,58,0
532.03217,532.5668,63,85,0
532.03217,532.5668,51,68,0
533.0931,533.3495,38,69,0
533.0602,533.3495,34,58,0
533.0273,533.3495,27,58,0
533.3495,533.6059,50,69,0
533.3495,533.6059,46,58,0
533.3495,533.6059,41,58,0
533.6059,533.9905,56,82,0
533.6059,533.9905,44,72,0
533.9905,534.1187,55,79,0
533.9905,534.1187,43,79,0
534.1187,534.64966,56,85,0
534.1187,534.64966,44,85,0
534.64966,535.11426,57,84,0
534.64966,535.11426,45,84,0
535.18066,535.4349,39,69,0
535.14746,535.4349,34,58,0
535.11426,535.4349,27,58,0
535.4349,535.68915,51,69,0
535.4349,535.68915,46,58,0
535.4349,535.68915,39,58,0
536.9966,537.0843,34,62,0
537.0843,537.172,36,65,0
537.172,537.2249,38,68,0
537.2559,537.5102,39,69,0
537.2249,537.5102,27,58,0
537.2353,537.5102,31,58,0
537.2456,537.5102,34,58,0
537.5102,537.7644,51,69,0
537.5102,537.7644,46,58,0
537.5102,537.7644,39,58,0
538.13324,538.2562,55,79,0
538.13324,538.2562,43,79,0
538.2562,538.78253,56,85,0
538.2562,538.78253,44,85,0
538.78253,539.24304,57,84,0
538.78253,539.24304,45,84,0
539.30884,539.5631,39,69,0
539.24304,539.5631,27,58,0
539.265,539.5631,31,58,0
539.2869,539.5631,34,58,0
539.5631,539.8173,51,69,0
539.5631,539.8173,46,58,0
539.5631,539.8173,39,58,0
540.3258,540.8693,63,85,0
540.3258,540.8693,51,71,0
541.39557,541.652,38,69,0
541.3627,541.652,34,58,0
541.3298,541.652,27,58,0
541.652,541.9084,50,69,0
541.652,541.9084,46,58,0
541.652,541.9084,41,58,0
541.9084,542.293,56,82,0
541.9084,542.293,44,72,0
542.293,542.4212,55,79,0
542.293,542.4212,43,79,0
542.4212,542.9522,56,85,0
542.4212,542.9522,44,85,0
542.9522,543.4168,53,84,0
542.9522,543.4168,41,84,0
543.48315,543.73737,39,69,0
543.4168,543.73737,27,58,0
543.4389,543.73737,31,58,0
543.46106,543.73737,34,58,0
543.73737,543.99164,51,69,0
543.73737,543.99164,46,58,0
543.73737,543.99164,39,58,0
545.0264,545.42114,58,80,0
545.0264,545.42114,46,80,0
545.5577,545.81195,39,69,0
545.48694,545.81195,27,58,0
545.51056,545.81195,31,58,0
545.5341,545.81195,34,58,0
545.81195,546.06616,51,69,0
545.81195,546.06616,46,58,0
545.81195,546.06616,39,58,0
546.4365,546.56,67,76,0
546.4365,546.56,55,76,0
546.56,547.0863,68,81,0
546.56,547.0863,56,81,0
547.0863,547.5468,69,80,0
547.0863,547.5468,57,80,0
547.61755,547.8718,39,69,0
547.5468,547.8718,27,58,0
547.5704,547.8718,31,58,0
547.594,547.8718,34,58,0
547.8718,548.12604,51,69,0
547.8718,548.12604,46,58,0
547.8718,548.12604,39,58,0
548.6219,549.1482,75,84,0
548.6219,549.1482,63,81,0
549.67944,549.9337,38,69,0
549.6441,549.9337,34,58,0
549.6087,549.9337,27,58,0
549.9337,550.1879,50,69,0
549.9337,550.1879,46,58,0
549.9337,550.1879,41,58,0
550.56134,550.68585,67,76,0
550.56134,550.68585,55,76,0
550.68585,551.21216,68,81,0
550.68585,551.21216,56,81,0
551.21216,551.67267,69,80,0
551.21216,551.67267,57,80,0
551.7434,551.9977,39,69,0
551.67267,551.9977,27,58,0
551.6962,551.9977,31,58,0
551.71985,551.9977,34,58,0
551.9977,552.2519,51,69,0
551.9977,552.2519,46,58,0
551.9977,552.2519,39,58,0
552.74774,553.01086,67,84,0
552.74774,553.01086,55,81,0
553.8199,554.0741,39,69,0
553.74915,554.0741,27,58,0
553.7727,554.0741,31,58,0
553.7963,554.0741,34,58,0
554.0741,554.32837,51,69,0
554.0741,554.32837,46,58,0
554.0741,554.32837,39,58,0
554.7044,554.8289,67,72,0
554.7044,554.8289,55,76,0
554.8289,555.3552,68,76,0
554.8289,555.3552,56,81,0
555.3552,555.81573,69,80,0
555.3552,555.81573,57,80,0
555.8865,556.14075,39,69,0
555.81573,556.14075,27,58,0
555.8393,556.14075,31,58,0
555.8629,556.14075,34,58,0
556.14075,556.39496,51,69,0
556.14075,556.39496,46,58,0
556.14075,556.39496,39,58,0
556.8908,557.4171,75,84,0
556.8908,557.4171,63,81,0
557.94836,558.20264,38,69,0
557.913,558.20264,34,58,0
557.8776,558.20264,27,58,0
558.20264,558.45685,50,69,0
558.20264,558.45685,46,58,0
558.20264,558.45685,41,58,0
558.8319,558.9559,67,76,0
558.8319,558.9559,55,76,0
558.9559,559.4822,68,81,0
558.9559,559.4822,56,81,0
559.4822,559.9427,65,80,0
559.4822,559.9427,53,80,0
560.0134,560.2677,39,69,0
559.9427,560.2677,27,58,0
559.9663,560.2677,31,58,0
559.98987,560.2677,34,58,0
560.2677,560.5219,51,69,0
560.2677,560.5219,46,58,0
560.2677,560.5219,39,58,0
561.54724,562.0431,73,80,0
561.54724,562.0431,67,68,0
561.54724,562.0431,63,68,0
562.0431,562.51184,72,77,0
562.0431,562.51184,68,65,0
562.51184,562.62463,70,75,0
562.51184,562.62463,67,63,0
562.7374,562.8502,68,75,0
562.7374,562.8502,65,63,0
562.96295,563.0792,67,79,0
562.96295,563.0792,63,67,0
563.19556,563.3118,65,75,0
563.19556,563.3118,58,63,0
563.4281,563.5491,63,75,0
563.4281,563.5491,55,63,0
563.67004,563.791,67,76,0
563.67004,563.791,63,64,0
563.912,564.2608,68,80,0
563.912,564.2608,65,68,0
564.2608,564.3771,67,75,0
564.2608,564.3771,64,63,0
564.3771,564.48987,68,75,0
564.3771,564.48987,65,63,0
564.60223,564.71454,69,78,0
564.60223,564.71454,66,66,0
564.8269,564.945,70,80,0
564.8269,564.945,67,68,0
565.2994,565.7718,73,80,0
565.2994,565.7718,67,68,0
565.2994,565.7718,63,68,0
565.7718,566.2387,72,77,0
565.7718,566.2387,68,65,0
566.2387,566.35144,70,75,0
566.2387,566.35144,67,63,0
566.4634,566.5753,68,75,0
566.4634,566.5753,65,63,0
566.68726,566.80536,67,79,0
566.68726,566.80536,63,67,0
566.92346,567.04156,65,75,0
566.92346,567.04156,58,63,0
567.15967,567.28064,63,75,0
567.15967,567.28064,55,63,0
567.4016,567.5226,67,76,0
567.4016,567.5226,63,64,0
567.64355,567.9897,68,80,0
567.64355,567.9897,65,68,0
567.9897,568.1047,67,75,0
567.9897,568.1047,64,63,0
568.1047,568.217,68,75,0
568.1047,568.217,65,63,0
568.32935,568.4417,65,78,0
568.32935,568.4417,58,66,0
568.5541,568.6722,63,80,0
568.5541,568.6722,55,68,0
569.0265,569.25726,51,77,0
569.0265,569.25726,39,65,0
569.25726,569.48804,55,72,0
569.25726,569.48804,43,61,0
569.48804,569.7153,56,80,0
569.48804,569.7153,44,68,0
569.7153,569.94257,60,73,0
569.7153,569.94257,48,62,0
569.94257,570.16315,63,73,0
569.94257,570.16315,51,62,0
570.16315,570.38794,68,73,0
570.16315,570.38794,56,62,0
570.38794,570.84247,70,73,0
570.38794,570.84247,58,62,0
570.84247,571.075,51,77,0
570.84247,571.075,39,65,0
571.075,571.3076,55,72,0
571.075,571.3076,43,61,0
571.3076,571.5357,58,80,0
571.3076,571.5357,46,68,0
571.5357,571.76385,62,69,0
571.5357,571.76385,50,58,0
571.76385,571.98444,65,73,0
571.76385,571.98444,53,62,0
571.98444,572.2101,69,77,0
571.98444,572.2101,57,65,0
571.98444,572.2101,66,65,0
572.2101,572.66986,70,82,0
572.2101,572.66986,58,69,0
572.2101,572.66986,67,69,0
572.66986,572.9061,51,77,0
572.66986,572.9061,39,65,0
572.9061,573.14233,55,72,0
572.9061,573.14233,43,61,0
573.14233,573.37006,56,80,0
573.14233,573.37006,44,68,0
573.37006,573.59644,60,73,0
573.37006,573.59644,48,62,0
573.59644,573.8162,63,73,0
573.59644,573.8162,51,62,0
573.8162,574.03516,68,73,0
573.8162,574.03516,56,62,0
574.03516,574.4897,70,73,0
574.03516,574.4897,58,62,0
574.4897,574.7223,51,77,0
574.4897,574.7223,39,65,0
574.7223,574.95483,55,72,0
574.7223,574.95483,43,61,0
574.95483,575.18384,58,80,0
574.95483,575.18384,46,68,0
575.18384,575.4111,62,69,0
575.18384,575.4111,50,58,0
575.4111,575.63165,65,73,0
575.4111,575.63165,53,62,0
575.63165,575.8523,69,77,0
575.63165,575.8523,57,65,0
575.63165,575.8523,66,65,0
575.8523,576.3103,70,82,0
575.8523,576.3103,58,69,0
575.8523,576.3103,67,69,0
576.3103,576.54285,51,77,0
576.3103,576.54285,39,65,0
576.54285,576.7754,55,72,0
576.54285,576.7754,43,61,0
576.7754,577.00616,56,80,0
576.7754,577.00616,44,68,0
577.00616,577.23694,60,73,0
577.00616,577.23694,48,62,0
577.23694,577.45917,63,73,0
577.23694,577.45917,51,62,0
577.45917,577.6814,68,73,0
577.45917,577.6814,56,62,0
577.6814,578.14294,70,73,0
577.6814,578.14294,58,62,0
578.3651,578.58734,75,64,0
578.3651,578.58734,63,54,0
578.58734,578.693,74,72,0
578.58734,578.693,62,51,0
578.79865,578.90894,77,62,0
578.79865,578.90894,65,44,0
579.0192,579.1249,73,70,0
579.0192,579.1249,61,59,0
579.23047,579.34076,77,65,0
579.23047,579.34076,65,55,0
579.44995,579.5548,72,72,0
579.44995,579.5548,60,51,0
579.6597,579.7692,77,62,0
579.6597,579.7692,65,44,0
579.8787,579.9836,71,70,0
579.8787,579.9836,59,59,0
580.0885,580.1956,74,65,0
580.0885,580.1956,62,55,0
580.3028,580.4053,68,72,0
580.3028,580.4053,56,61,0
580.508,580.6129,71,62,0
580.508,580.6129,59,52,0
580.71783,580.8185,66,71,0
580.71783,580.8185,54,71,0
580.9191,581.0226,71,66,0
580.9191,581.0226,59,66,0
581.12604,581.2274,64,74,0
581.12604,581.2274,52,63,0
581.32947,581.4336,68,65,0
581.32947,581.4336,56,54,0
581.5378,581.6384,63,74,0
581.5378,581.6384,51,74,0
581.73914,581.8426,68,69,0
581.73914,581.8426,56,69,0
581.94604,582.0467,64,77,0
581.94604,582.0467,52,65,0
582.14703,582.2505,68,67,0
582.14703,582.2505,56,56,0
582.35345,582.4528,60,77,0
582.35345,582.4528,48,77,0
582.55145,582.65375,68,72,0
582.55145,582.65375,56,72,0
582.7538,582.85114,59,80,0
582.7538,582.85114,47,68,0
582.94885,583.05023,62,70,0
582.94885,583.05023,50,58,0
583.1516,583.24866,56,79,0
583.1516,583.24866,44,79,0
583.34735,583.44806,59,74,0
583.34735,583.44806,47,74,0
583.5487,583.64484,53,83,0
583.5487,583.64484,41,70,0
583.741,583.8406,56,72,0
583.741,583.8406,44,60,0
583.938,584.0335,50,83,0
583.938,584.0335,38,83,0
584.1293,584.22925,53,79,0
584.1293,584.22925,41,79,0
584.3293,584.42444,49,90,0
584.3293,584.42444,37,76,0
584.52057,584.61926,53,79,0
584.52057,584.61926,41,65,0
584.7174,584.82227,47,90,0
584.7174,584.82227,35,90,0
584.92993,585.0472,53,85,0
584.92993,585.0472,41,85,0
585.17554,585.3854,46,85,0
585.17554,585.3854,34,72,0
585.3854,585.59515,56,61,0
585.3854,585.59515,62,61,0
585.3854,585.59515,65,72,0
585.59515,585.7023,58,78,0
585.59515,585.7023,46,66,0
585.80945,585.9222,56,61,0
585.80945,585.9222,62,61,0
585.80945,585.9222,65,73,0
586.035,586.1429,46,82,0
586.035,586.1429,34,69,0
586.2508,586.3587,55,61,0
586.2508,586.3587,63,61,0
586.2508,586.3587,67,72,0
586.4666,586.6825,58,80,0
586.4666,586.6825,46,68,0
586.6825,586.8983,55,62,0
586.6825,586.8983,63,62,0
586.6825,586.8983,67,74,0
586.8983,587.1081,46,85,0
586.8983,587.1081,34,72,0
587.1081,587.3179,56,61,0
587.1081,587.3179,62,61,0
587.1081,587.3179,65,72,0
587.3179,587.42505,58,78,0
587.3179,587.42505,46,66,0
587.53217,587.64496,56,61,0
587.53217,587.64496,62,61,0
587.53217,587.64496,65,73,0
587.75775,587.86566,46,82,0
587.75775,587.86566,34,69,0
587.9736,588.0815,55,61,0
587.9736,588.0815,63,61,0
587.9736,588.0815,67,72,0
588.1894,588.4052,58,80,0
588.1894,588.4052,46,68,0
588.4052,588.6552,55,62,0
588.4052,588.6552,63,62,0
588.4052,588.6552,67,74,0
588.6552,588.7762,48,84,0
588.6552,588.7762,36,71,0
588.89716,589.02875,47,78,0
588.89716,589.02875,35,66,0
589.1603,589.2864,46,83,0
589.1603,589.2864,34,70,0
589.6645,590.0743,68,91,0
589.6645,590.0743,56,77,0
590.0743,590.17566,67,88,0
590.0743,590.17566,55,74,0
590.277,590.3898,65,82,0
590.277,590.3898,53,69,0
590.50256,590.6053,70,90,0
590.50256,590.6053,58,75,0
590.70807,590.8129,62,81,0
590.70807,590.8129,50,68,0
590.91785,591.3374,63,88,0
590.91785,591.3374,51,74,0
591.3374,591.7471,56,91,0
591.3374,591.7471,44,77,0
591.7471,591.84985,55,88,0
591.7471,591.84985,43,74,0
591.9526,592.06537,53,82,0
591.9526,592.06537,41,69,0
592.1781,592.28156,58,90,0
592.1781,592.28156,46,75,0
592.385,592.4899,50,81,0
592.385,592.4899,38,68,0
592.5948,593.05255,51,88,0
592.5948,593.05255,39,74,0
593.05255,593.1745,48,84,0
593.05255,593.1745,36,71,0
593.29645,593.42804,47,78,0
593.29645,593.42804,35,66,0
593.5596,593.68567,46,83,0
593.5596,593.68567,34,70,0
594.0638,594.2812,49,85,0
594.0638,594.2812,37,72,0
594.2812,594.4986,58,61,0
594.2812,594.4986,61,61,0
594.2812,594.4986,65,72,0
594.4986,594.6057,58,78,0
594.4986,594.6057,46,66,0
594.7129,594.8256,58,61,0
594.7129,594.8256,61,61,0
594.7129,594.8256,65,73,0
594.9384,595.1574,51,85,0
594.9384,595.1574,39,72,0
595.1574,595.32166,58,61,0
595.1574,595.32166,63,61,0
595.1574,595.32166,67,72,0
595.3764,595.59863,49,85,0
595.3764,595.59863,37,72,0
595.59863,595.7893,61,61,0
595.59863,595.7893,65,72,0
595.59863,595.7893,58,61,0
595.85284,595.9719,48,84,0
595.85284,595.9719,36,71,0
596.09094,596.22253,47,78,0
596.09094,596.22253,35,66,0
596.3541,596.4823,46,83,0
596.3541,596.4823,34,70,0
596.86694,597.09424,49,85,0
596.86694,597.09424,37,72,0
597.09424,597.3181,58,61,0
597.09424,597.3181,61,61,0
597.09424,597.3181,65,72,0
597.3181,597.42523,49,78,0
597.3181,597.42523,37,66,0
597.5324,597.64777,58,61,0
597.5324,597.64777,61,61,0
597.5324,597.64777,65,73,0
597.7632,597.8759,48,85,0
597.7632,597.8759,36,72,0
597.9887,598.1015,55,61,0
597.9887,598.1015,58,61,0
597.9887,598.1015,64,72,0
598.2143,598.3271,41,66,0
598.2143,598.3271,53,78,0
598.4398,598.5526,57,61,0
598.4398,598.5526,63,61,0
598.4398,598.5526,65,73,0
598.6654,598.7864,48,84,0
598.6654,598.7864,36,71,0
598.90735,599.0334,47,78,0
598.90735,599.0334,35,66,0
599.1594,599.2855,46,83,0
599.1594,599.2855,34,70,0
599.66364,600.09845,58,77,0
599.66364,600.09845,65,91,0
599.66364,600.09845,61,77,0
599.66364,600.09845,53,77,0
600.09845,600.20557,64,88,0
600.09845,600.20557,52,74,0
600.31274,600.4255,65,82,0
600.31274,600.4255,53,69,0
600.53827,600.97626,58,77,0
600.53827,600.97626,63,77,0
600.53827,600.97626,67,91,0
600.53827,600.97626,55,77,0
600.97626,601.4385,65,88,0
600.97626,601.4385,61,74,0
600.97626,601.4385,53,74,0
600.97626,601.4385,58,74,0
601.4385,601.5635,48,84,0
601.4385,601.5635,36,71,0
601.6885,601.8189,47,78,0
601.6885,601.8189,35,66,0
601.94934,602.0798,46,83,0
601.94934,602.0798,34,70,0
602.47107,602.6273,67,81,0
602.47107,602.6273,55,68,0
602.6273,602.77655,65,68,0
602.6273,602.77655,53,57,0
602.77655,602.92584,64,68,0
602.77655,602.92584,52,57,0
602.92584,603.06866,63,75,0
602.92584,603.06866,51,63,0
603.06866,603.21704,62,70,0
603.06866,603.21704,50,59,0
603.21704,603.3709,61,70,0
603.21704,603.3709,49,59,0
603.3709,603.80884,52,77,0
603.3709,603.80884,55,77,0
603.3709,603.80884,60,91,0
603.3709,603.80884,48,77,0
603.80884,604.2853,53,88,0
603.80884,604.2853,48,74,0
603.80884,604.2853,41,74,0
603.80884,604.2853,45,74,0
604.2853,604.4103,48,84,0
604.2853,604.4103,36,71,0
604.5353,604.6669,47,78,0
604.5353,604.6669,35,66,0
604.79846,604.91943,46,83,0
604.79846,604.91943,34,70,0
605.1614,605.2131,68,64,0
605.2131,605.26483,70,64,0
605.26483,605.67896,68,73,0
605.67896,605.78534,67,69,0
605.8905,606.0008,65,62,0
606.10803,606.21295,70,70,0
606.3178,606.4277,62,63,0
606.5332,606.8849,63,71,0
606.8849,606.9439,64,64,0
606.9439,607.00104,66,64,0
607.00104,607.41327,64,73,0
607.41327,607.51965,63,69,0
607.6248,607.7351,61,62,0
607.84235,607.94727,66,70,0
608.0521,608.16016,58,63,0
608.6123,608.6683,60,64,0
608.6683,608.72424,62,64,0
608.26843,608.72424,59,71,0
608.72424,609.14307,60,73,0
609.14307,609.24725,59,69,0
609.35077,609.46106,57,62,0
609.5683,609.67316,62,70,0
609.7781,609.88605,54,63,0
609.9944,610.3152,55,71,0
610.43146,610.5393,56,65,0
610.43146,610.5393,44,55,0
610.6463,610.75244,62,55,0
610.6463,610.75244,50,46,0
610.85754,610.96063,57,65,0
610.85754,610.96063,45,55,0
611.0625,611.1631,51,47,0
611.0625,611.1631,63,56,0
611.26227,611.3636,58,70,0
611.26227,611.3636,46,59,0
611.46497,611.5663,55,51,0
611.46497,611.5663,67,60,0
611.66766,611.769,51,61,0
611.66766,611.769,63,72,0
611.87036,611.9743,58,51,0
611.87036,611.9743,70,61,0
612.08685,612.18616,65,72,0
612.08685,612.18616,53,61,0
612.2855,612.3848,62,52,0
612.2855,612.3848,74,62,0
612.4842,612.58356,58,63,0
612.4842,612.58356,70,75,0
612.68286,612.78314,65,53,0
612.68286,612.78314,77,63,0
612.8985,613.3126,68,73,0
612.8985,613.3126,56,62,0
613.3126,613.419,67,69,0
613.3126,613.419,55,58,0
613.52423,613.6345,65,62,0
613.52423,613.6345,53,52,0
613.74176,613.8467,70,70,0
613.74176,613.8467,58,59,0
613.95154,614.0614,62,63,0
613.95154,614.0614,50,53,0
614.16693,614.5186,63,71,0
614.16693,614.5186,51,60,0
614.63477,615.04694,64,73,0
614.63477,615.04694,52,62,0
615.04694,615.1533,63,69,0
615.04694,615.1533,51,58,0
615.25854,615.36884,61,62,0
615.25854,615.36884,49,52,0
615.4761,615.581,66,70,0
615.4761,615.581,54,59,0
615.68585,615.7939,58,63,0
615.68585,615.7939,46,53,0
615.90216,616.246,59,71,0
615.90216,616.246,47,60,0
616.3579,616.7768,60,73,0
616.3579,616.7768,48,62,0
616.7768,616.881,59,69,0
616.7768,616.881,47,58,0
616.98444,617.0947,57,62,0
616.98444,617.0947,45,52,0
617.20197,617.3069,62,70,0
617.20197,617.3069,50,59,0
617.4118,617.5198,54,63,0
617.4118,617.5198,42,53,0
617.62805,617.9489,55,71,0
617.62805,617.9489,43,60,0
618.0652,618.17303,56,65,0
618.0652,618.17303,44,55,0
618.28,618.3861,62,55,0
618.28,618.3861,50,46,0
618.4897,618.59174,57,65,0
618.4897,618.59174,45,55,0
618.6924,618.7919,51,47,0
618.6924,618.7919,63,56,0
618.89,618.99133,58,69,0
618.89,618.99133,46,58,0
619.0927,619.19403,55,48,0
619.0927,619.19403,67,57,0
619.2954,619.3967,51,58,0
619.2954,619.3967,63,69,0
619.4981,619.602,58,48,0
619.4981,619.602,70,57,0
619.7146,619.81323,67,71,0
619.7146,619.81323,55,60,0
619.9119,620.0106,63,50,0
619.9119,620.0106,75,59,0
620.1093,620.20795,58,61,0
620.1093,620.20795,70,72,0
620.30664,620.4063,67,55,0
620.30664,620.4063,79,55,0
620.52167,620.62103,77,64,0
620.52167,620.62103,65,64,0
620.72034,620.8197,74,58,0
620.72034,620.8197,62,58,0
620.919,621.0183,70,57,0
620.919,621.0183,58,57,0
621.1177,621.217,68,57,0
621.1177,621.217,56,57,0
621.3249,621.42426,65,64,0
621.3249,621.42426,53,64,0
621.52356,621.6229,62,58,0
621.52356,621.6229,50,58,0
621.7223,621.8216,58,57,0
621.7223,621.8216,46,57,0
621.92096,622.02026,56,59,0
621.92096,622.02026,44,59,0
622.13654,622.2366,53,70,0
622.13654,622.2366,41,70,0
622.33655,622.4366,50,66,0
622.33655,622.4366,38,66,0
622.53656,622.63654,46,68,0
622.53656,622.63654,34,68,0
622.7366,622.83655,45,71,0
622.7366,622.83655,33,71,0
622.9366,623.0352,44,84,0
622.9366,623.0352,32,84,0
623.1339,623.2326,43,80,0
623.1339,623.2326,31,80,0
623.3314,623.4315,41,81,0
623.3314,623.4315,29,81,0
623.5335,623.63727,46,85,0
623.5335,623.63727,34,85,0
623.7428,623.8428,39,94,0
623.7428,623.8428,27,79,0
623.94275,624.0428,46,87,0
623.94275,624.0428,34,73,0
624.14276,624.2428,51,93,0
624.14276,624.2428,39,78,0
624.3421,624.4414,58,87,0
624.3421,624.4414,46,73,0
624.54706,624.6471,63,93,0
624.54706,624.6471,51,78,0
624.7471,624.84705,58,81,0
624.7471,624.84705,46,69,0
624.94574,625.04407,51,88,0
624.94574,625.04407,39,74,0
625.14246,625.2408,46,84,0
625.14246,625.2408,34,71,0
625.34796,625.44696,51,93,0
625.34796,625.44696,39,78,0
625.54596,625.64496,58,81,0
625.54596,625.64496,46,69,0
625.74396,625.84296,63,88,0
625.74396,625.84296,51,74,0
625.94196,626.04095,58,84,0
625.94196,626.04095,46,71,0
626.15045,626.2505,51,93,0
626.15045,626.2505,39,78,0
626.35046,626.45044,46,81,0
626.35046,626.45044,34,69,0
626.5505,626.65125,51,88,0
626.5505,626.65125,39,74,0
626.7538,626.8583,58,84,0
626.7538,626.8583,46,71,0
626.96466,627.07184,63,93,0
626.96466,627.07184,51,78,0
627.28613,627.3899,63,75,0
627.28613,627.3899,55,64,0
627.28613,627.3899,51,64,0
627.28613,627.3899,58,64,0
627.3899,627.4971,63,80,0
627.3899,627.4971,51,68,0
627.3899,627.4971,55,68,0
627.3899,627.4971,58,68,0
627.7113,627.8184,51,76,0
627.7113,627.8184,46,65,0
627.7113,627.8184,39,65,0
627.8184,627.9256,51,80,0
627.8184,627.9256,46,68,0
627.8184,627.9256,39,68,0
628.13727,628.24176,67,75,0
628.13727,628.24176,55,64,0
628.13727,628.24176,58,64,0
628.13727,628.24176,63,64,0
628.24176,628.3485,67,80,0
628.24176,628.3485,58,68,0
628.24176,628.3485,55,68,0
628.24176,628.3485,63,68,0
628.562,628.66876,51,76,0
628.562,628.66876,46,65,0
628.562,628.66876,39,65,0
628.66876,628.7755,51,80,0
628.66876,628.7755,46,68,0
628.66876,628.7755,39,68,0
629.5228,629.6311,67,88,0
629.5228,629.6311,55,74,0
629.5228,629.6311,58,74,0
629.5228,629.6311,63,74,0
630.38916,630.4975,79,88,0
630.38916,630.4975,67,74,0
630.38916,630.4975,70,74,0
630.38916,630.4975,75,74,0
