start_time,end_time,note_value,velocity,instrument_program_number
2.325,2.4077814,63,71,0
2.4243379,5.4872518,63,74,0
5.503808,5.5865893,60,56,0
5.503808,5.5865893,66,56,0
5.503808,5.5865893,68,66,0
5.6031456,8.6660595,68,71,0
5.6031456,8.6660595,66,59,0
5.6031456,8.6660595,60,59,0
8.682616,8.765397,59,56,0
8.682616,8.765397,66,56,0
8.682616,8.765397,69,66,0
8.781954,9.579826,59,58,0
8.781954,9.579826,66,58,0
8.781954,9.579826,69,70,0
9.633018,10.4663515,66,60,0
9.633018,10.4663515,69,72,0
9.633018,10.4663515,59,60,0
10.521907,11.380686,69,74,0
10.521907,11.380686,65,63,0
11.437938,12.08835,69,74,0
11.437938,12.08835,63,63,0
12.524216,15.050532,70,72,0
12.436657,15.050532,65,63,0
12.351742,15.050532,62,63,0
15.050532,15.171744,74,41,0
15.050532,15.171744,70,36,0
15.17932,15.300193,65,36,0
15.17932,15.300193,62,36,0
15.307655,15.427058,77,41,0
15.307655,15.427058,74,36,0
15.307655,15.427058,70,36,0
15.434521,15.553156,65,36,0
15.434521,15.553156,70,36,0
15.560509,15.678156,77,36,0
15.560509,15.678156,74,36,0
15.560509,15.678156,82,41,0
15.685509,15.794738,74,36,0
15.685509,15.794738,70,36,0
15.807238,15.899204,86,41,0
15.807238,15.899204,82,36,0
15.807238,15.899204,77,36,0
15.911144,15.998742,77,36,0
15.911144,15.998742,74,36,0
16.010172,16.093733,89,41,0
16.010172,16.093733,86,36,0
16.010172,16.093733,82,36,0
16.104603,16.180672,82,36,0
16.104603,16.180672,77,36,0
16.190287,16.258905,89,37,0
16.190287,16.258905,86,37,0
16.190287,16.258905,94,43,0
16.267834,16.332663,86,39,0
16.267834,16.332663,82,39,0
16.340996,16.402287,89,41,0
16.340996,16.402287,94,41,0
16.340996,16.402287,98,45,0
16.410225,16.467937,89,48,0
16.410225,16.467937,86,43,0
16.482975,18.24768,101,44,0
16.482975,18.24768,98,49,0
16.482975,18.24768,94,44,0
18.24768,18.570263,88,36,0
18.24768,18.570263,97,41,0
18.24768,18.570263,94,36,0
18.570263,18.844234,99,37,0
18.570263,18.844234,91,33,0
18.844234,19.055079,98,38,0
18.844234,19.055079,89,35,0
19.0852,19.317757,85,36,0
19.0852,19.317757,89,36,0
19.0852,19.317757,93,41,0
19.317757,19.49167,96,37,0
19.317757,19.49167,87,33,0
19.49167,19.637503,94,37,0
19.49167,19.637503,86,33,0
19.658337,19.819628,82,36,0
19.658337,19.819628,85,36,0
19.658337,19.819628,88,41,0
19.819628,19.95568,91,38,0
19.819628,19.95568,86,35,0
19.95568,20.068584,89,38,0
19.95568,20.068584,82,35,0
20.084713,20.217165,85,41,0
20.084713,20.217165,82,36,0
20.084713,20.217165,76,36,0
20.217165,20.342165,87,37,0
20.217165,20.342165,79,33,0
20.342165,20.445105,86,38,0
20.342165,20.445105,77,35,0
20.45981,20.567919,73,36,0
20.45981,20.567919,77,36,0
20.45981,20.567919,81,41,0
20.567919,20.669441,84,37,0
20.567919,20.669441,75,33,0
20.669441,20.758274,82,38,0
20.669441,20.758274,74,35,0
20.770966,20.875132,70,37,0
20.770966,20.875132,73,37,0
20.770966,20.875132,76,43,0
20.875132,20.970825,79,41,0
20.875132,20.970825,74,36,0
20.970825,21.054558,70,36,0
20.970825,21.054558,77,42,0
21.066519,21.165041,70,39,0
21.066519,21.165041,73,45,0
21.066519,21.165041,64,39,0
21.165041,21.258938,75,42,0
21.165041,21.258938,67,36,0
21.258938,21.341301,74,41,0
21.258938,21.341301,65,36,0
21.353378,21.449997,61,42,0
21.353378,21.449997,65,42,0
21.353378,21.449997,69,46,0
21.449997,21.54174,72,44,0
21.449997,21.54174,63,38,0
21.54174,21.622015,70,45,0
21.54174,21.622015,62,39,0
21.633484,21.726507,61,44,0
21.633484,21.726507,58,44,0
21.633484,21.726507,64,49,0
21.726507,21.814613,67,45,0
21.726507,21.814613,62,41,0
21.814613,21.891705,65,45,0
21.814613,21.891705,58,41,0
21.902718,21.993628,58,49,0
21.902718,21.993628,61,55,0
21.902718,21.993628,52,49,0
21.993628,22.080584,63,52,0
21.993628,22.080584,55,45,0
22.080584,22.156672,62,52,0
22.080584,22.156672,53,45,0
22.16754,22.260565,49,52,0
22.16754,22.260565,53,52,0
22.16754,22.260565,57,58,0
22.260565,22.348284,51,48,0
22.260565,22.348284,60,54,0
22.348284,22.425037,58,54,0
22.348284,22.425037,50,48,0
22.436003,22.53124,46,55,0
22.436003,22.53124,49,55,0
22.436003,22.53124,52,63,0
22.53124,22.620129,55,59,0
22.53124,22.620129,50,53,0
22.620129,22.697906,53,59,0
22.620129,22.697906,46,53,0
22.709019,22.804712,40,62,0
22.709019,22.804712,46,62,0
22.709019,22.804712,49,69,0
22.804712,22.902752,51,63,0
22.804712,22.902752,43,55,0
22.902752,22.992495,50,63,0
22.902752,22.992495,41,55,0
25.396465,25.76232,94,64,0
25.300312,25.76232,80,53,0
25.332363,25.76232,86,57,0
25.364414,25.76232,89,60,0
26.128174,29.386093,58,66,0
29.386093,29.453083,81,41,0
29.461761,29.529451,82,36,0
29.53813,29.605343,87,38,0
29.61368,29.678715,84,36,0
29.687052,29.752087,82,36,0
29.760426,29.825459,80,36,0
29.833797,29.898832,79,33,0
30.711231,30.917652,63,30,0
30.711231,30.917652,58,27,0
30.711231,30.917652,55,27,0
31.26169,31.470022,56,28,0
31.26169,31.470022,58,28,0
31.26169,31.470022,65,32,0
31.817245,32.03569,58,27,0
31.817245,32.03569,57,27,0
31.817245,32.03569,66,31,0
32.39977,33.052,67,33,0
32.39977,33.052,58,29,0
33.052,33.378086,63,30,0
33.052,33.378086,55,27,0
33.704174,33.755592,81,41,0
33.764458,33.815876,82,36,0
33.82474,33.87616,91,36,0
33.884903,33.93456,89,36,0
33.943123,33.99278,87,36,0
34.001343,34.051,86,36,0
34.05956,34.10922,84,36,0
34.11778,34.16744,82,36,0
34.176,34.22566,80,36,0
34.23422,34.283875,79,33,0
35.072704,35.28497,58,26,0
35.072704,35.28497,55,26,0
35.072704,35.28497,63,26,0
35.63874,35.873116,65,32,0
35.63874,35.873116,62,28,0
35.63874,35.873116,56,28,0
36.26374,36.528446,67,30,0
36.26374,36.528446,58,27,0
36.969624,38.589344,63,30,0
36.969624,38.589344,55,27,0
38.659763,38.718357,93,41,0
38.722263,38.780857,94,36,0
38.784763,38.83164,99,38,0
38.835545,38.88242,96,36,0
38.886326,38.9332,94,36,0
38.937107,38.983982,92,36,0
38.98789,39.034763,91,33,0
40.13207,40.3404,55,29,0
40.13207,40.3404,58,29,0
40.13207,40.3404,63,33,0
40.687622,40.90397,56,31,0
40.687622,40.90397,58,31,0
40.687622,40.90397,65,36,0
41.264545,41.50139,57,30,0
41.264545,41.50139,58,30,0
41.264545,41.50139,66,35,0
41.896126,42.5938,67,36,0
41.896126,42.5938,58,32,0
42.5938,43.016335,63,33,0
42.5938,43.016335,55,29,0
43.43887,43.512104,93,41,0
43.517155,43.590385,94,36,0
43.595436,43.64594,103,36,0
43.65099,43.701496,101,36,0
43.706547,43.757053,99,36,0
43.762104,43.812607,98,36,0
43.817657,43.868164,96,36,0
43.873215,43.923717,94,36,0
43.92877,43.979275,92,36,0
43.984325,44.03483,91,33,0
45.191532,45.409977,55,32,0
45.191532,45.409977,58,32,0
45.191532,45.409977,63,36,0
45.774055,46.006016,65,37,0
45.774055,46.006016,62,33,0
45.774055,46.006016,56,33,0
46.392612,46.681076,67,36,0
46.392612,46.681076,56,32,0
46.392612,46.681076,62,32,0
47.161842,48.759068,63,35,0
47.161842,48.759068,55,30,0
50.17377,50.378315,58,45,0
50.17377,50.378315,62,50,0
50.719223,50.931488,63,56,0
50.719223,50.931488,58,50,0
50.719223,50.931488,60,50,0
51.28526,51.51026,64,51,0
51.28526,51.51026,61,45,0
51.28526,51.51026,58,45,0
51.88526,52.537434,65,52,0
51.88526,52.537434,62,45,0
52.537434,52.89888,62,49,0
52.537434,52.89888,58,44,0
54.68201,54.894276,58,44,0
54.68201,54.894276,62,49,0
55.24805,55.47082,63,53,0
55.24805,55.47082,57,46,0
55.849422,56.093987,65,50,0
55.849422,56.093987,57,45,0
56.501595,57.92135,62,51,0
56.501595,57.92135,58,45,0
57.983078,58.039764,70,58,0
58.041218,58.097904,69,58,0
58.099358,58.156044,68,58,0
58.157497,58.21418,67,58,0
58.448193,58.50488,62,64,0
58.506332,58.56302,61,67,0
58.564472,58.62116,60,70,0
58.622612,58.6793,59,72,0
58.68075,58.80575,58,87,0
59.18075,59.385296,70,46,0
59.18075,59.385296,62,46,0
59.18075,59.385296,74,53,0
59.726204,59.93454,70,51,0
59.726204,59.93454,75,57,0
59.726204,59.93454,63,51,0
60.28176,60.50676,64,48,0
60.28176,60.50676,70,48,0
60.28176,60.50676,76,54,0
60.88176,61.533936,77,55,0
61.533936,61.89108,74,52,0
60.88176,62.188698,65,45,0
60.88176,62.188698,70,45,0
62.808826,62.87701,60,57,0
62.878902,62.947086,62,58,0
62.94898,63.01716,63,60,0
63.019054,63.087234,64,62,0
63.08913,63.15542,67,63,0
63.880203,64.58608,68,36,0
63.880203,64.58608,74,42,0
63.15731,64.81864,65,55,0
64.81864,65.0512,65,43,0
65.0512,65.29812,67,37,0
64.58608,65.29812,75,45,0
64.58608,65.29812,69,41,0
65.29812,65.56478,63,43,0
65.56478,65.83875,60,39,0
65.83875,65.94745,62,38,0
65.29812,66.27354,77,41,0
65.29812,66.27354,72,36,0
66.27354,67.82759,74,38,0
66.21919,67.82759,70,36,0
66.1105,67.82759,58,36,0
66.16484,67.82759,65,36,0
67.87432,68.07343,77,46,0
67.87432,68.07343,73,46,0
67.87432,68.07343,82,46,0
68.07343,68.13981,81,38,0
68.13981,68.229095,72,38,0
68.13981,68.229095,80,38,0
68.229095,68.31791,71,39,0
68.229095,68.31791,74,39,0
68.229095,68.31791,79,39,0
68.31791,68.40595,78,41,0
68.31791,68.40595,70,41,0
68.40595,68.49324,69,42,0
68.40595,68.49324,72,42,0
68.40595,68.49324,77,42,0
68.49324,68.579704,68,43,0
68.49324,68.579704,76,43,0
68.579704,68.665436,67,44,0
68.579704,68.665436,70,44,0
68.579704,68.665436,75,44,0
68.665436,68.75045,66,45,0
68.665436,68.75045,74,45,0
68.75045,68.834755,73,46,0
68.75045,68.834755,68,46,0
68.75045,68.834755,65,46,0
68.834755,68.95771,67,48,0
68.834755,68.95771,72,48,0
68.834755,68.95771,64,48,0
69.32656,69.500534,55,37,0
69.32656,69.500534,64,43,0
69.32656,69.500534,58,37,0
69.78608,69.981735,61,41,0
69.78608,69.981735,65,45,0
69.78608,69.981735,56,41,0
70.30782,70.49363,68,43,0
70.30782,70.49363,62,37,0
70.30782,70.49363,59,37,0
70.84016,71.422676,64,37,0
70.84016,71.422676,67,43,0
71.422676,71.65464,60,36,0
71.422676,71.65464,55,32,0
72.04124,72.24035,82,50,0
72.04124,72.24035,73,50,0
72.04124,72.24035,77,50,0
72.24035,72.306725,81,41,0
72.306725,72.3926,80,42,0
72.306725,72.3926,72,42,0
72.3926,72.47833,71,43,0
72.3926,72.47833,74,43,0
72.3926,72.47833,79,43,0
72.47833,72.56356,70,44,0
72.47833,72.56356,78,44,0
72.56356,72.64822,69,45,0
72.56356,72.64822,72,45,0
72.56356,72.64822,77,45,0
72.64822,72.732735,68,45,0
72.64822,72.732735,76,45,0
72.732735,72.81669,75,46,0
72.732735,72.81669,70,46,0
72.732735,72.81669,67,46,0
72.81669,72.90016,66,49,0
72.81669,72.90016,74,49,0
72.90016,72.98322,65,50,0
72.90016,72.98322,73,50,0
72.90016,72.98322,68,50,0
72.98322,73.10617,72,51,0
72.98322,73.10617,67,51,0
72.98322,73.10617,64,51,0
73.47503,73.648994,70,37,0
73.47503,73.648994,64,37,0
73.47503,73.648994,67,37,0
73.47503,73.648994,76,43,0
73.93455,74.12362,68,42,0
73.93455,74.12362,65,42,0
73.93455,74.12362,73,42,0
73.93455,74.12362,77,46,0
74.43874,74.63593,74,37,0
74.43874,74.63593,68,37,0
74.43874,74.63593,71,37,0
74.43874,74.63593,80,43,0
74.98721,75.56973,67,37,0
74.98721,75.56973,79,43,0
74.98721,75.56973,76,37,0
75.56973,75.8091,72,36,0
76.20803,76.305595,65,50,0
76.305595,76.40315,64,45,0
76.40315,76.49584,63,45,0
76.49584,76.58727,62,46,0
76.58727,76.677895,61,49,0
76.677895,76.76773,60,50,0
76.76773,76.85678,59,51,0
76.85678,76.94502,58,53,0
76.94502,77.032455,57,54,0
77.032455,77.11915,56,55,0
76.20803,77.11915,68,50,0
77.11915,77.242096,62,57,0
77.11915,77.242096,65,57,0
77.610954,77.78492,53,41,0
77.610954,77.78492,62,45,0
77.610954,77.78492,56,41,0
78.07047,78.24904,59,45,0
78.07047,78.24904,63,45,0
78.07047,78.24904,54,45,0
78.54666,78.73681,66,46,0
78.54666,78.73681,60,42,0
78.54666,78.73681,57,42,0
79.071495,79.65973,62,45,0
79.071495,79.65973,65,51,0
79.65973,79.90973,58,44,0
79.65973,79.90973,53,38,0
80.32639,80.417305,64,50,0
80.417305,80.50822,63,45,0
80.50822,80.598495,62,45,0
80.598495,80.68872,61,46,0
80.68872,80.77839,60,49,0
80.77839,80.86783,59,50,0
80.86783,80.95672,58,51,0
80.95672,81.04555,57,53,0
81.04555,81.13379,56,54,0
81.13379,81.221756,59,55,0
80.32639,81.221756,68,50,0
81.221756,81.3447,65,57,0
81.221756,81.3447,62,57,0
81.713554,81.90586,65,45,0
81.713554,81.90586,74,52,0
81.713554,81.90586,68,45,0
81.713554,81.90586,62,45,0
82.22638,82.41233,71,60,0
82.22638,82.41233,75,67,0
82.22638,82.41233,66,60,0
82.22638,82.41233,63,60,0
82.722244,82.91926,66,60,0
82.722244,82.91926,72,60,0
82.722244,82.91926,78,67,0
82.722244,82.91926,69,60,0
83.28011,83.94678,82,79,0
83.23935,83.94678,65,63,0
83.25294,83.94678,70,63,0
83.266525,83.94678,74,63,0
83.94678,84.19678,58,65,0
84.787865,84.846,93,70,0
84.787865,84.846,81,63,0
84.92352,85.023346,79,63,0
84.92352,85.023346,91,71,0
85.07678,85.178856,77,65,0
85.07678,85.178856,89,73,0
85.22772,85.331985,75,67,0
85.22772,85.331985,87,76,0
85.37643,85.4828,85,78,0
85.37643,85.4828,73,70,0
85.52295,85.64046,71,72,0
85.52295,85.64046,83,81,0
86.135956,86.74201,53,63,0
86.135956,86.74201,50,63,0
86.135956,86.74201,62,70,0
86.135956,86.74201,58,63,0
86.916435,86.97457,97,70,0
86.916435,86.97457,85,63,0
87.05209,87.15192,83,63,0
87.05209,87.15192,95,71,0
87.20535,87.30743,81,65,0
87.20535,87.30743,93,73,0
87.35629,87.46055,79,67,0
87.35629,87.46055,91,76,0
87.505,87.611374,77,70,0
87.505,87.611374,89,78,0
87.65152,87.76903,87,81,0
87.65152,87.76903,75,72,0
88.26453,88.80506,62,63,0
88.26453,88.80506,65,70,0
88.26453,88.80506,53,63,0
88.26453,88.80506,58,63,0
88.92702,89.048965,100,66,0
88.92702,89.048965,88,59,0
89.125305,89.200775,86,59,0
89.125305,89.200775,98,66,0
89.27512,89.348656,84,60,0
89.27512,89.348656,96,67,0
89.42138,89.49384,82,60,0
89.42138,89.49384,94,67,0
89.56631,89.63877,80,62,0
89.56631,89.63877,92,69,0
89.711235,89.7837,90,69,0
89.711235,89.7837,78,62,0
89.85616,89.92863,76,63,0
89.85616,89.92863,88,70,0
90.00109,90.073555,74,63,0
90.00109,90.073555,86,70,0
90.14602,90.22754,72,63,0
90.14602,90.22754,84,71,0
90.29095,90.38153,70,63,0
90.29095,90.38153,82,71,0
90.435875,90.52645,68,64,0
90.435875,90.52645,80,72,0
90.5808,90.67138,66,64,0
90.5808,90.67138,78,72,0
90.72573,90.816444,76,72,0
90.72573,90.816444,64,64,0
90.871185,90.96624,62,64,0
90.871185,90.96624,74,72,0
91.01771,91.117165,72,73,0
91.01771,91.117165,60,65,0
91.16531,91.26923,58,65,0
91.16531,91.26923,70,73,0
91.31401,91.42248,56,65,0
91.31401,91.42248,68,73,0
91.46383,91.5769,50,65,0
91.46383,91.5769,62,73,0
91.99356,92.06932,45,74,0
92.06932,92.144226,46,72,0
92.144226,92.22777,50,72,0
92.218575,92.30279,53,73,0
92.29184,92.37716,56,73,0
92.36456,92.45054,58,74,0
92.43625,92.52375,62,74,0
92.50768,92.59696,65,76,0
92.57911,92.650536,68,76,0
92.650536,92.72196,70,77,0
92.72196,92.79391,74,77,0
92.79391,92.86585,77,77,0
92.86585,92.95218,80,78,0
92.95218,93.03872,82,78,0
93.03872,93.12568,86,79,0
93.12568,93.21263,89,80,0
93.21263,93.29986,92,80,0
93.29986,93.35194,93,81,0
93.37069,93.43312,96,78,0
93.44138,93.503365,94,77,0
93.511635,93.57341,92,77,0
93.58161,93.64308,89,77,0
93.65128,93.712425,86,77,0
93.72055,93.78153,82,77,0
93.793724,93.85421,81,81,0
93.862274,93.930824,84,78,0
93.930824,93.99937,82,77,0
93.99937,94.06792,80,77,0
94.06792,94.13647,77,77,0
94.13647,94.20502,74,77,0
94.20502,94.27356,70,77,0
94.277596,94.33808,69,81,0
94.346146,94.41469,72,78,0
94.41469,94.48324,70,77,0
94.48324,94.55179,68,77,0
94.55179,94.62034,65,77,0
94.62034,94.68889,62,77,0
94.68889,94.75743,58,76,0
94.76147,94.85088,57,78,0
94.84728,94.93745,58,80,0
94.93382,95.02509,62,83,0
95.021416,95.12305,65,85,0
95.110085,95.19981,68,88,0
95.74393,95.82376,70,81,0
95.74393,95.82376,58,64,0
95.912285,96.03839,62,58,0
95.912285,96.03839,74,73,0
96.08129,96.19953,60,59,0
96.08129,96.19953,72,74,0
96.24016,96.35247,58,62,0
96.24016,96.35247,70,77,0
96.390816,96.496796,56,63,0
96.390816,96.496796,68,79,0
96.532906,96.633995,54,64,0
96.532906,96.633995,66,81,0
96.66866,96.76473,52,65,0
96.66866,96.76473,64,82,0
96.79756,96.889595,50,66,0
96.79756,96.889595,62,84,0
96.92123,97.00908,60,86,0
96.92123,97.00908,48,69,0
97.55075,97.77802,75,81,0
97.55075,97.77802,67,64,0
97.55075,97.77802,63,64,0
98.0962,98.32985,77,87,0
98.0962,98.32985,68,70,0
98.0962,98.32985,65,70,0
98.65695,98.90447,78,81,0
98.65695,98.90447,69,64,0
98.65695,98.90447,66,64,0
99.25101,99.89617,79,87,0
99.25101,99.89617,67,70,0
99.25101,99.89617,70,70,0
99.89617,100.18743,75,80,0
99.89617,100.18743,63,64,0
100.660835,100.714035,70,77,0
100.660835,100.714035,58,77,0
100.802795,100.93058,77,70,0
100.802795,100.93058,65,70,0
100.97177,101.09245,74,72,0
100.97177,101.09245,62,72,0
101.13145,101.24506,70,74,0
101.13145,101.24506,58,74,0
101.28211,101.390076,67,76,0
101.28211,101.390076,55,76,0
101.42502,101.5278,63,79,0
101.42502,101.5278,51,79,0
101.56121,101.673515,60,81,0
101.56121,101.673515,48,81,0
102.13013,102.370514,75,79,0
102.13013,102.370514,67,71,0
102.13013,102.370514,63,71,0
102.70705,102.95705,77,85,0
102.70705,102.95705,68,76,0
102.70705,102.95705,65,76,0
103.30705,103.594406,79,79,0
103.30705,103.594406,70,71,0
103.30705,103.594406,67,71,0
103.996704,105.17017,75,74,0
103.996704,105.17017,67,66,0
103.996704,105.17017,63,66,0
105.22119,105.286415,93,41,0
105.290764,105.35539,94,36,0
105.359146,105.40426,99,38,0
105.40802,105.45313,96,36,0
105.456894,105.50201,94,36,0
105.50574,105.550514,92,36,0
105.554245,105.59902,91,33,0
106.67893,106.89528,63,33,0
106.67893,106.89528,58,29,0
106.67893,106.89528,55,29,0
107.25586,107.48545,65,36,0
107.25586,107.48545,59,31,0
107.25586,107.48545,56,31,0
107.8681,108.1181,66,35,0
107.8681,108.1181,60,30,0
107.8681,108.1181,57,30,0
108.53477,109.232445,67,35,0
108.53477,109.232445,59,30,0
109.232445,109.65498,62,32,0
109.232445,109.65498,55,28,0
110.077515,110.14448,94,27,0
110.14448,110.21144,95,27,0
110.21144,110.278404,103,29,0
110.278404,110.345375,102,29,0
110.345375,110.40736,100,29,0
110.40736,110.46934,98,29,0
110.46934,110.530815,96,29,0
110.530815,110.59229,95,28,0
110.59229,110.65327,93,28,0
110.65327,110.71424,91,28,0
110.71424,110.77473,90,28,0
110.77473,110.83521,88,28,0
110.83521,110.89521,86,27,0
110.89521,110.95521,84,27,0
110.95521,111.01473,83,27,0
111.01473,111.073944,81,27,0
111.073944,111.29894,79,27,0
111.67394,112.26534,67,36,0
111.67394,112.26534,64,32,0
111.67394,112.26534,60,32,0
112.31911,112.900505,65,32,0
112.31911,112.900505,68,36,0
112.31911,112.900505,60,32,0
113.01678,113.82561,70,35,0
113.01678,113.82561,62,30,0
113.01678,113.82561,56,30,0
113.89913,115.74339,70,33,0
113.89913,115.74339,63,29,0
113.89913,115.74339,55,29,0
116.981766,117.147514,55,79,0
117.64035,117.96121,67,78,0
117.31326,118.27458,60,82,0
118.27458,118.579994,59,79,0
117.96121,118.891624,62,82,0
118.891624,119.04314,65,79,0
118.583855,119.493225,74,82,0
119.493225,119.64029,67,83,0
119.19466,119.78436,63,81,0
120.07819,120.220375,72,77,0
119.78676,120.220375,79,86,0
120.220375,120.36255,80,72,0
120.36255,120.69963,72,77,0
120.69963,121.08424,71,72,0
120.69963,121.08424,62,64,0
120.36255,121.08424,74,77,0
121.08424,121.613754,79,76,0
121.08424,121.613754,91,85,0
121.08424,121.613754,86,76,0
121.08424,121.613754,83,76,0
121.613754,121.73396,79,67,0
121.613754,121.73396,91,76,0
121.774025,121.891045,92,79,0
121.774025,121.891045,80,71,0
121.93005,122.041756,91,76,0
121.93005,122.041756,79,67,0
122.078995,122.1907,92,76,0
122.078995,122.1907,80,67,0
122.227936,122.34194,86,76,0
122.227936,122.34194,74,67,0
122.379944,122.49514,79,71,0
122.379944,122.49514,91,79,0
122.53354,122.64249,90,76,0
122.53354,122.64249,78,67,0
122.6788,122.78775,91,76,0
122.6788,122.78775,79,67,0
122.824066,122.935776,72,67,0
122.824066,122.935776,84,76,0
122.97301,123.08701,77,71,0
122.97301,123.08701,89,79,0
123.125015,123.23343,88,77,0
123.125015,123.23343,76,69,0
123.26956,123.377975,89,77,0
123.26956,123.377975,77,69,0
123.414116,123.525826,83,77,0
123.414116,123.525826,71,69,0
123.56306,123.67477,87,79,0
123.56306,123.67477,75,71,0
123.712,123.82504,86,76,0
123.712,123.82504,74,67,0
123.86273,123.9758,87,76,0
123.86273,123.9758,75,67,0
124.01349,124.1406,84,76,0
124.01349,124.1406,72,67,0
124.182976,124.332466,84,76,0
124.182976,124.332466,72,67,0
124.332466,124.45898,82,72,0
124.332466,124.45898,70,64,0
124.484276,124.630615,82,72,0
124.484276,124.630615,70,64,0
124.630615,124.757126,80,72,0
124.630615,124.757126,68,64,0
124.782036,124.9291,80,77,0
124.782036,124.9291,68,69,0
124.9291,125.0556,79,72,0
124.9291,125.0556,67,64,0
125.0809,125.22964,79,72,0
125.0809,125.22964,67,64,0
125.22964,125.35615,78,72,0
125.22964,125.35615,66,64,0
125.38145,125.53559,78,76,0
125.38145,125.53559,66,67,0
125.53559,125.64865,79,74,0
125.53559,125.64865,67,66,0
125.68634,125.86927,79,85,0
125.68634,125.86927,91,95,0
126.049515,126.55231,67,82,0
126.049515,126.55231,55,73,0
126.55231,126.71991,63,79,0
126.55231,126.71991,51,71,0
126.71991,126.88033,60,82,0
126.71991,126.88033,48,73,0
126.88033,127.03458,59,78,0
126.88033,127.03458,47,70,0
127.03458,127.14918,60,78,0
127.03458,127.14918,48,70,0
127.18725,127.3007,62,78,0
127.18725,127.3007,50,70,0
127.33826,127.49451,63,82,0
127.33826,127.49451,51,73,0
127.49451,127.64603,62,78,0
127.49451,127.64603,50,70,0
127.64603,127.75966,63,78,0
127.64603,127.75966,51,70,0
127.79754,127.91118,65,78,0
127.79754,127.91118,53,70,0
127.94906,128.10179,67,82,0
127.94906,128.10179,55,73,0
128.10179,128.25058,66,79,0
128.10179,128.25058,54,71,0
128.25058,128.36218,67,79,0
128.25058,128.36218,55,71,0
128.39938,128.51097,69,79,0
128.39938,128.51097,57,71,0
128.54817,128.69852,71,85,0
128.54817,128.69852,59,76,0
128.69852,128.84431,69,79,0
128.69852,128.84431,57,71,0
128.84431,128.95364,71,79,0
128.84431,128.95364,59,71,0
128.9901,129.09943,67,79,0
128.9901,129.09943,55,71,0
129.13588,129.28366,72,88,0
129.13588,129.28366,60,79,0
129.28366,129.4272,71,80,0
129.28366,129.4272,59,72,0
129.4272,129.53487,72,80,0
129.4272,129.53487,60,72,0
129.57074,129.6784,74,80,0
129.57074,129.6784,62,72,0
129.71338,129.857,75,92,0
129.71338,129.857,63,83,0
129.857,129.99379,74,81,0
129.857,129.99379,62,72,0
129.99379,130.09639,75,81,0
129.99379,130.09639,63,72,0
130.13058,130.23318,77,81,0
130.13058,130.23318,65,72,0
130.26738,130.42868,79,92,0
130.26738,130.42868,67,83,0
130.58997,130.86604,55,93,0
131.95065,132.25194,77,72,0
131.95065,132.25194,83,72,0
131.95065,132.25194,71,57,0
132.25194,132.54723,75,64,0
132.25194,132.54723,87,81,0
132.25194,132.54723,83,64,0
132.54723,132.84259,84,71,0
132.54723,132.84259,75,56,0
132.54723,132.84259,72,56,0
133.13963,133.43361,80,60,0
133.13963,133.43361,86,76,0
133.13963,133.43361,74,60,0
133.43361,133.72333,79,65,0
133.43361,133.72333,86,65,0
133.43361,133.72333,91,82,0
133.72333,134.00897,84,73,0
133.72333,134.00897,79,58,0
133.72333,134.00897,72,58,0
134.29254,134.58199,92,85,0
134.29254,134.58199,84,67,0
134.29254,134.58199,80,67,0
134.58199,134.87555,91,92,0
134.58199,134.87555,84,73,0
134.58199,134.87555,79,73,0
134.87555,135.10162,83,69,0
134.87555,135.10162,91,69,0
134.87555,135.10162,95,86,0
135.17802,135.4084,96,97,0
135.17802,135.4084,87,77,0
135.17802,135.4084,84,77,0
135.48518,135.7718,72,82,0
135.48518,135.7718,67,65,0
135.48518,135.7718,63,65,0
135.86736,136.35368,70,90,0
135.86736,136.35368,58,81,0
136.35368,136.50487,70,78,0
136.19157,136.50487,65,66,0
136.19157,136.50487,62,66,0
136.35368,136.50487,58,70,0
136.50487,136.65607,70,82,0
136.50487,136.65607,58,73,0
136.65607,136.80197,69,72,0
136.65607,136.80197,57,64,0
136.80197,136.94788,70,74,0
136.80197,136.94788,58,66,0
136.94788,137.09377,74,77,0
136.94788,137.09377,62,69,0
137.09377,137.24266,77,79,0
137.09377,137.24266,65,71,0
137.24266,137.385,82,81,0
137.24266,137.385,70,72,0
137.385,137.52734,86,83,0
137.385,137.52734,74,73,0
137.52734,137.66757,89,85,0
137.52734,137.66757,77,76,0
137.66757,137.81464,92,87,0
137.66757,137.81464,80,78,0
137.81464,137.96169,89,82,0
137.81464,137.96169,77,73,0
137.96169,138.23442,77,63,0
137.96169,138.23442,74,63,0
137.96169,138.23442,86,70,0
138.32533,138.81166,70,90,0
138.32533,138.81166,58,81,0
138.81166,138.95944,70,78,0
138.64955,138.95944,65,66,0
138.64955,138.95944,62,59,0
138.81166,138.95944,58,70,0
138.95944,139.10722,70,82,0
138.95944,139.10722,58,73,0
139.10722,139.25076,69,72,0
139.10722,139.25076,57,64,0
139.25076,139.3943,70,74,0
139.25076,139.3943,58,66,0
139.3943,139.53784,74,77,0
139.3943,139.53784,62,69,0
139.53784,139.6849,77,79,0
139.53784,139.6849,65,71,0
139.6849,139.83342,82,81,0
139.6849,139.83342,70,72,0
139.83342,139.98456,86,83,0
139.83342,139.98456,74,73,0
139.98456,140.13573,89,85,0
139.98456,140.13573,77,76,0
140.13573,140.29616,92,87,0
140.13573,140.29616,80,78,0
140.29616,140.43088,89,82,0
140.29616,140.43088,77,73,0
140.47578,140.768,71,63,0
140.47578,140.768,74,63,0
140.47578,140.768,83,70,0
140.8654,141.40433,79,91,0
140.8654,141.40433,67,82,0
141.40433,141.57286,75,78,0
141.40433,141.57286,63,70,0
141.57286,141.69582,72,83,0
141.57286,141.69582,60,73,0
141.7368,141.85777,71,78,0
141.7368,141.85777,59,70,0
141.89809,142.05434,72,78,0
141.89809,142.05434,60,70,0
141.89809,142.13246,67,51,0
141.89809,142.13246,63,51,0
142.05434,142.21059,62,70,0
142.05434,142.21059,74,78,0
142.21059,142.33028,75,81,0
142.21059,142.33028,63,72,0
142.37016,142.48796,74,78,0
142.37016,142.48796,62,70,0
142.52724,142.68108,75,78,0
142.52724,142.68108,63,70,0
142.68108,142.83493,77,78,0
142.21059,142.83493,67,54,0
142.21059,142.83493,72,54,0
142.68108,142.83493,65,70,0
142.83493,142.95396,79,81,0
142.83493,142.95396,67,72,0
142.83493,143.07019,72,54,0
142.83493,143.07019,74,54,0
142.99365,143.1212,66,70,0
142.99365,143.1212,78,78,0
143.14671,143.29597,79,78,0
143.14671,143.29597,67,70,0
143.14671,143.37059,74,54,0
143.14671,143.37059,71,54,0
143.29597,143.44522,81,78,0
143.29597,143.44522,69,70,0
143.44522,143.56061,83,84,0
143.44522,143.56061,71,74,0
143.59908,143.73454,81,78,0
143.59908,143.73454,69,70,0
143.74686,143.89464,83,78,0
143.74686,143.89464,71,70,0
143.74686,143.96852,77,54,0
143.74686,143.96852,74,54,0
143.89464,144.04242,67,70,0
143.89464,144.04242,79,78,0
144.04242,144.16742,84,88,0
144.04242,144.16742,72,79,0
144.04242,144.26523,75,60,0
144.19241,144.33804,83,77,0
144.19241,144.33804,71,69,0
144.33804,144.48367,84,78,0
144.33804,144.48367,72,70,0
144.33804,144.5565,75,60,0
144.33804,144.5565,79,60,0
144.48367,144.62932,74,72,0
144.48367,144.62932,86,80,0
144.62932,144.75432,87,90,0
144.62932,144.75432,75,81,0
144.62932,144.85007,79,63,0
144.62932,144.85007,84,63,0
144.77931,144.92082,74,70,0
144.77931,144.92082,86,78,0
144.92082,145.06233,87,81,0
144.92082,145.06233,75,72,0
144.92082,145.13309,84,63,0
144.92082,145.13309,80,63,0
145.06233,145.20384,77,73,0
145.06233,145.20384,89,83,0
145.20384,145.37334,91,89,0
145.20384,145.37334,79,81,0
145.20384,145.37334,83,81,0
145.54282,145.8189,67,77,0
145.54282,145.8189,62,69,0
145.54282,145.8189,59,69,0
145.91092,146.4435,79,76,0
145.91092,146.4435,91,85,0
145.91092,146.4435,83,76,0
145.91092,146.4435,86,76,0
146.4435,146.62102,91,83,0
146.4435,146.62102,79,73,0
146.62102,146.79147,92,86,0
146.62102,146.79147,80,77,0
146.62102,146.79147,86,77,0
146.79147,146.95815,79,73,0
146.79147,146.95815,91,83,0
146.95815,147.12297,80,73,0
146.95815,147.12297,92,83,0
146.95815,147.12297,86,77,0
147.12297,147.28427,74,73,0
147.12297,147.28427,86,83,0
147.28427,147.443,91,86,0
147.28427,147.443,79,77,0
147.443,147.60007,90,83,0
147.443,147.60007,78,73,0
147.60007,147.75713,91,83,0
147.60007,147.75713,79,73,0
147.60007,147.75713,84,73,0
147.75713,147.91756,72,73,0
147.75713,147.91756,84,83,0
147.91756,148.0722,77,77,0
147.91756,148.0722,89,86,0
147.91756,148.0722,84,77,0
148.0722,148.22295,88,84,0
148.0722,148.22295,76,74,0
148.22295,148.33601,77,74,0
148.22295,148.33601,89,84,0
148.22295,148.33601,83,74,0
148.3737,148.52835,83,84,0
148.3737,148.52835,71,74,0
148.52835,148.67613,75,77,0
148.52835,148.67613,87,86,0
148.67613,148.82152,74,73,0
148.67613,148.82152,86,83,0
148.82152,148.92993,75,73,0
148.82152,148.92993,87,83,0
148.82152,148.92993,79,73,0
148.96599,149.1093,72,73,0
148.96599,149.1093,84,83,0
149.1093,149.21616,82,86,0
149.1093,149.21616,70,77,0
149.1093,149.21616,74,77,0
149.25171,149.35767,80,83,0
149.25171,149.35767,68,73,0
149.25171,149.35767,72,73,0
149.39288,149.50142,79,83,0
149.39288,149.50142,67,73,0
149.5376,149.64613,77,83,0
149.5376,149.64613,65,73,0
149.68231,149.7924,75,87,0
149.68231,149.7924,63,78,0
149.8291,149.9392,67,73,0
149.8291,149.9392,79,83,0
149.97589,150.08806,77,83,0
149.97589,150.08806,65,73,0
149.97589,150.08806,71,83,0
150.12578,150.24036,62,73,0
150.12578,150.2532,74,83,0
150.27837,150.4338,59,73,0
150.27837,150.4338,71,83,0
150.4338,150.55478,60,73,0
150.4338,150.55478,72,82,0
150.5951,150.833,84,90,0
150.5951,150.833,72,81,0
150.5951,150.833,79,81,0
150.5951,150.833,75,81,0
151.43729,151.51228,63,78,0
151.51228,152.6132,63,82,0
152.6132,152.88348,59,70,0
152.6132,152.88348,71,78,0
152.88348,153.09181,60,64,0
152.88348,153.09181,72,72,0
153.16125,153.39915,87,62,0
153.16125,153.39915,80,55,0
153.16125,153.39915,78,55,0
153.16125,153.39915,75,55,0
154.03354,154.10854,60,54,0
154.03354,154.10854,66,54,0
154.03354,154.10854,68,60,0
154.10854,155.17049,66,60,0
154.10854,155.17049,60,60,0
154.10854,155.17049,68,67,0
155.17049,155.86107,69,50,0
155.17049,155.86107,66,45,0
155.17049,155.86107,63,45,0
155.86107,155.95541,83,57,0
155.86107,155.95541,71,51,0
156.04974,156.1478,84,54,0
156.04974,156.1478,72,48,0
156.24583,156.49445,90,53,0
156.24583,156.49445,78,46,0
156.57732,156.67473,88,54,0
156.57732,156.67473,76,48,0
156.77213,156.8884,89,50,0
156.77213,156.8884,77,45,0
157.00468,157.27254,89,44,0
157.00468,157.27254,101,49,0
157.36183,158.6947,69,52,0
157.36183,158.6947,63,41,0
157.36183,158.6947,60,41,0
158.6947,160.47511,70,53,0
158.6947,160.47511,62,42,0
158.6947,160.47511,58,42,0
162.21233,162.65363,70,52,0
162.21233,162.65363,58,45,0
162.65363,162.7596,70,45,0
162.65363,162.7596,58,41,0
162.50653,162.79492,68,45,0
162.50653,162.79492,62,45,0
162.50653,162.79492,65,45,0
162.79492,162.86557,70,48,0
162.79492,162.86557,58,43,0
162.93622,163.00484,69,50,0
162.93622,163.00484,57,45,0
163.07346,163.14207,70,51,0
163.07346,163.14207,58,45,0
163.2107,163.27931,74,51,0
163.2107,163.27931,62,45,0
163.34793,163.41823,77,53,0
163.34793,163.41823,65,46,0
163.48854,163.55954,82,55,0
163.48854,163.55954,70,49,0
163.63054,163.7026,86,55,0
163.63054,163.7026,74,49,0
163.77504,163.84785,89,56,0
163.77504,163.84785,77,50,0
163.91959,163.98903,80,52,0
163.91959,163.98903,92,58,0
164.05847,164.13237,89,55,0
164.05847,164.13237,77,49,0
164.20625,164.36499,86,46,0
164.20625,164.36499,74,42,0
165.11195,165.1814,80,43,0
165.11195,165.1814,92,48,0
165.25084,165.32474,89,44,0
165.25084,165.32474,77,38,0
165.39862,165.55736,83,38,0
165.39862,165.55736,71,35,0
166.30432,166.37344,92,36,0
166.37344,166.44257,89,36,0
166.44257,166.51169,83,36,0
166.51169,166.58081,82,36,0
166.85732,166.92644,68,36,0
166.92644,166.99556,65,36,0
166.99556,167.06468,59,36,0
167.06468,167.1338,58,36,0
167.41267,167.56975,38,36,0
168.17235,168.51717,93,38,0
168.10022,168.51717,81,36,0
168.12427,168.51717,84,36,0
168.1483,168.51717,90,37,0
169.06934,169.40453,94,38,0
169.03769,169.40453,86,37,0
169.00604,169.40453,80,36,0
169.65593,169.74599,58,30,0
169.74599,169.85013,58,32,0
169.8156,169.91763,59,31,0
169.8841,169.98466,58,33,0
169.95064,170.0557,59,31,0
170.02063,170.12183,58,33,0
170.08908,170.18732,59,32,0
170.15457,170.25475,58,35,0
170.22066,170.3229,59,32,0
170.28883,170.39108,58,35,0
170.357,170.45874,59,32,0
170.42516,170.52457,58,36,0
170.4917,170.58948,59,33,0
170.55716,170.65314,58,36,0
170.62141,170.7153,59,33,0
170.68452,170.77675,58,36,0
170.74599,170.83958,59,33,0
170.80772,170.9033,58,36,0
170.87144,170.96649,59,32,0
170.93517,171.00487,58,36,0
170.98189,171.05022,59,32,0
171.02765,171.11722,58,35,0
171.11722,171.24568,57,32,0
171.21274,171.31154,58,32,0
172.06721,172.1626,60,39,0
172.13115,172.22304,61,36,0
172.19304,172.28242,60,39,0
172.25282,172.34177,61,36,0
172.31204,172.40294,60,39,0
172.37192,172.46497,61,36,0
172.43396,172.50371,60,39,0
172.48048,172.54935,61,36,0
172.5267,172.61572,60,41,0
172.61572,172.73517,59,37,0
172.7026,172.79977,60,37,0
175.50835,176.13335,62,24,0
178.04407,178.105,81,41,0
178.11281,178.17375,82,36,0
178.18156,178.24193,87,38,0
178.24931,178.307,84,36,0
178.3144,178.3721,82,36,0
178.3795,178.43718,80,36,0
178.44458,178.50227,79,33,0
179.29042,179.49876,63,30,0
179.29042,179.49876,58,27,0
179.29042,179.49876,55,27,0
179.84598,180.06027,65,32,0
179.84598,180.06027,58,28,0
179.84598,180.06027,56,28,0
180.4174,180.64241,66,31,0
180.4174,180.64241,58,27,0
180.4174,180.64241,57,27,0
181.01741,181.66965,67,33,0
181.01741,181.66965,58,29,0
181.66965,181.99573,63,30,0
181.66965,181.99573,55,27,0
182.32181,182.37323,81,41,0
182.3821,182.43352,82,36,0
182.44238,182.4938,91,36,0
182.50255,182.5522,89,36,0
182.56076,182.61043,87,36,0
182.61899,182.66864,86,36,0
182.6772,182.72685,84,36,0
182.73543,182.78508,82,36,0
182.79364,182.84329,80,36,0
182.85185,182.90152,79,33,0
183.69034,183.9026,63,29,0
183.69034,183.9026,58,26,0
183.69034,183.9026,55,26,0
184.25638,184.49075,65,32,0
184.25638,184.49075,62,28,0
184.25638,184.49075,56,28,0
184.88138,185.14609,67,30,0
184.88138,185.14609,58,27,0
185.58727,187.20699,63,30,0
185.58727,187.20699,55,27,0
187.2774,187.3374,93,41,0
187.3414,187.40141,94,36,0
187.40541,187.4534,99,38,0
187.45741,187.5054,96,36,0
187.5094,187.5574,94,36,0
187.5614,187.6094,92,36,0
187.6134,187.6614,91,33,0
188.7722,188.98055,63,33,0
188.7722,188.98055,58,29,0
188.7722,188.98055,55,29,0
189.32776,189.54411,65,36,0
189.32776,189.54411,58,31,0
189.32776,189.54411,56,31,0
189.9047,190.14153,66,35,0
189.9047,190.14153,58,30,0
189.9047,190.14153,57,30,0
190.53627,191.23395,67,36,0
190.53627,191.23395,58,32,0
191.23395,191.65648,63,33,0
191.23395,191.65648,55,29,0
192.07901,192.1494,93,41,0
192.15425,192.22464,94,36,0
192.22949,192.278,103,36,0
192.2828,192.33087,101,36,0
192.33568,192.38376,99,36,0
192.38857,192.43665,98,36,0
192.44145,192.4893,96,36,0
192.49406,192.54169,94,36,0
192.54645,192.59407,92,36,0
192.59883,192.64644,91,33,0
193.7653,193.9787,63,36,0
193.7653,193.9787,58,32,0
193.7653,193.9787,55,32,0
194.33435,194.57892,65,37,0
194.33435,194.57892,62,33,0
194.33435,194.57892,56,33,0
194.98653,195.275,67,36,0
194.98653,195.275,56,32,0
194.98653,195.275,62,32,0
195.75577,197.35298,63,35,0
195.75577,197.35298,55,30,0
198.75026,198.9548,58,45,0
198.75026,198.9548,62,50,0
199.29572,199.50798,63,56,0
199.29572,199.50798,60,50,0
199.29572,199.50798,58,50,0
199.86176,200.08676,64,51,0
199.86176,200.08676,61,45,0
199.86176,200.08676,58,45,0
200.46176,201.11394,65,52,0
200.46176,201.11394,62,45,0
201.11394,201.47537,62,49,0
201.11394,201.47537,58,44,0
203.25851,203.47078,58,44,0
203.25851,203.47078,62,49,0
203.82454,204.04732,63,53,0
203.82454,204.04732,57,46,0
204.42592,204.67049,65,50,0
204.42592,204.67049,57,45,0
205.0781,206.49785,58,45,0
205.0781,206.49785,62,51,0
206.55957,206.61594,70,58,0
206.61737,206.67374,69,58,0
206.67519,206.73122,68,58,0
206.73265,206.78868,67,58,0
207.01805,207.07314,62,65,0
207.07454,207.12962,61,69,0
207.13104,207.18582,60,72,0
207.18723,207.24185,59,73,0
207.24324,207.36824,58,87,0
207.74324,207.94778,70,42,0
207.74324,207.94778,62,42,0
207.74324,207.94778,74,53,0
208.2887,208.49702,63,45,0
208.2887,208.49702,75,57,0
208.2887,208.49702,70,45,0
208.84425,209.06703,76,54,0
208.84425,209.06703,70,43,0
208.84425,209.06703,64,43,0
209.43831,210.09048,77,55,0
210.09048,210.44763,74,52,0
209.43831,210.74525,70,41,0
209.43831,210.74525,65,41,0
211.36537,211.43356,60,57,0
211.43546,211.50363,62,58,0
211.50552,211.57372,63,60,0
211.5756,211.64378,64,62,0
211.64568,211.71198,67,63,0
212.43675,213.14264,68,36,0
212.43675,213.14264,74,42,0
211.71387,213.3752,65,55,0
213.3752,213.60776,65,43,0
213.60776,213.85466,67,33,0
213.14264,213.85466,75,45,0
213.14264,213.85466,69,41,0
213.85466,214.12134,63,43,0
214.12134,214.39531,60,39,0
214.39531,214.504,62,38,0
213.85466,214.8301,72,41,0
213.85466,214.8301,77,41,0
214.8301,216.38414,74,38,0
214.77574,216.38414,70,32,0
214.66704,216.38414,58,32,0
214.72139,216.38414,65,32,0
216.43088,216.62999,82,46,0
216.43088,216.62999,73,46,0
216.43088,216.62999,77,46,0
216.62999,216.69637,81,38,0
216.69637,216.7835,72,38,0
216.69637,216.7835,80,38,0
216.7835,216.86989,71,39,0
216.7835,216.86989,74,39,0
216.7835,216.86989,79,39,0
216.86989,216.95555,70,41,0
216.86989,216.95555,78,41,0
216.95555,217.04048,69,42,0
216.95555,217.04048,72,42,0
216.95555,217.04048,77,42,0
217.04048,217.12473,68,43,0
217.04048,217.12473,76,43,0
217.12473,217.20827,67,44,0
217.12473,217.20827,70,44,0
217.12473,217.20827,75,44,0
217.20827,217.29112,66,45,0
217.20827,217.29112,74,45,0
217.29112,217.37305,65,46,0
217.29112,217.37305,68,46,0
217.29112,217.37305,73,46,0
217.37305,217.49599,72,48,0
217.37305,217.49599,67,48,0
217.37305,217.49599,64,48,0
217.86484,218.03882,58,37,0
217.86484,218.03882,64,43,0
217.86484,218.03882,55,37,0
218.32436,218.52002,56,41,0
218.32436,218.52002,65,45,0
218.32436,218.52002,61,41,0
218.8461,219.0319,68,43,0
218.8461,219.0319,62,37,0
218.8461,219.0319,59,37,0
219.37843,219.96097,64,37,0
219.37843,219.96097,67,43,0
219.96097,220.19292,60,36,0
219.96097,220.19292,55,32,0
220.57951,220.77864,94,50,0
220.57951,220.77864,85,50,0
220.57951,220.77864,89,50,0
220.77864,220.845,93,41,0
220.845,220.92896,84,42,0
220.845,220.92896,92,42,0
220.92896,221.0125,83,43,0
220.92896,221.0125,86,43,0
220.92896,221.0125,91,43,0
221.0125,221.09563,82,44,0
221.0125,221.09563,90,44,0
221.09563,221.17834,81,45,0
221.09563,221.17834,84,45,0
221.09563,221.17834,89,45,0
221.17834,221.26047,80,45,0
221.17834,221.26047,88,45,0
221.26047,221.3422,79,46,0
221.26047,221.3422,82,46,0
221.26047,221.3422,87,46,0
221.3422,221.42351,78,49,0
221.3422,221.42351,86,49,0
221.42351,221.5042,77,50,0
221.42351,221.5042,80,50,0
221.42351,221.5042,85,50,0
221.5042,221.62614,84,51,0
221.5042,221.62614,79,51,0
221.5042,221.62614,76,51,0
221.992,222.16597,70,37,0
221.992,222.16597,64,37,0
221.992,222.16597,67,37,0
221.992,222.16597,76,43,0
222.45152,222.6406,68,42,0
222.45152,222.6406,65,42,0
222.45152,222.6406,73,42,0
222.45152,222.6406,77,46,0
222.95572,223.15291,80,43,0
222.95572,223.15291,68,37,0
222.95572,223.15291,71,37,0
222.95572,223.15291,74,37,0
223.50418,224.0867,76,37,0
223.50418,224.0867,79,43,0
223.50418,224.0867,67,37,0
224.0867,224.32607,72,36,0
224.725,224.81949,65,50,0
224.81949,224.91399,64,45,0
224.91399,225.0051,63,45,0
225.0051,225.09421,62,46,0
225.09421,225.18254,61,49,0
225.18254,225.26976,60,50,0
225.26976,225.35625,59,51,0
225.35625,225.44171,58,53,0
225.44171,225.52643,57,54,0
225.52643,225.6102,56,55,0
224.725,225.6102,68,50,0
225.6102,225.73314,65,57,0
225.6102,225.73314,62,57,0
226.102,226.27597,56,41,0
226.102,226.27597,62,45,0
226.102,226.27597,53,41,0
226.56152,226.74008,54,45,0
226.56152,226.74008,63,51,0
226.56152,226.74008,59,45,0
227.0377,227.22786,66,46,0
227.0377,227.22786,60,42,0
227.0377,227.22786,57,42,0
227.56255,228.15077,62,45,0
227.56255,228.15077,65,51,0
228.15077,228.40077,58,44,0
228.15077,228.40077,53,38,0
228.81744,228.90836,64,50,0
228.90836,228.99927,63,45,0
228.99927,229.08954,62,45,0
229.08954,229.17976,61,46,0
229.17976,229.26944,60,49,0
229.26944,229.35887,59,50,0
229.35887,229.44777,58,51,0
229.44777,229.53659,57,53,0
229.53659,229.62483,56,54,0
229.62483,229.7128,59,55,0
228.81744,229.7128,68,50,0
229.7128,229.83575,65,57,0
229.7128,229.83575,62,57,0
230.2046,230.39691,68,45,0
230.2046,230.39691,62,45,0
230.2046,230.39691,65,45,0
230.2046,230.39691,74,52,0
230.71742,230.90338,66,60,0
230.71742,230.90338,63,60,0
230.71742,230.90338,71,60,0
230.71742,230.90338,75,67,0
231.21329,231.41031,78,67,0
231.21329,231.41031,66,60,0
231.21329,231.41031,69,60,0
231.21329,231.41031,72,60,0
231.77116,232.43782,82,79,0
231.7304,232.43782,65,63,0
231.74399,232.43782,70,63,0
231.75757,232.43782,74,63,0
232.43782,232.68782,58,65,0
233.27892,233.33705,93,70,0
233.27892,233.33705,81,63,0
233.41457,233.51439,79,63,0
233.41457,233.51439,91,71,0
233.56783,233.6699,77,65,0
233.56783,233.6699,89,73,0
233.71877,233.82303,75,67,0
233.71877,233.82303,87,76,0
233.86748,233.97385,73,71,0
233.86748,233.97385,85,79,0
234.01399,234.1315,71,73,0
234.01399,234.1315,83,82,0
234.627,235.23306,62,72,0
234.627,235.23306,50,64,0
234.627,235.23306,53,64,0
234.627,235.23306,58,64,0
235.40749,235.46562,97,70,0
235.40749,235.46562,85,63,0
235.54314,235.64296,83,63,0
235.54314,235.64296,95,71,0
235.6964,235.79848,81,65,0
235.6964,235.79848,93,73,0
235.84734,235.9516,79,67,0
235.84734,235.9516,91,76,0
235.99605,236.10242,77,71,0
235.99605,236.10242,89,79,0
236.14256,236.26007,75,73,0
236.14256,236.26007,87,82,0
236.75557,237.29611,62,64,0
236.75557,237.29611,65,72,0
236.75557,237.29611,53,64,0
236.75557,237.29611,58,64,0
237.41806,237.54001,100,66,0
237.41806,237.54001,88,59,0
237.61635,237.69182,86,59,0
237.61635,237.69182,98,66,0
237.76617,237.8397,84,60,0
237.76617,237.8397,96,67,0
237.91243,237.9849,82,60,0
237.91243,237.9849,94,67,0
238.05736,238.12982,80,62,0
238.05736,238.12982,92,69,0
238.20229,238.27475,78,62,0
238.20229,238.27475,90,69,0
238.34721,238.41968,88,70,0
238.34721,238.41968,76,63,0
238.49214,238.5646,74,63,0
238.49214,238.5646,86,70,0
238.63707,238.71858,72,63,0
238.63707,238.71858,84,71,0
238.782,238.87257,70,63,0
238.782,238.87257,82,71,0
238.92693,239.0175,68,64,0
238.92693,239.0175,80,72,0
239.07185,239.16243,66,64,0
239.07185,239.16243,78,72,0
239.21678,239.3075,76,72,0
239.21678,239.3075,64,64,0
239.36223,239.45729,62,64,0
239.36223,239.45729,74,72,0
239.50876,239.60822,60,65,0
239.50876,239.60822,72,73,0
239.65636,239.76028,58,65,0
239.65636,239.76028,70,73,0
239.80505,239.91353,56,65,0
239.80505,239.91353,68,73,0
239.95488,240.06795,50,65,0
239.95488,240.06795,62,73,0
240.48404,240.55812,45,74,0
240.55812,240.63138,46,72,0
240.63138,240.71284,50,72,0
240.70384,240.7865,53,73,0
240.77579,240.85904,56,73,0
240.84671,240.93103,58,74,0
240.91713,241.00221,62,74,0
240.98659,241.07338,65,76,0
241.05603,241.12547,68,76,0
241.12547,241.19492,70,77,0
241.19492,241.26436,74,77,0
241.26436,241.3338,77,77,0
241.3338,241.41724,80,78,0
241.41724,241.50114,82,78,0
241.50114,241.5856,86,79,0
241.5856,241.67012,89,80,0
241.67012,241.75462,92,80,0
241.75462,241.8067,93,81,0
241.82545,241.88788,96,78,0
241.89615,241.95813,94,77,0
241.9664,242.02818,92,77,0
242.03638,242.09732,89,77,0
242.10538,242.16554,86,77,0
242.17354,242.23355,82,77,0
242.24554,242.30507,81,81,0
242.313,242.38004,84,78,0
242.38004,242.44696,82,77,0
242.44696,242.51389,80,77,0
242.51389,242.58081,77,77,0
242.58081,242.64775,74,77,0
242.64775,242.71468,70,77,0
242.71861,242.77766,69,81,0
242.78554,242.85246,72,78,0
242.85246,242.9194,70,77,0
242.9194,242.98633,68,77,0
242.98633,243.05325,65,77,0
243.05325,243.12018,62,77,0
243.12018,243.18712,58,76,0
243.19106,243.28047,57,78,0
243.27687,243.36703,58,80,0
243.3634,243.45468,62,83,0
243.451,243.55263,65,85,0
243.53967,243.6294,68,88,0
244.17351,244.25334,70,91,0
244.17351,244.25334,58,77,0
244.34187,244.46797,62,74,0
244.34187,244.46797,74,74,0
244.51088,244.62912,60,64,0
244.51088,244.62912,72,77,0
244.66974,244.78206,58,65,0
244.66974,244.78206,70,78,0
244.8204,244.92638,56,68,0
244.8204,244.92638,68,81,0
244.9625,245.06358,54,69,0
244.9625,245.06358,66,81,0
245.09825,245.19432,52,72,0
245.09825,245.19432,64,84,0
245.22714,245.31918,50,72,0
245.22714,245.31918,62,86,0
245.35081,245.43866,60,88,0
245.35081,245.43866,48,73,0
245.98033,246.20761,75,81,0
245.98033,246.20761,67,72,0
245.98033,246.20761,63,72,0
246.52579,246.75943,77,87,0
246.52579,246.75943,68,78,0
246.52579,246.75943,65,78,0
247.08653,247.33406,78,81,0
247.08653,247.33406,69,72,0
247.08653,247.33406,66,72,0
247.68059,248.32576,79,87,0
247.68059,248.32576,67,78,0
247.68059,248.32576,70,78,0
248.32576,248.61702,75,80,0
248.32576,248.61702,63,72,0
249.09042,249.14362,70,81,0
249.09042,249.14362,58,72,0
249.23238,249.36017,77,72,0
249.23238,249.36017,65,65,0
249.40135,249.52203,74,75,0
249.40135,249.52203,62,67,0
249.56104,249.67465,70,80,0
249.56104,249.67465,58,70,0
249.7117,249.81966,67,81,0
249.7117,249.81966,55,72,0
249.8546,249.95738,63,86,0
249.8546,249.95738,51,77,0
249.9908,250.1031,60,88,0
249.9908,250.1031,48,78,0
250.55971,250.8001,75,79,0
250.55971,250.8001,67,71,0
250.55971,250.8001,63,71,0
251.13664,251.38664,77,85,0
251.13664,251.38664,68,76,0
251.13664,251.38664,65,76,0
251.73663,252.02399,79,79,0
251.73663,252.02399,70,71,0
251.73663,252.02399,67,71,0
252.42628,253.59976,75,74,0
252.42628,253.59976,63,66,0
252.42628,253.59976,67,66,0
253.65079,253.716,93,41,0
253.72035,253.78497,94,36,0
253.78873,253.83385,99,38,0
253.8376,253.88272,96,36,0
253.88647,253.9316,94,36,0
253.93532,253.9801,92,36,0
253.98383,254.02861,91,33,0
255.10852,255.32487,63,33,0
255.10852,255.32487,58,29,0
255.10852,255.32487,55,29,0
255.68544,255.91504,65,36,0
255.68544,255.91504,59,31,0
255.68544,255.91504,56,31,0
256.2977,256.5477,66,35,0
256.2977,256.5477,60,30,0
256.2977,256.5477,57,30,0
256.96436,257.66202,67,35,0
256.96436,257.66202,59,30,0
257.66202,258.08456,62,32,0
257.66202,258.08456,55,28,0
258.5071,258.57407,94,27,0
258.57407,258.64102,95,27,0
258.64102,258.708,103,29,0
258.708,258.77496,102,29,0
258.77496,258.83694,100,29,0
258.83694,258.89893,98,29,0
258.89893,258.9604,96,29,0
258.9604,259.02188,95,28,0
259.02188,259.08286,93,28,0
259.08286,259.14383,91,28,0
259.14383,259.2043,90,28,0
259.2043,259.2648,88,28,0
259.2648,259.3248,86,27,0
259.3248,259.3848,84,27,0
259.3848,259.4443,83,27,0
259.4443,259.50354,81,27,0
259.50354,259.72852,79,27,0
260.10352,260.72852,67,36,0
260.10352,260.72852,64,32,0
260.10352,260.72852,60,32,0
260.78534,261.40262,65,32,0
260.78534,261.40262,68,36,0
260.78534,261.40262,60,32,0
261.5261,262.41318,70,35,0
261.5261,262.41318,62,30,0
261.5261,262.41318,56,30,0
262.49384,264.3381,70,33,0
262.49384,264.3381,63,29,0
262.49384,264.3381,55,29,0
266.3061,266.82156,75,35,0
266.3061,266.82156,83,35,0
266.3061,266.82156,87,38,0
266.92465,267.45096,75,36,0
266.92465,267.45096,83,36,0
266.92465,267.45096,89,41,0
267.55624,268.04535,75,37,0
267.55624,268.04535,83,37,0
267.55624,268.04535,90,43,0
268.29535,268.97717,91,38,0
268.97717,269.3668,87,36,0
268.2537,269.7564,82,35,0
268.2495,269.77686,75,35,0
271.66183,272.40256,67,37,0
271.66183,272.40256,61,33,0
271.66183,272.40256,58,33,0
272.40256,273.1359,68,39,0
272.40256,273.1359,60,36,0
272.40256,273.1359,58,36,0
273.20258,273.8844,72,39,0
273.20258,273.8844,68,35,0
273.8844,274.16217,70,35,0
273.20258,274.16217,62,29,0
273.20258,274.16217,58,29,0
273.8844,274.16217,67,30,0
274.16217,275.68115,67,33,0
274.16217,275.68115,63,29,0
275.68115,275.74365,93,36,0
275.74783,275.81033,94,32,0
275.81448,275.86395,99,35,0
275.86798,275.91638,96,32,0
275.9204,275.96912,94,32,0
275.97318,276.02206,92,31,0
276.02615,276.07553,91,29,0
277.4246,277.9454,83,38,0
277.4246,277.9454,75,35,0
277.4246,277.9454,69,35,0
278.0496,278.55463,76,36,0
278.0496,278.55463,83,41,0
278.0496,278.55463,69,35,0
278.65564,279.1244,83,43,0
278.65564,279.1244,78,37,0
278.65564,279.1244,69,37,0
279.28064,279.93997,83,45,0
279.28064,279.93997,80,39,0
279.93997,280.3296,88,38,0
279.93997,280.3296,92,44,0
280.7192,280.78586,70,36,0
280.78586,280.85254,71,32,0
280.85254,280.91812,80,36,0
280.91812,280.98276,78,35,0
280.98276,281.04782,76,33,0
281.04782,281.1136,75,33,0
281.1136,281.17978,73,32,0
282.576,283.36545,70,36,0
282.576,283.36545,67,31,0
282.576,283.36545,61,31,0
283.36545,284.11957,70,37,0
283.36545,284.11957,62,33,0
283.8927,284.11957,62,30,0
283.36545,284.11957,68,33,0
283.99054,284.11957,68,27,0
284.08752,284.1832,74,31,0
284.1832,284.95908,72,36,0
284.95908,285.29996,70,32,0
285.29996,286.75568,67,27,0
285.29996,286.75568,63,27,0
285.29996,286.75568,70,31,0
288.7244,289.51385,61,36,0
288.7244,289.51385,58,32,0
288.7244,289.51385,55,32,0
289.51385,290.31097,62,37,0
289.51385,290.31097,58,33,0
289.51385,290.31097,56,33,0
290.38342,291.23248,60,36,0
290.38342,291.23248,56,31,0
291.23248,291.64914,58,31,0
291.23248,291.64914,55,27,0
290.38342,291.64914,62,31,0
291.64914,293.16412,63,30,0
291.64914,293.16412,51,27,0
291.64914,293.16412,55,27,0
293.16412,293.26065,93,36,0
293.27304,293.364,94,31,0
293.37518,293.46216,99,36,0
293.47324,293.55954,96,36,0
293.57062,293.65622,94,35,0
293.66718,293.75232,92,33,0
293.76318,293.8479,91,32,0
294.2253,294.2891,81,33,0
294.29935,294.3649,82,35,0
294.37515,294.4403,91,36,0
294.45047,294.51544,87,36,0
294.52554,294.59006,86,37,0
294.60013,294.66437,84,38,0
294.67438,294.73837,82,39,0
295.18317,295.2533,69,44,0
295.2623,295.33243,70,45,0
295.34143,295.4115,75,46,0
295.4204,295.48965,72,49,0
295.49854,295.5675,70,51,0
295.5763,295.64496,68,53,0
295.65372,295.7219,67,55,0
296.02914,296.08472,57,53,0
296.09338,296.14896,58,54,0
296.15762,296.2131,67,56,0
296.22174,296.27692,63,57,0
296.28552,296.3407,62,59,0
296.3493,296.40448,60,60,0
296.4131,296.4679,58,63,0
297.52014,298.1868,51,62,0
297.52014,298.1868,63,69,0
297.52014,298.1868,58,62,0
297.52014,298.1868,55,62,0
298.8535,299.56775,51,60,0
298.8535,299.56775,63,67,0
298.8535,299.56775,59,60,0
298.8535,299.56775,54,60,0
299.56775,300.35724,51,61,0
299.56775,300.35724,63,67,0
299.56775,300.35724,59,61,0
299.56775,300.35724,56,61,0
300.35724,301.2803,53,61,0
300.35724,301.2803,65,67,0
300.35724,301.2803,59,61,0
300.35724,301.2803,56,61,0
301.2803,304.48032,67,75,0
301.2803,304.48032,55,67,0
301.2803,304.48032,58,67,0
301.2803,304.48032,63,67,0
304.48032,306.48032,67,73,0
304.48032,306.48032,55,65,0
304.48032,306.48032,58,65,0
304.48032,306.48032,63,65,0
306.48032,308.83325,67,73,0
306.48032,308.83325,55,65,0
306.48032,308.83325,58,65,0
306.48032,308.83325,63,65,0
308.83325,318.24503,67,73,0
308.83325,318.24503,55,65,0
308.83325,318.24503,58,65,0
308.83325,318.24503,63,65,0
5.503808,5.5865893,63,57,0
5.6031456,8.6660595,63,59,0
8.682616,8.765397,63,56,0
8.781954,9.579826,63,58,0
9.633018,10.4663515,63,62,0
10.521907,11.380686,53,54,0
10.521907,11.380686,62,54,0
11.437938,12.08835,60,64,0
11.437938,12.08835,53,54,0
12.269915,15.050532,58,58,0
12.190401,15.050532,53,58,0
12.113603,15.050532,46,65,0
23.005316,23.623873,34,82,0
23.623873,23.704952,34,46,0
23.704952,23.785154,36,43,0
23.785154,23.864103,34,48,0
23.864103,23.941841,36,48,0
23.941841,24.018402,34,56,0
24.018402,24.093752,36,52,0
24.093752,24.167997,34,61,0
24.167997,24.24117,36,58,0
24.24117,24.313301,34,68,0
24.313301,24.38473,36,66,0
24.38473,24.464094,34,73,0
24.464094,24.553797,33,79,0
24.553797,24.648603,34,70,0
24.648603,24.833788,46,77,0
25.268261,25.76232,77,54,0
25.23621,25.76232,70,54,0
25.204159,25.76232,62,54,0
29.90717,29.972204,77,37,0
29.980541,30.045576,75,37,0
30.053915,30.11895,74,36,0
30.127287,30.185652,72,36,0
30.193989,30.387955,70,41,0
30.711231,30.917652,39,27,0
30.711231,30.917652,46,27,0
31.26169,31.470022,39,27,0
31.26169,31.470022,46,27,0
31.817245,32.03569,39,27,0
31.817245,32.03569,46,27,0
32.39977,33.704174,39,29,0
32.39977,33.704174,46,29,0
34.29244,34.342094,77,37,0
34.35066,34.400314,75,37,0
34.408875,34.458534,74,36,0
34.467094,34.5236,72,36,0
34.53216,34.734867,70,41,0
35.072704,35.28497,39,27,0
35.072704,35.28497,46,27,0
35.63874,35.873116,46,29,0
35.63874,35.873116,39,29,0
36.26374,36.528446,46,27,0
36.26374,36.528446,39,27,0
36.969624,38.589344,46,27,0
36.969624,38.589344,39,27,0
39.03867,39.085545,89,37,0
39.08945,39.136326,87,37,0
39.140232,39.187107,86,36,0
39.191013,39.23789,84,36,0
39.241795,39.28867,82,36,0
39.292576,39.33945,80,36,0
39.343357,39.390232,79,36,0
39.39414,39.441013,77,36,0
39.44492,39.491795,75,36,0
39.4957,39.542576,74,36,0
39.55039,39.597263,72,36,0
39.597263,39.79638,70,41,0
40.13207,40.3404,46,29,0
40.13207,40.3404,39,29,0
40.687622,40.90397,46,32,0
40.687622,40.90397,39,32,0
41.264545,41.50139,46,30,0
41.264545,41.50139,39,30,0
41.896126,43.43887,46,32,0
41.896126,43.43887,39,32,0
44.03988,44.090385,89,37,0
44.095436,44.14594,87,37,0
44.15099,44.201496,86,36,0
44.206547,44.257053,84,36,0
44.262104,44.312607,82,36,0
44.317657,44.368164,80,36,0
44.373215,44.423717,79,36,0
44.42877,44.479275,77,36,0
44.484325,44.53483,75,36,0
44.53988,44.590385,74,36,0
44.595436,44.64594,72,36,0
44.65099,44.853695,70,41,0
45.191532,45.409977,46,31,0
45.191532,45.409977,39,31,0
45.774055,46.006016,47,32,0
45.774055,46.006016,39,32,0
46.392612,46.681076,39,31,0
46.392612,46.681076,46,31,0
47.161842,48.759068,46,29,0
47.161842,48.759068,51,29,0
47.161842,48.759068,39,29,0
48.82851,48.891823,46,53,0
48.893444,48.956757,45,53,0
48.95838,49.021694,44,53,0
49.023315,49.086628,43,53,0
49.08825,49.15156,42,53,0
49.153187,49.2165,41,53,0
49.21812,49.281433,40,55,0
49.283054,49.346367,39,57,0
49.347992,49.411304,38,59,0
49.412926,49.47624,37,62,0
49.47786,49.541172,36,63,0
49.542797,49.60611,35,65,0
49.60773,49.74924,34,80,0
50.17377,50.378315,53,41,0
50.17377,50.378315,46,41,0
50.719223,50.931488,46,45,0
50.719223,50.931488,54,45,0
51.28526,51.51026,55,43,0
51.28526,51.51026,46,43,0
51.88526,52.532,58,45,0
52.537434,52.89888,53,44,0
51.88526,53.260326,46,45,0
53.260326,53.323265,34,55,0
53.325012,53.387947,36,56,0
53.389698,53.452633,38,57,0
53.454384,53.51732,39,59,0
53.51907,53.582005,41,60,0
53.58375,53.64669,43,62,0
53.648438,53.711376,45,63,0
53.713123,53.776062,46,63,0
53.77781,53.840748,48,64,0
53.842495,53.90543,50,65,0
53.90718,53.970116,51,67,0
53.971867,54.0348,52,69,0
54.03655,54.09774,55,70,0
54.68201,54.894276,46,41,0
54.68201,54.894276,41,41,0
55.24805,55.47082,41,44,0
55.24805,55.47082,48,44,0
55.849422,56.093987,41,43,0
55.849422,56.093987,50,43,0
54.099487,57.242336,53,63,0
57.242336,57.612705,34,48,0
56.501595,57.983078,46,44,0
58.215633,58.27232,66,58,0
58.273773,58.33046,65,58,0
58.331913,58.3886,64,60,0
58.390053,58.44674,63,63,0
59.18075,59.385296,46,44,0
59.18075,59.385296,58,44,0
59.18075,59.385296,53,44,0
59.726204,59.93454,46,48,0
59.726204,59.93454,54,48,0
59.726204,59.93454,60,48,0
60.28176,60.50676,61,48,0
60.28176,60.50676,46,45,0
60.28176,60.50676,55,45,0
60.88176,61.533936,62,53,0
61.533936,61.89108,58,52,0
60.88176,62.248222,46,46,0
60.88176,62.248222,53,46,0
62.248222,62.316402,46,49,0
62.3183,62.38648,48,50,0
62.38837,62.456554,50,51,0
62.458447,62.52663,51,53,0
62.528522,62.596706,53,54,0
62.5986,62.666782,55,55,0
62.668674,62.73686,57,55,0
62.73875,62.806934,58,56,0
63.880203,64.58608,59,35,0
63.880203,64.58608,53,35,0
64.58608,65.29812,60,36,0
64.58608,65.29812,53,36,0
65.29812,65.94745,65,36,0
65.29812,66.27354,57,32,0
65.29812,66.27354,53,32,0
66.0018,66.27354,53,32,0
65.94745,67.82759,46,32,0
66.056145,67.82759,62,36,0
69.32656,69.40408,48,51,0
69.40408,69.4813,49,53,0
69.4813,69.55823,48,54,0
69.55823,69.63456,47,56,0
69.63456,69.71061,46,57,0
69.71061,69.78608,45,58,0
69.78608,69.981735,44,60,0
70.30782,70.37716,41,52,0
70.37716,70.44744,42,51,0
70.44744,70.51909,41,50,0
70.51909,70.59203,40,50,0
70.59203,70.66626,39,49,0
70.66626,70.74607,38,48,0
70.74607,70.84016,37,46,0
70.84016,71.422676,36,41,0
71.422676,71.65464,52,36,0
73.47503,73.55254,60,51,0
73.55254,73.62977,61,53,0
73.62977,73.70669,60,54,0
73.70669,73.78303,59,56,0
73.78303,73.85907,58,57,0
73.85907,73.93455,57,58,0
73.47503,73.93455,48,51,0
73.93455,74.12362,56,60,0
73.93455,74.12362,44,60,0
74.43874,74.51266,53,52,0
74.51266,74.587265,55,51,0
74.587265,74.66252,53,50,0
74.66252,74.73874,52,50,0
74.73874,74.81552,51,49,0
74.81552,74.897,50,48,0
74.897,74.98721,49,46,0
74.43874,74.98721,41,52,0
74.98721,75.56973,36,41,0
74.98721,75.56973,48,41,0
75.56973,75.8091,55,36,0
75.56973,75.8091,64,36,0
76.20803,76.305595,80,50,0
76.305595,76.40315,79,48,0
76.40315,76.49584,78,49,0
76.49584,76.58727,77,50,0
76.58727,76.677895,76,52,0
76.677895,76.76773,75,54,0
76.76773,76.85678,74,55,0
76.85678,76.94502,73,56,0
76.20803,77.032455,72,50,0
76.94502,77.032455,72,58,0
77.032455,77.11915,71,59,0
77.11915,77.242096,70,62,0
77.11915,77.242096,68,62,0
77.610954,77.68847,46,51,0
77.68847,77.76569,47,53,0
77.76569,77.84261,46,54,0
77.84261,77.91895,45,56,0
77.91895,77.994995,44,57,0
77.994995,78.07047,43,58,0
78.07047,78.24904,42,60,0
78.54666,78.61809,39,57,0
78.61809,78.69002,41,57,0
78.69002,78.76249,39,56,0
78.76249,78.83576,38,55,0
78.83576,78.9096,37,55,0
78.9096,78.988495,36,54,0
78.988495,79.071495,35,54,0
79.071495,79.65973,34,53,0
79.65973,79.90973,50,49,0
80.32639,80.417305,80,50,0
80.417305,80.50822,79,48,0
80.50822,80.598495,78,49,0
80.598495,80.68872,77,50,0
80.68872,80.77839,76,52,0
80.77839,80.86783,75,54,0
80.86783,80.95672,74,55,0
80.95672,81.04555,73,56,0
81.04555,81.13379,72,58,0
80.32639,81.221756,71,50,0
81.13379,81.221756,71,59,0
81.221756,81.3447,70,62,0
81.221756,81.3447,68,62,0
81.713554,81.79903,58,59,0
81.79903,81.8845,59,60,0
81.8845,81.96997,58,62,0
81.96997,82.055435,57,62,0
82.055435,82.14091,56,63,0
82.14091,82.22638,55,63,0
81.652084,82.22638,46,59,0
82.22638,82.41233,54,63,0
82.22638,82.41233,42,63,0
82.722244,82.795784,51,64,0
82.795784,82.870384,53,64,0
82.870384,82.94608,51,64,0
82.94608,83.02299,50,64,0
83.02299,83.1011,49,64,0
83.1011,83.185005,48,64,0
83.185005,83.28011,47,64,0
82.66026,83.28011,39,64,0
83.21217,83.94678,34,62,0
83.94678,84.19678,53,52,0
83.94678,84.19678,50,52,0
83.22576,84.557884,46,77,0
84.61344,84.72972,70,72,0
84.61344,84.787865,82,80,0
84.846,84.94467,68,62,0
84.846,84.94467,80,69,0
85.00044,85.1014,66,63,0
85.00044,85.1014,78,71,0
85.152534,85.25571,76,73,0
85.152534,85.25571,64,65,0
85.30235,85.40768,74,76,0
85.30235,85.40768,62,67,0
85.44996,85.557365,72,78,0
85.44996,85.557365,60,70,0
85.59541,85.865685,58,76,0
85.59541,85.865685,70,84,0
86.135956,86.74201,41,63,0
86.135956,86.74201,46,63,0
86.135956,86.74201,34,63,0
86.74201,86.85829,74,72,0
86.74201,86.916435,86,80,0
86.97457,87.07324,72,62,0
86.97457,87.07324,84,69,0
87.12901,87.22997,70,63,0
87.12901,87.22997,82,71,0
87.281105,87.38428,68,65,0
87.281105,87.38428,80,73,0
87.43092,87.53625,66,67,0
87.43092,87.53625,78,76,0
87.57853,87.685936,76,78,0
87.57853,87.685936,64,70,0
87.72398,87.994255,62,76,0
87.72398,87.994255,74,84,0
88.26453,88.80506,50,63,0
88.26453,88.80506,34,63,0
88.26453,88.80506,41,63,0
88.80506,88.92702,77,66,0
88.80506,88.92702,89,74,0
89.048965,89.125305,75,66,0
89.048965,89.125305,87,74,0
89.200775,89.27512,73,67,0
89.200775,89.27512,85,76,0
89.348656,89.42138,71,69,0
89.348656,89.42138,83,77,0
89.49384,89.56631,69,70,0
89.49384,89.56631,81,78,0
89.63877,89.711235,79,79,0
89.63877,89.711235,67,71,0
89.7837,89.85616,77,79,0
89.7837,89.85616,65,71,0
89.92863,90.00109,75,80,0
89.92863,90.00109,63,72,0
90.073555,90.14602,61,72,0
90.073555,90.155075,73,81,0
90.21848,90.3,59,73,0
90.21848,90.30907,71,82,0
90.36341,90.45399,57,73,0
90.36341,90.45399,69,82,0
90.50834,90.598915,55,73,0
90.50834,90.598915,67,83,0
90.65327,90.74384,53,74,0
90.65327,90.74384,65,84,0
90.798195,90.89126,51,76,0
90.798195,90.89126,63,85,0
90.944176,91.0416,49,77,0
90.944176,91.0416,61,86,0
91.09124,91.19309,59,86,0
91.09124,91.19309,47,77,0
91.23939,91.345726,45,78,0
91.23939,91.345726,57,87,0
91.38864,91.49954,53,88,0
91.38864,91.49954,41,79,0
91.53902,91.99356,34,84,0
91.53902,91.99356,46,94,0
91.99356,92.06932,33,74,0
92.06932,92.144226,34,72,0
92.144226,92.22777,38,72,0
92.218575,92.30279,41,73,0
92.29184,92.37716,44,73,0
92.36456,92.45054,46,74,0
92.43625,92.52375,50,74,0
92.50768,92.59696,53,76,0
92.57911,92.650536,56,76,0
92.650536,92.72196,58,77,0
92.72196,92.79391,62,77,0
92.79391,92.86585,65,77,0
92.86585,92.95218,68,78,0
92.95218,93.03872,70,78,0
93.03872,93.12568,74,79,0
93.12568,93.21263,77,80,0
93.21263,93.29986,80,80,0
93.29986,93.35194,81,81,0
93.37069,93.43312,84,78,0
93.44138,93.503365,82,77,0
93.511635,93.57341,80,77,0
93.58161,93.64308,77,77,0
93.65128,93.712425,74,77,0
93.72055,93.78153,70,77,0
93.793724,93.85421,69,81,0
93.862274,93.930824,72,78,0
93.930824,93.99937,70,77,0
93.99937,94.06792,68,77,0
94.06792,94.13647,65,77,0
94.13647,94.20502,62,77,0
94.20502,94.27356,58,77,0
94.277596,94.33808,57,81,0
94.346146,94.41469,60,78,0
94.41469,94.48324,58,77,0
94.48324,94.55179,56,77,0
94.55179,94.62034,53,77,0
94.62034,94.68889,50,77,0
94.68889,94.75743,46,76,0
94.76147,94.85088,45,78,0
94.84728,94.93745,46,80,0
94.93382,95.02509,50,83,0
95.021416,95.12305,53,85,0
95.110085,95.19981,56,88,0
95.19981,95.64098,45,73,0
95.19981,95.64098,57,92,0
95.82376,95.953865,63,84,0
95.82376,95.953865,51,66,0
95.99839,96.12025,49,67,0
95.99839,96.12025,61,85,0
96.16164,96.27712,47,70,0
96.16164,96.27712,59,87,0
96.31676,96.4257,45,72,0
96.31676,96.4257,57,90,0
96.46283,96.566025,55,90,0
96.46283,96.566025,43,72,0
96.60174,96.70024,53,92,0
96.60174,96.70024,41,73,0
96.73391,96.82768,51,93,0
96.73391,96.82768,39,73,0
96.86018,96.950066,49,95,0
96.86018,96.950066,37,95,0
96.980865,97.082,35,97,0
96.980865,97.082,47,97,0
97.05075,97.23825,46,92,0
97.05075,97.23825,34,74,0
97.55075,97.77802,39,63,0
97.55075,97.77802,46,63,0
97.55075,97.77802,51,63,0
98.0962,98.32985,39,65,0
98.0962,98.32985,46,65,0
98.0962,98.32985,53,65,0
98.65695,98.90447,54,63,0
98.65695,98.90447,46,63,0
98.65695,98.90447,39,63,0
99.25101,99.89617,55,82,0
99.89617,100.18743,51,79,0
99.25101,100.47869,39,65,0
99.25101,100.47869,46,65,0
100.47869,100.63941,45,85,0
100.47869,100.63941,57,85,0
100.714035,100.84616,67,81,0
100.714035,100.84616,55,81,0
100.88872,101.01248,51,83,0
100.88872,101.01248,63,83,0
101.05278,101.169815,48,85,0
101.05278,101.169815,60,85,0
101.20763,101.31864,44,87,0
101.20763,101.31864,56,87,0
101.35466,101.45967,41,90,0
101.35466,101.45967,53,90,0
101.49396,101.594154,50,92,0
101.49396,101.594154,38,92,0
101.63426,101.820206,46,92,0
101.63426,101.820206,34,92,0
102.13013,102.370514,46,66,0
102.13013,102.370514,51,66,0
102.13013,102.370514,39,66,0
102.70705,102.95705,50,71,0
102.70705,102.95705,53,71,0
102.70705,102.95705,39,71,0
102.70705,102.95705,47,71,0
103.30705,103.594406,55,66,0
103.30705,103.594406,46,66,0
103.30705,103.594406,39,66,0
103.996704,105.17017,39,64,0
103.996704,105.17017,46,64,0
103.996704,105.17017,51,64,0
105.60275,105.64728,89,37,0
105.650986,105.69543,87,37,0
105.699135,105.74344,86,36,0
105.747116,105.79124,84,36,0
105.79491,105.83903,82,36,0
105.842705,105.88671,80,36,0
105.890366,105.93416,79,36,0
105.93781,105.981606,77,36,0
105.98523,106.02871,75,36,0
106.032326,106.075806,74,36,0
106.08305,106.126274,72,36,0
106.126274,106.332695,70,41,0
106.67893,106.89528,51,29,0
107.25586,107.48545,50,32,0
107.8681,108.1181,38,30,0
108.53477,109.232445,50,29,0
109.232445,109.65498,47,27,0
108.53477,110.077515,43,29,0
110.077515,110.14448,90,27,0
110.14448,110.21144,91,27,0
110.21144,110.278404,95,29,0
110.278404,110.345375,93,29,0
110.345375,110.40736,91,29,0
110.40736,110.46934,90,29,0
110.46934,110.530815,88,29,0
110.530815,110.59229,86,28,0
110.59229,110.65327,84,28,0
110.65327,110.71424,83,28,0
110.71424,110.77473,81,28,0
110.77473,110.83521,79,28,0
110.83521,110.89521,78,27,0
110.89521,110.95521,76,27,0
110.95521,111.01473,74,27,0
111.01473,111.073944,72,27,0
111.073944,111.29894,71,27,0
111.67394,112.26534,48,28,0
112.31911,112.900505,41,31,0
113.01678,113.82561,34,30,0
113.01678,113.82561,46,30,0
113.89913,115.74339,39,30,0
113.89913,115.74339,46,30,0
115.86635,116.45076,55,82,0
115.86635,116.45076,43,73,0
116.45076,116.64557,51,79,0
116.45076,116.64557,39,71,0
116.64557,116.816025,48,82,0
116.64557,116.816025,36,73,0
116.816025,116.981766,47,78,0
116.816025,116.981766,35,70,0
116.981766,117.10608,48,78,0
116.981766,117.10608,36,70,0
117.147514,117.27182,50,78,0
117.147514,117.27182,38,70,0
117.31326,117.47993,51,82,0
117.31326,117.47993,39,73,0
117.47993,117.64035,50,78,0
117.47993,117.64035,38,70,0
117.64035,117.76067,51,78,0
117.64035,117.76067,39,70,0
117.80078,117.921104,53,78,0
117.80078,117.921104,41,70,0
117.96121,118.11994,55,82,0
117.96121,118.11994,43,73,0
118.11994,118.27458,54,79,0
118.11994,118.27458,42,71,0
118.27458,118.39056,55,79,0
118.27458,118.39056,43,71,0
118.429214,118.5452,57,79,0
118.429214,118.5452,45,71,0
118.583855,118.740105,59,85,0
118.583855,118.740105,47,76,0
118.740105,118.891624,57,79,0
118.740105,118.891624,45,71,0
118.891624,119.00526,59,79,0
118.891624,119.00526,47,71,0
119.04314,119.15678,55,79,0
119.04314,119.15678,43,71,0
119.19466,119.34617,60,88,0
119.19466,119.34617,48,79,0
119.34617,119.493225,59,80,0
119.34617,119.493225,47,72,0
119.493225,119.60352,60,80,0
119.493225,119.60352,48,72,0
119.64029,119.75058,62,80,0
119.64029,119.75058,50,72,0
119.78676,119.93601,63,92,0
119.78676,119.93601,51,83,0
119.93601,120.07819,62,81,0
119.93601,120.07819,50,72,0
120.07819,120.18483,63,81,0
120.07819,120.18483,51,72,0
120.220375,120.327,65,81,0
120.220375,120.327,53,72,0
120.36255,120.53109,67,92,0
120.36255,120.53109,55,83,0
120.69963,120.98809,59,82,0
120.69963,120.98809,50,73,0
120.69963,120.98809,43,73,0
121.08424,121.613754,67,85,0
121.08424,121.613754,55,76,0
121.08424,121.613754,59,76,0
121.08424,121.613754,62,76,0
122.078995,122.379944,53,55,0
122.379944,122.6788,67,67,0
122.078995,122.6788,62,62,0
122.078995,122.6788,59,62,0
122.6788,122.97301,60,69,0
122.379944,122.97301,51,60,0
123.26956,123.56306,59,55,0
123.26956,123.56306,50,55,0
123.56306,123.86273,48,60,0
123.56306,123.86273,63,67,0
123.26956,123.86273,56,62,0
123.86273,124.182976,60,63,0
123.86273,124.182976,51,56,0
123.86273,124.182976,55,56,0
124.182976,124.332466,67,67,0
124.182976,124.332466,63,60,0
124.332466,124.45898,65,64,0
124.332466,124.45898,62,57,0
124.484276,124.630615,65,64,0
124.484276,124.630615,62,57,0
124.630615,124.757126,63,64,0
124.630615,124.757126,60,57,0
124.782036,124.9291,63,69,0
124.782036,124.9291,60,62,0
124.9291,125.0556,62,64,0
124.9291,125.0556,58,57,0
125.0809,125.22964,62,64,0
125.0809,125.22964,58,57,0
125.22964,125.35615,60,64,0
125.22964,125.35615,56,57,0
124.01349,125.38145,44,56,0
125.38145,125.53559,56,60,0
125.38145,125.53559,60,67,0
125.53559,125.64865,59,66,0
125.53559,125.64865,55,59,0
125.68634,125.86927,55,78,0
125.68634,125.86927,43,70,0
127.03458,127.18725,31,71,0
127.64603,127.94906,43,70,0
127.33826,128.25058,36,73,0
128.25058,128.54817,35,71,0
127.94906,128.84431,38,73,0
128.84431,128.9901,41,71,0
128.54817,129.4272,50,73,0
129.4272,129.57074,43,73,0
129.13588,129.99379,39,64,0
129.99379,130.13058,48,69,0
129.71338,130.13058,55,77,0
130.13058,130.26738,56,64,0
130.26738,130.58997,48,69,0
130.58997,130.95807,47,72,0
130.26738,130.95807,50,77,0
130.95807,131.4825,55,67,0
130.95807,131.4825,67,85,0
130.95807,131.4825,59,67,0
130.95807,131.4825,62,67,0
131.4825,131.60281,67,76,0
131.4825,131.60281,55,60,0
131.64291,131.76149,68,79,0
131.64291,131.76149,56,63,0
131.80101,131.91324,55,60,0
131.80101,131.91324,67,76,0
131.95065,132.06288,56,60,0
131.95065,132.06288,68,76,0
132.1003,132.21402,50,60,0
132.1003,132.21402,62,76,0
132.25194,132.36331,67,79,0
132.25194,132.36331,55,63,0
132.40045,132.51054,66,76,0
132.40045,132.51054,54,60,0
132.54723,132.65732,67,76,0
132.54723,132.65732,55,60,0
132.69402,132.80545,48,60,0
132.69402,132.80545,60,76,0
132.84259,132.95631,53,63,0
132.84259,132.95631,65,79,0
132.99423,133.10329,64,77,0
132.99423,133.10329,52,62,0
133.13963,133.24869,53,62,0
133.13963,133.24869,65,77,0
133.28503,133.39647,59,77,0
133.28503,133.39647,47,62,0
133.43361,133.54337,51,63,0
133.43361,133.54337,63,79,0
133.57996,133.68748,50,60,0
133.57996,133.68748,62,76,0
133.72333,133.8307,51,60,0
133.72333,133.8307,63,76,0
133.86638,133.9734,48,60,0
133.86638,133.9734,60,76,0
134.00897,134.11552,58,76,0
134.00897,134.11552,46,60,0
134.15103,134.25719,56,72,0
134.15103,134.25719,44,57,0
134.29254,134.40108,55,72,0
134.29254,134.40108,43,57,0
134.43726,134.5458,53,72,0
134.43726,134.5458,41,57,0
134.58199,134.69206,51,77,0
134.58199,134.69206,39,62,0
134.72876,134.83885,43,57,0
134.72876,134.83885,55,72,0
134.87555,134.98773,53,72,0
134.87555,134.98773,41,57,0
135.02544,135.14003,38,57,0
135.02544,135.15286,50,72,0
135.17802,135.3316,35,60,0
135.17802,135.3316,47,76,0
135.3316,135.4596,36,59,0
135.3316,135.4596,48,74,0
135.48518,135.7718,60,82,0
135.48518,135.7718,51,65,0
135.48518,135.7718,55,65,0
135.86736,136.35368,46,87,0
135.86736,136.35368,34,78,0
136.35368,136.50487,46,78,0
136.19157,136.50487,44,66,0
136.19157,136.50487,41,59,0
136.35368,136.50487,34,70,0
136.50487,136.65607,46,82,0
136.50487,136.65607,34,73,0
136.65607,136.80197,45,69,0
136.65607,136.80197,33,62,0
136.80197,136.94788,46,72,0
136.80197,136.94788,34,64,0
136.94788,137.09377,50,76,0
136.94788,137.09377,38,67,0
137.09377,137.24266,53,78,0
137.09377,137.24266,41,70,0
137.24266,137.385,58,81,0
137.24266,137.385,46,72,0
137.385,137.52734,62,84,0
137.385,137.52734,50,74,0
137.52734,137.66757,65,86,0
137.52734,137.66757,53,77,0
137.66757,137.81464,56,80,0
137.66757,137.81464,68,90,0
137.81464,137.96169,65,82,0
137.81464,137.96169,53,73,0
137.96169,138.23442,62,71,0
137.96169,138.23442,50,63,0
137.96169,138.23442,56,63,0
137.96169,138.23442,58,63,0
138.32533,138.81166,46,87,0
138.32533,138.81166,34,78,0
138.81166,138.95944,46,78,0
138.64955,138.95944,44,66,0
138.64955,138.95944,41,59,0
138.81166,138.95944,34,70,0
138.95944,139.10722,46,82,0
138.95944,139.10722,34,73,0
139.10722,139.25076,45,69,0
139.10722,139.25076,33,62,0
139.25076,139.3943,46,72,0
139.25076,139.3943,34,64,0
139.3943,139.53784,50,76,0
139.3943,139.53784,38,67,0
139.53784,139.6849,53,78,0
139.53784,139.6849,41,70,0
139.6849,139.83342,58,81,0
139.6849,139.83342,46,72,0
139.83342,139.98456,62,84,0
139.83342,139.98456,50,74,0
139.98456,140.13573,65,86,0
139.98456,140.13573,53,77,0
140.13573,140.29616,56,80,0
140.13573,140.29616,68,90,0
140.29616,140.43088,65,82,0
140.29616,140.43088,53,73,0
140.47578,140.768,59,71,0
140.47578,140.768,47,63,0
140.47578,140.768,53,63,0
140.47578,140.768,56,63,0
140.8654,141.40433,55,90,0
140.8654,141.40433,43,90,0
141.40433,141.57286,51,70,0
141.40433,141.57286,39,70,0
141.57286,141.69582,48,73,0
141.57286,141.69582,36,73,0
141.7368,141.85777,47,70,0
141.7368,141.85777,35,70,0
141.89809,142.05434,48,70,0
141.89809,142.05434,36,70,0
141.89809,142.13246,43,51,0
141.89809,142.13246,39,51,0
142.05434,142.21059,38,70,0
142.05434,142.21059,50,70,0
142.21059,142.33028,51,72,0
142.21059,142.33028,39,72,0
142.37016,142.48796,50,70,0
142.37016,142.48796,38,70,0
142.52724,142.68108,51,70,0
142.52724,142.68108,39,70,0
142.68108,142.83493,53,70,0
142.21059,142.83493,43,54,0
142.21059,142.83493,48,54,0
142.68108,142.83493,41,70,0
142.83493,142.95396,55,72,0
142.83493,142.95396,43,72,0
142.83493,143.07019,48,54,0
142.83493,143.07019,50,54,0
142.99365,143.1212,42,70,0
142.99365,143.1212,54,70,0
143.14671,143.29597,55,70,0
143.14671,143.29597,43,70,0
143.14671,143.37059,50,54,0
143.14671,143.37059,47,54,0
143.29597,143.44522,57,70,0
143.29597,143.44522,45,70,0
143.44522,143.56061,59,74,0
143.44522,143.56061,47,74,0
143.59908,143.73454,57,70,0
143.59908,143.73454,45,70,0
143.74686,143.89464,59,70,0
143.74686,143.89464,47,70,0
143.74686,143.96852,53,54,0
143.74686,143.96852,50,54,0
143.89464,144.04242,43,70,0
143.89464,144.04242,55,70,0
144.04242,144.16742,60,79,0
144.04242,144.16742,48,79,0
144.04242,144.26523,51,60,0
144.19241,144.33804,59,69,0
144.19241,144.33804,47,69,0
144.33804,144.48367,60,70,0
144.33804,144.48367,48,70,0
144.33804,144.5565,51,60,0
144.33804,144.5565,55,60,0
144.48367,144.62932,50,72,0
144.48367,144.62932,62,72,0
144.62932,144.75432,63,81,0
144.62932,144.75432,51,81,0
144.62932,144.85007,55,63,0
144.62932,144.85007,60,63,0
144.77931,144.92082,50,70,0
144.77931,144.92082,62,70,0
144.92082,145.06233,63,72,0
144.92082,145.06233,51,72,0
144.92082,145.13309,60,63,0
144.92082,145.13309,56,63,0
145.06233,145.20384,53,73,0
145.06233,145.20384,65,73,0
145.20384,145.37334,67,81,0
145.20384,145.37334,55,81,0
145.20384,145.37334,59,81,0
145.54282,145.8189,55,69,0
145.54282,145.8189,50,69,0
145.54282,145.8189,43,69,0
145.91092,146.4435,55,72,0
145.91092,146.4435,67,80,0
145.91092,146.4435,62,72,0
145.91092,146.4435,59,72,0
146.4435,146.62102,55,72,0
146.4435,146.62102,43,64,0
146.62102,146.79147,53,74,0
146.62102,146.79147,47,66,0
146.62102,146.79147,41,66,0
146.79147,146.95815,52,72,0
146.79147,146.95815,40,64,0
146.95815,147.12297,53,72,0
146.95815,147.12297,47,64,0
146.95815,147.12297,41,64,0
147.12297,147.28427,59,72,0
147.12297,147.28427,47,64,0
147.28427,147.443,51,74,0
147.28427,147.443,39,66,0
147.443,147.60007,50,72,0
147.443,147.60007,38,64,0
147.60007,147.75713,51,72,0
147.60007,147.75713,48,72,0
147.60007,147.75713,39,64,0
147.75713,147.91756,56,72,0
147.75713,147.91756,44,64,0
147.91756,148.0722,50,74,0
147.91756,148.0722,44,66,0
147.91756,148.0722,38,66,0
148.0722,148.22295,49,72,0
148.0722,148.22295,37,64,0
148.22295,148.33601,50,72,0
148.22295,148.33601,43,64,0
148.22295,148.33601,38,64,0
148.3737,148.52835,55,72,0
148.3737,148.52835,43,64,0
148.52835,148.67613,48,74,0
148.52835,148.67613,36,66,0
148.67613,148.82152,47,72,0
148.67613,148.82152,35,64,0
148.82152,148.92993,48,72,0
148.82152,148.92993,43,64,0
148.82152,148.92993,36,64,0
148.96599,149.1093,51,72,0
148.96599,149.1093,39,64,0
149.1093,149.39288,53,74,0
149.1093,149.39288,41,66,0
149.39288,149.50142,63,72,0
149.39288,149.50142,51,64,0
149.5376,149.64613,62,72,0
149.5376,149.64613,50,64,0
149.68231,149.7924,60,76,0
149.68231,149.7924,48,67,0
149.8291,149.9392,55,72,0
149.8291,149.9392,43,64,0
149.97589,150.08806,56,72,0
149.97589,150.08806,44,64,0
150.12578,150.2532,55,72,0
150.12578,150.2532,43,64,0
150.27837,150.4338,47,72,0
150.27837,150.4338,35,64,0
150.4338,150.55478,48,71,0
150.4338,150.55478,36,63,0
150.5951,150.833,60,78,0
150.5951,150.833,48,70,0
150.5951,150.833,51,70,0
150.5951,150.833,55,70,0
152.6132,152.88348,47,77,0
152.6132,152.88348,35,69,0
152.88348,153.09181,48,71,0
152.88348,153.09181,36,63,0
153.16125,153.39915,63,63,0
153.16125,153.39915,56,55,0
153.16125,153.39915,48,55,0
153.16125,153.39915,54,55,0
154.03354,154.10854,63,56,0
154.10854,155.17049,63,62,0
155.17049,155.2582,47,60,0
155.17049,155.2582,35,54,0
155.34592,155.43683,48,57,0
155.34592,155.43683,36,51,0
155.52774,155.77774,54,53,0
155.52774,155.77774,42,46,0
155.86107,156.57732,63,45,0
155.86107,156.57732,66,45,0
155.86107,156.57732,69,51,0
156.57732,157.36183,69,49,0
156.57732,157.36183,65,44,0
156.57732,157.36183,62,44,0
157.36183,157.48895,52,58,0
157.36183,157.48895,40,45,0
157.61606,157.85542,53,57,0
157.61606,157.85542,41,45,0
157.93521,158.6947,53,42,0
157.93521,158.6947,65,53,0
159.89252,160.33382,46,54,0
159.89252,160.33382,34,48,0
160.33382,160.43979,46,48,0
160.33382,160.43979,34,48,0
160.18672,160.47511,41,46,0
160.18672,160.47511,44,46,0
160.47511,160.54576,46,50,0
160.47511,160.54576,34,45,0
160.61641,160.68503,45,52,0
160.61641,160.68503,33,45,0
160.75365,160.82227,46,52,0
160.75365,160.82227,34,45,0
160.89088,160.9595,50,53,0
160.89088,160.9595,38,46,0
161.02812,161.09843,53,55,0
161.02812,161.09843,41,49,0
161.16873,161.23973,58,57,0
161.16873,161.23973,46,51,0
161.31075,161.38281,62,57,0
161.31075,161.38281,50,51,0
161.45525,161.52805,65,58,0
161.45525,161.52805,53,52,0
161.59978,161.67087,56,54,0
161.59978,161.67087,68,60,0
161.74196,161.81586,65,57,0
161.74196,161.81586,53,51,0
161.88974,162.05103,62,49,0
161.88974,162.05103,50,44,0
164.28561,164.36499,68,38,0
164.36499,164.44435,62,39,0
164.44435,164.52371,53,42,0
164.52371,164.81784,46,44,0
165.47798,165.55736,56,35,0
165.55736,165.63672,53,36,0
165.63672,165.71608,47,38,0
165.71608,166.01021,39,39,0
166.58081,166.64995,80,36,0
166.64995,166.71907,77,36,0
166.71907,166.7882,71,36,0
166.7882,166.85732,70,36,0
167.1338,167.20294,56,36,0
167.20294,167.27249,53,36,0
167.27249,167.34236,47,36,0
167.34236,167.41267,46,36,0
168.07619,168.51717,78,35,0
168.00407,168.51717,62,31,0
168.0281,168.51717,69,32,0
168.05215,168.51717,72,33,0
168.9744,169.40453,74,36,0
168.87946,169.40453,58,32,0
168.9111,169.40453,65,33,0
168.94275,169.40453,68,35,0
171.31154,171.40704,59,36,0
171.37549,171.46927,60,35,0
171.43822,171.53273,59,36,0
171.50076,171.59537,60,35,0
171.56432,171.65578,59,36,0
171.62584,171.71501,60,35,0
171.68541,171.75203,59,36,0
171.72983,171.79686,60,35,0
171.77423,171.86662,59,37,0
171.86662,171.99988,58,36,0
171.96579,172.06721,59,36,0
172.79977,172.89389,61,41,0
172.86322,172.95296,62,37,0
172.92355,173.01376,61,42,0
172.98239,173.07715,62,37,0
173.04546,173.13963,61,43,0
173.10883,173.19873,62,38,0
173.16928,173.23563,61,44,0
173.21346,173.28127,62,39,0
173.25807,173.32816,61,44,0
173.3047,173.37532,62,39,0
173.35173,173.4227,61,44,0
173.39897,173.47028,62,41,0
173.44643,173.51833,61,45,0
173.49416,173.56622,62,41,0
173.54279,173.63574,61,45,0
173.60513,173.6957,62,41,0
173.66592,173.75554,61,45,0
173.72545,173.81728,62,39,0
173.78613,173.87915,61,45,0
173.84837,173.93991,62,39,0
173.90968,173.97737,61,44,0
173.95493,174.02199,62,38,0
173.99976,174.06636,61,43,0
174.04417,174.11073,62,37,0
174.08855,174.15512,61,41,0
174.13293,174.2002,62,37,0
174.1773,174.24713,61,41,0
174.22354,174.29518,62,36,0
174.27101,174.36958,61,41,0
174.33647,174.4358,62,36,0
174.4027,174.50203,61,38,0
174.46892,174.56804,62,35,0
174.53514,174.63315,61,36,0
174.60077,174.70966,62,33,0
174.6654,174.76495,61,36,0
174.73178,174.83133,62,32,0
174.79814,174.92775,61,33,0
174.92775,175.19585,60,29,0
175.19585,175.50835,61,26,0
178.50967,178.56737,77,37,0
178.57477,178.63245,75,37,0
178.63985,178.69754,74,36,0
178.70494,178.75671,72,36,0
178.76411,178.96147,70,41,0
179.29042,179.49876,46,27,0
179.29042,179.49876,39,27,0
179.84598,180.06027,46,27,0
179.84598,180.06027,39,27,0
180.4174,180.64241,46,27,0
180.4174,180.64241,39,27,0
181.01741,182.32181,46,29,0
181.01741,182.32181,39,29,0
182.91008,182.95973,77,37,0
182.96829,183.01796,75,37,0
183.02652,183.07617,74,36,0
183.08473,183.14124,72,36,0
183.14981,183.35251,70,41,0
183.69034,183.9026,46,27,0
183.69034,183.9026,39,27,0
184.25638,184.49075,46,29,0
184.25638,184.49075,39,29,0
184.88138,185.14609,46,27,0
184.88138,185.14609,39,27,0
185.58727,187.20699,46,27,0
185.58727,187.20699,39,27,0
187.6654,187.71341,89,37,0
187.7174,187.76541,87,37,0
187.76941,187.81741,86,36,0
187.82141,187.8694,84,36,0
187.87341,187.9214,82,36,0
187.9254,187.9734,80,36,0
187.9774,188.0254,79,36,0
188.0294,188.07741,77,36,0
188.0814,188.12941,75,36,0
188.1334,188.18141,74,36,0
188.1894,188.23741,72,36,0
188.23741,188.43652,70,41,0
188.7722,188.98055,46,29,0
188.7722,188.98055,39,29,0
189.32776,189.54411,46,32,0
189.32776,189.54411,39,32,0
189.9047,190.14153,46,30,0
189.9047,190.14153,39,30,0
190.53627,192.07901,46,32,0
190.53627,192.07901,39,32,0
192.65121,192.69843,89,37,0
192.70314,192.7503,87,37,0
192.75499,192.80171,86,36,0
192.80638,192.85312,84,36,0
192.85779,192.90465,82,36,0
192.90936,192.95653,80,36,0
192.96126,193.00865,79,36,0
193.01341,193.06102,77,36,0
193.06578,193.11372,75,36,0
193.11853,193.16661,74,36,0
193.17142,193.21991,72,36,0
193.22478,193.42747,70,41,0
193.7653,193.9787,46,31,0
193.7653,193.9787,39,31,0
194.33435,194.57892,47,32,0
194.33435,194.57892,39,32,0
194.98653,195.275,46,31,0
194.98653,195.275,39,31,0
195.75577,197.35298,46,29,0
195.75577,197.35298,39,29,0
195.75577,197.35298,51,29,0
197.42242,197.48534,46,53,0
197.48694,197.54985,45,53,0
197.55145,197.61395,44,53,0
197.61557,197.67807,43,53,0
197.67967,197.74176,42,53,0
197.74336,197.80547,41,53,0
197.80705,197.86876,40,56,0
197.87035,197.93205,39,58,0
197.93364,197.99495,38,60,0
197.99654,198.05785,37,63,0
198.05942,198.12036,36,64,0
198.12192,198.18268,35,66,0
198.18423,198.32574,34,83,0
198.75026,198.9548,46,41,0
198.75026,198.9548,53,41,0
199.29572,199.50798,54,45,0
199.29572,199.50798,46,45,0
199.86176,200.08676,46,43,0
199.86176,200.08676,55,43,0
200.46176,201.10849,58,45,0
201.11394,201.47537,53,44,0
200.46176,201.83682,46,45,0
201.83682,201.89977,34,55,0
201.9015,201.96445,36,56,0
201.96619,202.02913,38,57,0
202.03088,202.09381,39,59,0
202.09557,202.15851,41,60,0
202.16025,202.22319,43,62,0
202.22493,202.28787,45,63,0
202.28963,202.35255,46,63,0
202.35431,202.41724,48,64,0
202.41899,202.48193,50,65,0
202.48367,202.54662,51,67,0
202.54836,202.6113,52,69,0
202.61305,202.67424,55,70,0
203.25851,203.47078,41,41,0
203.25851,203.47078,46,41,0
203.82454,204.04732,48,44,0
203.82454,204.04732,41,44,0
204.42592,204.67049,41,43,0
204.42592,204.67049,50,43,0
202.67598,205.81883,53,63,0
205.81883,206.18921,34,48,0
205.0781,206.55957,46,44,0
206.79013,206.84584,66,58,0
206.84726,206.90298,65,58,0
206.9044,206.95981,64,60,0
206.96123,207.01663,63,63,0
207.74324,207.94778,46,38,0
207.74324,207.94778,53,38,0
207.74324,207.94778,58,38,0
208.2887,208.49702,54,43,0
208.2887,208.49702,46,43,0
208.2887,208.49702,60,43,0
208.84425,209.06703,46,41,0
208.84425,209.06703,55,41,0
208.84425,209.06703,61,43,0
209.43831,210.09048,62,42,0
210.09048,210.44763,58,41,0
209.43831,210.80476,46,42,0
209.43831,210.80476,53,42,0
210.80476,210.87296,46,49,0
210.87485,210.94302,48,50,0
210.94492,211.0131,50,51,0
211.015,211.08318,51,53,0
211.08507,211.15326,53,54,0
211.15515,211.22333,55,55,0
211.22522,211.29341,57,55,0
211.2953,211.36348,58,56,0
212.43675,213.14264,59,35,0
212.43675,213.14264,53,35,0
213.14264,213.85466,53,36,0
213.14264,213.85466,60,36,0
213.85466,214.8301,57,32,0
213.85466,214.8301,65,36,0
213.85466,214.8301,53,32,0
214.55835,214.8301,53,32,0
214.504,216.38414,46,32,0
214.6127,216.38414,62,36,0
217.86484,217.94237,48,51,0
217.94237,218.01959,49,53,0
218.01959,218.09651,48,54,0
218.09651,218.17284,47,56,0
218.17284,218.24889,46,57,0
218.24889,218.32436,45,58,0
218.32436,218.52002,44,60,0
218.8461,218.91544,41,52,0
218.91544,218.98573,43,51,0
218.98573,219.05737,41,50,0
219.05737,219.13031,40,50,0
219.13031,219.20454,39,49,0
219.20454,219.28435,38,48,0
219.28435,219.37843,37,46,0
219.37843,219.96097,36,45,0
219.96097,220.19292,52,39,0
221.992,222.06952,60,51,0
222.06952,222.14674,61,53,0
222.14674,222.22366,60,54,0
222.22366,222.3,59,56,0
222.3,222.37604,58,57,0
222.37604,222.45152,57,58,0
221.992,222.45152,48,51,0
222.45152,222.6406,56,60,0
222.45152,222.6406,44,54,0
222.95572,223.02963,53,52,0
223.02963,223.10423,55,51,0
223.10423,223.17949,53,50,0
223.17949,223.2557,52,50,0
223.2557,223.33249,51,49,0
223.33249,223.41397,50,48,0
223.41397,223.50418,49,46,0
222.95572,223.50418,41,52,0
223.50418,224.0867,48,45,0
223.50418,224.0867,36,41,0
224.0867,224.32607,64,39,0
224.0867,224.32607,55,36,0
224.725,224.81949,80,50,0
224.81949,224.91399,79,48,0
224.91399,225.0051,78,49,0
225.0051,225.09421,77,50,0
225.09421,225.18254,76,52,0
225.18254,225.26976,75,54,0
225.26976,225.35625,74,55,0
225.35625,225.44171,73,56,0
224.725,225.52643,72,50,0
225.44171,225.52643,72,58,0
225.52643,225.6102,71,59,0
225.6102,225.73314,68,62,0
225.6102,225.73314,70,62,0
226.102,226.17952,46,51,0
226.17952,226.25674,47,53,0
226.25674,226.33366,46,54,0
226.33366,226.41,45,56,0
226.41,226.48604,44,57,0
226.48604,226.56152,43,58,0
226.56152,226.74008,42,60,0
227.0377,227.10913,39,57,0
227.10913,227.18106,41,57,0
227.18106,227.25354,39,56,0
227.25354,227.32681,38,55,0
227.32681,227.40065,37,55,0
227.40065,227.47954,36,54,0
227.47954,227.56255,35,54,0
227.56255,228.15077,34,53,0
228.15077,228.40077,50,49,0
228.81744,228.90836,80,50,0
228.90836,228.99927,79,48,0
228.99927,229.08954,78,49,0
229.08954,229.17976,77,50,0
229.17976,229.26944,76,52,0
229.26944,229.35887,75,54,0
229.35887,229.44777,74,55,0
229.44777,229.53659,73,56,0
229.53659,229.62483,72,58,0
228.81744,229.7128,71,50,0
229.62483,229.7128,71,59,0
229.7128,229.83575,68,62,0
229.7128,229.83575,70,62,0
230.2046,230.29007,58,59,0
230.29007,230.37555,59,60,0
230.37555,230.46101,58,62,0
230.46101,230.54648,57,62,0
230.54648,230.63196,56,63,0
230.63196,230.71742,55,63,0
230.14313,230.71742,46,53,0
230.71742,230.90338,54,63,0
230.71742,230.90338,42,56,0
231.21329,231.28683,51,64,0
231.28683,231.36143,53,64,0
231.36143,231.43713,51,64,0
231.43713,231.51404,50,64,0
231.51404,231.59215,49,64,0
231.59215,231.67606,48,64,0
231.67606,231.77116,47,64,0
231.1513,231.77116,39,57,0
231.70322,232.43782,34,69,0
232.43782,232.68782,50,58,0
232.43782,232.68782,53,65,0
231.71681,233.04893,46,77,0
233.10449,233.22076,70,72,0
233.10449,233.27892,82,80,0
233.33705,233.43571,80,69,0
233.33705,233.43571,68,69,0
233.49149,233.59245,78,71,0
233.49149,233.59245,66,63,0
233.64359,233.74677,76,73,0
233.64359,233.74677,64,65,0
233.7934,233.89873,74,76,0
233.7934,233.89873,62,67,0
233.94101,234.04842,72,79,0
233.94101,234.04842,60,71,0
234.08646,234.35674,70,90,0
234.08646,234.35674,58,81,0
234.627,235.23306,46,64,0
234.627,235.23306,41,64,0
234.627,235.23306,34,64,0
235.23306,235.40749,86,80,0
235.23306,235.40749,74,72,0
235.46562,235.56429,84,69,0
235.46562,235.56429,72,62,0
235.62006,235.72102,82,71,0
235.62006,235.72102,70,63,0
235.77216,235.87532,80,73,0
235.77216,235.87532,68,65,0
235.92197,236.0273,78,76,0
235.92197,236.0273,66,67,0
236.06958,236.17699,76,79,0
236.06958,236.17699,64,71,0
236.21503,236.4853,74,90,0
236.21503,236.4853,62,81,0
236.75557,237.29611,50,64,0
236.75557,237.29611,41,64,0
236.75557,237.29611,34,64,0
237.29611,237.41806,89,74,0
237.29611,237.41806,77,66,0
237.54001,237.61635,87,74,0
237.54001,237.61635,75,66,0
237.69182,237.76617,85,76,0
237.69182,237.76617,73,67,0
237.8397,237.91243,83,77,0
237.8397,237.91243,71,69,0
237.9849,238.05736,81,78,0
237.9849,238.05736,69,70,0
238.12982,238.20229,79,79,0
238.12982,238.20229,67,71,0
238.27475,238.34721,77,79,0
238.27475,238.34721,65,71,0
238.41968,238.49214,75,80,0
238.41968,238.49214,63,72,0
238.5646,238.63707,61,72,0
238.5646,238.64612,73,81,0
238.70953,238.79105,59,73,0
238.70953,238.80011,71,82,0
238.85446,238.94504,69,82,0
238.85446,238.94504,57,73,0
238.99939,239.08997,67,83,0
238.99939,239.08997,55,73,0
239.14432,239.2349,65,84,0
239.14432,239.2349,53,74,0
239.28925,239.38231,63,85,0
239.28925,239.38231,51,76,0
239.43523,239.53265,61,86,0
239.43523,239.53265,49,77,0
239.58229,239.68414,59,86,0
239.58229,239.68414,47,77,0
239.73044,239.83678,57,87,0
239.73044,239.83678,45,78,0
239.87968,239.99059,53,88,0
239.87968,239.99059,41,79,0
240.03006,240.48404,46,94,0
240.03006,240.48404,34,84,0
240.48404,240.55812,33,74,0
240.55812,240.63138,34,72,0
240.63138,240.71284,38,72,0
240.70384,240.7865,41,73,0
240.77579,240.85904,44,73,0
240.84671,240.93103,46,74,0
240.91713,241.00221,50,74,0
240.98659,241.07338,53,76,0
241.05603,241.12547,56,76,0
241.12547,241.19492,58,77,0
241.19492,241.26436,62,77,0
241.26436,241.3338,65,77,0
241.3338,241.41724,68,78,0
241.41724,241.50114,70,78,0
241.50114,241.5856,74,79,0
241.5856,241.67012,77,80,0
241.67012,241.75462,80,80,0
241.75462,241.8067,81,81,0
241.82545,241.88788,84,78,0
241.89615,241.95813,82,77,0
241.9664,242.02818,80,77,0
242.03638,242.09732,77,77,0
242.10538,242.16554,74,77,0
242.17354,242.23355,70,77,0
242.24554,242.30507,69,81,0
242.313,242.38004,72,78,0
242.38004,242.44696,70,77,0
242.44696,242.51389,68,77,0
242.51389,242.58081,65,77,0
242.58081,242.64775,62,77,0
242.64775,242.71468,58,77,0
242.71861,242.77766,57,81,0
242.78554,242.85246,60,78,0
242.85246,242.9194,58,77,0
242.9194,242.98633,56,77,0
242.98633,243.05325,53,77,0
243.05325,243.12018,50,77,0
243.12018,243.18712,46,76,0
243.19106,243.28047,45,78,0
243.27687,243.36703,46,80,0
243.3634,243.45468,50,83,0
243.451,243.55263,53,85,0
243.53967,243.6294,56,88,0
243.6294,244.07057,57,92,0
243.6294,244.07057,45,73,0
244.25334,244.38345,63,75,0
244.25334,244.38345,51,59,0
244.42798,244.54984,61,76,0
244.42798,244.54984,49,60,0
244.59122,244.70671,59,78,0
244.59122,244.70671,47,63,0
244.74634,244.85529,57,81,0
244.74634,244.85529,45,64,0
244.89241,244.9956,55,81,0
244.89241,244.9956,43,65,0
245.03133,245.12982,53,84,0
245.03133,245.12982,41,66,0
245.1635,245.25726,51,87,0
245.1635,245.25726,39,69,0
245.28976,245.37965,37,89,0
245.28976,245.37965,49,89,0
245.41045,245.51158,47,90,0
245.41045,245.51158,35,72,0
245.48033,245.66783,34,69,0
245.48033,245.66783,46,87,0
245.98033,246.20761,46,71,0
245.98033,246.20761,39,71,0
245.98033,246.20761,51,71,0
246.52579,246.75943,46,73,0
246.52579,246.75943,39,73,0
246.52579,246.75943,53,73,0
247.08653,247.33406,46,71,0
247.08653,247.33406,39,71,0
247.08653,247.33406,54,71,0
247.68059,248.32576,55,73,0
248.32576,248.61702,51,71,0
247.68059,248.90828,46,73,0
247.68059,248.90828,39,73,0
248.90828,249.069,57,80,0
248.90828,249.069,45,71,0
249.14362,249.27576,67,76,0
249.14362,249.27576,55,67,0
249.3183,249.44206,63,78,0
249.3183,249.44206,51,68,0
249.48236,249.5994,60,81,0
249.48236,249.5994,48,72,0
249.6372,249.74823,56,84,0
249.6372,249.74823,44,75,0
249.78424,249.88925,53,86,0
249.78424,249.88925,41,78,0
249.92355,250.02374,50,89,0
249.92355,250.02374,38,80,0
250.06384,250.2498,46,90,0
250.06384,250.2498,34,81,0
250.55971,250.8001,46,66,0
250.55971,250.8001,39,66,0
250.55971,250.8001,51,74,0
251.13664,251.38664,47,71,0
251.13664,251.38664,50,79,0
251.13664,251.38664,53,79,0
251.13664,251.38664,39,71,0
251.73663,252.02399,46,66,0
251.73663,252.02399,39,66,0
251.73663,252.02399,55,74,0
252.42628,253.59976,46,64,0
252.42628,253.59976,39,64,0
252.42628,253.59976,51,72,0
254.03233,254.07686,89,37,0
254.08057,254.12502,87,37,0
254.12872,254.17302,86,36,0
254.1767,254.22083,84,36,0
254.2245,254.26862,82,36,0
254.2723,254.3163,80,36,0
254.31995,254.36374,79,36,0
254.3674,254.4112,77,36,0
254.41481,254.4583,75,36,0
254.46191,254.50539,74,36,0
254.51263,254.55586,72,36,0
254.55586,254.76228,70,41,0
255.10852,255.32487,51,29,0
255.68544,255.91504,50,32,0
256.2977,256.5477,38,30,0
256.96436,257.66202,50,29,0
257.66202,258.08456,47,27,0
256.96436,258.5071,43,29,0
258.5071,258.57407,90,27,0
258.57407,258.64102,91,27,0
258.64102,258.708,95,29,0
258.708,258.77496,93,29,0
258.77496,258.83694,91,29,0
258.83694,258.89893,90,29,0
258.89893,258.9604,88,29,0
258.9604,259.02188,86,28,0
259.02188,259.08286,84,28,0
259.08286,259.14383,83,28,0
259.14383,259.2043,81,28,0
259.2043,259.2648,79,28,0
259.2648,259.3248,78,27,0
259.3248,259.3848,76,27,0
259.3848,259.4443,74,27,0
259.4443,259.50354,72,27,0
259.50354,259.72852,71,27,0
260.10352,260.72852,48,32,0
260.78534,261.40262,41,36,0
261.5261,262.41318,46,35,0
261.5261,262.41318,34,35,0
262.49384,264.3381,46,35,0
262.49384,264.3381,39,35,0
264.46103,264.5423,57,39,0
264.54437,264.62564,58,43,0
264.62772,264.70633,63,44,0
264.70834,264.78763,62,43,0
264.78964,264.8699,60,43,0
264.87195,264.95288,58,42,0
264.95496,265.0369,56,41,0
265.03897,265.1216,55,41,0
265.12372,265.20743,53,39,0
265.20956,265.29398,51,39,0
265.29614,265.38168,50,39,0
265.38388,265.47052,48,39,0
266.3061,266.82156,54,28,0
266.3061,266.82156,45,25,0
266.3061,266.82156,39,25,0
266.92465,267.45096,54,31,0
266.92465,267.45096,45,27,0
266.92465,267.45096,39,27,0
267.55624,268.04535,54,31,0
267.55624,268.04535,45,27,0
267.55624,268.04535,39,27,0
265.47275,268.29535,47,42,0
268.08704,268.97717,39,29,0
268.1287,268.97717,46,33,0
268.17035,268.97717,55,33,0
269.7564,269.8223,57,37,0
269.83368,269.8991,58,41,0
269.9097,269.97116,67,42,0
269.98175,270.0434,65,42,0
270.05408,270.11612,63,42,0
270.1269,270.1894,62,42,0
270.20026,270.2633,60,41,0
270.27417,270.33774,58,41,0
270.3487,270.4127,56,41,0
270.42377,270.48822,55,41,0
270.49936,270.5643,53,39,0
270.57556,270.64093,51,39,0
270.65228,270.7182,50,39,0
270.7296,270.8053,48,37,0
271.66183,272.40256,40,35,0
272.40256,273.1359,41,37,0
273.20258,274.16217,34,33,0
274.16217,275.68115,39,32,0
270.81677,275.68115,46,41,0
276.07968,276.12927,89,33,0
276.1334,276.18347,87,33,0
276.18765,276.2381,86,32,0
276.24228,276.293,84,32,0
276.29724,276.3481,82,32,0
276.3524,276.4038,80,32,0
276.4081,276.45984,79,32,0
276.46417,276.51627,77,32,0
276.52063,276.57327,75,32,0
276.57767,276.63052,74,32,0
276.63937,276.69287,72,32,0
277.4246,277.9454,66,36,0
277.4246,277.9454,59,31,0
278.0496,278.55463,64,36,0
278.0496,278.55463,59,31,0
278.65564,279.1244,63,36,0
278.65564,279.17648,59,31,0
276.69287,279.28064,71,36,0
279.28064,279.93997,68,39,0
279.28064,279.93997,64,36,0
279.93997,280.3296,76,33,0
279.93997,280.3296,71,29,0
281.17978,281.24673,71,32,0
281.24673,281.3141,69,32,0
281.3141,281.3819,68,32,0
281.3819,281.45047,66,32,0
281.45047,281.51953,64,32,0
281.51953,281.5894,63,32,0
281.5894,281.65973,61,32,0
281.65973,281.73093,59,32,0
282.576,283.36545,52,32,0
283.36545,284.11957,53,36,0
284.1832,285.29996,46,31,0
281.73093,285.29996,58,35,0
285.29996,286.75568,51,27,0
286.81897,286.88486,57,36,0
286.89624,286.96167,58,38,0
286.97226,287.03372,67,38,0
287.0443,287.10596,65,38,0
287.11664,287.17868,63,38,0
287.18945,287.25195,62,38,0
287.26282,287.32587,60,38,0
287.33673,287.40027,58,38,0
287.41125,287.47525,56,38,0
287.48633,287.55078,55,38,0
287.56192,287.62683,53,37,0
287.6381,287.7035,51,37,0
287.71484,287.78076,50,37,0
287.79214,287.86786,48,36,0
288.7244,289.51385,40,33,0
289.51385,290.31097,41,36,0
290.38342,291.64914,34,31,0
291.64914,293.16412,39,26,0
287.8793,293.16412,46,38,0
293.85864,293.94266,89,33,0
293.95343,294.0368,87,33,0
294.0475,294.13046,86,32,0
294.14105,294.21484,84,32,0
294.74838,294.8119,80,38,0
294.8218,294.88528,79,39,0
294.8952,294.9583,77,41,0
294.96817,295.03113,75,42,0
295.0409,295.1034,74,43,0
295.11316,295.1754,72,45,0
295.73062,295.79874,65,55,0
295.8074,295.87512,63,57,0
295.8838,295.95108,62,59,0
295.95972,296.02048,60,62,0
296.47644,296.53125,56,62,0
296.5398,296.5946,55,63,0
296.60315,296.6579,53,65,0
296.66638,296.72083,51,67,0
296.7293,296.78375,50,69,0
296.79224,296.84668,48,71,0
297.52014,298.1868,39,62,0
297.52014,298.1868,37,62,0
296.8535,298.1868,46,86,0
298.8535,299.56775,39,60,0
298.8535,299.56775,35,60,0
298.1868,299.56775,47,81,0
299.56775,300.35724,47,72,0
299.56775,300.35724,39,61,0
299.56775,300.35724,32,61,0
300.35724,301.2803,44,72,0
300.35724,301.2803,39,61,0
300.35724,301.2803,32,61,0
301.2803,304.48032,39,69,0
301.2803,304.48032,34,61,0
301.2803,304.48032,27,61,0
304.48032,306.48032,39,69,0
304.48032,306.48032,34,61,0
304.48032,306.48032,27,61,0
306.48032,308.83325,39,69,0
306.48032,308.83325,34,61,0
306.48032,308.83325,27,61,0
308.83325,318.24503,39,69,0
308.83325,318.24503,34,61,0
308.83325,318.24503,27,61,0
