start_time,end_time,note_value,velocity,instrument_program_number
14.098565,14.181028,77,64,0
14.098565,14.181028,65,64,0
14.263085,14.344808,80,65,0
14.263085,14.344808,68,65,0
14.42613,14.507124,69,66,0
14.42613,14.507124,81,66,0
14.587791,14.66807,70,67,0
14.587791,14.66807,82,67,0
14.748028,14.827603,73,68,0
14.748028,14.827603,85,68,0
14.906863,14.985748,86,69,0
14.906863,14.985748,74,69,0
15.064323,15.14253,75,71,0
15.064323,15.14253,87,71,0
15.220433,15.298033,76,72,0
15.220433,15.298033,88,72,0
15.375273,15.452216,77,73,0
15.375273,15.452216,89,73,0
15.528805,15.605103,80,74,0
15.528805,15.605103,92,74,0
15.681051,15.757001,81,75,0
15.681051,15.757001,93,75,0
15.832951,15.908899,82,76,0
15.832951,15.908899,94,76,0
15.984849,16.060799,85,77,0
15.984849,16.060799,97,77,0
16.136747,16.212696,98,78,0
16.136747,16.212696,86,78,0
16.288645,16.364595,99,80,0
16.288645,16.364595,87,80,0
16.440544,16.516493,100,81,0
16.440544,16.516493,88,81,0
16.592443,16.668392,101,82,0
16.592443,16.668392,89,82,0
18.502007,18.701674,62,69,0
18.502007,18.701674,68,82,0
18.502007,18.701674,56,69,0
18.502007,18.701674,59,69,0
18.90134,19.099035,60,76,0
18.90134,19.099035,57,76,0
18.90134,19.099035,69,90,0
19.296728,19.392729,56,70,0
19.296728,19.392729,68,83,0
19.488728,19.58957,59,64,0
19.488728,19.58957,71,76,0
19.690409,19.886168,61,71,0
19.690409,19.886168,57,71,0
19.690409,19.886168,69,84,0
20.081926,20.273926,56,68,0
20.081926,20.273926,68,81,0
20.273926,20.375277,59,63,0
20.273926,20.375277,71,75,0
20.476627,20.576462,57,71,0
20.476627,20.576462,69,84,0
20.476627,20.576462,63,71,0
20.875961,20.9753,56,63,0
20.875961,20.9753,68,75,0
21.273314,22.052532,57,70,0
21.273314,22.052532,69,83,0
21.273314,22.052532,63,70,0
22.052532,22.247337,61,59,0
22.052532,22.247337,66,70,0
22.052532,22.247337,69,70,0
22.052532,22.247337,57,59,0
22.247337,22.436613,56,55,0
22.247337,22.436613,68,65,0
22.436613,22.624113,57,60,0
22.436613,22.624113,69,71,0
22.624113,22.82889,59,65,0
22.624113,22.82889,71,77,0
22.82889,23.648003,66,68,0
22.82889,23.648003,72,81,0
22.82889,23.648003,60,68,0
22.82889,23.648003,63,68,0
23.648003,23.841864,63,63,0
23.648003,23.841864,60,63,0
23.648003,23.841864,72,75,0
23.841864,24.031137,59,61,0
23.841864,24.031137,71,72,0
24.031137,24.22786,57,62,0
24.031137,24.22786,69,73,0
24.22786,24.431595,56,63,0
24.22786,24.431595,68,75,0
24.431595,25.042799,57,70,0
24.431595,25.042799,63,70,0
24.431595,25.042799,69,83,0
25.042799,25.140202,60,59,0
25.042799,25.140202,72,71,0
25.237604,25.42081,59,71,0
25.237604,25.42081,71,85,0
25.42081,25.567375,57,59,0
25.42081,25.567375,69,71,0
25.604017,25.696466,55,59,0
25.604017,25.696466,67,71,0
25.788916,25.88538,59,59,0
25.788916,25.88538,71,71,0
25.981842,26.165049,57,71,0
25.981842,26.165049,69,85,0
26.165049,26.311613,55,60,0
26.165049,26.311613,67,72,0
26.348255,26.441133,53,60,0
26.348255,26.441133,65,72,0
26.534014,26.630013,57,61,0
26.534014,26.630013,69,73,0
26.726013,26.907557,55,75,0
26.726013,26.907557,67,89,0
26.907557,27.05279,53,61,0
26.907557,27.05279,65,73,0
27.0891,27.180702,52,61,0
27.0891,27.180702,64,73,0
27.272305,27.368305,55,61,0
27.272305,27.368305,67,73,0
27.464306,27.645847,53,76,0
27.464306,27.645847,65,90,0
27.645847,27.791082,52,61,0
27.645847,27.791082,64,73,0
27.82739,27.919842,51,61,0
27.82739,27.919842,63,73,0
28.012291,28.108292,53,61,0
28.012291,28.108292,65,73,0
28.20429,28.390917,53,75,0
28.20429,28.390917,65,89,0
28.390917,28.540216,52,61,0
28.390917,28.540216,64,73,0
28.577541,28.672178,52,61,0
28.577541,28.672178,64,73,0
28.766815,28.867655,51,61,0
28.766815,28.867655,63,73,0
28.968496,29.161423,53,77,0
28.968496,29.161423,65,92,0
29.161423,29.315763,52,61,0
29.161423,29.315763,64,73,0
29.354347,29.450811,52,61,0
29.354347,29.450811,64,73,0
29.547274,29.652353,51,61,0
29.547274,29.652353,63,73,0
29.757431,30.532875,52,75,0
29.757431,30.532875,64,89,0
30.532875,30.726736,64,72,0
30.532875,30.726736,76,86,0
30.532875,30.726736,71,72,0
30.532875,30.726736,68,72,0
30.920597,31.049839,76,78,0
31.049839,31.17908,78,81,0
31.17908,31.30832,80,84,0
31.30832,31.499403,69,79,0
31.30832,31.499403,81,94,0
31.690485,31.783365,68,66,0
31.690485,31.783365,80,77,0
31.690485,31.783365,71,66,0
31.876244,31.974123,71,59,0
31.876244,31.974123,83,71,0
31.876244,31.974123,74,59,0
32.072002,32.263084,72,74,0
32.072002,32.263084,69,74,0
32.072002,32.263084,81,88,0
32.45417,32.54662,68,64,0
32.45417,32.54662,80,75,0
32.45417,32.54662,71,64,0
32.63907,32.737915,71,58,0
32.63907,32.737915,83,70,0
32.63907,32.737915,74,58,0
32.83676,32.938114,69,74,0
32.83676,32.938114,81,88,0
32.83676,32.938114,72,74,0
33.240635,33.338993,68,60,0
33.240635,33.338993,80,73,0
33.240635,33.338993,71,60,0
33.634075,34.413296,69,73,0
33.634075,34.413296,81,87,0
33.634075,34.413296,72,73,0
34.413296,34.60438,84,59,0
34.413296,34.60438,89,70,0
34.413296,34.60438,93,70,0
34.413296,34.60438,81,59,0
34.60438,34.79188,80,55,0
34.60438,34.79188,92,65,0
34.79188,34.97593,81,60,0
34.79188,34.97593,93,72,0
34.97593,35.175594,83,65,0
34.97593,35.175594,95,77,0
35.175594,35.974262,88,69,0
35.175594,35.974262,84,69,0
35.175594,35.974262,96,82,0
35.974262,36.165348,89,63,0
35.974262,36.165348,84,63,0
35.974262,36.165348,96,75,0
36.165348,36.348553,83,61,0
36.165348,36.348553,95,72,0
36.348553,36.540554,81,63,0
36.348553,36.540554,93,74,0
36.540554,36.74022,80,64,0
36.540554,36.74022,92,75,0
36.74022,37.339222,81,71,0
36.74022,37.339222,84,71,0
36.74022,37.339222,93,84,0
36.74022,37.339222,88,71,0
37.339222,37.530304,84,59,0
37.339222,37.530304,96,71,0
37.530304,37.71606,83,65,0
37.530304,37.71606,95,77,0
37.71606,37.86064,81,59,0
37.71606,37.86064,93,71,0
37.896786,37.984375,80,59,0
37.896786,37.984375,92,71,0
38.071968,38.164417,83,59,0
38.071968,38.164417,95,71,0
38.256866,38.442627,81,65,0
38.256866,38.442627,93,77,0
38.442627,38.58527,73,60,0
38.442627,38.58527,85,72,0
38.620934,38.707764,78,60,0
38.620934,38.707764,90,72,0
38.794594,38.887043,81,61,0
38.794594,38.887043,93,73,0
38.979492,39.1586,80,69,0
38.979492,39.1586,92,81,0
39.1586,39.301884,78,61,0
39.1586,39.301884,90,73,0
39.337704,39.42568,76,61,0
39.337704,39.42568,88,73,0
39.513657,39.60829,80,61,0
39.513657,39.60829,92,73,0
39.70293,39.88284,78,70,0
39.70293,39.88284,90,82,0
39.88284,40.026768,76,61,0
39.88284,40.026768,88,73,0
40.06275,40.15151,75,61,0
40.06275,40.15151,87,73,0
40.240265,40.334015,78,61,0
40.240265,40.334015,90,73,0
40.427765,40.60931,78,69,0
40.427765,40.60931,90,81,0
40.60931,40.750694,76,61,0
40.60931,40.750694,88,73,0
40.786037,40.878918,76,61,0
40.786037,40.878918,88,73,0
40.971798,41.06873,75,61,0
40.971798,41.06873,87,73,0
41.165657,41.348866,78,71,0
41.165657,41.348866,90,84,0
41.348866,41.498165,76,61,0
41.348866,41.498165,88,73,0
41.53549,41.62968,76,61,0
41.53549,41.62968,88,73,0
41.723873,41.82471,75,61,0
41.723873,41.82471,87,73,0
41.925552,42.700996,76,75,0
41.925552,42.700996,83,75,0
41.925552,42.700996,80,75,0
41.925552,42.700996,88,89,0
42.700996,42.89486,88,72,0
42.700996,42.89486,100,86,0
42.700996,42.89486,95,72,0
42.700996,42.89486,92,72,0
43.37951,43.47644,64,81,0
43.47644,43.665714,64,88,0
44.23354,44.4274,64,68,0
44.23354,44.4274,68,81,0
45.008984,46.440678,68,74,0
45.008984,46.440678,63,74,0
45.008984,46.440678,71,88,0
46.440678,46.534428,68,68,0
46.440678,46.534428,64,68,0
46.440678,46.534428,76,81,0
46.534428,47.190678,63,74,0
46.534428,47.190678,71,88,0
46.534428,47.190678,68,74,0
47.190678,47.284428,68,69,0
47.190678,47.284428,64,69,0
47.190678,47.284428,76,82,0
47.284428,47.940678,68,74,0
47.284428,47.940678,63,74,0
47.284428,47.940678,71,88,0
47.940678,48.034428,68,68,0
47.940678,48.034428,64,68,0
47.940678,48.034428,76,81,0
48.034428,49.61332,68,74,0
48.034428,49.61332,63,74,0
48.034428,49.61332,71,88,0
49.61332,49.76612,71,74,0
49.61332,49.76612,64,74,0
49.61332,49.76612,76,90,0
49.61332,49.76612,62,74,0
49.61332,49.76612,68,74,0
50.835728,51.19555,76,50,0
51.19555,51.36338,84,57,0
51.36338,51.53121,88,50,0
51.53121,51.70191,76,40,0
51.53121,51.70191,84,55,0
51.70191,51.795223,77,40,0
51.888535,52.056366,83,55,0
52.056366,52.224197,86,50,0
51.888535,52.224197,76,40,0
52.224197,52.395626,74,40,0
52.224197,52.395626,83,53,0
52.395626,52.48894,76,40,0
52.582253,52.750084,81,54,0
52.750084,52.917915,84,50,0
52.582253,52.917915,74,40,0
52.917915,53.092335,72,40,0
52.917915,53.092335,81,57,0
53.092335,53.185215,74,40,0
53.27809,53.446632,80,55,0
53.446632,53.615173,83,50,0
53.27809,53.615173,72,40,0
53.615173,53.788834,71,40,0
53.615173,53.788834,80,55,0
53.788834,53.881283,72,40,0
53.973732,54.142273,77,54,0
54.142273,54.310814,81,50,0
53.973732,54.310814,71,40,0
54.310814,54.485996,69,40,0
54.310814,54.485996,77,54,0
54.485996,54.58246,71,40,0
54.67892,54.846054,68,48,0
54.846054,55.013184,71,45,0
55.013184,55.186092,68,50,0
54.67892,55.186092,76,63,0
55.186092,55.36361,80,60,0
55.186092,55.36361,71,45,0
55.36361,55.53144,68,48,0
55.53144,55.699272,71,45,0
55.699272,55.875225,68,50,0
55.36361,55.875225,76,66,0
55.875225,56.055138,80,57,0
55.875225,56.055138,71,45,0
56.055138,56.22297,68,56,0
56.055138,56.22297,76,67,0
56.22297,56.306885,80,60,0
56.22297,56.306885,71,60,0
56.3908,56.56371,68,57,0
56.3908,56.56371,76,68,0
56.56371,56.652863,71,52,0
56.56371,56.652863,80,62,0
56.742016,56.83101,76,71,0
56.920395,57.006107,71,62,0
56.742016,57.09182,68,60,0
57.259655,57.345,71,64,0
57.09182,57.43035,68,63,0
57.43035,57.51357,76,67,0
57.596786,57.6825,71,72,0
57.43035,57.768215,64,63,0
57.768215,57.85658,64,67,0
57.768215,57.85658,76,79,0
57.944946,58.03331,68,68,0
57.944946,58.03331,80,80,0
58.121677,58.838093,80,79,0
58.121677,58.838093,71,79,0
58.121677,58.838093,76,79,0
58.121677,58.838093,83,93,0
58.838093,59.017197,83,82,0
58.838093,59.017197,88,99,0
58.838093,59.017197,76,82,0
58.838093,59.017197,80,82,0
59.196304,59.307724,76,75,0
59.307724,59.419144,78,78,0
59.419144,59.530563,80,80,0
59.530563,59.704983,81,90,0
59.530563,59.704983,69,76,0
59.530563,59.704983,72,76,0
59.879402,59.961933,80,74,0
59.879402,59.961933,68,63,0
59.879402,59.961933,71,63,0
60.044464,60.131294,74,57,0
60.044464,60.131294,83,68,0
60.044464,60.131294,71,57,0
60.218124,60.388096,72,71,0
60.218124,60.388096,81,84,0
60.218124,60.388096,69,71,0
60.558067,60.63959,80,72,0
60.558067,60.63959,68,61,0
60.558067,60.63959,71,61,0
60.72111,60.807568,71,56,0
60.72111,60.807568,83,67,0
60.72111,60.807568,74,56,0
60.894024,60.985626,72,71,0
60.894024,60.985626,81,84,0
60.894024,60.985626,69,71,0
61.260433,61.349586,80,73,0
61.260433,61.349586,68,61,0
61.260433,61.349586,71,61,0
61.617046,62.34653,81,83,0
61.617046,62.34653,72,70,0
61.617046,62.34653,69,70,0
62.34653,62.4294,81,63,0
62.34653,62.4294,93,75,0
62.512276,62.59515,83,67,0
62.512276,62.59515,95,79,0
62.67802,63.190193,84,72,0
62.67802,63.190193,96,86,0
63.190193,63.269455,83,62,0
63.190193,63.269455,95,74,0
63.348713,63.851063,81,73,0
63.348713,63.851063,93,87,0
63.851063,63.93128,79,63,0
63.851063,63.93128,91,75,0
64.01149,64.51711,77,74,0
64.01149,64.51711,89,88,0
64.51711,64.59732,76,68,0
64.51711,64.59732,88,81,0
64.677536,64.7611,74,68,0
64.677536,64.7611,86,81,0
64.844666,64.93188,73,68,0
64.844666,64.93188,85,81,0
65.01909,65.18763,86,90,0
65.01909,65.18763,74,76,0
65.01909,65.18763,77,76,0
65.35616,65.43703,85,74,0
65.35616,65.43703,73,63,0
65.35616,65.43703,76,63,0
65.51789,65.60472,79,57,0
65.51789,65.60472,88,68,0
65.51789,65.60472,76,57,0
65.69155,65.86009,77,71,0
65.69155,65.86009,86,84,0
65.69155,65.86009,74,71,0
66.02863,66.109825,85,72,0
66.02863,66.109825,73,61,0
66.02863,66.109825,76,61,0
66.19101,66.28137,76,56,0
66.19101,66.28137,88,67,0
66.19101,66.28137,79,56,0
66.371735,66.4601,77,71,0
66.371735,66.4601,86,84,0
66.371735,66.4601,74,71,0
66.7252,66.814354,85,73,0
66.7252,66.814354,73,61,0
66.7252,66.814354,76,61,0
67.08181,67.81801,86,87,0
67.08181,67.81801,77,73,0
67.08181,67.81801,74,73,0
67.81801,67.90157,86,63,0
67.81801,67.90157,98,75,0
67.98514,68.0687,88,67,0
67.98514,68.0687,100,79,0
68.15227,68.66378,89,69,0
68.15227,68.66378,101,82,0
68.66378,68.744316,88,62,0
68.66378,68.744316,100,74,0
68.82485,69.33274,86,70,0
68.82485,69.33274,98,83,0
69.33274,69.413605,84,63,0
69.33274,69.413605,96,75,0
69.49446,70.00655,83,71,0
69.49446,70.00655,95,84,0
70.00655,70.08841,81,65,0
70.00655,70.08841,93,77,0
70.170265,70.25454,80,65,0
70.170265,70.25454,92,77,0
70.338806,70.42526,81,65,0
70.338806,70.42526,93,77,0
70.51172,70.59459,80,67,0
70.51172,70.59459,92,79,0
70.67746,70.76034,83,71,0
70.67746,70.76034,95,84,0
70.84321,71.00494,88,74,0
70.84321,71.00494,100,88,0
71.1786,71.87324,59,73,0
71.1786,71.87324,56,73,0
71.1786,71.87324,64,86,0
71.87324,71.956116,81,70,0
71.87324,71.956116,93,82,0
72.03899,72.12186,84,74,0
72.03899,72.12186,96,88,0
72.204735,72.36581,88,77,0
72.204735,72.36581,100,92,0
72.54022,73.2379,60,73,0
72.54022,73.2379,57,73,0
72.54022,73.2379,64,86,0
73.2379,73.315315,71,62,0
73.2379,73.315315,80,73,0
73.39274,73.47015,74,55,0
73.39274,73.47015,83,65,0
73.54758,73.62844,71,62,0
73.54758,73.62844,80,73,0
73.709305,73.8009,74,56,0
73.709305,73.8009,83,67,0
73.89251,74.22817,53,84,0
74.22817,74.31209,52,74,0
74.57352,74.65094,72,62,0
74.57352,74.65094,81,73,0
74.728355,74.80578,76,55,0
74.728355,74.80578,84,65,0
74.883194,74.96214,72,62,0
74.883194,74.96214,81,73,0
75.04109,75.13064,76,56,0
75.04109,75.13064,84,67,0
75.22019,75.550316,53,84,0
75.550316,75.63285,52,74,0
75.89132,76.06954,92,73,0
75.89132,76.06954,89,73,0
75.89132,76.06954,95,87,0
75.89132,76.06954,101,87,0
76.05331,76.23259,88,73,0
76.05331,76.23259,100,86,0
76.21622,76.39664,98,84,0
76.21622,76.39664,86,71,0
76.380196,76.5617,96,83,0
76.380196,76.5617,84,70,0
76.54512,76.72779,95,81,0
76.54512,76.72779,83,68,0
76.71114,76.89492,93,80,0
76.71114,76.89492,81,68,0
76.878136,77.0631,92,79,0
76.878136,77.0631,80,67,0
77.04625,77.231476,88,77,0
77.04625,77.231476,76,65,0
77.215034,77.396416,80,68,0
77.215034,77.396416,89,80,0
77.215034,77.396416,77,68,0
77.215034,77.396416,83,68,0
77.37984,77.56272,76,65,0
77.37984,77.56272,88,77,0
77.54601,77.73043,86,75,0
77.54601,77.73043,74,63,0
77.71358,77.899284,84,73,0
77.71358,77.899284,72,62,0
77.8825,78.06842,83,72,0
77.8825,78.06842,71,61,0
78.051384,78.24047,81,70,0
78.051384,78.24047,69,59,0
78.22314,78.41518,80,68,0
78.22314,78.41518,68,57,0
78.39758,78.574486,76,67,0
78.39758,78.574486,64,56,0
78.574486,78.74591,69,72,0
78.574486,78.74591,76,67,0
78.574486,78.74591,64,67,0
78.74591,78.83163,72,66,0
78.91734,79.08877,68,73,0
78.91734,79.08877,76,67,0
78.91734,79.08877,64,67,0
79.08877,79.17713,71,72,0
79.265495,79.436195,72,61,0
79.265495,79.436195,69,61,0
79.265495,79.436195,81,72,0
79.436195,79.521545,76,56,0
79.436195,79.521545,72,56,0
79.436195,79.521545,84,66,0
79.606895,79.77759,71,62,0
79.606895,79.77759,68,62,0
79.606895,79.77759,80,73,0
79.77759,79.86635,74,61,0
79.77759,79.86635,71,61,0
79.77759,79.86635,83,72,0
79.9551,80.13421,72,71,0
79.9551,80.13421,69,71,0
79.9551,80.13421,81,85,0
80.671524,80.850624,86,76,0
80.671524,80.850624,89,91,0
80.671524,80.850624,77,76,0
80.671524,80.850624,81,76,0
81.38794,82.104355,88,82,0
81.38794,82.104355,93,98,0
81.38794,82.104355,81,82,0
81.38794,82.104355,84,82,0
82.75336,82.85029,64,80,0
82.85029,83.039566,64,88,0
83.60739,83.80125,64,68,0
83.60739,83.80125,68,80,0
84.38283,85.81452,68,74,0
84.38283,85.81452,63,74,0
84.38283,85.81452,71,88,0
85.81452,85.90827,68,68,0
85.81452,85.90827,64,68,0
85.81452,85.90827,76,80,0
85.90827,86.56452,63,74,0
85.90827,86.56452,71,88,0
85.90827,86.56452,68,74,0
86.56452,86.65827,68,69,0
86.56452,86.65827,64,69,0
86.56452,86.65827,76,82,0
86.65827,87.31452,68,74,0
86.65827,87.31452,63,74,0
86.65827,87.31452,71,88,0
87.31452,87.40827,68,68,0
87.31452,87.40827,64,68,0
87.31452,87.40827,76,81,0
87.40827,88.98717,68,74,0
87.40827,88.98717,63,74,0
87.40827,88.98717,71,88,0
88.98717,89.13997,71,74,0
88.98717,89.13997,64,74,0
88.98717,89.13997,76,89,0
88.98717,89.13997,62,74,0
88.98717,89.13997,68,74,0
90.20958,90.5694,76,50,0
90.5694,90.73723,84,57,0
90.73723,90.90506,88,50,0
90.90506,91.07576,76,40,0
90.90506,91.07576,84,55,0
91.07576,91.16907,77,40,0
91.26238,91.430214,83,55,0
91.430214,91.598045,86,50,0
91.26238,91.598045,76,40,0
91.598045,91.76948,74,40,0
91.598045,91.76948,83,53,0
91.76948,91.862785,76,40,0
91.9561,92.12393,81,54,0
92.12393,92.29176,84,50,0
91.9561,92.29176,74,40,0
92.29176,92.46619,72,40,0
92.29176,92.46619,81,57,0
92.46619,92.55906,74,40,0
92.65194,92.82048,80,55,0
92.82048,92.98902,83,50,0
92.65194,92.98902,72,40,0
92.98902,93.16268,71,40,0
92.98902,93.16268,80,55,0
93.16268,93.255135,72,40,0
93.34758,93.51612,77,54,0
93.51612,93.68466,81,50,0
93.34758,93.68466,71,40,0
93.68466,93.85984,69,40,0
93.68466,93.85984,77,54,0
93.85984,93.95631,71,40,0
94.05277,94.2199,68,48,0
94.2199,94.38703,71,45,0
94.38703,94.559944,68,50,0
94.05277,94.559944,76,63,0
94.559944,94.73746,80,60,0
94.559944,94.73746,71,45,0
94.73746,94.90529,68,48,0
94.90529,95.07312,71,45,0
95.07312,95.24908,68,50,0
94.73746,95.24908,76,66,0
95.24908,95.428986,80,57,0
95.24908,95.428986,71,45,0
95.428986,95.59682,68,56,0
95.428986,95.59682,76,67,0
95.59682,95.68073,80,60,0
95.59682,95.68073,71,60,0
95.76465,95.93756,68,57,0
95.76465,95.93756,76,68,0
95.93756,96.02671,71,52,0
95.93756,96.02671,80,62,0
96.11587,96.20486,76,71,0
96.29424,96.37996,71,62,0
96.11587,96.46567,68,60,0
96.6335,96.71885,71,64,0
96.46567,96.8042,68,63,0
96.8042,96.88742,76,67,0
96.970634,97.05635,71,72,0
96.8042,97.14207,64,63,0
97.14207,97.23043,64,67,0
97.14207,97.23043,76,79,0
97.318794,97.40716,68,68,0
97.318794,97.40716,80,80,0
97.49552,98.211945,80,79,0
97.49552,98.211945,71,79,0
97.49552,98.211945,76,79,0
97.49552,98.211945,83,93,0
98.211945,98.391045,83,82,0
98.211945,98.391045,88,99,0
98.211945,98.391045,76,82,0
98.211945,98.391045,80,82,0
98.57015,98.68157,76,75,0
98.68157,98.79299,78,78,0
98.79299,98.90441,80,80,0
98.90441,99.078835,81,90,0
98.90441,99.078835,69,76,0
98.908775,99.08319,72,76,0
99.25325,99.335785,80,74,0
99.25325,99.335785,68,63,0
99.25325,99.335785,71,63,0
99.41831,99.50514,74,57,0
99.41831,99.50514,83,68,0
99.41831,99.50514,71,57,0
99.59197,99.76195,72,71,0
99.59197,99.76195,81,84,0
99.59197,99.76195,69,71,0
99.931915,100.013435,80,72,0
99.931915,100.013435,68,61,0
99.931915,100.013435,71,61,0
100.09496,100.18141,71,56,0
100.09496,100.18141,83,67,0
100.09496,100.18141,74,56,0
100.26787,100.359474,72,71,0
100.26787,100.359474,81,84,0
100.26787,100.359474,69,71,0
100.634285,100.723434,80,73,0
100.634285,100.723434,68,61,0
100.634285,100.723434,71,61,0
100.9909,101.720375,81,83,0
100.9909,101.720375,72,70,0
100.9909,101.720375,69,70,0
101.720375,101.80325,81,63,0
101.720375,101.80325,93,75,0
101.88612,101.968994,83,67,0
101.88612,101.968994,95,79,0
102.05187,102.56404,84,72,0
102.05187,102.56404,96,86,0
102.56404,102.6433,83,62,0
102.56404,102.6433,95,74,0
102.722565,103.224915,81,73,0
102.722565,103.224915,93,87,0
103.224915,103.30512,79,63,0
103.224915,103.30512,91,75,0
103.38534,103.89096,77,74,0
103.38534,103.89096,89,88,0
103.89096,103.97117,76,68,0
103.89096,103.97117,88,81,0
104.051384,104.13495,74,68,0
104.051384,104.13495,86,81,0
104.21851,104.305725,73,68,0
104.21851,104.305725,85,81,0
104.39294,104.56148,86,90,0
104.39294,104.56148,74,76,0
104.39294,104.56148,77,76,0
104.73001,104.810875,85,74,0
104.73001,104.810875,73,63,0
104.73001,104.810875,76,63,0
104.89174,104.97857,79,57,0
104.89174,104.97857,88,68,0
104.89174,104.97857,76,57,0
105.0654,105.23394,77,71,0
105.0654,105.23394,86,84,0
105.0654,105.23394,74,71,0
105.40248,105.48367,85,72,0
105.40248,105.48367,73,61,0
105.40248,105.48367,76,61,0
105.564865,105.65522,76,56,0
105.564865,105.65522,88,67,0
105.564865,105.65522,79,56,0
105.74558,105.83395,77,71,0
105.74558,105.83395,86,84,0
105.74558,105.83395,74,71,0
106.099045,106.1882,85,67,0
106.099045,106.1882,73,56,0
106.099045,106.1882,76,56,0
106.45566,107.19186,86,87,0
106.45566,107.19186,77,73,0
106.45566,107.19186,74,73,0
107.19186,107.27542,86,63,0
107.19186,107.27542,98,75,0
107.358986,107.44255,88,67,0
107.358986,107.44255,100,79,0
107.526115,108.03763,89,69,0
107.526115,108.03763,101,82,0
108.03763,108.118164,88,62,0
108.03763,108.118164,100,74,0
108.1987,108.70659,86,70,0
108.1987,108.70659,98,83,0
108.70659,108.78745,84,63,0
108.70659,108.78745,96,75,0
108.86831,109.3804,83,71,0
108.86831,109.3804,95,84,0
109.3804,109.46226,81,65,0
109.3804,109.46226,93,77,0
109.54411,109.62839,80,65,0
109.54411,109.62839,92,77,0
109.712654,109.79911,81,65,0
109.712654,109.79911,93,77,0
109.88557,109.96844,80,67,0
109.88557,109.96844,92,79,0
110.05131,110.134186,83,71,0
110.05131,110.134186,95,84,0
110.21706,110.378784,88,74,0
110.21706,110.378784,100,88,0
110.552444,111.247086,59,73,0
110.552444,111.247086,56,73,0
110.552444,111.247086,64,86,0
111.247086,111.32996,81,67,0
111.247086,111.32996,93,79,0
111.412834,111.495705,84,71,0
111.412834,111.495705,96,84,0
111.57858,111.739655,88,74,0
111.57858,111.739655,100,88,0
111.91407,112.61175,60,73,0
111.91407,112.61175,57,73,0
111.91407,112.61175,64,86,0
112.61175,112.68916,71,62,0
112.61175,112.68916,80,73,0
112.76659,112.844,74,55,0
112.76659,112.844,83,65,0
112.921425,113.00229,71,62,0
112.921425,113.00229,80,73,0
113.08315,113.17475,74,56,0
113.08315,113.17475,83,67,0
113.26636,113.60202,53,84,0
113.60202,113.685936,52,74,0
113.947365,114.02479,72,62,0
113.947365,114.02479,81,73,0
114.1022,114.17963,76,55,0
114.1022,114.17963,84,65,0
114.25704,114.33599,72,62,0
114.25704,114.33599,81,73,0
114.41494,114.50449,76,56,0
114.41494,114.50449,84,67,0
114.59404,114.924164,53,84,0
114.924164,115.0067,52,74,0
115.26517,115.44339,92,73,0
115.26517,115.44339,89,73,0
115.26517,115.44339,95,87,0
115.26517,115.44339,101,87,0
115.427155,115.60644,88,73,0
115.427155,115.60644,100,86,0
115.590065,115.770485,98,84,0
115.590065,115.770485,86,71,0
115.75404,115.93555,96,83,0
115.75404,115.93555,84,70,0
115.91897,116.10164,95,81,0
115.91897,116.10164,83,68,0
116.08499,116.26877,93,80,0
116.08499,116.26877,81,68,0
116.25198,116.43695,92,79,0
116.25198,116.43695,80,67,0
116.4201,116.60532,88,77,0
116.4201,116.60532,76,65,0
116.58888,116.77026,80,68,0
116.58888,116.77026,89,80,0
116.58888,116.77026,77,68,0
116.58888,116.77026,83,68,0
116.753685,116.93657,76,65,0
116.753685,116.93657,88,77,0
116.91986,117.10428,86,75,0
116.91986,117.10428,74,63,0
117.087425,117.27313,84,73,0
117.087425,117.27313,72,62,0
117.25635,117.44227,83,72,0
117.25635,117.44227,71,61,0
117.42523,117.61432,81,70,0
117.42523,117.61432,69,59,0
117.596985,117.789024,80,68,0
117.596985,117.789024,68,57,0
117.77143,117.94833,76,67,0
117.77143,117.94833,64,56,0
117.94833,118.11976,69,72,0
117.94833,118.11976,76,67,0
117.94833,118.11976,64,67,0
118.11976,118.205475,72,66,0
118.29119,118.462616,68,73,0
118.29119,118.462616,76,67,0
118.29119,118.462616,64,67,0
118.462616,118.55098,71,72,0
118.63935,118.81004,72,61,0
118.63935,118.81004,69,61,0
118.63935,118.81004,81,72,0
118.81004,118.89539,76,56,0
118.81004,118.89539,72,56,0
118.81004,118.89539,84,66,0
118.98074,119.151436,71,62,0
118.98074,119.151436,68,62,0
118.98074,119.151436,80,73,0
119.151436,119.2402,74,61,0
119.151436,119.2402,71,61,0
119.151436,119.2402,83,72,0
119.32896,119.50806,72,71,0
119.32896,119.50806,69,71,0
119.32896,119.50806,81,85,0
120.04537,120.22447,86,76,0
120.04537,120.22447,89,91,0
120.04537,120.22447,77,76,0
120.04537,120.22447,81,76,0
120.76179,121.47821,88,82,0
120.76179,121.47821,93,98,0
120.76179,121.47821,81,82,0
120.76179,121.47821,84,82,0
121.83642,122.0116,73,42,0
122.0116,122.19565,76,41,0
122.19565,122.91311,69,47,0
123.271324,123.44805,73,50,0
123.44805,123.63295,76,49,0
123.63295,124.34884,69,56,0
124.70705,124.87558,81,50,0
124.87558,124.96279,80,45,0
124.70705,125.05,73,42,0
125.05,125.218544,80,50,0
125.218544,125.30652,78,45,0
125.05,125.39449,73,42,0
125.39449,125.56519,78,50,0
125.56519,125.65434,77,47,0
125.39449,125.7435,73,42,0
125.7435,125.915665,80,50,0
125.915665,126.00403,78,46,0
125.7435,126.09239,73,42,0
126.09239,126.265305,78,50,0
126.265305,126.35328,77,46,0
126.09239,126.44126,73,42,0
126.44126,126.61492,73,42,0
126.44126,126.61492,78,50,0
127.507645,127.676895,90,50,0
127.676895,127.76411,88,45,0
127.507645,127.85131,81,42,0
127.85131,128.02057,88,50,0
128.02057,128.10854,86,45,0
127.85131,128.19652,81,42,0
128.19652,128.36868,86,50,0
128.36868,128.45784,85,47,0
128.19652,128.547,81,42,0
128.547,128.71916,88,50,0
128.71916,128.80753,86,46,0
128.547,128.89589,81,42,0
128.89589,129.0688,86,50,0
129.0688,129.15677,85,46,0
128.89589,129.24475,81,42,0
129.24475,129.41841,81,42,0
129.24475,129.41841,86,50,0
130.31114,130.48631,74,42,0
130.48631,130.67036,78,41,0
130.67036,131.38783,71,47,0
131.74605,131.92278,74,50,0
131.92278,132.10767,78,49,0
132.10767,132.82356,71,56,0
133.18176,133.27132,86,45,0
133.18176,133.27132,95,54,0
133.36087,133.44807,90,42,0
133.36087,133.44807,98,50,0
133.5353,133.62064,88,46,0
133.5353,133.62064,97,55,0
133.70598,133.79282,86,44,0
133.70598,133.79282,95,52,0
133.87965,133.96648,85,47,0
133.87965,133.96648,93,56,0
134.05331,134.14491,88,42,0
134.05331,134.14491,97,50,0
134.23651,134.32297,86,49,0
134.23651,134.32297,95,58,0
134.40942,134.4974,85,42,0
134.40942,134.4974,93,50,0
134.58537,134.67336,83,45,0
134.58537,134.67336,92,54,0
134.76134,134.85252,86,42,0
134.76134,134.85252,95,50,0
134.9437,135.0313,85,51,0
134.9437,135.0313,93,60,0
135.11888,135.20648,88,42,0
135.11888,135.20648,97,50,0
135.29407,135.38165,83,46,0
135.29407,135.38165,92,55,0
135.46925,135.55684,86,42,0
135.46925,135.55684,95,50,0
135.64444,135.73203,85,47,0
135.64444,135.73203,93,56,0
136.71065,136.79636,73,49,0
136.79636,136.88206,76,42,0
136.71065,136.88206,64,35,0
136.88206,136.97452,69,49,0
137.06697,137.15652,85,49,0
137.15652,137.24608,88,43,0
137.06697,137.24608,76,35,0
137.24608,137.33563,81,49,0
138.14102,138.22636,85,49,0
138.22636,138.31172,88,42,0
138.14102,138.31172,76,35,0
138.31172,138.40417,81,49,0
138.49661,138.58617,97,49,0
138.58617,138.67572,100,43,0
138.49661,138.67572,88,35,0
138.67572,138.76527,93,49,0
138.85483,138.97264,93,54,0
138.97264,139.08969,92,47,0
139.08969,139.14784,80,47,0
138.85483,139.20598,85,34,0
139.20598,139.32027,92,52,0
139.32027,139.43605,90,46,0
139.43605,139.4947,78,46,0
139.20598,139.55336,85,32,0
139.55336,139.66814,90,50,0
139.66814,139.78496,89,46,0
139.78496,139.84439,77,46,0
139.55336,139.90382,85,26,0
139.90382,140.01862,92,50,0
140.01862,140.1349,90,46,0
140.1349,140.19382,78,46,0
139.90382,140.25273,85,26,0
140.25273,140.368,90,50,0
140.368,140.48428,89,48,0
140.48428,140.54294,77,48,0
140.25273,140.6016,85,26,0
140.6016,140.68842,92,56,0
140.68842,140.77525,90,55,0
140.6016,140.77525,85,44,0
140.77525,140.86208,85,53,0
140.86208,140.94891,81,52,0
140.94891,141.0369,80,51,0
141.0369,141.12486,78,49,0
141.12486,141.21732,73,48,0
141.21732,141.30977,69,46,0
141.30977,141.39932,66,45,0
141.66797,141.7858,90,54,0
141.7858,141.90285,88,47,0
141.90285,141.96098,81,47,0
141.66797,142.01912,93,43,0
142.01912,142.1334,88,52,0
142.1334,142.2492,86,46,0
142.2492,142.30786,81,46,0
142.01912,142.3665,93,41,0
142.3665,142.48128,86,50,0
142.48128,142.59811,85,46,0
142.59811,142.65755,81,46,0
142.3665,142.71698,93,33,0
142.71698,142.83176,88,50,0
142.83176,142.94806,86,46,0
142.94806,143.00697,81,46,0
142.71698,143.06587,93,33,0
143.06587,143.18115,86,50,0
143.18115,143.29744,85,48,0
143.29744,143.3561,81,48,0
143.06587,143.41473,93,33,0
143.41473,143.53052,88,56,0
143.41473,143.5884,93,50,0
143.53052,143.64629,86,55,0
143.64629,143.76207,81,53,0
143.76207,143.85004,78,51,0
143.85004,143.93802,74,49,0
143.93802,144.03047,69,48,0
144.03047,144.12291,66,46,0
144.12291,144.21246,62,45,0
145.19698,145.28268,74,49,0
145.28268,145.3684,78,42,0
145.19698,145.3684,66,36,0
145.3684,145.46085,71,49,0
145.5533,145.64285,86,49,0
145.64285,145.7324,90,43,0
145.5533,145.7324,78,35,0
145.7324,145.82196,83,49,0
146.62735,146.71344,86,49,0
146.71344,146.79951,90,42,0
146.62735,146.79951,78,34,0
146.79951,146.89197,83,49,0
146.98442,147.07397,98,49,0
147.07397,147.16351,102,43,0
146.98442,147.16351,90,36,0
147.16351,147.25307,95,49,0
147.34262,147.43217,86,45,0
147.34262,147.43217,95,54,0
147.34262,147.43217,83,45,0
147.52173,147.60893,90,42,0
147.52173,147.60893,98,50,0
147.52173,147.60893,86,42,0
147.69615,147.78336,88,46,0
147.69615,147.78336,97,55,0
147.69615,147.78336,85,46,0
147.87056,147.95778,86,44,0
147.87056,147.95778,95,52,0
147.87056,147.95778,83,44,0
148.04498,148.13219,85,47,0
148.04498,148.13219,93,56,0
148.04498,148.13219,81,47,0
148.2194,148.311,88,42,0
148.2194,148.311,97,50,0
148.2194,148.311,85,42,0
148.4026,148.49059,86,49,0
148.4026,148.49059,95,58,0
148.4026,148.49059,83,49,0
148.57857,148.66653,85,42,0
148.57857,148.66653,93,50,0
148.57857,148.66653,81,42,0
148.75452,148.8425,83,45,0
148.75452,148.8425,92,54,0
148.75452,148.8425,80,45,0
148.93047,149.02165,86,42,0
148.93047,149.02165,95,50,0
148.93047,149.02165,83,42,0
149.11284,149.20042,85,51,0
149.11284,149.20042,93,60,0
149.11284,149.20042,81,51,0
149.28802,149.37561,88,42,0
149.28802,149.37561,97,50,0
149.28802,149.37561,85,42,0
149.46321,149.5508,83,46,0
149.46321,149.5508,92,55,0
149.46321,149.5508,80,46,0
149.63838,149.72598,86,42,0
149.63838,149.72598,95,50,0
149.63838,149.72598,83,42,0
149.81357,149.9121,85,47,0
149.81357,149.9121,93,56,0
149.81357,149.9121,81,47,0
150.20766,150.34198,57,85,0
150.20766,150.34198,69,102,0
150.56587,150.7002,56,90,0
150.56587,150.7002,68,108,0
150.92407,151.05841,53,85,0
150.92407,151.05841,65,102,0
151.28229,151.41661,52,90,0
151.28229,151.41661,64,108,0
151.64049,151.77982,50,85,0
151.64049,151.77982,62,102,0
152.01201,152.55174,49,96,0
152.01201,152.55174,61,113,0
152.55174,152.73164,50,85,0
152.55174,152.73164,62,101,0
152.73164,152.91655,52,97,0
152.73164,152.91655,64,115,0
153.28136,153.37132,57,88,0
153.28136,153.37132,69,105,0
153.46127,154.001,52,97,0
153.46127,154.001,64,115,0
154.001,154.09096,57,83,0
154.001,154.09096,69,100,0
154.18091,154.72478,52,94,0
154.18091,154.72478,64,111,0
154.72478,154.8168,57,69,0
154.72478,154.8168,69,81,0
154.90883,155.00085,52,73,0
154.90883,155.00085,64,87,0
155.09288,155.18164,49,65,0
155.09288,155.18164,61,76,0
155.27039,155.35915,57,65,0
155.27039,155.35915,45,65,0
155.4479,155.53667,49,65,0
155.4479,155.53667,61,76,0
155.62543,155.71419,52,60,0
155.62543,155.71419,64,72,0
155.80293,155.8917,49,65,0
155.80293,155.8917,61,76,0
155.98045,156.07164,52,69,0
155.98045,156.07164,64,81,0
156.16283,156.25746,57,72,0
156.16283,156.25746,69,86,0
156.3521,157.10919,52,76,0
156.3521,157.10919,64,90,0
157.10919,157.20613,57,71,0
157.10919,157.20613,69,84,0
157.49692,157.688,72,64,0
157.49692,157.688,69,59,0
157.49692,157.688,81,75,0
157.87909,158.06659,79,70,0
158.06659,158.2595,76,65,0
157.87909,158.2595,72,59,0
157.87909,158.2595,67,59,0
158.2595,158.44789,77,70,0
158.44789,158.6399,74,64,0
158.2595,158.6399,69,59,0
158.2595,158.6399,65,59,0
158.6399,158.82916,76,70,0
158.82916,159.02303,72,62,0
158.6399,159.02303,67,59,0
158.6399,159.02303,64,59,0
159.02303,159.21231,74,66,0
159.21231,159.40527,71,60,0
159.02303,159.40527,65,56,0
159.02303,159.40527,62,56,0
159.40527,159.50208,72,57,0
159.50208,159.59836,74,53,0
159.40527,159.59836,64,40,0
159.59836,159.69409,72,57,0
159.69409,159.78925,71,53,0
159.78925,159.88377,72,54,0
159.88377,159.97778,76,55,0
159.97778,160.07127,79,56,0
160.07127,160.1333,83,58,0
160.1333,160.16423,86,53,0
160.16423,160.25668,84,61,0
160.25668,160.34912,83,57,0
160.34912,160.44157,84,57,0
160.44157,160.53403,86,61,0
160.53403,160.62648,88,63,0
160.53403,160.71893,77,40,0
160.81137,160.9055,86,60,0
160.9055,160.99785,84,57,0
160.99785,161.08961,86,53,0
160.9055,161.08961,76,40,0
161.08961,161.18088,84,57,0
161.18088,161.27155,83,53,0
161.27155,161.36166,84,54,0
161.36166,161.4513,88,55,0
161.4513,161.54034,91,56,0
161.54034,161.59941,95,58,0
161.59941,161.62888,98,53,0
161.62888,161.71689,96,61,0
161.71689,161.80486,95,57,0
161.80486,161.89284,96,57,0
161.89284,161.98085,98,61,0
161.98085,162.06921,100,63,0
161.98085,162.15758,89,40,0
162.24594,162.3343,98,60,0
162.3343,162.42114,96,61,0
162.42114,162.50797,88,58,0
162.50797,162.5948,96,58,0
162.5948,162.68163,100,58,0
162.68163,162.76735,103,64,0
162.76735,162.85306,91,58,0
162.85306,162.93877,95,58,0
162.93877,163.02449,91,58,0
163.02449,163.1102,96,65,0
163.1102,163.1959,88,59,0
163.1959,163.28163,96,59,0
163.28163,163.36734,100,59,0
163.36734,163.45306,103,65,0
163.45306,163.53877,91,60,0
163.53877,163.62636,95,60,0
163.62636,163.71396,91,60,0
163.71396,163.80078,96,61,0
163.80078,163.88762,88,58,0
163.88762,163.97444,96,58,0
163.97444,164.06128,100,58,0
164.06128,164.14699,103,64,0
164.14699,164.23271,91,58,0
164.23271,164.31842,95,58,0
164.31842,164.40413,91,58,0
164.40413,164.48985,96,65,0
164.48985,164.57556,88,59,0
164.57556,164.66127,96,59,0
164.66127,164.747,100,59,0
164.747,164.8327,103,65,0
164.8327,164.91843,91,60,0
164.91843,165.00601,95,60,0
165.00601,165.0936,91,60,0
165.0936,165.1812,96,64,0
165.44397,165.5314,72,46,0
165.5314,165.61845,73,46,0
165.61845,165.70512,74,47,0
165.70512,165.79143,75,48,0
165.79143,165.87741,76,49,0
165.87741,165.96304,77,49,0
165.96304,166.0483,78,50,0
166.0483,166.1332,79,51,0
166.1332,166.21779,80,52,0
166.21779,166.30203,81,52,0
166.30203,166.38591,82,53,0
166.38591,166.46945,83,54,0
166.46945,166.55267,84,55,0
166.55267,166.6359,85,55,0
166.6359,166.7191,86,56,0
166.7191,166.80232,87,57,0
166.80232,166.88554,88,57,0
166.88554,166.96877,89,58,0
166.96877,167.05197,90,59,0
167.05197,167.13522,91,60,0
167.13522,167.20207,92,60,0
167.20207,167.26906,93,61,0
167.26906,167.33618,94,62,0
167.33618,167.40976,95,62,0
167.40976,167.4995,96,66,0
167.4995,167.58412,97,57,0
167.58412,167.66908,100,40,0
167.66908,167.75407,97,45,0
167.75407,167.83905,88,39,0
167.83905,167.92227,81,41,0
167.92227,168.0055,85,38,0
168.0055,168.08871,81,41,0
168.08871,168.17192,85,39,0
168.17192,168.25514,81,41,0
168.25514,168.33836,85,39,0
168.33836,168.42159,81,41,0
168.42159,168.50479,85,38,0
168.50479,168.58978,81,36,0
168.58978,168.67477,85,38,0
168.67477,168.75975,88,39,0
168.75975,168.84474,93,43,0
168.84474,168.92973,97,45,0
168.92973,169.01471,100,51,0
169.01471,169.0997,97,49,0
169.0997,169.18468,88,41,0
169.18468,169.2679,81,41,0
169.2679,169.35112,85,38,0
169.35112,169.43434,81,41,0
169.43434,169.51755,85,39,0
169.51755,169.60077,81,41,0
169.60077,169.68399,85,39,0
169.68399,169.76721,81,41,0
169.76721,169.85042,85,38,0
169.85042,169.93541,81,36,0
169.93541,170.0204,85,38,0
170.0204,170.10538,88,40,0
170.10538,170.20184,93,44,0
170.20184,170.28438,97,48,0
170.28438,170.36691,93,52,0
170.36691,170.45154,92,49,0
170.45154,170.53616,85,41,0
170.53616,170.61903,97,46,0
170.61903,170.7019,92,40,0
170.7019,170.78618,90,40,0
170.78618,170.87045,85,40,0
170.87045,170.95297,97,45,0
170.95297,171.0355,90,39,0
171.0355,171.11978,89,39,0
171.11978,171.20404,85,39,0
171.20404,171.28658,97,45,0
171.28658,171.36911,92,39,0
171.36911,171.45374,90,39,0
171.45374,171.53836,85,39,0
171.53836,171.6209,97,42,0
171.6209,171.70343,90,38,0
171.70343,171.78806,89,38,0
171.78806,171.87268,85,38,0
171.87268,171.9542,97,52,0
171.9542,172.036,92,49,0
172.036,172.11807,90,48,0
172.11807,172.20044,85,46,0
172.20044,172.28308,81,44,0
172.28308,172.36601,78,44,0
172.36601,172.44923,73,42,0
172.44923,172.53279,69,40,0
172.53279,172.62117,66,37,0
172.88626,172.9688,102,43,0
172.9688,173.05132,93,45,0
173.05132,173.13594,88,44,0
173.13594,173.22057,97,41,0
173.22057,173.30345,100,46,0
173.30345,173.38632,93,40,0
173.38632,173.4706,86,40,0
173.4706,173.55486,98,40,0
173.55486,173.63739,93,45,0
173.63739,173.71992,85,39,0
173.71992,173.80418,93,39,0
173.80418,173.88846,97,39,0
173.88846,173.971,100,45,0
173.971,174.05353,93,39,0
174.05353,174.13815,86,39,0
174.13815,174.22278,98,39,0
174.22278,174.3053,93,42,0
174.3053,174.38783,85,38,0
174.38783,174.47246,93,38,0
174.47246,174.55708,97,38,0
174.55708,174.63861,100,52,0
174.63861,174.72041,98,50,0
174.72041,174.80249,93,48,0
174.80249,174.88486,86,45,0
174.88486,174.9675,81,44,0
174.9675,175.05043,78,44,0
175.05043,175.13365,74,42,0
175.13365,175.21721,69,40,0
175.21721,175.30557,62,37,0
175.57068,175.6553,98,51,0
175.6553,175.74025,102,45,0
175.74025,175.82524,98,51,0
175.82524,175.91022,90,41,0
175.91022,175.99344,83,49,0
175.99344,176.07666,86,43,0
176.07666,176.15988,83,41,0
176.15988,176.2431,86,39,0
176.2431,176.32631,83,41,0
176.32631,176.40953,86,39,0
176.40953,176.49275,83,41,0
176.49275,176.57597,86,38,0
176.57597,176.66095,83,36,0
176.66095,176.74594,86,38,0
176.74594,176.83092,90,41,0
176.83092,176.91591,95,44,0
176.91591,177.0009,98,47,0
177.0009,177.08588,102,50,0
177.08588,177.17087,98,49,0
177.17087,177.25586,90,45,0
177.25586,177.33907,83,41,0
177.33907,177.42229,86,38,0
177.42229,177.50551,83,41,0
177.50551,177.58873,86,39,0
177.58873,177.67194,83,41,0
177.67194,177.75516,86,39,0
177.75516,177.83838,83,41,0
177.83838,177.9216,86,38,0
177.9216,178.00658,83,36,0
178.00658,178.09157,86,38,0
178.09157,178.17656,90,41,0
178.17656,178.27301,95,44,0
178.27301,178.3591,98,47,0
178.3591,178.44518,90,50,0
178.44518,178.5298,95,48,0
178.5298,178.61444,98,45,0
178.61444,178.69731,97,46,0
178.69731,178.78018,88,40,0
178.78018,178.86446,95,40,0
178.86446,178.94872,100,40,0
178.94872,179.03125,93,45,0
179.03125,179.11378,88,39,0
179.11378,179.19804,97,39,0
179.19804,179.28232,100,39,0
179.28232,179.36485,95,45,0
179.36485,179.44739,88,39,0
179.44739,179.53459,93,39,0
179.53459,179.6218,100,39,0
179.6218,179.70715,92,42,0
179.70715,179.7925,88,38,0
179.7925,179.88048,95,38,0
179.88048,179.96844,100,38,0
179.96844,180.05963,93,44,0
180.05963,180.15082,88,42,0
180.15082,180.242,97,42,0
180.242,180.33337,100,42,0
180.33337,180.42723,92,44,0
180.42723,180.52258,88,44,0
180.52258,180.61952,95,42,0
180.61952,180.71808,100,40,0
180.71808,180.8228,93,37,0
181.13693,181.27126,57,85,0
181.13693,181.27126,69,102,0
181.49515,181.62947,56,90,0
181.49515,181.62947,68,108,0
181.85335,181.98769,53,85,0
181.85335,181.98769,65,102,0
182.21156,182.34589,52,90,0
182.21156,182.34589,64,108,0
182.56976,182.70909,50,85,0
182.56976,182.70909,62,102,0
182.94128,183.48102,49,96,0
182.94128,183.48102,61,113,0
183.48102,183.66093,50,85,0
183.48102,183.66093,62,101,0
183.66093,183.84583,52,97,0
183.66093,183.84583,64,115,0
184.21063,184.3006,57,88,0
184.21063,184.3006,69,105,0
184.39055,184.93028,52,97,0
184.39055,184.93028,64,115,0
184.93028,185.02023,57,83,0
184.93028,185.02023,69,100,0
185.11018,185.65405,52,94,0
185.11018,185.65405,64,111,0
185.65405,185.74608,57,69,0
185.65405,185.74608,69,81,0
185.8381,185.93013,52,73,0
185.8381,185.93013,64,87,0
186.02216,186.11092,49,65,0
186.02216,186.11092,61,76,0
186.19968,186.28842,57,65,0
186.19968,186.28842,45,65,0
186.37718,186.46594,49,65,0
186.37718,186.46594,61,76,0
186.5547,186.64346,52,60,0
186.5547,186.64346,64,72,0
186.73221,186.82097,49,65,0
186.73221,186.82097,61,76,0
186.90973,187.00092,52,69,0
186.90973,187.00092,64,81,0
187.0921,187.18674,57,72,0
187.0921,187.18674,69,86,0
187.28137,188.03847,52,76,0
187.28137,188.03847,64,90,0
188.03847,188.1354,57,71,0
188.03847,188.1354,69,84,0
188.4262,188.61728,72,64,0
188.4262,188.61728,69,59,0
188.4262,188.61728,81,75,0
188.80836,188.99586,79,70,0
188.99586,189.18878,76,65,0
188.80836,189.18878,72,59,0
188.80836,189.18878,67,59,0
189.18878,189.37717,77,70,0
189.37717,189.56917,74,64,0
189.18878,189.56917,69,59,0
189.18878,189.56917,65,59,0
189.56917,189.75844,76,70,0
189.75844,189.9523,72,62,0
189.56917,189.9523,67,59,0
189.56917,189.9523,64,59,0
189.9523,190.14159,74,66,0
190.14159,190.33455,71,60,0
189.9523,190.33455,65,56,0
189.9523,190.33455,62,56,0
190.33455,190.43135,72,57,0
190.43135,190.52763,74,53,0
190.33455,190.52763,64,40,0
190.52763,190.62337,72,57,0
190.62337,190.71852,71,53,0
190.71852,190.81305,72,54,0
190.81305,190.90706,76,55,0
190.90706,191.00055,79,56,0
191.00055,191.06258,83,58,0
191.06258,191.0935,86,53,0
191.0935,191.18596,84,61,0
191.18596,191.2784,83,57,0
191.2784,191.37085,84,57,0
191.37085,191.4633,86,61,0
191.4633,191.55576,88,63,0
191.4633,191.64821,77,40,0
191.74066,191.83478,86,60,0
191.83478,191.92712,84,57,0
191.92712,192.0189,86,53,0
191.83478,192.0189,76,40,0
192.0189,192.11015,84,57,0
192.11015,192.20082,83,53,0
192.20082,192.29095,84,54,0
192.29095,192.38057,88,55,0
192.38057,192.46962,91,56,0
192.46962,192.5287,95,58,0
192.5287,192.55815,98,53,0
192.55815,192.64616,96,61,0
192.64616,192.73413,95,57,0
192.73413,192.82211,96,57,0
192.82211,192.91013,98,61,0
192.91013,192.99849,100,63,0
192.91013,193.08685,89,40,0
193.17522,193.26358,98,60,0
193.26358,193.35042,96,61,0
193.35042,193.43724,88,58,0
193.43724,193.52408,96,58,0
193.52408,193.6109,100,58,0
193.6109,193.69662,103,64,0
193.69662,193.78233,91,58,0
193.78233,193.86804,95,58,0
193.86804,193.95377,91,58,0
193.95377,194.03947,96,65,0
194.03947,194.12518,88,59,0
194.12518,194.2109,96,59,0
194.2109,194.29662,100,59,0
194.29662,194.38234,103,65,0
194.38234,194.46805,91,60,0
194.46805,194.55563,95,60,0
194.55563,194.64323,91,60,0
194.64323,194.73006,96,61,0
194.73006,194.8169,88,58,0
194.8169,194.90372,96,58,0
194.90372,194.99055,100,58,0
194.99055,195.07626,103,64,0
195.07626,195.16199,91,58,0
195.16199,195.2477,95,58,0
195.2477,195.3334,91,58,0
195.3334,195.41913,96,65,0
195.41913,195.50484,88,59,0
195.50484,195.59055,96,59,0
195.59055,195.67627,100,59,0
195.67627,195.76198,103,65,0
195.76198,195.8477,91,60,0
195.8477,195.93529,95,60,0
195.93529,196.02287,91,60,0
196.02287,196.11047,96,64,0
196.37325,196.46068,72,46,0
196.46068,196.54773,73,46,0
196.54773,196.6344,74,47,0
196.6344,196.7207,75,48,0
196.7207,196.80669,76,49,0
196.80669,196.89232,77,49,0
196.89232,196.97757,78,50,0
196.97757,197.06247,79,51,0
197.06247,197.14706,80,52,0
197.14706,197.23131,81,52,0
197.23131,197.31519,82,53,0
197.31519,197.39873,83,54,0
197.39873,197.48195,84,55,0
197.48195,197.56517,85,55,0
197.56517,197.64838,86,56,0
197.64838,197.7316,87,57,0
197.7316,197.81482,88,57,0
197.81482,197.89804,89,58,0
197.89804,197.98125,90,59,0
197.98125,198.0645,91,60,0
198.0645,198.13135,92,60,0
198.13135,198.19833,93,61,0
198.19833,198.26546,94,62,0
198.26546,198.33904,95,62,0
198.33904,198.42877,96,66,0
198.42877,198.5134,97,57,0
198.5134,198.59836,100,40,0
198.59836,198.68335,97,45,0
198.68335,198.76833,88,39,0
198.76833,198.85155,81,41,0
198.85155,198.93477,85,38,0
198.93477,199.01799,81,41,0
199.01799,199.1012,85,39,0
199.1012,199.18442,81,41,0
199.18442,199.26764,85,39,0
199.26764,199.35086,81,41,0
199.35086,199.43407,85,38,0
199.43407,199.51906,81,36,0
199.51906,199.60405,85,38,0
199.60405,199.68903,88,39,0
199.68903,199.77402,93,43,0
199.77402,199.85901,97,45,0
199.85901,199.94398,100,51,0
199.94398,200.02898,97,49,0
200.02898,200.11395,88,41,0
200.11395,200.19717,81,41,0
200.19717,200.2804,85,38,0
200.2804,200.36362,81,41,0
200.36362,200.44682,85,39,0
200.44682,200.53004,81,41,0
200.53004,200.61327,85,39,0
200.61327,200.69649,81,41,0
200.69649,200.77971,85,38,0
200.77971,200.86469,81,36,0
200.86469,200.94968,85,38,0
200.94968,201.03465,88,40,0
201.03465,201.13112,93,44,0
201.13112,201.21365,97,48,0
201.13112,201.21365,93,45,0
201.21365,201.29619,98,52,0
201.29619,201.38081,97,49,0
201.29619,201.38081,92,39,0
201.38081,201.46544,98,41,0
201.46544,201.54831,97,46,0
201.46544,201.54831,92,45,0
201.54831,201.63118,98,40,0
201.63118,201.71545,97,40,0
201.63118,201.71545,90,39,0
201.71545,201.79973,98,40,0
201.79973,201.88225,97,45,0
201.79973,201.88225,90,44,0
201.88225,201.96478,98,39,0
201.96478,202.04906,97,39,0
201.96478,202.04906,89,39,0
202.04906,202.13332,98,39,0
202.13332,202.21585,97,45,0
202.13332,202.21585,92,44,0
202.21585,202.29839,98,39,0
202.29839,202.38301,97,39,0
202.29839,202.38301,90,39,0
202.38301,202.46764,98,39,0
202.46764,202.55017,97,42,0
202.46764,202.55017,90,44,0
202.55017,202.6327,98,38,0
202.6327,202.71733,97,38,0
202.6327,202.71733,89,40,0
202.71733,202.80196,98,38,0
202.80196,202.88347,97,52,0
202.88347,202.96527,92,49,0
202.96527,203.04735,90,48,0
203.04735,203.12971,85,46,0
203.12971,203.21236,81,44,0
203.21236,203.29529,78,44,0
203.29529,203.37851,73,42,0
203.37851,203.46207,69,40,0
203.46207,203.55045,66,37,0
203.81554,203.89807,102,43,0
203.89807,203.98059,93,45,0
203.98059,204.06522,100,44,0
204.06522,204.14986,93,41,0
204.14986,204.23273,100,46,0
204.23273,204.3156,93,40,0
204.3156,204.39987,98,40,0
204.39987,204.48413,93,40,0
204.48413,204.56667,98,45,0
204.56667,204.6492,93,39,0
204.6492,204.73346,97,39,0
204.73346,204.81773,93,39,0
204.81773,204.90027,100,45,0
204.90027,204.9828,93,39,0
204.9828,205.06743,98,39,0
205.06743,205.15205,93,39,0
205.15205,205.23459,98,42,0
205.23459,205.31711,93,38,0
205.31711,205.40173,97,38,0
205.40173,205.48636,93,38,0
205.48636,205.56789,100,52,0
205.56789,205.64969,98,50,0
205.64969,205.73177,93,48,0
205.73177,205.81413,86,45,0
205.81413,205.89677,81,44,0
205.89677,205.9797,78,44,0
205.9797,206.06293,74,42,0
206.06293,206.14648,69,40,0
206.14648,206.23485,62,37,0
206.49995,206.58458,98,51,0
206.58458,206.66953,102,45,0
206.66953,206.75452,98,51,0
206.75452,206.83951,90,41,0
206.83951,206.92271,83,49,0
206.92271,207.00594,86,43,0
207.00594,207.08916,83,41,0
207.08916,207.17238,86,39,0
207.17238,207.25558,83,41,0
207.25558,207.3388,86,39,0
207.3388,207.42203,83,41,0
207.42203,207.50525,86,38,0
207.50525,207.59023,83,36,0
207.59023,207.67522,86,38,0
207.67522,207.7602,90,41,0
207.7602,207.84518,95,44,0
207.84518,207.93018,98,47,0
207.93018,208.01515,102,50,0
208.01515,208.10014,98,49,0
208.10014,208.18513,90,45,0
208.18513,208.26834,83,41,0
208.26834,208.35156,86,38,0
208.35156,208.43478,83,41,0
208.43478,208.518,86,39,0
208.518,208.60121,83,41,0
208.60121,208.68443,86,39,0
208.68443,208.76765,83,41,0
208.76765,208.85088,86,38,0
208.85088,208.93585,83,36,0
209.19081,209.2758,98,47,0
209.2758,209.36078,101,50,0
209.36078,209.44577,98,49,0
209.44577,209.53076,89,45,0
209.53076,209.61397,82,41,0
209.61397,209.69719,86,38,0
209.69719,209.78041,82,41,0
209.78041,209.86363,86,39,0
209.86363,209.94897,82,41,0
209.94897,210.03433,86,39,0
210.03433,210.11967,82,41,0
210.11967,210.20502,86,38,0
210.20502,210.29224,82,39,0
210.29224,210.37944,86,42,0
210.37944,210.46664,89,45,0
210.46664,210.55386,94,46,0
210.55386,210.6392,98,47,0
210.6392,210.72455,101,50,0
210.72455,210.8099,98,49,0
210.8099,210.89525,89,45,0
210.89525,210.98247,82,41,0
210.98247,211.06967,86,38,0
211.06967,211.15688,82,41,0
211.15688,211.2441,86,39,0
211.2441,211.33698,82,41,0
211.33698,211.42986,86,39,0
211.42986,211.52773,82,41,0
211.52773,211.62561,86,38,0
211.62561,211.71764,82,36,0
211.9937,212.06027,82,36,0
212.08246,212.14903,82,35,0
212.17122,212.2378,94,41,0
212.25998,212.32654,82,35,0
212.34874,212.41302,81,36,0
212.43445,212.49873,81,34,0
212.52016,212.58444,93,41,0
212.60588,212.67017,81,33,0
212.69159,212.75533,78,36,0
212.77658,212.84032,78,34,0
212.86156,212.92531,90,42,0
212.94655,213.01028,78,34,0
213.03154,213.09528,77,36,0
213.11652,213.18027,77,32,0
213.2015,213.26524,89,41,0
213.2865,213.35023,77,36,0
213.37148,213.43521,75,36,0
213.45647,213.5202,75,34,0
213.54144,213.60657,87,39,0
213.62828,213.6934,75,36,0
213.71512,213.77832,74,36,0
213.79938,213.86258,74,32,0
213.88365,213.94685,86,42,0
213.96793,214.03113,74,35,0
214.05219,214.16455,86,43,0
214.16455,214.27692,75,37,0
214.27692,214.38927,87,41,0
214.38927,214.47354,77,41,0
214.47354,214.55782,77,36,0
214.55782,214.64207,89,45,0
214.64207,214.72635,77,36,0
214.72635,214.84064,89,44,0
214.84064,214.95235,82,36,0
214.95235,215.0615,94,44,0
215.0615,215.17384,89,36,0
215.17384,215.28621,77,32,0
215.28621,215.39856,82,32,0
215.39856,215.51335,89,36,0
215.51335,215.62553,82,36,0
215.62553,215.73512,94,39,0
215.73512,215.84747,89,36,0
215.84747,215.95984,77,33,0
215.95984,216.07219,82,36,0
216.07219,216.18456,89,38,0
216.18456,216.29553,82,36,0
216.29553,216.40512,94,40,0
216.40512,216.51701,89,40,0
216.51701,216.62889,82,36,0
216.62889,216.74078,94,36,0
216.74078,216.85342,89,39,0
216.85342,216.9663,82,36,0
216.9663,217.0796,94,36,0
217.0796,217.19305,89,39,0
217.19305,217.30685,82,36,0
217.30685,217.42093,94,36,0
217.42093,217.53522,89,39,0
217.53522,217.64989,82,37,0
217.64989,217.7647,94,37,0
217.7647,217.85115,89,42,0
218.11061,218.1982,82,32,0
218.11061,218.1982,86,38,0
218.1982,218.28575,83,32,0
218.1982,218.28575,87,38,0
218.28575,218.37297,84,33,0
218.28575,218.37297,88,39,0
218.37297,218.46014,85,34,0
218.37297,218.46014,89,40,0
218.46014,218.54698,86,35,0
218.46014,218.54698,90,41,0
218.54698,218.63377,87,36,0
218.54698,218.63377,91,42,0
218.63377,218.72023,88,37,0
218.63377,218.72023,92,43,0
218.72023,218.80666,93,44,0
218.72023,218.80666,89,44,0
218.80666,218.89275,90,38,0
218.80666,218.89275,94,45,0
218.89275,218.97879,91,38,0
218.89275,218.97879,95,46,0
218.97879,219.0645,92,39,0
218.97879,219.0645,96,47,0
219.0645,219.15013,93,40,0
219.0645,219.15013,97,48,0
219.15013,219.23523,94,41,0
219.15013,219.23523,98,49,0
219.23523,219.32022,93,41,0
219.23523,219.32022,97,49,0
219.32022,219.40521,92,40,0
219.32022,219.40521,96,48,0
219.40521,219.49019,91,39,0
219.40521,219.49019,95,47,0
219.49019,219.57518,90,38,0
219.49019,219.57518,94,46,0
219.57518,219.66017,89,38,0
219.57518,219.66017,93,46,0
219.66017,219.74515,88,38,0
219.66017,219.74515,92,45,0
219.74515,219.83014,87,37,0
219.74515,219.83014,91,44,0
219.83014,219.91512,86,37,0
219.83014,219.91512,90,43,0
219.91512,220.0001,85,37,0
219.91512,220.0001,89,43,0
220.0001,220.0851,84,36,0
220.0001,220.0851,88,42,0
220.0851,220.17017,83,35,0
220.0851,220.17017,87,41,0
220.17017,220.25552,82,34,0
220.17017,220.25552,86,40,0
220.25552,220.34114,81,34,0
220.25552,220.34114,85,40,0
220.34114,220.42702,80,35,0
220.34114,220.42702,84,41,0
220.42702,220.51312,79,35,0
220.42702,220.51312,83,41,0
220.51312,220.59993,78,36,0
220.51312,220.59993,82,42,0
220.59993,220.68675,77,36,0
220.59993,220.68675,81,42,0
220.68675,220.77359,76,37,0
220.68675,220.77359,80,43,0
220.77359,220.86041,75,37,0
220.77359,220.86041,79,43,0
220.86041,220.94725,74,37,0
220.86041,220.94725,78,44,0
220.94725,221.0343,73,37,0
220.94725,221.0343,77,44,0
221.0343,221.1215,72,38,0
221.0343,221.1215,76,45,0
221.1215,221.20871,71,38,0
221.1215,221.20871,75,45,0
221.20871,221.29593,70,38,0
221.20871,221.29593,74,46,0
221.29593,221.38313,69,38,0
221.29593,221.38313,73,46,0
221.38313,221.47044,68,39,0
221.38313,221.47044,72,47,0
221.47044,221.55803,67,39,0
221.47044,221.55803,71,47,0
221.55803,221.64561,66,48,0
221.55803,221.64561,70,48,0
221.64561,221.73322,65,48,0
221.64561,221.73322,69,48,0
221.73322,221.8208,64,41,0
221.73322,221.8208,68,49,0
221.8208,221.9084,63,41,0
221.8208,221.9084,67,49,0
221.9084,221.99599,62,42,0
221.9084,221.99599,66,50,0
221.99599,222.08357,61,42,0
221.99599,222.08357,65,50,0
222.08357,222.17117,60,42,0
222.08357,222.17117,64,51,0
222.17117,222.25876,59,42,0
222.17117,222.25876,63,51,0
224.80467,224.93373,50,36,0
224.80467,224.93373,47,36,0
224.80467,224.93373,53,44,0
225.19429,225.37834,49,30,0
225.19429,225.37834,52,36,0
225.37834,225.5722,55,36,0
225.19429,225.5722,47,30,0
225.5722,225.69641,50,35,0
225.5722,225.69641,47,35,0
225.5722,225.69641,53,42,0
225.9472,226.12791,49,34,0
225.9472,226.12791,52,40,0
226.12791,226.32085,55,36,0
225.9472,226.32085,47,34,0
226.32085,226.45117,50,30,0
226.32085,226.45117,47,30,0
226.32085,226.45117,53,36,0
226.7143,226.84773,49,28,0
226.7143,226.84859,47,28,0
226.7143,226.84859,52,34,0
227.11969,227.92302,50,30,0
227.11969,227.92302,47,30,0
227.11969,227.92302,53,36,0
230.22691,230.35515,51,41,0
230.22691,230.35515,48,41,0
230.22691,230.35515,54,49,0
230.61652,230.80057,48,34,0
230.61652,230.80057,53,40,0
230.80057,230.99443,56,40,0
230.61652,230.99443,50,34,0
230.99443,231.11787,51,39,0
230.99443,231.11787,48,39,0
230.99443,231.11787,54,47,0
231.36943,231.55016,48,38,0
231.36943,231.55016,53,45,0
231.55016,231.74307,56,40,0
231.36943,231.74307,50,38,0
231.74307,231.87259,51,34,0
231.74307,231.87259,48,34,0
231.74307,231.87259,54,40,0
232.13652,232.26997,48,32,0
232.13652,232.26997,50,32,0
232.13652,232.26997,53,38,0
232.54193,233.3446,51,34,0
232.54193,233.3446,48,34,0
232.54193,233.3446,54,40,0
235.64793,235.77744,52,49,0
235.64793,235.77744,49,49,0
235.64793,235.77744,55,58,0
236.04137,236.24408,51,40,0
236.04137,236.24408,54,48,0
236.24408,236.44678,57,48,0
236.04137,236.44678,49,40,0
236.44678,236.57889,52,46,0
236.44678,236.57889,49,46,0
236.44678,236.57889,55,56,0
237.24945,237.37897,53,51,0
237.24945,237.37897,50,51,0
237.24945,237.37897,56,61,0
237.6429,237.8456,52,42,0
237.6429,237.8456,55,50,0
237.8456,238.0483,58,50,0
237.6429,238.0483,50,42,0
238.0483,238.1804,53,48,0
238.0483,238.1804,50,48,0
238.0483,238.1804,56,58,0
238.85098,238.95131,44,53,0
238.95131,239.05121,43,55,0
239.05121,239.15076,44,56,0
239.15076,239.24997,45,58,0
239.24997,239.34882,46,60,0
239.34882,239.44719,47,61,0
239.44719,239.54523,48,63,0
239.54523,239.64294,49,65,0
239.64294,239.74031,50,66,0
239.74031,239.83723,51,68,0
239.83723,239.93329,52,70,0
239.93329,240.02931,53,71,0
240.02931,240.12599,52,73,0
240.12599,240.22331,51,71,0
240.22331,240.32137,50,69,0
240.32137,240.42004,49,66,0
240.42004,240.51938,48,64,0
240.51938,240.61844,47,62,0
240.61844,240.7172,48,59,0
240.7172,240.81555,49,58,0
240.81555,240.91354,50,60,0
240.91354,241.01126,51,63,0
241.01126,241.10866,52,65,0
241.10866,241.2056,53,68,0
241.2056,241.30228,54,70,0
241.30228,241.39865,55,73,0
241.39865,241.49466,56,76,0
241.49466,241.5911,55,73,0
241.5911,241.68793,54,70,0
241.68793,241.78513,53,67,0
241.78513,241.8827,52,64,0
241.8827,241.98058,51,60,0
242.07843,242.17583,51,64,0
242.07843,242.17583,63,64,0
242.27278,242.36925,53,67,0
242.27278,242.36925,65,67,0
242.46532,242.56091,55,70,0
242.46532,242.56091,67,70,0
242.65611,242.75085,57,74,0
242.65611,242.75085,69,74,0
242.8452,242.93596,59,77,0
242.8452,242.93909,71,77,0
243.03343,243.12845,58,73,0
243.03343,243.12845,70,73,0
243.2242,243.32068,56,68,0
243.2242,243.32068,68,68,0
243.41788,243.51556,54,64,0
243.41788,243.51556,66,64,0
243.61333,243.71094,54,48,0
243.61333,243.71094,66,60,0
243.80817,243.90503,56,65,0
243.80817,243.90503,68,65,0
244.00148,244.0975,58,69,0
244.00148,244.0975,70,69,0
244.19315,244.28844,60,73,0
244.19315,244.28844,72,73,0
244.38336,244.47478,62,78,0
244.38336,244.47792,74,78,0
244.57224,244.66704,61,74,0
244.57224,244.66704,73,74,0
244.76237,244.85823,59,70,0
244.76237,244.85823,71,70,0
244.95462,245.05154,57,65,0
244.95462,245.05154,69,65,0
245.14847,245.24538,57,66,0
245.14847,245.24538,69,66,0
245.34183,245.43826,59,70,0
245.34183,245.43826,71,70,0
245.53427,245.63023,61,74,0
245.53427,245.63023,73,74,0
245.72577,245.82129,63,79,0
245.72577,245.82129,75,79,0
245.91638,246.01143,65,83,0
245.91638,246.01143,77,83,0
246.1061,246.20122,63,77,0
246.1061,246.20122,75,77,0
246.29678,246.39282,61,72,0
246.29678,246.39282,73,72,0
246.48932,246.58641,59,50,0
246.48932,246.58641,71,63,0
246.68379,246.78072,57,69,0
246.68379,246.78072,69,69,0
246.87729,246.9735,57,73,0
246.87729,246.9735,69,73,0
247.06937,247.16489,59,76,0
247.06937,247.16489,71,76,0
247.25996,247.3547,61,79,0
247.25996,247.3547,73,79,0
247.4491,247.54317,63,83,0
247.4491,247.54317,75,83,0
247.63689,247.73041,65,84,0
247.63689,247.73041,77,84,0
247.82475,247.91989,63,79,0
247.82475,247.91989,75,79,0
248.01587,248.11281,61,74,0
248.01587,248.11281,73,74,0
248.21022,248.30762,59,67,0
248.21022,248.30762,71,67,0
248.40475,248.50168,57,69,0
248.40475,248.50168,69,69,0
248.59862,248.69514,57,71,0
248.59862,248.69514,69,71,0
248.7916,248.88799,59,73,0
248.7916,248.88799,71,73,0
248.984,249.07999,61,75,0
248.984,249.07999,73,75,0
249.17583,249.27136,63,77,0
249.17583,249.27136,75,77,0
249.3669,249.45897,65,79,0
249.3669,249.46214,77,79,0
249.55724,249.65231,68,81,0
249.55724,249.65231,80,81,0
249.74696,249.8416,71,69,0
249.74696,249.8416,83,69,0
249.93625,250.03088,74,75,0
249.93625,250.03088,86,75,0
250.12552,250.22015,77,78,0
250.12552,250.22015,89,78,0
250.31479,250.40932,80,80,0
250.31479,250.40932,92,80,0
250.50375,250.59886,83,83,0
250.50375,250.59886,95,83,0
250.69461,250.79105,86,86,0
250.69461,250.79105,98,86,0
250.8882,250.98596,89,89,0
250.8882,250.98596,101,89,0
251.69142,251.88069,62,84,0
251.69142,251.88069,59,84,0
251.69142,251.88069,68,97,0
252.06996,252.25659,60,86,0
252.06996,252.25659,57,87,0
252.06996,252.25659,69,103,0
252.4432,252.53922,68,80,0
252.4432,252.53922,80,95,0
252.63521,252.73358,71,73,0
252.63521,252.73358,83,87,0
252.83194,253.01944,73,81,0
252.83194,253.01944,69,81,0
252.83194,253.01944,81,96,0
253.20694,253.30293,80,77,0
253.20694,253.30293,92,93,0
253.39894,253.49681,83,72,0
253.39894,253.49681,95,86,0
253.5947,253.77959,81,81,0
253.5947,253.77959,93,96,0
253.5947,253.77959,87,81,0
253.9645,254.152,68,72,0
253.9645,254.152,80,86,0
254.3395,255.086,69,80,0
254.3395,255.086,81,95,0
254.3395,255.086,75,80,0
255.086,255.27261,61,67,0
255.086,255.27261,66,80,0
255.086,255.27261,69,80,0
255.086,255.27261,57,67,0
255.27261,255.4619,56,61,0
255.27261,255.4619,68,73,0
255.4619,255.65117,57,66,0
255.4619,255.65117,69,78,0
255.65117,255.84598,59,70,0
255.65117,255.84598,71,82,0
255.84598,256.62518,66,72,0
255.84598,256.62518,72,86,0
255.84598,256.62518,60,72,0
255.84598,256.62518,63,72,0
256.62518,256.81268,87,75,0
256.62518,256.81268,84,75,0
256.62518,256.81268,96,90,0
256.81268,256.99673,83,72,0
256.81268,256.99673,95,85,0
256.99673,257.18784,81,72,0
256.99673,257.18784,93,85,0
257.18784,257.38748,80,72,0
257.18784,257.38748,92,85,0
257.38748,257.98648,81,77,0
257.38748,257.98648,87,77,0
257.38748,257.98648,93,92,0
257.98648,258.0839,60,65,0
257.98648,258.0839,72,77,0
258.1813,258.35883,59,71,0
258.1813,258.35883,71,85,0
258.35883,258.50146,57,65,0
258.35883,258.50146,69,77,0
258.5371,258.6279,55,65,0
258.5371,258.6279,67,77,0
258.71866,258.8133,59,65,0
258.71866,258.8133,71,77,0
258.90793,259.08704,57,71,0
258.90793,259.08704,69,85,0
259.08704,259.23032,55,66,0
259.08704,259.23032,67,78,0
259.26614,259.35776,53,66,0
259.26614,259.35776,65,78,0
259.44934,259.54398,57,67,0
259.44934,259.54398,69,80,0
259.6386,259.81693,55,75,0
259.6386,259.81693,67,89,0
259.81693,259.95956,53,67,0
259.81693,259.95956,65,80,0
259.99524,260.086,52,67,0
259.99524,260.086,64,80,0
260.1768,260.27142,55,67,0
260.1768,260.27142,67,80,0
260.36606,260.54437,53,76,0
260.36606,260.54437,65,90,0
260.54437,260.687,52,67,0
260.54437,260.687,64,80,0
260.72266,260.81384,51,67,0
260.72266,260.81384,63,80,0
260.90503,261.00012,53,67,0
260.90503,261.00012,65,80,0
261.0952,261.27927,53,75,0
261.0952,261.27927,65,89,0
261.27927,261.4265,52,67,0
261.27927,261.4265,64,80,0
261.46332,261.55795,52,67,0
261.46332,261.55795,64,80,0
261.6526,261.75143,51,67,0
261.6526,261.75143,63,80,0
261.85028,262.04135,53,77,0
261.85028,262.04135,65,92,0
262.04135,262.1942,52,67,0
262.04135,262.1942,64,80,0
262.23245,262.32797,52,67,0
262.23245,262.32797,64,80,0
262.42352,262.5259,51,67,0
262.42352,262.5259,63,80,0
262.6283,263.39264,52,82,0
262.6283,263.39264,64,97,0
263.39264,263.5837,64,78,0
263.39264,263.5837,76,94,0
263.39264,263.5837,71,78,0
263.39264,263.5837,68,78,0
263.7748,263.9004,76,77,0
263.9004,264.02597,78,80,0
264.02597,264.15158,80,82,0
264.15158,264.33908,69,78,0
264.15158,264.33908,81,92,0
264.52658,264.61694,68,64,0
264.52658,264.61694,80,76,0
264.52658,264.61694,71,64,0
264.7073,264.80518,71,58,0
264.7073,264.80518,83,69,0
264.7073,264.80518,74,58,0
264.90305,265.09055,72,72,0
264.90305,265.09055,69,72,0
264.90305,265.09055,81,86,0
265.27805,265.3684,68,63,0
265.27805,265.3684,80,73,0
265.27805,265.3684,71,63,0
265.45877,265.55762,71,57,0
265.45877,265.55762,83,68,0
265.45877,265.55762,74,57,0
265.65646,265.75247,69,72,0
265.65646,265.75247,81,86,0
265.65646,265.75247,72,72,0
266.04047,266.1374,68,57,0
266.04047,266.1374,80,68,0
266.04047,266.1374,71,57,0
266.4282,267.1962,69,72,0
266.4282,267.1962,81,85,0
266.4282,267.1962,72,72,0
267.1962,267.38547,84,60,0
267.1962,267.38547,89,72,0
267.1962,267.38547,93,77,0
267.1962,267.38547,81,60,0
267.38547,267.56952,80,54,0
267.38547,267.56952,92,65,0
267.56952,267.75357,81,59,0
267.56952,267.75357,93,70,0
267.75357,267.9503,83,63,0
267.75357,267.9503,95,73,0
267.9503,268.73718,88,64,0
267.9503,268.73718,84,64,0
267.9503,268.73718,96,81,0
268.73718,268.92645,89,64,0
268.73718,268.92645,84,64,0
268.73718,268.92645,96,81,0
268.92645,269.11136,83,62,0
268.92645,269.11136,95,72,0
269.11136,269.30063,81,62,0
269.11136,269.30063,93,72,0
269.30063,269.49734,80,62,0
269.30063,269.49734,92,72,0
269.49734,270.0875,81,66,0
269.49734,270.0875,84,66,0
269.49734,270.0875,93,83,0
269.49734,270.0875,88,66,0
270.0875,270.18304,84,58,0
270.0875,270.18304,96,69,0
270.2786,270.46436,83,63,0
270.2786,270.46436,95,76,0
270.46436,270.60892,81,58,0
270.46436,270.60892,93,69,0
270.64508,270.73343,80,58,0
270.64508,270.73343,92,69,0
270.8218,270.91425,83,58,0
270.8218,270.91425,95,69,0
271.0067,271.19244,81,63,0
271.0067,271.19244,93,76,0
271.19244,271.3351,73,59,0
271.19244,271.3351,85,70,0
271.37076,271.45834,78,59,0
271.37076,271.45834,90,70,0
271.54596,271.6384,81,60,0
271.54596,271.6384,93,72,0
271.73083,271.90915,80,67,0
271.73083,271.90915,92,80,0
271.90915,272.05243,78,60,0
271.90915,272.05243,90,72,0
272.08826,272.1778,76,60,0
272.08826,272.1778,88,72,0
272.26736,272.362,80,60,0
272.26736,272.362,92,72,0
272.45663,272.63495,78,68,0
272.45663,272.63495,90,81,0
272.63495,272.77887,76,60,0
272.63495,272.77887,88,72,0
272.81485,272.90482,75,60,0
272.81485,272.90482,87,72,0
272.99475,273.0885,78,60,0
272.99475,273.0885,90,72,0
273.18225,273.36218,78,67,0
273.18225,273.36218,90,80,0
273.36218,273.50806,76,60,0
273.36218,273.50806,88,72,0
273.54456,273.63742,76,60,0
273.54456,273.63742,88,72,0
273.73032,273.82724,75,60,0
273.73032,273.82724,87,72,0
273.92416,274.10992,78,69,0
273.92416,274.10992,90,82,0
274.10992,274.26062,76,60,0
274.10992,274.26062,88,72,0
274.2983,274.3925,76,60,0
274.2983,274.3925,88,72,0
274.4867,274.58752,75,60,0
274.4867,274.58752,87,72,0
274.68835,275.4638,76,73,0
274.68835,275.4638,83,73,0
274.68835,275.4638,80,73,0
274.68835,275.4638,88,87,0
275.4638,275.65768,88,70,0
275.4638,275.65768,100,84,0
275.4638,275.65768,95,70,0
275.4638,275.65768,92,70,0
276.14233,276.23926,71,73,0
276.14233,276.23926,76,87,0
276.14233,276.23926,64,73,0
276.14233,276.23926,68,73,0
276.23926,276.4233,71,79,0
276.23926,276.4233,76,95,0
276.23926,276.4233,64,79,0
276.23926,276.4233,68,79,0
276.97546,277.16562,76,73,0
276.97546,277.16562,68,73,0
276.97546,277.16562,73,73,0
276.97546,277.16562,80,87,0
277.73615,278.87186,80,79,0
277.73615,278.87186,71,79,0
277.73615,278.87186,83,95,0
277.73615,278.87186,75,79,0
278.87186,279.13693,83,95,0
278.87186,279.13693,71,79,0
278.87186,279.13693,76,79,0
278.87186,279.13693,80,79,0
279.13693,279.22015,76,73,0
279.13693,279.22015,88,87,0
279.22015,279.40765,75,79,0
279.22015,279.40765,71,79,0
279.22015,279.40765,80,95,0
279.22015,279.40765,83,95,0
279.59515,279.85565,83,95,0
279.59515,279.85565,80,79,0
279.59515,279.85565,71,79,0
279.59515,279.85565,76,79,0
279.85565,279.93784,88,87,0
279.85565,279.93784,76,73,0
279.93784,280.12534,83,95,0
279.93784,280.12534,71,79,0
279.93784,280.12534,75,79,0
279.93784,280.12534,80,95,0
280.31284,280.57333,83,95,0
280.31284,280.57333,76,79,0
280.31284,280.57333,80,79,0
280.31284,280.57333,71,79,0
280.57333,280.65552,76,73,0
280.57333,280.65552,88,87,0
280.65552,282.22794,80,79,0
280.65552,282.22794,71,79,0
280.65552,282.22794,83,95,0
280.65552,282.22794,75,79,0
282.22794,282.38074,80,84,0
282.22794,282.38074,83,84,0
282.22794,282.38074,88,99,0
282.22794,282.38074,74,84,0
282.22794,282.38074,76,84,0
283.81018,283.93448,93,79,0
283.81018,283.93448,96,79,0
283.93448,283.97592,95,60,0
283.93448,283.97592,91,60,0
283.97592,284.05844,89,59,0
283.97592,284.05844,93,59,0
284.05844,284.141,88,58,0
284.05844,284.141,91,58,0
284.141,284.2235,86,57,0
284.141,284.2235,89,57,0
284.2235,284.30603,84,56,0
284.2235,284.30603,88,56,0
284.30603,284.39325,83,54,0
284.30603,284.39325,86,54,0
284.39325,284.487,81,53,0
284.39325,284.487,84,53,0
284.487,284.53485,79,51,0
284.487,284.53485,83,51,0
284.53485,284.582,77,51,0
284.53485,284.582,81,51,0
284.582,284.62985,76,50,0
284.582,284.62985,79,50,0
284.62918,284.67703,77,50,0
284.62918,284.67703,74,50,0
284.67703,284.72418,76,49,0
284.67703,284.72418,72,49,0
284.72418,284.77203,74,48,0
284.72418,284.77203,71,48,0
284.77203,284.81918,72,47,0
284.77203,284.81918,69,47,0
284.8199,284.9928,67,47,0
284.8199,284.9928,71,47,0
285.1794,285.3069,89,79,0
285.1794,285.3069,93,79,0
285.3069,285.3494,91,60,0
285.3069,285.3494,88,60,0
285.3494,285.43295,86,59,0
285.3494,285.43295,89,59,0
285.43295,285.5165,84,58,0
285.43295,285.5165,88,58,0
285.5165,285.60007,83,57,0
285.5165,285.60007,86,57,0
285.60007,285.68365,81,55,0
285.60007,285.68365,84,55,0
285.68365,285.77084,79,54,0
285.68365,285.77084,83,54,0
285.77084,285.8646,77,52,0
285.77084,285.8646,81,52,0
285.8646,285.91306,76,50,0
285.8646,285.91306,79,50,0
285.91306,285.96082,74,49,0
285.91306,285.96082,77,49,0
285.96082,286.00928,72,48,0
285.96082,286.00928,76,48,0
286.00858,286.057,74,47,0
286.00858,286.057,71,47,0
286.057,286.10477,72,46,0
286.057,286.10477,69,46,0
286.10477,286.15323,71,45,0
286.10477,286.15323,67,45,0
286.15323,286.201,69,43,0
286.15323,286.201,65,43,0
286.2017,286.3746,64,42,0
286.2017,286.3746,67,42,0
286.54492,286.67133,86,79,0
286.54492,286.67133,89,79,0
286.67133,286.71347,88,61,0
286.67133,286.71347,84,61,0
286.71347,286.79773,83,60,0
286.71347,286.79773,86,60,0
286.79773,286.88202,81,59,0
286.79773,286.88202,84,59,0
286.88202,286.96848,79,58,0
286.88202,286.96848,83,58,0
286.96848,287.05493,77,57,0
286.96848,287.05493,81,57,0
287.05493,287.14212,76,55,0
287.05493,287.14212,79,55,0
287.14212,287.23587,74,54,0
287.14212,287.23587,77,54,0
287.23587,287.28412,72,53,0
287.23587,287.28412,76,53,0
287.28412,287.33167,71,52,0
287.28412,287.33167,74,52,0
287.33167,287.37994,69,51,0
287.33167,287.37994,72,51,0
287.37924,287.4275,71,50,0
287.37924,287.4275,67,50,0
287.4275,287.47504,69,49,0
287.4275,287.47504,65,49,0
287.47504,287.5233,67,47,0
287.47504,287.5233,64,47,0
287.5233,287.57083,65,46,0
287.5233,287.57083,62,46,0
287.57153,287.7437,60,45,0
287.57153,287.7437,64,45,0
287.91586,288.04443,83,79,0
287.91586,288.04443,86,79,0
288.04443,288.0873,84,59,0
288.04443,288.0873,81,59,0
288.0873,288.1712,79,58,0
288.0873,288.1712,83,58,0
288.1712,288.25513,77,57,0
288.1712,288.25513,81,57,0
288.25513,288.33905,76,56,0
288.25513,288.33905,79,56,0
288.33905,288.42297,74,54,0
288.33905,288.42297,77,54,0
288.42297,288.51016,72,53,0
288.42297,288.51016,76,53,0
288.51016,288.6039,71,52,0
288.51016,288.6039,74,52,0
288.6039,288.6522,69,51,0
288.6039,288.6522,72,51,0
288.6522,288.69974,67,50,0
288.6522,288.69974,71,50,0
288.69974,288.748,65,49,0
288.69974,288.748,69,49,0
288.74728,288.79553,67,49,0
288.74728,288.79553,64,49,0
288.79553,288.84308,65,48,0
288.79553,288.84308,62,48,0
288.84308,288.89133,64,47,0
288.84308,288.89133,60,47,0
288.89133,288.9389,62,45,0
288.89133,288.9389,59,45,0
288.93958,289.1125,57,44,0
288.93958,289.1125,60,44,0
289.2854,289.4129,79,79,0
289.2854,289.4129,83,79,0
289.4129,289.45538,81,62,0
289.4129,289.45538,77,62,0
289.45538,289.53894,76,61,0
289.45538,289.53894,79,61,0
289.53894,289.6225,74,59,0
289.53894,289.6225,77,59,0
289.6225,289.7061,72,57,0
289.6225,289.7061,76,57,0
289.7061,289.78964,71,56,0
289.7061,289.78964,74,56,0
289.78964,289.87686,69,54,0
289.78964,289.87686,72,54,0
289.87686,289.9706,67,53,0
289.87686,289.9706,71,53,0
289.9706,290.01968,65,50,0
289.9706,290.01968,69,50,0
290.01968,290.06805,64,49,0
290.01968,290.06805,67,49,0
290.06805,290.11713,62,48,0
290.06805,290.11713,65,48,0
290.1164,290.16547,64,47,0
290.1164,290.16547,60,47,0
290.16547,290.21384,62,46,0
290.16547,290.21384,59,46,0
290.21384,290.2629,60,45,0
290.21384,290.2629,57,45,0
290.2629,290.31128,59,44,0
290.2629,290.31128,55,44,0
290.31198,290.4849,53,43,0
290.31198,290.4849,57,43,0
290.76923,290.88065,52,73,0
290.88065,290.99207,56,75,0
290.99207,291.09235,64,77,0
291.1035,291.2129,64,72,0
291.2129,291.32028,68,72,0
291.32028,291.41693,64,77,0
291.42767,291.53638,64,74,0
291.53638,291.64642,68,74,0
291.64642,291.74545,76,77,0
291.75647,291.86652,76,74,0
291.86652,291.97653,80,74,0
291.97653,292.0768,76,77,0
292.08795,292.19937,76,73,0
292.19937,292.31082,80,75,0
292.31082,292.41107,88,77,0
292.42224,292.5323,88,72,0
292.5323,292.641,92,72,0
292.641,292.7388,88,77,0
292.74966,292.8595,88,74,0
292.8595,292.97046,92,74,0
292.97046,293.08142,100,77,0
293.08142,293.19238,92,74,0
293.19238,293.30334,104,74,0
293.30334,293.40942,88,77,0
293.40942,293.51553,100,73,0
293.51553,293.62164,92,75,0
293.62164,293.7299,104,78,0
293.7299,293.83813,88,74,0
293.83813,293.94638,100,74,0
293.94638,294.0525,92,84,0
294.0525,294.1586,104,79,0
294.1586,294.2647,88,79,0
294.2647,294.37253,100,87,0
294.37253,294.48032,92,83,0
294.48032,294.58813,104,83,0
294.58813,294.92102,88,91,0
294.92102,295.00424,95,83,0
294.92102,295.00424,92,83,0
294.92102,295.00424,100,98,0
295.42032,295.58676,64,68,0
295.42032,295.58676,76,81,0
295.58676,295.75458,66,73,0
295.58676,295.75458,78,86,0
295.75458,295.92242,68,76,0
295.75458,295.92242,80,90,0
295.92242,296.09683,69,79,0
295.92242,296.09683,81,93,0
295.92242,296.09683,72,79,0
296.27127,296.3538,68,63,0
296.27127,296.3538,80,74,0
296.27127,296.3538,71,63,0
296.4363,296.52316,71,57,0
296.4363,296.52316,83,68,0
296.4363,296.52316,74,57,0
296.61,296.77997,72,71,0
296.61,296.77997,69,71,0
296.61,296.77997,81,84,0
296.94992,297.03146,68,61,0
296.94992,297.03146,80,72,0
296.94992,297.03146,71,61,0
297.11298,297.19943,71,56,0
297.11298,297.19943,83,67,0
297.11298,297.19943,74,56,0
297.2859,297.37747,69,71,0
297.2859,297.37747,81,84,0
297.2859,297.37747,72,71,0
297.65228,297.74146,68,56,0
297.65228,297.74146,80,67,0
297.65228,297.74146,71,56,0
298.0089,298.7384,69,70,0
298.0089,298.7384,81,83,0
298.0089,298.7384,72,70,0
298.7384,298.82126,81,63,0
298.7384,298.82126,93,75,0
298.90414,298.987,83,67,0
298.90414,298.987,95,79,0
299.0699,299.58206,84,69,0
299.0699,299.58206,96,82,0
299.58206,299.66132,83,62,0
299.58206,299.66132,95,74,0
299.74057,300.24292,81,70,0
299.74057,300.24292,93,83,0
300.24292,300.32315,79,63,0
300.24292,300.32315,91,75,0
300.40335,300.90897,77,71,0
300.40335,300.90897,89,84,0
300.90897,300.9892,76,68,0
300.90897,300.9892,88,81,0
301.0694,301.15295,74,68,0
301.0694,301.15295,86,81,0
301.23654,301.32373,73,68,0
301.23654,301.32373,85,81,0
301.41095,301.5795,86,90,0
301.41095,301.5795,74,76,0
301.41095,301.5795,77,76,0
301.74802,301.8289,85,74,0
301.74802,301.8289,73,63,0
301.74802,301.8289,76,63,0
301.90976,301.99658,79,57,0
301.90976,301.99658,88,68,0
301.90976,301.99658,76,57,0
302.0834,302.25195,77,71,0
302.0834,302.25195,86,84,0
302.0834,302.25195,74,71,0
302.4205,302.50168,85,72,0
302.4205,302.50168,73,61,0
302.4205,302.50168,76,61,0
302.5829,302.67325,76,56,0
302.5829,302.67325,88,67,0
302.5829,302.67325,79,56,0
302.7636,302.85196,77,71,0
302.7636,302.85196,86,84,0
302.7636,302.85196,74,71,0
303.11707,303.2062,85,67,0
303.11707,303.2062,73,56,0
303.11707,303.2062,76,56,0
303.47366,304.20987,86,83,0
303.47366,304.20987,77,70,0
303.47366,304.20987,74,70,0
304.20987,304.29343,86,63,0
304.20987,304.29343,98,75,0
304.37698,304.46057,88,67,0
304.37698,304.46057,100,79,0
304.54413,305.05563,89,69,0
304.54413,305.05563,101,82,0
305.05563,305.13617,88,62,0
305.05563,305.13617,100,74,0
305.2167,305.7246,86,70,0
305.2167,305.7246,98,83,0
305.7246,305.80545,84,63,0
305.7246,305.80545,96,75,0
305.88632,306.3984,83,71,0
305.88632,306.3984,95,84,0
306.3984,306.4803,81,65,0
306.3984,306.4803,93,77,0
306.56213,306.6464,80,65,0
306.56213,306.6464,92,77,0
306.73065,306.8171,81,65,0
306.73065,306.8171,93,77,0
306.90356,306.98645,80,67,0
306.90356,306.98645,92,79,0
307.06934,307.1522,83,71,0
307.06934,307.1522,95,84,0
307.23508,307.3968,88,74,0
307.23508,307.3968,100,88,0
307.57047,308.2651,59,73,0
307.57047,308.2651,56,73,0
307.57047,308.2651,64,86,0
308.2651,308.34796,81,67,0
308.2651,308.34796,93,79,0
308.43085,308.51373,84,71,0
308.43085,308.51373,96,84,0
308.5966,308.75766,88,74,0
308.5966,308.75766,100,88,0
308.9321,309.62976,60,73,0
308.9321,309.62976,57,73,0
308.9321,309.62976,64,86,0
309.62976,309.70718,71,62,0
309.62976,309.70718,80,73,0
309.7846,309.86203,74,55,0
309.7846,309.86203,83,65,0
309.93942,310.0203,71,62,0
309.93942,310.0203,80,73,0
310.10117,310.19278,74,56,0
310.10117,310.19278,83,67,0
310.28436,310.62003,53,84,0
310.62003,310.70395,52,74,0
310.9654,311.0428,72,62,0
310.9654,311.0428,81,73,0
311.1202,311.19763,76,55,0
311.1202,311.19763,84,65,0
311.27505,311.354,72,62,0
311.27505,311.354,81,73,0
311.43295,311.5225,76,56,0
311.43295,311.5225,84,67,0
311.61206,311.94217,53,84,0
311.94217,312.02472,52,74,0
312.28317,312.4614,92,73,0
312.28317,312.4614,89,73,0
312.28317,312.4614,95,87,0
312.28317,312.4614,101,87,0
312.44516,312.62445,88,73,0
312.44516,312.62445,100,86,0
312.60806,312.78848,98,84,0
312.60806,312.78848,86,71,0
312.77206,312.95355,96,83,0
312.77206,312.95355,84,70,0
312.93698,313.11966,95,81,0
312.93698,313.11966,83,68,0
313.103,313.28677,93,80,0
313.103,313.28677,81,68,0
313.27,313.45496,92,79,0
313.27,313.45496,80,67,0
313.4381,313.62332,88,77,0
313.4381,313.62332,76,65,0
313.6069,313.78827,80,68,0
313.6069,313.78827,89,80,0
313.6069,313.78827,77,68,0
313.6069,313.78827,83,68,0
313.7717,313.9546,76,65,0
313.7717,313.9546,88,77,0
313.93787,314.12228,86,75,0
313.93787,314.12228,74,63,0
314.10544,314.29114,84,73,0
314.10544,314.29114,72,62,0
314.27435,314.46027,83,72,0
314.27435,314.46027,71,61,0
314.44324,314.63232,81,70,0
314.44324,314.63232,69,59,0
314.615,314.80704,80,68,0
314.615,314.80704,68,57,0
314.78943,314.9841,76,67,0
314.78943,314.9841,64,56,0
314.96634,315.16162,77,71,0
314.96634,315.16162,65,60,0
315.14386,315.3391,75,64,0
315.14386,315.3391,63,54,0
315.32138,315.51663,76,69,0
315.32138,315.51663,64,58,0
315.4989,315.69427,74,65,0
315.4989,315.69427,62,55,0
315.67645,315.8726,75,69,0
315.67645,315.8726,63,58,0
315.85474,316.05087,73,66,0
315.85474,316.05087,61,56,0
316.03305,316.2292,74,73,0
316.03305,316.2292,62,62,0
316.21136,316.38986,72,69,0
316.21136,316.38986,60,58,0
316.38986,316.57217,61,64,0
316.38986,316.57217,73,77,0
316.57217,316.7573,59,60,0
316.57217,316.7573,71,72,0
316.7573,316.94504,60,71,0
316.7573,316.94504,72,83,0
316.94504,317.13568,58,67,0
316.94504,317.13568,70,78,0
317.13568,317.3329,59,74,0
317.13568,317.3329,71,89,0
317.3329,317.5432,57,73,0
317.3329,317.5432,69,86,0
317.5432,317.775,58,81,0
317.5432,317.775,70,96,0
317.775,318.087,56,79,0
317.775,318.087,68,94,0
318.46735,318.6331,64,74,0
318.46735,318.6331,69,88,0
318.46735,318.6331,61,74,0
318.6331,318.82544,64,74,0
318.087,318.82544,85,91,0
318.087,318.82544,93,108,0
318.087,318.82544,81,91,0
318.6331,318.82544,61,74,0
318.6331,318.82544,69,88,0
318.82544,319.01205,64,82,0
318.82544,319.01205,61,82,0
318.82544,319.01205,69,97,0
319.19867,319.3754,83,84,0
319.19867,319.3754,80,84,0
319.19867,319.3754,92,101,0
319.3754,319.56357,86,84,0
319.3754,319.56357,83,84,0
319.3754,319.56357,95,101,0
319.56357,319.75018,85,92,0
319.56357,319.75018,81,92,0
319.56357,319.75018,93,108,0
319.9368,320.11047,83,84,0
319.9368,320.11047,80,84,0
319.9368,320.11047,92,101,0
320.11047,320.29337,86,84,0
320.11047,320.29337,83,84,0
320.11047,320.29337,95,101,0
320.29337,320.47574,85,92,0
320.29337,320.47574,81,92,0
320.29337,320.47574,93,108,0
320.6581,320.85776,85,86,0
320.6581,320.85776,81,86,0
320.6581,320.85776,93,103,0
321.44516,321.61023,68,74,0
321.44516,321.61023,73,88,0
321.44516,321.61023,65,74,0
321.61023,321.80347,68,74,0
321.05743,321.80347,89,89,0
321.05743,321.80347,97,105,0
321.05743,321.80347,85,89,0
321.61023,321.80347,65,74,0
321.61023,321.80347,73,88,0
321.80347,321.99008,68,82,0
321.80347,321.99008,65,82,0
321.80347,321.99008,73,97,0
322.1767,322.35342,87,84,0
322.1767,322.35342,84,84,0
322.1767,322.35342,96,101,0
322.35342,322.5416,90,84,0
322.35342,322.5416,87,84,0
322.35342,322.5416,99,101,0
322.5416,322.7282,89,92,0
322.5416,322.7282,85,92,0
322.5416,322.7282,97,108,0
322.91483,323.08774,87,84,0
322.91483,323.08774,84,84,0
322.91483,323.08774,96,101,0
323.08774,323.2704,90,84,0
323.08774,323.2704,87,84,0
323.08774,323.2704,99,101,0
323.2704,323.45966,89,92,0
323.2704,323.45966,85,92,0
323.2704,323.45966,97,108,0
323.64893,323.8447,89,86,0
323.64893,323.8447,85,86,0
323.64893,323.8447,97,103,0
324.42816,324.59323,72,74,0
324.42816,324.59323,77,88,0
324.42816,324.59323,69,74,0
324.59323,324.7775,72,74,0
324.04047,324.7775,93,89,0
324.04047,324.7775,101,105,0
324.04047,324.7775,89,89,0
324.59323,324.7775,69,74,0
324.59323,324.7775,77,88,0
324.7775,324.9641,72,82,0
324.7775,324.9641,69,82,0
324.7775,324.9641,77,97,0
325.15076,325.32825,91,77,0
325.15076,325.32825,88,77,0
325.15076,325.32825,100,92,0
325.32825,325.51666,94,77,0
325.32825,325.51666,91,77,0
325.32825,325.51666,103,92,0
325.51666,325.7033,93,84,0
325.51666,325.7033,89,84,0
325.51666,325.7033,101,99,0
325.88992,326.0636,91,77,0
325.88992,326.0636,88,77,0
325.88992,326.0636,100,92,0
326.0636,326.24646,94,77,0
326.0636,326.24646,91,77,0
326.0636,326.24646,103,92,0
326.24646,326.42883,93,84,0
326.24646,326.42883,89,84,0
326.24646,326.42883,101,99,0
326.6112,326.80414,81,79,0
326.6112,326.80414,77,79,0
326.6112,326.80414,89,94,0
326.99707,327.17618,85,70,0
326.99707,327.17618,81,70,0
326.99707,327.17618,93,82,0
327.17618,327.35474,80,65,0
327.17618,327.35474,92,76,0
327.35474,327.5284,81,70,0
327.35474,327.5284,93,82,0
327.5284,327.7087,83,65,0
327.5284,327.7087,95,76,0
327.7087,328.23206,85,70,0
327.7087,328.23206,97,82,0
328.23206,328.41278,85,68,0
328.23206,328.41278,97,80,0
328.41278,328.59515,85,70,0
328.41278,328.59515,97,82,0
328.59515,328.7688,83,65,0
328.59515,328.7688,95,76,0
328.7688,328.944,81,70,0
328.7688,328.944,93,82,0
328.944,329.1245,80,65,0
328.944,329.1245,92,76,0
329.1245,329.64868,81,70,0
329.1245,329.64868,93,82,0
329.64868,329.83188,90,68,0
329.64868,329.83188,102,80,0
329.83188,329.99765,88,70,0
329.83188,329.99765,100,82,0
329.99765,330.17337,86,65,0
329.99765,330.17337,98,76,0
330.17337,330.34406,85,70,0
330.17337,330.34406,97,82,0
330.34406,330.52936,88,65,0
330.34406,330.52936,100,76,0
330.52936,330.70004,86,70,0
330.52936,330.70004,98,82,0
330.70004,330.87744,85,65,0
330.70004,330.87744,97,76,0
330.87744,331.0526,83,70,0
330.87744,331.0526,95,82,0
331.0526,331.23358,86,65,0
331.0526,331.23358,98,76,0
331.23358,331.4103,85,70,0
331.23358,331.4103,97,82,0
331.4103,331.58972,83,65,0
331.4103,331.58972,95,76,0
331.58972,331.76337,81,70,0
331.58972,331.76337,93,82,0
331.76337,331.94427,85,65,0
331.76337,331.94427,97,76,0
331.94427,332.12256,83,70,0
331.94427,332.12256,95,82,0
332.12256,332.30087,81,65,0
332.12256,332.30087,93,76,0
332.30087,332.66003,80,70,0
332.30087,332.66003,92,82,0
332.66003,332.84076,81,70,0
332.66003,332.84076,93,82,0
332.84076,333.01987,80,65,0
332.84076,333.01987,92,76,0
333.01987,333.19354,81,70,0
333.01987,333.19354,93,82,0
333.19354,333.3726,83,65,0
333.19354,333.3726,95,76,0
333.3726,333.9,85,70,0
333.3726,333.9,97,82,0
333.9,334.0775,85,68,0
333.9,334.0775,97,80,0
334.0775,334.2599,85,70,0
334.0775,334.2599,97,82,0
334.2599,334.43506,83,65,0
334.2599,334.43506,95,76,0
334.43506,334.61258,81,70,0
334.43506,334.61258,93,82,0
334.61258,334.79388,80,65,0
334.61258,334.79388,92,76,0
334.79388,335.3221,81,70,0
334.79388,335.3221,93,82,0
335.3221,335.50284,90,68,0
335.3221,335.50284,102,80,0
335.50284,335.67648,88,70,0
335.50284,335.67648,100,82,0
335.67648,335.85406,86,65,0
335.67648,335.85406,98,76,0
335.85406,336.02924,85,70,0
335.85406,336.02924,97,82,0
336.02924,336.21106,88,65,0
336.02924,336.21106,100,76,0
336.21106,336.39017,86,70,0
336.21106,336.39017,98,82,0
336.39017,336.57034,85,65,0
336.39017,336.57034,97,76,0
336.57034,336.74707,83,70,0
336.57034,336.74707,95,82,0
336.74707,336.93158,86,65,0
336.74707,336.93158,98,76,0
336.93158,337.11148,85,70,0
336.93158,337.11148,97,82,0
337.11148,337.29193,83,65,0
337.11148,337.29193,95,76,0
337.29193,337.4679,81,70,0
337.29193,337.4679,93,82,0
337.4679,337.65082,85,65,0
337.4679,337.65082,97,76,0
337.65082,337.83487,83,70,0
337.65082,337.83487,95,82,0
337.83487,338.01892,81,65,0
337.83487,338.01892,93,76,0
338.01892,338.3792,80,70,0
338.01892,338.3792,92,82,0
338.3792,338.55405,69,58,0
338.3792,338.55405,81,69,0
338.55405,338.72787,68,51,0
338.55405,338.72787,80,60,0
338.72787,338.9005,65,60,0
338.72787,338.9005,77,71,0
338.9005,339.0722,69,54,0
338.9005,339.0722,81,64,0
339.0722,339.24292,68,63,0
339.0722,339.24292,80,75,0
339.24292,339.41364,65,60,0
339.24292,339.41364,77,71,0
339.41364,339.5846,64,65,0
339.41364,339.5846,76,77,0
339.5846,339.756,68,62,0
339.5846,339.756,80,73,0
339.756,339.926,65,69,0
339.756,339.926,77,81,0
339.926,340.09595,64,61,0
339.926,340.09595,76,72,0
340.09595,340.26523,62,71,0
340.09595,340.26523,74,84,0
340.26523,340.43445,65,63,0
340.26523,340.43445,77,75,0
340.43445,340.603,62,74,0
340.43445,340.603,74,88,0
340.603,340.77155,61,70,0
340.603,340.77155,73,83,0
340.77155,340.95474,70,90,0
340.77155,340.95474,58,76,0
341.13794,341.31152,69,58,0
341.13794,341.31152,81,69,0
341.31152,341.48434,68,51,0
341.31152,341.48434,80,60,0
341.48434,341.65625,65,60,0
341.48434,341.65625,77,71,0
341.65625,341.82733,69,54,0
341.65625,341.82733,81,64,0
341.82733,341.99765,68,63,0
341.82733,341.99765,80,75,0
341.99765,342.16708,65,60,0
341.99765,342.16708,77,71,0
342.16708,342.33572,64,65,0
342.16708,342.33572,76,77,0
342.33572,342.50348,68,62,0
342.33572,342.50348,80,73,0
342.50348,342.67346,65,69,0
342.50348,342.67346,77,81,0
342.67346,342.84244,64,61,0
342.67346,342.84244,76,72,0
342.84244,343.00818,62,71,0
342.84244,343.00818,74,84,0
343.00818,343.1739,65,63,0
343.00818,343.1739,77,75,0
343.1739,343.33905,62,74,0
343.1739,343.33905,74,88,0
343.33905,343.50482,61,70,0
343.33905,343.50482,73,83,0
343.50482,343.68634,70,90,0
343.50482,343.68634,58,76,0
343.8677,344.04117,57,54,0
343.8677,344.04117,69,64,0
344.04117,344.2076,58,54,0
344.04117,344.2076,70,64,0
344.2076,344.37363,61,55,0
344.2076,344.37363,73,65,0
344.37363,344.5392,62,56,0
344.37363,344.5392,74,66,0
344.5392,344.70428,64,56,0
344.5392,344.70428,76,67,0
344.70428,344.86877,65,57,0
344.70428,344.86877,77,68,0
344.86877,345.03287,68,58,0
344.86877,345.03287,80,69,0
345.03287,345.1966,69,59,0
345.03287,345.1966,81,70,0
345.1966,345.36,70,60,0
345.1966,345.36,82,71,0
345.36,345.52225,73,61,0
345.36,345.52225,85,72,0
345.52225,345.68338,74,62,0
345.52225,345.68338,86,73,0
345.68338,345.8446,76,62,0
345.68338,345.8446,88,74,0
345.8446,346.00662,77,62,0
345.8446,346.00662,89,74,0
346.00662,346.169,80,63,0
346.00662,346.169,92,75,0
346.169,346.3374,81,64,0
346.169,346.3374,93,76,0
346.3374,346.51382,82,65,0
346.3374,346.51382,94,77,0
346.51382,346.67703,85,66,0
346.51382,346.67703,97,78,0
346.67703,346.84085,82,65,0
346.67703,346.84085,94,77,0
346.84085,347.00537,81,63,0
346.84085,347.00537,93,75,0
347.00537,347.17065,80,62,0
347.00537,347.17065,92,74,0
347.17065,347.33676,77,61,0
347.17065,347.33676,89,72,0
347.33676,347.50363,76,59,0
347.33676,347.50363,88,70,0
347.50363,347.67126,74,58,0
347.50363,347.67126,86,69,0
347.67126,347.8397,73,56,0
347.67126,347.8397,85,67,0
347.8397,348.00897,70,56,0
347.8397,348.00897,82,67,0
348.00897,348.1788,69,58,0
348.00897,348.1788,81,69,0
348.1788,348.34775,68,60,0
348.1788,348.34775,80,71,0
348.34775,348.51584,65,62,0
348.34775,348.51584,77,73,0
348.51584,348.68307,64,63,0
348.51584,348.68307,76,75,0
348.68307,348.8495,62,65,0
348.68307,348.8495,74,77,0
348.8495,349.015,61,67,0
348.8495,349.015,73,79,0
349.015,349.17972,58,68,0
349.015,349.17972,70,81,0
349.17972,349.35233,57,54,0
349.17972,349.35233,69,64,0
349.35233,349.51874,58,54,0
349.35233,349.51874,70,64,0
349.51874,349.68445,61,55,0
349.51874,349.68445,73,65,0
349.68445,349.8495,62,56,0
349.68445,349.8495,74,66,0
349.8495,350.01382,64,56,0
349.8495,350.01382,76,67,0
350.01382,350.17752,65,57,0
350.01382,350.17752,77,68,0
350.17752,350.3405,68,58,0
350.17752,350.3405,80,69,0
350.3405,350.50293,69,59,0
350.3405,350.50293,81,70,0
350.50293,350.6651,70,61,0
350.50293,350.6651,82,73,0
350.6651,350.82617,73,63,0
350.6651,350.82617,85,74,0
350.82617,350.98724,74,65,0
350.82617,350.98724,86,76,0
350.98724,351.1487,76,66,0
350.98724,351.1487,88,79,0
351.1487,351.31073,77,66,0
351.1487,351.31073,89,79,0
351.31073,351.4731,80,68,0
351.31073,351.4731,92,81,0
351.4731,351.64163,81,71,0
351.4731,351.64163,93,84,0
351.64163,351.81808,82,72,0
351.64163,351.81808,94,86,0
351.81808,351.98126,85,97,0
351.81808,351.98126,97,97,0
352.4704,352.63345,94,83,0
352.4704,352.63345,98,98,0
352.4704,352.63345,86,83,0
352.4704,352.63345,89,83,0
353.1226,353.2856,88,86,0
353.1226,353.2856,100,102,0
353.1226,353.2856,97,86,0
353.1226,353.2856,93,86,0
353.77475,353.9378,89,97,0
353.77475,353.9378,94,97,0
353.77475,353.9378,101,116,0
354.42755,354.5107,57,37,0
354.4324,354.51553,52,37,0
354.4324,354.51553,61,44,0
354.5107,354.5935,64,45,0
354.5935,354.676,57,39,0
354.5935,354.676,52,39,0
354.5935,354.676,61,47,0
354.676,354.75812,64,48,0
354.75812,354.83994,57,41,0
354.75812,354.83994,52,41,0
354.75812,354.83994,61,49,0
354.83994,354.9214,64,50,0
354.9214,355.00253,57,44,0
354.9214,355.00253,52,44,0
354.9214,355.00253,61,52,0
355.00253,355.08334,64,53,0
355.08334,355.16394,57,45,0
355.08804,355.16864,52,45,0
355.08804,355.16864,61,54,0
355.16394,355.2449,64,56,0
355.2449,355.3263,57,46,0
355.2449,355.3263,52,46,0
355.2449,355.3263,61,55,0
355.3263,355.40802,64,53,0
355.40802,355.4901,57,44,0
355.40802,355.4901,52,44,0
355.40802,355.4901,61,52,0
355.4901,355.57263,64,50,0
355.57263,355.65555,57,41,0
355.57263,355.65555,52,41,0
355.57263,355.65555,61,49,0
355.65555,355.7389,64,47,0
355.7709,355.9096,61,85,0
355.7709,355.9096,57,85,0
355.7709,355.9096,52,85,0
356.33633,356.41315,76,79,0
356.33633,356.41315,81,93,0
356.33633,356.41315,69,79,0
356.33633,356.41315,73,79,0
356.4217,356.59238,69,93,0
356.4217,356.59238,81,111,0
356.4217,356.59238,76,93,0
356.4217,356.59238,73,93,0
357.01913,357.09595,88,79,0
357.01913,357.09595,93,93,0
357.01913,357.09595,81,79,0
357.01913,357.09595,85,79,0
357.1045,357.27518,81,93,0
357.1045,357.27518,93,111,0
357.1045,357.27518,88,93,0
357.1045,357.27518,85,93,0
0.2639295,0.351906,28,27,0
0.351906,0.4398825,39,27,0
0.4398825,0.527859,40,27,0
0.527859,0.57184726,52,35,0
0.6158355,0.703812,28,28,0
0.703812,0.79064274,39,28,0
0.79064274,0.8772482,40,28,0
0.8772482,0.92047584,52,35,0
0.96362907,1.0497123,28,27,0
1.0497123,1.1355003,39,27,0
1.1355003,1.2210683,40,27,0
1.2210683,1.2637426,52,35,0
1.3064167,1.3914026,28,27,0
1.3914026,1.4758155,39,27,0
1.4758155,1.5600853,40,27,0
1.5600853,1.6020433,52,35,0
1.6440012,1.727777,28,28,0
1.727777,1.8113426,39,28,0
1.8113426,1.8946298,40,28,0
1.8946298,1.9363431,52,35,0
1.9781258,2.0620418,28,27,0
2.0620418,2.1463828,39,27,0
2.1463828,2.231081,40,27,0
2.231081,2.2735739,52,35,0
2.316212,2.40178,28,28,0
2.40178,2.487494,39,28,0
2.487494,2.5732083,40,28,0
2.5732083,2.6160655,52,35,0
2.6589224,2.7446368,28,27,0
2.7446368,2.830351,39,27,0
2.830351,2.9160652,40,27,0
2.9160652,2.9589224,52,35,0
3.0017796,3.1120737,29,28,0
3.1120737,3.2004387,40,28,0
3.2004387,3.288571,41,28,0
3.288571,3.332559,53,35,0
3.3764703,3.4640615,29,27,0
3.4640615,3.5512707,40,27,0
3.5512707,3.638253,41,27,0
3.638253,3.6816683,53,35,0
3.7250085,3.8114638,29,28,0
3.8114638,3.8968866,40,28,0
3.8968866,3.9815135,41,28,0
3.9815135,4.0235424,53,35,0
4.06543,4.1485796,29,27,0
4.1485796,4.2316594,40,28,0
4.2316594,4.3151555,41,28,0
4.3151555,4.3571134,53,35,0
4.399213,4.483483,29,27,0
4.483483,4.5673985,40,27,0
4.5673985,4.6511045,41,27,0
4.6511045,4.6928873,53,36,0
4.7346,4.817818,29,29,0
4.817818,4.900691,40,29,0
4.900691,4.98384,41,29,0
4.98384,5.025553,53,38,0
5.0673356,5.1511116,29,29,0
5.1511116,5.23524,40,30,0
5.23524,5.3195095,41,31,0
5.3195095,5.3616443,53,39,0
5.404142,5.4902253,29,30,0
5.4902253,5.5763087,40,32,0
5.5763087,5.6627636,41,32,0
5.6627636,5.7059913,53,41,0
5.749219,5.8542333,32,32,0
5.8542333,5.941143,43,32,0
5.941143,6.027227,44,32,0
6.027227,6.0700474,56,43,0
6.112722,6.1975636,32,34,0
6.1975636,6.2819047,43,34,0
6.2819047,6.3661747,44,34,0
6.3661747,6.4084163,56,44,0
6.4507294,6.5353556,32,34,0
6.5353556,6.6200542,43,35,0
6.6200542,6.703275,44,36,0
6.703275,6.7442365,56,46,0
6.785198,6.8687305,32,35,0
6.8687305,6.9526463,43,37,0
6.9526463,7.0368457,44,37,0
7.0368457,7.0790873,56,48,0
7.1214004,7.227034,33,37,0
7.227034,7.31202,44,37,0
7.31202,7.39679,45,37,0
7.39679,7.439103,57,49,0
7.4812737,7.565333,33,39,0
7.565333,7.6484127,44,39,0
7.6484127,7.7310805,45,40,0
7.7310805,7.7721763,57,51,0
7.8132052,7.894794,33,39,0
7.894794,7.9760513,44,41,0
7.9760513,8.05764,45,41,0
8.05764,8.098567,57,53,0
8.139563,8.221822,33,40,0
8.221822,8.304421,44,42,0
8.304421,8.387363,45,42,0
8.387363,8.428972,57,55,0
8.470581,8.577343,34,42,0
8.577343,8.659534,45,42,0
8.659534,8.741726,46,43,0
8.741726,8.782822,58,57,0
8.823917,8.905975,34,45,0
8.905975,8.987497,45,45,0
8.987497,9.06882,46,45,0
9.06882,9.109416,58,58,0
9.150011,9.230874,37,45,0
9.230874,9.311802,48,46,0
9.311802,9.392993,49,47,0
9.392993,9.433588,61,60,0
9.474183,9.555708,37,46,0
9.555708,9.636833,48,48,0
9.636833,9.717566,49,48,0
9.717566,9.757801,61,62,0
9.797909,9.877738,38,47,0
9.877738,9.957188,49,48,0
9.957188,10.036261,50,48,0
10.036261,10.075985,62,63,0
10.1159,10.196178,38,50,0
10.196178,10.276977,49,50,0
10.276977,10.357384,50,51,0
10.357384,10.397459,62,65,0
10.437406,10.517045,39,50,0
10.517045,10.596368,50,52,0
10.596368,10.676071,51,52,0
10.676071,10.71605,63,67,0
10.756157,10.836629,39,51,0
10.836629,10.917438,50,53,0
10.917438,10.9983,51,53,0
10.9983,11.0385685,63,68,0
11.078837,11.15918,40,52,0
11.15918,11.239394,51,53,0
11.239394,11.319287,52,53,0
11.319287,11.359202,64,70,0
11.398991,11.478503,41,55,0
11.478503,11.557763,52,56,0
11.557763,11.636835,53,56,0
11.636835,11.676309,65,72,0
11.715721,11.794357,44,55,0
11.794357,11.872748,55,57,0
11.872748,11.951571,56,57,0
11.951571,11.991046,68,73,0
12.0305195,12.109405,45,56,0
12.109405,12.18852,56,58,0
12.18852,12.2674675,57,59,0
12.2674675,12.306942,69,75,0
12.3464155,12.425348,46,58,0
12.425348,12.503177,57,58,0
12.503177,12.580551,58,58,0
12.580551,12.619052,70,77,0
12.657762,12.736169,49,61,0
12.736169,12.814333,60,61,0
12.814333,12.89141,61,62,0
12.89141,12.929822,73,79,0
12.968279,13.045729,50,60,0
13.045729,13.123526,61,63,0
13.123526,13.200662,62,63,0
13.200662,13.238986,74,81,0
13.277062,13.353301,51,62,0
13.353301,13.430259,62,64,0
13.430259,13.507769,63,64,0
13.507769,13.546479,75,82,0
13.585039,13.66216,52,63,0
13.66216,13.738999,63,65,0
13.738999,13.8158245,64,66,0
13.8158245,13.866757,76,84,0
14.01576,14.098565,53,56,0
14.01576,14.098565,41,56,0
14.181028,14.263085,56,58,0
14.181028,14.263085,44,58,0
14.344808,14.42613,57,59,0
14.344808,14.42613,45,59,0
14.507124,14.587791,58,61,0
14.507124,14.587791,46,61,0
14.66807,14.748028,61,63,0
14.66807,14.748028,49,63,0
14.827603,14.906863,62,64,0
14.827603,14.906863,50,64,0
14.985748,15.064323,63,66,0
14.985748,15.064323,51,66,0
15.14253,15.220433,64,68,0
15.14253,15.220433,52,68,0
15.298033,15.375273,65,69,0
15.298033,15.375273,53,69,0
15.452216,15.528805,56,71,0
15.452216,15.528805,68,71,0
15.605103,15.681051,69,73,0
15.605103,15.681051,57,73,0
15.757001,15.832951,58,74,0
15.757001,15.832951,70,74,0
15.908899,15.984849,73,76,0
15.908899,15.984849,61,76,0
16.060799,16.136747,74,78,0
16.060799,16.136747,62,78,0
16.212696,16.288645,75,79,0
16.212696,16.288645,63,79,0
16.364595,16.440544,76,81,0
16.364595,16.440544,64,81,0
16.516493,16.592443,77,83,0
16.516493,16.592443,65,83,0
18.502007,18.701674,50,55,0
18.502007,18.701674,53,65,0
18.502007,18.701674,41,55,0
18.502007,18.701674,47,55,0
18.90134,19.099035,48,59,0
18.90134,19.099035,51,70,0
18.90134,19.099035,39,59,0
18.90134,19.099035,45,59,0
19.690409,19.886168,45,58,0
19.690409,19.886168,49,69,0
19.690409,19.886168,37,58,0
19.690409,19.886168,42,58,0
20.476627,20.576462,45,58,0
20.476627,20.576462,48,69,0
20.476627,20.576462,36,58,0
20.476627,20.576462,42,58,0
21.273314,21.468119,39,58,0
21.273314,21.468119,42,69,0
21.273314,21.468119,47,69,0
21.273314,21.468119,35,58,0
22.052532,22.247337,42,50,0
22.052532,22.247337,45,59,0
22.052532,22.247337,33,50,0
22.052532,22.247337,37,50,0
22.82889,23.033669,39,54,0
22.82889,23.033669,44,64,0
22.82889,23.033669,32,54,0
22.82889,23.033669,36,54,0
23.648003,23.841864,39,52,0
23.648003,23.841864,43,62,0
23.648003,23.841864,31,52,0
23.648003,23.841864,36,52,0
24.431595,25.042799,39,55,0
24.431595,25.042799,42,66,0
24.431595,25.042799,30,55,0
24.431595,25.042799,36,55,0
25.042799,25.140202,36,46,0
25.042799,25.140202,48,51,0
25.237604,25.42081,35,48,0
25.237604,25.42081,47,58,0
25.42081,25.567375,33,40,0
25.42081,25.567375,45,49,0
25.604017,25.696466,31,40,0
25.604017,25.696466,43,49,0
25.788916,25.88538,35,40,0
25.788916,25.88538,47,49,0
25.981842,26.165049,33,48,0
25.981842,26.165049,45,58,0
26.165049,26.311613,31,42,0
26.165049,26.311613,43,50,0
26.348255,26.441133,29,42,0
26.348255,26.441133,41,50,0
26.534014,26.630013,33,42,0
26.534014,26.630013,45,50,0
26.726013,26.907557,31,52,0
26.726013,26.907557,43,60,0
26.907557,27.05279,29,42,0
26.907557,27.05279,41,50,0
27.0891,27.180702,28,42,0
27.0891,27.180702,40,50,0
27.272305,27.368305,31,42,0
27.272305,27.368305,43,50,0
27.464306,27.645847,29,52,0
27.464306,27.645847,41,63,0
27.645847,27.791082,28,42,0
27.645847,27.791082,40,50,0
27.82739,27.919842,27,42,0
27.82739,27.919842,39,50,0
28.012291,28.108292,29,42,0
28.012291,28.108292,41,50,0
28.20429,28.390917,29,52,0
28.20429,28.390917,41,60,0
28.390917,28.540216,28,42,0
28.390917,28.540216,40,50,0
28.577541,28.672178,28,42,0
28.577541,28.672178,40,50,0
28.766815,28.867655,27,42,0
28.766815,28.867655,39,50,0
28.968496,29.161423,29,53,0
28.968496,29.161423,41,64,0
29.161423,29.315763,28,42,0
29.161423,29.315763,40,50,0
29.354347,29.450811,28,42,0
29.354347,29.450811,40,50,0
29.547274,29.652353,27,42,0
29.547274,29.652353,39,50,0
29.757431,30.532875,28,52,0
29.757431,30.532875,40,61,0
30.532875,30.726736,40,50,0
30.532875,30.726736,52,59,0
30.532875,30.726736,47,50,0
30.532875,30.726736,44,50,0
30.920597,31.049839,52,70,0
31.049839,31.17908,54,74,0
31.17908,31.30832,56,78,0
31.30832,31.499403,45,61,0
31.30832,31.499403,57,73,0
31.690485,31.783365,41,49,0
31.690485,31.783365,53,58,0
32.072002,32.263084,45,61,0
32.072002,32.263084,57,73,0
32.45417,32.54662,40,49,0
32.45417,32.54662,52,58,0
32.83676,32.938114,45,61,0
32.83676,32.938114,57,73,0
33.240635,33.338993,41,51,0
33.240635,33.338993,38,51,0
33.240635,33.338993,50,60,0
34.315895,34.364597,36,55,0
34.364597,34.413296,48,65,0
33.634075,34.413296,52,61,0
33.634075,34.413296,45,61,0
33.634075,34.413296,57,73,0
34.413296,35.075764,65,55,0
34.413296,35.075764,69,65,0
34.413296,35.075764,57,55,0
34.413296,35.075764,60,55,0
35.075764,35.12568,36,60,0
35.12568,35.175594,48,61,0
35.175594,35.87443,67,63,0
35.175594,35.87443,72,75,0
35.175594,35.87443,60,63,0
35.175594,35.87443,64,63,0
35.87443,35.924347,33,58,0
35.924347,35.974262,45,58,0
35.974262,36.640385,57,52,0
35.974262,36.640385,65,62,0
35.974262,36.640385,53,52,0
35.974262,36.640385,62,52,0
36.640385,36.690304,33,60,0
36.690304,36.74022,45,61,0
36.74022,37.530304,64,57,0
36.74022,37.530304,69,68,0
36.74022,37.530304,57,57,0
36.74022,37.530304,60,57,0
37.530304,37.71606,35,58,0
37.530304,37.71606,47,69,0
37.896786,37.984375,64,50,0
37.896786,37.984375,59,50,0
37.896786,37.984375,68,59,0
38.256866,38.442627,47,66,0
38.620934,38.707764,61,52,0
38.620934,38.707764,66,52,0
38.620934,38.707764,69,61,0
38.979492,39.1586,47,66,0
39.337704,39.42568,59,49,0
39.337704,39.42568,64,49,0
39.337704,39.42568,68,58,0
39.70293,39.88284,47,66,0
40.06275,40.15151,57,47,0
40.06275,40.15151,63,47,0
40.06275,40.15151,66,56,0
40.427765,40.60931,52,55,0
40.427765,40.60931,64,66,0
40.427765,40.60931,59,55,0
40.427765,40.60931,56,55,0
40.786037,40.878918,57,47,0
40.786037,40.878918,60,47,0
40.786037,40.878918,66,56,0
41.165657,41.348866,52,54,0
41.165657,41.348866,64,65,0
41.165657,41.348866,59,54,0
41.165657,41.348866,56,54,0
41.53549,41.62968,57,49,0
41.53549,41.62968,60,49,0
41.53549,41.62968,66,58,0
41.925552,42.700996,52,58,0
41.925552,42.700996,64,69,0
41.925552,42.700996,59,58,0
41.925552,42.700996,56,58,0
42.700996,42.89486,47,56,0
42.700996,42.89486,52,67,0
42.700996,42.89486,40,56,0
42.700996,42.89486,44,56,0
44.23354,44.4274,61,69,0
45.008984,46.440678,56,69,0
46.440678,46.534428,49,49,0
46.440678,46.534428,61,60,0
46.534428,47.190678,56,67,0
47.190678,47.284428,49,50,0
47.190678,47.284428,61,61,0
47.284428,47.940678,56,68,0
47.940678,48.034428,49,51,0
47.940678,48.034428,61,61,0
48.034428,48.2246,44,70,0
48.034428,48.2246,56,85,0
48.414776,48.605858,43,70,0
48.414776,48.605858,55,85,0
48.79649,48.990673,42,70,0
48.79649,48.990673,54,85,0
49.191517,49.399536,41,70,0
49.191517,49.399536,53,85,0
49.61332,49.76612,40,73,0
49.61332,49.76612,52,89,0
51.19555,51.36338,57,40,0
51.307438,51.419323,69,29,0
51.419323,51.53121,71,31,0
51.53121,51.64501,72,32,0
51.64501,51.76412,71,33,0
51.76412,51.888535,69,32,0
51.888535,52.056366,55,40,0
52.000423,52.112312,67,32,0
52.112312,52.224197,69,33,0
52.224197,52.338486,71,34,0
52.338486,52.457836,69,34,0
52.457836,52.582253,67,31,0
52.582253,52.750084,53,40,0
52.69414,52.806026,65,31,0
52.806026,52.917915,67,33,0
52.917915,53.034195,69,34,0
53.034195,53.154255,67,34,0
53.154255,53.27809,65,32,0
53.27809,53.446632,52,40,0
53.390453,53.50281,64,31,0
53.50281,53.615173,65,32,0
53.615173,53.730946,68,33,0
53.730946,53.850468,65,32,0
53.850468,53.973732,64,30,0
53.973732,54.142273,50,40,0
54.086094,54.198452,62,30,0
54.198452,54.310814,64,31,0
54.310814,54.4276,65,32,0
54.4276,54.550304,62,32,0
54.550304,54.67892,60,30,0
54.67892,54.846054,59,43,0
54.846054,55.013184,64,40,0
54.67892,55.013184,52,43,0
55.013184,55.186092,59,45,0
55.186092,55.36361,64,40,0
55.36361,55.53144,59,43,0
55.53144,55.699272,64,40,0
55.36361,55.699272,52,43,0
55.699272,55.875225,59,45,0
55.875225,56.055138,64,40,0
56.055138,56.22297,59,43,0
56.22297,56.306885,64,40,0
56.055138,56.3908,52,43,0
56.3908,56.56371,59,45,0
56.56371,56.652863,64,40,0
56.3908,56.742016,52,43,0
56.742016,56.83101,52,47,0
56.742016,56.83101,59,56,0
57.09182,57.17574,59,51,0
57.09182,57.17574,64,60,0
57.09182,57.17574,52,51,0
57.09182,57.17574,56,51,0
57.43035,57.51357,52,57,0
57.43035,57.51357,56,68,0
57.43035,57.51357,59,68,0
57.43035,57.51357,47,57,0
57.768215,57.85658,52,63,0
57.768215,57.85658,56,75,0
57.768215,57.85658,44,63,0
57.768215,57.85658,47,63,0
58.121677,58.838093,40,60,0
58.121677,58.838093,47,60,0
58.121677,58.838093,44,60,0
58.121677,58.838093,52,70,0
58.838093,59.017197,52,62,0
58.838093,59.017197,64,74,0
58.838093,59.017197,59,62,0
58.838093,59.017197,56,62,0
59.196304,59.307724,52,67,0
59.307724,59.419144,54,71,0
59.419144,59.530563,56,75,0
59.530563,59.704983,45,59,0
59.530563,59.704983,57,70,0
59.879402,59.961933,41,47,0
59.879402,59.961933,53,56,0
60.218124,60.388096,45,59,0
60.218124,60.388096,57,70,0
60.558067,60.63959,40,47,0
60.558067,60.63959,52,56,0
60.894024,60.985626,45,59,0
60.894024,60.985626,57,70,0
61.260433,61.349586,41,51,0
61.260433,61.349586,38,51,0
61.260433,61.349586,50,61,0
61.617046,62.34653,52,59,0
61.617046,62.34653,45,59,0
61.617046,62.34653,57,70,0
62.67802,62.763737,57,63,0
62.67802,62.763737,69,75,0
62.84945,62.935905,59,67,0
62.84945,62.935905,71,79,0
63.02236,63.511097,60,72,0
63.02236,63.511097,72,86,0
63.511097,63.595364,59,62,0
63.511097,63.595364,71,74,0
63.679634,64.18003,57,73,0
63.679634,64.18003,69,87,0
64.18003,64.2643,55,63,0
64.18003,64.2643,67,75,0
64.34857,64.844666,53,74,0
64.34857,64.844666,65,88,0
64.844666,64.93188,64,75,0
64.844666,64.93188,52,75,0
65.01909,65.18763,50,59,0
65.01909,65.18763,62,70,0
65.35616,65.43703,46,47,0
65.35616,65.43703,58,56,0
65.69155,65.86009,50,59,0
65.69155,65.86009,62,70,0
66.02863,66.109825,45,47,0
66.02863,66.109825,57,56,0
66.371735,66.4601,50,59,0
66.371735,66.4601,62,70,0
66.7252,66.814354,46,51,0
66.7252,66.814354,43,51,0
66.7252,66.814354,55,61,0
67.08181,67.81801,57,61,0
67.08181,67.81801,50,61,0
67.08181,67.81801,62,73,0
68.15227,68.23835,62,63,0
68.15227,68.23835,74,75,0
68.32443,68.41089,64,67,0
68.32443,68.41089,76,79,0
68.497345,68.99129,65,69,0
68.497345,68.99129,77,82,0
68.99129,69.07774,64,62,0
68.99129,69.07774,76,74,0
69.1642,69.66516,62,70,0
69.1642,69.66516,74,83,0
69.66516,69.75051,60,63,0
69.66516,69.75051,72,75,0
69.83586,70.338806,59,71,0
69.83586,70.338806,71,84,0
70.338806,70.42526,57,59,0
70.338806,70.42526,69,70,0
70.51172,70.59459,56,61,0
70.51172,70.59459,68,72,0
70.67746,70.76034,59,65,0
70.67746,70.76034,71,77,0
70.84321,71.00494,64,68,0
70.84321,71.00494,76,81,0
71.1786,71.87324,47,59,0
71.1786,71.87324,52,70,0
71.1786,71.87324,40,59,0
71.1786,71.87324,44,59,0
71.87324,71.956116,57,64,0
71.87324,71.956116,69,75,0
72.03899,72.12186,60,68,0
72.03899,72.12186,72,80,0
72.204735,72.36581,64,71,0
72.204735,72.36581,76,85,0
72.54022,73.2379,48,59,0
72.54022,73.2379,52,70,0
72.54022,73.2379,40,59,0
72.54022,73.2379,45,59,0
73.2379,73.54758,65,85,0
73.54758,73.62844,64,73,0
73.89251,73.976425,44,62,0
73.89251,73.976425,47,73,0
74.06034,74.14426,50,66,0
74.22817,74.31209,44,62,0
74.22817,74.31209,47,73,0
74.396,74.484764,50,64,0
74.57352,74.883194,65,85,0
74.883194,74.96214,64,73,0
75.22019,75.30273,45,73,0
75.385254,75.46779,48,66,0
75.550316,75.63285,45,73,0
75.71538,75.80414,48,64,0
75.89132,76.06954,71,51,0
75.89132,76.06954,68,51,0
75.89132,76.06954,77,60,0
75.89132,76.06954,65,51,0
76.05331,76.23259,64,51,0
76.05331,76.23259,76,60,0
76.21622,76.39664,74,58,0
76.21622,76.39664,62,49,0
76.380196,76.5617,72,58,0
76.380196,76.5617,60,49,0
76.54512,76.72779,71,56,0
76.54512,76.72779,59,47,0
76.71114,76.89492,69,56,0
76.71114,76.89492,57,47,0
76.878136,77.0631,68,55,0
76.878136,77.0631,56,46,0
77.04625,77.231476,64,53,0
77.04625,77.231476,52,45,0
77.215034,77.396416,56,50,0
77.215034,77.396416,65,59,0
77.215034,77.396416,53,50,0
77.215034,77.396416,59,50,0
77.37984,77.56272,52,49,0
77.37984,77.56272,64,58,0
77.54601,77.73043,62,56,0
77.54601,77.73043,50,47,0
77.71358,77.899284,60,55,0
77.71358,77.899284,48,46,0
77.8825,78.06842,59,53,0
77.8825,78.06842,47,45,0
78.051384,78.24047,57,51,0
78.051384,78.24047,45,43,0
78.22314,78.41518,56,50,0
78.22314,78.41518,44,42,0
78.39758,78.574486,52,48,0
78.39758,78.574486,40,40,0
78.574486,78.74591,45,55,0
78.574486,78.74591,57,65,0
78.74591,78.83163,48,50,0
78.74591,78.83163,60,59,0
78.91734,79.08877,44,56,0
78.91734,79.08877,56,66,0
79.08877,79.17713,47,51,0
79.08877,79.17713,59,60,0
79.265495,79.436195,52,55,0
79.265495,79.436195,57,65,0
79.265495,79.436195,45,55,0
79.265495,79.436195,48,55,0
79.606895,79.77759,47,55,0
79.606895,79.77759,52,65,0
79.606895,79.77759,40,55,0
79.606895,79.77759,44,55,0
79.9551,80.13421,52,61,0
79.9551,80.13421,57,73,0
79.9551,80.13421,45,61,0
79.9551,80.13421,48,61,0
80.671524,80.850624,45,61,0
80.671524,80.850624,50,74,0
80.671524,80.850624,38,61,0
80.671524,80.850624,41,61,0
81.38794,82.104355,40,64,0
81.38794,82.104355,45,76,0
81.38794,82.104355,33,64,0
81.38794,82.104355,36,64,0
83.60739,83.80125,61,69,0
84.38283,85.81452,56,69,0
85.81452,85.90827,49,49,0
85.81452,85.90827,61,59,0
85.90827,86.56452,56,66,0
86.56452,86.65827,49,50,0
86.56452,86.65827,61,60,0
86.65827,87.31452,56,68,0
87.31452,87.40827,49,51,0
87.31452,87.40827,61,61,0
87.40827,87.59845,44,70,0
87.40827,87.59845,56,83,0
87.78863,87.979706,43,70,0
87.78863,87.979706,55,83,0
88.17034,88.36452,42,70,0
88.17034,88.36452,54,83,0
88.56537,88.773384,41,70,0
88.56537,88.773384,53,83,0
88.98717,89.13997,40,64,0
88.98717,89.13997,52,77,0
90.5694,90.73723,57,40,0
90.68128,90.793175,69,29,0
90.793175,90.90506,71,31,0
90.90506,91.01886,72,32,0
91.01886,91.13797,71,33,0
91.13797,91.26238,69,32,0
91.26238,91.430214,55,40,0
91.37427,91.48616,67,32,0
91.48616,91.598045,69,33,0
91.598045,91.71233,71,34,0
91.71233,91.83169,69,34,0
91.83169,91.9561,67,31,0
91.9561,92.12393,53,40,0
92.067986,92.17988,65,31,0
92.17988,92.29176,67,33,0
92.29176,92.40804,69,34,0
92.40804,92.5281,67,34,0
92.5281,92.65194,65,32,0
92.65194,92.82048,52,40,0
92.764305,92.87666,64,31,0
92.87666,92.98902,65,32,0
92.98902,93.1048,68,33,0
93.1048,93.22432,65,32,0
93.22432,93.34758,64,30,0
93.34758,93.51612,50,40,0
93.459946,93.5723,62,30,0
93.5723,93.68466,64,31,0
93.68466,93.80145,65,32,0
93.80145,93.92416,62,32,0
93.92416,94.05277,60,30,0
94.05277,94.2199,59,43,0
94.2199,94.38703,64,40,0
94.05277,94.38703,52,43,0
94.38703,94.559944,59,45,0
94.559944,94.73746,64,40,0
94.73746,94.90529,59,43,0
94.90529,95.07312,64,40,0
94.73746,95.07312,52,43,0
95.07312,95.24908,59,45,0
95.24908,95.428986,64,40,0
95.428986,95.59682,59,43,0
95.59682,95.68073,64,40,0
95.428986,95.76465,52,43,0
95.76465,95.93756,59,45,0
95.93756,96.02671,64,40,0
95.76465,96.11587,52,43,0
96.11587,96.20486,52,47,0
96.11587,96.20486,59,56,0
96.46567,96.54958,59,51,0
96.46567,96.54958,64,60,0
96.46567,96.54958,52,51,0
96.46567,96.54958,56,51,0
96.8042,96.88742,52,57,0
96.8042,96.88742,56,68,0
96.8042,96.88742,59,68,0
96.8042,96.88742,47,57,0
97.14207,97.23043,52,63,0
97.14207,97.23043,56,75,0
97.14207,97.23043,44,63,0
97.14207,97.23043,47,63,0
97.49552,98.211945,40,60,0
97.49552,98.211945,47,60,0
97.49552,98.211945,44,60,0
97.49552,98.211945,52,70,0
98.211945,98.391045,52,62,0
98.211945,98.391045,64,74,0
98.211945,98.391045,59,62,0
98.211945,98.391045,56,62,0
98.57015,98.68157,52,67,0
98.68157,98.79299,54,71,0
98.79299,98.90441,56,75,0
98.90441,99.078835,45,59,0
98.90441,99.078835,57,70,0
99.25325,99.335785,41,47,0
99.25325,99.335785,53,56,0
99.59197,99.76195,45,59,0
99.59197,99.76195,57,70,0
99.931915,100.013435,40,47,0
99.931915,100.013435,52,56,0
100.26787,100.359474,45,59,0
100.26787,100.359474,57,70,0
100.634285,100.723434,41,51,0
100.634285,100.723434,38,51,0
100.634285,100.723434,50,61,0
100.9909,101.720375,52,59,0
100.9909,101.720375,45,59,0
100.9909,101.720375,57,70,0
102.05187,102.13759,57,63,0
102.05187,102.13759,69,75,0
102.2233,102.30975,59,67,0
102.2233,102.30975,71,79,0
102.39621,102.88494,60,72,0
102.39621,102.88494,72,86,0
102.88494,102.969215,59,62,0
102.88494,102.969215,71,74,0
103.05348,103.55388,57,73,0
103.05348,103.55388,69,87,0
103.55388,103.638145,55,63,0
103.55388,103.638145,67,75,0
103.72242,104.21851,53,74,0
103.72242,104.21851,65,88,0
104.21851,104.305725,64,75,0
104.21851,104.305725,52,75,0
104.39294,104.56148,50,59,0
104.39294,104.56148,62,70,0
104.73001,104.810875,46,47,0
104.73001,104.810875,58,56,0
105.0654,105.23394,50,59,0
105.0654,105.23394,62,70,0
105.40248,105.48367,45,47,0
105.40248,105.48367,57,56,0
105.74558,105.83395,50,59,0
105.74558,105.83395,62,70,0
106.099045,106.1882,46,47,0
106.099045,106.1882,43,47,0
106.099045,106.1882,55,56,0
106.45566,107.19186,57,61,0
106.45566,107.19186,50,61,0
106.45566,107.19186,62,73,0
107.526115,107.6122,62,63,0
107.526115,107.6122,74,75,0
107.69828,107.78474,64,67,0
107.69828,107.78474,76,79,0
107.87119,108.365135,65,69,0
107.87119,108.365135,77,82,0
108.365135,108.45159,64,62,0
108.365135,108.45159,76,74,0
108.53805,109.03901,62,70,0
108.53805,109.03901,74,83,0
109.03901,109.12436,60,63,0
109.03901,109.12436,72,75,0
109.20971,109.712654,59,71,0
109.20971,109.712654,71,84,0
109.712654,109.79911,57,59,0
109.712654,109.79911,69,70,0
109.88557,109.96844,56,61,0
109.88557,109.96844,68,72,0
110.05131,110.134186,59,65,0
110.05131,110.134186,71,77,0
110.21706,110.378784,64,68,0
110.21706,110.378784,76,81,0
110.552444,111.247086,47,59,0
110.552444,111.247086,52,70,0
110.552444,111.247086,40,59,0
110.552444,111.247086,44,59,0
111.247086,111.32996,57,61,0
111.247086,111.32996,69,72,0
111.412834,111.495705,60,65,0
111.412834,111.495705,72,77,0
111.57858,111.739655,64,68,0
111.57858,111.739655,76,81,0
111.91407,112.61175,48,59,0
111.91407,112.61175,52,70,0
111.91407,112.61175,40,59,0
111.91407,112.61175,45,59,0
112.61175,112.921425,65,85,0
112.921425,113.00229,64,73,0
113.26636,113.35027,44,62,0
113.26636,113.35027,47,73,0
113.43419,113.518105,50,66,0
113.60202,113.685936,44,62,0
113.60202,113.685936,47,73,0
113.76985,113.85861,50,64,0
113.947365,114.25704,65,85,0
114.25704,114.33599,64,73,0
114.59404,114.676575,45,73,0
114.7591,114.84164,48,66,0
114.924164,115.0067,45,73,0
115.089226,115.177986,48,64,0
115.26517,115.44339,71,51,0
115.26517,115.44339,68,51,0
115.26517,115.44339,77,60,0
115.26517,115.44339,65,51,0
115.427155,115.60644,64,51,0
115.427155,115.60644,76,60,0
115.590065,115.770485,74,58,0
115.590065,115.770485,62,49,0
115.75404,115.93555,72,58,0
115.75404,115.93555,60,49,0
115.91897,116.10164,71,56,0
115.91897,116.10164,59,47,0
116.08499,116.26877,69,56,0
116.08499,116.26877,57,47,0
116.25198,116.43695,68,55,0
116.25198,116.43695,56,46,0
116.4201,116.60532,64,53,0
116.4201,116.60532,52,45,0
116.58888,116.77026,56,50,0
116.58888,116.77026,65,59,0
116.58888,116.77026,53,50,0
116.58888,116.77026,59,50,0
116.753685,116.93657,52,49,0
116.753685,116.93657,64,58,0
116.91986,117.10428,62,56,0
116.91986,117.10428,50,47,0
117.087425,117.27313,60,55,0
117.087425,117.27313,48,46,0
117.25635,117.44227,59,53,0
117.25635,117.44227,47,45,0
117.42523,117.61432,57,51,0
117.42523,117.61432,45,43,0
117.596985,117.789024,56,50,0
117.596985,117.789024,44,42,0
117.77143,117.94833,52,48,0
117.77143,117.94833,40,40,0
117.94833,118.11976,45,55,0
117.94833,118.11976,57,65,0
118.11976,118.205475,48,50,0
118.11976,118.205475,60,59,0
118.29119,118.462616,44,56,0
118.29119,118.462616,56,66,0
118.462616,118.55098,47,51,0
118.462616,118.55098,59,60,0
118.63935,118.81004,52,55,0
118.63935,118.81004,57,65,0
118.63935,118.81004,45,55,0
118.63935,118.81004,48,55,0
118.98074,119.151436,47,55,0
118.98074,119.151436,52,65,0
118.98074,119.151436,40,55,0
118.98074,119.151436,44,55,0
119.32896,119.50806,52,61,0
119.32896,119.50806,57,73,0
119.32896,119.50806,45,61,0
119.32896,119.50806,48,61,0
120.04537,120.22447,45,61,0
120.04537,120.22447,50,74,0
120.04537,120.22447,38,61,0
120.04537,120.22447,41,61,0
120.76179,121.47821,40,64,0
120.76179,121.47821,45,76,0
120.76179,121.47821,33,64,0
120.76179,121.47821,36,64,0
122.55226,122.72821,61,34,0
122.72821,122.91311,64,34,0
122.55226,122.91311,52,34,0
122.91311,123.00266,45,41,0
123.98798,124.16393,61,41,0
124.16393,124.34884,64,41,0
123.98798,124.34884,52,41,0
124.34884,124.438385,45,49,0
124.70705,124.87558,65,28,0
124.70705,124.87558,61,28,0
124.70705,124.87558,71,34,0
125.05,125.218544,66,33,0
125.05,125.218544,69,39,0
125.39449,125.56519,68,30,0
125.39449,125.56519,61,30,0
125.39449,125.56519,71,36,0
125.7435,125.915665,66,34,0
125.7435,125.915665,69,41,0
126.09239,126.265305,68,31,0
126.09239,126.265305,61,31,0
126.09239,126.265305,71,37,0
126.44126,126.61492,66,34,0
126.44126,126.61492,69,40,0
126.78858,126.96453,57,41,0
126.96453,127.14944,61,41,0
127.14944,127.23898,54,49,0
127.507645,127.676895,73,28,0
127.507645,127.676895,69,28,0
127.507645,127.676895,79,34,0
127.85131,128.02057,74,33,0
127.85131,128.02057,78,39,0
128.19652,128.36868,76,30,0
128.19652,128.36868,69,30,0
128.19652,128.36868,79,36,0
128.547,128.71916,74,34,0
128.547,128.71916,78,41,0
128.89589,129.0688,76,31,0
128.89589,129.0688,69,31,0
128.89589,129.0688,79,37,0
129.24475,129.41841,74,34,0
129.24475,129.41841,78,40,0
129.59207,129.76804,66,41,0
129.76804,129.95293,69,41,0
129.95293,130.04248,62,49,0
131.02698,131.20293,62,34,0
131.20293,131.38783,66,34,0
131.02698,131.38783,54,34,0
131.38783,131.47739,47,41,0
132.4627,132.63866,62,41,0
132.63866,132.82356,66,41,0
132.4627,132.82356,54,41,0
132.82356,132.91312,47,49,0
133.5353,133.87965,52,41,0
133.87965,133.96648,61,30,0
133.87965,133.96648,64,30,0
133.87965,133.96648,69,36,0
134.23651,134.58537,64,41,0
134.58537,134.67336,71,30,0
134.58537,134.67336,76,30,0
134.58537,134.67336,80,36,0
134.9437,135.0313,76,34,0
134.9437,135.0313,69,34,0
134.9437,135.0313,81,41,0
135.29407,135.38165,76,31,0
135.29407,135.38165,80,37,0
135.64444,135.73203,76,34,0
135.64444,135.73203,69,34,0
135.64444,135.73203,81,41,0
135.9948,136.12619,61,41,0
136.16998,136.30801,64,41,0
136.71065,136.88206,52,30,0
136.71065,136.88206,45,22,0
136.35403,137.06697,57,41,0
137.06697,137.24608,52,30,0
137.06697,137.24608,45,22,0
137.42517,137.55656,61,41,0
137.60036,137.7384,64,41,0
138.14102,138.31172,52,30,0
138.14102,138.31172,45,22,0
137.78441,138.49661,57,41,0
138.49661,138.67572,52,30,0
138.49661,138.67572,45,22,0
138.85483,139.03156,65,28,0
138.85483,139.03156,61,28,0
138.85483,139.03156,71,34,0
139.20598,139.37741,66,33,0
139.20598,139.37741,69,39,0
139.55336,139.72552,68,30,0
139.55336,139.72552,61,30,0
139.55336,139.72552,71,36,0
139.90382,140.076,66,34,0
139.90382,140.076,69,41,0
140.25273,140.42564,68,31,0
140.25273,140.42564,61,31,0
140.25273,140.42564,71,37,0
140.6016,140.68842,66,34,0
140.6016,140.68842,69,40,0
141.66797,141.84471,73,28,0
141.66797,141.84471,69,28,0
141.66797,141.84471,79,34,0
142.01912,142.19055,74,33,0
142.01912,142.19055,78,39,0
142.3665,142.53867,76,30,0
142.3665,142.53867,69,30,0
142.3665,142.53867,79,36,0
142.71698,142.88914,74,34,0
142.71698,142.88914,78,41,0
143.06587,143.23878,76,31,0
143.06587,143.23878,69,31,0
143.06587,143.23878,79,37,0
143.41473,143.50157,74,34,0
143.41473,143.50157,78,40,0
144.48112,144.61252,62,41,0
144.65631,144.79434,66,41,0
145.19698,145.3684,54,30,0
145.19698,145.3684,47,22,0
144.84036,145.5533,59,41,0
145.5533,145.7324,54,30,0
145.5533,145.7324,47,22,0
145.9115,146.0429,62,41,0
146.08669,146.22473,66,41,0
146.62735,146.79951,54,30,0
146.62735,146.79951,47,22,0
146.27074,146.98442,59,41,0
146.98442,147.16351,54,30,0
146.98442,147.16351,47,22,0
147.69615,147.78336,52,41,0
147.69615,147.78336,40,36,0
148.04498,148.13219,57,30,0
148.04498,148.13219,61,30,0
148.04498,148.13219,64,36,0
148.4026,148.49059,52,41,0
148.75452,148.8425,59,30,0
148.75452,148.8425,64,30,0
148.75452,148.8425,68,36,0
149.11284,149.20042,64,34,0
149.11284,149.20042,61,34,0
149.11284,149.20042,69,41,0
149.11284,149.20042,57,34,0
149.46321,149.5508,64,31,0
149.46321,149.5508,68,37,0
149.81357,149.9121,64,34,0
149.81357,149.9121,61,34,0
149.81357,149.9121,69,41,0
149.81357,149.9121,57,34,0
150.20766,150.34198,33,58,0
150.20766,150.34198,45,69,0
150.56587,150.7002,32,62,0
150.56587,150.7002,44,74,0
150.92407,151.05841,29,58,0
150.92407,151.05841,41,69,0
151.28229,151.41661,28,62,0
151.28229,151.41661,40,74,0
151.64049,151.77982,26,58,0
151.64049,151.77982,38,69,0
152.01201,152.55174,25,65,0
152.01201,152.55174,37,79,0
152.55174,152.73164,26,58,0
152.55174,152.73164,38,69,0
152.73164,152.91655,28,66,0
152.73164,152.91655,40,80,0
153.28136,153.37132,33,60,0
153.28136,153.37132,45,73,0
153.46127,154.001,28,66,0
153.46127,154.001,40,80,0
154.001,154.09096,33,58,0
154.001,154.09096,45,69,0
154.18091,154.72478,28,65,0
154.18091,154.72478,40,78,0
154.72478,154.8168,33,47,0
154.72478,154.8168,45,56,0
154.90883,155.00085,28,51,0
154.90883,155.00085,40,60,0
155.09288,155.18164,25,45,0
155.09288,155.18164,37,53,0
155.27039,155.35915,33,45,0
155.27039,155.35915,21,45,0
155.4479,155.53667,25,45,0
155.4479,155.53667,37,53,0
155.62543,155.71419,28,42,0
155.62543,155.71419,40,50,0
155.80293,155.8917,25,45,0
155.80293,155.8917,37,53,0
155.98045,156.07164,28,47,0
155.98045,156.07164,40,56,0
156.16283,156.25746,33,50,0
156.16283,156.25746,45,59,0
156.3521,157.10919,28,53,0
156.3521,157.10919,40,63,0
157.10919,157.20613,33,49,0
157.10919,157.20613,45,58,0
157.49692,157.688,57,58,0
157.47269,157.688,48,51,0
157.44846,157.688,41,47,0
157.87909,158.06659,55,58,0
157.8552,158.06659,48,48,0
157.83131,158.06659,40,46,0
158.2595,158.44789,57,54,0
158.2354,158.44789,48,51,0
158.21127,158.44789,41,47,0
158.6399,158.82916,60,56,0
158.61589,158.82916,52,55,0
158.59189,158.82916,43,52,0
159.02303,159.21231,59,51,0
158.9988,159.21231,53,47,0
158.97456,159.21231,43,45,0
159.40527,159.59836,60,59,0
159.38112,159.59836,55,1,0
159.357,159.59836,48,45,0
159.78925,159.88377,64,45,0
159.88377,159.97778,67,46,0
159.97778,160.07127,72,47,0
160.07127,160.16423,74,49,0
160.16423,160.25668,76,49,0
160.53403,160.71893,71,59,0
160.51091,160.71893,65,51,0
160.48781,160.71893,55,47,0
160.9055,161.08961,72,59,0
160.9055,161.08961,67,1,0
160.9055,161.08961,60,45,0
161.27155,161.36166,76,45,0
161.36166,161.4513,79,46,0
161.4513,161.54034,84,47,0
161.54034,161.62888,86,49,0
161.62888,161.71689,88,49,0
161.98085,162.15758,83,59,0
161.95882,162.15758,77,51,0
161.93683,162.15758,67,47,0
162.3343,162.42114,76,42,0
162.3343,162.42114,72,42,0
162.3343,162.42114,84,50,0
162.68163,162.76735,67,50,0
162.85306,162.93877,74,39,0
162.85306,162.93877,77,39,0
162.85306,162.93877,83,46,0
163.02449,163.1102,72,50,0
163.1959,163.28163,76,39,0
163.1959,163.28163,79,39,0
163.1959,163.28163,84,46,0
163.36734,163.45306,67,50,0
163.53877,163.62636,74,39,0
163.53877,163.62636,77,39,0
163.53877,163.62636,83,46,0
163.71396,163.80078,72,50,0
163.88762,163.97444,79,39,0
163.88762,163.97444,76,39,0
163.88762,163.97444,84,46,0
164.06128,164.14699,67,50,0
164.23271,164.31842,74,39,0
164.23271,164.31842,77,39,0
164.23271,164.31842,83,46,0
164.40413,164.48985,72,50,0
164.57556,164.66127,76,39,0
164.57556,164.66127,79,39,0
164.57556,164.66127,84,46,0
164.747,164.8327,67,50,0
164.91843,165.00601,74,39,0
164.91843,165.00601,77,39,0
164.91843,165.00601,83,46,0
165.0936,165.1812,84,50,0
165.06076,165.1812,72,45,0
165.0717,165.1812,76,46,0
165.08266,165.1812,79,48,0
165.44397,165.5314,64,27,0
165.5314,165.61845,65,28,0
165.61845,165.70512,66,29,0
165.70512,165.79143,67,30,0
165.79143,165.87741,68,31,0
165.87741,165.96304,69,32,0
165.96304,166.0483,70,33,0
166.0483,166.1332,71,34,0
166.1332,166.21779,72,35,0
166.21779,166.30203,73,36,0
166.30203,166.38591,74,37,0
166.38591,166.46945,75,38,0
166.46945,166.55267,76,40,0
166.55267,166.6359,77,41,0
166.6359,166.7191,78,42,0
166.7191,166.80232,79,43,0
166.80232,166.88554,80,44,0
166.88554,166.96877,81,45,0
166.96877,167.05197,82,46,0
167.05197,167.13522,83,47,0
167.13522,167.20207,84,48,0
167.20207,167.26906,85,49,0
167.26906,167.33618,86,50,0
167.33618,167.40976,87,51,0
167.40976,167.4995,88,52,0
168.17192,168.25514,73,44,0
168.33836,168.42159,76,39,0
168.50479,168.58978,64,36,0
168.50479,168.58978,57,36,0
168.50479,168.58978,69,44,0
169.51755,169.60077,73,44,0
169.68399,169.76721,76,39,0
169.85042,169.93541,64,36,0
169.85042,169.93541,57,36,0
169.85042,169.93541,69,44,0
170.20184,170.28438,73,45,0
170.36691,170.45154,77,34,0
170.36691,170.45154,83,40,0
170.53616,170.61903,78,45,0
170.7019,170.78618,81,39,0
170.87045,170.95297,73,44,0
171.0355,171.11978,80,39,0
171.0355,171.11978,83,39,0
171.20404,171.28658,78,44,0
171.36911,171.45374,81,39,0
171.53836,171.6209,73,44,0
171.70343,171.78806,80,40,0
171.70343,171.78806,83,40,0
171.87268,171.9542,78,44,0
171.87268,171.9542,81,44,0
172.88626,172.9688,69,45,0
173.05132,173.13594,76,34,0
173.05132,173.13594,79,40,0
173.22057,173.30345,74,45,0
173.38632,173.4706,81,39,0
173.38632,173.4706,78,39,0
173.55486,173.63739,69,44,0
173.71992,173.80418,76,39,0
173.71992,173.80418,79,39,0
173.88846,173.971,74,44,0
174.05353,174.13815,81,39,0
174.05353,174.13815,78,39,0
174.22278,174.3053,69,44,0
174.38783,174.47246,76,40,0
174.38783,174.47246,79,40,0
174.55708,174.63861,74,44,0
174.55708,174.63861,78,44,0
176.2431,176.32631,74,44,0
176.40953,176.49275,78,39,0
176.57597,176.66095,66,36,0
176.57597,176.66095,59,36,0
176.57597,176.66095,71,44,0
177.58873,177.67194,74,44,0
177.75516,177.83838,78,39,0
177.9216,178.00658,66,36,0
177.9216,178.00658,59,36,0
177.9216,178.00658,71,44,0
178.27301,178.61444,86,52,0
178.27301,178.61444,78,52,0
178.61444,178.69731,85,50,0
178.61444,178.69731,76,50,0
178.78018,178.86446,83,41,0
178.78018,178.86446,74,41,0
178.94872,179.28232,81,51,0
178.94872,179.28232,73,51,0
179.28232,179.36485,83,52,0
179.28232,179.36485,74,52,0
179.44739,179.53459,81,41,0
179.44739,179.53459,73,41,0
179.6218,179.96844,80,49,0
179.6218,179.96844,71,49,0
179.96844,180.05963,73,47,0
179.96844,180.05963,81,47,0
179.96844,180.05963,69,47,0
180.33337,180.42723,76,45,0
180.33337,180.42723,64,45,0
180.33337,180.42723,68,45,0
180.33337,180.42723,71,45,0
180.71808,180.8228,69,46,0
180.71808,180.8228,57,46,0
180.71808,180.8228,61,46,0
180.71808,180.8228,64,46,0
181.13693,181.27126,33,58,0
181.13693,181.27126,45,69,0
181.49515,181.62947,32,62,0
181.49515,181.62947,44,74,0
181.85335,181.98769,29,58,0
181.85335,181.98769,41,69,0
182.21156,182.34589,28,62,0
182.21156,182.34589,40,74,0
182.56976,182.70909,26,58,0
182.56976,182.70909,38,69,0
182.94128,183.48102,25,65,0
182.94128,183.48102,37,79,0
183.48102,183.66093,26,58,0
183.48102,183.66093,38,69,0
183.66093,183.84583,28,66,0
183.66093,183.84583,40,80,0
184.21063,184.3006,33,60,0
184.21063,184.3006,45,73,0
184.39055,184.93028,28,66,0
184.39055,184.93028,40,80,0
184.93028,185.02023,33,58,0
184.93028,185.02023,45,69,0
185.11018,185.65405,28,65,0
185.11018,185.65405,40,78,0
185.65405,185.74608,33,47,0
185.65405,185.74608,45,56,0
185.8381,185.93013,28,51,0
185.8381,185.93013,40,60,0
186.02216,186.11092,25,45,0
186.02216,186.11092,37,53,0
186.19968,186.28842,33,45,0
186.19968,186.28842,21,45,0
186.37718,186.46594,25,45,0
186.37718,186.46594,37,53,0
186.5547,186.64346,28,42,0
186.5547,186.64346,40,50,0
186.73221,186.82097,25,45,0
186.73221,186.82097,37,53,0
186.90973,187.00092,28,47,0
186.90973,187.00092,40,56,0
187.0921,187.18674,33,50,0
187.0921,187.18674,45,59,0
187.28137,188.03847,28,53,0
187.28137,188.03847,40,63,0
188.03847,188.1354,33,49,0
188.03847,188.1354,45,58,0
188.4262,188.61728,57,58,0
188.40196,188.61728,48,51,0
188.37773,188.61728,41,47,0
188.80836,188.99586,55,58,0
188.78447,188.99586,48,48,0
188.76059,188.99586,40,46,0
189.18878,189.37717,57,54,0
189.16467,189.37717,48,51,0
189.14055,189.37717,41,47,0
189.56917,189.75844,60,56,0
189.54517,189.75844,52,55,0
189.52116,189.75844,43,52,0
189.9523,190.14159,59,51,0
189.92807,190.14159,53,47,0
189.90384,190.14159,43,45,0
190.33455,190.52763,60,59,0
190.3104,190.52763,55,1,0
190.28627,190.52763,48,45,0
190.71852,190.81305,64,45,0
190.81305,190.90706,67,46,0
190.90706,191.00055,72,47,0
191.00055,191.0935,74,49,0
191.0935,191.18596,76,49,0
191.4633,191.64821,71,59,0
191.44019,191.64821,65,51,0
191.41708,191.64821,55,47,0
191.83478,192.0189,72,59,0
191.83478,192.0189,67,1,0
191.83478,192.0189,60,45,0
192.20082,192.29095,76,45,0
192.29095,192.38057,79,46,0
192.38057,192.46962,84,47,0
192.46962,192.55815,86,49,0
192.55815,192.64616,88,49,0
192.91013,193.08685,83,59,0
192.88809,193.08685,77,51,0
192.8661,193.08685,67,47,0
193.26358,193.35042,76,42,0
193.26358,193.35042,72,42,0
193.26358,193.35042,84,50,0
193.6109,193.69662,67,50,0
193.78233,193.86804,74,39,0
193.78233,193.86804,77,39,0
193.78233,193.86804,83,46,0
193.95377,194.03947,72,50,0
194.12518,194.2109,76,39,0
194.12518,194.2109,79,39,0
194.12518,194.2109,84,46,0
194.29662,194.38234,67,50,0
194.46805,194.55563,74,39,0
194.46805,194.55563,77,39,0
194.46805,194.55563,83,46,0
194.64323,194.73006,72,50,0
194.8169,194.90372,76,39,0
194.8169,194.90372,79,39,0
194.8169,194.90372,84,46,0
194.99055,195.07626,67,50,0
195.16199,195.2477,74,39,0
195.16199,195.2477,77,39,0
195.16199,195.2477,83,46,0
195.3334,195.41913,72,50,0
195.50484,195.59055,76,39,0
195.50484,195.59055,79,39,0
195.50484,195.59055,84,46,0
195.67627,195.76198,67,50,0
195.8477,195.93529,74,39,0
195.8477,195.93529,77,39,0
195.8477,195.93529,83,46,0
196.02287,196.11047,84,50,0
195.99004,196.11047,72,45,0
196.00098,196.11047,76,46,0
196.01193,196.11047,79,48,0
196.37325,196.46068,64,27,0
196.46068,196.54773,65,28,0
196.54773,196.6344,66,29,0
196.6344,196.7207,67,30,0
196.7207,196.80669,68,31,0
196.80669,196.89232,69,32,0
196.89232,196.97757,70,33,0
196.97757,197.06247,71,34,0
197.06247,197.14706,72,35,0
197.14706,197.23131,73,36,0
197.23131,197.31519,74,37,0
197.31519,197.39873,75,38,0
197.39873,197.48195,76,40,0
197.48195,197.56517,77,41,0
197.56517,197.64838,78,42,0
197.64838,197.7316,79,43,0
197.7316,197.81482,80,44,0
197.81482,197.89804,81,45,0
197.89804,197.98125,82,46,0
197.98125,198.0645,83,47,0
198.0645,198.13135,84,48,0
198.13135,198.19833,85,49,0
198.19833,198.26546,86,50,0
198.26546,198.33904,87,51,0
198.33904,198.42877,88,52,0
199.1012,199.18442,73,44,0
199.26764,199.35086,76,39,0
199.43407,199.51906,64,36,0
199.43407,199.51906,57,36,0
199.43407,199.51906,69,44,0
200.44682,200.53004,73,44,0
200.61327,200.69649,76,39,0
200.77971,200.86469,64,36,0
200.77971,200.86469,57,36,0
200.77971,200.86469,69,44,0
201.13112,201.21365,73,45,0
201.29619,201.38081,77,34,0
201.29619,201.38081,83,40,0
201.46544,201.54831,78,45,0
201.63118,201.71545,81,39,0
201.79973,201.88225,73,44,0
201.96478,202.04906,80,39,0
201.96478,202.04906,83,39,0
202.13332,202.21585,78,44,0
202.29839,202.38301,81,39,0
202.46764,202.55017,73,44,0
202.6327,202.71733,80,40,0
202.6327,202.71733,83,40,0
202.80196,202.88347,78,44,0
202.80196,202.88347,81,44,0
203.81554,203.89807,69,45,0
203.98059,204.06522,73,34,0
203.98059,204.06522,79,40,0
204.14986,204.23273,74,45,0
204.3156,204.39987,81,39,0
204.3156,204.39987,78,39,0
204.48413,204.56667,69,44,0
204.6492,204.73346,76,39,0
204.6492,204.73346,79,39,0
204.81773,204.90027,74,44,0
204.9828,205.06743,81,39,0
204.9828,205.06743,78,39,0
205.15205,205.23459,69,44,0
205.31711,205.40173,76,40,0
205.31711,205.40173,79,40,0
205.48636,205.56789,74,44,0
205.48636,205.56789,78,44,0
207.17238,207.25558,74,44,0
207.3388,207.42203,78,39,0
207.50525,207.59023,66,36,0
207.50525,207.59023,62,36,0
207.50525,207.59023,71,44,0
208.518,208.60121,74,44,0
208.68443,208.76765,78,39,0
208.85088,208.93585,66,36,0
208.85088,208.93585,62,36,0
208.85088,208.93585,71,44,0
209.86363,209.94897,74,44,0
210.03433,210.11967,77,39,0
210.20502,210.29224,65,36,0
210.20502,210.29224,62,36,0
210.20502,210.29224,70,44,0
211.2441,211.33698,74,44,0
211.42986,211.52773,77,39,0
211.62561,211.71764,65,36,0
211.62561,211.71764,62,36,0
211.62561,211.71764,70,44,0
214.89778,215.0615,70,34,0
215.0615,215.57074,77,36,0
215.0615,215.57074,65,36,0
215.57074,215.73512,70,34,0
215.73512,216.24074,77,36,0
215.73512,216.24074,65,36,0
216.24074,216.40512,70,35,0
216.40512,216.57295,77,36,0
216.40512,216.57295,65,36,0
216.57295,216.74078,70,33,0
216.74078,216.90985,77,36,0
216.74078,216.90985,65,36,0
216.90985,217.0796,70,32,0
217.0796,217.24995,77,36,0
217.0796,217.24995,65,36,0
217.24995,217.42093,70,33,0
217.42093,217.5925,77,36,0
217.42093,217.5925,65,36,0
217.5925,217.7647,70,33,0
217.7647,217.85115,77,36,0
217.7647,217.85115,65,36,0
222.25876,222.34636,58,35,0
222.25876,222.34636,62,49,0
222.34636,222.43423,57,43,0
222.34636,222.43423,61,52,0
222.43423,222.5222,56,43,0
222.43423,222.5222,60,52,0
222.5222,222.61018,55,44,0
222.5222,222.61018,59,53,0
222.61018,222.69817,54,44,0
222.61018,222.69817,58,53,0
222.69817,222.78613,53,44,0
222.69817,222.78613,57,53,0
222.78613,222.87428,52,45,0
222.78613,222.87428,56,54,0
222.87428,222.96265,51,45,0
222.87428,222.96265,55,54,0
222.96265,223.05101,50,45,0
222.96265,223.05101,54,54,0
223.05101,223.13937,49,46,0
223.05101,223.13937,53,55,0
223.13937,223.22774,48,46,0
223.13937,223.22774,52,55,0
223.22774,223.31621,47,46,0
223.22774,223.31621,51,55,0
223.31621,223.40518,46,47,0
223.31621,223.40518,50,56,0
223.40518,223.49487,45,47,0
223.40518,223.49487,49,56,0
223.49487,223.58524,44,48,0
223.49487,223.58524,48,57,0
223.58524,223.67628,43,48,0
223.58524,223.67628,47,57,0
223.67628,223.76807,42,46,0
223.67628,223.76807,46,55,0
223.76807,223.86052,41,43,0
223.76807,223.86052,45,52,0
223.86052,223.95369,40,41,0
223.86052,223.95369,44,49,0
223.95369,224.04762,39,38,0
223.95369,224.04762,45,45,0
224.04762,224.14221,46,43,0
224.14221,224.23686,47,43,0
224.04762,224.23686,38,37,0
224.23686,224.3315,37,36,0
224.23686,224.3315,48,42,0
224.3315,224.42613,36,35,0
224.3315,224.42613,49,41,0
224.42613,224.5523,35,35,0
224.42613,224.5523,50,41,0
224.5523,224.6785,34,34,0
224.5523,224.6785,51,40,0
224.6785,224.80467,33,33,0
224.6785,224.80467,52,39,0
224.80467,224.93456,32,31,0
224.93456,225.06442,38,27,0
225.06442,225.19429,41,27,0
225.19429,225.31699,31,31,0
225.31699,225.44296,37,28,0
225.44296,225.5722,40,28,0
225.5722,225.6972,32,31,0
225.6972,225.8222,38,27,0
225.8222,225.9472,41,27,0
225.9472,226.06769,32,31,0
226.06769,226.19223,37,28,0
226.19223,226.32085,40,28,0
226.32085,226.452,32,31,0
226.452,226.58315,38,27,0
226.58315,226.7143,41,27,0
226.7143,226.84943,32,31,0
226.84943,226.98456,37,28,0
226.98456,227.11969,40,28,0
227.11969,227.25348,32,31,0
227.25348,227.38725,38,27,0
227.38725,227.52103,41,27,0
227.52103,227.65482,38,31,0
227.65482,227.78859,35,28,0
227.78859,227.92302,32,28,0
227.92302,228.02895,29,21,0
227.99422,228.09909,28,25,0
228.06348,228.16747,29,27,0
228.1321,228.23523,30,30,0
228.20145,228.30353,31,32,0
228.26886,228.37004,32,34,0
228.33679,228.43716,33,38,0
228.40309,228.5025,34,40,0
228.46878,228.56725,35,42,0
228.53491,228.63344,36,46,0
228.59969,228.69917,37,48,0
228.66621,228.76668,38,50,0
228.73224,228.83363,37,49,0
228.79895,228.90111,36,47,0
228.86731,228.9705,35,44,0
228.93509,229.03932,34,42,0
229.00485,229.10849,33,40,0
229.0733,229.17645,32,38,0
229.14127,229.24442,33,35,0
229.21043,229.31335,34,33,0
229.2784,229.38083,35,35,0
229.34709,229.4495,36,37,0
229.41455,229.51683,37,40,0
229.48203,229.58371,38,42,0
229.55032,229.65045,39,44,0
229.6165,229.71573,40,47,0
229.68317,229.78218,41,47,0
229.74829,229.84808,40,45,0
229.81387,229.91469,39,43,0
229.88132,229.98314,38,42,0
229.9482,230.05084,37,40,0
230.01688,230.12045,36,38,0
230.08496,230.18959,35,36,0
230.1537,230.24721,34,35,0
230.22691,230.35678,33,35,0
230.35678,230.48665,39,31,0
230.48665,230.61652,42,31,0
230.61652,230.73921,33,35,0
230.73921,230.86519,38,32,0
230.86519,230.99443,41,32,0
230.99443,231.11943,33,35,0
231.11943,231.24443,39,31,0
231.24443,231.36943,42,31,0
231.36943,231.48991,33,35,0
231.48991,231.61446,38,32,0
231.61446,231.74307,41,32,0
231.74307,231.87422,33,35,0
231.87422,232.00537,39,31,0
232.00537,232.13652,42,31,0
232.13652,232.27165,33,35,0
232.27165,232.40678,38,32,0
232.40678,232.54193,41,32,0
232.54193,232.6757,33,35,0
232.6757,232.80948,39,31,0
232.80948,232.94327,42,31,0
232.94327,233.07704,39,35,0
233.07704,233.21082,36,32,0
233.21082,233.3446,33,32,0
233.3446,233.45006,30,30,0
233.41533,233.5202,29,35,0
233.48459,233.58858,30,37,0
233.5532,233.65634,31,38,0
233.62256,233.72464,32,40,0
233.68997,233.79115,33,42,0
233.7579,233.85828,34,44,0
233.8242,233.92361,35,45,0
233.8899,233.98836,36,47,0
233.95602,234.05455,37,48,0
234.0208,234.12029,38,50,0
234.08733,234.18779,39,52,0
234.15335,234.25475,38,54,0
234.22006,234.32222,37,52,0
234.28842,234.39162,36,50,0
234.3562,234.46043,35,48,0
234.42596,234.5296,34,47,0
234.49442,234.59756,33,45,0
234.56238,234.66553,34,42,0
234.63155,234.73447,35,44,0
234.69951,234.80194,36,46,0
234.7682,234.8706,37,48,0
234.83566,234.93794,38,50,0
234.90314,235.00482,39,52,0
234.97144,235.07156,40,55,0
235.03761,235.13684,41,57,0
235.10428,235.2033,42,59,0
235.1694,235.2692,41,58,0
235.23499,235.3358,40,56,0
235.30243,235.40425,39,53,0
235.36931,235.47195,38,51,0
235.43799,235.54156,37,48,0
235.50607,235.6107,36,46,0
235.57481,235.66843,35,43,0
235.64793,235.77907,34,42,0
235.77907,235.91022,40,37,0
235.91022,236.04137,43,37,0
236.04137,236.1765,34,42,0
236.1765,236.31165,39,38,0
236.31165,236.44678,42,38,0
236.44678,236.58055,34,42,0
236.58055,236.71434,40,37,0
236.71434,236.84811,43,37,0
236.84811,236.98189,40,42,0
236.98189,237.11568,37,38,0
237.11568,237.24945,34,38,0
237.24945,237.3806,35,43,0
237.3806,237.51175,41,38,0
237.51175,237.6429,44,38,0
237.6429,237.77803,35,43,0
237.77803,237.91316,40,40,0
237.91316,238.0483,43,40,0
238.0483,238.18208,35,43,0
238.18208,238.31586,41,38,0
238.31586,238.44963,44,38,0
238.44963,238.58342,41,43,0
238.58342,238.7172,38,40,0
238.7172,238.85098,35,40,0
238.85098,238.95131,32,44,0
238.95131,239.05121,31,45,0
239.05121,239.15076,32,46,0
239.15076,239.24997,33,47,0
239.24997,239.34882,34,48,0
239.34882,239.44719,35,49,0
239.44719,239.54523,36,51,0
239.54523,239.64294,37,52,0
239.64294,239.74031,38,53,0
239.74031,239.83723,39,54,0
239.83723,239.93329,40,55,0
239.93329,240.02931,41,56,0
240.02931,240.12599,40,58,0
240.12599,240.22331,39,57,0
240.22331,240.32137,38,56,0
240.32137,240.42004,37,55,0
240.42004,240.51938,36,54,0
240.51938,240.61844,35,52,0
240.61844,240.7172,36,50,0
240.7172,240.81555,37,48,0
240.81555,240.91354,38,51,0
240.91354,241.01126,39,53,0
241.01126,241.10866,40,55,0
241.10866,241.2056,41,57,0
241.2056,241.30228,42,59,0
241.30228,241.39865,43,60,0
241.39865,241.49466,44,62,0
241.49466,241.5911,43,61,0
241.5911,241.68793,42,57,0
241.68793,241.78513,41,54,0
241.78513,241.8827,40,51,0
241.8827,241.98058,39,47,0
241.98058,242.07843,38,59,0
241.98058,242.07843,50,59,0
242.17583,242.27278,40,61,0
242.17583,242.27278,52,61,0
242.36925,242.46532,42,64,0
242.36925,242.46532,54,64,0
242.56091,242.65611,44,67,0
242.56091,242.65611,56,67,0
242.75085,242.8452,46,70,0
242.75085,242.8452,58,70,0
242.93909,243.03343,47,72,0
242.93909,243.03343,59,72,0
243.12845,243.2242,45,71,0
243.12845,243.2242,57,71,0
243.32068,243.41788,43,67,0
243.32068,243.41788,55,67,0
243.51556,243.61333,41,64,0
243.51556,243.61333,53,64,0
243.71094,243.80817,43,63,0
243.71094,243.80817,55,63,0
243.90503,244.00148,45,66,0
243.90503,244.00148,57,66,0
244.0975,244.19315,47,69,0
244.0975,244.19315,59,69,0
244.28844,244.38336,49,76,0
244.28844,244.38336,61,76,0
244.47792,244.57224,50,72,0
244.47792,244.57224,62,72,0
244.66704,244.76237,48,68,0
244.66704,244.76237,60,68,0
244.85823,244.95462,46,63,0
244.85823,244.95462,58,63,0
245.05154,245.14847,44,63,0
245.05154,245.14847,56,63,0
245.24538,245.34183,46,67,0
245.24538,245.34183,58,67,0
245.43826,245.53427,48,70,0
245.43826,245.53427,60,70,0
245.63023,245.72577,50,74,0
245.63023,245.72577,62,74,0
245.82129,245.91638,52,78,0
245.82129,245.91638,64,78,0
246.01143,246.1061,52,74,0
246.01143,246.1061,64,74,0
246.20122,246.29678,50,70,0
246.20122,246.29678,62,70,0
246.39282,246.48932,48,66,0
246.39282,246.48932,60,66,0
246.58641,246.68379,46,51,0
246.58641,246.68379,58,64,0
246.78072,246.87729,44,69,0
246.78072,246.87729,56,69,0
246.9735,247.06937,46,72,0
246.9735,247.06937,58,72,0
247.16489,247.25996,48,76,0
247.16489,247.25996,60,76,0
247.3547,247.4491,50,79,0
247.3547,247.4491,62,79,0
247.54317,247.63689,52,80,0
247.54317,247.63689,64,80,0
247.73041,247.82475,52,75,0
247.73041,247.82475,64,75,0
247.91989,248.01587,50,70,0
247.91989,248.01587,62,70,0
248.11281,248.21022,48,57,0
248.11281,248.21022,60,72,0
248.30762,248.40475,46,68,0
248.30762,248.40475,58,68,0
248.50168,248.59862,44,68,0
248.50168,248.59862,56,68,0
248.69514,248.7916,46,69,0
248.69514,248.7916,58,69,0
248.88799,248.984,48,70,0
248.88799,248.984,60,70,0
249.07999,249.17583,50,71,0
249.07999,249.17583,62,71,0
249.27136,249.3669,52,72,0
249.27136,249.3669,64,72,0
249.46214,249.55724,53,72,0
249.46214,249.55724,65,72,0
249.65231,249.74696,50,74,0
249.65231,249.74696,62,74,0
249.8416,249.93625,47,76,0
249.8416,249.93625,59,76,0
250.03088,250.12552,44,79,0
250.03088,250.12552,56,79,0
250.22015,250.31479,41,82,0
250.22015,250.31479,53,82,0
250.40932,250.50375,38,85,0
250.40932,250.50375,50,85,0
250.59886,250.69461,35,88,0
250.59886,250.69461,47,88,0
250.79105,250.8882,32,91,0
250.79105,250.8882,44,91,0
251.69142,251.88069,41,63,0
251.69142,251.88069,53,74,0
252.06996,252.25659,39,67,0
252.06996,252.25659,51,80,0
252.25659,252.4432,42,64,0
252.25659,252.4432,54,75,0
252.4432,252.63521,45,64,0
252.4432,252.63521,57,75,0
252.83194,253.01944,37,66,0
252.83194,253.01944,49,78,0
253.01944,253.20694,42,61,0
253.01944,253.20694,54,73,0
253.20694,253.39894,45,61,0
253.20694,253.39894,57,73,0
253.5947,253.77959,36,66,0
253.5947,253.77959,48,78,0
253.77959,253.9645,42,61,0
253.77959,253.9645,54,73,0
253.9645,254.152,45,61,0
253.9645,254.152,57,73,0
254.3395,254.52612,35,66,0
254.3395,254.52612,47,78,0
254.52612,254.71274,39,65,0
254.52612,254.71274,51,76,0
254.71274,254.89937,42,65,0
254.71274,254.89937,54,76,0
255.086,255.27261,33,57,0
255.086,255.27261,45,67,0
255.27261,255.4619,37,53,0
255.27261,255.4619,49,64,0
255.4619,255.65117,42,53,0
255.4619,255.65117,54,64,0
255.84598,256.04077,32,57,0
255.84598,256.04077,44,67,0
256.04077,256.2356,36,53,0
256.04077,256.2356,48,64,0
256.2356,256.4304,39,53,0
256.2356,256.4304,51,63,0
256.62518,256.81268,31,59,0
256.62518,256.81268,43,71,0
256.81268,256.99673,36,58,0
256.81268,256.99673,48,69,0
256.99673,257.18784,39,57,0
256.99673,257.18784,51,68,0
257.38748,257.58716,30,58,0
257.38748,257.58716,42,70,0
257.58716,257.78683,33,52,0
257.58716,257.78683,45,61,0
257.78683,258.1813,48,55,0
257.78683,258.1813,36,50,0
258.1813,258.35883,35,48,0
258.1813,258.35883,47,58,0
258.35883,258.50146,33,44,0
258.35883,258.50146,45,53,0
258.5371,258.6279,31,44,0
258.5371,258.6279,43,53,0
258.71866,258.8133,35,44,0
258.71866,258.8133,47,53,0
258.90793,259.08704,33,48,0
258.90793,259.08704,45,58,0
259.08704,259.23032,31,46,0
259.08704,259.23032,43,54,0
259.26614,259.35776,29,46,0
259.26614,259.35776,41,54,0
259.44934,259.54398,33,46,0
259.44934,259.54398,45,54,0
259.6386,259.81693,31,52,0
259.6386,259.81693,43,60,0
259.81693,259.95956,29,46,0
259.81693,259.95956,41,54,0
259.99524,260.086,28,46,0
259.99524,260.086,40,54,0
260.1768,260.27142,31,46,0
260.1768,260.27142,43,54,0
260.36606,260.54437,29,52,0
260.36606,260.54437,41,63,0
260.54437,260.687,28,46,0
260.54437,260.687,40,54,0
260.72266,260.81384,27,46,0
260.72266,260.81384,39,54,0
260.90503,261.00012,29,46,0
260.90503,261.00012,41,54,0
261.0952,261.27927,29,52,0
261.0952,261.27927,41,60,0
261.27927,261.4265,28,46,0
261.27927,261.4265,40,54,0
261.46332,261.55795,28,46,0
261.46332,261.55795,40,54,0
261.6526,261.75143,27,46,0
261.6526,261.75143,39,54,0
261.85028,262.04135,29,53,0
261.85028,262.04135,41,64,0
262.04135,262.1942,28,46,0
262.04135,262.1942,40,54,0
262.23245,262.32797,28,46,0
262.23245,262.32797,40,54,0
262.42352,262.5259,27,46,0
262.42352,262.5259,39,54,0
262.6283,263.39264,28,57,0
262.6283,263.39264,40,67,0
263.39264,263.5837,40,54,0
263.39264,263.5837,52,65,0
263.39264,263.5837,47,54,0
263.39264,263.5837,44,54,0
263.7748,263.9004,52,68,0
263.9004,264.02597,54,72,0
264.02597,264.15158,56,77,0
264.15158,264.33908,45,60,0
264.15158,264.33908,57,72,0
264.52658,264.7073,41,47,0
264.52658,264.7073,53,57,0
264.90305,265.09055,45,60,0
264.90305,265.09055,57,72,0
265.27805,265.45877,40,47,0
265.27805,265.45877,52,57,0
265.65646,265.75247,45,60,0
265.65646,265.75247,57,72,0
266.04047,266.1374,41,47,0
266.04047,266.1374,38,47,0
266.04047,266.1374,50,57,0
267.1002,267.1482,36,56,0
267.1482,267.1962,48,66,0
266.4282,267.1962,52,60,0
266.4282,267.1962,45,60,0
266.4282,267.1962,57,72,0
267.1962,267.85193,65,56,0
267.1962,267.85193,69,66,0
267.1962,267.85193,57,56,0
267.1962,267.85193,60,56,0
267.85193,267.9011,36,57,0
267.9011,267.9503,48,57,0
267.9503,268.6388,67,59,0
267.9503,268.6388,72,70,0
267.9503,268.6388,60,59,0
267.9503,268.6388,64,59,0
268.6388,268.688,33,59,0
268.688,268.73718,45,59,0
268.73718,269.399,57,53,0
268.73718,269.399,65,63,0
268.73718,269.399,53,53,0
268.73718,269.399,62,53,0
269.399,269.44815,33,57,0
269.44815,269.49734,45,57,0
269.49734,270.2786,64,53,0
269.49734,270.2786,69,63,0
269.49734,270.2786,57,53,0
269.49734,270.2786,60,53,0
270.2786,270.46436,35,57,0
270.2786,270.46436,47,67,0
270.64508,270.8218,64,48,0
270.64508,270.8218,59,48,0
270.64508,270.8218,68,58,0
271.0067,271.19244,47,64,0
271.37076,271.54596,61,51,0
271.37076,271.54596,66,51,0
271.37076,271.54596,69,60,0
271.73083,271.90915,47,64,0
272.08826,272.26736,59,47,0
272.08826,272.26736,64,47,0
272.08826,272.26736,68,57,0
272.45663,272.63495,47,64,0
272.81485,272.99475,57,45,0
272.81485,272.99475,63,45,0
272.81485,272.99475,66,54,0
273.18225,273.36218,52,54,0
273.18225,273.36218,64,64,0
273.18225,273.36218,59,54,0
273.18225,273.36218,56,54,0
273.54456,273.73032,57,45,0
273.54456,273.73032,60,45,0
273.54456,273.73032,66,54,0
273.92416,274.10992,52,53,0
273.92416,274.10992,64,63,0
273.92416,274.10992,59,53,0
273.92416,274.10992,56,53,0
274.2983,274.4867,57,47,0
274.2983,274.4867,60,47,0
274.2983,274.4867,66,57,0
274.68835,275.4638,52,57,0
274.68835,275.4638,64,67,0
274.68835,275.4638,59,57,0
274.68835,275.4638,56,57,0
275.4638,275.65768,47,54,0
275.4638,275.65768,52,65,0
275.4638,275.65768,40,54,0
275.4638,275.65768,44,54,0
276.14233,276.23926,59,59,0
276.14233,276.23926,56,50,0
276.14233,276.23926,52,50,0
276.23926,276.4233,59,66,0
276.23926,276.4233,56,55,0
276.23926,276.4233,52,55,0
276.97546,277.16562,61,74,0
276.97546,277.16562,49,74,0
276.97546,277.16562,52,74,0
276.97546,277.16562,56,74,0
277.73615,278.87186,51,61,0
277.73615,278.87186,44,61,0
277.73615,278.87186,56,74,0
278.87186,278.9602,37,52,0
278.87186,278.9602,49,63,0
279.22015,279.40765,56,71,0
279.22015,279.40765,44,71,0
279.59515,279.682,49,52,0
279.59515,279.682,61,63,0
279.93784,280.12534,68,71,0
279.93784,280.12534,56,71,0
280.31284,280.3997,49,52,0
280.31284,280.3997,61,63,0
280.65552,280.84302,44,73,0
280.65552,280.84302,56,89,0
281.03088,281.22104,43,73,0
281.03088,281.22104,55,89,0
281.4111,281.6053,42,73,0
281.4111,281.6053,54,89,0
281.80615,282.01416,41,73,0
281.80615,282.01416,53,89,0
282.22794,282.38074,40,76,0
282.22794,282.38074,47,76,0
282.22794,282.38074,44,76,0
282.22794,282.38074,52,93,0
283.45035,283.81018,64,58,0
283.45035,283.81018,76,58,0
283.81018,283.97592,72,70,0
283.81018,283.97592,69,70,0
283.97592,284.141,76,61,0
284.141,284.30603,72,65,0
284.141,284.30603,69,65,0
284.487,284.65344,62,65,0
284.487,284.65344,59,65,0
284.65344,284.8199,67,59,0
284.8199,284.9928,62,55,0
284.8199,284.9928,59,55,0
285.1794,285.3494,65,70,0
285.1794,285.3494,69,70,0
285.3494,285.5165,72,61,0
285.5165,285.68365,65,65,0
285.5165,285.68365,69,65,0
285.8646,286.03314,55,65,0
285.8646,286.03314,59,65,0
286.03314,286.2017,64,59,0
286.2017,286.3746,55,55,0
286.2017,286.3746,59,55,0
286.54492,286.71347,65,70,0
286.54492,286.71347,62,70,0
286.71347,286.88202,69,61,0
286.88202,287.05493,65,65,0
286.88202,287.05493,62,65,0
287.23587,287.40372,52,65,0
287.23587,287.40372,55,65,0
287.40372,287.57153,60,59,0
287.57153,287.7437,52,55,0
287.57153,287.7437,55,55,0
287.91586,288.0873,62,70,0
287.91586,288.0873,59,70,0
288.0873,288.25513,65,61,0
288.25513,288.42297,59,65,0
288.25513,288.42297,62,65,0
288.6039,288.77176,52,65,0
288.6039,288.77176,48,65,0
288.77176,288.93958,57,59,0
288.93958,289.1125,52,55,0
288.93958,289.1125,48,55,0
289.2854,289.45538,55,70,0
289.2854,289.45538,59,70,0
289.45538,289.6225,62,61,0
289.6225,289.78964,55,65,0
289.6225,289.78964,59,65,0
289.9706,290.1413,48,65,0
289.9706,290.1413,45,65,0
290.1413,290.31198,53,59,0
290.31198,290.4849,45,55,0
290.31198,290.4849,48,55,0
290.6578,290.99207,47,65,0
290.6578,290.99207,52,77,0
290.6578,290.99207,44,65,0
290.6578,290.99207,40,65,0
291.1592,291.32028,59,67,0
291.1592,291.32028,52,56,0
291.1592,291.32028,50,56,0
291.32028,291.40082,49,60,0
291.32028,291.40082,52,60,0
291.32028,291.40082,58,71,0
291.64642,291.72894,52,56,0
291.64642,291.72894,57,67,0
291.64642,291.72894,48,56,0
291.97653,292.31082,56,77,0
291.97653,292.31082,47,65,0
291.97653,292.31082,52,65,0
292.47794,292.641,71,67,0
292.47794,292.641,62,56,0
292.47794,292.641,64,56,0
292.641,292.7225,70,71,0
292.641,292.7225,64,60,0
292.641,292.7225,61,60,0
292.97046,293.05368,69,67,0
292.97046,293.05368,64,56,0
292.97046,293.05368,60,56,0
293.30334,293.62164,68,77,0
293.30334,293.62164,64,65,0
293.30334,293.62164,59,65,0
293.62164,293.70282,64,58,0
293.62164,293.70282,76,69,0
293.62164,293.70282,71,58,0
293.62164,293.70282,74,58,0
293.94638,294.02597,70,62,0
293.94638,294.02597,76,74,0
293.94638,294.02597,64,62,0
293.94638,294.02597,73,62,0
294.2647,294.34555,64,61,0
294.2647,294.34555,69,61,0
294.2647,294.34555,76,72,0
294.2647,294.34555,72,61,0
294.58813,294.92102,68,62,0
294.58813,294.92102,64,62,0
294.58813,294.92102,76,73,0
294.58813,294.92102,71,62,0
294.92102,295.00424,76,62,0
294.92102,295.00424,80,73,0
294.92102,295.00424,71,62,0
294.92102,295.00424,83,73,0
295.42032,295.58676,40,59,0
295.42032,295.58676,52,70,0
295.58676,295.75458,42,62,0
295.58676,295.75458,54,74,0
295.75458,295.92242,44,67,0
295.75458,295.92242,56,79,0
295.92242,296.09683,45,70,0
295.92242,296.09683,57,83,0
296.27127,296.4363,41,47,0
296.27127,296.4363,53,56,0
296.61,296.77997,45,59,0
296.61,296.77997,57,70,0
296.94992,297.11298,52,56,0
296.94992,297.11298,40,47,0
297.2859,297.37747,57,70,0
297.2859,297.37747,45,59,0
297.65228,297.74146,41,47,0
297.65228,297.74146,50,56,0
297.65228,297.74146,38,47,0
298.0089,298.7384,45,59,0
298.0089,298.7384,52,59,0
298.0089,298.7384,57,70,0
299.0699,299.1556,69,75,0
299.0699,299.1556,57,63,0
299.2413,299.32776,59,67,0
299.2413,299.32776,71,79,0
299.4142,299.90295,60,69,0
299.4142,299.90295,72,82,0
299.90295,299.9872,59,62,0
299.90295,299.9872,71,74,0
300.0715,300.5719,57,70,0
300.0715,300.5719,69,83,0
300.5719,300.65616,67,75,0
300.5719,300.65616,55,63,0
300.74042,301.23654,65,84,0
300.74042,301.23654,53,71,0
301.23654,301.32373,52,75,0
301.23654,301.32373,64,75,0
301.41095,301.5795,62,70,0
301.41095,301.5795,50,59,0
301.74802,301.8289,58,56,0
301.74802,301.8289,46,47,0
302.0834,302.25195,62,70,0
302.0834,302.25195,50,59,0
302.4205,302.50168,57,56,0
302.4205,302.50168,45,47,0
302.7636,302.85196,62,70,0
302.7636,302.85196,50,59,0
303.11707,303.2062,43,47,0
303.11707,303.2062,55,56,0
303.11707,303.2062,46,47,0
303.47366,304.20987,62,70,0
303.47366,304.20987,57,59,0
303.47366,304.20987,50,59,0
304.54413,304.63022,74,75,0
304.54413,304.63022,62,63,0
304.7163,304.80273,76,79,0
304.7163,304.80273,64,67,0
304.8892,305.38315,77,82,0
304.8892,305.38315,65,69,0
305.38315,305.4696,76,74,0
305.38315,305.4696,64,62,0
305.55606,306.057,62,70,0
305.55606,306.057,74,83,0
306.057,306.14236,60,63,0
306.057,306.14236,72,75,0
306.22772,306.73065,59,71,0
306.22772,306.73065,71,84,0
306.73065,306.8171,57,59,0
306.73065,306.8171,69,70,0
306.90356,306.98645,68,72,0
306.90356,306.98645,56,61,0
307.06934,307.1522,71,77,0
307.06934,307.1522,59,65,0
307.23508,307.3968,76,81,0
307.23508,307.3968,64,68,0
307.57047,308.2651,47,59,0
307.57047,308.2651,40,59,0
307.57047,308.2651,52,70,0
307.57047,308.2651,44,59,0
308.2651,308.34796,57,61,0
308.2651,308.34796,69,72,0
308.43085,308.51373,60,65,0
308.43085,308.51373,72,77,0
308.5966,308.75766,64,68,0
308.5966,308.75766,76,81,0
308.9321,309.62976,40,59,0
308.9321,309.62976,52,70,0
308.9321,309.62976,45,59,0
308.9321,309.62976,48,59,0
309.62976,309.93942,65,85,0
309.93942,310.0203,64,73,0
310.28436,310.3683,44,62,0
310.28436,310.3683,47,73,0
310.4522,310.5361,50,66,0
310.62003,310.70395,47,73,0
310.62003,310.70395,44,62,0
310.78787,310.87662,50,64,0
310.9654,311.27505,65,85,0
311.27505,311.354,64,73,0
311.61206,311.69458,45,73,0
311.77713,311.85965,48,66,0
311.94217,312.02472,45,73,0
312.10724,312.19598,48,64,0
312.28317,312.4614,68,51,0
312.28317,312.4614,71,51,0
312.28317,312.4614,65,51,0
312.28317,312.4614,77,60,0
312.44516,312.62445,64,51,0
312.44516,312.62445,76,60,0
312.60806,312.78848,74,58,0
312.60806,312.78848,62,49,0
312.77206,312.95355,72,58,0
312.77206,312.95355,60,49,0
312.93698,313.11966,71,56,0
312.93698,313.11966,59,47,0
313.103,313.28677,69,56,0
313.103,313.28677,57,47,0
313.27,313.45496,68,55,0
313.27,313.45496,56,46,0
313.4381,313.62332,64,53,0
313.4381,313.62332,52,45,0
313.6069,313.78827,53,50,0
313.6069,313.78827,59,50,0
313.6069,313.78827,65,59,0
313.6069,313.78827,56,50,0
313.7717,313.9546,64,58,0
313.7717,313.9546,52,49,0
313.93787,314.12228,62,56,0
313.93787,314.12228,50,47,0
314.10544,314.29114,60,55,0
314.10544,314.29114,48,46,0
314.27435,314.46027,59,53,0
314.27435,314.46027,47,45,0
314.44324,314.63232,57,51,0
314.44324,314.63232,45,43,0
314.615,314.80704,44,42,0
314.615,314.80704,56,50,0
314.78943,314.9841,40,40,0
314.78943,314.9841,52,48,0
314.96634,315.16162,41,45,0
314.96634,315.16162,53,53,0
315.14386,315.3391,39,40,0
315.14386,315.3391,51,48,0
315.32138,315.51663,40,43,0
315.32138,315.51663,52,51,0
315.4989,315.69427,50,48,0
315.4989,315.69427,38,41,0
315.67645,315.8726,51,51,0
315.67645,315.8726,39,43,0
315.85474,316.05087,49,49,0
315.85474,316.05087,37,42,0
316.03305,316.2292,50,55,0
316.03305,316.2292,38,45,0
316.21136,316.38986,48,52,0
316.21136,316.38986,36,42,0
316.38986,316.57217,37,48,0
316.38986,316.57217,49,57,0
316.57217,316.7573,35,45,0
316.57217,316.7573,47,53,0
316.7573,316.94504,36,52,0
316.7573,316.94504,48,61,0
316.94504,317.13568,46,58,0
316.94504,317.13568,34,49,0
317.13568,317.3329,47,65,0
317.13568,317.3329,35,56,0
317.3329,317.5432,45,63,0
317.3329,317.5432,33,54,0
317.5432,317.775,46,72,0
317.5432,317.775,34,60,0
317.775,318.087,44,70,0
317.775,318.087,32,59,0
318.46735,318.6331,52,57,0
318.46735,318.6331,49,57,0
318.46735,318.6331,57,67,0
318.6331,318.82544,49,57,0
318.087,318.82544,45,80,0
318.087,318.82544,33,66,0
318.087,318.82544,40,66,0
318.6331,318.82544,52,57,0
318.6331,318.82544,57,67,0
318.82544,319.01205,57,73,0
318.82544,319.01205,52,61,0
318.82544,319.01205,49,61,0
319.19867,319.3754,53,56,0
319.19867,319.3754,62,66,0
319.19867,319.3754,50,56,0
319.56357,319.75018,52,67,0
319.56357,319.75018,57,80,0
319.56357,319.75018,49,67,0
319.56357,319.75018,45,67,0
319.9368,320.11047,38,58,0
319.9368,320.11047,50,69,0
319.9368,320.11047,41,58,0
320.29337,320.47574,37,58,0
320.29337,320.47574,40,58,0
320.29337,320.47574,45,69,0
320.29337,320.47574,33,58,0
320.6581,320.85776,54,71,0
320.6581,320.85776,42,59,0
321.44516,321.61023,53,57,0
321.44516,321.61023,61,67,0
321.44516,321.61023,56,57,0
321.61023,321.80347,61,67,0
321.05743,321.80347,49,78,0
321.05743,321.80347,37,64,0
321.05743,321.80347,44,64,0
321.61023,321.80347,56,57,0
321.61023,321.80347,53,57,0
321.80347,321.99008,53,61,0
321.80347,321.99008,56,61,0
321.80347,321.99008,61,73,0
322.1767,322.35342,54,56,0
322.1767,322.35342,57,56,0
322.1767,322.35342,66,66,0
322.5416,322.7282,61,80,0
322.5416,322.7282,49,67,0
322.5416,322.7282,53,67,0
322.5416,322.7282,56,67,0
322.91483,323.08774,54,69,0
322.91483,323.08774,45,58,0
322.91483,323.08774,42,58,0
323.2704,323.45966,41,58,0
323.2704,323.45966,37,58,0
323.2704,323.45966,49,69,0
323.2704,323.45966,44,58,0
323.64893,323.8447,58,71,0
323.64893,323.8447,46,59,0
324.42816,324.59323,60,57,0
324.42816,324.59323,65,67,0
324.42816,324.59323,57,57,0
324.59323,324.7775,60,57,0
324.59323,324.7775,65,67,0
324.04047,324.7775,53,78,0
324.04047,324.7775,48,64,0
324.04047,324.7775,45,64,0
324.59323,324.7775,57,57,0
324.04047,324.7775,41,64,0
324.7775,324.9641,65,73,0
324.7775,324.9641,60,61,0
324.7775,324.9641,57,61,0
325.15076,325.32825,58,51,0
325.15076,325.32825,61,51,0
325.15076,325.32825,70,60,0
325.51666,325.7033,65,73,0
325.51666,325.7033,53,61,0
325.51666,325.7033,57,61,0
325.51666,325.7033,60,61,0
325.88992,326.0636,58,63,0
325.88992,326.0636,49,53,0
325.88992,326.0636,46,53,0
326.24646,326.42883,45,53,0
326.24646,326.42883,41,53,0
326.24646,326.42883,53,63,0
326.24646,326.42883,48,53,0
326.6112,326.80414,50,65,0
326.6112,326.80414,38,54,0
326.99707,327.35474,45,76,0
326.99707,327.35474,33,65,0
327.35474,327.7087,52,61,0
327.35474,327.7087,64,71,0
327.35474,327.7087,57,61,0
327.35474,327.7087,61,61,0
327.7087,328.05603,33,66,0
327.7087,328.05603,45,78,0
328.05603,328.41278,61,62,0
328.05603,328.41278,65,74,0
328.05603,328.41278,53,62,0
328.05603,328.41278,57,62,0
328.41278,328.7688,33,65,0
328.41278,328.7688,45,76,0
328.7688,329.1245,62,61,0
328.7688,329.1245,54,61,0
328.7688,329.1245,66,71,0
329.1245,329.47183,33,66,0
329.1245,329.47183,45,78,0
329.47183,329.83188,63,74,0
329.47183,329.83188,54,62,0
329.47183,329.83188,60,62,0
329.83188,330.17337,45,76,0
329.83188,330.17337,33,65,0
330.17337,330.52936,52,61,0
330.17337,330.52936,64,71,0
330.17337,330.52936,56,61,0
330.52936,330.87744,33,65,0
330.52936,330.87744,45,76,0
330.87744,331.23358,64,71,0
330.87744,331.23358,59,61,0
330.87744,331.23358,56,61,0
330.87744,331.23358,52,61,0
331.23358,331.58972,45,76,0
331.23358,331.58972,33,65,0
331.58972,331.94427,61,61,0
331.58972,331.94427,64,71,0
331.58972,331.94427,57,61,0
331.58972,331.94427,52,61,0
331.94427,332.30087,45,76,0
331.94427,332.30087,33,65,0
332.30087,332.66003,64,71,0
332.30087,332.66003,52,61,0
332.30087,332.66003,59,61,0
332.66003,333.01987,45,76,0
332.66003,333.01987,33,65,0
333.01987,333.3726,52,61,0
333.01987,333.3726,61,61,0
333.01987,333.3726,64,71,0
333.01987,333.3726,57,61,0
333.3726,333.72296,33,66,0
333.3726,333.72296,45,78,0
333.72296,334.0775,53,62,0
333.72296,334.0775,65,74,0
333.72296,334.0775,61,62,0
333.72296,334.0775,57,62,0
334.0775,334.43506,33,65,0
334.0775,334.43506,45,76,0
334.43506,334.79388,66,71,0
334.43506,334.79388,54,61,0
334.43506,334.79388,62,61,0
334.79388,335.14426,45,78,0
334.79388,335.14426,33,66,0
335.14426,335.50284,63,74,0
335.14426,335.50284,54,62,0
335.14426,335.50284,60,62,0
335.50284,335.85406,33,65,0
335.50284,335.85406,45,76,0
335.85406,336.21106,64,71,0
335.85406,336.21106,52,61,0
335.85406,336.21106,56,61,0
336.21106,336.57034,33,65,0
336.21106,336.57034,45,76,0
336.57034,336.93158,52,61,0
336.57034,336.93158,59,61,0
336.57034,336.93158,56,61,0
336.57034,336.93158,64,71,0
336.93158,337.29193,45,76,0
336.93158,337.29193,33,65,0
337.29193,337.65082,57,61,0
337.29193,337.65082,64,71,0
337.29193,337.65082,61,61,0
337.29193,337.65082,52,61,0
337.65082,338.01892,45,76,0
337.65082,338.01892,33,65,0
338.01892,338.3792,52,61,0
338.01892,338.3792,59,61,0
338.01892,338.3792,64,71,0
338.3792,338.55405,45,40,0
338.3792,338.55405,57,48,0
338.55405,338.72787,44,35,0
338.55405,338.72787,56,42,0
338.72787,338.9005,53,49,0
338.72787,338.9005,41,42,0
338.9005,339.0722,57,44,0
338.9005,339.0722,45,37,0
339.0722,339.24292,56,52,0
339.0722,339.24292,44,44,0
339.24292,339.41364,41,42,0
339.24292,339.41364,53,49,0
339.41364,339.5846,40,45,0
339.41364,339.5846,52,53,0
339.5846,339.756,44,43,0
339.5846,339.756,56,51,0
339.756,339.926,41,48,0
339.756,339.926,53,56,0
339.926,340.09595,52,50,0
339.926,340.09595,40,42,0
340.09595,340.26523,50,58,0
340.09595,340.26523,38,49,0
340.26523,340.43445,53,52,0
340.26523,340.43445,41,44,0
340.43445,340.603,50,61,0
340.43445,340.603,38,51,0
340.603,340.77155,49,58,0
340.603,340.77155,37,49,0
340.77155,340.95474,34,52,0
340.77155,340.95474,46,62,0
341.13794,341.31152,45,40,0
341.13794,341.31152,57,48,0
341.31152,341.48434,44,35,0
341.31152,341.48434,56,42,0
341.48434,341.65625,41,42,0
341.48434,341.65625,53,49,0
341.65625,341.82733,45,37,0
341.65625,341.82733,57,44,0
341.82733,341.99765,44,44,0
341.82733,341.99765,56,52,0
341.99765,342.16708,41,42,0
341.99765,342.16708,53,49,0
342.16708,342.33572,40,45,0
342.16708,342.33572,52,53,0
342.33572,342.50348,56,51,0
342.33572,342.50348,44,43,0
342.50348,342.67346,53,56,0
342.50348,342.67346,41,48,0
342.67346,342.84244,52,50,0
342.67346,342.84244,40,42,0
342.84244,343.00818,50,58,0
342.84244,343.00818,38,49,0
343.00818,343.1739,53,52,0
343.00818,343.1739,41,44,0
343.1739,343.33905,50,61,0
343.1739,343.33905,38,51,0
343.33905,343.50482,37,49,0
343.33905,343.50482,49,58,0
343.50482,343.68634,34,52,0
343.50482,343.68634,46,62,0
343.8677,344.04117,33,40,0
343.8677,344.04117,45,48,0
344.04117,344.2076,34,40,0
344.04117,344.2076,46,48,0
344.2076,344.37363,49,48,0
344.2076,344.37363,37,41,0
344.37363,344.5392,50,49,0
344.37363,344.5392,38,42,0
344.5392,344.70428,52,50,0
344.5392,344.70428,40,42,0
344.70428,344.86877,53,51,0
344.70428,344.86877,41,42,0
344.86877,345.03287,56,51,0
344.86877,345.03287,44,43,0
345.03287,345.1966,57,52,0
345.03287,345.1966,45,44,0
345.1966,345.36,58,53,0
345.1966,345.36,46,45,0
345.36,345.52225,61,54,0
345.36,345.52225,49,45,0
345.52225,345.68338,62,54,0
345.52225,345.68338,50,46,0
345.68338,345.8446,64,55,0
345.68338,345.8446,52,46,0
345.8446,346.00662,65,55,0
345.8446,346.00662,53,46,0
346.00662,346.169,68,56,0
346.00662,346.169,56,47,0
346.169,346.3374,69,57,0
346.169,346.3374,57,48,0
346.3374,346.51382,70,57,0
346.3374,346.51382,58,48,0
346.51382,346.67703,73,58,0
346.51382,346.67703,61,49,0
346.67703,346.84085,58,48,0
346.67703,346.84085,70,57,0
346.84085,347.00537,57,47,0
346.84085,347.00537,69,56,0
347.00537,347.17065,56,46,0
347.00537,347.17065,68,55,0
347.17065,347.33676,53,45,0
347.17065,347.33676,65,54,0
347.33676,347.50363,64,52,0
347.33676,347.50363,52,44,0
347.50363,347.67126,62,51,0
347.50363,347.67126,50,43,0
347.67126,347.8397,61,50,0
347.67126,347.8397,49,42,0
347.8397,348.00897,58,50,0
347.8397,348.00897,46,42,0
348.00897,348.1788,45,43,0
348.00897,348.1788,57,51,0
348.1788,348.34775,44,45,0
348.1788,348.34775,56,53,0
348.34775,348.51584,41,46,0
348.34775,348.51584,53,54,0
348.51584,348.68307,40,47,0
348.51584,348.68307,52,56,0
348.68307,348.8495,38,48,0
348.68307,348.8495,50,57,0
348.8495,349.015,49,59,0
348.8495,349.015,37,50,0
349.015,349.17972,34,51,0
349.015,349.17972,46,60,0
349.17972,349.35233,33,40,0
349.17972,349.35233,45,48,0
349.35233,349.51874,34,40,0
349.35233,349.51874,46,48,0
349.51874,349.68445,37,41,0
349.51874,349.68445,49,48,0
349.68445,349.8495,50,49,0
349.68445,349.8495,38,42,0
349.8495,350.01382,52,50,0
349.8495,350.01382,40,42,0
350.01382,350.17752,53,51,0
350.01382,350.17752,41,42,0
350.17752,350.3405,56,51,0
350.17752,350.3405,44,43,0
350.3405,350.50293,57,52,0
350.3405,350.50293,45,44,0
350.50293,350.6651,46,46,0
350.50293,350.6651,58,54,0
350.6651,350.82617,49,46,0
350.6651,350.82617,61,56,0
350.82617,350.98724,50,48,0
350.82617,350.98724,62,56,0
350.98724,351.1487,52,49,0
350.98724,351.1487,64,58,0
351.1487,351.31073,53,49,0
351.1487,351.31073,65,59,0
351.31073,351.4731,56,51,0
351.31073,351.4731,68,61,0
351.4731,351.64163,57,53,0
351.4731,351.64163,69,63,0
351.64163,351.81808,70,63,0
351.64163,351.81808,58,53,0
351.81808,351.98126,73,73,0
351.81808,351.98126,61,73,0
352.4704,352.63345,62,70,0
352.4704,352.63345,50,58,0
352.4704,352.63345,53,58,0
352.4704,352.63345,58,58,0
353.1226,353.2856,52,59,0
353.1226,353.2856,57,71,0
353.1226,353.2856,49,59,0
353.1226,353.2856,45,59,0
353.77475,353.9378,38,69,0
353.77475,353.9378,50,81,0
353.77475,353.9378,41,69,0
353.77475,353.9378,46,69,0
354.42755,354.5107,37,30,0
354.42755,354.5107,40,36,0
354.42755,354.5107,33,30,0
354.5107,354.5935,45,37,0
354.5935,354.676,37,32,0
354.5935,354.676,40,38,0
354.5935,354.676,33,32,0
354.676,354.75812,45,39,0
354.75812,354.83994,33,34,0
354.75812,354.83994,37,34,0
354.75812,354.83994,40,41,0
354.83994,354.9214,45,42,0
354.9214,355.00253,33,36,0
354.9214,355.00253,37,36,0
354.9214,355.00253,40,43,0
355.00253,355.08334,45,44,0
355.08334,355.16394,37,38,0
355.08334,355.16394,33,38,0
355.08334,355.16394,40,45,0
355.16394,355.2449,45,46,0
355.2449,355.3263,37,37,0
355.2449,355.3263,33,37,0
355.2449,355.3263,40,44,0
355.3263,355.40802,45,43,0
355.40802,355.4901,40,42,0
355.40802,355.4901,37,35,0
355.40802,355.4901,33,35,0
355.4901,355.57263,45,40,0
355.57263,355.65555,37,33,0
355.57263,355.65555,40,39,0
355.57263,355.65555,33,33,0
355.65555,355.7389,45,38,0
355.7709,355.9096,45,66,0
355.7389,355.9096,33,55,0
355.74957,355.9096,37,58,0
355.76025,355.9096,40,61,0
356.33633,356.41315,52,62,0
356.33633,356.41315,57,74,0
356.33633,356.41315,49,62,0
356.33633,356.41315,45,62,0
356.4217,356.59238,52,68,0
356.4217,356.59238,57,81,0
356.4217,356.59238,49,68,0
356.4217,356.59238,45,68,0
357.01913,357.09595,45,74,0
357.01913,357.09595,33,62,0
357.01913,357.09595,37,62,0
357.01913,357.09595,40,62,0
357.1045,357.27518,45,81,0
357.1045,357.27518,33,68,0
357.1045,357.27518,37,68,0
357.1045,357.27518,40,68,0
