start_time,end_time,note_value,velocity,instrument_program_number
0.0,0.098511375,47,77,0
0.1313485,0.9817511,47,92,0
0.9817511,1.0799714,49,48,0
1.0799714,1.1674792,51,50,0
1.1674792,1.2463088,52,51,0
1.2463088,1.3210479,54,52,0
1.3210479,1.3953252,56,53,0
1.3953252,1.4689456,57,54,0
1.4689456,1.5418329,59,55,0
1.5418329,1.6140004,61,56,0
1.6140004,1.6854469,63,57,0
1.6854469,1.7562107,64,58,0
1.7562107,1.8263955,66,59,0
1.8263955,1.8959532,68,61,0
1.8959532,1.964864,69,62,0
1.964864,2.0331316,71,63,0
2.0331316,2.1007915,73,63,0
2.1007915,2.1678014,75,64,0
2.1678014,2.2343283,76,66,0
2.2343283,2.3002553,78,67,0
2.3002553,2.3656013,80,68,0
2.3656013,2.4303684,81,69,0
2.4303684,2.494623,83,70,0
2.494623,2.5582504,85,72,0
2.5582504,2.621462,87,72,0
2.621462,2.6841319,88,73,0
2.6841319,2.7467885,90,74,0
2.7467885,2.8094451,92,75,0
2.8094451,2.8721018,93,77,0
2.8721018,3.0600717,95,98,0
4.7267385,4.8252497,47,64,0
4.7267385,4.8252497,49,77,0
4.858087,5.684533,47,78,0
4.858087,5.684533,49,92,0
5.684533,5.7685685,51,48,0
5.7685685,5.850675,52,50,0
5.850675,5.930733,54,51,0
5.930733,6.0088325,56,52,0
6.0088325,6.0850854,57,53,0
6.0850854,6.1595583,59,54,0
6.1595583,6.2323422,61,55,0
6.2323422,6.3035107,63,56,0
6.3035107,6.373951,64,57,0
6.373951,6.4438815,66,58,0
6.4438815,6.513311,68,59,0
6.513311,6.582087,69,61,0
6.582087,6.650378,71,62,0
6.650378,6.7181826,73,63,0
6.7181826,6.785388,75,63,0
6.785388,6.8520923,76,64,0
6.8520923,6.9183326,78,66,0
6.9183326,6.9841228,80,67,0
6.9841228,7.0493264,81,68,0
7.0493264,7.114094,83,69,0
7.114094,7.1784306,85,70,0
7.1784306,7.2422404,87,72,0
7.2422404,7.305579,88,72,0
7.305579,7.3685055,90,73,0
7.3685055,7.430896,92,74,0
7.430896,7.493162,93,75,0
7.493162,7.555429,95,77,0
7.555429,7.742228,97,98,0
9.408895,9.507406,52,64,0
9.408895,9.507406,54,77,0
9.540243,10.390101,52,78,0
9.540243,10.390101,54,92,0
10.390101,10.488109,56,52,0
10.488109,10.581936,57,53,0
10.581936,10.671757,59,55,0
10.671757,10.757967,61,56,0
10.757967,10.840852,63,57,0
10.840852,10.9206085,64,59,0
10.9206085,10.99754,66,60,0
10.99754,11.071732,68,61,0
11.071732,11.143678,69,62,0
11.143678,11.2144,71,64,0
11.2144,11.284096,73,65,0
11.284096,11.352646,75,66,0
11.352646,11.4202385,76,68,0
11.4202385,11.486782,78,69,0
11.486782,11.552364,80,70,0
11.552364,11.61707,81,72,0
11.61707,11.680927,83,73,0
11.680927,11.744784,85,74,0
11.744784,11.808331,87,76,0
11.808331,11.871782,88,77,0
11.871782,11.934901,90,78,0
11.934901,11.997952,92,80,0
11.997952,12.060642,93,81,0
12.060642,12.123299,95,82,0
12.123299,12.185565,97,83,0
12.185565,12.247831,99,85,0
12.247831,12.310099,100,86,0
12.310099,12.812635,102,98,0
13.471797,13.940758,78,72,0
13.402609,13.940758,64,66,0
13.425672,13.940758,69,68,0
13.448734,13.940758,73,70,0
14.115061,14.673887,90,75,0
14.0403595,14.673887,76,70,0
14.06526,14.673887,81,72,0
14.09016,14.673887,84,73,0
14.779685,15.069037,63,64,0
14.779685,15.069037,57,64,0
14.779685,15.069037,71,76,0
15.154654,15.494328,69,67,0
15.154654,15.494328,75,67,0
15.154654,15.494328,83,79,0
15.599369,15.996195,81,80,0
15.599369,15.996195,87,80,0
15.599369,15.996195,95,95,0
17.902609,18.047956,59,65,0
17.902609,18.047956,71,77,0
18.096407,18.452383,64,65,0
18.096407,18.452383,59,65,0
18.096407,18.452383,71,77,0
18.452383,18.532001,61,52,0
18.452383,18.532001,73,61,0
18.611618,18.691236,63,53,0
18.611618,18.691236,75,63,0
18.77073,18.848879,64,55,0
18.77073,18.848879,76,65,0
18.92664,19.004139,66,57,0
18.92664,19.004139,78,67,0
19.0813,19.158155,68,58,0
19.0813,19.158155,80,69,0
19.234724,19.310946,81,71,0
19.234724,19.310946,69,71,0
19.388405,19.566553,71,61,0
19.388405,19.566553,83,73,0
19.888958,19.967327,69,55,0
19.888958,19.967327,81,65,0
19.888958,19.967327,78,65,0
20.045696,20.15882,76,59,0
20.045696,20.15882,68,59,0
20.045696,20.15882,80,71,0
20.368546,20.490562,71,55,0
20.368546,20.490562,66,55,0
20.368546,20.490562,78,65,0
20.693924,21.00988,66,61,0
20.693924,21.00988,78,73,0
21.00988,21.256592,64,56,0
21.00988,21.256592,76,66,0
21.256592,21.329266,78,65,0
20.693924,21.329266,71,73,0
21.329266,21.45791,64,61,0
21.329266,21.45791,76,73,0
21.329266,21.45791,71,73,0
21.672318,21.802076,63,53,0
21.672318,21.802076,75,62,0
22.01834,22.354662,71,57,0
22.01834,22.354662,64,57,0
22.01834,22.354662,76,68,0
23.20979,23.400238,60,65,0
23.20979,23.400238,72,77,0
23.20979,23.400238,68,65,0
23.400238,23.747072,69,65,0
23.400238,23.747072,61,65,0
23.400238,23.747072,73,77,0
23.747072,23.826061,63,52,0
23.747072,23.826061,75,61,0
23.747072,23.826061,71,52,0
23.90505,23.98404,64,53,0
23.90505,23.98404,76,63,0
23.90505,23.98404,73,53,0
24.063286,24.141047,66,55,0
24.063286,24.141047,78,65,0
24.063286,24.141047,75,55,0
24.218687,24.295849,68,57,0
24.218687,24.295849,80,67,0
24.218687,24.295849,76,57,0
24.372654,24.449224,69,58,0
24.372654,24.449224,81,69,0
24.372654,24.449224,78,58,0
24.528425,24.615433,83,71,0
24.528425,24.615433,71,71,0
24.528425,24.615433,80,71,0
24.702438,24.870602,73,61,0
24.702438,24.870602,85,73,0
24.702438,24.870602,81,61,0
25.199276,25.279533,71,55,0
25.199276,25.279533,83,65,0
25.199276,25.279533,80,65,0
25.359789,25.472065,78,59,0
25.359789,25.472065,69,59,0
25.359789,25.472065,81,71,0
25.670004,25.796125,76,55,0
25.670004,25.796125,68,55,0
25.670004,25.796125,80,65,0
26.006327,26.322283,68,61,0
26.006327,26.322283,80,73,0
26.006327,26.322283,76,61,0
26.322283,26.57104,66,56,0
26.322283,26.57104,78,66,0
26.322283,26.57104,75,56,0
26.57104,26.644245,80,65,0
26.644245,26.771797,66,61,0
26.644245,26.771797,78,73,0
26.644245,26.771797,75,61,0
26.984383,27.11414,65,53,0
26.984383,27.11414,77,62,0
26.984383,27.11414,74,53,0
27.330402,27.666725,75,57,0
27.330402,27.666725,66,57,0
27.330402,27.666725,78,68,0
28.507534,28.676651,67,52,0
28.507534,28.676651,70,52,0
28.507534,28.676651,79,62,0
28.676651,29.022703,71,52,0
28.676651,29.022703,68,52,0
28.676651,29.022703,80,62,0
29.022703,29.10405,69,48,0
29.022703,29.10405,73,48,0
29.022703,29.10405,81,57,0
29.185394,29.266739,71,49,0
29.185394,29.266739,83,58,0
29.185394,29.266739,75,49,0
29.348083,29.427073,73,51,0
29.348083,29.427073,76,51,0
29.348083,29.427073,85,60,0
29.506062,29.58505,75,51,0
29.506062,29.58505,78,51,0
29.506062,29.58505,87,61,0
29.66404,29.743029,76,52,0
29.66404,29.743029,80,52,0
29.66404,29.743029,88,62,0
29.821772,29.900213,78,53,0
29.821772,29.900213,81,53,0
29.821772,29.900213,90,63,0
29.977974,30.140312,80,55,0
29.977974,30.140312,84,55,0
29.977974,30.140312,92,65,0
30.451515,30.511793,78,50,0
30.451515,30.511793,81,50,0
30.451515,30.511793,90,59,0
30.541931,30.619692,81,45,0
30.541931,30.619692,78,45,0
30.541931,30.619692,90,53,0
30.619692,30.784166,80,52,0
30.619692,30.784166,76,52,0
30.619692,30.784166,88,62,0
30.948639,31.113113,78,52,0
30.948639,31.113113,75,52,0
30.948639,31.113113,87,62,0
31.278912,31.45497,80,49,0
31.278912,31.45497,76,49,0
31.278912,31.45497,88,58,0
31.614729,31.773964,75,47,0
31.614729,31.773964,72,47,0
31.614729,31.773964,84,56,0
31.933199,32.08994,76,49,0
31.933199,32.08994,73,49,0
31.933199,32.08994,85,58,0
32.246677,32.40342,78,51,0
32.246677,32.40342,75,51,0
32.246677,32.40342,87,60,0
32.560158,32.7169,80,52,0
32.560158,32.7169,76,52,0
32.560158,32.7169,88,62,0
32.87364,33.030376,81,53,0
32.87364,33.030376,78,53,0
32.87364,33.030376,90,63,0
33.18712,33.351593,83,55,0
33.18712,33.351593,80,55,0
33.18712,33.351593,92,65,0
33.516064,33.68054,84,56,0
33.516064,33.68054,81,56,0
33.516064,33.68054,93,67,0
33.84434,34.007473,95,72,0
33.80356,34.007473,88,68,0
33.762775,34.007473,80,65,0
34.33374,34.48051,76,53,0
34.33374,34.48051,80,53,0
34.33374,34.48051,88,63,0
34.48051,34.59625,78,55,0
34.48051,34.59625,81,55,0
34.48051,34.59625,90,65,0
34.78915,34.91051,80,57,0
34.78915,34.91051,83,57,0
34.78915,34.91051,92,68,0
35.112778,35.27459,81,60,0
35.112778,35.27459,85,60,0
35.112778,35.27459,93,71,0
35.598213,35.7408,71,53,0
35.598213,35.7408,75,53,0
35.598213,35.7408,83,63,0
35.7408,35.85744,73,55,0
35.7408,35.85744,76,55,0
35.7408,35.85744,85,65,0
36.05184,36.1816,75,57,0
36.05184,36.1816,78,57,0
36.05184,36.1816,87,68,0
36.38885,36.709366,78,62,0
36.38885,36.709366,81,62,0
36.38885,36.709366,90,73,0
36.709366,36.956074,76,56,0
36.709366,36.956074,80,56,0
36.709366,36.956074,88,66,0
36.956074,37.03831,81,51,0
36.956074,37.03831,78,51,0
36.956074,37.03831,90,60,0
37.03831,37.15967,76,56,0
37.03831,37.15967,80,56,0
37.03831,37.15967,88,67,0
37.361935,37.492825,75,52,0
37.361935,37.492825,78,52,0
37.361935,37.492825,87,62,0
37.710976,38.03149,80,56,0
37.710976,38.03149,76,56,0
37.710976,38.03149,88,66,0
38.818684,38.949196,56,80,0
38.818684,38.949196,59,80,0
38.9927,39.3416,56,72,0
38.9927,39.3416,59,86,0
39.3416,39.499794,57,61,0
39.3416,39.499794,61,73,0
39.499794,39.577557,59,65,0
39.499794,39.577557,63,76,0
39.65508,39.731647,61,67,0
39.65508,39.731647,64,79,0
40.451218,40.532562,73,66,0
40.532562,40.613907,75,66,0
40.613907,40.691666,76,67,0
40.691666,40.76943,78,68,0
40.76943,40.847187,80,69,0
40.847187,40.92495,81,69,0
40.92495,41.00271,83,70,0
41.00271,41.080467,85,71,0
41.080467,41.166477,87,72,0
41.166477,41.252487,88,72,0
41.252487,41.331474,90,73,0
41.331474,41.410465,92,74,0
41.410465,41.489452,93,75,0
41.489452,41.568443,94,75,0
41.568443,41.64806,95,75,0
41.64806,41.72768,97,69,0
41.72768,41.807297,95,72,0
41.886913,41.966534,95,72,0
41.807297,41.966534,97,69,0
41.966534,42.04615,97,68,0
42.04615,42.125767,95,72,0
42.125767,42.205387,97,69,0
42.205387,42.288536,95,72,0
42.288536,42.371685,97,70,0
42.371685,42.45483,95,72,0
42.45483,42.6209,97,70,0
42.53798,42.648537,95,72,0
42.648537,42.759098,94,70,0
42.759098,42.869656,95,71,0
42.869656,43.037815,100,80,0
42.855835,43.037815,92,76,0
42.842014,43.037815,88,73,0
44.046787,44.2208,56,80,0
44.046787,44.2208,60,80,0
44.2208,44.5697,57,72,0
44.2208,44.5697,61,86,0
44.5697,44.73021,59,61,0
44.5697,44.73021,63,73,0
44.73021,44.810467,61,65,0
44.73021,44.810467,64,76,0
44.890255,44.967873,63,67,0
44.890255,44.967873,66,79,0
45.690628,45.768997,75,66,0
45.768997,45.847366,76,66,0
45.847366,45.92574,78,67,0
45.92574,46.00411,80,68,0
46.00411,46.082478,81,69,0
46.082478,46.160847,83,69,0
46.160847,46.239216,85,70,0
46.239216,46.31759,87,71,0
46.31759,46.403595,88,72,0
46.403595,46.489605,90,72,0
46.489605,46.568596,92,73,0
46.568596,46.647583,94,74,0
46.647583,46.726574,95,75,0
46.726574,46.80556,96,75,0
46.80556,46.884552,97,75,0
46.884552,46.96354,99,69,0
46.96354,47.04253,97,72,0
47.121517,47.20051,97,72,0
47.04253,47.20051,99,69,0
47.20051,47.279495,99,68,0
47.279495,47.358486,97,72,0
47.358486,47.437473,99,69,0
47.437473,47.51773,97,72,0
47.51773,47.59799,99,70,0
47.59799,47.678246,97,72,0
47.678246,47.758503,99,70,0
47.758503,47.84653,97,72,0
47.84653,47.93456,96,70,0
47.93456,48.022587,97,70,0
48.022587,48.110615,102,71,0
48.110615,48.278774,95,80,0
48.110615,48.3068,90,73,0
49.287743,49.456863,70,46,0
49.287743,49.456863,79,60,0
49.456863,49.802914,71,46,0
49.456863,49.802914,80,60,0
49.802914,49.965603,73,43,0
49.802914,49.965603,81,56,0
49.965603,50.128296,83,57,0
49.965603,50.128296,75,44,0
50.128296,50.290985,76,45,0
50.128296,50.290985,85,59,0
50.290985,50.453674,78,45,0
50.290985,50.453674,87,59,0
50.453674,50.61633,80,46,0
50.453674,50.61633,88,60,0
50.61633,50.778667,81,47,0
50.61633,50.778667,90,61,0
50.778667,50.941006,84,49,0
50.778667,50.941006,92,63,0
50.941006,51.018806,90,47,0
51.018806,51.096607,92,47,0
51.096607,51.174408,90,53,0
50.941006,51.174408,81,47,0
51.25221,51.33001,88,57,0
51.33001,51.40781,90,52,0
51.25221,51.488068,80,52,0
51.40781,51.56832,88,55,0
51.56832,51.64858,87,56,0
51.64858,51.728836,86,51,0
51.56832,51.809093,78,51,0
51.728836,51.88935,87,60,0
51.88935,51.96961,87,49,0
51.96961,52.051586,88,49,0
51.88935,52.139614,80,49,0
52.051586,52.227642,88,57,0
52.227642,52.30988,84,47,0
52.30988,52.392117,83,47,0
52.227642,52.474354,75,47,0
52.392117,52.55659,84,55,0
52.55659,52.638824,85,48,0
52.638824,52.72106,84,48,0
52.55659,52.801537,76,48,0
52.72106,52.882008,85,57,0
52.882008,52.96248,87,51,0
52.96248,53.04295,85,51,0
52.882008,53.123425,78,51,0
53.04295,53.203896,87,59,0
53.203896,53.284367,88,50,0
53.284367,53.36484,87,50,0
53.203896,53.445312,80,50,0
53.36484,53.525784,88,60,0
53.525784,53.606255,90,53,0
53.606255,53.68673,88,53,0
53.525784,53.7672,81,53,0
53.68673,53.84767,90,61,0
53.84767,53.928146,92,53,0
53.928146,54.008617,90,53,0
53.84767,54.090855,83,53,0
54.008617,54.17309,92,63,0
54.17309,54.25533,93,57,0
54.25533,54.337563,92,52,0
54.17309,54.4198,84,52,0
54.337563,54.502037,93,60,0
54.90884,54.966064,70,41,0
54.584274,54.966064,80,58,0
54.625393,54.966064,88,61,0
54.66651,54.966064,95,70,0
54.966064,55.021336,71,41,0
55.021336,55.074512,73,42,0
55.074512,55.12571,75,43,0
55.12571,55.17508,76,44,0
55.17508,55.248466,78,45,0
55.248466,55.32185,80,45,0
55.32185,55.403194,81,45,0
55.403194,55.48454,83,45,0
55.48454,55.565884,85,46,0
55.565884,55.64723,87,47,0
55.64723,55.728577,88,47,0
55.728577,55.80992,90,48,0
55.80992,55.891266,92,49,0
55.891266,55.97261,95,52,0
55.97261,56.293724,93,42,0
56.270092,56.31699,70,42,0
56.31699,56.36251,71,43,0
56.36251,56.406685,73,44,0
56.406685,56.449562,75,45,0
56.449562,56.491283,76,45,0
56.491283,56.54018,78,45,0
56.54018,56.611473,80,45,0
56.597214,56.654247,81,45,0
56.654247,56.719326,83,46,0
56.719326,56.7844,85,47,0
56.7844,56.849476,87,48,0
56.849476,56.91455,88,48,0
56.91455,56.97963,90,49,0
56.97963,57.044704,92,50,0
57.044704,57.11379,93,50,0
57.11379,57.18421,95,50,0
57.18421,57.254635,97,51,0
57.254635,57.32387,99,51,0
57.32387,57.65832,90,50,0
57.32387,57.65832,95,50,0
57.32387,57.65832,102,64,0
57.922405,58.010433,102,50,0
57.65832,58.010433,88,42,0
57.65832,58.010433,100,55,0
58.010433,58.18649,88,46,0
58.010433,58.18649,95,46,0
58.010433,58.18649,100,60,0
58.362545,58.546707,87,44,0
58.362545,58.546707,99,57,0
58.73087,59.06532,95,46,0
58.73087,59.06532,88,46,0
58.73087,59.06532,100,60,0
59.394264,60.026176,80,55,0
60.21034,60.563133,78,53,0
60.563133,60.887688,70,52,0
60.887688,61.204147,73,53,0
60.21034,61.204147,66,45,0
61.204147,61.516773,68,45,0
61.204147,61.516773,80,54,0
61.516773,61.826256,66,48,0
61.516773,61.826256,78,56,0
61.826256,62.132538,68,48,0
61.826256,62.132538,80,56,0
62.132538,62.43546,70,51,0
62.132538,62.43546,82,61,0
62.43546,62.599934,71,56,0
62.43546,62.599934,83,66,0
62.754253,63.062897,75,58,0
62.754253,63.062897,87,69,0
63.062897,63.371536,73,56,0
63.062897,63.371536,85,66,0
63.371536,63.687553,68,51,0
63.371536,63.687553,80,61,0
63.687553,63.92336,82,61,0
63.92336,63.999928,85,60,0
63.687553,63.999928,70,51,0
63.999928,64.306206,71,54,0
63.999928,64.306206,83,64,0
64.306206,64.61249,70,51,0
64.306206,64.61249,82,60,0
64.61249,64.92511,71,57,0
64.61249,64.92511,83,68,0
64.92511,65.182846,72,60,0
64.92511,65.182846,84,69,0
65.182846,65.334816,82,55,0
65.182846,65.334816,73,53,0
65.182846,65.334816,85,72,0
65.410805,65.4678,81,51,0
65.410805,65.4678,84,61,0
65.48679,65.63877,84,70,0
65.48679,65.63877,81,70,0
65.71476,65.77175,80,51,0
65.71476,65.77175,83,60,0
65.79075,65.942726,80,59,0
65.79075,65.942726,83,70,0
66.01871,66.0757,73,52,0
66.01871,66.0757,82,62,0
66.094696,66.25521,73,58,0
66.094696,66.25521,82,69,0
66.33547,66.39566,71,51,0
66.33547,66.39566,80,61,0
66.415726,66.5677,71,57,0
66.415726,66.5677,80,68,0
66.64369,66.71968,75,51,0
66.64369,66.71968,83,60,0
66.71968,66.87165,75,57,0
66.71968,66.87165,83,68,0
66.94764,67.00463,66,50,0
66.94764,67.00463,75,59,0
67.02363,67.175606,66,55,0
67.02363,67.175606,75,65,0
67.251595,67.308586,68,51,0
67.251595,67.308586,77,61,0
67.32758,67.483826,68,56,0
67.32758,67.483826,77,67,0
67.575905,67.644966,71,48,0
67.575905,67.644966,80,57,0
67.667984,67.827225,71,52,0
67.667984,67.827225,80,62,0
67.827225,67.94665,70,44,0
67.827225,67.94665,78,52,0
67.98646,68.06737,70,45,0
67.98646,68.06737,78,53,0
68.14827,68.22918,71,45,0
68.14827,68.22918,77,53,0
68.31008,68.48015,71,50,0
68.31008,68.48015,80,59,0
68.48015,68.607704,70,45,0
68.48015,68.607704,78,53,0
68.65022,68.73903,70,45,0
68.65022,68.73903,78,53,0
68.82784,68.93822,71,45,0
68.82784,68.93822,77,53,0
69.04859,69.4007,70,52,0
69.04859,69.4007,78,62,0
69.752815,70.11448,66,67,0
70.11448,70.47614,67,67,0
70.641975,70.807816,60,50,0
70.807816,70.973656,63,50,0
70.47614,70.973656,68,70,0
70.973656,71.12563,69,67,0
71.12563,71.776726,68,69,0
71.93986,72.10299,61,50,0
72.10299,72.26613,64,50,0
71.776726,72.26613,68,69,0
72.26613,72.4181,73,62,0
72.4181,73.01964,68,66,0
73.01964,73.11345,67,53,0
73.11345,73.232925,68,60,0
73.232925,73.3524,60,50,0
73.3524,73.47005,66,50,0
73.47005,73.582375,75,56,0
73.582375,73.692665,72,50,0
73.692665,73.80072,78,50,0
73.80072,73.90948,87,56,0
73.90948,74.018234,84,49,0
74.018234,74.12699,90,49,0
74.12699,74.23574,99,56,0
74.23574,74.3445,92,50,0
74.3445,74.453255,90,50,0
74.453255,74.534424,88,56,0
74.534424,74.61559,92,47,0
74.61559,74.697296,100,47,0
74.697296,74.77953,99,47,0
74.77953,74.86245,92,57,0
74.86245,74.94592,88,50,0
74.94592,75.02996,100,50,0
75.02996,75.11427,99,50,0
75.11427,75.19817,93,59,0
75.19817,75.28379,88,52,0
75.28379,75.37121,100,52,0
75.37121,75.460175,99,52,0
75.460175,75.55076,94,59,0
75.55076,75.64735,88,53,0
75.64735,75.75294,100,53,0
75.75294,75.86901,99,53,0
75.86901,76.0584,95,65,0
75.86901,76.0584,88,54,0
76.42385,76.77596,64,43,0
76.42385,76.77596,66,51,0
76.77596,77.128075,64,45,0
76.77596,77.128075,68,53,0
77.128075,77.47865,64,46,0
77.128075,77.47865,69,55,0
77.47865,77.833595,64,47,0
77.47865,77.833595,71,56,0
77.833595,78.1956,64,49,0
77.833595,78.1956,72,58,0
78.1956,78.565475,64,51,0
78.1956,78.565475,73,60,0
78.565475,78.753624,71,52,0
78.565475,78.753624,64,52,0
78.565475,78.753624,75,62,0
78.943016,79.32181,71,55,0
78.943016,79.32181,66,51,0
78.943016,79.32181,78,68,0
79.32181,79.605896,64,50,0
79.32181,79.605896,76,59,0
79.605896,79.70059,78,52,0
79.70059,80.079384,64,56,0
79.70059,80.079384,76,66,0
79.70059,80.079384,71,56,0
80.079384,80.6113,63,51,0
80.079384,80.6113,75,60,0
80.47832,81.03029,64,55,0
80.6113,81.16995,76,65,0
80.54481,81.16995,71,55,0
81.42601,81.50702,79,56,0
81.52627,81.60214,80,55,0
81.60214,81.6567,82,55,0
81.6567,81.73688,80,59,0
81.73688,81.814575,82,55,0
81.814575,81.89032,80,59,0
81.89032,81.96497,82,54,0
81.96497,82.03906,80,59,0
82.03906,82.11281,82,60,0
82.11281,82.186485,80,63,0
82.186485,82.2595,82,68,0
82.2595,82.33712,80,59,0
82.33712,82.42525,79,60,0
82.42525,82.54082,80,63,0
82.54082,82.72176,92,68,0
82.88623,83.050705,90,56,0
82.72176,83.050705,78,59,0
83.219345,83.384575,82,55,0
83.050705,83.384575,70,57,0
83.538895,83.692604,85,50,0
83.384575,83.692604,73,58,0
83.845726,83.9977,92,55,0
83.692604,83.9977,80,58,0
84.149086,84.2999,90,52,0
83.9977,84.2999,78,59,0
84.4496,84.598724,92,54,0
84.2999,84.598724,80,59,0
84.74729,84.89478,94,57,0
84.598724,84.89478,82,62,0
85.04172,85.18803,95,59,0
84.89478,85.18803,83,66,0
85.33748,85.48607,99,63,0
85.18803,85.48607,87,69,0
85.63466,85.78324,97,59,0
85.48607,85.78324,85,66,0
85.93183,86.08921,92,56,0
85.78324,86.08921,80,61,0
86.24353,86.39785,94,54,0
86.08921,86.39785,82,61,0
86.550995,86.70413,87,59,0
86.550995,86.70413,95,59,0
86.39785,86.70413,83,64,0
86.85727,87.010185,94,56,0
86.85727,87.010185,90,56,0
86.70413,87.010185,82,60,0
87.16614,87.32797,95,59,0
87.16614,87.32797,87,59,0
87.010185,87.32797,83,68,0
87.49591,87.68283,96,61,0
87.32797,87.68283,84,69,0
87.68283,87.77009,85,53,0
87.79918,87.886185,85,51,0
87.915016,88.001526,97,50,0
87.915016,88.001526,94,50,0
88.03036,88.11612,84,53,0
88.14471,88.23023,84,49,0
88.258575,88.34361,93,49,0
88.258575,88.34361,96,49,0
88.371956,88.45627,83,54,0
88.484375,88.56846,83,49,0
88.59633,88.67994,92,49,0
88.59633,88.67994,95,49,0
88.70781,88.79073,82,55,0
88.81837,88.90492,82,51,0
88.93619,89.03,90,51,0
88.93619,89.03,94,51,0
89.058105,89.14536,80,58,0
89.174446,89.26171,80,53,0
89.290794,89.37806,83,53,0
89.290794,89.37806,92,53,0
89.40714,89.4944,83,59,0
89.52349,89.61075,83,51,0
89.63984,89.726845,87,51,0
89.63984,89.726845,95,51,0
89.75568,89.842186,75,56,0
89.87102,89.95753,75,50,0
89.98661,90.073875,78,50,0
89.98661,90.073875,87,50,0
90.10296,90.190216,77,57,0
90.21931,90.310425,77,51,0
90.3426,90.439125,89,51,0
90.3426,90.439125,80,51,0
90.46821,90.63268,80,52,0
90.46821,90.63268,83,52,0
90.46821,90.63268,92,62,0
90.63268,90.72588,78,44,0
90.63268,90.72588,82,44,0
90.63268,90.72588,90,52,0
90.79715,90.87843,85,45,0
90.79715,90.87843,90,53,0
90.79715,90.87843,82,45,0
90.95949,91.0412,89,53,0
90.95949,91.0412,86,45,0
90.95949,91.0412,83,45,0
91.12358,91.29041,80,50,0
91.12358,91.29041,92,59,0
91.12358,91.29041,83,50,0
91.29041,91.38622,90,53,0
91.29041,91.38622,78,45,0
91.29041,91.38622,82,45,0
91.45976,91.54858,82,45,0
91.45976,91.54858,85,45,0
91.45976,91.54858,90,53,0
91.63738,91.721176,86,45,0
91.63738,91.723434,83,45,0
91.63738,91.723434,89,53,0
91.90913,92.25218,90,62,0
91.80722,92.25218,78,52,0
91.841194,92.25218,82,52,0
91.87516,92.25218,85,52,0
92.59523,92.956894,66,67,0
92.956894,93.31739,67,67,0
93.40243,93.486946,60,39,0
93.486946,93.57111,63,40,0
93.31739,93.57111,68,70,0
93.57111,93.65457,69,40,0
93.65457,93.72091,68,41,0
93.72091,93.78603,69,42,0
93.78603,93.85102,70,43,0
93.85102,93.91908,71,43,0
93.91908,93.992966,72,44,0
93.992966,94.06097,73,45,0
94.06097,94.12935,74,45,0
94.12935,94.19729,75,46,0
94.19729,94.26475,76,46,0
94.26475,94.331696,77,47,0
94.331696,94.398224,78,48,0
94.398224,94.48079,79,48,0
94.46435,94.53005,80,48,0
94.53005,94.59531,83,49,0
94.59531,94.66056,81,49,0
94.74213,94.82384,73,48,0
94.82384,94.906075,76,48,0
94.66056,94.906075,80,70,0
94.906075,94.98831,85,49,0
94.98831,95.07104,80,49,0
95.07104,95.12632,79,50,0
95.12632,95.18163,80,50,0
95.18163,95.235565,81,51,0
95.267136,95.33027,82,51,0
95.33027,95.38445,83,52,0
95.38445,95.438835,84,52,0
95.438835,95.49321,85,53,0
95.49321,95.54759,86,53,0
95.54759,95.60197,87,53,0
95.60197,95.65634,88,54,0
95.65634,95.739265,89,54,0
95.711624,95.7669,90,55,0
95.7669,95.84982,91,55,0
95.82218,95.87746,92,55,0
95.87746,95.93274,95,56,0
95.93274,96.015656,93,56,0
95.98802,96.07094,92,56,0
96.07094,96.153854,84,47,0
96.153854,96.23678,90,47,0
96.23678,96.32054,93,47,0
96.32054,96.405,92,57,0
96.405,96.488335,84,50,0
96.488335,96.57044,90,50,0
96.57044,96.651215,99,50,0
96.651215,96.73279,92,59,0
96.73279,96.814354,84,52,0
96.814354,96.89592,90,52,0
96.89592,96.977486,93,52,0
96.977486,97.05905,92,59,0
97.05905,97.14062,84,53,0
97.14062,97.22218,90,53,0
97.22218,97.30375,99,53,0
97.30375,97.38492,92,56,0
97.38492,97.46609,85,47,0
97.46609,97.54779,92,47,0
97.54779,97.63003,93,47,0
97.63003,97.712944,92,57,0
97.712944,97.79642,85,50,0
97.79642,97.880455,92,50,0
97.880455,97.96477,100,50,0
97.96477,98.04867,94,59,0
98.04867,98.134285,88,52,0
98.134285,98.2217,94,52,0
98.2217,98.31067,95,52,0
98.31067,98.40125,94,59,0
98.40125,98.49784,88,53,0
98.49784,98.60343,94,53,0
98.60343,98.719505,100,53,0
98.719505,98.90574,95,56,0
98.8142,98.9089,88,46,0
99.00359,99.09829,100,47,0
98.9089,99.09829,95,47,0
99.09829,99.271416,90,57,0
99.18632,99.274345,88,48,0
99.36237,99.4504,100,50,0
99.274345,99.4504,90,49,0
99.4504,99.62353,92,59,0
99.53843,99.62646,88,50,0
99.714485,99.80251,100,51,0
99.62646,99.80251,92,50,0
99.80251,99.97564,93,59,0
99.89054,99.97857,88,52,0
100.09018,100.196915,100,52,0
99.97857,100.196915,93,52,0
100.196915,100.37004,95,62,0
100.28494,100.37297,88,53,0
100.461,100.5495,100,55,0
100.37297,100.5495,95,54,0
100.5495,100.72493,96,62,0
100.638306,100.72791,88,56,0
100.81752,100.907936,100,56,0
100.72791,100.907936,96,56,0
100.907936,101.08688,97,63,0
100.99868,101.08992,88,55,0
101.18184,101.27392,100,55,0
101.08992,101.27392,97,55,0
101.27392,101.456665,99,61,0
101.366684,101.45979,90,55,0
101.553604,101.64794,102,55,0
101.45979,101.64794,99,55,0
101.64794,101.737015,95,67,0
101.737015,101.82609,90,54,0
101.82609,101.91516,95,54,0
101.91516,102.004234,102,54,0
102.004234,102.093315,95,66,0
102.093315,102.18239,88,55,0
102.18239,102.27146,95,55,0
102.27146,102.36798,100,55,0
102.36798,102.456795,95,66,0
102.456795,102.5456,88,56,0
102.5456,102.634415,95,56,0
102.634415,102.72322,100,56,0
102.72322,102.812035,95,67,0
102.812035,102.90084,87,57,0
102.90084,102.989655,95,57,0
102.989655,103.10003,99,57,0
103.10003,103.1891,95,67,0
103.1891,103.278175,90,54,0
103.278175,103.36725,95,54,0
103.36725,103.45632,102,54,0
103.45632,103.545395,95,66,0
103.545395,103.63447,88,55,0
103.63447,103.72354,95,55,0
103.72354,103.82197,100,55,0
103.82197,103.91078,95,66,0
103.91078,103.99959,88,56,0
103.99959,104.0884,95,56,0
104.0884,104.17721,100,56,0
104.17721,104.26602,95,67,0
104.26602,104.35483,87,57,0
104.35483,104.44364,95,57,0
104.44364,104.55093,99,57,0
104.55093,104.63768,95,63,0
104.63768,104.72453,102,51,0
104.55093,104.72453,90,65,0
104.72453,104.81205,95,50,0
104.81205,104.89976,102,49,0
104.89976,104.988045,95,60,0
104.988045,105.07677,100,50,0
104.89976,105.07677,88,63,0
105.07677,105.16584,95,49,0
105.16584,105.25545,100,49,0
105.25545,105.34532,95,58,0
105.34532,105.43582,100,49,0
105.25545,105.43582,88,61,0
105.43582,105.52658,95,49,0
105.52658,105.618095,100,49,0
105.618095,105.70977,95,57,0
105.70977,105.80213,99,49,0
105.618095,105.80213,87,59,0
105.80213,105.89581,95,48,0
105.89581,106.0076,99,48,0
106.0076,106.09912,95,57,0
106.09912,106.19111,102,45,0
106.0076,106.19111,90,58,0
106.19111,106.28373,95,44,0
106.28373,106.37698,102,44,0
106.37698,106.471085,95,54,0
106.471085,106.56568,100,44,0
106.37698,106.56568,88,57,0
106.56568,106.66095,95,44,0
106.66095,106.75689,100,43,0
106.75689,106.85373,95,52,0
106.85373,106.95184,100,44,0
106.75689,106.95184,88,54,0
106.95184,107.051414,95,43,0
107.051414,107.15182,100,42,0
107.15182,107.25273,95,51,0
107.25273,107.35415,99,43,0
107.15182,107.35415,87,53,0
107.35415,107.456436,95,42,0
107.456436,107.55925,99,38,0
107.55925,107.660736,76,49,0
107.660736,107.76106,80,49,0
107.76106,107.86022,88,49,0
107.86022,107.95796,95,49,0
107.95796,108.054344,102,49,0
108.054344,108.14968,100,49,0
108.14968,108.24365,95,49,0
108.24365,108.336334,94,49,0
108.336334,108.42786,97,50,0
108.42786,108.51903,95,50,0
108.51903,108.60972,92,50,0
108.60972,108.69981,91,50,0
108.69981,108.78964,93,51,0
108.78964,108.878716,92,51,0
108.878716,108.9675,88,51,0
108.9675,109.055786,87,51,0
109.055786,109.14355,90,52,0
109.14355,109.231064,88,52,0
109.231064,109.31782,83,52,0
109.31782,109.404335,82,53,0
109.404335,109.49035,85,53,0
109.49035,109.575584,83,53,0
109.575584,109.659424,80,53,0
109.659424,109.74327,79,54,0
109.74327,109.82712,81,54,0
109.82712,109.910965,80,54,0
109.910965,109.99481,76,54,0
109.99481,110.07866,75,55,0
110.07866,110.1625,78,55,0
110.1625,110.246346,76,55,0
110.246346,110.33019,71,55,0
110.33019,110.413704,70,56,0
110.413704,110.49417,73,56,0
110.49417,110.574646,71,56,0
110.574646,110.655495,68,57,0
110.655495,110.736626,67,57,0
110.736626,110.81807,69,57,0
110.81807,110.89986,68,58,0
110.89986,110.981895,64,59,0
110.981895,111.064354,63,60,0
113.21332,113.30464,59,49,0
113.30464,113.39543,64,50,0
113.39543,113.48586,68,51,0
113.4872,113.577065,71,52,0
113.577065,113.6664,76,53,0
113.6664,113.75539,80,54,0
113.75539,113.8437,83,56,0
113.8437,113.930756,88,57,0
113.93205,114.01993,95,58,0
114.01993,114.10843,92,59,0
114.10843,114.19782,88,59,0
114.19782,114.28811,83,58,0
114.28811,114.37903,80,57,0
114.380394,114.47226,76,56,0
114.47226,114.56495,71,55,0
114.56495,114.65965,68,54,0
114.65965,114.756546,64,52,0
114.756546,114.85575,59,51,0
117.326035,118.20969,64,36,0
117.326035,118.20969,52,29,0
117.326035,118.20969,56,29,0
117.326035,118.20969,62,29,0
120.51772,121.765335,64,36,0
120.51772,121.765335,52,29,0
120.51772,121.765335,57,29,0
120.51772,121.765335,60,29,0
124.04279,125.45923,66,36,0
124.04279,125.45923,54,29,0
124.04279,125.45923,58,29,0
124.04279,125.45923,64,29,0
127.196434,127.449814,71,36,0
127.196434,127.449814,63,30,0
127.196434,127.449814,57,28,0
129.22346,129.3039,88,65,0
129.22346,129.3039,76,57,0
129.38432,129.46475,90,56,0
129.38432,129.46475,78,49,0
129.54031,129.61589,92,56,0
129.54031,129.61589,80,49,0
129.69145,129.78445,93,56,0
129.69145,129.78445,81,49,0
129.78445,129.8654,85,57,0
129.8654,129.94086,95,62,0
129.8654,129.94086,83,54,0
130.0163,130.09175,94,52,0
130.0163,130.09175,82,46,0
130.1672,130.24266,95,52,0
130.1672,130.24266,83,46,0
130.3244,130.40614,98,52,0
130.3244,130.40614,86,46,0
130.4879,130.66405,98,63,0
130.4879,130.66405,86,55,0
130.84021,131.51099,97,67,0
130.84021,131.51099,85,59,0
131.51099,131.9946,95,56,0
131.51099,131.9946,83,49,0
131.9946,132.07503,88,56,0
131.9946,132.07503,76,49,0
132.1506,132.22617,90,56,0
132.1506,132.22617,78,49,0
132.30174,132.39473,92,56,0
132.30174,132.39473,80,49,0
132.39473,132.47568,83,57,0
132.47568,132.55113,93,62,0
132.47568,132.55113,81,54,0
132.62659,132.70204,92,52,0
132.62659,132.70204,80,46,0
132.7775,132.85294,93,52,0
132.7775,132.85294,81,46,0
132.9347,133.01643,96,52,0
132.9347,133.01643,84,46,0
133.09818,133.2759,95,63,0
133.09818,133.2759,83,55,0
133.45363,134.12402,93,67,0
133.45363,134.12402,81,59,0
134.12402,134.44942,93,56,0
134.12402,134.44942,81,49,0
134.44942,134.52983,83,65,0
134.44942,134.52983,71,57,0
134.61026,134.69069,84,56,0
134.61026,134.69069,72,49,0
134.76627,134.84183,87,56,0
134.76627,134.84183,75,49,0
134.9174,135.01039,88,56,0
134.9174,135.01039,76,49,0
135.01039,135.09134,81,57,0
135.09134,135.1668,91,62,0
135.09134,135.1668,79,54,0
135.24225,135.3177,90,52,0
135.24225,135.3177,78,46,0
135.39316,135.4686,91,52,0
135.39316,135.4686,79,46,0
135.55035,135.6321,93,52,0
135.55035,135.6321,81,46,0
135.71384,135.89478,91,63,0
135.71384,135.89478,79,55,0
136.07571,136.74913,90,67,0
136.07571,136.74913,78,59,0
136.74913,137.07451,90,56,0
136.74913,137.07451,78,49,0
137.07451,137.15494,83,65,0
137.07451,137.15494,71,57,0
137.23537,137.3158,84,56,0
137.23537,137.3158,72,49,0
137.39136,137.46692,87,56,0
137.39136,137.46692,75,49,0
137.5425,137.61806,88,56,0
137.5425,137.61806,76,49,0
137.69362,137.77095,90,62,0
137.69362,137.77095,78,54,0
137.84827,137.92558,76,39,0
137.84827,137.92558,88,52,0
138.0029,138.08023,79,51,0
138.0029,138.08023,91,60,0
138.16197,138.25005,78,47,0
138.16197,138.25005,90,56,0
138.33813,138.41545,76,54,0
138.33813,138.41545,88,64,0
138.49277,138.57008,75,46,0
138.49277,138.57008,87,55,0
138.6474,138.72473,79,51,0
138.6474,138.72473,91,60,0
138.80647,138.88821,78,46,0
138.80647,138.88821,90,55,0
138.96996,139.0517,76,50,0
138.96996,139.0517,88,59,0
139.54216,139.59666,64,57,0
139.6239,139.70433,64,65,0
139.78476,139.86519,66,56,0
139.94077,140.01633,68,56,0
140.09189,140.18489,69,56,0
140.18489,140.26584,73,57,0
140.26584,140.34315,71,62,0
140.42049,140.4978,70,52,0
140.57512,140.65244,71,52,0
140.73122,140.81,74,52,0
140.88878,140.9704,76,65,0
140.88878,141.052,74,65,0
141.052,141.13362,78,56,0
141.20918,141.28474,80,56,0
141.36032,141.45331,81,56,0
141.45331,141.53426,85,57,0
141.53426,141.61157,83,66,0
141.6889,141.76622,82,58,0
141.84354,141.92085,83,57,0
142.0026,142.08435,88,57,0
142.32695,142.40738,64,56,0
142.48294,142.5585,66,56,0
142.63408,142.72707,68,56,0
142.72707,142.80801,71,57,0
142.80801,142.88535,69,62,0
142.96266,143.03998,68,52,0
143.1173,143.19461,69,52,0
143.27339,143.35219,72,52,0
143.43097,143.59286,71,65,0
143.59286,143.67381,76,56,0
143.74937,143.82495,78,56,0
143.90051,143.9935,80,56,0
143.9935,144.07446,83,57,0
144.07446,144.15178,81,66,0
144.2291,144.30641,80,56,0
144.38373,144.46106,81,56,0
144.5428,144.62454,88,56,0
144.70628,144.78671,59,65,0
144.86714,144.94757,60,56,0
145.02313,145.09871,63,56,0
145.17427,145.26727,64,56,0
145.26727,145.30774,67,57,0
145.30774,145.34822,69,57,0
145.34822,145.42554,67,62,0
145.50285,145.58017,66,52,0
145.6575,145.73482,67,52,0
145.8136,145.89238,69,52,0
145.97116,146.13438,67,65,0
146.13438,146.21599,70,56,0
146.29156,146.36713,76,56,0
146.44269,146.53569,77,56,0
146.53569,146.57616,78,57,0
146.57616,146.61664,79,57,0
146.61664,146.69395,78,66,0
146.77127,146.84859,77,53,0
146.92592,147.00323,78,53,0
147.08498,147.16672,90,59,0
147.24846,147.33398,95,65,0
147.24846,147.33398,83,57,0
147.41951,147.50502,96,56,0
147.41951,147.50502,84,49,0
147.58258,147.66014,99,56,0
147.58258,147.66014,87,49,0
147.7377,147.81526,100,56,0
147.7377,147.81526,88,49,0
147.89282,147.97285,102,62,0
147.89282,147.97285,90,54,0
148.0529,148.13295,88,39,0
148.0529,148.13295,100,52,0
148.213,148.29303,91,51,0
148.213,148.29303,103,60,0
148.38483,148.49017,90,47,0
148.38483,148.49017,102,56,0
148.5955,148.68816,88,54,0
148.5955,148.68816,100,64,0
148.7808,148.87346,87,46,0
148.7808,148.87346,99,55,0
148.97879,149.08414,91,51,0
148.97879,149.08414,103,60,0
149.19785,149.31157,90,46,0
149.19785,149.31157,102,55,0
149.43513,149.55869,88,50,0
149.43513,149.55869,100,59,0
150.30005,150.38242,76,63,0
150.4236,150.57753,76,70,0
150.57753,150.6545,81,61,0
150.4236,150.73006,72,59,0
150.73006,150.8812,81,61,0
150.8812,150.96254,84,61,0
150.73006,151.04388,72,51,0
151.04388,151.20021,84,68,0
151.20021,151.27838,83,59,0
151.04388,151.35654,74,57,0
151.35654,151.50699,83,59,0
151.50699,151.57594,76,59,0
151.58221,151.65744,83,56,0
151.35654,151.65744,74,50,0
151.58221,151.65744,72,45,0
151.58221,151.65744,76,45,0
151.65744,151.73561,81,68,0
151.97011,152.58368,76,54,0
151.97011,152.58368,72,54,0
151.97011,152.58368,81,64,0
152.58368,152.73413,81,66,0
152.73413,152.80936,84,64,0
152.58368,152.88458,72,56,0
152.88458,153.0385,84,70,0
152.88458,153.0385,76,70,0
153.0385,153.11546,79,61,0
152.88458,153.19102,72,59,0
153.19102,153.34216,79,61,0
153.19102,153.34216,76,51,0
153.34216,153.42351,77,51,0
153.34216,153.42351,81,61,0
153.50485,153.66118,81,68,0
153.50485,153.66118,77,57,0
153.66118,153.73935,74,59,0
153.50485,153.81752,71,57,0
153.81752,153.96797,74,50,0
153.81752,153.96797,77,59,0
153.96797,154.05394,79,59,0
154.07114,154.14992,79,56,0
154.14992,154.23288,72,57,0
154.14992,154.23288,76,68,0
154.3988,154.48177,71,47,0
154.3988,154.48177,75,56,0
154.48177,155.09534,72,54,0
154.48177,155.09534,76,64,0
155.09534,155.17056,76,62,0
155.09534,155.17056,72,56,0
155.17056,155.24579,79,61,0
155.39624,155.55017,76,70,0
155.55017,155.62712,79,61,0
155.39624,155.7027,72,59,0
155.7027,155.85382,79,61,0
155.85382,155.93517,84,61,0
155.7027,156.01651,72,51,0
156.01651,156.17285,76,57,0
156.01651,156.17285,84,68,0
156.17285,156.251,79,50,0
156.17285,156.251,83,59,0
156.32918,156.47963,76,50,0
156.32918,156.47963,84,59,0
156.47963,156.54231,82,59,0
156.47963,156.55486,79,50,0
156.55486,156.63008,82,56,0
156.63008,156.71103,81,68,0
156.63008,156.71103,77,59,0
156.95389,157.56744,77,54,0
156.95389,157.56744,72,54,0
156.95389,157.56744,81,64,0
157.56744,157.7179,72,56,0
157.56744,157.7179,84,66,0
157.86835,158.02228,83,70,0
158.02228,158.09924,76,61,0
157.86835,158.1748,71,59,0
158.1748,158.32594,76,51,0
158.32594,158.40729,75,61,0
158.48863,158.64496,75,68,0
158.64496,158.72313,83,59,0
158.80128,158.95174,71,50,0
158.80128,158.95174,83,59,0
158.95174,159.038,75,59,0
159.12425,159.28307,71,57,0
159.12425,159.28307,78,68,0
159.28307,159.36247,76,61,0
159.44188,159.59581,71,54,0
159.44188,159.59581,75,64,0
159.59581,159.67278,78,61,0
159.74973,159.90854,76,55,0
159.74973,159.90854,71,51,0
160.29305,160.4166,88,63,0
160.29305,160.4166,76,57,0
160.4166,160.57053,88,59,0
160.4166,160.57053,76,70,0
160.57053,160.64748,81,61,0
160.72305,160.87419,93,51,0
160.72305,160.87419,81,61,0
160.87419,160.95554,84,61,0
161.03688,161.1932,96,68,0
161.1932,161.27138,95,59,0
161.03688,161.34953,84,57,0
161.34953,161.49998,95,59,0
161.49998,161.57521,88,59,0
161.57521,161.65044,95,56,0
161.34953,161.65044,83,50,0
161.65044,161.73074,93,68,0
161.65044,161.73074,81,62,0
161.97163,162.5852,84,54,0
161.97163,162.5852,81,54,0
161.97163,162.5852,93,64,0
162.5852,162.73566,84,56,0
162.5852,162.73566,93,66,0
162.73566,162.81088,96,64,0
162.73566,162.81088,88,60,0
162.88611,163.04002,96,70,0
162.88611,163.04002,88,70,0
163.04002,163.11699,91,61,0
162.88611,163.19257,84,59,0
163.19257,163.34369,91,61,0
163.19257,163.34369,88,51,0
163.34369,163.42503,89,51,0
163.34369,163.42503,93,61,0
163.19257,163.50638,79,59,0
163.50638,163.66272,93,68,0
163.50638,163.66272,89,57,0
163.66272,163.74088,86,59,0
163.50638,163.81905,81,57,0
163.81905,163.9695,86,50,0
163.81905,163.9695,89,59,0
163.9695,164.05547,91,59,0
164.07266,164.15144,91,56,0
163.81905,164.15144,77,59,0
164.15144,164.23239,84,57,0
164.15144,164.23239,88,68,0
164.15144,164.23239,76,57,0
164.47523,165.0888,84,54,0
164.47523,165.0888,88,64,0
164.47523,165.0888,76,54,0
165.0888,165.16403,88,67,0
165.16403,165.23926,91,65,0
165.0888,165.38971,79,59,0
165.38971,165.54364,76,64,0
165.38971,165.54364,84,77,0
165.54364,165.62059,88,67,0
165.54364,165.62059,79,55,0
165.69617,165.84729,79,56,0
165.69617,165.84729,88,67,0
165.84729,165.92865,91,67,0
165.84729,165.92865,84,55,0
166.01,166.16632,84,62,0
166.01,166.16632,91,74,0
166.16632,166.24449,88,55,0
166.16632,166.24449,96,64,0
166.32265,166.4731,88,55,0
166.32265,166.4731,96,64,0
166.4731,166.52325,91,55,0
166.4731,166.52325,94,64,0
166.54832,166.62355,94,61,0
166.54832,166.62355,91,55,0
166.62355,166.70172,93,74,0
166.62355,166.70172,89,67,0
166.93622,167.54977,89,59,0
166.93622,167.54977,81,59,0
166.93622,167.54977,93,70,0
167.54977,167.70023,84,61,0
167.54977,167.70023,96,72,0
168.00227,168.07584,88,60,0
167.85068,168.14941,83,58,0
167.85068,168.14941,95,69,0
168.14941,168.29654,88,51,0
168.29654,168.37471,87,61,0
168.14941,168.45287,95,70,0
168.14941,168.45287,83,55,0
168.45287,168.6092,87,69,0
168.6092,168.68277,95,61,0
168.6092,168.68277,83,56,0
168.90346,168.98286,87,62,0
168.75633,169.06227,83,52,0
168.75633,169.06227,95,61,0
169.06227,169.2105,90,72,0
169.2105,169.2846,88,65,0
169.06227,169.35872,83,54,0
169.06227,169.35872,95,71,0
169.35872,169.50308,88,55,0
169.50308,169.57831,87,67,0
169.35872,169.65353,95,76,0
169.35872,169.65353,83,60,0
169.80067,169.87234,95,66,0
169.80067,169.87234,83,60,0
169.65353,169.944,87,76,0
170.08734,170.162,87,67,0
169.944,170.23666,83,56,0
169.944,170.23666,95,67,0
170.23666,170.3796,90,79,0
170.3796,170.45074,88,70,0
170.23666,170.52191,83,59,0
170.23666,170.52191,95,78,0
170.52191,170.66423,87,60,0
170.66423,170.73889,90,72,0
170.52191,170.81355,95,83,0
170.52191,170.81355,83,65,0
170.95387,171.02403,88,72,0
170.81355,171.0942,95,82,0
170.81355,171.0942,83,69,0
170.81355,171.0942,90,69,0
171.23451,171.30862,90,73,0
171.0942,171.38272,87,69,0
171.0942,171.38272,95,73,0
171.0942,171.38272,83,62,0
171.38272,171.53094,95,83,0
171.38272,171.53094,88,85,0
171.38272,171.53094,83,63,0
172.27205,172.48654,71,52,0
172.84402,173.98041,72,70,0
172.77254,173.98041,64,63,0
172.70103,173.98041,60,56,0
173.98041,174.06642,71,45,0
174.06642,174.15079,72,40,0
174.06642,174.15079,76,40,0
174.15079,174.23254,75,40,0
174.23254,174.31187,76,40,0
174.23254,174.31187,72,40,0
174.31187,174.38873,71,45,0
174.38873,174.46306,76,42,0
174.38873,174.46306,72,42,0
174.46306,174.53535,75,42,0
174.53535,174.60576,76,43,0
174.53535,174.60576,72,43,0
174.60576,174.67426,71,47,0
174.67426,174.74231,72,43,0
174.67426,174.74231,76,43,0
174.74231,174.81036,75,44,0
174.81036,174.87842,76,44,0
174.81036,174.87842,72,44,0
174.87842,174.94649,71,49,0
174.94649,175.01454,76,45,0
174.94649,175.01454,72,45,0
175.01454,175.0826,75,45,0
175.0826,175.15065,76,45,0
175.0826,175.15065,72,45,0
175.15065,175.21857,71,50,0
175.21857,175.2869,72,47,0
175.21857,175.2869,76,47,0
175.2869,175.3567,75,48,0
175.3567,175.42804,76,48,0
175.3567,175.42804,72,48,0
175.42804,175.50099,71,52,0
175.50099,175.57555,76,48,0
175.50099,175.57555,72,48,0
175.57555,175.65189,75,48,0
175.65189,175.7294,76,49,0
175.65189,175.7294,72,49,0
175.7294,175.93376,84,69,0
177.21088,178.34724,75,70,0
177.13937,178.34724,66,63,0
177.06787,178.34724,63,56,0
178.34724,178.43326,74,45,0
178.43326,178.51764,75,40,0
178.43326,178.51764,78,40,0
178.51764,178.59938,77,40,0
178.59938,178.67871,78,40,0
178.59938,178.67871,75,40,0
178.67871,178.75557,74,45,0
178.75557,178.82991,78,42,0
178.75557,178.82991,75,42,0
178.82991,178.90219,77,42,0
178.90219,178.9726,78,43,0
178.90219,178.9726,75,43,0
178.9726,179.04109,74,47,0
179.04109,179.10915,75,43,0
179.04109,179.10915,78,43,0
179.10915,179.1772,77,44,0
179.1772,179.24527,78,44,0
179.1772,179.24527,75,44,0
179.24527,179.31332,74,49,0
179.31332,179.38138,78,45,0
179.31332,179.38138,75,45,0
179.38138,179.44943,77,45,0
179.44943,179.5175,78,45,0
179.44943,179.5175,75,45,0
179.5175,179.5854,74,50,0
179.5854,179.65375,75,47,0
179.5854,179.65375,78,47,0
179.65375,179.72354,77,48,0
179.72354,179.79488,78,48,0
179.72354,179.79488,75,48,0
179.79488,179.86783,74,52,0
179.86783,179.9424,78,48,0
179.86783,179.9424,75,48,0
179.9424,180.01872,77,48,0
180.01872,180.09665,78,49,0
180.01872,180.09665,75,49,0
180.09665,180.30101,87,72,0
181.57811,182.7145,76,84,0
181.50662,182.7145,71,76,0
181.43512,182.7145,64,72,0
182.7145,182.8005,75,49,0
182.8005,182.88487,76,44,0
182.8005,182.88487,83,44,0
182.88487,182.96663,78,44,0
182.88487,182.96663,82,44,0
182.96663,183.04596,83,44,0
182.96663,183.04596,79,44,0
183.04596,183.12282,75,54,0
183.12282,183.19714,83,47,0
183.12282,183.19714,76,47,0
183.19714,183.26944,78,47,0
183.19714,183.26944,82,47,0
183.26944,183.33984,83,47,0
183.26944,183.33984,79,47,0
183.33984,183.40834,75,56,0
183.40834,183.4764,76,47,0
183.40834,183.4764,83,47,0
183.4764,183.54445,78,49,0
183.4764,183.54445,82,49,0
183.54445,183.6125,83,49,0
183.54445,183.6125,79,49,0
183.6125,183.68057,75,58,0
183.68057,183.74863,83,50,0
183.68057,183.74863,76,50,0
183.74863,183.81668,78,50,0
183.74863,183.81668,82,50,0
183.81668,183.88474,83,50,0
183.81668,183.88474,79,50,0
183.88474,183.95265,75,61,0
183.95265,184.02098,76,53,0
183.95265,184.02098,83,53,0
184.02098,184.09079,78,53,0
184.02098,184.09079,82,53,0
184.09079,184.16212,83,53,0
184.09079,184.16212,79,53,0
184.16212,184.23508,78,66,0
184.23508,184.30963,88,55,0
184.23508,184.30963,79,55,0
184.30963,184.38597,87,55,0
184.30963,184.38597,82,55,0
184.38597,184.46294,88,55,0
184.38597,184.46294,83,55,0
184.46294,184.5399,82,68,0
184.5399,184.61687,91,59,0
184.5399,184.61687,83,59,0
184.61687,184.69382,90,60,0
184.61687,184.69382,87,60,0
184.69382,184.77078,91,61,0
184.69382,184.77078,88,61,0
184.77078,184.84775,87,73,0
184.84775,184.92471,95,60,0
184.84775,184.92471,88,60,0
184.92471,185.00168,94,64,0
184.92471,185.00168,90,64,0
185.00168,185.07864,95,65,0
185.00168,185.07864,88,65,0
185.07864,185.1556,90,77,0
185.1556,185.23256,100,68,0
185.1556,185.23256,91,68,0
185.23256,185.30952,99,69,0
185.23256,185.30952,94,69,0
185.30952,185.38649,100,71,0
185.30952,185.38649,95,71,0
186.95432,187.0735,71,45,0
187.1331,187.31189,71,45,0
187.31189,187.49068,72,49,0
187.49068,187.66945,71,45,0
187.66945,187.84824,70,45,0
187.84824,188.02702,71,45,0
188.02405,188.17847,76,48,0
188.23236,188.37726,75,45,0
188.4195,188.54617,74,45,0
188.58841,188.70624,73,51,0
188.74414,188.85786,72,44,0
188.89578,189.00818,71,44,0
189.04404,189.15576,70,50,0
189.19353,189.41776,71,48,0
189.19353,189.4919,64,38,0
189.41776,189.60394,72,48,0
189.99857,191.13495,72,70,0
189.93184,191.13495,64,63,0
189.86511,191.13495,60,56,0
191.13495,191.22095,71,45,0
191.22095,191.30533,72,40,0
191.22095,191.30533,76,40,0
191.30533,191.38707,75,40,0
191.38707,191.4664,76,40,0
191.38707,191.4664,72,40,0
191.4664,191.54326,71,45,0
191.54326,191.6176,76,42,0
191.54326,191.6176,72,42,0
191.6176,191.6899,75,42,0
191.6899,191.76028,76,43,0
191.6899,191.76028,72,43,0
191.76028,191.82878,71,47,0
191.82878,191.89684,72,43,0
191.82878,191.89684,76,43,0
191.89684,191.9649,75,44,0
191.9649,192.03296,76,44,0
191.9649,192.03296,72,44,0
192.03296,192.10101,71,49,0
192.10101,192.16907,76,45,0
192.10101,192.16907,72,45,0
192.16907,192.23714,75,45,0
192.23714,192.30519,76,45,0
192.23714,192.30519,72,45,0
192.30519,192.3731,71,50,0
192.3731,192.4409,72,47,0
192.3731,192.4409,76,47,0
192.4409,192.50958,75,48,0
192.50958,192.57916,76,48,0
192.50958,192.57916,72,48,0
192.57916,192.64966,71,52,0
192.64966,192.72108,76,48,0
192.64966,192.72108,72,48,0
192.72108,192.79347,75,48,0
192.79347,192.86687,76,49,0
192.79347,192.86687,72,49,0
192.86687,192.94127,72,56,0
192.94127,193.01677,76,59,0
193.01677,193.09334,84,64,0
193.09334,193.17102,76,65,0
193.17102,193.24985,72,56,0
193.24985,193.32985,64,62,0
193.32985,193.41106,72,57,0
194.3096,195.44598,75,70,0
194.2381,195.44598,66,63,0
194.1666,195.44598,63,56,0
195.44598,195.53198,74,45,0
195.53198,195.61636,75,40,0
195.53198,195.61636,78,40,0
195.61636,195.6981,77,40,0
195.6981,195.77744,78,40,0
195.6981,195.77744,75,40,0
195.77744,195.8543,74,45,0
195.8543,195.92863,78,42,0
195.8543,195.92863,75,42,0
195.92863,196.00093,77,42,0
196.00093,196.07132,78,43,0
196.00093,196.07132,75,43,0
196.07132,196.13982,74,47,0
196.13982,196.20787,75,43,0
196.13982,196.20787,78,43,0
196.20787,196.27594,77,44,0
196.27594,196.344,78,44,0
196.27594,196.344,75,44,0
196.344,196.41205,74,49,0
196.41205,196.4801,78,45,0
196.41205,196.4801,75,45,0
196.4801,196.54817,77,45,0
196.54817,196.61623,78,45,0
196.54817,196.61623,75,45,0
196.61623,196.68413,74,50,0
196.68413,196.75247,75,47,0
196.68413,196.75247,78,47,0
196.75247,196.82227,77,48,0
196.82227,196.8936,78,48,0
196.82227,196.8936,75,48,0
196.8936,196.96657,74,52,0
196.96657,197.04112,78,48,0
196.96657,197.04112,75,48,0
197.04112,197.11746,77,48,0
197.11746,197.19537,78,49,0
197.11746,197.19537,75,49,0
197.19537,197.26979,75,56,0
197.26979,197.34528,78,59,0
197.34528,197.42184,87,64,0
197.42184,197.49953,78,61,0
197.49953,197.57835,75,58,0
197.57835,197.65836,66,64,0
197.65836,197.73958,75,59,0
198.26682,198.72989,76,80,0
198.72989,199.86627,76,84,0
198.6584,199.86627,71,76,0
198.5869,199.86627,64,72,0
199.86627,199.95229,75,49,0
199.95229,200.03665,76,44,0
199.95229,200.03665,83,44,0
200.03665,200.11841,78,44,0
200.03665,200.11841,82,44,0
200.11841,200.19774,83,44,0
200.11841,200.19774,79,44,0
200.19774,200.2746,75,54,0
200.2746,200.34892,83,47,0
200.2746,200.34892,76,47,0
200.34892,200.42122,78,47,0
200.34892,200.42122,82,47,0
200.42122,200.49162,83,47,0
200.42122,200.49162,79,47,0
200.49162,200.56012,75,56,0
200.56012,200.62817,76,47,0
200.56012,200.62817,83,47,0
200.62817,200.69623,78,49,0
200.62817,200.69623,82,49,0
200.69623,200.76428,83,49,0
200.69623,200.76428,79,49,0
200.76428,200.83235,75,58,0
200.83235,200.9004,83,50,0
200.83235,200.9004,76,50,0
200.9004,200.96846,78,50,0
200.9004,200.96846,82,50,0
200.96846,201.03651,83,50,0
200.96846,201.03651,79,50,0
201.03651,201.10498,75,61,0
201.10498,201.17351,76,53,0
201.10498,201.17351,83,53,0
201.17351,201.24203,78,53,0
201.17351,201.24203,82,53,0
201.24203,201.31062,83,53,0
201.24203,201.31062,79,53,0
201.31062,201.37852,75,61,0
201.37852,201.44687,76,53,0
201.37852,201.44687,83,53,0
201.44687,201.51666,78,53,0
201.44687,201.51666,82,53,0
201.51666,201.58856,83,53,0
201.51666,201.58856,79,53,0
201.58856,201.66154,78,66,0
201.66154,201.73404,88,55,0
201.66154,201.73404,79,55,0
201.73404,201.80617,87,55,0
201.73404,201.80617,82,55,0
201.80617,201.87779,88,55,0
201.80617,201.87779,83,55,0
201.87779,201.9491,82,68,0
201.9491,202.02005,91,59,0
201.9491,202.02005,83,59,0
202.02005,202.0905,90,60,0
202.02005,202.0905,87,60,0
202.0905,202.16049,91,61,0
202.0905,202.16049,88,61,0
202.16049,202.23016,87,73,0
202.23016,202.2994,95,60,0
202.23016,202.2994,88,60,0
202.2994,202.36829,94,64,0
202.2994,202.36829,90,64,0
202.36829,202.43681,95,65,0
202.36829,202.43681,91,65,0
202.43681,202.50494,90,77,0
202.50494,202.57263,100,68,0
202.50494,202.57263,91,68,0
202.57263,202.64001,99,69,0
202.57263,202.64001,94,69,0
202.64001,202.70686,100,71,0
202.64001,202.70686,91,71,0
202.70686,202.77382,87,77,0
202.77382,202.8412,95,67,0
202.77382,202.8412,88,67,0
202.8412,202.90915,94,67,0
202.8412,202.90915,90,67,0
202.90915,202.97751,95,67,0
202.90915,202.97751,91,67,0
202.97751,203.04633,82,68,0
203.04633,203.1157,91,60,0
203.04633,203.1157,83,60,0
203.1157,203.18553,90,60,0
203.1157,203.18553,87,60,0
203.18553,203.25595,91,60,0
203.18553,203.25595,88,60,0
203.25595,203.32642,87,73,0
203.32642,203.39674,95,60,0
203.32642,203.39674,88,60,0
203.39674,203.4667,94,64,0
203.39674,203.4667,90,64,0
203.4667,203.53635,95,65,0
203.4667,203.53635,91,65,0
203.53635,203.60579,90,77,0
203.60579,203.67477,100,68,0
203.60579,203.67477,91,68,0
203.67477,203.74356,99,69,0
203.67477,203.74356,94,69,0
203.74356,203.81209,100,71,0
203.74356,203.81209,95,71,0
203.81209,203.88023,87,73,0
203.88023,203.94888,95,65,0
203.88023,203.94888,88,65,0
203.94888,204.01811,94,65,0
203.94888,204.01811,90,65,0
204.01811,204.0881,95,65,0
204.01811,204.0881,91,65,0
204.0881,204.15872,82,68,0
204.15872,204.23009,91,59,0
204.15872,204.23009,83,59,0
204.23009,204.30217,90,60,0
204.23009,204.30217,87,60,0
204.30217,204.37509,91,61,0
204.30217,204.37509,88,61,0
204.37509,204.44862,87,73,0
204.44862,204.5215,95,60,0
204.44862,204.5215,88,60,0
204.5215,204.59377,94,64,0
204.5215,204.59377,90,64,0
204.59377,204.66539,95,65,0
204.59377,204.66539,91,65,0
204.66539,204.73656,90,77,0
204.73656,204.80711,100,68,0
204.73656,204.80711,91,68,0
204.80711,204.87697,99,69,0
204.80711,204.87697,94,69,0
204.87697,204.94626,100,71,0
204.87697,204.94626,95,71,0
204.94626,205.01541,87,73,0
205.01541,205.08502,95,60,0
205.01541,205.08502,88,60,0
205.08502,205.15509,94,64,0
205.08502,205.15509,90,64,0
205.15509,205.22574,95,65,0
205.15509,205.22574,91,65,0
205.22574,205.29686,90,77,0
205.29686,205.36847,100,68,0
205.29686,205.36847,91,68,0
205.36847,205.44069,99,69,0
205.36847,205.44069,94,69,0
205.44069,205.5134,100,71,0
205.44069,205.5134,95,71,0
205.5134,205.5861,87,73,0
205.5861,205.6586,95,60,0
205.5861,205.6586,88,60,0
205.6586,205.73122,94,64,0
205.6586,205.73122,90,64,0
205.73122,205.80424,95,65,0
205.73122,205.80424,91,65,0
205.80424,205.87726,90,77,0
205.87726,205.95073,100,68,0
205.87726,205.95073,91,68,0
205.95073,206.02429,99,69,0
205.95073,206.02429,94,69,0
206.02429,206.09822,100,71,0
206.02429,206.09822,95,71,0
206.09822,206.17233,87,73,0
206.17233,206.24658,95,60,0
206.17233,206.24658,88,60,0
206.24658,206.32126,94,64,0
206.24658,206.32126,90,64,0
206.32126,206.396,95,65,0
206.32126,206.396,91,65,0
206.396,206.47122,90,77,0
206.47122,206.54645,100,68,0
206.47122,206.54645,91,68,0
206.54645,206.62224,99,69,0
206.54645,206.62224,94,69,0
206.62224,206.69826,100,71,0
206.62224,206.69826,95,71,0
206.69826,206.77464,90,77,0
206.77464,206.85133,100,64,0
206.77464,206.85133,91,64,0
206.85133,206.92828,99,63,0
206.85133,206.92828,94,63,0
206.92828,207.00581,100,62,0
206.92828,207.00581,95,62,0
207.00581,207.0834,90,69,0
207.0834,207.16158,100,60,0
207.0834,207.16158,91,60,0
207.16158,207.24004,99,59,0
207.16158,207.24004,94,59,0
207.24004,207.31882,100,59,0
207.24004,207.31882,95,59,0
207.31882,207.39796,90,64,0
207.39796,207.47737,100,57,0
207.39796,207.47737,91,57,0
207.47737,207.55742,99,56,0
207.47737,207.55742,94,56,0
207.55742,207.63754,100,55,0
207.55742,207.63754,95,55,0
207.63754,207.71823,90,57,0
207.71823,207.79927,100,46,0
207.71823,207.79927,91,46,0
207.79927,207.88062,99,46,0
207.79927,207.88062,94,46,0
207.88062,207.9624,100,45,0
207.88062,207.9624,95,45,0
207.9624,208.04446,90,52,0
208.04446,208.12715,100,44,0
208.04446,208.12715,91,44,0
208.12715,208.20998,99,44,0
208.12715,208.20998,94,44,0
208.20998,208.29337,100,44,0
208.20998,208.29337,95,40,0
208.97,209.29326,76,50,0
209.336,209.3735,79,47,0
209.3735,209.41072,81,49,0
209.41072,209.44771,83,50,0
209.44771,209.4844,84,52,0
209.48372,209.52023,86,54,0
209.52023,209.55647,88,55,0
209.55647,209.5925,89,57,0
209.5925,209.62624,91,59,0
209.29326,209.62624,77,59,0
209.62624,210.01945,93,72,0
210.01945,210.06021,91,52,0
210.06021,210.10149,89,50,0
210.10149,210.14323,88,48,0
210.14323,210.18542,86,47,0
210.18542,210.22818,84,45,0
210.22818,210.27151,83,43,0
210.27151,210.31648,81,41,0
210.31648,210.3599,79,40,0
210.3599,210.40334,77,38,0
210.40334,210.44695,76,36,0
210.44695,210.49065,74,50,0
210.69518,210.72072,74,46,0
210.72072,210.74619,76,47,0
210.74619,210.77151,77,49,0
210.77151,210.79675,79,50,0
210.79675,210.82188,81,52,0
210.82188,210.84694,83,53,0
210.84694,210.87189,84,55,0
210.87189,210.89673,86,57,0
210.89673,210.92148,88,58,0
210.92148,210.94614,89,60,0
210.94614,210.9707,91,61,0
210.9707,210.99518,93,63,0
210.99518,211.01955,95,64,0
211.01955,211.04382,96,66,0
211.04382,211.0664,98,69,0
210.66954,211.0664,72,57,0
211.0664,211.44835,100,76,0
211.44835,211.46852,98,49,0
211.46933,211.48955,96,48,0
211.48955,211.50984,95,47,0
211.50984,211.53012,93,46,0
211.53012,211.5505,91,45,0
211.5505,211.57094,89,45,0
211.57176,211.59225,88,44,0
211.59225,211.61276,86,43,0
211.61276,211.63335,84,42,0
211.63335,211.654,83,41,0
211.654,211.6747,81,40,0
211.67554,211.69626,79,40,0
211.69626,211.71706,77,39,0
211.71706,211.73795,76,38,0
211.73795,211.75883,74,37,0
211.75883,211.7798,72,36,0
211.78064,211.80165,71,36,0
211.80165,211.82275,69,35,0
211.82361,211.84218,67,56,0
212.20537,212.22594,67,39,0
212.22594,212.24641,69,40,0
212.24641,212.26686,71,41,0
212.26598,212.28632,72,43,0
212.28632,212.30663,74,44,0
212.30663,212.32687,76,45,0
212.32687,212.34702,77,47,0
212.34702,212.36714,79,48,0
212.36627,212.3863,81,49,0
212.3863,212.4063,83,51,0
212.4063,212.42622,84,52,0
212.42622,212.44608,86,53,0
212.44608,212.46588,88,54,0
212.46503,212.48476,89,56,0
212.48476,212.50444,91,57,0
212.50444,212.52406,93,58,0
212.52406,212.54361,95,59,0
212.54361,212.56313,96,60,0
212.56229,212.58168,98,62,0
212.58168,212.60138,100,63,0
212.18475,212.60225,65,54,0
212.60225,212.79736,101,72,0
212.98085,212.99838,100,47,0
212.99838,213.01599,98,46,0
213.01599,213.03372,96,46,0
213.03372,213.05153,95,45,0
213.05153,213.06944,93,45,0
213.06944,213.08748,91,44,0
213.08748,213.10559,89,44,0
213.10559,213.12383,88,43,0
213.12383,213.14215,86,42,0
213.14215,213.16054,84,42,0
213.16054,213.17899,83,41,0
213.17899,213.19754,81,41,0
213.19754,213.21619,79,40,0
213.21619,213.23495,77,39,0
213.23495,213.25383,76,39,0
213.25383,213.27283,74,38,0
213.27283,213.29193,72,38,0
213.29193,213.31116,71,37,0
213.31116,213.33049,69,36,0
213.33049,213.34995,67,36,0
213.34995,213.36978,65,35,0
213.36978,213.38736,64,35,0
213.38736,213.43242,62,56,0
213.79045,213.8275,62,45,0
213.8275,213.8653,64,46,0
213.86433,213.90204,65,47,0
213.90204,213.93855,67,47,0
213.93855,213.97592,69,48,0
213.97592,214.01213,71,49,0
213.7522,214.04813,60,57,0
214.01213,214.04907,72,50,0
214.04813,214.08496,74,51,0
214.08496,214.12067,76,52,0
214.12067,214.1572,77,53,0
214.1572,214.19258,79,53,0
214.19258,214.2287,81,54,0
214.22778,214.2637,83,55,0
214.2637,214.29861,84,56,0
214.29861,214.33424,86,57,0
214.33424,214.36887,88,58,0
214.36887,214.4042,89,59,0
214.4033,214.43845,91,60,0
214.43845,214.4726,93,60,0
214.4726,214.50746,95,61,0
214.50746,214.54135,96,62,0
214.54135,214.57593,98,63,0
214.57504,214.60945,100,64,0
214.60945,214.6413,101,65,0
214.6413,214.68657,103,75,0
215.0034,215.18445,64,50,0
215.39482,215.42123,67,45,0
215.42123,215.44746,69,46,0
215.44746,215.47359,71,47,0
215.47359,215.49953,72,48,0
215.49953,215.52538,74,50,0
215.52538,215.55106,76,51,0
215.55106,215.57661,77,52,0
215.57661,215.60202,79,54,0
215.60202,215.62732,81,55,0
215.62732,215.65245,83,56,0
215.65245,215.67749,84,57,0
215.67749,215.70236,86,59,0
215.70236,215.72714,88,60,0
215.72714,215.75294,89,61,0
215.75294,215.77655,91,62,0
215.36829,215.77655,65,57,0
215.77655,216.159,93,76,0
216.159,216.18146,91,49,0
216.18146,216.20403,89,48,0
216.20403,216.22588,88,47,0
216.22672,216.24864,86,46,0
216.24864,216.27147,84,45,0
216.27147,216.29445,83,45,0
216.29445,216.31665,81,44,0
216.31665,216.3398,79,43,0
216.3398,216.36304,77,42,0
216.36304,216.38556,76,41,0
216.38643,216.40901,74,40,0
216.40901,216.43254,72,40,0
216.43254,216.45535,71,39,0
216.45622,216.47911,69,38,0
216.47911,216.50299,67,37,0
216.50299,216.52695,65,36,0
216.52695,216.55025,64,36,0
216.55116,216.5699,62,56,0
216.94246,216.9732,62,48,0
216.9732,217.01096,64,49,0
217.01096,217.0485,65,50,0
217.0485,217.08676,67,50,0
217.08676,217.12395,69,51,0
217.12395,217.16187,71,52,0
216.91098,217.19872,60,57,0
217.16187,217.19872,72,53,0
217.19872,217.23628,74,54,0
217.2354,217.27277,76,55,0
217.27277,217.3091,77,56,0
217.3091,217.34615,79,56,0
217.34615,217.38216,81,57,0
217.38216,217.41887,83,58,0
217.41887,217.45456,84,59,0
217.45456,217.49095,86,60,0
217.49095,217.52629,88,61,0
217.52629,217.56235,89,62,0
217.56235,217.59738,91,63,0
217.59738,217.63313,93,63,0
217.63313,217.66786,95,64,0
217.66786,217.70331,96,65,0
217.70331,217.73755,98,66,0
217.73755,217.76895,100,79,0
218.09882,218.26053,64,54,0
218.09882,218.26053,60,54,0
218.09882,218.26053,70,64,0
218.42226,218.59206,59,62,0
218.42226,218.59206,64,62,0
218.42226,218.59206,71,73,0
218.59206,218.61792,60,47,0
218.61867,218.64557,62,48,0
218.64557,218.67236,64,50,0
218.67236,218.69904,65,51,0
218.69904,218.7256,67,53,0
218.7256,218.75212,69,54,0
218.75212,218.77853,71,56,0
218.77927,218.80556,72,57,0
218.80556,218.83174,74,59,0
218.83174,218.85785,76,60,0
218.85785,218.88388,77,62,0
218.88388,218.9098,79,63,0
218.9098,218.93562,81,64,0
218.93634,218.96205,83,66,0
218.96205,218.9877,84,67,0
218.9877,219.01326,86,69,0
219.01326,219.03873,88,70,0
219.03873,219.06409,89,72,0
219.06409,219.08936,91,73,0
219.09006,219.1133,93,75,0
219.11267,219.13538,83,81,0
219.41342,219.56947,59,56,0
219.41342,219.56947,63,56,0
219.41537,219.57143,71,67,0
219.72552,219.88857,59,64,0
219.72552,219.88857,64,64,0
219.72552,219.88857,71,76,0
219.88857,219.91302,60,53,0
219.9137,219.93907,62,54,0
219.93907,219.96529,64,55,0
219.96529,219.99138,65,56,0
219.99138,220.01743,67,57,0
220.01743,220.04341,69,58,0
220.04341,220.06929,71,60,0
220.07002,220.0958,72,61,0
220.0958,220.12154,74,62,0
220.12154,220.14719,76,63,0
220.14719,220.17278,77,64,0
220.17278,220.19832,79,65,0
220.19832,220.22375,81,67,0
220.22446,220.24979,83,68,0
220.24979,220.27509,84,69,0
220.27509,220.30031,86,70,0
220.30031,220.32544,88,71,0
220.32544,220.35054,89,73,0
220.35054,220.37555,91,74,0
220.37624,220.40067,93,75,0
220.40004,220.42282,95,85,0
220.70193,220.85799,75,62,0
220.70193,220.85799,83,73,0
220.70193,220.85799,78,73,0
220.70193,220.85799,71,62,0
221.01402,221.17575,76,70,0
221.01402,221.17575,80,83,0
221.01402,221.17575,83,83,0
221.01402,221.17575,71,70,0
221.35388,221.37953,72,58,0
221.37953,221.40509,74,60,0
221.40509,221.43063,76,61,0
221.43063,221.45605,77,63,0
221.45605,221.48138,79,64,0
221.48138,221.50665,81,66,0
221.50735,221.53258,83,67,0
221.53258,221.55771,84,69,0
221.55771,221.58273,86,70,0
221.58273,221.60771,88,71,0
221.60771,221.63263,89,73,0
221.63263,221.65747,91,74,0
221.65816,221.68248,93,76,0
221.68184,221.70462,95,93,0
221.98373,222.14163,75,65,0
221.98373,222.14163,83,76,0
221.98373,222.14163,78,76,0
221.98373,222.14163,71,65,0
222.29953,222.46126,80,73,0
222.29953,222.46126,83,87,0
222.29953,222.46126,88,87,0
222.29953,222.46126,76,73,0
222.9504,223.14058,92,76,0
222.9504,223.14058,95,91,0
222.9504,223.14058,100,91,0
222.9504,223.14058,88,76,0
223.33075,223.51228,76,50,0
223.73929,223.77803,79,44,0
223.77803,223.81645,81,46,0
223.81645,223.85458,83,48,0
223.85458,223.89246,84,50,0
223.89174,223.92934,86,53,0
223.92934,223.96664,88,55,0
223.96664,224.0037,89,57,0
224.0037,224.03839,91,59,0
223.6947,224.03839,77,59,0
224.03839,224.42967,93,66,0
224.42967,224.47202,91,52,0
224.47202,224.51462,89,50,0
224.51462,224.55754,88,48,0
224.55754,224.60085,86,47,0
224.60085,224.64441,84,45,0
224.64441,224.6883,83,43,0
224.6883,224.73254,81,41,0
224.73254,224.77596,79,40,0
224.77596,224.8194,77,38,0
224.8194,224.863,76,36,0
224.863,224.90671,74,50,0
225.11401,225.14043,74,45,0
225.14043,225.16666,76,46,0
225.16666,225.1928,77,47,0
225.1928,225.21873,79,48,0
225.21873,225.24458,81,50,0
225.24458,225.27025,83,51,0
225.27025,225.29582,84,52,0
225.29582,225.32121,86,54,0
225.32121,225.34651,88,55,0
225.34651,225.37164,89,56,0
225.37164,225.39668,91,57,0
225.39668,225.42155,93,59,0
225.42155,225.44633,95,60,0
225.44633,225.47214,96,61,0
225.47214,225.49576,98,62,0
225.08748,225.49576,72,57,0
225.49576,225.87819,100,76,0
225.87819,225.89899,98,49,0
225.89981,225.9207,96,48,0
225.9207,225.94171,95,47,0
225.94171,225.96277,93,46,0
225.96277,225.98389,91,45,0
225.98389,226.00511,89,45,0
226.00597,226.0273,88,44,0
226.0273,226.0487,86,43,0
226.0487,226.07016,84,42,0
226.07016,226.09177,83,41,0
226.09177,226.11342,81,40,0
226.11429,226.13605,79,40,0
226.13605,226.15787,77,39,0
226.15787,226.17982,76,38,0
226.17982,226.20184,74,37,0
226.20184,226.22397,72,36,0
226.22485,226.24704,71,36,0
226.24704,226.26944,69,35,0
226.27036,226.2891,67,56,0
226.65904,226.68007,67,38,0
226.68007,226.70105,69,39,0
226.70105,226.72197,71,40,0
226.72105,226.7419,72,41,0
226.7419,226.7627,74,42,0
226.7627,226.78336,76,43,0
226.78336,226.80394,77,44,0
226.80394,226.82446,79,45,0
226.82356,226.84404,81,46,0
226.84404,226.86441,83,47,0
226.86441,226.88477,84,48,0
226.88477,226.90501,86,49,0
226.90501,226.92522,88,49,0
226.92435,226.94443,89,50,0
226.94443,226.96446,91,51,0
226.96446,226.9844,93,52,0
226.9844,227.00432,95,53,0
227.00432,227.02415,96,54,0
227.02328,227.04306,98,55,0
227.04306,227.06273,100,56,0
226.63791,227.06358,65,54,0
227.06358,227.25871,101,68,0
227.44296,227.46196,100,47,0
227.46196,227.48106,98,46,0
227.48106,227.50029,96,46,0
227.50029,227.51962,95,45,0
227.51962,227.5391,93,45,0
227.5391,227.55869,91,44,0
227.55869,227.5785,89,44,0
227.5785,227.59845,88,43,0
227.59845,227.6185,86,42,0
227.6185,227.63869,84,42,0
227.63869,227.659,83,41,0
227.659,227.67944,81,41,0
227.67944,227.70001,79,40,0
227.70001,227.72084,77,39,0
227.72084,227.7418,76,39,0
227.7418,227.76291,74,38,0
227.76291,227.78416,72,38,0
227.78416,227.80556,71,37,0
227.80556,227.82709,69,36,0
227.82709,227.84877,67,36,0
227.84877,227.87024,65,35,0
227.87024,227.88783,64,35,0
227.88783,227.93268,62,56,0
228.28838,228.32614,62,45,0
228.32614,228.36465,64,46,0
228.36368,228.40198,65,46,0
228.40198,228.43907,67,47,0
228.43907,228.47693,69,48,0
228.47693,228.5137,71,49,0
228.24944,228.55026,60,57,0
228.5137,228.55122,72,50,0
228.55026,228.58757,74,51,0
228.58757,228.62372,76,51,0
228.62372,228.6606,77,52,0
228.6606,228.69633,79,53,0
228.69633,228.73286,81,54,0
228.73193,228.76831,83,55,0
228.76831,228.80354,84,56,0
228.80354,228.83951,86,57,0
228.83951,228.87436,88,57,0
228.87436,228.90994,89,58,0
228.90903,228.9445,91,59,0
228.9445,228.97888,93,60,0
228.97888,229.01398,95,61,0
229.01398,229.04799,96,62,0
229.04799,229.0827,98,62,0
229.08182,229.11635,100,63,0
229.11635,229.14827,101,64,0
229.14827,229.19374,103,75,0
229.51201,229.69307,64,50,0
229.90367,229.93008,67,45,0
229.93008,229.95631,69,46,0
229.95631,229.98244,71,47,0
229.98244,230.00839,72,48,0
230.00839,230.03424,74,50,0
230.03424,230.0599,76,51,0
230.0599,230.08548,77,52,0
230.08548,230.11087,79,54,0
230.11087,230.13617,81,55,0
230.13617,230.1613,83,56,0
230.1613,230.18634,84,57,0
230.18634,230.21121,86,59,0
230.21121,230.236,88,60,0
230.236,230.2618,89,61,0
230.2618,230.28542,91,62,0
229.87714,230.28542,65,57,0
230.28542,230.66785,93,76,0
230.66785,230.6903,91,49,0
230.6903,230.71288,89,48,0
230.71288,230.73473,88,47,0
230.73557,230.75749,86,46,0
230.75749,230.78032,84,45,0
230.78032,230.8033,83,45,0
230.8033,230.8255,81,44,0
230.8255,230.84865,79,43,0
230.84865,230.87189,77,42,0
230.87189,230.89441,76,41,0
230.89528,230.91786,74,40,0
230.91786,230.94139,72,40,0
230.94139,230.9642,71,39,0
230.96507,230.98796,69,38,0
230.98796,231.01184,67,37,0
231.01184,231.0358,65,36,0
231.0358,231.0591,64,36,0
231.06001,231.07875,62,56,0
231.45885,231.49675,62,46,0
231.49675,231.53537,64,47,0
231.53537,231.5729,65,47,0
231.5729,231.61118,67,48,0
231.61118,231.64836,69,49,0
231.64836,231.6863,71,50,0
231.41983,231.72314,60,57,0
231.6863,231.72314,72,51,0
231.72314,231.76071,74,51,0
231.75981,231.7972,76,52,0
231.7972,231.83353,77,53,0
231.83353,231.87056,79,54,0
231.87056,231.90657,81,55,0
231.90657,231.94328,83,56,0
231.94328,231.97897,84,56,0
231.97897,232.01537,86,57,0
232.01537,232.05072,88,58,0
232.05072,232.08676,89,59,0
232.08676,232.12181,91,60,0
232.12181,232.15755,93,61,0
232.15755,232.19229,95,61,0
232.19229,232.22772,96,62,0
232.22772,232.26198,98,63,0
232.26198,232.29337,100,74,0
232.62323,232.78496,64,54,0
232.62323,232.78496,60,54,0
232.62323,232.78496,70,64,0
232.94669,233.11234,59,62,0
232.94669,233.11234,71,73,0
232.94669,233.11234,64,62,0
233.11234,233.13629,60,44,0
233.13696,233.16257,62,45,0
233.16257,233.18887,64,46,0
233.18887,233.21509,65,47,0
233.21509,233.24118,67,48,0
233.24118,233.26723,69,50,0
233.26723,233.29317,71,51,0
233.29388,233.31972,72,52,0
233.31972,233.34547,74,53,0
233.34547,233.37115,76,54,0
233.37115,233.39674,77,56,0
233.39674,233.42221,79,57,0
233.42221,233.44765,81,58,0
233.44835,233.47368,83,59,0
233.47368,233.4989,84,60,0
233.4989,233.52402,86,61,0
233.52402,233.5491,88,63,0
233.5491,233.5741,89,64,0
233.5741,233.59898,91,65,0
233.59967,233.62288,93,66,0
233.62224,233.64494,95,81,0
233.923,234.07904,63,56,0
233.923,234.07904,59,56,0
233.92496,234.081,71,67,0
234.23509,234.39748,64,64,0
234.23509,234.39748,59,64,0
234.23509,234.39748,71,76,0
234.39748,234.42221,60,48,0
234.42294,234.44926,62,50,0
234.44926,234.47552,64,51,0
234.47552,234.50166,65,52,0
234.50166,234.52771,67,53,0
234.52771,234.55365,69,55,0
234.55365,234.57947,71,56,0
234.58018,234.60591,72,57,0
234.60591,234.63153,74,59,0
234.63153,234.65706,76,60,0
234.65706,234.6825,77,61,0
234.6825,234.70786,79,62,0
234.70786,234.73312,81,64,0
234.73383,234.75899,83,65,0
234.75899,234.78406,84,66,0
234.78406,234.80904,86,67,0
234.80904,234.83391,88,69,0
234.83391,234.85869,89,70,0
234.85869,234.88338,91,71,0
234.88406,234.90825,93,73,0
234.90762,234.9304,95,85,0
235.20952,235.36557,75,62,0
235.20952,235.36557,83,73,0
235.20952,235.36557,78,73,0
235.20952,235.36557,71,62,0
235.5216,235.68333,80,83,0
235.5216,235.68333,83,83,0
235.5216,235.68333,76,70,0
235.5216,235.68333,71,70,0
235.8626,235.88783,72,60,0
235.88783,235.91296,74,61,0
235.91296,235.938,76,63,0
235.938,235.963,77,64,0
235.963,235.9879,79,65,0
235.9879,236.0127,81,67,0
236.01338,236.03809,83,68,0
236.03809,236.06268,84,69,0
236.06268,236.08725,86,71,0
236.08725,236.11172,88,72,0
236.11172,236.1361,89,73,0
236.1361,236.16039,91,75,0
236.16106,236.18494,93,76,0
236.18431,236.20709,95,93,0
236.4862,236.6441,75,71,0
236.4862,236.6441,83,83,0
236.4862,236.6441,78,83,0
236.4862,236.6441,71,71,0
236.80199,236.95865,80,91,0
236.80199,236.95865,83,91,0
236.80199,236.95865,76,77,0
236.80199,236.95865,71,77,0
237.1366,237.162,72,63,0
237.162,237.18733,74,65,0
237.18733,237.21257,76,67,0
237.21257,237.23778,77,69,0
237.23778,237.2629,79,70,0
237.2629,237.28795,81,72,0
237.28865,237.31364,83,74,0
237.31364,237.33856,84,76,0
237.33856,237.36343,86,77,0
237.36343,237.38823,88,79,0
237.38823,237.41295,89,81,0
237.41295,237.43764,91,82,0
237.43832,237.46251,93,84,0
237.46188,237.48466,95,102,0
237.76378,237.92168,83,83,0
237.76378,237.92168,78,83,0
237.76378,237.92168,75,71,0
237.76378,237.92168,71,71,0
238.07957,238.15083,76,81,0
238.07957,238.15083,88,92,0
238.22209,238.29335,90,79,0
238.22209,238.29335,78,69,0
238.36215,238.43095,92,79,0
238.36215,238.43095,80,69,0
238.49977,238.56857,93,79,0
238.49977,238.56857,81,69,0
238.63737,238.70667,95,88,0
238.63737,238.70667,83,77,0
238.77596,238.84523,94,73,0
238.77596,238.84523,82,64,0
238.91452,238.9838,83,64,0
238.91452,238.9838,95,73,0
239.05557,239.12735,98,73,0
239.05557,239.12735,86,64,0
239.19911,239.35025,86,78,0
239.19911,239.35025,98,89,0
239.49916,240.08476,85,77,0
239.49916,240.08476,97,88,0
240.08476,240.51143,95,79,0
240.08476,240.51143,83,69,0
240.51143,240.58424,76,69,0
240.51143,240.58424,88,79,0
240.65352,240.72281,90,79,0
240.65352,240.72281,78,69,0
240.79208,240.86137,92,79,0
240.79208,240.86137,80,69,0
240.93066,241.00092,93,88,0
240.93066,241.00092,81,77,0
241.07118,241.14143,80,64,0
241.07118,241.14143,92,73,0
241.21169,241.28195,81,64,0
241.21169,241.28195,93,73,0
241.35423,241.42653,96,73,0
241.35423,241.42653,84,64,0
241.49881,241.6511,83,78,0
241.49881,241.6511,95,89,0
241.8011,242.3928,93,88,0
241.8011,242.3928,81,77,0
242.3928,242.6862,93,79,0
242.3928,242.6862,81,69,0
242.6862,242.7585,83,92,0
242.6862,242.7585,71,81,0
242.83078,242.90308,84,79,0
242.83078,242.90308,72,69,0
242.97235,243.04164,75,69,0
242.97235,243.04164,87,79,0
243.11093,243.18536,88,79,0
243.11093,243.18536,76,69,0
243.25981,243.33006,79,77,0
243.25981,243.33006,91,88,0
243.40033,243.47058,78,64,0
243.40033,243.47058,90,73,0
243.54083,243.6111,91,73,0
243.54083,243.6111,79,64,0
243.68553,243.75998,81,64,0
243.68553,243.75998,93,73,0
243.83443,243.98221,91,89,0
243.83443,243.98221,79,78,0
244.12999,244.7214,90,88,0
244.12999,244.7214,78,77,0
244.7214,245.01057,90,79,0
244.7214,245.01057,78,69,0
245.01057,245.08614,83,92,0
245.01057,245.08614,71,81,0
245.1617,245.23727,84,79,0
245.1617,245.23727,72,69,0
245.30704,245.3768,75,69,0
245.30704,245.3768,87,79,0
245.44656,245.51634,88,79,0
245.44656,245.51634,76,69,0
245.5861,245.6584,78,77,0
245.5861,245.6584,90,88,0
245.73068,245.80298,76,55,0
245.73068,245.80298,88,73,0
245.87526,245.95082,91,85,0
245.87526,245.95082,79,72,0
246.0264,246.10196,78,67,0
246.0264,246.10196,90,79,0
246.17754,246.24982,76,77,0
246.17754,246.24982,88,91,0
246.32211,246.3944,87,78,0
246.32211,246.3944,75,64,0
246.46669,246.53897,79,72,0
246.46669,246.53897,91,85,0
246.62071,246.70247,78,64,0
246.62071,246.70247,90,78,0
246.78421,246.86595,76,71,0
246.78421,246.86595,88,83,0
248.48593,248.54042,76,92,0
248.48593,248.54042,64,81,0
248.56767,248.63893,76,92,0
248.56767,248.63893,64,81,0
248.71019,248.78145,78,79,0
248.71019,248.78145,66,69,0
248.85027,248.91907,80,79,0
248.85027,248.91907,68,69,0
248.98787,249.05669,81,79,0
248.98787,249.05669,69,69,0
249.12549,249.19478,83,88,0
249.12549,249.19478,71,77,0
249.26405,249.33334,82,73,0
249.26405,249.33334,70,64,0
249.40262,249.47191,83,73,0
249.40262,249.47191,71,64,0
249.54369,249.61545,86,73,0
249.54369,249.61545,74,64,0
249.68723,249.835,86,89,0
249.68723,249.835,80,78,0
249.68723,249.835,83,78,0
249.68723,249.835,74,78,0
249.9777,250.53008,84,88,0
249.9777,250.53008,72,77,0
249.9777,250.53008,81,77,0
250.53008,250.82463,69,69,0
250.53008,250.82463,72,69,0
250.53008,250.82463,76,69,0
250.53008,250.82463,81,79,0
250.96716,251.03842,64,69,0
250.96716,251.03842,76,79,0
251.10722,251.17603,78,79,0
251.10722,251.17603,66,69,0
251.24484,251.31364,68,69,0
251.24484,251.31364,80,79,0
251.38245,251.45174,81,88,0
251.38245,251.45174,69,77,0
251.52103,251.5903,80,73,0
251.52103,251.5903,68,64,0
251.65959,251.72887,69,64,0
251.65959,251.72887,81,73,0
251.80064,251.8724,72,64,0
251.80064,251.8724,84,73,0
251.94418,252.09306,72,78,0
251.94418,252.09306,84,89,0
252.23631,252.78868,71,77,0
252.23631,252.78868,79,77,0
252.23631,252.78868,76,77,0
252.23631,252.78868,83,88,0
252.78868,253.08325,79,79,0
252.78868,253.08325,71,69,0
252.78868,253.08325,76,69,0
252.78868,253.08325,67,69,0
253.08325,253.15451,70,92,0
253.08325,253.15451,58,81,0
253.22577,253.29703,73,79,0
253.22577,253.29703,61,69,0
253.36583,253.43465,76,79,0
253.36583,253.43465,64,69,0
253.50345,253.57225,65,69,0
253.50345,253.57225,77,79,0
253.64107,253.71034,78,88,0
253.64107,253.71034,66,77,0
253.77963,253.84892,65,64,0
253.77963,253.84892,77,73,0
253.9182,253.98749,66,64,0
253.9182,253.98749,78,73,0
254.05925,254.13103,76,73,0
254.05925,254.13103,64,64,0
254.20279,254.3138,63,51,0
254.20279,254.3138,75,51,0
254.35101,254.46194,76,52,0
254.35101,254.46194,64,52,0
254.49876,254.60878,78,54,0
254.49876,254.60878,66,54,0
254.6453,254.7544,80,55,0
254.6453,254.7544,68,55,0
254.79054,254.89865,69,57,0
254.79054,254.89865,81,57,0
254.93454,255.04184,70,58,0
254.93454,255.04184,82,58,0
255.07747,255.1838,83,60,0
255.07747,255.1838,71,60,0
255.21918,255.32455,72,61,0
255.21918,255.32455,84,61,0
255.35944,255.46284,85,63,0
255.35944,255.46284,73,63,0
255.49687,255.59769,86,64,0
255.49687,255.59769,74,64,0
255.63077,255.72897,87,66,0
255.63077,255.72897,75,66,0
255.76132,255.85718,88,67,0
255.76132,255.85718,76,67,0
255.88876,255.98532,77,72,0
255.88876,255.98532,89,72,0
256.01752,256.11407,90,70,0
256.01752,256.11407,78,70,0
256.14627,256.24283,79,71,0
256.14627,256.24283,91,71,0
256.27502,256.37158,80,74,0
256.27502,256.37158,92,74,0
256.40378,256.64868,81,65,0
256.40378,256.64868,93,77,0
256.64868,256.77496,97,68,0
256.64868,256.77496,85,57,0
256.90887,257.15378,73,64,0
256.90887,257.15378,85,76,0
257.15378,257.27625,75,59,0
257.15378,257.27625,87,70,0
257.39868,257.4574,76,57,0
257.39868,257.4574,88,68,0
257.51608,257.5748,78,59,0
257.51608,257.5748,90,70,0
257.6335,257.69223,80,61,0
257.6335,257.69223,92,72,0
257.75674,257.82416,93,74,0
257.75674,257.82416,81,62,0
257.89157,258.01328,83,64,0
257.89157,258.01328,95,76,0
258.13498,258.2599,97,72,0
258.13498,258.2599,85,61,0
258.39117,258.63608,81,65,0
258.39117,258.63608,93,77,0
258.63608,258.76233,97,68,0
258.63608,258.76233,85,57,0
258.89627,259.1382,73,64,0
258.89627,259.1382,85,76,0
259.1382,259.2592,75,59,0
259.1382,259.2592,87,70,0
259.38013,259.43954,88,68,0
259.38013,259.43954,76,57,0
259.49896,259.55835,90,70,0
259.49896,259.55835,78,59,0
259.61777,259.67715,92,72,0
259.61777,259.67715,80,61,0
259.7419,259.80933,81,62,0
259.7419,259.80933,93,74,0
259.87674,259.99844,95,76,0
259.87674,259.99844,83,64,0
260.12015,260.24185,85,61,0
260.12015,260.24185,97,72,0
260.36356,260.61148,86,65,0
260.36356,260.61148,98,77,0
260.61148,260.73877,90,57,0
260.61148,260.73877,102,68,0
260.8727,261.1176,78,64,0
260.8727,261.1176,90,76,0
261.1176,261.24005,80,59,0
261.1176,261.24005,92,70,0
261.36252,261.42374,93,68,0
261.36252,261.42374,81,57,0
261.48495,261.54617,83,59,0
261.48495,261.54617,95,70,0
261.6074,261.66864,97,72,0
261.6074,261.66864,85,61,0
261.73398,261.8014,99,74,0
261.73398,261.8014,87,62,0
261.8688,261.9905,88,64,0
261.8688,261.9905,100,76,0
262.1122,262.23392,102,72,0
262.1122,262.23392,90,61,0
262.35562,262.4176,83,57,0
262.35562,262.4176,95,68,0
262.47958,262.54156,85,59,0
262.47958,262.54156,97,70,0
262.60358,262.66556,87,61,0
262.60358,262.66556,99,72,0
262.73114,262.79855,100,74,0
262.73114,262.79855,88,62,0
262.86597,262.99475,102,76,0
262.86597,262.99475,90,64,0
263.1235,263.25308,92,61,0
263.1235,263.25308,104,72,0
263.38437,263.51398,100,75,0
263.38437,263.51398,88,63,0
263.64355,263.77316,83,62,0
263.64355,263.77316,95,73,0
263.64355,263.77316,87,62,0
263.64355,263.77316,90,62,0
263.90274,264.03232,88,65,0
263.90274,264.03232,100,77,0
263.90274,264.03232,92,65,0
263.90274,264.03232,95,65,0
264.16193,264.2915,66,66,0
264.16193,264.2915,78,76,0
264.2915,264.4211,68,63,0
264.2915,264.4211,80,71,0
264.4211,264.666,81,84,0
264.4211,264.666,69,71,0
264.666,264.79227,85,74,0
264.666,264.79227,73,62,0
264.9262,265.17883,73,83,0
264.9262,265.17883,61,70,0
265.17883,265.30515,75,77,0
265.17883,265.30515,63,64,0
265.43146,265.49194,64,62,0
265.43146,265.49194,76,74,0
265.55243,265.6129,66,64,0
265.55243,265.6129,78,77,0
265.6734,265.7339,80,79,0
265.6734,265.7339,68,67,0
265.79898,265.8664,69,68,0
265.79898,265.8664,81,81,0
265.93384,266.0578,71,70,0
265.93384,266.0578,83,83,0
266.18176,266.30817,85,79,0
266.18176,266.30817,73,67,0
266.43945,266.6905,81,84,0
266.43945,266.6905,69,71,0
266.6905,266.81882,85,74,0
266.6905,266.81882,73,62,0
266.95276,267.2038,73,83,0
266.95276,267.2038,61,70,0
267.2038,267.3293,75,77,0
267.2038,267.3293,63,64,0
267.45483,267.51532,76,74,0
267.45483,267.51532,64,62,0
267.5758,267.6363,66,64,0
267.5758,267.6363,78,77,0
267.69678,267.75726,80,79,0
267.69678,267.75726,68,67,0
267.82236,267.8898,69,68,0
267.82236,267.8898,81,81,0
267.9572,268.08194,71,70,0
267.9572,268.08194,83,83,0
268.2067,268.33142,73,67,0
268.2067,268.33142,85,79,0
268.45618,268.7104,74,71,0
268.45618,268.7104,86,84,0
268.7104,268.83978,90,74,0
268.7104,268.83978,78,62,0
268.97372,269.22476,66,70,0
268.97372,269.22476,78,83,0
269.22476,269.35028,80,77,0
269.22476,269.35028,68,64,0
269.4758,269.53592,81,74,0
269.4758,269.53592,69,62,0
269.59604,269.65616,71,64,0
269.59604,269.65616,83,77,0
269.71628,269.7764,85,79,0
269.71628,269.7764,73,67,0
269.8414,269.9088,75,68,0
269.8414,269.9088,87,81,0
269.97623,270.10175,76,70,0
269.97623,270.10175,88,83,0
270.22726,270.3612,78,67,0
270.22726,270.3612,90,79,0
270.49506,270.6238,71,61,0
270.49506,270.6238,83,72,0
270.6238,270.75256,73,62,0
270.6238,270.75256,85,74,0
270.75256,270.8808,87,76,0
270.75256,270.8808,75,64,0
270.8808,271.00873,76,65,0
270.8808,271.00873,88,77,0
271.00873,271.13635,90,79,0
271.00873,271.13635,78,67,0
271.13635,271.2635,80,68,0
271.13635,271.2635,92,81,0
271.2635,271.3906,93,83,0
271.2635,271.3906,81,70,0
271.3906,271.51694,82,71,0
271.3906,271.51694,94,84,0
271.51694,271.64355,83,71,0
271.51694,271.64355,95,84,0
271.7716,271.90112,87,75,0
271.7716,271.90112,96,89,0
271.7716,271.90112,84,75,0
272.03214,272.16476,97,94,0
272.03214,272.16476,85,79,0
272.03214,272.16476,88,79,0
272.29898,272.4348,90,84,0
272.29898,272.4348,87,84,0
272.29898,272.4348,99,99,0
272.57227,272.71085,88,88,0
272.57227,272.71085,100,104,0
272.57227,272.71085,92,88,0
273.12653,273.2651,96,87,0
273.12653,273.2651,101,103,0
273.12653,273.2651,89,87,0
273.12653,273.2651,93,87,0
273.97574,274.02737,95,77,0
273.97574,274.02737,83,65,0
273.97574,274.02737,87,65,0
273.97574,274.02737,90,65,0
274.0331,274.11115,83,82,0
274.0331,274.11115,87,82,0
274.0331,274.11115,95,97,0
274.0331,274.11115,90,82,0
274.30618,274.35724,80,65,0
274.30618,274.35724,83,65,0
274.30618,274.35724,88,77,0
274.30618,274.35724,76,65,0
274.3629,274.44077,83,82,0
274.3629,274.44077,76,82,0
274.3629,274.44077,80,82,0
274.3629,274.44077,88,97,0
274.63507,274.68582,89,77,0
274.63507,274.68582,77,65,0
274.63507,274.68582,81,65,0
274.63507,274.68582,84,65,0
274.69147,274.7683,81,82,0
274.69147,274.7683,89,97,0
274.69147,274.7683,84,82,0
274.69147,274.7683,77,82,0
274.96036,275.00912,83,77,0
274.96036,275.00912,75,65,0
274.96036,275.00912,71,65,0
274.96036,275.00912,78,65,0
275.01346,275.08942,83,97,0
275.01346,275.08942,75,82,0
275.01346,275.08942,78,82,0
275.01346,275.08942,71,82,0
275.2793,275.32733,76,77,0
275.2793,275.32733,71,65,0
275.2793,275.32733,68,65,0
275.2793,275.32733,64,65,0
275.33267,275.4086,71,82,0
275.33267,275.4086,64,82,0
275.33267,275.4086,76,97,0
275.33267,275.4086,68,82,0
275.59848,275.6473,72,58,0
275.59848,275.6473,65,58,0
275.59848,275.6473,69,58,0
275.59848,275.6473,77,69,0
275.65274,275.73294,65,74,0
275.65274,275.73294,69,74,0
275.65274,275.73294,77,87,0
275.65274,275.73294,72,74,0
275.93347,275.98663,59,58,0
275.93347,275.98663,66,58,0
275.93347,275.98663,71,69,0
275.93347,275.98663,63,58,0
275.99255,276.08673,63,74,0
275.99255,276.08673,59,74,0
275.99255,276.08673,71,87,0
275.99255,276.08673,66,74,0
276.3222,276.3646,64,69,0
276.3222,276.3646,52,58,0
276.3222,276.3646,56,58,0
276.3222,276.3646,59,58,0
276.3693,276.45767,52,74,0
276.3693,276.45767,56,74,0
276.3693,276.45767,64,87,0
276.3693,276.45767,59,74,0
276.7279,276.81628,68,82,0
276.7279,276.81628,76,97,0
276.7279,276.81628,71,82,0
276.7279,276.81628,64,82,0
277.07623,277.18076,88,107,0
277.07623,277.18076,80,90,0
277.07623,277.18076,83,90,0
277.07623,277.18076,76,90,0
277.49435,278.7487,92,90,0
277.49435,278.7487,100,107,0
277.49435,278.7487,88,90,0
277.49435,278.7487,95,90,0
0.0,0.098511375,35,61,0
0.1313485,0.9817511,35,73,0
0.9817511,1.0799714,37,38,0
1.0799714,1.1674792,39,39,0
1.1674792,1.2463088,40,40,0
1.2463088,1.3210479,42,41,0
1.3210479,1.3953252,44,42,0
1.3953252,1.4689456,45,43,0
1.4689456,1.5418329,47,44,0
1.5418329,1.6140004,49,45,0
1.6140004,1.6854469,51,45,0
1.6854469,1.7562107,52,46,0
1.7562107,1.8263955,54,46,0
1.8263955,1.8959532,56,48,0
1.8959532,1.964864,57,49,0
1.964864,2.0331316,59,50,0
2.0331316,2.1007915,61,50,0
2.1007915,2.1678014,63,51,0
2.1678014,2.2343283,64,53,0
2.2343283,2.3002553,66,54,0
2.3002553,2.3656013,68,54,0
2.3656013,2.4303684,69,54,0
2.4303684,2.494623,71,55,0
2.494623,2.5582504,73,57,0
2.5582504,2.621462,75,57,0
2.621462,2.6841319,76,58,0
2.6841319,2.7467885,78,59,0
2.7467885,2.8094451,80,60,0
2.8094451,2.8721018,81,61,0
2.8721018,3.0600717,83,78,0
4.7267385,4.8252497,35,51,0
4.7267385,4.8252497,40,61,0
4.858087,5.684533,35,61,0
4.858087,5.684533,40,73,0
5.684533,5.7685685,42,38,0
5.7685685,5.850675,44,40,0
5.850675,5.930733,45,40,0
5.930733,6.0088325,47,41,0
6.0088325,6.0850854,49,42,0
6.0850854,6.1595583,51,43,0
6.1595583,6.2323422,52,44,0
6.2323422,6.3035107,54,44,0
6.3035107,6.373951,56,45,0
6.373951,6.4438815,57,46,0
6.4438815,6.513311,59,47,0
6.513311,6.582087,61,48,0
6.582087,6.650378,63,49,0
6.650378,6.7181826,64,50,0
6.7181826,6.785388,66,50,0
6.785388,6.8520923,68,51,0
6.8520923,6.9183326,69,52,0
6.9183326,6.9841228,71,53,0
6.9841228,7.0493264,73,54,0
7.0493264,7.114094,75,55,0
7.114094,7.1784306,76,56,0
7.1784306,7.2422404,78,57,0
7.2422404,7.305579,80,57,0
7.305579,7.3685055,81,58,0
7.3685055,7.430896,83,59,0
7.430896,7.493162,85,60,0
7.493162,7.555429,87,61,0
7.555429,7.742228,88,78,0
9.408895,9.507406,35,51,0
9.408895,9.507406,45,61,0
9.540243,10.390101,35,61,0
9.540243,10.390101,45,73,0
10.390101,10.488109,47,39,0
10.488109,10.581936,49,40,0
10.581936,10.671757,51,41,0
10.671757,10.757967,52,42,0
10.757967,10.840852,54,43,0
10.840852,10.9206085,56,44,0
10.9206085,10.99754,57,46,0
10.99754,11.071732,59,47,0
11.071732,11.143678,61,48,0
11.143678,11.2144,63,49,0
11.2144,11.284096,64,50,0
11.284096,11.352646,63,51,0
11.352646,11.4202385,61,52,0
11.4202385,11.486782,59,53,0
11.486782,11.552364,57,54,0
11.552364,11.61707,56,55,0
11.61707,11.680927,54,56,0
11.680927,11.744784,52,58,0
11.744784,11.808331,51,59,0
11.808331,11.871782,49,60,0
11.871782,11.934901,47,61,0
11.934901,11.997952,45,62,0
11.997952,12.060642,44,63,0
12.060642,12.123299,42,64,0
12.123299,12.185565,40,65,0
12.185565,12.247831,39,66,0
12.247831,12.310099,37,67,0
12.310099,12.812635,35,83,0
13.379546,13.940758,61,59,0
13.310358,13.940758,47,54,0
13.333421,13.940758,52,56,0
13.356483,13.940758,54,57,0
14.015459,14.673887,60,62,0
13.940758,14.673887,47,57,0
13.965658,14.673887,52,59,0
13.990559,14.673887,54,61,0
14.779685,15.069037,51,76,0
14.726787,15.069037,42,67,0
14.673887,15.069037,35,59,0
15.154654,15.494328,63,73,0
15.111845,15.494328,54,70,0
15.069037,15.494328,47,66,0
15.599369,15.996195,75,82,0
15.546848,15.996195,66,75,0
15.494328,15.996195,59,69,0
18.096407,18.452383,56,77,0
18.452383,18.532001,57,59,0
18.611618,18.77073,59,61,0
18.047956,18.77073,47,71,0
17.999508,18.77073,40,71,0
18.77073,18.848879,61,62,0
18.92664,19.004139,63,64,0
19.0813,19.158155,64,65,0
19.234724,19.310946,66,67,0
19.388405,19.566553,68,68,0
19.729242,19.810587,35,54,0
19.729242,19.810587,47,64,0
19.888958,19.967327,36,50,0
19.888958,19.967327,48,59,0
20.045696,20.15882,37,54,0
20.045696,20.15882,49,64,0
20.368546,20.490562,39,52,0
20.368546,20.490562,51,61,0
20.693924,21.00988,56,64,0
20.653252,21.00988,47,54,0
20.61258,21.00988,40,54,0
21.329266,21.45791,57,50,0
21.329266,21.45791,59,59,0
21.329266,21.45791,47,50,0
21.329266,21.45791,54,50,0
22.01834,22.354662,56,50,0
22.01834,22.354662,52,50,0
22.01834,22.354662,59,59,0
23.20979,23.400238,56,56,0
23.20979,23.400238,52,52,0
23.400238,23.747072,57,77,0
23.747072,23.826061,59,59,0
23.90505,24.063286,61,61,0
24.063286,24.141047,63,62,0
24.218687,24.295849,64,64,0
24.372654,24.449224,66,65,0
24.528425,24.615433,68,67,0
23.400238,24.702438,52,71,0
23.400238,24.702438,45,63,0
24.702438,24.870602,69,68,0
25.038763,25.119019,30,54,0
25.038763,25.119019,42,64,0
25.199276,25.279533,32,50,0
25.199276,25.279533,44,59,0
25.359789,25.472065,33,54,0
25.359789,25.472065,45,64,0
25.670004,25.796125,34,52,0
25.670004,25.796125,46,61,0
26.006327,26.322283,47,64,0
26.006327,26.322283,35,54,0
26.644245,26.771797,56,50,0
26.644245,26.771797,47,50,0
26.644245,26.771797,59,59,0
27.330402,27.666725,54,50,0
27.330402,27.666725,47,50,0
27.330402,27.666725,63,59,0
29.348083,29.977974,64,34,0
28.676651,29.977974,40,41,0
29.348083,29.977974,68,41,0
28.676651,29.977974,52,49,0
29.348083,29.977974,59,34,0
29.348083,29.977974,56,34,0
30.619692,31.278912,66,35,0
29.977974,31.278912,39,41,0
30.619692,31.278912,68,42,0
29.977974,31.278912,51,49,0
30.619692,31.278912,60,35,0
30.619692,31.278912,56,35,0
31.933199,32.560158,64,36,0
31.278912,32.560158,37,41,0
31.933199,32.560158,68,43,0
31.278912,32.560158,49,49,0
31.933199,32.560158,61,36,0
31.933199,32.560158,56,36,0
33.18712,33.84434,64,37,0
32.560158,33.84434,36,40,0
33.18712,33.84434,69,44,0
32.560158,33.84434,48,48,0
33.18712,33.84434,60,37,0
33.18712,33.84434,57,37,0
34.48051,35.112778,68,36,0
33.84434,35.112778,35,41,0
34.48051,35.112778,71,43,0
33.84434,35.112778,47,49,0
34.48051,35.112778,64,36,0
34.48051,35.112778,59,36,0
35.7408,36.38885,66,37,0
35.7408,36.38885,69,44,0
35.112778,36.38885,47,48,0
35.112778,36.38885,35,40,0
35.7408,36.38885,59,37,0
36.38885,36.549107,52,45,0
36.709366,36.873837,59,33,0
36.709366,36.873837,64,33,0
36.709366,36.873837,68,39,0
37.03831,37.15967,47,46,0
37.361935,37.492825,57,34,0
37.361935,37.492825,66,34,0
37.361935,37.492825,71,40,0
37.710976,38.03149,40,47,0
38.360435,38.513187,71,55,0
38.2782,38.513187,64,52,0
38.195965,38.513187,56,49,0
38.818684,38.949196,47,67,0
38.818684,38.949196,40,67,0
38.9927,39.3416,40,71,0
38.9927,39.3416,47,71,0
39.807682,39.883118,63,67,0
39.807682,39.883118,66,79,0
39.958145,40.032597,64,70,0
39.958145,40.032597,68,82,0
40.108597,40.19083,66,72,0
40.108597,40.19083,69,86,0
40.273067,40.451218,68,75,0
40.273067,40.451218,71,89,0
40.76943,40.847187,66,67,0
40.76943,40.847187,69,79,0
40.92495,41.080467,64,72,0
40.92495,41.080467,68,86,0
41.252487,41.410465,59,63,0
41.252487,41.410465,66,74,0
41.568443,41.886913,59,70,0
41.568443,41.886913,66,82,0
41.886913,42.125767,56,65,0
41.886913,42.125767,64,76,0
42.125767,42.205387,66,75,0
42.205387,42.371685,56,71,0
42.205387,42.371685,64,85,0
42.53798,42.70382,54,61,0
42.53798,42.70382,63,73,0
42.869656,43.20598,56,65,0
42.869656,43.20598,64,77,0
44.046787,44.177296,52,67,0
44.2208,44.5697,45,71,0
44.2208,44.5697,52,71,0
45.04487,45.121067,64,67,0
45.04487,45.121067,68,79,0
45.196667,45.27163,66,70,0
45.196667,45.27163,69,82,0
45.348007,45.430244,68,72,0
45.348007,45.430244,71,86,0
45.51248,45.690628,69,75,0
45.51248,45.690628,73,89,0
46.00411,46.082478,68,67,0
46.00411,46.082478,71,79,0
46.160847,46.31759,66,72,0
46.160847,46.31759,69,86,0
46.160847,46.31759,57,72,0
46.489605,46.647583,64,63,0
46.489605,46.647583,68,74,0
46.489605,46.647583,58,63,0
46.80556,47.121517,64,70,0
46.80556,47.121517,68,82,0
46.80556,47.121517,59,70,0
47.121517,47.358486,63,65,0
47.121517,47.358486,66,76,0
47.358486,47.437473,68,75,0
47.358486,47.437473,64,75,0
47.437473,47.59799,63,71,0
47.437473,47.59799,66,85,0
47.758503,47.93456,62,61,0
47.758503,47.93456,65,73,0
48.110615,48.446938,63,65,0
48.110615,48.446938,66,77,0
49.965603,50.128296,64,34,0
49.456863,50.128296,52,44,0
49.456863,50.128296,40,36,0
49.965603,50.128296,56,28,0
50.128296,50.290985,59,30,0
50.128296,50.290985,68,36,0
51.25221,51.40781,66,34,0
50.778667,51.40781,51,44,0
50.778667,51.40781,39,36,0
51.25221,51.40781,56,28,0
51.40781,51.56832,60,31,0
51.40781,51.56832,68,37,0
52.55659,52.72106,64,34,0
52.051586,52.72106,49,44,0
52.051586,52.72106,37,36,0
52.55659,52.72106,56,28,0
52.72106,52.882008,61,32,0
52.72106,52.882008,68,38,0
53.84767,54.008617,64,34,0
53.36484,54.008617,48,43,0
53.36484,54.008617,36,36,0
53.84767,54.008617,57,28,0
54.008617,54.17309,60,33,0
54.008617,54.17309,69,39,0
54.66651,54.966064,35,36,0
54.66651,54.966064,47,44,0
55.17508,55.32185,56,37,0
55.17508,55.32185,64,45,0
55.32185,55.443867,66,45,0
55.32185,55.443867,59,39,0
55.64723,55.76925,64,40,0
55.64723,55.76925,68,48,0
55.97261,56.293724,69,50,0
55.97261,56.293724,66,42,0
56.51166,56.654247,51,37,0
56.51166,56.654247,59,45,0
56.654247,56.776264,52,39,0
56.654247,56.776264,61,45,0
56.97963,57.10499,54,40,0
56.97963,57.10499,63,48,0
56.654247,57.32387,47,35,0
57.32387,57.65832,66,41,0
57.65832,58.010433,64,36,0
57.295715,58.010433,52,29,0
57.32387,58.010433,59,35,0
57.310387,58.010433,56,29,0
58.010433,58.18649,57,35,0
57.98109,58.18649,47,29,0
57.99576,58.18649,54,29,0
58.010433,58.18649,64,42,0
58.362545,58.546707,63,34,0
58.73087,59.06532,52,30,0
58.73087,59.06532,56,36,0
58.73087,59.06532,64,43,0
60.026176,60.3945,40,44,0
60.3945,60.72845,54,30,0
60.3945,60.72845,61,35,0
60.72845,61.04629,58,30,0
60.72845,61.04629,66,35,0
61.04629,61.360886,54,31,0
61.04629,61.360886,61,36,0
61.360886,61.671936,39,45,0
61.671936,61.979748,54,29,0
61.671936,61.979748,63,34,0
61.979748,62.284515,59,29,0
61.979748,62.284515,66,35,0
62.284515,62.599934,54,30,0
62.284515,62.599934,63,36,0
62.599934,62.908577,37,56,0
62.908577,63.217216,54,33,0
62.908577,63.217216,64,39,0
63.217216,63.528316,58,33,0
63.217216,63.528316,66,39,0
63.528316,63.846786,54,33,0
63.528316,63.846786,64,39,0
63.846786,64.15307,35,53,0
64.15307,64.45934,54,30,0
64.15307,64.45934,63,36,0
64.45934,64.765625,59,30,0
64.45934,64.765625,66,37,0
64.765625,65.05398,54,32,0
64.765625,65.05398,63,38,0
65.182846,65.334816,61,44,0
65.48679,65.63877,63,43,0
65.05398,65.79075,42,56,0
65.79075,65.942726,65,46,0
66.094696,66.25521,66,49,0
66.415726,66.5677,65,50,0
66.71968,66.87165,68,44,0
66.33547,67.02363,49,49,0
67.02363,67.175606,71,52,0
67.32758,67.483826,61,46,0
67.667984,67.98646,61,48,0
67.98646,68.06737,61,32,0
68.14827,68.22918,62,32,0
67.667984,68.31008,54,48,0
68.31008,68.65022,61,32,0
68.65022,68.73903,61,32,0
68.82784,68.93822,62,32,0
68.31008,69.04859,54,39,0
69.04859,69.4007,54,34,0
69.04859,69.4007,61,39,0
70.807816,70.973656,56,52,0
70.7249,70.973656,42,48,0
71.29864,71.44505,81,50,0
71.29864,71.44505,72,46,0
71.44505,71.776726,80,46,0
71.44505,71.776726,75,46,0
72.10299,72.26613,56,50,0
72.02142,72.26613,40,46,0
72.58963,72.73821,85,50,0
72.58963,72.73821,76,46,0
72.73821,73.11345,80,45,0
72.73821,73.11345,73,45,0
73.47005,73.80072,69,61,0
73.80072,74.12699,68,65,0
74.12699,74.453255,66,62,0
73.80072,74.453255,63,52,0
73.80072,74.453255,60,52,0
74.453255,74.77953,64,66,0
74.77953,75.11427,63,62,0
74.453255,75.11427,61,52,0
75.11427,75.460175,64,62,0
75.460175,75.809906,66,62,0
75.11427,75.86901,60,52,0
75.86901,76.247795,68,69,0
75.839455,76.247795,64,55,0
75.809906,76.247795,59,55,0
76.247795,76.59991,63,46,0
76.59991,76.95202,62,47,0
76.95202,77.30398,61,49,0
77.30398,77.65518,59,51,0
77.30398,77.65518,56,51,0
77.65518,78.01362,55,44,0
78.01362,78.37959,54,54,0
77.65518,78.37959,58,52,0
78.37959,78.753624,54,47,0
78.37959,78.753624,47,47,0
78.37959,78.753624,57,56,0
78.753624,78.943016,56,58,0
79.13241,79.32181,59,52,0
78.753624,79.5112,52,49,0
79.5112,79.70059,54,53,0
79.889984,80.079384,57,50,0
79.5112,80.6113,47,44,0
80.41183,81.16995,56,56,0
80.34534,81.16995,40,47,0
82.72176,83.050705,40,49,0
83.050705,83.384575,61,33,0
83.050705,83.384575,68,39,0
83.384575,83.692604,58,33,0
83.384575,83.692604,66,39,0
83.692604,83.9977,54,33,0
83.692604,83.9977,61,39,0
83.9977,84.2999,39,48,0
84.2999,84.598724,63,30,0
84.2999,84.598724,68,36,0
84.598724,84.89478,59,30,0
84.598724,84.89478,66,36,0
84.89478,85.18803,54,30,0
84.89478,85.18803,63,36,0
85.18803,85.48607,37,56,0
85.48607,85.78324,64,33,0
85.48607,85.78324,68,39,0
85.78324,86.08921,58,33,0
85.78324,86.08921,66,39,0
86.08921,86.39785,54,33,0
86.08921,86.39785,64,39,0
86.39785,86.70413,35,53,0
86.70413,87.010185,63,30,0
86.70413,87.010185,68,36,0
87.010185,87.32797,59,30,0
87.010185,87.32797,66,37,0
87.32797,87.68283,63,38,0
87.32797,87.68283,54,33,0
87.68283,87.857346,42,56,0
87.857346,88.03036,61,44,0
88.20189,88.371956,63,43,0
88.54059,88.70781,65,46,0
88.87365,89.058105,66,49,0
89.058105,89.23262,49,50,0
89.23262,89.40714,65,50,0
89.581665,89.75568,68,44,0
89.92869,90.10296,71,52,0
90.27825,90.46821,61,46,0
90.46821,90.63268,66,48,0
93.31739,93.65457,42,50,0
93.89996,93.992966,63,48,0
93.89996,93.992966,69,57,0
93.992966,94.331696,60,51,0
93.992966,94.331696,68,61,0
95.235565,95.33027,73,57,0
95.235565,95.33027,64,48,0
94.66056,95.33027,40,52,0
95.33027,95.65634,68,61,0
95.33027,95.65634,61,51,0
95.98802,96.32054,39,52,0
96.32054,96.651215,75,61,0
96.32054,96.651215,66,55,0
96.651215,96.977486,68,65,0
96.651215,96.989716,60,52,0
96.977486,97.30375,66,62,0
96.977486,97.30375,56,52,0
97.30375,97.63003,64,66,0
97.63003,97.96477,63,62,0
97.30375,97.96477,49,52,0
97.96477,98.31067,64,62,0
98.31067,98.719505,66,62,0
97.96477,98.719505,48,52,0
98.719505,99.09829,47,55,0
98.719505,99.09829,68,69,0
99.09829,99.4504,78,57,0
99.09829,99.4504,75,57,0
99.4504,99.80251,80,60,0
99.4504,99.80251,74,60,0
99.80251,100.14598,81,62,0
99.80251,100.14598,76,62,0
99.80251,100.14598,73,62,0
100.196915,100.5051,83,63,0
100.14598,100.5051,71,58,0
100.16458,100.5051,76,61,0
100.18237,100.5051,80,66,0
100.5495,100.862724,84,70,0
100.5051,100.862724,70,63,0
100.5199,100.862724,76,65,0
100.5347,100.862724,79,68,0
100.907936,101.227875,85,69,0
100.862724,101.227875,70,63,0
100.8778,101.227875,76,65,0
100.89287,101.227875,79,67,0
101.27392,101.64794,87,71,0
101.227875,101.64794,71,64,0
101.243225,101.64794,78,66,0
101.25857,101.64794,81,69,0
101.64794,102.004234,80,69,0
102.004234,102.36798,83,63,0
101.64794,102.36798,76,58,0
102.36798,102.5456,81,68,0
102.72322,102.90084,83,60,0
102.36798,103.10003,78,57,0
102.36798,103.10003,71,57,0
103.10003,103.45632,80,68,0
103.45632,103.82197,83,60,0
103.10003,103.82197,76,57,0
103.82197,103.99959,81,67,0
104.17721,104.35483,83,61,0
103.82197,104.55093,78,56,0
103.82197,104.55093,71,56,0
104.55093,104.72453,80,65,0
104.89976,105.07677,83,57,0
104.55093,105.25545,76,55,0
105.25545,105.43582,81,60,0
105.618095,105.80213,83,52,0
105.25545,106.0076,78,51,0
105.25545,106.0076,71,51,0
106.0076,106.19111,80,57,0
106.37698,106.56568,83,49,0
106.0076,106.75689,76,48,0
106.75689,106.95184,81,53,0
107.15182,107.35415,83,47,0
106.75689,107.55925,78,44,0
106.75689,107.55925,71,44,0
111.064354,111.16363,66,60,0
111.147,111.24678,64,60,0
111.23015,111.330185,59,60,0
111.313416,111.41403,58,61,0
111.39726,111.49788,61,61,0
111.48111,111.58231,59,61,0
111.5654,111.66687,56,62,0
111.649956,111.75195,55,62,0
111.73489,111.82017,57,62,0
111.82017,111.905754,56,63,0
111.905754,111.99176,52,66,0
111.99176,112.078,51,64,0
112.078,112.164764,54,62,0
112.164764,112.25168,52,60,0
112.25168,112.33948,47,58,0
112.33948,112.428185,46,56,0
112.428185,112.51802,49,54,0
112.51802,112.60977,47,52,0
112.60977,112.70784,44,50,0
112.70784,112.80961,39,49,0
112.80961,112.91805,40,44,0
112.91805,113.021194,47,46,0
113.02268,113.12022,52,49,0
113.12022,113.21332,56,51,0
114.857254,114.95884,56,42,0
114.95884,115.06295,52,42,0
115.06295,115.16955,47,42,0
115.16955,115.253204,40,72,0
115.33687,115.420525,42,43,0
115.50018,115.57984,44,43,0
115.6595,115.752495,45,43,0
115.752495,115.83345,49,44,0
115.83345,115.9144,47,47,0
115.995346,116.076294,46,40,0
116.15725,116.2382,47,40,0
116.32475,116.41131,50,40,0
116.49786,116.642746,50,48,0
116.88421,117.76786,48,47,0
117.76786,118.20969,47,43,0
118.551506,118.640366,40,43,0
118.72198,118.80359,42,43,0
118.8852,118.97819,44,43,0
118.97819,119.05914,47,44,0
119.05914,119.14009,45,50,0
119.22104,119.30199,44,40,0
119.38294,119.46389,45,40,0
119.550446,119.637,48,40,0
119.72356,119.86436,47,48,0
120.09902,120.969536,45,47,0
120.969536,121.765335,45,43,0
121.765335,121.85886,35,54,0
121.95237,122.04588,36,44,0
122.13366,122.22143,39,44,0
122.3092,122.41173,40,45,0
122.41173,122.497986,45,46,0
122.497986,122.58424,43,54,0
122.670494,122.75675,42,43,0
122.84301,122.92927,43,43,0
123.021065,123.11286,45,43,0
123.204666,123.35328,43,51,0
123.60097,124.5587,42,49,0
124.5587,125.45923,42,46,0
125.45923,125.56683,35,49,0
125.67444,125.78204,37,43,0
125.87826,125.97447,39,43,0
126.07069,126.177605,40,43,0
126.177605,126.27382,43,44,0
126.27382,126.37428,42,50,0
126.474754,126.575226,40,40,0
126.67569,126.77616,42,40,0
126.88735,126.99855,47,40,0
129.22346,129.38432,52,43,0
129.22346,129.38432,40,43,0
129.54031,129.69145,62,33,0
129.54031,129.69145,64,33,0
129.8654,130.0163,56,40,0
130.1672,130.3244,62,32,0
130.1672,130.3244,64,32,0
130.4879,130.66405,52,43,0
130.84021,131.01422,62,34,0
130.84021,131.01422,64,34,0
131.18823,131.34961,56,43,0
131.51099,131.67236,62,36,0
131.51099,131.67236,64,36,0
131.83374,131.9946,45,43,0
132.1506,132.30174,60,33,0
132.1506,132.30174,64,33,0
132.47568,132.62659,57,40,0
132.7775,132.9347,60,32,0
132.7775,132.9347,64,32,0
133.09818,133.2759,52,43,0
133.45363,133.62614,60,34,0
133.45363,133.62614,64,34,0
133.79865,133.96133,57,43,0
134.12402,134.28671,60,36,0
134.12402,134.28671,64,36,0
134.44942,134.61026,47,43,0
134.76627,134.9174,59,33,0
134.76627,134.9174,64,33,0
135.09134,135.24225,55,40,0
135.39316,135.55035,59,32,0
135.39316,135.55035,64,32,0
135.71384,135.89478,49,43,0
136.07571,136.24973,58,34,0
136.07571,136.24973,64,34,0
136.42375,136.58644,48,43,0
136.74913,136.91182,58,36,0
136.74913,136.91182,64,36,0
137.07451,137.23537,47,43,0
137.39136,137.5425,59,33,0
137.39136,137.5425,63,33,0
137.69362,137.84827,57,40,0
138.0029,138.16197,59,32,0
138.0029,138.16197,63,32,0
138.33813,138.49277,64,40,0
138.33813,138.49277,55,34,0
138.33813,138.49277,52,33,0
138.6474,138.80647,59,32,0
138.6474,138.80647,69,32,0
138.6474,138.80647,63,32,0
138.96996,139.13344,67,32,0
138.96996,139.13344,64,32,0
139.6239,139.78476,40,43,0
139.94077,140.09189,56,33,0
139.94077,140.09189,62,33,0
140.26584,140.42049,52,40,0
140.57512,140.73122,56,32,0
140.57512,140.73122,62,32,0
141.20918,141.84354,73,58,0
141.20918,141.84354,62,48,0
141.20918,141.84354,64,48,0
141.20918,141.84354,68,48,0
141.84354,142.16609,71,50,0
141.84354,142.16609,62,44,0
141.84354,142.16609,64,44,0
141.84354,142.16609,68,44,0
142.16609,142.32695,45,43,0
142.48294,142.63408,57,33,0
142.48294,142.63408,60,33,0
142.80801,142.96266,52,40,0
143.1173,143.27339,57,32,0
143.1173,143.27339,60,32,0
143.74937,144.38373,69,59,0
143.74937,144.38373,64,48,0
143.74937,144.38373,60,48,0
144.38373,144.70628,69,50,0
144.38373,144.70628,64,44,0
144.38373,144.70628,60,44,0
144.70628,144.86714,47,43,0
145.02313,145.17427,55,33,0
145.02313,145.17427,59,33,0
145.34822,145.50285,52,40,0
145.6575,145.8136,55,32,0
145.6575,145.8136,59,32,0
145.97116,146.13438,49,43,0
146.61664,146.77127,48,43,0
146.29156,146.92592,58,48,0
146.29156,146.92592,64,48,0
146.29156,146.92592,66,58,0
146.92592,147.24846,66,50,0
146.92592,147.24846,64,44,0
146.92592,147.24846,58,44,0
147.24846,147.41951,47,43,0
147.58258,147.7377,57,33,0
147.58258,147.7377,63,33,0
147.58258,147.7377,54,33,0
147.89282,148.0529,47,40,0
148.213,148.38483,57,32,0
148.213,148.38483,63,32,0
148.213,148.38483,54,32,0
148.5955,148.7808,64,40,0
148.5955,148.7808,55,34,0
148.5955,148.7808,52,33,0
148.97879,149.19785,59,32,0
148.97879,149.19785,69,32,0
148.97879,149.19785,63,32,0
149.43513,149.68225,67,32,0
149.43513,149.68225,64,32,0
150.57753,150.6545,69,33,0
150.4236,150.73006,57,43,0
150.73006,150.80562,64,38,0
150.8812,150.96254,69,33,0
151.20021,151.27838,68,33,0
151.04388,151.35654,52,44,0
151.35654,151.43176,64,37,0
151.50699,151.58221,68,33,0
151.81378,151.89194,69,33,0
151.65744,151.97011,57,43,0
151.97011,152.04533,64,38,0
152.12056,152.19579,69,33,0
152.42734,152.50551,69,33,0
152.27101,152.58368,57,44,0
152.58368,152.6589,64,37,0
152.73413,152.80936,69,33,0
153.0385,153.11546,67,33,0
152.88458,153.19102,55,43,0
153.19102,153.2666,60,32,0
153.19102,153.2666,64,38,0
153.34216,153.42351,67,33,0
153.66118,153.73935,67,33,0
153.50485,153.81752,55,44,0
153.81752,153.89275,59,31,0
153.81752,153.89275,65,37,0
153.96797,154.07114,67,33,0
154.31584,154.3988,67,33,0
154.14992,154.48177,60,43,0
154.48177,154.55699,64,38,0
154.63222,154.70744,67,33,0
154.93901,155.01717,67,33,0
154.78267,155.09534,60,44,0
155.09534,155.17056,64,37,0
155.24579,155.32101,67,33,0
155.55017,155.62712,70,33,0
155.39624,155.7027,60,43,0
155.7027,155.77826,67,38,0
155.7027,155.77826,64,38,0
155.85382,155.93517,70,33,0
156.17285,156.251,70,33,0
156.01651,156.32918,60,44,0
156.32918,156.4044,67,37,0
156.32918,156.4044,64,37,0
156.47963,156.55486,70,33,0
156.79198,156.87292,69,33,0
156.63008,156.95389,57,43,0
156.95389,157.02911,65,38,0
156.95389,157.02911,60,30,0
157.10434,157.17955,69,33,0
157.25478,157.33295,57,44,0
157.41112,157.48927,69,33,0
157.56744,157.64267,65,37,0
157.7179,157.79312,69,33,0
158.02228,158.09924,67,33,0
157.86835,158.1748,59,43,0
158.1748,158.25037,64,38,0
158.32594,158.40729,67,33,0
158.64496,158.72313,69,33,0
158.48863,158.80128,59,44,0
158.80128,158.87651,63,31,0
158.80128,158.87651,66,37,0
158.95174,159.038,69,33,0
159.28307,159.36247,67,33,0
159.12425,159.44188,64,43,0
159.44188,159.51884,66,38,0
159.59581,159.67278,69,33,0
159.44188,159.74973,59,43,0
159.74973,159.90854,67,47,0
159.74973,159.90854,64,44,0
160.57053,160.64748,72,33,0
160.4166,160.72305,57,43,0
160.72305,160.79861,64,35,0
160.72305,160.79861,69,38,0
160.87419,160.95554,72,33,0
161.1932,161.27138,68,33,0
161.03688,161.34953,52,44,0
161.34953,161.42476,64,37,0
161.34953,161.42476,62,34,0
161.49998,161.57521,68,33,0
161.81104,161.89134,72,33,0
161.65044,161.97163,57,43,0
161.97163,162.04686,64,33,0
161.97163,162.04686,69,38,0
162.12209,162.19731,72,33,0
162.42888,162.50703,72,33,0
162.27254,162.5852,57,44,0
162.5852,162.66043,64,34,0
162.5852,162.66043,69,37,0
162.73566,162.81088,72,33,0
163.04002,163.11699,72,33,0
162.88611,163.19257,55,43,0
163.19257,163.26813,64,32,0
163.19257,163.26813,67,38,0
163.34369,163.42503,72,33,0
163.66272,163.74088,71,33,0
163.50638,163.81905,55,44,0
163.81905,163.89427,62,31,0
163.81905,163.89427,65,37,0
163.9695,164.07266,71,33,0
164.31334,164.39429,72,33,0
164.15144,164.47523,60,43,0
164.47523,164.55046,64,38,0
164.47523,164.55046,67,38,0
164.62569,164.70091,72,33,0
164.93248,165.01064,72,33,0
164.77614,165.0888,60,44,0
165.0888,165.16403,64,40,0
165.0888,165.16403,67,40,0
165.23926,165.31448,72,36,0
165.54364,165.62059,70,36,0
165.38971,165.69617,60,47,0
165.69617,165.77173,67,41,0
165.69617,165.77173,64,41,0
165.84729,165.92865,70,36,0
166.16632,166.24449,70,36,0
166.01,166.32265,60,48,0
166.32265,166.39787,67,40,0
166.32265,166.39787,64,40,0
166.4731,166.54832,70,36,0
166.77989,166.85805,69,36,0
166.62355,166.93622,53,47,0
166.93622,167.01144,65,41,0
166.93622,167.01144,60,33,0
167.08667,167.1619,69,36,0
167.23712,167.31528,57,48,0
167.39345,167.47162,72,36,0
167.54977,167.625,65,41,0
167.54977,167.625,69,46,0
167.70023,167.77545,72,41,0
168.00227,168.07584,71,36,0
167.85068,168.14941,59,48,0
168.14941,168.22298,67,43,0
168.14941,168.22298,64,43,0
168.29654,168.37471,71,38,0
168.6092,168.68277,71,38,0
168.45287,168.75633,59,50,0
168.75633,168.8299,66,36,0
168.75633,168.8299,69,44,0
168.90346,168.98286,71,39,0
169.2105,169.2846,71,40,0
169.06227,169.35872,59,52,0
169.35872,169.43091,67,47,0
169.35872,169.43091,64,47,0
169.50308,169.57831,71,40,0
169.80067,169.87234,71,41,0
169.65353,169.944,59,55,0
169.944,170.01567,66,39,0
169.944,170.01567,69,48,0
170.08734,170.162,71,42,0
170.23666,170.30814,67,49,0
170.3796,170.45074,71,42,0
170.23666,170.52191,64,57,0
170.52191,170.59306,69,50,0
170.52191,170.59306,66,50,0
170.66423,170.73889,71,45,0
170.52191,170.81355,59,50,0
170.81355,170.88371,67,51,0
170.95387,171.02403,71,45,0
170.81355,171.0942,64,61,0
171.0942,171.16435,66,43,0
171.0942,171.16435,69,51,0
171.23451,171.30862,71,47,0
171.0942,171.38272,59,54,0
171.38272,171.53094,67,54,0
171.38272,171.53094,64,60,0
172.62953,173.98041,57,57,0
172.55804,173.98041,52,53,0
172.48654,173.98041,45,48,0
176.99638,178.34724,60,57,0
176.92488,178.34724,54,53,0
176.8534,178.34724,45,48,0
181.36362,182.7145,55,68,0
181.29213,182.7145,40,65,0
189.19353,189.4919,55,32,0
189.19353,189.4919,52,25,0
189.79839,191.13495,57,57,0
189.6959,191.13495,52,53,0
189.60394,191.13495,45,48,0
194.09511,195.44598,60,57,0
194.0236,195.44598,54,53,0
193.95212,195.44598,45,48,0
198.51541,199.86627,55,68,0
198.44391,199.86627,40,65,0
208.97,209.29326,67,42,0
208.97,209.29326,64,42,0
208.97,209.29326,71,50,0
209.29326,209.46227,69,36,0
209.29326,209.46227,62,36,0
209.29326,209.46227,71,43,0
209.9792,210.14323,65,42,0
209.9792,210.14323,55,42,0
209.9792,210.14323,71,54,0
210.66954,210.87189,60,43,0
210.66954,210.87189,64,51,0
211.82361,212.0019,55,42,0
211.82361,212.0019,52,42,0
211.82361,212.0019,60,50,0
212.18475,212.39676,57,45,0
212.18475,212.39676,50,45,0
212.18475,212.39676,60,54,0
212.96342,213.16843,53,42,0
212.96342,213.16843,43,42,0
212.96342,213.16843,59,50,0
213.7522,214.6413,48,43,0
213.7522,214.6413,52,51,0
215.0034,215.18445,55,42,0
215.0034,215.18445,52,42,0
215.0034,215.18445,60,50,0
215.36829,215.57661,57,45,0
215.36829,215.57661,50,45,0
215.36829,215.57661,59,54,0
216.13826,216.34067,53,42,0
216.13826,216.34067,43,42,0
216.13826,216.34067,59,50,0
216.91098,217.7422,48,43,0
216.91098,217.7422,52,51,0
218.09882,218.26053,55,50,0
218.09882,218.26053,52,50,0
218.09882,218.26053,58,59,0
218.42226,219.11078,47,56,0
218.42226,219.11078,56,61,0
219.41342,219.56947,47,51,0
219.41342,219.56947,54,51,0
219.41342,219.56947,57,61,0
219.72552,220.39813,47,59,0
219.72552,220.39813,56,64,0
220.70193,220.85799,47,56,0
220.70193,220.85799,59,67,0
220.70193,220.85799,54,67,0
220.70193,220.85799,51,56,0
221.01402,221.17575,47,65,0
221.01402,221.17575,59,70,0
221.01402,221.17575,56,70,0
221.01402,221.17575,52,65,0
221.35316,221.37881,69,51,0
221.37881,221.40439,67,52,0
221.40439,221.42992,65,53,0
221.42992,221.45535,64,56,0
221.45535,221.48068,62,57,0
221.48138,221.50665,60,58,0
221.50665,221.53188,59,59,0
221.53188,221.557,57,60,0
221.557,221.58203,55,61,0
221.58203,221.60703,53,62,0
221.60703,221.63193,52,63,0
221.63263,221.65747,50,64,0
221.65747,221.68184,48,66,0
221.68184,221.71982,47,88,0
221.98373,222.14163,47,58,0
221.98373,222.14163,59,70,0
221.98373,222.14163,54,70,0
221.98373,222.14163,51,58,0
222.29953,222.46126,52,68,0
222.29953,222.46126,64,73,0
222.29953,222.46126,59,73,0
222.29953,222.46126,56,68,0
222.9504,223.14058,40,71,0
222.9504,223.14058,52,76,0
222.9504,223.14058,47,76,0
222.9504,223.14058,44,71,0
223.33075,223.51228,71,50,0
223.33075,223.51228,68,42,0
223.33075,223.51228,64,42,0
223.6947,223.86964,69,36,0
223.6947,223.86964,62,36,0
223.6947,223.86964,71,43,0
224.38762,224.55754,65,42,0
224.38762,224.55754,55,42,0
224.38762,224.55754,71,54,0
225.08748,225.29582,60,43,0
225.08748,225.29582,64,51,0
226.27036,226.45097,55,42,0
226.27036,226.45097,52,42,0
226.27036,226.45097,60,50,0
226.63791,226.85468,57,45,0
226.63791,226.85468,50,45,0
226.63791,226.85468,60,54,0
227.42407,227.64737,53,42,0
227.42407,227.64737,43,42,0
227.42407,227.64737,59,50,0
228.24944,229.14827,48,43,0
228.24944,229.14827,52,51,0
229.51201,229.69307,55,42,0
229.51201,229.69307,52,42,0
229.51201,229.69307,60,50,0
229.87714,230.08548,57,45,0
229.87714,230.08548,50,45,0
229.87714,230.08548,59,54,0
230.64713,230.84952,53,42,0
230.64713,230.84952,43,42,0
230.64713,230.84952,59,50,0
231.41983,232.26662,48,43,0
231.41983,232.26662,52,51,0
232.62323,232.78496,55,50,0
232.62323,232.78496,52,50,0
232.62323,232.78496,58,59,0
232.94669,233.62035,47,56,0
232.94669,233.62035,56,61,0
233.923,234.07904,47,51,0
233.923,234.07904,54,51,0
233.923,234.07904,57,61,0
234.23509,234.90572,47,59,0
234.23509,234.90572,56,64,0
235.20952,235.36557,47,56,0
235.20952,235.36557,59,67,0
235.20952,235.36557,54,67,0
235.20952,235.36557,51,56,0
235.5216,235.68333,47,65,0
235.5216,235.68333,59,70,0
235.5216,235.68333,56,70,0
235.5216,235.68333,52,65,0
235.8619,235.88713,69,51,0
235.88713,235.91226,67,52,0
235.91226,235.9373,65,53,0
235.9373,235.96231,64,56,0
235.96231,235.98721,62,57,0
235.9879,236.0127,60,58,0
236.0127,236.0374,59,59,0
236.0374,236.062,57,60,0
236.062,236.08656,55,61,0
236.08656,236.11104,53,62,0
236.11104,236.13542,52,63,0
236.1361,236.16039,50,64,0
236.16039,236.18431,48,66,0
236.18431,236.22227,47,88,0
236.4862,236.6441,47,63,0
236.4862,236.6441,59,77,0
236.4862,236.6441,54,77,0
236.4862,236.6441,51,63,0
236.80199,236.95865,47,71,0
236.80199,236.95865,59,77,0
236.80199,236.95865,56,77,0
236.80199,236.95865,52,71,0
237.1359,237.1613,69,56,0
237.1613,237.18661,67,57,0
237.18661,237.21187,65,58,0
237.21187,237.23708,64,61,0
237.23708,237.26219,62,62,0
237.2629,237.28795,60,63,0
237.28795,237.31296,59,64,0
237.31296,237.33786,57,66,0
237.33786,237.36273,55,67,0
237.36273,237.38754,53,68,0
237.38754,237.41226,52,69,0
237.41295,237.43764,50,70,0
237.43764,237.46188,48,72,0
237.46188,237.49986,47,96,0
237.76378,237.92168,47,63,0
237.76378,237.92168,59,77,0
237.76378,237.92168,54,77,0
237.76378,237.92168,51,63,0
238.07957,238.22209,40,68,0
238.07957,238.22209,52,81,0
238.36215,238.49977,56,49,0
238.36215,238.49977,64,58,0
238.63737,238.77596,40,60,0
238.63737,238.77596,52,71,0
238.91452,239.05557,56,46,0
238.91452,239.05557,64,55,0
239.19911,239.35025,40,64,0
239.19911,239.35025,52,77,0
239.49916,239.65144,56,50,0
239.49916,239.65144,64,60,0
239.80373,239.94424,40,61,0
239.80373,239.94424,52,72,0
240.08476,240.22528,56,50,0
240.08476,240.22528,64,60,0
240.3658,240.51143,33,66,0
240.3658,240.51143,45,78,0
240.65352,240.79208,60,49,0
240.65352,240.79208,52,49,0
240.65352,240.79208,64,58,0
240.93066,241.07118,33,60,0
240.93066,241.07118,45,71,0
241.21169,241.35423,60,49,0
241.21169,241.35423,52,49,0
241.21169,241.35423,64,58,0
241.49881,241.6511,33,60,0
241.49881,241.6511,45,71,0
241.8011,241.94998,60,51,0
241.8011,241.94998,52,51,0
241.8011,241.94998,64,61,0
242.09886,242.24611,36,61,0
242.09886,242.24611,48,73,0
242.3928,242.5395,57,52,0
242.3928,242.5395,52,52,0
242.3928,242.5395,64,62,0
242.6862,242.83078,35,64,0
242.6862,242.83078,47,77,0
242.97235,243.11093,59,49,0
242.97235,243.11093,55,49,0
242.97235,243.11093,64,58,0
243.25981,243.40033,35,58,0
243.25981,243.40033,47,69,0
243.54083,243.68553,59,46,0
243.54083,243.68553,55,46,0
243.54083,243.68553,64,55,0
243.83443,243.98221,37,72,0
243.83443,243.98221,49,85,0
244.12999,244.28113,58,50,0
244.12999,244.28113,54,50,0
244.12999,244.28113,64,60,0
244.43225,244.57683,36,63,0
244.43225,244.57683,48,75,0
244.7214,244.86598,58,52,0
244.7214,244.86598,54,52,0
244.7214,244.86598,64,62,0
245.01057,245.1617,35,69,0
245.01057,245.1617,47,82,0
245.30704,245.44656,57,49,0
245.30704,245.44656,54,49,0
245.30704,245.44656,63,59,0
245.5861,245.73068,35,61,0
245.5861,245.73068,47,73,0
245.87526,246.0264,57,48,0
245.87526,246.0264,54,48,0
245.87526,246.0264,63,57,0
246.17754,246.32211,55,61,0
246.17754,246.32211,52,61,0
246.17754,246.32211,64,73,0
246.46669,246.62071,63,56,0
246.43054,246.62071,57,47,0
246.3944,246.62071,47,47,0
246.78421,246.9477,55,51,0
246.78421,246.9477,52,51,0
246.78421,246.9477,64,61,0
247.35641,247.4109,52,92,0
247.35641,247.4109,40,81,0
247.43816,247.50941,52,92,0
247.43816,247.50941,40,81,0
247.58067,247.65193,54,79,0
247.58067,247.65193,42,69,0
247.72073,247.78955,56,79,0
247.72073,247.78955,44,69,0
247.85835,247.92717,57,79,0
247.85835,247.92717,45,69,0
247.99597,248.06526,59,88,0
247.99597,248.06526,47,77,0
248.13454,248.20383,58,73,0
248.13454,248.20383,46,64,0
248.2731,248.34239,59,73,0
248.2731,248.34239,47,64,0
248.41415,248.48593,62,73,0
248.41415,248.48593,50,64,0
248.56767,248.71019,62,89,0
248.56767,248.71019,50,78,0
248.85027,249.40262,60,88,0
248.85027,249.40262,52,77,0
248.85027,249.40262,56,77,0
248.85027,249.40262,48,77,0
249.40262,249.68723,59,79,0
249.40262,249.68723,52,69,0
249.40262,249.68723,56,69,0
249.40262,249.68723,47,69,0
249.835,249.90889,52,79,0
249.835,249.90889,40,69,0
249.9777,250.04651,54,79,0
249.9777,250.04651,42,69,0
250.11531,250.18413,56,79,0
250.11531,250.18413,44,69,0
250.25293,250.32222,57,88,0
250.25293,250.32222,45,77,0
250.3915,250.46078,56,73,0
250.3915,250.46078,44,64,0
250.53008,250.59935,57,73,0
250.53008,250.59935,45,64,0
250.67113,250.74289,60,73,0
250.67113,250.74289,48,64,0
250.82463,250.96716,59,89,0
250.82463,250.96716,47,78,0
251.10722,251.65959,57,88,0
251.10722,251.65959,48,77,0
251.10722,251.65959,52,77,0
251.10722,251.65959,45,77,0
251.65959,251.94418,57,79,0
251.65959,251.94418,48,69,0
251.65959,251.94418,52,69,0
251.65959,251.94418,45,69,0
251.94418,252.01863,35,81,0
251.94418,252.01863,47,92,0
252.09306,252.16751,48,79,0
252.09306,252.16751,36,69,0
252.23631,252.30513,51,79,0
252.23631,252.30513,39,69,0
252.37393,252.44273,52,79,0
252.37393,252.44273,40,69,0
252.51155,252.58083,55,88,0
252.51155,252.58083,43,77,0
252.65012,252.71939,54,73,0
252.65012,252.71939,42,64,0
252.78868,252.85797,55,73,0
252.78868,252.85797,43,64,0
252.92973,253.00151,57,73,0
252.92973,253.00151,45,64,0
253.08325,253.22577,43,78,0
253.08325,253.22577,55,89,0
253.36583,253.9182,46,77,0
253.36583,253.9182,54,88,0
253.36583,253.9182,42,77,0
253.36583,253.9182,49,77,0
253.9182,254.20279,34,69,0
253.9182,254.20279,46,79,0
254.20279,254.3138,35,33,0
254.20279,254.3138,47,39,0
254.35101,254.46194,54,34,0
254.35101,254.46194,59,40,0
254.35101,254.46194,47,34,0
254.35101,254.46194,51,34,0
254.49876,254.60878,54,35,0
254.49876,254.60878,59,42,0
254.49876,254.60878,47,35,0
254.49876,254.60878,51,35,0
254.6453,254.7544,54,36,0
254.6453,254.7544,59,43,0
254.6453,254.7544,47,36,0
254.6453,254.7544,51,36,0
254.79054,254.89865,54,38,0
254.79054,254.89865,59,45,0
254.79054,254.89865,47,38,0
254.79054,254.89865,51,38,0
254.93454,255.04184,54,39,0
254.93454,255.04184,59,46,0
254.93454,255.04184,47,39,0
254.93454,255.04184,51,39,0
255.07747,255.1838,54,40,0
255.07747,255.1838,59,48,0
255.07747,255.1838,47,40,0
255.07747,255.1838,51,40,0
255.21918,255.32455,54,41,0
255.21918,255.32455,59,49,0
255.21918,255.32455,47,41,0
255.21918,255.32455,51,41,0
255.35944,255.46284,54,43,0
255.35944,255.46284,59,51,0
255.35944,255.46284,47,43,0
255.35944,255.46284,51,43,0
255.49687,255.59769,54,44,0
255.49687,255.59769,59,52,0
255.49687,255.59769,47,44,0
255.49687,255.59769,51,44,0
255.63077,255.72897,54,45,0
255.63077,255.72897,59,54,0
255.63077,255.72897,47,45,0
255.63077,255.72897,51,45,0
255.76132,255.85718,54,46,0
255.76132,255.85718,59,55,0
255.76132,255.85718,47,46,0
255.76132,255.85718,51,46,0
255.88876,256.14627,54,48,0
255.88876,256.14627,59,57,0
255.88876,256.14627,47,48,0
255.88876,256.14627,51,48,0
256.40378,256.52625,47,70,0
256.52625,256.64868,63,61,0
256.64868,256.77496,51,61,0
256.77496,256.90887,66,61,0
256.90887,257.03134,54,70,0
257.03134,257.15378,69,63,0
257.15378,257.27625,57,63,0
257.27625,257.39868,73,63,0
257.39868,257.51608,56,70,0
257.51608,257.6335,71,59,0
257.6335,257.75674,52,61,0
257.75674,257.89157,68,63,0
257.89157,258.01328,56,73,0
258.01328,258.13498,71,62,0
258.13498,258.2599,52,62,0
258.2599,258.39117,68,62,0
258.39117,258.5136,47,70,0
258.5136,258.63608,63,61,0
258.63608,258.76233,51,61,0
258.76233,258.89627,66,61,0
258.89627,259.01724,54,70,0
259.01724,259.1382,69,63,0
259.1382,259.2592,57,63,0
259.2592,259.38013,73,63,0
259.38013,259.49896,56,70,0
259.49896,259.61777,71,59,0
259.61777,259.7419,52,61,0
259.7419,259.87674,68,63,0
259.87674,259.99844,56,73,0
259.99844,260.12015,71,62,0
260.12015,260.24185,52,62,0
260.24185,260.36356,68,62,0
260.36356,260.48752,52,70,0
260.48752,260.61148,68,61,0
260.61148,260.73877,56,61,0
260.73877,260.8727,71,61,0
260.8727,260.99515,59,70,0
260.99515,261.1176,74,63,0
261.1176,261.24005,62,63,0
261.24005,261.36252,78,63,0
261.36252,261.48495,61,70,0
261.48495,261.6074,76,59,0
261.6074,261.73398,57,61,0
261.73398,261.8688,73,63,0
261.8688,261.9905,61,73,0
261.9905,262.1122,76,62,0
262.1122,262.23392,58,62,0
262.23392,262.35562,73,62,0
262.35562,262.47958,63,70,0
262.47958,262.60358,78,59,0
262.60358,262.73114,59,61,0
262.73114,262.86597,75,63,0
262.86597,262.99475,63,73,0
262.99475,263.1235,71,62,0
263.1235,263.25308,59,62,0
263.25308,263.38437,69,62,0
263.38437,263.51398,64,48,0
263.38437,263.51398,68,57,0
263.64355,263.77316,66,45,0
263.64355,263.77316,71,53,0
263.64355,263.77316,59,45,0
263.64355,263.77316,63,45,0
263.90274,264.03232,52,45,0
263.90274,264.03232,64,54,0
263.90274,264.03232,59,45,0
263.90274,264.03232,56,45,0
264.4211,264.54355,35,77,0
264.54355,264.666,51,67,0
264.666,264.79227,39,67,0
264.79227,264.9262,54,67,0
264.9262,265.05252,42,77,0
265.05252,265.17883,57,69,0
265.17883,265.30515,45,69,0
265.30515,265.43146,61,69,0
265.43146,265.55243,44,77,0
265.55243,265.6734,59,64,0
265.6734,265.79898,40,67,0
265.79898,265.93384,56,69,0
265.93384,266.0578,44,80,0
266.0578,266.18176,59,68,0
266.18176,266.30817,40,68,0
266.30817,266.43945,56,68,0
266.43945,266.56497,35,77,0
266.56497,266.6905,51,67,0
266.6905,266.81882,39,67,0
266.81882,266.95276,54,67,0
266.95276,267.07828,42,77,0
267.07828,267.2038,57,69,0
267.2038,267.3293,45,69,0
267.3293,267.45483,61,69,0
267.45483,267.5758,44,77,0
267.5758,267.69678,59,64,0
267.69678,267.82236,40,67,0
267.82236,267.9572,56,69,0
267.9572,268.08194,44,80,0
268.08194,268.2067,59,68,0
268.2067,268.33142,40,68,0
268.33142,268.45618,56,68,0
268.45618,268.58328,40,77,0
268.58328,268.7104,56,67,0
268.7104,268.83978,44,67,0
268.83978,268.97372,59,67,0
268.97372,269.09924,47,77,0
269.09924,269.22476,62,69,0
269.22476,269.35028,50,69,0
269.35028,269.4758,66,69,0
269.4758,269.59604,49,77,0
269.59604,269.71628,64,64,0
269.71628,269.8414,45,67,0
269.8414,269.97623,61,69,0
269.97623,270.10175,49,80,0
270.10175,270.22726,64,68,0
270.22726,270.3612,46,68,0
270.3612,270.49506,61,68,0
270.49506,270.6238,47,51,0
270.49506,270.6238,59,60,0
270.6238,270.75256,46,52,0
270.6238,270.75256,58,62,0
270.75256,270.8808,45,54,0
270.75256,270.8808,57,64,0
270.8808,271.00873,44,56,0
270.8808,271.00873,56,66,0
271.00873,271.13635,42,57,0
271.00873,271.13635,54,68,0
271.13635,271.2635,40,59,0
271.13635,271.2635,52,70,0
271.2635,271.3906,39,61,0
271.2635,271.3906,51,72,0
271.3906,271.51694,37,62,0
271.3906,271.51694,49,74,0
271.51694,271.64355,35,64,0
271.51694,271.64355,47,76,0
271.7716,271.90112,33,60,0
271.7716,271.90112,45,71,0
272.03214,272.16476,32,64,0
272.03214,272.16476,44,76,0
272.29898,272.4348,30,62,0
272.29898,272.4348,42,73,0
272.57227,272.71085,28,64,0
272.57227,272.71085,40,76,0
273.12653,273.2651,41,63,0
273.12653,273.2651,45,75,0
273.12653,273.2651,33,63,0
273.12653,273.2651,37,63,0
273.97574,274.02737,47,57,0
273.97574,274.02737,35,47,0
273.97574,274.02737,39,47,0
273.97574,274.02737,42,47,0
274.0331,274.11115,47,71,0
274.0331,274.11115,35,59,0
274.0331,274.11115,39,59,0
274.0331,274.11115,42,59,0
274.30618,274.35724,52,57,0
274.30618,274.35724,40,47,0
274.30618,274.35724,44,47,0
274.30618,274.35724,47,47,0
274.3629,274.44077,52,71,0
274.3629,274.44077,40,59,0
274.3629,274.44077,44,59,0
274.3629,274.44077,47,59,0
274.63507,274.68582,57,57,0
274.63507,274.68582,45,47,0
274.63507,274.68582,48,47,0
274.63507,274.68582,53,47,0
274.69147,274.7683,57,71,0
274.69147,274.7683,45,59,0
274.69147,274.7683,48,59,0
274.69147,274.7683,53,59,0
274.96036,275.00912,59,57,0
274.96036,275.00912,47,47,0
274.96036,275.00912,51,47,0
274.96036,275.00912,54,47,0
275.01346,275.08942,59,71,0
275.01346,275.08942,47,59,0
275.01346,275.08942,51,59,0
275.01346,275.08942,54,59,0
275.2793,275.32733,52,57,0
275.2793,275.32733,40,47,0
275.2793,275.32733,44,47,0
275.2793,275.32733,47,47,0
275.33267,275.4086,52,71,0
275.33267,275.4086,40,59,0
275.33267,275.4086,44,59,0
275.33267,275.4086,47,59,0
275.59848,275.6473,45,51,0
275.59848,275.6473,33,42,0
275.59848,275.6473,36,42,0
275.59848,275.6473,41,42,0
275.65274,275.73294,45,63,0
275.65274,275.73294,33,53,0
275.65274,275.73294,36,53,0
275.65274,275.73294,41,53,0
275.93347,275.98663,47,51,0
275.93347,275.98663,35,42,0
275.93347,275.98663,39,42,0
275.93347,275.98663,42,42,0
275.99255,276.08673,47,63,0
275.99255,276.08673,35,53,0
275.99255,276.08673,39,53,0
275.99255,276.08673,42,53,0
276.3222,276.3646,40,51,0
276.3222,276.3646,28,42,0
276.3222,276.3646,32,42,0
276.3222,276.3646,35,42,0
276.3693,276.45767,40,63,0
276.3693,276.45767,28,53,0
276.3693,276.45767,32,53,0
276.3693,276.45767,35,53,0
276.7279,276.81628,52,71,0
276.7279,276.81628,40,59,0
276.7279,276.81628,44,59,0
276.7279,276.81628,47,59,0
277.07623,277.18076,64,77,0
277.07623,277.18076,52,65,0
277.07623,277.18076,56,65,0
277.07623,277.18076,59,65,0
277.49435,278.7487,76,77,0
277.49435,278.7487,64,65,0
277.49435,278.7487,68,65,0
277.49435,278.7487,71,65,0
