start_time,end_time,note_value,velocity,instrument_program_number
1.2808918,2.0430157,62,55,0
1.2808918,2.0430157,57,55,0
1.2808918,2.0430157,69,65,0
2.23746,3.527061,57,61,0
2.23746,3.527061,69,72,0
3.527061,3.936897,57,54,0
3.527061,3.936897,69,63,0
2.23746,3.936897,61,61,0
3.936897,4.857142,62,59,0
3.936897,4.857142,69,70,0
3.936897,4.857142,57,70,0
4.857142,5.882958,64,57,0
4.857142,5.882958,57,68,0
4.857142,5.882958,69,68,0
4.857142,5.882958,60,57,0
5.882958,6.835339,66,59,0
5.882958,6.835339,60,47,0
6.835339,7.8697715,60,52,0
5.882958,7.8697715,57,48,0
5.882958,7.8697715,69,75,0
6.835339,7.8697715,66,62,0
7.8697715,8.770767,57,51,0
7.8697715,8.770767,69,73,0
7.8697715,8.770767,60,48,0
7.8697715,8.770767,66,55,0
8.770767,9.457758,57,54,0
8.770767,9.457758,69,71,0
9.457758,9.757757,57,55,0
8.770767,9.757757,66,48,0
8.770767,9.757757,60,45,0
9.457758,9.757757,69,66,0
9.757757,11.516499,57,61,0
9.757757,11.516499,60,61,0
11.516499,13.451438,56,61,0
9.757757,13.451438,52,61,0
9.757757,13.451438,64,72,0
11.516499,13.451438,59,72,0
13.66445,15.802075,64,72,0
13.66445,15.802075,52,61,0
13.66445,15.802075,57,61,0
13.66445,15.802075,61,61,0
17.890026,18.190025,65,63,0
17.890026,18.190025,67,76,0
17.890026,18.190025,55,63,0
17.890026,18.190025,62,63,0
18.190025,18.666216,55,59,0
18.190025,18.666216,67,82,0
18.190025,18.666216,60,70,0
18.190025,18.666216,64,70,0
19.142406,19.618597,55,54,0
19.142406,19.618597,67,79,0
19.142406,19.618597,60,64,0
19.142406,19.618597,63,64,0
20.489525,20.884262,55,55,0
20.489525,20.884262,67,78,0
20.489525,20.884262,59,65,0
20.489525,20.884262,62,65,0
20.884262,21.384262,55,59,0
20.884262,21.384262,67,82,0
20.884262,21.384262,58,70,0
20.884262,21.384262,61,70,0
21.884262,22.384262,55,55,0
21.884262,22.384262,67,78,0
21.884262,22.384262,58,65,0
21.884262,22.384262,61,65,0
23.884262,24.684244,55,32,0
23.884262,24.684244,67,42,0
24.684244,24.920055,67,45,0
24.684244,24.920055,55,37,0
23.884262,24.920055,60,36,0
24.920055,25.819288,62,44,0
24.920055,25.819288,67,54,0
24.93472,25.83568,59,43,0
24.936552,25.83773,55,37,0
25.819288,25.83773,55,47,0
25.819288,26.27788,67,62,0
26.27788,26.802221,67,63,0
25.819288,26.802221,58,42,0
25.819288,26.802221,64,47,0
26.27788,26.802221,55,54,0
26.802221,27.670578,57,61,0
26.802221,27.670578,55,61,0
27.670578,29.7116,54,61,0
26.802221,29.7116,62,72,0
26.802221,29.7116,50,61,0
27.670578,29.7116,57,72,0
30.160452,32.43594,62,76,0
29.950235,32.43594,50,65,0
30.004574,32.43594,55,69,0
30.068195,32.43594,59,72,0
35.207973,35.3054,50,62,0
35.207973,35.398945,62,66,0
35.3054,35.40052,53,40,0
35.3054,35.40052,56,48,0
35.40052,35.493443,62,50,0
35.493443,35.584606,62,51,0
35.584606,35.673756,65,45,0
35.584606,35.673756,68,53,0
35.673756,35.761124,74,54,0
35.761124,35.846786,74,55,0
35.846786,35.9308,77,48,0
35.846786,35.9308,80,57,0
35.9308,36.014183,86,58,0
36.014183,36.09858,86,60,0
36.09858,36.21029,89,54,0
36.09858,36.21029,92,63,0
36.21029,36.294147,98,68,0
36.294147,36.378914,89,57,0
36.294147,36.378914,92,68,0
36.378914,36.464638,86,66,0
36.464638,36.55131,86,64,0
36.55131,36.638966,77,53,0
36.55131,36.638966,80,63,0
36.638966,36.727783,74,61,0
36.727783,36.81764,74,60,0
36.81764,36.908543,65,49,0
36.81764,36.908543,68,58,0
36.908543,37.00054,62,56,0
37.00054,37.093643,62,54,0
37.093643,37.188995,53,48,0
37.093643,37.188995,56,57,0
37.188995,37.284023,50,62,0
37.284023,37.377213,53,46,0
37.284023,37.377213,56,55,0
37.377213,37.46886,62,56,0
37.46886,37.558937,62,57,0
37.558937,37.64767,65,50,0
37.558937,37.64767,68,59,0
37.64767,37.734802,74,60,0
37.734802,37.820614,74,61,0
37.820614,37.905132,77,52,0
37.820614,37.905132,80,62,0
37.905132,37.988358,86,63,0
37.988358,38.070164,86,64,0
38.070164,38.178318,89,55,0
38.070164,38.178318,92,66,0
38.178318,38.261513,98,68,0
38.261513,38.34575,89,56,0
38.261513,38.34575,92,67,0
38.34575,38.43106,86,65,0
38.43106,38.517365,86,64,0
38.517365,38.60495,77,54,0
38.517365,38.60495,80,63,0
38.60495,38.693542,74,63,0
38.693542,38.783314,74,61,0
38.783314,38.874306,65,50,0
38.783314,38.874306,68,60,0
38.874306,38.967262,62,59,0
38.967262,39.060722,62,57,0
39.060722,39.239338,53,47,0
39.060722,39.239338,56,56,0
39.239338,39.626484,50,87,0
43.498302,43.596157,45,74,0
43.498302,43.689365,57,74,0
43.596157,43.692554,49,45,0
43.596157,43.692554,52,50,0
43.692554,43.787693,57,52,0
43.787693,43.881443,57,54,0
43.881443,43.973797,61,51,0
43.881443,43.973797,64,55,0
43.973797,44.0648,69,56,0
44.0648,44.15456,69,58,0
44.15456,44.243214,73,55,0
44.15456,44.243214,76,60,0
44.243214,44.330532,81,61,0
44.330532,44.415348,81,63,0
44.415348,44.53712,85,60,0
44.415348,44.53712,88,64,0
44.53712,44.61936,93,71,0
44.61936,44.70251,85,63,0
44.61936,44.70251,88,67,0
44.70251,44.786705,81,66,0
44.786705,44.87197,81,64,0
44.87197,44.95846,73,58,0
44.87197,44.95846,76,63,0
44.95846,45.046146,69,61,0
45.046146,45.134995,69,59,0
45.134995,45.225037,61,53,0
45.134995,45.225037,64,57,0
45.225037,45.316437,57,55,0
45.316437,45.409313,57,54,0
45.409313,45.504753,49,48,0
45.409313,45.504753,52,53,0
45.504753,45.59885,45,53,0
45.59885,45.69165,49,39,0
45.59885,45.69165,52,55,0
45.69165,45.783154,57,51,0
45.783154,45.873245,57,53,0
45.873245,45.962147,61,50,0
45.873245,45.962147,64,54,0
45.962147,46.049877,69,56,0
46.049877,46.13646,69,58,0
46.13646,46.22177,73,55,0
46.13646,46.22177,76,60,0
46.22177,46.306007,81,62,0
46.306007,46.387516,81,63,0
46.387516,46.499157,85,62,0
46.387516,46.499157,88,66,0
46.499157,46.581806,93,71,0
46.581806,46.665737,85,65,0
46.581806,46.665737,88,70,0
46.665737,46.75088,81,68,0
46.75088,46.837215,81,66,0
46.837215,46.924885,73,60,0
46.837215,46.924885,76,64,0
46.924885,47.013752,69,63,0
47.013752,47.10413,69,61,0
47.10413,47.19588,61,55,0
47.10413,47.19588,64,60,0
47.19588,47.288948,57,58,0
47.288948,47.3835,57,56,0
47.3835,47.548374,49,50,0
47.3835,47.548374,52,54,0
47.548374,47.940582,45,87,0
51.340836,51.57965,57,49,0
51.57965,51.818466,58,45,0
51.818466,52.05728,57,48,0
52.05728,52.34025,58,45,0
51.340836,52.34025,62,41,0
51.340836,52.34025,69,49,0
52.34025,52.579063,57,52,0
52.579063,52.81788,58,45,0
52.81788,53.056694,57,48,0
53.056694,53.29551,58,45,0
53.29551,53.494522,57,48,0
53.534325,53.77314,62,46,0
52.34025,53.77314,61,44,0
52.34025,53.77314,69,52,0
53.77314,54.011955,61,48,0
54.011955,54.297993,58,48,0
53.77314,54.297993,69,51,0
54.24245,54.536053,57,39,0
54.536053,54.77411,58,45,0
54.77411,55.012165,57,49,0
55.012165,55.254128,58,45,0
54.27022,55.254128,62,43,0
54.297993,55.254128,69,48,0
55.21315,55.46075,57,40,0
55.23364,55.474636,64,43,0
55.48059,55.714928,64,51,0
55.714928,55.949265,60,52,0
55.949265,56.183605,59,48,0
55.254128,56.183605,69,51,0
56.183605,56.44015,57,59,0
56.44015,56.67256,59,49,0
56.67256,56.904007,57,54,0
56.904007,57.135456,59,49,0
57.135456,57.350937,57,56,0
56.183605,57.350937,66,50,0
57.370525,57.6056,66,54,0
57.6056,57.84067,60,57,0
57.84067,58.075745,59,54,0
56.183605,58.075745,69,59,0
58.075745,58.30719,57,62,0
58.30719,58.538635,59,54,0
58.538635,58.770084,57,60,0
58.770084,59.00153,59,55,0
58.075745,59.00153,66,52,0
58.075745,59.00153,69,62,0
59.00153,59.232975,57,65,0
59.232975,59.46442,60,59,0
59.46442,59.695866,59,63,0
59.695866,59.95579,57,59,0
59.00153,59.95579,66,54,0
59.00153,59.95579,69,65,0
59.95579,60.213688,52,59,0
60.193848,60.449505,53,52,0
60.429916,60.684578,52,59,0
60.66499,60.91965,53,52,0
60.900063,61.135136,52,59,0
61.135136,61.389797,57,54,0
61.37021,61.62487,55,59,0
59.95579,61.84575,60,67,0
59.95579,61.84575,64,67,0
61.60528,61.84575,53,54,0
61.84575,62.10364,52,59,0
62.083805,62.334103,53,56,0
62.31511,62.562035,52,56,0
62.543037,62.789963,53,50,0
62.77097,62.998898,52,54,0
61.84575,63.24582,59,67,0
62.998898,63.24582,59,49,0
63.226826,63.47375,56,59,0
61.84575,63.686714,64,67,0
63.454754,63.686714,53,54,0
63.778732,63.948196,52,59,0
63.948196,64.18975,53,44,0
64.18975,64.42709,52,51,0
64.42709,64.66444,53,45,0
64.66444,64.83034,52,49,0
63.778732,64.88564,61,59,0
65.11609,65.34654,57,51,0
65.34654,65.56775,53,49,0
64.88564,65.56775,61,54,0
63.778732,65.56775,64,59,0
65.56775,65.73614,52,54,0
65.79227,66.02382,57,51,0
66.02382,66.2532,53,53,0
66.2532,66.47119,52,50,0
66.47119,66.63709,49,52,0
66.6924,66.922844,53,54,0
66.922844,67.154724,52,51,0
67.154724,67.401566,49,47,0
67.401566,67.63664,45,56,0
67.63664,67.86906,46,53,0
67.86906,68.09918,47,56,0
68.09918,68.32708,48,56,0
68.32708,68.5516,49,54,0
68.5516,68.773964,50,54,0
68.773964,68.99423,51,56,0
68.99423,69.2122,52,57,0
69.2122,69.42706,53,58,0
69.42706,69.64194,54,60,0
69.64194,69.856804,55,61,0
69.856804,70.07167,56,63,0
70.07167,70.286545,55,69,0
70.286545,70.50141,56,66,0
70.50141,70.720634,55,63,0
70.720634,70.94856,56,59,0
70.50141,70.94856,65,57,0
70.50141,70.94856,67,68,0
70.94856,71.17108,55,62,0
71.17108,71.3936,56,56,0
70.94856,71.3936,64,62,0
70.94856,71.3936,67,73,0
71.3936,71.61612,55,59,0
71.61612,71.83864,56,56,0
71.83864,72.04262,55,56,0
72.06116,72.283676,60,62,0
71.83864,72.283676,63,60,0
71.83864,72.283676,67,71,0
72.283676,72.506195,58,58,0
72.506195,72.728714,56,58,0
72.728714,72.95123,55,62,0
72.95123,73.184616,56,56,0
73.184616,73.417564,55,62,0
73.417564,73.63877,56,56,0
73.184616,73.63877,62,59,0
73.184616,73.63877,67,70,0
73.63877,73.85998,55,62,0
73.85998,74.081184,57,56,0
73.63877,74.081184,61,62,0
73.63877,74.081184,67,73,0
74.081184,74.30239,55,62,0
74.30239,74.52359,57,56,0
74.52359,74.735756,55,58,0
74.75504,74.97966,60,60,0
74.52359,74.97966,61,59,0
74.52359,74.97966,67,70,0
74.97966,75.20087,58,59,0
75.20087,75.42207,57,59,0
75.42207,75.64328,55,62,0
75.64328,75.86449,57,56,0
75.86449,76.0891,55,62,0
76.0891,76.32055,57,56,0
76.32055,76.52038,55,62,0
76.32055,76.53854,60,42,0
76.75653,76.974525,58,53,0
76.32055,76.974525,67,50,0
76.974525,77.19251,57,53,0
76.53854,77.19251,60,53,0
77.19251,77.39234,55,51,0
77.41051,77.628494,62,54,0
77.628494,77.84649,58,54,0
77.84649,78.06448,55,54,0
77.19251,78.06448,59,51,0
77.19251,78.06448,67,51,0
78.06448,78.264305,55,54,0
78.06448,78.49683,58,54,0
78.28247,78.500465,64,60,0
78.06448,78.500465,67,54,0
78.500465,78.72294,58,58,0
78.72294,78.954384,55,58,0
78.954384,79.190544,50,58,0
79.17238,79.40853,51,53,0
79.390366,79.626526,50,58,0
79.60836,79.84452,51,53,0
79.826355,80.02618,50,54,0
78.954384,80.2805,57,61,0
80.04434,80.2805,57,58,0
80.26234,80.49787,54,54,0
78.954384,80.69483,62,72,0
80.479965,80.71274,51,54,0
80.69483,80.92849,50,56,0
80.910324,81.1501,51,54,0
81.13139,81.37731,50,58,0
81.3586,81.62004,51,54,0
81.65984,81.83896,59,61,0
81.65984,81.83896,50,61,0
81.83896,82.07144,59,49,0
82.07144,82.300766,55,44,0
81.65984,82.33899,62,61,0
82.300766,82.53009,51,44,0
82.53009,82.70208,50,49,0
82.759415,82.98781,55,45,0
82.98781,83.21574,50,45,0
83.21574,83.443665,48,44,0
83.443665,83.61461,47,49,0
83.67159,83.89952,51,47,0
83.89952,84.13237,50,47,0
84.13237,84.37409,47,46,0
84.37409,84.60871,43,54,0
84.60871,84.838844,42,49,0
84.838844,85.06464,43,56,0
85.06464,85.28586,42,54,0
85.28586,85.51379,43,59,0
85.51379,85.74092,42,54,0
85.74092,85.96544,43,59,0
85.96544,86.18943,42,54,0
86.18943,86.41064,43,58,0
86.41064,86.6316,44,62,0
86.6316,86.849594,45,67,0
86.849594,87.00039,46,72,0
87.083984,87.97235,74,69,0
87.083984,87.97235,86,89,0
87.083984,87.97235,80,77,0
87.083984,87.97235,77,69,0
87.97235,89.73269,74,69,0
87.97235,89.73269,86,89,0
87.97235,89.73269,80,77,0
87.97235,89.73269,77,69,0
89.73269,90.61012,74,70,0
89.73269,90.61012,86,89,0
89.73269,90.61012,80,76,0
89.73269,90.61012,77,70,0
90.61012,91.4696,74,69,0
90.61012,91.4696,86,89,0
90.61012,91.4696,80,74,0
90.61012,91.4696,77,69,0
94.05034,94.935165,69,69,0
94.05034,94.935165,81,89,0
94.05034,94.935165,79,77,0
94.05034,94.935165,76,69,0
94.935165,96.69427,69,69,0
94.935165,96.69427,81,89,0
94.935165,96.69427,79,77,0
94.935165,96.69427,76,69,0
96.69427,97.579094,69,70,0
96.69427,97.579094,81,89,0
96.69427,97.579094,79,76,0
96.69427,97.579094,76,70,0
97.579094,98.91228,69,43,0
97.579094,98.91228,79,43,0
97.579094,98.91228,81,43,0
97.579094,98.91228,76,43,0
98.91228,99.37203,69,39,0
98.91228,99.37203,57,39,0
98.91228,99.37203,64,39,0
98.91228,99.37203,67,39,0
100.117775,100.20449,81,54,0
99.37203,100.20449,69,40,0
100.117775,100.20449,69,49,0
100.20449,100.621155,69,54,0
99.37203,100.621155,67,40,0
99.37203,100.621155,57,40,0
99.37203,100.621155,64,40,0
100.621155,101.07452,69,45,0
100.621155,101.07452,64,45,0
100.20449,101.07452,81,54,0
100.621155,101.07452,57,45,0
100.621155,101.07452,67,45,0
101.79645,101.88911,93,66,0
101.79645,101.88911,81,60,0
101.07452,102.300064,65,47,0
101.07452,102.300064,58,47,0
101.07452,102.300064,70,60,0
101.07452,102.300064,69,47,0
102.300064,102.73451,70,51,0
101.88911,102.73451,93,66,0
102.300064,102.73451,69,51,0
101.88911,102.73451,81,66,0
102.300064,102.73451,65,51,0
102.300064,102.73451,58,51,0
103.43855,103.52527,81,63,0
102.73451,103.52527,69,51,0
103.43855,103.52527,69,57,0
103.52527,103.93067,69,63,0
102.73451,103.93067,66,51,0
102.73451,103.93067,71,51,0
102.73451,103.93067,59,51,0
103.93067,104.36511,71,51,0
103.93067,104.36511,66,51,0
103.52527,104.36511,81,63,0
103.93067,104.36511,59,51,0
103.93067,104.36511,69,51,0
105.08483,105.186264,93,73,0
105.08483,105.186264,81,66,0
104.36511,105.59722,72,65,0
104.36511,105.59722,60,52,0
104.36511,105.59722,69,52,0
105.59722,106.03167,72,56,0
105.59722,106.03167,69,56,0
105.186264,106.03167,93,73,0
105.186264,106.03167,81,73,0
105.59722,106.03167,60,56,0
106.76624,106.86786,81,71,0
106.03167,106.86786,69,56,0
106.76624,106.86786,69,63,0
106.86786,107.29759,69,71,0
106.03167,107.29759,61,56,0
106.03167,107.29759,73,56,0
106.03167,107.29759,67,56,0
107.29759,107.85014,73,56,0
107.29759,107.85014,67,56,0
106.86786,107.85014,81,71,0
107.29759,107.85014,61,56,0
107.29759,107.85014,69,56,0
107.85014,108.08077,70,31,0
107.85014,108.08077,62,31,0
107.85014,108.08077,74,36,0
108.08077,108.30748,72,32,0
108.08077,108.30748,63,32,0
108.08077,108.30748,75,38,0
108.30748,108.530396,74,34,0
108.30748,108.530396,65,34,0
108.30748,108.530396,77,40,0
108.530396,108.74946,67,36,0
108.530396,108.74946,79,44,0
108.530396,108.74946,75,44,0
108.74946,108.96494,77,38,0
108.74946,108.96494,69,38,0
108.74946,108.96494,81,45,0
108.96494,109.18043,79,41,0
108.96494,109.18043,70,41,0
108.96494,109.18043,82,48,0
109.18043,109.39591,81,43,0
109.18043,109.39591,72,43,0
109.18043,109.39591,84,51,0
109.39591,109.64755,82,45,0
109.39591,109.64755,74,45,0
109.39591,109.64755,86,54,0
109.64755,109.86304,82,40,0
109.64755,109.86304,74,40,0
109.64755,109.86304,86,56,0
109.86304,110.07852,81,49,0
109.86304,110.07852,72,49,0
109.86304,110.07852,84,58,0
110.07852,110.29401,79,49,0
110.07852,110.29401,70,49,0
110.07852,110.29401,82,58,0
110.29401,110.5095,77,49,0
110.29401,110.5095,69,49,0
110.29401,110.5095,81,58,0
110.5095,110.72498,75,50,0
110.5095,110.72498,67,50,0
110.5095,110.72498,79,59,0
110.72498,110.94047,74,50,0
110.72498,110.94047,65,50,0
110.72498,110.94047,77,59,0
110.94047,111.15595,72,50,0
110.94047,111.15595,63,50,0
110.94047,111.15595,75,60,0
111.15595,111.382744,70,50,0
111.15595,111.382744,62,50,0
111.15595,111.382744,74,60,0
111.382744,111.60137,72,47,0
111.382744,111.60137,63,47,0
111.382744,111.60137,75,56,0
111.60137,111.81746,74,48,0
111.60137,111.81746,65,48,0
111.60137,111.81746,77,57,0
111.81746,112.031624,75,49,0
111.81746,112.031624,67,49,0
111.81746,112.031624,79,58,0
112.031624,112.243515,69,50,0
112.031624,112.243515,77,50,0
112.031624,112.243515,81,60,0
112.243515,112.45298,79,51,0
112.243515,112.45298,70,51,0
112.243515,112.45298,82,61,0
112.45298,112.66012,81,52,0
112.45298,112.66012,72,52,0
112.45298,112.66012,84,62,0
112.66012,112.865486,82,54,0
112.66012,112.865486,74,54,0
112.66012,112.865486,86,63,0
112.865486,113.0807,84,54,0
112.865486,113.0807,75,54,0
112.865486,113.0807,87,64,0
113.0807,113.284485,84,57,0
113.0807,113.284485,75,57,0
113.0807,113.284485,87,68,0
113.284485,113.49017,82,55,0
113.284485,113.49017,74,55,0
113.284485,113.49017,86,66,0
113.49017,113.69765,81,56,0
113.49017,113.69765,72,56,0
113.49017,113.69765,84,67,0
113.69765,113.90712,79,58,0
113.69765,113.90712,70,58,0
113.69765,113.90712,82,69,0
113.90712,114.119354,77,59,0
113.90712,114.119354,69,59,0
113.90712,114.119354,81,70,0
114.119354,114.33349,75,61,0
114.119354,114.33349,67,61,0
114.119354,114.33349,79,72,0
114.33349,114.54955,74,61,0
114.33349,114.54955,65,61,0
114.33349,114.54955,77,72,0
114.54955,114.90147,72,62,0
114.54955,114.90147,63,62,0
114.54955,114.90147,75,73,0
114.90147,115.132095,71,31,0
114.90147,115.132095,63,31,0
114.90147,115.132095,75,36,0
115.132095,115.3588,73,32,0
115.132095,115.3588,64,32,0
115.132095,115.3588,76,38,0
115.3588,115.58172,75,34,0
115.3588,115.58172,66,34,0
115.3588,115.58172,78,40,0
115.58172,115.80078,68,36,0
115.58172,115.80078,80,44,0
115.58172,115.80078,76,44,0
115.80078,116.016266,78,38,0
115.80078,116.016266,70,38,0
115.80078,116.016266,82,45,0
116.016266,116.23175,80,41,0
116.016266,116.23175,71,41,0
116.016266,116.23175,83,48,0
116.23175,116.44724,82,43,0
116.23175,116.44724,73,43,0
116.23175,116.44724,85,51,0
116.44724,116.679405,83,45,0
116.44724,116.679405,75,45,0
116.44724,116.679405,87,54,0
116.679405,116.89489,83,40,0
116.679405,116.89489,75,40,0
116.679405,116.89489,87,56,0
116.89489,117.110374,82,49,0
116.89489,117.110374,73,49,0
116.89489,117.110374,85,58,0
117.110374,117.32586,80,49,0
117.110374,117.32586,71,49,0
117.110374,117.32586,83,58,0
117.32586,117.54134,78,49,0
117.32586,117.54134,70,49,0
117.32586,117.54134,82,58,0
117.54134,117.756836,76,50,0
117.54134,117.756836,68,50,0
117.54134,117.756836,80,59,0
117.756836,117.97232,75,50,0
117.756836,117.97232,66,50,0
117.756836,117.97232,78,59,0
117.97232,118.187805,73,50,0
117.97232,118.187805,64,50,0
117.97232,118.187805,76,60,0
118.187805,118.41416,71,50,0
118.187805,118.41416,63,50,0
118.187805,118.41416,75,60,0
118.41416,118.62845,73,47,0
118.41416,118.62845,64,47,0
118.41416,118.62845,76,56,0
118.62845,118.84042,75,48,0
118.62845,118.84042,66,48,0
118.62845,118.84042,78,57,0
118.84042,119.050415,76,49,0
118.84042,119.050415,68,49,0
118.84042,119.050415,80,58,0
119.050415,119.25846,70,50,0
119.050415,119.25846,78,50,0
119.050415,119.25846,82,60,0
119.25846,119.46394,80,51,0
119.25846,119.46394,71,51,0
119.25846,119.46394,83,61,0
119.46394,119.67032,82,52,0
119.46394,119.67032,73,52,0
119.46394,119.67032,85,62,0
119.67032,119.87568,83,54,0
119.67032,119.87568,75,54,0
119.67032,119.87568,87,63,0
119.87568,120.090904,85,54,0
119.87568,120.090904,76,54,0
119.87568,120.090904,88,64,0
120.090904,120.29468,85,57,0
120.090904,120.29468,76,57,0
120.090904,120.29468,88,68,0
120.29468,120.500374,83,55,0
120.29468,120.500374,75,55,0
120.29468,120.500374,87,66,0
120.500374,120.70785,82,56,0
120.500374,120.70785,73,56,0
120.500374,120.70785,85,67,0
120.70785,120.91731,80,58,0
120.70785,120.91731,71,58,0
120.70785,120.91731,83,69,0
120.91731,121.12955,78,59,0
120.91731,121.12955,70,59,0
120.91731,121.12955,82,70,0
121.12955,121.34369,76,61,0
121.12955,121.34369,68,61,0
121.12955,121.34369,80,72,0
121.34369,121.55975,75,61,0
121.34369,121.55975,66,61,0
121.34369,121.55975,78,72,0
121.55975,121.7991,73,62,0
121.55975,121.7991,64,62,0
121.55975,121.7991,76,73,0
121.7991,122.011536,70,58,0
121.7991,122.011536,76,69,0
121.7991,122.011536,73,58,0
121.7991,122.011536,64,58,0
122.011536,122.22348,65,59,0
122.011536,122.22348,77,70,0
122.22348,122.432945,67,60,0
122.22348,122.432945,79,71,0
122.432945,122.64194,68,61,0
122.432945,122.64194,80,72,0
122.64194,122.84852,70,61,0
122.64194,122.84852,82,72,0
122.84852,123.054634,72,62,0
122.84852,123.054634,84,73,0
123.054634,123.25841,73,63,0
123.054634,123.25841,85,74,0
123.25841,123.49057,76,63,0
123.25841,123.49057,88,75,0
123.49057,123.69435,84,64,0
123.49057,123.69435,89,76,0
123.49057,123.69435,80,64,0
123.49057,123.69435,77,64,0
123.69435,123.898125,75,64,0
123.69435,123.898125,87,76,0
123.898125,124.1019,73,63,0
123.898125,124.1019,85,75,0
124.1019,124.30825,72,63,0
124.1019,124.30825,84,75,0
124.30825,124.51604,70,63,0
124.30825,124.51604,82,74,0
124.51604,124.7255,68,62,0
124.51604,124.7255,80,73,0
124.7255,124.93695,67,61,0
124.7255,124.93695,79,72,0
124.93695,125.14938,65,61,0
124.93695,125.14938,77,72,0
125.14938,125.36182,72,61,0
125.14938,125.36182,78,72,0
125.14938,125.36182,75,61,0
125.14938,125.36182,66,61,0
125.36182,125.57188,67,60,0
125.36182,125.57188,79,71,0
125.57188,125.7802,69,61,0
125.57188,125.7802,81,72,0
125.7802,125.98678,70,61,0
125.7802,125.98678,82,72,0
125.98678,126.19055,72,63,0
125.98678,126.19055,84,74,0
126.19055,126.39269,74,63,0
126.19055,126.39269,86,75,0
126.39269,126.592674,75,64,0
126.39269,126.592674,87,76,0
126.592674,126.8213,78,65,0
126.592674,126.8213,90,77,0
126.8213,127.0171,86,66,0
126.8213,127.0171,91,79,0
126.8213,127.0171,82,66,0
126.8213,127.0171,79,66,0
127.0171,127.214966,77,65,0
127.0171,127.214966,89,78,0
127.214966,127.41495,75,66,0
127.214966,127.41495,87,79,0
127.41495,127.61708,74,66,0
127.41495,127.61708,86,79,0
127.61708,127.82142,72,67,0
127.61708,127.82142,84,80,0
127.82142,128.028,70,68,0
127.82142,128.028,82,81,0
128.028,128.23747,69,69,0
128.028,128.23747,81,81,0
128.23747,128.44698,67,70,0
128.23747,128.44698,79,82,0
128.44698,128.65356,74,72,0
128.44698,128.65356,77,86,0
128.44698,128.65356,80,86,0
128.44698,128.65356,68,72,0
128.65356,128.85979,69,70,0
128.65356,128.85979,81,82,0
128.85979,129.06357,70,70,0
128.85979,129.06357,82,82,0
129.06357,129.267,71,70,0
129.06357,129.267,83,82,0
129.267,129.46823,72,72,0
129.267,129.46823,84,83,0
129.46823,129.67201,73,71,0
129.46823,129.67201,85,84,0
129.67201,129.87578,74,72,0
129.67201,129.87578,86,86,0
129.87578,130.07883,75,72,0
129.87578,130.07883,87,86,0
130.07883,130.27988,76,72,0
130.07883,130.27988,88,86,0
130.27988,130.48093,77,71,0
130.27988,130.48093,89,84,0
130.48093,130.68196,78,71,0
130.48093,130.68196,90,84,0
130.68196,130.88284,79,71,0
130.68196,130.88284,91,84,0
130.88284,131.08122,80,72,0
130.88284,131.08122,92,86,0
131.08122,131.2796,81,71,0
131.08122,131.2796,93,84,0
131.2796,131.478,82,71,0
131.2796,131.478,94,84,0
131.478,131.67569,83,71,0
131.478,131.67569,95,84,0
131.67569,131.87149,84,72,0
131.67569,131.87149,96,85,0
131.87149,132.06729,85,72,0
131.87149,132.06729,97,86,0
132.06729,132.26308,86,73,0
132.06729,132.26308,98,87,0
132.26308,132.45888,87,73,0
132.26308,132.45888,99,87,0
132.45888,132.65552,88,74,0
132.45888,132.65552,100,88,0
132.65552,132.85617,89,75,0
132.65552,132.85617,101,89,0
132.65552,132.85617,98,89,0
132.85617,133.06087,90,75,0
132.85617,133.06087,101,90,0
132.85617,133.06087,98,75,0
133.06087,133.26991,91,76,0
133.06087,133.26991,101,90,0
133.06087,133.26991,98,76,0
133.26991,133.69478,92,77,0
133.26991,133.69478,101,91,0
133.26991,133.69478,98,91,0
134.96828,135.17487,76,72,0
134.96828,135.17487,69,72,0
134.96828,135.17487,81,86,0
135.17487,135.3811,70,70,0
135.17487,135.3811,82,82,0
135.3811,135.58487,71,70,0
135.3811,135.58487,83,81,0
135.58487,135.78831,72,69,0
135.58487,135.78831,84,81,0
135.78831,135.98953,73,60,0
135.78831,135.98953,85,84,0
135.98953,136.19331,74,72,0
135.98953,136.19331,86,84,0
136.19331,136.3971,75,72,0
136.19331,136.3971,87,86,0
136.3971,136.60014,76,72,0
136.3971,136.60014,88,86,0
136.60014,136.80118,77,61,0
136.60014,136.80118,89,86,0
136.80118,137.00223,78,72,0
136.80118,137.00223,90,85,0
137.00223,137.20328,79,72,0
137.00223,137.20328,91,85,0
137.20328,137.40414,80,72,0
137.20328,137.40414,92,85,0
137.40414,137.60252,81,72,0
137.40414,137.60252,93,86,0
137.60252,137.80092,82,71,0
137.60252,137.80092,93,84,0
137.80092,137.9993,81,71,0
137.80092,137.9993,83,71,0
137.80092,137.9993,93,84,0
137.9993,138.197,81,71,0
137.9993,138.197,84,71,0
137.9993,138.197,93,84,0
138.197,138.39279,85,72,0
138.197,138.39279,93,85,0
138.197,138.39279,81,72,0
138.39279,138.5886,86,72,0
138.39279,138.5886,93,86,0
138.39279,138.5886,81,72,0
138.5886,138.7844,87,73,0
138.5886,138.7844,93,87,0
138.5886,138.7844,81,73,0
138.7844,138.9802,88,73,0
138.7844,138.9802,93,87,0
138.7844,138.9802,81,73,0
138.9802,139.17682,89,74,0
138.9802,139.17682,93,88,0
138.9802,139.17682,81,74,0
139.17682,139.37749,81,75,0
139.17682,139.37749,93,89,0
139.17682,139.37749,90,75,0
139.37749,139.58217,91,76,0
139.37749,139.58217,93,90,0
139.37749,139.58217,81,76,0
139.58217,139.79121,92,77,0
139.58217,139.79121,93,90,0
139.58217,139.79121,81,77,0
139.79121,140.21608,81,77,0
139.79121,140.21608,93,91,0
141.49069,143.19017,69,63,0
143.19017,144.88965,66,63,0
144.88965,146.58913,62,65,0
146.58913,147.78053,70,63,0
147.78053,148.1858,70,58,0
148.1858,149.74251,63,63,0
149.74251,150.45132,63,63,0
150.45132,151.1827,63,60,0
151.1827,152.74031,62,64,0
153.46024,153.65466,58,57,0
153.46024,153.65466,55,57,0
153.46024,153.65466,50,57,0
154.25621,155.95569,63,63,0
155.95569,157.2303,70,63,0
157.2303,157.65517,70,58,0
157.65517,159.35464,61,65,0
159.35464,160.95132,65,63,0
160.95132,162.55945,59,63,0
162.55945,163.94849,64,63,0
163.94849,164.0542,62,60,0
163.94849,164.0542,50,58,0
164.0542,165.73416,60,64,0
165.73416,166.51445,57,57,0
167.3104,167.44551,57,35,0
167.44551,167.57623,58,36,0
167.57623,167.70374,59,36,0
167.70374,167.82927,60,38,0
167.82927,167.95207,61,39,0
167.95207,168.07306,62,40,0
168.07306,168.1915,63,42,0
168.1915,168.30827,64,43,0
168.30827,168.42662,65,44,0
168.42662,168.5369,66,45,0
168.5369,168.64717,67,46,0
168.64717,168.75745,68,47,0
168.75745,168.88673,81,51,0
168.75745,168.88673,69,51,0
168.88673,169.01312,69,51,0
169.01312,169.13835,68,51,0
169.13835,169.26146,67,50,0
169.26146,169.38306,66,49,0
169.38306,169.50291,65,48,0
169.50291,169.62108,64,47,0
168.88673,169.62108,81,62,0
169.62108,169.73785,63,46,0
169.73785,169.85298,62,45,0
169.85298,169.96632,61,44,0
169.96632,170.07346,60,43,0
170.07346,170.18057,59,43,0
170.18057,170.2877,58,42,0
170.2877,170.4062,57,58,0
170.2877,170.4062,52,58,0
170.4062,170.53435,58,48,0
170.53435,170.66087,59,45,0
170.66087,170.78581,60,45,0
170.78581,170.90923,61,45,0
170.90923,171.03082,62,47,0
171.03082,171.15097,63,48,0
170.4062,171.15097,53,45,0
170.4078,171.15247,57,60,0
171.15097,171.26968,64,49,0
171.26968,171.38701,65,51,0
171.38701,171.50298,66,52,0
171.50298,171.61327,67,53,0
171.61327,171.72354,68,54,0
171.72354,171.83382,69,54,0
171.83382,171.9631,81,69,0
171.83382,171.9631,70,55,0
171.9631,172.0895,71,55,0
172.0895,172.21472,70,57,0
172.21472,172.33781,69,56,0
172.33781,172.45914,68,54,0
172.45914,172.5787,67,54,0
172.5787,172.69655,66,53,0
171.9631,172.69655,81,71,0
172.69655,172.81277,65,51,0
172.8171,172.93195,64,50,0
172.92767,173.04102,63,49,0
173.04102,173.14815,62,47,0
173.14815,173.25526,61,46,0
173.25526,173.3624,60,46,0
173.3624,173.48842,59,66,0
173.3624,173.48842,53,33,0
173.3624,173.48842,58,48,0
173.48842,173.61462,60,66,0
173.61462,173.73895,61,50,0
173.73895,173.86113,62,51,0
173.86113,173.98126,63,52,0
173.98126,174.09943,64,53,0
174.09943,174.2159,65,53,0
173.48842,174.2159,57,54,0
174.2159,174.33028,66,54,0
174.33028,174.4431,67,54,0
174.4431,174.55414,68,55,0
174.55414,174.66441,69,56,0
174.66441,174.77469,70,56,0
174.77469,174.88498,71,57,0
174.88498,175.01308,81,77,0
174.88498,175.01308,72,57,0
174.88498,175.01308,69,53,0
175.01308,175.13802,73,57,0
175.13802,175.26143,72,61,0
175.26143,175.38303,71,59,0
175.01308,175.38303,69,70,0
175.38303,175.50317,70,58,0
175.50317,175.62161,69,56,0
175.62161,175.73866,68,55,0
175.01308,175.73866,81,77,0
175.73866,175.8541,67,54,0
175.85841,175.97247,66,52,0
175.96822,176.08075,65,51,0
176.08075,176.16565,64,49,0
176.16565,176.25285,63,48,0
176.25285,176.3425,62,47,0
176.3425,176.43509,61,46,0
176.3425,176.43509,57,46,0
176.43509,176.52766,62,46,0
176.52766,176.61949,63,47,0
176.61949,176.71059,64,48,0
176.71059,176.80093,65,49,0
176.80093,176.89021,66,50,0
176.89021,176.9786,67,51,0
176.9786,177.06631,68,52,0
177.06631,177.15335,69,53,0
176.43509,177.15335,57,46,0
177.15335,177.23955,70,54,0
177.23955,177.32494,71,54,0
177.32494,177.40952,72,54,0
177.40952,177.49345,73,55,0
177.49345,177.57678,74,57,0
177.57678,177.6592,75,57,0
177.6592,177.741,76,58,0
177.741,177.82208,77,59,0
177.82208,177.90257,78,60,0
177.90257,177.98235,79,61,0
177.98235,178.06143,80,62,0
178.06143,178.13995,81,63,0
178.13995,178.2178,82,63,0
178.2178,178.29512,83,64,0
178.29512,178.37164,84,65,0
178.37164,178.45784,85,66,0
178.45784,178.54404,86,77,0
178.54404,178.63007,85,66,0
178.63007,178.71529,84,65,0
178.71529,178.80019,83,63,0
178.80019,178.88445,82,63,0
178.88445,178.96823,81,62,0
178.96823,179.05156,80,60,0
179.05156,179.13412,79,59,0
179.13412,179.21652,78,58,0
179.21652,179.29803,77,57,0
179.29803,179.37941,76,55,0
179.37941,179.46004,75,54,0
179.46004,179.54025,74,53,0
179.54025,179.62003,73,52,0
179.62003,179.69925,72,51,0
179.69925,179.77818,71,49,0
179.77818,179.85645,70,48,0
179.85645,179.93442,69,47,0
179.93442,180.01173,68,46,0
180.01173,180.08879,67,45,0
180.08879,180.16531,66,44,0
180.16531,180.2418,65,43,0
180.2418,180.32164,64,41,0
180.32164,180.40611,63,40,0
180.40611,180.4954,62,39,0
180.4954,180.58363,63,39,0
180.4954,180.58363,60,39,0
180.58363,180.67186,64,40,0
180.58363,180.67186,61,40,0
180.67186,180.75906,65,41,0
180.67186,180.75906,62,41,0
180.75906,180.84625,66,42,0
180.75906,180.84625,63,42,0
180.84625,180.93312,67,43,0
180.84625,180.93312,64,43,0
180.93312,181.01932,68,44,0
180.93312,181.01932,65,44,0
181.01932,181.10551,69,45,0
181.01932,181.10551,66,45,0
181.10551,181.1909,70,45,0
181.10551,181.1909,67,45,0
181.1909,181.27612,71,45,0
181.1909,181.27612,68,45,0
181.27612,181.36118,72,46,0
181.27612,181.36118,69,46,0
181.36118,181.44543,73,47,0
181.36118,181.44543,70,47,0
181.44543,181.5297,74,48,0
181.44543,181.5297,71,48,0
181.5297,181.61333,75,49,0
181.5297,181.61333,72,49,0
181.61333,181.69666,76,50,0
181.61333,181.69666,73,50,0
181.69666,181.77998,77,51,0
181.69666,181.77998,74,51,0
181.77998,181.86238,78,52,0
181.77998,181.86238,75,52,0
181.86238,181.9448,79,53,0
181.86238,181.9448,76,53,0
181.9448,182.02675,80,53,0
181.9448,182.02675,77,53,0
182.02675,182.10828,81,54,0
182.02675,182.10828,78,54,0
182.10828,182.18979,82,54,0
182.10828,182.18979,79,54,0
182.18979,182.27057,83,55,0
182.18979,182.27057,80,55,0
182.27057,182.3512,84,56,0
182.27057,182.3512,81,56,0
182.3512,182.4317,85,57,0
182.3512,182.4317,82,57,0
182.4317,182.51147,86,58,0
182.4317,182.51147,83,58,0
182.51147,182.59125,87,59,0
182.51147,182.59125,84,59,0
182.59125,182.67047,88,60,0
182.59125,182.67047,85,60,0
182.67047,182.7494,89,60,0
182.67047,182.7494,86,60,0
182.7494,182.82835,90,61,0
182.7494,182.82835,87,61,0
182.82835,182.90646,91,62,0
182.82835,182.90646,88,62,0
182.90646,182.98459,92,63,0
182.90646,182.98459,89,63,0
182.98459,183.0623,93,63,0
182.98459,183.0623,90,63,0
183.0623,183.1396,94,64,0
183.0623,183.1396,91,64,0
183.1396,183.21692,95,65,0
183.1396,183.21692,92,65,0
183.21692,183.29356,96,66,0
183.21692,183.29356,93,66,0
183.29356,183.37392,97,67,0
183.29356,183.37392,94,67,0
183.37392,183.45947,98,72,0
183.37392,183.45947,95,72,0
183.45947,183.58623,99,66,0
183.45947,183.58623,96,66,0
183.58623,183.69527,98,66,0
183.58623,183.69527,95,66,0
183.69527,183.8012,97,65,0
183.69527,183.8012,94,65,0
183.8012,183.90433,96,64,0
183.8012,183.90433,93,64,0
183.90433,184.0048,95,64,0
183.90433,184.0048,92,64,0
184.0048,184.10275,94,63,0
184.0048,184.10275,91,63,0
184.10275,184.19809,93,63,0
184.10275,184.19809,90,63,0
184.19809,184.29106,92,62,0
184.19809,184.29106,89,62,0
184.29106,184.38182,91,62,0
184.29106,184.38182,88,62,0
184.38182,184.47052,90,61,0
184.38182,184.47052,87,61,0
184.47052,184.55725,89,60,0
184.47052,184.55725,86,60,0
184.55725,184.64194,88,59,0
184.55725,184.64194,85,59,0
184.64194,184.72597,87,59,0
184.64194,184.72597,84,59,0
184.72597,184.81024,86,58,0
184.72597,184.81024,83,58,0
184.81024,184.89403,85,57,0
184.81024,184.89403,82,57,0
184.89403,184.97736,84,57,0
184.89403,184.97736,81,57,0
184.97736,185.06036,83,56,0
184.97736,185.06036,80,56,0
185.06036,185.14278,82,55,0
185.06036,185.14278,79,55,0
185.14278,185.22488,81,54,0
185.14278,185.22488,78,54,0
185.22488,185.3064,80,54,0
185.22488,185.3064,77,54,0
185.3064,185.38762,79,54,0
185.3064,185.38762,76,54,0
185.38762,185.46826,78,53,0
185.38762,185.46826,75,53,0
185.46826,185.54875,77,53,0
185.46826,185.54875,74,53,0
185.54875,185.62852,76,52,0
185.54875,185.62852,73,52,0
185.62852,185.70818,75,51,0
185.62852,185.70818,72,51,0
185.70818,185.78711,74,50,0
185.70818,185.78711,71,50,0
185.78711,185.86604,73,50,0
185.78711,185.86604,70,50,0
185.86604,185.94417,72,49,0
185.86604,185.94417,69,49,0
185.94417,186.02228,71,48,0
185.94417,186.02228,68,48,0
186.02228,186.0996,70,48,0
186.02228,186.0996,67,48,0
186.0996,186.17691,69,47,0
186.0996,186.17691,66,47,0
186.17691,186.25343,68,46,0
186.17691,186.25343,65,46,0
186.25343,186.32996,67,45,0
186.25343,186.32996,64,45,0
186.32996,186.40582,66,45,0
186.32996,186.40582,63,45,0
186.40582,186.48158,65,45,0
186.40582,186.48158,62,45,0
186.48158,186.5567,64,44,0
186.48158,186.5567,61,44,0
186.5567,186.63239,63,43,0
186.5567,186.63239,60,43,0
186.63239,186.71571,60,45,0
186.63239,186.71571,57,45,0
186.63239,186.71571,64,57,0
186.71571,186.7985,65,44,0
186.7985,186.88068,66,45,0
186.88068,186.96219,67,45,0
186.96219,187.04291,68,46,0
187.04291,187.12318,69,47,0
187.12318,187.2029,70,49,0
187.2029,187.28183,71,49,0
187.28183,187.36015,72,51,0
187.36015,187.43806,73,52,0
187.43806,187.51538,74,53,0
187.51538,187.59196,75,54,0
187.59196,187.66805,76,54,0
187.66805,187.74373,77,55,0
187.74373,187.81873,78,56,0
187.81873,187.89316,79,57,0
187.89316,187.9671,80,58,0
187.9671,188.04063,81,59,0
188.04063,188.11415,82,61,0
188.11415,188.18767,83,61,0
188.18767,188.2609,84,63,0
188.2609,188.33371,85,63,0
188.33371,188.40651,86,64,0
188.40651,188.47932,87,65,0
188.47932,188.55173,88,66,0
188.55173,188.62383,89,67,0
188.62383,188.69594,90,68,0
188.69594,188.76805,91,69,0
188.76805,188.83965,92,70,0
188.83965,188.91106,93,71,0
188.91106,188.98248,94,72,0
188.98248,189.05391,95,72,0
189.05391,189.12471,96,74,0
189.12471,189.19547,97,75,0
189.19547,189.2662,98,76,0
189.2662,189.33743,99,77,0
189.33743,189.49048,88,75,0
189.33743,189.49048,100,89,0
189.33743,189.49048,96,75,0
189.33743,189.49048,93,75,0
189.94962,190.10266,96,71,0
189.94962,190.10266,101,84,0
189.94962,190.10266,89,71,0
189.94962,190.10266,93,71,0
192.07817,192.30894,48,56,0
192.30894,192.53972,47,59,0
192.53972,192.77048,48,56,0
192.77048,192.98203,47,56,0
193.00125,193.23203,52,62,0
193.23203,193.46278,50,58,0
193.46278,193.76222,48,58,0
194.00813,194.24251,48,56,0
194.24251,194.47688,47,62,0
194.47688,194.72688,48,56,0
194.72688,194.96881,47,56,0
194.96881,195.21075,52,62,0
195.21075,195.44885,50,58,0
195.44885,195.76242,48,58,0
196.01964,196.28055,48,52,0
196.28055,196.54146,47,54,0
196.54146,196.79141,48,51,0
196.79141,197.00633,47,51,0
197.02585,197.2602,52,57,0
197.2602,197.50215,50,54,0
197.50215,197.7562,48,54,0
197.7562,197.99393,47,45,0
197.99393,198.23206,52,54,0
198.23206,198.4702,50,51,0
198.4702,198.73732,48,45,0
198.99641,199.26872,48,49,0
199.26872,199.55612,47,45,0
199.55612,199.90623,48,45,0
201.5208,202.3777,68,33,0
201.5208,202.3777,71,39,0
202.3777,202.80615,64,32,0
202.3777,202.80615,68,38,0
203.2346,204.49638,71,32,0
203.2346,204.49638,74,38,0
204.49638,204.63402,73,32,0
204.49638,204.63402,76,38,0
204.63402,204.77617,71,29,0
204.63402,204.77617,74,35,0
204.77617,204.9253,69,29,0
204.77617,204.9253,73,35,0
204.9253,205.7822,71,33,0
204.9253,205.7822,68,27,0
208.03412,208.78394,71,36,0
208.03412,208.78394,74,43,0
208.78394,209.15883,68,32,0
208.78394,209.15883,71,38,0
209.53374,210.53352,74,32,0
209.53374,210.53352,78,38,0
210.53352,210.62442,76,30,0
210.53352,210.62442,80,36,0
210.62442,210.7153,74,27,0
210.62442,210.7153,78,33,0
210.7153,210.8062,73,29,0
210.7153,210.8062,76,35,0
210.8062,211.78424,78,35,0
210.8062,211.78424,83,42,0
211.78424,211.87857,80,35,0
211.78424,211.87857,85,42,0
211.87857,211.97289,78,30,0
211.87857,211.97289,83,36,0
211.97289,212.06721,76,30,0
211.97289,212.06721,81,36,0
212.06721,213.06699,80,38,0
212.06721,213.06699,86,45,0
213.06699,213.15956,88,47,0
213.15956,213.25214,86,40,0
213.25214,213.34471,85,40,0
213.34471,214.96,83,41,0
213.34471,214.96,90,49,0
214.96,215.1683,83,38,0
214.96,215.1683,89,38,0
215.23773,215.44225,83,43,0
215.23773,215.44225,89,43,0
215.5092,215.71005,83,38,0
215.5092,215.71005,88,38,0
215.77583,215.97203,88,43,0
215.77583,215.97203,83,43,0
216.03667,216.2295,88,38,0
216.03667,216.2295,82,38,0
216.29306,216.48158,88,42,0
216.29306,216.48158,82,42,0
216.54678,216.85603,88,38,0
216.54678,216.85603,81,38,0
216.99487,218.40831,88,47,0
216.90231,218.40831,81,42,0
218.40831,218.62103,87,46,0
218.40831,218.62103,81,46,0
218.62103,218.83376,80,39,0
218.83376,219.04648,79,45,0
218.62103,219.04648,86,43,0
219.04648,219.2592,79,36,0
219.2592,219.4748,78,44,0
219.04648,219.4748,85,41,0
219.4748,219.71823,77,36,0
219.71823,219.94484,76,46,0
219.4748,219.94484,83,42,0
219.94484,220.18005,76,35,0
220.18005,220.43573,74,44,0
219.94484,220.43573,81,41,0
220.43573,220.71732,74,33,0
220.71732,220.90756,72,38,0
220.43573,221.02997,79,37,0
221.02997,221.42934,79,38,0
220.90756,221.42934,71,38,0
221.87025,222.33304,71,35,0
221.87025,222.33304,77,42,0
222.38658,222.86856,71,35,0
222.38658,222.86856,76,41,0
222.9221,223.40408,71,33,0
222.9221,223.40408,74,39,0
225.59972,226.0817,71,35,0
225.59972,226.0817,80,42,0
226.13524,226.61722,71,35,0
226.13524,226.61722,78,41,0
226.67076,227.15274,71,34,0
226.67076,227.15274,76,40,0
227.2063,227.44728,71,33,0
227.2063,227.44728,74,39,0
227.74182,229.16988,66,38,0
229.16988,229.88391,65,34,0
227.74182,229.88391,74,38,0
227.60794,229.88391,71,35,0
227.47406,229.88391,68,34,0
229.88391,230.59793,73,38,0
229.88391,230.59793,68,36,0
229.88391,230.59793,64,33,0
230.59793,231.77371,72,38,0
230.59793,231.77371,68,33,0
230.59793,231.77371,63,30,0
232.43831,232.90161,71,38,0
232.43831,232.90161,68,35,0
232.43831,232.90161,62,32,0
233.7993,234.04524,61,24,0
233.7993,234.04524,64,24,0
233.7993,234.04524,69,28,0
234.9975,235.31389,64,24,0
234.9975,235.31389,61,24,0
234.9975,235.31389,69,28,0
236.20268,236.49446,66,28,0
236.20268,236.49446,62,28,0
236.20268,236.49446,71,34,0
237.39339,237.70978,59,26,0
237.39339,237.70978,66,31,0
238.66481,238.93552,68,28,0
238.56294,238.93552,56,24,0
238.59833,238.93552,59,24,0
238.63158,238.93552,64,24,0
239.80527,240.11513,63,25,0
239.80527,240.11513,66,29,0
240.42497,241.05775,56,25,0
240.42497,241.05775,64,29,0
241.05775,241.67746,71,27,0
241.05775,241.67746,74,33,0
241.05775,242.33842,64,25,0
241.05775,242.34398,76,30,0
241.67746,242.34398,73,32,0
241.67746,242.34398,69,27,0
242.34398,243.08818,62,25,0
242.34398,243.08818,68,30,0
242.34398,243.08818,76,29,0
243.70789,243.96881,61,24,0
243.70789,243.96881,64,24,0
243.70789,243.96881,69,28,0
244.87149,245.18787,64,24,0
244.87149,245.18787,61,24,0
244.87149,245.18787,69,28,0
246.07668,246.36844,66,28,0
246.07668,246.36844,62,28,0
246.07668,246.36844,71,34,0
247.26738,247.56494,62,26,0
247.26738,247.56494,66,31,0
247.26738,247.56494,71,34,0
248.41908,248.70529,68,28,0
248.41908,248.70529,62,24,0
248.41908,248.70529,59,24,0
249.57504,249.8849,62,25,0
249.57504,249.8849,64,29,0
249.57504,249.8849,59,25,0
250.19475,250.82753,61,25,0
250.19475,250.82753,64,29,0
250.82753,251.44724,76,32,0
250.82753,251.44724,88,39,0
251.44724,252.10788,74,32,0
251.44724,252.10788,86,38,0
251.44724,252.10788,78,32,0
252.62381,252.8094,64,40,0
252.10788,252.8094,71,29,0
252.10788,252.8094,83,36,0
252.10788,252.8094,74,29,0
253.36281,253.60786,64,34,0
253.36281,253.60786,61,30,0
252.8094,253.60786,69,50,0
253.60786,253.83282,71,43,0
254.43219,254.70387,64,34,0
254.43219,254.70387,61,30,0
253.9078,254.70387,73,51,0
254.70387,254.97557,69,47,0
254.97557,255.56139,66,47,0
255.48816,255.81908,62,37,0
255.56139,256.65137,71,50,0
256.65137,256.92307,66,37,0
256.65137,257.19473,69,49,0
257.76022,258.00528,64,34,0
257.76022,258.00528,59,32,0
257.19473,258.00528,68,50,0
258.00528,258.27213,68,45,0
258.81552,259.12665,63,36,0
258.27213,259.12665,69,49,0
258.81552,259.12665,57,36,0
258.81552,259.4378,71,50,0
259.4378,259.73184,71,45,0
259.3989,259.73184,64,29,0
259.73184,260.0259,64,42,0
259.36002,260.0259,56,25,0
260.0259,260.59186,71,27,0
260.0259,260.59186,74,33,0
260.59186,260.9907,69,27,0
260.59186,260.9907,73,32,0
260.0259,261.23,64,25,0
260.0259,261.23,76,30,0
261.7299,261.9155,64,40,0
261.15024,261.9155,68,25,0
261.19012,261.9155,71,30,0
261.11035,261.9155,62,25,0
261.23,261.9155,74,25,0
262.4689,262.71396,64,34,0
262.4689,262.71396,61,30,0
261.9155,262.71396,69,50,0
262.71396,262.9389,71,43,0
263.53827,263.80997,64,34,0
263.53827,263.80997,61,30,0
263.0139,263.80997,73,51,0
263.80997,264.08167,69,47,0
264.08167,264.62112,66,47,0
264.62112,264.8788,62,37,0
264.62112,265.71112,71,50,0
265.71112,265.9828,66,37,0
265.71112,266.2545,69,49,0
266.2545,266.54068,69,47,0
266.54068,266.8021,68,47,0
266.8021,266.9859,66,47,0
266.8021,267.04715,62,34,0
266.8021,267.04715,59,32,0
267.04715,267.24728,64,44,0
267.314,267.42267,64,46,0
267.42267,267.53137,66,46,0
267.53137,267.64005,64,46,0
267.64005,267.74872,63,46,0
267.74872,267.8574,64,46,0
267.8574,268.0649,66,47,0
267.8574,268.1341,62,36,0
268.1341,268.3416,68,47,0
268.4108,268.61456,69,47,0
268.6825,268.8947,73,49,0
268.96545,269.24216,64,37,0
268.96545,270.09344,76,54,0
270.09344,270.36514,64,37,0
270.09344,270.36514,62,37,0
270.09344,270.63684,71,49,0
270.63684,270.9036,74,47,0
270.9036,271.16766,73,47,0
271.16766,271.35147,71,47,0
271.16766,271.41272,64,34,0
271.16766,271.41272,61,32,0
271.41272,271.61285,69,44,0
271.6796,271.7618,69,46,0
271.77356,271.86752,69,43,0
271.86752,271.9803,71,43,0
271.9615,272.05545,69,43,0
272.05545,272.1494,68,43,0
272.1494,272.24338,69,43,0
272.24338,272.50494,73,47,0
272.24338,272.59213,62,36,0
272.7256,272.859,71,45,0
272.859,273.1463,61,40,0
272.859,273.1463,69,47,0
273.4336,273.71655,88,36,0
273.4336,273.71655,85,36,0
273.4336,273.71655,97,44,0
273.99954,274.2825,85,36,0
273.99954,274.2825,81,36,0
273.99954,274.2825,93,44,0
275.1314,275.66702,56,45,0
275.1314,275.66702,59,53,0
275.66702,275.94998,56,50,0
275.94998,276.1622,52,47,0
276.23294,276.76855,57,45,0
276.23294,276.76855,61,53,0
276.76855,277.0515,61,43,0
276.76855,277.0515,64,51,0
277.0515,277.26376,57,40,0
277.0515,277.26376,61,47,0
277.3345,278.19427,56,45,0
277.3345,278.19427,59,54,0
278.19427,278.47723,52,40,0
278.19427,278.47723,56,47,0
278.47723,278.7713,56,42,0
278.47723,278.7713,59,50,0
279.31955,279.57373,71,44,0
279.57373,279.84155,70,51,0
279.84155,280.10938,71,45,0
280.10938,280.35522,73,49,0
280.35522,280.60107,71,45,0
280.60107,280.85104,70,48,0
280.85104,281.1175,71,45,0
279.57373,281.35452,66,33,0
281.1175,281.37607,69,48,0
281.37607,281.63464,66,45,0
281.63464,282.20935,68,48,0
281.63464,282.20935,64,48,0
282.20935,282.33228,88,30,0
282.20935,282.33228,92,38,0
282.33228,282.4552,90,31,0
282.33228,282.4552,93,39,0
282.4552,282.57812,92,34,0
282.4552,282.57812,95,43,0
282.57812,282.717,90,32,0
282.57812,282.717,93,41,0
282.717,283.00543,88,31,0
282.717,283.00543,92,39,0
283.87064,284.40628,56,45,0
283.87064,284.40628,59,53,0
284.40628,284.68924,56,50,0
284.68924,284.90146,52,47,0
284.9739,285.06012,61,38,0
284.9739,285.06012,57,38,0
285.07263,285.16724,61,33,0
285.07263,285.16724,57,33,0
285.16724,285.25653,63,36,0
285.16724,285.25653,59,36,0
285.25653,285.3458,61,33,0
285.25653,285.3458,57,33,0
285.3458,285.4514,60,38,0
285.3458,285.4514,56,38,0
285.4514,285.54282,61,33,0
285.4514,285.54282,57,33,0
285.5733,285.87326,64,51,0
285.54282,285.87326,61,43,0
285.87326,286.08154,57,40,0
285.87326,286.08154,61,47,0
286.15097,287.01074,56,45,0
286.15097,287.01074,59,54,0
287.01074,287.2937,52,40,0
287.01074,287.2937,56,47,0
287.2937,287.58777,56,42,0
287.2937,287.58777,59,50,0
288.13602,288.9258,71,44,0
288.9258,289.1717,71,49,0
289.1717,289.41754,71,45,0
289.41754,289.65945,70,48,0
289.65945,289.92188,71,45,0
289.92188,290.16772,69,48,0
290.16772,290.4136,71,45,0
288.39023,290.4136,66,33,0
290.4136,290.65945,68,51,0
290.65945,290.91287,71,45,0
290.91287,291.04443,71,45,0
291.176,291.30756,71,45,0
290.4136,291.43912,64,33,0
291.43912,291.681,70,48,0
291.681,291.94345,71,45,0
291.94345,292.1893,69,48,0
292.1893,292.43515,71,45,0
291.43912,292.43515,66,33,0
292.43515,292.6852,68,51,0
292.6852,292.92712,71,45,0
292.92712,293.04807,71,45,0
293.169,293.28995,71,45,0
292.43515,293.41092,64,33,0
293.41092,293.5696,70,48,0
293.5696,293.72833,73,45,0
293.72833,293.9095,71,45,0
293.9095,294.08185,69,48,0
294.08185,294.25424,73,44,0
294.25424,294.42664,71,44,0
293.41092,294.42664,66,33,0
294.42664,294.9438,68,54,0
294.42664,294.9438,64,54,0
294.9438,295.20236,64,46,0
295.46094,295.9781,59,53,0
295.46094,295.9781,56,53,0
295.9781,296.23666,56,48,0
295.9781,296.23666,52,48,0
296.49524,297.5053,62,55,0
296.49524,297.5053,59,55,0
297.5053,297.7639,59,48,0
297.5053,297.7639,52,48,0
298.5396,299.119,57,47,0
299.119,299.3251,57,46,0
299.38977,299.58368,59,42,0
299.64835,300.17456,61,47,0
300.17456,300.65173,57,43,0
300.7199,301.29233,54,43,0
301.29233,302.37027,59,48,0
302.37027,302.65082,66,42,0
302.37027,302.65082,59,42,0
302.37027,302.93924,69,42,0
303.49478,303.74063,64,33,0
303.49478,303.74063,59,33,0
302.93924,303.74063,68,48,0
303.74063,304.02686,68,42,0
304.02686,304.56247,69,44,0
304.529,304.84018,63,46,0
304.4955,304.84018,57,46,0
304.56247,305.11792,71,46,0
305.11792,305.4343,71,45,0
305.0832,305.4343,64,29,0
305.4343,305.7507,64,42,0
305.0485,305.7507,56,25,0
305.7507,306.31662,83,31,0
305.7507,306.31662,74,31,0
305.7507,306.31662,86,37,0
306.31662,306.95477,81,31,0
306.31662,306.95477,85,36,0
306.31662,306.95477,73,31,0
306.95477,307.67188,80,27,0
306.95477,307.67188,83,27,0
306.95477,307.67188,71,34,0
308.29156,308.5623,61,24,0
308.29156,308.5623,64,24,0
308.29156,308.5623,69,28,0
309.43704,309.75345,64,24,0
309.43704,309.75345,61,24,0
309.43704,309.75345,69,28,0
310.64224,311.80933,74,49,0
310.35605,311.80933,69,47,0
310.06982,311.80933,62,41,0
312.1011,312.39288,74,47,0
312.39288,312.65964,74,47,0
312.65964,312.9237,68,47,0
312.9237,313.1075,68,47,0
313.16876,313.3689,68,44,0
313.43564,313.51785,68,46,0
313.5296,313.61182,68,43,0
313.62357,313.70578,69,43,0
313.71753,313.79974,68,43,0
313.8115,313.8937,66,43,0
313.90546,313.98767,68,43,0
313.99942,314.2318,69,47,0
314.3093,314.50943,71,45,0
312.39288,314.57614,64,34,0
312.39288,314.57614,62,32,0
314.57614,315.13995,61,40,0
314.57614,315.13995,69,47,0
315.13995,315.69403,61,24,0
315.13995,315.7013,64,24,0
315.13995,315.7013,69,28,0
316.24466,316.87744,64,24,0
316.24466,316.87744,61,24,0
316.24466,316.87744,69,28,0
317.02054,317.16367,69,41,0
317.16367,317.30676,74,44,0
316.87744,318.0174,62,38,0
317.44986,318.21173,90,48,0
317.30676,318.21173,78,45,0
318.21173,318.39682,90,40,0
318.21173,318.39682,78,40,0
318.39682,318.57755,90,42,0
318.39682,318.57755,78,42,0
318.57755,318.75406,90,45,0
318.57755,318.75406,78,45,0
318.75406,318.92676,90,46,0
318.75406,318.92676,78,46,0
318.92676,319.09546,90,49,0
318.92676,319.09546,78,49,0
319.09546,319.22003,90,54,0
319.22003,319.34457,80,48,0
319.34457,319.46915,90,44,0
319.46915,319.59372,92,44,0
319.09546,319.59372,78,54,0
319.59372,319.7183,102,54,0
319.7183,319.84283,92,45,0
319.84283,319.9674,90,41,0
319.9674,320.09198,80,41,0
320.09198,320.21652,90,50,0
320.21652,320.3411,80,41,0
320.3411,320.46567,78,41,0
320.46567,320.56937,68,36,0
320.59,320.7328,68,36,0
320.75278,320.8888,68,35,0
320.90784,321.0372,68,36,0
321.05475,321.17447,68,50,0
321.1984,321.31885,68,37,0
321.31885,321.41006,69,41,0
321.41006,321.5013,68,37,0
321.05475,321.5013,64,43,0
321.05475,321.5013,62,43,0
321.5013,321.5923,67,36,0
321.5923,321.6824,68,36,0
321.6824,321.77255,69,36,0
321.77255,321.86243,70,36,0
321.86243,321.95148,71,36,0
321.95148,322.04056,72,37,0
322.04056,322.12936,73,38,0
322.12936,322.21738,74,39,0
322.21738,322.30542,75,40,0
322.30542,322.3932,76,41,0
322.3932,322.4802,77,42,0
322.4802,322.56717,78,43,0
322.56717,322.65393,79,44,0
322.65393,322.73993,80,44,0
322.73993,322.82593,81,45,0
322.82593,322.9117,82,45,0
322.9117,322.99673,83,46,0
322.99673,323.08176,84,47,0
323.08176,323.16656,85,48,0
323.16656,323.25064,86,49,0
323.25064,323.33472,87,50,0
323.33472,323.41855,88,50,0
323.41855,323.5017,89,51,0
323.5017,323.58484,90,52,0
323.58484,323.66776,91,53,0
323.66776,323.75,92,54,0
323.75,323.8322,93,54,0
323.8322,323.9135,94,55,0
323.9135,323.99313,95,56,0
323.99313,324.07224,96,57,0
324.07224,324.15082,97,58,0
324.15082,324.22876,98,58,0
324.22876,324.3158,99,59,0
324.3158,324.4006,100,60,0
324.4006,324.48685,101,62,0
324.48685,324.5759,102,72,0
325.1304,325.4177,62,49,0
325.1304,325.4177,68,43,0
325.4177,325.9815,69,43,0
327.32288,327.58505,76,50,0
327.32288,327.58505,62,45,0
327.32288,327.58505,64,45,0
327.32288,327.58505,71,45,0
327.58505,327.86176,75,55,0
327.86176,328.12396,76,50,0
327.58505,328.12396,69,33,0
327.58505,328.12396,61,33,0
328.12396,328.3755,78,54,0
328.3755,328.62344,76,50,0
328.12396,328.62344,69,33,0
328.62344,328.88113,75,53,0
328.88113,329.15146,76,50,0
329.15146,329.41003,74,53,0
329.41003,329.6758,71,50,0
329.15146,329.6758,64,33,0
329.6758,330.2396,73,43,0
329.6758,330.2396,69,34,0
329.6758,330.2396,64,34,0
331.581,331.84317,71,45,0
331.581,331.84317,62,45,0
331.581,331.84317,64,45,0
331.84317,332.11987,69,33,0
331.84317,332.11987,61,33,0
331.581,332.11987,76,50,0
332.11987,332.31653,88,50,0
332.11987,332.31653,76,38,0
332.38208,332.57672,88,54,0
332.38208,332.57672,76,41,0
332.6403,332.83102,88,50,0
332.6403,332.83102,76,38,0
332.8946,333.1357,87,53,0
332.8946,333.1357,75,40,0
333.1357,333.39774,88,50,0
333.1357,333.39774,76,38,0
333.39774,333.6428,86,53,0
333.39774,333.6428,74,40,0
333.6428,333.8266,88,50,0
333.6428,333.8266,76,38,0
333.88785,334.1329,88,54,0
333.88785,334.1329,76,42,0
334.1329,334.3167,85,50,0
334.1329,334.3167,73,38,0
334.378,334.56177,85,50,0
334.378,334.56177,73,38,0
334.62305,334.81967,85,50,0
334.62305,334.81967,73,38,0
334.88522,335.13028,84,54,0
334.88522,335.13028,72,41,0
335.13028,335.37534,85,50,0
335.13028,335.37534,73,38,0
335.37534,335.61508,83,54,0
335.37534,335.61508,71,41,0
335.61508,335.7909,85,50,0
335.61508,335.7909,73,38,0
335.8495,336.0986,85,54,0
335.8495,336.0986,73,42,0
336.0986,336.28546,81,50,0
336.0986,336.28546,69,38,0
336.34775,336.53458,81,50,0
336.34775,336.53458,69,38,0
336.59686,336.78372,81,50,0
336.59686,336.78372,69,38,0
336.846,337.0239,80,55,0
336.846,337.0239,68,43,0
337.0239,337.19418,83,51,0
337.0239,337.19418,71,39,0
337.19418,337.3568,81,51,0
337.19418,337.3568,69,39,0
337.3568,337.5338,79,54,0
337.3568,337.5338,67,42,0
337.5338,337.79935,83,50,0
337.5338,337.79935,71,38,0
337.79935,337.86575,81,50,0
337.79935,337.86575,69,38,0
337.88788,338.1534,81,54,0
337.88788,338.1534,69,41,0
338.1534,338.35254,78,51,0
338.1534,338.35254,66,39,0
338.41895,338.94516,78,51,0
338.41895,338.94516,74,43,0
338.41895,338.94516,66,39,0
339.51108,340.03732,62,55,0
340.03732,340.31503,62,60,0
340.31503,341.14822,56,56,0
341.7481,342.27432,64,55,0
342.27432,342.547,64,60,0
342.547,343.36502,57,56,0
344.2664,344.88507,78,55,0
344.2664,344.88507,90,55,0
344.88507,345.1171,76,55,0
344.88507,345.1171,88,55,0
345.19443,345.42642,75,51,0
345.19443,345.42642,87,51,0
345.50375,345.73236,86,50,0
345.73236,345.88293,86,42,0
345.88293,346.0335,88,45,0
346.0335,346.18408,86,42,0
345.50375,346.18408,74,46,0
346.18408,346.3335,85,46,0
346.3335,346.48016,86,42,0
346.48016,346.62415,97,49,0
346.62415,346.76556,95,44,0
346.76556,346.9045,92,44,0
346.9045,347.04105,86,44,0
347.04105,347.1753,87,45,0
347.1753,347.30728,88,46,0
347.30728,347.43616,89,48,0
347.43616,347.5637,92,52,0
347.5637,347.68973,90,45,0
347.68973,347.81512,86,45,0
347.81512,347.93887,80,45,0
347.93887,348.06198,81,44,0
348.06198,348.18332,82,46,0
348.18332,348.30237,85,49,0
348.30237,348.41696,83,45,0
348.41696,348.5276,80,45,0
348.5276,348.63455,74,44,0
348.63455,348.73788,75,42,0
348.73788,348.83804,76,45,0
348.83804,348.9351,77,48,0
348.9351,349.02972,80,50,0
349.02972,349.12164,78,42,0
349.12164,349.21103,74,42,0
349.21103,349.29797,68,42,0
349.29797,349.38254,69,45,0
349.38254,349.46585,70,39,0
349.46585,349.54886,73,44,0
349.54886,349.63098,71,39,0
349.63098,349.71228,74,46,0
349.71228,349.7928,78,42,0
349.7928,349.87244,75,47,0
349.87244,349.95132,76,45,0
349.95132,350.02942,80,48,0
350.02942,350.10657,85,44,0
350.10657,350.18298,82,48,0
350.18298,350.25867,83,44,0
350.25867,350.33365,86,48,0
350.33365,350.4079,90,45,0
350.4079,350.48148,87,48,0
350.48148,350.55438,88,45,0
350.55438,350.62662,92,48,0
350.62662,350.69806,97,45,0
350.69806,350.767,94,45,0
350.767,350.8359,95,43,0
350.8359,350.90485,98,43,0
350.90485,350.98312,101,43,0
350.98312,351.05203,94,45,0
351.05203,351.12097,95,43,0
351.12097,351.1899,98,45,0
351.1899,351.269,100,45,0
351.269,351.34125,94,49,0
351.34125,351.4135,95,46,0
351.4135,351.48575,98,46,0
351.48575,351.56744,101,47,0
351.56744,351.64038,94,53,0
351.64038,351.71335,95,50,0
351.71335,351.7863,98,51,0
351.7863,351.86798,100,52,0
351.86798,351.94238,94,55,0
351.94238,352.01605,95,54,0
352.01605,352.08972,98,54,0
352.08972,352.17053,101,54,0
352.17053,352.2442,94,59,0
352.2442,352.31784,95,55,0
352.31784,352.3915,98,55,0
352.3915,352.46518,100,55,0
352.46518,352.53287,94,62,0
352.53287,352.60056,95,57,0
352.60056,352.67145,98,49,0
352.67145,352.73975,101,49,0
352.73975,352.80743,99,54,0
352.80743,352.87897,100,49,0
352.87897,352.94666,98,54,0
352.94666,353.01434,99,49,0
353.01434,353.08728,97,54,0
353.08728,353.15955,98,49,0
353.15955,353.22723,96,54,0
353.22723,353.2943,97,49,0
353.2943,353.36322,95,54,0
353.36322,353.4341,96,49,0
353.4341,353.50305,94,54,0
353.50305,353.5707,95,49,0
353.5707,353.6416,93,54,0
353.6416,353.7125,94,45,0
353.7125,353.78018,92,50,0
353.78018,353.8455,93,46,0
353.8455,353.91257,91,50,0
353.91257,353.9828,92,46,0
353.9828,354.05435,90,50,0
354.05435,354.12143,91,46,0
354.12143,354.1885,89,50,0
354.1885,354.2594,90,46,0
354.2594,354.33163,88,50,0
354.33163,354.41058,89,45,0
354.41058,354.48215,87,51,0
354.48215,354.5537,88,44,0
354.5537,354.62524,86,45,0
354.62524,354.6968,87,43,0
354.6968,354.76837,85,47,0
354.76837,354.83994,86,43,0
354.83994,354.9115,84,48,0
354.9115,354.98303,85,43,0
354.98303,355.05484,83,48,0
355.05484,355.12708,84,43,0
355.12708,355.19992,82,49,0
355.19992,355.27316,83,42,0
355.27316,355.34683,81,49,0
355.34683,355.42117,82,45,0
355.42117,355.49588,80,49,0
355.49588,355.57117,81,44,0
355.57117,355.64706,79,50,0
355.64706,355.7235,80,43,0
355.7235,355.80038,78,49,0
355.80038,355.87784,79,44,0
355.87784,355.95593,77,48,0
355.95593,356.03445,78,42,0
356.03445,356.11356,76,49,0
356.11356,356.19333,77,44,0
356.19333,356.27377,75,49,0
356.27377,356.35464,76,44,0
356.35464,356.4363,74,49,0
356.4363,356.51855,76,43,0
356.51855,356.60126,73,48,0
356.60126,356.68478,76,45,0
356.68478,356.7689,74,45,0
356.7689,356.85513,76,42,0
356.85513,356.93756,70,39,0
356.93756,357.01926,76,36,0
357.01926,357.10184,71,43,0
357.10184,357.18457,76,41,0
357.18457,357.26807,73,46,0
357.26807,357.35208,76,42,0
357.35208,357.43652,74,49,0
357.43652,357.52164,76,42,0
357.52164,357.60712,70,39,0
357.60712,357.6935,76,37,0
357.6935,357.7801,71,44,0
357.7801,357.8675,76,41,0
357.8675,357.95496,73,48,0
357.95496,358.04367,76,45,0
358.04367,358.14474,74,48,0
358.14474,358.25137,76,43,0
358.25137,358.36267,70,40,0
358.36267,358.47925,76,38,0
358.47925,358.60162,71,43,0
358.60162,358.73016,76,39,0
358.73016,358.86594,72,45,0
358.86594,359.00943,76,43,0
359.00943,359.16046,73,47,0
359.16046,359.32022,76,45,0
359.32022,359.4868,74,50,0
359.4868,359.6601,76,45,0
359.6601,359.84024,70,46,0
359.84024,360.0283,76,39,0
360.0283,360.4523,71,45,0
360.4523,360.87247,76,43,0
360.87247,361.2853,72,45,0
360.87247,361.2853,64,37,0
361.2853,361.56833,64,42,0
361.56833,361.86246,61,39,0
361.2853,361.86246,73,50,0
361.86246,362.14282,64,37,0
361.86246,362.14282,71,45,0
362.14282,362.4107,64,40,0
362.4107,362.69107,61,37,0
362.14282,362.69107,73,48,0
362.69107,362.97678,64,37,0
362.69107,362.97678,74,45,0
362.97678,363.23993,64,40,0
362.97678,363.23993,71,48,0
363.23993,364.35645,64,43,0
363.23993,364.35645,76,51,0
364.35645,364.65054,64,37,0
364.35645,364.65054,71,45,0
364.65054,364.9184,64,42,0
364.9184,365.19363,61,39,0
364.65054,365.19363,73,50,0
365.19363,365.47665,64,37,0
365.19363,365.47665,71,45,0
365.47665,365.7494,64,40,0
365.7494,366.0351,61,37,0
365.47665,366.0351,73,48,0
366.0351,366.32922,64,37,0
366.0351,366.32922,74,45,0
366.32922,366.5901,64,40,0
366.32922,366.5901,71,48,0
366.5901,367.70697,64,43,0
366.5901,367.70697,76,51,0
367.70697,368.00696,64,44,0
367.70697,368.00696,71,44,0
368.00696,368.27014,69,45,0
368.00696,368.27014,64,45,0
368.00696,368.27014,73,54,0
368.27014,368.5505,73,40,0
368.27014,368.5505,76,48,0
368.5505,368.83087,69,40,0
368.5505,368.83087,73,48,0
368.83087,369.09637,71,44,0
368.83087,369.09637,74,52,0
369.09637,369.3794,74,40,0
369.09637,369.3794,78,47,0
369.3794,369.6624,71,40,0
369.3794,369.6624,74,47,0
369.6624,370.47238,69,45,0
369.6624,370.47238,73,53,0
370.47238,370.73325,68,39,0
370.47238,370.73325,71,46,0
370.47238,370.73325,62,39,0
370.47238,370.73325,64,39,0
370.73325,371.01898,71,38,0
370.73325,371.01898,74,46,0
371.01898,371.3047,68,36,0
371.01898,371.3047,71,43,0
371.3047,371.45468,61,35,0
371.3047,371.45468,69,42,0
371.60468,371.86002,73,42,0
371.86002,372.11536,75,47,0
371.60468,372.11536,81,50,0
372.11536,372.37512,76,39,0
372.11536,372.37512,80,48,0
372.37512,372.6418,71,40,0
372.37512,372.6418,76,48,0
372.6418,372.9085,73,42,0
372.6418,372.9085,79,50,0
372.9085,373.1671,74,44,0
372.9085,373.1671,78,52,0
373.1671,373.43985,70,44,0
373.1671,373.43985,74,52,0
373.43985,373.7126,69,44,0
373.43985,373.7126,77,53,0
373.7126,374.00104,68,46,0
373.7126,374.00104,76,55,0
374.00104,374.30408,64,40,0
374.00104,374.30408,71,48,0
374.2662,374.50143,68,37,0
374.30408,374.54092,83,45,0
374.61987,375.14633,85,50,0
374.60013,375.14633,69,42,0
375.14633,375.42935,83,45,0
375.11285,375.42935,68,37,0
375.42935,375.9703,85,48,0
375.39398,375.9703,69,40,0
375.93558,376.1541,68,37,0
375.9703,376.1909,86,45,0
376.2644,376.52304,83,48,0
376.24603,376.52304,68,40,0
376.52304,377.6149,76,43,0
377.59348,377.6149,76,37,0
376.52304,377.6149,88,51,0
377.6149,377.83768,83,45,0
377.57202,377.83768,68,37,0
377.91196,378.43863,85,50,0
377.88718,378.43863,69,42,0
377.89957,378.46313,76,42,0
378.42172,378.46313,76,37,0
378.40485,378.73273,68,37,0
378.43863,378.73273,83,45,0
378.71436,378.73273,76,40,0
378.73273,379.2714,85,48,0
379.25403,379.2714,76,37,0
378.69598,379.2714,69,40,0
379.2714,379.48984,86,45,0
379.23666,379.48984,68,37,0
379.56265,379.82352,83,48,0
379.5505,379.82352,76,40,0
379.5384,379.82352,68,40,0
379.82352,380.9733,76,43,0
380.95184,380.9733,76,37,0
379.82352,380.9733,88,51,0
380.9304,381.19827,68,37,0
380.9733,381.23578,83,45,0
381.25455,382.09232,76,42,0
381.23578,382.0984,69,42,0
381.2733,382.0984,85,50,0
382.0984,382.36154,86,48,0
382.0802,382.36154,71,40,0
382.36154,382.64194,90,48,0
382.34512,382.64194,74,45,0
382.64194,382.9062,86,45,0
382.60687,382.9062,71,37,0
382.9517,383.7639,85,50,0
382.9062,383.7639,69,42,0
383.7639,384.02475,83,48,0
383.746,384.02475,76,40,0
383.72815,384.02475,68,40,0
384.02475,384.30252,86,48,0
384.00842,384.30252,71,45,0
384.2678,384.49496,68,37,0
384.30252,384.53363,83,45,0
384.62384,384.76947,81,47,0
384.58517,384.76947,64,39,0
384.59805,384.76947,69,42,0
384.61093,384.76947,73,45,0
385.36172,385.4052,85,51,0
385.36172,385.4052,76,43,0
385.4052,385.42694,86,47,0
385.4052,385.42694,78,40,0
385.44867,385.51392,76,41,0
385.44867,385.51392,85,49,0
385.8315,385.862,71,41,0
385.8315,385.862,83,49,0
385.95346,386.02557,76,39,0
385.95346,386.02557,85,46,0
386.2419,386.30713,78,43,0
386.2419,386.30713,86,51,0
386.62674,386.65775,79,38,0
386.62674,386.65775,88,45,0
386.75073,386.8038,78,40,0
386.75073,386.8038,86,48,0
386.9394,386.98657,85,51,0
386.9394,386.98657,76,43,0
386.98657,387.01016,86,47,0
386.98657,387.01016,78,40,0
387.03375,387.1001,76,41,0
387.03375,387.1001,85,49,0
387.4232,387.4542,74,41,0
387.4232,387.4542,83,49,0
387.54715,387.6186,76,39,0
387.54715,387.6186,85,46,0
387.8329,387.9622,78,43,0
387.8329,387.9622,86,51,0
388.35013,388.39774,98,50,0
388.39774,388.446,97,50,0
388.446,388.49506,95,49,0
388.49506,388.54486,93,48,0
388.54486,388.5807,92,48,0
388.5807,388.61707,90,47,0
388.61707,388.65396,88,47,0
388.65396,388.6914,86,46,0
388.6914,388.72943,85,46,0
388.72943,388.76807,83,45,0
388.76807,389.5645,81,45,0
389.5645,389.62973,81,51,0
389.5645,389.62973,73,43,0
389.95135,389.9834,83,45,0
389.95135,389.9834,74,38,0
390.07956,390.14072,81,48,0
390.07956,390.14072,73,40,0
390.2857,390.32883,71,43,0
390.2857,390.32883,80,51,0
390.32883,390.37192,73,40,0
390.32883,390.37192,81,47,0
390.37192,390.43658,80,49,0
390.37192,390.43658,71,41,0
390.75452,390.7855,78,49,0
390.75452,390.7855,69,41,0
390.87848,390.94858,71,39,0
390.87848,390.94858,80,46,0
391.15884,391.2283,73,43,0
391.15884,391.2283,81,51,0
391.69742,391.74387,90,48,0
391.69742,391.74387,86,48,0
391.74387,391.7909,85,48,0
391.7909,391.83853,83,47,0
391.83853,391.88678,81,46,0
391.88678,391.92236,80,45,0
391.92236,391.95847,78,45,0
391.95847,391.99496,76,44,0
391.99496,392.0417,74,44,0
392.0417,392.09177,64,43,0
392.0417,392.09177,73,51,0
392.09177,392.14188,66,40,0
392.09177,392.14188,74,47,0
392.14188,392.20767,73,49,0
392.14188,392.20767,64,41,0
392.53003,392.56128,71,49,0
392.53003,392.56128,62,41,0
392.65503,392.72513,73,46,0
392.65503,392.72513,64,39,0
392.9354,393.00485,74,51,0
392.9354,393.00485,66,43,0
393.3347,393.36594,76,45,0
393.3347,393.36594,67,38,0
393.4597,393.5208,74,48,0
393.4597,393.5208,66,40,0
393.66736,393.712,64,43,0
393.66736,393.712,73,51,0
393.712,393.75665,66,40,0
393.712,393.75665,74,47,0
393.75665,393.8236,73,49,0
393.75665,393.8236,64,41,0
394.1495,394.18076,62,41,0
394.1495,394.18076,71,49,0
394.2745,394.34528,64,39,0
394.2745,394.34528,73,46,0
394.55753,394.6358,66,43,0
394.55753,394.6358,74,51,0
395.112,395.15005,90,50,0
395.112,395.15005,93,50,0
395.15005,395.1885,86,50,0
395.1885,395.22742,85,49,0
395.22742,395.2668,83,48,0
395.2668,395.3068,81,48,0
395.3068,395.34076,80,47,0
395.34076,395.37537,78,46,0
395.37537,395.41058,76,46,0
395.41058,395.44644,74,45,0
395.44644,395.48297,73,45,0
395.48297,395.52023,71,45,0
395.52023,396.30283,69,47,0
396.30283,396.3736,69,51,0
396.30283,396.3736,61,43,0
396.70563,396.73712,71,45,0
396.70563,396.73712,62,38,0
396.83167,396.89417,69,48,0
396.83167,396.89417,61,40,0
397.04337,397.0884,59,43,0
397.04337,397.0884,68,51,0
397.0884,397.13348,61,40,0
397.0884,397.13348,69,47,0
397.13348,397.20105,68,49,0
397.13348,397.20105,59,41,0
397.5298,397.5613,66,49,0
397.5298,397.5613,57,41,0
397.65585,397.7266,59,39,0
397.65585,397.7266,68,46,0
397.93887,398.0083,61,43,0
397.93887,398.0083,69,51,0
398.52908,398.57547,97,51,0
398.52908,398.57547,93,51,0
398.57547,398.6222,92,51,0
398.6222,398.6693,90,50,0
398.6693,398.7169,88,50,0
398.7169,398.76486,86,50,0
398.76486,398.81323,85,49,0
398.81323,398.86206,83,49,0
398.86206,398.91153,81,48,0
398.91153,398.95654,80,48,0
398.95654,399.00238,78,47,0
399.00238,399.04913,76,47,0
399.04913,399.09677,74,47,0
399.09677,399.14508,73,46,0
399.14508,399.19595,71,46,0
399.19595,399.2476,69,46,0
399.2476,399.30017,68,45,0
399.30017,399.35324,66,45,0
399.35324,399.42606,73,47,0
399.35324,399.42606,76,55,0
399.35324,399.42606,64,43,0
399.6445,399.72278,61,46,0
399.6445,399.72278,73,55,0
399.6445,399.72278,69,46,0
400.0641,400.09644,62,42,0
400.0641,400.09644,74,50,0
400.0641,400.09644,71,42,0
400.19342,400.27155,73,53,0
400.19342,400.27155,61,44,0
400.19342,400.27155,69,44,0
400.48358,400.55057,71,54,0
400.48358,400.55057,59,45,0
400.48358,400.55057,68,45,0
400.87643,400.90768,57,45,0
400.87643,400.90768,69,54,0
400.87643,400.90768,66,45,0
401.00143,401.07797,59,43,0
401.00143,401.07797,71,51,0
401.00143,401.07797,68,43,0
401.30756,401.38586,73,55,0
401.30756,401.38586,61,46,0
401.30756,401.38586,69,46,0
401.85675,401.90402,100,53,0
401.85675,401.90402,97,53,0
401.90402,401.95175,93,53,0
401.95175,401.99997,92,53,0
401.99997,402.04868,90,52,0
402.04868,402.09787,88,52,0
402.09787,402.15323,86,51,0
402.15323,402.2016,85,50,0
402.2016,402.25043,83,50,0
402.25043,402.30032,81,49,0
402.30032,402.3453,80,49,0
402.3453,402.3909,78,48,0
402.3909,402.43716,76,48,0
402.43716,402.48404,74,47,0
402.48404,402.53073,73,47,0
402.53073,402.58102,71,46,0
402.58102,402.63223,69,46,0
402.63223,402.68478,68,45,0
402.68478,402.73788,66,45,0
402.73788,402.82214,73,56,0
402.73788,402.82214,76,66,0
402.73788,402.82214,64,51,0
403.07495,403.1592,61,58,0
403.07495,403.1592,73,69,0
403.07495,403.1592,69,58,0
403.50787,403.54105,62,51,0
403.50787,403.54105,74,62,0
403.50787,403.54105,71,51,0
403.64062,403.72214,73,65,0
403.64062,403.72214,61,54,0
403.64062,403.72214,69,54,0
403.94128,404.01007,71,66,0
403.94128,404.01007,59,54,0
403.94128,404.01007,68,54,0
404.34583,404.37814,57,54,0
404.34583,404.37814,69,66,0
404.34583,404.37814,66,54,0
404.47513,404.5501,59,53,0
404.47513,404.5501,71,63,0
404.47513,404.5501,68,53,0
404.77512,404.8452,73,69,0
404.77512,404.8452,61,58,0
404.77512,404.8452,69,58,0
405.38452,405.43076,75,54,0
405.43076,405.4777,76,56,0
405.4777,405.52527,78,58,0
405.52527,405.57358,80,60,0
405.57358,405.6226,81,62,0
405.6226,405.67236,83,63,0
405.67236,405.7229,85,65,0
405.7229,405.77426,86,67,0
405.77426,405.8264,88,69,0
405.8264,405.8794,90,71,0
405.8794,405.93326,92,72,0
405.93326,405.98807,93,73,0
405.98807,406.0437,95,75,0
406.0437,406.1004,97,77,0
406.1004,406.15866,98,79,0
406.15866,406.3311,88,71,0
406.15866,406.3311,100,84,0
406.15866,406.3311,97,84,0
406.50296,406.65634,97,73,0
406.50296,406.65634,100,87,0
406.50296,406.65634,93,73,0
406.50296,406.65634,88,73,0
406.9476,407.02042,88,68,0
406.9476,407.02042,98,81,0
406.9476,407.02042,100,81,0
406.9476,407.02042,95,68,0
407.09387,407.264,93,69,0
407.09387,407.264,100,82,0
407.09387,407.264,88,69,0
407.09387,407.264,97,69,0
407.40964,407.55527,95,72,0
407.40964,407.55527,100,86,0
407.40964,407.55527,88,72,0
407.40964,407.55527,92,72,0
407.84653,407.91934,93,68,0
407.84653,407.91934,100,81,0
407.84653,407.91934,88,68,0
407.84653,407.91934,90,68,0
407.99277,408.16165,95,68,0
407.99277,408.16165,100,81,0
407.99277,408.16165,88,68,0
407.99277,408.16165,92,68,0
408.33014,408.92896,97,72,0
408.33014,408.92896,93,72,0
408.33014,408.92896,105,85,0
409.33316,409.4113,68,37,0
409.33316,409.4113,71,45,0
409.77963,409.8131,66,35,0
409.77963,409.8131,69,41,0
409.91357,409.98056,68,35,0
409.91357,409.98056,71,41,0
410.2405,410.3144,69,37,0
410.2405,410.3144,73,45,0
410.67184,410.70578,71,36,0
410.67184,410.70578,74,43,0
410.80762,410.8755,69,36,0
410.80762,410.8755,73,43,0
411.1178,411.19244,68,37,0
411.1178,411.19244,71,45,0
411.5546,411.58917,66,34,0
411.5546,411.58917,69,40,0
411.69287,411.762,68,34,0
411.69287,411.762,71,40,0
412.00974,412.29276,64,37,0
412.00974,412.29276,69,45,0
412.8588,413.27817,83,72,0
412.8588,413.27817,88,86,0
412.8588,413.27817,76,72,0
412.8588,413.27817,80,72,0
413.27817,413.41544,81,68,0
413.27817,413.41544,88,81,0
413.27817,413.41544,76,68,0
413.27817,413.41544,78,68,0
413.41544,413.73117,83,68,0
413.41544,413.73117,88,81,0
413.41544,413.73117,76,68,0
413.41544,413.73117,80,68,0
413.73117,414.15054,85,73,0
413.73117,414.15054,88,87,0
413.73117,414.15054,81,73,0
413.73117,414.15054,76,73,0
414.15054,414.28787,76,68,0
414.15054,414.28787,86,81,0
414.15054,414.28787,88,81,0
414.15054,414.28787,83,68,0
414.28787,414.6009,81,69,0
414.28787,414.6009,88,82,0
414.28787,414.6009,76,69,0
414.28787,414.6009,85,69,0
414.6009,415.02295,83,72,0
414.6009,415.02295,88,86,0
414.6009,415.02295,76,72,0
414.6009,415.02295,80,72,0
415.02295,415.16022,81,68,0
415.02295,415.16022,88,81,0
415.02295,415.16022,76,68,0
415.02295,415.16022,78,68,0
415.16022,415.49762,83,68,0
415.16022,415.49762,88,81,0
415.16022,415.49762,76,68,0
415.16022,415.49762,80,68,0
415.49762,416.0964,85,81,0
415.49762,416.0964,81,72,0
415.49762,416.0964,93,95,0
417.98364,418.2256,69,36,0
417.98364,418.2256,64,36,0
417.98364,418.2256,61,36,0
418.98636,419.22324,69,36,0
418.98636,419.22324,64,36,0
419.95886,420.19324,71,36,0
419.95886,420.19324,66,36,0
419.95886,420.19324,62,36,0
420.91306,421.15576,71,36,0
420.91306,421.15576,69,36,0
420.91306,421.15576,66,36,0
421.90543,422.14053,68,36,0
421.90543,422.14053,71,36,0
422.85336,423.0922,66,36,0
422.85336,423.0922,63,36,0
422.85336,423.0922,71,36,0
422.85336,423.0922,69,36,0
424.00732,424.1686,78,44,0
424.1686,424.3416,76,45,0
424.00732,424.3416,68,44,0
424.3416,424.5111,75,48,0
424.3416,424.67825,69,40,0
424.67825,424.84058,65,47,0
424.84058,425.01025,64,45,0
424.5111,425.01025,74,50,0
425.01025,425.189,71,45,0
425.189,425.41245,73,45,0
425.01025,425.41245,68,37,0
425.95123,426.19315,69,36,0
425.95123,426.19315,64,36,0
425.95123,426.19315,61,36,0
426.92398,427.15475,69,36,0
426.92398,427.15475,64,36,0
427.87946,428.1183,71,36,0
427.87946,428.1183,66,36,0
427.87946,428.1183,62,36,0
428.8426,429.0853,71,36,0
428.8426,429.0853,66,36,0
428.8426,429.0853,62,36,0
429.83496,430.07007,68,36,0
429.83496,430.07007,62,36,0
429.83496,430.07007,64,36,0
429.83496,430.07007,71,36,0
430.7829,431.29544,64,36,0
430.7829,431.29544,71,36,0
430.7829,431.29544,62,36,0
431.29544,431.47858,69,40,0
431.29544,431.47858,61,40,0
430.7829,431.47858,76,36,0
431.47858,431.61115,76,46,0
431.47858,431.61115,69,46,0
431.65213,431.77512,76,46,0
431.65213,431.77512,69,46,0
431.8161,431.93613,76,45,0
431.8161,431.93613,69,45,0
431.97614,432.09616,75,45,0
431.97614,432.09616,69,45,0
432.13614,432.25964,75,45,0
432.13614,432.25964,69,45,0
432.30203,432.43524,75,45,0
432.30203,432.43524,69,45,0
432.48026,432.61844,74,44,0
432.48026,432.61844,69,44,0
432.66577,432.8124,74,44,0
432.66577,432.8124,69,44,0
432.86267,433.01834,74,43,0
432.86267,433.01834,69,43,0
433.07202,433.1541,71,42,0
433.07202,433.1541,68,42,0
433.29605,433.39606,73,42,0
433.29605,433.39606,68,42,0
433.56277,433.75217,69,51,0
433.75217,433.92105,71,45,0
433.56277,434.0763,61,36,0
433.92105,434.08234,69,45,0
434.08234,434.24365,68,47,0
434.24365,434.40494,69,43,0
434.40494,434.5201,71,43,0
434.5201,434.55646,73,36,0
434.55646,434.5928,74,36,0
434.5928,434.7611,73,49,0
434.7611,434.91785,72,45,0
434.91785,435.0746,74,45,0
434.5928,435.0746,69,36,0
434.5928,435.0746,64,36,0
435.0746,435.23132,73,49,0
435.23132,435.38806,71,45,0
435.38806,435.55814,69,45,0
435.55814,435.74753,68,51,0
435.74753,435.90833,66,45,0
435.90833,436.07065,80,52,0
436.07065,436.233,78,54,0
436.233,436.39532,92,51,0
436.39532,436.57047,90,54,0
436.57047,436.7388,97,58,0
436.7388,436.89554,95,55,0
436.89554,437.05228,90,55,0
437.05228,437.21265,85,58,0
437.21265,437.3734,83,50,0
437.3734,437.55557,81,50,0
437.3734,437.55557,78,50,0
437.55557,437.72696,78,56,0
437.55557,437.72696,80,56,0
437.72696,437.89307,76,48,0
437.89307,438.0592,73,48,0
438.0592,438.2253,71,49,0
438.2253,438.39462,68,47,0
438.39462,438.57578,64,47,0
438.39462,438.57578,68,54,0
438.57578,438.7443,66,49,0
438.57578,438.7443,69,55,0
438.57578,438.7443,64,40,0
438.7443,438.90768,60,46,0
438.90768,439.07108,59,46,0
439.07108,439.23447,57,50,0
439.23447,439.3979,54,50,0
439.3979,439.56128,51,50,0
440.21338,440.38004,78,44,0
440.38004,440.56522,76,45,0
440.21338,440.56522,68,44,0
440.56522,440.73346,75,48,0
440.56522,440.89587,69,40,0
440.89587,441.06042,65,47,0
441.06042,441.22473,64,45,0
440.73346,441.22473,74,50,0
441.22473,441.40018,68,37,0
441.22473,441.40018,71,45,0
441.40018,441.5849,73,45,0
441.40018,441.5849,68,33,0
441.5849,441.7743,69,51,0
441.7743,441.93506,71,45,0
441.5849,442.0893,61,36,0
441.93506,442.0974,69,45,0
442.0974,442.25974,68,47,0
442.25974,442.4221,69,43,0
442.4221,442.5373,71,43,0
442.5373,442.5736,73,36,0
442.5736,442.60995,74,36,0
442.60995,442.77826,73,49,0
442.77826,442.935,72,45,0
442.935,443.09174,74,45,0
442.60995,443.09174,69,36,0
442.60995,443.09174,64,36,0
443.09174,443.2485,73,49,0
443.2485,443.40524,71,45,0
443.40524,443.5753,69,45,0
443.5753,443.76468,68,51,0
443.76468,443.92548,66,45,0
443.92548,444.08783,80,52,0
444.08783,444.25015,78,54,0
444.25015,444.4125,92,51,0
444.4125,444.58762,90,54,0
444.58762,444.75595,97,58,0
444.75595,444.9127,95,55,0
444.9127,445.06943,90,55,0
445.06943,445.2298,85,58,0
445.2298,445.39056,83,50,0
445.39056,445.57272,81,50,0
445.39056,445.57272,78,50,0
445.57272,445.7335,81,51,0
445.7335,445.89426,80,45,0
445.57272,445.89426,74,45,0
445.57272,445.89426,71,45,0
445.89426,446.05002,90,52,0
446.05002,446.20578,88,54,0
445.89426,446.20578,83,38,0
445.89426,446.20578,80,38,0
446.20578,446.3692,85,51,0
446.3692,446.5326,83,54,0
446.20578,446.5326,80,38,0
446.20578,446.5326,74,38,0
446.5326,446.68597,81,58,0
446.68597,446.83936,80,55,0
446.5326,446.83936,74,45,0
446.5326,446.83936,71,45,0
446.83936,446.9927,78,55,0
446.9927,447.1461,76,58,0
446.83936,447.1461,71,38,0
446.83936,447.1461,68,38,0
447.1461,447.30948,78,50,0
447.30948,447.47318,80,50,0
447.1461,447.47318,74,38,0
447.1461,447.47318,71,38,0
447.47318,447.63983,81,52,0
447.47318,447.72293,73,52,0
447.63983,447.8049,85,54,0
447.63983,447.8049,76,54,0
447.8049,447.9686,88,56,0
447.8049,447.9686,81,56,0
447.9686,448.12988,93,59,0
447.9686,448.12988,85,59,0
448.12988,448.28918,97,62,0
448.12988,448.28918,88,62,0
448.28918,448.4815,100,63,0
448.28918,448.4815,93,63,0
448.4815,448.6428,95,66,0
448.6428,448.80408,88,65,0
448.4815,448.80408,100,66,0
448.80408,448.9654,88,64,0
448.9654,449.12668,83,63,0
448.80408,449.12668,95,64,0
449.12668,449.28796,83,63,0
449.28796,449.4645,76,62,0
449.12668,449.4645,88,63,0
449.4645,449.62405,86,61,0
449.62405,449.78638,85,61,0
449.4645,449.78638,88,61,0
449.4645,449.78638,76,54,0
449.78638,449.95154,84,60,0
449.95154,450.11966,83,60,0
449.78638,450.11966,88,60,0
449.78638,450.11966,76,53,0
450.11966,450.31265,82,59,0
450.31265,450.49048,81,58,0
450.11966,450.49048,88,59,0
450.11966,450.49048,76,53,0
450.49048,450.67035,81,54,0
450.67035,450.86264,80,54,0
450.49048,450.86264,88,54,0
450.49048,450.86264,76,49,0
450.86264,451.0688,81,53,0
451.0688,451.48544,85,53,0
450.86264,451.48544,88,53,0
450.86264,451.48544,76,48,0
451.48544,451.6895,84,45,0
451.6895,451.82983,83,50,0
451.48544,451.89362,88,49,0
451.48544,451.89362,76,38,0
451.89362,452.07153,88,56,0
451.8681,452.07153,73,49,0
451.88086,452.07153,81,54,0
452.07153,452.1941,69,55,0
452.23492,452.35748,85,55,0
452.39835,452.51163,73,61,0
452.51163,452.6249,88,53,0
452.6249,452.73822,76,61,0
452.73822,452.8515,97,53,0
452.8515,453.12424,81,61,0
452.8515,453.12424,93,61,0
453.39697,453.5706,51,57,0
453.5706,453.74417,52,53,0
453.74417,453.9178,57,45,0
453.74417,453.9178,61,53,0
453.9178,454.08844,56,49,0
453.9178,454.08844,59,58,0
454.08844,454.2591,52,42,0
454.08844,454.2591,56,50,0
454.2591,454.42975,54,42,0
454.2591,454.42975,57,50,0
454.42975,454.58948,56,44,0
454.42975,454.58948,59,52,0
454.58948,454.74924,57,44,0
454.58948,454.74924,61,52,0
454.74924,454.90897,59,45,0
454.74924,454.90897,63,54,0
454.90897,455.074,61,49,0
454.90897,455.074,64,58,0
455.074,455.239,60,45,0
455.074,455.239,63,54,0
455.239,455.40402,63,45,0
455.239,455.40402,66,54,0
455.40402,455.56903,61,45,0
455.40402,455.56903,64,54,0
455.56903,455.73407,59,45,0
455.56903,455.73407,63,54,0
455.73407,455.92062,57,45,0
455.73407,455.92062,61,54,0
455.92062,456.08298,55,50,0
455.92062,456.08298,58,59,0
456.08298,456.2453,56,43,0
456.08298,456.2453,59,51,0
456.2453,456.40762,52,43,0
456.2453,456.40762,56,51,0
456.40762,456.56998,56,45,0
456.40762,456.56998,59,53,0
456.56998,456.7323,59,42,0
456.56998,456.7323,64,50,0
456.7323,456.89465,68,50,0
456.89465,457.05188,71,53,0
457.05188,457.2091,71,45,0
457.05188,457.2091,76,54,0
457.2091,457.36636,76,46,0
457.2091,457.36636,80,55,0
457.36636,457.44885,80,49,0
457.36636,457.44885,83,58,0
457.53137,457.61386,80,45,0
457.53137,457.61386,83,54,0
457.69638,457.7789,80,45,0
457.69638,457.7789,83,54,0
457.8614,457.94257,80,49,0
457.8614,457.94257,83,58,0
458.02374,458.10492,80,45,0
458.02374,458.10492,83,54,0
458.18607,458.26724,80,45,0
458.18607,458.26724,83,54,0
458.34842,458.51074,80,47,0
458.34842,458.51074,83,56,0
458.51074,458.6731,81,45,0
458.51074,458.6731,85,54,0
458.6731,458.7614,80,45,0
458.6731,458.7614,83,54,0
458.84976,459.01212,79,49,0
458.84976,459.01212,82,58,0
459.01212,459.17444,80,45,0
459.01212,459.17444,83,54,0
459.17444,459.2556,79,45,0
459.17444,459.2556,82,54,0
459.3368,459.4991,78,48,0
459.3368,459.4991,81,57,0
459.4991,459.66144,80,45,0
459.4991,459.66144,83,54,0
459.66144,459.8238,78,45,0
459.66144,459.8238,81,54,0
459.8238,460.00366,76,48,0
459.8238,460.00366,80,57,0
460.00366,460.166,92,49,0
460.00366,460.166,95,58,0
460.166,460.3283,90,46,0
460.166,460.3283,93,55,0
460.3283,460.49066,88,45,0
460.3283,460.49066,92,54,0
460.49066,460.65298,80,45,0
460.49066,460.65298,83,54,0
460.65298,460.81534,78,44,0
460.65298,460.81534,81,52,0
460.96686,461.12918,68,45,0
460.96686,461.12918,71,53,0
461.12918,461.29153,66,45,0
461.12918,461.29153,69,53,0
461.29153,461.4767,64,45,0
461.29153,461.4767,68,53,0
461.4767,461.5977,52,45,0
461.4767,461.5977,56,54,0
461.638,461.75897,54,45,0
461.638,461.75897,57,54,0
461.7993,461.96994,56,49,0
461.7993,461.96994,59,58,0
461.96994,462.1406,52,42,0
461.96994,462.1406,56,50,0
462.1406,462.31125,54,42,0
462.1406,462.31125,57,50,0
462.31125,462.47098,56,44,0
462.31125,462.47098,59,52,0
462.47098,462.63074,57,44,0
462.47098,462.63074,61,52,0
462.63074,462.79047,59,45,0
462.63074,462.79047,63,54,0
462.79047,462.95547,61,49,0
462.79047,462.95547,64,58,0
462.95547,463.1205,60,45,0
462.95547,463.1205,63,54,0
463.1205,463.28552,63,45,0
463.1205,463.28552,66,54,0
463.28552,463.45053,61,45,0
463.28552,463.45053,64,54,0
463.45053,463.61554,59,45,0
463.45053,463.61554,63,54,0
463.61554,463.80212,57,45,0
463.61554,463.80212,61,54,0
463.80212,463.96445,55,50,0
463.80212,463.96445,58,59,0
463.96445,464.1268,56,43,0
463.96445,464.1268,59,51,0
464.1268,464.28912,52,43,0
464.1268,464.28912,56,51,0
464.28912,464.45148,56,45,0
464.28912,464.45148,59,53,0
464.45148,464.6138,59,42,0
464.45148,464.6138,64,50,0
464.6138,464.77615,68,50,0
464.77615,464.93338,71,53,0
464.93338,465.0906,71,45,0
464.93338,465.0906,76,54,0
465.0906,465.24783,76,46,0
465.0906,465.24783,80,55,0
465.24783,465.33035,80,49,0
465.24783,465.33035,83,58,0
465.41287,465.49536,80,45,0
465.41287,465.49536,83,54,0
465.57788,465.66037,80,45,0
465.57788,465.66037,83,54,0
465.7429,465.82407,80,49,0
465.7429,465.82407,83,58,0
465.90524,465.9864,80,45,0
465.90524,465.9864,83,54,0
466.06757,466.14874,80,45,0
466.06757,466.14874,83,54,0
466.22992,466.39224,80,47,0
466.22992,466.39224,83,56,0
466.39224,466.5546,81,45,0
466.39224,466.5546,85,54,0
466.5546,466.6429,80,45,0
466.5546,466.6429,83,54,0
466.73126,466.8936,79,49,0
466.73126,466.8936,82,58,0
466.8936,467.05594,80,45,0
466.8936,467.05594,83,54,0
467.05594,467.13712,79,45,0
467.05594,467.13712,82,54,0
467.21826,467.3806,78,48,0
467.21826,467.3806,81,57,0
467.3806,467.54294,80,45,0
467.3806,467.54294,83,54,0
467.54294,467.6241,78,45,0
467.54294,467.6241,81,54,0
467.7053,467.78647,76,44,0
467.7053,467.78647,80,52,0
467.8676,467.9488,92,41,0
467.8676,467.9488,95,49,0
467.8676,468.02997,83,41,0
468.02997,468.11115,92,42,0
468.02997,468.11115,95,50,0
468.02997,468.1923,83,42,0
468.1923,468.35464,92,45,0
468.1923,468.35464,95,54,0
468.1923,468.35464,83,45,0
468.35464,468.51697,93,44,0
468.35464,468.51697,97,52,0
468.35464,468.51697,85,44,0
468.51697,468.60532,92,45,0
468.51697,468.60532,95,54,0
468.51697,468.60532,83,45,0
468.69366,468.856,91,49,0
468.69366,468.856,94,58,0
468.69366,468.856,82,49,0
468.856,469.01834,92,44,0
468.856,469.01834,95,52,0
468.856,469.01834,83,44,0
469.01834,469.0995,91,43,0
469.01834,469.0995,94,51,0
469.01834,469.0995,82,46,0
469.18066,469.34302,90,45,0
469.18066,469.34302,93,54,0
469.18066,469.34302,81,45,0
469.34302,469.50534,92,41,0
469.34302,469.50534,95,49,0
469.34302,469.50534,83,41,0
469.50534,469.58652,90,41,0
469.50534,469.58652,81,41,0
469.50534,469.58652,93,49,0
469.6677,469.74884,88,44,0
469.6677,469.74884,92,52,0
469.6677,469.74884,80,44,0
469.83002,469.9112,92,41,0
469.83002,469.9112,95,49,0
469.83002,469.99234,83,41,0
469.99234,470.07352,92,42,0
469.99234,470.07352,95,50,0
469.99234,470.1547,83,42,0
470.1547,470.31702,92,45,0
470.1547,470.31702,95,54,0
470.1547,470.31702,83,45,0
470.31702,470.47937,93,44,0
470.31702,470.47937,97,52,0
470.31702,470.47937,85,44,0
470.47937,470.56772,92,45,0
470.47937,470.56772,95,54,0
470.47937,470.56772,83,45,0
470.65604,470.8184,91,49,0
470.65604,470.8184,94,58,0
470.65604,470.8184,82,49,0
470.8184,470.9807,92,44,0
470.8184,470.9807,95,52,0
470.8184,470.9807,83,44,0
470.9807,471.0619,91,43,0
470.9807,471.0619,94,51,0
470.9807,471.0619,82,46,0
471.14307,471.3054,90,45,0
471.14307,471.3054,93,54,0
471.14307,471.3054,81,45,0
471.3054,471.46774,92,41,0
471.3054,471.46774,95,49,0
471.3054,471.46774,83,41,0
471.46774,471.5489,90,41,0
471.46774,471.5489,81,41,0
471.46774,471.5489,93,49,0
471.63007,471.81876,88,44,0
471.63007,471.81876,80,44,0
471.63007,471.81876,92,52,0
471.97903,472.14084,56,48,0
472.14084,472.30264,56,54,0
472.30264,472.46445,55,48,0
472.46445,472.62628,54,46,0
472.62628,472.7881,53,52,0
472.7881,472.9605,52,49,0
472.9605,473.11923,59,49,0
472.9605,473.11923,56,43,0
473.11923,473.27795,58,52,0
473.11923,473.27795,55,45,0
473.27795,473.43668,57,50,0
473.27795,473.43668,54,44,0
473.43668,473.59402,56,50,0
473.43668,473.59402,52,44,0
473.59402,473.73758,59,58,0
473.59402,473.73758,62,58,0
473.73758,473.88376,58,50,0
473.73758,473.88376,61,57,0
473.88376,474.03287,57,48,0
473.88376,474.03287,60,55,0
474.03287,474.18265,59,54,0
474.03287,474.18265,56,46,0
474.74466,474.87646,71,57,0
474.74466,474.87646,68,50,0
474.87646,475.01022,70,54,0
474.87646,475.01022,67,47,0
475.01022,475.14795,69,53,0
475.01022,475.14795,66,45,0
475.14795,475.28882,68,50,0
475.14795,475.28882,64,43,0
475.82324,475.9448,74,50,0
475.82324,475.9448,78,57,0
475.9448,476.06738,73,55,0
475.9448,476.06738,76,55,0
476.06738,476.1916,72,46,0
476.06738,476.1916,75,54,0
476.1916,476.31613,71,45,0
476.1916,476.31613,74,52,0
476.79468,476.9075,83,54,0
476.79468,476.9075,86,61,0
476.9075,477.0247,82,52,0
476.9075,477.0247,85,59,0
477.0247,477.14658,81,50,0
477.0247,477.14658,84,57,0
477.14658,477.26248,80,48,0
477.14658,477.26248,83,55,0
477.70148,477.80566,92,57,0
477.70148,477.80566,95,64,0
477.80566,477.9123,91,54,0
477.80566,477.9123,94,62,0
477.9123,478.02176,90,52,0
477.9123,478.02176,93,59,0
478.02176,478.139,88,50,0
478.02176,478.139,92,57,0
478.139,478.24655,90,51,0
478.139,478.24655,93,65,0
478.139,478.24655,98,65,0
478.24655,478.3531,89,51,0
478.24655,478.3531,92,51,0
478.24655,478.3531,97,65,0
478.3531,478.45837,88,51,0
478.3531,478.45837,91,51,0
478.3531,478.45837,96,64,0
478.45837,478.56238,87,51,0
478.45837,478.56238,90,51,0
478.45837,478.56238,95,64,0
478.56238,478.6652,86,51,0
478.56238,478.6652,89,51,0
478.56238,478.6652,94,63,0
478.6652,478.76697,85,50,0
478.6652,478.76697,88,50,0
478.6652,478.76697,93,63,0
478.76697,478.8701,84,50,0
478.76697,478.8701,92,63,0
478.76697,478.8701,87,63,0
478.8701,478.97318,86,49,0
478.8701,478.97318,83,49,0
478.8701,478.97318,91,62,0
478.97318,479.07626,85,49,0
478.97318,479.07626,82,49,0
478.97318,479.07626,90,62,0
479.07626,479.17935,84,48,0
479.07626,479.17935,81,48,0
479.07626,479.17935,89,61,0
479.17935,479.28244,83,47,0
479.17935,479.28244,80,47,0
479.17935,479.28244,88,60,0
479.28244,479.38593,82,47,0
479.28244,479.38593,79,47,0
479.28244,479.38593,87,60,0
479.38593,479.49008,78,47,0
479.38593,479.49008,81,59,0
479.38593,479.49008,86,59,0
479.49008,479.59424,77,47,0
479.49008,479.59424,80,47,0
479.49008,479.59424,85,59,0
479.59424,479.69843,76,46,0
479.59424,479.69843,79,46,0
479.59424,479.69843,84,58,0
479.69843,479.80258,75,45,0
479.69843,479.80258,78,45,0
479.69843,479.80258,83,57,0
479.80258,479.90674,74,45,0
479.80258,479.90674,77,45,0
479.80258,479.90674,82,57,0
479.90674,480.01096,73,45,0
479.90674,480.01096,76,45,0
479.90674,480.01096,81,56,0
480.01096,480.1169,75,45,0
480.01096,480.1169,72,45,0
480.01096,480.1169,80,56,0
480.1169,480.22638,74,44,0
480.1169,480.22638,71,44,0
480.1169,480.22638,79,55,0
480.22638,480.34128,73,44,0
480.22638,480.34128,70,44,0
480.22638,480.34128,78,55,0
480.34128,480.46194,72,44,0
480.34128,480.46194,69,44,0
480.34128,480.46194,77,54,0
480.46194,480.5889,71,43,0
480.46194,480.5889,68,43,0
480.46194,480.5889,76,54,0
480.5889,480.7228,70,43,0
480.5889,480.7228,67,43,0
480.5889,480.7228,75,54,0
480.7228,480.82022,69,53,0
480.7228,480.82022,66,53,0
480.7228,480.82022,74,63,0
480.85266,480.95007,69,48,0
480.85266,480.95007,65,48,0
480.85266,480.95007,74,58,0
480.98254,481.0897,69,49,0
480.98254,481.0897,65,49,0
480.98254,481.0897,74,58,0
481.1254,481.2241,69,54,0
481.1254,481.2241,65,54,0
481.1254,481.2241,74,63,0
481.257,481.35565,69,50,0
481.257,481.35565,64,50,0
481.257,481.35565,73,60,0
481.38855,481.50394,69,51,0
481.38855,481.50394,64,51,0
481.38855,481.50394,73,61,0
481.54242,481.65436,69,55,0
481.54242,481.65436,64,55,0
481.54242,481.65436,73,66,0
481.69165,481.7944,72,51,0
481.69165,481.7944,78,61,0
481.69165,481.7944,63,51,0
481.69165,481.7944,69,51,0
481.82864,481.9314,72,51,0
481.82864,481.9314,78,61,0
481.82864,481.9314,63,51,0
481.82864,481.9314,69,51,0
481.96564,482.06836,72,55,0
481.96564,482.06836,78,66,0
481.96564,482.06836,63,55,0
481.96564,482.06836,69,55,0
482.10263,482.20535,71,51,0
482.10263,482.20535,78,61,0
482.10263,482.20535,62,51,0
482.10263,482.20535,68,51,0
482.2396,482.34235,71,51,0
482.2396,482.34235,78,61,0
482.2396,482.34235,62,51,0
482.2396,482.34235,68,51,0
482.37692,482.58875,71,55,0
482.37692,482.58875,78,65,0
482.37692,482.58875,62,55,0
482.37692,482.58875,68,55,0
482.58875,483.02277,71,54,0
482.58875,483.02277,77,63,0
482.58875,483.02277,61,54,0
482.58875,483.02277,68,54,0
483.02277,483.47577,73,52,0
483.02277,483.47577,76,62,0
483.02277,483.47577,58,52,0
483.02277,483.47577,67,52,0
483.47577,483.97122,71,50,0
483.47577,483.97122,75,59,0
483.47577,483.97122,59,50,0
483.47577,483.97122,66,50,0
483.97122,484.51794,72,46,0
483.97122,484.51794,62,46,0
483.97122,484.51794,74,55,0
483.97122,484.51794,57,46,0
483.97122,484.51794,66,46,0
484.51794,485.27615,72,44,0
484.51794,485.27615,67,44,0
484.51794,485.27615,74,52,0
485.27615,485.95798,71,35,0
485.27615,485.95798,67,35,0
485.27615,485.95798,74,41,0
486.17535,486.39276,67,30,0
486.17535,486.39276,74,36,0
486.39276,486.61014,67,30,0
486.39276,486.61014,79,36,0
486.61014,486.82755,67,30,0
486.61014,486.82755,74,36,0
486.82755,487.15506,67,34,0
486.82755,487.15506,79,40,0
488.13757,488.31,68,37,0
488.31,488.48242,68,37,0
488.48242,488.65482,69,40,0
488.65482,488.82724,68,36,0
488.82724,488.99966,66,36,0
488.99966,489.17206,68,36,0
489.17206,489.58875,71,40,0
489.58875,490.43207,71,38,0
490.43207,490.81668,72,37,0
488.13757,490.81668,62,33,0
488.13757,490.81668,64,35,0
491.3128,491.5563,64,38,0
491.3128,491.5766,61,38,0
491.3128,491.5766,73,45,0
491.5563,491.79984,62,36,0
491.5563,491.79984,68,43,0
491.5563,491.79984,64,36,0
492.28162,492.51672,69,46,0
492.51672,492.76517,69,36,0
492.51672,492.76517,73,44,0
492.28162,492.76517,64,39,0
493.00403,493.50165,64,58,0
493.00403,493.50165,78,57,0
493.00403,493.50165,70,55,0
493.48172,493.72058,71,45,0
493.48172,493.72058,62,37,0
494.20602,494.44873,66,32,0
494.20602,494.44873,63,32,0
494.20602,494.44873,71,38,0
494.44873,494.69687,66,32,0
494.44873,494.69687,63,32,0
494.44873,494.69687,71,38,0
494.69687,495.40994,64,47,0
494.69687,495.42953,71,47,0
494.69687,495.42953,76,58,0
495.40994,495.64505,68,46,0
495.40994,495.64505,64,39,0
495.8839,496.3616,57,44,0
495.8839,496.3815,64,44,0
495.8839,496.3815,72,52,0
496.3616,496.62042,57,36,0
496.3616,496.62042,71,43,0
496.3616,496.62042,63,36,0
497.76407,497.81894,76,53,0
497.76407,497.81894,80,53,0
497.76407,497.81894,88,63,0
497.911,497.96698,75,45,0
497.911,497.96698,81,45,0
497.911,497.96698,87,54,0
498.06198,498.1197,74,51,0
498.06198,498.1197,81,51,0
498.06198,498.1197,86,62,0
498.21732,498.2768,74,45,0
498.21732,498.2768,77,45,0
498.21732,498.2768,86,54,0
498.377,498.43826,71,45,0
498.377,498.43826,76,45,0
498.377,498.43826,83,54,0
499.03876,499.2823,64,38,0
499.03876,499.30258,61,38,0
499.03876,499.30258,73,45,0
499.2823,499.5258,62,36,0
499.2823,499.5258,68,43,0
499.2823,499.5258,64,36,0
500.00757,500.24268,64,39,0
500.00757,500.24268,69,46,0
500.24268,500.49112,69,36,0
500.24268,500.49112,64,36,0
500.24268,500.49112,73,44,0
500.97656,501.21927,74,54,0
500.97656,501.21927,69,48,0
500.97656,501.21927,62,48,0
501.6381,501.719,74,45,0
501.6381,501.719,86,54,0
501.8005,501.8827,74,45,0
501.8005,501.8827,86,54,0
501.96466,502.04782,74,47,0
501.96466,502.04782,86,56,0
502.13202,502.2182,74,45,0
502.13202,502.2182,86,53,0
502.30557,502.39487,74,45,0
502.30557,502.39487,86,54,0
502.48578,502.67096,74,47,0
502.48578,502.67096,86,56,0
502.67096,502.75302,68,45,0
502.67096,502.75302,80,53,0
502.83527,502.91464,68,45,0
502.83527,502.91464,80,53,0
502.99042,503.06506,68,45,0
502.99042,503.06506,80,53,0
503.14105,503.2175,68,45,0
503.14105,503.2175,80,53,0
503.29465,503.3728,68,44,0
503.29465,503.3728,80,52,0
503.4519,503.53027,68,43,0
503.4519,503.53027,80,51,0
503.60864,503.687,68,43,0
503.60864,503.687,80,51,0
503.76538,503.84375,68,42,0
503.76538,503.84375,80,50,0
503.92212,504.0791,68,41,0
503.92212,504.0791,80,49,0
504.0791,504.23965,69,40,0
504.0791,504.23965,81,48,0
504.23965,504.40466,71,40,0
504.23965,504.40466,83,47,0
504.90082,505.14432,64,38,0
504.90082,505.1646,61,38,0
504.90082,505.1646,73,45,0
505.14432,505.38782,62,36,0
505.14432,505.38782,68,43,0
505.14432,505.38782,64,36,0
505.86963,506.10474,69,46,0
506.10474,506.35318,69,36,0
506.10474,506.35318,73,44,0
505.86963,506.35318,64,39,0
506.8386,507.08133,78,54,0
506.80826,507.08133,69,48,0
506.77792,507.08133,62,48,0
507.4597,507.5425,78,37,0
507.4597,507.5425,90,45,0
507.58423,507.66898,78,39,0
507.58423,507.66898,90,46,0
507.7117,507.7979,78,40,0
507.7117,507.7979,90,47,0
507.84177,507.92984,78,41,0
507.84177,507.92984,90,49,0
507.97464,508.06555,78,43,0
507.97464,508.06555,90,51,0
508.1116,508.20435,78,44,0
508.1116,508.20435,90,52,0
508.2515,508.34644,78,45,0
508.2515,508.34644,90,54,0
508.39484,508.5493,78,55,0
508.39484,508.5493,90,55,0
508.5493,508.64008,68,40,0
508.5493,508.64008,80,47,0
508.68634,508.77725,68,40,0
508.68634,508.77725,80,47,0
508.8223,508.9116,68,40,0
508.8223,508.9116,80,47,0
508.95544,509.0332,68,40,0
508.95544,509.0332,80,47,0
509.05908,509.13565,68,40,0
509.05908,509.13565,80,47,0
509.16107,509.23642,68,40,0
509.16107,509.23642,80,47,0
509.26102,509.33478,68,40,0
509.26102,509.33478,80,48,0
509.35938,509.43338,68,40,0
509.35938,509.43338,80,48,0
509.45804,509.55554,68,40,0
509.45804,509.55554,80,47,0
509.55554,509.65225,69,40,0
509.55554,509.65225,81,48,0
509.65225,509.74747,70,41,0
509.65225,509.74747,82,49,0
509.74747,509.84122,71,42,0
509.74747,509.84122,83,50,0
509.84122,509.93362,72,43,0
509.84122,509.93362,84,51,0
509.93362,510.0247,73,45,0
509.93362,510.0247,85,53,0
510.0247,510.11377,74,45,0
510.0247,510.11377,86,54,0
510.11377,510.20474,87,54,0
510.11377,510.20474,75,45,0
510.20474,510.29874,76,46,0
510.20474,510.29874,88,55,0
510.29874,510.40222,77,48,0
510.29874,510.40222,89,57,0
510.40222,510.71472,78,51,0
510.40222,510.71472,90,61,0
511.1595,511.6886,66,44,0
511.1595,511.6886,78,52,0
512.03094,512.367,68,44,0
512.03094,512.367,80,52,0
512.5686,512.7686,69,49,0
512.5686,512.7686,81,59,0
512.7686,512.96857,63,47,0
512.7686,512.96857,75,56,0
512.96857,513.14716,64,48,0
512.96857,513.14716,76,57,0
513.14716,513.33234,66,47,0
513.14716,513.33234,78,62,0
513.33234,513.5215,63,49,0
513.33234,513.5215,75,59,0
513.5215,513.73517,64,48,0
513.14716,513.73517,69,43,0
513.14716,513.73517,73,49,0
513.5215,513.73517,76,57,0
513.9176,514.09247,75,52,0
513.9176,514.09247,87,62,0
514.09247,514.2661,76,53,0
514.09247,514.2661,88,63,0
514.2661,514.4453,78,47,0
514.2661,514.4453,90,65,0
514.4453,514.6296,75,54,0
514.4453,514.6296,87,63,0
514.6296,514.819,76,51,0
514.6296,514.819,88,61,0
514.2661,514.819,83,55,0
514.9907,515.11786,88,45,0
514.9907,515.11786,97,54,0
514.9907,515.11786,100,54,0
515.1595,515.2838,88,47,0
515.1595,515.2838,97,56,0
515.1595,515.2838,100,56,0
515.32477,515.4464,88,49,0
515.32477,515.4464,97,58,0
515.32477,515.4464,100,58,0
515.48676,515.6064,88,51,0
515.48676,515.6064,97,61,0
515.48676,515.6064,100,61,0
515.6475,515.77496,88,50,0
515.6475,515.77496,97,60,0
515.6475,515.77496,100,60,0
515.8188,515.9827,87,54,0
515.8188,515.9827,96,63,0
515.8188,515.9827,99,63,0
515.9827,516.14667,88,53,0
515.9827,516.14667,97,63,0
515.9827,516.14667,100,63,0
516.14667,516.3106,87,52,0
516.14667,516.3106,96,62,0
516.14667,516.3106,99,62,0
516.3106,516.4861,88,50,0
516.3106,516.4861,97,60,0
516.3106,516.4861,100,60,0
516.4861,516.6615,86,49,0
516.4861,516.6615,95,59,0
516.4861,516.6615,98,59,0
516.6615,516.87036,88,49,0
516.6615,516.87036,97,58,0
516.6615,516.87036,100,58,0
517.0266,517.1909,63,47,0
517.0266,517.1909,75,56,0
517.1909,517.36334,64,48,0
517.1909,517.36334,76,57,0
517.36334,517.53,66,47,0
517.36334,517.53,78,62,0
517.53,517.69666,63,49,0
517.53,517.69666,75,59,0
517.69666,517.88184,64,48,0
517.36334,517.88184,69,42,0
517.36334,517.88184,73,49,0
517.69666,517.88184,76,57,0
518.0357,518.1933,75,46,0
518.0357,518.1933,87,55,0
518.1933,518.35455,76,47,0
518.1933,518.35455,88,56,0
518.35455,518.5084,78,49,0
518.35455,518.5084,90,58,0
518.5084,518.68005,75,48,0
518.5084,518.68005,87,56,0
518.68005,518.8586,76,45,0
518.68005,518.8586,88,54,0
518.35455,518.8586,83,49,0
519.0225,519.1435,88,45,0
519.0225,519.1435,97,54,0
519.0225,519.1435,100,54,0
519.18384,519.30286,88,47,0
519.18384,519.30286,97,56,0
519.18384,519.30286,100,56,0
519.3419,519.4591,88,49,0
519.3419,519.4591,97,58,0
519.3419,519.4591,100,58,0
519.4976,519.6143,88,51,0
519.4976,519.6143,97,61,0
519.4976,519.6143,100,61,0
519.65546,519.7829,88,50,0
519.65546,519.7829,97,60,0
519.65546,519.7829,100,60,0
519.8267,519.9934,87,54,0
519.8267,519.9934,96,63,0
519.8267,519.9934,99,63,0
519.9934,520.15485,88,53,0
519.9934,520.15485,97,63,0
519.9934,520.15485,100,63,0
520.15485,520.3111,87,52,0
520.15485,520.3111,96,62,0
520.15485,520.3111,99,62,0
520.3111,520.46735,88,50,0
520.3111,520.46735,97,60,0
520.3111,520.46735,100,60,0
520.46735,520.6236,86,49,0
520.46735,520.6236,95,59,0
520.46735,520.6236,98,59,0
520.6236,520.7408,88,49,0
520.6236,520.7408,97,58,0
520.6236,520.7408,100,58,0
520.77985,520.9522,88,45,0
520.77985,520.9522,97,53,0
520.77985,520.9522,100,61,0
520.9522,521.0725,93,54,0
520.9522,521.0725,85,45,0
520.9522,521.0725,97,54,0
521.1122,521.23004,97,56,0
521.1122,521.23004,93,47,0
521.1122,521.23004,85,47,0
521.2691,521.38446,93,49,0
521.2691,521.38446,97,58,0
521.2691,521.38446,85,49,0
521.42236,521.53485,85,51,0
521.42236,521.53485,93,51,0
521.42236,521.53485,97,61,0
521.5739,521.70135,93,50,0
521.5739,521.70135,97,60,0
521.5739,521.70135,85,50,0
521.7452,521.9091,84,54,0
521.7452,521.9091,96,63,0
521.7452,521.9091,92,54,0
521.9091,522.0601,97,63,0
521.9091,522.0601,85,53,0
521.9091,522.0601,93,53,0
522.0601,522.2117,92,52,0
522.0601,522.2117,96,62,0
522.0601,522.2117,84,52,0
522.2117,522.36316,93,60,0
522.2117,522.36316,97,60,0
522.2117,522.36316,85,50,0
522.36316,522.5245,92,49,0
522.36316,522.5245,95,59,0
522.36316,522.5245,83,49,0
522.5245,522.65375,85,49,0
522.5245,522.65375,93,49,0
522.5245,522.65375,97,58,0
522.69684,522.86633,97,61,0
522.69684,522.86633,93,53,0
522.69684,522.86633,85,45,0
522.86633,522.989,90,45,0
522.86633,522.989,81,45,0
522.86633,522.989,93,54,0
523.0295,523.15015,81,47,0
523.0295,523.15015,90,47,0
523.0295,523.15015,93,56,0
523.19,523.3088,90,49,0
523.19,523.3088,81,49,0
523.19,523.3088,93,58,0
523.34796,523.4644,81,51,0
523.34796,523.4644,90,51,0
523.34796,523.4644,93,61,0
523.50323,523.62146,90,50,0
523.50323,523.62146,93,60,0
523.50323,523.62146,81,50,0
523.66125,523.8285,89,54,0
523.66125,523.8285,80,54,0
523.66125,523.8285,92,63,0
523.8285,523.98474,90,53,0
523.8285,523.98474,81,53,0
523.8285,523.98474,93,63,0
523.98474,524.141,89,52,0
523.98474,524.141,80,52,0
523.98474,524.141,92,62,0
524.141,524.29724,90,50,0
524.141,524.29724,81,50,0
524.141,524.29724,93,60,0
524.29724,524.4535,88,49,0
524.29724,524.4535,79,49,0
524.29724,524.4535,91,59,0
524.4535,524.5707,81,49,0
524.4535,524.5707,90,49,0
524.4535,524.5707,93,58,0
524.60974,524.766,90,57,0
524.60974,524.766,81,57,0
524.60974,524.766,93,68,0
524.766,524.8198,86,51,0
524.766,524.8198,90,51,0
524.90967,524.9635,86,54,0
524.90967,524.9635,90,54,0
525.05334,525.1096,81,47,0
525.05334,525.1096,78,47,0
525.2035,525.25977,90,54,0
525.2035,525.25977,86,54,0
525.35364,525.4174,78,49,0
525.35364,525.4174,74,49,0
525.5237,525.5864,95,68,0
525.5237,525.5864,98,73,0
525.6909,525.7448,86,51,0
525.6909,525.7448,90,51,0
525.8346,525.8885,95,54,0
525.8346,525.8885,98,54,0
525.9783,526.03546,86,47,0
525.9783,526.03546,83,47,0
526.13074,526.18787,98,54,0
526.13074,526.18787,95,54,0
526.28314,526.34827,83,49,0
526.28314,526.34827,78,49,0
526.45435,526.6216,74,57,0
526.45435,526.6216,86,65,0
526.45435,526.6216,83,52,0
526.6216,526.6755,76,51,0
526.6216,526.6755,80,51,0
526.76526,526.81915,88,54,0
526.76526,526.81915,92,54,0
526.90894,526.9661,83,47,0
526.90894,526.9661,80,47,0
527.0614,527.1185,92,54,0
527.0614,527.1185,88,54,0
527.2138,527.28125,80,49,0
527.2138,527.28125,76,49,0
527.3937,527.45636,97,68,0
527.3937,527.45636,100,73,0
527.5609,527.6148,88,51,0
527.5609,527.6148,92,51,0
527.7046,527.7585,97,54,0
527.7046,527.7585,100,54,0
527.84827,527.90375,88,47,0
527.84827,527.90375,85,47,0
527.9962,528.05164,100,54,0
527.9962,528.05164,97,54,0
528.1441,528.2104,85,49,0
528.1441,528.2104,80,49,0
528.31726,528.4845,85,52,0
528.31726,528.4845,76,57,0
528.31726,528.4845,88,65,0
528.4845,528.5383,78,51,0
528.4845,528.5383,81,51,0
528.6282,528.682,90,54,0
528.6282,528.682,93,54,0
528.77185,528.829,85,47,0
528.77185,528.829,81,47,0
528.92426,528.98145,93,54,0
528.92426,528.98145,90,54,0
529.0767,529.1405,81,49,0
529.0767,529.1405,78,49,0
529.24677,529.3095,98,68,0
529.24677,529.3095,101,73,0
529.414,529.4728,89,51,0
529.414,529.4728,93,51,0
529.57074,529.6291,98,54,0
529.57074,529.6291,101,54,0
529.7242,529.78235,89,47,0
529.7242,529.78235,86,47,0
529.8812,529.9417,101,54,0
529.8812,529.9417,98,54,0
530.0446,530.1077,86,49,0
530.0446,530.1077,81,49,0
530.21063,530.3636,95,63,0
530.21063,530.3636,88,63,0
530.21063,530.3636,100,74,0
530.3636,530.50793,99,62,0
530.50793,530.6496,100,75,0
530.6496,530.75433,98,61,0
530.78906,530.89215,100,77,0
530.92645,531.02795,95,56,0
531.06177,531.16174,100,77,0
531.19507,531.2951,92,52,0
531.3284,531.4284,100,77,0
531.46173,531.5631,88,52,0
531.59686,531.69824,100,79,0
531.732,531.8334,86,50,0
531.8671,531.9699,100,79,0
532.00415,532.1081,83,50,0
532.14276,532.2477,100,79,0
532.2829,532.38855,80,50,0
532.424,532.5311,100,79,0
532.56683,532.6753,76,51,0
532.71155,532.82263,100,79,0
532.86084,532.97864,74,51,0
533.019,533.14844,100,79,0
533.1952,533.3491,71,51,0
533.40466,533.58,100,79,0
533.64417,533.84686,68,51,0
533.9144,534.15955,100,79,0
534.848,535.10016,65,59,0
534.981,535.108,64,43,0
535.108,535.22876,65,40,0
535.22876,535.3471,64,40,0
535.3471,535.46436,65,40,0
535.46436,535.5802,64,40,0
535.5802,535.7383,66,43,0
535.66644,535.7526,64,40,0
535.7526,535.8388,66,40,0
535.8388,535.92505,64,40,0
535.92505,536.0838,67,52,0
536.0112,536.0985,64,40,0
536.0985,536.18774,67,40,0
536.18774,536.2789,64,40,0
536.2789,536.4451,68,58,0
536.36993,536.46,64,37,0
536.46,536.5491,68,40,0
536.5491,536.6373,64,38,0
536.6373,536.7256,68,40,0
536.7256,536.8138,64,36,0
536.8138,536.90204,68,40,0
536.90204,536.99023,64,37,0
536.99023,537.15137,68,54,0
537.0785,537.1659,64,37,0
537.1659,537.2533,68,39,0
537.2533,537.3417,64,37,0
537.3417,537.42993,69,54,0
537.3417,537.50116,66,54,0
537.42993,537.5154,64,36,0
537.5154,537.6006,69,39,0
537.5154,537.6006,66,39,0
537.6006,537.68585,64,36,0
537.68585,537.77106,69,39,0
537.68585,537.77106,66,39,0
537.77106,537.85626,64,36,0
537.85626,537.9415,69,39,0
537.85626,537.9415,66,39,0
537.9415,538.02673,64,37,0
538.02673,538.11194,67,54,0
538.02673,538.1826,70,54,0
538.11194,538.19666,64,39,0
538.19666,538.2817,70,41,0
538.19666,538.2817,67,41,0
538.2817,538.36816,64,39,0
538.36816,538.52386,70,61,0
538.4536,538.5379,65,42,0
538.5379,538.6222,70,45,0
538.6222,538.7064,65,41,0
538.7064,538.7907,70,45,0
538.7907,538.875,65,41,0
538.875,538.9592,70,45,0
538.9592,539.0435,65,42,0
539.0435,539.12616,70,45,0
539.12616,539.2091,65,42,0
539.2091,539.29285,70,45,0
539.29285,539.3765,65,42,0
539.3765,539.45984,68,45,0
539.3765,539.5292,70,45,0
539.45984,539.5429,65,42,0
539.5429,539.62537,70,52,0
539.5429,539.62537,68,52,0
539.62537,539.70764,65,41,0
539.70764,539.7892,70,44,0
539.70764,539.7892,68,44,0
539.7892,539.87067,65,41,0
539.87067,539.9522,70,44,0
539.87067,539.9522,68,44,0
539.9522,540.03375,65,41,0
540.03375,540.11523,70,44,0
540.03375,540.11523,68,44,0
540.11523,540.1968,65,40,0
540.1968,540.2783,70,44,0
540.1968,540.2783,68,44,0
540.2783,540.3603,65,41,0
540.3603,540.51624,70,52,0
540.44556,540.5303,66,42,0
540.5303,540.6145,70,45,0
540.6145,540.69794,66,41,0
540.69794,540.78094,70,45,0
540.78094,540.8634,66,41,0
540.8634,540.9451,70,45,0
540.9451,541.0263,66,41,0
541.0263,541.10693,70,45,0
541.10693,541.1876,66,40,0
541.1876,541.26825,70,45,0
541.26825,541.3482,66,41,0
541.3482,541.4271,70,62,0
541.3482,541.4929,71,62,0
541.4271,541.5061,66,44,0
541.5061,541.585,71,47,0
541.5061,541.585,70,47,0
541.585,541.664,66,44,0
541.664,541.743,71,47,0
541.664,541.743,70,47,0
541.743,541.8228,66,43,0
541.8228,541.9032,71,47,0
541.8228,541.9032,70,47,0
541.9032,541.98206,66,44,0
541.98206,542.0618,71,47,0
541.98206,542.0618,70,47,0
542.0618,542.14484,66,44,0
542.14484,542.2319,71,47,0
542.14484,542.2319,70,47,0
542.2319,542.3381,66,44,0
542.3381,542.46783,69,52,0
542.3381,542.46783,71,62,0
542.46783,542.5706,65,48,0
542.5706,542.657,69,40,0
542.5706,542.657,71,48,0
542.657,542.74146,65,48,0
542.74146,542.8245,69,40,0
542.74146,542.8245,71,48,0
542.8245,542.9072,65,48,0
542.9072,542.9882,69,40,0
542.9072,542.9882,71,48,0
542.9882,543.06744,65,48,0
543.06744,543.14514,69,40,0
543.06744,543.14514,71,48,0
543.14514,543.2225,65,48,0
543.2225,543.3014,69,40,0
543.2225,543.3014,71,48,0
543.3014,543.3804,65,48,0
543.3804,543.4577,69,45,0
543.3804,543.4577,71,54,0
543.4577,543.535,65,48,0
543.535,543.6085,69,40,0
543.535,543.6085,71,48,0
543.6085,543.68207,65,48,0
543.68207,543.7586,69,40,0
543.68207,543.7586,71,48,0
543.7586,543.83514,65,48,0
543.83514,543.9149,69,40,0
543.83514,543.9149,71,48,0
543.9149,543.9947,65,48,0
543.9947,544.0654,69,40,0
543.9947,544.0654,71,48,0
544.0654,544.13617,65,48,0
544.13617,544.212,69,40,0
544.13617,544.212,71,48,0
544.212,544.2877,65,48,0
544.2877,544.36053,69,45,0
544.2877,544.36053,71,54,0
544.36053,544.43335,65,50,0
544.43335,544.5009,69,42,0
544.43335,544.5009,71,50,0
544.5009,544.5685,65,50,0
544.5685,544.6406,69,42,0
544.5685,544.6406,71,50,0
544.6406,544.7127,65,50,0
544.7127,544.77966,69,42,0
544.7127,544.77966,71,50,0
544.77966,544.8466,65,50,0
544.8466,544.9161,69,42,0
544.8466,544.9161,71,50,0
544.9161,544.98553,65,50,0
544.98553,545.0525,69,42,0
544.98553,545.0525,71,50,0
545.0525,545.11945,65,50,0
545.11945,545.187,69,45,0
545.11945,545.187,71,57,0
545.187,545.2546,65,50,0
545.2546,545.3247,69,42,0
545.2546,545.3247,71,50,0
545.3247,545.3948,65,50,0
545.3948,545.46484,69,42,0
545.3948,545.46484,71,50,0
545.46484,545.535,65,50,0
545.535,545.60706,69,42,0
545.535,545.60706,71,50,0
545.60706,545.6792,65,50,0
545.6792,545.7581,69,42,0
545.6792,545.7581,71,50,0
545.7581,545.8371,65,50,0
545.8371,545.9223,69,42,0
545.8371,545.9223,71,50,0
545.9223,546.006,65,50,0
546.006,546.1047,68,47,0
546.1047,546.2025,69,48,0
546.006,546.2025,74,45,0
546.006,546.2025,76,48,0
546.2025,546.29956,70,49,0
546.29956,546.3958,71,51,0
546.3958,546.49133,72,52,0
546.49133,546.586,73,54,0
546.586,546.68005,74,54,0
546.68005,546.7733,75,55,0
546.7733,546.86584,76,57,0
546.86584,546.95764,77,58,0
546.95764,547.0488,78,60,0
547.0488,547.1389,79,61,0
547.1389,547.22766,80,62,0
547.22766,547.316,81,54,0
547.1389,547.316,86,62,0
547.1389,547.316,88,62,0
547.316,547.4039,82,55,0
547.4039,547.49133,83,56,0
547.49133,547.57837,84,57,0
547.57837,547.66504,85,59,0
547.66504,547.7512,86,60,0
547.7512,547.83704,87,61,0
547.83704,547.9225,88,62,0
547.9225,548.00757,89,63,0
548.00757,548.0922,90,64,0
548.0922,548.1765,91,65,0
548.1765,548.2603,92,69,0
548.2603,548.3441,93,59,0
548.1765,548.3441,98,69,0
548.1765,548.3441,100,69,0
548.3441,548.4279,94,61,0
548.4279,548.5117,95,63,0
548.5117,548.5951,96,65,0
548.5951,548.67847,97,67,0
548.7615,548.845,97,69,0
548.67847,548.845,98,71,0
548.67847,548.845,100,71,0
548.845,548.92914,96,66,0
548.92914,549.01404,95,63,0
549.01404,549.0996,94,62,0
549.0996,549.1857,93,59,0
549.1857,549.26953,92,69,0
549.26953,549.3528,93,59,0
549.1857,549.3528,98,69,0
549.1857,549.3528,100,69,0
549.3528,549.4356,94,61,0
549.4356,549.51794,95,63,0
549.51794,549.59985,96,65,0
549.59985,549.6813,97,67,0
549.7628,549.84546,97,69,0
549.6813,549.84546,98,71,0
549.6813,549.84546,100,71,0
549.84546,549.92926,96,66,0
549.92926,550.0142,95,63,0
550.0142,550.10046,94,62,0
550.10046,550.1884,93,59,0
550.1884,550.2759,92,69,0
550.2759,550.3625,93,57,0
550.1884,550.3625,98,69,0
550.1884,550.3625,100,69,0
550.3625,550.4484,94,59,0
550.4484,550.53357,95,61,0
550.53357,550.61804,96,63,0
550.61804,550.7018,97,65,0
550.7018,550.78485,98,67,0
550.78485,550.868,99,69,0
550.868,550.95197,100,72,0
550.95197,551.03705,101,75,0
551.03705,551.12317,100,73,0
551.12317,551.2103,99,73,0
551.2103,551.2986,98,70,0
551.2986,551.388,95,68,0
551.388,551.4785,92,65,0
551.4785,551.5703,89,63,0
551.5703,551.6626,88,60,0
551.6626,551.75366,87,57,0
551.75366,551.8436,86,55,0
551.8436,551.9324,87,53,0
551.9324,552.02057,88,54,0
552.02057,552.11005,89,53,0
552.11005,552.2009,88,51,0
552.2009,552.2932,87,49,0
552.2932,552.3861,86,51,0
552.3861,552.478,83,49,0
552.478,552.569,80,48,0
552.569,552.6599,77,47,0
552.6599,552.7508,76,46,0
552.7508,552.844,75,46,0
552.844,552.94147,74,47,0
552.94147,553.0374,75,48,0
553.0374,553.132,76,49,0
553.132,553.2251,77,49,0
553.2251,553.3197,76,48,0
553.3197,553.418,74,46,0
553.418,553.5168,71,48,0
553.5168,553.61365,74,45,0
553.61365,553.7086,76,47,0
553.7086,553.8029,77,48,0
553.8029,553.89905,76,47,0
553.89905,553.9971,74,46,0
553.9971,554.0957,68,50,0
554.0957,554.1932,74,44,0
554.1932,554.2894,76,45,0
554.2894,554.38544,77,46,0
554.38544,554.48285,76,45,0
554.48285,554.5816,74,45,0
554.5816,554.68097,69,50,0
554.68097,554.7786,74,44,0
554.7786,554.8746,76,45,0
554.8746,554.9699,78,45,0
554.9699,555.0665,76,45,0
555.0665,555.1645,74,43,0
555.1645,555.2628,70,49,0
555.2628,555.36017,74,40,0
555.36017,555.45654,76,41,0
555.45654,555.5533,78,43,0
555.5533,555.6508,76,43,0
555.6508,555.7492,74,40,0
555.7492,555.8486,71,49,0
555.8486,555.94727,74,40,0
555.94727,556.04535,78,44,0
556.04535,556.1428,76,40,0
556.1428,556.2397,77,44,0
556.2397,556.336,76,40,0
556.336,556.43176,78,44,0
556.43176,556.527,76,40,0
556.527,556.6216,77,45,0
556.6216,556.71564,76,40,0
556.71564,556.80914,78,45,0
556.80914,556.90204,76,41,0
556.90204,556.9908,77,45,0
556.9908,557.08453,76,42,0
557.08453,557.1766,78,45,0
557.1766,557.26697,76,40,0
557.26697,557.3607,77,45,0
557.3607,557.44995,76,40,0
557.44995,557.5437,78,44,0
557.5437,557.6315,76,40,0
557.6315,557.7218,77,43,0
557.7218,557.81055,76,38,0
557.81055,557.9015,78,42,0
557.9015,557.9887,76,38,0
557.9887,558.0796,77,41,0
558.0796,558.1663,76,37,0
558.1663,558.25665,78,40,0
558.25665,558.3429,76,37,0
558.3429,558.4327,78,39,0
558.4327,558.5194,76,36,0
558.5194,558.60815,78,38,0
558.60815,558.69586,76,36,0
558.69586,558.78516,78,37,0
558.78516,558.8719,76,33,0
558.8719,558.9622,78,36,0
558.9622,559.05145,76,33,0
559.05145,559.14484,78,36,0
559.14484,559.239,76,32,0
559.239,559.3341,78,35,0
559.3341,559.43,76,32,0
559.43,559.52673,78,34,0
559.52673,559.6243,76,31,0
559.6243,559.7233,78,33,0
559.7233,559.82477,76,30,0
559.82477,559.92883,78,32,0
559.92883,560.0615,76,29,0
560.0615,560.2095,71,36,0
560.2095,560.35736,76,36,0
560.0615,560.35736,83,45,0
560.35736,560.4989,73,36,0
560.4989,560.6404,76,36,0
560.6404,560.7875,78,39,0
560.7875,560.9345,76,36,0
560.35736,560.9345,85,47,0
560.9345,561.0747,71,36,0
561.0747,561.2149,76,36,0
560.9345,561.2149,83,43,0
561.2149,561.3488,73,36,0
561.3488,561.4827,76,36,0
561.4827,561.6229,78,39,0
561.6229,561.7631,76,36,0
561.2149,561.7631,85,47,0
561.7631,561.906,74,36,0
561.906,562.0488,76,36,0
561.7631,562.0488,86,44,0
562.0488,562.1804,74,36,0
562.1804,562.312,76,36,0
562.0488,562.312,83,48,0
562.312,562.44965,80,36,0
562.44965,562.5872,76,36,0
562.5872,562.72485,81,40,0
562.72485,562.8625,76,36,0
562.312,562.8625,88,49,0
562.8625,563.00397,82,42,0
563.00397,563.1455,76,36,0
563.1455,563.287,83,42,0
563.287,563.4285,76,36,0
563.4285,563.57556,84,45,0
563.57556,563.7226,76,36,0
563.7226,563.85657,73,36,0
563.85657,563.9905,76,36,0
563.9905,564.1281,78,39,0
564.1281,564.2657,76,36,0
563.7226,564.2657,85,47,0
564.2657,564.4072,71,36,0
564.4072,564.5487,76,36,0
564.2657,564.5487,83,43,0
564.5487,564.68506,73,36,0
564.68506,564.8215,76,36,0
564.8215,564.9643,78,39,0
564.9643,565.1072,76,36,0
564.5487,565.1072,85,47,0
565.1072,565.2542,74,36,0
565.2542,565.4013,76,36,0
565.1072,565.4013,86,44,0
565.4013,565.53174,71,36,0
565.53174,565.6622,76,36,0
565.4013,565.6622,83,48,0
565.6622,565.7985,80,36,0
565.7985,565.9349,76,36,0
565.9349,566.0712,81,40,0
566.0712,566.2076,76,36,0
565.6622,566.2076,88,49,0
566.2076,566.35046,82,42,0
566.35046,566.49335,76,36,0
566.49335,566.63617,83,42,0
566.63617,566.77905,76,36,0
566.77905,566.929,84,42,0
566.929,567.07904,76,36,0
567.07904,567.21063,73,36,0
567.21063,567.3422,76,36,0
567.3422,567.48236,78,39,0
567.48236,567.62256,76,36,0
567.07904,567.62256,81,40,0
567.07904,567.62256,85,48,0
567.62256,567.76276,73,36,0
567.76276,567.90295,76,36,0
567.90295,568.0357,74,36,0
568.0357,568.16846,78,36,0
567.90295,568.16846,86,49,0
567.90295,568.16846,83,41,0
568.16846,568.30994,80,39,0
568.30994,568.4515,78,36,0
568.16846,568.4515,86,38,0
568.16846,568.4515,90,45,0
568.4515,568.59296,74,36,0
568.59296,568.73444,78,36,0
568.4515,568.73444,86,45,0
568.4515,568.73444,83,38,0
568.73444,568.8627,73,36,0
568.8627,568.9909,76,36,0
568.73444,568.9909,85,52,0
568.73444,568.9909,81,44,0
568.9909,569.1248,78,39,0
569.1248,569.2587,76,36,0
568.9909,569.2587,85,40,0
568.9909,569.2587,88,47,0
569.2587,569.4016,73,36,0
569.4016,569.54443,76,36,0
569.2587,569.54443,85,47,0
569.2587,569.54443,81,40,0
569.54443,569.67487,71,36,0
569.67487,569.8053,76,36,0
569.54443,569.8053,80,45,0
569.54443,569.8053,83,53,0
569.8053,569.9482,77,39,0
569.9482,570.091,76,36,0
569.8053,570.091,86,48,0
569.8053,570.091,83,40,0
570.091,570.2339,71,36,0
570.2339,570.3768,76,36,0
570.091,570.3768,83,48,0
570.091,570.3768,80,40,0
570.3768,570.52673,69,41,0
570.52673,570.67676,73,41,0
570.67676,570.8072,76,41,0
570.3768,570.9376,81,51,0
570.8072,570.9376,81,41,0
570.9376,571.06805,85,42,0
571.06805,571.1985,87,44,0
570.9376,571.1985,93,51,0
571.1985,571.33124,88,45,0
571.33124,571.464,83,44,0
571.1985,571.464,92,51,0
571.464,571.60284,80,45,0
571.60284,571.74176,81,45,0
571.464,571.74176,88,54,0
571.74176,571.8806,83,46,0
571.8806,572.01953,85,45,0
571.74176,572.01953,91,54,0
572.01953,572.14886,86,47,0
572.14886,572.27814,81,47,0
572.01953,572.27814,90,58,0
572.27814,572.4145,77,46,0
572.4145,572.5509,74,49,0
572.27814,572.5509,86,56,0
572.5509,572.68726,82,48,0
572.68726,572.8236,81,50,0
572.5509,572.8236,89,57,0
572.8236,572.96783,80,49,0
572.96783,573.11206,76,49,0
572.8236,573.11206,88,59,0
573.11206,573.2636,71,44,0
573.2636,573.4151,76,45,0
573.11206,573.4151,83,51,0
573.4151,573.573,72,37,0
573.573,573.7309,76,42,0
573.4151,573.7309,84,47,0
573.7309,573.8724,73,36,0
573.8724,574.0145,76,36,0
574.0145,574.1616,78,39,0
574.1616,574.30786,76,36,0
573.7309,574.30786,85,47,0
574.30786,574.44806,71,36,0
574.44806,574.5875,76,36,0
574.30786,574.5875,83,43,0
574.5875,574.72144,73,36,0
574.72144,574.8561,76,36,0
574.8561,574.9963,78,39,0
574.9963,575.1368,76,36,0
574.5875,575.1368,85,47,0
575.1368,575.27966,74,36,0
575.27966,575.4212,76,36,0
575.1368,575.4212,86,44,0
575.4212,575.55273,71,36,0
575.55273,575.68506,76,36,0
575.4212,575.68506,83,48,0
575.68506,575.82263,80,36,0
575.82263,575.96027,76,36,0
575.96027,576.0979,81,40,0
576.0979,576.23596,76,36,0
575.68506,576.23596,88,49,0
576.23596,576.37744,82,42,0
576.37744,576.519,76,36,0
576.519,576.66046,83,42,0
576.66046,576.8027,76,36,0
576.8027,576.9497,84,45,0
576.9497,577.0952,76,36,0
577.0952,577.2292,73,36,0
577.2292,577.3635,76,36,0
577.3635,577.50116,78,39,0
577.50116,577.6392,76,36,0
577.0952,577.6392,85,47,0
577.6392,577.7807,71,36,0
577.7807,577.92163,76,36,0
577.6392,577.92163,83,43,0
577.92163,578.058,73,36,0
578.058,578.1951,76,36,0
578.1951,578.33795,78,39,0
578.33795,578.4813,76,36,0
577.92163,578.4813,85,47,0
578.4813,578.62836,74,36,0
578.62836,578.7735,76,36,0
578.4813,578.7735,86,44,0
578.7735,578.90393,71,36,0
578.90393,579.03503,76,36,0
578.7735,579.03503,83,48,0
579.03503,579.1714,80,36,0
579.1714,579.3078,76,36,0
579.3078,579.44415,81,40,0
579.44415,579.58124,76,36,0
579.03503,579.58124,88,49,0
579.58124,579.7241,82,42,0
579.7241,579.867,76,36,0
579.867,580.0098,83,42,0
580.0098,580.1535,76,36,0
580.1535,580.3035,84,42,0
580.3035,580.45135,76,36,0
580.45135,580.58295,73,36,0
580.58295,580.7155,76,36,0
580.7155,580.8557,78,39,0
580.8557,580.9959,76,36,0
580.45135,580.9959,85,48,0
580.45135,580.9959,81,40,0
580.9959,581.1361,73,36,0
581.1361,581.2754,76,36,0
581.2754,581.40814,74,36,0
581.40814,581.54193,78,36,0
581.2754,581.54193,86,49,0
581.2754,581.54193,83,41,0
581.54193,581.6834,80,39,0
581.6834,581.82495,78,36,0
581.54193,581.82495,86,38,0
581.54193,581.82495,90,45,0
581.82495,581.96643,74,36,0
581.96643,582.1064,78,36,0
581.82495,582.1064,86,45,0
581.82495,582.1064,83,38,0
582.1064,582.2346,73,36,0
582.2346,582.36346,76,36,0
582.1064,582.36346,81,44,0
582.1064,582.36346,85,52,0
582.36346,582.49744,78,39,0
582.49744,582.6324,76,36,0
582.36346,582.6324,85,40,0
582.36346,582.6324,88,47,0
582.6324,582.77527,73,36,0
582.77527,582.9166,76,36,0
582.6324,582.9166,85,47,0
582.6324,582.9166,81,40,0
582.9166,583.04706,71,36,0
583.04706,583.17896,76,36,0
582.9166,583.17896,80,45,0
582.9166,583.17896,83,53,0
583.17896,583.32184,77,39,0
583.32184,583.46466,76,36,0
583.17896,583.46466,86,48,0
583.17896,583.46466,83,40,0
583.46466,583.60754,71,36,0
583.60754,583.7504,76,36,0
583.46466,583.7504,80,40,0
583.46466,583.7504,83,48,0
583.7504,583.89325,81,56,0
583.7504,583.89325,69,41,0
583.7504,583.89325,73,49,0
584.7004,584.7661,81,43,0
584.7988,584.86365,85,44,0
584.8957,584.9592,93,45,0
584.9908,585.0531,93,46,0
585.0841,585.1465,85,45,0
585.1779,585.24133,81,44,0
585.2732,585.338,73,44,0
585.4707,585.5362,81,43,0
585.5688,585.63367,86,44,0
585.6659,585.7299,93,45,0
585.76166,585.82544,93,46,0
585.8575,585.92206,86,45,0
585.9545,586.01996,81,44,0
586.05286,586.12036,74,44,0
586.25146,586.3166,81,43,0
586.3489,586.4132,85,44,0
586.44525,586.5089,93,45,0
586.54047,586.6035,93,46,0
586.6353,586.69916,85,45,0
586.7312,586.79584,81,44,0
586.8282,586.8931,73,44,0
587.4472,587.50287,66,28,0
587.4472,587.50287,69,34,0
587.50287,587.5541,67,29,0
587.50287,587.5541,71,35,0
587.5541,587.605,69,31,0
587.5541,587.605,73,36,0
587.605,587.65564,71,31,0
587.605,587.65564,74,37,0
587.65564,587.70593,73,32,0
587.65564,587.70593,76,39,0
587.70593,587.75604,74,34,0
587.70593,587.75604,78,40,0
587.75604,587.8059,76,35,0
587.75604,587.8059,79,41,0
587.8059,587.8555,78,36,0
587.8059,587.8555,81,43,0
587.8555,587.90485,79,36,0
587.8555,587.90485,83,44,0
587.90485,587.954,81,38,0
587.90485,587.954,85,45,0
587.954,588.00287,83,40,0
587.954,588.00287,86,47,0
588.00287,588.0515,85,40,0
588.00287,588.0515,88,48,0
588.0515,588.11676,86,41,0
588.0515,588.11676,90,49,0
588.9342,588.9997,76,43,0
589.0323,589.09717,81,44,0
589.1294,589.1934,88,45,0
589.22516,589.28894,88,46,0
589.321,589.3855,81,45,0
589.418,589.48346,76,44,0
589.51636,589.58386,69,44,0
589.71497,589.7801,76,43,0
589.8124,589.8767,80,44,0
589.90875,589.9724,88,45,0
590.00397,590.067,88,46,0
590.0988,590.16266,80,45,0
590.1947,590.25934,76,44,0
590.2917,590.3566,68,44,0
590.9107,590.9664,90,28,0
590.9107,590.9664,98,34,0
590.9664,591.0176,88,29,0
590.9664,591.0176,97,35,0
591.0176,591.0685,86,31,0
591.0176,591.0685,95,36,0
591.0685,591.1191,85,31,0
591.0685,591.1191,93,37,0
591.1191,591.16943,83,32,0
591.1191,591.16943,92,39,0
591.16943,591.21954,81,34,0
591.16943,591.21954,90,40,0
591.21954,591.2694,80,35,0
591.21954,591.2694,88,41,0
591.2694,591.31903,78,36,0
591.2694,591.31903,86,43,0
591.31903,591.36835,76,36,0
591.31903,591.36835,85,44,0
591.36835,591.4175,74,38,0
591.36835,591.4175,83,45,0
591.4175,591.4664,73,40,0
591.4175,591.4664,81,47,0
591.4664,591.5153,71,40,0
591.4664,591.5153,80,48,0
591.5153,591.5643,69,41,0
591.5153,591.5805,78,49,0
591.5643,591.613,76,49,0
591.5643,591.613,68,41,0
591.613,591.6628,74,41,0
591.613,591.6628,66,41,0
591.8273,591.8925,69,43,0
591.92523,591.99005,73,44,0
592.0221,592.0857,81,45,0
592.1172,592.1795,81,46,0
592.2105,592.2729,73,45,0
592.3043,592.36774,69,44,0
592.3996,592.4645,61,44,0
592.5971,592.6626,69,43,0
592.69525,592.7601,74,44,0
592.7923,592.8563,81,45,0
592.8881,592.95184,81,46,0
592.9839,593.04846,74,45,0
593.08093,593.14636,69,44,0
593.17926,593.24677,62,44,0
593.37787,593.443,69,43,0
593.47534,593.5396,73,44,0
593.57166,593.6353,81,45,0
593.66693,593.7299,81,46,0
593.7617,593.82556,73,45,0
593.8576,593.92224,69,44,0
593.9546,594.01953,61,44,0
594.5885,594.6428,66,27,0
594.5885,594.6428,69,33,0
594.6428,594.6968,67,28,0
594.6428,594.6968,70,34,0
594.6968,594.75037,68,30,0
594.6968,594.75037,71,36,0
594.75037,594.8035,69,30,0
594.75037,594.8035,72,36,0
594.8035,594.8563,70,32,0
594.8035,594.8563,73,38,0
594.8563,594.90875,71,33,0
594.8563,594.90875,74,39,0
594.90875,594.9608,72,35,0
594.90875,594.9608,75,41,0
594.9608,595.0125,73,35,0
594.9608,595.0125,76,42,0
595.0125,595.0639,74,36,0
595.0125,595.0639,77,44,0
595.0639,595.1149,75,37,0
595.0639,595.1149,78,45,0
595.1149,595.1655,76,39,0
595.1149,595.1655,79,46,0
595.1655,595.2159,77,40,0
595.1655,595.2159,80,47,0
595.2159,595.2658,78,41,0
595.2159,595.2658,81,49,0
595.2658,595.3154,79,42,0
595.2658,595.3154,82,50,0
595.3154,595.36475,80,44,0
595.3154,595.36475,83,52,0
595.36475,595.41376,81,45,0
595.36475,595.41376,84,53,0
595.41376,595.46265,82,45,0
595.41376,595.46265,85,54,0
595.46265,595.51276,83,46,0
595.46265,595.51276,86,55,0
595.51276,595.5642,84,48,0
595.51276,595.5642,87,57,0
595.5642,595.6168,85,49,0
595.5642,595.6168,88,58,0
595.6168,595.8649,86,50,0
595.6168,595.8649,90,60,0
596.79755,596.86304,64,43,0
596.8956,596.9605,69,44,0
596.99274,597.05676,76,45,0
597.0885,597.1523,76,46,0
597.1843,597.2489,69,45,0
597.2814,597.3468,64,44,0
597.3797,597.4472,57,44,0
597.5783,597.64343,64,43,0
597.6758,597.74005,68,44,0
597.7721,597.83575,76,45,0
597.8674,597.93036,76,46,0
597.96216,598.026,68,45,0
598.05804,598.1227,64,44,0
598.155,598.22,56,44,0
598.87573,598.93005,90,27,0
598.87573,598.93005,98,33,0
598.93005,598.984,89,28,0
598.93005,598.984,97,34,0
598.984,599.03754,88,30,0
598.984,599.03754,96,36,0
599.03754,599.0907,87,30,0
599.03754,599.0907,95,36,0
599.0907,599.14355,86,32,0
599.0907,599.14355,94,38,0
599.14355,599.196,85,33,0
599.14355,599.196,93,39,0
599.196,599.24805,84,35,0
599.196,599.24805,92,41,0
599.24805,599.29974,83,35,0
599.24805,599.29974,91,42,0
599.29974,599.35114,82,36,0
599.29974,599.35114,90,44,0
599.35114,599.4021,81,37,0
599.35114,599.4021,89,45,0
599.4021,599.45276,80,39,0
599.4021,599.45276,88,46,0
599.45276,599.50305,79,40,0
599.45276,599.50305,87,47,0
599.50305,599.55304,78,41,0
599.50305,599.55304,86,49,0
599.55304,599.60266,77,42,0
599.55304,599.60266,85,50,0
599.60266,599.652,76,44,0
599.60266,599.652,84,52,0
599.652,599.7009,75,45,0
599.652,599.7009,83,53,0
599.7009,599.74963,82,54,0
599.7009,599.74963,74,45,0
599.74963,599.7981,81,54,0
599.74963,599.7981,73,45,0
599.7981,599.8464,80,55,0
599.7981,599.8464,72,46,0
599.8464,599.8947,79,57,0
599.8464,599.8947,71,48,0
599.8947,599.9371,78,58,0
599.8947,599.9371,70,49,0
599.9371,599.981,77,58,0
599.9371,599.981,69,49,0
599.981,600.0267,76,57,0
599.981,600.0267,68,48,0
600.0267,600.0755,75,59,0
600.0267,600.0755,66,50,0
600.0755,600.16187,74,61,0
600.0755,600.16187,65,51,0
600.16187,600.2383,73,59,0
600.16187,600.2383,64,58,0
600.16187,600.2383,76,72,0
600.5269,600.65906,61,55,0
600.65906,600.7891,64,47,0
600.5269,600.7891,69,55,0
600.5269,600.7891,73,65,0
600.7891,600.9172,69,44,0
600.7891,600.9172,73,52,0
600.9172,601.04517,76,55,0
601.04517,601.178,81,50,0
601.04517,601.178,85,59,0
601.3175,601.4485,71,54,0
601.4485,601.57764,76,52,0
601.3175,601.57764,80,54,0
601.3175,601.57764,83,64,0
601.57764,601.70496,80,45,0
601.57764,601.70496,83,54,0
601.70496,601.83154,76,57,0
601.83154,601.96027,92,51,0
601.83154,601.96027,95,61,0
602.0899,602.2384,85,60,0
602.0899,602.2384,93,63,0
602.0899,602.2384,97,73,0
602.6826,602.737,97,27,0
602.6826,602.737,100,33,0
602.737,602.7909,95,34,0
602.7909,602.8445,93,36,0
602.8445,602.89764,92,36,0
602.89764,602.95044,90,38,0
602.95044,603.00287,88,39,0
603.00287,603.055,86,41,0
603.055,603.1067,85,42,0
603.1067,603.158,83,44,0
603.158,603.20905,81,45,0
603.20905,603.25964,80,46,0
603.25964,603.31,78,47,0
603.31,603.3599,76,49,0
603.3599,603.4096,74,50,0
603.4096,603.45886,73,52,0
603.45886,603.5061,71,53,0
603.5061,603.55634,69,54,0
603.55634,603.60785,68,55,0
603.60785,603.725,66,57,0
603.725,603.8046,76,70,0
603.725,603.8046,73,57,0
603.725,603.8046,64,55,0
604.0669,604.19904,61,55,0
604.19904,604.3291,64,47,0
604.0669,604.3291,69,55,0
604.0669,604.3291,73,65,0
604.3291,604.45715,69,44,0
604.3291,604.45715,73,52,0
604.45715,604.58514,76,55,0
604.58514,604.7169,81,50,0
604.58514,604.7169,85,59,0
604.8541,604.98944,71,54,0
604.98944,605.1186,76,52,0
604.8541,605.1186,80,54,0
604.8541,605.1186,83,64,0
605.1186,605.2459,80,45,0
605.1186,605.2459,83,54,0
605.2459,605.3725,76,57,0
605.3725,605.5012,92,51,0
605.3725,605.5012,95,61,0
605.63086,605.77936,85,60,0
605.63086,605.77936,93,63,0
605.63086,605.77936,97,73,0
606.2236,606.2779,75,43,0
606.2779,606.33185,76,45,0
606.33185,606.38544,78,46,0
606.38544,606.4386,80,48,0
606.4386,606.4914,81,50,0
606.4914,606.5438,83,51,0
606.5438,606.5959,85,53,0
606.5959,606.64764,86,54,0
606.64764,606.699,88,56,0
606.699,606.75,90,58,0
606.75,606.8006,92,60,0
606.8006,606.8496,93,62,0
606.8496,606.8999,95,63,0
606.8999,606.90497,97,65,0
606.95154,607.0598,98,68,0
607.0598,607.146,88,71,0
607.0598,607.146,100,84,0
607.0598,607.146,97,84,0
607.4041,607.55743,97,73,0
607.4041,607.55743,88,73,0
607.4041,607.55743,100,87,0
607.4041,607.55743,93,73,0
607.8487,607.9215,88,68,0
607.8487,607.9215,100,81,0
607.8487,607.9215,95,68,0
607.8487,607.9215,98,81,0
607.995,608.1651,93,69,0
607.995,608.1651,88,69,0
607.995,608.1651,97,69,0
607.995,608.1651,100,82,0
608.3108,608.4564,95,72,0
608.3108,608.4564,88,72,0
608.3108,608.4564,92,72,0
608.3108,608.4564,100,86,0
608.7477,608.8205,100,81,0
608.7477,608.8205,90,68,0
608.7477,608.8205,88,68,0
608.7477,608.8205,93,68,0
608.89386,609.0628,95,68,0
608.89386,609.0628,100,81,0
608.89386,609.0628,88,68,0
608.89386,609.0628,92,68,0
609.23126,609.8301,88,72,0
609.23126,609.8301,97,72,0
609.23126,609.8301,93,72,0
609.23126,609.8301,100,85,0
610.2959,610.3709,68,37,0
610.2959,610.3709,71,45,0
610.7263,610.759,66,35,0
610.7263,610.759,69,41,0
610.85675,610.922,68,35,0
610.85675,610.922,71,41,0
611.15576,611.2265,69,37,0
611.15576,611.2265,73,45,0
611.5704,611.6033,71,36,0
611.5704,611.6033,74,43,0
611.7019,611.7677,69,36,0
611.7019,611.7677,73,43,0
612.0002,612.0716,68,37,0
612.0002,612.0716,71,45,0
612.4175,612.4504,66,34,0
612.4175,612.4504,69,40,0
612.5491,612.6148,68,34,0
612.5491,612.6148,71,40,0
612.8534,613.1364,64,37,0
612.8534,613.1364,69,45,0
613.72125,614.1396,76,72,0
613.72125,614.1396,80,72,0
613.72125,614.1396,83,72,0
613.72125,614.1396,88,86,0
614.1396,614.27686,81,68,0
614.1396,614.27686,88,81,0
614.1396,614.27686,76,68,0
614.1396,614.27686,78,68,0
614.27686,614.5926,83,68,0
614.27686,614.5926,88,81,0
614.27686,614.5926,76,68,0
614.27686,614.5926,80,68,0
614.5926,615.01196,85,73,0
614.5926,615.01196,88,87,0
614.5926,615.01196,81,73,0
614.5926,615.01196,76,73,0
615.01196,615.1493,76,68,0
615.01196,615.1493,86,81,0
615.01196,615.1493,88,81,0
615.01196,615.1493,83,68,0
615.1493,615.4623,81,69,0
615.1493,615.4623,88,82,0
615.1493,615.4623,76,69,0
615.1493,615.4623,85,69,0
615.4623,615.8844,83,72,0
615.4623,615.8844,80,72,0
615.4623,615.8844,88,86,0
615.4623,615.8844,76,72,0
615.8844,616.02167,81,68,0
615.8844,616.02167,76,68,0
615.8844,616.02167,78,68,0
615.8844,616.02167,88,81,0
616.02167,616.359,83,68,0
616.02167,616.359,76,68,0
616.02167,616.359,80,68,0
616.02167,616.359,88,81,0
616.359,616.5858,93,95,0
616.359,616.5858,85,81,0
616.359,616.5858,81,72,0
616.7793,616.8262,69,49,0
616.87305,616.93353,71,49,0
617.115,617.2979,73,56,0
617.4692,617.5152,69,50,0
617.5877,617.64453,68,50,0
617.78845,617.9824,66,55,0
618.28516,618.9392,71,58,0
618.9392,618.9992,69,52,0
619.1792,619.3699,66,49,0
619.1792,619.3699,68,58,0
619.6435,619.703,64,43,0
619.6435,619.703,68,51,0
619.8816,620.07556,69,55,0
619.8816,620.07556,64,55,0
620.3485,620.408,63,45,0
620.3485,620.408,57,45,0
620.3485,620.408,71,53,0
620.5866,620.7806,56,47,0
620.5866,620.7806,64,56,0
620.95886,621.00824,68,41,0
620.95886,621.00824,76,49,0
621.05756,621.1144,69,41,0
621.05756,621.1144,75,49,0
621.28485,621.4771,69,45,0
621.28485,621.4771,74,54,0
621.6549,621.7049,65,42,0
621.6549,621.7049,74,50,0
621.7549,621.81256,64,44,0
621.7549,621.81256,71,52,0
621.98566,622.1796,64,49,0
621.98566,622.1796,69,58,0
622.36334,622.4133,69,45,0
622.36334,622.4133,81,54,0
622.4633,622.5238,71,48,0
622.4633,622.5238,83,57,0
622.70526,622.89276,73,53,0
622.70526,622.89276,85,63,0
623.06555,623.11365,69,45,0
623.06555,623.11365,81,54,0
623.1617,623.21893,68,45,0
623.1617,623.21893,80,54,0
623.3907,623.58466,66,50,0
623.3907,623.58466,78,60,0
623.88745,624.54443,71,52,0
623.88745,624.54443,83,62,0
624.54443,624.6021,69,44,0
624.54443,624.6021,81,52,0
624.54443,624.6021,71,44,0
624.54443,624.6021,78,44,0
624.77515,624.9691,74,46,0
624.77515,624.9691,69,46,0
624.77515,624.9691,81,55,0
625.14746,625.19403,68,43,0
625.14746,625.19403,74,43,0
625.14746,625.19403,80,51,0
625.2406,625.3001,66,43,0
625.2406,625.3001,74,43,0
625.2406,625.3001,78,51,0
625.4787,625.671,64,47,0
625.4787,625.671,74,47,0
625.4787,625.671,76,56,0
625.84875,625.8968,66,44,0
625.84875,625.8968,78,52,0
625.9449,626.0069,68,44,0
625.9449,626.0069,74,44,0
625.9449,626.0069,80,52,0
626.1928,626.3974,73,46,0
626.1928,626.3974,69,46,0
626.1928,626.3974,81,55,0
626.4656,626.5971,73,51,0
626.4656,626.5971,76,51,0
626.4656,626.5971,85,60,0
626.7287,627.22925,76,57,0
626.7287,627.22925,81,57,0
626.7287,627.22925,88,67,0
627.22925,627.29395,76,54,0
627.22925,627.29395,88,65,0
627.22925,627.29395,83,54,0
627.4879,627.55255,76,54,0
627.4879,627.55255,84,54,0
627.4879,627.55255,88,65,0
627.7465,627.9405,86,60,0
627.7465,627.9405,76,60,0
627.7465,627.9405,88,71,0
628.1251,628.1765,76,56,0
628.1251,628.1765,85,56,0
628.1251,628.1765,88,66,0
628.22784,628.2874,76,56,0
628.22784,628.2874,83,56,0
628.22784,628.2874,88,66,0
628.46594,628.72235,76,62,0
628.46594,628.72235,81,62,0
628.46594,628.72235,88,72,0
628.8424,628.89594,76,58,0
628.8424,628.89594,85,58,0
628.8424,628.89594,88,68,0
628.9495,629.01587,76,58,0
628.9495,629.01587,83,58,0
628.9495,629.01587,88,68,0
629.215,629.3478,81,63,0
629.215,629.3478,76,63,0
629.215,629.3478,88,73,0
630.7232,630.94275,80,51,0
630.7232,630.94275,71,51,0
630.7232,630.94275,83,61,0
631.14197,631.17303,64,39,0
631.14197,631.17303,68,46,0
631.17303,631.2041,66,39,0
631.17303,631.2041,69,46,0
631.2041,631.2351,71,46,0
631.2351,631.3898,64,50,0
631.2351,631.3898,68,59,0
631.54443,631.75183,76,54,0
631.54443,631.75183,85,54,0
631.54443,631.75183,88,63,0
631.9429,631.9741,69,37,0
631.9429,631.9741,73,45,0
631.9741,632.0054,71,37,0
631.9741,632.0054,75,45,0
632.0054,632.0366,76,45,0
632.0366,632.1837,69,47,0
632.0366,632.1837,73,56,0
632.33075,632.58936,80,51,0
632.33075,632.58936,71,51,0
632.33075,632.58936,83,61,0
632.71545,632.74646,64,39,0
632.71545,632.74646,68,46,0
632.74646,632.7775,66,39,0
632.74646,632.7775,69,46,0
632.7775,632.8086,71,46,0
632.8086,632.9515,64,50,0
632.8086,632.9515,68,59,0
633.0943,633.1718,76,39,0
633.0943,633.1718,80,46,0
633.1718,633.2493,78,39,0
633.1718,633.2493,81,46,0
633.2493,633.32684,83,46,0
633.32684,633.4478,76,50,0
633.32684,633.4478,80,59,0
633.5688,633.64514,88,40,0
633.5688,633.64514,92,47,0
633.64514,633.7215,90,43,0
633.64514,633.7215,93,51,0
633.7215,633.7978,91,45,0
633.7215,633.7978,94,54,0
633.7978,633.93054,90,54,0
633.7978,633.93054,95,63,0
634.19604,634.25244,87,45,0
634.19604,634.25244,83,45,0
634.19604,634.25244,95,54,0
634.30884,634.4308,88,45,0
634.30884,634.4308,83,45,0
634.30884,634.4308,95,54,0
634.55273,634.669,88,53,0
634.55273,634.669,83,53,0
634.55273,634.669,94,63,0
634.7853,634.90625,89,50,0
634.7853,634.90625,83,50,0
634.7853,634.90625,95,60,0
635.0272,635.15015,90,50,0
635.0272,635.15015,83,50,0
635.0272,635.15015,93,60,0
635.27313,635.39813,88,55,0
635.27313,635.39813,83,55,0
635.27313,635.39813,92,66,0
635.52313,635.5851,68,54,0
635.5851,635.64703,69,54,0
635.64703,635.7085,71,54,0
635.7085,635.7699,69,55,0
635.7699,635.8309,68,54,0
635.8309,635.8917,69,51,0
635.8917,635.9522,71,49,0
635.9522,636.0124,73,50,0
636.0124,636.0724,75,51,0
636.0724,636.132,76,52,0
636.132,636.1916,78,53,0
636.1916,636.25073,80,54,0
636.25073,636.30975,81,55,0
636.30975,636.3684,83,56,0
636.3684,636.4269,85,57,0
636.4269,636.4855,87,58,0
636.4855,636.5524,88,59,0
636.5524,636.62537,90,60,0
636.62537,636.70355,92,61,0
636.70355,636.78796,93,62,0
636.78796,637.0248,83,70,0
636.78796,637.0248,80,70,0
636.78796,637.0248,92,70,0
637.2298,637.26086,64,35,0
637.2298,637.26086,68,41,0
637.26086,637.29193,66,35,0
637.26086,637.29193,69,41,0
637.29193,637.323,71,41,0
637.323,637.4878,64,45,0
637.323,637.4878,68,53,0
637.65265,637.93304,76,48,0
637.65265,637.93304,85,48,0
637.65265,637.93304,88,56,0
638.055,638.08624,69,33,0
638.055,638.08624,73,40,0
638.08624,638.1175,71,33,0
638.08624,638.1175,75,40,0
638.1175,638.14874,76,40,0
638.14874,638.30835,69,42,0
638.14874,638.30835,73,50,0
638.4679,638.7265,80,45,0
638.4679,638.7265,71,45,0
638.4679,638.7265,83,54,0
638.8526,638.8836,64,35,0
638.8526,638.8836,68,41,0
638.8836,638.9147,66,35,0
638.8836,638.9147,69,41,0
638.9147,638.94574,71,41,0
638.94574,639.0718,64,45,0
638.94574,639.0718,68,53,0
639.1978,639.2754,76,35,0
639.1978,639.2754,80,41,0
639.2754,639.3529,78,35,0
639.2754,639.3529,81,41,0
639.3529,639.4304,83,41,0
639.4304,639.5514,76,45,0
639.4304,639.5514,80,53,0
639.67236,639.74866,88,36,0
639.67236,639.74866,92,42,0
639.74866,639.825,90,38,0
639.74866,639.825,93,45,0
639.825,639.90137,91,40,0
639.825,639.90137,94,48,0
639.90137,640.03406,90,48,0
639.90137,640.03406,95,56,0
640.29956,640.35596,87,40,0
640.29956,640.35596,83,40,0
640.29956,640.35596,95,48,0
640.41235,640.5343,88,40,0
640.41235,640.5343,83,40,0
640.41235,640.5343,95,48,0
640.65625,640.7725,88,47,0
640.65625,640.7725,83,47,0
640.65625,640.7725,94,56,0
640.8888,641.00977,89,45,0
640.8888,641.00977,83,45,0
640.8888,641.00977,95,54,0
641.13074,641.2537,90,45,0
641.13074,641.2537,83,45,0
641.13074,641.2537,93,54,0
641.37665,641.5094,88,48,0
641.37665,641.5094,92,56,0
641.37665,641.5094,83,48,0
641.7749,641.8313,75,45,0
641.7749,641.8313,71,45,0
641.7749,641.8313,83,54,0
641.88763,642.00964,76,45,0
641.88763,642.00964,71,45,0
641.88763,642.00964,83,54,0
642.1316,642.24786,76,53,0
642.1316,642.24786,71,53,0
642.1316,642.24786,82,63,0
642.36414,642.4851,77,50,0
642.36414,642.4851,71,50,0
642.36414,642.4851,83,60,0
642.6061,642.729,78,50,0
642.6061,642.729,71,50,0
642.6061,642.729,81,60,0
642.852,642.9871,80,63,0
642.852,642.9871,76,54,0
642.852,642.9871,71,54,0
643.24567,643.3694,63,51,0
643.24567,643.3694,59,51,0
643.24567,643.3694,71,61,0
643.4919,643.6132,64,52,0
643.4919,643.6132,71,62,0
643.4919,643.6132,59,52,0
643.4919,643.6132,61,52,0
643.73334,643.8521,64,52,0
643.73334,643.8521,70,63,0
643.73334,643.8521,59,52,0
643.73334,643.8521,61,52,0
643.9693,644.0847,64,53,0
643.9693,644.0847,71,63,0
643.9693,644.0847,59,53,0
643.9693,644.0847,61,53,0
644.21295,644.3411,69,56,0
644.21295,644.3411,71,66,0
644.21295,644.3411,59,56,0
644.21295,644.3411,63,56,0
644.3411,644.48676,76,73,0
644.3411,644.48676,68,66,0
644.3411,644.48676,80,82,0
644.6324,644.75336,56,66,0
644.75336,644.8736,52,62,0
645.09534,645.20544,80,71,0
645.20544,645.31494,76,65,0
645.5323,645.64014,68,76,0
645.64014,645.7729,64,72,0
645.7729,645.9214,80,73,0
645.7729,645.9214,71,66,0
645.7729,645.9214,83,82,0
646.06995,646.18805,56,60,0
646.06995,646.18805,59,66,0
646.18805,646.30444,52,62,0
646.5259,646.6356,80,63,0
646.5259,646.6356,83,71,0
646.6356,646.7448,76,65,0
646.9613,647.0685,68,70,0
646.9613,647.0685,71,76,0
647.0685,647.2141,64,72,0
647.302,647.5657,74,78,0
647.302,647.5657,83,80,0
647.302,647.5657,86,83,0
648.06146,648.18494,97,47,0
648.06146,648.18494,100,47,0
648.3053,648.4227,95,49,0
648.3053,648.4227,98,49,0
648.53485,648.643,93,50,0
648.53485,648.643,97,50,0
648.7478,648.8496,92,52,0
648.7478,648.8496,95,52,0
648.9484,649.0447,86,53,0
648.9484,649.0447,90,53,0
648.9484,649.0447,98,53,0
649.139,649.2327,85,45,0
649.139,649.2327,88,53,0
649.139,649.2327,97,53,0
649.3265,649.4202,86,45,0
649.3265,649.4202,83,45,0
649.3265,649.4202,95,53,0
649.514,649.6077,81,45,0
649.514,649.6077,85,45,0
649.514,649.6077,93,54,0
649.70105,649.7942,80,45,0
649.70105,649.7942,83,45,0
649.70105,649.7942,92,54,0
649.8874,649.98004,78,47,0
649.8874,649.98004,81,47,0
649.8874,649.98004,90,56,0
650.07263,650.1654,76,47,0
650.07263,650.1654,80,47,0
650.07263,650.1654,88,56,0
650.25916,650.3529,74,48,0
650.25916,650.3529,78,48,0
650.25916,650.3529,86,58,0
650.4466,650.53973,76,50,0
650.4466,650.53973,73,50,0
650.4466,650.53973,85,60,0
650.63293,650.72595,71,51,0
650.63293,650.72595,74,51,0
650.63293,650.72595,83,62,0
650.81854,650.91113,69,52,0
650.81854,650.91113,73,52,0
650.81854,650.91113,81,63,0
651.0036,651.09564,68,54,0
651.0036,651.09564,71,54,0
651.0036,651.09564,80,63,0
651.1876,651.2791,66,54,0
651.1876,651.2791,69,54,0
651.1876,651.2791,78,65,0
651.37024,651.4628,64,54,0
651.37024,651.4628,68,54,0
651.37024,651.4628,76,66,0
651.55695,651.65247,66,56,0
651.55695,651.65247,63,56,0
651.55695,651.65247,75,67,0
651.7495,651.8482,62,57,0
651.7495,651.8482,65,57,0
651.7495,651.8482,74,68,0
651.9486,652.0533,61,59,0
651.9486,652.0533,64,59,0
651.9486,652.0533,73,70,0
652.1644,652.2829,60,60,0
652.1644,652.2829,66,60,0
652.1644,652.2829,72,72,0
652.40967,652.5463,59,60,0
652.40967,652.5463,64,60,0
652.40967,652.5463,71,72,0
652.5463,652.67236,61,54,0
652.5463,652.67236,57,54,0
652.5463,652.67236,69,77,0
652.92444,652.9713,69,60,0
652.92444,652.9713,81,72,0
653.0182,653.0787,71,62,0
653.0182,653.0787,83,72,0
653.26013,653.4492,73,63,0
653.26013,653.4492,85,74,0
653.62256,653.6686,69,57,0
653.62256,653.6686,81,67,0
653.7146,653.77136,80,67,0
653.7146,653.77136,68,57,0
653.94183,654.13416,66,63,0
653.94183,654.13416,78,76,0
654.43634,655.0904,83,78,0
654.43634,655.0904,71,65,0
655.0904,655.1504,69,62,0
655.0904,655.1504,78,62,0
655.0904,655.1504,81,72,0
655.3304,655.5277,68,67,0
655.3304,655.5277,78,67,0
655.3304,655.5277,80,80,0
655.8036,655.8631,76,62,0
655.8036,655.8631,68,62,0
655.8036,655.8631,80,72,0
656.0417,656.3003,76,67,0
656.0417,656.3003,69,67,0
656.0417,656.3003,81,80,0
656.5086,656.5681,75,52,0
656.5086,656.5681,69,52,0
656.5086,656.5681,83,72,0
656.7467,656.9407,68,54,0
656.7467,656.9407,64,54,0
656.7467,656.9407,76,77,0
657.11896,657.16833,83,63,0
657.11896,657.16833,88,73,0
657.11896,657.16833,76,63,0
657.11896,657.16833,80,63,0
657.21765,657.2745,81,63,0
657.21765,657.2745,89,73,0
657.21765,657.2745,85,73,0
657.21765,657.2745,77,63,0
657.44495,657.70135,86,69,0
657.44495,657.70135,89,81,0
657.44495,657.70135,77,69,0
657.44495,657.70135,82,69,0
657.81494,657.865,86,63,0
657.81494,657.865,91,74,0
657.81494,657.865,79,63,0
657.81494,657.865,83,63,0
657.915,657.97266,86,63,0
657.915,657.97266,92,74,0
657.915,657.97266,80,63,0
657.915,657.97266,83,63,0
658.14575,658.3414,85,70,0
658.14575,658.3414,81,70,0
658.14575,658.3414,93,82,0
658.8676,659.0535,76,67,0
658.8676,659.0535,81,80,0
658.8676,659.0535,69,67,0
658.8676,659.0535,73,67,0
659.92865,659.98816,83,66,0
659.92865,659.98816,95,79,0
660.04767,660.1049,85,69,0
660.04767,660.1049,97,81,0
660.25653,660.4946,86,71,0
660.25653,660.4946,98,84,0
660.60913,660.6569,83,63,0
660.60913,660.6569,95,76,0
660.70465,660.7624,90,63,0
660.70465,660.7624,81,63,0
660.70465,660.7624,93,76,0
660.9354,661.1294,86,69,0
660.9354,661.1294,81,69,0
660.9354,661.1294,93,81,0
661.3077,661.3543,80,63,0
661.3077,661.3543,86,63,0
661.3077,661.3543,92,74,0
661.4009,661.4604,78,65,0
661.4009,661.4604,86,65,0
661.4009,661.4604,90,78,0
661.639,661.8313,76,67,0
661.639,661.8313,86,67,0
661.639,661.8313,88,80,0
662.00903,662.05707,78,64,0
662.00903,662.05707,90,77,0
662.00903,662.05707,86,64,0
662.10516,662.1672,80,64,0
662.10516,662.1672,86,64,0
662.10516,662.1672,92,77,0
662.3531,662.5634,85,67,0
662.3531,662.5634,81,67,0
662.3531,662.5634,93,80,0
662.6335,662.7687,85,71,0
662.6335,662.7687,88,71,0
662.6335,662.7687,97,84,0
662.9038,663.40436,88,74,0
662.9038,663.40436,93,74,0
662.9038,663.40436,100,88,0
663.40436,663.469,95,72,0
663.40436,663.469,88,72,0
663.40436,663.469,100,85,0
663.66296,663.7276,88,72,0
663.66296,663.7276,96,72,0
663.66296,663.7276,100,85,0
663.9216,664.11554,88,78,0
663.9216,664.11554,98,92,0
663.9216,664.11554,100,92,0
664.30316,664.3646,88,73,0
664.30316,664.3646,97,73,0
664.30316,664.3646,100,87,0
664.4261,664.48706,88,73,0
664.4261,664.48706,96,73,0
664.4261,664.48706,100,87,0
664.67004,664.85443,88,81,0
664.67004,664.85443,95,81,0
664.67004,664.85443,100,95,0
664.9159,665.043,94,74,0
664.9159,665.043,88,74,0
664.9159,665.043,100,90,0
665.17017,665.23535,88,74,0
665.17017,665.23535,93,74,0
665.17017,665.23535,100,90,0
665.431,665.6155,93,79,0
665.431,665.6155,88,79,0
665.431,665.6155,100,93,0
665.67694,665.8009,92,73,0
665.67694,665.8009,88,73,0
665.67694,665.8009,100,87,0
665.92487,665.99005,88,73,0
665.92487,665.99005,93,73,0
665.92487,665.99005,100,87,0
666.1857,666.6857,88,80,0
666.1857,666.6857,97,80,0
666.1857,666.6857,100,94,0
666.6857,666.7521,88,76,0
666.6857,666.7521,95,76,0
666.6857,666.7521,100,90,0
667.3387,667.4506,81,67,0
667.3387,667.4506,93,80,0
667.4506,667.5726,81,67,0
667.4506,667.5726,93,80,0
667.6945,667.8195,81,71,0
667.6945,667.8195,93,83,0
668.79333,668.90607,45,65,0
668.79333,668.90607,57,77,0
668.90607,669.0281,45,65,0
668.90607,669.0281,57,77,0
669.15,669.27606,45,72,0
669.15,669.27606,57,85,0
670.2509,670.3596,66,66,0
670.2509,670.3596,60,66,0
670.2509,670.3596,63,66,0
670.3596,670.577,66,66,0
670.3596,670.577,60,66,0
669.8821,670.577,69,83,0
669.8821,670.577,57,71,0
670.3596,670.577,63,66,0
670.94586,671.05615,66,64,0
670.94586,671.05615,60,64,0
670.577,671.05615,69,81,0
670.577,671.05615,57,69,0
670.94586,671.05615,63,64,0
671.2518,671.34674,69,72,0
671.05615,671.34674,66,64,0
671.05615,671.34674,60,64,0
671.05615,671.34674,63,64,0
671.2518,671.34674,57,63,0
671.7156,671.8243,66,66,0
671.7156,671.8243,60,66,0
671.7156,671.8243,63,66,0
671.8243,672.0417,66,66,0
671.8243,672.0417,60,66,0
671.34674,672.0417,69,83,0
671.34674,672.0417,57,71,0
671.8243,672.0417,63,66,0
672.4105,672.5208,66,64,0
672.4105,672.5208,60,64,0
672.0417,672.5208,69,81,0
672.0417,672.5208,57,69,0
672.4105,672.5208,63,64,0
672.5208,672.76624,66,64,0
672.5208,672.76624,63,64,0
672.5208,672.76624,60,64,0
673.13513,673.18945,66,66,0
673.13513,673.18945,63,66,0
673.2438,673.3525,66,66,0
673.2438,673.3525,63,66,0
673.4612,673.83,66,66,0
673.4612,673.83,63,66,0
673.83,673.8852,64,64,0
673.83,673.8852,61,64,0
673.9403,674.05066,64,64,0
673.9403,674.05066,61,64,0
672.76624,674.16095,58,71,0
672.76624,674.16095,70,83,0
674.16095,674.5298,64,66,0
674.16095,674.5298,61,66,0
674.5298,674.5849,65,64,0
674.5298,674.5849,62,64,0
674.16095,674.6401,58,66,0
674.6401,674.75037,65,64,0
674.6401,674.75037,62,64,0
674.86096,675.2295,65,66,0
674.86096,675.2295,62,66,0
675.2295,675.28467,66,64,0
675.2295,675.28467,63,64,0
675.2295,675.28467,58,64,0
675.3398,675.4501,67,64,0
675.3398,675.4501,64,64,0
675.3398,675.4501,58,64,0
675.56036,675.6707,68,66,0
675.56036,675.6707,65,66,0
675.56036,675.6707,59,66,0
675.8913,676.00323,83,67,0
675.8913,676.00323,95,80,0
676.00323,676.1252,83,67,0
676.00323,676.1252,95,80,0
676.24713,676.37213,83,71,0
676.24713,676.37213,95,83,0
677.34595,677.45874,59,65,0
677.34595,677.45874,71,77,0
677.45874,677.5807,59,65,0
677.45874,677.5807,71,77,0
677.70264,677.8287,59,72,0
677.70264,677.8287,71,85,0
678.0777,678.188,68,64,0
678.0777,678.188,65,64,0
678.0777,678.188,62,64,0
678.3836,678.4786,71,72,0
678.188,678.4786,68,64,0
678.188,678.4786,61,64,0
678.188,678.4786,65,64,0
678.3836,678.4786,59,63,0
678.8474,678.90173,68,66,0
678.8474,678.90173,65,66,0
678.9561,679.0648,68,66,0
678.9561,679.0648,65,66,0
679.17346,679.54236,68,66,0
679.17346,679.54236,65,66,0
679.54236,679.5975,66,64,0
679.54236,679.5975,63,64,0
679.65265,679.76294,66,64,0
679.65265,679.76294,63,64,0
678.4786,679.8732,60,71,0
678.4786,679.8732,72,83,0
679.8732,680.24207,66,66,0
679.8732,680.24207,63,66,0
680.24207,680.29724,67,64,0
680.24207,680.29724,64,64,0
680.35236,680.46265,67,64,0
680.35236,680.46265,64,64,0
679.8732,680.81915,60,66,0
680.5733,680.94183,67,66,0
680.5733,680.94183,64,66,0
680.94183,680.99695,68,64,0
680.94183,680.99695,65,64,0
681.0521,681.1624,69,64,0
681.0521,681.1624,66,64,0
681.2727,681.383,70,66,0
681.2727,681.383,67,66,0
681.2727,681.383,61,66,0
681.6036,681.7155,85,67,0
681.6036,681.7155,97,80,0
681.7155,681.83746,85,67,0
681.7155,681.83746,97,80,0
681.9594,682.0844,85,71,0
681.9594,682.0844,97,83,0
683.0582,683.171,61,63,0
683.0582,683.171,64,63,0
683.0582,683.171,70,63,0
683.0582,683.171,73,63,0
683.171,683.29297,61,63,0
683.171,683.29297,64,63,0
683.171,683.29297,70,63,0
683.171,683.29297,73,63,0
683.4149,683.54095,61,69,0
683.4149,683.54095,64,69,0
683.4149,683.54095,70,69,0
683.4149,683.54095,73,69,0
683.7815,683.89185,74,64,0
683.7815,683.89185,70,64,0
683.7815,683.89185,62,64,0
683.7815,683.89185,67,64,0
683.89185,684.01276,74,64,0
683.89185,684.01276,70,64,0
683.89185,684.01276,62,64,0
683.89185,684.01276,67,64,0
684.1337,684.244,70,66,0
684.1337,684.244,75,66,0
684.1337,684.244,67,66,0
684.1337,684.244,73,66,0
684.1337,684.244,63,66,0
684.46466,684.5766,87,67,0
684.46466,684.5766,99,80,0
684.5766,684.69855,87,67,0
684.5766,684.69855,99,80,0
684.8205,684.9455,87,71,0
684.8205,684.9455,99,83,0
685.9193,686.0321,63,63,0
685.9193,686.0321,67,63,0
685.9193,686.0321,73,63,0
685.9193,686.0321,75,63,0
686.0321,686.15405,63,63,0
686.0321,686.15405,67,63,0
686.0321,686.15405,73,63,0
686.0321,686.15405,75,63,0
686.276,686.40204,63,69,0
686.276,686.40204,67,69,0
686.276,686.40204,73,69,0
686.276,686.40204,75,69,0
686.64435,686.75464,67,32,0
686.64435,686.75464,76,54,0
686.64435,686.75464,73,32,0
686.64435,686.75464,64,32,0
686.75464,686.8968,67,32,0
686.75464,686.8968,76,54,0
686.75464,686.8968,73,32,0
686.75464,686.8968,64,32,0
687.01874,687.129,73,36,0
687.01874,687.129,77,61,0
687.01874,687.129,70,36,0
687.01874,687.129,65,36,0
687.3496,687.46155,89,31,0
687.3496,687.46155,101,53,0
687.46155,687.5835,89,31,0
687.46155,687.5835,101,53,0
687.70544,687.83044,89,36,0
687.70544,687.83044,101,62,0
688.0784,688.1895,77,29,0
688.0784,688.1895,89,50,0
688.1895,688.31244,77,29,0
688.1895,688.31244,89,50,0
688.4354,688.55835,77,35,0
688.4354,688.55835,89,59,0
688.6793,688.7893,53,53,0
688.7893,688.8982,52,54,0
688.8982,689.00574,51,55,0
689.00574,689.1122,50,57,0
688.6793,689.1122,65,56,0
689.1122,689.2175,49,58,0
689.2175,689.32184,48,60,0
689.32184,689.425,47,62,0
689.425,689.52704,46,63,0
689.52704,689.66345,45,64,0
690.1307,690.2426,81,31,0
690.1307,690.2426,93,53,0
690.2426,690.36456,81,31,0
690.2426,690.36456,93,53,0
690.4865,690.6115,81,36,0
690.4865,690.6115,93,62,0
690.85944,690.9706,69,29,0
690.85944,690.9706,81,50,0
690.9706,691.0935,69,29,0
690.9706,691.0935,81,50,0
691.2165,691.3394,69,35,0
691.2165,691.3394,81,59,0
691.4604,691.5704,57,53,0
691.5704,691.67926,56,54,0
691.67926,691.7868,55,55,0
691.7868,691.89325,54,57,0
691.4604,691.89325,69,56,0
691.89325,691.9986,53,58,0
691.9986,692.1029,52,60,0
692.1029,692.20605,51,62,0
692.20605,692.3081,50,63,0
692.3081,692.4445,49,64,0
692.91174,693.0237,85,31,0
692.91174,693.0237,97,53,0
693.0237,693.1456,85,31,0
693.0237,693.1456,97,53,0
693.2676,693.3926,85,36,0
693.2676,693.3926,97,62,0
693.6405,693.75165,73,29,0
693.6405,693.75165,85,50,0
693.75165,693.8746,73,29,0
693.75165,693.8746,85,50,0
694.24146,694.35144,61,53,0
694.35144,694.4603,60,54,0
694.4603,694.5679,59,55,0
694.5679,694.6743,58,57,0
694.24146,694.6743,73,56,0
694.6743,694.77966,57,58,0
694.77966,694.884,56,60,0
694.884,694.9871,53,62,0
694.9871,695.0892,50,63,0
695.0892,695.2255,49,64,0
695.6928,695.80475,73,31,0
695.6928,695.80475,85,53,0
695.80475,695.9267,73,31,0
695.80475,695.9267,85,53,0
696.04865,696.17365,73,36,0
696.04865,696.17365,85,62,0
696.4216,696.52026,61,29,0
696.4216,696.52026,73,50,0
696.52026,696.64325,61,29,0
696.52026,696.64325,73,50,0
697.0101,697.12036,49,36,0
697.12036,697.2323,48,33,0
697.2323,697.3486,47,32,0
697.3486,697.46484,46,31,0
697.46484,697.56604,45,30,0
697.56604,697.66724,44,30,0
697.66724,697.77057,43,29,0
697.77057,697.87036,42,29,0
697.87036,697.9678,41,28,0
697.9678,698.07227,40,27,0
698.07227,698.17847,39,27,0
698.17847,698.27716,90,36,0
698.17847,698.27716,78,36,0
698.17847,698.27716,84,36,0
698.27716,698.37585,89,38,0
698.37585,698.47455,88,39,0
698.47455,698.5731,87,39,0
698.5731,698.67114,86,40,0
698.67114,698.76917,85,40,0
698.76917,698.8672,84,41,0
698.8672,698.965,83,41,0
698.965,699.0624,82,42,0
699.0624,699.1598,81,42,0
699.1598,699.2572,80,43,0
699.2572,699.35425,79,43,0
699.35425,699.451,78,44,0
699.451,699.5478,77,46,0
699.5478,699.64453,76,47,0
699.64453,699.74133,75,49,0
699.74133,699.83813,74,50,0
699.83813,699.9349,73,51,0
699.9349,700.0317,72,53,0
700.0317,700.1284,71,54,0
700.1284,700.2272,70,55,0
700.2272,700.3287,69,56,0
700.3287,700.44305,68,57,0
700.44305,700.5664,66,59,0
700.5664,700.6864,73,69,0
700.5664,700.6864,65,58,0
700.5664,700.6864,61,58,0
700.9264,701.0383,85,54,0
700.9264,701.0383,89,54,0
700.9264,701.0383,97,64,0
701.0383,701.1546,85,54,0
701.0383,701.1546,89,54,0
701.0383,701.1546,97,64,0
701.27094,701.38995,85,59,0
701.27094,701.38995,89,59,0
701.27094,701.38995,97,70,0
701.63196,701.74304,73,55,0
701.63196,701.74304,77,55,0
701.63196,701.74304,85,65,0
701.74304,701.866,73,55,0
701.74304,701.866,77,55,0
701.74304,701.866,85,65,0
701.98895,702.10895,85,69,0
701.98895,702.10895,77,58,0
701.98895,702.10895,73,58,0
702.34894,702.4609,61,54,0
702.34894,702.4609,65,54,0
702.34894,702.4609,73,64,0
702.4609,702.5772,61,54,0
702.4609,702.5772,65,54,0
702.4609,702.5772,73,64,0
702.6935,702.8125,61,59,0
702.6935,702.8125,65,59,0
702.6935,702.8125,73,70,0
703.0545,703.16565,49,55,0
703.0545,703.16565,53,55,0
703.0545,703.16565,61,65,0
703.16565,703.2886,49,55,0
703.16565,703.2886,53,55,0
703.16565,703.2886,61,65,0
703.4066,703.5059,90,36,0
703.4066,703.5059,78,36,0
703.4066,703.5059,84,36,0
703.5059,703.6053,89,38,0
703.6053,703.7046,88,39,0
703.7046,703.8029,87,39,0
703.8029,703.90094,86,40,0
703.90094,703.99896,85,40,0
703.99896,704.09753,84,41,0
704.09753,704.1956,83,41,0
704.1956,704.29364,82,42,0
704.29364,704.39075,81,42,0
704.39075,704.4869,80,43,0
704.4869,704.583,79,43,0
704.583,704.66614,78,44,0
704.66614,704.7499,77,46,0
704.7499,704.8334,76,47,0
704.8334,704.9175,75,49,0
704.9175,705.00635,74,50,0
705.00635,705.11005,73,51,0
705.11005,705.25836,72,51,0
705.25836,705.35974,66,49,0
705.25836,705.35974,71,72,0
705.25836,705.35974,69,62,0
705.35974,705.4615,65,45,0
705.4615,705.56384,64,45,0
705.56384,705.6674,63,45,0
705.6674,705.7818,60,45,0
705.7818,705.96875,59,45,0
705.96875,706.06824,92,36,0
705.96875,706.06824,80,36,0
705.96875,706.06824,86,36,0
706.06824,706.16754,91,38,0
706.16754,706.2681,90,39,0
706.2681,706.36884,89,39,0
706.36884,706.4689,88,40,0
706.4689,706.56885,87,40,0
706.56885,706.6682,86,41,0
706.6682,706.76746,85,41,0
706.76746,706.86487,84,42,0
706.86487,706.9623,83,42,0
706.9623,707.0586,82,43,0
707.0586,707.15497,81,43,0
707.15497,707.2386,80,44,0
707.2386,707.32227,79,46,0
707.32227,707.40576,78,47,0
707.40576,707.48987,77,49,0
707.48987,707.57874,76,50,0
707.57874,707.68225,75,51,0
707.68225,707.829,74,51,0
707.829,707.93036,68,49,0
707.829,707.93036,73,74,0
707.829,707.93036,71,61,0
707.93036,708.0321,67,50,0
708.0321,708.13446,66,52,0
708.13446,708.238,65,54,0
708.238,708.3524,62,56,0
708.3524,708.4757,61,58,0
708.4757,708.5957,81,78,0
708.4757,708.5957,69,67,0
708.4757,708.5957,72,69,0
708.4757,708.5957,75,70,0
708.7135,708.8038,81,71,0
708.7135,708.8038,93,84,0
708.8934,708.9821,79,73,0
708.8934,708.9821,91,86,0
709.0701,709.15735,77,74,0
709.0701,709.15735,89,88,0
709.24384,709.3297,75,75,0
709.24384,709.3297,87,90,0
709.41486,709.4992,73,77,0
709.41486,709.4992,85,91,0
709.5834,709.6737,71,79,0
709.5834,709.6737,83,93,0
709.7641,709.8503,69,80,0
709.7641,709.8503,81,95,0
709.9365,710.02966,67,81,0
709.9365,710.02966,79,96,0
710.12286,710.21265,65,83,0
710.12286,710.21265,77,99,0
710.3025,710.3683,63,85,0
710.3025,710.3683,75,101,0
710.4341,710.4999,61,85,0
710.4341,710.4999,73,102,0
710.4999,710.6085,63,86,0
710.4999,710.6085,60,86,0
710.4999,710.6085,72,102,0
710.7172,710.8259,65,88,0
710.7172,710.8259,61,88,0
710.7172,710.8259,73,104,0
711.04333,711.1553,85,67,0
711.04333,711.1553,89,67,0
711.04333,711.1553,97,79,0
711.1553,711.27155,85,67,0
711.1553,711.27155,89,67,0
711.1553,711.27155,97,79,0
711.3878,711.5069,85,72,0
711.3878,711.5069,89,72,0
711.3878,711.5069,97,85,0
711.7404,711.8468,73,68,0
711.7404,711.8468,77,68,0
711.7404,711.8468,85,80,0
711.8468,711.9659,73,68,0
711.8468,711.9659,77,68,0
711.8468,711.9659,85,80,0
712.0849,712.1994,85,84,0
712.0849,712.1994,77,71,0
712.0849,712.1994,73,71,0
712.4284,712.5371,61,67,0
712.4284,712.5371,65,67,0
712.4284,712.5371,73,79,0
712.5371,712.6499,61,67,0
712.5371,712.6499,65,67,0
712.5371,712.6499,73,79,0
712.7627,712.87897,61,72,0
712.7627,712.87897,65,72,0
712.7627,712.87897,73,85,0
713.1115,713.2186,49,68,0
713.1115,713.2186,53,68,0
713.1115,713.2186,61,80,0
713.2186,713.3368,49,68,0
713.2186,713.3368,53,68,0
713.2186,713.3368,61,80,0
713.4549,713.56854,81,87,0
713.4549,713.56854,69,75,0
713.4549,713.56854,72,77,0
713.4549,713.56854,75,78,0
713.6768,713.7703,81,71,0
713.6768,713.7703,93,84,0
713.86273,713.9541,79,73,0
713.86273,713.9541,91,86,0
714.04443,714.1337,77,74,0
714.04443,714.1337,89,88,0
714.22205,714.30945,75,75,0
714.22205,714.30945,87,90,0
714.3959,714.4814,73,77,0
714.3959,714.4814,85,91,0
714.566,714.65784,71,79,0
714.566,714.65784,83,93,0
714.7498,714.83655,69,80,0
714.7498,714.83655,81,95,0
714.9232,715.01526,67,81,0
714.9232,715.01526,79,96,0
715.1073,715.1971,65,83,0
715.1073,715.1971,77,99,0
715.2869,715.3527,63,85,0
715.2869,715.3527,75,101,0
715.4185,715.4843,61,85,0
715.4185,715.4843,73,102,0
715.4843,715.593,63,86,0
715.4843,715.593,60,86,0
715.4843,715.593,72,102,0
715.7017,715.81036,65,88,0
715.7017,715.81036,61,88,0
715.7017,715.81036,73,104,0
716.0278,716.1397,85,67,0
716.0278,716.1397,89,67,0
716.0278,716.1397,97,79,0
716.1397,716.2542,85,67,0
716.1397,716.2542,89,67,0
716.1397,716.2542,97,79,0
716.3687,716.4859,85,72,0
716.3687,716.4859,89,72,0
716.3687,716.4859,97,85,0
716.7261,716.8356,73,68,0
716.7261,716.8356,77,68,0
716.7261,716.8356,85,80,0
716.8356,716.9501,73,68,0
716.8356,716.9501,77,68,0
716.8356,716.9501,85,80,0
717.0646,717.18176,85,84,0
717.0646,717.18176,77,71,0
717.0646,717.18176,73,71,0
717.41614,717.5248,61,67,0
717.41614,717.5248,65,67,0
717.41614,717.5248,73,79,0
717.5248,717.6393,61,67,0
717.5248,717.6393,65,67,0
717.5248,717.6393,73,79,0
717.75385,717.87286,61,72,0
717.75385,717.87286,65,72,0
717.75385,717.87286,73,85,0
718.11487,718.22595,49,68,0
718.11487,718.22595,53,68,0
718.11487,718.22595,61,80,0
718.22595,718.34894,49,68,0
718.22595,718.34894,53,68,0
718.22595,718.34894,61,80,0
718.4657,718.5538,54,54,0
718.4657,718.5538,66,64,0
718.66864,718.74976,56,56,0
718.66864,718.74976,68,66,0
718.85754,718.9354,58,57,0
718.85754,718.9354,70,68,0
719.0419,719.11804,60,59,0
719.0419,719.1188,72,70,0
719.22394,719.3,62,62,0
719.22394,719.3,74,73,0
719.40356,719.48,64,63,0
719.40356,719.48,76,75,0
719.6402,719.7247,73,71,0
719.6402,719.7247,78,84,0
719.6402,719.7247,66,71,0
719.6402,719.7247,70,71,0
719.8377,719.91754,64,64,0
719.8377,719.91754,76,76,0
720.0245,720.10016,62,62,0
720.0245,720.10016,74,73,0
720.20404,720.28033,60,60,0
720.20404,720.28033,72,71,0
720.3863,720.464,58,58,0
720.3863,720.464,70,69,0
720.5722,720.6538,56,56,0
720.5722,720.6538,68,67,0
720.77155,720.8946,54,55,0
720.77155,720.8946,66,65,0
720.8946,720.9989,55,54,0
720.8946,720.9989,62,54,0
720.8946,720.9989,59,54,0
720.8946,720.9989,67,64,0
721.0979,721.19275,57,56,0
721.0979,721.19275,69,66,0
721.2869,721.3807,59,57,0
721.2869,721.3807,71,68,0
721.4739,721.56665,61,59,0
721.4739,721.56665,73,70,0
721.659,721.75085,63,62,0
721.659,721.75085,75,73,0
721.84235,721.93335,65,63,0
721.84235,721.93335,77,75,0
722.02826,722.18005,79,76,0
722.02826,722.18005,67,63,0
722.18005,722.28143,75,71,0
722.18005,722.28143,80,84,0
722.18005,722.28143,68,71,0
722.18005,722.28143,72,71,0
722.37787,722.4699,66,64,0
722.37787,722.4699,78,76,0
722.5593,722.6491,64,62,0
722.5593,722.6491,76,73,0
722.7394,722.8298,62,60,0
722.7394,722.8298,74,71,0
722.921,723.0144,60,58,0
722.921,723.0144,72,69,0
723.11017,723.20844,58,56,0
723.11017,723.20844,70,67,0
723.3093,723.45636,56,55,0
723.3093,723.45636,68,65,0
723.45636,723.576,57,54,0
723.45636,723.576,66,54,0
723.45636,723.576,61,54,0
723.45636,723.576,69,64,0
723.68243,723.7845,59,56,0
723.68243,723.7845,71,66,0
723.8825,723.9784,61,57,0
723.8825,723.9784,73,68,0
724.07446,724.17,63,59,0
724.07446,724.17,75,70,0
724.2651,724.3598,65,62,0
724.2651,724.3598,77,73,0
724.4541,724.54785,67,63,0
724.4541,724.54785,79,75,0
724.6449,724.7891,81,76,0
724.6449,724.7891,69,63,0
724.7891,724.89844,76,71,0
724.7891,724.89844,79,71,0
724.7891,724.8993,70,71,0
724.7891,724.8993,82,84,0
724.99774,725.0887,68,64,0
724.99774,725.0887,80,76,0
725.17944,725.2714,66,62,0
725.17944,725.2714,78,73,0
725.364,725.45734,64,60,0
725.364,725.45734,76,71,0
725.5521,725.64874,62,58,0
725.5521,725.64874,74,69,0
725.7473,725.8478,60,56,0
725.7473,725.8478,72,67,0
725.9505,726.07654,58,55,0
725.9505,726.07654,70,65,0
726.07654,726.15656,71,57,0
726.07654,726.15656,67,43,0
726.07654,726.15656,59,43,0
726.15656,726.2365,60,46,0
726.2365,726.3165,61,46,0
726.3165,726.39655,62,46,0
726.39655,726.4739,63,46,0
726.4739,726.54846,64,47,0
726.54846,726.626,65,47,0
726.626,726.7035,66,47,0
726.7035,726.781,67,47,0
726.781,726.8604,68,47,0
726.8604,726.93976,69,48,0
726.93976,727.0191,70,48,0
727.0191,727.1011,71,48,0
727.1011,727.18085,72,48,0
727.18085,727.25836,73,48,0
727.25836,727.34033,74,49,0
727.34033,727.4223,75,49,0
727.4223,727.5043,76,49,0
727.5043,727.5849,77,49,0
727.5849,727.6655,78,49,0
727.6655,727.7462,79,50,0
727.7462,727.82684,80,51,0
727.82684,727.90564,81,52,0
727.90564,727.98254,82,53,0
727.98254,728.0613,83,54,0
728.0613,728.14,84,55,0
728.14,728.21875,85,56,0
728.21875,728.29944,86,57,0
728.29944,728.38007,87,57,0
728.38007,728.4607,88,58,0
728.4607,728.54474,89,59,0
728.54474,728.6255,90,60,0
728.6255,728.70306,91,61,0
728.70306,728.76715,92,62,0
728.76715,728.83124,93,62,0
728.83124,728.9013,94,63,0
728.9013,728.97144,95,64,0
728.97144,729.0659,93,64,0
728.97144,729.0659,96,97,0
729.0659,729.1604,92,54,0
729.0659,729.1604,95,64,0
729.1604,729.2549,91,53,0
729.1604,729.2549,94,63,0
729.2549,729.34814,90,52,0
729.2549,729.34814,93,62,0
729.34814,729.4377,89,51,0
729.34814,729.4377,92,61,0
729.4377,729.53296,88,51,0
729.4377,729.53296,91,60,0
729.53296,729.6282,87,50,0
729.53296,729.6282,90,59,0
729.6282,729.725,86,49,0
729.6282,729.725,89,58,0
729.725,729.8233,85,48,0
729.725,729.8233,88,57,0
729.8233,729.9217,84,47,0
729.8233,729.9217,87,56,0
729.9217,730.0234,83,46,0
729.9217,730.0234,86,55,0
730.0234,730.12024,82,46,0
730.0234,730.12024,85,55,0
730.12024,730.2191,81,45,0
730.12024,730.2191,84,54,0
730.2191,730.3217,80,45,0
730.2191,730.3217,83,53,0
730.3217,730.42426,79,44,0
730.3217,730.42426,82,52,0
730.42426,730.5069,78,44,0
730.42426,730.5069,81,52,0
730.5069,730.58954,77,44,0
730.5069,730.58954,80,52,0
730.58954,730.6722,76,43,0
730.58954,730.6722,79,51,0
730.6722,730.7548,75,43,0
730.6722,730.7548,78,51,0
730.7548,730.83466,74,42,0
730.7548,730.83466,77,50,0
730.83466,730.91156,73,42,0
730.83466,730.91156,76,50,0
730.91156,730.9909,72,41,0
730.91156,730.9909,75,49,0
730.9909,731.0703,71,41,0
730.9909,731.0703,74,49,0
731.0703,731.14966,70,40,0
731.0703,731.14966,73,48,0
731.14966,731.2303,69,40,0
731.14966,731.2303,72,48,0
731.2303,731.3109,68,39,0
731.2303,731.3109,71,47,0
731.3109,731.3916,67,39,0
731.3109,731.3916,70,47,0
731.3916,731.4736,66,39,0
731.3916,731.4736,69,46,0
731.4736,731.5533,65,39,0
731.4736,731.5533,68,46,0
731.5533,731.6308,64,38,0
731.5533,731.6308,67,45,0
731.6308,731.71277,63,38,0
731.6308,731.71277,66,45,0
731.71277,731.79474,62,37,0
731.71277,731.79474,65,44,0
731.79474,731.8767,61,37,0
731.79474,731.8767,64,44,0
731.8767,731.97974,60,48,0
731.8767,731.97974,63,57,0
731.97974,732.0817,61,39,0
731.97974,732.0817,64,46,0
732.0817,732.1837,62,39,0
732.0817,732.1847,65,46,0
732.1837,732.2834,66,46,0
732.1837,732.2834,63,39,0
732.2834,732.37964,67,46,0
732.2834,732.37964,64,39,0
732.37964,732.4795,65,39,0
732.37964,732.4795,68,47,0
732.4795,732.5783,66,39,0
732.4795,732.5783,69,47,0
732.5783,732.6804,67,39,0
732.5783,732.6804,70,47,0
732.67944,732.78064,68,39,0
732.67944,732.7816,71,47,0
732.7816,732.8849,72,48,0
732.7816,732.8849,69,40,0
732.8849,732.9878,70,40,0
732.8849,732.9878,73,48,0
732.9878,733.08826,71,40,0
732.9878,733.08826,74,48,0
733.08826,733.1938,72,40,0
733.08826,733.1938,75,48,0
733.19275,733.2983,73,40,0
733.19275,733.30444,76,48,0
733.30444,733.377,74,41,0
733.30444,733.377,77,49,0
733.377,733.4496,75,41,0
733.377,733.4496,78,49,0
733.4496,733.52216,76,42,0
733.4496,733.52216,79,50,0
733.52216,733.5948,77,43,0
733.52216,733.5948,80,51,0
733.5948,733.66736,78,44,0
733.5948,733.66736,81,52,0
733.66736,733.7366,79,45,0
733.66736,733.7366,82,53,0
733.7366,733.80634,80,45,0
733.7366,733.80634,83,54,0
733.80634,733.8772,81,46,0
733.80634,733.8772,84,55,0
733.8772,733.94806,82,47,0
733.8772,733.94806,85,56,0
733.94806,734.0189,83,48,0
733.94806,734.0189,86,57,0
734.0189,734.09155,84,48,0
734.0189,734.09155,87,57,0
734.09155,734.1641,85,49,0
734.09155,734.1641,88,58,0
734.1641,734.2367,86,50,0
734.1641,734.2367,89,59,0
734.2367,734.3113,87,51,0
734.2367,734.3113,90,60,0
734.3113,734.38696,88,51,0
734.3113,734.38696,91,61,0
734.38696,734.4567,89,52,0
734.38696,734.4567,92,62,0
734.4567,734.5289,90,53,0
734.4567,734.5289,93,63,0
734.5289,734.6058,91,55,0
734.5289,734.6058,94,65,0
734.6058,734.6875,92,56,0
734.6058,734.6875,95,66,0
734.6875,734.7716,93,60,0
734.6875,734.7716,96,71,0
734.7716,734.873,94,64,0
734.7716,734.873,97,97,0
734.873,734.9734,93,54,0
734.873,734.9734,96,64,0
734.97437,735.07477,92,53,0
734.97437,735.07477,95,63,0
735.07477,735.1735,91,52,0
735.07477,735.1735,94,62,0
735.1735,735.2716,90,51,0
735.1735,735.2716,93,61,0
735.2716,735.3728,89,51,0
735.2716,735.3728,92,60,0
735.3738,735.475,88,50,0
735.3738,735.475,91,59,0
735.475,735.5805,87,49,0
735.475,735.5805,90,58,0
735.5805,735.68604,86,48,0
735.5805,735.68604,89,57,0
735.68604,735.79285,85,47,0
735.68604,735.79285,88,56,0
735.79285,735.8986,84,46,0
735.79285,735.8986,87,55,0
735.8986,736.0033,83,46,0
735.8986,736.0033,86,55,0
736.0033,736.11224,82,45,0
736.0033,736.11224,85,54,0
736.11224,736.2244,84,53,0
736.11224,736.2244,81,45,0
736.2244,736.3258,82,59,0
736.2244,736.3258,85,70,0
736.3258,736.4262,84,60,0
736.3258,736.4262,81,51,0
736.4262,736.5266,83,59,0
736.4262,736.5266,80,50,0
736.5276,736.62634,82,59,0
736.5276,736.62634,79,50,0
736.62634,736.7244,78,49,0
736.62634,736.7244,81,58,0
736.72345,736.82465,80,57,0
736.7244,736.8256,77,48,0
736.82666,736.92786,76,47,0
736.82666,736.92786,79,56,0
736.92786,737.0323,78,56,0
736.92786,737.0333,75,47,0
737.0333,737.13885,74,46,0
737.0333,737.13885,77,55,0
737.13885,737.24567,73,45,0
737.13885,737.24567,76,54,0
737.24567,737.35144,75,53,0
737.24567,737.35144,72,45,0
737.35144,737.4561,71,44,0
737.35144,737.4561,74,52,0
737.4561,737.5651,73,52,0
737.4561,737.5651,70,44,0
737.5651,737.6773,69,43,0
737.5651,737.6773,72,51,0
737.6773,737.7787,70,51,0
737.6773,737.7787,73,61,0
737.7787,737.8791,72,55,0
737.7787,737.8791,69,46,0
737.8791,737.9795,68,45,0
737.88007,737.98047,71,54,0
737.98047,738.0792,70,53,0
737.98047,738.0792,67,45,0
738.0792,738.17633,66,45,0
738.0792,738.1773,69,53,0
738.17633,738.27747,68,52,0
738.1773,738.2785,65,44,0
738.2795,738.3807,64,43,0
738.2795,738.3807,67,51,0
738.3807,738.48517,66,50,0
738.3807,738.48615,63,42,0
738.48615,738.5917,62,41,0
738.48615,738.5917,65,49,0
738.5917,738.69855,61,40,0
738.5917,738.69855,64,48,0
738.69855,738.80426,63,47,0
738.69855,738.80426,60,39,0
738.80426,738.909,59,39,0
738.80426,738.909,62,46,0
738.909,739.01794,61,45,0
738.909,739.01794,58,38,0
739.01794,739.1301,57,38,0
739.01794,739.1301,60,45,0
739.1301,739.2396,58,71,0
739.2396,739.3491,57,53,0
739.1301,739.3491,61,71,0
739.3491,739.4586,58,53,0
739.4586,739.5681,57,53,0
739.3491,739.5681,61,53,0
739.5681,739.6776,58,53,0
739.6776,739.78705,57,53,0
739.5681,739.78705,61,53,0
739.78705,739.89655,58,53,0
739.89655,740.00604,57,53,0
739.78705,740.00604,61,53,0
740.00604,740.11554,58,53,0
740.11554,740.22504,57,53,0
740.00604,740.22504,61,53,0
740.22504,740.3361,58,53,0
740.3361,740.4591,57,53,0
740.22504,740.4591,61,53,0
740.4591,740.5678,58,71,0
740.5678,740.6765,57,53,0
740.4591,740.6765,61,71,0
740.6765,740.78516,58,53,0
740.78516,740.89386,57,53,0
740.6765,740.89386,61,53,0
740.89386,741.00256,58,53,0
741.00256,741.11127,57,53,0
740.89386,741.11127,61,53,0
741.11127,741.22577,58,53,0
741.22577,741.3403,57,53,0
741.11127,741.3403,63,70,0
741.3403,741.45654,58,53,0
741.45654,741.5728,57,53,0
741.3403,741.5728,63,53,0
741.5728,741.6891,58,53,0
741.6891,741.8054,60,53,0
741.5728,741.8054,63,53,0
741.8054,742.03265,57,77,0
741.8054,742.03265,53,77,0
741.8054,742.03265,65,77,0
742.03265,742.20605,64,75,0
742.03265,742.20605,52,75,0
742.20605,742.389,65,70,0
742.20605,742.389,53,70,0
742.389,742.5614,76,84,0
742.389,742.5614,64,84,0
742.5614,742.74,77,80,0
742.5614,742.74,65,80,0
742.74,742.9095,76,99,0
742.74,742.9095,88,99,0
742.9095,743.0881,89,97,0
742.9095,743.0881,77,97,0
743.0881,743.26044,64,82,0
743.0881,743.26044,76,82,0
743.26044,743.4434,77,79,0
743.26044,743.4434,65,79,0
743.4434,743.6158,64,76,0
743.4434,743.6158,52,76,0
743.6158,743.7987,65,74,0
743.6158,743.7987,53,74,0
743.7987,744.0161,53,76,0
744.0161,744.11163,94,69,0
744.0161,744.11163,97,82,0
744.11163,744.20605,93,54,0
744.11163,744.20605,96,64,0
744.20605,744.2999,92,54,0
744.20605,744.2999,95,64,0
744.2999,744.3933,91,53,0
744.2999,744.3933,94,63,0
744.3933,744.4861,90,52,0
744.3933,744.4861,93,62,0
744.4861,744.57837,89,52,0
744.4861,744.57837,92,62,0
744.57837,744.67,88,52,0
744.57837,744.67,91,61,0
744.67,744.76105,87,51,0
744.67,744.76105,90,60,0
744.76105,744.8516,86,51,0
744.76105,744.8516,89,60,0
744.8516,744.94165,85,51,0
744.8516,744.94165,88,59,0
744.94165,745.03125,84,50,0
744.94165,745.03125,87,59,0
745.03125,745.1202,83,50,0
745.03125,745.1202,86,59,0
745.1202,745.21106,82,49,0
745.1202,745.21106,85,58,0
745.21106,745.302,81,48,0
745.21106,745.302,84,57,0
745.302,745.3929,80,48,0
745.302,745.3929,83,57,0
745.3929,745.48376,79,47,0
745.3929,745.48376,82,57,0
745.48376,745.57306,78,47,0
745.48376,745.57306,81,56,0
745.57306,745.66235,77,47,0
745.57306,745.66235,80,56,0
745.66235,745.7567,76,46,0
745.66235,745.7567,79,55,0
745.66235,745.7567,73,46,0
745.7567,745.8678,72,45,0
745.7567,745.8678,75,54,0
745.8678,745.9593,70,45,0
745.8678,745.9593,74,54,0
745.9593,746.0507,69,44,0
745.9593,746.0507,72,53,0
746.0507,746.1422,68,43,0
746.0507,746.1422,71,52,0
746.1422,746.2043,67,43,0
746.1422,746.2043,70,52,0
746.2486,746.4759,81,94,0
746.23975,746.4759,72,81,0
746.23083,746.4759,65,77,0
746.4759,746.6493,76,75,0
746.4759,746.6493,64,75,0
746.6493,746.8322,77,71,0
746.6493,746.8322,65,71,0
746.8322,747.00464,88,88,0
746.8322,747.00464,76,88,0
747.00464,747.18317,89,83,0
747.00464,747.18317,77,83,0
747.18317,747.35266,88,101,0
747.18317,747.35266,100,101,0
747.35266,747.53125,101,98,0
747.35266,747.53125,89,98,0
747.53125,747.7037,76,82,0
747.53125,747.7037,88,82,0
747.7037,747.8866,89,79,0
747.7037,747.8866,77,79,0
747.8866,748.059,76,76,0
747.8866,748.059,64,76,0
748.059,748.24194,77,74,0
748.059,748.24194,65,74,0
748.24194,748.45935,53,76,0
748.45935,748.55536,94,69,0
748.45935,748.55536,97,82,0
748.55536,748.6504,93,54,0
748.55536,748.6504,96,64,0
748.6504,748.7449,92,54,0
748.6504,748.7449,95,64,0
748.7449,748.8388,91,53,0
748.7449,748.8388,94,63,0
748.8388,748.9322,90,52,0
748.8388,748.9322,93,62,0
748.9322,749.025,89,52,0
748.9322,749.025,92,62,0
749.025,749.1174,88,52,0
749.025,749.1174,91,61,0
749.1174,749.2091,87,51,0
749.1174,749.2091,90,60,0
749.2091,749.3004,86,51,0
749.2091,749.3004,89,60,0
749.3004,749.3912,85,51,0
749.3004,749.3912,88,59,0
749.3912,749.4814,84,50,0
749.3912,749.4814,87,59,0
749.4814,749.5711,83,50,0
749.4814,749.5711,86,59,0
749.5711,749.6637,82,49,0
749.5711,749.6637,85,58,0
749.6637,749.7563,81,48,0
749.6637,749.7563,84,57,0
749.7563,749.8489,80,48,0
749.7563,749.8489,83,57,0
749.8489,749.94147,79,47,0
749.8489,749.94147,82,57,0
749.94147,750.0313,78,47,0
749.94147,750.0313,81,56,0
750.0313,750.12115,77,47,0
750.0313,750.12115,80,56,0
750.12115,750.21545,76,46,0
750.12115,750.21545,79,55,0
750.12115,750.21545,73,46,0
750.21545,750.3266,72,45,0
750.21545,750.3266,75,54,0
750.3266,750.4175,70,45,0
750.3266,750.4175,74,54,0
750.4175,750.5084,69,44,0
750.4175,750.5084,72,53,0
750.5084,750.5993,68,43,0
750.5084,750.5993,71,52,0
750.5993,750.6614,67,43,0
750.5993,750.6614,70,52,0
750.7057,750.933,81,94,0
750.69684,750.933,72,81,0
750.688,750.933,65,77,0
750.933,751.1064,76,75,0
750.933,751.1064,64,75,0
751.1064,751.2893,77,71,0
751.1064,751.2893,65,71,0
751.2893,751.4679,88,88,0
751.2893,751.4679,76,88,0
751.4679,751.6748,89,83,0
751.4679,751.6748,77,83,0
751.6748,751.8725,88,102,0
751.6748,751.8725,100,102,0
751.8725,752.31366,101,98,0
751.8725,752.31366,89,98,0
752.31366,752.3789,53,58,0
752.3789,752.4401,54,59,0
752.441,752.5022,55,59,0
752.5022,752.563,56,60,0
752.563,752.62384,57,61,0
752.62384,752.6844,58,61,0
752.6844,752.7448,59,62,0
752.74567,752.806,60,63,0
752.806,752.866,61,64,0
752.866,752.9261,62,64,0
752.9261,752.9858,63,65,0
752.9858,753.0455,64,66,0
753.0455,753.1122,65,66,0
753.1122,754.60284,66,99,0
754.60284,756.09357,57,99,0
756.09357,757.5842,61,99,0
757.5842,759.0749,52,96,0
759.0749,759.2612,53,40,0
759.2612,759.4476,54,33,0
759.4476,759.6241,53,40,0
759.6241,759.80054,54,33,0
759.80054,759.9749,53,40,0
759.9749,760.14935,58,34,0
760.14935,760.3098,57,34,0
760.3098,760.47833,54,34,0
760.47833,760.6362,53,40,0
760.6362,760.81165,54,36,0
760.81165,760.98505,53,40,0
760.98505,761.1585,54,36,0
761.1585,761.328,53,40,0
761.328,761.4975,58,35,0
761.4975,761.6521,57,35,0
761.6521,761.8216,54,35,0
761.8216,761.97784,53,40,0
761.97784,762.1543,54,35,0
762.1543,762.32776,53,40,0
762.32776,762.50116,54,35,0
762.50116,762.6697,53,40,0
762.6697,762.8382,58,34,0
762.8382,762.99286,57,34,0
762.99286,763.16046,54,34,0
763.16046,763.3175,53,40,0
763.3175,763.49506,54,36,0
763.49506,763.66846,53,40,0
763.66846,763.84186,54,36,0
763.84186,764.00946,53,40,0
764.00946,764.17706,58,35,0
764.17706,764.3333,57,35,0
764.3333,764.5038,54,35,0
764.5038,764.6733,53,40,0
764.6733,764.8427,54,36,0
764.8427,765.00665,53,40,0
765.00665,765.1706,54,36,0
765.1706,765.33453,53,43,0
765.33453,765.4985,61,45,0
765.4985,765.667,58,42,0
765.667,765.8356,54,42,0
765.8356,766.0041,53,45,0
766.0041,766.17267,54,37,0
766.17267,766.3357,53,44,0
766.3357,766.4987,54,38,0
766.4987,766.66174,53,42,0
766.66174,766.8248,61,47,0
766.8248,766.9943,58,43,0
766.9943,767.1638,54,43,0
767.1638,767.3328,53,43,0
767.3328,767.5001,54,45,0
767.5001,767.6657,57,47,0
767.6657,767.82965,58,49,0
767.82965,767.992,60,53,0
767.992,768.15265,61,55,0
768.15265,768.3122,64,57,0
768.3122,768.4845,65,59,0
768.49115,768.65094,65,61,0
768.65094,768.81165,64,61,0
768.81165,768.97345,61,59,0
768.97345,769.1362,60,58,0
769.1362,769.3,58,56,0
769.3,769.46484,57,54,0
769.46484,769.63086,54,53,0
769.63086,769.8183,53,52,0
769.46484,769.8183,63,53,0
769.46484,769.8183,65,67,0
769.8183,769.9911,53,43,0
769.9911,770.162,54,45,0
770.162,770.33093,57,47,0
770.33093,770.498,58,49,0
769.8183,770.498,61,53,0
770.498,770.66315,60,53,0
770.66315,770.8266,61,55,0
769.8183,770.8266,65,64,0
770.8266,770.98816,64,57,0
770.98816,771.1619,65,67,0
771.33246,771.49603,64,61,0
771.49603,771.6619,61,59,0
771.6619,771.83026,60,58,0
771.1704,771.83026,65,68,0
771.83026,772.0011,58,56,0
772.0011,772.1745,57,54,0
772.1745,772.3499,54,53,0
772.3499,772.52576,53,52,0
771.83026,772.52576,65,68,0
771.83026,772.52576,63,62,0
772.52576,772.7027,53,43,0
772.7027,772.87805,54,45,0
772.87805,773.05194,57,47,0
773.05194,773.22424,58,49,0
772.52576,773.22424,61,53,0
773.22424,773.39514,60,53,0
773.39514,773.5646,61,55,0
772.52576,773.5646,65,64,0
773.5646,773.7326,64,57,0
773.7326,773.91235,65,67,0
774.0795,774.2452,64,61,0
774.2452,774.4124,61,59,0
774.4124,774.58136,60,58,0
773.91235,774.58136,65,68,0
774.7519,774.9241,56,54,0
774.9241,775.09796,55,54,0
775.09796,775.27435,54,54,0
774.58136,775.27435,53,62,0
774.58136,775.27435,65,68,0
774.58136,775.27435,59,56,0
775.44385,775.61334,56,58,0
775.61334,775.77637,55,57,0
775.77637,775.9488,54,57,0
775.27435,775.9488,53,65,0
775.27435,775.9488,65,72,0
775.27435,775.9488,59,59,0
776.1101,776.27136,56,61,0
776.27136,776.4327,55,61,0
776.4327,776.594,54,60,0
775.9488,776.594,53,70,0
775.9488,776.594,65,76,0
775.9488,776.594,60,63,0
776.7579,776.9218,56,65,0
776.9218,777.08575,55,64,0
777.08575,777.2497,54,64,0
776.594,777.2497,53,73,0
777.2497,777.4164,53,78,0
777.4164,777.583,56,78,0
776.594,777.583,62,66,0
776.594,777.583,65,80,0
777.583,777.75446,52,79,0
777.75446,777.9259,56,80,0
777.583,777.9259,64,87,0
777.583,777.9259,62,77,0
777.9259,778.11224,57,40,0
778.11224,778.2986,58,33,0
778.2986,778.47504,57,40,0
778.47504,778.6515,58,33,0
778.6515,778.823,57,40,0
778.823,778.9915,62,34,0
778.9915,779.147,61,34,0
779.147,779.3155,58,34,0
779.3155,779.47095,57,40,0
779.47095,779.6424,58,36,0
779.6424,779.81335,57,40,0
779.81335,779.9819,58,36,0
779.9819,780.1486,57,40,0
780.1486,780.31256,62,35,0
780.31256,780.46484,61,35,0
780.46484,780.62787,58,35,0
780.62787,780.7841,57,40,0
780.7841,780.95654,58,35,0
780.95654,781.12415,57,40,0
781.12415,781.29175,58,35,0
781.29175,781.4557,57,40,0
781.4557,781.61957,62,34,0
781.61957,781.7703,61,34,0
781.7703,781.93427,58,34,0
781.93427,782.08655,57,40,0
782.08655,782.25946,58,36,0
782.25946,782.4295,57,40,0
782.4295,782.5962,58,36,0
782.5962,782.7592,57,40,0
782.7592,782.92224,62,35,0
782.92224,783.0753,61,35,0
783.0753,783.2458,58,35,0
783.2458,783.41156,57,40,0
783.41156,783.5773,58,36,0
783.5773,783.7386,57,40,0
783.7386,783.89984,58,36,0
783.89984,784.06116,57,43,0
784.06116,784.2224,65,45,0
784.2224,784.38727,62,42,0
784.38727,784.5521,58,42,0
784.5521,784.7169,57,45,0
784.7169,784.8818,58,37,0
784.8818,785.04224,57,44,0
785.04224,785.20264,58,38,0
785.20264,785.36304,57,42,0
785.36304,785.5235,65,47,0
785.5235,785.693,62,43,0
785.693,785.8625,58,43,0
785.8625,786.0286,57,43,0
786.0286,786.1928,58,45,0
786.1928,786.3554,61,47,0
786.3554,786.51654,62,49,0
786.51654,786.6762,64,53,0
786.6762,786.8345,65,55,0
786.8345,786.9916,68,57,0
786.9916,787.1692,69,59,0
787.1692,787.32477,69,61,0
787.32477,787.4813,68,61,0
787.4813,787.639,65,59,0
787.639,787.7976,64,58,0
787.7976,787.95746,62,56,0
787.95746,788.11835,61,54,0
788.11835,788.2802,58,53,0
788.2802,788.4658,57,52,0
788.11835,788.4658,67,53,0
788.11835,788.4658,69,67,0
788.4658,788.6341,57,43,0
788.6341,788.8,58,45,0
788.8,788.96436,61,47,0
788.96436,789.1269,62,49,0
788.4658,789.1269,65,53,0
789.1269,789.288,64,53,0
789.288,789.4476,65,55,0
788.4658,789.4476,69,64,0
789.4476,789.6056,68,57,0
789.6056,789.76904,69,67,0
789.94525,790.10315,68,61,0
790.10315,790.2635,65,59,0
790.2635,790.42615,64,58,0
789.786,790.42615,69,68,0
790.42615,790.5912,62,56,0
790.5912,790.75885,61,54,0
790.75885,790.929,58,53,0
790.929,791.0874,57,52,0
790.42615,791.1019,69,68,0
790.42615,791.1019,67,62,0
791.1019,791.2753,57,43,0
791.2753,791.4472,58,45,0
791.4472,791.6173,61,47,0
791.6173,791.7858,62,49,0
791.1019,791.7858,69,64,0
791.1019,791.7858,65,53,0
791.7858,791.95294,64,53,0
791.95294,792.11835,65,55,0
792.11835,792.2823,68,57,0
792.2823,792.4448,69,67,0
792.627,792.7863,68,61,0
792.7863,792.94794,65,59,0
792.94794,793.11194,64,58,0
792.45996,793.11194,69,68,0
793.27844,793.4475,60,54,0
793.4475,793.619,59,54,0
793.619,793.7945,58,54,0
793.11194,793.7945,57,62,0
793.11194,793.7945,69,68,0
793.11194,793.7945,63,56,0
793.9612,794.1278,60,58,0
794.1278,794.2887,59,57,0
794.2887,794.4573,58,57,0
793.7945,794.4573,57,65,0
793.7945,794.4573,69,72,0
793.7945,794.4573,63,59,0
794.61597,794.7747,60,61,0
794.7747,794.9334,59,61,0
794.9334,795.09216,58,60,0
794.4573,795.09216,57,70,0
794.4573,795.09216,69,76,0
794.4573,795.09216,64,63,0
795.2526,795.413,60,65,0
795.413,795.5734,59,64,0
795.5734,795.7339,58,64,0
795.09216,795.7339,57,73,0
795.7339,795.8978,58,78,0
795.8978,796.06177,60,78,0
795.09216,796.06177,66,66,0
795.09216,796.06177,69,80,0
796.06177,796.23315,56,70,0
796.23315,796.4046,60,77,0
796.06177,796.4046,68,77,0
796.06177,796.4046,66,65,0
796.4046,796.7223,61,77,0
796.4046,796.7223,53,77,0
797.03906,797.35657,65,54,0
797.03906,797.35657,61,54,0
797.03906,797.35657,73,64,0
797.35657,797.43005,65,49,0
797.35657,797.43005,61,49,0
797.35657,797.43005,73,58,0
797.5036,797.5813,65,49,0
797.5036,797.5813,61,49,0
797.5036,797.5813,73,58,0
797.65906,797.7326,69,54,0
797.65906,797.7326,66,54,0
797.65906,797.7326,78,64,0
797.964,798.04254,69,49,0
797.964,798.04254,66,49,0
797.964,798.04254,78,58,0
798.27814,798.60425,69,54,0
798.27814,798.60425,66,54,0
798.27814,798.60425,78,63,0
798.60425,798.67773,73,49,0
798.60425,798.67773,69,49,0
798.60425,798.67773,81,58,0
798.7513,798.8294,69,49,0
798.7513,798.8294,66,49,0
798.7513,798.8294,78,58,0
798.90753,798.9811,68,54,0
798.90753,798.9811,65,54,0
798.90753,798.9811,77,63,0
799.21246,799.29584,65,49,0
799.21246,799.29584,61,49,0
799.21246,799.29584,73,58,0
799.54584,799.8633,77,59,0
799.54584,799.8633,73,59,0
799.54584,799.8633,85,70,0
799.8633,799.9368,77,53,0
799.8633,799.9368,73,53,0
799.8633,799.9368,85,63,0
800.0103,800.0881,77,53,0
800.0103,800.0881,73,53,0
800.0103,800.0881,85,63,0
800.1658,800.2393,81,59,0
800.1658,800.2393,78,59,0
800.1658,800.2393,90,70,0
800.4707,800.54926,81,53,0
800.4707,800.54926,78,53,0
800.4707,800.54926,90,63,0
800.78485,801.11096,81,59,0
800.78485,801.11096,78,59,0
800.78485,801.11096,90,69,0
801.11096,801.1845,85,53,0
801.11096,801.1845,81,53,0
801.11096,801.1845,93,63,0
801.258,801.3361,81,53,0
801.258,801.3361,78,53,0
801.258,801.3361,90,63,0
801.41425,801.4878,81,59,0
801.41425,801.4878,77,59,0
801.41425,801.4878,89,69,0
802.05255,802.37,69,54,0
802.05255,802.37,65,54,0
802.05255,802.37,77,64,0
802.37,802.44354,69,49,0
802.37,802.44354,65,49,0
802.37,802.44354,77,58,0
802.5171,802.5948,69,49,0
802.5171,802.5948,65,49,0
802.5171,802.5948,77,58,0
802.6725,802.74603,73,54,0
802.6725,802.74603,70,54,0
802.6725,802.74603,82,64,0
802.9775,803.0128,73,55,0
802.9775,803.0128,70,53,0
802.9775,803.0128,82,68,0
803.11896,803.15826,82,68,0
803.11896,803.15826,73,51,0
803.11896,803.15826,70,51,0
803.27606,803.6021,73,54,0
803.27606,803.6021,70,54,0
803.27606,803.6021,82,63,0
803.6021,803.67566,77,49,0
803.6021,803.67566,73,49,0
803.6021,803.67566,85,58,0
803.7492,803.82733,73,49,0
803.7492,803.82733,70,49,0
803.7492,803.82733,82,58,0
803.90546,803.97894,72,54,0
803.90546,803.97894,69,54,0
803.90546,803.97894,81,63,0
804.2104,804.2937,69,49,0
804.2104,804.2937,65,49,0
804.2104,804.2937,77,58,0
804.5437,804.8612,81,59,0
804.5437,804.8612,77,59,0
804.5437,804.8612,89,70,0
804.8612,804.9347,81,53,0
804.8612,804.9347,77,53,0
804.8612,804.9347,89,63,0
805.00824,805.08594,81,53,0
805.00824,805.08594,77,53,0
805.00824,805.08594,89,63,0
805.1637,805.23724,85,59,0
805.1637,805.23724,82,59,0
805.1637,805.23724,94,70,0
805.4686,805.5042,85,59,0
805.4686,805.5042,82,58,0
805.4686,805.5042,94,70,0
805.61084,805.6501,94,70,0
805.61084,805.6501,85,57,0
805.61084,805.6501,82,56,0
805.7679,806.094,85,59,0
805.7679,806.094,82,59,0
805.7679,806.094,94,69,0
806.094,806.1675,89,53,0
806.094,806.1675,85,53,0
806.094,806.1675,97,63,0
806.241,806.31915,85,53,0
806.241,806.31915,82,53,0
806.241,806.31915,94,63,0
806.3973,806.7022,84,62,0
806.3973,806.7022,81,62,0
806.3973,806.7022,93,74,0
806.7022,807.01636,84,67,0
806.7022,807.01636,96,79,0
806.7022,807.01636,93,67,0
806.7022,807.01636,89,67,0
807.01636,807.3209,85,68,0
807.01636,807.3209,97,81,0
807.01636,807.3209,94,68,0
807.01636,807.3209,89,68,0
807.3209,807.6209,89,67,0
807.3209,807.6209,94,79,0
807.3209,807.6209,82,67,0
807.3209,807.6209,85,67,0
807.6209,807.9279,89,68,0
807.6209,807.9279,93,80,0
807.6209,807.9279,81,68,0
807.6209,807.9279,84,68,0
807.9279,808.22943,84,67,0
807.9279,808.22943,96,79,0
807.9279,808.22943,93,67,0
807.9279,808.22943,89,67,0
808.22943,808.5294,85,71,0
808.22943,808.5294,97,84,0
808.22943,808.5294,94,71,0
808.22943,808.5294,89,71,0
808.5294,808.834,82,67,0
808.5294,808.834,94,79,0
808.5294,808.834,89,67,0
808.5294,808.834,85,67,0
808.834,809.1341,84,62,0
808.834,809.1341,89,62,0
808.834,809.1341,93,74,0
808.834,809.1341,81,62,0
809.1341,809.4376,89,67,0
809.1341,809.4376,101,79,0
809.1341,809.4376,96,67,0
809.1341,809.4376,93,67,0
809.4376,809.7052,89,68,0
809.4376,809.7052,101,81,0
809.4376,809.7052,97,68,0
809.4376,809.7052,94,68,0
809.7449,810.00464,101,82,0
809.72504,810.00464,94,78,0
809.7052,810.00464,85,75,0
810.04156,810.3459,101,84,0
810.0231,810.3459,93,81,0
810.00464,810.3459,84,77,0
810.3459,810.6469,89,67,0
810.3459,810.6469,101,79,0
810.3459,810.6469,96,67,0
810.3459,810.6469,93,67,0
810.6469,810.921,89,71,0
810.6469,810.921,101,84,0
810.6469,810.921,97,71,0
810.6469,810.921,94,71,0
810.9595,811.23193,101,87,0
810.94025,811.23193,94,84,0
810.921,811.23193,85,81,0
811.27167,811.5847,101,85,0
811.25183,811.5847,93,83,0
811.23193,811.5847,84,80,0
812.65265,812.8027,57,57,0
812.65265,812.8027,65,68,0
812.8027,812.9527,54,56,0
812.8027,812.9527,63,67,0
812.9527,813.10266,53,55,0
812.9527,813.10266,61,65,0
815.08813,815.23816,59,57,0
815.08813,815.23816,67,68,0
815.23816,815.3881,56,56,0
815.23816,815.3881,65,67,0
815.3881,815.53815,55,55,0
815.3881,815.53815,63,65,0
816.7645,816.9165,58,56,0
816.7645,816.9165,63,70,0
816.9165,817.0678,60,57,0
816.9165,817.0678,65,72,0
817.0678,817.2185,62,59,0
817.0678,817.2185,67,74,0
817.2185,817.3684,63,60,0
817.2185,817.3684,69,76,0
817.3684,817.5177,67,64,0
817.3684,817.5177,72,81,0
817.5177,817.66736,65,60,0
817.5177,817.66736,70,76,0
817.66736,817.81757,63,59,0
817.66736,817.81757,69,74,0
817.81757,817.9683,62,57,0
817.81757,817.9683,67,72,0
817.9683,818.1198,60,56,0
817.9683,818.1198,65,70,0
818.1198,818.2717,58,54,0
818.1198,818.2717,63,68,0
818.2717,818.42426,57,52,0
818.2717,818.42426,62,66,0
818.42426,818.5774,55,51,0
818.42426,818.5774,60,64,0
818.5774,818.732,63,72,0
818.5774,818.732,58,50,0
818.732,818.8859,65,65,0
818.732,818.8859,60,52,0
818.8859,819.0392,67,67,0
818.8859,819.0392,62,53,0
819.0392,819.1918,69,69,0
819.0392,819.1918,63,55,0
819.1918,819.34375,65,56,0
819.1918,819.34375,70,70,0
819.34375,819.49506,67,57,0
819.34375,819.49506,72,72,0
819.49506,819.6457,69,59,0
819.49506,819.6457,74,74,0
819.6457,819.79565,70,60,0
819.6457,819.79565,75,76,0
819.79565,819.9449,74,64,0
819.79565,819.9449,79,81,0
819.9449,820.0946,72,60,0
819.9449,820.0946,77,76,0
820.0946,820.2448,70,59,0
820.0946,820.2448,75,74,0
820.2448,820.40607,69,57,0
820.2448,820.40607,74,72,0
820.40607,820.55536,75,64,0
820.40607,820.55536,84,81,0
820.40607,820.55536,72,64,0
820.55536,820.705,70,60,0
820.55536,820.705,82,76,0
820.55536,820.705,74,60,0
820.705,820.8552,72,59,0
820.705,820.8552,81,74,0
820.705,820.8552,69,59,0
820.8552,821.0174,70,57,0
820.8552,821.0174,79,72,0
820.8552,821.0174,67,57,0
821.0174,821.1666,79,64,0
821.0174,821.1666,87,81,0
821.0174,821.1666,75,64,0
821.1666,821.31635,74,60,0
821.1666,821.31635,86,76,0
821.1666,821.31635,77,60,0
821.31635,821.46655,75,59,0
821.31635,821.46655,84,74,0
821.31635,821.46655,72,59,0
821.46655,821.6261,74,57,0
821.46655,821.6261,82,72,0
821.46655,821.6261,70,57,0
821.6261,821.7754,82,64,0
821.6261,821.7754,91,81,0
821.6261,821.7754,79,64,0
821.7754,821.92505,77,60,0
821.7754,821.92505,89,76,0
821.7754,821.92505,81,60,0
821.92505,822.07526,79,59,0
821.92505,822.07526,87,74,0
821.92505,822.07526,75,59,0
822.07526,822.2457,77,57,0
822.07526,822.2457,86,72,0
822.07526,822.2457,74,57,0
822.2457,822.39496,87,64,0
822.2457,822.39496,96,81,0
822.2457,822.39496,84,64,0
822.39496,822.5447,82,60,0
822.39496,822.5447,94,76,0
822.39496,822.5447,86,60,0
822.5447,822.6949,84,59,0
822.5447,822.6949,93,74,0
822.5447,822.6949,81,59,0
822.6949,822.8819,82,57,0
822.6949,822.8819,91,72,0
822.6949,822.8819,79,57,0
822.8819,823.03186,87,63,0
822.8819,823.03186,91,63,0
822.8819,823.03186,99,75,0
823.03186,823.1746,89,63,0
823.03186,823.1746,86,63,0
823.03186,823.1746,98,75,0
823.1746,823.31116,84,63,0
823.1746,823.31116,87,63,0
823.1746,823.31116,96,75,0
823.31116,823.44165,82,63,0
823.31116,823.44165,86,63,0
823.31116,823.44165,94,75,0
823.44165,823.5668,84,62,0
823.44165,823.5668,81,62,0
823.44165,823.5668,93,74,0
823.5668,823.6871,82,62,0
823.5668,823.6871,79,62,0
823.5668,823.6871,91,74,0
823.6871,823.80255,81,62,0
823.6871,823.80255,77,62,0
823.6871,823.80255,89,74,0
823.80255,823.91394,79,62,0
823.80255,823.91394,75,62,0
823.80255,823.91394,87,74,0
823.91394,824.0182,74,62,0
823.91394,824.0182,77,62,0
823.91394,824.0182,86,74,0
824.0182,824.1209,75,62,0
824.0182,824.1209,72,62,0
824.0182,824.1209,84,73,0
824.1209,824.2231,74,62,0
824.1209,824.2231,70,62,0
824.1209,824.2231,82,73,0
824.2231,824.32983,72,62,0
824.2231,824.32983,69,62,0
824.2231,824.32983,81,73,0
824.32983,824.4451,70,64,0
824.32983,824.4451,67,64,0
824.32983,824.4451,79,76,0
824.4451,824.588,69,56,0
824.4451,824.588,65,56,0
824.4451,824.588,77,67,0
824.588,824.7269,68,65,0
824.588,824.7269,64,65,0
824.588,824.7269,76,77,0
824.7269,824.88434,69,59,0
824.7269,824.88434,65,59,0
824.7269,824.88434,77,70,0
824.88434,825.0105,68,56,0
824.88434,825.0105,64,56,0
824.88434,825.0105,76,77,0
825.0105,825.1327,69,56,0
825.0105,825.1327,65,56,0
825.0105,825.1327,77,67,0
825.1327,825.25116,70,57,0
825.1327,825.25116,66,57,0
825.1327,825.25116,78,68,0
825.25116,825.3667,71,58,0
825.25116,825.3667,67,58,0
825.25116,825.3667,79,69,0
825.3667,825.48004,72,58,0
825.3667,825.48004,68,58,0
825.3667,825.48004,80,69,0
825.48004,825.59045,73,59,0
825.48004,825.59045,69,59,0
825.48004,825.59045,81,70,0
825.59045,825.6983,74,60,0
825.59045,825.6983,70,60,0
825.59045,825.6983,82,71,0
825.6983,825.80347,75,60,0
825.6983,825.80347,71,60,0
825.6983,825.80347,83,71,0
825.80347,825.9063,84,72,0
825.80347,825.9063,76,60,0
825.80347,825.9063,72,60,0
825.9063,826.0067,77,61,0
825.9063,826.0067,73,61,0
825.9063,826.0067,85,72,0
826.0067,826.1054,78,61,0
826.0067,826.1054,74,61,0
826.0067,826.1054,86,72,0
826.1054,826.20337,79,62,0
826.1054,826.20337,75,62,0
826.1054,826.20337,87,73,0
826.20337,826.3006,80,62,0
826.20337,826.3006,76,62,0
826.20337,826.3006,88,74,0
826.3006,826.3967,81,62,0
826.3006,826.3967,77,62,0
826.3006,826.3967,89,74,0
826.3967,826.49207,82,63,0
826.3967,826.49207,78,63,0
826.3967,826.49207,90,75,0
826.49207,826.5868,83,64,0
826.49207,826.5868,79,64,0
826.49207,826.5868,91,76,0
826.5868,826.68054,84,64,0
826.5868,826.68054,80,64,0
826.5868,826.68054,92,76,0
826.68054,826.77344,85,65,0
826.68054,826.77344,81,65,0
826.68054,826.77344,93,77,0
826.77344,826.8657,86,66,0
826.77344,826.8657,82,66,0
826.77344,826.8657,94,78,0
826.8657,826.95715,87,66,0
826.8657,826.95715,83,66,0
826.8657,826.95715,95,78,0
826.95715,827.0477,88,67,0
826.95715,827.0477,84,67,0
826.95715,827.0477,96,79,0
827.0477,827.13776,89,68,0
827.0477,827.13776,85,68,0
827.0477,827.13776,97,80,0
827.13776,827.2438,90,68,0
827.13776,827.2438,86,68,0
827.13776,827.2438,98,80,0
827.2438,827.45245,91,75,0
827.2438,827.45245,87,68,0
827.2438,827.45245,99,92,0
828.33826,829.28314,87,85,0
828.33826,829.28314,75,85,0
829.28314,830.1384,79,76,0
829.28314,830.1384,67,76,0
830.3521,830.4492,81,72,0
830.26996,830.4492,75,56,0
830.20416,830.4492,72,49,0
830.4492,830.54486,77,28,0
830.4492,830.54486,74,28,0
830.4492,830.54486,82,35,0
830.54486,830.6391,75,28,0
830.54486,830.6391,72,28,0
830.54486,830.6391,81,36,0
830.6391,830.73206,77,28,0
830.6391,830.73206,74,28,0
830.6391,830.73206,82,36,0
830.73206,830.8241,75,29,0
830.1384,830.8241,65,37,0
830.73206,830.8241,81,37,0
830.73206,830.8241,72,29,0
830.8241,830.9149,77,30,0
830.8241,830.9149,74,30,0
830.8241,830.9149,82,38,0
830.9149,831.00446,75,30,0
830.9149,831.00446,72,30,0
830.9149,831.00446,81,38,0
831.00446,831.09265,77,31,0
831.00446,831.09265,74,31,0
831.00446,831.09265,82,39,0
831.09265,831.1799,75,31,0
831.09265,831.1799,72,31,0
831.09265,831.1799,81,39,0
831.1799,831.26624,77,32,0
831.1799,831.26624,74,32,0
831.1799,831.26624,82,40,0
831.26624,831.3513,75,32,0
831.26624,831.3513,72,32,0
831.26624,831.3513,81,40,0
831.3513,831.4353,77,32,0
831.3513,831.4353,74,32,0
831.3513,831.4353,82,41,0
831.4353,831.5186,75,32,0
831.4353,831.5186,72,32,0
831.4353,831.5186,81,41,0
831.5186,831.6009,77,33,0
831.5186,831.6009,74,33,0
831.5186,831.6009,82,42,0
831.6009,831.68207,75,33,0
831.6009,831.68207,72,33,0
831.6009,831.68207,81,42,0
831.68207,831.7621,77,34,0
831.68207,831.7621,74,34,0
831.68207,831.7621,82,43,0
831.7621,831.8394,75,36,0
831.7621,831.8394,72,36,0
831.7621,831.8394,81,45,0
831.8394,831.9164,77,36,0
831.8394,831.9164,74,36,0
831.8394,831.9164,82,45,0
831.9164,831.9928,75,36,0
831.9164,831.9928,72,36,0
831.9164,831.9928,81,46,0
831.9928,832.06854,77,37,0
831.9928,832.06854,74,37,0
831.9928,832.06854,82,47,0
832.06854,832.1437,75,37,0
832.06854,832.1437,72,37,0
832.06854,832.1437,81,47,0
832.1437,832.2182,77,38,0
832.1437,832.2182,74,38,0
832.1437,832.2182,82,48,0
832.2182,832.2922,75,39,0
832.2182,832.2922,72,39,0
832.2182,832.2922,81,49,0
832.2922,832.36566,77,39,0
832.2922,832.36566,74,39,0
832.2922,832.36566,82,49,0
832.36566,832.4385,75,40,0
832.36566,832.4385,72,40,0
832.36566,832.4385,81,50,0
832.4385,832.5113,77,40,0
832.4385,832.5113,74,40,0
832.4385,832.5113,82,51,0
832.5113,832.5841,75,40,0
832.5113,832.5841,72,40,0
832.5113,832.5841,81,51,0
832.5841,832.6569,77,41,0
832.5841,832.6569,74,41,0
832.5841,832.6569,82,52,0
832.6569,832.72974,75,41,0
832.6569,832.72974,72,41,0
832.6569,832.72974,81,52,0
832.72974,832.80255,77,42,0
832.72974,832.80255,74,42,0
832.72974,832.80255,82,53,0
832.80255,832.87537,75,43,0
832.80255,832.87537,72,43,0
832.80255,832.87537,81,54,0
832.87537,832.9475,77,43,0
832.87537,832.9475,74,43,0
832.87537,832.9475,82,54,0
832.9475,833.01874,72,44,0
832.9475,833.01874,75,44,0
832.9475,833.01874,81,55,0
833.01874,833.08923,74,44,0
833.01874,833.08923,77,44,0
833.01874,833.08923,82,56,0
833.08923,833.1593,75,44,0
833.08923,833.1593,72,44,0
833.08923,833.1593,81,56,0
833.1593,833.22943,74,45,0
833.1593,833.22943,77,45,0
833.1593,833.22943,82,57,0
833.22943,833.2995,75,46,0
833.22943,833.2995,72,46,0
833.22943,833.2995,81,58,0
833.2995,833.3696,77,46,0
833.2995,833.3696,74,46,0
833.2995,833.3696,82,58,0
833.3696,833.4397,75,47,0
833.3696,833.4397,72,47,0
833.3696,833.4397,81,59,0
833.4397,833.50977,74,48,0
833.4397,833.50977,77,48,0
833.4397,833.50977,82,60,0
833.50977,833.58057,72,48,0
833.50977,833.58057,75,48,0
833.50977,833.58057,81,61,0
833.58057,833.6557,77,48,0
833.58057,833.6557,74,48,0
833.58057,833.6557,82,60,0
833.6557,833.7357,75,47,0
833.6557,833.7357,72,47,0
833.6557,833.7357,81,59,0
833.7357,833.8174,74,46,0
833.7357,833.8174,77,46,0
833.7357,833.8174,82,58,0
833.8174,833.90137,75,45,0
833.8174,833.90137,72,45,0
833.8174,833.90137,81,57,0
833.90137,833.98755,74,44,0
833.90137,833.98755,77,44,0
833.90137,833.98755,82,56,0
833.98755,834.0762,75,44,0
833.98755,834.0762,72,44,0
833.98755,834.0762,81,55,0
834.0762,834.1685,74,43,0
834.0762,834.1685,77,43,0
834.0762,834.1685,82,54,0
834.1685,834.26355,72,42,0
834.1685,834.26355,75,42,0
834.1685,834.26355,81,53,0
834.26355,834.36163,74,40,0
834.26355,834.36163,77,40,0
834.26355,834.36163,82,51,0
834.36163,834.4628,75,40,0
834.36163,834.4628,72,40,0
834.36163,834.4628,81,50,0
834.4628,834.56726,77,39,0
834.4628,834.56726,74,39,0
834.4628,834.56726,82,49,0
834.56726,834.6754,75,38,0
834.56726,834.6754,72,38,0
834.56726,834.6754,81,48,0
834.6754,834.78735,77,37,0
834.6754,834.78735,74,37,0
834.6754,834.78735,82,47,0
834.78735,834.9034,75,36,0
834.78735,834.9034,72,36,0
834.78735,834.9034,81,45,0
834.9034,835.0239,77,35,0
834.9034,835.0239,74,35,0
834.9034,835.0239,82,44,0
835.0239,835.1492,72,34,0
835.0239,835.1492,75,34,0
835.0239,835.1492,81,43,0
835.1492,835.27954,77,33,0
835.1492,835.27954,74,33,0
835.1492,835.27954,82,42,0
835.27954,835.41565,75,32,0
835.27954,835.41565,72,32,0
835.27954,835.41565,81,41,0
835.41565,835.55774,77,32,0
835.41565,835.55774,74,32,0
835.41565,835.55774,82,40,0
835.55774,835.7067,72,31,0
835.55774,835.7067,75,31,0
835.55774,835.7067,81,39,0
835.7067,835.863,77,30,0
835.7067,835.863,74,30,0
835.7067,835.863,82,38,0
835.863,836.0272,75,29,0
835.863,836.0272,72,29,0
835.863,836.0272,81,37,0
836.0272,836.19366,77,28,0
836.0272,836.19366,74,28,0
836.0272,836.19366,82,36,0
836.19366,836.5183,72,32,0
836.19366,836.5183,75,32,0
836.19366,836.5183,81,40,0
836.5183,836.8501,77,33,0
836.5183,836.8501,74,33,0
836.5183,836.8501,82,42,0
836.8501,837.20013,72,28,0
836.8501,837.20013,75,28,0
836.8501,837.20013,81,35,0
837.20013,837.6079,71,32,0
837.20013,837.6079,74,32,0
837.20013,837.6079,80,40,0
837.6079,838.21765,75,28,0
837.6079,838.21765,72,28,0
837.6079,838.21765,81,35,0
838.21765,838.29266,70,56,0
838.3676,838.4426,74,38,0
838.3676,838.4426,77,44,0
838.21765,838.51764,82,76,0
838.51764,838.58374,70,53,0
838.51764,838.58374,82,66,0
838.6498,838.7341,74,41,0
838.6498,838.7341,77,48,0
838.6498,838.7341,82,68,0
838.81836,838.8891,74,53,0
838.81836,838.8891,86,76,0
838.95984,839.0306,77,48,0
838.95984,839.0306,82,60,0
839.1014,839.18243,70,53,0
839.26355,839.3446,77,48,0
839.26355,839.3446,74,36,0
839.1014,839.42566,82,60,0
839.42566,839.49994,65,53,0
839.5742,839.64844,74,44,0
839.5742,839.64844,70,38,0
839.42566,839.7227,77,73,0
839.7227,839.79,65,53,0
839.7227,839.79,77,63,0
839.85724,839.9366,70,41,0
839.85724,839.9366,74,48,0
839.85724,839.9366,77,64,0
840.016,840.0874,70,53,0
840.016,840.0874,82,72,0
840.1588,840.2303,74,48,0
840.1588,840.2303,77,60,0
840.3017,840.3855,65,53,0
840.4693,840.5531,74,48,0
840.4693,840.5531,70,36,0
840.3017,840.6369,77,60,0
840.6369,840.7123,62,56,0
840.78766,840.86304,70,46,0
840.78766,840.86304,65,39,0
840.6369,840.9384,74,77,0
840.9384,841.0088,62,61,0
840.9384,841.0088,74,62,0
841.0792,841.1535,63,55,0
841.0792,841.1535,75,62,0
841.2277,841.302,67,51,0
841.3763,841.4505,74,46,0
841.3763,841.4505,70,34,0
841.2277,841.5248,79,69,0
841.5248,841.60333,65,51,0
841.6818,841.7604,74,46,0
841.6818,841.7604,70,34,0
841.5248,841.8389,77,57,0
841.8389,841.9147,65,53,0
841.9904,842.06616,72,46,0
841.9904,842.06616,69,39,0
841.8389,842.14197,77,75,0
842.14197,842.21375,67,56,0
842.14197,842.21375,79,57,0
842.28546,842.3632,69,50,0
842.28546,842.3632,81,57,0
842.4409,842.51447,70,51,0
842.588,842.6615,77,46,0
842.588,842.6615,74,34,0
842.4409,842.73505,82,69,0
842.73505,842.81195,70,51,0
842.8889,842.9798,77,46,0
842.8889,842.9798,74,34,0
843.0707,843.1453,70,53,0
843.22,843.2946,74,38,0
843.22,843.2946,77,44,0
843.0707,843.3692,82,78,0
843.3692,843.43585,70,53,0
843.3692,843.43585,82,64,0
843.50256,843.58704,74,41,0
843.50256,843.58704,77,48,0
843.50256,843.58704,82,64,0
843.6716,843.743,74,53,0
843.6716,843.743,86,78,0
843.8144,843.88586,77,48,0
843.8144,843.88586,82,62,0
843.9573,844.0383,70,53,0
844.11945,844.2005,77,48,0
844.11945,844.2005,74,36,0
843.9573,844.2816,82,62,0
844.2816,844.35583,65,53,0
844.4301,844.5044,74,44,0
844.4301,844.5044,70,38,0
844.2816,844.5786,77,77,0
844.5786,844.6459,65,53,0
844.5786,844.6459,77,63,0
844.71313,844.7947,70,41,0
844.71313,844.7947,74,48,0
844.71313,844.7947,77,63,0
844.8762,844.94727,70,53,0
844.8762,844.94727,82,75,0
845.0184,845.0895,74,48,0
845.0184,845.0895,77,62,0
845.1606,845.2412,65,53,0
845.32184,845.4025,74,48,0
845.32184,845.4025,70,36,0
845.1606,845.48315,77,62,0
845.48315,845.55817,62,56,0
845.6331,845.7081,65,39,0
845.6331,845.7081,70,44,0
845.48315,845.78314,74,77,0
845.78314,845.8523,62,61,0
845.78314,845.8523,74,62,0
845.9214,845.99384,63,55,0
845.9214,845.99384,75,62,0
846.06635,846.1402,67,51,0
846.2141,846.288,74,46,0
846.2141,846.288,70,34,0
846.06635,846.3619,79,69,0
846.3619,846.4404,65,51,0
846.519,846.5975,74,46,0
846.519,846.5975,70,34,0
846.3619,846.676,77,57,0
846.676,846.7518,65,56,0
846.8275,846.9033,72,46,0
846.8275,846.9033,69,39,0
846.676,846.97906,77,77,0
846.97906,847.05115,67,56,0
846.97906,847.05115,79,57,0
847.1233,847.2002,69,50,0
847.1233,847.2002,81,57,0
847.27716,847.3503,70,51,0
847.42346,847.49664,77,46,0
847.42346,847.49664,74,34,0
847.27716,847.5698,82,69,0
847.5698,847.6475,70,51,0
847.72485,847.8022,77,46,0
847.72485,847.8022,74,34,0
847.8795,847.95526,70,53,0
848.031,848.10675,74,38,0
848.031,848.10675,77,44,0
847.8795,848.1825,82,78,0
848.1825,848.2529,72,53,0
848.1825,848.2529,84,61,0
848.32336,848.3984,74,48,0
848.32336,848.3984,86,61,0
848.4734,848.5459,72,49,0
848.6187,848.6915,81,44,0
848.6187,848.6915,77,38,0
848.4734,848.76434,84,71,0
848.76434,848.8419,69,49,0
848.9197,848.9974,72,33,0
848.9197,848.9974,77,44,0
848.76434,849.0751,81,57,0
849.0751,849.1502,67,53,0
849.2256,849.30096,72,38,0
849.2256,849.30096,76,44,0
849.0751,849.37634,79,76,0
849.37634,849.4471,69,53,0
849.37634,849.4471,81,60,0
849.5179,849.5936,70,48,0
849.5179,849.5936,82,60,0
849.6694,849.7422,69,49,0
849.815,849.8878,77,44,0
849.815,849.8878,72,38,0
849.6694,849.96063,81,67,0
849.96063,850.0372,65,49,0
850.1137,850.19025,69,33,0
850.1137,850.19025,72,44,0
849.96063,850.2668,77,57,0
850.2668,850.3419,72,52,0
850.41724,850.4926,77,38,0
850.41724,850.4926,81,44,0
850.2668,850.568,84,74,0
850.568,850.6388,72,53,0
850.568,850.6388,84,61,0
850.70953,850.7849,81,48,0
850.70953,850.7849,84,61,0
850.70953,850.7849,77,44,0
850.86,850.93317,71,53,0
851.00635,851.0796,77,48,0
851.00635,851.0796,74,41,0
850.86,851.1531,83,69,0
851.1531,851.2266,70,53,0
851.30035,851.3765,72,36,0
851.30035,851.3765,76,48,0
851.1531,851.4513,82,62,0
851.4513,851.525,69,45,0
851.5991,851.6737,77,40,0
851.5991,851.6737,72,34,0
851.4513,851.7488,81,58,0
851.7488,851.82434,68,45,0
851.9003,851.9768,72,29,0
851.9003,851.9768,77,40,0
851.7488,852.05383,80,52,0
852.05383,852.13135,67,45,0
852.20905,852.2868,76,40,0
852.20905,852.2868,72,34,0
852.3645,852.44226,67,45,0
852.51996,852.59766,72,29,0
852.51996,852.59766,76,40,0
852.05383,852.6754,79,58,0
852.6754,852.74963,67,53,0
852.8239,852.8982,72,38,0
852.8239,852.8982,76,44,0
852.6754,852.9724,79,78,0
852.9724,853.04254,67,53,0
852.9724,853.04254,79,70,0
853.1126,853.188,72,41,0
853.1126,853.188,79,70,0
853.1126,853.188,76,44,0
853.26337,853.3355,67,49,0
853.4076,853.47974,77,44,0
853.4076,853.47974,74,38,0
853.26337,853.5518,79,71,0
853.5518,853.62933,67,49,0
853.7071,853.7848,74,33,0
853.7071,853.7848,77,44,0
853.5518,853.8625,79,63,0
853.8625,853.92224,79,71,0
853.8625,853.93713,67,49,0
853.92224,853.98193,81,58,0
853.98193,854.0416,79,58,0
854.0118,854.08636,74,44,0
854.0416,854.1013,78,59,0
854.1013,854.161,79,59,0
854.161,854.23145,69,49,0
854.161,854.23145,81,64,0
854.3019,854.37683,71,44,0
854.3019,854.37683,83,64,0
854.45184,854.5236,72,49,0
854.5954,854.6672,79,44,0
854.5954,854.6672,76,38,0
854.45184,854.73895,84,71,0
854.73895,854.81506,67,49,0
854.89124,854.96735,72,33,0
854.89124,854.96735,76,44,0
854.73895,855.0435,79,63,0
855.0435,855.1029,79,71,0
855.0435,855.1178,67,49,0
855.1029,855.16235,81,58,0
855.16235,855.22174,79,58,0
855.192,855.2663,74,44,0
855.22174,855.2811,78,59,0
855.2811,855.3405,79,59,0
855.3405,855.41095,69,49,0
855.3405,855.41095,81,64,0
855.4814,855.5564,71,44,0
855.4814,855.5564,83,64,0
855.6314,855.70386,72,49,0
855.7763,855.84875,79,44,0
855.7763,855.84875,76,38,0
855.6314,855.92126,84,71,0
855.92126,855.9981,67,49,0
856.0758,856.1535,72,33,0
856.0758,856.1535,76,44,0
855.92126,856.23126,79,63,0
856.23126,856.29065,79,71,0
856.23126,856.3055,67,49,0
856.29065,856.35004,81,58,0
856.35004,856.4095,79,58,0
856.37976,856.45404,74,44,0
856.4095,856.4689,78,59,0
856.4689,856.52826,79,59,0
856.52826,856.60077,69,49,0
856.52826,856.60077,81,64,0
856.6732,856.7493,71,44,0
856.6732,856.7493,83,64,0
856.99023,857.06793,79,65,0
856.99023,857.06793,76,65,0
857.1467,857.22675,79,72,0
857.1467,857.22675,76,72,0
857.3084,857.3917,79,78,0
857.3084,857.3917,76,78,0
856.8269,857.47754,72,38,0
856.8269,857.47754,84,71,0
857.47754,857.55524,72,70,0
857.633,857.7107,76,62,0
857.633,857.7107,79,74,0
857.47754,857.7884,84,83,0
857.7884,857.85815,72,64,0
857.7884,857.85815,84,76,0
857.928,858.0086,72,64,0
857.928,858.0086,84,76,0
858.08923,858.31177,72,70,0
858.08923,858.31177,69,70,0
858.08923,858.31177,81,84,0
858.31177,858.38873,70,69,0
858.31177,858.38873,67,69,0
858.31177,858.38873,79,81,0
858.38873,858.6964,69,70,0
858.38873,858.6964,65,70,0
858.38873,858.6964,77,84,0
858.6964,858.77374,72,70,0
858.8511,858.92834,76,62,0
858.8511,858.92834,79,74,0
858.6964,859.0057,84,83,0
859.0057,859.07513,72,64,0
859.0057,859.07513,84,76,0
859.1446,859.2261,72,64,0
859.1446,859.2261,84,76,0
859.3076,859.38007,72,70,0
859.3076,859.38007,69,70,0
859.3076,859.38007,81,84,0
859.4526,859.52985,77,81,0
859.4526,859.52985,69,69,0
859.4526,859.52985,65,69,0
859.56854,859.6072,88,84,0
859.6072,859.68695,77,70,0
859.6072,859.68695,89,84,0
859.92633,860.234,72,70,0
859.92633,860.234,84,83,0
859.92633,860.234,81,70,0
860.234,860.30756,69,64,0
860.234,860.30756,81,76,0
860.234,860.30756,77,64,0
860.3811,860.4572,74,64,0
860.3811,860.4572,86,76,0
860.3811,860.4572,82,64,0
860.5334,860.6076,81,70,0
860.5334,860.6076,72,70,0
860.5334,860.6076,84,84,0
860.6819,860.7588,81,81,0
860.6819,860.7588,77,69,0
860.6819,860.7588,69,69,0
860.7973,860.83575,88,84,0
860.83575,860.9147,77,70,0
860.83575,860.9147,89,84,0
861.15155,861.45764,72,70,0
861.15155,861.45764,84,83,0
861.15155,861.45764,81,70,0
861.45764,861.5308,69,64,0
861.45764,861.5308,81,76,0
861.45764,861.5308,77,64,0
861.604,861.6809,74,64,0
861.604,861.6809,86,76,0
861.604,861.6809,82,64,0
861.7578,861.831,81,70,0
861.7578,861.831,72,70,0
861.7578,861.831,84,84,0
861.9042,861.9815,81,81,0
861.9042,861.9815,77,69,0
861.9042,861.9815,69,69,0
862.02014,862.05884,100,88,0
862.05884,862.13654,89,74,0
862.05884,862.13654,101,88,0
862.3697,862.67896,72,70,0
862.3697,862.67896,84,83,0
862.3697,862.67896,81,70,0
862.67896,862.7518,69,64,0
862.67896,862.7518,81,76,0
862.67896,862.7518,77,64,0
862.8246,862.9004,74,64,0
862.8246,862.9004,86,76,0
862.8246,862.9004,82,64,0
862.97614,863.0493,81,70,0
862.97614,863.0493,72,70,0
862.97614,863.0493,84,84,0
863.12244,863.1986,81,81,0
863.12244,863.1986,77,69,0
863.12244,863.1986,69,69,0
863.2367,863.2747,100,88,0
863.2747,863.35284,89,74,0
863.2747,863.35284,101,88,0
863.5872,863.9047,72,70,0
863.5872,863.9047,84,83,0
863.5872,863.9047,81,70,0
863.9047,863.9801,69,64,0
863.9047,863.9801,81,76,0
863.9047,863.9801,77,64,0
864.0555,864.134,74,64,0
864.0555,864.134,86,76,0
864.0555,864.134,82,64,0
864.2125,864.2982,81,70,0
864.2125,864.2982,72,70,0
864.2125,864.2982,84,84,0
864.55536,864.6282,72,49,0
864.701,864.7804,81,44,0
864.701,864.7804,77,40,0
864.85895,864.93353,72,53,0
865.0082,865.0828,81,48,0
865.0082,865.0828,77,41,0
864.55536,865.1574,84,61,0
865.1574,865.23206,71,53,0
865.3063,865.38245,74,36,0
865.3063,865.38245,77,48,0
865.1574,865.45844,83,68,0
865.45844,865.5343,70,45,0
865.61066,865.68744,79,40,0
865.61066,865.68744,72,34,0
865.45844,865.7648,82,63,0
865.7648,865.8426,69,45,0
865.9209,865.99927,72,29,0
865.9209,865.99927,77,40,0
865.7648,866.07886,81,57,0
866.07886,866.15955,67,51,0
866.07886,866.15955,79,61,0
866.2402,866.3173,69,49,0
866.2402,866.3173,81,58,0
866.3944,866.47,70,49,0
866.3944,866.47,82,58,0
866.54553,866.6211,72,49,0
866.54553,866.6211,84,58,0
866.69666,866.77734,69,56,0
866.858,866.9386,77,48,0
866.858,866.9386,72,41,0
866.69666,867.0193,81,64,0
867.0193,867.0928,72,49,0
867.1663,867.24786,81,44,0
867.1663,867.24786,77,40,0
867.32935,867.4015,72,53,0
867.4736,867.546,80,48,0
867.4736,867.546,77,41,0
867.0193,867.6195,84,61,0
867.6195,867.69305,71,53,0
867.7668,867.8429,74,36,0
867.7668,867.8429,77,48,0
867.6195,867.91895,83,68,0
867.91895,867.9948,70,45,0
868.0711,868.14795,76,40,0
868.0711,868.14795,73,34,0
867.91895,868.2252,82,63,0
868.2252,868.3031,69,45,0
868.3814,868.4598,72,29,0
868.3814,868.4598,77,40,0
868.2252,868.53937,81,57,0
868.53937,868.6198,67,51,0
868.53937,868.6198,79,61,0
868.70026,868.78064,69,49,0
868.70026,868.78064,81,58,0
868.8611,868.9415,70,49,0
868.8611,868.9415,82,58,0
869.022,869.10236,72,49,0
869.022,869.10236,84,58,0
869.1828,869.26385,69,56,0
869.345,869.426,77,48,0
869.345,869.426,72,41,0
869.1828,869.50714,81,64,0
869.50714,869.5806,72,49,0
869.6542,869.73315,81,44,0
869.6542,869.73315,77,40,0
869.8121,869.889,72,53,0
869.96594,870.0413,78,48,0
869.96594,870.0413,74,41,0
869.50714,870.11676,84,61,0
870.11676,870.1937,71,53,0
870.269,870.34796,74,36,0
870.269,870.34796,79,48,0
870.11676,870.4264,83,68,0
870.4264,870.50604,70,45,0
870.58673,870.6682,76,40,0
870.58673,870.6682,72,34,0
870.4264,870.75055,82,63,0
870.75055,870.834,69,45,0
870.9183,871.0157,72,29,0
870.9183,871.0157,77,40,0
870.75055,871.1127,81,57,0
871.1127,871.2088,67,51,0
871.1127,871.2088,79,61,0
871.30676,871.4065,69,49,0
871.30676,871.4065,81,58,0
871.5082,871.6118,70,49,0
871.5082,871.6118,82,58,0
871.71747,871.8254,72,49,0
871.71747,871.8254,84,58,0
871.9342,872.2467,77,61,0
871.9342,872.2467,65,51,0
872.5592,872.63654,53,49,0
872.71387,872.79114,57,38,0
872.71387,872.79114,60,44,0
872.5592,872.86847,65,68,0
872.86847,872.9373,65,55,0
873.0061,873.0842,57,38,0
873.0061,873.0842,60,44,0
873.0061,873.0842,65,55,0
873.16235,873.23517,58,49,0
873.308,873.3808,65,44,0
873.308,873.3808,61,38,0
873.16235,873.4536,70,68,0
873.4536,873.53174,58,49,0
873.60986,873.688,65,44,0
873.60986,873.688,61,33,0
873.4536,873.7661,70,55,0
873.7661,873.84265,58,49,0
873.9192,873.9957,61,44,0
873.9192,873.9957,65,38,0
873.7661,874.0722,70,67,0
874.0722,874.14166,61,49,0
874.0722,874.14166,73,55,0
874.2111,874.28925,58,44,0
874.2111,874.28925,70,55,0
874.3674,874.4402,57,49,0
874.513,874.5858,60,38,0
874.513,874.5858,65,44,0
874.3674,874.6586,69,63,0
874.6586,874.7372,53,49,0
874.8157,874.8942,60,44,0
874.8157,874.8942,57,33,0
874.6586,874.9728,65,55,0
874.9728,875.0485,53,49,0
875.12427,875.2,57,38,0
875.12427,875.2,60,44,0
874.9728,875.2758,65,68,0
875.2758,875.3459,65,55,0
875.41595,875.49493,57,38,0
875.41595,875.49493,60,44,0
875.41595,875.49493,65,55,0
875.57385,875.64667,58,49,0
875.7195,875.7923,65,44,0
875.7195,875.7923,61,38,0
875.57385,875.8651,70,68,0
875.8651,875.94324,58,49,0
876.02057,876.0979,65,44,0
876.02057,876.0979,61,33,0
875.8651,876.17523,70,55,0
876.17523,876.2518,58,49,0
876.3283,876.4048,61,44,0
876.3283,876.4048,65,38,0
876.17523,876.4813,70,67,0
876.4813,876.5511,61,49,0
876.4813,876.5511,73,55,0
876.6209,876.6998,58,44,0
876.6209,876.6998,70,55,0
876.77875,876.85156,57,49,0
876.9244,876.9972,61,38,0
876.9244,876.9972,64,44,0
877.07,877.14984,57,49,0
877.2296,877.3094,64,44,0
877.2296,877.3094,61,33,0
876.77875,877.38916,69,63,0
877.38916,877.4665,57,49,0
877.5438,877.62115,61,38,0
877.5438,877.62115,64,44,0
877.38916,877.6985,69,68,0
877.6985,877.76666,69,55,0
877.83484,877.91254,61,38,0
877.83484,877.91254,64,44,0
877.83484,877.91254,69,55,0
877.9903,878.0624,62,49,0
878.1345,878.2066,69,44,0
878.1345,878.2066,65,38,0
877.9903,878.27875,74,68,0
878.27875,878.35724,62,49,0
878.435,878.5127,69,44,0
878.435,878.5127,65,33,0
878.27875,878.59045,74,55,0
878.59045,878.66693,62,49,0
878.74347,878.82,65,44,0
878.74347,878.82,69,38,0
878.59045,878.89655,74,67,0
878.89655,878.9657,65,49,0
878.89655,878.9657,77,55,0
879.0348,879.11334,62,44,0
879.0348,879.11334,74,55,0
879.19183,879.2636,61,49,0
879.3354,879.40717,65,38,0
879.3354,879.40717,68,44,0
879.47894,879.5551,61,49,0
879.6312,879.7074,68,44,0
879.6312,879.7074,65,33,0
879.19183,879.7835,73,63,0
879.7835,879.86084,61,49,0
879.9382,880.01544,65,38,0
879.9382,880.01544,68,44,0
879.7835,880.0928,73,70,0
880.0928,880.1619,73,57,0
880.231,880.30914,65,38,0
880.231,880.30914,68,44,0
880.231,880.30914,73,57,0
880.38727,880.4594,66,49,0
880.5315,880.60364,73,44,0
880.5315,880.60364,69,38,0
880.38727,880.6758,78,70,0
880.6758,880.7543,66,49,0
880.83203,880.9097,73,44,0
880.83203,880.9097,69,33,0
880.6758,880.9874,78,57,0
880.9874,881.06396,66,49,0
881.1405,881.21704,69,44,0
881.1405,881.21704,73,38,0
880.9874,881.2936,78,69,0
881.2936,881.36334,69,49,0
881.2936,881.36334,81,57,0
881.4331,881.512,66,44,0
881.4331,881.512,78,57,0
881.591,881.6638,65,49,0
881.73663,881.80945,69,38,0
881.73663,881.80945,72,44,0
881.591,881.88226,77,65,0
881.88226,881.9596,65,49,0
882.0369,882.1142,72,44,0
882.0369,882.1142,69,33,0
881.88226,882.1915,77,57,0
882.1915,882.2669,70,53,0
882.3423,882.41766,73,48,0
882.3423,882.41766,77,40,0
882.1915,882.49304,82,75,0
882.49304,882.5615,73,53,0
882.49304,882.5615,85,61,0
882.63,882.70776,70,48,0
882.63,882.70776,82,61,0
882.78546,882.85724,69,53,0
882.929,883.0008,73,40,0
882.929,883.0008,76,48,0
882.78546,883.0726,81,71,0
883.0726,883.1507,69,53,0
883.2288,883.30695,76,48,0
883.2288,883.30695,73,35,0
883.0726,883.3851,81,69,0
883.3851,883.4608,74,62,0
883.53656,883.6123,77,52,0
883.53656,883.6123,81,44,0
883.3851,883.6881,86,86,0
883.6881,883.7566,77,59,0
883.6881,883.7566,89,69,0
883.8251,883.9028,74,52,0
883.8251,883.9028,86,69,0
883.9805,884.05334,73,59,0
884.12616,884.199,77,44,0
884.12616,884.199,80,52,0
883.9805,884.2718,85,79,0
884.2718,884.3495,73,59,0
884.4272,884.50494,80,52,0
884.4272,884.50494,77,39,0
884.2718,884.58264,85,77,0
884.58264,884.6584,78,62,0
884.7342,884.80994,81,52,0
884.7342,884.80994,85,44,0
884.58264,884.8857,90,86,0
884.8857,884.95416,81,59,0
884.8857,884.95416,93,69,0
885.02264,885.0988,78,52,0
885.02264,885.0988,90,69,0
885.1749,885.24603,77,59,0
885.31714,885.38824,80,44,0
885.31714,885.38824,85,52,0
885.1749,885.4593,89,79,0
885.4593,885.5374,73,59,0
885.61554,885.69366,80,52,0
885.61554,885.69366,77,39,0
885.4593,885.7718,85,77,0
885.7718,885.8476,78,62,0
885.92334,885.9991,81,52,0
885.92334,885.9991,85,44,0
885.7718,886.0748,90,86,0
886.0748,886.1437,81,59,0
886.0748,886.1437,93,69,0
886.21246,886.2898,78,52,0
886.21246,886.2898,90,69,0
886.3671,886.50995,77,59,0
886.50995,886.65283,80,44,0
886.50995,886.65283,85,52,0
886.3671,886.65283,89,79,0
886.65283,886.8051,80,59,0
886.8051,886.9574,89,52,0
886.8051,886.9574,85,39,0
886.65283,886.9574,92,77,0
886.9574,887.1016,81,59,0
887.1016,887.24585,84,44,0
887.1016,887.24585,87,52,0
886.9574,887.24585,93,79,0
887.24585,887.3951,78,59,0
887.3951,887.5444,84,52,0
887.3951,887.5444,81,39,0
887.24585,887.5444,90,77,0
887.5444,887.68787,77,60,0
887.68787,887.8314,80,44,0
887.68787,887.8314,85,52,0
887.5444,887.8314,89,80,0
887.8314,887.99274,80,60,0
887.99274,888.154,89,54,0
887.99274,888.154,85,40,0
887.8314,888.154,92,79,0
888.154,888.29755,83,62,0
888.29755,888.4411,86,46,0
888.29755,888.4411,89,54,0
888.154,888.4411,95,81,0
888.4411,888.5896,80,62,0
888.5896,888.7381,89,55,0
888.5896,888.7381,83,40,0
888.4411,888.7381,92,80,0
888.7381,888.88165,79,62,0
888.88165,889.0252,82,47,0
888.88165,889.0252,87,55,0
888.7381,889.0252,91,82,0
889.0252,889.1737,82,63,0
889.1737,889.32227,91,56,0
889.1737,889.32227,87,41,0
889.0252,889.32227,94,81,0
889.32227,889.46576,83,63,0
889.46576,889.6093,86,47,0
889.46576,889.6093,89,56,0
889.32227,889.6093,95,83,0
889.6093,889.75934,80,64,0
889.75934,889.9093,89,56,0
889.75934,889.9093,83,41,0
889.6093,889.9093,92,82,0
889.9093,890.05286,79,64,0
890.05286,890.1964,82,48,0
890.05286,890.1964,87,57,0
889.9093,890.1964,91,86,0
890.1964,890.3449,82,65,0
890.3449,890.4934,91,57,0
890.3449,890.4934,87,42,0
890.1964,890.4934,94,83,0
890.4934,890.6363,85,65,0
890.6363,890.7791,88,49,0
890.6363,890.7791,91,58,0
890.4934,890.7791,97,86,0
890.7791,890.93066,82,65,0
890.93066,891.08215,91,58,0
890.93066,891.08215,85,43,0
890.7791,891.08215,94,85,0
891.08215,891.2257,81,66,0
891.2257,891.36926,84,49,0
891.2257,891.36926,89,58,0
891.08215,891.36926,93,88,0
891.36926,891.5185,84,66,0
891.5185,891.6678,93,58,0
891.5185,891.6678,89,43,0
891.36926,891.6678,96,86,0
891.6678,891.8113,85,67,0
891.8113,891.95483,88,50,0
891.8113,891.95483,91,59,0
891.6678,891.95483,97,89,0
891.95483,892.10333,82,67,0
892.10333,892.2519,91,59,0
892.10333,892.2519,85,44,0
891.95483,892.2519,94,88,0
892.2519,892.3947,81,67,0
892.3947,892.5376,84,51,0
892.3947,892.5376,89,60,0
892.2519,892.5376,93,90,0
892.5376,892.68835,84,69,0
892.68835,892.8391,93,60,0
892.68835,892.8391,89,44,0
892.5376,892.8391,96,88,0
892.8391,892.9826,85,69,0
892.9826,893.12616,88,51,0
892.9826,893.12616,91,60,0
892.8391,893.12616,97,92,0
893.12616,893.27844,82,70,0
893.27844,893.4307,91,62,0
893.27844,893.4307,85,46,0
893.12616,893.4307,94,90,0
893.4307,893.57635,81,70,0
893.57635,893.722,84,52,0
893.57635,893.722,89,62,0
893.4307,893.722,93,94,0
893.722,893.9027,84,71,0
893.9027,894.08344,93,63,0
893.9027,894.08344,89,46,0
893.722,894.08344,96,92,0
894.08344,894.80634,87,101,0
894.08344,894.80634,99,101,0
894.80634,895.6274,79,83,0
894.80634,895.6274,67,76,0
895.6274,895.713,69,83,0
895.713,895.7977,82,55,0
895.7977,895.8816,69,63,0
895.8816,895.96454,82,46,0
895.96454,896.0471,69,64,0
896.0471,896.1289,82,46,0
896.1289,896.20984,69,61,0
896.20984,896.29,82,46,0
896.29,896.3697,69,59,0
896.3697,896.44867,82,45,0
896.44867,896.5268,69,58,0
896.5268,896.6045,82,48,0
896.6045,896.6815,69,59,0
896.6815,896.7579,82,46,0
896.7579,896.83344,69,64,0
896.83344,896.9086,82,50,0
896.9086,896.981,69,65,0
896.981,897.0534,82,52,0
897.0534,897.1258,69,65,0
897.1258,897.1982,82,52,0
897.1982,897.2758,69,65,0
897.2758,897.35345,82,51,0
897.35345,897.5419,69,73,0
897.5419,897.65466,67,74,0
897.5419,897.65466,79,74,0
897.76746,897.90765,69,74,0
897.76746,897.90765,81,74,0
898.04785,898.1252,70,63,0
898.20245,898.2798,74,49,0
898.20245,898.2798,77,57,0
898.04785,898.3571,82,88,0
898.3571,898.4259,70,63,0
898.3571,898.4259,82,71,0
898.49475,898.57245,74,49,0
898.49475,898.57245,77,57,0
898.49475,898.57245,82,71,0
898.65015,898.72296,74,63,0
898.65015,898.72296,86,88,0
898.7958,898.8686,77,57,0
898.7958,898.8686,82,71,0
898.9414,899.02295,70,63,0
899.1045,899.186,77,57,0
899.1045,899.186,74,42,0
898.9414,899.2675,82,71,0
899.2675,899.34406,65,63,0
899.4206,899.49713,74,57,0
899.4206,899.49713,70,49,0
899.2675,899.57367,77,87,0
899.57367,899.64185,65,63,0
899.57367,899.64185,77,71,0
899.71,899.78613,70,49,0
899.71,899.78613,74,57,0
899.71,899.78613,77,71,0
899.8623,899.9351,70,63,0
899.8623,899.9351,82,85,0
900.00793,900.08075,74,57,0
900.00793,900.08075,77,71,0
900.15356,900.23505,65,63,0
900.3166,900.39813,74,57,0
900.3166,900.39813,70,42,0
900.15356,900.4796,77,71,0
900.4796,900.5566,62,66,0
900.6335,900.7104,70,59,0
900.6335,900.7104,65,50,0
900.4796,900.78735,74,91,0
900.78735,900.85614,62,72,0
900.78735,900.85614,74,73,0
900.9249,900.9992,63,64,0
900.9249,900.9992,75,73,0
901.0735,901.14886,67,66,0
901.22424,901.29956,74,59,0
901.22424,901.29956,70,44,0
901.0735,901.37494,79,89,0
901.37494,901.4548,65,66,0
901.53455,901.6186,74,59,0
901.53455,901.6186,70,44,0
901.37494,901.70264,77,74,0
901.70264,901.77997,65,66,0
901.85724,901.9346,72,59,0
901.85724,901.9346,69,50,0
901.70264,902.0119,77,91,0
902.0119,902.08545,67,72,0
902.0119,902.08545,79,73,0
902.15894,902.2388,69,64,0
902.15894,902.2388,81,73,0
902.31854,902.3939,70,66,0
902.4693,902.5447,77,59,0
902.4693,902.5447,74,44,0
902.31854,902.62006,82,89,0
902.62006,902.69855,70,63,0
902.7771,902.8682,77,53,0
902.7771,902.8682,74,39,0
902.9785,903.0539,82,44,0
903.1293,903.20465,86,34,0
903.1293,903.20465,89,39,0
902.9785,903.28,94,63,0
903.28,903.3485,82,44,0
903.28,903.3485,94,49,0
903.41705,903.4943,86,34,0
903.41705,903.4943,89,39,0
903.41705,903.4943,94,49,0
903.57166,903.6445,86,44,0
903.57166,903.6445,98,63,0
903.7173,903.7901,89,39,0
903.7173,903.7901,94,51,0
903.8629,903.94446,82,44,0
904.026,904.1075,89,39,0
904.026,904.1075,86,29,0
903.8629,904.189,94,51,0
904.189,904.26556,77,44,0
904.3421,904.41864,86,39,0
904.3421,904.41864,82,34,0
904.189,904.4951,89,63,0
904.4951,904.56396,77,44,0
904.4951,904.56396,89,49,0
904.63275,904.7113,82,34,0
904.63275,904.7113,86,39,0
904.63275,904.7113,89,49,0
904.78986,904.8627,82,44,0
904.78986,904.8627,94,62,0
904.9355,905.0083,86,39,0
904.9355,905.0083,89,51,0
905.0811,905.163,77,44,0
905.245,905.32697,86,39,0
905.245,905.32697,82,29,0
905.0811,905.40894,89,51,0
905.40894,905.4859,74,45,0
905.5628,905.6397,77,35,0
905.5628,905.6397,82,39,0
905.40894,905.7167,86,63,0
905.7167,905.78546,74,45,0
905.7167,905.78546,86,46,0
905.85425,905.9285,75,41,0
905.85425,905.9285,87,46,0
906.0028,906.0781,79,45,0
906.1535,906.2289,86,41,0
906.1535,906.2289,82,30,0
906.0028,906.30426,91,62,0
906.30426,906.3845,77,45,0
906.4647,906.5449,86,41,0
906.4647,906.5449,82,30,0
906.30426,906.6251,89,51,0
906.6251,906.70245,77,45,0
906.7798,906.8571,84,41,0
906.7798,906.8571,81,35,0
906.6251,906.93445,89,63,0
906.93445,907.00793,79,45,0
906.93445,907.00793,91,46,0
907.0815,907.1604,81,41,0
907.0815,907.1604,93,46,0
907.2394,907.31476,82,45,0
907.2394,907.31476,94,62,0
907.39014,907.4655,74,41,0
907.39014,907.4655,70,30,0
907.5409,907.6186,77,45,0
907.5409,907.6186,74,30,0
907.6959,907.77325,82,41,0
907.6959,907.77325,77,30,0
907.8506,908.15985,77,69,0
907.8506,908.15985,74,69,0
907.8506,908.15985,86,88,0
908.15985,908.22833,70,69,0
908.15985,908.22833,82,78,0
908.2968,908.37415,65,53,0
908.2968,908.37415,77,78,0
908.4515,908.74274,81,69,0
908.4515,908.74274,75,69,0
908.4515,908.74274,87,88,0
908.74274,909.05524,69,63,0
908.74274,909.05524,81,71,0
909.05524,909.3645,77,69,0
909.05524,909.3645,74,69,0
909.05524,909.3645,86,88,0
909.3645,909.4346,70,69,0
909.3645,909.4346,82,78,0
909.5047,909.5797,65,53,0
909.5047,909.5797,77,78,0
909.65466,909.9459,81,69,0
909.65466,909.9459,75,69,0
909.65466,909.9459,87,88,0
909.9459,910.2584,69,63,0
909.9459,910.2584,81,71,0
910.2584,910.56775,77,69,0
910.2584,910.56775,74,69,0
910.2584,910.56775,86,88,0
910.56775,910.6378,70,69,0
910.56775,910.6378,82,78,0
910.70795,910.7829,65,53,0
910.70795,910.7829,77,78,0
910.8579,911.1492,81,69,0
910.8579,911.1492,75,69,0
910.8579,911.1492,87,88,0
911.1492,911.4617,69,63,0
911.1492,911.4617,81,71,0
911.4617,911.77094,77,69,0
911.4617,911.77094,74,69,0
911.4617,911.77094,86,88,0
911.77094,911.84106,70,69,0
911.77094,911.84106,82,78,0
911.91113,911.98615,65,53,0
911.91113,911.98615,77,78,0
912.06116,912.3524,81,69,0
912.06116,912.3524,75,69,0
912.06116,912.3524,87,88,0
912.3524,912.49805,57,28,0
912.3524,912.49805,51,28,0
912.3524,912.49805,63,40,0
912.49805,912.78424,57,43,0
912.49805,912.78424,51,43,0
912.49805,912.78424,63,51,0
912.78424,913.0654,58,34,0
912.78424,913.0654,51,34,0
912.78424,913.0654,63,41,0
913.0654,913.3471,59,35,0
913.0654,913.3471,51,35,0
913.0654,913.3471,63,42,0
913.3471,913.63226,60,37,0
913.3471,913.63226,51,37,0
913.3471,913.63226,63,44,0
913.63226,913.913,60,44,0
913.63226,913.913,54,44,0
913.63226,913.913,66,52,0
913.913,914.1921,61,34,0
913.913,914.1921,54,34,0
913.913,914.1921,66,41,0
914.1921,914.4711,62,35,0
914.1921,914.4711,54,35,0
914.1921,914.4711,66,42,0
914.4711,914.7544,54,36,0
914.4711,914.7544,63,36,0
914.4711,914.7544,66,43,0
914.7544,915.03107,63,44,0
914.7544,915.03107,57,44,0
914.7544,915.03107,69,52,0
915.03107,915.30884,64,34,0
915.03107,915.30884,57,34,0
915.03107,915.30884,69,40,0
915.30884,915.5866,65,34,0
915.30884,915.5866,57,34,0
915.30884,915.5866,69,41,0
915.5866,915.87195,66,36,0
915.5866,915.87195,57,36,0
915.5866,915.87195,69,43,0
915.87195,916.1497,60,44,0
915.87195,916.1497,66,52,0
915.87195,916.1497,72,52,0
916.1497,916.4275,60,34,0
916.1497,916.4275,67,41,0
916.1497,916.4275,72,41,0
916.4275,916.5664,68,36,0
916.4275,916.5664,60,36,0
916.4275,916.5664,72,43,0
916.5664,916.75964,69,43,0
916.5664,916.75964,60,44,0
916.5664,916.75964,72,51,0
916.75964,916.8531,69,40,0
916.75964,916.8531,63,40,0
916.75964,916.8531,75,48,0
916.94653,917.04,70,39,0
916.94653,917.04,63,39,0
916.94653,917.04,75,47,0
917.1335,917.2269,71,47,0
917.1335,917.2269,63,47,0
917.1335,917.2269,75,56,0
917.3204,917.4138,72,42,0
917.3204,917.4138,66,42,0
917.3204,917.4138,78,51,0
917.50726,917.60077,73,42,0
917.50726,917.60077,66,42,0
917.50726,917.60077,78,51,0
917.6942,917.79083,74,50,0
917.6942,917.79083,66,50,0
917.6942,917.79083,78,60,0
917.88745,917.98047,75,47,0
917.88745,917.98047,69,47,0
917.88745,917.98047,81,56,0
918.0735,918.1665,76,47,0
918.0735,918.1665,69,47,0
918.0735,918.1665,81,56,0
918.2595,918.35254,77,56,0
918.2595,918.35254,69,56,0
918.2595,918.35254,81,66,0
918.44556,918.5386,78,50,0
918.44556,918.5386,72,50,0
918.44556,918.5386,84,60,0
918.63165,918.73065,79,50,0
918.63165,918.73065,72,50,0
918.63165,918.73065,84,60,0
918.82965,918.93835,80,59,0
918.82965,918.93835,72,59,0
918.82965,918.93835,84,70,0
918.97455,919.0797,75,53,0
918.97455,919.0797,81,53,0
918.97455,919.0797,87,63,0
919.11475,919.2199,75,53,0
919.11475,919.2199,82,53,0
919.11475,919.2199,87,63,0
919.25494,919.3601,75,53,0
919.25494,919.3601,83,53,0
919.25494,919.3601,87,63,0
919.39514,919.50385,84,61,0
919.39514,919.50385,75,61,0
919.39514,919.50385,87,73,0
919.54004,919.6452,84,55,0
919.54004,919.6452,78,55,0
919.54004,919.6452,90,64,0
919.68024,919.7854,85,55,0
919.68024,919.7854,78,55,0
919.68024,919.7854,90,64,0
919.82043,919.9256,86,55,0
919.82043,919.9256,78,55,0
919.82043,919.9256,90,64,0
919.96063,920.06573,87,64,0
919.96063,920.06573,78,64,0
919.96063,920.06573,90,77,0
920.1008,920.20593,87,58,0
920.1008,920.20593,81,58,0
920.1008,920.20593,93,69,0
920.241,920.3461,88,58,0
920.241,920.3461,81,58,0
920.241,920.3461,93,69,0
920.38116,920.4863,89,58,0
920.38116,920.4863,81,58,0
920.38116,920.4863,93,69,0
920.52136,920.6265,93,68,0
920.52136,920.6265,90,68,0
920.52136,920.6265,81,68,0
920.66156,920.7667,90,60,0
920.66156,920.7667,84,60,0
920.66156,920.7667,96,71,0
920.80176,920.90686,91,60,0
920.80176,920.90686,84,60,0
920.80176,920.90686,96,71,0
920.94196,921.04706,92,60,0
920.94196,921.04706,84,60,0
920.94196,921.04706,96,71,0
921.0821,921.1908,93,68,0
921.0821,921.1908,84,68,0
921.0821,921.1908,96,81,0
921.22705,921.33124,87,68,0
921.22705,921.33124,93,68,0
921.22705,921.33124,99,80,0
921.36597,921.4701,87,71,0
921.36597,921.4701,94,71,0
921.36597,921.4701,99,84,0
921.5048,921.609,87,74,0
921.5048,921.609,99,89,0
921.5048,921.609,95,89,0
921.64374,921.74786,87,78,0
921.64374,921.74786,96,78,0
921.64374,921.74786,99,92,0
921.7826,921.8868,87,68,0
921.7826,921.8868,96,68,0
921.7826,921.8868,99,81,0
921.9215,922.02563,87,68,0
921.9215,922.02563,95,68,0
921.9215,922.02563,99,81,0
922.06036,922.1686,87,68,0
922.06036,922.1686,94,68,0
922.06036,922.1686,99,81,0
922.2046,922.30927,87,78,0
922.2046,922.30927,93,78,0
922.2046,922.30927,99,92,0
922.3442,922.4478,87,68,0
922.3442,922.4478,93,68,0
922.3442,922.4478,99,81,0
922.4824,922.58606,87,71,0
922.4824,922.58606,94,71,0
922.4824,922.58606,99,84,0
922.62067,922.7243,87,74,0
922.62067,922.7243,99,89,0
922.62067,922.7243,95,89,0
922.7589,922.8626,87,79,0
922.7589,922.8626,96,79,0
922.7589,922.8626,99,93,0
922.89716,923.00085,87,68,0
922.89716,923.00085,96,68,0
922.89716,923.00085,99,81,0
923.0354,923.1391,87,68,0
923.0354,923.1391,95,68,0
923.0354,923.1391,99,81,0
923.17365,923.2818,87,68,0
923.17365,923.2818,94,68,0
923.17365,923.2818,99,81,0
923.31836,923.6135,87,79,0
923.31836,923.6135,93,93,0
923.6135,923.90894,87,69,0
923.6135,923.90894,93,82,0
923.90894,924.2132,87,70,0
923.90894,924.2132,94,83,0
924.2132,924.5159,87,72,0
924.2132,924.5159,95,85,0
924.5159,924.82526,87,79,0
924.5159,924.82526,96,93,0
925.1309,925.47095,87,79,0
925.1309,925.47095,96,93,0
925.8557,925.9531,103,59,0
925.9531,926.0411,101,60,0
926.0411,926.1212,99,61,0
926.1212,926.1949,96,62,0
926.1949,926.26666,93,62,0
926.26666,926.33844,89,63,0
926.33844,926.4102,87,64,0
926.4102,926.482,84,65,0
926.482,926.5537,81,66,0
926.5537,926.6255,77,67,0
926.6255,926.69727,75,68,0
926.69727,926.76904,72,69,0
926.76904,926.8408,69,70,0
926.8408,926.9126,65,71,0
926.9126,926.9844,63,72,0
926.9844,927.0561,60,72,0
927.87616,927.9469,60,68,0
927.9469,928.0177,63,67,0
928.0177,928.08844,65,66,0
928.08844,928.1592,69,65,0
928.1592,928.2299,72,64,0
928.2299,928.3007,75,63,0
928.3007,928.37146,77,62,0
928.37146,928.4422,81,61,0
928.4422,928.51294,84,60,0
928.51294,928.58374,87,59,0
928.58374,928.65485,89,58,0
928.65485,928.72626,93,62,0
928.72626,928.79803,96,65,0
928.79803,928.8701,99,73,0
928.8701,928.94257,103,86,0
929.12775,929.2161,87,75,0
929.12775,929.2161,99,89,0
929.2161,929.3034,84,88,0
929.3034,929.38885,81,73,0
929.3034,929.38885,93,87,0
929.38885,929.47266,78,86,0
929.47266,929.5552,77,72,0
929.47266,929.5552,89,85,0
929.5552,929.63696,76,85,0
929.63696,929.71796,75,71,0
929.63696,929.71796,87,84,0
929.71796,929.7983,72,83,0
929.7983,929.8778,69,69,0
929.7983,929.8778,81,82,0
929.8778,929.9566,66,81,0
929.9566,930.0347,65,68,0
929.9566,930.0347,77,80,0
930.0347,930.1122,64,79,0
930.1122,930.1895,63,66,0
930.1122,930.1895,75,78,0
930.1895,930.2668,60,77,0
931.3641,931.55884,87,87,0
931.31384,931.55884,69,76,0
931.33057,931.55884,75,79,0
931.3473,931.55884,81,83,0
931.7844,931.98047,87,91,0
931.7421,931.98047,70,77,0
931.7562,931.98047,75,81,0
931.7703,931.98047,82,86,0
932.21124,932.4368,87,87,0
932.16797,932.4368,71,74,0
932.18243,932.4368,75,78,0
932.19684,932.4368,83,82,0
932.68274,932.8868,87,93,0
932.6366,932.8868,72,79,0
932.652,932.8868,75,83,0
932.66736,932.8868,84,88,0
933.6693,933.83124,74,61,0
933.6693,933.83124,86,72,0
933.83124,933.988,75,64,0
933.83124,933.988,87,76,0
933.988,934.14,76,68,0
933.988,934.14,88,80,0
934.14,934.2876,77,72,0
934.14,934.2876,89,85,0
934.2876,934.4309,78,75,0
934.2876,934.4309,90,89,0
934.4309,934.5738,81,79,0
934.4309,934.5738,93,93,0
934.5738,934.7167,79,73,0
934.5738,934.7167,91,87,0
934.7167,934.8657,74,70,0
934.7167,934.8657,86,83,0
934.8657,935.01385,77,79,0
934.8657,935.01385,89,94,0
935.01385,935.1714,75,72,0
935.01385,935.1714,87,85,0
935.1714,935.3734,72,72,0
935.1714,935.3734,84,85,0
935.3734,935.45074,70,69,0
935.5281,935.60535,74,53,0
935.5281,935.60535,77,62,0
935.3734,935.6827,82,96,0
935.6827,935.75214,70,69,0
935.6827,935.75214,82,78,0
935.8216,935.8993,74,53,0
935.8216,935.8993,77,62,0
935.8216,935.8993,82,78,0
935.97705,936.04987,74,69,0
935.97705,936.04987,86,96,0
936.1227,936.1955,77,62,0
936.1227,936.1955,82,78,0
936.2683,936.34937,70,69,0
936.4304,936.51154,77,62,0
936.4304,936.51154,74,46,0
936.2683,936.5926,82,78,0
936.5926,936.6691,65,69,0
936.74567,936.8222,74,62,0
936.74567,936.8222,70,53,0
936.5926,936.89874,77,95,0
936.89874,936.96783,65,69,0
936.89874,936.96783,77,78,0
937.037,937.11273,70,53,0
937.037,937.11273,74,62,0
937.037,937.11273,77,78,0
937.1885,937.2613,70,69,0
937.1885,937.2613,82,93,0
937.3341,937.4069,74,62,0
937.3341,937.4069,77,78,0
937.47974,937.5617,65,69,0
937.6437,937.72565,74,62,0
937.6437,937.72565,70,46,0
937.47974,937.8076,77,78,0
937.8076,937.8845,62,72,0
937.9615,938.0384,70,64,0
937.9615,938.0384,65,55,0
937.8076,938.1153,74,100,0
938.1153,938.1857,62,72,0
938.1153,938.1857,74,73,0
938.25616,938.33044,63,64,0
938.25616,938.33044,75,73,0
938.40466,938.48004,67,72,0
938.40466,938.51776,79,97,0
938.5554,938.6308,77,74,0
938.5554,938.6308,65,48,0
938.7062,938.78595,65,72,0
938.7062,938.78595,77,81,0
938.8658,938.94556,77,77,0
938.8658,938.94556,70,48,0
938.8658,938.94556,74,48,0
939.0253,939.10266,65,72,0
939.18,939.25726,72,64,0
939.18,939.25726,69,55,0
939.0253,939.3346,77,100,0
939.3346,939.40814,67,72,0
939.3346,939.40814,79,73,0
939.4817,939.56146,69,64,0
939.4817,939.56146,81,73,0
939.64124,939.7166,70,72,0
939.792,939.8674,77,64,0
939.792,939.8674,74,48,0
939.64124,939.94275,82,97,0
939.94275,940.0213,70,69,0
940.0998,940.191,77,58,0
940.0998,940.191,74,42,0
940.2821,940.3594,82,69,0
940.4367,940.51404,86,53,0
940.4367,940.51404,89,62,0
940.2821,940.5914,94,96,0
940.5914,940.66144,82,69,0
940.5914,940.66144,94,78,0
940.73157,940.8065,86,53,0
940.73157,940.8065,89,62,0
940.73157,940.8065,94,78,0
940.88153,940.95435,86,69,0
940.88153,940.95435,98,96,0
941.02716,941.1,89,62,0
941.02716,941.1,94,78,0
941.1728,941.2539,82,69,0
941.33496,941.4161,89,62,0
941.33496,941.4161,86,46,0
941.1728,941.49713,94,78,0
941.49713,941.57367,77,69,0
941.6502,941.72675,86,62,0
941.6502,941.72675,82,53,0
941.49713,941.8033,89,95,0
941.8033,941.8721,77,69,0
941.8033,941.8721,89,78,0
941.94086,942.0144,82,53,0
941.94086,942.0144,86,62,0
941.94086,942.0144,89,78,0
942.08795,942.16077,82,69,0
942.08795,942.16077,94,93,0
942.2336,942.3064,86,62,0
942.2336,942.3064,89,78,0
942.3792,942.4625,77,69,0
942.54584,942.6292,86,62,0
942.54584,942.6292,82,46,0
942.3792,942.7125,89,78,0
942.7125,942.7894,74,72,0
942.8664,942.9433,82,64,0
942.8664,942.9433,77,55,0
942.7125,943.0202,86,100,0
943.0202,943.09064,74,72,0
943.0202,943.09064,86,73,0
943.1611,943.2353,75,64,0
943.1611,943.2353,87,73,0
943.3096,943.38495,79,72,0
943.3096,943.42267,91,97,0
943.4603,943.5357,89,73,0
943.4603,943.5357,77,48,0
943.6111,943.69086,77,72,0
943.6111,943.69086,89,81,0
943.7706,943.8564,89,77,0
943.7706,943.8564,82,48,0
943.7706,943.8564,86,48,0
943.9421,944.0194,77,72,0
944.09674,944.1741,84,64,0
944.09674,944.1741,81,55,0
943.9421,944.2514,89,100,0
944.2514,944.3249,79,72,0
944.2514,944.3249,91,73,0
944.39844,944.4782,81,64,0
944.39844,944.4782,93,73,0
944.558,944.8595,82,72,0
944.558,944.8595,94,97,0
944.8595,945.4705,77,82,0
944.8595,945.4705,74,76,0
944.8595,945.4705,86,97,0
945.4705,945.5448,70,75,0
945.4705,945.5448,82,89,0
945.619,945.6968,65,69,0
945.619,945.6968,77,81,0
945.7745,945.84625,75,75,0
945.7745,945.84625,84,75,0
945.7745,945.84625,87,89,0
945.918,945.9898,75,69,0
945.918,945.9898,84,69,0
945.918,945.9898,87,81,0
946.2079,946.28107,74,69,0
946.2079,946.28107,77,69,0
946.2079,946.28107,86,81,0
946.35425,946.4274,77,75,0
946.35425,946.4274,74,75,0
946.35425,946.4274,86,89,0
946.50055,946.5737,75,70,0
946.50055,946.5737,72,70,0
946.50055,946.5737,84,82,0
946.6469,946.7201,74,70,0
946.6469,946.7201,70,70,0
946.6469,946.7201,82,82,0
946.7933,946.86646,72,70,0
946.7933,946.86646,69,70,0
946.7933,946.86646,81,82,0
946.9396,947.2411,70,67,0
946.9396,947.2411,82,91,0
947.2411,947.8621,77,81,0
947.2411,947.8621,74,76,0
947.2411,947.8621,86,97,0
947.8621,947.9322,70,75,0
947.8621,947.9322,82,89,0
948.0023,948.07886,65,69,0
948.0023,948.07886,77,81,0
948.1554,948.2275,75,75,0
948.1554,948.2275,84,75,0
948.1554,948.2275,87,89,0
948.2996,948.3717,75,69,0
948.2996,948.3717,84,69,0
948.2996,948.3717,87,81,0
948.59766,948.6712,74,69,0
948.59766,948.6712,77,69,0
948.59766,948.6712,86,81,0
948.74475,948.8183,77,75,0
948.74475,948.8183,74,75,0
948.74475,948.8183,86,89,0
948.8918,948.96533,75,70,0
948.8918,948.96533,72,70,0
948.8918,948.96533,84,82,0
949.0389,949.11237,74,70,0
949.0389,949.11237,70,70,0
949.0389,949.11237,82,82,0
949.1859,949.25946,72,70,0
949.1859,949.25946,69,70,0
949.1859,949.25946,81,82,0
949.333,949.4103,74,75,0
949.333,949.4103,70,75,0
949.333,949.4103,82,89,0
949.4876,949.56116,74,70,0
949.4876,949.56116,77,82,0
949.6347,949.7061,74,70,0
949.6347,949.7061,70,70,0
949.6347,949.7061,82,82,0
949.7775,949.85443,77,70,0
949.7775,949.85443,74,70,0
949.7775,949.85443,86,82,0
949.9314,950.0049,77,75,0
949.9314,950.0049,74,75,0
949.9314,950.0049,86,89,0
950.0784,950.152,75,70,0
950.0784,950.152,72,70,0
950.0784,950.152,84,82,0
950.2255,950.299,74,70,0
950.2255,950.299,70,70,0
950.2255,950.299,82,82,0
950.37256,950.4461,72,70,0
950.37256,950.4461,69,70,0
950.37256,950.4461,81,82,0
950.5196,950.5961,74,75,0
950.5196,950.5961,70,75,0
950.5196,950.5961,82,89,0
950.67267,950.7462,74,70,0
950.67267,950.7462,77,82,0
950.81976,950.8912,74,70,0
950.81976,950.8912,70,70,0
950.81976,950.8912,82,82,0
950.9626,951.0395,77,70,0
950.9626,951.0395,74,70,0
950.9626,951.0395,86,82,0
951.11646,951.18964,77,75,0
951.11646,951.18964,74,75,0
951.11646,951.18964,86,89,0
951.26276,951.33594,75,70,0
951.26276,951.33594,72,70,0
951.26276,951.33594,84,82,0
951.4091,951.4823,74,70,0
951.4091,951.4823,70,70,0
951.4091,951.4823,82,82,0
951.5555,951.62866,72,70,0
951.5555,951.62866,69,70,0
951.5555,951.62866,81,82,0
951.7018,952.15216,77,75,0
951.7018,952.15216,74,79,0
951.7018,952.15216,86,92,0
952.15216,952.3109,70,74,0
952.15216,952.3109,82,86,0
952.3109,952.7687,81,79,0
952.3109,952.7687,75,75,0
952.3109,952.7687,87,93,0
952.7687,952.9411,72,70,0
952.7687,952.9411,84,82,0
952.7687,952.9411,75,70,0
952.9411,953.0844,74,75,0
952.9411,953.0844,70,75,0
952.9411,953.0844,82,89,0
953.13214,953.17706,86,70,0
953.13214,953.17706,89,82,0
953.13214,953.17706,77,70,0
953.31177,953.3567,86,70,0
953.31177,953.3567,82,70,0
953.31177,953.3567,94,82,0
953.49146,953.5421,89,70,0
953.49146,953.5421,86,70,0
953.49146,953.5421,98,82,0
953.69415,953.7402,89,75,0
953.69415,953.7402,86,75,0
953.69415,953.7402,98,89,0
953.8782,953.9242,87,70,0
953.8782,953.9242,84,70,0
953.8782,953.9242,96,82,0
954.06226,954.1083,86,70,0
954.06226,954.1083,82,70,0
954.06226,954.1083,94,82,0
954.2463,954.2953,84,70,0
954.2463,954.2953,81,70,0
954.2463,954.2953,93,82,0
954.4424,954.5205,86,75,0
954.4424,954.5205,82,75,0
954.4424,954.5205,94,89,0
955.0408,955.3306,65,40,0
955.0408,955.3306,70,48,0
955.0408,955.3306,58,40,0
955.0408,955.3306,62,40,0
955.3306,955.4031,65,37,0
955.3306,955.4031,70,45,0
955.3306,955.4031,58,37,0
955.3306,955.4031,62,37,0
955.4755,955.55206,65,37,0
955.4755,955.55206,70,44,0
955.4755,955.55206,58,37,0
955.4755,955.55206,62,37,0
955.6286,955.91565,70,40,0
955.6286,955.91565,75,48,0
955.6286,955.91565,63,40,0
955.6286,955.91565,66,40,0
955.91565,956.20996,70,38,0
955.91565,956.20996,75,45,0
955.91565,956.20996,63,38,0
955.91565,956.20996,66,38,0
956.20996,956.4971,70,42,0
956.20996,956.4971,75,51,0
956.20996,956.4971,63,42,0
956.20996,956.4971,66,42,0
956.4971,956.5678,70,41,0
956.4971,956.5678,66,41,0
956.4971,956.5678,78,49,0
956.63855,956.71356,66,37,0
956.63855,956.71356,63,37,0
956.63855,956.71356,75,44,0
956.7886,957.07983,65,40,0
956.7886,957.07983,62,40,0
956.7886,957.07983,74,49,0
957.07983,957.3711,62,38,0
957.07983,957.3711,58,38,0
957.07983,957.3711,70,46,0
957.3711,957.66095,77,45,0
957.3711,957.66095,82,55,0
957.3711,957.66095,70,45,0
957.3711,957.66095,74,45,0
957.66095,957.7334,77,42,0
957.66095,957.7334,82,52,0
957.66095,957.7334,70,42,0
957.66095,957.7334,74,42,0
957.80585,957.8824,77,42,0
957.80585,957.8824,82,51,0
957.80585,957.8824,70,42,0
957.80585,957.8824,74,42,0
957.9589,958.24603,82,46,0
957.9589,958.24603,87,56,0
957.9589,958.24603,75,46,0
957.9589,958.24603,78,46,0
958.24603,958.5403,82,42,0
958.24603,958.5403,87,51,0
958.24603,958.5403,75,42,0
958.24603,958.5403,78,42,0
958.5403,958.8274,82,49,0
958.5403,958.8274,87,59,0
958.5403,958.8274,75,49,0
958.5403,958.8274,78,49,0
958.8274,958.89813,82,47,0
958.8274,958.89813,78,47,0
958.8274,958.89813,90,57,0
958.9689,959.0439,78,41,0
958.9689,959.0439,75,41,0
958.9689,959.0439,87,50,0
959.1189,959.41016,77,46,0
959.1189,959.41016,74,46,0
959.1189,959.41016,86,56,0
959.41016,959.7014,86,58,0
959.41016,959.7014,77,58,0
959.41016,959.7014,89,58,0
959.41016,959.7014,82,58,0
959.7014,959.98987,87,56,0
959.7014,959.98987,90,66,0
959.7014,959.98987,78,56,0
959.7014,959.98987,82,56,0
959.98987,960.2797,82,48,0
959.98987,960.2797,87,57,0
959.98987,960.2797,75,48,0
959.98987,960.2797,78,48,0
960.2797,960.56683,74,52,0
960.2797,960.56683,86,62,0
960.2797,960.56683,82,52,0
960.2797,960.56683,77,52,0
960.56683,960.8567,77,50,0
960.56683,960.8567,89,60,0
960.56683,960.8567,86,50,0
960.56683,960.8567,82,50,0
960.8567,961.1424,78,55,0
960.8567,961.1424,90,64,0
960.8567,961.1424,87,55,0
960.8567,961.1424,82,55,0
961.1424,961.43085,75,49,0
961.1424,961.43085,87,58,0
961.1424,961.43085,82,49,0
961.1424,961.43085,78,49,0
961.43085,961.7193,74,55,0
961.43085,961.7193,86,64,0
961.43085,961.7193,82,55,0
961.43085,961.7193,77,55,0
961.7193,962.0023,82,66,0
961.7193,962.0023,94,78,0
961.7193,962.0023,89,66,0
961.7193,962.0023,86,66,0
962.0023,962.2584,90,69,0
962.0023,962.2584,94,82,0
962.0023,962.2584,82,69,0
962.0023,962.2584,87,69,0
962.29504,962.54504,94,78,0
962.27673,962.54504,87,66,0
962.2584,962.54504,78,66,0
962.58075,962.8638,94,86,0
962.56287,962.8638,86,73,0
962.54504,962.8638,77,73,0
962.8638,963.1468,89,66,0
962.8638,963.1468,94,78,0
962.8638,963.1468,82,66,0
962.8638,963.1468,86,66,0
963.1468,963.3944,82,73,0
963.1468,963.3944,94,86,0
963.1468,963.3944,90,73,0
963.1468,963.3944,87,73,0
963.4298,963.68097,94,79,0
963.4121,963.68097,87,67,0
963.3944,963.68097,78,67,0
963.71686,964.0101,94,86,0
963.6989,964.0101,86,73,0
963.68097,964.0101,77,73,0
964.0101,964.14056,53,71,0
964.0844,964.2342,55,73,0
964.16144,964.3322,57,75,0
964.2606,964.35254,58,79,0
964.35254,964.4835,59,81,0
964.4284,964.55786,57,75,0
964.50336,964.6313,56,74,0
964.35254,964.6506,71,81,0
964.5775,964.7042,54,72,0
964.6506,964.7792,52,71,0
964.724,964.8561,51,69,0
964.7995,964.9495,49,68,0
964.8768,964.97595,47,67,0
964.97595,965.0975,48,62,0
965.06396,965.17084,49,64,0
965.13794,965.2427,51,67,0
965.2105,965.3137,52,69,0
965.28143,965.38794,54,71,0
965.3541,965.46576,56,73,0
965.43024,965.5534,58,75,0
965.50934,965.60724,60,78,0
965.60724,965.7297,61,84,0
965.6953,965.80493,59,78,0
965.7712,965.8787,57,75,0
965.60724,965.9187,73,84,0
965.84564,965.9516,55,73,0
965.9187,966.02637,54,71,0
965.99243,966.1037,52,69,0
966.06854,966.19086,50,66,0
966.14685,966.24475,49,63,0
966.24475,966.3426,50,62,0
966.3267,966.421,52,66,0
966.4055,966.4982,54,68,0
966.48285,966.5741,55,71,0
966.559,966.6491,57,74,0
966.63403,966.72595,59,77,0
966.71045,966.8087,61,79,0
966.7891,966.887,62,82,0
966.887,966.98224,63,84,0
966.96686,967.0583,62,78,0
967.0432,967.1332,60,75,0
966.887,967.1922,75,84,0
967.1182,967.2068,58,73,0
967.1922,967.2803,57,71,0
967.2691,967.3609,55,69,0
967.3415,967.4385,53,66,0
967.4191,967.51575,51,63,0
967.51575,967.613,50,60,0
967.59674,967.694,51,60,0
967.67773,967.77496,53,61,0
967.7587,967.85596,55,62,0
967.8397,967.918,57,63,0
967.90454,967.98285,58,64,0
967.96936,968.0476,60,64,0
968.0341,968.1124,62,66,0
968.09894,968.17725,63,67,0
968.1637,968.242,65,68,0
968.2285,968.3068,67,68,0
968.29333,968.3716,69,69,0
968.3581,968.4364,70,70,0
968.4229,968.5012,72,71,0
968.4877,968.566,74,71,0
968.5525,968.6308,75,72,0
968.6173,968.69556,77,73,0
968.68207,968.7604,79,73,0
968.7469,968.81165,81,74,0
968.81165,968.89966,70,62,0
968.89966,968.97363,72,64,0
968.97363,969.04626,74,67,0
969.04626,969.1172,75,69,0
968.81165,969.1172,82,84,0
969.1172,969.1898,77,71,0
969.1898,969.2659,79,73,0
969.2659,969.34503,81,75,0
969.34503,969.44293,82,78,0
969.44293,969.531,83,84,0
969.531,969.60693,81,78,0
969.60693,969.68134,80,75,0
969.68134,969.7544,78,73,0
969.44293,969.7544,95,84,0
969.7544,969.8281,76,71,0
969.8281,969.90424,75,69,0
969.90424,969.98254,73,66,0
969.98254,970.08044,71,63,0
970.08044,970.16846,72,62,0
970.16846,970.24243,73,64,0
970.24243,970.315,75,67,0
970.315,970.3859,76,69,0
970.3859,970.45856,78,71,0
970.45856,970.53467,80,73,0
970.53467,970.6138,82,75,0
970.6138,970.71173,84,78,0
970.71173,970.7998,85,84,0
970.7998,970.8757,83,78,0
970.8757,970.95013,81,75,0
970.95013,971.0232,79,73,0
970.71173,971.0232,97,84,0
971.0232,971.0969,78,71,0
971.0969,971.17303,76,69,0
971.17303,971.2513,74,66,0
971.2513,971.3492,73,63,0
971.3492,971.4372,74,62,0
971.4372,971.51117,76,64,0
971.51117,971.58374,78,67,0
971.58374,971.65466,79,69,0
971.65466,971.72736,81,71,0
971.72736,971.80347,83,73,0
971.80347,971.88257,85,75,0
971.88257,971.98047,86,78,0
971.98047,972.06854,87,84,0
972.06854,972.1444,86,78,0
972.1444,972.2189,84,75,0
972.2189,972.29193,82,73,0
971.98047,972.29193,99,84,0
972.29193,972.36566,81,71,0
972.36566,972.4418,79,69,0
972.4418,972.52,77,66,0
972.52,972.618,75,63,0
972.618,972.699,74,60,0
972.699,972.77997,75,60,0
972.77997,972.86096,77,61,0
972.86096,972.94196,79,62,0
972.94196,973.0067,81,63,0
973.0067,973.07153,82,64,0
973.07153,973.1363,84,64,0
973.1363,973.2011,86,66,0
973.2011,973.2659,87,67,0
973.2659,973.3469,89,70,0
973.3469,973.4279,91,72,0
973.4279,973.5089,93,73,0
973.5089,973.5899,94,75,0
973.5899,973.6709,96,77,0
973.6709,973.7519,98,79,0
973.7519,973.8329,99,80,0
973.8329,973.9139,100,82,0
973.9139,974.0191,98,72,0
973.9139,974.0191,89,72,0
973.9139,974.0191,101,85,0
974.0191,974.1244,94,75,0
974.1244,974.2165,89,75,0
974.2296,974.3287,86,68,0
974.2296,974.3287,89,80,0
974.3287,974.4343,82,73,0
974.4343,974.5467,77,73,0
974.5467,974.6498,86,61,0
974.5467,974.6498,89,72,0
974.6498,974.75287,82,63,0
974.75287,974.8431,77,63,0
974.85596,974.95905,74,57,0
974.85596,974.95905,77,68,0
974.95905,975.06213,70,61,0
975.06213,975.1652,65,61,0
975.1652,975.2789,69,69,0
975.1652,975.2789,75,82,0
975.1652,975.2789,77,82,0
975.1652,975.2789,65,69,0
975.3925,975.49457,57,55,0
975.3925,975.49457,63,64,0
975.3925,975.49457,65,64,0
975.3925,975.49457,53,55,0
975.5966,975.69867,57,55,0
975.5966,975.69867,63,64,0
975.5966,975.69867,65,64,0
975.5966,975.69867,53,55,0
975.80066,975.90485,58,56,0
975.80066,975.90485,63,67,0
975.80066,975.90485,65,67,0
975.80066,975.90485,53,56,0
976.00903,976.11774,59,61,0
976.00903,976.11774,63,73,0
976.00903,976.11774,65,73,0
976.00903,976.11774,53,61,0
976.22644,976.33826,60,67,0
976.22644,976.33826,63,79,0
976.22644,976.33826,65,79,0
976.22644,976.33826,53,67,0
976.4532,976.5585,98,72,0
976.4532,976.5585,89,72,0
976.4532,976.5585,101,85,0
976.5585,976.6637,94,75,0
976.6637,976.7558,89,75,0
976.769,976.867,86,68,0
976.769,976.867,89,80,0
976.867,976.9722,82,73,0
976.9722,977.0846,77,73,0
977.0846,977.1877,86,61,0
977.0846,977.1877,89,72,0
977.1877,977.2908,82,63,0
977.2908,977.381,77,63,0
977.39386,977.49695,74,57,0
977.39386,977.49695,77,68,0
977.49695,977.60004,70,61,0
977.60004,977.7031,65,61,0
977.7031,977.8168,69,69,0
977.7031,977.8168,75,82,0
977.7031,977.8168,77,82,0
977.7031,977.8168,65,69,0
977.9304,978.02655,57,55,0
977.9304,978.02655,63,64,0
977.9304,978.02655,65,64,0
977.9304,978.02655,53,55,0
978.12274,978.2189,57,55,0
978.12274,978.2189,63,64,0
978.12274,978.2189,65,64,0
978.12274,978.2189,53,55,0
978.315,978.41406,58,56,0
978.315,978.41406,63,67,0
978.315,978.41406,65,67,0
978.315,978.41406,53,56,0
978.51306,978.6183,59,61,0
978.51306,978.6183,63,73,0
978.51306,978.6183,65,73,0
978.51306,978.6183,53,61,0
978.7236,978.8368,60,67,0
978.7236,978.8368,63,79,0
978.7236,978.8368,65,79,0
978.7236,978.8368,53,67,0
978.95807,979.06555,57,69,0
978.95807,979.06555,65,82,0
978.95807,979.06555,63,82,0
979.1731,979.2657,69,59,0
979.1731,979.2657,75,70,0
979.1731,979.2657,77,70,0
979.1731,979.2657,65,59,0
979.3583,979.45087,69,59,0
979.3583,979.45087,75,70,0
979.3583,979.45087,77,70,0
979.3583,979.45087,65,59,0
979.54346,979.63965,70,61,0
979.54346,979.63965,75,73,0
979.54346,979.63965,77,73,0
979.54346,979.63965,65,61,0
979.7358,979.8348,71,68,0
979.7358,979.8348,75,80,0
979.7358,979.8348,77,80,0
979.7358,979.8348,65,68,0
979.9338,980.0395,72,73,0
979.9338,980.0395,75,86,0
979.9338,980.0395,77,86,0
979.9338,980.0395,65,73,0
980.15186,980.25494,69,69,0
980.15186,980.25494,75,82,0
980.15186,980.25494,77,82,0
980.15186,980.25494,65,69,0
980.35803,980.4473,81,64,0
980.35803,980.4473,87,77,0
980.35803,980.4473,89,77,0
980.35803,980.4473,77,64,0
980.5366,980.6259,81,64,0
980.5366,980.6259,87,77,0
980.5366,980.6259,89,77,0
980.5366,980.6259,77,64,0
980.7152,980.8021,82,67,0
980.7152,980.8021,87,80,0
980.7152,980.8021,89,80,0
980.7152,980.8021,77,67,0
980.8891,980.9761,83,74,0
980.8891,980.9761,87,88,0
980.8891,980.9761,89,88,0
980.8891,980.9761,77,74,0
981.063,981.17065,84,80,0
981.063,981.17065,87,94,0
981.063,981.17065,89,94,0
981.063,981.17065,77,80,0
981.285,981.3855,81,75,0
981.285,981.3855,87,90,0
981.285,981.3855,89,90,0
981.285,981.3855,77,75,0
981.48596,981.5761,93,70,0
981.48596,981.5761,99,84,0
981.48596,981.5761,101,84,0
981.48596,981.5761,89,70,0
981.6662,981.7563,93,70,0
981.6662,981.7563,99,84,0
981.6662,981.7563,101,84,0
981.6662,981.7563,89,70,0
981.8464,981.9333,94,73,0
981.8464,981.9333,99,88,0
981.8464,981.9333,101,88,0
981.8464,981.9333,89,73,0
982.02026,982.10724,95,81,0
982.02026,982.10724,99,96,0
982.02026,982.10724,101,96,0
982.02026,982.10724,89,81,0
982.19415,982.2942,96,88,0
982.19415,982.2942,99,103,0
982.19415,982.2942,101,103,0
982.19415,982.2942,89,88,0
982.39417,982.49725,93,75,0
982.39417,982.49725,99,90,0
982.39417,982.49725,101,90,0
982.39417,982.49725,89,75,0
982.60034,982.6918,89,84,0
982.60034,982.6918,77,70,0
982.7835,982.8765,90,84,0
982.7835,982.8765,78,70,0
982.97064,983.06604,79,73,0
982.97064,983.06604,91,88,0
983.16266,983.2606,92,96,0
983.16266,983.2606,80,81,0
983.35864,983.4781,93,103,0
983.35864,983.4781,81,88,0
983.61053,983.92804,94,113,0
983.61053,983.92804,82,96,0
983.61053,983.92804,86,96,0
983.92804,983.9956,70,78,0
983.92804,983.9956,82,92,0
984.0632,984.13074,70,77,0
984.0632,984.13074,82,91,0
984.1983,984.26184,74,82,0
984.1983,984.26184,86,97,0
984.32544,984.40314,70,78,0
984.32544,984.40314,82,92,0
984.4767,984.6168,70,78,0
984.4767,984.6168,82,92,0
984.757,984.8211,65,82,0
984.757,984.8211,77,97,0
984.88525,984.9527,62,78,0
984.88525,984.9527,74,92,0
985.027,985.16986,62,78,0
985.027,985.16986,74,92,0
985.3127,985.3774,58,82,0
985.3127,985.3774,70,97,0
985.442,985.5218,53,78,0
985.442,985.5218,65,92,0
985.60156,985.7531,53,78,0
985.60156,985.7531,65,92,0
985.9236,986.24274,98,113,0
985.9236,986.24274,86,96,0
985.9236,986.24274,94,96,0
986.24274,986.3103,74,78,0
986.24274,986.3103,86,92,0
986.37787,986.44543,74,77,0
986.37787,986.44543,86,91,0
986.513,986.5771,77,82,0
986.513,986.5771,89,97,0
986.6412,986.7082,74,78,0
986.6412,986.7082,86,92,0
986.781,986.9182,74,78,0
986.781,986.9182,86,92,0
987.05457,987.11816,70,82,0
987.05457,987.11816,82,97,0
987.1817,987.2486,65,78,0
987.1817,987.2486,77,92,0
987.3221,987.46497,65,78,0
987.3221,987.46497,77,92,0
987.60785,987.6742,62,82,0
987.60785,987.6742,74,97,0
987.74054,987.8204,58,78,0
987.74054,987.8204,70,92,0
987.90015,988.05164,58,78,0
987.90015,988.05164,70,92,0
988.2165,988.53564,101,113,0
988.2165,988.53564,98,96,0
988.2165,988.53564,94,96,0
988.2165,988.53564,89,96,0
988.53564,988.6058,77,78,0
988.53564,988.6058,89,92,0
988.67584,988.7459,77,77,0
988.67584,988.7459,89,91,0
988.81604,988.8807,82,82,0
988.81604,988.8807,94,97,0
988.9453,989.0134,77,78,0
988.9453,989.0134,89,92,0
989.08844,989.22864,77,78,0
989.08844,989.22864,89,92,0
989.36884,989.43463,74,82,0
989.36884,989.43463,86,97,0
989.5004,989.5802,70,78,0
989.5004,989.5802,82,92,0
989.66,989.8011,70,78,0
989.66,989.8011,82,92,0
989.9467,990.02325,65,85,0
989.9467,990.02325,77,102,0
990.0998,990.18994,62,81,0
990.0998,990.18994,74,96,0
990.27515,990.4371,62,81,0
990.27515,990.4371,74,96,0
990.5966,990.7541,58,82,0
990.5966,990.7541,70,97,0
990.7541,990.87805,53,74,0
990.7541,990.87805,65,89,0
990.9194,991.0709,70,82,0
990.9194,991.0709,82,97,0
991.0709,991.189,65,71,0
991.0709,991.189,77,84,0
991.2284,991.3733,82,82,0
991.2284,991.3733,94,97,0
991.3733,991.49524,77,72,0
991.3733,991.49524,89,85,0
991.5359,991.6841,70,82,0
991.5359,991.6841,82,97,0
991.6841,991.80804,65,74,0
991.6841,991.80804,77,88,0
991.84937,992.0056,58,82,0
991.84937,992.0056,70,97,0
992.0056,992.13275,53,74,0
992.0056,992.13275,65,89,0
992.1751,992.3338,70,82,0
992.1751,992.3338,82,97,0
992.3338,992.46423,65,74,0
992.3338,992.46423,77,89,0
992.50775,992.6717,82,82,0
992.50775,992.6717,94,97,0
992.6717,992.76514,77,75,0
992.6717,992.76514,89,90,0
992.8586,993.0404,70,82,0
992.8586,993.0404,82,97,0
993.0404,993.14246,65,74,0
993.0404,993.14246,77,89,0
993.24445,993.43866,58,82,0
993.24445,993.43866,70,97,0
993.43866,993.5523,53,74,0
993.43866,993.5523,65,89,0
995.5038,996.1802,68,82,0
995.5038,996.1802,65,82,0
995.5038,996.1802,70,97,0
996.1802,997.0985,70,103,0
997.0985,997.40466,70,100,0
996.1802,997.40466,66,86,0
997.40466,998.0169,70,105,0
998.0169,998.69446,65,91,0
998.0169,998.69446,70,102,0
998.69446,999.62225,70,106,0
999.62225,999.9316,70,92,0
999.9316,1000.5501,70,99,0
998.69446,1000.5501,63,96,0
1000.5501,1001.2291,62,81,0
1000.5501,1001.2291,70,96,0
1001.2291,1001.8541,63,86,0
1001.2291,1001.8541,70,103,0
1001.8541,1002.4791,70,92,0
1001.8541,1002.4791,63,86,0
1002.4791,1003.1384,70,99,0
1002.4791,1003.1384,65,86,0
1002.4791,1003.1384,62,86,0
1003.1384,1003.88885,66,81,0
1003.1384,1003.88885,70,96,0
1003.1384,1003.88885,63,81,0
1003.88885,1004.04407,62,47,0
1003.88885,1004.04407,70,57,0
1003.88885,1004.04407,65,47,0
1003.88885,1004.04407,58,47,0
1004.0613,1004.20276,65,40,0
1004.0613,1004.20276,70,49,0
1004.0613,1004.20276,58,40,0
1004.0613,1004.20276,62,40,0
1004.2189,1004.362,65,40,0
1004.2189,1004.362,70,49,0
1004.2189,1004.362,58,40,0
1004.2189,1004.362,62,40,0
1004.37787,1004.44836,62,41,0
1004.37787,1004.44836,70,51,0
1004.37787,1004.44836,65,41,0
1004.37787,1004.44836,58,41,0
1004.5327,1004.60004,65,43,0
1004.5327,1004.60004,70,52,0
1004.5327,1004.60004,58,43,0
1004.5327,1004.60004,62,43,0
1004.68066,1004.7451,65,43,0
1004.68066,1004.7451,70,53,0
1004.68066,1004.7451,58,43,0
1004.68066,1004.7451,62,43,0
1004.8223,1004.8848,62,45,0
1004.8223,1004.8848,70,53,0
1004.8223,1004.8848,65,45,0
1004.8223,1004.8848,58,45,0
1004.96075,1005.0223,65,46,0
1004.96075,1005.0223,70,55,0
1004.96075,1005.0223,58,46,0
1004.96075,1005.0223,62,46,0
1005.0964,1005.1564,65,48,0
1005.0964,1005.1564,70,55,0
1005.0964,1005.1564,58,48,0
1005.0964,1005.1564,62,48,0
1005.2288,1005.287,62,48,0
1005.2288,1005.287,70,58,0
1005.2288,1005.287,65,48,0
1005.2288,1005.287,58,48,0
1005.3574,1005.4168,65,50,0
1005.3574,1005.4168,70,59,0
1005.3574,1005.4168,58,50,0
1005.3574,1005.4168,62,50,0
1005.4917,1005.555,65,50,0
1005.4917,1005.555,70,60,0
1005.4917,1005.555,58,50,0
1005.4917,1005.555,62,50,0
1005.6337,1005.773,65,68,0
1005.6337,1005.773,70,81,0
1005.6337,1005.773,58,68,0
1005.6337,1005.773,62,68,0
1005.773,1005.90985,62,66,0
1005.773,1005.90985,74,78,0
1005.90985,1006.0439,65,68,0
1005.90985,1006.0439,77,81,0
1006.0439,1006.175,70,72,0
1006.0439,1006.175,82,85,0
1006.175,1006.30365,74,74,0
1006.175,1006.30365,86,89,0
1006.30365,1006.4305,77,78,0
1006.30365,1006.4305,89,92,0
1006.4305,1006.5547,82,81,0
1006.4305,1006.5547,94,97,0
1006.5547,1006.6765,77,80,0
1006.5547,1006.6765,89,94,0
1006.6765,1006.79614,74,77,0
1006.6765,1006.79614,86,91,0
1006.79614,1006.9135,70,74,0
1006.79614,1006.9135,82,89,0
1006.9135,1007.0259,65,73,0
1006.9135,1007.0259,77,86,0
1007.0259,1007.12915,62,69,0
1007.0259,1007.12915,74,82,0
1007.12915,1007.25586,65,73,0
1007.12915,1007.25586,70,88,0
1007.12915,1007.25586,58,69,0
1007.12915,1007.25586,62,69,0
1007.37946,1007.5033,69,72,0
1007.37946,1007.5033,72,86,0
1007.37946,1007.5033,60,72,0
1007.37946,1007.5033,65,72,0
1007.6273,1007.751,70,75,0
1007.6273,1007.751,74,89,0
1007.6273,1007.751,62,75,0
1007.6273,1007.751,65,75,0
1007.87396,1007.9961,72,78,0
1007.87396,1007.9961,77,92,0
1007.87396,1007.9961,65,78,0
1007.87396,1007.9961,69,78,0
1008.1179,1008.24084,77,80,0
1008.1179,1008.24084,82,94,0
1008.1179,1008.24084,70,80,0
1008.1179,1008.24084,74,80,0
1008.3646,1008.4892,72,84,0
1008.3646,1008.4892,84,99,0
1008.3646,1008.4892,81,84,0
1008.3646,1008.4892,77,84,0
1008.6143,1008.74146,74,85,0
1008.6143,1008.74146,86,102,0
1008.6143,1008.74146,82,85,0
1008.6143,1008.74146,77,85,0
1008.8726,1009.008,77,88,0
1008.8726,1009.008,89,104,0
1008.8726,1009.008,84,88,0
1008.8726,1009.008,81,88,0
1009.1478,1009.42694,74,91,0
1009.1478,1009.42694,86,108,0
1009.1478,1009.42694,82,91,0
1009.1478,1009.42694,77,91,0
1009.706,1009.9973,82,97,0
1009.706,1009.9973,94,115,0
1009.706,1009.9973,89,97,0
1009.706,1009.9973,86,97,0
1010.2886,1010.5799,53,96,0
1010.2886,1010.5799,50,96,0
1010.2886,1010.5799,58,114,0
1.2808918,2.0430157,53,63,0
1.0976171,2.0430157,38,46,0
1.1634936,2.0430157,45,51,0
1.2243999,2.0430157,50,55,0
2.23746,3.936897,55,48,0
2.0430157,3.936897,40,44,0
2.1123655,3.936897,45,48,0
2.177011,3.936897,49,53,0
3.936897,4.857142,45,50,0
3.936897,4.857142,50,59,0
3.936897,4.857142,53,59,0
3.936897,4.857142,41,50,0
4.857142,5.882958,48,51,0
4.857142,5.882958,52,60,0
4.857142,5.882958,40,51,0
4.857142,5.882958,45,51,0
5.882958,6.835339,48,54,0
5.882958,6.835339,51,59,0
5.882958,6.835339,39,40,0
5.882958,6.835339,45,45,0
6.835339,7.8697715,48,47,0
6.835339,7.8697715,39,47,0
6.835339,7.8697715,51,56,0
7.8697715,8.770767,48,44,0
7.8697715,8.770767,39,39,0
7.8697715,8.770767,51,53,0
8.770767,9.757757,48,44,0
8.770767,9.757757,39,45,0
8.770767,9.757757,51,62,0
9.757757,11.516499,45,58,0
9.757757,11.516499,48,69,0
11.516499,13.451438,44,51,0
11.516499,13.451438,47,61,0
13.66445,15.802075,49,64,0
13.451438,15.802075,33,64,0
13.530921,15.802075,40,56,0
13.601404,15.802075,45,59,0
17.890026,18.190025,35,50,0
17.890026,18.190025,43,60,0
17.890026,18.190025,50,72,0
18.190025,18.666216,36,55,0
18.190025,18.666216,43,66,0
18.190025,18.666216,52,79,0
19.142406,19.618597,36,50,0
19.142406,19.618597,43,59,0
19.142406,19.618597,51,71,0
20.489525,20.884262,38,53,0
20.489525,20.884262,50,73,0
20.489525,20.884262,47,73,0
20.884262,21.384262,40,55,0
20.884262,21.384262,46,66,0
20.884262,21.384262,49,79,0
21.884262,22.384262,40,54,0
21.884262,22.384262,46,63,0
21.884262,22.384262,49,74,0
23.884262,24.920055,39,27,0
23.884262,24.920055,48,33,0
24.920055,25.819288,38,30,0
24.920055,25.819288,47,32,0
24.920055,25.819288,50,41,0
25.819288,26.802221,37,39,0
25.819288,26.802221,46,44,0
25.819288,26.802221,52,54,0
26.802221,27.670578,45,56,0
26.802221,27.670578,43,56,0
27.670578,29.7116,42,51,0
27.670578,29.7116,45,61,0
29.895895,32.43594,47,64,0
29.7116,32.43594,31,77,0
29.778557,32.43594,38,56,0
29.840034,32.43594,43,59,0
35.207973,35.584606,41,69,0
35.207973,35.584606,35,69,0
35.207973,35.584606,44,77,0
37.188995,37.558937,41,66,0
37.188995,37.558937,44,74,0
37.188995,37.558937,35,66,0
36.21029,37.64767,53,66,0
36.21029,37.64767,62,74,0
36.21029,37.64767,50,66,0
36.21029,37.64767,56,66,0
38.178318,38.874306,62,74,0
38.178318,38.874306,50,74,0
38.178318,38.874306,53,74,0
38.178318,38.874306,56,74,0
39.239338,39.626484,44,81,0
39.239338,39.626484,41,75,0
39.239338,39.626484,35,70,0
43.498302,43.881443,40,72,0
43.498302,43.881443,37,72,0
43.498302,43.881443,43,81,0
45.504753,45.873245,43,78,0
45.504753,45.873245,40,69,0
45.504753,45.873245,37,69,0
44.53712,45.962147,52,69,0
44.53712,45.962147,57,78,0
44.53712,45.962147,49,69,0
44.53712,45.962147,55,69,0
46.499157,47.19588,57,78,0
46.499157,47.19588,49,78,0
46.499157,47.19588,52,78,0
46.499157,47.19588,55,78,0
47.548374,47.940582,43,82,0
47.548374,47.940582,40,75,0
47.548374,47.940582,37,70,0
51.340836,52.128025,53,44,0
51.120293,52.128025,38,33,0
51.193806,52.128025,45,39,0
51.267323,52.128025,50,45,0
52.34025,54.131363,55,39,0
52.128025,54.131363,40,32,0
52.198765,54.131363,45,32,0
52.26951,54.131363,49,32,0
54.21468,55.131195,53,35,0
54.131363,55.131195,41,26,0
54.159134,55.131195,45,29,0
54.18691,55.131195,50,32,0
55.19266,56.183605,52,40,0
55.131195,56.183605,40,32,0
55.151684,56.183605,45,35,0
55.172173,56.183605,48,37,0
56.183605,57.135456,48,38,0
56.183605,57.135456,39,41,0
56.183605,57.135456,51,49,0
57.135456,58.075745,48,36,0
57.135456,58.075745,39,36,0
57.135456,58.075745,51,42,0
58.075745,59.00153,48,37,0
58.075745,59.00153,39,37,0
58.075745,59.00153,51,44,0
59.00153,59.95579,48,39,0
59.00153,59.95579,39,39,0
59.00153,59.95579,51,46,0
59.95579,61.84575,48,61,0
59.95579,61.84575,45,61,0
61.84575,63.686714,47,57,0
61.84575,63.686714,44,57,0
63.756416,65.56775,49,46,0
63.686714,65.56775,33,46,0
63.71075,65.56775,40,46,0
63.734097,65.56775,45,46,0
70.50141,70.94856,50,51,0
70.50141,70.94856,43,43,0
70.50141,70.94856,35,36,0
70.94856,71.3936,36,39,0
70.94856,71.3936,43,46,0
70.94856,71.3936,52,56,0
71.83864,72.283676,36,36,0
71.83864,72.283676,43,42,0
71.83864,72.283676,51,50,0
73.184616,73.63877,38,37,0
73.184616,73.63877,50,52,0
73.184616,73.63877,47,52,0
73.63877,74.081184,40,39,0
73.63877,74.081184,46,46,0
73.63877,74.081184,49,56,0
74.52359,74.97966,40,38,0
74.52359,74.97966,46,45,0
74.52359,74.97966,49,53,0
76.32055,77.19251,39,33,0
76.32055,77.19251,48,40,0
77.19251,78.06448,38,32,0
77.19251,78.06448,47,35,0
77.19251,78.06448,50,44,0
78.06448,78.954384,37,38,0
78.06448,78.954384,46,42,0
78.06448,78.954384,52,53,0
78.954384,79.826355,45,57,0
78.954384,79.826355,43,54,0
79.826355,81.59969,42,51,0
79.826355,81.59969,45,61,0
81.65984,82.07144,47,46,0
81.59969,82.07144,31,45,0
81.62004,82.07144,38,45,0
81.639946,82.07144,43,46,0
85.28586,85.51379,31,53,0
85.51379,85.74092,30,46,0
85.74092,85.96544,31,53,0
85.96544,86.18943,30,47,0
86.18943,86.41064,31,46,0
86.41064,86.6316,32,51,0
86.6316,86.849594,33,54,0
86.849594,87.00039,34,58,0
87.083984,87.30198,47,65,0
87.04218,87.30198,41,58,0
87.00039,87.30198,35,52,0
87.021286,87.30198,38,54,0
87.06309,87.30198,44,62,0
87.30198,87.519966,36,49,0
87.30198,87.519966,48,58,0
87.519966,87.73796,35,49,0
87.519966,87.73796,47,58,0
87.73796,87.97235,36,45,0
87.73796,87.97235,48,54,0
87.97235,88.081345,41,58,0
87.97235,88.13585,35,58,0
87.97235,88.13585,38,58,0
87.97235,88.13585,44,58,0
87.97235,88.13585,47,58,0
88.190346,88.4265,39,50,0
88.190346,88.4265,51,59,0
88.40833,88.64449,50,58,0
88.40833,88.64449,38,49,0
88.62633,88.844315,48,56,0
88.62633,88.844315,36,47,0
88.844315,89.06231,35,51,0
88.844315,89.06231,47,61,0
89.06231,89.280304,36,46,0
89.06231,89.280304,48,55,0
89.280304,89.49829,35,50,0
89.280304,89.49829,47,59,0
89.49829,89.649086,48,55,0
89.49829,89.649086,36,55,0
89.73269,89.947556,47,59,0
89.69089,89.947556,41,55,0
89.649086,89.947556,35,53,0
89.66999,89.947556,38,54,0
89.711784,89.947556,44,57,0
89.947556,90.18033,40,47,0
89.947556,90.18033,52,56,0
90.16242,90.395195,50,58,0
90.16242,90.395195,38,49,0
90.37729,90.52653,48,57,0
90.37729,90.52653,36,48,0
90.61012,90.82499,47,65,0
90.56833,90.82499,41,58,0
90.52653,90.82499,35,52,0
90.547424,90.82499,38,54,0
90.589226,90.82499,44,62,0
90.82499,91.03986,36,49,0
90.82499,91.03986,48,58,0
91.03986,91.25473,38,51,0
91.03986,91.25473,50,61,0
91.25473,91.4696,40,49,0
91.25473,91.4696,52,58,0
91.4696,91.681435,41,49,0
91.4696,91.681435,53,58,0
91.681435,91.89327,44,51,0
91.681435,91.89327,56,61,0
91.89327,92.1051,45,54,0
91.89327,92.1051,57,63,0
92.1051,92.33043,59,66,0
92.1051,92.33043,47,66,0
92.33043,92.545296,47,57,0
92.33043,92.545296,59,68,0
92.545296,92.76017,45,56,0
92.545296,92.76017,57,67,0
92.76017,92.97504,44,55,0
92.76017,92.97504,56,66,0
92.97504,93.1899,41,54,0
92.97504,93.1899,53,64,0
93.1899,93.40182,40,54,0
93.1899,93.40182,52,63,0
93.40182,93.615746,38,53,0
93.40182,93.615746,50,63,0
93.615746,93.83192,36,51,0
93.615746,93.83192,48,61,0
93.83192,93.97725,35,50,0
93.83192,93.97725,47,60,0
94.05034,94.271545,49,65,0
94.01358,94.271545,43,58,0
93.97725,94.271545,37,52,0
93.995415,94.271545,40,54,0
94.031906,94.271545,45,62,0
94.271545,94.49275,38,49,0
94.271545,94.49275,50,58,0
94.49275,94.71396,37,49,0
94.49275,94.71396,49,58,0
94.71396,94.935165,38,45,0
94.71396,94.935165,50,54,0
94.935165,95.0527,43,58,0
94.935165,95.111465,37,58,0
94.935165,95.111465,40,58,0
94.935165,95.111465,45,58,0
94.935165,95.111465,49,58,0
95.170235,95.391624,41,50,0
95.170235,95.391624,53,59,0
95.37346,95.60962,52,58,0
95.37346,95.60962,40,49,0
95.59145,95.80944,50,56,0
95.59145,95.80944,38,47,0
95.80944,96.03065,37,51,0
95.80944,96.03065,49,61,0
96.03065,96.251854,38,46,0
96.03065,96.251854,50,55,0
96.251854,96.47306,37,50,0
96.251854,96.47306,49,59,0
96.47306,96.62054,50,55,0
96.47306,96.62054,38,55,0
96.69427,96.915474,49,59,0
96.6574,96.915474,43,55,0
96.62054,96.915474,37,53,0
96.63897,96.915474,40,54,0
96.675835,96.915474,45,57,0
96.915474,97.15511,41,47,0
96.915474,97.15511,53,56,0
97.13668,97.37632,52,58,0
97.13668,97.37632,40,49,0
97.35789,97.579094,50,57,0
97.35789,97.579094,38,48,0
97.579094,97.80361,49,36,0
97.579094,97.80361,37,36,0
97.80361,98.02813,38,35,0
97.80361,98.02813,50,35,0
98.02813,98.25265,40,37,0
98.02813,98.25265,52,37,0
98.25265,98.476295,41,35,0
98.25265,98.476295,53,35,0
98.476295,98.69428,43,37,0
98.476295,98.69428,55,37,0
98.69428,98.908646,57,39,0
98.69428,98.91228,45,39,0
98.91228,99.130264,46,42,0
98.91228,99.130264,58,42,0
99.130264,99.37203,61,45,0
99.130264,99.37203,49,45,0
99.37203,99.59591,49,46,0
99.37203,99.59591,61,46,0
99.59591,99.81979,46,47,0
99.59591,99.81979,58,47,0
99.81979,100.03106,45,47,0
99.81979,100.03106,57,47,0
100.03106,100.20449,43,47,0
100.03106,100.20449,55,47,0
100.20449,100.41283,41,46,0
100.20449,100.41283,53,46,0
100.41283,100.621155,40,46,0
100.41283,100.621155,52,46,0
100.621155,100.84504,38,46,0
100.621155,100.84504,50,46,0
100.84504,101.07452,37,45,0
100.84504,101.07452,49,45,0
101.07452,101.28938,50,53,0
101.07452,101.28938,38,53,0
101.28938,101.50425,40,51,0
101.28938,101.50425,52,51,0
101.50425,101.70973,41,53,0
101.50425,101.70973,53,53,0
101.70973,101.88911,43,47,0
101.70973,101.88911,55,47,0
101.88911,102.09458,45,51,0
101.88911,102.09458,57,51,0
102.09458,102.29664,58,53,0
102.09458,102.300064,46,53,0
102.300064,102.517456,49,54,0
102.300064,102.517456,61,54,0
102.517456,102.73451,62,56,0
102.517456,102.73451,50,56,0
102.73451,102.94938,51,59,0
102.73451,102.94938,63,59,0
102.94938,103.164246,48,57,0
102.94938,103.164246,60,57,0
103.164246,103.35184,47,56,0
103.164246,103.35184,59,56,0
103.35184,103.52527,45,55,0
103.35184,103.52527,57,55,0
103.52527,103.72797,43,54,0
103.52527,103.72797,55,54,0
103.72797,103.93067,42,53,0
103.72797,103.93067,54,53,0
103.93067,104.14194,40,52,0
103.93067,104.14194,52,52,0
104.14194,104.36511,39,50,0
104.14194,104.36511,51,50,0
104.36511,104.57694,52,58,0
104.36511,104.57694,40,58,0
104.57694,104.78878,42,56,0
104.57694,104.78878,54,56,0
104.78878,104.986145,44,58,0
104.78878,104.986145,56,58,0
104.986145,105.186264,45,53,0
104.986145,105.186264,57,53,0
105.186264,105.39175,47,56,0
105.186264,105.39175,59,56,0
105.39175,105.593796,60,58,0
105.39175,105.59722,48,58,0
105.59722,105.81461,50,61,0
105.59722,105.81461,62,61,0
105.81461,106.03167,64,63,0
105.81461,106.03167,52,63,0
106.03167,106.24654,52,65,0
106.03167,106.24654,64,65,0
106.24654,106.46141,50,63,0
106.24654,106.46141,62,63,0
106.46141,106.664635,49,63,0
106.46141,106.664635,61,63,0
106.664635,106.86786,46,62,0
106.664635,106.86786,58,62,0
106.86786,107.082726,45,60,0
106.86786,107.082726,57,60,0
107.082726,107.29759,43,58,0
107.082726,107.29759,55,58,0
107.29759,107.51247,41,57,0
107.29759,107.51247,53,57,0
107.51247,107.85014,40,55,0
107.51247,107.85014,52,55,0
107.85014,108.30373,41,32,0
107.85014,109.58464,53,38,0
107.85014,109.58464,46,32,0
107.85014,109.58464,50,32,0
109.58464,110.07134,41,51,0
109.60561,111.382744,46,53,0
109.64755,111.382744,58,54,0
109.62658,111.382744,50,54,0
111.32742,111.813866,41,54,0
111.364525,113.029526,51,54,0
111.346306,113.029526,48,54,0
111.382744,113.029526,56,64,0
114.90147,115.35505,42,32,0
114.90147,116.62136,54,38,0
114.90147,116.62136,47,32,0
114.90147,116.62136,51,32,0
116.62136,117.103195,42,51,0
116.64071,118.41416,47,53,0
116.679405,118.41416,59,54,0
116.66006,118.41416,51,54,0
118.359276,118.8369,42,54,0
118.39631,120.03972,52,54,0
118.37816,120.03972,49,54,0
118.41416,120.03972,57,64,0
121.74548,122.219986,43,58,0
121.7637,123.43253,49,60,0
121.7814,123.43253,52,61,0
121.7991,123.43253,58,63,0
123.43253,123.891335,44,59,0
123.45188,125.096275,48,61,0
123.47122,125.096275,53,62,0
123.49057,125.096275,56,63,0
125.096275,125.56839,45,62,0
125.113976,126.764145,51,63,0
125.13168,126.764145,54,66,0
125.14938,126.764145,60,70,0
126.764145,127.20835,46,65,0
126.783195,128.39497,50,67,0
126.802246,128.39497,55,69,0
126.8213,128.39497,58,71,0
128.85979,129.06357,41,52,0
128.85979,129.06357,44,62,0
128.85979,129.06357,35,52,0
128.42976,129.2164,56,66,0
128.39497,129.2164,47,63,0
128.41243,129.2164,53,64,0
128.44698,129.2164,62,69,0
129.67201,129.87578,41,51,0
129.67201,129.87578,44,61,0
129.67201,129.87578,35,51,0
130.07883,130.27988,44,51,0
130.07883,130.27988,50,61,0
130.07883,130.27988,41,51,0
130.48093,130.68196,41,51,0
130.48093,130.68196,44,61,0
130.48093,130.68196,35,51,0
129.25024,130.83275,56,64,0
129.2164,130.83275,47,61,0
129.23338,130.83275,53,63,0
129.267,130.83275,62,67,0
131.2796,131.478,41,54,0
131.2796,131.478,44,63,0
131.2796,131.478,35,54,0
130.86626,131.62674,56,66,0
130.83275,131.62674,47,63,0
130.8495,131.62674,53,65,0
130.88284,131.62674,62,68,0
132.06729,132.26308,41,49,0
132.06729,132.26308,44,58,0
132.06729,132.26308,35,49,0
132.45888,132.65552,44,54,0
132.45888,132.65552,50,64,0
132.45888,132.65552,41,54,0
131.62674,132.78882,47,63,0
131.64307,132.80557,53,65,0
131.65938,132.82233,56,67,0
131.67569,132.83919,62,69,0
132.85617,133.06087,53,59,0
132.85617,133.06087,47,59,0
132.85617,133.06087,56,70,0
133.26991,133.48235,56,64,0
133.26991,133.48235,53,64,0
133.26991,133.48235,62,76,0
135.3811,135.58487,43,52,0
135.3811,135.58487,45,62,0
135.3811,135.58487,37,52,0
134.96828,135.78831,49,64,0
134.96828,135.78831,57,69,0
134.96828,135.78831,55,66,0
136.19331,136.3971,43,51,0
136.19331,136.3971,45,61,0
136.19331,136.3971,37,51,0
136.60014,136.80118,45,51,0
136.60014,136.80118,52,61,0
136.60014,136.80118,43,51,0
137.00223,137.20328,43,51,0
137.00223,137.20328,45,61,0
137.00223,137.20328,37,51,0
135.78831,137.40414,57,67,0
135.78831,137.40414,55,64,0
135.78831,137.40414,49,63,0
137.80092,137.9993,43,54,0
137.80092,137.9993,45,63,0
137.80092,137.9993,37,54,0
137.40414,138.197,49,65,0
137.40414,138.197,57,68,0
137.40414,138.197,55,66,0
138.5886,138.7844,43,49,0
138.5886,138.7844,45,58,0
138.5886,138.7844,37,49,0
138.197,138.93124,57,69,0
138.197,138.9802,55,67,0
138.197,138.9802,49,65,0
138.9802,139.17682,45,54,0
138.9802,139.17682,43,54,0
138.9802,139.17682,52,64,0
139.37749,139.58217,55,59,0
139.37749,139.58217,49,59,0
139.37749,139.58217,57,70,0
139.79121,140.00365,67,64,0
139.79121,140.00365,61,64,0
139.79121,140.00365,69,76,0
139.79121,140.00365,64,64,0
141.49069,143.19017,57,60,0
143.19017,144.88965,54,56,0
144.88965,146.58913,50,60,0
146.58913,147.78053,58,57,0
147.78053,148.1858,58,55,0
148.1858,148.3933,30,40,0
148.3933,148.59692,31,41,0
148.59692,148.79694,32,43,0
148.79694,148.99294,33,44,0
148.99294,149.18558,34,45,0
149.18558,149.3745,35,46,0
149.3745,149.5603,36,49,0
149.5603,149.74251,37,53,0
149.74251,149.92065,38,55,0
149.92065,150.0988,39,59,0
150.0988,150.27527,40,62,0
150.27527,150.45132,41,65,0
150.45132,151.1827,48,68,0
150.45132,151.1827,42,68,0
151.1827,151.39188,43,68,0
151.39188,151.59698,42,65,0
151.59698,151.79735,41,63,0
151.79735,151.99335,40,61,0
151.99335,152.18567,39,59,0
152.18567,152.37396,38,56,0
152.37396,152.55885,37,54,0
152.55885,152.74031,36,48,0
151.1827,152.74031,48,68,0
152.74031,152.91861,35,47,0
152.91861,153.09676,34,46,0
153.09676,153.27744,33,45,0
153.27744,153.41484,32,45,0
152.74031,153.46024,47,47,0
153.46024,153.65466,46,48,0
153.43755,153.65466,38,44,0
153.41484,153.65466,31,38,0
154.25621,155.95569,51,60,0
155.95569,157.2303,58,56,0
157.2303,157.65517,58,55,0
157.65517,159.35464,49,60,0
159.35464,160.95132,53,57,0
160.95132,161.16312,32,27,0
160.95132,161.16312,35,37,0
161.16312,161.3729,33,32,0
161.16312,161.3729,36,37,0
161.3729,161.57915,34,34,0
161.3729,161.57915,37,39,0
161.57915,161.7817,35,35,0
161.57915,161.7817,38,41,0
161.7817,161.98065,36,36,0
161.7817,161.98065,39,42,0
161.98065,162.17673,37,38,0
161.98065,162.17673,40,44,0
162.17673,162.3697,38,40,0
162.17673,162.3697,41,45,0
162.3697,162.55945,39,42,0
162.3697,162.55945,42,47,0
162.55945,162.74603,40,43,0
162.55945,162.74603,43,48,0
162.74603,162.93211,41,45,0
162.74603,162.93211,44,50,0
162.93211,163.11717,42,46,0
162.93211,163.11717,45,52,0
163.11717,163.30096,43,47,0
163.11717,163.30096,46,53,0
163.30096,164.0542,47,54,0
163.30096,164.0542,44,49,0
164.0542,164.2021,45,54,0
164.2021,164.3485,47,54,0
164.2021,164.3485,44,48,0
164.3485,164.49362,46,52,0
164.3485,164.49362,43,46,0
164.49362,164.63728,45,51,0
164.49362,164.63728,42,45,0
164.63728,164.77911,44,50,0
164.63728,164.77911,41,45,0
164.77911,164.91974,43,48,0
164.77911,164.91974,40,43,0
164.91974,165.0588,42,47,0
164.91974,165.0588,39,42,0
165.0588,165.19653,41,46,0
165.0588,165.19653,38,41,0
165.19653,165.33257,40,45,0
165.19653,165.33257,37,39,0
165.33257,165.46751,39,44,0
165.33257,165.46751,36,38,0
165.46751,165.60136,38,43,0
165.46751,165.60136,35,37,0
165.60136,165.73416,37,41,0
165.60136,165.73416,34,36,0
165.73416,166.13202,36,48,0
165.73416,166.13202,33,31,0
166.42319,166.51445,57,43,0
166.42319,166.51445,69,48,0
166.51445,166.9074,57,49,0
166.51445,166.9074,69,54,0
167.20895,167.27646,57,54,0
167.20895,167.27646,45,46,0
167.3104,167.44551,45,45,0
167.44551,167.57623,46,25,0
167.57623,167.70374,47,26,0
167.27646,167.82927,48,47,0
167.70374,167.82927,48,27,0
167.82927,167.95207,49,28,0
167.95207,168.07306,50,30,0
167.3104,168.07306,40,47,0
167.29344,168.07306,52,47,0
167.3104,168.07306,36,47,0
168.07306,168.1915,51,31,0
168.1915,168.30827,52,32,0
168.30827,168.42662,53,34,0
168.42662,168.5369,54,35,0
168.5369,168.64717,55,36,0
168.64717,168.75745,56,36,0
168.75745,168.88673,57,53,0
168.75745,168.88673,52,53,0
168.75745,168.88673,48,53,0
168.88673,169.01312,57,52,0
169.01312,169.13835,56,38,0
169.13835,169.26146,55,38,0
169.26146,169.38306,54,37,0
169.38306,169.50291,53,36,0
168.88673,169.62108,52,52,0
169.50291,169.62108,52,36,0
168.88673,169.62108,48,52,0
169.62108,169.73785,51,36,0
169.73785,169.85298,50,35,0
169.85298,169.96632,49,34,0
169.96632,170.07346,48,34,0
170.07346,170.18057,47,33,0
170.18057,170.2877,46,33,0
170.2877,170.4062,45,50,0
170.2877,170.4062,36,50,0
170.4062,170.53435,46,45,0
170.53435,170.66087,47,34,0
170.66087,170.78581,48,35,0
170.78581,170.90923,49,36,0
170.90923,171.03082,50,36,0
171.03082,171.15097,51,37,0
170.4062,171.15097,38,47,0
171.15097,171.26968,52,38,0
171.26968,171.38701,53,39,0
171.38701,171.50298,54,40,0
171.50298,171.61327,55,41,0
171.61327,171.72354,56,42,0
171.72354,171.83382,57,43,0
171.83382,171.9631,58,54,0
171.83382,171.9631,53,54,0
171.83382,171.9631,50,54,0
171.9631,172.0895,59,52,0
172.0895,172.21472,58,45,0
172.21472,172.33781,57,45,0
172.33781,172.45914,56,44,0
172.45914,172.5787,55,44,0
171.9631,172.69655,54,52,0
172.5787,172.69655,54,43,0
171.9631,172.69655,51,52,0
172.69655,172.81277,53,42,0
172.8171,172.93195,52,41,0
172.92767,173.04102,51,40,0
173.04102,173.14815,50,39,0
173.14815,173.25526,49,39,0
173.25526,173.3624,48,39,0
173.3624,173.48842,47,50,0
173.3624,173.48842,39,35,0
173.48842,173.61462,48,45,0
173.61462,173.73895,49,40,0
173.73895,173.86113,50,41,0
173.86113,173.98126,51,42,0
173.98126,174.09943,52,43,0
174.09943,174.2159,53,44,0
173.48842,174.2159,40,54,0
174.2159,174.33028,54,44,0
174.33028,174.4431,55,45,0
174.4431,174.55414,56,45,0
174.55414,174.66441,57,46,0
174.66441,174.77469,58,47,0
174.77469,174.88498,59,45,0
174.88498,175.01308,60,45,0
174.88498,175.01308,57,45,0
174.88498,175.01308,52,45,0
175.01308,175.13802,61,55,0
175.13802,175.26143,60,51,0
175.26143,175.38303,59,49,0
175.38303,175.50317,58,47,0
175.50317,175.62161,57,46,0
175.62161,175.73866,56,45,0
175.01308,175.73866,55,55,0
175.01308,175.73866,52,55,0
175.73866,175.8541,55,45,0
175.85841,175.97247,54,44,0
175.96822,176.08075,53,43,0
176.08075,176.16565,52,41,0
176.16565,176.25285,51,41,0
176.25285,176.3425,50,40,0
176.3425,176.43509,49,50,0
176.3425,176.43509,43,50,0
176.3425,176.43509,40,50,0
176.43509,176.52766,50,42,0
176.52766,176.61949,51,41,0
176.61949,176.71059,52,42,0
176.71059,176.80093,53,42,0
176.80093,176.89021,54,43,0
176.89021,176.9786,55,44,0
176.9786,177.06631,56,45,0
177.06631,177.15335,57,45,0
176.43509,177.15335,41,49,0
177.15335,177.23955,58,45,0
177.23955,177.32494,59,46,0
177.32494,177.40952,60,47,0
177.40952,177.49345,61,48,0
177.49345,177.57678,62,49,0
177.57678,177.6592,63,49,0
177.6592,177.741,64,50,0
177.741,177.82208,65,51,0
177.82208,177.90257,66,52,0
177.90257,177.98235,67,52,0
177.98235,178.06143,68,53,0
178.06143,178.13995,69,54,0
178.13995,178.2178,70,54,0
178.2178,178.29512,71,55,0
178.29512,178.37164,72,55,0
178.37164,178.45784,73,56,0
178.45784,178.54404,74,65,0
178.54404,178.63007,73,57,0
178.63007,178.71529,72,58,0
178.71529,178.80019,71,56,0
178.80019,178.88445,70,55,0
178.88445,178.96823,69,54,0
178.96823,179.05156,68,54,0
179.05156,179.13412,67,53,0
179.13412,179.21652,66,52,0
179.21652,179.29803,65,51,0
179.29803,179.37941,64,50,0
179.37941,179.46004,63,49,0
179.46004,179.54025,62,48,0
179.54025,179.62003,61,47,0
179.62003,179.69925,60,46,0
179.69925,179.77818,59,45,0
179.77818,179.85645,58,44,0
179.85645,179.93442,57,44,0
179.93442,180.01173,56,42,0
180.01173,180.08879,55,41,0
180.08879,180.16531,54,40,0
180.16531,180.2418,53,39,0
180.2418,180.32164,52,38,0
180.32164,180.37737,51,50,0
180.39166,180.75906,50,63,0
180.37737,180.75906,41,63,0
180.40611,182.4317,58,82,0
182.59125,183.37392,58,74,0
183.4448,183.90433,57,74,0
183.41592,183.90433,41,69,0
183.43028,183.90433,51,72,0
183.45947,184.97736,60,82,0
185.38762,186.63239,51,79,0
186.63239,186.71571,48,45,0
186.63239,186.71571,52,56,0
186.63239,186.71571,40,45,0
186.63239,186.71571,45,45,0
186.71571,186.7985,53,41,0
186.7985,186.88068,54,42,0
186.88068,186.96219,55,42,0
186.96219,187.04291,56,43,0
187.04291,187.12318,57,44,0
187.12318,187.2029,58,45,0
187.2029,187.28183,59,45,0
187.28183,187.36015,60,45,0
187.36015,187.43806,61,46,0
187.43806,187.51538,62,47,0
187.51538,187.59196,63,48,0
187.59196,187.66805,64,49,0
187.66805,187.74373,63,50,0
187.74373,187.81873,62,51,0
187.81873,187.89316,61,51,0
187.89316,187.9671,60,52,0
187.9671,188.04063,59,53,0
188.04063,188.11415,58,54,0
188.11415,188.18767,57,54,0
188.18767,188.2609,56,54,0
188.2609,188.33371,55,55,0
188.33371,188.40651,54,56,0
188.40651,188.47932,53,57,0
188.47932,188.55173,52,58,0
188.55173,188.62383,51,59,0
188.62383,188.69594,50,59,0
188.69594,188.76805,49,60,0
188.76805,188.83965,48,61,0
188.83965,188.91106,47,62,0
188.91106,188.98248,46,63,0
188.98248,189.05391,45,63,0
189.05391,189.12471,44,63,0
189.12471,189.19547,43,64,0
189.19547,189.2662,42,65,0
189.2662,189.33743,41,66,0
189.33743,189.49048,40,67,0
189.33743,189.49048,52,80,0
189.33743,189.49048,48,67,0
189.33743,189.49048,45,67,0
189.94962,190.10266,48,66,0
189.94962,190.10266,53,79,0
189.94962,190.10266,38,66,0
189.94962,190.10266,45,66,0
191.79384,192.30894,54,47,0
191.68669,192.30894,39,42,0
191.74026,192.30894,47,45,0
191.82062,193.65028,57,49,0
191.8474,193.65028,59,49,0
193.70625,194.24251,52,47,0
193.55653,194.24251,40,42,0
193.65028,194.24251,47,45,0
193.73424,195.57594,57,49,0
193.76222,195.57594,59,49,0
195.57594,195.72005,59,56,0
195.57594,195.72005,57,56,0
195.76242,196.28055,50,47,0
195.72005,196.28055,41,42,0
195.74123,196.28055,47,45,0
195.76242,197.63222,57,49,0
195.76242,197.63222,59,49,0
198.52972,199.19923,41,34,0
198.58926,199.26872,47,36,0
198.66295,199.26872,51,40,0
198.73732,199.90623,57,42,0
198.73732,199.90623,59,42,0
200.02452,200.48853,56,37,0
199.98586,200.52719,52,36,0
199.90623,200.52719,40,33,0
199.94711,200.52719,47,35,0
200.06319,200.52719,59,40,0
210.8062,211.78424,74,34,0
211.78424,211.87857,76,32,0
211.87857,211.97289,74,28,0
211.97289,212.06721,73,28,0
212.06721,213.06699,71,36,0
213.06699,213.15956,73,36,0
213.15956,213.25214,71,32,0
213.25214,213.34471,69,32,0
213.34471,214.96,68,42,0
213.34471,214.96,62,35,0
214.96,215.1683,68,34,0
214.96,215.1683,61,34,0
215.23773,215.44225,68,38,0
215.23773,215.44225,61,38,0
215.5092,215.71005,73,35,0
215.5092,215.71005,67,35,0
215.77583,215.97203,73,38,0
215.77583,215.97203,67,38,0
216.03667,216.2295,73,34,0
216.03667,216.2295,66,34,0
216.29306,216.48158,73,38,0
216.29306,216.48158,66,38,0
216.54678,216.71721,78,36,0
216.54678,216.71721,72,36,0
216.80977,218.40831,78,38,0
216.71721,218.40831,72,38,0
218.40831,218.62103,78,38,0
218.40831,218.62103,71,33,0
218.62103,218.83376,77,35,0
218.62103,218.83376,71,29,0
218.83376,219.04648,76,38,0
218.83376,219.04648,72,33,0
219.04648,219.2592,76,34,0
219.04648,219.2592,70,28,0
219.2592,219.4748,75,38,0
219.2592,219.4748,71,33,0
219.4748,219.71823,74,36,0
219.4748,219.71823,68,30,0
219.71823,219.94484,73,38,0
219.71823,219.94484,69,33,0
219.94484,220.18005,72,35,0
219.94484,220.18005,66,29,0
220.18005,220.43573,71,38,0
220.18005,220.43573,67,33,0
220.43573,220.71732,70,35,0
220.43573,220.71732,64,29,0
220.71732,220.90756,69,38,0
220.71732,220.90756,65,33,0
221.02997,221.42934,69,36,0
221.02997,221.42934,62,30,0
221.87025,222.33304,62,32,0
221.87025,222.33304,69,38,0
222.38658,222.86856,64,32,0
222.38658,222.86856,69,38,0
222.9221,223.40408,65,31,0
222.9221,223.40408,69,37,0
225.59972,226.0817,62,31,0
225.59972,226.0817,69,37,0
226.13524,226.61722,62,30,0
226.13524,226.61722,69,36,0
226.67076,227.15274,64,30,0
226.67076,227.15274,69,36,0
227.2063,227.44728,66,28,0
227.2063,227.44728,69,34,0
232.43831,232.90161,52,35,0
233.1796,233.7993,57,44,0
233.0406,233.7993,49,35,0
232.90161,233.7993,45,35,0
233.7993,234.04524,57,42,0
234.04524,234.33012,59,37,0
234.4251,234.9975,61,45,0
234.37761,234.9975,52,35,0
234.33012,234.9975,45,35,0
234.9975,235.55118,57,42,0
235.63028,236.20268,54,42,0
235.55118,236.20268,38,31,0
236.20268,237.3858,59,44,0
236.78622,237.39339,39,31,0
237.39339,237.94707,57,43,0
238.02617,238.52165,56,44,0
237.94707,238.66481,40,31,0
238.93552,239.22173,56,40,0
239.22173,239.80527,47,31,0
239.22173,240.11513,57,43,0
239.80527,240.42497,59,44,0
240.42497,241.05775,40,31,0
241.05775,241.67746,56,22,0
241.05775,241.67746,59,27,0
241.67746,242.34398,57,20,0
241.67746,242.34398,61,25,0
242.34398,243.08818,59,19,0
240.42497,243.08818,52,45,0
242.34398,243.08818,64,23,0
243.08818,243.70789,57,44,0
242.9543,243.70789,45,35,0
243.02124,243.70789,49,35,0
243.70789,243.96881,57,42,0
243.96881,244.22455,59,35,0
244.30978,244.8668,61,45,0
244.26717,244.87149,52,35,0
244.22455,244.87149,45,35,0
244.87149,245.42517,57,42,0
245.50426,246.07668,54,42,0
245.42517,246.07668,38,31,0
246.66022,247.26738,38,31,0
246.07668,247.26738,59,40,0
247.26738,247.78812,57,43,0
247.8625,248.14334,57,44,0
248.14334,248.41908,56,44,0
247.8625,248.41908,40,31,0
248.41908,248.63374,54,44,0
248.70529,248.91995,52,40,0
248.9915,249.10822,52,43,0
249.10822,249.22491,54,43,0
249.22491,249.34163,52,43,0
249.34163,249.45833,51,43,0
249.45833,249.57504,52,43,0
248.9915,249.57504,40,31,0
249.57504,249.80743,54,44,0
249.8849,250.11728,56,44,0
250.19475,250.82753,57,45,0
250.19475,250.82753,45,31,0
250.82753,251.44724,61,24,0
250.82753,251.44724,64,29,0
251.44724,252.10788,59,22,0
251.44724,252.10788,66,27,0
252.10788,252.8094,52,21,0
252.10788,252.8094,68,25,0
252.8094,253.0861,45,33,0
253.36281,253.60786,52,24,0
253.36281,253.60786,57,28,0
253.9078,254.17,33,34,0
254.43219,254.70387,52,24,0
254.43219,254.70387,57,28,0
254.97557,255.26848,38,33,0
255.56139,255.81908,54,24,0
255.56139,255.81908,59,28,0
256.07675,256.36407,39,34,0
256.65137,256.92307,51,24,0
256.65137,256.92307,59,28,0
257.19473,257.48096,40,33,0
257.76022,258.00528,52,24,0
257.76022,258.00528,56,28,0
258.27213,258.54382,35,34,0
258.81552,259.12665,47,24,0
258.81552,259.12665,54,28,0
259.3211,260.0259,52,41,0
259.28223,260.0259,47,31,0
259.24335,260.0259,40,31,0
260.0259,260.59186,56,22,0
260.0259,260.59186,59,27,0
260.59186,260.9907,57,20,0
260.59186,260.9907,61,25,0
260.0259,261.23,52,22,0
260.9907,261.23,52,19,0
261.03058,261.9155,59,19,0
261.07047,261.9155,64,23,0
261.9155,262.1922,45,33,0
262.4689,262.71396,52,24,0
262.4689,262.71396,57,28,0
263.0139,263.2761,33,34,0
263.53827,263.80997,52,24,0
263.53827,263.80997,57,28,0
264.08167,264.3514,38,33,0
264.62112,264.8788,54,24,0
264.62112,264.8788,59,28,0
265.1365,265.4238,38,34,0
265.71112,265.9828,59,28,0
265.71112,265.9828,50,24,0
266.2545,266.54068,40,33,0
266.8021,267.04715,52,24,0
266.8021,267.04715,56,28,0
267.314,267.5857,40,34,0
267.8574,268.1341,52,24,0
267.8574,268.1341,59,28,0
268.4108,268.6825,37,33,0
268.96545,269.24216,57,24,0
268.96545,269.24216,61,28,0
268.96545,269.24216,52,24,0
269.51886,269.80615,32,44,0
270.09344,270.36514,59,28,0
270.09344,270.36514,52,24,0
270.63684,270.9036,33,33,0
271.16766,271.41272,52,24,0
271.16766,271.41272,57,28,0
271.6796,271.9615,40,34,0
272.24338,272.59213,52,24,0
272.24338,272.59213,64,28,0
272.24338,272.59213,57,24,0
272.859,273.1463,52,30,0
272.859,273.1463,45,30,0
272.859,273.1463,57,36,0
273.4336,273.71655,64,24,0
273.4336,273.71655,57,24,0
273.4336,273.71655,73,28,0
273.99954,274.2825,61,24,0
273.99954,274.2825,57,24,0
273.99954,274.2825,69,28,0
275.1314,275.3992,40,33,0
275.66702,275.94998,68,27,0
275.66702,275.94998,64,27,0
275.66702,275.94998,71,33,0
276.23294,276.50076,40,33,0
276.76855,277.0515,69,27,0
276.76855,277.0515,73,33,0
277.3345,277.6229,40,33,0
277.91132,278.19427,76,33,0
277.87524,278.19427,68,27,0
277.8392,278.19427,59,27,0
278.47723,278.7713,80,33,0
278.44186,278.7713,71,27,0
278.4065,278.7713,64,27,0
279.06537,279.31955,83,33,0
279.0286,279.31955,76,27,0
278.99185,279.31955,68,27,0
279.57373,281.63464,59,33,0
279.57373,281.63464,51,27,0
281.63464,281.92307,59,33,0
281.63464,281.92307,52,28,0
282.20935,282.4552,80,30,0
282.20935,282.4552,71,30,0
282.20935,282.4552,64,30,0
282.717,283.00543,76,31,0
282.717,283.00543,68,31,0
282.717,283.00543,64,31,0
283.87064,284.13846,40,33,0
284.40628,284.68924,68,27,0
284.40628,284.68924,64,27,0
284.40628,284.68924,71,33,0
284.9739,285.25653,40,33,0
285.5733,285.87326,69,27,0
285.5733,285.87326,73,33,0
286.15097,286.4394,40,33,0
286.72778,287.01074,76,33,0
286.69174,287.01074,68,27,0
286.65567,287.01074,59,27,0
287.2937,287.58777,80,33,0
287.25833,287.58777,71,27,0
287.22296,287.58777,64,27,0
287.88184,288.13602,83,33,0
287.84506,288.13602,76,27,0
287.80832,288.13602,68,27,0
288.39023,290.4136,59,33,0
288.39023,290.4136,51,27,0
290.4136,290.91287,59,33,0
290.4136,290.91287,52,27,0
291.43912,292.43515,51,27,0
292.43515,292.92712,52,27,0
291.43912,292.92712,59,33,0
293.41092,294.42664,59,33,0
293.41092,294.42664,51,27,0
294.42664,294.9438,59,33,0
294.42664,294.9438,52,33,0
294.9438,295.20236,56,30,0
295.46094,295.7195,40,35,0
295.9781,296.49524,71,33,0
295.9781,296.49524,68,33,0
296.49524,296.72958,40,37,0
296.72958,297.24673,71,43,0
296.72958,297.24673,74,51,0
297.24673,297.33292,76,44,0
297.24673,297.33292,73,44,0
297.33292,297.41913,74,41,0
297.33292,297.41913,71,41,0
297.41913,297.5053,69,41,0
297.41913,297.5053,73,41,0
297.5053,297.63458,71,44,0
297.5053,297.63458,68,44,0
297.7639,297.89316,74,40,0
297.7639,297.89316,66,40,0
298.02246,298.15173,73,44,0
298.02246,298.15173,64,44,0
298.28104,298.4103,71,40,0
298.28104,298.4103,62,40,0
298.5396,298.83603,69,33,0
298.5396,298.83603,61,33,0
299.119,299.38977,69,28,0
299.119,299.38977,61,28,0
299.119,299.38977,64,28,0
299.64835,299.91144,45,34,0
300.17456,300.44724,69,28,0
300.17456,300.44724,64,28,0
300.17456,300.44724,61,28,0
300.7199,301.0061,38,36,0
301.29233,301.80948,71,31,0
301.29233,301.80948,66,31,0
301.29233,301.80948,62,31,0
301.80948,302.0976,39,42,0
302.37027,302.65082,54,31,0
302.37027,302.65082,51,31,0
302.93924,303.2222,40,36,0
303.49478,303.74063,56,31,0
303.49478,303.74063,52,31,0
304.02686,304.29465,35,36,0
304.56247,304.84018,54,31,0
304.56247,304.84018,47,31,0
305.11792,305.7507,40,31,0
305.7507,306.31662,59,30,0
306.31662,306.95477,57,23,0
306.31662,306.95477,61,28,0
305.7507,306.95477,56,25,0
306.95477,307.67188,62,26,0
306.95477,307.67188,52,22,0
306.95477,307.67188,59,22,0
307.67188,308.29156,57,44,0
307.538,308.29156,45,35,0
307.60492,308.29156,49,35,0
308.29156,308.5623,57,42,0
308.5623,308.78906,59,37,0
308.86465,309.4299,61,45,0
308.86465,309.43704,52,35,0
308.86465,309.43704,45,35,0
309.43704,309.99072,57,42,0
310.06982,311.80933,57,45,0
309.99072,311.80933,42,38,0
312.39288,314.57614,59,33,0
312.39288,314.57614,52,29,0
314.85803,315.13995,57,44,0
314.57614,315.13995,45,33,0
315.13995,315.41064,57,45,0
315.41064,315.62863,59,48,0
315.7013,316.23788,61,54,0
315.7013,316.24466,52,44,0
315.7013,316.24466,45,41,0
316.24466,316.79834,57,42,0
316.87744,318.02216,57,45,0
316.79834,318.02216,42,38,0
318.02216,318.57755,71,41,0
318.02216,318.57755,62,41,0
318.57755,319.09546,69,41,0
318.57755,319.09546,61,41,0
319.09546,319.59372,68,37,0
319.09546,319.59372,52,37,0
319.09546,319.59372,62,37,0
319.09546,319.59372,59,37,0
321.05475,321.5013,59,35,0
321.02844,321.5013,52,30,0
321.00098,321.5013,40,26,0
325.1304,325.34586,52,43,0
325.38177,325.6996,52,37,0
325.34586,325.6996,45,37,0
325.6996,325.9815,40,37,0
325.4177,325.9815,61,58,0
325.9815,326.2634,57,52,0
325.9815,326.2634,52,37,0
325.9815,326.2634,49,37,0
326.2634,326.43958,52,53,0
326.2634,326.43958,40,37,0
326.51007,326.80298,56,37,0
326.43958,326.80298,47,37,0
326.47482,326.80298,52,37,0
326.80298,327.06067,40,37,0
327.06067,327.32288,50,37,0
326.5453,327.32288,62,57,0
327.32288,327.58505,56,41,0
327.32288,327.58505,40,37,0
327.58505,328.12396,57,41,0
327.58505,328.12396,49,41,0
328.12396,328.62344,64,33,0
328.12396,328.62344,61,33,0
329.15146,329.60397,59,33,0
329.15146,329.60397,56,33,0
329.6399,329.9577,52,37,0
329.60397,329.9577,45,37,0
329.9577,330.2396,40,37,0
329.6758,330.2396,61,58,0
330.2396,330.5215,57,52,0
330.2396,330.5215,52,37,0
330.2396,330.5215,49,37,0
330.5215,330.6977,52,53,0
330.5215,330.6977,40,37,0
330.7682,331.0611,56,37,0
330.6977,331.0611,47,37,0
330.73294,331.0611,52,37,0
331.0611,331.3188,40,37,0
331.3188,331.581,50,37,0
330.8034,331.581,62,57,0
331.581,331.84317,56,41,0
331.581,331.84317,40,37,0
331.84317,332.38208,57,41,0
331.84317,332.38208,49,41,0
332.8946,333.88785,71,33,0
332.8946,333.88785,56,33,0
332.8946,333.88785,64,33,0
333.85724,333.88785,64,33,0
333.88785,334.1329,73,43,0
333.8266,334.1329,57,30,0
334.88522,335.7909,68,33,0
334.88522,335.7909,61,29,0
334.88522,335.7909,53,28,0
335.8495,336.0986,69,43,0
335.8202,336.0986,61,33,0
335.7909,336.0986,54,30,0
336.846,337.88788,64,33,0
336.846,337.88788,49,28,0
336.846,337.88788,57,29,0
337.85468,337.88788,57,43,0
337.88788,338.1534,66,46,0
337.82147,338.1534,50,40,0
338.68204,338.76974,47,36,0
338.41895,338.8136,50,36,0
338.41895,338.8136,57,43,0
338.76974,338.85745,54,37,0
338.85745,338.94516,62,41,0
338.94516,339.22812,66,36,0
338.94516,339.22812,74,43,0
340.87048,340.96307,49,36,0
340.59277,341.00934,59,36,0
340.59277,341.00934,52,36,0
340.59277,341.00934,68,43,0
340.96307,341.05563,56,37,0
341.05563,341.14822,64,41,0
341.14822,341.44815,68,36,0
341.14822,341.44815,76,43,0
343.09235,343.18326,50,36,0
342.81967,343.2287,61,36,0
342.81967,343.2287,54,36,0
342.81967,343.2287,69,43,0
343.18326,343.27414,57,37,0
343.27414,343.36502,66,41,0
343.36502,343.67746,69,36,0
343.36502,343.67746,78,43,0
344.88507,346.18408,59,43,0
344.88507,346.18408,52,37,0
344.88507,346.18408,44,37,0
360.87247,361.2853,56,35,0
361.2853,361.86246,57,42,0
361.86246,362.14282,56,37,0
362.14282,362.69107,57,44,0
362.69107,362.97678,59,40,0
362.97678,363.23993,56,44,0
361.2853,363.23993,52,35,0
363.23993,363.51517,56,36,0
363.51517,363.7904,54,33,0
363.51517,363.7904,57,39,0
363.7904,364.07343,56,36,0
363.7904,364.07343,59,43,0
364.07343,364.35645,57,38,0
364.07343,364.35645,61,45,0
364.35645,364.65054,56,40,0
361.2853,364.65054,45,35,0
363.23993,364.65054,52,30,0
364.35645,364.65054,62,48,0
364.65054,365.19363,57,42,0
365.19363,365.47665,56,37,0
365.47665,366.0351,57,44,0
366.0351,366.32922,59,40,0
366.32922,366.5901,56,44,0
364.65054,366.5901,52,35,0
366.5901,366.86282,56,36,0
366.86282,367.13553,54,33,0
366.86282,367.13553,57,39,0
367.13553,367.42126,56,36,0
367.13553,367.42126,59,43,0
367.42126,367.70697,57,38,0
367.42126,367.70697,61,45,0
367.70697,368.00696,56,40,0
364.65054,368.00696,45,35,0
366.5901,368.00696,52,30,0
367.70697,368.00696,62,48,0
368.00696,368.79584,57,36,0
368.00696,368.79584,61,43,0
368.83087,369.09637,66,40,0
368.81335,369.09637,62,34,0
369.09637,369.3794,59,31,0
369.09637,369.3794,62,37,0
369.3794,369.6624,62,31,0
369.3794,369.6624,66,37,0
368.79584,369.6624,50,34,0
369.6624,369.91882,61,35,0
369.6624,369.91882,64,42,0
369.91882,370.18668,57,33,0
369.91882,370.18668,61,39,0
370.18668,370.47238,61,33,0
370.18668,370.47238,64,39,0
369.6624,370.47238,52,42,0
370.47238,370.73325,40,37,0
370.73325,371.01898,52,34,0
370.73325,371.01898,59,40,0
371.01898,371.3047,59,31,0
371.01898,371.3047,62,37,0
371.3047,371.45468,52,36,0
371.3047,371.45468,45,36,0
371.3047,371.45468,57,43,0
371.60468,371.86002,64,43,0
371.86002,372.11536,66,45,0
372.11536,372.37512,68,47,0
372.37512,372.6418,67,49,0
372.6418,372.9085,64,51,0
372.9085,373.1671,62,53,0
373.1671,373.43985,65,53,0
373.43985,373.7126,60,54,0
373.7126,374.00104,59,50,0
374.00104,374.30408,56,46,0
374.30408,374.54092,62,41,0
374.30408,374.54092,56,37,0
374.56064,374.87848,52,35,0
374.58038,374.91196,61,42,0
375.14633,375.42935,59,37,0
375.14633,375.42935,56,32,0
374.87848,375.6925,52,37,0
375.42935,375.9703,61,44,0
375.42935,375.9703,57,36,0
375.9703,376.1909,62,40,0
375.9703,376.1909,59,36,0
374.54092,376.1909,45,35,0
375.6925,376.2644,52,40,0
376.20926,376.2644,52,35,0
376.22766,376.52304,59,44,0
376.52304,376.8008,56,36,0
376.8008,377.07858,54,33,0
376.8008,377.07858,57,39,0
377.07858,377.34174,56,36,0
377.07858,377.34174,59,43,0
377.34174,377.6149,57,38,0
376.52304,377.6149,52,30,0
377.34174,377.6149,61,45,0
376.52304,377.6149,64,45,0
377.6149,377.83768,59,37,0
376.1909,377.83768,45,35,0
377.6149,377.83768,52,37,0
377.6149,377.83768,62,41,0
377.85626,378.16837,52,35,0
377.87482,378.20215,61,42,0
378.43863,378.73273,59,37,0
378.43863,378.73273,56,32,0
378.16837,378.99362,52,37,0
378.73273,379.2714,61,44,0
378.73273,379.2714,57,36,0
379.2714,379.48984,62,40,0
379.2714,379.48984,59,36,0
377.83768,379.48984,45,35,0
378.99362,379.56265,52,40,0
379.50803,379.56265,52,35,0
379.52625,379.82352,59,44,0
379.82352,380.10388,56,36,0
380.10388,380.38428,57,39,0
380.10388,380.38428,54,33,0
380.38428,380.67554,59,43,0
380.38428,380.67554,56,36,0
380.67554,380.9733,61,45,0
379.82352,380.9733,52,30,0
380.67554,380.9733,57,38,0
379.82352,380.9733,64,45,0
380.9733,381.23578,62,41,0
379.48984,381.23578,45,35,0
380.9733,381.23578,52,37,0
380.9733,381.23578,59,37,0
381.2733,381.53192,61,42,0
381.53192,381.80713,64,37,0
381.53192,381.80713,61,32,0
381.80713,382.02557,61,37,0
381.80713,382.02557,57,32,0
381.2733,382.0984,45,42,0
382.06198,382.36154,66,44,0
382.0438,382.36154,62,36,0
382.36154,382.64194,62,37,0
382.36154,382.64194,59,32,0
382.64194,382.9062,66,40,0
382.64194,382.9062,62,36,0
382.02557,382.9517,50,42,0
382.9517,383.2103,64,42,0
382.9517,383.2103,61,35,0
383.2103,383.47815,61,37,0
383.2103,383.47815,57,32,0
383.47815,383.69244,64,37,0
383.47815,383.69244,61,32,0
383.69244,383.7639,40,42,0
382.9517,383.7639,52,42,0
383.7639,384.02475,62,44,0
383.7639,384.02475,59,36,0
384.02475,384.30252,59,37,0
384.02475,384.30252,52,32,0
384.30252,384.53363,62,40,0
384.30252,384.53363,59,36,0
384.5594,384.74518,57,37,0
384.53363,384.76947,45,32,0
384.5465,384.76947,52,35,0
384.57227,384.76947,61,40,0
385.44867,385.51392,67,36,0
385.44867,385.51392,57,36,0
385.44867,385.51392,69,44,0
385.95346,386.02557,67,31,0
385.95346,386.02557,57,31,0
385.95346,386.02557,69,37,0
386.2419,386.30713,69,40,0
386.2419,386.30713,66,40,0
386.2419,386.30713,62,40,0
386.75073,386.8038,66,35,0
386.75073,386.8038,62,35,0
386.75073,386.8038,69,41,0
387.03375,387.1001,67,36,0
387.03375,387.1001,57,36,0
387.03375,387.1001,69,44,0
387.54715,387.6186,67,31,0
387.54715,387.6186,57,31,0
387.54715,387.6186,69,37,0
387.8329,387.9622,69,40,0
387.8329,387.9622,66,40,0
387.8329,387.9622,62,40,0
389.5645,389.62973,64,40,0
389.5645,389.62973,61,40,0
389.5645,389.62973,52,40,0
390.07956,390.14072,61,35,0
390.07956,390.14072,52,35,0
390.07956,390.14072,64,41,0
390.37192,390.43658,62,36,0
390.37192,390.43658,52,36,0
390.37192,390.43658,64,44,0
390.87848,390.94858,62,31,0
390.87848,390.94858,52,31,0
390.87848,390.94858,64,37,0
391.15884,391.2283,64,40,0
391.15884,391.2283,61,40,0
391.15884,391.2283,57,40,0
392.14188,392.20767,55,36,0
392.14188,392.20767,45,36,0
392.14188,392.20767,57,44,0
392.65503,392.72513,55,31,0
392.65503,392.72513,45,31,0
392.65503,392.72513,57,37,0
392.9354,393.00485,57,40,0
392.9354,393.00485,54,40,0
392.9354,393.00485,50,40,0
393.4597,393.5208,54,35,0
393.4597,393.5208,50,35,0
393.4597,393.5208,57,41,0
393.75665,393.8236,55,36,0
393.75665,393.8236,45,36,0
393.75665,393.8236,57,44,0
394.2745,394.34528,55,31,0
394.2745,394.34528,45,31,0
394.2745,394.34528,57,37,0
394.55753,394.6358,57,40,0
394.55753,394.6358,54,40,0
394.55753,394.6358,50,40,0
396.30283,396.3736,52,40,0
396.30283,396.3736,49,40,0
396.30283,396.3736,40,40,0
396.83167,396.89417,49,35,0
396.83167,396.89417,40,35,0
396.83167,396.89417,52,41,0
397.13348,397.20105,50,36,0
397.13348,397.20105,40,36,0
397.13348,397.20105,52,44,0
397.65585,397.7266,50,31,0
397.65585,397.7266,40,31,0
397.65585,397.7266,52,37,0
397.93887,398.0083,52,40,0
397.93887,398.0083,49,40,0
397.93887,398.0083,45,40,0
399.6445,399.72278,52,44,0
399.6445,399.72278,49,44,0
399.6445,399.72278,40,44,0
400.19342,400.252,49,37,0
400.19342,400.252,40,37,0
400.19342,400.252,52,45,0
400.48358,400.55057,47,40,0
400.48358,400.55057,50,40,0
400.48358,400.55057,52,47,0
400.48358,400.55057,40,40,0
401.00143,401.07797,47,34,0
401.00143,401.07797,50,34,0
401.00143,401.07797,52,41,0
401.00143,401.07797,40,34,0
401.30756,401.38586,57,44,0
401.30756,401.38586,52,44,0
401.30756,401.38586,45,44,0
401.30756,401.38586,49,44,0
403.07495,403.1592,52,54,0
403.07495,403.1592,49,54,0
403.07495,403.1592,40,54,0
403.64062,403.70175,49,46,0
403.64062,403.70175,40,46,0
403.64062,403.70175,52,54,0
403.94128,404.01007,47,49,0
403.94128,404.01007,50,49,0
403.94128,404.01007,52,59,0
403.94128,404.01007,40,49,0
404.47513,404.5501,47,42,0
404.47513,404.5501,50,42,0
404.47513,404.5501,52,50,0
404.47513,404.5501,40,42,0
404.77512,404.8452,57,54,0
404.77512,404.8452,52,54,0
404.77512,404.8452,45,54,0
404.77512,404.8452,49,54,0
405.38452,405.43076,66,42,0
405.43076,405.4777,64,44,0
405.4777,405.52527,62,45,0
405.52527,405.57358,61,45,0
405.57358,405.6226,59,47,0
405.6226,405.67236,57,48,0
405.67236,405.7229,56,49,0
405.7229,405.77426,54,51,0
405.77426,405.8264,52,52,0
405.8264,405.8794,50,53,0
405.8794,405.93326,49,54,0
405.93326,405.98807,47,55,0
405.98807,406.0437,45,56,0
406.0437,406.1004,44,58,0
406.1004,406.15866,42,59,0
406.15866,406.3311,49,53,0
406.15866,406.3311,40,53,0
406.15866,406.3311,52,63,0
406.49774,406.6512,40,58,0
406.50296,406.65634,49,58,0
406.50296,406.65634,52,69,0
406.50296,406.65634,45,58,0
406.9476,407.02042,50,56,0
406.9476,407.02042,52,66,0
406.9476,407.02042,40,56,0
406.9476,407.02042,47,56,0
407.09387,407.1793,45,56,0
407.09387,407.222,52,66,0
407.09387,407.222,40,56,0
407.09387,407.222,49,56,0
407.4048,407.5504,40,60,0
407.40964,407.55527,52,71,0
407.40964,407.55527,47,60,0
407.40964,407.55527,44,60,0
407.84653,407.91934,45,52,0
407.84653,407.91934,52,63,0
407.84653,407.91934,40,52,0
407.84653,407.91934,42,52,0
407.9873,408.15604,40,52,0
407.99277,408.16165,52,63,0
407.99277,408.16165,47,52,0
407.99277,408.16165,44,52,0
408.33014,408.91656,45,66,0
408.33014,408.92896,40,56,0
408.33014,408.92896,37,56,0
408.33014,408.92896,33,56,0
409.33316,409.4113,52,30,0
409.33316,409.4113,64,36,0
409.77963,409.8131,52,27,0
409.77963,409.8131,64,32,0
409.91357,409.98056,52,27,0
409.91357,409.98056,64,32,0
410.2405,410.3144,57,30,0
410.2405,410.3144,64,36,0
410.67184,410.70578,57,29,0
410.67184,410.70578,64,35,0
410.80762,410.8755,57,29,0
410.80762,410.8755,64,35,0
411.1178,411.19244,62,30,0
411.1178,411.19244,52,30,0
411.1178,411.19244,64,36,0
411.5546,411.58917,62,28,0
411.5546,411.58917,52,28,0
411.5546,411.58917,64,34,0
411.69287,411.762,62,28,0
411.69287,411.762,52,28,0
411.69287,411.762,64,34,0
412.00974,412.29276,57,30,0
412.00974,412.29276,61,36,0
412.8588,413.27817,44,60,0
412.8588,413.27817,40,60,0
412.8588,413.27817,52,71,0
412.8588,413.27817,47,60,0
413.27817,413.41544,45,52,0
413.27817,413.41544,42,52,0
413.27817,413.41544,52,63,0
413.27817,413.41544,40,52,0
413.40997,413.41544,40,52,0
413.41544,413.73117,52,63,0
413.41544,413.73117,47,52,0
413.41544,413.73117,44,52,0
413.73117,414.15054,52,58,0
413.73117,414.15054,49,52,0
413.73117,414.15054,45,52,0
414.15054,414.28787,50,56,0
414.15054,414.28787,47,56,0
414.15054,414.28787,52,66,0
414.28787,414.6009,49,56,0
414.28787,414.6009,52,66,0
414.28787,414.6009,45,56,0
414.5961,415.0184,40,60,0
414.6009,415.02295,52,71,0
414.6009,415.02295,47,60,0
414.6009,415.02295,44,60,0
415.02295,415.16022,45,52,0
415.02295,415.16022,42,52,0
415.02295,415.16022,52,63,0
415.02295,415.16022,40,52,0
415.1548,415.16022,40,52,0
415.16022,415.49762,52,63,0
415.16022,415.49762,47,52,0
415.16022,415.49762,44,52,0
415.49762,416.084,45,66,0
415.49762,416.0964,40,56,0
415.49762,416.0964,37,56,0
415.49762,416.0964,33,56,0
416.89008,417.34265,52,45,0
417.4205,417.6356,57,49,0
417.6356,417.81415,59,42,0
417.81415,417.98364,57,42,0
417.3811,417.98364,49,36,0
417.34265,417.98364,45,36,0
417.98364,418.14493,56,47,0
418.14493,418.30624,57,43,0
418.30624,418.42142,59,43,0
418.4941,418.66617,61,49,0
418.45776,418.74814,52,36,0
418.42142,418.74814,45,36,0
418.66617,418.8301,60,45,0
418.8301,418.98636,62,45,0
418.98636,419.1426,61,49,0
419.1426,419.3039,59,45,0
419.3039,419.47394,57,45,0
419.47394,419.64636,54,49,0
419.47394,419.7245,50,36,0
419.64636,419.8026,56,43,0
419.8026,419.95886,54,43,0
419.95886,420.1151,53,45,0
420.1151,420.27136,54,43,0
420.27136,420.4276,58,43,0
420.4276,420.58942,59,48,0
420.4276,420.67035,51,36,0
420.58942,420.75125,61,42,0
420.75125,420.91306,59,42,0
420.91306,421.07486,58,45,0
421.07486,421.23666,59,43,0
421.23666,421.41272,57,43,0
421.41272,421.59195,56,54,0
421.41272,421.67032,52,36,0
421.59195,421.7487,66,45,0
421.7487,421.90543,64,45,0
421.90543,422.06216,63,50,0
422.06216,422.2189,64,45,0
422.2189,422.37564,56,45,0
422.37564,422.53488,57,48,0
422.37564,422.6145,51,36,0
422.37564,422.6145,47,36,0
422.53488,422.69412,60,44,0
422.69412,422.85336,59,44,0
422.85336,423.01257,58,48,0
423.01257,423.1718,59,44,0
423.1718,423.35104,51,44,0
423.35104,423.52344,52,49,0
423.35104,423.6041,40,36,0
423.52344,423.68475,56,45,0
423.68475,423.84604,59,45,0
423.84604,424.3416,64,49,0
423.84604,424.3416,56,41,0
423.84604,424.3416,52,41,0
424.3416,424.5111,53,38,0
424.5111,424.67825,54,42,0
424.3416,424.67825,60,45,0
424.67825,424.84058,55,30,0
424.84058,425.01025,56,39,0
424.67825,425.01025,59,37,0
425.01025,425.189,62,38,0
425.189,425.41245,64,39,0
425.01025,425.41245,52,32,0
425.41245,425.6145,57,49,0
425.6145,425.78995,59,42,0
425.78995,425.95123,57,42,0
425.41245,425.95123,49,36,0
425.41245,425.95123,45,36,0
425.95123,426.11252,56,47,0
426.11252,426.2738,57,43,0
426.2738,426.3801,59,43,0
426.44388,426.61627,61,49,0
426.412,426.6932,52,36,0
426.3801,426.6932,45,36,0
426.61627,426.77014,60,45,0
426.77014,426.92398,62,45,0
426.92398,427.07782,61,49,0
427.07782,427.23166,59,45,0
427.23166,427.40173,57,45,0
427.40173,427.56097,54,49,0
427.40173,427.6406,50,36,0
427.56097,427.7202,56,43,0
427.7202,427.87946,54,43,0
427.87946,428.0387,53,45,0
428.0387,428.1979,54,43,0
428.1979,428.35715,58,43,0
428.35715,428.51895,59,48,0
428.35715,428.59988,50,36,0
428.51895,428.6808,61,42,0
428.6808,428.8426,59,42,0
428.8426,429.0044,58,45,0
429.0044,429.16623,59,43,0
429.16623,429.27625,57,43,0
429.3423,429.49908,57,54,0
429.27625,429.59985,40,36,0
429.52148,429.67822,56,45,0
429.67822,429.83496,54,45,0
429.83496,429.9917,54,50,0
429.9917,430.14844,52,45,0
430.14844,430.28558,51,45,0
430.30518,430.46442,51,48,0
430.30518,430.54404,40,36,0
430.46442,430.62366,52,44,0
430.62366,430.7829,53,44,0
430.7829,430.94955,54,48,0
430.94955,431.1162,55,44,0
431.1162,431.29544,56,44,0
431.29544,431.47858,57,40,0
431.29544,431.47858,52,40,0
431.29544,431.47858,45,40,0
431.47858,431.61115,61,50,0
431.47858,431.61115,64,50,0
431.65213,431.77512,61,49,0
431.65213,431.77512,64,49,0
431.8161,431.93613,64,49,0
431.8161,431.93613,61,49,0
431.97614,432.09616,66,48,0
431.97614,432.09616,60,48,0
432.13614,432.25964,66,47,0
432.13614,432.25964,60,47,0
432.30203,432.43524,66,46,0
432.30203,432.43524,60,46,0
432.48026,432.61844,65,45,0
432.48026,432.61844,59,45,0
432.66577,432.8124,65,45,0
432.66577,432.8124,59,45,0
432.86267,433.01834,65,45,0
432.86267,433.01834,59,45,0
433.07202,433.1541,62,44,0
433.07202,433.1541,52,44,0
433.29605,433.39606,64,43,0
433.29605,433.39606,52,43,0
433.56277,433.83987,52,30,0
433.56277,433.83987,45,30,0
433.56277,433.83987,57,36,0
434.08234,434.32428,61,29,0
434.08234,434.32428,64,35,0
434.5928,434.83948,45,36,0
435.0746,435.3097,52,27,0
435.0746,435.3097,57,27,0
435.0746,435.3097,61,33,0
435.55814,435.82715,38,41,0
436.07065,437.05228,66,39,0
435.97934,437.05228,50,34,0
436.00977,437.05228,57,36,0
436.04022,437.05228,59,37,0
437.05228,437.55557,51,39,0
437.05228,437.55557,59,39,0
437.05228,437.55557,66,45,0
437.55557,438.0592,68,48,0
437.55557,438.0592,59,43,0
437.55557,438.0592,52,43,0
438.0592,438.30835,59,36,0
438.0592,438.30835,56,36,0
438.57578,438.826,47,36,0
439.07108,439.56128,71,52,0
439.07108,439.56128,63,39,0
439.07108,439.56128,66,39,0
439.56128,439.72308,52,57,0
439.72308,439.8849,56,45,0
439.8849,440.04672,59,45,0
439.5,440.04672,40,36,0
439.53064,440.04672,44,36,0
440.04672,440.56522,64,49,0
440.04672,440.56522,56,36,0
440.04672,440.56522,52,36,0
440.56522,440.73346,53,38,0
440.73346,440.89587,54,42,0
440.56522,440.89587,60,45,0
440.89587,441.06042,55,30,0
441.06042,441.22473,56,39,0
440.89587,441.22473,59,37,0
441.22473,441.40018,52,32,0
441.22473,441.40018,62,38,0
441.40018,441.5849,64,39,0
441.40018,441.5849,52,32,0
441.5849,441.8539,52,30,0
441.5849,441.8539,45,30,0
441.5849,441.8539,57,36,0
442.0974,442.3409,61,29,0
442.0974,442.3409,64,35,0
442.60995,442.85663,45,36,0
443.09174,443.32687,52,27,0
443.09174,443.32687,57,27,0
443.09174,443.32687,61,33,0
443.5753,443.8443,38,41,0
444.08783,445.01065,66,39,0
444.05737,445.01065,59,37,0
444.02695,445.01065,50,34,0
445.06943,445.57272,66,45,0
445.04004,445.57272,59,39,0
445.01065,445.57272,50,39,0
445.57272,445.81387,40,47,0
446.05002,446.2875,68,39,0
445.9624,446.2875,52,34,0
445.9916,446.2875,59,36,0
446.0208,446.2875,62,37,0
446.5326,446.76266,40,45,0
446.9927,447.22778,64,39,0
446.90643,447.22778,52,34,0
446.9352,447.22778,59,36,0
446.96396,447.22778,62,37,0
447.47318,447.72293,64,47,0
447.72293,447.9686,69,39,0
447.72293,447.9686,73,46,0
447.41162,447.9686,49,40,0
447.44226,447.9686,57,40,0
447.72293,447.9686,64,39,0
447.9686,448.4815,69,45,0
447.9686,448.4815,61,45,0
447.9686,448.4815,76,54,0
448.4815,448.9654,52,40,0
448.4815,448.9654,56,47,0
448.4815,448.9654,44,40,0
448.72345,449.2073,76,58,0
448.72345,449.2073,64,49,0
448.72345,449.2073,71,49,0
449.2073,449.4645,68,40,0
449.2073,449.4645,59,40,0
449.2073,449.4645,71,47,0
449.78638,449.95154,64,41,0
449.4645,449.95154,52,45,0
449.4645,449.95154,57,54,0
449.4645,449.95154,45,45,0
449.78638,449.95154,72,45,0
449.95154,450.11966,63,41,0
449.95154,450.11966,71,45,0
450.11966,450.31265,62,40,0
450.11966,450.31265,70,45,0
450.31265,450.49048,61,40,0
450.45813,450.49048,61,36,0
450.31265,450.49048,69,45,0
450.49048,450.67035,69,41,0
450.67035,450.86264,68,41,0
450.67035,450.86264,60,36,0
450.86264,451.0688,69,40,0
450.86264,451.0688,61,36,0
451.0688,451.48544,73,38,0
451.0688,451.48544,64,31,0
451.48544,451.6895,72,36,0
451.48544,451.6895,63,30,0
451.6895,451.82983,71,36,0
451.6895,451.82983,62,32,0
451.48544,451.89362,68,32,0
450.4258,451.89362,52,45,0
451.8426,452.15323,64,36,0
451.82983,452.15323,57,36,0
451.85535,452.15323,69,36,0
452.39835,452.6249,61,38,0
452.3677,452.6249,52,38,0
452.33707,452.6249,45,38,0
452.8515,453.12424,57,38,0
452.8515,453.12424,49,38,0
452.8515,453.12424,45,38,0
453.9178,454.17377,40,54,0
454.42975,454.66937,68,45,0
454.42975,454.66937,71,54,0
454.66937,454.90897,64,38,0
454.66937,454.90897,68,45,0
454.90897,455.1565,52,51,0
455.40402,455.65155,73,45,0
455.40402,455.65155,76,54,0
455.65155,455.92062,69,40,0
455.65155,455.92062,73,47,0
455.92062,456.16412,40,53,0
456.40762,456.7323,68,45,0
456.40762,456.7323,71,54,0
456.7323,456.89465,64,47,0
456.89465,457.05188,68,53,0
458.10492,458.28754,66,41,0
458.10492,458.28754,59,41,0
458.10492,458.28754,71,49,0
458.34842,458.53104,66,41,0
458.34842,458.53104,59,41,0
458.34842,458.53104,71,49,0
458.59192,458.7835,66,41,0
458.59192,458.7835,59,41,0
458.59192,458.7835,71,49,0
458.84976,459.09326,66,44,0
458.84976,459.09326,59,44,0
458.84976,459.09326,70,52,0
459.09326,459.2759,66,43,0
459.09326,459.2759,59,43,0
459.09326,459.2759,71,51,0
459.3368,459.5803,66,45,0
459.3368,459.5803,59,45,0
459.3368,459.5803,69,54,0
459.5803,459.7629,66,43,0
459.5803,459.7629,59,43,0
459.5803,459.7629,71,51,0
457.8614,459.8238,51,54,0
459.8238,460.3283,68,54,0
459.79337,460.3283,59,45,0
459.7629,460.3283,52,43,0
460.3283,460.57184,68,45,0
460.3283,460.57184,64,45,0
460.3283,460.57184,71,54,0
460.81534,461.048,76,45,0
460.81534,461.048,80,54,0
461.7993,462.05527,40,54,0
462.31125,462.55084,68,45,0
462.31125,462.55084,71,54,0
462.55084,462.79047,64,38,0
462.55084,462.79047,68,45,0
462.79047,463.038,52,51,0
463.28552,463.53305,73,45,0
463.28552,463.53305,76,54,0
463.53305,463.80212,69,40,0
463.53305,463.80212,73,47,0
463.80212,464.04562,40,53,0
464.28912,464.6138,68,45,0
464.28912,464.6138,71,54,0
464.6138,464.77615,64,47,0
464.77615,464.93338,68,53,0
465.9864,466.16904,66,41,0
465.9864,466.16904,59,41,0
465.9864,466.16904,71,49,0
466.22992,466.41254,66,41,0
466.22992,466.41254,59,41,0
466.22992,466.41254,71,49,0
466.47342,466.665,66,41,0
466.47342,466.665,59,41,0
466.47342,466.665,71,49,0
466.73126,466.97476,66,44,0
466.73126,466.97476,59,44,0
466.73126,466.97476,70,52,0
466.97476,467.1574,66,43,0
466.97476,467.1574,59,43,0
466.97476,467.21826,71,51,0
467.21826,467.4618,66,45,0
467.21826,467.4618,59,45,0
467.21826,467.4618,69,54,0
467.4618,467.6444,66,43,0
467.4618,467.6444,59,43,0
467.4618,467.7053,71,51,0
465.7429,467.7053,51,54,0
467.9488,468.1314,68,37,0
467.9488,468.1314,59,37,0
467.9488,468.1314,71,45,0
468.1923,468.37494,68,39,0
468.1923,468.37494,59,39,0
468.1923,468.37494,71,46,0
468.4358,468.6274,68,40,0
468.4358,468.6274,59,40,0
468.4358,468.6274,71,48,0
467.7053,468.69366,52,48,0
468.93716,469.11978,66,41,0
468.93716,469.11978,59,41,0
468.93716,469.11978,70,49,0
469.18066,469.42416,66,42,0
469.18066,469.42416,59,42,0
469.18066,469.42416,71,51,0
469.42416,469.6068,66,38,0
469.42416,469.6068,59,38,0
469.42416,469.6677,69,45,0
468.69366,469.6677,51,54,0
469.9112,470.0938,68,37,0
469.9112,470.0938,59,37,0
469.9112,470.0938,71,45,0
470.1547,470.3373,68,39,0
470.1547,470.3373,59,39,0
470.1547,470.3373,71,46,0
470.3982,470.58978,68,40,0
470.3982,470.58978,59,40,0
470.3982,470.58978,71,48,0
469.6677,470.65604,52,48,0
470.89957,471.08218,66,41,0
470.89957,471.08218,59,41,0
470.89957,471.08218,70,49,0
471.14307,471.38657,66,42,0
471.14307,471.38657,59,42,0
471.14307,471.38657,71,51,0
471.38657,471.53876,66,38,0
471.38657,471.53876,59,38,0
471.38657,471.53876,69,45,0
470.65604,471.63007,51,54,0
471.63007,471.8981,68,52,0
471.59964,471.8981,64,48,0
471.56918,471.8981,59,48,0
471.53876,471.8981,52,48,0
472.14084,472.38354,47,48,0
472.15094,472.39368,40,48,0
472.62628,473.11923,71,54,0
472.62628,473.11923,59,47,0
472.62628,473.11923,68,49,0
473.11526,473.59045,40,43,0
473.11725,473.59225,47,49,0
473.59402,474.03287,74,54,0
473.59402,474.03287,71,49,0
473.59402,474.03287,64,49,0
474.18265,474.32004,66,56,0
474.18265,474.32004,62,49,0
474.32004,474.45944,64,54,0
474.32004,474.45944,61,47,0
474.45944,474.60098,60,45,0
474.45944,474.60098,63,53,0
474.60098,474.74466,59,44,0
474.60098,474.74466,62,51,0
475.28882,475.41904,74,55,0
475.28882,475.41904,71,48,0
475.41904,475.5506,73,54,0
475.41904,475.5506,70,46,0
475.5506,475.68527,72,52,0
475.5506,475.68527,69,45,0
475.68527,475.82324,71,49,0
475.68527,475.82324,68,42,0
476.31613,476.4332,80,52,0
476.31613,476.4332,83,59,0
476.4332,476.55203,79,50,0
476.4332,476.55203,82,57,0
476.55203,476.67297,78,48,0
476.55203,476.67297,81,55,0
476.67297,476.79468,76,46,0
476.67297,476.79468,80,54,0
477.26248,477.37012,90,65,0
477.26248,477.37012,86,58,0
477.37012,477.47964,88,63,0
477.37012,477.47964,85,56,0
477.47964,477.59134,87,62,0
477.47964,477.59134,84,54,0
477.59134,477.70148,86,60,0
477.59134,477.70148,83,53,0
484.51794,485.27615,55,35,0
484.51794,485.27615,62,42,0
485.27615,485.95798,55,27,0
485.27615,485.95798,62,33,0
486.17535,486.39276,53,28,0
486.17535,486.39276,59,34,0
486.39276,486.61014,52,28,0
486.39276,486.61014,60,34,0
486.61014,486.82755,53,28,0
486.61014,486.82755,59,34,0
486.82755,487.15506,52,34,0
486.82755,487.15506,60,40,0
489.17206,490.81668,56,40,0
488.13757,490.81668,40,40,0
490.81668,490.9032,45,46,0
490.81668,490.9032,57,61,0
490.9897,491.0693,59,48,0
490.9897,491.0693,47,39,0
491.15048,491.23166,57,48,0
491.15048,491.23166,45,39,0
491.3128,491.39398,44,45,0
491.3128,491.39398,56,54,0
491.47516,491.5563,57,49,0
491.47516,491.5563,45,41,0
491.63748,491.68823,59,49,0
491.63748,491.68823,47,41,0
491.79984,491.88663,49,46,0
491.79984,491.88663,61,61,0
491.96814,492.0465,60,51,0
491.96814,492.0465,48,43,0
492.12488,492.20325,62,51,0
492.12488,492.20325,50,43,0
492.28162,492.36,49,46,0
492.28162,492.36,61,56,0
492.43835,492.51672,59,51,0
492.43835,492.51672,47,43,0
492.5951,492.68015,57,51,0
492.5951,492.68015,45,43,0
492.76517,492.8448,42,58,0
492.76517,492.8448,54,56,0
492.9244,493.00403,56,49,0
492.9244,493.00403,44,41,0
493.08365,493.16327,54,49,0
493.08365,493.16327,42,41,0
493.2429,493.3225,41,44,0
493.2429,493.3225,53,52,0
493.4021,493.48172,54,49,0
493.4021,493.48172,42,41,0
493.56134,493.64096,58,49,0
493.56134,493.64096,46,41,0
493.72058,493.80148,47,45,0
493.72058,493.80148,59,61,0
493.8824,493.96332,61,48,0
493.8824,493.96332,49,39,0
494.04422,494.12512,59,48,0
494.04422,494.12512,47,39,0
494.20602,494.28693,46,44,0
494.20602,494.28693,58,52,0
494.36783,494.44873,59,49,0
494.36783,494.44873,47,41,0
494.52963,494.61325,57,49,0
494.52963,494.61325,45,41,0
494.69687,494.7791,44,52,0
494.69687,494.7791,56,62,0
494.86136,494.93973,54,43,0
494.86136,494.93973,66,51,0
495.0181,495.09647,64,51,0
495.0181,495.09647,52,43,0
495.17484,495.2532,63,57,0
495.17484,495.2532,51,48,0
495.33157,495.40994,52,44,0
495.33157,495.40994,64,52,0
495.4883,495.56668,56,52,0
495.4883,495.56668,44,44,0
495.64505,495.72467,54,55,0
495.64505,495.72467,42,45,0
495.8043,495.8839,44,42,0
495.8043,495.8839,56,50,0
495.9635,496.04312,54,50,0
495.9635,496.04312,42,42,0
496.12274,496.20236,53,55,0
496.12274,496.20236,41,45,0
496.28198,496.3616,42,42,0
496.28198,496.3616,54,50,0
496.44122,496.53082,47,50,0
496.44122,496.53082,35,42,0
496.62042,496.78226,40,45,0
496.62042,496.78226,52,54,0
496.78226,496.94406,44,40,0
496.78226,496.94406,56,48,0
496.94406,497.10587,47,41,0
496.94406,497.10587,59,49,0
497.10587,497.22723,56,45,0
497.10587,497.22723,52,45,0
497.10587,497.22723,64,54,0
497.26767,497.4295,56,42,0
497.26767,497.4295,68,49,0
497.4295,497.6025,59,45,0
497.4295,497.6025,71,54,0
497.6025,497.6916,64,54,0
497.6025,497.6916,76,63,0
497.76407,497.81894,52,50,0
497.76407,497.81894,59,50,0
497.76407,497.81894,64,59,0
497.911,497.96698,53,45,0
497.911,497.96698,59,45,0
497.911,497.96698,63,54,0
498.06198,498.1197,54,51,0
498.06198,498.1197,60,51,0
498.06198,498.1197,62,62,0
498.21732,498.2768,55,45,0
498.21732,498.2768,59,54,0
498.377,498.43826,56,45,0
498.377,498.43826,62,54,0
498.54263,498.62915,45,46,0
498.54263,498.62915,57,61,0
498.71564,498.79526,59,48,0
498.71564,498.79526,47,39,0
498.87643,498.9576,57,48,0
498.87643,498.9576,45,39,0
499.03876,499.11993,44,45,0
499.03876,499.11993,56,54,0
499.2011,499.2823,57,49,0
499.2011,499.2823,45,41,0
499.36343,499.41418,59,49,0
499.36343,499.41418,47,41,0
499.5258,499.61258,49,46,0
499.5258,499.61258,61,61,0
499.6941,499.77246,60,51,0
499.6941,499.77246,48,43,0
499.85083,499.9292,62,51,0
499.85083,499.9292,50,43,0
500.00757,500.08594,49,46,0
500.00757,500.08594,61,56,0
500.1643,500.24268,59,51,0
500.1643,500.24268,47,43,0
500.32104,500.4061,57,51,0
500.32104,500.4061,45,43,0
500.49112,500.65295,42,45,0
500.49112,500.65295,54,54,0
500.65295,500.81476,45,40,0
500.65295,500.81476,57,48,0
500.81476,500.97656,62,48,0
500.81476,500.97656,50,40,0
500.97656,501.09793,54,44,0
500.97656,501.09793,66,52,0
501.13837,501.3002,57,45,0
501.13837,501.3002,69,54,0
501.30234,501.47537,61,49,0
501.30234,501.47537,73,58,0
501.4732,501.6381,74,61,0
501.4732,501.6381,62,51,0
502.75302,502.9339,59,35,0
502.75302,502.9339,52,35,0
502.75302,502.9339,62,42,0
502.99042,503.16003,59,35,0
502.99042,503.16003,52,35,0
502.99042,503.16003,62,42,0
503.2175,503.3924,59,35,0
503.2175,503.3924,52,35,0
503.2175,503.3924,62,42,0
503.4519,503.92212,59,39,0
503.4519,503.92212,62,46,0
503.4519,503.92212,52,39,0
503.92212,504.15872,56,43,0
503.89273,504.15872,50,36,0
503.86334,504.15872,47,36,0
503.83395,504.15872,40,36,0
504.40466,504.49118,45,46,0
504.40466,504.49118,57,61,0
504.5777,504.6573,59,48,0
504.5777,504.6573,47,39,0
504.73846,504.81964,57,48,0
504.73846,504.81964,45,39,0
504.90082,504.98196,44,45,0
504.90082,504.98196,56,54,0
505.06314,505.14432,57,49,0
505.06314,505.14432,45,41,0
505.2255,505.2762,59,49,0
505.2255,505.2762,47,41,0
505.38782,505.47464,49,46,0
505.38782,505.47464,61,61,0
505.55615,505.63452,60,51,0
505.55615,505.63452,48,43,0
505.7129,505.79126,62,51,0
505.7129,505.79126,50,43,0
505.86963,505.948,49,46,0
505.86963,505.948,61,56,0
506.02637,506.10474,59,51,0
506.02637,506.10474,47,43,0
506.1831,506.26813,57,51,0
506.1831,506.26813,45,43,0
506.35318,506.51498,42,45,0
506.35318,506.51498,54,54,0
506.51498,506.6768,45,40,0
506.51498,506.6768,57,48,0
506.6768,506.8386,62,48,0
506.6768,506.8386,50,40,0
506.8386,506.95996,54,44,0
506.8386,506.95996,66,52,0
507.00043,507.16223,57,45,0
507.00043,507.16223,69,54,0
507.1644,507.3374,74,58,0
507.1644,507.3374,62,49,0
507.33524,507.50085,78,61,0
507.33524,507.50085,66,51,0
507.84177,508.1116,62,47,0
507.84177,508.1116,71,56,0
508.1116,508.39484,61,44,0
508.1116,508.39484,69,52,0
508.39484,508.68634,68,54,0
508.39484,508.68634,62,45,0
508.39484,508.68634,59,44,0
508.95544,509.21143,56,52,0
508.85577,509.21143,40,45,0
508.88925,509.21143,47,47,0
508.92255,509.21143,50,50,0
512.367,512.8686,45,42,0
512.8686,513.14716,40,54,0
512.5686,513.14716,61,62,0
512.4678,513.14716,52,46,0
513.14716,513.4249,49,42,0
513.14716,513.4249,52,50,0
513.14716,513.4249,57,60,0
513.4249,513.6149,40,55,0
513.4249,513.6149,52,55,0
513.6149,514.00885,47,50,0
514.00885,514.2661,40,53,0
513.73517,514.2661,62,62,0
513.69507,514.2661,56,50,0
513.655,514.2661,52,50,0
514.2661,514.5349,50,50,0
514.5349,514.819,40,54,0
514.2661,514.819,56,59,0
514.819,515.07544,52,50,0
514.819,515.07544,49,50,0
514.819,515.07544,57,59,0
515.07544,515.2633,73,45,0
515.07544,515.2633,64,45,0
515.07544,515.2633,76,54,0
515.32477,515.5066,73,47,0
515.32477,515.5066,64,47,0
515.32477,515.5066,76,56,0
515.5661,515.7533,73,50,0
515.5661,515.7533,64,50,0
515.5661,515.7533,76,59,0
516.0647,516.3106,72,48,0
515.8188,516.3106,56,62,0
516.0647,516.3106,75,59,0
516.3106,516.5738,73,50,0
516.3106,516.5738,76,59,0
516.0647,516.5738,64,38,0
516.5738,516.7711,71,50,0
516.5738,516.7711,64,50,0
516.5738,516.7711,74,59,0
516.7711,517.10474,45,47,0
517.10474,517.36334,40,54,0
516.87036,517.36334,61,72,0
516.82074,517.36334,52,54,0
517.36334,517.61334,49,40,0
517.36334,517.61334,52,50,0
517.36334,517.61334,57,61,0
517.61334,517.7777,40,55,0
517.61334,517.7777,52,55,0
517.7777,518.1126,47,50,0
518.1126,518.35455,40,53,0
517.88184,518.35455,62,70,0
517.84717,518.35455,56,50,0
517.81244,518.35455,52,50,0
518.35455,518.5853,50,50,0
518.5853,518.8586,40,54,0
518.35455,518.8586,56,64,0
518.8586,519.1032,52,50,0
518.8586,519.1032,49,50,0
518.8586,519.1032,57,59,0
519.1032,519.283,73,43,0
519.1032,519.283,64,43,0
519.1032,519.283,76,51,0
519.3419,519.51685,73,45,0
519.3419,519.51685,64,45,0
519.3419,519.51685,76,53,0
519.5745,519.7612,73,47,0
519.5745,519.7612,64,47,0
519.5745,519.7612,76,55,0
520.0767,520.3111,72,47,0
519.8267,520.3111,56,62,0
520.0767,520.3111,75,55,0
520.3111,520.5455,73,47,0
520.3111,520.5455,76,55,0
520.0767,520.5455,64,40,0
520.5455,520.77985,71,47,0
520.5455,520.77985,64,47,0
520.5455,520.77985,74,55,0
520.77985,521.03284,57,59,0
521.03284,521.2105,69,43,0
521.03284,521.2105,64,43,0
521.03284,521.2105,73,51,0
521.2691,521.4413,69,45,0
521.2691,521.4413,64,45,0
521.2691,521.4413,73,53,0
521.49756,521.6797,69,47,0
521.49756,521.6797,64,47,0
521.49756,521.6797,73,55,0
521.98553,522.2117,68,47,0
521.7452,522.2117,53,62,0
521.98553,522.2117,72,55,0
522.2117,522.4438,69,47,0
522.2117,522.4438,73,55,0
521.98553,522.4438,61,41,0
522.4438,522.69684,68,47,0
522.4438,522.69684,61,47,0
522.4438,522.69684,71,55,0
522.69684,522.94855,54,59,0
522.94855,523.13025,66,43,0
522.94855,523.13025,61,43,0
522.94855,523.13025,69,51,0
523.19,523.36755,66,45,0
523.19,523.36755,61,45,0
523.19,523.36755,69,53,0
523.42584,523.6015,66,47,0
523.42584,523.6015,61,47,0
523.42584,523.6015,69,55,0
523.9066,524.141,65,47,0
523.66125,524.141,49,62,0
523.9066,524.141,68,55,0
524.141,524.37537,66,47,0
524.141,524.37537,69,55,0
523.9066,524.37537,57,47,0
524.37537,524.55115,64,47,0
524.37537,524.55115,57,47,0
524.37537,524.55115,67,55,0
524.60974,524.8378,66,62,0
524.58044,524.8378,57,52,0
524.55115,524.8378,50,52,0
524.8378,524.91864,38,54,0
525.05334,525.13776,45,55,0
525.27856,525.34235,54,55,0
525.4599,525.6963,47,52,0
525.4918,525.7035,54,52,0
525.5237,525.70886,62,62,0
525.76276,525.84357,35,54,0
525.9783,526.064,42,55,0
526.2069,526.2717,50,55,0
526.45435,526.6934,68,62,0
526.42303,526.6934,59,52,0
526.39166,526.6934,52,62,0
526.6934,526.77423,40,54,0
526.90894,526.9947,47,55,0
527.13763,527.2024,56,55,0
527.32623,527.5663,49,52,0
527.36,527.5735,56,52,0
527.3937,527.57886,64,62,0
527.63275,527.71356,37,54,0
527.84827,527.93146,44,55,0
528.0701,528.133,52,55,0
528.31726,528.55634,69,62,0
528.2859,528.55634,61,52,0
528.2545,528.55634,54,62,0
528.55634,528.63715,42,54,0
528.77185,528.8576,49,55,0
529.0005,529.06525,57,55,0
529.183,529.41986,50,52,0
529.2149,529.42773,57,52,0
529.24677,529.4336,65,62,0
529.4924,529.58057,38,54,0
529.7242,529.8117,45,55,0
529.9621,530.03217,53,55,0
530.21063,530.4365,59,61,0
530.18097,530.4365,52,51,0
530.15027,530.4365,44,51,0
530.50793,530.6496,32,57,0
530.6496,530.75433,35,49,0
530.78906,530.89215,32,57,0
530.92645,531.02795,38,50,0
531.06177,531.16174,32,57,0
531.19507,531.2951,40,50,0
531.3284,531.4284,32,57,0
531.46173,531.5631,44,48,0
531.59686,531.69824,32,56,0
531.732,531.8334,47,49,0
531.8671,531.9699,32,56,0
532.00415,532.1081,50,48,0
532.14276,532.2477,32,56,0
532.2829,532.38855,52,49,0
532.424,532.5311,32,56,0
532.56683,532.6753,56,49,0
532.71155,532.82263,32,56,0
532.86084,532.97864,59,48,0
533.019,533.14844,32,56,0
533.1952,533.3491,62,48,0
533.40466,533.58,32,56,0
533.64417,533.84686,64,51,0
533.9144,534.15955,32,61,0
534.848,535.1841,71,70,0
534.79297,535.1841,56,62,0
535.22876,535.537,72,70,0
535.1841,535.537,57,62,0
535.92505,536.2331,73,69,0
535.88196,536.2331,58,62,0
536.2789,536.5932,74,70,0
536.2331,536.5932,59,62,0
536.99023,537.2974,74,66,0
536.94617,537.2974,59,60,0
537.3417,537.6432,75,66,0
537.2974,537.6432,60,58,0
538.02673,538.36816,76,62,0
537.98413,538.36816,61,58,0
538.36816,538.7064,62,58,0
538.36816,538.7064,77,69,0
539.3765,539.70764,62,57,0
539.3765,539.70764,77,68,0
540.3603,540.69794,63,57,0
540.3603,540.69794,78,68,0
541.3482,541.664,63,58,0
541.3482,541.664,78,69,0
546.006,546.1047,64,36,0
546.1047,546.2025,65,37,0
546.2025,546.29956,66,39,0
546.29956,546.3958,67,40,0
546.3958,546.49133,68,42,0
546.49133,546.586,69,43,0
546.586,546.68005,70,45,0
546.68005,546.7733,71,46,0
546.7733,546.86584,72,47,0
546.86584,546.95764,73,49,0
546.95764,547.0488,74,50,0
547.0488,547.1389,75,52,0
547.1389,547.22766,76,55,0
547.22766,547.316,77,42,0
547.316,547.4039,78,44,0
547.4039,547.49133,79,45,0
547.49133,547.57837,80,46,0
547.57837,547.66504,81,48,0
547.66504,547.7512,82,50,0
547.7512,547.83704,83,52,0
547.83704,547.9225,84,53,0
547.9225,548.00757,85,54,0
548.00757,548.0922,86,56,0
548.0922,548.1765,87,58,0
548.1765,548.2603,88,55,0
548.2603,548.3441,90,52,0
548.3441,548.4279,91,54,0
548.4279,548.5117,92,56,0
548.5117,548.5951,93,58,0
548.5951,548.67847,94,60,0
548.67847,548.7615,95,63,0
548.7615,548.845,94,59,0
548.845,548.92914,93,58,0
548.92914,549.01404,92,57,0
549.01404,549.0996,91,56,0
549.0996,549.1857,90,55,0
549.1857,549.26953,88,55,0
549.26953,549.3528,90,52,0
549.3528,549.4356,91,54,0
549.4356,549.51794,92,56,0
549.51794,549.59985,93,58,0
549.59985,549.6813,94,60,0
549.6813,549.7628,95,63,0
549.7628,549.84546,94,59,0
549.84546,549.92926,93,58,0
549.92926,550.0142,92,57,0
550.0142,550.10046,91,56,0
550.10046,550.1884,90,55,0
550.1884,550.2759,88,55,0
550.2759,550.3625,90,52,0
550.3625,550.4484,91,54,0
550.4484,550.53357,92,55,0
550.53357,550.61804,93,57,0
550.61804,550.7018,94,59,0
550.7018,550.78485,95,61,0
550.78485,550.868,96,63,0
550.868,550.95197,97,64,0
550.95197,551.03705,98,66,0
551.03705,551.12317,97,63,0
551.12317,551.2103,96,63,0
551.2103,551.2986,95,62,0
551.2986,551.388,92,62,0
551.388,551.4785,89,60,0
551.4785,551.5703,86,57,0
551.5703,551.6626,85,55,0
551.6626,551.75366,84,53,0
551.75366,551.8436,83,51,0
551.8436,551.9324,84,48,0
551.9324,552.02057,85,53,0
552.02057,552.11005,86,51,0
552.11005,552.2009,85,50,0
552.2009,552.2932,84,48,0
552.2932,552.3861,83,47,0
552.3861,552.478,80,45,0
552.478,552.569,77,45,0
552.569,552.6599,74,45,0
552.6599,552.7508,73,45,0
552.7508,552.844,72,45,0
552.844,552.94147,71,46,0
552.94147,553.0374,72,48,0
553.0374,553.132,73,48,0
553.132,553.2251,74,46,0
553.2251,553.3197,73,45,0
553.3197,553.418,71,44,0
553.418,553.5168,68,36,0
553.5168,553.61365,71,37,0
553.61365,553.7086,73,40,0
553.7086,553.8029,74,40,0
553.8029,553.89905,73,40,0
553.89905,553.9971,71,39,0
553.9971,554.0957,64,37,0
554.0957,554.1932,71,36,0
554.1932,554.2894,73,37,0
554.2894,554.38544,74,39,0
554.38544,554.48285,73,37,0
554.48285,554.5816,71,37,0
554.5816,554.68097,66,36,0
554.68097,554.7786,71,36,0
554.7786,554.8746,73,37,0
554.8746,554.9699,74,38,0
554.9699,555.0665,73,37,0
555.0665,555.1645,71,36,0
555.1645,555.2628,67,35,0
555.2628,555.36017,71,34,0
555.36017,555.45654,73,35,0
555.45654,555.5533,74,36,0
555.5533,555.6508,73,36,0
555.6508,555.7492,71,34,0
555.7492,555.8486,68,34,0
555.8486,555.94727,71,34,0
555.94727,556.1428,74,34,0
560.0615,560.2095,56,35,0
560.2095,560.35736,64,31,0
560.35736,560.4989,45,38,0
560.4989,560.6404,52,31,0
560.6404,560.7875,57,34,0
560.7875,560.9345,64,31,0
560.9345,561.0747,56,36,0
561.0747,561.2149,64,31,0
561.2149,561.3488,45,35,0
561.3488,561.4827,52,31,0
561.4827,561.6229,57,34,0
561.6229,561.7631,64,31,0
561.7631,561.906,59,31,0
561.906,562.0488,64,31,0
562.0488,562.1804,56,36,0
562.1804,562.312,64,31,0
562.312,562.44965,52,35,0
562.44965,562.5872,68,31,0
562.5872,562.72485,53,35,0
562.72485,562.8625,69,31,0
562.8625,563.00397,54,35,0
563.00397,563.1455,70,31,0
563.1455,563.287,55,36,0
563.287,563.4285,71,31,0
563.4285,563.57556,56,36,0
563.57556,563.7226,72,31,0
563.7226,563.85657,45,38,0
563.85657,563.9905,52,31,0
563.9905,564.1281,57,34,0
564.1281,564.2657,64,31,0
564.2657,564.4072,56,36,0
564.4072,564.5487,64,31,0
564.5487,564.68506,45,35,0
564.68506,564.8215,52,31,0
564.8215,564.9643,57,34,0
564.9643,565.1072,64,31,0
565.1072,565.2542,59,31,0
565.2542,565.4013,64,31,0
565.4013,565.53174,56,36,0
565.53174,565.6622,64,31,0
565.6622,565.7985,52,35,0
565.7985,565.9349,68,31,0
565.9349,566.0712,53,35,0
566.0712,566.2076,69,31,0
566.2076,566.35046,54,35,0
566.35046,566.49335,70,31,0
566.49335,566.63617,55,36,0
566.63617,566.77905,71,31,0
566.77905,566.929,56,36,0
566.929,567.07904,72,31,0
567.07904,567.21063,45,38,0
567.21063,567.3422,52,31,0
567.3422,567.48236,61,34,0
567.48236,567.62256,64,31,0
567.62256,567.76276,57,36,0
567.76276,567.90295,61,31,0
567.90295,568.0357,50,35,0
568.0357,568.16846,59,31,0
568.16846,568.30994,62,34,0
568.30994,568.4515,66,31,0
568.4515,568.59296,59,31,0
568.59296,568.73444,62,31,0
568.73444,568.8627,52,38,0
568.8627,568.9909,61,31,0
568.9909,569.1248,69,34,0
569.1248,569.2587,73,31,0
569.2587,569.4016,64,36,0
569.4016,569.54443,69,31,0
569.54443,569.67487,52,35,0
569.67487,569.8053,62,31,0
569.8053,569.9482,68,34,0
569.9482,570.091,71,31,0
570.091,570.2339,62,31,0
570.2339,570.3768,68,31,0
570.3768,570.52673,64,32,0
570.3768,570.52673,61,32,0
570.52673,570.67676,64,33,0
570.67676,570.8072,69,34,0
570.8072,570.9376,73,34,0
570.9376,571.06805,76,35,0
571.06805,571.1985,78,36,0
571.1985,571.33124,80,36,0
571.33124,571.464,76,36,0
571.464,571.60284,71,31,0
571.60284,571.74176,73,31,0
571.74176,571.8806,74,33,0
571.8806,572.01953,76,31,0
572.01953,572.14886,78,36,0
572.14886,572.27814,74,36,0
572.27814,572.4145,70,36,0
572.4145,572.5509,65,37,0
572.5509,572.68726,62,38,0
572.68726,572.8236,60,38,0
572.8236,572.96783,59,41,0
572.96783,573.11206,64,38,0
573.11206,573.2636,56,38,0
573.2636,573.4151,64,36,0
573.4151,573.573,56,36,0
573.4151,573.573,52,36,0
573.573,573.7309,64,34,0
573.7309,573.8724,45,38,0
573.8724,574.0145,52,31,0
574.0145,574.1616,57,34,0
574.1616,574.30786,64,31,0
574.30786,574.44806,56,36,0
574.44806,574.5875,64,31,0
574.5875,574.72144,45,35,0
574.72144,574.8561,52,31,0
574.8561,574.9963,57,34,0
574.9963,575.1368,64,31,0
575.1368,575.27966,59,31,0
575.27966,575.4212,64,31,0
575.4212,575.55273,56,36,0
575.55273,575.68506,64,31,0
575.68506,575.82263,52,35,0
575.82263,575.96027,68,31,0
575.96027,576.0979,53,35,0
576.0979,576.23596,69,31,0
576.23596,576.37744,54,35,0
576.37744,576.519,70,31,0
576.519,576.66046,55,36,0
576.66046,576.8027,71,31,0
576.8027,576.9497,56,36,0
576.9497,577.0952,72,31,0
577.0952,577.2292,45,38,0
577.2292,577.3635,52,31,0
577.3635,577.50116,57,34,0
577.50116,577.6392,64,31,0
577.6392,577.7807,56,36,0
577.7807,577.92163,64,31,0
577.92163,578.058,45,35,0
578.058,578.1951,52,31,0
578.1951,578.33795,57,34,0
578.33795,578.4813,64,31,0
578.4813,578.62836,59,31,0
578.62836,578.7735,64,31,0
578.7735,578.90393,56,36,0
578.90393,579.03503,64,31,0
579.03503,579.1714,52,35,0
579.1714,579.3078,68,31,0
579.3078,579.44415,53,35,0
579.44415,579.58124,69,31,0
579.58124,579.7241,54,35,0
579.7241,579.867,70,31,0
579.867,580.0098,55,36,0
580.0098,580.1535,71,31,0
580.1535,580.3035,56,36,0
580.3035,580.45135,72,31,0
580.45135,580.58295,45,38,0
580.58295,580.7155,52,31,0
580.7155,580.8557,61,34,0
580.8557,580.9959,64,31,0
580.9959,581.1361,57,36,0
581.1361,581.2754,61,31,0
581.2754,581.40814,50,35,0
581.40814,581.54193,59,31,0
581.54193,581.6834,62,34,0
581.6834,581.82495,66,31,0
581.82495,581.96643,59,31,0
581.96643,582.1064,62,31,0
582.1064,582.2346,52,38,0
582.2346,582.36346,61,31,0
582.36346,582.49744,69,34,0
582.49744,582.6324,73,31,0
582.6324,582.77527,64,36,0
582.77527,582.9166,69,31,0
582.9166,583.04706,52,35,0
583.04706,583.17896,62,31,0
583.17896,583.32184,68,34,0
583.32184,583.46466,71,31,0
583.46466,583.60754,62,31,0
583.60754,583.7504,68,31,0
583.7504,583.89325,57,45,0
583.7504,583.89325,52,39,0
583.7504,583.89325,45,32,0
584.32184,584.46466,73,49,0
584.6026,584.7332,73,52,0
584.55365,584.7332,57,41,0
584.56995,584.7332,64,41,0
584.58624,584.7332,67,41,0
584.9908,585.0531,71,49,0
585.11523,585.24133,73,46,0
585.3714,585.5036,74,54,0
585.35486,585.5036,66,43,0
585.338,585.5036,62,43,0
585.76166,585.82544,76,45,0
585.8897,585.9872,74,48,0
586.1531,586.28406,73,52,0
586.1028,586.28406,57,41,0
586.12036,586.28406,64,41,0
586.1366,586.28406,67,41,0
586.54047,586.6035,71,49,0
586.66705,586.79584,73,46,0
586.9255,587.0559,66,43,0
586.9255,587.0559,74,54,0
586.9255,587.0559,62,43,0
588.8349,588.9671,69,54,0
588.81836,588.9671,61,43,0
588.8015,588.9671,52,43,0
589.22516,589.28894,71,45,0
589.3532,589.4506,69,48,0
589.6166,589.74756,68,52,0
589.5662,589.74756,52,41,0
589.58386,589.74756,59,41,0
589.6001,589.74756,62,41,0
590.00397,590.067,66,49,0
590.13055,590.25934,68,46,0
590.3889,590.5194,61,43,0
590.3889,590.5194,69,54,0
590.3889,590.5194,57,43,0
591.7335,591.8596,61,57,0
591.6805,591.8596,45,41,0
591.6981,591.8596,52,41,0
591.7158,591.8596,55,41,0
592.1172,592.1795,59,54,0
592.24164,592.36774,61,51,0
592.49786,592.63,62,59,0
592.49786,592.63,54,43,0
592.49786,592.63,50,43,0
592.8881,592.95184,64,50,0
593.0161,593.1136,62,53,0
593.2795,593.41046,61,56,0
593.2795,593.41046,45,41,0
593.2795,593.41046,52,41,0
593.2795,593.41046,55,41,0
593.66693,593.7299,59,54,0
593.7935,593.92224,61,51,0
594.0519,594.1823,62,59,0
594.0519,594.1823,54,43,0
594.0519,594.1823,50,43,0
596.6983,596.83044,57,55,0
596.62885,596.83044,49,43,0
596.5594,596.83044,40,43,0
597.0885,597.1523,59,50,0
597.21655,597.314,57,53,0
597.4799,597.6109,56,54,0
597.4296,597.6109,40,41,0
597.4472,597.6109,47,41,0
597.46344,597.6109,50,41,0
597.8674,597.93036,54,54,0
597.9939,598.1227,56,51,0
598.2523,598.4008,57,55,0
598.2523,598.4008,49,43,0
598.2523,598.4008,45,43,0
600.5269,600.65906,49,49,0
600.5269,600.65906,40,49,0
600.5269,600.65906,57,58,0
600.9172,600.9809,59,40,0
600.9172,600.9809,62,47,0
601.04517,601.14404,57,43,0
601.04517,601.14404,61,51,0
601.3175,601.4485,56,45,0
601.3175,601.4485,52,45,0
601.3175,601.4485,59,54,0
601.70496,601.76794,54,42,0
601.70496,601.76794,57,50,0
601.83154,601.96027,56,44,0
601.83154,601.96027,59,52,0
602.0899,602.2384,61,55,0
602.04126,602.2384,45,55,0
602.05756,602.2384,52,55,0
602.0737,602.2384,57,55,0
602.6826,602.737,33,31,0
602.737,602.7909,35,32,0
602.7909,602.8445,37,33,0
602.8445,602.89764,38,34,0
602.89764,602.95044,40,35,0
602.95044,603.00287,42,36,0
603.00287,603.055,44,37,0
603.055,603.1067,45,38,0
603.1067,603.158,47,39,0
603.158,603.20905,49,40,0
603.20905,603.25964,50,41,0
603.25964,603.31,52,43,0
603.31,603.3599,54,44,0
603.3599,603.4096,56,45,0
603.4096,603.45886,57,45,0
603.45886,603.5061,59,46,0
603.5061,603.55634,61,47,0
603.55634,603.60785,62,49,0
603.60785,603.725,63,51,0
604.0669,604.19904,49,49,0
604.0669,604.19904,40,49,0
604.0669,604.19904,57,58,0
604.45715,604.5209,59,40,0
604.45715,604.5209,62,47,0
604.58514,604.6835,57,43,0
604.58514,604.6835,61,51,0
604.8541,604.98944,56,45,0
604.8541,604.98944,52,45,0
604.8541,604.98944,59,54,0
605.2459,605.3089,54,42,0
605.2459,605.3089,57,50,0
605.3725,605.5012,56,44,0
605.3725,605.5012,59,52,0
605.63086,605.77936,61,55,0
605.5822,605.77936,45,55,0
605.5985,605.77936,52,55,0
605.6147,605.77936,57,55,0
606.2236,606.2779,66,36,0
606.2779,606.33185,64,36,0
606.33185,606.38544,62,37,0
606.38544,606.4386,61,38,0
606.4386,606.4914,59,40,0
606.4914,606.5438,57,41,0
606.5438,606.5959,56,42,0
606.5959,606.64764,54,43,0
606.64764,606.699,52,44,0
606.699,606.75,50,45,0
606.75,606.8006,49,45,0
606.8006,606.8496,47,46,0
606.8496,606.8999,45,47,0
606.8999,606.95154,44,49,0
606.95154,607.0598,42,50,0
607.0598,607.146,49,53,0
607.0598,607.146,40,53,0
607.0598,607.146,52,63,0
607.4041,607.55743,45,58,0
607.4041,607.55743,40,58,0
607.4041,607.55743,49,58,0
607.4041,607.55743,52,69,0
607.8487,607.9215,50,56,0
607.8487,607.9215,52,66,0
607.8487,607.9215,40,56,0
607.8487,607.9215,47,56,0
607.995,608.0804,45,56,0
607.995,608.1231,52,66,0
607.995,608.1231,40,56,0
607.995,608.1231,49,56,0
608.3108,608.4564,44,60,0
608.3108,608.4564,40,60,0
608.3108,608.4564,52,71,0
608.3108,608.4564,47,60,0
608.7477,608.8205,45,52,0
608.7477,608.8205,52,63,0
608.7477,608.8205,40,52,0
608.7477,608.8205,42,52,0
608.89386,609.0628,44,52,0
608.89386,609.0628,40,52,0
608.89386,609.0628,52,63,0
608.89386,609.0628,47,52,0
609.23126,609.8177,45,66,0
609.23126,609.8301,40,56,0
609.23126,609.8301,37,56,0
609.23126,609.8301,33,56,0
610.2959,610.3709,52,30,0
610.2959,610.3709,64,36,0
610.7263,610.759,52,27,0
610.7263,610.759,64,32,0
610.85675,610.922,52,27,0
610.85675,610.922,64,32,0
611.15576,611.2265,57,30,0
611.15576,611.2265,64,36,0
611.5704,611.6033,57,29,0
611.5704,611.6033,64,35,0
611.7019,611.7677,57,29,0
611.7019,611.7677,64,35,0
612.0002,612.0716,52,30,0
612.0002,612.0716,64,36,0
612.4175,612.4504,52,28,0
612.4175,612.4504,64,34,0
612.5491,612.6148,52,28,0
612.5491,612.6148,64,34,0
612.8534,613.1364,57,30,0
612.8534,613.1364,61,36,0
613.72125,614.1396,44,60,0
613.72125,614.1396,40,60,0
613.72125,614.1396,52,71,0
613.72125,614.1396,47,60,0
614.1396,614.27686,45,52,0
614.1396,614.27686,52,63,0
614.1396,614.27686,40,52,0
614.1396,614.27686,42,52,0
614.27686,614.5926,44,52,0
614.27686,614.5926,40,52,0
614.27686,614.5926,52,63,0
614.27686,614.5926,47,52,0
614.5926,615.01196,52,58,0
614.5926,615.01196,49,52,0
614.5926,615.01196,45,52,0
615.01196,615.1493,50,56,0
615.01196,615.1493,47,56,0
615.01196,615.1493,52,66,0
615.1493,615.4623,49,56,0
615.1493,615.4623,45,56,0
615.1493,615.4623,52,66,0
615.4623,615.8844,44,60,0
615.4623,615.8844,40,60,0
615.4623,615.8844,52,71,0
615.4623,615.8844,47,60,0
615.8844,616.02167,45,52,0
615.8844,616.02167,52,63,0
615.8844,616.02167,40,52,0
615.8844,616.02167,42,52,0
616.02167,616.359,44,52,0
616.02167,616.359,40,52,0
616.02167,616.359,52,63,0
616.02167,616.359,47,52,0
616.359,616.5858,33,56,0
616.359,616.5858,45,66,0
616.359,616.5858,40,56,0
616.359,616.5858,37,56,0
618.16614,618.22565,62,45,0
618.28516,618.3424,64,45,0
618.49286,618.67145,66,54,0
618.84546,618.89233,61,46,0
618.9392,618.9992,63,46,0
619.1792,619.3699,59,51,0
619.548,619.5957,56,47,0
619.6435,619.703,61,47,0
619.8816,620.07556,60,52,0
620.253,620.3008,54,46,0
620.3485,620.408,47,46,0
620.5866,620.7806,40,53,0
620.95886,621.00824,52,40,0
620.95886,621.00824,59,48,0
621.05756,621.1144,53,40,0
621.05756,621.1144,59,48,0
621.28485,621.4771,54,43,0
621.28485,621.4771,60,51,0
621.6549,621.7049,55,40,0
621.6549,621.7049,59,48,0
621.7549,621.81256,56,40,0
621.7549,621.81256,62,48,0
621.98566,622.1796,57,45,0
621.98566,622.1796,61,54,0
622.70526,622.89276,52,39,0
622.70526,622.89276,61,46,0
622.70526,622.89276,45,37,0
623.7684,623.8279,50,40,0
623.7684,623.8279,62,48,0
623.88745,623.9447,52,44,0
623.88745,623.9447,64,52,0
624.09625,624.27484,54,49,0
624.09625,624.27484,66,58,0
624.44885,624.49664,49,43,0
624.44885,624.49664,61,51,0
624.54443,624.6021,50,44,0
624.54443,624.6021,62,52,0
624.77515,624.9691,52,46,0
624.77515,624.9691,59,55,0
625.14746,625.19403,40,43,0
625.14746,625.19403,47,43,0
625.14746,625.19403,52,51,0
625.2406,625.3001,42,43,0
625.2406,625.3001,47,43,0
625.2406,625.3001,54,51,0
625.4787,625.671,44,47,0
625.4787,625.671,47,47,0
625.4787,625.671,56,56,0
625.84875,625.8968,39,41,0
625.84875,625.8968,51,49,0
625.9449,626.0069,40,41,0
625.9449,626.0069,47,41,0
625.9449,626.0069,52,49,0
626.1928,626.3974,45,46,0
626.1928,626.3974,49,55,0
626.1928,626.3974,37,46,0
626.1928,626.3974,40,46,0
626.4656,626.5971,52,47,0
626.4656,626.5971,57,47,0
626.4656,626.5971,61,56,0
626.7287,627.22925,57,51,0
626.7287,627.22925,61,51,0
626.7287,627.22925,64,61,0
627.22925,627.29395,52,48,0
627.22925,627.29395,44,48,0
627.22925,627.29395,59,58,0
627.4879,627.55255,44,48,0
627.4879,627.55255,52,48,0
627.4879,627.55255,60,58,0
627.7465,627.9405,45,52,0
627.7465,627.9405,52,52,0
627.7465,627.9405,62,63,0
628.1251,628.1765,45,47,0
628.1251,628.1765,52,47,0
628.1251,628.1765,61,56,0
628.22784,628.2874,45,47,0
628.22784,628.2874,50,47,0
628.22784,628.2874,59,56,0
628.46594,628.72235,40,54,0
628.46594,628.72235,49,54,0
628.46594,628.72235,57,64,0
628.8424,628.89594,56,47,0
628.8424,628.89594,52,47,0
628.8424,628.89594,61,56,0
628.9495,629.01587,50,47,0
628.9495,629.01587,56,47,0
628.9495,629.01587,59,56,0
629.215,629.3478,49,52,0
629.215,629.3478,45,52,0
629.215,629.3478,57,62,0
629.6132,629.6601,33,49,0
629.6132,629.6601,45,59,0
629.707,629.76746,35,50,0
629.707,629.76746,47,60,0
629.9489,630.122,37,54,0
629.9489,630.122,49,65,0
630.2969,630.35046,33,49,0
630.2969,630.35046,45,59,0
630.404,630.4838,29,49,0
630.404,630.4838,41,59,0
630.7232,630.94275,28,63,0
630.7232,630.94275,40,63,0
631.14197,631.18854,56,42,0
631.14197,631.18854,59,50,0
631.2351,631.31244,52,42,0
631.2351,631.31244,56,50,0
631.54443,631.75183,45,50,0
631.54443,631.75183,40,50,0
631.54443,631.75183,52,59,0
631.9429,631.98975,61,43,0
631.9429,631.98975,64,51,0
632.0366,632.11017,57,43,0
632.0366,632.11017,61,51,0
632.33075,632.58936,47,52,0
632.33075,632.58936,40,52,0
632.33075,632.58936,52,62,0
632.71545,632.762,56,42,0
632.71545,632.762,59,50,0
632.8086,632.88,52,42,0
632.8086,632.88,56,50,0
633.0943,633.2106,68,44,0
633.0943,633.2106,71,53,0
633.32684,633.4478,64,44,0
633.32684,633.4478,68,53,0
633.5688,633.6833,76,44,0
633.5688,633.6833,83,53,0
633.7978,633.93054,75,50,0
633.7978,633.93054,83,59,0
634.0633,634.1518,71,47,0
634.1518,634.23364,72,47,0
634.23364,634.30884,73,47,0
634.30884,634.4308,72,53,0
634.55273,634.63025,61,50,0
634.63025,634.70776,62,50,0
634.70776,634.7853,63,50,0
634.7853,634.90625,62,55,0
635.0272,635.1092,49,47,0
635.1092,635.19116,50,47,0
635.19116,635.27313,51,47,0
635.27313,635.39813,52,54,0
635.52313,635.5934,64,38,0
635.58923,635.6583,66,39,0
635.65424,635.7239,68,39,0
635.7311,635.8004,66,41,0
635.78516,635.8533,64,41,0
635.8492,635.91797,63,39,0
635.91394,635.9814,61,37,0
635.9774,636.0454,59,35,0
636.0414,636.1053,57,36,0
636.1053,636.17175,56,36,0
636.1678,636.235,54,38,0
636.231,636.297,52,39,0
636.293,636.3596,51,40,0
636.3557,636.42206,49,41,0
636.41815,636.4835,47,42,0
636.47955,636.5548,45,43,0
636.5501,636.63165,44,45,0
636.62537,636.70355,42,45,0
636.78796,637.0248,52,63,0
636.78796,637.0248,47,55,0
636.78796,637.0248,40,55,0
637.2298,637.27637,56,37,0
637.2298,637.27637,59,45,0
637.323,637.4054,52,37,0
637.323,637.4054,56,45,0
637.65265,637.93304,52,53,0
637.65265,637.93304,40,45,0
637.65265,637.93304,45,45,0
638.055,638.10187,61,38,0
638.055,638.10187,64,45,0
638.14874,638.2285,61,45,0
638.14874,638.2285,57,38,0
638.4679,638.7265,47,46,0
638.4679,638.7265,40,46,0
638.4679,638.7265,52,55,0
638.8526,638.8992,59,45,0
638.8526,638.8992,56,37,0
638.94574,639.0088,52,37,0
638.94574,639.0088,56,45,0
639.1978,639.31415,68,39,0
639.1978,639.31415,71,47,0
639.4304,639.5514,64,39,0
639.4304,639.5514,68,47,0
639.67236,639.78687,83,47,0
639.67236,639.78687,76,39,0
639.90137,640.03406,75,45,0
639.90137,640.03406,83,53,0
640.1668,640.2553,71,42,0
640.2553,640.33716,72,42,0
640.33716,640.41235,73,42,0
640.41235,640.5343,72,47,0
640.65625,640.73376,61,45,0
640.73376,640.8113,62,45,0
640.8113,640.8888,63,45,0
640.8888,641.00977,62,49,0
641.13074,641.2127,49,42,0
641.2127,641.2947,50,42,0
641.2947,641.37665,51,42,0
641.37665,641.5094,52,53,0
641.64215,641.73065,59,47,0
641.73065,641.8125,60,47,0
641.8125,641.88763,61,47,0
641.88763,642.00964,60,53,0
642.1316,642.2091,49,50,0
642.2091,642.2866,50,50,0
642.2866,642.36414,51,50,0
642.36414,642.4851,50,55,0
642.6061,642.68805,37,47,0
642.68805,642.77,38,47,0
642.77,642.852,39,47,0
642.852,642.9871,40,59,0
643.12067,643.3076,46,53,0
643.12067,643.3076,58,67,0
643.3694,643.55273,45,54,0
643.3694,643.55273,57,68,0
643.6132,643.79285,44,56,0
643.6132,643.79285,56,70,0
643.8521,644.02704,43,58,0
643.8521,644.02704,55,72,0
644.0847,644.27704,42,58,0
644.0847,644.27704,54,72,0
644.3411,644.48676,47,58,0
644.3411,644.48676,40,58,0
644.3411,644.48676,52,71,0
644.8736,644.98474,68,67,0
644.98474,645.09534,64,62,0
645.31494,645.4238,92,72,0
645.4238,645.5323,88,66,0
645.7729,645.9214,47,58,0
645.7729,645.9214,40,58,0
645.7729,645.9214,52,71,0
646.30444,646.4156,68,61,0
646.30444,646.4156,71,67,0
646.4156,646.5259,64,62,0
646.7448,646.8534,92,72,0
646.8534,646.9613,88,66,0
647.302,647.5657,56,72,0
647.2141,647.5657,40,50,0
647.2434,647.5657,47,58,0
647.2727,647.5657,50,64,0
647.9342,648.06146,85,56,0
647.9342,648.06146,88,56,0
648.18494,648.3053,86,58,0
648.18494,648.3053,83,58,0
648.4227,648.53485,81,59,0
648.4227,648.53485,85,59,0
648.643,648.7478,80,61,0
648.643,648.7478,83,61,0
648.8496,648.9484,78,62,0
648.8496,648.9484,81,62,0
649.0447,649.139,76,52,0
649.0447,649.139,80,63,0
649.2327,649.3265,74,52,0
649.2327,649.3265,78,63,0
649.4202,649.514,73,53,0
649.4202,649.514,76,63,0
649.6077,649.70105,71,54,0
649.6077,649.70105,74,64,0
649.7942,649.8874,69,56,0
649.7942,649.8874,73,66,0
649.98004,650.07263,68,57,0
649.98004,650.07263,71,68,0
650.1654,650.25916,66,57,0
650.1654,650.25916,69,68,0
650.3529,650.4466,64,59,0
650.3529,650.4466,68,69,0
650.53973,650.63293,62,60,0
650.53973,650.63293,66,70,0
650.72595,650.81854,61,61,0
650.72595,650.81854,64,72,0
650.91113,651.0036,59,63,0
650.91113,651.0036,62,75,0
651.09564,651.1876,57,63,0
651.09564,651.1876,61,76,0
651.2791,651.4164,56,63,0
651.2791,651.4164,59,76,0
651.4628,651.6045,54,64,0
651.4628,651.6045,57,77,0
651.65247,651.7987,53,66,0
651.65247,651.7987,57,79,0
651.8482,652.0002,52,69,0
651.8482,652.0002,57,81,0
652.0533,652.2227,51,69,0
652.0533,652.2227,57,82,0
652.2829,652.4772,44,70,0
652.2829,652.4772,52,84,0
652.2829,652.4772,50,70,0
652.2829,652.4772,40,70,0
652.5463,652.67236,40,75,0
652.5463,652.67236,33,75,0
652.5463,652.67236,45,89,0
653.26013,653.4492,61,59,0
653.26013,653.4492,52,51,0
653.26013,653.4492,45,51,0
654.3173,654.37683,50,57,0
654.3173,654.37683,62,69,0
654.43634,654.4936,52,57,0
654.43634,654.4936,64,69,0
654.64404,654.8226,54,65,0
654.64404,654.8226,66,78,0
654.99664,655.0435,49,57,0
654.99664,655.0435,61,67,0
655.0904,655.1504,51,57,0
655.0904,655.1504,63,67,0
655.3304,655.5277,47,64,0
655.3304,655.5277,59,77,0
655.708,655.7558,44,57,0
655.708,655.7558,56,69,0
655.8036,655.8631,49,57,0
655.8036,655.8631,61,69,0
656.0417,656.3003,48,64,0
656.0417,656.3003,60,77,0
656.4131,656.4608,42,56,0
656.4131,656.4608,54,66,0
656.5086,656.5681,35,56,0
656.5086,656.5681,47,66,0
656.7467,656.9407,47,60,0
656.7467,656.9407,40,60,0
656.7467,656.9407,52,72,0
657.11896,657.16833,40,56,0
657.11896,657.16833,52,66,0
657.21765,657.2745,39,56,0
657.21765,657.2745,51,66,0
657.44495,657.70135,38,60,0
657.44495,657.70135,50,72,0
657.81494,657.865,41,57,0
657.81494,657.865,53,69,0
657.915,657.97266,40,57,0
657.915,657.97266,52,69,0
658.14575,658.3414,33,63,0
658.14575,658.3414,40,76,0
658.14575,658.3414,45,76,0
658.52563,658.5757,45,67,0
658.52563,658.5757,57,80,0
658.6257,658.68616,47,70,0
658.6257,658.68616,59,82,0
658.8676,659.0535,49,72,0
658.8676,659.0535,61,86,0
659.2258,659.27386,45,67,0
659.2258,659.27386,57,80,0
659.32196,659.3792,44,67,0
659.32196,659.3792,56,80,0
659.55096,659.74493,42,72,0
659.55096,659.74493,54,86,0
660.04767,660.70465,62,83,0
660.03284,660.70465,54,70,0
660.01794,660.70465,47,70,0
660.70465,660.7624,47,60,0
660.70465,660.7624,38,60,0
660.70465,660.7624,50,72,0
660.9354,661.1294,47,64,0
660.9354,661.1294,40,64,0
660.9354,661.1294,52,77,0
661.3077,661.3543,40,62,0
661.3077,661.3543,47,62,0
661.3077,661.3543,52,72,0
661.4009,661.4604,42,62,0
661.4009,661.4604,47,62,0
661.4009,661.4604,54,72,0
661.639,661.8313,44,66,0
661.639,661.8313,47,66,0
661.639,661.8313,56,79,0
662.00903,662.05707,39,58,0
662.00903,662.05707,51,70,0
662.00903,662.05707,47,58,0
662.10516,662.1672,40,58,0
662.10516,662.1672,52,58,0
662.10516,662.1672,47,70,0
662.3531,662.5634,45,63,0
662.3531,662.5634,49,76,0
662.3531,662.5634,37,63,0
662.3531,662.5634,40,63,0
662.6335,662.7687,52,64,0
662.6335,662.7687,57,64,0
662.6335,662.7687,61,77,0
662.9038,663.40436,57,67,0
662.9038,663.40436,61,67,0
662.9038,663.40436,64,80,0
663.40436,663.469,52,64,0
663.40436,663.469,44,64,0
663.40436,663.469,59,77,0
663.66296,663.7276,44,64,0
663.66296,663.7276,52,64,0
663.66296,663.7276,60,77,0
663.9216,664.11554,45,67,0
663.9216,664.11554,52,67,0
663.9216,664.11554,62,80,0
664.30316,664.3646,45,62,0
664.30316,664.3646,52,62,0
664.30316,664.3646,61,72,0
664.4261,664.48706,45,62,0
664.4261,664.48706,52,62,0
664.4261,664.48706,60,72,0
664.67004,664.85443,45,67,0
664.67004,664.85443,51,67,0
664.67004,664.85443,59,80,0
664.9159,665.043,50,62,0
664.9159,665.043,45,62,0
664.9159,665.043,58,72,0
665.17017,665.23535,45,62,0
665.17017,665.23535,49,62,0
665.17017,665.23535,57,72,0
665.431,665.6155,40,69,0
665.431,665.6155,49,69,0
665.431,665.6155,57,81,0
665.67694,665.8009,40,62,0
665.67694,665.8009,48,62,0
665.67694,665.8009,56,72,0
665.92487,665.99005,40,62,0
665.92487,665.99005,49,62,0
665.92487,665.99005,57,72,0
666.1857,666.6857,52,69,0
666.1857,666.6857,56,69,0
666.1857,666.6857,61,81,0
666.6857,666.7521,50,63,0
666.6857,666.7521,56,63,0
666.6857,666.7521,59,73,0
666.95123,667.2167,49,71,0
666.95123,667.2167,45,71,0
666.95123,667.2167,57,84,0
668.06744,668.1786,57,63,0
668.06744,668.1786,69,75,0
668.1786,668.3015,57,63,0
668.1786,668.3015,69,75,0
668.42444,668.5474,57,68,0
668.42444,668.5474,69,81,0
669.525,669.63617,33,61,0
669.525,669.63617,45,72,0
669.63617,669.7591,33,61,0
669.63617,669.7591,45,72,0
670.2509,670.3596,54,49,0
670.2509,670.3596,48,49,0
670.2509,670.3596,51,49,0
670.3596,670.577,54,49,0
670.3596,670.577,48,49,0
669.8821,670.577,45,80,0
669.8821,670.577,33,67,0
670.3596,670.577,51,49,0
670.94586,671.05615,54,50,0
670.94586,671.05615,48,50,0
670.577,671.05615,45,64,0
670.577,671.05615,33,54,0
670.94586,671.05615,51,50,0
671.2518,671.34674,45,57,0
671.05615,671.34674,54,50,0
671.05615,671.34674,48,50,0
671.05615,671.34674,51,50,0
671.2518,671.34674,33,49,0
671.7156,671.8243,54,49,0
671.7156,671.8243,48,49,0
671.7156,671.8243,51,49,0
671.8243,672.0417,54,49,0
671.8243,672.0417,48,49,0
671.34674,672.0417,45,80,0
671.34674,672.0417,33,67,0
671.8243,672.0417,51,49,0
672.4105,672.5208,54,50,0
672.4105,672.5208,48,50,0
672.0417,672.5208,45,64,0
672.0417,672.5208,33,54,0
672.4105,672.5208,51,50,0
672.5208,672.76624,54,50,0
672.5208,672.76624,51,50,0
672.5208,672.76624,48,50,0
673.13513,673.18945,54,49,0
673.13513,673.18945,51,49,0
673.2438,673.3525,54,49,0
673.2438,673.3525,51,49,0
673.4612,673.83,54,49,0
673.4612,673.83,51,49,0
673.83,673.8852,52,50,0
673.83,673.8852,49,50,0
673.9403,674.05066,52,50,0
673.9403,674.05066,49,50,0
672.76624,674.16095,34,67,0
672.76624,674.16095,46,80,0
674.16095,674.5298,52,49,0
674.16095,674.5298,49,49,0
674.5298,674.5849,53,50,0
674.5298,674.5849,50,50,0
674.16095,674.6401,46,49,0
674.6401,674.75037,53,50,0
674.6401,674.75037,50,50,0
674.86096,675.2295,53,49,0
674.86096,675.2295,50,49,0
675.2295,675.28467,54,50,0
675.2295,675.28467,51,50,0
675.2295,675.28467,46,50,0
675.3398,675.4501,55,50,0
675.3398,675.4501,52,50,0
675.3398,675.4501,46,50,0
675.56036,675.6707,56,49,0
675.56036,675.6707,53,49,0
675.56036,675.6707,47,49,0
676.62006,676.7312,59,63,0
676.62006,676.7312,71,75,0
676.7312,676.8541,59,63,0
676.7312,676.8541,71,75,0
676.9771,677.10004,59,68,0
676.9771,677.10004,71,81,0
677.34595,677.45874,47,72,0
677.34595,677.45874,35,61,0
677.45874,677.5807,47,72,0
677.45874,677.5807,35,61,0
677.70264,677.8287,47,72,0
677.70264,677.8287,35,61,0
678.0777,678.188,56,50,0
678.0777,678.188,53,50,0
678.0777,678.188,50,50,0
678.3836,678.4786,47,57,0
678.188,678.4786,56,50,0
678.188,678.4786,49,50,0
678.188,678.4786,53,50,0
678.3836,678.4786,35,49,0
678.8474,678.90173,56,49,0
678.8474,678.90173,53,49,0
678.9561,679.0648,56,49,0
678.9561,679.0648,53,49,0
679.17346,679.54236,56,49,0
679.17346,679.54236,53,49,0
679.54236,679.5975,54,50,0
679.54236,679.5975,51,50,0
679.65265,679.76294,54,50,0
679.65265,679.76294,51,50,0
678.4786,679.8732,36,67,0
678.4786,679.8732,48,80,0
679.8732,680.24207,54,49,0
679.8732,680.24207,51,49,0
680.24207,680.29724,55,50,0
680.24207,680.29724,52,50,0
680.35236,680.46265,55,50,0
680.35236,680.46265,52,50,0
679.8732,680.81915,48,49,0
680.5733,680.94183,55,49,0
680.5733,680.94183,52,49,0
680.94183,680.99695,56,50,0
680.94183,680.99695,53,50,0
680.94183,680.99695,48,50,0
681.0521,681.1624,57,50,0
681.0521,681.1624,54,50,0
681.0521,681.1624,48,50,0
681.2727,681.383,58,49,0
681.2727,681.383,55,49,0
681.2727,681.383,49,49,0
682.3324,682.4435,61,63,0
682.3324,682.4435,73,75,0
682.4435,682.5664,61,63,0
682.4435,682.5664,73,75,0
682.6894,682.8123,61,68,0
682.6894,682.8123,73,81,0
683.0582,683.171,49,51,0
683.0582,683.171,43,51,0
683.0582,683.171,46,51,0
683.0582,683.171,37,51,0
683.171,683.29297,49,51,0
683.171,683.29297,42,51,0
683.171,683.29297,46,51,0
683.171,683.29297,37,51,0
683.4149,683.54095,49,57,0
683.4149,683.54095,43,57,0
683.4149,683.54095,37,57,0
683.42645,683.55255,46,57,0
683.7815,683.89185,50,50,0
683.7815,683.89185,38,50,0
683.7815,683.89185,43,50,0
683.7815,683.89185,46,50,0
683.89185,684.01276,50,50,0
683.89185,684.01276,46,50,0
683.89185,684.01276,38,50,0
683.89185,684.01276,43,50,0
684.1337,684.244,51,49,0
684.1337,684.244,39,49,0
684.1337,684.244,43,49,0
684.1337,684.244,49,49,0
684.1337,684.244,46,49,0
685.1934,685.30457,63,63,0
685.1934,685.30457,75,75,0
685.30457,685.4275,63,63,0
685.30457,685.4275,75,75,0
685.5504,685.6734,63,68,0
685.5504,685.6734,75,81,0
685.9193,686.0321,51,51,0
685.9193,686.0321,49,51,0
685.9193,686.0321,46,51,0
685.9193,686.0321,39,51,0
686.0321,686.15405,51,51,0
686.0321,686.15405,46,51,0
686.0321,686.15405,49,51,0
686.0321,686.15405,39,51,0
686.276,686.40204,51,57,0
686.276,686.40204,46,57,0
686.276,686.40204,39,57,0
686.28754,686.4136,49,57,0
686.64435,686.75464,49,24,0
686.64435,686.75464,52,41,0
686.64435,686.75464,40,24,0
686.64435,686.75464,46,24,0
686.75464,686.8968,46,24,0
686.75464,686.8968,52,41,0
686.75464,686.8968,49,24,0
686.75464,686.8968,40,24,0
686.8968,686.95776,41,49,0
686.95776,687.01874,53,49,0
687.01874,687.4717,58,42,0
687.01874,687.4717,61,51,0
687.46155,687.70544,60,45,0
687.46155,687.70544,57,35,0
687.70544,688.19977,58,35,0
687.70544,688.19977,61,45,0
688.1895,688.4354,63,52,0
688.1895,688.4354,60,42,0
688.4354,688.6793,60,52,0
688.4354,688.6793,57,42,0
688.6793,688.7893,41,45,0
688.7893,688.8982,40,48,0
688.8982,689.00574,39,50,0
689.00574,689.1122,38,51,0
689.1122,689.2175,37,52,0
689.2175,689.32184,36,54,0
689.32184,689.425,35,54,0
689.425,689.52704,34,56,0
689.52704,689.66345,33,57,0
689.7998,690.25275,62,42,0
689.7998,690.25275,53,42,0
689.7998,690.25275,65,51,0
690.2426,690.4865,52,35,0
690.2426,690.4865,64,45,0
690.2426,690.4865,61,35,0
690.4865,690.98083,62,35,0
690.4865,690.98083,53,35,0
690.4865,690.98083,65,45,0
690.9706,691.2165,55,42,0
690.9706,691.2165,67,52,0
690.9706,691.2165,64,42,0
691.2165,691.4604,64,52,0
691.2165,691.4604,61,42,0
691.2165,691.4604,52,42,0
691.4604,691.5704,45,45,0
691.5704,691.67926,44,48,0
691.67926,691.7868,43,50,0
691.7868,691.89325,42,51,0
691.89325,691.9986,41,52,0
691.9986,692.1029,40,54,0
692.1029,692.20605,39,54,0
692.20605,692.3081,38,56,0
692.3081,692.4445,37,57,0
692.5809,693.0338,66,42,0
692.5809,693.0338,57,42,0
692.5809,693.0338,69,51,0
693.0237,693.2676,56,35,0
693.0237,693.2676,68,45,0
693.0237,693.2676,65,35,0
693.2676,693.7619,66,35,0
693.2676,693.7619,57,35,0
693.2676,693.7619,69,45,0
693.75165,693.99756,59,42,0
693.75165,693.99756,71,52,0
693.75165,693.99756,68,42,0
693.99756,694.24146,68,52,0
693.99756,694.24146,65,42,0
693.99756,694.24146,56,42,0
694.24146,694.35144,49,45,0
694.35144,694.4603,48,48,0
694.4603,694.5679,47,50,0
694.5679,694.6743,46,51,0
694.6743,694.77966,45,52,0
694.77966,694.884,44,54,0
694.884,694.9871,41,54,0
694.9871,695.0892,38,56,0
695.0892,695.2255,37,57,0
695.36194,695.8149,54,42,0
695.36194,695.8149,57,51,0
695.80475,696.04865,56,45,0
695.80475,696.04865,53,35,0
696.04865,696.5305,54,35,0
696.04865,696.5305,57,45,0
696.52026,696.7662,59,52,0
696.52026,696.7662,56,42,0
696.7662,697.0101,56,52,0
696.7662,697.0101,53,42,0
697.12036,697.2323,49,24,0
697.12036,697.2323,61,42,0
697.2323,697.3486,49,24,0
697.2323,697.3486,61,42,0
697.46484,697.5839,49,28,0
697.46484,697.5839,61,49,0
697.8259,697.937,49,23,0
697.8259,697.937,61,40,0
697.937,698.06,49,23,0
697.937,698.06,61,40,0
698.17847,698.27716,38,36,0
698.37585,698.47455,39,37,0
698.5731,698.67114,40,38,0
698.76917,698.8672,41,38,0
698.965,699.0624,42,39,0
699.1598,699.2572,43,40,0
699.35425,699.451,44,40,0
699.5478,699.64453,45,42,0
699.74133,699.83813,46,45,0
699.9349,700.0317,47,48,0
700.1284,700.5664,48,71,0
700.1284,700.5664,38,65,0
700.5664,700.8064,49,72,0
700.5664,700.8064,37,58,0
700.8064,700.9264,61,60,0
700.9264,701.0383,60,59,0
701.0383,701.1546,59,59,0
701.1546,701.27094,58,59,0
701.27094,701.38995,57,59,0
701.38995,701.509,56,58,0
701.509,701.63196,55,58,0
701.63196,701.74304,54,58,0
701.74304,701.866,53,58,0
701.866,701.98895,51,57,0
701.98895,702.10895,50,57,0
702.10895,702.22894,49,57,0
702.22894,702.34894,48,57,0
702.34894,702.4609,47,57,0
702.4609,702.5772,46,56,0
702.5772,702.6935,45,56,0
702.6935,702.8125,44,56,0
702.8125,702.9316,43,56,0
702.9316,703.0545,42,55,0
703.0545,703.16565,41,55,0
703.16565,703.2886,40,55,0
703.2886,703.4066,38,55,0
703.4066,703.5059,38,36,0
703.6053,703.7046,39,44,0
703.8029,703.90094,40,45,0
703.99896,704.09753,41,45,0
704.1956,704.29364,42,45,0
704.39075,704.4869,43,46,0
704.583,704.68097,44,46,0
704.77924,704.8778,45,50,0
704.9773,705.09357,46,53,0
705.25836,705.96875,47,74,0
705.25836,705.96875,39,60,0
705.96875,706.06824,40,36,0
706.16754,706.2681,41,44,0
706.36884,706.4689,42,45,0
706.56885,706.6682,43,45,0
706.76746,706.86487,44,45,0
706.9623,707.0586,45,46,0
707.15497,707.25336,46,46,0
707.3517,707.4502,47,50,0
707.5497,707.66595,48,53,0
707.829,708.4757,49,73,0
707.829,708.4757,41,64,0
708.4757,708.5957,57,72,0
708.4757,708.5957,42,63,0
708.4757,708.5957,48,63,0
708.4757,708.5957,51,63,0
708.8038,708.8934,80,73,0
708.9821,709.0701,78,74,0
709.15735,709.24384,76,77,0
709.3297,709.41486,74,78,0
709.4992,709.5834,72,80,0
709.6737,709.7641,70,81,0
709.8503,709.9365,68,83,0
710.02966,710.12286,66,84,0
710.21265,710.3025,64,86,0
710.3683,710.4341,62,88,0
710.4999,710.6085,57,89,0
710.4999,710.6085,54,89,0
710.7172,710.8259,44,75,0
710.7172,710.8259,41,75,0
710.7172,710.8259,49,90,0
710.93463,711.04333,37,81,0
710.93463,711.04333,29,70,0
711.1553,711.27155,38,81,0
711.1553,711.27155,30,70,0
711.3878,711.5069,39,81,0
711.3878,711.5069,31,70,0
711.6259,711.7404,40,81,0
711.6259,711.7404,32,70,0
711.8468,711.9659,41,81,0
711.8468,711.9659,33,70,0
712.0849,712.1994,42,90,0
712.0849,712.1994,34,79,0
712.25665,712.37115,43,83,0
712.25665,712.37115,35,72,0
712.4284,712.5371,44,83,0
712.4284,712.5371,36,72,0
712.5935,712.7063,45,83,0
712.5935,712.7063,37,72,0
712.7627,712.87897,46,83,0
712.7627,712.87897,38,72,0
712.9371,713.0534,47,83,0
712.9371,713.0534,39,72,0
713.1115,713.2186,48,83,0
713.1115,713.2186,40,72,0
713.2777,713.3958,49,83,0
713.2777,713.3958,41,72,0
713.4549,713.56854,57,85,0
713.4549,713.56854,42,74,0
713.4549,713.56854,48,74,0
713.4549,713.56854,51,74,0
713.7703,713.86273,80,73,0
713.9541,714.04443,78,74,0
714.1337,714.22205,76,77,0
714.30945,714.3959,74,78,0
714.4814,714.566,72,80,0
714.65784,714.7498,70,81,0
714.83655,714.9232,68,83,0
715.01526,715.1073,66,84,0
715.1971,715.2869,64,86,0
715.3527,715.4185,62,88,0
715.4843,715.593,57,89,0
715.4843,715.593,54,89,0
715.7017,715.81036,44,75,0
715.7017,715.81036,41,75,0
715.7017,715.81036,49,90,0
715.91907,716.0278,37,81,0
715.91907,716.0278,29,70,0
716.1397,716.2542,38,81,0
716.1397,716.2542,30,70,0
716.3687,716.4859,39,81,0
716.3687,716.4859,31,70,0
716.5445,716.66455,40,81,0
716.5445,716.66455,32,70,0
716.7261,716.8356,41,81,0
716.7261,716.8356,33,70,0
716.8928,717.0073,42,81,0
716.8928,717.0073,34,70,0
717.0646,717.18176,43,90,0
717.0646,717.18176,35,79,0
717.24036,717.35754,44,83,0
717.24036,717.35754,36,72,0
717.41614,717.5248,45,83,0
717.41614,717.5248,37,72,0
717.58203,717.69653,46,83,0
717.58203,717.69653,38,72,0
717.75385,717.87286,47,83,0
717.75385,717.87286,39,72,0
717.9324,718.0534,48,83,0
717.9324,718.0534,40,72,0
718.11487,718.22595,49,83,0
718.11487,718.22595,41,72,0
718.11487,718.22595,37,72,0
718.2875,718.4104,47,83,0
718.2875,718.4104,35,72,0
718.4657,718.5901,42,70,0
718.4657,718.5901,37,70,0
718.4657,718.5901,45,83,0
718.4657,718.5901,33,70,0
718.5699,718.688,55,61,0
718.7645,718.87604,57,63,0
718.94995,719.0602,59,66,0
719.1332,719.242,61,68,0
719.3142,719.4216,63,71,0
719.49457,719.66046,65,74,0
719.6402,719.76,54,83,0
719.6402,719.76,49,70,0
719.6402,719.76,46,70,0
719.7403,719.8568,65,72,0
719.9324,720.04266,63,70,0
720.1143,720.2221,61,67,0
720.29474,720.4047,59,65,0
720.4787,720.59125,57,62,0
720.6695,720.7972,55,58,0
720.8946,721.0191,43,64,0
720.8946,721.0191,38,64,0
720.8946,721.0191,47,76,0
720.8946,721.0191,35,64,0
720.9989,721.1171,56,62,0
721.19275,721.30566,58,65,0
721.3807,721.49255,60,67,0
721.56665,721.67737,62,70,0
721.75085,721.86053,64,72,0
721.93335,722.06055,66,75,0
722.18005,722.3011,51,70,0
722.18005,722.3011,56,83,0
722.18005,722.3011,48,70,0
722.28143,722.3966,67,76,0
722.4699,722.5773,65,72,0
722.6491,722.75745,63,68,0
722.8298,722.9395,61,65,0
723.0144,723.1296,59,61,0
723.20844,723.33875,57,57,0
723.45636,723.59766,45,64,0
723.45636,723.59766,42,64,0
723.45636,723.59766,49,76,0
723.45636,723.59766,37,64,0
723.576,723.7032,58,79,0
723.7845,723.9017,60,65,0
723.9784,724.09357,62,67,0
724.17,724.28406,64,71,0
724.3598,724.47284,66,75,0
724.54785,724.67377,68,78,0
724.7963,724.9044,55,70,0
724.7891,724.9197,52,70,0
724.7891,724.9197,58,83,0
724.7891,724.9197,49,70,0
724.8993,725.0165,69,81,0
725.0887,725.1978,67,78,0
725.2714,725.3827,65,74,0
725.45734,725.57135,63,70,0
725.64874,725.7672,61,66,0
725.8478,725.9757,59,62,0
726.07654,726.19653,47,76,0
726.07654,726.19653,38,76,0
726.07654,726.19653,50,90,0
726.07654,726.19653,43,76,0
726.4365,726.54846,50,63,0
726.4365,726.54846,55,63,0
726.4365,726.54846,59,75,0
726.54846,726.66473,50,63,0
726.54846,726.66473,55,63,0
726.54846,726.66473,59,75,0
726.781,726.9001,50,68,0
726.781,726.9001,55,68,0
726.781,726.9001,59,80,0
727.1421,727.25836,38,64,0
727.1421,727.25836,43,64,0
727.1421,727.25836,47,76,0
727.25836,727.3813,38,64,0
727.25836,727.3813,43,64,0
727.25836,727.3813,47,76,0
727.5043,727.62524,47,79,0
727.5043,727.62524,43,67,0
727.5043,727.62524,38,67,0
727.8672,727.98254,62,63,0
727.8672,727.98254,67,63,0
727.8672,727.98254,71,75,0
727.98254,728.10065,62,63,0
727.98254,728.10065,67,63,0
727.98254,728.10065,71,75,0
728.21875,728.3397,62,68,0
728.21875,728.3397,67,68,0
728.21875,728.3397,71,80,0
729.32574,729.4377,50,63,0
729.32574,729.4377,54,63,0
729.32574,729.4377,60,75,0
729.32574,729.4377,57,63,0
729.4377,729.55676,50,63,0
729.4377,729.55676,54,63,0
729.4377,729.55676,60,75,0
729.4377,729.55676,57,63,0
729.6758,729.79877,50,68,0
729.6758,729.79877,54,68,0
729.6758,729.79877,60,80,0
729.6758,729.79877,57,68,0
730.0488,730.16785,38,64,0
730.0488,730.16785,42,64,0
730.0488,730.16785,48,76,0
730.0488,730.16785,45,64,0
730.16785,730.2961,38,64,0
730.16785,730.2961,42,64,0
730.16785,730.2961,48,76,0
730.16785,730.2961,45,64,0
730.42426,730.5482,48,79,0
730.42426,730.5482,42,67,0
730.42426,730.5482,38,67,0
730.42426,730.5482,45,67,0
730.79614,730.91156,62,56,0
730.79614,730.91156,66,56,0
730.79614,730.91156,72,67,0
730.79614,730.91156,69,56,0
730.91156,731.0306,62,56,0
730.91156,731.0306,66,56,0
730.91156,731.0306,72,67,0
730.91156,731.0306,69,56,0
732.2367,732.34863,51,63,0
732.2367,732.34863,56,63,0
732.2367,732.34863,60,75,0
732.34863,732.46497,51,63,0
732.34863,732.46497,56,63,0
732.34863,732.46497,60,75,0
732.58124,732.70026,51,68,0
732.58124,732.70026,56,68,0
732.58124,732.70026,60,80,0
732.94226,733.05853,39,64,0
732.94226,733.05853,44,64,0
732.94226,733.05853,48,76,0
733.05853,733.1815,39,64,0
733.05853,733.1815,44,64,0
733.05853,733.1815,48,76,0
733.30444,733.4254,48,79,0
733.30444,733.4254,44,67,0
733.30444,733.4254,39,67,0
733.66736,733.7827,63,63,0
733.66736,733.7827,68,63,0
733.66736,733.7827,72,75,0
733.7827,733.9008,63,63,0
733.7827,733.9008,68,63,0
733.7827,733.9008,72,75,0
734.0189,734.1399,63,68,0
734.0189,734.1399,68,68,0
734.0189,734.1399,72,80,0
735.1259,735.23785,51,63,0
735.1259,735.23785,55,63,0
735.1259,735.23785,61,75,0
735.1259,735.23785,58,63,0
735.23785,735.35693,51,63,0
735.23785,735.35693,55,63,0
735.23785,735.35693,61,75,0
735.23785,735.35693,58,63,0
735.47595,735.59894,51,68,0
735.47595,735.59894,55,68,0
735.47595,735.59894,61,80,0
735.47595,735.59894,58,68,0
735.849,735.968,39,64,0
735.849,735.968,43,64,0
735.849,735.968,49,76,0
735.849,735.968,46,64,0
735.968,736.09625,39,64,0
735.968,736.09625,43,64,0
735.968,736.09625,49,76,0
735.968,736.09625,46,64,0
736.5788,736.69073,52,63,0
736.5788,736.69073,55,63,0
736.5788,736.69073,61,75,0
736.5788,736.69073,58,63,0
736.69073,736.80975,52,63,0
736.69073,736.80975,55,63,0
736.69073,736.80975,61,75,0
736.69073,736.80975,58,63,0
736.92883,737.05176,52,68,0
736.92883,737.05176,55,68,0
736.92883,737.05176,61,80,0
736.92883,737.05176,58,68,0
737.3018,737.4209,40,64,0
737.3018,737.4209,43,64,0
737.3018,737.4209,49,76,0
737.3018,737.4209,46,64,0
737.4209,737.5491,40,64,0
737.4209,737.5491,43,64,0
737.4209,737.5491,49,76,0
737.4209,737.5491,46,64,0
738.0316,738.14355,58,63,0
738.0316,738.14355,61,75,0
738.0316,738.14355,53,63,0
738.14355,738.26263,58,63,0
738.14355,738.26263,61,75,0
738.14355,738.26263,53,63,0
738.38165,738.50464,58,68,0
738.38165,738.50464,61,80,0
738.38165,738.50464,53,68,0
738.7547,738.8737,46,64,0
738.7547,738.8737,49,76,0
738.7547,738.8737,41,64,0
738.8737,739.00195,46,64,0
738.8737,739.00195,49,76,0
738.8737,739.00195,41,64,0
739.1301,739.2396,54,61,0
739.1301,739.2396,42,61,0
739.2396,739.3491,53,60,0
739.3491,739.4586,52,59,0
739.4586,739.5681,51,59,0
739.5681,739.6776,50,58,0
739.6776,739.78705,49,57,0
739.78705,739.89655,48,56,0
739.89655,740.00604,47,55,0
740.00604,740.11554,46,54,0
740.11554,740.22504,45,53,0
740.22504,740.3361,44,53,0
740.3361,740.4591,43,52,0
740.4591,740.55963,42,61,0
740.55963,740.6593,41,60,0
740.6593,740.7598,40,59,0
740.7589,740.85944,39,59,0
740.85944,740.9591,38,58,0
740.9591,741.05963,37,57,0
741.05963,741.16187,36,56,0
741.16187,741.26776,35,55,0
741.2668,741.3732,34,54,0
741.3732,741.4798,33,53,0
741.4798,741.58734,32,53,0
741.58734,741.694,31,52,0
741.694,741.8054,30,52,0
741.8054,742.03265,41,67,0
741.8054,742.03265,36,67,0
741.8054,742.03265,29,67,0
742.03265,742.20605,40,70,0
742.20605,742.389,41,66,0
742.389,742.5614,52,73,0
742.389,742.5614,40,73,0
742.5614,742.74,53,73,0
742.5614,742.74,41,73,0
742.74,742.9095,52,82,0
742.74,742.9095,64,82,0
742.9095,743.0881,65,82,0
742.9095,743.0881,53,82,0
743.0881,743.26044,52,70,0
743.0881,743.26044,40,70,0
743.26044,743.4434,53,68,0
743.26044,743.4434,41,68,0
743.4434,743.6158,40,69,0
743.4434,743.6158,28,69,0
743.6158,743.7987,41,65,0
743.6158,743.7987,29,65,0
743.7987,744.0161,41,71,0
743.7987,744.0161,29,71,0
744.0161,744.11163,43,75,0
744.0161,744.11163,49,89,0
744.0161,744.11163,34,75,0
744.0161,744.11163,40,75,0
744.20605,744.2999,35,71,0
744.20605,744.2999,50,84,0
744.3933,744.4861,36,75,0
744.3933,744.4861,51,89,0
744.57837,744.67,37,71,0
744.57837,744.67,52,84,0
744.76105,744.8516,38,75,0
744.76105,744.8516,53,89,0
744.94165,745.03125,39,72,0
744.94165,745.03125,54,85,0
745.1202,745.21106,40,75,0
745.1202,745.21106,55,89,0
745.302,745.3929,41,71,0
745.302,745.3929,56,84,0
745.48376,745.57306,42,75,0
745.48376,745.57306,57,89,0
745.66235,745.7567,42,73,0
745.66235,745.7567,58,86,0
745.8678,746.2486,55,86,0
745.8678,746.2486,52,86,0
745.8678,746.2486,61,102,0
745.8678,746.2486,46,86,0
746.222,746.4759,57,72,0
746.2043,746.4759,41,67,0
746.21313,746.4759,48,67,0
746.4759,746.6493,40,70,0
746.4759,746.6493,52,73,0
746.6493,746.8322,41,67,0
746.6493,746.8322,53,72,0
746.8322,747.00464,64,76,0
746.8322,747.00464,52,76,0
747.00464,747.18317,65,76,0
747.00464,747.18317,53,76,0
747.18317,747.35266,64,83,0
747.18317,747.35266,76,83,0
747.35266,747.53125,77,83,0
747.35266,747.53125,65,83,0
747.53125,747.7037,64,70,0
747.53125,747.7037,52,70,0
747.7037,747.8866,65,68,0
747.7037,747.8866,53,68,0
747.8866,748.059,52,69,0
747.8866,748.059,40,69,0
748.059,748.24194,53,65,0
748.059,748.24194,41,65,0
748.24194,748.45935,41,71,0
748.24194,748.45935,29,71,0
748.45935,748.55536,43,75,0
748.45935,748.55536,49,89,0
748.45935,748.55536,34,75,0
748.45935,748.55536,40,75,0
748.6504,748.7449,35,71,0
748.6504,748.7449,50,84,0
748.8388,748.9322,36,75,0
748.8388,748.9322,51,89,0
749.025,749.1174,37,71,0
749.025,749.1174,52,84,0
749.2091,749.3004,38,75,0
749.2091,749.3004,53,89,0
749.3912,749.4814,39,72,0
749.3912,749.4814,54,85,0
749.5711,749.6637,40,75,0
749.5711,749.6637,55,89,0
749.7563,749.8489,41,71,0
749.7563,749.8489,56,84,0
749.94147,750.0313,42,75,0
749.94147,750.0313,57,89,0
750.12115,750.21545,42,73,0
750.12115,750.21545,58,86,0
750.3266,750.7057,55,86,0
750.3266,750.7057,52,86,0
750.3266,750.7057,61,102,0
750.3266,750.7057,46,86,0
750.6791,750.933,57,72,0
750.6614,750.933,41,67,0
750.6702,750.933,48,67,0
750.933,751.1064,52,70,0
751.1064,751.2893,53,67,0
751.2893,751.4679,64,76,0
751.4679,751.6748,65,76,0
751.6748,751.8725,76,84,0
751.8725,752.31366,77,83,0
752.31366,752.3789,41,51,0
752.3789,752.4401,42,52,0
752.441,752.5022,43,53,0
752.5022,752.563,44,54,0
752.563,752.62384,45,55,0
752.62384,752.6844,46,56,0
752.6844,752.7448,47,57,0
752.74567,752.806,48,57,0
752.806,752.866,49,58,0
752.866,752.9261,50,59,0
752.9261,752.9858,51,60,0
752.9858,753.0455,52,61,0
753.0455,753.1122,53,62,0
753.1122,754.60284,42,74,0
753.1122,754.60284,54,89,0
754.60284,756.09357,33,69,0
754.60284,756.09357,45,81,0
756.09357,757.5842,37,69,0
756.09357,757.5842,49,81,0
757.5842,759.0749,28,68,0
757.5842,759.0749,40,80,0
759.0749,759.4476,29,62,0
759.0749,759.4476,41,74,0
759.80054,760.14935,60,45,0
759.80054,760.14935,57,45,0
759.80054,760.14935,65,54,0
760.14935,760.20953,60,41,0
760.14935,760.20953,57,41,0
760.14935,760.20953,65,49,0
760.3098,760.373,60,41,0
760.3098,760.373,57,41,0
760.3098,760.373,65,49,0
760.47833,760.53754,65,45,0
760.47833,760.53754,61,45,0
760.47833,760.53754,70,54,0
760.81165,760.8767,65,41,0
760.81165,760.8767,61,41,0
760.81165,760.8767,70,49,0
761.1585,761.4975,65,45,0
761.1585,761.4975,61,45,0
761.1585,761.4975,70,53,0
761.4975,761.5555,65,41,0
761.4975,761.5555,61,41,0
761.4975,761.5555,73,49,0
761.6521,761.71564,65,41,0
761.6521,761.71564,61,41,0
761.6521,761.71564,70,49,0
761.8216,761.8802,65,45,0
761.8216,761.8802,60,45,0
761.8216,761.8802,69,53,0
762.1543,762.21936,60,41,0
762.1543,762.21936,57,41,0
762.1543,762.21936,65,49,0
762.50116,762.8382,72,45,0
762.50116,762.8382,69,45,0
762.50116,762.8382,77,54,0
762.8382,762.8962,72,41,0
762.8382,762.8962,69,41,0
762.8382,762.8962,77,49,0
762.99286,763.0557,72,41,0
762.99286,763.0557,69,41,0
762.99286,763.0557,77,49,0
763.16046,763.21936,77,45,0
763.16046,763.21936,73,45,0
763.16046,763.21936,82,54,0
763.49506,763.56006,77,41,0
763.49506,763.56006,73,41,0
763.49506,763.56006,82,49,0
763.84186,764.17706,77,45,0
763.84186,764.17706,73,45,0
763.84186,764.17706,82,53,0
764.17706,764.23566,77,41,0
764.17706,764.23566,73,41,0
764.17706,764.23566,85,49,0
764.3333,764.3972,77,41,0
764.3333,764.3972,73,41,0
764.3333,764.3972,82,49,0
764.5038,764.8427,77,45,0
764.5038,764.8427,72,45,0
764.5038,764.8427,81,54,0
764.8427,765.1706,77,48,0
764.8427,765.1706,69,48,0
764.8427,765.1706,84,57,0
765.1706,765.4985,77,51,0
765.1706,765.4985,70,51,0
765.1706,765.4985,85,60,0
765.4985,765.8356,77,46,0
765.4985,765.8356,73,46,0
765.4985,765.8356,82,55,0
765.8356,766.17267,77,50,0
765.8356,766.17267,72,50,0
765.8356,766.17267,81,59,0
766.17267,766.4987,77,53,0
766.17267,766.4987,69,53,0
766.17267,766.4987,84,63,0
766.4987,766.8248,77,56,0
766.4987,766.8248,70,56,0
766.4987,766.8248,85,67,0
766.8248,767.1638,77,53,0
766.8248,767.1638,73,53,0
766.8248,767.1638,82,63,0
767.1638,767.82965,81,63,0
767.1638,767.82965,77,53,0
767.1638,767.82965,72,53,0
769.46484,769.63086,42,45,0
769.63086,769.8183,41,44,0
769.46484,769.8183,36,53,0
769.46484,769.8183,33,48,0
769.8183,769.9911,41,36,0
769.9911,770.162,42,38,0
770.162,770.33093,45,39,0
770.33093,770.498,46,41,0
769.8183,770.498,37,53,0
769.8183,770.498,34,46,0
770.498,770.66315,48,45,0
770.66315,770.8266,49,46,0
770.8266,770.98816,52,48,0
770.98816,771.1619,53,56,0
771.33246,771.49603,52,51,0
771.49603,771.6619,49,50,0
771.6619,771.83026,48,49,0
771.1704,771.83026,53,57,0
771.83026,772.0011,46,47,0
772.0011,772.1745,45,45,0
772.1745,772.3499,42,45,0
772.3499,772.52576,41,44,0
771.83026,772.52576,39,53,0
771.83026,772.52576,36,45,0
772.52576,772.7027,41,36,0
772.7027,772.87805,42,38,0
772.87805,773.05194,45,39,0
773.05194,773.22424,46,41,0
772.52576,773.22424,37,53,0
773.22424,773.39514,48,45,0
773.39514,773.5646,49,46,0
773.5646,773.7326,52,48,0
773.7326,773.91235,53,56,0
774.0795,774.2452,52,51,0
774.2452,774.4124,49,50,0
774.4124,774.58136,48,49,0
773.91235,774.58136,53,57,0
774.7519,774.9241,41,45,0
774.9241,775.09796,42,46,0
775.09796,775.27435,43,45,0
774.58136,775.27435,38,45,0
774.58136,775.27435,44,53,0
774.58136,775.27435,47,58,0
775.44385,775.61334,41,48,0
775.61334,775.77637,42,49,0
775.77637,775.9488,43,48,0
775.27435,775.9488,37,47,0
775.27435,775.9488,44,56,0
775.27435,775.9488,47,58,0
776.1101,776.27136,41,51,0
776.27136,776.4327,42,52,0
776.4327,776.594,43,51,0
775.9488,776.594,36,50,0
775.9488,776.594,44,59,0
775.9488,776.594,48,63,0
776.7579,776.9218,41,54,0
776.9218,777.08575,42,54,0
777.08575,777.2497,43,54,0
776.594,777.2497,38,53,0
776.594,777.2497,44,52,0
776.594,777.2497,50,67,0
777.2497,777.58167,44,59,0
777.4164,777.583,41,57,0
777.2497,777.75446,50,70,0
777.583,777.75446,50,58,0
777.75446,777.89374,40,58,0
777.583,777.9259,44,58,0
777.2497,777.9259,34,59,0
777.9259,778.2986,49,74,0
777.91516,778.2986,45,69,0
777.9045,778.2986,40,64,0
777.89374,778.2986,33,60,0
778.6515,778.9915,64,45,0
778.6515,778.9915,61,45,0
778.6515,778.9915,69,54,0
778.9915,779.0498,64,41,0
778.9915,779.0498,61,41,0
778.9915,779.0498,69,49,0
779.147,779.21014,64,41,0
779.147,779.21014,61,41,0
779.147,779.21014,69,49,0
779.3155,779.3738,69,45,0
779.3155,779.3738,65,45,0
779.3155,779.3738,74,54,0
779.6424,779.7074,69,41,0
779.6424,779.7074,65,41,0
779.6424,779.7074,74,49,0
779.9819,780.31256,69,45,0
779.9819,780.31256,65,45,0
779.9819,780.31256,74,53,0
780.31256,780.3696,74,41,0
780.31256,780.3696,69,41,0
780.31256,780.3696,77,49,0
780.46484,780.52594,69,41,0
780.46484,780.52594,65,41,0
780.46484,780.52594,74,49,0
780.62787,780.68646,69,45,0
780.62787,780.68646,64,45,0
780.62787,780.68646,73,53,0
780.95654,781.01935,64,41,0
780.95654,781.01935,61,41,0
780.95654,781.01935,69,49,0
781.29175,781.61957,76,45,0
781.29175,781.61957,73,45,0
781.29175,781.61957,81,54,0
781.61957,781.67615,76,41,0
781.61957,781.67615,73,41,0
781.61957,781.67615,81,49,0
781.7703,781.83185,76,41,0
781.7703,781.83185,73,41,0
781.7703,781.83185,81,49,0
781.93427,781.9914,81,45,0
781.93427,781.9914,77,45,0
781.93427,781.9914,86,54,0
782.25946,782.3245,81,41,0
782.25946,782.3245,77,41,0
782.25946,782.3245,86,49,0
782.5962,782.92224,81,45,0
782.5962,782.92224,77,45,0
782.5962,782.92224,86,53,0
782.92224,782.9988,86,41,0
782.92224,782.9988,81,41,0
782.92224,782.9988,89,49,0
783.0753,783.1606,81,41,0
783.0753,783.1606,77,41,0
783.0753,783.1606,86,49,0
783.2458,783.5358,81,45,0
783.2458,783.5358,76,45,0
783.2458,783.5358,85,54,0
783.5773,783.85956,88,57,0
783.5566,783.85956,81,48,0
783.5358,783.85956,73,48,0
783.8797,784.2023,81,51,0
783.89984,784.2224,89,60,0
783.85956,784.2224,74,51,0
784.2224,784.5521,81,46,0
784.2224,784.5521,77,46,0
784.2224,784.5521,86,55,0
784.5521,784.8406,81,50,0
784.5521,784.8406,76,50,0
784.5521,784.8406,85,59,0
784.8818,785.16254,88,63,0
784.86115,785.16254,81,53,0
784.8406,785.16254,73,53,0
785.18256,785.5034,81,56,0
785.20264,785.5235,89,67,0
785.16254,785.5235,74,56,0
785.5235,785.8625,81,53,0
785.5235,785.8625,77,53,0
785.5235,785.8625,86,63,0
785.8625,786.51654,85,63,0
785.8625,786.51654,81,53,0
785.8625,786.51654,76,53,0
788.11835,788.2802,46,45,0
788.2802,788.4658,45,44,0
788.11835,788.4658,40,53,0
788.11835,788.4658,37,48,0
788.4658,788.6341,45,36,0
788.6341,788.8,46,38,0
788.8,788.96436,49,39,0
788.96436,789.1269,50,41,0
788.4658,789.1269,41,53,0
788.4658,789.1269,38,46,0
789.1269,789.288,52,45,0
789.288,789.4476,53,46,0
789.4476,789.6056,56,48,0
789.6056,789.76904,57,56,0
789.94525,790.10315,56,51,0
790.10315,790.2635,53,50,0
790.2635,790.42615,52,49,0
789.786,790.42615,57,57,0
790.42615,790.5912,50,47,0
790.5912,790.75885,49,45,0
790.75885,790.929,46,45,0
790.929,791.0874,45,44,0
790.42615,791.1019,43,53,0
790.42615,791.1019,40,45,0
791.2753,791.4472,46,38,0
791.4472,791.6173,49,39,0
791.6173,791.7858,50,41,0
791.1019,791.7858,45,36,0
791.1019,791.7858,41,53,0
791.7858,791.95294,52,45,0
791.95294,792.11835,53,46,0
792.11835,792.2823,56,48,0
792.2823,792.4448,57,56,0
792.627,792.7863,56,51,0
792.7863,792.94794,53,50,0
792.94794,793.11194,52,49,0
792.45996,793.11194,57,57,0
793.27844,793.4475,45,45,0
793.4475,793.619,46,46,0
793.619,793.7945,47,45,0
793.11194,793.7945,42,45,0
793.11194,793.7945,48,53,0
793.11194,793.7945,51,58,0
793.9612,794.1278,45,48,0
794.1278,794.2887,46,49,0
794.2887,794.4573,47,48,0
793.7945,794.4573,41,47,0
793.7945,794.4573,48,56,0
793.7945,794.4573,51,58,0
794.61597,794.7747,45,51,0
794.7747,794.9334,46,52,0
794.9334,795.09216,47,51,0
794.4573,795.09216,40,50,0
794.4573,795.09216,48,59,0
794.4573,795.09216,52,63,0
795.2526,795.413,45,54,0
795.413,795.5734,46,54,0
795.5734,795.7339,47,54,0
795.09216,795.7339,42,53,0
795.09216,795.7339,48,52,0
795.09216,795.7339,54,67,0
795.7339,795.8978,54,70,0
795.8978,796.06177,45,57,0
796.06177,796.23315,47,58,0
796.06177,796.23315,54,58,0
796.23315,796.4046,44,58,0
795.7339,796.4046,48,59,0
795.7339,796.4046,38,59,0
796.4046,796.48193,44,54,0
796.4046,796.48193,37,54,0
796.4046,796.48193,49,64,0
796.55927,796.64075,38,45,0
796.55927,796.64075,50,54,0
796.7223,796.7996,44,50,0
796.7223,796.7996,37,50,0
796.7223,796.7996,49,59,0
796.87695,796.958,38,44,0
796.87695,796.958,50,52,0
797.03906,797.11847,37,51,0
797.03906,797.11847,49,61,0
797.1978,797.27716,42,45,0
797.1978,797.27716,54,54,0
797.35657,797.43005,41,52,0
797.35657,797.43005,53,62,0
797.5036,797.5813,38,45,0
797.5036,797.5813,50,54,0
797.65906,797.7326,37,51,0
797.65906,797.7326,49,60,0
797.8061,797.8851,38,46,0
797.8061,797.8851,50,55,0
797.964,798.04254,37,51,0
797.964,798.04254,49,60,0
798.1211,798.1996,38,45,0
798.1211,798.1996,50,54,0
798.27814,798.3597,37,51,0
798.27814,798.3597,49,61,0
798.44116,798.5227,42,45,0
798.44116,798.5227,54,54,0
798.60425,798.67773,41,52,0
798.60425,798.67773,53,62,0
798.7513,798.8294,38,45,0
798.7513,798.8294,50,54,0
798.90753,798.9811,37,51,0
798.90753,798.9811,49,60,0
799.05457,799.13354,38,46,0
799.05457,799.13354,50,55,0
799.21246,799.29584,37,51,0
799.21246,799.29584,49,60,0
799.37915,799.46246,38,45,0
799.37915,799.46246,50,54,0
799.54584,799.6252,37,53,0
799.54584,799.6252,49,64,0
799.7045,799.78394,44,47,0
799.7045,799.78394,56,56,0
799.8633,799.9368,41,54,0
799.8633,799.9368,53,65,0
800.0103,800.0881,38,47,0
800.0103,800.0881,50,56,0
800.1658,800.2393,37,53,0
800.1658,800.2393,49,63,0
800.31287,800.3918,38,48,0
800.31287,800.3918,50,57,0
800.4707,800.54926,37,53,0
800.4707,800.54926,49,63,0
800.6278,800.70636,38,47,0
800.6278,800.70636,50,56,0
800.78485,800.8664,37,53,0
800.78485,800.8664,49,64,0
800.94794,801.0294,38,47,0
800.94794,801.0294,50,56,0
801.11096,801.1845,39,54,0
801.11096,801.1845,51,65,0
801.258,801.3361,40,47,0
801.258,801.3361,52,56,0
801.41425,801.4878,41,58,0
801.41425,801.4878,53,69,0
801.56134,801.64026,42,52,0
801.56134,801.64026,54,62,0
801.71924,801.80255,41,58,0
801.71924,801.80255,53,69,0
801.88586,801.96924,42,51,0
801.88586,801.96924,54,61,0
802.05255,802.1319,41,51,0
802.05255,802.1319,53,61,0
802.2113,802.29065,46,45,0
802.2113,802.29065,58,54,0
802.37,802.44354,45,52,0
802.37,802.44354,57,62,0
802.5171,802.5948,42,45,0
802.5171,802.5948,54,54,0
802.6725,802.74603,41,51,0
802.6725,802.74603,53,60,0
802.8196,802.8985,42,46,0
802.8196,802.8985,54,55,0
802.9775,803.0128,41,51,0
802.9775,803.0128,53,60,0
803.11896,803.15826,42,45,0
803.11896,803.15826,54,54,0
803.27606,803.35754,41,51,0
803.27606,803.35754,53,61,0
803.4391,803.5206,46,45,0
803.4391,803.5206,58,54,0
803.6021,803.67566,45,52,0
803.6021,803.67566,57,62,0
803.7492,803.82733,42,45,0
803.7492,803.82733,54,54,0
803.90546,803.97894,41,51,0
803.90546,803.97894,53,60,0
804.0525,804.1315,42,46,0
804.0525,804.1315,54,55,0
804.2104,804.2937,41,51,0
804.2104,804.2937,53,60,0
804.3771,804.4604,42,45,0
804.3771,804.4604,54,54,0
804.5437,804.6231,41,53,0
804.5437,804.6231,53,64,0
804.70245,804.7818,48,47,0
804.70245,804.7818,60,56,0
804.8612,804.9347,45,54,0
804.8612,804.9347,57,65,0
805.00824,805.08594,42,47,0
805.00824,805.08594,54,56,0
805.1637,805.23724,41,53,0
805.1637,805.23724,53,63,0
805.3107,805.3897,42,48,0
805.3107,805.3897,54,57,0
805.4686,805.5042,41,53,0
805.4686,805.5042,53,63,0
805.61084,805.6501,42,47,0
805.61084,805.6501,54,56,0
805.7679,805.8494,41,53,0
805.7679,805.8494,53,64,0
805.9309,806.01245,49,47,0
805.9309,806.01245,61,56,0
806.094,806.1675,46,54,0
806.094,806.1675,58,65,0
806.241,806.31915,42,47,0
806.241,806.31915,54,56,0
806.3973,806.4708,41,51,0
806.3973,806.4708,53,61,0
806.5443,806.6233,42,53,0
806.5443,806.6233,54,63,0
806.7022,806.78076,45,54,0
806.7022,806.78076,57,64,0
806.8593,806.93787,46,56,0
806.8593,806.93787,58,66,0
807.01636,807.0925,48,58,0
807.01636,807.0925,60,69,0
807.16864,807.2448,49,59,0
807.16864,807.2448,61,70,0
807.3209,807.39594,52,60,0
807.3209,807.39594,64,71,0
807.47095,807.54596,53,62,0
807.47095,807.54596,65,73,0
807.6209,807.6959,53,62,0
807.6209,807.6959,65,74,0
807.77325,807.8506,52,64,0
807.77325,807.8506,64,76,0
807.9279,808.0033,49,63,0
807.9279,808.0033,61,75,0
808.0787,808.15405,48,62,0
808.0787,808.15405,60,74,0
808.22943,808.3044,46,61,0
808.22943,808.3044,58,72,0
808.3794,808.4544,45,60,0
808.3794,808.4544,57,71,0
808.5294,808.60443,42,59,0
808.5294,808.60443,54,70,0
808.6809,808.75745,41,58,0
808.6809,808.75745,53,69,0
808.834,808.90753,41,51,0
808.834,808.90753,53,61,0
808.9811,809.0576,42,53,0
808.9811,809.0576,54,63,0
809.1341,809.21265,45,54,0
809.1341,809.21265,57,64,0
809.28766,809.3627,46,56,0
809.28766,809.3627,58,66,0
809.4376,809.5119,48,58,0
809.4376,809.5119,60,69,0
809.5862,809.6655,49,59,0
809.5862,809.6655,61,70,0
809.7449,809.8199,52,60,0
809.7449,809.8199,64,71,0
809.8938,809.96765,53,62,0
809.8938,809.96765,65,73,0
810.04156,810.1155,53,62,0
810.04156,810.1155,65,74,0
810.1905,810.2682,52,64,0
810.1905,810.2682,64,76,0
810.3459,810.41907,49,63,0
810.3459,810.41907,61,75,0
810.49225,810.5696,48,62,0
810.49225,810.5696,60,74,0
810.6469,810.72626,46,61,0
810.6469,810.72626,58,72,0
810.8056,810.88257,45,60,0
810.8056,810.88257,57,71,0
810.9595,811.0364,42,59,0
810.9595,811.0364,54,70,0
811.1129,811.19226,41,58,0
811.1129,811.19226,53,69,0
811.27167,811.43036,45,51,0
811.27167,811.43036,53,69,0
811.43036,811.5847,46,45,0
811.43036,811.5847,54,53,0
811.27167,811.5847,41,51,0
811.5847,811.737,48,46,0
811.5847,811.737,57,55,0
811.737,811.8885,49,49,0
811.737,811.8885,58,58,0
811.8885,812.0396,51,51,0
811.8885,812.0396,60,60,0
812.0396,812.19037,53,52,0
812.0396,812.19037,61,62,0
812.19037,812.3405,54,54,0
812.19037,812.3405,63,64,0
812.3405,812.5027,57,56,0
812.3405,812.5027,65,66,0
812.5027,812.65265,58,57,0
812.5027,812.65265,66,68,0
813.10266,813.2534,51,54,0
813.10266,813.2534,60,64,0
813.2534,813.4042,49,53,0
813.2534,813.4042,58,63,0
813.4042,813.5556,48,51,0
813.4042,813.5556,57,61,0
813.5556,813.7071,46,51,0
813.5556,813.7071,54,60,0
813.7071,813.86584,47,51,0
813.7071,813.86584,55,69,0
813.86584,814.0202,48,45,0
813.86584,814.0202,56,53,0
813.7071,814.0202,41,51,0
814.0202,814.1725,50,46,0
814.0202,814.1725,59,55,0
814.1725,814.324,51,49,0
814.1725,814.324,60,58,0
814.324,814.4751,53,51,0
814.324,814.4751,62,60,0
814.4751,814.62585,55,52,0
814.4751,814.62585,63,62,0
814.62585,814.776,56,54,0
814.62585,814.776,65,64,0
814.776,814.9381,59,56,0
814.776,814.9381,67,66,0
814.9381,815.08813,60,57,0
814.9381,815.08813,68,68,0
815.53815,815.6889,53,54,0
815.53815,815.6889,62,64,0
815.6889,815.83966,51,53,0
815.6889,815.83966,60,63,0
815.83966,815.991,50,51,0
815.83966,815.991,59,61,0
815.991,816.15015,48,51,0
815.991,816.15015,56,60,0
816.15015,816.3048,51,50,0
816.15015,816.3048,57,72,0
816.15015,816.3048,41,50,0
816.15015,816.3048,48,50,0
816.3048,816.4587,53,52,0
816.3048,816.4587,50,52,0
816.3048,816.4587,58,65,0
816.4587,816.61194,55,53,0
816.4587,816.61194,51,53,0
816.4587,816.61194,60,67,0
816.61194,816.7645,57,55,0
816.61194,816.7645,53,55,0
816.61194,816.7645,62,69,0
816.7645,816.9165,55,56,0
816.9165,817.0678,57,57,0
817.0678,817.2185,58,59,0
817.2185,817.3684,60,60,0
817.3684,817.5177,63,64,0
817.3684,817.5177,53,64,0
817.5177,817.66736,62,60,0
817.66736,817.81757,60,59,0
817.81757,817.9683,58,57,0
817.9683,818.1198,57,56,0
818.1198,818.2717,55,54,0
818.2717,818.42426,53,52,0
818.42426,818.5774,51,51,0
818.5774,818.732,55,50,0
818.5774,818.732,41,50,0
818.732,818.8859,57,52,0
818.8859,819.0392,58,53,0
819.0392,819.1918,60,55,0
819.1918,819.34375,62,56,0
819.34375,819.49506,63,57,0
819.49506,819.6457,65,59,0
819.6457,819.79565,67,60,0
819.79565,819.9449,70,64,0
819.9449,820.0946,69,60,0
820.0946,820.2448,67,59,0
820.2448,820.40607,65,57,0
820.40607,820.55536,67,64,0
820.40607,820.55536,63,64,0
820.55536,820.705,62,60,0
820.55536,820.705,65,64,0
820.705,820.8552,63,59,0
820.705,820.8552,60,59,0
820.8552,821.0174,62,57,0
820.8552,821.0174,58,57,0
821.0174,821.1666,70,64,0
821.0174,821.1666,67,64,0
821.1666,821.31635,69,60,0
821.1666,821.31635,65,60,0
821.31635,821.46655,67,59,0
821.31635,821.46655,63,59,0
821.46655,821.6261,65,57,0
821.46655,821.6261,62,57,0
821.6261,821.7754,74,64,0
821.6261,821.7754,70,64,0
821.7754,821.92505,72,60,0
821.7754,821.92505,69,60,0
821.92505,822.07526,70,59,0
821.92505,822.07526,67,59,0
822.07526,822.2457,69,57,0
822.07526,822.2457,65,57,0
822.2457,822.39496,79,64,0
822.2457,822.39496,75,64,0
822.39496,822.5447,77,60,0
822.39496,822.5447,74,60,0
822.5447,822.6949,75,59,0
822.5447,822.6949,72,59,0
822.6949,822.8819,74,57,0
822.6949,822.8819,70,57,0
822.8819,823.03186,79,59,0
822.8819,823.03186,82,70,0
823.03186,823.1746,77,59,0
823.03186,823.1746,81,70,0
823.1746,823.31116,75,58,0
823.1746,823.31116,79,69,0
823.31116,823.44165,74,58,0
823.31116,823.44165,77,69,0
823.44165,823.5668,72,57,0
823.44165,823.5668,75,68,0
823.5668,823.6871,70,57,0
823.5668,823.6871,74,68,0
823.6871,823.80255,69,56,0
823.6871,823.80255,72,67,0
823.80255,823.91394,67,56,0
823.80255,823.91394,70,67,0
823.91394,824.0182,65,56,0
823.91394,824.0182,69,66,0
824.0182,824.1209,63,56,0
824.0182,824.1209,67,66,0
824.1209,824.2231,62,55,0
824.1209,824.2231,65,65,0
824.2231,824.32983,60,55,0
824.2231,824.32983,63,65,0
824.32983,824.4451,58,54,0
824.32983,824.4451,62,64,0
824.4451,824.588,57,54,0
824.4451,824.588,60,64,0
824.588,824.7269,56,53,0
824.588,824.7269,59,63,0
824.7269,824.88434,57,53,0
824.7269,824.88434,60,63,0
824.88434,825.0105,59,64,0
824.88434,825.0105,56,53,0
825.0105,825.1327,60,63,0
825.0105,825.1327,57,53,0
825.1327,825.25116,61,57,0
825.1327,825.25116,58,57,0
825.25116,825.3667,62,58,0
825.25116,825.3667,59,58,0
825.3667,825.48004,63,58,0
825.3667,825.48004,60,58,0
825.48004,825.59045,64,59,0
825.48004,825.59045,61,59,0
825.59045,825.6983,65,60,0
825.59045,825.6983,62,60,0
825.6983,825.80347,66,60,0
825.6983,825.80347,63,60,0
825.80347,825.9063,67,60,0
825.80347,825.9063,64,60,0
825.9063,826.0067,68,61,0
825.9063,826.0067,65,61,0
826.0067,826.1054,69,61,0
826.0067,826.1054,66,61,0
826.1054,826.20337,70,62,0
826.1054,826.20337,67,62,0
826.20337,826.3006,71,62,0
826.20337,826.3006,68,62,0
826.3006,826.3967,72,62,0
826.3006,826.3967,69,62,0
826.3967,826.49207,73,63,0
826.3967,826.49207,70,63,0
826.49207,826.5868,74,64,0
826.49207,826.5868,71,64,0
826.5868,826.68054,75,64,0
826.5868,826.68054,72,64,0
826.68054,826.77344,76,65,0
826.68054,826.77344,73,65,0
826.77344,826.8657,77,66,0
826.77344,826.8657,74,66,0
826.8657,826.95715,78,66,0
826.8657,826.95715,75,66,0
826.95715,827.0477,79,67,0
826.95715,827.0477,76,67,0
827.0477,827.13776,80,68,0
827.0477,827.13776,77,68,0
827.13776,827.2438,81,68,0
827.13776,827.2438,78,68,0
827.2438,827.45245,82,73,0
827.2438,827.45245,79,71,0
838.21765,838.29266,46,75,0
838.3676,838.4426,62,28,0
838.3676,838.4426,65,34,0
838.51764,838.58374,58,37,0
838.51764,838.58374,62,44,0
838.6498,838.7341,53,28,0
838.6498,838.7341,58,34,0
838.81836,838.8891,46,56,0
838.95984,839.0306,62,28,0
838.95984,839.0306,65,34,0
839.1014,839.18243,58,37,0
839.1014,839.18243,62,44,0
839.26355,839.3446,53,28,0
839.26355,839.3446,58,34,0
839.42566,839.49994,46,74,0
839.5742,839.64844,62,28,0
839.5742,839.64844,65,34,0
839.7227,839.79,58,37,0
839.7227,839.79,62,44,0
839.85724,839.9366,53,28,0
839.85724,839.9366,58,34,0
840.016,840.0874,46,53,0
840.1588,840.2303,62,28,0
840.1588,840.2303,65,34,0
840.3017,840.3855,58,37,0
840.3017,840.3855,62,44,0
840.4693,840.5531,53,28,0
840.4693,840.5531,58,34,0
840.6369,840.7123,46,73,0
840.78766,840.86304,58,29,0
840.78766,840.86304,62,35,0
840.9384,841.0088,53,38,0
840.9384,841.0088,58,46,0
841.0792,841.1535,58,29,0
841.0792,841.1535,62,35,0
841.2277,841.302,46,51,0
841.3763,841.4505,58,29,0
841.3763,841.4505,62,35,0
841.5248,841.60333,53,38,0
841.5248,841.60333,58,46,0
841.6818,841.7604,58,29,0
841.6818,841.7604,62,35,0
841.8389,841.9147,41,84,0
841.9904,842.06616,60,29,0
841.9904,842.06616,63,35,0
842.14197,842.21375,53,38,0
842.14197,842.21375,60,46,0
842.28546,842.3632,60,29,0
842.28546,842.3632,63,35,0
842.4409,842.51447,46,61,0
842.588,842.6615,58,29,0
842.588,842.6615,62,35,0
842.73505,842.81195,53,38,0
842.73505,842.81195,58,46,0
842.8889,842.9798,50,29,0
842.8889,842.9798,53,35,0
843.0707,843.1453,46,72,0
843.22,843.2946,62,28,0
843.22,843.2946,65,34,0
843.3692,843.43585,58,37,0
843.3692,843.43585,62,44,0
843.50256,843.58704,53,28,0
843.50256,843.58704,58,34,0
843.6716,843.743,46,56,0
843.8144,843.88586,62,28,0
843.8144,843.88586,65,34,0
843.9573,844.0383,58,37,0
843.9573,844.0383,62,44,0
844.11945,844.2005,53,28,0
844.11945,844.2005,58,34,0
844.2816,844.35583,46,74,0
844.4301,844.5044,62,28,0
844.4301,844.5044,65,34,0
844.5786,844.6459,58,37,0
844.5786,844.6459,62,44,0
844.71313,844.7947,53,28,0
844.71313,844.7947,58,34,0
844.8762,844.94727,46,53,0
845.0184,845.0895,62,28,0
845.0184,845.0895,65,34,0
845.1606,845.2412,58,37,0
845.1606,845.2412,62,44,0
845.32184,845.4025,53,28,0
845.32184,845.4025,58,34,0
845.48315,845.55817,46,73,0
845.6331,845.7081,58,29,0
845.6331,845.7081,62,35,0
845.78314,845.8523,53,38,0
845.78314,845.8523,58,46,0
845.9214,845.99384,58,29,0
845.9214,845.99384,62,35,0
846.06635,846.1402,46,51,0
846.2141,846.288,58,29,0
846.2141,846.288,62,35,0
846.3619,846.4404,53,38,0
846.3619,846.4404,58,46,0
846.519,846.5975,58,29,0
846.519,846.5975,62,35,0
846.676,846.7518,41,85,0
846.8275,846.9033,60,29,0
846.8275,846.9033,63,35,0
846.97906,847.05115,53,38,0
846.97906,847.05115,60,46,0
847.1233,847.2002,60,29,0
847.1233,847.2002,63,35,0
847.27716,847.3503,46,61,0
847.42346,847.49664,58,29,0
847.42346,847.49664,62,35,0
847.5698,847.6475,53,38,0
847.5698,847.6475,58,46,0
847.8795,847.95526,62,72,0
848.031,848.10675,65,34,0
848.1825,848.2529,58,44,0
848.32336,848.3984,65,34,0
848.32336,848.3984,62,28,0
848.4734,848.5459,57,51,0
848.6187,848.6915,65,34,0
848.6187,848.6915,60,28,0
848.76434,848.8419,53,44,0
848.9197,848.9974,60,34,0
848.9197,848.9974,57,28,0
849.0751,849.1502,52,72,0
849.2256,849.30096,60,34,0
849.2256,849.30096,55,28,0
849.37634,849.4471,48,44,0
849.5179,849.5936,64,34,0
849.5179,849.5936,60,28,0
849.6694,849.7422,53,51,0
849.815,849.8878,65,34,0
849.815,849.8878,60,28,0
849.96063,850.0372,57,44,0
850.1137,850.19025,65,34,0
850.1137,850.19025,60,28,0
850.2668,850.3419,57,72,0
850.41724,850.4926,65,30,0
850.41724,850.4926,60,30,0
850.41724,850.4926,69,34,0
850.568,850.6388,57,44,0
850.70953,850.7849,65,28,0
850.70953,850.7849,69,34,0
850.70953,850.7849,60,28,0
850.86,850.93317,56,56,0
851.00635,851.0796,68,37,0
851.00635,851.0796,65,30,0
851.00635,851.0796,59,30,0
851.1531,851.2266,55,48,0
851.30035,851.3765,67,37,0
851.30035,851.3765,64,30,0
851.30035,851.3765,58,30,0
851.4513,851.525,53,46,0
851.5991,851.6737,60,26,0
851.5991,851.6737,57,26,0
851.5991,851.6737,65,30,0
851.7488,851.82434,53,40,0
851.9003,851.9768,65,30,0
851.9003,851.9768,60,26,0
851.9003,851.9768,56,26,0
852.05383,852.13135,48,46,0
852.20905,852.2868,60,26,0
852.20905,852.2868,64,30,0
852.3645,852.44226,55,40,0
852.51996,852.59766,64,30,0
852.51996,852.59766,60,26,0
852.6754,852.74963,48,72,0
852.8239,852.8982,64,34,0
852.8239,852.8982,60,26,0
852.9724,853.04254,55,44,0
853.1126,853.188,64,34,0
853.1126,853.188,60,28,0
853.26337,853.3355,47,80,0
853.4076,853.47974,65,34,0
853.4076,853.47974,62,28,0
853.5518,853.62933,55,44,0
853.7071,853.7848,65,34,0
853.7071,853.7848,62,28,0
853.8625,853.93713,43,89,0
854.0118,854.08636,65,34,0
854.0118,854.08636,59,26,0
854.161,854.23145,55,44,0
854.3019,854.37683,65,34,0
854.3019,854.37683,62,28,0
854.45184,854.5236,48,77,0
854.5954,854.6672,64,34,0
854.5954,854.6672,60,28,0
854.73895,854.81506,55,44,0
854.89124,854.96735,64,34,0
854.89124,854.96735,60,28,0
855.0435,855.1178,43,77,0
855.192,855.2663,65,34,0
855.192,855.2663,59,26,0
855.3405,855.41095,55,44,0
855.4814,855.5564,65,34,0
855.4814,855.5564,62,28,0
855.6314,855.70386,48,51,0
855.7763,855.84875,64,34,0
855.7763,855.84875,60,28,0
855.92126,855.9981,55,44,0
856.0758,856.1535,64,34,0
856.0758,856.1535,60,28,0
856.23126,856.3055,43,86,0
856.37976,856.45404,65,34,0
856.37976,856.45404,59,26,0
856.52826,856.60077,55,44,0
856.6732,856.7493,65,34,0
856.6732,856.7493,62,28,0
856.8269,856.9102,60,47,0
856.8269,856.9102,64,56,0
856.99023,857.06793,48,40,0
856.99023,857.06793,60,49,0
857.1467,857.22675,43,46,0
857.1467,857.22675,55,55,0
857.3084,857.3917,41,50,0
857.3084,857.3917,53,60,0
857.47754,857.55524,40,73,0
857.47754,857.55524,52,91,0
857.633,857.7107,55,46,0
857.633,857.7107,60,56,0
857.7884,857.85815,36,53,0
857.7884,857.85815,48,63,0
857.928,858.0086,52,46,0
857.928,858.0086,55,46,0
857.928,858.0086,60,55,0
858.08923,858.16205,41,66,0
858.08923,858.16205,53,78,0
858.23486,858.31177,53,46,0
858.23486,858.31177,57,55,0
858.38873,858.46564,57,54,0
858.38873,858.46564,60,64,0
858.54254,858.6195,53,46,0
858.54254,858.6195,57,55,0
858.6964,858.77374,40,65,0
858.6964,858.77374,52,77,0
858.8511,858.92834,55,46,0
858.8511,858.92834,60,56,0
859.0057,859.07513,36,53,0
859.0057,859.07513,48,63,0
859.1446,859.2261,52,46,0
859.1446,859.2261,55,46,0
859.1446,859.2261,60,55,0
859.3076,859.38007,41,66,0
859.3076,859.38007,53,78,0
859.4526,859.52985,57,46,0
859.4526,859.52985,60,55,0
859.56854,859.6072,64,59,0
859.6072,859.68695,65,64,0
859.92633,860.234,57,55,0
859.92633,860.234,60,65,0
860.234,860.30756,53,53,0
860.234,860.30756,57,63,0
860.3811,860.4572,58,46,0
860.3811,860.4572,62,55,0
860.5334,860.6076,57,56,0
860.5334,860.6076,60,66,0
860.6819,860.7588,53,46,0
860.6819,860.7588,57,55,0
860.83575,860.9147,53,64,0
860.83575,860.9147,41,57,0
861.15155,861.45764,57,55,0
861.15155,861.45764,60,65,0
861.45764,861.5308,53,53,0
861.45764,861.5308,57,63,0
861.604,861.6809,58,46,0
861.604,861.6809,62,55,0
861.7578,861.831,57,56,0
861.7578,861.831,60,66,0
861.9042,861.9815,53,46,0
861.9042,861.9815,57,55,0
862.05884,862.13654,53,64,0
862.05884,862.13654,41,57,0
862.3697,862.67896,57,55,0
862.3697,862.67896,60,65,0
862.67896,862.7518,53,53,0
862.67896,862.7518,57,63,0
862.8246,862.9004,58,46,0
862.8246,862.9004,62,55,0
862.97614,863.0493,57,56,0
862.97614,863.0493,60,66,0
863.12244,863.1986,53,46,0
863.12244,863.1986,57,55,0
863.2747,863.35284,53,64,0
863.2747,863.35284,41,57,0
863.5872,863.9047,57,55,0
863.5872,863.9047,60,65,0
863.9047,863.9801,53,53,0
863.9047,863.9801,57,63,0
864.0555,864.134,58,46,0
864.0555,864.134,62,55,0
864.2125,864.2982,57,56,0
864.2125,864.2982,60,66,0
864.55536,864.6282,57,44,0
864.701,864.7804,65,28,0
864.701,864.7804,69,34,0
864.701,864.7804,60,28,0
864.85895,864.93353,57,56,0
865.0082,865.0828,65,37,0
865.0082,865.0828,60,30,0
865.1574,865.23206,55,48,0
865.3063,865.38245,62,37,0
865.3063,865.38245,59,30,0
865.45844,865.5343,52,46,0
865.61066,865.68744,60,26,0
865.61066,865.68744,58,26,0
865.61066,865.68744,67,30,0
865.7648,865.8426,53,40,0
865.9209,865.99927,65,30,0
865.9209,865.99927,60,26,0
865.9209,865.99927,57,26,0
866.07886,866.15955,48,46,0
866.2402,866.3173,60,26,0
866.2402,866.3173,65,30,0
866.3944,866.47,55,40,0
866.54553,866.6211,64,30,0
866.54553,866.6211,60,26,0
866.69666,866.77734,53,61,0
866.858,866.9386,57,28,0
866.858,866.9386,60,28,0
866.858,866.9386,65,34,0
867.0193,867.0928,57,44,0
867.1663,867.24786,65,28,0
867.1663,867.24786,69,34,0
867.1663,867.24786,60,28,0
867.32935,867.4015,56,56,0
867.4736,867.546,68,37,0
867.4736,867.546,60,30,0
867.4736,867.546,65,30,0
867.6195,867.69305,55,48,0
867.7668,867.8429,65,37,0
867.7668,867.8429,59,30,0
867.7668,867.8429,62,30,0
867.91895,867.9948,52,46,0
868.0711,868.14795,61,26,0
868.0711,868.14795,58,26,0
868.0711,868.14795,64,30,0
868.2252,868.3031,53,40,0
868.3814,868.4598,65,30,0
868.3814,868.4598,60,26,0
868.3814,868.4598,57,26,0
868.53937,868.6198,48,46,0
868.70026,868.78064,60,26,0
868.70026,868.78064,65,30,0
868.8611,868.9415,55,40,0
869.022,869.10236,64,30,0
869.022,869.10236,60,26,0
869.1828,869.26385,53,61,0
869.345,869.426,57,28,0
869.345,869.426,60,28,0
869.345,869.426,65,34,0
869.50714,869.5806,57,44,0
869.6542,869.73315,65,28,0
869.6542,869.73315,69,34,0
869.6542,869.73315,60,28,0
869.8121,869.889,56,56,0
869.96594,870.0413,66,37,0
869.96594,870.0413,60,30,0
869.96594,870.0413,62,30,0
870.11676,870.1937,55,48,0
870.269,870.34796,67,37,0
870.269,870.34796,59,30,0
870.269,870.34796,62,30,0
870.4264,870.50604,54,46,0
870.58673,870.6682,60,26,0
870.58673,870.6682,58,26,0
870.58673,870.6682,64,30,0
870.75055,870.834,53,40,0
870.9183,871.0157,65,30,0
870.9183,871.0157,60,26,0
870.9183,871.0157,57,26,0
871.1127,871.2088,49,46,0
871.30676,871.4065,58,26,0
871.30676,871.4065,65,30,0
871.30676,871.4065,55,26,0
871.5082,871.6118,48,40,0
871.71747,871.8254,64,30,0
871.71747,871.8254,58,26,0
871.71747,871.8254,55,26,0
871.9342,872.0123,53,46,0
872.09045,872.1686,57,26,0
872.09045,872.1686,60,30,0
872.2467,872.3248,65,40,0
872.2467,872.3248,60,26,0
872.40295,872.4811,60,30,0
872.40295,872.4811,57,26,0
872.86847,872.9373,53,48,0
872.8105,872.9373,41,38,0
872.82983,872.9373,45,41,0
872.8491,872.9373,48,45,0
873.4536,873.53174,49,50,0
873.399,873.53174,37,41,0
873.4172,873.53174,41,44,0
873.4354,873.53174,46,47,0
874.0722,874.14166,46,48,0
874.01483,874.14166,34,39,0
874.03394,874.14166,37,42,0
874.0531,874.14166,41,45,0
874.6586,874.7372,41,48,0
874.604,874.7372,29,38,0
874.6222,874.7372,33,41,0
874.64044,874.7372,36,45,0
875.2758,875.3459,53,48,0
875.219,875.3459,41,38,0
875.2379,875.3459,45,41,0
875.25684,875.3459,48,45,0
875.8651,875.94324,49,50,0
875.81055,875.94324,37,41,0
875.82874,875.94324,41,44,0
875.8469,875.94324,46,47,0
876.4813,876.5511,46,48,0
876.42395,876.5511,34,39,0
876.44305,876.5511,37,42,0
876.4622,876.5511,41,45,0
877.07,877.14984,45,48,0
877.01544,877.14984,33,38,0
877.0336,877.14984,37,41,0
877.0518,877.14984,40,45,0
877.6985,877.76666,57,48,0
877.6405,877.76666,45,38,0
877.6598,877.76666,49,41,0
877.67914,877.76666,52,45,0
878.27875,878.35724,53,50,0
878.2247,878.35724,41,41,0
878.2427,878.35724,45,44,0
878.2607,878.35724,50,47,0
878.89655,878.9657,50,48,0
878.8392,878.9657,38,39,0
878.8583,878.9657,41,42,0
878.87744,878.9657,45,45,0
879.47894,879.5551,49,48,0
879.4251,879.5551,37,38,0
879.44305,879.5551,41,41,0
879.461,879.5551,44,45,0
880.0928,880.1619,61,48,0
880.0348,880.1619,49,38,0
880.05414,880.1619,53,41,0
880.0735,880.1619,56,45,0
880.6758,880.7543,57,50,0
880.62164,880.7543,45,41,0
880.6397,880.7543,49,44,0
880.6577,880.7543,54,47,0
881.2936,881.36334,54,48,0
881.23615,881.36334,42,39,0
881.2553,881.36334,45,42,0
881.2744,881.36334,49,45,0
881.88226,881.9596,53,48,0
881.82764,881.9596,41,38,0
881.8458,881.9596,45,41,0
881.8641,881.9596,48,45,0
882.1915,882.49304,46,48,0
882.1915,882.49304,49,57,0
882.1915,882.49304,37,48,0
882.1915,882.49304,41,48,0
882.49304,882.78546,41,45,0
882.49304,882.78546,46,53,0
882.49304,882.78546,34,45,0
882.49304,882.78546,37,45,0
883.0726,883.3851,52,46,0
883.0726,883.3851,57,54,0
883.0726,883.3851,45,46,0
883.0726,883.3851,49,46,0
883.3851,883.6881,50,52,0
883.3851,883.6881,53,64,0
883.3851,883.6881,41,52,0
883.3851,883.6881,45,52,0
883.6881,883.9805,45,49,0
883.6881,883.9805,50,59,0
883.6881,883.9805,38,49,0
883.6881,883.9805,41,49,0
884.2718,884.58264,56,50,0
884.2718,884.58264,61,60,0
884.2718,884.58264,49,50,0
884.2718,884.58264,53,50,0
884.58264,884.8857,54,52,0
884.58264,884.8857,57,64,0
884.58264,884.8857,45,52,0
884.58264,884.8857,49,52,0
884.8857,885.1749,49,49,0
884.8857,885.1749,54,59,0
884.8857,885.1749,42,49,0
884.8857,885.1749,45,49,0
885.1749,885.4593,49,64,0
885.1749,885.4593,37,52,0
885.1749,885.4593,41,52,0
885.1749,885.4593,44,52,0
885.4593,885.7718,56,50,0
885.4593,885.7718,61,60,0
885.4593,885.7718,49,50,0
885.4593,885.7718,53,50,0
885.7718,886.0748,54,52,0
885.7718,886.0748,57,64,0
885.7718,886.0748,45,52,0
885.7718,886.0748,49,52,0
886.0748,886.3671,49,49,0
886.0748,886.3671,54,59,0
886.0748,886.3671,42,49,0
886.0748,886.3671,45,49,0
886.3671,886.65283,49,64,0
886.3671,886.65283,37,52,0
886.3671,886.65283,41,52,0
886.3671,886.65283,44,52,0
886.65283,886.9574,65,50,0
886.65283,886.9574,61,50,0
886.65283,886.9574,68,60,0
886.9574,887.24585,69,64,0
886.9574,887.24585,66,52,0
886.9574,887.24585,60,52,0
887.24585,887.5444,45,50,0
887.24585,887.5444,48,60,0
887.5444,887.8314,49,65,0
887.5444,887.8314,44,52,0
887.24585,887.8314,37,50,0
887.8314,888.154,65,51,0
887.8314,888.154,61,51,0
887.8314,888.154,68,62,0
888.154,888.4411,71,66,0
888.154,888.4411,68,54,0
888.154,888.4411,62,54,0
888.4411,888.7381,47,52,0
888.4411,888.7381,38,52,0
888.4411,888.7381,50,63,0
888.7381,889.0252,51,66,0
888.7381,889.0252,46,55,0
888.7381,889.0252,39,55,0
889.0252,889.32227,67,52,0
889.0252,889.32227,63,52,0
889.0252,889.32227,70,64,0
889.32227,889.6093,71,67,0
889.32227,889.6093,68,56,0
889.32227,889.6093,62,56,0
889.6093,889.9093,47,54,0
889.6093,889.9093,50,65,0
889.9093,890.1964,51,70,0
889.9093,890.1964,46,57,0
889.6093,890.1964,39,54,0
890.1964,890.4934,67,55,0
890.1964,890.4934,63,55,0
890.1964,890.4934,70,66,0
890.4934,890.7791,73,70,0
890.4934,890.7791,70,57,0
890.4934,890.7791,64,57,0
890.7791,891.08215,49,55,0
890.7791,891.08215,40,55,0
890.7791,891.08215,52,66,0
891.08215,891.36926,53,71,0
891.08215,891.36926,48,58,0
891.08215,891.36926,41,58,0
891.36926,891.6678,57,56,0
891.36926,891.6678,53,56,0
891.36926,891.6678,60,67,0
891.6678,891.9279,61,72,0
891.6678,891.9279,58,59,0
891.6678,891.9279,52,59,0
891.95483,892.224,58,69,0
891.9279,892.224,41,57,0
891.9369,892.224,49,57,0
891.94586,892.224,52,57,0
892.2519,892.5376,57,73,0
892.224,892.5376,41,59,0
892.2333,892.5376,48,59,0
892.2426,892.5376,53,59,0
892.5376,892.8391,57,58,0
892.5376,892.8391,53,58,0
892.5376,892.8391,60,70,0
892.8391,893.09924,61,74,0
892.8391,893.09924,58,60,0
892.8391,893.09924,52,60,0
893.12616,893.40216,58,71,0
893.09924,893.40216,41,58,0
893.1082,893.40216,49,58,0
893.1172,893.40216,52,58,0
893.4307,893.722,57,75,0
893.40216,893.722,41,62,0
893.4117,893.722,48,62,0
893.4212,893.722,53,62,0
893.722,894.08344,60,72,0
894.08344,894.80634,63,79,0
894.80634,895.6274,55,73,0
895.6274,895.713,57,72,0
895.713,895.7977,70,60,0
895.7977,895.8816,57,64,0
895.8816,895.96454,70,54,0
895.96454,896.0471,57,64,0
896.0471,896.1289,70,54,0
896.1289,896.20984,57,64,0
896.20984,896.29,70,54,0
896.29,896.3697,57,64,0
896.3697,896.44867,70,53,0
896.44867,896.5268,57,64,0
896.5268,896.6045,70,53,0
896.6045,896.6815,57,64,0
896.6815,896.7579,70,53,0
896.7579,896.83344,57,64,0
896.83344,896.9086,70,51,0
896.9086,896.981,57,64,0
896.981,897.0534,70,51,0
897.0534,897.1258,57,64,0
897.1258,897.1982,70,52,0
897.1982,897.2758,57,64,0
897.2758,897.35345,70,53,0
897.35345,897.5419,57,72,0
897.5419,897.65466,55,74,0
897.76746,897.90765,57,74,0
898.04785,898.1252,46,85,0
898.04785,898.1252,34,79,0
898.20245,898.2798,62,39,0
898.20245,898.2798,65,48,0
898.3571,898.4259,58,52,0
898.3571,898.4259,62,62,0
898.49475,898.57245,53,39,0
898.49475,898.57245,58,48,0
898.65015,898.72296,46,66,0
898.7958,898.8686,62,39,0
898.7958,898.8686,65,48,0
898.9414,899.02295,58,52,0
898.9414,899.02295,62,62,0
899.1045,899.186,53,39,0
899.1045,899.186,58,48,0
899.2675,899.34406,46,88,0
899.4206,899.49713,62,39,0
899.4206,899.49713,65,48,0
899.57367,899.64185,58,52,0
899.57367,899.64185,62,62,0
899.71,899.78613,53,39,0
899.71,899.78613,58,48,0
899.8623,899.9351,46,63,0
900.00793,900.08075,62,39,0
900.00793,900.08075,65,48,0
900.15356,900.23505,58,52,0
900.15356,900.23505,62,62,0
900.3166,900.39813,53,39,0
900.3166,900.39813,58,48,0
900.4796,900.5566,46,87,0
900.6335,900.7104,58,40,0
900.6335,900.7104,62,49,0
900.78735,900.85614,53,53,0
900.78735,900.85614,58,64,0
900.9249,900.9992,58,40,0
900.9249,900.9992,62,49,0
901.0735,901.14886,46,66,0
901.22424,901.29956,58,40,0
901.22424,901.29956,62,49,0
901.37494,901.4548,53,53,0
901.37494,901.4548,58,64,0
901.53455,901.6186,58,40,0
901.53455,901.6186,62,49,0
901.70264,901.77997,41,103,0
901.85724,901.9346,60,40,0
901.85724,901.9346,63,49,0
902.0119,902.08545,53,53,0
902.0119,902.08545,60,64,0
902.15894,902.2388,60,40,0
902.15894,902.2388,63,49,0
902.31854,902.3939,46,79,0
902.4693,902.5447,58,40,0
902.4693,902.5447,62,49,0
902.62006,902.69855,53,50,0
902.62006,902.69855,58,61,0
902.7771,902.8682,58,34,0
902.7771,902.8682,62,42,0
902.9785,903.0539,46,59,0
903.1293,903.20465,62,25,0
903.1293,903.20465,65,30,0
903.28,903.3485,58,33,0
903.28,903.3485,62,39,0
903.41705,903.4943,53,25,0
903.41705,903.4943,58,30,0
903.57166,903.6445,46,45,0
903.7173,903.7901,62,25,0
903.7173,903.7901,65,30,0
903.8629,903.94446,58,33,0
903.8629,903.94446,62,39,0
904.026,904.1075,53,25,0
904.026,904.1075,58,30,0
904.189,904.26556,46,61,0
904.3421,904.41864,62,25,0
904.3421,904.41864,65,30,0
904.4951,904.56396,58,33,0
904.4951,904.56396,62,39,0
904.63275,904.7113,53,25,0
904.63275,904.7113,58,30,0
904.78986,904.8627,46,44,0
904.9355,905.0083,62,25,0
904.9355,905.0083,65,30,0
905.0811,905.163,58,33,0
905.0811,905.163,62,39,0
905.245,905.32697,53,25,0
905.245,905.32697,58,30,0
905.40894,905.4859,46,60,0
905.5628,905.6397,62,26,0
905.5628,905.6397,65,31,0
905.7167,905.78546,58,34,0
905.7167,905.78546,62,41,0
905.85425,905.9285,53,26,0
905.85425,905.9285,58,31,0
906.0028,906.0781,46,45,0
906.1535,906.2289,62,26,0
906.1535,906.2289,65,31,0
906.30426,906.3845,58,34,0
906.30426,906.3845,62,41,0
906.4647,906.5449,53,26,0
906.4647,906.5449,58,31,0
906.6251,906.70245,41,76,0
906.7798,906.8571,63,26,0
906.7798,906.8571,65,31,0
906.93445,907.00793,60,34,0
906.93445,907.00793,63,41,0
907.0815,907.1604,53,26,0
907.0815,907.1604,60,31,0
907.2394,907.31476,46,54,0
907.39014,907.4655,62,26,0
907.39014,907.4655,65,31,0
907.5409,907.6186,58,34,0
907.5409,907.6186,62,41,0
907.6959,907.77325,53,26,0
907.6959,907.77325,58,31,0
907.8506,907.92786,46,85,0
908.0052,908.0825,58,39,0
908.0052,908.0825,62,48,0
908.0052,908.0825,53,39,0
908.15985,908.22833,41,62,0
908.2968,908.37415,53,39,0
908.2968,908.37415,58,48,0
908.2968,908.37415,50,39,0
908.4515,908.5243,48,66,0
908.5971,908.6699,57,39,0
908.5971,908.6699,63,48,0
908.5971,908.6699,53,39,0
908.74274,908.82086,41,62,0
908.899,908.9771,53,39,0
908.899,908.9771,57,48,0
908.899,908.9771,51,39,0
909.05524,909.13257,46,85,0
909.20984,909.2872,58,39,0
909.20984,909.2872,62,48,0
909.20984,909.2872,53,39,0
909.3645,909.4346,41,62,0
909.5047,909.5797,53,39,0
909.5047,909.5797,58,48,0
909.5047,909.5797,50,39,0
909.65466,909.7275,48,66,0
909.8003,909.8731,57,39,0
909.8003,909.8731,63,48,0
909.8003,909.8731,53,39,0
909.9459,910.02405,41,62,0
910.1022,910.1803,53,39,0
910.1022,910.1803,57,48,0
910.1022,910.1803,51,39,0
910.2584,910.33575,46,85,0
910.4131,910.4904,58,39,0
910.4131,910.4904,62,48,0
910.4131,910.4904,53,39,0
910.56775,910.6378,41,62,0
910.70795,910.7829,53,39,0
910.70795,910.7829,58,48,0
910.70795,910.7829,50,39,0
910.8579,910.9307,48,66,0
911.00354,911.07635,57,39,0
911.00354,911.07635,63,48,0
911.00354,911.07635,53,39,0
911.1492,911.2273,41,62,0
911.3054,911.38354,53,39,0
911.3054,911.38354,57,48,0
911.3054,911.38354,51,39,0
911.4617,911.539,46,85,0
911.61633,911.69366,58,39,0
911.61633,911.69366,62,48,0
911.61633,911.69366,53,39,0
911.77094,911.84106,41,62,0
911.91113,911.98615,53,39,0
911.91113,911.98615,58,48,0
911.91113,911.98615,50,39,0
912.06116,912.3524,63,66,0
912.06116,912.3524,48,56,0
912.06116,912.3524,53,56,0
912.06116,912.3524,57,56,0
912.3524,912.6437,29,45,0
912.3524,912.6437,41,53,0
912.6437,912.9246,30,36,0
912.6437,912.9246,42,43,0
912.9246,913.2063,31,39,0
912.9246,913.2063,43,46,0
913.2063,913.486,32,41,0
913.2063,913.486,44,49,0
913.4921,913.77344,32,38,0
913.4921,913.77344,44,53,0
913.77344,914.05255,33,35,0
913.77344,914.05255,45,42,0
914.05255,914.3316,34,38,0
914.05255,914.3316,46,45,0
914.3316,914.61523,35,41,0
914.3316,914.61523,47,49,0
914.61523,914.89233,35,45,0
914.61523,914.89233,47,54,0
914.89233,915.1699,36,34,0
914.89233,915.1699,48,41,0
915.1699,915.44775,37,37,0
915.1699,915.44775,49,44,0
915.44775,915.7255,38,39,0
915.44775,915.7255,50,47,0
915.73157,916.0108,38,46,0
915.73157,916.0108,50,55,0
916.0108,916.28864,39,34,0
916.0108,916.28864,51,40,0
916.28864,916.5664,40,37,0
916.28864,916.5664,52,44,0
916.5664,916.75964,41,52,0
916.5664,916.75964,53,53,0
916.75964,916.8531,41,41,0
916.75964,916.8531,53,41,0
916.94653,917.04,54,38,0
916.94653,917.04,42,38,0
917.1335,917.2269,55,38,0
917.1335,917.2269,43,38,0
917.3204,917.4138,44,35,0
917.3204,917.4138,56,41,0
917.50726,917.60077,45,35,0
917.50726,917.60077,57,41,0
917.6942,917.79083,46,41,0
917.6942,917.79083,58,49,0
917.88745,917.98047,47,38,0
917.88745,917.98047,59,46,0
918.0735,918.1665,48,38,0
918.0735,918.1665,60,46,0
918.2595,918.35254,49,45,0
918.2595,918.35254,61,53,0
918.44556,918.5386,50,38,0
918.44556,918.5386,62,46,0
918.63165,918.73065,51,38,0
918.63165,918.73065,63,46,0
918.82965,918.93835,52,51,0
918.82965,918.93835,64,61,0
918.97455,919.0797,53,46,0
918.97455,919.0797,65,55,0
919.11475,919.2199,54,46,0
919.11475,919.2199,66,55,0
919.25494,919.3601,55,46,0
919.25494,919.3601,67,55,0
919.39514,919.50385,56,52,0
919.39514,919.50385,68,62,0
919.54004,919.6452,56,46,0
919.54004,919.6452,68,55,0
919.68024,919.7854,57,46,0
919.68024,919.7854,69,55,0
919.82043,919.9256,58,46,0
919.82043,919.9256,70,55,0
919.96063,920.06573,59,53,0
919.96063,920.06573,71,63,0
920.1008,920.20593,59,47,0
920.1008,920.20593,71,56,0
920.241,920.3461,60,47,0
920.241,920.3461,72,56,0
920.38116,920.4863,61,47,0
920.38116,920.4863,73,56,0
920.52136,920.6265,62,56,0
920.52136,920.6265,74,66,0
920.66156,920.7667,62,47,0
920.66156,920.7667,74,56,0
920.80176,920.90686,63,47,0
920.80176,920.90686,75,56,0
920.94196,921.04706,64,47,0
920.94196,921.04706,76,56,0
921.0821,921.1908,65,62,0
921.0821,921.1908,77,74,0
921.22705,921.33124,65,55,0
921.22705,921.33124,69,55,0
921.22705,921.33124,77,64,0
921.36597,921.4701,66,57,0
921.36597,921.4701,70,57,0
921.36597,921.4701,77,68,0
921.5048,921.609,67,60,0
921.5048,921.609,71,60,0
921.5048,921.609,77,71,0
921.64374,921.74786,68,63,0
921.64374,921.74786,72,63,0
921.64374,921.74786,77,75,0
921.7826,921.8868,68,53,0
921.7826,921.8868,72,53,0
921.7826,921.8868,77,63,0
921.9215,922.02563,67,53,0
921.9215,922.02563,71,53,0
921.9215,922.02563,77,63,0
922.06036,922.1686,66,53,0
922.06036,922.1686,70,53,0
922.06036,922.1686,77,63,0
922.2046,922.30927,65,63,0
922.2046,922.30927,69,63,0
922.2046,922.30927,77,75,0
922.3442,922.4478,65,52,0
922.3442,922.4478,69,52,0
922.3442,922.4478,77,62,0
922.4824,922.58606,66,56,0
922.4824,922.58606,70,56,0
922.4824,922.58606,77,67,0
922.62067,922.7243,67,60,0
922.62067,922.7243,71,60,0
922.62067,922.7243,77,71,0
922.7589,922.8626,68,63,0
922.7589,922.8626,72,63,0
922.7589,922.8626,77,75,0
922.89716,923.00085,68,53,0
922.89716,923.00085,72,53,0
922.89716,923.00085,77,63,0
923.0354,923.1391,67,53,0
923.0354,923.1391,71,53,0
923.0354,923.1391,77,63,0
923.17365,923.2818,66,53,0
923.17365,923.2818,70,53,0
923.17365,923.2818,77,63,0
923.31836,923.6135,69,68,0
923.31836,923.6135,65,68,0
923.31836,923.6135,77,80,0
923.6135,923.90894,69,61,0
923.6135,923.90894,65,61,0
923.6135,923.90894,77,72,0
923.90894,924.2132,70,61,0
923.90894,924.2132,66,61,0
923.90894,924.2132,78,72,0
924.2132,924.5159,71,61,0
924.2132,924.5159,67,61,0
924.2132,924.5159,79,72,0
924.5159,924.82526,72,67,0
924.5159,924.82526,68,67,0
924.5159,924.82526,80,79,0
925.1309,925.47095,77,67,0
925.1309,925.47095,81,79,0
925.1309,925.47095,69,67,0
925.1309,925.47095,72,67,0
927.0561,927.12805,57,75,0
927.12805,927.20135,53,76,0
927.20135,927.2762,51,79,0
927.2762,927.3525,48,81,0
927.3525,927.43036,45,84,0
927.43036,927.50977,44,104,0
927.50977,927.58685,45,80,0
927.58685,927.6612,48,79,0
927.6612,927.7341,51,77,0
927.7341,927.8054,53,76,0
927.8054,927.87616,57,75,0
930.2668,930.3441,57,64,0
930.2668,930.3441,69,76,0
930.3441,930.42145,54,76,0
930.42145,930.4982,53,63,0
930.42145,930.4982,65,75,0
930.4982,930.5755,52,74,0
930.5755,930.6536,51,62,0
930.5755,930.6536,63,73,0
930.6536,930.7326,48,73,0
930.7326,930.8123,45,61,0
930.7326,930.8123,57,72,0
930.8123,930.8921,42,71,0
930.8921,931.0962,53,72,0
930.8921,931.0962,41,72,0
931.29706,931.55884,57,62,0
931.2469,931.55884,41,55,0
931.2636,931.55884,45,57,0
931.28033,931.55884,51,59,0
931.728,931.98047,58,62,0
931.6857,931.98047,42,57,0
931.6998,931.98047,46,59,0
931.7139,931.98047,51,60,0
932.15356,932.4368,59,61,0
932.1103,932.4368,43,56,0
932.1247,932.4368,47,58,0
932.13916,932.4368,51,59,0
932.6213,932.8868,60,63,0
932.57513,932.8868,44,59,0
932.5905,932.8868,48,60,0
932.6059,932.8868,51,62,0
934.8657,935.3734,65,78,0
934.8106,935.3734,51,63,0
934.7543,935.3734,33,77,0
934.7825,935.3734,45,59,0
934.8388,935.3734,60,68,0
935.3734,935.45074,46,102,0
935.3734,935.45074,34,94,0
935.5281,935.60535,62,46,0
935.5281,935.60535,65,57,0
935.5281,935.60535,58,46,0
935.6827,935.75214,53,74,0
935.8216,935.8993,62,46,0
935.8216,935.8993,65,57,0
935.8216,935.8993,58,46,0
935.97705,936.04987,46,72,0
936.1227,936.1955,62,46,0
936.1227,936.1955,65,57,0
936.1227,936.1955,58,46,0
936.2683,936.34937,53,74,0
936.4304,936.51154,58,46,0
936.4304,936.51154,65,57,0
936.4304,936.51154,62,46,0
936.5926,936.6691,46,98,0
936.74567,936.8222,62,46,0
936.74567,936.8222,65,57,0
936.74567,936.8222,58,46,0
936.89874,936.96783,53,74,0
937.037,937.11273,62,46,0
937.037,937.11273,65,57,0
937.037,937.11273,58,46,0
937.1885,937.2613,46,69,0
937.3341,937.4069,62,46,0
937.3341,937.4069,65,57,0
937.3341,937.4069,58,46,0
937.47974,937.5617,53,74,0
937.6437,937.72565,62,46,0
937.6437,937.72565,65,57,0
937.6437,937.72565,58,46,0
937.8076,937.8845,46,98,0
937.9615,938.0384,58,48,0
937.9615,938.0384,62,58,0
938.1153,938.1857,53,77,0
938.25616,938.33044,58,48,0
938.25616,938.33044,62,58,0
938.40466,938.48004,46,72,0
938.5554,938.6308,58,48,0
938.5554,938.6308,62,58,0
938.7062,938.78595,53,77,0
938.8658,938.94556,58,48,0
938.8658,938.94556,62,58,0
939.0253,939.10266,41,100,0
939.18,939.25726,60,48,0
939.18,939.25726,65,58,0
939.18,939.25726,63,48,0
939.3346,939.40814,53,77,0
939.4817,939.56146,60,48,0
939.4817,939.56146,65,58,0
939.4817,939.56146,63,48,0
939.64124,939.7166,46,86,0
939.792,939.8674,58,48,0
939.792,939.8674,65,58,0
939.792,939.8674,62,48,0
939.94275,940.0213,53,73,0
940.0998,940.191,62,40,0
940.0998,940.191,65,50,0
940.0998,940.191,58,40,0
940.2821,940.3594,46,100,0
940.4367,940.51404,62,46,0
940.4367,940.51404,65,57,0
940.4367,940.51404,58,46,0
940.5914,940.66144,53,74,0
940.73157,940.8065,62,46,0
940.73157,940.8065,65,57,0
940.73157,940.8065,58,46,0
940.88153,940.95435,46,72,0
941.02716,941.1,62,46,0
941.02716,941.1,65,57,0
941.02716,941.1,58,46,0
941.1728,941.2539,53,74,0
941.33496,941.4161,58,46,0
941.33496,941.4161,65,57,0
941.33496,941.4161,62,46,0
941.49713,941.57367,46,99,0
941.6502,941.72675,62,46,0
941.6502,941.72675,65,57,0
941.6502,941.72675,58,46,0
941.8033,941.8721,53,74,0
941.94086,942.0144,62,46,0
941.94086,942.0144,65,57,0
941.94086,942.0144,58,46,0
942.08795,942.16077,46,69,0
942.2336,942.3064,62,46,0
942.2336,942.3064,65,57,0
942.2336,942.3064,58,46,0
942.3792,942.4625,53,74,0
942.54584,942.6292,62,46,0
942.54584,942.6292,65,57,0
942.54584,942.6292,58,46,0
942.7125,942.7894,46,95,0
942.8664,942.9433,62,48,0
942.8664,942.9433,65,58,0
942.8664,942.9433,58,48,0
943.0202,943.09064,53,77,0
943.1611,943.2353,62,48,0
943.1611,943.2353,65,58,0
943.1611,943.2353,58,48,0
943.3096,943.38495,46,78,0
943.4603,943.5357,58,48,0
943.4603,943.5357,65,58,0
943.4603,943.5357,62,48,0
943.6111,943.69086,53,77,0
943.7706,943.8564,58,48,0
943.7706,943.8564,65,58,0
943.7706,943.8564,62,48,0
943.9421,944.0194,41,100,0
944.09674,944.1741,60,48,0
944.09674,944.1741,65,58,0
944.09674,944.1741,63,48,0
944.2514,944.3249,53,77,0
944.39844,944.4782,60,48,0
944.39844,944.4782,65,58,0
944.39844,944.4782,63,48,0
944.558,944.8595,58,86,0
944.558,944.8595,50,70,0
944.558,944.8595,46,70,0
944.8595,944.93604,34,61,0
944.8595,944.93604,46,73,0
945.0126,945.09106,29,54,0
945.0126,945.09106,41,65,0
945.17346,945.24774,34,61,0
945.17346,945.24774,46,73,0
945.322,945.39624,41,53,0
945.322,945.39624,53,64,0
945.4705,945.5448,50,56,0
945.4705,945.5448,62,67,0
945.619,945.6968,46,58,0
945.619,945.6968,58,70,0
945.7745,946.0616,53,61,0
945.7745,946.0616,57,73,0
945.7745,946.0616,45,61,0
945.7745,946.0616,48,61,0
946.0616,946.35425,53,58,0
946.0616,946.35425,58,69,0
946.0616,946.35425,46,58,0
946.0616,946.35425,50,58,0
946.35425,946.6469,48,60,0
946.35425,946.6469,51,72,0
946.35425,946.6469,39,60,0
946.35425,946.6469,43,60,0
946.6469,946.9396,51,56,0
946.6469,946.9396,53,67,0
946.6469,946.9396,41,56,0
946.6469,946.9396,48,56,0
946.9396,947.2411,58,90,0
946.9396,947.2411,50,73,0
946.9396,947.2411,46,73,0
947.2411,947.31726,34,61,0
947.2411,947.31726,46,73,0
947.3934,947.47687,29,54,0
947.3934,947.47687,41,65,0
947.5651,947.63934,34,61,0
947.5651,947.63934,46,73,0
947.7136,947.78784,41,53,0
947.7136,947.78784,53,64,0
947.8621,947.9322,50,56,0
947.8621,947.9322,62,67,0
948.0023,948.07886,46,58,0
948.0023,948.07886,58,70,0
948.1554,948.44385,53,61,0
948.1554,948.44385,57,73,0
948.1554,948.44385,45,61,0
948.1554,948.44385,48,61,0
948.44385,948.74475,53,58,0
948.44385,948.74475,58,69,0
948.44385,948.74475,46,58,0
948.44385,948.74475,50,58,0
948.74475,949.0389,48,60,0
948.74475,949.0389,51,72,0
948.74475,949.0389,39,60,0
948.74475,949.0389,43,60,0
949.0389,949.333,51,56,0
949.0389,949.333,53,67,0
949.0389,949.333,41,56,0
949.0389,949.333,48,56,0
949.333,949.4103,58,84,0
949.333,949.4103,50,73,0
949.333,949.4103,46,73,0
949.4876,949.56116,58,50,0
949.4876,949.56116,65,61,0
949.4876,949.56116,62,50,0
949.6347,949.7061,53,80,0
949.7775,949.85443,58,50,0
949.7775,949.85443,65,61,0
949.7775,949.85443,62,50,0
949.9314,950.0049,53,84,0
949.9314,950.0049,41,73,0
950.0784,950.152,60,50,0
950.0784,950.152,65,61,0
950.0784,950.152,63,50,0
950.2255,950.299,53,80,0
950.37256,950.4461,60,50,0
950.37256,950.4461,65,61,0
950.37256,950.4461,63,50,0
950.5196,950.5961,58,84,0
950.5196,950.5961,50,73,0
950.5196,950.5961,46,73,0
950.67267,950.7462,58,50,0
950.67267,950.7462,65,61,0
950.67267,950.7462,62,50,0
950.81976,950.8912,53,80,0
950.9626,951.0395,58,50,0
950.9626,951.0395,65,61,0
950.9626,951.0395,62,50,0
951.11646,951.18964,53,84,0
951.11646,951.18964,41,73,0
951.26276,951.33594,60,50,0
951.26276,951.33594,65,61,0
951.26276,951.33594,63,50,0
951.4091,951.4823,53,80,0
951.5555,951.62866,60,50,0
951.5555,951.62866,65,61,0
951.5555,951.62866,63,50,0
951.7018,951.7799,53,84,0
951.7018,951.7799,41,73,0
951.85803,951.9316,58,46,0
951.85803,951.9316,53,46,0
951.85803,951.9316,62,46,0
951.85803,951.9316,65,56,0
952.0051,952.0786,65,56,0
952.0051,952.0786,53,46,0
952.0051,952.0786,58,46,0
952.0051,952.0786,62,46,0
952.3109,952.38904,53,84,0
952.3109,952.38904,41,73,0
952.46716,952.54254,57,46,0
952.46716,952.54254,53,46,0
952.46716,952.54254,63,46,0
952.46716,952.54254,65,56,0
952.6179,952.6933,65,56,0
952.6179,952.6933,53,46,0
952.6179,952.6933,57,46,0
952.6179,952.6933,63,46,0
952.9411,953.0844,53,84,0
952.9411,953.0844,41,73,0
953.13214,953.17706,58,46,0
953.13214,953.17706,53,46,0
953.13214,953.17706,62,46,0
953.13214,953.17706,65,56,0
953.31177,953.3567,62,46,0
953.31177,953.3567,53,46,0
953.31177,953.3567,58,46,0
953.31177,953.3567,65,56,0
953.49146,953.5421,58,46,0
953.49146,953.5421,53,46,0
953.49146,953.5421,62,46,0
953.49146,953.5421,65,56,0
953.69415,953.7402,65,82,0
953.69415,953.7402,53,69,0
953.69415,953.7402,57,69,0
953.69415,953.7402,63,70,0
953.8782,953.9242,41,44,0
953.8782,953.9242,51,44,0
953.8782,953.9242,48,44,0
953.8782,953.9242,53,53,0
954.06226,954.1083,53,53,0
954.06226,954.1083,41,44,0
954.06226,954.1083,48,44,0
954.06226,954.1083,51,44,0
954.2463,954.2953,41,44,0
954.2463,954.2953,51,44,0
954.2463,954.2953,48,44,0
954.2463,954.2953,53,53,0
954.4424,954.5205,58,84,0
954.4424,954.5205,50,73,0
954.4424,954.5205,46,73,0
954.59863,954.6711,35,34,0
954.59863,954.6711,47,40,0
954.7435,954.816,34,34,0
954.7435,954.816,46,40,0
954.8885,954.9646,35,34,0
954.8885,954.9646,47,40,0
955.0408,955.1132,34,40,0
955.0408,955.1132,46,48,0
955.18567,955.2581,39,33,0
955.18567,955.2581,51,39,0
955.3306,955.4031,38,33,0
955.3306,955.4031,50,39,0
955.4755,955.55206,35,33,0
955.4755,955.55206,47,39,0
955.6286,955.7004,34,37,0
955.6286,955.7004,46,45,0
955.77216,955.84393,35,31,0
955.77216,955.84393,47,39,0
955.91565,955.9874,34,33,0
955.91565,955.9874,46,39,0
956.0592,956.1346,35,33,0
956.0592,956.1346,47,39,0
956.20996,956.28174,34,42,0
956.20996,956.28174,46,51,0
956.3535,956.4253,39,35,0
956.3535,956.4253,51,42,0
956.4971,956.5678,38,35,0
956.4971,956.5678,50,42,0
956.63855,956.71356,35,36,0
956.63855,956.71356,47,42,0
956.7886,956.8614,34,39,0
956.7886,956.8614,46,48,0
956.9342,957.007,35,36,0
956.9342,957.007,47,42,0
957.07983,957.15265,34,36,0
957.07983,957.15265,46,44,0
957.22546,957.2983,35,37,0
957.22546,957.2983,47,44,0
957.3711,957.44354,34,44,0
957.3711,957.44354,46,52,0
957.516,957.5885,39,36,0
957.516,957.5885,51,42,0
957.66095,957.7334,38,36,0
957.66095,957.7334,50,44,0
957.80585,957.8824,35,36,0
957.80585,957.8824,47,44,0
957.9589,958.0307,34,41,0
957.9589,958.0307,46,50,0
958.1025,958.17426,35,36,0
958.1025,958.17426,47,42,0
958.24603,958.3178,34,36,0
958.24603,958.3178,46,42,0
958.3895,958.4649,35,36,0
958.3895,958.4649,47,44,0
958.5403,958.61206,34,48,0
958.5403,958.61206,46,57,0
958.68384,958.7556,39,38,0
958.68384,958.7556,51,46,0
958.8274,958.89813,38,39,0
958.8274,958.89813,50,47,0
958.9689,959.0439,35,39,0
958.9689,959.0439,47,47,0
959.1189,959.1917,34,44,0
959.1189,959.1917,46,52,0
959.2645,959.33734,35,39,0
959.2645,959.33734,47,48,0
959.41016,959.483,34,40,0
959.41016,959.483,46,48,0
959.5558,959.6286,35,40,0
959.5558,959.6286,47,48,0
959.7014,959.77356,34,49,0
959.7014,959.77356,46,59,0
959.84564,959.9178,42,42,0
959.84564,959.9178,54,51,0
959.98987,960.0624,39,49,0
959.98987,960.0624,51,59,0
960.1348,960.2073,35,44,0
960.1348,960.2073,47,52,0
960.2797,960.3515,34,52,0
960.2797,960.3515,46,62,0
960.4233,960.49506,35,46,0
960.4233,960.49506,47,55,0
960.56683,960.6393,34,51,0
960.56683,960.6393,46,61,0
960.71173,960.78424,35,47,0
960.71173,960.78424,47,56,0
960.8567,960.9281,34,51,0
960.8567,960.9281,46,61,0
960.9995,961.071,42,44,0
960.9995,961.071,54,53,0
961.1424,961.2145,39,51,0
961.1424,961.2145,51,61,0
961.2866,961.35876,35,46,0
961.2866,961.35876,47,55,0
961.43085,961.503,34,55,0
961.43085,961.503,46,64,0
961.5751,961.6472,35,48,0
961.5751,961.6472,47,57,0
961.7193,961.79004,34,53,0
961.7193,961.79004,46,63,0
961.86084,961.9316,35,49,0
961.86084,961.9316,47,58,0
962.0023,962.0755,34,56,0
962.0023,962.0755,46,67,0
962.1487,962.22186,46,48,0
962.1487,962.22186,58,59,0
962.29504,962.36646,42,58,0
962.29504,962.36646,54,69,0
962.43787,962.5093,39,52,0
962.43787,962.5093,51,62,0
962.58075,962.6515,34,64,0
962.58075,962.6515,46,77,0
962.7222,962.79297,35,58,0
962.7222,962.79297,47,68,0
962.8638,962.9345,34,66,0
962.8638,962.9345,46,78,0
963.00525,963.076,35,61,0
963.00525,963.076,47,72,0
963.1468,963.2175,34,61,0
963.1468,963.2175,46,73,0
963.28827,963.359,46,52,0
963.28827,963.359,58,64,0
963.4298,963.5016,42,63,0
963.4298,963.5016,54,75,0
963.5733,963.6451,39,57,0
963.5733,963.6451,51,68,0
963.71686,963.8285,46,80,0
963.7789,963.9091,48,63,0
963.84705,963.9907,50,66,0
963.71686,964.0101,34,80,0
963.9317,964.0643,51,69,0
964.35254,964.97595,45,85,0
964.35254,964.97595,33,74,0
964.35254,964.97595,39,74,0
964.35254,964.97595,42,74,0
964.97595,965.60724,44,83,0
964.97595,965.60724,32,72,0
964.97595,965.60724,36,72,0
964.97595,965.60724,39,74,0
965.60724,966.24475,43,81,0
965.60724,966.24475,37,70,0
965.60724,966.24475,31,70,0
965.60724,966.24475,33,70,0
965.60724,966.24475,40,70,0
966.24475,966.559,42,82,0
966.24475,966.559,30,71,0
966.24475,966.559,33,71,0
966.24475,966.559,38,69,0
966.887,967.51575,39,81,0
966.887,967.51575,27,70,0
966.887,967.51575,31,70,0
966.887,967.51575,36,70,0
967.8397,968.0017,48,62,0
967.8397,968.0017,36,62,0
967.8397,968.0017,39,62,0
967.8397,968.0017,43,62,0
968.1637,968.3257,48,71,0
968.1637,968.3257,53,84,0
968.1637,968.3257,41,71,0
968.1637,968.3257,45,71,0
968.4877,968.64966,36,63,0
968.4877,968.64966,41,75,0
968.4877,968.64966,29,63,0
968.4877,968.64966,33,63,0
968.81165,969.1172,41,68,0
968.81165,969.1172,46,81,0
968.81165,969.1172,34,68,0
968.81165,969.1172,38,68,0
969.44293,970.08044,57,81,0
969.44293,970.08044,45,70,0
969.44293,970.08044,51,70,0
969.44293,970.08044,54,70,0
970.08044,970.71173,56,81,0
970.08044,970.71173,44,70,0
970.08044,970.71173,48,70,0
970.08044,970.71173,51,70,0
970.71173,971.3492,55,81,0
970.71173,971.3492,49,70,0
970.71173,971.3492,45,70,0
970.71173,971.3492,43,70,0
970.71173,971.3492,52,70,0
971.3492,971.65466,54,81,0
971.3492,971.65466,42,70,0
971.3492,971.65466,45,70,0
971.3492,971.65466,50,70,0
971.98047,972.618,51,81,0
971.98047,972.618,43,70,0
971.98047,972.618,39,70,0
971.98047,972.618,48,70,0
972.94196,973.2659,43,62,0
972.94196,973.2659,48,74,0
972.94196,973.2659,36,62,0
972.94196,973.2659,39,62,0
973.2659,973.5899,48,71,0
973.2659,973.5899,53,84,0
973.2659,973.5899,41,71,0
973.2659,973.5899,45,71,0
973.5899,973.9139,60,63,0
973.5899,973.9139,65,75,0
973.5899,973.9139,53,63,0
973.5899,973.9139,57,63,0
973.9139,974.2296,50,74,0
973.9139,974.2296,46,74,0
973.9139,974.2296,58,89,0
974.2296,974.341,50,67,0
974.2296,974.341,58,79,0
974.3782,974.5046,50,67,0
974.3782,974.5046,58,79,0
974.5467,974.66266,58,74,0
974.5467,974.66266,62,89,0
974.70135,974.8173,50,70,0
974.70135,974.8173,58,83,0
974.85596,975.1652,50,70,0
974.85596,975.1652,58,83,0
975.1652,975.2789,60,56,0
975.1652,975.2789,53,56,0
975.1652,975.2789,63,66,0
975.3925,975.49457,29,44,0
975.3925,975.49457,41,52,0
975.5966,975.69867,30,44,0
975.5966,975.69867,42,52,0
975.80066,975.90485,31,60,0
975.80066,975.90485,43,71,0
976.00903,976.11774,32,50,0
976.00903,976.11774,44,60,0
976.22644,976.33826,33,50,0
976.22644,976.33826,45,60,0
976.4532,976.769,38,74,0
976.4532,976.769,34,74,0
976.4532,976.769,46,89,0
976.769,976.8793,50,67,0
976.769,976.8793,58,79,0
976.916,977.0424,50,67,0
976.916,977.0424,58,79,0
977.0846,977.20056,58,74,0
977.0846,977.20056,62,89,0
977.2392,977.3552,50,70,0
977.2392,977.3552,58,83,0
977.39386,977.7031,50,70,0
977.39386,977.7031,58,83,0
977.7031,977.8168,60,56,0
977.7031,977.8168,53,56,0
977.7031,977.8168,63,66,0
977.9304,978.02655,29,44,0
977.9304,978.02655,41,52,0
978.12274,978.2189,30,44,0
978.12274,978.2189,42,52,0
978.315,978.41406,31,60,0
978.315,978.41406,43,71,0
978.51306,978.6183,32,50,0
978.51306,978.6183,44,60,0
978.7236,978.8368,33,50,0
978.7236,978.8368,45,60,0
978.95807,979.06555,41,56,0
978.95807,979.06555,53,66,0
979.1731,979.2657,29,44,0
979.1731,979.2657,41,52,0
979.3583,979.45087,30,44,0
979.3583,979.45087,42,52,0
979.54346,979.63965,31,60,0
979.54346,979.63965,43,71,0
979.7358,979.8348,32,50,0
979.7358,979.8348,44,60,0
979.9338,980.0395,33,50,0
979.9338,980.0395,45,60,0
980.15186,980.25494,41,56,0
980.15186,980.25494,53,66,0
980.35803,980.4473,29,44,0
980.35803,980.4473,41,52,0
980.5366,980.6259,30,44,0
980.5366,980.6259,42,52,0
980.7152,980.8021,31,60,0
980.7152,980.8021,43,71,0
980.8891,980.9761,32,50,0
980.8891,980.9761,44,60,0
981.063,981.17065,33,50,0
981.063,981.17065,45,60,0
981.285,981.3855,41,58,0
981.285,981.3855,53,69,0
981.48596,981.5761,29,46,0
981.48596,981.5761,41,55,0
981.6662,981.7563,30,46,0
981.6662,981.7563,42,55,0
981.8464,981.9333,31,62,0
981.8464,981.9333,43,74,0
982.02026,982.10724,32,52,0
982.02026,982.10724,44,62,0
982.19415,982.2942,33,52,0
982.19415,982.2942,45,62,0
982.39417,982.49725,41,49,0
982.39417,982.49725,53,69,0
982.60034,982.6918,40,56,0
982.60034,982.6918,52,67,0
982.7835,982.8765,39,60,0
982.7835,982.8765,51,71,0
982.97064,983.06604,38,63,0
982.97064,983.06604,50,75,0
983.16266,983.2606,37,68,0
983.16266,983.2606,49,80,0
983.35864,983.4781,36,70,0
983.35864,983.4781,48,83,0
983.61053,983.92804,41,74,0
983.61053,983.92804,34,74,0
983.61053,983.92804,46,88,0
983.92804,983.9956,58,70,0
984.0632,984.13074,58,71,0
984.1983,984.26184,62,80,0
984.32544,984.40314,58,73,0
984.4767,984.6168,58,73,0
984.757,984.8211,53,80,0
984.88525,984.9527,50,73,0
985.027,985.16986,50,73,0
985.3127,985.3774,46,80,0
985.442,985.5218,41,73,0
985.60156,985.7531,41,73,0
985.9236,986.24274,41,74,0
985.9236,986.24274,34,74,0
985.9236,986.24274,46,88,0
986.24274,986.3103,58,59,0
986.24274,986.3103,70,70,0
986.37787,986.44543,58,60,0
986.37787,986.44543,70,71,0
986.513,986.5771,62,68,0
986.513,986.5771,74,80,0
986.6412,986.7082,58,61,0
986.6412,986.7082,70,73,0
986.781,986.9182,58,61,0
986.781,986.9182,70,73,0
987.05457,987.11816,53,68,0
987.05457,987.11816,65,80,0
987.1817,987.2486,50,61,0
987.1817,987.2486,62,73,0
987.3221,987.46497,50,61,0
987.3221,987.46497,62,73,0
987.60785,987.6742,46,68,0
987.60785,987.6742,58,80,0
987.74054,987.8204,41,61,0
987.74054,987.8204,53,73,0
987.90015,988.05164,41,61,0
987.90015,988.05164,53,73,0
988.2165,988.53564,41,74,0
988.2165,988.53564,38,74,0
988.2165,988.53564,46,88,0
988.2165,988.53564,34,74,0
988.53564,988.6058,53,59,0
988.53564,988.6058,65,70,0
988.67584,988.7459,53,60,0
988.67584,988.7459,65,71,0
988.81604,988.8807,58,68,0
988.81604,988.8807,70,80,0
988.9453,989.0134,53,61,0
988.9453,989.0134,65,73,0
989.08844,989.22864,53,61,0
989.08844,989.22864,65,73,0
989.36884,989.43463,50,68,0
989.36884,989.43463,62,80,0
989.5004,989.5802,46,61,0
989.5004,989.5802,58,73,0
989.66,989.8011,46,61,0
989.66,989.8011,58,73,0
989.9467,990.02325,41,71,0
989.9467,990.02325,53,83,0
990.0998,990.18994,38,63,0
990.0998,990.18994,50,77,0
990.27515,990.4371,38,63,0
990.27515,990.4371,50,77,0
990.5966,990.7541,34,57,0
990.5966,990.7541,46,68,0
990.7541,990.87805,29,51,0
990.7541,990.87805,41,61,0
990.9194,991.0709,46,57,0
990.9194,991.0709,58,68,0
991.0709,991.189,41,49,0
991.0709,991.189,53,58,0
991.2284,991.3733,58,57,0
991.2284,991.3733,70,68,0
991.3733,991.49524,53,50,0
991.3733,991.49524,65,59,0
991.5359,991.6841,46,57,0
991.5359,991.6841,58,68,0
991.6841,991.80804,41,51,0
991.6841,991.80804,53,61,0
991.84937,992.0056,34,57,0
991.84937,992.0056,46,68,0
992.0056,992.13275,29,51,0
992.0056,992.13275,41,61,0
992.1751,992.3338,46,57,0
992.1751,992.3338,58,68,0
992.3338,992.46423,41,51,0
992.3338,992.46423,53,61,0
992.50775,992.6717,58,57,0
992.50775,992.6717,70,68,0
992.6717,992.76514,53,52,0
992.6717,992.76514,65,62,0
992.8586,993.0404,46,57,0
992.8586,993.0404,58,68,0
993.0404,993.14246,41,51,0
993.0404,993.14246,53,61,0
993.24445,993.43866,34,57,0
993.24445,993.43866,46,68,0
993.43866,993.5523,29,51,0
993.43866,993.5523,41,61,0
993.6659,994.28534,34,102,0
995.5038,996.1802,38,67,0
995.5038,996.1802,53,79,0
996.1802,997.40466,39,72,0
996.1802,997.40466,54,85,0
998.0169,998.69446,41,67,0
998.0169,998.69446,53,79,0
998.69446,1000.5501,42,72,0
998.69446,1000.5501,51,85,0
1000.5501,1001.2291,44,67,0
1000.5501,1001.2291,50,79,0
1001.2291,1001.8541,42,72,0
1001.2291,1001.8541,51,85,0
1001.8541,1002.4791,51,79,0
1001.8541,1002.4791,42,67,0
1002.4791,1003.1384,53,79,0
1002.4791,1003.1384,44,67,0
1002.4791,1003.1384,41,67,0
1003.1384,1003.88885,42,67,0
1003.1384,1003.88885,54,79,0
1003.1384,1003.88885,39,67,0
1003.88885,1004.04407,41,37,0
1003.88885,1004.04407,46,44,0
1003.88885,1004.04407,34,37,0
1003.88885,1004.04407,38,37,0
1004.0613,1004.20276,41,34,0
1004.0613,1004.20276,46,40,0
1004.0613,1004.20276,34,34,0
1004.0613,1004.20276,38,34,0
1004.2189,1004.362,41,35,0
1004.2189,1004.362,46,40,0
1004.2189,1004.362,34,35,0
1004.2189,1004.362,38,35,0
1004.37787,1004.44836,41,34,0
1004.37787,1004.44836,46,41,0
1004.37787,1004.44836,34,34,0
1004.37787,1004.44836,38,34,0
1004.5327,1004.60004,41,37,0
1004.5327,1004.60004,46,43,0
1004.5327,1004.60004,34,37,0
1004.5327,1004.60004,38,37,0
1004.68066,1004.7451,41,37,0
1004.68066,1004.7451,46,43,0
1004.68066,1004.7451,34,37,0
1004.68066,1004.7451,38,37,0
1004.8223,1004.8848,41,38,0
1004.8223,1004.8848,46,45,0
1004.8223,1004.8848,34,38,0
1004.8223,1004.8848,38,38,0
1004.96075,1005.0223,41,39,0
1004.96075,1005.0223,46,46,0
1004.96075,1005.0223,34,39,0
1004.96075,1005.0223,38,39,0
1005.0964,1005.1564,41,39,0
1005.0964,1005.1564,46,48,0
1005.0964,1005.1564,34,39,0
1005.0964,1005.1564,38,39,0
1005.2288,1005.287,41,42,0
1005.2288,1005.287,46,48,0
1005.2288,1005.287,34,42,0
1005.2288,1005.287,38,42,0
1005.3574,1005.4168,41,41,0
1005.3574,1005.4168,46,50,0
1005.3574,1005.4168,34,41,0
1005.3574,1005.4168,38,41,0
1005.4917,1005.555,41,42,0
1005.4917,1005.555,46,50,0
1005.4917,1005.555,34,42,0
1005.4917,1005.555,38,42,0
1005.6337,1005.773,41,46,0
1005.6337,1005.773,46,56,0
1005.6337,1005.773,34,46,0
1005.6337,1005.773,38,46,0
1005.773,1005.90985,38,45,0
1005.773,1005.90985,50,53,0
1005.90985,1006.0439,41,46,0
1005.90985,1006.0439,53,56,0
1006.0439,1006.175,46,50,0
1006.0439,1006.175,58,58,0
1006.175,1006.30365,50,51,0
1006.175,1006.30365,62,61,0
1006.30365,1006.4305,53,53,0
1006.30365,1006.4305,65,63,0
1006.4305,1006.5547,58,56,0
1006.4305,1006.5547,70,67,0
1006.5547,1006.6765,53,55,0
1006.5547,1006.6765,65,66,0
1006.6765,1006.79614,50,52,0
1006.6765,1006.79614,62,63,0
1006.79614,1006.9135,46,51,0
1006.79614,1006.9135,58,61,0
1006.9135,1007.0259,41,50,0
1006.9135,1007.0259,53,60,0
1007.0259,1007.12915,38,48,0
1007.0259,1007.12915,50,57,0
1007.12915,1007.25586,41,48,0
1007.12915,1007.25586,46,57,0
1007.12915,1007.25586,34,48,0
1007.12915,1007.25586,38,48,0
1007.37946,1007.5033,48,50,0
1007.37946,1007.5033,53,60,0
1007.37946,1007.5033,41,50,0
1007.37946,1007.5033,45,50,0
1007.6273,1007.751,53,52,0
1007.6273,1007.751,58,61,0
1007.6273,1007.751,46,52,0
1007.6273,1007.751,50,52,0
1007.87396,1007.9961,48,53,0
1007.87396,1007.9961,53,63,0
1007.87396,1007.9961,41,53,0
1007.87396,1007.9961,45,53,0
1008.1179,1008.24084,41,55,0
1008.1179,1008.24084,46,66,0
1008.1179,1008.24084,34,55,0
1008.1179,1008.24084,38,55,0
1008.3646,1008.4892,41,57,0
1008.3646,1008.4892,53,68,0
1008.3646,1008.4892,48,57,0
1008.3646,1008.4892,45,57,0
1008.6143,1008.74146,46,58,0
1008.6143,1008.74146,58,69,0
1008.6143,1008.74146,53,58,0
1008.6143,1008.74146,50,58,0
1008.8726,1009.008,41,61,0
1008.8726,1009.008,53,72,0
1008.8726,1009.008,48,61,0
1008.8726,1009.008,45,61,0
1009.1478,1009.42694,34,63,0
1009.1478,1009.42694,46,75,0
1009.1478,1009.42694,41,63,0
1009.1478,1009.42694,38,63,0
1009.706,1009.9973,46,67,0
1009.706,1009.9973,62,80,0
1009.706,1009.9973,58,67,0
1009.706,1009.9973,53,67,0
1010.2886,1010.5799,41,71,0
1010.2886,1010.5799,46,87,0
1010.2886,1010.5799,34,66,0
6.835339,6.976848,45,35,0
6.976848,7.1183577,44,36,0
7.1183577,7.2522864,45,39,0
7.2522864,7.3862147,44,42,0
7.3862147,7.5112147,45,44,0
7.5112147,7.6362147,44,46,0
7.6362147,7.7552624,45,47,0
7.7552624,7.8697715,44,47,0
7.8697715,7.9422355,45,49,0
7.9422355,8.014699,44,44,0
8.014699,8.087163,45,49,0
8.087163,8.16179,44,43,0
8.16179,8.236417,45,49,0
8.236417,8.311044,44,44,0
8.311044,8.389169,45,49,0
8.389169,8.467294,44,44,0
8.467294,8.545419,45,49,0
8.545419,8.620046,44,43,0
8.620046,8.694673,45,49,0
8.694673,8.770767,44,44,0
8.7584715,8.839315,45,49,0
8.839315,8.919961,44,44,0
8.919961,9.000606,45,49,0
9.000606,9.073417,44,44,0
9.073417,9.144845,45,49,0
9.144845,9.216274,44,44,0
9.226988,9.342373,45,49,0
9.342373,9.457758,43,45,0
9.457758,9.607758,42,50,0
9.607758,9.757757,41,45,0
9.757757,9.852454,40,53,0
9.833515,9.928212,39,48,0
9.909273,10.005192,40,53,0
9.98503,10.085836,39,47,0
10.065676,10.166482,40,53,0
10.14632,10.243942,39,48,0
10.225006,10.3191805,40,53,0
10.300527,10.393521,39,46,0
10.375142,10.466987,40,52,0
10.448661,10.53944,39,48,0
10.521327,10.611013,40,52,0
10.593159,10.681778,39,46,0
10.664175,10.752191,40,51,0
10.734588,10.822603,39,46,0
10.805,10.892774,40,51,0
10.875413,10.962218,39,45,0
10.944858,11.031663,40,52,0
11.014301,11.102686,39,45,0
11.083746,11.178443,40,51,0
11.159504,11.254201,39,45,0
11.235261,11.328142,40,51,0
11.311019,11.396635,39,46,0
11.379512,11.465129,40,51,0
11.448006,11.53339,39,46,0
11.516499,11.600958,40,53,0
11.584066,11.668526,39,45,0
11.651633,11.73814,40,51,0
11.719201,11.813898,39,45,0
11.794959,11.889656,40,51,0
11.870716,11.965131,39,45,0
11.946474,12.039758,40,51,0
12.021101,12.114385,39,45,0
12.095728,12.189585,40,51,0
12.170355,12.258147,39,45,0
12.247277,12.316246,40,51,0
12.300503,12.379298,39,46,0
12.363475,12.474235,40,48,0
12.458412,12.569171,39,48,0
12.553349,12.665004,40,60,0
12.665004,12.780777,38,63,0
12.835596,12.940193,37,67,0
12.990591,13.086391,36,70,0
13.1321745,13.287169,35,73,0
13.287169,13.39539,34,77,0
23.886246,24.02476,43,26,0
24.02476,24.16627,42,27,0
24.16627,24.301208,43,29,0
24.301208,24.435137,42,32,0
24.435137,24.561327,43,34,0
24.561327,24.686327,42,36,0
24.686327,24.80617,43,37,0
24.80617,24.921888,42,38,0
24.921888,24.994522,43,41,0
24.994522,25.066986,42,36,0
25.066986,25.13945,43,41,0
25.13945,25.213644,42,36,0
25.213644,25.28827,43,42,0
25.28827,25.362898,42,37,0
25.362898,25.440323,43,43,0
25.440323,25.518448,42,38,0
25.518448,25.596573,43,44,0
25.596573,25.6719,42,38,0
25.6719,25.746527,43,45,0
25.746527,25.821337,42,40,0
25.80996,25.89015,43,45,0
25.89015,25.970795,42,40,0
25.970795,26.05144,43,45,0
26.05144,26.126095,42,41,0
26.126095,26.197523,43,46,0
26.197523,26.268951,42,42,0
26.279665,26.393951,43,47,0
26.393951,26.509336,41,44,0
26.509336,26.65472,40,49,0
26.65472,26.804115,39,45,0
26.802221,26.896917,38,51,0
26.877977,26.972675,37,46,0
26.953735,27.046854,38,51,0
27.029493,27.116299,37,45,0
27.098938,27.185743,38,52,0
27.168383,27.256765,37,45,0
27.237827,27.332523,38,51,0
27.313583,27.408281,37,45,0
27.389341,27.482222,38,51,0
27.4651,27.550716,37,46,0
27.533592,27.61921,38,51,0
27.602085,27.687471,37,46,0
27.670578,27.755037,38,56,0
27.738146,27.822605,39,51,0
27.805714,27.892221,38,56,0
27.873281,27.967978,39,52,0
27.94904,28.043736,38,55,0
28.024797,28.119211,39,51,0
28.100554,28.193838,38,55,0
28.17518,28.268465,39,53,0
28.249807,28.324434,38,54,0
28.324434,28.42059,39,52,0
28.401358,28.49751,38,55,0
28.478281,28.576752,39,53,0
28.555204,28.719204,38,56,0
28.684492,28.892767,39,54,0
28.892767,29.00414,38,60,0
29.05495,29.151775,36,63,0
29.197897,29.286171,35,67,0
29.3284,29.409512,34,70,0
29.44945,29.574572,33,73,0
29.574572,29.663605,32,77,0
57.135456,57.25299,45,36,0
57.25299,57.370525,44,38,0
57.370525,57.488064,45,42,0
57.488064,57.6056,44,45,0
57.6056,57.723137,45,46,0
57.723137,57.84067,44,50,0
57.84067,57.95821,45,52,0
57.95821,58.075745,44,52,0
58.075745,58.152893,45,54,0
58.152893,58.23004,44,48,0
58.23004,58.30719,45,54,0
58.30719,58.38434,44,47,0
58.38434,58.461487,45,55,0
58.461487,58.538635,44,49,0
58.538635,58.615784,45,55,0
58.615784,58.692936,44,49,0
58.692936,58.770084,45,55,0
58.770084,58.847233,44,49,0
58.847233,58.92438,45,56,0
58.92438,59.00153,44,50,0
58.989956,59.067104,45,56,0
59.067104,59.144253,44,50,0
59.144253,59.2214,45,57,0
59.2214,59.29855,44,51,0
59.29855,59.375698,45,57,0
59.375698,59.452847,44,51,0
59.46442,59.580143,45,56,0
59.580143,59.695866,43,53,0
59.695866,59.81159,42,56,0
59.81159,59.95579,41,54,0
59.95579,60.05498,40,53,0
60.035145,60.134335,39,48,0
60.1145,60.213688,40,53,0
60.193848,60.29279,39,47,0
60.2732,60.371147,40,53,0
60.35156,60.449505,39,48,0
60.429916,60.527863,40,53,0
60.508274,60.60622,39,46,0
60.58663,60.684578,40,52,0
60.66499,60.762936,39,48,0
60.743347,60.841293,40,52,0
60.821705,60.91965,39,46,0
60.900063,60.99801,40,51,0
60.97842,61.076366,39,46,0
61.056778,61.154724,40,51,0
61.135136,61.23308,39,45,0
61.213493,61.31144,40,52,0
61.29185,61.389797,39,45,0
61.37021,61.468155,40,51,0
61.448566,61.546513,39,45,0
61.526924,61.62487,40,51,0
61.60528,61.703228,39,46,0
61.68364,61.784283,40,51,0
61.763794,61.865585,39,46,0
61.84575,61.94494,40,53,0
61.9251,62.024292,39,45,0
62.00445,62.10364,40,51,0
62.083805,62.18215,39,45,0
62.16316,62.25813,40,51,0
62.239132,62.334103,39,45,0
62.31511,62.41008,40,51,0
62.391087,62.486057,39,45,0
62.467064,62.562035,40,51,0
62.543037,62.63801,39,45,0
62.619015,62.713985,40,51,0
62.694992,62.789963,39,46,0
62.77097,62.903927,40,48,0
62.884933,63.01789,39,48,0
62.998898,63.11286,40,49,0
63.11286,63.18884,38,53,0
63.226826,63.302803,37,55,0
63.34079,63.416767,36,58,0
63.454754,63.568718,35,62,0
63.568718,63.644695,34,64,0
76.322365,76.43136,43,35,0
76.43136,76.54036,42,36,0
76.54036,76.64935,43,39,0
76.64935,76.75835,42,42,0
76.75835,76.86735,43,44,0
76.86735,76.97634,42,46,0
76.97634,77.085335,43,47,0
77.085335,77.19433,42,47,0
77.19433,77.267,43,49,0
77.267,77.33966,42,44,0
77.33966,77.41232,43,49,0
77.41232,77.484985,42,43,0
77.484985,77.55765,43,49,0
77.55765,77.63032,42,44,0
77.63032,77.70298,43,49,0
77.70298,77.77564,42,44,0
77.77564,77.848305,43,49,0
77.848305,77.92097,42,43,0
77.92097,77.99364,43,49,0
77.99364,78.0663,42,44,0
78.0554,78.12806,43,49,0
78.12806,78.20073,42,44,0
78.20073,78.27339,43,49,0
78.27339,78.346054,42,44,0
78.346054,78.41872,43,49,0
78.41872,78.49138,42,44,0
78.50228,78.611275,43,49,0
78.611275,78.72487,41,45,0
78.72487,78.84059,40,50,0
78.84059,78.9562,39,45,0
78.954384,79.09063,38,51,0
79.063385,79.19962,37,46,0
79.17238,79.308624,38,51,0
79.28137,79.41762,37,45,0
79.390366,79.52661,38,52,0
79.49937,79.63561,37,45,0
79.60836,79.744606,38,51,0
79.717354,79.8536,37,45,0
79.826355,79.96259,38,56,0
79.93535,80.071594,39,51,0
80.04434,80.18059,38,56,0
80.153336,80.28958,39,52,0
80.26234,80.39858,38,55,0
80.37133,80.50682,39,51,0
80.479965,80.61426,38,55,0
80.587395,80.72169,39,53,0
80.69483,80.820175,38,56,0
80.80227,80.910324,39,54,0
80.910324,80.98315,38,60,0
81.02002,81.09397,36,63,0
81.13139,81.20654,35,67,0
81.24453,81.32089,34,70,0
81.3586,81.47295,33,73,0
81.47295,81.55384,32,77,0
108.30748,108.36378,34,24,0
108.30748,108.36378,29,24,0
108.30748,108.36378,38,28,0
108.36378,108.419464,41,28,0
108.419464,108.47493,34,24,0
108.419464,108.47493,29,24,0
108.419464,108.47493,38,29,0
108.47493,108.530396,41,29,0
108.530396,108.58567,34,25,0
108.530396,108.58567,29,25,0
108.530396,108.58567,38,29,0
108.58567,108.64033,41,29,0
108.64033,108.694984,34,25,0
108.64033,108.694984,29,25,0
108.64033,108.694984,38,30,0
108.694984,108.74946,41,30,0
108.74946,108.80333,34,26,0
108.74946,108.80333,29,26,0
108.74946,108.80333,38,30,0
108.80333,108.8572,41,30,0
108.8572,108.91107,34,26,0
108.8572,108.91107,29,26,0
108.8572,108.91107,38,31,0
108.91107,108.96494,41,32,0
108.96494,109.018814,34,27,0
108.96494,109.018814,29,27,0
108.96494,109.018814,38,32,0
109.018814,109.072685,41,33,0
109.072685,109.12656,34,27,0
109.072685,109.12656,29,27,0
109.072685,109.12656,38,33,0
109.12656,109.18043,41,33,0
109.18043,109.2343,34,28,0
109.18043,109.2343,29,28,0
109.18043,109.2343,38,33,0
109.2343,109.28817,41,34,0
109.28817,109.34204,34,28,0
109.28817,109.34204,29,28,0
109.28817,109.34204,38,34,0
109.34204,109.39591,41,34,0
109.39591,109.458824,34,29,0
109.39591,109.458824,29,29,0
109.39591,109.458824,38,35,0
109.458824,109.521736,41,36,0
109.521736,109.58464,34,29,0
109.521736,109.58464,29,29,0
109.521736,109.58464,38,36,0
109.58464,109.64336,41,36,0
110.07852,110.13239,34,30,0
110.07852,110.13239,29,30,0
110.07852,110.13239,38,36,0
110.13239,110.186264,41,36,0
110.186264,110.240135,34,31,0
110.186264,110.240135,29,31,0
110.186264,110.240135,38,36,0
110.240135,110.29401,41,36,0
110.29401,110.34788,34,31,0
110.29401,110.34788,29,31,0
110.29401,110.34788,38,36,0
110.34788,110.40176,41,36,0
110.40176,110.45563,34,31,0
110.40176,110.45563,29,31,0
110.40176,110.45563,38,37,0
110.45563,110.5095,41,37,0
110.5095,110.56337,34,31,0
110.5095,110.56337,29,31,0
110.5095,110.56337,38,37,0
110.56337,110.61724,41,37,0
110.61724,110.67111,34,31,0
110.61724,110.67111,29,31,0
110.61724,110.67111,38,37,0
110.67111,110.72498,41,37,0
110.72498,110.778854,34,32,0
110.72498,110.778854,29,32,0
110.72498,110.778854,38,37,0
110.778854,110.832726,41,37,0
110.832726,110.8866,34,32,0
110.832726,110.8866,29,32,0
110.832726,110.8866,38,37,0
110.8866,110.94047,41,37,0
110.94047,110.99434,34,32,0
110.94047,110.99434,29,32,0
110.94047,110.99434,38,38,0
110.99434,111.04821,41,38,0
111.04821,111.10208,34,32,0
111.04821,111.10208,29,32,0
111.04821,111.10208,38,38,0
111.10208,111.15595,41,38,0
111.15595,111.21311,34,32,0
111.15595,111.21311,29,32,0
111.15595,111.21311,38,38,0
111.21311,111.27026,41,38,0
111.27026,111.32742,34,32,0
111.27026,111.32742,29,32,0
111.27026,111.32742,38,38,0
111.32742,111.379105,41,34,0
111.81746,111.87133,33,28,0
111.81746,111.87133,29,28,0
111.81746,111.87133,39,34,0
111.87133,111.9252,41,34,0
111.9252,111.978516,33,28,0
111.9252,111.978516,29,28,0
111.9252,111.978516,39,34,0
111.978516,112.031624,41,34,0
112.031624,112.08473,33,28,0
112.031624,112.08473,29,28,0
112.031624,112.08473,39,34,0
112.08473,112.13784,41,34,0
112.13784,112.19095,33,28,0
112.13784,112.19095,29,28,0
112.13784,112.19095,39,34,0
112.19095,112.243515,41,34,0
112.243515,112.29588,33,32,0
112.243515,112.29588,29,32,0
112.243515,112.29588,39,38,0
112.29588,112.34825,41,38,0
112.34825,112.40062,33,32,0
112.34825,112.40062,29,32,0
112.34825,112.40062,39,38,0
112.40062,112.45298,41,38,0
112.45298,112.50518,33,32,0
112.45298,112.50518,29,32,0
112.45298,112.50518,39,38,0
112.50518,112.55682,41,39,0
112.55682,112.608475,33,33,0
112.55682,112.608475,29,33,0
112.55682,112.608475,39,39,0
112.608475,112.66012,41,39,0
112.66012,112.71176,33,33,0
112.66012,112.71176,29,33,0
112.66012,112.71176,39,39,0
112.71176,112.76341,41,39,0
112.76341,112.814545,33,33,0
112.76341,112.814545,29,33,0
112.76341,112.814545,39,39,0
112.814545,112.865486,41,39,0
112.865486,112.92095,33,33,0
112.865486,112.92095,29,33,0
112.865486,112.92095,39,39,0
112.92095,112.97642,41,39,0
112.97642,113.029526,33,33,0
112.97642,113.029526,29,33,0
112.97642,113.029526,39,39,0
113.029526,113.0807,41,39,0
113.0807,113.182594,39,39,0
113.0807,113.182594,33,36,0
113.0807,113.182594,29,36,0
113.182594,113.284485,41,40,0
113.284485,113.38689,30,40,0
113.38689,113.49017,41,40,0
113.49017,113.59347,31,40,0
113.59347,113.69765,41,40,0
113.69765,113.80238,32,40,0
113.80238,113.90712,41,41,0
113.90712,114.01314,33,41,0
114.01314,114.119354,41,41,0
114.119354,114.225746,34,41,0
114.225746,114.33349,41,42,0
114.33349,114.44124,35,42,0
114.44124,114.54955,41,42,0
114.54955,114.67752,36,42,0
114.67752,114.894,41,42,0
115.3588,115.4151,35,24,0
115.3588,115.4151,30,24,0
115.3588,115.4151,39,28,0
115.4151,115.47079,42,28,0
115.47079,115.52625,35,24,0
115.47079,115.52625,30,24,0
115.47079,115.52625,39,29,0
115.52625,115.58172,42,29,0
115.58172,115.63699,35,25,0
115.58172,115.63699,30,25,0
115.58172,115.63699,39,29,0
115.63699,115.69165,42,29,0
115.69165,115.74631,35,25,0
115.69165,115.74631,30,25,0
115.69165,115.74631,39,30,0
115.74631,115.80078,42,30,0
115.80078,115.85465,35,26,0
115.80078,115.85465,30,26,0
115.80078,115.85465,39,30,0
115.85465,115.90852,42,30,0
115.90852,115.962395,35,26,0
115.90852,115.962395,30,26,0
115.90852,115.962395,39,31,0
115.962395,116.016266,42,32,0
116.016266,116.07014,35,27,0
116.016266,116.07014,30,27,0
116.016266,116.07014,39,32,0
116.07014,116.12401,42,33,0
116.12401,116.17788,35,27,0
116.12401,116.17788,30,27,0
116.12401,116.17788,39,33,0
116.17788,116.23175,42,33,0
116.23175,116.28562,35,28,0
116.23175,116.28562,30,28,0
116.23175,116.28562,39,33,0
116.28562,116.3395,42,34,0
116.3395,116.39337,35,28,0
116.3395,116.39337,30,28,0
116.3395,116.39337,39,34,0
116.39337,116.44724,42,34,0
116.44724,116.50528,35,29,0
116.44724,116.50528,30,29,0
116.44724,116.50528,39,35,0
116.50528,116.563324,42,36,0
116.563324,116.62136,35,29,0
116.563324,116.62136,30,29,0
116.563324,116.62136,39,36,0
116.62136,116.67553,42,36,0
117.110374,117.164246,35,30,0
117.110374,117.164246,30,30,0
117.110374,117.164246,39,36,0
117.164246,117.21812,42,36,0
117.21812,117.27199,35,31,0
117.21812,117.27199,30,31,0
117.21812,117.27199,39,36,0
117.27199,117.32586,42,36,0
117.32586,117.37973,35,31,0
117.32586,117.37973,30,31,0
117.32586,117.37973,39,36,0
117.37973,117.4336,42,36,0
117.4336,117.48747,35,31,0
117.4336,117.48747,30,31,0
117.4336,117.48747,39,37,0
117.48747,117.54134,42,37,0
117.54134,117.59522,35,31,0
117.54134,117.59522,30,31,0
117.54134,117.59522,39,37,0
117.59522,117.64909,42,37,0
117.64909,117.702965,35,31,0
117.64909,117.702965,30,31,0
117.64909,117.702965,39,37,0
117.702965,117.756836,42,37,0
117.756836,117.81071,35,32,0
117.756836,117.81071,30,32,0
117.756836,117.81071,39,37,0
117.81071,117.86458,42,37,0
117.86458,117.91845,35,32,0
117.86458,117.91845,30,32,0
117.86458,117.91845,39,37,0
117.91845,117.97232,42,37,0
117.97232,118.02619,35,32,0
117.97232,118.02619,30,32,0
117.97232,118.02619,39,38,0
118.02619,118.08006,42,38,0
118.08006,118.133934,35,32,0
118.08006,118.133934,30,32,0
118.08006,118.133934,39,38,0
118.133934,118.187805,42,38,0
118.187805,118.244965,35,32,0
118.187805,118.244965,30,32,0
118.187805,118.244965,39,38,0
118.244965,118.30212,42,38,0
118.30212,118.359276,35,32,0
118.30212,118.359276,30,32,0
118.30212,118.359276,39,38,0
118.359276,118.41059,42,34,0
118.84042,118.893234,34,28,0
118.84042,118.893234,30,28,0
118.84042,118.893234,40,34,0
118.893234,118.94605,42,34,0
118.94605,118.99834,34,28,0
118.94605,118.99834,30,28,0
118.94605,118.99834,40,34,0
118.99834,119.050415,42,34,0
119.050415,119.1025,34,28,0
119.050415,119.1025,30,28,0
119.050415,119.1025,40,34,0
119.1025,119.15458,42,34,0
119.15458,119.206665,34,28,0
119.15458,119.206665,30,28,0
119.15458,119.206665,40,34,0
119.206665,119.25846,42,34,0
119.25846,119.30984,34,32,0
119.25846,119.30984,30,32,0
119.25846,119.30984,40,38,0
119.30984,119.361206,42,38,0
119.361206,119.412575,34,32,0
119.361206,119.412575,30,32,0
119.361206,119.412575,40,38,0
119.412575,119.46394,42,38,0
119.46394,119.51538,34,32,0
119.46394,119.51538,30,32,0
119.46394,119.51538,40,38,0
119.51538,119.567024,42,39,0
119.567024,119.61867,34,33,0
119.567024,119.61867,30,33,0
119.567024,119.61867,40,39,0
119.61867,119.67032,42,39,0
119.67032,119.72196,34,33,0
119.67032,119.72196,30,33,0
119.67032,119.72196,40,39,0
119.72196,119.773605,42,39,0
119.773605,119.82474,34,33,0
119.773605,119.82474,30,33,0
119.773605,119.82474,40,39,0
119.82474,119.87568,42,39,0
119.87568,119.931145,34,33,0
119.87568,119.931145,30,33,0
119.87568,119.931145,40,39,0
119.931145,119.98661,42,39,0
119.98661,120.03972,34,33,0
119.98661,120.03972,30,33,0
119.98661,120.03972,40,39,0
120.03972,120.090904,42,39,0
120.090904,120.19279,40,39,0
120.090904,120.19279,34,36,0
120.090904,120.19279,30,36,0
120.19279,120.29468,42,40,0
120.29468,120.39708,31,40,0
120.39708,120.500374,42,40,0
120.500374,120.60366,32,40,0
120.60366,120.70785,42,40,0
120.70785,120.81258,33,40,0
120.81258,120.91731,42,41,0
120.91731,121.02333,34,41,0
121.02333,121.12955,42,41,0
121.12955,121.23595,35,41,0
121.23595,121.34369,42,42,0
121.34369,121.45143,36,42,0
121.45143,121.55975,42,42,0
121.55975,121.68771,37,42,0
121.68771,121.7991,42,42,0
122.22348,122.27585,34,35,0
122.22348,122.27585,31,35,0
122.22348,122.27585,37,36,0
122.27585,122.32822,43,41,0
122.22348,122.32822,40,41,0
122.32822,122.38058,34,35,0
122.32822,122.38058,31,35,0
122.32822,122.38058,37,36,0
122.38058,122.432945,43,42,0
122.32822,122.432945,40,42,0
122.432945,122.48531,34,36,0
122.432945,122.48531,31,36,0
122.432945,122.48531,37,36,0
122.48531,122.53768,43,43,0
122.432945,122.53768,40,43,0
122.53768,122.59005,34,36,0
122.53768,122.59005,31,36,0
122.53768,122.59005,37,36,0
122.59005,122.64194,43,44,0
122.53768,122.64194,40,44,0
122.64194,122.69358,34,37,0
122.64194,122.69358,31,37,0
122.64194,122.69358,37,36,0
122.69358,122.745224,43,45,0
122.64194,122.745224,40,45,0
122.745224,122.796875,34,38,0
122.745224,122.796875,31,38,0
122.745224,122.796875,37,36,0
122.796875,122.84852,43,46,0
122.745224,122.84852,40,45,0
122.84852,122.90016,34,39,0
122.84852,122.90016,31,39,0
122.84852,122.90016,37,36,0
122.90016,122.951805,43,47,0
122.84852,122.951805,40,46,0
122.951805,123.003456,34,40,0
122.951805,123.003456,31,40,0
122.951805,123.003456,37,36,0
123.003456,123.054634,43,48,0
122.951805,123.054634,40,47,0
123.054634,123.105576,34,41,0
123.054634,123.105576,31,41,0
123.054634,123.105576,37,36,0
123.105576,123.15652,43,49,0
123.054634,123.15652,40,49,0
123.15652,123.207466,34,42,0
123.15652,123.207466,31,42,0
123.15652,123.207466,37,36,0
123.207466,123.25841,43,50,0
123.15652,123.25841,40,50,0
123.25841,123.31645,34,43,0
123.25841,123.31645,31,43,0
123.25841,123.31645,37,36,0
123.31645,123.37449,43,51,0
123.25841,123.37449,40,51,0
123.37449,123.43253,34,44,0
123.37449,123.43253,31,44,0
123.37449,123.43253,37,36,0
123.43253,123.49057,43,52,0
123.37449,123.49057,40,52,0
123.898125,123.949066,36,38,0
123.898125,123.949066,32,38,0
123.898125,123.949066,41,45,0
123.949066,124.000015,44,45,0
124.000015,124.05096,36,38,0
124.000015,124.05096,32,38,0
124.000015,124.05096,41,45,0
124.05096,124.1019,44,46,0
124.1019,124.15331,36,39,0
124.1019,124.15331,32,39,0
124.1019,124.15331,41,46,0
124.15331,124.204956,44,47,0
124.204956,124.25661,36,40,0
124.204956,124.25661,32,40,0
124.204956,124.25661,41,47,0
124.25661,124.30825,44,48,0
124.30825,124.35989,36,40,0
124.30825,124.35989,32,40,0
124.30825,124.35989,41,48,0
124.35989,124.411545,44,49,0
124.411545,124.46367,36,41,0
124.411545,124.46367,32,41,0
124.411545,124.46367,41,49,0
124.46367,124.51604,44,50,0
124.51604,124.568405,36,42,0
124.51604,124.568405,32,42,0
124.51604,124.568405,41,50,0
124.568405,124.62077,44,50,0
124.62077,124.673134,36,43,0
124.62077,124.673134,32,43,0
124.62077,124.673134,41,51,0
124.673134,124.7255,44,51,0
124.7255,124.77787,36,44,0
124.7255,124.77787,32,44,0
124.7255,124.77787,41,52,0
124.77787,124.830734,44,52,0
124.830734,124.88384,36,45,0
124.830734,124.88384,32,45,0
124.830734,124.88384,41,53,0
124.88384,124.93695,44,53,0
124.93695,124.99006,36,45,0
124.93695,124.99006,32,45,0
124.93695,124.99006,41,54,0
124.99006,125.04317,44,54,0
125.04317,125.096275,36,45,0
125.04317,125.096275,32,45,0
125.04317,125.096275,41,54,0
125.096275,125.14584,44,54,0
125.57188,125.624245,36,34,0
125.57188,125.624245,33,34,0
125.57188,125.624245,39,40,0
125.624245,125.67661,45,41,0
125.57188,125.67661,42,40,0
125.67661,125.728546,36,35,0
125.67661,125.728546,33,35,0
125.67661,125.728546,39,42,0
125.728546,125.7802,45,43,0
125.67661,125.7802,42,42,0
125.7802,125.83184,36,36,0
125.7802,125.83184,33,36,0
125.7802,125.83184,39,44,0
125.83184,125.883484,45,45,0
125.7802,125.883484,42,44,0
125.883484,125.935135,36,38,0
125.883484,125.935135,33,38,0
125.883484,125.935135,39,45,0
125.935135,125.98678,45,46,0
125.883484,125.98678,42,45,0
125.98678,126.03772,36,40,0
125.98678,126.03772,33,40,0
125.98678,126.03772,39,47,0
126.03772,126.08867,45,48,0
125.98678,126.08867,42,47,0
126.08867,126.13961,36,40,0
126.08867,126.13961,33,40,0
126.08867,126.13961,39,48,0
126.13961,126.19055,45,49,0
126.08867,126.19055,42,48,0
126.19055,126.2415,36,42,0
126.19055,126.2415,33,42,0
126.19055,126.2415,39,50,0
126.2415,126.29217,45,51,0
126.19055,126.29217,42,50,0
126.29217,126.34243,36,44,0
126.29217,126.34243,33,44,0
126.29217,126.34243,39,52,0
126.34243,126.39269,45,53,0
126.29217,126.39269,42,52,0
126.39269,126.442955,36,45,0
126.39269,126.442955,33,45,0
126.39269,126.442955,39,54,0
126.442955,126.49322,45,54,0
126.39269,126.49322,42,54,0
126.49322,126.543076,36,46,0
126.49322,126.543076,33,46,0
126.49322,126.543076,39,55,0
126.543076,126.592674,45,56,0
126.49322,126.592674,42,55,0
126.592674,126.649826,36,48,0
126.592674,126.649826,33,48,0
126.592674,126.649826,39,57,0
126.649826,126.706985,45,58,0
126.592674,126.706985,42,57,0
126.706985,126.764145,36,50,0
126.706985,126.764145,33,50,0
126.706985,126.764145,39,59,0
126.764145,126.8213,45,59,0
126.706985,126.8213,42,59,0
127.214966,127.26456,38,35,0
127.214966,127.26456,34,35,0
127.214966,127.26456,43,41,0
127.26456,127.31442,46,42,0
127.31442,127.364685,38,35,0
127.31442,127.364685,34,35,0
127.31442,127.364685,43,42,0
127.364685,127.41495,46,43,0
127.41495,127.4652,38,36,0
127.41495,127.4652,34,36,0
127.41495,127.4652,43,44,0
127.4652,127.515465,46,45,0
127.515465,127.56614,38,37,0
127.515465,127.56614,34,37,0
127.515465,127.56614,43,45,0
127.56614,127.61708,46,45,0
127.61708,127.66803,38,39,0
127.61708,127.66803,34,39,0
127.61708,127.66803,43,46,0
127.66803,127.71897,46,47,0
127.71897,127.76991,38,40,0
127.71897,127.76991,34,40,0
127.71897,127.76991,43,47,0
127.76991,127.82142,46,48,0
127.82142,127.87307,38,41,0
127.82142,127.87307,34,41,0
127.82142,127.87307,43,49,0
127.87307,127.92471,46,50,0
127.92471,127.97636,38,42,0
127.92471,127.97636,34,42,0
127.92471,127.97636,43,50,0
127.97636,128.028,46,51,0
128.028,128.08037,38,44,0
128.028,128.08037,34,44,0
128.028,128.08037,43,52,0
128.08037,128.13274,46,53,0
128.13274,128.1851,38,45,0
128.13274,128.1851,34,45,0
128.13274,128.1851,43,53,0
128.1851,128.23747,46,54,0
128.23747,128.29,38,45,0
128.23747,128.29,34,45,0
128.23747,128.29,43,54,0
128.29,128.3426,46,55,0
128.3426,128.39497,38,46,0
128.3426,128.39497,34,46,0
128.3426,128.39497,43,55,0
128.39497,128.44698,46,56,0
148.1858,148.23785,51,18,0
148.23785,148.2898,57,15,0
148.23785,148.2898,60,18,0
148.2898,148.34174,51,18,0
148.34174,148.3933,57,16,0
148.34174,148.3933,60,19,0
148.3933,148.44452,51,19,0
148.44452,148.49576,57,16,0
148.44452,148.49576,60,19,0
148.49576,148.54639,51,20,0
148.54639,148.59692,57,17,0
148.54639,148.59692,60,20,0
148.59692,148.64732,51,20,0
148.64732,148.69719,57,18,0
148.64732,148.69719,60,21,0
148.69719,148.74707,51,21,0
148.74707,148.79694,57,18,0
148.74707,148.79694,60,21,0
148.79694,148.84615,51,22,0
148.84615,148.89536,57,18,0
148.84615,148.89536,60,22,0
148.89536,148.94435,51,22,0
148.94435,148.99294,57,18,0
148.94435,148.99294,60,22,0
148.99294,149.0415,51,23,0
149.0415,149.08966,57,19,0
149.0415,149.08966,60,23,0
149.08966,149.13762,51,23,0
149.13762,149.18558,57,19,0
149.13762,149.18558,60,24,0
149.18558,149.23293,51,24,0
149.23293,149.28027,57,19,0
149.23293,149.28027,60,24,0
149.28027,149.32762,51,25,0
149.32762,149.3745,57,20,0
149.32762,149.3745,60,25,0
149.3745,149.42125,51,25,0
149.42125,149.46794,57,21,0
149.42125,149.46794,60,26,0
149.46794,149.51411,51,26,0
149.51411,149.5603,57,21,0
149.51411,149.5603,60,26,0
149.5603,149.60622,51,27,0
149.60622,149.65184,57,22,0
149.60622,149.65184,60,27,0
149.65184,149.69746,51,27,0
149.69746,149.74251,57,22,0
149.69746,149.74251,60,27,0
149.74251,149.78703,51,27,0
149.78703,149.83157,57,23,0
149.78703,149.83157,60,27,0
149.83157,149.87611,51,27,0
149.87611,149.92065,57,24,0
149.87611,149.92065,60,28,0
149.92065,149.96518,51,28,0
149.96518,150.00972,57,24,0
149.96518,150.00972,60,28,0
150.00972,150.05426,51,29,0
150.05426,150.0988,57,25,0
150.05426,150.0988,60,29,0
150.0988,150.14323,51,29,0
150.14323,150.18724,57,25,0
150.14323,150.18724,60,30,0
150.18724,150.23126,51,30,0
150.23126,150.27527,57,25,0
150.23126,150.27527,60,30,0
150.27527,150.31929,51,31,0
150.31929,150.3633,57,26,0
150.31929,150.3633,60,31,0
150.3633,150.40732,51,31,0
150.40732,150.45132,57,27,0
150.40732,150.45132,60,32,0
150.45132,150.49535,51,32,0
150.49535,150.53902,57,27,0
150.49535,150.53902,60,32,0
150.53902,150.58252,51,32,0
150.58252,150.62602,57,27,0
150.58252,150.62602,60,33,0
150.62602,150.66953,51,33,0
150.66953,150.71303,57,27,0
150.66953,150.71303,60,33,0
150.71303,150.75653,51,34,0
150.75653,150.80003,57,28,0
150.75653,150.80003,60,34,0
150.80003,150.84354,51,34,0
150.84354,150.88698,57,29,0
150.84354,150.88698,60,35,0
150.88698,150.92998,51,35,0
150.92998,150.97299,57,29,0
150.92998,150.97299,60,35,0
150.97299,151.02534,51,36,0
151.02534,151.07771,57,30,0
151.02534,151.07771,60,36,0
151.07771,151.13008,51,36,0
151.13008,151.1827,57,30,0
151.13008,151.1827,60,36,0
151.1827,151.23506,50,37,0
151.23506,151.28743,55,31,0
151.23506,151.28743,60,37,0
151.28743,151.3398,50,37,0
151.3398,151.39188,55,31,0
151.3398,151.39188,60,37,0
151.39188,151.44353,50,37,0
151.44353,151.49516,55,30,0
151.44353,151.49516,60,36,0
151.49516,151.54645,50,36,0
151.54645,151.59698,55,30,0
151.54645,151.59698,60,36,0
151.59698,151.64752,50,36,0
151.64752,151.69762,55,30,0
151.64752,151.69762,60,36,0
151.69762,151.74748,50,36,0
151.74748,151.79735,55,30,0
151.74748,151.79735,60,36,0
151.79735,151.84656,50,36,0
151.84656,151.89578,55,29,0
151.84656,151.89578,60,35,0
151.89578,151.94478,50,35,0
151.94478,151.99335,55,29,0
151.94478,151.99335,60,35,0
151.99335,152.04193,50,35,0
152.04193,152.09009,55,28,0
152.04193,152.09009,60,34,0
152.09009,152.13805,50,34,0
152.13805,152.18567,55,28,0
152.13805,152.18567,60,34,0
152.18567,152.23302,50,34,0
152.23302,152.28036,55,27,0
152.23302,152.28036,60,33,0
152.28036,152.32721,50,33,0
152.32721,152.37396,55,27,0
152.32721,152.37396,60,33,0
152.37396,152.42061,50,33,0
152.42061,152.4668,55,27,0
152.42061,152.4668,60,32,0
152.4668,152.51297,50,32,0
152.51297,152.55885,55,27,0
152.51297,152.55885,60,32,0
152.55885,152.60448,50,32,0
152.60448,152.6501,55,26,0
152.60448,152.6501,60,31,0
152.6501,152.69524,50,31,0
152.69524,152.74031,55,26,0
152.69524,152.74031,60,31,0
152.74031,152.78499,50,31,0
152.78499,152.82953,55,25,0
152.78499,152.82953,59,30,0
152.82953,152.87407,50,30,0
152.87407,152.91861,55,25,0
152.87407,152.91861,59,30,0
152.91861,152.96313,50,30,0
152.96313,153.00768,55,25,0
152.96313,153.00768,59,29,0
153.00768,153.05222,50,29,0
153.05222,153.09676,55,25,0
153.05222,153.09676,59,29,0
153.09676,153.14128,50,29,0
153.14128,153.18582,55,24,0
153.14128,153.18582,59,28,0
153.18582,153.23149,50,28,0
153.23149,153.27744,55,24,0
153.23149,153.27744,59,28,0
153.27744,153.3234,50,28,0
153.3234,153.36934,59,27,0
153.3234,153.36934,55,27,0
153.36934,153.41484,50,27,0
153.41484,153.46024,55,23,0
153.41484,153.46024,59,27,0
160.95132,161.00378,47,18,0
161.00378,161.0569,50,15,0
161.00378,161.0569,53,18,0
161.0569,161.11,47,18,0
161.11,161.16312,50,16,0
161.11,161.16312,53,19,0
161.16312,161.21613,47,19,0
161.21613,161.2685,50,16,0
161.21613,161.2685,53,19,0
161.2685,161.32086,47,20,0
161.32086,161.3729,50,17,0
161.32086,161.3729,53,20,0
161.3729,161.42453,47,20,0
161.42453,161.47618,50,18,0
161.42453,161.47618,53,21,0
161.47618,161.52783,47,21,0
161.52783,161.57915,50,18,0
161.52783,161.57915,53,21,0
161.57915,161.6301,47,22,0
161.6301,161.68103,50,18,0
161.6301,161.68103,53,22,0
161.68103,161.73143,47,22,0
161.73143,161.7817,50,18,0
161.73143,161.7817,53,22,0
161.7817,161.83186,47,23,0
161.83186,161.88147,50,19,0
161.83186,161.88147,53,23,0
161.88147,161.93106,47,23,0
161.93106,161.98065,50,19,0
161.93106,161.98065,53,24,0
161.98065,162.03017,47,24,0
162.03017,162.07912,50,19,0
162.03017,162.07912,53,24,0
162.07912,162.12807,47,25,0
162.12807,162.17673,50,20,0
162.12807,162.17673,53,25,0
162.17673,162.22504,47,25,0
162.22504,162.27336,50,21,0
162.22504,162.27336,53,26,0
162.27336,162.32167,47,26,0
162.32167,162.3697,50,21,0
162.32167,162.3697,53,26,0
162.3697,162.4174,47,27,0
162.4174,162.46512,50,22,0
162.4174,162.46512,53,27,0
162.46512,162.51234,47,27,0
162.51234,162.55945,50,22,0
162.51234,162.55945,53,27,0
162.55945,162.60648,52,27,0
162.60648,162.65298,56,23,0
162.60648,162.65298,59,27,0
162.65298,162.69951,52,27,0
162.69951,162.74603,56,24,0
162.69951,162.74603,59,28,0
162.74603,162.79256,52,28,0
162.79256,162.83907,56,24,0
162.79256,162.83907,59,28,0
162.83907,162.88559,52,29,0
162.88559,162.93211,56,25,0
162.88559,162.93211,59,29,0
162.93211,162.97864,52,29,0
162.97864,163.02515,56,25,0
162.97864,163.02515,59,30,0
163.02515,163.07121,52,30,0
163.07121,163.11717,56,25,0
163.07121,163.11717,59,30,0
163.11717,163.16312,52,31,0
163.16312,163.20908,56,26,0
163.16312,163.20908,59,31,0
163.20908,163.25502,52,31,0
163.25502,163.30096,56,27,0
163.25502,163.30096,59,32,0
163.30096,163.34685,52,32,0
163.34685,163.39224,56,27,0
163.34685,163.39224,59,32,0
163.39224,163.43764,52,32,0
163.43764,163.48303,56,27,0
163.43764,163.48303,59,33,0
163.48303,163.52843,52,33,0
163.52843,163.57382,56,27,0
163.52843,163.57382,59,33,0
163.57382,163.61922,52,34,0
163.61922,163.66435,56,28,0
163.61922,163.66435,59,34,0
163.66435,163.7092,52,34,0
163.7092,163.75406,56,29,0
163.7092,163.75406,59,35,0
163.75406,163.7989,52,35,0
163.7989,163.84375,56,29,0
163.7989,163.84375,59,35,0
163.84375,163.89612,52,36,0
163.89612,163.94849,56,30,0
163.89612,163.94849,59,36,0
163.94849,164.00085,52,36,0
164.00085,164.0542,56,30,0
164.00085,164.0542,59,36,0
164.0542,164.10966,48,37,0
164.10966,164.16513,52,37,0
164.16513,164.2206,48,37,0
164.2206,164.27562,52,37,0
164.27562,164.33028,48,37,0
164.33028,164.38493,52,36,0
164.38493,164.43959,48,36,0
164.43959,164.49362,52,36,0
164.49362,164.5475,48,36,0
164.5475,164.60136,52,36,0
164.60136,164.65518,48,36,0
164.65518,164.7083,52,36,0
164.7083,164.76141,48,36,0
164.76141,164.81451,52,35,0
164.81451,164.86737,48,35,0
164.86737,164.91974,52,35,0
164.91974,164.9721,48,35,0
164.9721,165.02438,52,34,0
165.02438,165.07603,48,34,0
165.07603,165.12767,52,34,0
165.12767,165.17932,48,34,0
165.17932,165.23068,52,33,0
165.23068,165.28163,48,33,0
165.28163,165.33257,52,33,0
165.33257,165.38351,48,33,0
165.38351,165.434,52,32,0
165.434,165.48427,48,32,0
165.48427,165.53453,52,32,0
165.53453,165.5848,48,32,0
165.5848,165.63443,52,31,0
165.63443,165.68402,48,31,0
165.68402,165.73416,52,31,0
165.73416,165.78442,48,31,0
165.78442,165.83467,52,30,0
165.83467,165.8849,48,30,0
165.8849,165.9345,52,30,0
165.9345,165.98409,48,30,0
165.98409,166.03369,52,29,0
166.03369,166.08307,48,29,0
166.08307,166.13202,52,29,0
166.13202,166.18097,48,29,0
166.18097,166.22992,52,28,0
166.22992,166.27849,48,28,0
166.27849,166.3268,52,28,0
166.3268,166.37512,48,28,0
166.37512,166.42319,52,27,0
166.42319,166.46906,48,27,0
166.46906,166.51445,52,27,0
166.51445,166.56009,48,31,0
166.56009,166.60968,52,30,0
166.60968,166.65927,48,30,0
166.65927,166.70888,52,30,0
166.70888,166.75847,48,30,0
166.75847,166.80806,52,29,0
166.80806,166.85767,48,29,0
166.85767,166.9074,52,29,0
166.9074,166.95766,48,29,0
166.95766,167.00792,52,28,0
167.00792,167.05818,48,28,0
167.05818,167.10844,52,28,0
167.10844,167.15869,48,28,0
167.15869,167.20895,52,27,0
167.20895,167.25948,48,27,0
167.25948,167.3104,52,27,0
923.31836,923.36707,99,66,0
923.36707,923.416,101,58,0
923.416,923.4651,99,66,0
923.4651,923.5141,101,58,0
923.5141,923.56384,99,66,0
923.56384,923.6135,101,57,0
923.6135,923.6623,99,66,0
923.6623,923.71185,101,58,0
923.71185,923.76135,99,66,0
923.76135,923.80994,101,58,0
923.80994,923.859,99,66,0
923.859,923.90894,101,58,0
923.90894,923.95984,99,66,0
923.95984,924.01105,101,58,0
924.01105,924.0617,99,66,0
924.0617,924.1113,101,58,0
924.1113,924.1622,99,66,0
924.1622,924.2132,101,59,0
924.2132,924.263,99,66,0
924.263,924.3135,101,59,0
924.3135,924.3642,99,66,0
924.3642,924.414,101,59,0
924.414,924.4652,99,66,0
924.4652,924.5159,101,59,0
924.5159,924.5678,99,66,0
924.5678,924.6201,101,58,0
924.6201,924.6725,99,66,0
924.6725,924.7235,101,59,0
924.7235,924.77374,99,66,0
924.77374,924.82526,101,59,0
924.82526,924.8771,99,66,0
924.8771,924.9279,101,59,0
924.9279,924.9792,99,66,0
924.9792,925.03094,101,59,0
925.03094,925.082,99,66,0
925.082,925.1309,101,59,0
925.1309,925.18115,99,65,0
925.18115,925.2343,101,68,0
925.2343,925.2906,99,70,0
925.2906,925.3506,101,73,0
925.3506,925.4111,99,75,0
925.4111,925.47095,101,78,0
925.47095,925.53503,99,76,0
925.53503,925.5991,101,75,0
925.5991,925.6632,99,79,0
925.6632,925.7594,98,76,0
925.7594,925.8557,99,76,0
993.6659,993.8705,58,80,0
993.8932,994.06964,58,67,0
994.0893,994.26575,58,67,0
994.28534,994.4618,58,74,0
994.48145,994.6579,58,70,0
994.6775,994.854,58,70,0
994.8736,995.05005,58,75,0
995.06964,995.24615,58,70,0
995.26575,995.48,58,70,0
995.5038,995.682,58,74,0
995.70184,995.88007,58,70,0
995.89984,996.14935,58,70,0
996.1802,996.36383,58,74,0
996.3842,996.56793,58,67,0
996.5883,996.772,58,67,0
996.7924,996.9761,58,74,0
996.99646,997.1802,58,70,0
997.20056,997.3842,58,70,0
997.40466,997.5883,58,75,0
997.6087,997.7924,58,70,0
997.8128,997.99646,58,70,0
998.0169,998.20056,58,74,0
998.22095,998.40466,58,70,0
998.42505,998.6674,58,70,0
998.69446,998.88,58,74,0
998.90063,999.0862,58,67,0
999.1068,999.29236,58,67,0
999.313,999.49854,58,74,0
999.51917,999.7048,58,70,0
999.72534,999.91095,58,70,0
999.9316,1000.1171,58,75,0
1000.13776,1000.3233,58,70,0
1000.34393,1000.5295,58,70,0
1000.5501,1000.73566,58,74,0
1000.7563,1000.9419,58,70,0
1000.96246,1001.20245,58,70,0
1001.2291,1001.4166,58,74,0
1001.43744,1001.62494,58,67,0
1001.64575,1001.83325,58,67,0
1001.8541,1002.0416,58,74,0
1002.06244,1002.24994,58,70,0
1002.27075,1002.45825,58,70,0
1002.4791,1002.67694,58,75,0
1002.6989,1002.89667,58,70,0
1002.9187,1003.11646,58,70,0
1003.1384,1003.3527,58,74,0
1003.3765,1003.59076,58,70,0
1003.61456,1003.8642,58,70,0
993.6659,993.8705,46,79,0
993.8932,994.06964,46,66,0
994.0893,994.26575,46,64,0
994.28534,994.4618,46,70,0
994.48145,994.6579,46,66,0
994.6775,994.854,46,66,0
994.8736,995.05005,46,71,0
995.06964,995.24615,46,66,0
995.26575,995.48,46,66,0
995.5038,995.682,46,71,0
995.70184,995.88007,46,67,0
995.89984,996.14935,46,67,0
996.1802,996.36383,46,71,0
996.3842,996.56793,46,66,0
996.5883,996.772,46,64,0
996.7924,996.9761,46,70,0
996.99646,997.1802,46,66,0
997.20056,997.3842,46,66,0
997.40466,997.5883,46,71,0
997.6087,997.7924,46,66,0
997.8128,997.99646,46,66,0
998.0169,998.20056,46,71,0
998.22095,998.40466,46,67,0
998.42505,998.6674,46,67,0
998.69446,998.88,46,71,0
998.90063,999.0862,46,66,0
999.1068,999.29236,46,64,0
999.313,999.49854,46,70,0
999.51917,999.7048,46,66,0
999.72534,999.91095,46,66,0
999.9316,1000.1171,46,71,0
1000.13776,1000.3233,46,66,0
1000.34393,1000.5295,46,66,0
1000.5501,1000.73566,46,71,0
1000.7563,1000.9419,46,67,0
1000.96246,1001.20245,46,67,0
1001.2291,1001.4166,46,71,0
1001.43744,1001.62494,46,66,0
1001.64575,1001.83325,46,64,0
1001.8541,1002.0416,46,70,0
1002.06244,1002.24994,46,66,0
1002.27075,1002.45825,46,66,0
1002.4791,1002.67694,46,71,0
1002.6989,1002.89667,46,66,0
1002.9187,1003.11646,46,66,0
1003.1384,1003.3527,46,71,0
1003.3765,1003.59076,46,67,0
1003.61456,1003.8642,46,67,0
