start_time,end_time,note_value,velocity,instrument_program_number
0.0009363292,0.45033085,58,41,0
0.449438,0.5208665,57,29,0
0.5208665,0.592295,58,31,0
0.592295,0.6637235,61,33,0
0.6637235,0.7773597,65,37,0
1.1182685,1.189697,57,29,0
1.189697,1.2611254,58,31,0
1.2611254,1.332554,61,32,0
1.332554,1.445336,65,37,0
2.685938,2.779688,58,100,0
3.248438,4.373438,94,92,0
3.248438,4.373438,82,78,0
3.248438,4.373438,90,92,0
4.373438,4.654688,87,61,0
4.373438,4.654688,84,61,0
4.373438,4.654688,75,51,0
4.654688,4.748438,89,68,0
4.654688,4.748438,77,57,0
4.654688,4.748438,84,68,0
4.748438,4.9525194,84,71,0
4.748438,4.9525194,78,60,0
4.748438,4.9525194,90,71,0
4.9525194,5.156601,89,68,0
4.9525194,5.156601,77,57,0
4.9525194,5.156601,85,68,0
5.3606825,5.4287095,57,27,0
5.4287095,5.496737,58,29,0
5.496737,5.564764,61,30,0
5.564764,5.666805,65,35,0
5.972927,6.040954,57,27,0
6.040954,6.108981,58,29,0
6.108981,6.1770086,61,30,0
6.1770086,6.271348,65,35,0
7.3090825,7.396039,56,100,0
7.8308215,8.874299,80,76,0
7.8308215,8.874299,89,90,0
7.8308215,8.874299,92,90,0
8.874299,9.135169,87,60,0
8.874299,9.135169,75,51,0
8.874299,9.135169,84,60,0
9.135169,9.225803,77,55,0
9.135169,9.225803,89,65,0
9.135169,9.225803,84,65,0
9.225803,9.419352,78,59,0
9.225803,9.419352,90,70,0
9.225803,9.419352,84,70,0
9.419352,9.593265,89,67,0
9.419352,9.593265,85,67,0
9.419352,9.593265,77,56,0
9.941091,10.288917,69,81,0
9.941091,10.288917,77,81,0
10.46283,10.841379,65,81,0
10.46283,10.841379,57,81,0
14.404974,14.47394,57,27,0
14.47394,14.542905,58,29,0
14.542905,14.611871,61,30,0
14.611871,14.715319,65,34,0
15.025663,15.094629,57,29,0
15.094629,15.163594,58,30,0
15.163594,15.23256,61,31,0
15.23256,15.336008,65,36,0
16.47394,16.56769,58,100,0
17.03644,17.88019,82,78,0
17.03644,17.88019,94,92,0
17.03644,17.88019,90,92,0
17.88019,17.97394,75,49,0
17.88019,17.97394,84,58,0
17.88019,17.97394,87,58,0
17.97394,18.16144,87,58,0
17.97394,18.16144,75,49,0
17.97394,18.16144,84,58,0
18.16144,18.44269,87,61,0
18.16144,18.44269,84,61,0
18.16144,18.44269,75,51,0
18.44269,18.53644,77,57,0
18.44269,18.53644,84,68,0
18.44269,18.53644,89,68,0
18.53644,18.74052,78,60,0
18.53644,18.74052,90,71,0
18.53644,18.74052,84,71,0
18.74052,18.944601,77,57,0
18.74052,18.944601,89,68,0
18.74052,18.944601,85,68,0
19.148684,19.216711,57,29,0
19.216711,19.284739,58,30,0
19.284739,19.352764,61,32,0
19.352764,19.454805,65,37,0
19.760927,19.828955,57,29,0
19.828955,19.896982,58,30,0
19.896982,19.96501,61,32,0
19.96501,20.05935,65,37,0
21.03244,21.116005,48,100,0
21.533833,22.53662,96,90,0
21.533833,22.53662,92,90,0
21.533833,22.53662,84,64,0
22.53662,22.787315,91,60,0
22.53662,22.787315,79,43,0
22.53662,22.787315,88,60,0
22.787315,22.877949,92,65,0
22.787315,22.877949,88,65,0
22.787315,22.877949,80,46,0
22.877949,23.071499,94,70,0
22.877949,23.071499,82,50,0
22.877949,23.071499,88,70,0
23.071499,23.24541,89,67,0
23.071499,23.24541,92,67,0
23.071499,23.24541,80,47,0
23.593237,23.955774,77,81,0
23.593237,23.955774,80,81,0
23.593237,23.955774,72,68,0
23.593237,23.955774,68,68,0
24.137045,24.55958,65,81,0
24.137045,24.55958,68,81,0
24.137045,24.55958,56,68,0
24.137045,24.55958,60,68,0
27.731375,28.688831,101,97,0
28.688831,28.777327,99,68,0
28.777327,28.865822,97,62,0
28.865822,28.954317,92,65,0
28.954317,29.042812,89,59,0
29.042812,29.131308,87,62,0
29.131308,29.219805,85,57,0
29.219805,29.3083,80,58,0
29.3083,29.396795,77,53,0
29.396795,29.48529,75,55,0
29.48529,29.573786,73,51,0
29.573786,29.750776,68,52,0
30.10476,30.193604,72,55,0
30.193604,30.282803,73,52,0
30.282803,30.372444,75,50,0
30.372444,30.462442,77,47,0
30.462442,30.552896,78,45,0
30.54761,30.638422,80,42,0
30.643742,30.752832,81,40,0
31.25666,31.346931,81,50,0
31.346931,31.436842,80,49,0
31.436842,31.526304,79,47,0
31.526304,31.615414,78,46,0
31.615414,31.704084,77,44,0
31.704084,31.79238,76,42,0
31.79238,31.899906,75,41,0
32.402172,33.274353,101,97,0
33.274353,33.361057,99,68,0
33.361057,33.44776,97,60,0
33.44776,33.534466,92,65,0
33.534466,33.621174,89,58,0
33.621174,33.70788,87,62,0
33.70788,33.794582,85,57,0
33.794582,33.88129,80,58,0
33.88129,33.967995,77,53,0
33.967995,34.0547,75,55,0
34.0547,34.141403,73,49,0
34.141403,34.314316,68,52,0
34.660137,34.748413,72,42,0
34.748413,34.83698,73,41,0
34.83698,34.92585,75,41,0
34.92585,35.01503,77,40,0
35.01503,35.104523,78,39,0
35.099297,35.189095,80,38,0
35.19435,35.284172,81,37,0
35.733273,35.821507,81,42,0
35.821507,35.909744,80,41,0
35.909744,35.99798,79,40,0
35.99798,36.086212,78,39,0
36.086212,36.17445,77,37,0
36.17445,36.262684,76,36,0
36.262684,36.356705,75,35,0
36.86897,37.7992,77,59,0
37.7992,38.153194,75,53,0
38.153194,38.270718,73,52,0
36.86897,38.2814,71,38,0
38.2814,38.97638,73,54,0
38.2814,38.97638,71,38,0
38.97638,39.62287,70,56,0
38.97638,40.045406,78,56,0
40.045406,40.25526,77,52,0
40.264385,40.479546,77,51,0
40.479546,40.69698,75,50,0
40.69698,40.94646,73,49,0
39.62287,40.94646,71,50,0
40.94646,41.590088,82,56,0
40.94646,41.590088,73,44,0
40.94646,41.590088,70,44,0
41.590088,42.079777,82,62,0
42.079777,42.339912,82,64,0
41.590088,42.350048,68,44,0
41.590088,42.350048,73,44,0
42.28248,42.350048,67,44,0
42.350048,42.828136,82,68,0
42.828136,43.093254,75,57,0
43.093254,43.329475,75,57,0
43.329475,43.38853,77,51,0
43.38853,43.447586,79,51,0
43.447586,43.705097,77,56,0
43.705097,43.836678,75,56,0
42.350048,43.848637,73,45,0
43.848637,44.49612,75,59,0
43.848637,44.49612,73,49,0
44.49612,45.10423,72,53,0
44.49612,45.30693,80,64,0
45.30693,45.509632,79,60,0
45.509632,45.71942,77,59,0
45.71942,45.92921,79,60,0
45.92921,46.349365,77,59,0
46.349365,46.514202,75,56,0
45.10423,46.514202,73,55,0
46.514202,47.162914,84,56,0
47.162914,47.723663,84,64,0
47.723663,48.01853,84,63,0
46.514202,48.031353,72,56,0
48.031353,49.035538,84,68,0
49.035538,49.38987,82,63,0
49.38987,49.49789,80,63,0
49.50651,50.11468,80,63,0
50.11468,50.70874,85,75,0
50.70874,51.104782,85,82,0
51.104782,51.302803,84,78,0
51.302803,51.511135,84,75,0
51.511135,51.871952,82,71,0
51.871952,51.997475,80,63,0
51.997475,52.750614,89,80,0
52.750614,53.333138,89,77,0
53.333138,53.6754,89,81,0
53.69028,54.470978,89,85,0
54.470978,54.734135,87,72,0
54.734135,54.997295,85,71,0
54.997295,55.260452,82,70,0
55.260452,56.049927,84,75,0
56.049927,56.313084,82,71,0
56.313084,56.57624,80,68,0
56.57624,56.8394,77,63,0
56.8394,57.10256,82,69,0
57.10256,57.365715,80,64,0
57.365715,57.628876,78,61,0
57.628876,57.69737,78,55,0
57.69737,57.76586,80,55,0
57.76586,57.902847,78,63,0
57.902847,58.37481,77,58,0
58.37481,58.53106,76,59,0
58.54526,59.41321,76,59,0
59.41321,59.966206,77,63,0
59.966206,60.224827,80,57,0
60.224827,60.74207,68,57,0
60.289482,61.00069,80,57,0
61.00069,61.30069,84,63,0
60.74207,61.30069,72,63,0
61.30069,61.655018,82,63,0
61.30069,61.655018,70,63,0
61.655018,61.763042,80,63,0
61.655018,61.763042,68,63,0
61.771664,62.379833,68,63,0
62.379833,62.973892,85,75,0
62.379833,62.973892,73,75,0
61.771664,62.973892,80,63,0
62.973892,63.369934,85,75,0
62.973892,63.369934,73,75,0
63.369934,63.56795,84,78,0
63.369934,63.56795,72,78,0
63.56795,63.893932,84,75,0
63.56795,63.893932,72,75,0
62.973892,63.893932,80,60,0
63.893932,64.01158,82,71,0
63.893932,64.01158,70,71,0
64.01158,64.25254,80,63,0
64.01158,64.25254,68,63,0
64.25254,64.97543,89,80,0
64.25254,64.97543,77,68,0
64.25254,64.97543,80,80,0
64.97543,65.501755,89,77,0
64.97543,65.501755,80,77,0
64.97543,65.501755,77,65,0
65.501755,65.78925,89,74,0
65.501755,65.78925,80,74,0
65.501755,65.78925,77,62,0
65.80175,66.58245,89,82,0
65.80175,66.58245,80,82,0
65.80175,66.58245,77,69,0
66.58245,66.84561,87,67,0
66.58245,66.84561,75,56,0
66.58245,66.84561,78,67,0
66.84561,67.25242,85,65,0
66.84561,67.25242,78,65,0
66.84561,67.25242,73,55,0
67.25242,67.399475,82,64,0
67.25242,67.399475,78,64,0
67.25242,67.399475,70,54,0
67.399475,68.18895,84,62,0
67.399475,68.18895,80,62,0
67.399475,68.18895,72,52,0
68.18895,68.405556,82,64,0
68.18895,68.405556,78,64,0
68.18895,68.405556,70,54,0
68.405556,68.62216,80,68,0
68.405556,68.62216,77,68,0
68.405556,68.62216,68,57,0
68.62216,68.85746,82,72,0
68.62216,68.85746,77,72,0
68.62216,68.85746,70,61,0
68.85746,69.32804,83,77,0
68.85746,69.32804,71,65,0
68.85746,69.32804,77,77,0
69.32804,69.56334,82,75,0
69.32804,69.56334,70,63,0
69.32804,69.56334,77,75,0
69.56334,70.73981,83,78,0
69.56334,70.73981,77,78,0
69.56334,70.73981,71,66,0
70.73981,70.94887,82,76,0
70.73981,70.94887,77,76,0
70.73981,70.94887,70,64,0
70.94887,71.15505,83,81,0
70.94887,71.15505,77,81,0
70.94887,71.15505,71,68,0
71.15505,71.36124,82,78,0
71.15505,71.36124,77,78,0
71.15505,71.36124,70,66,0
71.36124,71.56742,83,78,0
71.36124,71.56742,77,78,0
71.36124,71.56742,71,66,0
71.56742,71.9798,83,81,0
71.56742,71.9798,78,81,0
71.56742,71.9798,71,68,0
71.9798,72.18598,82,82,0
71.9798,72.18598,78,82,0
71.9798,72.18598,70,69,0
72.18598,73.113815,82,81,0
72.18598,73.113815,90,96,0
72.18598,73.113815,94,96,0
73.113815,73.20831,72,68,0
73.113815,73.20831,78,80,0
73.113815,73.20831,84,80,0
73.21691,73.414505,84,80,0
73.21691,73.414505,78,80,0
73.21691,73.414505,72,68,0
73.423096,73.73237,84,93,0
73.423096,73.73237,78,93,0
73.423096,73.73237,72,79,0
73.73237,73.835464,77,75,0
73.73237,73.835464,80,89,0
73.73237,73.835464,89,89,0
73.835464,74.04165,75,78,0
73.835464,74.04165,78,92,0
73.835464,74.04165,87,92,0
74.04165,74.144745,73,88,0
74.04165,74.144745,77,104,0
74.04165,74.144745,85,104,0
74.66021,74.75667,65,97,0
74.75667,74.853134,73,75,0
74.853134,74.94959,80,79,0
74.94959,75.04606,77,83,0
75.04606,75.142525,85,87,0
75.142525,75.23898,94,91,0
75.23898,75.43191,92,96,0
75.23898,75.43191,84,86,0
75.817764,75.91007,66,97,0
75.91007,76.00238,72,75,0
76.00238,76.09469,80,80,0
76.09469,76.187,78,84,0
76.187,76.279305,84,88,0
76.279305,76.37161,92,93,0
76.37161,76.55622,89,97,0
76.37161,76.55622,85,87,0
76.92545,77.020096,65,97,0
77.020096,77.11473,73,75,0
77.11473,77.209366,80,79,0
77.209366,77.304,77,83,0
77.304,77.39864,85,87,0
77.39864,77.49328,94,91,0
77.49328,77.682556,92,96,0
77.49328,77.682556,84,86,0
78.061104,78.152565,66,97,0
78.152565,78.244026,72,75,0
78.244026,78.335495,80,80,0
78.335495,78.426956,78,84,0
78.426956,78.51842,84,88,0
78.51842,78.609886,92,93,0
78.609886,78.77655,89,97,0
78.609886,78.77655,85,87,0
79.109886,79.193375,65,97,0
79.193375,79.27649,73,75,0
79.27649,79.35922,80,78,0
79.35922,79.44157,77,75,0
79.44157,79.52355,85,79,0
79.52355,79.60516,92,75,0
79.60516,79.68646,85,78,0
79.68646,79.76776,77,75,0
79.76776,79.84906,80,80,0
79.84906,79.93037,73,75,0
79.93037,80.011665,65,79,0
80.011665,80.092964,68,75,0
80.092964,80.17426,61,78,0
80.17426,80.25557,53,77,0
80.25557,80.33687,56,82,0
80.33687,80.41817,49,79,0
80.41817,80.499466,41,87,0
80.499466,80.58077,49,85,0
81.165184,81.749596,85,85,0
81.165184,81.749596,97,101,0
83.36619,83.44082,57,29,0
83.44082,83.51544,58,31,0
83.51544,83.59007,61,33,0
83.59007,83.70201,65,38,0
84.037834,84.11246,57,29,0
84.11246,84.18709,58,31,0
84.18709,84.26171,61,32,0
84.26171,84.37365,65,38,0
85.604996,85.698746,58,100,0
86.167496,87.292496,82,78,0
86.167496,87.292496,90,92,0
86.167496,87.292496,94,92,0
87.292496,87.579666,87,61,0
87.292496,87.579666,84,61,0
87.292496,87.579666,75,51,0
87.579666,87.67933,89,68,0
87.579666,87.67933,84,68,0
87.579666,87.67933,77,57,0
87.67933,87.921265,90,71,0
87.67933,87.921265,84,71,0
87.67933,87.921265,78,60,0
87.921265,88.12535,89,68,0
87.921265,88.12535,85,68,0
87.921265,88.12535,77,57,0
88.32943,88.39745,57,27,0
88.39745,88.465485,58,29,0
88.465485,88.53351,61,30,0
88.53351,88.63555,65,35,0
88.94167,89.009705,57,27,0
89.009705,89.07773,58,29,0
89.07773,89.14575,61,30,0
89.14575,89.2401,65,35,0
90.27783,90.364784,56,100,0
90.79957,91.84305,80,76,0
90.79957,91.84305,89,90,0
90.79957,91.84305,92,90,0
91.84305,91.97638,87,60,0
91.84305,91.97638,84,60,0
91.84305,91.97638,75,51,0
91.97638,92.10971,88,60,0
91.97638,92.10971,76,51,0
91.97638,92.10971,84,60,0
92.10971,92.24304,89,65,0
92.10971,92.24304,84,65,0
92.10971,92.24304,77,55,0
92.24304,92.36644,92,72,0
92.24304,92.36644,84,72,0
92.24304,92.36644,80,61,0
92.36644,92.484856,78,70,0
92.36644,92.484856,84,70,0
92.36644,92.484856,90,70,0
92.484856,92.658775,89,67,0
92.484856,92.658775,85,67,0
92.484856,92.658775,77,56,0
93.0066,93.35442,77,81,0
93.0066,93.35442,69,81,0
93.528336,93.90688,65,81,0
93.528336,93.90688,57,81,0
97.47048,97.539444,57,27,0
97.539444,97.60841,58,29,0
97.60841,97.677376,61,30,0
97.677376,97.78082,65,35,0
98.09117,98.16013,57,29,0
98.16013,98.2291,58,30,0
98.2291,98.298065,61,31,0
98.298065,98.40151,65,35,0
99.539444,99.633194,58,100,0
100.101944,100.945694,94,92,0
100.101944,100.945694,90,92,0
100.101944,100.945694,82,78,0
100.945694,101.039444,75,49,0
100.945694,101.039444,84,58,0
100.945694,101.039444,87,58,0
101.039444,101.226944,75,49,0
101.039444,101.226944,84,58,0
101.039444,101.226944,87,58,0
101.226944,101.508194,87,61,0
101.226944,101.508194,84,61,0
101.226944,101.508194,75,51,0
101.508194,101.601944,77,57,0
101.508194,101.601944,89,68,0
101.508194,101.601944,84,68,0
101.601944,101.83541,90,71,0
101.601944,101.83541,78,60,0
101.601944,101.83541,84,71,0
101.83541,102.03949,89,68,0
101.83541,102.03949,77,57,0
101.83541,102.03949,85,68,0
102.24357,102.3116,57,29,0
102.3116,102.37962,58,30,0
102.37962,102.447655,61,32,0
102.447655,102.54969,65,37,0
102.85582,102.92384,57,29,0
102.92384,102.99187,58,30,0
102.99187,103.0599,61,32,0
103.0599,103.154236,65,37,0
104.12733,104.21089,48,100,0
104.62872,105.63151,96,90,0
104.62872,105.63151,92,90,0
104.62872,105.63151,84,76,0
105.63151,105.81593,85,62,0
105.63151,105.81593,97,73,0
105.63151,105.81593,91,73,0
105.81593,106.00036,96,71,0
105.81593,106.00036,91,71,0
105.81593,106.00036,84,60,0
106.00036,106.15036,84,67,0
106.00036,106.15036,77,56,0
106.00036,106.15036,89,67,0
106.15036,106.30036,79,57,0
106.15036,106.30036,84,68,0
106.15036,106.30036,91,68,0
106.30036,106.47427,80,62,0
106.30036,106.47427,84,73,0
106.30036,106.47427,92,73,0
106.8221,107.18464,77,81,0
106.8221,107.18464,72,81,0
106.8221,107.18464,80,81,0
106.8221,107.18464,68,68,0
107.365906,107.78844,65,81,0
107.365906,107.78844,60,81,0
107.365906,107.78844,68,81,0
107.365906,107.78844,56,68,0
109.18392,109.93706,41,94,0
109.93706,110.03766,38,50,0
110.026596,110.12492,39,51,0
110.11413,110.210175,41,51,0
110.19967,110.29356,39,52,0
110.283226,110.37513,41,53,0
110.36503,110.45569,39,55,0
110.44557,110.53703,41,56,0
110.52683,110.6189,39,56,0
110.60863,110.701546,41,57,0
110.69117,110.76379,39,58,0
110.75341,110.82603,41,59,0
110.81565,110.88827,39,60,0
110.87789,110.94013,41,61,0
110.94013,111.00352,39,62,0
111.00352,111.06931,41,62,0
111.06931,111.137505,39,62,0
111.137505,111.20849,41,63,0
111.20849,111.33253,39,64,0
111.30777,111.53054,38,73,0
111.50579,111.71436,39,73,0
111.70381,112.66127,101,97,0
112.66127,112.74976,99,68,0
112.74976,112.83826,97,61,0
112.83826,112.92676,92,65,0
112.92676,113.01525,89,59,0
113.01525,113.103745,87,62,0
113.103745,113.19224,85,56,0
113.19224,113.28074,80,58,0
113.28074,113.36923,77,53,0
113.36923,113.457726,75,55,0
113.457726,113.54623,73,50,0
113.54623,113.72321,68,52,0
114.077194,114.16604,72,55,0
114.16604,114.25524,73,52,0
114.25524,114.34488,75,50,0
114.34488,114.43488,77,47,0
114.43488,114.52533,78,45,0
114.52004,114.61086,80,42,0
114.61618,114.725266,81,40,0
115.229095,115.31937,81,50,0
115.31937,115.40928,80,49,0
115.40928,115.49874,79,47,0
115.49874,115.58785,78,46,0
115.58785,115.67652,77,44,0
115.67652,115.76482,76,42,0
115.76482,115.872345,75,41,0
116.37461,117.24679,101,97,0
117.24679,117.333496,99,68,0
117.333496,117.4202,97,61,0
117.4202,117.506905,92,65,0
117.506905,117.59361,89,59,0
117.59361,117.68031,87,62,0
117.68031,117.76702,85,57,0
117.76702,117.85373,80,58,0
117.85373,117.94043,77,53,0
117.94043,118.02714,75,55,0
118.02714,118.11384,73,51,0
118.11384,118.28675,68,52,0
118.632576,118.72085,72,42,0
118.72085,118.80942,73,41,0
118.80942,118.89829,75,41,0
118.89829,118.987465,77,40,0
118.987465,119.07696,78,39,0
119.07173,119.16153,80,38,0
119.16679,119.25661,81,37,0
119.70571,119.793945,81,42,0
119.793945,119.88218,80,41,0
119.88218,119.97041,79,40,0
119.97041,120.05865,78,39,0
120.05865,120.14689,77,37,0
120.14689,120.23512,76,36,0
120.23512,120.425735,75,35,0
120.84141,121.77164,77,59,0
121.77164,122.12563,75,53,0
122.12563,122.24316,73,52,0
120.84141,122.25384,71,40,0
122.25384,122.948814,73,58,0
122.25384,122.948814,71,43,0
122.948814,123.59531,70,56,0
122.948814,124.017845,78,56,0
124.017845,124.236824,77,52,0
124.236824,124.45198,77,51,0
124.45198,124.66942,75,50,0
124.66942,124.909744,73,49,0
123.59531,124.9189,71,50,0
124.9189,125.56252,82,56,0
124.9189,125.56252,73,44,0
124.9189,125.56252,70,44,0
125.56252,126.052216,82,62,0
126.25492,126.32249,67,44,0
125.56252,126.32249,68,44,0
125.56252,126.32249,73,44,0
126.052216,126.32249,82,64,0
126.32249,126.800575,82,68,0
126.800575,127.06569,75,57,0
127.06569,127.30191,75,57,0
127.30191,127.36097,77,51,0
127.36097,127.42002,79,51,0
127.42002,127.677536,77,56,0
127.677536,127.80911,75,56,0
126.32249,127.821075,73,45,0
127.821075,128.46855,75,59,0
127.821075,128.46855,73,49,0
128.46855,129.07666,72,53,0
128.46855,129.27937,80,64,0
129.27937,129.48207,79,60,0
129.48207,129.69186,77,59,0
129.69186,129.90166,79,60,0
129.90166,130.32181,77,59,0
130.32181,130.48663,75,56,0
129.07666,130.48663,73,55,0
130.48663,131.13535,84,56,0
131.13535,131.6961,84,64,0
131.6961,131.99097,84,63,0
130.48663,132.00378,72,56,0
132.00378,133.00798,84,68,0
133.00798,133.3623,82,63,0
133.3623,133.47034,80,63,0
133.47894,134.08711,80,63,0
134.08711,134.68118,85,75,0
134.68118,135.07722,85,82,0
135.07722,135.26698,84,78,0
135.27524,135.48357,84,75,0
135.48357,135.84439,82,71,0
135.84439,135.96991,80,63,0
135.96991,136.72305,89,80,0
136.72305,137.30557,89,77,0
137.30557,137.64784,89,81,0
137.66272,138.44342,89,85,0
138.44342,138.70657,87,72,0
138.70657,138.96973,85,71,0
138.96973,139.2329,82,70,0
139.2329,140.02237,84,75,0
140.02237,140.28552,82,71,0
140.28552,140.54868,80,68,0
140.54868,140.81184,77,63,0
140.81184,141.075,82,69,0
141.075,141.33815,80,64,0
141.33815,141.59035,78,61,0
141.60132,141.6698,78,55,0
141.6698,141.7383,80,55,0
141.7383,141.87529,78,63,0
141.87529,142.34724,77,58,0
142.34724,142.5035,76,59,0
142.5177,143.38565,76,59,0
143.38565,143.93864,77,63,0
143.93864,144.19727,80,57,0
144.19727,144.7036,68,57,0
144.26056,144.95676,80,57,0
144.95676,145.25676,84,63,0
144.7036,145.25676,72,63,0
145.25676,145.61108,82,63,0
145.25676,145.61108,70,63,0
145.61108,145.71912,80,63,0
145.61108,145.71912,68,63,0
145.72774,146.3359,68,63,0
146.3359,146.92996,85,75,0
146.3359,146.92996,73,75,0
145.72774,146.92996,80,63,0
146.92996,147.22699,85,75,0
146.92996,147.22699,73,75,0
147.22699,147.326,72,71,0
147.22699,147.326,84,71,0
147.326,147.52402,84,70,0
146.92996,147.52402,80,60,0
147.326,147.52402,80,70,0
146.92996,147.52402,78,60,0
147.326,147.52402,78,70,0
147.326,147.52402,72,70,0
147.52402,147.85,84,75,0
147.52402,147.85,80,60,0
147.52402,147.85,78,60,0
147.52402,147.85,72,75,0
147.85,147.96765,82,71,0
147.85,147.96765,70,71,0
147.96765,148.20862,80,63,0
147.96765,148.20862,68,63,0
147.96765,148.20862,78,60,0
148.20862,148.9315,89,80,0
148.20862,148.9315,77,68,0
148.20862,148.9315,80,80,0
148.9315,149.45782,89,77,0
148.9315,149.45782,80,77,0
148.9315,149.45782,77,65,0
149.45782,149.74532,89,78,0
149.45782,149.74532,80,78,0
149.45782,149.74532,77,66,0
149.75783,150.53851,89,82,0
149.75783,150.53851,80,82,0
149.75783,150.53851,77,69,0
150.53851,150.80168,87,67,0
150.53851,150.80168,75,56,0
150.53851,150.80168,78,67,0
150.80168,151.20848,85,65,0
150.80168,151.20848,78,65,0
150.80168,151.20848,73,55,0
151.20848,151.35555,82,64,0
151.20848,151.35555,78,64,0
151.20848,151.35555,70,54,0
151.35555,152.14502,84,62,0
151.35555,152.14502,80,62,0
151.35555,152.14502,72,52,0
152.14502,152.36162,82,64,0
152.14502,152.36162,78,64,0
152.14502,152.36162,70,54,0
152.36162,152.57823,80,68,0
152.36162,152.57823,77,68,0
152.36162,152.57823,68,57,0
152.57823,152.81352,82,72,0
152.57823,152.81352,77,72,0
152.57823,152.81352,70,61,0
152.81352,153.28412,83,77,0
152.81352,153.28412,71,65,0
152.81352,153.28412,77,77,0
153.28412,153.51941,82,75,0
153.28412,153.51941,70,63,0
153.28412,153.51941,77,75,0
153.51941,154.69588,83,78,0
153.51941,154.69588,77,78,0
153.51941,154.69588,71,66,0
154.69588,154.90494,82,76,0
154.69588,154.90494,77,76,0
154.69588,154.90494,70,64,0
154.90494,155.11111,83,81,0
154.90494,155.11111,77,81,0
154.90494,155.11111,71,68,0
155.11111,155.3173,82,78,0
155.11111,155.3173,77,78,0
155.11111,155.3173,70,66,0
155.3173,155.5235,83,78,0
155.3173,155.5235,77,78,0
155.3173,155.5235,71,66,0
155.5235,155.93587,83,81,0
155.5235,155.93587,78,81,0
155.5235,155.93587,71,68,0
155.93587,156.14204,82,82,0
155.93587,156.14204,78,82,0
155.93587,156.14204,70,69,0
156.14204,157.06989,82,80,0
156.14204,157.06989,90,95,0
156.14204,157.06989,94,95,0
157.06989,157.16438,72,68,0
157.06989,157.16438,78,80,0
157.06989,157.16438,84,80,0
157.17297,157.37057,84,80,0
157.17297,157.37057,78,80,0
157.17297,157.37057,72,68,0
157.37917,157.68845,84,93,0
157.37917,157.68845,78,93,0
157.37917,157.68845,72,79,0
157.68845,157.79153,77,75,0
157.68845,157.79153,80,89,0
157.68845,157.79153,89,89,0
157.79153,157.99773,75,78,0
157.79153,157.99773,78,92,0
157.79153,157.99773,87,92,0
157.99773,158.10081,73,85,0
157.99773,158.10081,77,101,0
157.99773,158.10081,85,101,0
158.61627,158.71274,65,97,0
158.71274,158.8092,73,75,0
158.8092,158.90567,80,79,0
158.90567,159.00212,77,83,0
159.00212,159.09859,85,87,0
159.09859,159.19505,94,91,0
159.19505,159.38799,92,96,0
159.19505,159.38799,84,86,0
159.77383,159.86613,66,97,0
159.86613,159.95845,72,75,0
159.95845,160.05075,80,80,0
160.05075,160.14307,78,84,0
160.14307,160.23537,84,88,0
160.23537,160.32768,92,93,0
160.32768,160.5123,89,97,0
160.32768,160.5123,85,87,0
160.88153,160.97617,65,97,0
160.97617,161.0708,73,75,0
161.0708,161.16544,80,79,0
161.16544,161.26007,77,83,0
161.26007,161.3547,85,87,0
161.3547,161.44934,94,91,0
161.44934,161.63863,92,96,0
161.44934,161.63863,84,86,0
162.01717,162.10864,66,97,0
162.10864,162.2001,72,75,0
162.2001,162.29156,80,80,0
162.29156,162.38303,78,84,0
162.38303,162.47449,84,88,0
162.47449,162.56595,92,93,0
162.56595,162.73262,89,97,0
162.56595,162.73262,85,97,0
163.06595,163.14944,65,97,0
163.14944,163.23256,73,75,0
163.23256,163.31529,80,78,0
163.31529,163.39764,77,75,0
163.39764,163.47961,85,79,0
163.47961,163.56123,92,75,0
163.56123,163.64253,85,78,0
163.64253,163.72383,77,75,0
163.72383,163.80513,80,80,0
163.80513,163.88643,73,75,0
163.88643,163.96773,65,79,0
163.96773,164.04903,68,75,0
164.04903,164.13034,61,78,0
164.13034,164.21164,53,77,0
164.21164,164.29294,56,82,0
164.29294,164.37424,49,79,0
164.37424,164.45554,41,87,0
164.45554,164.53683,49,85,0
165.12125,165.70567,85,85,0
165.12125,165.70567,97,101,0
166.8745,168.00658,64,52,0
166.8745,168.00658,61,52,0
166.8745,168.00658,52,44,0
168.00658,169.13866,54,37,0
168.00658,169.516,61,44,0
169.516,169.75697,59,57,0
169.75697,169.99794,61,57,0
169.99794,170.2287,64,60,0
170.2287,170.45947,62,56,0
170.45947,170.68675,61,56,0
168.00658,170.69662,66,44,0
170.69662,171.68564,64,52,0
170.69662,171.68564,61,52,0
170.69662,171.68564,52,44,0
171.68564,172.67465,54,37,0
171.68564,173.00432,61,44,0
173.00432,173.23509,59,57,0
173.23509,173.49371,61,57,0
173.49371,173.73181,64,60,0
173.73181,174.42476,62,56,0
174.42476,174.72046,61,56,0
171.68564,174.74734,66,44,0
174.74734,175.92381,61,44,0
175.92381,177.05588,59,37,0
174.74734,177.05588,56,37,0
177.05588,177.62192,57,32,0
174.74734,177.62192,64,44,0
177.62192,179.9004,61,30,0
179.9004,180.70255,73,53,0
180.70255,180.78276,71,45,0
180.78276,180.86298,73,45,0
180.86298,181.26837,71,50,0
181.26837,181.4035,69,47,0
181.4035,181.67378,71,50,0
181.67378,182.0792,73,53,0
182.0792,182.21432,74,50,0
182.21432,182.34946,73,48,0
182.34946,182.41702,71,43,0
182.41702,182.48459,73,43,0
182.48459,182.94377,71,52,0
182.94377,183.09683,69,48,0
183.09683,183.58464,71,47,0
183.58464,183.82855,73,39,0
183.82855,183.94305,61,29,0
183.94305,184.05756,73,29,0
184.05756,184.17206,68,29,0
184.17206,184.28656,73,29,0
184.28656,184.40106,68,29,0
184.40106,184.51556,80,29,0
184.51556,184.63007,73,29,0
184.63007,184.74457,80,29,0
184.74457,184.85909,73,29,0
184.85909,184.97359,85,29,0
184.97359,185.08809,80,29,0
185.08809,185.20714,85,29,0
185.20714,185.32619,80,29,0
185.32619,185.44913,92,29,0
185.44913,185.57208,85,29,0
185.57208,185.69504,92,29,0
185.69504,185.81798,85,29,0
185.81798,185.95949,97,39,0
186.66704,187.79912,64,52,0
186.66704,187.79912,52,44,0
187.79912,188.9312,54,37,0
186.66704,189.30855,61,52,0
189.30855,189.54951,59,57,0
189.54951,189.79048,61,57,0
189.79048,190.02126,64,60,0
190.02126,190.25201,62,56,0
190.25201,190.48917,61,56,0
187.79912,190.48917,66,44,0
190.48917,191.47818,64,52,0
190.48917,191.47818,52,44,0
190.48917,192.79686,61,52,0
192.79686,193.02763,59,57,0
193.02763,193.28625,61,57,0
193.28625,193.52435,64,60,0
193.52435,194.24356,62,56,0
194.24356,194.34198,61,56,0
194.36166,194.47978,61,50,0
191.47818,194.47978,66,44,0
194.47978,194.83691,69,56,0
194.83691,195.17783,66,53,0
195.17783,195.51874,62,51,0
191.47818,195.51874,54,37,0
195.51874,196.6952,61,44,0
196.6952,197.57756,59,37,0
195.51874,197.57756,56,37,0
197.57756,198.05376,57,32,0
195.51874,198.05376,64,44,0
198.05376,200.33223,61,30,0
201.47148,203.54594,73,42,0
203.54594,203.82372,75,42,0
203.82372,204.04929,78,43,0
204.04929,204.22786,76,41,0
204.22786,204.40643,73,39,0
204.40643,204.64836,69,39,0
204.64836,204.70885,68,35,0
204.76933,204.8903,68,35,0
204.8903,205.57211,80,43,0
205.57211,205.65735,78,37,0
205.65735,205.74257,80,37,0
205.74257,206.1732,78,43,0
206.1732,206.31674,76,39,0
206.31674,206.60382,78,39,0
206.60382,207.03444,80,42,0
207.03444,207.17798,81,40,0
207.17798,207.32152,80,40,0
207.32152,207.3933,78,37,0
207.3933,207.46506,80,37,0
207.46506,208.05995,78,44,0
208.05995,208.28218,76,33,0
208.28218,208.70471,78,31,0
208.70471,210.29295,80,31,0
210.29295,210.42339,68,25,0
210.42339,210.55382,80,25,0
210.55382,210.68425,75,25,0
210.68425,210.81468,80,25,0
210.81468,210.94511,75,25,0
210.94511,211.09218,87,21,0
211.09218,211.23924,80,21,0
211.23924,211.41365,87,21,0
211.41365,211.64267,80,21,0
211.64267,212.14267,92,28,0
212.64267,213.0063,80,44,0
213.0063,213.3813,78,44,0
213.7813,213.94173,67,34,0
213.94173,214.10216,68,34,0
214.10216,214.2091,71,34,0
214.2091,214.31606,69,34,0
214.31606,214.423,68,34,0
213.3813,214.75269,76,45,0
214.75269,215.0468,76,42,0
215.0468,215.34091,75,42,0
215.34091,215.60292,73,44,0
214.423,215.60292,68,43,0
215.60292,215.7295,67,36,0
215.7295,215.8561,68,32,0
215.8561,215.94048,71,36,0
215.94048,216.02487,69,36,0
216.02487,216.10925,68,32,0
216.36243,216.61035,80,43,0
216.61035,216.85829,78,40,0
216.10925,217.11145,68,44,0
217.11145,217.2339,67,38,0
217.2339,217.35635,68,34,0
217.35635,217.43799,71,38,0
217.43799,217.5196,69,38,0
217.5196,217.60124,68,35,0
216.85829,217.8523,76,46,0
217.8523,218.09619,76,43,0
218.09619,218.3401,75,41,0
217.60124,218.3401,68,42,0
218.3401,218.5901,73,47,0
218.5901,218.71106,72,37,0
218.71106,218.83203,73,37,0
218.83203,218.91267,76,37,0
218.91267,218.99333,74,37,0
218.99333,219.07397,73,34,0
219.32397,219.56206,85,46,0
219.56206,219.81523,83,44,0
219.07397,220.10641,73,41,0
220.10641,220.22786,72,32,0
220.22786,220.34932,73,30,0
220.34932,220.4303,76,32,0
220.4303,220.51126,74,32,0
220.51126,220.59224,73,30,0
219.81523,220.87393,81,53,0
220.87393,221.11783,81,38,0
221.11783,221.36174,80,36,0
221.36174,221.6792,78,40,0
220.59224,221.6792,73,37,0
221.6792,221.81313,72,27,0
221.81313,221.94705,73,28,0
221.94705,222.03633,76,30,0
222.03633,222.12563,74,30,0
222.12563,222.2149,73,27,0
222.47131,222.70569,85,40,0
222.70569,222.94284,83,37,0
222.2149,223.1838,73,38,0
223.1838,223.29875,72,37,0
223.29875,223.4137,73,37,0
223.4137,223.49033,76,37,0
223.49033,223.56696,74,37,0
223.56696,223.64359,73,34,0
222.94284,223.89049,81,45,0
223.89049,224.11691,81,44,0
224.11691,224.34947,80,42,0
223.64359,224.60698,73,42,0
224.60698,224.72993,72,37,0
224.72993,224.85287,73,34,0
224.85287,224.93484,76,37,0
224.93484,225.01682,74,37,0
225.01682,225.09879,73,34,0
224.34947,225.38315,78,47,0
225.38315,225.6363,80,43,0
225.6363,225.90297,81,42,0
225.09879,225.90297,73,41,0
225.90297,226.15508,80,50,0
226.15508,226.27046,67,32,0
226.27046,226.38585,68,30,0
226.38585,226.46277,71,32,0
226.46277,226.53969,69,32,0
226.53969,226.61661,68,30,0
226.87302,227.10379,78,47,0
227.10379,227.33456,76,47,0
226.61661,227.59319,68,37,0
227.59319,227.71767,67,38,0
227.71767,227.84215,68,35,0
227.84215,227.92513,71,38,0
227.92513,228.00812,69,38,0
228.00812,228.09111,68,35,0
227.33456,228.37018,75,53,0
228.37018,228.63684,75,47,0
228.63684,228.9035,73,44,0
228.9035,229.19197,72,52,0
228.09111,229.19197,68,46,0
229.19197,229.33215,67,41,0
229.33215,229.47235,68,39,0
229.47235,229.5658,71,41,0
229.5658,229.65926,69,41,0
229.65926,229.75272,68,38,0
230.02177,230.26082,78,43,0
230.26082,230.49986,76,41,0
230.49986,230.7596,75,47,0
229.75272,230.7596,68,52,0
230.7596,230.88513,70,38,0
230.88513,231.01065,71,36,0
231.01065,231.1059,75,38,0
231.1059,231.20113,73,38,0
231.20113,231.29637,71,35,0
231.82733,232.3583,76,34,0
232.3583,232.88928,78,34,0
231.29637,232.88928,71,41,0
232.88928,232.98303,68,35,0
232.98303,233.07678,71,37,0
233.07678,233.17053,76,40,0
233.17053,233.26428,80,42,0
233.26428,233.35803,78,44,0
233.35803,233.45178,76,42,0
233.45178,233.53157,80,38,0
233.53157,233.61136,83,40,0
233.61136,233.69115,88,43,0
233.69115,233.77094,92,46,0
233.77094,233.85072,90,50,0
233.85072,233.93048,88,47,0
233.93048,234.01006,83,44,0
234.01006,234.0898,80,43,0
234.0898,234.16972,78,42,0
234.16972,234.24983,76,41,0
234.24983,234.33012,71,40,0
234.33012,234.41058,68,39,0
234.41058,234.49123,66,38,0
234.49123,234.5721,64,37,0
234.5721,234.65314,59,36,0
234.65314,234.73438,68,39,0
234.73438,234.81578,66,38,0
234.81578,234.89737,64,37,0
234.89737,234.97795,61,36,0
234.97795,235.05774,64,34,0
235.05774,235.1369,66,37,0
235.1369,235.2155,69,39,0
235.2155,235.29352,73,41,0
235.29352,235.37094,76,43,0
235.37094,235.44794,78,46,0
235.44794,235.52518,81,48,0
235.52518,235.6028,85,50,0
235.6028,235.68079,88,51,0
235.68079,235.75912,90,49,0
235.75912,235.83783,93,47,0
235.83783,235.91847,92,50,0
235.91847,235.99911,90,49,0
235.99911,236.07765,87,49,0
236.07765,236.15619,81,48,0
236.15619,236.23473,80,47,0
236.23473,236.31322,78,46,0
236.31322,236.39162,75,45,0
236.39162,236.47026,71,44,0
236.47026,236.54913,75,45,0
236.54913,236.62825,73,42,0
236.62825,236.70766,71,39,0
236.70766,236.78731,69,37,0
236.78731,236.86539,68,35,0
236.86539,236.9432,71,37,0
236.9432,237.0208,76,40,0
237.0208,237.09805,80,42,0
237.09805,237.17508,78,44,0
237.17508,237.2518,76,42,0
237.2518,237.32834,80,38,0
237.32834,237.40495,83,40,0
237.40495,237.48169,88,43,0
237.48169,237.55861,92,46,0
237.55861,237.63564,90,50,0
237.63564,237.71275,88,47,0
237.71275,237.78987,83,44,0
237.78987,237.86719,80,43,0
237.86719,237.94472,78,42,0
237.94472,238.02243,76,41,0
238.02243,238.10036,71,40,0
238.10036,238.17848,68,39,0
238.17848,238.2568,66,38,0
238.2568,238.33534,64,37,0
238.33534,238.41408,59,36,0
238.41408,238.49303,68,39,0
238.49303,238.57219,66,38,0
238.57219,238.65158,64,37,0
238.65158,238.73105,61,36,0
238.73105,238.8056,64,34,0
238.81021,238.88902,66,37,0
238.88902,238.96748,69,39,0
238.96748,239.04561,73,41,0
239.04561,239.12343,76,43,0
239.12343,239.20096,78,46,0
239.20096,239.27861,81,48,0
239.27861,239.35643,85,50,0
239.35643,239.43439,88,51,0
239.43439,239.51251,90,49,0
239.51251,239.59084,93,47,0
239.59084,239.67105,92,47,0
239.67105,239.75127,90,48,0
239.75127,239.82959,87,49,0
239.82959,239.90793,81,50,0
239.90793,239.98625,80,51,0
239.98625,240.06493,78,52,0
240.06493,240.14326,75,53,0
240.14326,240.22176,71,52,0
240.22176,240.30043,75,51,0
240.30043,240.37924,73,51,0
240.37924,240.45822,71,53,0
240.45822,240.53738,69,57,0
240.53738,240.61667,68,56,0
240.61667,240.6957,71,59,0
240.6957,240.77437,76,61,0
240.77437,240.85275,80,63,0
240.85275,240.93082,78,65,0
240.93082,241.0086,76,63,0
241.0086,241.08632,80,61,0
241.08632,241.16405,83,61,0
241.16405,241.24176,88,64,0
241.24176,241.31949,92,66,0
241.31949,241.3972,90,69,0
241.3972,241.47493,88,65,0
241.47493,241.55264,84,62,0
241.55264,241.63037,81,61,0
241.63037,241.70808,78,60,0
241.70808,241.78581,76,60,0
241.78581,241.86353,72,59,0
241.86353,241.94125,69,58,0
241.94125,242.01903,66,57,0
242.01903,242.09709,64,56,0
242.09709,242.17542,60,55,0
242.17542,242.25403,57,54,0
242.25403,242.3329,54,53,0
242.3329,242.41206,52,52,0
242.41206,242.49132,56,52,0
242.49132,242.57024,59,51,0
242.57024,242.6488,64,52,0
242.6488,242.72702,68,53,0
242.72702,242.80492,66,54,0
242.80492,242.88246,64,52,0
242.88246,242.95969,68,49,0
242.95969,243.03658,71,51,0
243.03658,243.11314,76,54,0
243.11314,243.18938,80,57,0
243.18938,243.26534,78,59,0
243.26534,243.34128,76,57,0
243.34128,243.41722,72,59,0
243.41722,243.49318,69,61,0
243.49318,243.56912,66,62,0
243.56912,243.64508,64,64,0
243.64508,243.72102,60,66,0
243.72102,243.79698,57,67,0
243.79698,243.87305,54,69,0
243.87305,243.94968,52,71,0
243.94968,244.0269,48,73,0
244.0269,244.10472,45,74,0
244.10472,244.18315,42,76,0
244.18315,244.2622,40,78,0
244.4248,244.50134,47,73,0
244.50134,244.57787,52,68,0
244.57787,244.6544,57,68,0
244.6544,244.73093,56,68,0
244.73093,244.80746,59,73,0
244.80746,244.88399,64,67,0
244.88399,244.96053,69,67,0
244.96053,245.03705,68,68,0
245.03705,245.11359,71,72,0
245.11359,245.19011,76,73,0
245.19011,245.26665,81,76,0
245.26665,245.34317,80,71,0
245.34317,245.41971,83,71,0
245.41971,245.49623,88,71,0
245.49623,245.57277,93,71,0
245.57277,245.64929,92,71,0
245.64929,245.72583,88,77,0
245.72583,245.80235,83,71,0
245.80235,245.87889,81,71,0
245.87889,245.95541,80,71,0
245.95541,246.03195,76,71,0
246.03195,246.10847,71,71,0
246.10847,246.18481,69,71,0
246.18481,246.26135,68,72,0
246.26135,246.3381,64,73,0
246.3381,246.41505,59,75,0
246.41505,246.49225,57,77,0
246.49225,246.56964,56,78,0
246.56964,246.64725,52,80,0
246.64725,246.72508,47,81,0
246.72508,246.80313,45,82,0
246.80313,246.8814,44,84,0
246.8814,246.9599,40,86,0
246.9599,247.0386,35,88,0
247.98596,249.11804,64,65,0
247.98596,249.11804,61,65,0
247.98596,249.11804,52,55,0
249.11804,250.25012,54,46,0
249.11804,250.62747,61,55,0
250.62747,250.89415,59,71,0
250.89415,251.16081,61,71,0
251.16081,251.45638,64,75,0
251.45638,251.96623,62,70,0
251.96623,252.16266,61,64,0
249.11804,252.18051,66,55,0
252.18051,253.23933,64,65,0
252.18051,253.23933,61,65,0
252.18051,253.23933,52,55,0
253.23933,254.65111,61,55,0
254.65111,254.92137,59,67,0
254.92137,255.19164,61,67,0
255.19164,255.49014,64,72,0
255.49014,256.0717,62,66,0
256.0717,256.1896,61,57,0
253.23933,256.35208,66,55,0
256.35208,256.7157,69,63,0
256.2132,257.06253,61,54,0
257.06253,257.40936,62,57,0
256.7157,257.40936,66,62,0
253.23933,257.40936,54,46,0
257.40936,258.58582,61,52,0
258.58582,259.48135,59,43,0
257.40936,259.48135,56,52,0
259.48135,259.8735,57,37,0
257.40936,259.8735,64,52,0
259.8735,262.15198,61,35,0
262.15198,262.9807,73,53,0
262.9807,263.0636,71,45,0
263.0636,263.14645,73,45,0
263.14645,263.57098,71,50,0
263.57098,263.7125,69,47,0
263.7125,263.9955,71,50,0
263.9955,264.42004,73,53,0
264.42004,264.56155,74,50,0
264.56155,264.70306,73,48,0
264.70306,264.7738,71,43,0
264.7738,264.84457,73,43,0
264.84457,265.30374,71,52,0
265.30374,265.45682,69,48,0
265.45682,265.9446,71,47,0
265.9446,266.18854,73,39,0
266.18854,266.30304,61,29,0
266.30304,266.41754,73,29,0
266.41754,266.53204,68,29,0
266.53204,266.64655,73,29,0
266.64655,266.76105,68,29,0
266.76105,266.87555,80,29,0
266.87555,266.99005,73,29,0
266.99005,267.10455,80,29,0
267.10455,267.21906,73,29,0
267.21906,267.33356,85,29,0
267.33356,267.44806,80,29,0
267.44806,267.5671,85,29,0
267.5671,267.68616,80,29,0
267.68616,267.8091,92,29,0
267.8091,267.93207,85,29,0
267.93207,268.05502,92,29,0
268.05502,268.17798,85,29,0
268.17798,268.32797,97,39,0
269.07797,270.2862,64,44,0
269.07797,270.2862,52,37,0
270.2862,271.4944,54,31,0
269.07797,271.89713,61,44,0
271.89713,272.19565,59,48,0
272.19565,272.49414,61,48,0
272.49414,272.8556,64,51,0
272.8556,273.48798,62,47,0
273.48798,273.76318,61,47,0
270.2862,273.76318,66,37,0
273.76318,274.8188,64,44,0
273.76318,274.8188,52,37,0
273.76318,276.22626,61,44,0
276.22626,276.53394,59,48,0
276.53394,276.84164,61,48,0
276.84164,277.1988,64,51,0
277.1988,277.5559,62,47,0
277.5559,277.94583,61,47,0
274.8188,278.10638,66,37,0
278.10638,278.33194,69,36,0
278.33194,278.5575,68,33,0
278.5575,278.7956,71,39,0
278.7956,279.0337,69,38,0
279.0337,279.2718,66,36,0
277.96878,279.2718,61,40,0
279.2718,279.5099,62,35,0
274.8188,279.5099,54,31,0
279.5099,280.76547,61,37,0
280.76547,281.7411,59,31,0
279.5099,281.7411,56,31,0
281.7411,282.27206,57,27,0
279.5099,282.27206,64,37,0
282.27206,284.70383,61,25,0
285.84308,287.91754,73,42,0
287.91754,288.1953,75,42,0
288.1953,288.42087,78,43,0
288.42087,288.59946,76,41,0
288.59946,288.778,73,39,0
288.778,289.01996,69,39,0
289.01996,289.08044,68,35,0
289.14093,289.2619,68,35,0
289.2619,289.94373,80,43,0
289.94373,290.02893,78,37,0
290.02893,290.11417,80,37,0
290.11417,290.5448,78,43,0
290.5448,290.68832,76,39,0
290.68832,290.9754,78,39,0
290.9754,291.40604,80,42,0
291.40604,291.54956,81,40,0
291.54956,291.6931,80,40,0
291.6931,291.7649,78,37,0
291.7649,291.83667,80,37,0
291.83667,292.43155,78,44,0
292.43155,292.65378,76,33,0
292.65378,293.0763,78,31,0
293.0763,294.66455,80,31,0
294.66455,294.79498,68,25,0
294.79498,294.9254,80,25,0
294.9254,295.05585,75,25,0
295.05585,295.18628,80,25,0
295.18628,295.3167,75,25,0
295.3167,295.46378,87,21,0
295.46378,295.61084,80,21,0
295.61084,295.78525,87,21,0
295.78525,296.01425,80,21,0
296.01425,296.51425,92,28,0
297.01425,297.3779,80,44,0
297.3779,297.7529,78,44,0
298.1529,298.31332,67,34,0
298.31332,298.47375,68,31,0
298.47375,298.5807,71,34,0
298.5807,298.68765,69,34,0
298.68765,298.79462,68,32,0
297.7529,299.12427,76,45,0
299.12427,299.4184,76,42,0
299.4184,299.71252,75,39,0
299.71252,299.97452,73,44,0
298.79462,299.97452,68,43,0
299.97452,300.1011,67,36,0
300.1011,300.2277,68,33,0
300.2277,300.31207,71,36,0
300.31207,300.39645,69,36,0
300.39645,300.48083,68,33,0
300.734,300.98193,80,43,0
300.98193,301.2299,78,39,0
300.48083,301.48303,68,44,0
301.48303,301.6055,67,38,0
301.6055,301.72794,68,35,0
301.72794,301.80957,71,38,0
301.80957,301.8912,69,38,0
301.8912,301.97284,68,36,0
301.2299,302.22388,76,46,0
302.22388,302.4678,76,43,0
302.4678,302.7117,75,38,0
301.97284,302.7117,68,42,0
302.7117,302.9617,73,47,0
302.9617,303.08267,72,37,0
303.08267,303.20364,73,35,0
303.20364,303.28427,76,37,0
303.28427,303.36493,74,37,0
303.36493,303.4355,73,35,0
303.69556,303.93365,85,46,0
303.93365,304.17657,83,43,0
303.44556,304.46252,73,41,0
304.46252,304.58398,72,32,0
304.58398,304.70544,73,30,0
304.70544,304.7864,76,32,0
304.7864,304.86737,74,32,0
304.86737,304.93823,73,30,0
304.17657,305.21268,81,53,0
305.21268,305.45078,81,38,0
305.45078,305.68884,80,36,0
305.68884,305.98737,78,40,0
304.94833,305.98737,73,37,0
305.98737,306.1225,72,27,0
306.1225,306.25763,73,27,0
306.25763,306.34772,76,30,0
306.34772,306.4378,74,30,0
306.4378,306.51663,73,29,0
306.7888,307.02316,85,40,0
307.02316,307.2603,83,38,0
306.5279,307.50125,73,38,0
307.50125,307.6162,72,37,0
307.6162,307.73114,73,37,0
307.73114,307.80777,76,37,0
307.80777,307.8844,74,37,0
307.8844,307.95145,73,34,0
307.2603,308.20795,81,45,0
308.20795,308.43436,81,44,0
308.43436,308.66693,80,40,0
307.96103,308.92444,73,42,0
308.92444,309.0474,72,37,0
309.0474,309.17035,73,35,0
309.17035,309.2523,76,37,0
309.2523,309.33426,74,37,0
309.33426,309.40598,73,35,0
308.66693,309.7006,78,47,0
309.7006,309.95377,80,43,0
309.95377,310.22043,81,40,0
309.41623,310.22043,73,41,0
310.22043,310.47253,80,50,0
310.47253,310.58792,67,32,0
310.58792,310.7033,68,30,0
310.7033,310.7802,71,32,0
310.7802,310.85715,69,32,0
310.85715,310.92444,68,30,0
311.1905,311.42123,78,47,0
311.42123,311.652,76,44,0
310.93405,311.91064,68,37,0
311.91064,312.03513,67,38,0
312.03513,312.1596,68,38,0
312.1596,312.24258,71,38,0
312.24258,312.32556,69,38,0
312.32556,312.3982,68,35,0
311.652,312.68762,75,53,0
312.68762,312.95428,75,47,0
312.95428,313.22098,73,44,0
313.22098,313.50943,72,52,0
312.40857,313.50943,68,46,0
313.50943,313.6496,67,41,0
313.6496,313.7898,68,38,0
313.7898,313.88327,71,41,0
313.88327,313.9767,69,41,0
313.9767,314.0585,68,38,0
314.33923,314.57828,78,43,0
314.57828,314.81732,76,39,0
314.81732,315.07706,75,47,0
314.07016,315.07706,68,52,0
315.07706,315.20258,70,38,0
315.20258,315.3281,71,36,0
315.3281,315.42334,75,38,0
315.42334,315.5186,73,38,0
315.5186,315.60193,71,35,0
316.1448,316.67578,76,34,0
316.67578,317.20673,78,34,0
315.61383,317.20673,71,41,0
317.20673,317.30048,68,35,0
317.30048,317.39423,71,37,0
317.39423,317.48798,76,40,0
317.48798,317.58173,80,42,0
317.58173,317.67548,78,44,0
317.67548,317.76923,76,42,0
317.76923,317.84903,80,38,0
317.84903,317.9288,83,40,0
317.9288,318.0086,88,43,0
318.0086,318.08838,92,46,0
318.08838,318.16818,90,50,0
318.16818,318.24792,88,47,0
318.24792,318.3275,83,44,0
318.3275,318.40726,80,43,0
318.40726,318.48718,78,42,0
318.48718,318.5673,76,41,0
318.5673,318.64758,71,40,0
318.64758,318.72806,68,39,0
318.72806,318.8087,66,38,0
318.8087,318.88956,64,37,0
318.88956,318.97058,59,36,0
318.97058,319.05182,68,39,0
319.05182,319.13324,66,38,0
319.13324,319.21484,64,37,0
319.21484,319.2954,61,36,0
319.2954,319.37518,64,34,0
319.37518,319.45435,66,37,0
319.45435,319.53296,69,39,0
319.53296,319.61096,73,41,0
319.61096,319.6884,76,43,0
319.6884,319.76538,78,46,0
319.76538,319.84265,81,48,0
319.84265,319.92026,85,50,0
319.92026,319.99826,88,51,0
319.99826,320.07657,90,49,0
320.07657,320.15527,93,47,0
320.15527,320.23593,92,50,0
320.23593,320.31656,90,49,0
320.31656,320.3951,87,49,0
320.3951,320.47363,81,48,0
320.47363,320.5522,80,47,0
320.5522,320.63068,78,46,0
320.63068,320.70908,75,45,0
320.70908,320.78772,71,44,0
320.78772,320.86658,75,45,0
320.86658,320.9457,73,42,0
320.9457,321.02512,71,39,0
321.02512,321.10477,69,37,0
321.10477,321.18286,68,35,0
321.18286,321.26068,71,37,0
321.26068,321.33826,76,40,0
321.33826,321.4155,80,42,0
321.4155,321.49252,78,44,0
321.49252,321.56924,76,42,0
321.56924,321.64578,80,38,0
321.64578,321.7224,83,40,0
321.7224,321.79913,88,43,0
321.79913,321.87607,92,46,0
321.87607,321.9531,90,50,0
321.9531,322.0302,88,47,0
322.0302,322.10733,83,44,0
322.10733,322.18466,80,43,0
322.18466,322.26218,78,42,0
322.26218,322.33987,76,41,0
322.33987,322.41782,71,40,0
322.41782,322.49594,68,39,0
322.49594,322.57425,66,38,0
322.57425,322.6528,64,37,0
322.6528,322.73154,59,36,0
322.73154,322.8105,68,39,0
322.8105,322.88965,66,38,0
322.88965,322.96906,64,37,0
322.96906,323.04852,61,36,0
323.04852,323.12305,64,34,0
323.12766,323.20648,66,37,0
323.20648,323.28494,69,39,0
323.28494,323.36307,73,41,0
323.36307,323.4409,76,43,0
323.4409,323.5184,78,46,0
323.5184,323.59607,81,48,0
323.59607,323.6739,85,50,0
323.6739,323.75183,88,51,0
323.75183,323.82996,90,49,0
323.82996,323.9083,93,47,0
323.9083,323.9885,92,47,0
323.9885,324.06873,90,48,0
324.06873,324.14703,87,49,0
324.14703,324.22537,81,50,0
324.22537,324.3037,80,51,0
324.3037,324.3824,78,52,0
324.3824,324.46072,75,53,0
324.46072,324.5392,71,52,0
324.5392,324.6179,75,51,0
324.6179,324.6967,73,51,0
324.6967,324.77567,71,53,0
324.77567,324.85483,69,57,0
324.85483,324.9341,68,56,0
324.9341,325.01315,71,59,0
325.01315,325.09183,76,61,0
325.09183,325.17023,80,63,0
325.17023,325.24826,78,65,0
325.24826,325.32605,76,63,0
325.32605,325.40378,80,61,0
325.40378,325.4815,83,61,0
325.4815,325.5592,88,64,0
325.5592,325.63693,92,66,0
325.63693,325.71466,90,69,0
325.71466,325.7924,88,65,0
325.7924,325.8701,84,62,0
325.8701,325.9478,81,61,0
325.9478,326.02554,78,60,0
326.02554,326.10327,76,60,0
326.10327,326.18097,72,59,0
326.18097,326.2587,69,58,0
326.2587,326.3365,66,57,0
326.3365,326.41455,64,56,0
326.41455,326.4929,60,55,0
326.4929,326.57147,57,54,0
326.57147,326.65036,54,53,0
326.65036,326.72952,52,52,0
326.72952,326.80878,56,52,0
326.80878,326.8877,59,51,0
326.8877,326.96625,64,52,0
326.96625,327.0445,68,53,0
327.0445,327.12238,66,54,0
327.12238,327.19992,64,52,0
327.19992,327.27713,68,49,0
327.27713,327.35403,71,51,0
327.35403,327.4306,76,54,0
327.4306,327.50684,80,57,0
327.50684,327.5828,78,59,0
327.5828,327.65872,76,57,0
327.65872,327.73468,72,59,0
327.73468,327.81064,69,61,0
327.81064,327.8866,66,62,0
327.8866,327.96252,64,64,0
327.96252,328.03848,60,66,0
328.03848,328.11444,57,67,0
328.11444,328.19052,54,69,0
328.19052,328.26715,52,71,0
328.26715,328.34436,48,73,0
328.34436,328.42218,45,74,0
328.42218,328.5006,42,76,0
328.5006,328.57965,40,78,0
328.74225,328.8188,47,73,0
328.8188,328.89532,52,68,0
328.89532,328.97186,57,68,0
328.97186,329.0484,56,68,0
329.0484,329.1249,59,73,0
329.1249,329.20145,64,67,0
329.20145,329.27798,69,67,0
329.27798,329.35452,68,68,0
329.35452,329.43103,71,72,0
329.43103,329.50757,76,73,0
329.50757,329.5841,81,76,0
329.5841,329.66064,80,71,0
329.66064,329.73715,83,71,0
329.73715,329.8137,88,71,0
329.8137,329.89023,93,71,0
329.89023,329.96677,92,71,0
329.96677,330.04327,88,77,0
330.04327,330.1198,83,71,0
330.1198,330.19635,81,71,0
330.19635,330.2729,80,71,0
330.2729,330.3494,76,71,0
330.3494,330.42593,71,71,0
330.42593,330.50226,69,71,0
330.50226,330.5788,68,72,0
330.5788,330.65555,64,73,0
330.65555,330.7325,59,75,0
330.7325,330.8097,57,77,0
330.8097,330.8871,56,78,0
330.8871,330.96472,52,80,0
330.96472,331.04254,47,81,0
331.04254,331.12057,45,82,0
331.12057,331.19885,44,84,0
331.19885,331.27734,40,86,0
331.27734,331.35605,35,88,0
332.47937,332.5559,47,73,0
332.5559,332.63245,53,68,0
332.63245,332.70895,57,68,0
332.70895,332.7855,56,68,0
332.7855,332.86203,59,73,0
332.86203,332.93857,65,67,0
332.93857,333.01508,69,67,0
333.01508,333.0916,68,68,0
333.0916,333.16815,71,72,0
333.16815,333.2447,77,73,0
333.2447,333.3212,81,76,0
333.3212,333.39774,80,71,0
333.39774,333.47427,83,71,0
333.47427,333.5508,89,71,0
333.5508,333.62732,93,71,0
333.62732,333.70386,92,71,0
333.70386,333.7804,89,77,0
333.7804,333.85693,83,71,0
333.85693,333.93344,81,71,0
333.93344,334.00998,80,71,0
334.00998,334.08652,77,71,0
334.08652,334.16306,71,71,0
334.16306,334.23938,69,71,0
334.23938,334.31592,68,72,0
334.31592,334.39267,65,73,0
334.39267,334.46964,59,75,0
334.46964,334.5468,57,77,0
334.5468,334.6242,56,78,0
334.6242,334.7018,53,80,0
334.7018,334.77963,47,81,0
334.77963,334.8577,45,82,0
334.8577,334.93597,44,84,0
334.93597,335.01447,41,86,0
335.01447,335.09317,35,88,0
336.2165,336.2934,70,66,0
336.2934,336.37033,68,67,0
336.37033,336.44727,71,68,0
336.44727,336.52417,77,69,0
336.52417,336.6025,82,71,0
336.6025,336.68085,80,72,0
336.68085,336.75916,83,73,0
336.75916,336.8375,89,74,0
336.8375,336.91583,94,75,0
336.91583,336.99414,92,77,0
336.99414,337.07108,82,80,0
337.07108,337.148,88,74,0
337.148,337.2249,92,77,0
337.2249,337.30185,91,81,0
337.30185,337.37875,88,80,0
337.37875,337.4557,82,78,0
337.4557,337.53247,80,76,0
337.53247,337.60953,79,76,0
337.60953,337.68695,76,76,0
337.68695,337.76468,70,76,0
337.76468,337.84274,68,74,0
337.84274,337.92114,67,73,0
337.92114,338.0059,57,73,0
338.0059,338.0906,63,73,0
338.0906,338.16754,68,74,0
338.16754,338.24448,66,75,0
338.24448,338.32138,69,76,0
338.32138,338.39832,75,76,0
338.39832,338.47705,80,77,0
338.47705,338.5558,78,76,0
338.5558,338.63452,81,79,0
338.63452,338.7133,87,81,0
338.7133,338.79202,92,84,0
338.79202,338.87076,90,86,0
338.87076,338.9495,80,88,0
338.9495,339.02823,85,87,0
339.02823,339.10535,90,87,0
339.10535,339.18246,89,85,0
339.18246,339.2596,85,83,0
339.2596,339.33673,80,82,0
339.33673,339.41385,78,80,0
339.41385,339.49097,77,78,0
339.49097,339.56808,73,76,0
339.56808,339.6452,68,74,0
339.6452,339.72232,66,72,0
339.72232,339.79944,65,71,0
339.79944,339.87988,60,71,0
339.87988,339.9603,66,71,0
339.9603,340.03723,71,71,0
340.03723,340.11414,69,71,0
340.11414,340.19107,72,71,0
340.19107,340.268,78,71,0
340.268,340.34714,83,69,0
340.34714,340.4263,81,71,0
340.4263,340.50546,84,73,0
340.50546,340.58463,90,75,0
340.58463,340.66376,95,76,0
340.66376,340.74292,93,78,0
340.74292,340.81985,83,80,0
340.81985,340.89676,89,82,0
340.89676,340.9737,93,82,0
340.9737,341.05063,92,80,0
341.05063,341.12753,89,79,0
341.12753,341.20447,83,78,0
341.20447,341.2814,81,77,0
341.2814,341.3583,80,76,0
341.3583,341.43524,77,75,0
341.43524,341.51215,71,74,0
341.51215,341.58908,69,73,0
341.58908,341.66602,68,72,0
341.66602,341.74643,58,71,0
341.74643,341.82687,64,71,0
341.82687,341.90378,69,71,0
341.90378,341.9807,67,71,0
341.9807,342.05762,70,71,0
342.05762,342.13455,76,71,0
342.13455,342.2137,81,69,0
342.2137,342.29288,79,71,0
342.29288,342.372,82,73,0
342.372,342.45117,88,75,0
342.45117,342.53033,93,76,0
342.53033,342.6095,91,78,0
342.6095,342.6864,81,80,0
342.6864,342.76334,86,82,0
342.76334,342.84027,91,82,0
342.84027,342.91718,90,80,0
342.91718,342.9941,86,79,0
342.9941,343.071,81,78,0
343.071,343.14795,79,76,0
343.14795,343.22488,78,75,0
343.22488,343.3018,74,73,0
343.3018,343.37872,69,71,0
343.37872,343.45563,67,70,0
343.45563,343.53256,66,68,0
343.53256,343.7716,74,66,0
343.53256,343.7716,67,66,0
343.53256,343.7716,62,66,0
343.7716,343.8861,73,58,0
343.8861,344.0006,74,55,0
344.0006,344.07697,77,58,0
344.07697,344.1533,75,58,0
344.1533,344.2296,74,55,0
344.46964,344.6952,86,66,0
344.6952,344.92075,84,64,0
344.46964,344.92075,78,66,0
344.92075,345.1358,82,70,0
344.92075,345.1358,79,70,0
344.2296,345.1358,74,67,0
345.1358,345.23926,73,59,0
345.23926,345.3427,74,55,0
345.3427,345.41168,77,59,0
345.41168,345.48062,75,59,0
345.48062,345.5496,74,55,0
345.75095,345.94766,82,65,0
345.75095,345.94766,70,65,0
345.94766,346.14438,81,62,0
345.94766,346.14438,69,62,0
346.14438,346.352,79,69,0
346.14438,346.352,67,69,0
345.5496,346.352,74,69,0
346.352,346.44815,73,59,0
346.44815,346.5443,74,55,0
346.5443,346.6084,77,59,0
346.6084,346.67252,75,59,0
346.67252,346.7366,74,55,0
346.934,347.12506,86,65,0
347.12506,347.31613,84,65,0
346.934,347.31613,78,65,0
347.31613,347.51886,82,69,0
347.31613,347.51886,79,69,0
346.7366,347.51886,74,70,0
347.51886,347.61594,66,58,0
347.61594,347.713,67,53,0
347.713,347.77774,70,58,0
347.77774,347.84247,68,58,0
347.84247,347.9072,67,55,0
348.1099,348.30408,79,63,0
348.30408,348.49826,77,63,0
348.1099,348.49826,74,63,0
348.49826,348.6924,75,71,0
348.49826,348.6924,72,71,0
347.9072,348.6924,67,70,0
348.6924,348.78766,78,57,0
348.78766,348.8829,79,57,0
348.8829,348.94638,82,57,0
348.94638,349.0099,80,57,0
349.0099,349.07336,79,54,0
349.27075,349.45767,91,63,0
349.45767,349.6446,89,63,0
349.27075,349.6446,83,63,0
349.6446,349.83627,87,71,0
349.6446,349.83627,84,71,0
349.07336,349.83627,79,71,0
349.83627,349.92886,78,59,0
349.92886,350.02145,79,56,0
350.02145,350.0832,82,59,0
350.0832,350.14493,80,59,0
350.14493,350.20663,79,55,0
350.40082,350.58154,87,64,0
350.40082,350.58154,75,64,0
350.58154,350.76227,86,64,0
350.58154,350.76227,74,64,0
350.20663,350.76227,79,70,0
350.76227,350.96225,84,70,0
350.76227,350.96225,72,70,0
350.76227,350.96225,79,70,0
350.96225,351.07175,66,59,0
351.07175,351.18124,67,55,0
351.18124,351.25424,70,59,0
351.25424,351.32724,68,59,0
351.32724,351.4002,67,56,0
351.64313,351.87842,79,56,0
351.87842,352.1137,77,55,0
351.64313,352.1137,71,56,0
352.1137,352.36267,75,60,0
352.1137,352.36267,72,60,0
351.4002,352.36267,67,71,0
352.36267,352.48126,62,53,0
352.48126,352.59985,63,53,0
352.59985,352.6789,67,53,0
352.6789,352.75793,65,53,0
352.75793,352.837,63,50,0
353.07794,353.29935,75,58,0
353.29935,353.52075,73,56,0
353.07794,353.52075,67,58,0
353.52075,353.74805,71,63,0
353.52075,353.74805,68,63,0
352.837,353.74805,63,61,0
353.74805,353.8533,74,54,0
353.8533,353.95856,75,51,0
353.95856,354.02875,78,54,0
354.02875,354.0989,76,54,0
354.0989,354.1691,75,51,0
354.36908,354.5608,87,58,0
354.5608,354.75247,85,59,0
354.36908,354.75247,82,58,0
354.75247,354.94727,83,67,0
354.75247,354.94727,80,67,0
354.1691,354.94727,75,62,0
354.94727,355.0419,74,59,0
355.0419,355.13657,75,56,0
355.13657,355.19965,78,59,0
355.19965,355.26273,76,59,0
355.26273,355.3203,75,55,0
355.5219,355.71057,83,63,0
355.5219,355.71057,71,63,0
355.71057,355.89926,82,63,0
355.71057,355.89926,70,63,0
355.32584,355.89926,75,68,0
355.89926,356.10196,80,69,0
355.89926,356.10196,68,69,0
355.89926,356.10196,75,69,0
356.10196,356.20065,74,60,0
356.20065,356.29935,75,56,0
356.29935,356.3651,78,60,0
356.3651,356.4309,76,60,0
356.4309,356.4893,75,56,0
356.6884,356.8719,87,65,0
356.8719,357.05536,85,65,0
356.6884,357.05536,82,65,0
357.05536,357.2574,83,76,0
357.05536,357.2574,80,76,0
356.4967,357.2574,75,74,0
357.2574,357.36264,74,66,0
357.36264,357.46793,75,61,0
357.46793,357.5381,78,66,0
357.5381,357.60828,76,66,0
357.60828,357.6732,75,61,0
357.9128,358.15573,83,73,0
357.9128,358.15573,71,73,0
358.15573,358.39865,82,73,0
358.15573,358.39865,70,73,0
357.67844,358.39865,75,82,0
358.39865,358.64157,80,87,0
358.39865,358.64157,68,73,0
358.39865,358.64157,76,87,0
359.06665,359.12738,80,70,0
359.12738,359.4274,92,95,0
359.4274,359.5159,90,81,0
359.5159,359.60437,88,76,0
359.60437,359.69287,83,79,0
359.69287,359.78137,80,72,0
359.78137,359.86987,78,76,0
359.86987,359.95837,76,71,0
359.95837,360.04688,71,74,0
360.04688,360.13535,68,68,0
360.13535,360.22385,66,71,0
360.22385,360.31235,64,66,0
360.31235,360.48935,59,69,0
360.84332,360.93216,75,55,0
360.93216,361.02136,76,52,0
361.02136,361.111,78,50,0
361.111,361.201,80,44,0
361.201,361.29144,81,45,0
361.29144,361.3823,83,42,0
361.3823,361.6005,84,40,0
361.9952,362.0832,84,50,0
362.0832,362.17117,83,46,0
362.17117,362.25916,81,47,0
362.25916,362.34714,80,43,0
362.34714,362.4351,78,44,0
362.4351,362.52322,76,42,0
362.52322,362.73157,75,41,0
363.07358,363.12244,80,81,0
363.12244,363.87128,92,115,0
363.87128,363.9575,90,81,0
363.9575,364.0437,88,73,0
364.0437,364.12988,83,79,0
364.12988,364.2161,80,73,0
364.2161,364.3023,78,76,0
364.3023,364.38852,76,70,0
364.38852,364.47473,71,74,0
364.47473,364.56094,68,69,0
364.56094,364.64713,66,71,0
364.64713,364.73334,64,70,0
364.73334,364.90234,59,69,0
365.2404,365.3242,77,57,0
365.3242,365.408,78,55,0
365.408,365.4918,80,53,0
365.4918,365.5756,81,52,0
365.5756,365.6594,83,50,0
365.6594,365.74393,85,48,0
365.74393,365.92303,86,46,0
366.2729,366.3567,86,56,0
366.3567,366.4405,85,54,0
366.4405,366.52426,83,53,0
366.52426,366.60806,81,52,0
366.60806,366.69186,80,51,0
366.69186,366.7761,78,50,0
366.7761,366.9552,77,48,0
367.302,367.3858,79,66,0
367.3858,367.4696,80,65,0
367.4696,367.5534,82,64,0
367.5534,367.6372,83,63,0
367.6372,367.721,85,62,0
367.721,367.80554,87,61,0
367.80554,367.98254,88,60,0
368.32837,368.41193,88,65,0
368.41193,368.49548,87,64,0
368.49548,368.57907,85,62,0
368.57907,368.66263,83,61,0
368.66263,368.7462,82,59,0
368.7462,368.8302,80,58,0
368.8302,369.0093,79,56,0
369.3561,369.4406,81,71,0
369.4406,369.52515,82,72,0
369.52515,369.60965,84,73,0
369.60965,369.69415,85,75,0
369.69415,369.77866,87,76,0
369.77866,369.86316,89,77,0
369.86316,369.94766,90,78,0
369.94766,370.03217,99,78,0
370.03217,370.11667,90,77,0
370.11667,370.2012,89,76,0
370.2012,370.2857,87,75,0
370.2857,370.3702,85,75,0
370.3702,370.4547,84,71,0
370.4547,370.5392,85,72,0
370.5392,370.62372,86,73,0
370.62372,370.70822,87,74,0
370.70822,370.79272,88,76,0
370.79272,370.87726,89,77,0
370.87726,370.96176,90,78,0
370.96176,371.04626,99,79,0
371.04626,371.13077,90,80,0
371.13077,371.21527,89,82,0
371.21527,371.29977,87,83,0
371.29977,371.38428,85,84,0
371.38428,371.46878,84,85,0
371.5533,371.63416,101,93,0
371.63416,371.71503,100,83,0
371.71503,371.7959,99,81,0
371.7959,371.87674,96,78,0
371.87674,372.03848,93,76,0
372.2002,372.28107,77,90,0
372.28107,372.36194,76,82,0
372.36194,372.44278,75,80,0
372.44278,372.52365,72,78,0
372.52365,372.68536,69,76,0
372.8471,372.92798,53,90,0
372.92798,373.00882,52,84,0
373.00882,373.0897,51,82,0
373.0897,373.17056,48,80,0
373.3535,373.5618,73,89,0
373.3535,373.5618,85,89,0
373.5618,373.65735,76,74,0
373.65735,373.7529,77,71,0
373.7529,373.8166,80,74,0
373.8166,373.88028,78,74,0
373.88028,373.936,77,71,0
373.94397,374.15088,77,89,0
374.15088,374.34317,76,81,0
374.15088,374.34317,88,81,0
374.34317,374.53925,89,81,0
374.34317,374.53925,77,81,0
374.53925,374.74197,82,89,0
374.53925,374.74197,70,89,0
374.74197,374.83936,72,73,0
374.83936,374.93677,73,71,0
374.93677,375.0017,77,73,0
375.0017,375.06665,75,73,0
375.06665,375.12344,73,69,0
375.13156,375.34137,73,89,0
375.34137,375.53873,72,81,0
375.34137,375.53873,84,81,0
375.53873,375.7361,85,81,0
375.53873,375.7361,73,81,0
375.7361,375.9409,78,89,0
375.7361,375.9409,66,89,0
375.9409,376.04257,69,73,0
376.04257,376.14426,70,69,0
376.14426,376.21207,73,73,0
376.21207,376.27985,72,73,0
376.27985,376.33917,70,69,0
376.34766,376.55106,70,89,0
376.55106,376.75443,69,81,0
376.55106,376.75443,81,81,0
376.75443,376.9635,82,81,0
376.75443,376.9635,70,81,0
376.9635,377.16757,75,89,0
376.9635,377.16757,63,89,0
377.16757,377.26962,65,74,0
377.26962,377.37167,66,70,0
377.37167,377.4397,70,74,0
377.4397,377.50772,68,74,0
377.50772,377.56723,66,71,0
377.77982,377.99722,77,85,0
377.77982,377.99722,74,85,0
377.99722,378.2146,78,85,0
377.99722,378.2146,75,85,0
377.57574,378.2146,66,89,0
378.2146,378.43933,77,84,0
378.2146,378.43933,65,84,0
378.2146,378.43933,72,84,0
378.2146,378.43933,75,84,0
378.43933,378.5517,64,68,0
378.5517,378.66403,65,66,0
378.66403,378.7577,68,68,0
378.73895,378.83258,66,68,0
378.81384,378.8794,65,66,0
378.92865,379.10153,65,59,0
378.88876,379.10153,53,59,0
378.90207,379.10153,58,59,0
378.91534,379.10153,61,59,0
379.10153,379.307,75,73,0
379.10153,379.307,87,73,0
379.307,379.51755,73,73,0
379.307,379.51755,85,73,0
379.55457,379.71497,84,77,0
379.51755,379.71497,72,68,0
379.52988,379.71497,77,69,0
379.5422,379.71497,81,72,0
379.71497,379.81244,64,68,0
379.81244,379.9099,65,66,0
379.9099,379.99115,68,69,0
379.9749,380.05615,66,69,0
380.0399,380.09677,65,67,0
380.142,380.3029,65,60,0
380.1049,380.3029,53,60,0
380.11725,380.3029,58,60,0
380.12964,380.3029,61,60,0
380.3029,380.50223,72,74,0
380.3029,380.50223,84,74,0
380.50223,380.70914,82,74,0
380.50223,380.70914,70,74,0
380.74677,380.90976,81,76,0
380.70914,380.90976,69,69,0
380.72168,380.90976,72,70,0
380.73422,380.90976,77,74,0
380.90976,381.01172,64,65,0
381.01172,381.11368,65,60,0
381.11368,381.19867,68,65,0
381.18167,381.26663,66,65,0
381.24963,381.3091,65,61,0
381.35513,381.5176,65,56,0
381.31763,381.5176,53,56,0
381.3301,381.5176,58,56,0
381.34262,381.5176,61,56,0
381.5176,381.7203,75,78,0
381.5176,381.7203,87,78,0
381.7203,381.9323,85,78,0
381.7203,381.9323,73,78,0
381.96994,382.13297,84,80,0
381.9323,382.13297,72,74,0
381.94485,382.13297,77,75,0
381.9574,382.13297,81,77,0
382.13297,382.23392,64,70,0
382.23392,382.3349,65,67,0
382.3349,382.41904,68,70,0
382.4022,382.48636,66,70,0
382.4695,382.5284,65,68,0
382.5741,382.73553,65,62,0
382.53683,382.73553,53,62,0
382.54926,382.73553,58,62,0
382.56168,382.73553,61,62,0
382.73553,382.93686,72,77,0
382.73553,382.93686,84,77,0
382.93686,383.1375,82,77,0
382.93686,383.1375,70,77,0
383.1751,383.33813,81,81,0
383.1375,383.33813,69,73,0
383.15005,383.33813,72,74,0
383.16257,383.33813,77,77,0
383.33813,383.43686,64,67,0
383.43686,383.53555,65,64,0
383.53555,383.61783,68,67,0
383.60138,383.68362,66,67,0
383.66718,383.72476,65,64,0
383.733,383.93042,65,80,0
383.93042,384.1337,73,77,0
383.93042,384.1337,85,77,0
384.1337,384.34314,84,78,0
384.1337,384.34314,72,78,0
384.38016,384.54056,81,83,0
384.34314,384.54056,69,74,0
384.35547,384.54056,72,75,0
384.36783,384.54056,77,78,0
384.54056,384.64188,59,70,0
384.64188,384.74316,60,66,0
384.74316,384.82758,63,70,0
384.8107,384.8951,61,70,0
384.87823,384.93732,60,66,0
384.94577,385.14383,60,80,0
385.14383,385.3493,70,78,0
385.3493,385.55984,69,75,0
385.59744,385.76047,81,71,0
385.55984,385.76047,69,65,0
385.57236,385.76047,72,67,0
385.5849,385.76047,77,71,0
385.76047,385.86078,64,70,0
385.86078,385.9611,65,67,0
385.9611,386.04468,68,70,0
386.02795,386.11157,66,70,0
386.09485,386.15335,65,66,0
386.1617,386.36108,65,80,0
386.36108,386.57385,73,77,0
386.36108,386.57385,85,77,0
386.57385,386.78662,84,77,0
386.57385,386.78662,72,77,0
386.8265,386.9994,81,76,0
386.78662,386.9994,69,65,0
386.79993,386.9994,72,66,0
386.8132,386.9994,77,70,0
386.9994,387.10968,59,69,0
387.10968,387.21997,60,67,0
387.21997,387.3119,63,69,0
387.2935,387.3854,61,69,0
387.36703,387.43137,60,66,0
387.44055,387.6777,60,78,0
387.6777,387.90158,70,77,0
387.90158,388.12546,69,74,0
388.16745,388.34937,81,69,0
388.12546,388.34937,69,62,0
388.13947,388.34937,72,63,0
388.15344,388.34937,77,65,0
388.34937,388.4613,59,64,0
388.4613,388.57324,60,59,0
388.57324,388.6665,63,64,0
388.64786,388.74115,61,64,0
388.72247,388.78778,60,60,0
388.79712,389.021,60,72,0
389.021,389.24826,70,71,0
389.24826,389.47552,69,69,0
389.51816,389.70282,81,63,0
389.47552,389.70282,69,58,0
389.48975,389.70282,72,59,0
389.50394,389.70282,77,61,0
389.70282,389.81476,59,59,0
389.81476,389.9267,60,56,0
389.9267,390.02,63,59,0
390.0013,390.0946,61,59,0
390.07596,390.14124,60,55,0
390.15057,390.37445,60,67,0
390.37445,390.59833,70,67,0
390.59833,390.8222,69,64,0
390.86484,391.0495,81,58,0
390.8222,391.0495,69,54,0
390.83643,391.0495,72,54,0
390.85062,391.0495,77,56,0
391.0495,391.18942,47,53,0
391.16144,391.30136,48,51,0
391.27338,391.36664,51,53,0
391.348,391.44128,49,53,0
391.4226,391.4879,48,49,0
391.49725,391.75366,48,59,0
391.75366,391.87662,58,56,0
391.99957,392.1225,57,58,0
392.24545,392.4845,53,62,0
392.4845,392.6339,47,46,0
392.60403,392.75342,48,43,0
392.72354,392.82315,51,46,0
392.80322,392.90283,49,46,0
392.8829,392.95264,48,42,0
392.9626,393.2201,48,51,0
393.2201,393.35464,58,52,0
393.48917,393.63623,57,52,0
393.78326,394.05115,53,56,0
395.60608,395.76843,47,47,0
395.73596,395.8983,48,44,0
395.8658,395.97406,51,47,0
395.9524,396.06064,49,47,0
396.03897,396.11475,48,44,0
396.12555,396.25543,48,55,0
396.3853,396.52292,58,52,0
396.66052,396.8076,57,49,0
396.95465,397.24173,53,55,0
398.10297,398.43265,46,46,0
398.43265,398.84644,45,45,0
398.84644,399.875,41,46,0
401.0931,401.16455,57,29,0
401.16455,401.23596,58,31,0
401.23596,401.3074,61,33,0
401.3074,401.42105,65,37,0
401.76196,401.83337,57,29,0
401.83337,401.90482,58,31,0
401.90482,401.97623,61,32,0
401.97623,403.32962,65,43,0
403.32962,403.42337,58,100,0
403.89212,405.01712,82,78,0
403.89212,405.01712,90,92,0
403.89212,405.01712,94,92,0
405.01712,405.29837,87,61,0
405.01712,405.29837,84,61,0
405.01712,405.29837,75,51,0
405.29837,405.39212,89,68,0
405.29837,405.39212,84,68,0
405.29837,405.39212,77,57,0
405.39212,405.5962,90,71,0
405.39212,405.5962,84,71,0
405.39212,405.5962,78,60,0
405.5962,405.8003,89,68,0
405.5962,405.8003,85,68,0
405.5962,405.8003,77,57,0
406.00436,406.0724,57,27,0
406.0724,406.1404,58,29,0
406.1404,406.20844,61,30,0
406.20844,406.3105,65,35,0
406.6166,406.68463,57,27,0
406.68463,406.75266,58,29,0
406.75266,406.82068,61,30,0
406.82068,407.95276,65,39,0
407.95276,408.03973,56,100,0
408.47452,409.51797,80,76,0
408.47452,409.51797,89,90,0
408.47452,409.51797,92,90,0
409.51797,409.77884,87,60,0
409.51797,409.77884,84,60,0
409.51797,409.77884,75,51,0
409.77884,409.86948,89,65,0
409.77884,409.86948,84,65,0
409.77884,409.86948,77,55,0
409.86948,410.06302,90,70,0
409.86948,410.06302,84,70,0
409.86948,410.06302,78,59,0
410.06302,410.23694,89,67,0
410.06302,410.23694,85,67,0
410.06302,410.23694,77,56,0
410.58478,410.9326,77,81,0
410.58478,410.9326,69,81,0
411.1065,411.48505,65,81,0
411.1065,411.48505,57,81,0
415.04865,415.1176,57,27,0
415.1176,415.18658,58,29,0
415.18658,415.25555,61,30,0
415.25555,415.359,65,34,0
415.66934,415.7383,57,29,0
415.7383,415.80728,58,30,0
415.80728,415.87625,61,31,0
415.87625,417.1176,65,39,0
417.1176,417.21136,58,100,0
417.6801,418.52386,94,92,0
417.6801,418.52386,90,92,0
417.6801,418.52386,82,78,0
418.52386,418.6176,75,49,0
418.52386,418.6176,84,58,0
418.52386,418.6176,87,58,0
418.6176,418.8051,75,49,0
418.6176,418.8051,84,58,0
418.6176,418.8051,87,58,0
418.8051,419.08636,87,61,0
418.8051,419.08636,84,61,0
418.8051,419.08636,75,51,0
419.08636,419.1801,77,57,0
419.08636,419.1801,89,68,0
419.08636,419.1801,84,68,0
419.1801,419.38422,90,71,0
419.1801,419.38422,78,60,0
419.1801,419.38422,84,71,0
419.38422,419.5883,89,68,0
419.38422,419.5883,77,57,0
419.38422,419.5883,85,68,0
419.79236,419.86038,57,29,0
419.86038,419.9284,58,30,0
419.9284,419.99646,61,32,0
419.99646,420.09848,65,37,0
420.4046,420.47263,57,29,0
420.47263,420.54065,58,30,0
420.54065,420.6087,61,32,0
420.6087,421.67612,65,39,0
421.67612,421.75967,48,100,0
422.17752,423.1803,96,90,0
422.17752,423.1803,92,90,0
422.17752,423.1803,84,76,0
423.1803,423.431,79,51,0
423.1803,423.431,88,60,0
423.1803,423.431,91,60,0
423.431,423.52164,92,65,0
423.431,423.52164,88,65,0
423.431,423.52164,80,55,0
423.52164,423.71518,94,70,0
423.52164,423.71518,88,70,0
423.52164,423.71518,82,59,0
423.71518,423.8891,80,56,0
423.71518,423.8891,89,67,0
423.71518,423.8891,92,67,0
424.2369,424.59946,77,81,0
424.2369,424.59946,72,81,0
424.2369,424.59946,80,81,0
424.2369,424.59946,68,68,0
424.78073,425.20325,65,81,0
424.78073,425.20325,60,81,0
424.78073,425.20325,68,81,0
424.78073,425.20325,56,68,0
426.59872,427.3527,41,94,0
427.3527,427.4509,38,50,0
427.44006,427.53653,39,51,0
427.5259,427.6207,41,51,0
427.6103,427.69287,39,52,0
427.69287,427.78378,41,53,0
427.7737,427.86478,39,55,0
427.85153,427.94376,41,56,0
427.93652,428.02917,39,56,0
428.0189,428.11188,41,57,0
428.1015,428.1741,39,58,0
428.16373,428.23636,41,59,0
428.22598,428.29858,39,60,0
428.2882,428.36093,41,61,0
428.34735,428.41064,39,62,0
428.41385,428.49084,41,62,0
428.47964,428.5595,39,62,0
428.54782,428.63095,41,63,0
428.6188,428.74286,39,64,0
428.7181,428.9409,38,73,0
428.91614,429.1247,39,73,0
429.11414,430.0716,101,97,0
430.0716,430.1601,99,68,0
430.1601,430.2486,97,62,0
430.2486,430.3371,92,65,0
430.3371,430.42557,89,60,0
430.42557,430.51407,87,62,0
430.51407,430.60257,85,57,0
430.60257,430.69107,80,58,0
430.69107,430.77957,77,52,0
430.77957,430.86807,75,55,0
430.86807,430.95654,73,51,0
430.95654,431.13354,68,52,0
431.48752,431.5764,72,55,0
431.5764,431.66556,73,52,0
431.66556,431.75522,75,50,0
431.75522,431.8452,77,47,0
431.8452,431.93567,78,45,0
431.9304,432.02118,80,42,0
432.02652,432.1356,81,40,0
432.63943,432.7297,81,50,0
432.7297,432.8196,80,49,0
432.8196,432.9091,79,47,0
432.9091,432.99817,78,46,0
432.99817,433.08685,77,44,0
433.08685,433.17514,76,42,0
433.17514,433.28268,75,41,0
433.78494,434.65714,101,97,0
434.65714,434.74384,99,68,0
434.74384,434.83054,97,61,0
434.83054,434.91724,92,65,0
434.91724,435.00394,89,59,0
435.00394,435.09064,87,62,0
435.09064,435.17734,85,57,0
435.17734,435.26407,80,58,0
435.26407,435.35077,77,57,0
435.35077,435.43747,75,55,0
435.43747,435.52417,73,51,0
435.52417,435.69708,68,52,0
436.0429,436.1312,72,42,0
436.1312,436.21976,73,41,0
436.21976,436.30862,75,41,0
436.30862,436.3978,77,40,0
436.3978,436.4873,78,39,0
436.48206,436.57187,80,38,0
436.57712,436.66693,81,37,0
437.11603,437.20428,81,42,0
437.20428,437.2925,80,41,0
437.2925,437.38074,79,40,0
437.38074,437.469,78,39,0
437.469,437.55722,77,37,0
437.55722,437.64545,76,36,0
437.64545,437.83606,75,35,0
438.25174,439.18198,77,59,0
439.18198,439.53595,75,53,0
439.53595,439.65347,73,52,0
438.25174,439.66415,71,40,0
439.66415,440.35916,73,56,0
439.66415,440.35916,71,38,0
440.35916,441.00565,70,56,0
440.35916,441.42816,78,56,0
441.42816,441.63803,77,52,0
441.64716,441.8623,77,51,0
441.8623,442.07974,75,50,0
442.07974,442.32922,73,49,0
441.00565,442.32922,71,50,0
442.32922,442.97287,82,56,0
442.32922,442.97287,73,44,0
442.32922,442.97287,70,44,0
442.97287,443.46255,82,62,0
443.66525,443.73282,67,44,0
442.97287,443.73282,68,44,0
442.97287,443.73282,73,44,0
443.46255,443.73282,82,64,0
443.73282,444.2109,82,68,0
444.2109,444.476,75,57,0
444.476,444.71225,75,57,0
444.71225,444.7713,77,51,0
444.7713,444.83035,79,51,0
444.83035,445.08786,77,56,0
445.08786,445.21945,75,56,0
443.73282,445.2314,73,45,0
445.2314,445.87888,75,59,0
445.2314,445.87888,73,49,0
445.87888,446.487,72,53,0
445.87888,446.6897,80,64,0
446.6897,446.8924,79,60,0
446.8924,447.1022,77,59,0
447.1022,447.31198,79,60,0
447.31198,447.73215,77,59,0
447.73215,447.89697,75,56,0
446.487,447.89697,73,55,0
447.89697,448.5457,84,56,0
448.5457,449.10645,84,64,0
449.10645,449.4013,84,63,0
447.89697,449.41412,72,56,0
449.41412,450.4183,84,68,0
450.4183,450.77264,82,63,0
450.77264,450.88065,80,63,0
450.88928,451.49744,80,63,0
451.49744,452.09152,85,75,0
452.09152,452.48755,85,82,0
452.48755,452.6773,84,78,0
452.68558,452.8939,84,75,0
452.8939,453.25473,82,71,0
453.25473,453.38025,80,63,0
453.38025,454.1334,89,80,0
454.1334,454.7159,89,77,0
454.7159,455.05817,89,81,0
455.07306,455.85376,89,85,0
455.85376,456.1169,87,72,0
456.1169,456.38007,85,71,0
456.38007,456.64322,82,70,0
456.64322,457.4327,84,75,0
457.4327,457.69586,82,71,0
457.69586,457.959,80,68,0
457.959,458.22217,77,63,0
458.22217,458.48532,82,69,0
458.48532,458.74847,80,64,0
458.74847,459.00067,78,61,0
459.01166,459.08014,78,55,0
459.08014,459.14862,80,55,0
459.14862,459.2856,78,63,0
459.2856,459.75757,77,58,0
459.75757,459.91382,76,59,0
459.92804,460.796,76,59,0
460.796,461.34897,77,63,0
461.34897,461.6076,80,57,0
461.6076,462.11392,68,57,0
461.6709,462.3671,80,57,0
462.3671,462.66708,84,63,0
462.11392,462.66708,72,63,0
462.66708,463.02142,82,63,0
462.66708,463.02142,70,63,0
463.02142,463.12946,80,63,0
463.02142,463.12946,68,63,0
463.13806,463.74625,68,63,0
463.74625,464.3403,85,75,0
463.74625,464.3403,73,75,0
463.13806,464.3403,80,63,0
464.3403,464.63733,85,75,0
464.3403,464.63733,73,75,0
464.63733,464.73633,84,71,0
464.3403,464.73633,78,60,0
464.3403,464.73633,80,60,0
464.63733,464.73633,75,71,0
464.73633,464.93436,84,78,0
464.73633,464.93436,80,60,0
464.73633,464.93436,78,60,0
464.73633,464.93436,72,78,0
464.93436,465.26035,84,75,0
464.93436,465.26035,80,60,0
464.93436,465.26035,78,60,0
464.93436,465.26035,72,75,0
465.26035,465.378,82,71,0
465.26035,465.378,70,71,0
465.378,465.61896,80,63,0
465.378,465.61896,68,63,0
465.378,465.61896,78,60,0
465.61896,466.34183,89,80,0
465.61896,466.34183,77,68,0
465.61896,466.34183,80,80,0
466.34183,466.86816,89,77,0
466.34183,466.86816,80,77,0
466.34183,466.86816,77,65,0
466.86816,467.16815,89,78,0
466.86816,467.16815,80,78,0
466.86816,467.16815,77,66,0
467.16815,467.94885,89,82,0
467.16815,467.94885,80,82,0
467.16815,467.94885,77,69,0
467.94885,468.212,87,67,0
467.94885,468.212,75,56,0
467.94885,468.212,78,67,0
468.212,468.6188,85,65,0
468.212,468.6188,78,65,0
468.212,468.6188,73,55,0
468.6188,468.76587,82,64,0
468.6188,468.76587,78,64,0
468.6188,468.76587,70,54,0
468.76587,469.55536,84,62,0
468.76587,469.55536,80,62,0
468.76587,469.55536,72,52,0
469.55536,469.77194,82,64,0
469.55536,469.77194,78,64,0
469.55536,469.77194,70,54,0
469.77194,469.98856,80,68,0
469.77194,469.98856,77,68,0
469.77194,469.98856,68,57,0
469.98856,470.22385,82,72,0
469.98856,470.22385,77,72,0
469.98856,470.22385,70,61,0
470.22385,470.69446,83,77,0
470.22385,470.69446,71,65,0
470.22385,470.69446,77,77,0
470.69446,470.92975,82,75,0
470.69446,470.92975,70,63,0
470.69446,470.92975,77,75,0
470.92975,472.1062,83,78,0
470.92975,472.1062,77,78,0
470.92975,472.1062,71,66,0
472.1062,472.31528,82,76,0
472.1062,472.31528,77,76,0
472.1062,472.31528,70,64,0
472.31528,472.52145,83,81,0
472.31528,472.52145,77,81,0
472.31528,472.52145,71,68,0
472.52145,472.72763,82,78,0
472.52145,472.72763,77,78,0
472.52145,472.72763,70,66,0
472.72763,472.93384,83,78,0
472.72763,472.93384,77,78,0
472.72763,472.93384,71,66,0
472.93384,473.3462,83,81,0
472.93384,473.3462,78,81,0
472.93384,473.3462,71,68,0
473.3462,473.6015,82,82,0
473.3462,473.6015,78,82,0
473.3462,473.6015,70,69,0
473.6015,474.76883,85,88,0
473.6015,474.76883,79,88,0
473.6015,474.76883,73,74,0
474.76883,474.97787,84,82,0
474.76883,474.97787,79,82,0
474.76883,474.97787,72,69,0
474.97787,475.18408,85,86,0
474.97787,475.18408,79,86,0
474.97787,475.18408,73,73,0
475.18408,475.39026,84,81,0
475.18408,475.39026,79,81,0
475.18408,475.39026,72,68,0
475.39026,475.59644,85,85,0
475.39026,475.59644,79,85,0
475.39026,475.59644,73,72,0
475.59644,476.00882,85,88,0
475.59644,476.00882,80,88,0
475.59644,476.00882,73,74,0
476.00882,476.24228,84,91,0
476.00882,476.24228,80,91,0
476.00882,476.24228,72,77,0
476.24228,476.65466,87,90,0
476.24228,476.65466,75,76,0
476.24228,476.65466,81,90,0
476.65466,476.86084,75,74,0
476.65466,476.86084,81,88,0
476.65466,476.86084,87,88,0
476.86084,477.2732,75,78,0
476.86084,477.2732,80,92,0
476.86084,477.2732,87,92,0
477.2732,477.50308,74,74,0
477.2732,477.50308,80,88,0
477.2732,477.50308,86,88,0
477.50308,477.91547,77,84,0
477.50308,477.91547,83,99,0
477.50308,477.91547,89,99,0
477.91547,478.12164,77,80,0
477.91547,478.12164,83,95,0
477.91547,478.12164,89,95,0
478.12164,478.53403,77,81,0
478.12164,478.53403,82,96,0
478.12164,478.53403,89,96,0
478.53403,478.77594,76,81,0
478.53403,478.77594,82,96,0
478.53403,478.77594,88,96,0
478.77594,479.1912,79,85,0
478.77594,479.1912,85,101,0
478.77594,479.1912,91,101,0
479.1912,479.40936,79,83,0
479.1912,479.40936,85,98,0
479.1912,479.40936,91,98,0
479.40936,479.84573,79,83,0
479.40936,479.84573,84,98,0
479.40936,479.84573,91,98,0
479.84573,480.1274,80,79,0
479.84573,480.1274,84,94,0
479.84573,480.1274,92,94,0
480.1274,480.64914,81,93,0
480.1274,480.64914,84,110,0
480.1274,480.64914,93,110,0
480.64914,480.9002,72,79,0
480.64914,480.9002,78,94,0
480.64914,480.9002,84,94,0
480.9002,481.0615,73,92,0
480.9002,481.0615,77,109,0
480.9002,481.0615,85,109,0
481.52017,481.6148,65,97,0
481.6148,481.70944,73,75,0
481.70944,481.8041,80,79,0
481.8041,481.89874,77,83,0
481.89874,481.99338,85,87,0
481.99338,482.088,94,91,0
482.088,482.27728,92,96,0
482.088,482.27728,84,96,0
482.65582,482.74814,66,97,0
482.74814,482.84045,72,75,0
482.84045,482.93274,80,80,0
482.93274,483.02505,78,84,0
483.02505,483.11737,84,88,0
483.11737,483.2097,92,93,0
483.2097,483.3943,89,97,0
483.2097,483.3943,85,97,0
483.76352,483.85815,65,97,0
483.85815,483.9528,73,75,0
483.9528,484.04742,80,79,0
484.04742,484.14206,77,83,0
484.14206,484.2367,85,87,0
484.2367,484.33136,94,91,0
484.33136,484.52063,92,96,0
484.33136,484.52063,84,96,0
484.89917,484.99063,66,97,0
484.99063,485.0821,72,75,0
485.0821,485.17355,80,80,0
485.17355,485.265,78,84,0
485.265,485.35648,84,88,0
485.35648,485.40222,92,93,0
485.40222,485.4954,85,100,0
485.4954,485.6644,97,113,0
485.6644,485.7489,95,111,0
485.7489,485.8334,93,103,0
485.8334,485.9219,88,107,0
485.9219,486.0104,85,98,0
486.0104,486.09308,83,102,0
486.09308,486.1761,81,94,0
486.1761,486.25934,76,98,0
486.25934,486.34293,73,91,0
486.34293,486.42685,71,94,0
486.42685,486.51105,69,85,0
486.51105,486.59555,64,90,0
486.59555,486.68005,61,82,0
486.68005,486.76456,59,85,0
486.76456,486.84906,57,77,0
486.84906,487.02554,52,81,0
487.02554,487.36646,65,93,0
487.02554,487.36646,53,93,0
487.36646,487.4943,64,87,0
487.36646,487.4943,52,87,0
487.4943,487.58746,85,100,0
487.58746,487.75647,97,113,0
487.75647,487.84097,95,111,0
487.84097,487.92548,93,103,0
487.92548,488.01398,88,107,0
488.01398,488.10248,85,98,0
488.10248,488.18558,83,102,0
488.18558,488.26892,81,96,0
488.26892,488.35248,76,98,0
488.35248,488.43628,73,91,0
488.43628,488.52032,71,94,0
488.52032,488.60458,69,87,0
488.60458,488.6891,64,90,0
488.6891,488.7736,61,82,0
488.7736,488.8581,59,85,0
488.8581,488.9426,57,78,0
488.9426,489.11908,52,81,0
489.11908,489.45148,65,93,0
489.11908,489.45148,53,93,0
489.45148,489.6177,64,87,0
489.45148,489.6177,52,87,0
489.6177,489.72433,65,87,0
489.6177,489.72433,53,87,0
489.7599,489.83096,53,43,0
489.83096,489.90207,57,45,0
489.90207,489.97314,61,46,0
489.97314,490.04425,65,48,0
490.04425,490.1864,77,54,0
490.04425,490.1864,73,54,0
490.1864,490.2575,53,43,0
490.2575,490.32858,57,44,0
490.32858,490.3997,61,45,0
490.3997,490.47076,65,46,0
490.47076,490.61295,77,54,0
490.47076,490.61295,73,54,0
490.61295,490.68542,53,46,0
490.68542,490.75787,58,46,0
490.75787,490.83035,61,47,0
490.83035,490.9028,65,47,0
490.9028,491.04773,77,54,0
490.9028,491.04773,73,54,0
491.04773,491.1209,53,45,0
491.1209,491.1941,58,46,0
491.1941,491.26724,62,47,0
491.26724,491.34042,65,49,0
491.34042,491.48676,77,55,0
491.34042,491.48676,74,55,0
491.48676,491.55994,54,46,0
491.55994,491.63312,58,47,0
491.63312,491.70627,62,48,0
491.70627,491.77945,66,49,0
491.77945,491.92578,78,57,0
491.77945,491.92578,74,57,0
491.92578,492.00003,54,47,0
492.00003,492.0743,58,48,0
492.0743,492.14856,63,49,0
492.14856,492.2228,66,51,0
492.2228,492.37134,78,57,0
492.2228,492.37134,75,57,0
492.37134,492.4456,55,47,0
492.4456,492.51984,61,48,0
492.51984,492.59412,64,50,0
492.59412,492.66837,67,51,0
492.66837,492.81686,79,60,0
492.66837,492.81686,76,60,0
492.81686,492.89206,68,56,0
492.89206,492.96725,73,60,0
492.96725,493.04245,77,63,0
493.1176,493.268,85,77,0
493.04245,493.268,80,67,0
493.1176,493.268,92,77,0
493.1176,493.268,89,77,0
493.4184,493.4668,60,63,0
493.4668,493.51523,61,64,0
493.51523,493.56366,65,66,0
493.56366,493.70892,68,68,0
493.85422,493.90265,59,62,0
493.90265,493.95108,60,63,0
493.95108,493.99948,65,65,0
493.99948,494.14478,68,67,0
494.29004,494.33847,57,62,0
494.33847,494.3869,58,64,0
494.3869,494.43533,65,66,0
494.43533,494.57684,68,68,0
494.85986,495.00137,56,86,0
495.2844,495.85043,80,90,0
495.2844,495.85043,89,90,0
495.2844,495.85043,92,90,0
495.85043,496.00586,92,77,0
495.85043,496.00586,87,77,0
495.85043,496.00586,80,77,0
496.00586,496.1555,92,77,0
496.00586,496.1555,89,77,0
496.00586,496.1555,80,77,0
496.1555,496.3022,92,75,0
496.1555,496.3022,87,75,0
496.1555,496.3022,80,75,0
496.3022,496.44888,92,80,0
496.3022,496.44888,89,80,0
496.3022,496.44888,80,80,0
496.44888,496.58746,87,79,0
496.44888,496.58746,92,79,0
496.44888,496.58746,80,79,0
496.58746,496.69138,80,90,0
496.58746,496.69138,92,90,0
496.58746,496.69138,89,90,0
496.58746,496.69138,85,90,0
496.8646,496.91302,60,63,0
496.91302,496.96146,61,64,0
496.96146,497.0099,65,66,0
497.0099,497.15515,68,68,0
497.30045,497.34885,59,62,0
497.34885,497.39728,60,63,0
497.39728,497.4457,65,65,0
497.4457,497.59097,68,67,0
497.73627,497.7847,57,62,0
497.7847,497.83313,58,64,0
497.83313,497.88153,65,66,0
497.88153,498.02304,68,68,0
498.30606,498.44757,56,86,0
498.7306,499.29663,80,90,0
498.7306,499.29663,89,90,0
498.7306,499.29663,92,90,0
499.29663,499.4521,92,74,0
499.29663,499.4521,87,74,0
499.29663,499.4521,80,74,0
499.4521,499.6017,92,71,0
499.4521,499.6017,89,71,0
499.4521,499.6017,80,71,0
499.6017,499.7484,92,68,0
499.6017,499.7484,87,68,0
499.6017,499.7484,80,68,0
499.7484,499.8951,92,66,0
499.7484,499.8951,89,66,0
499.7484,499.8951,80,66,0
499.8951,500.03366,87,63,0
499.8951,500.03366,92,63,0
499.8951,500.03366,80,63,0
500.03366,500.3089,89,59,0
500.3089,500.4465,87,59,0
500.03366,500.4465,80,59,0
500.03366,500.4465,92,59,0
500.4465,500.72174,89,58,0
500.72174,500.85748,87,58,0
500.4465,500.85748,81,58,0
500.4465,500.85748,93,58,0
500.85748,501.129,89,60,0
501.129,501.26474,87,58,0
500.85748,501.26474,93,60,0
500.85748,501.26474,81,60,0
501.26474,501.53622,90,62,0
501.53622,501.67075,88,63,0
501.26474,501.67075,94,62,0
501.26474,501.67075,82,62,0
501.67075,501.93982,90,64,0
501.93982,502.07434,88,70,0
501.67075,502.07434,94,64,0
501.67075,502.07434,82,64,0
502.07434,502.34338,91,74,0
502.34338,502.47794,89,73,0
502.07434,502.47794,95,74,0
502.07434,502.47794,83,74,0
502.47794,502.74698,91,78,0
502.74698,502.8875,89,78,0
502.47794,502.8875,95,78,0
502.47794,502.8875,83,78,0
502.8875,503.16852,92,84,0
503.16852,503.32767,90,86,0
502.8875,503.32767,84,84,0
502.8875,503.32767,96,84,0
503.32767,503.48154,101,101,0
503.48154,503.55844,99,100,0
503.55844,503.63538,97,96,0
503.63538,503.7123,92,98,0
503.7123,503.7892,89,93,0
503.7892,503.8652,87,95,0
503.8652,503.94144,85,89,0
503.94144,504.0179,80,92,0
504.0179,504.0947,77,86,0
504.0947,504.17172,75,89,0
504.17172,504.24905,73,83,0
504.24905,504.32635,68,86,0
504.32635,504.4037,65,81,0
504.4037,504.481,63,83,0
504.481,504.55832,61,79,0
504.55832,504.71497,56,80,0
504.71497,505.01648,69,88,0
504.71497,505.01648,57,88,0
505.01648,505.16724,68,83,0
505.01648,505.16724,56,83,0
504.71497,505.16724,65,64,0
505.16724,505.32108,101,100,0
505.32108,505.398,99,99,0
505.398,505.4749,97,92,0
505.4749,505.55185,92,96,0
505.55185,505.62878,89,91,0
505.62878,505.70474,87,93,0
505.70474,505.781,85,88,0
505.781,505.85745,80,90,0
505.85745,505.93427,77,86,0
505.93427,506.01126,75,87,0
506.01126,506.0886,73,81,0
506.0886,506.16592,68,84,0
506.16592,506.24323,65,79,0
506.24323,506.32056,63,82,0
506.32056,506.39786,61,76,0
506.39786,506.55453,56,79,0
506.55453,506.84866,69,82,0
506.55453,506.84866,57,82,0
506.84866,506.9957,68,77,0
506.84866,506.9957,56,77,0
506.55453,506.9957,65,82,0
506.9957,507.14276,68,70,0
506.9957,507.14276,65,70,0
506.9957,507.14276,56,70,0
507.42917,507.71762,69,82,0
507.42917,507.71762,57,82,0
507.71762,507.86185,68,77,0
507.71762,507.86185,56,77,0
507.86185,508.00607,68,71,0
507.86185,508.00607,65,71,0
507.86185,508.00607,56,71,0
508.28516,508.56683,69,83,0
508.28516,508.56683,57,83,0
508.56683,508.7077,68,77,0
508.56683,508.7077,56,77,0
508.7077,508.8453,68,74,0
508.7077,508.8453,65,74,0
508.7077,508.8453,56,74,0
509.12054,509.39896,69,86,0
509.12054,509.39896,57,86,0
509.39896,509.54214,68,81,0
509.39896,509.54214,56,81,0
509.54214,509.64957,69,71,0
509.54214,509.64957,65,71,0
509.54214,509.64957,57,71,0
509.68536,509.79276,68,73,0
509.68536,509.79276,65,73,0
509.68536,509.79276,56,73,0
509.82855,509.93393,69,74,0
509.82855,509.93393,65,74,0
509.82855,509.93393,57,74,0
509.96906,510.07446,68,76,0
509.96906,510.07446,65,76,0
509.96906,510.07446,56,76,0
510.1096,510.21304,69,77,0
510.1096,510.21304,65,77,0
510.1096,510.21304,57,77,0
510.2475,510.35095,68,79,0
510.2475,510.35095,65,79,0
510.2475,510.35095,56,79,0
510.38544,510.49182,69,89,0
510.38544,510.49182,65,89,0
510.38544,510.49182,57,89,0
510.81097,510.95282,72,100,0
510.81097,510.95282,60,85,0
510.81097,510.95282,64,85,0
510.81097,510.95282,70,100,0
511.2365,511.37836,77,100,0
511.2365,511.37836,69,85,0
511.2365,511.37836,72,100,0
511.2365,511.37836,81,100,0
511.66205,511.8039,80,100,0
511.66205,511.8039,68,85,0
511.66205,511.8039,72,100,0
511.66205,511.8039,66,85,0
511.66205,511.8039,78,100,0
511.66205,511.8039,75,100,0
512.0876,512.5131,77,100,0
512.0876,512.5131,65,85,0
512.0876,512.5131,68,85,0
512.0876,512.5131,73,100,0
512.93866,513.3787,65,101,0
512.93866,513.3787,53,85,0
512.93866,513.3787,56,85,0
512.93866,513.3787,61,101,0
513.7455,513.9538,73,87,0
513.7455,513.9538,68,87,0
513.7455,513.9538,61,73,0
513.9538,515.67334,101,123,0
0.0009363292,0.45033085,46,41,0
0.449438,0.5208665,45,27,0
0.5208665,0.592295,46,28,0
0.592295,0.6637235,49,29,0
0.6637235,0.7773597,53,33,0
1.1182685,1.189697,45,26,0
1.189697,1.2611254,46,27,0
1.2611254,1.332554,49,29,0
1.332554,1.445336,53,32,0
2.685938,2.779688,46,95,0
2.685938,2.779688,34,95,0
3.248438,4.373438,70,85,0
3.248438,4.373438,63,85,0
3.248438,4.373438,58,72,0
3.248438,4.373438,60,72,0
3.248438,4.373438,66,85,0
4.373438,4.654688,70,56,0
4.373438,4.654688,63,56,0
4.373438,4.654688,58,47,0
4.373438,4.654688,60,47,0
4.373438,4.654688,66,56,0
4.654688,4.748438,70,61,0
4.654688,4.748438,63,61,0
4.654688,4.748438,58,51,0
4.654688,4.748438,60,51,0
4.654688,4.748438,66,61,0
4.748438,4.9525194,70,66,0
4.748438,4.9525194,63,66,0
4.748438,4.9525194,58,56,0
4.748438,4.9525194,60,56,0
4.748438,4.9525194,66,66,0
4.9525194,5.156601,70,62,0
4.9525194,5.156601,58,52,0
4.9525194,5.156601,61,52,0
4.9525194,5.156601,65,62,0
5.3606825,5.4287095,45,27,0
5.4287095,5.496737,46,28,0
5.496737,5.564764,49,30,0
5.564764,5.666805,53,33,0
5.972927,6.040954,45,26,0
6.040954,6.108981,46,28,0
6.108981,6.1770086,49,30,0
6.1770086,6.271348,53,34,0
7.3090825,7.396039,44,95,0
7.3090825,7.396039,32,95,0
7.8308215,8.874299,73,89,0
7.8090825,8.874299,65,76,0
7.787343,8.874299,56,72,0
8.874299,9.135169,68,58,0
8.874299,9.135169,56,49,0
8.874299,9.135169,63,58,0
8.874299,9.135169,66,58,0
9.135169,9.225803,68,63,0
9.135169,9.225803,56,53,0
9.135169,9.225803,63,63,0
9.135169,9.225803,66,63,0
9.225803,9.419352,68,68,0
9.225803,9.419352,56,57,0
9.225803,9.419352,63,68,0
9.225803,9.419352,66,68,0
9.419352,9.593265,65,65,0
9.419352,9.593265,61,55,0
9.419352,9.593265,68,65,0
9.941091,10.288917,53,65,0
9.941091,10.288917,60,77,0
9.941091,10.288917,65,77,0
10.46283,10.841379,53,77,0
10.46283,10.841379,48,77,0
10.46283,10.841379,41,65,0
11.030654,12.412233,41,94,0
11.030654,12.412233,29,79,0
12.412233,12.56026,42,97,0
12.412233,12.56026,30,82,0
14.404974,14.47394,45,27,0
14.47394,14.542905,46,28,0
14.542905,14.611871,49,29,0
14.611871,14.715319,53,33,0
15.025663,15.094629,45,27,0
15.094629,15.163594,46,28,0
15.163594,15.23256,49,29,0
15.23256,15.336008,53,33,0
16.47394,16.56769,34,95,0
16.47394,16.56769,46,95,0
17.03644,17.88019,66,85,0
17.03644,17.88019,60,72,0
17.03644,17.88019,63,85,0
17.03644,17.88019,58,72,0
17.03644,17.88019,70,85,0
17.88019,17.97394,70,56,0
17.88019,17.97394,63,56,0
17.88019,17.97394,58,47,0
17.88019,17.97394,60,47,0
17.88019,17.97394,66,56,0
17.97394,18.16144,70,56,0
17.97394,18.16144,63,56,0
17.97394,18.16144,58,47,0
17.97394,18.16144,60,47,0
17.97394,18.16144,66,56,0
18.16144,18.44269,70,56,0
18.16144,18.44269,60,47,0
18.16144,18.44269,63,56,0
18.16144,18.44269,58,47,0
18.16144,18.44269,66,56,0
18.44269,18.53644,70,61,0
18.44269,18.53644,58,51,0
18.44269,18.53644,60,51,0
18.44269,18.53644,63,61,0
18.44269,18.53644,66,61,0
18.53644,18.74052,70,66,0
18.53644,18.74052,58,56,0
18.53644,18.74052,63,66,0
18.53644,18.74052,66,66,0
18.53644,18.74052,60,56,0
18.74052,18.944601,70,62,0
18.74052,18.944601,65,62,0
18.74052,18.944601,58,52,0
18.74052,18.944601,61,52,0
19.148684,19.216711,45,27,0
19.216711,19.284739,46,29,0
19.284739,19.352764,49,30,0
19.352764,19.454805,53,34,0
19.760927,19.828955,45,24,0
19.828955,19.896982,46,26,0
19.896982,19.96501,49,27,0
19.96501,20.05935,53,32,0
21.03244,21.116005,36,95,0
21.03244,21.116005,24,95,0
21.533833,22.53662,60,63,0
21.533833,22.53662,68,89,0
21.533833,22.53662,72,89,0
21.533833,22.53662,65,63,0
22.53662,22.787315,72,58,0
22.53662,22.787315,60,41,0
22.53662,22.787315,70,58,0
22.53662,22.787315,64,41,0
22.787315,22.877949,70,63,0
22.787315,22.877949,64,45,0
22.787315,22.877949,60,45,0
22.787315,22.877949,72,63,0
22.877949,23.071499,72,68,0
22.877949,23.071499,70,68,0
22.877949,23.071499,60,48,0
22.877949,23.071499,64,48,0
23.071499,23.24541,68,65,0
23.071499,23.24541,65,46,0
23.071499,23.24541,72,65,0
23.593237,23.955774,60,77,0
23.593237,23.955774,65,77,0
23.593237,23.955774,53,65,0
24.137045,24.55958,41,65,0
24.137045,24.55958,48,77,0
24.137045,24.55958,53,77,0
24.770847,26.152426,40,94,0
24.770847,26.152426,28,79,0
26.152426,26.300453,41,97,0
26.152426,26.300453,29,82,0
27.731375,27.857956,37,84,0
27.731375,27.857956,25,71,0
28.237703,28.463266,56,45,0
28.237703,28.463266,44,45,0
28.463266,28.688831,53,53,0
28.463266,28.688831,61,53,0
28.865822,29.042812,56,42,0
28.865822,29.042812,44,42,0
29.042812,29.219805,61,47,0
29.042812,29.219805,53,47,0
30.10476,30.193604,44,52,0
30.10476,30.193604,32,44,0
30.643742,30.861923,60,38,0
30.643742,30.861923,55,38,0
30.643742,30.861923,66,38,0
30.861923,31.059292,66,35,0
30.861923,31.059292,60,35,0
30.861923,31.059292,56,35,0
31.059292,31.157976,60,31,0
31.059292,31.157976,56,31,0
31.059292,31.157976,66,31,0
31.79238,32.007435,66,35,0
31.79238,32.007435,60,35,0
31.79238,32.007435,57,35,0
32.007435,32.204803,56,32,0
32.007435,32.204803,60,32,0
32.007435,32.204803,66,32,0
32.204803,32.303486,56,28,0
32.204803,32.303486,60,28,0
32.204803,32.303486,66,28,0
32.402172,32.514954,37,82,0
32.402172,32.514954,25,68,0
32.8533,33.063824,56,45,0
32.8533,33.063824,44,45,0
33.063824,33.274353,53,53,0
33.063824,33.274353,61,53,0
33.44776,33.621174,56,42,0
33.44776,33.621174,44,42,0
33.621174,33.794582,61,47,0
33.621174,33.794582,53,47,0
34.660137,35.19435,54,20,0
34.660137,35.19435,51,20,0
34.660137,35.19435,44,20,0
35.19435,35.284172,60,32,0
35.284172,35.373993,61,32,0
35.373993,35.46381,63,32,0
35.46381,35.55363,65,32,0
35.55363,35.64345,66,32,0
35.64345,35.733273,68,32,0
35.733273,35.821507,69,32,0
36.262684,36.356705,57,30,0
36.356705,36.453297,56,29,0
36.453297,36.552643,55,28,0
36.552643,36.654945,54,27,0
36.654945,36.760303,53,26,0
36.760303,36.86897,51,25,0
36.86897,36.985245,49,30,0
36.985245,37.101524,56,28,0
37.101524,37.217804,61,30,0
37.217804,37.334084,65,34,0
37.334084,37.450363,61,31,0
37.450363,37.566643,56,30,0
37.566643,37.682922,49,28,0
37.682922,37.7992,59,28,0
37.7992,37.91557,61,30,0
37.91557,38.033543,65,31,0
38.033543,38.153194,61,30,0
38.153194,38.2814,59,29,0
38.2814,38.39723,54,28,0
38.39723,38.51306,59,28,0
38.51306,38.62889,61,31,0
38.62889,38.74472,66,34,0
38.74472,38.86055,61,31,0
38.86055,38.97638,59,29,0
38.97638,39.085735,49,30,0
39.085735,39.194458,58,28,0
39.194458,39.30253,61,30,0
39.30253,39.409927,66,33,0
39.409927,39.516716,61,31,0
39.516716,39.62287,58,30,0
39.62287,39.728504,56,30,0
39.728504,39.83414,59,28,0
39.83414,39.939774,61,30,0
39.939774,40.045406,68,33,0
40.045406,40.154896,61,31,0
40.154896,40.264385,59,29,0
40.264385,40.371788,49,30,0
40.371788,40.479546,59,28,0
40.479546,40.58798,61,30,0
40.58798,40.69698,65,31,0
40.69698,40.822502,61,30,0
40.822502,40.94646,59,29,0
40.94646,41.056046,54,32,0
41.056046,41.164703,58,30,0
41.164703,41.27241,61,34,0
41.27241,41.379196,66,35,0
41.379196,41.485104,61,34,0
41.485104,41.590088,58,33,0
41.590088,41.710567,52,33,0
41.710567,41.830498,58,36,0
41.830498,41.95498,61,39,0
41.95498,42.079777,68,37,0
42.079777,42.214912,61,34,0
42.214912,42.350048,58,31,0
42.350048,42.46957,51,36,0
42.46957,42.589092,58,38,0
42.589092,42.708614,61,41,0
42.708614,42.828136,67,45,0
42.828136,42.960293,61,42,0
42.960293,43.093254,58,39,0
43.093254,43.211365,55,39,0
43.211365,43.329475,61,38,0
43.329475,43.447586,63,41,0
43.447586,43.57634,70,46,0
43.57634,43.705097,63,42,0
43.705097,43.848637,61,39,0
43.848637,43.95655,56,38,0
43.95655,44.064465,61,38,0
44.064465,44.17238,63,42,0
44.17238,44.280293,68,45,0
44.280293,44.388206,63,41,0
44.388206,44.49612,61,38,0
44.49612,44.597473,51,38,0
44.597473,44.698822,60,37,0
44.698822,44.800175,63,40,0
44.800175,44.901524,68,44,0
44.901524,45.002876,63,41,0
45.002876,45.10423,60,39,0
45.10423,45.205578,58,39,0
45.205578,45.30693,61,37,0
45.30693,45.40828,63,40,0
45.40828,45.509632,70,42,0
45.509632,45.61453,63,41,0
45.61453,45.71942,61,39,0
45.71942,45.824318,51,38,0
45.824318,45.92921,61,36,0
45.92921,46.056873,63,38,0
46.056873,46.184532,67,40,0
46.184532,46.349365,63,40,0
46.349365,46.514202,61,37,0
46.514202,46.624294,56,38,0
46.624294,46.733585,60,40,0
46.733585,46.842083,63,44,0
46.842083,46.949802,68,45,0
46.949802,47.056755,63,44,0
47.056755,47.162914,60,42,0
47.3031,47.443287,56,41,0
47.443287,47.583473,60,45,0
47.583473,47.723663,63,49,0
47.723663,47.877506,60,47,0
47.877506,48.031353,56,41,0
47.162914,48.031353,55,40,0
48.156876,48.282402,56,36,0
48.282402,48.407925,60,39,0
48.407925,48.533447,63,42,0
48.533447,48.65897,60,41,0
48.65897,48.784492,56,38,0
48.031353,48.784492,54,36,0
48.910015,49.035538,56,41,0
49.035538,49.15365,60,41,0
49.15365,49.27176,63,41,0
49.27176,49.38987,60,38,0
49.38987,49.50651,56,35,0
48.784492,49.50651,54,38,0
49.609715,49.712162,56,33,0
49.712162,49.81388,61,36,0
49.81388,49.914856,65,39,0
49.914856,50.015137,61,37,0
50.015137,50.11468,56,35,0
49.50651,50.11468,53,33,0
50.11468,50.21369,53,35,0
50.21369,50.312702,56,38,0
50.312702,50.411713,61,41,0
50.411713,50.510723,68,42,0
50.510723,50.609734,61,40,0
50.609734,50.70874,56,37,0
50.70874,50.80775,51,35,0
50.80775,50.90676,56,38,0
50.90676,51.00577,60,41,0
51.00577,51.104782,66,41,0
51.104782,51.203793,60,39,0
51.203793,51.302803,56,36,0
51.302803,51.406967,51,35,0
51.406967,51.511135,56,34,0
51.511135,51.628784,60,37,0
51.628784,51.74643,66,39,0
51.74643,51.871952,60,36,0
51.871952,51.997475,56,31,0
51.997475,52.122997,50,32,0
52.122997,52.24852,56,31,0
52.24852,52.374043,59,35,0
52.374043,52.49957,65,37,0
52.49957,52.62509,59,36,0
52.62509,52.750614,56,34,0
52.750614,52.896244,50,33,0
52.896244,53.041874,56,30,0
53.041874,53.187508,58,35,0
53.187508,53.333138,65,37,0
53.333138,53.511707,58,36,0
53.511707,53.69028,56,34,0
53.69028,53.82429,51,35,0
53.82429,53.95674,54,35,0
53.95674,54.087578,58,38,0
54.087578,54.21689,63,39,0
54.21689,54.34466,58,38,0
54.34466,54.470978,54,36,0
54.470978,54.60256,42,32,0
54.60256,54.734135,54,31,0
54.734135,54.865715,58,36,0
54.865715,54.997295,63,38,0
54.997295,55.128872,58,36,0
55.128872,55.260452,54,34,0
55.260452,55.392033,44,34,0
55.392033,55.52361,53,36,0
55.52361,55.65519,56,37,0
55.65519,55.78677,61,39,0
55.78677,55.918346,56,37,0
55.918346,56.049927,53,35,0
56.049927,56.181503,44,36,0
56.181503,56.313084,53,34,0
56.313084,56.444664,56,35,0
56.444664,56.57624,61,38,0
56.57624,56.70782,56,37,0
56.70782,56.8394,53,36,0
56.8394,56.970978,44,36,0
56.970978,57.10256,54,34,0
57.10256,57.23414,56,36,0
57.23414,57.365715,60,36,0
57.365715,57.497295,56,35,0
57.497295,57.628876,54,34,0
57.628876,57.76586,44,34,0
57.76586,57.902847,54,31,0
57.902847,58.0536,56,35,0
58.0536,58.204353,60,37,0
58.204353,58.37481,56,35,0
58.37481,58.54526,54,33,0
58.54526,58.695267,49,34,0
58.695267,58.843052,56,33,0
58.843052,58.988686,61,36,0
58.988686,59.13223,65,37,0
59.13223,59.27374,61,36,0
59.27374,59.41321,58,35,0
59.55146,59.68971,61,36,0
59.41321,59.68971,56,37,0
59.68971,59.827957,65,39,0
59.827957,59.966206,68,40,0
59.966206,60.095516,65,39,0
60.095516,60.224827,61,38,0
60.354137,60.483448,56,42,0
60.483448,60.61276,60,42,0
60.61276,60.74207,63,42,0
60.74207,60.87138,60,42,0
60.87138,61.00069,56,42,0
60.224827,61.00069,54,42,0
61.15069,61.30069,56,45,0
61.30069,61.4188,60,45,0
61.4188,61.53691,63,45,0
61.53691,61.655018,60,41,0
61.655018,61.771664,56,38,0
61.00069,61.771664,54,51,0
61.874863,61.97731,56,36,0
61.97731,62.07903,61,39,0
62.07903,62.180008,65,42,0
62.180008,62.280285,61,40,0
62.280285,62.379833,56,38,0
61.771664,62.379833,53,37,0
62.379833,62.478844,53,39,0
62.478844,62.577854,56,41,0
62.577854,62.67686,61,45,0
62.67686,62.77587,68,46,0
62.77587,62.87488,61,44,0
62.87488,62.973892,56,40,0
62.973892,63.072903,51,39,0
63.072903,63.171913,56,41,0
63.171913,63.270924,60,45,0
63.270924,63.369934,66,45,0
63.369934,63.46894,60,42,0
63.46894,63.56795,56,39,0
63.56795,63.67212,51,37,0
63.67212,63.776287,56,37,0
63.776287,63.893932,60,40,0
63.893932,64.01158,66,42,0
64.01158,64.132065,60,39,0
64.132065,64.25254,56,34,0
64.25254,64.373024,50,39,0
64.373024,64.49351,56,37,0
64.49351,64.61399,59,41,0
64.61399,64.734474,65,44,0
64.734474,64.85496,59,42,0
64.85496,64.97543,56,40,0
64.97543,65.10702,50,35,0
65.10702,65.238594,56,36,0
65.238594,65.37017,58,41,0
65.37017,65.501755,65,44,0
65.501755,65.65175,58,42,0
65.65175,65.80175,56,40,0
65.80175,65.93576,51,35,0
65.93576,66.068214,54,38,0
66.068214,66.19905,58,41,0
66.19905,66.32836,63,42,0
66.32836,66.45613,58,41,0
66.45613,66.58245,54,39,0
66.58245,66.71403,42,34,0
66.71403,66.84561,54,34,0
66.84561,66.97719,58,39,0
66.97719,67.1148,63,41,0
67.1148,67.25242,58,39,0
67.25242,67.399475,54,37,0
67.399475,67.53105,44,36,0
67.53105,67.662636,53,39,0
67.662636,67.79421,56,40,0
67.79421,67.92579,61,42,0
67.92579,68.05737,56,40,0
68.05737,68.18895,53,38,0
68.18895,68.29725,44,35,0
68.29725,68.405556,53,35,0
68.405556,68.51386,56,37,0
68.51386,68.62216,61,39,0
68.62216,68.73981,56,37,0
68.73981,68.85746,53,35,0
68.85746,68.975105,44,35,0
68.975105,69.09275,53,37,0
69.09275,69.210396,56,39,0
69.210396,69.32804,62,41,0
69.32804,69.445694,56,39,0
69.445694,69.56334,53,36,0
69.56334,69.680984,44,37,0
69.680984,69.79863,53,39,0
69.79863,69.91628,56,43,0
69.91628,70.03393,62,48,0
70.03393,70.15157,56,45,0
70.15157,70.26922,53,41,0
70.26922,70.38686,44,39,0
70.38686,70.50452,53,40,0
70.50452,70.62216,56,43,0
70.62216,70.73981,62,45,0
70.73981,70.84434,56,42,0
70.84434,70.94887,53,36,0
70.94887,71.05196,44,39,0
71.05196,71.15505,53,40,0
71.15505,71.25815,56,43,0
71.25815,71.36124,62,47,0
71.36124,71.46433,56,44,0
71.46433,71.56742,53,40,0
71.56742,71.67052,44,41,0
71.67052,71.77361,51,43,0
71.77361,71.8767,54,47,0
71.8767,71.9798,63,50,0
71.9798,72.082886,54,46,0
72.082886,72.18598,51,43,0
72.18598,72.28907,44,67,0
72.28907,72.392166,51,50,0
72.392166,72.49526,54,55,0
72.49526,72.59835,63,58,0
72.59835,72.70145,54,55,0
72.70145,72.804535,51,52,0
72.804535,72.90763,44,62,0
72.90763,73.01072,51,50,0
73.01072,73.113815,54,55,0
73.113815,73.21691,60,58,0
73.21691,73.32,54,55,0
73.32,73.423096,51,51,0
73.423096,73.526184,44,67,0
73.526184,73.62928,51,57,0
73.62928,73.73237,54,61,0
73.73237,73.835464,60,65,0
73.835464,73.93856,54,62,0
73.93856,74.04165,51,59,0
74.04165,74.144745,37,71,0
74.45402,74.55711,44,70,0
74.55711,74.66021,53,75,0
74.66021,74.853134,61,83,0
75.23898,75.33545,32,73,0
75.62484,75.7213,44,68,0
75.7213,75.817764,51,74,0
75.817764,76.00238,60,84,0
76.37161,76.46391,37,78,0
76.74084,76.833145,44,70,0
76.833145,76.92545,53,75,0
76.92545,77.11473,61,83,0
77.49328,77.58791,32,78,0
77.871826,77.96647,44,68,0
77.96647,78.061104,51,74,0
78.061104,78.244026,60,84,0
78.609886,78.77655,25,82,0
78.943214,79.02655,44,68,0
79.02655,79.109886,53,74,0
79.109886,79.27649,61,84,0
80.58077,80.67817,37,102,0
80.58077,80.67817,25,86,0
81.165184,81.749596,73,102,0
81.165184,81.749596,61,86,0
83.36619,83.44082,45,27,0
83.44082,83.51544,46,28,0
83.51544,83.59007,49,29,0
83.59007,83.70201,53,34,0
84.037834,84.11246,45,26,0
84.11246,84.18709,46,27,0
84.18709,84.26171,49,29,0
84.26171,84.37365,53,34,0
85.604996,85.698746,46,95,0
85.604996,85.698746,34,95,0
86.167496,87.292496,70,85,0
86.167496,87.292496,63,85,0
86.167496,87.292496,58,72,0
86.167496,87.292496,60,72,0
86.167496,87.292496,66,85,0
87.292496,87.579666,70,56,0
87.292496,87.579666,63,56,0
87.292496,87.579666,58,47,0
87.292496,87.579666,60,47,0
87.292496,87.579666,66,56,0
87.579666,87.67933,70,61,0
87.579666,87.67933,63,61,0
87.579666,87.67933,58,51,0
87.579666,87.67933,60,51,0
87.579666,87.67933,66,61,0
87.67933,87.921265,70,66,0
87.67933,87.921265,63,66,0
87.67933,87.921265,58,56,0
87.67933,87.921265,60,56,0
87.67933,87.921265,66,66,0
87.921265,88.12535,70,62,0
87.921265,88.12535,58,52,0
87.921265,88.12535,61,52,0
87.921265,88.12535,65,62,0
88.32943,88.39745,45,27,0
88.39745,88.465485,46,28,0
88.465485,88.53351,49,30,0
88.53351,88.63555,53,35,0
88.94167,89.009705,45,26,0
89.009705,89.07773,46,28,0
89.07773,89.14575,49,30,0
89.14575,89.2401,53,34,0
90.27783,90.364784,44,95,0
90.27783,90.364784,32,95,0
90.79957,91.84305,73,89,0
90.77783,91.84305,65,89,0
90.75609,91.84305,56,75,0
91.84305,91.97638,68,52,0
91.84305,91.97638,56,44,0
91.84305,91.97638,63,52,0
91.84305,91.97638,66,52,0
91.97638,92.10971,68,52,0
91.97638,92.10971,66,52,0
91.97638,92.10971,63,52,0
91.97638,92.10971,56,44,0
92.10971,92.24304,56,45,0
92.10971,92.24304,68,54,0
92.10971,92.24304,66,54,0
92.10971,92.24304,63,54,0
92.24304,92.36644,56,51,0
92.24304,92.36644,68,61,0
92.24304,92.36644,66,61,0
92.24304,92.36644,63,61,0
92.36644,92.484856,56,49,0
92.36644,92.484856,68,58,0
92.36644,92.484856,66,58,0
92.36644,92.484856,63,58,0
92.484856,92.658775,65,58,0
92.484856,92.658775,61,49,0
92.484856,92.658775,68,58,0
93.0066,93.35442,53,77,0
93.0066,93.35442,60,77,0
93.0066,93.35442,65,77,0
93.528336,93.90688,53,77,0
93.528336,93.90688,48,77,0
93.528336,93.90688,41,77,0
94.09616,95.47774,41,94,0
94.09616,95.47774,29,79,0
95.47774,95.62576,42,97,0
95.47774,95.62576,30,82,0
97.47048,97.539444,45,27,0
97.539444,97.60841,46,28,0
97.60841,97.677376,49,29,0
97.677376,97.78082,53,34,0
98.09117,98.16013,45,27,0
98.16013,98.2291,46,28,0
98.2291,98.298065,49,29,0
98.298065,98.40151,53,34,0
99.539444,99.633194,34,95,0
99.539444,99.633194,46,95,0
100.101944,100.945694,66,85,0
100.101944,100.945694,60,72,0
100.101944,100.945694,63,85,0
100.101944,100.945694,58,72,0
100.101944,100.945694,70,85,0
100.945694,101.039444,70,56,0
100.945694,101.039444,63,56,0
100.945694,101.039444,58,47,0
100.945694,101.039444,60,47,0
100.945694,101.039444,66,56,0
101.039444,101.226944,70,56,0
101.039444,101.226944,63,56,0
101.039444,101.226944,58,47,0
101.039444,101.226944,60,47,0
101.039444,101.226944,66,56,0
101.226944,101.508194,70,56,0
101.226944,101.508194,60,47,0
101.226944,101.508194,63,56,0
101.226944,101.508194,58,47,0
101.226944,101.508194,66,56,0
101.508194,101.601944,70,61,0
101.508194,101.601944,58,51,0
101.508194,101.601944,60,51,0
101.508194,101.601944,63,61,0
101.508194,101.601944,66,61,0
101.601944,101.83541,70,66,0
101.601944,101.83541,58,56,0
101.601944,101.83541,63,66,0
101.601944,101.83541,66,66,0
101.601944,101.83541,60,56,0
101.83541,102.03949,70,62,0
101.83541,102.03949,65,62,0
101.83541,102.03949,58,52,0
101.83541,102.03949,61,52,0
102.24357,102.3116,45,27,0
102.3116,102.37962,46,29,0
102.37962,102.447655,49,30,0
102.447655,102.54969,53,35,0
102.85582,102.92384,45,24,0
102.92384,102.99187,46,26,0
102.99187,103.0599,49,27,0
103.0599,103.154236,53,34,0
104.12733,104.21089,36,95,0
104.12733,104.21089,24,95,0
104.62872,105.63151,60,75,0
104.62872,105.63151,68,89,0
104.62872,105.63151,72,89,0
104.62872,105.63151,65,89,0
105.63151,105.81593,72,69,0
105.63151,105.81593,60,58,0
105.63151,105.81593,70,69,0
105.63151,105.81593,64,69,0
105.81593,106.00036,72,63,0
105.81593,106.00036,60,53,0
105.81593,106.00036,64,63,0
105.81593,106.00036,70,63,0
106.00036,106.15036,70,61,0
106.00036,106.15036,64,61,0
106.00036,106.15036,60,51,0
106.00036,106.15036,72,61,0
106.15036,106.30036,70,62,0
106.15036,106.30036,72,62,0
106.15036,106.30036,64,62,0
106.15036,106.30036,60,52,0
106.30036,106.47427,68,68,0
106.30036,106.47427,65,68,0
106.30036,106.47427,72,68,0
106.8221,107.18464,60,77,0
106.8221,107.18464,65,77,0
106.8221,107.18464,53,65,0
107.365906,107.78844,41,65,0
107.365906,107.78844,48,77,0
107.365906,107.78844,53,77,0
107.99971,109.18392,40,94,0
107.99971,109.18392,28,79,0
109.18392,109.93706,29,94,0
109.93706,110.03766,26,45,0
110.026596,110.12492,27,45,0
110.11413,110.210175,29,45,0
110.19967,110.29356,27,46,0
110.283226,110.37513,29,47,0
110.36503,110.45569,27,49,0
110.44557,110.53703,29,50,0
110.52683,110.6189,27,51,0
110.60863,110.701546,29,51,0
110.69117,110.76379,27,52,0
110.75341,110.82603,29,53,0
110.81565,110.88827,27,53,0
110.87789,110.94013,29,54,0
110.94013,111.00352,27,55,0
111.00352,111.06931,29,55,0
111.06931,111.137505,27,56,0
111.137505,111.20849,29,56,0
111.20849,111.33253,27,59,0
111.30777,111.53054,26,73,0
111.50579,111.71436,27,73,0
111.70381,111.83039,37,88,0
111.70381,111.83039,25,74,0
112.21014,112.43571,56,45,0
112.21014,112.43571,44,45,0
112.43571,112.66127,53,53,0
112.43571,112.66127,61,53,0
112.83826,113.01525,56,42,0
112.83826,113.01525,44,42,0
113.01525,113.19224,61,47,0
113.01525,113.19224,53,47,0
114.077194,114.16604,44,52,0
114.077194,114.16604,32,52,0
114.61618,114.83436,60,38,0
114.61618,114.83436,55,38,0
114.61618,114.83436,66,38,0
114.83436,115.03173,66,35,0
114.83436,115.03173,60,35,0
114.83436,115.03173,56,35,0
115.03173,115.13041,60,31,0
115.03173,115.13041,56,31,0
115.03173,115.13041,66,31,0
115.76482,115.97987,66,35,0
115.76482,115.97987,60,35,0
115.76482,115.97987,57,35,0
115.97987,116.17724,56,32,0
115.97987,116.17724,60,32,0
115.97987,116.17724,66,32,0
116.17724,116.275925,56,28,0
116.17724,116.275925,60,28,0
116.17724,116.275925,66,28,0
116.37461,116.48739,37,88,0
116.37461,116.48739,25,74,0
116.82574,117.03626,56,45,0
116.82574,117.03626,44,45,0
117.03626,117.24679,53,53,0
117.03626,117.24679,61,53,0
117.4202,117.59361,56,42,0
117.4202,117.59361,44,42,0
117.59361,117.76702,61,47,0
117.59361,117.76702,53,47,0
118.632576,119.16679,54,25,0
118.632576,119.16679,51,25,0
118.632576,119.16679,44,25,0
119.16679,119.25661,60,32,0
119.25661,119.34643,61,32,0
119.34643,119.43625,63,32,0
119.43625,119.52607,65,32,0
119.52607,119.61589,66,32,0
119.61589,119.70571,68,32,0
119.70571,119.793945,69,32,0
120.23512,120.32914,57,30,0
120.32914,120.425735,56,29,0
120.425735,120.52508,55,28,0
120.52508,120.62738,54,27,0
120.62738,120.73274,53,26,0
120.73274,120.84141,51,25,0
120.84141,120.95769,49,27,0
120.95769,121.07396,56,28,0
121.07396,121.19024,61,30,0
121.19024,121.30652,65,34,0
121.30652,121.4228,61,31,0
121.4228,121.53908,56,30,0
121.53908,121.65536,49,29,0
121.65536,121.77164,59,28,0
121.77164,121.88801,61,30,0
121.88801,122.00598,65,31,0
122.00598,122.12563,61,30,0
122.12563,122.25384,59,29,0
122.25384,122.36967,54,28,0
122.36967,122.4855,59,28,0
122.4855,122.601326,61,31,0
122.601326,122.717155,66,34,0
122.717155,122.832985,61,31,0
122.832985,122.948814,59,29,0
122.948814,123.058174,49,29,0
123.058174,123.16689,58,28,0
123.16689,123.27496,61,30,0
123.27496,123.38236,66,33,0
123.38236,123.48915,61,31,0
123.48915,123.59531,58,30,0
123.59531,123.70094,56,28,0
123.70094,123.80658,59,28,0
123.80658,123.91221,61,30,0
123.91221,124.017845,68,33,0
124.017845,124.127335,61,31,0
124.127335,124.236824,59,29,0
124.236824,124.34422,49,29,0
124.34422,124.45198,59,28,0
124.45198,124.56042,61,30,0
124.56042,124.66942,65,31,0
124.66942,124.79494,61,30,0
124.79494,124.9189,59,29,0
124.9189,125.02848,54,29,0
125.02848,125.13714,58,30,0
125.13714,125.24485,61,34,0
125.24485,125.35163,66,35,0
125.35163,125.45754,61,34,0
125.45754,125.56252,58,33,0
125.56252,125.68301,52,35,0
125.68301,125.80293,58,36,0
125.80293,125.927414,61,39,0
125.927414,126.052216,68,37,0
126.052216,126.18735,61,34,0
126.18735,126.32249,58,31,0
126.32249,126.44201,51,36,0
126.44201,126.56153,58,38,0
126.56153,126.68105,61,41,0
126.68105,126.800575,67,45,0
126.800575,126.93273,61,42,0
126.93273,127.06569,58,39,0
127.06569,127.1838,55,36,0
127.1838,127.30191,61,38,0
127.30191,127.42002,63,41,0
127.42002,127.54878,70,46,0
127.54878,127.677536,63,42,0
127.677536,127.821075,61,39,0
127.821075,127.928986,56,37,0
127.928986,128.0369,61,38,0
128.0369,128.14482,63,42,0
128.14482,128.25273,68,45,0
128.25273,128.36064,63,41,0
128.36064,128.46855,61,38,0
128.46855,128.56992,51,36,0
128.56992,128.67126,60,37,0
128.67126,128.77261,63,40,0
128.77261,128.87396,68,44,0
128.87396,128.97531,63,41,0
128.97531,129.07666,60,39,0
129.07666,129.17801,58,36,0
129.17801,129.27937,61,37,0
129.27937,129.38072,63,40,0
129.38072,129.48207,70,42,0
129.48207,129.58696,63,41,0
129.58696,129.69186,61,39,0
129.69186,129.79675,51,37,0
129.79675,129.90166,61,36,0
129.90166,130.02931,63,38,0
130.02931,130.15697,67,40,0
130.15697,130.32181,63,40,0
130.32181,130.48663,61,37,0
130.48663,130.59673,56,50,0
130.59673,130.70602,60,40,0
130.70602,130.81451,63,44,0
130.81451,130.92224,68,45,0
130.92224,131.02919,63,44,0
131.02919,131.13535,60,42,0
131.27554,131.41573,56,41,0
131.41573,131.55591,60,45,0
131.55591,131.6961,63,49,0
131.6961,131.84995,60,47,0
131.84995,132.00378,56,41,0
131.13535,132.00378,55,39,0
132.12932,132.25484,56,36,0
132.25484,132.38036,60,39,0
132.38036,132.50589,63,42,0
132.50589,132.63141,60,41,0
132.63141,132.75693,56,38,0
132.00378,132.75693,54,38,0
132.88245,133.00798,56,41,0
133.00798,133.12608,60,41,0
133.12608,133.2442,63,41,0
133.2442,133.3623,60,38,0
133.3623,133.47894,56,35,0
132.75693,133.47894,54,47,0
133.58215,133.6846,56,33,0
133.6846,133.78632,61,36,0
133.78632,133.8873,65,39,0
133.8873,133.98758,61,37,0
133.98758,134.08711,56,35,0
133.47894,134.08711,53,34,0
134.08711,134.18613,53,36,0
134.18613,134.28514,56,38,0
134.28514,134.38416,61,41,0
134.38416,134.48315,68,42,0
134.48315,134.58217,61,40,0
134.58217,134.68118,56,37,0
134.68118,134.78018,51,35,0
134.78018,134.8792,56,38,0
134.8792,134.97821,60,41,0
134.97821,135.07722,66,41,0
135.07722,135.17622,60,39,0
135.17622,135.27524,56,36,0
135.27524,135.37941,51,34,0
135.37941,135.48357,56,34,0
135.48357,135.60123,60,37,0
135.60123,135.71887,66,39,0
135.71887,135.84439,60,36,0
135.84439,135.96991,56,31,0
135.96991,136.09543,50,31,0
136.09543,136.22096,56,31,0
136.22096,136.34648,59,35,0
136.34648,136.472,65,37,0
136.472,136.59753,59,36,0
136.59753,136.72305,56,34,0
136.72305,136.86868,50,34,0
136.86868,137.01431,56,30,0
137.01431,137.15994,58,35,0
137.15994,137.30557,65,37,0
137.30557,137.48415,58,36,0
137.48415,137.66272,56,34,0
137.66272,137.79672,51,34,0
137.79672,137.92918,54,35,0
137.92918,138.06001,58,38,0
138.06001,138.18933,63,39,0
138.18933,138.3171,58,38,0
138.3171,138.44342,54,36,0
138.44342,138.575,42,34,0
138.575,138.70657,54,31,0
138.70657,138.83815,58,36,0
138.83815,138.96973,63,38,0
138.96973,139.1013,58,36,0
139.1013,139.2329,54,34,0
139.2329,139.36447,44,35,0
139.36447,139.49605,53,36,0
139.49605,139.62762,56,37,0
139.62762,139.7592,61,39,0
139.7592,139.89078,56,37,0
139.89078,140.02237,53,35,0
140.02237,140.15395,44,33,0
140.15395,140.28552,53,34,0
140.28552,140.4171,56,35,0
140.4171,140.54868,61,38,0
140.54868,140.68025,56,37,0
140.68025,140.81184,53,36,0
140.81184,140.94342,44,39,0
140.94342,141.075,54,34,0
141.075,141.20657,56,36,0
141.20657,141.33815,60,36,0
141.33815,141.46973,56,35,0
141.46973,141.60132,54,34,0
141.60132,141.7383,44,31,0
141.7383,141.87529,54,31,0
141.87529,142.02603,56,35,0
142.02603,142.17679,60,37,0
142.17679,142.34724,56,35,0
142.34724,142.5177,54,33,0
142.5177,142.66771,49,33,0
142.66771,142.81549,56,33,0
142.81549,142.96112,61,36,0
142.96112,143.10466,65,37,0
143.10466,143.24617,61,36,0
143.24617,143.38565,58,35,0
143.38565,143.5239,56,36,0
143.5239,143.66214,61,36,0
143.66214,143.8004,65,39,0
143.8004,143.93864,68,40,0
143.93864,144.06795,65,39,0
144.06795,144.19727,61,38,0
144.32385,144.45042,56,42,0
144.45042,144.57701,60,42,0
144.57701,144.7036,63,42,0
144.7036,144.83017,60,42,0
144.83017,144.95676,56,42,0
144.19727,144.95676,54,38,0
145.10677,145.25676,56,45,0
145.25676,145.37486,60,45,0
145.37486,145.49298,63,45,0
145.49298,145.61108,60,41,0
145.61108,145.72774,56,38,0
144.95676,145.72774,54,41,0
145.83093,145.93338,56,36,0
145.93338,146.0351,61,39,0
146.0351,146.13608,65,42,0
146.13608,146.23636,61,40,0
146.23636,146.3359,56,38,0
145.72774,146.3359,53,37,0
146.3359,146.4349,53,39,0
146.4349,146.53392,56,41,0
146.53392,146.63293,61,45,0
146.63293,146.73195,68,46,0
146.73195,146.83095,61,44,0
146.83095,146.92996,56,40,0
146.92996,147.02898,51,39,0
147.02898,147.12798,56,41,0
147.12798,147.22699,60,45,0
147.22699,147.326,66,45,0
147.326,147.42502,60,42,0
147.42502,147.52402,56,39,0
147.52402,147.62819,51,38,0
147.62819,147.73236,56,37,0
147.73236,147.85,60,40,0
147.85,147.96765,66,42,0
147.96765,148.08813,60,39,0
148.08813,148.20862,56,34,0
148.20862,148.3291,50,35,0
148.3291,148.44958,56,37,0
148.44958,148.57005,59,41,0
148.57005,148.69054,65,44,0
148.69054,148.81102,59,42,0
148.81102,148.9315,56,40,0
148.9315,149.06308,50,35,0
149.06308,149.19466,56,36,0
149.19466,149.32625,58,41,0
149.32625,149.45782,65,44,0
149.45782,149.60782,58,42,0
149.60782,149.75783,56,40,0
149.75783,149.89183,51,37,0
149.89183,150.02428,54,38,0
150.02428,150.15512,58,41,0
150.15512,150.28442,63,42,0
150.28442,150.4122,58,41,0
150.4122,150.53851,54,39,0
150.53851,150.6701,42,37,0
150.6701,150.80168,54,34,0
150.80168,150.93326,58,39,0
150.93326,151.07088,63,41,0
151.07088,151.20848,58,39,0
151.20848,151.35555,54,37,0
151.35555,151.48712,44,37,0
151.48712,151.6187,53,39,0
151.6187,151.75027,56,40,0
151.75027,151.88187,61,42,0
151.88187,152.01344,56,40,0
152.01344,152.14502,53,38,0
152.14502,152.25333,44,35,0
152.25333,152.36162,53,35,0
152.36162,152.46992,56,37,0
152.46992,152.57823,61,39,0
152.57823,152.69588,56,37,0
152.69588,152.81352,53,35,0
152.81352,152.93117,44,38,0
152.93117,153.04881,53,37,0
153.04881,153.16647,56,39,0
153.16647,153.28412,62,41,0
153.28412,153.40176,56,39,0
153.40176,153.51941,53,36,0
153.51941,153.63705,44,40,0
153.63705,153.7547,53,39,0
153.7547,153.87234,56,43,0
153.87234,153.98999,62,48,0
153.98999,154.10764,56,45,0
154.10764,154.2253,53,41,0
154.2253,154.34294,44,40,0
154.34294,154.46059,53,40,0
154.46059,154.57823,56,43,0
154.57823,154.69588,62,45,0
154.69588,154.8004,56,42,0
154.8004,154.90494,53,36,0
154.90494,155.00803,44,52,0
155.00803,155.11111,53,40,0
155.11111,155.21422,56,43,0
155.21422,155.3173,62,47,0
155.3173,155.4204,56,44,0
155.4204,155.5235,53,40,0
155.5235,155.62659,44,54,0
155.62659,155.72968,51,43,0
155.72968,155.83276,54,47,0
155.83276,155.93587,63,50,0
155.93587,156.03896,54,46,0
156.03896,156.14204,51,43,0
156.14204,156.24515,44,67,0
156.24515,156.34824,51,50,0
156.34824,156.45132,54,55,0
156.45132,156.55443,63,58,0
156.55443,156.65752,54,55,0
156.65752,156.7606,51,52,0
156.7606,156.8637,44,62,0
156.8637,156.9668,51,50,0
156.9668,157.06989,54,55,0
157.06989,157.17297,60,58,0
157.17297,157.27608,54,55,0
157.27608,157.37917,51,51,0
157.37917,157.48225,44,67,0
157.48225,157.58534,51,57,0
157.58534,157.68845,54,61,0
157.68845,157.79153,60,65,0
157.79153,157.89462,54,62,0
157.89462,157.99773,51,59,0
157.99773,158.10081,37,71,0
158.4101,158.51318,44,70,0
158.51318,158.61627,53,75,0
158.61627,158.8092,61,83,0
159.19505,159.29152,32,87,0
159.5809,159.67737,44,68,0
159.67737,159.77383,51,74,0
159.77383,159.95845,60,84,0
160.32768,160.41998,37,87,0
160.69691,160.78922,44,70,0
160.78922,160.88153,53,75,0
160.88153,161.0708,61,83,0
161.44934,161.54399,32,87,0
161.8279,161.92253,44,68,0
161.92253,162.01717,51,74,0
162.01717,162.2001,60,84,0
162.56595,162.73262,25,82,0
162.89929,162.98262,44,68,0
162.98262,163.06595,53,74,0
163.06595,163.23256,61,84,0
164.53683,164.63425,37,96,0
164.53683,164.63425,25,96,0
165.12125,165.70567,73,102,0
165.12125,165.70567,61,86,0
166.8745,168.00658,33,40,0
168.00658,170.69662,38,36,0
166.8745,170.69662,45,40,0
170.69662,171.68564,33,40,0
171.68564,174.74734,38,36,0
170.69662,174.74734,45,40,0
174.74734,177.05588,50,34,0
174.74734,177.05588,40,34,0
177.05588,177.62192,49,30,0
177.62192,179.9004,52,26,0
177.05588,179.9004,45,30,0
180.54211,180.86298,58,32,0
180.54211,180.86298,55,32,0
180.54211,180.86298,52,32,0
180.86298,181.13324,59,38,0
180.86298,181.13324,54,38,0
180.86298,181.13324,50,38,0
181.4035,181.67378,62,32,0
181.4035,181.67378,57,32,0
181.4035,181.67378,54,32,0
181.67378,182.21432,61,36,0
181.67378,182.21432,56,36,0
181.67378,182.21432,53,36,0
182.21432,182.48459,58,31,0
182.21432,182.48459,55,31,0
182.21432,182.48459,52,31,0
182.48459,182.79071,59,37,0
182.48459,182.79071,54,37,0
182.48459,182.79071,50,37,0
183.09683,183.58464,62,32,0
183.09683,183.58464,57,32,0
183.09683,183.58464,54,32,0
183.70659,183.94305,65,29,0
183.64561,183.94305,56,29,0
183.58464,183.94305,49,29,0
184.40106,184.51556,37,25,0
186.66704,187.79912,33,40,0
187.79912,190.48917,38,36,0
186.66704,190.48917,45,40,0
190.48917,191.47818,33,40,0
191.47818,195.51874,38,36,0
190.48917,195.51874,45,40,0
195.51874,196.6952,52,34,0
196.6952,197.57756,50,34,0
195.51874,197.57756,40,34,0
197.57756,198.05376,49,30,0
197.57756,198.05376,45,30,0
198.05376,200.33223,52,26,0
198.05376,200.33223,45,26,0
205.40166,205.74257,65,26,0
205.40166,205.74257,62,26,0
205.40166,205.74257,59,26,0
205.74257,206.02965,66,31,0
205.74257,206.02965,61,31,0
205.74257,206.02965,57,31,0
206.31674,206.60382,69,28,0
206.31674,206.60382,64,28,0
206.31674,206.60382,61,28,0
206.60382,207.17798,68,31,0
206.60382,207.17798,63,31,0
206.60382,207.17798,60,31,0
207.17798,207.46506,65,27,0
207.17798,207.46506,62,27,0
207.17798,207.46506,59,27,0
207.46506,207.83774,66,31,0
207.46506,207.83774,61,31,0
207.46506,207.83774,57,31,0
208.28218,208.70471,69,25,0
208.28218,208.70471,64,25,0
208.28218,208.70471,61,25,0
208.70471,209.05765,72,24,0
208.70471,209.05765,63,24,0
208.70471,209.05765,56,24,0
209.76353,210.11647,44,24,0
213.7813,214.10216,64,30,0
213.3813,214.423,49,33,0
214.10216,214.75269,56,30,0
214.75269,215.0468,60,32,0
214.423,215.34091,54,33,0
214.423,215.34091,51,33,0
215.0468,215.60292,56,32,0
215.60292,215.8561,61,32,0
215.34091,216.10925,52,33,0
215.8561,216.36243,56,32,0
216.36243,216.61035,63,31,0
216.10925,216.85829,48,33,0
216.61035,217.11145,56,31,0
217.11145,217.35635,64,33,0
216.85829,217.60124,49,33,0
217.35635,217.8523,56,31,0
217.8523,218.09619,60,31,0
217.60124,218.3401,54,33,0
217.60124,218.3401,51,33,0
218.09619,218.5901,56,31,0
218.5901,218.83203,61,31,0
218.83203,219.07397,56,31,0
218.3401,219.07397,52,33,0
219.07397,219.32397,59,31,0
219.32397,219.56206,68,31,0
219.07397,219.81523,53,33,0
219.56206,220.10641,61,31,0
220.10641,220.34932,66,31,0
219.81523,220.59224,57,36,0
219.81523,220.59224,54,36,0
220.34932,220.87393,61,31,0
220.87393,221.11783,65,31,0
220.59224,221.36174,59,33,0
220.59224,221.36174,56,33,0
221.11783,221.6792,61,31,0
221.6792,221.94705,66,27,0
221.36174,222.2149,57,33,0
221.94705,222.47131,61,27,0
222.47131,222.70569,68,31,0
222.2149,222.94284,53,30,0
222.70569,223.1838,61,31,0
223.1838,223.4137,69,31,0
222.94284,223.64359,57,33,0
222.94284,223.64359,54,33,0
223.4137,223.89049,61,31,0
223.89049,224.11691,65,31,0
223.64359,224.34947,59,33,0
223.64359,224.34947,56,33,0
224.11691,224.60698,61,31,0
224.60698,224.85287,66,31,0
224.85287,225.09879,61,31,0
224.34947,225.09879,57,33,0
225.09879,225.24097,45,31,0
225.38315,225.6363,61,28,0
225.6363,225.90297,54,28,0
225.90297,226.15508,44,30,0
226.15508,226.38585,60,27,0
226.38585,226.61661,54,27,0
225.90297,226.61661,51,30,0
226.87302,227.10379,61,33,0
227.10379,227.33456,56,33,0
226.61661,227.33456,52,31,0
227.33456,227.59319,44,38,0
227.59319,227.84215,60,32,0
227.33456,228.09111,54,38,0
227.84215,228.37018,56,32,0
228.37018,228.63684,61,31,0
228.63684,228.9035,56,31,0
228.09111,228.9035,52,37,0
228.9035,229.19197,44,36,0
229.19197,229.47235,60,34,0
228.9035,229.75272,51,36,0
229.47235,230.02177,56,34,0
230.02177,230.26082,61,31,0
230.26082,230.49986,56,31,0
229.75272,230.49986,52,38,0
231.29637,232.88928,63,33,0
230.49986,232.88928,47,33,0
230.7596,232.88928,54,29,0
231.01065,232.88928,57,29,0
233.07678,233.26428,59,29,0
233.07678,233.26428,64,29,0
233.26428,233.45178,56,30,0
232.88928,233.45178,52,32,0
233.61136,233.77094,59,30,0
233.61136,233.77094,64,30,0
233.77094,233.93048,56,32,0
233.45178,233.93048,51,35,0
233.93048,234.0898,52,32,0
234.0898,234.24983,59,30,0
234.0898,234.24983,64,30,0
234.24983,234.41058,56,30,0
234.41058,234.89737,47,32,0
234.89737,234.97795,45,36,0
235.05774,235.2155,61,31,0
235.05774,235.2155,64,31,0
235.2155,235.37094,54,31,0
235.37094,235.44794,42,40,0
235.52518,235.68079,61,35,0
235.52518,235.68079,64,35,0
235.68079,235.83783,54,35,0
235.83783,235.91847,47,38,0
236.15619,236.31322,54,31,0
236.31322,236.47026,56,38,0
236.47026,236.62825,54,40,0
236.62825,236.78731,56,48,0
235.99911,236.78731,63,34,0
235.99911,236.78731,59,34,0
236.9432,237.09805,59,31,0
236.9432,237.09805,64,31,0
237.09805,237.2518,56,33,0
236.78731,237.2518,52,35,0
237.40495,237.55861,59,33,0
237.40495,237.55861,64,33,0
237.55861,237.71275,56,35,0
237.2518,237.71275,51,38,0
237.71275,237.86719,52,35,0
237.86719,238.02243,59,33,0
237.86719,238.02243,64,33,0
238.02243,238.17848,56,33,0
238.17848,238.65158,47,35,0
238.65158,238.73105,45,36,0
238.81021,238.96748,61,31,0
238.81021,238.96748,64,31,0
238.96748,239.12343,54,31,0
239.12343,239.20096,42,40,0
239.27861,239.43439,61,35,0
239.27861,239.43439,64,35,0
239.43439,239.59084,54,35,0
239.59084,239.67105,47,42,0
239.90793,240.06493,54,36,0
240.06493,240.22176,56,38,0
240.22176,240.37924,54,40,0
240.37924,240.53738,56,45,0
239.75127,240.53738,63,36,0
239.75127,240.53738,59,36,0
240.6957,240.85275,59,44,0
240.6957,240.85275,64,44,0
240.85275,241.0086,56,44,0
240.53738,241.0086,52,49,0
241.0086,241.08632,47,67,0
241.16405,241.31949,59,74,0
241.16405,241.31949,64,74,0
241.31949,241.47493,56,74,0
241.47493,241.63037,57,70,0
241.47493,241.63037,45,70,0
241.63037,241.94125,60,77,0
241.63037,241.94125,48,77,0
242.57024,242.72702,52,52,0
242.72702,242.88246,47,52,0
242.41206,242.88246,40,66,0
242.88246,242.95969,35,68,0
243.03658,243.18938,52,68,0
243.18938,243.34128,47,68,0
243.34128,243.49318,45,75,0
243.34128,243.49318,33,75,0
243.49318,243.79698,48,86,0
243.49318,243.79698,36,86,0
244.2622,244.4248,28,98,0
245.19011,245.34317,52,80,0
245.19011,245.34317,59,80,0
245.19011,245.34317,68,80,0
247.0386,247.51228,28,96,0
247.98596,249.11804,33,50,0
249.11804,252.18051,38,44,0
247.98596,252.18051,45,50,0
252.18051,253.23933,33,50,0
253.23933,257.40936,38,44,0
252.18051,257.40936,45,50,0
257.40936,258.58582,52,41,0
258.58582,259.48135,50,39,0
257.40936,259.48135,40,41,0
259.48135,259.8735,49,36,0
259.8735,262.15198,52,32,0
259.48135,262.15198,45,36,0
262.81497,263.14645,58,32,0
262.81497,263.14645,55,32,0
262.81497,263.14645,52,32,0
263.14645,263.42947,59,38,0
263.14645,263.42947,54,38,0
263.14645,263.42947,50,38,0
263.7125,263.9955,62,32,0
263.7125,263.9955,57,32,0
263.7125,263.9955,54,32,0
263.9955,264.56155,61,36,0
263.9955,264.56155,56,36,0
263.9955,264.56155,53,36,0
264.56155,264.84457,58,31,0
264.56155,264.84457,55,31,0
264.56155,264.84457,52,31,0
264.84457,265.1507,59,37,0
264.84457,265.1507,54,37,0
264.84457,265.1507,50,37,0
265.45682,265.9446,62,32,0
265.45682,265.9446,57,32,0
265.45682,265.9446,54,32,0
266.06656,266.30304,65,29,0
266.00558,266.30304,56,29,0
265.9446,266.30304,49,29,0
266.76105,266.87555,37,25,0
270.2862,273.76318,38,30,0
269.07797,273.76318,45,34,0
273.76318,274.8188,33,34,0
274.8188,279.5099,38,30,0
273.76318,279.5099,45,34,0
279.5099,280.76547,52,28,0
280.76547,281.7411,50,28,0
279.5099,281.7411,40,28,0
281.7411,282.27206,49,25,0
282.27206,284.70383,52,22,0
281.7411,284.70383,45,25,0
289.77325,290.11417,65,26,0
289.77325,290.11417,62,26,0
289.77325,290.11417,59,26,0
290.11417,290.40125,66,31,0
290.11417,290.40125,61,31,0
290.11417,290.40125,57,31,0
290.68832,290.9754,69,28,0
290.68832,290.9754,64,28,0
290.68832,290.9754,61,28,0
290.9754,291.54956,68,31,0
290.9754,291.54956,63,31,0
290.9754,291.54956,60,31,0
291.54956,291.83667,65,27,0
291.54956,291.83667,62,27,0
291.54956,291.83667,59,27,0
291.83667,292.20932,66,31,0
291.83667,292.20932,61,31,0
291.83667,292.20932,57,31,0
292.65378,293.0763,69,25,0
292.65378,293.0763,64,25,0
292.65378,293.0763,61,25,0
293.0763,293.42926,72,24,0
293.0763,293.42926,63,24,0
293.0763,293.42926,56,24,0
294.13513,294.48807,44,24,0
298.1529,298.47375,64,30,0
297.7529,298.79462,49,33,0
298.47375,299.12427,56,30,0
299.12427,299.4184,60,32,0
298.79462,299.71252,54,33,0
298.79462,299.71252,51,33,0
299.4184,299.97452,56,32,0
299.97452,300.2277,61,32,0
299.71252,300.48083,52,33,0
300.2277,300.734,56,32,0
300.734,300.98193,63,31,0
300.48083,301.2299,48,33,0
300.98193,301.48303,56,31,0
301.48303,301.72794,64,33,0
301.2299,301.97284,49,33,0
301.72794,302.22388,56,31,0
302.22388,302.4678,60,31,0
301.97284,302.7117,54,33,0
301.97284,302.7117,51,33,0
302.4678,302.9617,56,31,0
302.9617,303.20364,61,31,0
303.20364,303.44556,56,31,0
302.7117,303.44556,52,33,0
303.44556,303.69556,59,31,0
303.69556,303.93365,68,31,0
303.44556,304.17657,53,33,0
303.93365,304.46252,61,31,0
304.46252,304.70544,66,31,0
304.17657,304.94833,57,36,0
304.17657,304.94833,54,36,0
304.70544,305.21268,61,31,0
305.21268,305.45078,65,31,0
304.94833,305.68884,59,33,0
304.94833,305.68884,56,33,0
305.45078,305.98737,61,31,0
305.98737,306.25763,66,27,0
305.68884,306.5279,57,33,0
306.25763,306.7888,61,27,0
306.7888,307.02316,68,31,0
306.5279,307.2603,53,30,0
307.02316,307.50125,61,31,0
307.50125,307.73114,69,31,0
307.2603,307.96103,57,33,0
307.2603,307.96103,54,33,0
307.73114,308.20795,61,31,0
308.20795,308.43436,65,31,0
307.96103,308.66693,59,33,0
307.96103,308.66693,56,33,0
308.43436,308.92444,61,31,0
308.92444,309.17035,66,31,0
309.17035,309.41623,61,31,0
308.66693,309.41623,57,33,0
309.41623,309.5584,45,31,0
309.7006,309.95377,61,28,0
309.95377,310.22043,54,28,0
310.22043,310.47253,44,30,0
310.47253,310.7033,60,27,0
310.7033,310.93405,54,27,0
310.22043,310.93405,51,30,0
311.1905,311.42123,61,33,0
311.42123,311.652,56,33,0
310.93405,311.652,52,31,0
311.652,311.91064,44,38,0
311.91064,312.1596,60,32,0
311.652,312.40857,54,38,0
312.1596,312.68762,56,32,0
312.68762,312.95428,61,31,0
312.95428,313.22098,56,31,0
312.40857,313.22098,52,37,0
313.22098,313.50943,44,36,0
313.50943,313.7898,60,34,0
313.22098,314.07016,51,36,0
313.7898,314.33923,56,34,0
314.33923,314.57828,61,31,0
314.57828,314.81732,56,31,0
314.07016,314.81732,52,38,0
315.61383,317.20673,63,33,0
314.81732,317.20673,47,33,0
315.07706,317.20673,54,29,0
315.3281,317.20673,57,29,0
317.39423,317.58173,59,29,0
317.39423,317.58173,64,29,0
317.58173,317.76923,56,30,0
317.20673,317.76923,52,32,0
317.9288,318.08838,59,30,0
317.9288,318.08838,64,30,0
318.08838,318.24792,56,32,0
317.76923,318.24792,51,35,0
318.24792,318.40726,52,32,0
318.40726,318.5673,59,30,0
318.40726,318.5673,64,30,0
318.5673,318.72806,56,30,0
318.72806,319.21484,47,32,0
319.21484,319.2954,45,36,0
319.37518,319.53296,61,31,0
319.37518,319.53296,64,31,0
319.53296,319.6884,54,31,0
319.6884,319.76538,42,40,0
319.84265,319.99826,61,35,0
319.84265,319.99826,64,35,0
319.99826,320.15527,54,35,0
320.15527,320.23593,47,38,0
320.47363,320.63068,54,31,0
320.63068,320.78772,56,38,0
320.78772,320.9457,54,40,0
320.9457,321.10477,56,48,0
320.31656,321.10477,63,34,0
320.31656,321.10477,59,34,0
321.26068,321.4155,59,31,0
321.26068,321.4155,64,31,0
321.4155,321.56924,56,33,0
321.10477,321.56924,52,35,0
321.7224,321.87607,59,33,0
321.7224,321.87607,64,33,0
321.87607,322.0302,56,35,0
321.56924,322.0302,51,38,0
322.0302,322.18466,52,35,0
322.18466,322.33987,59,33,0
322.18466,322.33987,64,33,0
322.33987,322.49594,56,33,0
322.49594,322.96906,47,35,0
322.96906,323.04852,45,36,0
323.12766,323.28494,61,31,0
323.12766,323.28494,64,31,0
323.28494,323.4409,54,31,0
323.4409,323.5184,42,40,0
323.59607,323.75183,61,35,0
323.59607,323.75183,64,35,0
323.75183,323.9083,54,35,0
323.9083,323.9885,47,42,0
324.22537,324.3824,54,36,0
324.3824,324.5392,56,38,0
324.5392,324.6967,54,40,0
324.6967,324.85483,56,45,0
324.06873,324.85483,63,36,0
324.06873,324.85483,59,36,0
325.01315,325.17023,59,44,0
325.01315,325.17023,64,44,0
325.17023,325.32605,56,44,0
324.85483,325.32605,52,49,0
325.32605,325.40378,47,62,0
325.4815,325.63693,59,67,0
325.4815,325.63693,64,67,0
325.63693,325.7924,56,67,0
325.7924,325.9478,57,70,0
325.7924,325.9478,45,70,0
325.9478,326.2587,60,77,0
325.9478,326.2587,48,77,0
326.8877,327.0445,52,52,0
327.0445,327.19992,47,52,0
326.72952,327.19992,40,66,0
327.19992,327.27713,35,68,0
327.35403,327.50684,52,66,0
327.50684,327.65872,47,66,0
327.65872,327.81064,45,75,0
327.65872,327.81064,33,75,0
327.81064,328.11444,48,86,0
327.81064,328.11444,36,86,0
328.57965,328.74225,28,104,0
329.50757,329.66064,52,80,0
329.50757,329.66064,59,80,0
329.50757,329.66064,68,80,0
331.35605,331.82974,28,96,0
332.30344,332.47937,26,83,0
332.30344,332.47937,38,98,0
333.2447,333.39774,50,68,0
333.2447,333.39774,56,80,0
333.2447,333.39774,65,80,0
333.2447,333.39774,59,80,0
335.09317,336.04053,26,96,0
336.04053,336.2165,37,102,0
336.04053,336.2165,25,86,0
336.52417,336.68085,56,84,0
336.52417,336.68085,44,84,0
336.68085,336.8375,63,90,0
336.68085,336.8375,51,90,0
336.8375,336.99414,61,84,0
336.8375,336.99414,49,84,0
336.99414,337.30185,61,95,0
336.99414,337.30185,49,95,0
337.4557,337.53247,49,90,0
337.4557,337.53247,37,90,0
337.92114,338.0906,37,90,0
337.92114,338.0906,25,90,0
338.39832,338.5558,54,82,0
338.39832,338.5558,42,82,0
338.5558,338.7133,63,87,0
338.5558,338.7133,51,87,0
338.7133,338.87076,61,82,0
338.7133,338.87076,49,82,0
338.87076,338.9495,61,93,0
338.87076,338.9495,49,93,0
339.02823,339.18246,43,71,0
339.02823,339.18246,31,71,0
339.18246,339.33673,44,71,0
339.18246,339.33673,32,71,0
339.33673,339.49097,44,71,0
339.33673,339.49097,32,71,0
339.49097,339.6452,51,75,0
339.49097,339.6452,39,75,0
339.6452,339.79944,49,74,0
339.6452,339.79944,37,74,0
339.79944,339.9603,50,93,0
339.79944,339.9603,38,93,0
340.268,340.4263,57,81,0
340.268,340.4263,45,81,0
340.4263,340.58463,52,86,0
340.4263,340.58463,64,86,0
340.58463,340.74292,62,79,0
340.58463,340.74292,50,79,0
340.74292,341.05063,62,93,0
340.74292,341.05063,50,93,0
341.20447,341.2814,50,97,0
341.20447,341.2814,38,97,0
341.66602,341.82687,26,79,0
341.66602,341.82687,38,93,0
342.13455,342.29288,55,81,0
342.13455,342.29288,43,81,0
342.29288,342.45117,52,86,0
342.29288,342.45117,64,86,0
342.45117,342.6095,62,79,0
342.45117,342.6095,50,79,0
342.6095,342.6864,62,86,0
342.6095,342.6864,50,86,0
342.76334,342.91718,49,71,0
342.76334,342.91718,37,71,0
342.91718,343.071,50,71,0
342.91718,343.071,38,71,0
343.071,343.14795,50,77,0
343.071,343.14795,38,77,0
343.22488,343.37872,47,70,0
343.22488,343.37872,35,70,0
343.37872,343.53256,48,71,0
343.37872,343.53256,36,71,0
343.53256,343.7716,46,84,0
343.53256,343.7716,34,84,0
343.7716,344.0006,62,56,0
344.0006,344.2296,55,56,0
344.0006,344.2296,50,56,0
344.2296,344.46964,45,68,0
344.46964,344.6952,62,56,0
344.6952,344.92075,57,56,0
344.6952,344.92075,50,56,0
344.92075,345.1358,43,66,0
345.1358,345.3427,62,56,0
345.3427,345.5496,58,56,0
345.3427,345.5496,50,56,0
345.75095,345.94766,62,56,0
345.94766,346.14438,57,56,0
345.94766,346.14438,54,56,0
345.5496,346.14438,48,65,0
346.14438,346.352,46,65,0
346.352,346.5443,62,56,0
346.5443,346.7366,55,56,0
346.5443,346.7366,50,56,0
346.7366,346.934,45,66,0
346.934,347.12506,62,56,0
347.12506,347.31613,57,56,0
347.12506,347.31613,50,56,0
347.31613,347.51886,43,65,0
347.51886,347.713,62,56,0
347.713,347.9072,55,56,0
347.9072,348.1099,47,64,0
348.1099,348.30408,62,56,0
348.30408,348.49826,55,56,0
348.49826,348.6924,48,65,0
348.6924,348.8829,63,56,0
348.8829,349.07336,55,56,0
349.07336,349.27075,50,65,0
349.27075,349.45767,65,54,0
349.45767,349.6446,59,54,0
349.45767,349.6446,55,54,0
349.6446,349.83627,51,66,0
349.83627,350.02145,67,54,0
350.02145,350.20663,60,54,0
350.02145,350.20663,55,54,0
350.40082,350.58154,67,54,0
350.58154,350.76227,59,54,0
350.58154,350.76227,55,54,0
350.20663,350.76227,53,64,0
350.96225,351.18124,63,52,0
351.18124,351.4002,60,52,0
351.18124,351.4002,55,52,0
350.76227,351.4002,51,63,0
351.64313,351.87842,62,51,0
351.87842,352.1137,55,51,0
351.4002,352.1137,50,58,0
352.36267,352.59985,60,49,0
352.59985,352.837,55,49,0
352.59985,352.837,51,49,0
352.1137,352.837,48,57,0
353.07794,353.29935,61,50,0
353.29935,353.52075,55,50,0
353.29935,353.52075,51,50,0
352.837,353.52075,46,55,0
353.52075,353.74805,44,56,0
353.74805,353.95856,59,50,0
353.95856,354.1691,56,50,0
353.95856,354.1691,51,50,0
354.1691,354.36908,43,57,0
354.36908,354.5608,63,52,0
354.5608,354.75247,58,52,0
354.5608,354.75247,51,52,0
354.75247,354.94727,44,59,0
354.94727,355.13657,63,53,0
355.13657,355.32584,59,53,0
355.13657,355.32584,56,53,0
355.13657,355.32584,51,53,0
355.32584,355.5219,46,64,0
355.5219,355.71057,63,54,0
355.71057,355.89926,61,54,0
355.71057,355.89926,55,54,0
355.71057,355.89926,51,54,0
355.89926,356.10196,47,66,0
356.10196,356.29935,63,57,0
356.29935,356.4967,59,57,0
356.29935,356.4967,56,57,0
356.29935,356.4967,51,57,0
356.4967,356.6884,43,68,0
356.6884,356.8719,63,60,0
356.8719,357.05536,58,60,0
356.8719,357.05536,51,60,0
357.05536,357.2574,44,70,0
357.2574,357.46793,63,60,0
357.46793,357.67844,59,60,0
357.46793,357.67844,56,60,0
357.46793,357.67844,51,60,0
357.67844,357.9128,46,72,0
357.9128,358.15573,63,67,0
358.15573,358.39865,61,72,0
358.15573,358.39865,55,72,0
358.15573,358.39865,51,72,0
358.39865,358.5201,47,86,0
358.39865,358.5201,35,86,0
358.8845,359.12738,56,50,0
358.8845,359.12738,64,50,0
359.12738,359.4274,59,62,0
359.12738,359.4274,71,62,0
359.60437,359.78137,64,51,0
359.60437,359.78137,56,51,0
359.78137,359.95837,71,61,0
359.78137,359.95837,59,61,0
360.84332,360.93216,47,40,0
360.84332,360.93216,35,40,0
361.3823,361.6005,60,38,0
361.3823,361.6005,63,38,0
361.3823,361.6005,66,38,0
361.3823,361.6005,57,38,0
361.6005,361.79785,68,44,0
361.6005,361.79785,60,44,0
361.6005,361.79785,57,44,0
361.6005,361.79785,63,44,0
361.79785,361.9952,60,42,0
361.79785,361.9952,63,42,0
361.79785,361.9952,66,42,0
361.79785,361.9952,57,42,0
361.9952,362.0832,57,39,0
361.9952,362.0832,66,39,0
361.9952,362.0832,63,39,0
361.9952,362.0832,60,39,0
362.52322,362.73157,47,53,0
362.52322,362.73157,35,53,0
362.73157,362.927,33,49,0
362.73157,362.927,45,49,0
362.927,363.12244,48,53,0
362.927,363.12244,36,53,0
363.12244,363.21588,47,52,0
363.12244,363.21588,35,52,0
363.30936,363.49628,56,45,0
363.30936,363.49628,64,45,0
363.49628,363.6832,56,45,0
363.49628,363.6832,64,45,0
363.6832,363.9575,59,51,0
363.6832,363.9575,71,51,0
363.9575,364.0437,56,45,0
363.9575,364.0437,64,45,0
364.0437,364.2161,64,45,0
364.0437,364.2161,56,45,0
364.2161,364.38852,71,52,0
364.2161,364.38852,59,52,0
365.2404,365.3242,50,40,0
365.2404,365.3242,38,40,0
365.74393,365.92303,59,38,0
365.74393,365.92303,68,38,0
365.74393,365.92303,66,38,0
365.92303,366.09796,69,44,0
365.92303,366.09796,66,44,0
365.92303,366.09796,59,44,0
366.09796,366.2729,59,42,0
366.09796,366.2729,68,42,0
366.09796,366.2729,66,42,0
366.2729,366.3567,59,39,0
366.2729,366.3567,65,39,0
366.2729,366.3567,68,39,0
366.7761,366.9552,50,53,0
366.7761,366.9552,38,53,0
366.9552,367.1286,36,53,0
366.9552,367.1286,48,53,0
367.1286,367.302,49,53,0
367.1286,367.302,37,53,0
367.302,367.3858,52,47,0
367.302,367.3858,40,47,0
367.80554,367.98254,61,48,0
367.80554,367.98254,70,48,0
367.80554,367.98254,68,48,0
367.98254,368.15546,71,53,0
367.98254,368.15546,68,53,0
367.98254,368.15546,61,53,0
368.15546,368.32837,61,51,0
368.15546,368.32837,70,51,0
368.15546,368.32837,68,51,0
368.32837,368.41193,61,49,0
368.32837,368.41193,67,49,0
368.32837,368.41193,70,49,0
368.8302,369.0093,52,58,0
368.8302,369.0093,40,58,0
369.0093,369.1827,38,58,0
369.0093,369.1827,50,58,0
369.1827,369.3561,51,58,0
369.1827,369.3561,39,58,0
369.3561,369.4406,54,55,0
369.3561,369.4406,42,55,0
369.69415,369.86316,69,49,0
369.69415,369.86316,63,49,0
369.69415,369.86316,60,49,0
369.86316,370.03217,75,54,0
369.86316,370.03217,69,54,0
369.86316,370.03217,63,54,0
370.2012,370.3702,69,52,0
370.2012,370.3702,63,52,0
370.2012,370.3702,60,52,0
370.3702,370.5392,75,56,0
370.3702,370.5392,69,56,0
370.3702,370.5392,63,56,0
370.70822,370.8688,66,70,0
370.70822,370.8688,54,70,0
370.87726,371.0378,66,70,0
370.87726,371.0378,54,70,0
371.04626,371.20682,66,70,0
371.04626,371.20682,54,70,0
371.21527,371.37582,66,70,0
371.21527,371.37582,54,70,0
371.38428,371.5533,69,73,0
371.38428,371.5533,53,73,0
371.38428,371.5533,60,73,0
371.38428,371.5533,63,73,0
371.87674,371.9576,89,89,0
371.9576,372.03848,88,81,0
372.03848,372.11932,87,79,0
372.11932,372.2002,84,78,0
372.2002,372.36194,81,76,0
372.52365,372.60452,65,88,0
372.60452,372.68536,64,81,0
372.68536,372.76624,63,79,0
372.76624,372.8471,60,77,0
372.8471,373.00882,57,75,0
373.17056,373.3535,41,117,0
373.3535,373.5618,46,100,0
373.3535,373.5618,34,100,0
373.5618,373.7529,58,58,0
373.5618,373.7529,70,58,0
373.7529,373.94397,61,58,0
373.7529,373.94397,65,58,0
373.94397,374.15088,56,81,0
373.94397,374.15088,44,81,0
374.15088,374.34317,56,58,0
374.15088,374.34317,68,58,0
374.34317,374.53925,60,58,0
374.34317,374.53925,65,58,0
374.53925,374.74197,54,81,0
374.53925,374.74197,42,81,0
374.74197,374.93677,54,58,0
374.74197,374.93677,66,58,0
374.93677,375.13156,58,58,0
374.93677,375.13156,61,58,0
375.13156,375.34137,53,80,0
375.13156,375.34137,41,80,0
375.34137,375.53873,53,56,0
375.34137,375.53873,65,56,0
375.53873,375.7361,56,56,0
375.53873,375.7361,61,56,0
375.7361,375.9409,51,81,0
375.7361,375.9409,39,81,0
375.9409,376.14426,51,56,0
375.9409,376.14426,63,56,0
376.14426,376.34766,54,56,0
376.14426,376.34766,58,56,0
376.34766,376.55106,49,81,0
376.34766,376.55106,37,81,0
376.55106,376.75443,49,62,0
376.55106,376.75443,61,62,0
376.75443,376.9635,58,61,0
376.75443,376.9635,53,61,0
376.9635,377.16757,48,81,0
376.9635,377.16757,36,81,0
377.16757,377.37167,48,57,0
377.16757,377.37167,60,57,0
377.37167,377.57574,54,57,0
377.37167,377.57574,51,57,0
377.57574,377.77982,46,80,0
377.57574,377.77982,34,80,0
377.99722,378.2146,54,58,0
377.77982,378.2146,58,58,0
377.77982,378.2146,46,58,0
377.99722,378.2146,51,58,0
378.2146,378.43933,57,76,0
378.2146,378.43933,48,76,0
378.2146,378.43933,45,76,0
378.2146,378.43933,53,76,0
378.43933,378.5517,52,64,0
378.5517,378.66403,53,61,0
378.66403,378.7577,56,64,0
378.73895,378.83258,54,64,0
378.81384,378.8794,53,61,0
378.91534,379.10153,46,57,0
378.88876,379.10153,34,57,0
379.10153,379.307,51,71,0
379.10153,379.307,63,71,0
379.307,379.51755,61,72,0
379.307,379.51755,49,72,0
379.5422,379.71497,57,74,0
379.52988,379.71497,48,74,0
379.51755,379.71497,41,74,0
379.71497,379.81244,52,62,0
379.81244,379.9099,53,59,0
379.9099,379.99115,56,62,0
379.9749,380.05615,54,62,0
380.0399,380.09677,53,58,0
380.12964,380.3029,46,54,0
380.1049,380.3029,34,54,0
380.3029,380.50223,48,69,0
380.3029,380.50223,60,69,0
380.50223,380.70914,58,69,0
380.50223,380.70914,46,69,0
380.73422,380.90976,57,75,0
380.72168,380.90976,48,75,0
380.70914,380.90976,41,75,0
380.90976,381.01172,52,61,0
381.01172,381.11368,53,58,0
381.11368,381.19867,56,61,0
381.18167,381.26663,54,61,0
381.24963,381.3091,53,57,0
381.34262,381.5176,46,55,0
381.31763,381.5176,34,55,0
381.5176,381.7203,51,74,0
381.5176,381.7203,63,74,0
381.7203,381.9323,61,73,0
381.7203,381.9323,49,73,0
381.9574,382.13297,57,74,0
381.94485,382.13297,48,75,0
381.9323,382.13297,41,75,0
382.13297,382.23392,52,67,0
382.23392,382.3349,53,63,0
382.3349,382.41904,56,67,0
382.4022,382.48636,54,67,0
382.4695,382.5284,53,62,0
382.56168,382.73553,46,60,0
382.53683,382.73553,34,60,0
382.73553,382.93686,48,74,0
382.73553,382.93686,60,74,0
382.93686,383.1375,58,74,0
382.93686,383.1375,46,74,0
383.16257,383.33813,57,74,0
383.15005,383.33813,48,75,0
383.1375,383.33813,41,75,0
383.33813,383.43686,52,63,0
383.43686,383.53555,53,60,0
383.53555,383.61783,56,63,0
383.60138,383.68362,54,63,0
383.66718,383.72476,53,60,0
383.733,383.93042,53,74,0
383.93042,384.1337,61,71,0
384.1337,384.34314,60,73,0
384.36783,384.54056,57,76,0
384.35547,384.54056,48,76,0
384.34314,384.54056,41,76,0
384.54056,384.64188,47,67,0
384.64188,384.74316,48,64,0
384.74316,384.82758,51,67,0
384.8107,384.8951,49,67,0
384.87823,384.93732,48,64,0
384.94577,385.14383,48,74,0
384.94577,385.14383,36,74,0
385.14383,385.3493,58,73,0
385.3493,385.55984,57,70,0
385.5849,385.76047,57,69,0
385.57236,385.76047,48,69,0
385.55984,385.76047,41,69,0
385.76047,385.86078,52,66,0
385.86078,385.9611,53,63,0
385.9611,386.04468,56,66,0
386.02795,386.11157,54,66,0
386.09485,386.15335,53,63,0
386.1617,386.36108,53,74,0
386.36108,386.57385,61,74,0
386.57385,386.78662,60,71,0
386.8132,386.9994,57,68,0
386.79993,386.9994,48,68,0
386.78662,386.9994,41,68,0
386.9994,387.10968,47,66,0
387.10968,387.21997,48,64,0
387.21997,387.3119,51,66,0
387.2935,387.3854,49,66,0
387.36703,387.43137,48,63,0
387.44055,387.6777,48,75,0
387.44055,387.6777,36,75,0
387.6777,387.90158,58,69,0
387.90158,388.12546,57,71,0
388.15344,388.34937,57,59,0
388.13947,388.34937,48,59,0
388.12546,388.34937,41,59,0
388.34937,388.4613,47,61,0
388.4613,388.57324,48,57,0
388.57324,388.6665,51,61,0
388.64786,388.74115,49,61,0
388.72247,388.78778,48,57,0
388.79712,389.021,48,69,0
388.79712,389.021,36,69,0
389.021,389.24826,58,67,0
389.24826,389.47552,57,65,0
389.50394,389.70282,57,62,0
389.48975,389.70282,48,62,0
389.47552,389.70282,41,62,0
389.70282,389.81476,47,56,0
389.81476,389.9267,48,53,0
389.9267,390.02,51,57,0
390.0013,390.0946,49,57,0
390.07596,390.14124,48,54,0
390.15057,390.37445,48,65,0
390.15057,390.37445,36,65,0
390.37445,390.59833,58,60,0
390.59833,390.8222,57,60,0
390.85062,391.0495,53,56,0
390.83643,391.0495,48,56,0
390.8222,391.0495,41,56,0
391.0495,391.18942,35,48,0
391.16144,391.30136,36,44,0
391.27338,391.36664,39,48,0
391.348,391.44128,37,48,0
391.4226,391.4879,36,45,0
391.49725,391.75366,36,55,0
391.75366,391.87662,46,55,0
391.99957,392.1225,45,53,0
392.24545,392.4845,41,56,0
392.4845,392.6339,35,43,0
392.60403,392.75342,36,40,0
392.72354,392.82315,39,43,0
392.80322,392.90283,37,43,0
392.8829,392.95264,36,40,0
392.9626,393.2201,36,46,0
393.2201,393.35464,46,49,0
393.48917,393.63623,45,49,0
393.78326,394.05115,41,52,0
395.60608,395.76843,35,44,0
395.73596,395.8983,36,41,0
395.8658,395.97406,39,44,0
395.9524,396.06064,37,44,0
396.03897,396.11475,36,41,0
396.12555,396.25543,36,52,0
396.3853,396.52292,46,49,0
396.66052,396.8076,45,46,0
396.95465,397.24173,41,52,0
398.10297,398.43265,34,43,0
398.43265,398.84644,33,43,0
398.84644,399.875,29,43,0
401.0931,401.16455,45,27,0
401.16455,401.23596,46,28,0
401.23596,401.3074,49,29,0
401.3074,401.42105,53,33,0
401.76196,401.83337,45,26,0
401.83337,401.90482,46,27,0
401.90482,401.97623,49,29,0
401.97623,403.32962,53,38,0
403.32962,403.42337,46,95,0
403.32962,403.42337,34,95,0
403.89212,405.01712,70,85,0
403.89212,405.01712,63,85,0
403.89212,405.01712,58,72,0
403.89212,405.01712,60,72,0
403.89212,405.01712,66,85,0
405.01712,405.29837,70,56,0
405.01712,405.29837,63,56,0
405.01712,405.29837,58,47,0
405.01712,405.29837,60,47,0
405.01712,405.29837,66,56,0
405.29837,405.39212,70,61,0
405.29837,405.39212,63,61,0
405.29837,405.39212,58,51,0
405.29837,405.39212,60,51,0
405.29837,405.39212,66,61,0
405.39212,405.5962,70,66,0
405.39212,405.5962,63,66,0
405.39212,405.5962,58,56,0
405.39212,405.5962,60,56,0
405.39212,405.5962,66,66,0
405.5962,405.8003,70,62,0
405.5962,405.8003,58,52,0
405.5962,405.8003,61,52,0
405.5962,405.8003,65,62,0
406.00436,406.0724,45,27,0
406.0724,406.1404,46,28,0
406.1404,406.20844,49,30,0
406.20844,406.3105,53,33,0
406.6166,406.68463,45,26,0
406.68463,406.75266,46,28,0
406.75266,406.82068,49,30,0
406.82068,407.95276,53,37,0
407.95276,408.03973,44,95,0
407.95276,408.03973,32,95,0
408.47452,409.51797,73,89,0
408.45276,409.51797,65,89,0
408.43103,409.51797,56,75,0
409.51797,409.77884,68,58,0
409.51797,409.77884,56,49,0
409.51797,409.77884,63,58,0
409.51797,409.77884,66,58,0
409.77884,409.86948,68,63,0
409.77884,409.86948,56,53,0
409.77884,409.86948,63,63,0
409.77884,409.86948,66,63,0
409.86948,410.06302,68,68,0
409.86948,410.06302,56,57,0
409.86948,410.06302,63,68,0
409.86948,410.06302,66,68,0
410.06302,410.23694,65,65,0
410.06302,410.23694,61,55,0
410.06302,410.23694,68,65,0
410.58478,410.9326,53,65,0
410.58478,410.9326,60,77,0
410.58478,410.9326,65,77,0
411.1065,411.48505,53,77,0
411.1065,411.48505,48,77,0
411.1065,411.48505,41,65,0
411.67435,413.0559,41,94,0
411.67435,413.0559,29,79,0
413.0559,413.20395,42,97,0
413.0559,413.20395,30,82,0
415.04865,415.1176,45,27,0
415.1176,415.18658,46,28,0
415.18658,415.25555,49,29,0
415.25555,415.359,53,33,0
415.66934,415.7383,45,27,0
415.7383,415.80728,46,28,0
415.80728,415.87625,49,29,0
415.87625,417.1176,53,37,0
417.1176,417.21136,34,95,0
417.1176,417.21136,46,95,0
417.6801,418.52386,66,85,0
417.6801,418.52386,60,72,0
417.6801,418.52386,63,85,0
417.6801,418.52386,58,72,0
417.6801,418.52386,70,85,0
418.52386,418.6176,70,56,0
418.52386,418.6176,63,56,0
418.52386,418.6176,58,47,0
418.52386,418.6176,60,47,0
418.52386,418.6176,66,56,0
418.6176,418.8051,70,56,0
418.6176,418.8051,63,56,0
418.6176,418.8051,58,47,0
418.6176,418.8051,60,47,0
418.6176,418.8051,66,56,0
418.8051,419.08636,70,56,0
418.8051,419.08636,60,47,0
418.8051,419.08636,63,56,0
418.8051,419.08636,58,47,0
418.8051,419.08636,66,56,0
419.08636,419.1801,70,61,0
419.08636,419.1801,58,51,0
419.08636,419.1801,60,51,0
419.08636,419.1801,63,61,0
419.08636,419.1801,66,61,0
419.1801,419.38422,70,66,0
419.1801,419.38422,58,56,0
419.1801,419.38422,63,66,0
419.1801,419.38422,66,66,0
419.1801,419.38422,60,56,0
419.38422,419.5883,70,62,0
419.38422,419.5883,65,62,0
419.38422,419.5883,58,52,0
419.38422,419.5883,61,62,0
419.79236,419.86038,45,27,0
419.86038,419.9284,46,29,0
419.9284,419.99646,49,30,0
419.99646,420.09848,53,34,0
420.4046,420.47263,45,24,0
420.47263,420.54065,46,26,0
420.54065,420.6087,49,27,0
420.6087,421.67612,53,37,0
421.67612,421.75967,36,95,0
421.67612,421.75967,24,95,0
422.17752,423.1803,60,75,0
422.17752,423.1803,68,89,0
422.17752,423.1803,72,89,0
422.17752,423.1803,65,75,0
423.1803,423.431,72,58,0
423.1803,423.431,60,49,0
423.1803,423.431,70,58,0
423.1803,423.431,64,58,0
423.431,423.52164,70,63,0
423.431,423.52164,64,63,0
423.431,423.52164,60,53,0
423.431,423.52164,72,63,0
423.52164,423.71518,72,68,0
423.52164,423.71518,70,68,0
423.52164,423.71518,60,57,0
423.52164,423.71518,64,68,0
423.71518,423.8891,68,65,0
423.71518,423.8891,65,55,0
423.71518,423.8891,72,65,0
424.2369,424.59946,60,77,0
424.2369,424.59946,65,77,0
424.2369,424.59946,53,65,0
424.78073,425.20325,41,65,0
424.78073,425.20325,48,77,0
424.78073,425.20325,53,77,0
425.41452,426.59872,40,94,0
425.41452,426.59872,28,79,0
426.59872,427.3527,29,94,0
427.3527,427.4509,26,45,0
427.44006,427.53653,27,45,0
427.5259,427.6207,29,45,0
427.6103,427.70306,27,46,0
427.69287,427.7737,29,47,0
427.7737,427.86478,27,49,0
427.85458,427.94687,29,50,0
427.93652,428.02917,27,51,0
428.0189,428.11188,29,51,0
428.1015,428.1741,27,52,0
428.16373,428.23636,29,53,0
428.22598,428.29858,27,53,0
428.2882,428.36093,29,54,0
428.35046,428.42468,27,55,0
428.41385,428.49084,29,55,0
428.47964,428.5595,27,56,0
428.54782,428.63095,29,56,0
428.6188,428.74286,27,59,0
428.7181,428.9409,26,73,0
428.91614,429.1247,27,73,0
429.11414,429.24072,37,88,0
429.11414,429.24072,25,74,0
429.62048,429.84604,56,45,0
429.62048,429.84604,44,45,0
429.84604,430.0716,53,53,0
429.84604,430.0716,61,53,0
430.2486,430.42557,56,42,0
430.2486,430.42557,44,42,0
430.42557,430.60257,61,47,0
430.42557,430.60257,53,47,0
431.48752,431.5764,44,52,0
431.48752,431.5764,32,52,0
432.02652,432.2447,60,38,0
432.02652,432.2447,55,38,0
432.02652,432.2447,66,38,0
432.2447,432.44205,66,35,0
432.2447,432.44205,60,35,0
432.2447,432.44205,56,35,0
432.44205,432.54074,60,31,0
432.44205,432.54074,56,31,0
432.44205,432.54074,66,31,0
433.17514,433.3902,66,35,0
433.17514,433.3902,60,35,0
433.17514,433.3902,57,35,0
433.3902,433.5876,56,32,0
433.3902,433.5876,60,32,0
433.3902,433.5876,66,32,0
433.5876,433.68625,56,28,0
433.5876,433.68625,60,28,0
433.5876,433.68625,66,28,0
433.78494,433.89774,37,88,0
433.78494,433.89774,25,74,0
434.23605,434.4466,56,45,0
434.23605,434.4466,44,45,0
434.4466,434.65714,53,53,0
434.4466,434.65714,61,53,0
434.83054,435.00394,56,42,0
434.83054,435.00394,44,42,0
435.00394,435.17734,61,47,0
435.00394,435.17734,53,47,0
436.0429,436.57712,54,25,0
436.0429,436.57712,51,25,0
436.0429,436.57712,44,25,0
436.57712,436.66693,60,32,0
436.66693,436.75674,61,32,0
436.75674,436.8466,63,32,0
436.8466,436.9364,65,32,0
436.9364,437.0262,66,32,0
437.0262,437.11603,68,32,0
437.11603,437.20428,69,32,0
437.64545,437.73947,57,30,0
437.73947,437.83606,56,29,0
437.83606,437.93542,55,28,0
437.93542,438.03772,54,27,0
438.03772,438.14307,53,26,0
438.14307,438.25174,51,25,0
438.25174,438.368,49,27,0
438.368,438.48428,56,28,0
438.48428,438.6006,61,30,0
438.6006,438.71686,65,34,0
438.71686,438.83313,61,31,0
438.83313,438.9494,56,30,0
438.9494,439.06567,49,29,0
439.06567,439.18198,59,28,0
439.18198,439.29834,61,30,0
439.29834,439.41632,65,31,0
439.41632,439.53595,61,30,0
439.53595,439.66415,59,29,0
439.66415,439.78,54,28,0
439.78,439.89584,59,28,0
439.89584,440.01166,61,31,0
440.01166,440.1275,66,34,0
440.1275,440.24332,61,31,0
440.24332,440.35916,59,29,0
440.35916,440.4685,49,29,0
440.4685,440.57724,58,28,0
440.57724,440.6853,61,30,0
440.6853,440.7927,66,33,0
440.7927,440.89948,61,31,0
440.89948,441.00565,58,30,0
441.00565,441.11127,56,28,0
441.11127,441.21692,59,28,0
441.21692,441.32254,61,30,0
441.32254,441.42816,68,33,0
441.42816,441.53766,61,31,0
441.53766,441.64716,59,29,0
441.64716,441.75455,49,29,0
441.75455,441.8623,59,28,0
441.8623,441.97073,61,30,0
441.97073,442.07974,65,31,0
442.07974,442.20526,61,30,0
442.20526,442.32922,59,29,0
442.32922,442.4388,54,29,0
442.4388,442.5475,58,30,0
442.5475,442.65518,61,34,0
442.65518,442.76196,66,35,0
442.76196,442.86786,61,34,0
442.86786,442.97287,58,33,0
442.97287,443.09332,52,35,0
443.09332,443.21326,58,36,0
443.21326,443.33774,61,39,0
443.33774,443.46255,68,37,0
443.46255,443.5977,61,34,0
443.5977,443.73282,58,31,0
443.73282,443.85233,51,36,0
443.85233,443.97186,58,38,0
443.97186,444.09137,61,41,0
444.09137,444.2109,67,45,0
444.2109,444.34305,61,42,0
444.34305,444.476,58,39,0
444.476,444.59415,55,36,0
444.59415,444.71225,61,38,0
444.71225,444.83035,63,41,0
444.83035,444.9591,70,46,0
444.9591,445.08786,63,42,0
445.08786,445.2314,61,39,0
445.2314,445.33932,56,37,0
445.33932,445.44724,61,38,0
445.44724,445.55515,63,42,0
445.55515,445.66306,68,45,0
445.66306,445.77097,63,41,0
445.77097,445.87888,61,38,0
445.87888,445.98022,51,36,0
445.98022,446.0816,60,37,0
446.0816,446.18295,63,40,0
446.18295,446.2843,68,44,0
446.2843,446.38565,63,41,0
446.38565,446.487,60,39,0
446.487,446.58835,58,36,0
446.58835,446.6897,61,37,0
446.6897,446.79105,63,40,0
446.79105,446.8924,70,42,0
446.8924,446.99728,63,41,0
446.99728,447.1022,61,39,0
447.1022,447.2071,51,37,0
447.2071,447.31198,61,36,0
447.31198,447.43964,63,38,0
447.43964,447.5673,67,40,0
447.5673,447.73215,63,40,0
447.73215,447.89697,61,37,0
447.89697,448.00705,56,50,0
448.00705,448.11636,60,40,0
448.11636,448.22485,63,44,0
448.22485,448.33258,68,45,0
448.33258,448.4395,63,44,0
448.4395,448.5457,60,42,0
448.68588,448.82605,56,41,0
448.82605,448.96625,60,45,0
448.96625,449.10645,63,49,0
449.10645,449.26028,60,47,0
449.26028,449.41412,56,41,0
448.5457,449.41412,55,39,0
449.53964,449.66516,56,36,0
449.66516,449.79068,60,39,0
449.79068,449.91623,63,42,0
449.91623,450.04175,60,41,0
450.04175,450.16727,56,38,0
449.41412,450.16727,54,38,0
450.2928,450.4183,56,41,0
450.4183,450.5364,60,41,0
450.5364,450.65454,63,41,0
450.65454,450.77264,60,38,0
450.77264,450.88928,56,35,0
450.16727,450.88928,54,47,0
450.9925,451.09494,56,33,0
451.09494,451.19666,61,36,0
451.19666,451.29764,65,39,0
451.29764,451.3979,61,37,0
451.3979,451.49744,56,35,0
450.88928,451.49744,53,34,0
451.49744,451.59647,53,36,0
451.59647,451.69547,56,38,0
451.69547,451.7945,61,41,0
451.7945,451.8935,68,42,0
451.8935,451.9925,61,40,0
451.9925,452.09152,56,37,0
452.09152,452.19052,51,35,0
452.19052,452.28952,56,38,0
452.28952,452.38855,60,41,0
452.38855,452.48755,66,41,0
452.48755,452.58655,60,39,0
452.58655,452.68558,56,36,0
452.68558,452.78973,51,34,0
452.78973,452.8939,56,34,0
452.8939,453.01154,60,37,0
453.01154,453.1292,66,39,0
453.1292,453.25473,60,36,0
453.25473,453.38025,56,31,0
453.38025,453.50577,50,31,0
453.50577,453.6313,56,31,0
453.6313,453.7568,59,35,0
453.7568,453.88232,65,37,0
453.88232,454.00787,59,36,0
454.00787,454.1334,56,34,0
454.1334,454.27902,50,34,0
454.27902,454.42465,56,30,0
454.42465,454.57028,58,35,0
454.57028,454.7159,65,37,0
454.7159,454.89447,58,36,0
454.89447,455.07306,56,34,0
455.07306,455.20706,51,34,0
455.20706,455.3395,54,35,0
455.3395,455.47034,58,38,0
455.47034,455.59967,63,39,0
455.59967,455.72742,58,38,0
455.72742,455.85376,54,36,0
455.85376,455.98532,42,34,0
455.98532,456.1169,54,31,0
456.1169,456.24847,58,36,0
456.24847,456.38007,63,38,0
456.38007,456.51163,58,36,0
456.51163,456.64322,54,34,0
456.64322,456.7748,44,35,0
456.7748,456.90637,53,36,0
456.90637,457.03796,56,37,0
457.03796,457.16953,61,39,0
457.16953,457.30112,56,37,0
457.30112,457.4327,53,35,0
457.4327,457.56427,44,33,0
457.56427,457.69586,53,34,0
457.69586,457.82742,56,35,0
457.82742,457.959,61,38,0
457.959,458.09058,56,37,0
458.09058,458.22217,53,36,0
458.22217,458.35376,44,39,0
458.35376,458.48532,54,34,0
458.48532,458.6169,56,36,0
458.6169,458.74847,60,36,0
458.74847,458.88007,56,35,0
458.88007,459.01166,54,34,0
459.01166,459.14862,44,31,0
459.14862,459.2856,54,31,0
459.2856,459.43637,56,35,0
459.43637,459.58713,60,37,0
459.58713,459.75757,56,35,0
459.75757,459.92804,54,33,0
459.92804,460.07803,49,33,0
460.07803,460.22583,56,33,0
460.22583,460.37146,61,36,0
460.37146,460.51498,65,37,0
460.51498,460.6565,61,36,0
460.6565,460.796,58,35,0
460.93423,461.07248,61,36,0
460.796,461.07248,56,36,0
461.07248,461.21072,65,39,0
461.21072,461.34897,68,40,0
461.34897,461.47827,65,39,0
461.47827,461.6076,61,38,0
461.7342,461.86075,56,42,0
461.86075,461.98734,60,42,0
461.98734,462.11392,63,42,0
462.11392,462.2405,60,42,0
462.2405,462.3671,56,42,0
461.6076,462.3671,54,38,0
462.5171,462.66708,56,45,0
462.66708,462.7852,60,45,0
462.7852,462.90332,63,45,0
462.90332,463.02142,60,41,0
463.02142,463.13806,56,38,0
462.3671,463.13806,54,41,0
463.24127,463.34372,56,36,0
463.34372,463.44543,61,39,0
463.44543,463.54642,65,42,0
463.54642,463.6467,61,40,0
463.6467,463.74625,56,38,0
463.13806,463.74625,53,37,0
463.74625,463.84525,53,39,0
463.84525,463.94424,56,41,0
463.94424,464.04327,61,45,0
464.04327,464.14227,68,46,0
464.14227,464.24127,61,44,0
464.24127,464.3403,56,40,0
464.3403,464.4393,51,39,0
464.4393,464.5383,56,41,0
464.5383,464.63733,60,45,0
464.63733,464.73633,66,45,0
464.73633,464.83536,60,42,0
464.83536,464.93436,56,39,0
464.93436,465.0385,51,38,0
465.0385,465.1427,56,37,0
465.1427,465.26035,60,40,0
465.26035,465.378,66,42,0
465.378,465.49847,60,39,0
465.49847,465.61896,56,34,0
465.61896,465.73944,50,35,0
465.73944,465.8599,56,37,0
465.8599,465.98038,59,41,0
465.98038,466.10086,65,44,0
466.10086,466.22134,59,42,0
466.22134,466.34183,56,40,0
466.34183,466.47342,50,35,0
466.47342,466.60498,56,36,0
466.60498,466.73657,58,41,0
466.73657,466.86816,65,44,0
466.86816,467.01816,58,42,0
467.01816,467.16815,56,40,0
467.16815,467.30215,51,37,0
467.30215,467.4346,54,38,0
467.4346,467.56546,58,41,0
467.56546,467.69476,63,42,0
467.69476,467.82254,58,41,0
467.82254,467.94885,54,39,0
467.94885,468.08044,42,37,0
468.08044,468.212,54,34,0
468.212,468.3436,58,39,0
468.3436,468.4812,63,41,0
468.4812,468.6188,58,39,0
468.6188,468.76587,54,37,0
468.76587,468.89746,44,37,0
468.89746,469.02902,53,39,0
469.02902,469.1606,56,40,0
469.1606,469.2922,61,42,0
469.2922,469.42377,56,40,0
469.42377,469.55536,53,38,0
469.55536,469.66367,44,35,0
469.66367,469.77194,53,35,0
469.77194,469.88025,56,37,0
469.88025,469.98856,61,39,0
469.98856,470.1062,56,37,0
470.1062,470.22385,53,35,0
470.22385,470.3415,44,38,0
470.3415,470.45914,53,37,0
470.45914,470.5768,56,39,0
470.5768,470.69446,62,41,0
470.69446,470.8121,56,39,0
470.8121,470.92975,53,36,0
470.92975,471.0474,44,40,0
471.0474,471.16504,53,39,0
471.16504,471.28268,56,43,0
471.28268,471.40033,62,48,0
471.40033,471.51797,56,45,0
471.51797,471.63562,53,41,0
471.63562,471.75327,44,40,0
471.75327,471.8709,53,40,0
471.8709,471.98856,56,43,0
471.98856,472.1062,62,45,0
472.1062,472.21072,56,42,0
472.21072,472.31528,53,36,0
472.31528,472.41837,44,52,0
472.41837,472.52145,53,40,0
472.52145,472.62454,56,43,0
472.62454,472.72763,62,47,0
472.72763,472.83072,56,44,0
472.83072,472.93384,53,40,0
472.93384,473.03693,44,54,0
473.03693,473.14,51,43,0
473.14,473.2431,54,47,0
473.2431,473.3462,63,50,0
473.3462,473.47385,54,46,0
473.47385,473.6015,51,43,0
473.6015,473.71823,44,56,0
473.71823,473.835,52,47,0
473.835,473.95172,55,49,0
473.95172,474.06845,64,51,0
474.06845,474.18518,55,49,0
474.18518,474.3019,52,47,0
474.3019,474.41864,44,57,0
474.41864,474.53537,52,48,0
474.53537,474.6521,55,51,0
474.6521,474.76883,64,53,0
474.76883,474.87335,55,51,0
474.87335,474.97787,52,49,0
474.97787,475.081,44,61,0
475.081,475.18408,52,51,0
475.18408,475.28717,55,54,0
475.28717,475.39026,64,56,0
475.39026,475.49335,55,54,0
475.49335,475.59644,52,51,0
475.59644,475.69952,44,64,0
475.69952,475.80264,53,54,0
475.80264,475.90573,56,56,0
475.90573,476.00882,65,59,0
476.00882,476.12555,56,55,0
476.12555,476.24228,53,52,0
476.24228,476.34537,44,67,0
476.34537,476.44846,51,55,0
476.44846,476.55154,54,57,0
476.55154,476.65466,60,60,0
476.65466,476.75775,54,58,0
476.75775,476.86084,51,55,0
476.86084,476.96393,44,68,0
476.96393,477.06702,47,57,0
477.06702,477.1701,53,59,0
477.1701,477.2732,59,60,0
477.2732,477.38815,53,59,0
477.38815,477.50308,47,57,0
477.50308,477.60617,44,68,0
477.60617,477.7093,53,56,0
477.7093,477.81238,56,60,0
477.81238,477.91547,62,62,0
477.91547,478.01855,56,60,0
478.01855,478.12164,53,57,0
478.12164,478.22473,44,70,0
478.22473,478.32782,49,59,0
478.32782,478.43094,55,62,0
478.43094,478.53403,61,65,0
478.53403,478.655,55,62,0
478.655,478.77594,49,59,0
478.77594,478.87976,44,72,0
478.87976,478.98358,52,59,0
478.98358,479.08737,58,64,0
479.08737,479.1912,64,66,0
479.1912,479.30026,58,62,0
479.30026,479.40936,52,59,0
479.40936,479.51846,44,72,0
479.51846,479.62753,51,58,0
479.62753,479.73663,54,63,0
479.73663,479.84573,63,68,0
479.84573,479.98657,54,65,0
479.98657,480.1274,51,62,0
480.1274,480.25784,44,72,0
480.25784,480.38828,51,60,0
480.38828,480.5187,54,64,0
480.5187,480.64914,60,69,0
480.64914,480.7747,54,65,0
480.7747,480.9002,51,63,0
480.9002,481.0615,37,78,0
481.33347,481.4284,44,68,0
481.42523,481.52017,51,68,0
481.52017,481.70944,61,83,0
482.088,482.18265,32,87,0
482.46655,482.5612,44,68,0
482.5612,482.65582,51,74,0
482.65582,482.84045,60,84,0
483.2097,483.30197,37,87,0
483.57892,483.6712,44,70,0
483.6712,483.76352,53,75,0
483.76352,483.9528,61,83,0
484.33136,484.426,32,87,0
484.7099,484.80453,44,68,0
484.80453,484.89917,51,74,0
484.89917,485.0821,60,84,0
485.4954,485.5799,45,97,0
485.4954,485.5799,33,97,0
485.6644,485.8334,51,82,0
485.6644,485.8334,39,82,0
485.8334,486.0104,52,90,0
485.8334,486.0104,40,90,0
486.0104,486.51105,52,90,0
486.0104,486.51105,40,90,0
486.68005,486.84906,39,77,0
486.84906,487.02554,40,77,0
487.02554,487.36646,41,81,0
487.02554,487.36646,33,81,0
487.36646,487.58746,33,75,0
487.36646,487.58746,40,75,0
487.58746,487.67197,45,97,0
487.58746,487.67197,33,97,0
487.75647,487.92548,51,82,0
487.75647,487.92548,39,82,0
487.92548,488.10248,52,90,0
487.92548,488.10248,40,90,0
488.10248,488.60458,52,90,0
488.10248,488.60458,40,90,0
488.7736,488.9426,39,77,0
488.9426,489.11908,40,77,0
489.11908,489.45148,41,81,0
489.11908,489.45148,33,81,0
489.45148,489.6177,33,75,0
489.45148,489.6177,40,75,0
489.6177,489.72433,41,87,0
489.6177,489.72433,33,87,0
489.90207,490.04425,45,38,0
489.90207,490.04425,33,38,0
490.04425,490.1864,53,42,0
490.04425,490.1864,41,42,0
490.32858,490.47076,45,39,0
490.32858,490.47076,33,39,0
490.47076,490.61295,53,43,0
490.47076,490.61295,41,43,0
490.75787,490.9028,46,39,0
490.75787,490.9028,34,39,0
490.9028,491.04773,53,43,0
490.9028,491.04773,41,43,0
491.1941,491.34042,46,40,0
491.1941,491.34042,34,40,0
491.34042,491.48676,53,44,0
491.34042,491.48676,41,44,0
491.63312,491.77945,46,42,0
491.63312,491.77945,34,42,0
491.77945,491.92578,54,48,0
491.77945,491.92578,42,48,0
492.0743,492.2228,46,44,0
492.0743,492.2228,34,44,0
492.2228,492.37134,54,48,0
492.2228,492.37134,42,48,0
492.51984,492.66837,45,46,0
492.51984,492.66837,33,46,0
492.66837,492.81686,57,51,0
492.66837,492.81686,45,51,0
492.96725,493.1176,44,54,0
492.96725,493.1176,32,54,0
493.1176,493.268,53,65,0
493.1176,493.268,65,65,0
493.1176,493.268,61,65,0
493.1176,493.268,56,65,0
493.4184,493.4668,48,58,0
493.4668,493.51523,49,60,0
493.51523,493.56366,53,61,0
493.56366,493.70892,56,63,0
493.85422,493.90265,47,58,0
493.90265,493.95108,48,60,0
493.95108,493.99948,53,62,0
493.99948,494.14478,56,64,0
494.29004,494.33847,45,57,0
494.33847,494.3869,46,58,0
494.3869,494.43533,53,61,0
494.43533,494.57684,56,63,0
494.85986,495.00137,44,81,0
494.85986,495.00137,32,81,0
495.2844,495.85043,77,85,0
495.2844,495.85043,72,85,0
495.2844,495.85043,66,85,0
495.85043,496.00586,75,65,0
495.85043,496.00586,72,65,0
495.85043,496.00586,66,65,0
496.00586,496.1555,77,65,0
496.00586,496.1555,72,65,0
496.00586,496.1555,66,65,0
496.1555,496.3022,75,63,0
496.1555,496.3022,72,63,0
496.1555,496.3022,66,63,0
496.3022,496.44888,77,67,0
496.3022,496.44888,72,67,0
496.3022,496.44888,66,67,0
496.44888,496.58746,66,66,0
496.44888,496.58746,72,66,0
496.44888,496.58746,75,66,0
496.58746,496.69138,77,76,0
496.58746,496.69138,65,76,0
496.58746,496.69138,68,76,0
496.58746,496.69138,73,76,0
496.8646,496.91302,48,58,0
496.91302,496.96146,49,60,0
496.96146,497.0099,53,61,0
497.0099,497.15515,56,63,0
497.30045,497.34885,47,58,0
497.34885,497.39728,48,60,0
497.39728,497.4457,53,62,0
497.4457,497.59097,56,64,0
497.73627,497.7847,45,57,0
497.7847,497.83313,46,58,0
497.83313,497.88153,53,61,0
497.88153,498.02304,56,63,0
498.30606,498.44757,44,81,0
498.30606,498.44757,32,81,0
498.7306,499.29663,77,85,0
498.7306,499.29663,72,85,0
498.7306,499.29663,66,85,0
499.29663,499.4521,75,70,0
499.29663,499.4521,72,70,0
499.29663,499.4521,66,70,0
499.4521,499.6017,77,68,0
499.4521,499.6017,72,68,0
499.4521,499.6017,66,68,0
499.6017,499.7484,75,66,0
499.6017,499.7484,72,66,0
499.6017,499.7484,66,66,0
499.7484,499.8951,77,64,0
499.7484,499.8951,72,64,0
499.7484,499.8951,66,64,0
499.8951,500.03366,66,61,0
499.8951,500.03366,72,61,0
499.8951,500.03366,75,61,0
500.03366,500.3089,77,59,0
500.3089,500.4465,75,56,0
500.03366,500.4465,72,59,0
500.03366,500.4465,66,59,0
500.4465,500.72174,77,55,0
500.72174,500.85748,75,58,0
500.4465,500.85748,72,55,0
500.4465,500.85748,66,55,0
500.85748,501.129,77,60,0
501.129,501.26474,75,57,0
500.85748,501.26474,72,60,0
500.85748,501.26474,66,60,0
501.26474,501.53622,78,61,0
501.53622,501.67075,76,63,0
501.26474,501.67075,73,61,0
501.26474,501.67075,67,61,0
501.67075,501.93982,78,67,0
501.93982,502.07434,76,69,0
501.67075,502.07434,73,67,0
501.67075,502.07434,67,67,0
502.07434,502.34338,79,72,0
502.34338,502.47794,77,74,0
502.07434,502.47794,74,72,0
502.07434,502.47794,68,72,0
502.47794,502.74698,79,75,0
502.74698,502.8875,77,79,0
502.47794,502.8875,74,75,0
502.47794,502.8875,68,75,0
502.8875,503.16852,80,83,0
503.16852,503.32767,78,86,0
502.8875,503.32767,75,83,0
502.8875,503.32767,68,83,0
503.32767,503.48154,49,90,0
503.32767,503.48154,37,90,0
503.48154,503.63538,43,74,0
503.63538,503.7892,44,74,0
503.7892,503.94144,44,79,0
503.94144,504.0947,54,62,0
503.94144,504.0947,42,62,0
504.0947,504.24905,53,58,0
504.0947,504.24905,41,58,0
504.24905,504.32635,53,68,0
504.24905,504.32635,41,68,0
504.4037,504.55832,43,59,0
504.55832,504.71497,44,59,0
504.71497,505.01648,45,73,0
505.01648,505.16724,44,70,0
505.16724,505.32108,49,90,0
505.16724,505.32108,37,90,0
505.32108,505.4749,43,73,0
505.4749,505.62878,44,75,0
505.62878,505.781,44,77,0
505.781,505.93427,54,62,0
505.781,505.93427,42,62,0
505.93427,506.0886,53,58,0
505.93427,506.0886,41,58,0
506.0886,506.16592,53,68,0
506.0886,506.16592,41,68,0
506.24323,506.39786,43,59,0
506.39786,506.55453,44,59,0
506.55453,506.84866,45,73,0
506.84866,506.9957,44,70,0
506.9957,507.06924,49,60,0
506.9957,507.06924,37,60,0
507.14276,507.28595,43,68,0
507.28595,507.42917,44,68,0
507.5734,507.71762,54,70,0
507.5734,507.71762,42,70,0
507.71762,507.86185,53,70,0
507.71762,507.86185,41,70,0
507.86185,507.93396,49,63,0
507.86185,507.93396,37,63,0
508.00607,508.14563,43,69,0
508.14563,508.28516,44,69,0
508.426,508.56683,54,70,0
508.426,508.56683,42,70,0
508.56683,508.7077,53,70,0
508.56683,508.7077,41,70,0
508.7077,508.7765,49,64,0
508.7077,508.7765,37,64,0
508.8453,508.9829,43,69,0
508.9829,509.12054,44,69,0
509.25974,509.39896,54,70,0
509.25974,509.39896,42,70,0
509.39896,509.54214,53,70,0
509.39896,509.54214,41,70,0
509.54214,509.64957,45,67,0
509.54214,509.64957,37,67,0
509.68536,509.79276,44,68,0
509.68536,509.79276,37,68,0
509.82855,509.93393,45,70,0
509.82855,509.93393,37,70,0
509.96906,510.07446,44,71,0
509.96906,510.07446,37,71,0
510.1096,510.21304,45,73,0
510.1096,510.21304,37,73,0
510.2475,510.35095,44,74,0
510.2475,510.35095,37,74,0
510.38544,510.49182,45,84,0
510.38544,510.49182,36,84,0
510.81097,510.95282,48,101,0
510.81097,510.95282,43,101,0
510.81097,510.95282,36,85,0
511.2365,511.37836,53,101,0
511.2365,511.37836,48,101,0
511.2365,511.37836,41,85,0
511.66205,511.8039,56,101,0
511.66205,511.8039,51,101,0
511.66205,511.8039,44,85,0
512.0876,512.5131,61,101,0
512.0876,512.5131,56,101,0
512.0876,512.5131,49,85,0
512.93866,513.3787,49,100,0
512.93866,513.3787,44,100,0
512.93866,513.3787,37,85,0
513.7455,513.9538,65,82,0
513.7272,513.9538,56,82,0
513.7088,513.9538,49,69,0
513.9538,515.67334,37,109,0
513.9538,515.67334,25,100,0
