start_time,end_time,note_value,velocity,instrument_program_number
0.0,0.576728,70,80,0
0.576728,0.6478045,70,74,0
0.718881,0.7899575,70,70,0
0.861034,1.429646,70,79,0
1.429646,1.496781,70,75,0
1.563916,1.631051,70,69,0
1.698186,1.966726,70,78,0
1.966726,2.033861,70,72,0
2.100996,2.168131,70,67,0
2.235266,2.503806,70,74,0
2.503806,2.5735736,70,69,0
2.643341,2.7131085,70,66,0
2.782876,3.061946,70,73,0
3.061946,3.1317134,70,59,0
3.201481,3.2746196,70,59,0
3.347758,3.619916,70,72,0
3.619916,3.7579274,74,60,0
3.7475755,3.882861,75,49,0
3.871799,4.072431,77,57,0
3.871799,4.072431,74,57,0
4.14032,4.2730637,70,67,0
4.405807,4.543379,75,64,0
4.5331955,4.6662884,77,48,0
4.655395,4.8514733,79,56,0
4.655395,4.8514733,75,56,0
4.916833,5.0458655,70,72,0
5.174898,5.312029,77,67,0
5.3014803,5.4389153,79,52,0
5.428063,5.623401,80,75,0
5.428063,5.623401,77,75,0
5.688514,6.196988,73,69,0
5.688514,6.196988,79,82,0
5.688514,6.196988,82,82,0
6.196988,6.331862,73,57,0
6.196988,6.331862,79,68,0
6.196988,6.331862,82,68,0
6.331862,6.466736,73,49,0
6.331862,6.466736,79,58,0
6.331862,6.466736,82,58,0
6.466736,6.729894,82,63,0
6.729894,6.8668656,84,52,0
6.466736,6.9782014,73,63,0
6.466736,6.989215,79,63,0
6.856744,6.989215,82,48,0
6.9782014,7.11036,72,54,0
6.9782014,7.11036,80,54,0
7.2425184,7.512202,80,67,0
7.5016975,7.6379313,82,47,0
7.2425184,7.7499475,71,67,0
7.627748,7.7609177,80,44,0
7.7499475,7.88159,79,54,0
7.7499475,7.88159,70,54,0
8.013232,8.279773,79,66,0
8.269281,8.405445,80,59,0
8.013232,8.518382,70,66,0
8.395179,8.529696,79,53,0
8.518382,8.65416,77,59,0
8.518382,8.65416,68,59,0
8.789937,9.061126,77,64,0
9.050388,9.189975,79,60,0
8.789937,9.308087,68,64,0
9.179237,9.319276,77,49,0
9.308087,9.442357,67,53,0
9.308087,9.442357,75,53,0
9.576627,9.712706,70,65,0
9.848785,9.987473,74,49,0
9.97699,10.113575,75,60,0
10.102776,10.300254,77,63,0
10.102776,10.300254,74,63,0
10.368143,10.500075,70,69,0
10.631401,10.767497,75,68,0
10.757188,10.891447,77,64,0
10.880898,11.070773,79,73,0
10.880898,11.070773,75,73,0
11.134064,11.261816,70,76,0
11.389568,11.524827,77,72,0
11.514422,11.650271,79,62,0
11.6392765,11.837175,80,75,0
11.6392765,11.837175,77,75,0
11.903141,12.283193,73,75,0
11.903141,12.283193,79,89,0
11.903141,12.283193,82,89,0
12.283193,12.409877,82,74,0
12.283193,12.409877,79,74,0
12.544751,12.679625,79,73,0
12.544751,12.679625,82,73,0
12.409877,12.679625,73,80,0
12.809574,12.95008,82,72,0
12.939523,13.07658,84,64,0
12.679625,13.190688,73,64,0
13.066207,13.201589,82,58,0
13.190688,13.321486,80,54,0
13.190688,13.321486,72,54,0
13.581407,13.721129,80,69,0
13.710527,13.848208,82,65,0
13.452286,13.963271,71,65,0
13.837749,13.974314,80,63,0
13.963271,14.09578,79,51,0
13.963271,14.09578,70,51,0
14.365608,14.514634,79,46,0
14.502927,14.655129,80,58,0
14.22829,14.783917,70,63,0
14.643422,14.795933,79,45,0
14.783917,15.072282,77,50,0
14.783917,15.072282,68,50,0
15.072282,15.211817,75,59,0
15.072282,15.211817,67,59,0
15.351352,15.421119,70,57,0
15.490887,15.560654,70,50,0
15.630422,15.700189,70,56,0
15.769957,15.843095,70,58,0
15.916233,16.18839,70,78,0
16.18839,16.329704,74,65,0
16.31911,16.45729,75,57,0
16.446228,16.646862,77,66,0
16.446228,16.646862,74,66,0
16.71475,16.847494,70,69,0
16.980236,17.119518,75,66,0
17.108992,17.246202,77,56,0
17.235308,17.431387,79,73,0
17.235308,17.431387,75,73,0
17.496746,17.625778,70,77,0
17.754812,17.89166,77,75,0
17.881393,18.01545,79,58,0
18.004597,18.199936,80,75,0
18.004597,18.199936,77,75,0
18.265049,18.771784,73,72,0
18.265049,18.771784,79,85,0
18.265049,18.771784,82,85,0
18.771784,18.906658,73,58,0
18.771784,18.906658,79,69,0
18.771784,18.906658,82,69,0
18.906658,19.041533,73,39,0
18.906658,19.041533,79,47,0
18.906658,19.041533,82,47,0
19.041533,19.31584,82,65,0
19.30527,19.44247,84,53,0
19.041533,19.556341,73,65,0
19.041533,19.556341,79,65,0
19.43212,19.567379,82,49,0
19.556341,19.688793,80,51,0
19.556341,19.688793,72,51,0
19.821243,20.090345,80,68,0
20.079865,20.21596,82,47,0
19.821243,20.329361,71,68,0
20.20565,20.340332,80,46,0
20.329361,20.461004,79,53,0
20.329361,20.461004,70,53,0
20.592646,20.859186,79,68,0
20.848696,20.984901,80,51,0
20.592646,21.098305,70,68,0
20.974592,21.10962,79,49,0
21.098305,21.234081,77,61,0
21.098305,21.234081,68,61,0
21.36986,21.641047,77,74,0
21.63031,21.769897,79,69,0
21.36986,21.888008,68,74,0
21.75916,21.899199,77,53,0
21.888008,22.02228,67,68,0
21.888008,22.02228,75,68,0
22.15655,22.292627,70,70,0
22.428707,22.566784,74,68,0
22.556366,22.692142,75,60,0
22.681366,22.878565,77,63,0
22.681366,22.878565,74,63,0
22.946455,23.078386,70,72,0
23.209713,23.345179,75,65,0
23.334974,23.467993,77,60,0
23.457422,23.647697,79,68,0
23.457422,23.647697,75,68,0
23.711123,23.838875,70,76,0
23.966627,24.101685,77,77,0
24.091482,24.224924,79,70,0
24.21393,24.411829,80,77,0
24.21393,24.411829,77,77,0
24.477795,24.857847,73,71,0
24.477795,24.857847,79,84,0
24.477795,24.857847,82,84,0
24.857847,24.98453,82,72,0
24.857847,24.98453,79,72,0
25.119404,25.254278,79,65,0
25.119404,25.254278,82,65,0
24.98453,25.254278,73,80,0
25.384228,25.524733,82,58,0
25.514175,25.651417,84,48,0
25.254278,25.767544,73,67,0
25.64086,25.778444,82,60,0
25.767544,25.898342,80,54,0
25.767544,25.898342,72,54,0
26.158262,26.297985,80,69,0
26.287384,26.425205,82,45,0
26.02914,26.541826,71,70,0
26.414604,26.552868,80,65,0
26.541826,26.674334,79,55,0
26.541826,26.674334,70,55,0
26.944162,27.09319,79,50,0
27.08148,27.233685,80,44,0
26.806843,27.36247,70,65,0
27.221975,27.374487,79,62,0
27.36247,27.650835,77,57,0
27.36247,27.650835,68,57,0
27.650835,27.79037,75,48,0
27.650835,27.79037,67,48,0
27.929905,27.996305,75,53,0
28.062708,28.129108,75,64,0
28.195509,28.26191,75,67,0
28.328312,28.394712,75,69,0
28.461113,28.526934,75,75,0
28.592756,28.658577,75,64,0
28.724398,28.79022,75,75,0
28.856041,28.921862,75,74,0
28.987684,29.053505,75,69,0
29.119326,29.18845,75,69,0
29.257574,29.391462,77,65,0
29.381165,29.515053,75,58,0
29.504753,29.638641,72,56,0
29.628342,29.76223,68,49,0
29.75193,29.87552,63,49,0
29.87552,29.99911,64,51,0
29.99911,30.060776,65,58,0
30.122528,30.184364,65,51,0
30.246284,30.308332,65,55,0
30.370462,30.432676,65,51,0
30.494976,30.557404,65,54,0
30.619919,30.682522,65,58,0
30.745209,30.88123,63,61,0
30.870783,31.006456,68,53,0
30.99603,31.131334,72,48,0
31.12095,31.255848,75,64,0
31.245487,31.380047,80,61,0
31.369705,31.493587,76,52,0
31.493587,31.556929,77,52,0
31.620272,31.683613,77,44,0
31.746956,31.810297,77,68,0
31.873638,31.936981,77,60,0
32.000324,32.063663,77,53,0
32.127007,32.19035,77,73,0
32.253693,32.352848,77,77,0
32.34183,32.44099,79,55,0
32.429974,32.52906,77,55,0
32.518112,32.66068,75,65,0
32.649685,32.79299,80,57,0
32.781925,32.914898,84,51,0
33.056408,33.325294,89,66,0
33.314648,33.453045,87,51,0
33.4424,33.581123,85,45,0
33.570152,33.701794,79,50,0
33.83344,34.10235,82,58,0
34.09168,34.230373,80,43,0
34.219704,34.35865,75,44,0
34.34773,34.47881,72,38,0
34.609886,34.67571,75,48,0
34.741528,34.80735,75,44,0
34.873173,34.93899,75,65,0
35.004814,35.070637,75,69,0
35.136456,35.20228,75,63,0
35.2681,35.337223,75,71,0
35.40635,35.540237,77,61,0
35.529938,35.663826,75,59,0
35.653526,35.787415,72,52,0
35.777115,35.911003,68,52,0
35.900703,36.024292,63,47,0
36.024292,36.14788,64,55,0
36.14788,36.20955,65,57,0
36.271217,36.332886,65,47,0
36.394554,36.45622,65,59,0
36.517887,36.579556,65,55,0
36.641224,36.70289,65,61,0
36.764557,36.826225,65,63,0
36.887894,37.021503,63,58,0
37.011227,37.14484,68,54,0
37.134563,37.268177,72,50,0
37.257896,37.39151,75,43,0
37.381233,37.514847,80,52,0
37.504566,37.627922,76,47,0
37.627922,37.691265,77,58,0
37.75461,37.81795,77,50,0
37.88129,37.944633,77,61,0
38.007977,38.071316,77,57,0
38.13466,38.198,77,65,0
38.261345,38.324684,77,65,0
38.388027,38.487186,77,75,0
38.47617,38.575325,79,55,0
38.56431,38.663395,77,55,0
38.65245,38.795017,75,66,0
38.784023,38.92733,80,64,0
38.916264,39.049282,84,60,0
39.186535,39.45542,89,67,0
39.444775,39.583176,87,52,0
39.57253,39.71125,85,48,0
39.70028,39.831924,79,52,0
39.963566,40.490135,80,65,0
40.490135,40.535805,72,55,0
40.535805,40.58147,74,49,0
40.58147,40.62714,72,65,0
40.62714,40.67281,74,53,0
40.67281,40.718475,72,67,0
40.718475,40.764145,71,56,0
40.764145,41.04708,70,87,0
41.036304,41.176098,74,62,0
41.165615,41.302364,75,62,0
41.2914,41.490868,77,67,0
41.2914,41.490868,74,67,0
41.558758,41.69069,70,85,0
41.82262,41.96072,75,73,0
41.95028,42.086315,77,69,0
42.075542,42.26951,79,76,0
42.075542,42.26951,75,76,0
42.334164,42.461914,70,87,0
42.589664,42.725307,77,73,0
42.715042,42.8491,79,68,0
42.838245,43.033585,80,83,0
42.838245,43.033585,77,83,0
43.098698,43.60543,73,65,0
43.098698,43.60543,79,77,0
43.098698,43.60543,82,77,0
43.60543,43.740307,73,63,0
43.60543,43.740307,79,75,0
43.60543,43.740307,82,75,0
43.740307,43.87518,73,58,0
43.740307,43.87518,79,69,0
43.740307,43.87518,82,69,0
43.87518,44.14607,82,70,0
44.13563,44.271244,84,59,0
43.87518,44.385117,73,59,0
43.87518,44.385117,79,70,0
44.26089,44.39611,82,50,0
44.385117,44.517048,80,53,0
44.385117,44.517048,72,53,0
44.64898,44.915993,80,69,0
44.90558,45.04091,82,47,0
44.64898,45.154545,71,69,0
45.03058,45.165516,80,46,0
45.154545,45.286186,79,52,0
45.154545,45.286186,70,52,0
45.417828,45.684296,79,66,0
45.673878,45.80919,80,53,0
45.417828,45.92259,70,66,0
45.798878,45.933903,79,47,0
45.92259,46.05837,77,56,0
45.92259,46.05837,68,56,0
46.194145,46.465332,77,64,0
46.454594,46.59418,79,52,0
46.194145,46.712296,68,64,0
46.583447,46.723484,77,48,0
46.712296,46.846565,67,53,0
46.712296,46.846565,75,53,0
46.980835,47.11661,70,44,0
47.11661,47.252216,74,46,0
47.252216,47.383152,75,57,0
47.383152,47.51352,76,44,0
47.51352,47.711193,77,56,0
47.51352,47.711193,74,56,0
47.779083,47.910725,70,65,0
47.910725,48.042038,74,63,0
48.042038,48.169487,75,57,0
48.169487,48.2968,77,51,0
48.2968,48.48739,79,64,0
48.2968,48.48739,75,64,0
48.55082,48.678043,70,68,0
48.678043,48.804443,76,73,0
48.804443,48.9293,77,70,0
48.9293,49.054153,79,64,0
49.054153,49.25205,80,80,0
49.054153,49.25205,77,80,0
49.318016,49.698067,73,62,0
49.318016,49.698067,79,74,0
49.318016,49.698067,82,74,0
49.698067,49.844055,82,44,0
49.698067,49.844055,79,44,0
49.986233,50.128414,79,52,0
49.986233,50.128414,82,52,0
49.844055,50.128414,73,62,0
50.25836,50.39887,82,56,0
50.388313,50.525284,84,54,0
50.128414,50.638454,73,48,0
50.514996,50.649353,82,51,0
50.638454,50.769253,80,56,0
50.638454,50.769253,72,56,0
51.02917,51.16889,80,51,0
51.15829,51.295864,82,54,0
50.90005,51.409737,71,47,0
51.28551,51.42078,80,50,0
51.409737,51.542244,79,50,0
51.409737,51.542244,70,50,0
51.812073,51.961098,79,46,0
51.94939,52.101593,80,59,0
51.674755,52.23038,70,63,0
52.089886,52.242397,79,54,0
52.23038,52.518745,77,50,0
52.23038,52.518745,68,50,0
52.518745,52.65828,75,45,0
52.518745,52.65828,67,45,0
52.797817,52.864216,75,59,0
52.93062,52.99702,75,52,0
53.06342,53.12982,75,61,0
53.19622,53.262623,75,57,0
53.329025,53.394844,75,64,0
53.460667,53.52649,75,67,0
53.592308,53.65813,75,70,0
53.723953,53.789772,75,64,0
53.855595,53.921417,75,71,0
53.987236,54.056362,75,67,0
54.125484,54.249073,77,61,0
54.249073,54.372665,75,57,0
54.372665,54.496254,72,50,0
54.496254,54.619843,68,56,0
54.619843,54.74343,63,51,0
54.74343,54.86702,64,55,0
54.86702,54.928688,65,68,0
54.99044,55.052277,65,62,0
55.114197,55.176243,65,62,0
55.238373,55.300587,65,53,0
55.36289,55.425312,65,55,0
55.48783,55.55043,65,62,0
55.61312,55.738693,63,68,0
55.738693,55.86394,68,55,0
55.86394,55.98886,72,50,0
55.98886,56.113396,75,58,0
56.113396,56.237617,80,59,0
56.237617,56.3615,76,56,0
56.3615,56.42484,77,41,0
56.488182,56.551525,77,63,0
56.614864,56.678207,77,61,0
56.74155,56.804893,77,63,0
56.868233,56.931576,77,58,0
56.99492,57.05826,77,54,0
57.1216,57.209743,77,58,0
57.209743,57.297882,79,52,0
57.297882,57.386024,77,52,0
57.386024,57.517597,75,55,0
57.517597,57.649837,80,68,0
57.649837,57.782856,84,49,0
57.91656,58.174805,89,55,0
58.174805,58.302555,87,55,0
58.302555,58.43031,85,51,0
58.43031,58.56195,79,55,0
58.693592,58.951836,82,60,0
58.951836,59.07986,80,58,0
59.07986,59.207886,75,50,0
59.207886,59.338963,72,38,0
59.470043,59.535862,75,48,0
59.601685,59.667507,75,55,0
59.733326,59.79915,75,66,0
59.86497,59.93079,75,73,0
59.996613,60.062435,75,69,0
60.128254,60.19738,75,64,0
60.266502,60.39009,77,53,0
60.39009,60.513683,75,61,0
60.513683,60.63727,72,50,0
60.63727,60.76086,68,40,0
60.76086,60.88445,63,48,0
60.88445,61.008038,64,43,0
61.008038,61.069706,65,43,0
61.131374,61.19304,65,50,0
61.254707,61.316376,65,53,0
61.378044,61.43971,65,56,0
61.501377,61.563046,65,46,0
61.624714,61.68638,65,43,0
61.748047,61.871384,63,48,0
61.871384,61.994717,68,48,0
61.994717,62.118053,72,45,0
62.118053,62.241386,75,61,0
62.241386,62.364723,80,52,0
62.364723,62.48808,76,45,0
62.48808,62.551422,77,50,0
62.61476,62.678104,77,45,0
62.741447,62.80479,77,60,0
62.86813,62.931473,77,65,0
62.994816,63.058155,77,66,0
63.1215,63.18484,77,51,0
63.248184,63.336323,77,70,0
63.336323,63.424465,79,55,0
63.424465,63.512604,77,48,0
63.512604,63.644176,75,55,0
63.644176,63.776417,80,51,0
63.776417,63.90944,84,46,0
64.043144,64.301384,89,55,0
64.301384,64.42914,87,42,0
64.42914,64.55689,85,39,0
64.55689,64.68853,79,47,0
64.820175,65.34674,80,57,0
65.34674,65.6475,68,55,0
65.6475,66.18923,78,62,0
65.6475,66.18923,75,62,0
66.17847,66.447845,71,48,0
66.17847,66.447845,74,48,0
66.436676,66.57071,72,48,0
66.436676,66.57071,75,48,0
66.70474,66.76943,68,50,0
66.83412,66.89715,68,42,0
66.960175,67.23073,68,56,0
67.23073,67.78004,82,60,0
67.23073,67.78004,78,60,0
67.7693,68.03828,76,48,0
67.7693,68.03828,79,48,0
68.026955,68.16282,77,49,0
68.026955,68.16282,80,49,0
68.29868,68.3631,68,49,0
68.42751,68.49027,68,42,0
68.55303,68.8199,68,55,0
68.8199,69.37042,78,58,0
68.8199,69.37042,75,58,0
69.35969,69.62851,71,44,0
69.35969,69.62851,74,44,0
69.61734,69.75137,72,48,0
69.61734,69.75137,75,48,0
69.88541,69.95197,68,51,0
70.01854,70.08511,68,43,0
70.15168,70.42465,68,52,0
70.42465,70.72022,78,53,0
70.42465,70.72022,70,53,0
70.72022,71.007996,77,45,0
70.72022,71.007996,68,45,0
71.007996,71.28197,75,49,0
71.007996,71.28197,66,49,0
71.28197,71.42482,73,47,0
71.28197,71.42482,65,47,0
71.56768,71.6372,68,40,0
71.70672,71.77624,68,36,0
71.84576,72.13275,68,40,0
72.13275,72.677246,78,47,0
72.13275,72.677246,75,47,0
72.66649,72.93587,71,42,0
72.66649,72.93587,74,42,0
72.9247,73.05873,72,42,0
72.9247,73.05873,75,42,0
73.19276,73.257454,68,44,0
73.32214,73.38464,68,39,0
73.44714,73.7223,68,53,0
73.7223,74.26443,82,64,0
73.7223,74.26443,78,64,0
74.25367,74.5232,76,52,0
74.25367,74.5232,79,52,0
74.51188,74.64774,77,52,0
74.51188,74.64774,80,52,0
74.78361,74.84802,68,45,0
74.91243,74.9752,68,36,0
75.03796,75.309685,68,55,0
75.309685,75.44193,80,63,0
75.70356,75.83294,80,49,0
75.57417,75.83294,70,63,0
75.83294,76.367935,75,56,0
75.83294,76.49931,78,56,0
76.49931,76.63069,78,46,0
76.367935,76.63069,68,53,0
76.63069,77.17484,73,50,0
76.63069,77.31585,77,50,0
77.31585,77.45686,77,40,0
77.17484,77.45686,66,40,0
77.45686,77.75963,75,38,0
77.45686,77.75963,66,38,0
77.75963,78.0624,73,36,0
77.75963,78.0624,65,36,0
78.0624,78.128334,68,43,0
78.19427,78.2602,68,35,0
78.32614,78.60273,68,43,0
78.60273,79.14974,78,48,0
78.60273,79.14974,75,48,0
79.138985,79.40836,71,45,0
79.138985,79.40836,74,45,0
79.397194,79.53122,72,45,0
79.397194,79.53122,75,45,0
79.66525,79.72994,68,47,0
79.79464,79.857796,68,42,0
79.92095,80.19347,68,56,0
80.19347,80.742775,82,60,0
80.19347,80.742775,78,60,0
80.73204,81.001015,76,48,0
80.73204,81.001015,79,48,0
80.98969,81.12556,77,49,0
80.98969,81.12556,80,49,0
81.26142,81.325836,68,47,0
81.39024,81.45327,68,40,0
81.5163,81.783165,68,55,0
81.783165,82.33369,78,58,0
81.783165,82.33369,75,58,0
82.32295,82.591774,71,44,0
82.32295,82.591774,74,44,0
82.580605,82.71464,72,48,0
82.580605,82.71464,75,48,0
82.84866,82.91524,68,44,0
82.981804,83.04837,68,39,0
83.114944,83.39236,68,52,0
83.39236,83.68985,78,53,0
83.39236,83.68985,70,53,0
83.68985,83.977615,77,46,0
83.68985,83.977615,68,46,0
83.977615,84.25348,75,49,0
83.977615,84.25348,66,49,0
84.25348,84.394485,73,47,0
84.25348,84.394485,65,47,0
84.5355,84.60502,68,40,0
84.67454,84.74406,68,33,0
84.813576,85.092575,68,40,0
85.092575,85.63708,78,47,0
85.092575,85.63708,75,47,0
85.62631,85.89569,71,42,0
85.62631,85.89569,74,42,0
85.88452,86.018555,72,42,0
85.88452,86.018555,75,42,0
86.15259,86.21728,68,37,0
86.28197,86.34512,68,29,0
86.40829,86.672775,68,53,0
86.672775,87.214905,82,64,0
86.672775,87.214905,78,64,0
87.20415,87.47368,76,52,0
87.20415,87.47368,79,52,0
87.46236,87.59822,77,52,0
87.46236,87.59822,80,52,0
87.734085,87.7985,68,45,0
87.862915,87.92607,68,41,0
87.98923,88.260956,68,55,0
88.260956,88.3932,80,63,0
88.65483,88.78421,80,49,0
88.52545,88.78421,70,63,0
88.78421,89.31921,75,56,0
88.78421,89.450584,78,56,0
89.450584,89.58196,78,46,0
89.31921,89.58196,68,53,0
89.58196,90.126114,73,50,0
89.58196,90.26713,77,50,0
90.26713,90.408134,77,40,0
90.126114,90.408134,66,40,0
90.408134,90.71091,75,38,0
90.408134,90.71091,66,38,0
90.71091,91.01367,73,36,0
90.71091,91.01367,65,36,0
91.316444,91.4484,77,77,0
91.316444,91.4484,65,77,0
91.54736,91.58035,77,69,0
91.58035,91.71231,75,82,0
91.58035,91.71231,67,82,0
91.84426,91.97622,67,68,0
92.07519,92.10818,77,55,0
92.10818,92.24013,75,67,0
92.10818,92.24013,67,67,0
92.372086,92.50404,67,81,0
92.603004,92.635994,77,59,0
92.635994,92.76795,75,69,0
92.635994,92.76795,67,69,0
92.8999,93.03186,67,66,0
93.16348,93.291275,68,59,0
93.291275,93.41845,72,47,0
93.41845,93.54501,75,53,0
93.54501,93.67098,80,53,0
93.67098,93.80207,84,59,0
93.93316,94.01688,80,63,0
94.01688,94.100586,82,44,0
94.100586,94.1843,80,51,0
94.1843,94.309875,77,36,0
94.309875,94.43545,74,58,0
94.43545,94.5674,75,63,0
94.66637,94.699356,77,64,0
94.699356,94.833084,75,78,0
94.699356,94.833084,67,78,0
94.96682,95.10055,67,60,0
95.20084,95.23428,77,53,0
95.23428,95.36801,75,71,0
95.23428,95.36801,67,71,0
95.50174,95.635475,67,81,0
95.73577,95.7692,77,51,0
95.7692,95.90294,75,72,0
95.7692,95.90294,67,72,0
96.03667,96.1704,67,72,0
96.30366,96.388985,63,64,0
96.388985,96.47431,65,52,0
96.47431,96.55964,63,60,0
96.55964,96.690056,62,44,0
96.690056,96.821846,63,54,0
96.821846,96.958336,72,58,0
96.958336,97.09482,70,53,0
97.09482,97.13054,68,48,0
97.13054,97.16625,70,41,0
97.16625,97.23306,68,64,0
97.23306,97.3667,67,49,0
97.3667,97.49979,68,71,0
97.49979,97.631836,70,66,0
97.631836,97.76283,72,77,0
97.76283,97.87037,73,56,0
97.87037,97.90505,77,69,0
97.90505,98.037,75,85,0
97.90505,98.037,67,85,0
98.16896,98.30092,67,63,0
98.39988,98.43287,77,57,0
98.43287,98.56483,75,70,0
98.43287,98.56483,67,70,0
98.69678,98.828735,67,86,0
98.927704,98.96069,77,67,0
98.96069,99.09264,75,74,0
98.96069,99.09264,67,74,0
99.2246,99.35655,67,65,0
99.48818,99.61597,68,57,0
99.61597,99.74315,72,38,0
99.74315,99.86971,75,43,0
99.86971,99.995674,80,53,0
99.995674,100.12677,84,57,0
100.25786,100.34157,80,67,0
100.34157,100.425285,82,52,0
100.425285,100.508995,80,58,0
100.508995,100.63457,77,64,0
100.63457,100.76014,74,50,0
100.76014,100.8921,75,68,0
100.99106,101.02405,77,67,0
101.02405,101.15778,75,81,0
101.02405,101.15778,67,81,0
101.29151,101.42525,67,72,0
101.52554,101.558975,77,67,0
101.558975,101.69271,75,72,0
101.558975,101.69271,67,72,0
101.82644,101.96017,67,86,0
102.06047,102.0939,77,64,0
102.0939,102.22763,75,72,0
102.0939,102.22763,67,72,0
102.36137,102.495094,67,63,0
102.62835,102.66364,68,45,0
102.66364,102.69894,70,37,0
102.69894,102.767586,68,46,0
102.767586,102.9049,67,39,0
102.9049,103.03725,68,58,0
103.03725,103.16829,70,53,0
103.16829,103.298004,72,58,0
103.298004,103.42643,73,54,0
103.42643,103.55871,75,60,0
103.55871,103.6926,77,57,0
103.6926,103.828125,78,67,0
103.828125,103.9654,79,59,0
103.9654,104.44927,82,68,0
104.44927,104.64168,80,47,0
104.64168,105.19125,78,55,0
104.64168,105.19125,75,55,0
105.18026,105.45534,71,48,0
105.18026,105.45534,74,48,0
105.44417,105.5782,72,48,0
105.44417,105.5782,75,48,0
105.71223,105.77749,68,43,0
105.84274,105.908,68,37,0
105.97326,106.24661,68,56,0
106.24661,106.79593,82,60,0
106.24661,106.79593,78,60,0
106.785194,107.05417,76,48,0
106.785194,107.05417,79,48,0
107.04285,107.17871,77,49,0
107.04285,107.17871,80,49,0
107.314575,107.37898,68,42,0
107.4434,107.50781,68,35,0
107.57223,107.839096,68,55,0
107.839096,108.38962,78,58,0
107.839096,108.38962,75,58,0
108.37888,108.647705,71,44,0
108.37888,108.647705,74,44,0
108.636536,108.77056,72,48,0
108.636536,108.77056,75,48,0
108.904594,108.97116,68,44,0
109.037735,109.1043,68,44,0
109.17087,109.44511,68,52,0
109.44511,109.74436,78,53,0
109.44511,109.74436,70,53,0
109.74436,110.03282,77,51,0
109.74436,110.03282,68,51,0
110.03282,110.30679,75,49,0
110.03282,110.30679,66,49,0
110.30679,110.44781,73,47,0
110.30679,110.44781,65,47,0
110.58881,110.65833,68,40,0
110.72785,110.794815,68,37,0
110.86178,111.137276,68,40,0
111.137276,111.68177,78,47,0
111.137276,111.68177,75,47,0
111.67101,111.94039,71,42,0
111.67101,111.94039,74,42,0
111.92922,112.06325,72,42,0
111.92922,112.06325,75,42,0
112.19728,112.26197,68,37,0
112.32667,112.389824,68,35,0
112.45298,112.71689,68,53,0
112.71689,113.259026,82,64,0
112.71689,113.259026,78,64,0
113.24827,113.51779,76,52,0
113.24827,113.51779,79,52,0
113.50647,113.642334,77,52,0
113.50647,113.642334,80,52,0
113.7782,113.84261,68,45,0
113.90703,113.97032,68,36,0
114.03361,114.305336,68,55,0
114.305336,114.437584,80,63,0
114.69921,114.8286,80,49,0
114.56983,114.8286,70,63,0
114.8286,115.36359,75,56,0
114.8286,115.494965,78,56,0
115.494965,115.62634,78,46,0
115.36359,115.62634,68,53,0
115.62634,116.170494,73,50,0
115.62634,116.31151,77,50,0
116.31151,116.452515,77,40,0
116.170494,116.452515,66,40,0
116.452515,116.75529,75,38,0
116.452515,116.75529,66,38,0
116.75529,116.90667,73,36,0
116.75529,116.90667,65,36,0
117.05806,117.12399,61,52,0
117.189926,117.25586,61,52,0
117.32179,117.593285,61,52,0
117.593285,117.74352,68,72,0
117.593285,117.74352,65,72,0
118.194244,118.34449,68,69,0
118.194244,118.34449,65,69,0
118.49473,118.53229,68,66,0
118.53229,118.56985,70,66,0
118.56985,118.644966,68,72,0
118.56985,118.644966,65,72,0
118.942116,119.08903,66,60,0
118.942116,119.08903,63,60,0
119.08903,119.382835,68,72,0
119.08903,119.382835,65,72,0
119.382835,119.51901,70,76,0
119.382835,119.51901,66,76,0
119.9352,120.076546,73,81,0
119.9352,120.076546,70,81,0
120.21789,121.05991,78,87,0
120.21789,121.05991,70,87,0
121.05991,121.1983,77,58,0
121.05991,121.1983,68,58,0
121.47225,121.54003,75,54,0
121.6078,121.87892,75,58,0
121.6078,121.87892,66,58,0
121.87892,122.01763,77,60,0
121.87892,122.01763,68,60,0
122.29282,122.36107,75,50,0
122.42931,122.702286,75,56,0
122.42931,122.702286,66,56,0
122.702286,122.840675,77,60,0
122.702286,122.840675,68,60,0
123.1194,123.18957,75,51,0
123.25974,123.54041,75,57,0
123.25974,123.54041,66,57,0
123.54041,123.680756,72,68,0
123.54041,123.680756,64,68,0
123.961426,124.03159,73,56,0
124.10177,124.38244,73,62,0
124.10177,124.38244,65,62,0
124.38244,124.52115,80,86,0
124.38244,124.52115,77,86,0
124.79666,124.86507,77,72,0
124.79666,124.86507,80,72,0
124.93347,125.20708,80,80,0
124.93347,125.20708,77,80,0
125.20708,125.242165,80,77,0
125.242165,125.277245,82,78,0
125.277245,125.34741,80,86,0
125.277245,125.34741,77,86,0
125.621056,125.75631,78,80,0
125.621056,125.75631,75,80,0
125.75631,126.02681,80,80,0
125.75631,126.02681,77,80,0
126.02681,126.16024,78,88,0
126.02681,126.16024,82,88,0
126.56235,126.698524,82,88,0
126.56235,126.698524,85,88,0
126.834694,127.647,82,94,0
126.834694,127.647,90,94,0
127.647,127.77955,80,58,0
127.647,127.77955,89,58,0
128.04233,128.10744,87,48,0
128.17255,128.433,87,56,0
128.17255,128.433,78,56,0
128.433,128.56584,80,59,0
128.433,128.56584,89,59,0
128.82863,128.8936,87,55,0
128.95857,129.21846,87,55,0
128.95857,129.21846,78,55,0
129.21846,129.3522,89,59,0
129.21846,129.3522,80,59,0
129.62694,129.69745,87,50,0
129.76794,130.06396,87,55,0
129.76794,130.06396,78,55,0
130.06396,130.35999,77,59,0
130.06396,130.35999,85,59,0
130.656,130.95203,61,67,0
130.95203,131.09471,68,72,0
130.95203,131.09471,65,72,0
131.52278,131.66547,68,69,0
131.52278,131.66547,65,69,0
131.80815,131.84383,68,66,0
131.84383,131.87949,70,66,0
131.87949,131.95084,68,72,0
131.87949,131.95084,65,72,0
132.23256,132.3716,66,68,0
132.23256,132.3716,63,68,0
132.3716,132.64967,68,72,0
132.3716,132.64967,65,72,0
132.64967,132.78584,70,76,0
132.64967,132.78584,66,76,0
133.20009,133.33752,73,81,0
133.20009,133.33752,70,81,0
133.47496,134.31699,78,87,0
133.47496,134.31699,70,87,0
134.31699,134.45537,77,61,0
134.31699,134.45537,68,61,0
134.72931,134.79709,75,52,0
134.86487,135.13599,75,56,0
134.86487,135.13599,66,56,0
135.13599,135.27469,77,60,0
135.13599,135.27469,68,60,0
135.5499,135.61813,75,52,0
135.68637,135.95935,75,56,0
135.68637,135.95935,66,56,0
135.95935,136.09775,77,60,0
135.95935,136.09775,68,60,0
136.37646,136.44664,75,55,0
136.5168,136.79749,75,57,0
136.5168,136.79749,66,57,0
136.79749,136.93782,72,68,0
136.79749,136.93782,64,68,0
137.21849,137.28867,73,58,0
137.35883,137.63951,73,62,0
137.35883,137.63951,65,62,0
137.63951,137.77821,80,86,0
137.63951,137.77821,77,86,0
138.05373,138.12213,77,80,0
138.05373,138.12213,80,80,0
138.19054,138.46414,80,80,0
138.19054,138.46414,77,80,0
138.46414,138.49922,80,77,0
138.49922,138.53432,82,78,0
138.53432,138.60448,80,86,0
138.53432,138.60448,77,86,0
138.87811,139.01337,78,75,0
138.87811,139.01337,75,75,0
139.01337,139.28387,80,80,0
139.01337,139.28387,77,80,0
139.28387,139.41731,78,88,0
139.28387,139.41731,82,88,0
139.81941,139.95558,82,92,0
139.81941,139.95558,85,92,0
140.09175,140.90407,82,101,0
140.09175,140.90407,90,101,0
140.90407,141.03662,80,59,0
140.90407,141.03662,89,59,0
141.2994,141.3645,87,56,0
141.42961,141.69006,87,56,0
141.42961,141.69006,78,56,0
141.69006,141.8229,80,59,0
141.69006,141.8229,89,59,0
142.0857,142.15067,87,51,0
142.21564,142.47552,87,55,0
142.21564,142.47552,78,55,0
142.47552,142.60925,89,59,0
142.47552,142.60925,80,59,0
142.884,142.95451,87,52,0
143.02501,143.32103,87,55,0
143.02501,143.32103,78,55,0
143.32103,143.61705,77,59,0
143.32103,143.61705,85,59,0
143.91307,144.13458,77,50,0
144.13998,144.1724,77,45,0
144.1724,144.30206,78,52,0
144.3993,144.43172,78,41,0
144.43172,144.56139,76,46,0
144.65863,144.69104,76,43,0
144.69104,144.82071,77,50,0
144.91795,144.95036,77,46,0
144.95036,145.07892,78,53,0
145.17532,145.20746,78,44,0
145.20746,145.33601,76,50,0
145.43242,145.46455,76,45,0
145.46455,145.5931,77,50,0
145.68951,145.72165,77,50,0
145.72165,145.84384,85,57,0
145.93549,145.96605,85,50,0
145.96605,146.08824,84,59,0
146.17989,146.21043,84,56,0
146.21043,146.33264,83,66,0
146.42429,146.45483,83,64,0
146.45483,146.5758,82,75,0
146.66653,146.69678,82,63,0
146.69678,146.81775,81,73,0
146.90846,146.9387,81,63,0
146.9387,147.05968,80,70,0
147.1504,147.18065,80,58,0
147.18065,147.3016,79,67,0
147.39233,147.42258,79,54,0
147.42258,147.54355,78,65,0
147.63428,147.66452,78,51,0
147.66452,147.78548,77,63,0
147.8762,147.90645,77,49,0
147.90645,148.02727,76,60,0
148.1181,148.14842,76,46,0
148.14842,148.26997,75,58,0
148.36139,148.3919,75,44,0
148.3919,148.51424,72,54,0
148.60622,148.63695,72,44,0
148.63695,148.75992,73,52,0
148.85214,148.88289,73,38,0
148.88289,149.00587,69,48,0
149.0981,149.12885,69,39,0
149.12885,149.25182,70,50,0
149.34406,149.3748,70,39,0
149.3748,149.49957,73,50,0
149.59315,149.62434,73,39,0
149.62434,149.74913,75,50,0
149.84271,149.8739,75,37,0
149.8739,150.00102,76,51,0
150.09636,150.12814,76,40,0
150.12814,150.25316,78,54,0
150.34715,150.37852,78,44,0
150.37852,150.50423,76,55,0
150.59877,150.63034,76,44,0
150.63034,150.75679,77,58,0
150.85187,150.8836,77,49,0
150.8836,151.00835,78,62,0
151.1019,151.13309,78,51,0
151.13309,151.25783,76,68,0
151.35138,151.38257,76,54,0
151.38257,151.5073,77,73,0
151.60086,151.63203,77,71,0
151.63203,151.75374,89,83,0
151.84502,151.87544,89,68,0
151.87544,151.99715,85,80,0
152.08842,152.11885,85,63,0
152.11885,152.24055,82,76,0
152.33183,152.36226,82,57,0
152.36226,152.48433,78,71,0
152.5761,152.60672,78,52,0
152.60672,152.72952,75,66,0
152.82187,152.85268,75,44,0
152.85268,152.97624,72,57,0
153.06917,153.10019,78,41,0
153.10019,153.22118,77,55,0
153.3119,153.34215,77,42,0
153.34215,153.46313,76,53,0
153.55388,153.58412,76,42,0
153.58412,153.7051,75,55,0
153.79584,153.82608,75,43,0
153.82608,153.94707,74,56,0
154.0378,154.06805,74,44,0
154.06805,154.18903,73,58,0
154.27977,154.31001,73,46,0
154.31001,154.431,72,60,0
154.52173,154.55197,72,46,0
154.55197,154.6749,71,62,0
154.76747,154.7984,71,49,0
154.7984,154.92258,70,64,0
155.01611,155.04738,70,48,0
155.04738,155.17284,69,66,0
155.26736,155.29897,69,47,0
155.29897,155.42574,68,67,0
155.52127,155.5532,68,51,0
155.5532,155.68134,67,69,0
155.77788,155.81015,67,55,0
155.81015,155.95117,66,71,0
156.09218,156.23486,68,72,0
156.09218,156.23486,65,72,0
156.66293,156.9483,68,69,0
156.66293,156.9483,65,69,0
156.9483,156.98398,68,66,0
156.98398,157.01964,70,66,0
157.01964,157.09099,68,72,0
157.01964,157.09099,65,72,0
157.37271,157.51175,66,68,0
157.37271,157.51175,63,68,0
157.51175,157.78983,68,72,0
157.51175,157.78983,65,72,0
157.78983,157.926,70,76,0
157.78983,157.926,66,76,0
158.34024,158.47992,73,81,0
158.34024,158.47992,70,81,0
158.61961,159.46164,78,87,0
158.61961,159.46164,70,87,0
159.46164,159.60002,77,61,0
159.46164,159.60002,68,61,0
159.87398,159.94174,75,52,0
160.00952,160.28064,75,56,0
160.00952,160.28064,66,56,0
160.28064,160.41934,77,60,0
160.28064,160.41934,68,60,0
160.69455,160.76279,75,53,0
160.83104,161.104,75,56,0
160.83104,161.104,66,56,0
161.104,161.2424,77,60,0
161.104,161.2424,68,60,0
161.52112,161.5913,75,53,0
161.66147,161.94214,75,57,0
161.66147,161.94214,66,57,0
161.94214,162.08247,72,68,0
161.94214,162.08247,64,68,0
162.36314,162.43332,73,57,0
162.50348,162.78416,73,62,0
162.50348,162.78416,65,62,0
162.78416,162.92287,80,86,0
162.78416,162.92287,77,86,0
163.19838,163.26678,77,76,0
163.19838,163.26678,80,76,0
163.33519,163.6088,80,80,0
163.33519,163.6088,77,80,0
163.6088,163.64389,80,77,0
163.64389,163.67897,82,78,0
163.67897,163.74913,80,86,0
163.67897,163.74913,77,86,0
164.02278,164.15804,78,76,0
164.02278,164.15804,75,76,0
164.15804,164.42853,80,80,0
164.15804,164.42853,77,80,0
164.42853,164.56197,78,88,0
164.42853,164.56197,82,88,0
164.96407,165.10182,82,92,0
164.96407,165.10182,85,92,0
165.23956,166.05188,82,96,0
165.23956,166.05188,90,96,0
166.05188,166.18442,80,59,0
166.05188,166.18442,89,59,0
166.4472,166.51231,87,52,0
166.57742,166.83788,87,56,0
166.57742,166.83788,78,56,0
166.83788,166.97072,80,59,0
166.83788,166.97072,89,59,0
167.2335,167.29848,87,52,0
167.36345,167.62334,87,55,0
167.36345,167.62334,78,55,0
167.62334,167.75706,89,59,0
167.62334,167.75706,80,59,0
168.03181,168.10231,87,53,0
168.17282,168.46884,87,55,0
168.17282,168.46884,78,55,0
168.46884,168.76486,77,59,0
168.46884,168.76486,85,59,0
169.06088,169.28238,77,50,0
169.28778,169.3202,77,45,0
169.3202,169.44986,78,52,0
169.54712,169.57953,78,44,0
169.57953,169.7092,76,50,0
169.80644,169.83885,76,43,0
169.83885,169.96852,77,50,0
170.06577,170.09818,77,46,0
170.09818,170.22673,78,53,0
170.32314,170.35527,78,44,0
170.35527,170.48381,76,50,0
170.58023,170.61237,76,45,0
170.61237,170.7409,77,50,0
170.83731,170.86945,77,50,0
170.86945,170.99216,85,57,0
171.08418,171.11485,85,50,0
171.11485,171.23755,84,59,0
171.32957,171.36024,84,56,0
171.36024,171.48265,83,66,0
171.57391,171.60422,83,64,0
171.60422,171.72519,82,75,0
171.81592,171.84615,82,63,0
171.84615,171.96712,81,73,0
172.05785,172.08809,81,63,0
172.08809,172.20906,80,70,0
172.29977,172.33002,80,58,0
172.33002,172.45099,79,67,0
172.54172,172.57196,79,54,0
172.57196,172.69293,78,65,0
172.78365,172.81389,78,51,0
172.81389,172.93486,77,63,0
173.02559,173.05583,77,49,0
173.05583,173.17665,76,60,0
173.26749,173.29779,76,46,0
173.29779,173.41936,75,58,0
173.51077,173.54129,75,44,0
173.54129,173.66362,72,54,0
173.7556,173.78632,72,44,0
173.78632,173.90929,73,52,0
174.00153,174.03227,73,38,0
174.03227,174.15524,69,50,0
174.24748,174.27823,69,39,0
174.27823,174.4012,70,50,0
174.49342,174.52417,70,39,0
174.52417,174.64896,73,50,0
174.74254,174.77373,73,39,0
174.77373,174.8985,75,50,0
174.99208,175.02328,75,37,0
175.02328,175.15013,76,51,0
175.24527,175.27698,76,40,0
175.27698,175.40198,78,54,0
175.49573,175.52698,78,44,0
175.52698,175.65198,76,55,0
175.74573,175.77698,76,44,0
175.77698,175.90198,77,58,0
175.99573,176.02698,77,49,0
176.02698,176.15176,78,62,0
176.24553,176.27686,78,51,0
176.27686,176.40224,76,68,0
176.49649,176.52794,76,54,0
176.52794,176.65395,77,73,0
176.74869,176.7803,77,71,0
176.7803,176.90201,89,83,0
176.99329,177.02371,89,68,0
177.02371,177.14542,85,80,0
177.2367,177.26712,85,63,0
177.26712,177.38882,82,76,0
177.4801,177.51053,82,57,0
177.51053,177.63258,78,71,0
177.72437,177.75497,78,52,0
177.75497,177.87779,75,66,0
177.97012,178.00093,75,44,0
178.00093,178.12451,72,57,0
178.21744,178.24846,78,41,0
178.24846,178.36943,77,55,0
178.46017,178.49042,77,42,0
178.49042,178.6114,76,53,0
178.70213,178.73238,76,42,0
178.73238,178.85336,75,55,0
178.9441,178.97435,75,43,0
178.97435,179.09534,74,56,0
179.18607,179.21631,74,44,0
179.21631,179.3373,73,58,0
179.42804,179.45828,73,46,0
179.45828,179.57925,72,60,0
179.67,179.70024,72,46,0
179.70024,179.82315,71,62,0
179.91573,179.94667,71,49,0
179.94667,180.07085,70,64,0
180.16438,180.19565,70,48,0
180.19565,180.3211,69,66,0
180.41563,180.44722,69,47,0
180.44722,180.57399,68,67,0
180.66954,180.70146,68,51,0
180.70146,180.82959,67,69,0
180.92615,180.95842,67,55,0
180.95842,181.09943,66,71,0
181.24045,181.38313,68,72,0
181.24045,181.38313,65,72,0
181.81119,182.09657,68,69,0
181.81119,182.09657,65,69,0
182.09657,182.13223,68,66,0
182.13223,182.16791,70,66,0
182.16791,182.23926,68,72,0
182.16791,182.23926,65,72,0
182.52098,182.66002,66,68,0
182.52098,182.66002,63,68,0
182.66002,182.9381,68,72,0
182.66002,182.9381,65,72,0
182.9381,183.07426,70,76,0
182.9381,183.07426,66,76,0
183.48851,183.62819,73,81,0
183.48851,183.62819,70,81,0
183.76788,184.60991,78,87,0
183.76788,184.60991,70,87,0
184.60991,184.74829,77,61,0
184.60991,184.74829,68,61,0
185.02223,185.09001,75,54,0
185.15779,185.42891,75,56,0
185.15779,185.42891,66,56,0
185.42891,185.56761,77,60,0
185.42891,185.56761,68,60,0
185.84282,185.91106,75,54,0
185.9793,186.25227,75,56,0
185.9793,186.25227,66,56,0
186.25227,186.39067,77,60,0
186.25227,186.39067,68,60,0
186.66939,186.73956,75,55,0
186.80972,187.10098,75,57,0
186.80972,187.10098,66,57,0
187.10098,187.24084,72,68,0
187.10098,187.24084,64,68,0
187.52057,187.5905,73,57,0
187.66043,187.94016,73,62,0
187.66043,187.94016,65,62,0
187.94016,188.07886,80,86,0
187.94016,188.07886,77,86,0
188.35437,188.42278,77,77,0
188.35437,188.42278,80,77,0
188.49118,188.76479,80,80,0
188.49118,188.76479,77,80,0
188.76479,188.79987,80,77,0
188.79987,188.83496,82,78,0
188.83496,188.90512,80,86,0
188.83496,188.90512,77,86,0
189.17877,189.31401,78,77,0
189.17877,189.31401,75,77,0
189.31401,189.58452,80,80,0
189.31401,189.58452,77,80,0
189.58452,189.71796,78,88,0
189.58452,189.71796,82,88,0
190.12006,190.25781,82,92,0
190.12006,190.25781,85,92,0
190.39555,191.20786,82,95,0
190.39555,191.20786,90,95,0
191.20786,191.34041,80,59,0
191.20786,191.34041,89,59,0
191.60318,191.6683,87,53,0
191.73341,191.99387,87,56,0
191.73341,191.99387,78,56,0
191.99387,192.12671,80,59,0
191.99387,192.12671,89,59,0
192.3895,192.45447,87,52,0
192.51944,192.77933,87,55,0
192.51944,192.77933,78,55,0
192.77933,192.91306,89,59,0
192.77933,192.91306,80,59,0
193.1878,193.2583,87,52,0
193.32881,193.62483,87,55,0
193.32881,193.62483,78,55,0
193.62483,193.92085,77,59,0
193.62483,193.92085,85,59,0
194.21687,194.45705,73,51,0
194.45705,194.6972,73,51,0
194.6972,194.88182,73,54,0
194.88182,195.06644,75,55,0
195.06644,195.25009,73,54,0
195.25009,195.42984,72,48,0
195.42984,195.60779,73,49,0
195.60779,195.78384,74,51,0
195.78384,196.45255,77,53,0
196.45255,196.77646,75,50,0
196.77646,196.9452,68,50,0
196.9452,197.11397,70,50,0
197.11397,197.28273,68,50,0
197.28273,197.45149,67,50,0
197.45149,197.62024,68,50,0
197.62024,197.789,69,50,0
197.789,198.13272,70,61,0
198.13272,198.2171,66,50,0
198.30148,198.47023,70,51,0
198.47023,198.63899,71,54,0
198.63899,198.80775,72,56,0
198.80775,198.85307,73,50,0
198.85307,198.89839,75,50,0
198.89839,198.98904,73,50,0
198.98904,199.1578,72,55,0
199.1578,199.32655,73,57,0
199.32655,199.49799,82,58,0
199.49799,199.66942,80,60,0
199.66942,199.84084,78,62,0
199.84084,200.49812,77,64,0
200.49812,200.84935,75,56,0
200.84935,200.97382,68,52,0
200.97382,201.09828,70,50,0
201.09828,201.22275,68,50,0
201.22275,201.40944,67,52,0
201.40944,201.58783,68,50,0
201.58783,201.76624,71,56,0
201.76624,201.94464,70,50,0
201.94464,202.03616,66,50,0
202.12769,202.30478,60,42,0
202.30478,202.48103,61,43,0
202.48103,202.65637,65,45,0
202.65637,202.83086,66,47,0
202.83086,203.00453,70,48,0
203.00453,203.17766,73,50,0
203.17766,203.35184,75,51,0
203.35184,203.52708,73,53,0
203.52708,203.70352,72,55,0
203.70352,203.88107,73,56,0
203.88107,204.01503,74,58,0
204.01503,204.05981,74,54,0
204.05981,204.76913,77,67,0
204.76913,205.1182,75,59,0
205.1182,205.29272,68,50,0
205.29272,205.46725,70,50,0
205.46725,205.51088,68,41,0
205.51088,205.55452,70,41,0
205.55452,205.64178,68,49,0
205.64178,205.81657,67,50,0
205.81657,205.99376,68,52,0
205.99376,206.1734,69,55,0
206.1734,206.536,70,64,0
206.536,206.62663,66,54,0
206.71729,206.89857,70,53,0
206.89857,207.07986,71,55,0
207.07986,207.26115,72,57,0
207.26115,207.3108,73,50,0
207.3108,207.36044,75,50,0
207.36044,207.45973,73,59,0
207.45973,207.65833,72,57,0
207.65833,207.82265,73,58,0
207.82265,207.96153,83,67,0
207.96153,208.10042,82,65,0
208.10042,208.22903,82,63,0
208.22903,208.35767,80,61,0
208.35767,208.48628,78,59,0
208.48628,209.20917,77,57,0
209.20917,209.57062,75,55,0
209.57062,209.68954,68,46,0
209.68954,209.80849,70,46,0
209.80849,209.92741,68,46,0
209.92741,210.10812,67,46,0
210.10812,210.29608,68,47,0
210.29608,210.50597,71,49,0
210.50597,210.719,70,45,0
210.719,210.93202,66,39,0
211.57109,211.64185,70,39,0
211.7126,211.78336,70,39,0
211.85411,211.9956,70,39,0
212.42014,212.49089,70,39,0
212.56165,212.6324,70,39,0
212.70316,212.84467,70,39,0
213.2692,213.33995,70,39,0
213.4107,213.48146,70,39,0
213.55222,213.69373,70,39,0
213.83524,213.90599,82,94,0
213.83524,213.90599,70,94,0
213.97675,214.0475,82,91,0
213.97675,214.0475,70,91,0
214.11826,214.25977,82,95,0
214.11826,214.25977,70,95,0
214.40128,214.47203,82,95,0
214.40128,214.47203,70,95,0
214.54279,214.61354,82,91,0
214.54279,214.61354,70,91,0
214.6843,214.8258,82,95,0
214.6843,214.8258,70,95,0
214.96732,215.03807,82,95,0
214.96732,215.03807,70,95,0
215.10883,215.17958,82,91,0
215.10883,215.17958,70,91,0
215.25034,215.39185,82,95,0
215.25034,215.39185,70,95,0
215.81638,215.88866,70,39,0
215.81638,215.88866,65,39,0
215.81638,215.88866,58,39,0
215.96095,216.03323,70,39,0
215.96095,216.03323,58,39,0
216.10553,216.2501,70,39,0
216.10553,216.2501,64,39,0
216.10553,216.2501,58,39,0
216.68384,216.76218,70,39,0
216.68384,216.76218,63,39,0
216.68384,216.76218,58,39,0
216.8405,216.92268,70,39,0
216.8405,216.92268,58,39,0
217.00488,217.15717,70,39,0
217.00488,217.15717,62,39,0
217.00488,217.15717,58,39,0
217.30945,217.37827,70,43,0
217.30945,217.37827,58,43,0
217.44707,217.51587,70,47,0
217.44707,217.51587,58,47,0
217.58469,217.85991,70,52,0
217.58469,217.85991,58,52,0
217.85991,217.93016,70,55,0
217.85991,217.93016,58,55,0
218.00043,218.07068,70,57,0
218.00043,218.07068,58,57,0
218.14095,218.42197,70,66,0
218.14095,218.42197,58,66,0
218.42197,218.50461,70,72,0
218.42197,218.50461,58,72,0
218.58727,218.6699,70,67,0
218.58727,218.6699,58,67,0
218.74892,218.88782,70,97,0
218.74892,218.88782,58,97,0
219.0267,219.16861,74,56,0
219.15799,219.29633,75,51,0
219.28539,219.48456,77,64,0
219.28539,219.48456,74,64,0
219.55244,219.6852,70,96,0
219.81793,219.95927,75,59,0
219.94865,220.08694,77,55,0
220.07605,220.27213,79,67,0
220.07605,220.27213,75,67,0
220.33748,220.4665,70,97,0
220.59555,220.73248,77,67,0
220.72212,220.85721,79,65,0
220.84636,221.04169,80,75,0
220.84636,221.04169,77,75,0
221.1068,221.61354,73,82,0
221.1068,221.61354,79,82,0
221.1068,221.61354,82,82,0
221.61354,221.74841,73,69,0
221.61354,221.74841,79,69,0
221.61354,221.74841,82,69,0
221.74841,221.88329,73,69,0
221.74841,221.88329,79,69,0
221.74841,221.88329,82,69,0
221.88329,222.1576,82,77,0
222.14702,222.28424,84,60,0
221.88329,222.39836,73,77,0
221.88329,222.39836,79,77,0
222.27388,222.4094,82,54,0
222.39836,222.5308,80,58,0
222.39836,222.5308,72,58,0
222.66325,222.93236,80,76,0
222.92188,223.05795,82,57,0
222.66325,223.17113,71,76,0
223.04767,223.18208,80,53,0
223.17113,223.30276,79,56,0
223.17113,223.30276,70,56,0
223.4344,223.70094,79,71,0
223.69046,223.82664,80,55,0
223.4344,223.9398,70,71,0
223.81635,223.95113,79,51,0
223.9398,224.07559,77,54,0
223.9398,224.07559,68,54,0
224.21136,224.48256,77,64,0
224.47182,224.6114,79,48,0
224.21136,224.7295,68,64,0
224.60066,224.74084,77,45,0
224.7295,224.86557,67,48,0
224.7295,224.86557,75,48,0
225.00162,225.27377,70,96,0
225.00162,225.27377,82,96,0
225.27377,225.41405,74,57,0
225.40344,225.54137,75,52,0
225.53056,225.72804,77,63,0
225.53056,225.72804,74,63,0
225.79593,226.05919,70,95,0
225.79593,226.05919,82,95,0
226.05919,226.1965,75,60,0
226.18616,226.32094,77,57,0
226.31038,226.50064,79,68,0
226.31038,226.50064,75,68,0
226.56407,226.81958,70,93,0
226.56407,226.81958,82,93,0
226.81958,226.95468,77,72,0
226.94443,227.07838,79,68,0
227.06738,227.26527,80,80,0
227.06738,227.26527,77,80,0
227.33125,227.7113,73,101,0
227.33125,227.7113,79,101,0
227.33125,227.7113,82,101,0
227.7113,227.84613,82,76,0
227.7113,227.84613,79,76,0
227.99002,228.1346,79,74,0
227.99002,228.1346,82,74,0
227.84613,228.1346,73,68,0
228.26454,228.40504,82,72,0
228.39449,228.53148,84,64,0
228.1346,228.64488,73,64,0
228.52118,228.65579,82,57,0
228.64488,228.77568,72,54,0
228.64488,228.77568,80,54,0
229.0356,229.17532,80,69,0
229.16472,229.30237,82,65,0
228.90648,229.41695,71,65,0
229.29195,229.428,80,55,0
229.41695,229.54945,70,51,0
229.41695,229.54945,79,51,0
229.81929,229.9683,79,46,0
229.9566,230.10881,80,58,0
229.68196,230.2376,70,63,0
230.09709,230.2496,79,45,0
230.2376,230.52596,77,50,0
230.2376,230.52596,68,50,0
230.52596,230.6655,67,59,0
230.52596,230.6655,75,59,0
230.80502,230.87143,75,53,0
230.93784,231.00423,75,64,0
231.07063,231.13704,75,67,0
231.20343,231.26984,75,69,0
231.33624,231.40205,75,78,0
231.46788,231.53369,75,64,0
231.59952,231.66534,75,78,0
231.73116,231.79698,75,74,0
231.86281,231.92862,75,69,0
231.99445,232.06357,75,69,0
232.13269,232.26659,77,65,0
232.25629,232.39017,75,58,0
232.37987,232.51376,72,56,0
232.50346,232.63734,68,48,0
232.62706,232.75064,63,52,0
232.75064,232.87424,64,44,0
232.87424,232.9359,65,58,0
232.99765,233.0595,65,51,0
233.1214,233.18346,65,55,0
233.24559,233.3078,65,46,0
233.3701,233.43253,65,54,0
233.49504,233.55765,65,64,0
233.62033,233.75635,63,61,0
233.74591,233.88158,68,53,0
233.87115,234.00645,72,46,0
233.99608,234.13097,75,64,0
234.1206,234.25517,80,59,0
234.24483,234.36871,76,52,0
234.36871,234.43205,77,52,0
234.49539,234.55873,77,48,0
234.62207,234.68542,77,64,0
234.74876,234.8121,77,60,0
234.87544,234.93878,77,53,0
235.00214,235.06548,77,73,0
235.12881,235.22797,77,77,0
235.21695,235.31612,79,55,0
235.3051,235.40417,77,55,0
235.39323,235.5358,75,65,0
235.52481,235.66812,80,57,0
235.65704,235.79007,84,51,0
235.92377,236.19266,89,66,0
236.18202,236.32042,87,50,0
236.30977,236.44849,85,45,0
236.43752,236.56917,79,52,0
236.7008,236.96971,82,58,0
236.95905,237.09773,80,43,0
237.08707,237.22601,75,44,0
237.21509,237.34618,72,38,0
237.47725,237.54308,75,48,0
237.6089,237.67471,75,44,0
237.74054,237.80637,75,65,0
237.87218,237.938,75,69,0
238.00383,238.06964,75,63,0
238.13547,238.20459,75,71,0
238.27371,238.40761,77,61,0
238.39731,238.53119,75,56,0
238.52089,238.65479,72,50,0
238.64449,238.77837,68,50,0
238.76807,238.89166,63,48,0
238.89166,239.01524,64,53,0
239.01524,239.07692,65,57,0
239.13858,239.20026,65,51,0
239.26192,239.3236,65,55,0
239.38525,239.44691,65,55,0
239.50859,239.57025,65,61,0
239.63193,239.69359,65,65,0
239.75526,239.88887,63,58,0
239.8786,240.0122,68,52,0
240.00192,240.13554,72,49,0
240.12526,240.25888,75,45,0
240.2486,240.38222,80,52,0
240.37193,240.49529,76,48,0
240.49529,240.55862,77,58,0
240.62198,240.68532,77,49,0
240.74866,240.812,77,61,0
240.87534,240.93869,77,57,0
241.00203,241.06537,77,65,0
241.12871,241.19205,77,65,0
241.25539,241.35455,77,75,0
241.34354,241.44269,79,55,0
241.43167,241.53076,77,55,0
241.51982,241.66238,75,66,0
241.65138,241.7947,80,64,0
241.78363,241.91666,84,60,0
242.05035,242.31924,89,67,0
242.3086,242.44699,87,52,0
242.43634,242.57507,85,50,0
242.5641,242.69574,79,52,0
242.82738,243.35396,80,65,0
243.35396,243.39963,72,55,0
243.39963,243.4453,74,49,0
243.4453,243.49097,72,65,0
243.49097,243.53662,74,53,0
243.53662,243.58229,72,67,0
243.58229,243.62796,71,56,0
243.62796,243.76971,70,87,0
243.90012,244.04274,74,62,0
244.03177,244.17438,75,62,0
244.1634,244.36295,74,67,0
244.1634,244.36295,77,67,0
244.43083,244.56276,70,85,0
244.69469,244.83516,75,73,0
244.82436,244.96483,77,69,0
244.95403,245.14853,79,76,0
244.95403,245.14853,75,76,0
245.21336,245.34111,70,87,0
245.46887,245.60469,77,73,0
245.59424,245.73047,79,68,0
245.71962,245.91496,80,83,0
245.71962,245.91496,77,83,0
245.98007,246.4868,82,77,0
245.98007,246.4868,79,77,0
245.98007,246.4868,73,77,0
246.4868,246.62167,82,75,0
246.4868,246.62167,73,75,0
246.4868,246.62167,79,75,0
246.62167,246.75656,82,69,0
246.62167,246.75656,73,69,0
246.62167,246.75656,79,69,0
246.75656,247.0276,82,70,0
247.017,247.15457,84,59,0
246.75656,247.26845,73,70,0
246.75656,247.26845,79,70,0
247.14423,247.27945,82,56,0
247.26845,247.40038,80,53,0
247.26845,247.40038,72,53,0
247.53232,247.79945,80,69,0
247.78891,247.92566,82,47,0
247.53232,248.0393,71,69,0
247.91533,248.05028,80,45,0
248.0393,248.17094,70,52,0
248.0393,248.17094,79,52,0
248.30258,248.56912,79,66,0
248.55864,248.69484,80,53,0
248.30258,248.80824,70,66,0
248.68452,248.81956,79,47,0
248.80824,248.94402,68,67,0
248.80824,248.94402,77,67,0
249.0798,249.35098,77,64,0
249.34026,249.47984,79,52,0
249.0798,249.59795,68,64,0
249.4691,249.60913,77,48,0
249.59795,249.73222,67,53,0
249.59795,249.73222,75,53,0
249.86649,250.00256,82,97,0
249.86649,250.00256,70,97,0
250.13864,250.27884,74,57,0
250.26831,250.40543,75,53,0
250.39462,250.5921,77,63,0
250.39462,250.5921,74,63,0
250.66,250.79193,70,97,0
250.66,250.79193,82,97,0
250.92325,251.06052,75,60,0
251.05022,251.1845,77,57,0
251.17392,251.3642,75,68,0
251.17392,251.3642,79,68,0
251.42763,251.56276,82,96,0
251.42763,251.56276,70,96,0
251.69789,251.85266,77,72,0
251.84041,252.00099,79,70,0
251.98747,252.23071,77,80,0
251.98747,252.23071,80,80,0
252.3118,252.56517,82,99,0
252.3118,252.56517,79,99,0
252.3118,252.56517,73,99,0
254.39546,254.55547,82,49,0
254.39546,254.55547,79,49,0
254.39546,254.55547,73,49,0
254.55547,254.71547,79,49,0
254.55547,254.71547,73,49,0
254.55547,254.71547,82,49,0
254.71547,255.03381,82,55,0
255.02159,255.18051,84,53,0
254.71547,255.31499,79,55,0
254.71547,255.31499,73,55,0
255.16829,255.32765,82,52,0
255.31499,255.46689,72,48,0
255.31499,255.46689,80,48,0
255.61879,255.92781,80,54,0
255.91582,256.0717,82,51,0
255.61879,256.20358,71,54,0
256.0597,256.21622,80,48,0
256.20358,256.3551,70,45,0
256.20358,256.3551,79,45,0
256.50662,256.8393,79,44,0
256.82492,257.0117,80,41,0
256.50662,257.16974,70,44,0
256.99734,257.18106,79,38,0
257.16974,257.3055,77,35,0
257.16974,257.3055,68,35,0
261.51462,261.58252,63,40,0
261.6504,261.7183,63,38,0
261.7862,261.85406,63,40,0
261.92197,261.98984,63,37,0
262.05774,262.32928,63,49,0
262.32928,262.4556,55,39,0
262.4556,262.58194,58,39,0
262.58194,262.70825,63,46,0
262.70825,262.83456,67,45,0
262.83456,263.0556,72,55,0
263.0556,263.0872,72,44,0
263.0872,263.20914,71,51,0
263.30072,263.33127,71,39,0
263.33127,263.4536,70,48,0
263.54547,263.57614,70,39,0
263.57614,263.69888,69,46,0
263.7911,263.82184,69,35,0
263.82184,263.94504,68,44,0
264.03757,264.06845,68,33,0
264.06845,264.19205,67,41,0
264.28485,264.31586,67,32,0
264.31586,264.43985,65,39,0
264.5641,264.6263,63,44,0
264.68857,264.7508,63,41,0
264.81305,264.87527,63,44,0
264.93753,264.99976,63,41,0
265.062,265.31097,63,53,0
265.31097,265.43442,60,42,0
265.43442,265.5579,63,42,0
265.5579,265.68134,68,50,0
265.68134,265.8048,72,49,0
265.8048,266.02084,77,59,0
266.02084,266.0517,79,48,0
266.0517,266.17194,77,56,0
266.26224,266.29236,77,42,0
266.29236,266.4129,76,52,0
266.50345,266.53363,76,42,0
266.53363,266.6546,75,50,0
266.74542,266.77573,75,38,0
266.77573,266.89706,74,48,0
266.98816,267.01852,74,36,0
267.01852,267.14023,73,45,0
267.23163,267.26212,73,35,0
267.26212,267.3842,72,42,0
267.5064,267.56815,71,48,0
267.62988,267.6916,71,45,0
267.75333,267.81506,71,48,0
267.8768,267.9385,71,37,0
268.00024,268.06198,71,48,0
268.1237,268.18542,71,42,0
268.24716,268.36716,68,46,0
268.36716,268.48715,71,45,0
268.48715,268.60715,74,55,0
268.60715,268.72717,77,53,0
268.72717,268.88516,83,70,0
268.93716,268.96716,83,52,0
268.96716,269.08505,82,62,0
269.17374,269.20337,82,53,0
269.20337,269.32205,81,65,0
269.41132,269.4411,81,54,0
269.4411,269.56052,80,68,0
269.6503,269.6803,80,59,0
269.6803,269.80038,79,70,0
269.89075,269.92087,79,60,0
269.92087,270.04175,78,73,0
270.1326,270.16296,78,65,0
270.16296,270.2237,77,76,0
270.38724,270.42148,77,70,0
270.42148,270.54147,91,88,0
270.63147,270.66147,91,71,0
270.66147,270.78146,89,80,0
270.8715,270.9015,89,70,0
270.9015,271.02148,88,80,0
271.11148,271.14148,88,69,0
271.14148,271.2585,87,80,0
271.3459,271.37488,87,72,0
271.37488,271.49048,86,80,0
271.57666,271.6053,86,70,0
271.6053,271.71942,85,80,0
271.80453,271.83282,85,70,0
271.83282,271.94568,84,80,0
272.0307,272.0591,84,70,0
272.0591,272.17303,83,83,0
272.25894,272.2877,83,71,0
272.2877,272.40286,82,86,0
272.48965,272.51862,82,73,0
272.51862,272.63504,81,89,0
272.72278,272.75208,81,77,0
272.75208,272.86972,80,92,0
272.9584,272.98813,80,79,0
272.98813,273.11633,77,95,0
273.24454,273.36954,75,100,0
273.24454,273.36954,87,100,0
273.49454,273.61502,79,75,0
273.61502,273.7355,80,84,0
273.7355,273.92538,82,87,0
273.7355,273.92538,79,87,0
273.98868,274.11368,75,100,0
273.98868,274.11368,87,100,0
274.23868,274.35965,78,78,0
274.35965,274.48062,80,83,0
274.48062,274.66968,81,86,0
274.48062,274.66968,78,86,0
274.73273,274.85876,75,100,0
274.73273,274.85876,87,100,0
274.9848,275.11166,77,86,0
275.11166,275.24014,79,82,0
275.24014,275.436,80,89,0
275.24014,275.436,77,89,0
275.50217,276.05774,79,100,0
275.50217,276.05774,82,100,0
275.50217,276.05774,70,100,0
276.05774,276.2108,70,95,0
276.05774,276.2108,79,95,0
276.05774,276.2108,82,95,0
276.2108,276.36386,70,92,0
276.2108,276.36386,79,92,0
276.2108,276.36386,82,92,0
276.36386,276.627,79,100,0
276.627,276.75577,80,96,0
276.75577,276.88498,79,91,0
276.88498,277.01657,77,96,0
276.36386,277.14816,82,100,0
276.36386,277.14816,70,100,0
277.14816,277.4079,77,94,0
277.4079,277.53555,79,84,0
277.53555,277.6632,77,78,0
277.6632,277.7948,75,75,0
277.14816,277.92636,82,94,0
277.14816,277.92636,70,94,0
277.92636,278.20673,70,77,0
278.20673,278.33832,72,69,0
278.33832,278.4699,70,58,0
277.92636,278.4699,79,77,0
278.4699,278.60504,68,62,0
278.4699,278.60504,77,62,0
278.74017,279.02185,68,71,0
279.02185,279.1564,70,62,0
279.1564,279.29092,68,52,0
278.74017,279.29092,77,71,0
279.29092,279.43045,67,56,0
279.29092,279.43045,75,56,0
279.84027,279.97012,68,55,0
279.97012,280.1,70,57,0
280.1,280.23453,72,59,0
280.1,280.23453,68,59,0
279.56998,280.36905,75,68,0
279.56998,280.36905,63,68,0
280.63812,280.76688,68,51,0
280.76688,280.89563,70,54,0
280.89563,281.02838,71,56,0
280.89563,281.02838,68,56,0
280.36905,281.1611,75,65,0
280.36905,281.1611,63,65,0
281.4389,281.57162,67,46,0
281.57162,281.70438,68,49,0
281.70438,281.84326,70,51,0
281.70438,281.84326,67,51,0
281.1611,281.98215,75,62,0
281.1611,281.98215,63,62,0
281.98215,282.53772,70,59,0
281.98215,282.53772,67,59,0
281.98215,282.53772,58,59,0
282.53772,282.68335,70,49,0
282.53772,282.68335,67,49,0
282.53772,282.68335,58,49,0
282.68335,282.82898,70,45,0
282.68335,282.82898,67,45,0
282.68335,282.82898,58,45,0
282.82898,283.11066,67,55,0
283.11066,283.24704,68,48,0
283.24704,283.3834,67,43,0
283.3834,283.52423,65,48,0
282.82898,283.66507,70,55,0
282.82898,283.66507,58,55,0
283.66507,283.95355,65,55,0
283.95355,284.10062,67,46,0
284.10062,284.24765,65,44,0
284.24765,284.3947,63,47,0
283.66507,284.54178,70,52,0
283.66507,284.54178,58,52,0
284.54178,284.60757,71,50,0
284.67337,284.73895,71,46,0
284.54178,284.80444,62,46,0
284.80444,284.86987,71,50,0
284.9351,285.0003,71,45,0
285.06525,285.13016,71,39,0
285.19492,285.25958,71,46,0
285.32413,285.4476,71,48,0
285.4476,285.57104,70,43,0
285.57104,285.69452,67,47,0
285.69452,285.81796,63,41,0
285.81796,285.9414,58,46,0
286.06488,286.3235,67,55,0
286.3235,286.4485,68,42,0
286.4485,286.5735,67,45,0
286.5735,286.70282,65,48,0
286.06488,286.83212,70,55,0
286.06488,286.83212,58,55,0
286.83212,287.08743,65,55,0
287.08743,287.2114,67,46,0
287.2114,287.33536,65,44,0
287.33536,287.4625,63,40,0
286.83212,287.5896,70,52,0
286.83212,287.5896,58,52,0
287.5896,287.65033,72,50,0
287.5896,287.71106,62,50,0
287.71106,287.7718,72,48,0
287.83252,287.89325,72,50,0
287.95398,288.0147,72,47,0
288.07544,288.13617,72,44,0
288.1969,288.25763,72,47,0
288.31836,288.4374,72,48,0
288.4374,288.55646,70,45,0
288.55646,288.6755,67,47,0
288.6755,288.79456,63,42,0
288.79456,288.91357,58,46,0
289.03262,289.0936,71,52,0
289.03262,289.1546,62,52,0
289.1546,289.21558,71,50,0
289.27655,289.33752,71,53,0
289.3985,289.45947,71,51,0
289.52045,289.58142,71,48,0
289.6424,289.70337,71,53,0
289.76434,289.88388,71,56,0
289.88388,290.0034,70,53,0
290.0034,290.12292,68,57,0
290.12292,290.24243,65,56,0
290.24243,290.36197,62,55,0
290.48148,290.59756,79,73,0
290.59756,290.71332,77,59,0
290.71332,290.8295,74,64,0
290.8295,290.94623,71,59,0
290.94623,291.06342,68,58,0
291.18085,291.2972,83,80,0
291.2972,291.414,80,67,0
291.414,291.53128,77,71,0
291.53128,291.649,74,67,0
291.649,291.76718,71,68,0
291.88583,292.07217,95,90,0
292.07217,292.22842,91,74,0
292.22842,292.36993,95,77,0
292.36993,292.48666,92,76,0
292.48666,292.6034,89,74,0
292.6034,292.72012,86,72,0
292.72012,292.8355,83,80,0
292.8355,292.9509,79,73,0
292.9509,293.06586,83,77,0
293.06586,293.1808,80,76,0
293.1808,293.2953,77,76,0
293.2953,293.4098,74,75,0
293.4098,293.52258,71,80,0
293.52258,293.63535,67,73,0
293.63535,293.74814,70,75,0
293.74814,293.86093,68,74,0
293.86093,293.9737,65,73,0
293.9737,294.0865,62,72,0
294.0865,294.19928,59,80,0
294.19928,294.31204,55,73,0
294.31204,294.4249,59,76,0
294.4249,294.53928,56,75,0
294.53928,294.65524,53,75,0
294.65524,294.7729,50,74,0
294.7729,294.89148,51,89,0
295.01004,295.11484,55,50,0
295.11484,295.21912,56,50,0
295.21912,295.32272,58,50,0
295.32272,295.42584,60,50,0
295.42584,295.52835,62,50,0
295.52835,295.63025,63,50,0
295.63025,295.73163,65,50,0
295.73163,295.83246,67,50,0
295.83246,295.93268,68,50,0
295.93268,296.0324,69,50,0
296.0324,296.13614,72,53,0
296.13614,296.23947,70,50,0
296.23947,296.3424,67,45,0
296.3424,296.4449,68,45,0
296.4449,296.547,70,46,0
296.547,296.64862,72,47,0
296.64862,296.74988,74,50,0
296.74988,296.8507,75,50,0
296.8507,296.95117,77,50,0
296.95117,297.05112,79,49,0
297.05112,297.15067,80,51,0
297.15067,297.24985,81,53,0
297.24985,297.34863,84,59,0
297.34863,297.44705,82,55,0
297.44705,297.54504,79,51,0
297.54504,297.64264,80,50,0
297.64264,297.7399,82,50,0
297.7399,297.83676,84,51,0
297.83676,297.93323,86,52,0
297.93323,298.0297,87,53,0
298.0297,298.12616,89,54,0
298.12616,298.22263,91,55,0
298.22263,298.3191,92,55,0
298.3191,298.41556,93,56,0
298.41556,298.51202,96,65,0
298.51202,298.60846,94,58,0
298.60846,298.70493,91,55,0
298.70493,298.8014,92,51,0
298.8014,298.89786,93,53,0
298.89786,298.99432,94,55,0
298.99432,299.0908,96,64,0
299.0908,299.18726,94,59,0
299.18726,299.28372,91,51,0
299.28372,299.3802,92,52,0
299.3802,299.47665,93,54,0
299.47665,299.5731,94,55,0
299.5731,299.66684,99,57,0
299.7606,299.85434,91,50,0
299.85434,299.9481,92,51,0
299.9481,300.04184,93,53,0
300.04184,300.13556,94,55,0
300.13556,300.22675,99,57,0
300.31787,300.40878,91,46,0
300.40878,300.4996,92,48,0
300.4996,300.59024,93,50,0
300.59024,300.68073,94,52,0
300.68073,300.7711,99,54,0
300.86127,300.95135,91,49,0
300.95135,301.0412,92,50,0
301.0412,301.13095,93,52,0
301.13095,301.22052,94,53,0
301.22052,301.30997,99,55,0
301.39926,301.48843,91,50,0
301.48843,301.57745,92,52,0
301.57745,301.6663,93,55,0
301.6663,301.75504,94,57,0
301.75504,301.84354,99,59,0
301.93204,302.02054,91,50,0
302.02054,302.10904,92,51,0
302.10904,302.1975,93,53,0
302.1975,302.2859,94,55,0
302.2859,302.37692,99,57,0
302.46863,302.56097,91,44,0
302.56097,302.65405,92,46,0
302.65405,302.7478,93,48,0
302.7478,302.84225,94,50,0
302.84225,302.93744,99,53,0
303.03333,303.13,91,33,0
303.13,303.22742,92,35,0
303.22742,303.32556,93,37,0
303.32556,303.4245,94,39,0
303.4245,303.53082,99,42,0
303.64,303.7523,91,30,0
303.7523,303.86777,92,31,0
303.86777,303.98676,93,32,0
303.98676,304.12692,94,33,0
304.12692,304.25192,91,34,0
304.12692,304.25192,99,34,0
305.62692,305.76712,79,78,0
305.62692,305.76712,91,92,0
305.62692,305.76712,87,92,0
305.62692,305.76712,82,78,0
306.46805,306.62595,67,78,0
306.46805,306.62595,79,92,0
306.46805,306.62595,75,92,0
306.46805,306.62595,70,78,0
306.78384,306.94174,67,78,0
306.78384,306.94174,79,92,0
306.78384,306.94174,75,92,0
306.78384,306.94174,70,78,0
307.09964,307.3124,67,78,0
307.09964,307.3124,79,92,0
307.09964,307.3124,75,92,0
307.09964,307.3124,70,78,0
307.52515,309.1323,51,113,0
3.347758,3.483837,46,40,0
3.619916,3.8096871,58,47,0
3.619916,3.8096871,65,47,0
3.619916,3.8096871,68,47,0
3.871799,4.072431,58,51,0
3.871799,4.072431,65,51,0
3.871799,4.072431,68,51,0
4.14032,4.2730637,51,40,0
4.405807,4.594295,58,46,0
4.405807,4.594295,63,46,0
4.405807,4.594295,67,46,0
4.655395,4.8514733,58,50,0
4.655395,4.8514733,63,50,0
4.655395,4.8514733,67,50,0
4.916833,5.0458655,50,44,0
5.174898,5.364772,58,54,0
5.174898,5.364772,65,54,0
5.174898,5.364772,68,54,0
5.428063,5.623401,58,59,0
5.428063,5.623401,65,59,0
5.428063,5.623401,68,59,0
5.688514,5.8156323,51,69,0
5.942751,6.0698695,58,62,0
5.942751,6.0698695,61,62,0
5.942751,6.0698695,67,62,0
6.196988,6.466736,52,70,0
6.466736,6.598315,53,36,0
6.729894,6.856744,56,33,0
6.729894,6.856744,65,33,0
6.9782014,7.11036,44,37,0
7.2425184,7.372108,46,58,0
7.5016975,7.6888475,55,31,0
7.5016975,7.6888475,63,31,0
7.7499475,7.88159,55,44,0
7.7499475,7.88159,63,44,0
8.013232,8.141257,46,37,0
8.269281,8.45678,53,38,0
8.269281,8.45678,62,38,0
8.518382,8.65416,58,45,0
8.518382,8.65416,62,45,0
9.050388,9.243662,58,35,0
9.050388,9.243662,63,35,0
9.308087,9.442357,58,57,0
9.308087,9.442357,63,57,0
8.789937,9.576627,51,28,0
9.576627,9.712706,46,61,0
9.848785,10.039883,58,32,0
9.848785,10.039883,65,32,0
9.848785,10.039883,68,32,0
10.102776,10.300254,58,32,0
10.102776,10.300254,65,32,0
10.102776,10.300254,68,32,0
10.368143,10.500075,51,43,0
10.631401,10.819043,58,37,0
10.631401,10.819043,63,37,0
10.631401,10.819043,67,37,0
10.880898,11.070773,58,48,0
10.880898,11.070773,63,48,0
10.880898,11.070773,67,48,0
11.134064,11.261816,50,60,0
11.389568,11.57685,58,62,0
11.389568,11.57685,65,62,0
11.389568,11.57685,68,62,0
11.6392765,11.837175,58,66,0
11.6392765,11.837175,65,66,0
11.6392765,11.837175,68,66,0
11.903141,12.029825,51,61,0
12.156508,12.283193,58,42,0
12.156508,12.283193,61,42,0
12.156508,12.283193,67,42,0
12.409877,12.679625,52,32,0
12.679625,12.809574,53,43,0
12.939523,13.066207,56,49,0
12.939523,13.066207,65,49,0
13.190688,13.321486,44,37,0
13.452286,13.581407,46,43,0
13.710527,13.963271,55,31,0
13.710527,13.963271,63,31,0
13.963271,14.09578,55,41,0
13.963271,14.09578,63,41,0
14.22829,14.365608,46,33,0
14.502927,14.783917,53,40,0
14.502927,14.783917,62,40,0
14.783917,15.072282,62,27,0
15.072282,15.351352,63,44,0
15.072282,15.351352,51,44,0
14.783917,15.351352,58,27,0
15.916233,16.052313,46,26,0
16.18839,16.38267,58,38,0
16.18839,16.38267,65,38,0
16.18839,16.38267,68,38,0
16.446228,16.646862,58,34,0
16.446228,16.646862,65,34,0
16.446228,16.646862,68,34,0
16.71475,16.847494,51,34,0
16.980236,17.17215,58,46,0
16.980236,17.17215,63,46,0
16.980236,17.17215,67,46,0
17.235308,17.431387,58,57,0
17.235308,17.431387,63,57,0
17.235308,17.431387,67,57,0
17.496746,17.625778,50,71,0
17.754812,17.942995,58,52,0
17.754812,17.942995,65,52,0
17.754812,17.942995,68,52,0
18.004597,18.199936,58,56,0
18.004597,18.199936,65,56,0
18.004597,18.199936,68,56,0
18.265049,18.391733,51,62,0
18.518417,18.6451,58,56,0
18.518417,18.6451,61,56,0
18.518417,18.6451,67,56,0
18.771784,19.041533,52,37,0
19.041533,19.1734,53,40,0
19.30527,19.43212,56,34,0
19.30527,19.43212,65,34,0
19.556341,19.688793,44,38,0
19.821243,19.950554,46,31,0
20.079865,20.329361,55,33,0
20.079865,20.329361,63,33,0
20.329361,20.461004,55,43,0
20.329361,20.461004,63,43,0
20.592646,20.72067,46,50,0
20.848696,21.098305,53,37,0
20.848696,21.098305,62,37,0
21.098305,21.234081,58,27,0
21.098305,21.234081,62,27,0
21.63031,21.888008,58,36,0
21.63031,21.888008,63,36,0
21.888008,22.02228,58,42,0
21.888008,22.02228,63,42,0
21.36986,22.15655,51,33,0
22.15655,22.292627,46,58,0
22.428707,22.618866,58,47,0
22.428707,22.618866,65,47,0
22.428707,22.618866,68,47,0
22.681366,22.878565,58,44,0
22.681366,22.878565,65,44,0
22.681366,22.878565,68,44,0
22.946455,23.078386,51,49,0
23.209713,23.396198,58,43,0
23.209713,23.396198,63,43,0
23.209713,23.396198,67,43,0
23.457422,23.647697,58,64,0
23.457422,23.647697,63,64,0
23.457422,23.647697,67,64,0
23.711123,23.838875,50,67,0
23.966627,24.152706,58,49,0
23.966627,24.152706,65,49,0
23.966627,24.152706,68,49,0
24.21393,24.411829,58,61,0
24.21393,24.411829,65,61,0
24.21393,24.411829,68,61,0
24.477795,24.604479,51,65,0
24.731163,24.857847,58,48,0
24.731163,24.857847,61,48,0
24.731163,24.857847,67,48,0
24.98453,25.254278,52,49,0
25.254278,25.384228,53,44,0
25.514175,25.64086,56,33,0
25.514175,25.64086,65,33,0
25.767544,25.898342,44,28,0
26.02914,26.158262,46,26,0
26.287384,26.478214,55,34,0
26.287384,26.478214,63,34,0
26.541826,26.674334,55,38,0
26.541826,26.674334,63,38,0
26.806843,26.944162,46,30,0
27.08148,27.36247,53,36,0
27.08148,27.36247,62,36,0
27.36247,27.650835,58,24,0
27.36247,27.650835,62,24,0
27.929905,28.195509,55,45,0
27.929905,28.195509,63,45,0
27.650835,28.195509,51,30,0
28.195509,28.461113,55,52,0
28.195509,28.461113,61,52,0
28.195509,28.461113,51,52,0
28.461113,28.724398,44,25,0
28.724398,28.921862,51,33,0
28.724398,28.921862,56,33,0
28.724398,28.921862,60,33,0
28.987684,29.18845,51,41,0
28.987684,29.18845,56,41,0
28.987684,29.18845,60,41,0
29.257574,29.504753,44,33,0
29.504753,29.690136,51,33,0
29.504753,29.690136,56,33,0
29.504753,29.690136,60,33,0
29.75193,29.937315,60,37,0
29.75193,29.937315,56,37,0
29.75193,29.937315,51,37,0
29.99911,30.246284,44,37,0
30.246284,30.432676,50,26,0
30.246284,30.432676,56,26,0
30.246284,30.432676,59,26,0
30.494976,30.682522,59,32,0
30.494976,30.682522,56,32,0
30.494976,30.682522,50,32,0
30.745209,30.99603,44,38,0
30.99603,31.18325,51,29,0
30.99603,31.18325,56,29,0
30.99603,31.18325,60,29,0
31.245487,31.431688,51,48,0
31.245487,31.431688,56,48,0
31.245487,31.431688,60,48,0
31.493587,31.746956,50,55,0
31.746956,31.936981,56,24,0
31.746956,31.936981,59,24,0
31.746956,31.936981,65,24,0
32.000324,32.19035,56,36,0
32.000324,32.19035,59,36,0
32.000324,32.19035,65,36,0
32.253693,32.518112,51,44,0
32.518112,32.71572,68,32,0
32.518112,32.71572,63,32,0
32.518112,32.71572,60,32,0
32.781925,32.914898,68,42,0
32.781925,32.914898,63,42,0
32.781925,32.914898,60,42,0
33.056408,33.314648,51,20,0
33.314648,33.506275,67,20,0
33.314648,33.506275,63,20,0
33.314648,33.506275,61,20,0
33.570152,33.701794,67,30,0
33.570152,33.701794,63,30,0
33.570152,33.701794,61,30,0
33.83344,34.09168,56,34,0
34.09168,34.34773,60,23,0
34.09168,34.34773,63,23,0
34.09168,34.34773,68,23,0
34.34773,34.47881,68,38,0
34.34773,34.47881,63,38,0
34.34773,34.47881,60,38,0
34.609886,34.873173,44,34,0
34.873173,35.070637,51,31,0
34.873173,35.070637,56,31,0
34.873173,35.070637,60,31,0
35.136456,35.337223,51,49,0
35.136456,35.337223,56,49,0
35.136456,35.337223,60,49,0
35.40635,35.653526,44,47,0
35.653526,35.83891,51,35,0
35.653526,35.83891,56,35,0
35.653526,35.83891,60,35,0
35.900703,36.086086,60,52,0
35.900703,36.086086,56,52,0
35.900703,36.086086,51,52,0
36.14788,36.394554,44,40,0
36.394554,36.579556,50,35,0
36.394554,36.579556,56,35,0
36.394554,36.579556,59,35,0
36.641224,36.826225,59,31,0
36.641224,36.826225,56,31,0
36.641224,36.826225,50,31,0
36.887894,37.134563,44,38,0
37.134563,37.319565,51,30,0
37.134563,37.319565,56,30,0
37.134563,37.319565,60,30,0
37.381233,37.627922,51,36,0
37.381233,37.627922,56,36,0
37.381233,37.627922,60,36,0
37.627922,37.88129,50,38,0
37.88129,38.071316,56,33,0
37.88129,38.071316,59,33,0
37.88129,38.071316,65,33,0
38.13466,38.324684,56,36,0
38.13466,38.324684,59,36,0
38.13466,38.324684,65,36,0
38.388027,38.65245,51,44,0
38.65245,38.85006,68,29,0
38.65245,38.85006,63,29,0
38.65245,38.85006,60,29,0
38.916264,39.049282,68,44,0
38.916264,39.049282,63,44,0
38.916264,39.049282,60,44,0
39.186535,39.444775,51,27,0
39.444775,39.636406,67,32,0
39.444775,39.636406,63,32,0
39.444775,39.636406,61,32,0
39.70028,39.831924,67,37,0
39.70028,39.831924,63,37,0
39.70028,39.831924,61,37,0
40.22685,40.490135,68,35,0
40.22685,40.490135,60,35,0
40.490135,40.764145,68,47,0
40.490135,40.764145,65,47,0
39.963566,40.764145,56,44,0
40.764145,41.036304,46,86,0
40.764145,41.036304,58,86,0
41.036304,41.228508,58,55,0
41.036304,41.228508,65,55,0
41.036304,41.228508,68,55,0
41.2914,41.490868,58,65,0
41.2914,41.490868,65,65,0
41.2914,41.490868,68,65,0
41.558758,41.82262,51,74,0
41.82262,42.01291,58,57,0
41.82262,42.01291,63,57,0
41.82262,42.01291,67,57,0
42.075542,42.26951,58,62,0
42.075542,42.26951,63,62,0
42.075542,42.26951,67,62,0
42.334164,42.589664,50,65,0
42.589664,42.77664,58,56,0
42.589664,42.77664,65,56,0
42.589664,42.77664,68,56,0
42.838245,43.033585,58,69,0
42.838245,43.033585,65,69,0
42.838245,43.033585,68,69,0
43.098698,43.22538,51,61,0
43.352066,43.47875,58,61,0
43.352066,43.47875,61,61,0
43.352066,43.47875,67,61,0
43.60543,43.740307,52,38,0
43.87518,44.005405,53,38,0
44.13563,44.26089,56,41,0
44.13563,44.26089,65,41,0
44.385117,44.517048,44,36,0
44.64898,44.77728,46,31,0
44.90558,45.154545,55,27,0
44.90558,45.154545,63,27,0
45.154545,45.286186,55,41,0
45.154545,45.286186,63,41,0
45.417828,45.545853,46,39,0
45.673878,45.92259,53,26,0
45.673878,45.92259,62,26,0
45.92259,46.05837,58,34,0
45.92259,46.05837,62,34,0
46.454594,46.64787,58,33,0
46.454594,46.64787,63,33,0
46.712296,46.846565,58,53,0
46.712296,46.846565,63,53,0
46.194145,46.980835,51,23,0
46.980835,47.11661,46,37,0
47.252216,47.448406,58,32,0
47.252216,47.448406,65,32,0
47.252216,47.448406,68,32,0
47.51352,47.711193,58,35,0
47.51352,47.711193,65,35,0
47.51352,47.711193,68,35,0
47.779083,47.910725,51,41,0
48.042038,48.23319,58,45,0
48.042038,48.23319,63,45,0
48.042038,48.23319,67,45,0
48.2968,48.48739,58,41,0
48.2968,48.48739,63,41,0
48.2968,48.48739,67,41,0
48.55082,48.678043,50,52,0
48.804443,48.991726,58,67,0
48.804443,48.991726,65,67,0
48.804443,48.991726,68,67,0
49.054153,49.25205,58,56,0
49.054153,49.25205,65,56,0
49.054153,49.25205,68,56,0
49.318016,49.444702,51,66,0
49.571384,49.698067,58,54,0
49.571384,49.698067,61,54,0
49.571384,49.698067,67,54,0
49.844055,50.128414,52,42,0
50.128414,50.25836,53,20,0
50.388313,50.514996,56,32,0
50.388313,50.514996,65,32,0
50.638454,50.769253,44,30,0
50.90005,51.02917,46,37,0
51.15829,51.347626,55,29,0
51.15829,51.347626,63,29,0
51.409737,51.542244,55,34,0
51.409737,51.542244,63,34,0
51.674755,51.812073,46,33,0
51.94939,52.23038,53,33,0
51.94939,52.23038,62,33,0
52.23038,52.518745,62,41,0
52.518745,52.797817,51,36,0
52.518745,52.797817,63,36,0
52.23038,52.797817,58,41,0
53.06342,53.329025,55,32,0
53.06342,53.329025,61,32,0
53.06342,53.329025,51,32,0
53.329025,53.592308,44,27,0
53.592308,53.789772,51,27,0
53.592308,53.789772,56,27,0
53.592308,53.789772,60,27,0
53.855595,54.056362,51,44,0
53.855595,54.056362,56,44,0
53.855595,54.056362,60,44,0
54.125484,54.372665,44,39,0
54.372665,54.55805,51,35,0
54.372665,54.55805,56,35,0
54.372665,54.55805,60,35,0
54.619843,54.805225,60,33,0
54.619843,54.805225,56,33,0
54.619843,54.805225,51,33,0
54.86702,55.114197,44,47,0
55.114197,55.300587,50,29,0
55.114197,55.300587,56,29,0
55.114197,55.300587,59,29,0
55.36289,55.55043,59,29,0
55.36289,55.55043,56,29,0
55.36289,55.55043,50,29,0
55.61312,55.86394,44,43,0
55.86394,56.051163,51,31,0
55.86394,56.051163,56,31,0
55.86394,56.051163,60,31,0
56.113396,56.2996,51,38,0
56.113396,56.2996,56,38,0
56.113396,56.2996,60,38,0
56.3615,56.614864,50,44,0
56.614864,56.804893,56,29,0
56.614864,56.804893,59,29,0
56.614864,56.804893,65,29,0
56.868233,57.05826,56,40,0
56.868233,57.05826,59,40,0
56.868233,57.05826,65,40,0
57.1216,57.386024,51,45,0
57.386024,57.649837,68,31,0
57.386024,57.649837,63,31,0
57.386024,57.649837,60,31,0
57.649837,57.782856,68,50,0
57.649837,57.782856,63,50,0
57.649837,57.782856,60,50,0
57.91656,58.174805,51,40,0
58.174805,58.366432,67,35,0
58.174805,58.366432,63,35,0
58.174805,58.366432,61,35,0
58.43031,58.56195,67,37,0
58.43031,58.56195,63,37,0
58.43031,58.56195,61,37,0
58.951836,59.14387,60,37,0
58.951836,59.14387,63,37,0
58.951836,59.14387,68,37,0
59.207886,59.338963,68,45,0
59.207886,59.338963,63,45,0
59.207886,59.338963,60,45,0
58.693592,59.470043,56,45,0
59.470043,59.733326,44,27,0
59.733326,59.93079,51,34,0
59.733326,59.93079,56,34,0
59.733326,59.93079,60,34,0
59.996613,60.19738,51,41,0
59.996613,60.19738,56,41,0
59.996613,60.19738,60,41,0
60.266502,60.513683,44,33,0
60.513683,60.699066,51,37,0
60.513683,60.699066,56,37,0
60.513683,60.699066,60,37,0
60.76086,60.946243,60,37,0
60.76086,60.946243,56,37,0
60.76086,60.946243,51,37,0
61.008038,61.254707,44,35,0
61.254707,61.43971,50,35,0
61.254707,61.43971,56,35,0
61.254707,61.43971,59,35,0
61.501377,61.68638,59,35,0
61.501377,61.68638,56,35,0
61.501377,61.68638,50,35,0
61.748047,61.994717,44,38,0
61.994717,62.17972,51,28,0
61.994717,62.17972,56,28,0
61.994717,62.17972,60,28,0
62.241386,62.42639,51,41,0
62.241386,62.42639,56,41,0
62.241386,62.42639,60,41,0
62.48808,62.741447,50,32,0
62.741447,62.931473,56,25,0
62.741447,62.931473,59,25,0
62.741447,62.931473,65,25,0
62.994816,63.18484,56,31,0
62.994816,63.18484,59,31,0
62.994816,63.18484,65,31,0
63.512604,63.710213,56,25,0
63.512604,63.710213,63,25,0
63.512604,63.710213,60,25,0
63.776417,63.90944,56,33,0
63.776417,63.90944,63,33,0
63.776417,63.90944,60,33,0
63.248184,64.043144,51,33,0
64.301384,64.49301,67,25,0
64.301384,64.49301,63,25,0
64.301384,64.49301,61,25,0
64.55689,64.68853,67,25,0
64.55689,64.68853,63,25,0
64.55689,64.68853,61,25,0
64.043144,64.820175,51,44,0
64.820175,65.08346,44,17,0
65.08346,65.34674,60,24,0
65.08346,65.34674,51,24,0
65.6475,65.78024,44,34,0
65.91298,66.18923,51,44,0
65.91298,66.18923,60,44,0
66.17847,66.436676,66,37,0
66.17847,66.436676,56,37,0
66.436676,66.57071,44,37,0
66.70474,66.971146,51,29,0
66.70474,66.971146,60,29,0
66.960175,67.23073,66,29,0
66.960175,67.23073,56,29,0
67.23073,67.36537,49,37,0
67.500015,67.78004,61,34,0
67.500015,67.78004,53,34,0
67.7693,68.026955,65,41,0
67.7693,68.026955,56,41,0
68.026955,68.16282,49,31,0
68.29868,68.564156,53,26,0
68.29868,68.564156,61,26,0
68.55303,68.8199,65,32,0
68.55303,68.8199,56,32,0
68.8199,68.95485,44,40,0
69.0898,69.37042,51,35,0
69.0898,69.37042,60,35,0
69.35969,69.61734,66,41,0
69.35969,69.61734,56,41,0
69.61734,69.75137,44,37,0
69.88541,70.163055,51,25,0
69.88541,70.163055,60,25,0
70.15168,70.42465,56,37,0
70.15168,70.42465,66,37,0
70.72022,71.007996,56,37,0
71.007996,71.28197,60,18,0
70.42465,71.28197,49,35,0
71.28197,71.42482,49,29,0
71.28197,71.42482,61,29,0
71.56768,71.85723,61,36,0
71.56768,71.85723,53,36,0
71.84576,72.13275,65,36,0
71.84576,72.13275,56,36,0
72.13275,72.26619,44,36,0
72.39962,72.677246,51,31,0
72.39962,72.677246,60,31,0
72.66649,72.9247,66,39,0
72.66649,72.9247,56,39,0
72.9247,73.05873,44,40,0
73.19276,73.45814,51,36,0
73.19276,73.45814,60,36,0
73.44714,73.7223,66,32,0
73.44714,73.7223,56,32,0
73.7223,73.85514,37,45,0
73.98798,74.26443,61,30,0
73.98798,74.26443,53,30,0
74.25367,74.51188,65,53,0
74.25367,74.51188,56,53,0
74.51188,74.64774,49,32,0
74.78361,75.04928,53,44,0
74.78361,75.04928,61,44,0
75.03796,75.309685,65,39,0
75.03796,75.309685,56,39,0
75.309685,75.44193,42,38,0
75.57417,75.844185,54,43,0
75.57417,75.844185,62,43,0
75.83294,76.10284,63,37,0
75.83294,76.10284,58,37,0
76.10284,76.23538,44,37,0
76.367935,76.64214,53,30,0
76.367935,76.64214,60,30,0
76.63069,76.905556,61,46,0
76.63069,76.905556,56,46,0
76.905556,77.0402,44,33,0
77.17484,77.45686,51,30,0
77.17484,77.45686,56,30,0
77.17484,77.45686,60,30,0
77.45686,77.75963,51,36,0
77.45686,77.75963,56,36,0
77.45686,77.75963,60,36,0
77.75963,78.0624,49,45,0
77.75963,78.0624,56,45,0
77.75963,78.0624,61,45,0
78.60273,78.7389,44,47,0
78.87508,79.14974,51,44,0
78.87508,79.14974,60,44,0
79.138985,79.397194,66,49,0
79.138985,79.397194,56,49,0
79.397194,79.53122,44,42,0
79.66525,79.93192,51,39,0
79.66525,79.93192,60,39,0
79.92095,80.19347,66,39,0
79.92095,80.19347,56,39,0
80.19347,80.32811,49,51,0
80.46275,80.742775,61,45,0
80.46275,80.742775,53,45,0
80.73204,80.98969,65,50,0
80.73204,80.98969,56,50,0
80.98969,81.12556,49,52,0
81.26142,81.52742,53,37,0
81.26142,81.52742,61,37,0
81.5163,81.783165,65,34,0
81.5163,81.783165,56,34,0
81.783165,81.91811,44,45,0
82.053055,82.33369,51,34,0
82.053055,82.33369,60,34,0
82.32295,82.580605,66,41,0
82.32295,82.580605,56,41,0
82.580605,82.71464,44,43,0
82.84866,83.1265,51,28,0
82.84866,83.1265,60,28,0
83.114944,83.39236,56,43,0
83.114944,83.39236,66,43,0
83.68985,83.977615,56,40,0
83.977615,84.25348,60,28,0
83.39236,84.25348,49,44,0
84.25348,84.394485,49,29,0
84.25348,84.394485,61,29,0
84.5355,84.813576,61,35,0
84.5355,84.813576,53,35,0
84.813576,85.092575,56,35,0
84.813576,85.092575,65,35,0
85.092575,85.22601,44,35,0
85.35944,85.63708,51,38,0
85.35944,85.63708,60,38,0
85.62631,85.88452,66,40,0
85.62631,85.88452,56,40,0
85.88452,86.018555,44,61,0
86.15259,86.419304,51,49,0
86.15259,86.419304,60,49,0
86.40829,86.672775,66,57,0
86.40829,86.672775,56,57,0
86.672775,86.80562,37,61,0
86.93846,87.214905,61,47,0
86.93846,87.214905,53,47,0
87.20415,87.46236,65,57,0
87.20415,87.46236,56,57,0
87.46236,87.59822,49,53,0
87.734085,87.98923,53,40,0
87.734085,87.98923,61,40,0
87.98923,88.260956,56,48,0
87.98923,88.260956,65,48,0
88.260956,88.3932,42,49,0
88.52545,88.795456,54,43,0
88.52545,88.795456,62,43,0
88.78421,89.05411,63,48,0
88.78421,89.05411,58,48,0
89.05411,89.18665,44,42,0
89.31921,89.593414,53,28,0
89.31921,89.593414,60,28,0
89.58196,89.85683,61,41,0
89.58196,89.85683,56,41,0
89.85683,89.99147,44,43,0
90.126114,90.408134,51,29,0
90.126114,90.408134,56,29,0
90.126114,90.408134,60,29,0
90.408134,90.71091,51,46,0
90.408134,90.71091,56,46,0
90.408134,90.71091,60,46,0
90.71091,91.01367,49,46,0
90.71091,91.01367,56,46,0
90.71091,91.01367,61,46,0
91.316444,91.4484,61,67,0
91.316444,91.4484,56,67,0
91.316444,91.4484,49,67,0
91.58035,91.71231,51,62,0
91.58035,91.71231,58,62,0
91.58035,91.71231,61,73,0
92.10818,92.24013,51,67,0
92.10818,92.24013,58,67,0
92.10818,92.24013,61,67,0
92.372086,92.50404,51,62,0
92.372086,92.50404,58,62,0
92.372086,92.50404,61,73,0
92.8999,93.03186,51,52,0
92.8999,93.03186,58,52,0
92.8999,93.03186,61,52,0
93.16348,93.41845,44,36,0
93.41845,93.67098,51,32,0
93.41845,93.67098,56,32,0
93.41845,93.67098,60,32,0
93.67098,93.80207,51,37,0
93.67098,93.80207,56,37,0
93.67098,93.80207,60,37,0
93.93316,94.1843,44,38,0
94.1843,94.309875,50,39,0
94.309875,94.43545,53,29,0
94.1843,94.43545,56,39,0
94.1843,94.43545,59,39,0
94.43545,94.5674,60,50,0
94.43545,94.5674,56,50,0
94.43545,94.5674,51,50,0
94.699356,94.833084,51,64,0
94.699356,94.833084,58,64,0
94.699356,94.833084,61,76,0
95.23428,95.36801,51,63,0
95.23428,95.36801,58,63,0
95.23428,95.36801,61,63,0
95.50174,95.635475,51,57,0
95.50174,95.635475,58,57,0
95.50174,95.635475,61,68,0
96.03667,96.1704,51,45,0
96.03667,96.1704,58,45,0
96.03667,96.1704,61,45,0
96.30366,96.55964,39,40,0
96.55964,96.821846,55,39,0
96.55964,96.821846,61,39,0
96.821846,97.09482,61,37,0
96.821846,97.09482,51,37,0
97.09482,97.3667,44,48,0
97.3667,97.631836,60,36,0
97.3667,97.631836,56,36,0
97.631836,97.90505,60,45,0
97.631836,97.90505,51,45,0
97.90505,98.037,51,61,0
97.90505,98.037,58,61,0
97.90505,98.037,61,72,0
98.43287,98.56483,51,64,0
98.43287,98.56483,58,64,0
98.43287,98.56483,61,64,0
98.69678,98.828735,51,62,0
98.69678,98.828735,58,62,0
98.69678,98.828735,61,73,0
99.2246,99.35655,51,51,0
99.2246,99.35655,58,51,0
99.2246,99.35655,61,51,0
99.48818,99.74315,44,46,0
99.74315,99.995674,51,35,0
99.74315,99.995674,56,35,0
99.74315,99.995674,60,35,0
99.995674,100.12677,51,42,0
99.995674,100.12677,56,42,0
99.995674,100.12677,60,42,0
100.25786,100.508995,44,49,0
100.508995,100.63457,50,44,0
100.63457,100.76014,53,29,0
100.508995,100.76014,56,44,0
100.508995,100.76014,59,44,0
100.76014,100.8921,60,51,0
100.76014,100.8921,56,51,0
100.76014,100.8921,51,51,0
101.02405,101.15778,51,57,0
101.02405,101.15778,58,57,0
101.02405,101.15778,61,68,0
101.558975,101.69271,51,63,0
101.558975,101.69271,58,63,0
101.558975,101.69271,61,63,0
101.82644,101.96017,51,60,0
101.82644,101.96017,58,71,0
101.82644,101.96017,61,71,0
102.36137,102.495094,51,36,0
102.36137,102.495094,58,36,0
102.36137,102.495094,61,36,0
102.62835,102.9049,56,45,0
102.62835,102.9049,60,45,0
104.64168,104.77633,44,38,0
104.91097,105.19125,51,44,0
104.91097,105.19125,60,44,0
105.18026,105.44417,66,36,0
105.18026,105.44417,56,36,0
105.44417,105.5782,44,43,0
105.71223,105.98433,51,35,0
105.71223,105.98433,60,35,0
105.97326,106.24661,66,39,0
105.97326,106.24661,56,39,0
106.24661,106.381256,37,51,0
106.5159,106.79593,61,37,0
106.5159,106.79593,53,37,0
106.785194,107.04285,65,45,0
106.785194,107.04285,56,45,0
107.04285,107.17871,49,37,0
107.314575,107.58334,53,40,0
107.314575,107.58334,61,40,0
107.57223,107.839096,65,39,0
107.57223,107.839096,56,39,0
107.839096,107.97404,44,38,0
108.108986,108.38962,51,45,0
108.108986,108.38962,60,45,0
108.37888,108.636536,66,45,0
108.37888,108.636536,56,45,0
108.636536,108.77056,44,44,0
108.904594,109.1823,51,42,0
108.904594,109.1823,60,42,0
109.17087,109.44511,56,34,0
109.17087,109.44511,66,34,0
109.74436,110.03282,56,46,0
110.03282,110.30679,60,45,0
109.44511,110.30679,49,38,0
110.30679,110.44781,49,43,0
110.30679,110.44781,61,43,0
110.58881,110.86178,61,36,0
110.58881,110.86178,53,36,0
110.86178,111.137276,56,36,0
110.86178,111.137276,65,36,0
111.137276,111.270706,44,33,0
111.404144,111.68177,51,38,0
111.404144,111.68177,60,38,0
111.67101,111.92922,66,35,0
111.67101,111.92922,56,35,0
111.92922,112.06325,44,43,0
112.19728,112.463974,51,35,0
112.19728,112.463974,60,35,0
112.45298,112.71689,66,39,0
112.45298,112.71689,56,39,0
112.71689,112.84973,37,48,0
112.982574,113.259026,61,38,0
112.982574,113.259026,53,38,0
113.24827,113.50647,65,47,0
113.24827,113.50647,56,47,0
113.50647,113.642334,49,52,0
113.7782,114.04493,53,40,0
113.7782,114.04493,61,40,0
114.03361,114.305336,65,39,0
114.03361,114.305336,56,39,0
114.305336,114.437584,42,46,0
114.56983,114.83984,54,37,0
114.56983,114.83984,62,37,0
114.8286,115.09849,63,43,0
114.8286,115.09849,58,43,0
115.09849,115.23104,44,35,0
115.36359,115.637794,53,40,0
115.36359,115.637794,60,40,0
115.62634,115.90121,61,41,0
115.62634,115.90121,56,41,0
115.90121,116.03585,44,33,0
116.170494,116.452515,51,36,0
116.170494,116.452515,56,36,0
116.170494,116.452515,60,36,0
116.452515,116.75529,51,30,0
116.452515,116.75529,56,30,0
116.452515,116.75529,60,30,0
116.75529,116.90667,49,42,0
116.75529,116.90667,56,42,0
116.75529,116.90667,61,42,0
117.593285,117.74352,37,61,0
117.89377,118.194244,49,43,0
117.89377,118.194244,56,43,0
117.89377,118.194244,59,43,0
118.194244,118.49473,59,51,0
118.194244,118.49473,56,51,0
118.194244,118.49473,49,51,0
118.49473,118.644966,37,65,0
118.79521,119.08903,49,56,0
118.79521,119.08903,56,56,0
118.79521,119.08903,59,56,0
119.08903,119.382835,59,57,0
119.08903,119.382835,56,57,0
119.08903,119.382835,49,57,0
119.382835,119.51901,42,63,0
119.65518,119.9352,49,45,0
119.65518,119.9352,54,45,0
119.65518,119.9352,58,45,0
119.9352,120.076546,58,45,0
119.9352,120.076546,54,45,0
119.9352,120.076546,49,45,0
120.21789,120.35823,42,55,0
120.498566,120.77924,58,41,0
120.498566,120.77924,50,41,0
120.77924,121.05991,58,46,0
120.77924,121.05991,51,46,0
121.05991,121.1983,44,35,0
121.33669,121.6078,51,32,0
121.33669,121.6078,56,32,0
121.33669,121.6078,60,32,0
121.6078,121.87892,51,37,0
121.6078,121.87892,56,37,0
121.6078,121.87892,60,37,0
121.87892,122.01763,44,45,0
122.156334,122.42931,51,38,0
122.156334,122.42931,56,38,0
122.156334,122.42931,60,38,0
122.42931,122.702286,60,38,0
122.42931,122.702286,56,38,0
122.42931,122.702286,51,38,0
122.702286,122.840675,44,49,0
122.979065,123.25974,51,35,0
122.979065,123.25974,56,35,0
122.979065,123.25974,60,35,0
123.25974,123.54041,60,40,0
123.25974,123.54041,56,40,0
123.25974,123.54041,51,40,0
123.82109,124.10177,56,38,0
123.82109,124.10177,61,38,0
124.10177,124.38244,56,35,0
124.10177,124.38244,61,35,0
123.54041,124.38244,49,34,0
124.38244,124.52115,49,60,0
124.65986,124.93347,61,45,0
124.65986,124.93347,68,45,0
124.65986,124.93347,71,45,0
124.93347,125.20708,71,54,0
124.93347,125.20708,68,54,0
124.93347,125.20708,61,54,0
125.20708,125.34741,49,63,0
125.4858,125.75631,71,45,0
125.4858,125.75631,68,45,0
125.4858,125.75631,61,45,0
125.75631,126.02681,61,48,0
125.75631,126.02681,68,48,0
125.75631,126.02681,71,48,0
126.02681,126.16024,54,50,0
126.29368,126.56235,61,49,0
126.29368,126.56235,66,49,0
126.29368,126.56235,70,49,0
126.56235,126.698524,70,55,0
126.56235,126.698524,66,55,0
126.56235,126.698524,61,55,0
126.834694,126.96725,54,46,0
127.09979,127.37466,70,43,0
127.09979,127.37466,62,43,0
127.37466,127.647,70,43,0
127.37466,127.647,63,43,0
127.647,127.77955,56,49,0
127.9121,128.17255,72,42,0
127.9121,128.17255,68,42,0
127.9121,128.17255,63,42,0
128.17255,128.433,63,36,0
128.17255,128.433,68,36,0
128.17255,128.433,72,36,0
128.433,128.56584,56,44,0
128.69868,128.95857,63,36,0
128.69868,128.95857,68,36,0
128.69868,128.95857,72,36,0
128.95857,129.21846,72,36,0
128.95857,129.21846,68,36,0
128.95857,129.21846,63,36,0
129.21846,129.3522,56,43,0
129.48593,129.76794,63,32,0
129.48593,129.76794,68,32,0
129.48593,129.76794,72,32,0
129.76794,130.06396,72,38,0
129.76794,130.06396,68,38,0
129.76794,130.06396,63,38,0
130.06396,130.35999,73,38,0
130.06396,130.35999,68,38,0
130.06396,130.35999,61,38,0
130.95203,131.09471,37,59,0
131.2374,131.52278,49,49,0
131.2374,131.52278,56,49,0
131.2374,131.52278,59,49,0
131.52278,131.66547,59,55,0
131.52278,131.66547,56,55,0
131.52278,131.66547,49,55,0
131.80815,131.95084,37,58,0
132.09352,132.3716,49,50,0
132.09352,132.3716,56,50,0
132.09352,132.3716,59,50,0
132.3716,132.64967,59,54,0
132.3716,132.64967,56,54,0
132.3716,132.64967,49,54,0
132.64967,132.78584,42,54,0
132.92201,133.20009,49,51,0
132.92201,133.20009,54,51,0
132.92201,133.20009,58,51,0
133.20009,133.33752,58,54,0
133.20009,133.33752,54,54,0
133.20009,133.33752,49,54,0
133.47496,133.6153,42,63,0
133.75563,134.0363,58,51,0
133.75563,134.0363,50,51,0
134.0363,134.31699,58,54,0
134.0363,134.31699,51,54,0
134.31699,134.45537,44,45,0
134.59375,134.86487,51,34,0
134.59375,134.86487,56,34,0
134.59375,134.86487,60,34,0
134.86487,135.13599,51,37,0
134.86487,135.13599,56,37,0
134.86487,135.13599,60,37,0
135.13599,135.27469,44,45,0
135.4134,135.68637,51,34,0
135.4134,135.68637,56,34,0
135.4134,135.68637,60,34,0
135.68637,135.95935,60,38,0
135.68637,135.95935,56,38,0
135.68637,135.95935,51,38,0
135.95935,136.09775,44,49,0
136.23613,136.5168,51,36,0
136.23613,136.5168,56,36,0
136.23613,136.5168,60,36,0
136.5168,136.79749,60,40,0
136.5168,136.79749,56,40,0
136.5168,136.79749,51,40,0
137.07816,137.35883,56,45,0
137.07816,137.35883,61,45,0
137.35883,137.63951,56,45,0
137.35883,137.63951,61,45,0
136.79749,137.63951,49,52,0
137.63951,137.77821,49,60,0
137.91692,138.19054,61,50,0
137.91692,138.19054,68,50,0
137.91692,138.19054,71,50,0
138.19054,138.46414,71,56,0
138.19054,138.46414,68,56,0
138.19054,138.46414,61,56,0
138.46414,138.60448,49,60,0
138.74287,139.01337,71,47,0
138.74287,139.01337,68,47,0
138.74287,139.01337,61,47,0
139.01337,139.28387,61,53,0
139.01337,139.28387,68,53,0
139.01337,139.28387,71,53,0
139.28387,139.41731,54,60,0
139.55074,139.81941,61,56,0
139.55074,139.81941,66,56,0
139.55074,139.81941,70,56,0
139.81941,139.95558,70,60,0
139.81941,139.95558,66,60,0
139.81941,139.95558,61,60,0
140.09175,140.2243,54,67,0
140.35686,140.63173,70,61,0
140.35686,140.63173,62,61,0
140.63173,140.90407,70,62,0
140.63173,140.90407,63,62,0
140.90407,141.03662,56,45,0
141.16916,141.42961,72,35,0
141.16916,141.42961,68,35,0
141.16916,141.42961,63,35,0
141.42961,141.69006,63,38,0
141.42961,141.69006,68,38,0
141.42961,141.69006,72,38,0
141.69006,141.8229,56,44,0
141.95575,142.21564,63,35,0
141.95575,142.21564,68,35,0
141.95575,142.21564,72,35,0
142.21564,142.47552,72,36,0
142.21564,142.47552,68,36,0
142.21564,142.47552,63,36,0
142.47552,142.60925,56,46,0
142.743,143.02501,63,36,0
142.743,143.02501,68,36,0
142.743,143.02501,72,36,0
143.02501,143.32103,72,38,0
143.02501,143.32103,68,38,0
143.02501,143.32103,63,38,0
143.32103,143.61705,73,45,0
143.32103,143.61705,68,45,0
143.32103,143.61705,61,45,0
144.1724,144.30206,46,50,0
144.43172,144.56139,53,42,0
144.43172,144.56139,61,42,0
144.69104,144.82071,53,46,0
144.69104,144.82071,61,46,0
144.95036,145.07892,45,50,0
145.20746,145.33601,60,45,0
145.20746,145.33601,63,45,0
145.20746,145.33601,53,45,0
145.46455,145.5931,53,39,0
145.46455,145.5931,60,39,0
145.46455,145.5931,63,39,0
145.72165,145.84384,46,50,0
145.96605,146.08824,53,47,0
145.96605,146.08824,58,47,0
145.96605,146.08824,61,47,0
146.21043,146.33264,53,53,0
146.21043,146.33264,58,53,0
146.21043,146.33264,61,53,0
146.45483,146.51532,51,56,0
146.69678,146.81775,58,49,0
146.69678,146.81775,60,49,0
146.69678,146.81775,66,49,0
146.9387,147.05968,60,50,0
146.9387,147.05968,58,50,0
146.9387,147.05968,66,50,0
147.18065,147.3016,53,56,0
147.42258,147.54355,58,46,0
147.42258,147.54355,61,46,0
147.42258,147.54355,65,46,0
147.66452,147.78548,58,50,0
147.66452,147.78548,61,50,0
147.66452,147.78548,65,50,0
147.90645,148.02727,53,50,0
148.14842,148.26997,57,46,0
148.14842,148.26997,65,46,0
148.14842,148.26997,63,46,0
148.3919,148.51424,57,48,0
148.3919,148.51424,63,48,0
148.3919,148.51424,65,48,0
148.63695,148.69843,46,50,0
148.88289,149.00587,53,47,0
148.88289,149.00587,61,47,0
149.12885,149.25182,53,47,0
149.12885,149.25182,61,47,0
149.3748,149.49957,46,50,0
149.62434,149.74913,53,47,0
149.62434,149.74913,61,47,0
149.8739,150.00102,53,47,0
149.8739,150.00102,61,47,0
150.12814,150.25316,46,53,0
150.37852,150.50423,53,49,0
150.37852,150.50423,61,49,0
150.63034,150.75679,53,52,0
150.63034,150.75679,61,52,0
150.8836,151.00835,45,55,0
151.13309,151.25783,53,54,0
151.13309,151.25783,60,54,0
151.13309,151.25783,63,54,0
151.38257,151.5073,53,60,0
151.38257,151.5073,60,60,0
151.38257,151.5073,63,60,0
151.63203,151.75374,46,68,0
151.87544,151.99715,53,62,0
151.87544,151.99715,58,62,0
151.87544,151.99715,61,62,0
152.11885,152.24055,53,56,0
152.11885,152.24055,58,56,0
152.11885,152.24055,61,56,0
152.36226,152.48433,51,60,0
152.60672,152.72952,58,56,0
152.60672,152.72952,60,56,0
152.60672,152.72952,66,56,0
152.85268,152.97624,58,57,0
152.85268,152.97624,60,57,0
152.85268,152.97624,66,57,0
153.10019,153.22118,53,56,0
153.34215,153.46313,58,52,0
153.34215,153.46313,61,52,0
153.34215,153.46313,65,52,0
153.58412,153.7051,58,52,0
153.58412,153.7051,61,52,0
153.58412,153.7051,65,52,0
153.82608,153.94707,53,53,0
154.06805,154.18903,57,49,0
154.06805,154.18903,63,49,0
154.06805,154.18903,65,49,0
154.31001,154.431,57,53,0
154.31001,154.431,65,53,0
154.31001,154.431,63,53,0
154.55197,154.7984,58,58,0
154.55197,154.7984,61,58,0
154.55197,154.7984,65,58,0
156.09218,156.23486,37,54,0
156.37755,156.66293,49,49,0
156.37755,156.66293,56,49,0
156.37755,156.66293,59,49,0
156.66293,156.9483,59,49,0
156.66293,156.9483,56,49,0
156.66293,156.9483,49,49,0
156.9483,157.09099,37,54,0
157.23367,157.51175,49,50,0
157.23367,157.51175,56,50,0
157.23367,157.51175,59,50,0
157.51175,157.78983,59,50,0
157.51175,157.78983,56,50,0
157.51175,157.78983,49,50,0
157.78983,157.926,42,54,0
158.06216,158.34024,49,51,0
158.06216,158.34024,54,51,0
158.06216,158.34024,58,51,0
158.34024,158.47992,58,54,0
158.34024,158.47992,54,54,0
158.34024,158.47992,49,54,0
158.61961,158.75995,42,63,0
158.90028,159.18095,58,54,0
158.90028,159.18095,50,54,0
159.18095,159.46164,58,54,0
159.18095,159.46164,51,54,0
159.46164,159.60002,44,45,0
159.73842,160.00952,51,36,0
159.73842,160.00952,56,36,0
159.73842,160.00952,60,36,0
160.00952,160.28064,51,37,0
160.00952,160.28064,56,37,0
160.00952,160.28064,60,37,0
160.28064,160.41934,44,45,0
160.55806,160.83104,51,37,0
160.55806,160.83104,56,37,0
160.55806,160.83104,60,37,0
160.83104,161.104,60,38,0
160.83104,161.104,56,38,0
160.83104,161.104,51,38,0
161.104,161.2424,44,49,0
161.38078,161.66147,51,39,0
161.38078,161.66147,56,39,0
161.38078,161.66147,60,39,0
161.66147,161.94214,60,40,0
161.66147,161.94214,56,40,0
161.66147,161.94214,51,40,0
162.22281,162.50348,56,43,0
162.22281,162.50348,61,43,0
162.50348,162.78416,56,45,0
162.50348,162.78416,61,45,0
161.94214,162.78416,49,52,0
162.78416,162.92287,49,60,0
163.06158,163.33519,61,54,0
163.06158,163.33519,68,54,0
163.06158,163.33519,71,54,0
163.33519,163.6088,71,56,0
163.33519,163.6088,68,56,0
163.33519,163.6088,61,56,0
163.6088,163.74913,49,60,0
163.88753,164.15804,71,53,0
163.88753,164.15804,68,53,0
163.88753,164.15804,61,53,0
164.15804,164.42853,61,54,0
164.15804,164.42853,68,54,0
164.15804,164.42853,71,54,0
164.42853,164.56197,54,60,0
164.6954,164.96407,61,56,0
164.6954,164.96407,66,56,0
164.6954,164.96407,70,56,0
164.96407,165.10182,70,60,0
164.96407,165.10182,66,60,0
164.96407,165.10182,61,60,0
165.23956,165.37212,54,65,0
165.50467,165.77953,70,58,0
165.50467,165.77953,62,58,0
165.77953,166.05188,70,62,0
165.77953,166.05188,63,62,0
166.05188,166.18442,56,45,0
166.31697,166.57742,72,36,0
166.31697,166.57742,68,36,0
166.31697,166.57742,63,36,0
166.57742,166.83788,63,38,0
166.57742,166.83788,68,38,0
166.57742,166.83788,72,38,0
166.83788,166.97072,56,44,0
167.10356,167.36345,63,34,0
167.10356,167.36345,68,34,0
167.10356,167.36345,72,34,0
167.36345,167.62334,72,36,0
167.36345,167.62334,68,36,0
167.36345,167.62334,63,36,0
167.62334,167.75706,56,46,0
167.8908,168.17282,63,37,0
167.8908,168.17282,68,37,0
167.8908,168.17282,72,37,0
168.17282,168.46884,72,38,0
168.17282,168.46884,68,38,0
168.17282,168.46884,63,38,0
168.46884,168.76486,73,45,0
168.46884,168.76486,68,45,0
168.46884,168.76486,61,45,0
169.3202,169.44986,46,50,0
169.57953,169.7092,53,45,0
169.57953,169.7092,61,45,0
169.83885,169.96852,53,46,0
169.83885,169.96852,61,46,0
170.09818,170.22673,45,50,0
170.35527,170.48381,60,44,0
170.35527,170.48381,63,44,0
170.35527,170.48381,53,44,0
170.61237,170.7409,53,45,0
170.61237,170.7409,60,45,0
170.61237,170.7409,63,45,0
170.86945,170.99216,46,50,0
171.11485,171.23755,53,50,0
171.11485,171.23755,58,50,0
171.11485,171.23755,61,50,0
171.36024,171.48265,53,53,0
171.36024,171.48265,58,53,0
171.36024,171.48265,61,53,0
171.60422,171.72519,51,56,0
171.84615,171.96712,58,53,0
171.84615,171.96712,60,53,0
171.84615,171.96712,66,53,0
172.08809,172.20906,60,50,0
172.08809,172.20906,58,50,0
172.08809,172.20906,66,50,0
172.33002,172.45099,53,56,0
172.57196,172.69293,58,49,0
172.57196,172.69293,61,49,0
172.57196,172.69293,65,49,0
172.81389,172.93486,58,50,0
172.81389,172.93486,61,50,0
172.81389,172.93486,65,50,0
173.05583,173.17665,53,50,0
173.29779,173.41936,57,48,0
173.29779,173.41936,65,48,0
173.29779,173.41936,63,48,0
173.54129,173.66362,57,48,0
173.54129,173.66362,63,48,0
173.54129,173.66362,65,48,0
173.78632,173.90929,46,50,0
174.03227,174.15524,53,47,0
174.03227,174.15524,61,47,0
174.27823,174.4012,53,47,0
174.27823,174.4012,61,47,0
174.52417,174.64896,46,50,0
174.77373,174.8985,53,46,0
174.77373,174.8985,61,46,0
175.02328,175.15013,53,47,0
175.02328,175.15013,61,47,0
175.27698,175.40198,46,53,0
175.52698,175.65198,53,49,0
175.52698,175.65198,61,49,0
175.77698,175.90198,53,52,0
175.77698,175.90198,61,52,0
176.02698,176.15176,45,55,0
176.27686,176.40224,53,56,0
176.27686,176.40224,60,56,0
176.27686,176.40224,63,56,0
176.52794,176.65395,53,60,0
176.52794,176.65395,60,60,0
176.52794,176.65395,63,60,0
176.7803,176.90201,46,64,0
177.02371,177.14542,53,62,0
177.02371,177.14542,58,62,0
177.02371,177.14542,61,62,0
177.26712,177.38882,53,56,0
177.26712,177.38882,58,56,0
177.26712,177.38882,61,56,0
177.51053,177.63258,51,60,0
177.75497,177.87779,58,55,0
177.75497,177.87779,60,55,0
177.75497,177.87779,66,55,0
178.00093,178.12451,58,57,0
178.00093,178.12451,60,57,0
178.00093,178.12451,66,57,0
178.24846,178.36943,53,56,0
178.49042,178.6114,58,52,0
178.49042,178.6114,61,52,0
178.49042,178.6114,65,52,0
178.73238,178.85336,58,52,0
178.73238,178.85336,61,52,0
178.73238,178.85336,65,52,0
178.97435,179.09534,53,53,0
179.21631,179.3373,57,49,0
179.21631,179.3373,63,49,0
179.21631,179.3373,65,49,0
179.45828,179.57925,57,53,0
179.45828,179.57925,65,53,0
179.45828,179.57925,63,53,0
179.70024,179.94667,58,58,0
179.70024,179.94667,61,58,0
179.70024,179.94667,65,58,0
181.24045,181.38313,37,54,0
181.52582,181.81119,49,49,0
181.52582,181.81119,56,49,0
181.52582,181.81119,59,49,0
181.81119,182.09657,59,49,0
181.81119,182.09657,56,49,0
181.81119,182.09657,49,49,0
182.09657,182.23926,37,54,0
182.38194,182.66002,49,48,0
182.38194,182.66002,56,48,0
182.38194,182.66002,59,48,0
182.66002,182.9381,59,50,0
182.66002,182.9381,56,50,0
182.66002,182.9381,49,50,0
182.9381,183.07426,42,54,0
183.21043,183.48851,49,51,0
183.21043,183.48851,54,51,0
183.21043,183.48851,58,51,0
183.48851,183.62819,58,54,0
183.48851,183.62819,54,54,0
183.48851,183.62819,49,54,0
183.76788,183.90822,42,63,0
184.04855,184.32922,58,54,0
184.04855,184.32922,50,54,0
184.32922,184.60991,58,54,0
184.32922,184.60991,51,54,0
184.60991,184.74829,44,45,0
184.88667,185.15779,51,36,0
184.88667,185.15779,56,36,0
184.88667,185.15779,60,36,0
185.15779,185.42891,51,37,0
185.15779,185.42891,56,37,0
185.15779,185.42891,60,37,0
185.42891,185.56761,44,45,0
185.70633,185.9793,51,37,0
185.70633,185.9793,56,37,0
185.70633,185.9793,60,37,0
185.9793,186.25227,60,38,0
185.9793,186.25227,56,38,0
185.9793,186.25227,51,38,0
186.25227,186.39067,44,49,0
186.52905,186.80972,51,39,0
186.52905,186.80972,56,39,0
186.52905,186.80972,60,39,0
186.80972,187.10098,60,40,0
186.80972,187.10098,56,40,0
186.80972,187.10098,51,40,0
187.3807,187.66043,56,42,0
187.3807,187.66043,61,42,0
187.66043,187.94016,56,45,0
187.66043,187.94016,61,45,0
187.10098,187.94016,49,52,0
187.94016,188.07886,49,60,0
188.21758,188.49118,61,53,0
188.21758,188.49118,68,53,0
188.21758,188.49118,71,53,0
188.49118,188.76479,71,56,0
188.49118,188.76479,68,56,0
188.49118,188.76479,61,56,0
188.76479,188.90512,49,60,0
189.04352,189.31401,71,53,0
189.04352,189.31401,68,53,0
189.04352,189.31401,61,53,0
189.31401,189.58452,61,54,0
189.31401,189.58452,68,54,0
189.31401,189.58452,71,54,0
189.58452,189.71796,54,60,0
189.85138,190.12006,61,56,0
189.85138,190.12006,66,56,0
189.85138,190.12006,70,56,0
190.12006,190.25781,70,60,0
190.12006,190.25781,66,60,0
190.12006,190.25781,61,60,0
190.39555,190.5281,54,67,0
190.66066,190.93552,70,61,0
190.66066,190.93552,62,61,0
190.93552,191.20786,70,62,0
190.93552,191.20786,63,62,0
191.20786,191.34041,56,45,0
191.47296,191.73341,72,36,0
191.47296,191.73341,68,36,0
191.47296,191.73341,63,36,0
191.73341,191.99387,63,38,0
191.73341,191.99387,68,38,0
191.73341,191.99387,72,38,0
191.99387,192.12671,56,44,0
192.25955,192.51944,63,36,0
192.25955,192.51944,68,36,0
192.25955,192.51944,72,36,0
192.51944,192.77933,72,36,0
192.51944,192.77933,68,36,0
192.51944,192.77933,63,36,0
192.77933,192.91306,56,46,0
193.04678,193.32881,63,38,0
193.04678,193.32881,68,38,0
193.04678,193.32881,72,38,0
193.32881,193.62483,72,38,0
193.32881,193.62483,68,38,0
193.32881,193.62483,63,38,0
193.62483,193.92085,73,45,0
193.62483,193.92085,68,45,0
193.62483,193.92085,61,45,0
195.06644,195.42984,54,36,0
195.06644,195.42984,61,36,0
195.42984,195.78384,54,36,0
195.42984,195.78384,61,36,0
194.6972,195.78384,46,32,0
195.78384,196.12378,47,38,0
196.12378,196.45255,54,35,0
196.12378,196.45255,56,35,0
196.12378,196.45255,63,35,0
196.45255,196.77646,54,35,0
196.45255,196.77646,56,35,0
196.45255,196.77646,63,35,0
197.11397,197.45149,53,24,0
197.11397,197.45149,59,24,0
197.45149,197.789,53,30,0
197.45149,197.789,59,30,0
196.77646,197.789,46,30,0
197.789,198.13272,42,30,0
198.13272,198.47023,49,29,0
198.13272,198.47023,58,29,0
198.47023,198.80775,58,34,0
198.47023,198.80775,49,34,0
199.1578,199.49799,54,29,0
199.1578,199.49799,61,29,0
199.49799,199.84084,54,35,0
199.49799,199.84084,61,35,0
198.80775,199.84084,46,37,0
199.84084,200.16948,47,29,0
200.16948,200.49812,54,29,0
200.16948,200.49812,56,29,0
200.16948,200.49812,63,29,0
200.49812,200.84935,63,36,0
200.49812,200.84935,56,36,0
200.49812,200.84935,54,36,0
201.22275,201.58783,53,19,0
201.22275,201.58783,59,19,0
201.58783,201.94464,59,26,0
201.58783,201.94464,53,26,0
200.84935,201.94464,49,36,0
201.94464,202.30478,42,27,0
202.30478,202.65637,49,32,0
202.30478,202.65637,58,32,0
202.65637,203.00453,58,34,0
202.65637,203.00453,49,34,0
203.35184,203.70352,54,28,0
203.35184,203.70352,61,28,0
203.70352,204.05981,54,37,0
203.70352,204.05981,61,37,0
203.00453,204.05981,46,28,0
204.05981,204.42007,47,33,0
204.42007,204.76913,63,30,0
204.42007,204.76913,55,30,0
204.76913,205.1182,63,33,0
204.76913,205.1182,56,33,0
205.46725,205.81657,53,20,0
205.46725,205.81657,59,20,0
205.81657,206.1734,59,29,0
205.81657,206.1734,53,29,0
205.1182,206.1734,49,25,0
206.1734,206.536,42,34,0
206.536,206.89857,58,28,0
206.536,206.89857,49,28,0
206.89857,207.26115,49,33,0
206.89857,207.26115,58,33,0
207.65833,208.10042,54,28,0
207.65833,208.10042,61,28,0
208.10042,208.48628,61,28,0
208.10042,208.48628,54,28,0
207.26115,208.48628,46,38,0
208.48628,208.84772,47,35,0
208.84772,209.20917,54,30,0
208.84772,209.20917,56,30,0
208.84772,209.20917,63,30,0
209.20917,209.57062,54,28,0
209.20917,209.57062,56,28,0
209.20917,209.57062,63,28,0
209.92741,210.29608,53,26,0
209.92741,210.29608,59,26,0
210.29608,210.719,59,25,0
210.29608,210.719,53,25,0
209.57062,210.719,49,26,0
210.719,211.14503,42,30,0
211.14503,211.57109,49,27,0
211.14503,211.57109,58,27,0
211.85411,211.9956,46,35,0
211.85411,211.9956,34,35,0
212.42014,212.70316,65,37,0
212.42014,212.70316,58,37,0
212.42014,212.70316,56,37,0
212.70316,212.84467,64,32,0
212.70316,212.84467,58,32,0
212.70316,212.84467,55,32,0
213.2692,213.55222,63,36,0
213.2692,213.55222,58,36,0
213.2692,213.55222,54,36,0
213.55222,213.69373,62,32,0
213.55222,213.69373,58,32,0
213.55222,213.69373,53,32,0
213.83524,213.90599,46,82,0
213.83524,213.90599,34,82,0
213.97675,214.0475,46,78,0
213.97675,214.0475,34,78,0
214.11826,214.25977,46,82,0
214.11826,214.25977,34,82,0
214.40128,214.47203,46,82,0
214.40128,214.47203,34,82,0
214.54279,214.61354,46,78,0
214.54279,214.61354,34,78,0
214.6843,214.8258,46,82,0
214.6843,214.8258,34,82,0
214.96732,215.03807,46,82,0
214.96732,215.03807,34,82,0
215.10883,215.17958,46,78,0
215.10883,215.17958,34,78,0
215.25034,215.39185,46,82,0
215.25034,215.39185,34,82,0
215.81638,216.10553,56,39,0
215.81638,216.10553,46,39,0
216.10553,216.2501,55,36,0
216.10553,216.2501,46,36,0
216.68384,217.00488,46,39,0
216.68384,217.00488,54,39,0
217.00488,217.15717,53,36,0
217.00488,217.15717,46,36,0
218.74892,218.88782,46,95,0
218.74892,218.88782,34,95,0
219.0267,219.22168,58,54,0
219.0267,219.22168,65,54,0
219.0267,219.22168,68,54,0
219.28539,219.48456,58,62,0
219.28539,219.48456,65,62,0
219.28539,219.48456,68,62,0
219.55244,219.6852,51,95,0
219.55244,219.6852,39,95,0
219.81793,220.01234,58,57,0
219.81793,220.01234,63,57,0
219.81793,220.01234,67,57,0
220.07605,220.27213,58,61,0
220.07605,220.27213,63,61,0
220.07605,220.27213,67,61,0
220.33748,220.4665,58,96,0
220.33748,220.4665,46,96,0
220.59555,220.78424,58,60,0
220.59555,220.78424,65,60,0
220.59555,220.78424,68,60,0
220.84636,221.04169,58,67,0
220.84636,221.04169,65,67,0
220.84636,221.04169,68,67,0
221.1068,221.23349,51,97,0
221.36017,221.48686,58,71,0
221.36017,221.48686,61,71,0
221.36017,221.48686,67,71,0
221.61354,221.74841,52,92,0
221.88329,222.01515,53,60,0
222.14702,222.27388,56,47,0
222.14702,222.27388,65,47,0
222.39836,222.5308,44,53,0
222.66325,222.79257,46,55,0
222.92188,223.10939,55,44,0
222.92188,223.10939,63,44,0
223.17113,223.30276,55,51,0
223.17113,223.30276,63,51,0
223.4344,223.56242,46,54,0
223.69046,223.9398,53,41,0
223.69046,223.9398,62,41,0
223.9398,224.07559,58,49,0
223.9398,224.07559,62,49,0
224.47182,224.66508,58,38,0
224.47182,224.66508,63,38,0
224.7295,224.86557,58,47,0
224.7295,224.86557,63,47,0
224.21136,225.00162,51,51,0
225.00162,225.40344,46,95,0
225.00162,225.40344,58,95,0
225.27377,225.40344,58,54,0
225.27377,225.46701,65,54,0
225.27377,225.46701,68,54,0
225.53056,225.72804,58,58,0
225.53056,225.72804,65,58,0
225.53056,225.72804,68,58,0
225.79593,226.18616,51,94,0
225.79593,226.18616,39,94,0
226.05919,226.24826,63,64,0
226.05919,226.24826,67,64,0
226.05919,226.24826,58,64,0
226.31038,226.50064,58,69,0
226.31038,226.50064,63,69,0
226.31038,226.50064,67,69,0
226.56407,226.94443,46,95,0
226.56407,226.94443,58,95,0
226.81958,226.94443,58,66,0
226.81958,227.0059,65,66,0
226.81958,227.0059,68,66,0
227.06738,227.26527,58,70,0
227.06738,227.26527,65,70,0
227.06738,227.26527,68,70,0
227.33125,227.45793,51,78,0
227.58461,227.7113,58,48,0
227.58461,227.7113,61,48,0
227.58461,227.7113,67,48,0
227.84613,228.1346,52,49,0
228.1346,228.26454,53,43,0
228.39449,228.52118,65,49,0
228.39449,228.52118,56,49,0
228.64488,228.77568,44,37,0
228.90648,229.0356,46,43,0
229.16472,229.35445,63,31,0
229.16472,229.35445,55,31,0
229.41695,229.54945,55,41,0
229.41695,229.54945,63,41,0
229.68196,229.81929,46,33,0
229.9566,230.2376,62,40,0
229.9566,230.2376,53,40,0
230.2376,230.52596,62,27,0
230.52596,230.80502,51,44,0
230.52596,230.80502,63,44,0
230.2376,230.80502,58,27,0
231.07063,231.33624,61,52,0
231.07063,231.33624,55,52,0
231.07063,231.33624,51,52,0
231.33624,231.73116,44,25,0
231.59952,231.79698,56,33,0
231.59952,231.79698,60,33,0
231.59952,231.79698,51,33,0
231.86281,232.06357,56,41,0
231.86281,232.06357,51,41,0
231.86281,232.06357,60,41,0
232.13269,232.37987,44,33,0
232.37987,232.56526,51,33,0
232.37987,232.56526,60,33,0
232.37987,232.56526,56,33,0
232.62706,232.81244,60,37,0
232.62706,232.81244,51,37,0
232.62706,232.81244,56,37,0
232.87424,233.1214,44,37,0
233.1214,233.3078,59,26,0
233.1214,233.3078,50,26,0
233.1214,233.3078,56,26,0
233.3701,233.55765,59,32,0
233.3701,233.55765,50,32,0
233.3701,233.55765,56,32,0
233.62033,233.87115,44,38,0
233.87115,234.05838,56,29,0
233.87115,234.05838,51,29,0
233.87115,234.05838,60,29,0
234.1206,234.30681,60,48,0
234.1206,234.30681,51,48,0
234.1206,234.30681,56,48,0
234.36871,234.62207,50,55,0
234.62207,234.8121,59,24,0
234.62207,234.8121,56,24,0
234.62207,234.8121,65,24,0
234.87544,235.06548,59,36,0
234.87544,235.06548,56,36,0
234.87544,235.06548,65,36,0
235.12881,235.39323,51,44,0
235.39323,235.59085,68,32,0
235.39323,235.59085,60,32,0
235.39323,235.59085,63,32,0
235.65704,235.79007,63,42,0
235.65704,235.79007,68,42,0
235.65704,235.79007,60,42,0
235.92377,236.18202,51,20,0
236.18202,236.37364,67,20,0
236.18202,236.37364,61,20,0
236.18202,236.37364,63,20,0
236.43752,236.56917,67,30,0
236.43752,236.56917,61,30,0
236.43752,236.56917,63,30,0
236.95905,237.15108,68,23,0
236.95905,237.15108,60,23,0
236.95905,237.15108,63,23,0
237.21509,237.34618,68,38,0
236.7008,237.34618,56,34,0
237.21509,237.34618,63,38,0
237.21509,237.34618,60,38,0
237.47725,237.74054,44,34,0
237.74054,237.938,56,31,0
237.74054,237.938,51,31,0
237.74054,237.938,60,31,0
238.00383,238.20459,60,49,0
238.00383,238.20459,51,49,0
238.00383,238.20459,56,49,0
238.27371,238.52089,44,47,0
238.52089,238.70628,56,35,0
238.52089,238.70628,51,35,0
238.52089,238.70628,60,35,0
238.76807,238.95346,56,52,0
238.76807,238.95346,60,52,0
238.76807,238.95346,51,52,0
239.01524,239.26192,44,40,0
239.26192,239.44691,50,35,0
239.26192,239.44691,59,35,0
239.26192,239.44691,56,35,0
239.50859,239.69359,56,31,0
239.50859,239.69359,59,31,0
239.50859,239.69359,50,31,0
239.75526,240.00192,44,38,0
240.00192,240.18694,51,30,0
240.00192,240.18694,60,30,0
240.00192,240.18694,56,30,0
240.2486,240.4336,51,36,0
240.2486,240.4336,60,36,0
240.2486,240.4336,56,36,0
240.49529,240.74866,50,38,0
240.74866,240.93869,65,33,0
240.74866,240.93869,56,33,0
240.74866,240.93869,59,33,0
241.00203,241.19205,56,36,0
241.00203,241.19205,65,36,0
241.00203,241.19205,59,36,0
241.25539,241.51982,51,44,0
241.51982,241.71742,63,29,0
241.51982,241.71742,68,29,0
241.51982,241.71742,60,29,0
241.78363,241.91666,60,44,0
241.78363,241.91666,68,44,0
241.78363,241.91666,63,44,0
242.05035,242.3086,51,27,0
242.3086,242.5641,63,32,0
242.3086,242.5641,67,32,0
242.3086,242.5641,61,32,0
242.5641,242.69574,63,37,0
242.5641,242.69574,67,37,0
242.5641,242.69574,61,37,0
243.09067,243.35396,60,35,0
243.09067,243.35396,68,35,0
243.35396,243.62796,65,47,0
243.35396,243.62796,68,47,0
242.82738,243.62796,56,44,0
243.62796,243.90012,46,86,0
243.62796,243.90012,58,86,0
243.90012,244.09758,58,55,0
243.90012,244.09758,68,55,0
243.90012,244.09758,65,55,0
244.1634,244.36295,65,65,0
244.1634,244.36295,58,65,0
244.1634,244.36295,68,65,0
244.43083,244.69469,51,74,0
244.69469,244.88919,58,57,0
244.69469,244.88919,67,57,0
244.69469,244.88919,63,57,0
244.95403,245.14853,58,62,0
244.95403,245.14853,67,62,0
244.95403,245.14853,63,62,0
245.21336,245.46887,50,65,0
245.46887,245.65694,68,56,0
245.46887,245.65694,58,56,0
245.46887,245.65694,65,56,0
245.71962,245.91496,58,69,0
245.71962,245.91496,68,69,0
245.71962,245.91496,65,69,0
245.98007,246.10675,51,61,0
246.23344,246.36012,61,61,0
246.23344,246.36012,58,61,0
246.23344,246.36012,67,61,0
246.4868,246.75656,52,38,0
246.75656,246.88678,53,38,0
247.017,247.14423,56,41,0
247.017,247.14423,65,41,0
247.26845,247.40038,44,36,0
247.53232,247.66061,46,31,0
247.78891,247.97731,63,27,0
247.78891,247.97731,55,27,0
248.0393,248.17094,63,41,0
248.0393,248.17094,55,41,0
248.30258,248.4306,46,39,0
248.55864,248.80824,62,26,0
248.55864,248.80824,53,26,0
248.80824,248.94402,62,34,0
248.80824,248.94402,58,34,0
249.34026,249.59795,63,33,0
249.34026,249.59795,58,33,0
249.59795,249.73222,63,53,0
249.59795,249.73222,58,53,0
249.0798,249.86649,51,23,0
249.86649,250.13864,46,91,0
249.86649,250.13864,34,91,0
250.13864,250.33147,58,54,0
250.13864,250.33147,68,54,0
250.13864,250.33147,65,54,0
250.39462,250.5921,65,58,0
250.39462,250.5921,58,58,0
250.39462,250.5921,68,58,0
250.66,250.92325,39,92,0
250.66,250.92325,51,92,0
250.92325,251.11208,58,58,0
250.92325,251.11208,67,58,0
250.92325,251.11208,63,58,0
251.17392,251.3642,58,64,0
251.17392,251.3642,63,64,0
251.17392,251.3642,67,64,0
251.42763,251.69789,46,91,0
251.42763,251.69789,58,91,0
251.69789,251.91394,65,66,0
251.69789,251.91394,58,66,0
251.69789,251.91394,68,66,0
251.98747,252.23071,58,72,0
251.98747,252.23071,65,72,0
251.98747,252.23071,68,72,0
252.3118,252.56517,58,90,0
252.3118,252.56517,67,90,0
252.3118,252.56517,51,90,0
252.3118,252.56517,61,90,0
254.39546,254.71547,52,40,0
254.71547,254.86853,53,48,0
255.02159,255.16829,56,44,0
255.02159,255.16829,65,44,0
255.31499,255.46689,44,44,0
255.61879,255.7673,46,39,0
255.91582,256.20358,55,36,0
255.91582,256.20358,63,36,0
256.20358,256.50662,55,36,0
256.20358,256.50662,63,36,0
256.50662,256.66577,46,35,0
256.82492,257.16974,53,32,0
256.82492,257.16974,58,32,0
256.82492,257.16974,62,32,0
257.16974,257.4413,58,30,0
257.16974,257.4413,62,30,0
257.16974,257.4413,53,32,0
258.25598,258.52753,39,33,0
258.52753,258.79907,55,29,0
258.52753,258.79907,46,29,0
258.79907,259.07062,55,31,0
258.79907,259.07062,46,31,0
259.07062,259.3422,39,32,0
259.3422,259.61374,46,29,0
259.3422,259.61374,55,29,0
259.61374,259.88528,55,31,0
259.61374,259.88528,46,31,0
259.88528,260.15686,39,34,0
260.15686,260.4284,55,29,0
260.15686,260.4284,46,29,0
260.4284,260.69995,46,32,0
260.4284,260.69995,55,32,0
260.69995,260.97153,39,33,0
260.97153,261.24307,46,30,0
260.97153,261.24307,55,30,0
261.24307,261.51462,55,32,0
261.24307,261.51462,46,32,0
261.51462,261.7862,39,33,0
261.7862,262.05774,46,29,0
261.7862,262.05774,55,29,0
262.05774,262.32928,55,31,0
262.05774,262.32928,46,31,0
262.32928,262.58194,39,33,0
262.58194,262.7714,55,30,0
262.58194,262.7714,46,30,0
262.83456,263.02402,46,30,0
262.83456,263.02402,55,30,0
263.0872,263.33127,39,36,0
263.33127,263.51483,51,33,0
263.33127,263.51483,55,33,0
263.33127,263.51483,61,33,0
263.57614,263.76038,51,30,0
263.57614,263.76038,55,30,0
263.57614,263.76038,61,30,0
263.82184,264.0067,61,33,0
263.82184,264.0067,55,33,0
263.82184,264.0067,51,33,0
264.06845,264.2539,51,29,0
264.06845,264.2539,55,29,0
264.06845,264.2539,61,29,0
264.31586,264.50195,61,29,0
264.31586,264.50195,55,29,0
264.31586,264.50195,51,29,0
264.5641,264.81305,39,36,0
264.81305,264.99976,51,31,0
264.81305,264.99976,60,31,0
264.81305,264.99976,56,31,0
265.062,265.24872,56,31,0
265.062,265.24872,51,31,0
265.062,265.24872,60,31,0
265.31097,265.5579,39,36,0
265.5579,265.74307,56,33,0
265.5579,265.74307,51,33,0
265.5579,265.74307,60,33,0
265.8048,265.99,51,33,0
265.8048,265.99,56,33,0
265.8048,265.99,60,33,0
266.0517,266.29236,39,39,0
266.29236,266.47327,51,36,0
266.29236,266.47327,56,36,0
266.29236,266.47327,60,36,0
266.53363,266.71512,51,33,0
266.53363,266.71512,56,33,0
266.53363,266.71512,60,33,0
266.77573,266.9578,60,36,0
266.77573,266.9578,56,36,0
266.77573,266.9578,51,36,0
267.01852,267.20114,51,31,0
267.01852,267.20114,56,31,0
267.01852,267.20114,60,31,0
267.26212,267.44528,60,31,0
267.26212,267.44528,56,31,0
267.26212,267.44528,51,31,0
267.5064,267.75333,39,39,0
267.5064,267.75333,51,39,0
267.75333,267.9385,62,32,0
267.75333,267.9385,56,32,0
267.75333,267.9385,51,32,0
268.00024,268.18542,62,34,0
268.00024,268.18542,56,34,0
268.00024,268.18542,51,34,0
268.24716,268.48715,51,39,0
268.24716,268.48715,39,39,0
268.48715,268.66714,62,35,0
268.48715,268.66714,56,35,0
268.48715,268.66714,51,35,0
268.72717,268.90717,51,36,0
268.72717,268.90717,56,36,0
268.72717,268.90717,62,36,0
268.96716,269.20337,51,40,0
268.96716,269.20337,39,40,0
269.20337,269.38156,51,39,0
269.20337,269.38156,62,39,0
269.20337,269.38156,59,39,0
269.20337,269.38156,56,39,0
269.4411,269.6203,51,44,0
269.4411,269.6203,62,44,0
269.4411,269.6203,59,44,0
269.4411,269.6203,56,44,0
269.6803,269.86063,51,46,0
269.6803,269.86063,62,46,0
269.6803,269.86063,59,46,0
269.6803,269.86063,56,46,0
269.92087,270.10223,51,46,0
269.92087,270.10223,62,46,0
269.92087,270.10223,59,46,0
269.92087,270.10223,56,46,0
270.16296,270.353,51,50,0
270.16296,270.353,62,50,0
270.16296,270.353,59,50,0
270.16296,270.353,56,50,0
270.42148,270.60147,51,47,0
270.42148,270.60147,62,47,0
270.42148,270.60147,59,47,0
270.42148,270.60147,56,47,0
270.66147,270.8415,51,38,0
270.66147,270.8415,62,38,0
270.66147,270.8415,59,38,0
270.66147,270.8415,56,38,0
270.9015,271.08148,51,45,0
270.9015,271.08148,62,45,0
270.9015,271.08148,59,45,0
270.9015,271.08148,56,45,0
271.14148,271.3168,51,47,0
271.14148,271.3168,62,47,0
271.14148,271.3168,59,47,0
271.14148,271.3168,56,47,0
271.37488,271.54794,51,38,0
271.37488,271.54794,62,38,0
271.37488,271.54794,59,38,0
271.37488,271.54794,56,38,0
271.6053,271.77625,51,45,0
271.6053,271.77625,62,45,0
271.6053,271.77625,59,45,0
271.6053,271.77625,56,45,0
271.83282,272.0023,51,45,0
271.83282,272.0023,62,45,0
271.83282,272.0023,58,45,0
271.83282,272.0023,56,45,0
272.0591,272.2303,51,43,0
272.0591,272.2303,62,43,0
272.0591,272.2303,58,43,0
272.0591,272.2303,56,43,0
272.2877,272.4607,51,48,0
272.2877,272.4607,62,48,0
272.2877,272.4607,58,48,0
272.2877,272.4607,56,48,0
272.51862,272.69348,51,49,0
272.51862,272.69348,62,49,0
272.51862,272.69348,58,49,0
272.51862,272.69348,56,49,0
272.75208,272.92877,51,46,0
272.75208,272.92877,62,46,0
272.75208,272.92877,58,46,0
272.75208,272.92877,56,46,0
272.98813,273.18045,51,52,0
272.98813,273.18045,62,52,0
272.98813,273.18045,58,52,0
272.98813,273.18045,56,52,0
273.24454,273.36954,51,96,0
273.24454,273.36954,39,96,0
273.49454,273.67526,70,74,0
273.49454,273.67526,61,74,0
273.49454,273.67526,63,74,0
273.49454,273.67526,67,74,0
273.7355,273.92538,70,80,0
273.7355,273.92538,63,80,0
273.7355,273.92538,61,80,0
273.7355,273.92538,67,80,0
273.98868,274.11368,51,96,0
273.98868,274.11368,39,96,0
274.23868,274.42014,60,76,0
274.23868,274.42014,69,76,0
274.23868,274.42014,66,76,0
274.23868,274.42014,63,76,0
274.48062,274.66968,60,81,0
274.48062,274.66968,69,81,0
274.48062,274.66968,66,81,0
274.48062,274.66968,63,81,0
274.73273,274.85876,51,96,0
274.73273,274.85876,39,96,0
274.9848,275.1757,68,78,0
274.9848,275.1757,59,78,0
274.9848,275.1757,63,78,0
274.9848,275.1757,65,78,0
275.24014,275.436,68,83,0
275.24014,275.436,59,83,0
275.24014,275.436,63,83,0
275.24014,275.436,65,83,0
275.50217,275.77994,51,98,0
275.50217,275.77994,39,98,0
275.77994,276.05774,55,78,0
275.77994,276.05774,67,78,0
275.77994,276.05774,63,78,0
275.77994,276.05774,58,78,0
276.05774,276.36386,55,84,0
276.05774,276.36386,67,84,0
276.05774,276.36386,63,84,0
276.05774,276.36386,58,84,0
276.36386,276.627,46,97,0
276.36386,276.627,34,97,0
276.627,276.82013,56,78,0
276.627,276.82013,65,78,0
276.627,276.82013,62,78,0
276.627,276.82013,58,78,0
276.88498,277.01657,56,84,0
276.88498,277.01657,65,84,0
276.88498,277.01657,62,84,0
276.88498,277.01657,58,84,0
277.14816,277.4079,51,85,0
277.14816,277.4079,39,85,0
277.4079,277.59937,55,71,0
277.4079,277.59937,58,71,0
277.4079,277.59937,63,71,0
277.6632,277.7948,55,66,0
277.6632,277.7948,58,66,0
277.6632,277.7948,63,66,0
277.92636,278.20673,58,67,0
277.92636,278.20673,46,67,0
278.20673,278.4041,53,53,0
278.20673,278.4041,62,53,0
278.20673,278.4041,56,53,0
278.20673,278.4041,58,53,0
278.4699,278.60504,53,56,0
278.4699,278.60504,62,56,0
278.4699,278.60504,58,56,0
278.4699,278.60504,56,56,0
278.74017,279.02185,51,63,0
278.74017,279.02185,39,63,0
279.02185,279.22366,51,42,0
279.02185,279.22366,58,42,0
279.02185,279.22366,61,42,0
279.29092,279.43045,51,49,0
279.29092,279.43045,58,49,0
279.29092,279.43045,61,49,0
279.56998,279.84027,56,62,0
279.56998,279.84027,44,62,0
279.84027,280.03506,51,47,0
279.84027,280.03506,56,47,0
279.84027,280.03506,60,47,0
280.1,280.23453,51,51,0
280.1,280.23453,56,51,0
280.1,280.23453,60,51,0
280.36905,280.63812,56,59,0
280.36905,280.63812,44,59,0
280.63812,280.83124,51,45,0
280.63812,280.83124,56,45,0
280.63812,280.83124,59,45,0
280.89563,281.02838,51,48,0
280.89563,281.02838,56,48,0
280.89563,281.02838,59,48,0
281.1611,281.4389,39,56,0
281.4389,281.638,55,45,0
281.4389,281.638,51,45,0
281.4389,281.638,46,45,0
281.70438,281.84326,55,48,0
281.70438,281.84326,51,48,0
281.70438,281.84326,46,48,0
281.98215,282.25995,39,52,0
282.25995,282.46826,55,41,0
282.25995,282.46826,51,41,0
282.25995,282.46826,46,41,0
282.53772,282.75616,55,45,0
282.53772,282.75616,51,45,0
282.53772,282.75616,46,45,0
282.82898,283.11066,39,48,0
283.11066,283.31522,46,38,0
283.11066,283.31522,50,38,0
283.11066,283.31522,56,38,0
283.3834,283.52423,56,44,0
283.3834,283.52423,50,44,0
283.3834,283.52423,46,44,0
283.66507,283.95355,39,46,0
283.95355,284.17413,55,38,0
283.95355,284.17413,51,38,0
283.95355,284.17413,46,38,0
284.24765,284.3947,46,41,0
284.24765,284.3947,51,41,0
284.24765,284.3947,55,41,0
284.54178,284.80444,39,46,0
284.80444,285.0003,46,31,0
284.80444,285.0003,53,31,0
284.80444,285.0003,56,31,0
285.06525,285.25958,56,39,0
285.06525,285.25958,53,39,0
285.06525,285.25958,46,39,0
285.32413,285.57104,39,43,0
285.57104,285.75623,55,29,0
285.57104,285.75623,51,29,0
285.57104,285.75623,46,29,0
285.81796,285.9414,46,34,0
285.81796,285.9414,51,34,0
285.81796,285.9414,55,34,0
286.06488,286.3235,39,48,0
286.3235,286.511,46,38,0
286.3235,286.511,50,38,0
286.3235,286.511,56,38,0
286.5735,286.70282,56,44,0
286.5735,286.70282,50,44,0
286.5735,286.70282,46,44,0
286.83212,287.08743,39,46,0
287.08743,287.27338,55,37,0
287.08743,287.27338,51,37,0
287.08743,287.27338,46,37,0
287.33536,287.4625,46,41,0
287.33536,287.4625,51,41,0
287.33536,287.4625,55,41,0
287.5896,287.83252,39,46,0
287.83252,288.0147,46,36,0
287.83252,288.0147,53,36,0
287.83252,288.0147,56,36,0
288.07544,288.25763,56,39,0
288.07544,288.25763,53,39,0
288.07544,288.25763,46,39,0
288.31836,288.55646,39,43,0
288.55646,288.73502,55,33,0
288.55646,288.73502,51,33,0
288.55646,288.73502,46,33,0
288.79456,288.91357,46,36,0
288.79456,288.91357,51,36,0
288.79456,288.91357,55,36,0
289.03262,289.27655,39,46,0
289.27655,289.45947,46,40,0
289.27655,289.45947,53,40,0
289.27655,289.45947,56,40,0
289.52045,289.70337,56,43,0
289.52045,289.70337,53,43,0
289.52045,289.70337,46,43,0
289.76434,290.0034,39,48,0
290.0034,290.18268,56,42,0
290.0034,290.18268,53,42,0
290.0034,290.18268,46,42,0
290.24243,290.36197,46,44,0
290.24243,290.36197,53,44,0
290.24243,290.36197,56,44,0
290.48148,290.71332,39,56,0
290.71332,290.88788,56,49,0
290.71332,290.88788,53,49,0
290.71332,290.88788,46,49,0
290.94623,291.06342,46,51,0
290.94623,291.06342,53,51,0
290.94623,291.06342,56,51,0
291.18085,291.414,39,67,0
291.414,291.5901,56,56,0
291.414,291.5901,53,56,0
291.414,291.5901,46,56,0
291.649,291.76718,46,60,0
291.649,291.76718,53,60,0
291.649,291.76718,56,60,0
291.88583,292.22842,51,67,0
291.88583,292.22842,39,67,0
292.22842,292.48666,51,61,0
292.22842,292.48666,62,61,0
292.22842,292.48666,59,61,0
292.22842,292.48666,56,61,0
292.72012,292.89322,51,63,0
292.72012,292.89322,62,63,0
292.72012,292.89322,59,63,0
292.72012,292.89322,56,63,0
292.9509,293.12332,51,58,0
292.9509,293.12332,62,58,0
292.9509,293.12332,59,58,0
292.9509,293.12332,56,58,0
293.4098,293.57898,51,63,0
293.4098,293.57898,62,63,0
293.4098,293.57898,59,63,0
293.4098,293.57898,56,63,0
293.63535,293.80453,51,60,0
293.63535,293.80453,62,60,0
293.63535,293.80453,59,60,0
293.63535,293.80453,56,60,0
294.7729,294.89148,39,67,0
294.7729,294.89148,27,67,0
296.23947,296.3937,55,33,0
296.23947,296.3937,58,33,0
296.23947,296.3937,63,33,0
296.4449,296.59784,55,33,0
296.4449,296.59784,67,33,0
296.4449,296.59784,63,33,0
296.4449,296.59784,58,33,0
296.64862,296.80038,55,36,0
296.64862,296.80038,67,36,0
296.64862,296.80038,63,36,0
296.64862,296.80038,58,36,0
296.8507,297.00116,55,33,0
296.8507,297.00116,67,33,0
296.8507,297.00116,63,33,0
296.8507,297.00116,58,33,0
297.05112,297.20032,55,33,0
297.05112,297.20032,67,33,0
297.05112,297.20032,63,33,0
297.05112,297.20032,58,33,0
297.24985,297.39786,55,33,0
297.24985,297.39786,67,33,0
297.24985,297.39786,63,33,0
297.24985,297.39786,58,33,0
297.44705,297.5939,55,30,0
297.44705,297.5939,67,30,0
297.44705,297.5939,63,30,0
297.44705,297.5939,58,30,0
297.64264,297.7884,55,30,0
297.64264,297.7884,67,30,0
297.64264,297.7884,63,30,0
297.64264,297.7884,58,30,0
297.83676,297.98148,55,33,0
297.83676,297.98148,67,33,0
297.83676,297.98148,63,33,0
297.83676,297.98148,58,33,0
298.0297,298.17438,55,29,0
298.0297,298.17438,67,29,0
298.0297,298.17438,63,29,0
298.0297,298.17438,58,29,0
298.22263,298.3673,55,29,0
298.22263,298.3673,67,29,0
298.22263,298.3673,63,29,0
298.22263,298.3673,58,29,0
298.41556,298.56024,55,33,0
298.41556,298.56024,67,33,0
298.41556,298.56024,63,33,0
298.41556,298.56024,58,33,0
298.60846,298.75317,55,31,0
298.60846,298.75317,67,31,0
298.60846,298.75317,63,31,0
298.60846,298.75317,58,31,0
298.8014,298.9461,55,31,0
298.8014,298.9461,67,31,0
298.8014,298.9461,63,31,0
298.8014,298.9461,58,31,0
298.99432,299.139,55,33,0
298.99432,299.139,67,33,0
298.99432,299.139,63,33,0
298.99432,299.139,58,33,0
299.18726,299.33194,55,30,0
299.18726,299.33194,67,30,0
299.18726,299.33194,63,30,0
299.18726,299.33194,58,30,0
299.3802,299.52487,55,30,0
299.3802,299.52487,67,30,0
299.3802,299.52487,63,30,0
299.3802,299.52487,58,30,0
299.5731,299.7606,55,33,0
299.5731,299.7606,67,33,0
299.5731,299.7606,63,33,0
299.5731,299.7606,58,33,0
300.13556,300.31787,55,29,0
300.13556,300.31787,51,29,0
300.13556,300.31787,63,29,0
300.68073,300.86127,55,31,0
300.68073,300.86127,67,31,0
300.68073,300.86127,63,31,0
300.68073,300.86127,58,31,0
301.22052,301.39926,70,33,0
301.22052,301.39926,67,33,0
301.22052,301.39926,58,33,0
301.75504,301.93204,75,36,0
301.75504,301.93204,67,36,0
301.75504,301.93204,63,36,0
302.2859,302.46863,70,35,0
302.2859,302.46863,67,35,0
302.2859,302.46863,58,35,0
302.84225,303.03333,67,33,0
302.84225,303.03333,75,33,0
302.84225,303.03333,79,33,0
303.4245,303.64,70,28,0
303.4245,303.64,79,28,0
303.4245,303.64,82,28,0
304.12692,304.37692,79,24,0
304.12692,304.37692,87,24,0
305.62692,305.76712,75,90,0
305.62692,305.76712,70,76,0
305.62692,305.76712,63,76,0
306.46805,306.62595,51,76,0
306.46805,306.62595,58,76,0
306.46805,306.62595,63,90,0
306.78384,306.94174,63,90,0
306.78384,306.94174,58,76,0
306.78384,306.94174,51,76,0
307.09964,307.3124,51,76,0
307.09964,307.3124,58,76,0
307.09964,307.3124,63,90,0
307.52515,309.1323,39,101,0
307.52515,309.1323,27,91,0
