start_time,end_time,note_value,velocity,instrument_program_number
0.0,0.27661863,60,34,0
0.2911775,0.5535362,60,35,0
0.5673445,0.82970315,60,37,0
0.8435115,1.0947679,60,38,0
1.107992,1.3557534,60,39,0
1.3687935,1.616555,60,41,0
1.629595,1.8773564,60,43,0
1.8903965,2.138083,60,45,0
2.151033,2.4023724,60,47,0
2.4158823,2.678313,60,47,0
2.6922834,2.9618127,60,45,0
2.9759984,3.248309,60,40,0
3.262641,3.5498526,61,48,0
3.5649688,3.8144655,61,42,0
3.5649688,3.8144655,67,55,0
3.827597,4.088485,61,44,0
3.827597,4.088485,72,57,0
4.102246,4.3482966,61,45,0
4.102246,4.3482966,73,59,0
4.3612466,4.620149,61,43,0
4.3612466,4.620149,65,56,0
4.6337757,4.904688,61,42,0
4.6337757,4.904688,67,55,0
5.2148046,5.460855,66,31,0
5.2148046,5.460855,60,26,0
5.473805,5.7250614,66,31,0
5.473805,5.7250614,60,26,0
4.9189467,5.7382855,70,61,0
5.7382855,5.989542,66,36,0
5.7382855,5.989542,60,30,0
6.002766,6.2709255,60,26,0
6.002766,6.2709255,66,31,0
6.285039,6.5587883,60,26,0
6.285039,6.5587883,66,31,0
5.7382855,6.867458,68,52,0
6.867458,7.120499,68,45,0
6.867458,7.120499,73,59,0
7.133817,7.3850737,68,49,0
7.133817,7.3850737,79,63,0
7.3982973,7.646059,68,52,0
7.3982973,7.646059,82,68,0
7.659099,7.9195395,68,47,0
7.659099,7.9195395,80,61,0
7.933247,8.205558,68,47,0
7.933247,8.205558,77,61,0
8.506532,8.760996,70,50,0
8.506532,8.760996,63,42,0
8.774389,9.049565,70,50,0
8.774389,9.049565,63,42,0
8.21989,9.064048,75,71,0
9.333832,9.601992,65,42,0
9.333832,9.601992,73,50,0
9.616105,9.884264,65,40,0
9.616105,9.884264,73,48,0
9.064048,10.19582,77,69,0
10.19582,10.445316,70,59,0
10.458448,10.707945,70,49,0
10.458448,10.707945,63,49,0
10.458448,10.707945,75,63,0
10.721076,10.963774,70,52,0
10.721076,10.963774,79,64,0
10.976547,11.224309,70,47,0
10.976547,11.224309,77,61,0
11.237349,11.50966,70,47,0
11.237349,11.50966,73,61,0
11.810634,12.074743,69,45,0
11.810634,12.074743,63,37,0
12.088643,12.363819,69,45,0
12.088643,12.363819,63,37,0
11.523992,12.378303,72,70,0
12.656312,12.924471,61,29,0
12.656312,12.924471,68,35,0
12.938585,13.206744,61,28,0
12.938585,13.206744,68,34,0
12.378303,13.5183,73,58,0
13.5183,13.775939,61,41,0
13.5183,13.775939,68,50,0
13.789498,14.040755,70,53,0
13.789498,14.040755,61,34,0
13.789498,14.040755,67,41,0
14.053979,14.298342,73,57,0
14.311202,14.571643,72,51,0
14.311202,14.571643,60,33,0
14.311202,14.571643,68,39,0
14.585351,14.863426,65,35,0
14.585351,14.863426,60,29,0
14.585351,14.863426,68,46,0
15.164704,15.426172,67,40,0
15.164704,15.426172,58,34,0
15.439934,15.701402,67,39,0
15.439934,15.701402,58,33,0
15.715163,15.976631,67,40,0
15.715163,15.976631,58,34,0
15.990393,16.251862,67,38,0
15.990393,16.251862,58,32,0
16.265623,16.542242,67,38,0
16.265623,16.542242,58,32,0
16.5568,16.844011,61,64,0
14.878062,16.859129,70,55,0
16.859129,17.115515,61,52,0
16.859129,17.115515,67,68,0
17.12901,17.37677,72,70,0
17.12901,17.37677,67,54,0
17.12901,17.37677,61,54,0
17.38981,17.634172,61,55,0
17.38981,17.634172,67,55,0
17.38981,17.634172,73,72,0
17.647034,17.905937,61,53,0
17.647034,17.905937,65,69,0
17.919563,18.190475,61,52,0
17.919563,18.190475,67,68,0
18.500593,18.746643,66,44,0
18.500593,18.746643,60,37,0
18.759594,19.00909,66,44,0
18.759594,19.00909,60,37,0
18.204735,19.02222,70,72,0
19.02222,19.271717,66,52,0
19.02222,19.271717,60,43,0
19.28485,19.553009,60,37,0
19.28485,19.553009,66,44,0
19.567122,19.840872,60,37,0
19.567122,19.840872,66,44,0
19.02222,20.149542,68,73,0
20.149542,20.402582,68,55,0
20.149542,20.402582,73,72,0
20.4159,20.660263,79,75,0
20.4159,20.660263,73,59,0
20.4159,20.660263,68,50,0
20.673124,20.91256,68,52,0
20.673124,20.91256,82,80,0
20.673124,20.91256,73,62,0
20.925161,21.176418,68,48,0
20.925161,21.176418,80,75,0
20.925161,21.176418,73,57,0
21.189642,21.461952,77,75,0
21.189642,21.461952,73,57,0
21.189642,21.461952,68,48,0
21.762926,22.012053,63,54,0
21.762926,22.012053,70,65,0
22.025164,22.30034,63,54,0
22.025164,22.30034,70,65,0
21.476284,22.314823,75,88,0
22.57524,22.8434,73,65,0
22.57524,22.8434,65,54,0
22.857513,23.125673,73,62,0
22.857513,23.125673,65,52,0
22.314823,23.437227,77,84,0
23.437227,23.694866,70,72,0
23.708427,23.959682,75,75,0
23.708427,23.959682,63,51,0
23.708427,23.959682,70,59,0
23.972906,24.21727,79,80,0
23.972906,24.21727,70,64,0
24.230131,24.483171,77,75,0
24.230131,24.483171,70,57,0
24.496489,24.7688,70,57,0
24.496489,24.7688,73,75,0
24.496489,24.7688,63,51,0
25.069775,25.326462,69,58,0
25.069775,25.326462,63,49,0
25.339972,25.627184,69,58,0
25.339972,25.627184,63,49,0
24.783133,25.6423,72,81,0
25.916447,26.191624,61,47,0
25.916447,26.191624,68,56,0
26.206106,26.481283,61,44,0
26.206106,26.481283,68,53,0
25.6423,26.806581,73,81,0
26.806581,27.074741,61,64,0
27.088856,27.361166,68,68,0
27.088856,27.361166,61,45,0
27.375498,27.647808,72,57,0
27.66214,27.941689,61,35,0
27.66214,27.941689,67,43,0
27.66214,28.107567,70,57,0
27.956402,28.261236,67,34,0
27.956402,28.261236,61,28,0
28.107567,28.27831,68,51,0
28.571024,28.839182,60,39,0
28.853296,29.121456,60,38,0
29.135569,29.403728,60,39,0
29.417843,29.69446,60,37,0
29.709019,29.994648,60,37,0
28.27831,30.009682,68,56,0
30.30086,30.570387,62,34,0
30.30086,30.570387,56,26,0
30.584574,30.854103,62,34,0
30.584574,30.854103,56,26,0
30.009682,30.868288,68,52,0
30.868288,31.126839,62,34,0
30.868288,31.126839,56,26,0
30.868288,31.126839,68,51,0
31.140446,31.417065,66,49,0
31.140446,31.417065,56,26,0
31.140446,31.417065,62,34,0
31.431623,31.708242,62,28,0
31.431623,31.708242,64,49,0
31.431623,31.708242,56,22,0
32.01096,32.276424,69,48,0
32.01096,32.276424,61,40,0
32.290257,32.5508,69,50,0
32.290257,32.5508,61,42,0
32.564426,32.817467,69,53,0
32.564426,32.817467,61,44,0
32.830784,33.09894,69,56,0
32.830784,33.09894,61,47,0
33.113056,33.381218,69,59,0
33.113056,33.381218,61,49,0
31.722801,33.39533,73,62,0
33.679047,33.940514,61,39,0
33.679047,33.940514,68,51,0
33.954273,34.215744,68,42,0
33.954273,34.215744,72,67,0
33.954273,34.215744,60,33,0
33.39533,34.229504,73,79,0
34.229504,34.484356,68,48,0
34.229504,34.484356,72,70,0
34.229504,34.484356,60,39,0
34.49777,34.765926,60,49,0
34.49777,34.765926,70,69,0
34.78004,35.048203,60,39,0
34.78004,35.048203,68,70,0
35.34603,35.600494,73,52,0
35.34603,35.600494,64,44,0
35.613888,35.864765,73,54,0
35.613888,35.864765,64,45,0
35.87797,36.132824,73,58,0
35.87797,36.132824,64,47,0
36.146236,36.414394,73,61,0
36.146236,36.414394,64,52,0
36.42851,36.696667,72,64,0
36.42851,36.696667,64,54,0
35.062313,36.71078,76,72,0
36.994495,37.255966,64,40,0
36.994495,37.255966,71,53,0
37.269726,37.531193,75,75,0
37.269726,37.531193,71,53,0
36.71078,37.544956,76,82,0
37.544956,37.797997,71,53,0
37.544956,37.797997,75,80,0
37.811314,38.079475,71,53,0
37.811314,38.079475,73,77,0
38.093586,38.361748,71,77,0
38.659576,38.921043,68,42,0
38.659576,38.921043,74,56,0
38.375862,38.934807,80,84,0
38.934807,39.189655,68,46,0
38.934807,39.189655,80,73,0
38.934807,39.189655,74,57,0
39.20307,39.456112,80,77,0
39.46943,39.737587,79,70,0
39.46943,39.737587,67,45,0
39.46943,39.737587,75,46,0
39.7517,40.02688,75,68,0
39.7517,40.02688,67,47,0
40.325077,40.586544,66,30,0
40.325077,40.586544,72,39,0
40.04136,40.600304,78,61,0
40.600304,40.861774,78,55,0
40.600304,40.861774,66,36,0
40.600304,40.861774,72,45,0
40.875534,41.128574,78,59,0
41.141895,41.410053,77,54,0
41.141895,41.410053,65,36,0
41.141895,41.410053,73,36,0
41.424168,41.702244,73,52,0
41.424168,41.702244,65,36,0
41.716877,41.990627,76,58,0
42.005035,42.273193,70,35,0
42.005035,42.273193,75,53,0
42.005035,42.273193,63,28,0
42.287308,42.560566,70,44,0
42.287308,42.560566,76,53,0
42.287308,42.560566,64,35,0
42.852985,43.12673,76,36,0
42.852985,43.12673,68,36,0
42.574974,43.14114,80,56,0
43.14114,43.41489,66,36,0
43.14114,43.41489,71,44,0
43.14114,43.41489,78,52,0
43.713013,43.97448,71,35,0
43.713013,43.97448,64,29,0
43.988243,44.24588,71,36,0
43.988243,44.24588,64,30,0
44.25944,44.518345,71,37,0
44.25944,44.518345,64,31,0
44.53197,44.80013,71,39,0
44.53197,44.80013,64,32,0
44.814243,45.0824,71,40,0
44.814243,45.0824,64,33,0
43.4293,45.38023,76,55,0
45.38023,45.6417,64,46,0
45.38023,45.6417,72,46,0
45.38023,45.6417,76,60,0
45.65546,45.910313,72,44,0
45.65546,45.910313,75,57,0
45.65546,45.910313,63,44,0
45.923725,46.171486,72,50,0
45.923725,46.171486,78,64,0
45.923725,46.171486,66,50,0
46.18453,46.452686,76,58,0
46.18453,46.452686,72,45,0
46.18453,46.452686,64,45,0
46.4668,46.73496,72,59,0
46.4668,46.73496,64,45,0
47.032787,47.294254,64,33,0
47.032787,47.294254,71,39,0
47.308018,47.561058,64,34,0
47.308018,47.561058,71,40,0
47.574375,47.820427,64,35,0
47.574375,47.820427,71,42,0
47.833378,48.101536,64,36,0
47.833378,48.101536,71,44,0
48.11565,48.38381,64,37,0
48.11565,48.38381,71,45,0
46.749073,48.681637,76,62,0
48.681637,48.943108,76,60,0
48.681637,48.943108,72,46,0
48.681637,48.943108,64,46,0
48.956867,49.218334,63,44,0
48.956867,49.218334,75,57,0
48.956867,49.218334,72,44,0
49.232098,49.481594,78,64,0
49.232098,49.481594,66,50,0
49.232098,49.481594,72,50,0
49.494724,49.762886,64,45,0
49.494724,49.762886,76,58,0
49.494724,49.762886,72,45,0
49.776997,50.04516,64,45,0
49.776997,50.04516,72,59,0
50.342987,50.604454,71,39,0
50.342987,50.604454,64,33,0
50.618214,50.875854,71,40,0
50.618214,50.875854,64,34,0
50.889416,51.148315,71,42,0
50.889416,51.148315,64,35,0
51.16194,51.430103,71,44,0
51.16194,51.430103,64,36,0
51.444218,51.712376,71,45,0
51.444218,51.712376,64,37,0
51.72649,51.996017,71,42,0
51.72649,51.996017,64,35,0
52.010204,52.27167,71,39,0
52.010204,52.27167,64,33,0
52.285435,52.54307,71,41,0
52.285435,52.54307,64,35,0
50.059273,52.556633,76,62,0
52.556633,52.815533,63,40,0
52.556633,52.815533,71,49,0
52.829163,53.09732,63,43,0
52.829163,53.09732,71,51,0
52.556633,53.111435,75,64,0
53.111435,53.379593,71,54,0
53.111435,53.379593,75,67,0
53.111435,53.379593,63,45,0
53.393707,53.663235,63,42,0
53.393707,53.663235,71,51,0
53.67742,53.93889,63,40,0
53.67742,53.93889,71,48,0
53.952652,54.21029,63,42,0
53.952652,54.21029,71,50,0
54.22385,54.482754,63,44,0
54.22385,54.482754,71,53,0
54.49638,54.764538,63,47,0
54.49638,54.764538,71,56,0
54.778652,55.04681,63,49,0
54.778652,55.04681,71,59,0
53.393707,55.060925,75,71,0
55.060925,55.330456,71,56,0
55.060925,55.330456,62,39,0
55.34464,55.60611,62,51,0
55.34464,55.60611,68,60,0
55.34464,55.60611,71,60,0
55.61987,55.877506,71,63,0
55.61987,55.877506,68,63,0
55.61987,55.877506,62,53,0
55.891068,56.14997,62,56,0
55.891068,56.14997,71,67,0
55.891068,56.14997,68,67,0
56.163597,56.431755,71,69,0
56.163597,56.431755,68,69,0
56.163597,56.431755,62,59,0
56.44587,56.714027,62,61,0
56.44587,56.714027,68,73,0
56.44587,56.714027,71,73,0
55.060925,56.72814,74,78,0
56.72814,57.015354,61,74,0
56.72814,57.015354,67,81,0
57.03047,57.286858,61,59,0
57.03047,57.286858,67,78,0
57.300354,57.54985,61,62,0
57.300354,57.54985,72,80,0
57.300354,57.54985,67,62,0
57.56298,57.80568,73,82,0
57.56298,57.80568,67,63,0
57.56298,57.80568,61,63,0
57.81845,58.077354,65,79,0
57.81845,58.077354,61,60,0
58.09098,58.361893,67,78,0
58.09098,58.361893,61,59,0
58.67201,58.927135,60,42,0
58.67201,58.927135,66,50,0
58.940563,59.19182,60,42,0
58.940563,59.19182,66,50,0
58.376152,59.205044,70,86,0
59.205044,59.45454,60,49,0
59.205044,59.45454,66,59,0
59.46767,59.73583,66,50,0
59.46767,59.73583,60,42,0
59.749943,60.023693,66,50,0
59.749943,60.023693,60,42,0
59.205044,60.332363,68,84,0
60.332363,60.59,73,82,0
60.332363,60.59,68,63,0
60.60356,60.851322,68,57,0
60.60356,60.851322,79,86,0
60.60356,60.851322,73,67,0
60.864365,61.10706,82,91,0
60.864365,61.10706,73,71,0
60.864365,61.10706,68,59,0
61.119835,61.372875,68,55,0
61.119835,61.372875,73,65,0
61.119835,61.372875,80,86,0
61.386192,61.658504,77,86,0
61.386192,61.658504,73,65,0
61.386192,61.658504,68,55,0
61.95948,62.223587,63,62,0
61.95948,62.223587,70,74,0
62.237488,62.512665,63,62,0
62.237488,62.512665,70,74,0
61.672836,62.527145,75,101,0
62.805157,63.073315,73,74,0
62.805157,63.073315,65,62,0
63.08743,63.355587,73,71,0
63.08743,63.355587,65,59,0
62.527145,63.667145,77,96,0
63.667145,63.92478,70,82,0
63.938343,64.19138,75,86,0
63.938343,64.19138,63,58,0
63.938343,64.19138,70,67,0
64.204704,64.4542,79,89,0
64.204704,64.4542,70,69,0
64.46733,64.72218,77,86,0
64.46733,64.72218,70,65,0
64.735596,65.007904,70,65,0
64.735596,65.007904,63,38,0
64.735596,65.007904,73,86,0
65.31495,65.58586,69,66,0
65.31495,65.58586,63,56,0
65.60012,65.8753,69,66,0
65.60012,65.8753,63,56,0
65.02224,65.88978,72,96,0
66.17349,66.44867,61,54,0
66.17349,66.44867,68,64,0
66.46315,66.73833,61,50,0
66.46315,66.73833,68,61,0
65.88978,67.07713,73,95,0
67.07713,67.346664,61,54,0
67.07713,67.346664,68,66,0
67.36085,67.63892,70,69,0
67.36085,67.63892,67,45,0
67.36085,67.63892,61,45,0
67.653564,67.93164,68,54,0
67.653564,67.93164,73,69,0
67.653564,67.93164,61,54,0
67.94627,68.220024,72,69,0
67.94627,68.220024,60,43,0
67.94627,68.220024,68,52,0
68.23443,68.53549,60,37,0
68.23443,68.53549,68,61,0
68.23443,68.53549,65,46,0
68.84632,69.11448,67,43,0
68.84632,69.11448,58,37,0
69.12859,69.39675,67,42,0
69.12859,69.39675,58,36,0
69.410866,69.67902,67,43,0
69.410866,69.67902,58,37,0
69.69314,69.96763,67,39,0
69.69314,69.96763,58,33,0
69.98207,70.281975,67,37,0
69.98207,70.281975,58,31,0
68.552055,70.29776,70,70,0
70.58592,70.8527,59,26,0
70.58592,70.8527,66,34,0
70.29776,71.01006,71,52,0
71.01006,71.08172,71,34,0
70.86674,71.13441,59,26,0
70.86674,71.13441,66,34,0
71.08172,71.14758,73,34,0
71.14758,71.40613,71,51,0
71.14758,71.40613,59,26,0
71.14758,71.40613,66,34,0
71.41974,71.69349,66,34,0
71.41974,71.69349,58,26,0
71.41974,71.69349,70,49,0
71.70789,71.98164,71,49,0
71.70789,71.98164,59,22,0
71.70789,71.98164,66,28,0
72.28723,72.55539,61,28,0
72.28723,72.55539,68,33,0
72.5695,72.8323,61,28,0
72.5695,72.8323,68,34,0
71.996056,72.84613,73,52,0
72.84613,73.11291,68,32,0
72.84613,73.11291,59,27,0
73.126945,73.39511,68,37,0
72.84613,73.40922,71,51,0
73.40922,73.67738,68,38,0
73.6915,73.96102,71,56,0
73.97521,74.23668,66,36,0
73.97521,74.23668,71,47,0
74.250435,74.50169,66,47,0
74.250435,74.50169,71,47,0
74.250435,74.50169,73,60,0
74.514915,74.76441,71,47,0
74.514915,74.76441,75,63,0
74.514915,74.76441,66,36,0
74.77755,75.04571,71,47,0
74.77755,75.04571,76,67,0
74.77755,75.04571,66,47,0
75.05982,75.33063,66,38,0
75.05982,75.33063,78,67,0
75.05982,75.33063,71,47,0
75.62875,75.89022,76,48,0
75.62875,75.89022,68,40,0
75.90398,76.15347,76,49,0
75.90398,76.15347,68,41,0
76.16661,76.42551,76,51,0
76.16661,76.42551,68,42,0
76.43914,76.7073,68,45,0
76.43914,76.7073,71,45,0
76.43914,76.7073,76,53,0
76.72141,76.98957,76,55,0
76.72141,76.98957,71,45,0
76.72141,76.98957,68,46,0
75.34503,77.2874,80,72,0
77.2874,77.54887,61,31,0
77.56263,77.701866,73,40,0
77.70303,77.77324,73,40,0
77.56263,77.82593,68,31,0
77.56263,77.82593,61,31,0
77.77324,77.8391,75,40,0
77.8391,78.0886,68,40,0
77.8391,78.0886,61,31,0
77.8391,78.0886,73,61,0
78.10173,78.36989,72,56,0
78.10173,78.36989,60,31,0
78.10173,78.36989,68,38,0
78.384,78.65216,68,33,0
78.384,78.65216,73,58,0
78.384,78.65216,61,27,0
78.94999,79.21146,70,39,0
78.94999,79.21146,61,33,0
79.22522,79.47472,70,40,0
79.22522,79.47472,61,34,0
78.666275,79.48785,75,62,0
79.48785,79.74675,61,32,0
79.48785,79.74675,70,38,0
79.760376,80.028534,61,32,0
79.760376,80.028534,70,44,0
80.04265,80.31081,61,32,0
80.04265,80.31081,70,45,0
79.48785,80.32492,73,60,0
80.32492,80.59445,73,56,0
80.608635,80.8701,71,36,0
80.608635,80.8701,73,47,0
80.608635,80.8701,65,36,0
80.883865,81.135124,65,47,0
80.883865,81.135124,71,47,0
80.883865,81.135124,75,60,0
81.148346,81.39271,71,47,0
81.148346,81.39271,65,36,0
81.148346,81.39271,77,63,0
81.40557,81.67373,66,47,0
81.40557,81.67373,78,67,0
81.40557,81.67373,71,47,0
81.40557,81.67373,73,47,0
81.68784,81.95865,68,38,0
81.68784,81.95865,80,67,0
81.68784,81.95865,71,47,0
81.68784,81.95865,73,47,0
82.256775,82.51824,78,59,0
82.256775,82.51824,70,50,0
82.532005,82.78869,78,55,0
82.532005,82.78869,70,46,0
82.8022,83.061104,70,52,0
82.8022,83.061104,73,52,0
82.8022,83.061104,78,62,0
83.07473,83.34289,78,66,0
83.07473,83.34289,73,56,0
83.07473,83.34289,70,56,0
83.357,83.62931,70,59,0
83.357,83.62931,78,70,0
83.357,83.62931,73,59,0
81.97306,83.64365,82,72,0
83.93029,84.19176,71,48,0
83.93029,84.19176,78,58,0
83.93029,84.19176,69,48,0
84.20551,84.46699,78,58,0
84.20551,84.46699,69,48,0
84.20551,84.46699,71,48,0
83.64365,84.48074,83,78,0
84.763016,85.02449,68,48,0
84.763016,85.02449,76,57,0
85.038246,85.312,68,48,0
85.038246,85.312,76,57,0
84.48074,85.32641,80,74,0
85.60303,85.8645,77,55,0
85.60303,85.8645,68,44,0
85.87826,86.139725,77,55,0
85.87826,86.139725,68,44,0
85.32641,86.15349,82,74,0
86.43576,86.69723,67,43,0
86.43576,86.69723,75,52,0
86.71099,86.98617,67,43,0
86.71099,86.98617,75,52,0
86.15349,87.00065,79,70,0
87.277275,87.53874,76,51,0
87.277275,87.53874,67,42,0
87.552505,87.81397,76,51,0
87.552505,87.81397,67,42,0
87.00065,87.827736,81,66,0
88.11001,88.371475,66,40,0
88.11001,88.371475,74,48,0
88.38524,88.646706,66,40,0
88.38524,88.646706,73,48,0
88.66047,88.916855,66,47,0
88.66047,88.916855,72,56,0
88.93035,89.19047,72,58,0
88.93035,89.19047,66,49,0
88.93035,89.19047,69,49,0
89.20422,89.46827,69,51,0
89.20422,89.46827,73,60,0
89.20422,89.46827,66,51,0
89.48224,89.75032,74,62,0
89.48224,89.75032,66,52,0
89.48224,89.75032,69,52,0
89.76451,90.03681,69,54,0
89.76451,90.03681,66,54,0
89.76451,90.03681,74,64,0
90.05129,90.32647,75,66,0
90.05129,90.32647,66,56,0
90.05129,90.32647,69,56,0
87.827736,90.34095,78,63,0
90.624664,90.88613,75,51,0
90.624664,90.88613,67,39,0
90.899895,91.16136,75,55,0
90.899895,91.16136,67,45,0
91.175125,91.43403,73,48,0
91.175125,91.43403,67,48,0
90.34095,91.447655,79,77,0
91.447655,91.71581,67,48,0
91.447655,91.71581,80,66,0
91.447655,91.71581,73,56,0
91.72993,92.005104,76,64,0
91.72993,92.005104,67,49,0
91.72993,92.005104,73,49,0
92.019585,92.159775,79,69,0
92.159775,92.22351,77,54,0
92.22351,92.28725,79,49,0
92.28725,92.54871,74,51,0
92.28725,92.54871,77,62,0
92.28725,92.54871,68,53,0
92.56248,92.823944,74,44,0
92.56248,92.823944,76,64,0
92.56248,92.823944,68,35,0
92.83771,93.09661,77,64,0
92.83771,93.09661,68,57,0
92.83771,93.09661,74,55,0
93.11024,93.378395,74,51,0
93.11024,93.378395,79,60,0
93.11024,93.378395,68,51,0
93.39251,93.66067,68,51,0
93.39251,93.66067,74,63,0
93.958496,94.21996,70,41,0
93.958496,94.21996,63,35,0
94.23373,94.484985,70,42,0
94.23373,94.484985,63,36,0
94.49821,94.75306,70,44,0
94.49821,94.75306,63,37,0
94.76647,95.03463,70,46,0
94.76647,95.03463,63,38,0
95.048744,95.3169,70,47,0
95.048744,95.3169,63,39,0
95.33102,95.60055,71,48,0
95.33102,95.60055,63,45,0
93.67478,95.61473,75,62,0
95.61473,95.8762,63,46,0
95.61473,95.8762,71,46,0
95.61473,95.8762,75,60,0
95.88996,96.14481,71,44,0
95.88996,96.14481,74,57,0
95.88996,96.14481,62,44,0
96.158226,96.40772,71,48,0
96.158226,96.40772,77,62,0
96.158226,96.40772,65,48,0
96.42085,96.68901,75,58,0
96.42085,96.68901,71,45,0
96.42085,96.68901,63,45,0
96.703125,96.97128,71,59,0
96.703125,96.97128,63,45,0
97.26911,97.53059,63,35,0
97.26911,97.53059,70,41,0
97.54434,97.79384,63,36,0
97.54434,97.79384,70,42,0
97.80697,98.06587,63,37,0
97.80697,98.06587,70,44,0
98.0795,98.347664,63,38,0
98.0795,98.347664,70,46,0
98.36177,98.62994,63,39,0
98.36177,98.62994,70,47,0
98.64405,98.913574,63,45,0
98.64405,98.913574,71,48,0
96.9854,98.927765,75,62,0
98.927765,99.18923,75,51,0
98.927765,99.18923,71,39,0
98.927765,99.18923,63,39,0
99.202995,99.45425,62,37,0
99.202995,99.45425,71,37,0
99.202995,99.45425,74,48,0
99.467476,99.71873,77,52,0
99.467476,99.71873,65,40,0
99.467476,99.71873,71,40,0
99.73196,100.000114,63,38,0
99.73196,100.000114,71,38,0
99.73196,100.000114,75,49,0
100.01423,100.28239,63,38,0
100.01423,100.28239,71,50,0
100.580215,100.84168,70,28,0
100.580215,100.84168,63,23,0
100.855446,101.11308,70,29,0
100.855446,101.11308,63,24,0
101.12664,101.385544,70,30,0
101.12664,101.385544,63,25,0
101.39917,101.66316,70,31,0
101.39917,101.66316,63,26,0
101.677246,101.94207,70,33,0
101.677246,101.94207,63,28,0
101.956024,102.21767,70,34,0
101.956024,102.21767,63,28,0
102.23124,102.48799,70,34,0
102.23124,102.48799,63,28,0
102.50151,102.75372,70,37,0
102.50151,102.75372,63,31,0
102.767,103.025894,70,39,0
102.767,103.025894,63,32,0
103.03952,103.30271,70,39,0
103.03952,103.30271,63,34,0
103.316795,103.58164,70,42,0
103.316795,103.58164,63,35,0
100.2965,103.595726,75,47,0
103.595726,103.862,70,43,0
103.595726,103.862,63,35,0
103.875885,104.137634,70,42,0
103.875885,104.137634,63,35,0
104.15134,104.40856,70,41,0
104.15134,104.40856,63,34,0
104.42202,104.67927,70,39,0
104.42202,104.67927,63,33,0
104.6929,104.95446,70,39,0
104.6929,104.95446,63,32,0
104.96835,105.23421,70,36,0
104.96835,105.23421,63,30,0
105.2483,105.51782,70,35,0
105.2483,105.51782,63,29,0
105.53201,105.79348,70,34,0
105.53201,105.79348,63,28,0
105.80724,106.07063,70,33,0
105.80724,106.07063,63,28,0
106.08468,106.355255,70,32,0
106.08468,106.355255,63,26,0
106.36975,106.65308,70,29,0
106.36975,106.65308,63,24,0
106.66831,107.35602,70,28,0
106.66831,107.35602,63,23,0
107.35602,107.612404,63,28,0
107.35602,107.612404,70,39,0
107.6259,107.87366,63,29,0
107.6259,107.87366,72,39,0
107.886696,108.131065,73,41,0
107.886696,108.131065,63,30,0
108.14392,108.402824,65,39,0
108.14392,108.402824,61,28,0
108.41645,108.68736,67,39,0
108.41645,108.68736,61,28,0
108.70162,108.98269,60,19,0
108.99748,109.25261,60,19,0
109.26604,109.523674,60,19,0
108.70162,109.53723,70,42,0
109.53723,109.79487,60,22,0
109.80843,110.07659,60,19,0
110.090706,110.38036,60,19,0
109.53723,110.396545,68,40,0
110.71634,110.96967,73,41,0
110.71634,110.96967,68,30,0
110.983,111.23426,68,33,0
110.983,111.23426,79,44,0
110.983,111.23426,73,33,0
111.24748,111.49354,82,47,0
111.24748,111.49354,73,34,0
111.24748,111.49354,68,34,0
111.506485,111.75953,68,31,0
111.506485,111.75953,73,31,0
111.506485,111.75953,80,42,0
111.77284,112.04515,77,42,0
111.77284,112.04515,73,31,0
111.77284,112.04515,68,31,0
112.05949,112.3389,70,37,0
112.05949,112.3389,63,31,0
112.35361,112.62375,63,31,0
112.35361,112.62375,70,37,0
112.63796,112.92014,63,31,0
112.63796,112.92014,70,37,0
112.05949,112.93499,75,49,0
112.93499,113.20514,65,31,0
112.93499,113.20514,73,37,0
113.21935,113.49471,73,37,0
113.21935,113.49471,65,31,0
113.50921,113.79972,73,36,0
113.50921,113.79972,65,30,0
112.93499,113.815895,77,48,0
114.13942,114.39706,70,41,0
114.13942,114.39706,63,33,0
114.410614,114.66547,70,33,0
114.410614,114.66547,75,44,0
114.67888,114.92664,70,34,0
114.67888,114.92664,79,47,0
114.93968,115.19272,70,31,0
114.93968,115.19272,77,42,0
115.20604,115.47835,70,31,0
115.20604,115.47835,73,42,0
115.49268,115.77073,63,28,0
115.49268,115.77073,68,34,0
115.78536,116.055504,68,34,0
115.78536,116.055504,63,28,0
116.069725,116.357605,68,34,0
116.069725,116.357605,63,28,0
115.49268,116.37276,72,49,0
116.37276,116.6508,68,34,0
116.37276,116.6508,61,28,0
116.665436,116.95187,61,28,0
116.665436,116.95187,68,34,0
116.96695,117.26589,61,27,0
116.96695,117.26589,68,32,0
116.37276,117.28236,73,48,0
117.613625,117.87126,61,34,0
117.88483,118.14337,70,44,0
117.88483,118.14337,61,27,0
118.15698,118.40475,68,31,0
118.15698,118.40475,60,26,0
118.15698,118.40475,73,47,0
118.417786,118.67447,72,42,0
118.417786,118.67447,60,26,0
118.417786,118.67447,68,31,0
118.68798,118.96606,65,28,0
118.68798,118.96606,68,39,0
118.68798,118.96606,60,23,0
118.98069,119.253006,58,27,0
118.98069,119.253006,67,32,0
119.267334,119.5288,67,32,0
119.267334,119.5288,58,27,0
119.542564,119.803764,67,30,0
119.542564,119.803764,58,26,0
119.81759,120.08199,67,32,0
119.81759,120.08199,58,27,0
120.096016,120.36416,67,30,0
120.096016,120.36416,58,25,0
120.37837,120.68254,67,30,0
120.37837,120.68254,58,25,0
118.98069,120.700165,70,45,0
121.04811,121.3045,61,28,0
121.04811,121.3045,67,38,0
121.04811,121.3045,70,39,0
121.31799,121.57888,72,41,0
121.31799,121.57888,67,30,0
121.31799,121.57888,61,30,0
121.59264,121.84214,61,31,0
121.59264,121.84214,67,31,0
121.59264,121.84214,73,42,0
121.85527,122.114174,61,29,0
121.85527,122.114174,65,40,0
122.1278,122.39871,61,28,0
122.1278,122.39871,67,39,0
122.41297,122.69403,61,20,0
122.41297,122.69403,66,24,0
122.708824,122.96395,66,24,0
122.708824,122.96395,61,20,0
122.97738,123.235016,66,24,0
122.97738,123.235016,61,20,0
122.41297,123.24858,70,42,0
123.24858,123.50622,66,28,0
123.24858,123.50622,60,23,0
123.519775,123.78793,60,20,0
123.519775,123.78793,66,24,0
123.80205,124.097015,60,20,0
123.80205,124.097015,66,24,0
123.24858,124.113785,68,43,0
124.447044,124.70468,68,31,0
124.447044,124.70468,73,42,0
124.71824,124.979706,79,45,0
124.71824,124.979706,73,33,0
124.71824,124.979706,68,28,0
124.99347,125.23952,82,47,0
124.99347,125.23952,68,28,0
124.99347,125.23952,73,34,0
125.25247,125.509155,73,32,0
125.25247,125.509155,80,45,0
125.25247,125.509155,68,27,0
125.52267,125.794975,77,45,0
125.52267,125.794975,73,32,0
125.52267,125.794975,68,27,0
125.80931,126.090096,70,37,0
125.80931,126.090096,63,30,0
126.10487,126.36877,63,30,0
126.10487,126.36877,70,37,0
126.38265,126.672,63,30,0
126.38265,126.672,70,37,0
125.80931,126.687225,75,51,0
126.687225,126.95711,65,30,0
126.687225,126.95711,73,37,0
126.97131,127.2521,73,37,0
126.97131,127.2521,65,30,0
127.26688,127.56463,73,34,0
127.26688,127.56463,65,28,0
126.687225,127.58129,77,49,0
127.936325,128.19395,70,42,0
127.936325,128.19395,63,28,0
128.20752,128.45877,70,33,0
128.20752,128.45877,75,45,0
128.20752,128.45877,63,28,0
128.472,128.71637,70,36,0
128.472,128.71637,79,48,0
128.72922,128.98592,70,32,0
128.72922,128.98592,77,45,0
128.99942,129.2683,70,32,0
128.99942,129.2683,73,45,0
129.28244,129.56323,63,28,0
129.28244,129.56323,68,33,0
129.578,129.84944,68,33,0
129.578,129.84944,63,28,0
129.86372,130.16216,68,33,0
129.86372,130.16216,63,28,0
129.28244,130.17786,72,47,0
130.17786,130.46286,68,33,0
130.17786,130.46286,61,28,0
130.47786,130.77167,61,26,0
130.47786,130.77167,68,31,0
130.78714,131.08736,61,22,0
130.78714,131.08736,68,27,0
130.17786,131.10353,73,47,0
131.4464,131.70906,61,38,0
131.72289,131.98524,68,39,0
131.72289,131.98524,61,25,0
131.99905,132.25574,72,39,0
131.99905,132.25574,61,23,0
132.26926,132.53741,70,39,0
132.26926,132.53741,61,23,0
132.55153,132.84262,61,20,0
132.55153,132.84262,68,35,0
132.8587,133.13101,60,30,0
133.14536,133.4117,60,30,0
133.42572,133.69208,60,30,0
133.7061,133.97246,60,30,0
133.98647,134.25462,60,29,0
134.26874,134.55437,60,29,0
134.56941,134.87321,61,36,0
134.8892,135.15309,61,38,0
132.8587,135.16698,72,46,0
135.16698,135.43585,61,25,0
135.16698,135.43585,68,39,0
135.45,135.71887,61,23,0
135.45,135.71887,72,39,0
135.73302,136.00705,61,23,0
135.73302,136.00705,70,39,0
136.02148,136.29956,68,35,0
136.02148,136.29956,61,20,0
136.3142,136.5865,60,30,0
136.60083,136.86595,60,30,0
136.8799,137.14502,60,30,0
137.15897,137.42784,61,24,0
136.3142,137.44199,72,46,0
137.44199,137.71603,70,39,0
137.44199,137.71603,61,23,0
137.73045,138.00853,61,20,0
137.73045,138.00853,68,35,0
138.02316,138.29547,60,30,0
138.3098,138.57492,60,30,0
138.58888,138.85399,60,30,0
138.86795,139.13681,60,23,0
138.02316,139.15097,72,46,0
139.15097,139.42633,60,23,0
139.15097,139.42633,70,39,0
139.44083,139.73192,68,35,0
139.44083,139.73192,60,20,0
140.07536,140.34172,60,30,0
140.35574,140.6221,60,30,0
140.63611,140.90625,60,23,0
140.92047,141.19583,58,23,0
141.21033,141.4884,65,20,0
139.748,141.50304,68,45,0
141.50304,141.77534,60,30,0
141.78969,142.0548,60,30,0
142.06876,142.33388,60,30,0
142.34782,142.6167,60,23,0
142.63084,142.9062,58,23,0
142.9207,143.21179,65,20,0
141.50304,143.22787,68,45,0
143.22787,143.83798,68,45,0
143.22787,143.83798,60,30,0
143.83798,144.11203,58,30,0
144.12645,144.68504,68,45,0
144.12645,144.68504,60,23,0
144.68504,144.96312,58,20,0
144.97775,145.57217,68,45,0
144.97775,145.57217,60,30,0
145.57217,145.85773,58,30,0
145.87302,146.50813,68,45,0
145.87302,146.50813,60,23,0
146.50813,146.87344,58,20,0
147.3147,147.62932,60,30,0
147.64589,147.95956,60,30,0
147.97604,148.29262,60,23,0
148.30911,148.62585,60,23,0
148.64207,148.95653,60,20,0
148.973,149.29262,60,23,0
149.3097,149.63878,60,30,0
149.6564,149.99527,60,30,0
150.01335,150.3325,60,23,0
150.3325,150.43889,63,23,0
150.43889,151.04527,61,23,0
151.07718,151.91542,60,20,0
151.95953,156.45953,60,17,0
0.0,0.27661863,63,28,0
0.0,0.27661863,56,23,0
0.0,0.27661863,51,17,0
0.2911775,0.5535362,63,29,0
0.2911775,0.5535362,56,24,0
0.2911775,0.5535362,51,17,0
0.5673445,0.82970315,63,30,0
0.5673445,0.82970315,56,25,0
0.5673445,0.82970315,51,18,0
0.8435115,1.0947679,63,30,0
0.8435115,1.0947679,56,25,0
0.8435115,1.0947679,51,18,0
1.107992,1.3557534,63,33,0
1.107992,1.3557534,56,27,0
1.107992,1.3557534,51,20,0
1.3687935,1.616555,63,34,0
1.3687935,1.616555,56,28,0
1.3687935,1.616555,51,21,0
1.629595,1.8773564,63,35,0
1.629595,1.8773564,56,29,0
1.629595,1.8773564,51,22,0
1.8903965,2.138083,63,38,0
1.8903965,2.138083,56,31,0
1.8903965,2.138083,51,22,0
2.151033,2.4023724,63,39,0
2.151033,2.4023724,56,33,0
2.151033,2.4023724,51,24,0
2.4158823,2.678313,63,39,0
2.4158823,2.678313,56,33,0
2.4158823,2.678313,51,24,0
2.6922834,2.9618127,63,37,0
2.6922834,2.9618127,56,31,0
2.6922834,2.9618127,51,22,0
2.9759984,3.248309,63,34,0
2.9759984,3.248309,56,28,0
2.9759984,3.248309,51,21,0
3.262641,3.5498526,39,46,0
3.5649688,3.8144655,63,32,0
3.5649688,3.8144655,58,32,0
3.5649688,3.8144655,51,24,0
3.827597,4.088485,63,34,0
3.827597,4.088485,58,34,0
3.827597,4.088485,51,25,0
4.102246,4.3482966,63,36,0
4.102246,4.3482966,58,36,0
4.102246,4.3482966,51,27,0
4.3612466,4.620149,63,34,0
4.3612466,4.620149,58,34,0
4.3612466,4.620149,51,25,0
4.6337757,4.904688,63,34,0
4.6337757,4.904688,58,34,0
4.6337757,4.904688,51,25,0
4.9189467,5.2000117,44,47,0
5.2148046,5.460855,63,30,0
5.2148046,5.460855,56,22,0
5.473805,5.7250614,63,29,0
5.473805,5.7250614,56,21,0
5.7382855,5.989542,63,34,0
5.7382855,5.989542,56,25,0
6.002766,6.2709255,63,30,0
6.002766,6.2709255,56,22,0
6.285039,6.5587883,63,30,0
6.285039,6.5587883,56,22,0
6.573196,6.852745,49,47,0
6.867458,7.120499,65,34,0
6.867458,7.120499,61,28,0
6.867458,7.120499,56,21,0
7.133817,7.3850737,65,34,0
7.133817,7.3850737,61,28,0
7.133817,7.3850737,56,21,0
7.3982973,7.646059,65,36,0
7.3982973,7.646059,61,30,0
7.3982973,7.646059,56,22,0
7.659099,7.9195395,65,34,0
7.659099,7.9195395,61,28,0
7.659099,7.9195395,56,21,0
7.933247,8.205558,65,34,0
7.933247,8.205558,61,28,0
7.933247,8.205558,56,21,0
8.21989,8.4922,51,47,0
8.506532,8.760996,67,29,0
8.506532,8.760996,61,24,0
8.506532,8.760996,58,18,0
8.774389,9.049565,67,30,0
8.774389,9.049565,61,25,0
8.774389,9.049565,58,18,0
9.064048,9.320343,49,47,0
9.333832,9.601992,68,27,0
9.333832,9.601992,61,22,0
9.333832,9.601992,56,16,0
9.616105,9.884264,68,27,0
9.616105,9.884264,61,22,0
9.616105,9.884264,56,16,0
9.898378,10.180948,51,47,0
10.19582,10.445316,67,34,0
10.19582,10.445316,61,28,0
10.19582,10.445316,58,21,0
10.458448,10.707945,67,34,0
10.458448,10.707945,61,28,0
10.458448,10.707945,58,21,0
10.721076,10.963774,67,36,0
10.721076,10.963774,61,30,0
10.721076,10.963774,58,22,0
10.976547,11.224309,67,34,0
10.976547,11.224309,61,28,0
10.976547,11.224309,58,21,0
11.237349,11.50966,67,34,0
11.237349,11.50966,61,28,0
11.237349,11.50966,58,21,0
11.810634,12.074743,65,29,0
11.810634,12.074743,60,21,0
12.088643,12.363819,65,30,0
12.088643,12.363819,60,22,0
11.523992,12.378303,53,47,0
12.378303,12.642411,46,39,0
12.656312,12.924471,65,18,0
12.656312,12.924471,58,15,0
12.656312,12.924471,53,13,0
12.938585,13.206744,65,18,0
12.938585,13.206744,58,15,0
12.938585,13.206744,53,13,0
13.5183,13.775939,65,28,0
13.5183,13.775939,58,21,0
13.789498,14.040755,63,28,0
13.789498,14.040755,58,21,0
13.220858,14.053979,51,39,0
14.053979,14.298342,44,39,0
14.311202,14.571643,63,28,0
14.311202,14.571643,56,23,0
14.311202,14.571643,51,17,0
14.585351,14.863426,63,25,0
14.585351,14.863426,56,21,0
14.585351,14.863426,51,15,0
14.878062,15.1503725,39,39,0
15.164704,15.426172,63,25,0
15.164704,15.426172,51,18,0
15.439934,15.701402,63,23,0
15.439934,15.701402,51,17,0
15.715163,15.976631,63,25,0
15.715163,15.976631,51,18,0
15.990393,16.251862,63,23,0
15.990393,16.251862,51,17,0
16.265623,16.542242,63,23,0
16.265623,16.542242,51,17,0
16.5568,16.844011,39,69,0
16.859129,17.115515,63,39,0
16.859129,17.115515,58,39,0
16.859129,17.115515,51,28,0
17.12901,17.37677,63,42,0
17.12901,17.37677,58,42,0
17.12901,17.37677,51,30,0
17.38981,17.634172,63,44,0
17.38981,17.634172,58,44,0
17.38981,17.634172,51,32,0
17.647034,17.905937,63,42,0
17.647034,17.905937,58,42,0
17.647034,17.905937,51,30,0
17.919563,18.190475,63,42,0
17.919563,18.190475,58,42,0
17.919563,18.190475,51,30,0
18.204735,18.4858,44,66,0
18.500593,18.746643,63,43,0
18.500593,18.746643,56,32,0
18.500593,18.746643,51,32,0
18.759594,19.00909,63,42,0
18.759594,19.00909,56,32,0
18.759594,19.00909,51,32,0
19.02222,19.271717,63,50,0
19.02222,19.271717,56,36,0
19.02222,19.271717,51,36,0
19.28485,19.553009,63,43,0
19.28485,19.553009,56,32,0
19.28485,19.553009,51,32,0
19.567122,19.840872,63,43,0
19.567122,19.840872,56,32,0
19.567122,19.840872,51,32,0
19.85528,20.134829,37,71,0
20.149542,20.402582,65,41,0
20.149542,20.402582,53,20,0
20.149542,20.402582,56,20,0
20.149542,20.402582,61,34,0
20.4159,20.660263,65,41,0
20.4159,20.660263,53,20,0
20.4159,20.660263,56,20,0
20.4159,20.660263,61,34,0
20.673124,20.91256,65,45,0
20.673124,20.91256,53,22,0
20.673124,20.91256,56,22,0
20.673124,20.91256,61,36,0
20.925161,21.176418,65,41,0
20.925161,21.176418,53,20,0
20.925161,21.176418,56,20,0
20.925161,21.176418,61,34,0
21.189642,21.461952,65,41,0
21.189642,21.461952,53,20,0
21.189642,21.461952,56,20,0
21.189642,21.461952,61,34,0
21.476284,21.748594,51,65,0
21.762926,22.012053,67,33,0
21.762926,22.012053,61,27,0
21.762926,22.012053,58,19,0
22.025164,22.30034,67,34,0
22.025164,22.30034,61,28,0
22.025164,22.30034,58,20,0
22.314823,22.56222,49,57,0
22.57524,22.8434,68,30,0
22.57524,22.8434,61,25,0
22.57524,22.8434,56,18,0
22.857513,23.125673,68,30,0
22.857513,23.125673,61,25,0
22.857513,23.125673,56,18,0
23.139786,23.422356,51,69,0
23.437227,23.694866,67,41,0
23.437227,23.694866,61,34,0
23.437227,23.694866,58,25,0
23.708427,23.959682,67,41,0
23.708427,23.959682,61,34,0
23.708427,23.959682,58,25,0
23.972906,24.21727,67,45,0
23.972906,24.21727,63,36,0
23.972906,24.21727,58,27,0
23.972906,24.21727,61,36,0
24.230131,24.483171,67,41,0
24.230131,24.483171,63,34,0
24.230131,24.483171,58,25,0
24.230131,24.483171,61,34,0
24.496489,24.7688,67,41,0
24.496489,24.7688,61,34,0
24.496489,24.7688,58,25,0
24.783133,25.055443,41,68,0
25.069775,25.326462,65,33,0
25.069775,25.326462,60,24,0
25.069775,25.326462,53,24,0
25.339972,25.627184,65,34,0
25.339972,25.627184,60,25,0
25.339972,25.627184,53,25,0
25.6423,25.90274,46,57,0
25.916447,26.191624,65,29,0
25.916447,26.191624,58,24,0
25.916447,26.191624,53,21,0
26.206106,26.481283,65,29,0
26.206106,26.481283,58,24,0
26.206106,26.481283,53,21,0
26.495766,26.79104,51,57,0
26.806581,27.074741,65,36,0
26.806581,27.074741,58,30,0
26.806581,27.074741,53,27,0
27.088856,27.361166,65,36,0
27.088856,27.361166,58,30,0
27.088856,27.361166,53,27,0
27.375498,27.647808,39,39,0
27.66214,27.941689,63,30,0
27.66214,27.941689,58,25,0
27.66214,27.941689,51,18,0
27.956402,28.261236,63,23,0
27.956402,28.261236,58,20,0
27.956402,28.261236,51,14,0
28.27831,28.556387,44,39,0
28.571024,28.839182,63,23,0
28.571024,28.839182,51,13,0
28.571024,28.839182,56,20,0
28.853296,29.121456,63,22,0
28.853296,29.121456,51,12,0
28.853296,29.121456,56,18,0
29.135569,29.403728,63,23,0
29.135569,29.403728,51,13,0
29.135569,29.403728,56,20,0
29.417843,29.69446,63,22,0
29.417843,29.69446,51,12,0
29.417843,29.69446,56,18,0
29.709019,29.994648,63,22,0
29.709019,29.994648,51,12,0
29.709019,29.994648,56,18,0
30.009682,30.286299,40,28,0
30.30086,30.570387,64,25,0
30.30086,30.570387,59,21,0
30.30086,30.570387,52,18,0
30.584574,30.854103,64,25,0
30.584574,30.854103,59,21,0
30.584574,30.854103,52,18,0
30.868288,31.126839,64,25,0
30.868288,31.126839,59,21,0
30.868288,31.126839,52,18,0
31.140446,31.417065,59,21,0
31.140446,31.417065,52,18,0
31.140446,31.425558,64,25,0
31.431623,31.708242,59,22,0
31.431623,31.708242,52,16,0
31.722801,31.996552,45,34,0
32.01096,32.276424,64,39,0
32.01096,32.276424,57,29,0
32.01096,32.276424,52,20,0
32.290257,32.5508,65,42,0
32.290257,32.5508,57,31,0
32.290257,32.5508,53,23,0
32.564426,32.817467,65,45,0
32.564426,32.817467,57,34,0
32.564426,32.817467,53,25,0
32.830784,33.09894,66,48,0
32.830784,33.09894,57,35,0
32.830784,33.09894,54,26,0
33.113056,33.381218,67,51,0
33.113056,33.381218,55,28,0
33.113056,33.381218,57,38,0
33.39533,33.66486,44,42,0
33.679047,33.940514,66,38,0
33.679047,33.940514,63,31,0
33.679047,33.940514,56,28,0
33.954273,34.215744,66,38,0
33.954273,34.215744,63,31,0
33.954273,34.215744,56,28,0
34.229504,34.484356,66,38,0
34.229504,34.484356,63,31,0
34.229504,34.484356,56,28,0
34.49777,34.765926,66,36,0
34.49777,34.765926,63,29,0
34.49777,34.765926,56,26,0
34.78004,35.048203,63,32,0
34.78004,35.048203,56,23,0
34.78004,35.048203,66,36,0
35.062313,35.331844,49,39,0
35.34603,35.600494,67,42,0
35.34603,35.600494,61,31,0
35.34603,35.600494,55,23,0
35.613888,35.864765,68,45,0
35.613888,35.864765,61,34,0
35.613888,35.864765,56,25,0
35.87797,36.132824,68,50,0
35.87797,36.132824,61,37,0
35.87797,36.132824,56,27,0
36.146236,36.414394,69,53,0
36.146236,36.414394,61,39,0
36.146236,36.414394,57,27,0
36.42851,36.696667,70,56,0
36.42851,36.696667,58,31,0
36.42851,36.696667,60,42,0
36.71078,36.980312,47,67,0
36.994495,37.255966,69,39,0
36.994495,37.255966,66,33,0
36.994495,37.255966,59,29,0
37.269726,37.531193,69,39,0
37.269726,37.531193,63,33,0
37.269726,37.531193,59,29,0
37.269726,37.531193,66,33,0
37.544956,37.797997,69,39,0
37.544956,37.797997,63,33,0
37.544956,37.797997,59,29,0
37.544956,37.797997,66,33,0
37.811314,38.079475,69,39,0
37.811314,38.079475,61,33,0
37.811314,38.079475,59,29,0
37.811314,38.079475,66,33,0
38.093586,38.361748,66,35,0
38.093586,38.361748,63,29,0
38.093586,38.361748,69,39,0
38.093586,38.361748,59,26,0
38.375862,38.64539,52,52,0
38.659576,38.921043,71,41,0
38.659576,38.921043,64,35,0
38.659576,38.921043,59,35,0
38.934807,39.189655,70,40,0
38.934807,39.189655,64,33,0
38.934807,39.189655,58,29,0
39.20307,39.456112,51,52,0
39.46943,39.737587,70,36,0
39.46943,39.737587,63,31,0
39.46943,39.737587,58,27,0
39.7517,40.02688,63,31,0
39.7517,40.02688,70,35,0
39.7517,40.02688,58,23,0
40.04136,40.31089,50,38,0
40.325077,40.586544,69,28,0
40.325077,40.586544,62,22,0
40.325077,40.586544,57,20,0
40.600304,40.861774,68,28,0
40.600304,40.861774,62,23,0
40.600304,40.861774,56,20,0
40.875534,41.128574,49,38,0
41.141895,41.410053,68,23,0
41.141895,41.410053,61,20,0
41.141895,41.410053,56,17,0
41.424168,41.702244,61,21,0
41.424168,41.702244,68,23,0
41.424168,41.702244,56,15,0
41.716877,41.990627,48,36,0
42.005035,42.273193,67,27,0
42.005035,42.273193,60,22,0
42.005035,42.273193,55,20,0
42.287308,42.560566,66,27,0
42.287308,42.560566,60,22,0
42.287308,42.560566,54,20,0
42.574974,42.839085,47,37,0
42.852985,43.12673,71,27,0
42.852985,43.12673,64,22,0
42.852985,43.12673,59,20,0
43.14114,43.41489,63,23,0
43.14114,43.41489,69,27,0
43.14114,43.41489,59,17,0
43.4293,43.698826,40,39,0
43.713013,43.97448,68,22,0
43.713013,43.97448,59,18,0
43.713013,43.97448,56,13,0
43.988243,44.24588,68,24,0
43.988243,44.24588,59,19,0
43.988243,44.24588,56,14,0
44.25944,44.518345,68,25,0
44.25944,44.518345,59,21,0
44.25944,44.518345,56,15,0
44.53197,44.80013,68,26,0
44.53197,44.80013,59,21,0
44.53197,44.80013,56,16,0
44.814243,45.0824,68,27,0
44.814243,45.0824,56,16,0
44.814243,45.0824,59,23,0
45.096516,45.366047,52,53,0
45.38023,45.6417,69,35,0
45.38023,45.6417,60,25,0
45.38023,45.6417,57,22,0
45.65546,45.910313,69,31,0
45.65546,45.910313,60,26,0
45.65546,45.910313,57,23,0
45.923725,46.171486,69,35,0
45.923725,46.171486,60,25,0
45.923725,46.171486,57,22,0
46.18453,46.452686,69,32,0
46.18453,46.452686,60,27,0
46.18453,46.452686,57,24,0
46.4668,46.73496,60,27,0
46.4668,46.73496,57,24,0
46.4668,46.73496,69,32,0
46.749073,47.0186,40,44,0
47.032787,47.294254,68,25,0
47.032787,47.294254,59,21,0
47.032787,47.294254,56,15,0
47.308018,47.561058,68,27,0
47.308018,47.561058,59,22,0
47.308018,47.561058,56,16,0
47.574375,47.820427,68,28,0
47.574375,47.820427,59,24,0
47.574375,47.820427,56,17,0
47.833378,48.101536,68,29,0
47.833378,48.101536,59,24,0
47.833378,48.101536,56,18,0
48.11565,48.38381,68,31,0
48.11565,48.38381,56,18,0
48.11565,48.38381,59,26,0
48.397923,48.667454,52,53,0
48.681637,48.943108,69,35,0
48.681637,48.943108,60,25,0
48.681637,48.943108,57,22,0
48.956867,49.218334,69,31,0
48.956867,49.218334,60,26,0
48.956867,49.218334,57,23,0
49.232098,49.481594,69,35,0
49.232098,49.481594,60,25,0
49.232098,49.481594,57,22,0
49.494724,49.762886,69,32,0
49.494724,49.762886,60,27,0
49.494724,49.762886,57,24,0
49.776997,50.04516,60,27,0
49.776997,50.04516,57,24,0
49.776997,50.04516,69,32,0
50.059273,50.3288,40,44,0
50.342987,50.604454,68,25,0
50.342987,50.604454,59,21,0
50.342987,50.604454,56,15,0
50.618214,50.875854,68,27,0
50.618214,50.875854,59,22,0
50.618214,50.875854,56,16,0
50.889416,51.148315,68,28,0
50.889416,51.148315,59,24,0
50.889416,51.148315,56,17,0
51.16194,51.430103,68,29,0
51.16194,51.430103,59,24,0
51.16194,51.430103,56,18,0
51.444218,51.712376,68,31,0
51.444218,51.712376,56,18,0
51.444218,51.712376,59,26,0
51.72649,51.996017,68,28,0
51.72649,51.996017,59,24,0
51.72649,51.996017,56,17,0
52.010204,52.27167,68,25,0
52.010204,52.27167,59,21,0
52.010204,52.27167,56,15,0
52.285435,52.54307,68,27,0
52.285435,52.54307,59,22,0
52.285435,52.54307,56,16,0
52.556633,52.815533,68,33,0
52.556633,52.815533,59,27,0
52.556633,52.815533,56,20,0
52.829163,53.09732,68,35,0
52.829163,53.09732,59,28,0
52.829163,53.09732,56,21,0
53.111435,53.379593,68,37,0
53.111435,53.379593,56,23,0
53.111435,53.379593,59,31,0
53.393707,53.663235,68,35,0
53.393707,53.663235,59,29,0
53.393707,53.663235,56,21,0
53.67742,53.93889,68,31,0
53.67742,53.93889,59,26,0
53.67742,53.93889,56,18,0
53.952652,54.21029,68,34,0
53.952652,54.21029,59,27,0
53.952652,54.21029,56,20,0
54.22385,54.482754,68,36,0
54.22385,54.482754,59,30,0
54.22385,54.482754,56,22,0
54.49638,54.764538,68,37,0
54.49638,54.764538,59,31,0
54.49638,54.764538,56,23,0
54.778652,55.04681,68,41,0
54.778652,55.04681,56,24,0
54.778652,55.04681,59,34,0
55.060925,55.330456,68,50,0
55.060925,55.330456,59,42,0
55.060925,55.330456,56,42,0
55.34464,55.60611,53,48,0
55.34464,55.60611,41,40,0
55.61987,55.877506,50,53,0
55.61987,55.877506,38,45,0
55.891068,56.14997,47,58,0
55.891068,56.14997,35,49,0
56.163597,56.431755,44,63,0
56.163597,56.431755,32,54,0
56.44587,56.714027,41,69,0
56.44587,56.714027,29,58,0
56.72814,57.015354,39,86,0
56.72814,57.015354,27,77,0
57.03047,57.286858,63,45,0
57.03047,57.286858,58,45,0
57.03047,57.286858,51,32,0
57.300354,57.54985,63,48,0
57.300354,57.54985,58,48,0
57.300354,57.54985,51,34,0
57.56298,57.80568,63,50,0
57.56298,57.80568,58,50,0
57.56298,57.80568,51,37,0
57.81845,58.077354,63,48,0
57.81845,58.077354,58,48,0
57.81845,58.077354,51,34,0
58.09098,58.361893,63,48,0
58.09098,58.361893,58,48,0
58.09098,58.361893,51,34,0
58.376152,58.65722,44,77,0
58.376152,58.65722,32,71,0
58.67201,58.927135,63,49,0
58.67201,58.927135,56,41,0
58.67201,58.927135,51,36,0
58.940563,59.19182,63,48,0
58.940563,59.19182,56,41,0
58.940563,59.19182,51,36,0
59.205044,59.45454,63,57,0
59.205044,59.45454,56,46,0
59.205044,59.45454,51,41,0
59.46767,59.73583,63,49,0
59.46767,59.73583,56,41,0
59.46767,59.73583,51,36,0
59.749943,60.023693,63,49,0
59.749943,60.023693,56,41,0
59.749943,60.023693,51,36,0
60.0381,60.31765,37,82,0
60.0381,60.31765,25,69,0
60.332363,60.59,65,46,0
60.332363,60.59,53,23,0
60.332363,60.59,56,26,0
60.332363,60.59,61,38,0
60.60356,60.851322,65,46,0
60.60356,60.851322,53,23,0
60.60356,60.851322,56,26,0
60.60356,60.851322,61,38,0
60.864365,61.10706,65,51,0
60.864365,61.10706,53,25,0
60.864365,61.10706,56,28,0
60.864365,61.10706,61,42,0
61.119835,61.372875,65,46,0
61.119835,61.372875,53,23,0
61.119835,61.372875,56,26,0
61.119835,61.372875,61,38,0
61.386192,61.658504,65,46,0
61.386192,61.658504,53,23,0
61.386192,61.658504,56,26,0
61.386192,61.658504,61,38,0
61.672836,61.945145,39,71,0
61.672836,61.945145,27,60,0
61.95948,62.223587,67,37,0
61.95948,62.223587,58,30,0
61.95948,62.223587,55,22,0
62.237488,62.512665,67,38,0
62.237488,62.512665,58,32,0
62.237488,62.512665,55,23,0
62.527145,62.791256,41,65,0
62.527145,62.791256,29,55,0
62.805157,63.073315,68,38,0
62.805157,63.073315,53,23,0
62.805157,63.073315,56,23,0
62.805157,63.073315,61,32,0
63.08743,63.355587,68,38,0
63.08743,63.355587,53,23,0
63.08743,63.355587,56,23,0
63.08743,63.355587,61,32,0
63.3697,63.65227,39,71,0
63.3697,63.65227,27,64,0
63.667145,63.92478,67,46,0
63.667145,63.92478,55,28,0
63.667145,63.92478,58,32,0
63.667145,63.92478,61,38,0
63.938343,64.19138,67,46,0
63.938343,64.19138,55,28,0
63.938343,64.19138,58,32,0
63.938343,64.19138,61,38,0
64.204704,64.4542,67,51,0
64.204704,64.4542,58,35,0
64.204704,64.4542,63,42,0
64.204704,64.4542,55,31,0
64.204704,64.4542,61,42,0
64.46733,64.72218,67,46,0
64.46733,64.72218,58,32,0
64.46733,64.72218,63,38,0
64.46733,64.72218,55,28,0
64.46733,64.72218,61,38,0
64.735596,65.007904,67,46,0
64.735596,65.007904,55,28,0
64.735596,65.007904,58,32,0
64.735596,65.007904,61,38,0
65.02224,65.300316,41,71,0
65.02224,65.300316,29,63,0
65.31495,65.58586,65,37,0
65.31495,65.58586,60,30,0
65.31495,65.58586,53,27,0
65.60012,65.8753,65,38,0
65.60012,65.8753,60,32,0
65.60012,65.8753,53,28,0
65.88978,66.15931,46,65,0
65.88978,66.15931,34,59,0
66.17349,66.44867,65,36,0
66.17349,66.44867,58,31,0
66.17349,66.44867,53,27,0
66.46315,66.73833,65,36,0
66.46315,66.73833,58,31,0
66.46315,66.73833,53,27,0
66.752815,67.06092,51,65,0
66.752815,67.06092,39,65,0
67.07713,67.346664,65,37,0
67.07713,67.346664,58,31,0
67.07713,67.346664,53,27,0
67.36085,67.63892,63,37,0
67.36085,67.63892,58,31,0
67.36085,67.63892,51,27,0
67.653564,67.93164,44,48,0
67.94627,68.220024,63,37,0
67.94627,68.220024,56,31,0
67.94627,68.220024,51,22,0
68.23443,68.53549,63,32,0
68.23443,68.53549,56,27,0
68.23443,68.53549,51,19,0
68.552055,68.831604,39,48,0
68.84632,69.11448,63,26,0
68.84632,69.11448,51,15,0
69.12859,69.39675,63,25,0
69.12859,69.39675,51,13,0
69.410866,69.67902,63,26,0
69.410866,69.67902,51,15,0
69.69314,69.96763,63,23,0
69.69314,69.96763,51,12,0
69.98207,70.281975,63,22,0
69.98207,70.281975,51,11,0
70.29776,70.57151,39,28,0
70.58592,70.8527,63,25,0
70.58592,70.8527,57,21,0
70.58592,70.8527,51,18,0
70.86674,71.13441,63,25,0
70.86674,71.13441,57,21,0
70.86674,71.13441,51,18,0
71.14758,71.40613,63,25,0
71.14758,71.40613,57,21,0
71.14758,71.40613,51,18,0
71.41974,71.69349,63,25,0
71.41974,71.69349,57,21,0
71.41974,71.69349,51,18,0
71.70789,71.98164,57,22,0
71.70789,71.98164,51,16,0
71.70789,71.98164,63,25,0
71.996056,72.272675,40,28,0
72.28723,72.55539,64,23,0
72.28723,72.55539,56,20,0
72.28723,72.55539,52,14,0
72.5695,72.8323,64,25,0
72.5695,72.8323,56,21,0
72.5695,72.8323,52,15,0
72.84613,73.11291,64,27,0
72.84613,73.11291,56,22,0
72.84613,73.11291,52,16,0
73.126945,73.39511,63,28,0
73.126945,73.39511,56,22,0
73.126945,73.39511,52,17,0
73.40922,73.67738,61,29,0
73.40922,73.67738,52,17,0
73.40922,73.67738,56,24,0
73.6915,73.96102,47,39,0
73.6915,73.96102,35,39,0
73.97521,74.23668,69,35,0
73.97521,74.23668,63,29,0
73.97521,74.23668,59,26,0
74.250435,74.50169,69,35,0
74.250435,74.50169,63,29,0
74.250435,74.50169,59,26,0
74.514915,74.76441,69,35,0
74.514915,74.76441,63,29,0
74.514915,74.76441,59,26,0
74.77755,75.04571,69,35,0
74.77755,75.04571,61,29,0
74.77755,75.04571,59,26,0
75.05982,75.33063,63,31,0
75.05982,75.33063,59,23,0
75.05982,75.33063,69,35,0
75.34503,75.61456,52,50,0
75.34503,75.61456,40,39,0
75.62875,75.89022,71,35,0
75.62875,75.89022,64,29,0
75.62875,75.89022,59,21,0
75.90398,76.15347,71,36,0
75.90398,76.15347,64,31,0
75.90398,76.15347,59,23,0
76.16661,76.42551,71,39,0
76.16661,76.42551,64,33,0
76.16661,76.42551,59,24,0
76.43914,76.7073,51,49,0
76.43914,76.7073,39,40,0
76.72141,76.98957,38,46,0
76.72141,76.98957,50,55,0
77.003685,77.27321,49,60,0
77.003685,77.27321,37,48,0
77.2874,77.54887,65,30,0
77.2874,77.54887,59,25,0
77.2874,77.54887,53,22,0
77.56263,77.82593,65,30,0
77.56263,77.82593,59,25,0
77.56263,77.82593,53,22,0
77.8391,78.0886,65,30,0
77.8391,78.0886,59,25,0
77.8391,78.0886,53,22,0
78.10173,78.36989,65,30,0
78.10173,78.36989,59,25,0
78.10173,78.36989,53,22,0
78.384,78.65216,59,27,0
78.384,78.65216,53,19,0
78.384,78.65216,65,30,0
78.666275,78.93581,42,34,0
78.94999,79.21146,66,28,0
78.94999,79.21146,58,24,0
78.94999,79.21146,54,17,0
79.22522,79.47472,66,30,0
79.22522,79.47472,58,25,0
79.22522,79.47472,54,18,0
79.48785,79.74675,66,32,0
79.48785,79.74675,58,27,0
79.48785,79.74675,54,19,0
79.760376,80.028534,65,33,0
79.760376,80.028534,58,27,0
79.760376,80.028534,54,20,0
80.04265,80.31081,63,35,0
80.04265,80.31081,54,21,0
80.04265,80.31081,58,29,0
80.32492,80.59445,49,39,0
80.32492,80.59445,37,39,0
80.608635,80.8701,68,35,0
80.608635,80.8701,61,29,0
80.608635,80.8701,56,26,0
80.608635,80.8701,59,29,0
80.883865,81.135124,68,35,0
80.883865,81.135124,61,29,0
80.883865,81.135124,56,26,0
80.883865,81.135124,59,29,0
81.148346,81.39271,68,35,0
81.148346,81.39271,61,29,0
81.148346,81.39271,56,26,0
81.148346,81.39271,59,29,0
81.40557,81.67373,63,35,0
81.40557,81.67373,61,29,0
81.40557,81.67373,56,26,0
81.40557,81.67373,59,29,0
81.68784,81.95865,59,31,0
81.68784,81.95865,61,31,0
81.68784,81.95865,65,35,0
81.68784,81.95865,56,23,0
81.97306,82.24259,42,45,0
82.256775,82.51824,66,35,0
82.256775,82.51824,61,29,0
82.256775,82.51824,54,21,0
82.532005,82.78869,66,36,0
82.532005,82.78869,61,31,0
82.532005,82.78869,54,23,0
82.8022,83.061104,54,50,0
82.8022,83.061104,42,42,0
83.07473,83.34289,53,53,0
83.07473,83.34289,41,45,0
83.357,83.62931,40,47,0
83.357,83.62931,52,56,0
83.64365,83.915955,51,63,0
83.64365,83.915955,39,63,0
83.93029,84.19176,66,41,0
83.93029,84.19176,59,34,0
84.20551,84.46699,66,41,0
84.20551,84.46699,59,34,0
84.48074,84.74891,52,59,0
84.763016,85.02449,71,40,0
84.763016,85.02449,64,34,0
84.763016,85.02449,59,34,0
85.038246,85.312,71,40,0
85.038246,85.312,64,34,0
85.038246,85.312,59,34,0
85.32641,85.5892,50,59,0
85.60303,85.8645,65,34,0
85.60303,85.8645,58,28,0
85.60303,85.8645,70,39,0
85.87826,86.139725,65,34,0
85.87826,86.139725,58,28,0
85.87826,86.139725,70,39,0
86.15349,86.421646,51,56,0
86.43576,86.69723,70,32,0
86.43576,86.69723,63,27,0
86.43576,86.69723,58,27,0
86.71099,86.98617,70,32,0
86.71099,86.98617,63,27,0
86.71099,86.98617,58,27,0
87.00065,87.26344,49,53,0
87.277275,87.53874,64,36,0
87.277275,87.53874,57,30,0
87.277275,87.53874,69,36,0
87.552505,87.81397,64,36,0
87.552505,87.81397,57,30,0
87.552505,87.81397,69,36,0
87.827736,88.095894,50,50,0
88.11001,88.371475,69,34,0
88.11001,88.371475,62,28,0
88.11001,88.371475,57,28,0
88.38524,88.646706,69,34,0
88.38524,88.646706,62,28,0
88.38524,88.646706,57,28,0
88.66047,88.916855,69,43,0
88.66047,88.916855,62,43,0
88.66047,88.916855,57,43,0
88.93035,89.19047,50,42,0
88.93035,89.19047,38,35,0
89.20422,89.46827,49,45,0
89.20422,89.46827,37,38,0
89.48224,89.75032,48,47,0
89.48224,89.75032,36,39,0
89.76451,90.03681,48,50,0
89.76451,90.03681,36,42,0
90.05129,90.32647,47,52,0
90.05129,90.32647,35,44,0
90.34095,90.61048,46,48,0
90.34095,90.61048,34,48,0
90.624664,90.88613,70,37,0
90.624664,90.88613,63,31,0
90.624664,90.88613,58,27,0
90.899895,91.16136,70,38,0
90.899895,91.16136,63,32,0
90.899895,91.16136,58,28,0
91.175125,91.43403,70,42,0
91.175125,91.43403,64,35,0
91.175125,91.43403,58,31,0
91.447655,91.71581,70,41,0
91.447655,91.71581,64,34,0
91.447655,91.71581,58,30,0
91.72993,92.005104,64,26,0
91.72993,92.005104,70,35,0
91.72993,92.005104,58,18,0
92.019585,92.2745,46,46,0
92.28725,92.54871,70,36,0
92.28725,92.54871,65,30,0
92.28725,92.54871,58,27,0
92.56248,92.823944,70,36,0
92.56248,92.823944,65,30,0
92.56248,92.823944,58,27,0
92.83771,93.09661,70,39,0
92.83771,93.09661,65,33,0
92.83771,93.09661,58,29,0
93.11024,93.378395,70,33,0
93.11024,93.378395,65,27,0
93.11024,93.378395,58,24,0
93.39251,93.66067,65,27,0
93.39251,93.66067,70,33,0
93.39251,93.66067,58,24,0
93.67478,93.94431,39,44,0
93.958496,94.21996,67,26,0
93.958496,94.21996,58,22,0
93.958496,94.21996,55,16,0
94.23373,94.484985,67,28,0
94.23373,94.484985,58,23,0
94.23373,94.484985,55,17,0
94.49821,94.75306,67,30,0
94.49821,94.75306,58,25,0
94.49821,94.75306,55,18,0
94.76647,95.03463,67,31,0
94.76647,95.03463,58,25,0
94.76647,95.03463,55,19,0
95.048744,95.3169,67,33,0
95.048744,95.3169,55,19,0
95.048744,95.3169,58,27,0
95.33102,95.60055,51,53,0
95.61473,95.8762,68,35,0
95.61473,95.8762,59,25,0
95.61473,95.8762,56,22,0
95.88996,96.14481,68,31,0
95.88996,96.14481,59,26,0
95.88996,96.14481,56,23,0
96.158226,96.40772,68,35,0
96.158226,96.40772,59,25,0
96.158226,96.40772,56,22,0
96.42085,96.68901,68,32,0
96.42085,96.68901,59,27,0
96.42085,96.68901,56,24,0
96.703125,96.97128,59,27,0
96.703125,96.97128,56,24,0
96.703125,96.97128,68,32,0
96.9854,97.25493,39,44,0
97.26911,97.53059,67,26,0
97.26911,97.53059,58,22,0
97.26911,97.53059,55,16,0
97.54434,97.79384,67,28,0
97.54434,97.79384,58,23,0
97.54434,97.79384,55,17,0
97.80697,98.06587,67,30,0
97.80697,98.06587,58,25,0
97.80697,98.06587,55,18,0
98.0795,98.347664,67,31,0
98.0795,98.347664,58,25,0
98.0795,98.347664,55,19,0
98.36177,98.62994,67,33,0
98.36177,98.62994,55,19,0
98.36177,98.62994,58,27,0
98.64405,98.913574,51,53,0
98.927765,99.18923,68,29,0
98.927765,99.18923,59,21,0
98.927765,99.18923,56,18,0
99.202995,99.45425,68,26,0
99.202995,99.45425,59,22,0
99.202995,99.45425,56,19,0
99.467476,99.71873,68,29,0
99.467476,99.71873,59,21,0
99.467476,99.71873,56,18,0
99.73196,100.000114,68,27,0
99.73196,100.000114,59,22,0
99.73196,100.000114,56,20,0
100.01423,100.28239,59,22,0
100.01423,100.28239,56,20,0
100.01423,100.28239,68,27,0
100.2965,100.566025,39,33,0
100.580215,100.84168,67,17,0
100.580215,100.84168,58,15,0
100.580215,100.84168,55,13,0
100.855446,101.11308,67,17,0
100.855446,101.11308,58,15,0
100.855446,101.11308,55,13,0
101.12664,101.385544,67,18,0
101.12664,101.385544,58,15,0
101.12664,101.385544,55,13,0
101.39917,101.66316,67,19,0
101.39917,101.66316,58,16,0
101.39917,101.66316,55,14,0
101.677246,101.94207,67,20,0
101.677246,101.94207,55,14,0
101.677246,101.94207,58,16,0
101.956024,102.21767,67,21,0
101.956024,102.21767,58,17,0
101.956024,102.21767,55,15,0
102.23124,102.48799,67,22,0
102.23124,102.48799,58,17,0
102.23124,102.48799,55,15,0
102.50151,102.75372,67,22,0
102.50151,102.75372,58,18,0
102.50151,102.75372,55,16,0
102.767,103.025894,67,23,0
102.767,103.025894,58,20,0
102.767,103.025894,55,17,0
103.03952,103.30271,67,24,0
103.03952,103.30271,58,21,0
103.03952,103.30271,55,18,0
103.316795,103.58164,67,26,0
103.316795,103.58164,55,19,0
103.316795,103.58164,58,22,0
103.595726,103.862,67,28,0
103.595726,103.862,58,22,0
103.595726,103.862,55,20,0
103.875885,104.137634,67,28,0
103.875885,104.137634,58,22,0
103.875885,104.137634,55,20,0
104.15134,104.40856,67,26,0
104.15134,104.40856,58,22,0
104.15134,104.40856,55,19,0
104.42202,104.67927,67,26,0
104.42202,104.67927,58,22,0
104.42202,104.67927,55,19,0
104.6929,104.95446,67,24,0
104.6929,104.95446,58,21,0
104.6929,104.95446,55,18,0
104.96835,105.23421,67,24,0
104.96835,105.23421,55,18,0
104.96835,105.23421,58,21,0
105.2483,105.51782,67,23,0
105.2483,105.51782,58,20,0
105.2483,105.51782,55,17,0
105.53201,105.79348,67,23,0
105.53201,105.79348,58,20,0
105.53201,105.79348,55,17,0
105.80724,106.07063,67,23,0
105.80724,106.07063,58,18,0
105.80724,106.07063,55,16,0
106.08468,106.355255,67,22,0
106.08468,106.355255,58,18,0
106.08468,106.355255,55,16,0
106.36975,106.65308,67,22,0
106.36975,106.65308,58,17,0
106.36975,106.65308,55,15,0
106.66831,106.977325,67,22,0
106.66831,106.977325,55,15,0
106.66831,106.977325,58,17,0
107.35602,107.612404,51,21,0
107.35602,107.612404,44,17,0
107.6259,107.87366,51,22,0
107.6259,107.87366,44,18,0
107.886696,108.131065,58,23,0
107.886696,108.131065,51,23,0
107.886696,108.131065,44,20,0
108.14392,108.402824,58,22,0
108.14392,108.402824,51,18,0
108.41645,108.68736,58,22,0
108.41645,108.68736,51,18,0
106.99457,108.70162,32,61,0
108.70162,108.98269,63,22,0
108.70162,108.98269,56,18,0
108.70162,108.98269,51,16,0
108.99748,109.25261,63,20,0
108.99748,109.25261,56,16,0
108.99748,109.25261,51,14,0
109.26604,109.523674,63,19,0
109.26604,109.523674,56,15,0
109.26604,109.523674,51,13,0
109.53723,109.79487,63,22,0
109.53723,109.79487,56,18,0
109.53723,109.79487,51,16,0
109.80843,110.07659,63,20,0
109.80843,110.07659,56,16,0
109.80843,110.07659,51,14,0
110.090706,110.38036,63,20,0
110.090706,110.38036,56,16,0
110.090706,110.38036,51,14,0
110.71634,110.96967,65,22,0
110.71634,110.96967,56,15,0
110.71634,110.96967,61,18,0
110.71634,110.96967,53,13,0
110.983,111.23426,65,22,0
110.983,111.23426,56,15,0
110.983,111.23426,61,18,0
110.983,111.23426,53,13,0
111.24748,111.49354,65,23,0
111.24748,111.49354,56,16,0
111.24748,111.49354,61,20,0
111.24748,111.49354,53,14,0
111.506485,111.75953,65,22,0
111.506485,111.75953,56,15,0
111.506485,111.75953,61,18,0
111.506485,111.75953,53,13,0
111.77284,112.04515,65,22,0
111.77284,112.04515,56,15,0
111.77284,112.04515,61,18,0
111.77284,112.04515,53,13,0
110.396545,112.05949,32,57,0
112.05949,112.3389,67,19,0
112.05949,112.3389,55,11,0
112.05949,112.3389,58,13,0
112.05949,112.3389,61,15,0
112.35361,112.62375,67,19,0
112.35361,112.62375,55,11,0
112.35361,112.62375,58,13,0
112.35361,112.62375,61,15,0
112.63796,112.92014,67,20,0
112.63796,112.92014,55,12,0
112.63796,112.92014,58,14,0
112.63796,112.92014,61,16,0
112.93499,113.20514,68,20,0
112.93499,113.20514,61,16,0
112.93499,113.20514,56,12,0
113.21935,113.49471,68,20,0
113.21935,113.49471,61,16,0
113.21935,113.49471,56,12,0
113.50921,113.79972,68,20,0
113.50921,113.79972,61,16,0
113.50921,113.79972,56,12,0
114.13942,114.39706,67,22,0
114.13942,114.39706,58,18,0
114.13942,114.39706,55,13,0
114.410614,114.66547,67,22,0
114.410614,114.66547,58,18,0
114.410614,114.66547,55,13,0
114.67888,114.92664,67,23,0
114.67888,114.92664,63,20,0
114.67888,114.92664,55,14,0
114.67888,114.92664,58,14,0
114.67888,114.92664,61,20,0
114.93968,115.19272,67,22,0
114.93968,115.19272,63,18,0
114.93968,115.19272,55,13,0
114.93968,115.19272,58,13,0
114.93968,115.19272,61,18,0
115.20604,115.47835,67,22,0
115.20604,115.47835,63,18,0
115.20604,115.47835,55,13,0
115.20604,115.47835,58,13,0
115.20604,115.47835,61,18,0
113.815895,115.49268,32,57,0
115.49268,115.77073,66,19,0
115.49268,115.77073,60,15,0
115.49268,115.77073,56,13,0
115.78536,116.055504,66,19,0
115.78536,116.055504,60,15,0
115.78536,116.055504,56,13,0
116.069725,116.357605,66,20,0
116.069725,116.357605,60,16,0
116.069725,116.357605,56,13,0
116.37276,116.6508,65,17,0
116.37276,116.6508,56,15,0
116.37276,116.6508,53,13,0
116.665436,116.95187,65,17,0
116.665436,116.95187,56,15,0
116.665436,116.95187,53,13,0
116.96695,117.26589,65,17,0
116.96695,117.26589,56,15,0
116.96695,117.26589,53,13,0
117.613625,117.87126,63,22,0
117.613625,117.87126,56,18,0
117.613625,117.87126,51,18,0
117.88483,118.14337,63,22,0
117.88483,118.14337,56,18,0
117.88483,118.14337,51,18,0
118.15698,118.40475,63,22,0
118.15698,118.40475,56,18,0
118.15698,118.40475,51,15,0
118.417786,118.67447,63,22,0
118.417786,118.67447,56,18,0
118.417786,118.67447,51,15,0
118.68798,118.96606,63,20,0
118.68798,118.96606,56,16,0
118.68798,118.96606,51,14,0
117.28236,118.98069,32,58,0
118.98069,119.253006,63,20,0
118.98069,119.253006,51,16,0
119.267334,119.5288,63,20,0
119.267334,119.5288,51,16,0
119.542564,119.803764,63,18,0
119.542564,119.803764,51,15,0
119.81759,120.08199,63,20,0
119.81759,120.08199,51,16,0
120.096016,120.36416,63,18,0
120.096016,120.36416,51,15,0
120.37837,120.68254,63,18,0
120.37837,120.68254,51,15,0
121.04811,121.3045,63,22,0
121.04811,121.3045,51,17,0
121.31799,121.57888,63,22,0
121.31799,121.57888,51,18,0
121.59264,121.84214,63,24,0
121.59264,121.84214,51,20,0
121.85527,122.114174,63,22,0
121.85527,122.114174,51,18,0
122.1278,122.39871,63,22,0
122.1278,122.39871,51,18,0
120.700165,122.41297,32,62,0
122.41297,122.69403,63,21,0
122.41297,122.69403,56,17,0
122.41297,122.69403,51,15,0
122.708824,122.96395,63,21,0
122.708824,122.96395,56,17,0
122.708824,122.96395,51,15,0
122.97738,123.235016,63,21,0
122.97738,123.235016,56,17,0
122.97738,123.235016,51,15,0
123.24858,123.50622,63,25,0
123.24858,123.50622,56,20,0
123.24858,123.50622,51,15,0
123.519775,123.78793,63,21,0
123.519775,123.78793,56,17,0
123.519775,123.78793,51,15,0
123.80205,124.097015,63,21,0
123.80205,124.097015,56,17,0
123.80205,124.097015,51,15,0
124.447044,124.70468,65,22,0
124.447044,124.70468,56,12,0
124.447044,124.70468,61,18,0
124.447044,124.70468,53,11,0
124.71824,124.979706,65,22,0
124.71824,124.979706,56,12,0
124.71824,124.979706,61,18,0
124.71824,124.979706,53,11,0
124.99347,125.23952,65,25,0
124.99347,125.23952,56,13,0
124.99347,125.23952,61,20,0
124.99347,125.23952,53,11,0
125.25247,125.509155,65,22,0
125.25247,125.509155,56,12,0
125.25247,125.509155,61,18,0
125.25247,125.509155,53,11,0
125.52267,125.794975,65,22,0
125.52267,125.794975,56,12,0
125.52267,125.794975,61,18,0
125.52267,125.794975,53,11,0
124.113785,125.80931,32,56,0
125.80931,126.090096,67,17,0
125.80931,126.090096,55,11,0
125.80931,126.090096,58,12,0
125.80931,126.090096,61,15,0
126.10487,126.36877,67,17,0
126.10487,126.36877,55,11,0
126.10487,126.36877,58,12,0
126.10487,126.36877,61,15,0
126.38265,126.672,67,18,0
126.38265,126.672,55,11,0
126.38265,126.672,58,12,0
126.38265,126.672,61,15,0
126.687225,126.95711,68,18,0
126.687225,126.95711,61,15,0
126.687225,126.95711,56,13,0
126.97131,127.2521,68,18,0
126.97131,127.2521,61,15,0
126.97131,127.2521,56,11,0
127.26688,127.56463,68,18,0
127.26688,127.56463,61,15,0
127.26688,127.56463,56,11,0
127.936325,128.19395,67,22,0
127.936325,128.19395,58,18,0
127.936325,128.19395,55,13,0
128.20752,128.45877,67,22,0
128.20752,128.45877,58,18,0
128.20752,128.45877,55,13,0
128.472,128.71637,67,25,0
128.472,128.71637,61,18,0
128.472,128.71637,63,18,0
128.472,128.71637,55,14,0
128.472,128.71637,58,20,0
128.72922,128.98592,67,22,0
128.72922,128.98592,61,18,0
128.72922,128.98592,63,18,0
128.72922,128.98592,55,13,0
128.72922,128.98592,58,18,0
128.99942,129.2683,67,22,0
128.99942,129.2683,61,18,0
128.99942,129.2683,63,18,0
128.99942,129.2683,55,13,0
128.99942,129.2683,58,18,0
127.58129,129.28244,32,57,0
129.28244,129.56323,66,17,0
129.28244,129.56323,60,15,0
129.28244,129.56323,56,13,0
129.578,129.84944,66,17,0
129.578,129.84944,60,15,0
129.578,129.84944,56,13,0
129.86372,130.16216,66,18,0
129.86372,130.16216,60,15,0
129.86372,130.16216,56,13,0
130.17786,130.46286,65,18,0
130.17786,130.46286,56,15,0
130.17786,130.46286,53,13,0
130.47786,130.77167,65,17,0
130.47786,130.77167,56,14,0
130.47786,130.77167,53,12,0
130.78714,131.08736,65,16,0
130.78714,131.08736,56,13,0
130.78714,131.08736,53,11,0
131.4464,131.70906,64,20,0
131.4464,131.70906,56,16,0
131.4464,131.70906,52,14,0
131.72289,131.98524,64,20,0
131.72289,131.98524,56,16,0
131.72289,131.98524,52,14,0
131.99905,132.25574,64,20,0
131.99905,132.25574,56,16,0
131.99905,132.25574,52,14,0
132.26926,132.53741,64,20,0
132.26926,132.53741,56,16,0
132.26926,132.53741,52,11,0
132.55153,132.84262,64,17,0
132.55153,132.84262,56,15,0
132.55153,132.84262,52,11,0
131.10353,132.8587,32,56,0
132.8587,133.13101,63,18,0
132.8587,133.13101,56,15,0
132.8587,133.13101,51,10,0
133.14536,133.4117,63,18,0
133.14536,133.4117,51,10,0
133.14536,133.4117,56,15,0
133.42572,133.69208,63,17,0
133.42572,133.69208,51,9,0
133.42572,133.69208,56,15,0
133.7061,133.97246,63,18,0
133.7061,133.97246,51,10,0
133.7061,133.97246,56,15,0
133.98647,134.25462,63,17,0
133.98647,134.25462,51,9,0
133.98647,134.25462,56,15,0
134.26874,134.55437,63,17,0
134.26874,134.55437,51,9,0
134.26874,134.55437,56,15,0
134.8892,135.15309,64,20,0
134.8892,135.15309,56,16,0
134.8892,135.15309,52,14,0
135.16698,135.43585,64,20,0
135.16698,135.43585,56,16,0
135.16698,135.43585,52,14,0
135.45,135.71887,64,20,0
135.45,135.71887,56,16,0
135.45,135.71887,52,14,0
135.73302,136.00705,64,20,0
135.73302,136.00705,56,16,0
135.73302,136.00705,52,11,0
136.02148,136.29956,64,17,0
136.02148,136.29956,56,15,0
136.02148,136.29956,52,11,0
134.56941,136.3142,32,56,0
136.3142,136.5865,63,18,0
136.3142,136.5865,56,15,0
136.3142,136.5865,51,10,0
136.60083,136.86595,63,18,0
136.60083,136.86595,51,10,0
136.60083,136.86595,56,15,0
136.8799,137.14502,63,17,0
136.8799,137.14502,51,9,0
136.8799,137.14502,56,15,0
137.15897,137.42784,64,20,0
137.15897,137.42784,56,16,0
137.15897,137.42784,52,14,0
137.44199,137.71603,64,20,0
137.44199,137.71603,56,16,0
137.44199,137.71603,52,11,0
137.73045,138.00853,64,17,0
137.73045,138.00853,56,15,0
137.73045,138.00853,52,11,0
138.02316,138.29547,63,18,0
138.02316,138.29547,56,15,0
138.02316,138.29547,51,10,0
138.3098,138.57492,63,18,0
138.3098,138.57492,51,10,0
138.3098,138.57492,56,15,0
138.58888,138.85399,63,17,0
138.58888,138.85399,51,9,0
138.58888,138.85399,56,15,0
138.86795,139.13681,63,20,0
138.86795,139.13681,56,16,0
138.86795,139.13681,51,14,0
139.15097,139.42633,63,20,0
139.15097,139.42633,56,16,0
139.15097,139.42633,51,11,0
139.44083,139.73192,63,17,0
139.44083,139.73192,56,15,0
139.44083,139.73192,51,11,0
140.07536,140.34172,63,18,0
140.07536,140.34172,51,10,0
140.07536,140.34172,56,15,0
140.35574,140.6221,63,17,0
140.35574,140.6221,51,9,0
140.35574,140.6221,56,15,0
140.63611,140.90625,63,20,0
140.63611,140.90625,56,16,0
140.63611,140.90625,51,14,0
140.92047,141.19583,61,20,0
140.92047,141.19583,56,16,0
140.92047,141.19583,51,11,0
141.21033,141.4884,61,17,0
141.21033,141.4884,56,15,0
141.21033,141.4884,51,11,0
139.748,141.50304,32,55,0
141.50304,141.77534,63,18,0
141.50304,141.77534,56,15,0
141.50304,141.77534,51,13,0
141.78969,142.0548,63,18,0
141.78969,142.0548,51,10,0
141.78969,142.0548,56,15,0
142.06876,142.33388,63,17,0
142.06876,142.33388,51,9,0
142.06876,142.33388,56,15,0
142.34782,142.6167,63,20,0
142.34782,142.6167,56,16,0
142.34782,142.6167,51,14,0
142.63084,142.9062,61,20,0
142.63084,142.9062,56,16,0
142.63084,142.9062,51,11,0
142.9207,143.21179,61,17,0
142.9207,143.21179,56,15,0
142.9207,143.21179,51,11,0
143.22787,143.53345,63,18,0
143.22787,143.53345,56,15,0
143.22787,143.53345,51,13,0
143.54953,143.82356,63,18,0
143.54953,143.82356,51,10,0
143.54953,143.82356,56,15,0
143.83798,144.11203,63,17,0
143.83798,144.11203,51,9,0
143.83798,144.11203,55,15,0
144.12645,144.3777,63,20,0
144.12645,144.3777,56,16,0
144.12645,144.3777,51,14,0
144.39093,144.67033,63,20,0
144.39093,144.67033,56,16,0
144.39093,144.67033,51,11,0
144.68504,144.96312,63,17,0
144.68504,144.96312,55,15,0
144.68504,144.96312,51,11,0
144.97775,145.26497,63,18,0
144.97775,145.26497,56,15,0
144.97775,145.26497,51,13,0
145.28009,145.55737,63,18,0
145.28009,145.55737,51,10,0
145.28009,145.55737,56,15,0
145.57217,145.85773,63,17,0
145.57217,145.85773,51,9,0
145.57217,145.85773,55,15,0
145.87302,146.16891,63,20,0
145.87302,146.16891,56,16,0
145.87302,146.16891,51,14,0
146.18472,146.49167,63,20,0
146.18472,146.49167,56,16,0
146.18472,146.49167,51,11,0
146.50813,146.87344,63,17,0
146.50813,146.87344,55,15,0
146.50813,146.87344,51,11,0
147.3147,147.62932,63,18,0
147.3147,147.62932,51,10,0
147.3147,147.62932,56,15,0
147.64589,147.95956,63,17,0
147.64589,147.95956,51,9,0
147.64589,147.95956,56,15,0
147.97604,148.29262,63,20,0
147.97604,148.29262,56,16,0
147.97604,148.29262,51,14,0
148.30911,148.62585,63,20,0
148.30911,148.62585,56,16,0
148.30911,148.62585,51,11,0
148.64207,148.95653,63,17,0
148.64207,148.95653,56,15,0
148.64207,148.95653,51,11,0
146.89558,148.973,32,53,0
148.973,149.29262,63,18,0
148.973,149.29262,56,15,0
148.973,149.29262,51,13,0
149.3097,149.63878,63,18,0
149.3097,149.63878,51,10,0
149.3097,149.63878,56,15,0
149.6564,149.99527,63,17,0
149.6564,149.99527,51,9,0
149.6564,149.99527,56,15,0
150.01335,150.4176,63,20,0
150.01335,150.4176,56,16,0
150.01335,150.4176,51,14,0
150.43889,151.04527,56,16,0
150.43889,151.04527,51,11,0
151.07718,151.91542,63,17,0
151.07718,151.91542,56,15,0
151.07718,151.91542,51,11,0
151.95953,156.45953,63,15,0
151.95953,156.45953,56,13,0
151.95953,156.45953,51,11,0
