start_time,end_time,note_value,velocity,instrument_program_number
5.7771587,5.864964,68,37,1
5.864964,5.952941,69,41,1
5.952941,6.0424047,68,38,1
6.0424047,6.1311636,67,39,1
6.1311636,6.2193127,68,40,1
6.2193127,6.307984,73,42,1
6.307984,6.396917,76,43,1
6.396917,6.48524,75,45,1
6.48524,6.5729594,73,43,1
6.5729594,6.6609364,75,45,1
6.6609364,6.7497816,73,43,1
6.7497816,6.8378453,72,44,1
6.8378453,6.926081,73,46,1
6.926081,7.0145764,76,49,1
7.0145764,7.1194277,80,47,1
7.220173,7.3090253,68,45,1
7.3090253,7.397261,69,49,1
7.397261,7.485069,68,45,1
7.485069,7.573564,67,46,1
7.573564,7.661714,68,48,1
7.661714,7.749348,73,50,1
7.749348,7.837671,76,51,1
7.837671,7.926517,75,54,1
7.926517,8.015803,73,51,1
8.015803,8.104386,75,53,1
8.104386,8.192191,73,51,1
8.192191,8.280602,72,52,1
8.280602,8.370066,73,54,1
8.370066,8.458824,76,57,1
8.458824,8.563317,80,55,1
8.664395,8.7547245,69,55,1
8.7547245,8.844497,73,55,1
8.844497,8.933811,75,58,1
8.933811,9.023309,78,61,1
9.023309,9.112531,81,64,1
9.112531,9.201481,85,67,1
9.201481,9.29016,87,70,1
9.29016,9.37788,95,74,1
9.37788,9.465343,93,72,1
9.465343,9.553407,92,71,1
9.553407,9.641902,90,70,1
9.641902,9.730397,88,69,1
9.730397,9.817692,87,68,1
9.817692,9.905928,90,67,1
9.905928,9.994423,85,66,1
9.994423,10.082314,84,68,1
10.082314,10.170206,87,63,1
10.170206,10.258701,81,63,1
10.258701,10.34685,80,63,1
10.34685,10.43457,78,60,1
10.43457,10.522289,81,58,1
10.522289,10.610008,76,54,1
10.610008,10.697728,75,54,1
10.697728,10.785957,78,53,1
10.785957,10.874548,73,48,1
10.874548,10.963407,72,48,1
10.963407,11.052813,75,47,1
11.052813,11.143891,69,45,1
11.143891,11.236905,68,42,1
11.236905,11.331831,71,42,1
11.331831,11.534553,69,41,1
11.534553,11.622443,68,37,1
11.622443,11.710422,69,41,1
11.710422,11.799707,68,38,1
11.799707,11.889259,67,39,1
11.889259,11.978195,68,40,1
11.978195,12.066257,73,42,1
12.066257,12.154234,76,43,1
12.154234,12.24308,75,45,1
12.24308,12.332277,73,43,1
12.332277,12.421035,75,45,1
12.421035,12.509098,73,43,1
12.509098,12.597334,72,44,1
12.597334,12.686004,73,46,1
12.686004,12.774761,76,49,1
12.774761,12.881054,80,47,1
12.981799,13.070557,68,45,1
13.070557,13.159227,70,49,1
13.159227,13.24781,68,45,1
13.24781,13.33692,67,46,1
13.33692,13.425416,68,48,1
13.425416,13.513565,73,50,1
13.513565,13.602763,76,51,1
13.602763,13.692049,75,54,1
13.692049,13.78072,73,51,1
13.78072,13.868955,75,53,1
13.868955,13.957018,73,51,1
13.957018,14.045952,72,52,1
14.045952,14.1349745,73,54,1
14.1349745,14.2235565,76,57,1
14.2235565,14.329849,80,55,1
14.329849,14.430271,75,64,1
14.430271,14.5206,76,58,1
14.5206,14.610373,75,61,1
14.610373,14.699687,74,50,1
14.699687,14.789185,75,56,1
14.789185,14.878407,83,68,1
14.878407,14.967357,82,62,1
14.967357,15.056036,80,65,1
15.056036,15.143761,79,69,1
15.143761,15.231825,88,73,1
15.231825,15.320321,87,72,1
15.320321,15.40873,85,72,1
15.40873,15.496194,83,75,1
15.496194,15.584516,82,69,1
15.584516,15.673012,80,68,1
15.673012,15.761507,79,68,1
15.761507,15.850002,82,72,1
15.850002,15.937895,80,70,1
15.937895,16.025616,83,64,1
16.025616,16.114023,74,57,1
16.114023,16.202518,76,65,1
16.202518,16.289906,75,57,1
16.289906,16.376947,80,63,1
16.376947,16.464666,70,57,1
16.464666,16.552896,73,61,1
16.552896,16.641487,71,59,1
16.641487,16.730347,75,58,1
16.730347,16.819752,67,56,1
16.819752,16.911259,70,60,1
16.911259,17.005177,68,51,1
17.005177,17.101944,67,55,1
17.101944,17.203371,68,50,1
17.203371,17.308222,68,72,1
17.308222,17.411896,80,58,1
17.411896,17.514881,72,59,1
17.514881,17.617184,73,59,1
17.617184,17.718702,66,71,1
17.718702,17.819773,78,60,1
17.819773,17.920673,72,60,1
17.920673,18.02147,73,61,1
18.02147,18.122053,65,75,1
18.122053,18.222742,77,62,1
18.222742,18.323645,72,63,1
18.323645,18.424763,73,63,1
18.424763,18.525991,66,74,1
18.525991,18.627867,78,65,1
18.627867,18.73096,72,64,1
18.73096,18.835297,73,64,1
18.835297,18.938503,61,77,1
18.938503,19.03941,73,65,1
19.03941,19.140312,66,65,1
19.140312,19.241213,69,65,1
19.241213,19.342113,63,75,1
19.342113,19.443016,75,65,1
19.443016,19.543812,66,65,1
19.543812,19.644394,69,65,1
19.644394,19.74519,64,79,1
19.74519,19.8462,76,66,1
19.8462,19.94743,68,66,1
19.94743,20.048979,71,66,1
20.048979,20.150745,68,77,1
20.150745,20.25328,80,67,1
20.25328,20.356821,71,66,1
20.356821,20.4607,76,65,1
20.4607,20.56225,68,81,1
20.56225,20.663801,80,65,1
20.663801,20.765244,72,65,1
20.765244,20.866472,73,65,1
20.866472,20.9677,66,78,1
20.9677,21.06871,78,65,1
21.06871,21.169611,72,65,1
21.169611,21.270407,73,65,1
21.270407,21.37099,65,79,1
21.37099,21.47168,77,66,1
21.47168,21.572582,72,66,1
21.572582,21.6737,73,66,1
21.6737,21.77493,66,77,1
21.77493,21.876804,78,67,1
21.876804,21.979898,72,66,1
21.979898,22.084234,73,65,1
22.084234,22.1871,65,81,1
22.1871,22.289967,77,65,1
22.289967,22.392723,71,65,1
22.392723,22.495935,75,65,1
22.495935,22.601315,66,78,1
22.601315,22.708237,78,65,1
22.708237,22.818008,71,65,1
22.818008,22.933247,75,65,1
22.933247,23.038275,69,79,1
23.038275,23.144003,81,66,1
23.144003,23.250444,71,66,1
23.250444,23.357609,76,66,1
23.357609,23.465374,68,77,1
23.465374,23.573631,80,67,1
23.573631,23.68226,71,66,1
23.68226,23.790655,76,65,1
23.790655,23.892204,68,52,1
23.892204,23.993755,80,57,1
23.993755,24.095198,72,47,1
24.095198,24.196426,73,47,1
24.196426,24.297653,66,49,1
24.297653,24.398664,78,54,1
24.398664,24.499565,72,48,1
24.499565,24.60036,73,48,1
24.60036,24.700945,65,51,1
24.700945,24.801634,77,56,1
24.801634,24.902536,72,50,1
24.902536,25.003654,73,50,1
25.003654,25.104883,66,53,1
25.104883,25.206758,78,58,1
25.206758,25.309853,72,51,1
25.309853,25.414188,73,51,1
25.414188,25.517397,61,55,1
25.517397,25.618301,73,60,1
25.618301,25.719204,66,52,1
25.719204,25.820105,69,53,1
25.820105,25.921007,63,55,1
25.921007,26.021908,75,62,1
26.021908,26.122704,66,54,1
26.122704,26.223288,69,54,1
26.223288,26.324083,64,57,1
26.324083,26.425093,76,65,1
26.425093,26.526321,68,56,1
26.526321,26.62787,71,56,1
26.62787,26.729637,68,60,1
26.729637,26.832172,80,68,1
26.832172,26.935715,71,57,1
26.935715,27.038698,76,58,1
27.038698,27.14112,68,62,1
27.14112,27.243214,80,68,1
27.243214,27.34498,72,59,1
27.34498,27.44653,73,59,1
27.44653,27.547758,66,62,1
27.547758,27.64866,78,70,1
27.64866,27.749243,72,61,1
27.749243,27.849504,73,61,1
27.849504,27.950191,75,64,1
27.950191,28.051203,87,73,1
28.051203,28.152431,78,62,1
28.152431,28.25398,81,62,1
28.25398,28.355747,73,66,1
28.355747,28.458282,85,74,1
28.458282,28.561823,78,62,1
28.561823,28.665255,81,62,1
28.665255,28.76779,73,64,1
28.76779,28.869991,85,73,1
28.869991,28.971973,75,61,1
28.971973,29.07374,78,61,1
29.07374,29.175184,72,64,1
29.175184,29.276411,84,71,1
29.276411,29.377314,75,60,1
29.377314,29.478003,78,59,1
29.478003,29.578264,72,60,1
29.578264,29.678846,84,69,1
29.678846,29.779749,75,58,1
29.779749,29.880978,78,58,1
29.880978,29.982527,72,61,1
29.982527,30.084402,84,68,1
30.084402,30.186602,75,57,1
30.186602,30.289139,78,56,1
30.289139,30.391953,72,57,1
30.391953,30.494152,84,65,1
30.494152,30.596136,75,55,1
30.596136,30.697903,78,55,1
30.697903,30.799345,71,58,1
30.799345,30.900574,83,64,1
30.900574,31.001474,75,53,1
31.001474,31.102165,78,53,1
31.102165,31.202425,71,54,1
31.202425,31.303009,83,62,1
31.303009,31.40391,75,52,1
31.40391,31.505138,78,52,1
31.505138,31.60669,70,54,1
31.60669,31.708563,82,60,1
31.708563,31.810764,75,50,1
31.810764,31.9133,78,50,1
31.9133,32.01634,70,55,1
32.02145,32.12365,82,49,1
32.118538,32.220524,75,48,1
32.220524,32.32229,78,48,1
32.32229,32.423733,69,53,1
32.428795,32.530006,81,48,1
32.52496,32.625862,75,47,1
32.625862,32.72655,78,47,1
32.72655,32.826813,69,52,1
32.826813,32.927395,81,49,1
32.927395,33.028297,75,45,1
33.028297,33.129475,78,45,1
33.129475,33.231552,69,51,1
33.231552,33.33546,81,47,1
33.33546,33.44139,75,44,1
33.44139,33.549168,78,44,1
33.549168,33.65757,72,52,1
33.66298,33.77084,84,47,1
33.76547,33.87274,75,46,1
33.87274,33.979523,78,46,1
33.979523,34.085693,71,49,1
34.085693,34.19138,83,44,1
34.19138,34.296463,75,44,1
34.296463,34.401077,78,44,1
34.401077,34.505337,71,48,1
34.505337,34.61007,83,45,1
34.61007,34.715515,75,42,1
34.715515,34.821564,78,42,1
34.821564,34.92834,70,47,1
34.92834,35.035744,82,43,1
35.035744,35.143764,75,40,1
35.143764,35.253326,78,40,1
35.253326,35.363136,70,46,1
35.363136,35.472565,82,42,1
35.472565,35.5816,75,41,1
35.5816,35.690258,78,41,1
35.690258,35.798534,69,44,1
35.798534,35.906433,81,40,1
35.906433,36.013954,75,40,1
36.013954,36.121105,78,39,1
36.121105,36.228256,69,43,1
36.228256,36.33717,81,40,1
36.33717,36.448036,75,37,1
36.448036,36.560925,78,37,1
36.560925,36.67577,68,42,1
36.67577,36.792786,80,38,1
36.792786,36.912064,75,36,1
36.912064,37.03353,78,35,1
37.135605,37.224052,68,37,1
37.224052,37.311775,69,41,1
37.311775,37.39958,68,38,1
37.39958,37.488075,67,39,1
37.488075,37.575623,68,40,1
37.575623,37.663258,73,42,1
37.663258,37.751667,76,43,1
37.751667,37.839302,75,45,1
37.839302,37.92685,73,43,1
37.92685,38.015434,75,45,1
38.015434,38.1035,73,43,1
38.1035,38.19139,72,44,1
38.19139,38.2798,73,46,1
38.2798,38.367775,76,49,1
38.367775,38.477455,80,47,1
38.5782,38.6667,68,45,1
38.6667,38.75519,69,49,1
38.75519,38.843254,68,45,1
38.843254,38.93219,67,46,1
38.93219,39.020683,68,48,1
39.020683,39.109005,73,50,1
39.109005,39.19733,76,51,1
39.19733,39.285305,75,54,1
39.285305,39.37363,73,51,1
39.37363,39.46152,75,53,1
39.46152,39.55019,73,51,1
39.55019,39.63808,72,52,1
39.63808,39.726143,73,54,1
39.726143,39.81438,76,57,1
39.81438,39.921776,80,55,1
40.022522,40.11285,69,56,1
40.11285,40.20262,73,57,1
40.20262,40.291935,75,59,1
40.291935,40.381435,78,61,1
40.381435,40.470657,81,66,1
40.470657,40.55961,85,69,1
40.55961,40.648197,87,71,1
40.648197,40.735916,95,73,1
40.735916,40.82476,93,71,1
40.82476,40.913433,92,71,1
40.913433,41.001495,90,70,1
41.001495,41.09008,88,69,1
41.09008,41.17893,87,68,1
41.17893,41.26699,90,67,1
41.26699,41.35566,85,67,1
41.35566,41.443985,84,68,1
41.443985,41.531788,87,64,1
41.531788,41.620285,81,65,1
41.620285,41.708347,80,65,1
41.708347,41.796413,78,64,1
41.796413,41.88517,81,62,1
41.88517,41.973408,76,59,1
41.973408,42.061382,75,59,1
42.061382,42.149612,78,59,1
42.149612,42.2382,73,55,1
42.2382,42.32706,72,55,1
42.32706,42.416466,75,55,1
42.416466,42.507545,69,54,1
42.507545,42.60056,68,51,1
42.60056,42.695694,71,51,1
42.695694,42.89429,69,50,1
42.89429,42.982613,68,47,1
42.982613,43.070335,69,51,1
43.070335,43.158916,68,47,1
43.158916,43.247414,67,48,1
43.247414,43.335133,68,49,1
43.335133,43.423283,73,51,1
43.423283,43.51178,76,52,1
43.51178,43.59993,75,54,1
43.59993,43.688423,73,51,1
43.688423,43.77675,75,53,1
43.77675,43.86481,73,51,1
43.86481,43.953655,72,51,1
43.953655,44.042152,73,53,1
44.042152,44.130646,76,57,1
44.130646,44.24162,80,54,1
44.24162,44.334545,76,52,1
44.334545,44.422825,75,48,1
44.422825,44.510803,76,52,1
44.510803,44.599735,75,48,1
44.599735,44.68832,74,49,1
44.68832,44.776382,75,50,1
44.776382,44.86505,78,53,1
44.86505,44.95372,81,54,1
44.95372,45.041527,78,56,1
45.041527,45.12959,77,54,1
45.12959,45.21835,78,56,1
45.21835,45.306583,77,54,1
45.306583,45.39439,76,54,1
45.39439,45.482883,77,56,1
45.482883,45.57138,80,59,1
45.57138,45.68468,85,57,1
45.778473,45.866882,73,50,1
45.866882,45.95486,74,55,1
45.95486,46.04301,73,51,1
46.04301,46.13159,72,52,1
46.13159,46.21957,73,53,1
46.21957,46.308327,78,56,1
46.308327,46.396564,81,57,1
46.396564,46.484627,78,59,1
46.484627,46.57321,77,56,1
46.57321,46.661533,78,59,1
46.661533,46.749336,77,57,1
46.749336,46.837486,76,57,1
46.837486,46.925724,77,59,1
46.925724,47.013958,80,63,1
47.013958,47.124035,85,59,1
47.124035,47.21696,80,58,1
47.21696,47.305676,78,53,1
47.305676,47.394173,80,58,1
47.394173,47.48232,78,54,1
47.48232,47.569954,77,55,1
47.569954,47.65759,78,56,1
47.65759,47.74617,81,59,1
47.74617,47.833893,85,60,1
47.833893,47.921955,81,63,1
47.921955,48.0108,80,59,1
48.0108,48.098866,81,62,1
48.098866,48.1871,80,60,1
48.1871,48.275337,79,60,1
48.275337,48.3634,80,62,1
48.3634,48.451633,84,66,1
48.451633,48.570606,87,63,1
48.570606,48.662384,80,69,1
48.662384,48.75272,81,64,1
48.75272,48.842495,80,67,1
48.842495,48.93181,79,58,1
48.93181,49.021305,80,62,1
49.021305,49.110527,88,71,1
49.110527,49.19948,87,71,1
49.19948,49.288177,86,70,1
49.288177,49.376804,85,69,1
49.376804,49.465473,84,69,1
49.465473,49.554344,83,68,1
49.554344,49.643303,82,67,1
49.643303,49.732437,81,67,1
49.732437,49.821693,80,66,1
49.821693,49.91108,79,65,1
49.91108,50.000996,78,64,1
50.000996,50.09183,76,69,1
50.09183,50.181816,78,64,1
50.181816,50.27159,76,67,1
50.27159,50.360905,75,58,1
50.360905,50.4504,76,62,1
50.4504,50.539623,88,71,1
50.539623,50.628574,87,71,1
50.628574,50.717255,86,70,1
50.717255,50.805374,85,70,1
50.805374,50.893745,84,71,1
50.893745,50.982372,83,71,1
50.982372,51.071503,82,72,1
51.071503,51.16141,81,73,1
51.16141,51.25211,80,74,1
51.25211,51.343613,79,75,1
51.343613,51.43585,78,76,1
51.43585,51.48201,80,76,1
51.620495,51.712822,92,85,1
51.712822,51.805145,91,85,1
51.805145,51.89453,90,84,1
51.89453,51.983917,89,84,1
51.983917,52.073307,88,83,1
52.073307,52.162693,87,83,1
52.162693,52.252342,86,82,1
52.252342,52.341988,85,81,1
52.341988,52.431637,84,81,1
52.431637,52.521286,83,80,1
52.521286,52.611195,82,80,1
52.611195,52.7011,81,79,1
52.7011,52.791004,80,79,1
52.791004,52.881,79,78,1
52.881,52.971172,78,77,1
52.971172,53.061344,77,77,1
53.061344,53.151516,76,77,1
53.151516,53.241684,75,77,1
53.241684,53.331856,74,77,1
53.331856,53.422028,73,77,1
53.422028,53.5122,72,77,1
53.5122,53.60237,71,77,1
53.60237,53.692543,70,77,1
53.692543,53.782715,69,78,1
53.782715,53.872883,68,80,1
53.872883,53.963142,67,82,1
53.963142,54.05384,66,85,1
54.05384,54.145348,64,87,1
54.145348,54.23767,63,90,1
54.23767,54.33083,61,92,1
54.33083,54.42964,56,94,1
54.726086,54.82459,93,90,1
54.82459,54.922466,92,81,1
54.922466,55.020138,100,77,1
55.020138,55.117706,88,77,1
55.117706,55.21497,90,90,1
55.21497,55.31213,88,77,1
55.31213,55.409084,97,77,1
55.409084,55.50584,85,77,1
55.50584,55.602497,87,89,1
55.602497,55.69885,85,77,1
55.69885,55.7951,92,77,1
55.7951,55.891155,80,77,1
55.891155,55.98574,81,89,1
55.98574,56.080322,80,77,1
56.080322,56.174908,88,77,1
56.174908,56.26949,76,77,1
56.26949,56.364075,78,88,1
56.364075,56.458656,76,77,1
56.458656,56.55324,85,77,1
56.55324,56.647823,73,77,1
56.647823,56.74241,75,89,1
56.74241,56.83699,73,77,1
56.83699,56.931576,80,77,1
56.931576,57.026157,68,77,1
57.026157,57.120743,69,90,1
57.120743,57.215324,68,77,1
57.215324,57.30991,76,77,1
57.30991,57.40449,64,77,1
57.40449,57.50206,66,88,1
57.50206,57.59963,64,77,1
57.59963,57.697193,73,77,1
57.697193,57.79476,61,77,1
57.79476,57.890224,63,89,1
57.890224,57.985687,61,77,1
57.985687,58.08115,68,77,1
58.08115,58.176613,56,77,1
58.176613,58.273567,63,89,1
58.273567,58.37052,61,77,1
58.37052,58.467476,68,77,1
58.467476,58.564434,56,77,1
58.564434,58.66139,63,89,1
58.66139,58.758343,61,77,1
58.758343,58.8553,69,77,1
58.8553,58.951466,57,77,1
58.951466,59.04903,63,89,1
59.04903,59.14691,61,75,1
59.14691,59.2452,68,74,1
59.2452,59.34381,56,73,1
59.34381,59.442837,63,83,1
59.442837,59.542183,61,71,1
59.542183,59.641956,67,71,1
59.641956,59.742268,55,70,1
59.742268,59.844345,63,79,1
59.844345,59.94849,61,68,1
59.94849,60.054787,68,67,1
60.054787,60.16332,56,66,1
60.16332,60.274998,63,75,1
60.274998,60.39174,60,63,1
60.39174,60.51402,68,63,1
60.51402,60.641666,56,62,1
66.03366,67.41926,68,45,1
67.41926,67.50367,70,42,1
67.50367,67.58808,72,42,1
67.58808,67.77523,70,46,1
67.77523,68.11288,68,45,1
68.11288,68.45052,73,45,1
68.45052,68.80968,75,48,1
68.80968,70.19808,77,51,1
70.88083,71.57523,68,49,1
70.19808,71.57523,80,56,1
71.57523,72.28128,78,53,1
72.28128,72.979355,77,51,1
72.979355,73.66972,75,49,1
73.66972,74.20865,77,51,1
74.20865,74.44302,73,47,1
74.44302,75.89619,68,48,1
75.89619,78.73642,70,48,1
78.73642,78.82083,71,42,1
78.82083,78.90524,73,42,1
78.90524,79.09239,71,46,1
79.09239,79.43922,70,45,1
79.43922,79.78603,75,45,1
79.78603,80.14519,77,48,1
80.14519,80.83939,78,51,1
80.83939,81.53359,77,50,1
81.53359,82.21634,75,51,1
82.21634,82.91074,77,49,1
82.91074,83.96981,73,48,1
83.96981,84.06659,72,49,1
84.06659,84.16336,73,45,1
84.16336,84.26013,75,45,1
84.26013,84.35691,73,45,1
84.35691,85.441246,77,50,1
85.441246,85.8729,75,49,1
85.8729,88.81712,75,47,1
88.81712,90.24893,68,45,1
90.24893,90.33334,70,42,1
90.33334,90.417755,72,42,1
90.417755,90.604904,70,46,1
90.604904,90.94776,68,45,1
90.94776,91.29062,73,45,1
91.29062,91.64977,75,48,1
91.64977,93.03818,77,51,1
93.720924,94.41532,68,49,1
93.03818,94.41532,80,56,1
94.41532,95.12137,78,53,1
95.12137,95.81945,77,51,1
95.81945,96.164635,75,49,1
96.164635,96.26204,77,47,1
96.26204,96.35944,75,47,1
96.35944,96.45684,73,47,1
96.45684,96.554245,75,47,1
96.554245,97.120285,77,51,1
97.120285,97.358376,73,47,1
97.358376,98.7933,68,48,1
98.7933,101.63353,70,48,1
101.63353,101.71794,71,42,1
101.71794,101.80235,73,42,1
101.80235,101.9895,71,46,1
101.9895,102.33236,70,45,1
102.33236,102.67522,75,45,1
102.67522,103.03437,77,48,1
103.03437,103.72857,78,51,1
103.72857,104.422775,77,50,1
104.422775,105.10552,75,51,1
105.10552,105.79992,77,49,1
105.79992,106.85899,73,48,1
106.85899,106.95899,67,49,1
106.95899,107.059,68,45,1
107.059,107.159,70,45,1
107.159,107.258995,68,45,1
107.258995,108.37011,77,50,1
108.37011,108.804886,75,49,1
108.804886,110.250984,75,52,1
110.250984,110.98411,73,52,1
111.35653,111.711555,80,60,1
111.711555,113.16487,68,65,1
113.16487,113.254135,70,65,1
113.254135,113.3434,72,59,1
113.3434,113.43266,70,60,1
113.43266,113.52193,72,59,1
113.52193,113.581436,70,56,1
113.581436,113.640945,72,56,1
113.640945,113.700455,70,56,1
113.700455,113.87898,69,62,1
113.87898,114.42205,70,64,1
114.42205,114.60806,72,62,1
114.60806,114.95907,68,66,1
115.31007,116.23634,84,66,1
116.23634,116.44016,82,63,1
116.44016,116.64398,80,62,1
116.64398,116.84781,76,61,1
116.84781,117.05311,73,59,1
117.05311,117.38781,70,58,1
117.38781,117.56825,80,55,1
117.56825,118.93073,63,66,1
118.93073,119.02156,72,59,1
119.02156,119.55715,70,64,1
119.55715,119.73568,69,57,1
119.73568,120.27875,70,64,1
120.27875,120.46476,75,62,1
120.46476,121.16676,68,65,1
121.87866,122.62613,70,39,1
122.62613,122.871155,73,44,1
122.871155,123.12077,72,39,1
123.12077,123.375145,70,39,1
123.375145,124.783646,68,43,1
124.783646,124.85423,70,46,1
124.85423,124.924515,72,42,1
124.924515,124.99428,70,42,1
124.99428,125.063545,72,44,1
125.063545,125.13235,70,42,1
125.13235,125.475204,68,41,1
125.475204,125.81806,73,45,1
125.81806,126.17721,75,48,1
126.17721,127.56562,77,51,1
128.24837,128.94276,68,49,1
127.56562,128.94276,80,56,1
128.94276,129.64882,78,53,1
129.64882,130.3469,77,51,1
130.3469,130.69208,75,49,1
130.69208,130.77837,77,47,1
130.77837,130.86467,75,47,1
130.86467,130.95096,73,47,1
130.95096,131.03726,75,47,1
131.03726,131.38245,77,51,1
131.38245,131.7439,73,47,1
131.7439,133.1788,68,48,1
133.1788,136.01904,70,48,1
136.01904,136.09041,71,45,1
136.09041,136.16127,73,42,1
136.16127,136.23164,71,41,1
136.23164,136.30156,73,42,1
136.30737,136.37653,71,42,1
136.37082,136.71367,70,45,1
136.71367,137.05653,75,45,1
137.05653,137.41568,77,48,1
137.41568,138.1099,78,51,1
138.1099,138.8041,77,50,1
138.8041,139.48685,75,51,1
139.48685,140.18124,77,49,1
140.18124,141.24031,73,48,1
141.24031,141.33708,67,49,1
141.33708,141.43385,68,45,1
141.43385,141.53064,70,45,1
141.53064,141.62741,68,45,1
141.62741,142.70525,77,50,1
142.70525,143.11905,75,49,1
143.11905,144.56514,75,52,1
144.56514,145.29826,73,52,1
145.67068,146.02571,80,60,1
146.02571,147.47902,68,65,1
147.47902,147.56458,70,65,1
147.56458,147.64917,72,59,1
147.64917,147.73265,70,60,1
147.73265,147.81506,72,59,1
147.81506,147.87718,70,56,1
147.87718,147.9393,72,56,1
147.9393,148.0014,70,56,1
148.0014,148.17787,69,62,1
148.17787,148.71683,70,64,1
148.71683,148.90285,72,62,1
148.90285,149.25385,68,66,1
149.60484,150.53111,84,66,1
150.53111,150.73494,82,63,1
150.73494,150.93877,80,62,1
150.93877,151.14258,76,61,1
151.14258,151.34789,73,59,1
151.34789,151.68259,70,58,1
151.68259,151.86302,80,55,1
151.86302,153.22551,63,66,1
153.22551,153.31633,72,59,1
153.31633,153.85193,70,64,1
153.85193,154.03046,69,57,1
154.03046,154.57352,70,64,1
154.57352,154.75954,75,62,1
154.75954,155.46153,68,65,1
156.17343,156.9209,70,39,1
156.9209,157.166,73,44,1
157.166,157.4111,72,39,1
157.4111,157.65619,70,39,1
157.65619,159.06252,68,43,1
159.06252,159.13345,70,47,1
159.13345,159.2039,72,43,1
159.2039,159.27386,70,43,1
159.27386,159.34337,72,43,1
159.34337,159.4124,70,43,1
159.4124,159.75526,68,45,1
159.75526,160.09811,73,45,1
160.09811,160.45728,75,48,1
160.45728,161.84567,77,51,1
162.52843,163.22282,68,49,1
161.84567,163.22282,80,56,1
163.22282,163.92886,78,53,1
163.92886,164.62695,77,51,1
164.62695,164.97214,75,49,1
164.97214,165.0609,77,47,1
165.0609,165.14964,75,47,1
165.14964,165.2384,73,47,1
165.2384,165.32716,75,47,1
165.32716,165.68219,77,51,1
165.68219,166.06436,73,47,1
166.06436,167.5036,68,48,1
167.5036,170.34384,70,48,1
170.34384,170.41478,71,48,1
170.41478,170.48523,73,42,1
170.48523,170.55519,71,43,1
170.55519,170.6247,73,42,1
170.6247,170.69356,71,42,1
170.69356,171.03642,70,45,1
171.03642,171.37927,75,45,1
171.37927,171.73843,77,48,1
171.73843,172.43263,78,51,1
172.43263,173.12683,77,47,1
173.12683,173.80959,75,49,1
173.80959,174.5146,77,45,1
174.5146,175.6055,73,43,1
175.6055,175.70967,67,44,1
175.70967,175.81384,68,40,1
175.81384,175.918,70,40,1
175.918,176.02217,68,40,1
176.02217,177.15425,77,45,1
177.15425,177.5652,75,44,1
177.5652,180.68555,75,44,1
180.77386,180.86235,68,37,1
180.86235,180.95139,69,41,1
180.95139,181.03987,68,38,1
181.03987,181.12769,67,39,1
181.12769,181.21626,68,40,1
181.21626,181.30528,73,42,1
181.30528,181.39404,76,43,1
181.39404,181.4821,75,45,1
181.4821,181.57086,73,43,1
181.57086,181.65971,75,45,1
181.65971,181.74883,73,43,1
181.74883,181.83829,72,44,1
181.83829,181.92686,73,46,1
181.92686,182.01537,76,49,1
182.01537,182.12038,80,47,1
182.22128,182.3101,68,45,1
182.3101,182.39816,69,49,1
182.39816,182.48683,68,45,1
182.48683,182.57559,67,46,1
182.57559,182.66426,68,48,1
182.66426,182.75337,73,50,1
182.75337,182.84152,76,51,1
182.84152,182.92993,75,54,1
182.92993,183.01869,73,51,1
183.01869,183.10692,75,53,1
183.10692,183.1949,73,51,1
183.1949,183.28305,72,52,1
183.28305,183.37172,73,54,1
183.37172,183.46048,76,57,1
183.46048,183.56514,80,55,1
183.66638,183.75685,69,56,1
183.75685,183.84677,73,58,1
183.84677,183.93623,75,60,1
183.93623,184.02588,78,63,1
184.02588,184.11523,81,63,1
184.11523,184.20433,85,66,1
184.20433,184.29315,87,72,1
184.29315,184.38127,95,76,1
184.38127,184.469,93,75,1
184.469,184.55722,92,70,1
184.55722,184.64581,90,69,1
184.64581,184.73361,88,68,1
184.73361,184.82237,87,67,1
184.82237,184.91095,90,66,1
184.91095,184.99858,85,67,1
184.99858,185.08675,84,68,1
185.08675,185.17516,87,63,1
185.17516,185.26295,81,63,1
185.26295,185.35155,80,63,1
185.35155,185.44022,78,60,1
185.44022,185.52827,81,58,1
185.52827,185.6166,76,54,1
185.6166,185.70493,75,54,1
185.70493,185.79329,78,53,1
185.79329,185.88203,73,48,1
185.88203,185.97102,72,48,1
185.97102,186.06058,75,47,1
186.06058,186.15181,69,45,1
186.15181,186.24496,68,42,1
186.24496,186.34004,71,42,1
186.34004,186.54309,69,41,1
186.54309,186.63115,68,37,1
186.63115,186.71939,69,41,1
186.71939,186.8085,68,38,1
186.8085,186.89682,67,39,1
186.89682,186.98506,68,40,1
186.98506,187.07364,73,42,1
187.07364,187.16284,76,43,1
187.16284,187.25159,75,45,1
187.25159,187.33966,73,43,1
187.33966,187.42772,75,45,1
187.42772,187.51648,73,43,1
187.51648,187.60498,72,44,1
187.60498,187.69347,73,46,1
187.69347,187.78223,76,49,1
187.78223,187.88869,80,47,1
187.9896,188.07867,68,45,1
188.07867,188.16708,70,49,1
188.16708,188.25514,68,45,1
188.25514,188.34435,67,46,1
188.34435,188.43318,68,48,1
188.43318,188.52159,73,50,1
188.52159,188.60992,76,51,1
188.60992,188.69894,75,54,1
188.69894,188.78806,73,51,1
188.78806,188.87628,75,53,1
188.87628,188.96504,73,51,1
188.96504,189.05406,72,52,1
189.05406,189.14282,73,54,1
189.14282,189.23132,76,57,1
189.23132,189.33778,80,55,1
189.33778,189.43835,75,64,1
189.43835,189.52884,76,58,1
189.52884,189.61876,75,61,1
189.61876,189.70822,74,50,1
189.70822,189.79785,75,56,1
189.79785,189.88722,83,68,1
189.88722,189.97632,82,62,1
189.97632,190.06444,80,65,1
190.06444,190.15164,79,68,1
190.15164,190.23927,88,72,1
190.23927,190.32803,87,69,1
190.32803,190.41609,85,69,1
190.41609,190.50356,83,74,1
190.50356,190.59163,82,69,1
190.59163,190.68004,80,69,1
190.68004,190.76793,79,69,1
190.76793,190.85582,82,72,1
190.85582,190.94405,80,70,1
190.94405,191.03168,83,64,1
191.03168,191.11906,74,57,1
191.11906,191.20695,76,65,1
191.20695,191.29562,75,57,1
191.29562,191.38394,80,63,1
191.38394,191.47218,70,57,1
191.47218,191.56056,73,61,1
191.56056,191.64929,71,59,1
191.64929,191.7383,75,58,1
191.7383,191.82784,67,56,1
191.82784,191.9195,70,60,1
191.9195,192.01357,68,51,1
192.01357,192.1105,67,55,1
192.1105,192.2121,68,50,1
192.2121,192.31711,68,72,1
192.31711,192.42094,80,58,1
192.42094,192.52411,72,59,1
192.52411,192.62657,73,59,1
192.62657,192.72826,66,71,1
192.72826,192.82948,78,60,1
192.82948,192.93054,72,60,1
192.93054,193.0315,73,61,1
193.0315,193.13223,65,75,1
193.13223,193.23308,77,62,1
193.23308,193.33414,72,63,1
193.33414,193.43541,73,63,1
193.43541,193.53679,66,74,1
193.53679,193.63884,78,65,1
193.63884,193.7421,72,64,1
193.7421,193.8466,73,64,1
193.8466,193.94997,61,77,1
193.94997,194.05104,73,65,1
194.05104,194.1521,66,65,1
194.1521,194.25316,69,65,1
194.25316,194.35422,63,75,1
194.35422,194.45528,75,65,1
194.45528,194.55621,66,65,1
194.55621,194.65695,69,65,1
194.65695,194.7579,64,79,1
194.7579,194.85909,76,66,1
194.85909,194.96046,68,66,1
194.96046,195.06218,71,66,1
195.06218,195.16411,68,77,1
195.16411,195.2668,80,67,1
195.2668,195.37051,71,66,1
195.37051,195.47456,76,65,1
195.47456,195.57628,68,81,1
195.57628,195.678,80,65,1
195.678,195.77959,72,65,1
195.77959,195.88098,73,65,1
195.88098,195.98236,66,78,1
195.98236,196.08353,78,65,1
196.08353,196.18459,72,65,1
196.18459,196.28554,73,65,1
196.28554,196.38628,65,79,1
196.38628,196.48712,77,66,1
196.48712,196.58818,72,66,1
196.58818,196.68945,73,66,1
196.68945,196.79085,66,77,1
196.79085,196.89288,78,67,1
196.89288,196.99614,72,66,1
196.99614,197.10065,73,65,1
197.10065,197.20367,65,81,1
197.20367,197.3067,77,65,1
197.3067,197.40962,71,65,1
197.40962,197.513,75,65,1
197.513,197.61855,66,78,1
197.61855,197.72563,78,65,1
197.72563,197.83559,71,65,1
197.83559,197.951,75,65,1
197.951,198.05621,69,79,1
198.05621,198.16211,81,66,1
198.16211,198.2687,71,66,1
198.2687,198.37605,76,66,1
198.37605,198.48398,68,77,1
198.48398,198.5924,80,67,1
198.5924,198.70122,71,66,1
198.70122,198.80978,76,65,1
198.80978,198.9115,68,52,1
198.9115,199.01321,80,57,1
199.01321,199.11482,72,47,1
199.11482,199.2162,73,47,1
199.2162,199.31758,66,49,1
199.31758,199.41876,78,54,1
199.41876,199.5198,72,48,1
199.5198,199.62076,73,48,1
199.62076,199.7215,65,51,1
199.7215,199.82234,77,56,1
199.82234,199.9234,72,50,1
199.9234,200.02469,73,50,1
200.02469,200.12607,66,53,1
200.12607,200.2281,78,58,1
200.2281,200.33136,72,51,1
200.33136,200.43587,73,51,1
200.43587,200.53925,61,55,1
200.53925,200.6403,73,60,1
200.6403,200.74136,66,52,1
200.74136,200.84242,69,53,1
200.84242,200.94348,63,55,1
200.94348,201.04454,75,62,1
201.04454,201.1455,66,54,1
201.1455,201.24623,69,54,1
201.24623,201.34718,64,57,1
201.34718,201.44835,76,65,1
201.44835,201.54973,68,56,1
201.54973,201.65144,71,56,1
201.65144,201.75337,68,60,1
201.75337,201.85608,80,68,1
201.85608,201.9598,71,57,1
201.9598,202.06293,76,58,1
202.06293,202.16551,68,62,1
202.16551,202.26778,80,68,1
202.26778,202.3697,72,59,1
202.3697,202.47142,73,59,1
202.47142,202.5728,66,62,1
202.5728,202.67386,78,70,1
202.67386,202.7746,72,61,1
202.7746,202.87503,73,61,1
202.87503,202.97588,75,64,1
202.97588,203.07704,87,73,1
203.07704,203.17842,78,62,1
203.17842,203.28014,81,62,1
203.28014,203.38206,73,66,1
203.38206,203.48476,85,74,1
203.48476,203.58847,78,62,1
203.58847,203.69206,81,62,1
203.69206,203.79477,73,64,1
203.79477,203.89713,85,73,1
203.89713,203.99928,75,61,1
203.99928,204.10121,78,61,1
204.10121,204.2028,72,64,1
204.2028,204.3042,84,71,1
204.3042,204.40526,75,60,1
204.40526,204.5061,78,59,1
204.5061,204.60652,72,60,1
204.60652,204.70726,84,69,1
204.70726,204.80832,75,58,1
204.80832,204.9097,78,58,1
204.9097,205.01141,72,61,1
205.01141,205.11345,84,68,1
205.11345,205.21582,75,57,1
205.21582,205.31851,78,56,1
205.31851,205.4215,72,57,1
205.4215,205.52386,84,65,1
205.52386,205.626,75,55,1
205.626,205.72794,78,55,1
205.72794,205.82954,71,58,1
205.82954,205.93092,83,64,1
205.93092,206.03198,75,53,1
206.03198,206.13283,78,53,1
206.13283,206.23325,71,54,1
206.23325,206.33398,83,62,1
206.33398,206.43504,75,52,1
206.43504,206.53644,78,52,1
206.53644,206.63815,70,54,1
206.63815,206.74019,82,60,1
206.74019,206.84254,75,50,1
206.84254,206.94525,78,50,1
206.94525,207.04845,70,55,1
207.05357,207.15594,82,49,1
207.15082,207.25296,75,48,1
207.25296,207.35489,78,48,1
207.35489,207.4565,69,53,1
207.46156,207.56294,81,48,1
207.55789,207.65894,75,47,1
207.65894,207.75978,78,47,1
207.75978,207.86021,69,52,1
207.86021,207.96095,81,49,1
207.96095,208.06201,75,45,1
208.06201,208.16335,78,45,1
208.16335,208.2656,69,51,1
208.2656,208.36966,81,47,1
208.36966,208.47577,75,44,1
208.47577,208.58371,78,44,1
208.58371,208.69229,72,52,1
208.69771,208.80574,84,47,1
208.80035,208.9078,75,47,1
208.9078,209.01476,78,47,1
209.01476,209.1211,71,51,1
209.1211,209.22694,83,46,1
209.22694,209.3322,75,46,1
209.3322,209.43698,78,46,1
209.43698,209.5414,71,51,1
209.5414,209.6463,83,48,1
209.6463,209.75192,75,45,1
209.75192,209.85814,78,45,1
209.85814,209.96509,70,51,1
209.96509,210.07266,82,47,1
210.07266,210.18085,75,44,1
210.18085,210.29059,78,44,1
210.29059,210.40057,70,52,1
210.40057,210.51016,82,46,1
210.51016,210.61937,75,46,1
210.61937,210.72821,78,45,1
210.72821,210.83665,69,48,1
210.83665,210.94472,81,43,1
210.94472,211.05241,75,42,1
211.05241,211.15973,78,42,1
211.15973,211.26706,69,45,1
211.26706,211.37614,81,42,1
211.37614,211.48718,75,39,1
211.48718,211.60025,78,39,1
211.60025,211.71527,68,43,1
211.71527,211.83249,80,39,1
211.83249,211.95195,75,36,1
211.95195,212.0736,78,36,1
212.17584,212.26451,68,37,1
212.26451,212.35223,69,41,1
212.35223,212.44197,68,38,1
212.44197,212.53224,67,39,1
212.53224,212.6217,68,40,1
212.6217,212.70976,73,42,1
212.70976,212.7981,76,43,1
212.7981,212.88684,75,45,1
212.88684,212.97525,73,43,1
212.97525,213.06358,75,45,1
213.06358,213.1527,73,43,1
213.1527,213.2411,72,44,1
213.2411,213.32959,73,46,1
213.32959,213.41835,76,49,1
213.41835,213.52821,80,47,1
213.62912,213.7182,68,45,1
213.7182,213.80669,69,49,1
213.80669,213.89374,68,45,1
213.89374,213.98276,67,46,1
213.98276,214.07196,68,48,1
214.07196,214.16002,73,50,1
214.16002,214.2486,76,51,1
214.2486,214.33675,75,54,1
214.33675,214.42569,73,51,1
214.42569,214.51532,75,53,1
214.51532,214.60365,73,51,1
214.60365,214.69145,72,52,1
214.69145,214.77995,73,54,1
214.77995,214.86845,76,57,1
214.86845,214.97601,80,55,1
215.07692,215.1674,69,56,1
215.1674,215.25731,73,59,1
215.25731,215.34677,75,62,1
215.34677,215.43642,78,63,1
215.43642,215.52579,81,66,1
215.52579,215.61487,85,69,1
215.61487,215.70355,87,72,1
215.70355,215.79085,95,75,1
215.79085,215.8785,93,73,1
215.8785,215.96725,92,72,1
215.96725,216.05548,90,71,1
216.05548,216.14287,88,71,1
216.14287,216.23083,87,70,1
216.23083,216.31934,90,68,1
216.31934,216.408,85,67,1
216.408,216.49625,84,68,1
216.49625,216.58492,87,63,1
216.58492,216.67264,81,63,1
216.67264,216.7607,80,63,1
216.7607,216.84946,78,60,1
216.84946,216.93726,81,58,1
216.93726,217.02498,76,54,1
217.02498,217.1127,75,54,1
217.1127,217.20108,78,53,1
217.20108,217.28981,73,48,1
217.28981,217.37881,72,48,1
217.37881,217.46835,75,47,1
217.46835,217.55959,69,45,1
217.55959,217.65276,68,42,1
217.65276,217.74803,71,42,1
217.74803,217.94742,69,41,1
217.94742,218.0361,68,37,1
218.0361,218.12381,69,41,1
218.12381,218.21162,68,38,1
218.21162,218.3002,67,39,1
218.3002,218.3887,68,40,1
218.3887,218.47633,73,42,1
218.47633,218.56465,76,43,1
218.56465,218.65341,75,45,1
218.65341,218.74149,73,43,1
218.74149,218.82928,75,45,1
218.82928,218.91795,73,43,1
218.91795,219.00671,72,44,1
219.00671,219.09547,73,46,1
219.09547,219.18422,76,50,1
219.18422,219.29538,80,48,1
219.29538,219.38846,76,46,1
219.38846,219.47704,75,43,1
219.47704,219.56528,76,47,1
219.56528,219.65291,75,43,1
219.65291,219.74123,74,45,1
219.74123,219.83017,75,46,1
219.83017,219.9184,78,49,1
219.9184,220.00612,81,50,1
220.00612,220.09384,78,53,1
220.09384,220.18312,77,51,1
220.18312,220.2712,78,53,1
220.2712,220.35916,77,51,1
220.35916,220.44783,76,52,1
220.44783,220.53616,77,54,1
220.53616,220.62439,80,57,1
220.62439,220.73787,85,56,1
220.83182,220.92058,73,50,1
220.92058,221.00891,74,55,1
221.00891,221.09688,73,51,1
221.09688,221.18582,72,52,1
221.18582,221.27484,73,53,1
221.27484,221.3629,78,56,1
221.3629,221.4507,81,57,1
221.4507,221.5392,78,59,1
221.5392,221.62805,77,56,1
221.62805,221.71585,78,59,1
221.71585,221.80367,77,57,1
221.80367,221.89224,76,57,1
221.89224,221.98074,77,59,1
221.98074,222.06923,80,63,1
222.06923,222.17947,85,59,1
222.17947,222.27255,80,58,1
222.27255,222.3601,78,53,1
222.3601,222.4479,80,58,1
222.4479,222.53694,78,54,1
222.53694,222.6264,77,55,1
222.6264,222.71465,78,56,1
222.71465,222.80287,81,59,1
222.80287,222.89207,85,60,1
222.89207,222.98065,81,63,1
222.98065,223.06863,80,59,1
223.06863,223.15627,81,62,1
223.15627,223.24442,80,60,1
223.24442,223.33266,79,60,1
223.33266,223.42088,80,62,1
223.42088,223.50912,84,66,1
223.50912,223.62828,87,63,1
223.62828,223.7202,80,69,1
223.7202,223.81068,81,64,1
223.81068,223.9006,80,67,1
223.9006,223.99007,79,58,1
223.99007,224.07971,80,62,1
224.07971,224.16907,88,71,1
224.16907,224.25816,87,71,1
224.25816,224.34702,86,70,1
224.34702,224.43578,85,69,1
224.43578,224.52458,84,69,1
224.52458,224.6136,83,68,1
224.6136,224.7027,82,67,1
224.7027,224.79199,81,67,1
224.79199,224.8814,80,66,1
224.8814,224.97093,79,65,1
224.97093,225.06099,78,64,1
225.06099,225.15198,76,69,1
225.15198,225.24211,78,64,1
225.24211,225.33203,76,67,1
225.33203,225.4215,75,58,1
225.4215,225.51112,76,62,1
225.51112,225.6005,88,71,1
225.6005,225.68959,87,71,1
225.68959,225.77841,86,70,1
225.77841,225.86667,85,70,1
225.86667,225.95518,84,71,1
225.95518,226.04395,83,71,1
226.04395,226.13322,82,72,1
226.13322,226.22328,81,73,1
226.22328,226.31413,80,74,1
226.31413,226.40578,79,75,1
226.40578,226.49817,78,76,1
226.49817,226.5444,80,76,1
226.6831,226.77559,92,85,1
226.77559,226.86806,91,85,1
226.86806,226.9576,90,84,1
226.9576,227.04713,89,84,1
227.04713,227.13666,88,83,1
227.13666,227.2262,87,83,1
227.2262,227.316,86,82,1
227.316,227.40579,85,81,1
227.40579,227.49557,84,81,1
227.49557,227.58537,83,80,1
227.58537,227.67543,82,80,1
227.67543,227.76547,81,79,1
227.76547,227.85553,80,79,1
227.85553,227.94568,79,78,1
227.94568,228.036,78,77,1
228.036,228.12633,77,77,1
228.12633,228.21664,76,77,1
228.21664,228.30696,75,77,1
228.30696,228.3973,74,77,1
228.3973,228.48761,73,77,1
228.48761,228.57794,72,77,1
228.57794,228.66826,71,77,1
228.66826,228.75859,70,77,1
228.75859,228.8489,69,80,1
228.8489,228.93922,68,83,1
228.93922,229.02965,67,85,1
229.02965,229.12048,66,87,1
229.12048,229.21214,64,89,1
229.21214,229.30463,63,92,1
229.30463,229.39793,61,94,1
229.39793,229.4969,56,96,1
229.79384,229.8925,93,90,1
229.8925,229.99054,92,81,1
229.99054,230.08836,100,77,1
230.08836,230.1861,88,77,1
230.1861,230.28351,90,90,1
230.28351,230.38083,88,77,1
230.38083,230.47795,97,77,1
230.47795,230.57486,85,77,1
230.57486,230.67168,87,89,1
230.67168,230.76819,85,77,1
230.76819,230.8646,92,77,1
230.8646,230.9608,80,77,1
230.9608,231.05554,81,89,1
231.05554,231.15028,80,77,1
231.15028,231.24501,88,77,1
231.24501,231.33975,76,77,1
231.33975,231.4345,78,88,1
231.4345,231.52924,76,77,1
231.52924,231.62398,85,77,1
231.62398,231.7187,73,77,1
231.7187,231.81345,75,89,1
231.81345,231.90819,73,77,1
231.90819,232.00293,80,77,1
232.00293,232.09767,68,77,1
232.09767,232.1924,69,90,1
232.1924,232.28714,68,77,1
232.28714,232.38188,76,77,1
232.38188,232.47662,64,77,1
232.47662,232.57434,66,88,1
232.57434,232.67207,64,77,1
232.67207,232.7698,73,77,1
232.7698,232.86752,61,77,1
232.86752,232.96315,63,89,1
232.96315,233.05876,61,77,1
233.05876,233.15439,68,77,1
233.15439,233.25002,56,77,1
233.25002,233.34712,63,89,1
233.34712,233.44424,61,77,1
233.44424,233.54137,68,77,1
233.54137,233.63849,56,77,1
233.63849,233.7356,63,89,1
233.7356,233.83272,61,77,1
233.83272,233.92984,69,77,1
233.92984,234.02617,57,77,1
234.02617,234.12389,63,89,1
234.12389,234.22192,61,75,1
234.22192,234.32037,68,74,1
234.32037,234.41914,56,73,1
234.41914,234.51833,63,83,1
234.51833,234.61783,61,71,1
234.61783,234.71777,67,71,1
234.71777,234.81825,55,70,1
234.81825,234.92049,63,79,1
234.92049,235.02481,61,68,1
235.02481,235.13127,68,67,1
235.13127,235.23997,56,66,1
235.23997,235.35182,63,75,1
235.35182,235.46875,60,63,1
235.46875,235.59122,68,63,1
235.59122,235.71907,56,62,1
235.71907,235.816,63,73,1
235.816,235.91324,61,65,1
235.91324,236.01077,68,65,1
236.01077,236.10796,56,65,1
236.10796,236.20337,69,69,1
236.20337,236.29878,68,65,1
236.29878,236.39421,76,83,1
236.39421,236.48962,64,64,1
236.48962,236.58487,69,70,1
236.58487,236.6801,68,66,1
236.6801,236.77534,76,83,1
236.77534,236.87057,64,60,1
236.87057,236.96811,69,68,1
236.96811,237.06566,68,62,1
237.06566,237.1632,75,79,1
237.1632,237.26073,63,71,1
237.26073,237.35684,69,68,1
237.35684,237.45227,68,66,1
237.45227,237.54768,75,83,1
237.54768,237.64311,64,60,1
237.64311,237.74065,69,68,1
237.74065,237.83818,68,62,1
237.83818,237.93571,73,79,1
237.93571,238.03325,61,71,1
238.03325,238.12837,64,54,1
238.12837,238.2235,63,49,1
238.2235,238.31862,68,62,1
238.31862,238.41374,56,45,1
238.41374,238.51128,64,51,1
238.51128,238.60881,63,46,1
238.60881,238.70634,68,59,1
238.70634,238.80388,56,53,1
238.80388,238.90236,63,54,1
238.90236,239.00084,61,49,1
239.00084,239.09932,68,62,1
239.09932,239.19778,56,45,1
239.19778,239.2935,69,67,1
239.2935,239.38893,68,65,1
239.38893,239.48434,76,83,1
239.48434,239.57977,64,64,1
239.57977,239.67519,69,68,1
239.67519,239.77061,68,66,1
239.77061,239.86603,76,83,1
239.86603,239.96144,64,60,1
239.96144,240.05899,69,65,1
240.05899,240.15652,68,62,1
240.15652,240.25406,75,79,1
240.25406,240.3516,63,66,1
240.3516,240.44771,69,66,1
240.44771,240.54314,68,66,1
240.54314,240.63855,75,83,1
240.63855,240.73398,64,60,1
240.73398,240.83151,69,67,1
240.83151,240.92905,68,62,1
240.92905,241.02658,73,79,1
241.02658,241.12411,61,71,1
241.12411,241.21924,64,54,1
241.21924,241.31436,63,49,1
241.31436,241.40948,68,62,1
241.40948,241.50461,56,45,1
241.50461,241.60214,64,51,1
241.60214,241.69968,63,46,1
241.69968,241.79721,68,59,1
241.79721,241.89474,56,53,1
241.89474,241.99167,63,54,1
241.99167,242.0886,61,49,1
242.0886,242.18553,68,62,1
242.18553,242.28246,56,45,1
242.28246,242.37817,69,55,1
242.37817,242.47359,68,48,1
242.47359,242.569,76,62,1
242.569,242.66443,64,48,1
242.66443,242.75984,66,54,1
242.75984,242.85527,64,49,1
242.85527,242.95068,73,62,1
242.95068,243.04611,61,45,1
243.04611,243.14365,69,51,1
243.14365,243.24118,68,46,1
243.24118,243.33871,76,59,1
243.33871,243.43625,64,53,1
243.43625,243.53317,63,54,1
243.53317,243.6301,61,49,1
243.6301,243.72702,68,62,1
243.72702,243.82394,56,45,1
243.82394,243.91966,69,55,1
243.91966,244.01508,68,48,1
244.01508,244.1105,76,62,1
244.1105,244.20592,64,48,1
244.20592,244.30135,66,54,1
244.30135,244.39676,64,49,1
244.39676,244.49219,73,62,1
244.49219,244.5876,61,45,1
244.5876,244.68513,69,51,1
244.68513,244.78267,68,46,1
244.78267,244.8802,76,59,1
244.8802,244.9779,64,53,1
244.9779,245.07594,66,54,1
245.07594,245.17398,64,49,1
245.17398,245.27203,73,61,1
245.27203,245.37007,61,44,1
245.37007,245.4656,69,53,1
245.4656,245.56116,68,46,1
245.56116,245.6567,73,60,1
245.6567,245.75223,61,46,1
245.75223,245.84778,66,51,1
245.84778,245.94331,64,46,1
245.94331,246.03886,73,58,1
246.03886,246.1344,61,42,1
246.1344,246.23193,69,47,1
246.23193,246.32947,68,42,1
246.32947,246.427,73,54,1
246.427,246.52454,61,48,1
246.52454,246.62225,66,48,1
246.62225,246.71999,64,44,1
246.71999,246.8177,73,55,1
246.8177,246.91542,61,40,1
246.91542,247.01096,69,48,1
247.01096,247.1065,68,41,1
247.1065,247.20204,73,53,1
247.20204,247.29759,61,41,1
247.29759,247.39313,66,45,1
247.39313,247.48866,64,41,1
247.48866,247.58421,73,52,1
247.58421,247.67975,61,37,1
247.67975,247.77728,69,42,1
247.77728,247.87482,68,37,1
247.87482,247.97235,73,48,1
247.97235,248.0699,61,42,1
248.0699,248.16794,63,43,1
248.16794,248.26598,61,39,1
248.26598,248.36401,68,49,1
248.36401,248.46205,56,36,1
248.46205,248.55852,63,44,1
248.55852,248.65498,61,38,1
248.65498,248.75143,68,49,1
248.75143,248.8479,56,38,1
248.8479,248.94437,63,43,1
248.94437,249.04083,61,39,1
249.04083,249.1373,68,49,1
249.1373,249.23375,56,36,1
249.23375,249.3331,63,40,1
249.3331,249.43243,61,36,1
249.43243,249.53177,68,47,1
249.53177,249.6311,56,42,1
249.6311,249.72882,63,43,1
249.72882,249.82654,61,39,1
249.82654,249.92427,68,48,1
249.92427,250.02199,56,35,1
250.02199,250.11845,63,42,1
250.11845,250.2149,61,36,1
250.2149,250.31137,68,46,1
250.31137,250.40784,56,35,1
250.40784,250.5043,63,39,1
250.5043,250.60077,61,35,1
250.60077,250.69722,68,44,1
250.69722,250.79369,56,32,1
250.79369,250.89183,63,35,1
250.89183,250.9915,61,31,1
250.9915,251.09286,68,40,1
251.09286,251.19595,56,36,1
251.19595,251.29288,63,36,1
251.29288,251.3898,61,33,1
251.3898,251.48672,68,41,1
251.48672,251.58365,56,30,1
251.58365,251.67937,63,37,1
251.67937,251.7748,61,32,1
251.7748,251.87021,68,41,1
251.87021,251.96564,56,32,1
251.96564,252.06105,63,36,1
252.06105,252.15648,61,33,1
252.15648,252.25189,68,41,1
252.25189,252.3473,56,30,1
252.3473,252.44484,63,34,1
252.44484,252.54239,61,30,1
252.54239,252.63992,68,39,1
252.63992,252.73746,56,35,1
252.73746,252.83438,63,36,1
252.83438,252.9313,61,33,1
252.9313,253.02823,68,41,1
253.02823,253.12515,56,30,1
253.12515,253.22087,63,37,1
253.22087,253.31628,61,32,1
253.31628,253.41171,68,41,1
253.41171,253.50713,56,32,1
253.50713,253.60254,63,36,1
253.60254,253.69797,61,33,1
253.69797,253.79338,68,41,1
253.79338,253.88881,56,30,1
253.88881,253.98634,63,34,1
253.98634,254.08388,61,30,1
254.08388,254.18141,68,39,1
254.18141,254.27895,56,35,1
254.27895,254.37587,63,36,1
254.37587,254.4728,61,33,1
254.4728,254.56972,68,41,1
254.56972,254.66664,56,30,1
254.66664,254.76236,63,37,1
254.76236,254.85779,61,32,1
254.85779,254.9532,68,41,1
254.9532,255.04861,56,32,1
255.04861,255.14404,63,36,1
255.14404,255.23946,61,33,1
255.23946,255.33488,68,41,1
255.33488,255.4303,56,30,1
255.4303,255.52783,63,34,1
255.52783,255.62537,61,30,1
255.62537,255.7229,68,39,1
255.7229,255.82045,56,35,1
255.82045,255.91737,63,36,1
255.91737,256.01428,61,33,1
256.01428,256.1112,68,41,1
256.1112,256.20813,56,30,1
256.20813,256.30386,63,37,1
256.30386,256.3993,61,32,1
256.3993,256.4947,68,41,1
256.4947,256.59012,56,32,1
256.59012,256.68555,63,36,1
256.68555,256.78094,61,33,1
256.78094,256.87637,68,41,1
256.87637,256.9718,56,30,1
256.9718,257.06934,63,34,1
257.06934,257.16687,61,30,1
257.16687,257.2644,68,39,1
257.2644,257.36194,56,35,1
257.36194,257.45886,63,36,1
257.45886,257.5558,61,33,1
257.5558,257.6527,68,41,1
257.6527,257.74963,56,30,1
257.74963,257.84537,63,37,1
257.84537,257.94077,61,32,1
257.94077,258.0362,68,41,1
258.0362,258.13162,56,32,1
258.13162,258.22702,63,36,1
258.22702,258.32245,61,33,1
258.32245,258.41788,68,41,1
258.41788,258.5133,56,30,1
258.5133,258.61084,63,34,1
258.61084,258.70837,61,30,1
258.70837,258.8059,68,39,1
258.8059,258.90344,56,35,1
258.90344,259.00037,63,36,1
259.00037,259.0973,61,33,1
259.0973,259.1942,68,41,1
259.1942,259.29114,56,30,1
259.29114,259.38684,63,37,1
259.38684,259.48227,61,32,1
259.48227,259.5777,68,41,1
259.5777,259.6731,56,32,1
259.6731,259.76987,63,36,1
259.76987,259.86667,61,33,1
259.86667,259.96344,68,41,1
259.96344,260.0602,56,30,1
260.0602,260.1609,63,34,1
260.1609,260.26154,61,30,1
260.26154,260.3622,68,39,1
260.3622,260.4629,56,35,1
260.4629,260.5674,63,36,1
260.5674,260.67194,61,29,1
260.67194,260.7765,68,35,1
260.7765,260.881,53,37,1
260.881,260.98273,63,44,1
260.98273,261.08545,61,28,1
261.08545,261.1882,68,36,1
261.1882,261.29095,53,37,1
261.29095,261.39368,63,43,1
261.39368,261.49643,61,29,1
261.49643,261.59915,68,37,1
261.59915,261.7019,53,37,1
261.7019,261.8074,63,45,1
261.8074,261.91232,61,27,1
261.91232,262.0172,68,36,1
262.0172,262.1221,53,31,1
262.1221,262.22885,65,32,1
262.2342,262.34097,63,29,1
262.33563,262.44238,68,35,1
262.44238,262.54916,54,38,1
262.54916,262.66498,65,44,1
262.66498,262.782,63,28,1
262.782,262.8998,68,35,1
262.8998,263.0181,54,38,1
263.02402,263.14276,65,42,1
263.14276,263.262,63,29,1
263.256,263.37555,68,37,1
263.37555,263.49554,54,37,1
263.49554,263.61603,65,40,1
263.61603,263.73685,63,27,1
263.73685,263.85812,68,35,1
263.85812,263.97992,54,38,1
264.6983,266.52072,63,48,1
264.47647,266.52072,60,43,1
264.23102,266.52072,54,38,1
267.31396,270.3964,61,42,1
267.06668,270.3964,53,35,1
264.35675,270.3964,56,40,1
0.0,2.730376,56,79,1
0.0,2.730376,44,79,1
2.730376,2.9044502,49,75,1
2.730376,2.9044502,37,75,1
2.9044502,3.0296855,56,60,1
3.0296855,3.1521971,61,64,1
3.1521971,3.2739632,64,65,1
3.2739632,3.394992,61,62,1
3.394992,3.5152931,56,61,1
3.5152931,3.6348748,49,57,1
3.6348748,3.7537458,56,58,1
3.7537458,3.8718276,61,60,1
3.8718276,3.987103,64,60,1
3.987103,4.1045823,61,58,1
4.1045823,4.222578,56,57,1
4.222578,4.339367,49,53,1
4.339367,4.4569297,56,54,1
4.4569297,4.575101,61,55,1
4.575101,4.691804,64,54,1
4.691804,4.8091073,61,52,1
4.8091073,4.9264092,56,50,1
4.9264092,5.0443177,49,45,1
5.0443177,5.1644435,56,47,1
5.1644435,5.2871485,61,49,1
5.2871485,5.413346,64,46,1
5.413346,5.546615,61,43,1
5.546615,5.6886635,56,38,1
5.6886635,5.806484,49,22,1
5.806484,5.923529,56,25,1
5.923529,6.0424047,61,28,1
6.0424047,6.1605754,64,30,1
6.1605754,6.2783103,61,28,1
6.2783103,6.396917,56,27,1
6.396917,6.5144796,52,26,1
6.5144796,6.6315246,56,28,1
6.6315246,6.7497816,61,30,1
6.7497816,6.867171,64,31,1
6.867171,6.985078,61,28,1
6.985078,7.1194277,56,27,1
7.1194277,7.2498536,49,27,1
7.2498536,7.3679357,56,30,1
7.3679357,7.485069,61,34,1
7.485069,7.6030626,64,36,1
7.6030626,7.7201934,61,34,1
7.7201934,7.837671,56,33,1
7.837671,7.9563675,52,31,1
7.9563675,8.074975,56,33,1
8.074975,8.192191,61,36,1
8.192191,8.310453,64,37,1
8.310453,8.429325,61,34,1
8.429325,8.563317,56,32,1
8.563317,8.694535,51,31,1
8.694535,8.814633,57,35,1
8.814633,8.933811,61,39,1
8.933811,9.053079,66,45,1
9.053079,9.171892,61,39,1
9.171892,9.29016,57,37,1
9.29016,9.407034,54,37,1
9.407034,9.523994,61,40,1
9.523994,9.641902,63,44,1
9.641902,9.759467,69,46,1
9.759467,9.876429,63,44,1
9.876429,9.994423,61,41,1
9.994423,10.111468,44,33,1
10.111468,10.229203,51,35,1
10.229203,10.34685,54,38,1
10.34685,10.46381,60,39,1
10.46381,10.580769,54,36,1
10.580769,10.697728,51,34,1
10.697728,10.815458,44,29,1
10.815458,10.933726,51,31,1
10.933726,11.052813,54,33,1
11.052813,11.174699,60,33,1
11.174699,11.300121,54,29,1
11.300121,11.44597,51,26,1
11.44597,11.563878,49,22,1
11.563878,11.6809225,56,25,1
11.6809225,11.799707,61,28,1
11.799707,11.91911,64,30,1
11.91911,12.036932,61,28,1
12.036932,12.154234,56,27,1
12.154234,12.272754,52,26,1
12.272754,12.391537,56,28,1
12.391537,12.509098,61,30,1
12.509098,12.626832,64,31,1
12.626832,12.745175,61,28,1
12.745175,12.881054,56,27,1
12.881054,13.011385,49,27,1
13.011385,13.129728,56,30,1
13.129728,13.24781,58,34,1
13.24781,13.366506,64,36,1
13.366506,13.484067,58,34,1
13.484067,13.602763,56,33,1
13.602763,13.721635,52,31,1
13.721635,13.839629,56,33,1
13.839629,13.957018,58,36,1
13.957018,14.075714,61,37,1
14.075714,14.194058,58,34,1
14.194058,14.329849,56,32,1
14.329849,14.460412,51,30,1
14.460412,14.580509,56,34,1
14.580509,14.699687,59,37,1
14.699687,14.818955,63,39,1
14.818955,14.937768,59,38,1
14.937768,15.056036,56,35,1
15.056036,15.172915,51,38,1
15.172915,15.290822,58,41,1
15.290822,15.40873,61,45,1
15.40873,15.525519,67,46,1
15.525519,15.643513,61,44,1
15.643513,15.761507,58,41,1
15.761507,15.879501,44,33,1
15.879501,15.996289,51,35,1
15.996289,16.114023,56,37,1
16.114023,16.232018,59,39,1
16.232018,16.347794,56,39,1
16.347794,16.464666,51,37,1
16.464666,16.582397,44,33,1
16.582397,16.700665,51,35,1
16.700665,16.819752,56,38,1
16.819752,16.942312,59,39,1
16.942312,17.069216,56,35,1
17.069216,17.203371,51,33,1
17.203371,17.34282,45,39,1
17.34282,17.480629,49,41,1
17.480629,17.617184,54,43,1
17.617184,17.752504,57,45,1
17.752504,17.88704,54,44,1
17.88704,18.02147,49,42,1
18.02147,18.15558,45,42,1
18.15558,18.29001,49,44,1
18.29001,18.424763,54,45,1
18.424763,18.559841,57,45,1
18.559841,18.696447,54,45,1
18.696447,18.835297,49,44,1
18.835297,18.972246,47,44,1
18.972246,19.106678,54,46,1
19.106678,19.241213,57,48,1
19.241213,19.375748,59,49,1
19.375748,19.510284,57,47,1
19.510284,19.644394,54,45,1
19.644394,19.778824,40,45,1
19.778824,19.913687,47,46,1
19.913687,20.048979,52,48,1
20.048979,20.184813,56,47,1
20.184813,20.322195,52,46,1
20.322195,20.4607,47,45,1
20.4607,20.5961,45,44,1
20.5961,20.7315,49,46,1
20.7315,20.866472,54,48,1
20.866472,21.001442,57,49,1
21.001442,21.135979,54,47,1
21.135979,21.270407,49,45,1
21.270407,21.404518,45,45,1
21.404518,21.538948,49,46,1
21.538948,21.6737,54,48,1
21.6737,21.808779,57,47,1
21.808779,21.945385,54,46,1
21.945385,22.084234,49,45,1
22.084234,22.22139,47,44,1
22.22139,22.358545,51,46,1
22.358545,22.495935,57,48,1
22.495935,22.636755,59,49,1
22.636755,22.780823,57,47,1
22.780823,22.933247,51,45,1
22.933247,23.073479,40,45,1
23.073479,23.214886,47,46,1
23.214886,23.357609,52,48,1
23.357609,23.50142,56,47,1
23.50142,23.64597,52,46,1
23.64597,23.790655,47,45,1
23.790655,23.926054,45,30,1
23.926054,24.061455,49,33,1
24.061455,24.196426,54,34,1
24.196426,24.331396,57,35,1
24.331396,24.465933,54,34,1
24.465933,24.60036,49,34,1
24.60036,24.734472,45,34,1
24.734472,24.868902,49,34,1
24.868902,25.003654,54,36,1
25.003654,25.138733,57,36,1
25.138733,25.27534,54,35,1
25.27534,25.414188,49,34,1
25.414188,25.55114,47,34,1
25.55114,25.68557,54,37,1
25.68557,25.820105,57,38,1
25.820105,25.95464,59,39,1
25.95464,26.089176,57,38,1
26.089176,26.223288,54,38,1
26.223288,26.357716,40,37,1
26.357716,26.492579,47,39,1
26.492579,26.62787,52,40,1
26.62787,26.763704,56,40,1
26.763704,26.901089,52,40,1
26.901089,27.038698,47,39,1
27.038698,27.175188,45,39,1
27.175188,27.31113,49,42,1
27.31113,27.44653,54,43,1
27.44653,27.581392,57,45,1
27.581392,27.715715,54,43,1
27.715715,27.849504,49,42,1
27.849504,27.983826,45,42,1
27.983826,28.118689,51,44,1
28.118689,28.25398,54,45,1
28.25398,28.389814,57,44,1
28.389814,28.527197,54,44,1
28.527197,28.665255,51,42,1
28.665255,28.801857,44,42,1
28.801857,28.938017,51,44,1
28.938017,29.07374,54,45,1
29.07374,29.208927,60,42,1
29.208927,29.34368,54,42,1
29.34368,29.478003,51,40,1
29.478003,29.611792,44,39,1
29.611792,29.746115,51,41,1
29.746115,29.880978,54,42,1
29.880978,30.016485,60,40,1
30.016485,30.152536,54,39,1
30.152536,30.289139,51,38,1
30.289139,30.42602,45,38,1
30.42602,30.562178,51,39,1
30.562178,30.697903,54,40,1
30.697903,30.833088,59,38,1
30.833088,30.967842,54,38,1
30.967842,31.102165,51,36,1
31.102165,31.235952,46,35,1
31.235952,31.370277,51,37,1
31.370277,31.505138,54,38,1
31.505138,31.640648,58,36,1
31.640648,31.776697,54,35,1
31.776697,31.9133,51,34,1
31.9133,32.050404,48,34,1
32.050404,32.186565,51,34,1
32.186565,32.32229,54,35,1
32.32229,32.457474,57,34,1
32.457474,32.592228,54,34,1
32.592228,32.72655,51,32,1
32.72655,32.86034,48,31,1
32.86034,32.994663,51,33,1
32.994663,33.129475,54,33,1
33.129475,33.266033,57,31,1
33.266033,33.405838,54,31,1
33.405838,33.549168,51,29,1
33.549168,33.69362,45,28,1
33.69362,33.837067,51,29,1
33.837067,33.979523,54,29,1
33.979523,34.121,59,31,1
34.121,34.261513,54,29,1
34.261513,34.401077,51,28,1
34.401077,34.54017,46,25,1
34.54017,34.68033,51,26,1
34.68033,34.821564,54,27,1
34.821564,34.96402,58,28,1
34.96402,35.107716,54,27,1
35.107716,35.253326,51,25,1
35.253326,35.399696,47,24,1
35.399696,35.5453,51,26,1
35.5453,35.690258,54,27,1
35.690258,35.834583,57,28,1
35.834583,35.978153,54,27,1
35.978153,36.121105,51,25,1
36.121105,36.264305,48,22,1
36.264305,36.410816,51,23,1
36.410816,36.560925,54,24,1
36.560925,36.71453,56,24,1
36.71453,36.8721,54,23,1
36.8721,37.03353,51,22,1
37.03353,37.16523,49,22,1
37.16523,37.28253,56,25,1
37.28253,37.39958,61,28,1
37.39958,37.517315,64,30,1
37.517315,37.633934,61,28,1
37.633934,37.751667,56,27,1
37.751667,37.86837,52,26,1
37.86837,37.98576,56,28,1
37.98576,38.1035,61,30,1
38.1035,38.22089,64,31,1
38.22089,38.33845,61,28,1
38.33845,38.477455,56,27,1
38.477455,38.6077,49,27,1
38.6077,38.725693,56,30,1
38.725693,38.843254,61,34,1
38.843254,38.961773,64,36,1
38.961773,39.07951,61,34,1
39.07951,39.19733,56,33,1
39.19733,39.314804,52,31,1
39.314804,39.43211,56,33,1
39.43211,39.55019,61,36,1
39.55019,39.66732,64,37,1
39.66732,39.78497,61,34,1
39.78497,39.921776,56,32,1
39.921776,40.05266,51,31,1
40.05266,40.17276,57,35,1
40.17276,40.291935,61,39,1
40.291935,40.411205,66,45,1
40.411205,40.530018,61,39,1
40.530018,40.648197,57,37,1
40.648197,40.765415,54,37,1
40.765415,40.88402,61,40,1
40.88402,41.001495,63,44,1
41.001495,41.119755,69,46,1
41.119755,41.237663,63,44,1
41.237663,41.35566,61,41,1
41.35566,41.47331,44,33,1
41.47331,41.590786,51,36,1
41.590786,41.708347,54,39,1
41.708347,41.826084,60,41,1
41.826084,41.94408,54,39,1
41.94408,42.061382,51,37,1
42.061382,42.17911,44,33,1
42.17911,42.297382,51,35,1
42.297382,42.416466,54,38,1
42.416466,42.538353,60,39,1
42.538353,42.663776,54,35,1
42.663776,42.802685,51,33,1
42.802685,42.92379,49,28,1
42.92379,43.041008,56,32,1
43.041008,43.158916,61,34,1
43.158916,43.276653,64,37,1
43.276653,43.393784,61,35,1
43.393784,43.51178,56,33,1
43.51178,43.62934,52,31,1
43.62934,43.74742,56,33,1
43.74742,43.86481,61,35,1
43.86481,43.983154,64,36,1
43.983154,44.101147,61,33,1
44.101147,44.24162,56,31,1
44.24162,44.36409,54,28,1
44.36409,44.481476,61,33,1
44.481476,44.599735,63,35,1
44.599735,44.71773,69,38,1
44.71773,44.835464,63,36,1
44.835464,44.95372,61,34,1
44.95372,45.070766,56,32,1
45.070766,45.188763,61,34,1
45.188763,45.306583,65,37,1
45.306583,45.42389,71,39,1
45.42389,45.54188,65,34,1
45.54188,45.68468,61,33,1
45.68468,45.807972,57,30,1
45.807972,45.925533,61,34,1
45.925533,46.04301,66,37,1
46.04301,46.16092,69,40,1
46.16092,46.278652,66,39,1
46.278652,46.396564,61,35,1
46.396564,46.514038,56,34,1
46.514038,46.632206,61,36,1
46.632206,46.749336,65,39,1
46.749336,46.866898,71,40,1
46.866898,46.984547,65,37,1
46.984547,47.124035,61,34,1
47.124035,47.246502,57,32,1
47.246502,47.364758,61,36,1
47.364758,47.48232,66,39,1
47.48232,47.59911,69,42,1
47.59911,47.71676,66,40,1
47.71676,47.833893,61,38,1
47.833893,47.95154,48,36,1
47.95154,48.069626,54,38,1
48.069626,48.1871,56,41,1
48.1871,48.304577,63,42,1
48.304577,48.422222,56,39,1
48.422222,48.570606,54,37,1
48.570606,48.692528,49,35,1
48.692528,48.81263,56,39,1
48.81263,48.93181,61,43,1
48.93181,49.051075,64,45,1
49.051075,49.169888,61,44,1
49.169888,49.288177,56,42,1
49.288177,49.406345,51,44,1
49.406345,49.52472,56,41,1
49.52472,49.643303,60,45,1
49.643303,49.762146,66,46,1
49.762146,49.881287,60,44,1
49.881287,50.000996,56,41,1
50.000996,50.1218,52,35,1
50.1218,50.241726,56,39,1
50.241726,50.360905,61,43,1
50.360905,50.48017,64,45,1
50.48017,50.598984,61,44,1
50.598984,50.717255,56,42,1
50.717255,50.83483,54,44,1
50.83483,50.952827,61,41,1
50.952827,51.071503,63,45,1
51.071503,51.191555,69,46,1
51.191555,51.313023,63,48,1
51.313023,51.43585,61,51,1
51.43585,51.620495,56,71,1
51.43585,51.620495,68,71,1
51.43585,51.620495,64,71,1
51.43585,51.620495,61,71,1
52.162693,52.521286,55,71,1
52.162693,52.521286,69,71,1
52.162693,52.521286,64,71,1
52.162693,52.521286,61,71,1
54.33083,54.42964,44,78,1
54.33083,54.42964,32,78,1
54.726086,55.117706,64,75,1
54.726086,55.117706,76,75,1
55.117706,55.50584,73,78,1
55.117706,55.50584,61,78,1
55.50584,55.891155,68,78,1
55.50584,55.891155,56,78,1
55.891155,56.26949,64,78,1
55.891155,56.26949,52,78,1
56.26949,56.647823,61,74,1
56.26949,56.647823,49,74,1
56.647823,57.026157,56,78,1
56.647823,57.026157,44,78,1
57.026157,57.40449,52,74,1
57.026157,57.40449,40,74,1
57.40449,57.79476,49,78,1
57.40449,57.79476,37,78,1
57.79476,58.176613,44,73,1
57.79476,58.176613,32,73,1
58.176613,58.564434,44,78,1
58.176613,58.564434,32,78,1
58.564434,58.951466,45,74,1
58.564434,58.951466,33,74,1
58.951466,59.34381,44,78,1
58.951466,59.34381,32,78,1
59.34381,59.742268,43,72,1
59.34381,59.742268,31,72,1
59.742268,60.641666,44,69,1
59.742268,60.641666,32,69,1
60.641666,60.89327,37,95,1
60.89327,61.122868,44,55,1
61.122868,61.34934,49,56,1
61.34934,61.573746,53,56,1
61.573746,61.79628,56,58,1
61.79628,62.01682,61,59,1
62.01682,62.235546,65,59,1
62.235546,62.45533,61,57,1
62.45533,62.676785,56,52,1
62.676785,62.899784,53,49,1
62.899784,63.124504,49,46,1
63.124504,63.351295,44,41,1
63.351295,63.577766,37,40,1
63.577766,63.80296,44,41,1
63.80296,64.02689,49,42,1
64.02689,64.24958,53,43,1
64.24958,64.47104,56,44,1
64.47104,64.69127,61,45,1
64.69127,64.91181,65,45,1
64.91181,65.13388,61,45,1
65.13388,65.357346,56,44,1
65.357346,65.58222,53,43,1
65.58222,65.80869,49,42,1
66.03366,66.26833,37,25,1
65.80869,66.26833,44,41,1
66.26833,66.50135,56,26,1
66.50135,66.73244,60,27,1
66.73244,66.96159,63,28,1
66.96159,67.19042,60,28,1
67.19042,67.41926,56,27,1
67.41926,67.65046,49,27,1
67.65046,67.88778,56,27,1
67.88778,68.11288,60,28,1
68.11288,68.337975,66,28,1
68.337975,68.570244,60,27,1
68.570244,68.80968,56,26,1
68.80968,69.04108,49,27,1
69.04108,69.27248,56,28,1
69.27248,69.503876,61,28,1
69.503876,69.73528,65,29,1
69.73528,69.96668,61,30,1
69.96668,70.19808,56,28,1
70.19808,70.42567,49,27,1
70.42567,70.65325,56,28,1
70.65325,70.88083,65,29,1
71.10841,71.33988,65,30,1
71.33988,71.57523,56,29,1
71.57523,71.81058,66,30,1
71.81058,72.04593,63,26,1
72.04593,72.28128,56,26,1
72.28128,72.51397,65,30,1
72.51397,72.746666,61,26,1
72.746666,72.979355,56,26,1
72.979355,73.20948,63,30,1
73.20948,73.439606,60,23,1
73.439606,73.66972,56,23,1
73.66972,73.90925,61,29,1
73.90925,74.148766,56,24,1
74.148766,74.44302,53,24,1
74.44302,74.70079,44,26,1
74.70079,74.94031,51,27,1
74.94031,75.17983,56,27,1
75.17983,75.415184,60,28,1
75.415184,75.65397,56,27,1
75.65397,75.89619,51,27,1
75.89619,76.13287,42,27,1
76.13287,76.36956,54,27,1
76.36956,76.60624,58,28,1
76.60624,76.842926,61,29,1
76.842926,77.07961,58,28,1
77.07961,77.3163,54,28,1
77.3163,77.552986,46,27,1
77.552986,77.78967,53,27,1
77.78967,78.02636,58,28,1
78.02636,78.26305,62,28,1
78.26305,78.49973,58,28,1
78.49973,78.73642,53,27,1
78.73642,78.96763,46,28,1
78.96763,79.208,58,29,1
79.208,79.43922,62,30,1
79.43922,79.670425,68,33,1
79.670425,79.905754,62,31,1
79.905754,80.14519,58,29,1
80.14519,80.37659,51,34,1
80.37659,80.60799,66,31,1
80.60799,80.83939,58,28,1
80.83939,81.07079,53,32,1
81.07079,81.30219,65,30,1
81.30219,81.53359,57,28,1
81.53359,81.76118,54,31,1
81.76118,81.98876,63,28,1
81.98876,82.21634,58,29,1
82.21634,82.443924,56,30,1
82.443924,82.67539,66,27,1
82.67539,82.91074,60,27,1
82.91074,83.14609,49,25,1
83.14609,83.38144,56,27,1
83.38144,83.61679,61,29,1
83.61679,83.852135,65,30,1
83.852135,84.09885,61,29,1
84.09885,84.35691,56,27,1
84.35691,84.59787,51,27,1
84.59787,84.83884,55,28,1
84.83884,85.0798,61,29,1
85.0798,85.32076,63,30,1
85.32076,85.58513,61,29,1
85.58513,85.8729,55,27,1
85.8729,86.10959,44,23,1
86.10959,86.346275,51,25,1
86.346275,86.58296,56,27,1
86.58296,86.81965,60,28,1
86.81965,87.056335,56,27,1
87.056335,87.2944,51,27,1
87.2944,87.531784,44,25,1
87.531784,87.776146,51,25,1
87.776146,88.021324,54,27,1
88.021324,88.27055,58,28,1
88.27055,88.5374,54,26,1
88.5374,88.81712,51,25,1
88.81712,89.082306,44,24,1
89.082306,89.32237,51,26,1
89.32237,89.56047,56,27,1
89.56047,89.79127,60,28,1
89.79127,90.020096,56,28,1
90.020096,90.24893,51,27,1
90.24893,90.48013,44,27,1
90.48013,90.719185,56,27,1
90.719185,90.94776,60,28,1
90.94776,91.17633,66,28,1
91.17633,91.41033,60,27,1
91.41033,91.64977,58,26,1
91.64977,91.88117,49,27,1
91.88117,92.11257,56,28,1
92.11257,92.34397,61,28,1
92.34397,92.57537,65,29,1
92.57537,92.80678,61,30,1
92.80678,93.03818,56,28,1
93.03818,93.265755,49,27,1
93.265755,93.49334,56,28,1
93.49334,93.720924,65,29,1
93.94851,94.17997,65,30,1
94.17997,94.41532,56,29,1
94.41532,94.65067,66,30,1
94.65067,94.886024,63,26,1
94.886024,95.12137,56,26,1
95.12137,95.354065,65,30,1
95.354065,95.586754,61,26,1
95.586754,95.81945,56,26,1
95.81945,96.049576,63,30,1
96.049576,96.2945,60,23,1
96.2945,96.554245,56,23,1
96.554245,96.80582,61,29,1
96.80582,97.05739,56,24,1
97.05739,97.358376,53,24,1
97.358376,97.5979,44,26,1
97.5979,97.83742,51,27,1
97.83742,98.07694,56,27,1
98.07694,98.312294,60,28,1
98.312294,98.55108,56,27,1
98.55108,98.7933,51,27,1
98.7933,99.02998,42,27,1
99.02998,99.26666,54,27,1
99.26666,99.50335,58,28,1
99.50335,99.740036,61,29,1
99.740036,99.97672,58,28,1
99.97672,100.21341,54,28,1
100.21341,100.450096,46,27,1
100.450096,100.68678,53,27,1
100.68678,100.92347,58,28,1
100.92347,101.16016,62,28,1
101.16016,101.39684,58,28,1
101.39684,101.63353,53,27,1
101.63353,101.86474,46,28,1
101.86474,102.10379,58,29,1
102.10379,102.33236,62,30,1
102.33236,102.56093,68,33,1
102.56093,102.79494,62,31,1
102.79494,103.03437,58,29,1
103.03437,103.26577,51,34,1
103.26577,103.49717,66,31,1
103.49717,103.72857,58,28,1
103.72857,103.95998,53,32,1
103.95998,104.191376,65,30,1
104.191376,104.422775,57,28,1
104.422775,104.65036,54,31,1
104.65036,104.87794,63,28,1
104.87794,105.10552,58,29,1
105.10552,105.33311,56,30,1
105.33311,105.564575,66,27,1
105.564575,105.79992,60,27,1
105.79992,106.03527,49,25,1
106.03527,106.27062,56,27,1
106.27062,106.505974,61,29,1
106.505974,106.74132,65,30,1
106.74132,106.992325,61,29,1
106.992325,107.258995,56,27,1
107.258995,107.505905,49,27,1
107.505905,107.75282,56,28,1
107.75282,107.99973,60,29,1
107.99973,108.24665,66,30,1
108.24665,108.51503,60,29,1
108.51503,108.804886,56,27,1
108.804886,109.04585,49,27,1
109.04585,109.28682,56,28,1
109.28682,109.52778,60,30,1
109.52778,109.768745,66,31,1
109.768745,110.00971,60,30,1
110.00971,110.250984,56,28,1
110.250984,110.49356,49,27,1
110.49356,110.73792,56,27,1
110.73792,110.98411,61,28,1
110.98411,111.23176,65,30,1
111.23176,111.47487,61,28,1
111.47487,111.711555,56,27,1
111.711555,111.95377,44,34,1
111.95377,112.19599,51,33,1
112.19599,112.43821,56,34,1
112.43821,112.68043,60,34,1
112.68043,112.922646,56,33,1
112.922646,113.16487,51,32,1
113.16487,113.40291,44,31,1
113.40291,113.640945,51,33,1
113.640945,113.87898,55,34,1
113.87898,114.11702,61,34,1
114.11702,114.36005,55,33,1
114.36005,114.60806,51,30,1
114.60806,114.842064,44,36,1
114.842064,115.076065,51,30,1
115.076065,115.31007,56,32,1
115.31007,115.55089,60,33,1
115.55089,115.7917,56,32,1
115.7917,116.032524,51,30,1
116.032524,116.27056,49,27,1
116.27056,116.5086,56,29,1
116.5086,116.746635,61,30,1
116.746635,116.985374,64,31,1
116.985374,117.22655,61,30,1
117.22655,117.56825,56,29,1
117.56825,117.81047,39,34,1
117.81047,118.05269,51,33,1
118.05269,118.29491,56,34,1
118.29491,118.537125,60,34,1
118.537125,118.77934,56,33,1
118.77934,119.02156,51,32,1
119.02156,119.2596,39,31,1
119.2596,119.497635,51,33,1
119.497635,119.73568,55,34,1
119.73568,119.97372,61,34,1
119.97372,120.21674,55,33,1
120.21674,120.46476,51,30,1
120.46476,120.69876,44,34,1
120.69876,120.93276,51,30,1
120.93276,121.16676,56,32,1
121.16676,121.40011,60,33,1
121.40011,121.63714,56,32,1
121.63714,121.87866,51,30,1
121.87866,122.12376,42,19,1
122.12376,122.36886,54,20,1
122.36886,122.62613,58,22,1
122.62613,122.871155,61,22,1
122.871155,123.12077,58,20,1
123.12077,123.375145,54,20,1
123.375145,123.61702,44,21,1
123.61702,123.857086,56,22,1
123.857086,124.095184,60,22,1
124.095184,124.32598,63,23,1
124.32598,124.55481,60,23,1
124.55481,124.783646,56,22,1
124.783646,125.0174,49,22,1
125.0174,125.24663,56,23,1
125.24663,125.475204,60,25,1
125.475204,125.70377,66,27,1
125.70377,125.937775,60,26,1
125.937775,126.17721,56,25,1
126.17721,126.408615,49,27,1
126.408615,126.640015,56,28,1
126.640015,126.871414,61,28,1
126.871414,127.10281,65,29,1
127.10281,127.33421,61,30,1
127.33421,127.56562,56,28,1
127.56562,127.7932,49,27,1
127.7932,128.02078,56,28,1
128.02078,128.24837,65,29,1
128.47595,128.70741,65,30,1
128.70741,128.94276,56,29,1
128.94276,129.17812,66,30,1
129.17812,129.41347,63,26,1
129.41347,129.64882,56,26,1
129.64882,129.8815,65,30,1
129.8815,130.1142,61,26,1
130.1142,130.3469,56,26,1
130.3469,130.57701,63,30,1
130.57701,130.80714,60,23,1
130.80714,131.03726,56,23,1
131.03726,131.26738,61,29,1
131.26738,131.50293,56,24,1
131.50293,131.7439,53,24,1
131.7439,131.98341,44,26,1
131.98341,132.22293,51,27,1
132.22293,132.46245,56,27,1
132.46245,132.6978,60,28,1
132.6978,132.93658,56,27,1
132.93658,133.1788,51,27,1
133.1788,133.4155,42,27,1
133.4155,133.65218,54,27,1
133.65218,133.88887,58,28,1
133.88887,134.12555,61,29,1
134.12555,134.36224,58,28,1
134.36224,134.59892,54,28,1
134.59892,134.83562,46,27,1
134.83562,135.0723,53,27,1
135.0723,135.30899,58,28,1
135.30899,135.54567,62,28,1
135.54567,135.78236,58,28,1
135.78236,136.01904,53,27,1
136.01904,136.25504,46,28,1
136.25504,136.4851,58,29,1
136.4851,136.71367,62,30,1
136.71367,136.94225,68,33,1
136.94225,137.17625,62,31,1
137.17625,137.41568,58,29,1
137.41568,137.64708,51,34,1
137.64708,137.8785,66,31,1
137.8785,138.1099,58,28,1
138.1099,138.3413,53,32,1
138.3413,138.5727,65,30,1
138.5727,138.8041,57,28,1
138.8041,139.03168,54,31,1
139.03168,139.25926,63,28,1
139.25926,139.48685,58,29,1
139.48685,139.71442,56,30,1
139.71442,139.94589,66,27,1
139.94589,140.18124,60,27,1
140.18124,140.41658,49,25,1
140.41658,140.65193,56,27,1
140.65193,140.88728,61,29,1
140.88728,141.12263,65,30,1
141.12263,141.36934,61,29,1
141.36934,141.62741,56,27,1
141.62741,141.86693,49,27,1
141.86693,142.10645,56,28,1
142.10645,142.34598,60,29,1
142.34598,142.5855,66,30,1
142.5855,142.84319,60,29,1
142.84319,143.11905,56,27,1
143.11905,143.36002,49,27,1
143.36002,143.60097,56,28,1
143.60097,143.84193,60,30,1
143.84193,144.0829,66,31,1
144.0829,144.32387,60,30,1
144.32387,144.56514,56,28,1
144.56514,144.80771,49,27,1
144.80771,145.05208,56,27,1
145.05208,145.29826,61,28,1
145.29826,145.54591,65,30,1
145.54591,145.78903,61,28,1
145.78903,146.02571,56,27,1
146.02571,146.26793,44,34,1
146.26793,146.51015,51,33,1
146.51015,146.75237,56,34,1
146.75237,146.99458,60,34,1
146.99458,147.2368,56,33,1
147.2368,147.47902,51,32,1
147.47902,147.70488,44,31,1
147.70488,147.9393,51,33,1
147.9393,148.17787,55,34,1
148.17787,148.41318,61,34,1
148.41318,148.65483,55,33,1
148.65483,148.90285,51,30,1
148.90285,149.13684,44,36,1
149.13684,149.37085,51,30,1
149.37085,149.60484,56,32,1
149.60484,149.84566,60,33,1
149.84566,150.08649,56,32,1
150.08649,150.3273,51,30,1
150.3273,150.56534,49,27,1
150.56534,150.80338,56,29,1
150.80338,151.04141,61,30,1
151.04141,151.28015,64,31,1
151.28015,151.52132,61,30,1
151.52132,151.86302,56,29,1
151.86302,152.10524,39,34,1
152.10524,152.34746,51,33,1
152.34746,152.58968,56,34,1
152.58968,152.8319,60,34,1
152.8319,153.07411,56,33,1
153.07411,153.31633,51,32,1
153.31633,153.55438,39,31,1
153.55438,153.79242,51,33,1
153.79242,154.03046,55,34,1
154.03046,154.2685,61,34,1
154.2685,154.51152,55,33,1
154.51152,154.75954,51,30,1
154.75954,154.99353,44,34,1
154.99353,155.22754,51,30,1
155.22754,155.46153,56,32,1
155.46153,155.69489,60,33,1
155.69489,155.93192,56,32,1
155.93192,156.17343,51,30,1
156.17343,156.41853,42,19,1
156.41853,156.66364,54,20,1
156.66364,156.9209,58,22,1
156.9209,157.166,61,22,1
157.166,157.4111,58,20,1
157.4111,157.65619,54,20,1
157.65619,157.89589,44,21,1
157.89589,158.13596,51,22,1
158.13596,158.37405,56,22,1
158.37405,158.60484,60,23,1
158.60484,158.83368,56,23,1
158.83368,159.06252,51,22,1
159.06252,159.29713,44,22,1
159.29713,159.52669,56,23,1
159.52669,159.75526,60,25,1
159.75526,159.98383,66,27,1
159.98383,160.21783,60,26,1
160.21783,160.45728,58,25,1
160.45728,160.68867,49,27,1
160.68867,160.92007,56,28,1
160.92007,161.15147,61,28,1
161.15147,161.38287,65,29,1
161.38287,161.61427,61,30,1
161.61427,161.84567,56,28,1
161.84567,162.07326,49,27,1
162.07326,162.30084,56,28,1
162.30084,162.52843,65,29,1
162.75601,162.98747,65,30,1
162.98747,163.22282,56,29,1
163.22282,163.45818,66,30,1
163.45818,163.69353,63,26,1
163.69353,163.92886,56,26,1
163.92886,164.16156,65,30,1
164.16156,164.39426,61,26,1
164.39426,164.62695,56,26,1
164.62695,164.85707,63,30,1
164.85707,165.09048,60,23,1
165.09048,165.32716,56,23,1
165.32716,165.56386,61,29,1
165.56386,165.80959,56,24,1
165.80959,166.06436,53,24,1
166.06436,166.30533,44,26,1
166.30533,166.5463,51,27,1
166.5463,166.78725,56,27,1
166.78725,167.0226,60,28,1
167.0226,167.26138,56,27,1
167.26138,167.5036,51,27,1
167.5036,167.7403,42,27,1
167.7403,167.97697,54,27,1
167.97697,168.21367,58,28,1
168.21367,168.45035,61,29,1
168.45035,168.68704,58,28,1
168.68704,168.92372,54,28,1
168.92372,169.16042,46,27,1
169.16042,169.3971,53,27,1
169.3971,169.63377,58,28,1
169.63377,169.87047,62,28,1
169.87047,170.10715,58,28,1
170.10715,170.34384,53,27,1
170.34384,170.57846,46,28,1
170.57846,170.80785,58,29,1
170.80785,171.03642,62,30,1
171.03642,171.265,68,33,1
171.265,171.499,62,31,1
171.499,171.73843,58,29,1
171.73843,171.96983,51,34,1
171.96983,172.20123,66,31,1
172.20123,172.43263,58,28,1
172.43263,172.66403,53,31,1
172.66403,172.89543,65,28,1
172.89543,173.12683,57,28,1
173.12683,173.35442,54,30,1
173.35442,173.582,63,25,1
173.582,173.80959,58,25,1
173.80959,174.03717,56,30,1
174.03717,174.27217,66,27,1
174.27217,174.5146,60,27,1
174.5146,174.75702,49,22,1
174.75702,174.99945,56,23,1
174.99945,175.24187,61,26,1
175.24187,175.4843,65,27,1
175.4843,175.7444,61,26,1
175.7444,176.02217,56,23,1
176.02217,176.27374,49,23,1
176.27374,176.52531,56,24,1
176.52531,176.77689,60,26,1
176.77689,177.02846,66,27,1
177.02846,177.29123,60,26,1
177.29123,177.5652,56,23,1
177.5652,177.82162,49,20,1
177.82162,178.07803,56,21,1
178.07803,178.33444,60,22,1
178.33444,178.59085,66,24,1
178.59085,178.84726,60,22,1
178.84726,179.10326,56,22,1
179.10326,179.35886,49,20,1
179.35886,179.61775,56,21,1
179.61775,179.88005,60,22,1
179.88005,180.14496,66,22,1
180.14496,180.41342,60,22,1
180.41342,180.68555,56,21,1
180.68555,180.80327,49,22,1
180.80327,180.9217,56,25,1
180.9217,181.03987,61,28,1
181.03987,181.15718,64,30,1
181.15718,181.2756,61,28,1
181.2756,181.39404,56,27,1
181.39404,181.51152,52,26,1
181.51152,181.6302,56,28,1
181.6302,181.74883,61,30,1
181.74883,181.86787,64,31,1
181.86787,181.98586,61,28,1
181.98586,182.12038,56,27,1
182.12038,182.25102,49,27,1
182.25102,182.36884,56,30,1
182.36884,182.48683,61,34,1
182.48683,182.60509,64,36,1
182.60509,182.72379,61,34,1
182.72379,182.84152,56,33,1
182.84152,182.95952,52,31,1
182.95952,183.0776,56,33,1
183.0776,183.1949,61,36,1
183.1949,183.31255,64,37,1
183.31255,183.4309,61,34,1
183.4309,183.56514,56,32,1
183.56514,183.69658,51,31,1
183.69658,183.81686,57,35,1
183.81686,183.93623,61,39,1
183.93623,184.0557,66,45,1
184.0557,184.1747,61,39,1
184.1747,184.29315,57,37,1
184.29315,184.4105,54,37,1
184.4105,184.52773,61,40,1
184.52773,184.64581,63,44,1
184.64581,184.7631,69,46,1
184.7631,184.88155,63,44,1
184.88155,184.99858,61,41,1
184.99858,185.1165,44,33,1
185.1165,185.23355,51,35,1
185.23355,185.35155,54,38,1
185.35155,185.46962,60,39,1
185.46962,185.5871,54,36,1
185.5871,185.70493,51,34,1
185.70493,185.82285,44,29,1
185.82285,185.9413,51,31,1
185.9413,186.06058,54,33,1
186.06058,186.18266,60,33,1
186.18266,186.30829,54,29,1
186.30829,186.45436,51,26,1
186.45436,186.5725,49,22,1
186.5725,186.68971,56,25,1
186.68971,186.8085,61,28,1
186.8085,186.92622,64,30,1
186.92622,187.04405,61,28,1
187.04405,187.16284,56,27,1
187.16284,187.2811,52,26,1
187.2811,187.3983,56,28,1
187.3983,187.51648,61,30,1
187.51648,187.6343,64,31,1
187.6343,187.75264,61,28,1
187.75264,187.88869,56,27,1
187.88869,188.01932,49,27,1
188.01932,188.13776,56,30,1
188.13776,188.25514,58,34,1
188.25514,188.37402,64,36,1
188.37402,188.49219,58,34,1
188.49219,188.60992,56,33,1
188.60992,188.72879,52,31,1
188.72879,188.84697,56,33,1
188.84697,188.96504,58,36,1
188.96504,189.08374,61,37,1
189.08374,189.20183,58,34,1
189.20183,189.33778,56,32,1
189.33778,189.46855,51,30,1
189.46855,189.58884,56,34,1
189.58884,189.70822,59,37,1
189.70822,189.82767,63,39,1
189.82767,189.94667,59,38,1
189.94667,190.06444,56,35,1
190.06444,190.1808,51,38,1
190.1808,190.29845,58,41,1
190.29845,190.41609,61,45,1
190.41609,190.53288,67,46,1
190.53288,190.65045,61,44,1
190.65045,190.76793,58,41,1
190.76793,190.88522,44,33,1
190.88522,191.00253,51,35,1
191.00253,191.11906,56,37,1
191.11906,191.23654,59,39,1
191.23654,191.35454,56,39,1
191.35454,191.47218,51,37,1
191.47218,191.5901,44,33,1
191.5901,191.70856,51,35,1
191.70856,191.82784,56,38,1
191.82784,191.9506,59,39,1
191.9506,192.07771,56,35,1
192.07771,192.2121,51,33,1
192.2121,192.35176,45,39,1
192.35176,192.48979,49,41,1
192.48979,192.62657,54,43,1
192.62657,192.76212,57,45,1
192.76212,192.89685,54,44,1
192.89685,193.0315,49,42,1
193.0315,193.16582,45,42,1
193.16582,193.30045,49,44,1
193.30045,193.43541,54,45,1
193.43541,193.5707,57,45,1
193.5707,193.70752,54,45,1
193.70752,193.8466,49,44,1
193.8466,193.98376,51,44,1
193.98376,194.11841,54,46,1
194.11841,194.25316,57,48,1
194.25316,194.3879,59,49,1
194.3879,194.52264,57,47,1
194.52264,194.65695,54,45,1
194.65695,194.7916,40,45,1
194.7916,194.92667,47,46,1
194.92667,195.06218,52,48,1
195.06218,195.19823,56,47,1
195.19823,195.33583,52,46,1
195.33583,195.47456,47,45,1
195.47456,195.61018,45,44,1
195.61018,195.7458,49,46,1
195.7458,195.88098,54,48,1
195.88098,196.01616,57,49,1
196.01616,196.15091,54,47,1
196.15091,196.28554,49,45,1
196.28554,196.41986,45,45,1
196.41986,196.55449,49,46,1
196.55449,196.68945,54,48,1
196.68945,196.82475,57,47,1
196.82475,196.96158,54,46,1
196.96158,197.10065,49,45,1
197.10065,197.23802,47,44,1
197.23802,197.3754,51,46,1
197.3754,197.513,57,48,1
197.513,197.65404,59,49,1
197.65404,197.79834,57,47,1
197.79834,197.951,51,45,1
197.951,198.09148,40,45,1
198.09148,198.2331,47,46,1
198.2331,198.37605,52,48,1
198.37605,198.52008,56,47,1
198.52008,198.66487,52,46,1
198.66487,198.80978,47,45,1
198.80978,198.9454,45,30,1
198.9454,199.08102,49,33,1
199.08102,199.2162,54,34,1
199.2162,199.35138,57,35,1
199.35138,199.48613,54,34,1
199.48613,199.62076,49,34,1
199.62076,199.75508,45,34,1
199.75508,199.88972,49,34,1
199.88972,200.02469,54,36,1
200.02469,200.15997,57,36,1
200.15997,200.2968,54,35,1
200.2968,200.43587,49,34,1
200.43587,200.57304,47,34,1
200.57304,200.70769,54,37,1
200.70769,200.84242,57,38,1
200.84242,200.97717,59,39,1
200.97717,201.11191,57,38,1
201.11191,201.24623,54,38,1
201.24623,201.38087,40,37,1
201.38087,201.51595,47,39,1
201.51595,201.65144,52,40,1
201.65144,201.7875,56,40,1
201.7875,201.92511,52,40,1
201.92511,202.06293,47,39,1
202.06293,202.19965,45,39,1
202.19965,202.3358,49,42,1
202.3358,202.47142,54,43,1
202.47142,202.60649,57,45,1
202.60649,202.74103,54,43,1
202.74103,202.87503,49,42,1
202.87503,203.00955,45,42,1
203.00955,203.14462,51,44,1
203.14462,203.28014,54,45,1
203.28014,203.41618,57,44,1
203.41618,203.55379,54,44,1
203.55379,203.69206,51,42,1
203.69206,203.82889,44,42,1
203.82889,203.96527,51,44,1
203.96527,204.10121,54,45,1
204.10121,204.2366,60,42,1
204.2366,204.37157,54,42,1
204.37157,204.5061,51,40,1
204.5061,204.6401,44,39,1
204.6401,204.77463,51,41,1
204.77463,204.9097,54,42,1
204.9097,205.04543,60,40,1
205.04543,205.1817,54,39,1
205.1817,205.31851,51,38,1
205.31851,205.45561,45,38,1
205.45561,205.592,51,39,1
205.592,205.72794,54,40,1
205.72794,205.86334,59,38,1
205.86334,205.9983,54,38,1
205.9983,206.13283,51,36,1
206.13283,206.26683,46,35,1
206.26683,206.40137,51,37,1
206.40137,206.53644,54,38,1
206.53644,206.67216,58,36,1
206.67216,206.80843,54,35,1
206.80843,206.94525,51,34,1
206.94525,207.08258,48,34,1
207.08258,207.21895,51,34,1
207.21895,207.35489,54,35,1
207.35489,207.4903,57,34,1
207.4903,207.62526,54,34,1
207.62526,207.75978,51,32,1
207.75978,207.89378,48,31,1
207.89378,208.02832,51,33,1
208.02832,208.16335,54,33,1
208.16335,208.30013,57,31,1
208.30013,208.44016,54,31,1
208.44016,208.58371,51,29,1
208.58371,208.7284,45,28,1
208.7284,208.87207,51,29,1
208.87207,209.01476,54,30,1
209.01476,209.15646,59,32,1
209.15646,209.2972,54,31,1
209.2972,209.43698,51,29,1
209.43698,209.5763,46,27,1
209.5763,209.71667,51,28,1
209.71667,209.85814,54,29,1
209.85814,210.00082,58,30,1
210.00082,210.14474,54,29,1
210.14474,210.29059,51,28,1
210.29059,210.4372,47,28,1
210.4372,210.58301,51,28,1
210.58301,210.72821,54,28,1
210.72821,210.87276,57,30,1
210.87276,211.01656,54,28,1
211.01656,211.15973,51,27,1
211.15973,211.30316,48,23,1
211.30316,211.4499,51,24,1
211.4499,211.60025,54,25,1
211.60025,211.7541,56,25,1
211.7541,211.91193,54,24,1
211.91193,212.0736,51,22,1
212.0736,212.20552,49,22,1
212.20552,212.323,56,25,1
212.323,212.44197,61,28,1
212.44197,212.56218,64,30,1
212.56218,212.68053,61,28,1
212.68053,212.7981,56,27,1
212.7981,212.91643,52,26,1
212.91643,213.034,56,28,1
213.034,213.1527,61,30,1
213.1527,213.2706,64,31,1
213.2706,213.38876,61,28,1
213.38876,213.52821,56,27,1
213.52821,213.65884,49,27,1
213.65884,213.77719,56,30,1
213.77719,213.89374,61,34,1
213.89374,214.0126,64,36,1
214.0126,214.1306,61,34,1
214.1306,214.2486,56,33,1
214.2486,214.36626,52,31,1
214.36626,214.48547,56,33,1
214.48547,214.60365,61,36,1
214.60365,214.72096,64,37,1
214.72096,214.83894,61,34,1
214.83894,214.97601,56,32,1
214.97601,215.10712,51,31,1
215.10712,215.2274,57,35,1
215.2274,215.34677,61,39,1
215.34677,215.46623,66,45,1
215.46623,215.58524,61,39,1
215.58524,215.70355,57,37,1
215.70355,215.81992,54,37,1
215.81992,215.93767,61,40,1
215.93767,216.05548,63,44,1
216.05548,216.17194,69,46,1
216.17194,216.28984,63,44,1
216.28984,216.408,61,41,1
216.408,216.52583,44,33,1
216.52583,216.64348,51,35,1
216.64348,216.7607,54,38,1
216.7607,216.87878,60,39,1
216.87878,216.99574,54,36,1
216.99574,217.1127,51,34,1
217.1127,217.23062,44,29,1
217.23062,217.34908,51,31,1
217.34908,217.46835,54,33,1
217.46835,217.59044,60,33,1
217.59044,217.71606,54,29,1
217.71606,217.8552,51,26,1
217.8552,217.977,49,22,1
217.977,218.09467,56,25,1
218.09467,218.21162,61,28,1
218.21162,218.32979,64,30,1
218.32979,218.44719,61,28,1
218.44719,218.56465,56,27,1
218.56465,218.68283,52,26,1
218.68283,218.79996,56,28,1
218.79996,218.91795,61,30,1
218.91795,219.0363,64,31,1
219.0363,219.15465,61,28,1
219.15465,219.29538,56,27,1
219.29538,219.41805,54,25,1
219.41805,219.53595,61,29,1
219.53595,219.65291,63,32,1
219.65291,219.7709,69,34,1
219.7709,219.88907,63,33,1
219.88907,220.00612,61,31,1
220.00612,220.1236,56,30,1
220.1236,220.24194,61,32,1
220.24194,220.35916,65,35,1
220.35916,220.47734,71,37,1
220.47734,220.59499,65,34,1
220.59499,220.73787,61,32,1
220.73787,220.8614,57,30,1
220.8614,220.97949,61,34,1
220.97949,221.09688,66,37,1
221.09688,221.21548,69,40,1
221.21548,221.33366,66,39,1
221.33366,221.4507,61,35,1
221.4507,221.56888,56,34,1
221.56888,221.68661,61,36,1
221.68661,221.80367,65,39,1
221.80367,221.92174,71,40,1
221.92174,222.03973,65,37,1
222.03973,222.17947,61,34,1
222.17947,222.30179,57,32,1
222.30179,222.4185,61,36,1
222.4185,222.53694,66,39,1
222.53694,222.6559,69,42,1
222.6559,222.77328,66,40,1
222.77328,222.89207,61,38,1
222.89207,223.00998,48,36,1
223.00998,223.12712,54,38,1
223.12712,223.24442,56,41,1
223.24442,223.36206,63,42,1
223.36206,223.4797,56,39,1
223.4797,223.62828,54,37,1
223.62828,223.7504,49,35,1
223.7504,223.8707,56,39,1
223.8707,223.99007,61,43,1
223.99007,224.10953,64,45,1
224.10953,224.22853,61,44,1
224.22853,224.34702,56,42,1
224.34702,224.46536,51,44,1
224.46536,224.58392,56,41,1
224.58392,224.7027,60,45,1
224.7027,224.82175,66,46,1
224.82175,224.94109,60,44,1
224.94109,225.06099,56,41,1
225.06099,225.18199,52,35,1
225.18199,225.30212,56,39,1
225.30212,225.4215,61,43,1
225.4215,225.54094,64,45,1
225.54094,225.65994,61,44,1
225.65994,225.77841,56,42,1
225.77841,225.89618,54,44,1
225.89618,226.01436,61,41,1
226.01436,226.13322,63,45,1
226.13322,226.25348,69,46,1
226.25348,226.37514,63,48,1
226.37514,226.49817,61,51,1
226.49817,226.6831,56,71,1
226.49817,226.6831,68,71,1
226.49817,226.6831,64,71,1
226.49817,226.6831,61,71,1
227.2262,227.58537,55,71,1
227.2262,227.58537,69,71,1
227.2262,227.58537,64,71,1
227.2262,227.58537,61,71,1
229.39793,229.4969,44,78,1
229.39793,229.4969,32,78,1
229.79384,230.1861,64,75,1
229.79384,230.1861,76,75,1
230.1861,230.57486,73,78,1
230.1861,230.57486,61,78,1
230.57486,230.9608,68,78,1
230.57486,230.9608,56,78,1
230.9608,231.33975,64,78,1
230.9608,231.33975,52,78,1
231.33975,231.7187,61,74,1
231.33975,231.7187,49,74,1
231.7187,232.09767,56,78,1
231.7187,232.09767,44,78,1
232.09767,232.47662,52,74,1
232.09767,232.47662,40,74,1
232.47662,232.86752,49,78,1
232.47662,232.86752,37,78,1
232.86752,233.25002,44,73,1
232.86752,233.25002,32,73,1
233.25002,233.63849,44,78,1
233.25002,233.63849,32,78,1
233.63849,234.02617,45,74,1
233.63849,234.02617,33,74,1
234.02617,234.41914,44,78,1
234.02617,234.41914,32,78,1
234.41914,234.81825,43,72,1
234.41914,234.81825,31,72,1
234.81825,235.71907,44,69,1
234.81825,235.71907,32,69,1
235.71907,235.91324,37,93,1
235.91324,236.10796,52,56,1
236.10796,236.29878,49,58,1
236.29878,236.48962,44,58,1
236.48962,236.6801,37,63,1
236.6801,236.87057,54,58,1
236.87057,237.06566,48,58,1
237.06566,237.26073,44,58,1
237.26073,237.45227,37,63,1
237.45227,237.64311,52,58,1
237.64311,237.83818,49,58,1
237.83818,238.03325,44,58,1
238.03325,238.2235,37,47,1
238.2235,238.41374,54,43,1
238.41374,238.60881,48,43,1
238.60881,238.80388,44,43,1
238.80388,239.00084,37,47,1
239.00084,239.19778,52,43,1
239.19778,239.38893,49,58,1
239.38893,239.57977,44,58,1
239.57977,239.77061,37,63,1
239.77061,239.96144,54,58,1
239.96144,240.15652,48,58,1
240.15652,240.3516,44,58,1
240.3516,240.54314,37,63,1
240.54314,240.73398,52,58,1
240.73398,240.92905,49,58,1
240.92905,241.12411,44,58,1
241.12411,241.31436,37,47,1
241.31436,241.50461,54,36,1
241.50461,241.69968,48,36,1
241.69968,241.89474,44,36,1
241.89474,242.0886,37,39,1
242.0886,242.28246,52,36,1
242.28246,242.47359,49,36,1
242.47359,242.66443,44,36,1
242.66443,242.85527,37,39,1
242.85527,243.04611,56,36,1
243.04611,243.24118,49,36,1
243.24118,243.43625,44,36,1
243.43625,243.6301,37,39,1
243.6301,243.82394,52,36,1
243.82394,244.01508,49,36,1
244.01508,244.20592,44,36,1
244.20592,244.39676,37,39,1
244.39676,244.5876,56,36,1
244.5876,244.78267,49,36,1
244.78267,244.9779,44,36,1
244.9779,245.17398,37,39,1
245.17398,245.37007,52,35,1
245.37007,245.56116,49,35,1
245.56116,245.75223,44,34,1
245.75223,245.94331,37,38,1
245.94331,246.1344,52,34,1
246.1344,246.32947,49,33,1
246.32947,246.52454,44,33,1
246.52454,246.71999,37,35,1
246.71999,246.91542,52,31,1
246.91542,247.1065,49,31,1
247.1065,247.29759,44,30,1
247.29759,247.48866,37,34,1
247.48866,247.67975,52,30,1
247.67975,247.87482,49,29,1
247.87482,248.0699,44,29,1
248.0699,248.46205,37,31,1
251.19595,252.73746,44,48,1
251.19595,252.73746,37,39,1
252.73746,253.12515,46,47,1
253.12515,253.50713,44,50,1
253.50713,253.88881,49,52,1
253.88881,254.27895,51,56,1
254.27895,255.82045,53,58,1
255.82045,257.36194,56,60,1
257.36194,258.13162,54,56,1
258.13162,258.90344,53,56,1
258.90344,259.6731,51,57,1
259.6731,260.0602,53,56,1
260.0602,260.4629,49,48,1
260.4629,262.1221,44,53,1
262.1221,263.97992,44,50,1
262.1221,263.97992,32,50,1
264.09784,266.52072,44,36,1
263.97992,266.52072,37,33,1
266.80032,270.3964,44,37,1
266.52072,270.3964,37,31,1
