start_time,end_time,note_value,velocity,instrument_program_number
2.126967,2.824804,75,49,0
2.824804,3.5235212,75,40,0
3.5235212,4.1738234,75,44,0
4.1738234,4.8078046,75,49,0
4.8078046,5.451733,75,52,0
5.451733,6.08993,77,55,0
6.08993,6.710393,75,52,0
6.710393,7.3211975,75,50,0
7.3211975,7.929606,75,51,0
7.929606,8.537989,75,55,0
8.537989,9.147252,75,60,0
9.147252,9.751493,77,62,0
9.751493,10.374349,75,61,0
10.374349,10.984223,82,66,0
10.984223,11.583299,80,64,0
11.583299,12.181747,80,70,0
12.181747,12.812449,80,69,0
12.812449,13.422029,80,73,0
13.422029,14.026576,80,70,0
14.026576,14.624126,80,77,0
14.624126,15.237162,82,77,0
15.237162,15.84318,84,80,0
15.84318,16.441397,82,77,0
16.441397,17.0457,80,77,0
17.0457,17.664501,77,70,0
17.664501,18.287523,77,72,0
18.287523,18.892355,79,72,0
18.892355,19.496887,80,75,0
19.509706,20.119884,70,68,0
20.119884,20.758806,70,70,0
20.758806,21.385494,72,62,0
21.385494,22.026754,73,63,0
22.026754,22.790604,63,55,0
22.790604,23.48932,75,51,0
23.48932,24.139622,75,44,0
24.139622,24.773603,75,49,0
24.773603,25.417532,75,52,0
25.417532,26.055729,77,55,0
26.055729,26.676191,75,52,0
26.676191,27.286997,75,50,0
27.286997,27.895405,75,51,0
27.895405,28.503788,75,59,0
28.503788,29.11305,82,68,0
29.11305,29.717293,84,71,0
29.717293,30.331991,79,66,0
30.331991,30.941868,82,72,0
30.941868,31.540941,80,71,0
31.540941,32.139393,80,80,0
32.139393,32.770092,80,82,0
32.770092,33.379673,80,80,0
33.379673,33.98422,80,81,0
33.98422,34.581768,80,84,0
34.581768,35.194805,82,84,0
35.194805,35.800823,84,88,0
35.800823,36.39904,79,82,0
36.39904,37.003345,79,80,0
37.003345,37.643757,79,71,0
37.643757,38.281223,79,64,0
38.281223,38.90959,79,66,0
38.90959,39.54695,79,68,0
39.54695,40.201912,79,60,0
40.201912,40.836002,74,53,0
40.836002,41.46787,72,52,0
41.46787,42.110096,72,53,0
42.110096,42.757847,72,47,0
42.757847,43.456562,72,49,0
43.456562,44.106865,72,44,0
44.106865,44.74085,73,51,0
44.74085,45.384777,72,49,0
45.384777,46.022972,72,52,0
46.022972,46.643436,74,55,0
46.643436,47.25424,76,58,0
47.25424,47.862648,77,60,0
47.862648,48.47103,75,59,0
48.47103,49.080296,75,67,0
49.080296,49.684536,77,70,0
49.684536,50.299236,75,66,0
50.299236,50.90911,75,72,0
50.90911,51.508186,77,75,0
51.508186,52.106636,79,80,0
52.106636,52.737335,80,82,0
52.737335,53.346916,79,80,0
53.346916,53.95146,79,81,0
53.95146,54.54901,80,84,0
54.54901,55.16205,77,75,0
55.16205,55.768066,76,64,0
55.768066,56.366283,74,58,0
56.366283,56.97059,77,61,0
56.97059,57.622192,76,57,0
57.622192,58.22821,76,64,0
58.22821,58.826427,74,58,0
58.826427,59.43073,77,61,0
59.43073,60.067528,76,57,0
60.067528,60.673546,76,67,0
60.673546,61.271763,74,62,0
61.271763,61.87607,78,69,0
61.87607,62.49233,76,67,0
62.49233,63.098347,76,72,0
63.098347,63.696564,81,74,0
63.696564,64.300865,83,82,0
64.300865,64.90261,84,79,0
64.90261,65.50863,84,84,0
65.50863,66.10685,82,82,0
66.10685,66.71115,85,86,0
66.71115,67.337105,77,79,0
67.337105,67.94312,82,84,0
67.94312,68.541336,80,81,0
68.541336,69.14564,84,82,0
69.14564,69.77159,75,79,0
69.77159,70.37761,75,84,0
70.37761,70.97583,76,81,0
70.97583,71.58013,77,82,0
71.58013,72.206085,75,79,0
72.206085,72.8121,73,84,0
72.8121,73.41032,72,77,0
73.41032,74.014626,72,75,0
74.014626,74.61636,84,82,0
74.61636,75.22238,84,84,0
75.22238,75.8206,82,82,0
75.8206,76.424904,85,86,0
76.424904,77.05086,76,79,0
77.05086,77.656876,82,74,0
77.656876,78.25509,80,78,0
78.25509,78.8594,84,82,0
78.8594,79.47383,75,79,0
79.47383,80.0787,75,69,0
80.0787,80.668686,77,64,0
80.668686,81.263504,78,73,0
81.263504,81.873375,77,69,0
81.873375,82.49231,77,78,0
82.49231,83.100395,79,79,0
83.100395,83.697975,80,82,0
83.697975,84.292465,79,78,0
84.292465,84.9114,79,85,0
84.9114,85.51948,80,89,0
85.51948,86.117065,81,89,0
86.117065,86.7188,90,93,0
86.7188,87.32482,89,94,0
87.32482,87.92304,82,84,0
87.92304,88.52734,85,86,0
88.52734,89.1533,79,79,0
89.1533,89.759315,80,81,0
89.759315,90.35753,75,61,0
90.35753,90.96184,75,64,0
90.96184,91.57627,75,69,0
91.57627,92.18229,77,77,0
92.18229,92.7805,75,68,0
92.7805,93.3848,84,73,0
93.3848,94.01076,79,69,0
94.01076,94.616776,80,72,0
94.616776,95.215,75,61,0
95.215,95.8193,75,64,0
95.8193,96.43373,75,69,0
96.43373,97.03975,77,75,0
97.03975,97.6594,75,61,0
97.6594,98.2637,89,66,0
98.2637,98.889656,79,61,0
98.889656,99.495674,80,64,0
99.495674,100.093895,75,55,0
100.093895,100.6982,77,55,0
100.6982,101.31263,75,56,0
101.31263,101.91865,73,60,0
101.91865,102.51686,72,51,0
102.51686,103.12117,73,57,0
103.12117,103.735596,72,51,0
103.735596,104.34161,70,61,0
104.34161,104.939835,68,49,0
104.939835,105.544136,70,52,0
105.544136,106.15857,68,49,0
106.15857,106.76459,70,55,0
106.76459,107.36281,68,40,0
107.36281,107.96711,70,50,0
107.96711,108.58154,68,42,0
118.57923,118.95056,68,39,0
119.32189,119.69323,80,41,0
119.32189,119.69323,92,41,0
120.88844,121.90238,63,26,0
120.88844,121.90238,72,26,0
122.7998,125.77501,68,37,0
122.569435,125.77501,60,33,0
2.9455712,3.0646768,68,22,0
3.0646768,3.1821733,72,22,0
3.1821733,3.2977118,63,22,0
3.2977118,3.4113495,68,22,0
3.4113495,3.5235212,72,23,0
3.6339068,3.7432454,68,23,0
3.7432454,3.8518949,72,24,0
3.8518949,3.9598699,63,24,0
3.9598699,4.0671787,68,24,0
4.0671787,4.1738234,72,24,0
4.279487,4.3851504,68,26,0
4.3851504,4.490814,72,26,0
4.490814,4.5964775,63,26,0
4.5964775,4.7021413,68,27,0
4.7021413,4.8078046,72,27,0
4.913468,5.0194573,68,27,0
5.0194573,5.1261024,72,28,0
5.1261024,5.233745,63,28,0
5.233745,5.3423944,68,28,0
5.3423944,5.451733,72,28,0
5.5621085,5.670426,68,30,0
5.670426,5.776745,72,29,0
5.776745,5.8811398,63,29,0
5.8811398,5.9855347,68,29,0
5.9855347,6.08993,72,29,0
6.1936965,6.297463,68,29,0
6.297463,6.40123,72,29,0
6.40123,6.5043864,63,29,0
6.5043864,6.607543,68,28,0
6.607543,6.710393,72,28,0
6.8123384,6.91339,68,27,0
6.91339,7.0153465,72,27,0
7.0153465,7.118503,63,27,0
7.118503,7.2201457,68,27,0
7.2201457,7.3211975,72,27,0
7.422847,7.5250993,68,26,0
7.5250993,7.625562,72,26,0
7.625562,7.72691,63,26,0
7.72691,7.828258,68,26,0
7.828258,7.929606,72,26,0
8.030954,8.132302,70,27,0
8.132302,8.23365,73,27,0
8.23365,8.334998,63,28,0
8.334998,8.436346,70,29,0
8.436346,8.537989,73,29,0
8.639925,8.741862,70,30,0
8.741862,8.843505,73,30,0
8.843505,8.944853,63,31,0
8.944853,9.046201,70,33,0
9.046201,9.147252,73,33,0
9.248008,9.348763,70,34,0
9.348763,9.449519,73,35,0
9.449519,9.550275,63,36,0
9.550275,9.651031,70,36,0
9.651031,9.751493,73,37,0
9.851665,9.952419,70,37,0
9.952419,10.053472,73,37,0
10.053472,10.1548195,63,37,0
10.1548195,10.26074,70,36,0
10.26074,10.374349,73,34,0
10.4768915,10.579131,72,41,0
10.579131,10.681068,75,40,0
10.681068,10.782416,63,40,0
10.782416,10.883468,72,39,0
10.883468,10.984223,75,39,0
11.083534,11.181998,72,38,0
11.181998,11.282754,75,38,0
11.282754,11.383217,63,37,0
11.383217,11.482246,72,37,0
11.482246,11.583299,75,36,0
11.683762,11.782791,72,36,0
11.782791,11.882391,76,36,0
11.882391,11.982564,64,37,0
11.982564,12.082156,72,38,0
12.082156,12.181747,76,38,0
12.28221,12.383853,72,39,0
12.383853,12.486703,76,39,0
12.486703,12.591102,64,40,0
12.591102,12.7022295,72,41,0
12.7022295,12.812449,76,42,0
12.914992,13.017232,73,37,0
13.017232,13.119169,77,37,0
13.119169,13.220221,68,37,0
13.220221,13.320976,73,37,0
13.320976,13.422029,77,38,0
13.523376,13.624724,73,38,0
13.624724,13.72548,77,38,0
13.72548,13.826236,68,39,0
13.826236,13.926406,73,39,0
13.926406,14.026576,77,39,0
14.126168,14.2257595,73,39,0
14.2257595,14.325352,77,39,0
14.325352,14.424943,68,39,0
14.424943,14.524534,73,39,0
14.524534,14.624126,77,40,0
14.724297,14.824467,73,40,0
14.824467,14.924784,77,40,0
14.924784,15.026578,67,42,0
15.026578,15.129886,73,42,0
15.129886,15.237162,77,42,0
15.33851,15.4398575,72,40,0
15.4398575,15.541205,77,40,0
15.541205,15.641961,67,39,0
15.641961,15.742717,72,39,0
15.742717,15.84318,77,39,0
15.942209,16.041239,72,38,0
16.041239,16.142586,76,38,0
16.142586,16.24305,67,38,0
16.24305,16.341797,72,37,0
16.341797,16.441397,76,37,0
16.542744,16.643208,72,36,0
16.643208,16.741955,77,35,0
16.741955,16.842417,68,35,0
16.842417,16.944353,72,35,0
16.944353,17.04318,77,34,0
17.14617,17.247812,71,33,0
17.247812,17.350662,75,33,0
17.350662,17.454124,65,31,0
17.454124,17.558836,71,31,0
17.558836,17.664501,75,31,0
17.770164,17.875195,70,31,0
17.875195,17.979275,75,31,0
17.979275,18.082737,65,33,0
18.082737,18.185587,70,33,0
18.185587,18.287523,75,34,0
18.388577,18.489332,70,35,0
18.489332,18.590088,75,35,0
18.590088,18.690844,65,36,0
18.690844,18.7916,70,36,0
18.7916,18.892355,75,37,0
18.99311,19.093866,70,38,0
19.093866,19.194622,74,38,0
19.194622,19.295378,65,37,0
19.295378,19.396132,68,37,0
19.396132,19.49437,70,36,0
19.599432,19.70228,65,36,0
19.70228,19.805742,68,35,0
19.805742,19.909824,58,35,0
19.909824,20.014536,65,35,0
20.014536,20.119884,68,37,0
20.226538,20.334179,65,39,0
20.334179,20.441154,68,39,0
20.441154,20.54747,58,39,0
20.54747,20.65346,65,40,0
20.65346,20.758806,68,42,0
20.86352,20.967915,63,35,0
20.967915,21.07231,68,36,0
21.07231,21.176704,58,36,0
21.176704,21.2811,63,37,0
21.2811,21.385494,68,37,0
21.489418,21.594448,63,33,0
21.594448,21.700766,67,32,0
21.700766,21.808073,58,32,0
21.808073,21.916723,61,31,0
21.916723,22.023994,63,29,0
22.13802,22.25358,58,35,0
22.25358,22.375002,61,34,0
22.375002,22.503159,51,31,0
22.503159,22.63859,58,30,0
22.63859,22.790604,61,29,0
22.91137,23.030476,68,22,0
23.030476,23.147972,72,22,0
23.147972,23.263512,63,22,0
23.263512,23.377148,68,22,0
23.377148,23.48932,72,23,0
23.599707,23.709044,68,23,0
23.709044,23.817694,72,24,0
23.817694,23.925669,63,24,0
23.925669,24.032978,68,24,0
24.032978,24.139622,72,24,0
24.245287,24.35095,68,26,0
24.35095,24.456614,72,26,0
24.456614,24.562277,63,26,0
24.562277,24.66794,68,27,0
24.66794,24.773603,72,27,0
24.879267,24.985256,68,27,0
24.985256,25.091902,72,28,0
25.091902,25.199545,63,28,0
25.199545,25.308193,68,28,0
25.308193,25.417532,72,28,0
25.527908,25.636225,68,30,0
25.636225,25.742544,72,29,0
25.742544,25.84694,63,29,0
25.84694,25.951334,68,29,0
25.951334,26.055729,72,29,0
26.159496,26.263262,68,29,0
26.263262,26.36703,72,29,0
26.36703,26.470186,63,29,0
26.470186,26.573341,68,28,0
26.573341,26.676191,72,28,0
26.778137,26.879189,68,27,0
26.879189,26.981146,72,27,0
26.981146,27.084303,63,27,0
27.084303,27.185944,68,27,0
27.185944,27.286997,72,27,0
27.388645,27.490898,68,26,0
27.490898,27.59136,72,26,0
27.59136,27.692709,63,26,0
27.692709,27.794058,68,26,0
27.794058,27.895405,72,26,0
27.996754,28.0981,70,30,0
28.0981,28.19945,73,31,0
28.19945,28.300797,63,31,0
28.300797,28.402145,70,33,0
28.402145,28.503788,73,34,0
28.605724,28.70766,70,35,0
28.70766,28.809303,73,35,0
28.809303,28.910652,63,36,0
28.910652,29.012,70,38,0
29.012,29.11305,73,38,0
29.213806,29.314562,70,39,0
29.314562,29.415318,73,40,0
29.415318,29.516073,63,41,0
29.516073,29.616829,70,41,0
29.616829,29.717293,73,42,0
29.817463,29.918219,70,41,0
29.918219,30.019182,73,40,0
30.019182,30.121758,63,38,0
30.121758,30.225965,70,37,0
30.225965,30.331991,73,36,0
30.434536,30.536776,72,45,0
30.536776,30.638712,75,44,0
30.638712,30.740059,63,44,0
30.740059,30.841112,72,42,0
30.841112,30.941868,75,42,0
31.041178,31.139643,72,41,0
31.139643,31.240398,75,41,0
31.240398,31.34086,63,40,0
31.34086,31.43989,72,41,0
31.43989,31.540941,75,39,0
31.641405,31.740435,72,38,0
31.740435,31.840034,76,39,0
31.840034,31.940208,64,40,0
31.940208,32.0398,72,41,0
32.0398,32.139393,76,42,0
32.239853,32.341496,72,45,0
32.341496,32.444347,76,46,0
32.444347,32.548744,64,47,0
32.548744,32.659874,72,48,0
32.659874,32.770092,76,49,0
32.872635,32.974876,73,41,0
32.974876,33.076813,77,41,0
33.076813,33.177864,68,42,0
33.177864,33.27862,73,42,0
33.27862,33.379673,77,42,0
33.481018,33.582367,73,44,0
33.582367,33.683125,77,44,0
33.683125,33.78388,68,45,0
33.78388,33.88405,73,45,0
33.88405,33.98422,77,45,0
34.083813,34.183403,73,46,0
34.183403,34.282993,77,46,0
34.282993,34.382587,68,47,0
34.382587,34.482178,73,47,0
34.482178,34.581768,77,47,0
34.681942,34.782112,73,48,0
34.782112,34.882427,77,48,0
34.882427,34.984222,67,49,0
34.984222,35.08753,73,49,0
35.08753,35.194805,77,49,0
35.296154,35.3975,72,44,0
35.3975,35.498848,77,44,0
35.498848,35.599606,67,42,0
35.599606,35.70036,72,42,0
35.70036,35.800823,77,41,0
35.899853,35.998882,72,40,0
35.998882,36.10023,77,40,0
36.10023,36.20069,67,40,0
36.20069,36.29944,72,39,0
36.29944,36.39904,77,39,0
36.50039,36.60085,72,37,0
36.60085,36.699596,76,36,0
36.699596,36.80006,67,36,0
36.80006,36.901997,72,36,0
36.901997,37.003345,76,34,0
37.103813,37.205456,72,33,0
37.205456,37.308304,76,33,0
37.308304,37.41401,67,31,0
37.41401,37.528828,72,31,0
37.528828,37.643757,76,31,0
37.75071,37.857376,71,28,0
37.857376,37.96376,76,28,0
37.96376,38.069862,65,33,0
38.069862,38.175682,71,29,0
38.175682,38.281223,76,29,0
38.3882,38.49339,71,28,0
38.49339,38.597084,74,28,0
38.597084,38.700714,65,28,0
38.700714,38.80488,71,28,0
38.80488,38.90959,74,28,0
39.01748,39.12421,71,29,0
39.12421,39.229477,77,29,0
39.229477,39.334465,65,29,0
39.334465,39.440285,71,29,0
39.440285,39.54695,77,28,0
39.65419,39.7619,71,28,0
39.7619,39.867733,76,28,0
39.867733,39.973934,65,30,0
39.973934,40.085114,71,30,0
40.085114,40.201912,76,33,0
40.308014,40.413834,65,25,0
40.413834,40.519653,67,25,0
40.519653,40.625477,60,25,0
40.625477,40.73074,65,26,0
40.73074,40.836002,67,27,0
40.941265,41.046253,64,26,0
41.046253,41.15124,67,26,0
41.15124,41.256226,60,26,0
41.256226,41.36177,64,26,0
41.36177,41.46787,67,26,0
41.574253,41.680073,62,26,0
41.680073,41.78674,67,26,0
41.78674,41.893982,60,26,0
41.893982,42.00212,62,26,0
42.00212,42.110096,67,25,0
42.21858,42.325226,64,25,0
42.325226,42.42994,67,25,0
42.42994,42.535618,60,24,0
42.535618,42.64531,64,22,0
42.64531,42.757847,67,20,0
42.878613,42.99772,67,22,0
42.99772,43.115215,70,22,0
43.115215,43.230755,60,22,0
43.230755,43.34439,67,22,0
43.34439,43.456562,70,23,0
43.566948,43.67629,67,23,0
43.67629,43.78494,70,24,0
43.78494,43.892914,60,24,0
43.892914,44.00022,67,24,0
44.00022,44.106865,70,24,0
44.21253,44.31819,67,26,0
44.31819,44.423855,70,26,0
44.423855,44.52952,60,26,0
44.52952,44.63518,67,27,0
44.63518,44.74085,70,27,0
44.84651,44.9525,67,27,0
44.9525,45.059143,70,28,0
45.059143,45.166786,60,28,0
45.166786,45.275436,67,28,0
45.275436,45.384777,70,28,0
45.49515,45.603466,65,28,0
45.603466,45.709785,70,28,0
45.709785,45.814182,60,29,0
45.814182,45.918575,65,29,0
45.918575,46.022972,70,29,0
46.12674,46.230507,65,30,0
46.230507,46.33427,68,31,0
46.33427,46.437428,60,31,0
46.437428,46.540585,65,31,0
46.540585,46.643436,68,33,0
46.74538,46.84643,67,34,0
46.84643,46.948387,72,34,0
46.948387,47.051544,60,34,0
47.051544,47.153187,67,35,0
47.153187,47.25424,72,35,0
47.35589,47.45814,68,36,0
47.45814,47.558605,72,36,0
47.558605,47.659954,60,37,0
47.659954,47.7613,68,37,0
47.7613,47.862648,72,37,0
47.963997,48.065346,70,35,0
48.065346,48.16669,73,35,0
48.16669,48.26804,63,36,0
48.26804,48.36939,70,36,0
48.36939,48.47103,73,37,0
48.572968,48.674904,70,38,0
48.674904,48.776546,73,38,0
48.776546,48.877895,63,38,0
48.877895,48.979244,70,39,0
48.979244,49.080296,73,39,0
49.18105,49.281807,70,40,0
49.281807,49.38256,73,41,0
49.38256,49.48332,63,41,0
49.48332,49.584072,70,42,0
49.584072,49.684536,73,42,0
49.784706,49.885464,70,44,0
49.885464,49.986423,73,42,0
49.986423,50.089,63,41,0
50.089,50.19321,70,40,0
50.19321,50.299236,73,39,0
50.40178,50.504017,68,36,0
50.504017,50.605953,73,36,0
50.605953,50.707302,63,37,0
50.707302,50.808353,68,37,0
50.808353,50.90911,73,38,0
51.008423,51.106884,68,39,0
51.106884,51.20764,72,39,0
51.20764,51.308105,63,39,0
51.308105,51.407135,68,40,0
51.407135,51.508186,72,40,0
51.608646,51.707676,68,41,0
51.707676,51.807278,72,42,0
51.807278,51.90745,63,42,0
51.90745,52.007042,68,44,0
52.007042,52.106636,72,44,0
52.207096,52.30874,68,44,0
52.30874,52.41159,72,45,0
52.41159,52.515987,63,46,0
52.515987,52.627117,68,47,0
52.627117,52.737335,72,48,0
52.839878,52.94212,72,46,0
52.94212,53.044056,75,47,0
53.044056,53.145107,67,48,0
53.145107,53.245865,72,48,0
53.245865,53.346916,75,49,0
53.44826,53.54961,72,51,0
53.54961,53.650368,75,51,0
53.650368,53.75112,67,52,0
53.75112,53.85129,72,53,0
53.85129,53.95146,75,53,0
54.051056,54.150646,72,50,0
54.150646,54.250237,74,49,0
54.250237,54.34983,65,48,0
54.34983,54.44942,72,47,0
54.44942,54.54901,74,46,0
54.649185,54.749355,71,44,0
54.749355,54.84967,74,42,0
54.84967,54.951466,65,41,0
54.951466,55.05477,71,40,0
55.05477,55.16205,74,39,0
55.263397,55.364742,67,28,0
55.364742,55.46609,72,28,0
55.46609,55.56685,64,28,0
55.56685,55.667603,67,29,0
55.667603,55.768066,72,29,0
55.867096,55.966125,68,30,0
55.966125,56.067474,71,30,0
56.067474,56.16794,62,30,0
56.16794,56.26668,68,31,0
56.26668,56.366283,71,31,0
56.467632,56.568092,68,33,0
56.568092,56.66684,71,31,0
56.66684,56.767303,65,31,0
56.767303,56.86924,68,31,0
56.86924,56.97059,71,30,0
57.071056,57.1727,68,29,0
57.1727,57.27555,71,29,0
57.27555,57.381252,64,29,0
57.381252,57.49607,68,28,0
57.49607,57.622192,71,28,0
57.72354,57.824886,67,29,0
57.824886,57.926235,72,30,0
57.926235,58.026993,64,31,0
58.026993,58.127747,67,31,0
58.127747,58.22821,72,33,0
58.32724,58.42627,68,34,0
58.42627,58.52762,71,35,0
58.52762,58.62808,62,36,0
58.62808,58.726826,68,36,0
58.726826,58.826427,71,37,0
58.927776,59.028236,68,37,0
59.028236,59.126984,71,36,0
59.126984,59.227448,65,36,0
59.227448,59.329384,68,36,0
59.329384,59.43073,71,34,0
59.5312,59.632843,68,33,0
59.632843,59.73569,71,33,0
59.73569,59.841396,64,31,0
59.841396,59.94904,68,31,0
59.94904,60.067528,71,31,0
60.168877,60.27022,69,29,0
60.27022,60.37157,73,30,0
60.37157,60.47233,64,31,0
60.47233,60.573082,69,31,0
60.573082,60.673546,73,33,0
60.772575,60.871605,69,34,0
60.871605,60.972954,71,35,0
60.972954,61.073414,62,36,0
61.073414,61.17216,69,36,0
61.17216,61.271763,71,37,0
61.37311,61.47357,69,37,0
61.47357,61.57232,71,36,0
61.57232,61.672783,66,36,0
61.672783,61.77472,69,36,0
61.77472,61.87607,71,34,0
61.976536,62.07818,68,33,0
62.07818,62.181026,74,33,0
62.181026,62.284794,64,31,0
62.284794,62.38856,68,31,0
62.38856,62.49233,74,31,0
62.593678,62.695023,69,36,0
62.695023,62.79637,73,36,0
62.79637,62.89713,64,38,0
62.89713,62.997883,69,38,0
62.997883,63.098347,73,39,0
63.197376,63.296406,73,40,0
63.296406,63.397755,76,40,0
63.397755,63.49822,69,42,0
63.49822,63.596962,73,42,0
63.596962,63.696564,76,44,0
63.797913,63.898373,75,45,0
63.898373,63.99712,78,45,0
63.99712,64.09759,69,46,0
64.09759,64.199524,75,46,0
64.199524,64.300865,78,48,0
64.40134,64.50298,75,49,0
64.50298,64.60552,78,49,0
64.60552,64.70455,68,50,0
64.70455,64.80358,75,50,0
64.80358,64.90261,78,52,0
65.00396,65.10531,73,52,0
65.10531,65.20666,77,53,0
65.20666,65.30741,65,53,0
65.30741,65.408165,73,53,0
65.408165,65.50863,77,55,0
65.60766,65.70669,73,57,0
65.70669,65.80804,77,57,0
65.80804,65.9085,65,58,0
65.9085,66.00725,73,58,0
66.00725,66.10685,77,59,0
66.20819,66.308655,70,59,0
66.308655,66.4074,73,60,0
66.4074,66.507866,65,60,0
66.507866,66.6098,70,62,0
66.6098,66.71115,73,62,0
66.81162,66.91326,70,53,0
66.91326,67.01611,73,53,0
67.01611,67.12182,65,53,0
67.12182,67.22946,70,52,0
67.22946,67.337105,73,53,0
67.438446,67.539795,72,52,0
67.539795,67.64114,75,53,0
67.64114,67.741905,63,53,0
67.741905,67.84266,72,53,0
67.84266,67.94312,75,55,0
68.04215,68.14118,72,57,0
68.14118,68.24253,75,57,0
68.24253,68.34299,63,58,0
68.34299,68.441734,72,58,0
68.441734,68.541336,75,59,0
68.642685,68.74315,68,59,0
68.74315,68.841896,72,60,0
68.841896,68.94236,63,60,0
68.94236,69.0443,68,62,0
69.0443,69.14564,72,62,0
69.24611,69.347755,68,57,0
69.347755,69.4506,72,57,0
69.4506,69.556305,63,57,0
69.556305,69.66395,68,57,0
69.66395,69.77159,72,57,0
69.87294,69.97429,67,52,0
69.97429,70.07564,70,53,0
70.07564,70.17639,61,53,0
70.17639,70.277145,67,53,0
70.277145,70.37761,70,55,0
70.47664,70.57567,67,57,0
70.57567,70.67702,70,57,0
70.67702,70.77748,61,58,0
70.77748,70.87623,67,58,0
70.87623,70.97583,70,59,0
71.07718,71.177635,67,59,0
71.177635,71.27638,70,60,0
71.27638,71.37685,61,60,0
71.37685,71.47878,67,62,0
71.47878,71.58013,70,62,0
71.6806,71.78224,67,57,0
71.78224,71.88509,70,57,0
71.88509,71.9908,61,57,0
71.9908,72.09844,67,57,0
72.09844,72.206085,70,57,0
72.307434,72.40878,65,50,0
72.40878,72.510124,68,50,0
72.510124,72.610886,61,50,0
72.610886,72.71164,65,50,0
72.71164,72.8121,68,50,0
72.91113,73.01016,65,49,0
73.01016,73.11151,68,49,0
73.11151,73.211975,60,49,0
73.211975,73.31072,65,49,0
73.31072,73.41032,68,49,0
73.511665,73.61213,63,48,0
73.61213,73.71088,65,48,0
73.71088,73.81134,60,48,0
73.81134,73.91328,63,48,0
73.91328,74.014626,65,48,0
74.11509,74.216736,75,49,0
74.216736,74.319275,77,49,0
74.319275,74.418304,72,50,0
74.418304,74.517334,75,50,0
74.517334,74.61636,77,52,0
74.71771,74.81906,73,52,0
74.81906,74.92041,77,53,0
74.92041,75.021164,65,53,0
75.021164,75.121925,73,53,0
75.121925,75.22238,77,55,0
75.32141,75.42044,73,57,0
75.42044,75.52179,77,57,0
75.52179,75.62225,65,58,0
75.62225,75.721,73,58,0
75.721,75.8206,77,59,0
75.92195,76.022415,70,57,0
76.022415,76.12116,73,57,0
76.12116,76.22162,64,55,0
76.22162,76.323555,70,55,0
76.323555,76.424904,73,55,0
76.525375,76.627014,70,53,0
76.627014,76.729866,73,53,0
76.729866,76.83557,64,53,0
76.83557,76.943214,70,52,0
76.943214,77.05086,73,53,0
77.15221,77.253555,72,52,0
77.253555,77.354904,75,53,0
77.354904,77.45566,63,53,0
77.45566,77.55641,72,53,0
77.55641,77.656876,75,55,0
77.755905,77.854935,72,52,0
77.854935,77.95628,75,52,0
77.95628,78.05675,63,53,0
78.05675,78.155495,72,53,0
78.155495,78.25509,75,53,0
78.35644,78.4569,68,55,0
78.4569,78.55565,72,56,0
78.55565,78.65611,63,56,0
78.65611,78.75805,68,56,0
78.75805,78.8594,72,57,0
78.95987,79.06151,68,58,0
79.06151,79.16436,72,57,0
79.16436,79.26752,63,57,0
79.26752,79.370674,68,57,0
79.370674,79.47383,72,57,0
79.57431,79.67625,69,40,0
79.67625,79.777596,72,41,0
79.777596,79.87835,63,41,0
79.87835,79.97881,69,42,0
79.97881,80.0787,72,42,0
80.17828,80.27731,69,45,0
80.27731,80.37578,72,45,0
80.37578,80.47397,63,46,0
80.47397,80.5716,69,46,0
80.5716,80.668686,72,47,0
80.76578,80.86396,69,48,0
80.86396,80.96299,72,49,0
80.96299,81.06287,63,49,0
81.06287,81.16333,69,50,0
81.16333,81.263504,72,51,0
81.36426,81.46531,69,48,0
81.46531,81.56666,72,47,0
81.56666,81.668594,63,45,0
81.668594,81.770836,69,44,0
81.770836,81.873375,72,41,0
81.97714,82.08091,70,47,0
82.08091,82.18407,73,47,0
82.18407,82.287224,61,48,0
82.287224,82.38977,70,48,0
82.38977,82.49231,73,49,0
82.594246,82.69618,70,50,0
82.69618,82.79753,73,51,0
82.79753,82.89888,65,51,0
82.89888,82.99963,70,52,0
82.99963,83.100395,73,52,0
83.20056,83.300735,71,53,0
83.300735,83.40032,73,55,0
83.40032,83.499916,65,56,0
83.499916,83.598946,71,56,0
83.598946,83.697975,73,57,0
83.79588,83.894066,71,57,0
83.894066,83.99281,73,55,0
83.99281,84.092125,65,53,0
84.092125,84.192,71,52,0
84.192,84.292465,73,51,0
84.39623,84.5,72,52,0
84.5,84.60316,75,52,0
84.60316,84.706314,63,52,0
84.706314,84.80885,72,52,0
84.80885,84.9114,75,53,0
85.013336,85.11527,72,55,0
85.11527,85.21662,75,55,0
85.21662,85.31797,68,56,0
85.31797,85.418724,72,56,0
85.418724,85.51948,75,56,0
85.61965,85.71982,72,58,0
85.71982,85.81941,75,59,0
85.81941,85.91901,69,60,0
85.91901,86.018036,72,60,0
86.018036,86.117065,75,61,0
86.21753,86.319176,81,58,0
86.319176,86.421715,84,59,0
86.421715,86.520744,75,59,0
86.520744,86.619774,81,59,0
86.619774,86.7188,84,60,0
86.82015,86.9215,77,58,0
86.9215,87.02285,80,58,0
87.02285,87.123604,70,58,0
87.123604,87.22436,77,58,0
87.22436,87.32482,80,58,0
87.42385,87.52288,77,58,0
87.52288,87.62423,80,58,0
87.62423,87.72469,70,58,0
87.72469,87.82344,77,58,0
87.82344,87.92304,80,58,0
88.02439,88.124855,76,60,0
88.124855,88.2236,80,61,0
88.2236,88.32406,70,61,0
88.32406,88.425995,76,61,0
88.425995,88.52734,80,61,0
88.627815,88.729454,73,58,0
88.729454,88.832306,75,57,0
88.832306,88.93801,67,56,0
88.93801,89.045654,73,55,0
89.045654,89.1533,75,55,0
89.25465,89.355995,68,44,0
89.355995,89.457344,72,41,0
89.457344,89.5581,63,39,0
89.5581,89.65885,68,38,0
89.65885,89.759315,72,36,0
89.858345,89.957375,68,33,0
89.957375,90.05872,72,34,0
90.05872,90.15919,63,34,0
90.15919,90.257935,68,35,0
90.257935,90.35753,72,35,0
90.45888,90.55934,68,36,0
90.55934,90.65809,72,37,0
90.65809,90.75855,63,37,0
90.75855,90.86049,68,38,0
90.86049,90.96184,72,38,0
91.06231,91.16395,68,39,0
91.16395,91.2668,72,40,0
91.2668,91.36996,63,40,0
91.36996,91.473114,68,41,0
91.473114,91.57627,72,41,0
91.67761,91.77896,70,47,0
91.77896,91.88031,73,41,0
91.88031,91.981064,65,41,0
91.981064,92.081825,70,42,0
92.081825,92.18229,73,44,0
92.28132,92.38035,70,44,0
92.38035,92.48169,73,44,0
92.48169,92.58215,63,44,0
92.58215,92.6809,70,44,0
92.6809,92.7805,73,44,0
92.88185,92.982315,70,44,0
92.982315,93.08106,73,44,0
93.08106,93.181526,63,44,0
93.181526,93.28346,70,44,0
93.28346,93.3848,73,44,0
93.485275,93.58692,70,42,0
93.58692,93.689766,73,40,0
93.689766,93.79547,63,39,0
93.79547,93.903114,70,38,0
93.903114,94.01076,73,37,0
94.11211,94.213455,68,36,0
94.213455,94.314804,72,36,0
94.314804,94.41556,63,36,0
94.41556,94.51631,68,36,0
94.51631,94.616776,72,37,0
94.715805,94.814835,68,33,0
94.814835,94.91618,72,34,0
94.91618,95.01665,63,34,0
95.01665,95.115395,68,35,0
95.115395,95.215,72,35,0
95.316345,95.4168,68,36,0
95.4168,95.51555,72,37,0
95.51555,95.61601,63,37,0
95.61601,95.71795,68,38,0
95.71795,95.8193,72,38,0
95.91977,96.02141,68,39,0
96.02141,96.12426,72,40,0
96.12426,96.22742,63,40,0
96.22742,96.330574,68,41,0
96.330574,96.43373,72,41,0
96.53508,96.63643,70,44,0
96.63643,96.73777,73,42,0
96.73777,96.83853,63,42,0
96.83853,96.939285,70,41,0
96.939285,97.03975,73,40,0
97.13878,97.23781,70,39,0
97.23781,97.33684,73,39,0
97.33684,97.44583,63,38,0
97.44583,97.55482,70,37,0
97.55482,97.6594,73,37,0
97.76075,97.86121,70,31,0
97.86121,97.95996,73,31,0
97.95996,98.060425,63,31,0
98.060425,98.16236,70,31,0
98.16236,98.2637,73,31,0
98.364174,98.46582,70,34,0
98.46582,98.568665,73,34,0
98.568665,98.67437,63,34,0
98.67437,98.78201,70,34,0
98.78201,98.889656,73,34,0
98.991005,99.092354,68,35,0
99.092354,99.1937,72,35,0
99.1937,99.29446,63,35,0
99.29446,99.39521,68,35,0
99.39521,99.495674,72,34,0
99.5947,99.69373,68,34,0
99.69373,99.79508,72,34,0
99.79508,99.895546,63,34,0
99.895546,99.99429,68,33,0
99.99429,100.093895,72,33,0
100.195244,100.2957,68,33,0
100.2957,100.39445,72,31,0
100.39445,100.49491,63,31,0
100.49491,100.59685,68,31,0
100.59685,100.6982,72,31,0
100.79867,100.90031,68,33,0
100.90031,101.00316,72,33,0
101.00316,101.106316,63,33,0
101.106316,101.20947,68,33,0
101.20947,101.31263,72,33,0
101.41398,101.51533,63,34,0
101.51533,101.61667,68,34,0
101.61667,101.71743,61,34,0
101.71743,101.818184,63,34,0
101.818184,101.91865,68,34,0
101.91865,102.01768,72,33,0
102.01768,102.11671,63,33,0
102.11671,102.218056,68,33,0
102.218056,102.31852,60,33,0
102.31852,102.41727,63,33,0
102.41727,102.51686,68,33,0
102.61821,102.71867,63,31,0
102.71867,102.81742,68,31,0
102.81742,102.917885,61,30,0
102.917885,103.01982,63,30,0
103.01982,103.12117,68,30,0
103.221634,103.32328,63,29,0
103.32328,103.42613,68,29,0
103.42613,103.52929,60,29,0
103.52929,103.63244,63,29,0
103.63244,103.735596,68,29,0
103.836945,103.93829,60,29,0
103.93829,104.03964,63,29,0
104.03964,104.140396,58,29,0
104.140396,104.24116,60,29,0
104.24116,104.34161,63,29,0
104.44064,104.53967,60,29,0
104.53967,104.64102,63,29,0
104.64102,104.741486,56,29,0
104.741486,104.84023,60,29,0
104.84023,104.939835,63,29,0
105.04118,105.14165,60,28,0
105.14165,105.240395,63,28,0
105.240395,105.34086,58,28,0
105.34086,105.442795,60,28,0
105.442795,105.544136,63,28,0
105.64461,105.74625,60,28,0
105.74625,105.8491,63,28,0
105.8491,105.952255,56,28,0
105.952255,106.05541,60,28,0
106.05541,106.15857,63,27,0
106.25992,106.36127,60,29,0
106.36127,106.462616,63,29,0
106.462616,106.56337,58,29,0
106.56337,106.66412,60,29,0
106.66412,106.76459,63,29,0
106.86362,106.96265,60,28,0
106.96265,107.063995,63,28,0
107.063995,107.16446,56,28,0
107.16446,107.26321,60,28,0
107.26321,107.36281,63,28,0
107.46415,107.56461,60,27,0
107.56461,107.66336,63,27,0
107.66336,107.763824,58,27,0
107.763824,107.86576,60,27,0
107.86576,107.96711,63,26,0
108.06758,108.16922,60,26,0
108.16922,108.27207,63,26,0
108.27207,108.37523,56,26,0
108.37523,108.478386,60,26,0
108.478386,108.58154,63,27,0
108.685005,108.78877,48,28,0
108.78877,108.89253,51,28,0
108.89253,108.99569,56,29,0
108.99569,109.09885,60,30,0
109.09885,109.2017,63,30,0
109.2017,109.304245,68,31,0
109.304245,109.40648,72,33,0
109.40648,109.508415,75,33,0
109.508415,109.61036,80,34,0
109.61036,109.7117,84,35,0
109.7117,109.81305,87,36,0
109.81305,109.915596,92,44,0
109.915596,110.018135,87,36,0
110.018135,110.12068,84,35,0
110.12068,110.22322,80,34,0
110.22322,110.32577,75,33,0
110.32577,110.42831,72,31,0
110.42831,110.53177,68,37,0
110.53177,110.63523,72,31,0
110.63523,110.73808,75,33,0
110.73808,110.840324,80,34,0
110.840324,110.94196,84,35,0
110.94196,111.043015,87,36,0
111.043015,111.14319,92,40,0
111.14319,111.24365,87,35,0
111.24365,111.344406,84,34,0
111.344406,111.445755,80,33,0
111.445755,111.54739,75,31,0
111.54739,111.64933,72,30,0
111.64933,111.75188,68,34,0
111.75188,111.855034,72,29,0
111.855034,111.95819,75,30,0
111.95819,112.06104,80,31,0
112.06104,112.16358,84,33,0
112.16358,112.26613,87,35,0
112.26613,112.368065,92,40,0
112.368065,112.47,87,35,0
112.47,112.57164,84,34,0
112.57164,112.67299,80,33,0
112.67299,112.77434,75,31,0
112.77434,112.876274,72,31,0
112.876274,112.97821,68,34,0
112.97821,113.08045,72,28,0
113.08045,113.18299,75,30,0
113.18299,113.28554,80,31,0
113.28554,113.388695,84,33,0
113.388695,113.49185,87,34,0
113.49185,113.59562,92,39,0
113.59562,113.69939,87,33,0
113.69939,113.803154,84,33,0
113.803154,113.90691,80,33,0
113.90691,114.009766,75,31,0
114.009766,114.11201,72,31,0
114.11201,114.213356,68,31,0
114.213356,114.314705,72,34,0
114.314705,114.41605,80,35,0
114.41605,114.517105,84,38,0
114.517105,114.61934,80,36,0
114.61934,114.722496,72,35,0
114.722496,114.82535,68,35,0
114.82535,114.92759,72,34,0
114.92759,115.02894,80,37,0
115.02894,115.13058,84,39,0
115.13058,115.23343,80,38,0
115.23343,115.33783,72,37,0
115.33783,115.44159,68,37,0
115.44159,115.54444,72,38,0
115.54444,115.64699,80,41,0
115.64699,115.75045,84,42,0
115.75045,115.85516,80,42,0
115.85516,115.96115,72,39,0
115.96115,116.06812,68,39,0
116.06812,116.17444,72,41,0
116.17444,116.280106,80,42,0
116.280106,116.38482,84,44,0
116.38482,116.4918,80,40,0
116.4918,116.59977,72,38,0
116.59977,116.70741,68,37,0
116.70741,116.814384,72,35,0
116.814384,116.9207,80,37,0
116.9207,117.026695,84,38,0
117.026695,117.134,80,35,0
117.134,117.24265,72,34,0
117.24265,117.35303,68,33,0
117.35303,117.46271,72,33,0
117.46271,117.5717,80,34,0
117.5717,117.67868,84,34,0
117.67868,117.78665,80,33,0
117.78665,117.8953,72,29,0
117.8953,118.00568,68,29,0
118.00568,118.11571,72,29,0
118.11571,118.225395,80,30,0
118.225395,118.33804,84,31,0
118.33804,118.45675,80,30,0
118.45675,118.57923,72,29,0
2.824804,2.9455712,32,35,0
2.9455712,3.0646768,51,17,0
3.0646768,3.1821733,56,18,0
3.1821733,3.2977118,60,18,0
3.2977118,3.4113495,56,18,0
3.4113495,3.5235212,51,18,0
3.5235212,3.6339068,44,30,0
3.6339068,3.7432454,51,19,0
3.7432454,3.8518949,56,19,0
3.8518949,3.9598699,60,19,0
3.9598699,4.0671787,56,20,0
4.0671787,4.1738234,51,20,0
4.1738234,4.279487,44,20,0
4.279487,4.3851504,51,20,0
4.3851504,4.490814,56,20,0
4.490814,4.5964775,60,20,0
4.5964775,4.7021413,56,22,0
4.7021413,4.8078046,51,22,0
4.8078046,4.913468,44,23,0
4.913468,5.0194573,51,23,0
5.0194573,5.1261024,56,23,0
5.1261024,5.233745,60,24,0
5.233745,5.3423944,56,24,0
5.3423944,5.451733,51,24,0
5.451733,5.5621085,44,26,0
5.5621085,5.670426,51,26,0
5.670426,5.776745,56,25,0
5.776745,5.8811398,60,25,0
5.8811398,5.9855347,56,25,0
5.9855347,6.08993,51,24,0
6.08993,6.1936965,44,24,0
6.1936965,6.297463,51,24,0
6.297463,6.40123,56,24,0
6.40123,6.5043864,60,24,0
6.5043864,6.607543,56,23,0
6.607543,6.710393,51,23,0
6.710393,6.8123384,44,23,0
6.8123384,6.91339,51,23,0
6.91339,7.0153465,56,23,0
7.0153465,7.118503,60,23,0
7.118503,7.2201457,56,23,0
7.2201457,7.3211975,51,23,0
7.3211975,7.422847,44,23,0
7.422847,7.5250993,51,23,0
7.5250993,7.625562,56,22,0
7.625562,7.72691,60,22,0
7.72691,7.828258,56,22,0
7.828258,7.929606,51,22,0
7.929606,8.030954,44,24,0
8.030954,8.132302,51,24,0
8.132302,8.23365,55,24,0
8.23365,8.334998,61,25,0
8.334998,8.436346,55,25,0
8.436346,8.537989,51,26,0
8.537989,8.639925,44,26,0
8.639925,8.741862,51,27,0
8.741862,8.843505,55,27,0
8.843505,8.944853,61,27,0
8.944853,9.046201,55,28,0
9.046201,9.147252,51,28,0
9.147252,9.248008,44,29,0
9.248008,9.348763,51,29,0
9.348763,9.449519,55,29,0
9.449519,9.550275,61,29,0
9.550275,9.651031,55,30,0
9.651031,9.751493,51,30,0
9.751493,9.851665,44,30,0
9.851665,9.952419,51,30,0
9.952419,10.053472,55,29,0
10.053472,10.1548195,61,29,0
10.1548195,10.26074,55,29,0
10.26074,10.374349,51,28,0
10.374349,10.4768915,44,29,0
10.4768915,10.579131,51,29,0
10.579131,10.681068,56,28,0
10.681068,10.782416,60,28,0
10.782416,10.883468,56,28,0
10.883468,10.984223,51,27,0
10.984223,11.083534,44,31,0
11.083534,11.181998,51,31,0
11.181998,11.282754,56,30,0
11.282754,11.383217,60,30,0
11.383217,11.482246,56,29,0
11.482246,11.583299,51,29,0
11.583299,11.683762,44,28,0
11.683762,11.782791,52,28,0
11.782791,11.882391,56,29,0
11.882391,11.982564,60,29,0
11.982564,12.082156,56,29,0
12.082156,12.181747,52,30,0
12.181747,12.28221,44,31,0
12.28221,12.383853,52,31,0
12.383853,12.486703,56,33,0
12.486703,12.591102,60,34,0
12.591102,12.7022295,56,34,0
12.7022295,12.812449,52,35,0
12.812449,12.914992,37,44,0
12.914992,13.017232,56,31,0
13.017232,13.119169,61,31,0
13.119169,13.220221,65,31,0
13.220221,13.320976,61,33,0
13.320976,13.422029,56,33,0
13.422029,13.523376,49,46,0
13.523376,13.624724,56,34,0
13.624724,13.72548,61,34,0
13.72548,13.826236,65,34,0
13.826236,13.926406,61,34,0
13.926406,14.026576,56,35,0
14.026576,14.126168,49,35,0
14.126168,14.2257595,56,35,0
14.2257595,14.325352,61,36,0
14.325352,14.424943,65,36,0
14.424943,14.524534,61,36,0
14.524534,14.624126,56,36,0
14.624126,14.724297,49,50,0
14.724297,14.824467,55,37,0
14.824467,14.924784,61,37,0
14.924784,15.026578,65,38,0
15.026578,15.129886,61,38,0
15.129886,15.237162,55,38,0
15.237162,15.33851,48,50,0
15.33851,15.4398575,55,39,0
15.4398575,15.541205,60,39,0
15.541205,15.641961,65,38,0
15.641961,15.742717,60,38,0
15.742717,15.84318,55,37,0
15.84318,15.942209,48,37,0
15.942209,16.041239,55,36,0
16.041239,16.142586,60,36,0
16.142586,16.24305,64,36,0
16.24305,16.341797,60,35,0
16.341797,16.441397,55,35,0
16.441397,16.542744,53,34,0
16.542744,16.643208,56,34,0
16.643208,16.741955,60,33,0
16.741955,16.842417,65,33,0
16.842417,16.944353,60,31,0
16.944353,17.0457,56,31,0
17.0457,17.14617,47,41,0
17.14617,17.247812,53,29,0
17.247812,17.350662,56,29,0
17.350662,17.454124,63,29,0
17.454124,17.558836,56,28,0
17.558836,17.664501,53,28,0
17.664501,17.770164,46,47,0
17.770164,17.875195,53,28,0
17.875195,17.979275,56,28,0
17.979275,18.082737,63,29,0
18.082737,18.185587,56,29,0
18.185587,18.287523,53,29,0
18.287523,18.388577,46,31,0
18.388577,18.489332,53,31,0
18.489332,18.590088,56,33,0
18.590088,18.690844,63,33,0
18.690844,18.7916,56,34,0
18.7916,18.892355,53,35,0
18.892355,18.99311,46,34,0
18.99311,19.093866,53,34,0
19.093866,19.194622,56,34,0
19.194622,19.295378,62,33,0
19.295378,19.396132,56,33,0
19.396132,19.496887,53,33,0
19.496887,19.599432,46,31,0
19.599432,19.70228,53,31,0
19.70228,19.805742,56,31,0
19.805742,19.909824,62,29,0
19.909824,20.014536,56,29,0
20.014536,20.119884,53,29,0
20.119884,20.226538,39,51,0
20.226538,20.334179,46,29,0
20.334179,20.441154,51,31,0
20.441154,20.54747,61,31,0
20.54747,20.65346,51,33,0
20.65346,20.758806,46,33,0
20.758806,20.86352,39,27,0
20.86352,20.967915,46,27,0
20.967915,21.07231,51,28,0
21.07231,21.176704,56,28,0
21.176704,21.2811,51,28,0
21.2811,21.385494,46,28,0
21.385494,21.489418,39,28,0
21.489418,21.594448,46,27,0
21.594448,21.700766,51,26,0
21.700766,21.808073,55,26,0
21.808073,21.916723,51,24,0
21.916723,22.026754,46,24,0
22.026754,22.13802,39,29,0
22.13802,22.25358,46,28,0
22.25358,22.375002,49,27,0
22.375002,22.503159,55,27,0
22.503159,22.63859,49,26,0
22.63859,22.790604,46,25,0
22.790604,22.91137,32,41,0
22.91137,23.030476,51,17,0
23.030476,23.147972,56,18,0
23.147972,23.263512,60,18,0
23.263512,23.377148,56,18,0
23.377148,23.48932,51,18,0
23.48932,23.599707,44,36,0
23.599707,23.709044,51,19,0
23.709044,23.817694,56,19,0
23.817694,23.925669,60,19,0
23.925669,24.032978,56,20,0
24.032978,24.139622,51,20,0
24.139622,24.245287,44,20,0
24.245287,24.35095,51,20,0
24.35095,24.456614,56,20,0
24.456614,24.562277,60,20,0
24.562277,24.66794,56,22,0
24.66794,24.773603,51,22,0
24.773603,24.879267,44,23,0
24.879267,24.985256,51,23,0
24.985256,25.091902,56,23,0
25.091902,25.199545,60,24,0
25.199545,25.308193,56,24,0
25.308193,25.417532,51,24,0
25.417532,25.527908,44,26,0
25.527908,25.636225,51,26,0
25.636225,25.742544,56,25,0
25.742544,25.84694,60,25,0
25.84694,25.951334,56,25,0
25.951334,26.055729,51,24,0
26.055729,26.159496,44,24,0
26.159496,26.263262,51,24,0
26.263262,26.36703,56,24,0
26.36703,26.470186,60,24,0
26.470186,26.573341,56,23,0
26.573341,26.676191,51,23,0
26.676191,26.778137,44,23,0
26.778137,26.879189,51,23,0
26.879189,26.981146,56,23,0
26.981146,27.084303,60,23,0
27.084303,27.185944,56,23,0
27.185944,27.286997,51,23,0
27.286997,27.388645,44,23,0
27.388645,27.490898,51,23,0
27.490898,27.59136,56,22,0
27.59136,27.692709,60,22,0
27.692709,27.794058,56,22,0
27.794058,27.895405,51,22,0
27.895405,27.996754,44,25,0
27.996754,28.0981,51,25,0
28.0981,28.19945,55,26,0
28.19945,28.300797,61,26,0
28.300797,28.402145,55,27,0
28.402145,28.503788,51,27,0
28.503788,28.605724,44,28,0
28.605724,28.70766,51,28,0
28.70766,28.809303,55,29,0
28.809303,28.910652,61,29,0
28.910652,29.012,55,30,0
29.012,29.11305,51,30,0
29.11305,29.213806,44,31,0
29.213806,29.314562,51,31,0
29.314562,29.415318,55,34,0
29.415318,29.516073,61,34,0
29.516073,29.616829,55,35,0
29.616829,29.717293,51,35,0
29.717293,29.817463,44,35,0
29.817463,29.918219,51,35,0
29.918219,30.019182,55,34,0
30.019182,30.121758,61,33,0
30.121758,30.225965,55,33,0
30.225965,30.331991,51,31,0
30.331991,30.434536,44,31,0
30.434536,30.536776,51,31,0
30.536776,30.638712,56,30,0
30.638712,30.740059,60,30,0
30.740059,30.841112,56,30,0
30.841112,30.941868,51,29,0
30.941868,31.041178,44,35,0
31.041178,31.139643,51,35,0
31.139643,31.240398,56,34,0
31.240398,31.34086,60,34,0
31.34086,31.43989,56,33,0
31.43989,31.540941,51,33,0
31.540941,31.641405,44,31,0
31.641405,31.740435,52,31,0
31.740435,31.840034,56,33,0
31.840034,31.940208,60,33,0
31.940208,32.0398,56,33,0
32.0398,32.139393,52,34,0
32.139393,32.239853,44,35,0
32.239853,32.341496,52,35,0
32.341496,32.444347,56,37,0
32.444347,32.548744,60,38,0
32.548744,32.659874,56,38,0
32.659874,32.770092,52,39,0
32.770092,32.872635,37,48,0
32.872635,32.974876,56,34,0
32.974876,33.076813,61,34,0
33.076813,33.177864,65,34,0
33.177864,33.27862,61,36,0
33.27862,33.379673,56,36,0
33.379673,33.481018,49,40,0
33.481018,33.582367,56,37,0
33.582367,33.683125,61,37,0
33.683125,33.78388,65,37,0
33.78388,33.88405,61,37,0
33.88405,33.98422,56,38,0
33.98422,34.083813,49,38,0
34.083813,34.183403,56,38,0
34.183403,34.282993,61,39,0
34.282993,34.382587,65,39,0
34.382587,34.482178,61,39,0
34.482178,34.581768,56,39,0
34.581768,34.681942,49,41,0
34.681942,34.782112,55,40,0
34.782112,34.882427,61,40,0
34.882427,34.984222,65,41,0
34.984222,35.08753,61,41,0
35.08753,35.194805,55,41,0
35.194805,35.296154,48,55,0
35.296154,35.3975,55,42,0
35.3975,35.498848,60,42,0
35.498848,35.599606,65,41,0
35.599606,35.70036,60,41,0
35.70036,35.800823,55,39,0
35.800823,35.899853,48,39,0
35.899853,35.998882,55,38,0
35.998882,36.10023,60,38,0
36.10023,36.20069,65,38,0
36.20069,36.29944,60,36,0
36.29944,36.39904,55,36,0
36.39904,36.50039,48,35,0
36.50039,36.60085,55,35,0
36.60085,36.699596,60,34,0
36.699596,36.80006,64,34,0
36.80006,36.901997,60,33,0
36.901997,37.003345,55,31,0
37.003345,37.103813,48,36,0
37.103813,37.205456,55,29,0
37.205456,37.308304,60,29,0
37.308304,37.41401,64,29,0
37.41401,37.528828,60,28,0
37.528828,37.643757,55,28,0
37.643757,37.75071,43,41,0
37.75071,37.857376,50,25,0
37.857376,37.96376,55,25,0
37.96376,38.069862,59,26,0
38.069862,38.175682,55,26,0
38.175682,38.281223,50,26,0
38.281223,38.3882,43,28,0
38.3882,38.49339,50,26,0
38.49339,38.597084,55,26,0
38.597084,38.700714,59,27,0
38.700714,38.80488,55,27,0
38.80488,38.90959,50,27,0
38.90959,39.01748,43,27,0
39.01748,39.12421,50,27,0
39.12421,39.229477,55,27,0
39.229477,39.334465,62,27,0
39.334465,39.440285,55,27,0
39.440285,39.54695,50,27,0
39.54695,39.65419,43,27,0
39.65419,39.7619,50,28,0
39.7619,39.867733,55,28,0
39.867733,39.973934,62,26,0
39.973934,40.085114,55,26,0
40.085114,40.201912,50,26,0
40.201912,40.308014,36,44,0
40.308014,40.413834,43,23,0
40.413834,40.519653,48,25,0
40.519653,40.625477,55,25,0
40.625477,40.73074,48,26,0
40.73074,40.836002,43,26,0
40.836002,40.941265,36,24,0
40.941265,41.046253,43,24,0
41.046253,41.15124,48,24,0
41.15124,41.256226,55,25,0
41.256226,41.36177,48,25,0
41.36177,41.46787,43,25,0
41.46787,41.574253,36,26,0
41.574253,41.680073,43,26,0
41.680073,41.78674,48,26,0
41.78674,41.893982,55,26,0
41.893982,42.00212,48,25,0
42.00212,42.110096,43,24,0
42.110096,42.21858,36,24,0
42.21858,42.325226,43,23,0
42.325226,42.42994,48,25,0
42.42994,42.589943,55,23,0
42.589943,42.757847,48,19,0
42.757847,42.938374,40,39,0
42.938374,43.115215,48,24,0
43.115215,43.28776,58,33,0
43.28776,43.456562,48,24,0
43.456562,43.62179,40,26,0
43.62179,43.78494,48,24,0
43.78494,43.94673,58,33,0
43.94673,44.106865,48,24,0
44.106865,44.26536,40,27,0
44.26536,44.423855,48,24,0
44.423855,44.58235,58,33,0
44.58235,44.74085,48,24,0
44.74085,44.89934,40,27,0
44.89934,45.059143,48,24,0
45.059143,45.22094,58,35,0
45.22094,45.384777,48,24,0
45.384777,45.54965,41,34,0
45.54965,45.709785,48,27,0
45.709785,45.86638,58,36,0
45.86638,46.022972,48,27,0
46.022972,46.178623,41,30,0
46.178623,46.33427,48,28,0
46.33427,46.489006,56,37,0
46.489006,46.643436,48,28,0
46.643436,46.796055,41,33,0
46.796055,46.948387,48,29,0
46.948387,47.102512,55,37,0
47.102512,47.25424,48,29,0
47.25424,47.407467,41,34,0
47.407467,47.558605,48,30,0
47.558605,47.710625,53,39,0
47.710625,47.862648,48,30,0
47.862648,48.01467,43,42,0
48.01467,48.16669,51,30,0
48.16669,48.318714,61,40,0
48.318714,48.47103,51,30,0
48.47103,48.623936,43,35,0
48.623936,48.776546,51,31,0
48.776546,48.92857,61,42,0
48.92857,49.080296,51,33,0
49.080296,49.23143,43,38,0
49.23143,49.38256,51,34,0
49.38256,49.533695,61,44,0
49.533695,49.684536,51,34,0
49.684536,49.835083,43,35,0
49.835083,49.986423,51,30,0
49.986423,50.140884,61,39,0
50.140884,50.299236,51,30,0
50.299236,50.45305,44,38,0
50.45305,50.605953,51,30,0
50.605953,50.757977,61,40,0
50.757977,50.90911,51,31,0
50.90911,51.05765,44,35,0
51.05765,51.20764,51,31,0
51.20764,51.35762,60,40,0
51.35762,51.508186,51,33,0
51.508186,51.65816,44,38,0
51.65816,51.807278,51,34,0
51.807278,51.95725,58,42,0
51.95725,52.106636,51,35,0
52.106636,52.25777,44,40,0
52.25777,52.41159,51,36,0
52.41159,52.570484,56,45,0
52.570484,52.737335,51,37,0
52.737335,52.89115,39,47,0
52.89115,53.044056,55,38,0
53.044056,53.195484,60,39,0
53.195484,53.346916,55,38,0
53.346916,53.498936,48,41,0
53.498936,53.650368,55,38,0
53.650368,53.80121,60,44,0
53.80121,53.95146,55,38,0
53.95146,54.10085,41,51,0
54.10085,54.250237,50,34,0
54.250237,54.399624,60,35,0
54.399624,54.54901,50,30,0
54.54901,54.69927,43,39,0
54.69927,54.84967,50,30,0
54.84967,54.951466,59,35,0
54.951466,55.05477,55,30,0
55.05477,55.16205,50,30,0
55.16205,55.263397,48,37,0
55.263397,55.364742,52,26,0
55.364742,55.46609,55,25,0
55.46609,55.56685,60,25,0
55.56685,55.667603,55,26,0
55.667603,55.768066,52,26,0
55.768066,55.867096,48,27,0
55.867096,55.966125,53,27,0
55.966125,56.067474,56,28,0
56.067474,56.16794,59,28,0
56.16794,56.26668,56,29,0
56.26668,56.366283,53,29,0
56.366283,56.467632,48,31,0
56.467632,56.568092,53,31,0
56.568092,56.66684,56,31,0
56.66684,56.767303,62,30,0
56.767303,56.86924,56,29,0
56.86924,56.97059,53,29,0
56.97059,57.071056,48,27,0
57.071056,57.1727,52,26,0
57.1727,57.27555,56,26,0
57.27555,57.381252,62,24,0
57.381252,57.49607,56,24,0
57.49607,57.622192,52,28,0
57.622192,57.72354,48,33,0
57.72354,57.824886,52,26,0
57.824886,57.926235,55,27,0
57.926235,58.026993,60,27,0
58.026993,58.127747,55,28,0
58.127747,58.22821,52,28,0
58.22821,58.32724,47,36,0
58.32724,58.42627,53,30,0
58.42627,58.52762,56,30,0
58.52762,58.62808,59,31,0
58.62808,58.726826,56,31,0
58.726826,58.826427,53,33,0
58.826427,58.927776,47,34,0
58.927776,59.028236,53,34,0
59.028236,59.126984,56,33,0
59.126984,59.227448,62,33,0
59.227448,59.329384,56,31,0
59.329384,59.43073,53,30,0
59.43073,59.5312,47,30,0
59.5312,59.632843,52,29,0
59.632843,59.73569,56,28,0
59.73569,59.841396,62,28,0
59.841396,59.94904,56,27,0
59.94904,60.067528,52,28,0
60.067528,60.168877,45,35,0
60.168877,60.27022,52,26,0
60.27022,60.37157,57,27,0
60.37157,60.47233,61,27,0
60.47233,60.573082,57,28,0
60.573082,60.673546,52,28,0
60.673546,60.772575,45,29,0
60.772575,60.871605,54,30,0
60.871605,60.972954,57,30,0
60.972954,61.073414,59,31,0
61.073414,61.17216,57,31,0
61.17216,61.271763,54,33,0
61.271763,61.37311,45,34,0
61.37311,61.47357,54,34,0
61.47357,61.57232,57,33,0
61.57232,61.672783,62,33,0
61.672783,61.77472,57,31,0
61.77472,61.87607,54,30,0
61.87607,61.976536,45,30,0
61.976536,62.07818,52,29,0
62.07818,62.181026,56,28,0
62.181026,62.284794,62,28,0
62.284794,62.38856,56,27,0
62.38856,62.49233,52,28,0
62.49233,62.593678,45,37,0
62.593678,62.695023,52,30,0
62.695023,62.79637,57,31,0
62.79637,62.89713,61,31,0
62.89713,62.997883,57,34,0
62.997883,63.098347,52,34,0
63.098347,63.197376,45,35,0
63.197376,63.296406,52,35,0
63.296406,63.397755,57,36,0
63.397755,63.49822,61,36,0
63.49822,63.596962,57,38,0
63.596962,63.696564,52,38,0
63.696564,63.797913,45,39,0
63.797913,63.898373,51,39,0
63.898373,63.99712,54,40,0
63.99712,64.09759,60,40,0
64.09759,64.199524,54,42,0
64.199524,64.300865,51,42,0
64.300865,64.40134,45,44,0
64.40134,64.50298,51,44,0
64.50298,64.60552,54,45,0
64.60552,64.70455,60,45,0
64.70455,64.80358,54,46,0
64.80358,64.90261,51,46,0
64.90261,65.00396,37,59,0
65.00396,65.10531,56,44,0
65.10531,65.20666,58,45,0
65.20666,65.30741,61,45,0
65.30741,65.408165,58,45,0
65.408165,65.50863,56,46,0
65.50863,65.60766,49,46,0
65.60766,65.70669,56,48,0
65.70669,65.80804,58,48,0
65.80804,65.9085,61,49,0
65.9085,66.00725,58,49,0
66.00725,66.10685,56,49,0
66.10685,66.20819,37,63,0
66.20819,66.308655,56,50,0
66.308655,66.4074,58,52,0
66.4074,66.507866,61,52,0
66.507866,66.6098,58,52,0
66.6098,66.71115,56,53,0
66.71115,66.81162,49,53,0
66.81162,66.91326,56,49,0
66.91326,67.01611,58,48,0
67.01611,67.12182,61,46,0
67.12182,67.22946,58,46,0
67.22946,67.337105,56,46,0
67.337105,67.438446,39,67,0
67.438446,67.539795,51,44,0
67.539795,67.64114,56,45,0
67.64114,67.741905,60,45,0
67.741905,67.84266,56,45,0
67.84266,67.94312,51,46,0
67.94312,68.04215,48,46,0
68.04215,68.14118,51,48,0
68.14118,68.24253,56,48,0
68.24253,68.34299,60,49,0
68.34299,68.441734,56,49,0
68.441734,68.541336,51,49,0
68.541336,68.642685,39,68,0
68.642685,68.74315,51,50,0
68.74315,68.841896,56,52,0
68.841896,68.94236,60,52,0
68.94236,69.0443,56,52,0
69.0443,69.14564,51,53,0
69.14564,69.24611,48,53,0
69.24611,69.347755,51,50,0
69.347755,69.4506,56,49,0
69.4506,69.556305,60,49,0
69.556305,69.66395,56,49,0
69.66395,69.77159,51,49,0
69.77159,69.87294,39,67,0
69.87294,69.97429,51,44,0
69.97429,70.07564,55,45,0
70.07564,70.17639,63,45,0
70.17639,70.277145,55,45,0
70.277145,70.37761,51,46,0
70.37761,70.47664,46,46,0
70.47664,70.57567,51,48,0
70.57567,70.67702,55,48,0
70.67702,70.77748,63,49,0
70.77748,70.87623,55,49,0
70.87623,70.97583,51,49,0
70.97583,71.07718,39,70,0
71.07718,71.177635,51,50,0
71.177635,71.27638,55,52,0
71.27638,71.37685,63,52,0
71.37685,71.47878,55,52,0
71.47878,71.58013,51,53,0
71.58013,71.6806,46,53,0
71.6806,71.78224,51,50,0
71.78224,71.88509,55,49,0
71.88509,71.9908,63,49,0
71.9908,72.09844,55,49,0
72.09844,72.206085,51,49,0
72.206085,72.35811,41,69,0
72.35811,72.510124,53,40,0
72.510124,72.66126,56,40,0
72.66126,72.8121,53,40,0
72.8121,72.96065,44,40,0
72.96065,73.11151,53,40,0
73.11151,73.211975,56,39,0
73.211975,73.31072,53,46,0
73.31072,73.41032,48,39,0
73.41032,73.56204,41,58,0
73.56204,73.71088,53,39,0
73.71088,73.862305,57,39,0
73.862305,74.014626,51,39,0
74.014626,74.165764,48,44,0
74.165764,74.319275,53,44,0
74.319275,74.418304,57,45,0
74.418304,74.517334,53,46,0
74.517334,74.61636,48,46,0
74.61636,74.71771,34,67,0
74.71771,74.81906,53,44,0
74.81906,74.92041,58,45,0
74.92041,75.021164,61,45,0
75.021164,75.121925,58,45,0
75.121925,75.22238,53,46,0
75.22238,75.32141,46,46,0
75.32141,75.42044,53,48,0
75.42044,75.52179,58,48,0
75.52179,75.62225,61,49,0
75.62225,75.721,58,49,0
75.721,75.8206,53,49,0
75.8206,75.92195,34,71,0
75.92195,76.022415,52,48,0
76.022415,76.12116,56,48,0
76.12116,76.22162,61,46,0
76.22162,76.323555,56,46,0
76.323555,76.424904,52,46,0
76.424904,76.525375,46,45,0
76.525375,76.627014,52,45,0
76.627014,76.729866,56,45,0
76.729866,76.83557,61,44,0
76.83557,76.943214,56,44,0
76.943214,77.05086,52,44,0
77.05086,77.15221,39,63,0
77.15221,77.253555,51,44,0
77.253555,77.354904,56,45,0
77.354904,77.45566,60,45,0
77.45566,77.55641,56,45,0
77.55641,77.656876,51,46,0
77.656876,77.755905,48,46,0
77.755905,77.854935,51,48,0
77.854935,77.95628,56,48,0
77.95628,78.05675,60,49,0
78.05675,78.155495,56,49,0
78.155495,78.25509,51,49,0
78.25509,78.35644,39,67,0
78.35644,78.4569,51,50,0
78.4569,78.55565,56,52,0
78.55565,78.65611,60,52,0
78.65611,78.75805,56,52,0
78.75805,78.8594,51,53,0
78.8594,78.95987,48,53,0
78.95987,79.06151,51,50,0
79.06151,79.16436,56,49,0
79.16436,79.26752,60,49,0
79.26752,79.370674,56,49,0
79.370674,79.47383,51,49,0
79.47383,79.62528,39,56,0
79.62528,79.777596,57,36,0
79.777596,79.92873,60,37,0
79.92873,80.0787,57,38,0
80.0787,80.2278,51,39,0
80.2278,80.37578,57,39,0
80.37578,80.47397,60,40,0
80.47397,80.5716,57,40,0
80.5716,80.668686,51,41,0
80.668686,80.81473,39,58,0
80.81473,80.96299,57,42,0
80.96299,81.11325,60,44,0
81.11325,81.263504,57,44,0
81.263504,81.38441,51,46,0
81.414635,81.536255,57,45,0
81.56666,81.668594,65,44,0
81.668594,81.770836,57,42,0
81.770836,81.873375,51,41,0
81.873375,82.02903,39,60,0
82.02903,82.18407,58,40,0
82.18407,82.33849,65,41,0
82.33849,82.49231,58,42,0
82.49231,82.64522,51,44,0
82.64522,82.79753,58,45,0
82.79753,82.89888,61,45,0
82.89888,82.99963,58,46,0
82.99963,83.100395,51,47,0
83.100395,83.25065,39,64,0
83.25065,83.40032,59,48,0
83.40032,83.54943,62,49,0
83.54943,83.697975,59,50,0
83.697975,83.84483,51,48,0
83.84483,83.99281,59,47,0
83.99281,84.092125,67,46,0
84.092125,84.192,59,46,0
84.192,84.292465,51,45,0
84.292465,84.44811,39,67,0
84.44811,84.60316,60,44,0
84.60316,84.75758,67,45,0
84.75758,84.9114,60,48,0
84.9114,85.0643,51,49,0
85.0643,85.21662,60,50,0
85.21662,85.31797,63,51,0
85.31797,85.418724,60,51,0
85.418724,85.51948,51,51,0
85.51948,85.66973,39,64,0
85.66973,85.81941,60,52,0
85.81941,85.96852,66,52,0
85.96852,86.117065,60,53,0
86.117065,86.21753,51,46,0
86.21753,86.319176,60,46,0
86.319176,86.421715,63,46,0
86.421715,86.520744,69,46,0
86.520744,86.619774,63,46,0
86.619774,86.7188,60,46,0
86.7188,86.82015,51,70,0
86.82015,86.9215,58,50,0
86.9215,87.02285,62,51,0
87.02285,87.123604,68,50,0
87.123604,87.22436,62,51,0
87.22436,87.32482,58,51,0
87.32482,87.42385,51,51,0
87.42385,87.52288,58,51,0
87.52288,87.62423,62,52,0
87.62423,87.72469,68,52,0
87.72469,87.82344,62,52,0
87.82344,87.92304,58,52,0
87.92304,88.02439,51,52,0
88.02439,88.124855,58,51,0
88.124855,88.2236,61,51,0
88.2236,88.32406,68,51,0
88.32406,88.425995,61,51,0
88.425995,88.52734,58,51,0
88.52734,88.627815,51,51,0
88.627815,88.729454,58,50,0
88.729454,88.832306,61,50,0
88.832306,88.93801,63,49,0
88.93801,89.045654,61,49,0
89.045654,89.1533,58,51,0
89.1533,89.25465,44,68,0
89.25465,89.355995,51,40,0
89.355995,89.457344,56,40,0
89.457344,89.5581,60,40,0
89.5581,89.65885,56,39,0
89.65885,89.759315,51,39,0
89.759315,89.858345,44,39,0
89.858345,89.957375,51,29,0
89.957375,90.05872,56,29,0
90.05872,90.15919,60,29,0
90.15919,90.257935,56,30,0
90.257935,90.35753,51,30,0
90.35753,90.45888,44,31,0
90.45888,90.55934,51,31,0
90.55934,90.65809,56,33,0
90.65809,90.75855,60,33,0
90.75855,90.86049,56,33,0
90.86049,90.96184,51,34,0
90.96184,91.06231,44,34,0
91.06231,91.16395,51,35,0
91.16395,91.2668,56,35,0
91.2668,91.36996,60,35,0
91.36996,91.473114,56,36,0
91.473114,91.57627,51,36,0
91.57627,91.67761,44,39,0
91.67761,91.77896,51,39,0
91.77896,91.88031,55,40,0
91.88031,91.981064,61,41,0
91.981064,92.081825,55,42,0
92.081825,92.18229,51,42,0
92.18229,92.28132,44,44,0
92.28132,92.38035,51,42,0
92.38035,92.48169,55,42,0
92.48169,92.58215,61,40,0
92.58215,92.6809,55,40,0
92.6809,92.7805,51,40,0
92.7805,92.88185,44,40,0
92.88185,92.982315,51,40,0
92.982315,93.08106,55,40,0
93.08106,93.181526,61,40,0
93.181526,93.28346,55,40,0
93.28346,93.3848,51,40,0
93.3848,93.485275,44,40,0
93.485275,93.58692,51,40,0
93.58692,93.689766,55,40,0
93.689766,93.79547,61,41,0
93.79547,93.903114,55,41,0
93.903114,94.01076,51,41,0
94.01076,94.11211,44,49,0
94.11211,94.213455,51,36,0
94.213455,94.314804,56,36,0
94.314804,94.41556,60,36,0
94.41556,94.51631,56,36,0
94.51631,94.616776,51,36,0
94.616776,94.715805,44,36,0
94.715805,94.814835,51,29,0
94.814835,94.91618,56,29,0
94.91618,95.01665,60,29,0
95.01665,95.115395,56,30,0
95.115395,95.215,51,30,0
95.215,95.316345,44,31,0
95.316345,95.4168,51,31,0
95.4168,95.51555,56,33,0
95.51555,95.61601,60,33,0
95.61601,95.71795,56,33,0
95.71795,95.8193,51,34,0
95.8193,95.91977,44,34,0
95.91977,96.02141,51,35,0
96.02141,96.12426,56,35,0
96.12426,96.22742,60,35,0
96.22742,96.330574,56,36,0
96.330574,96.43373,51,36,0
96.43373,96.53508,44,39,0
96.53508,96.63643,51,38,0
96.63643,96.73777,55,38,0
96.73777,96.83853,61,37,0
96.83853,96.939285,55,37,0
96.939285,97.03975,51,36,0
97.03975,97.13878,44,36,0
97.13878,97.23781,51,36,0
97.23781,97.33684,55,35,0
97.33684,97.44583,61,35,0
97.44583,97.55482,55,34,0
97.55482,97.6594,51,34,0
97.6594,97.76075,44,26,0
97.76075,97.86121,51,26,0
97.86121,97.95996,55,26,0
97.95996,98.060425,61,27,0
98.060425,98.16236,55,27,0
98.16236,98.2637,51,28,0
98.2637,98.364174,44,28,0
98.364174,98.46582,51,27,0
98.46582,98.568665,55,27,0
98.568665,98.67437,61,27,0
98.67437,98.78201,55,28,0
98.78201,98.889656,51,30,0
98.889656,98.991005,44,37,0
98.991005,99.092354,51,29,0
99.092354,99.1937,56,29,0
99.1937,99.29446,60,29,0
99.29446,99.39521,56,29,0
99.39521,99.495674,51,29,0
99.495674,99.5947,44,29,0
99.5947,99.69373,51,29,0
99.69373,99.79508,56,29,0
99.79508,99.895546,60,29,0
99.895546,99.99429,56,29,0
99.99429,100.093895,51,29,0
100.093895,100.195244,44,28,0
100.195244,100.2957,51,28,0
100.2957,100.39445,56,28,0
100.39445,100.49491,60,28,0
100.49491,100.59685,56,28,0
100.59685,100.6982,51,28,0
100.6982,100.79867,44,28,0
100.79867,100.90031,51,28,0
100.90031,101.00316,56,28,0
101.00316,101.106316,60,28,0
101.106316,101.20947,56,28,0
101.20947,101.31263,51,27,0
101.31263,101.41398,39,37,0
101.41398,101.51533,44,29,0
101.51533,101.61667,51,29,0
101.61667,101.71743,56,29,0
101.71743,101.818184,51,29,0
101.818184,101.91865,44,29,0
101.91865,102.01768,39,29,0
102.01768,102.11671,44,28,0
102.11671,102.218056,51,28,0
102.218056,102.31852,56,28,0
102.31852,102.41727,51,28,0
102.41727,102.51686,44,28,0
102.51686,102.61821,39,28,0
102.61821,102.71867,44,27,0
102.71867,102.81742,51,27,0
102.81742,102.917885,56,26,0
102.917885,103.01982,51,26,0
103.01982,103.12117,44,26,0
103.12117,103.221634,39,25,0
103.221634,103.32328,44,25,0
103.32328,103.42613,51,25,0
103.42613,103.52929,56,25,0
103.52929,103.63244,51,25,0
103.63244,103.735596,44,25,0
103.735596,103.836945,32,39,0
103.836945,103.93829,39,27,0
103.93829,104.03964,44,27,0
104.03964,104.140396,51,27,0
104.140396,104.24116,44,27,0
104.24116,104.34161,39,28,0
104.34161,104.44064,32,28,0
104.44064,104.53967,39,27,0
104.53967,104.64102,44,27,0
104.64102,104.741486,51,27,0
104.741486,104.84023,44,27,0
104.84023,104.939835,39,27,0
104.939835,105.04118,32,26,0
105.04118,105.14165,39,26,0
105.14165,105.240395,44,26,0
105.240395,105.34086,51,26,0
105.34086,105.442795,44,26,0
105.442795,105.544136,39,26,0
105.544136,105.64461,32,25,0
105.64461,105.74625,39,25,0
105.74625,105.8491,44,24,0
105.8491,105.952255,51,24,0
105.952255,106.05541,44,24,0
106.05541,106.15857,39,24,0
106.15857,106.25992,32,34,0
106.25992,106.36127,39,26,0
106.36127,106.462616,44,26,0
106.462616,106.56337,51,26,0
106.56337,106.66412,44,26,0
106.66412,106.76459,39,26,0
106.76459,106.86362,32,26,0
106.86362,106.96265,39,26,0
106.96265,107.063995,44,26,0
107.063995,107.16446,51,26,0
107.16446,107.26321,44,25,0
107.26321,107.36281,39,25,0
107.36281,107.46415,32,25,0
107.46415,107.56461,39,25,0
107.56461,107.66336,44,25,0
107.66336,107.763824,51,25,0
107.763824,107.86576,44,25,0
107.86576,107.96711,39,24,0
107.96711,108.06758,32,23,0
108.06758,108.16922,39,23,0
108.16922,108.27207,44,23,0
108.27207,108.37523,51,23,0
108.37523,108.478386,44,23,0
108.478386,108.58154,39,23,0
108.58154,108.685005,32,35,0
108.685005,108.78877,39,23,0
108.78877,108.89253,44,24,0
108.89253,108.99569,48,24,0
108.99569,109.09885,51,25,0
109.09885,109.2017,56,26,0
109.2017,109.304245,60,26,0
109.304245,109.40648,63,27,0
109.40648,109.508415,68,28,0
109.508415,109.61036,72,28,0
109.61036,109.7117,75,29,0
109.7117,109.81305,80,29,0
109.81305,109.915596,84,35,0
109.915596,110.018135,80,29,0
110.018135,110.12068,75,28,0
110.12068,110.22322,72,28,0
110.22322,110.32577,68,27,0
110.32577,110.42831,63,26,0
110.42831,110.53177,56,30,0
110.53177,110.63523,63,25,0
110.63523,110.73808,68,26,0
110.73808,110.840324,72,27,0
110.840324,110.94196,75,28,0
110.94196,111.043015,80,29,0
111.043015,111.14319,84,36,0
111.14319,111.24365,80,28,0
111.24365,111.344406,75,27,0
111.344406,111.445755,72,26,0
111.445755,111.54739,68,25,0
111.54739,111.64933,63,24,0
111.64933,111.75188,56,29,0
111.75188,111.855034,63,24,0
111.855034,111.95819,68,25,0
111.95819,112.06104,72,27,0
112.06104,112.16358,75,28,0
112.16358,112.26613,80,30,0
112.26613,112.368065,84,37,0
112.368065,112.47,80,31,0
112.47,112.57164,75,30,0
112.57164,112.67299,72,29,0
112.67299,112.77434,68,28,0
112.77434,112.876274,63,27,0
112.876274,112.97821,56,30,0
112.97821,113.08045,63,26,0
113.08045,113.18299,68,27,0
113.18299,113.28554,72,28,0
113.28554,113.388695,75,29,0
113.388695,113.49185,80,30,0
113.49185,113.59562,84,31,0
113.59562,113.69939,80,31,0
113.69939,113.803154,75,30,0
113.803154,113.90691,72,29,0
113.90691,114.009766,68,28,0
114.009766,114.11201,63,28,0
114.11201,114.213356,56,35,0
114.213356,114.314705,63,28,0
114.314705,114.41605,68,30,0
114.41605,114.517105,75,34,0
114.517105,114.61934,68,31,0
114.61934,114.722496,63,29,0
114.722496,114.82535,56,30,0
114.82535,114.92759,63,33,0
114.92759,115.02894,68,36,0
115.02894,115.13058,75,38,0
115.13058,115.23343,68,36,0
115.23343,115.33783,63,35,0
115.33783,115.44159,56,34,0
115.44159,115.54444,63,37,0
115.54444,115.64699,68,38,0
115.64699,115.75045,75,41,0
115.75045,115.85516,68,40,0
115.85516,115.96115,63,38,0
115.96115,116.06812,56,33,0
116.06812,116.17444,63,35,0
116.17444,116.280106,68,37,0
116.280106,116.38482,75,39,0
116.38482,116.4918,68,36,0
116.4918,116.59977,63,33,0
116.59977,116.70741,56,31,0
116.70741,116.814384,63,34,0
116.814384,116.9207,68,36,0
116.9207,117.026695,75,37,0
117.026695,117.134,68,34,0
117.134,117.24265,63,31,0
117.24265,117.35303,56,29,0
117.35303,117.46271,63,31,0
117.46271,117.5717,68,31,0
117.5717,117.67868,75,33,0
117.67868,117.78665,68,31,0
117.78665,117.8953,63,28,0
117.8953,118.00568,56,26,0
118.00568,118.11571,63,28,0
118.11571,118.225395,68,29,0
118.225395,118.33804,75,30,0
118.33804,118.45675,68,29,0
118.45675,118.57923,63,28,0
118.57923,118.95056,56,34,0
119.32189,119.69323,44,33,0
119.32189,119.69323,51,33,0
119.32189,119.69323,60,33,0
120.4593,120.66363,38,26,0
120.66363,120.8301,39,31,0
120.88844,120.975395,39,33,0
120.975395,121.06131,41,27,0
121.06131,121.14649,39,33,0
121.14649,121.230736,41,27,0
121.230736,121.31428,39,33,0
121.31428,121.39665,41,27,0
121.39665,121.47889,39,30,0
121.47889,121.56202,41,24,0
121.56202,121.64634,39,30,0
121.64634,121.73159,41,26,0
121.73159,121.8181,39,30,0
121.8181,121.90238,41,26,0
122.35309,125.77501,51,35,0
122.13139,125.77501,44,31,0
121.90238,125.77501,32,28,0
