start_time,end_time,note_value,velocity,instrument_program_number
0.687718,1.178672,69,77,0
1.178672,1.325767,73,70,0
1.031577,1.325767,66,68,0
1.325767,1.46959,74,71,0
1.46959,1.613413,76,71,0
1.325767,1.613413,66,60,0
1.613413,1.762009,78,72,0
1.762009,1.8454583,79,73,0
1.8454583,1.8871828,78,70,0
1.8871828,1.9289075,79,68,0
1.613413,1.9289075,66,61,0
1.9289075,2.2314036,78,76,0
2.2314036,2.3779235,76,74,0
2.3779235,2.5244434,74,74,0
2.2314036,2.5244434,67,62,0
2.5244434,2.6709635,73,73,0
2.6709635,2.8174834,71,72,0
2.5244434,2.8174834,67,62,0
2.8174834,2.9613066,69,74,0
2.9613066,3.1051295,74,70,0
3.1051295,3.2084086,74,74,0
3.2084086,3.3116875,76,70,0
3.3116875,3.4149666,74,70,0
3.1051295,3.4149666,66,62,0
3.4149666,3.566658,73,70,0
3.566658,3.7183495,71,70,0
3.4149666,3.7183495,66,59,0
4.0349226,4.3668175,69,53,0
4.0349226,4.3668175,64,44,0
4.3668175,4.7331624,69,68,0
4.3668175,4.7331624,67,57,0
3.7183495,4.7331624,73,73,0
4.7331624,4.8802576,69,74,0
4.8802576,5.0273523,73,70,0
5.0273523,5.1711755,74,71,0
5.1711755,5.3149986,76,71,0
5.0273523,5.3149986,66,60,0
5.3149986,5.4635944,78,72,0
5.4635944,5.543386,79,73,0
5.543386,5.5832815,78,70,0
5.5832815,5.6231775,79,68,0
5.3149986,5.6231775,66,61,0
5.6231775,5.9256735,78,76,0
5.9256735,6.0721936,76,74,0
6.0721936,6.2187133,74,74,0
5.9256735,6.2187133,67,62,0
6.2187133,6.3652334,73,73,0
6.3652334,6.5117536,71,72,0
6.2187133,6.5117536,67,62,0
6.5117536,6.6555767,69,74,0
6.6555767,6.7993994,73,70,0
6.7993994,6.9026785,73,74,0
6.9026785,7.0059576,74,70,0
7.0059576,7.1092367,73,70,0
6.7993994,7.1092367,67,62,0
7.1092367,7.260928,71,70,0
7.260928,7.4126196,69,70,0
7.1092367,7.4126196,67,59,0
7.7257886,8.043216,66,53,0
7.4126196,8.396239,74,73,0
8.396239,8.546782,69,40,0
8.546782,8.697324,73,39,0
8.043216,8.697324,66,47,0
8.697324,8.84452,74,39,0
8.84452,8.991715,76,39,0
8.697324,8.991715,66,33,0
8.991715,9.143791,78,40,0
9.143791,9.227722,79,40,0
9.227722,9.269687,78,39,0
9.269687,9.311652,79,37,0
8.991715,9.311652,66,33,0
9.311652,9.62125,78,42,0
9.62125,9.771213,76,40,0
9.771213,9.921175,74,40,0
9.62125,9.921175,67,34,0
9.921175,10.071137,73,40,0
10.071137,10.2211,71,40,0
9.921175,10.2211,67,34,0
10.2211,10.368296,69,40,0
10.368296,10.515492,74,39,0
10.515492,10.621195,74,40,0
10.621195,10.726897,76,39,0
10.726897,10.8326,74,39,0
10.515492,10.8326,66,34,0
10.8326,10.987847,73,39,0
10.987847,11.143095,71,39,0
10.8326,11.143095,66,32,0
11.463591,11.805218,69,29,0
11.463591,11.805218,64,24,0
11.805218,12.160395,69,37,0
11.805218,12.160395,67,31,0
11.143095,12.160395,73,40,0
12.160395,12.310937,69,40,0
12.310937,12.461479,73,39,0
12.461479,12.608675,74,39,0
12.608675,12.755871,76,39,0
12.461479,12.755871,66,33,0
12.755871,12.907947,78,40,0
12.907947,12.990921,79,40,0
12.990921,13.032408,78,39,0
13.032408,13.0738945,79,37,0
12.755871,13.0738945,66,33,0
13.0738945,13.383492,78,42,0
13.383492,13.533455,76,40,0
13.533455,13.683417,74,40,0
13.383492,13.683417,67,34,0
13.683417,13.83338,73,40,0
13.83338,13.983342,71,40,0
13.683417,13.983342,67,34,0
13.983342,14.130539,69,40,0
14.130539,14.277735,73,39,0
14.277735,14.383437,73,40,0
14.383437,14.48914,74,39,0
14.48914,14.594843,73,39,0
14.277735,14.594843,67,34,0
14.594843,14.75009,71,39,0
14.75009,14.905337,69,39,0
14.594843,14.905337,67,32,0
15.225834,15.550719,66,29,0
15.550719,15.890354,66,37,0
14.905337,15.890354,74,40,0
15.890354,16.037449,64,73,0
16.037449,16.184544,68,70,0
16.184544,16.328367,69,71,0
16.328367,16.47219,71,71,0
16.184544,16.47219,61,60,0
16.47219,16.620787,73,72,0
16.620787,16.704962,74,73,0
16.704962,16.74705,73,70,0
16.74705,16.789137,74,68,0
16.47219,16.789137,61,61,0
16.789137,17.091633,73,76,0
17.091633,17.238152,71,74,0
17.238152,17.384672,69,74,0
17.091633,17.384672,62,62,0
17.384672,17.531193,68,73,0
17.531193,17.677713,66,72,0
17.384672,17.677713,62,62,0
17.677713,17.821535,64,74,0
17.821535,17.965359,69,70,0
17.965359,18.068638,69,74,0
18.068638,18.171917,71,70,0
18.171917,18.275196,69,70,0
17.965359,18.275196,61,62,0
18.275196,18.426888,68,70,0
18.426888,18.578579,66,70,0
18.275196,18.578579,61,59,0
18.897745,19.22776,64,53,0
18.897745,19.22776,59,44,0
19.22776,19.584011,64,68,0
19.22776,19.584011,62,57,0
18.578579,19.584011,68,73,0
19.584011,19.731106,64,74,0
19.731106,19.878202,68,70,0
19.878202,20.022024,69,71,0
20.022024,20.165848,71,71,0
19.878202,20.165848,61,60,0
20.165848,20.314444,73,72,0
20.314444,20.396948,74,73,0
20.396948,20.4382,73,70,0
20.4382,20.47945,74,68,0
20.165848,20.47945,61,61,0
20.47945,20.781946,73,76,0
20.781946,20.928467,71,74,0
20.928467,21.074987,69,74,0
20.781946,21.074987,62,62,0
21.074987,21.221506,68,73,0
21.221506,21.368027,66,72,0
21.074987,21.368027,62,62,0
21.368027,21.51185,64,74,0
21.51185,21.655672,68,70,0
21.655672,21.758951,68,74,0
21.758951,21.86223,69,70,0
21.86223,21.96551,68,70,0
21.655672,21.96551,62,62,0
21.96551,22.1172,66,70,0
22.1172,22.268892,64,70,0
21.96551,22.268892,62,59,0
22.582062,22.907476,61,53,0
22.268892,23.262653,69,73,0
23.262653,23.413452,64,40,0
23.413452,23.564253,68,39,0
22.907476,23.564253,61,47,0
23.564253,23.7117,69,39,0
23.7117,23.85915,71,39,0
23.564253,23.85915,61,33,0
23.85915,24.016153,73,40,0
24.016153,24.102573,74,40,0
24.102573,24.145782,73,39,0
24.145782,24.188993,74,37,0
23.85915,24.188993,61,33,0
24.188993,24.499104,73,42,0
24.499104,24.64932,71,40,0
24.64932,24.79954,69,40,0
24.499104,24.79954,62,34,0
24.79954,24.949757,68,40,0
24.949757,25.099976,66,40,0
24.79954,25.099976,62,34,0
25.099976,25.247425,64,40,0
25.247425,25.394873,69,39,0
25.394873,25.500755,69,40,0
25.500755,25.606636,71,39,0
25.606636,25.712519,69,39,0
25.394873,25.712519,61,34,0
25.712519,25.86803,68,39,0
25.86803,26.023544,66,39,0
25.712519,26.023544,61,32,0
26.349863,26.687529,64,29,0
26.349863,26.687529,59,24,0
26.687529,27.052715,64,37,0
26.687529,27.052715,62,31,0
26.023544,27.052715,68,40,0
27.052715,27.20722,64,40,0
27.20722,27.361723,68,39,0
27.361723,27.512629,69,39,0
27.512629,27.663534,71,39,0
27.361723,27.663534,61,33,0
27.663534,27.818863,73,40,0
27.818863,27.904522,74,40,0
27.904522,27.947353,73,39,0
27.947353,27.990183,74,37,0
27.663534,27.990183,61,33,0
27.990183,28.306755,73,42,0
28.306755,28.461674,71,40,0
28.461674,28.616592,69,40,0
28.306755,28.616592,62,34,0
28.616592,28.771511,68,40,0
28.771511,28.92643,66,40,0
28.616592,28.92643,62,34,0
28.92643,29.077335,64,40,0
29.077335,29.228241,68,39,0
29.228241,29.337322,68,40,0
29.337322,29.446404,69,39,0
29.446404,29.555485,68,39,0
29.228241,29.555485,62,34,0
29.555485,29.713337,66,39,0
29.713337,29.87119,64,39,0
29.555485,29.87119,62,32,0
30.198433,30.534155,61,37,0
30.534155,30.8861,61,73,0
30.534155,30.8861,67,73,0
29.87119,31.033195,69,40,0
31.033195,31.18029,73,80,0
30.8861,31.18029,66,78,0
31.18029,31.324114,74,81,0
31.324114,31.467937,76,81,0
31.18029,31.467937,66,69,0
31.467937,31.616533,78,82,0
31.616533,31.696325,79,83,0
31.696325,31.73622,78,80,0
31.73622,31.776115,79,78,0
31.467937,31.776115,66,70,0
31.776115,32.078613,78,87,0
32.078613,32.225132,76,85,0
32.225132,32.37165,74,85,0
32.078613,32.37165,67,71,0
32.37165,32.518173,73,83,0
32.518173,32.664692,71,82,0
32.37165,32.664692,67,71,0
32.664692,32.808514,69,85,0
32.808514,32.95234,74,80,0
32.95234,33.05562,74,85,0
33.05562,33.158897,76,80,0
33.158897,33.262177,74,80,0
32.95234,33.262177,66,71,0
33.262177,33.413868,73,80,0
33.413868,33.56556,71,80,0
33.262177,33.56556,66,67,0
33.878727,34.196156,69,60,0
33.878727,34.196156,64,50,0
34.196156,34.5481,69,78,0
34.196156,34.5481,67,65,0
33.56556,34.5481,73,83,0
34.5481,34.695194,69,85,0
34.695194,34.842293,73,80,0
34.842293,34.986115,74,81,0
34.986115,35.129936,76,81,0
34.842293,35.129936,66,69,0
35.129936,35.278534,78,82,0
35.278534,35.36104,79,83,0
35.36104,35.40229,78,80,0
35.40229,35.44354,79,78,0
35.129936,35.44354,66,70,0
35.44354,35.746037,78,87,0
35.746037,35.892555,76,85,0
35.892555,36.039078,74,85,0
35.746037,36.039078,67,71,0
36.039078,36.185596,73,83,0
36.185596,36.332115,71,82,0
36.039078,36.332115,67,71,0
36.332115,36.47594,69,85,0
36.47594,36.619762,73,80,0
36.619762,36.72304,73,85,0
36.72304,36.82632,74,80,0
36.82632,36.9296,73,80,0
36.619762,36.9296,67,71,0
36.9296,37.08129,71,80,0
37.08129,37.232983,69,80,0
36.9296,37.232983,67,67,0
37.54615,37.86976,66,60,0
37.232983,38.219593,74,83,0
38.219593,38.372677,69,40,0
38.372677,38.52576,73,39,0
37.86976,38.52576,66,54,0
38.52576,38.675446,74,39,0
38.675446,38.825134,76,39,0
38.52576,38.825134,66,33,0
38.825134,38.97978,78,40,0
38.97978,39.070507,79,40,0
39.070507,39.11587,78,39,0
39.11587,39.161236,79,37,0
38.825134,39.161236,66,33,0
39.161236,39.476063,78,42,0
39.476063,39.628555,76,40,0
39.628555,39.78105,74,40,0
39.476063,39.78105,67,34,0
39.78105,39.933544,73,40,0
39.933544,40.086037,71,40,0
39.78105,40.086037,67,34,0
40.086037,40.23572,69,40,0
40.23572,40.385406,74,39,0
40.385406,40.492893,74,40,0
40.492893,40.60038,76,39,0
40.60038,40.707867,74,39,0
40.385406,40.707867,66,34,0
40.707867,40.865738,73,39,0
40.865738,41.023605,71,39,0
40.707867,41.023605,66,32,0
41.355503,41.698143,69,29,0
41.355503,41.698143,64,24,0
41.698143,42.071533,69,37,0
41.698143,42.071533,67,31,0
41.023605,42.071533,73,40,0
42.071533,42.233784,69,40,0
42.233784,42.396034,73,39,0
42.396034,42.55178,74,39,0
42.55178,42.707527,76,39,0
42.396034,42.707527,66,33,0
42.707527,42.86624,78,40,0
42.86624,42.952408,79,40,0
42.952408,42.99549,78,39,0
42.99549,43.038574,79,37,0
42.707527,43.038574,66,33,0
43.038574,43.36859,78,42,0
43.36859,43.529053,76,40,0
43.529053,43.689514,74,40,0
43.36859,43.689514,67,34,0
43.689514,43.849976,73,40,0
43.849976,44.01044,71,40,0
43.689514,44.01044,67,34,0
44.01044,44.1666,69,40,0
44.1666,44.32276,73,39,0
44.32276,44.436634,73,40,0
44.436634,44.55051,74,39,0
44.55051,44.664387,73,39,0
44.32276,44.664387,67,34,0
44.664387,44.82619,71,39,0
44.82619,44.987995,69,39,0
44.664387,44.987995,67,32,0
45.324696,45.67878,66,29,0
45.67878,46.065826,66,37,0
44.987995,46.33466,74,40,0
46.33466,46.42427,74,58,0
46.42427,46.782715,75,62,0
46.065826,46.782715,65,54,0
46.782715,47.15828,76,55,0
47.15828,47.423843,79,64,0
47.423843,47.512367,77,60,0
46.782715,47.512367,70,42,0
47.512367,47.68941,69,49,0
47.68941,47.86645,67,47,0
47.512367,47.86645,72,64,0
47.86645,48.24548,72,57,0
48.24548,48.510155,74,64,0
48.510155,48.59838,74,64,0
47.86645,48.59838,65,48,0
48.59838,48.95128,75,69,0
48.59838,48.95128,70,50,0
48.59838,48.95128,65,50,0
48.95128,49.320057,76,61,0
48.95128,49.320057,70,51,0
49.320057,49.584732,79,71,0
49.584732,49.67296,77,66,0
49.320057,49.67296,72,52,0
48.95128,49.67296,65,51,0
49.67296,50.025856,65,59,0
50.025856,50.407803,77,81,0
50.025856,50.407803,69,67,0
49.67296,50.407803,72,71,0
50.407803,50.59444,82,86,0
50.407803,50.59444,70,69,0
50.407803,50.59444,76,73,0
50.68776,50.773518,82,82,0
50.68776,50.773518,76,69,0
50.68776,50.773518,70,66,0
50.773518,51.143433,82,85,0
50.773518,51.143433,76,72,0
50.773518,51.143433,70,70,0
51.143433,51.513348,82,83,0
51.143433,51.513348,76,70,0
51.143433,51.513348,70,70,0
51.513348,51.69998,82,86,0
51.513348,51.69998,70,73,0
51.513348,51.69998,77,73,0
51.7933,51.87906,82,82,0
51.7933,51.87906,77,69,0
51.7933,51.87906,70,69,0
51.87906,52.248974,82,85,0
51.87906,52.248974,77,72,0
51.87906,52.248974,70,72,0
52.248974,52.61889,81,83,0
52.248974,52.61889,77,70,0
52.248974,52.61889,69,67,0
52.61889,52.805527,81,78,0
52.61889,52.805527,70,64,0
52.61889,52.805527,76,64,0
52.89884,52.984604,81,73,0
52.89884,52.984604,76,61,0
52.89884,52.984604,70,61,0
52.984604,53.354515,81,76,0
52.984604,53.354515,76,63,0
52.984604,53.354515,70,63,0
53.354515,53.73472,79,72,0
53.354515,53.73472,76,60,0
53.354515,53.73472,70,60,0
53.73472,53.924824,79,70,0
53.73472,53.924824,69,58,0
53.73472,53.924824,75,58,0
54.019875,54.107594,79,62,0
54.019875,54.107594,75,52,0
54.019875,54.107594,69,52,0
54.107594,54.484287,79,64,0
54.107594,54.484287,75,54,0
54.107594,54.484287,69,54,0
54.484287,54.880432,77,56,0
54.484287,54.880432,75,46,0
54.484287,54.880432,69,46,0
54.880432,55.145855,74,61,0
55.145855,55.23433,74,58,0
55.23433,55.58823,75,62,0
55.23433,55.58823,70,45,0
55.23433,55.58823,65,45,0
55.58823,55.970177,76,55,0
55.58823,55.970177,70,46,0
55.58823,55.970177,65,46,0
55.970177,56.23485,78,64,0
56.23485,56.32308,77,60,0
56.32308,56.58775,65,53,0
56.58775,56.675976,66,47,0
56.32308,56.675976,72,64,0
56.675976,57.055004,72,57,0
56.675976,57.055004,65,48,0
57.055004,57.31968,73,68,0
57.31968,57.4079,73,64,0
57.4079,57.760803,75,69,0
57.4079,57.760803,70,50,0
57.4079,57.760803,65,50,0
57.760803,58.12958,76,60,0
57.760803,58.12958,70,50,0
57.760803,58.12958,65,50,0
58.12958,58.394257,78,74,0
58.394257,58.48248,77,72,0
58.48248,58.849968,80,75,0
58.48248,58.849968,68,62,0
58.48248,58.849968,73,62,0
58.849968,59.239605,85,89,0
58.849968,59.239605,73,73,0
59.239605,59.426243,78,94,0
59.239605,59.426243,66,80,0
59.239605,59.426243,72,80,0
59.51956,59.60532,78,90,0
59.51956,59.60532,72,75,0
59.51956,59.60532,66,75,0
59.60532,59.975235,78,93,0
59.60532,59.975235,72,79,0
59.60532,59.975235,66,79,0
59.975235,60.345146,78,90,0
59.975235,60.345146,72,75,0
59.975235,60.345146,66,75,0
60.345146,60.531784,78,93,0
60.345146,60.531784,66,79,0
60.345146,60.531784,73,79,0
60.625103,60.71086,78,88,0
60.625103,60.71086,73,73,0
60.625103,60.71086,66,73,0
60.71086,61.080776,78,91,0
60.71086,61.080776,73,77,0
60.71086,61.080776,66,77,0
61.080776,61.450687,77,88,0
61.080776,61.450687,73,73,0
61.080776,61.450687,65,73,0
61.450687,61.637325,77,81,0
61.450687,61.637325,66,67,0
61.450687,61.637325,72,67,0
61.730644,61.816402,77,76,0
61.730644,61.816402,72,63,0
61.730644,61.816402,66,63,0
61.816402,62.186317,77,77,0
61.816402,62.186317,72,65,0
61.816402,62.186317,66,59,0
62.186317,62.56652,75,74,0
62.186317,62.56652,72,63,0
62.186317,62.56652,66,63,0
62.56652,62.756622,75,72,0
62.56652,62.756622,66,59,0
62.851673,62.939392,75,63,0
62.851673,62.939392,68,53,0
62.851673,62.939392,66,53,0
62.939392,63.31609,75,65,0
62.939392,63.31609,66,55,0
63.31609,63.71223,73,56,0
63.31609,63.71223,65,46,0
62.939392,63.71223,68,55,0
63.71223,63.808353,74,62,0
63.71223,63.808353,68,52,0
63.808353,63.904476,62,56,0
64.000595,64.351494,62,66,0
63.904476,64.351494,74,56,0
64.351494,64.7109,74,63,0
64.351494,64.7109,62,58,0
63.904476,64.7109,68,47,0
64.7109,64.81255,74,66,0
64.7109,64.81255,69,56,0
64.81255,64.914215,62,59,0
65.01587,65.5455,62,70,0
64.914215,65.5455,74,60,0
65.5455,65.73647,73,64,0
65.5455,65.73647,61,60,0
64.914215,65.73647,69,50,0
65.73647,65.83236,74,70,0
65.73647,65.83236,68,59,0
65.83236,65.92824,62,63,0
66.024124,66.36278,62,74,0
65.92824,66.36278,74,63,0
66.36278,66.71796,74,70,0
66.36278,66.71796,62,65,0
65.92824,66.71796,68,53,0
66.71796,66.81882,74,74,0
66.71796,66.81882,69,62,0
66.81882,66.91968,62,66,0
67.020546,67.53788,62,78,0
66.91968,67.53788,74,67,0
67.53788,67.71656,73,72,0
67.53788,67.71656,61,67,0
66.91968,67.71656,69,56,0
67.71656,67.81173,74,78,0
67.71656,67.81173,68,66,0
67.81173,67.906906,62,70,0
68.00208,68.34982,62,82,0
67.906906,68.34982,74,70,0
68.34982,68.71125,74,76,0
68.34982,68.71125,62,70,0
67.906906,68.71125,68,59,0
68.71125,68.8125,74,78,0
68.71125,68.8125,69,66,0
68.8125,68.91233,62,70,0
69.01215,69.53004,62,82,0
68.91233,69.53004,74,70,0
69.53004,69.70926,73,73,0
69.53004,69.70926,61,68,0
68.91233,69.70926,69,59,0
69.70926,69.81478,74,78,0
69.70926,69.81478,68,66,0
69.81478,69.9203,62,70,0
70.025826,70.36449,62,82,0
69.9203,70.36449,74,70,0
70.36449,70.75024,74,76,0
70.36449,70.75024,62,70,0
69.9203,70.75024,68,59,0
70.75024,70.864456,74,78,0
70.75024,70.864456,69,66,0
70.864456,70.97867,62,70,0
71.09288,71.66202,62,82,0
70.97867,71.66202,74,70,0
71.66202,71.860146,73,73,0
71.66202,71.860146,61,68,0
70.97867,71.860146,69,59,0
71.860146,71.96984,74,62,0
71.860146,71.96984,68,52,0
71.96984,72.07954,62,56,0
72.18923,72.53698,62,65,0
72.07954,72.53698,74,56,0
72.53698,72.91893,74,61,0
72.53698,72.91893,62,56,0
72.07954,72.91893,68,47,0
72.91893,73.0259,74,63,0
72.91893,73.0259,69,54,0
73.0259,73.13287,62,57,0
73.23985,73.763504,62,68,0
73.13287,73.763504,74,58,0
73.763504,73.94553,73,61,0
73.763504,73.94553,61,57,0
73.13287,73.94553,69,48,0
73.94553,74.04719,74,66,0
73.94553,74.04719,68,56,0
74.04719,74.14885,62,59,0
74.2505,74.589165,62,69,0
74.14885,74.589165,74,59,0
74.589165,74.957855,74,65,0
74.589165,74.957855,62,60,0
74.14885,74.957855,68,50,0
74.957855,75.06976,74,67,0
74.957855,75.06976,69,57,0
75.06976,75.18167,62,60,0
75.29358,75.83545,62,72,0
75.18167,75.83545,74,61,0
75.83545,76.02215,73,64,0
75.83545,76.02215,61,60,0
75.18167,76.02215,69,51,0
76.02215,76.12767,74,70,0
76.02215,76.12767,68,59,0
76.12767,76.23319,62,63,0
76.338715,76.677376,62,73,0
76.23319,76.677376,74,63,0
76.677376,77.03473,74,68,0
76.677376,77.03473,62,63,0
76.23319,77.03473,68,53,0
77.03473,77.1426,74,70,0
77.03473,77.1426,69,59,0
77.1426,77.25047,62,63,0
77.35834,77.896034,62,73,0
77.25047,77.896034,74,63,0
77.896034,78.087006,73,65,0
77.896034,78.087006,61,61,0
77.25047,78.087006,69,53,0
78.087006,78.19859,74,70,0
78.087006,78.19859,68,59,0
78.19859,78.31018,62,63,0
78.42177,78.775856,62,72,0
78.31018,78.775856,74,62,0
78.775856,79.15781,74,64,0
78.775856,79.15781,62,59,0
78.31018,79.15781,68,52,0
79.15781,79.27407,74,64,0
79.15781,79.27407,67,54,0
79.27407,79.390335,62,57,0
79.5066,79.883606,62,65,0
79.390335,80.08871,74,56,0
80.08871,80.29381,73,56,0
79.883606,80.29381,61,53,0
79.390335,80.29381,67,47,0
80.29381,80.46413,69,68,0
80.46413,80.634445,73,70,0
80.634445,80.78895,74,71,0
80.78895,80.94345,76,71,0
80.634445,80.94345,66,60,0
80.94345,81.10174,78,72,0
81.10174,81.18919,79,73,0
81.18919,81.232925,78,70,0
81.232925,81.27666,79,68,0
80.94345,81.27666,66,61,0
81.27666,81.58731,78,76,0
81.58731,81.7398,76,74,0
81.7398,81.89228,74,74,0
81.58731,81.89228,67,62,0
81.89228,82.04477,73,73,0
82.04477,82.19725,71,72,0
81.89228,82.19725,67,62,0
82.19725,82.34699,69,74,0
82.34699,82.49673,74,70,0
82.49673,82.60225,74,74,0
82.60225,82.70778,76,70,0
82.70778,82.8133,74,70,0
82.49673,82.8133,66,62,0
82.8133,82.96699,73,70,0
82.96699,83.12068,71,70,0
82.8133,83.12068,66,59,0
83.4381,83.76535,69,53,0
83.4381,83.76535,64,44,0
83.76535,84.11837,69,68,0
83.76535,84.11837,67,57,0
83.12068,84.11837,73,73,0
84.11837,84.26967,69,74,0
84.26967,84.42096,73,70,0
84.42096,84.56842,74,71,0
84.56842,84.71589,76,71,0
84.42096,84.71589,66,60,0
84.71589,84.86797,78,72,0
84.86797,84.95215,79,73,0
84.95215,84.99423,78,70,0
84.99423,85.03632,79,68,0
84.71589,85.03632,66,61,0
85.03632,85.342896,78,76,0
85.342896,85.49111,76,74,0
85.49111,85.63932,74,74,0
85.342896,85.63932,67,62,0
85.63932,85.78754,73,73,0
85.78754,85.93575,71,72,0
85.63932,85.93575,67,62,0
85.93575,86.08173,69,74,0
86.08173,86.22772,73,70,0
86.22772,86.332115,73,74,0
86.332115,86.4365,74,70,0
86.4365,86.54089,73,70,0
86.22772,86.54089,67,62,0
86.54089,86.69377,71,70,0
86.69377,86.84666,69,70,0
86.54089,86.84666,67,59,0
87.15983,87.48798,66,53,0
86.84666,87.84643,74,73,0
87.84643,87.99696,69,40,0
87.99696,88.14751,73,39,0
87.48798,88.14751,66,47,0
88.14751,88.29471,74,39,0
88.29471,88.4419,76,39,0
88.14751,88.4419,66,33,0
88.4419,88.59398,78,40,0
88.59398,88.67889,79,40,0
88.67889,88.72134,78,39,0
88.72134,88.763794,79,37,0
88.4419,88.763794,66,33,0
88.763794,89.073395,78,42,0
89.073395,89.22336,76,40,0
89.22336,89.373314,74,40,0
89.073395,89.373314,67,34,0
89.373314,89.52328,73,40,0
89.52328,89.67324,71,40,0
89.373314,89.67324,67,34,0
89.67324,89.820435,69,40,0
89.820435,89.967636,74,39,0
89.967636,90.07333,74,40,0
90.07333,90.17904,76,39,0
90.17904,90.284744,74,39,0
89.967636,90.284744,66,34,0
90.284744,90.43999,73,39,0
90.43999,90.59524,71,39,0
90.284744,90.59524,66,32,0
90.921555,91.25345,69,29,0
90.921555,91.25345,64,24,0
91.25345,91.613014,69,37,0
91.25345,91.613014,67,31,0
90.59524,91.613014,73,40,0
91.613014,91.76355,69,40,0
91.76355,91.91409,73,39,0
91.91409,92.061295,74,39,0
92.061295,92.20849,76,39,0
91.91409,92.20849,66,33,0
92.20849,92.360565,78,40,0
92.360565,92.44698,79,40,0
92.44698,92.4902,78,39,0
92.4902,92.5334,79,37,0
92.20849,92.5334,66,33,0
92.5334,92.843,78,42,0
92.843,92.992966,76,40,0
92.992966,93.14293,74,40,0
92.843,93.14293,67,34,0
93.14293,93.29289,73,40,0
93.29289,93.442856,71,40,0
93.14293,93.442856,67,34,0
93.442856,93.59005,69,40,0
93.59005,93.73724,73,39,0
93.73724,93.84295,73,40,0
93.84295,93.94865,74,39,0
93.94865,94.05435,73,39,0
93.73724,94.05435,67,34,0
94.05435,94.2096,71,39,0
94.2096,94.364845,69,39,0
94.05435,94.364845,67,32,0
94.68534,95.01023,66,29,0
95.01023,95.35695,66,37,0
94.364845,95.35695,74,40,0
95.35695,95.50404,64,73,0
95.50404,95.65114,68,70,0
95.65114,95.79496,69,71,0
95.79496,95.93879,71,71,0
95.65114,95.93879,61,60,0
95.93879,96.08738,73,72,0
96.08738,96.16988,74,73,0
96.16988,96.211136,73,70,0
96.211136,96.25239,74,68,0
95.93879,96.25239,61,61,0
96.25239,96.554886,73,76,0
96.554886,96.70141,71,74,0
96.70141,96.84792,69,74,0
96.554886,96.84792,62,62,0
96.84792,96.994446,68,73,0
96.994446,97.14097,66,72,0
96.84792,97.14097,62,62,0
97.14097,97.28479,64,74,0
97.28479,97.42861,69,70,0
97.42861,97.53189,69,74,0
97.53189,97.63517,71,70,0
97.63517,97.73845,69,70,0
97.42861,97.73845,61,62,0
97.73845,97.89014,68,70,0
97.89014,98.04183,66,70,0
97.73845,98.04183,61,59,0
98.355,98.68041,64,53,0
98.355,98.68041,59,44,0
98.68041,99.03131,64,68,0
98.68041,99.03131,62,57,0
98.04183,99.03131,68,73,0
99.03131,99.178406,64,74,0
99.178406,99.3255,68,70,0
99.3255,99.46933,69,71,0
99.46933,99.61315,71,71,0
99.3255,99.61315,61,60,0
99.61315,99.76175,73,72,0
99.76175,99.84356,74,73,0
99.84356,99.88446,73,70,0
99.88446,99.92537,74,68,0
99.61315,99.92537,61,61,0
99.92537,100.22787,73,76,0
100.22787,100.37438,71,74,0
100.37438,100.520905,69,74,0
100.22787,100.520905,62,62,0
100.520905,100.66743,68,73,0
100.66743,100.81394,66,72,0
100.520905,100.81394,62,62,0
100.81394,100.95776,64,74,0
100.95776,101.10159,68,70,0
101.10159,101.20487,68,74,0
101.20487,101.30814,69,70,0
101.30814,101.41142,68,70,0
101.10159,101.41142,62,62,0
101.41142,101.56312,66,70,0
101.56312,101.714806,64,70,0
101.41142,101.714806,62,59,0
102.03311,102.35853,61,53,0
101.714806,102.705246,69,73,0
102.705246,102.85605,64,40,0
102.85605,103.00684,68,39,0
102.35853,103.00684,61,47,0
103.00684,103.1543,69,39,0
103.1543,103.30174,71,39,0
103.00684,103.30174,61,33,0
103.30174,103.45408,73,40,0
103.45408,103.53777,74,40,0
103.53777,103.57962,73,39,0
103.57962,103.62147,74,37,0
103.30174,103.62147,61,33,0
103.62147,103.93157,73,42,0
103.93157,104.081795,71,40,0
104.081795,104.23201,69,40,0
103.93157,104.23201,62,34,0
104.23201,104.382225,68,40,0
104.382225,104.53245,66,40,0
104.23201,104.53245,62,34,0
104.53245,104.67989,64,40,0
104.67989,104.82735,69,39,0
104.82735,104.93323,69,40,0
104.93323,105.03911,71,39,0
105.03911,105.14499,69,39,0
104.82735,105.14499,61,34,0
105.14499,105.3005,68,39,0
105.3005,105.45602,66,39,0
105.14499,105.45602,61,32,0
105.77706,106.11472,64,29,0
105.77706,106.11472,59,24,0
106.11472,106.46562,64,37,0
106.11472,106.46562,62,31,0
105.45602,106.46562,68,40,0
106.46562,106.61972,64,40,0
106.61972,106.77382,68,39,0
106.77382,106.92356,69,39,0
106.92356,107.073296,71,39,0
106.77382,107.073296,61,33,0
107.073296,107.22822,73,40,0
107.22822,107.31143,74,40,0
107.31143,107.353035,73,39,0
107.353035,107.394646,74,37,0
107.073296,107.394646,61,33,0
107.394646,107.70865,73,42,0
107.70865,107.861534,71,40,0
107.861534,108.01441,69,40,0
107.70865,108.01441,62,34,0
108.01441,108.1673,68,40,0
108.1673,108.320175,66,40,0
108.01441,108.320175,62,34,0
108.320175,108.47031,64,40,0
108.47031,108.62043,68,39,0
108.62043,108.729515,68,40,0
108.729515,108.83859,69,39,0
108.83859,108.94768,68,39,0
108.62043,108.94768,62,34,0
108.94768,109.10596,66,39,0
109.10596,109.264244,64,39,0
108.94768,109.264244,62,32,0
109.59149,109.93923,61,37,0
109.93923,110.28698,61,73,0
109.93923,110.28698,67,73,0
109.264244,110.434074,69,40,0
110.434074,110.58117,73,80,0
110.28698,110.58117,66,78,0
110.58117,110.72499,74,81,0
110.72499,110.86881,76,81,0
110.58117,110.86881,66,69,0
110.86881,111.01741,78,82,0
111.01741,111.09922,79,83,0
111.09922,111.14013,78,80,0
111.14013,111.18103,79,78,0
110.86881,111.18103,66,70,0
111.18103,111.48353,78,87,0
111.48353,111.63005,76,85,0
111.63005,111.77657,74,85,0
111.48353,111.77657,67,71,0
111.77657,111.92309,73,83,0
111.92309,112.06961,71,82,0
111.77657,112.06961,67,71,0
112.06961,112.21343,69,85,0
112.21343,112.357254,74,80,0
112.357254,112.46053,74,85,0
112.46053,112.56381,76,80,0
112.56381,112.66709,74,80,0
112.357254,112.66709,66,71,0
112.66709,112.81879,73,80,0
112.81879,112.970474,71,80,0
112.66709,112.970474,66,67,0
113.2879,113.6198,69,60,0
113.2879,113.6198,64,50,0
113.6198,113.969635,69,78,0
113.6198,113.969635,67,65,0
112.970474,113.969635,73,83,0
113.969635,114.11673,69,85,0
114.11673,114.263824,73,80,0
114.263824,114.407646,74,81,0
114.407646,114.55147,76,81,0
114.263824,114.55147,66,69,0
114.55147,114.700066,78,82,0
114.700066,114.781876,79,83,0
114.781876,114.82278,78,80,0
114.82278,114.863686,79,78,0
114.55147,114.863686,66,70,0
114.863686,115.16618,78,87,0
115.16618,115.3127,76,85,0
115.3127,115.45922,74,85,0
115.16618,115.45922,67,71,0
115.45922,115.60574,73,83,0
115.60574,115.75226,71,82,0
115.45922,115.75226,67,71,0
115.75226,115.89609,69,85,0
115.89609,116.03991,73,80,0
116.03991,116.14319,73,85,0
116.14319,116.24647,74,80,0
116.24647,116.34975,73,80,0
116.03991,116.34975,67,71,0
116.34975,116.501434,71,80,0
116.501434,116.65313,69,80,0
116.34975,116.65313,67,67,0
116.96629,117.289,66,60,0
116.65313,117.62472,74,83,0
117.62472,117.7778,69,40,0
117.7778,117.930885,73,39,0
117.289,117.930885,66,54,0
117.930885,118.080574,74,39,0
118.080574,118.23026,76,39,0
117.930885,118.23026,66,33,0
118.23026,118.3849,78,40,0
118.3849,118.47237,79,40,0
118.47237,118.51609,78,39,0
118.51609,118.55982,79,37,0
118.23026,118.55982,66,33,0
118.55982,118.87465,78,42,0
118.87465,119.027145,76,40,0
119.027145,119.17964,74,40,0
118.87465,119.17964,67,34,0
119.17964,119.33213,73,40,0
119.33213,119.48463,71,40,0
119.17964,119.48463,67,34,0
119.48463,119.63431,69,40,0
119.63431,119.784,74,39,0
119.784,119.89148,74,40,0
119.89148,119.99897,76,39,0
119.99897,120.10645,74,39,0
119.784,120.10645,66,34,0
120.10645,120.26433,73,39,0
120.26433,120.422195,71,39,0
120.10645,120.422195,66,32,0
120.75505,121.10595,69,29,0
120.75505,121.10595,64,24,0
121.10595,121.48174,69,37,0
121.10595,121.48174,67,31,0
120.422195,121.48174,73,40,0
121.48174,121.64355,69,40,0
121.64355,121.80535,73,39,0
121.80535,121.96068,74,39,0
121.96068,122.116005,76,39,0
121.80535,122.116005,66,33,0
122.116005,122.27472,78,40,0
122.27472,122.36038,79,40,0
122.36038,122.40321,78,39,0
122.40321,122.446045,79,37,0
122.116005,122.446045,66,33,0
122.446045,122.77513,78,42,0
122.77513,122.93559,76,40,0
122.93559,123.096054,74,40,0
122.77513,123.096054,67,34,0
123.096054,123.25652,73,40,0
123.25652,123.416985,71,40,0
123.096054,123.416985,67,34,0
123.416985,123.57273,69,40,0
123.57273,123.72848,73,39,0
123.72848,123.84795,73,40,0
123.84795,123.96744,74,39,0
123.96744,124.08692,73,39,0
123.72848,124.08692,67,34,0
124.08692,124.25287,71,39,0
124.25287,124.418816,69,39,0
124.08692,124.418816,67,32,0
124.76146,125.11555,66,29,0
125.11555,125.49378,66,37,0
124.418816,125.49378,74,40,0
125.49378,125.65999,66,47,0
125.65999,125.826195,69,45,0
125.826195,125.94684,69,49,0
125.94684,125.98705,71,41,0
125.98705,126.142494,69,46,0
126.142494,126.30643,68,46,0
126.30643,126.47036,64,45,0
125.49378,126.47036,74,43,0
126.47036,126.637024,64,50,0
126.637024,126.803696,67,47,0
126.803696,126.92401,67,51,0
126.92401,126.96412,69,43,0
126.96412,127.11916,67,48,0
127.11916,127.28445,66,48,0
127.28445,127.44974,62,43,0
126.47036,127.44974,74,44,0
127.44974,127.612785,66,50,0
127.612785,127.775826,69,48,0
127.775826,127.89151,69,52,0
127.89151,127.93007,71,44,0
127.93007,128.07642,69,48,0
128.07642,128.23813,68,48,0
128.23813,128.39986,64,44,0
127.44974,128.39986,74,45,0
128.39986,128.56334,64,53,0
128.56334,128.72684,67,50,0
128.72684,128.84227,67,53,0
128.84227,128.88034,69,46,0
128.88034,129.02527,67,50,0
129.02527,129.18698,66,51,0
129.18698,129.34871,62,44,0
128.39986,129.34871,74,46,0
129.34871,129.50963,62,53,0
129.50963,129.67053,66,51,0
129.67053,129.78459,66,55,0
129.78459,129.82262,67,46,0
129.82262,129.95935,66,51,0
129.95935,130.11398,64,51,0
130.11398,130.26863,59,46,0
129.34871,130.26863,69,48,0
130.26863,130.4261,61,55,0
130.4261,130.58359,64,52,0
130.58359,130.69589,64,55,0
130.69589,130.73332,66,47,0
130.73332,130.86974,64,52,0
130.86974,131.02844,62,52,0
131.02844,131.18716,57,46,0
130.26863,131.18716,69,48,0
131.18716,131.3426,62,53,0
131.3426,131.49805,66,51,0
131.49805,131.60596,66,54,0
131.60596,131.64192,67,45,0
131.64192,131.76987,66,50,0
131.76987,131.92645,64,49,0
131.92645,132.08302,59,45,0
131.18716,132.08302,69,48,0
132.08302,132.23532,61,53,0
132.23532,132.3876,64,50,0
132.3876,132.5002,64,52,0
132.5002,132.53772,66,45,0
132.53772,132.66649,64,49,0
132.66649,132.81955,62,49,0
132.81955,132.97261,57,41,0
132.08302,132.97261,69,46,0
132.97261,133.12685,54,44,0
133.12685,133.28108,57,42,0
133.28108,133.39247,57,45,0
133.39247,133.4296,59,38,0
133.4296,133.55486,57,41,0
133.55486,133.70486,56,41,0
133.70486,133.85486,52,35,0
132.97261,133.85486,62,40,0
133.85486,134.00754,52,44,0
134.00754,134.1602,55,41,0
134.1602,134.27077,55,44,0
134.27077,134.30763,57,37,0
134.30763,134.43289,55,41,0
134.43289,134.5814,54,40,0
134.5814,134.72992,50,34,0
133.85486,134.72992,62,39,0
134.72992,134.88857,54,36,0
134.88857,135.04721,57,35,0
135.04721,135.15909,57,38,0
135.15909,135.1964,59,31,0
135.1964,135.32597,57,34,0
135.32597,135.48006,56,34,0
135.48006,135.63414,52,30,0
134.72992,135.63414,62,33,0
135.63414,135.79836,52,37,0
135.79836,135.96255,55,34,0
135.96255,136.08154,55,37,0
136.08154,136.1212,57,31,0
136.1212,136.25543,55,34,0
136.25543,136.41475,54,34,0
136.41475,136.57407,50,30,0
135.63414,136.57407,62,32,0
136.57407,136.93228,57,46,0
136.57407,136.93228,50,39,0
136.93228,137.28937,69,49,0
136.93228,137.28937,62,41,0
137.28937,137.46283,74,48,0
137.46283,137.6349,81,49,0
137.6349,137.72307,86,51,0
137.81358,137.90656,90,53,0
138.00215,138.10048,92,55,0
138.20175,138.3061,93,57,0
138.41383,138.52777,95,59,0
138.65082,138.82382,97,62,0
138.99683,140.9814,98,64,0
1.031577,1.178672,50,59,0
1.325767,1.613413,62,52,0
1.325767,1.613413,57,52,0
1.325767,1.613413,50,52,0
1.613413,1.9289075,62,52,0
1.613413,1.9289075,57,52,0
1.613413,1.9289075,50,52,0
1.9289075,2.0801556,45,59,0
2.2314036,2.5244434,61,54,0
2.2314036,2.5244434,57,54,0
2.2314036,2.5244434,52,54,0
2.5244434,2.8174834,61,54,0
2.5244434,2.8174834,57,54,0
2.5244434,2.8174834,52,54,0
2.8174834,2.9613066,38,59,0
3.1051295,3.4149666,62,54,0
3.1051295,3.4149666,57,54,0
3.1051295,3.4149666,50,54,0
3.4149666,3.7183495,62,54,0
3.4149666,3.7183495,57,54,0
3.4149666,3.7183495,50,54,0
3.7183495,3.876636,45,59,0
4.0349226,4.3668175,57,43,0
4.3668175,4.7331624,64,56,0
4.3668175,4.7331624,57,56,0
4.7331624,4.8802576,50,59,0
5.0273523,5.3149986,62,52,0
5.0273523,5.3149986,57,52,0
5.3149986,5.6231775,62,52,0
5.3149986,5.6231775,57,52,0
5.3149986,5.6231775,50,52,0
5.6231775,5.7744255,43,59,0
5.9256735,6.2187133,64,54,0
5.9256735,6.2187133,59,54,0
6.2187133,6.5117536,64,54,0
6.2187133,6.5117536,59,54,0
6.2187133,6.5117536,52,54,0
6.5117536,6.6555767,45,59,0
6.7993994,7.1092367,64,54,0
6.7993994,7.1092367,57,54,0
7.1092367,7.4126196,64,54,0
7.1092367,7.4126196,57,54,0
7.4126196,7.569204,38,59,0
7.7257886,8.043216,62,43,0
7.7257886,8.043216,57,36,0
7.7257886,8.043216,50,36,0
8.043216,8.697324,62,39,0
8.043216,8.697324,57,39,0
8.043216,8.697324,50,39,0
8.697324,8.991715,62,23,0
8.697324,8.991715,57,23,0
8.697324,8.991715,50,23,0
8.991715,9.311652,62,23,0
8.991715,9.311652,57,23,0
8.991715,9.311652,50,23,0
9.311652,9.466451,45,27,0
9.62125,9.921175,61,24,0
9.62125,9.921175,57,24,0
9.62125,9.921175,52,24,0
9.921175,10.2211,61,24,0
9.921175,10.2211,57,24,0
9.921175,10.2211,52,24,0
10.2211,10.368296,38,27,0
10.515492,10.8326,62,24,0
10.515492,10.8326,57,24,0
10.515492,10.8326,50,24,0
10.8326,11.143095,62,24,0
10.8326,11.143095,57,24,0
10.8326,11.143095,50,24,0
11.143095,11.303343,45,27,0
11.463591,11.805218,57,20,0
11.463591,11.805218,61,20,0
11.805218,12.160395,64,26,0
12.160395,12.461479,50,27,0
11.805218,12.461479,57,26,0
12.461479,12.755871,62,23,0
12.461479,12.755871,57,23,0
12.755871,13.0738945,62,23,0
12.755871,13.0738945,57,23,0
12.755871,13.0738945,50,23,0
13.0738945,13.228694,43,27,0
13.383492,13.683417,64,24,0
13.383492,13.683417,59,24,0
13.683417,13.983342,64,24,0
13.683417,13.983342,59,24,0
13.683417,13.983342,52,24,0
13.983342,14.130539,45,27,0
14.277735,14.594843,64,24,0
14.277735,14.594843,57,24,0
14.594843,14.905337,64,24,0
14.594843,14.905337,57,24,0
14.905337,15.065585,38,27,0
15.225834,15.550719,62,20,0
15.225834,15.550719,57,17,0
15.225834,15.550719,50,17,0
15.550719,15.890354,62,26,0
15.550719,15.890354,57,26,0
15.550719,15.890354,50,26,0
15.890354,16.037449,45,59,0
16.184544,16.47219,57,52,0
16.184544,16.47219,52,52,0
16.184544,16.47219,45,52,0
16.47219,16.789137,57,52,0
16.47219,16.789137,52,52,0
16.47219,16.789137,45,52,0
16.789137,16.940384,40,59,0
17.091633,17.384672,59,54,0
17.091633,17.384672,52,54,0
17.384672,17.677713,59,54,0
17.384672,17.677713,52,54,0
17.677713,17.821535,33,59,0
17.965359,18.275196,57,54,0
17.965359,18.275196,52,54,0
17.965359,18.275196,45,54,0
18.275196,18.578579,57,54,0
18.275196,18.578579,52,54,0
18.275196,18.578579,45,54,0
18.578579,18.738161,40,59,0
18.897745,19.22776,52,43,0
19.22776,19.584011,59,56,0
19.22776,19.584011,52,56,0
19.584011,19.731106,45,59,0
19.878202,20.165848,57,52,0
19.878202,20.165848,52,52,0
20.165848,20.47945,57,52,0
20.165848,20.47945,52,52,0
20.165848,20.47945,45,52,0
20.47945,20.6307,38,59,0
20.781946,21.074987,59,54,0
20.781946,21.074987,54,54,0
21.074987,21.368027,59,54,0
21.074987,21.368027,54,54,0
21.074987,21.368027,47,54,0
21.368027,21.51185,40,59,0
21.655672,21.96551,59,54,0
21.655672,21.96551,52,54,0
21.96551,22.268892,59,54,0
21.96551,22.268892,52,54,0
22.268892,22.425478,33,59,0
22.582062,22.907476,57,43,0
22.582062,22.907476,52,36,0
22.582062,22.907476,45,36,0
22.907476,23.564253,57,39,0
22.907476,23.564253,52,39,0
22.907476,23.564253,45,39,0
23.564253,23.85915,57,23,0
23.564253,23.85915,52,23,0
23.564253,23.85915,45,23,0
23.85915,24.188993,57,23,0
23.85915,24.188993,52,23,0
23.85915,24.188993,45,23,0
24.188993,24.344048,40,27,0
24.499104,24.79954,59,24,0
24.499104,24.79954,52,24,0
24.79954,25.099976,59,24,0
24.79954,25.099976,52,24,0
25.099976,25.247425,33,27,0
25.394873,25.712519,57,24,0
25.394873,25.712519,52,24,0
25.394873,25.712519,45,24,0
25.712519,26.023544,57,24,0
25.712519,26.023544,52,24,0
25.712519,26.023544,45,24,0
26.023544,26.186703,40,27,0
26.349863,26.687529,52,20,0
26.687529,27.052715,59,26,0
27.052715,27.361723,45,27,0
26.687529,27.361723,52,26,0
27.361723,27.663534,57,23,0
27.361723,27.663534,52,23,0
27.663534,27.990183,57,23,0
27.663534,27.990183,52,23,0
27.663534,27.990183,45,23,0
27.990183,28.14847,38,27,0
28.306755,28.616592,59,24,0
28.306755,28.616592,54,24,0
28.616592,28.92643,59,24,0
28.616592,28.92643,54,24,0
28.616592,28.92643,47,24,0
28.92643,29.077335,40,27,0
29.228241,29.555485,59,24,0
29.228241,29.555485,52,24,0
29.555485,29.87119,59,24,0
29.555485,29.87119,52,24,0
29.87119,30.034811,33,32,0
30.198433,30.534155,64,30,0
30.198433,30.534155,57,25,0
30.534155,30.8861,64,60,0
30.534155,30.8861,57,60,0
30.8861,31.033195,50,67,0
31.18029,31.467937,62,59,0
31.18029,31.467937,57,59,0
31.18029,31.467937,50,59,0
31.467937,31.776115,62,59,0
31.467937,31.776115,57,59,0
31.467937,31.776115,50,59,0
31.776115,31.927364,45,67,0
32.078613,32.37165,61,62,0
32.078613,32.37165,57,62,0
32.078613,32.37165,52,62,0
32.37165,32.664692,61,62,0
32.37165,32.664692,57,62,0
32.37165,32.664692,52,62,0
32.664692,32.808514,38,67,0
32.95234,33.262177,62,62,0
32.95234,33.262177,57,62,0
32.95234,33.262177,50,62,0
33.262177,33.56556,62,62,0
33.262177,33.56556,57,62,0
33.262177,33.56556,50,62,0
33.56556,33.72214,45,67,0
33.878727,34.196156,57,49,0
34.196156,34.5481,64,64,0
34.196156,34.5481,57,64,0
34.5481,34.695194,50,67,0
34.842293,35.129936,62,59,0
34.842293,35.129936,57,59,0
35.129936,35.44354,62,59,0
35.129936,35.44354,57,59,0
35.129936,35.44354,50,59,0
35.44354,35.594788,43,67,0
35.746037,36.039078,64,62,0
35.746037,36.039078,59,62,0
36.039078,36.332115,64,62,0
36.039078,36.332115,59,62,0
36.039078,36.332115,52,62,0
36.332115,36.47594,45,67,0
36.619762,36.9296,64,62,0
36.619762,36.9296,57,62,0
36.9296,37.232983,64,62,0
36.9296,37.232983,57,62,0
37.232983,37.38957,38,67,0
37.54615,37.86976,62,49,0
37.54615,37.86976,57,41,0
37.54615,37.86976,50,41,0
37.86976,38.52576,62,44,0
37.86976,38.52576,57,44,0
37.86976,38.52576,50,44,0
38.52576,38.825134,62,23,0
38.52576,38.825134,57,23,0
38.52576,38.825134,50,23,0
38.825134,39.161236,62,23,0
38.825134,39.161236,57,23,0
38.825134,39.161236,50,23,0
39.161236,39.31865,45,27,0
39.476063,39.78105,61,24,0
39.476063,39.78105,57,24,0
39.476063,39.78105,52,24,0
39.78105,40.086037,61,24,0
39.78105,40.086037,57,24,0
39.78105,40.086037,52,24,0
40.086037,40.23572,38,27,0
40.385406,40.707867,62,24,0
40.385406,40.707867,57,24,0
40.385406,40.707867,50,24,0
40.707867,41.023605,62,24,0
40.707867,41.023605,57,24,0
40.707867,41.023605,50,24,0
41.023605,41.189556,45,27,0
41.355503,41.698143,57,20,0
41.355503,41.698143,61,20,0
41.698143,42.071533,64,26,0
42.071533,42.396034,50,27,0
41.698143,42.396034,57,26,0
42.396034,42.707527,62,23,0
42.396034,42.707527,57,23,0
42.707527,43.038574,62,23,0
42.707527,43.038574,57,23,0
42.707527,43.038574,50,23,0
43.038574,43.203583,43,27,0
43.36859,43.689514,64,24,0
43.36859,43.689514,59,24,0
43.689514,44.01044,64,24,0
43.689514,44.01044,59,24,0
43.689514,44.01044,52,24,0
44.01044,44.1666,45,27,0
44.32276,44.664387,64,24,0
44.32276,44.664387,57,24,0
44.664387,44.987995,64,24,0
44.664387,44.987995,57,24,0
44.987995,45.324696,38,27,0
45.324696,45.67878,62,20,0
45.324696,45.67878,57,17,0
45.324696,45.67878,50,17,0
45.67878,46.065826,62,26,0
45.67878,46.065826,57,26,0
45.67878,46.065826,50,26,0
46.065826,46.42427,46,44,0
46.42427,46.782715,53,33,0
46.42427,46.782715,58,33,0
46.42427,46.782715,62,40,0
46.782715,47.15828,58,34,0
46.782715,47.15828,62,41,0
46.782715,47.15828,53,34,0
47.15828,47.512367,41,46,0
47.512367,47.86645,53,35,0
47.512367,47.86645,60,35,0
47.512367,47.86645,63,43,0
47.86645,48.24548,53,36,0
47.86645,48.24548,60,36,0
47.86645,48.24548,63,44,0
48.24548,48.59838,46,49,0
48.59838,48.95128,53,37,0
48.59838,48.95128,58,37,0
48.59838,48.95128,62,45,0
48.95128,49.320057,58,38,0
48.95128,49.320057,62,46,0
48.95128,49.320057,53,38,0
49.67296,49.937634,60,47,0
49.320057,49.937634,45,51,0
49.937634,50.025856,43,48,0
50.025856,50.407803,41,62,0
50.407803,50.773518,48,64,0
50.407803,50.773518,36,55,0
50.773518,51.143433,60,55,0
50.773518,51.143433,67,64,0
51.513348,51.69998,41,64,0
51.7933,51.87906,59,65,0
51.87906,52.156494,60,72,0
52.156494,52.248974,61,68,0
52.248974,52.61889,60,72,0
52.61889,52.805527,48,58,0
52.89884,52.984604,59,58,0
52.984604,53.26204,60,63,0
53.26204,53.354515,62,58,0
53.354515,53.73472,60,62,0
53.73472,53.924824,53,52,0
54.019875,54.107594,59,46,0
54.107594,54.390114,60,54,0
54.390114,54.484287,64,45,0
54.484287,54.880432,65,47,0
54.880432,55.23433,46,44,0
55.23433,55.58823,53,33,0
55.23433,55.58823,58,33,0
55.23433,55.58823,62,40,0
55.58823,55.970177,58,34,0
55.58823,55.970177,62,41,0
55.58823,55.970177,53,34,0
55.970177,56.32308,45,46,0
56.32308,56.675976,53,35,0
56.32308,56.675976,60,35,0
56.32308,56.675976,63,43,0
56.675976,57.055004,53,36,0
56.675976,57.055004,60,36,0
56.675976,57.055004,63,44,0
57.055004,57.4079,46,49,0
57.4079,57.760803,53,37,0
57.4079,57.760803,58,37,0
57.4079,57.760803,61,45,0
57.760803,58.12958,58,37,0
57.760803,58.12958,61,45,0
57.760803,58.12958,53,37,0
58.12958,58.48248,44,53,0
58.48248,58.7581,61,46,0
58.48248,58.7581,53,46,0
58.48248,58.7581,56,46,0
58.48248,58.7581,65,54,0
58.7581,58.849968,46,54,0
58.849968,59.239605,44,67,0
59.239605,59.60532,32,70,0
59.60532,59.975235,56,60,0
59.60532,59.975235,63,70,0
60.345146,60.531784,37,69,0
60.625103,60.71086,55,73,0
60.71086,60.988297,56,77,0
60.988297,61.080776,58,72,0
61.080776,61.450687,56,75,0
61.450687,61.637325,44,60,0
61.730644,61.816402,55,60,0
61.816402,62.093838,56,65,0
62.093838,62.186317,57,63,0
62.186317,62.56652,56,64,0
62.56652,62.756622,49,53,0
62.851673,62.939392,55,46,0
62.939392,63.221916,56,55,0
63.221916,63.31609,60,45,0
63.31609,63.71223,61,47,0
63.71223,63.856415,41,40,0
64.000595,64.351494,53,29,0
64.000595,64.351494,59,35,0
64.351494,64.7109,59,36,0
64.351494,64.7109,53,30,0
64.7109,64.86339,42,43,0
65.01587,65.35453,54,31,0
65.01587,65.35453,57,37,0
65.35453,65.73647,57,38,0
65.35453,65.73647,54,32,0
65.73647,65.8803,41,45,0
66.024124,66.36278,53,33,0
66.024124,66.36278,59,40,0
66.36278,66.71796,59,40,0
66.36278,66.71796,53,34,0
66.71796,66.86925,42,48,0
67.020546,67.3592,54,35,0
67.020546,67.3592,57,42,0
67.3592,67.71656,57,43,0
67.3592,67.71656,54,36,0
67.71656,67.85932,40,51,0
68.00208,68.34982,52,37,0
68.00208,68.34982,59,44,0
68.34982,68.71125,59,44,0
68.34982,68.71125,52,37,0
68.71125,68.86242,45,51,0
69.01215,69.350815,52,37,0
69.01215,69.350815,57,44,0
69.350815,69.70926,57,44,0
69.350815,69.70926,52,37,0
69.70926,69.867546,40,51,0
70.025826,70.36449,52,37,0
70.025826,70.36449,59,44,0
70.36449,70.75024,59,44,0
70.36449,70.75024,52,37,0
70.75024,70.92156,45,51,0
71.09288,71.4639,52,37,0
71.09288,71.4639,57,44,0
71.4639,71.860146,57,44,0
71.4639,71.860146,52,37,0
71.860146,72.02469,41,40,0
72.18923,72.53698,53,29,0
72.18923,72.53698,59,35,0
72.53698,72.91893,59,35,0
72.53698,72.91893,53,29,0
72.91893,73.07939,42,41,0
73.23985,73.581474,54,30,0
73.23985,73.581474,57,36,0
73.581474,73.94553,57,36,0
73.581474,73.94553,54,31,0
73.94553,74.09802,41,43,0
74.2505,74.589165,53,31,0
74.2505,74.589165,59,37,0
74.589165,74.957855,59,37,0
74.589165,74.957855,53,31,0
74.957855,75.12572,42,44,0
75.29358,75.64876,54,32,0
75.29358,75.64876,57,38,0
75.64876,76.02215,57,39,0
75.64876,76.02215,54,32,0
76.02215,76.18043,40,45,0
76.338715,76.677376,52,33,0
76.338715,76.677376,59,39,0
76.677376,77.03473,59,39,0
76.677376,77.03473,52,33,0
77.03473,77.19653,45,45,0
77.35834,77.70506,52,33,0
77.35834,77.70506,57,39,0
77.70506,78.087006,57,39,0
77.70506,78.087006,52,33,0
78.087006,78.25439,40,45,0
78.42177,78.775856,52,32,0
78.42177,78.775856,59,38,0
78.775856,79.15781,59,36,0
78.775856,79.15781,52,31,0
79.15781,79.33221,45,42,0
79.5066,79.883606,57,29,0
79.5066,79.883606,64,35,0
79.883606,80.29381,64,34,0
79.883606,80.29381,57,28,0
80.29381,80.46413,50,59,0
80.634445,80.94345,62,52,0
80.634445,80.94345,57,52,0
80.634445,80.94345,50,52,0
80.94345,81.27666,62,52,0
80.94345,81.27666,57,52,0
80.94345,81.27666,50,52,0
81.27666,81.431984,45,59,0
81.58731,81.89228,61,54,0
81.58731,81.89228,57,54,0
81.58731,81.89228,52,54,0
81.89228,82.19725,61,54,0
81.89228,82.19725,57,54,0
81.89228,82.19725,52,54,0
82.19725,82.34699,38,59,0
82.49673,82.8133,62,54,0
82.49673,82.8133,57,54,0
82.49673,82.8133,50,54,0
82.8133,83.12068,62,54,0
82.8133,83.12068,57,54,0
82.8133,83.12068,50,54,0
83.12068,83.27939,45,59,0
83.4381,83.76535,57,43,0
83.76535,84.11837,64,56,0
83.76535,84.11837,57,56,0
84.11837,84.26967,50,59,0
84.42096,84.71589,62,52,0
84.42096,84.71589,57,52,0
84.71589,85.03632,62,52,0
84.71589,85.03632,57,52,0
84.71589,85.03632,50,52,0
85.03632,85.189606,43,59,0
85.342896,85.63932,64,54,0
85.342896,85.63932,59,54,0
85.63932,85.93575,64,54,0
85.63932,85.93575,59,54,0
85.63932,85.93575,52,54,0
85.93575,86.08173,45,59,0
86.22772,86.54089,64,54,0
86.22772,86.54089,57,54,0
86.54089,86.84666,64,54,0
86.54089,86.84666,57,54,0
86.84666,87.00324,38,59,0
87.15983,87.48798,62,43,0
87.15983,87.48798,57,36,0
87.15983,87.48798,50,36,0
87.48798,88.14751,62,39,0
87.48798,88.14751,57,39,0
87.48798,88.14751,50,39,0
88.14751,88.4419,62,23,0
88.14751,88.4419,57,23,0
88.14751,88.4419,50,23,0
88.4419,88.763794,62,23,0
88.4419,88.763794,57,23,0
88.4419,88.763794,50,23,0
88.763794,88.918594,45,27,0
89.073395,89.373314,61,24,0
89.073395,89.373314,57,24,0
89.073395,89.373314,52,24,0
89.373314,89.67324,61,24,0
89.373314,89.67324,57,24,0
89.373314,89.67324,52,24,0
89.67324,89.820435,38,27,0
89.967636,90.284744,62,24,0
89.967636,90.284744,57,24,0
89.967636,90.284744,50,24,0
90.284744,90.59524,62,24,0
90.284744,90.59524,57,24,0
90.284744,90.59524,50,24,0
90.59524,90.7584,45,27,0
90.921555,91.25345,57,20,0
90.921555,91.25345,61,20,0
91.25345,91.613014,64,26,0
91.613014,91.91409,50,27,0
91.25345,91.91409,57,26,0
91.91409,92.20849,62,23,0
91.91409,92.20849,57,23,0
92.20849,92.5334,62,23,0
92.20849,92.5334,57,23,0
92.20849,92.5334,50,23,0
92.5334,92.6882,43,27,0
92.843,93.14293,64,24,0
92.843,93.14293,59,24,0
93.14293,93.442856,64,24,0
93.14293,93.442856,59,24,0
93.14293,93.442856,52,24,0
93.442856,93.59005,45,27,0
93.73724,94.05435,64,24,0
93.73724,94.05435,57,24,0
94.05435,94.364845,64,24,0
94.05435,94.364845,57,24,0
94.364845,94.52509,38,27,0
94.68534,95.01023,62,20,0
94.68534,95.01023,57,17,0
94.68534,95.01023,50,17,0
95.01023,95.35695,62,26,0
95.01023,95.35695,57,26,0
95.01023,95.35695,50,26,0
95.35695,95.50404,45,59,0
95.65114,95.93879,57,52,0
95.65114,95.93879,52,52,0
95.65114,95.93879,45,52,0
95.93879,96.25239,57,52,0
95.93879,96.25239,52,52,0
95.93879,96.25239,45,52,0
96.25239,96.40364,40,59,0
96.554886,96.84792,59,54,0
96.554886,96.84792,52,54,0
96.84792,97.14097,59,54,0
96.84792,97.14097,52,54,0
97.14097,97.28479,33,59,0
97.42861,97.73845,57,54,0
97.42861,97.73845,52,54,0
97.42861,97.73845,45,54,0
97.73845,98.04183,57,54,0
97.73845,98.04183,52,54,0
97.73845,98.04183,45,54,0
98.04183,98.19842,40,59,0
98.355,98.68041,52,43,0
98.68041,99.03131,59,56,0
98.68041,99.03131,52,56,0
99.03131,99.178406,45,59,0
99.3255,99.61315,57,52,0
99.3255,99.61315,52,52,0
99.61315,99.92537,57,52,0
99.61315,99.92537,52,52,0
99.61315,99.92537,45,52,0
99.92537,100.076614,38,59,0
100.22787,100.520905,59,54,0
100.22787,100.520905,54,54,0
100.520905,100.81394,59,54,0
100.520905,100.81394,54,54,0
100.520905,100.81394,47,54,0
100.81394,100.95776,40,59,0
101.10159,101.41142,59,54,0
101.10159,101.41142,52,54,0
101.41142,101.714806,59,54,0
101.41142,101.714806,52,54,0
101.714806,101.87396,33,59,0
102.03311,102.35853,57,43,0
102.03311,102.35853,52,36,0
102.03311,102.35853,45,36,0
102.35853,103.00684,57,39,0
102.35853,103.00684,52,39,0
102.35853,103.00684,45,39,0
103.00684,103.30174,57,23,0
103.00684,103.30174,52,23,0
103.00684,103.30174,45,23,0
103.30174,103.62147,57,23,0
103.30174,103.62147,52,23,0
103.30174,103.62147,45,23,0
103.62147,103.77652,40,27,0
103.93157,104.23201,59,24,0
103.93157,104.23201,52,24,0
104.23201,104.53245,59,24,0
104.23201,104.53245,52,24,0
104.53245,104.67989,33,27,0
104.82735,105.14499,57,24,0
104.82735,105.14499,52,24,0
104.82735,105.14499,45,24,0
105.14499,105.45602,57,24,0
105.14499,105.45602,52,24,0
105.14499,105.45602,45,24,0
105.45602,105.61654,40,27,0
105.77706,106.11472,52,20,0
106.11472,106.46562,59,26,0
106.46562,106.77382,45,27,0
106.11472,106.77382,52,26,0
106.77382,107.073296,57,23,0
106.77382,107.073296,52,23,0
107.073296,107.394646,57,23,0
107.073296,107.394646,52,23,0
107.073296,107.394646,45,23,0
107.394646,107.55164,38,27,0
107.70865,108.01441,59,24,0
107.70865,108.01441,54,24,0
108.01441,108.320175,59,24,0
108.01441,108.320175,54,24,0
108.01441,108.320175,47,24,0
108.320175,108.47031,40,27,0
108.62043,108.94768,59,24,0
108.62043,108.94768,52,24,0
108.94768,109.264244,59,24,0
108.94768,109.264244,52,24,0
109.264244,109.42787,33,27,0
109.59149,109.93923,64,25,0
109.59149,109.93923,57,21,0
109.93923,110.28698,64,60,0
109.93923,110.28698,57,60,0
110.28698,110.434074,50,67,0
110.58117,110.86881,62,59,0
110.58117,110.86881,57,59,0
110.58117,110.86881,50,59,0
110.86881,111.18103,62,59,0
110.86881,111.18103,57,59,0
110.86881,111.18103,50,59,0
111.18103,111.33228,45,67,0
111.48353,111.77657,61,62,0
111.48353,111.77657,57,62,0
111.48353,111.77657,52,62,0
111.77657,112.06961,61,62,0
111.77657,112.06961,57,62,0
111.77657,112.06961,52,62,0
112.06961,112.21343,38,67,0
112.357254,112.66709,62,62,0
112.357254,112.66709,57,62,0
112.357254,112.66709,50,62,0
112.66709,112.970474,62,62,0
112.66709,112.970474,57,62,0
112.66709,112.970474,50,62,0
112.970474,113.12919,45,67,0
113.2879,113.6198,57,49,0
113.6198,113.969635,64,64,0
113.6198,113.969635,57,64,0
113.969635,114.11673,50,67,0
114.263824,114.55147,62,59,0
114.263824,114.55147,57,59,0
114.55147,114.863686,62,59,0
114.55147,114.863686,57,59,0
114.55147,114.863686,50,59,0
114.863686,115.01493,43,67,0
115.16618,115.45922,64,62,0
115.16618,115.45922,59,62,0
115.45922,115.75226,64,62,0
115.45922,115.75226,59,62,0
115.45922,115.75226,52,62,0
115.75226,115.89609,45,67,0
116.03991,116.34975,64,62,0
116.03991,116.34975,57,62,0
116.34975,116.65313,64,62,0
116.34975,116.65313,57,62,0
116.65313,116.809715,38,67,0
116.96629,117.289,62,49,0
116.96629,117.289,57,41,0
116.96629,117.289,50,41,0
117.289,117.930885,62,44,0
117.289,117.930885,57,44,0
117.289,117.930885,50,44,0
117.930885,118.23026,62,23,0
117.930885,118.23026,57,23,0
117.930885,118.23026,50,23,0
118.23026,118.55982,62,23,0
118.23026,118.55982,57,23,0
118.23026,118.55982,50,23,0
118.55982,118.71724,45,27,0
118.87465,119.17964,61,24,0
118.87465,119.17964,57,24,0
118.87465,119.17964,52,24,0
119.17964,119.48463,61,24,0
119.17964,119.48463,57,24,0
119.17964,119.48463,52,24,0
119.48463,119.63431,38,27,0
119.784,120.10645,62,24,0
119.784,120.10645,57,24,0
119.784,120.10645,50,24,0
120.10645,120.422195,62,24,0
120.10645,120.422195,57,24,0
120.10645,120.422195,50,24,0
120.422195,120.58862,45,27,0
120.75505,121.10595,57,20,0
120.75505,121.10595,61,20,0
121.10595,121.48174,64,26,0
121.48174,121.80535,50,27,0
121.10595,121.80535,57,26,0
121.80535,122.116005,62,23,0
121.80535,122.116005,57,23,0
122.116005,122.446045,62,23,0
122.116005,122.446045,57,23,0
122.116005,122.446045,50,23,0
122.446045,122.61059,43,27,0
122.77513,123.096054,64,24,0
122.77513,123.096054,59,24,0
123.096054,123.416985,64,24,0
123.096054,123.416985,59,24,0
123.096054,123.416985,52,24,0
123.416985,123.57273,45,27,0
123.72848,124.08692,64,24,0
123.72848,124.08692,57,24,0
124.08692,124.418816,64,24,0
124.08692,124.418816,57,24,0
124.418816,124.59013,38,27,0
124.76146,125.11555,62,20,0
124.76146,125.11555,57,17,0
124.76146,125.11555,50,17,0
125.11555,125.49378,62,26,0
125.11555,125.49378,57,26,0
125.11555,125.49378,50,26,0
125.49378,125.826195,57,31,0
125.49378,125.826195,50,26,0
125.826195,126.142494,50,23,0
125.826195,126.142494,60,27,0
126.142494,126.47036,59,28,0
126.142494,126.47036,50,23,0
126.47036,126.803696,55,32,0
126.47036,126.803696,50,26,0
126.803696,127.11916,50,24,0
126.803696,127.11916,58,28,0
127.11916,127.44974,57,29,0
127.11916,127.44974,50,24,0
127.44974,127.775826,57,33,0
127.44974,127.775826,50,27,0
127.775826,128.07642,50,24,0
127.775826,128.07642,60,29,0
128.07642,128.39986,59,29,0
128.07642,128.39986,50,24,0
128.39986,128.72684,55,33,0
128.39986,128.72684,50,28,0
128.72684,129.02527,50,25,0
128.72684,129.02527,58,30,0
129.02527,129.34871,57,30,0
129.02527,129.34871,50,25,0
129.34871,129.67053,54,35,0
129.34871,129.67053,50,29,0
129.67053,129.95935,50,26,0
129.67053,129.95935,57,31,0
129.95935,130.26863,56,31,0
129.95935,130.26863,50,26,0
130.26863,130.58359,52,35,0
130.26863,130.58359,50,29,0
130.58359,130.86974,50,26,0
130.58359,130.86974,55,31,0
130.86974,131.18716,54,31,0
130.86974,131.18716,50,26,0
131.18716,131.49805,54,35,0
131.18716,131.49805,50,29,0
131.49805,131.76987,50,25,0
131.49805,131.76987,57,30,0
131.76987,132.08302,56,30,0
131.76987,132.08302,50,25,0
132.08302,132.3876,52,33,0
132.08302,132.3876,50,28,0
132.3876,132.66649,50,24,0
132.3876,132.66649,55,29,0
132.66649,132.97261,54,29,0
132.66649,132.97261,50,24,0
132.97261,133.28108,45,29,0
132.97261,133.28108,38,24,0
133.28108,133.55486,38,21,0
133.28108,133.55486,48,25,0
133.55486,133.85486,47,24,0
133.55486,133.85486,38,21,0
133.85486,134.1602,43,28,0
133.85486,134.1602,38,23,0
134.1602,134.43289,38,20,0
134.1602,134.43289,46,24,0
134.43289,134.72992,45,24,0
134.43289,134.72992,38,20,0
134.72992,135.04721,45,23,0
134.72992,135.04721,38,20,0
135.04721,135.32597,38,17,0
135.04721,135.32597,48,20,0
135.32597,135.63414,47,20,0
135.32597,135.63414,38,17,0
135.63414,135.96255,43,22,0
135.63414,135.96255,38,19,0
135.96255,136.25543,38,17,0
135.96255,136.25543,46,20,0
136.25543,136.57407,45,20,0
136.25543,136.57407,38,17,0
136.57407,136.93228,45,31,0
136.57407,136.93228,38,26,0
136.93228,137.28937,57,34,0
136.93228,137.28937,50,28,0
137.28937,140.9814,69,34,0
137.28937,140.9814,62,28,0
