start_time,end_time,note_value,velocity,instrument_program_number
16.503523,16.628128,73,54,0
16.628128,16.690432,70,51,0
16.877338,17.001944,72,51,0
17.001944,17.124805,73,54,0
17.124805,17.186235,70,51,0
17.496876,17.619156,73,54,0
17.619156,17.680294,70,51,0
17.86604,17.990646,72,51,0
17.990646,18.113506,73,54,0
18.113506,18.174936,70,51,0
18.485577,18.608437,73,54,0
18.608437,18.669867,70,51,0
18.855904,18.980509,72,61,0
18.980509,19.102787,73,66,0
19.102787,19.163927,82,64,0
19.48163,19.604492,81,61,0
19.604492,19.665922,72,57,0
19.851957,19.976562,73,49,0
19.976562,20.099422,75,52,0
20.099422,20.160852,72,49,0
20.471495,20.59493,78,55,0
20.59493,20.656649,72,49,0
20.842972,20.967579,73,49,0
20.967579,21.090439,75,52,0
21.090439,21.151869,72,49,0
21.46251,21.585945,78,55,0
21.585945,21.647665,72,49,0
21.833988,21.958593,73,49,0
21.958593,22.081453,75,52,0
22.081453,22.142883,72,49,0
22.453526,22.576962,78,58,0
22.576962,22.63868,72,51,0
22.825003,22.94961,73,65,0
22.94961,23.07247,75,71,0
23.07247,23.1339,84,64,0
23.574064,23.635782,73,57,0
23.450626,23.6975,84,61,0
23.822105,23.94671,75,49,0
23.94671,24.06957,77,52,0
24.06957,24.131,73,49,0
23.94671,24.192432,82,52,0
24.44773,24.572334,73,69,0
24.44773,24.572334,85,82,0
24.572334,24.634638,79,63,0
24.572334,24.634638,84,75,0
24.823362,24.949785,82,72,0
24.823362,24.949785,73,61,0
24.949785,25.072645,77,64,0
24.949785,25.072645,81,78,0
25.072645,25.134075,84,68,0
25.072645,25.134075,72,57,0
25.450802,25.575409,78,55,0
25.450802,25.575409,66,46,0
25.575409,25.63771,77,50,0
25.575409,25.63771,72,42,0
25.827662,25.95531,75,49,0
25.827662,25.95531,66,40,0
25.95531,26.07817,70,44,0
25.95531,26.07817,73,52,0
26.07817,26.1396,77,49,0
26.07817,26.1396,65,40,0
26.45633,26.580935,85,82,0
26.45633,26.580935,73,69,0
26.580935,26.643238,79,63,0
26.580935,26.643238,84,75,0
26.833189,26.960838,82,72,0
26.833189,26.960838,73,61,0
26.960838,27.083698,81,78,0
26.960838,27.083698,77,64,0
27.083698,27.145128,84,68,0
27.083698,27.145128,72,57,0
27.461855,27.58646,78,55,0
27.461855,27.58646,66,46,0
27.58646,27.648764,72,42,0
27.58646,27.648764,77,50,0
27.838715,27.966364,75,49,0
27.838715,27.966364,66,40,0
27.966364,28.089224,70,44,0
27.966364,28.089224,74,52,0
28.089224,28.150654,65,40,0
28.089224,28.150654,73,40,0
28.089224,28.150654,77,49,0
28.499166,28.6296,89,89,0
28.499166,28.6296,77,75,0
28.499166,28.6296,82,75,0
28.6296,28.694818,76,70,0
28.6296,28.694818,88,83,0
28.891615,29.023193,85,72,0
28.891615,29.023193,73,62,0
29.023193,29.149776,72,68,0
29.023193,29.149776,84,80,0
29.023193,29.149776,76,68,0
29.149776,29.213066,70,62,0
29.149776,29.213066,82,75,0
29.534979,29.659584,82,80,0
29.534979,29.659584,70,68,0
29.659584,29.721888,76,61,0
29.659584,29.721888,80,73,0
29.910612,30.037033,79,68,0
29.910612,30.037033,67,57,0
30.037033,30.159895,78,69,0
30.037033,30.159895,75,59,0
30.159895,30.221325,72,64,0
30.159895,30.221325,66,55,0
30.538052,30.662657,80,68,0
30.538052,30.662657,68,57,0
30.662657,30.72496,79,62,0
30.662657,30.72496,74,52,0
30.91307,31.038877,77,61,0
30.91307,31.038877,65,51,0
31.038877,31.161737,75,63,0
31.038877,31.161737,72,53,0
31.161737,31.223167,67,52,0
31.161737,31.223167,63,44,0
31.539896,31.65939,75,67,0
31.539896,31.65939,72,57,0
31.65939,31.719135,63,49,0
31.65939,31.719135,66,59,0
32.03312,32.1576,72,53,0
32.03312,32.1576,75,62,0
32.1576,32.21984,65,56,0
32.1576,32.21984,63,46,0
32.561153,32.689907,73,68,0
32.689907,32.81866,70,59,0
32.689907,32.81866,65,40,0
32.689907,32.81866,61,40,0
32.949097,33.079533,72,67,0
33.079533,33.20558,73,68,0
33.20558,33.331635,70,60,0
33.20558,33.331635,65,40,0
33.20558,33.331635,61,40,0
33.591373,33.715855,73,68,0
33.715855,33.840336,70,60,0
33.715855,33.840336,61,40,0
33.715855,33.840336,65,40,0
33.96854,34.09675,72,68,0
34.09675,34.222797,73,68,0
34.222797,34.348846,70,60,0
34.222797,34.348846,65,40,0
34.222797,34.348846,61,40,0
34.60526,34.73026,73,68,0
34.73026,34.85526,70,67,0
34.73026,34.85526,65,46,0
34.73026,34.85526,61,46,0
34.983463,35.111668,72,73,0
35.111668,35.23615,73,84,0
35.23615,35.36063,82,76,0
35.23615,35.36063,77,52,0
35.23615,35.36063,70,52,0
35.617165,35.74007,81,76,0
35.74007,35.86293,72,67,0
35.74007,35.86293,69,46,0
35.98752,36.112125,73,67,0
36.112125,36.235,75,68,0
36.235,36.35786,72,60,0
36.235,36.35786,69,40,0
36.235,36.35786,66,40,0
36.607056,36.730503,78,71,0
36.730503,36.85394,72,59,0
36.730503,36.85394,66,40,0
36.730503,36.85394,69,40,0
36.978535,37.10314,73,67,0
37.10314,37.226017,75,68,0
37.226017,37.348877,72,60,0
37.226017,37.348877,69,40,0
37.226017,37.348877,66,40,0
37.598072,37.72152,78,71,0
37.72152,37.844955,72,59,0
37.72152,37.844955,69,40,0
37.72152,37.844955,66,40,0
37.96955,38.09416,73,67,0
38.09416,38.21703,75,68,0
38.21703,38.339893,72,60,0
38.21703,38.339893,69,40,0
38.21703,38.339893,66,40,0
38.58909,38.712536,78,74,0
38.712536,38.83597,72,63,0
38.712536,38.83597,69,42,0
38.712536,38.83597,66,42,0
38.960567,39.08517,73,78,0
39.08517,39.208046,75,88,0
39.208046,39.330906,84,78,0
39.208046,39.330906,78,54,0
39.208046,39.330906,72,54,0
39.586166,39.709637,84,73,0
39.709637,39.833073,73,72,0
39.709637,39.833073,72,50,0
39.95767,40.082275,75,64,0
40.082275,40.20515,77,69,0
40.20515,40.32801,73,44,0
40.20515,40.32801,82,69,0
40.20515,40.32801,70,44,0
40.583267,40.70787,85,85,0
40.70787,40.832478,79,71,0
40.70787,40.832478,84,84,0
40.70787,40.832478,73,71,0
40.9589,41.085323,82,80,0
41.085323,41.208183,81,86,0
41.208183,41.331043,84,80,0
41.208183,41.331043,72,67,0
41.208183,41.331043,77,67,0
41.58634,41.710945,78,67,0
41.710945,41.835552,72,55,0
41.710945,41.835552,77,66,0
41.710945,41.835552,66,55,0
41.9632,42.090847,75,64,0
42.090847,42.213707,74,69,0
42.213707,42.33657,65,53,0
42.213707,42.33657,70,53,0
42.213707,42.33657,77,64,0
42.213707,42.33657,73,53,0
42.591866,42.716473,85,85,0
42.716473,42.841076,79,71,0
42.716473,42.841076,84,84,0
42.716473,42.841076,73,71,0
42.968727,43.096375,82,80,0
43.096375,43.219234,81,86,0
43.219234,43.342094,84,80,0
43.219234,43.342094,72,67,0
43.219234,43.342094,77,67,0
43.597393,43.722,83,84,0
43.722,43.846603,77,65,0
43.722,43.846603,82,77,0
43.722,43.846603,71,65,0
43.974255,44.101902,80,80,0
44.101902,44.224762,79,86,0
44.224762,44.347622,82,75,0
44.224762,44.347622,70,63,0
44.224762,44.347622,78,63,0
44.655502,44.930733,81,99,0
44.655502,44.930733,69,83,0
44.930733,45.190475,82,79,0
44.930733,45.190475,70,66,0
45.190475,45.45714,81,89,0
45.190475,45.45714,69,75,0
44.655502,45.45714,78,83,0
45.45714,45.71576,77,66,0
45.45714,45.71576,70,66,0
45.45714,45.71576,82,79,0
45.71576,45.98567,81,92,0
45.71576,45.98567,77,78,0
45.71576,45.98567,69,78,0
45.98567,46.256817,82,80,0
45.98567,46.256817,70,67,0
46.256817,46.540936,81,89,0
46.256817,46.540936,69,74,0
45.98567,46.540936,75,67,0
46.540936,46.82505,82,80,0
46.540936,46.82505,73,67,0
46.540936,46.82505,70,67,0
46.82505,46.966427,73,100,0
46.82505,46.966427,61,79,0
46.82505,46.966427,66,84,0
47.107803,47.24918,72,86,0
47.107803,47.24918,66,73,0
47.107803,47.24918,60,65,0
47.67331,47.961548,56,56,0
47.67331,47.961548,70,66,0
47.67331,47.961548,61,56,0
47.67331,47.961548,66,58,0
47.961548,48.53803,66,56,0
47.961548,48.53803,56,58,0
47.961548,48.53803,70,68,0
47.961548,48.53803,62,58,0
48.53803,48.970387,56,53,0
48.53803,48.970387,68,62,0
48.53803,48.970387,63,53,0
48.53803,48.970387,66,62,0
48.970387,49.11451,53,49,0
49.11451,50.3865,68,49,0
49.11451,50.3865,61,41,0
49.11451,50.3865,53,41,0
50.3865,51.01042,65,49,0
50.3865,51.01042,61,41,0
50.3865,51.01042,56,41,0
51.01042,51.634315,63,37,0
51.01042,51.634315,58,37,0
51.01042,51.634315,66,44,0
51.634315,52.912544,65,46,0
52.912544,54.21321,63,41,0
51.634315,54.21321,54,31,0
51.634315,54.21321,60,37,0
54.21321,54.8683,68,49,0
54.05421,54.8683,53,41,0
54.8683,55.523396,65,49,0
54.8683,55.523396,56,41,0
54.13371,55.523396,61,41,0
55.523396,55.835407,58,41,0
55.523396,55.835407,66,49,0
55.835407,56.158127,65,47,0
55.835407,56.158127,56,39,0
55.523396,56.158127,61,41,0
56.158127,56.470074,68,44,0
56.158127,56.470074,60,37,0
56.470074,56.78963,66,41,0
56.470074,56.78963,58,35,0
56.158127,56.78963,63,41,0
56.78963,58.06786,65,45,0
58.06786,59.333866,63,41,0
56.78963,59.333866,60,36,0
56.78963,59.333866,54,29,0
59.333866,59.97298,53,41,0
59.333866,59.97298,68,52,0
59.97298,60.612095,70,51,0
59.97298,60.612095,64,44,0
59.333866,60.612095,61,40,0
60.612095,61.236023,72,52,0
60.612095,61.236023,63,44,0
61.236023,61.703945,73,58,0
61.703945,61.859917,75,60,0
61.703945,61.859917,72,53,0
61.236023,61.859917,66,49,0
61.859917,62.483814,77,61,0
61.859917,62.483814,73,47,0
61.859917,62.483814,65,42,0
62.483814,63.138905,70,51,0
62.483814,63.138905,61,44,0
62.483814,63.138905,64,44,0
63.138905,63.68488,72,52,0
63.138905,63.68488,60,44,0
63.762867,64.23804,73,58,0
64.23804,64.40125,75,60,0
63.68488,64.40125,58,56,0
63.138905,64.40125,63,44,0
64.40125,65.05414,77,63,0
64.40125,65.05414,65,53,0
65.05414,65.70702,75,60,0
64.40125,65.70702,72,53,0
65.70702,66.35991,73,63,0
65.05414,66.35991,65,53,0
65.70702,66.35991,61,53,0
65.70702,66.35991,70,63,0
66.35991,66.83245,72,63,0
66.35991,66.83245,68,53,0
66.35991,66.83245,64,53,0
66.83245,66.98996,70,57,0
66.83245,66.98996,65,57,0
66.98996,67.63253,68,61,0
66.98996,67.63253,65,56,0
66.98996,67.63253,59,51,0
67.63253,68.105064,66,59,0
67.63253,68.105064,63,59,0
67.63253,68.105064,54,47,0
67.63253,68.105064,58,49,0
68.105064,68.26258,65,56,0
68.105064,68.26258,61,56,0
68.105064,68.26258,56,47,0
68.26258,68.89263,61,59,0
68.26258,68.89263,58,49,0
68.26258,69.22519,63,59,0
69.22519,69.40037,64,60,0
68.89263,69.40037,60,53,0
68.89263,69.40037,54,47,0
69.57554,70.85377,80,72,0
69.48795,70.85377,73,60,0
69.40037,70.85377,65,55,0
70.85377,71.47766,77,60,0
70.85377,71.47766,73,49,0
70.85377,71.47766,68,49,0
71.47766,71.79722,68,39,0
71.47766,71.79722,65,34,0
71.79722,72.129776,78,55,0
71.79722,72.129776,75,41,0
71.79722,72.129776,70,41,0
72.129776,73.076225,77,65,0
73.076225,73.39578,75,55,0
72.129776,73.39578,72,45,0
72.129776,73.39578,66,38,0
73.39578,73.70773,70,58,0
73.70773,74.01968,68,52,0
74.01968,74.340805,61,61,0
74.340805,74.50792,63,55,0
74.50792,74.67503,65,62,0
74.67503,75.31415,80,68,0
74.67503,75.31415,65,55,0
75.31415,75.95326,77,62,0
75.31415,75.95326,68,49,0
74.67503,75.95326,73,57,0
75.95326,76.265205,70,55,0
75.95326,76.265205,78,66,0
76.265205,76.577156,77,55,0
76.265205,76.577156,68,46,0
75.95326,76.577156,73,57,0
76.577156,76.79019,77,57,0
76.577156,76.79019,68,48,0
76.79019,77.003235,80,55,0
76.79019,77.003235,72,46,0
77.003235,77.21627,78,55,0
77.003235,77.21627,70,46,0
77.21627,78.16272,77,61,0
78.16272,78.48228,75,60,0
77.21627,78.48228,72,38,0
77.21627,78.48228,66,32,0
78.48228,78.69024,70,60,0
78.69024,78.89821,68,51,0
78.89821,79.10617,70,51,0
79.10617,79.32026,68,58,0
79.32026,79.541046,61,53,0
79.541046,79.768524,63,53,0
79.768524,80.41078,68,59,0
80.41078,81.04376,82,68,0
79.768524,81.04376,73,58,0
79.768524,81.04376,80,73,0
80.41078,81.04376,70,57,0
81.04376,81.67674,72,61,0
81.04376,81.67674,84,73,0
81.67674,82.14466,85,75,0
81.67674,82.14466,73,68,0
82.14466,82.30602,87,73,0
81.04376,82.30602,80,61,0
81.04376,82.30602,78,61,0
82.14466,82.30602,75,70,0
82.30602,82.938995,89,78,0
82.938995,83.571976,70,61,0
82.30602,83.571976,80,66,0
82.30602,83.571976,77,66,0
82.938995,83.571976,82,73,0
83.571976,84.204956,84,78,0
83.571976,84.204956,78,66,0
83.571976,84.204956,80,66,0
83.571976,84.204956,72,66,0
84.204956,84.68361,85,79,0
84.204956,84.68361,73,66,0
84.68361,84.84577,87,77,0
84.68361,84.84577,75,64,0
84.84577,85.494415,89,81,0
84.84577,85.494415,77,70,0
84.84577,86.13042,87,74,0
84.84577,86.13042,84,66,0
85.494415,86.44386,78,66,0
85.494415,86.44386,90,78,0
86.44386,86.76658,77,64,0
86.44386,86.76658,89,77,0
86.76658,87.0893,88,75,0
86.76658,87.0893,76,63,0
87.0893,87.41202,89,75,0
86.13042,87.41202,85,74,0
86.13042,87.41202,82,74,0
87.0893,87.41202,77,63,0
87.41202,88.05746,92,85,0
87.41202,88.05746,80,72,0
87.41202,88.69044,90,71,0
87.41202,88.69044,87,57,0
88.05746,88.998,82,70,0
88.05746,88.998,94,84,0
88.998,89.31449,80,67,0
88.998,89.31449,92,80,0
88.69044,89.31449,89,81,0
89.31449,89.78922,90,84,0
89.31449,89.78922,78,70,0
89.78922,89.94747,77,66,0
89.78922,89.94747,89,78,0
89.31449,89.94747,82,62,0
89.94747,90.259415,92,86,0
89.94747,90.259415,80,73,0
90.259415,90.57897,90,72,0
90.259415,90.57897,78,60,0
89.94747,90.57897,82,73,0
90.57897,90.89242,77,57,0
90.57897,90.89242,89,72,0
90.89242,91.213554,86,72,0
90.89242,91.213554,74,60,0
90.57897,91.213554,82,54,0
91.213554,91.5255,77,69,0
91.213554,91.5255,89,81,0
91.5255,91.845055,75,60,0
91.5255,91.845055,87,71,0
91.213554,91.845055,82,54,0
91.845055,92.157005,70,61,0
91.845055,92.157005,82,72,0
92.157005,92.46895,73,56,0
92.157005,92.46895,85,67,0
91.845055,92.46895,76,55,0
92.46895,92.7809,82,80,0
92.46895,92.7809,70,66,0
92.7809,93.10203,68,61,0
92.7809,93.10203,80,73,0
92.46895,93.10203,77,61,0
93.10203,93.42316,61,61,0
93.10203,93.42316,66,61,0
93.42316,93.74429,78,74,0
93.42316,93.74429,66,62,0
93.10203,93.74429,73,73,0
93.74429,94.38191,73,67,0
93.74429,94.38191,61,67,0
93.74429,94.38191,75,80,0
93.74429,94.38191,66,67,0
94.38191,94.69093,77,75,0
94.38191,94.69093,65,63,0
94.69093,95.00742,78,70,0
94.69093,95.00742,66,60,0
94.38191,95.00742,72,51,0
95.00742,95.31937,82,77,0
95.00742,95.31937,70,62,0
95.31937,95.63586,81,68,0
95.31937,95.63586,69,51,0
95.00742,95.63586,73,47,0
95.63586,95.849945,68,64,0
95.63586,95.849945,73,53,0
95.63586,95.849945,80,77,0
95.849945,96.06403,61,60,0
96.06403,96.27812,78,70,0
96.06403,96.27812,66,60,0
95.849945,96.27812,73,70,0
96.27812,96.59925,63,66,0
96.27812,96.59925,75,80,0
96.59925,96.75449,77,68,0
96.59925,96.75449,65,57,0
96.75449,96.909744,75,63,0
96.27812,96.909744,73,66,0
96.27812,96.909744,66,66,0
96.75449,96.909744,63,53,0
96.909744,97.06953,74,73,0
96.909744,97.06953,62,61,0
97.06953,97.2293,75,68,0
97.06953,97.2293,63,57,0
97.2293,97.3939,77,73,0
97.2293,97.3939,65,61,0
97.3939,97.5585,78,69,0
97.3939,97.5585,66,58,0
96.909744,97.5585,72,61,0
97.5585,97.76949,79,83,0
97.5585,97.76949,67,70,0
97.76949,97.98151,68,66,0
97.76949,97.98151,80,79,0
97.5585,97.98151,73,67,0
97.98151,98.19455,89,77,0
97.98151,98.19455,77,69,0
98.19455,98.407585,87,82,0
98.19455,98.407585,75,70,0
98.407585,98.62062,85,73,0
98.407585,98.62062,73,62,0
98.19455,98.62062,78,70,0
98.62062,98.833664,66,68,0
98.62062,98.833664,78,80,0
98.62062,98.833664,73,64,0
98.833664,99.492065,63,69,0
98.833664,99.492065,73,69,0
99.492065,99.82801,72,61,0
99.492065,99.82801,66,61,0
98.833664,99.82801,68,69,0
98.833664,100.07996,75,82,0
100.07996,100.163956,73,73,0
100.163956,100.34828,73,85,0
100.163956,100.34828,65,72,0
100.34828,100.44045,70,73,0
100.34828,100.44045,63,62,0
100.52703,100.61361,70,73,0
100.52703,100.61361,63,62,0
100.700195,100.86901,70,75,0
100.700195,100.86901,63,62,0
100.86901,100.95342,68,71,0
101.034065,101.11471,78,74,0
101.034065,101.11471,72,62,0
101.19536,101.35821,78,75,0
101.19536,101.35821,72,63,0
101.35821,101.43946,77,74,0
101.35821,101.43946,73,62,0
101.51758,101.595695,82,74,0
101.51758,101.595695,75,62,0
101.67381,101.83355,82,78,0
101.67381,101.83355,75,64,0
101.83355,101.913414,80,73,0
101.99187,102.07033,84,62,0
101.99187,102.07033,90,73,0
102.14878,102.30789,90,78,0
102.14878,102.30789,84,64,0
102.30789,102.38744,89,73,0
102.30789,102.38744,85,62,0
102.467,102.54525,75,62,0
102.467,102.54525,82,73,0
102.623505,102.780014,82,75,0
102.623505,102.780014,75,62,0
102.780014,102.85827,80,72,0
102.936516,103.01477,78,74,0
102.936516,103.01477,72,62,0
103.093025,103.249535,72,62,0
103.093025,103.249535,78,75,0
103.249535,103.32779,77,71,0
103.249535,103.32779,73,60,0
103.40604,103.48429,63,62,0
103.40604,103.48429,70,74,0
103.562546,103.719055,70,78,0
103.562546,103.719055,63,64,0
103.719055,103.7973,68,74,0
103.87649,103.95567,66,74,0
103.87649,103.95567,60,62,0
104.03485,104.197975,66,78,0
104.03485,104.197975,60,64,0
104.197975,104.27953,61,56,0
104.197975,104.27953,65,67,0
104.36109,104.43914,69,59,0
104.36109,104.43914,64,49,0
104.51718,104.67252,69,62,0
104.51718,104.67252,64,51,0
104.67252,104.75019,68,58,0
104.67252,104.75019,63,49,0
104.827866,104.90553,78,52,0
104.827866,104.90553,72,44,0
104.9832,105.13854,78,55,0
104.9832,105.13854,72,46,0
105.13854,105.21621,77,52,0
105.13854,105.21621,73,44,0
105.293884,105.37155,76,44,0
105.293884,105.37155,81,52,0
105.44922,105.60456,81,55,0
105.44922,105.60456,76,46,0
105.60456,105.68223,80,51,0
105.60456,105.68223,75,41,0
105.7599,105.83757,90,46,0
105.7599,105.83757,84,39,0
105.91524,106.07058,90,49,0
105.91524,106.07058,84,40,0
106.07058,106.14825,89,46,0
106.07058,106.14825,85,39,0
106.22592,106.30359,81,55,0
106.22592,106.30359,76,47,0
106.381256,106.5366,81,59,0
106.381256,106.5366,76,49,0
106.5366,106.614265,80,56,0
106.5366,106.614265,75,45,0
106.69384,106.773415,78,56,0
106.69384,106.773415,72,47,0
106.85299,107.01447,78,59,0
106.85299,107.01447,72,49,0
107.01447,107.095215,77,55,0
107.01447,107.095215,73,47,0
107.17596,107.25363,69,54,0
107.17596,107.25363,64,45,0
107.3313,107.49123,69,59,0
107.3313,107.49123,64,49,0
107.49123,107.57118,68,56,0
107.49123,107.57118,63,45,0
107.65651,107.74184,66,62,0
107.65651,107.74184,60,52,0
107.65651,107.74184,63,52,0
107.827156,107.98864,66,59,0
107.827156,107.98864,60,49,0
107.827156,107.98864,63,49,0
107.98864,108.06939,67,49,0
107.98864,108.06939,60,41,0
107.98864,108.06939,64,42,0
108.14783,108.22627,66,47,0
108.14783,108.22627,62,49,0
108.14783,108.22627,72,56,0
108.30472,108.46236,72,59,0
108.30472,108.46236,66,49,0
108.30472,108.46236,62,49,0
108.46236,108.541176,71,48,0
108.46236,108.541176,67,41,0
108.46236,108.541176,62,42,0
108.61853,108.695885,77,56,0
108.61853,108.695885,65,47,0
108.61853,108.695885,67,47,0
108.61853,108.695885,71,47,0
108.77323,108.92794,77,59,0
108.77323,108.92794,71,49,0
108.77323,108.92794,65,49,0
108.77323,108.92794,67,49,0
108.92794,109.00529,76,52,0
108.92794,109.00529,72,44,0
108.92794,109.00529,67,46,0
109.08264,109.15999,72,49,0
109.08264,109.15999,84,56,0
109.08264,109.15999,74,49,0
109.08264,109.15999,78,47,0
109.23734,109.392044,78,49,0
109.23734,109.392044,72,49,0
109.23734,109.392044,84,59,0
109.23734,109.392044,74,49,0
109.392044,109.4694,83,51,0
109.392044,109.4694,79,41,0
109.392044,109.4694,71,46,0
109.548584,109.62776,89,55,0
109.548584,109.62776,77,49,0
109.548584,109.62776,79,49,0
109.548584,109.62776,83,47,0
109.70695,109.86531,89,59,0
109.70695,109.86531,77,49,0
109.70695,109.86531,79,49,0
109.70695,109.86531,83,49,0
109.86531,110.023674,70,45,0
109.86531,110.023674,74,63,0
110.023674,110.18147,80,80,0
110.023674,110.18147,71,66,0
110.18147,110.337944,77,74,0
110.18147,110.337944,73,68,0
110.337944,110.49329,83,84,0
110.337944,110.49329,74,71,0
110.49329,110.64755,80,79,0
110.49329,110.64755,76,66,0
110.64755,110.80017,86,89,0
110.64755,110.80017,77,74,0
110.80017,110.954056,79,72,0
110.80017,110.954056,83,85,0
110.954056,111.10922,80,78,0
110.954056,111.10922,89,92,0
111.10922,111.2655,86,86,0
111.10922,111.2655,82,73,0
111.2655,111.42991,92,94,0
111.2655,111.42991,83,79,0
111.42991,111.598076,95,90,0
111.42991,111.598076,83,77,0
111.598076,111.76624,96,101,0
111.598076,111.76624,84,85,0
111.76624,111.92953,72,77,0
111.76624,111.92953,67,64,0
111.76624,111.92953,60,64,0
111.92953,112.089874,72,77,0
111.92953,112.089874,60,64,0
111.92953,112.089874,67,64,0
112.089874,112.25216,72,77,0
112.089874,112.25216,68,55,0
112.089874,112.25216,60,55,0
112.25216,112.4098,72,75,0
112.25216,112.4098,68,63,0
112.25216,112.4098,60,63,0
112.4098,112.569725,72,75,0
112.4098,112.569725,68,63,0
112.4098,112.569725,60,63,0
112.569725,112.73121,68,57,0
112.569725,112.73121,60,57,0
112.569725,112.73121,72,80,0
112.73121,112.88809,72,77,0
112.73121,112.88809,68,64,0
112.73121,112.88809,60,64,0
112.88809,113.04802,72,77,0
112.88809,113.04802,68,64,0
112.88809,113.04802,60,64,0
113.04802,113.20642,72,81,0
113.04802,113.20642,68,68,0
113.04802,113.20642,60,68,0
113.20642,113.358284,68,67,0
113.20642,113.358284,60,67,0
113.20642,113.358284,72,79,0
113.358284,113.5147,72,79,0
113.358284,113.5147,68,67,0
113.358284,113.5147,60,67,0
113.5147,113.59624,72,80,0
113.5147,113.59624,68,67,0
113.5147,113.59624,60,67,0
113.6755,113.75249,72,81,0
113.6755,113.75249,69,68,0
113.6755,113.75249,60,68,0
113.82947,113.90943,72,82,0
113.82947,113.90943,69,69,0
113.82947,113.90943,60,69,0
113.98939,114.0671,72,83,0
113.98939,114.0671,60,71,0
113.98939,114.0671,69,71,0
114.14481,114.22039,73,84,0
114.14481,114.22039,69,71,0
114.14481,114.22039,61,71,0
114.29596,114.37554,73,85,0
114.29596,114.37554,69,71,0
114.29596,114.37554,61,71,0
114.455124,114.535866,73,86,0
114.455124,114.535866,69,72,0
114.455124,114.535866,61,72,0
114.61661,114.69289,69,73,0
114.61661,114.69289,61,73,0
114.61661,114.69289,73,88,0
114.769165,114.847984,73,90,0
114.769165,114.847984,69,75,0
114.769165,114.847984,61,75,0
114.9268,115.00562,73,91,0
114.9268,115.00562,69,77,0
114.9268,115.00562,61,77,0
115.08445,115.15943,73,92,0
115.08445,115.15943,68,78,0
115.08445,115.15943,61,78,0
115.23483,115.31068,67,79,0
115.23483,115.31068,61,79,0
115.23483,115.31068,73,93,0
115.38704,115.47425,73,102,0
115.38704,115.47425,68,86,0
115.38704,115.47425,61,73,0
115.55859,115.72155,77,95,0
115.55859,115.72155,68,80,0
115.55859,115.72155,65,68,0
115.72155,115.88986,77,95,0
115.72155,115.88986,68,80,0
115.72155,115.88986,65,68,0
115.88986,116.053505,77,101,0
115.88986,116.053505,68,85,0
115.88986,116.053505,65,72,0
116.053505,116.21832,63,68,0
116.053505,116.21832,75,95,0
116.21832,116.38432,73,95,0
116.21832,116.38432,61,68,0
116.56069,116.72508,77,95,0
116.56069,116.72508,70,80,0
116.56069,116.72508,65,68,0
116.72508,116.89439,77,95,0
116.72508,116.89439,70,80,0
116.72508,116.89439,65,68,0
116.89439,117.060394,77,101,0
116.89439,117.060394,70,85,0
116.89439,117.060394,65,72,0
117.060394,117.22803,63,68,0
117.060394,117.22803,75,95,0
117.22803,117.397285,73,95,0
117.22803,117.397285,61,68,0
117.57258,117.73697,77,95,0
117.57258,117.73697,68,80,0
117.57258,117.73697,65,68,0
117.73697,117.90691,77,95,0
117.73697,117.90691,68,80,0
117.73697,117.90691,65,68,0
117.90691,118.072136,77,101,0
117.90691,118.072136,68,85,0
117.90691,118.072136,65,72,0
118.072136,118.23735,63,68,0
118.072136,118.23735,75,95,0
118.23735,118.40257,73,95,0
118.23735,118.40257,61,68,0
118.58431,118.75718,77,95,0
118.58431,118.75718,67,80,0
118.58431,118.75718,65,68,0
118.75718,118.93506,77,95,0
118.75718,118.93506,67,80,0
118.75718,118.93506,65,68,0
118.93506,119.11948,77,101,0
118.93506,119.11948,67,85,0
118.93506,119.11948,65,72,0
119.11948,119.30947,63,68,0
119.11948,119.30947,75,95,0
119.30947,119.50024,73,95,0
119.30947,119.50024,61,68,0
119.50024,121.53414,63,101,0
119.50024,121.53414,51,84,0
119.50024,121.53414,55,84,0
119.50024,121.53414,61,95,0
121.53414,123.676994,65,95,0
121.53414,123.676994,60,80,0
121.53414,123.676994,54,80,0
127.61103,127.735634,73,54,0
127.735634,127.797935,70,51,0
127.98485,128.10945,72,51,0
128.10945,128.2323,73,54,0
128.2323,128.29373,70,51,0
128.60435,128.72664,73,54,0
128.72664,128.78778,70,51,0
128.97353,129.09813,72,51,0
129.09813,129.22098,73,54,0
129.22098,129.28241,70,51,0
129.59305,129.7159,73,54,0
129.7159,129.77731,70,51,0
129.96335,130.08795,72,61,0
130.08795,130.21024,73,66,0
130.21024,130.27138,82,64,0
130.58908,130.71193,81,64,0
130.71193,130.77335,72,59,0
130.95938,131.08398,73,51,0
131.08398,131.20683,75,54,0
131.20683,131.26826,72,51,0
131.5789,131.70232,78,57,0
131.70232,131.76404,72,51,0
131.95035,132.07497,73,51,0
132.07497,132.19781,75,54,0
132.19781,132.25923,72,51,0
132.56987,132.6933,78,57,0
132.6933,132.755,72,51,0
132.94133,133.06593,73,51,0
133.06593,133.18878,75,54,0
133.18878,133.25021,72,51,0
133.56085,133.68427,78,60,0
133.68427,133.74599,72,53,0
133.9323,134.05692,73,65,0
134.05692,134.17976,75,71,0
134.17976,134.24118,84,64,0
134.68134,134.74304,73,57,0
134.5579,134.80476,84,61,0
134.92937,135.05397,75,49,0
135.05397,135.17682,77,52,0
135.17682,135.23825,73,49,0
135.05397,135.29967,82,52,0
135.55496,135.67958,85,82,0
135.55496,135.67958,73,69,0
135.67958,135.74188,79,63,0
135.67958,135.74188,84,75,0
135.93059,136.057,82,72,0
135.93059,136.057,73,61,0
136.057,136.17986,77,64,0
136.057,136.17986,81,78,0
136.17986,136.24127,84,68,0
136.17986,136.24127,72,57,0
136.558,136.6826,78,55,0
136.558,136.6826,66,46,0
136.6826,136.7449,72,42,0
136.6826,136.7449,77,50,0
136.93486,137.06252,75,49,0
136.93486,137.06252,66,40,0
137.06252,137.18536,70,44,0
137.06252,137.18536,73,52,0
137.18536,137.24678,77,49,0
137.18536,137.24678,65,40,0
137.5635,137.68811,85,82,0
137.5635,137.68811,73,69,0
137.68811,137.75041,79,63,0
137.68811,137.75041,84,75,0
137.94037,138.06801,82,72,0
137.94037,138.06801,73,61,0
138.06801,138.19086,77,64,0
138.06801,138.19086,81,78,0
138.19086,138.25229,84,68,0
138.19086,138.25229,72,57,0
138.56902,138.69362,78,55,0
138.56902,138.69362,66,46,0
138.69362,138.75592,72,42,0
138.69362,138.75592,77,50,0
138.94588,139.07352,75,49,0
138.94588,139.07352,66,40,0
139.07352,139.19637,70,44,0
139.07352,139.19637,74,52,0
139.19637,139.2578,77,49,0
139.19637,139.2578,65,40,0
139.19637,139.2578,73,40,0
139.61922,139.74908,89,89,0
139.61922,139.74908,77,75,0
139.61922,139.74908,82,75,0
139.74908,139.81403,76,70,0
139.74908,139.81403,88,83,0
140.0123,140.14563,85,75,0
140.0123,140.14563,73,62,0
140.14563,140.27328,72,68,0
140.14563,140.27328,84,80,0
140.14563,140.27328,75,68,0
140.27328,140.33711,82,75,0
140.27328,140.33711,70,62,0
140.66182,140.78787,82,80,0
140.66182,140.78787,70,68,0
140.78787,140.85089,76,61,0
140.78787,140.85089,80,73,0
141.04268,141.17143,79,68,0
141.04268,141.17143,67,57,0
141.17143,141.29428,78,69,0
141.17143,141.29428,75,59,0
141.29428,141.3557,72,62,0
141.29428,141.3557,66,53,0
141.67242,141.79703,80,68,0
141.67242,141.79703,68,57,0
141.79703,141.85933,74,52,0
141.79703,141.85933,79,62,0
142.04744,142.17323,77,61,0
142.04744,142.17323,65,51,0
142.17323,142.29608,75,63,0
142.17323,142.29608,72,53,0
142.29608,142.3575,67,52,0
142.29608,142.3575,63,44,0
142.67422,142.79819,75,67,0
142.67422,142.79819,72,57,0
142.79819,142.86018,63,49,0
142.79819,142.86018,66,59,0
143.17639,143.30087,75,62,0
143.17639,143.30087,72,53,0
143.30087,143.36311,65,56,0
143.30087,143.36311,63,46,0
143.71107,143.8366,73,68,0
143.8366,143.96213,70,59,0
143.8366,143.96213,65,40,0
143.8366,143.96213,61,40,0
144.09143,144.22075,72,67,0
144.22075,144.34679,73,68,0
144.34679,144.47284,70,60,0
144.34679,144.47284,65,40,0
144.34679,144.47284,61,40,0
144.73035,144.8564,73,68,0
144.8564,144.98245,70,60,0
144.8564,144.98245,65,40,0
144.8564,144.98245,61,40,0
145.11177,145.24107,72,68,0
145.24107,145.3666,73,68,0
145.3666,145.49213,70,60,0
145.3666,145.49213,65,40,0
145.3666,145.49213,61,40,0
145.74854,145.872,73,68,0
145.872,145.99544,70,67,0
145.872,145.99544,65,46,0
145.872,145.99544,61,46,0
146.12097,146.24649,72,73,0
146.24649,146.36879,73,84,0
146.36879,146.49107,82,76,0
146.36879,146.49107,77,52,0
146.36879,146.49107,70,52,0
146.74759,146.87045,81,76,0
146.87045,146.9933,72,67,0
146.87045,146.9933,69,46,0
147.1183,147.2433,73,67,0
147.2433,147.36617,75,68,0
147.36617,147.48901,72,60,0
147.36617,147.48901,69,40,0
147.36617,147.48901,66,40,0
147.73822,147.86165,78,71,0
147.86165,147.98508,72,59,0
147.86165,147.98508,69,40,0
147.86165,147.98508,66,40,0
148.10966,148.23428,73,67,0
148.23428,148.35715,75,68,0
148.35715,148.48,72,60,0
148.35715,148.48,69,40,0
148.35715,148.48,66,40,0
148.72919,148.85263,78,71,0
148.85263,148.97604,72,59,0
148.85263,148.97604,69,40,0
148.85263,148.97604,66,40,0
149.10065,149.22525,73,67,0
149.22525,149.34811,75,68,0
149.34811,149.47096,72,60,0
149.34811,149.47096,69,40,0
149.34811,149.47096,66,40,0
149.72017,149.8436,78,74,0
149.8436,149.96703,72,63,0
149.8436,149.96703,69,42,0
149.8436,149.96703,66,42,0
150.09161,150.21623,73,82,0
150.21623,150.3391,75,88,0
150.3391,150.46194,84,78,0
150.3391,150.46194,78,54,0
150.3391,150.46194,72,54,0
150.7172,150.84065,84,73,0
150.84065,150.96408,73,72,0
150.84065,150.96408,72,50,0
151.08868,151.21329,75,64,0
151.21329,151.33615,77,69,0
151.33615,151.459,73,44,0
151.33615,151.459,82,69,0
151.33615,151.459,70,44,0
151.71426,151.83887,85,85,0
151.83887,151.96347,79,71,0
151.83887,151.96347,84,84,0
151.83887,151.96347,73,71,0
152.08989,152.2163,82,80,0
152.2163,152.33914,81,86,0
152.33914,152.46199,84,80,0
152.33914,152.46199,72,67,0
152.33914,152.46199,77,67,0
152.71729,152.8419,78,67,0
152.8419,152.9665,72,55,0
152.8419,152.9665,77,66,0
152.8419,152.9665,66,55,0
153.09415,153.2218,75,64,0
153.2218,153.34465,74,69,0
153.34465,153.4675,77,64,0
153.34465,153.4675,70,53,0
153.34465,153.4675,73,53,0
153.34465,153.4675,65,53,0
153.7228,153.8474,85,85,0
153.8474,153.97202,79,71,0
153.8474,153.97202,84,84,0
153.8474,153.97202,73,71,0
154.09966,154.22731,82,80,0
154.22731,154.35016,81,86,0
154.35016,154.473,84,80,0
154.35016,154.473,72,67,0
154.35016,154.473,77,67,0
154.7283,154.8529,83,84,0
154.8529,154.97751,77,65,0
154.8529,154.97751,82,77,0
154.8529,154.97751,71,65,0
155.10516,155.23282,80,80,0
155.23282,155.35567,79,86,0
155.35567,155.47852,82,75,0
155.35567,155.47852,70,63,0
155.35567,155.47852,78,63,0
155.78639,156.06418,81,99,0
155.78639,156.06418,69,83,0
156.06418,156.32504,82,79,0
156.06418,156.32504,70,66,0
156.32504,156.5917,81,89,0
156.32504,156.5917,69,75,0
155.78639,156.5917,78,83,0
156.5917,156.85146,82,79,0
156.5917,156.85146,77,66,0
156.5917,156.85146,70,66,0
156.85146,157.1213,81,92,0
156.85146,157.1213,77,78,0
156.85146,157.1213,69,78,0
157.1213,157.39241,82,80,0
157.1213,157.39241,70,67,0
157.39241,157.67647,81,89,0
157.39241,157.67647,69,74,0
157.1213,157.67647,75,67,0
157.67647,157.96054,82,80,0
157.67647,157.96054,73,67,0
157.67647,157.96054,70,67,0
157.96054,158.10188,73,100,0
157.96054,158.10188,66,84,0
157.96054,158.10188,61,79,0
158.24323,158.38458,72,86,0
158.24323,158.38458,66,73,0
158.24323,158.38458,60,66,0
158.80862,159.09682,70,66,0
158.80862,159.09682,56,56,0
158.80862,159.09682,61,56,0
158.80862,159.09682,66,58,0
159.09682,159.67319,70,68,0
159.09682,159.67319,56,58,0
159.09682,159.67319,62,58,0
159.09682,159.67319,66,56,0
159.67319,160.10545,68,62,0
159.67319,160.10545,56,53,0
159.67319,160.10545,63,53,0
159.67319,160.10545,66,62,0
160.10545,160.24956,53,49,0
160.24956,161.52155,68,49,0
160.24956,161.52155,61,41,0
160.24956,161.52155,53,41,0
161.52155,162.14546,65,49,0
161.52155,162.14546,61,41,0
161.52155,162.14546,56,41,0
162.14546,162.76936,66,44,0
162.14546,162.76936,63,37,0
162.14546,162.76936,58,37,0
162.76936,164.04759,65,47,0
164.04759,165.35548,63,41,0
162.76936,165.35548,54,34,0
162.76936,165.35548,60,36,0
165.35548,166.01057,68,49,0
165.19649,166.01057,53,41,0
166.01057,166.66566,65,49,0
166.01057,166.66566,56,41,0
165.27599,166.66566,61,41,0
166.66566,166.97768,66,49,0
166.66566,166.97768,58,41,0
166.97768,167.30037,65,47,0
166.97768,167.30037,56,39,0
166.66566,167.30037,61,41,0
167.30037,167.61232,68,44,0
167.30037,167.61232,60,37,0
167.61232,167.93187,66,41,0
167.61232,167.93187,58,35,0
167.30037,167.93187,63,41,0
167.93187,169.2101,65,45,0
169.2101,170.4761,63,41,0
167.93187,170.4761,60,36,0
167.93187,170.4761,54,31,0
170.4761,171.11522,68,53,0
170.4761,171.11522,53,41,0
171.11522,171.75433,70,51,0
171.11522,171.75433,64,44,0
170.4761,171.75433,61,40,0
171.75433,172.37827,72,52,0
171.75433,172.37827,63,44,0
172.37827,172.84618,73,58,0
172.84618,173.00215,75,60,0
172.84618,173.00215,72,53,0
172.37827,173.00215,66,49,0
173.00215,173.62605,77,61,0
173.00215,173.62605,73,46,0
173.00215,173.62605,65,43,0
173.62605,174.26907,70,51,0
173.62605,174.26907,64,44,0
173.62605,174.26907,61,44,0
174.26907,174.81502,72,52,0
174.26907,174.81502,60,44,0
174.893,175.37537,73,58,0
175.37537,175.53946,75,60,0
174.81502,175.53946,58,56,0
174.26907,175.53946,63,44,0
175.53946,176.19585,77,63,0
175.53946,176.19585,65,53,0
176.19585,176.85223,75,60,0
175.53946,176.85223,72,53,0
176.85223,177.50186,73,63,0
176.19585,177.50186,65,53,0
176.85223,177.50186,61,53,0
176.85223,177.50186,70,63,0
177.50186,177.96979,72,63,0
177.50186,177.96979,68,53,0
177.50186,177.96979,64,53,0
177.96979,178.12576,70,57,0
177.96979,178.12576,65,57,0
178.12576,178.76877,68,61,0
178.12576,178.76877,65,56,0
178.12576,178.76877,59,51,0
178.76877,179.24141,66,59,0
178.76877,179.24141,54,49,0
178.76877,179.24141,58,49,0
178.76877,179.24141,63,59,0
179.24141,179.39896,65,56,0
179.24141,179.39896,61,56,0
179.24141,179.39896,56,47,0
179.39896,180.02914,61,59,0
179.39896,180.02914,58,49,0
179.39896,180.36615,63,59,0
180.36615,180.5413,64,60,0
180.02914,180.5413,60,53,0
180.02914,180.5413,54,47,0
180.71646,181.99467,80,72,0
180.62888,181.99467,73,60,0
180.5413,181.99467,65,55,0
181.99467,182.61858,77,60,0
181.99467,182.61858,73,49,0
181.99467,182.61858,68,49,0
182.61858,182.93814,68,39,0
182.61858,182.93814,65,34,0
182.93814,183.27066,78,55,0
182.93814,183.27066,75,41,0
182.93814,183.27066,70,41,0
183.27066,184.2171,77,68,0
184.2171,184.53667,75,55,0
183.27066,184.53667,72,42,0
183.27066,184.53667,66,33,0
184.53667,184.8486,70,58,0
184.8486,185.16055,68,52,0
185.16055,185.48169,61,61,0
185.48169,185.6488,63,55,0
185.6488,185.81592,65,62,0
185.81592,186.45503,80,68,0
185.81592,186.45503,65,55,0
186.45503,187.09415,77,62,0
186.45503,187.09415,68,49,0
185.81592,187.09415,73,57,0
187.09415,187.40608,78,66,0
187.09415,187.40608,70,55,0
187.40608,187.71803,77,55,0
187.40608,187.71803,68,46,0
187.09415,187.71803,73,57,0
187.71803,187.93108,77,57,0
187.71803,187.93108,68,48,0
187.93108,188.1441,80,55,0
187.93108,188.1441,72,46,0
188.1441,188.35715,78,55,0
188.1441,188.35715,70,46,0
188.35715,189.3036,77,61,0
189.3036,189.62315,75,60,0
188.35715,189.62315,72,36,0
188.35715,189.62315,66,32,0
189.62315,189.83112,70,60,0
189.83112,190.0391,68,51,0
190.0391,190.24706,70,51,0
190.24706,190.46114,68,58,0
190.46114,190.68192,61,53,0
190.68192,190.90936,63,53,0
190.90936,191.55162,68,61,0
191.55162,192.18454,82,68,0
190.90936,192.18454,73,58,0
190.90936,192.18454,80,73,0
191.55162,192.18454,70,57,0
192.18454,192.81744,84,73,0
192.18454,192.81744,72,61,0
192.81744,193.28537,85,75,0
192.81744,193.28537,73,68,0
193.28537,193.44672,87,73,0
192.18454,193.44672,80,61,0
192.18454,193.44672,78,61,0
193.28537,193.44672,75,70,0
193.44672,194.07962,89,78,0
194.07962,194.71252,70,61,0
193.44672,194.71252,80,66,0
193.44672,194.71252,77,66,0
194.07962,194.71252,82,73,0
194.71252,195.34544,78,66,0
194.71252,195.34544,72,66,0
194.71252,195.34544,84,78,0
194.71252,195.34544,80,66,0
195.34544,195.82686,73,66,0
195.34544,195.82686,85,79,0
195.82686,195.99182,87,77,0
195.82686,195.99182,75,64,0
195.99182,196.65167,89,81,0
195.99182,196.65167,77,70,0
195.99182,197.2947,87,74,0
195.99182,197.2947,84,66,0
196.65167,197.60814,78,66,0
196.65167,197.60814,90,78,0
197.60814,197.93082,89,77,0
197.60814,197.93082,77,64,0
197.93082,198.25351,88,75,0
197.93082,198.25351,76,63,0
198.25351,198.57619,89,75,0
197.2947,198.57619,85,74,0
197.2947,198.57619,82,74,0
198.25351,198.57619,77,63,0
198.57619,199.22156,80,72,0
198.57619,199.22156,92,85,0
198.57619,199.85446,90,71,0
198.57619,199.85446,87,57,0
199.22156,200.162,82,70,0
199.22156,200.162,94,84,0
200.162,200.47845,92,80,0
200.162,200.47845,80,67,0
199.85446,200.47845,89,81,0
200.47845,200.95314,90,84,0
200.47845,200.95314,78,70,0
200.95314,201.11137,77,66,0
200.95314,201.11137,89,78,0
200.47845,201.11137,82,62,0
201.11137,201.42332,92,86,0
201.11137,201.42332,80,73,0
201.42332,201.74287,90,72,0
201.42332,201.74287,78,60,0
201.11137,201.74287,82,73,0
201.74287,202.05632,89,72,0
201.74287,202.05632,77,59,0
202.05632,202.37746,86,72,0
202.05632,202.37746,74,60,0
201.74287,202.37746,82,53,0
202.37746,202.68939,77,69,0
202.37746,202.68939,89,81,0
202.68939,203.00896,75,60,0
202.68939,203.00896,87,71,0
202.37746,203.00896,82,61,0
203.00896,203.3209,70,61,0
203.00896,203.3209,82,72,0
203.3209,203.63286,73,56,0
203.3209,203.63286,85,67,0
203.00896,203.63286,76,53,0
203.63286,203.9448,82,80,0
203.63286,203.9448,70,66,0
203.9448,204.26593,68,61,0
203.9448,204.26593,80,73,0
203.63286,204.26593,77,64,0
204.26593,204.58707,61,61,0
204.26593,204.58707,66,61,0
204.58707,204.90819,78,74,0
204.58707,204.90819,66,62,0
204.26593,204.90819,73,73,0
204.90819,205.54578,75,80,0
204.90819,205.54578,61,67,0
204.90819,205.54578,66,67,0
204.90819,205.54578,73,67,0
205.54578,205.85477,77,75,0
205.54578,205.85477,65,59,0
205.85477,206.17122,78,70,0
205.85477,206.17122,66,60,0
205.54578,206.17122,72,51,0
206.17122,206.48317,82,77,0
206.17122,206.48317,70,60,0
206.48317,206.79962,81,70,0
206.48317,206.79962,69,50,0
206.17122,206.79962,73,46,0
206.79962,207.01372,80,77,0
206.79962,207.01372,68,64,0
206.79962,207.01372,73,53,0
207.01372,207.2278,61,60,0
207.2278,207.4419,78,70,0
207.2278,207.4419,66,60,0
207.01372,207.4419,73,70,0
207.4419,207.76302,75,80,0
207.4419,207.76302,63,66,0
207.76302,207.91826,77,68,0
207.76302,207.91826,65,57,0
207.91826,208.07352,75,63,0
207.4419,208.07352,73,66,0
207.4419,208.07352,66,66,0
207.91826,208.07352,63,53,0
208.07352,208.23329,74,73,0
208.07352,208.23329,62,61,0
208.23329,208.39307,75,68,0
208.23329,208.39307,63,57,0
208.39307,208.55766,77,73,0
208.39307,208.55766,65,61,0
208.55766,208.72227,78,69,0
208.55766,208.72227,66,58,0
208.07352,208.72227,72,61,0
208.72227,208.93324,79,83,0
208.72227,208.93324,67,70,0
208.93324,209.14525,80,79,0
208.93324,209.14525,68,66,0
208.72227,209.14525,73,70,0
209.14525,209.35828,89,77,0
209.14525,209.35828,77,69,0
209.35828,209.57132,87,82,0
209.35828,209.57132,75,70,0
209.57132,209.78436,85,73,0
209.57132,209.78436,73,62,0
209.35828,209.78436,78,70,0
209.78436,209.99739,66,68,0
209.78436,209.99739,78,80,0
209.78436,209.99739,73,64,0
209.99739,210.65579,73,69,0
209.99739,210.65579,63,69,0
210.65579,210.99174,72,61,0
210.65579,210.99174,66,61,0
209.99739,210.99174,68,69,0
209.99739,211.2437,75,82,0
211.2437,211.32768,73,73,0
211.32768,211.51117,73,85,0
211.32768,211.51117,65,72,0
211.51117,211.60292,70,73,0
211.51117,211.60292,63,62,0
211.69102,211.77913,63,62,0
211.69102,211.77913,70,73,0
211.86723,212.03566,70,75,0
211.86723,212.03566,63,62,0
212.03566,212.11987,68,71,0
212.20216,212.28447,78,74,0
212.20216,212.28447,72,62,0
212.36678,212.52861,78,75,0
212.36678,212.52861,72,63,0
212.52861,212.60954,77,74,0
212.52861,212.60954,73,62,0
212.6873,212.76506,82,74,0
212.6873,212.76506,75,62,0
212.84282,213.00249,75,64,0
212.84282,213.00249,82,78,0
213.00249,213.08232,80,73,0
213.16075,213.23918,84,62,0
213.16075,213.23918,90,73,0
213.31761,213.47626,90,78,0
213.31761,213.47626,84,64,0
213.47626,213.55557,89,73,0
213.47626,213.55557,85,62,0
213.63329,213.71098,75,62,0
213.63329,213.71098,82,73,0
213.7887,213.9441,82,75,0
213.7887,213.9441,75,62,0
213.9441,214.02182,80,72,0
214.09952,214.17723,78,74,0
214.09952,214.17723,72,62,0
214.25493,214.41034,72,62,0
214.25493,214.41034,78,75,0
214.41034,214.48805,77,71,0
214.41034,214.48805,73,60,0
214.56575,214.64346,63,62,0
214.56575,214.64346,70,74,0
214.72118,214.87659,70,78,0
214.72118,214.87659,63,64,0
214.87659,214.95428,68,74,0
215.03389,215.11348,66,74,0
215.03389,215.11348,60,62,0
215.19308,215.35707,66,78,0
215.19308,215.35707,60,64,0
215.35707,215.43907,61,56,0
215.35707,215.43907,65,67,0
215.52106,215.59952,64,49,0
215.52106,215.59952,69,59,0
215.67798,215.83415,64,51,0
215.67798,215.83415,69,62,0
215.83415,215.91223,68,58,0
215.83415,215.91223,63,49,0
215.99031,216.06839,78,52,0
215.99031,216.06839,72,44,0
216.14648,216.30264,78,55,0
216.14648,216.30264,72,46,0
216.30264,216.38072,77,52,0
216.30264,216.38072,73,44,0
216.45882,216.5369,81,52,0
216.45882,216.5369,76,44,0
216.61497,216.77113,76,46,0
216.61497,216.77113,81,55,0
216.77113,216.84923,80,51,0
216.77113,216.84923,75,41,0
216.9273,217.00539,90,46,0
216.9273,217.00539,84,39,0
217.08347,217.23964,90,49,0
217.08347,217.23964,84,40,0
217.23964,217.31772,89,46,0
217.23964,217.31772,85,39,0
217.3958,217.47388,76,47,0
217.3958,217.47388,81,55,0
217.55196,217.70813,81,59,0
217.55196,217.70813,76,49,0
217.70813,217.78621,75,45,0
217.70813,217.78621,80,56,0
217.8662,217.9462,78,56,0
217.8662,217.9462,72,47,0
218.02618,218.18854,78,59,0
218.02618,218.18854,72,49,0
218.18854,218.26971,77,55,0
218.18854,218.26971,73,47,0
218.35089,218.42897,64,47,0
218.35089,218.42897,69,56,0
218.50705,218.66815,69,59,0
218.50705,218.66815,64,49,0
218.66815,218.7487,63,45,0
218.66815,218.7487,68,56,0
218.83273,218.91678,66,62,0
218.83273,218.91678,60,52,0
218.83273,218.91678,63,52,0
219.00082,219.16318,66,59,0
219.00082,219.16318,60,49,0
219.00082,219.16318,63,49,0
219.16318,219.24435,67,49,0
219.16318,219.24435,60,41,0
219.16318,219.24435,64,42,0
219.32283,219.40132,72,56,0
219.32283,219.40132,66,47,0
219.32283,219.40132,62,49,0
219.47981,219.63904,62,49,0
219.47981,219.63904,72,59,0
219.47981,219.63904,66,49,0
219.63904,219.71866,71,48,0
219.63904,219.71866,67,41,0
219.63904,219.71866,62,42,0
219.79642,219.87418,77,56,0
219.79642,219.87418,65,47,0
219.79642,219.87418,67,47,0
219.79642,219.87418,71,47,0
219.95195,220.10747,71,49,0
219.95195,220.10747,65,49,0
219.95195,220.10747,67,49,0
219.95195,220.10747,77,59,0
220.10747,220.18523,76,52,0
220.10747,220.18523,72,44,0
220.10747,220.18523,67,46,0
220.26299,220.34074,72,49,0
220.26299,220.34074,84,56,0
220.26299,220.34074,74,49,0
220.26299,220.34074,78,47,0
220.4185,220.57402,84,59,0
220.4185,220.57402,72,49,0
220.4185,220.57402,74,49,0
220.4185,220.57402,78,49,0
220.57402,220.6518,71,46,0
220.57402,220.6518,83,51,0
220.57402,220.6518,79,41,0
220.73138,220.81099,89,55,0
220.73138,220.81099,77,49,0
220.73138,220.81099,79,49,0
220.73138,220.81099,83,47,0
220.89058,221.04979,89,59,0
220.89058,221.04979,77,49,0
220.89058,221.04979,79,49,0
220.89058,221.04979,83,49,0
221.04979,221.20898,70,45,0
221.04979,221.20898,74,63,0
221.20898,221.3676,80,80,0
221.20898,221.3676,71,66,0
221.3676,221.5249,77,74,0
221.3676,221.5249,73,68,0
221.5249,221.68108,83,84,0
221.5249,221.68108,74,71,0
221.68108,221.83615,80,79,0
221.68108,221.83615,76,66,0
221.83615,221.98958,86,89,0
221.83615,221.98958,77,74,0
221.98958,222.14427,79,72,0
221.98958,222.14427,83,85,0
222.14427,222.30026,80,78,0
222.14427,222.30026,89,92,0
222.30026,222.45738,86,86,0
222.30026,222.45738,82,73,0
222.45738,222.62265,92,94,0
222.45738,222.62265,83,79,0
222.62265,222.79169,95,90,0
222.62265,222.79169,83,77,0
222.79169,222.95808,96,101,0
222.79169,222.95808,84,85,0
222.95808,223.1209,72,77,0
222.95808,223.1209,67,64,0
222.95808,223.1209,60,64,0
223.1209,223.28207,72,77,0
223.1209,223.28207,60,64,0
223.1209,223.28207,67,64,0
223.28207,223.4452,72,77,0
223.28207,223.4452,68,55,0
223.28207,223.4452,60,55,0
223.4452,223.60368,72,75,0
223.4452,223.60368,68,63,0
223.4452,223.60368,60,63,0
223.60368,223.76443,72,75,0
223.60368,223.76443,68,63,0
223.60368,223.76443,60,63,0
223.76443,223.92679,68,57,0
223.76443,223.92679,60,57,0
223.76443,223.92679,72,80,0
223.92679,224.08452,72,77,0
223.92679,224.08452,68,64,0
223.92679,224.08452,60,64,0
224.08452,224.24527,72,77,0
224.08452,224.24527,68,64,0
224.08452,224.24527,60,64,0
224.24527,224.40451,72,81,0
224.24527,224.40451,68,68,0
224.24527,224.40451,60,68,0
224.40451,224.55717,68,67,0
224.40451,224.55717,60,67,0
224.40451,224.55717,72,79,0
224.55717,224.71442,72,79,0
224.55717,224.71442,68,67,0
224.55717,224.71442,60,67,0
224.71442,224.79639,72,80,0
224.71442,224.79639,68,67,0
224.71442,224.79639,60,67,0
224.87605,224.95346,72,81,0
224.87605,224.95346,69,68,0
224.87605,224.95346,60,68,0
225.03085,225.11122,72,82,0
225.03085,225.11122,69,69,0
225.03085,225.11122,60,69,0
225.1916,225.26973,72,83,0
225.1916,225.26973,60,71,0
225.1916,225.26973,69,71,0
225.34784,225.42381,73,84,0
225.34784,225.42381,69,71,0
225.34784,225.42381,61,71,0
225.4998,225.5798,73,85,0
225.4998,225.5798,69,71,0
225.4998,225.5798,61,71,0
225.65979,225.74097,73,86,0
225.65979,225.74097,69,72,0
225.65979,225.74097,61,72,0
225.82214,225.89883,69,73,0
225.82214,225.89883,61,73,0
225.82214,225.89883,73,88,0
225.97551,226.05475,61,75,0
225.97551,226.05475,73,90,0
225.97551,226.05475,69,75,0
226.13397,226.21321,69,77,0
226.13397,226.21321,73,91,0
226.13397,226.21321,61,77,0
226.29243,226.36783,68,78,0
226.29243,226.36783,73,92,0
226.29243,226.36783,61,78,0
226.44362,226.51987,73,93,0
226.44362,226.51987,67,79,0
226.44362,226.51987,61,79,0
226.59663,226.68727,68,86,0
226.59663,226.68727,73,102,0
226.59663,226.68727,61,73,0
226.7729,226.93419,77,95,0
226.7729,226.93419,68,80,0
226.7729,226.93419,65,68,0
226.93419,227.1012,77,95,0
226.93419,227.1012,68,80,0
226.93419,227.1012,65,68,0
227.1012,227.26343,77,101,0
227.1012,227.26343,68,85,0
227.1012,227.26343,65,72,0
227.26343,227.42644,75,95,0
227.26343,227.42644,63,68,0
227.42644,227.59024,61,68,0
227.42644,227.59024,73,95,0
227.76027,227.92229,77,95,0
227.76027,227.92229,70,80,0
227.76027,227.92229,65,68,0
227.92229,228.0893,77,95,0
227.92229,228.0893,70,80,0
227.92229,228.0893,65,68,0
228.0893,228.2531,77,101,0
228.0893,228.2531,70,85,0
228.0893,228.2531,65,72,0
228.2531,228.41974,75,95,0
228.2531,228.41974,63,68,0
228.41974,228.58923,61,68,0
228.41974,228.58923,73,95,0
228.7652,228.92793,77,95,0
228.7652,228.92793,68,80,0
228.7652,228.92793,65,68,0
228.92793,229.09573,77,95,0
228.92793,229.09573,68,80,0
228.92793,229.09573,65,68,0
229.09573,229.25874,77,101,0
229.09573,229.25874,68,85,0
229.09573,229.25874,65,72,0
229.25874,229.42175,75,95,0
229.25874,229.42175,63,68,0
229.42175,229.58478,61,68,0
229.42175,229.58478,73,95,0
229.76418,229.9375,77,95,0
229.76418,229.9375,67,80,0
229.76418,229.9375,65,68,0
229.9375,230.11504,77,95,0
229.9375,230.11504,67,80,0
229.9375,230.11504,65,68,0
230.11504,230.29698,77,101,0
230.11504,230.29698,67,85,0
230.11504,230.29698,65,72,0
230.29698,230.48618,75,95,0
230.29698,230.48618,63,68,0
230.48618,230.67789,61,68,0
230.48618,230.67789,73,95,0
230.67789,232.74559,61,95,0
230.67789,232.74559,51,84,0
230.67789,232.74559,55,84,0
230.67789,232.74559,63,101,0
232.74559,234.87605,65,95,0
234.87605,234.96382,66,86,0
232.74559,234.96382,60,80,0
232.74559,234.96382,54,80,0
234.96382,236.0716,66,93,0
234.96382,236.0716,61,79,0
234.96382,236.0716,54,79,0
238.38945,238.96637,69,47,0
238.96637,239.5245,70,44,0
238.38945,239.5245,60,31,0
239.5245,239.95105,71,47,0
238.38945,239.95105,62,32,0
239.95105,240.09323,62,40,0
240.09323,240.65398,62,44,0
239.5245,240.65398,59,39,0
247.16278,247.72353,71,49,0
247.72353,248.27399,72,47,0
247.16278,248.27399,62,41,0
248.27399,248.69453,73,49,0
247.16278,248.69453,64,41,0
248.69453,248.83473,65,44,0
248.83473,250.49199,65,47,0
248.27399,250.49199,61,41,0
250.49199,250.91853,73,56,0
250.49199,250.91853,65,40,0
250.91853,251.05742,66,55,0
251.05742,251.61298,66,58,0
250.49199,251.61298,61,39,0
251.61298,252.03952,74,61,0
251.61298,252.03952,66,51,0
252.03952,252.17905,67,57,0
252.17905,252.7372,67,60,0
251.61298,252.7372,62,51,0
252.7372,253.58488,75,75,0
252.7372,253.85109,65,58,0
252.7372,253.85109,67,58,0
253.5733,253.85109,74,68,0
253.85109,254.28494,74,73,0
253.85109,254.40936,63,54,0
253.85109,254.40936,67,58,0
254.27362,254.83191,72,51,0
254.83191,254.98341,70,61,0
254.40936,254.98341,65,44,0
254.98341,255.42365,70,68,0
255.41145,255.5578,68,55,0
255.5578,255.75455,68,61,0
255.74298,255.94272,72,62,0
254.98341,256.12128,60,50,0
254.98341,256.12128,63,58,0
255.9308,256.1333,70,61,0
256.12128,256.71024,68,64,0
256.6982,256.98666,67,58,0
256.98666,257.27515,79,70,0
256.98666,257.27515,67,67,0
256.12128,257.27515,59,49,0
257.27515,257.4109,70,64,0
257.27515,257.4109,58,55,0
257.4109,257.54663,69,58,0
257.4109,257.54663,61,49,0
257.68616,257.82568,67,61,0
257.68616,257.82568,57,51,0
257.82568,257.96207,66,67,0
257.82568,257.96207,62,56,0
257.96207,258.09842,69,61,0
257.96207,258.09842,57,51,0
258.23862,258.37878,72,63,0
258.23862,258.37878,60,52,0
258.37878,258.51334,72,68,0
258.37878,258.51334,60,57,0
258.51334,258.64786,71,63,0
258.51334,258.64786,63,52,0
258.7861,258.92435,69,62,0
258.7861,258.92435,59,52,0
258.92435,259.05887,68,68,0
258.92435,259.05887,64,57,0
259.05887,259.19342,71,62,0
259.05887,259.19342,59,52,0
259.33167,259.4699,74,64,0
259.33167,259.4699,62,53,0
259.4699,259.60443,74,70,0
259.4699,259.60443,62,59,0
259.60443,259.73895,73,64,0
259.60443,259.73895,65,55,0
259.87723,260.01547,71,62,0
259.87723,260.01547,61,52,0
260.01547,260.19482,70,64,0
260.01547,260.19482,66,55,0
260.19482,260.37753,73,68,0
260.19482,260.37753,61,58,0
260.37753,260.5636,73,72,0
260.37753,260.5636,70,61,0
260.5636,260.7452,76,75,0
260.5636,260.7452,64,62,0
260.7452,260.92932,76,78,0
260.7452,260.92932,73,66,0
260.92932,261.11603,82,81,0
260.92932,261.11603,70,67,0
261.11603,261.3054,85,86,0
261.11603,261.3054,80,72,0
261.3054,261.49747,88,84,0
261.3054,261.49747,76,75,0
261.49747,261.69354,100,86,0
261.49747,261.69354,88,77,0
261.69354,262.55414,72,82,0
262.54224,262.82794,58,52,0
261.69354,262.82794,60,61,0
261.69354,262.82794,64,69,0
262.54224,262.82794,70,72,0
262.82794,263.3709,70,77,0
262.82794,263.3709,58,64,0
263.3709,263.79346,68,73,0
263.3709,263.79346,56,55,0
263.79346,263.94498,68,67,0
262.82794,263.94498,60,53,0
262.82794,263.94498,65,56,0
263.79346,263.94498,56,49,0
263.94498,264.36066,68,70,0
263.94498,264.36066,56,52,0
264.36066,264.50217,67,60,0
264.36066,264.50217,55,58,0
263.94498,264.50217,61,58,0
264.50217,264.6382,55,58,0
264.50217,264.69983,67,68,0
263.94498,264.87692,64,61,0
264.6882,264.87692,53,44,0
264.6882,264.8889,65,63,0
264.87692,265.06833,64,60,0
264.87692,265.06833,52,30,0
265.06833,265.64523,55,45,0
265.06833,265.65726,67,71,0
265.64523,265.93372,66,62,0
265.64523,265.93372,54,42,0
265.93372,266.21277,81,68,0
265.93372,266.21277,69,59,0
265.06833,266.21277,63,58,0
266.21277,266.3485,72,70,0
266.21277,266.3485,60,60,0
266.3485,266.48425,71,63,0
266.3485,266.48425,66,53,0
266.62445,266.76465,69,67,0
266.62445,266.76465,59,56,0
266.76465,266.90225,68,73,0
266.76465,266.90225,64,61,0
266.90225,267.03986,71,67,0
266.90225,267.03986,59,56,0
267.1794,267.31894,74,69,0
267.1794,267.31894,62,57,0
267.31894,267.45407,74,74,0
267.31894,267.45407,62,62,0
267.45407,267.5892,73,69,0
267.45407,267.5892,68,57,0
267.72684,267.86444,71,68,0
267.72684,267.86444,61,57,0
267.86444,267.99835,70,74,0
267.86444,267.99835,66,62,0
267.99835,268.1323,73,68,0
267.99835,268.1323,61,57,0
268.2699,268.40753,76,70,0
268.2699,268.40753,64,58,0
268.40753,268.54266,76,77,0
268.40753,268.54266,64,64,0
268.54266,268.6778,75,70,0
268.54266,268.6778,70,60,0
268.818,268.95816,73,68,0
268.818,268.95816,63,57,0
268.95816,269.14508,72,70,0
268.95816,269.14508,68,60,0
269.14508,269.332,75,74,0
269.14508,269.332,63,63,0
269.332,269.5185,75,79,0
269.332,269.5185,72,67,0
269.5185,269.70474,78,82,0
269.5185,269.70474,66,68,0
269.70474,269.89343,78,85,0
269.70474,269.89343,75,71,0
269.89343,270.0846,81,89,0
269.89343,270.0846,69,73,0
270.0846,270.27808,81,94,0
270.0846,270.27808,78,80,0
270.27808,270.47415,86,97,0
270.27808,270.47415,74,82,0
270.47415,270.6729,90,104,0
270.47415,270.6729,78,85,0
270.6729,270.80847,91,104,0
270.6729,270.80847,86,88,0
270.80847,270.944,82,93,0
270.80847,270.944,79,79,0
271.08347,271.22293,81,80,0
271.08347,271.22293,84,94,0
271.22293,271.35974,86,100,0
271.22293,271.35974,82,84,0
271.35974,271.49658,79,94,0
271.35974,271.49658,74,80,0
271.76892,271.90448,86,104,0
271.76892,271.90448,82,88,0
271.90448,272.04004,79,93,0
271.90448,272.04004,74,79,0
272.17947,272.31894,78,75,0
272.17947,272.31894,81,89,0
272.31894,272.45578,82,94,0
272.31894,272.45578,79,80,0
272.45578,272.5926,91,89,0
272.45578,272.5926,86,75,0
272.8715,273.00705,89,101,0
272.8715,273.00705,85,84,0
273.00705,273.1426,82,90,0
273.00705,273.1426,77,75,0
273.28207,273.4215,81,77,0
273.28207,273.4215,84,91,0
273.4215,273.55835,85,96,0
273.4215,273.55835,82,81,0
273.55835,273.69516,77,91,0
273.55835,273.69516,73,77,0
273.96753,274.10306,89,99,0
273.96753,274.10306,85,82,0
274.10306,274.23862,82,90,0
274.10306,274.23862,77,75,0
274.37808,274.51755,81,72,0
274.37808,274.51755,84,85,0
274.51755,274.65436,85,91,0
274.51755,274.65436,82,77,0
274.65436,274.79117,94,85,0
274.65436,274.79117,89,72,0
275.0701,275.20566,89,104,0
275.0701,275.20566,84,88,0
275.20566,275.3412,80,93,0
275.20566,275.3412,77,79,0
275.48065,275.62012,79,77,0
275.48065,275.62012,82,91,0
275.62012,275.75693,84,96,0
275.62012,275.75693,80,77,0
275.75693,275.89377,77,91,0
275.75693,275.89377,72,77,0
276.1661,276.30167,84,104,0
276.1661,276.30167,80,88,0
276.30167,276.43723,77,93,0
276.30167,276.43723,72,79,0
276.57666,276.71613,76,75,0
276.57666,276.71613,79,89,0
276.71613,276.85297,80,94,0
276.71613,276.85297,77,80,0
276.85297,276.98978,89,89,0
276.85297,276.98978,84,75,0
277.26868,277.40424,88,107,0
277.26868,277.40424,84,90,0
277.40424,277.5398,80,93,0
277.40424,277.5398,76,79,0
277.67926,277.8187,79,77,0
277.67926,277.8187,82,91,0
277.8187,277.95554,84,94,0
277.8187,277.95554,80,78,0
277.95554,278.09235,76,91,0
277.95554,278.09235,72,77,0
278.36472,278.50024,84,104,0
278.36472,278.50024,80,88,0
278.50024,278.6358,76,93,0
278.50024,278.6358,72,79,0
278.77527,278.91473,76,75,0
278.77527,278.91473,79,89,0
278.91473,279.05154,80,94,0
278.91473,279.05154,76,80,0
279.05154,279.1884,88,89,0
279.05154,279.1884,84,75,0
279.4673,279.60284,88,104,0
279.4673,279.60284,83,88,0
279.60284,279.73837,79,93,0
279.60284,279.73837,76,79,0
279.87784,280.0173,78,77,0
279.87784,280.0173,81,91,0
280.0173,280.1541,83,96,0
280.0173,280.1541,79,81,0
280.1541,280.29095,76,91,0
280.1541,280.29095,71,77,0
280.5633,280.69885,83,104,0
280.5633,280.69885,79,88,0
280.69885,280.8344,76,93,0
280.69885,280.8344,71,79,0
280.97385,281.1133,75,75,0
280.97385,281.1133,78,89,0
281.1133,281.25015,79,94,0
281.1133,281.25015,76,80,0
281.25015,281.38696,88,89,0
281.25015,281.38696,83,75,0
281.6659,281.80142,86,104,0
281.6659,281.80142,83,88,0
281.80142,281.93698,79,93,0
281.80142,281.93698,74,79,0
282.07645,282.21588,78,77,0
282.07645,282.21588,81,91,0
282.21588,282.35272,83,96,0
282.21588,282.35272,79,81,0
282.35272,282.48953,74,91,0
282.35272,282.48953,71,77,0
282.7619,282.89746,86,104,0
282.7619,282.89746,83,88,0
282.89746,283.033,79,93,0
282.89746,283.033,74,79,0
283.17245,283.31192,78,75,0
283.17245,283.31192,81,89,0
283.31192,283.44873,83,94,0
283.31192,283.44873,79,80,0
283.44873,283.58557,91,89,0
283.44873,283.58557,86,75,0
283.86447,284.00003,86,104,0
283.86447,284.00003,81,88,0
284.00003,284.13556,78,93,0
284.00003,284.13556,74,79,0
284.27502,284.4145,76,77,0
284.27502,284.4145,79,91,0
284.4145,284.5513,81,96,0
284.4145,284.5513,78,81,0
284.5513,284.68814,74,91,0
284.5513,284.68814,69,77,0
284.96048,285.09604,81,104,0
284.96048,285.09604,77,88,0
285.09604,285.2316,74,93,0
285.09604,285.2316,69,79,0
285.37106,285.5105,73,75,0
285.37106,285.5105,76,89,0
285.5105,285.64734,77,94,0
285.5105,285.64734,74,80,0
285.64734,285.78415,86,89,0
285.64734,285.78415,81,75,0
286.06308,286.2438,89,92,0
286.06308,286.2438,84,78,0
286.06308,286.2438,81,78,0
286.2438,286.42712,78,86,0
286.42712,286.61307,77,75,0
286.42712,286.61307,84,90,0
286.42712,286.61307,81,75,0
286.61307,286.7955,72,77,0
286.61307,286.7955,77,83,0
286.7955,286.9793,81,91,0
286.7955,286.9793,77,77,0
286.7955,286.9793,72,77,0
286.9793,287.16452,69,82,0
287.16452,287.35056,77,92,0
287.16452,287.35056,72,78,0
287.16452,287.35056,69,78,0
287.35056,287.53882,66,86,0
287.53882,287.72928,65,71,0
287.53882,287.72928,72,85,0
287.53882,287.72928,69,71,0
287.72928,287.9145,60,78,0
287.9145,288.09833,65,81,0
287.9145,288.09833,60,69,0
287.9145,288.09833,57,69,0
288.09833,288.28183,53,73,0
288.09833,288.28183,65,73,0
288.28183,288.41864,66,86,0
288.28183,288.41864,54,73,0
288.41864,288.55743,63,69,0
288.55743,288.69824,61,68,0
288.69824,288.8488,59,59,0
288.8488,288.98495,71,68,0
288.8488,288.98495,66,57,0
288.98495,289.12115,63,62,0
288.98495,289.12115,59,52,0
289.26196,289.40277,64,66,0
289.26196,289.40277,61,55,0
289.40277,289.53897,63,58,0
289.40277,289.53897,66,69,0
289.53897,289.67514,71,56,0
289.53897,289.67514,75,67,0
289.9554,290.09158,78,72,0
289.9554,290.09158,75,60,0
290.09158,290.22775,71,66,0
290.09158,290.22775,66,55,0
290.36722,290.50668,73,70,0
290.36722,290.50668,70,59,0
290.50668,290.64,75,74,0
290.50668,290.64,71,62,0
290.64,290.77335,78,58,0
290.64,290.77335,83,70,0
291.0436,291.1752,87,79,0
291.0436,291.1752,83,66,0
291.1752,291.30676,78,74,0
291.1752,291.30676,75,62,0
291.44128,291.57584,82,75,0
291.44128,291.57584,76,64,0
291.57584,291.70682,83,80,0
291.57584,291.70682,78,68,0
291.70682,291.8402,87,63,0
291.70682,291.8402,90,75,0
292.11786,292.3064,82,89,0
292.11786,292.3064,79,74,0
292.3064,292.48904,91,79,0
292.3064,292.48904,85,67,0
292.3064,292.48904,79,67,0
292.48904,292.6717,91,79,0
292.48904,292.6717,85,67,0
292.48904,292.6717,79,67,0
292.6717,292.80786,91,85,0
292.6717,292.80786,83,72,0
292.6717,292.80786,79,72,0
292.80786,292.94403,90,79,0
292.80786,292.94403,78,67,0
293.22202,293.3582,71,68,0
293.22202,293.3582,66,57,0
293.3582,293.49435,63,62,0
293.3582,293.49435,59,52,0
293.6352,293.776,64,66,0
293.6352,293.776,61,55,0
293.776,293.91217,63,58,0
293.776,293.91217,66,69,0
293.91217,294.04834,71,56,0
293.91217,294.04834,75,67,0
294.3286,294.4648,78,72,0
294.3286,294.4648,75,60,0
294.4648,294.60098,71,66,0
294.4648,294.60098,66,55,0
294.74045,294.87988,73,70,0
294.74045,294.87988,70,59,0
294.87988,295.015,75,74,0
294.87988,295.015,71,62,0
295.015,295.15018,78,58,0
295.015,295.15018,83,70,0
295.42413,295.5563,87,79,0
295.42413,295.5563,83,66,0
295.5563,295.68845,78,74,0
295.5563,295.68845,75,62,0
295.82358,295.9587,82,75,0
295.82358,295.9587,76,64,0
295.9587,296.0903,83,80,0
295.9587,296.0903,78,68,0
296.0903,296.22406,87,63,0
296.0903,296.22406,90,75,0
296.5017,296.68777,82,89,0
296.5017,296.68777,79,74,0
296.68777,296.87167,91,79,0
296.68777,296.87167,85,67,0
296.68777,296.87167,79,67,0
296.87167,297.05603,91,79,0
296.87167,297.05603,85,67,0
296.87167,297.05603,79,67,0
297.05603,297.23758,92,85,0
297.05603,297.23758,84,85,0
297.05603,297.23758,80,85,0
297.23758,297.43707,93,80,0
297.23758,297.43707,87,80,0
297.23758,297.43707,81,80,0
297.43707,297.65283,70,66,0
297.43707,297.65283,58,56,0
297.65283,297.84988,69,58,0
297.65283,297.84988,57,49,0
297.84988,298.05536,66,61,0
297.84988,298.05536,63,52,0
298.05536,298.2524,73,70,0
298.05536,298.2524,61,58,0
298.2524,298.44943,72,63,0
298.2524,298.44943,60,53,0
298.44943,298.65665,66,63,0
298.44943,298.65665,63,53,0
298.65665,298.8537,70,72,0
298.65665,298.8537,58,60,0
298.8537,299.05075,69,64,0
298.8537,299.05075,57,55,0
299.05075,299.2574,66,68,0
299.05075,299.2574,63,57,0
299.2574,299.45444,73,74,0
299.2574,299.45444,61,62,0
299.45444,299.65146,72,68,0
299.45444,299.65146,60,57,0
299.65146,299.8581,66,71,0
299.65146,299.8581,63,60,0
299.8581,300.05515,78,79,0
299.8581,300.05515,66,66,0
300.05515,300.2522,77,70,0
300.05515,300.2522,65,58,0
300.2522,300.4571,75,72,0
300.2522,300.4571,72,61,0
300.4571,300.6561,82,80,0
300.4571,300.6561,70,67,0
300.6561,300.85315,81,73,0
300.6561,300.85315,69,61,0
300.85315,301.05637,78,75,0
300.85315,301.05637,75,63,0
301.05637,301.25342,85,85,0
301.05637,301.25342,73,72,0
301.25342,301.45047,72,63,0
301.25342,301.45047,84,75,0
301.45047,301.65372,75,68,0
301.45047,301.65372,78,81,0
301.65372,302.04974,78,74,0
301.65372,302.04974,90,89,0
302.04974,302.2508,89,75,0
302.04974,302.2508,84,63,0
302.2508,302.45383,88,74,0
302.2508,302.45383,78,62,0
302.45383,302.65686,87,77,0
302.45383,302.65686,84,64,0
302.65686,302.85992,86,73,0
302.65686,302.85992,78,62,0
302.85992,303.06296,85,70,0
302.85992,303.06296,81,58,0
303.06296,303.26602,84,73,0
303.06296,303.26602,75,62,0
303.26602,303.46906,83,68,0
303.26602,303.46906,78,58,0
303.46906,303.6721,82,66,0
303.46906,303.6721,75,55,0
303.6721,303.87515,81,69,0
303.6721,303.87515,78,58,0
303.87515,304.0782,80,63,0
303.87515,304.0782,72,53,0
304.0782,304.28125,75,53,0
304.0782,304.28125,79,63,0
304.28125,304.48248,78,62,0
304.28125,304.48248,69,52,0
304.48248,304.6844,77,59,0
304.48248,304.6844,72,49,0
304.6844,304.8873,76,59,0
304.6844,304.8873,69,49,0
304.8873,305.0914,75,59,0
304.8873,305.0914,72,49,0
305.0914,305.2965,74,53,0
305.0914,305.2965,63,45,0
305.2965,305.50284,73,53,0
305.2965,305.50284,69,46,0
305.50284,305.71008,72,53,0
305.50284,305.71008,63,53,0
305.71008,305.91736,71,49,0
305.71008,305.91736,69,49,0
305.91736,306.1246,74,49,0
305.91736,306.1246,63,49,0
306.1246,306.34158,72,52,0
306.1246,306.34158,69,52,0
306.34158,306.5671,79,53,0
306.34158,306.5671,69,53,0
306.5671,306.72125,77,49,0
306.5671,306.72125,75,49,0
306.72125,306.82993,62,39,0
306.82993,308.10315,77,49,0
306.82993,308.10315,70,41,0
306.82993,308.10315,62,41,0
308.10315,308.7276,74,49,0
308.10315,308.7276,70,41,0
308.10315,308.7276,65,41,0
308.7276,309.352,75,44,0
308.7276,309.352,72,37,0
308.7276,309.352,67,37,0
309.352,310.63147,74,47,0
310.63147,311.93335,72,41,0
309.352,311.93335,63,39,0
311.93335,312.58902,77,49,0
311.93335,312.58902,70,41,0
311.93335,312.58902,62,41,0
312.58902,313.2447,74,49,0
312.58902,313.2447,65,41,0
312.58902,313.2447,70,41,0
313.2447,313.55695,75,49,0
313.2447,313.55695,67,41,0
313.55695,313.87994,74,47,0
313.55695,313.87994,65,39,0
313.2447,313.87994,70,41,0
313.87994,314.19217,77,44,0
313.87994,314.19217,68,37,0
313.87994,314.19217,71,37,0
314.19217,314.51202,75,41,0
314.19217,314.51202,67,35,0
314.19217,314.51202,72,35,0
314.51202,315.79147,74,45,0
315.79147,317.05862,72,41,0
314.51202,317.05862,69,36,0
314.51202,317.05862,63,31,0
317.05862,317.69836,77,53,0
317.05862,317.69836,62,42,0
317.05862,317.69836,70,40,0
317.69836,318.33807,79,51,0
317.69836,318.33807,70,40,0
317.69836,318.33807,67,37,0
318.33807,318.96252,81,52,0
318.33807,318.96252,69,44,0
318.96252,319.43085,82,58,0
318.96252,319.43085,70,51,0
319.43085,319.58694,84,60,0
318.33807,319.58694,75,44,0
319.43085,319.58694,72,53,0
319.43085,319.58694,81,53,0
319.58694,320.21136,86,61,0
319.58694,320.21136,82,51,0
319.58694,320.21136,74,48,0
320.21136,320.86703,79,51,0
320.21136,320.86703,67,44,0
320.21136,320.86703,70,44,0
320.21136,320.86703,73,44,0
320.86703,321.41345,81,52,0
320.86703,321.41345,69,44,0
320.86703,321.4915,72,44,0
321.45248,321.4915,72,56,0
321.4915,321.96286,82,58,0
321.96286,322.122,84,60,0
321.41345,322.122,67,56,0
322.122,322.76627,86,63,0
322.122,322.76627,81,53,0
322.122,322.76627,74,53,0
322.76627,323.41052,84,60,0
322.76627,323.41052,72,50,0
322.76627,323.41052,81,53,0
322.76627,323.41052,74,53,0
323.41052,324.05478,82,63,0
323.41052,324.05478,74,53,0
323.41052,324.05478,70,53,0
323.41052,324.05478,79,63,0
324.05478,324.5231,81,63,0
324.05478,324.5231,77,53,0
324.05478,324.5231,73,53,0
324.5231,324.6792,79,57,0
324.5231,324.6792,74,57,0
324.5231,324.6792,67,54,0
324.6792,325.31894,77,61,0
324.6792,325.31894,65,51,0
324.6792,325.31894,67,51,0
324.6792,325.31894,74,56,0
325.31894,325.78723,75,59,0
325.31894,325.78723,63,49,0
325.31894,325.78723,67,49,0
325.31894,325.78723,72,59,0
325.78723,325.94336,74,56,0
325.78723,325.94336,70,56,0
325.78723,325.94336,66,47,0
325.94336,326.56778,70,59,0
325.94336,326.56778,67,49,0
326.56778,326.90057,69,49,0
326.56778,326.90057,65,45,0
326.90057,327.25122,67,50,0
325.94336,327.25122,60,52,0
325.94336,327.25122,72,59,0
326.90057,327.25122,63,43,0
327.25122,328.53067,77,64,0
327.25122,328.53067,70,49,0
327.25122,328.53067,62,45,0
328.53067,329.1551,74,60,0
328.53067,329.1551,70,49,0
328.53067,329.1551,65,49,0
329.1551,329.47495,65,39,0
329.1551,329.47495,62,34,0
329.47495,329.80777,75,55,0
329.47495,329.80777,72,41,0
329.47495,329.80777,67,41,0
329.80777,330.75504,74,68,0
330.75504,331.0749,72,55,0
329.80777,331.0749,69,42,0
329.80777,331.0749,63,35,0
331.0749,331.38712,67,58,0
331.38712,331.6993,65,52,0
331.6993,332.02072,58,61,0
332.02072,332.3524,60,55,0
332.3524,332.99213,77,68,0
332.3524,332.99213,62,55,0
332.99213,333.63184,74,62,0
332.99213,333.63184,65,49,0
332.3524,333.63184,70,54,0
333.63184,333.94406,75,66,0
333.63184,333.94406,67,55,0
333.94406,334.25626,74,55,0
333.94406,334.25626,65,46,0
334.25626,334.4695,74,57,0
334.25626,334.4695,65,48,0
334.4695,334.68274,77,55,0
334.4695,334.68274,69,46,0
334.68274,334.896,75,55,0
334.68274,334.896,67,46,0
333.63184,334.896,70,57,0
334.896,335.84326,74,64,0
335.84326,336.16312,72,58,0
334.896,336.16312,69,41,0
334.896,336.16312,63,42,0
336.16312,336.37128,67,60,0
336.37128,336.5794,65,51,0
336.5794,336.78754,67,51,0
336.78754,337.0018,65,58,0
337.0018,337.22278,58,53,0
337.22278,337.36508,60,53,0
337.45047,338.0933,77,73,0
337.36508,338.0933,62,51,0
338.0933,338.7268,79,68,0
338.0933,338.7268,67,57,0
337.40778,338.7268,70,61,0
338.7268,339.36032,81,73,0
338.7268,339.36032,69,57,0
339.36032,339.8286,82,75,0
339.36032,339.8286,70,72,0
339.8286,339.9901,84,73,0
338.7268,339.9901,75,56,0
338.7268,339.9901,77,61,0
338.7268,339.9901,77,56,0
339.8286,339.9901,72,70,0
339.9901,340.62363,86,80,0
339.9901,340.62363,77,68,0
340.62363,341.25714,67,61,0
340.62363,341.25714,79,73,0
339.9901,341.25714,74,66,0
341.25714,341.89066,81,78,0
341.25714,341.89066,69,66,0
341.89066,342.36972,70,68,0
341.89066,342.36972,82,81,0
342.36972,342.532,84,77,0
341.25714,342.532,75,66,0
341.25714,342.532,77,66,0
342.36972,342.532,72,64,0
342.532,343.18124,86,88,0
342.532,343.18124,74,73,0
342.532,343.81784,84,74,0
342.532,343.81784,81,66,0
343.18124,344.13156,75,78,0
343.18124,344.13156,87,91,0
344.13156,344.45456,86,80,0
344.13156,344.45456,74,67,0
344.45456,344.77756,85,79,0
344.45456,344.77756,73,66,0
344.77756,345.10056,86,79,0
343.81784,345.10056,82,74,0
343.81784,345.10056,79,74,0
344.77756,345.10056,74,66,0
345.10056,345.74655,77,72,0
345.10056,345.74655,89,90,0
345.10056,346.38007,81,57,0
345.10056,346.38007,87,71,0
345.10056,346.38007,84,57,0
345.74655,346.6879,79,70,0
345.74655,346.6879,91,84,0
346.6879,347.00467,89,77,0
346.6879,347.00467,77,64,0
346.38007,347.00467,86,85,0
347.00467,347.4798,87,84,0
347.00467,347.4798,75,70,0
347.4798,347.63818,74,66,0
347.4798,347.63818,86,78,0
347.00467,347.63818,79,62,0
347.63818,347.95038,89,88,0
347.63818,347.95038,77,74,0
347.95038,348.27023,87,76,0
347.95038,348.27023,75,62,0
347.63818,348.27023,79,67,0
348.27023,348.58395,86,73,0
348.27023,348.58395,74,61,0
348.58395,348.90536,83,68,0
348.58395,348.90536,71,55,0
348.27023,348.90536,79,59,0
348.90536,349.2103,74,67,0
348.90536,349.2103,86,79,0
349.2103,349.52435,72,58,0
349.2103,349.52435,84,69,0
348.90536,349.52435,79,59,0
349.52435,349.83078,67,61,0
349.52435,349.83078,79,72,0
349.52435,350.14023,73,57,0
349.83078,350.4437,70,56,0
349.83078,350.4437,82,67,0
350.14023,350.75623,72,64,0
350.14023,350.75623,75,64,0
350.4437,351.06262,81,71,0
350.4437,351.06262,69,57,0
350.75623,351.38403,75,73,0
350.75623,351.38403,70,61,0
351.06262,351.70544,67,57,0
351.06262,351.70544,79,72,0
351.38403,352.02222,72,67,0
351.38403,352.02222,75,80,0
351.70544,352.3315,66,57,0
351.70544,352.3315,78,71,0
352.02222,352.6483,75,73,0
352.02222,352.6483,69,59,0
352.6483,352.96048,70,53,0
352.3315,352.96048,65,60,0
352.3315,352.96048,77,70,0
352.96048,353.27722,78,72,0
352.96048,353.27722,66,56,0
352.96048,353.27722,70,56,0
353.27722,353.59863,79,77,0
353.27722,353.59863,67,64,0
353.27722,353.59863,70,53,0
353.59863,353.92004,77,72,0
353.59863,353.92004,70,56,0
353.59863,353.92004,65,56,0
353.92004,354.24146,72,69,0
353.92004,354.24146,69,60,0
354.24146,354.5522,74,68,0
354.24146,354.5522,68,55,0
354.24146,354.5522,65,52,0
354.5522,354.87204,75,70,0
354.5522,354.87204,67,62,0
354.5522,354.87204,63,59,0
354.87204,355.20154,69,68,0
354.87204,355.20154,66,57,0
355.20154,355.51828,70,69,0
355.20154,355.51828,65,60,0
355.51828,355.83813,72,67,0
355.51828,355.83813,66,56,0
355.51828,355.83813,63,56,0
355.83813,356.15802,74,70,0
355.83813,356.15802,65,58,0
355.83813,356.15802,62,54,0
356.15802,356.39792,67,69,0
356.15802,356.39792,61,58,0
356.15802,356.39792,58,58,0
356.39792,356.47787,58,50,0
356.47787,357.13684,70,69,0
356.47787,357.13684,58,58,0
357.13684,357.80936,69,61,0
356.47787,357.80936,60,58,0
356.47787,357.80936,63,58,0
357.13684,357.80936,57,51,0
357.80936,357.99033,70,77,0
357.80936,357.99033,62,65,0
357.81613,357.99713,58,65,0
357.99033,358.08084,66,73,0
357.99033,358.08084,61,62,0
358.1678,358.25476,66,73,0
358.1678,358.25476,61,62,0
358.3417,358.5112,66,75,0
358.3417,358.5112,61,62,0
358.5112,358.59595,65,66,0
358.5112,358.59595,60,61,0
358.6759,358.75586,75,74,0
358.6759,358.75586,69,62,0
358.83582,358.99704,75,75,0
358.83582,358.99704,69,62,0
358.99704,359.07764,74,74,0
358.99704,359.07764,70,62,0
359.156,359.23434,78,74,0
359.156,359.23434,73,62,0
359.3127,359.46942,78,75,0
359.3127,359.46942,73,62,0
359.46942,359.54776,77,69,0
359.46942,359.54776,72,63,0
359.6261,359.70447,87,73,0
359.6261,359.70447,81,62,0
359.7828,359.9395,87,78,0
359.7828,359.9395,81,64,0
359.9395,360.01785,86,73,0
359.9395,360.01785,82,62,0
360.09622,360.17456,73,62,0
360.09622,360.17456,78,73,0
360.25293,360.40918,78,78,0
360.25293,360.40918,73,64,0
360.40918,360.48666,77,70,0
360.40918,360.48666,72,62,0
360.56412,360.6416,75,74,0
360.56412,360.6416,69,62,0
360.71906,360.87402,75,78,0
360.71906,360.87402,69,64,0
360.87402,360.95148,74,69,0
360.87402,360.95148,70,59,0
361.02896,361.1064,61,62,0
361.02896,361.1064,66,74,0
361.1839,361.33884,66,75,0
361.1839,361.33884,61,62,0
361.33884,361.41632,65,66,0
361.33884,361.41632,60,59,0
361.49652,361.57672,63,74,0
361.49652,361.57672,57,62,0
361.65695,361.8222,63,75,0
361.65695,361.8222,57,62,0
361.8222,361.90482,62,63,0
361.8222,361.90482,58,53,0
361.98746,362.0665,67,59,0
361.98746,362.0665,60,49,0
362.14557,362.30292,67,62,0
362.14557,362.30292,60,51,0
362.30292,362.3816,65,58,0
362.4603,362.53897,75,52,0
362.4603,362.53897,69,44,0
362.61765,362.775,75,55,0
362.61765,362.775,69,46,0
362.775,362.85367,74,52,0
362.775,362.85367,70,44,0
362.93234,363.01102,79,52,0
362.93234,363.01102,72,44,0
363.08972,363.24707,79,55,0
363.08972,363.24707,72,46,0
363.24707,363.32574,77,51,0
363.40442,363.4831,87,46,0
363.40442,363.4831,81,39,0
363.56177,363.71915,87,49,0
363.56177,363.71915,81,40,0
363.71915,363.79782,86,46,0
363.71915,363.79782,82,39,0
363.8765,363.95517,72,47,0
363.8765,363.95517,79,55,0
364.03384,364.1912,79,59,0
364.03384,364.1912,72,49,0
364.1912,364.26987,77,56,0
364.3505,364.4311,75,56,0
364.3505,364.4311,69,47,0
364.5117,364.67526,75,59,0
364.5117,364.67526,69,49,0
364.67526,364.75705,74,55,0
364.67526,364.75705,70,47,0
364.83884,364.9175,60,47,0
364.83884,364.9175,67,56,0
364.99622,365.15588,67,59,0
364.99622,365.15588,60,49,0
365.15588,365.23575,65,56,0
365.31958,365.40344,63,62,0
365.31958,365.40344,57,52,0
365.31958,365.40344,60,52,0
365.48727,365.65247,63,59,0
365.48727,365.65247,57,49,0
365.48727,365.65247,60,49,0
365.65247,365.73508,64,52,0
365.65247,365.73508,57,44,0
365.65247,365.73508,61,46,0
365.81418,365.89328,69,56,0
365.81418,365.89328,57,49,0
365.81418,365.89328,59,49,0
365.81418,365.89328,63,47,0
365.97238,366.1336,69,59,0
365.97238,366.1336,57,49,0
365.97238,366.1336,59,49,0
365.97238,366.1336,63,49,0
366.1336,366.2142,68,51,0
366.1336,366.2142,64,44,0
366.1336,366.2142,56,46,0
366.29257,366.3709,74,56,0
366.29257,366.3709,62,47,0
366.29257,366.3709,64,47,0
366.29257,366.3709,68,47,0
366.44925,366.60596,74,59,0
366.44925,366.60596,62,49,0
366.44925,366.60596,64,49,0
366.44925,366.60596,68,49,0
366.60596,366.68433,73,52,0
366.60596,366.68433,69,44,0
366.60596,366.68433,61,46,0
366.76266,366.841,81,56,0
366.76266,366.841,69,49,0
366.76266,366.841,71,49,0
366.76266,366.841,75,47,0
366.91937,367.07608,81,59,0
366.91937,367.07608,69,49,0
366.91937,367.07608,71,49,0
366.91937,367.07608,75,49,0
367.07608,367.15442,80,51,0
367.07608,367.15442,76,41,0
367.07608,367.15442,68,46,0
367.23465,367.31485,86,55,0
367.23465,367.31485,74,49,0
367.23465,367.31485,76,49,0
367.23465,367.31485,80,47,0
367.39505,367.55548,86,59,0
367.39505,367.55548,74,49,0
367.39505,367.55548,76,49,0
367.39505,367.55548,80,49,0
367.55548,367.7159,71,63,0
367.55548,367.7159,67,45,0
367.7159,367.87573,77,80,0
367.7159,367.87573,68,66,0
367.87573,368.03424,74,74,0
367.87573,368.03424,70,68,0
368.03424,368.19162,80,84,0
368.03424,368.19162,71,71,0
368.19162,368.34787,77,79,0
368.19162,368.34787,73,66,0
368.34787,368.5025,83,89,0
368.34787,368.5025,74,74,0
368.5025,368.6584,76,72,0
368.5025,368.6584,80,85,0
368.6584,368.81555,86,92,0
368.6584,368.81555,77,78,0
368.81555,368.97388,83,86,0
368.81555,368.97388,79,73,0
368.97388,369.1404,89,94,0
368.97388,369.1404,80,79,0
369.1404,369.31076,92,90,0
369.1404,369.31076,80,77,0
369.31076,369.47845,93,101,0
369.31076,369.47845,81,85,0
369.31076,369.47845,88,85,0
369.47845,369.64252,69,77,0
369.47845,369.64252,64,64,0
369.47845,369.64252,57,64,0
369.64252,369.80496,69,77,0
369.64252,369.80496,64,64,0
369.64252,369.80496,57,64,0
369.80496,369.96933,69,77,0
369.80496,369.96933,64,55,0
369.80496,369.96933,57,55,0
369.96933,370.12903,69,75,0
369.96933,370.12903,64,63,0
369.96933,370.12903,57,63,0
370.12903,370.29102,69,75,0
370.12903,370.29102,64,63,0
370.12903,370.29102,57,63,0
370.29102,370.4546,69,80,0
370.29102,370.4546,65,57,0
370.29102,370.4546,57,57,0
370.4546,370.61353,69,77,0
370.4546,370.61353,65,64,0
370.4546,370.61353,57,64,0
370.61353,370.77554,69,77,0
370.61353,370.77554,65,64,0
370.61353,370.77554,57,64,0
370.77554,370.93597,69,81,0
370.77554,370.93597,65,68,0
370.77554,370.93597,57,68,0
370.93597,371.0898,69,79,0
370.93597,371.0898,65,67,0
370.93597,371.0898,57,67,0
371.0898,371.24826,69,79,0
371.0898,371.24826,65,67,0
371.0898,371.24826,57,67,0
371.24826,371.33087,69,80,0
371.24826,371.33087,65,67,0
371.24826,371.33087,57,67,0
371.41116,371.48914,70,81,0
371.41116,371.48914,65,68,0
371.41116,371.48914,58,68,0
371.56714,371.64813,70,82,0
371.56714,371.64813,65,69,0
371.56714,371.64813,58,69,0
371.72913,371.80783,70,83,0
371.72913,371.80783,65,71,0
371.72913,371.80783,58,71,0
371.88657,371.96313,70,84,0
371.88657,371.96313,66,71,0
371.88657,371.96313,58,71,0
372.03967,372.1203,70,85,0
372.03967,372.1203,66,71,0
372.03967,372.1203,58,71,0
372.2009,372.28268,70,86,0
372.2009,372.28268,66,72,0
372.2009,372.28268,58,72,0
372.36447,372.44174,70,88,0
372.36447,372.44174,66,73,0
372.36447,372.44174,58,73,0
372.519,372.59885,70,90,0
372.519,372.59885,66,75,0
372.519,372.59885,58,75,0
372.6787,372.75854,70,91,0
372.6787,372.75854,66,77,0
372.6787,372.75854,58,77,0
372.83838,372.91434,70,92,0
372.83838,372.91434,65,78,0
372.83838,372.91434,58,78,0
372.99072,373.06757,70,93,0
372.99072,373.06757,64,79,0
372.99072,373.06757,58,79,0
373.14493,373.2329,70,102,0
373.14493,373.2329,65,86,0
373.14493,373.2329,58,73,0
373.3171,373.4779,74,95,0
373.3171,373.4779,65,80,0
373.3171,373.4779,62,68,0
373.4779,373.64493,74,95,0
373.4779,373.64493,65,80,0
373.4779,373.64493,62,68,0
373.64493,373.80762,74,101,0
373.64493,373.80762,65,85,0
373.64493,373.80762,62,72,0
373.80762,373.97266,72,95,0
373.80762,373.97266,60,68,0
373.97266,374.14008,70,95,0
373.97266,374.14008,58,68,0
374.3135,374.47644,74,95,0
374.3135,374.47644,66,80,0
374.3135,374.47644,62,68,0
374.47644,374.6446,74,95,0
374.47644,374.6446,66,80,0
374.47644,374.6446,62,68,0
374.6446,374.8096,74,101,0
374.6446,374.8096,66,85,0
374.6446,374.8096,62,72,0
374.8096,374.97665,72,95,0
374.8096,374.97665,60,68,0
374.97665,375.14575,70,95,0
374.97665,375.14575,58,68,0
375.31998,375.48343,74,95,0
375.31998,375.48343,65,80,0
375.31998,375.48343,62,68,0
375.48343,375.65234,74,95,0
375.48343,375.65234,65,80,0
375.48343,375.65234,62,68,0
375.65234,375.81656,74,101,0
375.65234,375.81656,65,85,0
375.65234,375.81656,62,72,0
375.81656,375.98538,72,95,0
375.81656,375.98538,60,68,0
375.98538,376.15875,70,95,0
375.98538,376.15875,58,68,0
376.3423,376.51413,74,95,0
376.3423,376.51413,63,80,0
376.51413,376.69153,74,95,0
376.51413,376.69153,63,80,0
376.69153,376.87485,74,101,0
376.87485,377.06372,72,95,0
377.06372,377.25333,70,95,0
376.69153,377.25333,63,85,0
377.25333,378.37646,74,101,0
377.25333,378.37646,62,84,0
377.25333,378.37646,65,84,0
377.25333,378.37646,70,101,0
378.37646,378.8883,74,84,0
378.37646,378.8883,62,71,0
378.37646,378.8883,65,71,0
378.37646,378.8883,70,84,0
378.8883,379.4012,74,83,0
378.8883,379.4012,62,69,0
378.8883,379.4012,65,69,0
378.8883,379.4012,71,83,0
379.4012,379.89862,74,82,0
379.4012,379.89862,62,69,0
379.4012,379.89862,65,69,0
379.4012,379.89862,70,82,0
379.89862,380.39703,74,82,0
379.89862,380.39703,62,68,0
379.89862,380.39703,65,68,0
379.89862,380.39703,71,82,0
380.39703,380.88516,75,88,0
380.39703,380.88516,63,74,0
380.39703,380.88516,66,74,0
380.39703,380.88516,71,88,0
380.88516,381.37302,75,88,0
380.88516,381.37302,63,72,0
380.88516,381.37302,66,72,0
380.88516,381.37302,72,88,0
381.37302,381.84903,76,88,0
381.37302,381.84903,64,74,0
381.37302,381.84903,67,74,0
381.37302,381.84903,72,88,0
381.84903,382.33984,76,87,0
381.84903,382.33984,64,73,0
381.84903,382.33984,67,73,0
381.84903,382.33984,73,87,0
382.33984,382.82153,77,93,0
382.33984,382.82153,65,76,0
382.33984,382.82153,68,76,0
382.33984,382.82153,73,93,0
382.82153,383.30652,77,92,0
382.82153,383.30652,65,76,0
382.82153,383.30652,69,76,0
382.82153,383.30652,75,92,0
383.30652,383.79834,77,93,0
383.30652,383.79834,70,93,0
383.30652,383.79834,65,78,0
383.79834,384.29626,78,94,0
383.79834,384.29626,70,94,0
383.79834,384.29626,66,79,0
384.29626,384.77686,82,95,0
384.29626,384.77686,70,79,0
384.29626,384.77686,72,79,0
384.29626,384.77686,75,95,0
384.77686,385.27567,81,93,0
384.77686,385.27567,69,77,0
384.77686,385.27567,72,77,0
384.77686,385.27567,75,93,0
385.27567,385.7615,82,102,0
385.27567,385.7615,74,102,0
385.27567,385.7615,70,85,0
385.7615,386.26666,82,101,0
385.7615,386.26666,70,84,0
385.7615,386.26666,75,84,0
385.7615,386.26666,78,101,0
386.26666,386.76758,82,101,0
386.26666,386.76758,70,85,0
386.26666,386.76758,74,85,0
386.26666,386.76758,77,101,0
386.76758,387.28372,82,101,0
386.76758,387.28372,70,85,0
386.76758,387.28372,75,85,0
386.76758,387.28372,78,101,0
387.28372,388.31598,82,108,0
387.28372,388.31598,70,91,0
387.28372,388.31598,74,91,0
387.28372,388.31598,77,108,0
388.31598,389.34824,94,117,0
388.31598,389.34824,82,100,0
389.34824,392.3163,62,105,0
0.0,2.625,49,90,0
0.0,2.625,37,76,0
2.625,3.076128,40,90,0
2.625,3.076128,28,76,0
4.665532,6.254936,56,76,0
4.665532,6.254936,49,76,0
3.076128,6.254936,28,76,0
3.076128,6.254936,40,90,0
4.665532,6.254936,61,90,0
6.254936,6.440514,49,72,0
7.0359063,9.55339,61,85,0
6.440514,9.55339,49,65,0
9.55339,12.55339,60,64,0
6.831123,12.55339,57,81,0
7.0359063,12.55339,41,85,0
6.632424,12.55339,51,79,0
9.55339,12.55339,48,64,0
7.0359063,12.55339,29,85,0
12.55339,12.678598,46,52,0
12.55339,12.678598,34,44,0
12.678598,12.803807,53,29,0
12.803807,12.928815,58,22,0
12.803807,12.928815,61,26,0
12.803807,12.928815,49,22,0
12.928815,13.05342,41,33,0
13.05342,13.178025,46,29,0
13.05342,13.178025,34,25,0
13.178025,13.302239,53,29,0
13.302239,13.426258,58,23,0
13.302239,13.426258,61,27,0
13.302239,13.426258,49,23,0
13.426258,13.550276,41,35,0
13.550276,13.673713,46,33,0
13.550276,13.673713,34,27,0
13.673713,13.797149,53,30,0
13.797149,13.920394,58,24,0
13.797149,13.920394,61,29,0
13.797149,13.920394,49,24,0
13.920394,14.043254,41,35,0
14.043254,14.166114,46,34,0
14.043254,14.166114,34,28,0
14.166114,14.288587,53,35,0
14.288587,14.410866,58,26,0
14.288587,14.410866,61,31,0
14.288587,14.410866,49,26,0
14.410866,14.533146,41,39,0
14.533146,14.655425,46,38,0
14.533146,14.655425,34,30,0
14.655425,14.777704,53,35,0
14.777704,14.899983,58,28,0
14.777704,14.899983,61,34,0
14.777704,14.899983,49,28,0
14.899983,15.022263,41,39,0
15.022263,15.145123,46,35,0
15.022263,15.145123,34,29,0
15.145123,15.267983,53,34,0
15.267983,15.390843,58,25,0
15.267983,15.390843,61,30,0
15.267983,15.390843,49,25,0
15.390843,15.513703,41,36,0
15.513703,15.63714,46,33,0
15.513703,15.63714,34,27,0
15.63714,15.760576,53,30,0
15.760576,15.884013,58,24,0
15.760576,15.884013,61,29,0
15.760576,15.884013,49,24,0
15.884013,16.00745,41,35,0
16.00745,16.131468,46,29,0
16.00745,16.131468,34,25,0
16.131468,16.255486,53,29,0
16.255486,16.379505,58,24,0
16.255486,16.379505,61,28,0
16.255486,16.379505,49,24,0
16.379505,16.503523,53,33,0
16.503523,16.628128,46,35,0
16.628128,16.752733,53,34,0
16.752733,16.877338,58,30,0
16.752733,16.877338,61,30,0
16.877338,17.001944,53,31,0
17.001944,17.124805,46,35,0
17.124805,17.247665,53,33,0
17.247665,17.37227,58,31,0
17.247665,17.37227,61,31,0
17.37227,17.496876,53,31,0
17.496876,17.619156,46,35,0
17.619156,17.741434,53,34,0
17.741434,17.86604,58,31,0
17.741434,17.86604,61,31,0
17.86604,17.990646,53,31,0
17.990646,18.113506,46,35,0
18.113506,18.236366,53,33,0
18.236366,18.360971,58,31,0
18.236366,18.360971,61,31,0
18.360971,18.485577,53,31,0
18.485577,18.608437,46,35,0
18.608437,18.731298,53,33,0
18.731298,18.855904,58,31,0
18.731298,18.855904,61,31,0
18.855904,18.980509,53,33,0
18.980509,19.102787,46,37,0
19.102787,19.225067,53,35,0
19.225067,19.35335,58,34,0
19.225067,19.35335,61,34,0
19.35335,19.48163,53,34,0
19.48163,19.604492,48,35,0
19.604492,19.727352,54,34,0
19.727352,19.851957,57,30,0
19.727352,19.851957,63,30,0
19.851957,19.976562,54,31,0
19.976562,20.099422,48,35,0
20.099422,20.222282,54,33,0
20.222282,20.346888,57,31,0
20.222282,20.346888,63,31,0
20.346888,20.471495,54,31,0
20.471495,20.59493,48,35,0
20.59493,20.718367,51,34,0
20.718367,20.842972,57,30,0
20.718367,20.842972,63,30,0
20.842972,20.967579,51,31,0
20.967579,21.090439,48,35,0
21.090439,21.213299,54,33,0
21.213299,21.337904,57,31,0
21.213299,21.337904,63,31,0
21.337904,21.46251,54,31,0
21.46251,21.585945,48,35,0
21.585945,21.709383,51,34,0
21.709383,21.833988,57,30,0
21.709383,21.833988,63,30,0
21.833988,21.958593,51,31,0
21.958593,22.081453,48,35,0
22.081453,22.204313,54,33,0
22.204313,22.32892,57,31,0
22.204313,22.32892,63,31,0
22.32892,22.453526,54,31,0
22.453526,22.576962,48,35,0
22.576962,22.700397,51,35,0
22.700397,22.825003,57,34,0
22.700397,22.825003,63,34,0
22.825003,22.94961,51,35,0
22.94961,23.07247,48,39,0
23.07247,23.19533,54,37,0
23.19533,23.322979,57,37,0
23.19533,23.322979,63,37,0
23.322979,23.450626,54,38,0
23.450626,23.574064,49,35,0
23.574064,23.6975,53,34,0
23.6975,23.822105,57,30,0
23.6975,23.822105,65,30,0
23.822105,23.94671,53,31,0
23.94671,24.06957,49,35,0
24.06957,24.192432,53,33,0
24.192432,24.32008,58,31,0
24.192432,24.32008,65,31,0
24.32008,24.44773,53,31,0
24.44773,24.572334,52,56,0
24.572334,24.69694,61,53,0
24.69694,24.823362,67,50,0
24.823362,24.949785,52,51,0
24.949785,25.072645,53,56,0
25.072645,25.195505,60,52,0
25.195505,25.323154,69,58,0
25.323154,25.450802,53,51,0
25.450802,25.575409,45,33,0
25.575409,25.700014,54,30,0
25.700014,25.827662,63,29,0
25.827662,25.95531,45,29,0
25.95531,26.07817,46,33,0
26.07817,26.20103,53,30,0
26.20103,26.32868,61,29,0
26.32868,26.45633,46,29,0
26.45633,26.580935,52,56,0
26.580935,26.70554,61,53,0
26.70554,26.833189,67,50,0
26.833189,26.960838,52,51,0
26.960838,27.083698,53,56,0
27.083698,27.206558,60,52,0
27.206558,27.334208,69,58,0
27.334208,27.461855,53,51,0
27.461855,27.58646,45,33,0
27.58646,27.711067,54,30,0
27.711067,27.838715,63,29,0
27.838715,27.966364,45,29,0
27.966364,28.089224,46,33,0
28.089224,28.212084,53,30,0
28.212084,28.355625,61,29,0
28.355625,28.499166,46,29,0
28.499166,28.6296,43,56,0
28.6296,28.760035,48,53,0
28.760035,28.891615,49,50,0
28.891615,29.023193,58,49,0
29.023193,29.149776,43,52,0
29.149776,29.276358,48,49,0
29.276358,29.405668,49,49,0
29.405668,29.534979,58,49,0
29.534979,29.659584,43,47,0
29.659584,29.78419,48,45,0
29.78419,29.910612,49,42,0
29.910612,30.037033,58,44,0
30.037033,30.159895,45,49,0
30.159895,30.282755,50,44,0
30.282755,30.410402,51,46,0
30.410402,30.538052,60,44,0
30.538052,30.662657,47,47,0
30.662657,30.787264,52,45,0
30.787264,30.91307,53,42,0
30.91307,31.038877,62,44,0
31.038877,31.161737,48,49,0
31.161737,31.284597,54,39,0
31.284597,31.412247,55,40,0
31.412247,31.539896,63,39,0
31.539896,31.65939,46,52,0
31.65939,31.778881,53,45,0
31.778881,31.906,54,41,0
31.906,32.03312,63,42,0
32.03312,32.1576,45,52,0
32.1576,32.28208,52,41,0
32.28208,32.421616,53,42,0
32.421616,32.561153,63,41,0
32.561153,32.689907,46,51,0
32.689907,32.81866,53,44,0
32.81866,32.949097,58,47,0
32.949097,33.079533,41,48,0
33.079533,33.20558,46,51,0
33.20558,33.331635,53,43,0
33.331635,33.461502,58,48,0
33.461502,33.591373,41,48,0
33.591373,33.715855,46,51,0
33.715855,33.840336,53,44,0
33.840336,33.96854,58,48,0
33.96854,34.09675,41,48,0
34.09675,34.222797,46,51,0
34.222797,34.348846,53,43,0
34.348846,34.477055,58,48,0
34.477055,34.60526,41,48,0
34.60526,34.73026,46,51,0
34.73026,34.85526,53,49,0
34.85526,34.983463,58,48,0
34.983463,35.111668,41,49,0
35.111668,35.23615,46,54,0
35.23615,35.36063,53,51,0
35.36063,35.48888,61,50,0
35.48888,35.617165,49,50,0
35.617165,35.74007,48,51,0
35.74007,35.86293,54,44,0
35.86293,35.98752,63,47,0
35.98752,36.112125,48,48,0
36.112125,36.235,54,51,0
36.235,36.35786,57,43,0
36.35786,36.482452,63,48,0
36.482452,36.607056,48,48,0
36.607056,36.730503,51,51,0
36.730503,36.85394,57,44,0
36.85394,36.978535,63,47,0
36.978535,37.10314,48,48,0
37.10314,37.226017,54,51,0
37.226017,37.348877,57,43,0
37.348877,37.47347,63,48,0
37.47347,37.598072,48,48,0
37.598072,37.72152,51,51,0
37.72152,37.844955,57,44,0
37.844955,37.96955,63,47,0
37.96955,38.09416,48,48,0
38.09416,38.21703,54,51,0
38.21703,38.339893,57,43,0
38.339893,38.46448,63,48,0
38.46448,38.58909,48,48,0
38.58909,38.712536,51,52,0
38.712536,38.83597,57,46,0
38.83597,38.960567,63,50,0
38.960567,39.08517,48,51,0
39.08517,39.208046,54,57,0
39.208046,39.330906,57,54,0
39.330906,39.458515,63,54,0
39.458515,39.586166,48,55,0
39.586166,39.709637,49,51,0
39.709637,39.833073,57,50,0
39.833073,39.95767,65,47,0
39.95767,40.082275,53,48,0
40.082275,40.20515,58,51,0
40.20515,40.32801,61,49,0
40.32801,40.455616,65,48,0
40.455616,40.583267,49,48,0
40.583267,40.70787,52,61,0
40.70787,40.832478,61,59,0
40.832478,40.9589,67,55,0
40.9589,41.085323,52,57,0
41.085323,41.208183,53,61,0
41.208183,41.331043,60,58,0
41.331043,41.45869,69,57,0
41.45869,41.58634,53,57,0
41.58634,41.710945,45,48,0
41.710945,41.835552,54,44,0
41.835552,41.9632,63,44,0
41.9632,42.090847,45,44,0
42.090847,42.213707,46,48,0
42.213707,42.33657,53,44,0
42.33657,42.46422,61,44,0
42.46422,42.591866,46,44,0
42.591866,42.716473,52,61,0
42.716473,42.841076,61,59,0
42.841076,42.968727,67,55,0
42.968727,43.096375,52,57,0
43.096375,43.219234,53,61,0
43.219234,43.342094,60,58,0
43.342094,43.469746,69,57,0
43.469746,43.597393,53,57,0
43.597393,43.722,50,61,0
43.722,43.846603,59,58,0
43.846603,43.974255,65,55,0
43.974255,44.101902,50,55,0
44.101902,44.224762,51,61,0
44.224762,44.347622,58,57,0
44.347622,44.501564,66,55,0
44.501564,44.655502,51,55,0
44.655502,44.793118,39,69,0
44.793118,44.930733,46,59,0
44.930733,45.060604,58,71,0
45.060604,45.190475,46,59,0
45.190475,45.323807,41,69,0
45.323807,45.45714,46,59,0
45.45714,45.586452,58,69,0
45.586452,45.71576,46,59,0
45.71576,45.850716,42,69,0
45.850716,45.98567,46,59,0
45.98567,46.121243,58,68,0
46.121243,46.256817,46,59,0
46.256817,46.398876,43,68,0
46.398876,46.540936,51,59,0
46.540936,46.682995,63,68,0
46.682995,46.82505,51,59,0
46.82505,46.966427,58,68,0
46.82505,46.966427,51,57,0
46.82505,46.966427,44,52,0
47.107803,47.24918,56,56,0
47.107803,47.24918,51,46,0
47.107803,47.24918,44,39,0
47.67331,47.961548,46,46,0
47.67331,47.961548,34,38,0
47.961548,48.53803,47,49,0
47.961548,48.53803,35,41,0
48.53803,48.970387,48,46,0
48.53803,48.970387,36,39,0
49.11451,50.3865,37,31,0
49.11451,51.01042,49,37,0
51.01042,51.634315,42,39,0
51.634315,53.2321,44,36,0
53.2321,53.55166,45,37,0
53.55166,53.871216,46,39,0
53.871216,54.21321,44,37,0
54.21321,55.523396,37,33,0
55.523396,56.158127,49,39,0
56.158127,56.78963,42,39,0
56.78963,58.381306,44,29,0
58.381306,58.694756,45,37,0
58.694756,58.90779,48,35,0
58.90779,59.12083,46,34,0
59.12083,59.333866,44,34,0
59.333866,59.97298,37,41,0
59.97298,60.612095,55,44,0
60.612095,61.236023,54,44,0
61.236023,61.703945,58,44,0
61.703945,61.859917,56,49,0
60.612095,61.859917,44,37,0
61.859917,62.483814,56,42,0
61.859917,62.483814,49,39,0
62.483814,63.138905,55,44,0
63.138905,63.762867,44,37,0
63.762867,64.31964,42,37,0
63.138905,64.40125,54,44,0
64.40125,65.05414,57,49,0
64.31964,65.05414,41,41,0
65.05414,65.70702,45,48,0
65.05414,65.70702,33,40,0
65.70702,66.35991,46,49,0
65.70702,66.35991,34,41,0
66.35991,66.83245,48,49,0
66.35991,66.83245,36,41,0
66.83245,66.98996,49,45,0
66.83245,66.98996,37,37,0
66.98996,67.63253,50,49,0
66.98996,67.63253,38,41,0
67.63253,68.105064,51,49,0
67.63253,68.105064,39,41,0
68.105064,68.26258,53,45,0
68.105064,68.26258,41,37,0
68.26258,68.89263,54,49,0
68.26258,68.89263,42,41,0
68.89263,69.57554,44,45,0
69.57554,69.788574,37,39,0
69.788574,70.00161,55,33,0
70.00161,70.21465,56,31,0
70.21465,70.42769,58,37,0
70.42769,70.640724,56,31,0
70.640724,70.85377,44,31,0
70.85377,71.06173,49,39,0
71.06173,71.26969,55,35,0
71.26969,71.47766,56,35,0
71.47766,71.6907,58,37,0
71.6907,71.90807,56,33,0
71.90807,72.129776,44,33,0
72.129776,72.33874,51,39,0
72.33874,72.54771,55,35,0
72.54771,72.75667,56,35,0
72.75667,72.9697,58,37,0
72.9697,73.18275,56,33,0
73.18275,73.39578,44,33,0
73.39578,73.603745,54,39,0
73.603745,73.811714,55,35,0
73.811714,74.01968,56,35,0
74.01968,74.233765,58,37,0
74.233765,74.45222,56,33,0
74.45222,74.67503,44,33,0
74.67503,74.83481,49,39,0
74.99459,75.154366,55,34,0
75.154366,75.31415,56,33,0
75.31415,75.47392,58,37,0
75.47392,75.61773,56,31,0
75.633705,75.79348,56,37,0
75.79348,75.95326,44,37,0
75.95326,76.10924,49,39,0
76.265205,76.42118,55,35,0
76.42118,76.577156,56,35,0
76.577156,76.73693,58,37,0
76.73693,76.88074,56,33,0
76.89671,77.05649,56,37,0
77.05649,77.21627,44,31,0
77.21627,77.37299,51,39,0
77.52972,77.68644,55,35,0
77.68644,77.84316,56,35,0
77.84316,78.002945,58,37,0
78.002945,78.14674,56,33,0
78.16272,78.3225,56,37,0
78.3225,78.48228,44,33,0
78.48228,78.79423,54,39,0
78.79423,78.950195,55,35,0
78.950195,79.10617,56,35,0
79.10617,79.26674,58,39,0
79.26674,79.41125,56,35,0
79.4273,79.597916,56,39,0
79.597916,79.768524,44,35,0
79.768524,79.929085,49,44,0
79.929085,80.08965,56,39,0
80.08965,80.25022,58,39,0
80.25022,80.41078,56,39,0
80.41078,80.56903,65,44,0
80.56903,80.72727,56,40,0
80.72727,80.88552,58,40,0
80.88552,81.04376,56,41,0
81.04376,81.202,44,45,0
81.202,81.36025,56,40,0
81.36025,81.51849,58,41,0
81.51849,81.67674,56,41,0
81.67674,81.83271,66,47,0
81.83271,81.988686,56,44,0
81.988686,82.14466,58,44,0
82.14466,82.30602,56,44,0
82.30602,82.464264,49,48,0
82.464264,82.62251,56,42,0
82.62251,82.780754,58,42,0
82.780754,82.938995,56,42,0
82.938995,83.097244,65,49,0
83.097244,83.255486,56,46,0
83.255486,83.413734,58,46,0
83.413734,83.571976,56,46,0
83.571976,83.730225,44,50,0
83.730225,83.888466,56,46,0
83.888466,84.04671,58,46,0
84.04671,84.204956,56,46,0
84.204956,84.3632,66,52,0
84.3632,84.52145,56,49,0
84.52145,84.68361,58,49,0
84.68361,84.84577,56,49,0
84.84577,85.00793,45,57,0
85.00793,85.17009,52,51,0
85.17009,85.33225,53,51,0
85.33225,85.494415,60,51,0
85.494415,85.65342,57,58,0
85.65342,85.812416,64,53,0
85.812416,85.97141,65,53,0
85.97141,86.13042,72,53,0
86.13042,86.28714,46,59,0
86.28714,86.44386,52,52,0
86.44386,86.605225,53,52,0
86.605225,86.76658,61,53,0
86.76658,86.92794,58,60,0
86.92794,87.0893,64,55,0
87.0893,87.250656,65,55,0
87.250656,87.41202,73,56,0
87.41202,87.57338,48,61,0
87.57338,87.73474,55,55,0
87.73474,87.896095,56,55,0
87.896095,88.05746,63,55,0
88.05746,88.215706,60,62,0
88.215706,88.37395,67,57,0
88.37395,88.53219,68,57,0
88.53219,88.69044,75,57,0
88.69044,88.84422,50,62,0
88.84422,88.998,57,56,0
88.998,89.15625,58,57,0
89.15625,89.31449,65,57,0
89.31449,89.47273,62,63,0
89.47273,89.63098,69,58,0
89.63098,89.78922,70,59,0
89.94747,90.10345,39,59,0
90.10345,90.259415,46,52,0
90.259415,90.4192,51,52,0
90.4192,90.57897,58,52,0
90.57897,90.735695,41,59,0
90.735695,90.89242,46,52,0
90.89242,91.052986,50,52,0
91.052986,91.213554,56,52,0
91.213554,91.36952,42,62,0
91.36952,91.5255,46,52,0
91.5255,91.68528,51,52,0
91.68528,91.845055,58,52,0
91.845055,92.00103,43,61,0
92.00103,92.157005,49,52,0
92.157005,92.31298,52,52,0
92.31298,92.46895,58,52,0
92.46895,92.62492,44,59,0
92.62492,92.7809,49,52,0
92.7809,92.94147,53,52,0
92.94147,93.10203,61,52,0
93.10203,93.262596,46,58,0
93.262596,93.42316,49,52,0
93.42316,93.583725,54,52,0
93.583725,93.74429,61,52,0
93.74429,93.904854,44,52,0
93.904854,94.06542,51,47,0
94.06542,94.22366,56,47,0
94.22366,94.38191,61,47,0
94.38191,94.53642,42,55,0
94.53642,94.69093,48,47,0
94.69093,94.849174,51,47,0
94.849174,95.00742,56,47,0
95.00742,95.1634,41,55,0
95.1634,95.31937,44,47,0
95.31937,95.477615,49,47,0
95.477615,95.63586,56,47,0
95.63586,95.796425,46,56,0
95.796425,95.956985,49,47,0
95.956985,96.11755,54,47,0
96.11755,96.27812,61,47,0
96.27812,96.43868,45,55,0
96.43868,96.59925,49,47,0
96.59925,96.75449,54,47,0
96.75449,96.909744,61,47,0
96.909744,97.06953,44,51,0
97.06953,97.2293,51,47,0
97.2293,97.3939,60,47,0
97.3939,97.5585,42,47,0
97.5585,97.71674,41,56,0
97.71674,97.87499,44,47,0
97.87499,98.03477,49,46,0
98.03477,98.19455,56,46,0
98.19455,98.354324,46,53,0
98.354324,98.51411,49,45,0
98.51411,98.67388,54,44,0
98.67388,98.833664,61,44,0
98.833664,98.99826,44,50,0
98.99826,99.162865,51,42,0
99.162865,99.32746,56,42,0
99.32746,99.492065,61,41,0
99.492065,99.660034,44,49,0
99.660034,99.82801,51,41,0
99.82801,99.99598,56,40,0
99.99598,100.163956,60,40,0
100.163956,100.34828,61,66,0
100.163956,100.34828,56,56,0
100.163956,100.34828,49,56,0
100.34828,100.44045,61,51,0
100.34828,100.44045,55,42,0
100.34828,100.44045,51,42,0
100.52703,100.61361,61,51,0
100.52703,100.61361,55,42,0
100.52703,100.61361,51,42,0
100.700195,100.86901,61,56,0
100.700195,100.86901,55,46,0
100.700195,100.86901,51,46,0
100.86901,100.95342,60,51,0
100.86901,100.95342,56,42,0
101.034065,101.11471,63,42,0
101.034065,101.11471,68,51,0
101.034065,101.11471,56,42,0
101.19536,101.35821,68,56,0
101.19536,101.35821,63,46,0
101.19536,101.35821,56,46,0
101.35821,101.43946,68,51,0
101.35821,101.43946,61,42,0
101.51758,101.595695,73,51,0
101.51758,101.595695,63,42,0
101.51758,101.595695,67,51,0
101.67381,101.83355,73,56,0
101.67381,101.83355,67,56,0
101.67381,101.83355,63,46,0
101.83355,101.913414,72,51,0
101.83355,101.913414,68,42,0
101.99187,102.07033,80,51,0
101.99187,102.07033,75,42,0
101.99187,102.07033,68,42,0
102.14878,102.30789,80,56,0
102.14878,102.30789,75,46,0
102.14878,102.30789,68,46,0
102.30789,102.38744,80,51,0
102.30789,102.38744,73,42,0
102.467,102.54525,67,44,0
102.467,102.54525,73,52,0
102.467,102.54525,63,44,0
102.623505,102.780014,73,56,0
102.623505,102.780014,67,46,0
102.623505,102.780014,63,46,0
102.780014,102.85827,72,52,0
102.780014,102.85827,68,44,0
102.936516,103.01477,68,52,0
102.936516,103.01477,63,44,0
102.936516,103.01477,56,44,0
103.093025,103.249535,68,56,0
103.093025,103.249535,63,46,0
103.093025,103.249535,56,46,0
103.249535,103.32779,68,52,0
103.249535,103.32779,61,44,0
103.40604,103.48429,61,52,0
103.40604,103.48429,51,44,0
103.40604,103.48429,55,44,0
103.562546,103.719055,61,56,0
103.562546,103.719055,55,46,0
103.562546,103.719055,51,46,0
103.719055,103.7973,60,52,0
103.719055,103.7973,56,44,0
103.87649,103.95567,56,52,0
103.87649,103.95567,44,44,0
103.87649,103.95567,51,44,0
104.03485,104.197975,56,56,0
104.03485,104.197975,51,46,0
104.03485,104.197975,44,46,0
104.197975,104.27953,56,47,0
104.197975,104.27953,49,39,0
104.36109,104.43914,61,41,0
104.36109,104.43914,55,36,0
104.51718,104.67252,61,44,0
104.51718,104.67252,55,37,0
104.67252,104.75019,60,41,0
104.67252,104.75019,56,34,0
104.827866,104.90553,63,29,0
104.827866,104.90553,68,36,0
104.827866,104.90553,56,29,0
104.9832,105.13854,68,39,0
104.9832,105.13854,63,33,0
104.9832,105.13854,56,33,0
105.13854,105.21621,68,36,0
105.13854,105.21621,61,29,0
105.293884,105.37155,73,36,0
105.293884,105.37155,67,36,0
105.44922,105.60456,73,39,0
105.44922,105.60456,67,39,0
105.60456,105.68223,72,36,0
105.60456,105.68223,68,29,0
105.7599,105.83757,80,31,0
105.7599,105.83757,75,26,0
105.7599,105.83757,68,26,0
105.91524,106.07058,80,35,0
105.91524,106.07058,75,29,0
105.91524,106.07058,68,29,0
106.07058,106.14825,80,31,0
106.07058,106.14825,73,26,0
106.22592,106.30359,67,33,0
106.22592,106.30359,73,39,0
106.381256,106.5366,73,41,0
106.381256,106.5366,67,35,0
106.5366,106.614265,72,39,0
106.5366,106.614265,68,33,0
106.69384,106.773415,68,39,0
106.69384,106.773415,63,33,0
106.69384,106.773415,56,33,0
106.85299,107.01447,68,41,0
106.85299,107.01447,63,35,0
106.85299,107.01447,56,35,0
107.01447,107.095215,68,39,0
107.01447,107.095215,61,33,0
107.17596,107.25363,61,39,0
107.17596,107.25363,55,33,0
107.3313,107.49123,61,41,0
107.3313,107.49123,55,35,0
107.49123,107.57118,60,39,0
107.49123,107.57118,56,33,0
107.65651,107.74184,56,49,0
107.65651,107.74184,44,41,0
107.827156,107.98864,56,47,0
107.827156,107.98864,44,39,0
107.98864,108.06939,55,39,0
107.98864,108.06939,43,33,0
108.14783,108.22627,57,45,0
108.14783,108.22627,55,38,0
108.30472,108.46236,57,47,0
108.30472,108.46236,55,39,0
108.46236,108.541176,59,39,0
108.46236,108.541176,55,31,0
108.61853,108.695885,62,44,0
108.61853,108.695885,55,36,0
108.77323,108.92794,62,47,0
108.77323,108.92794,55,39,0
108.92794,109.00529,64,41,0
108.92794,109.00529,55,34,0
108.92794,109.00529,60,34,0
109.08264,109.15999,69,44,0
109.08264,109.15999,62,44,0
109.08264,109.15999,55,44,0
109.23734,109.392044,69,47,0
109.23734,109.392044,62,47,0
109.23734,109.392044,55,47,0
109.392044,109.4694,67,41,0
109.392044,109.4694,62,34,0
109.392044,109.4694,55,44,0
109.548584,109.62776,67,44,0
109.548584,109.62776,62,36,0
109.548584,109.62776,55,47,0
109.70695,109.86531,67,47,0
109.70695,109.86531,62,39,0
109.70695,109.86531,55,39,0
109.86531,110.023674,68,49,0
109.86531,110.023674,62,34,0
110.023674,110.18147,53,61,0
110.18147,110.337944,65,56,0
110.18147,110.337944,56,47,0
110.337944,110.49329,50,62,0
110.49329,110.64755,62,59,0
110.49329,110.64755,56,49,0
110.64755,110.80017,47,64,0
110.80017,110.954056,59,60,0
110.80017,110.954056,53,50,0
110.954056,111.10922,44,69,0
111.10922,111.2655,56,64,0
111.10922,111.2655,50,53,0
111.2655,111.42991,41,77,0
111.42991,111.598076,41,69,0
111.42991,111.598076,29,69,0
111.598076,111.76624,28,42,0
111.598076,111.76624,40,42,0
111.76624,111.92953,52,50,0
111.76624,111.92953,40,36,0
111.92953,112.089874,52,48,0
111.92953,112.089874,40,40,0
112.089874,112.25216,52,48,0
112.089874,112.25216,40,40,0
112.25216,112.4098,52,48,0
112.25216,112.4098,40,40,0
112.4098,112.569725,52,49,0
112.4098,112.569725,40,41,0
112.569725,112.73121,52,55,0
112.569725,112.73121,40,38,0
112.73121,112.88809,51,52,0
112.73121,112.88809,39,44,0
112.88809,113.04802,51,52,0
112.88809,113.04802,39,44,0
113.04802,113.20642,51,56,0
113.04802,113.20642,39,47,0
113.20642,113.358284,52,52,0
113.20642,113.358284,40,44,0
113.358284,113.5147,52,52,0
113.358284,113.5147,40,44,0
113.5147,113.59624,52,56,0
113.5147,113.59624,40,46,0
113.6755,113.75249,52,57,0
113.6755,113.75249,40,47,0
113.82947,113.90943,52,58,0
113.82947,113.90943,40,48,0
113.98939,114.0671,52,58,0
113.98939,114.0671,40,49,0
114.14481,114.22039,52,59,0
114.14481,114.22039,40,50,0
114.29596,114.37554,52,61,0
114.29596,114.37554,40,51,0
114.455124,114.535866,52,62,0
114.455124,114.535866,40,52,0
114.61661,114.69289,51,62,0
114.61661,114.69289,39,52,0
114.769165,114.847984,51,63,0
114.769165,114.847984,39,53,0
114.9268,115.00562,51,64,0
114.9268,115.00562,39,53,0
115.08445,115.15943,52,66,0
115.08445,115.15943,40,55,0
115.23483,115.31068,52,67,0
115.23483,115.31068,40,56,0
115.38704,115.47425,53,74,0
115.38704,115.47425,41,52,0
115.55859,115.72155,61,71,0
115.55859,115.72155,49,50,0
115.55859,115.72155,56,50,0
115.72155,115.88986,61,72,0
115.72155,115.88986,49,51,0
115.72155,115.88986,56,51,0
115.88986,116.053505,61,75,0
115.88986,116.053505,56,53,0
115.88986,116.053505,49,53,0
116.38432,116.56069,42,96,0
116.38432,116.56069,30,68,0
116.56069,116.72508,61,71,0
116.56069,116.72508,49,50,0
116.56069,116.72508,54,50,0
116.72508,116.89439,61,72,0
116.72508,116.89439,49,51,0
116.72508,116.89439,54,51,0
116.89439,117.060394,61,75,0
116.89439,117.060394,54,53,0
116.89439,117.060394,49,53,0
117.397285,117.57258,44,96,0
117.397285,117.57258,32,68,0
117.57258,117.73697,61,71,0
117.57258,117.73697,49,50,0
117.57258,117.73697,56,50,0
117.73697,117.90691,61,72,0
117.73697,117.90691,49,51,0
117.73697,117.90691,56,51,0
117.90691,118.072136,61,75,0
117.90691,118.072136,56,53,0
117.90691,118.072136,49,53,0
118.40257,118.58431,46,96,0
118.40257,118.58431,34,68,0
118.58431,118.75718,61,71,0
118.58431,118.75718,51,50,0
118.58431,118.75718,58,50,0
118.75718,118.93506,61,72,0
118.75718,118.93506,51,51,0
118.75718,118.93506,58,51,0
118.93506,119.11948,61,75,0
118.93506,119.11948,58,53,0
118.93506,119.11948,51,53,0
119.50024,121.53414,39,70,0
119.50024,121.53414,27,59,0
121.53414,123.676994,44,66,0
121.53414,123.676994,32,56,0
123.676994,123.80221,46,52,0
123.676994,123.80221,34,44,0
123.80221,123.927414,53,29,0
123.927414,124.05242,58,22,0
123.927414,124.05242,61,26,0
123.927414,124.05242,49,22,0
124.05242,124.177025,41,33,0
124.177025,124.301636,46,29,0
124.177025,124.301636,34,25,0
124.301636,124.42585,53,29,0
124.42585,124.549866,58,23,0
124.42585,124.549866,61,27,0
124.42585,124.549866,49,23,0
124.549866,124.67388,41,35,0
124.67388,124.79734,46,33,0
124.67388,124.79734,34,27,0
124.79734,124.920456,53,30,0
124.920456,125.043076,58,24,0
124.920456,125.043076,61,29,0
124.920456,125.043076,49,24,0
125.043076,125.16536,41,35,0
125.16536,125.28715,46,34,0
125.16536,125.28715,34,28,0
125.28715,125.4086,53,35,0
125.4086,125.52957,58,26,0
125.4086,125.52957,61,31,0
125.4086,125.52957,49,26,0
125.52957,125.650055,41,39,0
125.650055,125.77069,46,38,0
125.650055,125.77069,34,30,0
125.77069,125.89149,53,35,0
125.89149,126.01261,58,28,0
125.89149,126.01261,61,34,0
125.89149,126.01261,49,28,0
126.01261,126.13406,41,39,0
126.13406,126.25568,46,35,0
126.13406,126.25568,34,29,0
126.25568,126.37779,53,34,0
126.37779,126.50007,58,25,0
126.37779,126.50007,61,30,0
126.37779,126.50007,49,25,0
126.50007,126.62267,41,36,0
126.62267,126.74562,46,33,0
126.62267,126.74562,34,27,0
126.74562,126.86873,53,30,0
126.86873,126.991844,58,24,0
126.86873,126.991844,61,29,0
126.86873,126.991844,49,24,0
126.991844,127.11495,41,35,0
127.11495,127.238976,46,29,0
127.11495,127.238976,34,25,0
127.238976,127.36299,53,29,0
127.36299,127.48701,58,24,0
127.36299,127.48701,61,28,0
127.36299,127.48701,49,24,0
127.48701,127.61103,53,33,0
127.61103,127.735634,46,35,0
127.735634,127.86024,53,34,0
127.86024,127.98485,58,30,0
127.86024,127.98485,61,30,0
127.98485,128.10945,53,31,0
128.10945,128.2323,46,35,0
128.2323,128.35515,53,33,0
128.35515,128.47975,58,31,0
128.35515,128.47975,61,31,0
128.47975,128.60435,53,31,0
128.60435,128.72664,46,35,0
128.72664,128.84892,53,34,0
128.84892,128.97353,58,31,0
128.84892,128.97353,61,31,0
128.97353,129.09813,53,31,0
129.09813,129.22098,46,35,0
129.22098,129.34383,53,33,0
129.34383,129.46843,58,31,0
129.34383,129.46843,61,31,0
129.46843,129.59305,53,31,0
129.59305,129.7159,46,35,0
129.7159,129.83875,53,33,0
129.83875,129.96335,58,31,0
129.83875,129.96335,61,31,0
129.96335,130.08795,53,33,0
130.08795,130.21024,46,37,0
130.21024,130.3325,53,35,0
130.3325,130.4608,58,34,0
130.3325,130.4608,61,34,0
130.4608,130.58908,53,34,0
130.58908,130.71193,48,35,0
130.71193,130.83478,54,34,0
130.83478,130.95938,57,30,0
130.83478,130.95938,63,30,0
130.95938,131.08398,54,31,0
131.08398,131.20683,48,35,0
131.20683,131.32968,54,33,0
131.32968,131.45428,57,31,0
131.32968,131.45428,63,31,0
131.45428,131.5789,54,31,0
131.5789,131.70232,48,35,0
131.70232,131.82574,51,34,0
131.82574,131.95035,57,30,0
131.82574,131.95035,63,30,0
131.95035,132.07497,51,31,0
132.07497,132.19781,48,35,0
132.19781,132.32066,54,33,0
132.32066,132.44527,57,31,0
132.32066,132.44527,63,31,0
132.44527,132.56987,54,31,0
132.56987,132.6933,48,35,0
132.6933,132.81673,51,34,0
132.81673,132.94133,57,30,0
132.81673,132.94133,63,30,0
132.94133,133.06593,51,31,0
133.06593,133.18878,48,35,0
133.18878,133.31163,54,33,0
133.31163,133.43623,57,31,0
133.31163,133.43623,63,31,0
133.43623,133.56085,54,31,0
133.56085,133.68427,48,35,0
133.68427,133.8077,51,35,0
133.8077,133.9323,57,34,0
133.8077,133.9323,63,34,0
133.9323,134.05692,51,35,0
134.05692,134.17976,48,39,0
134.17976,134.30261,54,37,0
134.30261,134.43025,57,37,0
134.30261,134.43025,63,37,0
134.43025,134.5579,54,38,0
134.5579,134.68134,49,35,0
134.68134,134.80476,53,34,0
134.80476,134.92937,57,30,0
134.80476,134.92937,65,30,0
134.92937,135.05397,53,31,0
135.05397,135.17682,49,35,0
135.17682,135.29967,53,33,0
135.29967,135.42732,58,31,0
135.29967,135.42732,65,31,0
135.42732,135.55496,53,31,0
135.55496,135.67958,52,56,0
135.67958,135.80418,61,53,0
135.80418,135.93059,67,50,0
135.93059,136.057,52,51,0
136.057,136.17986,53,56,0
136.17986,136.3027,60,52,0
136.3027,136.43034,69,58,0
136.43034,136.558,53,51,0
136.558,136.6826,45,33,0
136.6826,136.8072,54,30,0
136.8072,136.93486,63,29,0
136.93486,137.06252,45,29,0
137.06252,137.18536,46,33,0
137.18536,137.30821,53,30,0
137.30821,137.43585,61,29,0
137.43585,137.5635,46,29,0
137.5635,137.68811,52,56,0
137.68811,137.81271,61,53,0
137.81271,137.94037,67,50,0
137.94037,138.06801,52,51,0
138.06801,138.19086,53,56,0
138.19086,138.31372,60,52,0
138.31372,138.44136,69,58,0
138.44136,138.56902,53,51,0
138.56902,138.69362,45,33,0
138.69362,138.81822,54,30,0
138.81822,138.94588,63,29,0
138.94588,139.07352,45,29,0
139.07352,139.19637,46,33,0
139.19637,139.31921,53,30,0
139.31921,139.46922,61,29,0
139.46922,139.61922,46,29,0
139.61922,139.74908,43,56,0
139.74908,139.87897,48,53,0
139.87897,140.0123,49,50,0
140.0123,140.14563,58,49,0
140.14563,140.27328,43,52,0
140.27328,140.40094,48,49,0
140.40094,140.53139,49,49,0
140.53139,140.66182,58,49,0
140.66182,140.78787,43,47,0
140.78787,140.91391,48,45,0
140.91391,141.04268,49,42,0
141.04268,141.17143,58,44,0
141.17143,141.29428,45,49,0
141.29428,141.41713,50,44,0
141.41713,141.54477,51,46,0
141.54477,141.67242,60,44,0
141.67242,141.79703,47,47,0
141.79703,141.92163,52,45,0
141.92163,142.04744,53,42,0
142.04744,142.17323,62,44,0
142.17323,142.29608,48,49,0
142.29608,142.41893,54,39,0
142.41893,142.54659,55,40,0
142.54659,142.67422,63,39,0
142.67422,142.79819,46,52,0
142.79819,142.92216,53,45,0
142.92216,143.04929,54,41,0
143.04929,143.17639,63,42,0
143.17639,143.30087,45,52,0
143.30087,143.42535,52,41,0
143.42535,143.56822,53,42,0
143.56822,143.71107,63,41,0
143.71107,143.8366,46,51,0
143.8366,143.96213,53,44,0
143.96213,144.09143,58,47,0
144.09143,144.22075,41,48,0
144.22075,144.34679,46,51,0
144.34679,144.47284,53,43,0
144.47284,144.6016,58,48,0
144.6016,144.73035,41,48,0
144.73035,144.8564,46,51,0
144.8564,144.98245,53,44,0
144.98245,145.11177,58,48,0
145.11177,145.24107,41,48,0
145.24107,145.3666,46,51,0
145.3666,145.49213,53,43,0
145.49213,145.62033,58,48,0
145.62033,145.74854,41,48,0
145.74854,145.872,46,51,0
145.872,145.99544,53,49,0
145.99544,146.12097,58,48,0
146.12097,146.24649,41,49,0
146.24649,146.36879,46,54,0
146.36879,146.49107,53,51,0
146.49107,146.61931,61,50,0
146.61931,146.74759,49,50,0
146.74759,146.87045,48,51,0
146.87045,146.9933,54,44,0
146.9933,147.1183,63,47,0
147.1183,147.2433,48,48,0
147.2433,147.36617,54,51,0
147.36617,147.48901,57,43,0
147.48901,147.6136,63,48,0
147.6136,147.73822,48,48,0
147.73822,147.86165,51,51,0
147.86165,147.98508,57,44,0
147.98508,148.10966,63,47,0
148.10966,148.23428,48,48,0
148.23428,148.35715,54,51,0
148.35715,148.48,57,43,0
148.48,148.60458,63,48,0
148.60458,148.72919,48,48,0
148.72919,148.85263,51,51,0
148.85263,148.97604,57,44,0
148.97604,149.10065,63,47,0
149.10065,149.22525,48,48,0
149.22525,149.34811,54,51,0
149.34811,149.47096,57,43,0
149.47096,149.59555,63,48,0
149.59555,149.72017,48,48,0
149.72017,149.8436,51,52,0
149.8436,149.96703,57,46,0
149.96703,150.09161,63,50,0
150.09161,150.21623,48,51,0
150.21623,150.3391,54,57,0
150.3391,150.46194,57,54,0
150.46194,150.58955,63,54,0
150.58955,150.7172,48,55,0
150.7172,150.84065,49,51,0
150.84065,150.96408,57,50,0
150.96408,151.08868,65,47,0
151.08868,151.21329,53,48,0
151.21329,151.33615,58,51,0
151.33615,151.459,61,49,0
151.459,151.58661,65,48,0
151.58661,151.71426,49,48,0
151.71426,151.83887,52,61,0
151.83887,151.96347,61,59,0
151.96347,152.08989,67,55,0
152.08989,152.2163,52,57,0
152.2163,152.33914,53,61,0
152.33914,152.46199,60,58,0
152.46199,152.58965,69,57,0
152.58965,152.71729,53,57,0
152.71729,152.8419,45,48,0
152.8419,152.9665,54,44,0
152.9665,153.09415,63,44,0
153.09415,153.2218,45,44,0
153.2218,153.34465,46,48,0
153.34465,153.4675,53,44,0
153.4675,153.59515,61,44,0
153.59515,153.7228,46,44,0
153.7228,153.8474,52,61,0
153.8474,153.97202,61,59,0
153.97202,154.09966,67,55,0
154.09966,154.22731,52,57,0
154.22731,154.35016,53,61,0
154.35016,154.473,60,58,0
154.473,154.60065,69,57,0
154.60065,154.7283,53,57,0
154.7283,154.8529,50,61,0
154.8529,154.97751,59,58,0
154.97751,155.10516,65,55,0
155.10516,155.23282,50,55,0
155.23282,155.35567,51,61,0
155.35567,155.47852,58,57,0
155.47852,155.63245,66,55,0
155.63245,155.78639,51,55,0
155.78639,155.92528,39,69,0
155.92528,156.06418,46,59,0
156.06418,156.19461,58,71,0
156.19461,156.32504,46,59,0
156.32504,156.45837,41,69,0
156.45837,156.5917,46,59,0
156.5917,156.72157,58,69,0
156.72157,156.85146,46,59,0
156.85146,156.98637,42,69,0
156.98637,157.1213,46,59,0
157.1213,157.25685,58,68,0
157.25685,157.39241,46,59,0
157.39241,157.53444,43,68,0
157.53444,157.67647,51,59,0
157.67647,157.8185,63,68,0
157.8185,157.96054,51,59,0
157.96054,158.10188,58,68,0
157.96054,158.10188,51,57,0
157.96054,158.10188,44,51,0
158.24323,158.38458,56,56,0
158.24323,158.38458,51,46,0
158.24323,158.38458,44,39,0
158.80862,159.09682,46,46,0
158.80862,159.09682,34,38,0
159.09682,159.67319,47,49,0
159.09682,159.67319,35,41,0
159.67319,160.10545,48,46,0
159.67319,160.10545,36,39,0
160.24956,161.52155,37,31,0
160.24956,162.14546,49,37,0
162.14546,162.76936,42,39,0
162.76936,164.36714,44,39,0
164.36714,164.69032,45,37,0
164.69032,165.01349,46,39,0
165.01349,165.35548,44,37,0
165.35548,166.66566,37,33,0
165.35548,167.30037,49,39,0
167.30037,167.93187,42,39,0
167.93187,169.52354,44,29,0
169.52354,169.83699,45,37,0
169.83699,170.05003,48,35,0
170.05003,170.26306,46,34,0
170.26306,170.4761,44,34,0
170.4761,171.11522,37,41,0
171.11522,171.75433,55,44,0
171.75433,172.37827,54,44,0
172.37827,172.84618,58,44,0
172.84618,173.00215,56,49,0
171.75433,173.00215,44,37,0
173.00215,173.62605,56,45,0
173.00215,173.62605,49,39,0
173.62605,174.26907,55,44,0
174.26907,174.893,44,37,0
174.893,175.45741,42,37,0
174.26907,175.53946,54,44,0
175.53946,176.19585,57,49,0
175.45741,176.19585,41,41,0
176.19585,176.85223,45,48,0
176.19585,176.85223,33,40,0
176.85223,177.50186,46,49,0
176.85223,177.50186,34,41,0
177.50186,177.96979,48,49,0
177.50186,177.96979,36,41,0
177.96979,178.12576,49,45,0
177.96979,178.12576,37,37,0
178.12576,178.76877,50,49,0
178.12576,178.76877,38,41,0
178.76877,179.24141,51,49,0
178.76877,179.24141,39,41,0
179.24141,179.39896,53,45,0
179.24141,179.39896,41,37,0
179.39896,180.02914,54,49,0
179.39896,180.02914,42,41,0
180.02914,180.71646,44,45,0
180.71646,180.92949,37,39,0
180.92949,181.14253,55,33,0
181.14253,181.35556,56,31,0
181.35556,181.5686,58,37,0
181.5686,181.78165,56,31,0
181.78165,181.99467,44,31,0
181.99467,182.20265,49,39,0
182.20265,182.41061,55,35,0
182.41061,182.61858,56,35,0
182.61858,182.83162,58,37,0
182.83162,183.04898,56,33,0
183.04898,183.27066,44,33,0
183.27066,183.47961,51,39,0
183.47961,183.68858,55,35,0
183.68858,183.89755,56,35,0
183.89755,184.11058,58,37,0
184.11058,184.32362,56,33,0
184.32362,184.53667,44,33,0
184.53667,184.74463,54,39,0
184.74463,184.95259,55,35,0
184.95259,185.16055,56,35,0
185.16055,185.37465,58,37,0
185.37465,185.5931,56,33,0
185.5931,185.81592,44,33,0
185.81592,185.9757,49,39,0
186.13547,186.29524,55,34,0
186.29524,186.45503,56,33,0
186.45503,186.6148,58,37,0
186.6148,186.7586,56,31,0
186.77458,186.93436,56,37,0
186.93436,187.09415,44,37,0
187.09415,187.2501,49,39,0
187.40608,187.56206,55,35,0
187.56206,187.71803,56,35,0
187.71803,187.8778,58,37,0
187.8778,188.02162,56,33,0
188.0376,188.19737,56,37,0
188.19737,188.35715,44,31,0
188.35715,188.51387,51,39,0
188.6706,188.82732,55,35,0
188.82732,188.98404,56,35,0
188.98404,189.14383,58,37,0
189.14383,189.28763,56,33,0
189.3036,189.46338,56,37,0
189.46338,189.62315,44,33,0
189.62315,189.9351,54,39,0
189.9351,190.09108,55,35,0
190.09108,190.24706,56,35,0
190.24706,190.40762,58,39,0
190.40762,190.55212,56,35,0
190.56818,190.73877,56,39,0
190.73877,190.90936,44,35,0
190.90936,191.06993,49,44,0
191.06993,191.2305,56,39,0
191.2305,191.39105,58,39,0
191.39105,191.55162,56,39,0
191.55162,191.70985,65,44,0
191.70985,191.86807,56,40,0
191.86807,192.0263,58,40,0
192.0263,192.18454,56,41,0
192.18454,192.34276,44,45,0
192.34276,192.50099,56,40,0
192.50099,192.65923,58,41,0
192.65923,192.81744,56,41,0
192.81744,192.97342,66,47,0
192.97342,193.1294,56,44,0
193.1294,193.28537,58,44,0
193.28537,193.44672,56,44,0
193.44672,193.60493,49,48,0
193.60493,193.76317,56,42,0
193.76317,193.92139,58,42,0
193.92139,194.07962,56,42,0
194.07962,194.23785,65,49,0
194.23785,194.39607,56,46,0
194.39607,194.5543,58,46,0
194.5543,194.71252,56,46,0
194.71252,194.87076,44,50,0
194.87076,195.02899,56,46,0
195.02899,195.18721,58,46,0
195.18721,195.34544,56,46,0
195.34544,195.50368,66,52,0
195.50368,195.6619,56,49,0
195.6619,195.82686,58,49,0
195.82686,195.99182,56,49,0
195.99182,196.15678,45,57,0
196.15678,196.32175,52,51,0
196.32175,196.48671,53,51,0
196.48671,196.65167,60,51,0
196.65167,196.81242,57,58,0
196.81242,196.97318,64,53,0
196.97318,197.13393,65,53,0
197.13393,197.2947,72,53,0
197.2947,197.45142,46,59,0
197.45142,197.60814,52,52,0
197.60814,197.76947,53,52,0
197.76947,197.93082,61,53,0
197.93082,198.09216,58,60,0
198.09216,198.25351,64,55,0
198.25351,198.41484,65,55,0
198.41484,198.57619,73,56,0
198.57619,198.73753,48,61,0
198.73753,198.89888,55,55,0
198.89888,199.06021,56,55,0
199.06021,199.22156,63,55,0
199.22156,199.37979,60,62,0
199.37979,199.53801,67,57,0
199.53801,199.69624,68,57,0
199.69624,199.85446,75,57,0
199.85446,200.00824,50,62,0
200.00824,200.162,57,56,0
200.162,200.32024,58,57,0
200.32024,200.47845,65,57,0
200.47845,200.63669,62,63,0
200.63669,200.79492,69,58,0
200.79492,200.95314,70,59,0
201.11137,201.26735,39,59,0
201.26735,201.42332,46,52,0
201.42332,201.5831,51,52,0
201.5831,201.74287,58,52,0
201.74287,201.8996,41,59,0
201.8996,202.05632,46,52,0
202.05632,202.21689,50,52,0
202.21689,202.37746,56,52,0
202.37746,202.53343,42,62,0
202.53343,202.68939,46,52,0
202.68939,202.84918,51,52,0
202.84918,203.00896,58,52,0
203.00896,203.16493,43,61,0
203.16493,203.3209,49,52,0
203.3209,203.47688,52,52,0
203.47688,203.63286,58,52,0
203.63286,203.78882,44,59,0
203.78882,203.9448,49,52,0
203.9448,204.10536,53,52,0
204.10536,204.26593,61,52,0
204.26593,204.4265,46,58,0
204.4265,204.58707,49,52,0
204.58707,204.74762,54,52,0
204.74762,204.90819,61,52,0
204.90819,205.06876,44,52,0
205.06876,205.22932,51,47,0
205.22932,205.38754,56,47,0
205.38754,205.54578,61,47,0
205.54578,205.70027,42,55,0
205.70027,205.85477,48,47,0
205.85477,206.013,51,47,0
206.013,206.17122,56,47,0
206.17122,206.3272,41,55,0
206.3272,206.48317,44,47,0
206.48317,206.6414,49,47,0
206.6414,206.79962,56,47,0
206.79962,206.96019,46,56,0
206.96019,207.12076,49,47,0
207.12076,207.28133,54,47,0
207.28133,207.4419,61,47,0
207.4419,207.60245,45,55,0
207.60245,207.76302,49,47,0
207.76302,207.91826,54,47,0
207.91826,208.07352,61,47,0
208.07352,208.23329,44,51,0
208.23329,208.39307,51,47,0
208.39307,208.55766,60,47,0
208.55766,208.72227,42,47,0
208.72227,208.8805,41,56,0
208.8805,209.03873,44,47,0
209.03873,209.1985,49,46,0
209.1985,209.35828,56,46,0
209.35828,209.51807,46,53,0
209.51807,209.67784,49,45,0
209.67784,209.83762,54,44,0
209.83762,209.99739,61,44,0
209.99739,210.162,44,50,0
210.162,210.3266,51,42,0
210.3266,210.4912,56,42,0
210.4912,210.65579,61,41,0
210.65579,210.82378,44,49,0
210.82378,210.99174,51,41,0
210.99174,211.15971,56,40,0
211.15971,211.32768,60,40,0
211.32768,211.51117,56,56,0
211.32768,211.51117,49,56,0
211.32768,211.51117,61,66,0
211.51117,211.60292,61,51,0
211.51117,211.60292,55,42,0
211.51117,211.60292,51,42,0
211.69102,211.77913,51,42,0
211.69102,211.77913,55,42,0
211.69102,211.77913,61,51,0
211.86723,212.03566,51,46,0
211.86723,212.03566,55,46,0
211.86723,212.03566,61,56,0
212.03566,212.11987,60,51,0
212.03566,212.11987,56,42,0
212.20216,212.28447,56,42,0
212.20216,212.28447,68,51,0
212.20216,212.28447,63,42,0
212.36678,212.52861,63,46,0
212.36678,212.52861,56,46,0
212.36678,212.52861,68,56,0
212.52861,212.60954,68,51,0
212.52861,212.60954,61,42,0
212.6873,212.76506,67,51,0
212.6873,212.76506,63,42,0
212.6873,212.76506,73,51,0
212.84282,213.00249,73,56,0
212.84282,213.00249,67,56,0
212.84282,213.00249,63,46,0
213.00249,213.08232,72,51,0
213.00249,213.08232,68,42,0
213.16075,213.23918,68,42,0
213.16075,213.23918,75,42,0
213.16075,213.23918,80,51,0
213.31761,213.47626,75,46,0
213.31761,213.47626,80,56,0
213.31761,213.47626,68,46,0
213.47626,213.55557,73,42,0
213.47626,213.55557,80,51,0
213.63329,213.71098,67,44,0
213.63329,213.71098,73,52,0
213.63329,213.71098,63,44,0
213.7887,213.9441,63,46,0
213.7887,213.9441,67,46,0
213.7887,213.9441,73,56,0
213.9441,214.02182,72,52,0
213.9441,214.02182,68,44,0
214.09952,214.17723,68,52,0
214.09952,214.17723,63,44,0
214.09952,214.17723,56,44,0
214.25493,214.41034,56,46,0
214.25493,214.41034,63,46,0
214.25493,214.41034,68,56,0
214.41034,214.48805,61,44,0
214.41034,214.48805,68,52,0
214.56575,214.64346,55,44,0
214.56575,214.64346,51,44,0
214.56575,214.64346,61,52,0
214.72118,214.87659,51,46,0
214.72118,214.87659,55,46,0
214.72118,214.87659,61,56,0
214.87659,214.95428,60,52,0
214.87659,214.95428,56,44,0
215.03389,215.11348,51,44,0
215.03389,215.11348,44,44,0
215.03389,215.11348,56,52,0
215.19308,215.35707,44,46,0
215.19308,215.35707,51,46,0
215.19308,215.35707,56,56,0
215.35707,215.43907,56,47,0
215.35707,215.43907,49,39,0
215.52106,215.59952,61,41,0
215.52106,215.59952,55,36,0
215.67798,215.83415,61,44,0
215.67798,215.83415,55,37,0
215.83415,215.91223,60,41,0
215.83415,215.91223,56,34,0
215.99031,216.06839,56,29,0
215.99031,216.06839,68,36,0
215.99031,216.06839,63,29,0
216.14648,216.30264,56,33,0
216.14648,216.30264,63,33,0
216.14648,216.30264,68,39,0
216.30264,216.38072,68,36,0
216.30264,216.38072,61,29,0
216.45882,216.5369,73,36,0
216.45882,216.5369,67,36,0
216.61497,216.77113,73,39,0
216.61497,216.77113,67,39,0
216.77113,216.84923,68,29,0
216.77113,216.84923,72,36,0
216.9273,217.00539,80,31,0
216.9273,217.00539,75,26,0
216.9273,217.00539,68,26,0
217.08347,217.23964,68,29,0
217.08347,217.23964,75,29,0
217.08347,217.23964,80,35,0
217.23964,217.31772,80,31,0
217.23964,217.31772,73,26,0
217.3958,217.47388,67,33,0
217.3958,217.47388,73,39,0
217.55196,217.70813,73,41,0
217.55196,217.70813,67,35,0
217.70813,217.78621,72,39,0
217.70813,217.78621,68,33,0
217.8662,217.9462,56,33,0
217.8662,217.9462,63,33,0
217.8662,217.9462,68,39,0
218.02618,218.18854,56,35,0
218.02618,218.18854,68,41,0
218.02618,218.18854,63,35,0
218.18854,218.26971,68,39,0
218.18854,218.26971,61,33,0
218.35089,218.42897,61,39,0
218.35089,218.42897,55,33,0
218.50705,218.66815,61,41,0
218.50705,218.66815,55,35,0
218.66815,218.7487,60,39,0
218.66815,218.7487,56,33,0
218.83273,218.91678,56,49,0
218.83273,218.91678,44,41,0
219.00082,219.16318,56,47,0
219.00082,219.16318,44,39,0
219.16318,219.24435,55,39,0
219.16318,219.24435,43,33,0
219.32283,219.40132,57,45,0
219.32283,219.40132,55,38,0
219.47981,219.63904,55,39,0
219.47981,219.63904,57,47,0
219.63904,219.71866,55,31,0
219.63904,219.71866,59,39,0
219.79642,219.87418,55,36,0
219.79642,219.87418,62,44,0
219.95195,220.10747,55,39,0
219.95195,220.10747,62,47,0
220.10747,220.18523,64,41,0
220.10747,220.18523,60,34,0
220.10747,220.18523,55,34,0
220.26299,220.34074,62,44,0
220.26299,220.34074,55,44,0
220.26299,220.34074,69,44,0
220.4185,220.57402,62,47,0
220.4185,220.57402,55,47,0
220.4185,220.57402,69,47,0
220.57402,220.6518,55,44,0
220.57402,220.6518,67,41,0
220.57402,220.6518,62,34,0
220.73138,220.81099,67,44,0
220.73138,220.81099,55,47,0
220.73138,220.81099,62,36,0
220.89058,221.04979,62,39,0
220.89058,221.04979,67,47,0
220.89058,221.04979,55,39,0
221.04979,221.20898,62,34,0
221.04979,221.20898,68,49,0
221.20898,221.3676,53,61,0
221.3676,221.5249,56,47,0
221.3676,221.5249,65,56,0
221.5249,221.68108,50,62,0
221.68108,221.83615,62,59,0
221.68108,221.83615,56,49,0
221.83615,221.98958,47,64,0
221.98958,222.14427,59,60,0
221.98958,222.14427,53,50,0
222.14427,222.30026,44,69,0
222.30026,222.45738,56,64,0
222.30026,222.45738,50,53,0
222.45738,222.62265,41,77,0
222.62265,222.79169,41,69,0
222.62265,222.79169,29,69,0
222.79169,222.95808,28,42,0
222.79169,222.95808,40,42,0
222.95808,223.1209,40,36,0
222.95808,223.1209,52,50,0
223.1209,223.28207,40,40,0
223.1209,223.28207,52,48,0
223.28207,223.4452,40,40,0
223.28207,223.4452,52,48,0
223.4452,223.60368,52,48,0
223.4452,223.60368,40,40,0
223.60368,223.76443,52,49,0
223.60368,223.76443,40,41,0
223.76443,223.92679,52,55,0
223.76443,223.92679,40,38,0
223.92679,224.08452,51,52,0
223.92679,224.08452,39,44,0
224.08452,224.24527,51,52,0
224.08452,224.24527,39,44,0
224.24527,224.40451,51,56,0
224.24527,224.40451,39,47,0
224.40451,224.55717,52,52,0
224.40451,224.55717,40,44,0
224.55717,224.71442,40,44,0
224.55717,224.71442,52,52,0
224.71442,224.79639,52,56,0
224.71442,224.79639,40,46,0
224.87605,224.95346,52,57,0
224.87605,224.95346,40,47,0
225.03085,225.11122,52,58,0
225.03085,225.11122,40,48,0
225.1916,225.26973,52,58,0
225.1916,225.26973,40,49,0
225.34784,225.42381,52,59,0
225.34784,225.42381,40,50,0
225.4998,225.5798,40,51,0
225.4998,225.5798,52,61,0
225.65979,225.74097,52,62,0
225.65979,225.74097,40,52,0
225.82214,225.89883,51,62,0
225.82214,225.89883,39,52,0
225.97551,226.05475,51,63,0
225.97551,226.05475,39,53,0
226.13397,226.21321,39,53,0
226.13397,226.21321,51,64,0
226.29243,226.36783,40,55,0
226.29243,226.36783,52,66,0
226.44362,226.51987,40,56,0
226.44362,226.51987,52,67,0
226.59663,226.68727,41,52,0
226.59663,226.68727,53,74,0
226.7729,226.93419,61,71,0
226.7729,226.93419,49,50,0
226.7729,226.93419,56,50,0
226.93419,227.1012,61,72,0
226.93419,227.1012,49,51,0
226.93419,227.1012,56,51,0
227.1012,227.26343,61,75,0
227.1012,227.26343,56,53,0
227.1012,227.26343,49,53,0
227.59024,227.76027,42,96,0
227.59024,227.76027,30,68,0
227.76027,227.92229,61,71,0
227.76027,227.92229,54,50,0
227.76027,227.92229,49,50,0
227.92229,228.0893,61,72,0
227.92229,228.0893,49,51,0
227.92229,228.0893,54,51,0
228.0893,228.2531,61,75,0
228.0893,228.2531,54,53,0
228.0893,228.2531,49,53,0
228.58923,228.7652,44,96,0
228.58923,228.7652,32,68,0
228.7652,228.92793,49,50,0
228.7652,228.92793,61,71,0
228.7652,228.92793,56,50,0
228.92793,229.09573,56,51,0
228.92793,229.09573,49,51,0
228.92793,229.09573,61,72,0
229.09573,229.25874,49,53,0
229.09573,229.25874,56,53,0
229.09573,229.25874,61,75,0
229.58478,229.76418,46,96,0
229.58478,229.76418,34,68,0
229.76418,229.9375,61,71,0
229.76418,229.9375,51,50,0
229.76418,229.9375,58,50,0
229.9375,230.11504,58,51,0
229.9375,230.11504,51,51,0
229.9375,230.11504,61,72,0
230.11504,230.29698,51,53,0
230.11504,230.29698,58,53,0
230.11504,230.29698,61,75,0
230.67789,232.74559,39,70,0
230.67789,232.74559,27,59,0
232.74559,234.96382,44,66,0
232.74559,234.96382,32,56,0
234.96382,235.10208,33,56,0
234.96382,235.10208,45,66,0
235.10208,235.24033,30,50,0
235.10208,235.24033,42,60,0
235.37857,235.51073,44,66,0
235.37857,235.51073,32,56,0
235.51073,235.64899,45,62,0
235.51073,235.64899,33,52,0
235.64899,235.78723,42,62,0
235.64899,235.78723,30,52,0
236.0716,236.2092,45,44,0
236.0716,236.2092,33,37,0
236.2092,236.34682,42,39,0
236.2092,236.34682,30,33,0
236.48444,236.61717,44,44,0
236.48444,236.61717,32,37,0
236.61717,236.75543,45,39,0
236.61717,236.75543,33,33,0
236.75543,236.89368,42,39,0
236.75543,236.89368,30,33,0
237.18213,237.32431,45,44,0
237.18213,237.32431,33,37,0
237.32431,237.46649,42,39,0
237.32431,237.46649,30,34,0
237.60867,237.74504,44,44,0
237.60867,237.74504,32,37,0
237.74504,237.89282,45,39,0
237.74504,237.89282,33,34,0
237.89282,238.0406,54,39,0
237.89282,238.0406,42,34,0
238.38945,238.96637,54,41,0
238.96637,239.5245,38,34,0
239.5245,240.65398,55,37,0
239.5245,240.65398,50,30,0
239.5245,240.65398,43,30,0
240.65398,241.07454,50,39,0
240.65398,241.07454,38,33,0
241.07454,241.21472,43,35,0
241.07454,241.21472,31,29,0
241.21472,241.77547,43,37,0
241.21472,241.77547,31,30,0
241.77547,241.91371,38,39,0
241.91371,242.05197,31,36,0
242.19022,242.32295,33,39,0
242.32295,242.46121,35,36,0
242.46121,242.59946,31,36,0
242.88248,243.01945,38,35,0
242.88248,243.01945,50,41,0
243.01945,243.15645,31,31,0
243.01945,243.15645,43,39,0
243.29344,243.42331,33,36,0
243.29344,243.42331,45,42,0
243.42331,243.55905,35,33,0
243.42331,243.55905,47,39,0
243.55905,243.6948,31,33,0
243.55905,243.6948,43,39,0
243.97258,244.10301,38,38,0
243.97258,244.10301,50,46,0
244.10301,244.23344,32,36,0
244.10301,244.23344,44,42,0
244.36388,244.48836,33,40,0
244.36388,244.48836,45,47,0
244.48836,244.6229,35,36,0
244.48836,244.6229,47,42,0
244.6229,244.75587,32,37,0
244.6229,244.75587,44,45,0
245.0145,245.14252,38,48,0
245.0145,245.14252,50,58,0
245.14252,245.2698,32,45,0
245.14252,245.2698,44,53,0
245.3964,245.51884,33,49,0
245.3964,245.51884,45,60,0
245.51884,245.65277,35,46,0
245.51884,245.65277,47,53,0
245.65277,245.7867,32,47,0
245.65277,245.7867,44,56,0
246.04987,246.18439,38,52,0
246.04987,246.18439,50,63,0
246.18439,246.31892,35,49,0
246.18439,246.31892,47,58,0
246.45345,246.58003,37,57,0
246.45345,246.58003,49,67,0
246.58003,246.72289,38,51,0
246.58003,246.72289,50,60,0
246.72289,246.86574,47,52,0
246.72289,246.86574,59,62,0
247.16278,247.72353,56,40,0
247.72353,248.27399,40,36,0
248.27399,248.83473,52,33,0
248.27399,249.39548,57,39,0
248.27399,249.39548,45,33,0
249.39548,249.53061,45,39,0
249.39548,249.53061,33,33,0
249.53061,249.66574,41,36,0
249.53061,249.66574,29,29,0
249.80089,249.928,43,39,0
249.80089,249.928,31,33,0
249.928,250.06436,45,35,0
249.928,250.06436,33,29,0
250.06436,250.20073,41,35,0
250.06436,250.20073,29,29,0
248.83473,250.49199,53,33,0
250.49199,251.05742,53,38,0
251.05742,251.61298,54,39,0
250.49199,251.61298,45,31,0
251.61298,252.17905,54,41,0
252.17905,252.7372,55,42,0
251.61298,252.7372,47,35,0
252.7372,252.87672,47,41,0
252.7372,252.87672,35,35,0
252.87672,253.01627,43,38,0
252.87672,253.01627,31,31,0
253.15579,253.28346,45,46,0
253.15579,253.28346,33,38,0
253.28346,253.42838,47,41,0
253.28346,253.42838,35,35,0
253.42838,253.5733,43,42,0
253.42838,253.5733,31,36,0
253.85109,253.99193,48,41,0
253.85109,253.99193,36,35,0
253.99193,254.13278,43,38,0
253.99193,254.13278,31,31,0
254.27362,254.40936,48,46,0
254.27362,254.40936,36,38,0
254.40936,254.55022,50,41,0
254.40936,254.55022,38,35,0
254.55022,254.69106,43,42,0
254.55022,254.69106,31,36,0
254.98341,255.12427,51,35,0
254.98341,255.12427,39,29,0
255.12427,255.2651,43,31,0
255.12427,255.2651,31,26,0
255.41145,255.5578,50,35,0
255.41145,255.5578,38,29,0
255.5578,255.69669,51,30,0
255.5578,255.69669,39,26,0
255.69669,255.83557,56,30,0
255.69669,255.83557,44,26,0
256.12128,256.2655,53,35,0
256.12128,256.2655,41,29,0
256.2655,256.40976,50,31,0
256.2655,256.40976,38,26,0
256.554,256.6982,51,35,0
256.554,256.6982,39,29,0
256.6982,256.84244,53,30,0
256.6982,256.84244,41,26,0
256.84244,256.98666,62,30,0
256.84244,256.98666,50,26,0
257.27515,257.45612,40,42,0
257.63965,257.82568,55,39,0
257.45612,257.82568,45,39,0
257.82568,258.0075,54,44,0
258.0075,258.1919,45,40,0
258.1919,258.37878,38,40,0
258.37878,258.55817,41,44,0
258.74002,258.92435,57,39,0
258.55817,258.92435,47,38,0
258.92435,259.10373,56,44,0
259.10373,259.28558,47,39,0
259.28558,259.4699,40,39,0
259.4699,259.6493,43,46,0
259.6493,259.83115,49,40,0
259.83115,260.01547,59,40,0
260.01547,260.19482,42,49,0
260.19482,260.37753,49,42,0
260.37753,260.5636,58,42,0
260.5636,260.7452,43,53,0
260.7452,260.92932,52,58,0
260.92932,261.11603,61,60,0
261.11603,261.3054,44,66,0
261.3054,261.49747,52,69,0
261.49747,261.69354,61,74,0
261.69354,261.8371,44,59,0
261.69354,261.8371,32,49,0
261.8371,261.98062,40,53,0
261.8371,261.98062,28,44,0
262.11826,262.2481,42,62,0
262.11826,262.2481,30,51,0
262.2481,262.39517,44,56,0
262.2481,262.39517,32,46,0
262.39517,262.54224,40,57,0
262.39517,262.54224,28,47,0
262.82794,262.9601,44,59,0
262.82794,262.9601,32,49,0
262.9601,263.10028,41,53,0
262.9601,263.10028,29,44,0
263.24048,263.3709,43,62,0
263.24048,263.3709,31,51,0
263.3709,263.51175,44,56,0
263.3709,263.51175,32,46,0
263.51175,263.65262,41,57,0
263.51175,263.65262,29,47,0
263.94498,264.0783,46,46,0
263.94498,264.0783,34,38,0
264.0783,264.21915,43,42,0
264.0783,264.21915,31,35,0
264.36066,264.50217,44,51,0
264.36066,264.50217,32,41,0
264.50217,264.6417,46,46,0
264.50217,264.6417,34,39,0
264.6417,264.78125,55,47,0
264.6417,264.78125,43,40,0
265.06833,265.21255,48,44,0
265.06833,265.21255,36,36,0
265.21255,265.35678,45,39,0
265.21255,265.35678,33,31,0
265.501,265.64523,46,44,0
265.501,265.64523,34,36,0
265.64523,265.78946,48,38,0
265.64523,265.78946,36,31,0
265.78946,265.93372,60,38,0
265.78946,265.93372,48,31,0
266.21277,266.39377,39,55,0
266.57773,266.76465,57,42,0
266.39377,266.76465,47,42,0
266.76465,266.94812,56,48,0
266.94812,267.1329,47,44,0
267.1329,267.31894,40,44,0
267.31894,267.4991,41,48,0
267.68094,267.86444,59,42,0
267.4991,267.86444,49,41,0
267.86444,268.043,58,48,0
268.043,268.22403,49,42,0
268.22403,268.40753,42,42,0
268.40753,268.5877,43,50,0
268.77124,268.95816,61,44,0
268.5877,268.95816,51,44,0
268.95816,269.14508,44,53,0
269.14508,269.332,51,46,0
269.332,269.5185,60,46,0
269.5185,269.70474,45,58,0
269.70474,269.89343,54,63,0
269.89343,270.0846,63,66,0
270.0846,270.27808,48,71,0
270.27808,270.47415,54,74,0
270.47415,270.6729,62,81,0
270.6729,270.85364,46,86,0
270.6729,270.85364,34,73,0
270.85364,271.037,58,72,0
270.85364,271.037,50,61,0
271.037,271.22293,62,80,0
271.037,271.22293,55,68,0
271.22293,271.40536,67,80,0
271.22293,271.40536,58,68,0
271.40536,271.58734,62,75,0
271.40536,271.58734,55,63,0
271.67813,271.76892,38,66,0
271.67813,271.76892,26,56,0
271.76892,271.94965,38,86,0
271.76892,271.94965,26,73,0
271.94965,272.133,58,72,0
271.94965,272.133,50,61,0
272.133,272.31894,62,75,0
272.133,272.31894,55,63,0
272.31894,272.50137,67,75,0
272.31894,272.50137,58,63,0
272.50137,272.68555,62,71,0
272.50137,272.68555,55,60,0
272.68555,272.8715,58,62,0
272.68555,272.8715,50,52,0
272.8715,273.05225,58,82,0
272.8715,273.05225,46,70,0
273.05225,273.23557,61,70,0
273.05225,273.23557,53,59,0
273.23557,273.4215,65,77,0
273.23557,273.4215,58,66,0
273.4215,273.60394,70,77,0
273.4215,273.60394,61,66,0
273.60394,273.78595,65,72,0
273.60394,273.78595,58,61,0
273.87674,273.96753,49,63,0
273.87674,273.96753,37,53,0
273.96753,274.14825,49,82,0
273.96753,274.14825,37,70,0
274.14825,274.3316,61,70,0
274.14825,274.3316,53,59,0
274.3316,274.51755,65,72,0
274.3316,274.51755,58,61,0
274.51755,274.69998,70,72,0
274.51755,274.69998,61,61,0
274.69998,274.88416,65,69,0
274.69998,274.88416,58,58,0
274.88416,275.0701,61,60,0
274.88416,275.0701,53,50,0
275.0701,275.25082,44,86,0
275.0701,275.25082,32,73,0
275.25082,275.43417,60,72,0
275.25082,275.43417,53,61,0
275.43417,275.62012,65,80,0
275.43417,275.62012,56,68,0
275.62012,275.80255,68,80,0
275.62012,275.80255,60,68,0
275.80255,275.98456,65,75,0
275.80255,275.98456,56,63,0
276.09802,276.18872,24,56,0
276.1661,276.18872,24,73,0
276.09802,276.18872,36,66,0
276.1661,276.18872,36,86,0
276.34686,276.53018,60,72,0
276.34686,276.53018,53,61,0
276.53018,276.71613,65,75,0
276.53018,276.71613,56,63,0
276.71613,276.89856,68,75,0
276.71613,276.89856,60,63,0
276.89856,277.08273,65,71,0
276.89856,277.08273,56,60,0
277.08273,277.26868,60,62,0
277.08273,277.26868,53,52,0
277.26868,277.44943,56,86,0
277.26868,277.44943,44,73,0
277.44943,277.63275,60,72,0
277.44943,277.63275,52,61,0
277.63275,277.8187,64,80,0
277.63275,277.8187,56,68,0
277.8187,278.00113,68,80,0
277.8187,278.00113,60,68,0
278.00113,278.18314,64,75,0
278.00113,278.18314,56,63,0
278.29663,278.3873,36,56,0
278.36472,278.3873,36,73,0
278.29663,278.3873,48,66,0
278.36472,278.3873,48,86,0
278.54544,278.7288,60,72,0
278.54544,278.7288,52,61,0
278.7288,278.91473,64,75,0
278.7288,278.91473,56,63,0
278.91473,279.09717,68,75,0
278.91473,279.09717,60,63,0
279.09717,279.28134,64,71,0
279.09717,279.28134,56,60,0
279.28134,279.4673,60,62,0
279.28134,279.4673,52,52,0
279.4673,279.648,55,86,0
279.4673,279.648,43,73,0
279.648,279.83136,64,72,0
279.648,279.83136,55,61,0
279.83136,280.0173,67,80,0
279.83136,280.0173,59,68,0
280.0173,280.19974,71,80,0
280.0173,280.19974,64,68,0
280.19974,280.38174,67,75,0
280.19974,280.38174,59,63,0
280.4952,280.5859,35,56,0
280.5633,280.5859,35,73,0
280.4952,280.5859,47,66,0
280.5633,280.5859,47,86,0
280.74405,280.92737,64,72,0
280.74405,280.92737,55,61,0
280.92737,281.1133,67,75,0
280.92737,281.1133,59,63,0
281.1133,281.29575,71,75,0
281.1133,281.29575,64,63,0
281.29575,281.47995,67,71,0
281.29575,281.47995,59,60,0
281.47995,281.6659,64,62,0
281.47995,281.6659,55,52,0
281.6659,281.84662,55,86,0
281.6659,281.84662,43,73,0
281.84662,282.02994,59,72,0
281.84662,282.02994,50,61,0
282.02994,282.21588,62,80,0
282.02994,282.21588,55,68,0
282.21588,282.39832,67,80,0
282.21588,282.39832,59,68,0
282.39832,282.58032,62,75,0
282.39832,282.58032,55,63,0
282.69382,282.7845,31,56,0
282.7619,282.7845,31,73,0
282.69382,282.7845,43,66,0
282.7619,282.7845,43,86,0
282.94263,283.12598,59,72,0
282.94263,283.12598,50,61,0
283.12598,283.31192,62,75,0
283.12598,283.31192,55,63,0
283.31192,283.49435,67,75,0
283.31192,283.49435,59,63,0
283.49435,283.67853,62,71,0
283.49435,283.67853,55,60,0
283.67853,283.86447,59,62,0
283.67853,283.86447,50,52,0
283.86447,284.0452,54,86,0
283.86447,284.0452,42,73,0
284.0452,284.22855,57,72,0
284.0452,284.22855,50,61,0
284.22855,284.4145,62,80,0
284.22855,284.4145,54,68,0
284.4145,284.59692,66,80,0
284.4145,284.59692,57,68,0
284.59692,284.77893,62,75,0
284.59692,284.77893,54,63,0
284.77893,284.96048,57,66,0
284.77893,284.96048,50,56,0
284.96048,285.14124,53,86,0
284.96048,285.14124,41,73,0
285.14124,285.32455,57,72,0
285.14124,285.32455,50,61,0
285.32455,285.5105,62,75,0
285.32455,285.5105,53,63,0
285.5105,285.69293,65,75,0
285.5105,285.69293,57,63,0
285.69293,285.87714,62,71,0
285.69293,285.87714,53,60,0
285.87714,286.06308,57,62,0
285.87714,286.06308,50,52,0
286.06308,286.2438,53,77,0
286.06308,286.2438,41,64,0
286.2438,286.42712,57,64,0
286.2438,286.42712,48,55,0
286.42712,286.61307,60,71,0
286.42712,286.61307,53,60,0
286.61307,286.7955,65,71,0
286.61307,286.7955,57,60,0
286.7955,286.9793,60,68,0
286.7955,286.9793,53,57,0
287.0719,287.16452,41,59,0
287.0719,287.16452,29,49,0
287.16452,287.35056,41,77,0
287.16452,287.35056,29,64,0
287.35056,287.53882,57,64,0
287.35056,287.53882,48,55,0
287.53882,287.72928,60,67,0
287.53882,287.72928,53,57,0
287.72928,287.911,57,57,0
287.9145,288.09833,41,51,0
288.09833,288.28183,29,53,0
288.28183,288.55743,39,57,0
288.28183,288.55743,27,57,0
288.8488,288.98495,39,46,0
288.98495,289.12115,42,39,0
289.12115,289.26196,54,39,0
289.26196,289.40277,47,39,0
289.40277,289.53897,42,47,0
289.53897,289.67514,47,42,0
289.67514,289.81528,59,42,0
289.81528,289.9554,51,44,0
289.9554,290.09158,47,49,0
290.09158,290.22775,51,42,0
290.22775,290.36722,63,44,0
290.36722,290.50668,54,44,0
290.50668,290.64,51,50,0
290.64,290.77335,54,42,0
290.77335,290.90848,66,44,0
290.90848,291.0436,59,44,0
291.0436,291.1752,54,56,0
291.1752,291.30676,59,48,0
291.30676,291.44128,71,48,0
291.44128,291.57584,63,48,0
291.57584,291.70682,59,56,0
291.70682,291.8402,63,51,0
291.8402,291.97833,75,51,0
291.97833,292.11786,66,52,0
292.11786,292.2607,52,62,0
292.2607,292.3977,58,56,0
292.3977,292.5347,67,56,0
292.5347,292.6717,61,56,0
292.6717,292.80786,51,62,0
292.80786,292.94403,54,53,0
292.94403,293.08282,66,53,0
293.08282,293.22202,59,53,0
293.22202,293.3582,39,46,0
293.3582,293.49435,42,39,0
293.49435,293.6352,54,39,0
293.6352,293.776,47,39,0
293.776,293.91217,42,47,0
293.91217,294.04834,47,42,0
294.04834,294.18848,59,42,0
294.18848,294.3286,51,44,0
294.3286,294.4648,47,49,0
294.4648,294.60098,51,42,0
294.60098,294.74045,63,44,0
294.74045,294.87988,54,44,0
294.87988,295.015,51,50,0
295.015,295.15018,54,42,0
295.15018,295.28714,66,44,0
295.28714,295.42413,59,44,0
295.42413,295.5563,54,56,0
295.5563,295.68845,59,48,0
295.68845,295.82358,71,48,0
295.82358,295.9587,63,48,0
295.9587,296.0903,59,56,0
296.0903,296.22406,63,51,0
296.22406,296.36218,75,51,0
296.36218,296.5017,66,52,0
296.5017,296.6419,52,62,0
296.6419,296.7795,58,56,0
296.7795,296.91776,67,56,0
296.91776,297.05603,61,56,0
297.05603,297.23758,41,62,0
297.23758,297.43707,48,52,0
297.43707,297.65283,49,41,0
297.65283,297.84988,48,38,0
297.43707,297.84988,54,34,0
297.84988,298.05536,41,39,0
298.05536,298.2524,58,42,0
298.2524,298.44943,57,39,0
298.05536,298.44943,51,36,0
298.44943,298.65665,41,41,0
298.65665,298.8537,49,46,0
298.8537,299.05075,48,44,0
298.65665,299.05075,54,39,0
299.05075,299.2574,41,44,0
299.2574,299.45444,58,48,0
299.45444,299.65146,57,46,0
299.2574,299.65146,51,41,0
299.65146,299.8581,41,46,0
299.8581,300.05515,58,51,0
300.05515,300.2522,57,47,0
299.8581,300.2522,63,42,0
300.2522,300.4571,53,47,0
300.4571,300.6561,61,53,0
300.6561,300.85315,60,49,0
300.4571,300.85315,66,46,0
300.85315,301.05637,53,50,0
301.05637,301.25342,70,56,0
301.25342,301.45047,69,50,0
301.05637,301.45047,63,48,0
301.45047,301.65372,53,51,0
301.65372,301.85074,70,49,0
301.85074,302.04974,69,58,0
301.65372,302.04974,75,59,0
303.06296,303.6721,65,56,0
303.6721,304.28125,65,55,0
304.28125,305.50284,65,49,0
305.50284,306.1246,53,40,0
306.1246,306.72125,53,34,0
306.72125,306.82993,34,39,0
306.82993,308.10315,53,37,0
306.82993,308.7276,46,31,0
308.7276,309.352,51,39,0
308.10315,309.352,58,37,0
309.352,310.95132,53,39,0
310.95132,311.27118,54,33,0
311.27118,311.59106,55,35,0
311.59106,311.93335,53,33,0
309.27396,311.93335,41,29,0
311.93335,313.2447,46,33,0
313.2447,313.87994,58,39,0
313.87994,314.51202,51,39,0
314.51202,314.83188,53,29,0
314.83188,315.15176,54,37,0
315.15176,315.365,57,35,0
315.365,315.57825,55,34,0
315.57825,315.79147,53,34,0
315.79147,316.1052,41,29,0
316.1052,316.41888,42,37,0
316.41888,316.63214,45,35,0
316.63214,316.84537,43,34,0
316.84537,317.05862,41,34,0
317.05862,317.37848,34,39,0
317.69836,318.33807,64,44,0
317.69836,318.33807,61,36,0
318.33807,318.96252,63,44,0
318.96252,319.43085,67,44,0
319.43085,319.50888,65,40,0
318.33807,319.58694,53,37,0
319.5479,319.58694,53,39,0
318.33807,319.58694,60,37,0
319.58694,320.21136,65,46,0
319.50888,320.21136,46,39,0
320.21136,320.86703,64,44,0
320.86703,321.4915,65,44,0
320.86703,321.4915,63,37,0
320.86703,321.4915,60,37,0
320.86703,321.4915,53,37,0
321.4915,322.122,63,37,0
321.4915,322.122,51,37,0
321.4915,322.122,55,37,0
321.4915,322.122,60,37,0
322.122,322.76627,66,49,0
322.122,322.76627,60,41,0
322.122,322.76627,57,41,0
322.122,322.76627,50,41,0
322.76627,323.41052,42,42,0
322.76627,323.41052,30,36,0
323.41052,324.05478,43,49,0
323.41052,324.05478,31,41,0
324.05478,324.5231,45,49,0
324.05478,324.5231,33,41,0
324.5231,324.6792,46,45,0
324.5231,324.6792,34,37,0
324.6792,325.31894,47,49,0
324.6792,325.31894,35,41,0
325.31894,325.78723,48,49,0
325.31894,325.78723,36,41,0
325.78723,325.94336,50,45,0
325.78723,325.94336,38,37,0
325.94336,326.56778,51,49,0
325.94336,326.56778,39,41,0
326.56778,327.25122,53,46,0
326.56778,327.25122,41,41,0
327.25122,327.46445,34,39,0
327.46445,327.6777,52,33,0
327.6777,327.89093,53,31,0
327.89093,328.1042,55,37,0
328.1042,328.3174,53,31,0
328.3174,328.53067,41,31,0
328.53067,328.7388,46,39,0
328.7388,328.94693,52,35,0
328.94693,329.1551,53,35,0
329.1551,329.36832,55,37,0
329.36832,329.58588,53,33,0
329.58588,329.80777,41,33,0
329.80777,330.0169,48,39,0
330.0169,330.22604,52,35,0
330.22604,330.43518,53,35,0
330.43518,330.6484,55,37,0
330.6484,330.86166,53,33,0
330.86166,331.0749,41,33,0
331.0749,331.28305,51,39,0
331.28305,331.49118,52,35,0
331.49118,331.6993,53,35,0
331.6993,331.9136,55,37,0
331.9136,332.13034,53,33,0
332.13034,332.3524,41,33,0
332.3524,332.67224,34,39,0
332.67224,332.83218,52,34,0
332.83218,332.99213,53,33,0
332.99213,333.15204,55,37,0
333.15204,333.296,53,31,0
333.31198,333.47192,53,37,0
333.47192,333.63184,41,37,0
333.63184,333.94406,46,39,0
333.94406,334.10016,52,35,0
334.10016,334.25626,53,35,0
334.25626,334.4162,55,37,0
334.4162,334.56012,53,33,0
334.5761,334.73605,53,37,0
334.73605,334.896,41,31,0
334.896,335.2097,29,39,0
335.2097,335.36655,52,35,0
335.36655,335.5234,53,35,0
335.5234,335.68332,55,37,0
335.68332,335.82727,53,33,0
335.84326,336.0032,53,37,0
336.0032,336.16312,41,33,0
336.16312,336.47534,51,39,0
336.47534,336.63144,52,35,0
336.63144,336.78754,53,35,0
336.78754,336.94824,55,39,0
336.94824,337.09286,53,35,0
337.10895,337.27972,53,39,0
337.27972,337.45047,41,35,0
337.45047,337.61118,46,44,0
337.61118,337.77188,53,39,0
337.77188,337.9326,55,39,0
337.9326,338.0933,53,39,0
338.0933,338.25168,62,44,0
338.25168,338.41003,53,40,0
338.41003,338.56842,55,40,0
338.56842,338.7268,53,41,0
338.7268,338.8852,41,45,0
338.8852,339.04355,53,40,0
339.04355,339.20193,55,41,0
339.20193,339.36032,53,41,0
339.36032,339.51642,63,47,0
339.51642,339.67252,53,44,0
339.67252,339.8286,55,44,0
339.8286,339.9901,53,44,0
339.9901,340.1485,46,48,0
340.1485,340.3069,53,42,0
340.3069,340.46527,55,42,0
340.46527,340.62363,53,42,0
340.62363,340.782,62,49,0
340.782,340.9404,53,46,0
340.9404,341.0988,55,46,0
341.0988,341.25714,53,46,0
341.25714,341.41553,41,50,0
341.41553,341.5739,53,46,0
341.5739,341.7323,55,46,0
341.7323,341.89066,53,46,0
341.89066,342.04904,63,52,0
342.04904,342.20743,53,49,0
342.20743,342.36972,55,49,0
342.36972,342.532,53,49,0
342.532,342.69434,42,57,0
342.69434,342.85663,49,51,0
342.85663,343.01892,50,51,0
343.01892,343.18124,57,51,0
343.18124,343.3404,54,58,0
343.3404,343.49954,61,53,0
343.49954,343.6587,62,53,0
343.6587,343.81784,69,53,0
343.81784,343.9747,43,59,0
343.9747,344.13156,49,52,0
344.13156,344.29306,50,52,0
344.29306,344.45456,58,53,0
344.45456,344.61606,55,60,0
344.61606,344.77756,61,55,0
344.77756,344.93906,62,55,0
344.93906,345.10056,70,56,0
345.10056,345.26205,45,61,0
345.26205,345.42355,52,55,0
345.42355,345.58505,53,55,0
345.58505,345.74655,60,55,0
345.74655,345.9049,57,62,0
345.9049,346.0633,64,57,0
346.0633,346.22168,65,57,0
346.22168,346.38007,72,57,0
346.38007,346.53397,47,62,0
346.53397,346.6879,54,56,0
346.6879,346.84628,55,57,0
346.84628,347.00467,62,57,0
347.00467,347.16302,59,63,0
347.16302,347.3214,66,58,0
347.3214,347.4798,67,59,0
347.63818,347.79428,36,59,0
347.79428,347.95038,43,52,0
347.95038,348.11032,48,52,0
348.11032,348.27023,55,52,0
348.27023,348.4271,38,59,0
348.4271,348.58395,43,52,0
348.58395,348.74466,50,52,0
348.74466,348.90536,55,52,0
348.90536,349.05783,39,62,0
349.05783,349.2103,43,52,0
349.2103,349.36734,48,52,0
349.36734,349.52435,55,52,0
349.52435,349.67758,40,61,0
349.67758,349.83078,46,52,0
349.83078,349.9855,49,52,0
349.9855,350.14023,55,52,0
350.14023,350.29196,41,59,0
350.29196,350.4437,48,52,0
350.4437,350.59998,51,52,0
350.59998,350.75623,57,52,0
350.75623,350.90942,43,58,0
350.90942,351.06262,46,52,0
351.06262,351.22333,51,52,0
351.22333,351.38403,58,52,0
351.38403,351.54474,45,52,0
351.54474,351.70544,48,47,0
351.70544,351.86383,51,47,0
351.86383,352.02222,60,47,0
352.02222,352.17685,48,55,0
352.17685,352.3315,51,47,0
352.3315,352.4899,57,47,0
352.4899,352.6483,63,47,0
352.6483,352.96048,58,46,0
352.6483,352.96048,62,55,0
352.6483,352.96048,50,46,0
352.96048,353.27722,50,38,0
352.96048,353.27722,58,38,0
352.96048,353.27722,62,46,0
353.27722,353.59863,63,51,0
353.27722,353.59863,58,42,0
353.27722,353.59863,51,42,0
353.59863,353.92004,62,46,0
353.59863,353.92004,58,38,0
353.59863,353.92004,53,38,0
353.92004,354.24146,54,42,0
353.92004,354.24146,63,50,0
354.24146,354.5522,59,47,0
354.24146,354.5522,47,39,0
354.5522,354.87204,60,52,0
354.5522,354.87204,48,44,0
354.87204,355.20154,63,47,0
354.87204,355.20154,51,40,0
355.20154,355.51828,58,38,0
355.20154,355.51828,50,36,0
355.20154,355.51828,53,39,0
355.20154,355.51828,62,50,0
355.51828,355.83813,57,42,0
355.51828,355.83813,45,36,0
355.83813,356.15802,58,49,0
355.83813,356.15802,46,49,0
356.15802,356.39792,52,45,0
356.15802,356.39792,40,37,0
356.47787,356.80737,40,52,0
356.47787,356.80737,28,44,0
357.13684,357.47308,55,55,0
356.80737,357.47308,29,40,0
356.80737,357.80936,41,48,0
357.80936,357.99033,46,53,0
357.47308,357.99033,53,51,0
357.99033,358.08084,58,51,0
357.99033,358.08084,52,42,0
358.1678,358.25476,58,51,0
358.1678,358.25476,52,42,0
358.3417,358.5112,58,56,0
358.3417,358.5112,52,46,0
358.5112,358.59595,57,45,0
358.5112,358.59595,53,38,0
358.6759,358.75586,60,42,0
358.6759,358.75586,65,51,0
358.6759,358.75586,53,42,0
358.83582,358.99704,65,56,0
358.83582,358.99704,60,46,0
358.83582,358.99704,53,46,0
358.99704,359.07764,65,51,0
358.99704,359.07764,58,42,0
359.156,359.23434,70,51,0
359.156,359.23434,64,51,0
359.3127,359.46942,70,56,0
359.3127,359.46942,64,56,0
359.46942,359.54776,69,48,0
359.46942,359.54776,65,40,0
359.6261,359.70447,77,51,0
359.6261,359.70447,72,42,0
359.6261,359.70447,65,42,0
359.7828,359.9395,77,56,0
359.7828,359.9395,72,46,0
359.7828,359.9395,65,46,0
359.9395,360.01785,77,51,0
359.9395,360.01785,70,42,0
360.09622,360.17456,64,44,0
360.09622,360.17456,70,52,0
360.25293,360.40918,70,56,0
360.25293,360.40918,64,46,0
360.40918,360.48666,69,49,0
360.40918,360.48666,65,41,0
360.56412,360.6416,65,52,0
360.56412,360.6416,60,44,0
360.56412,360.6416,53,44,0
360.71906,360.87402,65,56,0
360.71906,360.87402,60,46,0
360.71906,360.87402,53,46,0
360.87402,360.95148,65,49,0
360.87402,360.95148,58,41,0
361.02896,361.1064,58,52,0
361.02896,361.1064,52,44,0
361.1839,361.33884,58,56,0
361.1839,361.33884,52,46,0
361.33884,361.41632,57,46,0
361.33884,361.41632,53,39,0
361.49652,361.57672,53,52,0
361.49652,361.57672,41,44,0
361.49652,361.57672,48,44,0
361.65695,361.8222,48,46,0
361.65695,361.8222,53,56,0
361.65695,361.8222,41,46,0
361.8222,361.90482,46,39,0
361.8222,361.90482,53,46,0
361.98746,362.0665,58,41,0
361.98746,362.0665,52,36,0
361.98746,362.0665,48,36,0
362.14557,362.30292,58,44,0
362.14557,362.30292,52,37,0
362.14557,362.30292,48,37,0
362.30292,362.3816,57,41,0
362.30292,362.3816,53,34,0
362.4603,362.53897,60,29,0
362.4603,362.53897,65,36,0
362.4603,362.53897,53,29,0
362.61765,362.775,65,39,0
362.61765,362.775,60,33,0
362.61765,362.775,53,33,0
362.775,362.85367,65,36,0
362.775,362.85367,58,29,0
362.93234,363.01102,70,36,0
362.93234,363.01102,64,36,0
362.93234,363.01102,60,36,0
363.08972,363.24707,70,39,0
363.08972,363.24707,64,39,0
363.08972,363.24707,60,39,0
363.24707,363.32574,69,36,0
363.24707,363.32574,65,29,0
363.40442,363.4831,77,31,0
363.40442,363.4831,72,26,0
363.40442,363.4831,65,26,0
363.56177,363.71915,77,35,0
363.56177,363.71915,72,29,0
363.56177,363.71915,65,29,0
363.71915,363.79782,77,31,0
363.71915,363.79782,70,26,0
363.8765,363.95517,64,33,0
363.8765,363.95517,70,39,0
363.8765,363.95517,60,33,0
364.03384,364.1912,70,41,0
364.03384,364.1912,64,35,0
364.03384,364.1912,60,35,0
364.1912,364.26987,69,39,0
364.1912,364.26987,65,33,0
364.3505,364.4311,65,39,0
364.3505,364.4311,60,33,0
364.3505,364.4311,53,33,0
364.5117,364.67526,65,41,0
364.5117,364.67526,60,35,0
364.5117,364.67526,53,35,0
364.67526,364.75705,65,39,0
364.67526,364.75705,58,33,0
364.83884,364.9175,58,39,0
364.83884,364.9175,52,33,0
364.83884,364.9175,48,33,0
364.99622,365.15588,58,41,0
364.99622,365.15588,52,35,0
364.99622,365.15588,48,35,0
365.15588,365.23575,57,39,0
365.15588,365.23575,53,33,0
365.31958,365.40344,53,49,0
365.31958,365.40344,41,41,0
365.48727,365.65247,53,47,0
365.48727,365.65247,41,39,0
365.65247,365.73508,52,41,0
365.65247,365.73508,40,35,0
365.81418,365.89328,54,45,0
365.81418,365.89328,52,38,0
365.97238,366.1336,54,47,0
365.97238,366.1336,52,39,0
366.1336,366.2142,59,41,0
366.1336,366.2142,52,34,0
366.29257,366.3709,59,44,0
366.29257,366.3709,52,36,0
366.44925,366.60596,59,47,0
366.44925,366.60596,52,39,0
366.60596,366.68433,64,41,0
366.60596,366.68433,52,34,0
366.60596,366.68433,57,34,0
366.76266,366.841,66,44,0
366.76266,366.841,59,44,0
366.76266,366.841,52,44,0
366.91937,367.07608,66,47,0
366.91937,367.07608,59,47,0
366.91937,367.07608,52,47,0
367.07608,367.15442,64,41,0
367.07608,367.15442,59,34,0
367.07608,367.15442,52,44,0
367.23465,367.31485,59,36,0
367.23465,367.31485,62,36,0
367.23465,367.31485,52,47,0
367.23465,367.31485,64,44,0
367.39505,367.55548,64,47,0
367.39505,367.55548,62,39,0
367.39505,367.55548,59,39,0
367.39505,367.55548,52,39,0
367.55548,367.7159,65,49,0
367.55548,367.7159,59,34,0
367.7159,367.87573,50,61,0
367.87573,368.03424,62,56,0
367.87573,368.03424,53,47,0
368.03424,368.19162,47,62,0
368.19162,368.34787,59,59,0
368.19162,368.34787,53,49,0
368.34787,368.5025,44,64,0
368.5025,368.6584,56,60,0
368.5025,368.6584,47,50,0
368.6584,368.81555,41,69,0
368.81555,368.97388,53,64,0
368.81555,368.97388,47,53,0
368.97388,369.1404,38,77,0
369.1404,369.31076,38,69,0
369.1404,369.31076,26,69,0
369.31076,369.47845,25,42,0
369.31076,369.47845,37,42,0
369.47845,369.64252,49,50,0
369.47845,369.64252,37,36,0
369.64252,369.80496,49,48,0
369.64252,369.80496,37,40,0
369.80496,369.96933,49,48,0
369.80496,369.96933,37,40,0
369.96933,370.12903,49,48,0
369.96933,370.12903,37,40,0
370.12903,370.29102,49,49,0
370.12903,370.29102,37,41,0
370.29102,370.4546,49,55,0
370.29102,370.4546,37,38,0
370.4546,370.61353,48,52,0
370.4546,370.61353,36,44,0
370.61353,370.77554,48,52,0
370.61353,370.77554,36,44,0
370.77554,370.93597,48,56,0
370.77554,370.93597,36,47,0
370.93597,371.0898,49,52,0
370.93597,371.0898,37,44,0
371.0898,371.24826,49,52,0
371.0898,371.24826,37,44,0
371.24826,371.33087,49,56,0
371.24826,371.33087,37,46,0
371.41116,371.48914,49,57,0
371.41116,371.48914,37,47,0
371.56714,371.64813,49,58,0
371.56714,371.64813,37,48,0
371.72913,371.80783,49,58,0
371.72913,371.80783,37,49,0
371.88657,371.96313,49,59,0
371.88657,371.96313,37,50,0
372.03967,372.1203,49,61,0
372.03967,372.1203,37,51,0
372.2009,372.28268,37,52,0
372.2009,372.28268,49,62,0
372.36447,372.44174,48,62,0
372.36447,372.44174,36,52,0
372.519,372.59885,48,63,0
372.519,372.59885,36,53,0
372.6787,372.75854,48,64,0
372.6787,372.75854,36,53,0
372.83838,372.91434,49,66,0
372.83838,372.91434,37,55,0
372.99072,373.06757,49,67,0
372.99072,373.06757,37,56,0
373.14493,373.2329,50,74,0
373.14493,373.2329,38,52,0
373.3171,373.4779,58,71,0
373.3171,373.4779,46,50,0
373.3171,373.4779,53,50,0
373.4779,373.64493,58,72,0
373.4779,373.64493,46,51,0
373.4779,373.64493,53,51,0
373.64493,373.80762,58,75,0
373.64493,373.80762,53,53,0
373.64493,373.80762,46,53,0
374.14008,374.3135,39,96,0
374.14008,374.3135,27,68,0
374.3135,374.47644,58,71,0
374.3135,374.47644,46,50,0
374.3135,374.47644,51,50,0
374.47644,374.6446,58,72,0
374.47644,374.6446,46,51,0
374.47644,374.6446,51,51,0
374.6446,374.8096,58,75,0
374.6446,374.8096,51,53,0
374.6446,374.8096,46,53,0
375.14575,375.31998,41,96,0
375.14575,375.31998,29,68,0
375.31998,375.48343,58,71,0
375.31998,375.48343,46,50,0
375.31998,375.48343,53,50,0
375.48343,375.65234,58,72,0
375.48343,375.65234,46,51,0
375.48343,375.65234,53,51,0
375.65234,375.81656,58,75,0
375.65234,375.81656,53,53,0
375.65234,375.81656,46,53,0
376.15875,376.3423,42,96,0
376.15875,376.3423,30,68,0
376.3423,376.51413,58,71,0
376.3423,376.51413,46,50,0
376.3423,376.51413,51,50,0
376.51413,376.69153,58,72,0
376.51413,376.69153,46,51,0
376.51413,376.69153,51,51,0
376.69153,376.87485,58,75,0
376.69153,376.87485,51,53,0
376.69153,376.87485,46,53,0
377.1111,377.25333,43,72,0
377.1111,377.25333,31,60,0
377.25333,377.3225,44,86,0
377.25333,377.3225,32,73,0
377.3917,377.46088,41,79,0
377.3917,377.46088,29,66,0
377.6684,377.7404,43,86,0
377.6684,377.7404,31,73,0
377.8202,377.8887,44,81,0
377.8202,377.8887,32,68,0
377.95718,378.0257,41,81,0
377.95718,378.0257,29,68,0
378.37646,378.5086,44,67,0
378.37646,378.5086,32,56,0
378.5086,378.5747,41,60,0
378.5086,378.5747,29,49,0
378.76898,378.8883,43,62,0
378.76898,378.8883,31,52,0
378.8883,379.01846,44,61,0
378.8883,379.01846,32,51,0
379.01846,379.08356,41,61,0
379.01846,379.08356,29,51,0
379.4012,379.52997,44,67,0
379.4012,379.52997,32,56,0
379.52997,379.59436,41,60,0
379.52997,379.59436,29,50,0
379.78085,379.89862,43,66,0
379.78085,379.89862,31,52,0
379.89862,380.02432,44,62,0
379.89862,380.02432,32,51,0
380.02432,380.0872,41,63,0
380.02432,380.0872,29,52,0
380.39703,380.5236,45,74,0
380.39703,380.5236,33,60,0
380.5236,380.58688,42,63,0
380.5236,380.58688,30,56,0
380.76938,380.88516,43,71,0
380.76938,380.88516,31,59,0
380.88516,381.00812,45,69,0
380.88516,381.00812,33,57,0
381.00812,381.06958,54,69,0
381.00812,381.06958,42,57,0
381.37302,381.49597,46,75,0
381.37302,381.49597,34,63,0
381.49597,381.55746,43,67,0
381.49597,381.55746,31,56,0
381.73578,381.84903,45,71,0
381.73578,381.84903,33,61,0
381.84903,381.972,46,71,0
381.84903,381.972,34,59,0
381.972,382.03348,55,71,0
381.972,382.03348,43,60,0
382.33984,382.4613,47,79,0
382.33984,382.4613,35,68,0
382.4613,382.52203,59,73,0
382.4613,382.52203,47,60,0
382.82153,382.97537,48,68,0
382.82153,382.97537,36,68,0
382.97537,383.1345,60,74,0
382.97537,383.1345,48,74,0
383.1345,383.30652,61,78,0
383.1345,383.30652,49,78,0
383.30652,383.79834,62,79,0
383.30652,383.79834,58,66,0
383.30652,383.79834,50,66,0
383.79834,384.29626,63,80,0
383.79834,384.29626,58,67,0
383.79834,384.29626,51,67,0
384.29626,384.77686,66,80,0
384.29626,384.77686,60,67,0
384.29626,384.77686,54,67,0
384.29626,384.77686,58,67,0
384.29626,384.77686,63,67,0
384.77686,385.27567,65,78,0
384.77686,385.27567,53,65,0
384.77686,385.27567,60,65,0
384.77686,385.27567,63,65,0
385.27567,385.7615,58,86,0
385.27567,385.7615,46,72,0
385.7615,386.26666,51,86,0
385.7615,386.26666,39,70,0
386.26666,386.76758,46,87,0
386.26666,386.76758,34,72,0
386.76758,387.28372,39,86,0
386.76758,387.28372,27,70,0
387.28372,388.31598,46,92,0
387.28372,388.31598,34,74,0
388.31598,389.34824,74,95,0
388.31598,389.34824,62,74,0
388.31598,389.34824,65,74,0
388.31598,389.34824,70,77,0
389.34824,392.3163,58,91,0
389.34824,392.3163,34,59,0
389.34824,392.3163,41,60,0
389.34824,392.3163,46,65,0
389.34824,392.3163,53,71,0
389.34824,392.3163,50,67,0
