start_time,end_time,note_value,velocity,instrument_program_number
74.017525,74.539314,70,57,0
74.539314,75.043724,65,49,0
75.043724,75.56088,66,52,0
75.56088,76.57214,75,57,0
76.57214,77.084435,73,52,0
77.084435,77.59356,73,52,0
77.59356,78.108444,66,44,0
78.108444,78.63256,68,45,0
78.63256,82.225784,70,52,0
86.35037,86.86592,73,53,0
86.86592,87.37034,69,49,0
87.37034,87.88749,70,54,0
87.88749,88.90389,78,58,0
88.90389,89.41619,77,52,0
89.41619,89.925316,77,52,0
89.925316,90.43443,70,52,0
90.43443,90.94999,72,53,0
90.94999,91.46554,75,57,0
91.46554,94.52886,73,57,0
98.6305,99.14606,70,60,0
99.14606,99.65047,65,53,0
99.65047,100.16762,66,57,0
100.16762,101.18328,75,59,0
101.18328,101.69557,73,57,0
101.69557,102.2047,73,57,0
102.2047,102.71958,66,53,0
102.71958,103.24137,68,52,0
103.24137,106.832275,70,57,0
110.956856,111.47241,70,62,0
111.47241,111.97683,69,54,0
111.97683,112.49398,70,59,0
112.49398,113.51189,71,62,0
113.51189,114.02418,72,60,0
114.02418,114.52581,74,63,0
114.52581,115.03398,70,60,0
115.03398,115.54954,79,60,0
115.54954,116.96584,77,61,0
116.96584,117.03277,70,52,0
117.03277,117.0997,72,46,0
117.0997,117.60787,70,63,0
117.60787,118.11229,69,57,0
118.11229,118.62944,70,61,0
118.62944,119.654076,71,62,0
119.654076,120.166374,72,63,0
120.166374,120.67549,73,66,0
120.67549,121.19041,70,63,0
121.19041,121.71525,78,63,0
121.71525,122.24009,77,65,0
122.24009,122.76079,75,63,0
122.76079,123.27634,73,63,0
123.27634,129.50394,71,62,0
129.50394,130.03525,70,54,0
130.03525,130.53966,65,49,0
130.53966,131.05681,66,52,0
131.05681,132.0747,75,57,0
132.0747,132.587,73,52,0
132.587,133.09613,73,52,0
133.09613,133.60873,66,45,0
133.60873,134.1376,68,46,0
134.1376,137.73558,70,52,0
141.86017,142.37572,71,53,0
142.37572,142.88014,67,49,0
142.88014,143.39673,68,54,0
143.39673,144.41238,76,58,0
144.41238,144.92468,75,54,0
144.92468,145.4338,75,54,0
145.4338,145.94293,68,49,0
145.94293,146.45848,70,51,0
146.45848,146.97403,73,53,0
146.97403,150.04315,71,51,0
154.65709,155.16937,68,39,0
155.16937,155.69144,70,39,0
155.69144,156.74199,66,46,0
156.74199,157.27151,63,39,0
157.78384,158.29619,68,39,0
158.29619,158.81607,70,39,0
158.81607,159.86266,66,46,0
159.86266,160.38577,63,43,0
160.89395,161.39604,68,44,0
161.39604,161.90839,70,45,0
161.90839,162.42072,71,47,0
162.42072,162.94592,72,48,0
162.94592,163.46465,73,52,0
163.46465,163.99207,74,56,0
163.99207,164.5513,75,52,0
164.5513,165.10005,65,35,0
165.10005,165.6488,66,36,0
191.67511,192.21371,70,57,0
192.21371,192.71812,65,49,0
192.71812,193.235,66,52,0
193.235,194.2529,75,56,0
194.2529,194.77005,73,52,0
194.77005,195.27917,73,52,0
195.27917,195.7883,66,44,0
195.7883,196.30385,68,45,0
196.30385,199.88852,70,52,0
204.0131,204.52866,71,53,0
204.52866,205.03308,67,50,0
205.03308,205.54994,68,57,0
205.54994,206.56786,76,58,0
206.56786,207.08015,75,54,0
207.08015,207.58926,75,54,0
207.58926,208.09839,68,49,0
208.09839,208.61395,70,52,0
208.61395,209.1295,73,58,0
209.1295,212.19861,71,54,0
216.81255,217.32484,68,39,0
217.32484,217.84691,70,39,0
217.84691,218.89746,66,46,0
218.89746,219.42697,63,39,0
219.93932,220.45166,68,39,0
220.45166,220.97154,70,39,0
220.97154,222.01811,66,46,0
222.01811,222.54124,63,43,0
223.04942,223.55151,68,44,0
223.55151,224.06384,70,45,0
224.06384,224.57619,71,47,0
224.57619,225.1014,72,48,0
225.1014,225.62012,73,52,0
225.62012,226.14754,74,52,0
226.14754,226.70145,75,51,0
226.70145,227.25537,65,35,0
227.25537,227.80928,66,36,0
253.93997,254.46884,70,54,0
254.46884,254.97926,65,49,0
254.97926,255.49612,66,52,0
255.49612,256.51404,75,57,0
256.51404,257.02634,73,52,0
257.02634,257.53546,73,52,0
257.53546,258.0526,66,45,0
258.0526,258.5791,68,45,0
258.5791,262.18146,70,52,0
266.30606,266.8216,71,54,0
266.8216,267.32602,67,52,0
267.32602,267.8429,68,54,0
267.8429,268.8608,76,59,0
268.8608,269.3731,75,56,0
269.3731,269.8822,75,58,0
269.8822,270.39133,68,49,0
270.39133,270.9069,70,51,0
270.9069,271.42245,73,57,0
271.42245,274.49155,71,52,0
279.1055,279.6178,68,39,0
279.6178,280.13986,70,39,0
280.13986,281.1904,66,46,0
281.1904,281.7199,63,39,0
282.23227,282.7446,68,39,0
282.7446,283.2645,70,39,0
283.2645,284.31107,66,46,0
284.31107,284.8342,63,43,0
285.34238,285.8382,68,44,0
285.8382,286.34195,70,45,0
286.34195,286.84573,71,47,0
286.84573,287.35617,72,51,0
287.35617,287.87488,73,57,0
367.3493,367.91336,70,51,0
367.91336,368.465,65,42,0
368.465,369.04208,66,46,0
369.04208,370.11032,75,51,0
370.11032,370.67438,73,47,0
370.67438,371.2141,73,47,0
371.2141,371.7698,66,38,0
371.7698,372.37,68,38,0
372.37,376.2986,70,49,0
0.64082,0.923812,58,72,0
0.923812,0.9733628,63,56,0
0.923812,0.9733628,51,47,0
1.0559475,1.1064276,63,58,0
1.0559475,1.1064276,51,49,0
1.190561,1.2399986,63,64,0
1.190561,1.2399986,51,54,0
1.3223945,1.3750951,63,65,0
1.3223945,1.3750951,51,56,0
1.4603852,1.7435373,63,72,0
1.4603852,1.7435373,51,61,0
1.7435373,2.0186782,53,67,0
1.7435373,2.0186782,65,80,0
1.7435373,2.0186782,59,67,0
1.7435373,2.0186782,63,67,0
2.0186782,2.1543572,77,68,0
2.0186782,2.1543572,65,56,0
2.0186782,2.1543572,71,56,0
2.0186782,2.1543572,75,56,0
2.1543572,2.2900362,75,66,0
2.1543572,2.2900362,63,55,0
2.2900362,2.4243367,77,68,0
2.2900362,2.4243367,65,56,0
2.2900362,2.4243367,70,56,0
2.2900362,2.4243367,74,56,0
2.4243367,2.5662613,78,65,0
2.4243367,2.5662613,66,53,0
2.5662613,2.6156988,66,59,0
2.5662613,2.6156988,54,49,0
2.6980948,2.7485747,66,61,0
2.6980948,2.7485747,54,52,0
2.8327084,2.882146,66,67,0
2.8327084,2.882146,54,57,0
2.9645417,3.0178947,66,66,0
2.9645417,3.0178947,54,57,0
3.1037433,3.3834503,66,75,0
3.1037433,3.3834503,54,64,0
3.3834503,3.6570733,68,82,0
3.3834503,3.6570733,56,67,0
3.3834503,3.6570733,62,69,0
3.3834503,3.6570733,66,69,0
3.6570733,3.7923913,68,59,0
3.6570733,3.7923913,80,72,0
3.6570733,3.7923913,74,59,0
3.6570733,3.7923913,78,59,0
3.7923913,3.9277093,78,70,0
3.7923913,3.9277093,66,58,0
3.9277093,4.0613813,68,59,0
3.9277093,4.0613813,80,72,0
3.9277093,4.0613813,73,59,0
3.9277093,4.0613813,77,59,0
4.0613813,4.202611,81,65,0
4.0613813,4.202611,69,54,0
4.202611,4.2514877,69,56,0
4.202611,4.2514877,57,47,0
4.332949,4.382845,69,60,0
4.332949,4.382845,57,51,0
4.466056,4.515155,69,64,0
4.466056,4.515155,57,54,0
4.596986,4.6502075,69,69,0
4.596986,4.6502075,57,59,0
4.7373815,5.0110044,69,79,0
4.7373815,5.0110044,57,68,0
5.0110044,5.060442,65,52,0
5.0110044,5.060442,68,52,0
5.0110044,5.060442,58,52,0
5.0110044,5.060442,70,63,0
5.0110044,5.060442,56,52,0
5.1428375,5.1930814,70,66,0
5.1428375,5.1930814,68,55,0
5.1428375,5.1930814,58,55,0
5.1428375,5.1930814,65,55,0
5.1428375,5.1930814,56,55,0
5.27682,5.326371,70,67,0
5.27682,5.326371,68,57,0
5.27682,5.326371,58,57,0
5.27682,5.326371,65,57,0
5.27682,5.326371,56,57,0
5.4089556,5.462309,70,68,0
5.4089556,5.462309,68,68,0
5.4089556,5.462309,56,57,0
5.4089556,5.462309,65,57,0
5.4089556,5.462309,58,57,0
5.5512304,5.8282385,62,68,0
5.5512304,5.8282385,68,68,0
5.5512304,5.8282385,56,68,0
5.5512304,5.8282385,70,81,0
5.5512304,5.8282385,58,68,0
5.8282385,5.8780193,58,52,0
5.8282385,5.8780193,70,63,0
5.8282385,5.8780193,63,52,0
5.8282385,5.8780193,66,52,0
5.960987,6.011585,70,66,0
5.960987,6.011585,58,55,0
5.960987,6.011585,63,55,0
5.960987,6.011585,66,55,0
6.095916,6.146043,70,67,0
6.095916,6.146043,66,57,0
6.095916,6.146043,63,57,0
6.2295876,6.2812786,70,67,0
6.2295876,6.2812786,66,56,0
6.2295876,6.2812786,63,56,0
6.36743,6.6464615,70,85,0
6.36743,6.6464615,66,72,0
6.36743,6.6464615,63,70,0
6.6464615,6.9306192,70,78,0
6.6464615,6.9306192,63,66,0
6.6464615,6.9306192,58,66,0
6.9306192,7.2072954,68,78,0
6.9306192,7.2072954,63,66,0
6.9306192,7.2072954,56,66,0
7.2072954,7.4880414,66,74,0
7.2072954,7.4880414,54,63,0
7.2072954,7.4880414,57,63,0
7.2072954,7.4880414,63,63,0
7.4880414,7.6247344,65,61,0
7.4880414,7.6247344,61,52,0
7.4880414,7.6247344,58,52,0
7.6247344,7.760783,61,59,0
7.760783,7.896187,73,78,0
7.760783,7.896187,66,66,0
7.896187,8.031011,66,73,0
8.031011,8.165257,78,82,0
8.031011,8.165257,70,69,0
8.165257,8.298878,70,71,0
8.298878,8.431985,82,76,0
8.298878,8.431985,73,65,0
8.431985,8.56504,73,69,0
8.56504,8.699654,85,78,0
8.56504,8.699654,78,66,0
8.699654,8.834267,78,73,0
8.834267,8.9731045,90,82,0
8.834267,8.9731045,82,69,0
8.9731045,9.111942,82,75,0
9.111942,9.389617,94,82,0
9.111942,9.389617,82,69,0
9.111942,9.389617,85,69,0
9.389617,9.662679,92,76,0
9.389617,9.662679,80,64,0
9.389617,9.662679,85,66,0
9.662679,9.945671,73,61,0
9.662679,9.945671,80,61,0
9.662679,9.945671,85,73,0
9.945671,10.222679,80,61,0
9.945671,10.222679,73,57,0
10.222679,10.50171,78,58,0
10.222679,10.50171,90,68,0
9.945671,10.50171,85,75,0
10.50171,10.783466,61,40,0
10.50171,10.783466,68,49,0
10.50171,10.783466,73,56,0
10.783466,11.063265,68,48,0
10.783466,11.063265,61,40,0
11.063265,11.343652,66,49,0
11.063265,11.343652,78,56,0
10.783466,11.343652,73,56,0
11.343652,11.63167,61,38,0
11.343652,11.63167,68,46,0
11.343652,11.63167,73,55,0
11.63167,11.916584,68,48,0
11.63167,11.916584,61,40,0
11.916584,12.209853,66,48,0
11.916584,12.209853,78,56,0
11.63167,12.209853,73,55,0
12.209853,12.494402,73,52,0
12.209853,12.494402,61,52,0
12.494402,13.363169,73,56,0
12.494402,13.363169,61,51,0
13.363169,16.764734,70,53,0
13.363169,16.764734,58,46,0
17.614914,17.664238,63,63,0
17.614914,17.664238,51,52,0
17.746447,17.796926,63,66,0
17.746447,17.796926,51,55,0
17.88075,17.93053,63,67,0
17.88075,17.93053,51,57,0
18.013498,18.066721,63,68,0
18.013498,18.066721,51,59,0
18.15248,18.431484,63,80,0
18.15248,18.431484,51,69,0
18.431484,18.706625,53,75,0
18.431484,18.706625,65,90,0
18.431484,18.706625,59,75,0
18.431484,18.706625,63,75,0
18.706625,18.842304,65,63,0
18.706625,18.842304,77,76,0
18.706625,18.842304,71,63,0
18.706625,18.842304,75,63,0
18.842304,18.977983,75,74,0
18.842304,18.977983,63,61,0
18.977983,19.111965,65,63,0
18.977983,19.111965,77,76,0
18.977983,19.111965,70,63,0
18.977983,19.111965,74,63,0
19.111965,19.253542,78,72,0
19.111965,19.253542,66,59,0
19.253542,19.302866,66,63,0
19.253542,19.302866,54,52,0
19.385075,19.435318,66,66,0
19.385075,19.435318,54,55,0
19.519056,19.568722,66,67,0
19.519056,19.568722,54,57,0
19.651495,19.70498,66,66,0
19.651495,19.70498,54,57,0
19.792475,20.070704,66,79,0
19.792475,20.070704,54,68,0
20.070704,20.344328,68,87,0
20.070704,20.344328,56,72,0
20.070704,20.344328,62,73,0
20.070704,20.344328,66,75,0
20.344328,20.479645,68,63,0
20.344328,20.479645,80,76,0
20.344328,20.479645,74,63,0
20.344328,20.479645,78,63,0
20.479645,20.614964,78,74,0
20.479645,20.614964,66,61,0
20.614964,20.748634,68,63,0
20.614964,20.748634,80,76,0
20.614964,20.748634,73,63,0
20.614964,20.748634,77,63,0
20.748634,20.888489,81,71,0
20.748634,20.888489,69,58,0
20.888489,20.937256,69,56,0
20.888489,20.937256,57,47,0
21.018534,21.068085,69,60,0
21.018534,21.068085,57,51,0
21.150873,21.199862,69,64,0
21.150873,21.199862,57,54,0
21.281507,21.333197,69,68,0
21.281507,21.333197,57,57,0
21.41935,21.692972,69,80,0
21.41935,21.692972,57,68,0
21.692972,21.742409,59,53,0
21.692972,21.742409,71,64,0
21.692972,21.742409,65,53,0
21.692972,21.742409,69,53,0
21.824806,21.875286,71,67,0
21.824806,21.875286,59,56,0
21.824806,21.875286,65,56,0
21.824806,21.875286,69,56,0
21.95916,22.00894,59,60,0
21.95916,22.00894,71,71,0
21.95916,22.00894,65,60,0
21.95916,22.00894,69,60,0
22.091908,22.142818,59,60,0
22.091908,22.142818,71,72,0
22.091908,22.142818,65,60,0
22.091908,22.142818,69,72,0
22.229177,22.5028,71,81,0
22.229177,22.5028,59,68,0
22.229177,22.5028,65,68,0
22.229177,22.5028,69,68,0
22.5028,22.552124,60,54,0
22.5028,22.552124,72,66,0
22.5028,22.552124,63,54,0
22.5028,22.552124,69,54,0
22.634333,22.684696,60,57,0
22.634333,22.684696,72,69,0
22.634333,22.684696,63,57,0
22.634333,22.684696,69,57,0
22.768633,22.818415,72,74,0
22.768633,22.818415,63,63,0
22.768633,22.818415,60,63,0
22.901382,22.951746,72,76,0
22.901382,22.951746,63,55,0
22.901382,22.951746,60,55,0
23.035683,23.322134,72,86,0
23.035683,23.322134,66,73,0
23.035683,23.322134,60,73,0
23.035683,23.322134,63,73,0
23.322134,23.606293,64,69,0
23.322134,23.606293,76,81,0
23.322134,23.606293,66,69,0
23.322134,23.606293,69,69,0
23.606293,23.882969,74,81,0
23.606293,23.882969,67,69,0
23.606293,23.882969,62,69,0
23.882969,24.164354,62,85,0
23.882969,24.164354,50,72,0
24.164354,24.301067,61,61,0
24.301067,24.437061,61,59,0
24.437061,24.572466,73,78,0
24.437061,24.572466,66,66,0
24.572466,24.707342,66,75,0
24.707342,24.841694,78,82,0
24.707342,24.841694,69,69,0
24.841694,24.975521,69,75,0
24.975521,25.108883,81,76,0
24.975521,25.108883,73,65,0
25.108883,25.242247,73,71,0
25.242247,25.377926,85,78,0
25.242247,25.377926,78,66,0
25.377926,25.513605,78,75,0
25.513605,25.652443,90,82,0
25.513605,25.652443,81,69,0
25.652443,25.79128,81,75,0
25.79128,26.068954,93,82,0
25.79128,26.068954,81,69,0
25.79128,26.068954,85,69,0
26.068954,26.343315,92,78,0
26.068954,26.343315,80,66,0
26.068954,26.343315,85,66,0
26.343315,26.626308,73,61,0
26.343315,26.626308,80,61,0
26.343315,26.626308,85,73,0
26.626308,26.903316,80,61,0
26.626308,26.903316,73,61,0
26.903316,27.183023,78,58,0
26.903316,27.183023,90,68,0
26.626308,27.183023,85,75,0
27.183023,27.464779,61,40,0
27.183023,27.464779,68,48,0
27.183023,27.464779,73,58,0
27.464779,27.744577,68,50,0
27.464779,27.744577,61,42,0
27.744577,28.024965,66,49,0
27.744577,28.024965,78,56,0
27.464779,28.024965,73,58,0
28.024965,28.312983,61,38,0
28.024965,28.312983,68,46,0
28.024965,28.312983,73,56,0
28.312983,28.597897,68,48,0
28.312983,28.597897,61,40,0
28.597897,28.881048,66,46,0
28.597897,28.881048,78,55,0
28.312983,28.881048,73,56,0
28.881048,29.44319,73,81,0
28.881048,29.44319,61,69,0
29.44319,29.580044,74,75,0
29.44319,29.580044,62,64,0
29.580044,29.716898,73,71,0
29.580044,29.716898,61,59,0
29.716898,29.856071,68,73,0
29.716898,29.856071,56,63,0
29.856071,29.995243,69,65,0
29.856071,29.995243,57,54,0
29.995243,30.84889,66,70,0
29.995243,30.84889,54,58,0
30.84889,31.133219,74,84,0
30.84889,31.133219,62,84,0
31.133219,31.27341,62,48,0
31.133219,31.27341,57,48,0
31.27341,31.413239,62,49,0
31.27341,31.413239,57,49,0
31.413239,31.552696,61,50,0
31.413239,31.552696,56,50,0
31.552696,31.691792,62,51,0
31.552696,31.691792,57,51,0
31.691792,31.830519,63,52,0
31.691792,31.830519,58,52,0
31.830519,31.968884,64,53,0
31.830519,31.968884,59,53,0
31.968884,32.10689,65,54,0
31.968884,32.10689,60,54,0
32.10689,32.244537,66,55,0
32.10689,32.244537,61,55,0
32.244537,32.381824,67,57,0
32.244537,32.381824,62,57,0
32.381824,32.51876,68,59,0
32.381824,32.51876,63,59,0
32.51876,32.655342,69,59,0
32.51876,32.655342,64,59,0
32.655342,32.791924,70,60,0
32.655342,32.791924,65,60,0
32.791924,32.9285,71,64,0
32.791924,32.9285,66,64,0
32.9285,33.065083,72,65,0
32.9285,33.065083,67,65,0
33.065083,33.201664,73,66,0
33.065083,33.201664,68,66,0
33.201664,33.338245,74,67,0
33.201664,33.338245,69,67,0
33.338245,33.61141,74,68,0
33.338245,33.61141,69,68,0
33.61141,33.88768,75,73,0
33.61141,33.88768,70,73,0
33.88768,34.03014,75,80,0
33.88768,34.03014,82,80,0
33.88768,34.03014,87,80,0
34.172596,34.457508,99,79,0
34.172596,34.457508,87,91,0
34.457508,34.597336,63,48,0
34.457508,34.597336,58,48,0
34.597336,34.736855,58,49,0
34.597336,34.736855,63,49,0
34.736855,34.876072,62,50,0
34.736855,34.876072,57,50,0
34.876072,35.014923,63,51,0
34.876072,35.014923,58,51,0
35.014923,35.15347,64,52,0
35.014923,35.15347,59,52,0
35.15347,35.291714,65,53,0
35.15347,35.291714,60,53,0
35.291714,35.4296,66,54,0
35.291714,35.4296,61,54,0
35.4296,35.567184,67,55,0
35.4296,35.567184,62,55,0
35.567184,35.70447,68,57,0
35.567184,35.70447,63,57,0
35.70447,35.841408,69,59,0
35.70447,35.841408,64,59,0
35.841408,35.97799,70,59,0
35.841408,35.97799,65,59,0
35.97799,36.11457,71,60,0
35.97799,36.11457,66,60,0
36.11457,36.251152,72,64,0
36.11457,36.251152,67,64,0
36.251152,36.387733,73,65,0
36.251152,36.387733,68,65,0
36.387733,36.524315,74,66,0
36.387733,36.524315,69,66,0
36.524315,36.660896,75,67,0
36.524315,36.660896,70,67,0
36.660896,36.934055,75,68,0
36.660896,36.934055,70,68,0
36.934055,37.20729,76,73,0
36.934055,37.20729,71,73,0
37.20729,37.349747,76,80,0
37.20729,37.349747,83,80,0
37.20729,37.349747,88,80,0
37.492207,37.77712,100,85,0
37.492207,37.77712,88,91,0
37.77712,37.914764,76,70,0
37.77712,37.914764,64,58,0
37.914764,38.05241,76,70,0
37.914764,38.05241,64,58,0
38.05241,38.192238,75,64,0
38.05241,38.192238,63,53,0
38.192238,38.331333,76,64,0
38.192238,38.331333,64,53,0
38.331333,38.4694,77,70,0
38.331333,38.4694,65,58,0
38.4694,38.607407,78,64,0
38.4694,38.607407,66,53,0
38.607407,38.675835,79,70,0
38.607407,38.675835,67,58,0
38.744263,38.81269,79,65,0
38.744263,38.81269,67,54,0
38.88112,38.9514,79,65,0
38.88112,38.9514,67,54,0
39.021687,39.09197,79,65,0
39.021687,39.09197,67,54,0
39.162254,39.2999,79,70,0
39.162254,39.2999,67,58,0
39.2999,39.437546,78,65,0
39.2999,39.437546,66,54,0
39.437546,39.50581,78,70,0
39.437546,39.50581,66,58,0
39.574078,39.64234,78,65,0
39.574078,39.64234,66,54,0
39.710606,39.78089,77,65,0
39.710606,39.78089,65,54,0
39.851173,39.92146,78,65,0
39.851173,39.92146,66,54,0
39.991745,40.12939,79,70,0
39.991745,40.12939,67,58,0
40.12939,40.267036,80,63,0
40.12939,40.267036,68,53,0
40.267036,40.33514,81,65,0
40.267036,40.33514,69,54,0
40.403244,40.471348,81,67,0
40.403244,40.471348,69,56,0
40.53945,40.609367,81,70,0
40.53945,40.609367,69,58,0
40.67928,40.749195,81,72,0
40.67928,40.749195,69,60,0
40.819107,40.956753,81,78,0
40.819107,40.956753,69,66,0
40.956753,41.0944,80,72,0
40.956753,41.0944,68,60,0
41.0944,41.162506,80,74,0
41.0944,41.162506,68,63,0
41.23061,41.298714,80,76,0
41.23061,41.298714,68,65,0
41.366817,41.436733,79,77,0
41.366817,41.436733,67,65,0
41.506645,41.57656,80,80,0
41.506645,41.57656,68,68,0
41.646473,41.895115,80,91,0
41.646473,41.895115,73,77,0
41.646473,41.895115,68,77,0
41.895115,41.932438,82,63,0
41.895115,41.932438,70,55,0
41.932438,42.070282,80,86,0
41.932438,42.070282,73,73,0
41.932438,42.070282,68,73,0
42.070282,42.209454,79,79,0
42.070282,42.209454,67,66,0
42.209454,42.35244,80,88,0
42.209454,42.35244,73,73,0
42.209454,42.35244,68,73,0
42.35244,42.4982,82,82,0
42.35244,42.4982,70,69,0
42.4982,42.78488,80,90,0
42.4982,42.78488,68,76,0
42.4982,42.78488,73,76,0
42.78488,42.923386,80,79,0
42.78488,42.923386,92,95,0
43.06189,43.343647,78,88,0
43.06189,43.343647,73,73,0
43.06189,43.343647,66,73,0
43.343647,43.59501,78,77,0
43.343647,43.59501,71,65,0
43.343647,43.59501,66,65,0
43.59501,43.632427,80,61,0
43.59501,43.632427,68,61,0
43.632427,43.770493,78,82,0
43.632427,43.770493,71,70,0
43.632427,43.770493,66,70,0
43.770493,43.909664,77,79,0
43.770493,43.909664,65,67,0
43.909664,44.05445,78,84,0
43.909664,44.05445,71,70,0
43.909664,44.05445,66,70,0
44.05445,44.19924,80,79,0
44.05445,44.19924,68,67,0
44.19924,44.484493,78,90,0
44.19924,44.484493,66,76,0
44.19924,44.484493,71,76,0
44.484493,44.62401,78,79,0
44.484493,44.62401,90,92,0
44.763523,45.04505,76,88,0
44.763523,45.04505,71,73,0
44.763523,45.04505,64,73,0
45.04505,45.29651,76,91,0
45.04505,45.29651,69,77,0
45.04505,45.29651,64,77,0
45.29651,45.33403,78,63,0
45.29651,45.33403,66,55,0
45.33403,45.472755,76,91,0
45.33403,45.472755,69,77,0
45.33403,45.472755,64,77,0
45.472755,45.611485,75,82,0
45.472755,45.611485,63,69,0
45.611485,45.75471,76,88,0
45.611485,45.75471,69,73,0
45.611485,45.75471,64,73,0
45.75471,45.897938,78,82,0
45.75471,45.897938,66,69,0
45.897938,46.03888,75,90,0
45.897938,46.03888,69,76,0
45.897938,46.03888,63,76,0
46.03888,46.179825,63,74,0
46.179825,46.320583,75,84,0
46.179825,46.320583,66,71,0
46.320583,46.46228,75,81,0
46.46228,46.604992,78,74,0
46.46228,46.604992,87,89,0
46.604992,46.748802,87,88,0
46.748802,47.037598,90,77,0
46.748802,47.037598,99,93,0
47.037598,47.182014,66,70,0
47.037598,47.182014,69,82,0
47.037598,47.182014,63,70,0
47.326435,47.46906,78,79,0
47.326435,47.46906,69,67,0
47.326435,47.46906,66,67,0
47.611687,47.755745,77,82,0
47.611687,47.755745,70,70,0
47.611687,47.755745,65,70,0
47.8998,48.043144,70,61,0
47.8998,48.043144,65,52,0
47.8998,48.043144,58,52,0
48.186485,48.331272,63,56,0
48.186485,48.331272,75,66,0
48.186485,48.331272,66,56,0
48.186485,48.331272,72,66,0
48.47606,48.620117,73,68,0
48.47606,48.620117,61,57,0
48.47606,48.620117,65,57,0
48.47606,48.620117,70,68,0
48.764175,48.908234,65,60,0
48.764175,48.908234,61,50,0
49.05229,49.196346,72,58,0
49.05229,49.196346,63,49,0
49.05229,49.196346,65,49,0
49.05229,49.196346,69,58,0
49.340405,49.484463,70,55,0
49.340405,49.484463,65,46,0
49.340405,49.484463,61,46,0
49.62852,49.77367,58,48,0
49.62852,49.77367,53,38,0
49.918823,50.06181,54,40,0
49.918823,50.06181,58,40,0
49.918823,50.06181,63,50,0
50.204796,50.348854,61,51,0
50.204796,50.348854,58,43,0
50.204796,50.348854,53,43,0
50.492912,50.63697,53,45,0
50.78103,50.925083,51,37,0
50.78103,50.925083,57,37,0
50.78103,50.925083,60,45,0
51.06914,52.19333,70,46,0
51.06914,52.19333,58,46,0
52.19333,52.47747,82,46,0
52.19333,52.47747,70,46,0
52.47747,52.761627,82,46,0
52.47747,52.761627,94,46,0
52.761627,53.889267,58,46,0
52.761627,53.889267,70,46,0
53.889267,54.17266,82,53,0
53.889267,54.17266,70,53,0
54.17266,54.45605,82,59,0
54.17266,54.45605,94,59,0
54.45605,54.505604,63,63,0
54.45605,54.505604,51,52,0
54.58819,54.638786,63,66,0
54.58819,54.638786,51,55,0
54.723118,54.773243,51,57,0
54.723118,54.773243,63,67,0
54.856636,54.90845,51,59,0
54.856636,54.90845,63,68,0
54.99481,55.276756,51,66,0
54.99481,55.276756,63,79,0
55.276756,55.551914,65,88,0
55.276756,55.551914,53,73,0
55.276756,55.551914,63,75,0
55.276756,55.551914,59,71,0
55.551914,55.6876,65,63,0
55.551914,55.6876,71,63,0
55.551914,55.6876,77,76,0
55.551914,55.6876,75,63,0
55.6876,55.82328,75,74,0
55.6876,55.82328,63,61,0
55.82328,55.958958,70,63,0
55.82328,55.958958,65,63,0
55.82328,55.958958,74,63,0
55.82328,55.958958,77,76,0
55.958958,56.098446,66,59,0
55.958958,56.098446,78,72,0
56.098446,56.14788,54,52,0
56.098446,56.14788,66,63,0
56.230278,56.280758,66,66,0
56.230278,56.280758,54,55,0
56.36489,56.414555,66,67,0
56.36489,56.414555,54,57,0
56.49733,56.54965,54,57,0
56.49733,56.54965,66,66,0
56.636845,56.92,54,68,0
56.636845,56.92,66,79,0
56.92,57.19364,68,87,0
56.92,57.19364,56,72,0
56.92,57.19364,62,73,0
56.92,57.19364,66,75,0
57.19364,57.328964,74,63,0
57.19364,57.328964,68,63,0
57.19364,57.328964,78,63,0
57.19364,57.328964,80,76,0
57.328964,57.464283,78,74,0
57.328964,57.464283,66,61,0
57.464283,57.5996,73,63,0
57.464283,57.5996,68,63,0
57.464283,57.5996,77,63,0
57.464283,57.5996,80,76,0
57.5996,57.738308,69,59,0
57.5996,57.738308,81,72,0
57.738308,57.787407,57,47,0
57.738308,57.787407,69,56,0
57.86924,57.919018,69,60,0
57.86924,57.919018,57,51,0
58.001987,58.051086,69,64,0
58.001987,58.051086,57,54,0
58.132915,58.185745,69,68,0
58.132915,58.185745,57,57,0
58.27265,58.551,57,70,0
58.27265,58.551,69,82,0
58.551,58.600548,65,52,0
58.551,58.600548,68,52,0
58.551,58.600548,70,63,0
58.551,58.600548,58,52,0
58.551,58.600548,56,52,0
58.683132,58.733852,58,55,0
58.683132,58.733852,68,55,0
58.683132,58.733852,65,55,0
58.683132,58.733852,70,66,0
58.683132,58.733852,56,55,0
58.81838,58.86874,65,60,0
58.81838,58.86874,58,60,0
58.81838,58.86874,56,60,0
58.81838,58.86874,68,60,0
58.81838,58.86874,70,71,0
58.95268,59.005253,58,61,0
58.95268,59.005253,68,73,0
58.95268,59.005253,56,61,0
58.95268,59.005253,65,61,0
58.95268,59.005253,70,73,0
59.092873,59.37326,70,81,0
59.092873,59.37326,62,68,0
59.092873,59.37326,56,68,0
59.092873,59.37326,58,68,0
59.092873,59.37326,68,68,0
59.37326,59.423386,58,53,0
59.37326,59.423386,66,53,0
59.37326,59.423386,63,53,0
59.37326,59.423386,70,64,0
59.50693,59.557648,63,56,0
59.50693,59.557648,66,56,0
59.50693,59.557648,58,56,0
59.50693,59.557648,70,68,0
59.642178,59.69254,63,61,0
59.642178,59.69254,70,73,0
59.642178,59.69254,66,61,0
59.776478,59.82854,70,75,0
59.776478,59.82854,63,64,0
59.776478,59.82854,66,64,0
59.915314,60.201748,63,72,0
59.915314,60.201748,70,84,0
59.915314,60.201748,66,72,0
60.201748,60.485905,68,90,0
60.201748,60.485905,63,75,0
60.201748,60.485905,56,75,0
60.485905,60.76258,75,90,0
60.485905,60.76258,68,75,0
60.485905,60.76258,63,75,0
60.76258,61.04397,75,72,0
60.76258,61.04397,77,85,0
60.76258,61.04397,71,72,0
60.76258,61.04397,65,72,0
61.04397,61.32535,78,85,0
61.04397,61.32535,70,72,0
61.04397,61.32535,66,72,0
61.04397,61.32535,75,72,0
61.32535,61.466045,99,101,0
61.32535,61.466045,87,87,0
61.60674,61.890587,75,72,0
61.60674,61.890587,71,72,0
61.60674,61.890587,83,86,0
61.890587,62.031124,95,99,0
61.890587,62.031124,83,84,0
62.171658,62.456207,80,85,0
62.171658,62.456207,68,71,0
62.171658,62.456207,71,71,0
62.171658,62.456207,75,71,0
62.456207,62.59674,92,99,0
62.456207,62.59674,80,84,0
62.737278,63.026848,78,89,0
62.737278,63.026848,70,75,0
62.737278,63.026848,66,75,0
62.737278,63.026848,75,75,0
63.026848,63.169125,78,84,0
63.026848,63.169125,90,99,0
63.311398,63.601704,75,72,0
63.311398,63.601704,65,72,0
63.311398,63.601704,70,72,0
63.311398,63.601704,77,86,0
63.601704,63.745045,77,84,0
63.601704,63.745045,89,99,0
63.888386,64.18016,77,89,0
63.888386,64.18016,65,75,0
63.888386,64.18016,70,75,0
63.888386,64.18016,74,75,0
64.18016,64.45164,75,85,0
64.18016,64.45164,87,102,0
64.469734,65.33015,75,94,0
64.469734,65.33015,63,78,0
65.33015,65.61469,70,81,0
65.33015,65.61469,58,69,0
65.61469,65.75353,71,75,0
65.61469,65.75353,59,64,0
65.75353,65.89237,70,71,0
65.75353,65.89237,58,59,0
65.89237,66.034996,65,73,0
65.89237,66.034996,53,63,0
66.034996,66.17762,66,65,0
66.034996,66.17762,54,54,0
66.17762,67.318634,63,70,0
66.17762,67.318634,51,58,0
68.418,68.92298,58,30,0
68.92298,69.94434,58,32,0
69.94434,70.44876,58,28,0
70.44876,71.47012,58,32,0
71.47012,71.97293,58,27,0
71.97293,72.99429,58,32,0
72.99429,73.4971,58,27,0
73.4971,74.017525,58,33,0
74.539314,75.043724,58,25,0
75.043724,75.56088,58,25,0
76.06466,76.57214,66,24,0
76.06466,76.57214,58,19,0
76.57214,77.084435,66,24,0
76.57214,77.084435,58,19,0
77.59356,78.108444,59,22,0
78.108444,78.63256,59,21,0
78.108444,78.63256,65,25,0
79.15667,79.66579,66,26,0
79.15667,79.66579,58,22,0
79.66579,80.18134,66,26,0
79.66579,80.18134,58,22,0
80.18134,80.69689,66,25,0
80.18134,80.69689,58,21,0
80.69689,81.20438,66,24,0
80.69689,81.20438,61,20,0
81.20438,81.7183,66,24,0
81.20438,81.7183,61,20,0
81.7183,82.225784,66,25,0
81.7183,82.225784,61,21,0
82.225784,82.73327,61,24,0
82.225784,82.73327,56,20,0
82.73327,83.247185,61,24,0
82.73327,83.247185,54,20,0
83.247185,83.765945,61,25,0
83.247185,83.765945,54,21,0
83.765945,84.278244,61,24,0
83.765945,84.278244,56,20,0
84.278244,84.79054,61,24,0
84.278244,84.79054,54,20,0
84.79054,85.30283,61,25,0
84.79054,85.30283,54,21,0
85.30283,85.821594,61,24,0
85.30283,85.821594,56,20,0
85.821594,86.35037,61,25,0
85.821594,86.35037,54,21,0
86.86592,87.37034,61,27,0
87.37034,87.88749,61,27,0
88.39641,88.90389,70,26,0
88.39641,88.90389,61,22,0
88.90389,89.41619,70,24,0
88.90389,89.41619,61,20,0
89.925316,90.43443,63,22,0
90.43443,90.94999,63,22,0
90.43443,90.94999,69,26,0
91.46554,91.97466,70,25,0
91.46554,91.97466,61,21,0
91.97466,92.485085,70,25,0
91.97466,92.485085,61,21,0
92.485085,92.99997,70,27,0
92.485085,92.99997,61,23,0
92.99997,93.507454,70,28,0
92.99997,93.507454,65,24,0
93.507454,94.02138,70,27,0
93.507454,94.02138,65,23,0
94.02138,94.52886,70,27,0
94.02138,94.52886,65,22,0
94.52886,95.03635,65,26,0
94.52886,95.03635,60,22,0
95.03635,95.55026,65,26,0
95.03635,95.55026,58,22,0
95.55026,96.06903,65,26,0
95.55026,96.06903,58,22,0
96.06903,96.58132,65,26,0
96.06903,96.58132,60,22,0
96.58132,97.09362,65,26,0
96.58132,97.09362,58,22,0
97.09362,97.60591,65,26,0
97.09362,97.60591,58,22,0
97.60591,98.11821,65,26,0
97.60591,98.11821,60,22,0
98.11821,98.6305,65,26,0
98.11821,98.6305,58,22,0
99.14606,99.65047,58,27,0
99.65047,100.16762,58,26,0
100.6758,101.18328,66,27,0
100.6758,101.18328,58,22,0
101.18328,101.69557,66,26,0
101.18328,101.69557,58,22,0
102.2047,102.71958,59,22,0
102.71958,103.24137,59,22,0
102.71958,103.24137,65,27,0
103.76315,104.27228,66,28,0
103.76315,104.27228,58,24,0
104.27228,104.78783,66,27,0
104.27228,104.78783,58,24,0
104.78783,105.30338,66,27,0
104.78783,105.30338,58,23,0
105.30338,105.81087,66,27,0
105.30338,105.81087,61,22,0
105.81087,106.32479,66,27,0
105.81087,106.32479,61,22,0
106.32479,106.832275,66,26,0
106.32479,106.832275,61,22,0
106.832275,107.33976,61,26,0
106.832275,107.33976,56,22,0
107.33976,107.853676,61,25,0
107.33976,107.853676,54,21,0
107.853676,108.37244,61,27,0
107.853676,108.37244,54,22,0
108.37244,108.884735,61,26,0
108.37244,108.884735,56,22,0
108.884735,109.397026,61,26,0
108.884735,109.397026,54,22,0
109.397026,109.909325,61,27,0
109.397026,109.909325,54,22,0
109.909325,110.428085,61,26,0
109.909325,110.428085,56,22,0
110.428085,110.956856,61,26,0
110.428085,110.956856,58,22,0
111.47241,111.97683,65,28,0
111.47241,111.97683,58,24,0
111.97683,112.49398,65,28,0
111.97683,112.49398,58,24,0
113.0044,113.51189,65,28,0
113.0044,113.51189,59,24,0
113.51189,114.02418,65,37,0
113.51189,114.02418,60,31,0
114.52581,115.03398,62,28,0
115.03398,115.54954,67,24,0
115.03398,115.54954,70,28,0
116.06509,116.57421,69,32,0
116.06509,116.57421,65,27,0
116.57421,116.96584,69,31,0
116.57421,116.96584,65,31,0
117.60787,118.11229,65,27,0
117.60787,118.11229,58,24,0
118.11229,118.62944,65,27,0
118.11229,118.62944,58,23,0
119.14659,119.654076,65,28,0
119.14659,119.654076,59,24,0
119.654076,120.166374,65,26,0
119.654076,120.166374,60,22,0
120.67549,121.19041,61,34,0
121.19041,121.71525,66,24,0
121.19041,121.71525,70,28,0
122.24009,122.76079,71,28,0
122.24009,122.76079,65,24,0
122.76079,123.27419,71,28,0
122.76079,123.27634,65,24,0
123.27634,123.79189,65,35,0
123.79189,124.30745,65,39,0
124.30745,124.823,65,39,0
124.823,125.338554,65,37,0
125.338554,125.8541,63,36,0
125.8541,126.36966,65,36,0
126.36966,126.88268,65,35,0
126.88268,127.39905,63,35,0
127.39905,127.919,65,32,0
127.919,128.44257,65,32,0
128.44257,128.9698,63,31,0
128.9698,129.50394,65,31,0
130.03525,130.53966,58,25,0
130.53966,131.05681,58,22,0
131.56723,132.0747,66,25,0
131.56723,132.0747,58,20,0
132.0747,132.587,66,25,0
132.0747,132.587,58,20,0
133.09613,133.60873,59,23,0
133.60873,134.1376,59,22,0
133.60873,134.1376,65,27,0
134.66647,135.17558,66,28,0
134.66647,135.17558,58,24,0
135.17558,135.69115,66,27,0
135.17558,135.69115,58,23,0
135.69115,136.2067,66,28,0
135.69115,136.2067,58,23,0
136.2067,136.71417,66,24,0
136.2067,136.71417,61,20,0
136.71417,137.2281,66,24,0
136.71417,137.2281,61,20,0
137.2281,137.73558,66,24,0
137.2281,137.73558,61,20,0
137.73558,138.24307,61,24,0
137.73558,138.24307,56,20,0
138.24307,138.75699,61,24,0
138.24307,138.75699,54,18,0
138.75699,139.27574,61,24,0
138.75699,139.27574,54,18,0
139.27574,139.78804,61,22,0
139.27574,139.78804,56,17,0
139.78804,140.30034,61,22,0
139.78804,140.30034,54,17,0
140.30034,140.81264,61,22,0
140.30034,140.81264,54,14,0
140.81264,141.33139,61,22,0
140.81264,141.33139,56,13,0
141.33139,141.86017,61,20,0
141.33139,141.86017,58,13,0
142.37572,142.88014,59,26,0
142.88014,143.39673,59,26,0
143.9049,144.41238,68,27,0
143.9049,144.41238,59,22,0
144.41238,144.92468,68,25,0
144.41238,144.92468,59,21,0
145.4338,145.94293,61,28,0
145.94293,146.45848,61,22,0
145.94293,146.45848,67,27,0
146.97403,147.48315,68,26,0
146.97403,147.48315,59,22,0
147.48315,147.9987,68,26,0
147.48315,147.9987,59,22,0
147.9987,148.51425,68,28,0
147.9987,148.51425,59,20,0
148.51425,149.02174,68,29,0
148.51425,149.02174,63,24,0
149.02174,149.53566,68,27,0
149.02174,149.53566,63,24,0
149.53566,150.04315,68,27,0
149.53566,150.04315,63,22,0
150.04315,150.55063,63,26,0
150.04315,150.55063,58,21,0
150.55063,151.06454,63,25,0
150.55063,151.06454,56,20,0
151.06454,151.58331,63,25,0
151.06454,151.58331,56,20,0
151.58331,152.09561,63,24,0
151.58331,152.09561,58,18,0
152.09561,152.60791,63,24,0
152.09561,152.60791,56,18,0
152.60791,153.1202,63,24,0
152.60791,153.1202,56,18,0
153.1202,153.63249,63,23,0
153.1202,153.63249,58,18,0
153.63249,154.14479,63,23,0
153.63249,154.14479,54,18,0
153.63249,154.14479,59,18,0
154.14479,154.65709,61,28,0
154.14479,154.65709,59,24,0
154.14479,154.65709,53,24,0
154.65709,155.16937,65,27,0
154.65709,155.16937,59,22,0
155.16937,155.69144,65,27,0
155.16937,155.69144,59,22,0
155.69144,156.22887,59,30,0
155.69144,156.22887,54,25,0
156.22887,156.74199,59,25,0
156.22887,156.74199,54,21,0
156.74199,157.27151,59,26,0
156.74199,157.27151,54,22,0
157.27151,157.78384,61,36,0
157.27151,157.78384,59,27,0
157.27151,157.78384,56,27,0
157.78384,158.29619,65,27,0
157.78384,158.29619,59,23,0
158.29619,158.81607,65,27,0
158.29619,158.81607,59,23,0
158.81607,159.35143,59,30,0
158.81607,159.35143,54,25,0
159.35143,159.86266,59,27,0
159.35143,159.86266,54,23,0
159.86266,160.38577,59,27,0
159.86266,160.38577,54,23,0
160.38577,160.89395,61,31,0
160.38577,160.89395,59,27,0
160.38577,160.89395,56,27,0
160.89395,161.39604,65,34,0
160.89395,161.39604,59,28,0
161.39604,161.90839,65,36,0
161.39604,161.90839,59,30,0
161.90839,162.42072,65,37,0
161.90839,162.42072,59,31,0
162.42072,162.94592,65,39,0
162.42072,162.94592,60,32,0
162.94592,163.46465,65,43,0
162.94592,163.46465,61,36,0
163.46465,163.99207,65,45,0
163.46465,163.99207,62,36,0
163.99207,164.54898,65,42,0
163.99207,164.5513,63,34,0
164.5513,165.10005,61,28,0
164.5513,165.10005,59,24,0
165.10005,165.6488,61,30,0
165.10005,165.6488,58,26,0
166.69366,168.2183,68,36,0
166.69366,168.2183,56,30,0
166.69366,168.2183,60,30,0
166.69366,168.2183,66,36,0
168.2183,168.74928,56,30,0
168.2183,169.78653,61,30,0
168.2183,169.78653,65,30,0
168.2183,169.78653,68,36,0
169.78653,170.78246,60,31,0
170.78246,171.03778,61,42,0
171.03778,171.3021,63,37,0
169.78653,171.3021,68,37,0
169.78653,171.3021,66,37,0
171.3021,171.82098,64,45,0
171.3021,172.57529,68,45,0
172.57529,172.84077,77,52,0
171.82098,172.84077,65,39,0
172.84077,173.86336,77,49,0
172.84077,173.86336,69,39,0
173.86336,174.38673,69,39,0
172.84077,174.38673,63,39,0
174.38673,175.42131,70,46,0
175.42131,175.93474,73,45,0
175.42131,175.93474,65,37,0
174.38673,175.93474,61,39,0
175.93474,177.48305,67,47,0
175.93474,177.48305,63,39,0
175.93474,177.48305,61,34,0
177.48305,178.53076,68,47,0
177.48305,178.53076,63,39,0
177.48305,178.53076,60,39,0
178.53076,179.04454,68,45,0
178.53076,179.04454,65,37,0
178.53076,179.04454,61,37,0
179.04454,180.56711,68,36,0
179.04454,180.56711,66,36,0
179.04454,180.56711,60,30,0
180.56711,181.61745,61,39,0
181.61745,182.13159,56,35,0
180.56711,182.13159,68,46,0
180.56711,182.13159,65,42,0
182.13159,182.64572,60,45,0
182.64572,182.90215,58,38,0
182.90215,183.16156,56,34,0
183.16156,183.42662,61,42,0
183.42662,183.69168,63,37,0
182.13159,183.69168,68,45,0
182.13159,183.69168,66,45,0
183.69168,184.74469,65,39,0
184.74469,185.28127,64,42,0
183.69168,185.28127,68,47,0
185.28127,186.33545,68,45,0
186.33545,186.86807,66,38,0
185.28127,186.86807,63,38,0
186.86807,187.39937,62,37,0
186.86807,187.9381,66,45,0
187.9381,188.46939,73,47,0
187.9381,188.46939,63,39,0
187.39937,188.46939,61,39,0
188.46939,190.05998,61,41,0
188.46939,190.06331,73,48,0
188.46939,190.06331,65,41,0
190.06331,191.12592,68,37,0
191.12592,191.67511,69,45,0
190.06331,191.67511,65,31,0
192.21371,192.71812,58,25,0
192.71812,193.235,58,22,0
193.74542,194.2529,66,25,0
193.74542,194.2529,58,20,0
194.2529,194.77005,66,25,0
194.2529,194.77005,58,20,0
195.27917,195.7883,59,23,0
195.7883,196.30385,59,22,0
195.7883,196.30385,65,27,0
196.81941,197.32852,66,28,0
196.81941,197.32852,58,24,0
197.32852,197.84409,66,27,0
197.32852,197.84409,58,23,0
197.84409,198.35963,66,27,0
197.84409,198.35963,58,23,0
198.35963,198.86711,66,24,0
198.35963,198.86711,61,20,0
198.86711,199.38104,66,24,0
198.86711,199.38104,61,20,0
199.38104,199.88852,66,24,0
199.38104,199.88852,61,20,0
199.88852,200.39601,61,24,0
199.88852,200.39601,56,20,0
200.39601,200.90993,61,24,0
200.39601,200.90993,54,20,0
200.90993,201.42868,61,24,0
200.90993,201.42868,54,20,0
201.42868,201.94098,61,23,0
201.42868,201.94098,56,18,0
201.94098,202.45328,61,23,0
201.94098,202.45328,54,18,0
202.45328,202.96558,61,23,0
202.45328,202.96558,54,15,0
202.96558,203.48433,61,24,0
202.96558,203.48433,56,15,0
203.48433,204.0131,61,23,0
203.48433,204.0131,54,15,0
204.52866,205.03308,59,26,0
205.03308,205.54994,59,26,0
206.06036,206.56786,68,30,0
206.06036,206.56786,59,25,0
206.56786,207.08015,68,25,0
206.56786,207.08015,59,21,0
207.58926,208.09839,61,28,0
208.09839,208.61395,61,22,0
208.09839,208.61395,67,27,0
209.1295,209.63863,68,26,0
209.1295,209.63863,59,22,0
209.63863,210.15417,68,26,0
209.63863,210.15417,59,22,0
210.15417,210.66972,68,28,0
210.15417,210.66972,59,20,0
210.66972,211.17722,68,29,0
210.66972,211.17722,63,24,0
211.17722,211.69113,68,27,0
211.17722,211.69113,63,24,0
211.69113,212.19861,68,27,0
211.69113,212.19861,63,22,0
212.19861,212.7061,63,27,0
212.19861,212.7061,58,23,0
212.7061,213.22002,63,27,0
212.7061,213.22002,56,22,0
213.22002,213.73878,63,27,0
213.22002,213.73878,56,22,0
213.73878,214.25108,63,27,0
213.73878,214.25108,58,22,0
214.25108,214.76337,63,27,0
214.25108,214.76337,56,22,0
214.76337,215.27567,63,27,0
214.76337,215.27567,56,22,0
215.27567,215.78796,63,27,0
215.27567,215.78796,58,22,0
215.78796,216.30026,63,27,0
215.78796,216.30026,54,22,0
215.78796,216.30026,59,22,0
216.30026,216.81255,61,28,0
216.30026,216.81255,59,28,0
216.30026,216.81255,53,24,0
216.81255,217.32484,65,27,0
216.81255,217.32484,59,22,0
217.32484,217.84691,65,27,0
217.32484,217.84691,59,22,0
217.84691,218.38434,59,30,0
217.84691,218.38434,54,25,0
218.38434,218.89746,59,25,0
218.38434,218.89746,54,21,0
218.89746,219.42697,59,26,0
218.89746,219.42697,54,22,0
219.42697,219.93932,61,36,0
219.42697,219.93932,59,27,0
219.42697,219.93932,56,27,0
219.93932,220.45166,65,27,0
219.93932,220.45166,59,23,0
220.45166,220.97154,65,27,0
220.45166,220.97154,59,23,0
220.97154,221.5069,59,30,0
220.97154,221.5069,54,25,0
221.5069,222.01811,59,27,0
221.5069,222.01811,54,23,0
222.01811,222.54124,59,27,0
222.01811,222.54124,54,23,0
222.54124,223.04942,61,31,0
222.54124,223.04942,59,27,0
222.54124,223.04942,56,27,0
223.04942,223.55151,65,34,0
223.04942,223.55151,59,28,0
223.55151,224.06384,65,36,0
223.55151,224.06384,59,30,0
224.06384,224.57619,65,37,0
224.06384,224.57619,59,31,0
224.57619,225.1014,65,39,0
224.57619,225.1014,60,32,0
225.1014,225.62012,65,42,0
225.1014,225.62012,61,35,0
225.62012,226.14754,65,45,0
225.62012,226.14754,62,37,0
226.14754,226.69914,65,41,0
226.14754,226.70145,63,34,0
226.70145,227.25537,61,28,0
226.70145,227.25537,59,24,0
227.25537,227.80928,61,30,0
227.25537,227.80928,58,26,0
228.8476,230.37558,68,36,0
228.8476,230.37558,56,30,0
228.8476,230.37558,60,30,0
228.8476,230.37558,66,36,0
230.37558,230.9113,56,30,0
230.37558,231.94757,61,30,0
230.37558,231.94757,65,30,0
230.37558,231.94757,68,36,0
231.94757,232.95605,60,31,0
232.95605,233.21356,61,42,0
233.21356,233.47905,63,37,0
231.94757,233.47905,68,37,0
231.94757,233.47905,66,37,0
233.47905,233.99794,64,45,0
233.47905,234.77516,68,45,0
234.77516,235.02695,77,52,0
233.99794,235.02695,65,39,0
235.02695,236.0488,77,49,0
235.02695,236.0488,69,39,0
236.0488,236.57217,69,39,0
235.02695,236.57217,63,39,0
236.57217,237.6078,70,46,0
237.6078,238.11554,73,45,0
237.6078,238.11554,65,37,0
236.57217,238.11554,61,39,0
238.11554,239.6681,67,47,0
238.11554,239.6681,63,39,0
238.11554,239.6681,61,34,0
239.6681,240.7226,68,47,0
239.6681,240.7226,63,39,0
239.6681,240.7226,60,39,0
240.7226,241.23975,68,45,0
240.7226,241.23975,65,37,0
240.7226,241.23975,61,37,0
241.23975,242.7668,68,36,0
241.23975,242.7668,66,36,0
241.23975,242.7668,60,30,0
242.7668,243.82909,61,39,0
243.82909,244.34108,56,35,0
242.7668,244.34108,68,46,0
242.7668,244.34108,65,43,0
244.34108,244.86282,60,45,0
244.86282,245.11923,58,38,0
245.11923,245.37564,56,34,0
245.37564,245.6407,61,42,0
245.6407,245.90576,63,37,0
244.34108,245.90576,68,45,0
244.34108,245.90576,66,40,0
245.90576,246.95538,65,39,0
246.95538,247.48425,64,42,0
245.90576,247.48425,68,47,0
247.48425,248.55171,68,45,0
248.55171,249.08316,66,38,0
247.48425,249.08537,63,38,0
249.08537,249.62398,62,37,0
249.08537,250.15652,66,45,0
250.15652,250.69513,73,47,0
250.15652,250.69513,63,39,0
249.62398,250.69513,61,39,0
250.69513,252.30626,61,41,0
250.69513,252.30852,73,48,0
250.69513,252.30852,65,41,0
252.30852,253.39078,68,37,0
253.39078,253.93997,69,45,0
252.30852,253.93997,65,31,0
254.46884,254.97926,58,25,0
254.97926,255.49612,58,22,0
256.00656,256.51404,66,25,0
256.00656,256.51404,58,20,0
256.51404,257.02634,66,25,0
256.51404,257.02634,58,20,0
257.53546,258.0526,59,23,0
258.0526,258.5791,59,22,0
258.0526,258.5791,65,27,0
259.10562,259.6182,66,28,0
259.10562,259.6182,58,24,0
259.6182,260.1377,66,27,0
259.6182,260.1377,58,23,0
260.1377,260.6526,66,27,0
260.1377,260.6526,58,23,0
260.6526,261.16006,66,24,0
260.6526,261.16006,61,20,0
261.16006,261.67398,66,24,0
261.16006,261.67398,61,20,0
261.67398,262.18146,66,24,0
261.67398,262.18146,61,20,0
262.18146,262.68896,61,24,0
262.18146,262.68896,56,20,0
262.68896,263.20288,61,24,0
262.68896,263.20288,54,20,0
263.20288,263.72162,61,24,0
263.20288,263.72162,54,20,0
263.72162,264.23392,61,23,0
263.72162,264.23392,56,18,0
264.23392,264.74622,61,23,0
264.23392,264.74622,54,18,0
264.74622,265.2585,61,23,0
264.74622,265.2585,54,15,0
265.2585,265.77728,61,24,0
265.2585,265.77728,56,15,0
265.77728,266.30606,61,23,0
265.77728,266.30606,54,15,0
266.8216,267.32602,59,26,0
267.32602,267.8429,59,26,0
268.3533,268.8608,68,30,0
268.3533,268.8608,59,25,0
268.8608,269.3731,68,25,0
268.8608,269.3731,59,21,0
269.8822,270.39133,61,28,0
270.39133,270.9069,61,22,0
270.39133,270.9069,67,27,0
271.42245,271.93158,68,26,0
271.42245,271.93158,59,22,0
271.93158,272.4471,68,26,0
271.93158,272.4471,59,22,0
272.4471,272.96268,68,28,0
272.4471,272.96268,59,20,0
272.96268,273.47015,68,29,0
272.96268,273.47015,63,24,0
273.47015,273.98407,68,27,0
273.47015,273.98407,63,24,0
273.98407,274.49155,68,27,0
273.98407,274.49155,63,22,0
274.49155,274.99905,63,27,0
274.49155,274.99905,58,23,0
274.99905,275.51297,63,27,0
274.99905,275.51297,56,22,0
275.51297,276.03174,63,27,0
275.51297,276.03174,56,22,0
276.03174,276.544,63,27,0
276.03174,276.544,58,22,0
276.544,277.0563,63,27,0
276.544,277.0563,56,22,0
277.0563,277.5686,63,27,0
277.0563,277.5686,56,22,0
277.5686,278.0809,63,27,0
277.5686,278.0809,58,22,0
278.0809,278.5932,63,27,0
278.0809,278.5932,54,22,0
278.0809,278.5932,59,22,0
278.5932,279.1055,61,28,0
278.5932,279.1055,59,28,0
278.5932,279.1055,53,24,0
279.1055,279.6178,65,27,0
279.1055,279.6178,59,22,0
279.6178,280.13986,65,27,0
279.6178,280.13986,59,22,0
280.13986,280.67728,59,30,0
280.13986,280.67728,54,25,0
280.67728,281.1904,59,25,0
280.67728,281.1904,54,21,0
281.1904,281.7199,59,26,0
281.1904,281.7199,54,22,0
281.7199,282.23227,61,36,0
281.7199,282.23227,59,27,0
281.7199,282.23227,56,27,0
282.23227,282.7446,65,27,0
282.23227,282.7446,59,23,0
282.7446,283.2645,65,27,0
282.7446,283.2645,59,23,0
283.2645,283.79984,59,30,0
283.2645,283.79984,54,25,0
283.79984,284.31107,59,27,0
283.79984,284.31107,54,23,0
284.31107,284.8342,59,27,0
284.31107,284.8342,54,23,0
284.8342,285.34238,61,31,0
284.8342,285.34238,59,27,0
284.8342,285.34238,56,27,0
285.34238,285.8382,65,35,0
285.34238,285.8382,59,29,0
285.8382,286.34195,65,37,0
285.8382,286.34195,59,31,0
286.34195,286.84573,65,40,0
286.34195,286.84573,59,33,0
286.84573,287.35617,65,45,0
286.84573,287.35617,60,36,0
287.35617,287.87488,65,47,0
287.35617,287.87488,61,42,0
287.87488,288.37076,65,43,0
287.87488,288.37076,62,43,0
287.87488,288.37076,74,49,0
288.37076,289.13803,65,45,0
288.37076,289.13803,63,44,0
288.37076,289.13803,75,51,0
289.13803,289.39117,65,33,0
289.13803,289.39117,62,33,0
289.13803,289.39117,74,49,0
289.39117,289.9152,65,35,0
289.39117,289.9152,62,34,0
289.39117,289.9152,74,50,0
289.9152,290.6847,65,44,0
289.9152,290.6847,63,44,0
289.9152,290.6847,75,51,0
290.6847,290.9286,62,37,0
290.6847,290.9286,74,54,0
290.9286,291.415,62,49,0
290.9286,291.415,74,58,0
291.415,292.1358,61,52,0
291.415,292.1358,73,63,0
292.1358,292.37018,60,46,0
292.1358,292.37018,72,55,0
292.37018,292.83173,60,51,0
292.37018,292.83173,72,61,0
292.83173,293.51715,59,52,0
292.83173,293.51715,71,61,0
293.51715,293.74103,58,49,0
293.51715,293.74103,70,61,0
293.74103,294.18384,58,55,0
293.74103,294.18384,70,66,0
294.18384,294.8409,57,56,0
294.18384,294.8409,69,68,0
294.8409,295.0552,56,55,0
294.8409,295.0552,68,67,0
295.0552,295.47772,56,59,0
295.0552,295.47772,68,73,0
295.47772,295.8206,54,61,0
295.47772,295.8206,66,73,0
295.8206,296.11365,58,73,0
296.11365,296.16348,63,56,0
296.11365,296.16348,51,47,0
296.24655,296.2973,63,58,0
296.24655,296.2973,51,49,0
296.38193,296.43164,63,64,0
296.38193,296.43164,51,54,0
296.51453,296.56754,63,65,0
296.51453,296.56754,51,56,0
296.6533,296.93808,63,72,0
296.6533,296.93808,51,61,0
296.93808,297.2148,65,80,0
296.93808,297.2148,53,67,0
296.93808,297.2148,59,67,0
296.93808,297.2148,63,67,0
297.2148,297.35126,77,68,0
297.2148,297.35126,65,56,0
297.2148,297.35126,71,56,0
297.2148,297.35126,75,56,0
297.35126,297.48773,75,66,0
297.35126,297.48773,63,55,0
297.48773,297.6228,77,68,0
297.48773,297.6228,65,56,0
297.48773,297.6228,70,56,0
297.48773,297.6228,74,56,0
297.6228,297.76553,78,65,0
297.6228,297.76553,66,53,0
297.76553,297.81525,66,59,0
297.76553,297.81525,54,49,0
297.89813,297.9489,66,61,0
297.89813,297.9489,54,52,0
298.0335,298.08322,66,67,0
298.0335,298.08322,54,57,0
298.1661,298.21976,66,66,0
298.1661,298.21976,54,57,0
298.30612,298.5874,66,75,0
298.30612,298.5874,54,64,0
298.5874,298.86258,68,82,0
298.5874,298.86258,56,67,0
298.5874,298.86258,62,69,0
298.5874,298.86258,66,69,0
298.86258,298.9987,80,72,0
298.86258,298.9987,68,59,0
298.86258,298.9987,74,59,0
298.86258,298.9987,78,59,0
298.9987,299.13477,78,70,0
298.9987,299.13477,66,58,0
299.13477,299.26923,80,72,0
299.13477,299.26923,68,59,0
299.13477,299.26923,73,59,0
299.13477,299.26923,77,59,0
299.26923,299.41125,81,65,0
299.26923,299.41125,69,54,0
299.41125,299.46042,69,56,0
299.41125,299.46042,57,47,0
299.54233,299.59253,69,60,0
299.54233,299.59253,57,51,0
299.6762,299.7256,69,64,0
299.6762,299.7256,57,54,0
299.8079,299.86142,69,69,0
299.8079,299.86142,57,59,0
299.9491,300.2243,69,79,0
299.9491,300.2243,57,68,0
300.2243,300.27402,70,63,0
300.2243,300.27402,68,52,0
300.2243,300.27402,58,52,0
300.2243,300.27402,65,52,0
300.2243,300.27402,56,52,0
300.35687,300.4074,70,66,0
300.35687,300.4074,68,55,0
300.35687,300.4074,58,55,0
300.35687,300.4074,65,55,0
300.35687,300.4074,56,55,0
300.49164,300.54147,70,67,0
300.49164,300.54147,68,57,0
300.49164,300.54147,58,57,0
300.49164,300.54147,65,57,0
300.49164,300.54147,56,57,0
300.62454,300.6782,70,68,0
300.62454,300.6782,68,68,0
300.62454,300.6782,58,57,0
300.62454,300.6782,65,57,0
300.62454,300.6782,56,57,0
300.76764,301.04623,70,81,0
300.76764,301.04623,68,68,0
300.76764,301.04623,58,68,0
300.76764,301.04623,62,68,0
300.76764,301.04623,56,68,0
301.04623,301.0963,70,63,0
301.04623,301.0963,58,52,0
301.04623,301.0963,63,52,0
301.04623,301.0963,66,52,0
301.17975,301.23062,70,66,0
301.17975,301.23062,58,55,0
301.17975,301.23062,63,55,0
301.17975,301.23062,66,55,0
301.31546,301.36588,70,67,0
301.31546,301.36588,66,57,0
301.31546,301.36588,63,57,0
301.4499,301.50186,70,67,0
301.4499,301.50186,66,56,0
301.4499,301.50186,63,56,0
301.58853,301.86914,70,85,0
301.58853,301.86914,66,72,0
301.58853,301.86914,63,70,0
301.86914,302.15494,70,78,0
301.86914,302.15494,63,66,0
301.86914,302.15494,58,66,0
302.15494,302.43323,68,78,0
302.15494,302.43323,63,66,0
302.15494,302.43323,56,66,0
302.43323,302.71558,66,74,0
302.43323,302.71558,54,63,0
302.43323,302.71558,57,63,0
302.43323,302.71558,63,63,0
302.71558,302.85306,65,61,0
302.71558,302.85306,61,52,0
302.71558,302.85306,58,52,0
302.85306,302.98987,61,59,0
302.98987,303.12607,73,78,0
302.98987,303.12607,66,66,0
303.12607,303.26166,66,75,0
303.26166,303.39667,78,82,0
303.26166,303.39667,70,69,0
303.39667,303.53107,70,75,0
303.53107,303.66495,82,76,0
303.53107,303.66495,73,65,0
303.66495,303.79874,73,71,0
303.79874,303.93414,85,78,0
303.79874,303.93414,78,66,0
303.93414,304.06952,78,75,0
304.06952,304.20917,90,82,0
304.06952,304.20917,82,69,0
304.20917,304.34882,82,75,0
304.34882,304.6281,94,82,0
304.34882,304.6281,82,69,0
304.34882,304.6281,85,69,0
304.6281,304.9027,92,76,0
304.6281,304.9027,80,64,0
304.6281,304.9027,85,66,0
304.9027,305.18735,73,61,0
304.9027,305.18735,80,61,0
304.9027,305.18735,85,73,0
305.18735,305.46597,80,61,0
305.18735,305.46597,73,57,0
305.46597,305.74658,78,58,0
305.46597,305.74658,90,68,0
305.18735,305.74658,85,75,0
305.74658,306.02997,61,40,0
305.74658,306.02997,68,49,0
305.74658,306.02997,73,56,0
306.02997,306.31137,68,48,0
306.02997,306.31137,61,40,0
306.31137,306.59335,66,49,0
306.31137,306.59335,78,56,0
306.02997,306.59335,73,56,0
306.59335,306.88306,61,38,0
306.59335,306.88306,68,46,0
306.59335,306.88306,73,55,0
306.88306,307.16962,68,48,0
306.88306,307.16962,61,40,0
307.16962,307.46454,66,48,0
307.16962,307.46454,78,56,0
306.88306,307.46454,73,55,0
307.46454,307.75073,73,52,0
307.46454,307.75073,61,52,0
307.75073,308.62448,73,56,0
307.75073,308.62448,61,51,0
308.62448,312.04565,70,53,0
308.62448,312.04565,58,46,0
312.90076,312.95038,63,63,0
312.90076,312.95038,51,52,0
313.03305,313.08383,63,66,0
313.03305,313.08383,51,55,0
313.16812,313.2182,63,67,0
313.16812,313.2182,51,57,0
313.30164,313.35516,63,68,0
313.30164,313.35516,51,59,0
313.4414,313.72202,63,80,0
313.4414,313.72202,51,69,0
313.72202,313.99875,65,90,0
313.72202,313.99875,53,75,0
313.72202,313.99875,59,75,0
313.72202,313.99875,63,75,0
313.99875,314.1352,77,76,0
313.99875,314.1352,65,63,0
313.99875,314.1352,71,63,0
313.99875,314.1352,75,63,0
314.1352,314.27167,75,74,0
314.1352,314.27167,63,61,0
314.27167,314.4064,77,76,0
314.27167,314.4064,65,63,0
314.27167,314.4064,70,63,0
314.27167,314.4064,74,63,0
314.4064,314.5488,78,72,0
314.4064,314.5488,66,59,0
314.5488,314.59842,66,63,0
314.5488,314.59842,54,52,0
314.6811,314.73163,66,66,0
314.6811,314.73163,54,55,0
314.81586,314.8658,66,67,0
314.81586,314.8658,54,57,0
314.94907,315.00284,66,66,0
314.94907,315.00284,54,57,0
315.09085,315.37067,66,79,0
315.09085,315.37067,54,68,0
315.37067,315.64587,68,87,0
315.37067,315.64587,56,72,0
315.37067,315.64587,62,73,0
315.37067,315.64587,66,75,0
315.64587,315.78195,80,76,0
315.64587,315.78195,68,63,0
315.64587,315.78195,74,63,0
315.64587,315.78195,78,63,0
315.78195,315.91806,78,74,0
315.78195,315.91806,66,61,0
315.91806,316.0525,80,76,0
315.91806,316.0525,68,63,0
315.91806,316.0525,73,63,0
315.91806,316.0525,77,63,0
316.0525,316.19315,81,71,0
316.0525,316.19315,69,58,0
316.19315,316.2422,69,56,0
316.19315,316.2422,57,47,0
316.32394,316.37378,69,60,0
316.32394,316.37378,57,51,0
316.45703,316.50632,69,64,0
316.45703,316.50632,57,54,0
316.5884,316.6404,69,68,0
316.5884,316.6404,57,57,0
316.72705,317.00223,69,80,0
316.72705,317.00223,57,68,0
317.00223,317.05197,71,64,0
317.00223,317.05197,59,53,0
317.00223,317.05197,65,53,0
317.00223,317.05197,69,53,0
317.13483,317.1856,71,67,0
317.13483,317.1856,59,56,0
317.13483,317.1856,65,56,0
317.13483,317.1856,69,56,0
317.26996,317.32,71,71,0
317.26996,317.32,59,60,0
317.26996,317.32,65,60,0
317.26996,317.32,69,60,0
317.40347,317.45468,71,72,0
317.40347,317.45468,59,60,0
317.40347,317.45468,65,60,0
317.40347,317.45468,69,72,0
317.54153,317.8167,71,81,0
317.54153,317.8167,59,68,0
317.54153,317.8167,65,68,0
317.54153,317.8167,69,68,0
317.8167,317.86633,72,66,0
317.8167,317.86633,60,54,0
317.8167,317.86633,63,54,0
317.8167,317.86633,69,54,0
317.949,317.99966,72,69,0
317.949,317.99966,60,57,0
317.949,317.99966,63,57,0
317.949,317.99966,69,57,0
318.08408,318.13412,72,74,0
318.08408,318.13412,63,63,0
318.08408,318.13412,60,63,0
318.2176,318.26822,72,76,0
318.2176,318.26822,63,55,0
318.2176,318.26822,60,55,0
318.35263,318.64075,72,86,0
318.35263,318.64075,66,73,0
318.35263,318.64075,60,73,0
318.35263,318.64075,63,73,0
318.64075,318.92654,76,81,0
318.64075,318.92654,64,69,0
318.64075,318.92654,66,69,0
318.64075,318.92654,69,69,0
318.92654,319.2048,74,81,0
318.92654,319.2048,67,69,0
318.92654,319.2048,62,69,0
319.2048,319.4878,62,85,0
319.2048,319.4878,50,72,0
319.4878,319.6253,61,61,0
319.6253,319.7621,61,59,0
319.7621,319.89825,73,78,0
319.7621,319.89825,66,66,0
319.89825,320.0339,66,75,0
320.0339,320.16904,78,82,0
320.0339,320.16904,69,69,0
320.16904,320.30362,69,73,0
320.30362,320.43774,81,76,0
320.30362,320.43774,73,65,0
320.43774,320.5719,73,71,0
320.5719,320.70834,85,78,0
320.5719,320.70834,78,66,0
320.70834,320.84482,78,75,0
320.84482,320.98447,90,82,0
320.84482,320.98447,81,69,0
320.98447,321.1241,81,75,0
321.1241,321.40338,93,82,0
321.1241,321.40338,81,69,0
321.1241,321.40338,85,69,0
321.40338,321.67935,92,78,0
321.40338,321.67935,80,66,0
321.40338,321.67935,85,66,0
321.67935,321.964,73,61,0
321.67935,321.964,80,61,0
321.67935,321.964,85,73,0
321.964,322.24258,80,61,0
321.964,322.24258,73,61,0
322.24258,322.52386,78,58,0
322.24258,322.52386,90,68,0
321.964,322.52386,85,75,0
322.52386,322.80725,61,40,0
322.52386,322.80725,68,48,0
322.52386,322.80725,73,58,0
322.80725,323.08865,68,50,0
322.80725,323.08865,61,42,0
323.08865,323.37064,66,49,0
323.08865,323.37064,78,56,0
322.80725,323.37064,73,58,0
323.37064,323.66034,61,38,0
323.37064,323.66034,68,46,0
323.37064,323.66034,73,56,0
323.66034,323.94687,68,48,0
323.66034,323.94687,61,40,0
323.94687,324.2317,66,46,0
323.94687,324.2317,78,55,0
323.66034,324.2317,73,56,0
324.2317,324.79706,73,81,0
324.2317,324.79706,61,69,0
324.79706,324.9347,74,75,0
324.79706,324.9347,62,64,0
324.9347,325.07233,73,71,0
324.9347,325.07233,61,59,0
325.07233,325.2123,68,73,0
325.07233,325.2123,56,63,0
325.2123,325.3523,69,65,0
325.2123,325.3523,57,54,0
325.3523,326.21085,66,70,0
325.3523,326.21085,54,58,0
326.21085,326.49683,74,84,0
326.21085,326.49683,62,84,0
326.49683,326.63782,62,48,0
326.49683,326.63782,57,48,0
326.63782,326.77844,62,49,0
326.63782,326.77844,57,49,0
326.77844,326.9187,61,50,0
326.77844,326.9187,56,50,0
326.9187,327.0586,62,51,0
326.9187,327.0586,57,51,0
327.0586,327.19812,63,52,0
327.0586,327.19812,58,52,0
327.19812,327.33728,64,53,0
327.19812,327.33728,59,53,0
327.33728,327.47607,65,54,0
327.33728,327.47607,60,54,0
327.47607,327.61453,66,55,0
327.47607,327.61453,61,55,0
327.61453,327.7526,67,57,0
327.61453,327.7526,62,57,0
327.7526,327.89032,68,59,0
327.7526,327.89032,63,59,0
327.89032,328.02768,69,59,0
327.89032,328.02768,64,59,0
328.02768,328.16504,70,60,0
328.02768,328.16504,65,60,0
328.16504,328.3024,71,64,0
328.16504,328.3024,66,64,0
328.3024,328.43976,72,65,0
328.3024,328.43976,67,65,0
328.43976,328.57715,73,66,0
328.43976,328.57715,68,66,0
328.57715,328.7145,74,67,0
328.57715,328.7145,69,67,0
328.7145,328.98923,74,68,0
328.7145,328.98923,69,68,0
328.98923,329.2671,75,73,0
328.98923,329.2671,70,73,0
329.2671,329.41037,75,80,0
329.2671,329.41037,82,80,0
329.2671,329.41037,87,80,0
329.55365,329.84018,99,79,0
329.55365,329.84018,87,91,0
329.84018,329.9808,63,48,0
329.84018,329.9808,58,48,0
329.9808,330.12112,63,49,0
329.9808,330.12112,58,49,0
330.12112,330.26114,62,50,0
330.12112,330.26114,57,50,0
330.26114,330.4008,63,51,0
330.26114,330.4008,58,51,0
330.4008,330.54013,64,52,0
330.4008,330.54013,59,52,0
330.54013,330.67917,65,53,0
330.54013,330.67917,60,53,0
330.67917,330.81784,66,54,0
330.67917,330.81784,61,54,0
330.81784,330.95624,67,55,0
330.81784,330.95624,62,55,0
330.95624,331.0943,68,57,0
330.95624,331.0943,63,57,0
331.0943,331.23203,69,59,0
331.0943,331.23203,64,59,0
331.23203,331.3694,70,59,0
331.23203,331.3694,65,59,0
331.3694,331.50677,71,60,0
331.3694,331.50677,66,60,0
331.50677,331.64413,72,64,0
331.50677,331.64413,67,64,0
331.64413,331.7815,73,65,0
331.64413,331.7815,68,65,0
331.7815,331.91885,74,66,0
331.7815,331.91885,69,66,0
331.91885,332.0562,75,67,0
331.91885,332.0562,70,67,0
332.0562,332.33093,75,68,0
332.0562,332.33093,70,68,0
332.33093,332.60574,76,73,0
332.33093,332.60574,71,73,0
332.60574,332.749,76,80,0
332.60574,332.749,83,80,0
332.60574,332.749,88,80,0
332.89227,333.17883,100,85,0
332.89227,333.17883,88,91,0
333.17883,333.31726,76,70,0
333.17883,333.31726,64,58,0
333.31726,333.45572,76,70,0
333.31726,333.45572,64,58,0
333.45572,333.5963,75,64,0
333.45572,333.5963,63,53,0
333.5963,333.7362,76,64,0
333.5963,333.7362,64,53,0
333.7362,333.87506,77,70,0
333.7362,333.87506,65,58,0
333.87506,334.01385,78,64,0
333.87506,334.01385,66,53,0
334.01385,334.08267,79,70,0
334.01385,334.08267,67,58,0
334.15152,334.22034,79,65,0
334.15152,334.22034,67,54,0
334.28915,334.35983,79,65,0
334.28915,334.35983,67,54,0
334.4305,334.50122,79,65,0
334.4305,334.50122,67,54,0
334.5719,334.71033,79,70,0
334.5719,334.71033,67,58,0
334.71033,334.8488,78,65,0
334.71033,334.8488,66,54,0
334.8488,334.91742,78,70,0
334.8488,334.91742,66,58,0
334.98608,335.05475,78,65,0
334.98608,335.05475,66,54,0
335.1234,335.1941,77,65,0
335.1234,335.1941,65,54,0
335.26477,335.33548,78,65,0
335.26477,335.33548,66,54,0
335.40616,335.5446,79,70,0
335.40616,335.5446,67,58,0
335.5446,335.68304,80,63,0
335.5446,335.68304,68,53,0
335.68304,335.75153,81,65,0
335.68304,335.75153,69,54,0
335.82,335.88852,81,67,0
335.82,335.88852,69,56,0
335.957,336.0273,81,70,0
335.957,336.0273,69,58,0
336.09763,336.16794,81,72,0
336.09763,336.16794,69,60,0
336.23825,336.37668,81,78,0
336.23825,336.37668,69,66,0
336.37668,336.51514,80,72,0
336.37668,336.51514,68,60,0
336.51514,336.58362,80,74,0
336.51514,336.58362,68,63,0
336.6521,336.7206,80,76,0
336.6521,336.7206,68,65,0
336.7891,336.8594,79,77,0
336.7891,336.8594,67,65,0
336.92972,337.00003,80,80,0
336.92972,337.00003,68,68,0
337.07034,337.3204,80,91,0
337.07034,337.3204,73,77,0
337.07034,337.3204,68,77,0
337.3204,337.35794,82,63,0
337.3204,337.35794,70,55,0
337.35794,337.49658,80,86,0
337.35794,337.49658,73,73,0
337.35794,337.49658,68,73,0
337.49658,337.63657,79,79,0
337.49658,337.63657,67,66,0
337.63657,337.78036,80,88,0
337.63657,337.78036,73,73,0
337.63657,337.78036,68,73,0
337.78036,337.92694,82,82,0
337.78036,337.92694,70,69,0
337.92694,338.21527,80,90,0
337.92694,338.21527,68,76,0
337.92694,338.21527,73,76,0
338.21527,338.35458,80,79,0
338.21527,338.35458,92,95,0
338.4939,338.77725,78,88,0
338.4939,338.77725,73,73,0
338.4939,338.77725,66,73,0
338.77725,339.03006,78,77,0
338.77725,339.03006,71,65,0
338.77725,339.03006,66,65,0
339.03006,339.0677,80,61,0
339.03006,339.0677,68,61,0
339.0677,339.20654,78,82,0
339.0677,339.20654,71,70,0
339.0677,339.20654,66,70,0
339.20654,339.34653,77,79,0
339.20654,339.34653,65,67,0
339.34653,339.49213,78,84,0
339.34653,339.49213,71,70,0
339.34653,339.49213,66,70,0
339.49213,339.63776,80,79,0
339.49213,339.63776,68,67,0
339.63776,339.92462,78,90,0
339.63776,339.92462,66,76,0
339.63776,339.92462,71,76,0
339.92462,340.06494,78,79,0
339.92462,340.06494,90,92,0
340.20526,340.4884,76,88,0
340.20526,340.4884,71,73,0
340.20526,340.4884,64,73,0
340.4884,340.7413,76,91,0
340.4884,340.7413,69,77,0
340.4884,340.7413,64,77,0
340.7413,340.77905,78,63,0
340.7413,340.77905,66,55,0
340.77905,340.91858,76,91,0
340.77905,340.91858,69,77,0
340.77905,340.91858,64,77,0
340.91858,341.0581,75,82,0
340.91858,341.0581,63,69,0
341.0581,341.20215,76,88,0
341.0581,341.20215,69,73,0
341.0581,341.20215,64,73,0
341.20215,341.3462,78,82,0
341.20215,341.3462,66,69,0
341.3462,341.48795,75,90,0
341.3462,341.48795,69,76,0
341.3462,341.48795,63,76,0
341.48795,341.6297,63,74,0
341.6297,341.77127,75,84,0
341.6297,341.77127,66,71,0
341.77127,341.9138,75,91,0
341.9138,342.0573,78,74,0
341.9138,342.0573,87,89,0
342.0573,342.20197,87,93,0
342.20197,342.4924,90,77,0
342.20197,342.4924,99,93,0
342.4924,342.63766,66,70,0
342.4924,342.63766,69,82,0
342.4924,342.63766,63,70,0
342.7829,342.92636,78,79,0
342.7829,342.92636,69,67,0
342.7829,342.92636,66,67,0
343.0698,343.21466,77,82,0
343.0698,343.21466,70,70,0
343.0698,343.21466,65,70,0
343.35956,343.50372,70,61,0
343.35956,343.50372,65,52,0
343.35956,343.50372,58,52,0
343.6479,343.7935,75,66,0
343.6479,343.7935,63,56,0
343.6479,343.7935,66,56,0
343.6479,343.7935,72,66,0
343.93912,344.08398,73,68,0
343.93912,344.08398,61,57,0
343.93912,344.08398,65,57,0
343.93912,344.08398,70,68,0
344.22888,344.37378,65,60,0
344.22888,344.37378,61,50,0
344.51865,344.66354,72,58,0
344.51865,344.66354,63,49,0
344.51865,344.66354,65,49,0
344.51865,344.66354,69,58,0
344.80844,344.9533,70,55,0
344.80844,344.9533,65,46,0
344.80844,344.9533,61,46,0
345.0982,345.24417,58,48,0
345.0982,345.24417,53,38,0
345.39017,345.53397,54,40,0
345.39017,345.53397,58,40,0
345.39017,345.53397,63,50,0
345.67776,345.82266,61,51,0
345.67776,345.82266,58,43,0
345.67776,345.82266,53,43,0
345.96753,346.11243,53,45,0
346.25732,346.4022,51,37,0
346.25732,346.4022,57,37,0
346.25732,346.4022,60,45,0
346.5471,347.67776,70,46,0
346.5471,347.67776,58,46,0
347.67776,347.96353,82,46,0
347.67776,347.96353,70,46,0
347.96353,348.24933,82,46,0
347.96353,348.24933,94,46,0
348.24933,349.3835,58,46,0
348.24933,349.3835,70,46,0
349.3835,349.66855,82,53,0
349.3835,349.66855,70,53,0
349.66855,349.95358,82,59,0
349.66855,349.95358,94,59,0
349.95358,350.00342,63,63,0
349.95358,350.00342,51,52,0
350.08646,350.13736,63,66,0
350.08646,350.13736,51,55,0
350.22217,350.27258,51,57,0
350.22217,350.27258,63,67,0
350.35648,350.40857,51,59,0
350.35648,350.40857,63,68,0
350.49542,350.779,51,66,0
350.49542,350.779,63,79,0
350.779,351.05573,65,88,0
350.779,351.05573,53,73,0
350.779,351.05573,63,75,0
350.779,351.05573,59,71,0
351.05573,351.1922,71,63,0
351.05573,351.1922,65,63,0
351.05573,351.1922,77,76,0
351.05573,351.1922,75,63,0
351.1922,351.32864,75,74,0
351.1922,351.32864,63,61,0
351.32864,351.46512,65,63,0
351.32864,351.46512,70,63,0
351.32864,351.46512,74,63,0
351.32864,351.46512,77,76,0
351.46512,351.6054,66,59,0
351.46512,351.6054,78,72,0
351.6054,351.65512,54,52,0
351.6054,351.65512,66,63,0
351.738,351.78876,66,66,0
351.738,351.78876,54,55,0
351.87338,351.92334,66,67,0
351.87338,351.92334,54,57,0
352.0066,352.0592,54,57,0
352.0066,352.0592,66,66,0
352.1469,352.4317,54,68,0
352.1469,352.4317,66,79,0
352.4317,352.7069,68,87,0
352.4317,352.7069,56,72,0
352.4317,352.7069,62,73,0
352.4317,352.7069,66,75,0
352.7069,352.84302,74,63,0
352.7069,352.84302,68,63,0
352.7069,352.84302,78,63,0
352.7069,352.84302,80,76,0
352.84302,352.9791,78,74,0
352.84302,352.9791,66,61,0
352.9791,353.11517,73,63,0
352.9791,353.11517,68,63,0
352.9791,353.11517,77,63,0
352.9791,353.11517,80,76,0
353.11517,353.2547,69,59,0
353.11517,353.2547,81,72,0
353.2547,353.30408,57,47,0
353.2547,353.30408,69,56,0
353.38638,353.43646,69,60,0
353.38638,353.43646,57,51,0
353.5199,353.56927,69,64,0
353.5199,353.56927,57,54,0
353.65158,353.7047,69,68,0
353.65158,353.7047,57,57,0
353.7921,354.07208,57,70,0
353.7921,354.07208,69,82,0
354.07208,354.12192,59,52,0
354.07208,354.12192,65,52,0
354.07208,354.12192,69,52,0
354.07208,354.12192,71,63,0
354.205,354.25598,71,66,0
354.205,354.25598,59,55,0
354.205,354.25598,69,55,0
354.205,354.25598,65,55,0
354.341,354.39166,69,60,0
354.341,354.39166,65,60,0
354.341,354.39166,59,60,0
354.341,354.39166,71,71,0
354.47607,354.52893,59,61,0
354.47607,354.52893,65,61,0
354.47607,354.52893,69,73,0
354.47607,354.52893,71,73,0
354.61707,354.89905,71,81,0
354.61707,354.89905,59,68,0
354.61707,354.89905,65,68,0
354.61707,354.89905,69,68,0
354.89905,354.94946,69,53,0
354.89905,354.94946,60,53,0
354.89905,354.94946,63,53,0
354.89905,354.94946,72,64,0
355.0335,355.0845,69,56,0
355.0335,355.0845,63,56,0
355.0335,355.0845,60,56,0
355.0335,355.0845,72,68,0
355.16953,355.22018,60,61,0
355.16953,355.22018,72,73,0
355.16953,355.22018,63,61,0
355.3046,355.35696,72,75,0
355.3046,355.35696,60,64,0
355.3046,355.35696,63,64,0
355.44424,355.7362,60,72,0
355.44424,355.7362,66,72,0
355.44424,355.7362,63,72,0
355.44424,355.7362,72,84,0
355.7362,356.00888,75,93,0
355.7362,356.00888,66,78,0
355.7362,356.00888,63,78,0
355.7362,356.00888,69,78,0
356.00888,356.1462,90,94,0
356.00888,356.1462,75,80,0
356.00888,356.1462,78,80,0
356.00888,356.1462,81,80,0
356.2835,356.56213,66,78,0
356.2835,356.56213,62,78,0
356.2835,356.56213,74,94,0
356.56213,356.8458,73,88,0
356.56213,356.8458,66,74,0
356.56213,356.8458,61,74,0
356.8458,356.9904,90,98,0
356.8458,356.9904,78,81,0
357.13498,357.4193,74,84,0
357.13498,357.4193,62,71,0
357.13498,357.4193,66,71,0
357.4193,357.56424,86,98,0
357.4193,357.56424,74,81,0
357.70917,357.99353,71,84,0
357.70917,357.99353,68,71,0
357.70917,357.99353,66,66,0
357.70917,357.99353,62,64,0
357.99353,358.13882,83,98,0
357.99353,358.13882,71,81,0
358.2841,358.56982,69,84,0
358.2841,358.56982,61,71,0
358.2841,358.56982,66,71,0
358.56982,358.71475,81,96,0
358.56982,358.71475,69,80,0
358.85968,359.1447,68,84,0
358.85968,359.1447,61,71,0
358.85968,359.1447,66,71,0
359.1447,359.28964,80,94,0
359.1447,359.28964,68,78,0
359.43457,359.73013,68,79,0
359.43457,359.73013,61,67,0
359.43457,359.73013,65,67,0
359.73013,359.87436,73,63,0
359.73013,359.87436,80,67,0
359.73013,359.87436,85,80,0
360.0186,360.30774,85,82,0
360.0186,360.30774,80,67,0
360.0186,360.30774,73,63,0
360.30774,360.5997,78,64,0
360.30774,360.5997,90,74,0
360.5997,360.74677,61,29,0
360.5997,360.74677,68,38,0
360.5997,360.74677,73,46,0
360.89383,361.1859,73,46,0
360.89383,361.1859,68,40,0
360.89383,361.1859,61,30,0
361.1859,361.47858,66,37,0
361.1859,361.47858,78,43,0
361.47858,361.7771,61,27,0
361.47858,361.7771,68,31,0
361.47858,361.7771,73,42,0
361.7771,362.0712,73,46,0
361.7771,362.0712,61,35,0
362.0712,362.37045,66,34,0
362.0712,362.37045,78,43,0
362.37045,362.66824,61,25,0
362.37045,362.66824,68,29,0
362.37045,362.66824,73,39,0
362.66824,362.96307,73,43,0
362.66824,362.96307,61,32,0
362.96307,363.26233,66,31,0
362.96307,363.26233,78,40,0
363.26233,363.56845,61,23,0
363.26233,363.56845,68,27,0
363.26233,363.56845,73,36,0
363.56845,363.8677,73,39,0
363.56845,363.8677,61,29,0
363.8677,364.16995,66,29,0
363.8677,364.16995,78,37,0
364.16995,364.47452,61,21,0
364.16995,364.47452,68,26,0
364.16995,364.47452,73,33,0
364.47452,364.77454,73,37,0
364.47452,364.77454,61,27,0
364.77454,365.07748,66,27,0
364.77454,365.07748,78,35,0
365.07748,365.3854,61,20,0
365.07748,365.3854,68,24,0
365.07748,365.3854,73,32,0
365.3854,365.6985,73,35,0
365.3854,365.6985,61,27,0
365.6985,366.01553,66,27,0
365.6985,366.01553,78,33,0
366.01553,366.33942,61,19,0
366.01553,366.33942,68,23,0
366.01553,366.33942,73,30,0
366.33942,366.6661,73,33,0
366.33942,366.6661,61,25,0
366.6661,367.00772,66,25,0
366.6661,367.00772,78,31,0
367.00772,367.3493,73,30,0
367.00772,367.3493,68,23,0
367.00772,367.3493,61,19,0
367.91336,368.465,58,23,0
368.465,369.04208,58,23,0
369.56668,370.11032,66,22,0
369.56668,370.11032,58,17,0
370.11032,370.67438,66,22,0
370.11032,370.67438,58,17,0
371.2141,371.7698,59,20,0
371.7698,372.37,59,19,0
371.7698,372.37,65,23,0
372.9427,373.49026,66,24,0
372.9427,373.49026,58,20,0
373.49026,374.05862,66,24,0
373.49026,374.05862,58,20,0
374.05862,374.62695,66,23,0
374.05862,374.62695,58,19,0
374.62695,375.18268,66,22,0
374.62695,375.18268,61,18,0
375.18268,375.751,66,22,0
375.18268,375.751,61,18,0
375.751,376.2986,66,23,0
375.751,376.2986,61,19,0
376.2986,376.8462,61,22,0
376.2986,376.8462,56,18,0
376.8462,377.40607,61,22,0
376.8462,377.40607,54,18,0
377.40607,377.95364,61,23,0
377.40607,377.95364,54,19,0
377.95364,378.49728,61,22,0
377.95364,378.49728,56,18,0
378.49728,379.0409,61,22,0
378.49728,379.0409,54,18,0
379.0409,379.59662,61,23,0
379.0409,379.59662,54,19,0
379.59662,380.14822,61,22,0
379.59662,380.14822,56,18,0
380.14822,380.73895,61,23,0
380.14822,380.73895,54,19,0
380.73895,381.32507,61,23,0
380.73895,381.32507,54,19,0
384.44836,392.9457,70,23,0
384.44836,392.9457,54,23,0
384.44836,392.9457,61,23,0
384.44836,392.9457,66,23,0
0.64082,0.923812,46,47,0
0.64082,0.923812,34,40,0
0.923812,1.190561,39,42,0
0.923812,1.190561,27,36,0
1.190561,1.2399986,40,42,0
1.190561,1.2399986,28,36,0
1.3223945,1.3750951,41,45,0
1.3223945,1.3750951,29,36,0
1.4603852,1.7435373,42,50,0
1.4603852,1.7435373,30,42,0
1.7435373,1.9670893,44,59,0
1.7435373,1.9670893,32,50,0
2.0186782,2.2391567,59,46,0
1.9670893,2.2391567,44,37,0
1.9842856,2.2391567,51,37,0
2.001482,2.2391567,53,37,0
2.2730763,2.5502946,56,37,0
2.2391567,2.5662613,46,37,0
2.2561164,2.5662613,53,37,0
2.2900362,2.5662613,62,46,0
2.5662613,2.8327084,42,44,0
2.5662613,2.8327084,30,38,0
2.8327084,2.882146,43,44,0
2.8327084,2.882146,31,38,0
2.9645417,3.0178947,44,43,0
2.9645417,3.0178947,32,35,0
3.1037433,3.3834503,45,51,0
3.1037433,3.3834503,33,43,0
3.3834503,3.605769,47,63,0
3.3834503,3.605769,35,53,0
3.6570733,3.876965,62,48,0
3.605769,3.876965,48,39,0
3.6228704,3.876965,54,39,0
3.6399717,3.876965,56,39,0
3.9277093,4.202611,65,48,0
3.876965,4.202611,49,39,0
3.8938797,4.202611,56,39,0
3.9107945,4.202611,59,39,0
4.202611,4.466056,45,42,0
4.202611,4.466056,33,36,0
4.466056,4.515155,47,42,0
4.466056,4.515155,35,36,0
4.596986,4.6502075,48,45,0
4.596986,4.6502075,36,37,0
4.7373815,5.0110044,49,54,0
4.7373815,5.0110044,37,46,0
5.0110044,5.27682,50,47,0
5.0110044,5.27682,38,40,0
5.27682,5.326371,51,44,0
5.27682,5.326371,39,38,0
5.4089556,5.462309,52,45,0
5.4089556,5.462309,40,37,0
5.5512304,5.8282385,53,53,0
5.5512304,5.8282385,41,45,0
5.8282385,6.095916,54,47,0
5.8282385,6.095916,42,40,0
6.095916,6.146043,56,44,0
6.095916,6.146043,44,38,0
6.2295876,6.2812786,57,45,0
6.2295876,6.2812786,45,37,0
6.36743,6.6464615,58,56,0
6.36743,6.6464615,46,47,0
6.6464615,6.9306192,59,57,0
6.6464615,6.9306192,47,48,0
6.9306192,7.2072954,47,52,0
6.9306192,7.2072954,35,43,0
7.2072954,7.4880414,48,52,0
7.2072954,7.4880414,36,43,0
7.4880414,7.760783,49,60,0
7.4880414,7.760783,37,50,0
7.760783,8.031011,58,57,0
7.760783,8.031011,49,48,0
8.031011,8.298878,54,48,0
8.031011,8.298878,61,57,0
8.298878,8.56504,66,60,0
8.298878,8.56504,58,42,0
8.56504,8.834267,70,57,0
8.56504,8.834267,61,40,0
8.834267,9.111942,66,40,0
8.834267,9.111942,73,57,0
9.111942,9.389617,78,57,0
9.111942,9.389617,70,48,0
9.389617,9.662679,77,51,0
9.389617,9.662679,71,46,0
9.662679,9.945671,71,51,0
9.662679,9.945671,65,42,0
9.662679,9.945671,61,42,0
9.945671,10.222679,71,52,0
9.945671,10.222679,65,46,0
10.222679,10.50171,70,47,0
10.222679,10.50171,54,38,0
9.945671,10.50171,61,46,0
10.50171,10.783466,59,38,0
10.50171,10.783466,53,33,0
10.50171,10.783466,49,28,0
10.783466,11.063265,59,42,0
10.783466,11.063265,53,34,0
11.063265,11.343652,58,38,0
11.063265,11.343652,42,32,0
10.783466,11.343652,49,31,0
11.343652,11.63167,59,36,0
11.343652,11.63167,53,31,0
11.343652,11.63167,49,29,0
11.63167,11.916584,59,38,0
11.63167,11.916584,53,34,0
11.916584,12.209853,58,38,0
11.916584,12.209853,42,32,0
11.63167,12.209853,49,30,0
14.231936,14.508663,56,43,0
14.231936,14.508663,44,36,0
14.508663,14.792056,54,37,0
14.508663,14.792056,42,30,0
14.792056,15.075449,51,37,0
14.792056,15.075449,39,30,0
15.075449,15.352176,54,43,0
15.075449,15.352176,42,36,0
15.352176,15.636334,53,37,0
15.352176,15.636334,41,30,0
15.636334,15.920492,49,37,0
15.636334,15.920492,37,30,0
15.920492,16.197948,51,43,0
15.920492,16.197948,39,36,0
16.197948,16.481342,49,37,0
16.197948,16.481342,37,30,0
16.481342,16.764734,46,37,0
16.481342,16.764734,34,30,0
16.764734,17.048128,47,39,0
16.764734,17.048128,35,32,0
17.048128,17.33152,46,35,0
17.048128,17.33152,34,29,0
17.33152,17.614914,42,35,0
17.33152,17.614914,30,29,0
17.614914,17.88075,39,47,0
17.614914,17.88075,27,40,0
17.88075,17.93053,40,44,0
17.88075,17.93053,28,38,0
18.013498,18.066721,41,47,0
18.013498,18.066721,29,38,0
18.15248,18.431484,42,56,0
18.15248,18.431484,30,47,0
18.431484,18.706625,44,67,0
18.431484,18.706625,32,56,0
18.706625,18.977983,59,51,0
18.706625,18.977983,44,43,0
18.706625,18.977983,51,43,0
18.706625,18.977983,53,43,0
18.977983,19.253542,62,51,0
18.977983,19.253542,46,43,0
18.977983,19.253542,53,43,0
18.977983,19.253542,56,43,0
19.253542,19.519056,42,47,0
19.253542,19.519056,30,40,0
19.519056,19.568722,43,44,0
19.519056,19.568722,31,38,0
19.651495,19.70498,44,43,0
19.651495,19.70498,32,35,0
19.792475,20.070704,45,54,0
19.792475,20.070704,33,46,0
20.070704,20.344328,47,67,0
20.070704,20.344328,35,56,0
20.344328,20.614964,62,51,0
20.344328,20.614964,48,43,0
20.344328,20.614964,54,43,0
20.344328,20.614964,56,43,0
20.614964,20.888489,65,51,0
20.614964,20.888489,49,43,0
20.614964,20.888489,56,43,0
20.614964,20.888489,59,43,0
20.888489,21.150873,45,42,0
20.888489,21.150873,33,36,0
21.150873,21.199862,47,42,0
21.150873,21.199862,35,36,0
21.281507,21.333197,48,45,0
21.281507,21.333197,36,37,0
21.41935,21.692972,49,54,0
21.41935,21.692972,37,46,0
21.692972,21.95916,50,47,0
21.692972,21.95916,38,40,0
21.95916,22.00894,51,47,0
21.95916,22.00894,39,40,0
22.091908,22.142818,52,48,0
22.091908,22.142818,40,39,0
22.229177,22.5028,53,53,0
22.229177,22.5028,41,45,0
22.5028,22.768633,54,49,0
22.5028,22.768633,42,42,0
22.768633,22.818415,55,49,0
22.768633,22.818415,43,42,0
22.901382,22.951746,56,50,0
22.901382,22.951746,44,40,0
23.035683,23.322134,57,58,0
23.035683,23.322134,45,49,0
23.322134,23.606293,60,59,0
23.322134,23.606293,48,50,0
23.322134,23.606293,54,50,0
23.606293,23.882969,59,54,0
23.606293,23.882969,47,45,0
23.606293,23.882969,55,45,0
23.882969,24.164354,38,59,0
23.882969,24.164354,26,49,0
24.164354,24.301067,49,61,0
24.164354,24.437061,37,60,0
24.164354,24.437061,25,50,0
24.437061,24.707342,57,57,0
24.437061,24.707342,49,48,0
24.707342,24.975521,54,48,0
24.707342,24.975521,61,57,0
24.975521,25.242247,66,60,0
24.975521,25.242247,57,42,0
25.242247,25.513605,69,57,0
25.242247,25.513605,61,40,0
25.513605,25.79128,66,40,0
25.513605,25.79128,73,57,0
25.79128,26.068954,78,57,0
25.79128,26.068954,69,48,0
26.068954,26.343315,77,54,0
26.068954,26.343315,71,46,0
26.343315,26.626308,71,51,0
26.343315,26.626308,65,42,0
26.343315,26.626308,61,42,0
26.626308,26.903316,71,54,0
26.626308,26.903316,65,46,0
26.903316,27.183023,69,47,0
26.903316,27.183023,54,38,0
26.626308,27.183023,61,46,0
27.183023,27.464779,59,38,0
27.183023,27.464779,53,33,0
27.183023,27.464779,49,28,0
27.464779,27.744577,59,42,0
27.464779,27.744577,53,36,0
27.744577,28.024965,57,38,0
27.744577,28.024965,42,32,0
27.464779,28.024965,49,30,0
28.024965,28.312983,59,36,0
28.024965,28.312983,53,31,0
28.024965,28.312983,49,26,0
28.312983,28.597897,59,38,0
28.312983,28.597897,53,34,0
28.597897,28.881048,57,37,0
28.597897,28.881048,42,30,0
28.312983,28.881048,49,29,0
28.881048,29.44319,49,69,0
28.881048,29.44319,37,57,0
29.44319,29.580044,50,63,0
29.44319,29.580044,38,52,0
29.580044,29.716898,49,57,0
29.580044,29.716898,37,48,0
29.716898,29.856071,44,64,0
29.716898,29.856071,32,53,0
29.856071,29.995243,45,55,0
29.856071,29.995243,33,47,0
29.995243,30.84889,42,63,0
29.995243,30.84889,30,52,0
30.84889,31.133219,38,72,0
30.84889,31.133219,26,72,0
31.133219,31.27341,54,38,0
31.27341,31.413239,54,39,0
31.413239,31.552696,53,40,0
31.552696,31.691792,54,42,0
31.691792,31.830519,55,43,0
31.830519,31.968884,56,45,0
31.968884,32.10689,57,46,0
32.10689,32.244537,58,47,0
32.244537,32.381824,59,49,0
32.381824,32.51876,60,50,0
32.51876,32.655342,61,51,0
32.655342,32.791924,62,53,0
32.791924,32.9285,63,55,0
32.9285,33.065083,64,55,0
33.065083,33.201664,65,55,0
33.201664,33.338245,66,57,0
33.338245,33.61141,66,58,0
33.61141,33.88768,67,64,0
33.88768,34.03014,55,74,0
33.88768,34.03014,67,74,0
33.88768,34.03014,63,74,0
33.88768,34.03014,58,74,0
34.172596,34.457508,51,79,0
34.172596,34.457508,39,79,0
34.457508,34.597336,55,38,0
34.597336,34.736855,55,39,0
34.736855,34.876072,54,40,0
34.876072,35.014923,55,42,0
35.014923,35.15347,56,43,0
35.15347,35.291714,57,45,0
35.291714,35.4296,58,46,0
35.4296,35.567184,59,47,0
35.567184,35.70447,60,49,0
35.70447,35.841408,61,50,0
35.841408,35.97799,62,51,0
35.97799,36.11457,63,53,0
36.11457,36.251152,64,55,0
36.251152,36.387733,65,55,0
36.387733,36.524315,66,55,0
36.524315,36.660896,67,57,0
36.660896,36.934055,67,58,0
36.934055,37.20729,68,64,0
37.20729,37.349747,56,74,0
37.20729,37.349747,68,74,0
37.20729,37.349747,64,74,0
37.20729,37.349747,59,74,0
37.492207,37.77712,52,79,0
37.492207,37.77712,40,79,0
37.77712,37.914764,59,59,0
37.77712,37.914764,56,50,0
37.914764,38.05241,59,58,0
37.914764,38.05241,56,49,0
38.05241,38.192238,58,54,0
38.05241,38.192238,55,46,0
38.192238,38.331333,59,54,0
38.192238,38.331333,56,46,0
38.331333,38.4694,60,58,0
38.331333,38.4694,57,49,0
38.4694,38.607407,61,58,0
38.4694,38.607407,58,49,0
38.607407,38.675835,62,58,0
38.607407,38.675835,59,49,0
38.744263,38.81269,62,53,0
38.744263,38.81269,59,45,0
38.88112,38.9514,62,53,0
38.88112,38.9514,59,45,0
39.021687,39.09197,62,54,0
39.021687,39.09197,59,46,0
39.162254,39.2999,62,58,0
39.162254,39.2999,59,49,0
39.2999,39.437546,61,54,0
39.2999,39.437546,58,46,0
39.437546,39.50581,61,58,0
39.437546,39.50581,58,49,0
39.574078,39.64234,61,54,0
39.574078,39.64234,58,46,0
39.710606,39.78089,60,54,0
39.710606,39.78089,57,46,0
39.851173,39.92146,61,54,0
39.851173,39.92146,58,46,0
39.991745,40.12939,62,58,0
39.991745,40.12939,59,49,0
40.12939,40.267036,63,54,0
40.12939,40.267036,60,46,0
40.267036,40.33514,64,58,0
40.267036,40.33514,61,49,0
40.403244,40.471348,64,60,0
40.403244,40.471348,61,51,0
40.53945,40.609367,64,63,0
40.53945,40.609367,61,53,0
40.67928,40.749195,64,64,0
40.67928,40.749195,61,53,0
40.819107,40.956753,64,67,0
40.819107,40.956753,61,56,0
40.956753,41.0944,63,59,0
40.956753,41.0944,60,50,0
41.0944,41.162506,63,59,0
41.0944,41.162506,60,50,0
41.23061,41.298714,63,61,0
41.23061,41.298714,60,52,0
41.366817,41.436733,62,64,0
41.366817,41.436733,59,53,0
41.506645,41.57656,63,65,0
41.506645,41.57656,60,54,0
41.646473,41.932438,61,56,0
41.646473,41.932438,65,67,0
41.646473,41.932438,59,56,0
41.932438,42.209454,49,59,0
41.932438,42.209454,37,49,0
42.209454,42.4982,59,54,0
42.209454,42.4982,61,54,0
42.209454,42.4982,65,65,0
42.4982,42.78488,54,56,0
42.4982,42.78488,64,67,0
42.4982,42.78488,61,56,0
42.4982,42.78488,59,56,0
42.78488,42.923386,42,60,0
42.78488,42.923386,30,51,0
43.06189,43.343647,54,52,0
43.06189,43.343647,64,61,0
43.06189,43.343647,61,52,0
43.06189,43.343647,58,52,0
43.343647,43.632427,59,54,0
43.343647,43.632427,63,63,0
43.343647,43.632427,57,54,0
43.632427,43.909664,47,57,0
43.632427,43.909664,35,47,0
43.909664,44.19924,57,51,0
43.909664,44.19924,59,51,0
43.909664,44.19924,63,61,0
44.19924,44.484493,52,56,0
44.19924,44.484493,62,67,0
44.19924,44.484493,59,56,0
44.19924,44.484493,57,56,0
44.484493,44.62401,40,60,0
44.484493,44.62401,28,51,0
44.763523,45.04505,52,52,0
44.763523,45.04505,56,52,0
44.763523,45.04505,62,61,0
45.04505,45.33403,57,56,0
45.04505,45.33403,61,67,0
45.04505,45.33403,55,56,0
45.33403,45.611485,45,59,0
45.33403,45.611485,33,50,0
45.611485,45.897938,55,51,0
45.611485,45.897938,57,51,0
45.611485,45.897938,61,60,0
45.897938,46.179825,60,67,0
45.897938,46.179825,54,56,0
46.179825,46.46228,60,58,0
46.179825,46.46228,57,48,0
46.46228,46.748802,72,65,0
46.46228,46.748802,69,55,0
46.748802,47.037598,81,56,0
46.748802,47.037598,84,68,0
47.037598,47.182014,60,58,0
47.037598,47.182014,48,48,0
47.326435,47.46906,36,57,0
47.326435,47.46906,24,48,0
47.611687,47.755745,37,59,0
47.611687,47.755745,25,50,0
47.8998,48.043144,49,40,0
47.8998,48.043144,37,34,0
48.186485,48.331272,39,46,0
48.186485,48.331272,27,37,0
48.47606,48.620117,41,49,0
48.47606,48.620117,29,40,0
48.764175,48.908234,53,44,0
48.764175,48.908234,41,35,0
49.05229,49.196346,41,43,0
49.05229,49.196346,29,35,0
49.340405,49.484463,46,37,0
49.340405,49.484463,34,30,0
49.62852,49.77367,49,31,0
49.62852,49.77367,37,25,0
49.918823,50.06181,39,33,0
50.204796,50.348854,41,38,0
50.78103,50.925083,41,34,0
50.78103,50.925083,29,28,0
51.06914,51.34749,46,36,0
51.06914,51.34749,34,30,0
51.34749,51.632034,56,31,0
51.34749,51.632034,44,26,0
51.632034,51.916584,53,31,0
51.632034,51.916584,41,26,0
51.916584,52.19333,54,36,0
51.916584,52.19333,42,30,0
52.19333,52.47747,53,31,0
52.19333,52.47747,41,26,0
52.47747,52.761627,49,31,0
52.47747,52.761627,37,26,0
52.761627,53.0391,51,36,0
52.761627,53.0391,39,30,0
53.0391,53.32248,49,31,0
53.0391,53.32248,37,26,0
53.32248,53.605873,46,31,0
53.32248,53.605873,34,31,0
53.605873,53.889267,47,38,0
53.605873,53.889267,35,38,0
53.889267,54.17266,46,38,0
53.889267,54.17266,34,38,0
54.17266,54.45605,42,40,0
54.17266,54.45605,30,40,0
54.45605,54.723118,39,47,0
54.45605,54.723118,27,40,0
54.723118,54.773243,40,44,0
54.723118,54.773243,28,38,0
54.856636,54.90845,41,47,0
54.856636,54.90845,29,38,0
54.99481,55.276756,42,54,0
54.99481,55.276756,30,46,0
55.276756,55.551914,44,67,0
55.276756,55.551914,32,56,0
55.551914,55.82328,59,51,0
55.551914,55.82328,44,43,0
55.551914,55.82328,51,43,0
55.551914,55.82328,53,43,0
55.82328,56.098446,62,51,0
55.82328,56.098446,46,43,0
55.82328,56.098446,53,43,0
55.82328,56.098446,56,43,0
56.098446,56.36489,42,47,0
56.098446,56.36489,30,40,0
56.36489,56.414555,43,44,0
56.36489,56.414555,31,38,0
56.49733,56.54965,44,43,0
56.49733,56.54965,32,35,0
56.636845,56.92,45,54,0
56.636845,56.92,33,46,0
56.92,57.19364,47,67,0
56.92,57.19364,35,56,0
57.19364,57.464283,62,51,0
57.19364,57.464283,48,43,0
57.19364,57.464283,54,43,0
57.19364,57.464283,56,43,0
57.464283,57.738308,65,51,0
57.464283,57.738308,49,43,0
57.464283,57.738308,56,43,0
57.464283,57.738308,59,43,0
57.738308,58.001987,45,42,0
57.738308,58.001987,33,36,0
58.001987,58.051086,47,42,0
58.001987,58.051086,35,36,0
58.132915,58.185745,48,45,0
58.132915,58.185745,36,37,0
58.27265,58.551,49,56,0
58.27265,58.551,37,47,0
58.551,58.81838,50,47,0
58.551,58.81838,38,40,0
58.81838,58.86874,51,47,0
58.81838,58.86874,39,40,0
58.95268,59.005253,52,48,0
58.95268,59.005253,40,39,0
59.092873,59.37326,53,53,0
59.092873,59.37326,41,45,0
59.37326,59.642178,54,50,0
59.37326,59.642178,42,42,0
59.642178,59.69254,56,48,0
59.642178,59.69254,44,42,0
59.776478,59.82854,57,50,0
59.776478,59.82854,45,39,0
59.915314,60.201748,58,57,0
59.915314,60.201748,46,48,0
60.201748,60.485905,59,66,0
60.201748,60.485905,47,54,0
60.485905,60.76258,47,59,0
60.485905,60.76258,35,49,0
60.76258,61.04397,44,59,0
60.76258,61.04397,32,49,0
61.04397,61.32535,63,59,0
61.04397,61.32535,51,49,0
61.04397,61.32535,54,49,0
61.04397,61.32535,58,49,0
61.32535,61.466045,42,67,0
61.32535,61.466045,30,55,0
61.60674,61.890587,51,52,0
61.60674,61.890587,63,63,0
61.60674,61.890587,59,52,0
61.60674,61.890587,56,52,0
61.890587,62.031124,44,67,0
61.890587,62.031124,32,55,0
62.171658,62.456207,53,48,0
62.171658,62.456207,63,57,0
62.171658,62.456207,59,48,0
62.171658,62.456207,56,48,0
62.456207,62.59674,47,66,0
62.456207,62.59674,35,55,0
62.737278,63.026848,54,51,0
62.737278,63.026848,58,51,0
62.737278,63.026848,63,60,0
63.026848,63.169125,46,66,0
63.026848,63.169125,34,55,0
63.311398,63.601704,53,51,0
63.311398,63.601704,58,51,0
63.311398,63.601704,63,60,0
63.601704,63.745045,46,69,0
63.601704,63.745045,34,57,0
63.888386,64.18016,53,51,0
63.888386,64.18016,62,60,0
63.888386,64.18016,58,51,0
63.888386,64.18016,56,51,0
64.18016,64.45164,39,74,0
64.18016,64.45164,27,62,0
64.469734,65.33015,51,63,0
64.469734,65.33015,39,52,0
65.33015,65.61469,46,69,0
65.33015,65.61469,34,57,0
65.61469,65.75353,47,63,0
65.61469,65.75353,35,52,0
65.75353,65.89237,46,57,0
65.75353,65.89237,34,48,0
65.89237,66.034996,41,64,0
65.89237,66.034996,29,53,0
66.034996,66.17762,42,55,0
66.034996,66.17762,30,47,0
66.17762,67.318634,39,63,0
66.17762,67.318634,27,52,0
67.88914,68.418,30,27,0
68.418,68.92298,54,17,0
68.418,68.92298,49,17,0
68.418,68.92298,63,22,0
68.92298,69.43366,61,20,0
68.92298,69.43366,54,16,0
68.92298,69.43366,49,16,0
69.43366,69.94434,42,25,0
69.94434,70.44876,49,20,0
69.94434,70.44876,54,20,0
69.94434,70.44876,63,24,0
70.44876,70.95944,61,18,0
70.44876,70.95944,54,15,0
70.44876,70.95944,49,15,0
70.95944,71.47012,42,27,0
71.47012,71.97293,49,20,0
71.47012,71.97293,54,20,0
71.47012,71.97293,63,24,0
71.97293,72.48361,61,18,0
71.97293,72.48361,54,15,0
71.97293,72.48361,49,15,0
72.48361,72.99429,42,27,0
72.99429,73.4971,54,22,0
72.99429,73.4971,49,22,0
72.99429,73.4971,63,27,0
73.4971,74.017525,61,21,0
73.4971,74.017525,54,17,0
73.4971,74.017525,49,17,0
74.017525,74.539314,42,34,0
74.539314,75.043724,49,20,0
74.539314,75.043724,54,20,0
74.539314,75.043724,63,24,0
75.043724,75.56088,61,21,0
75.043724,75.56088,54,16,0
75.043724,75.56088,49,16,0
75.56088,76.06466,42,34,0
76.06466,76.57214,54,17,0
76.06466,76.57214,49,17,0
76.06466,76.57214,63,21,0
76.57214,77.084435,61,18,0
76.57214,77.084435,54,15,0
76.57214,77.084435,49,15,0
77.084435,77.59356,37,33,0
77.59356,78.108444,49,20,0
77.59356,78.108444,54,20,0
77.59356,78.108444,63,24,0
78.108444,78.63256,61,21,0
78.108444,78.63256,54,16,0
78.108444,78.63256,49,16,0
78.63256,79.15667,42,34,0
79.15667,79.66579,54,20,0
79.15667,79.66579,49,20,0
79.15667,79.66579,63,24,0
79.66579,80.18134,61,21,0
79.66579,80.18134,54,16,0
79.66579,80.18134,49,16,0
80.18134,80.69689,61,22,0
80.18134,80.69689,54,18,0
80.18134,80.69689,49,20,0
80.69689,81.20438,59,22,0
80.69689,81.20438,54,17,0
80.69689,81.20438,49,17,0
81.20438,81.7183,58,23,0
81.20438,81.7183,54,18,0
81.20438,81.7183,49,18,0
81.7183,82.225784,58,23,0
81.7183,82.225784,54,18,0
81.7183,82.225784,49,18,0
82.225784,82.73327,49,23,0
82.225784,82.73327,47,18,0
82.73327,83.247185,49,23,0
82.73327,83.247185,46,18,0
83.247185,83.765945,49,23,0
83.247185,83.765945,46,18,0
83.765945,84.278244,49,23,0
83.765945,84.278244,47,18,0
84.278244,84.79054,49,23,0
84.278244,84.79054,46,18,0
84.79054,85.30283,49,22,0
84.79054,85.30283,46,17,0
85.30283,85.821594,49,22,0
85.30283,85.821594,47,17,0
85.821594,86.35037,49,20,0
85.821594,86.35037,46,16,0
86.35037,86.86592,46,34,0
86.86592,87.37034,53,20,0
86.86592,87.37034,58,20,0
86.86592,87.37034,66,24,0
87.37034,87.88749,65,21,0
87.37034,87.88749,58,16,0
87.37034,87.88749,53,16,0
87.88749,88.39641,46,34,0
88.39641,88.90389,58,17,0
88.39641,88.90389,53,17,0
88.39641,88.90389,66,22,0
88.90389,89.41619,65,17,0
88.90389,89.41619,58,14,0
88.90389,89.41619,53,14,0
89.41619,89.925316,41,33,0
89.925316,90.43443,53,13,0
89.925316,90.43443,60,13,0
89.925316,90.43443,66,24,0
90.43443,90.94999,65,20,0
90.43443,90.94999,60,16,0
90.43443,90.94999,53,16,0
90.94999,91.46554,46,34,0
91.46554,91.97466,58,20,0
91.46554,91.97466,53,20,0
91.46554,91.97466,66,24,0
91.97466,92.485085,65,22,0
91.97466,92.485085,58,17,0
91.97466,92.485085,53,17,0
92.485085,92.99997,65,23,0
92.485085,92.99997,58,17,0
92.485085,92.99997,53,14,0
92.99997,93.507454,63,24,0
92.99997,93.507454,58,20,0
92.99997,93.507454,53,20,0
93.507454,94.02138,61,24,0
93.507454,94.02138,58,20,0
93.507454,94.02138,53,20,0
94.02138,94.52886,61,25,0
94.02138,94.52886,58,16,0
94.02138,94.52886,53,16,0
94.52886,95.03635,53,24,0
94.52886,95.03635,51,20,0
95.03635,95.55026,53,24,0
95.03635,95.55026,49,20,0
95.55026,96.06903,53,24,0
95.55026,96.06903,49,20,0
96.06903,96.58132,53,24,0
96.06903,96.58132,51,20,0
96.58132,97.09362,53,24,0
96.58132,97.09362,49,20,0
97.09362,97.60591,53,24,0
97.09362,97.60591,49,20,0
97.60591,98.11821,53,24,0
97.60591,98.11821,51,24,0
98.11821,98.6305,53,24,0
98.11821,98.6305,49,20,0
98.6305,99.14606,42,36,0
99.14606,99.65047,49,21,0
99.14606,99.65047,54,21,0
99.14606,99.65047,63,25,0
99.65047,100.16762,61,21,0
99.65047,100.16762,54,16,0
99.65047,100.16762,49,16,0
100.16762,100.6758,42,34,0
100.6758,101.18328,54,17,0
100.6758,101.18328,49,17,0
100.6758,101.18328,63,21,0
101.18328,101.69557,61,18,0
101.18328,101.69557,54,15,0
101.18328,101.69557,49,15,0
101.69557,102.2047,37,34,0
102.2047,102.71958,49,22,0
102.2047,102.71958,54,22,0
102.2047,102.71958,63,26,0
102.71958,103.24137,61,23,0
102.71958,103.24137,54,18,0
102.71958,103.24137,49,18,0
103.24137,103.76315,42,34,0
103.76315,104.27228,54,21,0
103.76315,104.27228,49,21,0
103.76315,104.27228,63,25,0
104.27228,104.78783,61,24,0
104.27228,104.78783,54,20,0
104.27228,104.78783,49,20,0
104.78783,105.30338,61,25,0
104.78783,105.30338,54,21,0
104.78783,105.30338,49,21,0
105.30338,105.81087,59,24,0
105.30338,105.81087,54,20,0
105.30338,105.81087,49,20,0
105.81087,106.32479,58,25,0
105.81087,106.32479,54,21,0
105.81087,106.32479,49,21,0
106.32479,106.832275,58,25,0
106.32479,106.832275,54,21,0
106.32479,106.832275,49,21,0
106.832275,107.33976,49,25,0
106.832275,107.33976,47,21,0
107.33976,107.853676,49,25,0
107.33976,107.853676,46,21,0
107.853676,108.37244,49,25,0
107.853676,108.37244,46,21,0
108.37244,108.884735,49,25,0
108.37244,108.884735,47,21,0
108.884735,109.397026,49,25,0
108.884735,109.397026,46,21,0
109.397026,109.909325,49,23,0
109.397026,109.909325,46,18,0
109.909325,110.428085,49,22,0
109.909325,110.428085,44,16,0
110.428085,110.956856,49,22,0
110.428085,110.956856,42,16,0
110.956856,111.47241,41,44,0
111.47241,111.97683,53,23,0
111.47241,111.97683,62,27,0
111.97683,112.49398,62,24,0
111.97683,112.49398,53,20,0
112.49398,113.0044,41,41,0
113.0044,113.51189,57,22,0
113.0044,113.51189,53,22,0
113.0044,113.51189,63,27,0
113.51189,114.02418,63,28,0
113.51189,114.02418,57,24,0
113.51189,114.02418,53,24,0
114.02418,114.52581,41,39,0
114.52581,115.03398,53,24,0
114.52581,115.03398,58,24,0
114.52581,115.03398,65,28,0
115.03398,115.54954,64,24,0
115.03398,115.54954,61,20,0
115.03398,115.54954,53,20,0
115.54954,116.06509,41,41,0
116.06509,116.57421,60,23,0
116.06509,116.57421,53,23,0
116.06509,116.57421,63,27,0
116.57421,117.0997,63,24,0
116.57421,117.0997,60,20,0
116.57421,117.0997,53,20,0
117.0997,117.60787,41,45,0
117.60787,118.11229,53,24,0
117.60787,118.11229,62,28,0
118.11229,118.62944,62,27,0
118.11229,118.62944,53,22,0
118.62944,119.14659,41,43,0
119.14659,119.654076,57,24,0
119.14659,119.654076,53,24,0
119.14659,119.654076,63,27,0
119.654076,120.166374,63,24,0
119.654076,120.166374,57,20,0
119.654076,120.166374,53,20,0
120.166374,120.67549,46,45,0
120.67549,121.19041,53,22,0
120.67549,121.19041,58,22,0
120.67549,121.19041,65,33,0
121.19041,121.71525,61,24,0
121.19041,121.71525,58,13,0
121.19041,121.71525,53,13,0
121.71525,122.24009,37,45,0
122.24009,122.76079,59,24,0
122.24009,122.76079,61,24,0
122.24009,122.76079,68,27,0
122.24009,122.76079,56,24,0
122.76079,123.27634,68,26,0
122.76079,123.27634,61,22,0
122.76079,123.27634,56,22,0
122.76079,123.27634,59,22,0
123.27634,123.79189,68,26,0
123.27634,123.79189,56,22,0
123.27634,123.79189,59,22,0
123.27634,123.79189,61,22,0
123.79189,124.30745,61,27,0
123.79189,124.30745,59,23,0
123.79189,124.30745,56,23,0
124.30745,124.823,61,27,0
124.30745,124.823,59,27,0
124.30745,124.823,56,23,0
124.823,125.338554,61,27,0
124.823,125.338554,59,23,0
124.823,125.338554,56,23,0
125.338554,125.8541,61,27,0
125.338554,125.8541,59,23,0
125.338554,125.8541,54,23,0
125.8541,126.36966,61,27,0
125.8541,126.36966,59,23,0
125.8541,126.36966,56,23,0
126.36966,126.88268,61,27,0
126.36966,126.88268,59,23,0
126.36966,126.88268,56,23,0
126.88268,127.39905,61,26,0
126.88268,127.39905,59,22,0
126.88268,127.39905,54,22,0
127.39905,127.919,61,26,0
127.39905,127.919,59,22,0
127.39905,127.919,56,22,0
127.919,128.44257,61,24,0
127.919,128.44257,59,20,0
127.919,128.44257,56,20,0
128.44257,128.9698,61,23,0
128.44257,128.9698,59,18,0
128.44257,128.9698,54,18,0
128.9698,129.50394,61,23,0
128.9698,129.50394,59,18,0
128.9698,129.50394,56,18,0
129.50394,130.03525,42,37,0
130.03525,130.53966,49,21,0
130.03525,130.53966,54,21,0
130.03525,130.53966,63,25,0
130.53966,131.05681,61,23,0
130.53966,131.05681,54,18,0
130.53966,131.05681,49,18,0
131.05681,131.56723,42,34,0
131.56723,132.0747,54,18,0
131.56723,132.0747,49,18,0
131.56723,132.0747,63,23,0
132.0747,132.587,61,18,0
132.0747,132.587,54,15,0
132.0747,132.587,49,15,0
132.587,133.09613,37,33,0
133.09613,133.60873,49,23,0
133.09613,133.60873,54,23,0
133.09613,133.60873,63,27,0
133.60873,134.1376,61,23,0
133.60873,134.1376,54,18,0
133.60873,134.1376,49,18,0
134.1376,134.66647,42,34,0
134.66647,135.17558,54,20,0
134.66647,135.17558,49,20,0
134.66647,135.17558,63,24,0
135.17558,135.69115,61,22,0
135.17558,135.69115,54,17,0
135.17558,135.69115,49,17,0
135.69115,136.2067,61,21,0
135.69115,136.2067,54,12,0
135.69115,136.2067,49,12,0
136.2067,136.71417,59,23,0
136.2067,136.71417,54,18,0
136.2067,136.71417,49,18,0
136.71417,137.2281,58,22,0
136.71417,137.2281,54,15,0
136.71417,137.2281,49,13,0
137.2281,137.73558,58,24,0
137.2281,137.73558,54,20,0
137.2281,137.73558,49,20,0
137.73558,138.24307,49,24,0
137.73558,138.24307,47,20,0
138.24307,138.75699,49,24,0
138.24307,138.75699,46,18,0
138.75699,139.27574,49,24,0
138.75699,139.27574,46,18,0
139.27574,139.78804,49,23,0
139.27574,139.78804,47,18,0
139.78804,140.30034,49,23,0
139.78804,140.30034,46,18,0
140.30034,140.81264,49,23,0
140.30034,140.81264,46,17,0
140.81264,141.33139,49,22,0
140.81264,141.33139,44,17,0
141.33139,141.86017,49,22,0
141.33139,141.86017,42,17,0
141.86017,142.37572,44,31,0
142.37572,142.88014,51,22,0
142.37572,142.88014,56,22,0
142.37572,142.88014,64,26,0
142.88014,143.39673,63,22,0
142.88014,143.39673,56,17,0
142.88014,143.39673,51,17,0
143.39673,143.9049,44,38,0
143.9049,144.41238,56,18,0
143.9049,144.41238,51,18,0
143.9049,144.41238,64,24,0
144.41238,144.92468,63,21,0
144.41238,144.92468,56,17,0
144.41238,144.92468,51,17,0
144.92468,145.4338,39,33,0
145.4338,145.94293,51,17,0
145.4338,145.94293,58,17,0
145.4338,145.94293,64,22,0
145.94293,146.45848,63,17,0
145.94293,146.45848,58,14,0
145.94293,146.45848,51,14,0
146.45848,146.97403,44,34,0
146.97403,147.48315,56,21,0
146.97403,147.48315,51,21,0
146.97403,147.48315,64,25,0
147.48315,147.9987,63,23,0
147.48315,147.9987,56,18,0
147.48315,147.9987,51,18,0
147.9987,148.50781,63,25,0
147.9987,148.51425,56,16,0
147.9987,148.51425,51,16,0
148.51425,149.02174,61,24,0
148.51425,149.02174,56,20,0
148.51425,149.02174,51,20,0
149.02174,149.53566,59,24,0
149.02174,149.53566,56,20,0
149.02174,149.53566,51,20,0
149.53566,150.04315,59,25,0
149.53566,150.04315,56,21,0
149.53566,150.04315,51,21,0
150.04315,150.55063,51,24,0
150.04315,150.55063,49,20,0
150.55063,151.06454,51,24,0
150.55063,151.06454,47,20,0
151.06454,151.58331,51,24,0
151.06454,151.58331,47,20,0
151.58331,152.09561,51,21,0
151.58331,152.09561,49,20,0
152.09561,152.60791,51,23,0
152.09561,152.60791,47,18,0
152.60791,153.1202,51,23,0
152.60791,153.1202,47,18,0
153.1202,153.63249,51,22,0
153.1202,153.63249,46,17,0
153.63249,154.14479,51,20,0
153.63249,154.14479,44,16,0
154.14479,154.65709,37,20,0
155.16937,155.55849,49,27,0
155.55849,155.62495,50,26,0
155.62495,155.69144,51,26,0
155.69144,155.7837,53,25,0
155.7837,155.87495,51,21,0
155.87495,155.96504,53,24,0
155.96504,156.05406,51,22,0
156.05406,156.14197,53,24,0
156.14197,156.22887,51,21,0
156.22887,156.31496,53,24,0
156.31496,156.4007,51,21,0
156.4007,156.48634,53,24,0
156.48634,156.57173,51,21,0
156.57173,156.65695,53,24,0
156.65695,156.74199,51,21,0
156.74199,156.87035,53,24,0
156.87035,157.00192,51,21,0
157.00192,157.06898,53,24,0
157.06898,157.13692,51,20,0
157.13692,157.20538,49,24,0
157.20538,157.27151,51,18,0
157.27151,157.78384,53,32,0
157.78384,158.29619,37,25,0
158.29619,158.68422,49,27,0
158.68422,158.75014,50,26,0
158.75014,158.81607,51,26,0
158.81607,158.90762,53,25,0
158.90762,158.9982,51,21,0
158.9982,159.08789,53,24,0
159.08789,159.17664,51,22,0
159.17664,159.26453,53,24,0
159.26453,159.35143,51,21,0
159.35143,159.43716,53,24,0
159.43716,159.52272,51,21,0
159.52272,159.60812,53,24,0
159.60812,159.69316,51,21,0
159.69316,159.77803,53,24,0
159.77803,159.86266,51,21,0
159.86266,159.98996,53,24,0
159.98996,160.11972,51,21,0
160.11972,160.18565,53,24,0
160.18565,160.25214,51,20,0
160.25214,160.32018,49,24,0
160.32018,160.38577,51,18,0
160.38577,160.89395,53,34,0
160.89395,161.39604,37,36,0
161.39604,161.90839,61,26,0
161.39604,161.90839,56,17,0
161.39604,161.90839,49,17,0
161.90839,162.42072,61,28,0
161.90839,162.42072,56,20,0
161.90839,162.42072,49,20,0
162.42072,162.94592,59,32,0
162.42072,162.94592,56,21,0
162.42072,162.94592,49,21,0
162.94592,163.46465,59,35,0
162.94592,163.46465,56,21,0
162.94592,163.46465,49,21,0
163.46465,163.99207,59,37,0
163.46465,163.99207,56,26,0
163.46465,163.99207,49,26,0
163.99207,164.54547,59,31,0
163.99207,164.5513,56,21,0
163.99207,164.5513,49,21,0
164.5513,165.10005,56,26,0
164.5513,165.10005,49,17,0
165.10005,165.6488,49,25,0
165.10005,165.6488,42,18,0
165.6488,165.91809,58,39,0
165.91809,166.17752,56,37,0
166.17752,166.43614,54,36,0
166.43614,166.69366,53,35,0
166.69366,166.94576,53,39,0
166.94576,167.19786,51,39,0
167.19786,167.44997,49,37,0
167.44997,167.70206,48,36,0
167.70206,167.9563,46,35,0
167.9563,168.2183,44,35,0
168.2183,168.4838,37,35,0
168.74928,169.01494,58,42,0
169.01494,169.27454,56,37,0
169.27454,169.53178,54,36,0
169.53178,169.78653,53,36,0
169.78653,170.03758,53,39,0
170.03758,170.28864,51,39,0
170.28864,170.53554,49,37,0
170.53554,170.78246,48,36,0
170.78246,171.03778,46,36,0
171.03778,171.3021,44,35,0
171.3021,171.56154,37,35,0
171.82098,172.08043,56,35,0
172.08043,172.32837,58,36,0
172.32837,172.57529,60,37,0
172.57529,172.84077,61,41,0
172.84077,173.0989,61,45,0
173.0989,173.35703,60,37,0
173.35703,173.6102,52,41,0
173.6102,173.86336,53,36,0
173.86336,174.12505,61,39,0
174.12505,174.38673,60,35,0
174.38673,174.91011,58,39,0
174.91011,175.16849,46,41,0
175.16849,175.42131,53,35,0
175.42131,175.66925,56,37,0
175.66925,175.93474,60,35,0
175.93474,176.1918,60,39,0
176.1918,176.44887,58,35,0
176.44887,176.70204,50,36,0
176.70204,176.9552,51,35,0
176.9552,177.21913,60,37,0
177.21913,177.48305,58,35,0
177.48305,178.0109,56,37,0
178.0109,178.27148,58,39,0
178.27148,178.53076,56,37,0
178.53076,178.78836,54,36,0
178.78836,179.04454,53,35,0
179.04454,179.2977,53,39,0
179.2977,179.55086,51,39,0
179.55086,179.80086,49,37,0
179.80086,180.05086,48,36,0
180.05086,180.3051,46,35,0
180.3051,180.56711,44,35,0
180.56711,180.83145,37,35,0
181.09625,181.35686,58,42,0
181.35686,181.61745,56,37,0
181.61745,181.87453,54,36,0
181.87453,182.13159,53,36,0
182.13159,182.38866,53,39,0
182.38866,182.64572,51,39,0
182.64572,182.90215,49,37,0
182.90215,183.16156,48,36,0
183.16156,183.42662,46,36,0
183.42662,183.69168,44,35,0
183.69168,183.95676,37,35,0
184.22182,184.48326,56,39,0
184.48326,184.74469,55,36,0
184.74469,185.01299,58,39,0
185.01299,185.28127,56,34,0
185.28127,185.81258,59,39,0
185.81258,186.074,47,43,0
186.074,186.33545,53,39,0
186.33545,186.5975,56,43,0
186.5975,186.86807,54,39,0
186.86807,187.39937,58,45,0
187.39937,187.66502,42,41,0
187.66502,187.9381,49,36,0
187.9381,188.20375,54,41,0
188.20375,188.46939,58,36,0
188.46939,189.0007,56,43,0
189.0007,189.26636,37,39,0
189.26636,189.532,44,35,0
189.532,189.79765,49,39,0
189.79765,190.06331,56,36,0
190.06331,190.32896,61,39,0
190.32896,190.5946,60,34,0
190.5946,190.86026,59,35,0
190.86026,191.12592,58,34,0
191.12592,191.3956,59,41,0
191.3956,191.67511,49,35,0
191.67511,192.21371,42,37,0
192.21371,192.71812,49,21,0
192.21371,192.71812,54,21,0
192.21371,192.71812,63,25,0
192.71812,193.235,61,23,0
192.71812,193.235,54,18,0
192.71812,193.235,49,18,0
193.235,193.74542,42,34,0
193.74542,194.2529,54,18,0
193.74542,194.2529,49,18,0
193.74542,194.2529,63,23,0
194.2529,194.77005,61,18,0
194.2529,194.77005,54,15,0
194.2529,194.77005,49,15,0
194.77005,195.27917,37,33,0
195.27917,195.7883,49,23,0
195.27917,195.7883,54,23,0
195.27917,195.7883,63,27,0
195.7883,196.30385,61,23,0
195.7883,196.30385,54,18,0
195.7883,196.30385,49,18,0
196.30385,196.81941,42,34,0
196.81941,197.32852,54,20,0
196.81941,197.32852,49,20,0
196.81941,197.32852,63,24,0
197.32852,197.84409,61,22,0
197.32852,197.84409,54,17,0
197.32852,197.84409,49,17,0
197.84409,198.35963,61,22,0
197.84409,198.35963,54,15,0
197.84409,198.35963,49,12,0
198.35963,198.86711,59,23,0
198.35963,198.86711,54,18,0
198.35963,198.86711,49,18,0
198.86711,199.38104,58,21,0
198.86711,199.38104,54,15,0
198.86711,199.38104,49,12,0
199.38104,199.88852,58,21,0
199.38104,199.88852,54,16,0
199.38104,199.88852,49,13,0
199.88852,200.39601,49,24,0
199.88852,200.39601,47,20,0
200.39601,200.90993,49,24,0
200.39601,200.90993,46,20,0
200.90993,201.42868,49,24,0
200.90993,201.42868,46,20,0
201.42868,201.94098,49,24,0
201.42868,201.94098,47,20,0
201.94098,202.45328,49,24,0
201.94098,202.45328,46,20,0
202.45328,202.96558,49,24,0
202.45328,202.96558,46,20,0
202.96558,203.48433,49,24,0
202.96558,203.48433,47,20,0
203.48433,204.0131,49,24,0
203.48433,204.0131,46,20,0
204.0131,204.52866,44,31,0
204.52866,205.03308,51,22,0
204.52866,205.03308,56,22,0
204.52866,205.03308,64,26,0
205.03308,205.54994,63,22,0
205.03308,205.54994,56,17,0
205.03308,205.54994,51,17,0
205.54994,206.06036,44,38,0
206.06036,206.56786,56,18,0
206.06036,206.56786,51,18,0
206.06036,206.56786,64,24,0
206.56786,207.08015,63,21,0
206.56786,207.08015,56,17,0
206.56786,207.08015,51,17,0
207.08015,207.58926,39,33,0
207.58926,208.09839,51,21,0
207.58926,208.09839,58,21,0
207.58926,208.09839,64,25,0
208.09839,208.61395,63,21,0
208.09839,208.61395,58,16,0
208.09839,208.61395,51,16,0
208.61395,209.1295,44,34,0
209.1295,209.63863,56,21,0
209.1295,209.63863,51,21,0
209.1295,209.63863,64,25,0
209.63863,210.15417,63,23,0
209.63863,210.15417,56,18,0
209.63863,210.15417,51,18,0
210.15417,210.66972,63,25,0
210.15417,210.66972,56,16,0
210.15417,210.66972,51,16,0
210.66972,211.17722,61,24,0
210.66972,211.17722,56,20,0
210.66972,211.17722,51,20,0
211.17722,211.69113,59,24,0
211.17722,211.69113,56,20,0
211.17722,211.69113,51,20,0
211.69113,212.19861,59,25,0
211.69113,212.19861,56,21,0
211.69113,212.19861,51,21,0
212.19861,212.7061,51,26,0
212.19861,212.7061,49,22,0
212.7061,213.22002,51,26,0
212.7061,213.22002,47,22,0
213.22002,213.73878,51,26,0
213.22002,213.73878,47,22,0
213.73878,214.25108,51,24,0
213.73878,214.25108,49,22,0
214.25108,214.76337,51,26,0
214.25108,214.76337,47,22,0
214.76337,215.27567,51,26,0
214.76337,215.27567,47,22,0
215.27567,215.78796,51,25,0
215.27567,215.78796,46,21,0
215.78796,216.30026,51,24,0
215.78796,216.30026,44,20,0
216.30026,216.81255,37,20,0
217.32484,217.71394,49,27,0
217.71394,217.78043,50,26,0
217.78043,217.84691,51,26,0
217.84691,217.93916,53,25,0
217.93916,218.03043,51,21,0
218.03043,218.12051,53,24,0
218.12051,218.20953,51,22,0
218.20953,218.29744,53,24,0
218.29744,218.38434,51,21,0
218.38434,218.47043,53,24,0
218.47043,218.55615,51,21,0
218.55615,218.6418,53,24,0
218.6418,218.72719,51,21,0
218.72719,218.81241,53,24,0
218.81241,218.89746,51,21,0
218.89746,219.02582,53,24,0
219.02582,219.1574,51,21,0
219.1574,219.22446,53,24,0
219.22446,219.29237,51,20,0
219.29237,219.36086,49,24,0
219.36086,219.42697,51,18,0
219.42697,219.93932,53,32,0
219.93932,220.45166,37,25,0
220.45166,220.83968,49,27,0
220.83968,220.90561,50,26,0
220.90561,220.97154,51,26,0
220.97154,221.0631,53,25,0
221.0631,221.15366,51,21,0
221.15366,221.24336,53,24,0
221.24336,221.33209,51,22,0
221.33209,221.42,53,24,0
221.42,221.5069,51,21,0
221.5069,221.59264,53,24,0
221.59264,221.67819,51,21,0
221.67819,221.76358,53,24,0
221.76358,221.84863,51,21,0
221.84863,221.9335,53,24,0
221.9335,222.01811,51,21,0
222.01811,222.14543,53,24,0
222.14543,222.27519,51,21,0
222.27519,222.34113,53,24,0
222.34113,222.40761,51,20,0
222.40761,222.47565,49,24,0
222.47565,222.54124,51,18,0
222.54124,223.04942,53,34,0
223.04942,223.55151,37,36,0
223.55151,224.06384,61,26,0
223.55151,224.06384,56,17,0
223.55151,224.06384,49,17,0
224.06384,224.57619,61,28,0
224.06384,224.57619,56,20,0
224.06384,224.57619,49,20,0
224.57619,225.1014,59,32,0
224.57619,225.1014,56,21,0
224.57619,225.1014,49,21,0
225.1014,225.62012,59,34,0
225.1014,225.62012,56,21,0
225.1014,225.62012,49,21,0
225.62012,226.14754,59,37,0
225.62012,226.14754,56,27,0
225.62012,226.14754,49,27,0
226.14754,226.69568,59,31,0
226.14754,226.70145,56,20,0
226.14754,226.70145,49,20,0
226.70145,227.25537,56,26,0
226.70145,227.25537,49,17,0
227.25537,227.80928,49,26,0
227.25537,227.80928,42,18,0
227.80928,228.07985,58,39,0
228.07985,228.33958,56,37,0
228.33958,228.59346,54,36,0
228.59346,228.8476,53,35,0
228.8476,229.10075,53,39,0
229.10075,229.35393,51,39,0
229.35393,229.60497,49,37,0
229.60497,229.85602,48,36,0
229.85602,230.11243,46,35,0
230.11243,230.37558,44,35,0
230.37558,230.64345,37,35,0
230.9113,231.17336,58,42,0
231.17336,231.43541,56,37,0
231.43541,231.6914,54,36,0
231.6914,231.94757,53,36,0
231.94757,232.20181,53,39,0
232.20181,232.45605,51,39,0
232.45605,232.70605,49,37,0
232.70605,232.95605,48,36,0
232.95605,233.21356,46,36,0
233.21356,233.47905,44,35,0
233.47905,233.7385,37,35,0
233.99794,234.25215,56,35,0
234.25215,234.51659,58,36,0
234.51659,234.77516,60,37,0
234.77516,235.02695,61,41,0
235.02695,235.28188,61,45,0
235.28188,235.5368,60,37,0
235.5368,235.7928,52,41,0
235.7928,236.0488,53,36,0
236.0488,236.31049,61,39,0
236.31049,236.57217,60,35,0
236.57217,237.09555,58,39,0
237.09555,237.35393,46,41,0
237.35393,237.6078,53,35,0
237.6078,237.86166,56,37,0
237.86166,238.11554,60,35,0
238.11554,238.36958,60,39,0
238.36958,238.62505,58,35,0
238.62505,238.88176,50,36,0
238.88176,239.14026,51,35,0
239.14026,239.40417,60,37,0
239.40417,239.6681,58,35,0
239.6681,240.19594,56,37,0
240.19594,240.46402,58,39,0
240.46402,240.7226,56,37,0
240.7226,240.98117,54,36,0
240.98117,241.23975,53,35,0
241.23975,241.4929,53,39,0
241.4929,241.74608,51,39,0
241.74608,241.99608,49,37,0
241.99608,242.24608,48,36,0
242.24608,242.50249,46,35,0
242.50249,242.7668,44,35,0
242.7668,243.03586,37,35,0
243.30492,243.56935,58,42,0
243.56935,243.82909,56,37,0
243.82909,244.08508,54,36,0
244.08508,244.34108,53,36,0
244.34108,244.60194,53,39,0
244.60194,244.86282,51,39,0
244.86282,245.11923,49,37,0
245.11923,245.37564,48,36,0
245.37564,245.6407,46,36,0
245.6407,245.90576,44,35,0
245.90576,246.17084,37,35,0
246.4359,246.69563,56,39,0
246.69563,246.95538,55,36,0
246.95538,247.21982,58,39,0
247.21982,247.48425,56,34,0
247.48425,248.0131,59,39,0
248.0131,248.28241,47,43,0
248.28241,248.55171,53,39,0
248.55171,248.81854,56,43,0
248.81854,249.08537,54,39,0
249.08537,249.62398,58,45,0
249.62398,249.89328,42,41,0
249.89328,250.15652,49,36,0
250.15652,250.42583,54,41,0
250.42583,250.69513,58,36,0
250.69513,251.23373,56,43,0
251.23373,251.50056,37,39,0
251.50056,251.7674,44,35,0
251.7674,252.03796,49,39,0
252.03796,252.30852,56,36,0
252.30852,252.57909,61,39,0
252.57909,252.84964,60,34,0
252.84964,253.12021,59,34,0
253.12021,253.39078,58,34,0
253.39078,253.66046,59,41,0
253.66046,253.93997,49,34,0
253.93997,254.46884,42,37,0
254.46884,254.97926,49,21,0
254.46884,254.97926,54,21,0
254.46884,254.97926,63,25,0
254.97926,255.49612,61,23,0
254.97926,255.49612,54,18,0
254.97926,255.49612,49,18,0
255.49612,256.00656,42,34,0
256.00656,256.51404,54,18,0
256.00656,256.51404,49,18,0
256.00656,256.51404,63,23,0
256.51404,257.02634,61,18,0
256.51404,257.02634,54,15,0
256.51404,257.02634,49,15,0
257.02634,257.53546,37,33,0
257.53546,258.0526,49,23,0
257.53546,258.0526,54,23,0
257.53546,258.0526,63,27,0
258.0526,258.5791,61,23,0
258.0526,258.5791,54,18,0
258.0526,258.5791,49,18,0
258.5791,259.10562,42,34,0
259.10562,259.6182,54,20,0
259.10562,259.6182,49,20,0
259.10562,259.6182,63,24,0
259.6182,260.1377,61,22,0
259.6182,260.1377,54,17,0
259.6182,260.1377,49,17,0
260.1377,260.6526,61,22,0
260.1377,260.6526,54,15,0
260.1377,260.6526,49,12,0
260.6526,261.16006,59,23,0
260.6526,261.16006,54,18,0
260.6526,261.16006,49,18,0
261.16006,261.67398,58,21,0
261.16006,261.67398,54,15,0
261.16006,261.67398,49,12,0
261.67398,262.18146,58,23,0
261.67398,262.18146,54,20,0
261.67398,262.18146,49,20,0
262.18146,262.68896,49,24,0
262.18146,262.68896,47,20,0
262.68896,263.20288,49,24,0
262.68896,263.20288,46,20,0
263.20288,263.72162,49,24,0
263.20288,263.72162,46,20,0
263.72162,264.23392,49,24,0
263.72162,264.23392,47,20,0
264.23392,264.74622,49,24,0
264.23392,264.74622,46,20,0
264.74622,265.2585,49,24,0
264.74622,265.2585,46,20,0
265.2585,265.77728,49,24,0
265.2585,265.77728,47,20,0
265.77728,266.30606,49,24,0
265.77728,266.30606,46,20,0
266.30606,266.8216,44,31,0
266.8216,267.32602,51,22,0
266.8216,267.32602,56,22,0
266.8216,267.32602,64,26,0
267.32602,267.8429,63,22,0
267.32602,267.8429,56,17,0
267.32602,267.8429,51,17,0
267.8429,268.3533,44,38,0
268.3533,268.8608,56,18,0
268.3533,268.8608,51,18,0
268.3533,268.8608,64,24,0
268.8608,269.3731,63,21,0
268.8608,269.3731,56,17,0
268.8608,269.3731,51,17,0
269.3731,269.8822,39,33,0
269.8822,270.39133,51,21,0
269.8822,270.39133,58,21,0
269.8822,270.39133,64,25,0
270.39133,270.9069,63,21,0
270.39133,270.9069,58,16,0
270.39133,270.9069,51,16,0
270.9069,271.42245,44,34,0
271.42245,271.93158,56,21,0
271.42245,271.93158,51,21,0
271.42245,271.93158,64,25,0
271.93158,272.4471,63,23,0
271.93158,272.4471,56,18,0
271.93158,272.4471,51,18,0
272.4471,272.96268,63,25,0
272.4471,272.96268,56,16,0
272.4471,272.96268,51,16,0
272.96268,273.47015,61,24,0
272.96268,273.47015,56,20,0
272.96268,273.47015,51,20,0
273.47015,273.98407,59,24,0
273.47015,273.98407,56,20,0
273.47015,273.98407,51,20,0
273.98407,274.49155,59,25,0
273.98407,274.49155,56,21,0
273.98407,274.49155,51,21,0
274.49155,274.99905,51,26,0
274.49155,274.99905,49,22,0
274.99905,275.51297,51,26,0
274.99905,275.51297,47,22,0
275.51297,276.03174,51,26,0
275.51297,276.03174,47,22,0
276.03174,276.544,51,24,0
276.03174,276.544,49,22,0
276.544,277.0563,51,26,0
276.544,277.0563,47,22,0
277.0563,277.5686,51,26,0
277.0563,277.5686,47,22,0
277.5686,278.0809,51,25,0
277.5686,278.0809,46,21,0
278.0809,278.5932,51,24,0
278.0809,278.5932,44,20,0
278.5932,279.1055,37,20,0
279.6178,280.0069,49,27,0
280.0069,280.07336,50,26,0
280.07336,280.13986,51,26,0
280.13986,280.23212,53,25,0
280.23212,280.32336,51,21,0
280.32336,280.41345,53,24,0
280.41345,280.50247,51,22,0
280.50247,280.5904,53,24,0
280.5904,280.67728,51,21,0
280.67728,280.76337,53,24,0
280.76337,280.8491,51,21,0
280.8491,280.93475,53,24,0
280.93475,281.02014,51,21,0
281.02014,281.10535,53,24,0
281.10535,281.1904,51,21,0
281.1904,281.31876,53,24,0
281.31876,281.45035,51,21,0
281.45035,281.5174,53,24,0
281.5174,281.58533,51,20,0
281.58533,281.6538,49,24,0
281.6538,281.7199,51,18,0
281.7199,282.23227,53,32,0
282.23227,282.7446,37,25,0
282.7446,283.13263,49,27,0
283.13263,283.19855,50,26,0
283.19855,283.2645,51,26,0
283.2645,283.35605,53,25,0
283.35605,283.4466,51,21,0
283.4466,283.53632,53,24,0
283.53632,283.62503,51,22,0
283.62503,283.71295,53,24,0
283.71295,283.79984,51,21,0
283.79984,283.8856,53,24,0
283.8856,283.97113,51,21,0
283.97113,284.05652,53,24,0
284.05652,284.14157,51,21,0
284.14157,284.22644,53,24,0
284.22644,284.31107,51,21,0
284.31107,284.4384,53,24,0
284.4384,284.56815,51,21,0
284.56815,284.63406,53,24,0
284.63406,284.70053,51,20,0
284.70053,284.7686,49,24,0
284.7686,284.8342,51,18,0
284.8342,285.34238,53,34,0
285.34238,285.8382,37,37,0
285.8382,286.34195,61,30,0
285.8382,286.34195,56,20,0
285.8382,286.34195,49,20,0
286.34195,286.84573,61,34,0
286.34195,286.84573,56,23,0
286.34195,286.84573,49,23,0
286.84573,287.35617,59,36,0
286.84573,287.35617,56,24,0
286.84573,287.35617,49,24,0
287.35617,287.87488,59,39,0
287.35617,287.87488,56,22,0
287.35617,287.87488,49,23,0
287.87488,288.37076,59,34,0
287.87488,288.37076,56,34,0
287.87488,288.37076,49,28,0
288.37076,288.88486,59,35,0
288.37076,288.88486,56,34,0
288.37076,288.88486,49,29,0
288.88486,289.39117,56,24,0
288.88486,289.39117,49,23,0
288.88486,289.39117,59,27,0
289.39117,289.9152,59,34,0
289.39117,289.9152,56,34,0
289.39117,289.9152,49,27,0
289.9152,290.6847,59,36,0
289.9152,290.6847,56,20,0
289.9152,290.6847,49,14,0
290.6847,290.9286,50,39,0
290.6847,290.9286,38,31,0
290.9286,291.415,50,43,0
290.9286,291.415,38,35,0
291.415,292.1358,49,47,0
291.415,292.1358,37,39,0
292.1358,292.37018,48,38,0
292.1358,292.37018,36,31,0
292.37018,292.83173,48,42,0
292.37018,292.83173,36,34,0
292.83173,293.51715,47,50,0
292.83173,293.51715,35,42,0
293.51715,293.74103,46,40,0
293.51715,293.74103,34,32,0
293.74103,294.18384,46,44,0
293.74103,294.18384,34,34,0
294.18384,294.8409,45,55,0
294.18384,294.8409,33,45,0
294.8409,295.0552,44,44,0
294.8409,295.0552,32,35,0
295.0552,295.47772,44,48,0
295.0552,295.47772,32,37,0
295.47772,295.8206,42,56,0
295.47772,295.8206,30,29,0
295.8206,296.11365,46,49,0
295.8206,296.11365,34,42,0
296.11365,296.38193,39,42,0
296.11365,296.38193,27,36,0
296.38193,296.43164,40,42,0
296.38193,296.43164,28,36,0
296.51453,296.56754,41,45,0
296.51453,296.56754,29,36,0
296.6533,296.93808,42,50,0
296.6533,296.93808,30,42,0
296.93808,297.16293,44,59,0
296.93808,297.16293,32,50,0
297.2148,297.43655,59,46,0
297.16293,297.43655,44,37,0
297.1802,297.43655,51,37,0
297.1975,297.43655,53,37,0
297.48773,297.76553,62,46,0
297.43655,297.76553,46,37,0
297.4536,297.76553,53,37,0
297.47067,297.76553,56,37,0
297.76553,298.0335,42,44,0
297.76553,298.0335,30,38,0
298.0335,298.08322,43,44,0
298.0335,298.08322,31,38,0
298.1661,298.21976,44,43,0
298.1661,298.21976,32,35,0
298.30612,298.5874,45,51,0
298.30612,298.5874,33,43,0
298.5874,298.811,47,63,0
298.5874,298.811,35,53,0
298.86258,299.08374,62,48,0
298.811,299.08374,48,39,0
298.8282,299.08374,54,39,0
298.8454,299.08374,56,39,0
299.13477,299.41125,65,48,0
299.08374,299.41125,49,39,0
299.10074,299.41125,56,39,0
299.11777,299.41125,59,39,0
299.41125,299.6762,45,42,0
299.41125,299.6762,33,36,0
299.6762,299.7256,47,42,0
299.6762,299.7256,35,36,0
299.8079,299.86142,48,45,0
299.8079,299.86142,36,37,0
299.9491,300.2243,49,54,0
299.9491,300.2243,37,46,0
300.2243,300.49164,50,47,0
300.2243,300.49164,38,40,0
300.49164,300.54147,51,44,0
300.49164,300.54147,39,38,0
300.62454,300.6782,52,45,0
300.62454,300.6782,40,37,0
300.76764,301.04623,53,53,0
300.76764,301.04623,41,45,0
301.04623,301.31546,54,47,0
301.04623,301.31546,42,40,0
301.31546,301.36588,56,44,0
301.31546,301.36588,44,38,0
301.4499,301.50186,57,45,0
301.4499,301.50186,45,37,0
301.58853,301.86914,58,56,0
301.58853,301.86914,46,47,0
301.86914,302.15494,59,57,0
301.86914,302.15494,47,48,0
302.15494,302.43323,47,52,0
302.15494,302.43323,35,43,0
302.43323,302.71558,48,52,0
302.43323,302.71558,36,43,0
302.71558,302.98987,49,60,0
302.71558,302.98987,37,50,0
302.98987,303.26166,58,57,0
302.98987,303.26166,49,48,0
303.26166,303.53107,54,48,0
303.26166,303.53107,61,57,0
303.53107,303.79874,66,60,0
303.53107,303.79874,58,42,0
303.79874,304.06952,70,57,0
303.79874,304.06952,61,40,0
304.06952,304.34882,66,40,0
304.06952,304.34882,73,57,0
304.34882,304.6281,78,57,0
304.34882,304.6281,70,48,0
304.6281,304.9027,77,51,0
304.6281,304.9027,71,46,0
304.9027,305.18735,71,51,0
304.9027,305.18735,65,42,0
304.9027,305.18735,61,42,0
305.18735,305.46597,71,52,0
305.18735,305.46597,65,46,0
305.46597,305.74658,70,47,0
305.46597,305.74658,54,38,0
305.18735,305.74658,61,46,0
305.74658,306.02997,59,38,0
305.74658,306.02997,53,33,0
305.74658,306.02997,49,28,0
306.02997,306.31137,59,42,0
306.02997,306.31137,53,34,0
306.31137,306.59335,58,38,0
306.31137,306.59335,42,32,0
306.02997,306.59335,49,31,0
306.59335,306.88306,59,36,0
306.59335,306.88306,53,31,0
306.59335,306.88306,49,29,0
306.88306,307.16962,59,38,0
306.88306,307.16962,53,34,0
307.16962,307.46454,58,38,0
307.16962,307.46454,42,32,0
306.88306,307.46454,49,30,0
309.49823,309.77655,56,43,0
309.49823,309.77655,44,36,0
309.77655,310.06158,54,37,0
309.77655,310.06158,42,30,0
310.06158,310.34662,51,37,0
310.06158,310.34662,39,30,0
310.34662,310.62494,54,43,0
310.34662,310.62494,42,36,0
310.62494,310.91074,53,37,0
310.62494,310.91074,41,30,0
310.91074,311.19653,49,37,0
310.91074,311.19653,37,30,0
311.19653,311.4756,51,43,0
311.19653,311.4756,39,36,0
311.4756,311.76062,49,37,0
311.4756,311.76062,37,30,0
311.76062,312.04565,46,37,0
311.76062,312.04565,34,30,0
312.04565,312.3307,47,39,0
312.04565,312.3307,35,32,0
312.3307,312.61572,46,35,0
312.3307,312.61572,34,29,0
312.61572,312.90076,42,35,0
312.61572,312.90076,30,29,0
312.90076,313.16812,39,47,0
312.90076,313.16812,27,40,0
313.16812,313.2182,40,44,0
313.16812,313.2182,28,38,0
313.30164,313.35516,41,47,0
313.30164,313.35516,29,38,0
313.4414,313.72202,42,56,0
313.4414,313.72202,30,47,0
313.72202,313.99875,44,67,0
313.72202,313.99875,32,56,0
313.99875,314.27167,59,51,0
313.99875,314.27167,44,43,0
313.99875,314.27167,51,43,0
313.99875,314.27167,53,43,0
314.27167,314.5488,62,51,0
314.27167,314.5488,46,43,0
314.27167,314.5488,53,43,0
314.27167,314.5488,56,43,0
314.5488,314.81586,42,47,0
314.5488,314.81586,30,40,0
314.81586,314.8658,43,44,0
314.81586,314.8658,31,38,0
314.94907,315.00284,44,43,0
314.94907,315.00284,32,35,0
315.09085,315.37067,45,54,0
315.09085,315.37067,33,46,0
315.37067,315.64587,47,67,0
315.37067,315.64587,35,56,0
315.64587,315.91806,62,51,0
315.64587,315.91806,48,43,0
315.64587,315.91806,54,43,0
315.64587,315.91806,56,43,0
315.91806,316.19315,65,51,0
315.91806,316.19315,49,43,0
315.91806,316.19315,56,43,0
315.91806,316.19315,59,43,0
316.19315,316.45703,45,42,0
316.19315,316.45703,33,36,0
316.45703,316.50632,47,42,0
316.45703,316.50632,35,36,0
316.5884,316.6404,48,45,0
316.5884,316.6404,36,37,0
316.72705,317.00223,49,54,0
316.72705,317.00223,37,46,0
317.00223,317.26996,50,47,0
317.00223,317.26996,38,40,0
317.26996,317.32,51,47,0
317.26996,317.32,39,40,0
317.40347,317.45468,52,48,0
317.40347,317.45468,40,39,0
317.54153,317.8167,53,53,0
317.54153,317.8167,41,45,0
317.8167,318.08408,54,49,0
317.8167,318.08408,42,42,0
318.08408,318.13412,55,49,0
318.08408,318.13412,43,42,0
318.2176,318.26822,56,50,0
318.2176,318.26822,44,40,0
318.35263,318.64075,57,58,0
318.35263,318.64075,45,49,0
318.64075,318.92654,60,59,0
318.64075,318.92654,48,50,0
318.64075,318.92654,54,50,0
318.92654,319.2048,59,54,0
318.92654,319.2048,47,45,0
318.92654,319.2048,55,45,0
319.2048,319.4878,38,59,0
319.2048,319.4878,26,49,0
319.4878,319.6253,49,61,0
319.4878,319.7621,37,60,0
319.4878,319.7621,25,50,0
319.7621,320.0339,57,57,0
319.7621,320.0339,49,48,0
320.0339,320.30362,54,48,0
320.0339,320.30362,61,57,0
320.30362,320.5719,66,60,0
320.30362,320.5719,57,42,0
320.5719,320.84482,69,57,0
320.5719,320.84482,61,40,0
320.84482,321.1241,66,40,0
320.84482,321.1241,73,57,0
321.1241,321.40338,78,57,0
321.1241,321.40338,69,48,0
321.40338,321.67935,77,54,0
321.40338,321.67935,71,46,0
321.67935,321.964,71,51,0
321.67935,321.964,65,42,0
321.67935,321.964,61,42,0
321.964,322.24258,71,54,0
321.964,322.24258,65,46,0
322.24258,322.52386,69,47,0
322.24258,322.52386,54,38,0
321.964,322.52386,61,46,0
322.52386,322.80725,59,38,0
322.52386,322.80725,53,33,0
322.52386,322.80725,49,28,0
322.80725,323.08865,59,42,0
322.80725,323.08865,53,36,0
323.08865,323.37064,57,38,0
323.08865,323.37064,42,32,0
322.80725,323.37064,49,30,0
323.37064,323.66034,59,36,0
323.37064,323.66034,53,31,0
323.37064,323.66034,49,26,0
323.66034,323.94687,59,38,0
323.66034,323.94687,53,34,0
323.94687,324.2317,57,37,0
323.94687,324.2317,42,30,0
323.66034,324.2317,49,29,0
324.2317,324.79706,49,69,0
324.2317,324.79706,37,57,0
324.79706,324.9347,50,63,0
324.79706,324.9347,38,52,0
324.9347,325.07233,49,57,0
324.9347,325.07233,37,48,0
325.07233,325.2123,44,64,0
325.07233,325.2123,32,53,0
325.2123,325.3523,45,55,0
325.2123,325.3523,33,47,0
325.3523,326.21085,42,63,0
325.3523,326.21085,30,52,0
326.21085,326.49683,38,72,0
326.21085,326.49683,26,72,0
326.49683,326.63782,54,38,0
326.63782,326.77844,54,39,0
326.77844,326.9187,53,40,0
326.9187,327.0586,54,42,0
327.0586,327.19812,55,43,0
327.19812,327.33728,56,45,0
327.33728,327.47607,57,46,0
327.47607,327.61453,58,47,0
327.61453,327.7526,59,49,0
327.7526,327.89032,60,50,0
327.89032,328.02768,61,51,0
328.02768,328.16504,62,53,0
328.16504,328.3024,63,55,0
328.3024,328.43976,64,55,0
328.43976,328.57715,65,55,0
328.57715,328.7145,66,57,0
328.7145,328.98923,66,58,0
328.98923,329.2671,67,64,0
329.2671,329.41037,55,74,0
329.2671,329.41037,67,74,0
329.2671,329.41037,63,74,0
329.2671,329.41037,58,74,0
329.55365,329.84018,51,79,0
329.55365,329.84018,39,79,0
329.84018,329.9808,55,38,0
329.9808,330.12112,55,39,0
330.12112,330.26114,54,40,0
330.26114,330.4008,55,42,0
330.4008,330.54013,56,43,0
330.54013,330.67917,57,45,0
330.67917,330.81784,58,46,0
330.81784,330.95624,59,47,0
330.95624,331.0943,60,49,0
331.0943,331.23203,61,50,0
331.23203,331.3694,62,51,0
331.3694,331.50677,63,53,0
331.50677,331.64413,64,55,0
331.64413,331.7815,65,55,0
331.7815,331.91885,66,55,0
331.91885,332.0562,67,57,0
332.0562,332.33093,67,58,0
332.33093,332.60574,68,64,0
332.60574,332.749,56,74,0
332.60574,332.749,68,74,0
332.60574,332.749,64,74,0
332.60574,332.749,59,74,0
332.89227,333.17883,52,79,0
332.89227,333.17883,40,79,0
333.17883,333.31726,59,59,0
333.17883,333.31726,56,50,0
333.31726,333.45572,59,58,0
333.31726,333.45572,56,49,0
333.45572,333.5963,58,54,0
333.45572,333.5963,55,46,0
333.5963,333.7362,59,54,0
333.5963,333.7362,56,46,0
333.7362,333.87506,60,58,0
333.7362,333.87506,57,49,0
333.87506,334.01385,61,58,0
333.87506,334.01385,58,49,0
334.01385,334.08267,62,58,0
334.01385,334.08267,59,49,0
334.15152,334.22034,62,53,0
334.15152,334.22034,59,45,0
334.28915,334.35983,62,53,0
334.28915,334.35983,59,45,0
334.4305,334.50122,62,54,0
334.4305,334.50122,59,46,0
334.5719,334.71033,62,58,0
334.5719,334.71033,59,49,0
334.71033,334.8488,61,54,0
334.71033,334.8488,58,46,0
334.8488,334.91742,61,58,0
334.8488,334.91742,58,49,0
334.98608,335.05475,61,54,0
334.98608,335.05475,58,46,0
335.1234,335.1941,60,54,0
335.1234,335.1941,57,46,0
335.26477,335.33548,61,54,0
335.26477,335.33548,58,46,0
335.40616,335.5446,62,58,0
335.40616,335.5446,59,49,0
335.5446,335.68304,63,54,0
335.5446,335.68304,60,46,0
335.68304,335.75153,64,58,0
335.68304,335.75153,61,49,0
335.82,335.88852,64,60,0
335.82,335.88852,61,51,0
335.957,336.0273,64,63,0
335.957,336.0273,61,53,0
336.09763,336.16794,64,64,0
336.09763,336.16794,61,53,0
336.23825,336.37668,64,67,0
336.23825,336.37668,61,56,0
336.37668,336.51514,63,59,0
336.37668,336.51514,60,50,0
336.51514,336.58362,63,59,0
336.51514,336.58362,60,50,0
336.6521,336.7206,63,61,0
336.6521,336.7206,60,52,0
336.7891,336.8594,62,64,0
336.7891,336.8594,59,53,0
336.92972,337.00003,63,65,0
336.92972,337.00003,60,54,0
337.07034,337.35794,61,56,0
337.07034,337.35794,65,67,0
337.07034,337.35794,59,56,0
337.35794,337.63657,49,59,0
337.35794,337.63657,37,49,0
337.63657,337.92694,59,54,0
337.63657,337.92694,61,54,0
337.63657,337.92694,65,65,0
337.92694,338.21527,54,56,0
337.92694,338.21527,64,67,0
337.92694,338.21527,61,56,0
337.92694,338.21527,59,56,0
338.21527,338.4939,42,60,0
338.21527,338.4939,30,51,0
338.4939,338.77725,54,52,0
338.4939,338.77725,64,61,0
338.4939,338.77725,61,52,0
338.4939,338.77725,58,52,0
338.77725,339.0677,59,54,0
338.77725,339.0677,63,63,0
338.77725,339.0677,57,54,0
339.0677,339.34653,47,57,0
339.0677,339.34653,35,47,0
339.34653,339.63776,57,51,0
339.34653,339.63776,59,51,0
339.34653,339.63776,63,61,0
339.63776,339.92462,52,56,0
339.63776,339.92462,62,67,0
339.63776,339.92462,59,56,0
339.63776,339.92462,57,56,0
339.92462,340.20526,40,60,0
339.92462,340.20526,28,51,0
340.20526,340.4884,52,52,0
340.20526,340.4884,56,52,0
340.20526,340.4884,62,61,0
340.4884,340.77905,57,56,0
340.4884,340.77905,61,67,0
340.4884,340.77905,55,56,0
340.77905,341.0581,45,59,0
340.77905,341.0581,33,50,0
341.0581,341.3462,55,51,0
341.0581,341.3462,57,51,0
341.0581,341.3462,61,60,0
341.3462,341.6297,60,67,0
341.3462,341.6297,54,56,0
341.6297,341.9138,60,58,0
341.6297,341.9138,57,48,0
341.9138,342.20197,72,65,0
341.9138,342.20197,69,55,0
342.20197,342.4924,81,56,0
342.20197,342.4924,84,68,0
342.4924,342.63766,60,58,0
342.4924,342.63766,48,48,0
342.7829,342.92636,36,57,0
342.7829,342.92636,24,48,0
343.0698,343.21466,37,59,0
343.0698,343.21466,25,50,0
343.35956,343.50372,49,40,0
343.35956,343.50372,37,34,0
343.6479,343.7935,39,46,0
343.6479,343.7935,27,37,0
343.93912,344.08398,41,49,0
343.93912,344.08398,29,40,0
344.22888,344.37378,53,44,0
344.22888,344.37378,41,35,0
344.51865,344.66354,41,43,0
344.51865,344.66354,29,35,0
344.80844,344.9533,46,37,0
344.80844,344.9533,34,30,0
345.0982,345.24417,49,31,0
345.0982,345.24417,37,25,0
345.39017,345.53397,39,33,0
345.67776,345.82266,41,38,0
346.25732,346.4022,41,34,0
346.25732,346.4022,29,28,0
346.5471,346.82703,46,36,0
346.5471,346.82703,34,30,0
346.82703,347.11322,56,31,0
346.82703,347.11322,44,26,0
347.11322,347.3994,53,31,0
347.11322,347.3994,41,26,0
347.3994,347.67776,54,36,0
347.3994,347.67776,42,30,0
347.67776,347.96353,53,31,0
347.67776,347.96353,41,26,0
347.96353,348.24933,49,31,0
347.96353,348.24933,37,26,0
348.24933,348.5284,51,36,0
348.24933,348.5284,39,30,0
348.5284,348.81342,49,31,0
348.5284,348.81342,37,26,0
348.81342,349.09845,46,31,0
348.81342,349.09845,34,31,0
349.09845,349.3835,47,38,0
349.09845,349.3835,35,38,0
349.3835,349.66855,46,38,0
349.3835,349.66855,34,38,0
349.66855,349.95358,42,40,0
349.66855,349.95358,30,40,0
349.95358,350.22217,39,47,0
349.95358,350.22217,27,40,0
350.22217,350.27258,40,44,0
350.22217,350.27258,28,38,0
350.35648,350.40857,41,47,0
350.35648,350.40857,29,38,0
350.49542,350.779,42,54,0
350.49542,350.779,30,46,0
350.779,351.05573,44,67,0
350.779,351.05573,32,56,0
351.05573,351.32864,59,51,0
351.05573,351.32864,44,43,0
351.05573,351.32864,51,43,0
351.05573,351.32864,53,43,0
351.32864,351.6054,62,51,0
351.32864,351.6054,46,43,0
351.32864,351.6054,53,43,0
351.32864,351.6054,56,43,0
351.6054,351.87338,42,47,0
351.6054,351.87338,30,40,0
351.87338,351.92334,43,44,0
351.87338,351.92334,31,38,0
352.0066,352.0592,44,43,0
352.0066,352.0592,32,35,0
352.1469,352.4317,45,54,0
352.1469,352.4317,33,46,0
352.4317,352.7069,47,67,0
352.4317,352.7069,35,56,0
352.7069,352.9791,62,51,0
352.7069,352.9791,48,43,0
352.7069,352.9791,54,43,0
352.7069,352.9791,56,43,0
352.9791,353.2547,65,51,0
352.9791,353.2547,49,43,0
352.9791,353.2547,56,43,0
352.9791,353.2547,59,43,0
353.2547,353.5199,45,42,0
353.2547,353.5199,33,36,0
353.5199,353.56927,47,42,0
353.5199,353.56927,35,36,0
353.65158,353.7047,48,45,0
353.65158,353.7047,36,37,0
353.7921,354.07208,49,56,0
353.7921,354.07208,37,47,0
354.07208,354.341,50,47,0
354.07208,354.341,38,40,0
354.341,354.39166,51,47,0
354.341,354.39166,39,40,0
354.47607,354.52893,52,48,0
354.47607,354.52893,40,39,0
354.61707,354.89905,53,53,0
354.61707,354.89905,41,45,0
354.89905,355.16953,54,50,0
354.89905,355.16953,42,42,0
355.16953,355.22018,55,48,0
355.16953,355.22018,43,42,0
355.3046,355.35696,56,50,0
355.3046,355.35696,44,39,0
355.44424,355.7362,57,57,0
355.44424,355.7362,45,48,0
355.7362,356.00888,48,65,0
355.7362,356.00888,36,53,0
356.00888,356.1462,72,61,0
356.00888,356.1462,60,51,0
356.00888,356.1462,66,51,0
356.00888,356.1462,69,51,0
356.2835,356.56213,35,57,0
356.2835,356.56213,47,69,0
356.56213,356.8458,57,58,0
356.56213,356.8458,45,49,0
356.56213,356.8458,49,58,0
356.56213,356.8458,54,58,0
356.8458,356.9904,45,65,0
356.8458,356.9904,33,54,0
357.13498,357.4193,59,59,0
357.13498,357.4193,54,50,0
357.13498,357.4193,47,50,0
357.4193,357.56424,47,65,0
357.4193,357.56424,35,54,0
357.70917,357.99353,59,59,0
357.70917,357.99353,56,50,0
357.70917,357.99353,50,45,0
357.70917,357.99353,54,47,0
357.99353,358.13882,50,65,0
357.99353,358.13882,38,54,0
358.2841,358.56982,57,59,0
358.2841,358.56982,49,50,0
358.2841,358.56982,54,50,0
358.56982,358.71475,49,65,0
358.56982,358.71475,37,54,0
358.85968,359.1447,56,59,0
358.85968,359.1447,49,50,0
358.85968,359.1447,54,50,0
359.1447,359.28964,49,65,0
359.1447,359.28964,37,54,0
359.43457,359.73013,59,56,0
359.43457,359.73013,49,47,0
359.43457,359.73013,56,47,0
359.73013,359.87436,71,55,0
359.73013,359.87436,65,46,0
359.73013,359.87436,61,40,0
360.0186,360.2716,71,59,0
360.0186,360.2716,65,50,0
360.0186,360.2716,61,46,0
360.30774,360.5997,69,51,0
360.28967,360.5997,61,44,0
360.2716,360.5997,54,42,0
360.5997,360.74677,59,30,0
360.5997,360.74677,53,26,0
360.5997,360.74677,49,19,0
360.89383,361.14938,59,33,0
360.89383,361.14938,53,28,0
360.89383,361.14938,49,21,0
361.1859,361.47858,57,30,0
361.16763,361.47858,49,25,0
361.14938,361.47858,42,25,0
361.47858,361.7771,59,25,0
361.47858,361.7771,53,21,0
361.47858,361.7771,49,17,0
361.7771,362.0712,57,33,0
361.7771,362.0712,54,28,0
361.7771,362.0712,49,24,0
362.0712,362.37045,42,25,0
362.37045,362.66824,59,23,0
362.37045,362.66824,53,20,0
362.37045,362.66824,49,17,0
362.66824,362.96307,57,30,0
362.66824,362.96307,54,26,0
362.66824,362.96307,49,21,0
362.96307,363.26233,42,22,0
363.26233,363.56845,59,21,0
363.26233,363.56845,53,18,0
363.26233,363.56845,49,15,0
363.56845,363.8677,58,27,0
363.56845,363.8677,54,24,0
363.56845,363.8677,49,19,0
363.8677,364.16995,42,21,0
364.16995,364.47452,59,20,0
364.16995,364.47452,53,17,0
364.16995,364.47452,49,14,0
364.47452,364.77454,58,26,0
364.47452,364.77454,54,23,0
364.47452,364.77454,49,18,0
364.77454,365.07748,42,19,0
365.07748,365.3854,59,19,0
365.07748,365.3854,53,16,0
365.07748,365.3854,49,13,0
365.3854,365.6985,58,25,0
365.3854,365.6985,54,21,0
365.3854,365.6985,49,17,0
365.6985,366.01553,42,18,0
366.01553,366.33942,59,17,0
366.01553,366.33942,53,15,0
366.01553,366.33942,49,13,0
366.33942,366.6661,58,24,0
366.33942,366.6661,54,20,0
366.33942,366.6661,49,16,0
366.6661,367.00772,42,17,0
367.00772,367.3493,59,17,0
367.00772,367.3493,53,15,0
367.00772,367.3493,49,13,0
367.3493,367.91336,42,32,0
367.91336,368.465,49,17,0
367.91336,368.465,54,17,0
367.91336,368.465,63,20,0
368.465,369.04208,61,17,0
368.465,369.04208,54,14,0
368.465,369.04208,49,14,0
369.04208,369.56668,61,20,0
369.04208,369.56668,54,16,0
369.04208,369.56668,49,16,0
369.56668,370.11032,54,14,0
369.56668,370.11032,49,10,0
369.56668,370.11032,63,16,0
370.11032,370.67438,61,15,0
370.11032,370.67438,54,12,0
370.11032,370.67438,49,12,0
370.67438,371.2141,61,20,0
370.67438,371.2141,54,16,0
370.67438,371.2141,49,16,0
371.2141,371.7698,49,16,0
371.2141,371.7698,54,16,0
371.2141,371.7698,63,19,0
371.7698,372.37,61,16,0
371.7698,372.37,54,13,0
371.7698,372.37,49,13,0
372.37,372.9427,61,20,0
372.37,372.9427,54,16,0
372.37,372.9427,49,16,0
372.9427,373.49026,54,16,0
372.9427,373.49026,49,16,0
372.9427,373.49026,63,19,0
373.49026,374.05862,61,16,0
373.49026,374.05862,54,13,0
373.49026,374.05862,49,13,0
374.05862,374.62695,61,19,0
374.05862,374.62695,54,16,0
374.05862,374.62695,49,16,0
374.62695,375.18268,59,17,0
374.62695,375.18268,54,14,0
374.62695,375.18268,49,14,0
375.18268,375.751,58,18,0
375.18268,375.751,54,15,0
375.18268,375.751,49,15,0
375.751,376.2986,58,18,0
375.751,376.2986,54,15,0
375.751,376.2986,49,15,0
376.2986,376.8462,49,21,0
376.2986,376.8462,47,17,0
376.8462,377.40607,49,21,0
376.8462,377.40607,46,17,0
377.40607,377.95364,49,21,0
377.40607,377.95364,46,17,0
377.95364,378.49728,49,21,0
377.95364,378.49728,47,17,0
378.49728,379.0409,49,21,0
378.49728,379.0409,46,17,0
379.0409,379.59662,49,20,0
379.0409,379.59662,46,16,0
379.59662,380.14822,49,20,0
379.59662,380.14822,47,16,0
380.14822,381.32507,49,18,0
380.14822,381.32507,46,15,0
381.32507,381.88913,44,20,0
381.32507,381.88913,32,17,0
381.88913,382.48932,42,20,0
381.88913,382.48932,30,17,0
382.48932,383.11978,42,20,0
382.48932,383.11978,30,17,0
383.11978,383.71994,44,20,0
383.11978,383.71994,32,17,0
383.71994,384.44836,42,20,0
383.71994,384.44836,30,17,0
386.4227,386.58722,37,20,0
386.4227,386.58722,25,16,0
388.39703,388.56155,42,20,0
388.39703,388.56155,30,16,0
