start_time,end_time,note_value,velocity,instrument_program_number
0.0,0.813449,64,60,0
0.813449,1.4235357,64,60,0
1.4235357,1.626898,64,57,0
1.626898,2.440347,64,60,0
2.440347,3.253796,65,58,0
3.253796,4.067245,64,60,0
4.067245,4.880694,60,58,0
4.880694,6.56278,64,60,0
6.56278,7.37667,60,28,0
6.56278,7.37667,55,28,0
6.56278,7.37667,64,38,0
7.37667,7.9870877,60,28,0
7.37667,7.9870877,55,28,0
7.37667,7.9870877,64,38,0
7.9870877,8.19056,60,26,0
7.9870877,8.19056,64,36,0
7.9870877,8.19056,55,26,0
8.19056,9.00445,64,38,0
8.19056,9.00445,55,28,0
8.19056,9.00445,60,28,0
9.00445,9.843259,60,26,0
9.00445,9.843259,57,26,0
9.00445,9.843259,65,36,0
9.843259,10.757475,64,36,0
9.843259,10.757475,55,26,0
9.843259,10.757475,60,26,0
10.757475,11.743506,60,34,0
10.757475,11.743506,57,25,0
11.743506,12.976805,55,22,0
11.743506,12.976805,60,22,0
12.976805,14.313703,56,19,0
11.743506,14.313703,64,31,0
12.976805,14.313703,62,19,0
14.308132,14.392142,101,96,0
14.395159,14.47561,96,71,0
14.4735985,14.554049,100,91,0
14.557066,14.637516,93,71,0
14.636511,14.716961,99,84,0
14.715956,14.796406,96,71,0
14.796406,14.873896,98,82,0
14.8768015,14.95429,93,69,0
14.953321,15.030811,97,79,0
15.030811,15.1083,93,69,0
15.105394,15.182884,96,79,0
15.186758,15.26428,88,69,0
15.263301,15.341659,95,78,0
15.340679,15.419037,88,71,0
15.417078,15.495436,94,78,0
15.494456,15.572814,84,71,0
15.572814,15.651172,93,78,0
15.653131,15.731488,88,71,0
15.729529,15.805683,92,78,0
15.805683,15.881781,84,69,0
15.886537,15.962635,91,71,0
15.959781,16.03588,84,69,0
16.033976,16.110073,90,71,0
16.110073,16.186172,81,69,0
16.186172,16.264755,89,78,0
16.266722,16.34537,84,71,0
16.346352,16.425,88,78,0
16.425,16.503647,81,71,0
16.503647,16.582294,87,78,0
16.582294,16.660995,84,71,0
16.657991,16.74085,86,78,0
16.743961,16.82693,81,69,0
16.825891,16.90886,85,71,0
16.90886,16.991825,81,69,0
16.989752,17.072718,84,71,0
17.075829,17.158718,76,69,0
17.159676,17.236334,83,71,0
17.236334,17.31299,76,69,0
17.312033,17.38869,82,71,0
17.386774,17.463432,72,69,0
17.467264,17.543922,81,71,0
17.542963,17.619621,76,69,0
17.620579,17.697237,80,71,0
17.697237,17.773895,72,69,0
17.771978,17.848637,79,71,0
17.845762,17.922419,72,69,0
17.924335,18.000994,78,71,0
18.000034,18.076693,69,69,0
18.080612,18.159557,77,56,0
18.15561,18.234554,72,51,0
18.237514,18.316462,76,56,0
18.317448,18.396393,69,56,0
18.396393,18.475338,75,56,0
18.475338,18.55423,72,51,0
18.552292,18.629782,74,56,0
18.628813,18.7063,69,51,0
18.705334,18.782822,73,56,0
18.782822,18.860312,69,51,0
18.864185,18.941675,72,56,0
18.936832,19.014322,64,51,0
19.016258,19.095203,71,56,0
19.093231,19.172176,64,50,0
19.176123,19.255068,70,55,0
19.251122,19.330067,60,49,0
19.330067,19.409012,69,53,0
19.413946,19.492775,64,47,0
19.488945,19.564821,68,50,0
19.564821,19.64066,60,46,0
19.642555,19.718393,67,49,0
19.719341,19.79518,60,46,0
19.796127,19.871965,66,47,0
19.871017,19.946926,57,45,0
19.94496,20.023607,65,47,0
20.022623,20.10127,60,45,0
20.10422,20.182867,64,47,0
20.1809,20.259548,57,45,0
20.259548,20.338196,63,46,0
20.341145,20.419918,60,44,0
20.418894,20.500895,62,45,0
20.496794,20.578794,57,42,0
20.58187,20.66387,61,45,0
20.662846,20.744846,57,40,0
20.746897,20.828897,60,44,0
20.827871,20.90982,52,42,0
20.90982,20.987598,59,44,0
20.986628,21.064405,52,42,0
21.06246,21.14024,58,47,0
21.141212,21.21899,48,45,0
21.219963,21.29774,57,49,0
21.299686,21.377464,52,47,0
21.376492,21.454271,56,53,0
21.456215,21.533995,48,49,0
21.533022,21.6108,57,56,0
21.608856,21.686634,52,53,0
21.685663,21.763441,60,59,0
21.765385,21.8432,53,59,0
21.842192,21.922935,64,59,0
21.920916,22.00166,59,59,0
22.005695,22.08644,62,59,0
22.08543,22.166172,65,59,0
22.163145,22.243887,76,59,0
22.248934,22.329544,71,59,0
22.32463,22.401934,74,62,0
22.40676,22.483973,77,64,0
22.483007,22.560223,88,67,0
22.557327,22.63454,83,68,0
22.635506,22.712719,86,69,0
22.710789,22.788004,77,70,0
22.79283,22.870043,86,69,0
22.869078,22.946293,81,68,0
22.942432,23.019646,84,67,0
23.024471,23.101686,77,66,0
23.100721,23.177935,74,64,0
23.17697,23.254206,69,62,0
23.252254,23.331177,72,58,0
23.331177,23.410122,65,58,0
23.413084,23.49203,62,58,0
23.490055,23.569,57,58,0
23.567026,23.645971,60,58,0
23.648933,23.727879,53,58,0
23.728865,23.80781,64,59,0
23.805836,23.88478,59,59,0
23.883795,23.96274,62,59,0
23.964714,24.04366,65,59,0
24.044645,24.12359,76,59,0
24.12359,24.202494,71,59,0
24.202494,24.279707,74,64,0
24.277777,24.354992,77,64,0
24.353062,24.430275,88,66,0
24.432205,24.50942,83,67,0
24.512316,24.589529,86,69,0
24.584703,24.661917,76,69,0
24.664814,24.742027,86,67,0
24.742027,24.81924,81,66,0
24.818275,24.89549,84,64,0
24.89356,24.970774,76,62,0
24.9756,25.052814,74,61,0
25.052814,25.130072,69,60,0
25.128113,25.20647,72,59,0
25.20549,25.283848,64,59,0
25.283848,25.362206,62,59,0
25.362206,25.440563,57,59,0
25.443502,25.52186,60,59,0
25.517942,25.5963,59,59,0
25.597279,25.675636,69,59,0
25.674658,25.753016,64,58,0
25.756933,25.83529,68,58,0
25.831373,25.90973,71,58,0
25.912668,25.991026,81,58,0
25.990047,26.068398,76,58,0
26.066446,26.144232,80,58,0
26.147148,26.224926,83,57,0
26.225899,26.303679,93,58,0
26.30076,26.37854,88,59,0
26.379513,26.45729,92,59,0
26.459234,26.537014,83,59,0
26.532152,26.609932,92,60,0
26.614792,26.692572,87,60,0
26.690626,26.768406,90,59,0
26.765488,26.843267,83,59,0
26.846184,26.923962,80,59,0
26.922018,26.999796,75,58,0
27.003752,27.083286,78,55,0
27.081299,27.160833,71,55,0
27.160833,27.24037,68,55,0
27.23838,27.317917,63,55,0
27.321894,27.401428,66,55,0
27.396458,27.475994,59,55,0
27.475994,27.555529,69,55,0
27.559505,27.639042,64,55,0
27.636059,27.715595,68,55,0
27.71957,27.799107,71,55,0
27.79513,27.874666,81,55,0
27.87566,27.955194,76,55,0
27.953207,28.032742,80,55,0
28.036718,28.116255,83,59,0
28.117249,28.196785,93,59,0
28.19579,28.275326,88,59,0
28.274332,28.353867,92,59,0
28.35486,28.434397,83,59,0
28.432407,28.671015,100,81,0
29.38584,29.466278,101,94,0
29.465273,29.545723,96,69,0
29.545723,29.626175,100,90,0
29.626175,29.706625,93,69,0
29.710648,29.791098,99,84,0
29.792103,29.872442,96,69,0
29.868532,29.946058,98,82,0
29.94509,30.02258,93,67,0
30.025484,30.102974,97,79,0
30.100067,30.177557,93,67,0
30.177557,30.255047,96,78,0
30.256983,30.334473,88,67,0
30.336432,30.41479,95,77,0
30.41479,30.493147,88,69,0
30.492168,30.570526,94,75,0
30.567587,30.645945,84,69,0
30.647903,30.726261,93,73,0
30.725283,30.80364,88,69,0
30.806557,30.884045,92,73,0
30.88114,30.95863,84,67,0
30.959599,31.037086,91,69,0
31.036118,31.113607,84,67,0
31.115545,31.193035,90,69,0
31.193035,31.270538,81,67,0
31.270538,31.349186,89,73,0
31.346235,31.424883,84,69,0
31.427834,31.50648,88,73,0
31.508446,31.587093,81,69,0
31.586111,31.664759,87,73,0
31.665741,31.74455,84,69,0
31.740456,31.823368,86,73,0
31.824406,31.907373,81,67,0
31.906336,31.989302,85,69,0
31.99345,32.076416,81,67,0
32.073307,32.156273,84,69,0
32.159386,32.242115,76,67,0
32.237167,32.31398,83,69,0
32.316856,32.393513,76,67,0
32.39064,32.467297,82,69,0
32.46921,32.54587,72,67,0
32.548744,32.625404,81,69,0
32.620613,32.69727,76,67,0
32.70206,32.778717,80,69,0
32.774887,32.851543,72,67,0
32.851543,32.9282,79,69,0
32.931076,33.007732,72,67,0
33.005817,33.082474,78,69,0
33.081516,33.158173,69,67,0
33.16012,33.239063,77,56,0
33.239063,33.31801,70,56,0
33.317024,33.39597,76,56,0
33.39597,33.474915,67,51,0
33.4759,33.554844,75,56,0
33.554844,33.633774,70,51,0
33.63571,33.7132,74,56,0
33.71223,33.78972,67,51,0
33.78875,33.86624,73,56,0
33.86721,33.9447,70,51,0
33.94373,34.02122,72,56,0
34.020252,34.09774,67,51,0
34.09677,34.175697,71,56,0
34.178658,34.257603,67,50,0
34.25662,34.335564,70,55,0
34.337536,34.41648,64,49,0
34.412533,34.491478,69,53,0
34.491478,34.570427,60,47,0
34.57238,34.64987,68,50,0
34.650837,34.72833,58,46,0
34.72736,34.804848,67,49,0
34.80388,34.88137,60,46,0
34.88137,34.95886,66,47,0
34.95692,35.034412,58,45,0
35.038315,35.116962,65,47,0
35.11598,35.194626,60,45,0
35.194626,35.273273,64,47,0
35.274258,35.352905,58,45,0
35.352905,35.43155,63,46,0
35.42762,35.506268,60,44,0
35.50926,35.59126,62,45,0
35.593307,35.67531,55,42,0
35.67531,35.75731,61,45,0
35.75526,35.83726,58,40,0
35.838284,35.920288,60,44,0
35.916187,35.998188,55,39,0
36.002182,36.07996,59,44,0
36.080933,36.15871,55,42,0
36.154823,36.2326,60,47,0
36.234547,36.312325,58,45,0
36.31038,36.388157,61,49,0
36.388157,36.46594,55,47,0
36.464966,36.542744,62,53,0
36.547604,36.62538,58,49,0
36.62538,36.703163,63,56,0
36.70219,36.77997,55,53,0
36.77608,36.85386,64,59,0
36.85483,36.93261,58,56,0
36.931637,37.01055,69,59,0
37.01055,37.089497,64,59,0
37.092457,37.171402,67,59,0
37.17239,37.251335,70,59,0
37.25035,37.329296,81,59,0
37.32831,37.407253,76,59,0
37.407253,37.484467,79,59,0
37.4835,37.560715,82,59,0
37.56168,37.638897,93,60,0
37.639862,37.717075,88,62,0
37.71418,37.791393,91,64,0
37.79236,37.86957,82,66,0
37.872467,37.949684,93,67,0
37.94679,38.024002,87,67,0
38.026897,38.10411,91,66,0
38.105076,38.18229,82,64,0
38.18229,38.259506,81,64,0
38.258537,38.33578,75,62,0
38.33286,38.4112,79,62,0
38.41512,38.493477,70,59,0
38.48858,38.566936,69,59,0
38.566936,38.645294,63,59,0
38.64921,38.72757,67,59,0
38.72659,38.804947,58,59,0
38.804947,38.883305,69,59,0
38.885265,38.963623,62,59,0
38.958725,39.037083,67,59,0
39.04198,39.12034,70,59,0
39.118378,39.196735,81,59,0
39.19478,39.273136,74,59,0
39.272156,39.3494,79,59,0
39.352295,39.42951,82,59,0
39.427578,39.50479,93,60,0
39.50479,39.58201,86,62,0
39.58587,39.663082,91,66,0
39.66115,39.738365,82,68,0
39.738365,39.81558,93,69,0
39.812683,39.889896,85,69,0
39.891827,39.969044,91,68,0
39.969044,40.046257,82,67,0
40.046257,40.12347,81,66,0
40.1254,40.202652,73,64,0
40.201668,40.280315,79,59,0
40.27933,40.35798,70,59,0
40.359947,40.438595,69,59,0
40.43761,40.51626,61,59,0
40.51626,40.594906,67,59,0
40.59392,40.67257,58,59,0
40.670605,40.74925,69,59,0
40.75318,40.83183,60,59,0
40.827896,40.906544,67,59,0
40.909492,40.98814,58,59,0
40.99011,41.068756,72,59,0
41.065807,41.14445,69,59,0
41.14642,41.225067,70,61,0
41.2231,41.301746,67,62,0
41.301746,41.380394,81,64,0
41.382362,41.46101,72,64,0
41.460026,41.538673,79,64,0
41.53769,41.616337,70,64,0
41.619286,41.697933,84,64,0
41.69597,41.774616,81,64,0
41.772648,41.851295,82,62,0
41.85228,41.930927,79,61,0
41.92896,42.007607,93,61,0
42.01154,42.090187,84,60,0
42.09117,42.16982,91,59,0
42.16785,42.2465,82,59,0
42.24355,42.322197,96,59,0
42.32318,42.40183,93,59,0
42.400845,42.479492,94,59,0
42.48244,42.56109,91,59,0
42.55814,42.636787,98,59,0
42.6417,42.72035,93,59,0
42.72035,42.798996,96,59,0
42.79703,42.87568,89,59,0
42.87666,42.955307,92,59,0
42.95629,43.034893,89,59,0
43.03002,43.10754,93,59,0
43.10754,43.18503,84,59,0
43.188904,43.266396,88,59,0
43.265427,43.342915,84,59,0
43.340977,43.41847,89,59,0
43.4175,43.494987,81,59,0
43.495956,43.573444,85,59,0
43.575382,43.652874,81,59,0
43.651905,43.729393,86,59,0
43.728424,43.805912,77,59,0
43.80688,43.884373,80,59,0
43.88534,43.96283,77,59,0
43.9638,44.041286,81,59,0
44.041286,44.11878,74,59,0
44.11781,44.195297,76,59,0
44.195297,44.272785,74,59,0
44.273754,44.351246,77,59,0
44.352215,44.429756,69,59,0
44.42486,44.50377,76,59,0
44.50673,44.585674,71,59,0
44.584686,44.66363,74,59,0
44.662647,44.741592,77,59,0
44.740604,44.81955,88,59,0
44.824486,44.903385,83,59,0
44.898495,44.976303,86,55,0
44.97825,45.056026,89,53,0
45.057,45.134777,100,55,0
45.13283,45.210613,95,56,0
45.212555,45.290333,98,57,0
45.28839,45.36617,89,58,0
45.36617,45.443947,93,57,0
45.442974,45.520756,89,57,0
45.524643,45.60242,91,56,0
45.598534,45.67631,83,56,0
45.677284,45.755062,81,55,0
45.75798,45.835793,77,55,0
45.836784,45.916023,79,55,0
45.91503,45.994274,71,59,0
45.994274,46.073513,88,59,0
46.07252,46.15176,79,59,0
46.150772,46.23001,86,59,0
46.232983,46.31222,77,59,0
46.308258,46.387497,83,59,0
46.39146,46.4707,79,59,0
46.466736,46.545975,84,59,0
46.545975,46.625217,76,59,0
46.627197,46.706436,87,59,0
46.708416,46.787655,84,59,0
46.782703,46.861942,88,59,0
46.861942,46.94118,79,59,0
46.944153,47.02339,90,59,0
47.022404,47.101643,88,55,0
47.099663,47.1789,91,59,0
47.17989,47.259132,84,55,0
47.263092,47.34233,94,59,0
47.33837,47.41761,91,51,0
47.41662,47.495857,95,58,0
47.495857,47.575096,88,55,0
47.58005,47.65929,96,59,0
47.654335,47.733578,91,58,0
47.733578,47.812817,97,61,0
47.812817,47.892056,88,59,0
47.894035,47.973274,98,64,0
47.976246,48.055485,91,62,0
48.052513,48.131752,99,69,0
48.131752,48.210995,88,67,0
48.21401,48.29446,100,89,0
48.29446,48.374912,95,64,0
48.3729,48.45335,99,75,0
48.45536,48.535812,91,64,0
48.534805,48.615257,98,73,0
48.613247,48.693695,95,64,0
48.69269,48.770218,97,61,0
48.76925,48.846737,91,59,0
48.849644,48.92713,96,61,0
48.92907,49.006557,91,59,0
49.003654,49.081142,95,61,0
49.080173,49.157665,88,59,0
49.15961,49.23797,94,69,0
49.23601,49.31437,91,64,0
49.317307,49.395664,93,69,0
49.396645,49.475002,88,64,0
49.47206,49.55042,92,69,0
49.55336,49.63163,88,64,0
49.62682,49.702972,91,69,0
49.70773,49.78383,84,59,0
49.781925,49.85802,90,61,0
49.858974,49.93507,84,59,0
49.93412,50.010216,89,61,0
50.007362,50.08346,79,59,0
50.08441,50.16303,88,69,0
50.164013,50.24266,83,64,0
50.240692,50.31934,87,69,0
50.321304,50.399952,79,64,0
50.397987,50.476635,86,69,0
50.479584,50.558285,83,64,0
50.56036,50.643326,85,61,0
50.63814,50.721107,79,59,0
50.725254,50.808224,84,61,0
50.807186,50.890152,79,59,0
50.89119,50.974155,83,61,0
50.974155,51.056965,76,59,0
51.056007,51.132664,82,69,0
51.13362,51.21028,79,64,0
51.206448,51.283104,81,69,0
51.286938,51.363598,76,64,0
51.363598,51.440254,80,69,0
51.440254,51.51691,76,64,0
51.513077,51.589737,79,69,0
51.59453,51.671185,71,59,0
51.66927,51.745926,78,61,0
51.746883,51.823544,71,59,0
51.81971,51.896366,77,61,0
51.899242,51.97593,67,59,0
51.9779,52.056847,76,59,0
52.051914,52.13086,71,55,0
52.131844,52.21079,75,59,0
52.209805,52.28875,67,55,0
52.293682,52.372627,74,59,0
52.370655,52.44958,71,55,0
52.447628,52.525135,73,59,0
52.529007,52.6065,67,55,0
52.603592,52.68108,72,59,0
52.683018,52.760506,67,55,0
52.757603,52.83509,71,59,0
52.83412,52.911613,64,55,0
52.91258,52.99151,70,59,0
52.99348,53.072426,67,55,0
53.0744,53.153347,69,59,0
53.14841,53.227356,64,55,0
53.232292,53.311237,68,59,0
53.308277,53.387222,64,55,0
53.385246,53.461163,67,59,0
53.464954,53.540794,60,55,0
53.53795,53.61379,66,59,0
53.61758,53.693417,60,55,0
53.69247,53.768307,65,59,0
53.769257,53.8452,55,55,0
53.8413,53.919914,64,55,0
53.920895,53.999542,59,50,0
53.997578,54.076225,63,53,0
54.08016,54.158806,55,47,0
54.154873,54.23352,62,50,0
54.235485,54.314133,59,46,0
54.31315,54.395107,61,49,0
54.399208,54.48121,55,45,0
54.476086,54.558086,60,47,0
54.55911,54.64111,55,45,0
54.64111,54.723114,59,46,0
54.723114,54.805115,52,42,0
54.80409,54.881973,58,45,0
54.884888,54.96267,55,45,0
54.96461,55.04239,57,47,0
55.04239,55.12017,47,45,0
55.11628,55.194057,56,47,0
55.196976,55.274754,52,46,0
55.27378,55.351562,55,49,0
55.351562,55.42934,47,46,0
55.431286,55.509064,54,49,0
55.506145,55.583923,52,46,0
55.58684,55.66462,55,50,0
55.662674,55.74049,48,50,0
55.737537,55.818207,59,59,0
55.821236,55.901978,54,59,0
55.901978,55.98272,57,59,0
55.981712,56.062454,60,59,0
56.065483,56.146225,71,59,0
56.144207,56.224915,66,59,0
56.224915,56.30298,69,62,0
56.30298,56.381042,72,66,0
56.37909,56.457153,83,67,0
56.45813,56.536194,78,69,0
56.536194,56.614258,81,69,0
56.61231,56.690372,72,69,0
56.694275,56.77234,81,68,0
56.769413,56.847477,76,67,0
56.8465,56.924564,79,66,0
56.926514,57.004578,72,62,0
57.005554,57.08362,69,61,0
57.080692,57.158756,64,60,0
57.159733,57.238667,67,58,0
57.23768,57.316624,60,58,0
57.319584,57.39853,57,58,0
57.397545,57.47649,52,58,0
57.477474,57.55642,55,58,0
57.557407,57.636383,48,58,0
57.63438,57.71451,59,59,0
57.71652,57.79665,54,59,0
57.794647,57.874783,57,59,0
57.87779,57.957924,60,59,0
57.95592,58.036053,71,59,0
58.03405,58.114185,66,59,0
58.118324,58.201935,69,64,0
58.201935,58.285545,72,66,0
58.28241,58.366024,83,67,0
58.369026,58.44916,78,68,0
58.445156,58.52529,81,69,0
58.529297,58.609432,71,70,0
58.60743,58.687565,81,70,0
58.68656,58.766697,76,69,0
58.767696,58.84783,79,68,0
58.848835,58.92897,71,67,0
58.92496,59.005096,69,66,0
59.0061,59.086235,64,64,0
59.086235,59.16461,67,59,0
59.165592,59.24395,59,59,0
59.246887,59.325245,57,59,0
59.32427,59.402626,52,59,0
59.402626,59.480984,55,59,0
59.48196,59.560318,54,59,0
59.55738,59.63574,64,59,0
59.63574,59.714096,59,58,0
59.717033,59.79539,63,58,0
59.791473,59.86983,66,58,0
59.87081,59.94917,76,58,0
59.95015,60.0285,71,58,0
60.027527,60.105305,75,58,0
60.10725,60.185028,78,58,0
60.185028,60.262806,88,59,0
60.262806,60.340588,83,59,0
60.340588,60.418365,87,61,0
60.414474,60.492256,78,62,0
60.493225,60.571007,87,64,0
60.571007,60.648785,82,64,0
60.6517,60.72948,85,61,0
60.730453,60.80823,78,60,0
60.805313,60.88309,75,59,0
60.884064,60.961864,70,59,0
60.958927,61.038418,73,55,0
61.04339,61.122925,66,55,0
61.118946,61.198483,63,55,0
61.20047,61.280006,58,55,0
61.280006,61.359543,61,55,0
61.358547,61.438084,54,55,0
61.44007,61.519608,63,55,0
61.515633,61.595165,59,55,0
61.595165,61.6747,63,55,0
61.6747,61.75424,66,55,0
61.75424,61.833775,76,55,0
61.835762,61.9153,71,55,0
61.914303,61.99384,75,55,0
61.996822,62.076355,78,59,0
62.07238,62.151917,88,59,0
62.153904,62.23344,83,59,0
62.23145,62.310986,87,59,0
62.314964,62.394497,78,59,0
62.39251,62.631115,95,83,0
63.348946,63.429398,96,94,0
63.42638,63.506832,91,70,0
63.50985,63.590298,95,90,0
63.589294,63.669743,88,70,0
63.669743,63.750195,94,88,0
63.750195,63.83061,91,70,0
63.82763,63.90519,93,85,0
63.908096,63.985588,88,68,0
63.98268,64.06017,92,84,0
64.06501,64.1425,88,68,0
64.139595,64.21709,91,80,0
64.21999,64.297516,83,68,0
64.29653,64.37489,90,81,0
64.37391,64.45227,83,70,0
64.45325,64.53161,89,77,0
64.53161,64.60996,79,70,0
64.60801,64.68636,88,77,0
64.68636,64.764725,83,70,0
64.762764,64.83973,87,77,0
64.843575,64.9205,79,68,0
64.91762,64.994545,86,73,0
64.99358,65.07051,79,68,0
65.07147,65.14841,85,70,0
65.15129,65.228264,76,68,0
65.225334,65.30396,84,77,0
65.30396,65.38261,79,70,0
65.38359,65.462234,83,77,0
65.46027,65.53892,76,70,0
65.540886,65.61953,82,77,0
65.620514,65.69922,79,70,0
65.69922,65.78218,81,77,0
65.78322,65.86619,76,68,0
65.86411,65.94708,80,70,0
65.94708,66.030045,76,68,0
66.03316,66.11613,79,70,0
66.11613,66.19885,71,70,0
66.19694,66.2736,78,70,0
66.27551,66.35217,71,68,0
66.34738,66.424034,77,70,0
66.42691,66.50357,67,68,0
66.505486,66.582146,76,70,0
66.57927,66.65593,71,68,0
66.65497,66.73163,75,70,0
66.73163,66.80828,67,68,0
66.80733,66.88398,74,70,0
66.886856,66.96352,67,68,0
66.962555,67.039215,73,70,0
67.0373,67.11395,64,68,0
67.11395,67.19284,72,61,0
67.19482,67.273766,67,59,0
67.276726,67.35567,71,61,0
67.35567,67.434616,64,59,0
67.431656,67.5106,70,61,0
67.51257,67.591484,67,59,0
67.590515,67.668,69,61,0
67.66897,67.74646,64,59,0
67.74743,67.82492,68,61,0
67.82298,67.90047,64,59,0
67.90047,67.97796,67,61,0
67.97505,68.05254,59,59,0
68.05645,68.1354,66,61,0
68.13342,68.21237,59,58,0
68.213356,68.292305,65,60,0
68.292305,68.37125,55,56,0
68.37125,68.450195,64,59,0
68.45118,68.53009,59,55,0
68.53009,68.60758,63,59,0
68.605644,68.68313,54,53,0
68.68119,68.75868,62,56,0
68.75965,68.83714,55,51,0
68.83811,68.915596,61,55,0
68.91463,68.99212,53,49,0
68.995056,69.0737,60,55,0
69.07173,69.15038,55,50,0
69.153336,69.23198,59,53,0
69.227066,69.30571,53,49,0
69.30965,69.38829,58,50,0
69.38731,69.465996,55,47,0
69.46805,69.55005,57,49,0
69.545944,69.627945,50,46,0
69.63,69.712,56,49,0
69.71405,69.79605,53,46,0
69.79503,69.87703,55,49,0
69.87805,69.95989,47,45,0
69.955956,70.03378,54,49,0
70.037674,70.11545,53,46,0
70.11448,70.19226,55,53,0
70.19323,70.27101,47,50,0
70.27101,70.348785,56,56,0
70.348785,70.42657,53,55,0
70.42462,70.5024,57,59,0
70.50046,70.57823,50,56,0
70.58018,70.65796,58,61,0
70.65601,70.733795,55,59,0
70.733795,70.81157,59,64,0
70.81448,70.892296,53,64,0
70.892296,70.97124,64,69,0
70.96828,71.047226,59,69,0
71.050186,71.12913,62,69,0
71.12716,71.2061,65,69,0
71.20413,71.28307,76,69,0
71.28702,71.36592,71,69,0
71.36689,71.4441,74,66,0
71.43928,71.516495,77,67,0
71.517456,71.59467,88,69,0
71.5966,71.67381,83,70,0
71.67285,71.75006,86,72,0
71.75199,71.82921,77,73,0
71.82631,71.90353,88,77,0
71.906425,71.983635,82,73,0
71.984604,72.06181,86,72,0
72.05699,72.1342,77,71,0
72.1371,72.21432,76,69,0
72.21528,72.29252,70,69,0
72.2896,72.36794,74,64,0
72.36696,72.44532,65,64,0
72.4463,72.52466,64,64,0
72.527596,72.60595,58,64,0
72.60693,72.68529,62,64,0
72.683334,72.76169,53,64,0
72.76071,72.839066,64,69,0
72.84103,72.91938,57,69,0
72.91644,72.994804,62,69,0
72.996765,73.07512,65,69,0
73.07316,73.15152,76,69,0
73.15152,73.22987,69,69,0
73.23375,73.31097,74,68,0
73.307106,73.384315,77,68,0
73.383354,73.46056,88,69,0
73.464424,73.54164,81,70,0
73.53778,73.615,86,71,0
73.615,73.69221,77,72,0
73.69221,73.769424,88,73,0
73.771355,73.84857,80,72,0
73.84953,73.92675,86,71,0
73.92578,74.003,77,70,0
74.003,74.08021,76,69,0
74.08021,74.157425,68,69,0
74.155495,74.23411,74,64,0
74.23705,74.315704,65,64,0
74.31669,74.39533,64,64,0
74.393364,74.472015,56,64,0
74.473,74.55164,62,64,0
74.55361,74.632256,53,64,0
74.630295,74.70894,64,69,0
74.70894,74.78759,55,69,0
74.78464,74.86328,62,69,0
74.86525,74.9439,53,69,0
74.94292,75.02156,67,69,0
75.022545,75.1012,64,69,0
75.10414,75.18279,65,70,0
75.17984,75.258484,62,70,0
75.25652,75.33517,76,70,0
75.33812,75.41676,67,70,0
75.41775,75.4964,74,70,0
75.4964,75.57504,65,70,0
75.57603,75.65467,79,69,0
75.65467,75.73332,76,69,0
75.729385,75.80804,77,69,0
75.811966,75.89062,74,69,0
75.88865,75.9673,88,69,0
75.96828,76.04693,79,69,0
76.04693,76.12557,86,64,0
76.12557,76.20422,77,59,0
76.20521,76.28385,91,59,0
76.28385,76.3625,88,59,0
76.3625,76.44115,89,59,0
76.43918,76.51783,86,59,0
76.516846,76.59549,93,62,0
76.59353,76.67217,88,62,0
76.67414,76.752785,91,62,0
76.75475,76.8334,84,62,0
76.831436,76.91008,100,68,0
76.909096,76.98775,91,62,0
76.98676,77.06428,98,66,0
77.067184,77.14468,88,59,0
77.145645,77.22314,96,63,0
77.21926,77.296745,92,59,0
77.296745,77.37424,95,63,0
77.376175,77.45367,88,59,0
77.455605,77.53309,94,62,0
77.53309,77.61058,89,59,0
77.606705,77.6842,92,62,0
77.6842,77.76169,85,59,0
77.76169,77.83917,90,62,0
77.84111,77.9186,85,59,0
77.916664,77.994156,89,62,0
77.99899,78.076485,80,59,0
78.07455,78.15204,87,62,0
78.14913,78.22662,80,59,0
78.23146,78.30895,85,62,0
78.307014,78.38452,77,59,0
78.38354,78.46248,85,59,0
78.46051,78.53945,78,59,0
78.54044,78.619385,84,59,0
78.62038,78.69932,76,59,0
78.7003,78.77925,79,59,0
78.780235,78.85915,72,59,0
78.85523,78.933044,80,55,0
78.936935,79.01471,76,55,0
79.01082,79.0886,78,55,0
79.091515,79.1693,72,55,0
79.1693,79.24708,79,55,0
79.249016,79.3268,76,55,0
79.32388,79.40166,81,55,0
79.40069,79.47847,71,55,0
79.47847,79.556244,78,55,0
79.55916,79.63694,77,55,0
79.634995,79.712776,79,55,0
79.712776,79.79055,71,55,0
79.79154,79.87078,83,55,0
79.86781,79.94705,77,53,0
79.952,80.03124,88,53,0
80.03025,80.10949,79,53,0
80.10553,80.18477,86,53,0
80.18675,80.26599,77,53,0
80.26797,80.347206,86,55,0
80.3482,80.42744,79,46,0
80.426445,80.50569,84,55,0
80.5047,80.58394,76,46,0
80.58394,80.66318,81,55,0
80.66515,80.7444,76,47,0
80.74341,80.82265,79,55,0
80.81967,80.89891,72,47,0
80.900894,80.98013,77,55,0
80.97815,81.05739,72,47,0
81.05937,81.13861,76,55,0
81.1396,81.21884,67,47,0
81.21587,81.29511,81,55,0
81.2971,81.37678,76,49,0
81.37578,81.455765,79,55,0
81.45878,81.53924,72,49,0
81.53823,81.61914,77,55,0
81.61914,81.70038,72,47,0
81.699356,81.78104,76,55,0
81.780014,81.861694,67,49,0
81.86374,81.945724,81,55,0
81.945724,82.03976,76,47,0
82.04093,82.13496,79,55,0
82.13026,82.22429,72,47,0
82.225464,82.70765,79,82,0
82.225464,82.70765,76,69,0
82.70765,83.05635,67,69,0
82.70765,83.05635,79,82,0
82.70765,83.05635,76,69,0
83.05635,83.17274,79,77,0
83.05635,83.17274,67,63,0
83.05635,83.17274,76,63,0
83.17274,83.64249,76,69,0
83.17274,83.64249,79,82,0
83.17274,83.64249,67,69,0
83.64249,84.09952,81,85,0
83.64249,84.09952,69,72,0
83.64249,84.09952,76,72,0
84.09952,84.57216,76,69,0
84.09952,84.57216,67,69,0
84.09952,84.57216,79,82,0
84.57216,85.068855,76,77,0
84.57216,85.068855,67,63,0
84.57216,85.068855,73,63,0
85.068855,85.98875,76,63,0
85.068855,85.98875,79,77,0
85.068855,85.98875,67,63,0
85.98875,86.47093,82,82,0
85.98875,86.47093,79,69,0
86.47093,86.81963,82,82,0
86.47093,86.81963,79,69,0
86.47093,86.81963,70,69,0
86.81963,86.93602,82,77,0
86.81963,86.93602,79,63,0
86.81963,86.93602,70,63,0
86.93602,87.40577,79,69,0
86.93602,87.40577,70,69,0
86.93602,87.40577,82,82,0
87.40577,87.8628,79,72,0
87.40577,87.8628,84,85,0
87.40577,87.8628,72,72,0
87.8628,88.33544,82,82,0
87.8628,88.33544,79,69,0
87.8628,88.33544,70,69,0
88.33544,88.83214,76,68,0
88.33544,88.83214,70,68,0
88.33544,88.83214,79,81,0
88.83214,89.792564,82,84,0
88.83214,89.792564,70,70,0
88.83214,89.792564,79,70,0
89.79454,89.87378,96,67,0
89.87477,89.95401,87,58,0
89.94906,90.0283,94,61,0
90.03028,90.10952,85,58,0
90.10952,90.18876,92,61,0
90.19074,90.26993,87,58,0
90.268,90.345215,91,56,0
90.345215,90.422424,85,52,0
90.424355,90.50157,89,56,0
90.49867,90.57589,85,52,0
90.57782,90.65504,87,56,0
90.65214,90.729355,79,52,0
90.73418,90.81139,89,61,0
90.81139,90.88861,84,58,0
90.88861,90.96582,87,61,0
90.961,91.03821,80,58,0
91.04014,91.117355,85,61,0
91.11832,91.19553,80,58,0
91.1965,91.27371,84,61,0
91.27371,91.35093,75,52,0
91.34803,91.42525,82,56,0
91.42911,91.50632,75,52,0
91.505356,91.58257,80,56,0
91.57967,91.65689,72,52,0
91.65884,91.73749,84,61,0
91.734535,91.81318,75,58,0
91.81613,91.894775,82,61,0
91.89576,91.97441,73,58,0
91.97441,92.053055,81,61,0
92.049126,92.12777,75,58,0
92.13165,92.20831,82,56,0
92.20735,92.28401,73,52,0
92.28593,92.36259,85,56,0
92.36259,92.43924,75,52,0
92.438286,92.514946,79,56,0
92.51207,92.58872,73,52,0
92.58968,92.66634,82,61,0
92.66634,92.743,75,58,0
92.74108,92.81774,80,61,0
92.82062,92.89727,72,58,0
92.8944,92.971054,79,61,0
92.97489,93.05161,75,58,0
93.05161,93.13085,80,61,0
93.12788,93.207115,72,52,0
93.20613,93.28537,82,56,0
93.28537,93.36461,75,52,0
93.36857,93.44781,80,56,0
93.44385,93.52309,72,52,0
93.52506,93.6043,92,50,0
93.606285,93.685524,83,48,0
93.685524,93.76476,90,50,0
93.76279,93.842026,81,48,0
93.84499,93.92423,88,50,0
93.92226,94.00147,83,48,0
93.99951,94.07731,87,48,0
94.07828,94.15606,81,44,0
94.15897,94.236755,85,48,0
94.231895,94.30967,81,44,0
94.30967,94.38745,83,48,0
94.38745,94.46523,78,44,0
94.46523,94.54301,88,50,0
94.54787,94.62565,80,48,0
94.62176,94.69954,87,50,0
94.70051,94.77829,76,48,0
94.780235,94.85801,85,50,0
94.854126,94.9319,80,48,0
94.93579,95.013565,83,50,0
95.01065,95.08843,76,44,0
95.09232,95.1701,81,48,0
95.16621,95.24399,76,44,0
95.24399,95.32177,80,48,0
95.32177,95.39954,71,44,0
95.39954,95.47877,80,50,0
95.48273,95.561966,75,48,0
95.561966,95.641205,78,50,0
95.641205,95.72044,69,48,0
95.72044,95.79968,77,50,0
95.79771,95.87694,75,48,0
95.87397,95.95264,78,48,0
95.95362,96.032265,69,44,0
96.032265,96.110916,81,48,0
96.11189,96.190544,71,44,0
96.190544,96.26919,75,48,0
96.2682,96.346855,69,44,0
96.350784,96.429436,78,48,0
96.42747,96.50612,71,44,0
96.50612,96.58476,77,45,0
96.58673,96.665375,68,42,0
96.66341,96.74206,76,44,0
96.74304,96.82176,71,41,0
96.822784,96.904465,75,44,0
96.904465,96.986145,68,41,0
96.986145,97.067825,74,42,0
97.067825,97.149506,71,40,0
97.144394,97.226074,73,42,0
97.22812,97.3098,68,40,0
97.30878,97.388336,73,62,0
97.388336,97.46787,68,59,0
97.47185,97.551384,71,59,0
97.55039,97.62993,62,59,0
97.62993,97.709465,73,60,0
97.70549,97.78502,68,61,0
97.78799,97.86635,71,62,0
97.867325,97.94569,74,64,0
97.94569,98.02404,85,67,0
98.02404,98.1024,80,68,0
98.09848,98.17684,83,69,0
98.180756,98.25916,86,70,0
98.25716,98.33729,97,72,0
98.338295,98.41843,92,73,0
98.42043,98.500565,95,71,0
98.500565,98.5807,86,71,0
98.57569,98.65583,85,71,0
98.659836,98.73992,80,71,0
98.73797,98.81632,83,71,0
98.81436,98.89272,74,69,0
98.8937,98.97206,73,69,0
98.97304,99.05139,68,69,0
99.04944,99.12779,71,69,0
99.13269,99.21108,62,69,0
99.2091,99.28834,74,69,0
99.28636,99.3656,67,69,0
99.36857,99.44781,72,69,0
99.4488,99.52804,60,69,0
99.52408,99.60332,77,69,0
99.602325,99.681564,72,69,0
99.685524,99.76477,75,69,0
99.761795,99.841034,67,61,0
99.84302,99.92226,80,61,0
99.92325,100.00249,75,61,0
100.00348,100.08272,79,61,0
100.07875,100.15799,72,61,0
100.15998,100.24012,84,61,0
100.24212,100.32226,79,61,0
100.32226,100.40239,83,61,0
100.40039,100.48052,75,61,0
100.47852,100.558655,82,61,0
100.56166,100.64175,79,61,0
100.63979,100.71815,81,61,0
100.71815,100.79651,76,62,0
100.79455,100.8729,80,64,0
100.87585,100.9542,76,67,0
100.953224,101.03158,79,68,0
101.02962,101.10798,72,69,0
101.108955,101.18848,77,66,0
101.19245,101.27199,72,59,0
101.26801,101.34755,75,59,0
101.351524,101.43106,66,59,0
101.426094,101.50562,77,60,0
101.5106,101.59009,72,61,0
101.59009,101.66845,75,62,0
101.665504,101.743866,78,64,0
101.74288,101.82124,89,67,0
101.823204,101.90156,84,69,0
101.90156,101.97992,87,70,0
101.97992,102.0583,90,72,0
102.0573,102.13743,101,70,0
102.13543,102.21556,96,61,0
102.22057,102.300705,99,69,0
102.2957,102.37583,90,69,0
102.37683,102.45697,89,69,0
102.45697,102.5371,84,69,0
102.54006,102.61842,87,69,0
102.61744,102.6958,78,69,0
102.697754,102.776115,77,69,0
102.774155,102.852516,72,69,0
102.85349,102.931854,75,69,0
102.92989,103.00825,66,69,0
103.01023,103.08947,78,69,0
103.08947,103.16871,71,69,0
103.16475,103.24399,76,69,0
103.246956,103.326195,64,69,0
103.32323,103.402466,81,69,0
103.402466,103.481705,76,69,0
103.485664,103.5649,79,69,0
103.56293,103.642166,71,61,0
103.645134,103.72437,84,61,0
103.721405,103.800644,79,61,0
103.80263,103.88187,83,61,0
103.8779,103.95714,76,61,0
103.96012,104.04026,88,66,0
104.037254,104.117386,83,66,0
104.12139,104.20153,87,67,0
104.20253,104.28267,79,68,0
104.28066,104.360794,86,69,0
104.3618,104.44189,83,69,0
104.43893,104.51731,85,70,0
104.52025,104.5986,79,71,0
104.597626,104.67598,84,72,0
104.67598,104.75434,79,73,0
104.75238,104.83074,83,73,0
104.834656,104.91307,76,75,0
104.91007,104.98985,82,68,0
104.991844,105.071625,76,64,0
105.069626,105.14941,81,69,0
105.14741,105.22719,70,64,0
105.22918,105.30896,80,69,0
105.30996,105.38975,76,64,0
105.38873,105.469505,79,69,0
105.469505,105.55027,70,64,0
105.548256,105.62902,81,69,0
105.630035,105.7108,76,64,0
105.71282,105.79359,79,69,0
105.79561,105.87634,70,64,0
105.87335,105.953125,79,69,0
105.956116,106.0359,72,64,0
106.032906,106.11268,78,69,0
106.11368,106.19345,69,64,0
106.19046,106.27024,77,69,0
106.27522,106.35503,72,64,0
106.35503,106.43547,78,69,0
106.43246,106.5129,69,64,0
106.51491,106.59535,79,69,0
106.59234,106.67278,71,64,0
106.67479,106.75523,78,69,0
106.75423,106.83467,69,64,0
106.83567,106.91545,78,69,0
106.91245,106.99223,71,64,0
106.994225,107.074005,77,69,0
107.073006,107.15279,67,64,0
107.15677,107.23655,76,69,0
107.23655,107.31632,71,64,0
107.31632,107.3961,76,69,0
107.394104,107.473885,67,64,0
107.473885,107.55366,77,69,0
107.55067,107.63045,69,64,0
107.63244,107.71222,76,69,0
107.71122,107.79099,67,64,0
107.79199,107.87177,76,69,0
107.869774,107.949554,69,64,0
107.95454,108.03432,73,69,0
108.03033,108.1101,65,64,0
108.1131,108.19287,74,69,0
108.19387,108.27364,69,64,0
108.27165,108.351425,74,69,0
108.349434,108.42921,64,64,0
108.42921,108.50899,71,69,0
108.51098,108.59076,69,64,0
108.59275,108.67253,72,69,0
108.66854,108.748314,64,64,0
108.748314,108.82905,72,70,0
108.83208,108.91282,69,70,0
108.913826,108.99457,71,70,0
108.99053,109.07127,65,70,0
109.07127,109.152016,72,70,0
109.15303,109.23377,69,70,0
109.236694,109.31476,71,70,0
109.31281,109.39088,77,71,0
109.38795,109.46601,84,72,0
109.470894,109.54896,81,73,0
109.544075,109.62214,83,75,0
109.62507,109.70313,89,77,0
109.70118,109.77924,96,77,0
109.77924,109.85731,93,77,0
109.85633,109.934395,95,75,0
109.93537,110.013435,89,73,0
110.01441,110.092476,84,73,0
110.095406,110.17353,81,72,0
110.16859,110.24837,83,70,0
110.24837,110.3282,77,70,0
110.33019,110.41002,72,70,0
110.40903,110.48885,69,70,0
110.490845,110.57067,71,70,0
110.56968,110.649506,65,70,0
110.649506,110.73025,71,70,0
110.73328,110.81402,66,70,0
110.812,110.89274,69,70,0
110.890724,110.971466,60,70,0
110.97247,111.053215,71,70,0
111.053215,111.13396,66,70,0
111.13689,111.21495,69,70,0
111.213,111.29106,72,71,0
111.293015,111.37108,83,72,0
111.3701,111.448166,78,73,0
111.448166,111.52623,81,75,0
111.52525,111.60332,84,77,0
111.60527,111.683334,95,79,0
111.679436,111.7575,90,78,0
111.7614,111.83946,93,77,0
111.83556,111.91363,84,75,0
111.91753,111.99559,83,72,0
111.99461,112.07268,78,71,0
112.06878,112.14684,81,70,0
112.15074,112.228806,72,70,0
112.22686,112.304924,71,70,0
112.30395,112.38201,66,70,0
112.381035,112.4591,69,70,0
112.4591,112.53716,60,70,0
112.539116,112.61894,69,59,0
112.62193,112.70176,64,59,0
112.69677,112.776596,68,59,0
112.776596,112.85643,71,60,0
112.85742,112.937256,81,60,0
112.94025,113.02005,76,61,0
113.02005,113.099,80,62,0
113.099,113.17794,83,62,0
113.176956,113.2559,93,63,0
113.25393,113.33287,88,63,0
113.33583,113.41478,92,64,0
113.415764,113.49471,83,63,0
113.49471,113.573654,92,63,0
113.56971,113.64865,86,63,0
113.64964,113.728584,90,63,0
113.72661,113.80556,83,63,0
113.80556,113.88451,80,62,0
113.88451,113.96345,74,62,0
113.96542,114.044365,78,62,0
114.04634,114.12528,71,61,0
114.123314,114.202255,68,61,0
114.20127,114.28021,62,61,0
114.28021,114.35916,66,61,0
114.35916,114.43811,59,61,0
114.441086,114.52092,66,60,0
114.51692,114.596756,61,59,0
114.596756,114.67658,64,59,0
114.67957,114.7594,68,60,0
114.7584,114.838234,78,60,0
114.840225,114.92003,73,61,0
114.91606,114.99503,76,62,0
114.99996,115.07891,80,66,0
115.073975,115.15292,90,66,0
115.15292,115.231865,85,66,0
115.23286,115.3118,88,66,0
115.31476,115.39371,80,66,0
115.39075,115.46969,88,66,0
115.471664,115.550606,83,64,0
115.54962,115.62856,86,64,0
115.629555,115.708496,78,63,0
115.708496,115.787445,76,63,0
115.78942,115.86836,71,62,0
115.86836,115.94731,74,62,0
115.94731,116.02625,66,67,0
116.02132,116.100266,64,64,0
116.100266,116.17921,59,62,0
116.18217,116.261116,62,62,0
116.2621,116.34111,54,61,0
116.342125,116.4235,61,71,0
116.41841,116.49979,56,66,0
116.504875,116.58625,59,71,0
116.58523,116.6666,53,67,0
116.664566,116.74594,64,71,0
116.74696,116.828316,59,68,0
116.829315,116.90914,62,71,0
116.90714,116.98697,56,66,0
116.98598,117.0658,67,71,0
117.06979,117.14962,62,68,0
117.14962,117.22945,65,71,0
117.22845,117.308304,59,68,0
117.30729,117.38803,69,71,0
117.38602,117.46676,65,71,0
117.46575,117.54649,68,71,0
117.5475,117.62824,62,71,0
117.630264,117.711006,72,71,0
117.71,117.79074,68,71,0
117.79074,117.86968,71,71,0
117.8687,117.94764,65,71,0
117.94863,118.02757,76,71,0
118.02955,118.10849,71,71,0
118.10948,118.18842,74,71,0
118.18744,118.26641,68,71,0
118.26742,118.34755,79,71,0
118.343544,118.423676,74,71,0
118.42568,118.50581,77,73,0
118.503815,118.58395,71,75,0
118.58795,118.66809,81,77,0
118.665085,118.74522,77,77,0
118.74422,118.82715,80,77,0
118.82922,118.912186,74,78,0
118.912186,118.995155,84,78,0
118.99412,119.07709,80,78,0
119.07709,119.16005,83,79,0
119.15902,119.24198,77,79,0
119.24198,119.319824,88,77,0
119.319824,119.397606,83,77,0
119.4015,119.47927,86,77,0
119.4783,119.556076,80,77,0
119.556076,119.63386,91,77,0
119.63289,119.71066,86,77,0
119.71164,119.78941,89,75,0
119.7865,119.86427,83,77,0
119.867195,119.94497,93,79,0
119.941086,120.01886,89,80,0
120.02275,120.10053,92,82,0
120.1015,120.17929,86,84,0
120.17636,120.27004,101,97,0
120.25248,120.34615,95,88,0
120.33249,120.42617,100,94,0
120.40861,120.50228,92,85,0
120.49155,120.58522,99,94,0
120.56766,120.66134,95,85,0
120.64572,120.7394,98,90,0
120.723785,120.81747,92,85,0
120.80185,120.89553,97,89,0
120.88089,120.97457,92,84,0
120.95798,121.05166,96,89,0
121.03702,121.1307,89,84,0
121.11508,121.20876,95,89,0
121.19412,121.2878,89,84,0
121.26731,121.360985,94,89,0
121.34732,121.441,86,84,0
121.42734,121.52102,93,89,0
121.5015,121.59518,89,82,0
121.58151,121.67519,92,88,0
121.65763,121.751305,83,82,0
121.73862,121.8323,91,88,0
121.814735,121.90841,86,82,0
121.89182,121.9855,90,88,0
121.97086,122.06454,80,82,0
122.052826,122.14651,89,88,0
122.12894,122.22262,83,82,0
122.207,122.30068,88,88,0
122.28214,122.37582,80,82,0
122.36215,122.45583,87,88,0
122.443146,122.53683,83,82,0
122.52121,122.61489,86,88,0
122.596344,122.690025,79,82,0
122.67344,122.76711,85,88,0
122.7515,122.84518,79,82,0
122.82859,122.922264,84,88,0
122.98667,123.10377,83,103,0
122.91153,123.14572,77,81,0
123.925385,124.019066,95,103,0
124.004425,124.09811,89,85,0
124.07859,124.172264,94,99,0
124.16055,124.254234,86,85,0
124.235695,124.32937,93,90,0
124.31668,124.41036,89,85,0
124.39279,124.48647,92,90,0
124.46891,124.562584,86,85,0
124.546974,124.64065,91,89,0
124.626015,124.71969,86,85,0
124.705055,124.79873,90,89,0
124.781166,124.87484,83,84,0
124.85923,124.9529,89,89,0
124.93632,125.02999,83,84,0
125.01438,125.108055,88,89,0
125.096344,125.190025,80,84,0
125.175385,125.269066,87,89,0
125.25247,125.34615,83,82,0
125.330536,125.42422,86,88,0
125.4047,125.498375,77,82,0
125.48472,125.57839,85,88,0
125.56376,125.65743,80,82,0
125.64377,125.73745,84,88,0
125.71793,125.81161,74,84,0
125.79795,125.891624,83,88,0
125.87698,125.970665,77,84,0
125.956024,126.049706,82,88,0
126.03409,126.12777,74,82,0
126.111176,126.20486,81,88,0
126.18827,126.281944,77,84,0
126.26438,126.358055,80,86,0
126.345375,126.43905,74,82,0
126.41953,126.51321,79,85,0
126.50053,126.5942,74,81,0
126.57957,126.67324,78,85,0
126.65568,126.73179,71,81,0
126.73374,126.85084,74,90,0
126.736664,126.85376,68,90,0
126.73179,126.87231,77,100,0
127.67051,127.74857,77,60,0
127.74857,127.82664,74,55,0
127.82664,127.9047,76,60,0
127.9047,128.13889,68,60,0
128.60727,128.68533,77,60,0
128.68533,128.7634,74,53,0
128.7634,128.84146,76,60,0
128.84146,129.07565,68,60,0
129.54404,129.6221,77,51,0
129.6221,129.70016,74,51,0
129.70016,129.77823,76,51,0
129.7792,129.85727,68,52,0
129.85922,129.93729,77,52,0
129.93436,130.01242,74,53,0
130.01242,130.09048,76,53,0
130.09341,130.17148,68,53,0
130.16953,130.24759,77,55,0
130.24661,130.32468,74,55,0
130.32565,130.40372,76,56,0
130.4047,130.48276,68,56,0
130.47887,130.55693,77,57,0
130.55693,130.635,74,57,0
130.63597,130.71404,76,57,0
130.71306,130.79112,68,58,0
130.7921,130.87016,77,58,0
130.87112,130.94919,74,59,0
130.95016,131.02823,76,59,0
131.02629,131.10435,68,60,0
131.10338,131.18144,77,60,0
131.18436,131.26242,74,60,0
131.2595,131.33757,76,61,0
131.33855,131.41661,68,61,0
131.41953,131.49759,77,62,0
131.49565,131.57372,74,62,0
131.57663,131.6547,76,62,0
131.6508,131.72887,68,63,0
131.72789,131.80595,77,63,0
131.80887,131.88693,74,64,0
131.885,131.96306,76,64,0
131.96208,132.04015,68,66,0
132.04306,132.12112,77,66,0
132.1221,132.20016,74,66,0
132.19627,132.27434,76,67,0
132.2792,132.35727,68,67,0
132.35435,132.43242,77,68,0
132.43533,132.5134,74,68,0
132.51144,132.58951,76,69,0
132.58757,132.66563,68,69,0
132.66563,132.7437,77,69,0
132.74467,132.82274,74,70,0
132.82176,132.89983,76,70,0
132.9008,132.97887,68,71,0
132.9808,133.05887,77,71,0
133.05984,133.13791,74,72,0
133.135,133.21306,76,72,0
133.21306,133.29112,68,72,0
133.29306,133.37112,77,73,0
133.37112,133.44919,74,73,0
133.4453,133.52336,76,74,0
133.52336,133.60143,68,74,0
133.60532,133.68338,77,74,0
133.68436,133.76242,74,75,0
133.76048,133.83855,76,75,0
133.83757,133.91563,80,77,0
133.91563,133.9937,89,77,0
133.99174,134.06981,86,78,0
134.07176,134.14983,88,78,0
134.14885,134.22691,92,78,0
134.22789,134.30566,101,79,0
134.30858,134.38637,98,79,0
134.38246,134.46053,100,80,0
134.46053,134.53874,92,80,0
134.53775,134.61612,101,81,0
134.61807,134.69672,98,81,0
134.69574,134.77454,100,81,0
134.77454,134.85347,92,82,0
134.85347,134.93271,101,82,0
134.93271,135.0121,98,83,0
135.01309,135.09262,100,83,0
135.09064,135.17046,92,84,0
135.17046,135.25089,101,97,0
135.25592,135.33636,96,81,0
135.33134,135.41179,100,90,0
135.41682,135.49727,93,73,0
135.49425,135.5747,99,93,0
135.57773,135.65807,96,73,0
135.65515,135.73265,98,83,0
135.73167,135.80916,93,67,0
135.81207,135.88956,97,79,0
135.89053,135.96802,93,67,0
135.96512,136.0426,96,78,0
136.0426,136.12009,88,67,0
136.12206,136.20041,95,79,0
136.19746,136.27583,88,73,0
136.27681,136.35516,94,79,0
136.35614,136.4345,84,73,0
136.43549,136.51384,93,79,0
136.51384,136.59213,88,73,0
136.59213,136.66824,92,79,0
136.66634,136.74243,84,67,0
136.74434,136.82043,91,71,0
136.81949,136.89558,84,67,0
136.89368,136.96977,90,71,0
136.97072,137.04683,81,67,0
137.04492,137.1235,89,79,0
137.12842,137.20706,84,73,0
137.20609,137.28473,88,79,0
137.28276,137.36142,81,73,0
137.36043,137.43907,87,79,0
137.43907,137.51773,84,73,0
137.51773,137.60063,86,79,0
137.5996,137.68257,81,67,0
137.68776,137.77072,85,71,0
137.76657,137.84953,81,67,0
137.85057,137.93355,84,71,0
137.93147,138.01443,76,67,0
138.01938,138.09604,83,71,0
138.09413,138.17078,76,67,0
138.17174,138.2484,82,71,0
138.24553,138.32217,72,67,0
138.32314,138.3998,81,71,0
138.40172,138.47838,76,67,0
138.47646,138.55312,80,71,0
138.55408,138.63072,72,67,0
138.63168,138.70834,79,71,0
138.70547,138.78212,72,67,0
138.78212,138.85878,78,71,0
138.86261,138.93936,69,67,0
138.93837,139.01732,77,53,0
139.01436,139.0933,72,49,0
139.09724,139.1762,76,53,0
139.17126,139.25021,69,49,0
139.25415,139.3331,75,53,0
139.32915,139.4081,72,49,0
139.4081,139.48563,74,53,0
139.48563,139.56311,69,49,0
139.56602,139.64351,73,53,0
139.64351,139.721,69,49,0
139.721,139.7985,72,53,0
139.79655,139.87404,64,49,0
139.87308,139.95198,71,53,0
139.95297,140.0319,64,49,0
140.03093,140.10986,70,51,0
140.11185,140.1908,60,48,0
140.18881,140.26776,69,50,0
140.26875,140.34769,64,45,0
140.35057,140.4264,68,49,0
140.42546,140.5013,60,44,0
140.4994,140.57524,67,47,0
140.57904,140.65488,60,44,0
140.65488,140.73071,66,45,0
140.72597,140.80182,57,45,0
140.80276,140.88138,65,45,0
140.88432,140.96297,60,42,0
140.961,141.03966,64,45,0
141.03867,141.11731,57,42,0
141.1183,141.19695,63,44,0
141.19792,141.27661,60,40,0
141.27765,141.35965,62,42,0
141.35861,141.44061,57,39,0
141.43755,141.51955,61,42,0
141.52365,141.60565,57,39,0
141.60461,141.68661,60,40,0
141.68355,141.76555,52,38,0
141.76857,141.84634,59,40,0
141.8483,141.92607,52,39,0
141.9251,142.00288,58,45,0
142.00093,142.0787,48,42,0
142.0787,142.1565,57,47,0
142.15941,142.23718,52,45,0
142.23524,142.31302,56,50,0
142.31204,142.38983,48,48,0
142.39275,142.47052,57,53,0
142.46858,142.54636,52,50,0
142.54344,142.62122,60,56,0
142.62413,142.70195,53,53,0
142.69899,142.77966,64,57,0
142.78067,142.86142,59,57,0
142.86343,142.94418,62,57,0
142.94519,143.02592,65,57,0
143.02391,143.10466,76,57,0
143.10768,143.1883,71,57,0
143.18733,143.26454,74,59,0
143.26262,143.33983,77,60,0
143.33983,143.41704,88,61,0
143.41704,143.49425,83,62,0
143.49522,143.57243,86,64,0
143.57147,143.64868,77,66,0
143.64964,143.72687,86,67,0
143.72687,143.80408,81,64,0
143.80312,143.88033,84,61,0
143.88322,143.96043,77,59,0
143.95657,144.03378,74,59,0
144.03282,144.11003,69,57,0
144.11003,144.18893,72,55,0
144.18893,144.26788,65,55,0
144.26888,144.34782,62,55,0
144.34782,144.42676,57,55,0
144.42775,144.5067,60,55,0
144.50867,144.58762,53,55,0
144.58565,144.66458,64,57,0
144.66261,144.74156,59,57,0
144.74452,144.82346,62,57,0
144.82544,144.90439,65,57,0
144.9034,144.98235,76,57,0
144.97939,145.05832,71,57,0
145.06221,145.13942,74,60,0
145.13556,145.21277,77,60,0
145.2118,145.28903,88,61,0
145.29192,145.36914,83,64,0
145.36624,145.44345,86,64,0
145.44827,145.5255,76,66,0
145.52356,145.60077,86,66,0
145.59981,145.67703,81,64,0
145.6751,145.7523,84,61,0
145.75328,145.83049,76,59,0
145.83435,145.91156,74,58,0
145.90964,145.98686,69,56,0
145.98395,146.06229,72,56,0
146.06229,146.14064,64,56,0
146.14357,146.22194,62,56,0
146.22389,146.30225,57,56,0
146.3003,146.37865,60,56,0
146.3767,146.45505,59,56,0
146.45602,146.5344,69,57,0
146.53732,146.61568,64,55,0
146.61078,146.68915,68,55,0
146.6911,146.76945,71,55,0
146.77043,146.8488,81,55,0
146.84782,146.92618,76,55,0
146.9252,147.00298,80,55,0
147.00493,147.0827,83,55,0
147.08076,147.15854,93,56,0
147.15854,147.23631,88,57,0
147.23827,147.31604,92,59,0
147.31798,147.39577,83,59,0
147.39285,147.47063,92,59,0
147.46965,147.54742,87,59,0
147.55035,147.62813,90,59,0
147.62617,147.70396,83,58,0
147.70493,147.78271,80,57,0
147.78174,147.85951,75,56,0
147.8625,147.94203,78,51,0
147.93707,148.0166,71,51,0
148.01958,148.09912,68,51,0
148.09613,148.17567,63,51,0
148.17667,148.2562,66,51,0
148.2552,148.33475,59,51,0
148.33475,148.41428,69,51,0
148.41826,148.49779,64,51,0
148.49779,148.57733,68,51,0
148.57533,148.65488,71,51,0
148.65488,148.7344,81,51,0
148.7354,148.81494,76,51,0
148.81395,148.89348,80,51,0
148.89447,148.97401,83,57,0
148.97102,149.05057,93,57,0
149.05453,149.13408,88,57,0
149.13208,149.21162,92,57,0
149.2146,149.29414,83,57,0
149.29115,149.52977,100,76,0
150.24658,150.32704,101,99,0
150.32906,150.4095,96,67,0
150.40648,150.48694,100,89,0
150.48895,150.5694,93,67,0
150.56839,150.64883,99,82,0
150.64784,150.72829,96,67,0
150.73022,150.80771,98,79,0
150.80869,150.88617,93,62,0
150.88133,150.95882,97,77,0
150.96269,151.04018,93,62,0
151.03824,151.11574,96,77,0
151.11476,151.19226,88,62,0
151.19518,151.27354,95,74,0
151.27354,151.3519,88,67,0
151.34895,151.42732,94,75,0
151.42928,151.50763,84,67,0
151.50568,151.58403,93,75,0
151.58305,151.6614,88,67,0
151.66527,151.74136,92,73,0
151.73947,151.81557,84,62,0
151.8146,151.89072,91,70,0
151.89072,151.96681,84,62,0
151.9687,152.04482,90,67,0
152.04291,152.119,81,62,0
152.119,152.19762,89,70,0
152.19762,152.27626,84,67,0
152.27823,152.35687,88,70,0
152.35786,152.43651,81,67,0
152.43651,152.51515,87,70,0
152.51418,152.59288,84,67,0
152.58987,152.67273,86,70,0
152.67377,152.75673,81,62,0
152.76088,152.84386,85,67,0
152.8397,152.92267,81,62,0
152.92267,153.00563,84,67,0
153.0046,153.08757,76,62,0
153.08965,153.16629,83,67,0
153.16534,153.24199,76,62,0
153.24583,153.3225,82,67,0
153.31865,153.39531,72,62,0
153.39531,153.47197,81,67,0
153.47389,153.55054,76,62,0
153.5515,153.62816,80,67,0
153.6272,153.70386,72,62,0
153.70193,153.7786,79,67,0
153.78148,153.85814,72,62,0
153.85622,153.93288,78,67,0
153.93478,154.0115,69,62,0
154.00761,154.0865,77,53,0
154.09045,154.1694,72,49,0
154.16841,154.24736,76,53,0
154.2444,154.32333,69,49,0
154.32729,154.40623,75,53,0
154.40425,154.4832,72,49,0
154.48418,154.56166,74,53,0
154.5636,154.64108,69,49,0
154.63914,154.71664,73,53,0
154.71567,154.79317,69,49,0
154.79123,154.86871,72,53,0
154.87259,154.95012,64,49,0
154.94913,155.02808,71,53,0
155.02708,155.10603,64,49,0
155.10701,155.18596,70,51,0
155.18695,155.2659,60,48,0
155.26195,155.3409,69,50,0
155.3409,155.41983,64,45,0
155.42278,155.50002,68,49,0
155.50099,155.57823,60,44,0
155.57533,155.65257,67,47,0
155.65547,155.73271,60,44,0
155.73369,155.81093,66,45,0
155.80997,155.88724,57,42,0
155.88431,155.96294,65,45,0
155.9649,156.04355,60,42,0
156.04257,156.12122,64,45,0
156.11925,156.19789,57,42,0
156.19986,156.27852,63,44,0
156.27655,156.3552,60,40,0
156.3592,156.44121,62,42,0
156.4371,156.5191,57,39,0
156.52321,156.60521,61,42,0
156.60521,156.68721,57,39,0
156.68721,156.76921,60,40,0
156.77023,156.85208,52,38,0
156.8511,156.9289,59,40,0
156.92792,157.00569,53,39,0
157.00375,157.08153,57,45,0
157.08055,157.15834,48,42,0
157.1593,157.23709,56,47,0
157.24,157.31778,53,45,0
157.31876,157.39653,57,50,0
157.39362,157.47139,48,48,0
157.47043,157.5482,59,53,0
157.55112,157.62889,52,50,0
157.62793,157.7057,60,56,0
157.70473,157.7825,48,53,0
157.7825,157.86145,60,57,0
157.86441,157.94336,53,57,0
157.9404,158.0154,59,57,0
158.02231,158.10126,59,57,0
158.0973,158.17625,72,57,0
158.17822,158.25714,65,57,0
158.25618,158.32857,71,56,0
158.33339,158.41061,71,57,0
158.4135,158.49072,84,58,0
158.48782,158.56503,77,59,0
158.56503,158.63742,83,59,0
158.64226,158.71947,83,60,0
158.72043,158.79764,96,61,0
158.79861,158.87582,90,61,0
158.87196,158.94917,95,60,0
158.95207,159.02928,83,59,0
159.02736,159.10457,84,59,0
159.10457,159.18178,78,58,0
159.18475,159.26457,83,56,0
159.26556,159.3454,71,56,0
159.3444,159.42422,72,56,0
159.42523,159.50505,66,56,0
159.50305,159.58289,71,56,0
159.58488,159.66466,59,56,0
159.66466,159.74332,74,59,0
159.74135,159.81999,67,59,0
159.81902,159.89275,73,60,0
159.89766,159.9763,73,61,0
159.97433,160.05298,86,61,0
160.05692,160.13553,77,64,0
160.1336,160.206,85,66,0
160.21082,160.28802,85,66,0
160.28899,160.36621,98,67,0
160.36717,160.44438,91,68,0
160.44438,160.5216,97,68,0
160.52257,160.59978,85,69,0
160.59496,160.67216,99,69,0
160.6741,160.75131,94,69,0
160.75227,160.8295,98,70,0
160.82852,160.90575,86,71,0
160.90575,160.98296,87,71,0
160.98488,161.06216,82,72,0
161.06117,161.14099,86,73,0
161.14,161.21982,74,73,0
161.22083,161.30064,75,75,0
161.29965,161.37949,70,78,0
161.38147,161.4613,74,78,0
161.4573,161.53714,62,79,0
161.53714,161.61757,76,78,0
161.6226,161.70305,69,72,0
161.69803,161.77847,75,78,0
161.78049,161.86093,63,72,0
161.85893,161.93938,76,78,0
161.94139,162.02184,69,72,0
162.02184,162.10019,75,81,0
162.10019,162.17856,75,75,0
162.17856,162.25691,88,86,0
162.25594,162.33429,81,79,0
162.33527,162.41362,87,86,0
162.41362,162.49199,87,80,0
162.49496,162.57451,100,86,0
162.57451,162.65404,93,80,0
162.65105,162.73059,99,86,0
162.73059,162.81012,87,81,0
162.80913,162.88867,88,86,0
162.89264,162.9721,81,81,0
162.97115,163.04892,87,86,0
163.04698,163.12476,75,80,0
163.1267,163.20448,88,86,0
163.2035,163.28128,81,86,0
163.2803,163.35129,87,86,0
163.3581,163.43587,87,80,0
163.43784,163.51648,100,86,0
163.51353,163.59218,93,80,0
163.5912,163.66985,99,86,0
163.67279,163.75143,87,86,0
163.75243,163.83107,88,86,0
163.8301,163.90878,81,80,0
163.90579,163.98865,87,82,0
163.99176,164.07472,75,78,0
164.07368,164.15665,88,82,0
164.15976,164.24274,81,82,0
164.23962,164.31636,87,82,0
164.32259,164.40555,87,78,0
164.40451,164.48125,100,80,0
164.4803,164.55695,93,68,0
164.5579,164.63457,99,70,0
164.63553,164.71219,87,62,0
164.71313,164.7898,100,66,0
164.78693,164.86359,93,60,0
164.8655,164.94215,99,62,0
164.94025,165.01689,87,58,0
165.02168,165.09834,100,59,0
165.09738,165.17404,93,53,0
165.17021,165.24687,99,55,0
165.24687,165.32353,87,49,0
165.32736,165.40402,100,60,0
165.40498,165.48163,95,55,0
165.48068,165.55733,99,61,0
165.55733,165.63399,93,56,0
165.63016,165.70682,100,62,0
165.71065,165.78731,95,56,0
165.78635,165.863,99,63,0
165.863,165.93967,93,57,0
165.94157,166.01823,100,64,0
166.01344,166.0901,95,60,0
166.0949,166.17155,99,66,0
166.17155,166.24821,93,60,0
166.24629,166.32295,100,67,0
166.32487,166.40152,95,60,0
166.39961,166.47627,99,68,0
166.47339,166.55005,93,62,0
166.55484,166.6315,100,69,0
166.62958,166.70624,95,63,0
166.70433,166.78098,99,70,0
166.78098,166.85764,93,64,0
166.85956,166.93622,100,72,0
166.93813,167.01479,95,66,0
167.01382,167.09048,99,73,0
167.09145,167.1681,93,67,0
167.16522,167.24188,100,74,0
167.24477,167.32143,95,67,0
167.3195,167.39616,99,75,0
167.39713,167.47377,93,67,0
167.46994,167.5466,100,77,0
167.55043,167.62709,95,69,0
167.62709,167.70375,99,78,0
167.70471,167.78137,93,69,0
167.78137,167.85802,100,79,0
167.85419,167.93085,95,69,0
167.92989,168.00655,99,80,0
168.0075,168.08417,93,69,0
168.08417,168.16083,100,81,0
168.16466,168.24132,95,70,0
168.24132,168.31796,99,82,0
168.31413,168.3908,93,74,0
168.3908,168.46745,100,84,0
168.47128,168.54794,95,78,0
168.54507,168.62172,99,86,0
168.62077,168.69742,93,78,0
168.70126,168.77791,100,88,0
168.77696,168.8536,95,80,0
168.8517,168.92836,99,89,0
168.92836,169.00502,93,81,0
169.00597,169.08263,101,89,0
169.08263,169.15929,96,82,0
169.16121,169.23785,100,89,0
169.23691,169.31355,93,82,0
169.31355,169.39021,98,79,0
169.3883,169.46497,93,72,0
169.46591,169.54257,96,79,0
169.5445,169.62115,88,75,0
169.61923,169.69589,95,79,0
169.69397,169.77063,88,75,0
169.77159,169.84825,93,79,0
169.84921,169.92586,84,72,0
169.92682,170.00305,89,79,0
170.00114,170.07724,84,73,0
170.07915,170.15524,88,79,0
170.15239,170.22849,81,72,0
170.22754,170.30376,86,79,0
170.30376,170.38014,81,73,0
170.38014,170.45651,84,79,0
170.45842,170.5348,76,72,0
170.53384,170.61037,83,79,0
170.61227,170.68893,76,72,0
170.69086,170.76752,81,79,0
170.76367,170.84033,72,72,0
170.84322,170.92015,77,79,0
170.91919,170.99611,72,72,0
170.99803,171.07497,76,79,0
171.07016,171.14708,69,72,0
171.14804,171.22525,74,79,0
171.22623,171.30344,69,72,0
171.30537,171.38258,72,79,0
171.38258,171.45981,64,73,0
171.45593,171.53342,71,79,0
171.53535,171.61284,64,72,0
171.61284,171.69034,69,79,0
171.69324,171.77124,60,72,0
171.76797,172.2925,64,81,0
171.76797,172.2925,59,81,0
171.76797,172.2925,71,96,0
171.76797,172.2925,69,96,0
172.2925,172.85666,71,96,0
172.2925,172.85666,68,96,0
172.2925,172.85666,62,81,0
172.2925,172.85666,64,81,0
172.2925,172.85666,76,96,0
172.85431,172.92566,93,100,0
172.93524,173.0119,88,82,0
173.0119,173.08855,92,93,0
173.0876,173.16425,84,84,0
173.16425,173.2409,91,93,0
173.23994,173.3166,88,82,0
173.3147,173.39136,90,93,0
173.39136,173.468,84,83,0
173.47185,173.5485,89,93,0
173.54466,173.62132,84,83,0
173.62228,173.69894,88,93,0
173.69894,173.7756,81,83,0
173.77464,173.8513,87,93,0
173.85417,173.93083,84,82,0
173.92891,174.00557,86,93,0
174.00844,174.0851,81,82,0
174.08414,174.1608,85,93,0
174.1608,174.23746,81,82,0
174.23938,174.31604,84,93,0
174.31412,174.39078,76,82,0
174.39174,174.46838,83,93,0
174.46744,174.5441,76,82,0
174.54121,174.61787,82,93,0
174.61884,174.6955,72,82,0
174.69453,174.7712,81,93,0
174.77502,174.85168,76,81,0
174.85263,174.92929,80,93,0
174.92738,175.00404,72,82,0
175.00212,175.07878,79,93,0
175.07974,175.15639,76,82,0
175.15448,175.23114,78,93,0
175.23401,175.31067,72,82,0
175.30875,175.3854,77,93,0
175.38733,175.46399,72,82,0
175.46303,175.53969,76,93,0
175.54063,175.6173,69,82,0
175.61826,175.69492,75,93,0
175.69492,175.77158,72,82,0
175.77158,175.84824,74,93,0
175.84727,175.92393,69,82,0
175.92105,175.99771,73,93,0
176.0025,176.07916,69,82,0
176.0782,176.15486,72,93,0
176.15103,176.22769,64,80,0
176.22864,176.3053,71,92,0
176.30626,176.38292,64,79,0
176.381,176.45766,70,90,0
176.46245,176.53911,60,79,0
176.53622,176.61288,69,89,0
176.6148,176.69147,64,77,0
176.6905,176.76717,68,88,0
176.76813,176.84477,60,77,0
176.84383,176.92047,67,86,0
176.9224,176.99905,64,75,0
176.99522,177.07188,66,85,0
177.07571,177.15237,60,74,0
177.15237,177.22902,65,84,0
177.22615,177.30281,60,73,0
177.30089,177.37755,64,81,0
177.37755,177.45421,57,72,0
177.459,177.53566,63,79,0
177.53566,177.61232,60,70,0
177.6104,177.68706,62,78,0
177.68417,177.76083,57,68,0
177.76083,177.8375,61,75,0
177.83846,177.91512,57,67,0
177.91608,177.99272,60,74,0
177.99272,178.06938,52,63,0
178.0713,178.14796,59,72,0
178.14796,178.22461,52,60,0
178.22366,178.30032,58,68,0
178.30223,178.37894,48,58,0
178.37698,178.45477,57,100,0
178.45671,178.53448,52,89,0
178.5306,178.60838,56,100,0
178.60838,178.68616,48,91,0
178.68616,178.76393,55,100,0
178.76491,178.84268,52,89,0
178.84172,178.9195,54,100,0
178.9195,178.9974,48,90,0
179.00131,179.07954,53,100,0
179.07855,179.15707,48,90,0
179.15805,179.23671,52,100,0
179.23375,179.3127,45,90,0
179.3127,179.39194,51,100,0
179.39491,179.47446,48,88,0
179.46948,179.54915,50,100,0
179.55315,179.63313,45,88,0
179.63013,179.71042,49,100,0
179.71243,179.79288,45,88,0
179.79086,179.87161,48,100,0
179.87465,179.95572,40,88,0
179.95267,180.03404,47,100,0
180.03404,180.11555,40,88,0
180.11964,180.20149,46,100,0
180.19843,180.28058,40,88,0
180.28058,180.7614,45,121,0
180.7614,181.122,64,101,0
180.7614,181.122,57,85,0
180.7614,181.122,60,85,0
180.7614,181.122,69,101,0
181.122,181.2422,69,96,0
181.122,181.2422,57,81,0
181.122,181.2422,64,96,0
181.122,181.2422,60,81,0
181.2422,181.723,69,101,0
181.2422,181.723,57,85,0
181.2422,181.723,64,101,0
181.2422,181.723,60,85,0
181.723,182.20381,69,97,0
181.723,182.20381,57,82,0
181.723,182.20381,65,97,0
181.723,182.20381,62,82,0
182.20381,183.16544,69,101,0
182.20381,183.16544,57,85,0
182.20381,183.16544,64,101,0
182.20381,183.16544,60,85,0
183.16544,184.12704,69,99,0
183.16544,184.12704,57,84,0
183.16544,184.12704,62,99,0
183.16544,184.12704,59,84,0
184.8315,184.9239,45,70,0
184.90796,184.9994,47,72,0
184.98679,185.07732,48,72,0
185.06232,185.15147,50,73,0
185.13644,185.22299,52,74,0
185.20856,185.29497,54,74,0
185.28177,185.36797,56,74,0
184.12704,185.4396,57,85,0
185.3536,185.4396,57,74,0
185.42409,185.5099,59,75,0
184.12704,185.58122,60,85,0
185.4956,185.58122,60,78,0
185.56697,185.65239,62,78,0
184.12704,185.72163,64,101,0
185.63638,185.72163,64,79,0
185.7098,185.79489,66,80,0
185.78131,185.86623,68,80,0
184.12704,185.93564,69,101,0
185.8509,185.93564,69,81,0
185.92035,186.00488,71,81,0
185.99023,186.07458,72,81,0
186.06346,186.14761,74,82,0
186.13303,186.217,76,84,0
186.20068,186.28448,78,84,0
186.27054,186.35419,80,85,0
186.34317,186.42664,81,85,0
186.41101,186.49431,83,86,0
186.4816,186.56471,84,88,0
186.54857,186.6315,86,88,0
186.61829,186.70103,88,89,0
186.68669,186.76926,90,90,0
186.75552,186.83792,92,90,0
186.82535,186.97751,93,97,0
6.56278,7.37667,48,24,0
7.37667,7.9870877,48,24,0
7.9870877,8.19056,48,22,0
8.19056,9.00445,48,25,0
9.00445,9.843259,41,24,0
9.843259,10.757475,36,24,0
10.757475,11.743506,41,22,0
11.743506,12.976805,36,20,0
12.976805,14.313703,35,18,0
14.313703,14.555055,33,112,0
14.796406,15.145108,57,74,0
14.796406,15.145108,60,74,0
14.796406,15.145108,64,88,0
15.145108,15.261342,64,82,0
15.145108,15.261342,60,70,0
15.145108,15.261342,57,70,0
15.261342,15.731488,57,74,0
15.261342,15.731488,60,74,0
15.261342,15.731488,64,88,0
15.731488,16.188074,65,92,0
15.731488,16.188074,60,77,0
15.731488,16.188074,57,77,0
16.188074,16.659958,64,88,0
16.188074,16.659958,60,74,0
16.188074,16.659958,57,74,0
16.659958,17.157759,60,82,0
16.659958,17.157759,57,70,0
16.659958,17.157759,52,70,0
17.157759,18.07765,64,82,0
17.157759,18.07765,60,70,0
17.157759,18.07765,57,70,0
18.07765,18.314487,33,99,0
18.551323,18.900024,52,69,0
18.551323,18.900024,45,58,0
18.900024,19.016258,52,61,0
18.900024,19.016258,45,50,0
19.016258,19.489931,52,70,0
19.016258,19.489931,45,60,0
19.489931,19.94496,53,62,0
19.489931,19.94496,45,52,0
19.94496,20.416843,52,63,0
19.94496,20.416843,45,55,0
20.908848,21.842192,40,68,0
20.416843,21.842192,33,60,0
21.842192,22.084421,32,99,0
22.326649,22.674112,62,77,0
22.326649,22.674112,53,66,0
22.674112,22.789934,62,73,0
22.674112,22.789934,53,61,0
22.789934,23.25322,60,77,0
22.789934,23.25322,53,66,0
23.25322,23.72689,45,84,0
23.25322,23.72689,33,70,0
23.72689,23.963728,44,86,0
23.72689,23.963728,32,73,0
24.200563,24.354992,62,66,0
24.200563,24.354992,55,77,0
24.354992,24.50942,62,60,0
24.354992,24.50942,53,72,0
24.50942,24.663849,62,61,0
24.50942,24.663849,52,73,0
24.663849,25.127132,60,66,0
24.663849,25.127132,52,77,0
25.127132,25.597279,45,81,0
25.127132,25.597279,33,68,0
25.597279,25.832352,47,77,0
25.597279,25.832352,35,66,0
26.067425,26.222982,64,70,0
26.222982,26.37854,68,66,0
26.37854,26.534098,73,70,0
26.067425,26.534098,59,60,0
26.067425,26.534098,56,60,0
26.534098,27.000769,69,70,0
26.534098,27.000769,59,60,0
26.534098,27.000769,63,60,0
26.534098,27.000769,71,70,0
27.000769,27.477982,59,77,0
27.000769,27.477982,47,66,0
27.477982,27.716589,52,77,0
27.477982,27.716589,40,66,0
27.955194,28.114265,59,56,0
27.955194,28.114265,68,67,0
28.114265,28.273336,58,49,0
28.114265,28.273336,67,58,0
28.273336,28.432407,59,55,0
28.273336,28.432407,68,63,0
28.432407,28.671015,64,72,0
28.432407,28.671015,56,63,0
28.432407,28.671015,52,63,0
29.386833,29.628185,33,100,0
29.869537,30.218239,57,70,0
29.869537,30.218239,60,70,0
29.869537,30.218239,64,84,0
30.218239,30.334473,64,79,0
30.218239,30.334473,60,67,0
30.218239,30.334473,57,67,0
30.334473,30.804619,57,70,0
30.334473,30.804619,60,70,0
30.334473,30.804619,64,84,0
30.804619,31.269554,65,88,0
30.804619,31.269554,60,74,0
30.804619,31.269554,57,74,0
31.269554,31.74144,64,84,0
31.269554,31.74144,60,70,0
31.269554,31.74144,57,70,0
31.74144,32.23924,60,79,0
31.74144,32.23924,57,67,0
31.74144,32.23924,52,67,0
32.23924,33.15913,64,79,0
32.23924,33.15913,60,67,0
32.23924,33.15913,57,67,0
33.15913,33.39597,36,80,0
33.15913,33.39597,24,70,0
33.632805,33.981506,52,69,0
33.632805,33.981506,43,58,0
33.981506,34.09774,52,61,0
33.981506,34.09774,43,50,0
34.09774,34.57141,52,70,0
34.09774,34.57141,43,60,0
34.57141,35.036346,53,62,0
34.57141,35.036346,43,52,0
35.036346,35.508232,52,58,0
35.036346,35.508232,43,49,0
35.508232,36.000237,48,58,0
36.000237,36.933582,43,49,0
36.000237,36.933582,52,58,0
35.508232,36.933582,36,55,0
36.933582,37.170418,36,74,0
37.407253,37.56168,55,61,0
37.407253,37.56168,58,55,0
37.407253,37.56168,64,55,0
37.56168,37.71611,47,62,0
37.71611,37.870537,48,63,0
37.870537,38.333824,55,58,0
37.870537,38.333824,49,69,0
37.870537,38.333824,63,58,0
37.870537,38.333824,58,58,0
38.333824,38.80397,49,72,0
38.333824,38.80397,37,60,0
38.80397,39.039043,50,77,0
38.80397,39.039043,38,66,0
39.274117,39.428543,55,63,0
39.274117,39.428543,58,55,0
39.274117,39.428543,64,55,0
39.428543,39.582973,47,63,0
39.582973,39.69879,49,63,0
39.7374,40.200684,63,58,0
39.693966,40.200684,51,70,0
39.708447,40.200684,55,70,0
39.722923,40.200684,58,58,0
40.200684,40.67257,51,72,0
40.200684,40.67257,39,60,0
40.67257,40.908512,52,80,0
40.67257,40.908512,40,80,0
41.14445,41.498367,60,88,0
41.498367,41.616337,60,79,0
41.616337,42.088223,60,88,0
42.088223,42.560104,48,63,0
42.088223,42.560104,36,55,0
42.560104,42.796047,53,70,0
42.560104,42.796047,41,58,0
43.03199,43.38069,69,74,0
43.496925,43.845627,62,70,0
43.845627,43.96186,64,67,0
43.96186,44.426796,65,70,0
43.496925,44.426796,53,70,0
43.38069,44.426796,57,67,0
44.426796,44.66363,43,77,0
44.426796,44.66363,31,77,0
44.90047,45.056026,59,70,0
45.056026,45.211582,65,63,0
45.211582,45.36714,69,63,0
44.90047,45.36714,55,70,0
45.36714,45.833813,67,70,0
45.833813,46.30925,65,68,0
45.833813,46.30925,59,68,0
45.833813,46.30925,55,68,0
46.30925,46.546967,48,72,0
46.30925,46.546967,36,72,0
46.784683,47.26012,64,63,0
46.725254,47.26012,55,55,0
46.665825,47.26012,48,55,0
48.210995,48.452343,28,90,0
48.210995,48.452343,40,90,0
48.693695,49.042397,52,66,0
48.693695,49.042397,55,66,0
48.693695,49.042397,59,77,0
49.042397,49.15863,59,72,0
49.042397,49.15863,55,60,0
49.042397,49.15863,52,60,0
49.15863,49.628777,52,66,0
49.15863,49.628777,55,66,0
49.15863,49.628777,59,77,0
49.628777,50.085365,60,80,0
49.628777,50.085365,55,67,0
49.628777,50.085365,52,67,0
50.085365,50.557247,59,77,0
50.085365,50.557247,55,66,0
50.085365,50.557247,52,66,0
50.557247,51.05505,47,60,0
50.557247,51.05505,55,72,0
50.557247,51.05505,52,60,0
51.05505,51.97494,55,60,0
51.05505,51.97494,59,72,0
51.05505,51.97494,52,60,0
51.97494,52.211777,28,74,0
52.448612,52.797314,47,69,0
52.448612,52.797314,40,58,0
52.797314,52.913548,40,50,0
52.797314,52.913548,47,61,0
52.913548,53.387222,47,70,0
52.913548,53.387222,40,60,0
53.387222,53.84225,48,62,0
53.387222,53.84225,40,52,0
53.84225,54.314133,47,63,0
53.84225,54.314133,40,55,0
54.806137,55.739483,35,58,0
54.314133,55.739483,28,55,0
55.739483,55.981712,27,70,0
56.223938,56.575226,51,77,0
56.223938,56.575226,60,77,0
56.575226,56.69232,51,73,0
56.575226,56.69232,60,73,0
56.69232,57.160706,60,77,0
56.69232,57.160706,52,77,0
57.160706,57.63438,40,77,0
57.160706,57.63438,28,66,0
57.63438,57.874783,39,67,0
57.63438,57.874783,27,67,0
58.11519,58.28241,51,77,0
58.11519,58.28241,62,77,0
58.28241,58.52629,51,72,0
58.28241,58.52629,60,72,0
58.52629,58.606426,59,73,0
58.52629,58.606426,51,73,0
58.606426,59.087234,52,77,0
58.606426,59.087234,59,77,0
59.087234,59.55738,40,79,0
59.087234,59.55738,28,67,0
59.55738,59.792454,30,69,0
59.55738,59.792454,42,69,0
60.027527,60.183083,59,70,0
60.183083,60.338642,63,66,0
60.338642,60.494198,68,70,0
60.027527,60.494198,54,60,0
60.494198,60.960873,54,60,0
60.494198,60.960873,58,60,0
60.494198,60.960873,66,70,0
60.494198,60.960873,64,70,0
60.960873,61.438084,30,66,0
60.960873,61.438084,42,77,0
61.438084,61.67669,47,77,0
61.438084,61.67669,35,66,0
61.9153,62.074368,63,67,0
61.9153,62.074368,54,56,0
62.074368,62.23344,62,58,0
62.074368,62.23344,53,49,0
62.23344,62.39251,54,55,0
62.23344,62.39251,63,63,0
62.39251,62.631115,47,65,0
62.39251,62.631115,59,76,0
62.39251,62.631115,51,65,0
63.346935,63.588287,40,90,0
63.82964,64.178345,52,66,0
63.82964,64.178345,55,66,0
63.82964,64.178345,59,77,0
64.178345,64.29458,59,72,0
64.178345,64.29458,55,60,0
64.178345,64.29458,52,60,0
64.29458,64.764725,52,66,0
64.29458,64.764725,55,66,0
64.29458,64.764725,59,77,0
64.764725,65.226295,60,80,0
64.764725,65.226295,55,67,0
64.764725,65.226295,52,67,0
65.226295,65.69818,59,77,0
65.226295,65.69818,55,66,0
65.226295,65.69818,52,66,0
65.69818,66.19598,55,72,0
65.69818,66.19598,52,60,0
65.69818,66.19598,47,60,0
66.19598,67.115875,59,72,0
66.19598,67.115875,55,60,0
66.19598,67.115875,52,60,0
67.115875,67.35271,31,62,0
67.58955,67.93825,47,69,0
67.93825,68.05448,47,61,0
68.05448,68.52815,47,70,0
68.52815,68.99309,48,62,0
68.99309,69.46497,47,73,0
67.58955,69.46497,38,58,0
69.95698,70.89032,38,66,0
69.46497,70.89032,31,69,0
70.89032,71.12716,31,75,0
71.36399,71.518425,50,70,0
71.36399,71.518425,59,82,0
71.518425,71.67285,42,73,0
71.67285,71.82728,43,79,0
71.82728,72.290565,50,70,0
71.82728,72.290565,58,82,0
71.82728,72.290565,44,82,0
72.290565,72.76071,32,86,0
72.76071,72.99578,33,81,0
73.23086,73.385284,53,67,0
73.23086,73.385284,62,80,0
73.385284,73.53971,44,73,0
73.53971,73.69414,45,79,0
73.69414,74.157425,53,70,0
73.69414,74.157425,46,82,0
73.69414,74.157425,62,82,0
73.69414,74.157425,56,70,0
74.157425,74.62931,34,94,0
74.62931,74.86525,35,90,0
75.1012,75.45511,55,96,0
75.45511,75.573074,55,86,0
75.573074,76.04496,55,96,0
76.04496,76.516846,43,55,0
76.04496,76.516846,31,55,0
76.516846,76.752785,48,60,0
76.516846,76.752785,36,60,0
76.98873,77.14371,52,57,0
77.14371,77.29868,60,57,0
77.29868,77.45367,68,57,0
77.45367,77.686134,41,57,0
77.9186,78.07358,56,57,0
77.9186,78.07358,53,48,0
78.07358,78.22856,61,57,0
78.22856,78.38354,68,57,0
78.38354,78.62038,43,68,0
78.85721,79.012764,60,62,0
78.85721,79.012764,55,52,0
79.012764,79.16833,64,57,0
79.16833,79.32388,67,57,0
79.32388,79.55722,43,62,0
79.79055,80.26599,67,57,0
79.79055,80.26599,62,57,0
79.79055,80.26599,65,57,0
79.79055,80.26599,55,57,0
80.25113,80.26599,55,60,0
80.26599,80.741425,64,60,0
80.236275,80.741425,48,60,0
82.22646,82.306915,69,66,0
82.30893,82.38938,64,61,0
82.38737,82.46782,67,66,0
82.469826,82.55028,61,61,0
82.54827,82.628716,65,66,0
82.627716,82.70765,61,61,0
82.70765,82.78513,64,66,0
82.78804,82.86553,58,61,0
82.86553,82.943016,62,66,0
82.93915,83.01663,58,61,0
83.01663,83.094124,61,66,0
83.094124,83.17175,55,61,0
83.17469,83.25305,60,66,0
83.25403,83.33239,55,61,0
83.33043,83.40878,58,66,0
83.405846,83.48421,52,61,0
83.487144,83.5655,57,66,0
83.56256,83.64058,52,61,0
83.64343,83.719536,55,66,0
83.719536,83.79563,49,61,0
83.79468,83.87077,53,61,0
83.86887,83.94497,49,57,0
83.94973,84.025826,52,61,0
84.02107,84.09755,46,57,0
84.1005,84.179146,50,61,0
84.1762,84.254845,46,61,0
84.25583,84.33447,49,66,0
84.33644,84.415085,43,61,0
84.413124,84.49177,48,66,0
84.49177,84.57112,43,61,0
84.5732,84.65616,46,66,0
84.65512,84.73809,40,57,0
84.73809,84.82106,45,61,0
84.82002,84.902985,40,57,0
84.9061,84.98907,43,61,0
84.98492,85.06693,37,57,0
85.068855,85.14551,41,61,0
85.14647,85.22313,37,57,0
85.22408,85.30074,40,61,0
85.29883,85.37548,34,57,0
85.373566,85.450226,38,61,0
85.45214,85.5288,34,57,0
85.5288,85.60545,37,61,0
85.60354,85.6802,31,57,0
85.68403,85.76069,36,61,0
85.76069,85.83735,31,57,0
85.8383,85.91496,34,61,0
85.91305,85.98975,28,57,0
85.98975,86.0702,72,66,0
86.0702,86.15065,67,61,0
86.15166,86.23211,70,66,0
86.23211,86.31256,64,61,0
86.31356,86.39401,69,66,0
86.391,86.47093,64,61,0
86.47093,86.548416,67,66,0
86.54648,86.62397,61,61,0
86.628815,86.70631,65,66,0
86.70534,86.78282,61,61,0
86.78088,86.858376,64,66,0
86.85644,86.93406,58,61,0
86.93896,87.01731,62,66,0
87.016335,87.09469,58,61,0
87.090775,87.16913,61,66,0
87.17109,87.24945,55,61,0
87.25239,87.33074,60,66,0
87.32584,87.40386,55,61,0
87.40386,87.479965,58,66,0
87.48091,87.557014,52,57,0
87.55606,87.63216,57,61,0
87.63501,87.71111,52,57,0
87.70826,87.784355,55,61,0
87.78721,87.863785,49,57,0
87.863785,87.94243,53,61,0
87.94341,88.022064,49,61,0
88.022064,88.10071,52,66,0
88.10169,88.180336,46,61,0
88.17936,88.258,50,66,0
88.25505,88.334404,46,61,0
88.33752,88.42048,49,66,0
88.4184,88.50137,43,57,0
88.504486,88.587456,48,61,0
88.58642,88.66938,43,57,0
88.66627,88.74924,46,61,0
88.74924,88.83118,40,57,0
88.83214,88.9088,45,61,0
88.90784,88.9845,40,57,0
88.98641,89.06307,43,61,0
89.06115,89.13781,37,57,0
89.14164,89.2183,41,61,0
89.21447,89.29112,37,57,0
89.29208,89.371025,40,61,0
89.37004,89.44899,34,57,0
89.448,89.52695,38,61,0
89.52793,89.6157,34,57,0
89.6146,89.702484,37,61,0
89.70688,89.79454,31,57,0
89.792564,90.03028,39,74,0
89.7995,90.03722,27,74,0
90.268,90.61546,63,64,0
90.61546,90.731285,63,61,0
90.731285,91.19457,63,66,0
90.731285,91.19457,60,55,0
90.731285,91.19457,51,55,0
91.19457,91.54203,68,64,0
91.54203,91.65785,60,61,0
91.65785,92.12974,63,61,0
92.12974,92.4747,58,64,0
92.4747,92.58968,63,61,0
92.58968,93.04963,60,61,0
92.58968,93.04963,44,50,0
91.65785,93.04963,51,50,0
93.52506,93.76279,47,48,0
93.52506,93.76279,35,48,0
94.0005,94.3505,59,53,0
94.3505,94.46717,59,50,0
94.46717,94.933846,59,55,0
94.46717,94.933846,56,46,0
94.46717,94.933846,47,46,0
94.933846,95.16718,64,53,0
95.28385,95.40052,56,50,0
95.40052,95.87595,59,50,0
95.87595,96.03325,54,50,0
96.03325,96.190544,56,42,0
96.190544,96.318344,57,48,0
95.40052,96.34784,47,42,0
96.33309,96.34784,47,38,0
96.34784,96.819725,56,45,0
96.318344,96.819725,40,38,0
97.3098,97.78701,52,70,0
97.3098,97.78701,40,70,0
97.78701,97.943726,47,70,0
97.78701,97.943726,35,58,0
97.943726,98.10044,44,66,0
97.943726,98.10044,32,55,0
98.10044,98.25716,47,74,0
98.10044,98.25716,35,62,0
98.25716,98.43746,40,79,0
98.25716,98.43746,28,67,0
98.61776,98.73797,52,77,0
98.61776,98.73797,40,66,0
98.73797,99.090576,54,84,0
98.73797,99.090576,42,70,0
99.090576,99.20811,52,79,0
99.090576,99.20811,40,67,0
99.20811,99.68355,51,86,0
99.20811,99.68355,39,73,0
99.68355,100.15898,48,74,0
99.68355,100.15898,36,62,0
100.15898,100.63979,51,82,0
100.15898,100.63979,39,69,0
100.63979,100.79651,53,77,0
100.63979,100.79651,41,66,0
100.79651,100.953224,54,70,0
100.79651,100.953224,42,58,0
100.953224,101.10994,55,74,0
100.953224,101.10994,43,62,0
101.10994,101.58715,56,77,0
101.10994,101.58715,44,66,0
101.58715,101.743866,51,79,0
101.58715,101.743866,39,67,0
101.743866,101.90058,48,70,0
101.743866,101.90058,36,58,0
101.90058,102.0573,51,74,0
101.90058,102.0573,39,62,0
102.0573,102.2376,44,79,0
102.0573,102.2376,32,67,0
102.4179,102.5381,56,77,0
102.4179,102.5381,44,66,0
102.5381,102.89072,58,84,0
102.5381,102.89072,46,70,0
102.89072,103.00825,56,79,0
102.89072,103.00825,44,67,0
103.00825,103.48369,55,86,0
103.00825,103.48369,43,73,0
103.48369,103.95912,52,74,0
103.48369,103.95912,40,62,0
103.95912,104.439926,55,82,0
103.95912,104.439926,43,69,0
104.439926,104.59664,57,77,0
104.439926,104.59664,45,66,0
104.59664,104.75336,58,79,0
104.59664,104.75336,46,67,0
104.75336,104.91007,59,82,0
104.75336,104.91007,47,69,0
104.91007,105.38873,60,90,0
104.91007,105.38873,48,75,0
105.38873,105.87335,52,82,0
105.37378,105.87335,43,63,0
105.35882,105.87335,36,63,0
105.87335,106.35201,57,89,0
105.85821,106.35201,48,68,0
105.84306,106.35201,41,67,0
106.35201,106.83467,54,82,0
106.33705,106.83467,35,60,0
106.83467,107.31333,55,90,0
106.81959,107.31333,47,63,0
106.804504,107.31333,40,62,0
107.31333,107.79199,61,82,0
107.29838,107.79199,52,56,0
107.28342,107.79199,45,55,0
107.79199,108.27065,62,89,0
107.77704,108.27065,57,66,0
107.76208,108.27065,50,62,0
108.27065,108.74931,60,82,0
108.24074,108.74931,45,55,0
108.2557,108.74931,52,55,0
108.74931,108.99154,50,94,0
108.74931,108.99154,38,80,0
109.23377,109.702156,65,90,0
109.23377,109.702156,53,77,0
109.702156,109.93635,58,88,0
109.702156,109.93635,46,74,0
110.053444,110.17054,60,93,0
110.053444,110.17054,48,79,0
110.17054,110.649506,59,89,0
110.17054,110.649506,47,74,0
110.649506,110.89173,51,94,0
110.649506,110.89173,39,80,0
111.13396,111.60235,66,90,0
111.13396,111.60235,54,77,0
111.60235,111.83654,57,88,0
111.60235,111.83654,45,74,0
111.953636,112.07073,62,93,0
111.953636,112.07073,50,79,0
112.07073,112.539116,60,89,0
112.07073,112.539116,48,74,0
112.539116,112.778595,40,62,0
113.018074,113.37333,59,80,0
113.37333,113.49175,64,77,0
113.49175,114.439095,62,77,0
112.539116,114.439095,52,62,0
114.439095,114.67857,40,61,0
114.439095,114.67857,28,61,0
114.91806,115.273315,56,80,0
115.273315,115.39173,61,77,0
115.39173,116.33907,59,77,0
116.82732,117.18654,53,79,0
117.18654,117.30628,53,77,0
117.30628,117.79074,53,77,0
117.79074,118.26441,55,80,0
118.26441,118.74522,53,79,0
118.74522,119.24302,50,79,0
119.24302,120.17636,53,77,0
116.33907,120.17636,40,74,0
120.17539,120.17636,40,82,0
120.25345,120.34713,47,70,0
120.33151,120.42519,44,79,0
120.412506,120.50619,50,68,0
120.48959,120.583275,44,74,0
120.564735,120.65841,50,68,0
120.64377,120.73745,47,74,0
120.723785,120.81747,53,66,0
120.7999,120.89358,47,74,0
120.87991,120.973595,53,67,0
120.955055,121.04873,50,74,0
121.035065,121.128746,56,66,0
121.11313,121.20681,50,74,0
121.190216,121.2839,56,66,0
121.27121,121.36489,53,74,0
121.35025,121.44393,59,66,0
121.42636,121.52004,53,73,0
121.50638,121.60006,59,63,0
121.583466,121.67715,56,73,0
121.66055,121.754234,62,63,0
121.73862,121.8323,56,72,0
121.81668,121.91036,62,63,0
121.894745,121.98843,59,72,0
121.97086,122.06454,65,63,0
122.04893,122.1426,59,72,0
122.12699,122.220665,65,64,0
122.205055,122.29873,62,72,0
122.28409,122.37777,68,63,0
122.364105,122.45779,62,72,0
122.43925,122.53292,68,63,0
122.52023,122.613914,65,72,0
122.595375,122.68905,71,63,0
122.67246,122.766136,65,72,0
122.75345,122.84713,71,63,0
122.830536,122.92422,68,72,0
122.98667,123.10377,80,88,0
122.90861,123.1428,74,63,0
123.92344,124.01711,35,82,0
124.00345,124.09713,41,67,0
124.07859,124.172264,38,79,0
124.156654,124.25033,44,67,0
124.23472,124.32839,38,79,0
124.31278,124.406456,44,67,0
124.39377,124.48745,41,74,0
124.46989,124.56356,47,67,0
124.546,124.63967,41,74,0
124.62894,124.72262,47,68,0
124.702126,124.7958,44,74,0
124.78312,124.87679,50,67,0
124.86118,124.95486,44,74,0
124.93827,125.031944,50,66,0
125.016335,125.11001,47,74,0
125.0944,125.18807,53,64,0
125.17344,125.26711,47,73,0
125.25247,125.34615,53,66,0
125.327614,125.42129,50,73,0
125.40763,125.501305,56,64,0
125.482765,125.57644,50,72,0
125.56376,125.65743,56,64,0
125.64085,125.73452,53,72,0
125.72183,125.81551,59,64,0
125.796974,125.89065,53,73,0
125.87504,125.96871,59,64,0
125.95408,126.04775,56,72,0
126.03311,126.12679,62,64,0
126.10728,126.20095,56,72,0
126.18534,126.279015,62,63,0
126.26438,126.358055,59,72,0
126.345375,126.43905,65,63,0
126.42441,126.51809,59,72,0
126.49857,126.59225,65,63,0
126.656654,126.73472,68,63,0
126.73374,126.85084,71,81,0
126.73374,126.85084,65,71,0
126.57664,126.9045,62,72,0
127.67051,127.74857,65,60,0
127.74857,127.82664,62,53,0
127.82664,127.9047,64,60,0
127.9047,128.13889,59,60,0
128.60727,128.68533,65,60,0
128.68533,128.7634,62,52,0
128.7634,128.84146,64,60,0
128.84146,129.07565,59,60,0
129.54501,129.62308,65,48,0
129.62503,129.7031,62,48,0
129.70212,129.78018,64,48,0
129.77823,129.8563,59,49,0
129.85922,129.93729,65,49,0
129.9334,130.01146,62,50,0
130.01242,130.09048,64,50,0
130.09048,130.16855,59,50,0
130.1705,130.24857,65,51,0
130.24565,130.32372,62,51,0
130.3276,130.40567,64,52,0
130.40178,130.47984,59,52,0
130.47984,130.5579,65,53,0
130.56082,130.63889,62,53,0
130.63889,130.71695,64,53,0
130.71597,130.79404,59,55,0
130.79501,130.87308,65,55,0
130.86919,130.94725,62,56,0
130.94823,131.02629,64,56,0
131.02629,131.10435,59,56,0
131.10825,131.18631,65,57,0
131.18631,131.26437,62,57,0
131.26242,131.34048,64,58,0
131.34146,131.41953,59,58,0
131.41661,131.51028,65,59,0
131.49857,131.59225,64,59,0
131.57372,131.66739,63,59,0
131.64983,131.7435,62,60,0
131.73178,131.82547,61,60,0
131.80595,131.89963,60,61,0
131.885,131.97867,59,61,0
131.96404,132.05771,58,62,0
132.04306,132.13675,57,62,0
132.12112,132.21481,56,62,0
132.19823,132.2919,55,63,0
132.27434,132.36801,54,63,0
132.35727,132.45096,53,64,0
132.43047,132.52414,52,64,0
132.50853,132.6022,51,64,0
132.59146,132.68515,50,66,0
132.66661,132.76028,49,66,0
132.74661,132.8403,48,67,0
132.82176,132.91544,47,67,0
132.89885,132.99252,46,68,0
132.97887,133.07254,45,68,0
133.05887,133.15256,44,68,0
133.13597,133.22964,43,69,0
133.215,133.30869,42,69,0
133.29404,133.3721,41,70,0
133.36821,133.44627,40,70,0
133.44725,133.52531,39,70,0
133.52823,133.6063,40,71,0
133.60143,133.67949,41,71,0
133.68436,133.76242,40,72,0
133.76048,133.83855,39,72,0
133.8366,133.91466,40,73,0
133.91368,133.99174,41,73,0
133.99272,134.07079,40,73,0
134.07079,134.14885,39,74,0
134.14885,134.22691,40,74,0
134.22691,134.30469,41,75,0
134.30858,134.38637,40,75,0
134.38441,134.46248,39,77,0
134.46346,134.54167,40,77,0
134.53874,134.6171,41,77,0
134.62004,134.69868,40,78,0
134.69868,134.7775,39,78,0
134.77847,134.85744,40,79,0
134.85744,134.93668,41,79,0
134.93668,135.01607,40,79,0
135.0121,135.09163,39,80,0
135.09064,135.17046,40,80,0
135.17245,135.4138,33,119,0
135.65515,136.00386,57,77,0
135.65515,136.00386,60,77,0
135.65515,136.00386,64,92,0
136.00386,136.12009,64,86,0
136.00386,136.12009,60,73,0
136.00386,136.12009,57,73,0
136.12009,136.59024,57,77,0
136.12009,136.59024,60,77,0
136.12009,136.59024,64,92,0
136.59024,137.04683,65,97,0
136.59024,137.04683,60,82,0
136.59024,137.04683,57,82,0
137.04683,137.5187,64,92,0
137.04683,137.5187,60,77,0
137.04683,137.5187,57,77,0
137.5187,138.01651,60,86,0
137.5187,138.01651,57,73,0
137.5187,138.01651,52,73,0
138.01651,138.9364,64,86,0
138.01651,138.9364,60,73,0
138.01651,138.9364,57,73,0
138.9364,139.17323,33,72,0
139.41006,139.75877,52,69,0
139.41006,139.75877,45,49,0
139.75877,139.87502,52,61,0
139.75877,139.87502,45,42,0
139.87502,140.34868,52,70,0
139.87502,140.34868,45,50,0
140.34868,140.80371,53,62,0
140.34868,140.80371,45,42,0
140.80371,141.27559,52,58,0
140.80371,141.27559,45,41,0
141.7676,142.70094,40,58,0
141.27559,142.70094,33,55,0
142.70094,142.94318,32,69,0
143.1854,143.53287,62,77,0
143.1854,143.53287,53,66,0
143.53287,143.64868,62,73,0
143.53287,143.64868,53,61,0
143.64868,144.11197,60,77,0
143.64868,144.11197,53,66,0
144.11197,144.58565,45,77,0
144.11197,144.58565,33,77,0
144.58565,144.82248,44,66,0
144.58565,144.82248,32,66,0
145.05931,145.21375,62,66,0
145.05931,145.21375,55,73,0
145.21375,145.36816,62,60,0
145.21375,145.36816,53,72,0
145.36816,145.5226,62,61,0
145.36816,145.5226,52,73,0
145.5226,145.98589,60,66,0
145.5226,145.98589,52,77,0
145.98589,146.45602,45,79,0
145.98589,146.45602,33,67,0
146.45602,146.6911,47,68,0
146.45602,146.6911,35,68,0
146.92618,147.08173,64,70,0
147.08173,147.23729,68,66,0
147.23729,147.39285,73,70,0
146.92618,147.39285,59,60,0
146.92618,147.39285,56,60,0
147.39285,147.85951,69,70,0
147.39285,147.85951,59,60,0
147.39285,147.85951,63,60,0
147.39285,147.85951,71,70,0
147.85951,148.33673,59,77,0
147.85951,148.33673,47,66,0
148.33673,148.57533,52,77,0
148.33673,148.57533,40,66,0
148.81395,148.97302,59,56,0
148.81395,148.97302,68,67,0
148.97302,149.13208,58,49,0
148.97302,149.13208,67,58,0
149.13208,149.29115,59,55,0
149.13208,149.29115,68,63,0
149.29115,149.52977,64,74,0
149.29115,149.52977,56,65,0
149.29115,149.52977,52,65,0
150.24559,150.48694,33,99,0
150.72829,151.077,57,70,0
150.72829,151.077,60,70,0
150.72829,151.077,64,84,0
151.077,151.19322,64,79,0
151.077,151.19322,60,67,0
151.077,151.19322,57,67,0
151.19322,151.66338,57,70,0
151.19322,151.66338,60,70,0
151.19322,151.66338,64,84,0
151.66338,152.11995,65,88,0
151.66338,152.11995,60,74,0
151.66338,152.11995,57,74,0
152.11995,152.59184,64,84,0
152.11995,152.59184,60,70,0
152.11995,152.59184,57,70,0
152.59184,153.08965,60,79,0
152.59184,153.08965,57,67,0
152.59184,153.08965,52,67,0
153.08965,154.00954,64,79,0
153.08965,154.00954,60,67,0
153.08965,154.00954,57,67,0
154.00954,154.24637,31,69,0
154.4832,154.83191,52,69,0
154.4832,154.83191,43,58,0
154.83191,154.94814,52,61,0
154.83191,154.94814,43,50,0
154.94814,155.42181,52,70,0
155.42181,155.88527,53,62,0
155.88527,156.35716,52,58,0
154.94814,156.35716,43,60,0
155.88527,156.35716,43,58,0
156.35716,156.84917,48,58,0
156.84917,157.31584,41,58,0
157.31584,157.7825,40,58,0
157.7825,158.01935,38,63,0
158.25618,158.41061,57,63,0
158.25618,158.41061,65,63,0
158.41061,158.56503,49,62,0
158.56503,158.71947,50,63,0
158.71947,159.18275,57,58,0
158.71947,159.18275,66,58,0
158.71947,159.18275,51,69,0
159.18275,159.66171,39,72,0
159.66171,159.89766,40,73,0
160.1336,160.28802,58,79,0
160.1336,160.28802,67,67,0
160.28802,160.44246,51,79,0
160.44246,160.59688,52,79,0
160.59688,161.06017,62,68,0
160.59688,161.06017,53,81,0
160.59688,161.06017,70,68,0
160.59688,161.06017,58,68,0
161.06017,161.53914,53,82,0
161.06017,161.53914,41,70,0
161.53914,161.78049,41,96,0
161.53914,161.78049,29,80,0
162.02184,162.37445,65,89,0
162.02184,162.37445,53,89,0
162.37445,162.49199,65,89,0
162.37445,162.49199,53,89,0
162.49199,162.9692,65,89,0
162.49199,162.9692,53,89,0
162.9692,163.43587,67,90,0
162.9692,163.43587,60,75,0
162.9692,163.43587,53,75,0
163.43587,163.90775,65,94,0
163.43587,163.90775,53,94,0
163.90775,164.40555,60,90,0
163.90775,164.40555,48,90,0
164.40555,165.32544,65,92,0
164.40555,165.32544,53,92,0
165.32353,165.40019,41,58,0
165.40019,165.47684,47,45,0
165.47972,165.55638,45,53,0
165.55446,165.63112,51,46,0
165.63399,165.71065,45,55,0
165.71065,165.78731,51,49,0
165.78731,165.86397,47,56,0
165.863,165.93967,53,49,0
165.93678,166.01344,47,56,0
166.0144,166.09106,53,50,0
166.0949,166.17155,51,57,0
166.16869,166.24533,57,50,0
166.24725,166.32391,51,58,0
166.32487,166.40152,57,50,0
166.40152,166.47818,53,58,0
166.47531,166.55197,59,51,0
166.55197,166.62863,53,60,0
166.63054,166.7072,59,51,0
166.7072,166.78386,57,61,0
166.78194,166.8586,63,52,0
166.86052,166.93718,57,61,0
166.9343,167.01096,63,55,0
167.01192,167.08858,59,62,0
167.08665,167.16331,65,53,0
167.16714,167.2438,59,62,0
167.24094,167.31758,65,56,0
167.31664,167.39328,63,63,0
167.39424,167.4709,69,56,0
167.47282,167.54947,63,64,0
167.55043,167.62709,69,57,0
167.62422,167.70088,65,64,0
167.70088,167.77753,71,58,0
167.77849,167.85515,65,66,0
167.85707,167.93372,71,58,0
167.93277,168.00941,69,67,0
168.00847,168.08513,75,58,0
168.088,168.16466,69,67,0
168.16083,168.23747,75,58,0
168.24132,168.31796,71,68,0
168.31606,168.39272,77,60,0
168.39272,168.46936,71,69,0
168.46841,168.54507,77,62,0
168.54698,168.62364,75,69,0
168.62364,168.7003,81,62,0
168.7003,168.77696,75,70,0
168.77504,168.8517,81,63,0
168.84978,168.92644,77,72,0
168.92932,169.00597,83,63,0
169.00406,169.23402,69,89,0
169.00406,169.23402,76,89,0
169.00502,169.23499,64,89,0
169.00597,169.23595,72,89,0
169.31451,169.39117,86,79,0
169.39021,169.46687,81,69,0
169.46497,169.54161,84,79,0
169.54066,169.61731,76,70,0
169.61827,169.69493,83,79,0
169.69589,169.77255,76,71,0
169.77446,169.85112,81,79,0
169.85112,169.92776,72,70,0
169.92682,170.00305,77,79,0
170.004,170.0801,72,70,0
170.0801,170.15619,76,79,0
170.15428,170.2304,69,70,0
170.22754,170.30376,74,79,0
170.30472,170.38109,69,72,0
170.38109,170.45747,72,79,0
170.46034,170.53671,64,70,0
170.53384,170.61037,71,79,0
170.61037,170.68701,64,71,0
170.68797,170.76463,69,79,0
170.76752,170.84418,60,71,0
170.84033,170.91727,65,79,0
170.91727,170.99419,60,71,0
170.99803,171.07497,64,79,0
171.07112,171.14804,57,71,0
171.1519,171.22913,62,79,0
171.22815,171.30537,57,71,0
171.30151,171.37872,60,79,0
171.38162,171.45883,52,71,0
171.4569,171.5344,59,79,0
171.53535,171.61284,52,70,0
171.61188,171.68936,57,79,0
171.69228,171.77016,48,70,0
171.76797,172.2925,52,86,0
171.76797,172.2925,40,73,0
172.2925,172.85666,40,86,0
172.2925,172.85666,28,73,0
172.85954,172.97452,33,101,0
172.97261,173.0876,40,77,0
173.08472,173.1997,48,77,0
173.20163,173.3166,40,77,0
173.31853,173.43352,33,88,0
173.43352,173.5485,40,77,0
173.54945,173.66444,48,77,0
173.66444,173.77943,40,77,0
173.77464,173.88962,33,97,0
173.8925,174.00749,40,77,0
174.0094,174.12439,48,77,0
174.12247,174.23746,40,77,0
174.23746,174.35245,33,89,0
174.35245,174.46744,40,77,0
174.46552,174.5805,48,77,0
174.58337,174.69836,40,77,0
174.69933,174.81432,33,101,0
174.81432,174.92929,40,77,0
174.9245,175.03949,48,77,0
175.04141,175.15639,40,77,0
175.15639,175.27138,28,101,0
175.27138,175.38637,40,77,0
175.38445,175.49944,48,77,0
175.5004,175.61539,40,77,0
175.61826,175.73325,33,96,0
175.72942,175.84439,40,77,0
175.84918,175.96417,48,77,0
175.9613,176.07628,40,77,0
176.07724,176.19223,48,83,0
176.19127,176.30626,40,73,0
176.30818,176.42316,48,71,0
176.42221,176.53719,40,70,0
176.53719,176.65218,33,78,0
176.65121,176.7662,40,68,0
176.76813,176.8831,48,67,0
176.88406,176.99905,40,66,0
176.99713,177.11212,33,72,0
177.11308,177.22807,40,63,0
177.22807,177.34305,48,62,0
177.34401,177.459,40,61,0
177.45517,177.57014,33,69,0
177.57207,177.68706,40,60,0
177.68896,177.80396,48,59,0
177.803,177.91798,40,58,0
177.91608,178.03105,33,63,0
178.03297,178.14796,40,52,0
178.147,178.262,48,51,0
178.26103,178.37602,40,50,0
178.37894,178.48782,45,89,0
178.53255,178.64143,44,84,0
178.68616,178.79504,43,88,0
178.84366,178.95255,42,89,0
179.00034,179.1099,41,83,0
179.15608,179.26631,40,84,0
179.31566,179.42673,39,89,0
179.47246,179.58408,38,84,0
179.63013,179.7426,37,84,0
179.79288,179.90605,36,89,0
179.95267,180.06659,35,83,0
180.11964,180.2343,34,83,0
180.28058,180.7614,33,104,0
180.7614,181.122,45,90,0
180.7614,181.122,40,90,0
180.7614,181.122,33,76,0
181.122,181.2422,45,86,0
181.122,181.2422,40,86,0
181.122,181.2422,33,73,0
181.2422,181.723,45,90,0
181.2422,181.723,40,90,0
181.2422,181.723,33,76,0
181.723,182.20381,45,88,0
181.723,182.20381,38,88,0
181.723,182.20381,33,74,0
182.20381,183.16544,45,90,0
182.20381,183.16544,40,90,0
182.20381,183.16544,33,76,0
183.16544,184.12704,45,88,0
183.16544,184.12704,41,88,0
183.16544,184.12704,33,74,0
184.12704,184.92453,33,76,0
184.83223,184.92453,33,68,0
184.90796,184.9994,35,68,0
184.98488,185.07545,36,69,0
185.06169,185.15088,38,69,0
184.12704,185.22359,40,90,0
185.13705,185.22359,40,70,0
185.20796,185.29436,42,72,0
185.27997,185.36618,44,72,0
184.12704,185.43663,45,90,0
185.35062,185.43663,45,73,0
185.4247,185.5105,47,73,0
185.49501,185.58063,48,74,0
185.56578,185.65121,50,74,0
185.63936,185.72458,52,74,0
185.7092,185.7943,54,75,0
185.78014,185.86505,56,75,0
185.8521,185.93681,57,78,0
185.92152,186.00606,59,78,0
185.99081,186.07516,60,79,0
186.06113,186.14528,62,80,0
186.13127,186.21524,64,80,0
186.20244,186.28622,66,81,0
186.27228,186.35593,68,81,0
186.34201,186.42548,69,81,0
186.41217,186.49545,71,81,0
186.48045,186.56355,72,82,0
186.55031,186.63322,74,84,0
186.61829,186.70103,76,84,0
186.68784,186.7704,78,85,0
186.75667,186.83907,80,85,0
186.82535,186.97751,81,93,0
