start_time,end_time,note_value,velocity,instrument_program_number
0.0,0.545455,63,88,0
0.0,0.545455,51,74,0
1.4599787,1.6099787,63,68,0
1.4599787,1.6099787,58,57,0
2.0599787,2.2195532,58,61,0
2.0599787,2.2195532,55,51,0
2.742931,3.432586,68,37,0
2.742931,3.432586,64,31,0
2.742931,3.432586,56,31,0
3.432586,3.794119,67,32,0
3.432586,3.794119,63,28,0
3.432586,3.794119,55,28,0
6.9047904,7.4762197,64,88,0
6.9047904,7.4762197,59,74,0
6.9047904,7.4762197,56,74,0
6.9047904,7.4762197,52,74,0
8.397594,8.547595,64,68,0
8.397594,8.547595,59,57,0
8.997595,9.171045,59,54,0
8.997595,9.171045,56,45,0
8.997595,9.171045,52,45,0
9.691397,10.373215,73,37,0
9.691397,10.373215,70,31,0
9.691397,10.373215,61,31,0
10.373215,10.714124,71,32,0
10.373215,10.714124,68,28,0
13.79513,14.340585,65,88,0
13.79513,14.340585,60,74,0
13.79513,14.340585,57,74,0
13.79513,14.340585,53,74,0
14.613312,14.719194,62,53,0
14.613312,14.719194,57,45,0
14.719194,14.824212,63,56,0
14.719194,14.824212,58,47,0
14.824212,14.92838,64,59,0
14.824212,14.92838,59,50,0
14.92838,15.031829,65,59,0
14.92838,15.031829,60,52,0
15.031829,15.134452,67,65,0
15.031829,15.134452,61,55,0
15.134452,15.236148,68,68,0
15.134452,15.236148,62,68,0
15.236148,15.3861475,69,76,0
15.236148,15.3861475,63,64,0
15.836147,15.994878,65,74,0
15.836147,15.994878,57,62,0
15.836147,15.994878,53,62,0
15.836147,15.994878,60,62,0
16.47107,17.155066,72,78,0
16.47107,17.155066,65,66,0
16.47107,17.155066,60,66,0
17.155066,17.444921,70,73,0
17.155066,17.444921,62,62,0
17.155066,17.444921,56,62,0
17.155066,17.444921,58,62,0
17.155066,17.444921,65,62,0
18.024632,18.131775,64,58,0
18.024632,18.131775,59,49,0
18.131775,18.237783,65,61,0
18.131775,18.237783,60,51,0
18.237783,18.342678,66,64,0
18.237783,18.342678,61,55,0
18.342678,18.446486,67,64,0
18.342678,18.446486,62,57,0
18.446486,18.549227,68,71,0
18.446486,18.549227,63,60,0
18.549227,18.65092,69,74,0
18.549227,18.65092,64,74,0
18.65092,18.800922,70,76,0
18.65092,18.800922,65,64,0
19.250921,19.405561,65,75,0
19.250921,19.405561,58,63,0
19.250921,19.405561,53,63,0
19.250921,19.405561,62,75,0
19.869478,20.536146,77,82,0
19.869478,20.536146,70,70,0
19.869478,20.536146,65,70,0
20.536146,20.811375,75,77,0
20.536146,20.811375,67,65,0
20.536146,20.811375,61,65,0
20.536146,20.811375,63,65,0
20.536146,20.811375,70,65,0
21.086605,21.222353,77,77,0
21.086605,21.222353,73,77,0
21.222353,21.35549,68,72,0
21.35549,21.487263,67,72,0
21.487263,21.617699,75,72,0
21.617699,21.746824,77,77,0
21.617699,21.746824,73,77,0
21.746824,21.874485,68,70,0
21.874485,22.001068,67,70,0
22.001068,22.126244,75,70,0
22.126244,22.252298,77,77,0
22.126244,22.252298,70,77,0
22.252298,22.379417,67,71,0
22.379417,22.507076,63,71,0
22.507076,22.635464,75,71,0
22.635464,22.765337,77,77,0
22.635464,22.765337,72,77,0
22.765337,22.894093,67,72,0
22.894093,23.021572,63,72,0
23.021572,23.147625,75,72,0
23.147625,23.273499,77,77,0
23.147625,23.273499,73,77,0
23.273499,23.400438,70,71,0
23.400438,23.528461,63,71,0
23.528461,23.657774,75,71,0
23.657774,23.788778,77,73,0
23.657774,23.788778,73,73,0
23.788778,23.919783,70,67,0
23.919783,24.050787,63,68,0
24.050787,24.181791,75,68,0
24.181791,24.312796,77,75,0
24.181791,24.312796,73,75,0
24.312796,24.4438,70,70,0
24.4438,24.574234,63,71,0
24.574234,24.70467,75,71,0
24.70467,24.835104,77,77,0
24.70467,24.835104,73,77,0
24.835104,24.965538,70,72,0
24.965538,25.095974,63,73,0
25.095974,25.22622,75,73,0
25.22622,25.35628,77,80,0
25.22622,25.35628,73,80,0
25.35628,25.487093,70,74,0
25.487093,25.618671,63,75,0
25.618671,25.751026,75,77,0
25.751026,25.884161,77,83,0
25.751026,25.884161,73,83,0
25.884161,26.017893,70,78,0
26.017893,26.152624,63,79,0
26.152624,26.287506,75,79,0
26.287506,26.426384,77,85,0
26.287506,26.426384,73,85,0
26.426384,26.574963,70,80,0
26.574963,26.734728,63,81,0
26.734728,26.90748,75,82,0
26.90748,27.488844,77,89,0
26.90748,27.488844,73,75,0
27.488844,27.632265,75,85,0
27.488844,27.632265,72,72,0
27.649311,28.333076,75,85,0
27.649311,28.333076,72,72,0
28.66641,28.833076,72,80,0
28.66641,28.833076,68,68,0
28.833076,29.009548,73,79,0
28.833076,29.009548,70,67,0
29.009548,29.184385,77,85,0
29.009548,29.184385,73,72,0
29.184385,29.267717,75,80,0
29.267717,29.351051,77,74,0
29.351051,29.494593,75,85,0
29.184385,29.494593,72,68,0
29.494593,29.673162,74,80,0
29.494593,29.673162,71,68,0
29.673162,30.353056,75,80,0
29.673162,30.353056,72,68,0
30.675636,30.842302,72,80,0
30.675636,30.842302,68,68,0
30.842302,31.011795,73,79,0
30.842302,31.011795,70,67,0
31.011795,31.178461,77,85,0
31.011795,31.178461,73,72,0
31.178461,31.261795,75,80,0
31.261795,31.345127,77,74,0
31.345127,31.487986,75,85,0
31.178461,31.487986,72,68,0
31.487986,31.65844,74,80,0
31.487986,31.65844,71,68,0
31.65844,31.741774,77,85,0
31.65844,31.825106,73,72,0
31.90844,31.991774,77,74,0
31.825106,31.991774,75,80,0
31.991774,32.143288,75,85,0
31.825106,32.143288,72,68,0
32.143288,32.3157,74,80,0
32.143288,32.3157,71,68,0
32.3157,32.58372,75,80,0
32.3157,32.58372,72,68,0
32.68507,33.051144,78,78,0
32.634396,33.051144,70,66,0
32.58372,33.051144,63,66,0
33.051144,33.408287,77,76,0
33.051144,33.408287,69,64,0
33.051144,33.408287,63,64,0
33.408287,33.76543,72,76,0
33.408287,33.76543,69,64,0
33.408287,33.76543,65,64,0
33.76543,34.12257,73,76,0
33.76543,34.12257,70,64,0
33.76543,34.12257,65,64,0
34.12257,34.243786,66,73,0
34.243786,34.364998,54,73,0
34.364998,34.48621,66,73,0
34.48621,34.83915,65,77,0
34.48621,34.83915,53,65,0
34.83915,35.12947,61,72,0
35.12947,35.226246,66,78,0
35.226246,35.775883,78,89,0
35.226246,35.775883,75,75,0
35.775883,35.9203,77,85,0
35.775883,35.9203,73,72,0
35.936344,36.620243,77,85,0
35.936344,36.620243,73,72,0
36.95358,37.120243,73,80,0
36.95358,37.120243,70,68,0
37.120243,37.296715,75,79,0
37.120243,37.296715,72,67,0
37.296715,37.47155,78,85,0
37.296715,37.47155,75,72,0
37.47155,37.554886,77,80,0
37.554886,37.638218,78,74,0
37.638218,37.781757,77,85,0
37.47155,37.781757,73,68,0
37.781757,37.96033,76,80,0
37.781757,37.96033,72,68,0
37.96033,38.642147,77,80,0
37.96033,38.642147,73,68,0
38.96473,39.140167,79,80,0
38.96473,39.140167,73,68,0
38.96473,39.140167,67,68,0
39.140167,39.32435,80,79,0
39.140167,39.32435,68,67,0
39.32435,39.49776,84,84,0
39.32435,39.49776,72,71,0
39.49776,39.67117,75,62,0
39.49776,39.67117,79,73,0
39.67117,39.814026,84,78,0
39.67117,39.814026,72,66,0
39.899254,39.97596,82,77,0
39.899254,39.97596,70,65,0
39.98448,40.15115,82,81,0
39.98448,40.15115,70,68,0
40.15115,40.317814,72,59,0
40.15115,40.317814,75,70,0
40.317814,40.460674,82,75,0
40.317814,40.460674,70,63,0
40.5459,40.622604,80,67,0
40.5459,40.622604,68,57,0
40.631126,40.797794,80,78,0
40.631126,40.797794,68,66,0
40.797794,40.964462,70,56,0
40.797794,40.964462,75,66,0
40.964462,41.10732,80,73,0
40.964462,41.10732,68,62,0
41.192547,41.26925,79,66,0
41.192547,41.26925,67,56,0
41.27777,41.44444,79,75,0
41.27777,41.44444,67,63,0
41.44444,41.611107,70,55,0
41.44444,41.611107,74,65,0
41.611107,41.753963,79,71,0
41.611107,41.753963,67,60,0
41.83919,41.915894,77,68,0
41.83919,41.915894,65,57,0
41.92442,42.091084,77,73,0
41.92442,42.091084,65,61,0
42.091084,42.25775,67,54,0
42.091084,42.25775,70,63,0
42.25775,42.400608,77,69,0
42.25775,42.400608,65,58,0
42.485836,42.571064,75,63,0
42.485836,42.571064,63,54,0
42.571064,42.73773,73,75,0
42.571064,42.73773,61,63,0
42.73773,42.904396,65,54,0
42.73773,42.904396,68,63,0
42.904396,43.047253,73,70,0
42.904396,43.047253,61,59,0
43.13248,43.21771,72,62,0
43.13248,43.21771,60,53,0
43.21771,43.886787,65,63,0
43.886787,43.96846,67,54,0
43.96846,44.04811,68,55,0
44.04811,44.12597,67,55,0
44.12597,44.201984,68,56,0
44.201984,44.36503,65,56,0
44.36503,44.527927,67,57,0
44.527927,44.60814,68,58,0
44.60814,44.686954,70,59,0
44.686954,44.764275,68,59,0
44.764275,44.84029,70,60,0
44.84029,45.003334,67,60,0
45.003334,45.166378,68,61,0
45.166378,45.329456,69,60,0
45.329456,45.497093,70,56,0
45.166378,45.497093,67,42,0
45.166378,45.497093,61,42,0
45.497093,45.658417,72,56,0
45.658417,45.83083,73,56,0
45.497093,45.83083,67,39,0
45.497093,45.83083,61,39,0
45.83083,46.156918,72,60,0
45.83083,46.156918,68,50,0
45.83083,46.156918,60,50,0
46.156918,46.40148,77,68,0
46.156918,46.40148,65,57,0
46.156918,46.40148,59,57,0
46.156918,46.40148,62,57,0
46.156918,46.40148,68,57,0
46.40148,46.474854,75,62,0
46.40148,46.474854,60,52,0
46.40148,46.474854,63,52,0
46.40148,46.474854,68,52,0
46.483006,46.64605,75,69,0
46.483006,46.64605,60,58,0
46.483006,46.64605,63,58,0
46.483006,46.64605,68,58,0
46.809093,46.97763,80,76,0
46.64605,46.97763,68,64,0
47.0619,47.14617,79,70,0
47.0619,47.14617,67,59,0
47.14617,47.82522,77,70,0
47.14617,47.82522,65,59,0
47.82522,47.98654,67,64,0
47.98654,48.038628,79,65,0
48.038628,48.08991,80,66,0
48.08991,48.140415,79,65,0
48.140415,48.30346,77,66,0
48.140415,48.30346,65,56,0
48.30346,48.466354,79,67,0
48.30346,48.466354,67,56,0
48.466354,48.625385,68,64,0
48.625385,48.677063,80,65,0
48.677063,48.728214,82,65,0
48.728214,48.77872,80,65,0
48.77872,48.941765,79,71,0
48.77872,48.941765,67,60,0
48.941765,49.10481,80,72,0
48.941765,49.10481,68,61,0
49.10481,49.267887,81,75,0
49.10481,49.267887,75,63,0
49.10481,49.267887,69,57,0
49.267887,49.43459,82,70,0
49.267887,49.43459,70,63,0
49.43459,49.59679,84,70,0
49.43459,49.59679,79,59,0
49.43459,49.59679,72,59,0
49.59679,49.76632,85,70,0
49.59679,49.76632,73,59,0
49.76632,49.93677,84,75,0
49.76632,49.93677,80,63,0
49.76632,49.93677,72,63,0
50.107227,50.368397,89,76,0
50.107227,50.368397,80,64,0
50.107227,50.368397,77,64,0
50.368397,50.44828,87,69,0
50.368397,50.44828,80,58,0
50.368397,50.44828,75,58,0
50.457157,50.62957,87,77,0
50.457157,50.62957,80,65,0
50.457157,50.62957,75,65,0
50.715775,50.801983,75,60,0
50.715775,50.801983,87,60,0
50.801983,51.051983,85,76,0
50.801983,51.051983,81,64,0
50.801983,51.051983,73,64,0
51.051983,51.135315,84,70,0
51.051983,51.135315,72,59,0
51.135315,51.309734,82,76,0
51.135315,51.309734,70,64,0
51.484154,51.73696,70,70,0
51.484154,51.73696,66,59,0
51.484154,51.73696,58,59,0
51.73696,51.82123,72,70,0
51.73696,51.82123,60,59,0
51.82123,52.170128,73,74,0
51.82123,52.170128,65,62,0
51.82123,52.170128,61,62,0
52.170128,52.421524,73,72,0
52.170128,52.421524,61,61,0
52.170128,52.421524,63,61,0
52.170128,52.421524,66,61,0
52.421524,52.50532,72,69,0
52.421524,52.50532,60,58,0
52.50532,52.8562,70,75,0
52.50532,52.8562,65,63,0
52.50532,52.8562,58,63,0
52.8562,53.107597,68,72,0
52.8562,53.107597,56,61,0
52.8562,53.107597,58,61,0
52.8562,53.107597,63,61,0
53.107597,53.191395,66,68,0
53.107597,53.191395,54,57,0
53.191395,53.36287,65,71,0
53.191395,53.36287,61,60,0
53.191395,53.36287,53,60,0
53.536278,53.62249,45,59,0
53.62249,53.707718,46,59,0
53.707718,53.792786,48,60,0
53.792786,53.87753,49,61,0
53.87753,53.9618,51,61,0
53.9618,54.045757,53,62,0
54.045757,54.129555,55,63,0
54.129555,54.213043,57,63,0
54.213043,54.296223,58,64,0
54.296223,54.379097,60,65,0
54.379097,54.461514,61,65,0
54.461514,54.54393,63,66,0
54.54393,54.6259,65,67,0
54.6259,54.70757,67,67,0
54.70757,54.788944,69,68,0
54.788944,54.870026,70,68,0
54.870026,54.950962,72,69,0
54.950962,55.031605,73,70,0
55.031605,55.11182,75,70,0
55.11182,55.19175,77,71,0
55.19175,55.271397,79,72,0
55.271397,55.35076,81,72,0
55.35076,55.527233,70,77,0
55.35076,55.527233,82,77,0
55.615467,55.7037,84,71,0
55.7037,55.865864,79,76,0
55.7037,55.865864,82,76,0
55.7037,55.865864,73,64,0
55.865864,56.028027,72,60,0
55.865864,56.028027,78,71,0
55.865864,56.028027,81,71,0
56.028027,56.380966,82,75,0
56.028027,56.380966,79,75,0
56.028027,56.380966,73,63,0
56.380966,56.721878,84,71,0
56.380966,56.721878,79,71,0
56.380966,56.721878,72,60,0
56.721878,57.06086,80,73,0
56.721878,57.06086,72,62,0
56.721878,57.06086,68,62,0
57.06086,57.41589,75,71,0
57.06086,57.41589,68,60,0
57.06086,57.41589,63,60,0
57.41589,57.760715,77,77,0
57.41589,57.760715,68,65,0
57.41589,57.760715,65,65,0
57.760715,58.12,80,72,0
57.760715,58.12,72,61,0
57.760715,58.12,68,61,0
58.12,58.470875,73,81,0
58.12,58.470875,61,69,0
58.12,58.470875,65,69,0
58.12,58.470875,70,81,0
58.470875,58.863033,77,78,0
58.470875,58.863033,65,66,0
58.470875,58.863033,68,66,0
58.470875,58.863033,73,78,0
58.863033,59.276825,70,87,0
58.863033,59.276825,58,74,0
58.863033,59.276825,63,74,0
58.863033,59.276825,68,87,0
59.276825,59.753014,75,82,0
59.276825,59.753014,67,69,0
59.276825,59.753014,61,69,0
59.276825,59.753014,63,69,0
59.276825,59.753014,70,82,0
59.753014,60.34433,89,97,0
59.753014,60.34433,85,82,0
59.753014,60.34433,77,82,0
60.34433,60.488747,87,93,0
60.34433,60.488747,84,79,0
60.34433,60.488747,75,79,0
60.767952,60.85567,63,71,0
60.50479,60.85567,75,79,0
60.50479,60.85567,84,79,0
60.50479,60.85567,87,93,0
60.85567,60.92385,63,71,0
60.92385,60.992035,65,71,0
60.992035,61.060215,63,71,0
61.060215,61.128395,62,71,0
61.128395,61.19658,63,71,0
61.19658,61.363247,68,87,0
61.52991,61.69658,84,88,0
61.52991,61.69658,80,74,0
61.52991,61.69658,72,74,0
61.69658,61.87305,85,86,0
61.69658,61.87305,82,73,0
61.69658,61.87305,73,73,0
61.87305,62.047886,89,93,0
61.87305,62.047886,85,79,0
61.87305,62.047886,77,79,0
62.131218,62.20622,87,88,0
62.131218,62.20622,84,74,0
62.131218,62.20622,75,74,0
62.214554,62.358093,87,93,0
62.214554,62.358093,84,74,0
62.214554,62.358093,75,74,0
62.358093,62.536663,86,88,0
62.358093,62.536663,83,74,0
62.358093,62.536663,74,74,0
62.804523,62.893806,63,70,0
62.536663,62.893806,75,74,0
62.536663,62.893806,84,74,0
62.536663,62.893806,87,88,0
62.893806,62.96199,63,70,0
62.96199,63.03017,65,70,0
63.03017,63.098354,63,70,0
63.098354,63.166534,62,70,0
63.166534,63.23472,63,70,0
63.23472,63.396008,68,87,0
63.557297,63.723965,80,74,0
63.557297,63.723965,72,74,0
63.557297,63.723965,84,88,0
63.723965,63.893456,82,73,0
63.723965,63.893456,73,73,0
63.723965,63.893456,85,86,0
63.893456,64.06012,77,79,0
63.893456,64.06012,89,93,0
63.893456,64.06012,85,79,0
64.06012,64.143456,87,88,0
64.143456,64.22679,89,81,0
64.22679,64.369644,87,93,0
64.06012,64.369644,84,74,0
64.06012,64.369644,75,74,0
64.369644,64.5401,74,74,0
64.369644,64.5401,86,88,0
64.369644,64.5401,83,74,0
64.5401,64.706764,77,79,0
64.5401,64.706764,89,93,0
64.5401,64.706764,85,79,0
64.706764,64.7901,87,88,0
64.7901,64.873436,89,81,0
64.873436,65.02495,87,93,0
64.706764,65.02495,75,74,0
64.706764,65.02495,84,74,0
65.02495,65.197365,86,88,0
65.02495,65.197365,83,74,0
65.02495,65.197365,74,74,0
65.197365,65.468925,87,88,0
65.197365,65.468925,84,74,0
65.197365,65.468925,75,74,0
65.57382,65.85061,90,85,0
65.52137,65.85061,82,72,0
65.468925,65.85061,75,72,0
65.939896,66.20775,89,83,0
65.85061,66.20775,75,70,0
65.89525,66.20775,81,70,0
66.297035,66.564896,84,83,0
66.16311,66.564896,72,70,0
66.20775,66.564896,75,70,0
66.252396,66.564896,77,70,0
66.654175,66.922035,85,83,0
66.609535,66.922035,77,70,0
66.564896,66.922035,70,70,0
67.01132,67.13253,78,80,0
67.13253,67.253746,66,80,0
67.253746,67.374954,78,80,0
67.374954,67.7279,77,84,0
67.374954,67.7279,65,71,0
67.7279,68.115,73,79,0
67.7279,68.115,61,74,0
68.115,68.65138,90,97,0
68.115,68.65138,87,82,0
68.115,68.65138,78,82,0
68.65138,68.79733,89,93,0
68.65138,68.79733,85,79,0
68.65138,68.79733,77,79,0
69.07366,69.16037,65,71,0
68.813545,69.16037,77,79,0
68.813545,69.16037,85,79,0
68.813545,69.16037,89,93,0
69.16037,69.228546,65,71,0
69.228546,69.29673,66,71,0
69.29673,69.364914,65,71,0
69.364914,69.43309,64,71,0
69.43309,69.501274,65,71,0
69.501274,69.667946,70,87,0
69.83461,70.001274,82,74,0
69.83461,70.001274,85,88,0
69.83461,70.001274,73,74,0
70.001274,70.17775,87,86,0
70.001274,70.17775,84,73,0
70.001274,70.17775,75,73,0
70.17775,70.352585,87,79,0
70.17775,70.352585,78,79,0
70.17775,70.352585,90,93,0
70.43591,70.51092,89,88,0
70.43591,70.51092,85,74,0
70.43591,70.51092,77,74,0
70.51925,70.66279,89,93,0
70.51925,70.66279,77,74,0
70.51925,70.66279,85,74,0
70.66279,70.84136,84,74,0
70.66279,70.84136,88,88,0
70.66279,70.84136,76,74,0
71.10922,71.1985,65,71,0
70.84136,71.1985,77,88,0
70.84136,71.1985,85,74,0
70.84136,71.1985,89,88,0
71.1985,71.266685,65,71,0
71.266685,71.33487,66,71,0
71.33487,71.40305,65,71,0
71.40305,71.47123,64,71,0
71.47123,71.53941,65,71,0
71.53941,71.86199,70,87,0
71.86199,72.03743,85,81,0
71.86199,72.03743,91,96,0
71.86199,72.03743,79,81,0
72.03743,72.22161,92,94,0
72.03743,72.22161,80,80,0
72.22161,72.39503,96,101,0
72.22161,72.39503,84,85,0
72.39503,72.568436,91,88,0
72.39503,72.568436,87,74,0
72.568436,72.71129,84,79,0
72.568436,72.71129,96,93,0
72.79652,72.87322,82,78,0
72.79652,72.87322,94,92,0
72.881744,73.048416,94,97,0
72.881744,73.048416,82,81,0
73.048416,73.21508,87,84,0
73.048416,73.21508,84,70,0
73.21508,73.35794,82,75,0
73.21508,73.35794,94,90,0
73.44316,73.51987,92,80,0
73.44316,73.51987,80,68,0
73.52839,73.69506,92,93,0
73.52839,73.69506,80,79,0
73.69506,73.861725,82,67,0
73.69506,73.861725,87,79,0
73.861725,74.004585,80,74,0
73.861725,74.004585,92,88,0
74.08981,74.16651,79,67,0
74.08981,74.16651,91,79,0
74.17503,74.341705,91,90,0
74.17503,74.341705,79,75,0
74.341705,74.50837,82,66,0
74.341705,74.50837,86,78,0
74.50837,74.65123,91,85,0
74.50837,74.65123,79,72,0
74.73646,74.813156,77,68,0
74.73646,74.813156,89,81,0
74.821686,74.98835,77,73,0
74.821686,74.98835,89,88,0
74.98835,75.155014,79,64,0
74.98835,75.155014,82,75,0
75.155014,75.297874,89,82,0
75.155014,75.297874,77,69,0
75.3831,75.46833,87,75,0
75.3831,75.46833,75,64,0
75.46833,75.634995,85,90,0
75.46833,75.634995,73,75,0
75.634995,75.80166,80,75,0
75.634995,75.80166,77,64,0
75.80166,75.94452,73,70,0
75.80166,75.94452,85,84,0
76.02975,76.114975,72,63,0
76.02975,76.114975,84,74,0
76.114975,76.78405,65,92,0
76.78405,76.86572,67,70,0
76.86572,76.94537,68,71,0
76.94537,77.02323,67,71,0
77.02323,77.09925,68,72,0
77.09925,77.26229,65,72,0
77.26229,77.42519,67,73,0
77.42519,77.50541,68,75,0
77.50541,77.58422,70,75,0
77.58422,77.66154,68,77,0
77.66154,77.73756,70,77,0
77.73756,77.9006,67,78,0
77.9006,78.063644,68,79,0
78.063644,78.23313,69,82,0
78.23313,78.402626,70,77,0
78.063644,78.402626,67,48,0
78.063644,78.402626,61,48,0
78.402626,78.56309,72,77,0
78.56309,78.735504,73,77,0
78.402626,78.735504,67,44,0
78.402626,78.735504,61,44,0
78.735504,79.06159,72,82,0
78.735504,79.06159,68,69,0
78.735504,79.06159,60,69,0
79.06159,79.30615,68,70,0
79.06159,79.30615,62,70,0
79.06159,79.30615,77,83,0
79.06159,79.30615,59,70,0
79.06159,79.30615,65,70,0
79.30615,79.379524,68,63,0
79.30615,79.379524,63,63,0
79.30615,79.379524,60,63,0
79.30615,79.379524,75,75,0
79.38767,79.55072,68,71,0
79.38767,79.55072,60,71,0
79.38767,79.55072,75,84,0
79.38767,79.55072,63,71,0
79.71376,79.8823,80,83,0
79.55072,79.8823,68,79,0
79.966576,80.05084,79,77,0
79.966576,80.05084,67,64,0
80.05084,80.72989,77,77,0
80.05084,80.72989,65,64,0
80.72989,80.89121,67,70,0
80.89121,80.9433,79,71,0
80.9433,80.99458,80,72,0
80.99458,81.04509,79,71,0
81.04509,81.20813,77,72,0
81.04509,81.20813,65,61,0
81.20813,81.371025,79,73,0
81.20813,81.371025,67,61,0
81.371025,81.53005,68,70,0
81.53005,81.58173,80,71,0
81.58173,81.63289,82,71,0
81.63289,81.683395,80,71,0
81.683395,81.846436,79,78,0
81.683395,81.846436,67,66,0
81.846436,82.009476,80,79,0
81.846436,82.009476,68,67,0
82.009476,82.17345,81,82,0
82.009476,82.17345,75,69,0
82.009476,82.17345,69,69,0
82.17345,82.34016,82,77,0
82.17345,82.34016,70,69,0
82.34016,82.50148,84,77,0
82.34016,82.50148,79,64,0
82.34016,82.50148,72,64,0
82.50148,82.67006,85,77,0
82.50148,82.67006,73,64,0
82.67006,82.84051,84,82,0
82.67006,82.84051,80,69,0
82.67006,82.84051,72,69,0
83.01096,83.27213,89,83,0
83.01096,83.27213,80,70,0
83.01096,83.27213,77,70,0
83.27213,83.35202,87,75,0
83.27213,83.35202,80,63,0
83.27213,83.35202,75,63,0
83.36089,83.53331,87,84,0
83.36089,83.53331,80,71,0
83.36089,83.53331,75,71,0
83.619514,83.70572,75,66,0
83.619514,83.70572,87,66,0
83.70572,83.95572,85,83,0
83.70572,83.95572,81,70,0
83.70572,83.95572,73,70,0
83.95572,84.039055,84,77,0
83.95572,84.039055,72,64,0
84.039055,84.21347,82,83,0
84.039055,84.21347,70,70,0
84.38789,84.6407,82,77,0
84.38789,84.6407,78,64,0
84.38789,84.6407,70,64,0
84.6407,84.72497,84,77,0
84.6407,84.72497,72,64,0
84.72497,85.07387,85,81,0
84.72497,85.07387,77,68,0
84.72497,85.07387,73,68,0
85.07387,85.325264,78,67,0
85.07387,85.325264,75,67,0
85.07387,85.325264,73,67,0
85.07387,85.325264,85,79,0
85.325264,85.40906,84,75,0
85.325264,85.40906,72,63,0
85.40906,85.75993,82,82,0
85.40906,85.75993,77,69,0
85.40906,85.75993,70,69,0
85.75993,86.01134,70,67,0
85.75993,86.01134,68,67,0
85.75993,86.01134,75,67,0
85.75993,86.01134,80,79,0
86.01134,86.09513,78,74,0
86.01134,86.09513,66,62,0
86.09513,86.2666,65,66,0
86.09513,86.2666,77,78,0
86.09513,86.2666,73,66,0
86.44002,86.524025,45,64,0
86.524025,86.60723,46,64,0
86.60723,86.69011,48,66,0
86.69011,86.77255,49,67,0
86.77255,86.854706,51,67,0
86.854706,86.936554,53,68,0
86.936554,87.018074,55,69,0
87.018074,87.09918,57,69,0
87.09918,87.18,58,70,0
87.18,87.26054,60,71,0
87.26054,87.340744,61,71,0
87.340744,87.42056,63,72,0
87.42056,87.5001,65,73,0
87.5001,87.57935,67,73,0
87.57935,87.658295,69,74,0
87.658295,87.73686,70,74,0
87.73686,87.81515,72,75,0
87.81515,87.893166,73,77,0
87.893166,87.97089,75,77,0
87.97089,88.04823,77,78,0
88.04823,88.12531,79,77,0
88.12531,88.20213,81,77,0
88.20213,88.27866,82,78,0
88.27866,88.35483,84,79,0
88.35483,88.43074,85,80,0
88.43074,88.5064,87,80,0
88.5064,88.58177,89,81,0
88.58177,88.676346,91,82,0
88.676346,88.76563,93,83,0
88.76563,88.9421,82,92,0
88.76563,88.9421,94,92,0
89.030334,89.11857,96,85,0
89.11857,89.28073,91,91,0
89.11857,89.28073,94,91,0
89.11857,89.28073,85,77,0
89.28073,89.442894,93,85,0
89.28073,89.442894,84,72,0
89.28073,89.442894,90,85,0
89.442894,89.79584,94,90,0
89.442894,89.79584,91,90,0
89.442894,89.79584,85,75,0
89.79584,90.13675,96,85,0
89.79584,90.13675,91,85,0
89.79584,90.13675,84,72,0
90.13675,90.47573,92,88,0
90.13675,90.47573,84,74,0
90.13675,90.47573,80,74,0
90.47573,90.83076,87,85,0
90.47573,90.83076,80,72,0
90.47573,90.83076,75,72,0
90.83076,91.0321,89,85,0
90.83076,91.0321,80,72,0
90.83076,91.0321,77,72,0
91.233444,91.521904,55,56,0
91.233444,91.521904,61,67,0
91.521904,91.608444,61,67,0
91.521904,91.608444,55,56,0
91.233444,92.00267,63,67,0
91.61806,92.410835,55,61,0
91.61806,92.410835,61,72,0
91.61806,92.410835,70,72,0
92.410835,92.61492,68,67,0
92.410835,92.61492,60,56,0
92.410835,92.61492,56,56,0
93.227165,93.431244,84,78,0
93.227165,93.431244,72,66,0
93.63533,93.81825,72,51,0
93.63533,93.81825,60,42,0
93.90972,94.00118,72,47,0
93.90972,94.00118,60,40,0
94.00118,94.385796,72,55,0
94.00118,94.385796,61,45,0
94.385796,94.56652,72,51,0
94.385796,94.56652,60,41,0
94.65688,94.747246,72,47,0
94.65688,94.747246,60,39,0
94.747246,95.12699,72,58,0
94.747246,95.12699,63,49,0
95.12699,95.30771,72,55,0
95.12699,95.30771,60,46,0
95.39807,95.488434,72,52,0
95.39807,95.488434,61,44,0
95.488434,95.86818,72,62,0
95.488434,95.86818,65,51,0
95.86818,96.048904,72,58,0
95.86818,96.048904,60,49,0
96.13927,96.22963,72,55,0
96.13927,96.22963,64,47,0
96.22963,96.60699,72,67,0
96.22963,96.60699,67,55,0
96.60699,96.78771,72,61,0
96.60699,96.78771,60,51,0
96.878075,96.96843,72,56,0
96.878075,96.96843,65,48,0
96.96843,97.345795,72,68,0
96.96843,97.345795,68,56,0
97.345795,97.52543,72,66,0
97.345795,97.52543,60,55,0
97.61525,97.70507,72,61,0
97.61525,97.70507,66,51,0
97.70507,98.11048,76,68,0
97.70507,98.11048,67,55,0
97.70507,98.11048,72,68,0
97.70507,98.11048,64,55,0
98.11048,98.8248,76,71,0
98.11048,98.8248,88,71,0
98.11048,98.8248,84,71,0
98.8248,98.99333,86,66,0
98.8248,98.99333,83,66,0
98.8248,98.99333,74,66,0
98.99333,99.17085,88,69,0
98.99333,99.17085,84,69,0
98.99333,99.17085,76,69,0
99.17085,99.50604,77,71,0
99.17085,99.50604,86,71,0
99.17085,99.50604,89,71,0
99.50604,99.75744,88,71,0
99.50604,99.75744,79,71,0
99.50604,99.75744,76,71,0
99.75744,99.84124,86,68,0
99.75744,99.84124,74,68,0
99.84124,100.17644,88,68,0
99.84124,100.17644,84,68,0
99.84124,100.17644,76,68,0
100.17644,100.25931,60,59,0
100.25931,100.34218,64,61,0
100.34218,100.424904,67,62,0
100.424904,100.50732,71,63,0
100.50732,100.589584,72,64,0
100.589584,100.671555,76,66,0
100.671555,100.753525,79,68,0
100.753525,100.83519,83,68,0
100.83519,100.91672,84,70,0
100.91672,100.99794,88,72,0
100.99794,101.079025,91,73,0
101.079025,101.15981,96,74,0
101.15981,101.50972,97,75,0
101.15981,101.50972,85,63,0
101.50972,101.87982,98,79,0
101.50972,101.87982,86,67,0
101.87982,102.08961,99,82,0
101.87982,102.08961,87,69,0
102.2994,102.48232,75,51,0
102.2994,102.48232,63,42,0
102.57379,102.66525,75,47,0
102.57379,102.66525,63,40,0
102.66525,103.049866,75,55,0
102.66525,103.049866,64,45,0
103.049866,103.23059,75,51,0
103.049866,103.23059,63,41,0
103.32095,103.411316,75,47,0
103.32095,103.411316,63,39,0
103.411316,103.79106,75,58,0
103.411316,103.79106,66,49,0
103.79106,103.97179,75,55,0
103.79106,103.97179,63,46,0
104.06215,104.152504,75,52,0
104.06215,104.152504,64,44,0
104.152504,104.53226,75,62,0
104.152504,104.53226,68,51,0
104.53226,104.712975,75,58,0
104.53226,104.712975,63,49,0
104.80334,104.8937,75,55,0
104.80334,104.8937,67,47,0
104.8937,105.27106,75,67,0
104.8937,105.27106,70,55,0
105.27106,105.45178,75,61,0
105.27106,105.45178,63,51,0
105.542145,105.63251,75,56,0
105.542145,105.63251,68,48,0
105.63251,106.009865,75,68,0
105.63251,106.009865,71,56,0
106.009865,106.18951,75,66,0
106.009865,106.18951,63,55,0
106.27933,106.36914,75,61,0
106.27933,106.36914,69,51,0
106.36914,106.77455,79,68,0
106.36914,106.77455,70,55,0
106.36914,106.77455,75,68,0
106.36914,106.77455,67,55,0
106.77455,107.48887,79,71,0
106.77455,107.48887,91,71,0
106.77455,107.48887,87,71,0
107.48887,107.6574,90,66,0
107.48887,107.6574,86,66,0
107.48887,107.6574,78,66,0
107.6574,107.83492,91,69,0
107.6574,107.83492,87,69,0
107.6574,107.83492,79,69,0
107.83492,108.17011,80,71,0
107.83492,108.17011,86,71,0
107.83492,108.17011,92,71,0
108.17011,108.428734,91,71,0
108.17011,108.428734,86,71,0
108.17011,108.428734,79,71,0
108.428734,108.514946,89,68,0
108.428734,108.514946,77,68,0
108.514946,108.872086,91,68,0
108.514946,108.872086,87,68,0
108.514946,108.872086,79,68,0
108.872086,109.139946,79,67,0
109.139946,109.22923,77,63,0
108.872086,109.22923,68,56,0
109.22923,109.58637,75,59,0
109.22923,109.58637,67,50,0
109.58637,109.85423,67,67,0
109.85423,109.94351,65,63,0
109.58637,109.94351,56,56,0
109.94351,110.33061,63,59,0
109.94351,110.33061,55,50,0
110.71771,112.20197,65,68,0
112.20197,112.95669,58,63,0
112.95669,114.03798,60,67,0
114.03798,114.3075,60,64,0
114.3075,114.39735,61,62,0
114.39735,114.49052,61,53,0
114.49052,114.58198,63,54,0
114.58198,114.671265,61,56,0
114.671265,114.75882,63,56,0
114.75882,114.82842,61,57,0
114.82842,114.89849,63,57,0
114.89849,114.96908,61,56,0
114.96908,115.04019,60,56,0
115.04019,115.1118,61,55,0
115.1118,116.16123,60,67,0
116.16123,116.42141,60,64,0
116.42141,116.50813,61,62,0
116.50813,116.60169,61,53,0
116.60169,116.69268,63,54,0
116.69268,116.78099,61,56,0
116.78099,116.86691,63,56,0
116.86691,116.93513,61,57,0
116.93513,117.00413,63,57,0
117.00413,117.074,61,56,0
117.074,117.14469,60,56,0
117.14469,117.216225,61,55,0
117.216225,117.57551,60,64,0
117.57551,117.74038,62,56,0
117.74038,117.91383,64,58,0
117.91383,118.262505,65,61,0
118.262505,118.61428,67,64,0
118.61428,118.78904,70,63,0
118.78904,118.96586,68,62,0
118.96586,119.14514,67,61,0
119.14514,119.235504,65,59,0
119.235504,119.28852,65,49,0
119.28852,119.34209,65,48,0
119.34209,120.792564,77,68,0
120.792564,121.51546,70,63,0
120.792564,121.51546,58,53,0
121.51546,122.57865,72,67,0
121.51546,122.57865,60,56,0
122.57865,122.84181,72,64,0
122.84181,122.88567,73,62,0
122.88567,122.929535,61,49,0
122.929535,123.023094,73,53,0
123.023094,123.11408,75,54,0
123.11408,123.20239,73,56,0
123.20239,123.28831,75,56,0
123.28831,123.35652,73,57,0
123.35652,123.42552,75,57,0
123.42552,123.49539,73,56,0
123.49539,123.566086,72,56,0
123.566086,123.63763,73,55,0
123.63763,124.695076,72,67,0
123.63763,124.695076,60,56,0
124.695076,124.95525,72,66,0
124.95525,124.99862,73,64,0
124.99862,125.04198,61,51,0
125.04198,125.135544,73,55,0
125.135544,125.22653,75,56,0
125.22653,125.31484,73,58,0
125.31484,125.40076,75,58,0
125.40076,125.46897,73,60,0
125.46897,125.53797,75,60,0
125.53797,125.60784,73,59,0
125.60784,125.678535,72,58,0
125.678535,125.74971,73,57,0
125.74971,125.83571,74,56,0
125.83571,125.92081,75,57,0
125.92081,126.00507,74,59,0
126.00507,126.08852,75,60,0
126.08852,126.15518,74,61,0
126.15518,126.22185,75,61,0
126.22185,126.28852,74,61,0
126.28852,126.35519,73,60,0
126.35519,126.42185,74,59,0
126.42185,126.50518,75,58,0
126.50518,126.58852,77,59,0
126.58852,126.67185,75,60,0
126.67185,126.75494,77,62,0
126.75494,126.837296,75,62,0
126.837296,126.91914,77,63,0
126.91914,127.00061,75,64,0
127.00061,127.08157,77,65,0
127.08157,127.16216,75,66,0
127.16216,127.24226,77,68,0
127.24226,127.32199,75,69,0
127.32199,127.402214,74,69,0
127.402214,127.45375,75,67,0
127.45375,127.5068,77,68,0
127.5068,127.56149,79,70,0
127.56149,127.61783,80,71,0
127.61783,127.67606,82,72,0
127.67606,127.73623,84,74,0
127.73623,127.79846,85,75,0
127.79846,127.86262,87,76,0
127.86262,128.42834,89,97,0
127.86262,128.42834,85,82,0
127.86262,128.42834,77,82,0
128.42834,128.56973,87,93,0
128.42834,128.56973,84,79,0
128.42834,128.56973,75,79,0
128.8486,128.93631,63,71,0
128.58543,128.93631,75,79,0
128.58543,128.93631,84,79,0
128.58543,128.93631,87,93,0
128.93631,129.00568,63,71,0
129.00568,129.07504,65,71,0
129.07504,129.14441,63,71,0
129.14441,129.21378,62,71,0
129.21378,129.28314,63,71,0
129.28314,129.4498,68,87,0
129.61647,129.78314,84,88,0
129.61647,129.78314,80,74,0
129.61647,129.78314,72,74,0
129.78314,129.95961,85,86,0
129.78314,129.95961,82,73,0
129.78314,129.95961,73,73,0
129.95961,130.13445,89,93,0
129.95961,130.13445,85,79,0
129.95961,130.13445,77,79,0
130.21777,130.29279,87,88,0
130.21777,130.29279,84,74,0
130.21777,130.29279,75,74,0
130.30112,130.44466,87,93,0
130.30112,130.44466,84,74,0
130.30112,130.44466,75,74,0
130.44466,130.62323,86,88,0
130.44466,130.62323,83,74,0
130.44466,130.62323,74,74,0
130.89108,130.98036,63,70,0
130.62323,130.98036,75,74,0
130.62323,130.98036,84,74,0
130.62323,130.98036,87,88,0
130.98036,131.04855,63,70,0
131.04855,131.11673,65,70,0
131.11673,131.1849,63,70,0
131.1849,131.2531,62,70,0
131.2531,131.32127,63,70,0
131.32127,131.48256,68,87,0
131.64386,131.81052,80,74,0
131.64386,131.81052,72,74,0
131.64386,131.81052,84,88,0
131.81052,131.98001,82,73,0
131.81052,131.98001,73,73,0
131.81052,131.98001,85,86,0
131.98001,132.14668,77,79,0
131.98001,132.14668,89,93,0
131.98001,132.14668,85,79,0
132.14668,132.23001,87,88,0
132.23001,132.31335,89,81,0
132.31335,132.4562,87,93,0
132.14668,132.4562,84,74,0
132.14668,132.4562,75,74,0
132.4562,132.62666,74,74,0
132.4562,132.62666,86,88,0
132.4562,132.62666,83,74,0
132.62666,132.79332,77,79,0
132.62666,132.79332,89,93,0
132.62666,132.79332,85,79,0
132.79332,132.87666,87,88,0
132.87666,132.95999,89,81,0
132.95999,133.11151,87,93,0
132.79332,133.11151,75,74,0
132.79332,133.11151,84,74,0
133.11151,133.28392,86,88,0
133.11151,133.28392,83,74,0
133.11151,133.28392,74,74,0
133.28392,133.55548,87,88,0
133.28392,133.55548,84,74,0
133.28392,133.55548,75,74,0
133.66039,133.93716,90,85,0
133.60793,133.93716,82,72,0
133.55548,133.93716,75,72,0
134.02646,134.29431,89,83,0
133.93716,134.29431,75,70,0
133.98181,134.29431,81,70,0
134.38359,134.65146,84,83,0
134.24966,134.65146,72,70,0
134.29431,134.65146,75,70,0
134.33896,134.65146,77,70,0
134.74074,135.00859,85,83,0
134.69609,135.00859,77,70,0
134.65146,135.00859,70,70,0
135.09789,135.21909,78,80,0
135.21909,135.3403,66,80,0
135.3403,135.46152,78,80,0
135.46152,135.81445,77,84,0
135.46152,135.81445,65,71,0
135.81445,136.20155,73,79,0
135.81445,136.20155,61,74,0
136.20155,136.73795,90,97,0
136.20155,136.73795,87,82,0
136.20155,136.73795,78,82,0
136.73795,136.88159,89,93,0
136.73795,136.88159,85,79,0
136.73795,136.88159,77,79,0
137.15767,137.24437,65,71,0
136.89755,137.24437,77,79,0
136.89755,137.24437,85,79,0
136.89755,137.24437,89,93,0
137.24437,137.31374,65,71,0
137.31374,137.3831,66,71,0
137.3831,137.45247,65,71,0
137.45247,137.52184,64,71,0
137.52184,137.59119,65,71,0
137.59119,137.92453,70,87,0
137.92453,138.09119,82,74,0
137.92453,138.09119,85,88,0
137.92453,138.09119,73,74,0
138.09119,138.26767,87,86,0
138.09119,138.26767,84,73,0
138.09119,138.26767,75,73,0
138.26767,138.4425,87,79,0
138.26767,138.4425,78,79,0
138.26767,138.4425,90,93,0
138.52583,138.60916,89,88,0
138.52583,138.60916,85,74,0
138.52583,138.60916,77,74,0
138.60916,138.7527,89,93,0
138.60916,138.7527,77,74,0
138.60916,138.7527,85,74,0
138.7527,138.93127,84,74,0
138.7527,138.93127,88,88,0
138.7527,138.93127,76,74,0
139.19914,139.28842,65,71,0
138.93127,139.28842,77,88,0
138.93127,139.28842,85,74,0
138.93127,139.28842,89,88,0
139.28842,139.3566,65,71,0
139.3566,139.42479,66,71,0
139.42479,139.49297,65,71,0
139.49297,139.56114,64,71,0
139.56114,139.62933,65,71,0
139.62933,139.9519,70,87,0
139.9519,140.12735,85,81,0
139.9519,140.12735,91,96,0
139.9519,140.12735,79,81,0
140.12735,140.31154,92,94,0
140.12735,140.31154,80,80,0
140.31154,140.48494,96,101,0
140.31154,140.48494,84,85,0
140.48494,140.65836,91,88,0
140.48494,140.65836,87,74,0
140.65836,140.80121,84,79,0
140.65836,140.80121,96,93,0
140.88644,140.96313,82,78,0
140.88644,140.96313,94,92,0
140.97166,141.13834,94,97,0
140.97166,141.13834,82,81,0
141.13834,141.305,87,84,0
141.13834,141.305,84,70,0
141.305,141.44786,82,75,0
141.305,141.44786,94,90,0
141.53308,141.60979,92,80,0
141.53308,141.60979,80,68,0
141.61832,141.78497,92,93,0
141.61832,141.78497,80,79,0
141.78497,141.95164,82,67,0
141.78497,141.95164,87,79,0
141.95164,142.0945,80,74,0
141.95164,142.0945,92,88,0
142.17973,142.25644,79,67,0
142.17973,142.25644,91,79,0
142.26495,142.43163,91,90,0
142.26495,142.43163,79,75,0
142.43163,142.59828,82,66,0
142.43163,142.59828,86,78,0
142.59828,142.74115,91,85,0
142.59828,142.74115,79,72,0
142.82637,142.90308,77,68,0
142.82637,142.90308,89,81,0
142.9116,143.07826,77,73,0
142.9116,143.07826,89,88,0
143.07826,143.24493,79,64,0
143.07826,143.24493,82,75,0
143.24493,143.38779,89,82,0
143.24493,143.38779,77,69,0
143.47302,143.55824,87,75,0
143.47302,143.55824,75,64,0
143.55824,143.72491,85,90,0
143.55824,143.72491,73,75,0
143.72491,143.89159,80,75,0
143.72491,143.89159,77,64,0
143.89159,144.03444,73,70,0
143.89159,144.03444,85,84,0
144.11966,144.2049,72,63,0
144.11966,144.2049,84,74,0
144.2049,144.87398,65,92,0
144.87398,144.95564,67,56,0
144.95564,145.0353,68,56,0
145.0353,145.11314,67,56,0
145.11314,145.18916,68,57,0
145.18916,145.35222,65,57,0
145.35222,145.5151,67,58,0
145.5151,145.59532,68,60,0
145.59532,145.67413,70,60,0
145.67413,145.75145,68,61,0
145.75145,145.82747,70,61,0
145.82747,145.99052,67,62,0
145.99052,146.15356,68,63,0
146.15356,146.32027,69,65,0
146.32027,146.48979,70,61,0
146.15356,146.48979,67,46,0
146.15356,146.48979,61,46,0
146.48979,146.652,72,61,0
146.652,146.8244,73,61,0
146.48979,146.8244,67,43,0
146.48979,146.8244,61,43,0
146.8244,147.1505,72,65,0
146.8244,147.1505,68,55,0
146.8244,147.1505,60,46,0
147.1505,147.39505,68,56,0
147.1505,147.39505,62,56,0
147.1505,147.39505,77,66,0
147.1505,147.39505,59,56,0
147.1505,147.39505,65,56,0
147.39505,147.46843,68,50,0
147.39505,147.46843,63,50,0
147.39505,147.46843,60,50,0
147.39505,147.46843,75,60,0
147.47658,147.63962,68,56,0
147.47658,147.63962,60,56,0
147.47658,147.63962,75,67,0
147.47658,147.63962,63,56,0
147.80267,147.9712,80,75,0
147.63962,147.9712,68,63,0
148.05548,148.13974,79,70,0
148.05548,148.13974,67,58,0
148.13974,148.81879,77,70,0
148.13974,148.81879,65,58,0
148.81879,148.98012,67,64,0
148.98012,149.0322,79,64,0
149.0322,149.08348,80,65,0
149.08348,149.13399,79,64,0
149.13399,149.29703,77,65,0
149.13399,149.29703,65,55,0
149.29703,149.45993,79,66,0
149.29703,149.45993,67,55,0
149.45993,149.61896,68,64,0
149.61896,149.67064,80,64,0
149.67064,149.72179,82,64,0
149.72179,149.7723,80,64,0
149.7723,149.93533,79,71,0
149.7723,149.93533,67,59,0
149.93533,150.09839,80,72,0
149.93533,150.09839,68,60,0
150.09839,150.26413,81,74,0
150.09839,150.26413,75,52,0
150.09839,150.26413,69,52,0
150.26413,150.43176,82,70,0
150.26413,150.43176,70,63,0
150.43176,150.5931,84,70,0
150.43176,150.5931,79,58,0
150.43176,150.5931,72,49,0
150.5931,150.76167,85,70,0
150.5931,150.76167,73,58,0
150.76167,150.93211,84,74,0
150.76167,150.93211,80,63,0
150.76167,150.93211,72,63,0
151.10257,151.36374,89,75,0
151.10257,151.36374,80,64,0
151.10257,151.36374,77,64,0
151.36374,151.44363,87,69,0
151.36374,151.44363,80,57,0
151.36374,151.44363,75,57,0
151.4525,151.62492,87,77,0
151.4525,151.62492,80,64,0
151.4525,151.62492,75,64,0
151.71112,151.79733,75,59,0
151.71112,151.79733,87,59,0
151.79733,152.04733,85,75,0
151.79733,152.04733,81,64,0
151.79733,152.04733,73,64,0
152.04733,152.13066,84,70,0
152.04733,152.13066,72,58,0
152.13066,152.30508,82,75,0
152.13066,152.30508,70,64,0
152.4795,152.73232,82,70,0
152.4795,152.73232,78,58,0
152.4795,152.73232,70,58,0
152.73232,152.81657,84,70,0
152.73232,152.81657,72,58,0
152.81657,153.16548,85,73,0
152.81657,153.16548,77,62,0
152.81657,153.16548,73,62,0
153.16548,153.41687,78,60,0
153.16548,153.41687,75,60,0
153.16548,153.41687,73,60,0
153.16548,153.41687,85,72,0
153.41687,153.50067,84,69,0
153.41687,153.50067,72,57,0
153.50067,153.85155,82,74,0
153.50067,153.85155,77,63,0
153.50067,153.85155,70,63,0
153.85155,154.10295,70,60,0
153.85155,154.10295,68,60,0
153.85155,154.10295,75,60,0
153.85155,154.10295,80,72,0
154.10295,154.18674,78,67,0
154.10295,154.18674,66,56,0
154.18674,154.35822,65,59,0
154.18674,154.35822,77,71,0
154.18674,154.35822,73,59,0
154.53163,154.61563,45,64,0
154.61563,154.69884,46,64,0
154.69884,154.78172,48,66,0
154.78172,154.86417,49,67,0
154.86417,154.94632,51,67,0
154.94632,155.02817,53,68,0
155.02817,155.10968,55,69,0
155.10968,155.1908,57,69,0
155.1908,155.2716,58,70,0
155.2716,155.35214,60,71,0
155.35214,155.43236,61,71,0
155.43236,155.51218,63,72,0
155.51218,155.5917,65,73,0
155.5917,155.67096,67,73,0
155.67096,155.74991,69,74,0
155.74991,155.82848,70,74,0
155.82848,155.90675,72,75,0
155.90675,155.98477,73,77,0
155.98477,156.0625,75,77,0
156.0625,156.13985,77,78,0
156.13985,156.21692,79,77,0
156.21692,156.29375,81,77,0
156.29375,156.37027,82,78,0
156.37027,156.44644,84,79,0
156.44644,156.52235,85,80,0
156.52235,156.598,87,80,0
156.598,156.67339,89,81,0
156.67339,156.76796,91,82,0
156.76796,156.85724,93,83,0
156.85724,157.0337,82,92,0
156.85724,157.0337,94,92,0
157.12195,157.21017,96,85,0
157.21017,157.37234,91,91,0
157.21017,157.37234,94,91,0
157.21017,157.37234,85,77,0
157.37234,157.5345,93,85,0
157.37234,157.5345,84,72,0
157.37234,157.5345,90,85,0
157.5345,157.88745,94,90,0
157.5345,157.88745,91,90,0
157.5345,157.88745,85,75,0
157.88745,158.22836,96,85,0
157.88745,158.22836,91,85,0
157.88745,158.22836,84,72,0
158.22836,158.56734,92,88,0
158.22836,158.56734,84,74,0
158.22836,158.56734,80,74,0
158.56734,158.92236,87,85,0
158.56734,158.92236,80,72,0
158.56734,158.92236,75,72,0
158.92236,159.1237,89,85,0
158.92236,159.1237,80,72,0
158.92236,159.1237,77,72,0
159.32506,159.61351,55,56,0
159.32506,159.61351,61,67,0
159.61351,159.70006,61,67,0
159.61351,159.70006,55,56,0
159.32506,160.09428,63,67,0
159.70967,160.50244,55,61,0
159.70967,160.50244,61,72,0
159.70967,160.50244,70,72,0
160.50244,160.70653,68,67,0
160.50244,160.70653,60,56,0
160.50244,160.70653,56,56,0
161.29636,161.91737,68,80,0
161.16571,161.91737,56,67,0
161.21114,161.91737,59,70,0
161.25374,161.91737,64,74,0
162.0463,162.66011,68,79,0
161.91737,162.66011,56,67,0
161.96155,162.66011,59,70,0
162.00392,162.66011,64,74,0
162.78967,163.40382,68,78,0
162.66011,163.40382,56,66,0
162.70445,163.40382,59,69,0
162.74706,163.40382,64,72,0
163.53403,164.15504,68,79,0
163.40382,164.15504,56,67,0
163.44832,164.15504,59,70,0
163.49117,164.15504,64,74,0
164.28397,164.90498,68,79,0
164.15504,164.90498,56,67,0
164.19922,164.90498,59,70,0
164.2416,164.90498,64,74,0
165.03165,165.64389,68,81,0
164.90498,165.64389,56,67,0
164.94931,165.64389,59,70,0
164.99193,165.64389,64,75,0
165.64389,165.7167,68,80,0
165.64389,165.7167,56,65,0
165.64389,165.7167,59,65,0
165.64389,165.7167,64,74,0
169.1567,170.33661,59,44,0
169.1567,170.33661,56,36,0
170.33661,170.7735,59,41,0
170.33661,170.7735,57,34,0
170.7735,170.92735,59,43,0
170.7735,170.92735,57,36,0
170.92735,171.35814,59,43,0
170.92735,171.35814,56,36,0
171.35814,171.5112,64,41,0
171.35814,171.5112,56,35,0
171.5112,172.0949,68,46,0
171.5112,172.0949,59,39,0
171.5112,172.0949,56,39,0
172.0949,172.68484,66,40,0
172.0949,172.68484,59,33,0
172.0949,172.68484,57,33,0
172.68484,173.11565,59,42,0
172.68484,173.11565,56,35,0
173.11565,173.2687,64,41,0
173.11565,173.2687,56,34,0
173.2687,173.55716,68,44,0
173.2687,173.55716,59,36,0
173.2687,173.55716,56,36,0
173.70139,173.85387,63,40,0
173.70139,173.85387,57,34,0
173.85387,174.13948,64,41,0
173.85387,174.13948,56,34,0
174.13948,174.43817,68,41,0
174.13948,174.43817,64,35,0
174.13948,174.43817,56,35,0
174.43817,174.72527,71,46,0
174.43817,174.72527,68,39,0
174.43817,174.72527,59,39,0
174.72527,174.79471,73,47,0
174.72527,174.79471,68,39,0
174.72527,174.79471,61,39,0
174.86415,174.94029,75,48,0
174.86415,174.94029,68,40,0
174.86415,174.94029,63,40,0
175.01643,175.15997,76,50,0
175.01643,175.15997,68,42,0
175.01643,175.15997,64,42,0
175.30351,175.45058,71,45,0
175.30351,175.45058,68,38,0
175.30351,175.45058,59,38,0
175.60286,176.19281,80,53,0
175.60286,176.19281,71,45,0
175.60286,176.19281,68,45,0
176.19281,177.07326,71,48,0
176.19281,177.07326,59,40,0
176.19281,177.07326,66,40,0
176.19281,177.07326,69,40,0
177.07326,177.14302,71,49,0
177.07326,177.14302,69,41,0
177.07326,177.14302,59,41,0
177.21278,177.28854,71,49,0
177.21278,177.28854,69,41,0
177.21278,177.28854,59,41,0
177.3643,177.50993,71,51,0
177.3643,177.50993,69,43,0
177.3643,177.50993,59,43,0
177.65556,177.8012,71,48,0
177.65556,177.8012,69,40,0
177.65556,177.8012,59,40,0
177.95425,178.38637,71,52,0
177.95425,178.38637,68,44,0
177.95425,178.38637,59,44,0
178.38637,178.52483,76,50,0
178.38637,178.52483,68,41,0
178.38637,178.52483,64,41,0
178.5402,179.13095,76,52,0
178.5402,179.13095,68,44,0
178.5402,179.13095,64,44,0
179.13095,179.7217,68,48,0
179.13095,179.7217,64,40,0
179.13095,179.7217,59,40,0
179.7217,180.01295,59,45,0
179.7217,180.01295,57,45,0
180.01295,180.0824,59,51,0
180.01295,180.0824,57,43,0
180.15184,180.22876,57,43,0
180.15184,180.22876,59,51,0
180.30568,180.45131,59,54,0
180.30568,180.45131,57,45,0
179.7217,180.59695,66,53,0
180.59695,180.89505,66,52,0
180.59695,180.89505,59,44,0
180.59695,180.89505,57,44,0
180.89505,180.96648,68,52,0
180.89505,180.96648,59,44,0
180.89505,180.96648,57,44,0
181.03815,181.11037,66,51,0
181.03815,181.11037,59,43,0
181.03815,181.11037,57,43,0
181.18295,181.25601,64,50,0
181.18295,181.25601,59,42,0
181.18295,181.25601,57,42,0
181.32965,181.40619,66,48,0
181.32965,181.40619,63,40,0
181.32965,181.40619,57,40,0
181.32965,181.40619,59,40,0
181.48271,181.9175,56,52,0
181.9175,182.07135,61,50,0
181.48271,182.50981,68,52,0
181.48271,182.50981,64,44,0
182.50981,182.64827,71,51,0
182.50981,182.64827,68,42,0
182.66365,183.25098,71,51,0
182.66365,183.25098,68,42,0
182.07135,183.25098,59,52,0
183.25098,184.12175,59,53,0
183.25098,184.12175,56,45,0
184.12175,184.196,59,54,0
184.12175,184.196,55,45,0
184.27026,184.34718,59,54,0
184.27026,184.34718,56,46,0
184.4241,184.56766,59,57,0
184.4241,184.56766,57,48,0
184.7112,184.78296,61,55,0
184.7112,184.78296,57,47,0
184.85474,184.93126,63,57,0
184.85474,184.93126,57,48,0
185.0078,185.43776,64,61,0
185.0078,185.43776,56,51,0
185.43776,185.57552,59,49,0
185.43776,185.57552,56,49,0
185.59082,186.17657,68,61,0
185.59082,186.17657,59,51,0
185.59082,186.17657,56,51,0
186.17657,186.76027,66,63,0
186.17657,186.76027,59,53,0
186.17657,186.76027,57,53,0
186.76027,187.19513,59,67,0
186.76027,187.19513,56,57,0
187.19513,187.33289,64,71,0
187.19513,187.33289,56,60,0
187.34819,187.63527,68,72,0
187.34819,187.63527,59,61,0
187.34819,187.63527,56,61,0
187.77881,187.93187,63,71,0
187.77881,187.93187,57,59,0
187.93187,188.22173,64,73,0
187.93187,188.22173,56,61,0
188.22173,188.51817,68,76,0
188.22173,188.51817,64,63,0
188.22173,188.51817,56,63,0
188.51817,189.10185,71,78,0
188.51817,189.10185,68,66,0
188.51817,189.10185,59,66,0
189.10185,189.24539,73,72,0
189.10185,189.24539,68,61,0
189.10185,189.24539,61,61,0
189.24539,189.38893,75,75,0
189.24539,189.38893,68,64,0
189.24539,189.38893,63,64,0
189.38893,189.53044,76,77,0
189.38893,189.53044,68,64,0
189.38893,189.53044,64,64,0
189.53044,189.6835,78,82,0
189.53044,189.6835,71,68,0
189.53044,189.6835,66,68,0
189.6835,190.12048,71,85,0
189.6835,190.27277,68,71,0
189.6835,190.27277,80,85,0
189.6835,190.27277,76,71,0
190.27277,191.14352,79,88,0
190.12048,191.14352,70,81,0
190.27277,191.14352,67,74,0
190.27277,191.14352,75,74,0
191.14352,191.44438,67,72,0
191.14352,191.44438,58,72,0
191.44438,191.73283,67,76,0
191.14352,191.73283,70,86,0
191.44438,191.73283,63,76,0
191.73283,192.02936,79,96,0
191.44438,192.02936,75,90,0
191.73283,192.02936,67,81,0
191.73283,192.02936,70,81,0
192.02936,192.45795,82,101,0
192.02936,192.45795,79,85,0
192.02936,192.45795,70,85,0
192.45795,192.61101,79,83,0
192.45795,192.61101,75,83,0
192.61101,193.0466,79,100,0
192.61101,193.0466,75,84,0
193.0466,193.19966,67,81,0
193.0466,193.19966,75,81,0
193.19966,193.49234,75,81,0
193.0466,193.49234,79,96,0
192.45795,193.49234,87,99,0
193.19966,193.49234,67,81,0
193.49234,193.63869,79,78,0
193.49234,193.63869,84,92,0
193.49234,193.63869,72,78,0
193.79097,194.37465,82,102,0
193.79097,194.37465,79,85,0
193.79097,194.37465,70,85,0
194.66591,194.73874,70,98,0
194.66591,194.73874,58,83,0
194.81155,194.88808,70,98,0
194.81155,194.88808,58,83,0
194.96461,195.11024,68,89,0
194.96461,195.11024,70,106,0
194.96461,195.11024,58,89,0
195.25587,195.4015,77,101,0
195.25587,195.4015,65,86,0
195.25587,195.4015,68,86,0
195.25587,195.4015,70,86,0
195.55379,195.74017,75,111,0
195.55379,195.74017,67,94,0
195.55379,195.74017,63,94,0
195.91263,196.12695,63,77,0
195.78328,196.12695,51,70,0
195.8264,196.12695,57,72,0
195.8695,196.12695,59,74,0
196.25555,196.4699,63,81,0
196.12695,196.4699,51,72,0
196.16983,196.4699,57,75,0
196.21269,196.4699,59,78,0
196.5985,196.81282,63,83,0
196.4699,196.81282,51,74,0
196.51276,196.81282,57,78,0
196.55562,196.81282,59,80,0
196.94313,197.16219,63,86,0
196.81282,197.16219,51,77,0
196.85577,197.16219,57,80,0
196.89938,197.16219,59,82,0
197.29005,197.63104,63,89,0
197.16219,197.63104,51,80,0
197.2048,197.63104,57,83,0
197.24744,197.63104,59,85,0
197.63104,197.79591,64,99,0
197.63104,197.79591,56,84,0
197.63104,197.79591,52,84,0
198.2677,198.80353,68,80,0
198.15788,198.80353,56,79,0
198.19353,198.80353,59,80,0
198.23062,198.80353,64,80,0
198.91672,199.4555,68,77,0
198.80353,199.4555,56,78,0
198.84213,199.4555,59,78,0
198.87943,199.4555,64,77,0
199.56932,200.10515,68,74,0
199.4555,200.10515,56,75,0
199.49432,200.10515,59,75,0
199.53181,200.10515,64,75,0
200.21777,200.75656,68,72,0
200.10515,200.75656,56,72,0
200.14362,200.75656,59,72,0
200.1807,200.75656,64,72,0
200.86728,201.46138,68,69,0
200.75656,201.46138,56,69,0
200.79524,201.46138,59,69,0
200.83253,201.46138,64,69,0
201.46138,201.5321,68,66,0
201.46138,201.5321,56,66,0
201.46138,201.5321,59,66,0
201.46138,201.5321,64,66,0
204.86143,206.00752,59,44,0
204.86143,206.00752,56,37,0
206.00752,206.43188,59,42,0
206.00752,206.43188,57,35,0
206.43188,206.58133,59,44,0
206.43188,206.58133,57,36,0
206.58133,206.99977,59,44,0
206.58133,206.99977,56,36,0
206.99977,207.13358,64,41,0
206.99977,207.13358,56,35,0
207.14845,207.71542,68,46,0
207.14845,207.71542,59,39,0
207.14845,207.71542,56,39,0
207.71542,208.28847,66,40,0
207.71542,208.28847,59,33,0
207.71542,208.28847,57,33,0
208.28847,208.70753,59,42,0
208.28847,208.70753,56,35,0
208.70753,208.84135,64,42,0
208.70753,208.84135,56,35,0
208.85622,209.13641,68,44,0
208.85622,209.13641,59,36,0
208.85622,209.13641,56,36,0
209.2765,209.4246,63,41,0
209.2765,209.4246,57,34,0
209.4246,209.70204,64,42,0
209.4246,209.70204,56,35,0
209.70204,209.99217,68,42,0
209.70204,209.99217,64,36,0
209.70204,209.99217,56,36,0
209.99217,210.27103,71,47,0
209.99217,210.27103,68,39,0
209.99217,210.27103,59,39,0
210.27103,210.33755,73,47,0
210.27103,210.33755,68,39,0
210.27103,210.33755,61,39,0
210.40408,210.47804,75,49,0
210.40408,210.47804,68,40,0
210.40408,210.47804,63,40,0
210.552,210.69144,76,51,0
210.552,210.69144,68,43,0
210.552,210.69144,64,43,0
210.83087,210.97371,71,45,0
210.83087,210.97371,68,39,0
210.83087,210.97371,59,39,0
211.12163,211.69467,80,54,0
211.12163,211.69467,71,45,0
211.12163,211.69467,68,45,0
211.69467,212.54025,71,49,0
211.69467,212.54025,59,34,0
211.69467,212.54025,66,34,0
211.69467,212.54025,69,41,0
212.54025,212.61168,71,50,0
212.54025,212.61168,69,42,0
212.54025,212.61168,59,42,0
212.6831,212.75668,71,50,0
212.6831,212.75668,69,42,0
212.6831,212.75668,59,42,0
212.83028,212.96982,71,52,0
212.83028,212.96982,69,43,0
212.83028,212.96982,59,43,0
213.10934,213.24889,71,49,0
213.10934,213.24889,69,41,0
213.10934,213.24889,59,41,0
213.39755,213.81728,71,53,0
213.39755,213.81728,68,45,0
213.39755,213.81728,59,45,0
213.81728,213.95177,76,50,0
213.81728,213.95177,68,42,0
213.81728,213.95177,64,42,0
213.96672,214.53474,76,53,0
213.96672,214.53474,68,44,0
213.96672,214.53474,64,44,0
214.53474,215.10475,68,49,0
214.53474,215.10475,64,41,0
214.53474,215.10475,59,41,0
215.10475,215.38512,59,46,0
215.10475,215.38512,57,46,0
215.38512,215.45258,59,52,0
215.38512,215.45258,57,44,0
215.52002,215.59474,57,44,0
215.52002,215.59474,59,52,0
215.66945,215.80899,59,54,0
215.66945,215.80899,57,45,0
215.10475,215.94853,66,54,0
215.94853,216.23584,66,54,0
215.94853,216.23584,59,45,0
215.94853,216.23584,57,45,0
216.23584,216.30522,68,53,0
216.23584,216.30522,59,45,0
216.23584,216.30522,57,45,0
216.37483,216.44499,66,52,0
216.37483,216.44499,59,44,0
216.37483,216.44499,57,44,0
216.51549,216.58644,64,51,0
216.51549,216.58644,59,43,0
216.51549,216.58644,57,43,0
216.65797,216.73232,66,50,0
216.65797,216.73232,63,41,0
216.65797,216.73232,57,41,0
216.65797,216.73232,59,41,0
216.80666,217.22127,56,53,0
217.22127,217.3707,61,51,0
216.80666,217.79547,68,53,0
216.80666,217.79547,64,45,0
217.79547,217.92929,71,52,0
217.79547,217.92929,68,43,0
217.94325,218.51207,71,52,0
217.94325,218.51207,68,43,0
217.3707,218.51207,59,54,0
218.51207,219.35841,59,53,0
218.51207,219.35841,56,45,0
219.35841,219.43054,59,54,0
219.35841,219.43054,55,45,0
219.50267,219.5774,59,54,0
219.50267,219.5774,56,46,0
219.6521,219.79356,59,57,0
219.6521,219.79356,57,48,0
219.93501,220.00575,61,55,0
219.93501,220.00575,57,47,0
220.07648,220.15082,63,57,0
220.07648,220.15082,57,48,0
220.22516,220.64551,64,61,0
220.22516,220.64551,56,51,0
220.64551,220.77933,59,49,0
220.64551,220.77933,56,49,0
220.79419,221.36343,68,61,0
220.79419,221.36343,59,51,0
220.79419,221.36343,56,51,0
221.36343,221.93071,66,63,0
221.36343,221.93071,59,53,0
221.36343,221.93071,57,53,0
221.93071,222.35716,59,67,0
221.93071,222.35716,56,57,0
222.35716,222.49097,64,71,0
222.35716,222.49097,56,60,0
222.50584,222.78362,68,72,0
222.50584,222.78362,59,61,0
222.50584,222.78362,56,61,0
222.9225,223.07118,63,70,0
222.9225,223.07118,57,58,0
223.07118,223.35287,64,73,0
223.07118,223.35287,56,61,0
223.35287,223.6409,68,76,0
223.35287,223.6409,64,63,0
223.35287,223.6409,56,63,0
223.6409,224.20624,71,78,0
223.6409,224.20624,68,66,0
223.6409,224.20624,59,66,0
224.20624,224.34512,73,72,0
224.20624,224.34512,68,61,0
224.20624,224.34512,61,61,0
224.34512,224.48401,75,75,0
224.34512,224.48401,68,64,0
224.34512,224.48401,63,64,0
224.48401,224.62291,76,77,0
224.48401,224.62291,68,64,0
224.48401,224.62291,64,64,0
224.62291,224.77158,78,81,0
224.62291,224.77158,71,67,0
224.62291,224.77158,66,67,0
224.77158,225.19492,71,85,0
224.77158,225.34282,68,71,0
224.77158,225.34282,80,85,0
224.77158,225.34282,76,71,0
225.34282,226.21431,79,88,0
225.19492,226.21431,70,81,0
225.34282,226.21431,67,74,0
225.34282,226.21431,75,74,0
226.21431,226.50253,67,72,0
226.21431,226.50253,58,72,0
226.50253,226.78139,67,76,0
226.21431,226.78139,70,86,0
226.50253,226.78139,63,76,0
226.78139,227.06874,79,96,0
226.50253,227.06874,75,90,0
226.78139,227.06874,67,81,0
226.78139,227.06874,70,81,0
227.06874,227.48909,82,101,0
227.06874,227.48909,79,85,0
227.06874,227.48909,70,85,0
227.48909,227.63777,79,83,0
227.48909,227.63777,75,83,0
227.63777,228.05638,79,100,0
227.63777,228.05638,75,84,0
228.05638,228.20505,67,81,0
228.05638,228.20505,75,81,0
228.20505,228.48413,75,81,0
228.05638,228.48413,79,96,0
227.48909,228.48413,87,99,0
228.20505,228.48413,67,81,0
228.48413,228.62366,79,78,0
228.48413,228.62366,84,92,0
228.48413,228.62366,72,78,0
228.77158,229.33885,82,102,0
228.77158,229.33885,79,85,0
228.77158,229.33885,70,85,0
229.62177,229.69116,70,98,0
229.62177,229.69116,58,83,0
229.75989,229.83423,70,98,0
229.75989,229.83423,58,83,0
229.90857,230.05002,68,89,0
229.90857,230.05002,70,106,0
229.90857,230.05002,58,89,0
230.19147,230.33293,77,101,0
230.19147,230.33293,65,86,0
230.19147,230.33293,68,86,0
230.19147,230.33293,70,86,0
230.48085,230.62938,75,111,0
230.48085,230.62938,67,94,0
230.48085,230.62938,63,83,0
230.77716,230.85106,75,79,0
230.77716,230.85106,63,67,0
230.92494,230.99884,75,75,0
230.92494,230.99884,63,63,0
231.07272,231.3683,75,81,0
231.07272,231.3683,63,68,0
231.3683,231.44218,75,78,0
231.3683,231.44218,63,66,0
231.51608,231.58997,75,73,0
231.51608,231.58997,63,62,0
231.66386,231.96797,75,79,0
231.66386,231.96797,63,67,0
231.96797,232.04637,75,74,0
231.96797,232.04637,63,62,0
232.12852,232.21625,75,71,0
232.12852,232.21625,63,60,0
232.30397,232.61324,63,51,0
232.30397,232.61324,61,51,0
232.61324,232.68713,63,55,0
232.76103,232.83492,63,54,0
232.30397,232.90881,75,81,0
232.90881,233.20438,63,54,0
233.20438,233.2809,63,54,0
233.35744,233.43396,63,53,0
232.90881,233.5105,70,71,0
233.5105,233.81352,72,68,0
233.5105,233.81352,66,58,0
233.5105,233.81352,60,58,0
233.81352,233.96132,77,66,0
233.81352,233.96132,66,56,0
233.96132,234.1091,75,64,0
233.96132,234.1091,66,54,0
234.1091,234.25688,75,68,0
234.25688,234.40466,73,64,0
234.1091,234.40466,65,57,0
234.40466,234.4808,73,64,0
234.40466,234.4808,65,54,0
234.55695,234.63309,72,59,0
234.55695,234.63309,65,49,0
234.70923,235.0138,65,52,0
235.0138,235.1468,65,53,0
235.16158,235.29459,65,53,0
234.70923,235.30937,70,62,0
235.30937,235.6155,64,54,0
235.30937,235.6155,60,54,0
235.6155,235.74849,64,54,0
235.6155,235.74849,60,54,0
235.76328,235.89627,64,53,0
235.76328,235.89627,60,53,0
235.30937,235.91106,72,64,0
235.91106,236.06105,70,68,0
236.06105,236.21106,68,64,0
235.91106,236.21106,60,57,0
235.91106,236.21106,65,57,0
236.21106,236.2872,68,64,0
236.21106,236.2872,60,54,0
236.36334,236.43948,67,59,0
236.36334,236.43948,60,49,0
236.51562,236.82019,60,52,0
236.82019,236.9532,62,50,0
236.82019,236.9532,60,50,0
236.96797,237.10098,62,50,0
236.96797,237.10098,60,50,0
236.51562,237.11575,65,62,0
237.11575,237.42188,62,54,0
237.11575,237.42188,59,54,0
237.42188,237.55489,62,51,0
237.42188,237.55489,59,51,0
237.56966,237.70267,62,50,0
237.56966,237.70267,59,50,0
237.11575,237.71745,67,64,0
237.71745,237.79437,63,56,0
237.79437,237.87129,65,56,0
237.87129,238.02513,63,62,0
237.71745,238.02513,60,47,0
238.02513,238.17514,62,58,0
238.02513,238.17514,59,49,0
238.17514,238.32513,63,59,0
238.17514,238.32513,60,49,0
238.32513,238.40143,65,56,0
238.40143,238.47835,67,56,0
238.47835,238.63219,65,62,0
238.32513,238.63219,62,47,0
238.63219,238.78195,63,58,0
238.63219,238.78195,60,49,0
238.78195,238.9312,65,59,0
238.78195,238.9312,62,59,0
238.9312,239.2297,63,54,0
238.9312,239.2297,55,54,0
239.2297,239.36404,55,51,0
239.2297,239.36404,63,51,0
239.37897,239.52731,55,50,0
239.37897,239.52731,63,50,0
238.9312,239.5438,67,64,0
239.5438,239.86295,67,51,0
239.5438,239.86295,74,51,0
239.5438,239.86295,65,51,0
239.86295,240.00212,65,55,0
239.86295,240.00212,67,55,0
240.0176,240.15677,65,54,0
240.0176,240.15677,67,54,0
239.5438,240.17223,79,81,0
240.17223,240.4815,65,54,0
240.17223,240.4815,67,54,0
240.4815,240.62213,65,54,0
240.4815,240.62213,67,54,0
240.63776,240.77838,65,53,0
240.63776,240.77838,67,53,0
240.17223,240.794,74,71,0
240.794,241.1017,72,58,0
240.794,241.1017,70,58,0
240.794,241.1017,64,58,0
241.1017,241.23602,72,56,0
241.1017,241.23602,64,56,0
241.1017,241.23602,70,56,0
241.25095,241.38528,72,57,0
241.25095,241.38528,64,54,0
241.25095,241.38528,70,57,0
240.794,241.4002,76,68,0
241.4002,241.54945,79,68,0
241.54945,241.69872,77,64,0
241.4002,241.69872,72,57,0
241.4002,241.69872,68,57,0
241.69872,241.77486,77,64,0
241.69872,241.77486,72,54,0
241.69872,241.77486,68,54,0
241.851,241.92714,75,59,0
241.851,241.92714,72,49,0
241.851,241.92714,68,49,0
242.00328,242.30785,65,44,0
242.00328,242.30785,72,52,0
242.00328,242.30785,68,44,0
242.30785,242.44086,65,53,0
242.30785,242.44086,68,53,0
242.30785,242.44086,72,53,0
242.45563,242.58864,65,53,0
242.45563,242.58864,68,53,0
242.45563,242.58864,72,53,0
242.00328,242.60341,74,62,0
242.60341,242.90955,72,54,0
242.60341,242.90955,70,54,0
242.90955,243.04254,72,54,0
242.90955,243.04254,70,54,0
243.05733,243.19032,72,53,0
243.05733,243.19032,70,53,0
242.60341,243.20511,76,64,0
243.20511,243.3551,79,64,0
243.3551,243.50511,77,61,0
243.20511,243.50511,72,54,0
243.20511,243.50511,68,54,0
243.50511,243.58243,77,60,0
243.50511,243.58243,72,51,0
243.50511,243.58243,68,51,0
243.65974,243.73706,75,54,0
243.65974,243.73706,72,44,0
243.65974,243.73706,68,44,0
243.81438,243.96591,75,61,0
243.96591,244.1182,74,56,0
243.81438,244.1182,68,51,0
244.1182,244.19673,74,56,0
244.1182,244.19673,68,46,0
244.1182,244.19673,65,46,0
244.27525,244.35379,72,51,0
244.27525,244.35379,68,42,0
244.27525,244.35379,65,42,0
244.43233,244.58539,72,57,0
244.58539,244.73845,70,53,0
244.43233,244.73845,65,49,0
244.73845,244.81699,70,51,0
244.73845,244.81699,65,42,0
244.73845,244.81699,62,42,0
244.89552,244.97404,68,45,0
244.89552,244.97404,65,38,0
244.89552,244.97404,62,38,0
245.05258,245.21475,67,47,0
245.05258,245.21475,62,39,0
245.05258,245.21475,59,39,0
245.3769,245.5348,67,39,0
245.3769,245.5348,60,33,0
245.3769,245.5348,63,33,0
245.5348,245.6927,67,38,0
245.5348,245.6927,57,32,0
245.5348,245.6927,60,32,0
245.6927,245.86412,67,44,0
245.6927,245.86412,62,31,0
245.6927,245.86412,59,31,0
246.03555,246.19772,67,36,0
246.03555,246.19772,60,30,0
246.03555,246.19772,63,30,0
246.19772,246.35988,67,35,0
246.19772,246.35988,57,29,0
246.19772,246.35988,60,29,0
246.35988,246.53532,59,28,0
246.35988,246.53532,67,34,0
246.35988,246.53532,62,34,0
246.71075,247.19003,74,50,0
247.19003,247.35837,72,39,0
247.35837,247.5267,71,38,0
247.5267,247.70229,69,37,0
247.70229,247.87234,68,36,0
247.87234,248.04198,69,36,0
248.04198,248.21101,71,36,0
248.21101,248.37933,72,36,0
248.37933,248.5469,73,36,0
248.5469,248.71434,74,36,0
248.71434,248.88176,79,40,0
248.88176,249.0492,76,36,0
249.0492,249.23587,73,36,0
249.23587,249.41083,74,38,0
249.41083,249.58316,78,40,0
249.58316,249.75337,76,38,0
249.75337,249.92285,74,36,0
249.92285,250.09352,72,36,0
250.09352,250.26524,64,36,0
250.26524,250.44083,66,36,0
250.44083,250.48334,67,32,0
250.48334,250.52585,69,32,0
250.52585,250.61089,67,36,0
250.61089,250.78096,66,36,0
250.78096,250.95102,67,35,0
250.95102,251.1211,68,36,0
251.1211,251.29668,69,36,0
251.29668,251.46587,78,40,0
251.46587,251.63504,76,37,0
251.63504,251.80423,74,36,0
251.80423,251.98076,73,38,0
251.98076,252.1573,78,37,0
252.1573,252.33383,79,39,0
252.33383,252.50847,81,40,0
252.50847,252.67708,84,42,0
252.67708,252.84729,82,40,0
252.84729,253.01932,79,38,0
253.01932,253.19272,73,36,0
253.19272,253.4516,74,44,0
253.4516,253.538,76,36,0
253.538,253.79794,74,44,0
253.79794,253.88483,75,36,0
253.88483,254.14868,74,44,0
254.14868,254.2378,76,36,0
254.2378,254.50839,74,44,0
254.50839,254.59982,75,36,0
254.59982,254.87767,74,44,0
254.87767,254.97142,76,36,0
254.97142,255.25691,74,44,0
255.25691,255.34811,75,36,0
255.34811,255.52663,74,40,0
255.52663,255.70514,72,39,0
255.70514,255.88365,70,38,0
255.88365,256.05923,69,36,0
256.05923,256.2293,68,36,0
256.2293,256.39893,69,36,0
256.39893,256.56796,70,36,0
256.56796,256.73627,72,36,0
256.73627,256.90384,73,36,0
256.90384,257.08337,74,39,0
257.08337,257.1693,79,47,0
257.25525,257.34122,78,40,0
257.42715,257.52216,77,47,0
257.61713,257.70477,76,40,0
257.79178,257.87802,75,39,0
257.96365,258.04868,74,38,0
258.13373,258.3035,73,36,0
258.3035,258.47296,72,36,0
258.47296,258.6432,69,36,0
258.6432,258.81876,70,36,0
258.81876,258.8613,67,32,0
258.8613,258.9038,69,32,0
258.9038,258.98883,67,36,0
258.98883,259.1589,66,41,0
259.1589,259.32898,67,35,0
259.32898,259.49905,69,40,0
259.49905,259.68466,70,50,0
259.68466,259.86215,82,54,0
259.86215,260.03964,81,51,0
260.03964,260.21713,79,49,0
260.21713,260.39178,81,56,0
260.39178,260.56644,79,55,0
260.56644,260.74106,77,53,0
260.74106,260.9157,75,51,0
260.9157,261.08652,77,53,0
261.08652,261.2596,75,51,0
261.2596,261.4349,70,48,0
261.4349,261.6113,72,45,0
261.6113,261.70288,74,46,0
261.70288,261.7938,75,43,0
261.7938,261.88385,74,46,0
261.88385,261.97293,75,44,0
261.97293,262.06168,74,46,0
262.06168,262.15027,75,46,0
262.15027,262.2091,74,47,0
262.2091,262.26794,73,46,0
262.26794,262.3268,74,46,0
262.3268,262.41458,75,50,0
262.41458,262.50192,77,47,0
262.50192,262.58878,75,51,0
262.58878,262.67502,77,47,0
262.67502,262.76093,75,52,0
262.76093,262.84686,77,49,0
262.84686,262.90414,75,54,0
262.90414,262.96143,74,51,0
262.96143,263.0189,75,51,0
263.0189,263.10483,76,58,0
263.10483,263.1908,77,52,0
263.1908,263.27673,76,56,0
263.27673,263.36267,77,53,0
263.36267,263.44968,76,60,0
263.44968,263.542,77,55,0
263.542,263.60724,76,61,0
263.60724,263.67578,75,57,0
263.67578,263.74088,76,57,0
263.74088,263.91647,77,64,0
263.91647,264.09204,75,51,0
264.09204,264.26764,73,51,0
264.26764,264.4432,72,54,0
264.4432,264.61328,71,45,0
264.61328,264.7829,72,48,0
264.7829,264.95197,73,45,0
264.95197,265.14194,75,46,0
265.14194,265.31757,76,54,0
265.31757,265.49707,77,49,0
265.49707,265.66898,82,59,0
265.66898,265.84088,81,55,0
265.84088,266.03085,80,59,0
266.03085,266.2055,79,48,0
266.2055,266.37738,78,51,0
266.37738,266.54742,77,54,0
266.54742,266.71722,76,50,0
266.71722,266.8867,75,47,0
266.8867,267.05692,73,51,0
267.05692,267.23248,72,49,0
267.23248,267.275,70,41,0
267.275,267.31754,72,41,0
267.31754,267.40256,70,50,0
267.40256,267.57263,69,45,0
267.57263,267.7427,70,50,0
267.7427,267.91275,72,45,0
267.91275,268.0984,73,49,0
268.0984,268.27588,85,57,0
268.27588,268.45337,84,53,0
268.45337,268.63086,82,51,0
268.63086,268.8055,84,56,0
268.8055,268.98013,82,55,0
268.98013,269.1548,80,53,0
269.1548,269.32944,78,51,0
269.32944,269.50024,80,53,0
269.50024,269.67334,78,51,0
269.67334,269.8486,73,48,0
269.8486,270.02502,75,45,0
270.02502,270.14703,77,46,0
270.14703,270.26767,78,44,0
270.26767,270.38666,77,43,0
270.38666,270.50497,76,45,0
270.50497,270.62283,77,42,0
270.62283,270.7405,78,43,0
270.7405,270.85742,77,43,0
270.85742,270.97354,78,43,0
270.97354,271.0887,77,41,0
271.0887,271.2033,76,43,0
271.2033,271.31787,77,40,0
271.31787,271.4324,78,40,0
271.4324,271.54883,77,42,0
271.54883,271.66666,78,39,0
271.66666,271.7859,77,38,0
271.7859,271.90698,76,41,0
271.90698,272.04016,77,39,0
272.04016,272.20053,78,38,0
272.20053,272.38394,77,43,0
272.38394,272.5623,75,41,0
272.5623,272.73923,73,40,0
272.73923,272.91525,72,39,0
272.91525,273.0871,71,38,0
273.0871,273.25864,72,38,0
273.25864,273.4296,73,38,0
273.4296,273.6174,75,39,0
273.6174,273.79208,76,39,0
273.79208,273.96255,77,39,0
273.96255,274.04895,82,43,0
274.23883,274.3423,81,42,0
274.3423,274.4373,80,49,0
274.5276,274.61612,79,43,0
274.70404,274.7914,78,41,0
274.8784,274.96475,77,40,0
275.05054,275.22156,76,39,0
275.22156,275.39185,75,39,0
275.39185,275.5617,72,38,0
275.5617,275.73727,73,38,0
275.73727,275.77982,70,34,0
275.77982,275.82233,72,34,0
275.82233,275.90735,70,38,0
275.90735,276.07742,69,38,0
276.07742,276.2475,70,37,0
276.2475,276.41757,73,38,0
276.41757,276.58942,72,47,0
276.58942,276.7613,70,41,0
276.7613,276.93314,68,40,0
276.93314,277.105,67,39,0
277.105,277.27505,66,38,0
277.27505,277.4447,67,38,0
277.4447,277.61374,68,38,0
277.61374,277.80264,70,39,0
277.80264,277.97543,71,39,0
277.97543,278.15494,72,47,0
278.15494,278.32242,77,43,0
278.32242,278.4899,73,42,0
278.4899,278.6627,72,47,0
278.6627,278.83548,70,41,0
278.83548,279.00827,68,40,0
279.00827,279.18384,67,39,0
279.18384,279.35754,66,38,0
279.35754,279.53604,67,45,0
279.53604,279.70523,72,47,0
279.70523,279.87442,71,39,0
279.87442,280.04214,70,39,0
280.04214,280.21133,68,39,0
280.21133,280.382,67,39,0
280.382,280.55432,65,38,0
280.55432,280.741,64,43,0
280.741,280.91284,72,49,0
280.91284,281.08472,70,40,0
281.08472,281.25656,68,39,0
281.25656,281.42664,66,38,0
281.42664,281.59628,67,38,0
281.59628,281.76532,68,38,0
281.76532,281.95203,70,39,0
281.95203,282.1199,71,39,0
282.1199,282.29456,72,49,0
282.29456,282.4629,77,43,0
282.4629,282.63123,73,42,0
282.63123,282.80402,72,48,0
282.80402,282.9768,70,41,0
282.9768,283.1496,68,40,0
283.1496,283.32516,67,39,0
283.32516,283.4989,66,38,0
283.4989,283.67737,67,38,0
283.67737,283.84656,72,45,0
283.84656,284.01575,71,39,0
284.01575,284.18347,70,39,0
284.18347,284.35266,68,39,0
284.35266,284.52332,67,39,0
284.52332,284.69565,65,38,0
284.69565,284.88232,64,43,0
284.88232,285.0542,72,46,0
285.0542,285.22604,70,40,0
285.22604,285.39792,68,39,0
285.39792,285.568,66,38,0
285.568,285.7376,67,38,0
285.7376,285.90665,68,38,0
285.90665,286.08615,70,39,0
286.08615,286.25403,71,39,0
286.25403,286.42868,72,49,0
286.42868,286.59525,75,43,0
286.59525,286.7618,73,42,0
286.7618,286.9337,72,50,0
286.9337,287.10556,70,41,0
287.10556,287.2774,68,40,0
287.2774,287.44928,67,39,0
287.44928,287.61932,66,36,0
287.61932,287.78897,67,37,0
287.78897,287.958,68,38,0
287.958,288.1263,70,39,0
288.1263,288.29388,71,39,0
288.29388,288.46854,72,48,0
288.46854,288.6351,73,40,0
288.6351,288.8017,71,38,0
288.8017,288.97354,72,49,0
288.97354,289.14542,70,41,0
289.14542,289.31726,68,40,0
289.31726,289.48914,67,39,0
289.48914,289.65784,66,36,0
289.65784,289.82617,67,37,0
289.82617,289.9945,68,38,0
289.9945,290.1808,70,39,0
290.1808,290.3485,71,39,0
290.3485,290.52316,72,50,0
290.52316,290.68973,75,40,0
290.68973,290.8563,73,38,0
290.8563,291.02817,72,49,0
291.02817,291.2,70,41,0
291.2,291.3719,68,40,0
291.3719,291.54373,67,39,0
291.54373,291.7138,66,36,0
291.7138,291.88342,67,37,0
291.88342,292.0525,68,38,0
292.0525,292.2371,70,39,0
292.2371,292.40512,71,39,0
292.40512,292.57977,72,50,0
292.57977,292.74634,73,40,0
292.74634,292.9129,71,38,0
292.9129,293.07947,72,50,0
293.07947,293.24606,70,44,0
293.24606,293.41263,68,43,0
293.41263,293.58728,67,42,0
293.58728,293.75385,66,45,0
293.75385,293.9204,67,46,0
293.9204,294.087,68,50,0
294.087,294.25357,70,55,0
294.25357,294.42014,68,57,0
294.42014,294.58673,67,57,0
294.58673,294.7533,65,57,0
294.7533,294.92886,64,59,0
294.92886,295.09546,63,58,0
295.09546,295.26202,64,61,0
295.26202,295.4286,65,63,0
295.4286,295.59518,67,65,0
295.76523,295.9353,67,66,0
295.59518,295.9353,61,74,0
296.10538,296.27545,67,63,0
295.9353,296.27545,60,71,0
296.27545,296.44553,59,60,0
296.44553,296.61557,60,63,0
296.61557,296.78564,61,65,0
296.78564,296.95572,63,68,0
296.95572,297.1258,61,70,0
297.1258,297.29584,60,68,0
297.29584,297.4659,58,67,0
297.4659,297.636,56,65,0
297.80664,297.9776,60,69,0
297.9776,298.14856,58,70,0
297.636,298.14856,55,76,0
298.14856,298.31952,54,70,0
298.49326,298.66696,60,70,0
298.66696,298.84067,58,70,0
298.31952,298.84067,53,73,0
298.84067,299.01437,52,70,0
299.19186,299.36935,56,72,0
299.36935,299.54684,55,74,0
299.01437,299.54684,51,79,0
299.54684,299.7257,51,75,0
299.91205,300.10144,55,78,0
300.10144,300.29422,53,81,0
299.7257,300.29422,49,82,0
300.29422,300.49176,49,82,0
300.70587,300.94003,51,82,0
300.49176,300.94003,48,88,0
301.20108,301.49612,51,86,0
300.94003,301.49612,46,84,0
301.49612,302.114,89,102,0
301.49612,302.114,85,88,0
301.49612,302.114,77,82,0
302.114,302.2569,87,93,0
302.114,302.2569,84,79,0
302.114,302.2569,75,79,0
302.53592,302.62366,63,71,0
302.27277,302.62366,75,79,0
302.27277,302.62366,84,79,0
302.27277,302.62366,87,93,0
302.62366,302.69302,63,71,0
302.69302,302.76236,65,71,0
302.76236,302.83173,63,71,0
302.83173,302.9011,62,71,0
302.9011,302.97046,63,71,0
302.97046,303.13715,68,87,0
303.3038,303.47046,84,88,0
303.3038,303.47046,80,74,0
303.3038,303.47046,72,74,0
303.47046,303.64694,85,86,0
303.47046,303.64694,82,73,0
303.47046,303.64694,73,73,0
303.64694,303.82178,89,93,0
303.64694,303.82178,85,79,0
303.64694,303.82178,77,79,0
303.90512,303.9801,87,88,0
303.90512,303.9801,84,74,0
303.90512,303.9801,75,74,0
303.98843,304.132,87,93,0
303.98843,304.132,84,74,0
303.98843,304.132,75,74,0
304.132,304.31055,86,88,0
304.132,304.31055,83,74,0
304.132,304.31055,74,74,0
304.5784,304.6677,63,70,0
304.31055,304.6677,75,74,0
304.31055,304.6677,84,74,0
304.31055,304.6677,87,88,0
304.6677,304.73587,63,70,0
304.73587,304.80405,65,70,0
304.80405,304.87225,63,70,0
304.87225,304.94043,62,70,0
304.94043,305.0086,63,70,0
305.0086,305.1699,68,87,0
305.33118,305.49786,80,74,0
305.33118,305.49786,72,74,0
305.33118,305.49786,84,88,0
305.49786,305.66733,82,73,0
305.49786,305.66733,73,73,0
305.49786,305.66733,85,86,0
305.66733,305.834,77,79,0
305.66733,305.834,89,93,0
305.66733,305.834,85,79,0
305.834,305.91733,87,88,0
305.91733,306.00067,89,81,0
306.00067,306.14352,87,93,0
305.834,306.14352,84,74,0
305.834,306.14352,75,74,0
306.14352,306.314,74,74,0
306.14352,306.314,86,88,0
306.14352,306.314,83,74,0
306.314,306.48065,77,79,0
306.314,306.48065,89,93,0
306.314,306.48065,85,79,0
306.48065,306.564,87,88,0
306.564,306.6473,89,81,0
306.6473,306.79883,87,93,0
306.48065,306.79883,75,74,0
306.48065,306.79883,84,74,0
306.79883,306.97125,86,88,0
306.79883,306.97125,83,74,0
306.79883,306.97125,74,74,0
306.97125,307.2428,87,88,0
306.97125,307.2428,84,74,0
306.97125,307.2428,75,74,0
307.34772,307.62448,90,85,0
307.29526,307.62448,82,72,0
307.2428,307.62448,75,72,0
307.71378,307.98163,89,83,0
307.62448,307.98163,75,70,0
307.66913,307.98163,81,70,0
308.07092,308.33878,84,83,0
307.93698,308.33878,72,70,0
307.98163,308.33878,75,70,0
308.02628,308.33878,77,70,0
308.42807,308.69592,85,83,0
308.38342,308.69592,77,70,0
308.33878,308.69592,70,70,0
308.78522,308.90643,78,80,0
308.90643,309.02762,66,80,0
309.02762,309.14883,78,80,0
309.14883,309.5018,77,84,0
309.14883,309.5018,65,71,0
309.5018,309.8889,73,79,0
309.5018,309.8889,61,74,0
309.8889,310.42526,90,97,0
309.8889,310.42526,87,82,0
309.8889,310.42526,78,82,0
310.42526,310.57047,89,93,0
310.42526,310.57047,85,79,0
310.42526,310.57047,77,79,0
310.8467,310.9334,65,71,0
310.5866,310.9334,77,79,0
310.5866,310.9334,85,79,0
310.5866,310.9334,89,93,0
310.9334,311.00278,65,71,0
311.00278,311.07214,66,71,0
311.07214,311.1415,65,71,0
311.1415,311.21088,64,71,0
311.21088,311.28024,65,71,0
311.28024,311.4469,70,87,0
311.61356,311.78024,82,74,0
311.61356,311.78024,85,88,0
311.61356,311.78024,73,74,0
311.78024,311.9567,87,86,0
311.78024,311.9567,84,73,0
311.78024,311.9567,75,73,0
311.9567,312.13153,87,79,0
311.9567,312.13153,78,79,0
311.9567,312.13153,90,93,0
312.21487,312.2899,89,88,0
312.21487,312.2899,85,74,0
312.21487,312.2899,77,74,0
312.29822,312.44174,89,93,0
312.29822,312.44174,77,74,0
312.29822,312.44174,85,74,0
312.44174,312.62033,84,74,0
312.44174,312.62033,88,88,0
312.44174,312.62033,76,74,0
312.88818,312.97748,65,71,0
312.62033,312.97748,77,88,0
312.62033,312.97748,85,74,0
312.62033,312.97748,89,88,0
312.97748,313.04565,65,71,0
313.04565,313.11383,66,71,0
313.11383,313.182,65,71,0
313.182,313.25018,64,71,0
313.25018,313.3184,65,71,0
313.3184,313.64096,70,87,0
313.64096,313.8164,85,81,0
313.64096,313.8164,91,96,0
313.64096,313.8164,79,81,0
313.8164,314.00058,92,94,0
313.8164,314.00058,80,80,0
314.00058,314.17398,96,101,0
314.00058,314.17398,84,85,0
314.17398,314.34738,91,88,0
314.17398,314.34738,87,74,0
314.34738,314.49026,84,79,0
314.34738,314.49026,96,93,0
314.57547,314.6522,82,78,0
314.57547,314.6522,94,92,0
314.6607,314.82736,94,97,0
314.6607,314.82736,82,81,0
314.82736,314.99405,87,84,0
314.82736,314.99405,84,70,0
314.99405,315.1369,82,75,0
314.99405,315.1369,94,90,0
315.22214,315.29883,92,80,0
315.22214,315.29883,80,68,0
315.30734,315.47403,92,93,0
315.30734,315.47403,80,79,0
315.47403,315.6407,82,67,0
315.47403,315.6407,87,79,0
315.6407,315.78354,80,74,0
315.6407,315.78354,92,88,0
315.86877,315.94547,79,67,0
315.86877,315.94547,91,79,0
315.954,316.12067,91,90,0
315.954,316.12067,79,75,0
316.12067,316.28732,82,66,0
316.12067,316.28732,86,78,0
316.28732,316.43018,91,85,0
316.28732,316.43018,79,72,0
316.5154,316.59213,77,68,0
316.5154,316.59213,89,81,0
316.60065,316.7673,77,73,0
316.60065,316.7673,89,88,0
316.7673,316.934,79,64,0
316.7673,316.934,82,75,0
316.934,317.07684,89,82,0
316.934,317.07684,77,69,0
317.16205,317.24728,87,75,0
317.16205,317.24728,75,64,0
317.24728,317.41397,85,90,0
317.24728,317.41397,73,75,0
317.41397,317.58063,80,75,0
317.41397,317.58063,77,64,0
317.58063,317.72348,73,70,0
317.58063,317.72348,85,84,0
317.80872,317.89392,72,61,0
317.80872,317.89392,84,71,0
317.89392,318.56302,65,88,0
318.56302,318.64468,67,59,0
318.64468,318.72433,68,60,0
318.72433,318.8022,67,61,0
318.8022,318.8782,68,61,0
318.8782,319.04126,65,62,0
319.04126,319.20416,67,64,0
319.20416,319.28436,68,66,0
319.28436,319.3632,70,67,0
319.3632,319.4405,68,69,0
319.4405,319.5165,70,70,0
319.5165,319.67957,67,71,0
319.67957,319.8426,68,73,0
319.8426,320.0084,69,77,0
320.0084,320.1789,70,73,0
319.8426,320.1789,67,54,0
319.8426,320.1789,61,45,0
320.1789,320.3402,72,73,0
320.3402,320.51263,73,74,0
320.1789,320.51263,67,51,0
320.1789,320.51263,61,43,0
320.51263,320.8387,72,81,0
320.51263,320.8387,68,68,0
320.51263,320.8387,60,57,0
320.8387,321.08328,68,70,0
320.8387,321.08328,62,70,0
320.8387,321.08328,77,83,0
320.8387,321.08328,59,70,0
320.8387,321.08328,65,70,0
321.08328,321.15665,68,63,0
321.08328,321.15665,63,63,0
321.08328,321.15665,60,63,0
321.08328,321.15665,75,75,0
321.1648,321.32785,68,71,0
321.1648,321.32785,60,71,0
321.1648,321.32785,75,84,0
321.1648,321.32785,63,71,0
321.49088,321.65942,80,83,0
321.32785,321.65942,68,79,0
321.74368,321.82797,79,77,0
321.74368,321.82797,67,64,0
321.82797,322.50702,77,77,0
321.82797,322.50702,65,64,0
322.50702,322.66833,67,70,0
322.66833,322.72043,79,71,0
322.72043,322.7717,80,72,0
322.7717,322.8222,79,71,0
322.8222,322.98526,77,72,0
322.8222,322.98526,65,61,0
322.98526,323.14813,79,73,0
322.98526,323.14813,67,61,0
323.14813,323.30716,68,70,0
323.30716,323.35886,80,71,0
323.35886,323.41,82,71,0
323.41,323.4605,80,71,0
323.4605,323.62357,79,78,0
323.4605,323.62357,67,66,0
323.62357,323.7866,80,79,0
323.62357,323.7866,68,67,0
323.7866,323.95056,81,82,0
323.7866,323.95056,75,69,0
323.7866,323.95056,69,49,0
323.95056,324.12106,82,77,0
323.95056,324.12106,70,69,0
324.12106,324.28152,84,77,0
324.12106,324.28152,79,64,0
324.12106,324.28152,72,45,0
324.28152,324.4501,85,77,0
324.28152,324.4501,73,64,0
324.4501,324.62054,84,82,0
324.4501,324.62054,80,69,0
324.4501,324.62054,72,69,0
324.79102,325.0522,89,83,0
324.79102,325.0522,80,70,0
324.79102,325.0522,77,70,0
325.0522,325.13205,87,75,0
325.0522,325.13205,80,63,0
325.0522,325.13205,75,63,0
325.14093,325.31335,87,84,0
325.14093,325.31335,80,71,0
325.14093,325.31335,75,71,0
325.39957,325.48578,75,66,0
325.39957,325.48578,87,66,0
325.48578,325.73578,85,83,0
325.48578,325.73578,81,70,0
325.48578,325.73578,73,70,0
325.73578,325.8191,84,77,0
325.73578,325.8191,72,64,0
325.8191,325.99353,82,83,0
325.8191,325.99353,70,70,0
326.16794,326.42075,82,77,0
326.16794,326.42075,78,64,0
326.16794,326.42075,70,64,0
326.42075,326.505,84,77,0
326.42075,326.505,72,64,0
326.505,326.8539,85,81,0
326.505,326.8539,77,68,0
326.505,326.8539,73,68,0
326.8539,327.10532,78,67,0
326.8539,327.10532,75,67,0
326.8539,327.10532,73,67,0
326.8539,327.10532,85,79,0
327.10532,327.18912,84,75,0
327.10532,327.18912,72,63,0
327.18912,327.53998,82,82,0
327.18912,327.53998,77,69,0
327.18912,327.53998,70,69,0
327.53998,327.79138,70,67,0
327.53998,327.79138,68,67,0
327.53998,327.79138,75,67,0
327.53998,327.79138,80,79,0
327.79138,327.87518,78,74,0
327.79138,327.87518,66,62,0
327.87518,328.04666,65,66,0
327.87518,328.04666,77,78,0
327.87518,328.04666,73,66,0
328.22006,328.30408,45,64,0
328.30408,328.38727,46,64,0
328.38727,328.47015,48,66,0
328.47015,328.5526,49,67,0
328.5526,328.63474,51,67,0
328.63474,328.71658,53,68,0
328.71658,328.79813,55,69,0
328.79813,328.87924,57,69,0
328.87924,328.96005,58,70,0
328.96005,329.0406,60,71,0
329.0406,329.1208,61,71,0
329.1208,329.2006,63,72,0
329.2006,329.28015,65,73,0
329.28015,329.3594,67,73,0
329.3594,329.43835,69,74,0
329.43835,329.5169,70,74,0
329.5169,329.59518,72,75,0
329.59518,329.67322,73,77,0
329.67322,329.75092,75,77,0
329.75092,329.82828,77,78,0
329.82828,329.90536,79,77,0
329.90536,329.98218,81,77,0
329.98218,330.05872,82,78,0
330.05872,330.1349,84,79,0
330.1349,330.2108,85,80,0
330.2108,330.28644,87,80,0
330.28644,330.36182,89,81,0
330.36182,330.4564,91,82,0
330.4564,330.5457,93,83,0
330.5457,330.70737,82,92,0
330.5457,330.70737,94,92,0
330.78888,330.8704,96,85,0
330.8704,331.0283,91,91,0
330.8704,331.0283,94,91,0
330.8704,331.0283,85,77,0
331.0283,331.1862,93,85,0
331.0283,331.1862,84,72,0
331.0283,331.1862,90,85,0
331.1862,331.5214,94,90,0
331.1862,331.5214,91,90,0
331.1862,331.5214,85,75,0
331.5214,331.8355,96,85,0
331.5214,331.8355,91,85,0
331.5214,331.8355,84,72,0
331.8355,332.15985,92,88,0
331.8355,332.15985,84,74,0
331.8355,332.15985,80,74,0
332.15985,332.49564,87,85,0
332.15985,332.49564,80,72,0
332.15985,332.49564,75,72,0
332.49564,332.81476,89,88,0
332.49564,332.81476,80,74,0
332.49564,332.81476,77,74,0
332.81476,333.15186,87,85,0
332.81476,333.15186,80,72,0
332.81476,333.15186,75,72,0
333.15186,333.47272,84,83,0
333.15186,333.47272,75,70,0
333.15186,333.47272,72,70,0
333.47272,333.8101,80,80,0
333.47272,333.8101,72,68,0
333.47272,333.8101,68,68,0
333.8101,334.13266,77,83,0
333.8101,334.13266,68,70,0
333.8101,334.13266,65,70,0
334.13266,334.47552,75,80,0
334.13266,334.47552,67,68,0
334.13266,334.47552,63,68,0
334.47552,334.63724,72,80,0
334.47552,334.63724,68,68,0
334.47552,334.63724,60,68,0
334.79898,334.87323,63,66,0
334.87323,334.94748,65,61,0
334.94748,335.02176,63,65,0
335.02176,335.096,65,61,0
335.096,335.39044,62,81,0
335.39044,335.48425,65,71,0
335.48425,335.57782,68,73,0
335.57782,335.6711,71,75,0
335.6711,335.76385,74,77,0
335.76385,335.8566,77,79,0
335.8566,335.94836,80,81,0
335.94836,336.04056,83,83,0
336.04056,336.13422,86,85,0
336.13422,336.22946,98,87,0
336.22946,336.37827,99,89,0
336.22946,336.37827,87,89,0
336.52902,336.59784,75,75,0
336.52902,336.59784,82,89,0
336.52902,336.59784,70,75,0
336.66666,336.73846,75,70,0
336.66666,336.73846,82,83,0
336.66666,336.73846,70,70,0
336.81024,336.95447,82,89,0
336.81024,336.95447,75,75,0
336.81024,336.95447,70,75,0
337.0987,337.24652,81,83,0
337.0987,337.24652,75,70,0
337.0987,337.24652,69,70,0
337.24652,337.40225,82,87,0
337.24652,337.40225,75,73,0
337.24652,337.40225,70,73,0
337.40225,337.69635,84,91,0
337.40225,337.69635,75,77,0
337.40225,337.69635,72,77,0
337.69635,338.01382,79,89,0
337.69635,338.01382,67,75,0
337.69635,338.01382,73,75,0
337.69635,338.01382,75,75,0
338.01382,338.16312,80,88,0
338.01382,338.16312,72,74,0
338.01382,338.16312,68,74,0
338.3124,338.3842,63,66,0
338.3842,338.45596,65,61,0
338.45596,338.52774,63,65,0
338.52774,338.5995,65,61,0
338.5995,338.88565,62,81,0
338.88565,338.97946,65,71,0
338.97946,339.07303,68,73,0
339.07303,339.16632,71,75,0
339.16632,339.25854,74,77,0
339.25854,339.3505,77,79,0
339.3505,339.4431,80,81,0
339.4431,339.53635,83,83,0
339.53635,339.63,86,85,0
339.63,339.72458,98,87,0
339.72458,339.87164,99,89,0
339.72458,339.87164,87,89,0
340.0187,340.08627,75,75,0
340.0187,340.08627,82,89,0
340.0187,340.08627,70,75,0
340.15387,340.22363,75,70,0
340.15387,340.22363,82,83,0
340.15387,340.22363,70,70,0
340.29343,340.43628,82,89,0
340.29343,340.43628,75,75,0
340.29343,340.43628,70,75,0
340.43628,340.57913,84,75,0
340.43628,340.57913,75,63,0
340.43628,340.57913,72,63,0
340.57913,340.7322,81,83,0
340.57913,340.7322,75,70,0
340.57913,340.7322,69,70,0
340.7322,340.88525,82,87,0
340.7322,340.88525,75,73,0
340.7322,340.88525,70,73,0
340.88525,341.23007,84,91,0
340.88525,341.23007,75,77,0
340.88525,341.23007,72,77,0
341.23007,341.58746,79,89,0
341.23007,341.58746,67,75,0
341.23007,341.58746,73,75,0
341.23007,341.58746,75,75,0
341.58746,342.01584,80,102,0
341.58746,342.01584,77,85,0
341.58746,342.01584,68,78,0
341.58746,342.01584,72,84,0
342.01584,342.13074,75,93,0
342.1435,342.71298,75,93,0
342.1435,342.71298,72,79,0
342.1435,342.71298,63,79,0
342.98505,343.12106,84,88,0
342.98505,343.12106,80,74,0
342.98505,343.12106,72,74,0
343.12106,343.2651,85,86,0
343.12106,343.2651,82,73,0
343.12106,343.2651,73,73,0
343.2651,343.69547,89,102,0
343.2651,343.69547,85,88,0
343.2651,343.69547,77,82,0
343.69547,343.8104,87,93,0
343.69547,343.8104,84,79,0
343.69547,343.8104,75,79,0
343.82315,344.3926,87,93,0
343.82315,344.3926,84,79,0
343.82315,344.3926,75,79,0
344.66467,344.80072,84,88,0
344.66467,344.80072,80,74,0
344.66467,344.80072,72,74,0
344.80072,344.94476,85,86,0
344.80072,344.94476,82,73,0
344.80072,344.94476,73,73,0
344.94476,345.34085,89,102,0
344.94476,345.34085,85,88,0
344.94476,345.34085,77,82,0
345.34085,345.4732,87,93,0
345.34085,345.4732,84,79,0
345.34085,345.4732,75,79,0
345.4732,345.87686,89,102,0
345.4732,345.87686,85,88,0
345.4732,345.87686,77,82,0
345.87686,346.01385,87,93,0
345.87686,346.01385,84,79,0
345.87686,346.01385,75,79,0
346.01385,346.4086,89,102,0
346.01385,346.4086,85,88,0
346.01385,346.4086,77,82,0
346.4086,346.5475,87,93,0
346.4086,346.5475,84,79,0
346.4086,346.5475,75,79,0
346.5475,346.9451,89,102,0
346.5475,346.9451,85,88,0
346.5475,346.9451,77,82,0
346.9451,347.0642,87,93,0
346.9451,347.0642,84,79,0
346.9451,347.0642,75,79,0
347.07745,347.6469,87,93,0
347.07745,347.6469,84,79,0
347.07745,347.6469,75,79,0
347.6469,347.71582,77,79,0
347.6469,347.71582,84,79,0
347.6469,347.71582,89,93,0
347.78525,347.9264,91,96,0
347.78525,347.9264,84,81,0
347.78525,347.9264,79,81,0
347.9264,348.0706,92,100,0
347.9264,348.0706,84,85,0
347.9264,348.0706,80,85,0
348.0706,348.2178,94,105,0
348.0706,348.2178,82,89,0
348.0706,348.36017,87,89,0
348.2178,348.5025,96,110,0
348.2178,348.5025,92,110,0
348.2178,348.5025,84,93,0
349.07193,349.14993,64,93,0
349.07193,349.14993,52,79,0
349.07193,349.14993,55,79,0
349.07193,349.14993,60,93,0
349.2279,349.30588,64,89,0
349.2279,349.30588,52,75,0
349.2279,349.30588,55,75,0
349.2279,349.30588,60,89,0
349.38388,349.53986,64,93,0
349.38388,349.53986,52,79,0
349.38388,349.53986,55,79,0
349.38388,349.53986,60,93,0
349.69583,349.8624,64,88,0
349.69583,349.8624,52,74,0
349.69583,349.8624,55,74,0
349.69583,349.8624,60,88,0
349.99988,350.29486,64,92,0
349.90112,350.29486,52,78,0
349.93405,350.29486,55,78,0
349.96695,350.29486,60,92,0
350.5726,350.86758,64,93,0
350.4749,350.86758,52,79,0
350.50748,350.86758,55,79,0
350.54004,350.86758,60,93,0
351.14603,351.42426,63,93,0
351.04782,351.42426,51,79,0
351.08057,351.42426,55,79,0
351.11328,351.42426,61,93,0
351.7025,352.01346,68,102,0
351.7025,352.01346,60,86,0
351.7025,352.01346,56,86,0
0.0,0.545455,39,75,0
0.0,0.545455,27,63,0
0.8181825,0.9279388,57,47,0
0.8181825,0.9279388,52,40,0
0.8181825,0.9279388,49,40,0
0.9279388,1.0366355,58,50,0
0.9279388,1.0366355,53,42,0
0.9279388,1.0366355,50,42,0
1.0366355,1.1441634,59,53,0
1.0366355,1.1441634,54,45,0
1.0366355,1.1441634,51,45,0
1.1441634,1.2505472,60,55,0
1.1441634,1.2505472,55,46,0
1.1441634,1.2505472,52,46,0
1.2505472,1.3558111,61,58,0
1.2505472,1.3558111,56,49,0
1.2505472,1.3558111,53,49,0
1.3558111,1.4599787,62,61,0
1.3558111,1.4599787,57,61,0
1.3558111,1.4599787,53,51,0
1.4599787,1.6099787,55,63,0
2.0599787,2.2195532,46,50,0
2.0599787,2.2195532,39,42,0
2.742931,3.432586,59,32,0
2.742931,3.432586,50,28,0
3.432586,3.794119,58,28,0
3.432586,3.794119,51,23,0
4.155652,4.3068147,59,42,0
4.155652,4.3068147,44,36,0
4.295187,4.4463496,43,33,0
4.295187,4.4463496,58,39,0
4.434722,4.585885,38,33,0
4.434722,4.585885,52,40,0
4.574257,4.72542,39,35,0
4.574257,4.72542,51,42,0
4.713792,4.864955,44,39,0
4.713792,4.864955,59,47,0
4.853327,5.00449,43,38,0
4.853327,5.00449,58,45,0
4.9928617,5.144025,38,39,0
4.9928617,5.144025,52,47,0
5.1323967,5.28356,39,40,0
5.1323967,5.28356,51,47,0
5.271932,5.423041,44,44,0
5.271932,5.423041,59,53,0
5.411467,5.561877,43,43,0
5.411467,5.561877,58,50,0
5.550356,5.700073,38,44,0
5.550356,5.700073,52,53,0
5.688605,5.837635,39,46,0
5.688605,5.837635,51,55,0
5.8262196,5.9745693,44,52,0
5.8262196,5.9745693,59,61,0
5.963206,6.110882,43,49,0
5.963206,6.110882,58,58,0
6.0995693,6.2465773,38,49,0
6.0995693,6.2465773,52,59,0
6.235316,6.381662,39,52,0
6.235316,6.381662,51,61,0
6.370451,6.516141,44,58,0
6.370451,6.516141,59,70,0
6.5049806,6.65002,43,55,0
6.5049806,6.65002,58,64,0
6.638909,6.783304,38,55,0
6.638909,6.783304,52,66,0
6.772242,6.9047904,39,57,0
6.772242,6.9047904,51,68,0
6.9047904,7.4762197,51,75,0
6.9047904,7.4762197,39,63,0
6.9047904,7.4762197,44,63,0
7.761934,7.8741784,58,47,0
7.761934,7.8741784,53,40,0
7.761934,7.8741784,50,40,0
7.8741784,7.980061,59,50,0
7.8741784,7.980061,54,42,0
7.8741784,7.980061,51,42,0
7.980061,8.085447,60,53,0
7.980061,8.085447,55,45,0
7.980061,8.085447,52,45,0
8.085447,8.190099,61,55,0
8.085447,8.190099,56,46,0
8.085447,8.190099,53,46,0
8.190099,8.294146,62,58,0
8.190099,8.294146,57,49,0
8.190099,8.294146,54,49,0
8.294146,8.397594,63,61,0
8.294146,8.397594,58,61,0
8.294146,8.397594,54,51,0
8.397594,8.547595,56,63,0
8.997595,9.171045,47,45,0
8.997595,9.171045,39,37,0
9.691397,10.373215,64,32,0
9.691397,10.373215,55,28,0
9.691397,10.373215,58,28,0
10.373215,10.714124,64,28,0
10.373215,10.714124,59,23,0
10.373215,10.714124,56,23,0
11.055033,11.205496,61,42,0
11.055033,11.205496,46,36,0
11.193922,11.344385,44,33,0
11.193922,11.344385,59,39,0
11.33281,11.4832735,39,33,0
11.33281,11.4832735,54,40,0
11.4717,11.622163,44,35,0
11.4717,11.622163,52,42,0
11.610589,11.761052,46,39,0
11.610589,11.761052,61,47,0
11.749477,11.8999405,44,38,0
11.749477,11.8999405,59,45,0
11.888367,12.03883,39,39,0
11.888367,12.03883,54,47,0
12.027256,12.177666,44,40,0
12.027256,12.177666,52,47,0
12.166144,12.315914,46,44,0
12.166144,12.315914,61,53,0
12.304394,12.453688,44,43,0
12.304394,12.453688,59,50,0
12.44222,12.591041,39,44,0
12.44222,12.591041,54,53,0
12.579625,12.727975,44,46,0
12.579625,12.727975,52,55,0
12.716611,12.864338,46,52,0
12.716611,12.864338,61,61,0
12.852975,13.000239,44,49,0
12.852975,13.000239,59,58,0
12.988927,13.135731,39,49,0
12.988927,13.135731,54,59,0
13.12447,13.270816,44,52,0
13.12447,13.270816,52,61,0
13.259605,13.405345,46,58,0
13.259605,13.405345,61,70,0
13.3941345,13.539424,44,55,0
13.3941345,13.539424,59,64,0
13.528263,13.673104,39,55,0
13.528263,13.673104,54,66,0
13.661993,13.79513,44,57,0
13.661993,13.79513,52,68,0
13.79513,14.340585,51,75,0
13.79513,14.340585,39,63,0
13.79513,14.340585,45,63,0
14.613312,14.719194,54,45,0
14.719194,14.824212,55,47,0
14.824212,14.92838,56,50,0
14.92838,15.031829,57,52,0
15.031829,15.134452,58,55,0
15.134452,15.236148,59,57,0
15.236148,15.3861475,60,71,0
15.836147,15.994878,51,64,0
15.836147,15.994878,39,54,0
16.47107,17.155066,63,67,0
16.47107,17.155066,51,56,0
16.47107,17.155066,57,67,0
17.155066,17.444921,39,62,0
17.155066,17.444921,27,52,0
18.024632,18.131775,56,49,0
18.131775,18.237783,57,51,0
18.237783,18.342678,58,55,0
18.342678,18.446486,59,57,0
18.446486,18.549227,60,60,0
18.549227,18.65092,61,62,0
18.65092,18.800922,62,71,0
19.250921,19.405561,51,64,0
19.250921,19.405561,39,54,0
19.869478,20.536146,68,70,0
19.869478,20.536146,58,58,0
19.869478,20.536146,62,70,0
19.869478,20.536146,56,58,0
20.536146,20.811375,39,65,0
20.536146,20.811375,27,54,0
21.086605,21.222353,46,64,0
21.086605,21.222353,34,54,0
21.35549,21.421473,51,55,0
21.35549,21.421473,39,46,0
21.487263,21.55267,53,58,0
21.487263,21.55267,41,49,0
21.617699,21.682354,55,60,0
21.617699,21.682354,43,51,0
21.746824,21.810835,56,62,0
21.746824,21.810835,44,52,0
21.874485,21.937954,58,65,0
21.874485,21.937954,46,55,0
22.001068,22.063744,60,67,0
22.001068,22.063744,48,56,0
22.126244,22.189007,61,70,0
22.126244,22.189007,49,59,0
22.635464,22.700588,51,64,0
22.635464,22.700588,39,54,0
23.147625,23.657774,55,59,0
23.147625,23.788778,67,70,0
23.788778,23.919783,61,53,0
23.919783,24.050787,58,53,0
24.050787,24.181791,51,54,0
24.181791,24.312796,67,63,0
24.312796,24.4438,61,58,0
24.4438,24.574234,58,58,0
24.574234,24.70467,51,58,0
24.70467,24.835104,67,63,0
24.835104,24.965538,61,58,0
24.965538,25.095974,58,58,0
25.095974,25.22622,51,59,0
25.22622,25.35628,67,68,0
25.35628,25.487093,61,60,0
25.487093,25.618671,58,61,0
25.618671,25.751026,51,62,0
25.751026,25.884161,61,70,0
25.884161,26.017893,55,63,0
26.017893,26.152624,51,63,0
26.152624,26.287506,46,63,0
26.287506,26.426384,55,72,0
26.426384,26.574963,49,66,0
26.574963,26.734728,46,65,0
26.734728,26.90748,39,66,0
26.90748,27.128069,44,72,0
26.90748,27.128069,32,61,0
27.348658,27.649311,63,72,0
27.348658,27.649311,51,61,0
27.649311,27.990221,56,59,0
27.649311,27.990221,60,70,0
27.649311,27.990221,68,70,0
27.990221,28.075933,51,78,0
27.990221,28.075933,39,66,0
28.333076,28.499744,56,79,0
28.333076,28.499744,44,67,0
28.66641,29.009548,39,67,0
28.66641,29.009548,27,56,0
29.009548,29.351051,44,72,0
29.009548,29.351051,32,61,0
29.351051,29.673162,51,56,0
29.351051,29.673162,63,67,0
29.673162,30.012146,56,58,0
29.673162,30.012146,60,69,0
29.673162,30.012146,68,69,0
30.012146,30.097374,51,73,0
30.012146,30.097374,39,61,0
30.353056,30.514345,56,79,0
30.353056,30.514345,44,67,0
30.675636,31.011795,39,67,0
30.675636,31.011795,27,56,0
31.011795,31.345127,44,72,0
31.011795,31.345127,32,61,0
31.345127,31.65844,51,56,0
31.345127,31.65844,63,67,0
31.65844,31.991774,56,58,0
31.65844,31.991774,60,69,0
31.65844,31.991774,68,69,0
31.991774,32.143288,51,67,0
31.991774,32.143288,39,56,0
32.3157,32.48237,56,70,0
32.3157,32.48237,44,59,0
32.68507,32.917213,54,68,0
32.634396,32.917213,46,57,0
32.58372,32.917213,39,57,0
33.051144,33.274357,57,68,0
33.0065,33.274357,51,68,0
32.917213,33.274357,41,57,0
32.961857,33.408287,48,57,0
33.274357,33.408287,48,56,0
33.408287,33.6315,63,67,0
33.363644,33.6315,57,67,0
33.319,33.6315,53,56,0
33.76543,34.12257,61,69,0
33.6315,34.12257,46,58,0
33.676144,34.12257,53,58,0
33.720787,34.12257,58,69,0
34.12257,34.48621,42,65,0
34.12257,34.48621,30,55,0
34.48621,34.83915,41,65,0
34.48621,34.83915,29,55,0
34.83915,35.226246,49,63,0
34.83915,35.226246,37,53,0
35.226246,35.428947,46,72,0
35.226246,35.428947,34,61,0
35.631653,35.936344,65,72,0
35.631653,35.936344,53,61,0
35.936344,36.273422,58,59,0
35.936344,36.273422,61,70,0
35.936344,36.273422,70,70,0
36.273422,36.36013,53,78,0
36.273422,36.36013,41,66,0
36.620243,36.78691,58,79,0
36.620243,36.78691,46,67,0
36.95358,37.296715,41,67,0
36.95358,37.296715,29,56,0
37.296715,37.638218,46,72,0
37.296715,37.638218,34,61,0
37.638218,37.96033,53,56,0
37.638218,37.96033,65,67,0
37.96033,38.30124,58,58,0
37.96033,38.30124,61,69,0
37.96033,38.30124,70,69,0
38.30124,38.386467,53,73,0
38.30124,38.386467,41,61,0
38.642147,38.80344,58,79,0
38.642147,38.80344,46,67,0
38.96473,39.32435,46,67,0
38.96473,39.32435,34,56,0
39.32435,39.49776,39,72,0
39.32435,39.49776,27,61,0
39.67117,39.814026,63,55,0
39.67117,39.814026,67,66,0
39.67117,39.814026,61,55,0
39.98448,40.15115,51,69,0
39.98448,40.15115,39,59,0
40.317814,40.460674,63,63,0
40.317814,40.460674,60,53,0
40.631126,40.797794,51,67,0
40.631126,40.797794,39,57,0
40.964462,41.10732,63,61,0
40.964462,41.10732,58,51,0
41.27777,41.44444,46,64,0
41.27777,41.44444,34,54,0
41.611107,41.753963,58,50,0
41.611107,41.753963,62,60,0
41.611107,41.753963,56,50,0
41.92442,42.091084,51,66,0
41.92442,42.091084,39,56,0
42.25775,42.400608,58,62,0
42.25775,42.400608,55,52,0
42.571064,42.904396,41,57,0
42.904396,43.21771,56,62,0
42.571064,43.21771,53,68,0
43.21771,43.558617,49,61,0
43.21771,43.558617,37,51,0
43.558617,43.886787,58,53,0
43.558617,43.886787,53,45,0
43.886787,44.201984,48,54,0
43.886787,44.201984,36,45,0
44.201984,44.527927,58,40,0
44.201984,44.527927,60,48,0
44.201984,44.527927,52,40,0
44.527927,44.84029,41,58,0
44.527927,44.84029,29,49,0
44.84029,45.166378,60,55,0
44.84029,45.166378,56,46,0
44.84029,45.166378,53,46,0
45.166378,45.329456,51,56,0
45.166378,45.329456,39,47,0
45.497093,45.83083,58,52,0
45.497093,45.83083,51,44,0
45.83083,46.156918,56,52,0
45.83083,46.156918,51,44,0
45.83083,46.156918,44,44,0
46.809093,47.14617,56,66,0
46.809093,47.14617,44,56,0
47.14617,47.497047,49,68,0
47.14617,47.497047,37,57,0
47.497047,47.82522,58,59,0
47.497047,47.82522,53,50,0
47.82522,48.140415,48,69,0
47.82522,48.140415,36,58,0
48.140415,48.466354,60,52,0
48.140415,48.466354,64,62,0
48.140415,48.466354,58,52,0
48.466354,48.77872,41,71,0
48.466354,48.77872,29,60,0
48.77872,49.10481,65,67,0
48.77872,49.10481,60,67,0
48.77872,49.10481,56,67,0
49.10481,49.267887,51,70,0
49.10481,49.267887,39,59,0
49.43459,49.76632,67,65,0
49.43459,49.76632,58,55,0
49.43459,49.76632,61,55,0
49.43459,49.76632,63,55,0
49.76632,49.93677,68,65,0
49.76632,49.93677,63,55,0
49.76632,49.93677,56,55,0
50.107227,50.368397,71,64,0
50.107227,50.368397,68,64,0
50.107227,50.368397,59,64,0
50.107227,50.368397,62,64,0
50.368397,50.44828,63,58,0
50.368397,50.44828,68,58,0
50.368397,50.44828,60,58,0
50.368397,50.44828,72,58,0
50.457157,50.62957,63,65,0
50.457157,50.62957,68,65,0
50.457157,50.62957,72,65,0
50.457157,50.62957,60,65,0
50.801983,51.051983,69,66,0
50.75888,51.051983,63,56,0
50.715775,51.051983,53,56,0
51.135315,51.396946,61,71,0
51.09365,51.396946,53,60,0
51.051983,51.396946,46,60,0
51.484154,51.73696,54,66,0
51.440548,51.73696,46,56,0
51.396946,51.73696,39,56,0
51.82123,52.08241,49,62,0
51.73696,52.08241,34,52,0
51.7791,52.126266,41,52,0
52.170128,52.421524,39,62,0
52.170128,52.421524,27,52,0
52.50532,52.76848,49,62,0
52.463425,52.76848,41,52,0
52.421524,52.76848,34,52,0
52.8562,53.107597,51,61,0
52.81234,53.107597,46,51,0
52.76848,53.107597,39,51,0
53.191395,53.449574,49,66,0
53.149494,53.449574,41,56,0
53.107597,53.449574,34,56,0
53.536278,53.62249,33,50,0
53.62249,53.707718,34,50,0
53.707718,53.792786,36,51,0
53.792786,53.87753,37,51,0
53.87753,53.9618,39,51,0
53.9618,54.045757,41,52,0
54.045757,54.129555,43,53,0
54.129555,54.213043,45,53,0
54.213043,54.296223,46,54,0
54.296223,54.379097,48,55,0
54.379097,54.461514,49,55,0
54.461514,54.54393,51,56,0
54.54393,54.6259,53,56,0
54.6259,54.70757,55,56,0
54.70757,54.788944,57,57,0
54.788944,54.870026,58,57,0
54.870026,54.950962,60,58,0
54.950962,55.031605,61,59,0
55.031605,55.11182,63,59,0
55.11182,55.19175,65,60,0
55.19175,55.271397,67,61,0
55.271397,55.35076,69,61,0
55.7037,55.865864,39,73,0
55.7037,55.865864,27,62,0
56.028027,56.2045,51,66,0
56.028027,56.2045,39,56,0
56.380966,56.721878,63,72,0
56.380966,56.721878,51,61,0
56.721878,57.06086,53,59,0
56.721878,57.06086,60,59,0
56.721878,57.06086,65,70,0
57.06086,57.41589,60,66,0
57.06086,57.41589,56,56,0
57.06086,57.41589,48,56,0
57.41589,57.760715,61,72,0
57.41589,57.760715,56,72,0
57.41589,57.760715,49,61,0
57.760715,58.12,53,66,0
57.760715,58.12,41,56,0
58.12,58.470875,58,72,0
58.12,58.470875,53,72,0
58.12,58.470875,46,60,0
58.470875,58.863033,46,69,0
58.470875,58.863033,34,58,0
58.863033,59.276825,51,77,0
58.863033,59.276825,39,65,0
59.276825,59.753014,39,71,0
59.276825,59.753014,27,60,0
59.753014,59.97858,44,79,0
59.753014,59.97858,32,67,0
60.204144,60.50479,63,79,0
60.204144,60.50479,51,67,0
60.204144,60.50479,60,67,0
60.50479,60.85567,56,64,0
60.50479,60.85567,60,77,0
60.50479,60.85567,68,77,0
60.85567,60.940895,51,85,0
60.85567,60.940895,39,72,0
61.19658,61.363247,56,86,0
61.19658,61.363247,44,73,0
61.52991,61.87305,39,73,0
61.52991,61.87305,27,61,0
61.87305,62.214554,44,79,0
61.87305,62.214554,32,67,0
62.214554,62.536663,51,61,0
62.214554,62.536663,63,73,0
62.214554,62.536663,60,61,0
62.536663,62.893806,56,63,0
62.536663,62.893806,60,75,0
62.536663,62.893806,68,75,0
62.893806,62.979034,51,80,0
62.893806,62.979034,39,67,0
63.23472,63.396008,56,86,0
63.23472,63.396008,44,73,0
63.557297,63.893456,39,73,0
63.557297,63.893456,27,61,0
63.893456,64.22679,44,79,0
63.893456,64.22679,32,67,0
64.22679,64.5401,51,61,0
64.22679,64.5401,63,73,0
64.22679,64.5401,60,61,0
64.5401,64.873436,56,63,0
64.5401,64.873436,60,75,0
64.5401,64.873436,68,75,0
64.873436,65.02495,51,73,0
64.873436,65.02495,39,61,0
65.197365,65.36403,56,77,0
65.197365,65.36403,44,64,0
65.57382,65.80596,54,74,0
65.52137,65.80596,46,62,0
65.468925,65.80596,39,62,0
65.939896,66.16311,57,74,0
65.89525,66.16311,51,74,0
65.80596,66.16311,41,62,0
65.85061,66.297035,48,62,0
66.297035,66.52025,69,73,0
66.252396,66.52025,63,73,0
66.20775,66.52025,60,61,0
66.16311,66.52025,53,61,0
66.654175,67.01132,61,75,0
66.609535,67.01132,53,75,0
66.564896,67.01132,46,63,0
67.01132,67.374954,54,71,0
67.01132,67.374954,42,60,0
67.374954,67.7279,53,71,0
67.374954,67.7279,41,60,0
67.7279,68.115,49,69,0
67.7279,68.115,37,58,0
68.115,68.31107,46,79,0
68.115,68.31107,34,67,0
68.50715,68.813545,65,79,0
68.50715,68.813545,53,67,0
68.50715,68.813545,61,79,0
68.813545,69.16037,58,64,0
68.813545,69.16037,61,77,0
68.813545,69.16037,70,77,0
69.16037,69.24559,53,85,0
69.16037,69.24559,41,72,0
69.501274,69.667946,58,86,0
69.501274,69.667946,46,73,0
69.83461,70.17775,41,73,0
69.83461,70.17775,29,61,0
70.17775,70.51925,46,79,0
70.17775,70.51925,34,67,0
70.51925,70.84136,53,61,0
70.51925,70.84136,65,73,0
70.51925,70.84136,61,61,0
70.84136,71.1985,58,63,0
70.84136,71.1985,61,75,0
70.84136,71.1985,70,75,0
71.1985,71.28373,53,80,0
71.1985,71.28373,41,67,0
71.53941,71.70071,58,86,0
71.53941,71.70071,46,73,0
71.86199,72.22161,46,73,0
71.86199,72.22161,34,61,0
72.22161,72.39503,39,79,0
72.22161,72.39503,27,67,0
72.568436,72.71129,72,72,0
72.71129,72.881744,70,70,0
72.568436,72.881744,63,60,0
72.568436,72.881744,61,60,0
72.568436,72.881744,67,60,0
72.881744,73.048416,51,75,0
73.21508,73.35794,70,72,0
73.35794,73.52839,68,70,0
73.21508,73.52839,63,69,0
73.21508,73.52839,60,58,0
73.52839,73.69506,51,73,0
73.861725,74.004585,68,72,0
74.004585,74.17503,67,70,0
73.861725,74.17503,63,67,0
73.861725,74.17503,58,56,0
74.17503,74.341705,46,70,0
74.50837,74.65123,67,72,0
74.65123,74.821686,65,70,0
74.50837,74.821686,58,55,0
74.50837,74.821686,62,66,0
74.50837,74.821686,56,55,0
74.821686,74.98835,51,72,0
75.155014,75.297874,65,72,0
75.297874,75.46833,63,70,0
75.155014,75.46833,58,68,0
75.155014,75.46833,55,57,0
75.46833,75.80166,41,62,0
75.80166,75.94452,61,72,0
75.94452,76.114975,60,70,0
75.80166,76.114975,56,68,0
75.46833,76.114975,53,74,0
76.114975,76.45588,49,74,0
76.114975,76.45588,37,62,0
76.45588,76.78405,58,64,0
76.45588,76.78405,53,55,0
76.78405,77.09925,48,75,0
76.78405,77.09925,36,63,0
77.09925,77.42519,58,57,0
77.09925,77.42519,60,68,0
77.09925,77.42519,52,57,0
77.42519,77.73756,41,78,0
77.42519,77.73756,29,66,0
77.73756,78.063644,60,73,0
77.73756,78.063644,56,73,0
77.73756,78.063644,53,73,0
78.063644,78.23313,51,69,0
78.063644,78.23313,39,57,0
78.402626,78.735504,58,63,0
78.402626,78.735504,51,54,0
78.735504,79.06159,56,71,0
78.735504,79.06159,51,60,0
78.735504,79.06159,44,60,0
79.71376,80.05084,56,72,0
79.71376,80.05084,44,61,0
80.05084,80.40172,49,74,0
80.05084,80.40172,37,62,0
80.40172,80.72989,58,64,0
80.40172,80.72989,53,55,0
80.72989,81.04509,48,75,0
80.72989,81.04509,36,63,0
81.04509,81.371025,60,57,0
81.04509,81.371025,64,68,0
81.04509,81.371025,58,57,0
81.371025,81.683395,41,78,0
81.371025,81.683395,29,66,0
81.683395,82.009476,65,73,0
81.683395,82.009476,60,73,0
81.683395,82.009476,56,73,0
82.009476,82.17345,51,77,0
82.009476,82.17345,39,64,0
82.34016,82.67006,67,71,0
82.34016,82.67006,58,60,0
82.34016,82.67006,61,60,0
82.34016,82.67006,63,60,0
82.67006,82.84051,68,71,0
82.67006,82.84051,63,60,0
82.67006,82.84051,56,60,0
83.01096,83.27213,71,70,0
83.01096,83.27213,68,70,0
83.01096,83.27213,59,70,0
83.01096,83.27213,62,70,0
83.27213,83.35202,63,63,0
83.27213,83.35202,68,63,0
83.27213,83.35202,60,63,0
83.27213,83.35202,72,63,0
83.36089,83.53331,63,71,0
83.36089,83.53331,68,71,0
83.36089,83.53331,72,71,0
83.36089,83.53331,60,71,0
83.70572,83.95572,69,72,0
83.57641,83.95572,53,61,0
83.619514,83.95572,60,61,0
83.66262,83.95572,63,61,0
84.039055,84.30068,61,78,0
83.99739,84.30068,53,66,0
83.95572,84.30068,46,66,0
84.38789,84.6407,66,72,0
84.344284,84.6407,58,61,0
84.30068,84.6407,51,61,0
84.72497,84.986145,61,68,0
84.68284,84.986145,53,57,0
84.6407,84.986145,46,57,0
85.07387,85.325264,54,68,0
85.03001,85.325264,46,57,0
84.986145,85.325264,39,57,0
85.40906,85.67222,49,68,0
85.36716,85.67222,41,57,0
85.325264,85.67222,34,57,0
85.75993,86.01134,54,67,0
85.71608,86.01134,46,56,0
85.67222,86.01134,39,56,0
86.09513,86.35331,61,72,0
86.05323,86.35331,53,61,0
86.01134,86.35331,46,61,0
86.44002,86.524025,33,55,0
86.524025,86.60723,34,55,0
86.60723,86.69011,36,56,0
86.69011,86.77255,37,56,0
86.77255,86.854706,39,56,0
86.854706,86.936554,41,57,0
86.936554,87.018074,43,58,0
87.018074,87.09918,45,58,0
87.09918,87.18,46,59,0
87.18,87.26054,48,60,0
87.26054,87.340744,49,60,0
87.340744,87.42056,51,61,0
87.42056,87.5001,53,61,0
87.5001,87.57935,55,61,0
87.57935,87.658295,57,62,0
87.658295,87.73686,58,62,0
87.73686,87.81515,60,63,0
87.81515,87.893166,61,64,0
87.893166,87.97089,63,64,0
87.97089,88.04823,65,66,0
88.04823,88.12531,67,67,0
88.12531,88.20213,69,65,0
88.20213,88.27866,70,66,0
88.27866,88.35483,72,67,0
88.35483,88.43074,73,68,0
88.43074,88.5064,75,69,0
88.5064,88.58177,77,70,0
88.58177,88.676346,79,71,0
88.676346,88.73587,81,72,0
89.11857,89.28073,39,80,0
89.11857,89.28073,27,68,0
89.442894,89.61937,63,72,0
89.442894,89.61937,51,61,0
89.79584,90.13675,75,79,0
89.79584,90.13675,72,67,0
89.79584,90.13675,67,67,0
89.79584,90.13675,63,67,0
90.13675,90.47573,65,64,0
90.13675,90.47573,72,64,0
90.13675,90.47573,77,77,0
90.47573,90.83076,72,72,0
90.47573,90.83076,68,61,0
90.47573,90.83076,60,61,0
90.83076,91.0321,73,72,0
90.83076,91.0321,68,61,0
90.83076,91.0321,61,61,0
91.233444,92.00267,51,69,0
91.233444,92.00267,39,58,0
92.00267,92.20676,39,61,0
92.00267,92.20676,27,51,0
92.410835,92.61492,44,61,0
92.410835,92.61492,32,51,0
93.227165,93.431244,36,55,0
93.227165,93.431244,24,47,0
93.63533,93.81825,48,41,0
93.63533,93.81825,36,34,0
93.90972,94.00118,48,39,0
93.90972,94.00118,36,33,0
94.00118,94.385796,49,44,0
94.00118,94.385796,40,44,0
94.385796,94.56652,40,42,0
94.385796,94.56652,28,35,0
94.65688,94.747246,48,44,0
94.65688,94.747246,40,36,0
94.747246,95.12699,51,49,0
94.747246,95.12699,41,40,0
95.12699,95.30771,41,47,0
95.12699,95.30771,29,39,0
95.39807,95.488434,49,45,0
95.39807,95.488434,41,37,0
95.488434,95.86818,53,51,0
95.488434,95.86818,43,44,0
95.86818,96.048904,43,48,0
95.86818,96.048904,31,39,0
96.13927,96.22963,52,45,0
96.13927,96.22963,43,39,0
96.22963,96.60699,55,51,0
96.22963,96.60699,44,51,0
96.60699,96.78771,44,51,0
96.60699,96.78771,32,42,0
96.878075,96.96843,53,51,0
96.878075,96.96843,44,43,0
96.96843,97.345795,56,56,0
96.96843,97.345795,44,48,0
97.345795,97.52543,44,56,0
97.345795,97.52543,32,47,0
97.61525,97.70507,54,52,0
97.61525,97.70507,44,45,0
97.70507,98.11048,55,55,0
97.70507,98.11048,43,46,0
98.11048,98.19718,67,52,0
98.11048,98.19718,55,52,0
98.28389,98.38193,67,54,0
98.28389,98.38193,55,54,0
98.479965,98.65238,69,60,0
98.479965,98.65238,57,60,0
98.65238,98.8248,67,56,0
98.65238,98.8248,55,56,0
98.8248,98.909065,67,56,0
98.8248,98.909065,55,56,0
98.99333,99.08209,67,56,0
98.99333,99.08209,55,56,0
99.17085,99.33845,67,65,0
99.17085,99.33845,55,65,0
99.50604,99.84124,71,53,0
99.50604,99.84124,62,53,0
99.50604,99.84124,65,53,0
99.50604,99.84124,67,53,0
99.84124,100.17644,72,49,0
99.84124,100.17644,67,49,0
99.84124,100.17644,60,49,0
100.17644,100.25931,48,50,0
100.25931,100.34218,52,51,0
100.34218,100.424904,55,52,0
100.424904,100.50732,59,53,0
100.50732,100.589584,60,54,0
100.589584,100.671555,64,56,0
100.671555,100.753525,67,57,0
100.753525,100.83519,71,57,0
100.83519,100.99794,72,62,0
100.99794,101.15981,60,56,0
101.15981,101.50972,73,58,0
101.15981,101.50972,61,49,0
101.50972,101.87982,74,62,0
101.50972,101.87982,62,52,0
101.87982,102.08961,75,65,0
101.87982,102.08961,63,55,0
102.2994,102.48232,51,41,0
102.2994,102.48232,39,34,0
102.57379,102.66525,51,39,0
102.57379,102.66525,39,33,0
102.66525,103.049866,52,44,0
102.66525,103.049866,43,44,0
103.049866,103.23059,43,42,0
103.049866,103.23059,31,35,0
103.32095,103.411316,51,44,0
103.32095,103.411316,43,36,0
103.411316,103.79106,54,49,0
103.411316,103.79106,44,40,0
103.79106,103.97179,44,47,0
103.79106,103.97179,32,39,0
104.06215,104.152504,52,45,0
104.06215,104.152504,44,37,0
104.152504,104.53226,56,51,0
104.152504,104.53226,46,44,0
104.53226,104.712975,46,48,0
104.53226,104.712975,34,39,0
104.80334,104.8937,55,45,0
104.80334,104.8937,46,38,0
104.8937,105.27106,58,51,0
104.8937,105.27106,47,51,0
105.27106,105.45178,47,51,0
105.27106,105.45178,35,42,0
105.542145,105.63251,56,51,0
105.542145,105.63251,47,43,0
105.63251,106.009865,59,56,0
105.63251,106.009865,47,48,0
106.009865,106.18951,47,56,0
106.009865,106.18951,35,47,0
106.27933,106.36914,57,52,0
106.27933,106.36914,47,45,0
106.36914,106.77455,58,55,0
106.36914,106.77455,46,46,0
106.77455,106.86125,70,52,0
106.77455,106.86125,58,52,0
106.94796,107.046,70,54,0
106.94796,107.046,58,54,0
107.144035,107.31645,72,60,0
107.144035,107.31645,60,60,0
107.31645,107.48887,70,56,0
107.31645,107.48887,58,56,0
107.48887,107.573135,70,56,0
107.48887,107.573135,58,56,0
107.6574,107.74616,70,56,0
107.6574,107.74616,58,56,0
107.83492,108.00252,70,65,0
107.83492,108.00252,58,65,0
108.17011,108.514946,74,53,0
108.04442,108.514946,58,53,0
108.08632,108.514946,65,53,0
108.12822,108.514946,68,53,0
108.514946,108.872086,75,49,0
108.514946,108.872086,67,49,0
108.514946,108.872086,63,49,0
108.872086,109.22923,63,48,0
108.872086,109.22923,59,40,0
108.872086,109.22923,51,40,0
109.22923,109.58637,63,45,0
109.22923,109.58637,58,38,0
109.22923,109.58637,51,38,0
109.58637,109.94351,51,48,0
109.58637,109.94351,47,40,0
109.58637,109.94351,39,40,0
109.94351,110.33061,51,45,0
109.94351,110.33061,46,38,0
109.94351,110.33061,39,38,0
110.33061,110.52416,39,45,0
110.33061,110.52416,27,45,0
110.71771,110.911255,37,58,0
110.71771,110.911255,25,49,0
111.104805,111.23267,55,45,0
111.104805,111.23267,53,38,0
111.2753,111.42144,55,47,0
111.2753,111.42144,53,39,0
111.47015,111.74124,55,49,0
111.47015,111.74124,53,41,0
111.831604,112.10938,55,45,0
111.831604,112.10938,53,38,0
112.20197,112.48499,55,45,0
112.20197,112.48499,53,38,0
112.57933,112.86235,55,45,0
112.57933,112.86235,53,38,0
112.95669,113.32706,36,45,0
113.32706,113.45349,55,47,0
113.32706,113.45349,52,39,0
113.495636,113.632866,55,47,0
113.495636,113.632866,52,39,0
113.67861,113.948135,55,50,0
113.67861,113.948135,52,42,0
114.03798,114.3075,55,45,0
114.03798,114.3075,52,38,0
112.95669,114.39735,48,53,0
114.39735,114.75882,46,55,0
114.39735,114.75882,34,46,0
114.75882,115.1118,53,38,0
114.75882,115.1118,55,45,0
115.1118,115.47324,36,45,0
115.47324,115.59897,55,47,0
115.47324,115.59897,52,39,0
115.640884,115.770966,55,47,0
115.640884,115.770966,52,39,0
115.81433,116.07451,52,42,0
115.81433,116.07451,55,50,0
116.16123,116.42141,55,45,0
116.16123,116.42141,52,38,0
115.1118,116.50813,48,53,0
116.50813,116.86691,46,55,0
116.50813,116.86691,34,46,0
116.86691,117.216225,55,45,0
116.86691,117.216225,53,38,0
117.216225,117.57551,36,45,0
117.216225,117.57551,48,53,0
117.57551,117.699165,58,39,0
117.57551,117.699165,55,39,0
117.57551,117.699165,60,47,0
117.74038,117.87047,60,47,0
117.74038,117.87047,58,39,0
117.74038,117.87047,55,39,0
117.91383,118.17529,60,50,0
117.91383,118.17529,58,42,0
117.91383,118.17529,55,42,0
118.262505,118.527214,60,45,0
118.262505,118.527214,55,38,0
118.262505,118.527214,58,38,0
118.61428,118.96586,41,46,0
118.96586,119.34209,60,45,0
118.96586,119.34209,56,38,0
118.61428,119.34209,53,55,0
119.34209,119.72184,49,58,0
119.34209,119.72184,37,49,0
119.72184,119.852684,65,45,0
119.72184,119.852684,55,38,0
119.72184,119.852684,58,38,0
119.89629,120.03437,58,39,0
119.89629,120.03437,65,47,0
119.89629,120.03437,55,39,0
120.08039,120.346664,65,49,0
120.08039,120.346664,55,41,0
120.08039,120.346664,58,41,0
120.43542,120.70328,65,45,0
120.43542,120.70328,58,38,0
120.43542,120.70328,55,38,0
120.792564,121.063644,65,45,0
120.792564,121.063644,55,38,0
121.15401,121.425095,55,38,0
121.15401,121.425095,65,45,0
121.51546,121.8769,48,53,0
121.51546,121.8769,36,45,0
121.8769,122.00848,55,39,0
121.8769,122.00848,64,47,0
122.05234,122.18392,55,39,0
122.05234,122.18392,64,47,0
122.227776,122.49094,55,42,0
122.227776,122.49094,64,50,0
122.57865,122.84181,64,45,0
122.57865,122.84181,55,38,0
122.929535,123.28831,46,55,0
122.929535,123.28831,34,46,0
123.28831,123.63763,65,45,0
123.28831,123.63763,53,38,0
123.28831,123.63763,56,38,0
123.63763,123.99907,48,53,0
123.63763,123.99907,36,45,0
123.99907,124.12694,55,39,0
123.99907,124.12694,64,47,0
124.16956,124.30353,55,40,0
124.16956,124.30353,64,48,0
124.348175,124.60835,55,43,0
124.348175,124.60835,64,50,0
124.695076,124.95525,64,46,0
124.695076,124.95525,55,39,0
125.04198,125.40076,46,57,0
125.04198,125.40076,34,48,0
125.40076,125.74971,53,40,0
125.40076,125.74971,65,48,0
125.40076,125.74971,56,40,0
125.74971,126.08852,46,58,0
125.74971,126.08852,34,49,0
126.08852,126.42185,58,41,0
126.08852,126.42185,56,41,0
126.08852,126.42185,62,41,0
126.08852,126.42185,68,50,0
126.42185,126.75494,27,53,0
126.42185,126.75494,39,62,0
126.75494,127.08157,55,46,0
126.75494,127.08157,61,46,0
126.75494,127.08157,58,46,0
126.75494,127.08157,63,54,0
127.08157,127.402214,67,68,0
127.08157,127.402214,58,57,0
127.08157,127.402214,61,57,0
127.08157,127.402214,63,57,0
127.402214,127.86262,73,59,0
127.402214,127.86262,61,49,0
127.402214,127.86262,63,49,0
127.402214,127.86262,67,49,0
127.86262,128.07538,44,79,0
127.86262,128.07538,32,67,0
128.28815,128.58543,63,79,0
128.28815,128.58543,51,67,0
128.28815,128.58543,60,67,0
128.58543,128.93631,56,64,0
128.58543,128.93631,60,77,0
128.58543,128.93631,68,77,0
128.93631,129.02303,51,85,0
128.93631,129.02303,39,72,0
129.28314,129.4498,56,86,0
129.28314,129.4498,44,73,0
129.61647,129.95961,39,73,0
129.61647,129.95961,27,61,0
129.95961,130.30112,44,79,0
129.95961,130.30112,32,67,0
130.30112,130.62323,51,61,0
130.30112,130.62323,63,73,0
130.30112,130.62323,60,61,0
130.62323,130.98036,56,63,0
130.62323,130.98036,60,75,0
130.62323,130.98036,68,75,0
130.98036,131.0656,51,80,0
130.98036,131.0656,39,67,0
131.32127,131.48256,56,86,0
131.32127,131.48256,44,73,0
131.64386,131.98001,39,73,0
131.64386,131.98001,27,61,0
131.98001,132.31335,44,79,0
131.98001,132.31335,32,67,0
132.31335,132.62666,51,61,0
132.31335,132.62666,63,73,0
132.31335,132.62666,60,61,0
132.62666,132.95999,56,63,0
132.62666,132.95999,60,75,0
132.62666,132.95999,68,75,0
132.95999,133.11151,51,73,0
132.95999,133.11151,39,61,0
133.28392,133.45059,56,77,0
133.28392,133.45059,44,64,0
133.66039,133.89252,54,74,0
133.60793,133.89252,46,62,0
133.55548,133.89252,39,62,0
134.02646,134.24966,57,74,0
133.98181,134.24966,51,74,0
133.89252,134.24966,41,62,0
133.93716,134.38359,48,62,0
134.38359,134.60681,69,73,0
134.33896,134.60681,63,73,0
134.29431,134.60681,60,61,0
134.24966,134.60681,53,61,0
134.74074,135.09789,61,75,0
134.69609,135.09789,53,75,0
134.65146,135.09789,46,63,0
135.09789,135.46152,54,71,0
135.09789,135.46152,42,60,0
135.46152,135.81445,53,71,0
135.46152,135.81445,41,60,0
135.81445,136.20155,49,69,0
135.81445,136.20155,37,58,0
136.20155,136.39763,46,79,0
136.20155,136.39763,34,67,0
136.5937,136.89755,65,79,0
136.5937,136.89755,53,67,0
136.5937,136.89755,61,79,0
136.89755,137.24437,58,64,0
136.89755,137.24437,61,77,0
136.89755,137.24437,70,77,0
137.24437,137.33107,53,85,0
137.24437,137.33107,41,72,0
137.59119,137.75786,58,86,0
137.59119,137.75786,46,73,0
137.92453,138.26767,41,73,0
137.92453,138.26767,29,61,0
138.26767,138.60916,46,79,0
138.26767,138.60916,34,67,0
138.60916,138.93127,53,61,0
138.60916,138.93127,65,73,0
138.60916,138.93127,61,61,0
138.93127,139.28842,58,63,0
138.93127,139.28842,61,75,0
138.93127,139.28842,70,75,0
139.28842,139.37364,53,80,0
139.28842,139.37364,41,67,0
139.62933,139.79062,58,86,0
139.62933,139.79062,46,73,0
139.9519,140.31154,46,73,0
139.9519,140.31154,34,61,0
140.31154,140.48494,39,79,0
140.31154,140.48494,27,67,0
140.65836,140.80121,72,72,0
140.80121,140.97166,70,70,0
140.65836,140.97166,63,60,0
140.65836,140.97166,61,60,0
140.65836,140.97166,67,60,0
140.97166,141.13834,51,75,0
141.305,141.44786,70,72,0
141.44786,141.61832,68,70,0
141.305,141.61832,63,69,0
141.305,141.61832,60,58,0
141.61832,141.78497,51,73,0
141.95164,142.0945,68,72,0
142.0945,142.26495,67,70,0
141.95164,142.26495,63,67,0
141.95164,142.26495,58,56,0
142.26495,142.43163,46,70,0
142.59828,142.74115,67,72,0
142.74115,142.9116,65,70,0
142.59828,142.9116,58,55,0
142.59828,142.9116,62,66,0
142.59828,142.9116,56,55,0
142.9116,143.07826,51,72,0
143.24493,143.38779,65,72,0
143.38779,143.55824,63,70,0
143.24493,143.55824,58,68,0
143.24493,143.55824,55,57,0
143.55824,143.89159,41,62,0
143.89159,144.03444,61,72,0
144.03444,144.2049,60,70,0
143.89159,144.2049,56,68,0
143.55824,144.2049,53,74,0
144.2049,144.5458,49,74,0
144.2049,144.5458,37,62,0
144.5458,144.87398,58,64,0
144.5458,144.87398,53,55,0
144.87398,145.18916,48,60,0
144.87398,145.18916,36,50,0
145.18916,145.5151,58,45,0
145.18916,145.5151,60,54,0
145.18916,145.5151,52,45,0
145.5151,145.82747,41,62,0
145.5151,145.82747,29,52,0
145.82747,146.15356,60,58,0
145.82747,146.15356,56,58,0
145.82747,146.15356,53,58,0
146.15356,146.32027,51,51,0
146.15356,146.32027,39,43,0
146.48979,146.8244,58,47,0
146.48979,146.8244,51,40,0
146.8244,147.1505,56,56,0
146.8244,147.1505,51,48,0
146.8244,147.1505,44,40,0
147.80267,148.13974,56,65,0
147.80267,148.13974,44,55,0
148.13974,148.49062,49,67,0
148.13974,148.49062,37,56,0
148.49062,148.81879,58,58,0
148.49062,148.81879,53,50,0
148.81879,149.13399,48,69,0
148.81879,149.13399,36,57,0
149.13399,149.45993,60,51,0
149.13399,149.45993,64,62,0
149.13399,149.45993,58,51,0
149.45993,149.7723,41,71,0
149.45993,149.7723,29,59,0
149.7723,150.09839,65,66,0
149.7723,150.09839,60,66,0
149.7723,150.09839,56,66,0
150.09839,150.26413,51,70,0
150.09839,150.26413,39,58,0
150.43176,150.76167,67,64,0
150.43176,150.76167,58,46,0
150.43176,150.76167,61,46,0
150.43176,150.76167,63,55,0
150.76167,150.93211,68,64,0
150.76167,150.93211,63,55,0
150.76167,150.93211,56,55,0
151.10257,151.36374,71,64,0
151.10257,151.36374,68,64,0
151.10257,151.36374,59,64,0
151.10257,151.36374,62,64,0
151.36374,151.44363,63,57,0
151.36374,151.44363,68,57,0
151.36374,151.44363,60,57,0
151.36374,151.44363,72,57,0
151.4525,151.62492,63,64,0
151.4525,151.62492,68,64,0
151.4525,151.62492,72,64,0
151.4525,151.62492,60,64,0
151.79733,152.04733,69,65,0
151.66801,152.04733,53,55,0
151.71112,152.04733,60,55,0
151.75423,152.04733,63,55,0
152.13066,152.39229,61,71,0
152.089,152.39229,53,59,0
152.04733,152.39229,46,59,0
152.4795,152.73232,66,65,0
152.4359,152.73232,58,55,0
152.39229,152.73232,51,55,0
152.81657,153.07776,61,62,0
152.77444,153.07776,53,51,0
152.73232,153.07776,46,51,0
153.16548,153.41687,54,62,0
153.12161,153.41687,46,51,0
153.07776,153.41687,39,51,0
153.50067,153.76382,49,62,0
153.45877,153.76382,41,51,0
153.41687,153.76382,34,51,0
153.85155,154.10295,54,60,0
153.8077,154.10295,46,50,0
153.76382,154.10295,39,50,0
154.18674,154.44492,61,65,0
154.14484,154.44492,53,55,0
154.10295,154.44492,46,55,0
154.53163,154.61563,33,55,0
154.61563,154.69884,34,55,0
154.69884,154.78172,36,56,0
154.78172,154.86417,37,56,0
154.86417,154.94632,39,56,0
154.94632,155.02817,41,57,0
155.02817,155.10968,43,58,0
155.10968,155.1908,45,58,0
155.1908,155.2716,46,59,0
155.2716,155.35214,48,60,0
155.35214,155.43236,49,60,0
155.43236,155.51218,51,61,0
155.51218,155.5917,53,61,0
155.5917,155.67096,55,61,0
155.67096,155.74991,57,62,0
155.74991,155.82848,58,62,0
155.82848,155.90675,60,63,0
155.90675,155.98477,61,64,0
155.98477,156.0625,63,64,0
156.0625,156.13985,65,66,0
156.13985,156.21692,67,67,0
156.21692,156.29375,69,65,0
156.29375,156.37027,70,66,0
156.37027,156.44644,72,67,0
156.44644,156.52235,73,68,0
156.52235,156.598,75,69,0
156.598,156.67339,77,70,0
156.67339,156.76796,79,71,0
156.76796,156.82748,81,72,0
157.21017,157.37234,39,80,0
157.21017,157.37234,27,68,0
157.5345,157.71098,63,72,0
157.5345,157.71098,51,61,0
157.88745,158.22836,75,79,0
157.88745,158.22836,72,67,0
157.88745,158.22836,67,67,0
157.88745,158.22836,63,67,0
158.22836,158.56734,65,64,0
158.22836,158.56734,72,64,0
158.22836,158.56734,77,77,0
158.56734,158.92236,72,72,0
158.56734,158.92236,68,61,0
158.56734,158.92236,60,61,0
158.92236,159.1237,73,72,0
158.92236,159.1237,68,61,0
158.92236,159.1237,61,61,0
159.32506,160.09428,51,69,0
159.32506,160.09428,39,58,0
160.09428,160.29837,39,61,0
160.09428,160.29837,27,51,0
160.50244,160.70653,44,61,0
160.50244,160.70653,32,51,0
161.29636,161.91737,52,60,0
161.25374,161.91737,47,56,0
161.21114,161.91737,40,53,0
162.0463,162.66011,52,60,0
162.00392,162.66011,47,56,0
161.96155,162.66011,40,53,0
162.78967,163.40382,52,60,0
162.74706,163.40382,47,56,0
162.70445,163.40382,40,53,0
163.53403,164.15504,52,60,0
163.49117,164.15504,47,56,0
163.44832,164.15504,40,53,0
164.28397,164.90498,52,60,0
164.2416,164.90498,47,56,0
164.19922,164.90498,40,53,0
165.03165,165.64389,52,60,0
164.99193,165.64389,47,56,0
164.94931,165.64389,40,53,0
165.64389,165.7167,52,63,0
165.64389,165.7167,47,53,0
165.64389,165.7167,40,53,0
165.78952,165.86234,51,28,0
165.78952,165.86234,39,24,0
165.93515,166.00797,49,28,0
165.93515,166.00797,37,24,0
166.08078,166.15732,47,28,0
166.08078,166.15732,35,24,0
166.23384,166.30666,52,35,0
166.23384,166.30666,40,28,0
166.37947,166.45229,51,32,0
166.37947,166.45229,39,27,0
166.5251,166.59792,49,28,0
166.5251,166.59792,37,24,0
166.67073,166.74611,47,28,0
166.67073,166.74611,35,24,0
166.82149,166.8936,52,35,0
166.82149,166.8936,40,28,0
166.96571,167.03784,51,28,0
166.96571,167.03784,39,24,0
167.10995,167.18207,49,28,0
167.10995,167.18207,37,24,0
167.25418,167.33072,47,28,0
167.25418,167.33072,35,24,0
167.40724,167.47902,52,34,0
167.40724,167.47902,40,29,0
167.55078,167.62256,51,28,0
167.55078,167.62256,39,24,0
167.69432,167.7661,49,28,0
167.69432,167.7661,37,24,0
167.83786,167.914,47,28,0
167.83786,167.914,35,24,0
167.99014,168.06192,52,34,0
167.99014,168.06192,40,29,0
168.1337,168.20546,51,32,0
168.1337,168.20546,39,26,0
168.27724,168.349,49,29,0
168.27724,168.349,37,24,0
168.42078,168.49692,47,29,0
168.42078,168.49692,35,24,0
168.57306,168.64517,52,35,0
168.57306,168.64517,40,29,0
168.71729,168.7894,51,28,0
168.71729,168.7894,39,23,0
168.86151,168.93364,49,28,0
168.86151,168.93364,37,23,0
169.00575,169.08055,47,28,0
169.00575,169.08055,35,23,0
169.1567,169.2295,52,36,0
169.1567,169.2295,40,30,0
169.30232,169.37514,51,29,0
169.30232,169.37514,39,24,0
169.44795,169.52077,49,29,0
169.44795,169.52077,37,25,0
169.59358,169.66972,47,29,0
169.59358,169.66972,35,25,0
169.74586,169.81868,52,36,0
169.74586,169.81868,40,30,0
169.8915,169.96431,51,34,0
169.8915,169.96431,39,28,0
170.03712,170.10994,49,30,0
170.03712,170.10994,37,25,0
170.18275,170.25969,47,30,0
170.18275,170.25969,35,25,0
170.33661,170.40942,52,36,0
170.33661,170.40942,40,30,0
170.48224,170.55505,51,29,0
170.48224,170.55505,39,25,0
170.62787,170.70068,49,29,0
170.62787,170.70068,37,25,0
170.7735,170.85042,47,30,0
170.7735,170.85042,35,26,0
170.92735,171.00017,52,36,0
170.92735,171.00017,40,31,0
171.07298,171.1458,51,30,0
171.07298,171.1458,39,26,0
171.21861,171.28838,49,30,0
171.21861,171.28838,37,26,0
171.35814,171.43468,47,30,0
171.35814,171.43468,35,26,0
171.5112,171.58298,52,36,0
171.5112,171.58298,40,31,0
171.65474,171.72652,51,33,0
171.65474,171.72652,39,28,0
171.79828,171.87006,49,30,0
171.79828,171.87006,37,25,0
171.94183,172.01836,47,30,0
171.94183,172.01836,35,25,0
172.0949,172.16771,52,37,0
172.0949,172.16771,40,30,0
172.24052,172.31334,51,30,0
172.24052,172.31334,39,25,0
172.38615,172.45897,49,30,0
172.38615,172.45897,37,25,0
172.53178,172.6083,47,30,0
172.53178,172.6083,35,25,0
172.68484,172.75766,52,37,0
172.68484,172.75766,40,30,0
172.83047,172.90329,51,30,0
172.83047,172.90329,39,25,0
172.9761,173.04587,49,30,0
172.9761,173.04587,37,25,0
173.11565,173.19217,47,30,0
173.11565,173.19217,35,25,0
173.2687,173.34082,52,38,0
173.2687,173.34082,40,31,0
173.41293,173.48505,51,35,0
173.41293,173.48505,39,30,0
173.55716,173.62927,49,33,0
173.55716,173.62927,37,26,0
173.70139,173.77832,47,33,0
173.70139,173.77832,35,26,0
173.85387,173.92462,52,39,0
173.85387,173.92462,40,33,0
173.99583,174.06749,51,32,0
173.99583,174.06749,39,27,0
174.13948,174.21207,49,33,0
174.13948,174.21207,37,27,0
174.28511,174.36165,47,33,0
174.28511,174.36165,35,28,0
174.43817,174.50995,52,41,0
174.43817,174.50995,40,34,0
174.58173,174.65349,51,33,0
174.58173,174.65349,39,27,0
174.72527,174.79471,49,33,0
174.72527,174.79471,37,27,0
174.86415,174.94029,47,33,0
174.86415,174.94029,35,28,0
175.01643,175.08821,52,41,0
175.01643,175.08821,40,35,0
175.15997,175.23175,51,38,0
175.15997,175.23175,39,31,0
175.30351,175.37704,49,35,0
175.30351,175.37704,37,28,0
175.45058,175.52672,47,35,0
175.45058,175.52672,35,28,0
175.60286,175.67567,52,42,0
175.60286,175.67567,40,36,0
175.74849,175.8213,51,34,0
175.74849,175.8213,39,29,0
175.89412,175.96693,49,34,0
175.89412,175.96693,37,29,0
176.03975,176.11629,47,34,0
176.03975,176.11629,35,29,0
176.19281,176.26562,52,41,0
176.19281,176.26562,40,35,0
176.33844,176.41125,51,34,0
176.33844,176.41125,39,29,0
176.48407,176.55688,49,34,0
176.48407,176.55688,37,29,0
176.6297,176.70584,47,34,0
176.6297,176.70584,35,29,0
176.78198,176.8548,52,42,0
176.78198,176.8548,40,35,0
176.92763,177.00044,51,39,0
176.92763,177.00044,39,33,0
177.07326,177.14302,49,35,0
177.07326,177.14302,37,29,0
177.21278,177.28854,47,35,0
177.21278,177.28854,35,29,0
177.3643,177.43712,52,42,0
177.3643,177.43712,40,35,0
177.50993,177.58275,51,34,0
177.50993,177.58275,39,28,0
177.65556,177.72838,49,34,0
177.65556,177.72838,37,29,0
177.8012,177.87773,47,34,0
177.8012,177.87773,35,29,0
177.95425,178.02707,52,41,0
177.95425,178.02707,40,35,0
178.09988,178.1727,51,35,0
178.09988,178.1727,39,29,0
178.24551,178.31593,49,35,0
178.24551,178.31593,37,29,0
178.38637,178.46329,47,35,0
178.38637,178.46329,35,29,0
178.5402,178.61302,52,42,0
178.5402,178.61302,40,36,0
178.68584,178.75865,51,39,0
178.68584,178.75865,39,32,0
178.83147,178.90428,49,36,0
178.83147,178.90428,37,29,0
178.9771,179.05403,47,35,0
178.9771,179.05403,35,29,0
179.13095,179.20377,52,42,0
179.13095,179.20377,40,36,0
179.27658,179.3494,51,35,0
179.27658,179.3494,39,29,0
179.42221,179.49503,49,35,0
179.42221,179.49503,37,29,0
179.56784,179.64476,47,35,0
179.56784,179.64476,35,29,0
179.7217,179.79451,52,42,0
179.7217,179.79451,40,36,0
179.86732,179.94014,51,35,0
179.86732,179.94014,39,29,0
180.01295,180.0824,49,35,0
180.01295,180.0824,37,29,0
180.15184,180.22876,47,35,0
180.15184,180.22876,35,29,0
180.30568,180.3785,52,42,0
180.30568,180.3785,40,36,0
180.45131,180.52412,51,39,0
180.45131,180.52412,39,32,0
180.59695,180.66977,49,36,0
180.59695,180.66977,37,29,0
180.74258,180.81813,47,36,0
180.74258,180.81813,35,29,0
180.89505,180.96648,52,43,0
180.89505,180.96648,40,36,0
181.03815,181.11037,51,36,0
181.03815,181.11037,39,29,0
181.18295,181.25601,49,36,0
181.18295,181.25601,37,29,0
181.32965,181.40619,47,36,0
181.32965,181.40619,35,29,0
181.48271,181.55518,52,43,0
181.48271,181.55518,40,36,0
181.62764,181.7001,51,36,0
181.62764,181.7001,39,29,0
181.77257,181.84503,49,36,0
181.77257,181.84503,37,30,0
181.9175,181.99442,47,35,0
181.9175,181.99442,35,30,0
182.07135,182.14346,52,43,0
182.07135,182.14346,40,37,0
182.21558,182.28769,51,40,0
182.21558,182.28769,39,33,0
182.3598,182.4348,49,37,0
182.3598,182.4348,37,30,0
182.50981,182.58673,47,37,0
182.50981,182.58673,35,30,0
182.66365,182.73576,52,43,0
182.66365,182.73576,40,37,0
182.80788,182.88,51,36,0
182.80788,182.88,39,30,0
182.95212,183.02423,49,37,0
182.95212,183.02423,37,30,0
183.09634,183.17366,47,37,0
183.09634,183.17366,35,30,0
183.25098,183.32275,52,44,0
183.25098,183.32275,40,37,0
183.39453,183.4663,51,37,0
183.39453,183.4663,39,31,0
183.53807,183.60983,49,37,0
183.53807,183.60983,37,31,0
183.68161,183.75813,47,38,0
183.68161,183.75813,35,31,0
183.83467,183.90643,52,45,0
183.83467,183.90643,40,38,0
183.97821,184.04997,51,42,0
183.97821,184.04997,39,36,0
184.12175,184.196,49,38,0
184.12175,184.196,37,31,0
184.27026,184.34718,47,39,0
184.27026,184.34718,35,31,0
184.4241,184.49588,52,48,0
184.4241,184.49588,40,40,0
184.56766,184.63942,51,40,0
184.56766,184.63942,39,33,0
184.7112,184.78296,49,41,0
184.7112,184.78296,37,33,0
184.85474,184.93126,47,42,0
184.85474,184.93126,35,34,0
185.0078,185.07991,52,51,0
185.0078,185.07991,40,43,0
185.15202,185.22414,51,43,0
185.15202,185.22414,39,34,0
185.29625,185.367,49,43,0
185.29625,185.367,37,35,0
185.43776,185.5143,47,43,0
185.43776,185.5143,35,37,0
185.59082,185.66295,52,53,0
185.59082,185.66295,40,44,0
185.73506,185.80717,51,49,0
185.73506,185.80717,39,41,0
185.87929,185.9514,49,46,0
185.87929,185.9514,37,38,0
186.02351,186.10005,47,46,0
186.02351,186.10005,35,38,0
186.17657,186.24835,52,57,0
186.17657,186.24835,40,47,0
186.32011,186.39189,51,46,0
186.32011,186.39189,39,38,0
186.46365,186.53543,49,47,0
186.46365,186.53543,37,40,0
186.60721,186.68373,47,48,0
186.60721,186.68373,35,40,0
186.76027,186.83203,52,59,0
186.76027,186.83203,40,51,0
186.90381,186.97557,51,50,0
186.90381,186.97557,39,41,0
187.04735,187.12123,49,50,0
187.04735,187.12123,37,41,0
187.19513,187.27165,47,51,0
187.19513,187.27165,35,42,0
187.34819,187.41995,52,61,0
187.34819,187.41995,40,52,0
187.49173,187.5635,51,58,0
187.49173,187.5635,39,48,0
187.63527,187.70705,49,55,0
187.63527,187.70705,37,44,0
187.77881,187.85535,47,56,0
187.77881,187.85535,35,45,0
187.93187,188.00433,52,66,0
187.93187,188.00433,40,56,0
188.0768,188.14926,51,53,0
188.0768,188.14926,39,45,0
188.22173,188.29419,49,54,0
188.22173,188.29419,37,46,0
188.36665,188.44241,47,57,0
188.36665,188.44241,35,47,0
188.51817,188.58994,52,69,0
188.51817,188.58994,40,58,0
188.66171,188.73347,51,57,0
188.66171,188.73347,39,47,0
188.80525,188.87703,49,57,0
188.80525,188.87703,37,47,0
188.94879,189.02533,47,58,0
188.94879,189.02533,35,48,0
189.10185,189.17363,52,73,0
189.10185,189.17363,40,62,0
189.24539,189.31717,51,67,0
189.24539,189.31717,39,56,0
189.38893,189.45969,49,63,0
189.38893,189.45969,37,52,0
189.53044,189.60698,47,63,0
189.53044,189.60698,35,52,0
189.6835,189.75562,52,77,0
189.6835,189.75562,40,64,0
189.82774,189.89986,51,63,0
189.82774,189.89986,39,53,0
189.97197,190.04622,52,64,0
189.97197,190.04622,40,54,0
190.12048,190.19662,50,65,0
190.12048,190.19662,38,55,0
190.27277,190.34454,51,77,0
190.27277,190.34454,39,66,0
190.4163,190.48808,50,65,0
190.4163,190.48808,38,54,0
190.55984,190.63162,48,65,0
190.55984,190.63162,36,54,0
190.70338,190.77992,46,65,0
190.70338,190.77992,34,54,0
190.85645,190.92822,51,79,0
190.85645,190.92822,39,67,0
190.99998,191.07176,50,75,0
190.99998,191.07176,38,62,0
191.14352,191.21742,48,69,0
191.14352,191.21742,36,58,0
191.29132,191.36784,46,69,0
191.29132,191.36784,34,58,0
191.44438,191.5165,51,84,0
191.44438,191.5165,39,69,0
191.58861,191.66072,50,68,0
191.58861,191.66072,38,58,0
191.73283,191.80495,48,70,0
191.73283,191.80495,36,59,0
191.87708,191.95322,46,71,0
191.87708,191.95322,34,61,0
192.02936,192.10112,51,82,0
192.02936,192.10112,39,71,0
192.1729,192.24466,50,68,0
192.1729,192.24466,38,57,0
192.31644,192.38719,48,69,0
192.31644,192.38719,36,58,0
192.45795,192.53447,46,69,0
192.45795,192.53447,34,58,0
192.61101,192.68277,51,85,0
192.61101,192.68277,39,72,0
192.75455,192.82631,50,78,0
192.75455,192.82631,38,64,0
192.89809,192.97235,48,73,0
192.89809,192.97235,36,60,0
193.0466,193.12314,46,73,0
193.0466,193.12314,34,60,0
193.19966,193.27283,51,87,0
193.19966,193.27283,39,73,0
193.34601,193.41917,50,72,0
193.34601,193.41917,38,60,0
193.49234,193.56552,48,72,0
193.49234,193.56552,36,60,0
193.63869,193.71483,46,74,0
193.63869,193.71483,34,62,0
193.79097,193.86275,51,84,0
193.79097,193.86275,39,73,0
193.93451,194.00629,50,70,0
193.93451,194.00629,38,59,0
194.07805,194.14983,48,70,0
194.07805,194.14983,36,59,0
194.22159,194.29813,46,71,0
194.22159,194.29813,34,59,0
194.37465,194.44746,51,87,0
194.37465,194.44746,39,74,0
194.52028,194.5931,50,80,0
194.52028,194.5931,38,66,0
194.66591,194.73874,48,74,0
194.66591,194.73874,36,62,0
194.81155,194.88808,46,74,0
194.81155,194.88808,34,62,0
194.96461,195.03743,51,89,0
194.96461,195.03743,39,75,0
195.11024,195.18306,50,74,0
195.11024,195.18306,38,62,0
195.25587,195.32869,48,74,0
195.25587,195.32869,36,62,0
195.4015,195.47765,46,75,0
195.4015,195.47765,34,63,0
195.55379,195.64697,51,90,0
195.55379,195.64697,39,76,0
195.91263,196.16983,47,63,0
195.8695,196.16983,42,61,0
195.8264,196.16983,35,58,0
196.25555,196.51276,47,66,0
196.21269,196.51276,42,63,0
196.16983,196.51276,35,60,0
196.5985,196.85577,47,69,0
196.55562,196.85577,42,65,0
196.51276,196.85577,35,63,0
196.94313,197.2048,47,71,0
196.89938,197.2048,42,68,0
196.85577,197.2048,35,64,0
197.29005,197.63104,47,73,0
197.24744,197.63104,42,70,0
197.2048,197.63104,35,66,0
197.63104,197.79591,40,70,0
197.63104,197.79591,28,59,0
198.2677,198.80353,52,80,0
198.23062,198.80353,47,80,0
198.19353,198.80353,40,80,0
198.91672,199.4555,52,77,0
198.87943,199.4555,47,77,0
198.84213,199.4555,40,78,0
199.56932,200.10515,52,74,0
199.53181,200.10515,47,75,0
199.49432,200.10515,40,75,0
200.21777,200.75656,52,72,0
200.1807,200.75656,47,72,0
200.14362,200.75656,40,72,0
200.86728,201.46138,52,69,0
200.83253,201.46138,47,69,0
200.79524,201.46138,40,69,0
201.46138,201.5321,52,66,0
201.46138,201.5321,47,66,0
201.46138,201.5321,40,66,0
201.60283,201.67357,51,28,0
201.60283,201.67357,39,24,0
201.7443,201.81502,49,28,0
201.7443,201.81502,37,24,0
201.88574,201.96008,47,28,0
201.88574,201.96008,35,24,0
202.03442,202.10448,52,35,0
202.03442,202.10448,40,28,0
202.17451,202.24457,51,32,0
202.17451,202.24457,39,27,0
202.31462,202.38466,49,28,0
202.31462,202.38466,37,24,0
202.45471,202.52792,47,28,0
202.45471,202.52792,35,24,0
202.60114,202.67052,52,35,0
202.60114,202.67052,40,28,0
202.7399,202.80928,51,28,0
202.7399,202.80928,39,24,0
202.87866,202.94804,49,28,0
202.87866,202.94804,37,24,0
203.01743,203.09175,47,28,0
203.01743,203.09175,35,24,0
203.16609,203.23515,52,35,0
203.16609,203.23515,40,29,0
203.3042,203.37326,51,28,0
203.3042,203.37326,39,24,0
203.4423,203.51137,49,28,0
203.4423,203.51137,37,24,0
203.58041,203.65437,47,28,0
203.58041,203.65437,35,24,0
203.72833,203.79805,52,34,0
203.72833,203.79805,40,29,0
203.86777,203.93748,51,32,0
203.86777,203.93748,39,26,0
204.0072,204.07692,49,29,0
204.0072,204.07692,37,24,0
204.14662,204.22058,47,29,0
204.14662,204.22058,35,24,0
204.29454,204.3646,52,35,0
204.29454,204.3646,40,29,0
204.43463,204.50468,51,28,0
204.43463,204.50468,39,24,0
204.57474,204.64478,49,28,0
204.57474,204.64478,37,24,0
204.71483,204.78748,47,28,0
204.71483,204.78748,35,24,0
204.86143,204.93217,52,36,0
204.86143,204.93217,40,31,0
205.0029,205.07362,51,29,0
205.0029,205.07362,39,24,0
205.14435,205.21507,49,29,0
205.14435,205.21507,37,25,0
205.28581,205.35977,47,29,0
205.28581,205.35977,35,25,0
205.43372,205.50446,52,36,0
205.43372,205.50446,40,30,0
205.57518,205.6459,51,34,0
205.57518,205.6459,39,28,0
205.71663,205.78737,49,30,0
205.71663,205.78737,37,25,0
205.8581,205.9328,47,30,0
205.8581,205.9328,35,25,0
206.00752,206.07825,52,36,0
206.00752,206.07825,40,30,0
206.14897,206.21971,51,29,0
206.14897,206.21971,39,25,0
206.29044,206.36116,49,29,0
206.29044,206.36116,37,25,0
206.43188,206.5066,47,30,0
206.43188,206.5066,35,26,0
206.58133,206.65205,52,36,0
206.58133,206.65205,40,31,0
206.72278,206.7935,51,30,0
206.72278,206.7935,39,26,0
206.86424,206.932,49,30,0
206.86424,206.932,37,26,0
206.99977,207.07411,47,30,0
206.99977,207.07411,35,26,0
207.14845,207.21817,52,36,0
207.14845,207.21817,40,31,0
207.28789,207.35759,51,33,0
207.28789,207.35759,39,28,0
207.4273,207.49702,49,31,0
207.4273,207.49702,37,26,0
207.56674,207.64108,47,31,0
207.56674,207.64108,35,26,0
207.71542,207.78615,52,38,0
207.71542,207.78615,40,31,0
207.85687,207.9276,51,30,0
207.85687,207.9276,39,26,0
207.99834,208.06906,49,30,0
207.99834,208.06906,37,26,0
208.13979,208.21413,47,30,0
208.13979,208.21413,35,26,0
208.28847,208.35919,52,38,0
208.28847,208.35919,40,31,0
208.42992,208.50064,51,30,0
208.42992,208.50064,39,25,0
208.57138,208.63947,49,30,0
208.57138,208.63947,37,25,0
208.70753,208.78188,47,30,0
208.70753,208.78188,35,25,0
208.85622,208.92627,52,38,0
208.85622,208.92627,40,31,0
208.9963,209.06636,51,36,0
208.9963,209.06636,39,30,0
209.13641,209.20645,49,33,0
209.13641,209.20645,37,26,0
209.2765,209.35123,47,33,0
209.2765,209.35123,35,26,0
209.4246,209.49333,52,40,0
209.4246,209.49333,40,33,0
209.5625,209.6321,51,32,0
209.5625,209.6321,39,27,0
209.70204,209.77254,49,33,0
209.70204,209.77254,37,27,0
209.84349,209.91783,47,33,0
209.84349,209.91783,35,28,0
209.99217,210.06189,52,42,0
209.99217,210.06189,40,35,0
210.13159,210.20131,51,34,0
210.13159,210.20131,39,28,0
210.27103,210.33755,49,34,0
210.27103,210.33755,37,28,0
210.40408,210.47804,47,34,0
210.40408,210.47804,35,28,0
210.552,210.62172,52,41,0
210.552,210.62172,40,35,0
210.69144,210.76115,51,39,0
210.69144,210.76115,39,32,0
210.83087,210.90228,49,35,0
210.83087,210.90228,37,28,0
210.97371,211.04767,47,35,0
210.97371,211.04767,35,28,0
211.12163,211.19235,52,42,0
211.12163,211.19235,40,36,0
211.26308,211.3338,51,34,0
211.26308,211.3338,39,29,0
211.40454,211.47527,49,34,0
211.40454,211.47527,37,29,0
211.54599,211.62033,47,34,0
211.54599,211.62033,35,29,0
211.69467,211.76443,52,42,0
211.69467,211.76443,40,36,0
211.8342,211.90398,51,35,0
211.8342,211.90398,39,29,0
211.97374,212.0435,49,35,0
211.97374,212.0435,37,29,0
212.11328,212.18723,47,35,0
212.11328,212.18723,35,29,0
212.26118,212.33096,52,42,0
212.26118,212.33096,40,36,0
212.40073,212.47049,51,39,0
212.40073,212.47049,39,33,0
212.54025,212.61168,49,36,0
212.54025,212.61168,37,29,0
212.6831,212.75668,47,36,0
212.6831,212.75668,35,29,0
212.83028,212.90004,52,42,0
212.83028,212.90004,40,36,0
212.96982,213.03958,51,35,0
212.96982,213.03958,39,29,0
213.10934,213.17911,49,35,0
213.10934,213.17911,37,30,0
213.24889,213.32323,47,35,0
213.24889,213.32323,35,30,0
213.39755,213.46829,52,42,0
213.39755,213.46829,40,36,0
213.53902,213.60974,51,35,0
213.53902,213.60974,39,29,0
213.68047,213.74887,49,35,0
213.68047,213.74887,37,29,0
213.81728,213.892,47,35,0
213.81728,213.892,35,29,0
213.96672,214.03648,52,43,0
213.96672,214.03648,40,36,0
214.10625,214.17601,51,39,0
214.10625,214.17601,39,33,0
214.24579,214.31555,49,36,0
214.24579,214.31555,37,29,0
214.38531,214.46004,47,36,0
214.38531,214.46004,35,29,0
214.53474,214.60484,52,43,0
214.53474,214.60484,40,37,0
214.67494,214.74503,51,36,0
214.67494,214.74503,39,30,0
214.81512,214.88522,49,36,0
214.81512,214.88522,37,30,0
214.9553,215.03003,47,36,0
214.9553,215.03003,35,30,0
215.10475,215.17484,52,43,0
215.10475,215.17484,40,37,0
215.24493,215.31502,51,36,0
215.24493,215.31502,39,30,0
215.38512,215.45258,49,36,0
215.38512,215.45258,37,30,0
215.52002,215.59474,47,36,0
215.52002,215.59474,35,30,0
215.66945,215.73923,52,43,0
215.66945,215.73923,40,36,0
215.80899,215.87875,51,40,0
215.80899,215.87875,39,32,0
215.94853,216.0183,49,37,0
215.94853,216.0183,37,30,0
216.08806,216.16113,47,37,0
216.08806,216.16113,35,30,0
216.23584,216.30522,52,44,0
216.23584,216.30522,40,37,0
216.37483,216.44499,51,36,0
216.37483,216.44499,39,30,0
216.51549,216.58644,49,36,0
216.51549,216.58644,37,30,0
216.65797,216.73232,47,36,0
216.65797,216.73232,35,30,0
216.80666,216.87642,52,44,0
216.80666,216.87642,40,37,0
216.94618,217.01596,51,36,0
216.94618,217.01596,39,29,0
217.08572,217.15349,49,36,0
217.08572,217.15349,37,30,0
217.22127,217.29597,47,36,0
217.22127,217.29597,35,30,0
217.3707,217.44046,52,44,0
217.3707,217.44046,40,38,0
217.51022,217.58,51,41,0
217.51022,217.58,39,34,0
217.64977,217.72261,49,38,0
217.64977,217.72261,37,31,0
217.79547,217.87018,47,38,0
217.79547,217.87018,35,31,0
217.94325,218.01302,52,44,0
217.94325,218.01302,40,38,0
218.08278,218.15256,51,37,0
218.08278,218.15256,39,31,0
218.22232,218.29208,49,38,0
218.22232,218.29208,37,31,0
218.36185,218.43697,47,38,0
218.36185,218.43697,35,31,0
218.51207,218.58183,52,44,0
218.51207,218.58183,40,37,0
218.6516,218.72137,51,37,0
218.6516,218.72137,39,31,0
218.79114,218.8609,49,37,0
218.79114,218.8609,37,31,0
218.93066,219.005,47,38,0
218.93066,219.005,35,31,0
219.07935,219.14911,52,45,0
219.07935,219.14911,40,38,0
219.21889,219.28865,51,42,0
219.21889,219.28865,39,36,0
219.35841,219.43054,49,38,0
219.35841,219.43054,37,31,0
219.50267,219.5774,47,39,0
219.50267,219.5774,35,31,0
219.6521,219.72284,52,48,0
219.6521,219.72284,40,40,0
219.79356,219.86429,51,40,0
219.79356,219.86429,39,33,0
219.93501,220.00575,49,41,0
219.93501,220.00575,37,33,0
220.07648,220.15082,47,42,0
220.07648,220.15082,35,34,0
220.22516,220.29588,52,51,0
220.22516,220.29588,40,43,0
220.36661,220.43733,51,43,0
220.36661,220.43733,39,34,0
220.50806,220.57678,49,43,0
220.50806,220.57678,37,35,0
220.64551,220.71985,47,43,0
220.64551,220.71985,35,37,0
220.79419,220.86429,52,53,0
220.79419,220.86429,40,44,0
220.93437,221.00447,51,49,0
220.93437,221.00447,39,41,0
221.07457,221.14465,49,46,0
221.07457,221.14465,37,38,0
221.21475,221.2891,47,46,0
221.21475,221.2891,35,38,0
221.36343,221.4332,52,57,0
221.36343,221.4332,40,47,0
221.50296,221.57274,51,46,0
221.50296,221.57274,39,38,0
221.6425,221.71227,49,47,0
221.6425,221.71227,37,40,0
221.78203,221.85637,47,48,0
221.78203,221.85637,35,40,0
221.93071,222.00143,52,59,0
221.93071,222.00143,40,51,0
222.07217,222.1429,51,50,0
222.07217,222.1429,39,41,0
222.21362,222.2854,49,50,0
222.21362,222.2854,37,41,0
222.35716,222.4315,47,51,0
222.35716,222.4315,35,42,0
222.50584,222.57529,52,61,0
222.50584,222.57529,40,52,0
222.64473,222.71417,51,58,0
222.64473,222.71417,39,48,0
222.78362,222.85306,49,55,0
222.78362,222.85306,37,44,0
222.9225,222.99684,47,56,0
222.9225,222.99684,35,45,0
223.07118,223.1416,52,66,0
223.07118,223.1416,40,56,0
223.21204,223.28246,51,53,0
223.21204,223.28246,39,45,0
223.35287,223.4233,49,54,0
223.35287,223.4233,37,46,0
223.49371,223.5673,47,57,0
223.49371,223.5673,35,47,0
223.6409,223.71034,52,69,0
223.6409,223.71034,40,58,0
223.77979,223.84923,51,57,0
223.77979,223.84923,39,47,0
223.91867,223.98811,49,57,0
223.91867,223.98811,37,47,0
224.05756,224.1319,47,58,0
224.05756,224.1319,35,48,0
224.20624,224.27568,52,73,0
224.20624,224.27568,40,62,0
224.34512,224.41457,51,67,0
224.34512,224.41457,39,56,0
224.48401,224.55347,49,63,0
224.48401,224.55347,37,52,0
224.62291,224.69724,47,63,0
224.62291,224.69724,35,52,0
224.77158,224.84135,52,77,0
224.77158,224.84135,40,64,0
224.91112,224.98088,51,63,0
224.91112,224.98088,39,53,0
225.05064,225.12279,52,64,0
225.05064,225.12279,40,54,0
225.19492,225.26886,50,65,0
225.19492,225.26886,38,55,0
225.34282,225.41678,51,77,0
225.34282,225.41678,39,66,0
225.49074,225.5647,50,65,0
225.49074,225.5647,38,54,0
225.63866,225.71262,48,65,0
225.63866,225.71262,36,54,0
225.78656,225.8609,46,65,0
225.78656,225.8609,34,54,0
225.93524,226.005,51,79,0
225.93524,226.005,39,67,0
226.07478,226.14455,50,75,0
226.07478,226.14455,38,62,0
226.21431,226.28409,48,69,0
226.21431,226.28409,36,58,0
226.35385,226.42819,46,69,0
226.35385,226.42819,34,58,0
226.50253,226.57224,51,84,0
226.50253,226.57224,39,69,0
226.64195,226.71167,50,68,0
226.64195,226.71167,38,58,0
226.78139,226.8511,48,70,0
226.78139,226.8511,36,59,0
226.92082,226.99478,46,71,0
226.92082,226.99478,34,61,0
227.06874,227.13947,51,82,0
227.06874,227.13947,39,71,0
227.21019,227.28091,50,68,0
227.21019,227.28091,38,57,0
227.35164,227.42036,48,69,0
227.35164,227.42036,36,58,0
227.48909,227.56343,46,69,0
227.48909,227.56343,34,58,0
227.63777,227.70753,51,85,0
227.63777,227.70753,39,72,0
227.77731,227.84708,50,78,0
227.77731,227.84708,38,64,0
227.91684,227.9866,48,73,0
227.91684,227.9866,36,60,0
228.05638,228.13072,46,73,0
228.05638,228.13072,34,60,0
228.20505,228.27483,51,87,0
228.20505,228.27483,39,73,0
228.34459,228.41435,50,72,0
228.34459,228.41435,38,60,0
228.48413,228.5539,48,72,0
228.48413,228.5539,36,60,0
228.62366,228.69762,46,74,0
228.62366,228.69762,34,62,0
228.77158,228.84134,51,84,0
228.77158,228.84134,39,73,0
228.9111,228.98088,50,70,0
228.9111,228.98088,38,59,0
229.05064,229.1204,48,70,0
229.05064,229.1204,36,59,0
229.19019,229.26451,46,71,0
229.19019,229.26451,34,59,0
229.33885,229.40958,51,87,0
229.33885,229.40958,39,74,0
229.48032,229.55104,50,80,0
229.48032,229.55104,38,66,0
229.62177,229.69116,48,74,0
229.62177,229.69116,36,62,0
229.75989,229.83423,46,74,0
229.75989,229.83423,34,62,0
229.90857,229.9793,51,89,0
229.90857,229.9793,39,75,0
230.05002,230.12074,50,74,0
230.05002,230.12074,38,62,0
230.19147,230.2622,48,74,0
230.19147,230.2622,36,62,0
230.33293,230.40689,46,75,0
230.33293,230.40689,34,63,0
230.48085,230.55548,51,71,0
230.48085,230.55548,39,64,0
230.77716,230.85106,51,64,0
230.77716,230.85106,39,54,0
230.92494,230.99884,51,58,0
230.92494,230.99884,39,49,0
231.07272,231.3683,52,63,0
231.07272,231.3683,40,53,0
231.3683,231.44218,52,61,0
231.3683,231.44218,40,51,0
231.51608,231.58997,52,59,0
231.51608,231.58997,40,50,0
231.66386,231.96797,53,65,0
231.66386,231.96797,41,55,0
231.96797,232.04637,53,62,0
231.96797,232.04637,41,52,0
232.12852,232.21625,53,60,0
232.12852,232.21625,41,51,0
232.30397,232.61324,54,51,0
232.30397,232.61324,42,43,0
232.61324,232.68713,54,43,0
232.61324,232.68713,61,51,0
232.76103,232.83492,54,43,0
232.76103,232.83492,61,51,0
232.90881,233.20438,54,43,0
232.90881,233.20438,61,51,0
233.20438,233.2809,61,51,0
233.20438,233.2809,54,43,0
233.35744,233.43396,61,51,0
233.35744,233.43396,54,43,0
233.5105,233.81352,56,48,0
233.5105,233.81352,51,40,0
233.5105,233.81352,44,40,0
233.81352,233.88742,60,48,0
233.81352,233.88742,56,40,0
233.81352,233.88742,51,40,0
233.96132,234.0352,60,48,0
233.96132,234.0352,56,40,0
233.96132,234.0352,51,40,0
234.1091,234.40466,60,52,0
234.1091,234.40466,56,45,0
234.1091,234.40466,49,45,0
234.40466,234.4808,61,48,0
234.40466,234.4808,56,40,0
234.40466,234.4808,49,40,0
234.55695,234.63309,61,48,0
234.55695,234.63309,56,40,0
234.55695,234.63309,49,40,0
234.70923,235.0138,61,54,0
234.70923,235.0138,55,45,0
234.70923,235.0138,49,45,0
235.0138,235.1468,61,51,0
235.0138,235.1468,55,43,0
235.0138,235.1468,49,43,0
235.16158,235.29459,61,51,0
235.16158,235.29459,55,43,0
235.16158,235.29459,49,43,0
235.30937,235.6155,58,54,0
235.30937,235.6155,55,45,0
235.30937,235.6155,48,45,0
235.6155,235.74849,58,51,0
235.6155,235.74849,55,43,0
235.6155,235.74849,48,43,0
235.76328,235.89627,58,51,0
235.76328,235.89627,55,43,0
235.76328,235.89627,48,43,0
235.91106,236.21106,56,52,0
235.91106,236.21106,53,45,0
236.21106,236.2872,56,48,0
236.21106,236.2872,53,40,0
236.36334,236.43948,56,48,0
236.36334,236.43948,51,40,0
236.51562,236.82019,56,54,0
236.51562,236.82019,50,45,0
236.82019,236.9532,56,48,0
236.82019,236.9532,50,40,0
236.96797,237.10098,56,48,0
236.96797,237.10098,50,40,0
237.11575,237.42188,55,54,0
237.11575,237.42188,50,45,0
237.11575,237.42188,43,45,0
237.42188,237.55489,55,48,0
237.42188,237.55489,50,40,0
237.42188,237.55489,43,40,0
237.56966,237.70267,55,48,0
237.56966,237.70267,50,40,0
237.56966,237.70267,43,40,0
237.71745,238.02513,55,49,0
237.71745,238.02513,48,42,0
238.02513,238.16014,55,45,0
238.02513,238.16014,48,38,0
238.17514,238.31013,55,45,0
238.17514,238.31013,48,38,0
238.32513,238.63219,46,42,0
238.32513,238.63219,56,49,0
238.63219,238.76703,46,38,0
238.63219,238.76703,56,45,0
238.78195,238.91628,56,45,0
238.78195,238.91628,46,38,0
238.9312,239.2297,51,54,0
238.9312,239.2297,46,45,0
238.9312,239.2297,39,45,0
239.2297,239.36404,39,40,0
239.2297,239.36404,51,48,0
239.2297,239.36404,46,40,0
239.37897,239.52731,39,40,0
239.37897,239.52731,51,48,0
239.37897,239.52731,46,40,0
239.5438,239.86295,47,51,0
239.5438,239.86295,35,43,0
239.86295,240.00212,55,43,0
239.86295,240.00212,59,51,0
239.86295,240.00212,47,43,0
240.0176,240.15677,55,43,0
240.0176,240.15677,59,51,0
240.0176,240.15677,47,43,0
240.17223,240.4815,55,43,0
240.17223,240.4815,59,51,0
240.17223,240.4815,47,43,0
240.4815,240.62213,59,51,0
240.4815,240.62213,55,43,0
240.4815,240.62213,47,43,0
240.63776,240.77838,59,51,0
240.63776,240.77838,55,43,0
240.63776,240.77838,47,43,0
240.794,241.1017,60,48,0
240.794,241.1017,55,40,0
240.794,241.1017,48,40,0
241.1017,241.23602,60,48,0
241.1017,241.23602,55,40,0
241.1017,241.23602,48,40,0
241.25095,241.38528,60,48,0
241.25095,241.38528,55,40,0
241.25095,241.38528,48,40,0
241.4002,241.69872,64,52,0
241.4002,241.69872,60,45,0
241.4002,241.69872,53,45,0
241.69872,241.77486,65,48,0
241.69872,241.77486,60,40,0
241.69872,241.77486,53,40,0
241.851,241.92714,65,48,0
241.851,241.92714,60,40,0
241.851,241.92714,53,40,0
242.00328,242.30785,62,54,0
242.00328,242.30785,60,45,0
242.00328,242.30785,53,45,0
242.30785,242.44086,62,51,0
242.30785,242.44086,60,43,0
242.30785,242.44086,53,43,0
242.45563,242.58864,62,51,0
242.45563,242.58864,60,43,0
242.45563,242.58864,53,43,0
242.60341,242.90955,64,54,0
242.60341,242.90955,60,45,0
242.60341,242.90955,55,45,0
242.90955,243.04254,64,51,0
242.90955,243.04254,60,43,0
242.90955,243.04254,55,43,0
243.05733,243.19032,64,51,0
243.05733,243.19032,60,43,0
243.05733,243.19032,55,43,0
243.20511,243.50511,64,49,0
243.20511,243.50511,60,42,0
243.20511,243.50511,56,42,0
243.50511,243.58243,65,45,0
243.50511,243.58243,60,38,0
243.50511,243.58243,56,38,0
243.65974,243.73706,65,44,0
243.65974,243.73706,60,36,0
243.65974,243.73706,56,36,0
243.81438,244.1182,65,47,0
243.81438,244.1182,60,39,0
243.81438,244.1182,53,39,0
244.1182,244.19673,60,41,0
244.1182,244.19673,53,35,0
244.27525,244.35379,60,41,0
244.27525,244.35379,53,35,0
244.43233,244.73845,60,45,0
244.43233,244.73845,56,38,0
244.43233,244.73845,50,38,0
244.73845,244.81699,60,38,0
244.73845,244.81699,55,31,0
244.73845,244.81699,50,31,0
244.89552,244.97404,60,38,0
244.89552,244.97404,53,31,0
244.89552,244.97404,50,31,0
245.05258,245.21475,55,39,0
245.05258,245.21475,50,34,0
245.05258,245.21475,43,34,0
245.3769,245.5348,55,36,0
245.3769,245.5348,48,30,0
245.3769,245.5348,43,30,0
245.5348,245.6927,55,36,0
245.5348,245.6927,51,30,0
245.5348,245.6927,43,30,0
245.6927,245.86412,55,37,0
245.6927,245.86412,50,31,0
245.6927,245.86412,43,31,0
246.03555,246.19772,55,34,0
246.03555,246.19772,48,28,0
246.03555,246.19772,43,28,0
246.19772,246.35988,55,34,0
246.19772,246.35988,51,28,0
246.19772,246.35988,43,28,0
246.35988,246.53532,55,33,0
246.35988,246.53532,50,27,0
246.35988,246.53532,43,27,0
246.71075,247.35837,62,38,0
247.70229,248.04198,60,32,0
247.70229,248.04198,54,27,0
247.35837,248.04198,62,32,0
248.04198,248.37933,62,29,0
248.04198,248.37933,50,24,0
248.37933,248.71434,59,32,0
248.37933,248.71434,55,27,0
248.71434,249.0492,62,28,0
248.71434,249.0492,50,24,0
249.0492,249.23587,38,47,0
249.41083,249.75337,62,28,0
249.41083,249.75337,50,24,0
249.75337,250.09352,60,32,0
249.75337,250.09352,57,27,0
250.09352,250.44083,62,28,0
250.09352,250.44083,50,24,0
250.44083,250.78096,59,32,0
250.44083,250.78096,55,27,0
250.78096,251.1211,62,29,0
250.78096,251.1211,50,24,0
251.1211,251.46587,57,32,0
251.1211,251.46587,54,27,0
251.46587,251.80423,62,28,0
251.46587,251.80423,50,24,0
251.80423,252.1573,58,32,0
251.80423,252.1573,55,27,0
252.1573,252.84729,62,32,0
252.1573,252.84729,50,27,0
252.84729,253.19272,62,31,0
252.84729,253.19272,50,26,0
253.19272,253.538,57,32,0
253.19272,253.538,54,27,0
253.538,253.88483,62,28,0
253.538,253.88483,50,24,0
253.88483,254.2378,58,32,0
253.88483,254.2378,55,27,0
254.2378,254.59982,62,28,0
254.2378,254.59982,50,24,0
254.59982,254.97142,59,32,0
254.59982,254.97142,56,27,0
254.97142,255.34811,62,28,0
254.97142,255.34811,50,24,0
255.34811,255.70514,60,29,0
255.34811,255.70514,57,27,0
255.70514,256.39893,62,32,0
255.70514,256.39893,50,24,0
256.39893,256.73627,62,29,0
256.39893,256.73627,50,24,0
256.73627,257.08337,58,32,0
256.73627,257.08337,55,27,0
257.08337,257.42715,62,28,0
257.08337,257.42715,50,24,0
257.42715,257.61713,38,47,0
257.79178,258.13373,62,28,0
257.79178,258.13373,50,24,0
258.13373,258.47296,60,32,0
258.13373,258.47296,54,27,0
258.47296,258.81876,62,28,0
258.47296,258.81876,50,24,0
258.81876,259.1589,58,32,0
258.81876,259.1589,55,27,0
259.1589,259.49905,62,29,0
259.1589,259.49905,50,24,0
259.49905,259.86215,58,40,0
259.49905,259.86215,55,34,0
259.86215,260.56644,63,36,0
259.86215,260.56644,50,30,0
260.56644,260.9157,63,40,0
260.56644,260.9157,50,34,0
260.9157,261.2596,58,39,0
260.9157,261.2596,55,33,0
261.2596,261.6113,63,39,0
261.2596,261.6113,50,33,0
261.6113,261.97293,62,35,0
261.6113,261.97293,57,29,0
261.6113,261.97293,54,29,0
261.97293,262.3268,50,36,0
262.3268,262.67502,63,38,0
262.3268,262.67502,58,32,0
262.3268,262.67502,55,32,0
262.67502,263.0189,49,40,0
263.0189,263.36267,64,42,0
263.0189,263.36267,58,36,0
263.0189,263.36267,55,36,0
263.36267,263.74088,48,43,0
263.74088,263.91647,41,52,0
264.09204,264.7829,65,44,0
264.09204,264.7829,53,34,0
264.7829,265.14194,65,40,0
264.7829,265.14194,53,34,0
265.14194,265.49707,61,44,0
265.14194,265.49707,58,37,0
265.49707,265.84088,65,39,0
265.49707,265.84088,53,33,0
265.84088,266.03085,29,56,0
266.2055,266.54742,65,39,0
266.2055,266.54742,53,33,0
266.54742,266.8867,63,44,0
266.54742,266.8867,57,37,0
266.8867,267.23248,65,39,0
266.8867,267.23248,53,33,0
267.23248,267.57263,61,44,0
267.23248,267.57263,58,37,0
267.57263,267.91275,65,40,0
267.57263,267.91275,53,34,0
267.91275,268.27588,61,44,0
267.91275,268.27588,58,37,0
268.27588,268.98013,66,39,0
268.27588,268.98013,53,33,0
268.98013,269.32944,66,44,0
268.98013,269.32944,53,37,0
269.32944,269.67334,61,42,0
269.32944,269.67334,58,36,0
269.67334,270.02502,66,42,0
269.67334,270.02502,53,36,0
270.02502,270.38666,60,38,0
270.02502,270.38666,57,31,0
270.38666,270.7405,65,38,0
270.38666,270.7405,53,33,0
270.7405,271.0887,61,38,0
270.7405,271.0887,58,32,0
271.0887,271.4324,65,38,0
271.0887,271.4324,53,31,0
271.4324,271.7859,62,37,0
271.4324,271.7859,59,32,0
271.7859,272.20053,65,36,0
271.7859,272.20053,53,29,0
272.20053,272.5623,63,31,0
272.20053,272.5623,60,28,0
272.5623,273.25864,65,34,0
272.5623,273.25864,53,26,0
273.25864,273.6174,65,31,0
273.25864,273.6174,53,26,0
273.6174,273.96255,61,34,0
273.6174,273.96255,58,28,0
273.96255,274.3423,65,30,0
273.96255,274.3423,53,25,0
274.3423,274.5276,29,43,0
274.70404,275.05054,65,30,0
274.70404,275.05054,53,25,0
275.05054,275.39185,63,34,0
275.05054,275.39185,57,28,0
275.39185,275.73727,65,30,0
275.39185,275.73727,53,25,0
275.73727,276.07742,61,34,0
275.73727,276.07742,58,28,0
276.07742,276.41757,65,31,0
276.07742,276.41757,53,26,0
276.41757,276.58942,41,51,0
276.7613,277.4447,60,34,0
276.7613,277.4447,48,26,0
277.4447,277.80264,60,31,0
277.4447,277.80264,48,26,0
277.80264,278.15494,56,34,0
277.80264,278.15494,53,28,0
278.15494,278.4899,60,30,0
278.15494,278.4899,48,25,0
278.4899,278.6627,39,47,0
278.83548,279.53604,60,34,0
278.83548,279.53604,48,26,0
279.53604,279.87442,60,31,0
279.53604,279.87442,48,26,0
279.87442,280.04214,37,48,0
280.21133,280.55432,60,30,0
280.21133,280.55432,49,25,0
280.55432,280.741,36,49,0
280.91284,281.59628,60,34,0
280.91284,281.59628,48,26,0
281.59628,281.95203,60,31,0
281.59628,281.95203,48,26,0
281.95203,282.29456,56,34,0
281.95203,282.29456,53,28,0
282.29456,282.63123,60,30,0
282.29456,282.63123,48,25,0
282.63123,282.80402,39,50,0
282.9768,283.67737,60,34,0
282.9768,283.67737,48,26,0
283.67737,284.01575,60,31,0
283.67737,284.01575,48,26,0
284.01575,284.18347,37,51,0
284.35266,284.69565,60,30,0
284.35266,284.69565,49,25,0
284.69565,284.88232,36,49,0
285.0542,285.7376,60,34,0
285.0542,285.7376,48,26,0
285.7376,286.08615,60,31,0
285.7376,286.08615,48,26,0
286.08615,286.42868,56,34,0
286.08615,286.42868,53,28,0
286.42868,286.7618,60,30,0
286.42868,286.7618,48,25,0
286.7618,287.10556,55,39,0
286.7618,287.10556,51,28,0
287.10556,287.78897,60,34,0
287.10556,287.78897,48,26,0
287.78897,288.1263,60,31,0
287.78897,288.1263,48,26,0
288.1263,288.46854,53,34,0
288.1263,288.46854,49,28,0
288.46854,288.8017,60,30,0
288.46854,288.8017,48,25,0
288.8017,289.14542,52,39,0
289.14542,289.82617,60,34,0
289.14542,289.82617,48,26,0
289.82617,290.1808,60,31,0
289.82617,290.1808,48,26,0
290.1808,290.52316,56,34,0
290.1808,290.52316,53,28,0
290.52316,290.8563,60,30,0
290.52316,290.8563,48,25,0
290.8563,291.2,55,39,0
290.8563,291.2,51,28,0
291.2,291.88342,60,34,0
291.2,291.88342,48,26,0
291.88342,292.2371,60,31,0
291.88342,292.2371,48,26,0
292.2371,292.57977,53,34,0
292.2371,292.57977,49,28,0
292.9129,293.24606,52,34,0
292.57977,293.24606,60,30,0
292.57977,293.24606,48,25,0
293.58728,293.75385,54,37,0
293.75385,293.9204,55,39,0
293.9204,294.087,56,43,0
294.087,294.25357,58,46,0
294.25357,294.42014,56,48,0
294.42014,294.58673,55,48,0
294.58673,294.7533,53,48,0
294.7533,294.92886,52,49,0
294.92886,295.09546,51,48,0
295.09546,295.26202,52,51,0
295.26202,295.4286,53,53,0
295.4286,295.59518,55,55,0
295.76523,295.9353,55,56,0
295.59518,295.9353,49,62,0
296.10538,296.27545,55,53,0
295.9353,296.27545,48,60,0
296.27545,296.44553,47,51,0
296.44553,296.61557,48,53,0
296.61557,296.78564,49,54,0
296.78564,296.95572,51,57,0
296.95572,297.1258,49,60,0
297.1258,297.29584,48,58,0
297.29584,297.4659,46,56,0
297.4659,297.636,44,55,0
297.80664,297.9776,48,58,0
297.9776,298.14856,46,58,0
297.636,298.14856,43,64,0
298.14856,298.31952,42,59,0
298.49326,298.66696,48,58,0
298.66696,298.84067,46,58,0
298.31952,298.84067,41,62,0
298.84067,299.01437,40,59,0
299.19186,299.36935,44,60,0
299.36935,299.54684,43,61,0
299.01437,299.54684,39,66,0
299.54684,299.7257,39,63,0
299.91205,300.10144,43,65,0
300.10144,300.29422,41,68,0
299.7257,300.29422,37,69,0
300.29422,300.49176,37,68,0
300.70587,300.94003,39,70,0
300.49176,300.94003,36,74,0
301.20108,301.49612,39,73,0
300.94003,301.49612,34,71,0
301.49612,301.73495,44,84,0
301.49612,301.73495,32,70,0
301.97382,302.27277,63,79,0
301.97382,302.27277,51,67,0
301.97382,302.27277,60,67,0
302.27277,302.62366,56,64,0
302.27277,302.62366,60,77,0
302.27277,302.62366,68,77,0
302.62366,302.71036,51,85,0
302.62366,302.71036,39,72,0
302.97046,303.13715,56,86,0
302.97046,303.13715,44,73,0
303.3038,303.64694,39,73,0
303.3038,303.64694,27,61,0
303.64694,303.98843,44,79,0
303.64694,303.98843,32,67,0
303.98843,304.31055,51,61,0
303.98843,304.31055,63,73,0
303.98843,304.31055,60,61,0
304.31055,304.6677,56,63,0
304.31055,304.6677,60,75,0
304.31055,304.6677,68,75,0
304.6677,304.75293,51,80,0
304.6677,304.75293,39,67,0
305.0086,305.1699,56,86,0
305.0086,305.1699,44,73,0
305.33118,305.66733,39,73,0
305.33118,305.66733,27,61,0
305.66733,306.00067,44,79,0
305.66733,306.00067,32,67,0
306.00067,306.314,51,61,0
306.00067,306.314,63,73,0
306.00067,306.314,60,61,0
306.314,306.6473,56,63,0
306.314,306.6473,60,75,0
306.314,306.6473,68,75,0
306.6473,306.79883,51,73,0
306.6473,306.79883,39,61,0
306.97125,307.1379,56,77,0
306.97125,307.1379,44,64,0
307.34772,307.57986,54,74,0
307.29526,307.57986,46,62,0
307.2428,307.57986,39,62,0
307.71378,307.93698,57,74,0
307.66913,307.93698,51,74,0
307.57986,307.93698,41,62,0
307.62448,308.07092,48,62,0
308.07092,308.29413,69,73,0
308.02628,308.29413,63,73,0
307.98163,308.29413,60,61,0
307.93698,308.29413,53,61,0
308.42807,308.78522,61,75,0
308.38342,308.78522,53,75,0
308.33878,308.78522,46,63,0
308.78522,309.14883,54,71,0
308.78522,309.14883,42,60,0
309.14883,309.5018,53,71,0
309.14883,309.5018,41,60,0
309.5018,309.8889,49,69,0
309.5018,309.8889,37,58,0
309.8889,310.08496,46,79,0
309.8889,310.08496,34,67,0
310.28104,310.5866,65,79,0
310.28104,310.5866,53,67,0
310.28104,310.5866,61,79,0
310.5866,310.9334,58,64,0
310.5866,310.9334,61,77,0
310.5866,310.9334,70,77,0
310.9334,311.0201,53,85,0
310.9334,311.0201,41,72,0
311.28024,311.4469,58,86,0
311.28024,311.4469,46,73,0
311.61356,311.9567,41,73,0
311.61356,311.9567,29,61,0
311.9567,312.29822,46,79,0
311.9567,312.29822,34,67,0
312.29822,312.62033,53,61,0
312.29822,312.62033,65,73,0
312.29822,312.62033,61,61,0
312.62033,312.97748,58,63,0
312.62033,312.97748,61,75,0
312.62033,312.97748,70,75,0
312.97748,313.06268,53,80,0
312.97748,313.06268,41,67,0
313.3184,313.47968,58,86,0
313.3184,313.47968,46,73,0
313.64096,314.00058,46,73,0
313.64096,314.00058,34,61,0
314.00058,314.17398,39,79,0
314.00058,314.17398,27,67,0
314.34738,314.49026,72,72,0
314.49026,314.6607,70,70,0
314.34738,314.6607,63,60,0
314.34738,314.6607,61,60,0
314.34738,314.6607,67,60,0
314.6607,314.82736,51,75,0
314.99405,315.1369,70,72,0
315.1369,315.30734,68,70,0
314.99405,315.30734,63,69,0
314.99405,315.30734,60,58,0
315.30734,315.47403,51,73,0
315.6407,315.78354,68,72,0
315.78354,315.954,67,70,0
315.6407,315.954,63,67,0
315.6407,315.954,58,56,0
315.954,316.12067,46,70,0
316.28732,316.43018,67,72,0
316.43018,316.60065,65,70,0
316.28732,316.60065,58,55,0
316.28732,316.60065,62,66,0
316.28732,316.60065,56,55,0
316.60065,316.7673,51,72,0
316.934,317.07684,65,72,0
317.07684,317.24728,63,70,0
316.934,317.24728,58,68,0
316.934,317.24728,55,57,0
317.24728,317.58063,41,62,0
317.58063,317.72348,61,72,0
317.72348,317.89392,60,68,0
317.58063,317.89392,56,68,0
317.24728,317.89392,53,74,0
317.89392,318.23483,49,71,0
317.89392,318.23483,37,59,0
318.23483,318.56302,58,59,0
318.23483,318.56302,53,51,0
318.56302,318.8782,48,63,0
318.56302,318.8782,36,53,0
318.8782,319.20416,58,49,0
318.8782,319.20416,60,59,0
318.8782,319.20416,52,49,0
319.20416,319.5165,41,69,0
319.20416,319.5165,29,58,0
319.5165,319.8426,60,67,0
319.5165,319.8426,56,67,0
319.5165,319.8426,53,67,0
319.8426,320.0084,51,72,0
319.8426,320.0084,39,51,0
320.1789,320.51263,58,68,0
320.1789,320.51263,51,48,0
320.51263,320.8387,56,70,0
320.51263,320.8387,51,50,0
320.51263,320.8387,44,50,0
321.49088,321.82797,56,72,0
321.49088,321.82797,44,61,0
321.82797,322.17883,49,74,0
321.82797,322.17883,37,62,0
322.17883,322.50702,58,64,0
322.17883,322.50702,53,55,0
322.50702,322.8222,48,75,0
322.50702,322.8222,36,63,0
322.8222,323.14813,60,57,0
322.8222,323.14813,64,68,0
322.8222,323.14813,58,57,0
323.14813,323.4605,41,78,0
323.14813,323.4605,29,66,0
323.4605,323.7866,65,73,0
323.4605,323.7866,53,68,0
323.4605,323.7866,56,70,0
323.4605,323.7866,60,73,0
323.7866,323.95056,51,77,0
323.7866,323.95056,39,64,0
324.12106,324.4501,67,71,0
324.12106,324.4501,58,43,0
324.12106,324.4501,61,43,0
324.12106,324.4501,63,60,0
324.4501,324.62054,68,71,0
324.4501,324.62054,63,60,0
324.4501,324.62054,56,60,0
324.79102,325.0522,71,70,0
324.79102,325.0522,68,70,0
324.79102,325.0522,59,70,0
324.79102,325.0522,62,70,0
325.0522,325.13205,63,63,0
325.0522,325.13205,68,63,0
325.0522,325.13205,60,63,0
325.0522,325.13205,72,63,0
325.14093,325.31335,63,71,0
325.14093,325.31335,68,71,0
325.14093,325.31335,72,71,0
325.14093,325.31335,60,71,0
325.48578,325.73578,69,72,0
325.35645,325.73578,53,61,0
325.39957,325.73578,60,61,0
325.44266,325.73578,63,61,0
325.8191,326.08072,61,78,0
325.77744,326.08072,53,66,0
325.73578,326.08072,46,66,0
326.16794,326.42075,66,72,0
326.12433,326.42075,58,61,0
326.08072,326.42075,51,61,0
326.505,326.76617,61,68,0
326.4629,326.76617,53,57,0
326.42075,326.76617,46,57,0
326.8539,327.10532,54,68,0
326.81006,327.10532,46,57,0
326.76617,327.10532,39,57,0
327.18912,327.45227,49,68,0
327.14722,327.45227,41,57,0
327.10532,327.45227,34,57,0
327.53998,327.79138,54,67,0
327.49612,327.79138,46,56,0
327.45227,327.79138,39,56,0
327.87518,328.13336,61,72,0
327.83328,328.13336,53,61,0
327.79138,328.13336,46,61,0
328.22006,328.30408,33,55,0
328.30408,328.38727,34,55,0
328.38727,328.47015,36,56,0
328.47015,328.5526,37,56,0
328.5526,328.63474,39,56,0
328.63474,328.71658,41,57,0
328.71658,328.79813,43,58,0
328.79813,328.87924,45,58,0
328.87924,328.96005,46,59,0
328.96005,329.0406,48,60,0
329.0406,329.1208,49,60,0
329.1208,329.2006,51,61,0
329.2006,329.28015,53,61,0
329.28015,329.3594,55,61,0
329.3594,329.43835,57,62,0
329.43835,329.5169,58,62,0
329.5169,329.59518,60,63,0
329.59518,329.67322,61,64,0
329.67322,329.75092,63,64,0
329.75092,329.82828,65,66,0
329.82828,329.90536,67,67,0
329.90536,329.98218,69,65,0
329.98218,330.05872,70,66,0
330.05872,330.1349,72,67,0
330.1349,330.2108,73,68,0
330.2108,330.28644,75,69,0
330.28644,330.36182,77,70,0
330.36182,330.4564,79,71,0
330.4564,330.5159,81,72,0
330.8704,331.0283,39,80,0
330.8704,331.0283,27,68,0
331.1862,331.3538,63,72,0
331.1862,331.3538,51,61,0
331.5214,331.8355,75,79,0
331.5214,331.8355,72,67,0
331.5214,331.8355,67,67,0
331.5214,331.8355,63,67,0
331.8355,332.15985,65,64,0
331.8355,332.15985,72,64,0
331.8355,332.15985,77,77,0
332.15985,332.49564,72,72,0
332.15985,332.49564,68,61,0
332.15985,332.49564,60,61,0
332.49564,332.81476,61,64,0
332.49564,332.81476,68,64,0
332.49564,332.81476,73,77,0
332.81476,333.15186,72,72,0
332.81476,333.15186,68,61,0
332.81476,333.15186,60,61,0
333.15186,333.47272,56,60,0
333.15186,333.47272,63,60,0
333.15186,333.47272,68,73,0
333.47272,333.8101,65,68,0
333.47272,333.8101,53,57,0
333.8101,334.13266,49,60,0
333.8101,334.13266,56,60,0
333.8101,334.13266,61,73,0
334.13266,334.47552,61,68,0
334.13266,334.47552,58,57,0
334.13266,334.47552,51,57,0
334.47552,334.63724,44,68,0
334.47552,334.63724,32,57,0
334.79898,335.096,60,68,0
334.79898,335.096,56,57,0
334.79898,335.096,51,57,0
335.096,335.39044,59,73,0
335.096,335.39044,56,62,0
335.096,335.39044,53,62,0
335.39044,335.53116,53,68,0
335.39044,335.53116,41,57,0
335.6711,335.8102,41,73,0
335.6711,335.8102,29,62,0
335.94836,336.22946,40,75,0
335.94836,336.22946,28,63,0
336.22946,336.37827,39,76,0
336.22946,336.37827,27,64,0
336.52902,336.59784,67,71,0
336.52902,336.59784,58,60,0
336.52902,336.59784,61,60,0
336.52902,336.59784,63,60,0
336.66666,336.73846,67,67,0
336.66666,336.73846,58,56,0
336.66666,336.73846,61,56,0
336.66666,336.73846,63,56,0
336.81024,336.95447,67,71,0
336.81024,336.95447,58,60,0
336.81024,336.95447,61,60,0
336.81024,336.95447,63,60,0
337.0987,337.24652,66,65,0
337.0987,337.24652,58,55,0
337.0987,337.24652,61,55,0
337.0987,337.24652,63,55,0
337.24652,337.40225,67,69,0
337.24652,337.40225,58,58,0
337.24652,337.40225,61,58,0
337.24652,337.40225,63,58,0
337.40225,337.69635,68,72,0
337.40225,337.69635,58,61,0
337.40225,337.69635,61,61,0
337.40225,337.69635,63,61,0
337.69635,338.01382,70,70,0
337.69635,338.01382,58,59,0
337.69635,338.01382,61,59,0
337.69635,338.01382,63,59,0
338.01382,338.16312,56,74,0
338.01382,338.16312,44,62,0
338.3124,338.5995,60,68,0
338.3124,338.5995,56,57,0
338.3124,338.5995,51,57,0
338.5995,338.88565,59,73,0
338.5995,338.88565,56,62,0
338.5995,338.88565,53,62,0
338.88565,339.02637,53,68,0
338.88565,339.02637,41,57,0
339.16632,339.3044,41,73,0
339.16632,339.3044,29,62,0
339.4431,339.72458,40,75,0
339.4431,339.72458,28,63,0
339.72458,339.87164,39,76,0
339.72458,339.87164,27,64,0
340.0187,340.08627,67,71,0
340.0187,340.08627,58,60,0
340.0187,340.08627,61,60,0
340.0187,340.08627,63,60,0
340.15387,340.22363,67,67,0
340.15387,340.22363,58,56,0
340.15387,340.22363,61,56,0
340.15387,340.22363,63,56,0
340.29343,340.43628,67,71,0
340.29343,340.43628,58,60,0
340.29343,340.43628,61,60,0
340.29343,340.43628,63,60,0
340.43628,340.57913,68,60,0
340.43628,340.57913,58,51,0
340.43628,340.57913,61,51,0
340.43628,340.57913,63,51,0
340.57913,340.7322,66,65,0
340.57913,340.7322,58,55,0
340.57913,340.7322,61,55,0
340.57913,340.7322,63,55,0
340.7322,340.88525,67,69,0
340.7322,340.88525,58,58,0
340.7322,340.88525,61,58,0
340.7322,340.88525,63,58,0
340.88525,341.23007,68,72,0
340.88525,341.23007,58,61,0
340.88525,341.23007,61,61,0
340.88525,341.23007,63,61,0
341.23007,341.58746,70,70,0
341.23007,341.58746,58,59,0
341.23007,341.58746,61,59,0
341.23007,341.58746,63,59,0
341.58746,341.74445,44,84,0
341.58746,341.74445,32,70,0
341.9014,342.01584,51,79,0
341.9014,342.01584,39,67,0
342.1435,342.2867,44,64,0
342.1435,342.2867,56,77,0
342.4299,342.50067,63,85,0
342.4299,342.50067,51,72,0
342.71298,342.849,68,86,0
342.71298,342.849,56,73,0
342.98505,343.12106,75,73,0
342.98505,343.12106,63,61,0
343.2651,343.42307,44,84,0
343.2651,343.42307,32,70,0
343.58105,343.69547,51,79,0
343.58105,343.69547,39,67,0
343.82315,343.96634,44,64,0
343.82315,343.96634,56,77,0
344.10956,344.18033,63,85,0
344.10956,344.18033,51,72,0
344.3926,344.52866,68,86,0
344.3926,344.52866,56,73,0
344.66467,344.80072,75,73,0
344.66467,344.80072,63,61,0
344.94476,345.0856,44,84,0
344.94476,345.0856,32,70,0
345.22644,345.34085,51,79,0
345.22644,345.34085,39,67,0
345.4732,345.60654,44,64,0
345.4732,345.60654,56,77,0
345.73987,345.80838,63,85,0
345.73987,345.80838,51,72,0
346.01385,346.14542,68,86,0
346.01385,346.14542,56,73,0
346.277,346.4086,63,73,0
346.277,346.4086,51,61,0
346.5475,346.6937,56,84,0
346.5475,346.6937,44,70,0
346.83066,346.9451,51,79,0
346.83066,346.9451,39,67,0
347.07745,347.14905,44,84,0
347.07745,347.14905,32,71,0
347.22064,347.29224,43,80,0
347.22064,347.29224,31,68,0
347.36383,347.4346,41,81,0
347.36383,347.4346,29,68,0
347.50537,347.57614,39,81,0
347.50537,347.57614,27,68,0
347.6469,347.71582,44,77,0
347.6469,347.71582,32,64,0
347.78525,347.8555,43,80,0
347.78525,347.8555,31,68,0
347.9264,347.99814,41,83,0
347.9264,347.99814,29,70,0
348.0706,348.14374,39,86,0
348.0706,348.14374,27,73,0
348.2178,348.5025,44,89,0
348.2178,348.5025,32,74,0
349.07193,349.14993,48,77,0
349.07193,349.14993,43,65,0
349.07193,349.14993,36,65,0
349.2279,349.30588,48,72,0
349.2279,349.30588,43,61,0
349.2279,349.30588,36,61,0
349.38388,349.53986,48,77,0
349.38388,349.53986,43,65,0
349.38388,349.53986,36,65,0
349.69583,349.8624,48,71,0
349.69583,349.8624,43,60,0
349.69583,349.8624,36,60,0
349.99988,350.29486,48,71,0
349.96695,350.29486,43,60,0
349.93405,350.29486,36,60,0
350.5726,350.86758,48,71,0
350.54004,350.86758,43,60,0
350.50748,350.86758,36,60,0
351.14603,351.42426,46,71,0
351.08057,351.42426,39,60,0
351.7025,352.01346,44,79,0
351.7025,352.01346,32,67,0
