start_time,end_time,note_value,velocity,instrument_program_number
0.0,0.10550622,51,83,1
0.1063865,0.20969443,55,52,1
0.2105565,0.31141275,63,52,1
0.3122545,0.4109943,63,53,1
0.41181666,0.5091461,67,62,1
0.5099631,0.6067654,75,55,1
0.6075771,0.70396054,75,53,1
0.7047696,0.80063623,79,53,1
0.80144006,0.8968931,87,71,1
0.8976969,0.99356097,79,57,1
0.9943674,1.0907482,75,57,1
1.0915599,1.1883596,75,57,1
1.1891739,1.2882339,67,64,1
1.2890756,1.3911905,63,55,1
1.3920556,1.4971776,63,56,1
1.4980705,1.6045934,55,56,1
1.6054324,1.7069719,50,84,1
1.7078222,1.8082224,56,52,1
1.8090613,1.9082315,62,52,1
1.909062,2.0071418,62,52,1
2.0079641,2.105721,68,67,1
2.1065407,2.20387,74,55,1
2.204687,2.3014894,74,53,1
2.302301,2.3986845,80,53,1
2.3994935,2.4954612,86,77,1
2.4962678,2.5926485,80,58,1
2.5934603,2.69026,74,58,1
2.6910741,2.788401,74,58,1
2.7892206,2.8882754,68,66,1
2.8891144,2.9907632,62,58,1
2.991625,3.0961306,62,58,1
3.097017,3.2044163,56,57,1
3.2053287,3.3048272,53,90,1
3.3056633,3.40483,60,59,1
3.4056633,3.504393,65,60,1
3.505221,3.6036243,65,60,1
3.6044495,3.7025285,72,70,1
3.703351,3.8009999,77,61,1
3.8018196,3.899149,77,61,1
3.899966,3.9969778,84,61,1
3.9977922,4.094383,89,78,1
4.095195,4.191994,84,63,1
4.1928086,4.2899246,77,63,1
4.2907414,4.3881755,77,63,1
4.388995,4.487503,72,72,1
4.4883394,4.5898733,65,63,1
4.5907354,4.6954875,65,63,1
4.6963773,4.8045573,60,63,1
4.8054767,4.905309,51,96,1
4.906148,5.0055375,55,62,1
5.006371,5.105319,63,62,1
5.106149,5.2045527,63,63,1
5.205378,5.3033485,67,74,1
5.3041706,5.4016075,75,64,1
5.4024243,5.4994364,75,63,1
5.500251,5.596739,79,63,1
5.597548,5.6939287,87,86,1
5.694741,5.79154,79,67,1
5.7923546,5.8894706,75,67,1
5.8902874,5.9878283,75,67,1
5.988648,6.0875936,67,74,1
6.0884356,6.1910224,63,63,1
6.191897,6.298401,63,63,1
6.299307,6.4097652,55,63,1
6.410698,6.5101967,50,97,1
6.5110326,6.610091,56,59,1
6.610922,6.709652,62,59,1
6.7104797,6.808774,62,59,1
6.809599,6.9074607,68,72,1
6.908283,7.0057197,74,59,1
7.006537,7.1036553,74,58,1
7.1044693,7.201166,80,58,1
7.2019777,7.2982564,86,86,1
7.299065,7.395759,80,61,1
7.3965735,7.4935827,74,60,1
7.4943995,7.5918336,74,60,1
7.5926533,7.690835,68,67,1
7.6916656,7.7925115,62,59,1
7.7933674,7.8973866,62,58,1
7.89827,8.005799,56,57,1
8.006716,8.106214,51,93,1
8.10705,8.206328,56,59,1
8.207162,8.30622,63,59,1
8.307051,8.405888,63,58,1
8.406718,8.505228,68,68,1
8.506056,8.60435,75,58,1
8.605176,8.703255,75,58,1
8.704077,8.801834,80,58,1
8.802653,8.900299,87,75,1
8.901122,8.999089,80,59,1
8.999915,9.098315,75,58,1
9.099143,9.19787,75,58,1
9.198701,9.298531,68,64,1
9.299376,9.401723,63,57,1
9.402592,9.507589,63,57,1
9.508479,9.610284,56,56,1
9.611117,9.718011,48,88,1
9.718904,9.823787,51,55,1
9.824664,9.927614,60,55,1
9.928473,10.029673,60,55,1
10.030517,10.129908,63,59,1
10.230741,10.329907,63,50,1
10.330741,10.429908,60,49,1
10.430741,10.529907,63,56,1
10.130741,10.530741,72,66,1
10.630741,10.729907,63,49,1
10.730741,10.829907,60,48,1
10.830741,10.929908,63,53,1
10.530741,10.930741,70,61,1
11.030741,11.129908,63,46,1
11.130741,11.229063,60,46,1
11.229875,11.32774,62,50,1
10.930741,11.3285675,68,57,1
11.428125,11.527401,62,42,1
11.528237,11.627957,59,42,1
11.628796,11.729075,61,48,1
11.3285675,11.729919,67,56,1
11.8315,11.932804,61,42,1
11.933657,12.035423,58,40,1
12.03628,12.138629,60,46,1
11.729919,12.139491,67,52,1
12.243178,12.346595,60,39,1
12.3474655,12.4513645,57,38,1
12.452239,12.556503,59,42,1
12.139491,12.557389,65,49,1
12.669381,12.789862,59,37,1
12.790903,12.922794,56,35,1
12.557389,12.923942,65,47,1
12.923942,13.030582,51,85,1
13.031472,13.135502,55,56,1
13.136371,13.237803,63,56,1
13.238647,13.337717,63,56,1
13.338542,13.437272,67,64,1
13.4381,13.536393,75,57,1
13.537219,13.634975,75,56,1
13.635795,13.733125,79,56,1
13.733941,13.830951,87,79,1
13.831768,13.929202,79,58,1
13.930021,14.027989,75,58,1
14.028814,14.127214,75,58,1
14.128042,14.226661,67,66,1
14.227499,14.329734,63,56,1
14.330605,14.436856,63,57,1
14.437762,14.544286,55,57,1
14.545124,14.646436,50,91,1
14.647292,14.74826,56,53,1
14.749104,14.848719,62,53,1
14.849552,14.947956,62,53,1
14.948781,15.046538,68,67,1
15.047358,15.144687,74,55,1
15.145504,15.242307,74,53,1
15.243118,15.339501,80,53,1
15.340311,15.436278,86,75,1
15.437085,15.533465,80,58,1
15.534277,15.631077,74,57,1
15.631891,15.7292185,74,57,1
15.730038,15.829093,68,64,1
15.829931,15.931581,62,57,1
15.932443,16.036947,62,57,1
16.037834,16.145233,56,56,1
16.146147,16.245644,53,92,1
16.24648,16.345648,60,58,1
16.346481,16.44521,65,58,1
16.446037,16.544441,65,59,1
16.545267,16.643345,72,69,1
16.644169,16.741817,77,60,1
16.742636,16.839966,77,60,1
16.840782,16.937796,84,60,1
16.93861,17.0352,89,80,1
17.036013,17.13281,84,61,1
17.133625,17.230742,77,61,1
17.231558,17.328993,77,61,1
17.329813,17.42832,72,69,1
17.429157,17.530691,65,60,1
17.531553,17.636305,65,60,1
17.637194,17.745375,60,60,1
17.746294,17.846127,52,93,1
17.846966,17.946354,60,60,1
17.947187,18.046137,64,60,1
18.046967,18.14537,64,60,1
18.146194,18.244165,72,70,1
18.244987,18.342424,76,61,1
18.34324,18.440254,76,60,1
18.441069,18.537556,84,60,1
18.538364,18.634747,88,81,1
18.635557,18.732357,84,62,1
18.733171,18.830288,76,62,1
18.831104,18.928646,76,62,1
18.929464,19.02841,72,70,1
19.029253,19.13184,64,60,1
19.132713,19.239218,64,60,1
19.240124,19.350582,60,61,1
19.351515,19.451014,56,96,1
19.451849,19.550909,61,63,1
19.551739,19.650469,68,63,1
19.651297,19.749592,68,63,1
19.750416,19.848278,73,79,1
19.8491,19.946537,80,64,1
19.947353,20.044472,80,63,1
20.045286,20.141983,85,63,1
20.142796,20.239073,92,83,1
20.239882,20.336576,85,69,1
20.33739,20.4344,80,67,1
20.435217,20.53265,80,67,1
20.53347,20.631653,73,77,1
20.632483,20.733328,68,67,1
20.734184,20.838203,68,67,1
20.839087,20.943295,61,66,1
20.944126,21.042963,55,102,1
21.043793,21.142523,59,70,1
21.14335,21.241861,67,70,1
21.24269,21.341091,67,70,1
21.341917,21.440102,71,84,1
21.440928,21.539005,79,73,1
21.53983,21.63769,79,73,1
21.638514,21.736162,83,73,1
21.73698,21.834736,91,84,1
21.835558,21.933743,83,74,1
21.934568,22.033184,79,74,1
22.034016,22.132204,79,75,1
22.133028,22.234917,71,84,1
22.235788,22.343195,67,74,1
22.344114,22.457674,67,74,1
22.458647,22.579103,59,74,1
22.580137,22.691391,52,107,1
22.692263,22.794155,55,71,1
22.795006,22.894625,64,72,1
22.895456,22.993107,64,72,1
22.993927,23.091362,67,85,1
23.09218,23.189192,76,74,1
23.190006,23.286703,76,74,1
23.287514,23.383898,79,74,1
23.384706,23.480776,88,88,1
23.481585,23.578072,88,77,1
23.578882,23.675892,91,77,1
23.676708,23.774355,100,77,1
23.775179,23.874897,91,86,1
23.875742,23.97809,88,75,1
23.978958,24.083958,88,75,1
24.084846,24.186651,79,75,1
24.187485,24.288332,76,75,1
24.289179,24.389687,76,63,1
24.390532,24.49059,67,63,1
24.491428,24.59115,64,63,1
24.692099,24.791265,55,64,1
24.792099,24.891266,52,64,1
24.892097,24.991264,55,64,1
24.591988,24.992098,64,95,1
24.992098,25.091707,50,95,1
25.092546,25.192156,55,67,1
25.192993,25.29227,62,84,1
25.293104,25.391838,55,68,1
25.392664,25.492382,53,94,1
25.493227,25.595575,55,70,1
25.596443,25.70144,67,83,1
25.702332,25.804134,55,64,1
25.804968,25.903807,52,106,1
25.904636,26.003147,55,69,1
26.003975,26.102053,64,69,1
26.201452,26.29889,67,80,1
26.102875,26.299706,64,69,1
26.299706,26.396717,76,70,1
26.397532,26.494228,76,70,1
26.49504,26.591423,79,70,1
26.592232,26.688303,88,87,1
26.689112,26.785597,88,71,1
26.78641,26.883417,91,71,1
26.884235,26.98188,100,71,1
26.982704,27.082424,91,80,1
27.08327,27.185616,88,69,1
27.186485,27.291483,88,69,1
27.292372,27.394176,79,69,1
27.39501,27.497835,76,72,1
27.498697,27.60105,76,62,1
27.601908,27.703678,67,62,1
27.70453,27.805838,64,62,1
27.908154,28.008661,55,62,1
28.009504,28.110012,52,62,1
28.110857,28.211363,55,62,1
27.806688,28.212208,64,92,1
28.212208,28.312714,50,89,1
28.313559,28.414066,55,63,1
28.516262,28.616993,55,66,1
28.617842,28.720663,48,86,1
28.721535,28.827152,55,67,1
28.41491,28.828049,62,69,1
28.93741,29.048971,55,62,1
28.828049,29.049917,60,68,1
29.049917,29.148754,50,95,1
29.149586,29.248095,55,67,1
29.248922,29.347002,62,67,1
29.446402,29.543839,67,78,1
29.347824,29.544655,62,67,1
29.544655,29.641666,74,68,1
29.64248,29.739178,74,67,1
29.739988,29.836372,79,67,1
29.837181,29.93325,86,80,1
29.934061,30.030546,86,68,1
30.031357,30.128366,91,68,1
30.129185,30.22683,98,68,1
30.227654,30.327374,91,78,1
30.328217,30.430565,86,67,1
30.431433,30.536432,86,67,1
30.537321,30.63944,79,67,1
30.640297,30.74195,74,70,1
30.742802,30.84388,74,60,1
30.844728,30.945349,67,60,1
30.946194,31.046251,62,60,1
31.147875,31.248268,55,53,1
31.249113,31.349846,50,53,1
31.350693,31.451996,55,53,1
31.04709,31.45285,62,83,1
31.45285,31.554499,48,80,1
31.555355,31.65747,53,55,1
31.76178,31.864838,53,57,1
31.865705,31.969362,48,75,1
31.970236,32.074986,53,58,1
31.65833,32.07587,60,59,1
32.182632,32.288273,53,53,1
32.07587,32.289154,57,59,1
32.289154,32.388653,48,77,1
32.38949,32.488655,53,52,1
32.48949,32.58822,60,52,1
32.589046,32.68745,60,52,1
32.688274,32.786354,65,61,1
32.787178,32.884827,72,53,1
32.885647,32.982975,72,53,1
32.98379,33.080803,77,53,1
33.08162,33.178207,84,69,1
33.17902,33.27582,77,55,1
33.276634,33.37375,72,55,1
33.374565,33.472,72,55,1
33.47282,33.571327,65,61,1
33.572166,33.6737,60,53,1
33.67456,33.779312,60,53,1
33.7802,33.888382,53,53,1
33.8893,33.9888,48,77,1
33.989635,34.088802,52,52,1
34.089638,34.188366,60,52,1
34.189194,34.287598,60,52,1
34.28842,34.3865,64,61,1
34.387325,34.484974,72,53,1
34.485794,34.583122,72,53,1
34.58394,34.68095,76,53,1
34.681767,34.778355,84,69,1
34.779167,34.87597,76,55,1
34.87678,34.973896,72,55,1
34.974716,35.072147,72,55,1
35.072968,35.17317,64,61,1
35.174034,35.285816,60,53,1
35.286793,35.41387,60,53,1
35.414986,35.56249,52,53,1
35.563797,35.66603,48,75,1
35.66689,35.768658,51,48,1
35.769512,35.87082,60,48,1
35.87167,35.97263,60,48,1
35.97348,36.073875,63,56,1
36.074715,36.174774,72,49,1
36.175613,36.275223,72,49,1
36.27606,36.37512,75,49,1
36.37595,36.474785,84,63,1
36.475616,36.574783,84,49,1
36.575615,36.675114,87,49,1
36.675953,36.775784,96,49,1
36.776623,36.87679,87,56,1
36.877632,36.979168,84,49,1
36.98003,37.08478,84,49,1
37.08567,37.19385,75,49,1
37.19477,37.297356,72,60,1
37.298218,37.400337,72,48,1
37.40119,37.502846,63,48,1
37.5037,37.60478,60,48,1
37.706295,37.80613,51,49,1
37.80697,37.9068,48,49,1
37.90764,38.00747,51,49,1
37.605625,38.00831,60,69,1
38.00831,38.10848,46,69,1
38.109318,38.209938,51,49,1
38.210785,38.31186,58,64,1
38.31271,38.41448,51,51,1
38.415333,38.517216,49,68,1
38.518074,38.62019,51,49,1
38.62105,38.725803,63,60,1
38.726692,38.834873,51,49,1
38.835793,38.93529,48,75,1
38.936127,39.035294,51,48,1
39.036125,39.134857,60,48,1
39.234913,39.332993,63,56,1
39.135685,39.333813,60,48,1
39.333813,39.43146,72,49,1
39.43228,39.52961,72,49,1
39.53043,39.62744,75,49,1
39.628254,39.724846,84,63,1
39.72566,39.822456,84,49,1
39.823273,39.920387,87,49,1
39.921204,40.01864,96,49,1
40.01946,40.117966,87,56,1
40.1188,40.220337,84,49,1
40.2212,40.32595,84,49,1
40.32684,40.433147,75,49,1
40.434017,40.53756,72,60,1
40.538425,40.641487,72,48,1
40.642353,40.744823,63,48,1
40.74568,40.847683,60,48,1
40.950813,41.05098,51,49,1
41.051823,41.151993,48,49,1
41.152832,41.253452,51,49,1
40.84854,41.2543,60,69,1
41.2543,41.355373,46,69,1
41.356224,41.457874,51,49,1
41.458733,41.56073,58,64,1
41.56159,41.664055,51,51,1
41.664917,41.767975,44,68,1
41.768845,41.87038,51,49,1
41.871243,41.975994,56,60,1
41.976883,42.085064,51,49,1
42.085983,42.185482,46,75,1
42.186317,42.285484,51,48,1
42.286316,42.385048,58,48,1
42.485104,42.583183,63,56,1
42.385876,42.584003,58,48,1
42.584003,42.681652,70,49,1
42.682472,42.7798,70,49,1
42.78062,42.877632,75,49,1
42.878445,42.975037,82,63,1
42.97585,43.072647,82,49,1
43.073463,43.170578,87,49,1
43.171394,43.26883,94,49,1
43.26965,43.368156,87,56,1
43.36899,43.470528,82,49,1
43.47139,43.57614,82,49,1
43.57703,43.68521,75,49,1
43.68613,43.788013,70,60,1
43.788868,43.890755,70,48,1
43.89161,43.993492,63,48,1
43.99435,44.096233,58,48,1
44.19983,44.301945,51,46,1
44.302803,44.40515,46,46,1
44.406013,44.508484,51,46,1
44.097088,44.509346,58,66,1
44.509346,44.611813,44,66,1
44.612675,44.715855,49,47,1
44.821373,44.92588,49,49,1
44.926758,45.03188,44,63,1
45.03277,45.138638,49,46,1
44.71672,45.13953,56,61,1
45.24863,45.36005,49,46,1
45.13953,45.360996,53,56,1
45.360996,45.460495,44,72,1
45.461334,45.560497,49,45,1
45.561333,45.66006,56,45,1
45.66089,45.759293,56,45,1
45.76012,45.858196,61,52,1
45.85902,45.95667,68,45,1
45.95749,46.054817,68,45,1
46.055634,46.152645,73,44,1
46.15346,46.250053,80,62,1
46.250862,46.347664,73,45,1
46.348476,46.445595,68,45,1
46.44641,46.543846,68,44,1
46.544662,46.643173,61,50,1
46.64401,46.74554,56,42,1
46.746403,46.85116,56,42,1
46.852047,46.960228,49,42,1
46.961147,47.060642,44,64,1
47.06148,47.16065,48,42,1
47.16148,47.260212,56,41,1
47.26104,47.359547,56,41,1
47.360374,47.458885,60,50,1
47.459713,47.558224,68,39,1
47.55905,47.657562,60,38,1
47.65839,47.757114,56,38,1
47.757946,47.857113,42,61,1
47.85795,47.957447,48,39,1
47.958282,48.058113,54,46,1
48.058952,48.159122,54,40,1
48.15996,48.262318,60,48,1
48.26319,48.370724,66,37,1
48.371643,48.486023,60,44,1
48.486023,48.599037,54,36,1
48.599888,48.701077,43,61,1
48.701927,48.802776,47,38,1
48.803623,48.90413,55,38,1
48.904972,49.005142,55,38,1
49.00598,49.105816,59,46,1
49.106655,49.206154,67,39,1
49.20699,49.306156,67,39,1
49.306988,49.405827,71,40,1
49.40666,49.504955,79,56,1
49.505775,49.60385,71,41,1
49.60468,49.703297,67,41,1
49.704124,49.80318,67,41,1
49.804016,49.903183,59,47,1
49.90402,50.00555,55,41,1
50.006413,50.111164,55,41,1
50.112057,50.220234,47,41,1
50.221153,50.320652,44,66,1
50.321487,50.42088,48,41,1
50.42171,50.520878,56,41,1
50.521713,50.62055,56,41,1
50.62138,50.72,60,49,1
50.72083,50.819233,68,44,1
50.820057,50.91824,68,44,1
50.919067,51.01693,72,44,1
51.01775,51.11529,80,60,1
51.11611,51.213867,72,45,1
51.214687,51.312656,68,45,1
51.31348,51.411667,68,45,1
51.41249,51.511,60,51,1
51.51183,51.611786,56,45,1
51.612648,51.7174,56,45,1
51.71829,51.82647,48,45,1
51.82739,51.926888,48,72,1
51.927723,52.02689,53,45,1
52.02772,52.126453,60,45,1
52.12728,52.22568,60,45,1
52.22651,52.32459,65,52,1
52.32541,52.423058,72,46,1
52.423878,52.521206,72,46,1
52.522026,52.619038,77,45,1
52.61985,52.716442,84,64,1
52.717255,52.814053,77,46,1
52.81487,52.911983,72,46,1
52.9128,53.010235,72,46,1
53.011055,53.109562,65,51,1
53.110397,53.211933,60,45,1
53.212795,53.317547,60,45,1
53.318436,53.426617,53,45,1
53.427536,53.527035,47,69,1
53.52787,53.627037,53,44,1
53.62787,53.7266,59,44,1
53.72743,53.825832,59,44,1
53.826656,53.924736,65,51,1
53.925556,54.023205,71,44,1
54.024025,54.121357,71,44,1
54.122173,54.219185,77,44,1
54.219997,54.31659,83,62,1
54.3174,54.4142,77,45,1
54.415016,54.51213,71,45,1
54.512947,54.610382,71,45,1
54.611202,54.70971,65,50,1
54.710545,54.81208,59,44,1
54.812943,54.917694,59,44,1
54.918583,55.026764,53,44,1
55.027683,55.127182,47,68,1
55.128017,55.227184,53,42,1
55.228016,55.326748,59,42,1
55.327576,55.42598,59,42,1
55.426804,55.524883,65,50,1
55.525703,55.623356,71,42,1
55.624172,55.721504,71,42,1
55.72232,55.819332,77,45,1
55.82015,55.916737,83,62,1
55.91755,56.014347,77,46,1
56.015163,56.112278,71,46,1
56.113094,56.21053,71,46,1
56.21135,56.309856,65,51,1
56.310696,56.412228,59,45,1
56.41309,56.51784,59,45,1
56.51873,56.62691,53,45,1
56.62783,56.72689,48,73,1
56.727722,56.826126,53,47,1
56.82695,56.92492,60,47,1
56.925743,57.02318,60,47,1
57.023994,57.121006,65,56,1
57.121822,57.21831,72,48,1
57.21912,57.315193,72,48,1
57.315998,57.411453,77,48,1
57.412254,57.508015,84,69,1
57.508823,57.604996,77,49,1
57.605804,57.7025,72,50,1
57.703312,57.80043,72,50,1
57.801247,57.899754,65,57,1
57.90059,58.002125,60,49,1
58.002987,58.10774,60,49,1
58.108627,58.21325,53,49,1
58.214077,58.31248,51,79,1
58.313305,58.411274,54,49,1
58.412098,58.50964,63,49,1
58.510456,58.607574,63,49,1
58.60839,58.705086,66,59,1
58.7059,58.802177,75,50,1
58.802986,58.898853,75,50,1
58.89966,58.995113,78,51,1
58.995914,59.09106,87,69,1
59.09186,59.187828,78,52,1
59.188637,59.28554,75,52,1
59.286358,59.384113,75,52,1
59.384933,59.483444,66,60,1
59.48428,59.58581,63,52,1
59.586674,59.691425,63,52,1
59.692318,59.800495,54,52,1
59.801414,59.900913,50,84,1
59.901752,60.000916,55,51,1
60.00175,60.10048,62,51,1
60.101307,60.19971,62,51,1
60.20054,60.298615,67,63,1
60.29944,60.397087,74,53,1
60.397907,60.495235,74,53,1
60.49605,60.593063,79,53,1
60.59388,60.69047,86,77,1
60.69128,60.788082,79,56,1
60.788895,60.886013,74,57,1
60.88683,60.984264,74,57,1
60.98508,61.08359,67,66,1
61.084427,61.185963,62,56,1
61.186825,61.291576,62,56,1
61.292465,61.400646,55,56,1
61.401566,61.501064,50,91,1
61.5019,61.601067,56,57,1
61.6019,61.70063,62,57,1
61.701458,61.79986,62,57,1
61.800686,61.898766,68,68,1
61.899586,61.997234,74,58,1
61.998055,62.095383,74,58,1
62.096203,62.193214,80,58,1
62.194027,62.29062,86,77,1
62.29143,62.38823,80,59,1
62.389046,62.48616,74,59,1
62.486977,62.58441,74,59,1
62.58523,62.68374,68,69,1
62.684574,62.78611,62,60,1
62.786972,62.891724,62,60,1
62.892612,63.000793,56,60,1
63.001713,63.10121,51,94,1
63.102047,63.201214,56,59,1
63.202045,63.300777,63,59,1
63.301605,63.40001,63,59,1
63.400833,63.498913,68,71,1
63.499733,63.59738,75,61,1
63.5982,63.695534,75,61,1
63.69635,63.79336,80,61,1
63.794174,63.890766,87,84,1
63.89158,63.988377,80,62,1
63.989193,64.08631,75,64,1
64.08713,64.184555,75,64,1
64.18538,64.283775,68,73,1
64.284615,64.387085,63,63,1
64.38796,64.50173,63,63,1
64.502815,64.64396,56,63,1
64.6452,64.744705,55,97,1
64.74554,64.8447,60,63,1
64.84554,64.94427,67,63,1
64.9451,65.0435,67,63,1
65.04433,65.1424,72,74,1
65.14323,65.240875,79,64,1
65.2417,65.33903,79,64,1
65.33984,65.43685,84,66,1
65.43767,65.534256,91,88,1
65.53507,65.631874,84,67,1
65.63268,65.7298,79,67,1
65.73062,65.82805,79,67,1
65.82887,65.927376,72,77,1
65.928215,66.02975,67,67,1
66.03061,66.13536,67,67,1
66.13625,66.24098,60,67,1
66.24181,66.34043,53,101,1
66.341255,66.43934,60,66,1
66.44016,66.53781,65,66,1
66.53863,66.63575,65,66,1
66.63656,66.73326,72,80,1
66.73407,66.830246,77,68,1
66.831055,66.92682,77,68,1
66.92762,67.02287,84,68,1
67.023674,67.11902,89,88,1
67.11983,67.215996,83,71,1
67.21681,67.31371,77,72,1
67.31453,67.41207,77,72,1
67.41289,67.51161,71,81,1
67.51245,67.613525,65,69,1
67.61438,67.72502,65,69,1
67.72608,67.86203,59,69,1
67.86322,67.96272,56,108,1
67.963554,68.06272,59,67,1
68.06355,68.162285,68,67,1
68.16312,68.26152,68,67,1
68.262344,68.36042,71,81,1
68.361244,68.45889,80,70,1
68.45971,68.557045,80,70,1
68.55786,68.65487,83,70,1
68.655685,68.75227,92,92,1
68.75309,68.849884,83,67,1
68.8507,68.947815,80,69,1
68.94863,69.04607,80,69,1
69.04689,69.14539,71,82,1
69.14623,69.247765,68,67,1
69.24863,69.35338,68,67,1
69.35427,69.46245,59,67,1
69.46337,69.562645,55,106,1
69.563484,69.66221,59,67,1
69.66304,69.76133,67,67,1
69.76216,69.85992,67,67,1
69.86073,69.95806,71,81,1
69.95888,70.05569,79,70,1
70.056496,70.15288,79,70,1
70.15369,70.24956,83,70,1
70.25036,70.34581,91,90,1
70.34661,70.44269,83,67,1
70.4435,70.540184,79,69,1
70.541,70.638435,79,69,1
70.63925,70.73776,71,82,1
70.7386,70.84013,67,67,1
70.840996,70.94575,67,67,1
70.94664,71.052475,59,67,1
71.05334,71.15546,43,100,1
71.15631,71.257965,47,61,1
71.25882,71.36012,55,62,1
71.36098,71.46182,55,64,1
71.46267,71.563065,59,75,1
71.5639,71.66396,67,66,1
71.6648,71.76441,59,67,1
71.76525,71.86442,55,68,1
71.86525,71.964195,43,105,1
71.96503,72.064415,48,68,1
72.065254,72.16497,55,68,1
72.16581,72.26609,55,69,1
72.26694,72.36847,60,80,1
72.36933,72.472626,67,70,1
72.473495,72.57862,60,71,1
72.579506,72.68586,55,72,1
72.68673,72.78885,43,106,1
72.7897,72.89124,49,69,1
72.8921,72.99295,55,70,1
72.99379,73.09396,55,71,1
73.0948,73.19463,61,81,1
73.19547,73.2953,67,72,1
73.29614,73.39598,61,74,1
73.39682,73.49665,55,76,1
73.49749,73.59811,43,109,1
73.59895,73.70095,49,73,1
73.70181,73.80523,55,75,1
73.80611,73.909805,49,75,1
73.91066,74.015785,43,96,1
74.016685,74.127846,50,73,1
74.1288,74.246864,55,72,1
74.24788,74.38249,50,72,1
74.38362,74.48913,51,108,1
74.490005,74.593315,55,70,1
74.59418,74.69504,63,70,1
74.69588,74.79462,63,70,1
74.79544,74.89277,67,82,1
74.893585,74.99039,75,72,1
74.9912,75.087585,75,70,1
75.088394,75.18426,79,70,1
75.18507,75.28052,87,90,1
75.28132,75.37718,79,74,1
75.37799,75.47437,75,74,1
75.47518,75.57198,75,74,1
75.5728,75.67142,67,82,1
75.67226,75.77449,63,70,1
75.77536,75.88161,63,70,1
75.882515,75.98904,55,70,1
75.989876,76.091415,50,107,1
76.09227,76.192665,56,66,1
76.193504,76.29268,62,66,1
76.29351,76.39159,62,66,1
76.39241,76.490166,68,82,1
76.49099,76.58832,74,67,1
76.589134,76.685936,74,66,1
76.686745,76.78313,80,66,1
76.783936,76.879906,86,92,1
76.880714,76.9771,80,72,1
76.977905,77.07471,74,70,1
77.07552,77.172844,74,70,1
77.17367,77.27272,68,79,1
77.27356,77.375206,62,69,1
77.37607,77.480576,62,69,1
77.48146,77.58886,56,67,1
77.589775,77.68927,53,107,1
77.69011,77.789276,60,70,1
77.79011,77.88884,65,70,1
77.88966,77.98807,65,70,1
77.98889,78.086975,72,82,1
78.0878,78.18545,77,72,1
78.186264,78.28359,77,72,1
78.28441,78.381424,84,72,1
78.38224,78.47883,89,88,1
78.47964,78.57644,84,74,1
78.577255,78.67437,77,74,1
78.675186,78.77262,77,74,1
78.77344,78.87195,72,82,1
78.87279,78.97432,65,72,1
78.97518,79.07993,65,72,1
79.080826,79.189,60,72,1
79.189926,79.28976,51,109,1
79.290596,79.389984,55,70,1
79.390816,79.48976,63,70,1
79.49059,79.589,63,70,1
79.58982,79.6878,67,82,1
79.688614,79.78606,75,72,1
79.78687,79.88388,75,70,1
79.8847,79.981186,79,70,1
79.981995,80.07838,87,91,1
80.079185,80.17599,79,74,1
80.1768,80.27392,75,74,1
80.274734,80.37228,75,74,1
80.37309,80.47204,67,82,1
80.47288,80.57547,63,70,1
80.57634,80.682846,63,70,1
80.683754,80.79421,55,70,1
80.79514,80.894646,50,110,1
80.89548,80.99454,56,66,1
80.99537,81.0941,62,66,1
81.094925,81.19322,62,66,1
81.194046,81.29191,68,82,1
81.29273,81.39017,74,67,1
81.39098,81.4881,74,66,1
81.488914,81.58561,80,66,1
81.586426,81.6827,86,95,1
81.68351,81.780205,80,72,1
81.78102,81.87803,74,70,1
81.878845,81.97628,74,70,1
81.9771,82.07528,68,79,1
82.07611,82.176956,62,69,1
82.17781,82.28183,62,69,1
82.282715,82.39024,56,67,1
82.39116,82.490326,51,109,1
82.49116,82.59011,56,70,1
82.59094,82.68967,63,70,1
82.6905,82.78901,63,70,1
82.78983,82.88802,68,82,1
82.88885,82.98682,75,72,1
82.98764,83.085396,75,72,1
83.08621,83.183655,80,72,1
83.18447,83.28169,87,94,1
83.28251,83.379944,80,74,1
83.38076,83.4783,75,74,1
83.47912,83.57698,75,74,1
83.577805,83.67753,68,82,1
83.67837,83.780716,63,72,1
83.781586,83.889084,63,72,1
83.89002,84.01433,56,72,1
84.01543,84.114044,48,106,1
84.114876,84.212845,51,70,1
84.21367,84.311,60,70,1
84.31181,84.40841,60,70,1
84.40922,84.50676,63,78,1
84.60594,84.70348,63,66,1
84.7043,84.80184,60,64,1
84.80266,84.9002,63,74,1
84.507576,84.901024,72,85,1
84.99938,85.096924,63,64,1
85.09774,85.19528,60,64,1
85.196106,85.29365,63,73,1
84.901024,85.294464,70,81,1
85.39282,85.490364,63,60,1
85.49119,85.58842,60,60,1
85.589226,85.68603,62,69,1
85.294464,85.686844,68,77,1
85.78499,85.882744,62,58,1
85.88356,85.981964,59,58,1
85.982796,86.08174,61,66,1
85.686844,86.08257,67,75,1
86.18279,86.28285,61,58,1
86.28369,86.38431,58,56,1
86.385155,86.48623,60,63,1
86.08257,86.48708,67,73,1
86.58971,86.692055,60,55,1
86.69292,86.79574,57,53,1
86.7966,86.900505,59,59,1
86.48708,86.90139,65,70,1
87.01338,87.13386,59,52,1
87.1349,87.26679,56,50,1
86.90139,87.26794,65,66,1
87.26794,87.37458,51,84,1
87.37547,87.4795,55,52,1
87.48037,87.5818,63,52,1
87.58265,87.68172,63,53,1
87.68254,87.77945,67,63,1
87.780266,87.87707,75,56,1
87.87788,87.97426,75,55,1
87.97507,88.07094,79,55,1
88.07174,88.16719,87,79,1
88.168,88.26386,79,58,1
88.26466,88.361046,75,59,1
88.36186,88.45866,75,59,1
88.45947,88.55809,67,67,1
88.55893,88.66116,63,56,1
88.66203,88.76829,63,56,1
88.769196,88.87572,55,57,1
88.87656,88.97787,50,92,1
88.97872,89.07969,56,55,1
89.080536,89.18015,62,55,1
89.180984,89.27939,62,55,1
89.28021,89.37797,68,69,1
89.37879,89.47612,74,56,1
89.47694,89.57374,74,56,1
89.57455,89.67093,80,56,1
89.67174,89.76771,86,79,1
89.76852,89.8649,80,61,1
89.86571,89.96251,74,59,1
89.963326,90.060646,74,60,1
90.06147,90.16052,68,68,1
90.16136,90.26301,62,60,1
90.26387,90.36838,62,60,1
90.36926,90.47666,56,59,1
90.47758,90.57993,52,100,1
90.58079,90.681755,58,58,1
90.6826,90.78222,64,59,1
90.78305,90.881454,64,59,1
90.88228,90.980034,70,74,1
90.98086,91.078186,76,61,1
91.079,91.175804,76,60,1
91.17661,91.273,82,60,1
91.27381,91.369774,88,84,1
91.37058,91.466965,82,67,1
91.46777,91.564575,76,64,1
91.56539,91.66272,76,64,1
91.663536,91.76259,70,73,1
91.76343,91.86508,64,63,1
91.865944,91.97044,64,64,1
92.07964,92.18229,53,102,1
91.97133,92.18314,59,63,1
92.18314,92.28411,56,60,1
92.28496,92.38468,65,60,1
92.38551,92.484795,65,60,1
92.48563,92.58436,68,74,1
92.58518,92.68348,77,61,1
92.6843,92.78206,77,60,1
92.78288,92.88021,80,60,1
92.88103,92.977936,89,83,1
92.978745,93.07575,80,64,1
93.07658,93.1738,77,62,1
93.174614,93.272156,77,62,1
93.27297,93.371376,68,71,1
93.372215,93.47386,65,62,1
93.474724,93.57923,65,62,1
93.58012,93.687515,56,61,1
93.68842,93.79069,53,97,1
93.79154,93.89251,56,58,1
93.89336,93.99297,65,58,1
93.993805,94.09221,65,58,1
94.09303,94.19079,68,71,1
94.19161,94.28894,77,59,1
94.28976,94.38656,77,58,1
94.38737,94.48375,80,58,1
94.484566,94.58053,89,81,1
94.58134,94.67772,80,63,1
94.67853,94.77533,77,62,1
94.776146,94.87347,77,62,1
94.87429,94.97334,68,69,1
94.97418,95.07583,65,60,1
95.07669,95.1812,65,60,1
95.18208,95.289444,56,59,1
95.29031,95.3928,52,101,1
95.393654,95.49462,58,59,1
95.49547,95.59508,64,59,1
95.59592,95.69432,64,59,1
95.695145,95.7929,70,74,1
95.79372,95.89105,76,60,1
95.89187,95.98867,76,59,1
95.98948,96.08586,82,59,1
96.08667,96.18264,88,85,1
96.18345,96.27983,82,64,1
96.28064,96.37744,76,63,1
96.37825,96.47558,76,63,1
96.4764,96.575455,70,71,1
96.576294,96.67794,64,61,1
96.6788,96.78331,64,61,1
96.784195,96.8912,58,60,1
96.89207,96.99454,53,103,1
96.99539,97.09636,59,61,1
97.097206,97.19671,65,61,1
97.19754,97.29605,65,61,1
97.296875,97.394745,71,75,1
97.39556,97.49268,77,62,1
97.4935,97.58988,77,61,1
97.59069,97.68635,83,61,1
97.68715,97.78281,89,86,1
97.783615,97.87989,83,67,1
97.88071,97.97761,77,66,1
97.978424,98.07575,77,66,1
98.07657,98.17563,71,73,1
98.17647,98.278,65,64,1
98.278854,98.3883,65,64,1
98.38925,98.50423,59,62,1
98.5051,98.60973,55,105,1
98.61061,98.71451,59,61,1
98.715385,98.818565,67,62,1
98.81943,98.9219,67,63,1
98.92276,99.02464,71,79,1
99.0255,99.12738,79,62,1
99.128235,99.23012,71,64,1
99.23098,99.33286,67,66,1
99.33372,99.43584,56,106,1
99.43669,99.53904,59,70,1
99.5399,99.64249,68,68,1
99.64335,99.74629,68,68,1
99.74716,99.85117,71,75,1
99.85206,99.95856,80,67,1
99.95946,100.068565,71,67,1
100.06949,100.18139,68,64,1
100.18226,100.28462,55,108,1
100.285484,100.38645,60,64,1
100.38729,100.48691,67,64,1
100.48774,100.58614,67,64,1
100.586975,100.68473,72,81,1
100.68555,100.782875,79,67,1
100.78369,100.88049,79,64,1
100.88131,100.97769,84,64,1
100.9785,101.07447,91,93,1
101.07527,101.17165,84,71,1
101.17247,101.269264,79,70,1
101.27008,101.36741,79,70,1
101.368225,101.467285,72,78,1
101.468124,101.56977,67,69,1
101.57063,101.678314,67,69,1
101.679276,101.818855,60,68,1
101.82061,101.923164,60,107,1
101.92402,102.02499,67,67,1
102.02583,102.12544,72,67,1
102.12628,102.224686,72,67,1
102.22551,102.323265,79,83,1
102.32408,102.42142,84,69,1
102.42223,102.519035,84,67,1
102.519844,102.61623,91,67,1
102.617035,102.713005,96,95,1
102.71381,102.810196,91,73,1
102.811005,102.90781,84,72,1
102.908615,103.00594,84,72,1
103.00677,103.10582,79,80,1
103.10666,103.208305,72,71,1
103.20917,103.313675,72,71,1
103.31456,103.42192,67,69,1
103.42279,103.52682,58,105,1
103.52769,103.63063,60,64,1
103.63149,103.73338,70,64,1
103.73423,103.83508,70,64,1
103.83593,103.93576,72,80,1
103.9366,104.03643,82,64,1
104.03727,104.1371,72,64,1
104.13794,104.23778,70,64,1
104.23862,104.338554,56,103,1
104.3394,104.43957,60,69,1
104.44041,104.54057,68,67,1
104.54142,104.64159,68,67,1
104.642426,104.7426,72,77,1
104.74344,104.845085,80,66,1
104.84595,104.950455,72,66,1
104.95134,105.0587,68,64,1
105.05958,105.16434,53,103,1
105.165215,105.268875,56,64,1
105.269745,105.37198,65,64,1
105.37283,105.47403,65,64,1
105.47488,105.57504,68,81,1
105.57589,105.676056,77,66,1
105.676895,105.77706,68,64,1
105.77791,105.878075,65,64,1
105.878914,105.97909,50,103,1
105.97993,106.08009,56,70,1
106.08093,106.18121,62,69,1
106.18206,106.282455,62,69,1
106.283295,106.38448,68,77,1
106.38534,106.488396,74,67,1
106.48927,106.59427,68,67,1
106.59515,106.702126,62,66,1
106.70299,106.80531,55,110,1
106.806175,106.90714,60,70,1
106.90798,107.0076,67,70,1
107.00843,107.106834,67,70,1
107.10766,107.20542,72,85,1
107.20624,107.303566,79,71,1
107.30438,107.401184,79,70,1
107.402,107.49838,84,70,1
107.49919,107.59516,91,97,1
107.59596,107.692345,84,75,1
107.69316,107.789955,79,73,1
107.79077,107.8881,79,73,1
107.888916,107.987976,72,82,1
107.988815,108.09046,67,72,1
108.091324,108.19571,67,72,1
108.19659,108.33268,60,71,1
108.33357,108.436584,56,108,1
108.43744,108.53841,60,70,1
108.53925,108.63887,68,70,1
108.6397,108.738106,68,70,1
108.73893,108.836685,72,85,1
108.83751,108.93484,80,71,1
108.93565,109.032455,80,70,1
109.033264,109.12965,84,70,1
109.130455,109.226425,92,97,1
109.227234,109.323616,84,75,1
109.324425,109.42123,80,73,1
109.42204,109.51936,80,73,1
109.52019,109.61924,72,82,1
109.62008,109.721725,68,72,1
109.72259,109.827095,68,72,1
109.82798,109.93534,60,71,1
109.93621,110.03935,56,110,1
110.040215,110.142456,59,70,1
110.14331,110.24416,68,70,1
110.245,110.34473,68,70,1
110.345566,110.444954,71,85,1
110.445786,110.544846,80,71,1
110.54568,110.644516,80,70,1
110.64535,110.74386,83,70,1
110.74468,110.842865,92,97,1
110.8437,110.9422,83,75,1
110.94303,111.04198,80,73,1
111.04281,111.14208,80,73,1
111.14292,111.24264,71,82,1
111.24348,111.34513,68,72,1
111.34599,111.45049,68,72,1
111.451385,111.55843,59,71,1
111.55931,111.6619,55,108,1
111.66276,111.7643,59,70,1
111.76515,111.86566,67,70,1
111.8665,111.966,67,70,1
111.966835,112.066,71,85,1
112.06684,112.16567,79,71,1
112.166504,112.26512,79,70,1
112.26595,112.36436,83,70,1
112.36518,112.46347,91,97,1
112.4643,112.56292,83,75,1
112.56375,112.6627,79,73,1
112.66353,112.7628,79,73,1
112.76364,112.86269,71,82,1
112.86353,112.96531,67,72,1
112.9662,113.07852,67,72,1
113.0795,113.24009,59,71,1
113.241325,113.345985,52,108,1
113.34685,113.44781,55,70,1
113.448654,113.54827,64,70,1
113.5491,113.64751,64,70,1
113.64833,113.746086,67,85,1
113.74691,113.84424,76,71,1
113.845055,113.94186,76,70,1
113.94267,114.039055,79,70,1
114.03986,114.13583,88,93,1
114.136635,114.23302,88,75,1
114.233826,114.33063,91,73,1
114.33144,114.42877,100,73,1
114.42959,114.52864,91,82,1
114.52948,114.631134,88,72,1
114.631996,114.736496,88,72,1
114.73739,114.843414,79,71,1
114.84429,114.94831,76,81,1
114.94919,115.05249,76,69,1
115.05335,115.155945,67,69,1
115.1568,115.25869,64,69,1
115.36158,115.462776,55,70,1
115.46362,115.56481,52,70,1
115.56567,115.66697,55,70,1
115.259544,115.66782,64,101,1
115.66782,115.76947,50,106,1
115.770325,115.87232,55,63,1
115.873184,115.975655,62,82,1
115.97652,116.07934,55,66,1
116.0802,116.1835,53,102,1
116.184364,116.28815,55,62,1
116.39466,116.50284,55,62,1
116.28902,116.50376,67,75,1
116.50376,116.60626,52,108,1
116.60712,116.708084,55,70,1
116.70893,116.80854,64,70,1
116.80938,116.90778,64,70,1
116.90861,117.00636,67,85,1
117.00718,117.104515,76,71,1
117.10533,117.20213,76,70,1
117.20294,117.299324,79,70,1
117.30013,117.3961,88,83,1
117.39691,117.49329,88,75,1
117.4941,117.590904,91,73,1
117.59171,117.68904,100,73,1
117.689865,117.78892,91,82,1
117.78976,117.8914,88,72,1
117.892265,117.99677,88,72,1
117.99766,118.10506,79,71,1
118.10597,118.208916,76,81,1
118.20978,118.31272,76,69,1
118.31358,118.416405,67,69,1
118.41727,118.51986,64,69,1
118.62417,118.72652,55,70,1
118.72738,118.82961,52,70,1
118.830475,118.93259,55,70,1
118.52072,118.93345,64,105,1
118.93345,119.03533,50,104,1
119.03619,119.13842,55,63,1
119.24273,119.34555,55,66,1
119.34641,119.45043,48,103,1
119.45131,119.557556,55,62,1
119.13928,119.55846,62,82,1
119.66795,119.77895,55,62,1
119.55846,119.7799,60,75,1
119.7799,119.88247,50,109,1
119.88332,119.98429,55,70,1
119.98514,120.084755,62,70,1
120.184814,120.28257,67,85,1
120.08559,120.283394,62,70,1
120.283394,120.38072,74,71,1
120.38154,120.47834,74,70,1
120.47916,120.57554,79,70,1
120.57635,120.67231,86,87,1
120.67312,120.7695,86,75,1
120.77031,120.86711,91,73,1
120.86793,120.965256,98,73,1
120.96607,121.065125,91,82,1
121.06596,121.16762,86,72,1
121.16848,121.27298,86,72,1
121.27387,121.37919,79,71,1
121.38005,121.482285,74,81,1
121.48314,121.58502,74,69,1
121.585884,121.68753,67,69,1
121.688385,121.78981,62,69,1
121.8927,121.993546,55,70,1
121.99439,122.09502,50,70,1
122.09586,122.19626,55,70,1
121.79066,122.1971,62,101,1
122.1971,122.29738,48,100,1
122.298225,122.39896,53,63,1
122.50173,122.60349,53,66,1
122.604355,122.70813,48,99,1
122.70901,122.815384,53,62,1
122.3998,122.816284,60,82,1
122.926315,123.03829,53,62,1
122.816284,123.039246,57,75,1
123.039246,123.1418,48,100,1
123.142654,123.24362,53,70,1
123.24446,123.34408,60,70,1
123.34491,123.44331,60,70,1
123.444145,123.5419,65,85,1
123.54272,123.640045,72,71,1
123.64086,123.73766,72,70,1
123.73848,123.83486,77,70,1
123.83567,123.93164,84,91,1
123.93244,124.028824,84,73,1
124.02964,124.126434,89,73,1
124.12725,124.22458,96,73,1
124.225395,124.324455,89,82,1
124.325294,124.42694,84,72,1
124.4278,124.53231,84,72,1
124.533195,124.638176,77,71,1
124.63902,124.74021,72,81,1
124.741066,124.84191,72,69,1
124.84276,124.94327,65,69,1
124.94411,125.044395,60,69,1
125.14602,125.24574,53,73,1
125.246574,125.34597,48,73,1
125.3468,125.44619,53,73,1
125.045235,125.44702,60,104,1
125.44702,125.54697,48,103,1
125.547806,125.648315,53,68,1
125.75108,125.85274,53,66,1
125.85359,125.953674,48,100,1
125.95451,126.056046,53,62,1
125.64916,126.05691,60,82,1
126.16255,126.27073,53,62,1
126.05691,126.27165,62,75,1
126.27165,126.374245,48,107,1
126.3751,126.47607,53,73,1
126.47691,126.57652,60,73,1
126.57736,126.675766,60,73,1
126.67659,126.774345,65,85,1
126.77516,126.8725,72,71,1
126.873314,126.970116,72,70,1
126.970924,127.06731,77,70,1
127.068115,127.164085,84,89,1
127.164894,127.26128,84,75,1
127.262085,127.35889,89,73,1
127.359695,127.45702,96,73,1
127.45785,127.5569,89,82,1
127.55774,127.659386,84,72,1
127.66025,127.764755,84,72,1
127.76564,127.87304,77,71,1
127.873955,127.97549,72,81,1
127.97634,128.07753,72,69,1
128.07838,128.17923,65,69,1
128.18008,128.28058,60,69,1
128.38245,128.48227,53,70,1
128.48311,128.58261,48,70,1
128.58345,128.68272,53,70,1
128.28143,128.68356,60,106,1
128.68356,128.78328,48,105,1
128.78412,128.8844,53,63,1
128.98682,129.08812,53,66,1
129.08897,129.19075,48,104,1
129.1916,129.29407,53,62,1
128.88524,129.29494,60,82,1
129.40057,129.50664,53,62,1
129.29494,129.5075,62,75,1
129.5075,129.61044,52,83,1
129.61131,129.7139,55,69,1
129.71477,129.81711,64,69,1
129.81798,129.92009,55,70,1
129.92094,130.02283,52,84,1
130.02368,130.12558,55,72,1
130.12643,130.22832,64,73,1
130.22917,130.33128,55,73,1
130.33214,130.43509,52,88,1
130.43594,130.53961,55,72,1
130.54048,130.64499,64,73,1
130.64587,130.75124,55,73,1
130.75212,130.85927,52,86,1
130.86017,130.96796,55,72,1
130.96887,131.07744,64,73,1
131.07835,131.18602,55,73,1
131.18692,131.29459,52,95,1
131.29549,131.40263,55,79,1
131.40353,131.51016,64,79,1
131.51106,131.61719,55,79,1
131.61807,131.7237,52,94,1
131.72458,131.83008,55,80,1
131.83096,131.93646,64,80,1
131.93735,132.04272,55,80,1
132.04361,132.14986,52,94,1
132.15076,132.25815,55,77,1
132.25905,132.36763,64,77,1
132.36855,132.47792,55,77,1
132.47884,132.58957,52,90,1
132.59052,132.70435,55,74,1
132.7053,132.82274,64,74,1
132.82375,132.94484,55,74,1
132.94586,133.44586,52,111,1
133.94586,136.34587,76,111,1
133.94586,136.34587,72,105,1
133.94586,136.34587,64,94,1
133.94586,136.34587,67,94,1
0.0,0.10550622,36,61,1
0.1063865,0.20969443,43,41,1
0.2105565,0.31141275,48,41,1
0.3122545,0.4109943,48,42,1
0.41181666,0.5091461,55,53,1
0.5099631,0.6067654,60,44,1
0.6075771,0.70396054,60,42,1
0.7047696,0.80063623,67,42,1
0.80144006,0.8968931,72,51,1
0.8976969,0.99356097,67,42,1
0.9943674,1.0907482,60,42,1
1.0915599,1.1883596,60,42,1
1.1891739,1.2882339,55,50,1
1.2890756,1.3911905,48,42,1
1.3920556,1.4971776,48,42,1
1.4980705,1.6045934,43,42,1
1.6054324,1.7069719,36,59,1
1.7078222,1.8082224,41,46,1
1.8090613,1.9082315,48,40,1
1.909062,2.0071418,48,40,1
2.0079641,2.105721,53,57,1
2.1065407,2.20387,60,40,1
2.204687,2.3014894,60,40,1
2.302301,2.3986845,65,41,1
2.3994935,2.4954612,72,56,1
2.4962678,2.5926485,65,46,1
2.5934603,2.69026,60,46,1
2.6910741,2.788401,60,46,1
2.7892206,2.8882754,53,53,1
2.8891144,2.9907632,48,42,1
2.991625,3.0961306,48,42,1
3.097017,3.2044163,41,42,1
3.2053287,3.3048272,36,64,1
3.3056633,3.40483,44,48,1
3.4056633,3.504393,48,48,1
3.505221,3.6036243,48,48,1
3.6044495,3.7025285,56,60,1
3.703351,3.8009999,60,48,1
3.8018196,3.899149,60,48,1
3.899966,3.9969778,68,48,1
3.9977922,4.094383,72,59,1
4.095195,4.191994,68,48,1
4.1928086,4.2899246,60,49,1
4.2907414,4.3881755,60,49,1
4.388995,4.487503,56,56,1
4.4883394,4.5898733,48,44,1
4.5907354,4.6954875,48,44,1
4.6963773,4.8045573,44,44,1
4.8054767,4.905309,36,73,1
4.906148,5.0055375,43,50,1
5.006371,5.105319,48,50,1
5.106149,5.2045527,48,50,1
5.205378,5.3033485,55,63,1
5.3041706,5.4016075,60,51,1
5.4024243,5.4994364,60,50,1
5.500251,5.596739,67,50,1
5.597548,5.6939287,72,62,1
5.694741,5.79154,67,51,1
5.7923546,5.8894706,60,51,1
5.8902874,5.9878283,60,50,1
5.988648,6.0875936,55,58,1
6.0884356,6.1910224,48,49,1
6.191897,6.298401,48,49,1
6.299307,6.4097652,43,49,1
6.410698,6.5101967,36,66,1
6.5110326,6.610091,41,51,1
6.610922,6.709652,48,45,1
6.7104797,6.808774,48,45,1
6.809599,6.9074607,53,61,1
6.908283,7.0057197,60,44,1
7.006537,7.1036553,60,44,1
7.1044693,7.201166,65,44,1
7.2019777,7.2982564,72,60,1
7.299065,7.395759,65,48,1
7.3965735,7.4935827,60,48,1
7.4943995,7.5918336,60,48,1
7.5926533,7.690835,53,53,1
7.6916656,7.7925115,48,42,1
7.7933674,7.8973866,48,42,1
7.89827,8.005799,41,42,1
8.006716,8.106214,36,64,1
8.10705,8.206328,41,48,1
8.207162,8.30622,47,48,1
8.307051,8.405888,48,47,1
8.406718,8.505228,56,58,1
8.506056,8.60435,59,46,1
8.605176,8.703255,60,46,1
8.704077,8.801834,65,46,1
8.802653,8.900299,71,55,1
8.901122,8.999089,65,45,1
8.999915,9.098315,60,45,1
9.099143,9.19787,59,45,1
9.198701,9.298531,53,50,1
9.299376,9.401723,48,39,1
9.402592,9.507589,47,39,1
9.508479,9.610284,41,38,1
9.611117,9.718011,36,60,1
9.718904,9.823787,43,44,1
9.824664,9.927614,48,44,1
9.928473,10.029673,48,44,1
10.030517,10.129908,55,50,1
10.130741,10.229907,60,38,1
10.230741,10.329907,55,38,1
10.330741,10.429908,48,38,1
10.430741,10.529907,55,47,1
10.530741,10.629908,60,37,1
10.630741,10.729907,55,37,1
10.730741,10.829907,48,35,1
10.830741,10.929908,55,41,1
10.930741,11.029907,60,31,1
11.030741,11.129908,55,31,1
11.130741,11.229063,48,31,1
11.229875,11.32774,55,44,1
11.3285675,11.427295,59,34,1
11.428125,11.527401,55,33,1
11.528237,11.627957,48,33,1
11.628796,11.729075,55,39,1
11.729919,11.830652,58,31,1
11.8315,11.932804,55,31,1
11.933657,12.035423,48,30,1
12.03628,12.138629,53,35,1
12.139491,12.242312,57,26,1
12.243178,12.346595,53,26,1
12.3474655,12.4513645,48,26,1
12.452239,12.556503,53,34,1
12.557389,12.668423,56,25,1
12.669381,12.789862,53,25,1
12.790903,12.922794,48,24,1
12.923942,13.030582,36,64,1
13.031472,13.135502,43,44,1
13.136371,13.237803,48,44,1
13.238647,13.337717,48,44,1
13.338542,13.437272,55,56,1
13.4381,13.536393,60,45,1
13.537219,13.634975,60,44,1
13.635795,13.733125,67,45,1
13.733941,13.830951,72,53,1
13.831768,13.929202,67,45,1
13.930021,14.027989,60,45,1
14.028814,14.127214,60,45,1
14.128042,14.226661,55,51,1
14.227499,14.329734,48,44,1
14.330605,14.436856,48,44,1
14.437762,14.544286,43,44,1
14.545124,14.646436,36,60,1
14.647292,14.74826,41,46,1
14.749104,14.848719,48,40,1
14.849552,14.947956,48,40,1
14.948781,15.046538,53,57,1
15.047358,15.144687,60,41,1
15.145504,15.242307,60,41,1
15.243118,15.339501,65,41,1
15.340311,15.436278,72,56,1
15.437085,15.533465,65,46,1
15.534277,15.631077,60,46,1
15.631891,15.7292185,60,46,1
15.730038,15.829093,53,52,1
15.829931,15.931581,48,41,1
15.932443,16.036947,48,41,1
16.037834,16.145233,41,41,1
16.146147,16.245644,36,63,1
16.24648,16.345648,44,47,1
16.346481,16.44521,48,47,1
16.446037,16.544441,48,48,1
16.545267,16.643345,56,59,1
16.644169,16.741817,60,47,1
16.742636,16.839966,60,47,1
16.840782,16.937796,68,47,1
16.93861,17.0352,72,57,1
17.036013,17.13281,68,47,1
17.133625,17.230742,60,47,1
17.231558,17.328993,60,47,1
17.329813,17.42832,56,53,1
17.429157,17.530691,48,41,1
17.531553,17.636305,48,41,1
17.637194,17.745375,44,41,1
17.746294,17.846127,36,69,1
17.846966,17.946354,43,47,1
17.947187,18.046137,48,47,1
18.046967,18.14537,48,47,1
18.146194,18.244165,55,60,1
18.244987,18.342424,60,48,1
18.34324,18.440254,60,47,1
18.441069,18.537556,67,47,1
18.538364,18.634747,72,58,1
18.635557,18.732357,67,48,1
18.733171,18.830288,60,48,1
18.831104,18.928646,60,48,1
18.929464,19.02841,55,55,1
19.029253,19.13184,48,47,1
19.132713,19.239218,48,47,1
19.240124,19.350582,43,47,1
19.351515,19.451014,41,71,1
19.451849,19.550909,49,53,1
19.551739,19.650469,53,47,1
19.651297,19.749592,53,47,1
19.750416,19.848278,61,67,1
19.8491,19.946537,65,47,1
19.947353,20.044472,65,48,1
20.045286,20.141983,73,48,1
20.142796,20.239073,77,66,1
20.239882,20.336576,73,53,1
20.33739,20.4344,65,53,1
20.435217,20.53265,65,53,1
20.53347,20.631653,61,60,1
20.632483,20.733328,53,48,1
20.734184,20.838203,53,48,1
20.839087,20.943295,49,48,1
20.944126,21.042963,43,76,1
21.043793,21.142523,50,57,1
21.14335,21.241861,53,57,1
21.24269,21.341091,55,57,1
21.341917,21.440102,62,71,1
21.440928,21.539005,65,55,1
21.53983,21.63769,67,55,1
21.638514,21.736162,71,55,1
21.73698,21.834736,77,69,1
21.835558,21.933743,71,54,1
21.934568,22.033184,67,54,1
22.034016,22.132204,65,54,1
22.133028,22.234917,62,64,1
22.235788,22.343195,55,51,1
22.344114,22.457674,50,51,1
22.458647,22.579103,43,51,1
22.580137,22.691391,36,80,1
22.692263,22.794155,43,59,1
22.795006,22.894625,48,59,1
22.895456,22.993107,48,59,1
22.993927,23.091362,55,72,1
23.09218,23.189192,60,58,1
23.190006,23.286703,60,58,1
23.287514,23.383898,67,58,1
23.384706,23.480776,72,70,1
23.481585,23.578072,72,58,1
23.578882,23.675892,79,58,1
23.676708,23.774355,84,58,1
23.775179,23.874897,79,66,1
23.875742,23.97809,72,52,1
23.978958,24.083958,72,52,1
24.084846,24.186651,67,52,1
24.187485,24.288332,60,70,1
24.289179,24.389687,60,51,1
24.390532,24.49059,55,51,1
24.491428,24.59115,48,51,1
24.591988,24.691265,48,63,1
24.692099,24.791265,43,50,1
24.792099,24.891266,36,50,1
24.892097,24.991264,43,50,1
24.992098,25.091707,47,78,1
25.092546,25.192156,43,50,1
25.192993,25.29227,36,50,1
25.293104,25.391838,43,50,1
25.392664,25.492382,50,79,1
25.493227,25.595575,43,45,1
25.596443,25.70144,36,45,1
25.702332,25.804134,43,45,1
25.804968,25.903807,36,77,1
25.904636,26.003147,43,56,1
26.003975,26.102053,48,56,1
26.102875,26.200632,48,56,1
26.201452,26.29889,55,69,1
26.299706,26.396717,60,55,1
26.397532,26.494228,60,55,1
26.49504,26.591423,67,55,1
26.592232,26.688303,72,66,1
26.689112,26.785597,72,55,1
26.78641,26.883417,79,55,1
26.884235,26.98188,84,55,1
26.982704,27.082424,79,61,1
27.08327,27.185616,72,48,1
27.186485,27.291483,72,48,1
27.292372,27.394176,67,48,1
27.39501,27.497835,60,68,1
27.498697,27.60105,60,50,1
27.601908,27.703678,55,50,1
27.70453,27.805838,48,50,1
27.806688,27.907309,48,61,1
27.908154,28.008661,43,49,1
28.009504,28.110012,36,49,1
28.110857,28.211363,43,49,1
28.212208,28.312714,47,64,1
28.313559,28.414066,43,49,1
28.41491,28.515417,36,49,1
28.516262,28.616993,43,49,1
28.617842,28.720663,45,62,1
28.721535,28.827152,43,42,1
28.828049,28.936491,36,42,1
28.93741,29.048971,43,42,1
29.049917,29.148754,36,73,1
29.149586,29.248095,43,53,1
29.248922,29.347002,47,53,1
29.347824,29.445581,47,53,1
29.446402,29.543839,55,67,1
29.544655,29.641666,59,52,1
29.64248,29.739178,60,52,1
29.739988,29.836372,67,52,1
29.837181,29.93325,71,63,1
29.934061,30.030546,72,52,1
30.031357,30.128366,79,52,1
30.129185,30.22683,83,52,1
30.227654,30.327374,79,59,1
30.328217,30.430565,72,47,1
30.431433,30.536432,71,47,1
30.537321,30.63944,67,46,1
30.640297,30.74195,60,66,1
30.742802,30.84388,59,48,1
30.844728,30.945349,55,48,1
30.946194,31.046251,48,48,1
31.04709,31.147034,47,52,1
31.147875,31.248268,43,40,1
31.249113,31.349846,36,40,1
31.350693,31.451996,43,40,1
31.45285,31.554499,45,56,1
31.555355,31.65747,41,40,1
31.65833,31.760918,36,40,1
31.76178,31.864838,41,40,1
31.865705,31.969362,45,53,1
31.970236,32.074986,41,37,1
32.07587,32.18174,36,37,1
32.182632,32.288273,41,37,1
32.289154,32.388653,36,58,1
32.38949,32.488655,44,41,1
32.48949,32.58822,48,41,1
32.589046,32.68745,48,41,1
32.688274,32.786354,56,52,1
32.787178,32.884827,60,40,1
32.885647,32.982975,60,40,1
32.98379,33.080803,68,40,1
33.08162,33.178207,72,51,1
33.17902,33.27582,68,40,1
33.276634,33.37375,60,40,1
33.374565,33.472,60,40,1
33.47282,33.571327,56,48,1
33.572166,33.6737,48,37,1
33.67456,33.779312,48,37,1
33.7802,33.888382,44,37,1
33.8893,33.9888,36,58,1
33.989635,34.088802,43,41,1
34.089638,34.188366,48,41,1
34.189194,34.287598,48,41,1
34.28842,34.3865,55,52,1
34.387325,34.484974,60,40,1
34.485794,34.583122,60,40,1
34.58394,34.68095,67,40,1
34.681767,34.778355,72,51,1
34.779167,34.87597,67,40,1
34.87678,34.973896,60,40,1
34.974716,35.072147,60,40,1
35.072968,35.17317,55,48,1
35.174034,35.285816,48,37,1
35.286793,35.41387,48,37,1
35.414986,35.56249,43,37,1
35.563797,35.66603,32,53,1
35.66689,35.768658,39,38,1
35.769512,35.87082,44,38,1
35.87167,35.97263,44,38,1
35.97348,36.073875,51,48,1
36.074715,36.174774,56,37,1
36.175613,36.275223,56,37,1
36.27606,36.37512,63,37,1
36.37595,36.474785,68,47,1
36.475616,36.574783,68,37,1
36.575615,36.675114,75,37,1
36.675953,36.775784,80,37,1
36.776623,36.87679,75,44,1
36.877632,36.979168,68,34,1
36.98003,37.08478,68,34,1
37.08567,37.19385,63,34,1
37.19477,37.297356,56,50,1
37.298218,37.400337,56,38,1
37.40119,37.502846,51,38,1
37.5037,37.60478,44,38,1
37.605625,37.705456,44,48,1
37.706295,37.80613,39,37,1
37.80697,37.9068,32,37,1
37.90764,38.00747,39,37,1
38.00831,38.10848,43,47,1
38.109318,38.209938,39,37,1
38.210785,38.31186,32,37,1
38.31271,38.41448,39,37,1
38.415333,38.517216,46,44,1
38.518074,38.62019,39,34,1
38.62105,38.725803,32,34,1
38.726692,38.834873,39,34,1
38.835793,38.93529,32,53,1
38.936127,39.035294,39,38,1
39.036125,39.134857,44,38,1
39.135685,39.23409,44,38,1
39.234913,39.332993,51,48,1
39.333813,39.43146,56,37,1
39.43228,39.52961,56,37,1
39.53043,39.62744,63,37,1
39.628254,39.724846,68,47,1
39.72566,39.822456,68,37,1
39.823273,39.920387,75,37,1
39.921204,40.01864,80,37,1
40.01946,40.117966,75,44,1
40.1188,40.220337,68,34,1
40.2212,40.32595,68,34,1
40.32684,40.433147,63,34,1
40.434017,40.53756,56,50,1
40.538425,40.641487,56,38,1
40.642353,40.744823,51,38,1
40.74568,40.847683,44,38,1
40.84854,40.949963,44,48,1
40.950813,41.05098,39,37,1
41.051823,41.151993,32,37,1
41.152832,41.253452,39,37,1
41.2543,41.355373,43,47,1
41.356224,41.457874,39,37,1
41.458733,41.56073,32,37,1
41.56159,41.664055,39,37,1
41.664917,41.767975,41,44,1
41.768845,41.87038,39,34,1
41.871243,41.975994,32,34,1
41.976883,42.085064,39,34,1
42.085983,42.185482,32,53,1
42.186317,42.285484,39,38,1
42.286316,42.385048,43,38,1
42.385876,42.484276,44,38,1
42.485104,42.583183,51,48,1
42.584003,42.681652,55,37,1
42.682472,42.7798,56,37,1
42.78062,42.877632,63,37,1
42.878445,42.975037,67,47,1
42.97585,43.072647,68,37,1
43.073463,43.170578,75,37,1
43.171394,43.26883,79,37,1
43.26965,43.368156,75,44,1
43.36899,43.470528,68,34,1
43.47139,43.57614,67,34,1
43.57703,43.68521,63,34,1
43.68613,43.788013,56,50,1
43.788868,43.890755,55,38,1
43.89161,43.993492,51,38,1
43.99435,44.096233,44,38,1
44.097088,44.19897,43,45,1
44.19983,44.301945,39,35,1
44.302803,44.40515,32,35,1
44.406013,44.508484,39,35,1
44.509346,44.611813,41,44,1
44.612675,44.715855,37,35,1
44.71672,44.8205,32,35,1
44.821373,44.92588,37,35,1
44.926758,45.03188,41,41,1
45.03277,45.138638,37,31,1
45.13953,45.24771,32,31,1
45.24863,45.36005,37,31,1
45.360996,45.460495,32,50,1
45.461334,45.560497,40,36,1
45.561333,45.66006,44,36,1
45.66089,45.759293,44,35,1
45.76012,45.858196,52,45,1
45.85902,45.95667,56,34,1
45.95749,46.054817,56,34,1
46.055634,46.152645,64,33,1
46.15346,46.250053,68,42,1
46.250862,46.347664,64,33,1
46.348476,46.445595,56,33,1
46.44641,46.543846,56,33,1
46.544662,46.643173,52,39,1
46.64401,46.74554,44,30,1
46.746403,46.85116,44,30,1
46.852047,46.960228,40,29,1
46.961147,47.060642,32,44,1
47.06148,47.16065,39,33,1
47.16148,47.260212,44,31,1
47.26104,47.359547,44,31,1
47.360374,47.458885,51,38,1
47.459713,47.558224,56,29,1
47.55905,47.657562,51,29,1
47.65839,47.757114,44,29,1
47.757946,47.857113,32,42,1
47.85795,47.957447,38,29,1
47.958282,48.058113,44,28,1
48.058952,48.159122,44,28,1
48.15996,48.262318,50,33,1
48.26319,48.370724,56,25,1
48.371643,48.485054,50,25,1
48.486023,48.599037,44,25,1
48.599888,48.701077,31,42,1
48.701927,48.802776,38,30,1
48.803623,48.90413,43,30,1
48.904972,49.005142,43,30,1
49.00598,49.105816,50,36,1
49.106655,49.206154,55,29,1
49.20699,49.306156,55,29,1
49.306988,49.405827,62,29,1
49.40666,49.504955,67,41,1
49.505775,49.60385,62,29,1
49.60468,49.703297,55,30,1
49.704124,49.80318,55,30,1
49.804016,49.903183,50,36,1
49.90402,50.00555,43,28,1
50.006413,50.111164,43,28,1
50.112057,50.220234,38,28,1
50.221153,50.320652,31,46,1
50.321487,50.42088,39,31,1
50.42171,50.520878,43,31,1
50.521713,50.62055,43,31,1
50.62138,50.72,51,39,1
50.72083,50.819233,55,33,1
50.820057,50.91824,55,33,1
50.919067,51.01693,63,33,1
51.01775,51.11529,67,45,1
51.11611,51.213867,63,33,1
51.214687,51.312656,55,33,1
51.31348,51.411667,55,33,1
51.41249,51.511,51,39,1
51.51183,51.611786,43,31,1
51.612648,51.7174,43,31,1
51.71829,51.82647,39,31,1
51.82739,51.926888,31,50,1
51.927723,52.02689,38,36,1
52.02772,52.126453,44,36,1
52.12728,52.22568,44,36,1
52.22651,52.32459,50,42,1
52.32541,52.423058,56,34,1
52.423878,52.521206,56,34,1
52.522026,52.619038,62,34,1
52.61985,52.716442,68,46,1
52.717255,52.814053,62,34,1
52.81487,52.911983,56,34,1
52.9128,53.010235,56,34,1
53.011055,53.109562,50,39,1
53.110397,53.211933,44,31,1
53.212795,53.317547,44,31,1
53.318436,53.426617,38,31,1
53.427536,53.527035,31,49,1
53.52787,53.627037,38,34,1
53.62787,53.7266,43,34,1
53.72743,53.825832,43,34,1
53.826656,53.924736,50,42,1
53.925556,54.023205,55,34,1
54.024025,54.121357,55,34,1
54.122173,54.219185,62,33,1
54.219997,54.31659,67,45,1
54.3174,54.4142,62,33,1
54.415016,54.51213,55,33,1
54.512947,54.610382,55,33,1
54.611202,54.70971,50,39,1
54.710545,54.81208,43,30,1
54.812943,54.917694,43,30,1
54.918583,55.026764,38,30,1
55.027683,55.127182,31,48,1
55.128017,55.227184,38,34,1
55.228016,55.326748,43,34,1
55.327576,55.42598,43,34,1
55.426804,55.524883,50,41,1
55.525703,55.623356,55,33,1
55.624172,55.721504,55,33,1
55.72232,55.819332,62,33,1
55.82015,55.916737,67,46,1
55.91755,56.014347,62,33,1
56.015163,56.112278,55,33,1
56.113094,56.21053,55,33,1
56.21135,56.309856,50,39,1
56.310696,56.412228,43,31,1
56.41309,56.51784,43,31,1
56.51873,56.62691,38,31,1
56.62783,56.72689,32,51,1
56.727722,56.826126,41,36,1
56.82695,56.92492,44,36,1
56.925743,57.02318,44,36,1
57.023994,57.121006,53,46,1
57.121822,57.21831,56,36,1
57.21912,57.315193,56,36,1
57.315998,57.411453,65,36,1
57.412254,57.508015,68,49,1
57.508823,57.604996,65,36,1
57.605804,57.7025,56,36,1
57.703312,57.80043,56,36,1
57.801247,57.899754,53,45,1
57.90059,58.002125,44,34,1
58.002987,58.10774,44,34,1
58.108627,58.21325,41,34,1
58.214077,58.31248,33,56,1
58.313305,58.411274,42,39,1
58.412098,58.50964,45,39,1
58.510456,58.607574,45,39,1
58.60839,58.705086,54,48,1
58.7059,58.802177,57,38,1
58.802986,58.898853,57,38,1
58.89966,58.995113,66,39,1
58.995914,59.09106,69,52,1
59.09186,59.187828,66,39,1
59.188637,59.28554,57,39,1
59.286358,59.384113,57,39,1
59.384933,59.483444,54,47,1
59.48428,59.58581,45,37,1
59.586674,59.691425,45,37,1
59.692318,59.800495,42,37,1
59.801414,59.900913,34,59,1
59.901752,60.000916,43,41,1
60.00175,60.10048,46,41,1
60.101307,60.19971,46,41,1
60.20054,60.298615,55,51,1
60.29944,60.397087,58,42,1
60.397907,60.495235,58,42,1
60.49605,60.593063,67,42,1
60.59388,60.69047,70,56,1
60.69128,60.788082,67,42,1
60.788895,60.886013,58,42,1
60.88683,60.984264,58,42,1
60.98508,61.08359,55,50,1
61.084427,61.185963,46,38,1
61.186825,61.291576,46,38,1
61.292465,61.400646,43,38,1
61.401566,61.501064,35,62,1
61.5019,61.601067,41,45,1
61.6019,61.70063,47,45,1
61.701458,61.79986,47,45,1
61.800686,61.898766,53,55,1
61.899586,61.997234,59,44,1
61.998055,62.095383,59,44,1
62.096203,62.193214,65,45,1
62.194027,62.29062,71,59,1
62.29143,62.38823,65,45,1
62.389046,62.48616,59,45,1
62.486977,62.58441,59,45,1
62.58523,62.68374,53,52,1
62.684574,62.78611,47,40,1
62.786972,62.891724,47,40,1
62.892612,63.000793,41,40,1
63.001713,63.10121,36,67,1
63.102047,63.201214,41,46,1
63.202045,63.300777,48,46,1
63.301605,63.40001,48,46,1
63.400833,63.498913,53,57,1
63.499733,63.59738,60,48,1
63.5982,63.695534,60,48,1
63.69635,63.79336,65,48,1
63.794174,63.890766,72,62,1
63.89158,63.988377,65,48,1
63.989193,64.08631,60,48,1
64.08713,64.184555,60,48,1
64.18538,64.283775,53,56,1
64.284615,64.387085,48,42,1
64.38796,64.50173,48,42,1
64.502815,64.64396,41,42,1
64.6452,64.744705,39,71,1
64.74554,64.8447,44,51,1
64.84554,64.94427,51,51,1
64.9451,65.0435,51,51,1
65.04433,65.1424,56,61,1
65.14323,65.240875,63,49,1
65.2417,65.33903,63,49,1
65.33984,65.43685,68,50,1
65.43767,65.534256,75,67,1
65.53507,65.631874,68,50,1
65.63268,65.7298,63,50,1
65.73062,65.82805,63,50,1
65.82887,65.927376,56,59,1
65.928215,66.02975,51,47,1
66.03061,66.13536,51,47,1
66.13625,66.24098,44,47,1
66.24181,66.34043,38,71,1
66.341255,66.43934,44,51,1
66.44016,66.53781,50,51,1
66.53863,66.63575,50,51,1
66.63656,66.73326,56,63,1
66.73407,66.830246,62,52,1
66.831055,66.92682,62,52,1
66.92762,67.02287,68,52,1
67.023674,67.11902,74,71,1
67.11983,67.215996,68,52,1
67.21681,67.31371,62,52,1
67.31453,67.41207,62,52,1
67.41289,67.51161,56,63,1
67.51245,67.613525,50,49,1
67.61438,67.72502,50,49,1
67.72608,67.86203,44,49,1
67.86322,67.96272,43,77,1
67.963554,68.06272,50,53,1
68.06355,68.162285,53,53,1
68.16312,68.26152,55,53,1
68.262344,68.36042,62,64,1
68.361244,68.45889,65,50,1
68.45971,68.557045,67,51,1
68.55786,68.65487,74,51,1
68.655685,68.75227,77,73,1
68.75309,68.849884,74,53,1
68.8507,68.947815,67,53,1
68.94863,69.04607,65,53,1
69.04689,69.14539,62,63,1
69.14623,69.247765,55,50,1
69.24863,69.35338,53,50,1
69.35427,69.46245,50,50,1
69.46337,69.562645,43,77,1
69.563484,69.66221,50,53,1
69.66304,69.76133,53,53,1
69.76216,69.85992,55,53,1
69.86073,69.95806,62,64,1
69.95888,70.05569,65,50,1
70.056496,70.15288,67,51,1
70.15369,70.24956,74,51,1
70.25036,70.34581,77,73,1
70.34661,70.44269,74,53,1
70.4435,70.540184,67,53,1
70.541,70.638435,65,53,1
70.63925,70.73776,62,63,1
70.7386,70.84013,55,50,1
70.840996,70.94575,53,50,1
70.94664,71.052475,50,50,1
71.05334,71.15546,31,74,1
71.15631,71.257965,38,44,1
71.25882,71.36012,43,44,1
71.36098,71.46182,43,44,1
71.46267,71.563065,50,58,1
71.5639,71.66396,55,40,1
71.6648,71.76441,50,40,1
71.76525,71.86442,43,41,1
71.86525,71.964195,32,63,1
71.96503,72.064415,36,44,1
72.065254,72.16497,44,44,1
72.16581,72.26609,44,44,1
72.26694,72.36847,48,58,1
72.36933,72.472626,56,41,1
72.473495,72.57862,48,41,1
72.579506,72.68586,44,41,1
72.68673,72.78885,33,71,1
72.7897,72.89124,37,43,1
72.8921,72.99295,45,44,1
72.99379,73.09396,45,45,1
73.0948,73.19463,49,61,1
73.19547,73.2953,57,46,1
73.29614,73.39598,49,47,1
73.39682,73.49665,45,48,1
73.49749,73.59811,34,70,1
73.59895,73.70095,37,50,1
73.70181,73.80523,46,51,1
73.80611,73.909805,37,50,1
73.91066,74.015785,35,69,1
74.016685,74.127846,38,50,1
74.1288,74.246864,47,50,1
74.24788,74.38249,38,51,1
74.38362,74.48913,36,82,1
74.490005,74.593315,43,56,1
74.59418,74.69504,48,56,1
74.69588,74.79462,48,56,1
74.79544,74.89277,55,70,1
74.893585,74.99039,60,57,1
74.9912,75.087585,60,56,1
75.088394,75.18426,67,56,1
75.18507,75.28052,72,67,1
75.28132,75.37718,67,56,1
75.37799,75.47437,60,56,1
75.47518,75.57198,60,56,1
75.5728,75.67142,55,63,1
75.67226,75.77449,48,55,1
75.77536,75.88161,48,55,1
75.882515,75.98904,43,55,1
75.989876,76.091415,36,75,1
76.09227,76.192665,41,57,1
76.193504,76.29268,48,51,1
76.29351,76.39159,48,51,1
76.39241,76.490166,53,70,1
76.49099,76.58832,60,51,1
76.589134,76.685936,60,51,1
76.686745,76.78313,65,51,1
76.783936,76.879906,72,69,1
76.880714,76.9771,65,56,1
76.977905,77.07471,60,56,1
77.07552,77.172844,60,56,1
77.17367,77.27272,53,63,1
77.27356,77.375206,48,51,1
77.37607,77.480576,48,51,1
77.48146,77.58886,41,51,1
77.589775,77.68927,36,78,1
77.69011,77.789276,44,57,1
77.79011,77.88884,48,57,1
77.88966,77.98807,48,57,1
77.98889,78.086975,56,70,1
78.0878,78.18545,60,56,1
78.186264,78.28359,60,56,1
78.28441,78.381424,68,56,1
78.38224,78.47883,72,67,1
78.47964,78.57644,68,56,1
78.577255,78.67437,60,56,1
78.675186,78.77262,60,56,1
78.77344,78.87195,56,63,1
78.87279,78.97432,48,50,1
78.97518,79.07993,48,50,1
79.080826,79.189,44,50,1
79.189926,79.28976,36,82,1
79.290596,79.389984,43,56,1
79.390816,79.48976,48,56,1
79.49059,79.589,48,56,1
79.58982,79.6878,55,70,1
79.688614,79.78606,60,57,1
79.78687,79.88388,60,56,1
79.8847,79.981186,67,56,1
79.981995,80.07838,72,67,1
80.079185,80.17599,67,56,1
80.1768,80.27392,60,56,1
80.274734,80.37228,60,56,1
80.37309,80.47204,55,63,1
80.47288,80.57547,48,55,1
80.57634,80.682846,48,55,1
80.683754,80.79421,43,55,1
80.79514,80.894646,36,75,1
80.89548,80.99454,41,57,1
80.99537,81.0941,48,51,1
81.094925,81.19322,48,51,1
81.194046,81.29191,53,70,1
81.29273,81.39017,60,51,1
81.39098,81.4881,60,51,1
81.488914,81.58561,65,51,1
81.586426,81.6827,72,69,1
81.68351,81.780205,65,56,1
81.78102,81.87803,60,56,1
81.878845,81.97628,60,56,1
81.9771,82.07528,53,63,1
82.07611,82.176956,48,51,1
82.17781,82.28183,48,51,1
82.282715,82.39024,41,51,1
82.39116,82.490326,36,78,1
82.49116,82.59011,41,57,1
82.59094,82.68967,47,57,1
82.6905,82.78901,48,57,1
82.78983,82.88802,56,70,1
82.88885,82.98682,59,56,1
82.98764,83.085396,60,56,1
83.08621,83.183655,65,56,1
83.18447,83.28169,71,67,1
83.28251,83.379944,65,56,1
83.38076,83.4783,60,56,1
83.47912,83.57698,59,56,1
83.577805,83.67753,53,63,1
83.67837,83.780716,48,50,1
83.781586,83.889084,47,50,1
83.89002,84.01433,41,50,1
84.01543,84.114044,36,78,1
84.114876,84.212845,43,57,1
84.21367,84.311,48,57,1
84.31181,84.40841,48,57,1
84.40922,84.50676,55,66,1
84.507576,84.60512,60,51,1
84.60594,84.70348,55,51,1
84.7043,84.80184,48,50,1
84.80266,84.9002,55,61,1
84.901024,84.998566,60,49,1
84.99938,85.096924,55,49,1
85.09774,85.19528,48,48,1
85.196106,85.29365,55,55,1
85.294464,85.392006,60,41,1
85.39282,85.490364,55,41,1
85.49119,85.58842,48,41,1
85.589226,85.68603,55,58,1
85.686844,85.784164,59,47,1
85.78499,85.882744,55,46,1
85.88356,85.981964,48,46,1
85.982796,86.08174,55,53,1
86.08257,86.18196,58,44,1
86.18279,86.28285,55,44,1
86.28369,86.38431,48,41,1
86.385155,86.48623,53,49,1
86.48708,86.58885,57,37,1
86.58971,86.692055,53,37,1
86.69292,86.79574,48,37,1
86.7966,86.900505,53,48,1
86.90139,87.01242,56,36,1
87.01338,87.13386,53,36,1
87.1349,87.26679,48,35,1
87.26794,87.37458,36,62,1
87.37547,87.4795,43,42,1
87.48037,87.5818,48,42,1
87.58265,87.68172,48,42,1
87.68254,87.77945,55,53,1
87.780266,87.87707,60,45,1
87.87788,87.97426,60,44,1
87.97507,88.07094,67,44,1
88.07174,88.16719,72,52,1
88.168,88.26386,67,44,1
88.26466,88.361046,60,45,1
88.36186,88.45866,60,45,1
88.45947,88.55809,55,51,1
88.55893,88.66116,48,44,1
88.66203,88.76829,48,44,1
88.769196,88.87572,43,45,1
88.87656,88.97787,36,61,1
88.97872,89.07969,41,47,1
89.080536,89.18015,48,42,1
89.180984,89.27939,48,42,1
89.28021,89.37797,53,58,1
89.37879,89.47612,60,42,1
89.47694,89.57374,60,44,1
89.57455,89.67093,65,44,1
89.67174,89.76771,72,59,1
89.76852,89.8649,65,48,1
89.86571,89.96251,60,48,1
89.963326,90.060646,60,48,1
90.06147,90.16052,53,55,1
90.16136,90.26301,48,45,1
90.26387,90.36838,48,45,1
90.36926,90.47666,41,45,1
90.47758,90.57993,36,67,1
90.58079,90.681755,43,50,1
90.6826,90.78222,48,46,1
90.78305,90.881454,48,46,1
90.88228,90.980034,55,62,1
90.98086,91.078186,60,46,1
91.079,91.175804,60,46,1
91.17661,91.273,67,47,1
91.27381,91.369774,72,62,1
91.37058,91.466965,67,49,1
91.46777,91.564575,60,49,1
91.56539,91.66272,60,49,1
91.663536,91.76259,55,59,1
91.76343,91.86508,48,48,1
91.865944,91.97044,48,48,1
92.07964,92.18229,37,68,1
91.97133,92.18314,43,48,1
92.18314,92.28411,44,51,1
92.28496,92.38468,49,46,1
92.38551,92.484795,49,46,1
92.48563,92.58436,56,62,1
92.58518,92.68348,61,46,1
92.6843,92.78206,61,46,1
92.78288,92.88021,68,46,1
92.88103,92.977936,73,62,1
92.978745,93.07575,68,48,1
93.07658,93.1738,61,48,1
93.174614,93.272156,61,48,1
93.27297,93.371376,56,58,1
93.372215,93.47386,49,46,1
93.474724,93.57923,49,46,1
93.58012,93.687515,44,46,1
93.68842,93.79069,37,66,1
93.79154,93.89251,44,49,1
93.89336,93.99297,49,44,1
93.993805,94.09221,49,44,1
94.09303,94.19079,56,61,1
94.19161,94.28894,61,44,1
94.28976,94.38656,61,44,1
94.38737,94.48375,68,44,1
94.484566,94.58053,73,60,1
94.58134,94.67772,68,44,1
94.67853,94.77533,61,44,1
94.776146,94.87347,61,44,1
94.87429,94.97334,56,56,1
94.97418,95.07583,49,44,1
95.07669,95.1812,49,44,1
95.18208,95.289444,44,44,1
95.29031,95.3928,37,67,1
95.393654,95.49462,43,50,1
95.49547,95.59508,49,46,1
95.59592,95.69432,49,46,1
95.695145,95.7929,55,62,1
95.79372,95.89105,61,46,1
95.89187,95.98867,61,46,1
95.98948,96.08586,67,46,1
96.08667,96.18264,73,61,1
96.18345,96.27983,67,48,1
96.28064,96.37744,61,48,1
96.37825,96.47558,61,47,1
96.4764,96.575455,55,58,1
96.576294,96.67794,49,46,1
96.6788,96.78331,49,46,1
96.784195,96.8912,43,46,1
96.89207,96.99454,37,69,1
96.99539,97.09636,44,51,1
97.097206,97.19671,49,47,1
97.19754,97.29605,49,47,1
97.296875,97.394745,56,66,1
97.39556,97.49268,61,47,1
97.4935,97.58988,61,47,1
97.59069,97.68635,68,47,1
97.68715,97.78281,73,64,1
97.783615,97.87989,68,47,1
97.88071,97.97761,61,47,1
97.978424,98.07575,61,47,1
98.07657,98.17563,56,60,1
98.17647,98.278,49,47,1
98.278854,98.3883,49,47,1
98.5051,98.60973,38,72,1
98.38925,98.61061,44,47,1
98.61061,98.71451,43,51,1
98.715385,98.818565,50,49,1
98.81943,98.9219,50,49,1
98.92276,99.02464,55,67,1
99.0255,99.12738,62,49,1
99.128235,99.23012,55,49,1
99.23098,99.33286,50,49,1
99.33372,99.43584,38,67,1
99.43669,99.53904,41,50,1
99.5399,99.64249,50,50,1
99.64335,99.74629,50,50,1
99.74716,99.85117,53,61,1
99.85206,99.95856,62,49,1
99.95946,100.068565,53,49,1
100.06949,100.18139,50,49,1
100.18226,100.28462,39,73,1
100.285484,100.38645,48,55,1
100.38729,100.48691,51,50,1
100.48774,100.58614,51,50,1
100.586975,100.68473,60,69,1
100.68555,100.782875,63,50,1
100.78369,100.88049,63,50,1
100.88131,100.97769,72,50,1
100.9785,101.07447,75,69,1
101.07527,101.17165,72,50,1
101.17247,101.269264,63,50,1
101.27008,101.36741,63,50,1
101.368225,101.467285,60,63,1
101.468124,101.56977,51,50,1
101.57063,101.678314,51,50,1
101.679276,101.81973,48,50,1
101.82061,101.923164,40,77,1
101.92402,102.02499,48,58,1
102.02583,102.12544,52,52,1
102.12628,102.224686,52,52,1
102.22551,102.323265,60,72,1
102.32408,102.42142,64,52,1
102.42223,102.519035,64,52,1
102.519844,102.61623,72,52,1
102.617035,102.713005,76,71,1
102.71381,102.810196,72,52,1
102.811005,102.90781,64,52,1
102.908615,103.00594,64,52,1
103.00677,103.10582,60,64,1
103.10666,103.208305,52,52,1
103.20917,103.313675,52,52,1
103.31456,103.42192,48,52,1
103.42279,103.52682,41,72,1
103.52769,103.63063,48,51,1
103.63149,103.73338,53,49,1
103.73423,103.83508,53,49,1
103.83593,103.93576,60,67,1
103.9366,104.03643,65,49,1
104.03727,104.1371,60,49,1
104.13794,104.23778,53,49,1
104.23862,104.338554,41,66,1
104.3394,104.43957,48,50,1
104.44041,104.54057,53,50,1
104.54142,104.64159,53,50,1
104.642426,104.7426,60,62,1
104.74344,104.845085,65,49,1
104.84595,104.950455,60,49,1
104.95134,105.05783,53,49,1
105.05958,105.16434,41,73,1
105.165215,105.268875,48,52,1
105.269745,105.37198,53,49,1
105.37283,105.47403,53,49,1
105.47488,105.57504,60,69,1
105.57589,105.676056,65,49,1
105.676895,105.77706,60,49,1
105.77791,105.878075,53,49,1
105.878914,105.97909,41,67,1
105.97993,106.08009,48,50,1
106.08093,106.18121,53,50,1
106.18206,106.282455,53,50,1
106.283295,106.38448,60,62,1
106.38534,106.488396,65,49,1
106.48927,106.59427,60,49,1
106.59515,106.702126,53,49,1
106.70299,106.80531,43,74,1
106.806175,106.90714,51,56,1
106.90798,107.0076,55,56,1
107.00843,107.106834,55,53,1
107.10766,107.20542,63,66,1
107.20624,107.303566,67,53,1
107.30438,107.401184,67,53,1
107.402,107.49838,75,53,1
107.49919,107.59516,79,72,1
107.59596,107.692345,75,53,1
107.69316,107.789955,67,53,1
107.79077,107.8881,67,53,1
107.888916,107.987976,63,67,1
107.988815,108.09046,55,53,1
108.091324,108.19571,55,53,1
108.19659,108.33268,51,53,1
108.33357,108.436584,43,74,1
108.43744,108.53841,51,56,1
108.53925,108.63887,55,56,1
108.6397,108.738106,55,53,1
108.73893,108.836685,63,66,1
108.83751,108.93484,67,53,1
108.93565,109.032455,67,53,1
109.033264,109.12965,75,53,1
109.130455,109.226425,79,72,1
109.227234,109.323616,75,53,1
109.324425,109.42123,67,53,1
109.42204,109.51936,67,53,1
109.52019,109.61924,63,67,1
109.62008,109.721725,55,53,1
109.72259,109.827095,55,53,1
109.82798,109.93534,51,53,1
109.93621,110.03935,43,74,1
110.040215,110.142456,50,56,1
110.14331,110.24416,53,56,1
110.245,110.34473,55,53,1
110.345566,110.444954,62,66,1
110.445786,110.544846,65,53,1
110.54568,110.644516,67,53,1
110.64535,110.74386,74,53,1
110.74468,110.842865,77,72,1
110.8437,110.9422,74,53,1
110.94303,111.04198,67,53,1
111.04281,111.14208,65,53,1
111.14292,111.24264,62,67,1
111.24348,111.34513,55,53,1
111.34599,111.45049,53,53,1
111.451385,111.55843,50,53,1
111.55931,111.6619,43,74,1
111.66276,111.7643,50,56,1
111.76515,111.86566,53,56,1
111.8665,111.966,55,53,1
111.966835,112.066,62,66,1
112.06684,112.16567,65,53,1
112.166504,112.26512,67,53,1
112.26595,112.36436,74,53,1
112.36518,112.46347,77,72,1
112.4643,112.56292,74,53,1
112.56375,112.6627,67,53,1
112.66353,112.7628,65,53,1
112.76364,112.86269,62,67,1
112.86353,112.96531,55,53,1
112.9662,113.07852,50,53,1
113.0795,113.24009,43,53,1
113.241325,113.345985,36,74,1
113.34685,113.44781,43,56,1
113.448654,113.54827,48,56,1
113.5491,113.64751,48,53,1
113.64833,113.746086,55,66,1
113.74691,113.84424,60,53,1
113.845055,113.94186,60,53,1
113.94267,114.039055,67,53,1
114.03986,114.13583,72,72,1
114.136635,114.23302,72,53,1
114.233826,114.33063,79,53,1
114.33144,114.42877,84,53,1
114.42959,114.52864,79,67,1
114.52948,114.631134,72,53,1
114.631996,114.736496,72,53,1
114.73739,114.843414,67,53,1
114.84429,114.94831,60,69,1
114.94919,115.05249,60,52,1
115.05335,115.155945,55,52,1
115.1568,115.25869,48,52,1
115.259544,115.36073,48,61,1
115.36158,115.462776,43,50,1
115.46362,115.56481,36,50,1
115.56567,115.66697,43,50,1
115.66782,115.76947,47,59,1
115.770325,115.87232,43,50,1
115.873184,115.975655,36,50,1
115.97652,116.07934,43,50,1
116.0802,116.1835,50,56,1
116.184364,116.28815,43,49,1
116.28902,116.39377,36,49,1
116.39466,116.50284,43,49,1
116.50376,116.60626,36,74,1
116.60712,116.708084,43,56,1
116.70893,116.80854,48,56,1
116.80938,116.90778,48,53,1
116.90861,117.00636,55,66,1
117.00718,117.104515,60,53,1
117.10533,117.20213,60,53,1
117.20294,117.299324,67,53,1
117.30013,117.3961,72,72,1
117.39691,117.49329,72,53,1
117.4941,117.590904,79,53,1
117.59171,117.68904,84,53,1
117.689865,117.78892,79,67,1
117.78976,117.8914,72,53,1
117.892265,117.99677,72,53,1
117.99766,118.10506,67,53,1
118.10597,118.208916,60,69,1
118.20978,118.31272,60,52,1
118.31358,118.416405,55,52,1
118.41727,118.51986,48,52,1
118.52072,118.62331,48,61,1
118.62417,118.72652,43,50,1
118.72738,118.82961,36,50,1
118.830475,118.93259,43,50,1
118.93345,119.03533,47,59,1
119.03619,119.13842,43,50,1
119.13928,119.24187,36,50,1
119.24273,119.34555,43,50,1
119.34641,119.45043,45,56,1
119.45131,119.557556,43,49,1
119.55846,119.66703,36,49,1
119.66795,119.77895,43,49,1
119.7799,119.88247,36,74,1
119.88332,119.98429,43,56,1
119.98514,120.084755,47,56,1
120.08559,120.18399,48,53,1
120.184814,120.28257,55,66,1
120.283394,120.38072,59,53,1
120.38154,120.47834,60,53,1
120.47916,120.57554,67,53,1
120.57635,120.67231,71,72,1
120.67312,120.7695,72,53,1
120.77031,120.86711,79,53,1
120.86793,120.965256,83,53,1
120.96607,121.065125,79,67,1
121.06596,121.16762,72,53,1
121.16848,121.27298,71,53,1
121.27387,121.37919,67,53,1
121.38005,121.482285,60,69,1
121.48314,121.58502,59,52,1
121.585884,121.68753,55,52,1
121.688385,121.78981,48,52,1
121.79066,121.89185,47,61,1
121.8927,121.993546,43,50,1
121.99439,122.09502,36,50,1
122.09586,122.19626,43,50,1
122.1971,122.29738,45,59,1
122.298225,122.39896,41,50,1
122.3998,122.50088,36,50,1
122.50173,122.60349,41,50,1
122.604355,122.70813,45,56,1
122.70901,122.815384,41,49,1
122.816284,122.92539,36,49,1
122.926315,123.03829,41,49,1
123.039246,123.1418,36,69,1
123.142654,123.24362,44,55,1
123.24446,123.34408,48,55,1
123.34491,123.44331,48,55,1
123.444145,123.5419,56,63,1
123.54272,123.640045,60,53,1
123.64086,123.73766,60,53,1
123.73848,123.83486,68,53,1
123.83567,123.93164,72,67,1
123.93244,124.028824,72,53,1
124.02964,124.126434,80,53,1
124.12725,124.22458,84,53,1
124.225395,124.324455,80,67,1
124.325294,124.42694,72,53,1
124.4278,124.53231,72,53,1
124.533195,124.638176,68,53,1
124.63902,124.74021,60,69,1
124.741066,124.84191,60,52,1
124.84276,124.94327,56,52,1
124.94411,125.044395,48,52,1
125.045235,125.14518,48,61,1
125.14602,125.24574,44,50,1
125.246574,125.34597,36,50,1
125.3468,125.44619,44,50,1
125.44702,125.54697,36,59,1
125.547806,125.648315,44,50,1
125.64916,125.75024,48,50,1
125.75108,125.85274,44,50,1
125.85359,125.953674,36,56,1
125.95451,126.056046,44,49,1
126.05691,126.16166,48,49,1
126.16255,126.27073,44,49,1
126.27165,126.374245,36,74,1
126.3751,126.47607,44,56,1
126.47691,126.57652,48,56,1
126.57736,126.675766,48,53,1
126.67659,126.774345,56,66,1
126.77516,126.8725,60,53,1
126.873314,126.970116,60,53,1
126.970924,127.06731,68,53,1
127.068115,127.164085,72,72,1
127.164894,127.26128,72,53,1
127.262085,127.35889,80,53,1
127.359695,127.45702,84,53,1
127.45785,127.5569,80,67,1
127.55774,127.659386,72,53,1
127.66025,127.764755,72,53,1
127.76564,127.87304,68,53,1
127.873955,127.97549,60,69,1
127.97634,128.07753,60,52,1
128.07838,128.17923,56,52,1
128.18008,128.28058,48,52,1
128.28143,128.38159,48,72,1
128.38245,128.48227,44,50,1
128.48311,128.58261,36,50,1
128.58345,128.68272,44,50,1
128.68356,128.78328,36,69,1
128.78412,128.8844,44,50,1
128.88524,128.98598,48,50,1
128.98682,129.08812,44,50,1
129.08897,129.19075,36,71,1
129.1916,129.29407,44,49,1
129.29494,129.39969,48,49,1
129.40057,129.50664,44,49,1
129.5075,129.61044,36,101,1
129.61131,129.7139,43,57,1
129.71477,129.81711,48,57,1
129.81798,129.92009,43,57,1
129.92094,130.02283,31,96,1
130.02368,130.12558,43,55,1
130.12643,130.22832,48,55,1
130.22917,130.33128,43,55,1
130.33214,130.43509,36,104,1
130.43594,130.53961,43,54,1
130.54048,130.64499,48,57,1
130.64587,130.75124,43,60,1
130.75212,130.85927,31,97,1
130.86017,130.96796,43,59,1
130.96887,131.07744,48,59,1
131.07835,131.18602,43,59,1
131.18692,131.29459,36,107,1
131.29549,131.40263,43,65,1
131.40353,131.51016,48,65,1
131.51106,131.61719,43,64,1
131.61807,131.7237,31,104,1
131.72458,131.83008,43,58,1
131.83096,131.93646,48,58,1
131.93735,132.04272,43,58,1
132.04361,132.14986,36,113,1
132.15076,132.25815,43,57,1
132.25905,132.36763,48,57,1
132.36855,132.47792,43,57,1
132.47884,132.58957,31,108,1
132.59052,132.70435,43,57,1
132.7053,132.82274,48,57,1
132.82375,132.94484,43,57,1
132.94586,133.44586,36,111,1
132.94586,133.44586,24,97,1
133.94586,136.34587,60,82,1
133.94586,136.34587,55,77,1
133.94586,136.34587,48,70,1
