start_time,end_time,note_value,velocity,instrument_program_number
0.0,1.044386,58,40,0
0.0,1.044386,53,34,0
1.044386,1.85666,58,40,0
1.85666,2.127418,58,36,0
1.044386,2.127418,54,34,0
2.127418,3.202494,53,34,0
3.202494,4.285526,54,28,0
2.127418,4.285526,58,40,0
4.285526,5.329912,58,40,0
4.285526,5.329912,53,34,0
5.329912,6.1482425,58,40,0
6.1482425,6.421019,58,36,0
5.329912,6.421019,54,34,0
6.421019,7.496095,53,34,0
7.496095,8.571171,54,28,0
6.421019,8.571171,58,40,0
8.571171,9.615557,58,40,0
8.571171,9.615557,53,34,0
9.615557,10.421864,58,40,0
10.421864,10.663756,58,36,0
9.615557,10.690633,54,34,0
10.690633,11.757869,58,40,0
10.690633,11.757869,53,34,0
11.757869,12.541159,61,49,0
12.541159,12.776145,60,45,0
11.757869,12.802255,54,39,0
12.802255,13.585545,60,48,0
13.585545,13.820531,58,42,0
12.802255,13.846641,53,39,0
13.846641,14.641273,58,44,0
14.641273,14.8796625,58,36,0
13.846641,14.90615,54,37,0
14.90615,15.981226,53,34,0
15.981226,17.056301,54,28,0
14.90615,17.056301,58,40,0
17.056301,18.100689,61,50,0
17.056301,18.100689,53,42,0
17.056301,18.100689,58,42,0
18.100689,18.906996,61,50,0
18.906996,19.148888,61,45,0
18.100689,19.175764,54,42,0
18.100689,19.175764,58,42,0
19.175764,20.21275,61,50,0
19.175764,20.21275,53,42,0
19.175764,20.21275,58,42,0
20.21275,21.016106,61,52,0
20.21275,21.016106,65,59,0
21.016106,21.153341,60,47,0
21.016106,21.153341,63,53,0
21.153341,21.28389,65,48,0
20.21275,21.28389,54,48,0
21.28389,22.06718,60,51,0
21.28389,22.06718,63,57,0
22.06718,22.302166,58,45,0
22.06718,22.302166,61,50,0
21.28389,22.328276,53,48,0
22.328276,23.122908,58,48,0
22.328276,23.122908,61,55,0
23.122908,23.361298,58,39,0
23.122908,23.361298,61,45,0
22.328276,23.387785,54,46,0
23.387785,24.470818,53,42,0
24.470818,25.55385,54,35,0
23.387785,25.55385,58,45,0
23.387785,25.55385,61,50,0
25.55385,26.0226,70,73,0
26.0226,26.351067,68,66,0
25.55385,26.351067,58,58,0
25.55385,26.351067,61,58,0
26.351067,26.476067,68,58,0
26.476067,27.238777,66,61,0
27.238777,27.467592,65,53,0
26.476067,27.493015,58,55,0
26.476067,27.493015,61,55,0
27.493015,28.576048,61,50,0
27.493015,28.576048,65,59,0
27.493015,28.576048,58,50,0
28.576048,29.659079,61,51,0
28.576048,29.659079,58,42,0
29.659079,30.13527,70,73,0
30.13527,30.471386,68,65,0
29.659079,30.471386,58,58,0
29.659079,30.471386,61,58,0
30.471386,30.599592,68,58,0
30.599592,31.344088,66,61,0
31.344088,31.567228,65,54,0
30.599592,31.592022,58,55,0
30.599592,31.592022,61,55,0
31.592022,32.675053,61,50,0
31.592022,32.675053,65,59,0
31.592022,32.675053,58,50,0
32.675053,33.758087,61,51,0
32.675053,33.758087,58,42,0
33.758087,34.80247,58,46,0
33.758087,34.80247,53,39,0
34.80247,35.60878,58,46,0
35.60878,35.85067,58,41,0
34.80247,35.87755,54,39,0
35.87755,36.944786,53,39,0
35.87755,36.944786,58,46,0
36.944786,37.728073,61,54,0
37.728073,37.858624,60,49,0
37.858624,37.98917,61,45,0
36.944786,37.98917,54,44,0
37.98917,38.77246,60,52,0
38.77246,39.007446,58,46,0
37.98917,39.033558,53,44,0
39.033558,39.82819,58,50,0
39.82819,40.066578,58,41,0
39.033558,40.093067,54,42,0
40.093067,41.16814,53,39,0
41.16814,42.243217,54,32,0
40.093067,42.243217,58,46,0
42.243217,42.719406,70,68,0
42.243217,42.719406,82,83,0
42.719406,43.057014,80,73,0
42.719406,43.057014,68,56,0
43.057014,43.101192,68,64,0
42.243217,43.148113,73,68,0
43.101192,43.148113,73,57,0
43.148113,43.19473,80,59,0
43.19473,43.957443,78,73,0
43.957443,44.194283,77,61,0
43.957443,44.194283,65,52,0
43.19473,44.2206,66,61,0
43.19473,44.2206,73,74,0
44.2206,45.282547,73,69,0
44.2206,45.282547,77,69,0
44.2206,45.282547,65,58,0
45.282547,46.344494,70,68,0
45.282547,46.344494,61,57,0
45.282547,46.344494,73,68,0
46.344494,46.824493,70,68,0
46.344494,46.824493,82,83,0
46.824493,47.16376,80,73,0
46.824493,47.16376,68,56,0
47.16376,47.20222,68,66,0
46.344494,47.251637,73,68,0
47.20222,47.251637,73,58,0
47.251637,47.299538,80,58,0
47.299538,48.068768,78,73,0
48.068768,48.30561,77,61,0
48.068768,48.30561,65,52,0
47.299538,48.33193,66,63,0
47.299538,48.33193,73,76,0
48.33193,49.393875,73,69,0
48.33193,49.393875,77,69,0
48.33193,49.393875,65,58,0
49.393875,50.455822,70,68,0
49.393875,50.455822,61,57,0
49.393875,50.455822,73,68,0
50.455822,51.500206,70,61,0
50.455822,51.500206,65,52,0
50.455822,51.500206,58,52,0
51.500206,52.306515,70,63,0
51.500206,52.306515,58,53,0
52.306515,52.548405,70,57,0
52.306515,52.548405,58,48,0
51.500206,52.575283,66,53,0
52.575283,53.64252,70,65,0
52.575283,53.64252,65,54,0
52.575283,53.64252,58,54,0
53.64252,54.425808,73,82,0
53.64252,54.425808,61,68,0
54.425808,54.686905,72,71,0
54.425808,54.686905,60,59,0
53.64252,54.686905,66,66,0
54.686905,55.470196,72,79,0
54.686905,55.470196,60,68,0
55.470196,55.70518,70,71,0
55.470196,55.70518,58,59,0
54.686905,55.731293,65,68,0
55.731293,56.525925,70,77,0
55.731293,56.525925,58,64,0
56.525925,56.764313,70,72,0
56.525925,56.764313,58,60,0
55.731293,56.790802,66,64,0
56.790802,57.865875,70,76,0
56.790802,57.865875,65,64,0
56.790802,57.865875,58,63,0
57.865875,58.940952,66,75,0
57.865875,58.940952,68,75,0
57.865875,58.940952,60,75,0
57.865875,58.940952,72,95,0
58.940952,60.01603,73,100,0
58.940952,60.01603,65,78,0
58.940952,60.01603,61,78,0
60.01603,60.822334,77,89,0
60.01603,60.822334,73,74,0
60.01603,60.822334,65,74,0
60.822334,61.091103,78,89,0
60.822334,61.091103,66,74,0
61.091103,61.89741,73,78,0
61.091103,61.89741,80,93,0
61.091103,61.89741,68,78,0
61.89741,62.16618,82,93,0
61.89741,62.16618,70,78,0
62.16618,62.991867,84,99,0
62.16618,62.991867,80,84,0
62.16618,62.991867,72,84,0
62.991867,63.267097,85,102,0
62.991867,63.267097,73,88,0
63.267097,65.40996,77,88,0
63.267097,65.40996,89,103,0
65.40996,67.0171,87,95,0
63.267097,67.0171,84,88,0
63.267097,67.0171,80,88,0
65.40996,67.0171,75,79,0
67.28496,67.57907,66,75,0
67.28496,67.57907,78,89,0
67.28496,67.57907,72,75,0
67.28496,67.57907,75,75,0
67.57907,68.650505,77,102,0
67.57907,68.650505,75,80,0
67.57907,68.650505,65,80,0
67.57907,68.650505,72,80,0
68.650505,69.45407,77,89,0
68.650505,69.45407,70,74,0
68.650505,69.45407,65,74,0
68.650505,69.45407,73,74,0
69.45407,69.72193,79,89,0
69.45407,69.72193,67,74,0
69.72193,70.525505,81,93,0
69.72193,70.525505,77,78,0
69.72193,70.525505,69,78,0
69.72193,70.525505,73,78,0
70.525505,70.79336,82,93,0
70.525505,70.79336,70,78,0
70.79336,71.63719,84,99,0
70.79336,71.63719,77,84,0
70.79336,71.63719,72,84,0
71.63719,71.80203,85,102,0
71.63719,71.80203,73,88,0
71.991905,74.19374,85,103,0
71.80203,74.19374,70,88,0
71.86532,74.19374,76,88,0
71.92861,74.19374,79,88,0
74.19374,75.294655,84,90,0
74.19374,75.294655,77,76,0
74.19374,75.294655,72,76,0
76.34998,77.41679,68,80,0
76.34998,77.41679,60,68,0
76.34998,77.41679,56,68,0
76.34998,77.41679,54,68,0
76.34998,77.41679,65,68,0
77.41679,78.45049,68,80,0
77.41679,78.45049,60,68,0
77.41679,78.45049,63,68,0
77.41679,78.45049,56,68,0
77.41679,78.45049,54,68,0
78.45049,79.55141,68,80,0
78.45049,79.55141,61,68,0
78.45049,79.55141,53,68,0
80.619255,81.686066,65,80,0
80.619255,81.686066,57,68,0
80.619255,81.686066,51,68,0
80.619255,81.686066,61,68,0
81.686066,82.71977,51,68,0
81.686066,82.71977,65,80,0
81.686066,82.71977,57,68,0
81.686066,82.71977,60,68,0
82.71977,84.97496,58,80,0
82.71977,84.97496,49,68,0
84.97496,86.01935,58,46,0
84.97496,86.01935,53,39,0
84.97496,86.01935,46,39,0
86.01935,86.82565,58,46,0
86.82565,87.09442,58,41,0
86.01935,87.09442,54,39,0
87.09442,88.16166,58,46,0
87.09442,88.16166,53,39,0
88.16166,88.94495,61,54,0
88.94495,89.07549,60,49,0
89.07549,89.20605,61,45,0
88.16166,89.20605,54,44,0
89.20605,89.989334,60,52,0
89.989334,90.25043,58,46,0
89.20605,90.25043,53,44,0
90.25043,91.04506,58,50,0
91.04506,91.30994,58,41,0
90.25043,91.30994,54,42,0
91.30994,92.38502,58,46,0
91.30994,92.38502,53,39,0
92.38502,93.19132,52,76,0
92.38502,93.19132,61,97,0
92.38502,93.19132,55,76,0
93.19132,93.46009,63,97,0
93.19132,93.46009,60,76,0
93.19132,93.46009,54,76,0
93.46009,94.535164,65,101,0
93.46009,94.535164,61,79,0
93.46009,94.535164,53,79,0
94.535164,95.34148,73,77,0
94.535164,95.34148,65,77,0
94.535164,95.34148,77,93,0
95.34148,95.610245,78,93,0
95.34148,95.610245,66,77,0
95.610245,96.41655,80,97,0
95.610245,96.41655,73,82,0
95.610245,96.41655,68,82,0
96.41655,96.68532,82,97,0
96.41655,96.68532,70,82,0
96.68532,97.51101,84,105,0
96.68532,97.51101,80,88,0
96.68532,97.51101,72,88,0
97.51101,97.78624,85,108,0
97.51101,97.78624,73,92,0
97.78624,99.92909,89,109,0
97.78624,99.92909,77,92,0
99.92909,101.53624,87,99,0
97.78624,101.53624,84,92,0
97.78624,101.53624,80,92,0
99.92909,101.53624,75,82,0
101.80409,102.09821,78,89,0
101.80409,102.09821,66,75,0
101.80409,102.09821,72,75,0
101.80409,102.09821,75,75,0
102.09821,103.16964,75,80,0
102.09821,103.16964,77,102,0
102.09821,103.16964,65,80,0
102.09821,103.16964,72,80,0
103.16964,103.97321,77,89,0
103.16964,103.97321,70,74,0
103.16964,103.97321,65,74,0
103.16964,103.97321,73,74,0
103.97321,104.24107,79,89,0
103.97321,104.24107,67,74,0
104.24107,105.04464,81,93,0
104.24107,105.04464,77,78,0
104.24107,105.04464,69,78,0
104.24107,105.04464,73,78,0
105.04464,105.3125,82,93,0
105.04464,105.3125,70,78,0
105.3125,106.156334,84,99,0
105.3125,106.156334,77,84,0
105.3125,106.156334,72,84,0
106.156334,106.32117,85,102,0
106.156334,106.32117,73,88,0
106.51104,108.712875,85,103,0
106.32117,108.712875,70,88,0
106.38446,108.712875,76,88,0
106.447754,108.712875,79,88,0
108.712875,109.8138,84,90,0
108.712875,109.8138,77,76,0
108.712875,109.8138,72,76,0
110.86912,111.93593,54,68,0
110.86912,111.93593,60,68,0
110.86912,111.93593,56,68,0
110.86912,111.93593,68,80,0
110.86912,111.93593,65,68,0
111.93593,112.96963,68,80,0
111.93593,112.96963,60,68,0
111.93593,112.96963,54,68,0
111.93593,112.96963,56,68,0
111.93593,112.96963,63,68,0
112.96963,114.07055,68,80,0
112.96963,114.07055,61,68,0
112.96963,114.07055,53,68,0
115.1384,116.20521,57,68,0
115.1384,116.20521,65,80,0
115.1384,116.20521,51,68,0
115.1384,116.20521,61,68,0
116.20521,117.23891,65,80,0
116.20521,117.23891,51,68,0
116.20521,117.23891,57,68,0
116.20521,117.23891,60,68,0
117.23891,119.4941,58,80,0
117.23891,119.4941,49,68,0
119.4941,120.53848,58,46,0
119.4941,120.53848,53,39,0
119.4941,120.53848,46,39,0
120.53848,121.344795,58,46,0
121.344795,121.61356,58,41,0
120.53848,121.61356,54,39,0
121.61356,122.68079,58,46,0
121.61356,122.68079,53,39,0
122.68079,123.46409,61,54,0
123.46409,123.594635,60,49,0
123.594635,123.72518,61,45,0
122.68079,123.72518,54,44,0
123.72518,124.50847,60,52,0
124.50847,124.76957,58,46,0
123.72518,124.76957,53,44,0
124.76957,125.5642,58,50,0
125.5642,125.82908,58,41,0
124.76957,125.82908,54,42,0
125.82908,126.90415,58,46,0
125.82908,126.90415,53,39,0
127.97923,129.95885,77,54,0
129.95885,130.45529,78,50,0
130.45529,130.93103,77,46,0
130.93103,131.40677,75,50,0
131.40677,131.8989,73,46,0
131.8989,132.89424,72,50,0
132.89424,133.8785,82,54,0
133.8785,135.83763,80,52,0
135.83763,137.80702,78,51,0
137.80702,138.29915,80,50,0
138.29915,138.77489,78,46,0
138.77489,139.25063,77,50,0
139.25063,139.74707,75,46,0
139.74707,140.73996,73,50,0
140.73996,141.74649,85,53,0
141.74649,143.71066,80,49,0
143.71066,145.66681,77,52,0
145.66681,146.14658,78,51,0
146.14658,146.62634,77,46,0
146.62634,147.10612,75,50,0
147.10612,147.37541,74,46,0
147.37541,147.47592,75,46,0
147.47592,147.57643,77,42,0
147.57643,148.04568,75,53,0
148.04568,148.51363,74,51,0
148.51363,148.98157,75,54,0
148.98157,149.4573,77,55,0
149.4573,149.93304,78,57,0
149.93304,150.40878,70,52,0
150.40878,150.90523,77,57,0
150.90523,151.19649,75,50,0
151.19649,151.29916,72,39,0
151.29916,151.3984,73,39,0
151.40182,151.49571,73,39,0
151.49571,151.58961,75,36,0
151.58961,151.68323,73,40,0
151.68323,151.77632,75,37,0
151.77632,151.86894,73,42,0
151.86894,151.96123,75,38,0
151.96123,152.05289,73,44,0
152.05289,152.14438,75,39,0
152.14438,152.23509,73,46,0
152.23509,152.32564,75,42,0
152.32564,152.41559,73,48,0
152.41559,152.50522,75,42,0
152.50522,152.59483,73,47,0
152.59683,152.68732,75,40,0
152.68529,152.77661,73,44,0
152.77661,152.87086,75,38,0
152.8688,152.99437,73,42,0
152.99437,153.12698,75,37,0
153.12698,153.26834,72,40,0
153.26834,153.40439,73,35,0
153.40439,153.89651,82,54,0
153.89651,154.38864,80,50,0
154.38864,154.89388,78,52,0
154.89388,155.3991,68,50,0
155.3991,157.40688,75,54,0
157.40688,158.41731,73,50,0
159.46114,161.44365,77,54,0
161.44365,161.9401,78,50,0
161.9401,162.41583,77,46,0
162.41583,162.89157,75,50,0
162.89157,163.3837,73,46,0
163.3837,164.37904,72,50,0
164.37904,165.3633,82,54,0
165.3633,167.32243,80,52,0
167.32243,169.29182,78,51,0
169.29182,169.78395,80,50,0
169.78395,170.25969,78,46,0
170.25969,170.73543,77,50,0
170.73543,171.23187,75,46,0
171.23187,172.22476,73,50,0
172.22476,173.2313,85,53,0
173.2313,175.19547,80,49,0
175.19547,177.15161,77,52,0
177.15161,177.63138,78,51,0
177.63138,178.11115,77,46,0
178.11115,178.59093,75,50,0
178.59093,178.86021,74,46,0
178.86021,178.96072,75,46,0
178.96072,179.06123,77,42,0
179.06123,179.53049,75,53,0
179.53049,179.99843,74,51,0
179.99843,180.46637,75,54,0
180.46637,180.94211,77,55,0
180.94211,181.41785,78,57,0
181.41785,181.89359,70,52,0
181.89359,182.39003,77,57,0
182.39003,182.68129,75,50,0
182.68129,182.78397,72,39,0
182.78397,182.88663,73,39,0
182.88663,182.98051,73,39,0
182.98051,183.07442,75,36,0
183.07442,183.16803,73,40,0
183.16803,183.26111,75,37,0
183.26111,183.35374,73,42,0
183.35374,183.44601,75,38,0
183.44601,183.53769,73,44,0
183.53769,183.62918,75,39,0
183.62918,183.7199,73,46,0
183.7199,183.81044,75,42,0
183.81044,183.90039,73,48,0
183.90039,183.99002,75,42,0
183.99002,184.07964,73,47,0
184.08163,184.1721,75,40,0
184.17009,184.26141,73,44,0
184.26141,184.35567,75,38,0
184.3536,184.47917,73,42,0
184.47917,184.61179,75,37,0
184.61179,184.75314,72,40,0
184.75314,184.88919,73,35,0
184.88919,185.38132,82,54,0
185.38132,185.87344,80,50,0
185.87344,186.37866,78,52,0
186.37866,186.8839,68,50,0
186.8839,188.89168,75,54,0
188.89168,189.90211,73,50,0
190.94594,192.92845,72,56,0
192.92845,193.4249,73,52,0
193.4249,193.90063,72,48,0
193.90063,194.37637,70,52,0
194.37637,194.8685,68,48,0
194.8685,195.86385,67,52,0
195.86385,196.8481,77,56,0
196.8481,198.80724,75,54,0
198.80724,200.77663,73,55,0
200.77663,201.26875,75,55,0
201.26875,201.73163,73,50,0
201.73163,202.20737,72,55,0
202.20737,202.70381,70,51,0
202.70381,203.67613,69,55,0
203.67613,204.68266,78,59,0
204.68266,206.64684,77,55,0
206.64684,208.5866,77,59,0
208.5866,209.06638,78,58,0
209.06638,209.54614,77,52,0
209.54614,210.02591,75,57,0
210.02591,210.50778,73,52,0
210.51804,211.47427,73,59,0
211.47427,212.4338,72,57,0
212.91357,213.33337,72,56,0
213.33337,213.39334,75,55,0
213.39334,214.11919,73,59,0
214.11919,214.355,72,58,0
214.36525,215.32147,72,59,0
215.32147,216.27739,70,56,0
216.76535,217.19232,72,56,0
217.19232,217.25331,75,59,0
217.25331,217.98526,73,59,0
217.98526,218.22925,72,56,0
218.22925,219.20517,72,50,0
219.20517,220.1874,77,55,0
220.1874,221.2095,78,54,0
221.2095,222.33688,68,46,0
222.33688,224.32983,77,54,0
224.32983,224.82628,78,50,0
224.82628,225.30202,77,46,0
225.30202,225.77776,75,50,0
225.77776,226.26988,73,46,0
226.26988,227.26523,72,50,0
227.26523,228.24948,82,54,0
228.24948,230.20862,80,52,0
230.20862,232.17802,78,51,0
232.17802,232.67015,80,50,0
232.67015,233.14587,78,46,0
233.14587,233.62161,77,50,0
233.62161,234.11806,75,46,0
234.11806,235.11095,73,50,0
235.11095,236.11748,85,53,0
236.11748,238.08165,80,49,0
238.08165,240.0378,77,52,0
240.0378,240.51756,78,51,0
240.51756,240.99734,77,46,0
240.99734,241.47711,75,50,0
241.47711,241.74641,74,46,0
241.74641,241.84692,75,46,0
241.84692,241.94743,77,42,0
241.94743,242.41667,75,53,0
242.41667,242.88461,74,51,0
242.88461,243.35255,75,54,0
243.35255,243.8283,77,55,0
243.8283,244.30403,78,57,0
244.30403,244.77977,70,52,0
244.77977,245.27621,77,57,0
245.27621,245.56747,75,50,0
245.56747,245.67015,72,39,0
245.67015,245.77281,73,39,0
245.77281,245.86671,73,39,0
245.86671,245.9606,75,36,0
245.9606,246.05421,73,40,0
246.05421,246.14731,75,37,0
246.14731,246.23993,73,42,0
246.23993,246.33221,75,38,0
246.33221,246.42387,73,44,0
246.42387,246.51537,75,39,0
246.51537,246.60608,73,46,0
246.60608,246.69662,75,42,0
246.69662,246.78658,73,48,0
246.78658,246.8762,75,42,0
246.8762,246.96582,73,47,0
246.96782,247.0583,75,40,0
247.05629,247.1476,73,44,0
247.1476,247.24185,75,38,0
247.23979,247.36536,73,42,0
247.36536,247.49797,75,37,0
247.49797,247.63933,72,40,0
247.63933,247.77539,73,35,0
247.77539,248.26752,82,54,0
248.26752,248.75963,80,50,0
248.75963,249.26486,78,52,0
249.26486,249.77008,68,50,0
249.77008,251.77786,75,54,0
251.77786,252.7883,73,45,0
253.83212,255.81464,72,56,0
255.81464,256.31107,73,52,0
256.31107,256.7868,72,48,0
256.7868,257.26254,70,52,0
257.26254,257.75467,68,48,0
257.75467,258.75003,67,52,0
258.75003,259.73428,77,56,0
259.73428,261.69342,75,54,0
261.69342,263.6628,73,55,0
263.6628,264.15494,75,55,0
264.15494,264.61783,73,50,0
264.61783,265.09357,72,55,0
265.09357,265.59,70,51,0
265.59,266.56232,69,55,0
266.56232,267.56885,78,59,0
267.56885,269.53302,77,55,0
269.53302,271.47278,77,59,0
271.47278,271.95255,78,58,0
271.95255,272.43234,77,52,0
272.43234,272.9121,75,57,0
272.9121,273.39398,73,52,0
273.40424,274.36044,73,59,0
274.36044,275.32,72,57,0
275.79977,276.21957,72,56,0
276.21957,276.27954,75,55,0
276.27954,277.00537,73,59,0
277.00537,277.2371,72,58,0
277.25143,278.20767,72,59,0
278.20767,279.16357,70,56,0
279.65155,280.07852,72,56,0
280.07852,280.1395,75,59,0
280.1395,280.87146,73,59,0
280.87146,281.1012,72,56,0
281.11542,282.09137,72,50,0
282.09137,283.07358,77,55,0
283.07358,284.0957,78,54,0
284.0957,285.22308,68,45,0
285.22308,287.21603,77,54,0
287.21603,287.71246,78,50,0
287.71246,288.1882,77,46,0
288.1882,288.66394,75,50,0
288.66394,289.15607,73,46,0
289.15607,290.15143,72,50,0
290.15143,291.13568,82,54,0
291.13568,293.09482,80,52,0
293.09482,295.0642,78,51,0
295.0642,295.55634,80,50,0
295.55634,296.03207,78,46,0
296.03207,296.5078,77,50,0
296.5078,297.00424,75,46,0
297.00424,297.99713,73,50,0
297.99713,299.00366,85,53,0
299.00366,300.96783,80,49,0
300.96783,302.92398,77,52,0
302.92398,303.40375,78,51,0
303.40375,303.8835,77,46,0
303.8835,304.36328,75,50,0
304.36328,304.6326,74,46,0
304.6326,304.7331,75,46,0
304.7331,304.83362,77,42,0
304.83362,305.30286,75,53,0
305.30286,305.7708,74,51,0
305.7708,306.23874,75,54,0
306.23874,306.71448,77,55,0
306.71448,307.19022,78,57,0
307.19022,307.66595,70,52,0
307.66595,308.1624,77,57,0
308.1624,308.45367,75,50,0
308.45367,308.55634,72,39,0
308.55634,308.659,73,39,0
308.659,308.7529,73,39,0
308.7529,308.8468,75,36,0
308.8468,308.9404,73,40,0
308.9404,309.03348,75,37,0
309.03348,309.12613,73,42,0
309.12613,309.21838,75,38,0
309.21838,309.31006,73,44,0
309.31006,309.40155,75,39,0
309.40155,309.49228,73,46,0
309.49228,309.58282,75,42,0
309.58282,309.67276,73,48,0
309.67276,309.7624,75,42,0
309.7624,309.85202,73,47,0
309.854,309.9445,75,40,0
309.94247,310.03378,73,44,0
310.03378,310.12805,75,38,0
310.12598,310.25156,73,42,0
310.25156,310.38416,75,37,0
310.38416,310.5255,72,40,0
310.5255,310.66156,73,35,0
310.66156,311.1537,82,54,0
311.1537,311.6458,80,50,0
311.6458,312.15103,78,52,0
312.15103,312.65625,68,50,0
312.65625,314.71124,75,54,0
314.71124,315.78845,73,45,0
316.86563,317.91003,58,40,0
316.86563,317.91003,53,34,0
317.91003,318.7223,58,40,0
318.7223,318.96597,58,36,0
317.91003,318.99307,54,34,0
318.99307,320.06815,53,34,0
320.06815,321.15115,54,28,0
318.99307,321.15115,58,40,0
321.15115,322.19556,58,40,0
321.15115,322.19556,53,34,0
322.19556,323.0139,58,40,0
323.0139,323.25937,58,36,0
322.19556,323.28665,54,34,0
323.28665,324.36172,53,34,0
324.36172,325.4368,54,28,0
323.28665,325.4368,58,40,0
325.4368,326.4812,58,40,0
325.4368,326.4812,53,34,0
326.4812,327.2875,58,40,0
327.2875,327.5294,58,36,0
326.4812,327.55627,54,34,0
327.55627,328.6235,58,40,0
327.55627,328.6235,53,34,0
328.6235,329.4068,61,49,0
329.4068,329.64178,60,45,0
328.6235,329.6679,54,39,0
329.6679,330.45117,60,48,0
330.45117,330.68616,58,42,0
329.6679,330.71228,53,39,0
330.71228,331.50693,58,44,0
331.50693,331.7453,58,36,0
330.71228,331.7718,54,37,0
331.7718,332.84686,53,34,0
332.84686,333.92194,54,28,0
331.7718,333.92194,58,40,0
333.92194,334.96634,61,50,0
333.92194,334.96634,53,42,0
333.92194,334.96634,58,42,0
334.96634,335.77264,61,50,0
335.77264,336.01453,61,45,0
334.96634,336.0414,54,42,0
334.96634,336.0414,58,42,0
336.0414,337.0784,61,50,0
336.0414,337.0784,53,42,0
336.0414,337.0784,58,42,0
337.0784,337.88174,61,52,0
337.0784,337.88174,65,59,0
337.88174,338.01898,60,47,0
337.88174,338.01898,63,53,0
338.01898,338.14954,65,48,0
337.0784,338.14954,54,48,0
338.14954,338.93283,60,51,0
338.14954,338.93283,63,57,0
338.93283,339.16782,58,45,0
338.93283,339.16782,61,50,0
338.14954,339.1939,53,48,0
339.1939,339.98856,58,48,0
339.1939,339.98856,61,55,0
339.98856,340.22693,58,39,0
339.98856,340.22693,61,45,0
339.1939,340.25342,54,46,0
340.25342,341.33646,53,42,0
341.33646,342.4195,54,35,0
340.25342,342.4195,58,45,0
340.25342,342.4195,61,50,0
342.4195,342.89948,70,73,0
342.89948,343.23038,68,67,0
342.4195,343.23038,58,58,0
342.4195,343.23038,61,58,0
343.23038,343.3564,68,58,0
343.3564,344.1209,66,61,0
344.1209,344.34973,65,53,0
343.3564,344.37515,58,55,0
343.3564,344.37515,61,55,0
344.37515,345.4582,61,50,0
344.37515,345.4582,65,59,0
344.37515,345.4582,58,50,0
345.4582,346.5412,61,51,0
345.4582,346.5412,58,42,0
346.5412,347.0174,70,73,0
347.0174,347.34586,68,67,0
346.5412,347.34586,58,58,0
346.5412,347.34586,61,58,0
347.34586,347.47192,68,58,0
347.47192,348.24115,66,61,0
348.24115,348.47192,65,54,0
347.47192,348.49756,58,55,0
347.47192,348.49756,61,55,0
348.49756,349.5806,61,50,0
348.49756,349.5806,65,59,0
348.49756,349.5806,58,50,0
349.5806,350.66364,61,51,0
349.5806,350.66364,58,42,0
350.66364,351.708,58,46,0
350.66364,351.708,53,39,0
351.708,352.5143,58,46,0
352.5143,352.7562,58,41,0
351.708,352.78308,54,39,0
352.78308,353.8503,58,46,0
352.78308,353.8503,53,39,0
353.8503,354.6336,61,54,0
354.6336,354.76416,60,49,0
354.76416,354.8947,61,45,0
353.8503,354.8947,54,44,0
354.8947,355.678,60,52,0
355.678,355.913,58,46,0
354.8947,355.9391,53,44,0
355.9391,356.73373,58,50,0
356.73373,356.9721,58,41,0
355.9391,356.9986,54,42,0
356.9986,358.07367,53,39,0
358.07367,359.14874,54,32,0
356.9986,359.14874,58,46,0
359.14874,359.62494,70,68,0
359.14874,359.62494,82,83,0
359.62494,359.9623,80,73,0
359.62494,359.9623,68,56,0
359.9623,360.00928,68,64,0
359.14874,360.06055,73,68,0
360.00928,360.06055,73,57,0
360.06055,360.1106,80,59,0
360.1106,360.87332,78,73,0
360.87332,361.11014,77,61,0
360.87332,361.11014,65,52,0
360.1106,361.13647,66,61,0
360.1106,361.13647,73,74,0
361.13647,362.1891,73,69,0
361.13647,362.1891,77,69,0
361.13647,362.1891,65,58,0
362.1891,363.24173,70,68,0
362.1891,363.24173,61,57,0
362.1891,363.24173,73,68,0
363.24173,363.72174,70,68,0
363.24173,363.72174,82,83,0
363.72174,364.06116,80,73,0
363.72174,364.06116,68,56,0
364.06116,364.11002,68,66,0
363.24173,364.1628,73,68,0
364.11002,364.1628,73,58,0
364.1628,364.2132,80,58,0
364.2132,364.98242,78,73,0
364.98242,365.21927,77,61,0
364.98242,365.21927,65,52,0
364.2132,365.2456,66,63,0
364.2132,365.2456,73,76,0
365.2456,366.31702,73,69,0
365.2456,366.31702,77,69,0
365.2456,366.31702,65,58,0
366.31702,367.38846,70,68,0
366.31702,367.38846,61,57,0
366.31702,367.38846,73,68,0
367.38846,368.43283,70,61,0
367.38846,368.43283,65,52,0
367.38846,368.43283,58,52,0
368.43283,369.23914,70,63,0
368.43283,369.23914,58,53,0
369.23914,369.48105,70,57,0
369.23914,369.48105,58,48,0
368.43283,369.5079,66,53,0
369.5079,370.57513,70,65,0
369.5079,370.57513,65,54,0
369.5079,370.57513,58,54,0
370.57513,371.35843,73,82,0
370.57513,371.35843,61,68,0
371.35843,371.5934,72,71,0
371.35843,371.5934,60,59,0
370.57513,371.61954,66,66,0
371.61954,372.40283,72,79,0
371.61954,372.40283,60,68,0
372.40283,372.63782,70,71,0
372.40283,372.63782,58,59,0
371.61954,372.6639,65,68,0
372.6639,373.45856,70,77,0
372.6639,373.45856,58,64,0
373.45856,373.69693,70,72,0
373.45856,373.69693,58,60,0
372.6639,373.72342,66,64,0
373.72342,374.7985,70,76,0
373.72342,374.7985,65,64,0
373.72342,374.7985,58,63,0
374.7985,375.87357,66,75,0
374.7985,375.87357,68,75,0
374.7985,375.87357,60,75,0
374.7985,375.87357,72,95,0
375.87357,376.94867,73,100,0
375.87357,376.94867,65,78,0
375.87357,376.94867,61,78,0
376.94867,377.75497,77,89,0
376.94867,377.75497,73,74,0
376.94867,377.75497,65,74,0
377.75497,378.02374,78,89,0
377.75497,378.02374,66,74,0
378.02374,378.83005,80,93,0
378.02374,378.83005,73,78,0
378.02374,378.83005,68,78,0
378.83005,379.09882,82,93,0
378.83005,379.09882,70,78,0
379.09882,379.9245,84,99,0
379.09882,379.9245,80,84,0
379.09882,379.9245,72,84,0
379.9245,380.19974,85,102,0
379.9245,380.19974,73,88,0
380.19974,382.3426,89,103,0
380.19974,382.3426,77,88,0
382.3426,383.94974,87,95,0
380.19974,383.94974,84,88,0
380.19974,383.94974,80,88,0
382.3426,383.94974,75,79,0
384.2176,384.5117,78,89,0
384.2176,384.5117,66,75,0
384.2176,384.5117,72,75,0
384.2176,384.5117,75,75,0
384.5117,385.58313,77,102,0
384.5117,385.58313,75,80,0
384.5117,385.58313,65,80,0
384.5117,385.58313,72,80,0
385.58313,386.3867,77,89,0
385.58313,386.3867,70,74,0
385.58313,386.3867,65,74,0
385.58313,386.3867,73,74,0
386.3867,386.65457,79,89,0
386.3867,386.65457,67,74,0
386.65457,387.45813,81,93,0
386.65457,387.45813,77,78,0
386.65457,387.45813,69,78,0
386.65457,387.45813,73,78,0
387.45813,387.72598,82,93,0
387.45813,387.72598,70,78,0
387.72598,388.56982,84,99,0
387.72598,388.56982,77,84,0
387.72598,388.56982,72,84,0
388.56982,388.73465,85,102,0
388.56982,388.73465,73,88,0
388.92453,391.12637,85,103,0
388.73465,391.12637,70,88,0
388.79794,391.12637,76,88,0
388.86124,391.12637,79,88,0
391.12637,392.2273,84,90,0
391.12637,392.2273,77,76,0
391.12637,392.2273,72,76,0
393.28262,394.34943,68,80,0
393.28262,394.34943,60,68,0
393.28262,394.34943,56,68,0
393.28262,394.34943,54,68,0
393.28262,394.34943,65,68,0
394.34943,395.38312,68,80,0
394.34943,395.38312,60,68,0
394.34943,395.38312,54,68,0
394.34943,395.38312,56,68,0
394.34943,395.38312,63,68,0
395.38312,396.48404,68,80,0
395.38312,396.48404,61,68,0
395.38312,396.48404,53,68,0
397.55188,398.61868,65,80,0
397.55188,398.61868,57,68,0
397.55188,398.61868,51,68,0
397.55188,398.61868,61,68,0
398.61868,399.6524,65,80,0
398.61868,399.6524,51,68,0
398.61868,399.6524,57,68,0
398.61868,399.6524,60,68,0
399.6524,401.9076,58,80,0
399.6524,401.9076,49,68,0
401.9076,402.95197,58,46,0
401.9076,402.95197,53,39,0
401.9076,402.95197,46,39,0
402.95197,403.75827,58,46,0
403.75827,404.00018,58,41,0
402.95197,404.02704,54,39,0
404.02704,405.0943,58,46,0
404.02704,405.0943,53,39,0
405.0943,405.87756,61,54,0
405.87756,406.00812,60,49,0
406.00812,406.13867,61,45,0
405.0943,406.13867,54,44,0
406.13867,406.92197,60,52,0
406.92197,407.18304,58,46,0
406.13867,407.18304,53,44,0
407.18304,407.9777,58,50,0
407.9777,408.21606,58,41,0
407.18304,408.24255,54,42,0
408.24255,409.31766,58,46,0
408.24255,409.31766,53,39,0
409.31766,410.12396,52,76,0
409.31766,410.12396,61,97,0
409.31766,410.12396,55,76,0
410.12396,410.39273,63,97,0
410.12396,410.39273,60,76,0
410.12396,410.39273,54,76,0
410.39273,411.4678,65,101,0
410.39273,411.4678,61,79,0
410.39273,411.4678,53,79,0
411.4678,412.2741,77,89,0
411.4678,412.2741,73,74,0
411.4678,412.2741,65,74,0
412.2741,412.54288,78,89,0
412.2741,412.54288,66,74,0
412.54288,413.34918,80,93,0
412.54288,413.34918,73,79,0
412.54288,413.34918,68,79,0
413.34918,413.61795,82,93,0
413.34918,413.61795,70,79,0
413.61795,414.44363,84,100,0
413.61795,414.44363,80,84,0
413.61795,414.44363,72,84,0
414.44363,414.71887,85,103,0
414.44363,414.71887,73,88,0
414.71887,416.86172,89,104,0
414.71887,416.86172,77,88,0
416.86172,418.46887,87,95,0
414.71887,418.46887,84,88,0
414.71887,418.46887,80,88,0
416.86172,418.46887,75,79,0
418.73672,419.03085,78,85,0
418.73672,419.03085,66,72,0
418.73672,419.03085,72,72,0
418.73672,419.03085,75,72,0
419.03085,420.10226,77,98,0
419.03085,420.10226,75,77,0
419.03085,420.10226,65,77,0
419.03085,420.10226,72,77,0
420.10226,420.90585,77,89,0
420.10226,420.90585,70,74,0
420.10226,420.90585,65,74,0
420.10226,420.90585,73,74,0
420.90585,421.1737,79,89,0
420.90585,421.1737,67,74,0
421.1737,421.97726,81,93,0
421.1737,421.97726,77,78,0
421.1737,421.97726,69,78,0
421.1737,421.97726,73,78,0
421.97726,422.24512,82,93,0
421.97726,422.24512,70,78,0
422.24512,423.08896,84,99,0
422.24512,423.08896,77,84,0
422.24512,423.08896,72,84,0
423.08896,423.25378,85,102,0
423.08896,423.25378,73,88,0
423.44366,425.6455,85,103,0
423.25378,425.6455,70,88,0
423.31708,425.6455,76,88,0
423.38037,425.6455,79,88,0
425.6455,426.74643,84,90,0
425.6455,426.74643,77,76,0
425.6455,426.74643,72,76,0
427.80176,428.86856,68,80,0
427.80176,428.86856,60,68,0
427.80176,428.86856,56,68,0
427.80176,428.86856,54,68,0
427.80176,428.86856,65,68,0
428.86856,429.90225,68,80,0
428.86856,429.90225,60,68,0
428.86856,429.90225,54,68,0
428.86856,429.90225,56,68,0
428.86856,429.90225,63,68,0
429.90225,431.00317,68,80,0
429.90225,431.00317,61,68,0
429.90225,431.00317,53,68,0
432.071,433.13782,65,80,0
432.071,433.13782,57,68,0
432.071,433.13782,51,68,0
432.071,433.13782,61,68,0
433.13782,434.17154,65,80,0
433.13782,434.17154,51,68,0
433.13782,434.17154,57,68,0
433.13782,434.17154,60,68,0
434.17154,436.42673,58,80,0
434.17154,436.42673,49,68,0
436.42673,437.48605,58,46,0
436.42673,437.48605,53,39,0
436.42673,437.48605,46,39,0
437.48605,438.30392,58,46,0
438.30392,438.5493,58,41,0
437.48605,438.57657,54,39,0
438.57657,439.659,58,46,0
438.57657,439.659,53,39,0
439.659,440.52606,61,45,0
440.52606,440.67056,60,40,0
440.67056,440.81506,61,37,0
439.659,440.81506,54,37,0
440.81506,441.75507,60,42,0
441.75507,442.04663,58,36,0
440.81506,442.07904,53,36,0
442.07904,443.14288,58,40,0
443.14288,443.61325,58,28,0
442.07904,443.66553,54,33,0
443.66553,446.8655,58,31,0
443.66553,446.8655,53,26,0
443.66553,446.8655,49,26,0
0.0,1.044386,46,34,0
0.0,1.044386,41,28,0
0.0,1.044386,34,28,0
1.044386,2.127418,49,30,0
1.044386,2.127418,42,25,0
1.044386,2.127418,37,25,0
2.127418,3.202494,46,34,0
2.127418,3.202494,41,28,0
2.127418,3.202494,34,28,0
3.202494,4.285526,49,28,0
3.202494,4.285526,42,23,0
3.202494,4.285526,37,23,0
4.285526,5.329912,46,34,0
4.285526,5.329912,41,28,0
4.285526,5.329912,34,28,0
5.329912,6.421019,49,30,0
5.329912,6.421019,42,25,0
5.329912,6.421019,37,25,0
6.421019,7.496095,46,34,0
6.421019,7.496095,41,28,0
6.421019,7.496095,34,28,0
7.496095,8.571171,49,27,0
7.496095,8.571171,42,22,0
7.496095,8.571171,37,22,0
8.571171,9.615557,46,34,0
8.571171,9.615557,41,28,0
8.571171,9.615557,34,28,0
9.615557,10.690633,49,30,0
9.615557,10.690633,42,30,0
9.615557,10.690633,37,25,0
10.690633,11.757869,46,34,0
10.690633,11.757869,41,28,0
10.690633,11.757869,34,28,0
11.757869,12.802255,49,27,0
11.757869,12.802255,42,27,0
11.757869,12.802255,37,22,0
12.802255,13.846641,46,34,0
12.802255,13.846641,41,28,0
12.802255,13.846641,34,28,0
13.846641,14.90615,49,30,0
13.846641,14.90615,42,25,0
13.846641,14.90615,37,25,0
14.90615,15.981226,46,34,0
14.90615,15.981226,41,28,0
14.90615,15.981226,34,28,0
15.981226,17.056301,49,27,0
15.981226,17.056301,42,22,0
15.981226,17.056301,37,22,0
17.056301,18.100689,46,42,0
17.056301,18.100689,41,35,0
17.056301,18.100689,34,35,0
18.100689,19.175764,49,37,0
18.100689,19.175764,42,37,0
18.100689,19.175764,37,30,0
19.175764,20.21275,46,42,0
19.175764,20.21275,41,35,0
19.175764,20.21275,34,35,0
20.21275,21.28389,49,34,0
20.21275,21.28389,42,34,0
20.21275,21.28389,37,27,0
21.28389,22.328276,46,42,0
21.28389,22.328276,41,35,0
21.28389,22.328276,34,35,0
22.328276,23.387785,49,37,0
22.328276,23.387785,42,30,0
22.328276,23.387785,37,30,0
23.387785,24.470818,46,42,0
23.387785,24.470818,41,35,0
23.387785,24.470818,34,35,0
24.470818,25.55385,49,34,0
24.470818,25.55385,42,27,0
24.470818,25.55385,37,27,0
25.55385,26.476067,46,52,0
25.55385,26.476067,41,42,0
25.55385,26.476067,34,42,0
26.476067,27.493015,49,44,0
26.476067,27.493015,42,36,0
26.476067,27.493015,37,36,0
27.493015,28.576048,46,46,0
27.493015,28.576048,41,38,0
27.493015,28.576048,34,38,0
28.576048,29.659079,49,35,0
28.576048,29.659079,42,27,0
28.576048,29.659079,37,27,0
29.659079,30.599592,46,52,0
29.659079,30.599592,41,42,0
29.659079,30.599592,34,42,0
30.599592,31.592022,49,44,0
30.599592,31.592022,42,36,0
30.599592,31.592022,37,36,0
31.592022,32.675053,46,46,0
31.592022,32.675053,41,38,0
31.592022,32.675053,34,38,0
32.675053,33.758087,49,35,0
32.675053,33.758087,42,27,0
32.675053,33.758087,37,27,0
33.758087,34.80247,46,39,0
33.758087,34.80247,41,32,0
33.758087,34.80247,34,32,0
34.80247,35.87755,49,34,0
34.80247,35.87755,42,34,0
34.80247,35.87755,37,28,0
35.87755,36.944786,46,39,0
35.87755,36.944786,41,32,0
35.87755,36.944786,34,32,0
36.944786,37.98917,49,31,0
36.944786,37.98917,42,31,0
36.944786,37.98917,37,25,0
37.98917,39.033558,46,39,0
37.98917,39.033558,41,32,0
37.98917,39.033558,34,32,0
39.033558,40.093067,49,34,0
39.033558,40.093067,42,28,0
39.033558,40.093067,37,28,0
40.093067,41.16814,46,39,0
40.093067,41.16814,41,32,0
40.093067,41.16814,34,32,0
41.16814,42.243217,49,31,0
41.16814,42.243217,42,25,0
41.16814,42.243217,37,25,0
42.243217,43.19473,46,57,0
42.243217,43.19473,41,47,0
42.243217,43.19473,34,47,0
43.19473,44.2206,49,46,0
43.19473,44.2206,42,37,0
43.19473,44.2206,37,37,0
44.2206,45.282547,46,48,0
44.2206,45.282547,41,39,0
44.2206,45.282547,34,39,0
45.282547,46.344494,49,38,0
45.282547,46.344494,42,30,0
45.282547,46.344494,37,30,0
46.344494,47.299538,46,57,0
46.344494,47.299538,41,47,0
46.344494,47.299538,34,47,0
47.299538,48.33193,49,46,0
47.299538,48.33193,42,37,0
47.299538,48.33193,37,37,0
48.33193,49.393875,46,48,0
48.33193,49.393875,41,39,0
48.33193,49.393875,34,39,0
49.393875,50.455822,49,38,0
49.393875,50.455822,42,30,0
49.393875,50.455822,37,30,0
50.455822,51.500206,46,52,0
50.455822,51.500206,41,43,0
50.455822,51.500206,34,43,0
51.500206,52.575283,49,46,0
51.500206,52.575283,42,46,0
51.500206,52.575283,37,37,0
52.575283,53.64252,46,54,0
52.575283,53.64252,41,45,0
52.575283,53.64252,34,45,0
53.64252,54.686905,49,46,0
53.64252,54.686905,42,46,0
53.64252,54.686905,37,36,0
54.686905,55.731293,46,58,0
54.686905,55.731293,41,49,0
54.686905,55.731293,34,49,0
55.731293,56.790802,49,51,0
55.731293,56.790802,42,42,0
55.731293,56.790802,37,42,0
56.790802,57.865875,46,64,0
56.790802,57.865875,41,53,0
56.790802,57.865875,34,53,0
57.865875,58.940952,44,71,0
57.865875,58.940952,32,56,0
58.940952,60.01603,37,74,0
58.940952,60.01603,25,59,0
60.01603,60.822334,61,76,0
60.01603,60.822334,56,64,0
60.01603,60.822334,49,64,0
60.822334,61.091103,63,76,0
61.091103,61.89741,65,80,0
61.091103,61.89741,56,68,0
61.091103,61.89741,49,68,0
61.89741,62.16618,66,80,0
62.16618,62.991867,68,86,0
62.16618,62.991867,56,73,0
62.16618,62.991867,63,73,0
62.991867,63.267097,65,85,0
63.267097,64.338524,44,92,0
63.267097,64.338524,32,77,0
64.338524,65.1421,72,81,0
64.338524,65.1421,66,69,0
64.338524,65.1421,63,69,0
65.1421,65.38317,70,76,0
65.1421,65.38317,66,65,0
65.1421,65.38317,61,65,0
65.40996,66.213524,70,75,0
65.40996,66.213524,66,63,0
65.40996,66.213524,61,63,0
66.213524,66.4546,68,71,0
66.213524,66.4546,66,59,0
66.213524,66.4546,60,59,0
66.481384,67.28496,68,68,0
66.481384,67.28496,66,57,0
66.481384,67.28496,60,57,0
67.28496,67.57907,63,77,0
67.28496,67.57907,60,66,0
67.28496,67.57907,57,66,0
67.57907,68.650505,46,78,0
67.57907,68.650505,34,66,0
68.650505,69.72193,61,75,0
68.650505,69.72193,58,63,0
68.650505,69.72193,53,63,0
69.72193,70.79336,49,80,0
69.72193,70.79336,37,68,0
70.79336,71.991905,53,64,0
70.79336,71.991905,65,76,0
70.79336,71.991905,61,64,0
70.79336,71.991905,58,64,0
71.991905,73.09282,41,92,0
71.991905,73.09282,29,77,0
73.09282,74.19374,67,81,0
73.09282,74.19374,53,69,0
73.09282,74.19374,58,69,0
73.09282,74.19374,61,69,0
74.19374,75.294655,69,75,0
74.19374,75.294655,53,64,0
74.19374,75.294655,57,64,0
74.19374,75.294655,60,64,0
75.294655,76.03539,53,81,0
76.03539,76.13654,43,61,0
76.13654,76.24127,44,61,0
76.24127,76.34998,46,61,0
76.34998,76.45415,44,61,0
76.45415,76.558105,46,56,0
76.558105,76.661,44,64,0
76.661,76.76286,46,57,0
76.76286,76.86371,44,66,0
76.86371,76.96356,46,59,0
76.96356,77.06245,44,68,0
77.06245,77.16036,46,61,0
77.16036,77.257256,44,70,0
77.257256,77.353226,46,65,0
77.353226,77.4483,44,73,0
77.4483,77.54249,46,66,0
77.54249,77.63624,44,72,0
77.63832,77.73261,46,63,0
77.730515,77.825676,44,69,0
77.825676,77.9239,46,60,0
77.92174,78.05142,44,66,0
78.05142,78.18262,46,58,0
78.18262,78.31576,43,64,0
78.31576,78.45049,44,55,0
78.45049,79.55141,49,68,0
79.55141,80.30141,49,79,0
80.30141,80.40398,40,61,0
80.40398,80.5098,41,61,0
80.5098,80.619255,42,61,0
80.619255,80.72343,41,61,0
80.72343,80.82738,42,56,0
80.82738,80.930275,41,64,0
80.930275,81.03214,42,57,0
81.03214,81.13299,41,66,0
81.13299,81.23284,42,59,0
81.23284,81.33172,41,68,0
81.33172,81.42964,42,61,0
81.42964,81.526535,41,70,0
81.526535,81.622505,42,65,0
81.622505,81.717575,41,73,0
81.717575,81.81177,42,66,0
81.81177,81.90552,41,72,0
81.9076,82.00189,42,63,0
81.999794,82.094955,41,69,0
82.094955,82.19317,42,60,0
82.19102,82.3207,41,66,0
82.3207,82.4519,42,58,0
82.4519,82.58504,40,64,0
82.58504,82.71977,41,55,0
82.71977,83.82069,42,64,0
83.82069,84.38673,41,49,0
84.38673,84.97496,37,40,0
84.97496,86.01935,46,39,0
84.97496,86.01935,41,32,0
84.97496,86.01935,34,32,0
86.01935,87.09442,49,34,0
86.01935,87.09442,42,34,0
86.01935,87.09442,37,28,0
87.09442,88.16166,46,39,0
87.09442,88.16166,41,32,0
87.09442,88.16166,34,32,0
88.16166,89.20605,49,31,0
88.16166,89.20605,42,31,0
88.16166,89.20605,37,25,0
89.20605,90.25043,46,39,0
89.20605,90.25043,41,32,0
89.20605,90.25043,34,32,0
90.25043,91.30994,49,34,0
90.25043,91.30994,42,28,0
90.25043,91.30994,37,28,0
91.30994,92.38502,46,39,0
91.30994,92.38502,41,32,0
91.30994,92.38502,34,32,0
92.38502,93.19132,45,73,0
92.38502,93.19132,33,57,0
93.19132,93.46009,44,73,0
93.19132,93.46009,32,57,0
93.46009,94.535164,37,76,0
93.46009,94.535164,25,60,0
94.535164,95.34148,61,80,0
94.535164,95.34148,56,67,0
94.535164,95.34148,49,67,0
95.34148,95.610245,63,80,0
95.610245,96.41655,65,85,0
95.610245,96.41655,56,71,0
95.610245,96.41655,49,71,0
96.41655,96.68532,66,85,0
96.68532,97.51101,68,90,0
96.68532,97.51101,56,76,0
96.68532,97.51101,63,76,0
97.51101,97.78624,65,89,0
97.78624,98.857666,44,96,0
97.78624,98.857666,32,81,0
98.857666,99.66124,72,85,0
98.857666,99.66124,66,72,0
98.857666,99.66124,63,72,0
99.66124,99.92909,70,79,0
99.66124,99.92909,66,67,0
99.66124,99.92909,61,67,0
99.92909,100.732666,70,78,0
99.92909,100.732666,66,66,0
99.92909,100.732666,61,66,0
100.732666,101.00053,68,73,0
100.732666,101.00053,66,61,0
100.732666,101.00053,60,61,0
101.00053,101.80409,68,71,0
101.00053,101.80409,66,60,0
101.00053,101.80409,60,60,0
101.80409,102.09821,63,77,0
101.80409,102.09821,60,66,0
101.80409,102.09821,57,66,0
102.09821,103.16964,46,78,0
102.09821,103.16964,34,66,0
103.16964,104.24107,61,75,0
103.16964,104.24107,58,63,0
103.16964,104.24107,53,63,0
104.24107,105.3125,49,80,0
104.24107,105.3125,37,68,0
105.3125,106.51104,53,64,0
105.3125,106.51104,65,76,0
105.3125,106.51104,61,64,0
105.3125,106.51104,58,64,0
106.51104,107.61196,41,92,0
106.51104,107.61196,29,77,0
107.61196,108.712875,67,81,0
107.61196,108.712875,53,69,0
107.61196,108.712875,58,69,0
107.61196,108.712875,61,69,0
108.712875,109.8138,69,75,0
108.712875,109.8138,53,64,0
108.712875,109.8138,57,64,0
108.712875,109.8138,60,64,0
109.8138,110.554535,53,81,0
110.554535,110.65568,43,61,0
110.65568,110.76041,44,61,0
110.76041,110.86912,46,61,0
110.86912,110.97329,44,61,0
110.97329,111.07724,46,56,0
111.07724,111.18014,44,64,0
111.18014,111.282005,46,57,0
111.282005,111.38285,44,66,0
111.38285,111.482704,46,59,0
111.482704,111.58158,44,68,0
111.58158,111.679504,46,61,0
111.679504,111.7764,44,70,0
111.7764,111.87237,46,65,0
111.87237,111.96744,44,73,0
111.96744,112.06163,46,66,0
112.06163,112.15538,44,72,0
112.15746,112.251755,46,63,0
112.24965,112.34481,44,69,0
112.34481,112.44303,46,60,0
112.44088,112.570564,44,66,0
112.570564,112.70176,46,58,0
112.70176,112.8349,43,64,0
112.8349,112.96963,44,55,0
112.96963,114.07055,49,68,0
114.07055,114.82055,49,68,0
114.82055,114.92312,40,61,0
114.92312,115.028946,41,61,0
115.028946,115.1384,42,61,0
115.1384,115.24256,41,61,0
115.24256,115.34652,42,56,0
115.34652,115.44942,41,64,0
115.44942,115.55128,42,57,0
115.55128,115.65213,41,66,0
115.65213,115.75198,42,59,0
115.75198,115.85086,41,68,0
115.85086,115.948784,42,61,0
115.948784,116.04567,41,70,0
116.04567,116.14165,42,65,0
116.14165,116.23672,41,73,0
116.23672,116.3309,42,66,0
116.3309,116.42465,41,72,0
116.426735,116.521034,42,63,0
116.51893,116.61409,41,69,0
116.61409,116.71231,42,60,0
116.71015,116.839836,41,66,0
116.839836,116.97104,42,58,0
116.97104,117.10418,40,64,0
117.10418,117.23891,41,55,0
117.23891,118.33983,42,64,0
118.33983,118.90586,41,51,0
118.90586,119.4941,37,39,0
119.4941,120.53848,46,39,0
119.4941,120.53848,41,32,0
119.4941,120.53848,34,32,0
120.53848,121.61356,49,34,0
120.53848,121.61356,42,34,0
120.53848,121.61356,37,28,0
121.61356,122.68079,46,39,0
121.61356,122.68079,41,32,0
121.61356,122.68079,34,32,0
122.68079,123.72518,49,31,0
122.68079,123.72518,42,31,0
122.68079,123.72518,37,25,0
123.72518,124.76957,46,39,0
123.72518,124.76957,41,32,0
123.72518,124.76957,34,32,0
124.76957,125.82908,49,34,0
124.76957,125.82908,42,28,0
124.76957,125.82908,37,28,0
125.82908,126.90415,46,39,0
125.82908,126.90415,41,32,0
125.82908,126.90415,34,32,0
126.90415,127.97923,44,39,0
126.90415,127.97923,32,32,0
127.97923,128.49065,37,33,0
128.49065,128.97444,44,27,0
128.97444,129.4624,53,27,0
129.4624,129.95885,61,28,0
129.95885,130.45529,37,33,0
130.45529,130.93103,44,27,0
130.93103,131.40677,53,27,0
131.40677,131.8989,61,28,0
131.8989,132.39102,39,33,0
132.39102,132.89424,44,27,0
132.89424,133.38637,54,24,0
133.38637,133.8785,60,24,0
133.8785,134.37062,39,31,0
134.37062,134.85039,44,24,0
134.85039,135.33015,54,27,0
135.33015,135.83763,60,25,0
135.83763,136.34732,32,33,0
136.34732,136.83112,44,29,0
136.83112,137.31491,54,29,0
137.31491,137.80702,60,30,0
137.80702,138.29915,32,36,0
138.29915,138.77489,44,30,0
138.77489,139.25063,54,30,0
139.25063,139.74707,60,31,0
139.74707,140.24352,37,36,0
140.24352,140.73996,44,30,0
140.73996,141.2364,53,28,0
141.2364,141.74649,61,25,0
141.74649,142.25397,37,33,0
142.25397,142.7297,44,27,0
142.7297,143.20544,53,29,0
143.20544,143.71066,61,27,0
143.71066,144.20279,37,33,0
144.20279,144.68256,44,27,0
144.68256,145.17468,53,30,0
145.17468,145.66681,61,28,0
145.66681,146.14658,34,33,0
146.14658,146.62634,46,29,0
146.62634,147.10612,56,29,0
147.10612,147.57643,62,30,0
147.57643,148.04568,39,33,0
148.04568,148.51363,46,30,0
148.51363,148.98157,54,30,0
148.98157,149.4573,63,27,0
149.4573,149.93304,42,33,0
149.93304,150.40878,51,29,0
150.40878,150.90523,58,30,0
150.90523,151.19649,63,27,0
151.40182,151.8997,43,33,0
151.8997,152.3856,52,28,0
152.3856,152.8688,61,28,0
152.8688,153.40439,70,29,0
153.40439,153.89651,44,33,0
153.89651,154.38864,51,28,0
154.38864,154.89388,60,30,0
154.89388,155.3991,66,30,0
155.3991,155.90431,32,33,0
155.90431,156.39644,44,27,0
156.39644,156.90166,54,27,0
156.90166,157.40688,60,26,0
157.40688,157.9121,37,31,0
157.9121,158.41731,44,28,0
158.41731,158.92253,53,28,0
158.92253,159.46114,61,28,0
159.46114,159.97545,37,33,0
159.97545,160.45924,44,27,0
160.45924,160.9472,53,27,0
160.9472,161.44365,61,28,0
161.44365,161.9401,37,33,0
161.9401,162.41583,44,27,0
162.41583,162.89157,53,27,0
162.89157,163.3837,61,28,0
163.3837,163.87582,39,33,0
163.87582,164.37904,44,27,0
164.37904,164.87117,54,24,0
164.87117,165.3633,60,24,0
165.3633,165.85542,39,31,0
165.85542,166.33519,44,24,0
166.33519,166.81496,54,27,0
166.81496,167.32243,60,25,0
167.32243,167.83212,32,33,0
167.83212,168.31592,44,29,0
168.31592,168.7997,54,29,0
168.7997,169.29182,60,30,0
169.29182,169.78395,32,36,0
169.78395,170.25969,44,30,0
170.25969,170.73543,54,30,0
170.73543,171.23187,60,31,0
171.23187,171.72832,37,36,0
171.72832,172.22476,44,30,0
172.22476,172.72119,53,28,0
172.72119,173.2313,61,25,0
173.2313,173.73877,37,33,0
173.73877,174.21451,44,27,0
174.21451,174.69025,53,29,0
174.69025,175.19547,61,27,0
175.19547,175.68759,37,33,0
175.68759,176.16736,44,27,0
176.16736,176.65948,53,30,0
176.65948,177.15161,61,28,0
177.15161,177.63138,34,33,0
177.63138,178.11115,46,29,0
178.11115,178.59093,56,29,0
178.59093,179.06123,62,30,0
179.06123,179.53049,39,33,0
179.53049,179.99843,46,30,0
179.99843,180.46637,54,30,0
180.46637,180.94211,63,27,0
180.94211,181.41785,42,33,0
181.41785,181.89359,51,29,0
181.89359,182.39003,58,30,0
182.39003,182.68129,63,27,0
182.88663,183.3845,43,33,0
183.3845,183.8704,52,28,0
183.8704,184.3536,61,28,0
184.3536,184.88919,70,29,0
184.88919,185.38132,44,33,0
185.38132,185.87344,51,28,0
185.87344,186.37866,60,30,0
186.37866,186.8839,66,30,0
186.8839,187.38911,32,33,0
187.38911,187.88124,44,27,0
187.88124,188.38646,54,27,0
188.38646,188.89168,60,26,0
188.89168,189.3969,37,31,0
189.3969,189.90211,44,28,0
189.90211,190.40733,53,28,0
190.40733,190.94594,61,28,0
190.94594,191.46025,32,34,0
191.46025,191.94405,44,28,0
191.94405,192.432,51,28,0
192.432,192.92845,60,29,0
192.92845,193.4249,32,34,0
193.4249,193.90063,44,28,0
193.90063,194.37637,51,28,0
194.37637,194.8685,60,29,0
194.8685,195.36063,34,34,0
195.36063,195.86385,46,28,0
195.86385,196.35597,51,25,0
196.35597,196.8481,61,25,0
196.8481,197.34023,34,32,0
197.34023,197.81999,46,25,0
197.81999,198.29976,51,28,0
198.29976,198.80724,61,26,0
198.80724,199.31693,34,36,0
199.31693,199.8007,46,31,0
199.8007,200.2845,52,31,0
200.2845,200.77663,61,33,0
200.77663,201.26875,34,39,0
201.26875,201.73163,46,33,0
201.73163,202.20737,52,33,0
202.20737,202.70381,61,34,0
202.70381,203.20026,36,40,0
203.20026,203.67613,48,33,0
203.67613,204.17258,54,31,0
204.17258,204.68266,63,28,0
204.68266,205.19014,36,37,0
205.19014,205.66588,48,30,0
205.66588,206.14162,51,33,0
206.14162,206.64684,63,30,0
206.64684,207.13896,37,37,0
207.13896,207.61874,49,31,0
207.61874,208.09447,58,34,0
208.09447,208.5866,65,32,0
208.5866,209.06638,37,37,0
209.06638,209.54614,49,33,0
209.54614,210.02591,58,33,0
210.02591,210.51804,65,34,0
210.51804,211.01016,39,40,0
211.01016,211.47427,51,35,0
211.47427,211.95404,58,37,0
211.95404,212.4338,66,33,0
212.4338,212.91357,41,41,0
212.91357,213.39334,53,35,0
213.39334,213.87312,58,37,0
213.87312,214.36525,65,35,0
214.36525,214.85738,42,40,0
214.85738,215.32147,51,34,0
215.32147,215.80945,58,37,0
215.80945,216.27739,63,33,0
216.27739,216.76535,42,38,0
216.76535,217.25331,54,34,0
217.25331,217.74127,58,37,0
217.74127,218.22925,64,34,0
218.22925,218.71721,41,36,0
218.71721,219.20517,48,32,0
219.20517,219.69383,57,32,0
219.69383,220.1874,65,31,0
220.1874,220.69373,39,35,0
220.69373,221.2095,51,33,0
221.2095,221.75996,56,27,0
221.75996,222.33688,60,23,0
221.75996,222.33688,66,26,0
222.33688,222.86163,37,33,0
222.86163,223.34543,44,27,0
223.34543,223.83339,53,27,0
223.83339,224.32983,61,28,0
224.32983,224.82628,37,33,0
224.82628,225.30202,44,27,0
225.30202,225.77776,53,27,0
225.77776,226.26988,61,28,0
226.26988,226.76201,39,33,0
226.76201,227.26523,44,27,0
227.26523,227.75735,54,24,0
227.75735,228.24948,60,24,0
228.24948,228.74161,39,31,0
228.74161,229.22137,44,24,0
229.22137,229.70114,54,27,0
229.70114,230.20862,60,25,0
230.20862,230.7183,32,33,0
230.7183,231.2021,44,29,0
231.2021,231.6859,54,29,0
231.6859,232.17802,60,30,0
232.17802,232.67015,32,36,0
232.67015,233.14587,44,30,0
233.14587,233.62161,54,30,0
233.62161,234.11806,60,31,0
234.11806,234.6145,37,36,0
234.6145,235.11095,44,30,0
235.11095,235.60739,53,28,0
235.60739,236.11748,61,25,0
236.11748,236.62495,37,33,0
236.62495,237.1007,44,27,0
237.1007,237.57643,53,29,0
237.57643,238.08165,61,27,0
238.08165,238.57378,37,33,0
238.57378,239.05354,44,27,0
239.05354,239.54567,53,30,0
239.54567,240.0378,61,28,0
240.0378,240.51756,34,33,0
240.51756,240.99734,46,29,0
240.99734,241.47711,56,29,0
241.47711,241.94743,62,30,0
241.94743,242.41667,39,33,0
242.41667,242.88461,46,30,0
242.88461,243.35255,54,30,0
243.35255,243.8283,63,27,0
243.8283,244.30403,42,33,0
244.30403,244.77977,51,29,0
244.77977,245.27621,58,30,0
245.27621,245.56747,63,27,0
245.77281,246.27069,43,33,0
246.27069,246.75659,52,28,0
246.75659,247.23979,61,28,0
247.23979,247.77539,70,29,0
247.77539,248.26752,44,33,0
248.26752,248.75963,51,28,0
248.75963,249.26486,60,30,0
249.26486,249.77008,66,30,0
249.77008,250.2753,32,33,0
250.2753,250.76743,44,27,0
250.76743,251.27264,54,27,0
251.27264,251.77786,60,26,0
251.77786,252.28308,37,27,0
252.28308,252.7883,44,25,0
252.7883,253.29353,53,25,0
253.29353,253.83212,61,25,0
253.83212,254.34644,32,34,0
254.34644,254.83023,44,28,0
254.83023,255.31819,51,28,0
255.31819,255.81464,60,29,0
255.81464,256.31107,32,34,0
256.31107,256.7868,44,28,0
256.7868,257.26254,51,28,0
257.26254,257.75467,60,29,0
257.75467,258.2468,34,34,0
258.2468,258.75003,46,28,0
258.75003,259.24216,51,25,0
259.24216,259.73428,61,25,0
259.73428,260.2264,34,32,0
260.2264,260.70618,46,25,0
260.70618,261.18594,51,28,0
261.18594,261.69342,61,26,0
261.69342,262.2031,34,36,0
262.2031,262.6869,46,31,0
262.6869,263.1707,52,31,0
263.1707,263.6628,61,33,0
263.6628,264.15494,34,39,0
264.15494,264.61783,46,33,0
264.61783,265.09357,52,33,0
265.09357,265.59,61,34,0
265.59,266.08643,36,40,0
266.08643,266.56232,48,33,0
266.56232,267.05878,54,31,0
267.05878,267.56885,63,28,0
267.56885,268.07632,36,37,0
268.07632,268.55206,48,30,0
268.55206,269.0278,51,33,0
269.0278,269.53302,63,30,0
269.53302,270.02515,37,37,0
270.02515,270.5049,49,31,0
270.5049,270.98065,58,34,0
270.98065,271.47278,65,32,0
271.47278,271.95255,37,37,0
271.95255,272.43234,49,33,0
272.43234,272.9121,58,33,0
272.9121,273.40424,65,34,0
273.40424,273.89636,39,40,0
273.89636,274.36044,51,35,0
274.36044,274.84024,58,37,0
274.84024,275.32,66,33,0
275.32,275.79977,41,41,0
275.79977,276.27954,53,35,0
276.27954,276.7593,58,37,0
276.7593,277.25143,65,35,0
277.25143,277.74356,42,40,0
277.74356,278.20767,51,34,0
278.20767,278.69562,58,37,0
278.69562,279.16357,63,33,0
279.16357,279.65155,42,38,0
279.65155,280.1395,54,34,0
280.1395,280.62747,58,37,0
280.62747,281.11542,64,34,0
281.11542,281.6034,41,36,0
281.6034,282.09137,48,32,0
282.09137,282.58002,57,32,0
282.58002,283.07358,65,31,0
283.07358,283.57993,39,35,0
283.57993,284.0957,51,33,0
284.0957,284.64615,56,27,0
284.64615,285.22308,60,22,0
284.64615,285.22308,66,26,0
285.22308,285.74783,37,33,0
285.74783,286.23163,44,27,0
286.23163,286.71957,53,27,0
286.71957,287.21603,61,28,0
287.21603,287.71246,37,33,0
287.71246,288.1882,44,27,0
288.1882,288.66394,53,27,0
288.66394,289.15607,61,28,0
289.15607,289.6482,39,33,0
289.6482,290.15143,44,27,0
290.15143,290.64355,54,24,0
290.64355,291.13568,60,24,0
291.13568,291.6278,39,31,0
291.6278,292.10757,44,24,0
292.10757,292.58734,54,27,0
292.58734,293.09482,60,25,0
293.09482,293.6045,32,33,0
293.6045,294.0883,44,29,0
294.0883,294.57208,54,29,0
294.57208,295.0642,60,30,0
295.0642,295.55634,32,36,0
295.55634,296.03207,44,30,0
296.03207,296.5078,54,30,0
296.5078,297.00424,60,31,0
297.00424,297.5007,37,36,0
297.5007,297.99713,44,30,0
297.99713,298.49356,53,28,0
298.49356,299.00366,61,25,0
299.00366,299.51114,37,33,0
299.51114,299.98688,44,27,0
299.98688,300.46262,53,29,0
300.46262,300.96783,61,27,0
300.96783,301.45996,37,33,0
301.45996,301.93973,44,27,0
301.93973,302.43185,53,30,0
302.43185,302.92398,61,28,0
302.92398,303.40375,34,33,0
303.40375,303.8835,46,29,0
303.8835,304.36328,56,29,0
304.36328,304.83362,62,30,0
304.83362,305.30286,39,33,0
305.30286,305.7708,46,30,0
305.7708,306.23874,54,30,0
306.23874,306.71448,63,27,0
306.71448,307.19022,42,33,0
307.19022,307.66595,51,29,0
307.66595,308.1624,58,30,0
308.1624,308.45367,63,27,0
308.659,309.1569,43,33,0
309.1569,309.6428,52,28,0
309.6428,310.12598,61,28,0
310.12598,310.66156,70,29,0
310.66156,311.1537,44,33,0
311.1537,311.6458,51,28,0
311.6458,312.15103,60,30,0
312.15103,312.65625,66,30,0
312.65625,313.1615,32,33,0
313.1615,313.65363,44,27,0
313.65363,314.17264,54,27,0
314.17264,314.71124,60,23,0
314.71124,315.78845,61,27,0
314.71124,315.78845,53,23,0
314.71124,315.78845,49,23,0
316.86563,317.91003,46,34,0
316.86563,317.91003,41,28,0
316.86563,317.91003,34,28,0
317.91003,318.99307,49,30,0
317.91003,318.99307,42,25,0
317.91003,318.99307,37,25,0
318.99307,320.06815,46,34,0
318.99307,320.06815,41,28,0
318.99307,320.06815,34,28,0
320.06815,321.15115,49,28,0
320.06815,321.15115,42,23,0
320.06815,321.15115,37,23,0
321.15115,322.19556,46,34,0
321.15115,322.19556,41,28,0
321.15115,322.19556,34,28,0
322.19556,323.28665,49,30,0
322.19556,323.28665,42,25,0
322.19556,323.28665,37,25,0
323.28665,324.36172,46,34,0
323.28665,324.36172,41,28,0
323.28665,324.36172,34,28,0
324.36172,325.4368,49,27,0
324.36172,325.4368,42,22,0
324.36172,325.4368,37,22,0
325.4368,326.4812,46,34,0
325.4368,326.4812,41,28,0
325.4368,326.4812,34,28,0
326.4812,327.55627,49,30,0
326.4812,327.55627,42,30,0
326.4812,327.55627,37,25,0
327.55627,328.6235,46,34,0
327.55627,328.6235,41,28,0
327.55627,328.6235,34,28,0
328.6235,329.6679,49,27,0
328.6235,329.6679,42,27,0
328.6235,329.6679,37,22,0
329.6679,330.71228,46,34,0
329.6679,330.71228,41,28,0
329.6679,330.71228,34,28,0
330.71228,331.7718,49,30,0
330.71228,331.7718,42,25,0
330.71228,331.7718,37,25,0
331.7718,332.84686,46,34,0
331.7718,332.84686,41,28,0
331.7718,332.84686,34,28,0
332.84686,333.92194,49,27,0
332.84686,333.92194,42,22,0
332.84686,333.92194,37,22,0
333.92194,334.96634,46,42,0
333.92194,334.96634,41,35,0
333.92194,334.96634,34,35,0
334.96634,336.0414,49,37,0
334.96634,336.0414,42,37,0
334.96634,336.0414,37,30,0
336.0414,337.0784,46,42,0
336.0414,337.0784,41,35,0
336.0414,337.0784,34,35,0
337.0784,338.14954,49,34,0
337.0784,338.14954,42,34,0
337.0784,338.14954,37,27,0
338.14954,339.1939,46,42,0
338.14954,339.1939,41,35,0
338.14954,339.1939,34,35,0
339.1939,340.25342,49,37,0
339.1939,340.25342,42,30,0
339.1939,340.25342,37,30,0
340.25342,341.33646,46,42,0
340.25342,341.33646,41,35,0
340.25342,341.33646,34,35,0
341.33646,342.4195,49,34,0
341.33646,342.4195,42,27,0
341.33646,342.4195,37,27,0
342.4195,343.3564,46,52,0
342.4195,343.3564,41,42,0
342.4195,343.3564,34,42,0
343.3564,344.37515,49,44,0
343.3564,344.37515,42,36,0
343.3564,344.37515,37,36,0
344.37515,345.4582,46,46,0
344.37515,345.4582,41,38,0
344.37515,345.4582,34,38,0
345.4582,346.5412,49,35,0
345.4582,346.5412,42,27,0
345.4582,346.5412,37,27,0
346.5412,347.47192,46,52,0
346.5412,347.47192,41,42,0
346.5412,347.47192,34,42,0
347.47192,348.49756,49,44,0
347.47192,348.49756,42,36,0
347.47192,348.49756,37,36,0
348.49756,349.5806,46,46,0
348.49756,349.5806,41,38,0
348.49756,349.5806,34,38,0
349.5806,350.66364,49,35,0
349.5806,350.66364,42,27,0
349.5806,350.66364,37,27,0
350.66364,351.708,46,39,0
350.66364,351.708,41,32,0
350.66364,351.708,34,32,0
351.708,352.78308,49,34,0
351.708,352.78308,42,34,0
351.708,352.78308,37,28,0
352.78308,353.8503,46,39,0
352.78308,353.8503,41,32,0
352.78308,353.8503,34,32,0
353.8503,354.8947,49,31,0
353.8503,354.8947,42,31,0
353.8503,354.8947,37,25,0
354.8947,355.9391,46,39,0
354.8947,355.9391,41,32,0
354.8947,355.9391,34,32,0
355.9391,356.9986,49,34,0
355.9391,356.9986,42,28,0
355.9391,356.9986,37,28,0
356.9986,358.07367,46,39,0
356.9986,358.07367,41,32,0
356.9986,358.07367,34,32,0
358.07367,359.14874,49,31,0
358.07367,359.14874,42,25,0
358.07367,359.14874,37,25,0
359.14874,360.1106,46,57,0
359.14874,360.1106,41,47,0
359.14874,360.1106,34,47,0
360.1106,361.13647,49,46,0
360.1106,361.13647,42,37,0
360.1106,361.13647,37,37,0
361.13647,362.1891,46,48,0
361.13647,362.1891,41,39,0
361.13647,362.1891,34,39,0
362.1891,363.24173,49,38,0
362.1891,363.24173,42,30,0
362.1891,363.24173,37,30,0
363.24173,364.2132,46,57,0
363.24173,364.2132,41,47,0
363.24173,364.2132,34,47,0
364.2132,365.2456,49,46,0
364.2132,365.2456,42,37,0
364.2132,365.2456,37,37,0
365.2456,366.31702,46,48,0
365.2456,366.31702,41,39,0
365.2456,366.31702,34,39,0
366.31702,367.38846,49,38,0
366.31702,367.38846,42,30,0
366.31702,367.38846,37,30,0
367.38846,368.43283,46,52,0
367.38846,368.43283,41,43,0
367.38846,368.43283,34,43,0
368.43283,369.5079,49,46,0
368.43283,369.5079,42,46,0
368.43283,369.5079,37,37,0
369.5079,370.57513,46,54,0
369.5079,370.57513,41,45,0
369.5079,370.57513,34,45,0
370.57513,371.61954,49,46,0
370.57513,371.61954,42,46,0
370.57513,371.61954,37,36,0
371.61954,372.6639,46,58,0
371.61954,372.6639,41,49,0
371.61954,372.6639,34,49,0
372.6639,373.72342,49,51,0
372.6639,373.72342,42,42,0
372.6639,373.72342,37,42,0
373.72342,374.7985,46,64,0
373.72342,374.7985,41,53,0
373.72342,374.7985,34,53,0
374.7985,375.87357,44,71,0
374.7985,375.87357,32,56,0
375.87357,376.94867,37,74,0
375.87357,376.94867,25,59,0
376.94867,377.75497,61,76,0
376.94867,377.75497,56,64,0
376.94867,377.75497,49,64,0
377.75497,378.02374,63,76,0
378.02374,378.83005,65,80,0
378.02374,378.83005,56,68,0
378.02374,378.83005,49,68,0
378.83005,379.09882,66,80,0
379.09882,379.9245,68,86,0
379.09882,379.9245,56,73,0
379.09882,379.9245,63,73,0
379.9245,380.19974,65,85,0
380.19974,381.27115,44,92,0
380.19974,381.27115,32,77,0
381.27115,382.07474,72,81,0
381.27115,382.07474,66,69,0
381.27115,382.07474,63,69,0
382.07474,382.3158,70,76,0
382.07474,382.3158,66,65,0
382.07474,382.3158,61,65,0
382.3426,383.14615,70,75,0
382.3426,383.14615,66,63,0
382.3426,383.14615,61,63,0
383.14615,383.38724,68,71,0
383.14615,383.38724,66,59,0
383.14615,383.38724,60,59,0
383.414,384.2176,68,68,0
383.414,384.2176,66,57,0
383.414,384.2176,60,57,0
384.2176,384.5117,63,77,0
384.2176,384.5117,60,66,0
384.2176,384.5117,57,66,0
384.5117,385.58313,46,78,0
384.5117,385.58313,34,66,0
385.58313,386.65457,61,75,0
385.58313,386.65457,58,63,0
385.58313,386.65457,53,63,0
386.65457,387.72598,49,80,0
386.65457,387.72598,37,68,0
387.72598,388.92453,53,64,0
387.72598,388.92453,65,76,0
387.72598,388.92453,61,64,0
387.72598,388.92453,58,64,0
388.92453,390.02545,41,92,0
388.92453,390.02545,29,77,0
390.02545,391.12637,67,81,0
390.02545,391.12637,53,69,0
390.02545,391.12637,58,69,0
390.02545,391.12637,61,69,0
391.12637,392.2273,69,75,0
391.12637,392.2273,53,64,0
391.12637,392.2273,57,64,0
391.12637,392.2273,60,64,0
392.2273,392.96802,53,87,0
392.96802,393.06918,43,61,0
393.06918,393.1739,44,61,0
393.1739,393.28262,46,61,0
393.28262,393.38678,44,61,0
393.38678,393.49072,46,56,0
393.49072,393.59363,44,64,0
393.59363,393.6955,46,57,0
393.6955,393.79633,44,66,0
393.79633,393.89618,46,59,0
393.89618,393.9951,44,68,0
393.9951,394.093,46,61,0
394.093,394.18988,44,70,0
394.18988,394.28586,46,65,0
394.28586,394.38092,44,73,0
394.38092,394.47513,46,66,0
394.47513,394.56888,44,72,0
394.57095,394.66525,46,63,0
394.66315,394.7583,44,69,0
394.7583,394.8565,46,60,0
394.85437,394.98404,44,66,0
394.98404,395.11523,46,58,0
395.11523,395.24838,43,64,0
395.24838,395.38312,44,55,0
395.38312,396.48404,49,68,0
396.48404,397.23404,49,82,0
397.23404,397.3366,40,61,0
397.3366,397.44244,41,61,0
397.44244,397.55188,42,61,0
397.55188,397.65607,41,61,0
397.65607,397.76,42,56,0
397.76,397.8629,41,64,0
397.8629,397.96478,42,57,0
397.96478,398.0656,41,66,0
398.0656,398.16547,42,59,0
398.16547,398.26434,41,68,0
398.26434,398.36227,42,61,0
398.36227,398.45917,41,70,0
398.45917,398.55515,42,65,0
398.55515,398.6502,41,73,0
398.6502,398.7444,42,66,0
398.7444,398.83813,41,72,0
398.84024,398.9345,42,63,0
398.93243,399.0276,41,69,0
399.0276,399.1258,42,60,0
399.12366,399.25333,41,66,0
399.25333,399.38452,42,58,0
399.38452,399.51767,40,64,0
399.51767,399.6524,41,55,0
399.6524,400.75333,42,64,0
400.75333,401.31937,41,49,0
401.31937,401.9076,37,39,0
401.9076,402.95197,46,39,0
401.9076,402.95197,41,32,0
401.9076,402.95197,34,32,0
402.95197,404.02704,49,34,0
402.95197,404.02704,42,34,0
402.95197,404.02704,37,28,0
404.02704,405.0943,46,39,0
404.02704,405.0943,41,32,0
404.02704,405.0943,34,32,0
405.0943,406.13867,49,31,0
405.0943,406.13867,42,31,0
405.0943,406.13867,37,25,0
406.13867,407.18304,46,39,0
406.13867,407.18304,41,32,0
406.13867,407.18304,34,32,0
407.18304,408.24255,49,34,0
407.18304,408.24255,42,28,0
407.18304,408.24255,37,28,0
408.24255,409.31766,46,39,0
408.24255,409.31766,41,32,0
408.24255,409.31766,34,32,0
409.31766,410.12396,45,73,0
409.31766,410.12396,33,57,0
410.12396,410.39273,44,73,0
410.12396,410.39273,32,57,0
410.39273,411.4678,37,76,0
410.39273,411.4678,25,60,0
411.4678,412.2741,61,77,0
411.4678,412.2741,56,64,0
411.4678,412.2741,49,64,0
412.2741,412.54288,63,77,0
412.54288,413.34918,65,81,0
412.54288,413.34918,56,68,0
412.54288,413.34918,49,68,0
413.34918,413.61795,66,81,0
413.61795,414.44363,68,86,0
413.61795,414.44363,56,73,0
413.61795,414.44363,63,73,0
414.44363,414.71887,65,85,0
414.71887,415.79028,44,92,0
414.71887,415.79028,32,78,0
415.79028,416.59387,72,81,0
415.79028,416.59387,66,69,0
415.79028,416.59387,63,69,0
416.59387,416.83493,70,76,0
416.59387,416.83493,66,64,0
416.59387,416.83493,61,64,0
416.86172,417.66528,70,75,0
416.86172,417.66528,66,63,0
416.86172,417.66528,61,63,0
417.66528,417.90637,68,70,0
417.66528,417.90637,66,59,0
417.66528,417.90637,60,59,0
417.93314,418.73672,68,68,0
417.93314,418.73672,66,58,0
417.93314,418.73672,60,58,0
418.73672,419.03085,63,74,0
418.73672,419.03085,60,63,0
418.73672,419.03085,57,63,0
419.03085,420.10226,46,75,0
419.03085,420.10226,34,63,0
420.10226,421.1737,61,75,0
420.10226,421.1737,58,63,0
420.10226,421.1737,53,63,0
421.1737,422.24512,49,80,0
421.1737,422.24512,37,68,0
422.24512,423.44366,53,64,0
422.24512,423.44366,65,76,0
422.24512,423.44366,61,64,0
422.24512,423.44366,58,64,0
423.44366,424.5446,41,92,0
423.44366,424.5446,29,77,0
424.5446,425.6455,67,81,0
424.5446,425.6455,53,69,0
424.5446,425.6455,58,69,0
424.5446,425.6455,61,69,0
425.6455,426.74643,69,75,0
425.6455,426.74643,53,64,0
425.6455,426.74643,57,64,0
425.6455,426.74643,60,64,0
426.74643,427.48715,53,81,0
427.48715,427.58832,43,61,0
427.58832,427.69302,44,61,0
427.69302,427.80176,46,61,0
427.80176,427.9059,44,61,0
427.9059,428.00986,46,56,0
428.00986,428.11276,44,64,0
428.11276,428.21463,46,57,0
428.21463,428.3155,44,66,0
428.3155,428.41534,46,59,0
428.41534,428.51422,44,68,0
428.51422,428.61212,46,61,0
428.61212,428.709,44,70,0
428.709,428.805,46,65,0
428.805,428.90005,44,73,0
428.90005,428.99426,46,66,0
428.99426,429.088,44,72,0
429.0901,429.1844,46,63,0
429.18228,429.27744,44,69,0
429.27744,429.37567,46,60,0
429.3735,429.5032,44,66,0
429.5032,429.6344,46,58,0
429.6344,429.76752,43,64,0
429.76752,429.90225,44,55,0
429.90225,431.00317,49,68,0
431.00317,431.75317,49,68,0
431.75317,431.85574,40,61,0
431.85574,431.96158,41,61,0
431.96158,432.071,42,61,0
432.071,432.1752,41,61,0
432.1752,432.27914,42,56,0
432.27914,432.38205,41,64,0
432.38205,432.48392,42,57,0
432.48392,432.58475,41,66,0
432.58475,432.6846,42,59,0
432.6846,432.78348,41,68,0
432.78348,432.8814,42,61,0
432.8814,432.9783,41,70,0
432.9783,433.07428,42,65,0
433.07428,433.16934,41,73,0
433.16934,433.26352,42,66,0
433.26352,433.35727,41,72,0
433.35938,433.45364,42,63,0
433.45157,433.54672,41,69,0
433.54672,433.64493,42,60,0
433.6428,433.77246,41,66,0
433.77246,433.90366,42,58,0
433.90366,434.0368,40,64,0
434.0368,434.17154,41,55,0
434.17154,435.27246,42,64,0
435.27246,435.8385,41,47,0
435.8385,436.42673,37,39,0
436.42673,437.48605,46,39,0
436.42673,437.48605,41,32,0
436.42673,437.48605,34,32,0
437.48605,438.57657,49,34,0
437.48605,438.57657,42,34,0
437.48605,438.57657,37,28,0
438.57657,439.659,46,39,0
438.57657,439.659,41,32,0
438.57657,439.659,34,32,0
439.659,440.81506,49,26,0
439.659,440.81506,42,26,0
439.659,440.81506,37,21,0
440.81506,442.07904,46,31,0
440.81506,442.07904,41,26,0
440.81506,442.07904,34,26,0
442.07904,443.64374,49,27,0
442.07904,443.66553,42,22,0
442.07904,443.66553,37,22,0
443.66553,446.8655,41,24,0
443.66553,446.8655,34,20,0
