start_time,end_time,note_value,velocity,instrument_program_number
1.0,1.75,78,55,0
1.75,2.0,83,50,0
2.0,2.0691245,79,50,0
2.0691245,2.1382487,81,50,0
2.1382487,2.507101,79,57,0
2.507101,2.746145,78,53,0
2.746145,2.996145,76,50,0
2.996145,3.2484179,78,55,0
3.2484179,4.498418,71,50,0
4.498418,4.748418,73,58,0
4.748418,4.998418,76,50,0
4.998418,5.0685115,74,50,0
5.0685115,5.1386046,76,50,0
5.1386046,5.5044584,74,57,0
5.5044584,5.9935026,73,53,0
5.9935026,6.245775,74,55,0
6.245775,7.4875784,71,50,0
7.4875784,7.7375784,73,58,0
7.7375784,7.9875784,71,50,0
7.9875784,8.060749,69,46,0
8.060749,8.13392,71,47,0
8.13392,8.5012665,69,55,0
8.5012665,8.990311,68,53,0
8.990311,9.242583,69,55,0
9.242583,9.742583,73,50,0
9.992583,10.712584,61,68,0
10.712584,10.960789,59,60,0
10.960789,11.019612,57,57,0
11.019612,11.078436,59,57,0
11.078436,11.431377,57,68,0
11.431377,11.917207,56,67,0
11.917207,12.380527,57,71,0
12.380527,13.323849,61,67,0
13.323849,13.79551,59,71,0
13.79551,14.257546,57,68,0
14.257546,14.729207,61,68,0
14.729207,14.795637,59,63,0
14.795637,14.862068,61,63,0
14.862068,14.974009,59,73,0
14.974009,15.19509,57,66,0
15.197888,15.66955,61,72,0
15.66955,16.14121,61,68,0
16.14121,16.20733,59,61,0
16.20733,16.27345,61,61,0
16.27345,16.610529,59,72,0
16.610529,17.072565,58,72,0
17.072565,17.544226,61,68,0
17.544226,17.610346,59,62,0
17.610346,17.676466,61,63,0
17.676466,17.79104,59,73,0
17.79104,18.020187,58,66,0
18.020187,18.49185,66,72,0
18.49185,19.24185,78,58,0
19.24185,19.49185,83,50,0
19.49185,19.560974,79,50,0
19.560974,19.630098,81,50,0
19.630098,19.99895,79,57,0
19.99895,20.237993,78,53,0
20.237993,20.487993,76,50,0
20.487993,20.740267,78,55,0
20.740267,21.990267,71,50,0
21.990267,22.240267,73,58,0
22.240267,22.490267,76,50,0
22.490267,22.56036,74,50,0
22.56036,22.630453,76,50,0
22.630453,22.996307,74,57,0
22.996307,23.485352,73,53,0
23.485352,23.737625,74,55,0
23.737625,24.487625,71,50,0
24.487625,25.196285,50,66,0
25.196285,25.432507,55,58,0
25.432507,25.57691,52,65,0
25.57691,25.721315,53,57,0
25.721315,25.865719,52,55,0
25.865719,26.10194,50,63,0
26.10194,26.33816,48,57,0
26.33816,26.695303,50,64,0
26.695303,26.81435,43,55,0
26.81435,27.29054,50,64,0
27.29054,27.766731,48,59,0
27.766731,28.00295,50,66,0
28.00295,28.239172,55,58,0
28.239172,28.383575,52,65,0
28.383575,28.52798,53,57,0
28.52798,28.672384,52,55,0
28.672384,28.908606,50,63,0
28.908606,29.144825,48,57,0
29.144825,29.501968,50,64,0
29.501968,29.621016,43,54,0
29.621016,30.097206,50,62,0
30.097206,30.573395,48,56,0
30.573395,30.913017,50,60,0
30.913017,31.026226,43,51,0
31.026226,31.51403,48,58,0
31.51403,31.864225,50,57,0
31.864225,31.980957,43,48,0
31.980957,32.474785,48,56,0
32.474785,32.827724,50,55,0
32.827724,32.94537,43,46,0
32.94537,33.447464,48,53,0
33.447464,34.95374,43,52,0
34.95374,36.460014,42,48,0
36.460014,36.710014,78,55,0
36.710014,36.960014,83,50,0
36.960014,37.02914,79,50,0
37.02914,37.098263,81,50,0
37.098263,37.467117,79,57,0
37.467117,37.70616,78,53,0
37.70616,37.95616,76,50,0
37.95616,38.208435,78,55,0
38.208435,39.458435,71,50,0
39.458435,39.708435,73,58,0
39.708435,39.958435,76,50,0
39.958435,40.028526,74,50,0
40.028526,40.09862,76,50,0
40.09862,40.464474,74,57,0
40.464474,40.953518,73,53,0
40.953518,41.20579,74,55,0
41.20579,42.443443,71,50,0
42.443443,42.693443,73,58,0
42.693443,42.943443,71,50,0
42.943443,43.016617,69,46,0
43.016617,43.089787,71,47,0
43.089787,43.457134,69,55,0
43.457134,43.94618,68,53,0
43.94618,44.198452,69,55,0
44.198452,44.698452,73,50,0
44.948452,45.67134,61,68,0
45.67134,45.919483,59,60,0
45.919483,45.977623,57,57,0
45.977623,46.035763,59,57,0
46.035763,46.384598,57,68,0
46.384598,46.87043,56,67,0
46.87043,47.335545,57,71,0
47.335545,48.280575,61,67,0
48.280575,48.75309,59,71,0
48.75309,49.215984,57,68,0
49.215984,49.6885,61,68,0
49.6885,49.75505,59,63,0
49.75505,49.821606,61,63,0
49.821606,49.933964,59,73,0
49.933964,50.154938,57,66,0
50.158684,50.6312,61,72,0
50.6312,51.103714,61,68,0
51.103714,51.169956,59,61,0
51.169956,51.2362,61,61,0
51.2362,51.57202,59,72,0
51.57202,52.034912,58,72,0
52.034912,52.507427,61,68,0
52.507427,52.57367,59,62,0
52.57367,52.63991,61,63,0
52.63991,52.754696,59,73,0
52.754696,52.984264,58,66,0
52.984264,53.45678,66,72,0
53.45678,54.20678,78,58,0
54.20678,54.45678,83,50,0
54.45678,54.525906,79,50,0
54.525906,54.59503,81,50,0
54.59503,54.963882,79,57,0
54.963882,55.202927,78,53,0
55.202927,55.452927,76,50,0
55.452927,55.7052,78,55,0
55.7052,56.943005,71,50,0
56.943005,57.193005,73,58,0
57.193005,57.443005,76,50,0
57.443005,57.513096,74,50,0
57.513096,57.58319,76,50,0
57.58319,57.949043,74,57,0
57.949043,58.438087,73,53,0
58.438087,58.69036,74,55,0
58.69036,59.44036,71,50,0
59.44036,60.149025,50,66,0
60.149025,60.385242,55,58,0
60.385242,60.529648,52,65,0
60.529648,60.674053,53,57,0
60.674053,60.818455,52,55,0
60.818455,61.054676,50,63,0
61.054676,61.290897,48,57,0
61.290897,61.64804,50,64,0
61.64804,61.767086,43,55,0
61.767086,62.24328,50,64,0
62.24328,62.719467,48,59,0
62.719467,62.95569,50,66,0
62.95569,63.19191,55,58,0
63.19191,63.33631,52,65,0
63.33631,63.480717,53,57,0
63.480717,63.625122,52,55,0
63.625122,63.861343,50,63,0
63.861343,64.097565,48,57,0
64.097565,64.454704,50,64,0
64.454704,64.57375,43,54,0
64.57375,65.04994,50,62,0
65.04994,65.52613,48,56,0
65.52613,65.86575,50,60,0
65.86575,65.978966,43,51,0
65.978966,66.46677,48,58,0
66.46677,66.81696,50,57,0
66.81696,66.93369,43,48,0
66.93369,67.42752,48,56,0
67.42752,67.780464,50,55,0
67.780464,67.89811,43,46,0
67.89811,68.4002,48,53,0
68.4002,69.90648,43,52,0
69.90648,70.936516,42,60,0
70.936516,71.51904,41,66,0
71.919044,72.2964,74,80,0
71.919044,72.2964,70,68,0
71.919044,72.2964,65,68,0
72.2964,72.67376,75,80,0
72.2964,72.67376,70,68,0
72.2964,72.67376,66,68,0
72.67376,72.76412,78,86,0
72.94484,73.030846,74,61,0
73.030846,73.293236,72,61,0
72.94484,73.293236,77,80,0
73.293236,73.3807,74,61,0
73.293236,73.66917,77,80,0
73.3807,73.76532,70,80,0
73.76532,73.95763,82,85,0
74.14993,74.52729,74,80,0
74.14993,74.52729,70,68,0
74.14993,74.52729,65,68,0
74.52729,74.90465,75,80,0
74.52729,74.90465,70,68,0
74.52729,74.90465,66,68,0
74.90465,74.99501,78,86,0
75.175735,75.261696,74,61,0
75.261696,75.52562,72,61,0
75.175735,75.52562,77,80,0
75.52562,75.6136,74,61,0
75.52562,75.90206,77,80,0
75.6136,75.998215,70,80,0
76.39822,76.77557,74,80,0
76.39822,76.77557,70,68,0
76.39822,76.77557,65,68,0
76.77557,77.15293,75,80,0
76.77557,77.15293,70,68,0
76.77557,77.15293,66,68,0
77.15293,77.24329,78,86,0
77.42401,77.50973,74,61,0
77.50973,77.7706,72,61,0
77.42401,77.7706,77,80,0
77.7706,77.85755,74,61,0
77.7706,78.14602,77,80,0
77.85755,78.24217,70,80,0
78.24217,78.43448,82,80,0
78.24217,78.43448,94,85,0
78.626785,79.00414,74,80,0
78.626785,79.00414,70,68,0
78.626785,79.00414,65,68,0
79.00414,79.3815,75,80,0
79.00414,79.3815,70,68,0
79.00414,79.3815,66,68,0
79.3815,79.47186,78,86,0
79.65259,79.73879,74,61,0
79.73879,80.00118,72,61,0
79.65259,80.00118,77,80,0
80.00118,80.088646,74,61,0
80.00118,80.377106,77,80,0
80.088646,80.47326,70,80,0
80.87326,81.25062,79,80,0
80.87326,81.25062,75,68,0
80.87326,81.25062,70,68,0
81.25062,81.627975,80,80,0
81.25062,81.627975,75,68,0
81.25062,81.627975,71,68,0
81.627975,81.71834,83,88,0
81.89906,81.989426,79,61,0
81.989426,82.25258,77,61,0
81.89906,82.25258,82,88,0
82.25258,82.3403,79,61,0
82.25258,82.62876,82,88,0
82.3403,82.724915,75,80,0
82.724915,82.91722,87,88,0
82.724915,82.91722,99,93,0
83.10953,83.486885,79,80,0
83.10953,83.486885,75,68,0
83.10953,83.486885,70,68,0
83.486885,83.86425,80,80,0
83.486885,83.86425,75,68,0
83.486885,83.86425,71,68,0
83.86425,83.9577,83,87,0
84.14462,84.238075,79,61,0
84.238075,84.5108,77,61,0
84.14462,84.5108,82,88,0
84.5108,84.601715,79,61,0
84.5108,84.890175,82,88,0
85.37094,85.74246,79,80,0
85.37094,85.74246,70,68,0
85.74246,86.127075,80,77,0
85.74246,86.127075,71,65,0
84.601715,86.127075,76,80,0
86.127075,86.50504,79,77,0
86.127075,86.50504,75,65,0
86.50504,86.890594,78,74,0
86.890594,87.28406,77,71,0
86.50504,88.0736,73,62,0
87.28406,88.46502,76,69,0
86.127075,88.46502,70,65,0
89.72702,89.97702,78,55,0
89.97702,90.22702,83,50,0
90.22702,90.29614,79,50,0
90.29614,90.36527,81,50,0
90.36527,90.73412,79,57,0
90.73412,90.97317,78,53,0
90.97317,91.22317,76,50,0
91.22317,91.47544,78,55,0
91.47544,92.6908,71,50,0
92.6908,92.9408,73,58,0
92.9408,93.1908,76,50,0
93.1908,93.260895,74,50,0
93.260895,93.330986,76,50,0
93.330986,93.69684,74,57,0
93.69684,94.18588,73,53,0
94.18588,94.438156,74,55,0
94.438156,95.66775,71,50,0
95.66775,95.91775,73,58,0
95.91775,96.16775,71,50,0
96.16775,96.24092,69,46,0
96.24092,96.314095,71,47,0
96.314095,96.68144,69,55,0
96.68144,97.17048,68,53,0
97.17048,97.42275,69,55,0
97.42275,97.92275,73,50,0
98.17275,98.895645,61,68,0
98.895645,99.14379,59,60,0
99.14379,99.202156,57,57,0
99.202156,99.26052,59,57,0
99.26052,99.61072,57,68,0
99.61072,100.09654,56,67,0
100.09654,100.56166,57,71,0
100.56166,101.507286,61,67,0
101.507286,101.9801,59,71,0
101.9801,102.443275,57,68,0
102.443275,102.91609,61,68,0
102.91609,102.98269,59,63,0
102.98269,103.04928,61,63,0
103.04928,103.160805,59,73,0
103.160805,103.381065,57,66,0
103.38385,103.85667,61,72,0
103.85667,104.32948,61,68,0
104.32948,104.39577,59,61,0
104.39577,104.46204,61,61,0
104.46204,104.79051,59,72,0
104.79051,105.25369,58,72,0
105.25369,105.7265,61,68,0
105.7265,105.792786,59,62,0
105.792786,105.85907,61,63,0
105.85907,105.97392,59,73,0
105.97392,106.203636,58,66,0
106.203636,106.676445,66,72,0
106.676445,107.426445,78,58,0
107.426445,107.676445,83,50,0
107.676445,107.745575,79,50,0
107.745575,107.8147,81,50,0
107.8147,108.18355,79,57,0
108.18355,108.42259,78,53,0
108.42259,108.67259,76,50,0
108.67259,108.924866,78,55,0
108.924866,110.174866,71,50,0
110.174866,110.424866,73,58,0
110.424866,110.674866,76,50,0
110.674866,110.74496,74,50,0
110.74496,110.815056,76,50,0
110.815056,111.18091,74,57,0
111.18091,111.66995,73,53,0
111.66995,111.922226,74,55,0
111.922226,112.66202,71,50,0
112.66202,113.37068,50,66,0
113.37068,113.6069,55,58,0
113.6069,113.751305,52,65,0
113.751305,113.89571,53,57,0
113.89571,114.040115,52,55,0
114.040115,114.27634,50,63,0
114.27634,114.51256,48,57,0
114.51256,114.8697,50,64,0
114.8697,114.98875,43,55,0
114.98875,115.464935,50,64,0
115.464935,115.941124,48,59,0
115.941124,116.177345,50,66,0
116.177345,116.41357,55,58,0
116.41357,116.55797,52,65,0
116.55797,116.70238,53,57,0
116.70238,116.84678,52,55,0
116.84678,117.083,50,63,0
117.083,117.31922,48,57,0
117.31922,117.67636,50,64,0
117.67636,117.79541,43,54,0
117.79541,118.2716,50,62,0
118.2716,118.74779,48,56,0
118.74779,119.08741,50,60,0
119.08741,119.20062,43,51,0
119.20062,119.68842,48,58,0
119.68842,120.03862,50,57,0
120.03862,120.15535,43,48,0
120.15535,120.64918,48,56,0
120.64918,121.00212,50,55,0
121.00212,121.11977,43,46,0
121.11977,121.62186,48,53,0
121.62186,123.128136,43,52,0
123.128136,124.63441,42,48,0
124.63441,124.88441,78,55,0
124.88441,125.13441,83,50,0
125.13441,125.20354,79,50,0
125.20354,125.27266,81,50,0
125.27266,125.64151,79,57,0
125.64151,125.880554,78,53,0
125.880554,126.130554,76,50,0
126.130554,126.38283,78,55,0
126.38283,127.63283,71,50,0
127.63283,127.88283,73,58,0
127.88283,128.13283,76,50,0
128.13283,128.20293,74,50,0
128.20293,128.27301,76,50,0
128.27301,128.63887,74,57,0
128.63887,129.12791,73,53,0
129.12791,129.38019,74,55,0
129.38019,130.63019,71,50,0
130.63019,130.88019,73,58,0
130.88019,131.13019,71,50,0
131.13019,131.20335,69,46,0
131.20335,131.27654,71,47,0
131.27654,131.64388,69,55,0
131.64388,132.13292,68,53,0
132.13292,132.3852,69,55,0
132.3852,132.8852,73,50,0
133.1352,133.861,61,68,0
133.861,134.10909,59,60,0
134.10909,134.16814,57,57,0
134.16814,134.22719,59,57,0
134.22719,134.58153,57,68,0
134.58153,135.06345,56,67,0
135.06345,135.52678,57,71,0
135.52678,136.47217,61,67,0
136.47217,136.94487,59,71,0
136.94487,137.40794,57,68,0
137.40794,137.88065,61,68,0
137.88065,137.94722,59,63,0
137.94722,138.01381,61,63,0
138.01381,138.12172,59,73,0
138.12172,138.33754,57,66,0
138.33754,138.81024,61,72,0
138.81024,139.28294,61,68,0
139.28294,139.34921,59,61,0
139.34921,139.41548,61,61,0
139.41548,139.74515,59,72,0
139.74515,140.20242,58,72,0
140.20822,140.68092,61,68,0
140.68092,140.7472,59,62,0
140.7472,140.81345,61,63,0
140.81345,140.92828,59,73,0
140.92828,141.15794,58,66,0
141.15794,141.63063,66,72,0
141.63063,142.38063,78,58,0
142.38063,142.63063,83,50,0
142.63063,142.69977,79,50,0
142.69977,142.76889,81,50,0
142.76889,143.13774,79,57,0
143.13774,143.37679,78,53,0
143.37679,143.62679,76,50,0
143.62679,143.87906,78,55,0
143.87906,145.10864,71,50,0
145.10864,145.35864,73,58,0
145.35864,145.60864,76,50,0
145.60864,145.67874,74,50,0
145.67874,145.74884,76,50,0
145.74884,146.11469,74,57,0
146.11469,146.60373,73,53,0
146.60373,146.856,74,55,0
146.856,147.5958,71,50,0
147.5958,148.30446,50,66,0
148.30446,148.54068,55,58,0
148.54068,148.68509,52,65,0
148.68509,148.8295,53,57,0
148.8295,148.97389,52,55,0
148.97389,149.21011,50,63,0
149.21011,149.44633,48,57,0
149.44633,149.80348,50,64,0
149.80348,149.92253,43,55,0
149.92253,150.39871,50,64,0
150.39871,150.87491,48,59,0
150.87491,151.11113,50,66,0
151.11113,151.34735,55,58,0
151.34735,151.49174,52,65,0
151.49174,151.63615,53,57,0
151.63615,151.78056,52,55,0
151.78056,152.01678,50,63,0
152.01678,152.253,48,57,0
152.253,152.61014,50,64,0
152.61014,152.72919,43,54,0
152.72919,153.20538,50,62,0
153.20538,153.68158,48,56,0
153.68158,154.0212,50,60,0
154.0212,154.1344,43,51,0
154.1344,154.62221,48,58,0
154.62221,154.9724,50,57,0
154.9724,155.08913,43,48,0
155.08913,155.58296,48,56,0
155.58296,155.9359,50,55,0
155.9359,156.05354,43,46,0
156.05354,156.55563,48,53,0
156.55563,158.06192,43,52,0
158.06192,159.09196,42,60,0
159.09196,159.67448,41,66,0
160.07448,160.45184,74,80,0
160.07448,160.45184,70,68,0
160.07448,160.45184,65,68,0
160.45184,160.8292,75,80,0
160.45184,160.8292,70,68,0
160.45184,160.8292,66,68,0
160.8292,160.91956,78,86,0
161.10028,161.18665,74,61,0
161.18665,161.44904,72,61,0
161.10028,161.44904,77,80,0
161.44904,161.5365,74,61,0
161.44904,161.82497,77,80,0
161.5365,161.92111,70,80,0
161.92111,162.11342,82,85,0
162.30573,162.68309,74,80,0
162.30573,162.68309,70,68,0
162.30573,162.68309,65,68,0
162.68309,163.06044,75,80,0
162.68309,163.06044,70,68,0
162.68309,163.06044,66,68,0
163.06044,163.1508,78,86,0
163.33153,163.41751,74,61,0
163.41751,163.68144,72,61,0
163.33153,163.68144,77,80,0
163.68144,163.76942,74,61,0
163.68144,164.05789,77,80,0
163.76942,164.15404,70,80,0
164.55405,164.9314,74,80,0
164.55405,164.9314,70,68,0
164.55405,164.9314,65,68,0
164.9314,165.30876,75,80,0
164.9314,165.30876,70,68,0
164.9314,165.30876,66,68,0
165.30876,165.39912,78,86,0
165.57983,165.66388,74,61,0
165.66388,165.92474,72,61,0
165.57983,165.92474,77,80,0
165.92474,166.0117,74,61,0
165.92474,166.30016,77,80,0
166.0117,166.39632,70,80,0
166.39632,166.58862,82,80,0
166.39632,166.58862,94,85,0
166.78093,167.1583,74,80,0
166.78093,167.1583,70,68,0
166.78093,167.1583,65,68,0
167.1583,167.53564,75,80,0
167.1583,167.53564,70,68,0
167.1583,167.53564,66,68,0
167.53564,167.626,78,86,0
167.80673,167.89124,74,61,0
167.89124,168.15363,72,61,0
167.80673,168.15363,77,80,0
168.15363,168.24109,74,61,0
168.15363,168.52956,77,80,0
168.24109,168.6257,70,80,0
169.02571,169.40306,79,80,0
169.02571,169.40306,75,68,0
169.02571,169.40306,70,68,0
169.40306,169.78043,80,80,0
169.40306,169.78043,75,68,0
169.40306,169.78043,71,68,0
169.78043,169.87079,83,88,0
170.05151,170.14186,79,61,0
170.14186,170.40503,77,61,0
170.05151,170.40503,82,88,0
170.40503,170.49275,79,61,0
170.40503,170.7812,82,88,0
170.49275,170.87737,75,80,0
170.87737,171.06967,87,88,0
170.87737,171.06967,99,93,0
171.26198,171.63933,79,80,0
171.26198,171.63933,75,68,0
171.26198,171.63933,70,68,0
171.63933,172.0167,80,80,0
171.63933,172.0167,75,68,0
171.63933,172.0167,71,68,0
172.0167,172.11015,83,87,0
172.29706,172.39052,79,61,0
172.39052,172.66325,77,61,0
172.29706,172.66325,82,88,0
172.66325,172.75417,79,61,0
172.66325,173.04262,82,88,0
173.52339,173.89491,79,80,0
173.52339,173.89491,70,68,0
173.89491,174.27953,80,77,0
173.89491,174.27953,71,65,0
172.75417,174.27953,76,80,0
174.27953,174.65749,79,77,0
174.27953,174.65749,75,65,0
174.65749,175.04305,78,74,0
175.04305,175.4365,77,71,0
175.4365,176.61845,76,69,0
174.65749,176.61845,73,62,0
174.27953,176.61845,70,65,0
177.86333,178.11024,75,59,0
178.11024,178.35715,76,61,0
178.35715,178.84496,77,63,0
178.84496,179.35344,78,70,0
179.35344,179.73,79,77,0
179.73,179.85553,80,64,0
179.85553,180.6067,76,76,0
180.6067,180.86203,75,67,0
180.86203,181.10997,75,71,0
181.10997,181.17435,73,59,0
181.17435,181.23872,75,60,0
181.23872,181.36269,73,69,0
181.36269,181.85855,72,67,0
181.85855,182.39427,73,70,0
182.39427,183.3924,76,74,0
183.3924,183.90088,75,64,0
183.90088,184.15512,71,58,0
184.15512,184.40935,73,60,0
184.40935,184.90727,74,63,0
184.90727,185.4223,75,68,0
185.4223,185.67981,78,72,0
185.67981,185.93732,76,64,0
185.93732,186.44151,73,70,0
186.44151,186.5091,68,56,0
186.5091,186.57666,70,56,0
186.57666,186.95201,68,64,0
186.95201,187.33994,67,64,0
187.33994,187.46925,68,61,0
187.46925,187.97345,71,64,0
187.97345,188.48846,70,64,0
188.48846,189.52982,67,69,0
189.52982,190.09799,66,64,0
190.09799,190.34491,75,59,0
190.34491,190.59181,76,61,0
190.59181,191.1055,78,63,0
191.1055,191.66106,87,69,0
191.66106,191.91211,85,69,0
191.91211,192.16315,83,64,0
192.16315,192.65903,80,69,0
192.65903,193.16966,76,67,0
193.16966,193.41759,75,71,0
193.41759,193.48196,73,59,0
193.48196,193.54634,75,60,0
193.54634,193.67032,73,69,0
193.67032,194.16618,72,67,0
194.16618,194.70189,73,70,0
194.70189,195.70003,76,71,0
195.70003,196.2435,75,64,0
196.2435,196.9988,75,77,0
196.9988,197.06104,75,64,0
197.06104,197.12328,77,64,0
197.12328,197.24776,75,72,0
197.24776,197.50526,73,74,0
197.50526,197.76279,71,71,0
197.76279,198.0203,70,79,0
198.0203,198.2778,75,73,0
198.2778,198.782,78,80,0
198.782,199.29594,83,79,0
199.29594,199.55457,82,81,0
199.55457,199.81319,77,70,0
199.81319,200.57489,80,80,0
200.57489,200.83241,78,77,0
200.83241,201.34743,75,81,0
201.34743,201.63152,66,80,0
201.63152,201.90302,78,79,0
201.90302,202.17673,77,78,0
202.17673,202.46971,76,70,0
202.46971,202.71661,75,67,0
202.71661,202.96353,76,70,0
202.96353,203.45134,77,72,0
203.45134,203.95981,78,75,0
203.95981,204.33638,79,75,0
204.33638,204.4619,80,64,0
204.4619,205.21309,76,69,0
205.21309,205.46841,75,67,0
205.46841,205.71634,75,71,0
205.71634,205.78072,73,59,0
205.78072,205.8451,75,60,0
205.8451,205.96907,73,69,0
205.96907,206.46494,72,67,0
206.46494,207.01991,73,70,0
207.01991,208.01804,76,73,0
208.01804,208.52652,75,64,0
208.52652,208.78076,71,58,0
208.78076,209.03499,73,60,0
209.03499,209.53291,74,63,0
209.53291,210.04794,75,67,0
210.04794,210.30545,78,69,0
210.30545,210.56296,76,64,0
210.56296,211.06717,73,70,0
211.06717,211.13474,68,56,0
211.13474,211.2023,70,56,0
211.2023,211.57765,68,64,0
211.57765,211.96558,67,64,0
211.96558,212.0949,68,61,0
212.0949,212.59909,71,64,0
212.59909,213.1141,70,64,0
213.1141,214.1573,67,69,0
214.1573,214.70474,66,64,0
214.70474,214.95166,75,59,0
214.95166,215.19858,76,61,0
215.19858,215.70656,78,63,0
215.70656,216.26212,87,69,0
216.26212,216.51317,85,69,0
216.51317,216.7642,83,64,0
216.7642,217.26007,80,69,0
217.26007,217.77072,76,67,0
217.77072,218.01865,75,71,0
218.01865,218.08302,73,59,0
218.08302,218.1474,75,60,0
218.1474,218.27138,73,69,0
218.27138,218.76724,72,67,0
218.76724,219.30681,73,70,0
219.30681,220.30495,76,71,0
220.30495,220.82896,75,64,0
220.82896,221.58424,75,67,0
221.58424,221.64648,75,56,0
221.64648,221.70872,77,56,0
221.70872,221.8332,75,63,0
221.8332,222.09073,73,65,0
222.09073,222.34824,71,62,0
222.34824,222.60574,70,69,0
222.60574,222.86325,75,64,0
222.86325,223.36746,78,70,0
223.36746,223.8814,83,69,0
223.8814,224.14001,82,71,0
224.14001,224.39864,77,61,0
224.39864,225.16035,80,70,0
225.16035,225.41786,78,67,0
225.41786,226.46753,75,71,0
226.46753,226.9514,78,75,0
226.9514,227.26498,80,69,0
226.9514,227.26498,92,82,0
227.26498,227.36368,78,65,0
227.26498,227.36368,90,77,0
227.36368,227.6851,76,64,0
227.36368,227.6851,88,76,0
227.79225,228.2133,70,75,0
227.79225,228.2133,64,63,0
228.2133,228.41948,71,76,0
228.2133,228.41948,63,64,0
228.52258,228.62192,73,73,0
228.52258,228.62192,66,62,0
228.62192,229.03429,75,81,0
228.62192,229.03429,71,68,0
229.03429,229.45534,90,77,0
229.03429,229.45534,78,65,0
229.45534,229.76462,80,69,0
229.45534,229.76462,92,82,0
229.76462,229.8633,78,65,0
229.76462,229.8633,90,77,0
229.8633,230.17258,76,64,0
229.8633,230.17258,88,76,0
230.27567,230.69821,70,75,0
230.27567,230.69821,64,63,0
230.69821,230.90439,71,76,0
230.69821,230.90439,63,64,0
231.00749,231.10683,73,73,0
231.00749,231.10683,66,62,0
231.10683,231.54004,75,81,0
231.10683,231.54004,71,68,0
231.54004,231.96257,78,77,0
231.54004,231.96257,75,65,0
231.96257,232.06602,88,81,0
231.96257,232.06602,85,69,0
232.27292,232.36815,82,73,0
232.27292,232.36815,78,62,0
232.36815,232.67221,80,73,0
232.36815,232.67221,76,66,0
232.67221,232.7696,82,73,0
232.67221,232.7696,78,62,0
232.7696,233.19666,80,77,0
232.7696,233.19666,76,65,0
233.19666,233.30046,87,81,0
233.19666,233.30046,83,69,0
233.50807,233.60362,80,73,0
233.50807,233.60362,76,62,0
233.60362,233.90974,78,73,0
233.60362,233.90974,75,66,0
233.90974,234.00746,80,73,0
233.90974,234.00746,76,62,0
234.00746,234.43149,78,77,0
234.00746,234.43149,75,65,0
234.43149,234.53494,85,81,0
234.43149,234.53494,82,69,0
234.74184,234.84117,78,73,0
234.74184,234.84117,75,62,0
234.84117,235.15695,76,73,0
234.84117,235.15695,73,66,0
235.15695,235.25696,78,73,0
235.15695,235.25696,75,62,0
235.25696,235.72571,76,77,0
235.25696,235.72571,73,65,0
235.72571,235.83978,75,69,0
235.72571,235.83978,71,58,0
236.06792,236.1995,76,62,0
236.06792,236.1995,73,52,0
236.1995,236.6873,80,67,0
236.1995,236.6873,74,56,0
236.6873,237.17511,78,59,0
236.6873,237.17511,75,50,0
237.17511,237.4887,80,69,0
237.17511,237.4887,92,82,0
237.4887,237.58737,78,65,0
237.4887,237.58737,90,77,0
237.58737,237.9088,76,64,0
237.58737,237.9088,88,76,0
238.01595,238.437,70,75,0
238.01595,238.437,64,63,0
238.437,238.64319,71,76,0
238.437,238.64319,63,64,0
238.74628,238.84561,73,73,0
238.74628,238.84561,66,62,0
238.84561,239.27727,75,81,0
238.84561,239.27727,71,68,0
239.27727,239.69832,90,77,0
239.27727,239.69832,78,65,0
239.69832,240.0076,80,69,0
239.69832,240.0076,92,82,0
240.0076,240.1063,78,65,0
240.0076,240.1063,90,77,0
240.1063,240.41663,76,64,0
240.1063,240.41663,88,76,0
240.52008,240.94261,70,75,0
240.52008,240.94261,64,63,0
240.94261,241.1488,71,76,0
240.94261,241.1488,63,64,0
241.25189,241.35123,73,73,0
241.25189,241.35123,66,62,0
241.35123,241.78444,75,81,0
241.35123,241.78444,71,68,0
241.78444,242.20699,78,77,0
241.78444,242.20699,75,65,0
242.20699,242.31042,88,81,0
242.20699,242.31042,85,69,0
242.51732,242.61256,82,73,0
242.51732,242.61256,78,62,0
242.61256,242.91661,80,73,0
242.61256,242.91661,76,66,0
242.91661,243.01402,82,73,0
242.91661,243.01402,78,62,0
243.01402,243.44107,80,77,0
243.01402,243.44107,76,65,0
243.44107,243.54488,87,81,0
243.44107,243.54488,83,69,0
243.75249,243.84802,80,73,0
243.75249,243.84802,76,62,0
243.84802,244.15414,78,73,0
243.84802,244.15414,75,66,0
244.15414,244.25186,80,73,0
244.15414,244.25186,76,62,0
244.25186,244.67589,78,77,0
244.25186,244.67589,75,65,0
244.67589,244.77934,85,81,0
244.67589,244.77934,82,69,0
244.98624,245.08557,78,73,0
244.98624,245.08557,75,62,0
245.08557,245.40137,76,73,0
245.08557,245.40137,73,66,0
245.40137,245.50137,78,73,0
245.40137,245.50137,75,62,0
245.50137,245.93932,76,77,0
245.50137,245.93932,73,65,0
268.24945,268.50156,78,46,0
268.50156,268.75366,83,42,0
268.75366,268.82278,79,42,0
268.82278,268.8919,81,42,0
268.8919,269.26077,79,48,0
269.26077,269.49982,78,45,0
269.49982,269.74982,76,42,0
269.74982,270.00208,78,46,0
270.00208,271.25208,71,42,0
271.25208,271.50208,73,49,0
271.50208,271.75208,76,42,0
271.75208,271.82217,74,42,0
271.82217,271.89227,76,42,0
271.89227,272.25812,74,48,0
272.25812,272.74716,73,45,0
272.74716,272.99945,74,46,0
272.99945,274.24945,71,42,0
274.24945,274.49945,73,55,0
274.49945,274.74945,71,47,0
274.74945,274.8226,69,43,0
274.8226,274.89578,71,44,0
274.89578,275.26312,69,52,0
275.26312,275.75217,68,50,0
275.75217,276.00446,69,52,0
276.00446,276.50446,73,47,0
276.75446,277.47733,61,68,0
277.47733,277.72495,59,60,0
277.72495,277.78354,57,57,0
277.78354,277.84213,59,57,0
277.84213,278.1937,57,68,0
278.1937,278.6855,56,67,0
278.6855,279.14703,57,71,0
279.14703,280.09326,61,67,0
280.09326,280.55576,59,71,0
280.55576,281.00143,57,68,0
281.0052,281.4721,61,68,0
281.4721,281.53876,59,63,0
281.53876,281.60538,61,63,0
281.60538,281.71643,59,73,0
281.71643,281.9346,57,66,0
281.9346,282.4077,61,72,0
282.4077,282.88083,61,68,0
282.88083,282.94714,59,61,0
282.94714,283.0135,61,61,0
283.0135,283.3415,59,72,0
283.3415,283.8001,58,72,0
283.80496,284.27805,61,68,0
284.27805,284.3444,59,62,0
284.3444,284.4107,61,63,0
284.4107,284.52563,59,73,0
284.52563,284.7555,58,66,0
284.7555,285.2286,66,72,0
285.2286,285.9786,78,58,0
285.9786,286.2286,83,50,0
286.2286,286.29773,79,50,0
286.29773,286.36685,81,50,0
286.36685,286.7357,79,57,0
286.7357,286.97473,78,53,0
286.97473,287.22473,76,50,0
287.22473,287.47702,78,55,0
287.47702,288.7051,71,50,0
288.7051,288.9551,73,58,0
288.9551,289.2051,76,50,0
289.2051,289.2752,74,50,0
289.2752,289.34528,76,50,0
289.34528,289.71115,74,57,0
289.71115,290.2002,73,53,0
290.2002,290.45245,74,55,0
290.45245,291.18634,71,50,0
291.18634,291.895,50,66,0
291.895,292.13123,55,58,0
292.13123,292.2756,52,65,0
292.2756,292.42,53,57,0
292.42,292.56442,52,55,0
292.56442,292.80066,50,63,0
292.80066,293.03687,48,57,0
293.03687,293.394,50,64,0
293.394,293.51306,43,55,0
293.51306,293.98926,50,64,0
293.98926,294.45258,48,59,0
294.45258,294.68423,50,66,0
294.68423,294.915,55,58,0
294.915,295.05942,52,65,0
295.05942,295.20383,53,57,0
295.20383,295.34824,52,55,0
295.34824,295.58444,50,63,0
295.58444,295.82068,48,57,0
295.82068,296.1778,50,64,0
296.1778,296.29684,43,54,0
296.29684,296.77304,50,62,0
296.77304,297.24924,48,56,0
297.24924,297.58887,50,60,0
297.58887,297.70206,43,51,0
297.70206,298.18988,48,58,0
298.18988,298.54007,50,57,0
298.54007,298.6568,43,48,0
298.6568,299.15063,48,56,0
299.15063,299.50357,50,55,0
299.50357,299.62122,43,46,0
299.62122,300.1233,48,53,0
300.1233,300.49066,50,54,0
300.49066,300.6131,43,45,0
300.6131,301.1029,50,51,0
301.1029,301.61353,48,45,0
301.61353,301.98697,50,50,0
301.98697,302.11145,43,41,0
302.11145,302.62427,50,46,0
302.62427,303.15524,48,41,0
312.5955,313.08932,67,54,0
313.08932,313.75354,60,59,0
313.75354,313.99744,59,52,0
313.99744,314.35037,61,59,0
313.99744,314.35037,58,59,0
313.99744,314.35037,52,50,0
314.46802,314.97433,61,58,0
314.35037,314.97433,54,45,0
314.46802,314.97433,52,49,0
314.46802,314.97433,58,58,0
314.97433,315.5626,59,56,0
314.97433,315.5626,54,47,0
314.97433,315.5626,50,47,0
1.5,2.0,47,50,0
2.0,2.507101,55,34,0
2.0,2.507101,59,34,0
2.0,2.507101,64,40,0
2.507101,2.996145,55,33,0
2.507101,2.996145,59,33,0
2.507101,2.996145,64,39,0
2.996145,3.4984179,47,50,0
3.4984179,3.9984179,54,26,0
3.4984179,3.9984179,59,26,0
3.4984179,3.9984179,62,31,0
3.9984179,4.498418,54,26,0
3.9984179,4.498418,59,26,0
3.9984179,4.498418,62,31,0
4.498418,4.998418,47,50,0
4.998418,5.5044584,54,34,0
4.998418,5.5044584,58,34,0
4.998418,5.5044584,64,40,0
5.5044584,5.9935026,54,33,0
5.5044584,5.9935026,58,33,0
5.5044584,5.9935026,64,39,0
5.9935026,6.495775,47,50,0
6.495775,6.9875784,54,26,0
6.495775,6.9875784,59,26,0
6.495775,6.9875784,62,31,0
6.9875784,7.4875784,54,26,0
6.9875784,7.4875784,59,26,0
6.9875784,7.4875784,62,31,0
7.4875784,7.9875784,37,50,0
7.9875784,8.5012665,49,34,0
7.9875784,8.5012665,53,34,0
7.9875784,8.5012665,59,40,0
8.5012665,8.990311,49,33,0
8.5012665,8.990311,53,33,0
8.5012665,8.990311,59,39,0
8.990311,9.492583,42,50,0
9.492583,9.992583,49,31,0
9.492583,9.992583,57,37,0
13.323849,13.79551,56,58,0
13.79551,14.257546,54,55,0
14.257546,14.729207,57,55,0
13.323849,14.729207,49,47,0
14.729207,14.974009,56,57,0
14.974009,15.197888,54,51,0
15.197888,15.66955,57,56,0
15.66955,16.14121,57,54,0
14.729207,16.14121,49,47,0
16.14121,16.610529,56,57,0
16.610529,17.072565,54,56,0
17.072565,17.544226,58,54,0
16.14121,17.544226,49,47,0
17.544226,17.79104,56,57,0
17.544226,18.020187,49,47,0
17.79104,18.49185,54,51,0
18.020187,18.99185,42,47,0
18.99185,19.49185,47,50,0
19.49185,19.99895,55,34,0
19.49185,19.99895,59,34,0
19.49185,19.99895,64,40,0
19.99895,20.487993,55,33,0
19.99895,20.487993,59,33,0
19.99895,20.487993,64,39,0
20.487993,20.990267,47,50,0
20.990267,21.490267,54,26,0
20.990267,21.490267,59,26,0
20.990267,21.490267,62,31,0
21.490267,21.990267,54,26,0
21.490267,21.990267,59,26,0
21.490267,21.990267,62,31,0
21.990267,22.490267,47,50,0
22.490267,22.996307,54,34,0
22.490267,22.996307,58,34,0
22.490267,22.996307,64,40,0
22.996307,23.485352,54,33,0
22.996307,23.485352,58,33,0
22.996307,23.485352,64,39,0
23.485352,23.987625,47,50,0
23.987625,24.487625,54,26,0
23.987625,24.487625,59,26,0
23.987625,24.487625,62,31,0
24.960066,25.432507,65,43,0
24.960066,25.432507,59,38,0
25.432507,25.865719,64,38,0
25.432507,25.865719,60,34,0
25.865719,26.33816,64,38,0
25.865719,26.33816,60,34,0
26.33816,26.81435,65,46,0
26.33816,26.81435,59,41,0
26.33816,26.81435,55,41,0
26.81435,27.29054,65,38,0
26.81435,27.29054,59,34,0
26.81435,27.29054,55,34,0
27.29054,27.766731,64,38,0
27.29054,27.766731,60,34,0
27.766731,28.239172,65,43,0
27.766731,28.239172,59,38,0
28.239172,28.672384,64,38,0
28.239172,28.672384,60,34,0
28.672384,29.144825,64,38,0
28.672384,29.144825,60,34,0
29.144825,29.621016,65,46,0
29.144825,29.621016,59,41,0
29.144825,29.621016,55,41,0
29.621016,30.097206,65,37,0
29.621016,30.097206,59,33,0
29.621016,30.097206,55,33,0
30.097206,30.573395,64,36,0
30.097206,30.573395,60,32,0
30.573395,31.026226,65,43,0
30.573395,31.026226,59,38,0
30.573395,31.026226,55,38,0
31.026226,31.51403,64,34,0
31.026226,31.51403,60,31,0
31.51403,31.980957,65,41,0
31.51403,31.980957,59,36,0
31.51403,31.980957,55,36,0
31.980957,32.474785,64,29,0
31.980957,32.474785,60,29,0
32.474785,32.94537,65,39,0
32.474785,32.94537,59,35,0
32.474785,32.94537,55,35,0
32.94537,33.447464,64,31,0
32.94537,33.447464,60,28,0
33.447464,34.95374,55,52,0
34.95374,36.460014,54,48,0
36.460014,36.960014,47,50,0
36.460014,36.960014,35,46,0
36.960014,37.467117,55,34,0
36.960014,37.467117,59,34,0
36.960014,37.467117,64,40,0
37.467117,37.95616,55,33,0
37.467117,37.95616,59,33,0
37.467117,37.95616,64,39,0
37.95616,38.458435,47,50,0
38.458435,38.958435,54,26,0
38.458435,38.958435,59,26,0
38.458435,38.958435,62,31,0
38.958435,39.458435,54,26,0
38.958435,39.458435,59,26,0
38.958435,39.458435,62,31,0
39.458435,39.958435,47,50,0
39.958435,40.464474,54,34,0
39.958435,40.464474,58,34,0
39.958435,40.464474,64,40,0
40.464474,40.953518,54,33,0
40.464474,40.953518,58,33,0
40.464474,40.953518,64,39,0
40.953518,41.45579,47,50,0
41.45579,41.94962,54,26,0
41.45579,41.94962,59,26,0
41.45579,41.94962,62,31,0
41.94962,42.443443,54,26,0
41.94962,42.443443,59,26,0
41.94962,42.443443,62,31,0
42.443443,42.943443,37,50,0
42.943443,43.457134,49,34,0
42.943443,43.457134,53,34,0
42.943443,43.457134,59,40,0
43.457134,43.94618,49,33,0
43.457134,43.94618,53,33,0
43.457134,43.94618,59,39,0
43.94618,44.448452,42,50,0
44.448452,44.948452,49,31,0
44.448452,44.948452,57,37,0
48.280575,48.75309,56,58,0
48.75309,49.215984,54,55,0
49.215984,49.6885,57,55,0
48.280575,49.6885,49,47,0
49.6885,49.933964,56,57,0
49.933964,50.158684,54,51,0
50.158684,50.6312,57,56,0
50.6312,51.103714,57,54,0
49.6885,51.103714,49,47,0
51.103714,51.57202,56,57,0
51.57202,52.034912,54,56,0
52.034912,52.507427,58,54,0
51.103714,52.507427,49,47,0
52.507427,52.754696,56,57,0
52.507427,52.984264,49,47,0
52.754696,53.45678,54,51,0
52.984264,53.95678,42,47,0
53.95678,54.45678,47,50,0
54.45678,54.963882,55,34,0
54.45678,54.963882,59,34,0
54.45678,54.963882,64,40,0
54.963882,55.452927,55,33,0
54.963882,55.452927,59,33,0
54.963882,55.452927,64,39,0
55.452927,55.9552,47,50,0
55.9552,56.443005,54,26,0
55.9552,56.443005,59,26,0
55.9552,56.443005,62,31,0
56.443005,56.943005,54,26,0
56.443005,56.943005,59,26,0
56.443005,56.943005,62,31,0
56.943005,57.443005,47,50,0
57.443005,57.949043,54,34,0
57.443005,57.949043,58,34,0
57.443005,57.949043,64,40,0
57.949043,58.438087,54,33,0
57.949043,58.438087,58,33,0
57.949043,58.438087,64,39,0
58.438087,58.94036,47,50,0
58.94036,59.44036,54,26,0
58.94036,59.44036,59,26,0
58.94036,59.44036,62,31,0
59.912804,60.385242,65,43,0
59.912804,60.385242,59,38,0
60.385242,60.818455,64,38,0
60.385242,60.818455,60,34,0
60.818455,61.290897,64,38,0
60.818455,61.290897,60,34,0
61.290897,61.767086,65,46,0
61.290897,61.767086,59,41,0
61.290897,61.767086,55,41,0
61.767086,62.24328,65,38,0
61.767086,62.24328,59,34,0
61.767086,62.24328,55,34,0
62.24328,62.719467,64,38,0
62.24328,62.719467,60,34,0
62.719467,63.19191,65,43,0
62.719467,63.19191,59,38,0
63.19191,63.625122,64,38,0
63.19191,63.625122,60,34,0
63.625122,64.097565,64,38,0
63.625122,64.097565,60,34,0
64.097565,64.57375,65,46,0
64.097565,64.57375,59,41,0
64.097565,64.57375,55,41,0
64.57375,65.04994,65,37,0
64.57375,65.04994,59,33,0
64.57375,65.04994,55,33,0
65.04994,65.52613,64,36,0
65.04994,65.52613,60,32,0
65.52613,65.978966,65,43,0
65.52613,65.978966,59,38,0
65.52613,65.978966,55,38,0
65.978966,66.46677,64,34,0
65.978966,66.46677,60,31,0
66.46677,66.93369,65,41,0
66.46677,66.93369,59,36,0
66.46677,66.93369,55,36,0
66.93369,67.42752,64,29,0
66.93369,67.42752,60,29,0
67.42752,67.89811,65,39,0
67.42752,67.89811,59,35,0
67.42752,67.89811,55,35,0
67.89811,68.4002,64,31,0
67.89811,68.4002,60,28,0
68.4002,69.90648,55,52,0
69.90648,70.936516,54,59,0
70.936516,71.51904,53,62,0
71.51904,71.71904,34,74,0
71.919044,72.2964,58,54,0
71.919044,72.2964,62,64,0
71.919044,72.2964,53,54,0
72.2964,72.67376,54,64,0
72.2964,72.67376,58,64,0
72.2964,72.67376,63,64,0
72.67376,72.854485,46,73,0
73.3807,73.76532,53,68,0
73.030846,73.76532,65,68,0
73.030846,73.76532,62,57,0
73.030846,73.76532,58,57,0
73.76532,73.95763,34,72,0
74.14993,74.52729,58,54,0
74.14993,74.52729,62,64,0
74.14993,74.52729,53,54,0
74.52729,74.90465,54,64,0
74.52729,74.90465,58,64,0
74.52729,74.90465,63,64,0
74.90465,75.08537,46,73,0
75.6136,75.998215,53,68,0
75.261696,75.998215,65,68,0
75.261696,75.998215,62,57,0
75.261696,75.998215,58,57,0
75.998215,76.19821,34,79,0
76.39822,76.77557,58,54,0
76.39822,76.77557,62,64,0
76.39822,76.77557,53,54,0
76.77557,77.15293,54,64,0
76.77557,77.15293,58,64,0
76.77557,77.15293,63,64,0
77.15293,77.33366,46,73,0
77.85755,78.24217,53,68,0
77.50973,78.24217,65,68,0
77.50973,78.24217,62,57,0
77.50973,78.24217,58,57,0
78.24217,78.43448,34,69,0
78.24217,78.43448,46,72,0
78.626785,79.00414,58,54,0
78.626785,79.00414,62,64,0
78.626785,79.00414,53,54,0
79.00414,79.3815,54,64,0
79.00414,79.3815,58,64,0
79.00414,79.3815,63,64,0
79.3815,79.562225,46,73,0
80.088646,80.47326,53,68,0
79.73879,80.47326,65,68,0
79.73879,80.47326,62,57,0
79.73879,80.47326,58,57,0
80.47326,80.67326,39,81,0
80.87326,81.25062,63,54,0
80.87326,81.25062,67,64,0
80.87326,81.25062,58,54,0
81.25062,81.627975,59,64,0
81.25062,81.627975,63,64,0
81.25062,81.627975,68,64,0
81.627975,81.8087,51,73,0
81.989426,82.3403,58,57,0
81.989426,82.3403,63,57,0
81.989426,82.3403,67,68,0
82.3403,82.724915,51,68,0
82.724915,82.91722,39,73,0
83.10953,83.486885,63,54,0
83.10953,83.486885,67,64,0
83.10953,83.486885,58,54,0
83.486885,83.86425,59,64,0
83.486885,83.86425,63,64,0
83.486885,83.86425,68,64,0
83.86425,84.05116,51,73,0
84.238075,84.601715,61,57,0
84.238075,84.601715,67,57,0
84.238075,84.601715,70,68,0
84.601715,84.98633,51,68,0
84.98633,85.178635,39,73,0
85.37094,85.74246,61,65,0
85.74246,86.127075,62,57,0
86.127075,86.50504,63,59,0
86.50504,86.890594,64,57,0
86.890594,87.28406,65,54,0
87.28406,87.682724,66,52,0
87.682724,88.02474,54,59,0
88.02474,88.0736,57,60,0
88.0736,88.46502,55,68,0
88.46502,88.86968,54,62,0
88.86968,89.28993,49,55,0
89.28993,89.72702,50,54,0
89.72702,90.22702,47,50,0
90.22702,90.73412,55,34,0
90.22702,90.73412,59,34,0
90.22702,90.73412,64,40,0
90.73412,91.22317,55,33,0
90.73412,91.22317,59,33,0
90.73412,91.22317,64,39,0
91.22317,91.72544,47,50,0
91.72544,92.20887,54,26,0
91.72544,92.20887,59,26,0
91.72544,92.20887,62,31,0
92.20887,92.6908,54,26,0
92.20887,92.6908,59,26,0
92.20887,92.6908,62,31,0
92.6908,93.1908,47,50,0
93.1908,93.69684,54,34,0
93.1908,93.69684,58,34,0
93.1908,93.69684,64,40,0
93.69684,94.18588,54,33,0
93.69684,94.18588,58,33,0
93.69684,94.18588,64,39,0
94.18588,94.688156,47,50,0
94.688156,95.177956,54,26,0
94.688156,95.177956,59,26,0
94.688156,95.177956,62,31,0
95.177956,95.66775,54,26,0
95.177956,95.66775,59,26,0
95.177956,95.66775,62,31,0
95.66775,96.16775,37,50,0
96.16775,96.68144,49,34,0
96.16775,96.68144,53,34,0
96.16775,96.68144,59,40,0
96.68144,97.17048,49,33,0
96.68144,97.17048,53,33,0
96.68144,97.17048,59,39,0
97.17048,97.67275,42,50,0
97.67275,98.17275,49,31,0
97.67275,98.17275,57,37,0
101.507286,101.9801,56,58,0
101.9801,102.443275,54,55,0
102.443275,102.91609,57,55,0
101.507286,102.91609,49,47,0
102.91609,103.160805,56,57,0
103.160805,103.38385,54,51,0
103.38385,103.85667,57,56,0
103.85667,104.32948,57,54,0
102.91609,104.32948,49,47,0
104.32948,104.79051,56,57,0
104.79051,105.25369,54,56,0
105.25369,105.7265,58,54,0
104.32948,105.7265,49,47,0
105.7265,105.97392,56,57,0
105.7265,106.203636,49,47,0
105.97392,106.676445,54,51,0
106.203636,107.176445,42,47,0
107.176445,107.676445,47,50,0
107.676445,108.18355,55,34,0
107.676445,108.18355,59,34,0
107.676445,108.18355,64,40,0
108.18355,108.67259,55,33,0
108.18355,108.67259,59,33,0
108.18355,108.67259,64,39,0
108.67259,109.174866,47,50,0
109.174866,109.674866,54,26,0
109.174866,109.674866,59,26,0
109.174866,109.674866,62,31,0
109.674866,110.174866,54,26,0
109.674866,110.174866,59,26,0
109.674866,110.174866,62,31,0
110.174866,110.674866,47,50,0
110.674866,111.18091,54,34,0
110.674866,111.18091,58,34,0
110.674866,111.18091,64,40,0
111.18091,111.66995,54,33,0
111.18091,111.66995,58,33,0
111.18091,111.66995,64,39,0
111.66995,112.172226,47,50,0
112.172226,112.66202,54,26,0
112.172226,112.66202,59,26,0
112.172226,112.66202,62,31,0
113.13446,113.6069,65,43,0
113.13446,113.6069,59,38,0
113.6069,114.040115,64,38,0
113.6069,114.040115,60,34,0
114.040115,114.51256,64,38,0
114.040115,114.51256,60,34,0
114.51256,114.98875,65,46,0
114.51256,114.98875,59,41,0
114.51256,114.98875,55,41,0
114.98875,115.464935,65,38,0
114.98875,115.464935,59,34,0
114.98875,115.464935,55,34,0
115.464935,115.941124,64,38,0
115.464935,115.941124,60,34,0
115.941124,116.41357,65,43,0
115.941124,116.41357,59,38,0
116.41357,116.84678,64,38,0
116.41357,116.84678,60,34,0
116.84678,117.31922,64,38,0
116.84678,117.31922,60,34,0
117.31922,117.79541,65,46,0
117.31922,117.79541,59,41,0
117.31922,117.79541,55,41,0
117.79541,118.2716,65,37,0
117.79541,118.2716,59,33,0
117.79541,118.2716,55,33,0
118.2716,118.74779,64,36,0
118.2716,118.74779,60,32,0
118.74779,119.20062,65,43,0
118.74779,119.20062,59,38,0
118.74779,119.20062,55,38,0
119.20062,119.68842,64,34,0
119.20062,119.68842,60,31,0
119.68842,120.15535,65,41,0
119.68842,120.15535,59,36,0
119.68842,120.15535,55,36,0
120.15535,120.64918,64,29,0
120.15535,120.64918,60,29,0
120.64918,121.11977,65,39,0
120.64918,121.11977,59,35,0
120.64918,121.11977,55,35,0
121.11977,121.62186,64,31,0
121.11977,121.62186,60,28,0
121.62186,123.128136,55,52,0
123.128136,124.63441,54,48,0
124.63441,125.13441,47,50,0
124.63441,125.13441,35,46,0
125.13441,125.64151,55,34,0
125.13441,125.64151,59,34,0
125.13441,125.64151,64,40,0
125.64151,126.130554,55,33,0
125.64151,126.130554,59,33,0
125.64151,126.130554,64,39,0
126.130554,126.63283,47,50,0
126.63283,127.13283,54,26,0
126.63283,127.13283,59,26,0
126.63283,127.13283,62,31,0
127.13283,127.63283,54,26,0
127.13283,127.63283,59,26,0
127.13283,127.63283,62,31,0
127.63283,128.13283,47,50,0
128.13283,128.63887,54,34,0
128.13283,128.63887,58,34,0
128.13283,128.63887,64,40,0
128.63887,129.12791,54,33,0
128.63887,129.12791,58,33,0
128.63887,129.12791,64,39,0
129.12791,129.63019,47,50,0
129.63019,130.13019,54,26,0
129.63019,130.13019,59,26,0
129.63019,130.13019,62,31,0
130.13019,130.63019,54,26,0
130.13019,130.63019,59,26,0
130.13019,130.63019,62,31,0
130.63019,131.13019,37,50,0
131.13019,131.64388,49,34,0
131.13019,131.64388,53,34,0
131.13019,131.64388,59,40,0
131.64388,132.13292,49,33,0
131.64388,132.13292,53,33,0
131.64388,132.13292,59,39,0
132.13292,132.6352,42,50,0
132.6352,133.1352,49,31,0
132.6352,133.1352,57,37,0
136.47217,136.94487,56,58,0
136.94487,137.40794,54,55,0
137.40794,137.88065,57,55,0
136.47217,137.88065,49,47,0
137.88065,138.12172,56,57,0
138.12172,138.33754,54,51,0
138.33754,138.81024,57,56,0
138.81024,139.28294,57,54,0
137.88065,139.28294,49,47,0
139.28294,139.74515,56,57,0
139.74515,140.20822,54,56,0
140.20822,140.68092,58,54,0
139.28294,140.68092,49,47,0
140.68092,140.92828,56,57,0
140.68092,141.15794,49,47,0
140.92828,141.63063,54,51,0
141.15794,142.13063,42,47,0
142.13063,142.63063,47,50,0
142.63063,143.13774,55,34,0
142.63063,143.13774,59,34,0
142.63063,143.13774,64,40,0
143.13774,143.62679,55,33,0
143.13774,143.62679,59,33,0
143.13774,143.62679,64,39,0
143.62679,144.12906,47,50,0
144.12906,144.61885,54,26,0
144.12906,144.61885,59,26,0
144.12906,144.61885,62,31,0
144.61885,145.10864,54,26,0
144.61885,145.10864,59,26,0
144.61885,145.10864,62,31,0
145.10864,145.60864,47,50,0
145.60864,146.11469,54,34,0
145.60864,146.11469,58,34,0
145.60864,146.11469,64,40,0
146.11469,146.60373,54,33,0
146.11469,146.60373,58,33,0
146.11469,146.60373,64,39,0
146.60373,147.106,47,50,0
147.106,147.5958,54,26,0
147.106,147.5958,59,26,0
147.106,147.5958,62,31,0
148.06824,148.54068,65,43,0
148.06824,148.54068,59,38,0
148.54068,148.97389,64,38,0
148.54068,148.97389,60,34,0
148.97389,149.44633,64,38,0
148.97389,149.44633,60,34,0
149.44633,149.92253,65,46,0
149.44633,149.92253,59,41,0
149.44633,149.92253,55,41,0
149.92253,150.39871,65,38,0
149.92253,150.39871,59,34,0
149.92253,150.39871,55,34,0
150.39871,150.87491,64,38,0
150.39871,150.87491,60,34,0
150.87491,151.34735,65,43,0
150.87491,151.34735,59,38,0
151.34735,151.78056,64,38,0
151.34735,151.78056,60,34,0
151.78056,152.253,64,38,0
151.78056,152.253,60,34,0
152.253,152.72919,65,46,0
152.253,152.72919,59,41,0
152.253,152.72919,55,41,0
152.72919,153.20538,65,37,0
152.72919,153.20538,59,33,0
152.72919,153.20538,55,33,0
153.20538,153.68158,64,36,0
153.20538,153.68158,60,32,0
153.68158,154.1344,65,43,0
153.68158,154.1344,59,38,0
153.68158,154.1344,55,38,0
154.1344,154.62221,64,34,0
154.1344,154.62221,60,31,0
154.62221,155.08913,65,41,0
154.62221,155.08913,59,36,0
154.62221,155.08913,55,36,0
155.08913,155.58296,64,29,0
155.08913,155.58296,60,29,0
155.58296,156.05354,65,39,0
155.58296,156.05354,59,35,0
155.58296,156.05354,55,35,0
156.05354,156.55563,64,31,0
156.05354,156.55563,60,28,0
156.55563,158.06192,55,52,0
158.06192,159.09196,54,59,0
159.09196,159.67448,53,62,0
159.67448,159.87448,34,74,0
160.07448,160.45184,58,54,0
160.07448,160.45184,62,64,0
160.07448,160.45184,53,54,0
160.45184,160.8292,54,64,0
160.45184,160.8292,58,64,0
160.45184,160.8292,63,64,0
160.8292,161.00992,46,73,0
161.5365,161.92111,53,68,0
161.18665,161.92111,65,68,0
161.18665,161.92111,62,57,0
161.18665,161.92111,58,57,0
161.92111,162.11342,34,72,0
162.30573,162.68309,58,54,0
162.30573,162.68309,62,64,0
162.30573,162.68309,53,54,0
162.68309,163.06044,54,64,0
162.68309,163.06044,58,64,0
162.68309,163.06044,63,64,0
163.06044,163.24117,46,73,0
163.76942,164.15404,53,68,0
163.41751,164.15404,65,68,0
163.41751,164.15404,62,57,0
163.41751,164.15404,58,57,0
164.15404,164.35403,34,79,0
164.55405,164.9314,58,54,0
164.55405,164.9314,62,64,0
164.55405,164.9314,53,54,0
164.9314,165.30876,54,64,0
164.9314,165.30876,58,64,0
164.9314,165.30876,63,64,0
165.30876,165.48947,46,73,0
166.0117,166.39632,53,68,0
165.66388,166.39632,65,68,0
165.66388,166.39632,62,57,0
165.66388,166.39632,58,57,0
166.39632,166.58862,34,69,0
166.39632,166.58862,46,72,0
166.78093,167.1583,58,54,0
166.78093,167.1583,62,64,0
166.78093,167.1583,53,54,0
167.1583,167.53564,54,64,0
167.1583,167.53564,58,64,0
167.1583,167.53564,63,64,0
167.53564,167.71637,46,73,0
168.24109,168.6257,53,68,0
167.89124,168.6257,65,68,0
167.89124,168.6257,62,57,0
167.89124,168.6257,58,57,0
168.6257,168.8257,39,81,0
169.02571,169.40306,63,54,0
169.02571,169.40306,67,64,0
169.02571,169.40306,58,54,0
169.40306,169.78043,59,64,0
169.40306,169.78043,63,64,0
169.40306,169.78043,68,64,0
169.78043,169.96115,51,73,0
170.14186,170.49275,58,57,0
170.14186,170.49275,63,57,0
170.14186,170.49275,67,68,0
170.49275,170.87737,51,68,0
170.87737,171.06967,39,73,0
171.26198,171.63933,63,54,0
171.26198,171.63933,67,64,0
171.26198,171.63933,58,54,0
171.63933,172.0167,59,64,0
171.63933,172.0167,63,64,0
171.63933,172.0167,68,64,0
172.0167,172.20361,51,73,0
172.39052,172.75417,61,57,0
172.39052,172.75417,67,57,0
172.39052,172.75417,70,68,0
172.75417,173.13878,51,68,0
173.13878,173.33109,39,73,0
173.52339,173.89491,61,65,0
173.89491,174.27953,62,57,0
174.27953,174.65749,63,59,0
174.65749,175.04305,64,57,0
175.04305,175.4365,65,54,0
175.4365,175.83517,66,52,0
175.83517,176.17719,54,59,0
176.17719,176.22604,58,60,0
176.22604,176.61845,56,68,0
176.61845,177.02364,54,63,0
177.02364,177.43852,49,56,0
177.43852,177.86333,54,53,0
177.86333,178.35715,47,50,0
178.35715,178.84496,54,36,0
178.35715,178.84496,59,36,0
178.35715,178.84496,63,43,0
178.84496,179.35344,71,43,0
178.84496,179.35344,63,36,0
179.35344,179.85553,40,53,0
179.85553,180.3514,68,44,0
179.85553,180.3514,61,37,0
179.85553,180.3514,59,37,0
179.85553,180.3514,64,37,0
180.86203,181.36269,42,50,0
181.36269,181.85855,54,36,0
181.36269,181.85855,58,36,0
181.36269,181.85855,64,43,0
181.85855,182.39427,64,45,0
181.85855,182.39427,58,38,0
181.85855,182.39427,54,38,0
182.39427,182.9006,43,54,0
182.9006,183.3924,51,39,0
182.9006,183.3924,58,39,0
182.9006,183.3924,63,47,0
183.3924,183.90088,63,44,0
183.3924,183.90088,58,37,0
183.3924,183.90088,51,37,0
183.90088,184.40935,44,50,0
184.40935,184.90727,51,36,0
184.40935,184.90727,56,36,0
184.40935,184.90727,59,43,0
184.90727,185.4223,59,43,0
184.90727,185.4223,56,36,0
184.90727,185.4223,51,36,0
185.4223,185.93732,37,53,0
185.93732,186.44151,56,38,0
185.93732,186.44151,61,38,0
185.93732,186.44151,64,45,0
186.95201,187.46925,50,50,0
187.46925,187.97345,56,37,0
187.46925,187.97345,59,37,0
187.46925,187.97345,65,44,0
187.97345,188.48846,65,44,0
187.97345,188.48846,58,37,0
187.97345,188.48846,56,37,0
188.48846,189.0035,51,55,0
189.0035,189.52982,55,39,0
189.0035,189.52982,58,39,0
189.0035,189.52982,63,47,0
189.52982,190.09799,64,47,0
189.52982,190.09799,49,39,0
189.52982,190.09799,54,39,0
189.52982,190.09799,58,39,0
190.09799,190.59181,47,50,0
190.59181,191.1055,54,36,0
190.59181,191.1055,59,36,0
190.59181,191.1055,63,43,0
191.66106,192.16315,40,51,0
192.16315,192.65903,68,44,0
192.16315,192.65903,61,37,0
192.16315,192.65903,59,37,0
192.16315,192.65903,64,37,0
193.16966,193.67032,42,50,0
193.67032,194.16618,54,36,0
193.67032,194.16618,58,36,0
193.67032,194.16618,64,43,0
194.16618,194.70189,64,45,0
194.16618,194.70189,58,38,0
194.16618,194.70189,54,38,0
194.70189,195.20822,43,54,0
195.20822,195.70003,51,39,0
195.20822,195.70003,58,39,0
195.20822,195.70003,63,47,0
195.70003,196.2435,63,44,0
195.70003,196.2435,58,37,0
195.70003,196.2435,51,37,0
196.2435,196.74983,44,55,0
196.74983,197.24776,56,36,0
196.74983,197.24776,53,36,0
196.74983,197.24776,63,43,0
196.74983,197.24776,59,36,0
197.76279,198.2778,46,53,0
198.2778,198.782,54,38,0
198.2778,198.782,58,38,0
198.2778,198.782,63,45,0
198.782,199.29594,63,45,0
198.782,199.29594,58,38,0
198.782,199.29594,54,38,0
199.29594,199.81319,46,50,0
199.81319,200.31738,56,37,0
199.81319,200.31738,58,37,0
199.81319,200.31738,62,44,0
200.31738,200.83241,65,44,0
200.31738,200.83241,58,37,0
200.31738,200.83241,56,37,0
200.83241,201.34743,51,55,0
201.34743,201.90302,54,29,0
201.34743,201.90302,58,33,0
201.34743,201.90302,63,39,0
201.90302,202.46971,64,35,0
201.90302,202.46971,49,23,0
201.90302,202.46971,54,28,0
201.90302,202.46971,58,30,0
202.46971,202.96353,47,50,0
202.96353,203.45134,57,36,0
202.96353,203.45134,59,36,0
202.96353,203.45134,63,43,0
203.45134,203.95981,69,43,0
203.45134,203.95981,63,36,0
203.45134,203.95981,59,36,0
203.95981,204.4619,40,53,0
204.4619,204.95776,68,44,0
204.4619,204.95776,61,37,0
204.4619,204.95776,59,37,0
204.4619,204.95776,64,37,0
205.46841,205.96907,42,50,0
205.96907,206.46494,54,36,0
205.96907,206.46494,58,36,0
205.96907,206.46494,64,43,0
206.46494,207.01991,64,45,0
206.46494,207.01991,58,38,0
206.46494,207.01991,54,38,0
207.01991,207.52625,43,54,0
207.52625,208.01804,51,39,0
207.52625,208.01804,58,39,0
207.52625,208.01804,63,47,0
208.01804,208.52652,63,44,0
208.01804,208.52652,58,37,0
208.01804,208.52652,51,37,0
208.52652,209.03499,44,50,0
209.03499,209.53291,51,36,0
209.03499,209.53291,56,36,0
209.03499,209.53291,59,43,0
209.53291,210.04794,59,43,0
209.53291,210.04794,56,36,0
209.53291,210.04794,51,36,0
210.04794,210.56296,37,53,0
210.56296,211.06717,56,38,0
210.56296,211.06717,61,38,0
210.56296,211.06717,64,45,0
211.57765,212.0949,50,50,0
212.0949,212.59909,56,37,0
212.0949,212.59909,59,37,0
212.0949,212.59909,65,44,0
212.59909,213.1141,65,44,0
212.59909,213.1141,58,37,0
212.59909,213.1141,56,37,0
213.1141,213.62914,51,55,0
213.62914,214.1573,55,39,0
213.62914,214.1573,58,39,0
213.62914,214.1573,63,47,0
214.1573,214.70474,64,47,0
214.1573,214.70474,49,34,0
214.1573,214.70474,54,35,0
214.1573,214.70474,58,39,0
214.70474,215.19858,47,50,0
215.19858,215.70656,54,36,0
215.19858,215.70656,59,36,0
215.19858,215.70656,63,43,0
216.26212,216.7642,40,51,0
216.7642,217.26007,68,44,0
216.7642,217.26007,61,37,0
216.7642,217.26007,59,37,0
216.7642,217.26007,64,37,0
217.77072,218.27138,42,50,0
218.27138,218.76724,54,36,0
218.27138,218.76724,58,36,0
218.27138,218.76724,64,43,0
218.76724,219.30681,64,45,0
218.76724,219.30681,58,38,0
218.76724,219.30681,54,38,0
219.30681,219.81314,43,54,0
219.81314,220.30495,51,39,0
219.81314,220.30495,58,39,0
219.81314,220.30495,63,47,0
220.30495,220.82896,63,44,0
220.30495,220.82896,58,37,0
220.30495,220.82896,51,37,0
220.82896,221.33528,44,55,0
221.33528,221.8332,56,36,0
221.33528,221.8332,53,36,0
221.33528,221.8332,63,43,0
221.33528,221.8332,59,36,0
222.34824,222.86325,46,53,0
222.86325,223.36746,54,38,0
222.86325,223.36746,58,38,0
222.86325,223.36746,63,45,0
223.36746,223.8814,63,45,0
223.36746,223.8814,58,38,0
223.36746,223.8814,54,38,0
223.8814,224.39864,46,50,0
224.39864,224.90283,56,37,0
224.39864,224.90283,58,37,0
224.39864,224.90283,62,44,0
224.90283,225.41786,65,44,0
224.90283,225.41786,58,37,0
224.90283,225.41786,56,37,0
225.41786,225.93288,51,55,0
225.93288,226.46753,54,29,0
225.93288,226.46753,58,33,0
225.93288,226.46753,63,39,0
226.46753,226.9514,66,50,0
226.46753,226.9514,58,42,0
226.46753,226.9514,54,36,0
226.9514,227.05666,76,64,0
226.9514,227.05666,70,54,0
227.26498,227.36368,66,60,0
227.36368,227.79225,54,58,0
227.79225,228.2133,42,60,0
228.2133,228.41948,47,68,0
228.52258,228.62192,54,59,0
228.62192,229.03429,59,56,0
228.62192,229.03429,63,66,0
229.03429,229.45534,75,60,0
229.03429,229.45534,71,51,0
229.45534,229.55843,76,64,0
229.45534,229.55843,70,54,0
229.76462,229.8633,66,60,0
229.8633,230.27567,54,58,0
230.27567,230.69821,42,60,0
230.69821,230.90439,47,68,0
231.00749,231.10683,54,59,0
231.10683,231.54004,59,56,0
231.10683,231.54004,63,66,0
231.96257,232.06602,52,68,0
232.27292,232.36815,73,62,0
232.36815,232.67221,68,66,0
232.36815,232.67221,64,56,0
232.67221,232.7696,73,62,0
232.7696,233.19666,68,65,0
232.7696,233.19666,64,55,0
233.19666,233.30046,42,68,0
233.50807,233.60362,71,62,0
233.60362,233.90974,66,66,0
233.60362,233.90974,63,56,0
233.90974,234.00746,71,62,0
234.00746,234.43149,66,65,0
234.00746,234.43149,63,55,0
234.43149,234.53494,42,68,0
234.74184,234.84117,70,62,0
234.84117,235.15695,64,66,0
234.84117,235.15695,61,56,0
235.15695,235.25696,70,62,0
235.25696,235.72571,64,65,0
235.25696,235.72571,61,55,0
235.72571,235.95384,47,61,0
236.1995,236.6873,65,55,0
236.6873,237.17511,66,50,0
236.1995,237.17511,59,46,0
237.17511,237.28036,76,64,0
237.17511,237.28036,70,54,0
237.4887,237.58737,66,60,0
237.58737,238.01595,54,58,0
238.01595,238.437,42,60,0
238.437,238.64319,47,68,0
238.74628,238.84561,54,59,0
238.84561,239.27727,59,56,0
238.84561,239.27727,63,66,0
239.27727,239.69832,75,60,0
239.27727,239.69832,71,51,0
239.69832,239.80142,76,64,0
239.69832,239.80142,70,54,0
240.0076,240.1063,66,60,0
240.1063,240.52008,54,58,0
240.52008,240.94261,42,60,0
240.94261,241.1488,47,68,0
241.25189,241.35123,54,59,0
241.35123,241.78444,59,56,0
241.35123,241.78444,63,66,0
242.20699,242.31042,52,68,0
242.51732,242.61256,73,62,0
242.61256,242.91661,68,66,0
242.61256,242.91661,64,56,0
242.91661,243.01402,73,62,0
243.01402,243.44107,68,65,0
243.01402,243.44107,64,55,0
243.44107,243.54488,42,68,0
243.75249,243.84802,71,62,0
243.84802,244.15414,66,66,0
243.84802,244.15414,63,56,0
244.15414,244.25186,71,62,0
244.25186,244.67589,66,65,0
244.25186,244.67589,63,55,0
244.67589,244.77934,42,68,0
244.98624,245.08557,70,62,0
245.08557,245.40137,64,66,0
245.08557,245.40137,61,56,0
245.40137,245.50137,70,62,0
245.50137,245.93932,64,65,0
245.50137,245.93932,61,55,0
246.27766,246.37668,56,41,0
246.37668,246.70879,54,47,0
246.70879,246.80846,56,41,0
246.80846,247.26472,54,46,0
247.26472,247.574,56,44,0
247.574,247.67268,54,37,0
247.67268,248.10434,52,44,0
248.10434,248.52687,42,38,0
248.52687,248.83722,47,44,0
248.83722,248.93558,49,41,0
248.93558,249.34435,51,45,0
249.34435,249.75671,54,44,0
249.75671,250.0714,56,46,0
250.0714,250.17009,54,42,0
250.17009,250.59412,52,45,0
250.59412,251.00934,42,39,0
251.00934,251.31969,47,44,0
251.31969,251.41805,49,41,0
251.41805,251.8268,51,45,0
251.8268,252.23918,54,44,0
252.54951,252.64476,58,41,0
252.64476,252.9488,56,44,0
252.9488,253.04622,58,41,0
253.04622,253.47327,56,45,0
252.23918,253.47327,64,49,0
253.7836,253.87885,56,41,0
253.87885,254.18289,54,44,0
254.18289,254.2803,56,41,0
254.2803,254.70735,54,45,0
253.47327,254.70735,63,49,0
255.01768,255.11293,54,41,0
255.11293,255.41698,52,44,0
255.41698,255.51439,54,41,0
255.51439,255.94144,52,45,0
254.70735,255.94144,61,49,0
255.94144,256.28363,51,44,0
256.28363,256.41522,52,41,0
256.41522,256.903,56,45,0
256.903,257.39084,54,44,0
257.39084,257.75668,56,46,0
257.75668,257.85538,54,42,0
257.85538,258.2794,52,45,0
258.2794,258.6946,42,39,0
258.6946,259.00497,47,44,0
259.00497,259.10333,49,41,0
259.10333,259.5121,51,45,0
259.5121,259.9565,54,44,0
259.9565,260.32388,55,43,0
260.32388,260.42877,54,39,0
260.42877,260.86673,52,42,0
260.86673,261.28925,42,36,0
261.28925,261.63016,47,41,0
261.63016,261.7358,49,38,0
261.7358,262.18024,50,41,0
262.18024,262.6247,54,40,0
262.6247,262.8528,55,42,0
262.8528,263.08096,54,38,0
263.08096,263.51892,52,41,0
263.51892,263.98584,43,35,0
263.98584,264.214,55,41,0
264.214,264.4421,54,37,0
264.4421,264.88007,52,40,0
264.88007,265.35626,44,34,0
265.35626,265.70645,55,40,0
265.70645,265.82318,54,36,0
265.82318,266.27774,52,39,0
266.27774,266.7616,45,34,0
266.7616,267.13046,55,40,0
267.13046,267.25342,54,36,0
267.25342,267.72772,52,39,0
267.72772,268.24945,46,33,0
268.24945,268.75366,47,42,0
268.75366,269.26077,55,28,0
268.75366,269.26077,59,28,0
268.75366,269.26077,64,34,0
269.26077,269.74982,55,28,0
269.26077,269.74982,59,28,0
269.26077,269.74982,64,33,0
269.74982,270.25208,47,42,0
270.25208,270.75208,54,22,0
270.25208,270.75208,59,22,0
270.25208,270.75208,62,26,0
270.75208,271.25208,54,22,0
270.75208,271.25208,59,22,0
270.75208,271.25208,62,26,0
271.25208,271.75208,47,42,0
271.75208,272.25812,54,28,0
271.75208,272.25812,58,28,0
271.75208,272.25812,64,34,0
272.25812,272.74716,54,28,0
272.25812,272.74716,58,28,0
272.25812,272.74716,64,33,0
272.74716,273.24945,47,42,0
273.24945,273.74945,54,22,0
273.24945,273.74945,59,22,0
273.24945,273.74945,62,26,0
273.74945,274.24945,54,22,0
273.74945,274.24945,59,22,0
273.74945,274.24945,62,26,0
274.24945,274.74945,37,47,0
274.74945,275.26312,49,32,0
274.74945,275.26312,53,32,0
274.74945,275.26312,59,38,0
275.26312,275.75217,49,31,0
275.26312,275.75217,53,31,0
275.26312,275.75217,59,37,0
275.75217,276.25446,42,47,0
276.25446,276.75446,49,29,0
276.25446,276.75446,57,35,0
280.09326,280.55576,56,58,0
280.55576,281.0052,54,55,0
281.0052,281.4721,57,55,0
280.09326,281.4721,49,47,0
281.4721,281.71643,56,57,0
281.71643,281.9346,54,51,0
281.9346,282.4077,57,56,0
282.4077,282.88083,57,54,0
281.4721,282.88083,49,47,0
282.88083,283.3415,56,57,0
283.3415,283.80496,54,56,0
283.80496,284.27805,58,54,0
282.88083,284.27805,49,47,0
284.27805,284.52563,56,57,0
284.27805,284.7555,49,47,0
284.52563,285.2286,54,51,0
284.7555,285.7286,42,47,0
285.7286,286.2286,47,50,0
286.2286,286.7357,55,34,0
286.2286,286.7357,59,34,0
286.2286,286.7357,64,40,0
286.7357,287.22473,55,33,0
286.7357,287.22473,59,33,0
286.7357,287.22473,64,39,0
287.22473,287.72702,47,50,0
287.72702,288.2051,54,26,0
287.72702,288.2051,59,26,0
287.72702,288.2051,62,31,0
288.2051,288.7051,54,26,0
288.2051,288.7051,59,26,0
288.2051,288.7051,62,31,0
288.7051,289.2051,47,50,0
289.2051,289.71115,54,34,0
289.2051,289.71115,58,34,0
289.2051,289.71115,64,40,0
289.71115,290.2002,54,33,0
289.71115,290.2002,58,33,0
289.71115,290.2002,64,39,0
290.2002,290.70245,47,50,0
290.70245,291.18634,54,26,0
290.70245,291.18634,59,26,0
290.70245,291.18634,62,31,0
291.65878,292.13123,65,43,0
291.65878,292.13123,59,38,0
292.13123,292.56442,64,38,0
292.13123,292.56442,60,34,0
292.56442,293.03687,64,38,0
292.56442,293.03687,60,34,0
293.03687,293.51306,65,46,0
293.03687,293.51306,59,41,0
293.03687,293.51306,55,41,0
293.51306,293.98926,65,38,0
293.51306,293.98926,59,34,0
293.51306,293.98926,55,34,0
293.98926,294.45258,64,38,0
293.98926,294.45258,60,34,0
294.45258,294.915,65,43,0
294.45258,294.915,59,38,0
294.915,295.34824,64,38,0
294.915,295.34824,60,34,0
295.34824,295.82068,64,38,0
295.34824,295.82068,60,34,0
295.82068,296.29684,65,46,0
295.82068,296.29684,59,41,0
295.82068,296.29684,55,41,0
296.29684,296.77304,65,37,0
296.29684,296.77304,59,33,0
296.29684,296.77304,55,33,0
296.77304,297.24924,64,36,0
296.77304,297.24924,60,32,0
297.24924,297.70206,65,43,0
297.24924,297.70206,59,38,0
297.24924,297.70206,55,38,0
297.70206,298.18988,64,34,0
297.70206,298.18988,60,31,0
298.18988,298.6568,65,41,0
298.18988,298.6568,59,36,0
298.18988,298.6568,55,36,0
298.6568,299.15063,64,29,0
298.6568,299.15063,60,29,0
299.15063,299.62122,65,39,0
299.15063,299.62122,59,35,0
299.15063,299.62122,55,35,0
299.62122,300.1233,64,31,0
299.62122,300.1233,60,28,0
300.1233,300.6131,65,38,0
300.1233,300.6131,59,34,0
300.1233,300.6131,55,34,0
300.6131,301.1029,65,30,0
300.6131,301.1029,59,26,0
300.6131,301.1029,55,26,0
301.1029,301.61353,64,28,0
301.1029,301.61353,60,25,0
301.61353,302.11145,65,36,0
301.61353,302.11145,59,31,0
301.61353,302.11145,55,31,0
302.11145,302.62427,65,28,0
302.11145,302.62427,59,24,0
302.11145,302.62427,55,24,0
302.62427,303.15524,64,26,0
302.62427,303.15524,60,23,0
303.15524,304.71368,67,40,0
304.71368,306.3066,60,45,0
306.3066,307.86505,67,40,0
307.86505,309.46506,60,45,0
309.46506,312.59006,67,41,0
313.99744,314.46802,42,44,0
314.46802,314.97433,42,39,0
314.97433,315.5626,47,44,0
314.97433,315.5626,35,37,0
