start_time,end_time,note_value,velocity,instrument_program_number
0.09055787,0.6945683,69,81,0
0.0015092979,0.6945683,63,81,0
0.18111575,0.7209229,78,96,0
0.6945683,1.1162423,69,68,0
0.6945683,1.1162423,63,62,0
0.6945683,1.1425968,77,80,0
1.1162423,1.4859313,63,64,0
1.1162423,1.4859313,69,67,0
1.1162423,1.5058341,76,80,0
1.4859313,1.8043772,69,69,0
1.4859313,1.8043772,63,63,0
1.4859313,1.8251482,75,81,0
1.8043772,2.1367133,69,69,0
1.8043772,2.1367133,63,62,0
1.8043772,2.1574843,73,83,0
2.1367133,3.988286,69,65,0
2.1367133,3.988286,63,58,0
2.1367133,3.988286,72,78,0
4.149058,4.2454233,77,39,0
4.2316566,4.3275485,75,40,0
4.3142557,4.407306,72,41,0
4.3940134,4.486939,73,42,0
4.4736876,4.566447,65,43,0
4.5531955,4.6459146,69,45,0
4.632704,4.7251787,70,45,0
4.711968,4.8046517,72,46,0
4.7912326,4.885167,73,48,0
4.871748,4.9654307,75,49,0
4.952263,5.044436,77,51,0
5.0312686,5.1233616,79,51,0
5.1102743,5.2018876,81,52,0
5.1888,5.2805343,82,53,0
5.2673254,5.359786,84,54,0
5.346577,5.439122,85,56,0
5.425829,5.5188794,87,56,0
5.5055866,5.5983114,89,57,0
5.5853443,5.6761165,91,58,0
5.663149,5.7538815,93,59,0
5.7409534,5.831449,94,61,0
5.818521,5.908978,96,62,0
5.8960886,5.9863133,97,64,0
5.973424,6.063887,99,65,0
6.05076,6.142652,100,67,0
6.1295247,6.221417,101,65,0
6.2082896,6.298792,99,65,0
6.2859426,6.3758893,97,63,0
6.3630395,6.4531846,96,62,0
6.4402957,6.5305204,94,61,0
6.517631,6.6080494,93,60,0
6.5951214,6.672689,94,59,0
6.672689,6.764862,92,58,0
6.751694,6.8438673,90,57,0
6.8307,6.922075,89,56,0
6.9090667,7.0001225,88,56,0
6.9871144,7.078367,89,55,0
7.0653195,7.156651,87,54,0
7.143604,7.2351365,85,53,0
7.2220488,7.31395,84,52,0
7.300575,7.3942027,82,51,0
7.380827,7.474455,81,50,0
7.4610796,7.5536685,82,49,0
7.5405006,7.6326737,80,49,0
7.6195064,7.7118955,78,48,0
7.6986847,7.7911596,77,48,0
7.777949,7.8706274,75,46,0
7.8573756,7.950547,73,45,0
7.937051,8.0315275,72,45,0
8.018031,8.112305,73,45,0
8.099011,8.192062,75,45,0
8.178769,8.271819,77,46,0
8.258527,8.351369,78,47,0
8.338118,8.431049,80,47,0
8.417625,8.511591,82,48,0
8.498167,8.592132,84,49,0
8.578709,8.672418,82,48,0
8.659249,8.751423,80,48,0
8.7382555,8.830428,78,49,0
8.817261,8.909233,77,49,0
8.896106,8.987998,75,50,0
8.974871,9.066835,73,51,0
9.053556,9.146512,72,51,0
9.133233,9.226285,75,51,0
9.21291,9.306538,78,51,0
9.293162,9.386462,74,48,0
9.373415,9.464746,77,51,0
9.451699,9.543403,75,45,0
9.529983,9.623918,72,45,0
9.610498,9.704389,66,43,0
9.691013,9.784641,71,44,0
9.771266,9.864853,72,45,0
9.851519,9.944861,73,45,0
9.931527,10.024828,72,46,0
10.011536,10.104586,74,48,0
10.091293,10.184218,75,48,0
10.170967,10.263726,77,48,0
10.250475,10.34295,75,50,0
10.329902,10.421233,76,51,0
10.408186,10.486711,77,51,0
10.486711,10.580646,80,52,0
10.567225,10.660245,78,53,0
10.647158,10.738771,81,55,0
10.725683,10.817297,82,56,0
10.80421,10.895823,85,56,0
10.882735,10.974147,84,58,0
10.9611,11.052431,85,59,0
11.039384,11.131082,86,60,0
11.11751,11.21251,89,61,0
11.198938,11.292104,87,62,0
11.278928,11.371023,88,62,0
11.357917,11.449528,89,63,0
11.436489,11.527828,93,64,0
11.514651,11.607995,94,65,0
11.5942745,11.6939335,92,67,0
11.678976,11.784685,91,68,0
11.771558,11.86345,90,67,0
11.850323,11.941898,101,66,0
11.929088,12.018841,99,66,0
12.005952,12.096176,87,65,0
12.083287,12.1735115,97,63,0
12.160623,12.250886,96,62,0
12.237958,12.328454,84,62,0
12.315526,12.406428,94,61,0
12.393093,12.486437,93,60,0
12.473102,12.566077,81,59,0
12.55311,12.643883,92,57,0
12.630915,12.721727,90,57,0
12.708719,12.799775,78,56,0
12.786767,12.877823,89,56,0
12.864815,12.955911,87,55,0
12.9428625,13.034194,78,54,0
13.021147,13.112478,77,54,0
13.099431,13.190883,87,52,0
13.177795,13.269409,85,51,0
13.256321,13.347935,77,51,0
13.334847,13.42658,85,50,0
13.413452,13.505345,84,50,0
13.492217,13.58411,75,49,0
13.570983,13.662995,84,47,0
13.649828,13.742001,73,46,0
13.728833,13.821006,82,46,0
13.807838,13.900142,80,45,0
13.88693,13.979405,72,45,0
13.966195,14.05867,80,44,0
14.04546,14.138057,78,42,0
14.124805,14.217565,70,42,0
14.204313,14.283821,78,42,0
14.283821,14.37658,69,40,0
14.363329,14.455886,70,42,0
14.442675,14.535021,72,42,0
14.521853,14.613986,73,44,0
14.600859,14.692711,75,45,0
14.679624,14.771236,76,46,0
14.758149,14.849561,77,47,0
14.8365135,14.92793,78,48,0
14.914719,15.0071945,76,51,0
14.993983,15.086256,77,49,0
15.073248,15.164343,74,47,0
15.151296,15.242667,75,46,0
15.22958,15.321193,72,45,0
15.308105,15.399919,73,44,0
15.386791,15.478884,72,43,0
15.465716,15.544808,70,41,0
15.544808,15.636981,69,39,0
15.623814,15.715786,70,41,0
15.702659,15.794511,72,42,0
15.781424,15.873037,73,44,0
15.859949,15.951442,75,45,0
15.938395,16.029726,76,47,0
16.016678,16.107813,77,49,0
16.094805,16.186106,78,50,0
16.172771,16.266115,76,51,0
16.25278,16.34449,77,50,0
16.331482,16.422655,74,48,0
16.409609,16.50094,75,48,0
16.487892,16.579426,72,46,0
16.566338,16.65807,73,45,0
16.644943,16.736876,72,45,0
16.723707,16.802233,70,43,0
16.802233,16.89342,71,41,0
16.880423,16.971361,72,42,0
16.9584,17.049023,74,44,0
17.036097,17.126472,75,45,0
17.11358,17.203642,76,48,0
17.190786,17.280571,77,50,0
17.267784,17.357258,79,51,0
17.344505,17.43404,80,53,0
17.420952,17.512566,78,54,0
17.499477,17.589983,79,52,0
17.577265,17.666395,76,51,0
17.653643,17.743013,77,48,0
17.730227,17.819838,74,48,0
17.807016,17.89687,75,48,0
17.884014,17.97411,74,46,0
17.96122,18.038633,72,45,0
18.038633,18.12908,71,43,0
18.11619,18.206388,72,44,0
18.193533,18.283525,74,45,0
18.27067,18.360487,75,47,0
18.347666,18.437244,76,49,0
18.424458,18.513863,77,51,0
18.50111,18.590275,79,53,0
18.577557,18.666807,80,54,0
18.6538,18.744854,78,57,0
18.731846,18.821932,79,56,0
18.809248,18.898039,76,54,0
18.885355,18.97418,77,51,0
18.961462,19.050592,74,51,0
19.03784,19.127106,75,51,0
19.114353,19.20362,74,49,0
19.190868,19.267315,72,48,0
19.267315,19.35754,73,46,0
19.34465,19.434875,75,45,0
19.421986,19.512093,77,47,0
19.499321,19.5886,78,49,0
19.57595,19.664503,80,50,0
19.651854,19.740208,82,51,0
19.727757,19.81492,83,53,0
19.80247,19.890188,84,55,0
19.877182,19.968237,85,56,0
19.955229,20.045387,86,57,0
20.032803,20.12099,89,58,0
20.108374,20.196962,87,56,0
20.184278,20.273272,84,56,0
20.260519,20.349993,81,54,0
20.337172,20.42706,78,53,0
20.41417,20.491747,75,51,0
20.491747,20.582687,73,48,0
20.569727,20.660418,75,51,0
20.647491,20.737865,77,51,0
20.724976,20.815107,78,53,0
20.80225,20.892069,80,55,0
20.879248,20.96879,82,56,0
20.956038,21.04527,83,58,0
21.032553,21.121605,84,58,0
21.108795,21.199854,85,60,0
21.186766,21.27801,84,62,0
21.265291,21.354422,87,63,0
21.34167,21.431211,85,60,0
21.41839,21.508417,82,58,0
21.495527,21.585972,79,56,0
21.573011,21.66395,76,55,0
21.650919,21.729454,73,52,0
21.729454,21.821226,72,56,0
21.808138,21.899632,73,56,0
21.886583,21.977797,74,57,0
21.964788,22.055723,75,59,0
22.042755,22.13349,76,60,0
22.120562,22.211018,77,61,0
22.198128,22.288313,78,61,0
22.275463,22.365372,79,62,0
22.35256,22.442274,80,62,0
22.429424,22.519411,81,62,0
22.506521,22.596863,84,61,0
22.583935,22.67455,82,61,0
22.661581,22.752556,78,59,0
22.739548,22.830841,77,58,0
22.817753,22.909407,75,57,0
22.896278,22.975124,73,56,0
22.975124,23.069342,72,66,0
23.055882,23.150099,70,65,0
23.13664,23.230858,69,65,0
23.217398,23.311615,72,65,0
23.298157,23.392374,66,64,0
23.378914,23.473131,65,65,0
23.459673,23.55389,64,67,0
23.54043,23.634432,65,69,0
23.621187,23.71393,66,70,0
23.70065,23.793713,65,68,0
23.780397,23.873783,70,72,0
23.860432,23.954334,69,71,0
23.940615,24.040527,73,74,0
24.02548,24.135496,72,71,0
24.11884,24.241108,80,74,0
24.222454,24.324287,78,75,0
24.324287,24.420652,77,77,0
24.406887,24.502779,72,77,0
24.489485,24.582537,75,78,0
24.569242,24.662169,73,79,0
24.648918,24.741676,65,79,0
24.728426,24.821358,69,80,0
24.807934,24.901897,70,81,0
24.888475,24.982477,72,81,0
24.969015,25.063244,73,82,0
25.049782,25.143677,75,83,0
25.130548,25.222443,77,84,0
25.209314,25.301167,79,84,0
25.288078,25.379692,81,85,0
25.366606,25.458374,82,86,0
25.445131,25.537836,84,86,0
25.524593,25.617306,85,87,0
25.604053,25.696814,87,88,0
25.683561,25.776037,89,89,0
25.763071,25.853842,91,89,0
25.840876,25.931608,93,90,0
25.91868,26.009174,94,91,0
25.996246,26.08685,96,91,0
26.073814,26.16506,97,92,0
26.152025,26.243324,99,93,0
26.230236,26.32185,100,94,0
26.308762,26.400375,101,92,0
26.387287,26.47771,99,92,0
26.46486,26.554808,97,91,0
26.541958,26.632103,96,90,0
26.619213,26.709438,94,88,0
26.696548,26.786966,93,87,0
26.774038,26.864817,94,86,0
26.851606,26.944082,92,86,0
26.930872,27.023346,90,85,0
27.010136,27.101597,89,83,0
27.088589,27.179646,88,82,0
27.166637,27.257889,89,79,0
27.244843,27.336174,87,77,0
27.323126,27.41466,85,76,0
27.401571,27.493185,84,74,0
27.480097,27.571909,82,72,0
27.558783,27.650675,81,69,0
27.637547,27.729641,82,68,0
27.716473,27.808645,80,67,0
27.795479,27.887867,78,66,0
27.874657,27.967417,77,65,0
27.95392,28.048397,75,63,0
28.0349,28.115557,73,61,0
28.115557,28.212677,72,61,0
28.198803,28.295341,73,61,0
28.28205,28.3751,75,62,0
28.361807,28.454857,77,64,0
28.441565,28.534407,78,66,0
28.521154,28.613914,80,66,0
28.600662,28.6933,82,68,0
28.68009,28.772774,84,70,0
28.759354,28.853289,82,70,0
28.839869,28.933804,80,71,0
28.920385,29.014318,78,73,0
29.0009,29.093376,77,75,0
29.080248,29.17214,75,75,0
29.159014,29.250786,73,73,0
29.2377,29.329311,72,72,0
29.316225,29.408085,75,73,0
29.39475,29.488092,78,77,0
29.474758,29.568102,74,68,0
29.554768,29.64811,76,74,0
29.634775,29.728203,75,66,0
29.714785,29.808718,72,72,0
29.7953,29.88919,66,68,0
29.875814,29.969442,71,69,0
29.956066,30.049654,72,70,0
30.03632,30.129663,73,72,0
30.116327,30.20963,72,73,0
30.196337,30.289387,74,74,0
30.276094,30.36902,75,74,0
30.355768,30.448528,76,75,0
30.435276,30.527914,75,76,0
30.514704,30.607178,76,78,0
30.593967,30.673145,77,79,0
30.673145,30.767374,80,80,0
30.753912,30.8471,78,81,0
30.834013,30.925625,83,82,0
30.912539,31.00415,84,84,0
30.991064,31.082678,85,85,0
31.06959,31.161001,84,86,0
31.147955,31.239285,86,87,0
31.226238,31.3177,87,88,0
31.304365,31.397707,88,90,0
31.384373,31.476372,87,91,0
31.463333,31.554295,88,92,0
31.541359,31.63185,89,92,0
31.618845,31.711018,92,93,0
31.697628,31.792452,94,94,0
31.778692,31.876286,92,96,0
31.862097,31.960936,91,97,0
31.947887,32.03922,90,95,0
32.026173,32.117504,101,95,0
32.104458,32.19563,99,93,0
32.18274,32.272964,90,91,0
32.260075,32.3503,99,89,0
32.33741,32.428062,97,87,0
32.414745,32.50795,89,85,0
32.494637,32.58777,97,83,0
32.574524,32.667233,96,81,0
32.653988,32.746483,87,80,0
32.733448,32.824696,96,78,0
32.81166,32.902878,94,76,0
32.88987,32.980927,85,74,0
32.96792,33.05897,94,73,0
33.045967,33.137062,92,71,0
33.124012,33.202297,84,69,0
33.202297,33.295925,92,68,0
33.28255,33.375313,90,67,0
33.362225,33.45384,82,65,0
33.440754,33.532364,90,64,0
33.51928,33.61101,89,62,0
33.597885,33.689777,80,61,0
33.676647,33.76854,89,60,0
33.755413,33.847427,87,59,0
33.83426,33.926434,78,57,0
33.913265,34.005436,87,56,0
33.99227,34.08457,85,55,0
34.07136,34.163837,77,54,0
34.150627,34.243103,82,53,0
34.22989,34.322487,80,51,0
34.309235,34.401997,77,51,0
34.388744,34.46825,73,50,0
34.46825,34.560196,72,48,0
34.547092,34.638783,73,49,0
34.625717,34.717155,75,50,0
34.704124,34.79524,76,51,0
34.78224,34.87311,77,52,0
34.86015,34.95077,78,53,0
34.937843,35.02822,80,53,0
35.01533,35.10605,81,55,0
35.09284,35.185314,79,54,0
35.172104,35.264225,80,53,0
35.25137,35.341362,75,53,0
35.328506,35.41867,76,51,0
35.40578,35.49619,68,51,0
35.483265,35.57385,76,50,0
35.56089,35.651722,75,48,0
35.638725,35.716774,73,47,0
35.716774,35.808468,72,45,0
35.7954,35.886837,73,47,0
35.873806,35.964993,75,48,0
35.951996,36.042866,76,50,0
36.029903,36.120525,77,51,0
36.107597,36.197975,78,52,0
36.18508,36.275215,80,53,0
36.262356,36.352978,81,53,0
36.33973,36.432487,79,55,0
36.419235,36.5116,80,53,0
36.498745,36.58877,75,53,0
36.575882,36.66622,76,52,0
36.653294,36.74395,68,51,0
36.73099,36.82193,76,51,0
36.8089,36.900227,73,50,0
36.88716,36.96571,71,48,0
36.96571,37.05733,70,47,0
37.044262,37.135628,71,48,0
37.122597,37.213715,73,50,0
37.200718,37.291584,74,51,0
37.278625,37.369247,75,51,0
37.35632,37.446693,76,53,0
37.433804,37.523937,78,53,0
37.511078,37.601482,79,54,0
37.588146,37.681488,77,55,0
37.668156,37.760983,78,54,0
37.74816,37.837948,75,53,0
37.82509,37.915188,76,53,0
37.902294,37.99274,73,52,0
37.979782,38.07054,74,51,0
38.057545,38.148624,71,50,0
38.135593,38.21393,69,49,0
38.21393,38.305656,68,48,0
38.292553,38.384815,69,49,0
38.371605,38.46395,71,50,0
38.450783,38.542915,72,51,0
38.52979,38.62164,73,52,0
38.608555,38.700165,74,53,0
38.68708,38.778492,76,53,0
38.76544,38.856983,77,55,0
38.843647,38.936993,75,56,0
38.923656,39.016674,76,53,0
39.003666,39.09476,73,54,0
39.081715,39.173084,74,52,0
39.159996,39.25161,71,53,0
39.23852,39.330338,72,51,0
39.317207,39.4093,71,51,0
39.396133,39.475227,69,50,0
39.475227,39.572487,68,59,0
39.55859,39.655853,69,57,0
39.641956,39.739216,73,63,0
39.725323,39.822296,72,58,0
39.80869,39.903946,70,61,0
39.89034,39.9856,69,59,0
39.97199,40.06725,78,63,0
40.05364,40.14865,77,61,0
40.135292,40.229736,75,61,0
40.21546,40.301113,73,63,0
40.301113,40.396297,84,68,0
40.38297,40.476433,82,66,0
40.462933,40.557434,80,65,0
40.543934,40.638577,78,64,0
40.624935,40.720417,77,63,0
40.70678,40.802193,75,63,0
40.78862,40.88432,73,63,0
40.870045,40.955696,72,57,0
40.955696,41.050934,82,61,0
41.037327,41.132256,80,60,0
41.11896,41.212017,78,59,0
41.198723,41.291985,77,58,0
41.278484,41.372986,75,57,0
41.359486,41.45377,73,61,0
41.44049,41.53399,72,61,0
41.520164,41.603096,70,58,0
41.603096,41.69568,80,62,0
41.68245,41.774807,78,61,0
41.761597,41.854164,77,60,0
41.84092,41.93373,75,59,0
41.920452,42.013588,73,58,0
42.00027,42.09366,72,57,0
42.080307,42.173763,70,64,0
42.16041,42.253872,69,62,0
42.24052,42.333977,68,59,0
42.320625,42.400448,67,57,0
42.400448,42.49301,68,64,0
42.47977,42.57269,67,61,0
42.559376,42.652687,66,58,0
42.639336,42.719585,65,56,0
42.719585,42.812153,67,63,0
42.79891,42.891827,66,60,0
42.878513,42.971825,65,58,0
42.958473,43.038723,64,55,0
43.038723,43.131046,66,63,0
43.117836,43.210506,65,60,0
43.197227,43.29029,64,57,0
43.276978,43.35659,63,55,0
43.35659,43.448895,65,64,0
43.43565,43.528656,64,62,0
43.51534,43.608883,63,58,0
43.59546,43.676228,62,56,0
43.676228,43.769554,64,62,0
43.7562,43.849884,63,59,0
43.83646,43.930542,62,56,0
43.917084,43.99807,61,53,0
43.99807,44.09115,63,59,0
44.07783,44.171265,62,57,0
44.157875,44.251816,61,54,0
44.238354,44.319195,60,51,0
44.319195,44.412884,63,58,0
44.399532,44.493324,61,55,0
44.479862,44.574238,60,52,0
44.560703,44.64213,58,50,0
44.64213,44.73489,57,40,0
44.72164,44.814198,58,42,0
44.800987,44.893333,60,42,0
44.880165,44.972298,61,44,0
44.95917,45.05102,63,45,0
45.037933,45.129547,64,46,0
45.11646,45.207874,65,47,0
45.194824,45.28624,66,48,0
45.27303,45.365505,64,51,0
45.352295,45.44457,65,49,0
45.43156,45.522655,62,47,0
45.509605,45.60098,63,46,0
45.58789,45.679504,60,45,0
45.666416,45.75823,61,44,0
45.745102,45.837196,60,43,0
45.824028,45.90312,58,41,0
45.90312,45.995293,57,39,0
45.982124,46.074097,58,41,0
46.06097,46.152824,60,42,0
46.139736,46.23135,61,44,0
46.21826,46.309753,63,45,0
46.296707,46.38804,64,47,0
46.37499,46.466125,65,49,0
46.453117,46.54442,66,51,0
46.531082,46.624428,64,51,0
46.61109,46.7028,65,50,0
46.689793,46.780968,62,48,0
46.767918,46.85925,63,48,0
46.846203,46.937737,60,46,0
46.92465,47.01638,61,45,0
47.003254,47.09519,60,45,0
47.08202,47.160545,58,43,0
47.160545,47.25198,60,39,0
47.23895,47.330063,61,41,0
47.317066,47.407936,63,42,0
47.394974,47.485596,65,44,0
47.472668,47.563046,66,45,0
47.550156,47.640636,72,47,0
47.62743,47.71989,70,45,0
47.70668,47.798786,60,47,0
47.78545,47.87879,58,39,0
47.86546,47.956757,60,41,0
47.943832,48.034103,61,43,0
48.021244,48.111202,63,45,0
48.09838,48.18803,65,47,0
48.17524,48.26533,72,49,0
48.25205,48.345005,70,47,0
48.331726,48.411404,66,48,0
48.411404,48.50302,64,39,0
48.489952,48.581245,65,41,0
48.568214,48.659225,66,42,0
48.646263,48.736954,65,44,0
48.72403,48.814476,70,47,0
48.801582,48.892067,69,45,0
48.878857,48.971317,78,54,0
48.95811,49.050213,77,52,0
49.03688,49.130222,75,56,0
49.11689,49.207718,73,53,0
49.19493,49.284645,70,51,0
49.27179,49.36192,65,47,0
49.348995,49.43958,63,47,0
49.42662,49.517876,61,45,0
49.504597,49.597553,58,44,0
49.584274,49.66353,53,42,0
49.66353,49.754967,57,40,0
49.741936,49.833157,58,42,0
49.820126,49.91117,60,42,0
49.898174,49.989044,61,44,0
49.97608,50.066772,63,45,0
50.05385,50.14433,64,46,0
50.1314,50.221706,65,47,0
50.208817,50.2993,66,48,0
50.28609,50.378567,64,51,0
50.365356,50.457626,65,49,0
50.44462,50.535088,62,47,0
50.522198,50.612644,63,46,0
50.59968,50.690445,60,45,0
50.67745,50.768528,61,44,0
50.755497,50.846897,60,43,0
50.83383,50.912724,58,41,0
50.912724,51.00445,57,47,0
50.99135,51.082893,58,49,0
51.069828,51.161194,60,50,0
51.148163,51.239277,61,52,0
51.22628,51.317223,63,54,0
51.30426,51.394985,64,56,0
51.382027,51.472576,65,58,0
51.45965,51.550552,66,60,0
51.537216,51.63056,64,60,0
51.617226,51.708584,65,59,0
51.695694,51.78596,62,57,0
51.773037,51.863518,63,57,0
51.850594,51.941246,60,55,0
51.928288,52.01912,61,53,0
52.006123,52.09734,60,53,0
52.08417,52.16297,58,51,0
52.16297,52.25494,59,52,0
52.241802,52.333565,61,53,0
52.32046,52.41212,63,55,0
52.39905,52.490536,64,56,0
52.477467,52.56895,66,58,0
52.55588,52.647366,68,60,0
52.634296,52.72578,70,62,0
52.71271,52.804478,71,63,0
52.791126,52.884583,73,66,0
52.87123,52.96469,75,68,0
52.95134,53.044796,76,70,0
53.031445,53.124905,78,72,0
53.111553,53.20501,80,73,0
53.191658,53.28512,82,76,0
53.271767,53.365223,83,77,0
53.35187,53.44533,85,80,0
53.43198,53.525436,88,81,0
53.512085,53.605545,87,78,0
53.592194,53.68565,83,78,0
53.6723,53.76576,80,77,0
53.752407,53.845863,78,74,0
53.83251,53.925972,75,72,0
53.91262,54.006077,71,72,0
53.992725,54.086185,68,70,0
54.072834,54.16629,66,68,0
54.15294,54.2464,63,64,0
54.233047,54.326504,59,61,0
54.313152,54.406612,56,61,0
54.39326,54.486717,54,59,0
54.473366,54.566826,51,59,0
54.553474,54.64693,47,57,0
54.63358,54.71305,44,56,0
54.71305,54.806007,40,62,0
54.792725,54.88568,41,63,0
54.872402,54.96536,46,64,0
54.95208,55.04493,45,64,0
55.031685,55.12439,42,65,0
55.11115,55.203854,41,65,0
55.19061,55.283314,49,65,0
55.27007,55.362602,48,65,0
55.349392,55.441853,46,67,0
55.428642,55.521103,45,67,0
55.507896,55.600323,54,69,0
55.587147,55.679363,53,70,0
55.66619,55.758408,49,70,0
55.745235,55.837452,48,70,0
55.824276,55.91639,58,71,0
55.903248,55.995148,57,71,0
55.98208,56.073555,54,71,0
56.060486,56.151962,53,72,0
56.138893,56.23026,61,72,0
56.217228,56.30845,60,72,0
56.295418,56.386604,58,73,0
56.373608,56.464584,57,73,0
56.451588,56.542564,66,73,0
56.529568,56.62036,65,74,0
56.607403,56.698128,61,74,0
56.685165,56.775856,60,75,0
56.76293,56.853413,70,75,0
56.84049,56.93097,69,75,0
56.91804,57.008347,66,76,0
56.995457,57.08569,65,76,0
57.0728,57.16293,73,76,0
57.150074,57.22721,72,77,0
57.22721,57.317204,70,77,0
57.304348,57.394165,69,77,0
57.381344,57.471092,78,78,0
57.45827,57.547916,77,78,0
57.53513,57.62464,73,79,0
57.611855,57.70133,72,79,0
57.688576,57.777843,82,79,0
57.76509,57.85436,81,80,0
57.841606,57.93077,78,80,0
57.918053,58.00708,77,80,0
57.99436,58.083355,85,81,0
58.07067,58.159462,84,81,0
58.14678,58.23557,82,81,0
58.222885,58.311504,81,82,0
58.298855,58.38741,90,82,0
58.37476,58.46321,89,82,0
58.450596,58.539116,85,83,0
58.526432,58.61536,84,83,0
58.602608,58.69198,94,84,0
58.67919,58.768974,93,84,0
58.75612,58.84639,90,84,0
58.833466,58.924156,89,85,0
58.91116,59.002346,97,85,0
58.98928,59.0819,96,85,0
59.067833,59.16633,101,93,0
59.405537,59.489964,77,100,0
59.405537,59.489964,69,85,0
59.405537,59.489964,63,85,0
59.7606,60.104164,70,100,0
59.7606,60.104164,82,113,0
0.18111575,0.6945683,41,84,0
0.18111575,0.6945683,29,70,0
0.6945683,1.1162423,60,71,0
0.6945683,1.1162423,53,53,0
0.6945683,1.1162423,48,47,0
1.1162423,1.4859313,60,70,0
1.1162423,1.4859313,53,52,0
1.1162423,1.4859313,48,46,0
1.4859313,1.8043772,60,72,0
1.4859313,1.8043772,53,53,0
1.4859313,1.8043772,48,47,0
1.8043772,2.1367133,60,74,0
1.8043772,2.1367133,53,55,0
1.8043772,2.1367133,48,48,0
2.1367133,3.988286,60,70,0
2.1367133,3.988286,53,52,0
2.1367133,3.988286,48,46,0
4.149058,4.3142557,46,53,0
4.3142557,4.3940134,53,23,0
4.3142557,4.3940134,61,29,0
4.632704,4.7912326,41,40,0
4.7912326,4.952263,46,57,0
4.952263,5.0312686,53,27,0
4.952263,5.0312686,61,34,0
5.2673254,5.425829,41,47,0
5.425829,5.5853443,46,65,0
5.5853443,5.663149,53,28,0
5.5853443,5.663149,61,35,0
5.8960886,6.05076,41,50,0
6.05076,6.2082896,46,68,0
6.2082896,6.2859426,53,34,0
6.2082896,6.2859426,61,41,0
6.517631,6.672689,41,46,0
6.672689,6.8307,46,60,0
6.8307,6.9090667,53,32,0
6.8307,6.9090667,61,38,0
7.143604,7.300575,41,42,0
7.300575,7.4610796,46,54,0
7.4610796,7.5405006,53,28,0
7.4610796,7.5405006,61,34,0
7.777949,7.937051,41,39,0
7.937051,8.099011,46,51,0
8.099011,8.178769,51,22,0
8.099011,8.178769,54,22,0
8.099011,8.178769,63,28,0
8.417625,8.578709,34,43,0
8.578709,8.7382555,46,59,0
8.7382555,8.817261,51,29,0
8.7382555,8.817261,54,29,0
8.7382555,8.817261,63,35,0
9.053556,9.21291,34,39,0
9.21291,9.373415,46,56,0
9.373415,9.451699,51,26,0
9.373415,9.451699,54,26,0
9.373415,9.451699,63,31,0
9.691013,9.851519,34,37,0
9.851519,10.011536,46,51,0
10.011536,10.091293,51,24,0
10.011536,10.091293,54,24,0
10.011536,10.091293,63,29,0
10.329902,10.486711,34,43,0
10.486711,10.647158,46,59,0
10.647158,10.725683,51,28,0
10.647158,10.725683,54,28,0
10.647158,10.725683,63,33,0
10.9611,11.11751,34,56,0
11.11751,11.278928,46,68,0
11.278928,11.357917,51,29,0
11.278928,11.357917,54,29,0
11.278928,11.357917,63,36,0
11.5942745,11.771558,46,59,0
11.771558,11.929088,45,73,0
11.929088,12.005952,54,36,0
11.929088,12.005952,63,43,0
12.237958,12.393093,33,46,0
12.393093,12.55311,45,60,0
12.55311,12.630915,54,31,0
12.55311,12.630915,63,37,0
12.864815,13.021147,44,40,0
13.021147,13.177795,46,55,0
13.177795,13.256321,53,28,0
13.177795,13.256321,61,34,0
13.492217,13.649828,46,39,0
13.649828,13.807838,49,49,0
13.807838,13.88693,53,25,0
13.807838,13.88693,58,25,0
13.807838,13.88693,65,29,0
14.124805,14.283821,49,33,0
14.283821,14.442675,51,41,0
14.442675,14.521853,57,20,0
14.442675,14.521853,66,25,0
14.758149,14.914719,51,35,0
14.914719,15.073248,49,49,0
15.073248,15.151296,53,18,0
15.073248,15.151296,58,18,0
15.073248,15.151296,65,28,0
15.386791,15.544808,49,40,0
15.544808,15.702659,51,50,0
15.702659,15.781424,57,22,0
15.702659,15.781424,66,27,0
16.016678,16.172771,51,36,0
16.172771,16.331482,49,51,0
16.331482,16.409609,53,24,0
16.331482,16.409609,58,24,0
16.331482,16.409609,65,29,0
16.644943,16.802233,49,36,0
16.802233,16.9584,53,42,0
16.9584,17.036097,59,23,0
16.9584,17.036097,68,28,0
17.267784,17.420952,53,39,0
17.420952,17.577265,51,54,0
17.577265,17.653643,55,26,0
17.577265,17.653643,60,26,0
17.577265,17.653643,67,32,0
17.884014,18.038633,51,35,0
18.038633,18.193533,53,42,0
18.193533,18.27067,59,23,0
18.193533,18.27067,68,28,0
18.50111,18.6538,53,38,0
18.6538,18.809248,51,52,0
18.809248,18.885355,55,26,0
18.809248,18.885355,60,26,0
18.809248,18.885355,67,32,0
19.114353,19.267315,51,45,0
19.267315,19.421986,53,55,0
19.421986,19.499321,56,23,0
19.421986,19.499321,61,23,0
19.421986,19.499321,68,28,0
19.727757,19.877182,53,40,0
19.877182,20.032803,54,55,0
20.032803,20.108374,57,28,0
20.032803,20.108374,60,28,0
20.032803,20.108374,69,34,0
20.337172,20.491747,54,39,0
20.491747,20.647491,53,51,0
20.647491,20.724976,56,27,0
20.647491,20.724976,61,27,0
20.647491,20.724976,68,30,0
20.956038,21.108795,53,45,0
21.108795,21.265291,52,59,0
21.265291,21.34167,58,29,0
21.265291,21.34167,61,29,0
21.265291,21.34167,67,34,0
21.573011,21.729454,52,49,0
21.729454,21.886583,51,64,0
21.886583,21.964788,57,30,0
21.886583,21.964788,66,37,0
21.886583,21.964788,60,30,0
22.198128,22.35256,51,55,0
22.35256,22.506521,49,66,0
22.506521,22.583935,53,30,0
22.506521,22.583935,58,30,0
22.506521,22.583935,65,37,0
22.975124,23.13664,41,91,0
23.298157,23.621187,63,81,0
23.237587,23.621187,48,68,0
23.257776,23.621187,53,68,0
23.277967,23.621187,57,68,0
24.324287,24.489485,46,96,0
24.324287,24.489485,34,77,0
24.489485,24.569242,53,51,0
24.489485,24.569242,61,62,0
24.489485,24.569242,49,43,0
24.807934,24.969015,41,79,0
24.807934,24.969015,29,60,0
24.969015,25.130548,46,98,0
24.969015,25.130548,34,78,0
25.130548,25.209314,53,50,0
25.130548,25.209314,61,62,0
25.130548,25.209314,49,42,0
25.445131,25.604053,41,77,0
25.445131,25.604053,29,61,0
25.604053,25.763071,46,93,0
25.604053,25.763071,34,73,0
25.763071,25.840876,53,52,0
25.763071,25.840876,61,63,0
25.763071,25.840876,49,44,0
26.073814,26.230236,41,79,0
26.073814,26.230236,29,62,0
26.230236,26.387287,46,96,0
26.230236,26.387287,34,79,0
26.387287,26.46486,53,60,0
26.387287,26.46486,61,72,0
26.387287,26.46486,49,51,0
26.696548,26.851606,41,74,0
26.696548,26.851606,29,56,0
26.851606,27.010136,46,92,0
26.851606,27.010136,34,70,0
27.010136,27.088589,53,58,0
27.010136,27.088589,61,68,0
27.010136,27.088589,49,49,0
27.323126,27.480097,41,65,0
27.323126,27.480097,29,49,0
27.480097,27.637547,46,77,0
27.480097,27.637547,34,62,0
27.637547,27.716473,53,48,0
27.637547,27.716473,61,57,0
27.637547,27.716473,49,40,0
27.95392,28.115557,41,59,0
27.95392,28.115557,29,45,0
28.115557,28.28205,46,67,0
28.115557,28.28205,34,56,0
28.28205,28.361807,51,33,0
28.28205,28.361807,54,39,0
28.28205,28.361807,63,47,0
28.600662,28.759354,41,62,0
28.600662,28.759354,29,47,0
28.759354,28.920385,46,76,0
28.759354,28.920385,34,64,0
28.920385,29.0009,51,39,0
28.920385,29.0009,54,47,0
28.920385,29.0009,63,57,0
29.2377,29.39475,41,67,0
29.2377,29.39475,29,51,0
29.39475,29.554768,45,89,0
29.39475,29.554768,33,69,0
29.554768,29.634775,51,42,0
29.554768,29.634775,54,50,0
29.554768,29.634775,63,61,0
29.875814,30.03632,39,63,0
29.875814,30.03632,27,48,0
30.03632,30.196337,45,81,0
30.03632,30.196337,33,61,0
30.196337,30.276094,51,39,0
30.196337,30.276094,54,47,0
30.196337,30.276094,63,57,0
30.514704,30.673145,39,82,0
30.514704,30.673145,27,64,0
30.673145,30.834013,45,98,0
30.673145,30.834013,33,78,0
30.834013,30.912539,51,42,0
30.834013,30.912539,54,50,0
30.834013,30.912539,63,61,0
31.147955,31.304365,39,77,0
31.147955,31.304365,27,57,0
31.304365,31.463333,45,93,0
31.304365,31.463333,33,74,0
31.463333,31.541359,51,46,0
31.463333,31.541359,54,55,0
31.463333,31.541359,63,66,0
31.778692,31.947887,39,82,0
31.778692,31.947887,27,62,0
31.947887,32.104458,44,99,0
31.947887,32.104458,32,76,0
32.104458,32.18274,60,61,0
32.104458,32.18274,66,73,0
32.104458,32.18274,51,51,0
32.414745,32.574524,39,69,0
32.414745,32.574524,27,53,0
32.574524,32.733448,44,82,0
32.574524,32.733448,32,63,0
32.733448,32.81166,60,51,0
32.733448,32.81166,66,61,0
32.733448,32.81166,51,43,0
33.045967,33.202297,32,58,0
33.202297,33.362225,44,73,0
33.362225,33.440754,61,43,0
33.362225,33.440754,65,52,0
33.362225,33.440754,53,43,0
33.676647,33.83426,32,51,0
33.83426,33.99227,44,58,0
33.99227,34.07136,53,38,0
33.99227,34.07136,61,45,0
34.309235,34.46825,32,42,0
34.46825,34.625717,44,49,0
34.625717,34.704124,54,30,0
34.625717,34.704124,60,37,0
34.625717,34.704124,51,30,0
34.937843,35.09284,32,42,0
35.09284,35.25137,44,51,0
35.25137,35.328506,52,24,0
35.25137,35.328506,61,38,0
35.56089,35.716774,32,45,0
35.716774,35.873806,44,49,0
35.873806,35.951996,54,30,0
35.873806,35.951996,60,37,0
35.873806,35.951996,51,30,0
36.18508,36.33973,44,42,0
36.33973,36.498745,49,51,0
36.498745,36.575882,52,24,0
36.498745,36.575882,61,38,0
36.8089,36.96571,43,45,0
36.96571,37.122597,42,49,0
37.122597,37.200718,58,30,0
37.122597,37.200718,64,37,0
37.122597,37.200718,54,30,0
37.433804,37.588146,30,42,0
37.588146,37.74816,42,51,0
37.74816,37.82509,54,24,0
37.74816,37.82509,62,38,0
37.74816,37.82509,59,24,0
38.057545,38.21393,41,45,0
38.21393,38.371605,40,49,0
38.371605,38.450783,56,30,0
38.371605,38.450783,62,37,0
38.371605,38.450783,52,30,0
38.68708,38.843647,28,42,0
38.843647,39.003666,40,51,0
39.003666,39.081715,52,24,0
39.003666,39.081715,60,38,0
39.003666,39.081715,57,24,0
39.317207,39.475227,40,45,0
39.317207,39.475227,28,38,0
39.475227,39.641956,41,57,0
39.475227,39.641956,29,48,0
39.80869,40.05364,63,49,0
39.767006,40.05364,53,41,0
39.725323,40.05364,48,41,0
40.135292,40.38297,61,52,0
40.094467,40.38297,53,44,0
40.05364,40.38297,46,44,0
40.462933,40.70678,66,47,0
40.42295,40.70678,58,40,0
40.38297,40.70678,51,40,0
40.78862,41.037327,60,57,0
40.7477,41.037327,54,48,0
40.70678,41.037327,44,48,0
41.11896,41.359486,65,49,0
41.078144,41.359486,56,41,0
41.037327,41.359486,49,41,0
41.44049,41.68245,58,52,0
41.399986,41.68245,49,44,0
41.359486,41.68245,42,44,0
41.761597,42.00027,63,47,0
41.722042,42.00027,54,40,0
41.68245,42.00027,48,40,0
42.080307,42.400448,61,47,0
42.080307,42.400448,58,40,0
42.080307,42.400448,53,40,0
42.080307,42.400448,49,40,0
42.400448,42.719585,60,47,0
42.400448,42.719585,51,40,0
42.400448,42.719585,54,40,0
42.400448,42.719585,58,40,0
43.038723,43.117836,54,53,0
43.117836,43.197227,53,51,0
43.197227,43.276978,52,48,0
43.276978,43.35659,51,46,0
43.35659,43.43565,53,54,0
43.43565,43.51534,52,52,0
43.51534,43.59546,51,49,0
43.59546,43.676228,50,47,0
43.676228,43.7562,52,52,0
43.7562,43.83646,51,49,0
43.83646,43.917084,50,47,0
43.917084,43.99807,49,45,0
43.99807,44.07783,51,50,0
44.07783,44.157875,50,48,0
44.157875,44.238354,49,46,0
44.238354,44.319195,48,43,0
44.319195,44.399532,51,49,0
44.399532,44.479862,49,46,0
44.479862,44.560703,48,44,0
44.560703,44.64213,46,41,0
44.64213,44.800987,39,39,0
44.800987,44.880165,45,23,0
44.800987,44.880165,54,28,0
45.11646,45.27303,39,42,0
45.27303,45.43156,37,54,0
45.43156,45.509605,46,21,0
45.43156,45.509605,53,32,0
45.745102,45.90312,37,34,0
45.90312,46.06097,39,41,0
46.06097,46.139736,45,25,0
46.06097,46.139736,54,29,0
46.37499,46.531082,39,42,0
46.531082,46.689793,37,56,0
46.689793,46.767918,46,28,0
46.689793,46.767918,53,33,0
47.003254,47.160545,37,36,0
47.160545,47.317066,39,39,0
47.317066,47.394974,46,25,0
47.317066,47.394974,54,29,0
47.62743,47.78545,39,41,0
47.78545,47.943832,41,49,0
47.943832,48.021244,49,26,0
47.943832,48.021244,58,30,0
48.25205,48.411404,29,38,0
48.411404,48.568214,41,39,0
48.568214,48.646263,51,25,0
48.568214,48.646263,57,29,0
48.878857,49.03688,41,40,0
49.03688,49.19493,46,57,0
49.19493,49.27179,53,28,0
49.19493,49.27179,61,33,0
49.504597,49.66353,37,36,0
49.66353,49.820126,39,43,0
49.820126,49.898174,45,23,0
49.820126,49.898174,54,28,0
50.1314,50.28609,39,42,0
50.28609,50.44462,37,56,0
50.44462,50.522198,46,21,0
50.44462,50.522198,53,32,0
50.755497,50.912724,37,34,0
50.912724,51.069828,39,48,0
51.069828,51.148163,45,30,0
51.069828,51.148163,54,35,0
51.382027,51.537216,39,43,0
51.537216,51.695694,37,63,0
51.695694,51.773037,46,33,0
51.695694,51.773037,53,39,0
52.006123,52.16297,37,43,0
52.16297,52.477467,54,57,0
52.16297,52.477467,47,48,0
52.16297,52.477467,39,48,0
52.791126,53.111553,66,61,0
52.791126,53.111553,51,52,0
52.791126,53.111553,54,52,0
52.791126,53.111553,59,52,0
53.111553,53.43198,64,55,0
53.111553,53.43198,49,46,0
53.111553,53.43198,54,46,0
53.111553,53.43198,58,46,0
53.43198,53.752407,54,55,0
53.43198,53.752407,47,55,0
53.43198,54.072834,63,65,0
54.71305,54.806007,28,52,0
54.792725,54.88568,29,52,0
54.872402,54.96536,34,52,0
54.95208,55.04493,33,53,0
55.031685,55.12439,30,53,0
55.11115,55.203854,29,53,0
55.19061,55.283314,37,54,0
55.27007,55.362602,36,54,0
55.349392,55.441853,34,54,0
55.428642,55.521103,33,55,0
55.507896,55.600323,42,55,0
55.587147,55.679363,41,56,0
55.66619,55.758408,37,56,0
55.745235,55.837452,36,56,0
55.824276,55.91639,46,56,0
55.903248,55.995148,45,56,0
55.98208,56.073555,42,56,0
56.060486,56.151962,41,57,0
56.138893,56.23026,49,57,0
56.217228,56.30845,48,57,0
56.295418,56.386604,46,58,0
56.373608,56.464584,45,58,0
56.451588,56.542564,54,58,0
56.529568,56.62036,53,59,0
56.607403,56.698128,49,59,0
56.685165,56.775856,48,60,0
56.76293,56.853413,58,60,0
56.84049,56.93097,57,60,0
56.91804,57.008347,54,60,0
56.995457,57.08569,53,60,0
57.0728,57.16293,61,60,0
57.150074,57.22721,60,61,0
57.22721,57.317204,58,61,0
57.304348,57.394165,57,61,0
57.381344,57.471092,66,62,0
57.45827,57.547916,65,62,0
57.53513,57.62464,61,63,0
57.611855,57.70133,60,63,0
57.688576,57.777843,70,63,0
57.76509,57.85436,69,64,0
57.841606,57.93077,66,64,0
57.918053,58.00708,65,64,0
57.99436,58.083355,73,64,0
58.07067,58.159462,72,64,0
58.14678,58.23557,70,64,0
58.222885,58.311504,69,65,0
58.298855,58.38741,78,65,0
58.37476,58.46321,77,65,0
58.450596,58.539116,73,66,0
58.526432,58.61536,72,66,0
58.602608,58.69198,82,67,0
58.67919,58.768974,81,67,0
58.75612,58.84639,78,67,0
58.833466,58.924156,77,68,0
58.91116,59.002346,85,68,0
58.98928,59.0819,84,68,0
59.067833,59.16633,89,74,0
59.405537,59.489964,53,75,0
59.405537,59.489964,41,64,0
59.66284,59.7606,34,91,0
59.7606,60.104164,61,86,0
59.7606,60.104164,53,72,0
59.7606,60.104164,46,72,0
