start_time,end_time,note_value,velocity,instrument_program_number
1.6884615,1.824208,72,40,0
1.824208,1.9599545,69,32,0
1.9599545,2.095701,65,32,0
2.095701,2.2314475,62,33,0
2.2314475,2.3657477,60,40,0
2.3657477,2.500048,65,36,0
2.500048,2.6343482,77,40,0
2.6343482,2.7686484,74,36,0
2.7686484,2.9029489,72,40,0
2.9029489,3.037249,69,32,0
3.037249,3.1715493,65,32,0
3.1715493,3.3058496,62,32,0
3.3058496,3.4401498,60,40,0
3.4401498,3.57445,65,37,0
3.57445,3.7087502,77,40,0
3.7087502,3.8430505,74,36,0
3.8430505,3.9757702,72,40,0
3.9757702,4.10849,69,35,0
4.10849,4.24121,65,34,0
4.24121,4.3750653,62,34,0
4.3750653,4.514285,60,40,0
4.514285,4.6501374,65,35,0
4.6501374,4.7880774,77,40,0
4.7880774,4.928791,74,36,0
4.928791,5.0646977,72,40,0
5.0646977,5.200604,69,35,0
5.200604,5.3365107,65,35,0
5.3365107,5.4724174,62,35,0
5.4724174,5.6083236,60,40,0
5.6083236,5.7442303,64,38,0
5.7442303,5.8801365,70,40,0
5.8801365,6.016043,67,37,0
6.016043,6.1519494,69,40,0
6.1519494,6.287856,65,37,0
6.287856,6.423763,60,33,0
6.423763,6.5562716,57,33,0
6.559669,6.6934304,60,37,0
6.6934304,6.827192,65,34,0
6.827192,6.9641905,70,37,0
6.827192,6.9641905,64,31,0
6.9641905,7.101189,67,37,0
7.101189,7.2349505,69,40,0
7.2349505,7.3687115,65,38,0
7.3687115,7.502473,60,35,0
7.502473,7.63289,57,35,0
7.6362343,7.769995,60,37,0
7.769995,7.9037566,65,34,0
7.9037566,8.037518,64,31,0
7.9037566,8.037518,70,37,0
8.037518,8.171279,67,36,0
8.171279,8.306471,69,40,0
8.306471,8.442377,65,37,0
8.442377,8.578283,60,33,0
8.578283,8.707395,57,33,0
8.7141905,8.8469095,60,37,0
8.8469095,8.9796295,65,32,0
8.9796295,9.114837,70,45,0
9.114837,9.2512865,68,41,0
9.2512865,9.385048,69,45,0
9.385048,9.523937,70,40,0
9.523937,9.662827,74,45,0
9.662827,9.801715,71,41,0
9.801715,9.940604,72,48,0
9.940604,10.0794935,76,46,0
10.0794935,10.218382,77,50,0
10.218382,10.361923,81,52,0
10.361923,10.497829,79,52,0
10.497829,10.633736,76,40,0
10.633736,10.769643,72,45,0
10.769643,10.905549,69,41,0
10.905549,11.039849,67,45,0
11.039849,11.1741495,72,40,0
11.1741495,11.30845,84,48,0
11.30845,11.44275,81,42,0
11.44275,11.57705,79,45,0
11.57705,11.71135,76,41,0
11.71135,11.845651,72,41,0
11.845651,11.979951,69,41,0
11.979951,12.114251,67,45,0
12.114251,12.248551,72,42,0
12.248551,12.382852,84,48,0
12.382852,12.517152,81,41,0
12.517152,12.649872,79,45,0
12.649872,12.782592,76,42,0
12.782592,12.915311,72,42,0
12.915311,13.048031,69,42,0
13.048031,13.188443,67,45,0
13.188443,13.325228,72,41,0
13.325228,13.463913,84,49,0
13.463913,13.604505,81,42,0
13.604505,13.740412,79,45,0
13.740412,13.876318,76,41,0
13.876318,14.012224,72,41,0
14.012224,14.14813,69,41,0
14.14813,14.284038,67,45,0
14.284038,14.419944,71,43,0
14.419944,14.55585,77,45,0
14.55585,14.691757,74,42,0
14.691757,14.827663,76,45,0
14.827663,14.96357,72,42,0
14.96357,15.099477,67,37,0
15.099477,15.230853,64,37,0
15.235383,15.369144,67,42,0
15.369144,15.502906,72,38,0
15.502906,15.639904,77,44,0
15.502906,15.639904,71,44,0
15.639904,15.776903,74,42,0
15.776903,15.910665,76,45,0
15.910665,16.044426,72,43,0
16.044426,16.178186,67,39,0
16.178186,16.30749,64,39,0
16.311949,16.44571,67,42,0
16.44571,16.57947,72,38,0
16.57947,16.713232,77,42,0
16.57947,16.713232,71,29,0
16.713232,16.846992,74,41,0
16.846992,16.982183,76,45,0
16.982183,17.118092,72,42,0
17.118092,17.253998,67,37,0
17.253998,17.383108,64,37,0
17.389904,17.522623,67,42,0
17.522623,17.655344,72,36,0
17.655344,17.79055,76,51,0
17.79055,17.927,79,49,0
17.927,18.060762,84,51,0
18.060762,18.19901,88,49,0
18.19901,18.33726,86,51,0
18.33726,18.475508,79,47,0
18.475508,18.613756,74,51,0
18.613756,18.752007,79,47,0
18.752007,18.890255,74,49,0
18.890255,19.028503,76,48,0
19.028503,19.16441,84,52,0
19.16441,19.300316,81,42,0
19.300316,19.436222,77,42,0
19.436222,19.572128,74,43,0
19.572128,19.706429,72,46,0
19.706429,19.840729,77,42,0
19.840729,19.97503,89,51,0
19.97503,20.109331,86,46,0
20.109331,20.243631,84,51,0
20.243631,20.377932,81,46,0
20.377932,20.512232,77,46,0
20.512232,20.646532,74,46,0
20.646532,20.780832,72,51,0
20.780832,20.915133,77,47,0
20.915133,21.049433,89,51,0
21.049433,21.183733,86,46,0
21.183733,21.316452,84,53,0
21.316452,21.449171,81,44,0
21.449171,21.581892,77,44,0
21.581892,21.714611,74,44,0
21.714611,21.85437,72,46,0
21.85437,21.990433,77,43,0
21.990433,22.12772,89,51,0
22.12772,22.26831,86,47,0
22.26831,22.404219,84,51,0
22.404219,22.540125,81,46,0
22.540125,22.676031,77,46,0
22.676031,22.811937,74,46,0
22.811937,22.947844,72,51,0
22.947844,23.08375,76,49,0
23.08375,23.219658,82,51,0
23.219658,23.355564,79,47,0
23.355564,23.49147,81,51,0
23.49147,23.627377,77,44,0
23.627377,23.763283,72,39,0
23.763283,23.895792,69,39,0
23.899189,24.032951,72,44,0
24.032951,24.166712,77,40,0
24.166712,24.30371,76,34,0
24.166712,24.30371,82,44,0
24.30371,24.44071,79,44,0
24.44071,24.57447,81,46,0
24.57447,24.708233,77,45,0
24.708233,24.841993,72,41,0
24.841993,24.97241,69,41,0
24.975754,25.109516,72,44,0
25.109516,25.243277,77,40,0
25.243277,25.377039,76,34,0
25.243277,25.377039,82,44,0
25.377039,25.5108,79,43,0
25.5108,25.64599,81,46,0
25.64599,25.781897,77,44,0
25.781897,25.917805,72,39,0
25.917805,26.045782,69,39,0
26.05371,26.18643,72,47,0
26.18643,26.319149,77,41,0
26.319149,26.454357,81,48,0
26.454357,26.590807,84,46,0
26.590807,26.727793,89,51,0
26.727793,26.86478,93,46,0
26.86478,27.001766,91,48,0
27.001766,27.138752,84,45,0
27.138752,27.275738,79,52,0
27.275738,27.412725,84,46,0
27.412725,27.55226,79,51,0
27.55226,27.691795,81,48,0
27.691795,27.826986,89,48,0
27.826986,27.962893,86,45,0
27.962893,28.098799,82,42,0
28.098799,28.234705,79,42,0
28.234705,28.367426,77,46,0
28.367426,28.500145,82,42,0
28.500145,28.635351,94,48,0
28.635351,28.771803,91,46,0
28.771803,28.905563,89,51,0
28.905563,29.039326,86,46,0
29.039326,29.173086,82,48,0
29.173086,29.306849,79,44,0
29.306849,29.440609,77,47,0
29.440609,29.57437,82,44,0
29.57437,29.708132,94,51,0
29.708132,29.841892,91,48,0
29.841892,29.977083,89,48,0
29.977083,30.112991,86,46,0
30.112991,30.248898,83,43,0
30.248898,30.384804,79,43,0
30.384804,30.517523,77,48,0
30.517523,30.650244,79,43,0
30.650244,30.78545,95,48,0
30.78545,30.9219,91,46,0
30.9219,31.055662,89,51,0
31.055662,31.189423,86,46,0
31.189423,31.323185,83,48,0
31.323185,31.456945,79,45,0
31.456945,31.590706,77,48,0
31.590706,31.724468,79,44,0
31.724468,31.858229,95,51,0
31.858229,31.991991,91,48,0
31.991991,32.127182,89,48,0
32.127182,32.26309,86,46,0
32.26309,32.398994,84,42,0
32.398994,32.5349,81,43,0
32.5349,32.66762,79,48,0
32.66762,32.800343,84,45,0
32.800343,32.935547,96,48,0
32.935547,33.072,93,46,0
33.072,33.20576,89,51,0
33.20576,33.33952,86,46,0
33.33952,33.47328,84,48,0
33.47328,33.607044,81,48,0
33.607044,33.740803,79,52,0
33.740803,33.874565,84,46,0
33.874565,34.008327,96,51,0
34.008327,34.194664,93,48,0
34.194664,34.329853,89,51,0
34.329853,34.46576,86,47,0
34.46576,34.601665,84,44,0
34.601665,34.734177,81,44,0
34.73757,34.870293,79,47,0
34.870293,35.003014,84,42,0
35.003014,35.13822,96,51,0
35.13822,35.27467,93,45,0
35.27467,35.412918,91,53,0
35.412918,35.551167,88,45,0
35.551167,35.689415,84,45,0
35.689415,35.827667,81,45,0
35.827667,35.965916,79,51,0
35.965916,36.104164,84,40,0
36.104164,36.24634,96,45,0
36.24634,36.388523,91,37,0
36.388523,36.52443,96,45,0
36.52443,36.660336,93,41,0
36.660336,36.79624,89,41,0
36.79624,36.932148,86,42,0
36.932148,37.06645,84,45,0
37.06645,37.20075,89,41,0
37.20075,37.33505,101,45,0
37.33505,37.46935,98,42,0
37.46935,37.60365,96,45,0
37.60365,37.73795,93,42,0
37.73795,37.87225,89,42,0
37.87225,38.00655,86,42,0
38.00655,38.14085,84,45,0
38.14085,38.27515,89,43,0
38.27515,38.40945,101,45,0
38.40945,38.54375,98,42,0
38.54375,38.67647,96,46,0
38.67647,38.809193,93,43,0
38.809193,38.94191,89,43,0
38.94191,39.07463,86,43,0
39.07463,39.21257,84,45,0
39.21257,39.346905,89,42,0
39.346905,39.482353,101,45,0
39.482353,39.62242,98,43,0
39.62242,39.758327,96,45,0
39.758327,39.894234,93,42,0
39.894234,40.03014,89,42,0
40.03014,40.166046,86,42,0
40.166046,40.301956,84,45,0
40.301956,40.437862,88,44,0
40.437862,40.57377,94,45,0
40.57377,40.709675,91,43,0
40.709675,40.84558,93,45,0
40.84558,40.981487,89,43,0
40.981487,41.117393,84,37,0
41.117393,41.2533,81,37,0
41.2533,41.387062,77,43,0
41.387062,41.52082,72,39,0
41.52082,41.65782,82,42,0
41.52082,41.65782,76,33,0
41.65782,41.79482,79,43,0
41.79482,41.92858,81,45,0
41.92858,42.062344,77,44,0
42.062344,42.196102,72,40,0
42.196102,42.329865,69,40,0
42.329865,42.462025,65,43,0
42.462025,42.59418,60,39,0
42.59418,42.730545,64,33,0
42.59418,42.730545,70,42,0
42.730545,42.86691,67,42,0
42.86691,43.002655,69,45,0
43.002655,43.1384,65,44,0
43.1384,43.27415,60,39,0
43.27415,43.4065,57,39,0
43.409897,43.54323,60,41,0
43.54323,43.676563,65,36,0
43.676563,43.81675,64,30,0
43.676563,43.81675,70,39,0
43.81675,43.956936,67,39,0
43.956936,44.09207,69,42,0
44.09207,44.227207,65,41,0
44.227207,44.362343,60,34,0
44.362343,44.4941,57,34,0
44.49748,44.63022,60,38,0
44.63022,44.762962,65,34,0
44.762962,44.9025,64,28,0
44.762962,44.9025,70,35,0
44.9025,45.042034,67,35,0
45.042034,45.17944,69,38,0
45.17944,45.316425,65,38,0
45.316425,45.45383,60,34,0
45.45383,45.591236,57,34,0
45.591236,45.72843,60,34,0
45.72843,45.86647,65,32,0
45.86647,46.005573,69,36,0
46.005573,46.145836,72,33,0
46.145836,46.28657,77,39,0
46.28657,46.43086,81,34,0
46.43086,46.57866,84,30,0
46.57866,46.730156,89,26,0
46.730156,46.886154,93,33,0
46.886154,47.04863,84,31,0
47.04863,47.2561,89,29,0
47.2561,47.58869,81,26,0
47.58869,48.597095,101,42,0
1.6884615,2.7686484,57,44,0
1.6163461,2.7686484,48,37,0
1.5442307,2.7686484,41,30,0
4.24121,4.3075695,47,33,0
4.3075695,4.3750653,48,33,0
3.8430505,4.3750653,36,47,0
4.3750653,4.44516,50,38,0
4.44516,4.514285,48,38,0
4.514285,4.582468,50,39,0
4.582468,4.6501374,48,40,0
4.6501374,4.7186317,50,40,0
4.7186317,4.7880774,48,41,0
4.7880774,4.8583026,47,42,0
4.8583026,4.928791,48,42,0
4.928791,5.4724174,57,47,0
5.4724174,6.016043,55,45,0
4.928791,6.016043,48,36,0
6.016043,6.287856,41,47,0
6.287856,6.423763,48,37,0
6.423763,6.559669,53,33,0
6.559669,6.827192,57,41,0
6.827192,7.101189,55,41,0
6.827192,7.101189,48,35,0
7.101189,7.3687115,41,48,0
7.3687115,7.502473,48,41,0
7.502473,7.6362343,53,36,0
7.6362343,7.9037566,57,42,0
7.9037566,8.171279,55,40,0
7.9037566,8.171279,48,40,0
8.171279,8.442377,41,47,0
8.442377,8.578283,48,45,0
8.578283,8.7141905,53,39,0
8.7141905,8.8469095,57,45,0
8.8469095,8.9796295,53,40,0
8.9796295,9.114837,62,40,0
9.114837,9.2512865,59,35,0
9.2512865,9.523937,60,43,0
9.523937,9.662827,70,39,0
9.662827,9.801715,68,36,0
9.801715,10.0794935,69,39,0
10.361923,11.44275,64,45,0
10.290153,11.44275,55,37,0
10.218382,11.44275,48,30,0
12.915311,12.981671,54,33,0
12.981671,13.048031,55,33,0
12.517152,13.048031,43,47,0
13.048031,13.118675,57,38,0
13.118675,13.188443,55,38,0
13.188443,13.257252,57,39,0
13.257252,13.325228,55,40,0
13.325228,13.394382,57,40,0
13.394382,13.463913,55,41,0
13.463913,13.534016,54,42,0
13.534016,13.604505,55,42,0
13.604505,14.14813,64,47,0
14.14813,14.691757,62,45,0
13.604505,14.691757,55,36,0
14.691757,14.96357,48,47,0
14.96357,15.099477,55,43,0
15.099477,15.235383,60,39,0
15.235383,15.502906,64,44,0
15.502906,15.776903,62,41,0
15.502906,15.776903,55,30,0
15.776903,16.044426,48,48,0
16.044426,16.178186,55,42,0
16.178186,16.311949,60,37,0
16.311949,16.57947,64,45,0
16.57947,16.846992,62,42,0
16.57947,16.846992,55,29,0
16.846992,17.027487,48,47,0
17.027487,17.208694,55,45,0
17.208694,17.389904,60,39,0
17.389904,17.566864,64,47,0
17.566864,17.745068,70,44,0
19.028503,20.109331,69,46,0
18.95938,20.109331,60,37,0
18.890255,20.109331,53,30,0
21.581892,21.64825,59,33,0
21.64825,21.714611,60,33,0
21.183733,21.714611,48,47,0
21.714611,21.784924,62,38,0
21.784924,21.85437,60,38,0
21.85437,21.922863,62,39,0
21.922863,21.990433,60,40,0
21.990433,22.05819,62,40,0
22.05819,22.12772,60,41,0
22.12772,22.197823,59,42,0
22.197823,22.26831,60,42,0
22.26831,22.811937,69,47,0
22.811937,23.355564,67,45,0
22.26831,23.355564,60,36,0
23.355564,23.627377,53,47,0
23.627377,23.763283,60,44,0
23.763283,23.899189,65,40,0
23.899189,24.166712,69,46,0
24.166712,24.44071,67,41,0
24.166712,24.44071,60,32,0
24.44071,24.708233,53,48,0
24.708233,24.841993,60,43,0
24.841993,24.975754,65,41,0
24.975754,25.243277,69,45,0
25.243277,25.5108,67,42,0
25.243277,25.5108,60,32,0
25.5108,25.691294,53,47,0
25.691294,25.872501,60,45,0
25.872501,26.05371,65,39,0
26.05371,26.23067,69,47,0
26.23067,26.408873,75,50,0
27.691795,27.872288,58,55,0
27.872288,28.053497,65,20,0
28.053497,28.234705,74,45,0
29.841892,30.022387,55,54,0
30.022387,30.203594,65,47,0
30.203594,30.384804,74,43,0
31.991991,32.172485,60,57,0
32.35369,32.5349,72,43,0
32.5349,34.194664,77,52,0
32.172485,34.194664,67,47,0
34.101494,34.194664,67,48,0
34.008327,34.73757,60,42,0
35.27467,35.551167,81,52,0
34.73757,36.388523,76,49,0
34.194664,36.388523,70,61,0
36.388523,37.46935,69,44,0
36.24634,37.46935,53,35,0
36.317432,37.46935,60,40,0
38.94191,39.00827,59,29,0
39.00827,39.07463,60,29,0
38.54375,39.07463,48,38,0
39.07463,39.144077,62,34,0
39.144077,39.21257,60,34,0
39.21257,39.28014,62,35,0
39.28014,39.346905,60,36,0
39.346905,39.41417,62,36,0
39.41417,39.482353,60,36,0
39.482353,39.551933,59,37,0
39.551933,39.62242,60,37,0
39.62242,40.166046,69,42,0
40.166046,40.709675,67,40,0
39.62242,40.709675,60,32,0
40.709675,40.981487,53,42,0
40.981487,41.117393,60,40,0
41.117393,41.2533,65,38,0
41.2533,41.52082,69,42,0
41.52082,41.79482,67,36,0
41.52082,41.79482,60,28,0
41.79482,42.062344,41,43,0
42.062344,42.196102,48,40,0
42.196102,42.329865,53,36,0
42.329865,42.59418,57,40,0
42.59418,42.86691,55,37,0
42.59418,42.86691,48,28,0
42.86691,43.1384,41,43,0
43.1384,43.27415,48,39,0
43.27415,43.409897,53,36,0
43.409897,43.676563,57,40,0
43.676563,43.956936,55,35,0
43.676563,43.956936,48,26,0
43.956936,44.227207,41,40,0
44.227207,44.362343,48,35,0
44.362343,44.49748,53,32,0
44.49748,44.762962,57,37,0
44.762962,45.042034,55,33,0
44.762962,45.042034,48,24,0
45.042034,45.45383,41,37,0
45.45383,45.591236,48,31,0
45.591236,45.72843,53,31,0
45.72843,45.86647,57,28,0
45.86647,46.005573,60,28,0
46.005573,46.145836,65,27,0
46.145836,46.28657,69,29,0
46.28657,46.43086,75,32,0
46.43086,46.57866,69,29,0
46.57866,46.730156,65,23,0
46.730156,46.886154,60,27,0
46.886154,47.04863,57,24,0
47.04863,47.2561,53,22,0
47.2561,47.58869,48,20,0
47.58869,48.597095,41,21,0
