start_time,end_time,note_value,velocity,instrument_program_number
7.9556937,10.005456,76,52,0
10.005456,10.957837,77,51,0
10.957837,11.963637,77,54,0
11.963637,13.929306,77,56,0
13.929306,16.919556,78,55,0
16.919556,17.65981,76,55,0
17.65981,17.90656,74,51,0
17.90656,18.91101,73,51,0
18.91101,19.992786,72,51,0
19.992786,21.018429,73,53,0
21.018429,23.055964,80,56,0
23.055964,23.41634,80,54,0
23.41634,24.020279,78,51,0
24.020279,24.2425,76,49,0
24.2425,26.23264,76,53,0
26.23264,27.169582,76,52,0
27.169582,28.129803,76,56,0
28.129803,30.087107,77,63,0
30.087107,33.062397,78,63,0
33.062397,33.80265,76,48,0
33.80265,34.049404,74,45,0
34.049404,35.03301,73,43,0
35.03301,36.0733,72,42,0
40.250423,41.25459,85,57,0
40.250423,41.25459,73,57,0
41.25459,42.22053,80,60,0
42.22053,42.559513,78,59,0
42.559513,42.876976,80,52,0
42.876976,43.194435,78,52,0
43.194435,43.948963,76,56,0
43.948963,44.21682,75,54,0
44.21682,46.191998,73,62,0
46.191998,48.13792,75,57,0
48.13792,48.892445,76,62,0
48.892445,49.132446,78,63,0
49.132446,50.092445,80,65,0
50.092445,51.11147,78,58,0
51.11147,52.205746,74,56,0
52.205746,54.227947,73,59,0
54.227947,55.279602,68,51,0
55.279602,56.33926,80,59,0
56.33926,57.345295,85,60,0
57.345295,58.328163,80,59,0
58.328163,58.648163,78,58,0
58.648163,58.968163,80,52,0
58.968163,59.288162,78,52,0
59.288162,60.04269,76,56,0
60.04269,60.315414,75,54,0
60.315414,62.29267,73,62,0
62.29267,64.21796,75,57,0
64.21796,64.97248,76,62,0
64.97248,65.22399,78,63,0
65.22399,66.1996,80,65,0
66.1996,67.21862,78,58,0
67.21862,68.31774,74,56,0
68.31774,72.52823,73,62,0
72.52823,74.56057,76,54,0
74.56057,75.51295,76,51,0
75.51295,76.47962,76,54,0
76.47962,77.44956,71,48,0
77.44956,78.15269,73,53,0
78.15269,78.41585,71,49,0
76.47962,78.41585,77,56,0
78.41585,79.40285,71,50,0
79.40285,80.145485,69,51,0
80.145485,80.41097,68,48,0
78.41585,81.41123,78,55,0
81.41123,82.15149,76,56,0
82.15149,82.41235,74,55,0
82.41235,83.42076,73,54,0
83.42076,84.50253,72,51,0
80.41097,84.50253,66,50,0
84.50253,85.528175,73,54,0
84.50253,85.528175,64,45,0
86.52785,86.70252,69,41,0
86.737915,86.916336,71,39,0
86.95237,87.1347,69,39,0
87.17156,87.35796,68,41,0
87.3957,87.586365,69,39,0
85.528175,87.624825,80,60,0
87.624825,88.55095,71,42,0
88.55095,88.87587,66,40,0
87.624825,88.87587,78,54,0
88.87587,90.89801,76,54,0
90.89801,91.85801,76,54,0
91.85801,92.84043,76,58,0
88.87587,92.84043,68,46,0
92.84043,93.81556,71,55,0
93.81556,94.54019,73,56,0
94.54019,94.80568,71,51,0
92.84043,94.80568,77,62,0
94.80568,95.771545,71,54,0
95.771545,96.48583,69,57,0
96.48583,96.746704,68,52,0
94.80568,97.772514,78,60,0
97.772514,98.51277,76,56,0
98.51277,98.78304,74,55,0
98.78304,99.75865,73,54,0
96.746704,100.742256,66,53,0
100.742256,101.742256,66,41,0
101.742256,102.50497,64,45,0
102.50497,102.77524,62,34,0
99.75865,102.77524,72,52,0
102.77524,103.794266,61,40,0
103.794266,104.94814,60,36,0
113.225685,113.994095,68,38,0
113.225685,113.994095,56,32,0
113.994095,114.23701,68,38,0
113.994095,114.23701,56,33,0
114.23701,114.74334,68,41,0
113.225685,114.74334,63,32,0
113.225685,114.74334,66,32,0
114.23701,114.74334,56,34,0
114.74334,115.460464,61,41,0
115.460464,115.703384,64,38,0
115.703384,116.18922,61,39,0
114.74334,116.18922,68,41,0
114.74334,116.18922,56,34,0
116.18922,116.89499,68,47,0
116.18922,116.89499,56,39,0
116.89499,117.124,68,45,0
116.89499,117.124,56,38,0
117.124,117.604,68,48,0
117.124,117.604,56,40,0
116.18922,117.604,60,39,0
117.604,118.293655,61,48,0
118.293655,118.52354,64,45,0
118.52354,118.98331,61,45,0
117.604,118.98331,68,48,0
117.604,118.98331,56,40,0
118.98331,119.662506,73,55,0
118.98331,119.662506,61,45,0
119.662506,119.88069,73,53,0
119.662506,119.88069,61,45,0
119.88069,120.32679,73,55,0
118.98331,120.32679,68,45,0
118.98331,120.32679,71,45,0
119.88069,120.32679,61,46,0
120.32679,120.98372,66,57,0
120.98372,121.2027,69,56,0
121.2027,121.65046,66,57,0
120.32679,121.65046,73,57,0
120.32679,121.65046,61,46,0
121.65046,122.306465,73,66,0
121.65046,122.306465,61,56,0
122.306465,122.51773,73,65,0
122.306465,122.51773,61,54,0
122.51773,122.952515,73,67,0
122.51773,122.952515,61,57,0
121.65046,122.952515,65,56,0
122.952515,123.58632,66,69,0
123.58632,123.797585,69,71,0
123.797585,124.29203,66,73,0
122.952515,124.29203,73,69,0
122.952515,124.29203,61,58,0
124.29203,125.083466,80,78,0
124.29203,125.083466,68,66,0
125.083466,125.19426,80,74,0
125.083466,125.19426,68,61,0
125.19426,125.63746,80,78,0
124.29203,125.63746,75,66,0
124.29203,125.63746,78,66,0
125.19426,125.63746,68,66,0
125.63746,126.38719,73,66,0
126.38719,126.49954,76,79,0
126.49954,126.92894,73,79,0
125.63746,126.92894,80,78,0
125.63746,126.92894,68,66,0
126.92894,127.671135,80,78,0
126.92894,127.671135,68,66,0
127.671135,127.7786,80,74,0
127.671135,127.7786,68,61,0
127.7786,128.20988,80,78,0
127.7786,128.20988,68,66,0
126.92894,128.20988,72,66,0
128.20988,128.95467,73,78,0
128.95467,129.06548,76,79,0
129.06548,129.52467,73,79,0
128.20988,129.52467,80,78,0
128.20988,129.52467,68,66,0
129.52467,130.2718,85,80,0
129.52467,130.2718,73,69,0
130.2718,130.38675,85,78,0
130.2718,130.38675,73,53,0
130.38675,130.5159,85,71,0
130.38675,130.5159,73,59,0
130.53435,130.66351,85,73,0
130.53435,130.66351,73,62,0
130.68196,130.81111,85,80,0
130.68196,130.81111,73,68,0
129.52467,130.82956,83,69,0
129.52467,130.82956,80,69,0
130.82956,131.57928,78,75,0
131.57928,131.69164,81,84,0
131.69164,132.13338,78,84,0
130.82956,132.13338,85,82,0
130.82956,132.13338,73,71,0
132.13338,132.70169,85,93,0
132.13338,132.70169,73,79,0
132.70169,132.77124,85,71,0
132.70169,132.77124,73,59,0
132.84079,132.91302,85,71,0
132.84079,132.91302,73,61,0
132.98793,133.06255,85,73,0
132.98793,133.06255,73,63,0
133.13718,133.2118,85,75,0
133.13718,133.2118,73,63,0
133.28644,133.36105,85,78,0
133.28644,133.36105,73,64,0
132.13338,133.43568,77,79,0
133.43568,134.18048,78,93,0
134.18048,134.29128,81,90,0
134.29128,134.74896,78,90,0
133.43568,134.74896,85,93,0
133.43568,134.74896,73,79,0
134.74896,135.57527,88,103,0
134.74896,135.57527,79,88,0
134.74896,135.57527,76,88,0
134.74896,135.57527,85,88,0
135.57527,135.6908,88,99,0
135.57527,135.6908,76,81,0
135.57527,135.6908,79,81,0
135.57527,135.6908,85,84,0
135.6908,136.15276,88,102,0
135.6908,136.15276,76,87,0
135.6908,136.15276,79,87,0
135.6908,136.15276,85,87,0
136.15276,136.5738,88,95,0
136.15276,136.5738,80,95,0
136.15276,136.5738,76,80,0
136.5738,137.01018,76,76,0
136.5738,137.01018,80,91,0
136.5738,137.01018,83,91,0
137.01018,137.40152,80,86,0
137.01018,137.40152,76,86,0
137.01018,137.40152,71,73,0
137.40152,137.45453,80,79,0
137.45453,137.88618,78,87,0
137.45453,137.88618,69,74,0
137.45453,137.88618,71,74,0
137.45453,137.88618,75,87,0
137.88618,138.32736,76,88,0
137.88618,138.32736,71,75,0
137.88618,138.32736,69,75,0
137.88618,138.32736,73,75,0
138.32736,138.79129,78,89,0
138.32736,138.79129,69,75,0
138.32736,138.79129,71,75,0
138.32736,138.79129,75,89,0
138.79129,139.48563,76,90,0
139.48563,139.72592,75,91,0
139.72592,140.23708,74,94,0
138.79129,140.23708,80,90,0
138.79129,140.23708,68,75,0
140.23708,141.04738,80,103,0
140.23708,141.04738,72,88,0
140.23708,141.04738,68,88,0
140.23708,141.04738,75,88,0
141.04738,141.16504,80,99,0
141.04738,141.16504,68,81,0
141.04738,141.16504,72,81,0
141.04738,141.16504,75,84,0
141.16504,141.6357,80,102,0
141.16504,141.6357,68,87,0
141.16504,141.6357,72,87,0
141.16504,141.6357,75,87,0
141.6357,142.30264,80,100,0
141.6357,142.30264,75,85,0
141.6357,142.30264,72,85,0
142.30264,142.53009,75,86,0
142.30264,142.53009,72,86,0
142.30264,142.53009,68,72,0
142.53009,143.01872,72,81,0
142.53009,143.01872,68,81,0
142.53009,143.01872,63,69,0
143.01872,143.70944,72,85,0
143.70944,143.96649,70,76,0
143.01872,143.96649,75,85,0
143.01872,143.96649,61,72,0
143.01872,143.96649,63,72,0
143.01872,143.96649,67,85,0
143.96649,144.35205,73,75,0
144.35205,144.49559,72,71,0
143.96649,144.49559,61,63,0
143.96649,144.49559,67,63,0
144.49559,145.92484,60,50,0
144.49559,145.92484,68,59,0
145.92484,146.59218,69,54,0
146.59218,146.81076,69,53,0
146.81076,147.24593,69,53,0
145.92484,147.24593,61,44,0
147.24593,147.8997,69,56,0
147.8997,148.11948,68,55,0
148.11948,148.58447,63,56,0
147.24593,148.58447,60,45,0
148.58447,149.22948,71,59,0
149.22948,149.4415,71,58,0
149.4415,149.8639,71,58,0
148.58447,149.8639,62,48,0
149.8639,150.49896,71,61,0
150.49896,150.71236,70,60,0
150.71236,151.16403,75,61,0
149.8639,151.16403,63,50,0
151.16403,151.79428,71,65,0
151.79428,152.00058,71,63,0
152.00058,152.41107,71,63,0
151.16403,152.41107,62,52,0
152.41107,153.02542,71,69,0
153.02542,153.23172,70,67,0
152.41107,153.23172,63,56,0
153.23172,153.65912,63,67,0
153.65912,154.27742,73,71,0
154.27742,154.47743,73,69,0
154.47743,154.87337,73,70,0
153.65912,154.87337,64,57,0
154.87337,155.46776,73,74,0
155.46776,155.6672,72,73,0
155.6672,156.08247,77,73,0
154.87337,156.08247,65,60,0
156.08247,156.68996,73,77,0
156.68996,156.8831,73,75,0
156.8831,157.26537,73,76,0
156.08247,157.26537,64,62,0
157.26537,157.83861,73,80,0
157.83861,158.0297,72,78,0
157.26537,158.0297,65,64,0
158.0297,158.43973,65,79,0
158.43973,158.82332,75,80,0
158.43973,158.82332,72,67,0
158.43973,158.82332,66,67,0
158.82332,159.21115,75,80,0
158.82332,159.21115,72,67,0
158.82332,159.21115,66,67,0
159.21115,159.60797,75,82,0
159.21115,159.60797,72,68,0
159.21115,159.60797,66,68,0
159.60797,160.00645,75,83,0
159.60797,160.00645,72,70,0
159.60797,160.00645,66,70,0
160.01065,160.42879,75,86,0
160.01065,160.42879,72,73,0
160.01065,160.42879,66,73,0
160.43318,160.946,76,91,0
160.43318,160.946,72,76,0
160.43318,160.946,66,76,0
160.946,161.30261,77,92,0
160.946,161.30261,73,78,0
160.946,161.30261,68,73,0
161.30637,161.6148,73,85,0
161.30637,161.6148,65,71,0
161.61806,161.939,68,80,0
161.61806,161.939,65,68,0
161.94238,162.89796,70,85,0
161.94238,162.89796,66,71,0
162.89796,162.93828,68,66,0
162.93828,162.97858,70,66,0
162.97858,163.0592,68,65,0
163.0592,163.22044,67,69,0
162.89796,163.22044,65,59,0
163.22044,163.294,68,70,0
163.22044,163.294,65,58,0
163.36737,163.44048,70,73,0
163.36737,163.44048,65,60,0
163.51338,163.58603,72,74,0
163.51338,163.58603,65,62,0
163.65848,163.7356,73,76,0
163.65848,163.7356,65,64,0
163.81271,164.10909,74,80,0
163.81271,164.10909,66,67,0
164.10909,164.42322,75,83,0
164.10909,164.42322,66,70,0
164.42322,164.77524,76,87,0
164.42322,164.77524,66,73,0
164.77524,165.12044,77,89,0
164.77524,165.12044,73,76,0
164.77524,165.12044,68,76,0
165.12407,165.427,73,85,0
165.12407,165.427,65,71,0
165.43019,165.74184,68,80,0
165.43019,165.74184,65,68,0
165.74512,166.7007,70,85,0
165.74512,166.7007,66,71,0
166.7007,166.74101,68,66,0
166.74101,166.78133,70,66,0
166.78133,166.86194,68,65,0
166.86194,167.02318,67,61,0
166.7007,167.02318,65,59,0
167.02318,167.09636,68,70,0
167.02318,167.09636,65,58,0
167.16939,167.24223,70,73,0
167.16939,167.24223,65,60,0
167.31488,167.38733,72,74,0
167.31488,167.38733,65,62,0
167.4597,167.54308,73,76,0
167.4597,167.54308,65,64,0
167.62643,167.93024,71,67,0
167.62643,167.93024,65,55,0
167.93024,168.2576,72,69,0
167.93024,168.2576,64,58,0
168.2576,168.63116,74,63,0
168.2576,168.63116,65,53,0
168.63116,168.98409,76,42,0
168.63116,168.98409,64,35,0
168.98781,169.31859,72,39,0
168.98781,169.31859,64,33,0
169.32207,169.65974,67,37,0
169.32207,169.65974,64,31,0
169.66331,170.66197,69,39,0
169.66331,170.66197,65,33,0
170.66197,170.70229,67,39,0
170.70229,170.7426,69,39,0
170.7426,170.82321,67,38,0
170.82321,170.98445,66,37,0
170.66197,170.98445,64,35,0
170.98445,171.05836,67,42,0
170.98445,171.05836,64,35,0
171.132,171.2053,69,44,0
171.132,171.2053,64,36,0
171.27834,171.35104,71,44,0
171.27834,171.35104,64,37,0
171.4235,171.50328,72,46,0
171.4235,171.50328,64,39,0
171.58307,171.88478,73,47,0
171.58307,171.88478,65,39,0
171.88478,172.20439,74,50,0
171.88478,172.20439,65,42,0
172.20439,172.53572,75,54,0
172.20439,172.53572,65,45,0
172.53572,172.8647,76,57,0
172.53572,172.8647,64,48,0
172.86815,173.18065,72,55,0
172.86815,173.18065,64,46,0
173.18394,173.48383,67,51,0
173.18394,173.48383,64,42,0
173.48697,173.77254,74,59,0
173.48697,173.77254,65,48,0
173.77254,174.0645,75,63,0
173.77254,174.0645,66,52,0
174.0645,174.35648,77,68,0
174.0645,174.35648,68,57,0
174.35648,174.6526,78,72,0
174.35648,174.6526,69,61,0
174.65573,174.94655,75,72,0
174.65573,174.94655,69,59,0
174.94962,175.23611,69,77,0
175.23912,175.51884,77,78,0
175.23912,175.51884,68,66,0
175.51884,175.8073,78,82,0
175.51884,175.8073,69,69,0
175.8073,176.10507,80,86,0
175.8073,176.10507,71,73,0
176.10507,176.40878,81,87,0
176.10507,176.40878,72,74,0
176.41197,176.70847,81,89,0
176.41197,176.70847,72,75,0
176.41197,176.70847,69,75,0
176.71164,177.01874,81,91,0
176.71164,177.01874,72,76,0
176.71164,177.01874,69,76,0
177.02199,177.33412,81,93,0
177.02199,177.33412,72,78,0
177.02199,177.33412,69,78,0
177.33745,177.65529,81,95,0
177.33745,177.65529,72,80,0
177.33745,177.65529,69,80,0
177.65866,177.9825,81,96,0
177.65866,177.9825,73,81,0
177.65866,177.9825,69,81,0
177.98595,178.3431,76,84,0
177.98595,178.81367,81,99,0
177.98595,178.81367,69,84,0
178.81367,179.4486,80,85,0
178.3431,179.4486,75,89,0
178.81367,179.4486,68,59,0
178.81367,179.4486,78,85,0
195.13258,197.1339,76,52,0
197.1339,198.08627,77,51,0
198.08627,199.06535,77,54,0
199.06535,201.00496,77,56,0
201.00496,203.96638,78,55,0
203.96638,204.70665,76,55,0
204.70665,204.9534,74,51,0
204.9534,205.95784,73,51,0
205.95784,207.08853,72,51,0
207.08853,208.14589,73,54,0
208.89565,209.17049,69,36,0
209.17049,209.34947,69,41,0
209.3855,209.568,71,39,0
209.60469,209.78954,69,39,0
209.82692,210.01534,68,41,0
210.05354,210.25165,69,39,0
208.14589,210.29166,80,60,0
210.29166,211.22858,71,40,0
211.22858,211.54317,66,40,0
210.29166,211.54317,78,54,0
211.54317,213.55777,76,54,0
213.55777,214.51776,76,54,0
214.51776,215.50018,76,58,0
211.54317,215.50018,68,46,0
215.50018,216.47531,71,55,0
216.47531,217.19995,73,56,0
217.19995,217.46544,71,51,0
215.50018,217.46544,77,62,0
217.46544,218.4313,71,55,0
218.4313,219.14558,69,57,0
219.14558,219.40646,68,52,0
217.46544,220.43227,78,60,0
220.43227,221.17253,76,56,0
221.17253,221.4428,74,55,0
221.4428,222.41841,73,54,0
219.40646,223.40201,66,53,0
223.40201,224.40201,66,60,0
224.40201,225.16472,64,58,0
225.16472,225.435,62,47,0
222.41841,225.435,72,52,0
225.435,226.45401,61,57,0
226.45401,227.55222,60,56,0
227.55222,228.66965,61,61,0
228.66965,229.72227,77,54,0
228.66965,229.72227,73,45,0
229.72227,230.77492,70,48,0
229.72227,230.77492,66,40,0
230.77492,231.53763,72,54,0
231.53763,231.82065,70,47,0
230.77492,231.82065,75,54,0
231.82065,232.88432,68,50,0
231.82065,232.88432,65,42,0
232.88432,233.91881,73,51,0
232.88432,233.91881,70,43,0
233.91881,234.9533,66,48,0
233.91881,234.9533,63,40,0
234.9533,235.7096,72,50,0
234.9533,235.7096,68,42,0
235.7096,236.03926,70,42,0
235.7096,236.03926,66,35,0
236.03926,238.29428,68,47,0
236.03926,238.29428,65,40,0
237.15884,239.3852,73,40,0
237.15884,239.3852,77,47,0
238.29428,240.55211,66,36,0
238.29428,240.55211,70,44,0
239.3852,241.7521,72,38,0
239.3852,241.7521,75,45,0
240.55211,242.89085,65,36,0
240.55211,242.89085,68,43,0
242.89085,244.02959,66,42,0
241.7521,244.02959,73,45,0
241.7521,244.02959,70,37,0
244.02959,244.91524,72,43,0
244.02959,244.91524,68,36,0
244.91524,245.26952,70,40,0
244.91524,245.26952,66,34,0
242.89085,245.26952,63,35,0
245.26952,250.61372,68,42,0
245.26952,250.61372,65,35,0
250.61372,253.76709,70,59,0
250.61372,253.76709,68,50,0
250.61372,253.76709,61,50,0
253.76709,257.945,70,66,0
253.76709,257.945,66,56,0
253.76709,257.945,61,56,0
257.945,262.7082,66,56,0
262.7082,265.95142,65,58,0
257.945,265.95142,73,66,0
257.945,265.95142,68,56,0
269.19467,280.90198,61,27,0
269.19467,280.90198,65,33,0
0.0,0.37037033,37,20,0
0.37037033,0.70370364,44,21,0
0.70370364,1.037037,56,22,0
1.037037,1.368108,49,23,0
1.368108,1.699179,44,24,0
1.699179,2.03025,37,26,0
2.03025,2.3477104,44,27,0
2.3477104,2.6651707,49,28,0
2.6651707,2.982006,56,29,0
2.982006,3.2982166,49,31,0
3.2982166,3.6175816,44,32,0
3.6175816,3.9401624,37,33,0
3.9401624,4.2651014,44,34,0
4.2651014,4.59004,49,34,0
4.59004,4.9159884,56,33,0
4.9159884,5.242946,49,32,0
5.242946,5.569904,44,31,0
5.569904,5.8989053,37,30,0
5.8989053,6.216366,44,30,0
6.216366,6.533826,49,29,0
6.533826,6.8512864,56,28,0
6.8512864,7.1890135,49,27,0
7.1890135,7.559654,44,26,0
7.559654,7.9556937,37,25,0
7.9556937,8.334018,44,26,0
8.334018,8.693632,49,25,0
8.693632,9.036287,56,26,0
9.036287,9.36349,49,27,0
9.36349,9.686727,44,28,0
9.686727,10.005456,37,29,0
10.005456,10.322917,44,28,0
10.322917,10.640377,49,29,0
10.640377,10.957837,59,30,0
10.957837,11.281751,49,30,0
11.281751,11.616508,44,31,0
11.616508,11.963637,37,32,0
11.963637,12.30999,44,33,0
12.30999,12.644747,49,31,0
12.644747,12.969306,59,30,0
12.969306,13.289306,49,30,0
13.289306,13.609305,44,29,0
13.609305,13.929306,37,28,0
13.929306,14.249306,45,28,0
14.249306,14.569305,49,28,0
14.569305,14.889305,57,28,0
14.889305,15.214509,49,28,0
15.214509,15.539712,45,28,0
15.539712,15.893741,37,28,0
15.893741,16.23568,45,32,0
16.23568,16.577618,50,29,0
16.577618,16.919556,57,29,0
16.919556,17.248558,50,28,0
17.248558,17.577559,45,27,0
17.577559,17.90656,37,26,0
17.90656,18.24032,45,25,0
18.24032,18.575665,50,24,0
18.575665,18.91101,57,24,0
18.91101,19.26039,50,24,0
19.26039,19.622417,45,24,0
19.622417,19.992786,37,24,0
19.992786,20.334667,44,26,0
20.334667,20.676548,52,24,0
20.676548,21.018429,61,23,0
21.018429,21.35165,52,23,0
21.35165,21.684874,44,23,0
21.684874,22.018095,37,23,0
22.018095,22.356379,35,26,0
22.356379,22.701967,47,24,0
22.701967,23.055964,63,24,0
23.055964,23.41634,57,24,0
23.41634,23.805,47,24,0
23.805,24.2425,35,24,0
24.2425,24.588854,40,26,0
24.588854,24.9243,47,27,0
24.9243,25.257633,64,28,0
25.257633,25.5855,56,28,0
25.5855,25.910706,47,29,0
25.910706,26.23264,39,30,0
26.23264,26.547602,37,31,0
26.547602,26.860102,44,32,0
26.860102,27.169582,56,33,0
27.169582,27.47731,49,34,0
27.47731,27.801256,44,35,0
27.801256,28.129803,37,36,0
28.129803,28.459703,44,39,0
28.459703,28.786905,49,39,0
28.786905,29.111454,59,38,0
29.111454,29.434034,49,38,0
29.434034,29.759237,44,37,0
29.759237,30.087107,37,37,0
30.087107,30.41231,45,36,0
30.41231,30.734245,49,36,0
30.734245,31.052977,57,35,0
31.052977,31.380844,49,34,0
31.380844,31.708714,45,34,0
31.708714,32.036583,37,33,0
32.036583,32.37852,45,30,0
32.37852,32.72046,50,28,0
32.72046,33.062397,57,26,0
33.062397,33.3914,50,27,0
33.3914,33.7204,45,25,0
33.7204,34.049404,37,25,0
34.049404,34.377274,45,25,0
34.377274,34.70514,50,24,0
34.70514,35.03301,57,24,0
35.03301,35.377186,50,24,0
35.377186,35.720787,45,24,0
35.720787,36.0733,37,24,0
36.0733,36.43304,45,26,0
36.43304,36.76648,50,24,0
36.76648,37.095703,57,23,0
37.095703,37.421574,50,23,0
37.421574,37.746777,45,23,0
37.746777,38.07198,37,23,0
38.07198,38.411655,45,26,0
38.411655,38.751328,50,24,0
38.751328,39.091003,57,24,0
39.091003,39.44568,50,24,0
39.44568,39.808453,45,24,0
39.808453,40.250423,37,24,0
40.250423,40.585766,44,34,0
40.585766,40.921112,56,28,0
40.921112,41.25459,61,28,0
41.25459,41.581127,52,28,0
41.581127,41.90306,44,29,0
41.90306,42.22053,37,29,0
42.22053,42.559513,37,31,0
42.559513,42.876976,44,24,0
42.876976,43.194435,60,24,0
43.194435,43.52978,54,24,0
43.52978,43.865124,44,24,0
43.865124,44.21682,37,24,0
44.21682,44.552166,37,27,0
44.552166,44.88751,44,27,0
44.88751,45.220318,61,28,0
45.220318,45.545525,52,29,0
45.545525,45.869415,44,29,0
45.869415,46.191998,37,30,0
46.191998,46.511997,37,30,0
46.511997,46.831997,44,31,0
46.831997,47.151997,60,32,0
47.151997,47.47331,54,32,0
47.47331,47.804585,44,33,0
47.804585,48.13792,37,33,0
48.13792,48.473263,37,34,0
48.473263,48.80861,44,29,0
48.80861,49.132446,61,30,0
49.132446,49.452446,52,30,0
49.452446,49.772446,44,30,0
49.772446,50.092445,37,30,0
50.092445,50.43212,32,26,0
50.43212,50.771793,44,24,0
50.771793,51.11147,60,24,0
51.11147,51.45636,54,24,0
51.45636,51.820072,44,24,0
51.820072,52.205746,32,24,0
52.205746,52.559868,37,26,0
52.559868,52.89461,44,23,0
52.89461,53.227947,61,24,0
53.227947,53.56128,52,24,0
53.56128,53.89461,44,24,0
53.89461,54.227947,37,24,0
54.227947,54.57212,37,26,0
54.57212,54.916294,44,24,0
54.916294,55.279602,60,24,0
55.279602,55.61495,54,24,0
55.61495,55.950294,44,24,0
55.950294,56.33926,37,24,0
56.33926,56.674606,37,34,0
56.674606,57.009953,44,32,0
57.009953,57.345295,61,32,0
57.345295,57.677067,52,32,0
57.677067,58.00427,44,31,0
58.00427,58.328163,37,31,0
58.328163,58.648163,37,26,0
58.648163,58.968163,44,24,0
58.968163,59.288162,60,24,0
59.288162,59.62351,54,24,0
59.62351,59.95885,44,24,0
59.95885,60.315414,37,24,0
60.315414,60.65076,37,26,0
60.65076,60.986107,44,26,0
60.986107,61.321453,61,27,0
61.321453,61.650677,52,27,0
61.650677,61.974567,44,28,0
61.974567,62.29267,37,29,0
62.29267,62.61461,32,29,0
62.61461,62.93208,44,30,0
62.93208,63.244587,60,30,0
63.244587,63.560818,54,31,0
63.560818,63.887375,44,32,0
63.887375,64.21796,32,32,0
64.21796,64.5533,37,35,0
64.5533,64.88865,44,34,0
64.88865,65.22399,61,33,0
65.22399,65.549194,52,32,0
65.549194,65.8744,44,31,0
65.8744,66.1996,37,29,0
66.1996,66.539276,42,26,0
66.539276,66.87895,50,24,0
66.87895,67.21862,57,24,0
67.21862,67.56575,44,24,0
67.56575,67.931145,54,24,0
67.931145,68.31774,60,24,0
68.31774,68.66337,37,26,0
68.66337,68.99534,44,23,0
68.99534,69.32591,61,24,0
69.32591,69.656494,52,24,0
69.656494,69.98707,44,24,0
69.98707,70.311455,37,24,0
70.31765,70.66183,37,26,0
70.66183,71.006,44,24,0
71.006,71.350334,56,24,0
71.350334,71.7036,49,24,0
71.7036,72.09048,44,24,0
72.09048,72.52823,37,24,0
72.52823,72.93563,44,26,0
72.93563,73.27394,49,26,0
73.27394,73.5914,56,26,0
73.5914,73.9186,49,27,0
73.9186,74.24184,44,28,0
74.24184,74.56057,37,28,0
74.56057,74.87803,44,29,0
74.87803,75.19549,49,29,0
75.19549,75.51295,56,30,0
75.51295,75.82916,49,30,0
75.82916,76.15175,44,31,0
76.15175,76.47962,37,32,0
76.47962,76.808846,44,32,0
76.808846,77.13209,49,32,0
77.13209,77.44956,56,31,0
77.44956,77.76206,49,30,0
77.76206,78.07456,44,30,0
78.07456,78.41585,37,29,0
78.41585,78.74484,42,28,0
78.74484,79.073845,49,27,0
79.073845,79.40285,61,27,0
79.40285,79.72741,54,26,0
79.72741,80.061455,49,25,0
80.061455,80.41097,42,23,0
80.41097,80.75001,30,26,0
80.75001,81.08335,42,24,0
81.08335,81.41123,57,24,0
81.41123,81.740234,50,24,0
81.740234,82.06924,42,24,0
82.06924,82.41235,30,24,0
82.41235,82.74849,32,26,0
82.74849,83.084625,44,24,0
83.084625,83.42076,56,24,0
83.42076,83.770134,51,24,0
83.770134,84.132164,44,24,0
84.132164,84.50253,32,24,0
84.511086,84.85297,37,26,0
84.84869,85.19057,44,24,0
85.186295,85.528175,61,23,0
85.528175,85.8614,52,23,0
85.8614,86.19462,44,23,0
86.19462,86.52785,37,23,0
86.52785,86.8803,35,26,0
86.8803,87.245636,47,24,0
87.245636,87.624825,63,24,0
87.624825,88.02788,57,24,0
88.02788,88.444565,47,24,0
88.444565,88.87587,35,24,0
88.87587,89.254425,40,30,0
89.254425,89.59513,47,31,0
89.59513,89.923,64,31,0
89.923,90.25087,56,32,0
90.25087,90.57607,47,32,0
90.57607,90.89801,39,33,0
90.89801,91.21801,37,34,0
91.21801,91.53801,44,34,0
91.53801,91.85801,56,35,0
91.85801,92.180595,49,35,0
92.180595,92.50848,44,36,0
92.50848,92.84043,37,36,0
92.84043,93.170334,37,37,0
93.170334,93.49555,44,37,0
93.49555,93.81556,61,36,0
93.81556,94.13302,53,35,0
94.13302,94.45822,44,34,0
94.45822,94.80568,37,33,0
94.80568,95.13088,37,32,0
95.13088,95.45282,45,31,0
95.45282,95.771545,61,30,0
95.771545,96.089005,54,29,0
96.089005,96.40646,45,29,0
96.40646,96.746704,37,28,0
96.746704,97.08864,37,26,0
97.08864,97.43058,45,24,0
97.43058,97.772514,57,24,0
97.772514,98.10152,50,24,0
98.10152,98.43052,45,24,0
98.43052,98.78304,37,24,0
98.78304,99.108246,37,26,0
99.108246,99.43345,45,24,0
99.43345,99.75865,57,24,0
99.75865,100.08652,50,24,0
100.08652,100.41439,45,24,0
100.41439,100.742256,37,24,0
100.742256,101.07559,37,26,0
101.07559,101.40893,45,22,0
101.40893,101.742256,57,24,0
101.742256,102.08124,50,27,0
102.08124,102.42023,45,23,0
102.42023,102.77524,37,23,0
102.77524,103.114914,37,26,0
103.114914,103.45459,45,24,0
103.45459,103.794266,57,24,0
103.794266,104.15054,50,24,0
104.15054,104.53457,45,24,0
104.53457,104.94814,37,24,0
104.94814,105.33294,45,26,0
105.33294,105.69022,50,22,0
105.69022,106.032104,57,24,0
106.032104,106.37181,62,27,0
106.37181,106.71008,57,23,0
106.71008,107.04622,50,23,0
107.04622,107.37955,45,26,0
107.37955,107.71288,50,24,0
107.71288,108.04485,57,25,0
108.04485,108.37613,50,24,0
108.37613,108.71585,45,24,0
108.71585,109.06369,37,24,0
109.06369,109.420044,50,26,0
109.420044,109.77325,57,23,0
109.77325,110.1226,62,25,0
110.1226,110.46669,66,27,0
110.46669,110.80712,62,23,0
110.80712,111.14256,57,23,0
111.14256,111.478,45,26,0
111.478,111.81771,50,24,0
111.81771,112.161064,57,24,0
112.161064,112.51291,50,26,0
112.51291,112.87569,45,24,0
112.87569,113.225685,37,24,0
113.40942,113.5949,43,26,0
113.58431,113.7613,44,26,0
113.751175,113.92324,45,26,0
113.913124,114.08518,44,26,0
114.075066,114.24756,45,26,0
114.23701,114.41633,44,26,0
114.405785,114.585106,45,26,0
114.57456,114.74334,44,26,0
113.225685,114.74334,36,31,0
114.9027,115.07202,43,26,0
115.062065,115.231384,44,27,0
115.22142,115.39075,45,27,0
115.38078,115.55156,44,27,0
115.54144,115.7135,45,27,0
115.703384,115.87545,44,27,0
115.865326,116.03739,45,27,0
116.02727,116.18922,44,27,0
114.74334,116.18922,37,30,0
116.353836,116.52212,43,33,0
116.51243,116.67553,44,29,0
116.665985,116.82819,45,29,0
116.81866,116.980865,44,29,0
116.97133,117.133995,45,29,0
117.124,117.294,44,30,0
117.284,117.454,45,30,0
117.444,117.604,44,29,0
116.18922,117.604,39,33,0
117.757256,117.92009,43,30,0
117.910515,118.07335,44,30,0
118.06377,118.2266,45,30,0
118.217026,118.37986,44,30,0
118.370285,118.53312,45,30,0
118.52354,118.68637,44,30,0
118.676796,118.83963,45,30,0
118.830055,118.98331,44,30,0
117.604,118.98331,40,34,0
119.14205,119.305016,48,45,0
119.295616,119.453415,49,40,0
119.44433,119.59888,50,41,0
119.58978,119.74433,49,41,0
119.73524,119.889984,50,41,0
119.88069,120.03868,49,41,0
120.02939,120.187386,50,41,0
120.17809,120.32679,49,40,0
118.98331,120.32679,41,45,0
120.47277,120.627884,48,41,0
120.61876,120.77387,49,43,0
120.76475,120.91985,50,44,0
120.91073,121.06584,49,44,0
121.05672,121.21203,50,44,0
121.2027,121.36128,49,44,0
121.35195,121.51054,50,44,0
121.501205,121.65046,49,44,0
120.32679,121.65046,42,46,0
121.80315,121.960396,48,55,0
121.9513,122.104,49,49,0
122.0952,122.24484,50,49,0
122.23604,122.38569,49,50,0
122.376884,122.52679,50,50,0
122.51773,122.671715,49,50,0
122.66266,122.81664,50,50,0
122.80759,122.952515,49,50,0
121.65046,122.952515,44,55,0
123.09336,123.24301,48,51,0
123.23421,123.38385,49,52,0
123.37505,123.5247,50,52,0
123.51589,123.66554,49,52,0
123.65674,123.80639,50,53,0
123.797585,123.94837,49,54,0
123.93931,124.09809,50,54,0
124.087975,124.29203,49,54,0
122.952515,124.29203,45,58,0
124.29203,124.475914,48,65,0
124.29203,124.475914,36,65,0
124.475914,124.62276,55,65,0
124.62276,124.76533,56,58,0
124.76533,124.90672,57,58,0
124.90672,125.04812,56,58,0
125.04812,125.19426,57,58,0
125.19426,125.341995,56,58,0
125.341995,125.48973,63,58,0
125.48973,125.63746,56,56,0
125.63746,125.780266,49,66,0
125.63746,125.780266,37,66,0
125.780266,125.92307,55,58,0
125.92307,126.06588,56,59,0
126.06588,126.20869,57,59,0
126.20869,126.35149,56,59,0
126.35149,126.49954,57,59,0
126.49954,126.64235,56,59,0
126.64235,126.78516,64,59,0
126.78516,126.92894,56,59,0
126.92894,127.07442,51,65,0
126.92894,127.07442,39,65,0
127.07442,127.21746,55,65,0
127.21746,127.35816,56,58,0
127.35816,127.49726,57,58,0
127.49726,127.63636,56,58,0
127.63636,127.7786,57,58,0
127.7786,127.92236,56,58,0
127.92236,128.06612,66,58,0
128.06612,128.20988,56,56,0
128.20988,128.35175,52,66,0
128.20988,128.35175,40,66,0
128.35175,128.4936,55,58,0
128.4936,128.63548,56,59,0
128.63548,128.77734,57,59,0
128.77734,128.9192,56,59,0
128.9192,129.06548,57,59,0
129.06548,129.20734,56,59,0
129.20734,129.36057,68,59,0
129.36057,129.52467,56,59,0
129.52467,129.67606,53,68,0
129.52467,129.67606,41,68,0
129.67606,129.81802,60,68,0
129.81802,129.95872,61,59,0
129.95872,130.09793,62,59,0
130.09793,130.23703,61,60,0
130.23703,130.38675,62,60,0
130.38675,130.53435,61,60,0
130.53435,130.68196,71,60,0
130.68196,130.82956,61,59,0
130.82956,130.97237,54,72,0
130.82956,130.97237,42,72,0
130.97237,131.11517,60,61,0
131.11517,131.25798,61,65,0
131.25798,131.40079,62,65,0
131.40079,131.5436,61,65,0
131.5436,131.69164,62,65,0
131.69164,131.83444,61,66,0
131.83444,131.98218,69,66,0
131.98218,132.13338,61,66,0
132.13338,132.27884,56,74,0
132.13338,132.27884,44,74,0
132.27884,132.42189,60,74,0
132.42189,132.56259,61,66,0
132.56259,132.70169,62,66,0
132.70169,132.84079,61,68,0
132.84079,132.98793,62,68,0
132.98793,133.13718,61,69,0
133.13718,133.28644,68,69,0
133.28644,133.43568,61,66,0
133.43568,133.57755,57,79,0
133.43568,133.57755,45,79,0
133.57755,133.71942,60,70,0
133.71942,133.86128,61,71,0
133.86128,134.00314,62,71,0
134.00314,134.145,61,72,0
134.145,134.29128,62,72,0
134.29128,134.43314,61,72,0
134.43314,134.58571,73,72,0
134.58571,134.74896,61,73,0
134.74896,134.83171,34,79,0
134.91324,134.99374,49,69,0
135.07312,135.15137,37,69,0
135.2287,135.30571,52,69,0
135.40198,135.479,40,69,0
135.53676,135.61378,55,69,0
135.6908,135.76782,43,70,0
135.84483,135.92186,58,69,0
135.99887,136.0759,46,69,0
136.15276,136.22293,47,72,0
136.2931,136.43346,59,70,0
136.43346,136.5738,56,69,0
136.5738,136.71927,64,68,0
136.71927,136.86472,59,66,0
136.86472,137.01018,68,65,0
137.01018,137.16055,64,63,0
137.16055,137.31093,59,60,0
137.31093,137.45453,56,59,0
137.45453,137.52647,35,60,0
137.5984,137.7423,47,61,0
137.7423,137.88618,54,63,0
137.88618,138.03323,59,65,0
138.03323,138.1803,54,66,0
138.1803,138.32736,63,67,0
138.32736,138.482,59,68,0
138.482,138.63664,54,69,0
138.63664,138.79129,47,70,0
138.79129,138.94337,40,71,0
138.94337,139.09605,52,66,0
139.09605,139.25055,47,66,0
139.25055,139.40689,40,74,0
139.40689,139.56499,56,68,0
139.56499,139.72592,47,70,0
139.72592,139.8914,40,78,0
139.8914,140.06163,59,71,0
140.06163,140.23708,47,73,0
140.23708,140.3135,39,79,0
140.38968,140.46585,51,69,0
140.54202,140.61821,39,69,0
140.69438,140.77281,56,69,0
140.85126,140.9297,39,69,0
141.00815,141.0866,60,69,0
141.16504,141.24348,39,70,0
141.32193,141.40038,63,69,0
141.4788,141.55725,39,69,0
141.6357,141.70895,68,72,0
141.7822,141.85545,63,70,0
141.9287,142.00195,72,69,0
142.0752,142.15102,68,68,0
142.22682,142.30264,63,66,0
142.37845,142.45427,60,65,0
142.53009,142.61153,56,63,0
142.69296,142.7744,51,60,0
142.85585,143.01872,39,59,0
143.01872,143.17221,27,57,0
143.17221,143.32571,39,56,0
143.32571,143.4792,46,56,0
143.4792,143.63269,55,56,0
143.63269,143.79512,51,56,0
143.79512,143.96649,46,55,0
143.96649,144.13785,39,54,0
144.13785,144.30922,51,54,0
144.30922,144.49559,63,53,0
144.49559,144.65889,32,52,0
144.65889,144.81244,51,47,0
144.81244,144.96735,44,46,0
144.96735,145.12392,51,45,0
145.12392,145.28204,44,44,0
145.28204,145.44174,51,42,0
145.44174,145.60278,44,46,0
145.60278,145.76381,51,40,0
145.76381,145.92484,44,39,0
145.92484,146.07593,52,52,0
146.07593,146.22533,44,35,0
146.22533,146.37306,52,35,0
146.37306,146.51918,44,35,0
146.51918,146.66516,52,35,0
146.66516,146.81076,44,35,0
146.81076,146.9562,52,36,0
146.9562,147.10114,44,36,0
147.10114,147.24593,52,36,0
147.24593,147.39034,44,44,0
147.39034,147.53526,51,48,0
147.53526,147.68073,44,37,0
147.68073,147.82657,51,37,0
147.82657,147.97296,44,37,0
147.97296,148.11948,51,37,0
148.11948,148.26805,44,37,0
148.26805,148.42282,51,37,0
148.42282,148.58447,44,38,0
148.58447,148.73059,53,56,0
148.73059,148.87486,44,38,0
148.87486,149.01747,53,38,0
149.01747,149.15881,44,38,0
149.15881,149.30016,53,39,0
149.30016,149.4415,44,39,0
149.4415,149.58234,53,39,0
149.58234,149.72319,44,39,0
149.72319,149.8639,53,39,0
149.8639,150.00426,44,48,0
150.00426,150.14511,54,50,0
150.14511,150.28632,44,40,0
150.28632,150.42804,54,40,0
150.42804,150.57014,44,40,0
150.57014,150.71236,54,40,0
150.71236,150.85692,44,41,0
150.85692,151.00731,54,41,0
151.00731,151.16403,44,41,0
151.16403,151.30716,53,55,0
151.30716,151.44826,44,42,0
151.44826,151.58739,53,42,0
151.58739,151.72531,44,42,0
151.72531,151.86313,53,42,0
151.86313,152.00058,44,42,0
152.00058,152.13768,53,43,0
152.13768,152.27455,44,43,0
152.27455,152.41107,53,43,0
152.41107,152.54724,44,46,0
152.54724,152.68341,54,55,0
152.68341,152.81993,44,44,0
152.81993,152.95692,54,44,0
152.95692,153.09415,44,44,0
153.09415,153.23172,54,44,0
153.23172,153.37086,44,44,0
153.37086,153.51476,54,44,0
153.51476,153.65912,44,45,0
153.65912,153.79898,55,59,0
153.79898,153.9374,44,45,0
153.9374,154.07437,55,45,0
154.07437,154.21008,44,45,0
154.21008,154.34442,55,46,0
154.34442,154.47743,44,46,0
154.47743,154.60945,55,46,0
154.60945,154.74146,44,46,0
154.74146,154.87337,55,46,0
154.87337,155.00494,44,51,0
155.00494,155.13684,56,62,0
155.13684,155.26897,44,49,0
155.26897,155.40141,56,48,0
155.40141,155.5342,44,48,0
155.5342,155.6672,56,48,0
155.6672,155.80144,44,49,0
155.80144,155.93973,56,49,0
155.93973,156.08247,44,49,0
156.08247,156.22398,55,67,0
156.22398,156.35934,44,50,0
156.35934,156.4929,55,50,0
156.4929,156.62471,44,50,0
156.62471,156.75479,55,50,0
156.75479,156.8831,44,50,0
156.8831,157.01059,55,51,0
157.01059,157.13797,44,51,0
157.13797,157.26537,55,51,0
157.26537,157.39275,44,58,0
157.39275,157.52014,56,69,0
157.52014,157.64754,44,52,0
157.64754,157.77492,56,52,0
157.77492,157.90231,44,52,0
157.90231,158.0297,56,52,0
158.0297,158.16188,44,53,0
158.16188,158.29887,56,53,0
158.29887,158.43973,44,54,0
158.43973,158.56712,57,64,0
158.56712,158.695,44,60,0
158.695,158.82332,57,60,0
158.82332,158.95215,44,60,0
158.95215,159.08139,57,61,0
159.08139,159.21115,44,61,0
159.21115,159.34306,57,61,0
159.34306,159.47551,44,61,0
159.47551,159.60797,57,62,0
159.60797,160.00645,57,67,0
159.60797,160.00645,44,56,0
160.01065,160.42879,57,68,0
160.01065,160.42879,44,58,0
160.43318,160.946,56,71,0
160.43318,160.946,44,60,0
160.946,161.30261,61,72,0
160.946,161.30261,56,59,0
160.946,161.30261,49,59,0
161.30637,161.6148,61,57,0
161.30637,161.6148,56,47,0
161.30637,161.6148,49,47,0
161.61806,161.939,61,57,0
161.61806,161.939,56,47,0
161.61806,161.939,49,47,0
162.26009,162.41484,42,62,0
162.5696,162.73378,30,62,0
161.94238,162.89796,61,64,0
161.94238,162.89796,54,54,0
162.89796,163.0592,37,62,0
163.22044,163.294,61,55,0
163.22044,163.294,56,46,0
163.22044,163.294,49,46,0
163.36737,163.44048,61,55,0
163.36737,163.44048,56,46,0
163.36737,163.44048,49,46,0
163.51338,163.58603,61,56,0
163.51338,163.58603,56,46,0
163.51338,163.58603,49,46,0
163.65848,163.7356,61,57,0
163.65848,163.7356,56,47,0
163.65848,163.7356,49,47,0
163.81271,164.10909,60,59,0
163.81271,164.10909,57,49,0
163.81271,164.10909,49,49,0
164.10909,164.42322,60,61,0
164.10909,164.42322,57,51,0
164.10909,164.42322,49,51,0
164.42322,164.77524,60,62,0
164.42322,164.77524,56,52,0
164.42322,164.77524,49,52,0
164.77524,165.12044,61,69,0
164.77524,165.12044,56,57,0
164.77524,165.12044,49,57,0
165.12407,165.427,61,57,0
165.12407,165.427,56,47,0
165.12407,165.427,49,47,0
165.43019,165.74184,61,57,0
165.43019,165.74184,56,47,0
165.43019,165.74184,49,47,0
166.06284,166.21759,42,62,0
166.37233,166.53651,30,62,0
165.74512,166.7007,61,64,0
165.74512,166.7007,54,54,0
166.7007,166.86194,37,62,0
167.02318,167.09636,61,55,0
167.02318,167.09636,56,46,0
167.02318,167.09636,49,46,0
167.16939,167.24223,61,55,0
167.16939,167.24223,56,46,0
167.16939,167.24223,49,46,0
167.31488,167.38733,61,56,0
167.31488,167.38733,56,46,0
167.31488,167.38733,49,46,0
167.4597,167.54308,61,57,0
167.4597,167.54308,56,47,0
167.4597,167.54308,49,47,0
167.62643,167.93024,55,49,0
167.62643,167.93024,49,39,0
167.93024,168.2576,55,50,0
167.93024,168.2576,48,41,0
168.2576,168.63116,59,45,0
168.2576,168.63116,55,37,0
168.2576,168.63116,48,37,0
168.63116,168.98409,60,32,0
168.63116,168.98409,55,26,0
168.63116,168.98409,48,26,0
168.98781,169.31859,60,26,0
168.98781,169.31859,55,22,0
168.98781,169.31859,48,22,0
169.32207,169.65974,60,26,0
169.32207,169.65974,55,22,0
169.32207,169.65974,48,22,0
169.9978,170.16,41,28,0
170.3222,170.4921,29,28,0
169.66331,170.66197,60,30,0
169.66331,170.66197,53,25,0
170.66197,170.82321,36,37,0
170.98445,171.05836,60,32,0
170.98445,171.05836,55,27,0
170.98445,171.05836,48,27,0
171.132,171.2053,60,33,0
171.132,171.2053,55,28,0
171.132,171.2053,48,28,0
171.27834,171.35104,60,33,0
171.27834,171.35104,55,28,0
171.27834,171.35104,48,28,0
171.4235,171.50328,60,34,0
171.4235,171.50328,55,29,0
171.4235,171.50328,48,29,0
171.58307,171.88478,59,35,0
171.58307,171.88478,56,28,0
171.58307,171.88478,48,28,0
171.88478,172.20439,59,37,0
171.88478,172.20439,56,30,0
171.88478,172.20439,48,30,0
172.20439,172.53572,59,39,0
172.20439,172.53572,55,31,0
172.20439,172.53572,48,31,0
172.53572,172.8647,60,44,0
172.53572,172.8647,55,36,0
172.53572,172.8647,48,36,0
172.86815,173.18065,60,36,0
172.86815,173.18065,55,30,0
172.86815,173.18065,48,30,0
173.18394,173.48383,60,36,0
173.18394,173.48383,55,30,0
173.18394,173.48383,48,30,0
173.48697,173.77254,59,44,0
173.48697,173.77254,56,36,0
173.77254,174.0645,60,46,0
173.77254,174.0645,57,38,0
174.0645,174.35648,62,49,0
174.0645,174.35648,59,40,0
174.35648,174.6526,63,55,0
174.35648,174.6526,60,45,0
174.65573,174.94655,63,47,0
174.65573,174.94655,60,39,0
174.94962,175.23611,63,49,0
174.94962,175.23611,60,41,0
175.23912,175.51884,62,55,0
175.23912,175.51884,59,46,0
175.51884,175.8073,63,57,0
175.51884,175.8073,60,48,0
175.8073,176.10507,65,60,0
175.8073,176.10507,62,51,0
176.10507,176.40878,66,57,0
176.10507,176.40878,63,48,0
176.41197,176.70847,66,60,0
176.41197,176.70847,63,51,0
176.71164,177.01874,66,63,0
176.71164,177.01874,63,53,0
177.02199,177.33412,66,66,0
177.02199,177.33412,63,56,0
177.33745,177.65529,66,69,0
177.33745,177.65529,63,58,0
177.65866,177.9825,66,73,0
177.65866,177.9825,61,61,0
177.98595,179.4486,66,76,0
177.98595,179.4486,60,64,0
179.4486,179.81683,60,86,0
179.4486,179.81683,48,73,0
179.81683,180.12062,61,91,0
179.81683,180.12062,49,77,0
180.12062,180.4299,62,96,0
180.12062,180.4299,50,81,0
180.4299,180.94077,64,99,0
180.4299,180.94077,52,84,0
180.94077,181.13321,63,94,0
180.94077,181.13321,51,79,0
181.13321,181.31476,61,93,0
181.13321,181.31476,49,79,0
181.31476,181.49072,60,92,0
181.31476,181.49072,48,78,0
181.49072,181.66144,57,91,0
181.49072,181.66144,45,77,0
181.66144,181.82704,56,91,0
181.66144,181.82704,44,77,0
181.82704,181.99158,55,90,0
181.82704,181.99158,43,76,0
181.99158,182.17717,56,84,0
181.99158,182.17717,44,71,0
182.17717,182.26508,59,88,0
182.17717,182.26508,47,74,0
182.35211,182.43874,57,88,0
182.35211,182.43874,45,74,0
182.52502,182.61082,56,88,0
182.52502,182.61082,44,74,0
182.69621,182.78128,54,87,0
182.69621,182.78128,42,73,0
182.86586,182.94997,52,87,0
182.86586,182.94997,40,73,0
183.03448,183.11946,51,87,0
183.03448,183.11946,39,73,0
183.20485,183.29073,49,86,0
183.20485,183.29073,37,73,0
183.37779,183.47119,48,86,0
183.37779,183.47119,36,73,0
183.5735,183.69164,51,86,0
183.5735,183.69164,39,73,0
183.8334,184.69362,45,102,0
183.8334,184.69362,33,86,0
184.69362,185.1114,44,92,0
184.69362,185.1114,32,78,0
185.1114,185.52808,43,97,0
185.1114,185.52808,31,82,0
185.52808,185.94473,44,97,0
185.52808,185.94473,32,82,0
185.94473,186.35152,39,98,0
185.94473,186.35152,27,83,0
186.35152,186.94754,42,94,0
186.35152,186.94754,30,79,0
186.94754,187.17831,40,90,0
186.94754,187.17831,28,76,0
187.17831,187.54868,37,102,0
187.54868,187.88202,44,38,0
187.88202,188.21535,56,39,0
188.21535,188.54642,49,41,0
188.54642,188.87749,44,43,0
188.87749,189.20856,37,45,0
189.20856,189.52602,44,47,0
189.52602,189.84348,49,46,0
189.84348,190.16032,56,44,0
190.16032,190.47653,49,43,0
190.47653,190.7959,44,42,0
190.7959,191.11847,37,40,0
191.11847,191.44342,44,42,0
191.44342,191.76836,49,40,0
191.76836,192.0943,56,38,0
192.0943,192.42126,49,36,0
192.42126,192.74821,44,34,0
192.74821,193.07722,37,31,0
193.07722,193.39468,44,30,0
193.39468,193.71214,49,29,0
193.71214,194.0296,56,28,0
194.0296,194.36732,49,27,0
194.36732,194.73796,44,26,0
194.73796,195.13258,37,25,0
195.13258,195.49663,44,26,0
195.49663,195.83139,49,25,0
195.83139,196.16472,56,26,0
196.16472,196.49193,49,27,0
196.49193,196.81517,44,28,0
196.81517,197.1339,37,29,0
197.1339,197.45135,44,28,0
197.45135,197.76881,49,29,0
197.76881,198.08627,59,30,0
198.08627,198.40756,49,30,0
198.40756,198.73477,44,31,0
198.73477,199.06535,37,32,0
199.06535,199.39322,44,33,0
199.39322,199.71976,49,31,0
199.71976,200.04497,59,30,0
200.04497,200.36496,49,30,0
200.36496,200.68497,44,29,0
200.68497,201.00496,37,28,0
201.00496,201.32497,45,28,0
201.32497,201.64496,49,28,0
201.64496,201.96497,57,28,0
201.96497,202.29018,49,28,0
202.29018,202.61537,45,28,0
202.61537,202.94058,37,28,0
202.94058,203.28252,45,32,0
203.28252,203.62445,50,29,0
203.62445,203.96638,57,29,0
203.96638,204.2954,50,28,0
204.2954,204.62439,45,27,0
204.62439,204.9534,37,26,0
204.9534,205.28716,45,25,0
205.28716,205.6225,50,24,0
205.6225,205.95784,57,24,0
205.95784,206.30724,50,24,0
206.30724,206.68002,45,24,0
206.68002,207.08853,37,24,0
207.08853,207.47704,44,26,0
207.47704,207.81256,52,24,0
207.81256,208.14589,61,23,0
208.14589,208.47911,52,23,0
208.47911,208.81233,44,23,0
208.81233,209.17049,37,23,0
209.17049,209.5313,35,26,0
209.5313,209.90213,47,24,0
209.90213,210.29166,63,24,0
210.29166,210.69934,57,24,0
210.69934,211.12047,47,24,0
211.12047,211.54317,35,24,0
211.54317,211.91623,40,30,0
211.91623,212.25218,47,31,0
212.25218,212.58275,64,31,0
212.58275,212.91063,56,32,0
212.91063,213.23582,47,32,0
213.23582,213.55777,39,33,0
213.55777,213.87776,37,34,0
213.87776,214.19777,44,34,0
214.19777,214.51776,56,35,0
214.51776,214.84035,49,35,0
214.84035,215.16823,44,36,0
215.16823,215.50018,37,36,0
215.50018,215.8301,37,37,0
215.8301,216.1553,44,37,0
216.1553,216.47531,61,36,0
216.47531,216.79277,53,35,0
216.79277,217.11798,44,34,0
217.11798,217.46544,37,33,0
217.46544,217.79063,37,32,0
217.79063,218.11258,45,31,0
218.11258,218.4313,61,30,0
218.4313,218.74876,54,29,0
218.74876,219.06622,45,29,0
219.06622,219.40646,37,28,0
219.40646,219.7484,37,26,0
219.7484,220.09033,45,24,0
220.09033,220.43227,57,24,0
220.43227,220.76128,50,24,0
220.76128,221.09027,45,24,0
221.09027,221.4428,37,24,0
221.4428,221.768,37,26,0
221.768,222.0932,45,24,0
222.0932,222.41841,57,24,0
222.41841,222.74628,50,24,0
222.74628,223.07414,45,24,0
223.07414,223.40201,37,24,0
223.40201,223.73535,37,31,0
223.73535,224.06868,45,26,0
224.06868,224.40201,57,28,0
224.40201,224.741,50,32,0
224.741,225.07999,45,27,0
225.07999,225.435,37,27,0
225.435,225.77467,37,31,0
225.77467,226.11435,45,28,0
226.11435,226.45401,57,28,0
226.45401,226.8087,50,28,0
226.8087,227.16925,45,28,0
227.16925,227.55222,37,28,0
227.55222,227.93874,37,35,0
227.93874,228.31087,44,25,0
228.31087,228.66965,61,30,0
228.66965,229.02052,53,27,0
229.02052,229.3714,44,27,0
229.3714,229.72227,37,27,0
229.72227,230.07317,37,31,0
230.07317,230.42404,44,28,0
230.42404,230.77492,60,32,0
230.77492,231.11389,51,28,0
231.11389,231.45288,44,27,0
231.45288,231.82065,37,27,0
231.82065,232.1802,37,37,0
232.1802,232.53497,44,26,0
232.53497,232.88432,58,34,0
232.88432,233.22916,49,26,0
233.22916,233.57397,44,26,0
233.57397,233.91881,37,26,0
233.91881,234.26364,37,29,0
234.26364,234.60846,44,26,0
234.60846,234.9533,56,33,0
234.9533,235.28943,48,26,0
235.28943,235.62556,44,26,0
235.62556,236.03926,37,26,0
236.03926,236.4131,37,35,0
236.4131,236.78693,44,25,0
236.78693,237.15884,61,30,0
237.15884,237.56702,53,25,0
237.56702,237.93065,44,25,0
237.93065,238.29428,37,25,0
238.29428,238.65791,37,28,0
238.65791,239.02156,44,25,0
239.02156,239.3852,60,31,0
239.3852,239.76169,51,25,0
239.76169,240.15005,44,25,0
240.15005,240.55211,37,25,0
240.55211,240.95212,37,33,0
240.95212,241.35211,44,24,0
241.35211,241.7521,58,29,0
241.7521,242.1317,49,23,0
242.1317,242.51128,44,23,0
242.51128,242.89085,37,23,0
242.89085,243.27043,37,26,0
243.27043,243.65001,44,24,0
243.65001,244.02959,56,28,0
244.02959,244.4232,48,23,0
244.4232,244.81683,44,23,0
244.81683,245.26952,37,23,0
245.26952,245.7457,37,31,0
245.7457,246.15808,44,22,0
246.15808,246.57045,56,27,0
246.57045,246.98282,49,22,0
246.98282,247.39519,44,22,0
247.39519,247.80666,37,22,0
247.80666,248.2444,44,31,0
248.2444,248.68051,49,26,0
248.68051,249.13528,56,28,0
249.13528,249.61037,49,30,0
249.61037,250.10765,44,32,0
250.10765,250.61372,37,35,0
250.61372,251.21074,42,42,0
251.21074,251.69855,49,30,0
251.69855,252.20486,61,31,0
252.20486,252.7112,54,33,0
252.7112,253.21153,49,35,0
253.21153,253.76709,42,36,0
253.76709,254.35533,30,44,0
254.35533,254.88164,49,37,0
254.88164,255.44502,61,37,0
255.44502,256.1117,54,37,0
256.1117,256.945,49,37,0
256.945,257.945,42,37,0
257.945,258.39957,25,55,0
258.85413,259.19894,37,44,0
259.54376,259.8886,44,46,0
260.23343,260.57104,49,48,0
260.93155,261.32007,56,50,0
261.74136,262.20145,61,51,0
269.19467,280.90198,37,25,0
265.95142,280.90198,53,22,0
265.95142,280.90198,44,22,0
265.95142,280.90198,49,22,0
265.95142,280.90198,56,27,0
