start_time,end_time,note_value,velocity,instrument_program_number
0.004115225,0.7918494,71,94,0
0.004115225,0.7918494,77,94,0
0.004115225,0.7918494,83,103,0
0.004115225,0.7918494,79,94,0
0.004115225,0.7918494,74,94,0
2.6517916,3.0331478,68,93,0
2.6517916,3.0331478,80,102,0
2.6517916,3.0331478,75,93,0
2.6517916,3.0331478,77,93,0
3.0331478,3.2142103,79,95,0
3.0331478,3.2142103,67,87,0
3.2142103,3.98168,74,96,0
3.2142103,3.98168,86,106,0
3.2142103,3.98168,77,96,0
3.2142103,3.98168,79,96,0
5.85476,6.2377386,68,92,0
5.85476,6.2377386,80,101,0
5.85476,6.2377386,75,92,0
5.85476,6.2377386,77,92,0
6.2377386,6.410027,79,95,0
6.2377386,6.410027,67,88,0
6.410027,6.6154923,86,96,0
6.410027,6.6154923,77,96,0
6.410027,6.6154923,89,106,0
6.410027,6.6154923,79,96,0
6.616989,6.7157917,92,87,0
6.70157,6.800613,91,80,0
6.791604,6.8908997,89,87,0
6.889394,6.9889665,86,77,0
6.974616,7.0744286,87,77,0
7.0653377,7.1654067,86,76,0
7.1585674,7.2589016,83,87,0
7.250518,7.3511276,79,77,0
7.3435054,7.4443855,80,77,0
7.433682,7.53482,79,76,0
7.5240836,7.6254807,77,87,0
7.613942,7.715597,74,77,0
7.7109675,7.812903,75,77,0
7.801293,7.903489,74,76,0
7.894172,7.996657,71,87,0
7.991222,8.093706,67,77,0
8.082837,8.185322,68,77,0
8.170569,8.273054,67,76,0
8.267619,8.370104,65,87,0
8.359235,8.461719,62,77,0
8.455508,8.557992,63,77,0
8.547123,8.649608,62,76,0
8.64029,8.742775,59,87,0
8.731129,8.833613,55,77,0
8.822744,8.925228,56,77,0
8.916688,9.019173,55,76,0
9.011409,9.1138935,53,87,0
9.107682,9.210167,50,77,0
9.198521,9.301005,51,77,0
9.29557,9.398055,50,76,0
9.387185,9.480353,48,69,0
9.476471,9.569639,47,69,0
9.568086,9.658099,55,73,0
9.662603,9.762037,53,72,0
9.751464,9.851399,51,71,0
9.838493,9.938941,50,70,0
9.93513,10.036132,51,69,0
10.025395,10.127525,50,69,0
10.114571,10.222919,48,69,0
10.220452,10.31879,47,68,0
10.311735,10.41152,58,76,0
10.408499,10.508453,56,74,0
10.497815,10.598244,55,76,0
10.586049,10.686892,53,74,0
10.678458,10.779803,55,74,0
10.767496,10.869606,53,73,0
10.867972,10.975816,51,73,0
10.963561,11.061538,50,73,0
11.056698,11.160714,63,82,0
11.157559,11.26194,62,83,0
11.252417,11.357461,60,84,0
11.345481,11.451081,59,85,0
11.438227,11.544456,60,85,0
11.533972,11.640675,59,87,0
11.636616,11.744344,56,88,0
11.732008,11.841293,55,89,0
11.82796,11.938803,56,90,0
11.932023,12.044665,55,89,0
12.036933,12.151336,53,92,0
12.137353,12.2537985,51,94,0
12.242025,12.36198,53,97,0
12.353798,12.478312,51,102,0
12.459253,12.708635,48,104,0
15.161997,15.294512,72,87,0
15.161997,15.294512,84,95,0
15.284138,15.667523,74,93,0
15.284138,15.667523,86,102,0
15.656261,15.791397,75,97,0
15.656261,15.791397,87,107,0
15.791397,16.587929,87,114,0
15.791397,16.587929,75,104,0
16.881088,16.99782,79,47,0
16.881088,16.99782,72,47,0
16.881088,16.99782,67,47,0
16.881088,16.99782,75,47,0
16.99782,17.385752,79,47,0
16.99782,17.385752,67,47,0
16.99782,17.385752,72,47,0
16.99782,17.385752,75,47,0
17.385752,17.52045,79,54,0
17.385752,17.52045,67,54,0
17.385752,17.52045,72,54,0
17.385752,17.52045,75,54,0
17.52045,18.374542,68,55,0
17.52045,18.374542,80,55,0
17.52045,18.374542,72,55,0
17.52045,18.374542,75,55,0
18.374542,18.588064,79,47,0
18.374542,18.588064,67,47,0
18.374542,18.588064,72,47,0
18.374542,18.588064,75,47,0
18.697971,18.827393,72,87,0
18.697971,18.827393,84,95,0
18.817019,19.201475,74,92,0
18.817019,19.201475,86,101,0
19.190462,19.32262,75,97,0
19.190462,19.32262,87,107,0
19.32262,20.121807,87,113,0
19.32262,20.121807,75,103,0
20.41739,20.530394,79,76,0
20.41739,20.530394,67,69,0
20.41739,20.530394,72,69,0
20.41739,20.530394,75,69,0
20.530394,20.894001,79,76,0
20.530394,20.894001,67,69,0
20.530394,20.894001,72,69,0
20.530394,20.894001,75,69,0
20.894001,21.02448,67,75,0
20.894001,21.02448,79,82,0
20.894001,21.02448,72,75,0
20.894001,21.02448,75,75,0
21.02448,22.654682,81,92,0
21.02448,22.654682,69,84,0
21.02448,22.654682,72,84,0
21.02448,22.654682,75,84,0
22.654682,22.898584,81,95,0
22.654682,22.95956,86,105,0
22.654682,22.95956,74,95,0
23.142487,23.557304,74,83,0
23.142487,23.557304,67,83,0
23.142487,23.557304,79,91,0
23.866758,23.984406,79,72,0
23.866758,23.984406,73,66,0
23.866758,23.984406,67,66,0
23.984406,24.337347,80,89,0
23.984406,24.337347,68,81,0
23.984406,24.337347,73,81,0
24.337347,24.454992,79,71,0
24.337347,24.454992,67,65,0
24.337347,24.454992,73,65,0
24.454992,24.698896,72,74,0
24.454992,24.7084,79,81,0
24.454992,24.7084,67,74,0
24.698896,24.812963,72,70,0
24.698896,24.812963,84,76,0
24.927032,25.337963,77,86,0
24.927032,25.337963,72,77,0
24.927032,25.337963,65,77,0
25.646162,25.760666,77,69,0
25.646162,25.760666,72,63,0
25.646162,25.760666,65,63,0
25.760666,26.116396,79,87,0
25.760666,26.116396,72,79,0
25.760666,26.116396,67,79,0
26.116396,26.243515,77,69,0
26.116396,26.243515,72,63,0
26.116396,26.243515,65,63,0
26.243515,27.76243,76,84,0
26.243515,27.76243,72,76,0
26.243515,27.76243,64,76,0
27.76243,27.869192,75,70,0
27.76243,27.869192,63,70,0
27.869192,28.315289,75,75,0
27.869192,28.315289,63,75,0
28.315289,28.724274,74,63,0
28.315289,28.724274,62,63,0
27.869192,28.724274,71,75,0
32.140514,32.263885,84,67,0
32.140514,32.263885,72,61,0
32.253723,32.630688,86,67,0
32.253723,32.630688,74,61,0
32.619576,32.752907,75,62,0
32.619576,32.752907,87,68,0
32.752907,33.556236,87,79,0
32.752907,33.556236,75,72,0
33.85132,33.962017,79,56,0
33.85132,33.962017,67,51,0
33.85132,33.962017,72,51,0
33.85132,33.962017,75,51,0
33.962017,34.31916,79,56,0
33.962017,34.31916,67,51,0
33.962017,34.31916,72,51,0
33.962017,34.31916,75,51,0
34.31916,34.444683,79,56,0
34.31916,34.444683,67,51,0
34.31916,34.444683,72,51,0
34.31916,34.444683,75,51,0
34.444683,35.28679,80,66,0
34.444683,35.28679,68,60,0
34.444683,35.28679,72,60,0
34.444683,35.28679,75,60,0
35.28679,35.497314,67,51,0
35.28679,35.497314,79,56,0
35.28679,35.497314,72,51,0
35.28679,35.497314,75,51,0
35.608204,35.728954,84,79,0
35.608204,35.728954,72,72,0
35.719093,36.08442,74,84,0
35.719093,36.08442,86,92,0
36.074013,36.198917,75,92,0
36.074013,36.198917,87,101,0
36.198917,37.001987,87,107,0
36.198917,37.001987,75,97,0
37.298042,37.40405,67,74,0
37.298042,37.40405,79,81,0
37.298042,37.40405,72,74,0
37.298042,37.40405,75,74,0
37.40405,37.748875,79,81,0
37.40405,37.748875,67,74,0
37.40405,37.748875,72,74,0
37.40405,37.748875,75,74,0
37.748875,37.869358,79,83,0
37.748875,37.869358,67,76,0
37.748875,37.869358,72,76,0
37.748875,37.869358,75,76,0
37.869358,39.512573,69,87,0
37.869358,39.512573,81,95,0
37.869358,39.512573,75,87,0
37.869358,39.512573,77,87,0
39.512573,40.12699,82,77,0
39.512573,40.12699,77,71,0
39.512573,40.12699,70,71,0
40.12699,40.536606,82,80,0
40.12699,40.536606,77,73,0
40.12699,40.536606,70,73,0
40.536606,40.946217,82,84,0
40.536606,40.946217,79,76,0
40.536606,40.946217,70,76,0
40.946217,41.355827,83,87,0
40.946217,41.355827,71,79,0
40.946217,41.355827,79,79,0
41.355827,41.76544,84,90,0
41.355827,41.76544,79,82,0
41.355827,41.76544,72,82,0
41.355827,41.76544,82,82,0
41.76544,42.175053,82,85,0
41.76544,42.175053,85,93,0
41.76544,42.175053,73,85,0
42.175053,42.383152,82,89,0
42.175053,42.391857,86,97,0
42.175053,42.391857,74,89,0
42.383152,42.59312,82,90,0
42.383152,42.601913,75,90,0
42.383152,42.601913,87,99,0
42.59312,42.805042,82,92,0
42.59312,42.813866,76,92,0
42.59312,42.813866,88,101,0
42.805042,43.665157,86,97,0
42.805042,43.665157,89,107,0
42.805042,43.665157,77,97,0
42.805042,43.665157,82,97,0
43.665157,44.073406,77,90,0
43.665157,44.073406,82,90,0
43.665157,44.073406,74,90,0
43.665157,44.37959,86,99,0
44.37959,44.48165,84,85,0
44.073406,44.48165,81,84,0
44.073406,44.48165,77,84,0
44.073406,44.48165,75,84,0
44.48165,44.678986,82,83,0
44.48165,44.678986,74,76,0
46.06361,47.233612,83,91,0
46.06361,47.233612,71,83,0
46.06361,47.233612,75,83,0
46.06361,47.233612,80,83,0
47.233612,47.575817,63,66,0
47.233612,47.575817,75,72,0
47.233612,47.575817,68,66,0
47.233612,47.575817,71,66,0
47.575817,47.7003,77,81,0
47.575817,47.7003,65,74,0
47.7003,48.87356,66,83,0
47.7003,48.87356,78,91,0
47.7003,48.87356,70,83,0
47.7003,48.87356,75,83,0
48.87356,49.213184,78,80,0
48.87356,49.213184,66,73,0
49.213184,49.335632,68,76,0
49.213184,49.335632,80,85,0
49.335632,50.504955,78,83,0
49.335632,50.504955,81,91,0
49.335632,50.504955,69,83,0
49.335632,50.504955,73,83,0
50.504955,50.82638,61,70,0
50.504955,50.82638,73,76,0
50.504955,50.82638,66,70,0
50.504955,50.82638,69,70,0
50.82638,50.940018,75,86,0
50.82638,50.940018,63,77,0
50.940018,52.10827,64,83,0
50.940018,52.10827,76,91,0
50.940018,52.10827,68,83,0
50.940018,52.10827,73,83,0
52.10827,52.42629,76,80,0
52.10827,52.42629,64,73,0
52.42629,52.54629,78,86,0
52.42629,52.54629,66,77,0
52.54629,53.743656,80,91,0
52.54629,53.743656,68,83,0
52.54629,53.743656,75,83,0
52.54629,53.743656,78,83,0
53.743656,54.078228,68,80,0
53.743656,54.078228,80,88,0
53.743656,54.078228,75,80,0
53.743656,54.078228,78,80,0
54.078228,54.196804,82,92,0
54.078228,54.196804,70,84,0
54.196804,54.616386,71,91,0
54.196804,54.616386,83,99,0
54.196804,54.616386,77,91,0
54.196804,54.616386,80,91,0
54.616386,55.438248,82,99,0
54.616386,55.438248,70,91,0
54.616386,55.438248,77,91,0
54.616386,55.438248,80,91,0
55.438248,55.80262,82,102,0
55.438248,55.80262,70,93,0
55.438248,55.80262,77,93,0
55.438248,55.80262,80,93,0
55.80262,55.93478,84,102,0
55.80262,55.93478,72,93,0
55.93478,56.387608,85,106,0
55.93478,56.387608,73,95,0
55.93478,56.387608,79,95,0
55.93478,56.387608,82,95,0
56.387608,56.797375,84,97,0
56.387608,56.797375,82,90,0
56.387608,56.797375,72,90,0
56.387608,56.797375,79,90,0
59.144844,59.95162,80,95,0
59.144844,59.95162,92,104,0
59.144844,59.95162,89,95,0
59.144844,59.95162,84,95,0
59.95162,60.368286,77,88,0
59.95162,60.368286,84,88,0
59.95162,60.368286,89,95,0
60.368286,60.795334,84,92,0
60.368286,60.795334,77,84,0
60.368286,60.795334,72,84,0
60.795334,61.61725,82,95,0
60.795334,61.61725,70,87,0
61.61725,62.017662,80,77,0
61.61725,62.017662,68,71,0
60.795334,62.017662,77,87,0
62.414204,63.220165,92,92,0
62.414204,63.220165,80,84,0
62.414204,63.220165,89,84,0
62.414204,63.220165,84,84,0
63.220165,63.64122,77,79,0
63.220165,63.64122,84,79,0
63.220165,63.64122,89,87,0
63.64122,64.072876,84,87,0
63.64122,64.072876,77,79,0
63.64122,64.072876,72,79,0
64.072876,65.26517,84,94,0
64.072876,65.26517,77,86,0
64.072876,65.26517,72,86,0
65.26517,65.5985,83,82,0
65.26517,65.5985,77,75,0
65.26517,65.5985,71,75,0
65.5985,65.71755,84,93,0
65.5985,65.71755,72,85,0
65.71755,66.50637,86,102,0
65.71755,66.50637,74,93,0
65.71755,66.50637,83,93,0
65.71755,66.50637,77,93,0
68.36935,68.7507,80,103,0
68.36935,68.7507,68,94,0
68.36935,68.7507,75,94,0
68.36935,68.7507,77,94,0
68.7507,68.93176,79,97,0
68.7507,68.93176,67,89,0
68.93176,69.699234,79,97,0
68.93176,69.699234,89,107,0
68.93176,69.699234,86,97,0
68.93176,69.699234,77,97,0
71.57231,71.95529,68,88,0
71.57231,71.95529,80,95,0
71.57231,71.95529,75,88,0
71.57231,71.95529,77,88,0
71.95529,72.12758,79,92,0
71.95529,72.12758,67,84,0
72.12758,72.333046,91,108,0
72.12758,72.333046,77,98,0
72.12758,72.333046,86,98,0
72.12758,72.333046,79,98,0
72.33454,72.43334,92,87,0
72.42511,72.52417,91,80,0
72.515915,72.61523,89,87,0
72.60544,72.70501,86,77,0
72.6967,72.796524,87,77,0
72.78744,72.88752,86,76,0
72.87916,72.9795,83,87,0
72.966545,73.067154,79,77,0
73.05724,73.15811,80,77,0
73.146645,73.24777,79,76,0
73.240105,73.34149,77,87,0
73.336876,73.43855,74,77,0
73.42543,73.52736,75,77,0
73.51575,73.617935,74,76,0
73.60786,73.71033,71,87,0
73.70644,73.80893,67,77,0
73.80039,73.90287,68,77,0
73.887344,73.98983,67,76,0
73.980515,74.083,65,87,0
74.07678,74.17927,62,77,0
74.17228,74.274765,63,77,0
74.26623,74.36871,62,76,0
74.35396,74.45644,59,87,0
74.44713,74.549614,55,77,0
74.53952,74.642006,56,77,0
74.63502,74.7375,55,76,0
74.72585,74.82834,53,87,0
74.82679,74.92927,50,77,0
74.917625,75.02011,51,76,0
75.005356,75.10784,50,76,0
75.10629,75.20877,48,76,0
75.19713,75.29024,47,76,0
75.287964,75.38691,55,77,0
75.3749,75.474304,53,76,0
75.46675,75.56667,51,74,0
75.559074,75.65954,50,73,0
75.65268,75.753685,51,72,0
75.74525,75.84754,50,71,0
75.83135,75.93965,48,69,0
75.93718,76.03559,47,69,0
76.02929,76.129074,58,74,0
76.12379,76.223724,56,73,0
76.21461,76.31503,55,73,0
76.30894,76.40981,53,72,0
76.396774,76.49812,55,72,0
76.48659,76.58879,53,71,0
76.57989,76.687645,51,70,0
76.68193,76.77988,50,69,0
76.77589,76.879845,63,76,0
76.871956,76.97632,62,77,0
76.96759,77.083,60,80,0
77.05905,77.175064,59,81,0
77.1622,77.278946,60,82,0
77.25717,77.37446,59,84,0
77.348495,77.466835,56,87,0
77.44956,77.569695,55,88,0
77.550514,77.67248,56,90,0
77.65381,77.77771,55,92,0
77.754486,77.88027,53,94,0
77.85752,77.98589,51,95,0
77.96226,78.09408,53,99,0
78.07499,78.20089,51,101,0
78.184555,78.333565,48,103,0
80.844215,80.973946,72,89,0
80.844215,80.973946,84,97,0
80.963264,81.146645,73,91,0
80.963264,81.146645,85,100,0
81.13421,81.46358,74,96,0
81.13421,81.46358,86,106,0
81.45591,81.571045,75,91,0
81.45591,81.571045,87,100,0
81.58794,82.41123,87,114,0
81.58794,82.41123,75,104,0
82.7148,82.81739,67,49,0
82.7148,82.81739,79,49,0
82.7148,82.81739,72,49,0
82.7148,82.81739,75,49,0
82.81739,83.16895,79,49,0
82.81739,83.16895,67,49,0
82.81739,83.16895,72,49,0
82.81739,83.16895,75,49,0
83.16895,83.30111,67,56,0
83.16895,83.30111,79,56,0
83.16895,83.30111,72,56,0
83.16895,83.30111,75,56,0
83.30111,84.14322,75,57,0
83.30111,84.14322,80,57,0
83.30111,84.14322,68,57,0
83.30111,84.14322,72,57,0
84.14322,84.2955,75,63,0
84.14322,84.2955,67,63,0
84.14322,84.2955,72,63,0
84.14322,84.30502,79,69,0
84.2955,84.44916,83,82,0
84.2955,84.45885,71,75,0
84.44916,84.61437,84,87,0
84.44916,84.61437,72,79,0
84.60417,84.77763,73,88,0
84.60417,84.77763,85,95,0
84.76743,84.955986,74,99,0
84.76743,84.955986,86,109,0
85.07093,85.18696,87,104,0
85.07093,85.18696,75,95,0
85.18696,86.00653,87,115,0
85.18696,86.00653,75,106,0
86.307816,86.41228,67,49,0
86.307816,86.41228,79,54,0
86.307816,86.41228,72,49,0
86.307816,86.41228,75,49,0
86.41228,86.7571,79,60,0
86.41228,86.7571,67,55,0
86.41228,86.7571,72,55,0
86.41228,86.7571,75,55,0
86.7571,86.88263,79,73,0
86.7571,86.88263,67,67,0
86.7571,86.88263,72,67,0
86.7571,86.88263,75,67,0
86.88263,88.215744,69,75,0
86.88263,88.215744,81,82,0
86.88263,88.215744,72,75,0
86.88263,88.215744,75,75,0
88.52494,88.67595,86,95,0
88.3676,88.67595,69,85,0
88.420044,88.67595,74,85,0
88.472496,88.67595,81,87,0
88.92763,89.33325,79,104,0
88.92763,89.33325,74,95,0
88.92763,89.33325,67,95,0
89.46846,89.60367,79,76,0
89.46846,89.60367,67,69,0
89.46846,89.60367,73,69,0
89.60367,89.73888,79,73,0
89.60367,89.73888,67,67,0
89.60367,89.73888,73,67,0
89.73888,89.877686,67,69,0
89.73888,89.877686,73,69,0
89.73888,89.877686,79,76,0
89.877686,90.0165,68,67,0
89.877686,90.0165,73,67,0
89.877686,90.0165,80,73,0
90.08591,90.15531,79,76,0
90.08591,90.15531,73,69,0
90.08591,90.15531,67,69,0
90.15531,90.26154,72,72,0
90.15531,90.27039,79,82,0
90.15531,90.27039,67,72,0
90.26154,90.367775,72,69,0
90.26154,90.367775,84,76,0
90.58095,90.99188,77,91,0
90.58095,90.99188,72,83,0
90.58095,90.99188,65,83,0
91.13304,91.27618,77,74,0
91.13304,91.27618,72,68,0
91.13304,91.27618,65,68,0
91.27618,91.42127,77,72,0
91.27618,91.42127,72,66,0
91.27618,91.42127,65,66,0
91.42127,91.540474,72,68,0
91.42127,91.550415,76,74,0
91.42127,91.550415,64,68,0
91.540474,91.65968,72,71,0
91.540474,91.67182,65,71,0
91.540474,91.67182,77,77,0
91.65968,91.768906,72,74,0
91.65968,91.768906,67,74,0
91.65968,91.768906,79,81,0
91.87485,91.95154,77,79,0
91.87485,91.95154,72,72,0
91.87485,91.95154,65,72,0
91.96687,92.19764,76,87,0
91.96687,92.19764,72,79,0
91.96687,92.19764,64,79,0
92.42683,93.57345,75,76,0
92.42683,93.57345,63,69,0
93.57345,93.676186,75,73,0
93.57345,93.676186,63,67,0
92.42683,93.676186,72,69,0
93.676186,94.08711,75,77,0
93.676186,94.08711,63,71,0
94.08711,94.49688,74,76,0
94.08711,94.49688,62,69,0
93.676186,94.49688,71,71,0
97.7976,97.96094,83,89,0
97.7976,97.96094,71,81,0
97.951256,98.11686,84,92,0
97.951256,98.11686,72,84,0
98.10627,98.286354,73,87,0
98.10627,98.286354,85,95,0
98.27576,98.46467,74,95,0
98.27576,98.46467,86,105,0
98.586624,98.70265,87,103,0
98.586624,98.70265,75,94,0
98.70265,99.51645,87,116,0
98.70265,99.51645,75,107,0
99.816444,99.92273,79,54,0
99.816444,99.92273,67,49,0
99.816444,99.92273,72,49,0
99.816444,99.92273,75,49,0
99.92273,100.263695,72,49,0
99.92273,100.263695,79,54,0
99.92273,100.263695,67,49,0
99.92273,100.263695,75,49,0
100.263695,100.37735,67,49,0
100.263695,100.37735,79,54,0
100.263695,100.37735,72,49,0
100.263695,100.37735,75,49,0
100.37735,101.22841,80,62,0
100.37735,101.22841,68,57,0
100.37735,101.22841,72,57,0
100.37735,101.22841,75,57,0
101.22841,101.38007,67,71,0
101.22841,101.38007,79,77,0
101.22841,101.38007,72,71,0
101.22841,101.38007,75,71,0
101.38007,101.543594,83,77,0
101.38007,101.543594,71,71,0
101.53385,101.700165,84,79,0
101.53385,101.700165,72,72,0
101.689735,101.82594,73,81,0
101.689735,101.82594,85,89,0
101.81493,101.94709,74,84,0
101.81493,101.96224,86,92,0
101.94709,102.08753,89,103,0
101.94709,102.08753,77,94,0
102.2447,102.36375,75,80,0
102.2447,102.36375,87,88,0
102.38756,103.20159,87,110,0
102.38756,103.20159,75,100,0
103.4996,103.598946,67,54,0
103.4996,103.598946,79,59,0
103.4996,103.598946,72,54,0
103.4996,103.598946,75,54,0
103.598946,103.92861,75,56,0
103.598946,103.92861,79,61,0
103.598946,103.92861,67,56,0
103.598946,103.92861,72,56,0
103.92861,104.05849,79,70,0
103.92861,104.05849,67,64,0
103.92861,104.05849,72,64,0
103.92861,104.05849,75,64,0
104.05849,105.71058,81,82,0
104.05849,105.71058,75,75,0
104.05849,105.71058,69,75,0
105.71058,106.58677,82,106,0
105.71058,106.58677,73,95,0
105.71058,106.58677,70,95,0
106.58677,107.02113,68,83,0
106.58677,107.02113,80,91,0
106.58677,107.02113,70,83,0
106.58677,107.02113,73,83,0
107.02113,107.35323,78,91,0
107.02113,107.35323,66,83,0
107.02113,107.35323,70,83,0
107.02113,107.35323,73,83,0
107.35323,107.473526,77,91,0
107.35323,107.473526,65,83,0
107.35323,107.473526,70,83,0
107.35323,107.473526,73,83,0
107.473526,108.33716,73,89,0
107.473526,108.33716,77,98,0
107.473526,108.33716,65,89,0
108.33716,108.76403,76,91,0
108.33716,108.76403,64,83,0
107.473526,108.76403,70,89,0
109.226654,110.0902,68,91,0
109.226654,110.0902,80,100,0
109.226654,110.0902,71,91,0
109.226654,110.0902,76,91,0
110.0902,110.51574,78,87,0
110.0902,110.51574,66,79,0
110.0902,110.51574,68,79,0
110.0902,110.51574,71,79,0
110.51574,110.84907,76,87,0
110.51574,110.84907,64,79,0
110.51574,110.84907,68,79,0
110.51574,110.84907,71,79,0
110.84907,110.96535,63,76,0
110.84907,110.96535,75,84,0
110.84907,110.96535,68,76,0
110.84907,110.96535,71,76,0
110.96535,111.834915,71,87,0
110.96535,111.834915,63,87,0
110.96535,111.834915,75,95,0
111.834915,112.2697,74,87,0
111.834915,112.2697,62,79,0
110.96535,112.2697,68,87,0
112.73681,114.47272,79,87,0
112.73681,114.47272,75,77,0
112.73681,114.47272,67,77,0
114.47272,115.34544,67,53,0
114.47272,115.99999,79,65,0
115.99999,116.21817,77,67,0
115.34544,116.21817,67,60,0
114.47272,116.21817,74,53,0
116.21817,117.08306,77,74,0
117.08306,117.955795,75,70,0
116.21817,117.955795,72,61,0
116.21817,117.955795,67,61,0
118.06488,118.17397,75,57,0
118.17397,118.283066,77,59,0
118.283066,118.39216,75,62,0
118.39216,118.71943,73,66,0
118.71943,118.82852,75,70,0
118.82852,119.264885,77,75,0
118.01034,119.70125,68,48,0
119.264885,119.70125,68,66,0
117.955795,119.70125,65,48,0
119.70125,123.04739,72,68,0
119.70125,123.04739,63,63,0
123.04739,123.665955,72,67,0
123.665955,123.88256,71,60,0
123.88256,124.292114,74,67,0
123.04739,124.292114,65,60,0
123.04739,124.292114,62,60,0
126.322754,126.426926,60,71,0
126.322754,128.72063,72,71,0
128.72063,129.52129,74,55,0
127.91466,129.52129,68,49,0
127.91466,129.52129,65,49,0
129.52129,131.10844,76,56,0
129.52129,131.10844,67,53,0
129.52129,131.10844,64,53,0
131.10844,131.92714,67,41,0
131.10844,132.3588,72,50,0
132.3588,132.79836,74,55,0
131.10844,132.79836,68,41,0
131.92714,132.79836,65,46,0
131.10844,132.79836,60,41,0
132.3588,132.79836,71,51,0
132.79836,133.01814,72,54,0
132.79836,133.01814,67,54,0
132.79836,133.01814,64,54,0
132.79836,133.01814,76,64,0
133.01723,133.11081,92,89,0
133.11394,133.2172,91,88,0
133.2031,133.30676,88,85,0
133.30283,133.40688,84,84,0
133.39343,133.49799,85,91,0
133.49164,133.59654,84,87,0
133.58221,133.68756,82,89,0
133.67635,133.78212,79,87,0
133.7773,133.88354,80,89,0
133.87144,133.97813,79,88,0
133.96843,134.07523,76,88,0
134.06876,134.17555,72,87,0
134.16827,134.27507,73,91,0
134.25888,134.36568,72,88,0
134.36163,134.46843,70,89,0
134.45387,134.56067,67,88,0
134.55661,134.6634,68,95,0
134.65128,134.75807,67,92,0
134.74432,134.85112,64,90,0
134.84221,134.949,60,89,0
134.9393,135.0461,61,93,0
135.03801,135.1448,60,92,0
135.13348,135.24028,58,91,0
135.22975,135.33655,55,90,0
135.32603,135.43283,56,94,0
135.42313,135.52992,55,92,0
135.52507,135.63187,52,91,0
135.62376,135.73056,48,90,0
135.71924,135.82603,49,94,0
135.81795,135.9154,48,103,0
135.91148,135.9154,48,100,0
135.91148,136.83305,57,110,0
135.91148,136.83305,60,110,0
135.91148,136.83305,53,100,0
136.85266,137.78627,48,97,0
136.85266,137.78627,60,108,0
136.85266,137.78627,53,97,0
136.85266,137.78627,56,108,0
137.84851,138.08948,55,109,0
137.84851,138.08948,60,109,0
137.84851,138.08948,48,99,0
137.84851,138.08948,53,99,0
138.33044,138.5714,48,93,0
138.33044,138.5714,60,102,0
138.33044,138.5714,52,93,0
138.33044,138.5714,55,102,0
0.24176946,0.34197327,68,73,0
0.33748224,0.43649358,67,73,0
0.42448157,0.5236915,65,79,0
0.5191734,0.6186507,62,72,0
0.60807663,0.7077746,63,72,0
0.69795585,0.79791,62,71,0
0.7873039,0.8874651,59,79,0
0.88290584,0.9833396,55,72,0
0.9741933,1.0748404,56,72,0
1.0649016,1.1658189,55,70,0
1.1512929,1.2524166,53,79,0
1.2493491,1.3507555,50,71,0
1.3399862,1.4416054,51,71,0
1.430803,1.5326834,50,68,0
1.5218523,1.6240147,47,79,0
1.6124048,1.714572,43,71,0
1.706058,1.8082252,44,71,0
1.8012593,1.9034264,43,69,0
1.8918165,1.9939837,41,79,0
1.9846958,2.086863,38,71,0
2.084541,2.1867082,39,71,0
2.1727762,2.2752154,38,68,0
2.2633336,2.389433,36,76,0
2.3582826,2.4844809,31,69,0
2.4541295,2.5803275,36,70,0
2.553171,2.6909864,31,68,0
2.6517916,2.8191645,36,74,0
2.7799695,2.9473426,31,71,0
2.9070883,3.0937068,36,75,0
3.0347006,3.2264285,31,74,0
3.2106357,3.323233,35,79,0
3.4412713,3.5400736,68,71,0
3.528846,3.627853,67,70,0
3.6180933,3.7173054,65,79,0
3.70601,3.8054693,62,72,0
3.8009374,3.9006355,63,72,0
3.8930826,3.9930437,62,70,0
3.9839528,4.0841255,59,79,0
4.072727,4.173152,55,71,0
4.162481,4.263114,56,71,0
4.258527,4.359444,55,68,0
4.348741,4.4498787,53,79,0
4.442977,4.5443854,50,72,0
4.535155,4.636781,51,72,0
4.623664,4.7255445,50,70,0
4.71317,4.8153276,47,79,0
4.8091354,4.911303,43,71,0
4.899693,5.00186,44,71,0
4.99799,5.1001573,43,70,0
5.0854516,5.1876187,41,79,0
5.182975,5.285629,38,71,0
5.2767577,5.383209,39,71,0
5.3743386,5.48079,38,69,0
5.4711127,5.598532,36,79,0
5.564661,5.6920805,31,72,0
5.6598225,5.787242,36,73,0
5.754984,5.891994,31,73,0
5.853048,6.0207176,36,76,0
5.986675,6.15476,31,76,0
6.1047597,6.2874374,36,79,0
6.236675,6.419444,31,76,0
6.4061112,6.509335,35,79,0
6.616989,6.7157917,80,79,0
6.707558,6.8066187,79,71,0
6.7968593,6.8961706,77,79,0
6.8856287,6.98519,74,71,0
6.9731054,7.072913,75,71,0
7.066095,7.1661663,74,70,0
7.160847,7.2611885,71,79,0
7.245194,7.3457923,67,70,0
7.3404565,7.4413276,68,70,0
7.433682,7.53482,67,69,0
7.523317,7.6247115,65,79,0
7.613173,7.7148256,62,71,0
7.7125106,7.8144507,63,71,0
7.805163,7.907371,62,69,0
7.8949485,7.997433,59,79,0
7.985787,8.088271,55,71,0
8.080507,8.182992,56,71,0
8.172899,8.275384,55,69,0
8.269949,8.372434,53,79,0
8.3584585,8.460942,50,71,0
8.453178,8.555663,51,71,0
8.544017,8.646502,50,69,0
8.643396,8.745881,47,79,0
8.731129,8.833613,43,71,0
8.828178,8.930663,44,71,0
8.919794,9.022278,43,69,0
9.009856,9.112341,41,79,0
9.107682,9.210167,38,71,0
9.201626,9.304111,39,71,0
9.290912,9.393396,38,70,0
9.384856,9.478024,36,62,0
9.48113,9.574185,35,62,0
9.567309,9.657348,43,67,0
9.664856,9.764303,41,66,0
9.752219,9.8521595,39,65,0
9.838493,9.938941,38,65,0
9.933605,10.034598,39,64,0
10.023095,10.125058,38,63,0
10.120946,10.229499,36,63,0
10.217163,10.315778,35,62,0
10.316531,10.416052,46,70,0
10.403212,10.503134,44,68,0
10.499334,10.599769,43,69,0
10.584524,10.685358,41,69,0
10.676165,10.777495,43,68,0
10.77365,10.8761425,41,68,0
10.862339,10.970097,39,67,0
10.966012,11.063897,38,67,0
11.0583315,11.162292,51,76,0
11.152827,11.257178,50,73,0
11.246077,11.351071,48,74,0
11.347078,11.452689,47,75,0
11.443847,11.550101,48,76,0
11.538811,11.645544,47,77,0
11.634993,11.742699,44,79,0
11.734475,11.843793,43,80,0
11.828794,11.93965,44,81,0
11.928644,12.041228,43,83,0
12.03006,12.144342,41,83,0
12.133868,12.250162,39,85,0
12.246526,12.366526,41,88,0
12.356525,12.48208,39,90,0
12.4583435,12.607709,36,92,0
12.613554,12.721716,43,49,0
12.706996,12.814728,48,50,0
12.80577,12.913008,50,52,0
12.905724,13.01239,51,54,0
13.005939,13.112104,55,55,0
13.101688,13.207458,60,57,0
13.196239,13.302009,62,59,0
13.288386,13.3941555,63,60,0
13.387746,13.493515,62,59,0
13.482297,13.588066,60,57,0
13.582457,13.688226,55,57,0
13.6754055,13.781175,51,57,0
13.772361,13.87813,50,56,0
13.866912,13.972681,48,55,0
13.96627,14.0723295,43,54,0
14.061623,14.170341,36,56,0
14.161281,14.269998,43,59,0
14.255996,14.364713,48,62,0
14.358125,14.466842,50,63,0
14.461076,14.569793,51,68,0
14.557439,14.666156,50,66,0
14.658744,14.767461,48,63,0
14.750988,14.849822,43,59,0
14.850646,14.959363,36,56,0
14.947832,15.057417,43,59,0
15.054621,15.179416,48,63,0
15.161997,15.296586,50,65,0
15.289325,15.426254,51,67,0
15.40447,15.541399,50,65,0
15.534138,15.670901,48,63,0
15.652245,15.786893,43,61,0
15.790271,15.901635,36,59,0
15.896602,16.00718,43,46,0
15.988786,16.099022,48,47,0
16.096523,16.206213,50,49,0
16.191307,16.300556,51,51,0
16.289822,16.398607,55,52,0
16.393673,16.502079,60,54,0
16.488964,16.596888,62,55,0
16.585478,16.692978,63,57,0
16.686464,16.793955,62,55,0
16.784184,16.893734,60,54,0
16.880274,17.009674,55,52,0
16.99782,17.140062,51,50,0
17.128208,17.270449,50,49,0
17.257519,17.401451,48,47,0
17.390581,17.52401,43,43,0
17.52401,17.641447,36,33,0
17.628101,17.745539,43,36,0
17.735752,17.85319,48,39,0
17.841625,17.959063,50,40,0
17.946606,18.064045,51,45,0
18.051588,18.169025,50,46,0
18.163689,18.281126,48,45,0
18.268671,18.375431,43,43,0
18.378101,18.495539,36,40,0
18.478634,18.596308,43,45,0
18.585396,18.7069,48,50,0
18.698963,18.830503,50,54,0
18.819094,18.956022,51,59,0
18.942537,19.079466,50,57,0
19.063906,19.201475,48,57,0
19.190462,19.32262,43,55,0
19.317114,19.429865,36,53,0
19.426498,19.537453,43,51,0
19.52571,19.636297,48,53,0
19.626265,19.736338,50,54,0
19.727201,19.836798,51,56,0
19.827692,19.936813,55,57,0
19.921135,20.029917,60,60,0
20.02416,20.132427,62,62,0
20.125074,20.232918,63,64,0
20.22393,20.331774,62,61,0
20.3187,20.429632,60,59,0
20.420216,20.545544,55,57,0
20.525684,20.658667,51,55,0
20.653616,20.786938,50,52,0
20.777847,20.912485,48,50,0
20.89198,21.022306,43,48,0
21.025333,21.137865,36,77,0
21.12511,21.237211,42,53,0
21.225348,21.337017,48,56,0
21.326881,21.438095,50,54,0
21.43474,21.545378,51,56,0
21.535343,21.645555,50,57,0
21.634722,21.744514,48,57,0
21.728733,21.828192,42,59,0
21.829847,21.938957,36,77,0
21.926472,22.03704,42,56,0
22.026918,22.139107,48,59,0
22.134825,22.248758,50,57,0
22.240047,22.35503,51,57,0
22.341093,22.456076,50,60,0
22.444752,22.559734,48,62,0
22.54928,22.65381,42,60,0
22.652939,22.786795,35,70,0
22.776632,22.91078,47,54,0
22.898584,23.03273,50,57,0
23.01647,23.149427,55,61,0
23.140453,23.255272,62,61,0
23.249199,23.363443,55,60,0
23.348743,23.462622,50,59,0
23.45745,23.56074,47,61,0
23.5616,23.674822,34,57,0
23.663692,23.776588,46,59,0
23.764603,23.880484,49,62,0
23.864883,23.99421,55,64,0
23.989307,24.11872,61,67,0
24.098131,24.227543,55,65,0
24.214798,24.34421,49,66,0
24.340288,24.458042,46,65,0
24.454992,24.58914,33,60,0
24.577961,24.711252,45,62,0
24.703648,24.829124,48,63,0
24.80821,24.933025,53,65,0
24.930456,25.043463,60,67,0
25.031477,25.144484,53,60,0
25.130785,25.243792,48,62,0
25.231806,25.33454,45,60,0
25.337963,25.45097,32,57,0
25.438128,25.551134,44,59,0
25.541718,25.655704,48,59,0
25.650932,25.777464,53,56,0
25.761654,25.892088,60,61,0
25.881218,26.011654,53,57,0
25.993868,26.12487,48,55,0
26.116396,26.243515,44,51,0
26.242456,26.358849,31,47,0
26.349209,26.46452,43,47,0
26.456686,26.57105,48,48,0
26.558125,26.671585,47,47,0
26.660456,26.773067,49,51,0
26.765413,26.87713,48,53,0
26.865337,26.976183,50,55,0
26.966978,27.076963,49,54,0
27.065357,27.174768,51,56,0
27.161509,27.270918,50,55,0
27.266773,27.376183,52,57,0
27.361263,27.470673,51,57,0
27.46487,27.57428,53,59,0
27.56682,27.67623,52,60,0
27.662968,27.773106,54,57,0
27.765099,27.883133,53,57,0
27.869192,27.991869,55,54,0
27.979786,28.102463,54,54,0
28.095028,28.217705,56,54,0
28.204693,28.326567,55,54,0
28.313429,28.427639,58,54,0
28.423346,28.536247,56,54,0
28.522638,28.634474,55,54,0
28.620142,28.730947,53,54,0
28.723436,28.83355,51,54,0
28.821037,28.931147,50,54,0
28.926975,29.037086,48,52,0
29.028744,29.138855,47,51,0
29.125507,29.235619,44,47,0
29.220602,29.330713,43,44,0
29.323206,29.433315,41,40,0
29.420803,29.520903,38,37,0
29.526793,29.63942,36,31,0
29.62473,29.73106,43,32,0
29.727844,29.833954,48,35,0
29.824308,29.930416,50,36,0
29.91836,30.02447,51,39,0
30.015627,30.121735,55,40,0
30.113697,30.219807,60,43,0
30.202925,30.309034,62,44,0
30.300192,30.406301,63,47,0
30.401478,30.507587,62,44,0
30.497137,30.603247,60,43,0
30.590385,30.696493,55,41,0
30.68524,30.79135,51,39,0
30.782507,30.888617,50,37,0
30.88299,30.989098,48,35,0
30.977041,31.073503,43,33,0
31.073503,31.179613,36,31,0
31.17077,31.27688,43,35,0
31.269646,31.375753,48,39,0
31.36691,31.47302,50,43,0
31.463375,31.569485,51,45,0
31.557426,31.663536,50,42,0
31.654694,31.760803,48,39,0
31.752764,31.849226,43,35,0
31.85003,31.95614,36,32,0
31.940063,32.04646,43,34,0
32.04058,32.15278,48,37,0
32.139675,32.2649,50,40,0
32.250893,32.38482,51,44,0
32.37161,32.505753,50,44,0
32.50169,32.637352,48,42,0
32.614494,32.747353,43,38,0
32.751797,32.86427,36,31,0
32.855797,32.96751,43,33,0
32.95484,33.066044,48,35,0
33.05849,33.169083,50,36,0
33.155704,33.265934,51,39,0
33.256767,33.366493,55,40,0
33.354893,33.464043,60,42,0
33.45992,33.56853,62,43,0
33.552944,33.66115,63,47,0
33.652958,33.761154,62,46,0
33.755417,33.865154,60,44,0
33.855007,33.97789,55,43,0
33.964996,34.095947,51,41,0
34.08404,34.214993,50,39,0
34.201107,34.33276,48,38,0
34.317177,34.442593,43,36,0
34.448193,34.563984,36,38,0
34.547314,34.663105,43,41,0
34.65872,34.77451,48,43,0
34.757843,34.87363,50,47,0
34.863106,34.978893,51,50,0
34.971,35.08679,50,47,0
35.08065,35.196438,48,45,0
35.17714,35.282402,43,43,0
35.282402,35.398193,36,41,0
35.39205,35.508404,43,43,0
35.49644,35.61837,48,44,0
35.604507,35.726982,50,49,0
35.716324,35.846275,51,51,0
35.841343,35.97148,50,51,0
35.952747,36.08338,48,49,0
36.07007,36.194756,43,47,0
36.194756,36.30737,36,47,0
36.304836,36.416275,43,47,0
36.397743,36.508736,48,48,0
36.49867,36.609272,50,50,0
36.59924,36.709476,51,51,0
36.701977,36.81173,55,51,0
36.807575,36.916943,60,54,0
36.902042,37.011036,62,55,0
37.001163,37.10972,63,57,0
37.104786,37.213337,62,55,0
37.20265,37.312176,60,55,0
37.298042,37.415543,55,53,0
37.40788,37.534317,51,51,0
37.52091,37.647343,50,50,0
37.632977,37.759922,48,48,0
37.746002,37.866344,43,47,0
37.864338,37.981647,36,57,0
37.97547,38.091503,43,48,0
38.08537,38.200706,48,50,0
38.185036,38.2997,50,51,0
38.287586,38.401592,51,54,0
38.3947,38.50804,50,52,0
38.494343,38.60708,48,51,0
38.599426,38.701324,41,49,0
38.70555,38.817097,36,57,0
38.801888,38.913433,43,49,0
38.907516,39.019066,48,51,0
39.00132,39.112865,50,53,0
39.111176,39.22272,51,55,0
39.2092,39.320747,50,54,0
39.312298,39.423843,48,53,0
39.411167,39.512573,41,51,0
39.509193,39.621803,38,73,0
39.61242,39.72506,46,42,0
39.716526,39.82917,47,42,0
39.815517,39.91792,46,41,0
39.921333,40.033978,58,57,0
40.020325,40.132965,46,44,0
40.1287,40.241344,47,44,0
40.23281,40.335213,46,43,0
40.327534,40.440174,39,72,0
40.43676,40.549404,46,46,0
40.53831,40.650955,47,47,0
40.640713,40.74312,46,47,0
40.74397,40.856613,58,63,0
40.843815,40.956455,46,49,0
40.94792,41.060566,47,49,0
41.045208,41.14761,46,49,0
41.15273,41.265373,40,77,0
41.255985,41.36863,46,52,0
41.358387,41.47103,48,52,0
41.453964,41.55637,46,51,0
41.56405,41.676693,58,63,0
41.664745,41.77739,46,54,0
41.767147,41.87979,48,54,0
41.86358,41.96598,46,56,0
41.9711,42.083744,41,84,0
42.076916,42.18975,46,57,0
42.170788,42.284946,58,57,0
42.277138,42.381413,46,57,0
42.37967,42.49485,42,73,0
42.49222,42.608067,46,60,0
42.593998,42.71028,58,60,0
42.69705,42.80327,46,59,0
42.809456,42.925804,41,79,0
42.909977,43.025833,46,63,0
43.01795,43.133305,50,65,0
43.1185,43.233215,53,68,0
43.221985,43.3364,58,71,0
43.32677,43.432724,62,73,0
43.435394,43.60443,67,74,0
43.60443,43.665157,65,76,0
43.665157,43.777428,65,79,0
43.770622,43.88289,62,76,0
43.86843,43.980698,58,76,0
43.96709,44.079357,55,73,0
44.07596,44.188225,53,71,0
44.172066,44.284332,51,67,0
44.28178,44.39405,48,65,0
44.38214,44.49441,41,61,0
44.485054,44.586628,34,61,0
44.5809,44.68615,49,63,0
44.678986,44.78408,48,62,0
44.770546,44.87564,47,59,0
44.872456,44.97755,46,57,0
44.962425,45.06752,48,63,0
45.060352,45.166107,47,61,0
45.15559,45.26278,46,59,0
45.258694,45.366997,45,56,0
45.34886,45.457905,47,64,0
45.449608,45.559643,46,61,0
45.549583,45.66059,45,59,0
45.650463,45.762363,44,64,0
45.75128,45.864296,46,55,0
45.858284,45.971687,45,61,0
45.963955,46.067207,44,66,0
46.068108,46.175594,32,71,0
46.2668,46.3738,43,50,0
46.36896,46.474987,44,52,0
46.464603,46.570034,47,53,0
46.560448,46.665882,51,56,0
46.65869,46.764122,46,52,0
46.750546,46.855976,47,53,0
46.850388,46.955963,51,56,0
46.943943,47.050095,56,57,0
47.03558,47.142387,50,54,0
47.136703,47.24597,51,56,0
47.234566,47.36004,56,59,0
47.346733,47.472206,59,62,0
47.466503,47.593452,55,61,0
47.575817,47.7003,56,65,0
47.701214,47.75596,39,71,0
47.809788,47.917145,63,55,0
47.90497,48.011852,53,56,0
48.003788,48.110107,54,55,0
48.09966,48.20551,58,59,0
48.193516,48.29874,63,61,0
48.295555,48.40089,50,51,0
48.386517,48.4922,51,54,0
48.480957,48.58707,54,59,0
48.580624,48.687202,58,61,0
48.679115,48.78605,45,54,0
48.77144,48.880165,46,56,0
48.87105,48.995262,51,57,0
48.982998,49.107525,54,61,0
49.101864,49.22747,41,63,0
49.212242,49.334614,42,69,0
49.336567,49.44838,30,74,0
49.545956,49.651928,41,49,0
49.639908,49.745415,42,50,0
49.73825,49.843346,45,52,0
49.8314,49.936497,49,55,0
49.930923,50.036022,44,51,0
50.02408,50.129173,45,52,0
50.116436,50.221657,49,54,0
50.21846,50.324337,54,56,0
50.31389,50.420444,48,54,0
50.40669,50.514774,49,56,0
50.50942,50.627277,54,57,0
50.60942,50.727276,57,61,0
50.722813,50.841534,53,65,0
50.82733,50.94091,54,67,0
50.93907,50.99251,37,70,0
51.047585,51.153694,61,60,0
51.14485,51.25096,51,53,0
51.235687,51.341797,52,56,0
51.33456,51.44067,56,59,0
51.43022,51.53633,61,61,0
51.528294,51.6344,48,54,0
51.628773,51.734882,49,55,0
51.72363,51.82974,52,59,0
51.820896,51.927006,56,62,0
51.918163,52.024273,43,53,0
52.01061,52.117985,44,56,0
52.107445,52.22399,49,57,0
52.217808,52.334415,52,61,0
52.318516,52.43629,39,62,0
52.425407,52.545288,40,65,0
52.547123,52.59701,36,70,0
52.64441,52.754166,63,60,0
52.748344,52.858105,55,57,0
52.848125,52.957886,56,59,0
52.947906,53.057667,57,60,0
53.047688,53.157444,56,61,0
53.141647,53.251404,54,63,0
53.24226,53.352016,52,64,0
53.34204,53.451797,51,66,0
53.445976,53.555737,49,65,0
53.548252,53.658012,48,68,0
53.643044,53.75388,45,70,0
53.743656,53.866333,43,71,0
53.851463,53.97414,44,71,0
53.97042,54.09404,39,74,0
54.07544,54.19384,44,75,0
54.196804,54.249252,38,77,0
54.303448,54.418835,65,73,0
54.40572,54.521107,57,73,0
54.513237,54.628372,58,71,0
54.612015,54.725113,59,72,0
54.714836,54.827843,58,69,0
54.81757,54.930576,56,71,0
54.920303,55.03331,54,69,0
55.025604,55.13861,53,68,0
55.128338,55.241344,51,67,0
55.234493,55.3475,50,67,0
55.332092,55.446346,47,66,0
55.437393,55.57084,45,64,0
55.554646,55.688248,46,63,0
55.683186,55.81804,41,63,0
55.80482,55.936665,46,62,0
55.931473,55.988552,40,60,0
56.049873,56.1744,67,57,0
56.162136,56.286667,59,57,0
56.276287,56.399593,60,56,0
56.387608,56.500614,61,59,0
56.486916,56.599735,60,59,0
56.59291,56.705517,58,59,0
56.691044,56.80333,56,57,0
56.80163,56.913685,55,57,0
56.899273,57.01115,53,57,0
57.005234,57.116783,52,57,0
57.10495,57.21596,55,55,0
57.203392,57.31344,53,56,0
57.305138,57.414192,52,56,0
57.4043,57.51252,49,55,0
57.50028,57.60736,48,52,0
57.597767,57.70321,47,55,0
57.69043,57.79586,48,55,0
57.792667,57.898098,49,57,0
57.882923,57.988354,48,55,0
57.97797,58.0834,46,57,0
58.076214,58.181644,44,59,0
58.176052,58.281483,43,60,0
58.26711,58.37254,41,62,0
58.363754,58.47957,40,63,0
58.461197,58.57701,37,63,0
58.55305,58.66884,36,67,0
58.652092,58.767963,35,67,0
58.748383,58.866966,36,71,0
58.84726,58.966705,34,70,0
58.9477,59.06799,32,74,0
59.043854,59.144005,31,73,0
59.14317,59.255997,29,76,0
59.250877,59.363182,36,63,0
59.35386,59.46556,41,63,0
59.452045,59.563232,43,63,0
59.556522,59.6671,44,63,0
59.648705,59.758812,48,64,0
59.753826,59.863316,53,68,0
59.855865,59.965508,55,68,0
59.950798,60.065334,56,72,0
60.05405,60.168633,60,75,0
60.15822,60.2728,65,76,0
60.25978,60.374516,67,77,0
60.369175,60.486614,68,79,0
60.47416,60.591595,67,77,0
60.577362,60.694798,65,71,0
60.684124,60.790882,60,67,0
60.795334,60.908344,61,64,0
60.901497,61.01451,65,63,0
61.005093,61.118107,61,62,0
61.102695,61.21571,56,61,0
61.20886,61.321873,53,59,0
61.309887,61.4229,49,57,0
61.41434,61.52735,44,57,0
61.517937,61.620598,41,56,0
61.618088,61.750317,37,55,0
61.718517,61.85042,32,54,0
61.813717,61.94532,37,55,0
61.920376,62.040043,41,52,0
62.017662,62.14862,37,55,0
62.117954,62.2486,32,54,0
62.217205,62.34754,37,55,0
62.316246,62.415043,41,53,0
62.41672,62.527542,29,55,0
62.51663,62.627445,36,53,0
62.614014,62.724834,41,55,0
62.712242,62.823063,43,53,0
62.814667,62.925488,44,56,0
62.916252,63.02707,48,57,0
63.016155,63.126976,53,57,0
63.12194,63.233326,55,57,0
63.219326,63.33508,56,59,0
63.328938,63.44473,60,57,0
63.427185,63.542973,65,59,0
63.537712,63.65381,67,57,0
63.64212,63.760822,68,60,0
63.75273,63.871437,67,63,0
63.854347,63.973053,65,60,0
63.964962,64.072876,60,57,0
64.07623,64.18705,62,59,0
64.17614,64.28634,65,57,0
64.278,64.38785,62,59,0
64.37122,64.4808,60,57,0
64.476654,64.585915,56,59,0
64.57517,64.68414,53,59,0
64.6759,64.78458,50,59,0
64.77391,64.88224,48,57,0
64.87242,64.9806,44,57,0
64.968285,65.076935,41,57,0
65.06372,65.172905,38,57,0
65.166275,65.27721,36,55,0
65.262665,65.38461,32,57,0
65.373505,65.49573,36,61,0
65.49017,65.61339,38,65,0
65.60148,65.720634,44,68,0
65.713585,65.96035,31,79,0
65.71961,65.965965,43,79,0
65.96446,66.06327,68,73,0
66.050545,66.14954,67,72,0
66.14654,66.24576,65,79,0
66.23748,66.33696,62,72,0
66.32185,66.42155,63,72,0
66.413994,66.51395,62,69,0
66.507126,66.6073,59,79,0
66.59742,66.697845,55,72,0
66.69098,66.791626,56,72,0
66.77787,66.878784,55,70,0
66.8742,66.975334,53,79,0
66.96767,67.06908,50,71,0
67.052155,67.153755,51,71,0
67.149895,67.251785,50,70,0
67.24249,67.344666,47,79,0
67.33073,67.4329,43,70,0
67.42284,67.525,44,71,0
67.518036,67.6202,43,69,0
67.61401,67.71618,41,79,0
67.70844,67.81061,38,70,0
67.798996,67.90116,39,71,0
67.89033,67.98321,38,68,0
67.986374,68.11257,36,79,0
68.07743,68.20363,31,69,0
68.17727,68.30347,36,72,0
68.26913,68.40642,31,71,0
68.36665,68.53354,36,75,0
68.501755,68.66913,31,76,0
68.62146,68.8066,36,77,0
68.7454,68.92729,31,76,0
68.93458,69.04736,35,79,0
69.153564,69.253136,68,71,0
69.2434,69.3424,67,71,0
69.33339,69.432594,65,79,0
69.42582,69.52528,62,72,0
69.51924,69.61894,63,72,0
69.60686,69.70681,62,71,0
69.69847,69.79864,59,79,0
69.78952,69.88994,55,71,0
69.87775,69.97837,56,71,0
69.97302,70.07394,55,69,0
70.06629,70.16743,53,79,0
70.15516,70.25655,50,72,0
70.2504,70.35202,51,72,0
70.3443,70.44619,50,71,0
70.43381,70.53597,47,79,0
70.52746,70.62963,43,71,0
70.6157,70.717865,44,71,0
70.71245,70.81461,43,70,0
70.803,70.90517,41,79,0
70.89743,70.999954,38,71,0
70.99431,71.10076,39,71,0
71.08786,71.19431,38,70,0
71.1806,71.28705,36,79,0
71.28221,71.388664,31,71,0
71.37979,71.486244,36,73,0
71.47737,71.58827,31,74,0
71.57657,71.716995,36,76,0
71.70422,71.84465,31,76,0
71.8255,71.97035,36,79,0
71.96131,72.131004,31,79,0
72.12758,72.23031,35,79,0
72.33454,72.43334,80,79,0
72.421364,72.52042,79,71,0
72.51366,72.61297,77,79,0
72.60168,72.70123,74,71,0
72.694435,72.79425,75,71,0
72.78592,72.885994,74,70,0
72.87308,72.973404,71,79,0
72.96731,73.06792,67,70,0
73.05801,73.15888,68,70,0
73.15353,73.25467,67,69,0
73.24317,73.344574,65,79,0
73.336105,73.437775,62,71,0
73.42698,73.52891,63,71,0
73.518074,73.62026,62,69,0
73.61405,73.71654,59,79,0
73.70722,73.80971,55,71,0
73.80194,73.90443,56,71,0
73.8889,73.99138,55,69,0
73.98517,74.087654,53,79,0
74.08144,74.18393,50,71,0
74.17151,74.273994,51,71,0
74.26778,74.37026,50,69,0
74.35706,74.45955,47,79,0
74.45023,74.55272,43,71,0
74.542625,74.64511,44,71,0
74.63967,74.74216,43,69,0
74.73362,74.836105,41,79,0
74.82057,74.92306,38,71,0
74.91374,75.01623,39,71,0
75.00691,75.1094,38,69,0
75.10474,75.20722,36,69,0
75.199455,75.29249,35,65,0
75.28949,75.38841,43,69,0
75.3749,75.474304,41,68,0
75.47053,75.57047,39,67,0
75.556046,75.656494,38,66,0
75.65192,75.752914,39,65,0
75.74295,75.84508,38,64,0
75.834435,75.94294,36,63,0
75.92978,76.03785,35,62,0
76.03634,76.13587,46,68,0
76.12001,76.219925,44,67,0
76.21461,76.31503,43,67,0
76.301315,76.402145,41,65,0
76.393715,76.49505,43,64,0
76.49043,76.59288,41,63,0
76.57989,76.687645,39,62,0
76.67784,76.78538,38,61,0
76.77909,76.882996,51,70,0
76.87117,76.975525,50,71,0
76.966,77.081406,48,72,0
77.059845,77.175865,47,73,0
77.15979,77.27652,48,75,0
77.251526,77.368774,47,76,0
77.35173,77.47013,44,76,0
77.44956,77.569695,43,77,0
77.551346,77.673325,44,80,0
77.64873,77.77254,43,82,0
77.74761,77.87326,41,84,0
77.854034,77.98226,39,86,0
77.960464,78.09226,41,88,0
78.0668,78.18958,39,90,0
78.183304,78.34258,36,93,0
78.333565,78.44172,43,51,0
78.43028,78.53798,48,52,0
78.528206,78.635414,50,53,0
78.624084,78.73075,51,54,0
78.72349,78.82966,55,56,0
78.82004,78.92581,60,57,0
78.9178,79.02357,62,57,0
79.00994,79.115715,63,60,0
79.10449,79.210266,62,60,0
79.19904,79.30482,60,59,0
79.30161,79.40738,55,57,0
79.397766,79.50353,51,57,0
79.490715,79.59648,50,57,0
79.583664,79.68943,48,56,0
79.686226,79.78238,43,55,0
79.78158,79.887344,36,53,0
79.87132,79.97709,43,55,0
79.97068,80.07645,48,57,0
80.07164,80.177414,50,59,0
80.15978,80.26555,51,61,0
80.25674,80.36251,50,61,0
80.35369,80.459465,48,60,0
80.44904,80.5452,43,59,0
80.54921,80.654976,36,63,0
80.64135,80.74761,43,59,0
80.74158,80.85712,48,63,0
80.84521,80.97716,50,66,0
80.9654,81.10643,51,68,0
81.09467,81.252365,50,64,0
81.23993,81.42063,48,60,0
81.39763,81.58967,43,56,0
81.58456,81.70069,36,52,0
81.69464,81.80873,43,46,0
81.794945,81.90867,48,47,0
81.90352,82.01685,50,48,0
82.00487,82.11783,51,49,0
82.10246,82.21509,55,50,0
82.20402,82.31628,60,51,0
82.30865,82.420525,62,52,0
82.407845,82.51938,63,53,0
82.51348,82.624664,62,52,0
82.61119,82.72253,60,51,0
82.71909,82.83399,55,49,0
82.81489,82.94337,51,48,0
82.9336,83.06251,50,47,0
83.04981,83.17996,48,45,0
83.16505,83.29671,43,44,0
83.297806,83.41427,36,43,0
83.401985,83.51778,43,45,0
83.51427,83.63006,48,47,0
83.61953,83.73532,50,50,0
83.72567,83.84146,51,50,0
83.823044,83.93883,50,50,0
83.931816,84.0476,48,50,0
84.03708,84.14234,43,49,0
84.14607,84.271706,36,47,0
84.25743,84.38328,43,49,0
84.37165,84.499535,48,51,0
84.490814,84.61948,50,53,0
84.601265,84.7358,51,55,0
84.72764,84.86642,50,55,0
84.844955,85.024956,48,55,0
85.020645,85.1913,43,53,0
85.19043,85.30485,36,54,0
85.29447,85.40839,43,54,0
85.39029,85.503784,48,55,0
85.49779,85.61065,50,57,0
85.601265,85.7137,51,59,0
85.7052,85.817055,55,61,0
85.806915,85.91831,60,63,0
85.90315,86.01407,62,65,0
86.01072,86.12119,63,67,0
86.109474,86.21995,62,63,0
86.20488,86.31565,60,61,0
86.30869,86.42473,55,59,0
86.40792,86.53392,51,56,0
86.52722,86.653656,50,53,0
86.645035,86.7728,48,51,0
86.75919,86.88439,43,49,0
86.877396,86.99454,36,51,0
86.99102,87.1067,42,52,0
87.094475,87.20954,48,55,0
87.20258,87.31698,50,56,0
87.30574,87.419495,51,57,0
87.408325,87.5215,50,54,0
87.50694,87.61951,48,55,0
87.61015,87.711945,42,54,0
87.71279,87.82425,36,53,0
87.80993,87.92099,42,54,0
87.91679,88.02741,48,55,0
88.01151,88.12174,50,57,0
88.11841,88.22817,51,59,0
88.21822,88.32826,50,57,0
88.312675,88.42791,48,57,0
88.41655,88.52145,42,56,0
88.52057,88.631485,35,55,0
88.62729,88.73803,47,55,0
88.72209,88.832825,50,56,0
88.82528,88.93607,55,55,0
88.92931,89.04086,62,57,0
89.03157,89.14311,55,55,0
89.12959,89.24114,50,55,0
89.23607,89.33748,47,54,0
89.3341,89.44564,34,55,0
89.43297,89.54452,46,54,0
89.536064,89.64761,49,55,0
89.64085,89.752754,55,55,0
89.73465,89.84906,61,56,0
89.839516,89.95403,55,53,0
89.94363,90.05814,49,55,0
90.04773,90.15184,46,50,0
90.15974,90.276596,33,55,0
90.25977,90.376656,45,55,0
90.36689,90.48413,48,56,0
90.47703,90.59379,53,55,0
90.57651,90.689674,60,57,0
90.68625,90.799255,53,54,0
90.783844,90.89685,48,56,0
90.89257,90.99541,45,55,0
90.98931,91.10569,32,55,0
91.09511,91.211784,44,55,0
91.20098,91.32061,48,56,0
91.30972,91.43021,53,57,0
91.42524,91.55637,60,54,0
91.54445,91.6791,53,51,0
91.66454,91.82474,48,50,0
91.81017,91.97072,44,48,0
91.967834,92.09476,31,46,0
92.07745,92.20438,43,47,0
92.193794,92.32072,48,48,0
92.31014,92.43477,47,49,0
92.425064,92.54152,49,51,0
92.531815,92.64795,48,53,0
92.635635,92.75138,50,55,0
92.747,92.86245,49,55,0
92.84935,92.96442,51,56,0
92.95397,93.06878,50,55,0
93.06184,93.17625,52,57,0
93.161545,93.27553,51,55,0
93.26782,93.38083,53,59,0
93.37227,93.485275,52,57,0
93.475,93.588005,54,61,0
93.57687,93.68988,53,57,0
93.67961,93.79262,55,64,0
93.77549,93.8885,54,60,0
93.88079,93.9938,56,62,0
93.98267,94.09567,55,60,0
94.083694,94.19669,58,63,0
94.19413,94.30692,56,61,0
94.294975,94.40758,55,63,0
94.39652,94.50879,53,60,0
94.49263,94.60471,51,63,0
94.60047,94.71235,50,59,0
94.70305,94.8146,48,60,0
94.80446,94.9158,47,59,0
94.90653,95.01768,44,57,0
95.00087,95.1117,43,53,0
95.10667,95.21729,41,51,0
95.204735,95.30517,38,47,0
95.30766,95.41684,36,41,0
95.40941,95.51811,43,42,0
95.50742,95.61568,48,43,0
95.5985,95.70629,50,44,0
95.70303,95.810326,51,45,0
95.79734,95.90421,55,46,0
95.8913,95.99769,60,47,0
95.989655,96.095535,62,48,0
96.08757,96.19267,63,50,0
96.18073,96.2861,62,49,0
96.28371,96.389435,60,48,0
96.37582,96.48187,55,47,0
96.46981,96.5762,51,47,0
96.571365,96.678116,50,46,0
96.66922,96.77632,48,45,0
96.760895,96.85856,43,44,0
96.856926,96.96476,36,45,0
96.96149,97.069336,43,48,0
97.05463,97.16247,48,51,0
97.15594,97.26378,50,53,0
97.25561,97.36345,51,56,0
97.35446,97.4623,50,53,0
97.4476,97.55544,48,51,0
97.54727,97.64531,43,49,0
97.65007,97.77571,36,47,0
97.763336,97.889244,43,47,0
97.87568,98.00357,48,51,0
97.9871,98.1158,50,53,0
98.10944,98.249275,51,56,0
98.23232,98.374825,50,54,0
98.35944,98.54241,48,51,0
98.51803,98.69464,43,48,0
98.703514,98.81688,36,47,0
98.804886,98.917816,43,43,0
98.905014,99.0175,48,44,0
99.009,99.1211,50,46,0
99.11601,99.22766,51,47,0
99.21162,99.322845,55,48,0
99.31948,99.43032,60,49,0
99.412704,99.52312,62,50,0
99.51978,99.62978,63,52,0
99.61978,99.72978,62,51,0
99.715614,99.82619,60,51,0
99.81395,99.93126,55,50,0
99.92368,100.0487,51,49,0
100.03733,100.16235,50,48,0
100.150986,100.27601,48,47,0
100.26275,100.376396,43,46,0
100.37261,100.48994,36,44,0
100.487274,100.604294,43,46,0
100.58656,100.70359,48,47,0
100.69383,100.81086,50,49,0
100.80111,100.91813,51,51,0
100.91103,101.02805,50,50,0
101.01653,101.13355,48,49,0
101.12646,101.23315,43,48,0
101.229355,101.354485,36,47,0
101.345,101.47052,43,49,0
101.454956,101.58354,48,51,0
101.57672,101.70643,50,54,0
101.69286,101.83145,51,57,0
101.81076,101.95921,50,54,0
101.94709,102.168304,48,53,0
102.13561,102.375656,43,51,0
102.375656,102.49728,36,45,0
102.49383,102.6073,43,47,0
102.592735,102.70555,48,48,0
102.70043,102.81262,50,49,0
102.799065,102.91063,51,52,0
102.90305,103.01401,55,54,0
102.99723,103.10759,60,55,0
103.10259,103.21236,62,57,0
103.19744,103.306725,63,60,0
103.30259,103.41186,62,56,0
103.40441,103.51368,60,57,0
103.4996,103.60993,55,55,0
103.60078,103.72166,51,54,0
103.706085,103.826965,50,51,0
103.82239,103.94593,48,51,0
103.93078,104.060234,43,49,0
104.05936,104.174644,36,60,0
104.160706,104.27548,42,47,0
104.27114,104.38538,48,50,0
104.37159,104.48523,50,52,0
104.4775,104.59068,51,53,0
104.576126,104.68873,50,52,0
104.67598,104.788086,48,51,0
104.78215,104.88362,42,49,0
104.88446,104.995575,36,64,0
104.98379,105.0949,42,55,0
105.0848,105.19591,48,57,0
105.18244,105.29355,50,63,0
105.28597,105.39709,51,64,0
105.38951,105.50096,50,62,0
105.49315,105.60941,48,61,0
105.59298,105.7096,42,59,0
105.71521,105.83737,37,63,0
105.82076,105.94244,49,64,0
105.93232,106.05347,54,69,0
106.0379,106.15862,56,71,0
106.1568,106.276985,58,77,0
106.26517,106.38485,56,74,0
106.36945,106.488716,54,73,0
106.48059,106.58856,49,67,0
106.58497,106.703064,37,62,0
106.695,106.81392,49,65,0
106.80215,106.92212,54,69,0
106.91209,107.03313,56,74,0
107.01653,107.13829,58,76,0
107.13091,107.25268,56,72,0
107.23976,107.36242,54,71,0
107.35834,107.47808,49,65,0
107.47717,107.59749,37,60,0
107.587494,107.70737,49,63,0
107.69288,107.81227,55,66,0
107.80144,107.9204,58,68,0
107.90421,108.022705,61,70,0
108.01553,108.13358,60,70,0
108.12198,108.23955,58,69,0
108.23065,108.33716,56,68,0
108.332726,108.44944,55,68,0
108.44678,108.56391,53,68,0
108.5479,108.66556,52,69,0
108.65931,108.77752,49,67,0
108.768524,108.88779,48,66,0
108.873245,108.993835,46,64,0
108.97913,109.102776,44,63,0
109.09087,109.22443,43,62,0
109.22756,109.347565,35,62,0
109.339386,109.459,47,65,0
109.441795,109.561066,52,67,0
109.55114,109.670044,54,69,0
109.66285,109.78138,56,72,0
109.77242,109.89059,54,73,0
109.87362,109.99145,52,71,0
109.98077,110.08753,47,67,0
110.08932,110.20634,35,62,0
110.200134,110.317154,47,67,0
110.303856,110.420876,52,72,0
110.40492,110.52222,54,71,0
110.52036,110.642586,56,76,0
110.622215,110.74444,54,73,0
110.738884,110.861664,52,74,0
110.84629,110.96244,47,70,0
110.96147,111.08129,35,64,0
111.07042,111.18999,47,65,0
111.18002,111.29959,53,67,0
111.291435,111.411,56,71,0
111.40466,111.52422,59,73,0
111.504295,111.62386,58,73,0
111.61299,111.73256,56,72,0
111.7244,111.84397,54,71,0
111.8331,111.95267,53,71,0
111.94361,112.06317,51,71,0
112.05231,112.17187,50,72,0
112.160095,112.28015,47,71,0
112.27445,112.40055,46,70,0
112.38516,112.51283,44,67,0
112.49824,112.62756,42,64,0
112.617676,112.73681,41,62,0
112.73581,112.861336,34,59,0
112.85563,112.9811,46,54,0
112.9659,113.09137,51,45,0
113.08282,113.207054,53,48,0
113.1957,113.31099,55,50,0
113.30051,113.415794,53,47,0
113.40357,113.51886,51,45,0
113.510994,113.61581,46,43,0
113.610565,113.72585,34,38,0
113.72148,113.83677,46,41,0
113.819305,113.93459,51,44,0
113.9311,114.047165,53,46,0
114.03338,114.1547,55,49,0
114.13816,114.25948,53,48,0
114.25488,114.376205,51,45,0
114.36242,114.47272,46,44,0
114.46904,114.58908,35,31,0
114.57726,114.69726,47,33,0
114.686356,114.80635,50,34,0
114.79999,114.91999,55,35,0
114.91271,115.032715,62,36,0
115.014534,115.13454,55,35,0
115.12272,115.242714,50,34,0
115.23363,115.34271,47,32,0
115.34908,115.46908,35,31,0
115.45726,115.57726,47,31,0
115.56635,115.686356,50,33,0
115.67454,115.79453,55,34,0
115.77999,115.89999,62,35,0
115.89362,116.013626,55,34,0
116.00453,116.124535,50,34,0
116.11272,116.22181,47,33,0
116.21545,116.33541,36,32,0
116.32726,116.446655,43,29,0
116.43131,116.55029,48,30,0
116.539505,116.657906,50,31,0
116.64718,116.76507,51,32,0
116.75701,116.87545,55,33,0
116.868256,116.98714,60,34,0
116.973595,117.09306,62,35,0
117.07944,117.199425,63,35,0
117.19034,117.31033,62,35,0
117.298515,117.41852,60,35,0
117.41306,117.533066,55,34,0
117.51579,117.63579,51,34,0
117.62397,117.74397,50,33,0
117.73761,117.85761,48,32,0
117.84488,117.95397,43,32,0
117.95852,118.07852,29,35,0
118.06125,118.181244,37,35,0
118.17761,118.29761,41,36,0
118.27943,118.39943,43,38,0
118.38761,118.507614,44,39,0
118.49761,118.61761,49,40,0
118.61307,118.73306,53,42,0
118.716705,118.8367,55,43,0
118.82943,118.94943,56,44,0
118.93579,119.05579,55,44,0
119.0467,119.1667,53,43,0
119.15761,119.27761,49,42,0
119.26852,119.38852,44,41,0
119.37852,119.49852,41,40,0
119.48761,119.60761,37,40,0
119.588524,119.69761,32,39,0
119.69761,119.80489,31,38,0
119.91771,120.03641,40,42,0
120.02742,120.14582,39,43,0
120.13596,120.25406,41,43,0
120.23531,120.353165,40,44,0
120.35049,120.46804,42,44,0
120.45737,120.57462,41,45,0
120.559555,120.676544,43,45,0
120.66771,120.78432,42,45,0
120.7746,120.890915,44,46,0
120.87771,120.99387,43,45,0
120.98246,121.09826,45,47,0
121.09387,121.209366,44,48,0
121.198875,121.31409,46,49,0
121.30189,121.41683,45,48,0
121.40468,121.51922,47,49,0
121.50537,121.61942,46,50,0
121.608215,121.72186,48,50,0
121.71241,121.82553,47,49,0
121.8187,121.93129,49,52,0
121.920235,122.03233,48,53,0
122.02047,122.13219,50,53,0
122.12121,122.232414,49,52,0
122.22487,122.335754,51,53,0
122.32733,122.43875,50,51,0
122.43113,122.54332,52,54,0
122.53052,122.64335,51,55,0
122.63561,122.74918,53,56,0
122.73194,122.846176,52,54,0
122.83834,122.95332,54,56,0
122.940254,123.05513,53,55,0
123.050835,123.16424,55,57,0
123.15049,123.26389,54,55,0
123.25186,123.365265,56,57,0
123.356674,123.47008,55,56,0
123.460625,123.57403,58,57,0
123.56114,123.67498,56,54,0
123.66424,123.78328,55,53,0
123.770645,123.88939,53,50,0
123.88075,123.993484,51,53,0
123.98239,124.09502,50,48,0
124.091606,124.20423,53,51,0
124.19228,124.30492,51,47,0
124.29468,124.4073,55,52,0
124.39621,124.50884,53,49,0
124.498604,124.61123,51,51,0
124.596725,124.70935,50,47,0
124.70423,124.81686,48,51,0
124.7998,124.91217,47,48,0
124.90792,125.020004,50,53,0
125.011536,125.1234,48,49,0
125.10815,125.21975,46,51,0
125.207085,125.318436,44,50,0
125.31254,125.42365,43,50,0
125.40934,125.52021,42,49,0
125.51769,125.62827,43,49,0
125.61573,125.7261,44,47,0
125.71523,125.82534,41,48,0
125.81618,125.92606,43,46,0
125.91606,126.02651,39,46,0
126.01809,126.12967,41,44,0
126.11862,126.23134,38,44,0
126.22102,126.32449,39,43,0
126.322754,126.426926,36,43,0
126.53352,126.64055,61,49,0
126.63163,126.7389,60,48,0
126.72263,126.83012,58,47,0
126.82278,126.93055,55,46,0
126.924,127.032036,56,45,0
127.01567,127.12398,55,44,0
127.11741,127.22597,52,44,0
127.21279,127.32163,48,43,0
127.31585,127.42494,49,42,0
127.41251,127.52192,48,41,0
127.510315,127.61996,46,40,0
127.61164,127.72158,43,39,0
127.71825,127.82845,44,38,0
127.814224,127.92473,43,37,0
127.9155,128.02632,41,35,0
128.0112,128.12202,36,32,0
128.11531,128.22614,41,35,0
128.22108,128.33191,36,28,0
128.321,128.43182,41,35,0
128.4167,128.52753,36,31,0
128.51662,128.62743,41,35,0
128.6182,128.72899,36,28,0
128.71642,128.8269,41,35,0
128.82524,128.9357,36,32,0
128.91814,129.02847,41,35,0
129.01762,129.12773,36,30,0
129.1194,129.2295,41,35,0
129.22032,129.33014,36,32,0
129.32433,129.43408,41,35,0
129.42328,129.53323,36,28,0
129.52129,129.62369,48,35,0
129.72182,129.8285,61,47,0
129.82045,129.92712,60,46,0
129.91661,130.02364,58,45,0
130.01471,130.12209,55,44,0
130.11557,130.22331,56,44,0
130.20943,130.3175,55,44,0
130.31177,130.42021,52,43,0
130.40623,130.51503,48,42,0
130.5076,130.61676,49,41,0
130.61014,130.71967,48,40,0
130.70555,130.81543,46,39,0
130.80293,130.91307,43,38,0
130.90553,131.01605,44,37,0
131.00934,131.12022,43,36,0
131.11182,131.22308,41,35,0
131.2104,131.32205,36,33,0
131.31442,131.42645,41,35,0
131.40858,131.52097,36,30,0
131.51756,131.63034,41,35,0
131.62178,131.73497,36,34,0
131.72122,131.83478,41,35,0
131.82443,131.93883,36,29,0
131.92804,132.04675,41,35,0
132.03595,132.15466,36,33,0
132.14027,132.25897,41,35,0
132.25539,132.37436,36,31,0
132.3561,132.47693,41,35,0
132.46411,132.58499,36,33,0
132.57584,132.6967,41,35,0
132.68571,132.79561,36,32,0
132.79836,132.90825,48,35,0
133.01355,133.1077,80,81,0
133.11159,133.21484,79,80,0
133.20622,133.3099,76,77,0
133.30362,133.40767,72,76,0
133.39264,133.4972,73,81,0
133.49005,133.59496,72,77,0
133.58699,133.69237,70,79,0
133.68355,133.78935,67,77,0
133.78052,133.88678,68,84,0
133.87628,133.98299,67,81,0
133.97086,134.07765,64,81,0
134.06552,134.17232,60,79,0
134.16664,134.27344,61,84,0
134.25807,134.36487,60,80,0
134.3584,134.4652,58,80,0
134.4571,134.5639,55,80,0
134.55176,134.65855,56,85,0
134.6537,134.7605,55,82,0
134.74352,134.85031,52,83,0
134.84302,134.94981,48,81,0
134.93687,135.04367,49,84,0
135.03963,135.14642,48,84,0
135.13268,135.23947,46,83,0
135.22894,135.33574,43,83,0
135.32684,135.43364,44,88,0
135.42393,135.53073,43,84,0
135.52669,135.63348,40,83,0
135.62296,135.72975,36,83,0
135.71358,135.82037,37,84,0
135.81471,135.91148,36,93,0
135.91148,136.83305,41,102,0
135.91148,136.83305,29,102,0
136.85266,137.78627,41,97,0
136.85266,137.78627,29,97,0
137.84851,138.08948,36,99,0
137.84851,138.08948,24,99,0
138.33044,138.5714,36,95,0
138.33044,138.5714,24,95,0
