start_time,end_time,note_value,velocity,instrument_program_number
0.344828,0.431035,64,90,0
0.431035,0.517242,60,77,0
0.517242,0.603449,67,80,0
0.603449,0.689656,72,78,0
0.689656,0.775863,76,93,0
0.775863,0.86207,72,79,0
0.86207,0.948277,79,82,0
0.948277,1.034484,84,80,0
1.034484,1.120691,88,93,0
1.120691,1.206898,84,80,0
1.206898,1.293105,91,83,0
1.293105,1.379312,96,81,0
1.379312,1.465519,100,95,0
1.465519,1.551726,96,80,0
1.551726,1.637933,91,84,0
1.637933,1.72414,84,80,0
1.72414,1.810347,88,94,0
1.810347,1.896554,84,80,0
1.896554,1.982761,79,83,0
1.982761,2.068968,72,79,0
2.068968,2.159058,76,93,0
2.159058,2.249148,72,79,0
2.249148,2.339238,67,81,0
2.339238,2.429328,60,78,0
2.429328,2.519418,64,92,0
2.519418,2.609508,60,76,0
3.1563487,3.243558,65,91,0
3.243558,3.3307672,60,77,0
3.3307672,3.4179766,69,80,0
3.4179766,3.5051858,72,78,0
3.5051858,3.594738,77,93,0
3.594738,3.6842902,72,78,0
3.6842902,3.7738426,81,82,0
3.7738426,3.8633947,84,80,0
3.8633947,3.952947,89,94,0
3.952947,4.042499,84,81,0
4.042499,4.1320515,93,83,0
4.1320515,4.227593,96,80,0
4.227593,4.314802,100,96,0
4.314802,4.4020114,96,80,0
4.4020114,4.4892206,93,84,0
4.4892206,4.57643,84,80,0
4.57643,4.663639,88,95,0
4.663639,4.7508483,84,80,0
4.7508483,4.8380575,81,83,0
4.8380575,4.925267,72,79,0
4.925267,5.0124764,76,93,0
5.0124764,5.0996857,72,78,0
5.0996857,5.186895,69,81,0
5.186895,5.274104,60,77,0
5.274104,5.3613133,62,92,0
5.3613133,5.4485226,60,76,0
5.9988046,6.0873003,62,90,0
6.0873003,6.1757956,59,77,0
6.1757956,6.2642913,67,80,0
6.2642913,6.3527865,71,78,0
6.3527865,6.4450946,74,93,0
6.4450946,6.537402,71,79,0
6.537402,6.62971,79,82,0
6.62971,6.722018,83,80,0
6.722018,6.816357,86,94,0
6.816357,6.910697,83,80,0
6.910697,7.0050364,91,83,0
7.0050364,7.0993757,93,79,0
7.0993757,7.1894655,98,97,0
7.1894655,7.279556,93,80,0
7.279556,7.3696456,90,84,0
7.3696456,7.459736,84,80,0
7.459736,7.5498257,86,95,0
7.5498257,7.639916,81,80,0
7.639916,7.7300057,78,82,0
7.7300057,7.8200955,72,79,0
7.8200955,7.910186,74,94,0
7.910186,8.000276,69,77,0
8.000276,8.090365,66,81,0
8.090365,8.180456,60,77,0
8.180456,8.270546,62,80,0
8.896591,8.983547,62,91,0
8.983547,9.070504,60,76,0
9.070504,9.15746,65,80,0
9.15746,9.244417,68,77,0
9.244417,9.331373,74,92,0
9.331373,9.41833,72,78,0
9.41833,9.505286,77,82,0
9.505286,9.592243,80,79,0
9.592243,9.679199,86,93,0
9.679199,9.766156,84,80,0
9.766156,9.853112,89,83,0
9.853112,9.940069,92,80,0
9.940069,10.027025,98,95,0
10.027025,10.113982,91,79,0
10.113982,10.200938,89,84,0
10.200938,10.287895,83,79,0
10.287895,10.374851,86,94,0
10.374851,10.461808,79,79,0
10.461808,10.548764,77,83,0
10.548764,10.635721,71,78,0
10.635721,10.722677,74,93,0
10.722677,10.809634,67,77,0
10.809634,10.89659,65,81,0
10.89659,10.983547,59,77,0
10.983547,11.070503,63,95,0
11.691984,11.778192,64,85,0
11.778192,11.864398,60,76,0
11.864398,11.950605,67,80,0
11.950605,12.036812,72,78,0
12.036812,12.123019,76,89,0
12.123019,12.209227,72,78,0
12.209227,12.295433,79,82,0
12.295433,12.38164,84,79,0
12.38164,12.467847,88,90,0
12.467847,12.554054,84,80,0
12.554054,12.640262,91,83,0
12.640262,12.726468,96,80,0
12.726468,12.812675,100,92,0
12.812675,12.898882,96,80,0
12.898882,12.985089,91,84,0
12.985089,13.071297,84,80,0
13.071297,13.157503,88,92,0
13.157503,13.2437105,84,81,0
13.2437105,13.329917,79,83,0
13.329917,13.416124,72,79,0
13.416124,13.503588,76,90,0
13.503588,13.591051,72,78,0
13.591051,13.6785145,67,81,0
13.6785145,13.765978,60,77,0
13.765978,13.853442,64,89,0
13.853442,13.940906,60,77,0
14.470731,14.557437,65,87,0
14.557437,14.644142,60,76,0
14.644142,14.730847,65,80,0
14.730847,14.817553,72,77,0
14.817553,14.904258,77,89,0
14.904258,14.990963,72,77,0
14.990963,15.077668,77,82,0
15.077668,15.164373,84,79,0
15.164373,15.251079,89,92,0
15.251079,15.337784,84,80,0
15.337784,15.424489,89,83,0
15.424489,15.511194,96,80,0
15.511194,15.598658,100,93,0
15.598658,15.686121,96,80,0
15.686121,15.773584,90,84,0
15.773584,15.861049,84,79,0
15.861049,15.948512,88,93,0
15.948512,16.035975,84,80,0
16.035975,16.123438,78,83,0
16.123438,16.210903,72,79,0
16.210903,16.298367,76,90,0
16.298367,16.38583,72,79,0
16.38583,16.473293,66,81,0
16.473293,16.560757,60,78,0
16.560757,16.64822,64,89,0
16.64822,16.735683,60,77,0
17.264862,17.352072,62,81,0
17.352072,17.439281,60,73,0
17.439281,17.526491,67,76,0
17.526491,17.6137,72,74,0
17.6137,17.700909,74,86,0
17.700909,17.788118,72,74,0
17.788118,17.875328,79,77,0
17.875328,17.962538,84,75,0
17.962538,18.049746,86,88,0
18.049746,18.136955,84,76,0
18.136955,18.224165,91,78,0
18.224165,18.311375,96,76,0
18.311375,18.399351,98,89,0
18.399351,18.487328,95,76,0
18.487328,18.575304,91,79,0
18.575304,18.66328,83,75,0
18.66328,18.751257,86,87,0
18.751257,18.839233,83,75,0
18.839233,18.92721,79,78,0
18.92721,19.015186,71,74,0
19.015186,19.103163,74,86,0
19.103163,19.19114,71,75,0
19.19114,19.279116,67,76,0
19.279116,19.367092,59,74,0
19.367092,19.455069,62,83,0
19.455069,19.543045,59,73,0
20.07393,20.160385,64,77,0
20.160385,20.246841,62,70,0
20.246841,20.333296,67,75,0
20.333296,20.41975,74,72,0
20.41975,20.506207,76,77,0
20.506207,20.59266,74,72,0
20.59266,20.679117,79,74,0
20.679117,20.765572,86,72,0
20.765572,20.852028,88,80,0
20.852028,20.938482,86,72,0
20.938482,21.024939,91,74,0
21.024939,21.111393,98,72,0
21.111393,21.197847,100,78,0
21.197847,21.284304,96,69,0
21.284304,21.370758,91,73,0
21.370758,21.457214,84,69,0
21.457214,21.543669,88,78,0
21.543669,21.630125,84,68,0
21.630125,21.71658,79,71,0
21.71658,21.803036,72,65,0
21.803036,21.88949,76,75,0
21.88949,21.975946,72,66,0
21.975946,22.0624,67,69,0
22.0624,22.148855,60,64,0
22.148855,22.235312,64,71,0
22.235312,22.321766,60,64,0
22.765852,22.85206,64,53,0
22.85206,22.938267,65,59,0
22.938267,23.024473,64,51,0
23.024473,23.110682,72,54,0
23.110682,23.196888,76,52,0
23.196888,23.283094,77,61,0
23.283094,23.3693,76,51,0
23.3693,23.45551,84,56,0
23.45551,23.541716,88,52,0
23.541716,23.627922,89,62,0
23.627922,23.71413,88,54,0
23.71413,23.800337,96,56,0
23.800337,23.89236,100,52,0
23.89236,23.979824,101,63,0
23.979824,24.067287,98,53,0
24.067287,24.15475,95,56,0
24.15475,24.242216,86,53,0
24.242216,24.32968,89,62,0
24.32968,24.417143,86,53,0
24.417143,24.504606,83,56,0
24.504606,24.59207,74,52,0
24.59207,24.681355,77,61,0
24.681355,24.770641,74,51,0
24.770641,24.859926,71,55,0
24.859926,24.949213,62,51,0
24.949213,25.038498,65,60,0
25.038498,25.127783,62,50,0
25.127783,25.21707,59,54,0
25.656834,25.743042,64,64,0
25.743042,25.829248,62,51,0
25.829248,25.915455,71,55,0
25.915455,26.001661,74,53,0
26.001661,26.08787,76,66,0
26.08787,26.174076,74,52,0
26.174076,26.260283,83,58,0
26.260283,26.34649,86,53,0
26.34649,26.432697,88,66,0
26.432697,26.518904,86,54,0
26.518904,26.605112,95,59,0
26.605112,26.691319,98,55,0
26.691319,26.778528,100,68,0
26.778528,26.865736,96,57,0
26.865736,26.952946,93,59,0
26.952946,27.040155,84,57,0
27.040155,27.127365,88,71,0
27.127365,27.214573,84,58,0
27.214573,27.301783,81,63,0
27.301783,27.388992,72,61,0
27.388992,27.476202,76,74,0
27.476202,27.56341,72,61,0
27.56341,27.65062,69,66,0
27.65062,27.73783,60,61,0
27.73783,27.825039,64,77,0
27.825039,27.912249,60,63,0
28.435503,28.522713,64,82,0
28.522713,28.609922,60,67,0
28.609922,28.69713,69,72,0
28.69713,28.78434,72,68,0
28.78434,28.87155,76,82,0
28.87155,28.95876,72,69,0
28.95876,29.045967,81,73,0
29.045967,29.133177,84,70,0
29.133177,29.220387,88,83,0
29.220387,29.307596,84,71,0
29.307596,29.394806,93,74,0
29.394806,29.482014,96,71,0
29.482014,29.569223,99,86,0
29.569223,29.656433,95,71,0
29.656433,29.743643,93,75,0
29.743643,29.83085,83,68,0
29.83085,29.91806,87,78,0
29.91806,30.00527,83,63,0
30.00527,30.09248,81,67,0
30.09248,30.179688,71,62,0
30.179688,30.268446,75,72,0
30.268446,30.357203,71,59,0
30.357203,30.445961,69,63,0
30.445961,30.534718,59,55,0
30.534718,30.623476,63,61,0
31.242588,31.330051,64,61,0
31.330051,31.417515,59,50,0
31.417515,31.504978,69,54,0
31.504978,31.592442,71,49,0
31.592442,31.679905,76,62,0
31.679905,31.767368,71,50,0
31.767368,31.854832,81,54,0
31.854832,31.942295,83,50,0
31.942295,32.02976,88,62,0
32.02976,32.11722,83,50,0
32.11722,32.204685,93,54,0
32.204685,32.29215,95,50,0
32.29215,32.379612,100,62,0
32.379612,32.467075,95,49,0
32.467075,32.55454,92,54,0
32.55454,32.642002,83,49,0
32.642002,32.729465,88,61,0
32.729465,32.81693,83,50,0
32.81693,32.904396,80,54,0
32.904396,32.99186,71,50,0
32.99186,33.079323,76,61,0
33.079323,33.166786,71,50,0
33.166786,33.25425,68,54,0
33.25425,33.341713,59,50,0
33.341713,33.429176,64,53,0
33.429176,33.51664,59,50,0
34.040394,34.126602,67,61,0
34.126602,34.212807,64,50,0
34.212807,34.299015,69,54,0
34.299015,34.385223,73,51,0
34.385223,34.471428,79,62,0
34.471428,34.557636,76,50,0
34.557636,34.643845,81,55,0
34.643845,34.73005,85,50,0
34.73005,34.816257,91,63,0
34.816257,34.902462,85,52,0
34.902462,34.98867,81,57,0
34.98867,35.07488,76,52,0
35.07488,35.161583,91,65,0
35.161583,35.248287,84,52,0
35.248287,35.334995,81,57,0
35.334995,35.4217,76,52,0
35.4217,35.508404,79,65,0
35.508404,35.595108,72,53,0
35.595108,35.681816,69,57,0
35.681816,35.76852,64,53,0
35.76852,35.85573,67,65,0
35.85573,35.94294,60,53,0
36.117355,36.204567,66,64,0
36.204567,36.291775,60,56,0
36.81102,36.89723,65,72,0
36.89723,36.983437,62,59,0
36.983437,37.06964,67,64,0
37.06964,37.15585,72,62,0
37.15585,37.242058,77,73,0
37.242058,37.328262,74,63,0
37.328262,37.41447,79,67,0
37.41447,37.50068,84,62,0
37.50068,37.586884,89,72,0
37.586884,37.67309,86,64,0
37.67309,37.7593,91,67,0
37.7593,37.845505,96,64,0
37.845505,37.931713,101,74,0
37.931713,38.01792,95,64,0
38.01792,38.104126,91,68,0
38.104126,38.190334,86,64,0
38.190334,38.27654,89,74,0
38.27654,38.362747,83,65,0
38.362747,38.448956,79,68,0
38.448956,38.53516,74,64,0
38.53516,38.62137,77,72,0
38.62137,38.707577,71,64,0
38.707577,38.79378,67,68,0
38.79378,38.87999,62,68,0
38.87999,38.966198,65,72,0
39.573257,39.659466,64,80,0
39.659466,39.745674,60,72,0
39.745674,39.83188,67,76,0
39.83188,39.918087,70,73,0
39.918087,40.004295,76,85,0
40.004295,40.0905,72,73,0
40.0905,40.17671,79,77,0
40.17671,40.262917,82,73,0
40.262917,40.34912,88,86,0
40.34912,40.43533,84,75,0
40.43533,40.521538,91,78,0
40.521538,40.614994,96,75,0
40.614994,40.7017,99,89,0
40.7017,40.788406,94,75,0
40.788406,40.87511,87,79,0
40.87511,40.961815,84,74,0
40.961815,41.04852,87,87,0
41.04852,41.135227,82,74,0
41.135227,41.22193,75,78,0
41.22193,41.308636,72,73,0
41.308636,41.39534,75,85,0
41.39534,41.482048,70,74,0
41.482048,41.568752,63,76,0
41.568752,41.655457,60,73,0
41.655457,41.74216,63,83,0
41.74216,41.82887,58,72,0
42.3491,42.435802,63,79,0
42.435802,42.52251,60,71,0
42.52251,42.609215,63,76,0
42.609215,42.69592,69,73,0
42.69592,42.782627,75,82,0
42.782627,42.86933,72,75,0
42.86933,42.956036,75,77,0
42.956036,43.04274,81,74,0
43.04274,43.129448,87,85,0
43.129448,43.216152,84,75,0
43.216152,43.302856,87,78,0
43.302856,43.38956,93,75,0
43.38956,43.47627,99,86,0
43.47627,43.562973,92,73,0
43.562973,43.649677,87,77,0
43.649677,43.73638,83,73,0
43.73638,43.82309,87,85,0
43.82309,43.909794,80,71,0
43.909794,43.9965,75,76,0
43.9965,44.083202,71,71,0
44.083202,44.170666,75,80,0
44.170666,44.25813,68,70,0
44.25813,44.345596,63,72,0
44.345596,44.43306,59,67,0
44.43306,44.520523,63,71,0
45.132767,45.22023,62,76,0
45.22023,45.307693,58,64,0
45.307693,45.395157,65,69,0
45.395157,45.48262,68,65,0
45.48262,45.570084,74,76,0
45.570084,45.657547,70,66,0
45.657547,45.74501,77,71,0
45.74501,45.832474,80,67,0
45.832474,45.919937,86,76,0
45.919937,46.0074,82,65,0
46.0074,46.094864,89,71,0
46.094864,46.182327,92,67,0
46.182327,46.26979,98,83,0
46.26979,46.357254,92,70,0
46.357254,46.444717,88,74,0
46.444717,46.53218,82,70,0
46.53218,46.619644,86,84,0
46.619644,46.707108,80,71,0
46.707108,46.79457,76,76,0
46.79457,46.882034,70,71,0
46.882034,46.969498,74,87,0
46.969498,47.056965,68,72,0
47.056965,47.14443,64,76,0
47.14443,47.23189,58,70,0
47.23189,47.319355,62,86,0
47.92657,48.01278,61,81,0
48.01278,48.098988,57,70,0
48.098988,48.185192,64,76,0
48.185192,48.2714,69,74,0
48.2714,48.35761,73,83,0
48.35761,48.443813,69,74,0
48.443813,48.53002,76,77,0
48.53002,48.616226,81,73,0
48.616226,48.702435,85,85,0
48.702435,48.788643,81,74,0
48.788643,48.874847,88,78,0
48.874847,48.961056,93,74,0
48.961056,49.047264,97,87,0
49.047264,49.13347,93,74,0
49.13347,49.219677,88,79,0
49.219677,49.305885,81,74,0
49.305885,49.39209,85,85,0
49.39209,49.4783,81,72,0
49.4783,49.564507,76,77,0
49.564507,49.65071,69,72,0
49.65071,49.73692,73,86,0
49.73692,49.823128,69,72,0
49.823128,49.909332,64,74,0
49.909332,49.99554,57,69,0
49.99554,50.081745,61,84,0
50.701324,50.78828,60,74,0
50.78828,50.875237,57,68,0
50.875237,50.962193,62,71,0
50.962193,51.049152,66,66,0
51.049152,51.13611,72,74,0
51.13611,51.223064,69,66,0
51.223064,51.31002,74,71,0
51.31002,51.396976,78,68,0
51.396976,51.483932,84,75,0
51.483932,51.57089,81,67,0
51.57089,51.657845,86,70,0
51.657845,51.744804,90,67,0
51.744804,51.832268,96,76,0
51.832268,51.91973,89,68,0
51.91973,52.007195,86,71,0
52.007195,52.094658,79,68,0
52.094658,52.18212,84,73,0
52.18212,52.269585,77,66,0
52.269585,52.357048,74,69,0
52.357048,52.44451,67,63,0
52.44451,52.531975,72,74,0
52.531975,52.61944,65,63,0
52.61944,52.7069,62,66,0
53.670155,53.75686,60,61,0
53.75686,53.843567,64,65,0
53.843567,53.93027,71,72,0
53.93027,54.016975,67,61,0
54.016975,54.10368,72,66,0
54.10368,54.190388,76,61,0
54.190388,54.277092,83,73,0
54.277092,54.363796,79,64,0
54.363796,54.4505,84,66,0
54.4505,54.53721,88,63,0
54.53721,54.624416,95,75,0
54.624416,54.711624,88,65,0
54.711624,54.798836,84,67,0
54.798836,54.886044,77,67,0
54.886044,54.97325,83,74,0
54.97325,55.060463,76,64,0
55.060463,55.14767,72,66,0
55.14767,55.234882,65,61,0
55.234882,55.32209,71,73,0
55.32209,55.409298,64,66,0
55.409298,55.49651,60,61,0
56.54302,56.63023,62,66,0
56.63023,56.717438,69,74,0
56.717438,56.80465,65,64,0
56.80465,56.891857,71,68,0
56.891857,56.979065,74,63,0
56.979065,57.066277,81,74,0
57.066277,57.153484,77,64,0
57.153484,57.240692,83,68,0
57.240692,57.327904,86,64,0
57.327904,57.41436,91,75,0
57.41436,57.500813,86,65,0
57.500813,57.58727,83,68,0
57.58727,57.673725,76,65,0
57.673725,57.760178,79,75,0
57.760178,57.846634,74,65,0
57.846634,57.93309,71,68,0
57.93309,58.019547,64,64,0
58.019547,58.10701,69,75,0
58.10701,58.194473,72,64,0
58.194473,58.281937,79,68,0
58.281937,58.3694,76,64,0
58.3694,58.456863,81,75,0
58.456863,58.544327,84,65,0
58.544327,58.63179,91,69,0
58.63179,58.72438,88,65,0
58.72438,58.810837,89,76,0
58.810837,58.897293,84,67,0
58.897293,58.98375,81,70,0
58.98375,59.0702,74,66,0
59.0702,59.15666,77,77,0
59.15666,59.243114,72,67,0
59.243114,59.329567,69,72,0
59.329567,59.416023,62,67,0
59.416023,59.503487,67,78,0
59.503487,59.59095,71,66,0
59.59095,59.678413,77,72,0
59.678413,59.765877,74,68,0
59.765877,59.85334,79,78,0
59.85334,59.940804,83,68,0
59.940804,60.028267,89,74,0
60.028267,60.11973,86,68,0
60.11973,60.20619,88,80,0
60.20619,60.29264,83,70,0
60.29264,60.379097,79,75,0
60.379097,60.465553,72,70,0
60.465553,60.55201,76,83,0
60.55201,60.638462,71,70,0
60.638462,60.72492,67,76,0
60.72492,60.811375,60,70,0
60.811375,60.898838,65,86,0
60.898838,60.9863,69,71,0
60.9863,61.073765,76,77,0
61.073765,61.16123,72,71,0
61.16123,61.24869,77,86,0
61.24869,61.336155,81,73,0
61.336155,61.42362,88,79,0
61.42362,61.51108,84,75,0
61.51108,61.59729,86,90,0
61.59729,61.683495,81,76,0
61.683495,61.769703,77,80,0
61.769703,61.85591,71,75,0
61.85591,61.942116,74,90,0
61.942116,62.028324,69,76,0
62.028324,62.114532,65,80,0
62.114532,62.200737,59,74,0
62.200737,62.286945,62,90,0
62.905926,62.992134,87,91,0
62.992134,63.07834,81,75,0
63.07834,63.164547,78,80,0
63.164547,63.250755,71,75,0
63.250755,63.33696,75,91,0
63.33696,63.42317,69,76,0
63.42317,63.509377,66,80,0
63.509377,63.59558,59,74,0
63.59558,63.68179,63,91,0
64.64887,64.735085,64,91,0
64.735085,64.82129,59,76,0
64.82129,64.90749,64,80,0
64.90749,64.993706,68,77,0
64.993706,65.07991,76,91,0
65.07991,65.166115,71,76,0
65.166115,65.25232,76,80,0
65.25232,65.33853,80,76,0
65.33853,65.424736,88,91,0
65.424736,65.51094,83,75,0
65.51094,65.59715,88,80,0
65.59715,65.68336,92,75,0
65.68336,65.77032,100,91,0
65.77032,65.85727,92,77,0
65.85727,65.94423,88,79,0
65.94423,66.03118,83,74,0
66.03118,66.11814,88,88,0
66.11814,66.20509,80,72,0
66.20509,66.29205,76,76,0
66.29205,66.37901,71,69,0
66.37901,66.465965,76,85,0
66.465965,66.552925,68,69,0
66.552925,66.63988,64,72,0
66.63988,66.72684,59,67,0
66.72684,66.816925,65,80,0
66.816925,66.90701,59,65,0
67.43202,67.518234,64,72,0
67.518234,67.60444,60,63,0
67.60444,67.69064,67,68,0
67.69064,67.776855,72,65,0
67.776855,67.86306,76,76,0
67.86306,67.949265,72,64,0
67.949265,68.03548,79,70,0
68.03548,68.12168,84,64,0
68.12168,68.207886,88,77,0
68.207886,68.29409,84,65,0
68.29409,68.3803,91,70,0
68.3803,68.46651,96,65,0
68.46651,68.55271,100,77,0
68.55271,68.63892,96,66,0
68.63892,68.72513,91,71,0
68.72513,68.81133,84,68,0
68.81133,68.897545,88,77,0
68.897545,68.98375,84,66,0
68.98375,69.069954,79,70,0
69.069954,69.156166,72,65,0
69.156166,69.246254,76,76,0
69.246254,69.33634,72,65,0
69.33634,69.42644,67,69,0
69.42644,69.516525,60,63,0
69.516525,69.60661,64,75,0
69.60661,69.6967,60,63,0
70.243546,70.33076,65,78,0
70.33076,70.41796,60,64,0
70.41796,70.50517,69,69,0
70.50517,70.592384,72,67,0
70.592384,70.68193,77,82,0
70.68193,70.771484,72,68,0
70.771484,70.86104,81,73,0
70.86104,70.95059,84,69,0
70.95059,71.040146,89,83,0
71.040146,71.12969,84,69,0
71.12969,71.219246,93,74,0
71.219246,71.31479,96,70,0
71.31479,71.402,100,88,0
71.402,71.489204,96,70,0
71.489204,71.576416,93,77,0
71.576416,71.66363,84,71,0
71.66363,71.75083,88,89,0
71.75083,71.83804,84,72,0
71.83804,71.925255,81,79,0
71.925255,72.01247,72,73,0
72.01247,72.09967,76,89,0
72.09967,72.18688,72,73,0
72.18688,72.27409,69,78,0
72.27409,72.3613,60,72,0
72.3613,72.44851,62,90,0
72.44851,72.53572,60,72,0
73.086,73.1745,62,91,0
73.1745,73.26299,59,75,0
73.26299,73.35149,67,80,0
73.35149,73.43998,71,76,0
73.43998,73.53229,74,93,0
73.53229,73.624596,71,76,0
73.624596,73.7169,79,82,0
73.7169,73.80921,83,76,0
73.80921,73.90356,86,94,0
73.90356,73.997894,83,76,0
73.997894,74.09223,91,83,0
74.09223,74.18657,93,76,0
74.18657,74.276665,98,96,0
74.276665,74.36675,93,77,0
74.36675,74.45684,90,84,0
74.45684,74.54693,84,76,0
74.54693,74.637024,86,95,0
74.637024,74.72711,81,76,0
74.72711,74.8172,78,83,0
74.8172,74.907295,72,77,0
74.907295,74.99738,74,93,0
74.99738,75.08747,69,77,0
75.08747,75.17756,66,81,0
75.17756,75.267654,60,76,0
75.267654,75.35774,62,91,0
75.98379,76.07074,62,91,0
76.07074,76.1577,60,74,0
76.1577,76.24466,65,80,0
76.24466,76.33161,68,76,0
76.33161,76.41857,74,93,0
76.41857,76.50552,72,76,0
76.50552,76.59248,77,82,0
76.59248,76.679436,80,77,0
76.679436,76.766396,86,94,0
76.766396,76.853355,84,78,0
76.853355,76.94031,89,83,0
76.94031,77.02727,92,76,0
77.02727,77.11422,98,95,0
77.11422,77.20118,91,78,0
77.20118,77.28813,89,84,0
77.28813,77.37509,83,77,0
77.37509,77.46204,86,94,0
77.46204,77.549,79,78,0
77.549,77.63596,77,83,0
77.63596,77.722916,71,77,0
77.722916,77.809875,74,92,0
77.809875,77.89683,67,77,0
77.89683,77.98379,65,81,0
77.98379,78.07074,59,75,0
78.07074,78.1577,63,91,0
78.77918,78.86539,64,92,0
78.86539,78.95159,60,75,0
78.95159,79.0378,67,80,0
79.0378,79.12401,72,76,0
79.12401,79.21021,76,93,0
79.21021,79.296425,72,76,0
79.296425,79.38263,79,82,0
79.38263,79.468834,84,76,0
79.468834,79.555046,88,94,0
79.555046,79.64125,84,78,0
79.64125,79.727455,91,83,0
79.727455,79.81367,96,78,0
79.81367,79.89987,100,96,0
79.89987,79.98608,96,77,0
79.98608,80.07229,91,84,0
80.07229,80.15849,84,77,0
80.15849,80.2447,88,95,0
80.2447,80.33091,84,76,0
80.33091,80.417114,79,83,0
80.417114,80.50332,72,76,0
80.50332,80.59078,76,94,0
80.59078,80.678246,72,77,0
80.678246,80.76571,67,81,0
80.76571,80.85317,60,77,0
80.85317,80.940636,64,92,0
80.940636,81.0281,60,76,0
81.55793,81.64463,65,85,0
81.64463,81.73134,60,75,0
81.73134,81.81805,65,80,0
81.81805,81.90475,72,76,0
81.90475,81.991455,77,88,0
81.991455,82.078156,72,76,0
82.078156,82.16486,77,82,0
82.16486,82.25157,84,77,0
82.25157,82.33827,89,90,0
82.33827,82.42498,84,78,0
82.42498,82.51169,89,83,0
82.51169,82.59839,96,78,0
82.59839,82.68585,100,92,0
82.68585,82.773315,96,78,0
82.773315,82.86078,90,84,0
82.86078,82.94824,84,78,0
82.94824,83.035706,88,91,0
83.035706,83.12317,84,79,0
83.12317,83.21063,78,83,0
83.21063,83.298096,72,76,0
83.298096,83.38556,75,90,0
83.38556,83.47302,72,78,0
83.47302,83.560486,66,81,0
83.560486,83.64795,60,75,0
83.64795,83.737236,63,86,0
83.737236,83.82652,60,74,0
84.35753,84.44473,62,78,0
84.44473,84.531944,60,71,0
84.531944,84.619156,67,76,0
84.619156,84.70636,72,73,0
84.70636,84.79357,74,83,0
84.79357,84.88078,72,74,0
84.88078,84.96799,79,76,0
84.96799,85.0552,84,72,0
85.0552,85.14241,86,85,0
85.14241,85.22962,84,75,0
85.22962,85.316826,91,77,0
85.316826,85.40404,96,71,0
85.40404,85.49201,98,87,0
85.49201,85.57999,95,73,0
85.57999,85.66797,91,78,0
85.66797,85.75594,83,73,0
85.75594,85.84392,86,83,0
85.84392,85.93189,83,73,0
85.93189,86.019875,79,76,0
86.019875,86.10785,71,71,0
86.10785,86.19582,74,82,0
86.19582,86.2838,71,70,0
86.2838,86.37178,67,74,0
86.37178,86.459755,59,70,0
86.459755,86.54773,62,80,0
86.54773,86.635704,59,68,0
87.165596,87.25181,62,75,0
87.25181,87.33801,60,68,0
87.33801,87.42422,69,73,0
87.42422,87.51043,72,69,0
87.51043,87.59738,74,77,0
87.59738,87.68434,72,70,0
87.68434,87.77129,81,73,0
87.77129,87.85825,84,72,0
87.85825,87.94521,86,81,0
87.94521,88.032166,84,72,0
88.032166,88.119125,93,74,0
88.119125,88.21143,96,69,0
88.21143,88.29764,99,82,0
88.29764,88.38384,96,70,0
88.38384,88.470055,93,75,0
88.470055,88.55626,84,69,0
88.55626,88.64246,87,81,0
88.64246,88.728676,84,70,0
88.728676,88.81488,81,74,0
88.81488,88.901085,72,70,0
88.901085,88.9883,75,79,0
88.9883,89.07551,71,70,0
89.07551,89.16271,69,71,0
89.16271,89.24992,59,67,0
89.24992,89.337135,63,78,0
89.337135,89.42434,59,67,0
89.94756,90.033775,64,74,0
90.033775,90.11998,59,66,0
90.11998,90.206184,68,70,0
90.206184,90.2924,71,66,0
90.2924,90.3786,76,78,0
90.3786,90.464806,71,66,0
90.464806,90.55102,80,71,0
90.55102,90.63722,83,67,0
90.63722,90.72343,88,80,0
90.72343,90.80964,83,68,0
90.80964,90.89584,92,71,0
90.89584,90.98205,95,68,0
90.98205,91.068756,100,81,0
91.068756,91.15546,95,69,0
91.15546,91.242165,92,71,0
91.242165,91.32887,83,65,0
91.32887,91.41557,88,79,0
91.41557,91.50228,83,66,0
91.50228,91.58899,80,69,0
91.58899,91.67569,71,62,0
91.67569,91.7624,76,75,0
91.7624,91.8491,71,62,0
91.8491,91.93581,68,65,0
91.93581,92.022514,59,60,0
92.022514,92.109215,64,70,0
92.109215,92.19592,59,59,0
92.71892,92.80513,65,62,0
92.80513,92.891335,62,50,0
92.891335,92.97754,69,54,0
92.97754,93.06375,72,52,0
93.06375,93.149956,77,63,0
93.149956,93.23616,74,51,0
93.23616,93.322365,81,55,0
93.322365,93.40858,84,52,0
93.40858,93.49478,89,63,0
93.49478,93.580986,86,53,0
93.580986,93.6672,93,56,0
93.6672,93.7534,96,53,0
93.7534,93.83961,101,64,0
93.83961,93.92582,95,53,0
93.92582,94.012024,91,57,0
94.012024,94.09823,86,52,0
94.09823,94.18444,89,63,0
94.18444,94.270645,86,50,0
94.270645,94.35685,79,56,0
94.35685,94.44306,74,51,0
94.44306,94.52927,77,62,0
94.52927,94.61547,71,52,0
94.61547,94.70168,67,55,0
94.70168,94.78789,62,52,0
94.78789,94.87409,65,62,0
94.87409,94.960304,59,50,0
95.481155,95.56737,64,63,0
95.56737,95.65357,60,53,0
95.65357,95.73978,67,57,0
95.73978,95.82598,72,52,0
95.82598,95.91219,76,65,0
95.91219,95.9984,72,52,0
95.9984,96.0846,82,58,0
96.0846,96.170815,84,53,0
96.170815,96.25702,91,70,0
96.25702,96.34322,84,61,0
96.34322,96.429436,82,63,0
96.429436,96.51564,76,63,0
96.51564,96.6031,90,70,0
96.6031,96.69057,84,61,0
96.69057,96.77803,81,63,0
96.77803,96.86549,75,61,0
96.86549,96.95296,78,68,0
96.95296,97.04042,72,62,0
97.04042,97.127884,69,63,0
97.127884,97.21535,63,61,0
97.21535,97.30281,77,68,0
97.30281,97.390274,71,60,0
97.390274,97.47774,68,60,0
97.47774,97.5652,62,58,0
97.5652,97.652664,65,70,0
97.652664,97.74013,59,61,0
98.26417,98.35037,64,71,0
98.35037,98.43658,60,65,0
98.43658,98.52279,67,69,0
98.52279,98.60899,72,65,0
98.60899,98.6952,79,75,0
98.6952,98.7814,76,67,0
98.7814,98.867615,79,73,0
98.867615,98.95382,84,68,0
98.95382,99.04002,88,80,0
99.04002,99.126236,84,72,0
99.126236,99.21244,79,77,0
99.21244,99.298645,72,73,0
99.298645,99.38486,87,86,0
99.38486,99.47106,81,75,0
99.47106,99.55727,78,79,0
99.55727,99.64348,72,73,0
99.64348,99.72968,75,84,0
99.72968,99.81589,69,70,0
99.81589,99.9021,66,76,0
99.9021,99.988304,60,71,0
99.988304,100.075516,74,80,0
100.075516,100.16272,68,70,0
100.16272,100.24993,65,72,0
100.24993,100.33714,59,68,0
100.33714,100.42435,62,80,0
101.206375,101.29258,64,69,0
101.29258,101.378784,67,64,0
101.378784,101.465,73,75,0
101.465,101.5512,70,66,0
101.5512,101.637405,76,73,0
101.637405,101.72362,79,69,0
101.72362,101.80982,85,80,0
101.80982,101.89603,82,71,0
101.89603,101.98224,88,77,0
101.98224,102.07259,91,73,0
102.07259,102.158806,97,84,0
102.158806,102.24501,90,75,0
102.24501,102.331215,87,79,0
102.331215,102.41743,81,72,0
102.41743,102.50363,85,82,0
102.50363,102.589836,78,71,0
102.589836,102.67605,75,76,0
102.67605,102.76225,69,69,0
102.76225,102.84921,73,81,0
102.84921,102.936165,66,68,0
102.936165,103.023125,63,72,0
103.023125,103.11008,57,68,0
103.11008,103.19704,72,78,0
103.19704,103.28399,66,65,0
103.28399,103.37095,63,69,0
103.37095,103.45791,57,64,0
103.54411,103.63032,56,68,0
103.63032,103.71652,62,64,0
103.71652,103.802734,65,69,0
103.802734,103.88894,72,76,0
103.88894,103.97514,68,68,0
103.97514,104.061356,74,72,0
104.061356,104.14756,77,69,0
104.14756,104.233765,84,78,0
104.233765,104.31998,80,71,0
104.31998,104.40618,86,75,0
104.40618,104.492386,89,72,0
104.492386,104.5786,96,81,0
104.5786,104.6648,89,74,0
104.6648,104.75101,86,78,0
104.75101,104.83722,80,74,0
104.83722,104.92342,95,86,0
104.92342,105.00963,89,74,0
105.00963,105.09584,86,79,0
105.09584,105.182045,79,74,0
105.182045,105.2685,83,81,0
105.2685,105.35496,77,73,0
105.35496,105.441414,74,76,0
105.441414,105.52795,67,71,0
105.52795,105.614655,71,77,0
105.614655,105.70136,65,69,0
105.70136,105.78806,62,73,0
106.760124,106.84658,64,72,0
106.84658,106.93304,67,68,0
106.93304,107.019485,72,83,0
107.019485,107.10594,67,70,0
107.10594,107.1924,76,75,0
107.1924,107.278854,79,72,0
107.278854,107.36506,84,87,0
107.36506,107.45127,79,72,0
107.45127,107.542175,88,78,0
107.542175,107.63309,91,75,0
107.63309,107.72004,96,91,0
107.72004,107.807,91,75,0
107.807,107.89421,88,80,0
107.89421,107.981415,79,75,0
107.981415,108.06888,84,91,0
108.06888,108.15634,79,73,0
108.15634,108.244064,76,78,0
108.244064,108.33179,67,74,0
108.33179,108.41976,72,89,0
108.41976,108.50774,67,77,0
108.50774,108.59597,64,71,0
0.0,0.172414,48,103,0
0.086207,0.172414,48,77,0
0.172414,0.258621,55,80,0
0.258621,0.344828,60,77,0
2.609508,2.699598,55,80,0
2.699598,2.8075118,48,77,0
0.0,2.8075118,36,86,0
2.894721,2.9819303,48,80,0
2.9819303,3.0691395,57,80,0
3.0691395,3.1563487,60,77,0
2.8075118,4.227593,41,104,0
2.8075118,4.227593,29,88,0
5.4485226,5.535732,57,80,0
5.535732,5.6448226,48,77,0
4.227593,5.6448226,42,101,0
4.227593,5.6448226,30,85,0
5.7333183,5.8218136,47,80,0
5.8218136,5.9103093,55,77,0
5.9103093,5.9988046,59,80,0
5.6448226,6.3527865,43,101,0
5.6448226,6.3527865,31,85,0
6.3527865,6.722018,42,102,0
6.3527865,6.722018,30,86,0
6.722018,7.0993757,40,97,0
6.722018,7.0993757,28,82,0
8.270546,8.360636,57,80,0
8.360636,8.450726,54,80,0
8.450726,8.548765,48,80,0
7.0993757,8.548765,38,102,0
7.0993757,8.548765,26,86,0
8.635721,8.722678,48,77,0
8.722678,8.809634,53,80,0
8.809634,8.896591,56,77,0
11.070503,11.15746,55,77,0
11.15746,11.244416,53,80,0
11.244416,11.347157,47,77,0
8.548765,11.347157,43,101,0
8.548765,11.347157,31,85,0
11.347157,11.51957,48,101,0
11.433363,11.51957,48,76,0
11.51957,11.605777,55,80,0
11.605777,11.691984,60,76,0
13.940906,14.028369,55,80,0
14.028369,14.12391,48,77,0
11.347157,14.12391,36,85,0
14.210615,14.29732,48,77,0
14.29732,14.384026,53,80,0
14.384026,14.470731,60,77,0
16.735683,16.823147,54,80,0
16.823147,16.916025,48,77,0
14.12391,16.916025,45,103,0
14.12391,16.916025,33,86,0
17.003235,17.090445,48,73,0
17.090445,17.177654,55,76,0
17.177654,17.264862,60,74,0
19.543045,19.631021,55,76,0
19.631021,19.72811,47,71,0
16.916025,19.72811,43,96,0
16.916025,19.72811,31,81,0
19.814564,19.90102,50,76,0
19.90102,19.987474,55,73,0
19.987474,20.07393,62,76,0
22.321766,22.408222,55,67,0
19.72811,22.507233,48,96,0
22.408222,22.507233,48,60,0
19.72811,22.507233,36,81,0
22.59344,22.679646,52,50,0
22.679646,22.765852,60,54,0
22.507233,23.89236,45,69,0
22.507233,23.89236,33,58,0
23.89236,24.59207,47,69,0
23.89236,24.59207,35,58,0
25.21707,25.312006,50,51,0
24.59207,25.312006,45,69,0
24.59207,25.312006,33,58,0
25.398212,25.48442,50,51,0
25.48442,25.570627,59,54,0
25.570627,25.656834,62,51,0
25.312006,26.691319,44,69,0
25.312006,26.691319,32,58,0
26.691319,27.388992,45,72,0
26.691319,27.388992,33,60,0
27.912249,27.999456,57,69,0
27.999456,28.086666,48,64,0
27.388992,28.086666,43,79,0
27.388992,28.086666,31,67,0
28.173876,28.261086,48,65,0
28.261086,28.348293,57,72,0
28.348293,28.435503,60,66,0
30.623476,30.712233,59,57,0
30.712233,30.800991,57,56,0
30.800991,30.892735,47,52,0
28.086666,30.892735,41,90,0
28.086666,30.892735,29,76,0
30.980198,31.067661,47,50,0
31.067661,31.155125,57,54,0
31.155125,31.242588,59,50,0
33.51664,33.604103,56,54,0
33.604103,33.695564,47,49,0
30.892735,33.695564,40,68,0
30.892735,33.695564,28,57,0
33.781773,33.86798,52,50,0
33.86798,33.954185,57,54,0
33.954185,34.040394,61,50,0
33.695564,35.07488,45,68,0
33.695564,35.07488,33,57,0
35.94294,36.030148,57,57,0
36.030148,36.117355,52,53,0
36.291775,36.378986,57,56,0
35.07488,36.466194,50,69,0
36.378986,36.466194,50,52,0
35.07488,36.466194,38,58,0
36.552402,36.638607,50,59,0
36.638607,36.724815,55,64,0
36.724815,36.81102,60,60,0
38.966198,39.052402,59,62,0
39.052402,39.13861,55,67,0
39.13861,39.22843,50,64,0
36.466194,39.22843,43,80,0
36.466194,39.22843,31,67,0
39.22843,39.400845,48,95,0
39.314636,39.400845,48,71,0
39.400845,39.487053,55,76,0
39.487053,39.573257,58,72,0
39.22843,40.614994,36,80,0
41.82887,41.915573,51,76,0
41.915573,42.002277,48,72,0
40.614994,42.002277,42,96,0
40.614994,42.002277,30,81,0
42.08898,42.17569,48,72,0
42.17569,42.262394,51,76,0
42.262394,42.3491,57,73,0
42.002277,43.38956,41,97,0
42.002277,43.38956,29,81,0
44.520523,44.607986,56,65,0
44.607986,44.69545,51,69,0
43.38956,44.782913,47,100,0
44.69545,44.782913,47,66,0
43.38956,44.782913,35,85,0
44.870377,44.95784,46,66,0
44.95784,45.045303,53,70,0
45.045303,45.132767,56,67,0
47.319355,47.40682,56,71,0
47.40682,47.49428,52,76,0
46.182327,47.581745,46,87,0
47.49428,47.581745,46,72,0
44.782913,47.581745,34,84,0
47.581745,47.754158,45,94,0
47.66795,47.754158,45,72,0
47.754158,47.840366,52,76,0
47.840366,47.92657,57,72,0
50.081745,50.167953,57,68,0
50.167953,50.25416,52,72,0
50.25416,50.3535,45,68,0
47.581745,50.3535,33,78,0
50.440456,50.527412,45,69,0
50.527412,50.61437,50,72,0
50.61437,50.701324,54,69,0
50.3535,51.744804,38,90,0
52.7069,52.794365,55,62,0
52.794365,52.88183,59,76,0
52.88183,52.96929,53,64,0
52.96929,53.056755,50,61,0
51.744804,53.14992,43,84,0
53.056755,53.14992,43,64,0
51.744804,53.14992,31,75,0
53.23663,53.323334,43,64,0
53.323334,53.410038,48,61,0
53.410038,53.496742,52,64,0
53.496742,53.58345,59,74,0
53.58345,53.670155,55,61,0
53.14992,54.53721,36,79,0
55.49651,55.583717,53,62,0
55.583717,55.67093,57,74,0
55.67093,55.758137,52,60,0
55.758137,55.845345,48,64,0
54.53721,55.932556,41,78,0
55.845345,55.932556,41,61,0
54.53721,55.932556,29,66,0
56.019764,56.10697,41,65,0
56.10697,56.194183,47,68,0
56.194183,56.28139,50,64,0
56.28139,56.368603,57,77,0
56.368603,56.45581,53,63,0
56.45581,56.54302,59,68,0
55.932556,57.327904,35,84,0
57.327904,58.019547,40,85,0
57.327904,58.019547,28,72,0
58.019547,58.72438,45,85,0
58.019547,58.72438,33,72,0
58.72438,59.416023,38,88,0
58.72438,59.416023,26,74,0
59.416023,60.11973,43,88,0
59.416023,60.11973,31,74,0
60.11973,60.811375,36,94,0
60.11973,60.811375,24,80,0
60.811375,61.51108,41,97,0
60.811375,61.51108,29,82,0
62.286945,62.373154,57,75,0
62.373154,62.45936,53,80,0
61.51108,62.545567,47,101,0
62.45936,62.545567,47,75,0
61.51108,62.545567,35,85,0
63.68179,63.767998,57,75,0
63.767998,63.854202,54,80,0
62.905926,63.94041,47,100,0
63.854202,63.94041,47,76,0
62.545567,63.94041,35,102,0
63.94041,64.30405,35,93,0
64.39025,64.47646,47,76,0
64.47646,64.56267,52,80,0
64.56267,64.64887,56,76,0
64.30405,66.72684,40,100,0
64.30405,66.72684,28,84,0
66.90701,66.99711,55,69,0
66.99711,67.0872,50,64,0
66.72684,67.0872,38,88,0
66.72684,67.0872,26,74,0
67.1734,67.25961,48,64,0
67.25961,67.34582,55,68,0
67.34582,67.43202,60,63,0
67.0872,68.46651,24,72,0
69.6967,69.7868,55,68,0
68.46651,69.89471,48,78,0
69.7868,69.89471,48,63,0
67.0872,69.89471,36,85,0
69.98192,70.06913,48,64,0
70.06913,70.156334,57,68,0
70.156334,70.243546,60,64,0
69.89471,71.31479,41,85,0
69.89471,71.31479,29,72,0
72.53572,72.622925,57,79,0
72.622925,72.73202,48,71,0
71.31479,72.73202,42,91,0
71.31479,72.73202,30,77,0
72.82051,72.90901,47,75,0
72.90901,72.997505,55,80,0
72.997505,73.086,59,75,0
72.73202,73.43998,43,101,0
72.73202,73.43998,31,85,0
73.43998,73.80921,42,102,0
73.43998,73.80921,30,86,0
73.80921,74.18657,40,103,0
73.80921,74.18657,28,86,0
75.35774,75.44783,57,75,0
75.44783,75.53792,54,80,0
75.53792,75.63596,48,74,0
74.18657,75.63596,38,101,0
74.18657,75.63596,26,85,0
75.722916,75.809875,48,75,0
75.809875,75.89683,53,80,0
75.89683,75.98379,56,74,0
78.1577,78.24466,55,74,0
78.24466,78.33161,53,80,0
78.33161,78.43435,47,75,0
75.63596,78.43435,43,102,0
75.63596,78.43435,31,86,0
78.43435,78.606766,48,95,0
78.52056,78.606766,48,75,0
78.606766,78.69297,55,80,0
78.69297,78.77918,60,75,0
81.0281,81.11556,55,80,0
81.11556,81.211105,48,74,0
78.43435,81.211105,36,79,0
81.29781,81.384514,48,75,0
81.384514,81.47122,53,80,0
81.47122,81.55793,60,75,0
81.211105,83.64795,45,100,0
81.211105,83.64795,33,84,0
83.82652,83.91581,54,80,0
83.91581,84.00869,48,73,0
83.64795,84.00869,44,101,0
83.64795,84.00869,32,85,0
84.0959,84.183105,48,70,0
84.183105,84.27032,55,76,0
84.27032,84.35753,60,71,0
86.635704,86.72369,55,73,0
86.72369,86.82077,47,68,0
84.00869,86.82077,43,95,0
84.00869,86.82077,31,80,0
86.90698,86.99319,48,69,0
86.99319,87.07939,57,73,0
87.07939,87.165596,60,69,0
86.82077,88.21143,42,92,0
86.82077,88.21143,30,77,0
89.42434,89.51155,57,71,0
89.51155,89.60274,47,66,0
88.21143,89.60274,41,90,0
88.21143,89.60274,29,75,0
89.68894,89.775154,47,66,0
89.775154,89.86136,56,71,0
89.86136,89.94756,59,66,0
89.60274,90.98205,28,76,0
90.98205,91.67569,52,88,0
92.19592,92.28263,56,62,0
92.28263,92.37409,47,55,0
89.60274,92.37409,40,90,0
92.4603,92.54651,50,50,0
92.54651,92.63271,57,54,0
92.63271,92.71892,60,49,0
92.37409,93.7534,38,65,0
94.960304,95.04651,55,54,0
95.04651,95.13633,50,50,0
93.7534,95.13633,43,67,0
93.7534,95.13633,31,56,0
95.222534,95.30875,48,52,0
95.30875,95.39495,55,56,0
95.39495,95.481155,60,51,0
97.74013,97.82759,56,61,0
97.82759,97.919334,50,57,0
96.51564,97.919334,48,75,0
95.13633,97.919334,36,70,0
98.00555,98.09175,48,60,0
98.09175,98.177956,55,64,0
98.177956,98.26417,60,60,0
97.919334,99.298645,36,79,0
100.42435,100.51156,56,66,0
100.51156,100.59877,53,69,0
100.59877,100.68913,47,64,0
99.298645,100.68913,43,95,0
99.298645,100.68913,31,80,0
100.77534,100.86154,46,60,0
100.86154,100.947754,52,64,0
100.947754,101.03396,55,61,0
101.03396,101.12016,61,76,0
101.12016,101.206375,58,64,0
100.68913,103.45791,43,88,0
100.68913,103.45791,31,74,0
105.78806,105.87626,55,69,0
105.87626,105.96716,59,80,0
105.96716,106.058075,53,66,0
106.058075,106.14898,50,69,0
103.45791,106.23989,43,89,0
106.14898,106.23989,43,68,0
103.45791,106.23989,31,75,0
106.3266,106.4133,43,66,0
106.4133,106.50001,52,68,0
106.50001,106.586716,55,65,0
106.586716,106.673416,60,78,0
106.673416,106.760124,55,71,0
108.59597,108.684204,55,73,0
108.684204,108.772705,60,86,0
108.772705,108.8612,55,73,0
108.8612,108.94996,52,76,0
108.94996,109.04371,43,70,0
106.23989,109.04371,36,102,0
106.23989,109.04371,24,85,0
109.04371,110.46804,36,102,0
109.04371,110.46804,24,85,0
