start_time,end_time,note_value,velocity,instrument_program_number
0.0018108062,2.1729674,48,90,0
2.1729674,2.580909,51,79,0
2.580909,2.9705195,56,83,0
2.9705195,3.375925,58,76,0
3.375925,3.763022,60,83,0
3.763022,4.1543303,56,75,0
4.1543303,4.5364957,63,76,0
4.5364957,4.921111,70,72,0
4.921111,5.313268,72,73,0
5.313268,5.7132683,68,68,0
5.7132683,6.110619,75,76,0
6.110619,6.4991717,82,68,0
6.4991717,6.914799,84,69,0
6.914799,7.3495817,79,58,0
7.3495817,7.790758,82,59,0
7.790758,8.307079,80,53,0
8.307079,9.418191,79,49,0
9.418191,9.989619,78,44,0
11.132476,11.569985,78,40,0
11.569985,11.990861,79,44,0
11.990861,12.396266,78,41,0
12.396266,12.821674,77,44,0
12.821674,13.301058,78,41,0
13.301058,13.5995655,81,45,0
13.5995655,13.9120655,79,41,0
13.9120655,14.2245655,75,44,0
14.2245655,14.975813,75,43,0
14.975813,15.246083,74,39,0
15.246083,15.600065,77,40,0
15.600065,15.988416,75,39,0
15.988416,16.388414,74,33,0
16.43286,17.455877,74,31,0
20.524931,22.059458,72,43,0
22.059458,22.472511,67,46,0
22.879385,29.148329,70,62,0
29.148329,29.442446,66,44,0
29.442446,29.72282,70,49,0
29.72282,30.003195,69,47,0
28.854212,30.003195,62,44,0
28.520878,30.003195,60,48,0
30.538908,31.055212,62,33,0
30.538908,31.055212,58,28,0
31.060648,31.612974,62,33,0
31.060648,31.612974,58,28,0
30.003195,31.618788,67,44,0
32.145103,32.670544,67,33,0
32.145103,32.670544,62,28,0
32.676075,33.199203,67,33,0
32.676075,33.199203,62,28,0
31.618788,33.204712,74,47,0
33.75517,34.278297,67,28,0
33.75517,34.278297,63,23,0
33.75517,34.278297,60,22,0
34.283802,34.80693,67,28,0
34.283802,34.80693,63,23,0
34.283802,34.80693,60,22,0
33.204712,34.81244,72,47,0
35.676506,35.96087,66,44,0
35.96087,36.24124,70,49,0
36.24124,36.521614,69,47,0
35.392147,36.521614,62,44,0
35.10229,36.521614,60,48,0
37.05025,37.562103,62,33,0
37.05025,37.562103,58,28,0
37.56749,38.119816,62,33,0
37.56749,38.119816,58,28,0
36.521614,38.12563,67,44,0
38.656605,39.18539,61,33,0
38.656605,39.18539,55,28,0
38.656605,39.18539,57,28,0
39.190945,39.74327,61,33,0
39.190945,39.74327,55,28,0
39.190945,39.74327,57,28,0
38.12563,39.749084,64,44,0
40.32325,40.87452,62,28,0
40.32325,40.87452,57,23,0
40.32325,40.87452,54,20,0
40.880333,41.43266,62,28,0
40.880333,41.43266,57,23,0
40.880333,41.43266,54,20,0
39.749084,41.438473,66,44,0
42.302544,42.586903,66,44,0
42.586903,42.867275,70,49,0
42.867275,43.14765,69,47,0
42.01818,43.14765,62,44,0
41.72833,43.14765,60,48,0
43.693104,44.21394,62,33,0
43.693104,44.21394,58,28,0
44.21942,44.771748,62,33,0
44.21942,44.771748,58,28,0
43.14765,44.77756,67,44,0
45.308533,45.80469,73,33,0
45.308533,45.80469,67,28,0
45.308533,45.80469,70,28,0
45.809914,46.347244,73,33,0
45.809914,46.347244,67,28,0
45.809914,46.347244,70,28,0
44.77756,46.352898,79,53,0
46.881535,47.38104,72,34,0
46.881535,47.38104,70,29,0
47.386288,47.90174,72,35,0
47.386288,47.90174,70,29,0
46.352898,47.90717,77,50,0
48.197025,48.486877,65,48,0
48.77124,49.0556,75,46,0
49.0556,49.33597,74,51,0
49.47616,49.604664,73,49,0
48.486877,49.61635,69,44,0
47.90717,49.61635,63,48,0
50.1618,50.67159,69,28,0
50.1618,50.67159,65,23,0
50.1618,50.67159,63,20,0
50.676956,51.229282,69,28,0
50.676956,51.229282,65,23,0
50.676956,51.229282,63,20,0
49.61635,51.235096,73,46,0
51.780552,52.29462,70,28,0
51.780552,52.29462,62,19,0
51.780552,52.29462,65,23,0
52.30003,52.839806,70,28,0
52.30003,52.839806,62,18,0
52.30003,52.839806,65,23,0
51.235096,52.845486,74,46,0
53.403625,53.9434,67,33,0
53.403625,53.9434,63,28,0
53.94908,54.488853,67,34,0
53.94908,54.488853,63,28,0
52.845486,54.494537,72,47,0
55.35861,55.642967,66,44,0
55.642967,55.92334,70,49,0
55.92334,56.203716,69,47,0
55.074245,56.203716,62,44,0
54.784393,56.203716,60,48,0
56.74917,57.261024,62,33,0
56.74917,57.261024,58,28,0
57.26641,57.818737,62,33,0
57.26641,57.818737,58,28,0
56.203716,57.82455,67,44,0
58.370007,58.87966,67,33,0
58.370007,58.87966,62,28,0
58.885025,59.4248,67,33,0
58.885025,59.4248,62,28,0
57.82455,59.43048,74,47,0
59.98094,60.504066,67,28,0
59.98094,60.504066,63,23,0
59.98094,60.504066,60,23,0
60.509575,61.046906,67,28,0
60.509575,61.046906,63,23,0
60.509575,61.046906,60,23,0
59.43048,61.05256,72,47,0
61.91663,62.20099,66,44,0
62.20099,62.481365,70,49,0
62.481365,62.761738,69,47,0
61.63227,62.761738,62,44,0
61.342415,62.761738,60,48,0
63.29507,63.82285,62,33,0
63.29507,63.82285,58,28,0
63.828403,64.38073,62,33,0
63.828403,64.38073,58,28,0
62.761738,64.38654,67,44,0
64.932,65.462135,61,28,0
64.932,65.462135,55,23,0
64.932,65.462135,57,23,0
65.46771,66.00995,61,28,0
65.46771,66.00995,55,23,0
65.46771,66.00995,57,23,0
64.38654,66.015656,64,44,0
66.5738,67.11357,62,23,0
66.5738,67.11357,57,19,0
66.5738,67.11357,54,17,0
67.119255,67.65903,62,23,0
67.119255,67.65903,57,19,0
67.119255,67.65903,54,17,0
66.015656,67.66471,66,44,0
68.52878,68.81314,66,44,0
68.81314,69.09351,70,49,0
69.09351,69.373886,69,47,0
68.244415,69.373886,62,44,0
67.95457,69.373886,60,48,0
69.91934,70.44247,65,33,0
69.91934,70.44247,59,28,0
69.91934,70.44247,62,28,0
70.447975,71.000305,65,33,0
70.447975,71.000305,59,28,0
70.447975,71.000305,62,28,0
69.373886,71.00612,67,44,0
71.55157,72.04773,74,36,0
71.55157,72.04773,71,31,0
71.55157,72.04773,67,31,0
71.55157,72.04773,65,28,0
72.05295,72.57151,74,37,0
72.05295,72.57151,71,32,0
72.05295,72.57151,67,28,0
72.05295,72.57151,65,32,0
71.00612,72.576965,79,58,0
73.09421,73.57744,75,39,0
73.09421,73.57744,72,33,0
73.09421,73.57744,67,33,0
73.58253,74.08135,75,40,0
73.58253,74.08135,72,34,0
73.58253,74.08135,67,34,0
72.576965,74.0866,79,62,0
74.58195,75.06268,67,41,0
74.58195,75.06268,62,35,0
75.06774,75.56657,67,42,0
75.06774,75.56657,62,36,0
74.0866,75.571815,74,66,0
76.070526,76.55126,67,41,0
76.070526,76.55126,60,35,0
76.55632,77.05934,67,40,0
76.55632,77.05934,60,34,0
75.571815,77.06462,72,58,0
77.575264,78.05599,62,37,0
77.575264,78.05599,58,31,0
78.06105,78.55721,62,36,0
78.06105,78.55721,58,30,0
77.06462,78.56243,67,62,0
79.0463,79.50661,75,39,0
79.0463,79.50661,72,33,0
79.0463,79.50661,67,33,0
79.51145,79.98171,75,40,0
79.51145,79.98171,72,34,0
79.51145,79.98171,67,34,0
78.56243,79.986664,79,62,0
80.472496,80.93225,67,41,0
80.472496,80.93225,62,35,0
80.93727,81.40962,67,42,0
80.93727,81.40962,62,36,0
79.986664,81.4146,74,59,0
81.88105,82.33364,67,41,0
81.88105,82.33364,60,35,0
82.3384,82.84317,67,40,0
82.3384,82.84317,60,34,0
81.4146,82.84841,72,64,0
83.33974,83.81597,61,37,0
83.33974,83.81597,58,31,0
83.82101,84.32226,61,36,0
83.82101,84.32226,58,30,0
82.84841,84.327705,67,62,0
84.81353,85.2778,62,42,0
84.81353,85.2778,58,35,0
85.282684,85.77206,62,42,0
85.282684,85.77206,58,35,0
84.327705,85.77721,65,57,0
86.25659,86.720856,70,45,0
86.25659,86.720856,62,38,0
86.25659,86.720856,65,38,0
86.725746,87.19001,70,45,0
86.725746,87.19001,62,38,0
86.725746,87.19001,65,38,0
85.77721,87.59704,74,60,0
87.59704,87.65449,74,55,0
87.1949,87.65449,69,51,0
87.1949,87.65449,63,51,0
87.65449,88.092606,72,62,0
87.65449,88.092606,69,48,0
87.65449,88.092606,63,48,0
88.092606,88.53695,71,58,0
88.092606,88.53695,69,45,0
88.092606,88.53695,63,45,0
88.53695,88.99881,72,65,0
88.53695,88.99881,69,50,0
88.53695,88.99881,63,50,0
88.99881,89.47555,74,64,0
88.99881,89.47555,69,49,0
88.99881,89.47555,63,49,0
89.47555,89.95918,75,66,0
89.47555,89.95918,69,51,0
89.47555,89.95918,63,51,0
90.44282,90.909966,70,49,0
90.44282,90.909966,63,49,0
90.909966,91.388054,70,49,0
90.909966,91.388054,63,49,0
89.95918,91.388054,75,71,0
91.388054,91.85498,70,43,0
91.388054,91.85498,62,43,0
91.85498,92.32191,70,43,0
91.85498,92.32191,62,43,0
92.32191,92.80554,70,43,0
92.32191,92.80554,62,43,0
91.388054,92.80554,74,56,0
93.21369,93.271996,70,50,0
92.80554,93.271996,66,51,0
92.80554,93.271996,60,51,0
93.271996,93.71846,69,57,0
93.271996,93.71846,66,48,0
93.271996,93.71846,60,48,0
93.71846,94.17581,68,54,0
93.71846,94.17581,66,43,0
93.71846,94.17581,60,43,0
94.17581,94.642265,69,57,0
94.17581,94.642265,66,48,0
94.17581,94.642265,60,48,0
94.642265,95.09778,70,56,0
94.642265,95.09778,66,47,0
94.642265,95.09778,60,47,0
95.09778,95.58785,72,58,0
95.09778,95.58785,66,49,0
95.09778,95.58785,60,49,0
96.07793,96.54308,67,49,0
96.07793,96.54308,60,49,0
96.54308,97.00823,67,49,0
96.54308,97.00823,60,49,0
95.58785,97.00823,72,67,0
97.00823,97.47338,67,43,0
97.00823,97.47338,58,43,0
97.47338,97.93854,67,43,0
97.47338,97.93854,58,43,0
97.93854,98.42217,67,43,0
97.93854,98.42217,58,43,0
97.00823,98.42217,70,51,0
98.42217,98.90581,67,50,0
98.42217,98.90581,63,50,0
98.90581,99.37496,67,50,0
98.90581,99.37496,63,50,0
99.37496,99.84445,67,50,0
99.37496,99.84445,63,50,0
98.42217,99.84445,69,56,0
99.84445,100.32817,66,42,0
99.84445,100.32817,62,42,0
100.32817,100.83418,66,42,0
100.32817,100.83418,62,42,0
99.84445,101.09433,69,51,0
101.09433,101.2918,69,51,0
100.83418,101.41599,66,42,0
100.83418,101.41599,62,42,0
101.2918,101.888435,57,51,0
101.3539,101.888435,64,51,0
101.41599,103.7782,69,51,0
103.7782,104.38222,69,66,0
104.38222,104.513794,70,56,0
104.513794,104.64538,69,56,0
104.64538,104.776955,68,57,0
104.776955,104.901955,69,58,0
104.901955,105.026955,79,60,0
105.026955,105.151436,76,61,0
105.151436,105.27592,77,62,0
105.27592,105.39989,77,63,0
105.39989,105.52385,91,64,0
105.52385,105.64731,89,66,0
105.64731,105.77077,88,66,0
105.77077,105.85273,87,67,0
105.85273,105.9347,84,58,0
105.9347,106.01667,81,58,0
106.01667,106.0983,82,62,0
106.0983,106.17993,86,58,0
106.17993,106.2614,84,58,0
106.2614,106.34303,82,66,0
106.34303,106.424995,79,58,0
106.424995,106.50748,77,58,0
106.50748,106.59029,74,62,0
106.59029,106.676636,75,58,0
106.676636,106.770256,76,58,0
106.770256,106.864555,77,63,0
106.864555,106.959274,78,58,0
106.959274,107.05198,81,58,0
107.05198,107.145874,79,58,0
107.145874,107.241005,77,56,0
107.241005,107.34352,75,56,0
107.34352,107.603264,73,64,0
107.86301,109.393974,74,66,0
109.393974,109.88985,72,56,0
109.88985,110.41158,67,57,0
110.41158,111.998,70,62,0
111.998,113.6441,66,53,0
113.6441,114.19965,67,47,0
114.19965,114.463974,82,50,0
114.19965,114.463974,70,28,0
114.463974,114.707825,74,45,0
114.707825,114.94994,77,48,0
114.94994,115.73515,75,45,0
115.73515,115.994896,81,50,0
115.73515,115.994896,69,31,0
115.994896,116.23113,73,44,0
116.23113,116.46737,75,49,0
116.46737,117.21489,74,45,0
117.21489,117.45111,82,50,0
117.21489,117.45111,70,30,0
117.45111,117.67454,74,48,0
117.67454,117.90174,77,50,0
117.90174,118.60988,75,47,0
118.60988,118.8346,80,51,0
118.60988,118.8346,68,32,0
118.8346,119.05207,73,47,0
119.05207,119.27039,75,52,0
119.27039,119.949814,74,47,0
119.949814,120.16334,79,53,0
119.949814,120.16334,67,32,0
120.16334,120.37145,71,50,0
120.37145,120.57957,74,53,0
120.57957,121.21788,72,49,0
121.21788,121.42196,72,54,0
121.21788,121.42196,60,41,0
121.42196,121.62109,68,49,0
121.62109,121.82022,70,55,0
121.82022,122.43282,69,49,0
122.43282,122.62575,75,55,0
122.43282,122.62575,63,43,0
122.62575,122.81596,71,53,0
122.81596,123.01333,74,56,0
123.01333,123.60819,72,52,0
123.60819,123.79687,63,48,0
123.79687,123.98555,62,51,0
123.60819,123.98555,67,57,0
123.98555,124.18099,61,52,0
124.18099,124.37331,60,52,0
123.98555,124.37331,69,57,0
123.98555,124.37331,66,47,0
124.37331,124.72729,70,71,0
124.37331,124.72729,67,60,0
124.37331,124.72729,58,60,0
124.90159,125.069496,74,67,0
125.069496,125.24222,77,71,0
124.72729,125.41472,82,71,0
124.72729,125.41472,70,52,0
125.24222,125.760544,75,66,0
125.928894,126.091576,73,65,0
126.091576,126.258026,75,72,0
125.760544,126.423775,81,71,0
125.760544,126.423775,69,57,0
126.258026,126.75164,74,66,0
126.91301,127.068695,74,69,0
127.068695,127.22725,77,73,0
127.22725,127.3864,75,67,0
126.75164,127.3864,82,72,0
126.75164,127.3864,70,56,0
127.84895,127.99848,73,67,0
127.99848,128.14793,75,74,0
128.14793,128.301,74,67,0
127.69648,128.301,80,74,0
127.69648,128.301,68,57,0
128.74454,128.88953,71,71,0
128.88953,129.03412,74,75,0
129.03412,129.17938,72,70,0
128.59729,129.17938,79,75,0
128.59729,129.17938,67,57,0
129.61142,129.75223,68,69,0
129.75223,129.89276,70,76,0
129.89276,130.03494,69,69,0
129.46924,130.03494,72,75,0
129.46924,130.03494,60,57,0
130.45695,130.59442,71,73,0
130.59442,130.73158,74,77,0
130.73158,130.87015,72,71,0
130.31729,130.87015,75,76,0
130.31729,130.87015,63,59,0
131.28174,131.41644,61,71,0
131.41644,131.5521,63,71,0
131.5521,131.69034,62,71,0
131.14539,131.69034,66,78,0
131.14539,131.69034,54,78,0
131.69034,131.91174,58,67,0
131.69034,131.91174,67,79,0
131.91174,132.01888,55,53,0
131.91174,132.01888,60,78,0
132.01888,132.12602,58,65,0
132.12602,132.23317,57,64,0
132.23317,132.34032,55,65,0
132.34032,132.56009,67,77,0
132.34032,132.56009,58,77,0
132.56009,132.66724,55,52,0
132.56009,132.66724,60,77,0
132.66724,132.77437,58,64,0
132.77437,132.88152,57,64,0
132.88152,132.98866,55,63,0
132.98866,133.09775,65,69,0
133.09775,133.20685,60,52,0
133.20685,133.31593,63,54,0
133.31593,133.42308,54,55,0
133.42308,133.53021,60,57,0
133.53021,133.63736,63,58,0
133.63736,133.744,66,60,0
133.744,133.85007,72,62,0
133.85007,133.95589,77,63,0
133.95589,134.06245,75,65,0
134.06245,134.1698,74,67,0
134.1698,134.27771,72,68,0
134.27771,134.38841,70,67,0
134.27771,134.38841,79,79,0
134.49911,134.60625,72,78,0
134.49911,134.60625,67,53,0
134.60625,134.7134,70,65,0
134.7134,134.82054,69,64,0
134.82054,134.92769,67,65,0
134.92769,135.14746,79,77,0
134.92769,135.14746,70,69,0
135.14746,135.25461,67,52,0
135.14746,135.25461,72,77,0
135.25461,135.36174,70,64,0
135.36174,135.46889,69,64,0
135.46889,135.57603,67,63,0
135.57603,135.68512,77,69,0
135.68512,135.79422,72,52,0
135.79422,135.9033,75,54,0
135.9033,136.01045,66,55,0
136.01045,136.11758,72,57,0
136.11758,136.22473,75,58,0
136.22473,136.33138,78,60,0
136.33138,136.43744,84,62,0
136.43744,136.54326,89,63,0
136.54326,136.64983,87,65,0
136.64983,136.75717,86,67,0
136.75717,136.86508,84,68,0
136.86508,136.97578,82,64,0
136.86508,136.97578,91,76,0
137.19719,137.30472,96,75,0
137.19719,137.30472,91,63,0
137.30472,137.41223,94,68,0
137.41223,137.51976,86,68,0
137.51976,137.62634,90,62,0
137.51976,137.62634,94,73,0
137.62634,137.7324,93,67,0
137.7324,137.83823,86,66,0
137.83823,137.94487,82,71,0
137.83823,137.94487,78,60,0
137.94487,138.052,81,64,0
138.052,138.15915,74,64,0
138.15915,138.26944,79,56,0
138.15915,138.26944,84,66,0
138.26944,138.37973,82,60,0
138.37973,138.49252,86,60,0
138.49252,138.60005,96,74,0
138.49252,138.60005,91,62,0
138.60005,138.70631,94,68,0
138.70631,138.81195,86,69,0
138.81195,138.91757,90,60,0
138.81195,138.91757,94,71,0
138.91757,139.02309,93,64,0
139.02309,139.12854,86,63,0
139.12854,139.2346,82,66,0
139.12854,139.2346,78,56,0
139.2346,139.34137,81,60,0
139.34137,139.44814,74,60,0
139.44814,139.55843,84,66,0
139.44814,139.55843,79,56,0
139.55843,139.66872,82,60,0
139.66872,139.7815,86,60,0
139.7815,139.88884,96,74,0
139.7815,139.88884,91,62,0
139.88884,139.99522,94,68,0
139.99522,140.10161,86,69,0
140.10161,140.208,90,60,0
140.10161,140.208,94,71,0
140.208,140.31438,93,64,0
140.31438,140.42082,86,63,0
140.42082,140.52771,82,66,0
140.42082,140.52771,78,56,0
140.52771,140.63484,81,60,0
140.63484,140.74199,74,60,0
140.74199,140.85228,67,50,0
140.74199,140.85228,72,59,0
140.85228,140.96257,70,54,0
140.96257,141.07536,74,54,0
141.07536,141.18289,79,55,0
141.07536,141.18289,84,66,0
141.18289,141.29042,82,61,0
141.29042,141.39793,74,62,0
141.39793,141.5054,78,54,0
141.39793,141.5054,82,63,0
141.5054,141.61235,81,57,0
141.61235,141.71893,74,56,0
141.71893,141.82632,66,50,0
141.71893,141.82632,70,59,0
141.82632,141.93423,69,54,0
141.93423,142.04216,62,54,0
142.04216,142.15245,67,50,0
142.04216,142.15245,72,59,0
142.15245,142.26274,70,54,0
142.26274,142.37552,74,54,0
142.37552,142.48305,79,49,0
142.37552,142.48305,84,59,0
142.48305,142.59058,82,54,0
142.59058,142.70169,74,55,0
142.70169,142.80922,74,48,0
142.70169,142.80922,81,56,0
142.80922,142.91675,79,51,0
142.91675,143.02428,70,50,0
143.02428,143.13179,70,45,0
143.02428,143.13179,75,53,0
143.13179,143.23932,74,48,0
143.23932,143.34685,67,48,0
143.34685,143.45714,67,38,0
143.34685,143.45714,72,45,0
143.45714,143.56744,70,40,0
143.56744,143.68022,62,40,0
143.68022,143.78775,69,50,0
143.68022,143.78775,62,41,0
143.78775,143.89528,67,45,0
143.89528,144.0068,58,46,0
144.0068,144.11433,58,40,0
144.0068,144.11433,63,47,0
144.11433,144.22185,62,43,0
144.22185,144.32938,55,42,0
144.32938,144.4369,60,45,0
144.32938,144.4369,55,38,0
144.4369,144.54443,58,40,0
144.54443,144.65393,50,40,0
144.65393,144.76422,60,53,0
144.65393,144.76422,55,45,0
144.76422,144.87451,58,48,0
144.87451,144.98729,50,48,0
144.98729,145.09482,62,55,0
144.98729,145.09482,55,46,0
145.09482,145.20235,60,50,0
145.20235,145.31387,51,51,0
145.31387,145.4214,60,54,0
145.31387,145.4214,55,45,0
145.4214,145.52893,58,50,0
145.52893,145.63646,50,50,0
145.63646,145.74397,62,53,0
145.63646,145.74397,55,45,0
145.74397,145.8515,60,48,0
145.8515,145.9622,51,48,0
145.9622,146.07251,60,53,0
145.9622,146.07251,55,45,0
146.07251,146.1828,58,48,0
146.1828,146.29558,50,48,0
146.29558,146.4031,55,46,0
146.29558,146.4031,62,55,0
146.4031,146.51064,60,50,0
146.51064,146.62216,51,51,0
146.62216,146.72969,60,54,0
146.62216,146.72969,55,45,0
146.72969,146.8372,58,50,0
146.8372,146.94473,50,50,0
146.94473,147.05226,55,45,0
146.94473,147.05226,62,53,0
147.05226,147.15979,60,48,0
147.15979,147.2705,51,48,0
147.2705,147.3861,55,50,0
147.3861,147.50067,62,51,0
147.50067,147.61424,58,52,0
147.61424,147.7268,62,53,0
147.7268,147.83841,67,55,0
147.83841,147.94904,70,56,0
147.94904,148.0592,74,57,0
148.0592,148.17038,79,58,0
148.17038,148.28267,82,59,0
148.28267,148.39609,86,61,0
148.39609,148.51468,91,62,0
148.51468,148.63326,98,63,0
148.63326,148.74994,94,63,0
148.74994,148.86569,98,60,0
148.86569,148.98056,91,59,0
148.98056,149.09456,86,58,0
149.09456,149.20769,82,58,0
149.20769,149.31998,79,57,0
149.31998,149.43178,74,56,0
149.43178,149.54457,70,56,0
149.54457,149.6585,67,55,0
149.6585,149.77344,62,54,0
149.77344,149.8974,58,53,0
149.8974,150.02138,50,53,0
150.02138,150.14114,55,49,0
150.14114,150.2593,62,50,0
150.2593,150.37657,58,52,0
150.37657,150.49286,62,54,0
150.49286,150.60832,67,55,0
150.60832,150.72295,74,57,0
150.72295,150.83904,70,57,0
150.83904,150.95859,74,56,0
150.95859,151.08182,67,54,0
151.08182,151.20906,62,53,0
151.20906,151.33836,58,51,0
151.33836,151.46768,50,49,0
151.46768,151.58789,54,49,0
151.58789,151.70708,62,50,0
151.70708,151.8253,58,52,0
151.8253,151.94258,62,54,0
151.94258,152.05972,66,55,0
152.05972,152.17868,74,57,0
152.17868,152.29944,70,57,0
152.29944,152.42203,74,56,0
152.42203,152.54654,66,54,0
152.54654,152.6731,62,53,0
152.6731,152.80296,58,51,0
152.80296,152.93283,50,49,0
152.93283,153.05069,55,50,0
153.05069,153.16777,62,51,0
153.16777,153.28406,58,52,0
153.28406,153.39958,62,53,0
153.39958,153.51442,67,55,0
153.51442,153.62837,70,56,0
153.62837,153.7415,74,57,0
153.7415,153.85545,79,58,0
153.85545,153.97037,82,59,0
153.97037,154.08609,86,61,0
154.08609,154.20564,91,62,0
154.20564,154.3252,98,63,0
154.3252,154.4424,94,63,0
154.4424,154.55905,98,60,0
154.55905,154.67499,91,59,0
154.67499,154.79024,86,58,0
154.79024,154.90488,82,58,0
154.90488,155.01889,79,57,0
155.01889,155.13393,74,56,0
155.13393,155.25151,70,56,0
155.25151,155.37173,67,55,0
155.37173,155.49338,62,54,0
155.49338,155.62688,58,53,0
155.62688,155.76038,50,53,0
155.76038,155.88376,54,49,0
155.88376,156.00589,62,50,0
156.00589,156.12679,58,52,0
156.12679,156.24649,62,54,0
156.24649,156.365,66,55,0
156.365,156.48236,74,57,0
156.48236,156.60037,70,57,0
156.60037,156.72105,74,56,0
156.72105,156.84451,66,54,0
156.84451,156.971,62,53,0
156.971,157.11403,58,51,0
157.11403,157.25706,50,49,0
157.25706,157.38625,53,49,0
157.38625,157.5139,62,50,0
157.5139,157.63979,58,52,0
157.63979,157.7642,62,54,0
157.7642,157.88791,65,55,0
157.88791,158.0133,74,57,0
158.0133,158.14037,70,57,0
158.14037,158.26921,74,56,0
158.26921,158.3998,65,54,0
158.3998,158.53229,62,53,0
158.53229,158.68933,58,51,0
158.68933,158.84303,50,49,0
158.84303,158.97975,53,50,0
158.97975,159.1157,60,51,0
159.1157,159.2507,57,52,0
159.2507,159.38503,60,53,0
159.38503,159.51852,65,55,0
159.51852,159.6512,69,56,0
159.6512,159.78424,72,57,0
159.78424,159.92155,77,58,0
159.92155,160.06375,81,59,0
160.06375,160.2112,84,61,0
160.2112,160.36232,89,62,0
160.36232,160.51346,93,63,0
160.51346,160.78496,101,63,0
166.39629,168.18164,65,36,0
166.39629,168.18164,60,30,0
168.18164,168.97522,67,42,0
168.97522,169.37056,67,37,0
168.18164,169.37056,62,34,0
169.37056,170.92618,63,42,0
170.92618,171.50493,75,50,0
171.50493,171.71193,74,40,0
171.71193,172.87941,72,49,0
171.71193,172.87941,67,33,0
172.87941,173.6654,74,48,0
173.6654,174.06834,74,37,0
172.87941,174.06834,69,37,0
174.06834,175.25903,70,40,0
175.25903,176.04001,82,60,0
176.04001,176.45303,82,56,0
176.45303,177.23889,82,59,0
177.23889,177.62436,80,55,0
177.64644,178.02719,80,59,0
178.02719,178.41507,79,56,0
178.41507,178.81264,78,55,0
178.82993,179.62059,78,58,0
179.62059,180.42194,79,56,0
180.42194,181.01114,80,62,0
181.01114,181.21654,75,56,0
181.21654,182.01031,79,59,0
182.01031,182.8027,77,50,0
182.8027,183.39133,79,59,0
183.39133,183.59354,74,53,0
183.59354,183.97467,77,59,0
183.97467,184.36531,75,55,0
184.36531,184.75597,74,55,0
184.75597,184.88618,72,55,0
184.88618,185.0164,74,50,0
185.0164,185.1466,72,50,0
185.1466,185.34294,71,53,0
185.34294,185.54185,72,50,0
185.54185,185.74356,74,50,0
185.74356,185.8966,75,50,0
185.94774,187.16577,65,36,0
185.8966,187.16577,60,30,0
187.16577,187.95389,67,42,0
187.95389,188.34921,67,37,0
187.16577,188.34921,62,34,0
188.34921,189.91742,63,42,0
189.91742,190.49655,75,55,0
190.49655,190.70357,74,44,0
190.70357,191.87782,72,53,0
190.70357,191.87782,67,34,0
191.87782,192.65388,74,52,0
192.66187,193.06479,74,47,0
191.87782,193.06479,69,40,0
193.06479,194.25548,70,49,0
194.25548,195.04868,82,66,0
195.05695,195.51305,82,60,0
195.53288,196.73409,82,68,0
196.73409,197.52773,72,61,0
197.52773,197.95096,74,55,0
197.95096,198.08475,75,60,0
198.08475,198.21855,77,53,0
198.21855,198.35234,75,53,0
198.35234,198.76364,74,52,0
198.76364,199.17494,75,55,0
199.17494,199.59438,79,56,0
199.59969,200.1576,79,61,0
200.1576,200.3085,77,48,0
200.3085,200.45859,75,48,0
200.48003,201.95164,75,50,0
202.43358,202.67947,67,36,0
202.67947,202.92538,68,34,0
202.92538,203.08229,70,37,0
203.08229,203.2392,74,34,0
203.2392,203.41655,72,34,0
203.41655,204.85515,70,42,0
205.33324,205.57614,67,36,0
205.57614,205.81906,68,34,0
205.81906,205.97723,70,37,0
205.97723,206.13414,74,34,0
206.13414,206.3115,72,34,0
206.3115,207.75009,70,42,0
208.22816,208.47108,65,36,0
208.47108,208.714,68,34,0
208.714,208.87218,70,37,0
208.87218,209.02908,74,34,0
209.02908,209.20644,72,34,0
209.20644,209.86113,70,42,0
210.02623,210.18848,63,34,0
210.18848,210.35571,67,39,0
209.86113,210.35571,61,34,0
210.35571,210.52295,72,34,0
210.52295,210.69019,70,35,0
210.69019,211.41722,68,38,0
211.65958,211.8961,63,38,0
211.41722,211.8961,59,37,0
211.8961,212.1519,65,35,0
212.1519,213.62804,67,46,0
214.12187,214.36877,67,36,0
214.36877,214.61569,68,34,0
214.61569,214.7726,70,37,0
214.7726,214.92952,74,34,0
214.92952,215.10687,72,34,0
215.10687,215.60233,70,42,0
215.60233,217.04584,82,51,0
217.20778,217.36972,67,36,0
217.36972,217.53168,68,34,0
217.53168,217.68983,70,37,0
217.68983,217.84676,74,34,0
217.84676,218.02411,72,34,0
218.02411,218.51877,70,42,0
218.51877,219.95895,82,50,0
220.12024,220.28154,65,36,0
220.28154,220.44283,68,34,0
220.44283,220.60083,70,37,0
220.60083,220.75774,74,34,0
220.75774,220.93509,72,34,0
220.93509,221.58978,70,42,0
221.75488,221.91713,63,34,0
221.91713,222.08437,67,39,0
221.58978,222.08437,61,34,0
222.08437,222.2516,72,34,0
222.2516,222.41884,70,35,0
222.41884,223.14587,68,38,0
223.38823,223.62476,63,38,0
223.14587,223.62476,59,37,0
223.62476,223.88057,65,35,0
223.88057,225.61148,67,46,0
225.61148,225.8584,67,34,0
225.8584,226.1053,70,36,0
226.1053,226.35222,79,37,0
226.35222,226.58759,77,40,0
226.58759,226.8434,75,37,0
226.8434,228.5897,74,46,0
228.5897,228.8373,70,34,0
228.8373,229.08488,74,36,0
229.08488,229.33247,82,37,0
229.33247,229.56784,74,40,0
229.56784,229.82364,75,37,0
229.82364,230.33203,76,46,0
230.33203,231.56996,77,46,0
231.56996,231.82645,74,39,0
231.82645,232.08292,77,43,0
232.08292,232.33939,86,50,0
232.33939,232.58698,84,46,0
232.58698,232.84686,82,41,0
232.84686,233.11288,80,45,0
233.11288,233.37892,81,40,0
233.37892,233.64494,89,51,0
233.64494,233.91096,88,46,0
233.91096,234.177,86,45,0
234.177,234.44302,81,40,0
234.44302,234.70987,74,40,0
234.70987,234.97986,69,36,0
234.97986,235.25352,65,39,0
235.25352,235.53027,62,34,0
235.53027,235.77539,64,39,0
235.77539,235.8571,67,31,0
235.8571,236.18394,65,36,0
239.05316,239.33119,68,37,0
239.33119,239.59624,72,41,0
239.59624,239.86127,71,39,0
238.77512,239.86127,64,37,0
238.46002,239.86127,62,38,0
240.36769,240.85577,64,28,0
240.36769,240.85577,60,23,0
240.8609,241.38303,64,28,0
240.8609,241.38303,60,23,0
239.86127,241.38852,69,37,0
241.88603,242.38272,69,28,0
242.38795,242.88246,69,28,0
241.38852,242.88766,76,41,0
243.408,243.90251,65,23,0
243.408,243.90251,69,28,0
243.90771,244.4022,69,28,0
243.90771,244.4022,65,23,0
242.88766,244.40742,74,39,0
245.22423,245.49304,68,37,0
245.49304,245.74767,72,41,0
245.74767,246.01236,71,39,0
244.95541,246.01236,64,37,0
244.68141,246.01236,62,40,0
246.51207,246.99594,64,28,0
246.51207,246.99594,60,23,0
247.00104,247.52315,64,28,0
247.00104,247.52315,60,23,0
246.01236,247.52864,69,37,0
248.03056,248.53043,60,23,0
248.03056,248.53043,57,23,0
248.03056,248.53043,64,28,0
248.53568,249.0578,60,23,0
248.53568,249.0578,57,23,0
248.53568,249.0578,64,28,0
247.52864,249.0633,66,37,0
249.60603,250.12715,64,23,0
249.60603,250.12715,59,19,0
250.13264,250.65475,64,23,0
250.13264,250.65475,59,19,0
249.0633,250.66025,68,37,0
251.47707,251.74588,68,37,0
251.74588,251.99377,72,41,0
251.99377,252.25996,71,39,0
251.20825,252.25996,64,37,0
250.93425,252.25996,62,40,0
252.77557,253.25853,64,28,0
252.77557,253.25853,60,23,0
253.26361,253.78572,64,28,0
253.26361,253.78572,60,23,0
252.25996,253.79123,69,37,0
254.28302,254.74437,69,26,0
254.28302,254.74437,72,32,0
254.74922,255.26108,72,32,0
254.74922,255.26108,69,26,0
253.79123,255.26646,76,53,0
255.76855,256.23547,72,32,0
255.76855,256.23547,69,26,0
255.76855,256.23547,64,26,0
256.2403,256.7075,64,26,0
256.2403,256.7075,72,32,0
256.2403,256.7075,69,26,0
255.26646,256.71243,78,53,0
257.50665,257.76752,68,37,0
257.76752,258.0154,71,41,0
258.0154,258.26865,69,39,0
257.24576,258.26865,64,37,0
256.9791,258.26865,60,40,0
258.78424,259.27658,60,23,0
258.78424,259.27658,64,28,0
259.28177,259.80386,64,28,0
259.28177,259.80386,60,23,0
258.26865,259.8094,69,37,0
260.29916,260.76456,72,34,0
260.29916,260.76456,69,28,0
260.29916,260.76456,64,28,0
260.76947,261.2774,72,36,0
260.76947,261.2774,69,28,0
260.76947,261.2774,64,28,0
259.8094,261.28278,78,55,0
261.7807,262.24966,75,36,0
261.7807,262.24966,72,30,0
261.7807,262.24966,69,30,0
262.25455,262.7375,69,30,0
262.25455,262.7375,72,30,0
262.25455,262.7375,75,37,0
261.28278,262.74258,80,58,0
263.2445,263.7226,72,31,0
262.74258,263.7226,78,62,0
263.2445,263.7226,69,31,0
263.2445,263.7226,75,39,0
263.97925,264.2145,80,65,0
264.71933,265.1815,69,35,0
264.71933,265.1815,72,35,0
264.71933,265.1815,75,45,0
265.1863,265.66498,69,35,0
265.1863,265.66498,72,35,0
265.1863,265.66498,75,45,0
264.2359,265.67,80,66,0
266.17194,266.63525,75,47,0
265.67,266.63525,78,69,0
266.17194,266.63525,69,38,0
266.17194,266.63525,72,38,0
266.88016,267.10464,80,71,0
267.5938,268.0354,69,39,0
267.5938,268.0354,72,39,0
267.5938,268.0354,75,50,0
268.04004,268.5039,69,40,0
268.04004,268.5039,72,40,0
268.04004,268.5039,75,50,0
267.12506,268.5088,80,74,0
268.99072,269.43484,72,42,0
268.5088,269.43484,78,81,0
268.99072,269.43484,75,53,0
268.99072,269.43484,69,42,0
269.67014,269.90543,80,77,0
270.34824,270.76343,75,47,0
270.34824,270.76343,72,47,0
270.34824,270.76343,78,57,0
270.7678,271.183,72,48,0
270.7678,271.183,75,48,0
270.7678,271.183,78,59,0
269.90543,271.18738,81,78,0
271.62375,272.0263,72,50,0
271.62375,272.0263,75,50,0
271.62375,272.0263,78,63,0
271.18738,272.03052,80,94,0
272.03052,272.4671,81,100,0
272.03052,272.4671,75,50,0
272.03052,272.4671,72,50,0
272.03052,272.4671,78,61,0
272.4717,273.5817,76,82,0
272.4717,273.5817,83,99,0
272.4717,273.5817,71,82,0
272.4717,273.5817,74,82,0
272.4717,273.5817,80,82,0
273.5817,274.30328,85,96,0
273.5817,274.30328,76,81,0
273.5817,274.30328,74,81,0
273.5817,274.30328,80,81,0
274.30328,274.6522,85,91,0
274.30328,274.6522,74,77,0
274.30328,274.6522,76,77,0
274.30328,274.6522,80,77,0
274.6522,275.70145,69,81,0
274.6522,275.70145,73,81,0
274.6522,275.70145,81,96,0
275.70145,276.40714,93,105,0
275.70145,276.40714,85,89,0
275.70145,276.40714,81,89,0
276.40714,276.7536,92,101,0
276.40714,276.7536,85,85,0
276.40714,276.7536,80,85,0
276.7536,277.79883,90,103,0
276.7536,277.79883,85,89,0
276.7536,277.79883,78,85,0
277.79883,278.50357,92,102,0
277.79883,278.50357,87,86,0
277.79883,278.50357,83,86,0
278.50357,278.85214,81,79,0
278.50357,278.85214,87,79,0
278.50357,278.85214,92,93,0
278.85214,279.89743,76,88,0
278.85214,279.89743,80,88,0
278.85214,279.89743,88,103,0
279.89743,280.60056,76,96,0
279.89743,280.60056,88,113,0
280.60056,280.94577,88,113,0
280.60056,280.94577,76,96,0
280.94577,281.64462,88,113,0
280.94577,281.64462,76,94,0
281.64462,281.99142,86,97,0
281.64462,281.99142,74,82,0
280.94577,281.99142,81,86,0
281.99142,282.10944,74,81,0
281.99142,282.10944,86,95,0
282.10944,282.22742,88,93,0
282.10944,282.22742,76,79,0
282.22742,282.34543,86,90,0
282.22742,282.34543,74,75,0
282.34543,282.5193,85,97,0
282.34543,282.5193,73,82,0
282.5193,282.6936,74,79,0
282.5193,282.6936,86,93,0
282.6936,282.868,78,82,0
282.6936,282.868,90,97,0
282.868,283.04605,76,78,0
282.868,283.04605,88,92,0
283.04605,283.7439,86,113,0
283.04605,283.7439,74,94,0
283.7439,284.09073,85,97,0
283.7439,284.09073,73,82,0
283.04605,284.09073,80,86,0
284.09073,284.2087,73,81,0
284.09073,284.2087,85,95,0
284.2087,284.32672,86,93,0
284.2087,284.32672,74,79,0
284.32672,284.44473,85,90,0
284.32672,284.44473,73,75,0
284.44473,284.61856,84,97,0
284.44473,284.61856,72,82,0
284.61856,284.7935,73,79,0
284.61856,284.7935,85,93,0
284.7935,284.9684,88,97,0
284.7935,284.9684,76,82,0
284.9684,285.14334,86,92,0
284.9684,285.14334,74,78,0
285.14334,285.49734,85,110,0
285.14334,285.49734,73,94,0
285.49734,286.0189,83,97,0
285.49734,286.0189,71,82,0
286.0189,286.19272,82,97,0
286.0189,286.19272,70,82,0
285.14334,286.19272,78,86,0
286.19272,286.45822,71,82,0
286.19272,286.45822,83,97,0
286.45822,286.72058,84,93,0
286.45822,286.72058,72,79,0
286.72058,286.98132,73,82,0
286.72058,286.98132,85,97,0
286.98132,287.2421,80,92,0
286.98132,287.2421,68,78,0
286.19272,287.2421,77,86,0
287.2421,287.5961,83,113,0
287.2421,287.5961,71,94,0
287.2421,287.9438,78,81,0
287.2421,287.9438,73,77,0
287.5961,288.1176,81,97,0
288.1176,288.20456,80,97,0
288.20456,288.24802,78,80,0
288.24802,288.29147,80,79,0
287.5961,288.29147,69,82,0
288.29147,288.64548,71,82,0
288.29147,288.64548,69,82,0
288.29147,288.64548,78,97,0
288.29147,288.64548,75,82,0
288.64548,288.80484,71,71,0
288.64548,288.80484,69,71,0
288.64548,288.80484,77,84,0
288.64548,288.80484,75,71,0
288.8193,288.97867,78,88,0
288.8193,288.97867,71,74,0
288.8193,288.97867,69,74,0
288.8193,288.97867,75,74,0
288.99316,289.1525,80,91,0
288.99316,289.1525,69,77,0
288.99316,289.1525,71,77,0
288.99316,289.1525,75,77,0
289.167,289.32635,81,94,0
289.167,289.32635,71,80,0
289.167,289.32635,75,80,0
289.167,289.32635,69,80,0
289.34085,290.3688,71,99,0
289.34085,290.3688,68,82,0
289.34085,290.3688,64,82,0
289.34085,290.3688,62,82,0
290.3688,291.04886,68,81,0
290.3688,291.04886,73,81,0
290.3688,291.04886,76,96,0
290.3688,291.04886,64,81,0
291.04886,291.37497,73,77,0
291.04886,291.37497,64,77,0
291.04886,291.37497,62,77,0
291.04886,291.37497,76,91,0
291.04886,291.37497,68,77,0
291.37497,291.70105,69,96,0
291.37497,291.70105,57,81,0
291.37497,291.70105,61,81,0
292.03253,292.36404,81,96,0
292.03253,292.36404,69,81,0
292.03253,292.36404,73,81,0
292.36404,293.00925,85,89,0
292.36404,293.00925,81,89,0
292.36404,293.00925,93,105,0
293.00925,293.32925,80,85,0
293.00925,293.32925,85,85,0
293.00925,293.32925,92,101,0
293.32925,294.29883,90,103,0
293.32925,294.29883,78,87,0
293.32925,294.29883,85,89,0
294.29883,294.952,83,86,0
294.29883,294.952,87,86,0
294.29883,294.952,92,102,0
294.952,295.27457,81,79,0
294.952,295.27457,87,79,0
294.952,295.27457,92,93,0
295.27457,296.24164,88,103,0
295.27457,296.24164,76,88,0
295.27457,296.24164,80,88,0
296.24164,297.11258,100,104,0
296.24164,297.11258,88,89,0
297.11258,297.203,100,104,0
297.11258,297.203,88,89,0
297.203,297.36325,100,104,0
297.203,297.36325,88,87,0
298.153,299.41882,78,94,0
298.153,299.41882,66,80,0
299.41882,299.49783,66,67,0
299.41882,299.49783,78,79,0
299.49783,299.5768,80,79,0
299.49783,299.5768,68,67,0
299.5768,299.73483,78,83,0
299.5768,299.73483,66,70,0
299.73483,299.89236,77,77,0
299.73483,299.89236,65,64,0
299.89236,300.04987,78,79,0
299.89236,300.04987,66,67,0
300.04987,300.20688,80,81,0
300.04987,300.20688,68,68,0
300.20688,300.36386,82,84,0
300.20688,300.36386,70,71,0
300.36386,300.52078,83,86,0
300.36386,300.52078,71,73,0
300.52078,300.68033,85,89,0
300.52078,300.68033,73,74,0
300.68033,300.8426,74,77,0
300.68033,300.8426,86,91,0
300.8426,301.0079,88,94,0
300.8426,301.0079,76,80,0
301.0079,301.16815,90,113,0
301.0079,301.16815,78,94,0
301.95792,302.59317,80,94,0
301.95792,302.59317,68,80,0
302.59317,302.90793,68,80,0
302.59317,302.90793,80,94,0
303.06818,303.22824,80,74,0
303.22824,303.38623,81,79,0
303.38623,303.54425,80,74,0
302.90793,303.54425,68,79,0
303.54425,303.70178,79,77,0
303.54425,303.70178,67,64,0
303.70178,303.85928,80,79,0
303.70178,303.85928,68,67,0
303.85928,304.0163,82,81,0
303.85928,304.0163,70,68,0
304.0163,304.17328,84,84,0
304.0163,304.17328,72,71,0
304.17328,304.3302,85,86,0
304.17328,304.3302,73,73,0
304.3302,304.48975,87,89,0
304.3302,304.48975,75,74,0
304.48975,304.652,88,91,0
304.48975,304.652,76,77,0
304.652,304.81732,78,80,0
304.652,304.81732,90,94,0
304.81732,304.97757,92,113,0
304.81732,304.97757,80,94,0
305.76733,306.4026,80,94,0
305.76733,306.4026,68,80,0
306.4026,306.71735,80,94,0
306.4026,306.71735,68,80,0
306.71735,306.7975,68,68,0
306.71735,306.7975,80,80,0
306.7975,306.8776,82,74,0
306.7975,306.8776,70,62,0
306.8776,307.03766,80,74,0
306.8776,307.03766,68,62,0
307.03766,307.19565,79,77,0
307.03766,307.19565,67,64,0
307.19565,307.35367,80,79,0
307.19565,307.35367,68,67,0
307.35367,307.5112,70,69,0
307.35367,307.5112,82,82,0
307.5112,307.6687,83,86,0
307.5112,307.6687,71,72,0
307.6687,307.8257,85,90,0
307.6687,307.8257,73,75,0
307.8257,307.9827,87,93,0
307.8257,307.9827,75,78,0
307.9827,308.13962,77,81,0
307.9827,308.13962,89,95,0
308.13962,308.29916,91,101,0
308.13962,308.29916,79,85,0
308.29916,308.46143,92,101,0
308.29916,308.46143,80,85,0
308.46143,308.62674,94,102,0
308.46143,308.62674,82,86,0
308.62674,308.81424,95,112,0
308.62674,308.81424,83,94,0
309.00174,309.10925,95,85,0
309.00174,309.10925,92,85,0
309.10925,309.2164,89,79,0
309.2164,309.32318,87,78,0
309.32318,309.4294,83,77,0
309.4294,309.5353,83,80,0
309.4294,309.5353,80,80,0
309.5353,309.6408,77,78,0
309.6408,309.74597,75,73,0
309.74597,309.85062,71,73,0
309.85062,309.9549,68,74,0
309.85062,309.9549,71,74,0
309.9549,310.0588,65,64,0
310.0588,310.16263,63,64,0
310.16263,310.26645,59,63,0
310.26645,310.3706,59,69,0
310.26645,310.3706,56,69,0
310.3706,310.47476,53,61,0
310.47476,310.57916,51,60,0
310.57916,310.68372,47,60,0
310.68372,310.78836,56,60,0
310.68372,310.78836,59,60,0
310.78836,310.89325,53,62,0
310.89325,310.99814,51,52,0
310.99814,311.10342,47,52,0
311.10342,311.20868,56,52,0
311.20868,311.31418,53,51,0
311.10342,311.31418,59,52,0
311.31418,311.42072,58,52,0
311.41254,311.51862,56,48,0
311.51047,311.6161,59,52,0
311.608,311.71304,53,47,0
311.70496,311.80954,58,47,0
311.80154,311.90594,56,47,0
311.89758,312.0063,59,52,0
311.99792,312.10623,53,47,0
312.09827,312.2021,58,52,0
312.1941,312.29794,56,47,0
312.28995,312.3938,59,47,0
312.3858,312.4899,53,47,0
312.48166,312.5889,58,52,0
312.58066,312.6876,56,48,0
312.67966,312.78284,59,52,0
312.7749,312.87808,53,47,0
312.87015,312.97333,58,47,0
312.96536,313.06866,56,47,0
313.0606,313.16513,59,52,0
313.15707,313.26135,53,47,0
313.25354,313.3551,58,52,0
313.3473,313.44885,56,47,0
313.44104,313.5426,59,47,0
313.5348,313.63657,53,47,0
313.62854,313.73303,58,52,0
313.725,313.82928,56,48,0
313.82147,313.92303,59,53,0
313.91522,314.01678,53,48,0
314.00897,314.11053,58,48,0
314.10272,314.20447,56,49,0
314.19647,314.30063,59,55,0
314.29263,314.39658,53,50,0
314.38876,314.49033,58,56,0
314.4825,314.58408,56,51,0
314.57626,314.67783,59,51,0
314.67,314.77185,53,52,0
314.76376,314.86862,58,58,0
314.86053,314.96515,56,54,0
314.95734,315.0589,59,59,0
315.0511,315.15265,53,54,0
315.14484,315.2464,58,54,0
315.2386,315.34042,56,54,0
315.33234,315.4375,59,61,0
315.4294,315.5343,53,55,0
315.5265,315.62805,58,62,0
315.62024,315.7218,56,56,0
315.714,315.81555,59,57,0
315.80774,315.9093,53,57,0
315.9015,316.089,58,65,0
316.089,316.19055,58,65,0
316.18274,316.2843,62,56,0
316.2765,316.37805,59,65,0
316.37024,316.4718,62,58,0
316.464,316.56534,61,65,0
316.55756,316.6588,65,58,0
316.651,316.75226,62,65,0
316.74448,316.8457,68,58,0
316.83792,316.93918,64,65,0
316.9314,317.03262,68,58,0
317.02484,317.12576,65,65,0
317.118,317.2188,71,58,0
317.2111,317.3117,67,65,0
317.30396,317.40436,71,58,0
317.39664,317.49695,68,64,0
317.48926,317.58923,74,57,0
317.58154,317.68143,70,63,0
317.67377,317.77347,74,56,0
317.76578,317.86526,71,63,0
317.85764,317.957,74,57,0
317.94937,318.04846,73,62,0
318.04083,318.13968,77,56,0
318.1321,318.2306,74,62,0
318.22302,318.3215,80,56,0
318.31393,318.4124,76,62,0
318.40485,318.50345,80,55,0
318.49585,318.59464,77,61,0
318.58704,318.68582,83,55,0
318.67822,318.777,79,61,0
318.7694,318.8683,83,54,0
318.8607,318.95987,80,60,0
318.95224,319.05173,86,54,0
319.04407,319.1439,82,60,0
319.1362,319.23627,86,54,0
319.22858,319.32858,83,59,0
319.3209,319.42102,86,52,0
319.4133,319.5136,85,59,0
319.5059,319.6064,89,53,0
319.59866,319.6993,86,59,0
319.69156,319.79248,92,54,0
319.78473,319.88577,88,58,0
319.878,319.97925,92,54,0
319.97144,320.0729,89,58,0
320.0651,320.1667,95,53,0
320.15884,320.26074,91,57,0
320.2529,320.35495,95,54,0
320.34714,320.4483,94,57,0
320.44055,320.54214,92,51,0
320.5343,320.63602,95,57,0
320.62814,320.73016,89,51,0
320.72238,320.8233,94,57,0
320.81546,320.91736,92,51,0
320.9096,321.01065,96,57,0
321.0028,321.1048,89,50,0
321.09702,321.19794,94,57,0
321.1902,321.29135,92,52,0
321.28363,321.38388,97,60,0
321.3761,321.47794,89,51,0
321.4701,321.57123,94,61,0
321.5635,321.66483,92,51,0
321.65695,321.75888,98,63,0
321.7511,321.85193,89,51,0
321.84412,321.94604,94,57,0
321.93823,322.0392,92,52,0
322.03152,322.13214,99,63,0
322.12433,322.22604,89,52,0
322.21826,322.3196,94,61,0
322.31168,322.41452,92,52,0
322.40668,322.5077,100,59,0
322.5,322.60016,89,51,0
322.59235,322.69418,101,63,0
322.68634,322.78824,98,51,0
322.7804,322.88162,97,52,0
322.8738,322.9757,100,52,0
322.96796,323.06918,99,57,0
323.06134,323.16263,96,53,0
323.1549,323.25528,95,57,0
323.24747,323.34958,98,52,0
323.3418,323.44345,97,52,0
323.4356,323.53696,94,52,0
323.52927,323.62988,93,57,0
323.62204,323.724,96,52,0
323.71622,323.81628,95,57,0
323.8086,323.90967,92,52,0
323.90186,324.0029,91,52,0
323.9951,324.09705,94,53,0
324.08926,324.18976,92,57,0
324.182,324.28336,89,55,0
324.27557,324.37592,86,57,0
324.36826,324.4688,82,52,0
324.461,324.56265,81,52,0
324.5549,324.65588,82,52,0
324.64807,324.74997,80,57,0
324.7422,324.84372,82,52,0
324.83536,324.942,78,56,0
324.93402,325.03702,79,48,0
325.02936,325.12888,91,47,0
325.12125,325.22137,86,47,0
325.2131,325.32068,87,51,0
325.3124,325.41782,83,44,0
325.40997,325.51184,84,49,0
325.504,325.60596,79,46,0
325.59805,325.7009,82,50,0
325.693,325.79617,80,48,0
325.78793,325.89514,79,47,0
325.8869,325.98587,77,48,0
325.98587,326.0891,78,52,0
326.08118,326.18414,79,45,0
326.1765,326.27563,91,47,0
326.26804,326.36783,86,45,0
326.35953,326.46713,87,50,0
326.45883,326.5661,83,45,0
326.55814,326.66025,84,49,0
326.6524,326.7544,79,46,0
326.74646,326.84964,82,48,0
326.8417,326.94516,80,48,0
326.93692,327.04413,79,47,0
327.0359,327.13486,77,48,0
327.13486,327.23813,78,52,0
327.2302,327.3335,79,45,0
327.3255,327.42932,91,47,0
327.42136,327.52548,86,46,0
327.51718,327.6248,87,52,0
327.6165,327.72375,83,47,0
327.71582,327.81906,84,52,0
327.81113,327.9144,79,49,0
327.90646,328.0097,82,52,0
328.00177,328.10535,80,53,0
328.0971,328.2043,79,52,0
328.19608,328.295,77,54,0
328.39163,328.48825,81,49,0
328.295,328.48825,75,64,0
328.48825,328.58487,77,48,0
328.6815,328.77762,81,48,0
328.58487,328.77762,74,58,0
328.77762,328.87387,77,48,0
328.97034,329.0671,81,48,0
328.87387,329.0671,72,56,0
329.0671,329.1641,77,48,0
329.2613,329.36026,81,47,0
329.1641,329.36026,70,54,0
329.36026,329.45923,77,47,0
329.45923,329.5664,78,56,0
329.55838,329.6622,79,48,0
329.65454,329.7541,91,47,0
329.74643,329.8466,86,47,0
329.8383,329.9459,87,51,0
329.9376,330.04486,83,44,0
330.0369,330.13928,84,51,0
330.1314,330.2337,79,46,0
330.22574,330.32892,82,50,0
330.32098,330.42447,80,48,0
330.41623,330.52344,79,47,0
330.5152,330.61417,77,48,0
330.61417,330.71744,78,52,0
330.70947,330.81244,79,45,0
330.8048,330.90396,91,47,0
330.89633,330.99612,86,45,0
330.98785,331.09543,87,50,0
331.08716,331.1944,83,45,0
331.18646,331.2897,84,49,0
331.28177,331.38504,79,46,0
331.3771,331.48038,82,48,0
331.4724,331.576,80,48,0
331.56775,331.67496,79,47,0
331.66672,331.76566,77,48,0
331.76566,331.8705,78,52,0
331.86246,331.96704,79,45,0
331.95923,332.0611,91,47,0
332.05325,332.15558,86,46,0
332.1473,332.25488,87,52,0
332.2466,332.35385,83,47,0
332.34592,332.4492,84,52,0
332.44125,332.5445,79,49,0
332.53656,332.63983,82,52,0
332.6319,332.73544,80,53,0
332.7272,332.8344,79,52,0
332.82617,332.92514,77,54,0
332.92514,333.02176,76,56,0
333.02176,333.11835,75,56,0
333.11835,333.21497,74,55,0
333.21497,333.31158,73,54,0
333.31158,333.4082,72,52,0
333.4082,333.50482,71,51,0
333.50482,333.6014,70,50,0
333.6014,333.69803,69,49,0
333.69803,333.79465,72,50,0
333.79465,333.89127,70,50,0
333.89127,333.99023,69,48,0
333.99023,334.0884,68,48,0
334.0884,334.19305,67,49,0
334.18503,334.2895,68,49,0
334.28146,334.3857,69,50,0
334.37772,334.48166,70,52,0
334.47366,334.57733,72,52,0
334.56937,334.67322,70,53,0
334.66522,334.76938,68,52,0
334.76135,334.86578,70,53,0
334.85773,334.9625,71,56,0
334.9544,335.05984,72,58,0
335.0514,335.1613,73,59,0
335.15283,335.25424,72,57,0
335.25424,335.35928,69,49,0
335.3512,335.4559,70,49,0
335.44788,335.55215,71,50,0
335.54416,335.64804,72,52,0
335.64008,335.74374,74,52,0
335.73575,335.8398,72,53,0
335.8318,335.93616,70,52,0
335.92813,336.03287,72,53,0
336.02478,336.12988,73,56,0
336.1218,336.22757,74,58,0
336.21918,336.32828,75,59,0
336.3199,336.42868,74,57,0
336.4206,336.52597,71,49,0
336.51785,336.623,72,49,0
336.6149,336.7198,73,50,0
336.71173,336.81638,74,52,0
336.80835,336.91266,75,52,0
336.90463,337.00873,74,53,0
337.00073,337.10507,72,52,0
337.09702,337.20187,73,53,0
337.1938,337.29907,74,56,0
337.29095,337.39697,75,58,0
337.38867,337.4966,76,59,0
337.4883,337.596,77,57,0
337.58798,337.69263,79,65,0
337.68457,337.78925,77,64,0
337.7812,337.88586,76,62,0
337.8778,337.98276,75,61,0
337.97443,338.08276,74,58,0
338.07443,338.18246,73,56,0
338.1744,338.27908,72,55,0
338.27103,338.3757,71,53,0
338.36765,338.47232,70,54,0
338.46426,338.56912,69,54,0
338.56088,338.6681,70,51,0
338.65982,338.76605,68,50,0
338.75803,338.95093,67,53,0
338.95093,339.0474,58,53,0
339.0474,339.14386,70,49,0
339.14386,339.24033,62,54,0
339.24033,339.3368,71,50,0
339.3368,339.43295,58,55,0
339.43295,339.5291,70,51,0
339.62524,339.7214,67,54,0
339.5291,339.7214,63,60,0
339.81757,339.91373,73,53,0
339.7214,339.91373,64,63,0
339.91373,340.00955,60,59,0
340.00955,340.1054,72,52,0
340.20126,340.2971,69,52,0
340.1054,340.2971,65,66,0
340.2971,340.39294,64,61,0
340.39294,340.4888,73,55,0
340.4888,340.58435,60,63,0
340.58435,340.67987,72,56,0
340.77542,340.87097,69,61,0
340.67987,340.87097,65,70,0
340.9665,341.06195,75,61,0
340.87097,341.06195,66,68,0
341.06195,341.1572,62,70,0
341.1572,341.2524,74,61,0
341.34766,341.4429,71,67,0
341.2524,341.4429,67,75,0
341.53815,341.63336,75,68,0
341.4429,341.63336,66,76,0
341.63336,341.7286,62,75,0
341.7286,341.82385,74,68,0
341.9191,342.0143,70,69,0
341.82385,342.0143,67,80,0
342.10956,342.205,77,71,0
342.0143,342.205,68,80,0
342.205,342.29993,64,80,0
342.29993,342.39526,76,75,0
342.49103,342.58707,73,73,0
342.39526,342.58707,69,86,0
342.68365,342.78052,79,76,0
342.58707,342.78052,70,89,0
342.78052,342.8778,66,89,0
342.8778,342.97565,78,79,0
343.07504,343.17816,75,82,0
342.97565,343.17816,71,91,0
343.17816,343.39685,72,93,0
343.39685,343.66833,78,82,0
343.2853,343.66833,81,85,0
343.39685,343.66833,73,82,0
343.39685,343.66833,85,98,0
343.66833,343.76736,72,64,0
343.76736,343.86612,73,64,0
343.86612,343.9646,75,65,0
343.9646,344.06287,77,66,0
344.06287,344.16083,78,67,0
344.16083,344.25845,80,67,0
344.25845,344.3558,81,68,0
344.3558,344.45294,83,69,0
344.45294,344.54977,85,70,0
344.54977,344.6464,87,71,0
344.6464,344.74268,89,71,0
344.74268,344.8387,90,72,0
344.8387,344.93445,92,73,0
344.93445,345.02997,93,74,0
345.02997,345.12524,90,75,0
345.12524,345.2199,85,75,0
345.2199,345.31464,81,76,0
345.31464,345.41,78,76,0
345.41,345.50592,73,74,0
345.50592,345.60248,69,72,0
345.60248,345.70547,66,71,0
345.70547,345.80847,61,69,0
345.80847,345.90747,57,66,0
345.90747,346.00586,66,67,0
346.00586,346.10376,63,68,0
346.10376,346.19324,69,69,0
346.20132,346.29852,69,70,0
346.29852,346.3953,78,72,0
346.3953,346.4917,75,73,0
346.4917,346.57977,81,74,0
346.58777,346.68347,81,75,0
346.68347,346.77872,90,76,0
346.77872,346.87842,87,77,0
346.87842,346.9773,93,79,0
346.9773,347.07196,90,80,0
347.07196,347.1669,93,78,0
347.1669,347.26212,87,77,0
347.26212,347.35754,81,76,0
347.35754,347.45322,78,75,0
347.45322,347.5492,81,75,0
347.5492,347.64542,75,74,0
347.64542,347.74194,69,73,0
347.74194,347.83868,66,72,0
347.83868,347.9357,69,72,0
347.9357,348.03867,63,71,0
348.03867,348.17102,57,70,0
348.17102,348.36038,63,71,0
348.17102,348.36038,70,71,0
348.17102,348.36038,58,71,0
348.17102,348.36038,67,71,0
348.36038,348.46292,57,46,0
348.45505,348.55762,58,46,0
348.5497,348.65228,60,47,0
348.64438,348.74695,62,47,0
348.73907,348.8416,63,48,0
348.83374,348.93643,64,49,0
348.9284,349.0327,67,49,0
349.0247,349.129,65,50,0
349.121,349.2253,67,50,0
349.2173,349.32144,65,51,0
349.31357,349.41614,72,52,0
349.40823,349.5108,70,52,0
349.5029,349.60547,69,53,0
349.5976,349.70013,70,53,0
349.69226,349.79483,72,54,0
349.78693,349.8895,74,54,0
349.8816,349.98416,75,55,0
349.9763,350.079,76,56,0
350.07095,350.17563,79,56,0
350.16757,350.27225,77,57,0
350.2642,350.36887,79,57,0
350.3608,350.4653,77,58,0
350.45746,350.55966,84,59,0
350.5518,350.65402,82,59,0
350.64615,350.74835,81,60,0
350.7405,350.8427,82,60,0
350.83487,350.93707,84,61,0
350.9292,351.03143,86,61,0
351.02356,351.12576,87,62,0
351.11792,351.22025,88,63,0
351.21225,351.31622,91,63,0
351.30823,351.41217,89,64,0
351.40417,351.50815,91,64,0
351.50015,351.60397,89,65,0
351.5961,351.78482,94,66,0
351.78482,351.88702,81,64,0
351.87918,351.98138,82,65,0
351.9735,352.07574,84,65,0
352.06787,352.17007,86,66,0
352.16223,352.26443,87,67,0
352.25656,352.35913,88,68,0
352.35092,352.45566,91,71,0
352.44766,352.55182,89,68,0
352.54364,352.65015,91,71,0
352.64194,352.7483,89,68,0
352.74026,352.83655,94,68,0
353.26984,353.31735,89,77,0
353.31735,353.40985,101,89,0
353.40985,353.50244,100,84,0
353.50244,353.59525,99,83,0
353.59525,353.68817,98,82,0
353.68817,353.78128,96,81,0
353.78128,353.8746,94,79,0
353.8746,353.96802,93,78,0
353.96802,354.06168,91,77,0
354.06168,354.15546,89,76,0
354.15546,354.24948,88,75,0
354.24948,354.34363,87,74,0
354.34363,354.438,86,73,0
354.438,354.5325,84,72,0
354.5325,354.62717,82,71,0
354.62717,354.72205,81,70,0
354.72205,354.81705,79,69,0
354.81705,354.9123,77,68,0
354.9123,355.00766,76,67,0
355.00766,355.10266,75,66,0
355.10266,355.19742,73,65,0
355.19742,355.29193,71,64,0
355.29193,355.38623,70,63,0
355.38623,355.4803,68,62,0
355.4803,355.574,66,61,0
355.574,355.66748,65,60,0
355.66748,355.76086,63,59,0
355.76086,355.85428,61,58,0
355.85428,355.9477,59,57,0
355.9477,356.0411,58,56,0
356.0411,356.13458,56,55,0
356.13458,356.2281,54,57,0
356.2281,356.32297,53,59,0
356.32297,356.41937,51,62,0
356.41937,356.51746,49,64,0
356.51746,356.61707,47,66,0
356.61707,356.71832,46,68,0
356.71832,356.82144,44,70,0
356.82144,356.92624,42,72,0
356.92624,357.03287,41,75,0
357.03287,357.14157,39,77,0
357.14157,357.25214,37,79,0
357.25214,357.35977,35,81,0
358.25696,358.83685,58,66,0
358.25696,358.83685,62,66,0
358.25696,358.83685,67,78,0
358.83685,359.1257,67,73,0
358.83685,359.1257,56,61,0
358.83685,359.1257,62,61,0
359.1257,359.41193,63,76,0
359.1257,359.41193,55,65,0
359.7001,360.55453,75,78,0
359.7001,360.55453,67,66,0
359.7001,360.55453,63,66,0
360.55453,360.84464,63,61,0
360.55453,360.84464,70,61,0
360.55453,360.84464,74,73,0
360.84464,361.69687,72,77,0
360.84464,361.69687,70,65,0
360.84464,361.69687,63,65,0
361.69687,362.27005,69,67,0
361.69687,362.27005,74,79,0
361.69687,362.27005,65,67,0
362.27005,362.56396,74,74,0
362.27005,362.56396,69,63,0
362.27005,362.56396,63,63,0
362.56396,362.85175,70,71,0
362.56396,362.85175,62,59,0
363.42242,363.99393,82,75,0
363.42242,363.99393,70,64,0
363.99393,364.28253,83,77,0
363.99393,364.28253,71,65,0
364.28253,364.38992,84,77,0
364.28253,364.38992,72,65,0
364.45364,364.5588,82,60,0
364.45364,364.5588,85,72,0
364.6213,364.72604,84,73,0
364.6213,364.72604,76,61,0
364.78937,364.8967,83,74,0
364.78937,364.8967,82,63,0
364.96198,365.06097,84,79,0
364.96198,365.06097,76,67,0
365.06097,365.13095,84,69,0
365.06097,365.13095,80,57,0
365.13095,365.27527,92,87,0
365.13095,365.27527,80,73,0
365.84283,365.98816,75,69,0
365.84283,365.98816,84,81,0
365.98816,366.0945,82,77,0
365.98816,366.0945,74,65,0
366.15805,366.2634,84,72,0
366.15805,366.2634,80,60,0
366.3263,366.43137,74,61,0
366.3263,366.43137,82,73,0
366.49487,366.60272,80,63,0
366.49487,366.60272,81,74,0
366.66815,366.7674,74,67,0
366.66815,366.7674,82,79,0
366.7674,366.83755,79,57,0
366.7674,366.83755,82,69,0
366.83755,366.98184,91,87,0
366.83755,366.98184,79,73,0
367.55148,367.6971,82,81,0
367.55148,367.6971,74,69,0
367.6971,367.80533,80,77,0
367.6971,367.80533,72,65,0
367.87027,367.9785,82,72,0
367.87027,367.9785,75,60,0
368.04285,368.15027,80,73,0
368.04285,368.15027,72,61,0
368.21548,368.32904,79,74,0
368.21548,368.32904,75,63,0
368.40045,368.50253,72,67,0
368.40045,368.50253,80,79,0
368.50253,368.57288,80,69,0
368.50253,368.57288,77,57,0
368.57288,368.71716,77,73,0
368.57288,368.71716,89,87,0
369.1465,369.4381,77,78,0
369.1465,369.4381,80,78,0
369.4381,369.6568,77,66,0
369.4381,369.6568,79,78,0
369.6568,369.7297,82,71,0
369.7297,370.16263,80,81,0
369.7297,370.16263,77,69,0
370.16263,370.30692,77,64,0
370.16263,370.30692,79,75,0
370.30692,370.5835,79,74,0
370.30692,370.5835,75,63,0
370.59552,370.87497,80,79,0
370.59552,370.87497,75,67,0
370.88712,371.16656,75,71,0
370.88712,371.16656,81,84,0
371.1787,372.07928,82,84,0
371.1787,372.07928,68,71,0
371.1787,372.07928,70,71,0
371.1787,372.07928,77,71,0
372.07928,372.65915,82,78,0
372.07928,372.65915,74,66,0
372.07928,372.65915,68,66,0
372.07928,372.65915,70,66,0
372.07928,372.65915,79,66,0
372.65915,372.948,74,61,0
372.65915,372.948,82,73,0
372.65915,372.948,68,61,0
372.65915,372.948,79,61,0
372.65915,372.948,70,61,0
372.948,373.23685,75,76,0
372.948,373.23685,67,65,0
373.8148,374.38538,75,72,0
373.8148,374.38538,87,86,0
373.8148,374.38538,79,72,0
374.38538,374.67548,75,67,0
374.38538,374.67548,82,67,0
374.38538,374.67548,86,80,0
374.67548,375.5303,84,85,0
374.67548,375.5303,75,71,0
374.67548,375.5303,82,71,0
375.5303,376.10352,77,73,0
375.5303,376.10352,81,73,0
375.5303,376.10352,86,87,0
376.10352,376.39792,75,69,0
376.10352,376.39792,81,69,0
376.10352,376.39792,86,81,0
376.39792,376.68652,82,77,0
376.39792,376.68652,74,65,0
377.2637,377.85486,94,94,0
377.2637,377.85486,82,78,0
378.0115,378.16162,94,88,0
378.0115,378.16162,82,74,0
378.16815,378.77884,94,94,0
378.16815,378.77884,82,78,0
379.0842,379.3871,60,65,0
379.0842,379.68835,72,77,0
379.68835,379.99908,74,73,0
379.68835,379.99908,62,61,0
379.99908,380.0623,75,69,0
380.0623,380.12552,77,69,0
380.12552,380.24536,75,69,0
379.99908,380.24536,63,57,0
380.24536,380.47852,74,64,0
380.24536,380.47852,62,53,0
380.47852,380.71167,75,64,0
380.47852,380.71167,63,53,0
380.71167,380.952,74,53,0
380.71167,380.952,67,53,0
380.71167,380.952,79,64,0
380.952,381.29883,68,66,0
381.29883,381.64563,70,66,0
380.952,381.64563,74,60,0
380.952,381.7885,79,72,0
381.7885,381.93137,77,61,0
381.93137,382.05637,75,61,0
381.64563,382.07626,68,61,0
382.07626,383.46225,75,68,0
382.07626,383.46225,67,68,0
384.06927,384.215,67,61,0
384.215,384.3594,68,57,0
384.3594,384.50278,70,63,0
384.50278,384.64615,74,68,0
384.64615,384.81085,72,63,0
384.81085,386.18777,70,70,0
386.78458,386.93002,67,57,0
386.93002,387.0746,68,60,0
387.0746,387.21896,70,65,0
387.21896,387.36337,74,68,0
387.36337,387.5281,72,61,0
387.5281,388.90555,70,70,0
389.50983,389.65717,65,54,0
389.65717,389.80344,68,59,0
389.80344,389.9491,70,64,0
389.9491,390.09485,74,68,0
390.09485,390.25955,72,63,0
390.25955,390.71933,70,70,0
391.03625,391.1901,63,56,0
391.1901,391.3501,67,60,0
390.87933,391.3501,61,57,0
391.3501,391.5101,72,65,0
391.5101,391.6701,70,59,0
391.6701,392.35712,68,65,0
392.58612,392.8065,63,62,0
392.35712,392.8065,59,60,0
392.8065,393.0435,65,57,0
393.0435,393.51776,67,70,0
395.0543,395.2044,67,61,0
395.2044,395.35226,68,58,0
395.35226,395.49802,70,64,0
395.49802,395.64377,74,68,0
395.64377,395.8085,72,58,0
395.8085,395.9378,70,72,0
396.0671,396.1964,82,72,0
396.32248,396.56076,94,87,0
397.86646,398.01572,67,38,0
398.01572,398.16306,68,42,0
398.16306,398.309,70,46,0
398.309,398.4547,74,50,0
398.4547,398.61945,72,45,0
398.61945,398.74933,70,56,0
398.87918,399.00906,82,56,0
399.13736,399.3747,94,67,0
400.67667,400.82648,65,39,0
400.82648,400.97476,68,42,0
400.97476,401.12097,70,45,0
401.12097,401.26672,74,48,0
401.26672,401.43146,72,45,0
401.43146,402.0514,70,56,0
402.2093,402.36313,63,43,0
402.36313,402.52576,67,46,0
402.0514,402.52576,61,39,0
402.52576,402.68835,72,50,0
402.68835,402.85095,70,46,0
402.85095,403.54324,68,51,0
403.77402,403.99835,63,51,0
403.54324,403.99835,59,49,0
403.99835,404.23743,65,46,0
404.23743,405.88907,67,62,0
405.88907,406.136,67,51,0
406.136,406.3829,70,54,0
406.3829,406.62982,79,55,0
406.62982,406.86517,77,60,0
406.86517,407.121,75,55,0
407.121,408.82764,70,66,0
408.82764,409.07455,67,51,0
409.07455,409.32147,70,54,0
409.32147,409.56836,79,55,0
409.56836,409.80374,77,60,0
409.80374,410.05954,75,55,0
410.05954,411.8351,74,66,0
411.8351,412.0883,70,51,0
412.0883,412.34143,74,54,0
412.34143,412.5946,82,55,0
412.5946,412.8385,81,60,0
412.8385,413.09717,79,55,0
413.09717,414.87274,74,69,0
414.87274,415.1259,70,51,0
415.1259,415.37906,74,54,0
415.37906,415.63223,82,55,0
415.63223,415.87912,81,60,0
415.87912,416.1388,79,55,0
416.1388,416.40665,74,59,0
416.40665,416.6745,70,55,0
416.6745,416.9388,74,54,0
416.9388,417.20312,82,53,0
417.20312,417.46747,81,56,0
417.46747,417.73178,79,51,0
417.73178,417.9961,74,56,0
417.9961,418.2604,70,51,0
418.2604,418.52472,74,51,0
418.52472,418.78903,82,54,0
418.78903,419.05334,81,50,0
419.05334,419.3177,79,49,0
419.3177,419.59418,74,48,0
419.59418,419.87067,81,45,0
419.87067,420.14157,84,52,0
420.14157,420.4168,82,47,0
420.4168,420.69543,79,50,0
420.69543,420.9778,75,46,0
420.9778,421.26352,70,45,0
421.26352,421.55338,67,45,0
421.55338,421.84702,60,43,0
421.84702,422.1448,62,42,0
422.1448,422.44632,65,41,0
422.44632,422.75244,63,39,0
425.46066,425.7387,66,37,0
425.7387,426.00372,70,41,0
426.00372,426.26877,69,39,0
425.18262,426.26877,62,37,0
424.86752,426.26877,60,38,0
426.7752,427.26328,58,23,0
426.7752,427.26328,62,28,0
427.2684,427.79053,62,28,0
427.2684,427.79053,58,23,0
426.26877,427.79602,67,37,0
428.29355,428.79022,67,28,0
428.79547,429.31934,67,28,0
427.79602,429.32483,74,41,0
429.88257,430.46207,63,23,0
429.88257,430.46207,67,28,0
430.46817,431.02008,63,23,0
430.46817,431.02008,67,28,0
429.32483,431.02588,72,39,0
431.84268,432.1115,66,37,0
432.1115,432.37656,70,41,0
432.37656,432.6416,69,39,0
431.57388,432.6416,62,37,0
431.29987,432.6416,60,40,0
433.1413,433.62515,58,23,0
433.1413,433.62515,62,28,0
433.63025,434.15237,62,28,0
433.63025,434.15237,58,23,0
432.6416,434.15787,67,37,0
434.6598,435.15967,61,28,0
434.6598,435.15967,55,23,0
434.6598,435.15967,57,23,0
435.16492,435.687,55,23,0
435.16492,435.687,61,28,0
435.16492,435.687,57,23,0
434.15787,435.69254,64,37,0
436.23526,436.75638,54,19,0
436.23526,436.75638,57,19,0
436.23526,436.75638,62,23,0
436.76187,437.284,62,23,0
436.76187,437.284,57,19,0
436.76187,437.284,54,19,0
435.69254,437.2895,66,37,0
438.1063,438.37512,66,37,0
438.37512,438.64017,70,41,0
438.64017,438.90518,69,39,0
437.8375,438.90518,62,37,0
437.56348,438.90518,60,40,0
439.4208,439.91312,62,28,0
439.4208,439.91312,58,23,0
439.9183,440.44043,62,28,0
439.9183,440.44043,58,23,0
438.90518,440.44592,67,37,0
440.92978,441.38434,70,36,0
440.92978,441.38434,67,29,0
441.38913,441.901,70,36,0
441.38913,441.901,67,29,0
440.44592,441.90637,74,58,0
442.40848,442.87918,70,36,0
442.40848,442.87918,67,29,0
442.88412,443.38098,70,36,0
442.88412,443.38098,67,29,0
441.90637,443.38623,76,59,0
444.18042,444.44128,64,37,0
444.44128,444.69662,69,41,0
444.69662,444.95193,67,39,0
443.91956,444.95193,61,37,0
443.6529,444.95193,58,40,0
445.46753,445.9522,64,33,0
445.46753,445.9522,58,27,0
445.46753,445.9522,61,27,0
445.95734,446.47943,61,27,0
445.95734,446.47943,64,33,0
445.95734,446.47943,58,27,0
444.95193,446.48492,67,37,0
446.97473,447.4293,67,32,0
446.97473,447.4293,70,32,0
446.97473,447.4293,73,39,0
447.43408,447.94205,67,32,0
447.43408,447.94205,70,32,0
447.43408,447.94205,73,41,0
446.48492,447.9474,76,62,0
448.4453,448.89822,73,41,0
448.4453,448.89822,70,35,0
448.4453,448.89822,67,35,0
448.90298,449.3761,73,43,0
448.90298,449.3761,70,35,0
448.90298,449.3761,67,35,0
447.9474,449.38107,78,64,0
449.883,450.34506,67,36,0
449.883,450.34506,70,36,0
449.883,450.34506,73,44,0
449.38107,450.3499,76,63,0
450.60657,450.84183,78,67,0
451.36322,451.81555,70,37,0
451.36322,451.81555,67,37,0
451.36322,451.81555,73,47,0
451.8203,452.287,73,47,0
451.8203,452.287,67,37,0
451.8203,452.287,70,37,0
450.86322,452.2919,78,67,0
452.79382,453.2501,73,50,0
452.2919,453.2501,76,73,0
452.79382,453.2501,67,40,0
452.79382,453.2501,70,40,0
453.48553,453.70135,78,73,0
454.18033,454.62015,67,41,0
454.18033,454.62015,70,41,0
454.18033,454.62015,73,52,0
454.6248,455.08328,73,52,0
454.6248,455.08328,67,43,0
454.6248,455.08328,70,43,0
453.72098,455.0881,78,73,0
455.56375,456.00656,73,59,0
455.0881,456.00656,76,75,0
455.56375,456.00656,67,47,0
455.56375,456.00656,70,47,0
456.24185,456.47714,78,77,0
456.91995,457.33957,76,72,0
456.91995,457.33957,70,58,0
456.91995,457.33957,73,58,0
457.344,457.76358,70,58,0
457.344,457.76358,73,58,0
457.344,457.76358,76,73,0
456.47714,457.768,81,80,0
458.21082,458.6246,73,62,0
457.768,458.6246,79,85,0
458.21082,458.6246,70,62,0
458.21082,458.6246,76,79,0
458.6246,459.11844,81,93,0
459.11844,459.56787,82,101,0
459.11844,459.56787,70,86,0
459.11844,459.56787,74,86,0
459.7926,460.0135,94,95,0
459.7926,460.0135,86,80,0
460.03357,460.24756,87,86,0
460.03357,460.24756,96,101,0
460.26703,460.4738,94,95,0
460.26703,460.4738,86,80,0
460.49258,460.6963,84,82,0
460.49258,460.6963,93,97,0
460.7148,460.91852,91,95,0
460.7148,460.91852,82,80,0
460.93704,461.14072,90,94,0
460.93704,461.14072,81,80,0
461.15924,461.36295,91,93,0
461.15924,461.36295,82,79,0
461.38147,461.5867,81,79,0
461.38147,461.5867,89,93,0
461.7173,461.80286,79,78,0
461.7173,461.80286,87,92,0
461.83136,462.0343,79,77,0
461.83136,462.0343,87,91,0
462.05276,462.2557,78,75,0
462.05276,462.2557,86,90,0
462.27417,462.4771,75,74,0
462.27417,462.4771,84,89,0
462.49557,462.69852,82,86,0
462.49557,462.69852,74,73,0
462.71698,462.91992,72,72,0
462.71698,462.91992,81,85,0
462.9384,463.15155,70,70,0
462.9384,463.15155,79,83,0
463.17093,463.31207,78,85,0
463.17093,463.31207,69,72,0
463.3322,463.47336,72,72,0
463.3322,463.47336,75,85,0
463.4935,463.63583,72,73,0
463.4935,463.63583,74,86,0
463.65723,463.76978,71,74,0
463.65723,463.76978,74,88,0
463.7773,463.89096,70,74,0
463.7773,463.89096,74,88,0
463.8986,464.01334,69,74,0
463.8986,464.01334,74,88,0
464.02103,464.1369,68,74,0
464.02103,464.1369,74,89,0
464.14468,464.26108,74,89,0
464.14468,464.26108,69,74,0
464.26877,464.39737,74,90,0
464.26877,464.39737,70,75,0
464.42316,464.55283,74,90,0
464.42316,464.55283,69,75,0
464.57886,464.7099,74,91,0
464.57886,464.7099,72,77,0
464.7362,464.86835,70,77,0
464.7362,464.86835,74,91,0
464.89493,464.99994,74,91,0
464.89493,464.99994,67,85,0
465.14694,465.24756,94,87,0
465.14694,465.24756,91,73,0
465.14694,465.24756,86,73,0
465.2677,465.36832,81,76,0
465.5092,465.6108,82,67,0
465.5092,465.6108,91,79,0
465.5092,465.6108,86,67,0
465.63113,465.73154,82,73,0
465.63113,465.73154,86,73,0
465.63113,465.73154,91,87,0
465.75162,465.85202,78,75,0
465.99258,466.09506,86,79,0
465.99258,466.09506,82,67,0
465.99258,466.09506,79,67,0
466.11554,466.21594,86,87,0
466.11554,466.21594,79,73,0
466.11554,466.21594,82,73,0
466.23602,466.33643,73,78,0
466.477,466.5787,74,66,0
466.477,466.5787,79,66,0
466.477,466.5787,82,78,0
466.59912,466.69952,82,87,0
466.59912,466.69952,79,73,0
466.59912,466.69952,74,73,0
466.7196,466.82,70,75,0
466.96057,467.0622,75,66,0
466.96057,467.0622,79,66,0
466.96057,467.0622,84,78,0
467.08252,467.18292,75,73,0
467.08252,467.18292,79,73,0
467.08252,467.18292,84,87,0
467.203,467.3034,74,75,0
467.3235,467.42386,73,75,0
467.44394,467.5456,72,75,0
467.56592,467.66632,75,73,0
467.56592,467.66632,84,87,0
467.56592,467.66632,79,73,0
467.6864,467.7868,74,74,0
467.80685,467.90707,73,76,0
467.92722,468.02792,72,76,0
468.04813,468.14935,84,87,0
468.04813,468.14935,78,73,0
468.04813,468.14935,75,73,0
468.16965,468.2714,74,76,0
468.29178,468.394,73,76,0
468.4145,468.51724,72,76,0
468.53787,468.64117,81,87,0
468.53787,468.64117,78,73,0
468.53787,468.64117,74,73,0
468.6619,468.76572,72,76,0
468.78653,469.03958,74,73,0
468.78653,469.03958,79,73,0
468.78653,469.03958,82,87,0
468.78653,469.03958,70,73,0
469.03958,469.14108,91,73,0
469.03958,469.14108,94,87,0
469.03958,469.14108,86,73,0
469.16138,469.26285,81,76,0
469.4049,469.50778,86,67,0
469.4049,469.50778,91,79,0
469.4049,469.50778,82,67,0
469.52838,469.62958,86,73,0
469.52838,469.62958,82,73,0
469.52838,469.62958,91,87,0
469.64984,469.75104,78,75,0
469.89273,469.9952,86,79,0
469.89273,469.9952,82,67,0
469.89273,469.9952,79,67,0
470.0157,470.1169,86,87,0
470.0157,470.1169,82,73,0
470.0157,470.1169,79,73,0
470.13715,470.23837,73,78,0
470.38007,470.48337,74,66,0
470.38007,470.48337,79,66,0
470.38007,470.48337,82,78,0
470.50403,470.60526,82,87,0
470.50403,470.60526,79,73,0
470.50403,470.60526,74,73,0
470.6255,470.7267,70,75,0
470.8684,470.9717,84,78,0
470.8684,470.9717,75,66,0
470.8684,470.9717,79,66,0
470.99237,471.09384,75,73,0
470.99237,471.09384,79,73,0
470.99237,471.09384,84,87,0
471.11414,471.21564,74,75,0
471.23593,471.3374,73,75,0
471.3577,471.45917,72,75,0
471.47946,471.58093,84,87,0
471.47946,471.58093,79,73,0
471.47946,471.58093,75,73,0
471.60123,471.70273,74,74,0
471.72302,471.8245,73,76,0
471.8448,471.94626,72,76,0
471.96655,472.0681,75,73,0
471.96655,472.0681,78,73,0
471.96655,472.0681,84,87,0
472.0885,472.19083,74,76,0
472.2114,472.31476,73,76,0
472.33548,472.43985,72,76,0
472.46085,472.5662,74,73,0
472.46085,472.5662,78,73,0
472.46085,472.5662,81,87,0
472.58737,472.69376,72,76,0
472.71512,472.99683,82,87,0
472.71512,472.99683,74,73,0
472.71512,472.99683,70,73,0
472.71512,472.99683,79,73,0
472.99683,473.12067,80,70,0
473.12067,473.24454,87,60,0
473.12067,473.24454,92,72,0
473.24454,473.36838,80,72,0
473.36838,473.49225,80,75,0
473.36838,473.49225,75,63,0
473.6161,473.73993,75,65,0
473.6161,473.73993,79,77,0
473.49225,473.73993,67,77,0
473.8607,473.98145,78,77,0
473.8607,473.98145,69,65,0
473.73993,473.98145,66,87,0
473.98145,474.1022,78,77,0
474.1022,474.22296,81,65,0
474.1022,474.22296,90,77,0
474.34372,474.46448,82,64,0
474.34372,474.46448,91,75,0
474.22296,474.46448,79,87,0
474.46448,474.60208,79,75,0
474.60208,474.7397,79,75,0
474.60208,474.7397,70,64,0
474.8652,474.99075,75,60,0
474.8652,474.99075,80,72,0
474.7397,474.99075,68,77,0
475.1151,475.23947,92,76,0
475.1151,475.23947,87,65,0
474.99075,475.23947,80,74,0
475.23947,475.36383,80,76,0
475.36383,475.48822,75,65,0
475.36383,475.48822,80,78,0
475.61258,475.73694,75,65,0
475.61258,475.73694,79,77,0
475.48822,475.73694,67,77,0
475.85822,475.97946,69,65,0
475.85822,475.97946,78,77,0
475.73694,475.97946,66,87,0
475.97946,476.10074,78,77,0
476.10074,476.222,90,77,0
476.10074,476.222,81,65,0
476.34326,476.4645,82,64,0
476.34326,476.4645,91,75,0
476.222,476.4645,79,87,0
476.4645,476.59103,79,75,0
476.59103,476.71756,79,75,0
476.59103,476.71756,70,64,0
476.8441,476.96667,68,59,0
476.8441,476.96667,77,71,0
476.71756,476.96667,65,77,0
476.96667,477.08844,77,70,0
477.08844,477.2102,89,71,0
477.08844,477.2102,80,59,0
477.2102,477.33197,77,68,0
477.33197,477.45377,75,77,0
477.33197,477.45377,68,66,0
477.57553,477.6973,75,69,0
477.57553,477.6973,68,57,0
477.45377,477.6973,63,69,0
477.81906,477.94086,74,69,0
477.81906,477.94086,68,57,0
477.6973,477.94086,62,77,0
477.94086,478.06262,74,69,0
478.06262,478.1844,80,57,0
478.06262,478.1844,86,69,0
478.1844,478.30615,74,77,0
478.30615,478.42795,68,56,0
478.30615,478.42795,72,67,0
478.42795,478.5497,60,67,0
478.5497,478.6785,72,67,0
478.5497,478.6785,68,56,0
478.80026,478.92203,63,57,0
478.80026,478.92203,72,69,0
478.6785,478.92203,60,77,0
479.04382,479.1656,75,57,0
479.04382,479.1656,84,69,0
478.92203,479.1656,72,69,0
479.28735,479.40912,84,67,0
479.28735,479.40912,75,56,0
479.1656,479.40912,72,77,0
479.5309,479.65268,82,67,0
479.5309,479.65268,74,56,0
479.40912,479.65268,70,67,0
479.77444,479.89673,74,57,0
479.77444,479.89673,82,69,0
479.65268,479.89673,70,77,0
480.01953,480.14285,81,69,0
480.01953,480.14285,72,57,0
479.89673,480.14285,69,69,0
480.2667,480.39105,70,56,0
480.2667,480.39105,79,67,0
480.14285,480.39105,67,77,0
480.51596,480.6414,78,67,0
480.51596,480.6414,69,56,0
480.39105,480.6414,66,67,0
480.6414,480.77963,70,73,0
480.6414,480.77963,67,73,0
480.6414,480.77963,79,87,0
481.04175,481.16562,87,60,0
481.04175,481.16562,92,72,0
480.9179,481.16562,80,70,0
481.16562,481.28946,80,72,0
481.28946,481.4133,80,75,0
481.28946,481.4133,75,63,0
481.53717,481.661,79,77,0
481.53717,481.661,75,65,0
481.4133,481.661,67,77,0
481.78177,481.90253,69,65,0
481.78177,481.90253,78,77,0
481.661,481.90253,66,87,0
481.90253,482.0233,78,77,0
482.0233,482.14404,81,65,0
482.0233,482.14404,90,77,0
482.2648,482.38553,91,75,0
482.2648,482.38553,82,64,0
482.14404,482.38553,79,87,0
482.38553,482.5207,79,75,0
482.5207,482.65582,79,75,0
482.5207,482.65582,70,64,0
482.7824,482.90897,80,72,0
482.7824,482.90897,75,60,0
482.65582,482.90897,68,77,0
483.03336,483.1577,87,65,0
483.03336,483.1577,92,76,0
482.90897,483.1577,80,74,0
483.1577,483.28207,80,76,0
483.28207,483.40643,80,78,0
483.28207,483.40643,75,65,0
483.53082,483.65518,72,65,0
483.53082,483.65518,79,77,0
483.40643,483.65518,67,77,0
483.77646,483.8977,78,77,0
483.77646,483.8977,69,65,0
483.65518,483.8977,66,87,0
483.8977,484.01895,78,77,0
484.01895,484.14023,90,77,0
484.01895,484.14023,81,65,0
484.26147,484.38275,82,64,0
484.26147,484.38275,91,75,0
484.14023,484.38275,79,87,0
484.38275,484.50928,79,75,0
484.50928,484.6358,79,75,0
484.50928,484.6358,70,64,0
484.76233,484.8849,77,71,0
484.76233,484.8849,68,59,0
484.6358,484.8849,65,77,0
484.8849,485.00668,77,70,0
485.00668,485.12845,89,71,0
485.00668,485.12845,80,59,0
485.12845,485.2502,77,68,0
485.2502,485.372,75,77,0
485.2502,485.372,67,66,0
485.49377,485.61554,75,69,0
485.49377,485.61554,67,57,0
485.372,485.61554,63,69,0
485.7436,485.86642,74,71,0
485.7436,485.86642,66,59,0
485.61554,485.86642,62,77,0
485.86642,485.9882,74,70,0
485.9882,486.10995,86,71,0
485.9882,486.10995,78,59,0
486.10995,486.23172,74,68,0
486.23172,486.35352,64,66,0
486.23172,486.35352,73,77,0
486.47528,486.59705,64,57,0
486.47528,486.59705,73,69,0
486.35352,486.59705,61,69,0
486.7235,486.84607,72,71,0
486.7235,486.84607,63,59,0
486.59705,486.84607,60,77,0
486.96783,487.08963,84,71,0
486.96783,487.08963,75,59,0
486.84607,487.08963,72,70,0
487.2114,487.33316,75,64,0
487.2114,487.33316,83,73,0
487.08963,487.33316,71,68,0
487.45493,487.57672,75,58,0
487.45493,487.57672,84,70,0
487.33316,487.57672,72,70,0
487.7037,487.82632,75,61,0
487.7037,487.82632,84,73,0
487.57672,487.82632,72,79,0
487.94812,488.0699,87,74,0
487.94812,488.0699,78,61,0
487.82632,488.0699,75,72,0
488.19165,488.31345,86,81,0
488.19165,488.31345,78,69,0
488.0699,488.31345,74,71,0
488.4352,488.55698,87,73,0
488.4352,488.55698,78,60,0
488.31345,488.55698,75,72,0
488.68396,488.8066,87,75,0
488.68396,488.8066,78,63,0
488.55698,488.8066,75,82,0
488.92838,489.05014,90,76,0
488.92838,489.05014,82,64,0
488.8066,489.05014,78,75,0
489.17194,489.2937,80,71,0
489.17194,489.2937,89,84,0
489.05014,489.2937,77,73,0
489.41547,489.53726,81,63,0
489.41547,489.53726,90,75,0
489.2937,489.53726,78,75,0
489.66425,489.78687,90,78,0
489.66425,489.78687,81,66,0
489.53726,489.78687,78,86,0
489.90866,490.03043,84,66,0
489.90866,490.03043,93,79,0
489.78687,490.03043,81,78,0
490.1522,490.27396,86,74,0
490.1522,490.27396,94,87,0
490.03043,490.27396,82,76,0
490.39575,490.5265,87,65,0
490.39575,490.5265,96,78,0
490.27396,490.5265,84,78,0
490.65347,490.77643,96,81,0
490.65347,490.77643,87,68,0
490.5265,490.77643,84,89,0
490.89938,491.02234,94,81,0
490.89938,491.02234,86,68,0
490.77643,491.02234,82,80,0
491.14526,491.26822,94,89,0
491.14526,491.26822,86,75,0
491.02234,491.26822,82,77,0
491.39117,491.51413,84,66,0
491.39117,491.51413,93,78,0
491.26822,491.51413,81,78,0
491.64545,491.7689,84,68,0
491.64545,491.7689,93,81,0
491.51413,491.7689,81,89,0
491.89233,492.01578,91,81,0
491.89233,492.01578,82,68,0
491.7689,492.01578,79,80,0
492.13922,492.26266,91,89,0
492.13922,492.26266,82,75,0
492.01578,492.26266,79,77,0
492.3861,492.51578,86,78,0
492.3861,492.51578,78,66,0
492.26266,492.51578,74,78,0
492.6476,492.77206,82,77,0
492.77206,492.8965,94,84,0
492.77206,492.8965,86,71,0
492.8965,493.02094,82,80,0
493.02094,493.1454,85,70,0
493.02094,493.1454,94,82,0
493.1454,493.26984,82,79,0
493.26984,493.39426,84,72,0
493.26984,493.39426,93,85,0
493.39426,493.5187,81,81,0
493.5187,493.65002,84,74,0
493.5187,493.65002,93,88,0
493.65002,493.77493,81,79,0
493.77493,493.89987,91,87,0
493.77493,493.89987,82,74,0
493.89987,494.0248,79,80,0
494.0248,494.14975,91,89,0
494.0248,494.14975,82,75,0
494.14975,494.2747,79,79,0
494.2747,494.39963,78,75,0
494.2747,494.39963,86,89,0
494.39963,494.5315,74,81,0
494.66336,494.7868,86,87,0
494.7868,494.91025,98,95,0
494.7868,494.91025,94,80,0
494.7868,494.91025,91,80,0
494.91025,495.0337,86,86,0
495.28058,495.40402,79,74,0
495.28058,495.40402,82,74,0
495.28058,495.40402,86,88,0
495.40402,495.5359,74,78,0
495.78378,495.9077,74,82,0
495.78378,495.9077,70,70,0
495.78378,495.9077,67,70,0
495.9077,496.03168,62,76,0
496.27957,496.4035,55,70,0
496.27957,496.4035,62,82,0
496.27957,496.4035,58,70,0
496.4035,496.53424,50,64,0
496.79202,496.92212,55,75,0
496.79202,496.92212,58,75,0
496.79202,496.92212,64,90,0
496.92212,497.05316,50,77,0
497.3178,497.45157,64,90,0
497.3178,497.45157,58,75,0
497.3178,497.45157,55,75,0
497.45157,497.5862,50,81,0
497.85754,497.99545,64,90,0
497.85754,497.99545,55,75,0
497.85754,497.99545,58,75,0
497.99545,498.13513,50,77,0
498.4307,498.5888,64,90,0
498.4307,498.5888,55,75,0
498.4307,498.5888,58,75,0
498.5888,498.77945,50,81,0
499.53894,499.62964,55,54,0
499.62964,499.71942,56,54,0
499.71942,499.81097,57,55,0
499.81097,499.90207,58,55,0
499.90207,499.99216,59,56,0
499.99216,500.08215,60,56,0
500.08215,500.17422,61,56,0
500.17422,500.26587,62,57,0
500.26587,500.35605,63,57,0
500.35605,500.44666,64,58,0
500.44666,500.5382,65,58,0
500.5382,500.628,66,58,0
500.628,500.71777,67,59,0
500.71777,500.8091,68,59,0
500.8091,500.8994,69,60,0
500.8994,500.98898,70,60,0
500.98898,501.0801,71,60,0
501.0801,501.1708,72,61,0
501.1708,501.2605,73,61,0
501.2605,501.3514,74,63,0
501.3514,501.44284,75,63,0
501.44284,501.53305,76,64,0
501.53305,501.62457,77,64,0
501.62457,501.7158,78,64,0
501.7158,501.80557,79,65,0
501.80557,501.89587,80,65,0
501.89587,501.9872,81,66,0
501.9872,502.0774,82,66,0
502.0774,502.1674,83,66,0
502.1674,502.2586,84,67,0
502.2586,502.3489,85,67,0
502.3489,502.4387,86,68,0
502.4387,502.52808,87,68,0
502.52808,502.619,88,68,0
502.619,502.7093,89,69,0
502.7093,502.79898,90,69,0
502.79898,502.8905,91,70,0
502.8905,502.98163,92,70,0
502.98163,503.07162,93,70,0
503.07162,503.16293,94,71,0
503.16293,503.25415,95,71,0
503.25415,503.34467,97,72,0
503.34467,503.44464,99,88,0
503.44464,503.53656,98,80,0
503.53656,503.6262,101,80,0
503.6262,503.71597,99,81,0
503.71597,503.806,98,79,0
503.806,503.89594,96,79,0
503.89594,503.98572,95,79,0
503.98572,504.07556,98,79,0
504.07556,504.16534,96,79,0
504.16534,504.2552,94,79,0
504.2552,504.34503,93,79,0
504.34503,504.43448,91,79,0
504.43448,504.52368,90,79,0
504.52368,504.6132,93,79,0
504.6132,504.7019,91,79,0
504.7019,504.7903,90,84,0
504.7903,504.87823,87,80,0
504.87823,504.9657,86,80,0
504.9657,505.0527,87,80,0
505.0527,505.13925,86,79,0
505.13925,505.2253,89,79,0
505.2253,505.3109,87,79,0
505.3109,505.39615,86,78,0
505.39615,505.48138,84,77,0
505.48138,505.5666,83,77,0
505.5666,505.6516,86,76,0
505.6516,505.7366,84,76,0
505.7366,505.8216,82,75,0
505.8216,505.90643,81,75,0
505.90643,505.991,79,75,0
505.991,506.0758,78,75,0
506.0758,506.1598,81,75,0
506.1598,506.24466,79,75,0
506.24466,506.32886,78,75,0
506.32886,506.41354,75,75,0
506.41354,506.498,74,75,0
506.498,506.58276,75,74,0
506.58276,506.66748,74,74,0
506.66748,506.75238,77,74,0
506.75238,506.83667,75,74,0
506.83667,506.92126,74,74,0
506.92126,507.00543,72,74,0
507.00543,507.0904,71,74,0
507.0904,507.1752,74,73,0
507.1752,507.2599,72,73,0
507.2599,507.3442,70,73,0
507.3442,507.42892,69,73,0
507.42892,507.51343,67,73,0
507.51343,507.59793,66,74,0
507.59793,507.68228,63,75,0
507.68228,507.76624,62,76,0
507.76624,507.84988,60,76,0
507.84988,507.93314,58,76,0
507.93314,508.01608,57,79,0
508.01608,508.09866,55,81,0
508.09866,508.1809,54,83,0
508.1809,508.26282,51,84,0
508.26282,508.3444,50,84,0
508.3444,508.4258,48,85,0
508.4258,508.50775,46,86,0
508.50775,508.59018,45,88,0
508.59018,508.67307,43,89,0
508.67307,508.75653,42,91,0
508.75653,508.8405,39,93,0
508.8405,508.92502,38,94,0
508.92502,509.01004,36,94,0
509.01004,509.09564,34,95,0
509.09564,509.18182,33,97,0
509.96088,510.0459,45,75,0
510.0459,510.13065,46,75,0
510.13065,510.21512,48,76,0
510.21512,510.29935,50,77,0
510.29935,510.3833,52,77,0
510.3833,510.46704,54,78,0
510.46704,510.55048,55,78,0
510.55048,510.63367,57,79,0
510.63367,510.71677,58,80,0
510.71677,510.79987,60,80,0
510.79987,510.88297,62,81,0
510.88297,510.96606,64,81,0
510.96606,511.0493,66,82,0
511.0493,511.13306,67,83,0
511.13306,511.21732,69,83,0
511.21732,511.3021,70,84,0
511.3021,511.38745,72,84,0
511.38745,511.47336,74,85,0
511.47336,511.5598,76,86,0
511.5598,511.64682,78,86,0
511.64682,512.02185,79,89,0
518.727,519.9784,46,85,0
519.9784,520.06525,48,71,0
520.06525,520.1519,50,71,0
520.1519,520.2384,52,71,0
520.2384,520.32477,54,72,0
520.32477,520.41095,55,72,0
520.41095,520.497,57,72,0
520.497,520.5829,58,73,0
520.5829,520.66864,60,73,0
520.66864,520.75415,62,73,0
520.75415,520.8396,64,74,0
520.8396,520.9248,66,74,0
520.9248,521.00995,67,74,0
521.00995,521.0949,69,75,0
521.0949,521.1797,70,75,0
521.1797,521.26434,72,75,0
521.26434,521.3488,74,76,0
521.3488,521.43317,76,76,0
521.43317,521.51733,78,76,0
521.51733,521.6011,79,77,0
521.6011,521.68475,81,77,0
521.68475,521.7688,82,77,0
521.7688,521.8531,84,78,0
521.8531,521.9377,86,78,0
521.9377,522.0225,88,78,0
522.0225,522.10767,90,79,0
522.10767,522.1931,91,79,0
522.1931,522.2789,93,79,0
522.2789,522.57886,94,87,0
523.4789,524.5632,55,37,0
523.4789,524.5632,50,37,0
523.4789,524.5632,62,45,0
523.4789,524.5632,58,37,0
524.5632,524.9246,55,37,0
524.5632,524.9246,50,37,0
524.5632,524.9246,62,45,0
524.5632,524.9246,58,37,0
524.9246,526.2927,62,45,0
524.9246,526.2927,55,37,0
524.9246,526.2927,50,37,0
524.9246,526.2927,58,37,0
526.5308,526.7635,62,94,0
526.7635,526.9907,67,94,0
526.9907,527.218,70,99,0
527.218,527.4308,75,100,0
527.4308,527.63196,74,94,0
527.6607,528.0082,74,94,0
529.03894,529.34235,88,109,0
528.9565,529.34235,100,104,0
529.52167,529.8158,87,108,0
529.4324,529.8158,99,106,0
529.9895,530.2749,86,107,0
529.903,530.2749,98,104,0
530.4429,530.71106,85,106,0
530.3592,530.71106,97,100,0
530.87024,531.1321,84,103,0
530.7909,531.1321,96,102,0
531.28723,531.5428,83,102,0
531.2099,531.5428,95,103,0
531.6943,531.9438,82,101,0
531.6185,531.9438,94,102,0
532.0919,532.3359,81,100,0
532.01807,532.3359,93,101,0
532.4806,532.71906,80,99,0
532.40845,532.71906,92,99,0
532.86053,533.06067,91,98,0
532.86053,533.06067,79,88,0
533.1199,533.28973,78,87,0
533.1199,533.28973,90,97,0
533.34406,533.5008,77,87,0
533.34406,533.5008,89,97,0
533.551,533.6966,88,96,0
533.551,533.6966,76,86,0
533.7434,533.8792,75,85,0
533.7434,533.8792,87,95,0
533.9225,534.044,86,94,0
533.9225,534.044,74,84,0
534.08203,534.18994,73,83,0
534.08203,534.18994,85,93,0
534.224,534.3209,72,81,0
534.224,534.3209,84,91,0
534.3517,534.4397,71,85,0
534.3517,534.4397,83,95,0
534.4677,534.5484,82,99,0
534.4677,534.5484,70,89,0
534.57513,534.6594,69,92,0
534.57513,534.6594,81,103,0
534.6891,534.7832,80,108,0
534.6891,534.7832,68,97,0
534.8164,535.2331,79,113,0
534.8164,535.2331,67,96,0
535.6498,536.4831,94,108,0
535.6498,536.4831,86,92,0
535.6498,536.4831,82,92,0
535.6498,536.4831,91,108,0
536.4831,537.9831,55,117,0
0.0018108062,2.1729674,36,74,0
2.1729674,2.580909,39,66,0
2.580909,2.9705195,44,70,0
2.9705195,3.375925,46,64,0
3.375925,3.763022,48,70,0
3.763022,4.1543303,44,63,0
4.1543303,4.5364957,51,63,0
4.5364957,4.921111,58,55,0
4.921111,5.313268,60,58,0
5.313268,5.7132683,56,54,0
5.7132683,6.110619,63,62,0
6.110619,6.4991717,70,54,0
6.4991717,6.914799,72,57,0
6.914799,7.3495817,67,48,0
7.3495817,7.790758,70,53,0
7.790758,8.307079,68,35,0
8.307079,9.418191,67,32,0
9.418191,9.989619,66,27,0
11.132476,11.569985,66,34,0
11.569985,11.990861,67,37,0
11.990861,12.396266,66,34,0
12.396266,12.821674,65,37,0
12.821674,13.301058,66,34,0
13.301058,13.5995655,69,38,0
13.5995655,13.9120655,67,34,0
13.9120655,14.2245655,63,37,0
14.2245655,14.975813,63,36,0
14.975813,15.246083,62,33,0
15.246083,15.600065,65,34,0
15.600065,15.988416,63,33,0
15.988416,16.388414,62,26,0
16.43286,17.455877,62,24,0
20.524931,22.472511,60,42,0
20.524931,22.472511,51,42,0
20.524931,22.472511,55,42,0
22.879385,25.97107,63,56,0
22.6552,25.97107,55,48,0
22.472511,25.97107,50,44,0
28.187544,28.520878,38,46,0
30.538908,31.055212,43,27,0
31.060648,31.612974,43,27,0
32.145103,32.670544,58,25,0
32.676075,33.199203,58,25,0
33.75517,34.278297,57,22,0
34.283802,34.80693,57,22,0
35.392147,35.676506,38,46,0
35.96087,36.24124,38,46,0
37.05025,37.562103,43,27,0
37.56749,38.119816,43,27,0
38.656605,39.18539,45,25,0
39.190945,39.74327,45,25,0
40.32325,40.87452,38,19,0
40.880333,41.43266,38,19,0
42.01818,42.58098,50,46,0
42.586903,43.141808,50,46,0
43.693104,44.21394,43,27,0
44.21942,44.771748,43,27,0
45.308533,45.80469,64,25,0
45.809914,46.347244,64,25,0
46.881535,47.38104,65,28,0
47.386288,47.90174,65,28,0
48.486877,49.049675,41,46,0
49.0556,49.610504,41,46,0
50.1618,50.67159,46,19,0
50.676956,51.229282,46,19,0
51.780552,52.29462,58,21,0
52.30003,52.839806,58,21,0
53.403625,53.9434,57,27,0
53.94908,54.488853,57,27,0
55.074245,55.637043,38,46,0
55.642967,56.197872,38,46,0
56.74917,57.261024,43,27,0
57.26641,57.818737,43,27,0
58.370007,58.87966,58,25,0
58.885025,59.4248,58,25,0
59.98094,60.504066,57,22,0
60.509575,61.046906,57,22,0
61.63227,62.195065,38,46,0
62.20099,62.755898,38,46,0
63.29507,63.82285,43,27,0
63.828403,64.38073,43,27,0
64.932,65.462135,45,21,0
65.46771,66.00995,45,21,0
66.5738,67.11357,38,17,0
67.119255,67.65903,38,17,0
68.244415,68.80721,50,46,0
68.81314,69.36804,50,46,0
69.91934,70.44247,55,27,0
70.447975,71.000305,55,27,0
71.55157,72.04773,43,28,0
72.05295,72.57151,43,28,0
73.09421,73.57744,36,35,0
73.58253,74.08135,55,43,0
73.09421,74.0866,48,32,0
74.58195,75.06268,38,34,0
75.06774,75.56657,55,44,0
74.58195,75.571815,50,31,0
76.070526,76.55126,39,36,0
76.55632,77.05934,55,43,0
76.070526,77.06462,51,33,0
77.575264,78.05599,38,31,0
78.06105,78.55721,55,36,0
77.575264,78.56243,50,28,0
78.56243,78.80437,47,52,0
78.80437,79.0463,48,42,0
79.0463,79.27888,50,42,0
79.27888,79.51145,48,42,0
79.51145,79.986664,55,51,0
79.986664,80.22958,49,53,0
80.22958,80.472496,50,43,0
80.472496,80.70412,51,47,0
80.70412,80.93727,50,42,0
80.93727,81.4146,55,52,0
81.4146,81.64782,50,57,0
81.64782,81.88105,51,48,0
81.88105,82.109726,53,48,0
82.109726,82.3384,51,48,0
82.3384,82.721344,55,54,0
82.721344,82.7256,51,36,0
82.7639,82.80645,52,36,0
82.80645,82.84841,53,35,0
82.84841,82.91127,52,35,0
82.91127,82.97374,53,36,0
82.97374,83.03574,52,36,0
83.03574,83.097374,53,37,0
83.097374,83.15855,52,37,0
83.15855,83.21935,53,38,0
83.21935,83.279724,52,38,0
83.279724,83.33974,53,39,0
83.33974,83.39966,52,39,0
83.39966,83.45958,53,39,0
83.45958,83.5195,52,40,0
83.5195,83.57943,53,40,0
83.57943,83.63944,52,42,0
83.63944,83.69963,53,42,0
83.69963,83.76064,52,43,0
83.76064,83.82101,53,43,0
83.82101,83.88209,52,44,0
83.88209,83.94372,53,44,0
83.94372,84.006004,52,46,0
84.006004,84.068855,53,46,0
84.068855,84.132484,52,47,0
84.132484,84.22969,51,47,0
84.22969,84.327705,52,48,0
84.327705,86.25659,53,55,0
86.25659,86.725746,52,46,0
86.25659,86.725746,40,37,0
86.725746,87.1949,53,46,0
86.725746,87.1949,41,37,0
87.1949,88.99881,54,51,0
87.1949,88.99881,42,42,0
88.99881,89.47555,53,40,0
88.99881,89.47555,41,34,0
89.47555,89.95918,54,44,0
89.47555,89.95918,42,37,0
89.95918,92.80554,55,48,0
89.95918,92.80554,43,40,0
92.80554,95.58785,50,38,0
92.80554,95.58785,38,32,0
95.58785,98.42217,51,39,0
95.58785,98.42217,39,33,0
98.42217,99.84445,48,39,0
98.42217,99.84445,36,39,0
99.84445,101.41599,50,39,0
99.84445,101.41599,38,33,0
101.41599,101.888435,49,39,0
101.41599,101.888435,37,33,0
101.888435,102.35596,64,36,0
101.888435,102.35596,57,30,0
101.888435,102.35596,52,30,0
102.36088,102.82839,64,34,0
102.36088,102.82839,57,28,0
102.36088,102.82839,52,28,0
102.83331,103.300835,64,34,0
102.83331,103.300835,57,28,0
102.83331,103.300835,52,28,0
103.305756,103.77328,64,34,0
103.305756,103.77328,57,28,0
103.305756,103.77328,52,28,0
103.7782,104.24572,64,35,0
103.7782,104.24572,57,29,0
103.7782,104.24572,52,29,0
104.25064,104.776955,48,42,0
104.25064,104.776955,36,36,0
104.776955,105.27073,65,39,0
104.776955,105.27073,53,33,0
104.776955,105.27073,57,33,0
104.776955,105.27073,63,33,0
105.27592,105.765625,65,39,0
105.27592,105.765625,53,33,0
105.27592,105.765625,57,33,0
105.27592,105.765625,63,33,0
105.77077,106.25632,65,39,0
105.77077,106.25632,53,33,0
105.77077,106.25632,57,33,0
105.77077,106.25632,63,33,0
106.2614,106.76419,65,39,0
106.2614,106.76419,53,33,0
106.2614,106.76419,57,33,0
106.2614,106.76419,63,33,0
106.770256,107.337456,65,39,0
106.770256,107.337456,53,33,0
106.770256,107.337456,57,33,0
106.770256,107.337456,63,33,0
107.34352,107.86301,46,45,0
107.34352,107.86301,34,38,0
107.86301,108.36301,58,39,0
107.86301,108.36301,53,31,0
107.86301,108.36301,50,31,0
108.36301,108.86301,62,39,0
108.36301,108.86301,58,33,0
108.36301,108.86301,53,33,0
108.86301,109.393974,39,40,0
109.393974,109.88985,60,37,0
109.393974,109.88985,55,31,0
109.393974,109.88985,51,31,0
109.88985,110.41158,63,37,0
109.88985,110.41158,60,31,0
109.88985,110.41158,55,31,0
110.41158,110.952126,38,42,0
110.952126,111.46937,63,35,0
110.952126,111.46937,58,29,0
110.952126,111.46937,55,29,0
111.46937,111.998,55,29,0
111.46937,112.526634,58,29,0
111.46937,112.526634,62,35,0
112.526634,113.06718,58,29,0
112.526634,113.06718,61,35,0
113.06718,113.6441,60,36,0
113.06718,113.6441,57,30,0
111.998,113.6441,50,39,0
113.6441,113.921875,43,36,0
114.19965,114.707825,65,28,0
114.707825,115.20418,63,29,0
114.19965,115.20418,55,19,0
114.19965,115.20418,58,19,0
115.20418,115.469666,42,38,0
115.73515,116.23113,63,28,0
116.23113,116.72599,62,29,0
115.73515,116.72599,57,19,0
115.73515,116.72599,54,19,0
116.72599,116.97392,43,38,0
117.21489,117.67454,65,30,0
117.67454,118.14465,63,30,0
117.21489,118.14465,55,20,0
117.21489,118.14465,58,20,0
118.14465,118.380875,41,40,0
118.60988,119.05207,63,30,0
119.05207,119.50205,62,30,0
118.60988,119.50205,56,20,0
118.60988,119.50205,53,20,0
118.60988,119.50205,59,20,0
119.50205,119.72594,39,41,0
119.949814,120.37145,62,32,0
120.37145,120.80179,60,32,0
119.949814,120.80179,51,21,0
119.949814,120.80179,55,21,0
120.80179,121.0138,36,42,0
121.21788,121.62109,58,31,0
121.62109,122.03149,57,32,0
121.21788,122.03149,51,26,0
122.03149,122.232155,38,43,0
122.43282,122.81596,55,33,0
122.81596,123.216034,54,33,0
122.43282,123.216034,50,28,0
122.43282,123.216034,60,28,0
123.216034,123.41211,38,44,0
123.60819,123.98555,57,37,0
123.98555,124.37331,50,38,0
124.37331,124.5503,43,59,0
124.37331,124.5503,55,59,0
124.72729,125.069496,65,43,0
125.069496,125.41472,63,43,0
125.069496,125.41472,58,36,0
124.72729,125.41472,55,36,0
125.41472,125.587715,42,62,0
125.41472,125.587715,54,62,0
125.760544,126.091576,63,41,0
126.091576,126.423775,62,42,0
126.091576,126.423775,57,35,0
125.760544,126.423775,54,35,0
126.423775,126.58771,43,61,0
126.423775,126.58771,55,61,0
126.75164,127.068695,65,44,0
127.068695,127.3864,63,44,0
127.068695,127.3864,58,37,0
126.75164,127.3864,55,36,0
127.3864,127.541435,41,63,0
127.3864,127.541435,53,63,0
127.69648,127.99848,63,43,0
127.99848,128.301,62,43,0
127.69648,128.301,53,36,0
127.99848,128.301,56,36,0
127.99848,128.301,59,36,0
128.301,128.44914,39,62,0
128.301,128.44914,51,62,0
128.59729,128.88953,62,45,0
128.88953,129.17938,60,45,0
128.88953,129.17938,55,38,0
128.59729,129.17938,51,38,0
129.17938,129.32431,36,66,0
129.17938,129.32431,48,66,0
129.46924,129.75223,58,44,0
129.75223,130.03494,57,44,0
129.75223,130.03494,51,37,0
129.46924,130.03494,48,37,0
130.03494,130.17612,38,64,0
130.31729,130.59442,55,46,0
130.31729,130.59442,45,46,0
130.59442,130.87015,54,47,0
130.59442,130.87015,48,39,0
130.87015,131.00777,38,67,0
131.14539,131.41644,51,51,0
131.14539,131.41644,45,51,0
131.41644,131.69034,48,51,0
131.69034,131.91174,43,51,0
131.41644,131.91174,50,51,0
131.91174,132.12602,43,38,0
131.91174,132.12602,31,32,0
132.34032,132.56009,43,38,0
132.34032,132.56009,50,51,0
132.56009,132.66724,51,43,0
132.66724,132.77437,50,45,0
132.56009,132.98866,43,32,0
133.20685,133.85007,57,49,0
132.98866,133.85007,48,43,0
132.98866,133.85007,43,43,0
132.98866,133.85007,51,51,0
133.85007,134.06245,55,51,0
133.85007,134.06245,43,43,0
134.06245,134.27771,51,46,0
134.06245,134.27771,63,55,0
134.27771,134.38841,62,51,0
134.27771,134.38841,50,46,0
134.49911,134.92769,55,38,0
134.49911,134.92769,43,32,0
134.92769,135.14746,55,38,0
134.92769,135.14746,62,45,0
135.14746,135.25461,63,43,0
135.25461,135.36174,62,45,0
135.14746,135.57603,55,32,0
135.79422,136.43744,69,49,0
135.57603,136.43744,60,43,0
135.57603,136.43744,55,43,0
135.57603,136.43744,63,51,0
136.43744,136.64983,67,51,0
136.43744,136.64983,55,43,0
136.64983,136.86508,63,46,0
136.64983,136.86508,75,55,0
136.86508,136.97578,74,55,0
136.86508,136.97578,67,55,0
137.51976,137.7324,69,48,0
137.51976,137.7324,75,66,0
137.51976,137.7324,63,38,0
137.51976,137.7324,66,38,0
137.7324,137.94487,74,52,0
137.94487,138.15915,62,52,0
138.15915,138.26944,55,55,0
138.60005,138.81195,74,51,0
138.37973,138.81195,62,51,0
138.81195,139.02309,69,48,0
138.81195,139.02309,66,38,0
138.81195,139.02309,63,38,0
138.81195,139.02309,75,66,0
139.02309,139.2346,74,50,0
139.2346,139.44814,62,53,0
139.44814,139.66872,55,55,0
139.88884,140.10161,50,51,0
140.10161,140.31438,51,38,0
140.10161,140.31438,54,38,0
140.10161,140.31438,63,66,0
140.10161,140.31438,57,48,0
140.31438,140.52771,62,50,0
140.52771,140.74199,50,53,0
140.74199,140.85228,43,49,0
141.18289,141.39793,62,45,0
140.96257,141.39793,50,45,0
141.39793,141.61235,57,42,0
141.39793,141.61235,63,57,0
141.39793,141.61235,51,34,0
141.39793,141.61235,54,34,0
141.61235,141.82632,62,45,0
141.82632,142.04216,50,47,0
142.04216,142.26274,43,58,0
142.26274,142.48305,50,45,0
142.26274,142.48305,58,45,0
142.70169,142.91675,49,58,0
142.70169,142.91675,37,46,0
142.91675,143.13179,50,45,0
142.91675,143.13179,38,39,0
143.34685,143.56744,31,49,0
143.34685,143.56744,43,49,0
143.56744,143.78775,46,38,0
144.0068,144.22185,37,49,0
144.22185,144.4369,38,38,0
144.65393,144.87451,31,49,0
144.65393,144.87451,43,49,0
145.09482,145.31387,36,45,0
145.31387,145.52893,43,49,0
145.31387,145.52893,31,49,0
145.74397,145.9622,36,45,0
145.9622,146.1828,43,49,0
145.9622,146.1828,31,49,0
146.4031,146.62216,36,45,0
146.62216,146.8372,31,49,0
146.62216,146.8372,43,49,0
147.05226,147.2705,36,45,0
147.2705,147.94904,43,49,0
147.2705,147.94904,31,41,0
148.17038,148.37709,67,57,0
148.17038,148.37709,62,48,0
148.39609,148.61348,55,45,0
148.39609,148.61348,62,53,0
148.63326,149.09456,67,57,0
148.63326,149.09456,62,48,0
149.77344,150.02138,38,49,0
150.02138,151.20906,43,52,0
150.02138,151.20906,31,44,0
151.20906,151.46768,38,47,0
151.46768,152.6731,42,52,0
151.46768,152.6731,30,44,0
152.6731,152.93283,38,47,0
152.93283,153.62837,31,41,0
152.93283,153.62837,43,49,0
153.85545,154.06674,50,48,0
153.85545,154.06674,55,57,0
154.08609,154.30527,50,53,0
154.08609,154.30527,43,45,0
154.3252,154.79024,55,57,0
154.3252,154.79024,50,48,0
155.49338,155.76038,38,49,0
155.76038,156.971,30,44,0
155.76038,156.971,42,52,0
156.971,157.25706,38,47,0
157.25706,158.53229,41,52,0
158.53229,158.84303,43,47,0
158.84303,159.38503,45,49,0
157.25706,159.38503,29,44,0
159.92155,160.18623,65,52,0
159.92155,160.18623,60,44,0
160.2112,160.48827,53,36,0
160.2112,160.48827,60,44,0
160.51346,161.87093,60,44,0
160.51346,161.87093,65,52,0
161.87093,162.19879,60,41,0
161.87093,162.19879,53,35,0
162.19879,163.89053,60,39,0
162.19879,163.89053,65,46,0
163.89053,164.26558,60,36,0
163.89053,164.26558,53,31,0
164.26558,165.06273,65,40,0
164.26558,165.06273,60,34,0
165.06273,165.48682,60,34,0
165.06273,165.48682,53,28,0
165.48682,165.93108,60,31,0
165.48682,165.93108,65,37,0
165.93108,166.37643,60,36,0
165.93108,166.37643,53,30,0
166.88133,167.35616,34,36,0
167.35616,167.7689,46,29,0
167.7689,168.18164,56,29,0
168.18164,168.58456,53,31,0
168.58456,168.97522,60,31,0
168.97522,169.37056,58,31,0
169.37056,169.76588,39,36,0
169.76588,170.15392,46,27,0
170.15392,170.54193,51,26,0
170.54193,170.92618,55,32,0
170.92618,171.30576,58,31,0
171.30576,171.71193,63,31,0
171.71193,172.10727,60,33,0
172.10727,172.49673,63,30,0
172.49673,172.87941,53,25,0
172.87941,173.28078,63,33,0
173.28078,173.6654,67,30,0
173.6654,174.06834,65,30,0
174.06834,174.47127,46,36,0
174.47127,174.86514,53,29,0
174.86514,175.25903,58,29,0
175.25903,175.65291,62,32,0
175.65291,176.04001,65,32,0
176.04001,176.45303,70,32,0
176.45303,176.84985,60,36,0
176.84985,177.23889,63,30,0
177.23889,177.64644,53,30,0
177.64644,178.02719,58,33,0
178.02719,178.41507,62,26,0
178.41507,178.82993,68,28,0
178.82993,179.22525,58,36,0
179.22525,179.62059,62,29,0
179.62059,180.01593,51,29,0
180.01593,180.42194,56,28,0
180.42194,180.81581,60,29,0
180.81581,181.21654,67,29,0
181.21654,181.6179,56,36,0
181.6179,182.01031,60,31,0
182.01031,182.40273,50,32,0
182.40273,182.8027,55,30,0
182.8027,183.19513,59,36,0
183.19513,183.59354,65,30,0
183.59354,183.97467,55,36,0
183.97467,184.36531,60,31,0
184.36531,184.75597,48,31,0
184.75597,185.1466,53,33,0
185.1466,185.54185,57,33,0
185.54185,185.94774,63,33,0
185.94774,186.35376,53,36,0
186.35376,186.75977,56,29,0
186.75977,187.16577,46,29,0
187.16577,187.5687,56,31,0
187.5687,187.95389,60,31,0
187.95389,188.34921,58,31,0
188.34921,188.74455,39,36,0
188.74455,189.13258,46,30,0
189.13258,189.5206,51,27,0
189.5206,189.91742,55,31,0
189.91742,190.2974,58,31,0
190.2974,190.70357,63,28,0
190.70357,191.09889,60,30,0
191.09889,191.48836,63,30,0
191.48836,191.87782,53,25,0
191.87782,192.27917,63,33,0
192.27917,192.66187,67,30,0
192.66187,193.06479,65,30,0
193.06479,193.46771,46,36,0
193.46771,193.8616,53,32,0
193.8616,194.25548,58,32,0
194.25548,194.65965,62,34,0
194.65965,195.05695,65,37,0
195.05695,195.53288,70,42,0
195.53288,195.9297,36,44,0
195.9297,196.32652,64,30,0
196.32652,196.73409,58,26,0
197.1309,197.52773,64,27,0
197.52773,197.95096,58,27,0
196.73409,197.95096,55,30,0
198.35234,198.76364,63,31,0
198.76364,199.17494,57,31,0
197.95096,199.17494,53,36,0
199.17494,199.59969,46,36,0
199.59969,200.00668,62,31,0
200.00668,200.48003,56,31,0
200.48003,200.73883,39,38,0
200.73883,200.9878,46,26,0
200.9878,201.22876,55,31,0
201.22876,201.46973,51,27,0
201.46973,201.71068,58,31,0
201.71068,201.95164,55,27,0
201.95164,202.43358,63,32,0
203.41655,203.65993,39,32,0
203.65993,203.89897,46,22,0
203.89897,204.13802,55,26,0
204.13802,204.37706,51,22,0
204.37706,204.6161,58,26,0
204.6161,204.85515,55,22,0
204.85515,205.33324,63,27,0
206.3115,206.55487,39,32,0
206.55487,206.79391,46,22,0
206.79391,207.03296,56,26,0
207.03296,207.272,53,22,0
207.272,207.51105,58,26,0
207.51105,207.75009,56,22,0
207.75009,208.22816,62,27,0
209.20644,209.4498,39,32,0
209.4498,209.69318,46,25,0
209.69318,210.18848,55,28,0
210.69019,210.93253,39,32,0
210.93253,211.17488,51,25,0
211.17488,211.65958,56,29,0
212.1519,212.4061,39,32,0
212.4061,212.6603,46,22,0
212.6603,212.90224,55,26,0
212.90224,213.14417,51,22,0
213.14417,213.38611,58,26,0
213.38611,213.62804,55,22,0
213.62804,214.12187,63,27,0
215.10687,215.34592,39,32,0
215.34592,215.60233,46,22,0
215.60233,215.84525,55,26,0
215.84525,216.08815,51,22,0
216.08815,216.33107,58,26,0
216.33107,216.57399,55,22,0
216.57399,217.04584,63,27,0
218.02411,218.26126,39,32,0
218.26126,218.51877,46,22,0
218.51877,218.76071,56,26,0
218.76071,219.00264,53,22,0
219.00264,219.24458,58,26,0
219.24458,219.48651,56,22,0
219.48651,219.95895,62,27,0
220.93509,221.17847,39,32,0
221.17847,221.42183,46,25,0
221.42183,221.91713,55,28,0
222.41884,222.6612,39,32,0
222.6612,222.90353,51,25,0
222.90353,223.38823,56,29,0
223.88057,224.13477,39,32,0
224.13477,224.38896,46,22,0
224.38896,224.63286,55,26,0
224.63286,224.87675,51,22,0
224.87675,225.12067,58,26,0
225.12067,225.36456,55,22,0
225.36456,225.8584,63,27,0
226.8434,227.0976,43,32,0
227.0976,227.35178,50,22,0
227.35178,227.59937,58,26,0
227.59937,227.84695,55,22,0
227.84695,228.09454,62,26,0
228.09454,228.34213,58,22,0
228.34213,228.8373,67,27,0
229.82364,230.07784,46,32,0
230.07784,230.33203,53,22,0
230.33203,230.57962,62,26,0
230.57962,230.82721,58,22,0
230.82721,231.0748,65,26,0
231.0748,231.32237,62,22,0
231.32237,231.82645,70,27,0
232.84686,233.11288,50,31,0
233.11288,233.37892,57,26,0
233.37892,233.64494,65,31,0
233.64494,233.91096,62,26,0
233.91096,234.177,69,31,0
234.177,234.44302,65,26,0
236.8376,237.49127,40,25,0
237.49127,238.14494,40,25,0
236.18394,238.14494,52,28,0
238.77512,239.05316,40,39,0
239.33119,239.59624,40,39,0
240.36769,240.85577,40,22,0
240.8609,241.38303,40,22,0
241.88603,242.38272,57,21,0
241.88603,242.38272,52,21,0
242.38795,242.88246,52,21,0
242.38795,242.88246,57,21,0
241.38852,242.88766,64,34,0
243.408,243.90251,52,22,0
243.408,243.90251,57,22,0
243.90771,244.4022,57,22,0
243.90771,244.4022,52,22,0
242.88766,244.40742,62,34,0
244.95541,245.22423,40,39,0
245.49304,245.74767,40,39,0
246.51207,246.99594,40,22,0
247.00104,247.52315,40,22,0
248.03056,248.53043,40,21,0
248.53568,249.0578,40,21,0
247.52864,249.0633,54,31,0
249.60603,250.12715,40,16,0
250.13264,250.65475,40,16,0
249.0633,250.66025,56,31,0
251.20825,251.74028,40,39,0
251.74588,252.25443,40,39,0
252.77557,253.25853,40,22,0
253.26361,253.78572,40,22,0
254.28302,254.74437,57,19,0
254.28302,254.74437,52,19,0
254.28302,254.74437,60,24,0
254.74922,255.26108,57,19,0
254.74922,255.26108,60,24,0
254.74922,255.26108,52,19,0
253.79123,255.26646,64,41,0
255.76855,256.23547,57,19,0
255.76855,256.23547,60,24,0
255.76855,256.23547,52,19,0
256.2403,256.7075,57,19,0
256.2403,256.7075,52,19,0
256.2403,256.7075,60,24,0
255.26646,256.71243,66,41,0
257.24576,257.7621,40,39,0
257.76752,258.26337,40,39,0
258.78424,259.27658,40,22,0
259.28177,259.80386,40,22,0
260.29916,260.76456,57,21,0
260.29916,260.76456,60,26,0
260.29916,260.76456,52,21,0
260.76947,261.2774,60,26,0
260.76947,261.2774,52,21,0
260.76947,261.2774,57,21,0
259.8094,261.28278,66,45,0
261.7807,262.24966,57,21,0
261.7807,262.24966,60,28,0
261.7807,262.24966,52,21,0
262.25455,262.7375,60,28,0
262.25455,262.7375,52,21,0
262.25455,262.7375,57,21,0
261.28278,262.74258,68,47,0
263.2445,263.7226,60,28,0
262.74258,263.7226,66,50,0
263.2445,263.7226,57,23,0
263.2445,263.7226,52,23,0
263.97925,264.2145,68,53,0
264.71933,265.1815,57,25,0
264.71933,265.1815,60,32,0
264.71933,265.1815,52,25,0
265.1863,265.66498,57,26,0
265.1863,265.66498,60,33,0
265.1863,265.66498,52,26,0
264.2359,265.67,68,53,0
266.17194,266.63525,57,27,0
265.67,266.63525,66,57,0
266.17194,266.63525,60,34,0
266.17194,266.63525,52,27,0
266.88016,267.10464,68,59,0
267.5938,268.0354,60,36,0
267.5938,268.0354,57,29,0
267.5938,268.0354,52,29,0
268.04004,268.5039,57,29,0
268.04004,268.5039,60,37,0
268.04004,268.5039,52,29,0
267.12506,268.5088,68,59,0
268.99072,269.43484,60,39,0
268.5088,269.43484,66,65,0
268.99072,269.43484,57,31,0
268.99072,269.43484,52,31,0
269.67014,269.90543,68,61,0
270.34824,270.76343,60,41,0
270.34824,270.76343,52,34,0
270.34824,270.76343,57,34,0
270.7678,271.183,57,34,0
270.7678,271.183,52,34,0
270.7678,271.183,60,46,0
269.90543,271.18738,69,63,0
271.62375,271.878,60,46,0
271.18738,271.878,68,74,0
271.62375,271.878,57,35,0
271.62375,271.878,52,35,0
272.03052,272.4717,69,80,0
271.878,272.4717,52,35,0
271.92883,272.4717,57,36,0
271.97968,272.4717,60,46,0
272.4717,272.8588,40,84,0
272.4717,272.8588,28,70,0
272.8588,273.22025,56,61,0
272.8588,273.22025,62,72,0
272.8588,273.22025,52,61,0
273.22025,273.5817,56,61,0
273.22025,273.5817,64,73,0
273.22025,273.5817,62,61,0
273.5817,273.95438,62,70,0
273.5817,273.95438,59,70,0
273.5817,273.95438,68,84,0
273.95438,274.30328,62,61,0
273.95438,274.30328,56,61,0
273.95438,274.30328,64,72,0
274.30328,274.6522,56,61,0
274.30328,274.6522,52,61,0
274.30328,274.6522,62,73,0
274.6522,275.00104,33,70,0
274.6522,275.00104,45,84,0
275.00104,275.35123,61,73,0
275.00104,275.35123,52,61,0
275.35123,275.70145,64,74,0
275.35123,275.70145,57,62,0
275.70145,276.06067,69,84,0
275.70145,276.06067,61,70,0
276.06067,276.40714,57,61,0
276.06067,276.40714,64,73,0
276.40714,276.7536,52,61,0
276.40714,276.7536,61,73,0
276.7536,277.10815,35,70,0
276.7536,277.10815,47,84,0
277.10815,277.452,54,61,0
277.10815,277.452,59,73,0
277.452,277.79883,57,61,0
277.452,277.79883,63,73,0
277.79883,278.15674,59,70,0
277.79883,278.15674,66,84,0
278.15674,278.50357,63,72,0
278.15674,278.50357,57,61,0
278.50357,278.85214,54,61,0
278.50357,278.85214,59,72,0
278.85214,279.20874,40,70,0
278.85214,279.20874,52,84,0
279.20874,279.5516,59,74,0
279.20874,279.5516,52,62,0
279.5516,279.89743,64,74,0
279.5516,279.89743,56,62,0
279.89743,280.25534,59,70,0
279.89743,280.25534,68,84,0
280.25534,280.60056,64,74,0
280.25534,280.60056,56,62,0
280.60056,280.94577,52,62,0
280.60056,280.94577,59,74,0
280.94577,281.29977,54,84,0
280.94577,281.29977,42,70,0
281.29977,281.64462,62,74,0
281.29977,281.64462,54,62,0
281.64462,281.99142,57,62,0
281.64462,281.99142,69,74,0
281.99142,282.34543,47,84,0
281.99142,282.34543,35,70,0
282.34543,282.6936,54,62,0
282.6936,283.04605,59,62,0
282.6936,283.04605,69,74,0
282.34543,283.04605,62,74,0
283.04605,283.40005,40,70,0
283.04605,283.40005,52,84,0
283.40005,283.7439,61,74,0
283.40005,283.7439,52,62,0
283.7439,284.09073,68,74,0
283.7439,284.09073,56,62,0
284.09073,284.44473,33,70,0
284.09073,284.44473,45,84,0
284.44473,284.7935,52,62,0
284.7935,285.14334,57,62,0
284.7935,285.14334,68,74,0
284.44473,285.14334,61,74,0
285.14334,285.49734,50,84,0
285.14334,285.49734,38,70,0
285.49734,285.84503,59,74,0
285.49734,285.84503,50,62,0
285.84503,286.19272,66,74,0
285.84503,286.19272,54,62,0
286.19272,286.54672,49,84,0
286.19272,286.54672,37,70,0
286.54672,286.8944,56,62,0
286.54672,286.8944,61,74,0
286.8944,287.2421,59,62,0
286.8944,287.2421,65,74,0
287.2421,287.5961,30,70,0
287.2421,287.5961,42,84,0
287.5961,287.9438,61,74,0
287.9438,288.29147,66,74,0
287.9438,288.29147,57,62,0
287.5961,288.29147,54,62,0
288.29147,288.64548,47,84,0
288.29147,288.64548,35,70,0
288.64548,288.99316,59,74,0
288.99316,289.34085,57,62,0
288.99316,289.34085,63,74,0
288.64548,289.34085,53,62,0
289.34085,289.69275,28,70,0
289.34085,289.69275,40,84,0
289.69275,290.03076,47,61,0
289.69275,290.03076,56,72,0
290.03076,290.3688,52,61,0
290.03076,290.3688,59,73,0
290.3688,290.72278,62,84,0
290.3688,290.72278,56,70,0
290.72278,291.04886,52,61,0
290.72278,291.04886,59,72,0
291.04886,291.37497,56,73,0
291.04886,291.37497,47,61,0
291.37497,291.70105,45,84,0
291.37497,291.70105,33,70,0
291.70105,292.03253,61,73,0
291.70105,292.03253,52,61,0
292.03253,292.36404,64,74,0
292.03253,292.36404,57,62,0
292.36404,292.68924,69,84,0
292.36404,292.68924,61,70,0
292.68924,293.00925,57,61,0
292.68924,293.00925,64,73,0
293.00925,293.32925,52,61,0
293.00925,293.32925,61,73,0
293.32925,293.6571,47,84,0
293.32925,293.6571,35,70,0
293.6571,293.97797,54,61,0
293.6571,293.97797,59,73,0
293.97797,294.29883,57,61,0
293.97797,294.29883,63,73,0
294.29883,294.62943,66,84,0
294.29883,294.62943,59,70,0
294.62943,294.952,63,72,0
294.62943,294.952,57,61,0
294.952,295.27457,54,61,0
294.952,295.27457,59,72,0
295.27457,295.60333,40,70,0
295.27457,295.60333,52,84,0
295.60333,295.9225,59,74,0
295.60333,295.9225,52,62,0
295.9225,296.24164,64,74,0
295.9225,296.24164,56,62,0
296.24164,296.56564,68,84,0
296.24164,296.56564,59,70,0
296.56564,296.87817,64,74,0
296.56564,296.87817,56,62,0
296.87817,297.203,52,62,0
296.87817,297.203,59,74,0
297.203,297.5235,40,70,0
297.203,297.5235,52,84,0
297.5235,297.83826,52,62,0
297.5235,297.83826,58,74,0
297.83826,298.153,54,62,0
297.83826,298.153,61,74,0
298.153,298.4735,64,84,0
298.153,298.4735,58,70,0
298.4735,298.7844,61,74,0
298.4735,298.7844,54,62,0
298.7844,299.0985,58,74,0
298.7844,299.0985,52,62,0
299.0985,299.41882,40,84,0
299.0985,299.41882,28,70,0
299.41882,299.73483,58,74,0
299.41882,299.73483,52,62,0
299.73483,300.04987,61,74,0
299.73483,300.04987,54,62,0
300.04987,300.36386,58,70,0
300.04987,300.36386,64,84,0
300.36386,300.68033,54,62,0
300.36386,300.68033,61,74,0
300.68033,301.0079,58,74,0
300.68033,301.0079,52,62,0
301.0079,301.3284,52,84,0
301.0079,301.3284,40,70,0
301.3284,301.64316,60,74,0
301.3284,301.64316,52,62,0
301.64316,301.95792,63,74,0
301.64316,301.95792,56,62,0
301.95792,302.2784,60,70,0
301.95792,302.2784,66,84,0
302.2784,302.59317,63,74,0
302.2784,302.59317,56,62,0
302.59317,302.90793,60,74,0
302.59317,302.90793,52,62,0
302.90793,303.22824,28,70,0
302.90793,303.22824,40,84,0
303.22824,303.54425,59,74,0
303.22824,303.54425,52,62,0
303.54425,303.85928,63,74,0
303.54425,303.85928,56,62,0
303.85928,304.17328,66,84,0
303.85928,304.17328,60,70,0
304.17328,304.48975,56,62,0
304.17328,304.48975,63,74,0
304.48975,304.81732,52,62,0
304.48975,304.81732,60,74,0
304.81732,305.13782,52,84,0
304.81732,305.13782,40,70,0
305.13782,305.45258,61,62,0
305.13782,305.45258,52,74,0
305.45258,305.76733,64,74,0
305.45258,305.76733,56,62,0
305.76733,306.08783,51,84,0
305.76733,306.08783,39,70,0
306.08783,306.4026,59,74,0
306.08783,306.4026,51,62,0
306.4026,306.71735,56,62,0
306.4026,306.71735,63,74,0
306.71735,307.03766,49,84,0
306.71735,307.03766,37,70,0
307.03766,307.35367,49,62,0
307.03766,307.35367,56,74,0
307.35367,307.6687,52,63,0
307.35367,307.6687,61,75,0
307.6687,307.9827,44,88,0
307.6687,307.9827,32,72,0
307.9827,308.29916,56,79,0
307.9827,308.29916,47,66,0
308.29916,308.62674,59,80,0
308.29916,308.62674,51,67,0
308.62674,309.00174,29,72,0
308.62674,309.00174,41,88,0
309.4294,309.85062,68,59,0
309.34976,309.85062,53,52,0
309.37634,309.85062,59,54,0
309.40292,309.85062,63,56,0
311.31418,311.51047,34,44,0
311.51047,311.70496,50,34,0
311.89758,312.09827,34,44,0
312.09827,312.28995,50,34,0
312.48166,312.67966,34,46,0
312.67966,312.87015,50,34,0
313.0606,313.25354,34,48,0
313.25354,313.44104,50,34,0
313.62854,313.82147,50,49,0
313.82147,314.00897,65,34,0
314.19647,314.38876,50,52,0
314.38876,314.57626,65,36,0
314.76376,314.95734,50,53,0
314.95734,315.14484,65,38,0
315.33234,315.5265,50,55,0
315.5265,315.714,65,40,0
315.9015,316.089,34,50,0
316.464,316.651,46,37,0
316.464,316.651,53,37,0
316.464,316.651,56,45,0
317.02484,317.2111,56,37,0
317.02484,317.2111,62,45,0
317.02484,317.2111,53,37,0
317.58154,317.76578,65,44,0
317.58154,317.76578,56,36,0
317.58154,317.76578,62,36,0
318.1321,318.31393,65,36,0
318.1321,318.31393,58,36,0
318.1321,318.31393,68,43,0
318.67822,318.8607,74,42,0
318.67822,318.8607,68,35,0
318.67822,318.8607,65,35,0
319.22858,319.4133,77,46,0
319.22858,319.4133,74,39,0
319.22858,319.4133,68,39,0
319.78473,319.97144,70,38,0
319.78473,319.97144,77,38,0
319.78473,319.97144,80,45,0
320.34714,322.03152,86,44,0
320.34714,322.03152,80,37,0
320.34714,322.03152,77,37,0
322.03152,322.59235,80,37,0
322.03152,322.59235,75,37,0
322.03152,322.59235,84,44,0
322.59235,323.1549,84,44,0
322.59235,323.1549,75,37,0
323.1549,323.3418,82,44,0
323.1549,323.3418,74,37,0
322.59235,323.3418,80,37,0
324.83536,324.93402,51,42,0
325.02936,325.2131,72,48,0
325.2131,325.40997,70,35,0
325.02936,325.40997,67,28,0
325.02936,325.40997,63,28,0
325.40997,325.504,46,41,0
325.59805,325.78793,57,33,0
325.78793,325.98587,58,33,0
325.59805,325.98587,68,27,0
325.59805,325.98587,62,23,0
325.98587,326.08118,51,42,0
326.1765,326.35953,72,48,0
326.35953,326.55814,70,35,0
326.1765,326.55814,63,28,0
326.1765,326.55814,67,28,0
326.55814,326.6524,46,41,0
326.74646,326.93692,57,33,0
326.93692,327.13486,58,33,0
326.74646,327.13486,68,27,0
326.74646,327.13486,62,23,0
327.13486,327.2302,51,42,0
327.3255,327.51718,68,48,0
327.51718,327.71582,67,36,0
327.3255,327.71582,63,28,0
327.3255,327.71582,58,28,0
327.71582,327.81113,44,43,0
327.90646,328.0971,67,50,0
328.0971,328.295,65,37,0
327.90646,328.295,56,29,0
327.90646,328.295,60,29,0
328.295,328.39163,46,45,0
328.48825,328.6815,63,50,0
328.6815,328.87387,62,36,0
328.48825,328.87387,56,29,0
328.48825,328.87387,53,29,0
328.87387,328.97034,46,41,0
329.0671,329.2613,60,46,0
329.2613,329.45923,58,34,0
329.0671,329.45923,56,27,0
329.0671,329.45923,53,27,0
329.45923,329.55838,51,42,0
329.65454,329.8383,72,48,0
329.8383,330.0369,70,35,0
329.65454,330.0369,67,28,0
329.65454,330.0369,63,28,0
330.0369,330.1314,46,41,0
330.22574,330.41623,57,33,0
330.41623,330.61417,58,33,0
330.22574,330.61417,62,23,0
330.22574,330.61417,68,27,0
330.61417,330.70947,51,42,0
330.8048,330.98785,72,48,0
330.98785,331.18646,70,35,0
330.8048,331.18646,67,28,0
330.8048,331.18646,63,28,0
331.18646,331.28177,46,41,0
331.3771,331.56775,57,33,0
331.56775,331.76566,58,33,0
331.3771,331.76566,68,27,0
331.3771,331.76566,62,23,0
331.76566,331.86246,51,42,0
331.95923,332.1473,77,48,0
332.1473,332.34592,75,36,0
331.95923,332.34592,70,28,0
331.95923,332.34592,67,28,0
332.34592,332.44125,44,43,0
332.53656,332.7272,67,50,0
332.7272,332.92514,65,37,0
332.53656,332.92514,56,29,0
332.53656,332.92514,60,29,0
332.92514,333.11835,46,48,0
333.31158,333.50482,53,38,0
333.31158,333.50482,56,38,0
333.31158,333.50482,62,38,0
333.50482,333.69803,62,38,0
333.50482,333.69803,53,38,0
333.50482,333.69803,56,38,0
333.69803,333.89127,62,38,0
333.69803,333.89127,56,38,0
333.69803,333.89127,53,38,0
333.89127,334.0884,53,38,0
333.89127,334.0884,62,38,0
333.89127,334.0884,56,38,0
334.0884,334.28146,51,49,0
334.0884,334.28146,61,58,0
334.0884,334.28146,58,49,0
334.37772,334.47366,39,41,0
334.37772,334.47366,51,49,0
334.47366,334.56937,39,41,0
334.47366,334.56937,51,50,0
334.66522,334.76135,60,51,0
334.66522,334.76135,56,42,0
334.85773,334.9544,55,51,0
334.85773,334.9544,43,42,0
335.0514,335.15283,54,52,0
335.0514,335.15283,42,44,0
335.25424,335.44788,63,58,0
335.25424,335.44788,57,49,0
335.54416,335.64008,41,41,0
335.54416,335.64008,53,49,0
335.64008,335.73575,53,50,0
335.64008,335.73575,41,41,0
335.8318,335.92813,58,42,0
335.8318,335.92813,62,51,0
336.02478,336.1218,57,51,0
336.02478,336.1218,45,42,0
336.21918,336.3199,56,52,0
336.21918,336.3199,44,44,0
336.4206,336.6149,65,58,0
336.4206,336.6149,59,49,0
336.71173,336.80835,55,49,0
336.71173,336.80835,43,41,0
336.80835,336.90463,55,50,0
336.80835,336.90463,43,41,0
337.00073,337.09702,60,42,0
337.00073,337.09702,63,51,0
337.1938,337.38867,36,42,0
337.1938,337.38867,48,51,0
337.58798,337.7812,63,53,0
337.58798,337.7812,56,46,0
337.7812,337.97443,47,62,0
338.1744,338.36765,62,51,0
338.1744,338.36765,56,42,0
338.36765,338.56088,46,60,0
338.75803,338.95093,39,31,0
338.75803,338.95093,51,37,0
338.95093,339.14386,55,37,0
338.95093,339.14386,43,31,0
339.14386,339.3368,44,32,0
339.14386,339.3368,56,38,0
339.3368,339.5291,43,38,0
339.3368,339.5291,55,46,0
339.5291,339.7214,51,39,0
339.5291,339.7214,39,33,0
339.7214,339.91373,58,41,0
339.7214,339.91373,46,34,0
339.91373,340.1054,57,49,0
339.91373,340.1054,45,39,0
340.1054,340.2971,53,44,0
340.1054,340.2971,41,36,0
340.2971,340.4888,58,45,0
340.2971,340.4888,46,45,0
340.4888,340.67987,57,53,0
340.4888,340.67987,45,44,0
340.67987,340.87097,53,47,0
340.67987,340.87097,41,38,0
340.87097,341.06195,48,39,0
340.87097,341.06195,60,49,0
341.06195,341.2524,47,52,0
341.06195,341.2524,59,59,0
341.2524,341.4429,55,52,0
341.2524,341.4429,43,43,0
341.4429,341.63336,48,43,0
341.4429,341.63336,60,53,0
341.63336,341.82385,47,54,0
341.63336,341.82385,59,63,0
341.82385,342.0143,43,46,0
341.82385,342.0143,55,55,0
342.0143,342.205,50,47,0
342.0143,342.205,62,55,0
342.205,342.39526,61,68,0
342.205,342.39526,49,56,0
342.39526,342.58707,57,57,0
342.39526,342.58707,45,48,0
342.58707,342.78052,64,75,0
342.58707,342.78052,52,62,0
342.78052,342.97565,63,59,0
342.78052,342.97565,51,50,0
342.97565,343.17816,59,74,0
342.97565,343.17816,47,60,0
343.17816,343.39685,62,62,0
343.17816,343.39685,50,53,0
343.39685,343.66833,49,73,0
343.39685,343.66833,37,61,0
343.76736,343.86612,66,53,0
343.76736,343.86612,61,44,0
343.76736,343.86612,57,44,0
343.76736,343.86612,69,53,0
343.86612,344.06287,57,46,0
343.86612,344.06287,69,55,0
343.86612,344.06287,66,55,0
343.86612,344.06287,61,46,0
344.06287,344.25845,61,47,0
344.06287,344.25845,66,56,0
344.06287,344.25845,69,56,0
344.06287,344.25845,57,47,0
344.25845,344.45294,66,58,0
344.25845,344.45294,69,58,0
344.25845,344.45294,61,49,0
344.25845,344.45294,57,49,0
344.45294,344.6464,61,50,0
344.45294,344.6464,57,50,0
344.45294,344.6464,66,59,0
344.45294,344.6464,69,59,0
344.6464,345.2199,66,72,0
344.6464,345.2199,57,60,0
344.6464,345.2199,69,72,0
344.6464,345.2199,61,60,0
345.60248,345.80847,49,69,0
345.60248,345.80847,37,58,0
345.80847,346.00586,36,73,0
345.80847,346.00586,48,86,0
346.10376,346.20132,57,45,0
346.10376,346.20132,63,53,0
346.10376,346.20132,54,45,0
346.20132,346.3953,57,47,0
346.20132,346.3953,54,47,0
346.20132,346.3953,63,55,0
346.3953,346.58777,63,65,0
346.3953,346.58777,57,54,0
346.3953,346.58777,54,54,0
346.77872,346.9773,48,72,0
346.77872,346.9773,36,60,0
346.9773,347.1669,47,88,0
346.9773,347.1669,35,74,0
347.26212,347.35754,57,50,0
347.26212,347.35754,54,50,0
347.26212,347.35754,63,59,0
347.35754,347.5492,57,49,0
347.35754,347.5492,54,49,0
347.35754,347.5492,63,58,0
347.5492,347.74194,63,57,0
347.5492,347.74194,54,48,0
347.5492,347.74194,57,48,0
347.9357,348.17102,35,60,0
347.9357,348.17102,47,72,0
348.17102,348.36038,34,74,0
348.17102,348.36038,46,88,0
348.9284,349.121,60,44,0
348.9284,349.121,57,44,0
348.9284,349.121,63,44,0
349.121,349.31357,56,43,0
349.121,349.31357,62,43,0
349.121,349.31357,58,43,0
349.31357,349.5029,63,47,0
349.31357,349.5029,55,47,0
349.31357,349.5029,58,47,0
350.07095,350.2642,75,46,0
350.07095,350.2642,72,46,0
350.07095,350.2642,69,46,0
350.2642,350.45746,68,46,0
350.2642,350.45746,74,46,0
350.2642,350.45746,70,46,0
350.45746,350.64615,70,46,0
350.45746,350.64615,75,46,0
350.45746,350.64615,67,46,0
351.21225,351.40417,84,56,0
351.21225,351.40417,81,56,0
351.21225,351.40417,87,56,0
351.40417,351.5961,86,56,0
351.40417,351.5961,80,56,0
351.40417,351.5961,82,56,0
351.5961,351.78482,87,57,0
351.5961,351.78482,79,57,0
351.5961,351.78482,82,57,0
352.35092,352.54364,87,58,0
352.35092,352.54364,84,58,0
352.35092,352.54364,81,58,0
352.54364,352.74026,86,58,0
352.54364,352.74026,80,58,0
352.54364,352.74026,82,58,0
352.74026,352.93283,79,59,0
352.74026,352.93283,87,59,0
352.74026,352.93283,82,59,0
353.31735,353.50244,65,72,0
353.31735,353.50244,69,72,0
353.31735,353.50244,60,72,0
353.31735,353.50244,63,72,0
355.00766,355.19742,63,80,0
354.93613,355.19742,47,69,0
354.95996,355.19742,51,73,0
354.9838,355.19742,56,77,0
356.13458,356.32297,35,91,0
357.35977,357.52066,34,80,0
357.52066,357.679,41,55,0
357.679,357.8241,46,55,0
357.8241,357.96832,50,55,0
357.96832,358.1122,46,55,0
358.1122,358.25696,41,55,0
358.25696,358.40417,34,66,0
358.40417,358.55136,41,55,0
358.55136,358.69412,46,55,0
358.69412,358.83685,53,55,0
358.83685,358.98126,46,55,0
358.98126,359.1257,41,55,0
359.1257,359.26913,39,60,0
359.26913,359.41193,46,54,0
359.41193,359.55563,51,54,0
359.55563,359.7001,55,54,0
359.7001,359.84296,51,54,0
359.84296,359.9848,46,53,0
359.9848,360.1263,39,60,0
360.1263,360.2689,48,53,0
360.2689,360.4117,51,53,0
360.4117,360.55453,58,53,0
360.55453,360.6996,51,53,0
360.6996,360.84464,48,53,0
360.84464,360.98746,41,60,0
360.98746,361.1303,48,52,0
361.1303,361.2724,51,52,0
361.2724,361.41367,58,53,0
361.41367,361.55484,51,53,0
361.55484,361.69687,48,53,0
361.69687,361.84116,41,60,0
361.84116,361.98547,48,53,0
361.98547,362.12775,51,53,0
362.12775,362.27005,57,54,0
362.27005,362.41727,51,54,0
362.41727,362.56396,48,54,0
362.56396,362.70807,46,59,0
362.70807,362.85175,53,51,0
362.85175,362.99487,58,51,0
362.99487,363.13757,62,51,0
363.13757,363.2798,58,51,0
363.2798,363.42242,53,51,0
363.42242,363.56546,46,54,0
363.56546,363.70898,53,51,0
363.70898,363.85147,58,51,0
363.85147,363.99393,65,51,0
363.99393,364.1382,58,51,0
364.1382,364.28253,53,51,0
364.28253,364.42538,46,58,0
364.42538,364.5658,55,47,0
364.5658,364.70502,60,48,0
364.70502,364.84595,64,50,0
364.84595,364.991,60,51,0
364.991,365.13095,55,53,0
365.13095,365.27527,46,54,0
365.27527,365.4193,56,51,0
365.4193,365.5605,60,51,0
365.5605,365.70166,65,51,0
365.70166,365.84283,60,51,0
365.84283,365.98816,56,51,0
365.98816,366.12982,46,58,0
366.12982,366.2704,53,47,0
366.2704,366.41025,56,48,0
366.41025,366.55182,62,50,0
366.55182,366.69724,56,51,0
366.69724,366.83755,53,53,0
366.83755,366.98184,46,54,0
366.98184,367.12595,51,51,0
367.12595,367.2678,55,51,0
367.2678,367.40964,63,51,0
367.40964,367.55148,55,51,0
367.55148,367.6971,51,51,0
367.6971,367.8414,46,58,0
367.8414,367.98572,51,47,0
367.98572,368.12854,56,48,0
368.12854,368.27347,60,50,0
368.27347,368.4322,56,51,0
368.4322,368.57288,51,53,0
368.57288,368.71716,46,54,0
368.71716,368.86148,53,51,0
368.86148,369.004,56,51,0
369.004,369.1465,62,51,0
369.1465,369.2923,56,51,0
369.2923,369.4381,53,51,0
369.4381,369.58392,47,54,0
369.58392,369.7297,53,48,0
369.7297,369.87402,55,48,0
369.87402,370.0183,62,48,0
370.0183,370.16263,55,48,0
370.16263,370.30692,53,48,0
370.30692,370.4512,48,54,0
370.4512,370.59552,51,46,0
370.59552,370.7413,55,48,0
370.7413,370.88712,63,51,0
370.88712,371.03293,54,53,0
371.03293,371.1787,51,49,0
371.1787,371.3396,50,80,0
371.3396,371.5005,56,55,0
371.5005,371.64612,58,55,0
371.64612,371.7907,65,55,0
371.7907,371.9345,58,55,0
371.9345,372.07928,56,55,0
372.07928,372.22647,46,66,0
372.22647,372.3737,53,55,0
372.3737,372.51642,58,55,0
372.51642,372.65915,62,55,0
372.65915,372.8036,58,55,0
372.8036,372.948,53,55,0
372.948,373.09244,39,60,0
373.09244,373.23685,46,54,0
373.23685,373.3819,51,54,0
373.3819,373.52695,55,54,0
373.52695,373.67087,58,54,0
373.67087,373.8148,63,53,0
373.8148,373.95728,67,60,0
373.95728,374.09973,63,53,0
374.09973,374.24255,58,53,0
374.24255,374.38538,55,53,0
374.38538,374.53043,51,53,0
374.53043,374.67548,46,53,0
374.67548,374.8183,41,60,0
374.8183,374.96115,48,52,0
374.96115,375.10342,51,52,0
375.10342,375.24573,58,53,0
375.24573,375.38803,51,53,0
375.38803,375.5303,48,53,0
375.5303,375.67462,41,60,0
375.67462,375.8189,48,53,0
375.8189,375.9612,51,53,0
375.9612,376.10352,57,54,0
376.10352,376.2507,51,54,0
376.2507,376.39792,48,54,0
376.39792,376.5422,34,59,0
376.5422,376.68652,46,53,0
376.68652,376.8308,53,55,0
376.8308,376.97513,58,57,0
376.97513,377.11942,62,58,0
377.11942,377.2637,65,60,0
377.2637,377.4115,74,61,0
377.4115,377.55927,70,59,0
377.55927,377.70706,65,57,0
377.70706,377.85486,62,55,0
377.85486,378.0115,58,53,0
378.0115,378.16815,53,51,0
378.16815,378.32083,46,57,0
378.32083,378.4735,52,49,0
378.4735,378.6262,55,49,0
378.6262,378.77884,60,49,0
378.77884,378.93152,55,49,0
378.93152,379.0842,52,49,0
379.0842,379.2361,46,47,0
379.2361,379.3871,52,47,0
379.3871,379.5374,55,53,0
379.5374,379.68835,60,47,0
379.68835,379.83994,55,47,0
379.83994,379.99908,52,47,0
379.99908,380.16763,46,55,0
380.16763,380.3231,53,46,0
380.3231,380.47852,57,46,0
380.47852,380.63397,60,46,0
380.63397,380.7894,57,47,0
380.7894,380.952,53,47,0
380.952,381.12543,46,52,0
381.12543,381.29883,53,47,0
381.29883,381.47223,56,47,0
381.47223,381.64563,62,47,0
381.64563,381.85992,56,47,0
381.85992,382.07626,53,47,0
382.07626,382.314,39,57,0
382.314,382.54822,46,40,0
382.54822,382.77853,51,48,0
382.77853,383.0037,55,42,0
383.0037,383.22845,51,54,0
383.22845,383.46225,46,50,0
383.46225,383.693,39,55,0
383.693,383.9222,46,45,0
383.9222,384.14227,51,45,0
384.14227,384.3594,58,45,0
384.3594,384.57446,51,45,0
384.57446,384.81085,46,45,0
384.81085,385.04617,39,50,0
385.04617,385.2784,46,37,0
385.2784,385.50772,51,51,0
385.50772,385.73203,55,46,0
385.73203,385.9561,51,55,0
385.9561,386.18777,46,49,0
386.18777,386.41333,39,50,0
386.41333,386.63806,46,40,0
386.63806,386.85745,51,40,0
386.85745,387.0746,58,40,0
387.0746,387.29117,51,40,0
387.29117,387.5281,46,40,0
387.5281,387.75977,39,54,0
387.75977,387.991,46,37,0
387.991,388.22,50,47,0
388.22,388.4464,56,37,0
388.4464,388.67328,50,50,0
388.67328,388.90555,46,46,0
388.90555,389.13416,39,47,0
389.13416,389.36142,46,40,0
389.36142,389.58365,50,40,0
389.58365,389.80344,58,40,0
389.80344,390.02197,50,40,0
390.02197,390.25955,46,40,0
390.25955,390.48944,39,54,0
390.48944,390.71933,46,42,0
390.71933,390.95932,51,49,0
390.95932,391.1901,55,42,0
391.1901,391.4301,51,42,0
391.4301,391.6701,46,42,0
391.6701,391.8991,39,46,0
391.8991,392.1281,47,42,0
392.1281,392.35712,51,42,0
392.35712,392.58612,56,42,0
392.58612,392.8065,51,42,0
392.8065,393.0435,47,42,0
393.0435,393.2823,39,54,0
393.2823,393.51776,46,37,0
393.51776,393.7491,51,44,0
393.7491,393.97513,55,37,0
393.97513,394.19916,51,44,0
394.19916,394.4304,46,37,0
394.4304,394.6666,39,47,0
394.6666,394.90192,46,37,0
394.90192,395.12964,51,37,0
395.12964,395.35226,58,37,0
395.35226,395.5709,51,37,0
395.5709,395.8085,46,37,0
395.8085,396.0671,39,54,0
396.0671,396.32248,46,37,0
396.32248,396.56076,51,44,0
396.56076,396.79126,55,37,0
396.79126,397.02158,51,44,0
397.02158,397.25735,46,37,0
397.25735,397.48636,39,41,0
397.48636,397.71536,46,29,0
397.71536,397.94122,51,29,0
397.94122,398.16306,58,29,0
398.16306,398.38184,51,29,0
398.38184,398.61945,46,29,0
398.61945,398.87918,39,43,0
398.87918,399.13736,46,29,0
399.13736,399.3747,50,35,0
399.3747,399.6044,56,29,0
399.6044,399.8308,50,35,0
399.8308,400.06445,46,29,0
400.06445,400.29556,39,37,0
400.29556,400.52542,46,29,0
400.52542,400.7517,50,29,0
400.7517,400.97476,58,29,0
400.97476,401.19385,50,29,0
401.19385,401.43146,46,29,0
401.43146,401.66046,39,43,0
401.66046,401.88947,46,33,0
401.88947,402.1324,51,33,0
402.1324,402.36313,55,33,0
402.36313,402.60706,51,33,0
402.60706,402.85095,46,33,0
402.85095,403.08173,39,38,0
403.08173,403.31247,47,33,0
403.31247,403.54324,51,33,0
403.54324,403.77402,56,33,0
403.77402,403.99835,51,33,0
403.99835,404.23743,47,33,0
404.23743,404.47647,39,43,0
404.47647,404.7155,46,29,0
404.7155,404.94717,51,35,0
404.94717,405.17883,55,29,0
405.17883,405.4105,51,35,0
405.4105,405.64215,46,29,0
405.64215,405.88907,39,41,0
405.88907,406.136,46,33,0
406.136,406.3829,51,33,0
406.3829,406.62982,58,33,0
406.62982,406.86517,51,33,0
406.86517,407.121,46,33,0
407.121,407.36893,39,45,0
407.36893,407.61685,46,33,0
407.61685,407.85782,51,35,0
407.85782,408.0988,55,35,0
408.0988,408.33975,51,35,0
408.33975,408.58072,46,33,0
408.58072,408.82764,39,41,0
408.82764,409.07455,46,33,0
409.07455,409.32147,51,33,0
409.32147,409.56836,58,33,0
409.56836,409.80374,51,26,0
409.80374,410.05954,46,25,0
410.05954,410.3256,43,48,0
410.3256,410.5916,50,33,0
410.5916,410.8392,55,31,0
410.8392,411.0868,58,34,0
411.0868,411.33435,62,37,0
411.33435,411.58194,58,40,0
411.58194,411.8351,67,45,0
411.8351,412.0883,62,40,0
412.0883,412.34143,58,39,0
412.34143,412.5946,55,38,0
412.5946,412.8385,50,37,0
412.8385,413.09717,43,35,0
413.09717,413.3632,31,42,0
413.3632,413.6292,43,32,0
413.6292,413.8768,50,34,0
413.8768,414.1244,55,37,0
414.1244,414.37198,58,39,0
414.37198,414.61957,62,41,0
414.61957,414.87274,70,42,0
414.87274,415.1259,67,41,0
415.1259,415.37906,62,39,0
415.37906,415.63223,58,38,0
415.63223,415.87912,55,36,0
415.87912,416.1388,50,35,0
416.1388,416.40665,43,37,0
416.40665,416.6745,50,33,0
416.6745,417.20312,62,33,0
423.35245,423.9462,38,25,0
423.95245,424.5462,38,25,0
422.75244,424.55243,50,28,0
425.18262,425.7329,38,39,0
425.7387,426.26324,38,39,0
426.7752,427.26328,38,22,0
427.2684,427.79053,38,22,0
428.29355,428.79022,55,21,0
428.29355,428.79022,50,21,0
428.79547,429.31934,50,21,0
428.79547,429.31934,55,21,0
427.79602,429.32483,62,34,0
429.88257,430.46207,50,22,0
429.88257,430.46207,55,22,0
430.46817,431.02008,55,22,0
430.46817,431.02008,50,22,0
429.32483,431.02588,60,34,0
431.57388,432.10593,38,39,0
432.1115,432.63608,38,39,0
433.1413,433.62515,38,22,0
433.63025,434.15237,38,22,0
434.6598,435.15967,38,21,0
435.16492,435.687,38,21,0
436.23526,436.75638,38,16,0
436.76187,437.284,38,16,0
437.8375,438.3695,38,39,0
438.37512,438.8997,38,39,0
439.4208,439.91312,38,22,0
439.9183,440.44043,38,22,0
440.92978,441.38434,50,21,0
440.92978,441.38434,58,27,0
440.92978,441.38434,55,21,0
441.38913,441.901,50,21,0
441.38913,441.901,55,21,0
441.38913,441.901,58,27,0
440.44592,441.90637,62,43,0
442.40848,442.87918,55,21,0
442.40848,442.87918,50,21,0
442.40848,442.87918,58,27,0
442.88412,443.38098,58,27,0
442.88412,443.38098,50,21,0
442.88412,443.38098,55,21,0
441.90637,443.38623,64,45,0
443.91956,444.43585,38,39,0
444.44128,444.94662,38,39,0
445.46753,445.9522,38,26,0
445.95734,446.47943,38,26,0
446.97473,447.4293,50,24,0
446.97473,447.4293,55,24,0
446.97473,447.4293,58,29,0
447.43408,447.94205,58,29,0
447.43408,447.94205,50,24,0
447.43408,447.94205,55,24,0
446.48492,447.9474,64,48,0
448.4453,448.89822,55,24,0
448.4453,448.89822,50,24,0
448.4453,448.89822,58,32,0
448.90298,449.3761,50,24,0
448.90298,449.3761,58,32,0
448.90298,449.3761,55,24,0
447.9474,449.38107,66,52,0
449.883,450.34506,50,26,0
449.883,450.34506,58,32,0
449.883,450.34506,55,26,0
449.38107,450.3499,64,51,0
450.60657,450.84183,66,53,0
451.36322,451.81555,58,35,0
451.36322,451.81555,55,26,0
451.36322,451.81555,50,26,0
451.8203,452.287,50,27,0
451.8203,452.287,58,36,0
451.8203,452.287,55,27,0
450.86322,452.2919,66,53,0
452.79382,453.2501,55,27,0
452.2919,453.2501,64,56,0
452.79382,453.2501,50,27,0
452.79382,453.2501,58,36,0
453.48553,453.70135,66,56,0
454.18033,454.62015,50,29,0
454.18033,454.62015,55,29,0
454.18033,454.62015,58,37,0
454.6248,455.08328,58,39,0
454.6248,455.08328,55,29,0
454.6248,455.08328,50,29,0
453.72098,455.0881,66,56,0
455.56375,456.00656,50,35,0
455.0881,456.00656,64,60,0
455.56375,456.00656,55,35,0
455.56375,456.00656,58,44,0
456.24185,456.47714,66,66,0
456.91995,457.33957,61,42,0
456.91995,457.33957,58,42,0
456.91995,457.33957,64,52,0
457.344,457.76358,61,42,0
457.344,457.76358,64,55,0
457.344,457.76358,58,42,0
456.47714,457.768,69,69,0
458.21082,458.6246,61,45,0
457.768,458.6246,67,68,0
458.21082,458.6246,64,57,0
458.21082,458.6246,58,45,0
458.6246,459.11844,69,75,0
459.11844,459.56787,38,82,0
459.11844,459.56787,26,70,0
459.56787,460.03357,58,66,0
459.56787,460.03357,50,56,0
460.03357,460.49258,55,56,0
460.03357,460.49258,62,66,0
460.49258,460.93704,67,66,0
460.49258,460.93704,58,56,0
460.93704,461.38147,62,66,0
460.93704,461.38147,55,56,0
461.38147,461.83136,50,67,0
461.38147,461.83136,58,79,0
461.83136,462.27417,38,66,0
461.83136,462.27417,26,56,0
462.27417,462.71698,54,56,0
462.27417,462.71698,60,66,0
462.27417,462.71698,50,56,0
462.71698,463.17093,60,49,0
462.71698,463.17093,54,49,0
462.71698,463.17093,62,59,0
463.17093,463.65723,66,64,0
463.17093,463.65723,60,55,0
463.65723,464.26877,62,69,0
463.65723,464.26877,54,58,0
463.65723,464.26877,60,58,0
464.26877,464.89493,60,73,0
464.26877,464.89493,54,61,0
464.26877,464.89493,50,61,0
464.89493,465.14694,31,73,0
464.89493,465.14694,43,73,0
465.38843,465.63113,58,55,0
465.38843,465.63113,67,66,0
465.38843,465.63113,62,55,0
465.63113,465.75162,46,53,0
465.8721,466.11554,62,53,0
465.8721,466.11554,58,53,0
465.8721,466.11554,67,64,0
466.11554,466.23602,50,57,0
466.3565,466.59912,58,53,0
466.3565,466.59912,62,53,0
466.3565,466.59912,67,64,0
466.59912,466.7196,55,54,0
466.8401,467.08252,67,64,0
466.8401,467.08252,63,53,0
466.8401,467.08252,60,53,0
466.8401,467.08252,57,53,0
467.08252,467.203,45,55,0
467.3235,467.56592,63,53,0
467.3235,467.56592,67,64,0
467.3235,467.56592,60,53,0
467.56592,467.6864,57,55,0
467.80685,468.04813,60,53,0
467.80685,468.04813,62,53,0
467.80685,468.04813,66,64,0
468.04813,468.16965,50,56,0
468.29178,468.53787,62,53,0
468.29178,468.53787,66,63,0
468.29178,468.53787,60,53,0
468.53787,468.6619,57,56,0
468.78653,469.03958,67,66,0
468.78653,469.03958,62,55,0
468.78653,469.03958,55,55,0
469.03958,469.16138,43,53,0
469.28314,469.52838,58,55,0
469.28314,469.52838,67,66,0
469.28314,469.52838,62,55,0
469.52838,469.64984,46,53,0
469.77127,470.0157,62,53,0
469.77127,470.0157,67,64,0
469.77127,470.0157,58,53,0
470.0157,470.13715,50,57,0
470.2586,470.50403,58,53,0
470.2586,470.50403,62,53,0
470.2586,470.50403,67,64,0
470.50403,470.6255,55,54,0
470.74695,470.99237,67,64,0
470.74695,470.99237,63,53,0
470.74695,470.99237,60,53,0
470.74695,470.99237,57,53,0
470.99237,471.11414,45,55,0
471.23593,471.47946,60,53,0
471.23593,471.47946,63,53,0
471.23593,471.47946,67,64,0
471.47946,471.60123,57,55,0
471.72302,471.96655,60,53,0
471.72302,471.96655,66,64,0
471.72302,471.96655,62,53,0
471.96655,472.0885,50,56,0
472.2114,472.46085,66,63,0
472.2114,472.46085,60,53,0
472.2114,472.46085,62,53,0
472.46085,472.58737,57,56,0
472.71512,472.99683,67,63,0
472.71512,472.99683,55,53,0
472.71512,472.99683,62,53,0
473.49225,473.73993,63,56,0
473.49225,473.73993,56,47,0
472.99683,473.73993,48,65,0
473.73993,473.8607,50,63,0
473.98145,474.22296,60,48,0
473.98145,474.22296,62,57,0
473.98145,474.22296,57,48,0
474.22296,474.34372,43,63,0
474.46448,474.7397,62,55,0
474.46448,474.7397,55,47,0
474.46448,474.7397,58,47,0
474.99075,475.48822,56,44,0
474.99075,475.48822,63,53,0
475.48822,475.73694,63,56,0
475.48822,475.73694,56,47,0
474.7397,475.73694,48,65,0
475.73694,475.85822,50,63,0
475.97946,476.222,57,48,0
475.97946,476.222,60,48,0
475.97946,476.222,62,57,0
476.222,476.34326,43,63,0
476.4645,476.71756,62,55,0
476.4645,476.71756,55,47,0
476.4645,476.71756,58,47,0
476.71756,476.8441,47,65,0
476.96667,477.2102,62,51,0
476.96667,477.2102,53,43,0
476.96667,477.2102,56,43,0
477.45377,477.6973,60,50,0
477.2102,477.6973,48,60,0
477.45377,477.6973,56,42,0
477.45377,477.6973,51,42,0
477.94086,478.1844,59,51,0
477.6973,478.1844,50,56,0
477.94086,478.1844,56,43,0
477.94086,478.1844,53,43,0
478.42795,478.6785,56,49,0
478.1844,478.6785,51,56,0
478.6785,478.80026,42,56,0
478.92203,479.1656,63,51,0
478.92203,479.1656,54,43,0
478.92203,479.1656,60,43,0
479.1656,479.40912,58,43,0
479.1656,479.40912,62,53,0
479.1656,479.40912,55,43,0
479.40912,479.5309,43,56,0
479.65268,479.77444,48,56,0
479.89673,480.14078,67,51,0
479.89673,480.14285,63,43,0
479.89673,480.14285,57,43,0
480.39105,480.6414,62,51,0
480.14285,480.6414,50,56,0
480.39105,480.6414,57,43,0
480.39105,480.6414,60,43,0
480.6414,480.77963,62,63,0
480.6414,480.77963,55,53,0
480.64832,480.78656,58,53,0
481.4133,481.661,63,56,0
481.4133,481.661,56,47,0
480.9179,481.661,48,65,0
481.661,481.78177,50,63,0
481.90253,482.14404,60,48,0
481.90253,482.14404,57,48,0
481.90253,482.14404,62,57,0
482.14404,482.2648,43,63,0
482.38553,482.65582,62,55,0
482.38553,482.65582,55,47,0
482.38553,482.65582,58,47,0
483.1577,483.40643,50,72,0
483.40643,483.65518,51,72,0
482.90897,483.65518,63,53,0
482.90897,483.65518,56,44,0
482.65582,483.65518,48,65,0
483.65518,483.77646,50,63,0
483.8977,484.14023,60,48,0
483.8977,484.14023,57,48,0
483.8977,484.14023,62,57,0
484.14023,484.26147,43,63,0
484.38275,484.6358,58,47,0
484.38275,484.6358,55,47,0
484.38275,484.6358,62,55,0
484.6358,484.76233,35,54,0
484.6358,484.76233,47,65,0
484.8849,485.12845,56,43,0
484.8849,485.12845,62,51,0
484.8849,485.12845,53,43,0
485.12845,485.2502,36,51,0
485.12845,485.2502,48,60,0
485.372,485.61554,55,42,0
485.372,485.61554,51,42,0
485.372,485.61554,60,50,0
485.61554,485.7436,50,65,0
485.61554,485.7436,38,54,0
485.86642,486.10995,57,51,0
485.86642,486.10995,54,43,0
486.10995,486.23172,52,60,0
486.10995,486.23172,40,51,0
486.35352,486.59705,55,42,0
486.35352,486.59705,58,50,0
486.59705,486.7235,42,54,0
486.59705,486.7235,54,65,0
486.84607,487.08963,54,43,0
486.84607,487.08963,63,51,0
486.84607,487.08963,60,43,0
487.08963,487.33316,63,51,0
487.08963,487.33316,60,43,0
487.08963,487.33316,55,43,0
487.33316,487.45493,55,58,0
487.33316,487.45493,43,48,0
487.57672,487.7037,56,66,0
487.57672,487.7037,44,55,0
487.82632,488.0699,56,44,0
487.82632,488.0699,67,52,0
487.82632,488.0699,63,44,0
488.0699,488.31345,63,45,0
488.0699,488.31345,67,53,0
488.0699,488.31345,57,45,0
488.31345,488.4352,57,60,0
488.31345,488.4352,45,50,0
488.55698,488.68396,46,57,0
488.55698,488.68396,58,69,0
488.8066,489.05014,66,54,0
488.8066,489.05014,58,46,0
488.8066,489.05014,63,46,0
489.05014,489.2937,63,46,0
489.05014,489.2937,59,46,0
489.05014,489.2937,69,55,0
489.2937,489.41547,59,63,0
489.2937,489.41547,47,52,0
489.53726,489.66425,60,71,0
489.53726,489.66425,48,59,0
489.78687,490.27396,69,56,0
489.78687,490.27396,66,47,0
489.78687,490.27396,62,47,0
489.78687,490.27396,60,47,0
490.27396,490.5265,69,57,0
490.27396,490.5265,60,57,0
490.27396,490.5265,66,48,0
490.27396,490.5265,62,57,0
490.5265,490.65347,46,61,0
490.5265,490.65347,58,74,0
490.77643,491.02234,67,58,0
490.77643,491.02234,62,49,0
490.77643,491.02234,55,49,0
491.02234,491.14526,60,66,0
491.02234,491.14526,48,54,0
491.26822,491.51413,63,54,0
491.26822,491.51413,67,66,0
491.26822,491.51413,57,54,0
491.51413,491.64545,50,61,0
491.51413,491.64545,62,74,0
491.7689,492.01578,62,49,0
491.7689,492.01578,67,49,0
491.7689,492.01578,70,58,0
492.01578,492.13922,60,66,0
492.01578,492.13922,48,54,0
492.26266,492.51578,60,54,0
492.26266,492.51578,66,54,0
492.26266,492.51578,69,66,0
492.26266,492.51578,62,54,0
492.51578,492.6476,58,61,0
492.51578,492.6476,46,52,0
492.77206,493.02094,67,54,0
492.77206,493.02094,55,46,0
492.77206,493.02094,62,46,0
493.02094,493.1454,48,48,0
493.02094,493.1454,60,58,0
493.26984,493.5187,67,57,0
493.26984,493.5187,63,48,0
493.26984,493.5187,57,48,0
493.5187,493.65002,62,68,0
493.5187,493.65002,50,56,0
493.77493,494.0248,62,49,0
493.77493,494.0248,70,58,0
493.77493,494.0248,67,49,0
494.0248,494.14975,60,60,0
494.0248,494.14975,48,51,0
494.2747,494.5315,60,49,0
494.2747,494.5315,62,49,0
494.2747,494.5315,69,49,0
494.2747,494.5315,66,49,0
494.5315,494.66336,46,73,0
494.5315,494.66336,58,87,0
495.0337,495.15714,79,73,0
495.0337,495.15714,86,86,0
495.0337,495.15714,82,73,0
495.15714,495.28058,74,78,0
495.5359,495.65982,67,69,0
495.5359,495.65982,74,81,0
495.5359,495.65982,70,69,0
495.65982,495.78378,62,77,0
496.03168,496.1556,55,70,0
496.03168,496.1556,58,70,0
496.03168,496.1556,62,82,0
496.1556,496.27957,50,74,0
496.53424,496.66272,30,78,0
496.53424,496.66272,42,93,0
496.66272,496.79202,31,69,0
496.66272,496.79202,43,81,0
497.05316,497.18503,49,93,0
497.05316,497.18503,37,78,0
497.18503,497.3178,50,85,0
497.18503,497.3178,38,72,0
497.5862,497.72113,30,78,0
497.5862,497.72113,42,93,0
497.72113,497.85754,31,69,0
497.72113,497.85754,43,81,0
498.13513,498.27963,37,78,0
498.13513,498.27963,49,93,0
498.27963,498.4307,38,72,0
498.27963,498.4307,50,85,0
498.77945,499.53894,26,81,0
498.77945,499.53894,38,97,0
500.628,501.03445,55,69,0
500.628,501.03445,64,69,0
500.628,501.03445,61,69,0
500.628,501.03445,58,69,0
501.03445,501.1708,61,62,0
501.03445,501.1708,58,62,0
501.03445,501.1708,55,62,0
501.03445,501.1708,64,62,0
501.1708,501.7158,61,69,0
501.1708,501.7158,66,69,0
501.1708,501.7158,58,69,0
501.1708,501.7158,55,69,0
501.7158,502.12222,64,69,0
501.7158,502.12222,61,69,0
501.7158,502.12222,55,69,0
501.7158,502.12222,58,69,0
502.12222,502.2586,58,62,0
502.12222,502.2586,64,62,0
502.12222,502.2586,61,62,0
502.12222,502.2586,55,62,0
502.2586,502.79898,66,69,0
502.2586,502.79898,58,69,0
502.2586,502.79898,61,69,0
502.2586,502.79898,55,69,0
502.79898,503.1401,64,69,0
502.79898,503.1401,61,69,0
502.79898,503.1401,55,69,0
502.79898,503.1401,58,69,0
503.34467,505.90643,67,78,0
505.90643,507.51202,66,80,0
503.27676,507.51343,60,70,0
503.2086,507.51343,57,68,0
503.1401,507.51343,50,67,0
509.18182,509.96088,31,115,0
509.96088,510.0459,33,65,0
510.0459,510.13065,34,65,0
510.13065,510.21512,36,66,0
510.21512,510.29935,38,67,0
510.29935,510.3833,40,67,0
510.3833,510.46704,42,68,0
510.46704,510.55048,43,68,0
510.55048,510.63367,45,69,0
510.63367,510.71677,46,69,0
510.71677,510.79987,48,70,0
510.79987,510.88297,50,70,0
510.88297,510.96606,52,71,0
510.96606,511.0493,54,72,0
511.0493,511.13306,55,72,0
511.13306,511.21732,57,73,0
511.21732,511.3021,58,73,0
511.3021,511.38745,60,74,0
511.38745,511.47336,62,74,0
511.47336,511.5598,64,75,0
511.5598,511.64682,66,76,0
511.64682,512.02185,67,83,0
513.14685,514.33105,58,38,0
513.14685,514.33105,31,26,0
513.14685,514.33105,50,31,0
513.14685,514.33105,43,26,0
513.14685,514.33105,55,31,0
514.33105,514.72577,50,31,0
514.33105,514.72577,58,38,0
514.33105,514.72577,31,26,0
514.33105,514.72577,55,31,0
514.33105,514.72577,43,26,0
514.72577,516.1674,50,31,0
514.72577,516.1674,55,31,0
514.72577,516.1674,31,26,0
514.72577,516.1674,43,26,0
514.72577,516.1674,58,38,0
516.4084,516.63995,38,75,0
516.4084,516.63995,50,84,0
516.63995,516.8622,55,80,0
516.63995,516.8622,43,71,0
516.8622,517.0869,57,85,0
516.8622,517.0869,45,77,0
517.0869,517.2997,60,89,0
517.0869,517.2997,48,79,0
517.2997,517.49854,58,83,0
517.2997,517.49854,46,74,0
517.527,517.82697,58,92,0
517.527,517.82697,46,82,0
518.727,519.9784,31,79,0
519.9784,520.06525,33,52,0
520.06525,520.1519,34,52,0
520.1519,520.2384,36,53,0
520.2384,520.32477,38,53,0
520.32477,520.41095,40,54,0
520.41095,520.497,42,54,0
520.497,520.5829,43,55,0
520.5829,520.66864,45,55,0
520.66864,520.75415,46,56,0
520.75415,520.8396,48,56,0
520.8396,520.9248,50,57,0
520.9248,521.00995,52,57,0
521.00995,521.0949,54,58,0
521.0949,521.1797,55,58,0
521.1797,521.26434,57,59,0
521.26434,521.3488,58,60,0
521.3488,521.43317,60,60,0
521.43317,521.51733,62,61,0
521.51733,521.6011,64,61,0
521.6011,521.68475,66,62,0
521.68475,521.7688,67,62,0
521.7688,521.8531,69,63,0
521.8531,521.9377,70,63,0
521.9377,522.0225,72,64,0
522.0225,522.10767,74,64,0
522.10767,522.1931,76,65,0
522.1931,522.2789,78,65,0
522.2789,522.57886,79,70,0
523.4789,524.5632,31,26,0
523.4789,524.5632,43,26,0
524.5632,524.9246,43,26,0
524.5632,524.9246,31,26,0
524.9246,526.2927,43,26,0
524.9246,526.2927,31,26,0
526.5308,526.7635,50,86,0
526.7635,526.9907,55,86,0
526.9907,527.218,58,89,0
527.218,527.4308,63,90,0
527.4308,527.63196,62,86,0
527.6607,528.0082,62,86,0
529.03894,529.34235,46,77,0
528.9565,529.43536,34,74,0
529.52167,529.8158,47,76,0
529.4324,529.8158,35,76,0
529.9895,530.2749,48,75,0
529.903,530.2749,36,75,0
530.4429,530.71106,49,74,0
530.3592,530.71106,37,74,0
530.87024,531.1321,50,73,0
530.7909,531.1321,38,73,0
531.28723,531.5428,51,72,0
531.2099,531.5428,39,75,0
531.6943,531.9438,52,73,0
531.6185,531.9438,40,74,0
532.0919,532.3359,53,72,0
532.01807,532.3359,41,72,0
532.4806,532.71906,54,72,0
532.40845,532.71906,42,72,0
532.86053,533.06067,43,66,0
532.86053,533.06067,55,72,0
533.1199,533.28973,54,72,0
533.1199,533.28973,42,66,0
533.34406,533.5008,53,71,0
533.34406,533.5008,41,65,0
533.551,533.6966,40,64,0
533.551,533.6966,52,70,0
533.7434,533.8792,39,63,0
533.7434,533.8792,51,69,0
533.9225,534.044,38,61,0
533.9225,534.044,50,67,0
534.08203,534.18994,37,60,0
534.08203,534.18994,49,66,0
534.224,534.3209,36,60,0
534.224,534.3209,48,66,0
534.3517,534.4397,47,66,0
534.3517,534.4397,35,60,0
534.4677,534.5484,46,73,0
534.4677,534.5484,34,67,0
534.57513,534.6594,45,79,0
534.57513,534.6594,33,72,0
534.6891,534.7832,44,84,0
534.6891,534.7832,32,77,0
534.8164,535.2331,43,83,0
534.8164,535.2331,31,71,0
535.6498,536.4831,62,80,0
535.6498,536.4831,55,80,0
535.6498,536.4831,67,95,0
536.4831,537.9831,31,80,0
536.4831,537.9831,43,95,0
