start_time,end_time,note_value,velocity,instrument_program_number
0.0010775854,0.087284416,90,99,0
0.08620683,0.17241366,94,76,0
0.17241366,0.2586205,85,69,0
0.2586205,0.34482732,90,93,0
0.34482732,0.43103418,87,79,0
0.43103418,0.517241,90,73,0
0.517241,0.60344785,85,92,0
0.60344785,0.68965465,90,78,0
0.68965465,0.7758615,82,71,0
0.7758615,0.86206836,85,84,0
0.86206836,0.94827515,78,72,0
0.94827515,1.034482,82,68,0
1.034482,1.1206888,78,74,0
1.1206888,1.2068957,82,64,0
1.2068957,1.2931025,73,58,0
1.2931025,1.3793093,78,71,0
1.3793093,1.4655162,75,63,0
1.4655162,1.551723,78,57,0
1.551723,1.6379298,73,69,0
1.6379298,1.7241367,78,56,0
1.7241367,1.8103435,70,56,0
1.8103435,1.8965503,73,67,0
1.8965503,1.9827572,66,55,0
1.9827572,2.068964,70,53,0
2.068964,2.155171,61,74,0
2.155171,2.2413776,73,69,0
2.2413776,2.3275845,68,63,0
2.3275845,2.4137914,73,75,0
2.4137914,2.499998,68,67,0
2.499998,2.586205,80,61,0
2.586205,2.672412,68,75,0
2.672412,2.7586186,80,68,0
2.7586186,2.8448255,75,61,0
2.8448255,2.9310324,80,81,0
2.9310324,3.017239,75,74,0
3.017239,3.103446,87,70,0
3.103446,3.189653,75,82,0
3.189653,3.2758596,87,73,0
3.2758596,3.3620665,80,68,0
3.3620665,3.4482734,87,86,0
3.4482734,3.53448,80,69,0
3.53448,3.620687,92,67,0
3.620687,3.7091825,80,89,0
3.7091825,3.797678,92,77,0
3.797678,3.8861735,85,75,0
3.8861735,3.974669,92,92,0
3.974669,4.0631647,85,83,0
4.0631647,4.15166,97,78,0
4.15166,4.237867,90,96,0
4.237867,4.324074,94,78,0
4.324074,4.4102807,85,75,0
4.4102807,4.496487,90,95,0
4.496487,4.582694,87,77,0
4.582694,4.668901,90,74,0
4.668901,4.755108,85,95,0
4.755108,4.841315,90,76,0
4.841315,4.9275217,82,74,0
4.9275217,5.013728,85,85,0
5.013728,5.099935,78,75,0
5.099935,5.186142,82,70,0
5.186142,5.272349,78,74,0
5.272349,5.358556,82,69,0
5.358556,5.4447627,73,65,0
5.4447627,5.530969,78,74,0
5.530969,5.617176,75,69,0
5.617176,5.703383,78,66,0
5.703383,5.78959,73,74,0
5.78959,5.875797,78,67,0
5.875797,5.9620037,70,70,0
5.9620037,6.04821,73,74,0
6.04821,6.134417,66,65,0
6.134417,6.220624,70,68,0
6.220624,6.306831,63,77,0
6.306831,6.393038,75,69,0
6.393038,6.4792447,68,66,0
6.4792447,6.565451,75,77,0
6.565451,6.651658,68,67,0
6.651658,6.737865,80,71,0
6.737865,6.824072,75,77,0
6.824072,6.910279,80,74,0
6.910279,6.9964857,75,70,0
6.9964857,7.0861716,75,82,0
7.0861716,7.175858,80,73,0
7.175858,7.265544,92,75,0
7.265544,7.3552303,82,88,0
7.3552303,7.4449162,94,78,0
7.4449162,7.5346026,82,70,0
7.5346026,7.6242886,94,81,0
7.6242886,7.713975,82,75,0
7.713975,7.803661,94,70,0
7.803661,7.897119,82,68,0
7.897119,7.990577,94,62,0
7.990577,8.084035,82,53,0
8.084035,8.177493,94,59,0
8.177493,8.270951,82,53,0
8.270951,8.364409,94,45,0
8.365515,8.454011,90,96,0
8.452905,8.5414,94,73,0
8.5414,8.629895,85,67,0
8.629895,8.716103,90,90,0
8.716103,8.802309,87,67,0
8.802309,8.888516,90,59,0
8.888516,8.974723,85,93,0
8.974723,9.060929,90,68,0
9.060929,9.147137,82,66,0
9.147137,9.233343,85,84,0
9.233343,9.3195505,78,66,0
9.3195505,9.405757,82,63,0
9.405757,9.491963,78,74,0
9.491963,9.578171,82,66,0
9.578171,9.664377,73,63,0
9.664377,9.750585,78,68,0
9.750585,9.836791,75,65,0
9.836791,9.922998,78,62,0
9.922998,10.009205,73,74,0
10.009205,10.095411,78,65,0
10.095411,10.181619,70,61,0
10.181619,10.267825,73,74,0
10.267825,10.3540325,66,67,0
10.3540325,10.440239,70,65,0
10.440239,10.526445,61,74,0
10.526445,10.612653,73,71,0
10.612653,10.698859,68,67,0
10.698859,10.785067,73,75,0
10.785067,10.871273,68,70,0
10.871273,10.95748,80,65,0
10.95748,11.043687,68,72,0
11.043687,11.129893,80,70,0
11.129893,11.216101,75,67,0
11.216101,11.302307,80,78,0
11.302307,11.3885145,75,74,0
11.3885145,11.474721,87,72,0
11.474721,11.560927,75,82,0
11.560927,11.647135,87,78,0
11.647135,11.733341,80,78,0
11.733341,11.819549,87,80,0
11.819549,11.905755,80,77,0
11.905755,11.991962,92,73,0
11.991962,12.079681,80,88,0
12.079681,12.1674,92,81,0
12.1674,12.25512,85,73,0
12.25512,12.342839,92,92,0
12.342839,12.430558,85,83,0
12.430558,12.518278,97,83,0
12.518278,12.604485,90,98,0
12.604485,12.690692,94,74,0
12.690692,12.776898,85,70,0
12.776898,12.863106,90,93,0
12.863106,12.949312,87,72,0
12.949312,13.035519,90,73,0
13.035519,13.121726,85,96,0
13.121726,13.207932,90,75,0
13.207932,13.29414,82,68,0
13.29414,13.380346,85,84,0
13.380346,13.466553,78,69,0
13.466553,13.55276,82,64,0
13.55276,13.638967,78,74,0
13.638967,13.725174,82,68,0
13.725174,13.81138,73,62,0
13.81138,13.897588,78,71,0
13.897588,13.983794,75,65,0
13.983794,14.070001,78,67,0
14.070001,14.156208,73,74,0
14.156208,14.242414,78,65,0
14.242414,14.328622,70,59,0
14.328622,14.414828,73,74,0
14.414828,14.501035,66,65,0
14.501035,14.587242,70,59,0
14.587242,14.673449,63,77,0
14.673449,14.759656,75,74,0
14.759656,14.845862,68,67,0
14.845862,14.93207,75,77,0
14.93207,15.018276,68,67,0
15.018276,15.104483,80,70,0
15.104483,15.19069,75,75,0
15.19069,15.276896,80,71,0
15.276896,15.363104,75,67,0
15.363104,15.451992,87,82,0
15.451992,15.540881,80,79,0
15.540881,15.62977,92,74,0
15.62977,15.718658,75,85,0
15.718658,15.807548,87,74,0
15.807548,15.896437,80,71,0
15.896437,15.985325,87,88,0
15.985325,16.074215,73,76,0
16.074215,16.163103,85,72,0
16.163103,16.255695,80,81,0
16.255695,16.348288,85,73,0
16.348288,16.440882,80,67,0
16.440882,16.533474,92,70,0
16.533474,16.626066,85,66,0
16.626066,16.718658,97,64,0
16.718658,16.806765,92,72,0
16.806765,16.89487,94,67,0
16.89487,16.982977,92,61,0
16.982977,17.070312,87,72,0
17.070312,17.157648,99,67,0
17.157648,17.244984,87,58,0
17.244984,17.330454,85,78,0
17.330454,17.415924,87,74,0
17.415924,17.501394,85,68,0
17.501394,17.587603,80,75,0
17.587603,17.67381,92,71,0
17.67381,17.760015,80,66,0
17.760015,17.848122,80,72,0
17.848122,17.936226,82,67,0
17.936226,18.024332,80,65,0
18.024332,18.109438,75,72,0
18.109438,18.194546,87,67,0
18.194546,18.279652,75,67,0
18.279652,18.365858,73,75,0
18.365858,18.452065,75,68,0
18.452065,18.538273,73,67,0
18.538273,18.883099,68,72,0
18.883099,18.969307,75,70,0
18.969307,19.055513,80,67,0
19.055513,19.14362,82,74,0
19.14362,19.231724,80,70,0
19.231724,19.31983,75,67,0
19.31983,19.4053,73,71,0
19.4053,19.49077,80,73,0
19.49077,19.57624,85,72,0
19.57624,19.66171,87,74,0
19.66171,19.74718,85,69,0
19.74718,19.832651,82,67,0
19.832651,19.918121,80,72,0
19.918121,20.003592,87,69,0
20.003592,20.089062,92,67,0
20.089062,20.174532,94,72,0
20.174532,20.260002,92,64,0
20.260002,20.345472,87,59,0
20.345472,20.430943,85,77,0
20.430943,20.516413,92,73,0
20.516413,20.601883,97,68,0
20.601883,20.687353,99,72,0
20.687353,20.772823,97,68,0
20.772823,20.858294,94,68,0
20.858294,20.946012,92,72,0
20.946012,21.033731,94,69,0
21.033731,21.12145,92,63,0
21.12145,21.20917,87,72,0
21.20917,21.29689,99,67,0
21.29689,21.38461,87,72,0
21.38461,21.470816,85,81,0
21.470816,21.557022,87,73,0
21.557022,21.64323,85,67,0
21.64323,21.729437,80,77,0
21.729437,21.815643,92,75,0
21.815643,21.90185,80,67,0
21.90185,21.988056,80,79,0
21.988056,22.074265,82,70,0
22.074265,22.160471,80,65,0
22.160471,22.246677,75,73,0
22.246677,22.332884,87,68,0
22.332884,22.41909,75,65,0
22.41909,22.505299,73,75,0
22.505299,22.591505,75,69,0
22.591505,22.677711,73,63,0
22.677711,23.032906,68,75,0
23.032906,23.120241,80,67,0
23.120241,23.207577,78,64,0
23.207577,23.294912,80,75,0
23.294912,23.38225,78,68,0
23.38225,23.469585,80,65,0
23.469585,23.555792,90,82,0
23.555792,23.641998,80,71,0
23.641998,23.728207,78,65,0
23.728207,23.814413,80,74,0
23.814413,23.90062,78,67,0
23.90062,23.986826,80,64,0
23.986826,24.074932,68,64,0
24.074932,24.163038,80,68,0
24.163038,24.251144,78,63,0
24.251144,24.337723,80,71,0
24.337723,24.424303,78,65,0
24.424303,24.510883,80,62,0
24.510883,24.597464,90,81,0
24.597464,24.684044,80,67,0
24.684044,24.770624,78,63,0
24.770624,24.859514,80,69,0
24.859514,24.948402,78,67,0
24.948402,25.03729,80,64,0
25.03729,25.12618,70,70,0
25.12618,25.215069,82,74,0
25.215069,25.303957,78,66,0
25.303957,25.391294,82,74,0
25.391294,25.47863,78,70,0
25.47863,25.565966,82,66,0
25.565966,25.653301,90,83,0
25.653301,25.740639,82,71,0
25.740639,25.827974,78,68,0
25.827974,25.91531,82,77,0
25.91531,26.002647,78,72,0
26.002647,26.089983,82,67,0
26.089983,26.177319,70,73,0
26.177319,26.264656,82,75,0
26.264656,26.351992,78,72,0
26.351992,26.439327,82,78,0
26.439327,26.526665,78,72,0
26.526665,26.614,82,67,0
26.614,26.701336,90,85,0
26.701336,26.788671,82,74,0
26.788671,26.876009,78,71,0
26.876009,26.963345,82,80,0
26.963345,27.05068,78,77,0
27.05068,27.138018,82,74,0
27.138018,27.226513,78,80,0
27.226513,27.315008,82,77,0
27.315008,27.403503,78,78,0
27.403503,27.491999,94,87,0
27.491999,27.580494,82,76,0
27.580494,27.66899,78,70,0
27.66899,27.756327,92,89,0
27.756327,27.843662,82,70,0
27.843662,27.930998,78,73,0
27.930998,28.018335,90,89,0
28.018335,28.10567,82,78,0
28.10567,28.193007,78,73,0
28.193007,28.280344,85,80,0
28.280344,28.36768,82,73,0
28.36768,28.455015,78,76,0
28.455015,28.54235,94,90,0
28.54235,28.629688,82,76,0
28.629688,28.717024,78,79,0
28.717024,28.80436,92,94,0
28.80436,28.891697,82,77,0
28.891697,28.979033,78,76,0
28.979033,29.066368,90,95,0
29.066368,29.153706,82,76,0
29.153706,29.241041,78,79,0
29.241041,29.328377,73,87,0
29.328377,29.415714,85,78,0
29.415714,29.50305,82,75,0
29.50305,29.590385,85,88,0
29.590385,29.677721,85,75,0
29.677721,29.765059,97,80,0
29.765059,29.852394,94,94,0
29.852394,29.93973,97,77,0
29.93973,30.027067,85,76,0
30.027067,30.114403,85,89,0
30.114403,30.201738,82,77,0
30.201738,30.289076,85,82,0
30.289076,30.376411,73,89,0
30.376411,30.463747,85,85,0
30.463747,30.551083,82,81,0
30.551083,30.63842,85,90,0
30.63842,30.725756,85,85,0
30.725756,30.813091,97,85,0
30.813091,30.900429,94,101,0
30.900429,30.987764,97,86,0
30.987764,31.0751,85,84,0
31.0751,31.162437,85,93,0
31.162437,31.249773,82,85,0
31.249773,31.337109,85,80,0
31.337109,31.425999,73,94,0
31.425999,31.514887,85,85,0
31.514887,31.603775,82,81,0
31.603775,31.692665,85,94,0
31.692665,31.781553,85,84,0
31.781553,31.870441,97,80,0
31.870441,31.959332,92,95,0
31.959332,32.048218,97,85,0
32.048218,32.137108,85,83,0
32.137108,32.225998,85,95,0
32.225998,32.314888,80,90,0
32.314888,32.403774,85,86,0
32.403774,32.495518,73,97,0
32.495518,32.58726,85,90,0
32.58726,32.679005,78,85,0
32.679005,32.77075,85,93,0
32.77075,32.86249,73,87,0
32.86249,32.954235,73,84,0
32.954235,33.04598,66,95,0
33.04598,33.137722,73,90,0
33.137722,33.22946,61,85,0
33.22946,33.327026,61,100,0
33.327026,33.424587,54,89,0
33.424587,33.52215,61,85,0
33.52215,33.61064,51,74,0
33.61064,33.69914,54,71,0
33.69914,33.787632,61,72,0
33.787632,33.87613,63,77,0
33.87613,33.964622,54,70,0
33.964622,34.05312,61,72,0
34.05312,34.141617,63,81,0
34.141617,34.23011,66,78,0
34.23011,34.318607,61,75,0
34.318607,34.4071,63,83,0
34.4071,34.495598,66,77,0
34.495598,34.58409,73,73,0
34.58409,34.67259,63,87,0
34.67259,34.76108,66,80,0
34.76108,34.84958,73,77,0
34.84958,34.938076,75,89,0
34.938076,35.02657,66,78,0
35.02657,35.115067,73,75,0
35.115067,35.20681,75,89,0
35.20681,35.298553,78,78,0
35.298553,35.390293,73,76,0
35.390293,35.482037,75,89,0
35.482037,35.57378,85,78,0
35.57378,35.665524,78,75,0
35.665524,35.75402,75,89,0
35.75402,35.842514,78,81,0
35.842514,35.93101,87,86,0
35.93101,36.01951,85,85,0
36.01951,36.108,78,78,0
36.108,36.1965,75,84,0
36.1965,36.284992,85,81,0
36.284992,36.37349,78,76,0
36.37349,36.461983,75,71,0
36.461983,36.55048,73,78,0
36.55048,36.638973,78,71,0
36.638973,36.72747,75,75,0
36.72747,36.815968,73,74,0
36.815968,36.90446,66,69,0
36.90446,36.992958,75,72,0
36.992958,37.08145,73,71,0
37.08145,37.16995,66,66,0
37.16995,37.258442,63,69,0
37.258442,37.350185,73,67,0
37.350185,37.44193,66,61,0
37.44193,37.533672,63,65,0
37.533672,37.625416,61,64,0
37.625416,37.71716,66,59,0
37.71716,37.808903,63,62,0
37.808903,37.8974,56,52,0
37.8974,37.985893,63,54,0
37.985893,38.07439,66,54,0
38.07439,38.162884,68,56,0
38.162884,38.25138,63,56,0
38.25138,38.339874,66,54,0
38.339874,38.42837,68,58,0
38.42837,38.516865,75,58,0
38.516865,38.605362,66,56,0
38.605362,38.69386,68,60,0
38.69386,38.782352,75,60,0
38.782352,38.87085,78,58,0
38.87085,38.959343,68,62,0
38.959343,39.04784,75,58,0
39.04784,39.136333,78,62,0
39.136333,39.22483,80,62,0
39.22483,39.313328,75,54,0
39.313328,39.40182,78,58,0
39.40182,39.49032,80,62,0
39.49032,39.57881,87,65,0
39.57881,39.66731,78,60,0
39.66731,39.755802,80,62,0
39.755802,39.8443,90,58,0
39.8443,39.932793,87,59,0
39.932793,40.02129,80,59,0
40.02129,40.109787,78,59,0
40.109787,40.19828,87,58,0
40.19828,40.286777,80,58,0
40.286777,40.37527,78,57,0
40.37527,40.463768,75,56,0
40.463768,40.55226,80,56,0
40.55226,40.64076,78,56,0
40.64076,40.729256,75,54,0
40.729256,40.81775,68,54,0
40.81775,40.906246,78,52,0
40.906246,40.99474,75,52,0
40.99474,41.082848,68,52,0
41.082848,41.171146,66,51,0
41.171146,41.259644,75,51,0
41.259644,41.34853,68,50,0
41.34853,41.43762,66,49,0
41.43762,41.526905,63,49,0
41.526905,41.61659,68,48,0
41.61659,41.706882,66,48,0
41.706882,41.798,63,48,0
41.798,41.889534,56,46,0
41.889534,41.981915,66,46,0
41.981915,42.074936,63,44,0
42.074936,42.17194,61,65,0
42.17194,42.268944,73,59,0
42.268944,42.365944,68,55,0
42.365944,42.462948,73,65,0
42.462948,42.55995,65,59,0
42.55995,42.65695,80,58,0
42.65695,42.745293,73,70,0
42.745293,42.83363,80,66,0
42.83363,42.92197,68,66,0
42.92197,43.01031,73,70,0
43.01031,43.098648,68,66,0
43.098648,43.18699,73,62,0
43.18699,43.275326,61,65,0
43.275326,43.363667,73,63,0
43.363667,43.452007,68,58,0
43.452007,43.540344,73,65,0
43.540344,43.628685,68,63,0
43.628685,43.717022,80,57,0
43.717022,43.806976,73,65,0
43.806976,43.896927,80,59,0
43.896927,43.98688,68,55,0
43.98688,44.07683,73,65,0
44.07683,44.166786,68,63,0
44.166786,44.256737,73,58,0
44.256737,44.34964,61,65,0
44.34964,44.442543,73,58,0
44.442543,44.535442,68,56,0
44.535442,44.628345,73,65,0
44.628345,44.72125,73,58,0
44.72125,44.81415,85,55,0
44.81415,44.90249,80,71,0
44.90249,44.99083,85,64,0
44.99083,45.07917,73,62,0
45.07917,45.167507,73,71,0
45.167507,45.255848,68,67,0
45.255848,45.344185,73,62,0
45.344185,45.432526,68,65,0
45.432526,45.520863,80,59,0
45.520863,45.609203,73,54,0
45.609203,45.697544,80,65,0
45.697544,45.78588,80,58,0
45.78588,45.87422,92,59,0
45.87422,45.96458,85,65,0
45.96458,46.05494,92,57,0
46.05494,46.145298,80,60,0
46.145298,46.235657,80,65,0
46.235657,46.326015,73,63,0
46.326015,46.416374,80,56,0
46.416374,46.508537,73,65,0
46.508537,46.600704,75,62,0
46.600704,46.69287,73,57,0
46.69287,46.781364,87,64,0
46.781364,46.86986,85,61,0
46.86986,46.95836,99,61,0
46.95836,47.048855,97,73,0
47.048855,47.13935,99,65,0
47.13935,47.22985,97,66,0
47.22985,47.32454,85,80,0
47.32454,47.419228,87,75,0
47.419228,47.513912,85,70,0
47.513912,47.60553,73,81,0
47.60553,47.697147,75,77,0
47.697147,47.788765,73,73,0
47.788765,47.880383,87,78,0
47.880383,47.972,85,70,0
47.972,48.063618,99,74,0
48.063618,48.15357,97,73,0
48.15357,48.24352,99,70,0
48.24352,48.333473,97,66,0
48.333473,48.42509,85,70,0
48.42509,48.51671,87,67,0
48.51671,48.608322,85,66,0
48.608322,48.701668,97,65,0
48.701668,48.795013,99,65,0
48.795013,48.88836,97,62,0
48.88836,48.97955,85,66,0
48.97955,49.07074,87,69,0
49.07074,49.16193,85,65,0
49.16193,49.255276,97,71,0
49.255276,49.34862,99,68,0
49.34862,49.441963,97,72,0
49.441963,49.53766,85,75,0
49.53766,49.63335,87,72,0
49.63335,49.729046,85,68,0
49.729046,49.825108,97,79,0
49.825108,49.92117,99,75,0
49.92117,50.01723,97,70,0
50.01723,50.113293,85,74,0
50.113293,50.209354,87,69,0
50.209354,50.305416,85,68,0
50.305416,50.401478,97,71,0
50.401478,50.497536,99,67,0
50.497536,50.593597,97,64,0
50.593597,50.696133,85,67,0
50.696133,50.798664,87,66,0
50.798664,50.90173,85,65,0
50.90285,50.99254,90,96,0
50.991417,51.081104,94,70,0
51.081104,51.170788,85,70,0
51.170788,51.256996,90,92,0
51.256996,51.3432,87,74,0
51.3432,51.42941,90,70,0
51.42941,51.515617,85,97,0
51.515617,51.60182,90,74,0
51.60182,51.68803,82,71,0
51.68803,51.774235,85,84,0
51.774235,51.860443,78,73,0
51.860443,51.94665,82,70,0
51.94665,52.032856,78,74,0
52.032856,52.119064,82,69,0
52.119064,52.20527,73,66,0
52.20527,52.291477,78,69,0
52.291477,52.377686,75,66,0
52.377686,52.46389,78,63,0
52.46389,52.5501,73,74,0
52.5501,52.636303,78,68,0
52.636303,52.72251,70,63,0
52.72251,52.80872,73,74,0
52.80872,52.894924,66,64,0
52.894924,52.981133,70,61,0
52.981133,53.067337,61,74,0
53.067337,53.153545,73,72,0
53.153545,53.239754,68,67,0
53.239754,53.32596,73,75,0
53.32596,53.412167,68,66,0
53.412167,53.498375,80,67,0
53.498375,53.58458,68,72,0
53.58458,53.670788,80,73,0
53.670788,53.756992,75,71,0
53.756992,53.8432,80,78,0
53.8432,53.92941,75,76,0
53.92941,54.015614,87,72,0
54.015614,54.10182,75,82,0
54.10182,54.188026,87,77,0
54.188026,54.274235,80,72,0
54.274235,54.360443,87,86,0
54.360443,54.446648,80,74,0
54.446648,54.532856,92,75,0
54.532856,54.62135,80,88,0
54.62135,54.709846,92,81,0
54.709846,54.79834,85,77,0
54.79834,54.886837,92,89,0
54.886837,54.975334,85,85,0
54.975334,55.063828,97,83,0
55.063828,55.150036,90,97,0
55.150036,55.23624,94,74,0
55.23624,55.32245,85,71,0
55.32245,55.408657,90,94,0
55.408657,55.49486,87,75,0
55.49486,55.58107,90,73,0
55.58107,55.667274,85,95,0
55.667274,55.753483,90,76,0
55.753483,55.83969,82,73,0
55.83969,55.925896,85,86,0
55.925896,56.012104,78,77,0
56.012104,56.09831,82,73,0
56.09831,56.184517,78,74,0
56.184517,56.270725,82,66,0
56.270725,56.35693,73,64,0
56.35693,56.44314,78,70,0
56.44314,56.529343,75,67,0
56.529343,56.61555,78,67,0
56.61555,56.70176,73,74,0
56.70176,56.787964,78,62,0
56.787964,56.874172,70,55,0
56.874172,56.960377,73,74,0
56.960377,57.046585,66,64,0
57.046585,57.132793,70,60,0
57.132793,57.218998,63,74,0
57.218998,57.305206,75,71,0
57.305206,57.39141,68,67,0
57.39141,57.47762,75,74,0
57.47762,57.563828,68,72,0
57.563828,57.650032,80,67,0
57.650032,57.73853,70,74,0
57.73853,57.827023,82,85,0
57.827023,57.91552,70,72,0
57.91552,58.004017,82,74,0
58.004017,58.09251,70,70,0
58.09251,58.181007,82,66,0
58.181007,58.27275,75,74,0
58.27275,58.36449,87,70,0
58.36449,58.456234,80,70,0
58.456234,58.547977,87,71,0
58.547977,58.63972,80,69,0
58.63972,58.731464,92,69,0
58.731464,58.823845,82,72,0
58.823845,58.917744,94,79,0
58.917744,59.01344,82,69,0
59.01344,59.110527,94,72,0
59.110527,59.20954,82,72,0
59.20954,59.310555,94,70,0
59.310555,59.399048,82,74,0
59.399048,59.487545,94,72,0
59.487545,59.576042,87,72,0
59.576042,59.662247,94,74,0
59.662247,59.748455,80,69,0
59.748455,59.83466,92,67,0
59.83466,59.920868,80,75,0
59.920868,60.007076,92,73,0
60.007076,60.09328,85,70,0
60.09328,60.17949,92,77,0
60.17949,60.265694,78,69,0
60.265694,60.351902,90,70,0
60.351902,60.43811,73,77,0
60.43811,60.524315,85,72,0
60.524315,60.610523,80,69,0
60.610523,60.696728,85,78,0
60.696728,60.782936,80,72,0
60.782936,60.869144,92,75,0
60.869144,60.95535,78,78,0
60.95535,61.041557,90,74,0
61.041557,61.12776,85,72,0
61.12776,61.21397,90,80,0
61.21397,61.30018,85,74,0
61.30018,61.386383,97,78,0
61.386383,61.47488,82,80,0
61.47488,61.563374,94,74,0
61.563374,61.65187,87,71,0
61.65187,61.738075,94,81,0
61.738075,61.824284,80,79,0
61.824284,61.910492,92,76,0
61.910492,61.996696,80,82,0
61.996696,62.082905,92,76,0
62.082905,62.169113,85,73,0
62.169113,62.255318,92,82,0
62.255318,62.341526,78,74,0
62.341526,62.42773,90,70,0
62.42773,62.51394,73,83,0
62.51394,62.600147,85,74,0
62.600147,62.68635,80,71,0
62.68635,62.77256,85,83,0
62.77256,62.858765,80,76,0
62.858765,62.944973,92,82,0
62.944973,63.03118,78,86,0
63.03118,63.117386,90,76,0
63.117386,63.203594,85,73,0
63.203594,63.2898,90,87,0
63.2898,63.376007,85,79,0
63.376007,63.462215,97,75,0
63.462215,63.55271,82,83,0
63.55271,63.643208,94,74,0
63.643208,63.733707,87,75,0
63.733707,63.821426,94,86,0
63.821426,63.909145,80,77,0
63.909145,63.996864,92,74,0
63.996864,64.08459,82,87,0
64.08459,64.1723,94,80,0
64.1723,64.260025,87,74,0
64.260025,64.34774,94,84,0
64.34774,64.43546,80,78,0
64.43546,64.52318,92,74,0
64.52318,64.61327,82,92,0
64.61327,64.70336,94,85,0
64.70336,64.79345,87,81,0
64.79345,64.88117,94,93,0
64.88117,64.96889,80,85,0
64.96889,65.05661,92,90,0
65.05661,65.144325,82,94,0
65.144325,65.23205,94,86,0
65.23205,65.31977,87,83,0
65.31977,65.40905,94,97,0
65.40905,65.49834,80,80,0
65.49834,65.58762,92,88,0
65.58762,65.67691,85,98,0
65.67691,65.7662,94,90,0
65.7662,65.855484,80,87,0
65.855484,65.94476,92,100,0
65.94476,66.03405,85,90,0
66.03405,66.12334,94,92,0
66.12334,66.21466,80,103,0
66.21466,66.305984,92,93,0
66.305984,66.39731,85,86,0
66.39731,66.48863,94,94,0
66.48863,66.579956,80,90,0
66.579956,66.67128,92,86,0
66.67128,66.7626,85,96,0
66.7626,66.853935,94,91,0
66.853935,66.94526,80,85,0
66.94526,67.03658,92,89,0
67.03658,67.12791,85,82,0
67.12791,67.21923,94,75,0
67.21923,67.308365,80,85,0
67.308365,67.40096,92,77,0
67.40096,67.49553,85,71,0
67.49553,67.59215,94,75,0
67.59215,67.69116,80,68,0
67.69116,67.86487,92,64,0
67.86487,68.03154,99,57,0
68.101944,68.154434,97,57,0
68.154434,68.2574,94,52,0
68.2574,68.35753,92,57,0
68.35753,68.4551,90,57,0
68.4551,68.550224,87,54,0
68.550224,68.64314,85,57,0
68.64314,68.73693,82,57,0
68.73693,68.83206,80,53,0
68.83206,68.92856,78,57,0
68.92856,69.02648,75,57,0
69.02648,69.14993,73,54,0
69.14993,69.72137,68,65,0
69.72137,70.14994,70,69,0
70.14994,70.29279,68,64,0
70.29279,70.810036,66,71,0
70.810036,70.89624,92,63,0
70.89624,70.98245,94,53,0
70.98245,71.06866,92,57,0
71.06866,71.15486,85,59,0
71.15486,71.241066,97,59,0
71.241066,71.32728,85,54,0
71.32728,71.41348,85,63,0
71.41348,71.49969,87,63,0
71.49969,71.5859,85,63,0
71.5859,71.672104,78,58,0
71.672104,71.75831,90,55,0
71.75831,71.84452,78,58,0
71.84452,71.930725,80,63,0
71.930725,72.01693,82,54,0
72.01693,72.103134,80,56,0
72.103134,72.44987,73,78,0
72.44987,72.53797,78,62,0
72.53797,72.626076,80,57,0
72.626076,72.71418,82,66,0
72.71418,72.802284,80,64,0
72.802284,72.89039,78,57,0
72.89039,72.9766,73,62,0
72.9766,73.062805,80,64,0
73.062805,73.14901,85,61,0
73.14901,73.23673,87,67,0
73.23673,73.32445,85,65,0
73.32445,73.41217,80,59,0
73.41217,73.49764,78,66,0
73.49764,73.583115,85,63,0
73.583115,73.66858,90,59,0
73.66858,73.7563,92,64,0
73.7563,73.84402,90,64,0
73.84402,73.93174,87,57,0
73.93174,74.01721,85,70,0
74.01721,74.10268,92,67,0
74.10268,74.18815,97,65,0
74.18815,74.27587,99,74,0
74.27587,74.36359,97,67,0
74.36359,74.45131,92,62,0
74.45131,74.53751,90,62,0
74.53751,74.62372,92,57,0
74.62372,74.70993,90,56,0
74.70993,74.796135,85,63,0
74.796135,74.88234,97,59,0
74.88234,74.96855,85,59,0
74.96855,75.054756,85,63,0
75.054756,75.14096,87,60,0
75.14096,75.22717,85,57,0
75.22717,75.31338,80,59,0
75.31338,75.39958,92,59,0
75.39958,75.48579,80,59,0
75.48579,75.572,80,63,0
75.572,75.6582,82,59,0
75.6582,75.74441,80,55,0
75.74441,75.83252,78,58,0
75.83252,75.92062,90,58,0
75.92062,76.00873,78,55,0
76.00873,76.612175,73,63,0
76.612175,76.69838,78,64,0
76.69838,76.78459,80,62,0
76.78459,76.87231,82,70,0
76.87231,76.96003,80,64,0
76.96003,77.047745,78,61,0
77.047745,77.13322,73,69,0
77.13322,77.21869,80,66,0
77.21869,77.30415,85,64,0
77.30415,77.391495,87,73,0
77.391495,77.47883,85,67,0
77.47883,77.56616,80,65,0
77.56616,77.651634,78,74,0
77.651634,77.73711,85,71,0
77.73711,77.82258,90,70,0
77.82258,77.90991,92,76,0
77.90991,77.997246,90,70,0
77.997246,78.08459,85,70,0
78.08459,78.17079,80,79,0
78.17079,78.256996,85,81,0
78.256996,78.34321,92,78,0
78.34321,78.42941,94,86,0
78.42941,78.51562,92,78,0
78.51562,78.60182,85,74,0
78.60182,78.69032,94,87,0
78.69032,78.77882,85,77,0
78.77882,78.86731,92,71,0
78.86731,78.95581,82,83,0
78.95581,79.044304,92,78,0
79.044304,79.1328,85,70,0
79.1328,79.21976,90,83,0
79.21976,79.30671,82,76,0
79.30671,79.39367,87,72,0
79.39367,79.48062,80,83,0
79.48062,79.56758,85,76,0
79.56758,79.65454,73,72,0
79.65454,79.74149,82,83,0
79.74149,79.82845,73,78,0
79.82845,79.915405,80,74,0
79.915405,80.002365,70,83,0
80.002365,80.08932,80,72,0
80.08932,80.17628,73,72,0
80.17628,80.26323,78,83,0
80.26323,80.35019,70,78,0
80.35019,80.43715,75,74,0
80.43715,80.5241,68,83,0
80.5241,80.61106,73,77,0
80.61106,80.69801,61,76,0
80.69801,80.78497,70,87,0
80.78497,80.871925,61,82,0
80.871925,80.958885,68,77,0
80.958885,81.045845,58,88,0
81.045845,81.1328,68,77,0
81.1328,81.21976,61,81,0
81.21976,81.30671,66,93,0
81.30671,81.39367,58,87,0
81.39367,81.48062,63,86,0
81.48062,81.56758,56,97,0
81.56758,81.65453,61,91,0
81.65453,81.74149,49,88,0
81.74149,81.82845,58,101,0
81.82845,81.915405,54,92,0
81.915405,82.002365,63,87,0
82.002365,82.08932,49,101,0
82.08932,82.17628,61,92,0
82.17628,82.26323,56,86,0
82.26323,82.35019,58,101,0
82.35019,82.43715,54,93,0
82.43715,82.5241,63,89,0
82.5241,82.61106,49,101,0
82.61106,82.69801,61,93,0
82.69801,82.78497,56,89,0
82.78497,83.05046,58,101,0
83.05046,83.13741,58,60,0
83.05046,83.13741,54,48,0
83.13741,83.22437,56,59,0
83.22437,83.311325,54,54,0
83.311325,83.398285,63,50,0
83.311325,83.398285,66,63,0
83.398285,83.48524,61,60,0
83.48524,83.5722,58,56,0
83.5722,83.65916,66,50,0
83.5722,83.65916,70,64,0
83.65916,83.74611,63,62,0
83.74611,83.83307,61,58,0
83.83307,83.92002,73,66,0
83.83307,83.92002,70,52,0
83.92002,84.00698,68,64,0
84.00698,84.09393,66,58,0
84.09393,84.18089,75,55,0
84.09393,84.18089,78,69,0
84.18089,84.26785,73,59,0
84.26785,84.354805,70,59,0
84.354805,84.441765,78,55,0
84.354805,84.441765,82,70,0
84.441765,84.52872,75,65,0
84.52872,84.61568,73,64,0
84.61568,84.70263,82,56,0
84.61568,84.70263,85,71,0
84.70263,84.78959,80,67,0
84.78959,84.87654,78,67,0
84.87654,84.96313,87,58,0
84.87654,84.96313,90,73,0
84.96313,85.049706,85,67,0
85.049706,85.136284,82,65,0
85.136284,85.22286,90,59,0
85.136284,85.22286,94,75,0
85.22286,85.30982,87,69,0
85.30982,85.39678,85,66,0
85.39678,85.483734,87,62,0
85.39678,85.483734,90,78,0
85.483734,85.570694,85,70,0
85.570694,85.65803,82,69,0
85.65803,85.74536,90,62,0
85.65803,85.74536,94,78,0
85.74536,85.8327,87,71,0
85.8327,85.92004,85,70,0
85.92004,86.00775,87,64,0
85.92004,86.00775,90,81,0
86.00775,86.095474,85,74,0
86.095474,86.1832,82,73,0
86.1832,86.27091,90,64,0
86.1832,86.27091,94,81,0
86.27091,86.35902,87,75,0
86.35902,86.44713,85,74,0
86.44713,86.53523,87,65,0
86.44713,86.53523,90,82,0
86.53523,86.62334,85,75,0
86.62334,86.71183,82,75,0
86.71183,86.80032,90,67,0
86.71183,86.80032,94,85,0
86.80032,86.888824,87,77,0
86.888824,86.97732,85,75,0
86.97732,87.107185,90,89,0
86.97732,87.107185,82,89,0
87.21465,87.315285,90,94,0
87.21465,87.315285,78,94,0
87.315285,87.41655,75,94,0
87.315285,87.41655,87,94,0
87.41655,87.51859,73,95,0
87.41655,87.51859,85,95,0
87.51859,87.62142,70,96,0
87.51859,87.62142,82,96,0
87.62142,87.724915,68,97,0
87.62142,87.724915,80,97,0
87.724915,87.829216,66,98,0
87.724915,87.829216,78,98,0
87.829216,87.93434,63,98,0
87.829216,87.93434,75,98,0
87.93434,88.040306,61,100,0
87.93434,88.040306,73,100,0
88.040306,88.14697,58,101,0
88.040306,88.14697,70,101,0
88.14697,88.2545,56,103,0
88.14697,88.2545,68,103,0
88.2545,88.42994,66,111,0
88.2545,88.42994,54,111,0
89.007034,89.79651,82,108,0
89.007034,89.79651,94,118,0
89.007034,89.79651,90,108,0
89.007034,89.79651,85,108,0
89.79651,91.37546,54,112,0
0.0010775854,0.09806027,66,89,0
0.0010775854,0.09806027,54,75,0
0.0010775854,0.09806027,61,75,0
0.0010775854,0.09806027,58,75,0
0.2586205,0.3556032,66,84,0
0.2586205,0.3556032,54,71,0
0.2586205,0.3556032,63,71,0
0.2586205,0.3556032,59,71,0
0.517241,0.61422366,66,89,0
0.517241,0.61422366,54,75,0
0.517241,0.61422366,61,75,0
0.517241,0.61422366,58,75,0
1.034482,1.1314647,54,57,0
1.034482,1.1314647,42,48,0
1.2931025,1.3900852,59,46,0
1.2931025,1.3900852,63,46,0
1.2931025,1.3900852,66,55,0
1.551723,1.6487057,58,48,0
1.551723,1.6487057,61,48,0
1.551723,1.6487057,66,57,0
2.068964,2.1659467,49,56,0
2.068964,2.1659467,37,47,0
2.3275845,2.4245672,56,50,0
2.3275845,2.4245672,61,50,0
2.3275845,2.4245672,65,60,0
2.586205,2.6831877,56,53,0
2.586205,2.6831877,59,53,0
2.586205,2.6831877,63,63,0
2.8448255,2.9418082,44,68,0
3.3620665,3.620687,56,62,0
3.3620665,3.620687,59,62,0
3.3620665,3.620687,63,73,0
3.620687,3.8861735,56,64,0
3.103446,3.8861735,49,70,0
3.620687,3.8861735,61,78,0
3.620687,3.8861735,59,64,0
4.15166,4.248643,54,73,0
4.15166,4.248643,58,73,0
4.15166,4.248643,66,87,0
4.15166,4.248643,61,73,0
4.4102807,4.507263,54,69,0
4.4102807,4.507263,66,82,0
4.4102807,4.507263,63,69,0
4.4102807,4.507263,59,69,0
4.668901,4.765884,54,73,0
4.668901,4.765884,66,87,0
4.668901,4.765884,61,73,0
4.668901,4.765884,58,73,0
5.186142,5.283125,54,56,0
5.186142,5.283125,42,47,0
5.4447627,5.541745,59,40,0
5.4447627,5.541745,63,40,0
5.4447627,5.541745,66,48,0
5.703383,5.800366,58,48,0
5.703383,5.800366,61,48,0
5.703383,5.800366,66,57,0
6.220624,6.4792447,47,66,0
6.4792447,6.9964857,56,60,0
6.4792447,6.9964857,63,71,0
6.9964857,7.2319117,47,64,0
7.265544,7.5009704,62,77,0
7.248728,7.5009704,53,59,0
7.2319117,7.5009704,46,57,0
7.5346026,7.803661,74,71,0
7.5177865,7.803661,65,56,0
7.5009704,7.803661,58,56,0
8.365515,8.465073,54,72,0
8.365515,8.465073,66,86,0
8.365515,8.465073,61,72,0
8.365515,8.465073,58,72,0
8.629895,8.726878,54,64,0
8.629895,8.726878,66,77,0
8.629895,8.726878,63,64,0
8.629895,8.726878,59,64,0
8.888516,8.985498,54,72,0
8.888516,8.985498,66,86,0
8.888516,8.985498,61,72,0
8.888516,8.985498,58,72,0
9.405757,9.50274,42,56,0
9.405757,9.50274,54,56,0
9.664377,9.76136,59,40,0
9.664377,9.76136,63,40,0
9.664377,9.76136,66,48,0
9.922998,10.01998,58,47,0
9.922998,10.01998,61,47,0
9.922998,10.01998,66,56,0
10.440239,10.537222,49,61,0
10.440239,10.537222,37,51,0
10.698859,10.795842,56,51,0
10.698859,10.795842,61,51,0
10.698859,10.795842,65,61,0
10.95748,11.054462,56,52,0
10.95748,11.054462,59,52,0
10.95748,11.054462,63,62,0
11.216101,11.313084,44,66,0
11.733341,11.991962,56,62,0
11.733341,11.991962,59,62,0
11.733341,11.991962,63,73,0
11.991962,12.25512,56,64,0
11.474721,12.25512,49,70,0
11.991962,12.25512,61,78,0
11.991962,12.25512,59,64,0
12.518278,12.615261,54,73,0
12.518278,12.615261,66,87,0
12.518278,12.615261,58,73,0
12.518278,12.615261,61,73,0
12.776898,12.873881,66,81,0
12.776898,12.873881,54,69,0
12.776898,12.873881,63,69,0
12.776898,12.873881,59,69,0
13.035519,13.132502,66,87,0
13.035519,13.132502,54,73,0
13.035519,13.132502,61,73,0
13.035519,13.132502,58,73,0
13.55276,13.649743,54,56,0
13.55276,13.649743,42,47,0
13.81138,13.908363,63,42,0
13.81138,13.908363,66,50,0
13.81138,13.908363,59,42,0
14.070001,14.166984,58,47,0
14.070001,14.166984,61,47,0
14.070001,14.166984,66,56,0
14.587242,14.716552,48,62,0
14.845862,15.363104,56,56,0
14.845862,15.363104,63,68,0
15.363104,15.496437,44,64,0
15.62977,15.7631035,49,78,0
15.896437,16.02977,56,60,0
15.896437,16.02977,65,71,0
16.718658,16.982977,66,52,0
16.718658,16.982977,68,62,0
16.718658,16.982977,60,52,0
16.982977,17.244984,66,50,0
16.982977,17.244984,68,60,0
16.982977,17.244984,56,50,0
17.244984,17.501394,70,68,0
17.244984,17.501394,65,56,0
17.244984,17.501394,61,56,0
17.501394,17.760015,68,59,0
17.501394,17.760015,65,48,0
17.501394,17.760015,56,48,0
17.760015,18.024332,70,62,0
17.760015,18.024332,66,52,0
17.760015,18.024332,60,52,0
18.024332,18.279652,66,59,0
18.024332,18.279652,68,59,0
18.024332,18.279652,56,48,0
18.279652,18.538273,65,68,0
18.279652,18.538273,61,56,0
18.538273,18.796892,56,60,0
18.796892,18.926203,48,62,0
19.055513,19.187672,56,56,0
19.055513,19.187672,63,56,0
19.055513,19.187672,66,68,0
19.31983,19.448036,56,53,0
19.31983,19.448036,61,53,0
19.31983,19.448036,65,63,0
19.57624,19.704445,49,62,0
19.832651,19.960855,44,62,0
20.089062,20.217266,56,48,0
20.089062,20.217266,60,48,0
20.089062,20.217266,66,57,0
20.345472,20.473677,37,62,0
20.601883,20.730087,56,50,0
20.601883,20.730087,61,50,0
20.601883,20.730087,65,60,0
20.858294,21.12145,44,62,0
21.12145,21.38461,66,50,0
21.12145,21.38461,68,60,0
21.12145,21.38461,60,50,0
21.38461,21.64323,70,68,0
21.38461,21.64323,65,56,0
21.38461,21.64323,61,56,0
21.64323,21.90185,68,60,0
21.64323,21.90185,65,50,0
21.64323,21.90185,56,50,0
21.90185,22.160471,70,68,0
21.90185,22.160471,66,56,0
21.90185,22.160471,60,56,0
22.160471,22.41909,66,52,0
22.160471,22.41909,68,62,0
22.160471,22.41909,56,52,0
22.41909,22.677711,65,64,0
22.41909,22.677711,61,55,0
22.677711,22.945568,56,62,0
22.945568,23.076572,48,68,0
23.207577,23.338581,63,52,0
23.207577,23.338581,66,62,0
23.214127,23.34513,56,52,0
23.728207,23.986826,36,70,0
23.986826,24.118984,48,72,0
24.251144,24.381014,66,69,0
24.251144,24.381014,56,57,0
24.251144,24.381014,63,57,0
24.770624,25.03729,48,70,0
24.770624,25.03729,36,59,0
25.03729,25.170624,49,77,0
25.03729,25.170624,37,63,0
25.303957,25.565966,58,62,0
25.303957,25.565966,61,62,0
25.303957,25.565966,66,73,0
25.565966,25.827974,48,73,0
25.565966,25.827974,36,62,0
25.827974,26.089983,49,72,0
25.827974,26.089983,37,61,0
26.089983,26.351992,50,81,0
26.089983,26.351992,38,69,0
26.351992,26.614,58,63,0
26.351992,26.614,66,77,0
26.614,26.876009,49,78,0
26.614,26.876009,37,64,0
26.876009,27.138018,50,75,0
26.876009,27.138018,38,63,0
27.138018,27.403503,51,82,0
27.138018,27.403503,39,70,0
27.403503,27.930998,58,68,0
27.403503,27.930998,66,80,0
27.930998,28.193007,51,81,0
27.930998,28.193007,39,69,0
28.193007,28.455015,52,88,0
28.193007,28.455015,40,73,0
28.455015,28.979033,58,70,0
28.455015,28.979033,66,84,0
28.979033,29.241041,52,85,0
28.979033,29.241041,40,71,0
29.241041,29.372046,53,91,0
29.241041,29.372046,41,78,0
29.50305,29.765059,58,73,0
29.50305,29.765059,61,73,0
29.50305,29.765059,65,88,0
29.765059,30.027067,52,90,0
29.765059,30.027067,40,77,0
30.027067,30.289076,53,90,0
30.027067,30.289076,41,77,0
30.289076,30.42008,54,97,0
30.289076,30.42008,42,82,0
30.551083,30.682087,58,79,0
30.551083,30.682087,64,94,0
30.551083,30.682087,61,79,0
30.813091,31.0751,53,95,0
30.813091,31.0751,41,80,0
31.0751,31.337109,54,91,0
31.0751,31.337109,42,78,0
31.337109,31.603775,55,105,0
31.337109,31.603775,43,89,0
31.603775,31.870441,55,81,0
31.603775,31.870441,61,81,0
31.603775,31.870441,64,96,0
31.870441,32.137108,56,96,0
31.870441,32.137108,44,81,0
32.137108,32.403774,56,81,0
32.137108,32.403774,61,81,0
32.137108,32.403774,65,96,0
32.403774,32.679005,57,103,0
32.403774,32.679005,45,86,0
32.679005,32.954235,57,79,0
32.679005,32.954235,63,79,0
32.679005,32.954235,66,94,0
33.22946,33.52215,45,106,0
33.22946,33.52215,33,89,0
33.52215,34.58409,44,106,0
33.52215,34.58409,32,89,0
35.115067,35.52791,56,83,0
35.115067,35.52791,61,83,0
35.115067,35.52791,66,100,0
35.52791,35.665524,56,77,0
35.52791,35.665524,61,77,0
35.52791,35.665524,66,92,0
35.665524,36.72747,61,83,0
35.665524,36.72747,66,100,0
35.665524,36.72747,56,83,0
37.808903,38.87085,44,62,0
37.808903,38.87085,32,52,0
39.40182,39.800053,68,62,0
39.40182,39.800053,56,52,0
39.40182,39.800053,66,52,0
39.40182,39.800053,60,52,0
39.800053,39.932793,56,48,0
39.800053,39.932793,68,57,0
39.800053,39.932793,66,48,0
39.800053,39.932793,60,48,0
39.932793,40.99474,56,52,0
39.932793,40.99474,68,62,0
39.932793,40.99474,66,52,0
39.932793,40.99474,60,52,0
42.074936,42.22044,37,63,0
42.65695,43.717022,56,59,0
42.65695,43.717022,65,70,0
43.717022,44.121807,55,53,0
43.717022,44.121807,64,63,0
44.121807,44.256737,56,53,0
44.121807,44.256737,65,63,0
44.256737,44.39609,49,63,0
44.81415,45.87422,56,61,0
44.81415,45.87422,65,72,0
45.87422,46.280834,55,63,0
45.87422,46.280834,64,75,0
46.280834,46.416374,65,69,0
46.280834,46.416374,56,57,0
46.416374,46.554623,53,77,0
46.69287,46.95836,61,53,0
46.69287,46.95836,56,53,0
46.69287,46.95836,65,63,0
46.95836,47.22985,66,70,0
46.95836,47.22985,61,59,0
46.95836,47.22985,57,59,0
47.22985,47.513912,67,75,0
47.22985,47.513912,61,62,0
47.22985,47.513912,58,62,0
47.513912,48.063618,68,84,0
47.513912,48.063618,61,70,0
47.513912,48.063618,59,70,0
48.063618,48.333473,67,77,0
48.063618,48.333473,61,64,0
48.063618,48.333473,58,64,0
48.333473,48.608322,66,72,0
48.333473,48.608322,61,61,0
48.333473,48.608322,57,61,0
48.608322,48.74834,65,69,0
48.608322,48.74834,61,57,0
48.608322,48.74834,56,57,0
48.88836,49.025143,49,63,0
49.16193,49.441963,68,66,0
49.441963,49.729046,70,71,0
49.16193,49.729046,65,56,0
49.16193,49.729046,61,56,0
49.16193,49.729046,59,56,0
49.729046,50.305416,71,77,0
50.305416,50.593597,70,72,0
50.593597,50.90173,68,71,0
49.729046,50.90173,59,64,0
49.729046,50.90173,61,64,0
49.729046,50.90173,65,64,0
50.90285,51.00375,58,73,0
50.90285,51.00375,54,73,0
50.90285,51.00375,66,87,0
50.90285,51.00375,61,73,0
51.170788,51.267773,66,83,0
51.170788,51.267773,63,70,0
51.170788,51.267773,59,70,0
51.170788,51.267773,54,70,0
51.42941,51.52639,54,73,0
51.42941,51.52639,61,73,0
51.42941,51.52639,66,87,0
51.42941,51.52639,58,73,0
51.94665,52.043633,54,56,0
51.94665,52.043633,42,47,0
52.20527,52.302254,59,42,0
52.20527,52.302254,63,42,0
52.20527,52.302254,66,51,0
52.46389,52.560875,58,47,0
52.46389,52.560875,61,47,0
52.46389,52.560875,66,56,0
52.981133,53.078114,49,59,0
52.981133,53.078114,37,48,0
53.239754,53.336735,56,48,0
53.239754,53.336735,65,59,0
53.239754,53.336735,61,48,0
53.498375,53.595356,56,50,0
53.498375,53.595356,63,60,0
53.498375,53.595356,59,50,0
53.756992,53.853977,44,62,0
54.274235,54.532856,56,59,0
54.274235,54.532856,59,59,0
54.274235,54.532856,63,70,0
54.532856,54.79834,56,62,0
54.015614,54.79834,49,66,0
54.532856,54.79834,61,73,0
54.532856,54.79834,59,62,0
55.063828,55.160812,66,87,0
55.063828,55.160812,54,73,0
55.063828,55.160812,58,73,0
55.063828,55.160812,61,73,0
55.32245,55.41943,54,69,0
55.32245,55.41943,66,82,0
55.32245,55.41943,63,69,0
55.32245,55.41943,59,69,0
55.58107,55.67805,54,73,0
55.58107,55.67805,61,73,0
55.58107,55.67805,66,87,0
55.58107,55.67805,58,73,0
56.09831,56.195293,54,59,0
56.09831,56.195293,42,48,0
56.35693,56.453915,59,46,0
56.35693,56.453915,63,46,0
56.35693,56.453915,66,55,0
56.61555,56.712532,58,48,0
56.61555,56.712532,61,48,0
56.61555,56.712532,66,59,0
57.132793,57.262104,47,66,0
57.39141,57.650032,56,56,0
57.39141,57.650032,63,66,0
57.650032,57.91552,62,70,0
57.650032,57.91552,58,59,0
57.650032,57.91552,53,59,0
57.91552,58.181007,46,66,0
58.181007,58.318623,47,66,0
58.456234,58.731464,56,56,0
58.456234,58.731464,63,66,0
58.731464,59.01344,62,73,0
58.731464,59.01344,58,62,0
58.731464,59.01344,53,62,0
59.01344,59.15979,46,69,0
59.310555,59.4433,47,80,0
59.576042,59.70535,63,57,0
59.576042,59.70535,59,57,0
59.576042,59.70535,68,69,0
59.83466,59.96397,49,82,0
60.09328,60.22259,58,56,0
60.09328,60.22259,61,56,0
60.09328,60.22259,66,66,0
60.351902,60.481213,47,84,0
60.610523,60.739834,68,71,0
60.610523,60.739834,59,60,0
60.610523,60.739834,65,60,0
60.610523,60.739834,61,60,0
60.869144,60.99845,46,86,0
61.12776,61.257072,66,60,0
61.12776,61.257072,61,60,0
61.12776,61.257072,70,71,0
61.12776,61.257072,58,60,0
61.386383,61.519127,47,88,0
61.65187,61.78118,59,62,0
61.65187,61.78118,63,62,0
61.65187,61.78118,68,73,0
61.910492,62.039803,49,89,0
62.169113,62.29842,58,62,0
62.169113,62.29842,61,62,0
62.169113,62.29842,66,73,0
62.42773,62.55704,47,91,0
62.68635,62.815662,68,75,0
62.68635,62.815662,59,63,0
62.68635,62.815662,65,63,0
62.68635,62.815662,61,63,0
62.944973,63.074284,46,94,0
63.203594,63.332905,70,75,0
63.203594,63.332905,58,63,0
63.203594,63.332905,66,63,0
63.203594,63.332905,61,63,0
63.462215,63.733707,47,94,0
63.733707,64.260025,68,82,0
63.733707,64.260025,56,70,0
63.733707,64.260025,63,70,0
64.260025,64.52318,47,94,0
64.52318,64.79345,48,104,0
64.79345,65.31977,56,71,0
64.79345,65.31977,68,85,0
64.79345,65.31977,63,71,0
64.79345,65.31977,66,71,0
65.31977,65.58762,48,100,0
65.58762,65.855484,49,106,0
66.12334,66.67128,68,92,0
66.12334,66.67128,61,77,0
66.12334,66.67128,66,77,0
66.12334,66.67128,56,77,0
66.67128,67.21923,68,79,0
66.67128,67.21923,66,79,0
66.67128,67.21923,73,94,0
67.74142,67.77228,37,47,0
67.86487,69.14993,66,56,0
67.77228,69.14993,49,47,0
67.80315,69.14993,56,47,0
67.83401,69.14993,61,47,0
69.14993,69.72137,63,47,0
69.14993,69.72137,66,56,0
69.72137,70.29279,61,47,0
69.14993,70.29279,56,30,0
69.14993,70.29279,59,30,0
69.14993,70.29279,49,30,0
69.14993,70.29279,49,56,0
69.72137,70.29279,65,56,0
70.29279,70.551414,66,59,0
70.29279,70.551414,58,48,0
70.551414,70.810036,61,44,0
70.810036,71.06866,68,60,0
70.810036,71.06866,59,50,0
71.06866,71.32728,65,52,0
71.06866,71.32728,56,44,0
70.29279,71.32728,54,48,0
71.32728,71.5859,58,50,0
71.32728,71.5859,66,60,0
71.5859,71.84452,61,42,0
71.84452,72.103134,68,60,0
71.84452,72.103134,59,50,0
72.103134,72.361755,56,42,0
72.103134,72.361755,65,51,0
71.32728,72.361755,54,50,0
72.361755,72.626076,58,53,0
72.361755,72.626076,66,63,0
72.361755,72.626076,54,53,0
72.89039,73.14901,59,53,0
72.89039,73.14901,53,53,0
72.89039,73.14901,63,63,0
73.14901,73.41217,61,57,0
73.14901,73.41217,49,48,0
73.41217,73.66858,54,56,0
73.41217,73.66858,58,56,0
73.41217,73.66858,63,66,0
73.66858,73.93174,61,59,0
73.66858,73.93174,49,48,0
73.93174,74.18815,63,68,0
73.93174,74.18815,53,56,0
73.93174,74.18815,59,56,0
74.18815,74.45131,49,52,0
74.18815,74.45131,61,62,0
74.45131,74.70993,58,48,0
74.45131,74.70993,66,59,0
74.70993,74.96855,61,45,0
74.96855,75.22717,59,50,0
74.96855,75.22717,68,60,0
75.22717,75.48579,65,55,0
75.22717,75.48579,56,46,0
74.45131,75.48579,54,48,0
75.48579,75.74441,66,61,0
75.48579,75.74441,58,51,0
75.74441,76.00873,61,46,0
76.00873,76.26735,68,61,0
76.00873,76.26735,59,51,0
76.26735,76.52597,65,56,0
76.26735,76.52597,56,47,0
75.48579,76.52597,54,51,0
76.52597,76.78459,54,55,0
76.52597,76.78459,66,64,0
76.52597,76.78459,58,55,0
76.78459,77.047745,61,59,0
77.047745,77.30415,53,59,0
77.047745,77.30415,59,59,0
77.047745,77.30415,63,70,0
77.30415,77.56616,61,63,0
77.30415,77.56616,49,53,0
77.56616,77.82258,58,66,0
77.56616,77.82258,63,79,0
77.56616,77.82258,54,66,0
77.82258,78.08459,49,61,0
77.82258,78.08459,61,72,0
78.08459,78.34321,63,84,0
78.08459,78.34321,59,70,0
78.08459,78.34321,53,70,0
78.34321,78.569496,49,69,0
78.34321,78.569496,61,81,0
78.60182,79.1328,70,90,0
78.58566,79.1328,61,70,0
78.569496,79.1328,54,68,0
79.39367,79.65454,65,94,0
79.39367,79.65454,49,79,0
79.39367,79.65454,59,79,0
79.39367,79.65454,56,79,0
79.65454,80.17628,66,90,0
79.65454,80.17628,58,77,0
79.65454,80.17628,54,77,0
80.43715,80.69801,53,93,0
80.43715,80.69801,47,78,0
80.43715,80.69801,37,78,0
80.69801,81.21976,54,89,0
80.69801,81.21976,46,75,0
80.69801,81.21976,42,75,0
81.48062,81.74149,37,80,0
81.74149,82.002365,42,85,0
81.74149,82.002365,30,71,0
82.002365,82.26323,37,80,0
82.002365,82.26323,25,68,0
82.26323,82.5241,42,85,0
82.26323,82.5241,30,71,0
82.5241,82.78497,37,80,0
82.5241,82.78497,25,68,0
82.78497,83.05046,42,85,0
82.78497,83.05046,30,71,0
83.5722,83.65916,42,53,0
83.65916,83.74611,49,48,0
83.74611,83.83307,58,46,0
83.83307,83.92002,42,56,0
83.92002,84.00698,49,51,0
84.00698,84.09393,58,49,0
84.09393,84.18089,46,57,0
84.18089,84.26785,54,52,0
84.26785,84.354805,61,49,0
84.354805,84.441765,49,59,0
84.441765,84.52872,58,52,0
84.52872,84.61568,66,51,0
84.61568,84.70263,54,61,0
84.70263,84.78959,61,54,0
84.78959,84.87654,70,51,0
84.87654,84.96313,58,61,0
84.96313,85.049706,66,56,0
85.049706,85.136284,73,54,0
85.136284,85.22286,61,65,0
85.22286,85.30982,70,58,0
85.30982,85.39678,78,56,0
85.39678,85.483734,66,67,0
85.483734,85.570694,70,59,0
85.570694,85.65803,78,58,0
85.65803,85.74536,61,68,0
85.74536,85.8327,73,60,0
85.8327,85.92004,78,59,0
85.92004,86.00775,66,72,0
86.00775,86.095474,70,61,0
86.095474,86.1832,78,59,0
86.1832,86.27091,61,72,0
86.27091,86.35902,70,65,0
86.35902,86.44713,78,63,0
86.44713,86.53523,66,73,0
86.53523,86.62334,70,67,0
86.62334,86.71183,78,66,0
86.71183,86.80032,61,75,0
86.80032,86.888824,70,69,0
86.888824,86.97732,78,69,0
86.97732,87.107185,66,81,0
87.21465,87.315285,66,87,0
87.21465,87.315285,54,87,0
87.315285,87.41655,51,83,0
87.315285,87.41655,63,83,0
87.41655,87.51859,49,85,0
87.41655,87.51859,61,85,0
87.51859,87.62142,46,86,0
87.51859,87.62142,58,86,0
87.62142,87.724915,44,86,0
87.62142,87.724915,56,86,0
87.724915,87.829216,42,87,0
87.724915,87.829216,54,87,0
87.829216,87.93434,39,88,0
87.829216,87.93434,51,88,0
87.93434,88.040306,49,89,0
87.93434,88.040306,37,89,0
88.040306,88.14697,46,89,0
88.040306,88.14697,34,89,0
88.14697,88.2545,44,92,0
88.14697,88.2545,32,92,0
88.2545,88.42994,42,99,0
88.2545,88.42994,30,99,0
89.007034,89.79651,70,108,0
88.9613,89.79651,61,98,0
88.915565,89.79651,54,93,0
89.79651,91.37546,42,102,0
89.79651,91.37546,30,102,0
