start_time,end_time,note_value,velocity,instrument_program_number
0.0,0.8076915,82,64,73
0.923076,1.5288446,77,64,73
1.615383,1.7175463,86,64,73
1.846152,2.0504787,82,64,73
2.538459,2.6538434,86,64,73
2.6538434,2.7548048,89,64,73
2.769228,2.8846126,87,64,73
2.8846126,2.999997,86,64,73
2.999997,3.1153815,84,64,73
3.1153815,3.216343,82,64,73
3.230766,3.3461504,81,64,73
3.3461504,3.461535,82,64,73
3.461535,3.5769196,84,64,73
3.5769196,3.677881,81,64,73
3.692304,3.8966308,77,64,73
4.153842,4.3581686,77,64,73
4.61538,4.6706686,79,64,73
4.6730723,4.7307644,77,64,73
4.7307644,4.788457,79,64,73
4.788457,4.846149,77,64,73
4.846149,4.903841,79,64,73
4.903841,4.9615335,77,64,73
4.9615335,5.0192256,79,64,73
5.0192256,5.076918,77,64,73
5.076918,5.13461,79,64,73
5.13461,5.1923027,77,64,73
5.1923027,5.2499948,79,64,73
5.2499948,5.307687,77,64,73
5.307687,5.4230714,79,64,73
5.4230714,5.524033,81,64,73
5.538456,5.9423018,82,64,73
6.230763,6.3461475,86,64,73
6.3461475,6.4471087,89,64,73
6.461532,6.5769167,87,64,73
6.5769167,6.692301,86,64,73
6.692301,6.8076854,84,64,73
6.8076854,6.908647,82,64,73
6.92307,7.0384545,81,64,73
7.0384545,7.153839,82,64,73
7.153839,7.2692237,84,64,73
7.2692237,7.370185,81,64,73
7.384608,7.588935,77,64,73
7.846146,8.050472,77,64,73
8.307684,8.362972,79,64,73
8.365376,8.423068,77,64,73
8.423068,8.480761,79,64,73
8.480761,8.538453,77,64,73
8.538453,8.596146,79,64,73
8.596146,8.653837,77,64,73
8.653837,8.71153,79,64,73
8.71153,8.769222,77,64,73
8.769222,8.826914,79,64,73
8.826914,8.884606,77,64,73
8.884606,8.942299,79,64,73
8.942299,8.999991,77,64,73
8.999991,9.1153755,79,64,73
9.1153755,9.216337,81,64,73
9.23076,9.332923,82,64,73
9.461529,9.563692,77,64,73
9.692298,9.794461,77,64,73
9.923067,10.02523,77,64,73
10.153836,10.256,77,64,73
10.384605,10.486769,77,64,73
10.615374,10.717537,77,64,73
10.846143,10.948306,77,64,73
11.076912,11.179075,77,64,73
11.307681,11.409844,77,64,73
11.53845,11.640614,77,64,73
11.769219,11.871383,77,64,73
11.999988,12.102151,77,64,73
12.230757,12.33292,77,64,73
12.461526,12.563689,77,64,73
12.692295,12.794458,77,64,73
12.923064,13.025228,75,64,73
13.153833,13.255997,75,64,73
13.384602,13.486765,75,64,73
13.615371,13.717534,75,64,73
13.84614,13.948303,74,64,73
14.076909,14.179072,74,64,73
14.307678,14.409842,74,64,73
14.538447,14.640611,74,64,73
15.230754,16.038446,82,64,73
16.15383,16.358156,70,64,73
17.076906,17.538445,69,64,73
17.538445,17.94229,70,64,73
17.999983,18.20431,74,64,73
20.76921,21.576902,72,64,73
21.692286,22.096132,70,64,73
22.615362,23.074495,77,64,73
23.0769,23.536034,77,64,73
23.538439,23.97113,77,64,73
23.999975,25.211514,77,64,73
25.846128,27.461512,77,64,73
28.153818,28.358145,79,64,73
28.615356,28.819683,79,64,73
31.615353,31.717516,77,64,73
31.846123,31.948286,77,64,73
32.076893,32.179054,77,64,73
32.30766,32.408623,74,64,73
32.423046,32.524006,70,64,73
32.53843,32.63939,72,64,73
32.653812,32.754776,74,64,73
32.7692,32.87016,75,64,73
32.884583,32.985542,77,64,73
32.999966,33.10093,79,64,73
33.115353,33.216312,81,64,73
33.230736,34.03843,82,64,73
34.153812,34.759583,77,64,73
34.84612,34.948284,86,64,73
35.07689,35.281216,82,64,73
35.769196,35.88458,86,64,73
35.88458,35.985542,89,64,73
35.999966,36.11535,87,64,73
36.11535,36.230732,86,64,73
36.230732,36.34612,84,64,73
36.34612,36.44708,82,64,73
36.461502,36.576885,81,64,73
36.576885,36.692272,82,64,73
36.692272,36.807655,84,64,73
36.807655,36.908615,81,64,73
36.92304,37.127365,77,64,73
37.38458,37.588905,77,64,73
37.846115,37.901405,79,64,73
37.90381,37.961502,77,64,73
37.961502,38.01919,79,64,73
38.01919,38.076885,77,64,73
38.076885,38.13458,79,64,73
38.13458,38.19227,77,64,73
38.19227,38.24996,79,64,73
38.24996,38.307655,77,64,73
38.307655,38.365345,79,64,73
38.365345,38.42304,77,64,73
38.42304,38.480732,79,64,73
38.480732,38.53842,77,64,73
38.53842,38.65381,79,64,73
38.65381,38.75477,81,64,73
38.76919,39.17304,82,64,73
39.4615,39.576885,86,64,73
39.576885,39.677845,89,64,73
39.69227,39.80765,87,64,73
39.80765,39.92304,86,64,73
39.92304,40.03842,84,64,73
40.03842,40.13938,82,64,73
40.153805,40.26919,81,64,73
40.26919,40.384575,82,64,73
40.384575,40.499958,84,64,73
40.499958,40.60092,81,64,73
40.615345,40.81967,79,64,73
41.07688,41.281208,79,64,73
41.53842,41.59611,79,64,73
41.59611,41.653805,77,64,73
41.653805,41.7115,79,64,73
41.7115,41.769188,77,64,73
41.769188,41.82688,79,64,73
41.82688,41.884575,77,64,73
41.884575,41.942265,79,64,73
41.942265,41.999958,77,64,73
41.999958,42.05765,79,64,73
42.05765,42.11534,77,64,73
42.11534,42.173035,79,64,73
42.173035,42.23073,77,64,73
42.23073,42.34611,76,64,73
42.34611,42.44707,74,64,73
42.461494,42.86534,72,64,73
44.769184,45.230724,72,64,73
45.230724,45.69226,64,64,73
45.69226,46.096107,65,64,73
46.1538,46.358128,67,64,73
46.615337,46.819664,67,64,73
47.076878,47.281204,67,64,73
47.538414,47.74274,67,64,73
48.46149,49.26918,70,64,73
49.384567,49.588894,67,64,73
50.307644,50.76918,76,64,73
50.76918,51.173027,77,64,73
58.615326,58.91821,79,64,73
58.96148,59.062443,79,64,73
59.076862,59.769173,79,64,73
59.769173,59.971092,77,64,73
59.99994,60.204266,76,64,73
60.46148,60.764362,82,64,73
60.807632,60.908592,82,64,73
60.923016,61.615322,82,64,73
61.615322,61.817245,81,64,73
61.846092,62.05042,79,64,73
62.30763,62.610516,86,64,73
62.65378,62.754745,86,64,73
62.76917,62.999935,86,64,73
62.999935,63.20186,84,64,73
63.230705,64.0384,84,64,73
64.153786,64.21147,84,64,73
64.21147,64.269165,82,64,73
64.269165,64.32686,84,64,73
64.32686,64.38455,82,64,73
64.38455,64.49994,81,64,73
64.49994,64.6009,82,64,73
64.61532,64.71748,81,64,73
64.84609,64.94705,77,64,73
64.96147,65.06243,79,64,73
65.07686,65.17782,81,64,73
65.192245,65.293205,77,64,73
65.307625,65.40859,79,64,73
65.42301,65.52397,81,64,73
65.5384,65.63936,82,64,73
65.65378,65.754745,79,64,73
65.769165,65.870125,81,64,73
65.88455,65.98551,82,64,73
65.99993,66.1009,84,64,73
66.11532,66.21628,81,64,73
66.230705,66.331665,82,64,73
66.346085,66.44705,84,64,73
66.46147,66.56243,86,64,73
66.57686,66.67782,85,64,73
66.69224,66.793205,86,64,73
66.807625,66.908585,85,64,73
66.92301,67.02397,86,64,73
67.03839,67.13936,85,64,73
67.15378,67.25474,86,64,73
67.269165,67.370125,85,64,73
67.384544,67.48551,86,64,73
67.49993,67.60089,84,64,73
67.61532,67.71628,82,64,73
67.730705,67.831665,81,64,73
67.846085,67.947044,79,64,73
67.96147,68.06243,77,64,73
68.07686,68.17782,76,64,73
68.19224,68.2932,74,64,73
68.307625,68.509544,72,64,73
68.53839,68.65378,74,64,73
68.65378,68.769165,76,64,73
68.769165,68.884544,77,64,73
68.884544,68.99993,79,64,73
68.99993,69.11532,81,64,73
69.11532,69.21628,82,64,73
69.2307,69.33286,84,64,73
69.46147,69.56363,86,64,73
69.69224,69.7944,88,64,73
69.923004,70.02517,89,64,73
70.15378,70.557625,79,64,73
70.846085,70.961464,81,64,73
70.961464,71.06243,78,64,73
71.07685,71.4807,79,64,73
71.76916,71.884544,81,64,73
71.884544,71.985504,78,64,73
71.99993,72.10089,79,64,73
72.11531,72.21627,74,64,73
72.2307,72.33166,76,64,73
72.346085,72.447044,78,64,73
72.461464,72.56242,79,64,73
72.57685,72.67781,78,64,73
72.69224,72.7932,79,64,73
72.80762,72.908585,81,64,73
72.923004,73.03839,82,64,73
73.03839,73.15377,81,64,73
73.15377,73.26916,79,64,73
73.26916,73.384544,77,64,73
73.384544,73.49992,76,64,73
73.49992,73.61531,74,64,73
73.61531,73.7307,72,64,73
73.7307,73.83166,70,64,73
73.84608,73.94824,69,64,73
74.07685,74.179016,72,64,73
74.30762,74.40978,77,64,73
74.53838,74.64055,81,64,73
74.76916,74.97348,84,64,73
81.69222,82.15136,72,64,73
82.15376,82.6129,72,64,73
82.6153,83.048,72,64,73
83.07684,87.89414,72,64,73
87.92299,88.025154,77,64,73
88.153755,88.25592,77,64,73
88.38453,88.48669,77,64,73
88.615295,89.01914,77,64,73
90.92299,91.38452,77,64,73
91.38452,91.84606,74,64,73
91.84606,92.24991,82,64,73
92.769135,93.230675,77,64,73
93.230675,93.692215,72,64,73
93.692215,94.09606,81,64,73
94.38452,94.48669,67,64,73
94.61529,94.71745,72,64,73
94.84606,94.94822,76,64,73
95.07683,95.17899,79,64,73
95.307594,95.40976,84,64,73
95.53837,95.640526,72,64,73
95.769135,95.8713,76,64,73
95.9999,96.40375,77,64,73
99.92297,100.03836,86,64,73
100.03836,100.13932,85,64,73
100.15375,100.25591,86,64,73
100.384514,100.4999,86,64,73
100.4999,100.60086,85,64,73
100.61529,100.717445,86,64,73
100.846054,100.96144,86,64,73
100.96144,101.0624,85,64,73
101.07682,101.19221,86,64,73
101.19221,101.307594,85,64,73
101.307594,101.42297,86,64,73
101.42297,101.52393,85,64,73
101.53836,101.640526,86,64,73
101.76913,101.87129,84,64,73
101.9999,102.10206,82,64,73
102.23067,102.33283,81,64,73
102.46143,102.5636,79,64,73
102.69221,102.794365,77,64,73
102.92297,103.02514,76,64,73
103.15374,103.255905,74,64,73
103.384514,104.99989,72,64,73
105.23067,106.15374,77,64,73
106.15374,106.96143,81,64,73
107.07681,107.1922,79,64,73
107.1922,107.30759,77,64,73
107.30759,107.422966,76,64,73
107.422966,107.52393,77,64,73
107.53835,107.63931,79,64,73
107.65374,107.7547,81,64,73
107.76912,107.87009,82,64,73
107.88451,107.985466,81,64,73
107.99989,108.11528,79,64,73
108.11528,108.23066,77,64,73
108.23066,108.34605,76,64,73
108.34605,108.44701,77,64,73
108.46143,108.56239,79,64,73
108.57681,108.67777,81,64,73
108.6922,108.79316,82,64,73
108.80759,108.90855,81,64,73
108.922966,109.03835,79,64,73
109.03835,109.15374,77,64,73
109.15374,109.26912,76,64,73
109.26912,109.37009,77,64,73
109.38451,109.49989,79,64,73
109.49989,109.61527,81,64,73
109.61527,109.73066,82,64,73
109.73066,109.83162,84,64,73
109.84605,109.948204,86,64,73
110.07681,110.17898,86,64,73
110.30758,110.409744,84,64,73
110.53835,110.64051,82,64,73
110.76912,111.172966,81,64,73
114.69219,114.80758,86,64,73
114.80758,114.90854,85,64,73
114.92296,115.02512,86,64,73
115.15373,115.26912,86,64,73
115.26912,115.37008,85,64,73
115.3845,115.486664,86,64,73
115.61527,115.73065,86,64,73
115.73065,115.83161,85,64,73
115.84604,115.961426,86,64,73
115.961426,116.076805,85,64,73
116.076805,116.19219,86,64,73
116.19219,116.29315,85,64,73
116.30758,116.40974,86,64,73
116.538345,116.64051,84,64,73
116.76911,116.87128,82,64,73
116.999886,117.10204,81,64,73
117.23065,117.33282,79,64,73
117.46142,117.56358,77,64,73
117.69219,117.79435,76,64,73
117.92296,118.02512,74,64,73
118.153725,119.76911,72,64,73
119.99988,120.92296,77,64,73
120.92296,121.730644,81,64,73
121.84603,121.96142,79,64,73
121.96142,122.0768,77,64,73
122.0768,122.192184,76,64,73
122.192184,122.293144,77,64,73
122.30757,122.40853,79,64,73
122.42295,122.52392,81,64,73
122.53834,122.6393,82,64,73
122.653725,122.754684,81,64,73
122.76911,122.88449,79,64,73
122.88449,122.99988,77,64,73
122.99988,123.115265,76,64,73
123.115265,123.216225,77,64,73
123.230644,123.331604,79,64,73
123.34603,123.44699,81,64,73
123.46142,123.56238,82,64,73
123.5768,123.67776,81,64,73
123.692184,123.80757,79,64,73
123.80757,123.92295,77,64,73
123.92295,124.03834,76,64,73
124.03834,124.1393,74,64,73
124.153725,124.269104,76,64,73
124.269104,124.38449,77,64,73
124.38449,124.49988,79,64,73
124.49988,124.60084,81,64,73
124.61526,125.53834,82,64,73
125.53834,125.942184,81,64,73
127.38449,129.43256,77,64,73
129.46141,129.5768,72,64,73
129.5768,129.67775,77,64,73
129.69218,129.79434,81,64,73
129.92294,130.02512,77,64,73
130.15372,130.38449,76,64,73
130.38449,130.58641,79,64,73
130.61525,130.71742,72,64,73
130.84602,130.94818,72,64,73
131.0768,131.99986,72,64,73
131.99986,132.92294,74,64,73
132.92294,133.73064,72,64,73
133.84602,134.07678,73,64,73
134.07678,134.27872,74,64,73
134.30756,134.51189,72,64,73
134.76909,135.69217,72,64,73
135.69217,136.61525,74,64,73
136.61525,137.42294,72,64,73
137.53833,137.76909,73,64,73
137.76909,137.97101,74,64,73
137.99986,138.2042,72,64,73
138.4614,139.06717,72,64,73
139.1537,139.35564,77,64,73
139.38448,139.61525,78,64,73
139.61525,139.81717,79,64,73
139.84601,139.94818,79,64,73
140.07678,140.17894,79,64,73
140.30756,140.53831,76,64,73
140.53831,140.74025,77,64,73
140.76909,140.87125,77,64,73
140.99986,141.10202,77,64,73
141.23062,141.4614,82,64,73
141.4614,141.69217,79,64,73
141.69217,141.92293,74,64,73
141.92293,142.12486,76,64,73
142.1537,142.38448,79,64,73
142.38448,142.5864,77,64,73
142.61523,142.7174,77,64,73
142.84601,142.94818,77,64,73
143.07678,143.30756,82,64,73
143.30756,143.53831,79,64,73
143.53831,143.76909,74,64,73
143.76909,143.97101,76,64,73
143.99986,144.23062,79,64,73
144.23062,144.43254,77,64,73
144.4614,144.56355,77,64,73
144.69217,144.79433,77,64,73
144.92293,145.1537,82,64,73
145.1537,145.38448,79,64,73
145.38448,145.61523,74,64,73
145.61523,145.81717,76,64,73
145.84601,146.24985,77,64,73
146.30754,146.61043,81,64,73
146.6537,146.75465,81,64,73
146.76909,147.17293,77,64,73
147.69215,148.49985,74,64,73
148.61523,149.22101,69,64,73
149.30754,149.40971,77,64,73
149.53831,149.74265,74,64,73
150.23062,150.34601,77,64,73
150.34601,150.44696,81,64,73
150.4614,150.57677,79,64,73
150.57677,150.69215,77,64,73
150.69215,150.80754,76,64,73
150.80754,150.90851,74,64,73
150.92293,151.03831,73,64,73
151.03831,151.1537,74,64,73
151.1537,151.26907,76,64,73
151.26907,151.37004,73,64,73
151.38446,151.58879,69,64,73
151.84601,152.05032,69,64,73
152.30754,152.65369,81,64,73
152.65369,152.76907,82,64,73
152.76907,153.11523,79,64,73
153.11523,153.21619,81,64,73
153.23062,153.63446,77,64,73
153.92293,154.03831,77,64,73
154.03831,154.13927,81,64,73
154.15369,154.26907,79,64,73
154.26907,154.38446,77,64,73
154.38446,154.49985,76,64,73
154.49985,154.6008,74,64,73
154.61523,154.73062,73,64,73
154.73062,154.846,74,64,73
154.846,154.96138,76,64,73
154.96138,155.06235,73,64,73
155.07677,155.2811,69,64,73
155.5383,155.74263,69,64,73
155.99985,156.05754,82,64,73
156.05754,156.11523,81,64,73
156.11523,156.17293,82,64,73
156.17293,156.2306,81,64,73
156.2306,156.2883,82,64,73
156.2883,156.346,81,64,73
156.346,156.40369,82,64,73
156.40369,156.46138,81,64,73
156.46138,156.51907,82,64,73
156.51907,156.57677,81,64,73
156.57677,156.63446,82,64,73
156.63446,156.69215,81,64,73
156.69215,156.80754,79,64,73
156.80754,156.9085,81,64,73
156.92291,157.7306,82,64,73
157.846,158.45177,77,64,73
158.5383,158.64047,86,64,73
158.76907,158.9734,82,64,73
159.46138,159.57677,86,64,73
159.57677,159.67772,89,64,73
159.69215,159.80753,87,64,73
159.80753,159.92291,86,64,73
159.92291,160.0383,84,64,73
160.0383,160.13927,82,64,73
160.15369,160.26907,81,64,73
160.26907,160.38446,82,64,73
160.38446,160.49983,84,64,73
160.49983,160.6008,81,64,73
160.61522,160.81955,77,64,73
161.07677,161.28108,77,64,73
161.5383,161.596,79,64,73
161.596,161.65369,77,64,73
161.65369,161.71138,79,64,73
161.71138,161.76907,77,64,73
161.76907,161.82677,79,64,73
161.82677,161.88446,77,64,73
161.88446,161.94214,79,64,73
161.94214,161.99983,77,64,73
161.99983,162.05753,79,64,73
162.05753,162.11522,77,64,73
162.11522,162.17291,79,64,73
162.17291,162.2306,77,64,73
162.2306,162.346,75,64,73
162.346,162.44696,74,64,73
162.46138,163.26907,75,64,73
163.38445,163.99022,70,64,73
164.07675,164.17892,79,64,73
164.30753,165.11522,75,64,73
165.2306,165.83638,70,64,73
165.92291,166.02507,79,64,73
166.15369,166.358,75,64,73
166.61522,166.81955,79,64,73
167.07675,167.28108,82,64,73
167.5383,167.74261,79,64,73
167.99983,168.92291,77,64,73
168.92291,169.84598,79,64,73
169.84598,170.76906,80,64,73
170.76906,171.57675,79,64,73
171.69214,172.09598,77,64,73
179.30751,179.40968,82,64,73
179.53828,179.64044,82,64,73
179.76906,179.87122,82,64,73
179.99982,180.23059,79,64,73
180.23059,180.46136,75,64,73
180.46136,180.69212,70,64,73
180.69212,180.89404,67,64,73
180.9229,181.32674,63,64,73
183.9229,184.03828,76,64,73
184.03828,184.13924,77,64,73
184.15366,184.25583,80,64,73
184.38443,184.48659,79,64,73
184.6152,185.01904,77,64,73
185.76904,185.88443,76,64,73
185.88443,185.9854,77,64,73
185.99982,186.10197,80,64,73
186.23058,186.33275,79,64,73
186.46135,186.8652,77,64,73
187.38443,187.78827,77,64,73
188.30751,188.71135,79,64,73
189.46135,189.5635,75,64,73
189.69212,189.79428,77,64,73
189.92288,190.02505,79,64,73
190.15366,190.61519,80,64,73
190.61519,191.07674,77,64,73
191.07674,191.53827,74,64,73
191.53827,191.94211,70,64,73
191.9998,192.8075,75,64,73
192.92288,193.52866,70,64,73
193.61519,193.71736,79,64,73
193.84596,194.0503,75,64,73
195.69211,196.4998,77,64,73
196.61519,197.22096,72,64,73
197.3075,197.40965,81,64,73
197.53827,197.74258,77,64,73
199.38441,200.19211,82,64,73
200.3075,200.91325,77,64,73
200.9998,201.10196,86,64,73
201.23058,201.43489,82,64,73
201.92288,202.03825,86,64,73
202.03825,202.13922,89,64,73
202.15364,202.26903,87,64,73
202.26903,202.38441,86,64,73
202.38441,202.4998,84,64,73
202.4998,202.60075,82,64,73
202.61519,202.73056,81,64,73
202.73056,202.84595,82,64,73
202.84595,202.96133,84,64,73
202.96133,203.0623,81,64,73
203.07672,203.28105,77,64,73
203.53825,203.74258,77,64,73
203.9998,204.05508,79,64,73
204.0575,204.11517,77,64,73
204.11517,204.17287,79,64,73
204.17287,204.23056,77,64,73
204.23056,204.28825,79,64,73
204.28825,204.34595,77,64,73
204.34595,204.40364,79,64,73
204.40364,204.46133,77,64,73
204.46133,204.51903,79,64,73
204.51903,204.57672,77,64,73
204.57672,204.63441,79,64,73
204.63441,204.69211,77,64,73
204.69211,204.8075,79,64,73
204.8075,204.90845,81,64,73
204.92287,205.32672,82,64,73
205.61517,205.73056,86,64,73
205.73056,205.83153,89,64,73
205.84595,205.96133,87,64,73
205.96133,206.07672,86,64,73
206.07672,206.19211,84,64,73
206.19211,206.29306,82,64,73
206.30748,206.42287,81,64,73
206.42287,206.53825,82,64,73
206.53825,206.65364,84,64,73
206.65364,206.75461,81,64,73
206.76903,206.97336,77,64,73
207.23056,207.43489,77,64,73
207.6921,207.74739,79,64,73
207.74979,207.80748,77,64,73
207.80748,207.86517,79,64,73
207.86517,207.92287,77,64,73
207.92287,207.98056,79,64,73
207.98056,208.03825,77,64,73
208.03825,208.09595,79,64,73
208.09595,208.15364,77,64,73
208.15364,208.21133,79,64,73
208.21133,208.26903,77,64,73
208.26903,208.32672,79,64,73
208.32672,208.3844,77,64,73
208.3844,208.49979,79,64,73
208.49979,208.60075,81,64,73
208.61517,208.71735,82,64,73
208.84595,208.9481,77,64,73
209.07672,209.17888,77,64,73
209.30748,209.40965,77,64,73
209.53825,209.64041,77,64,73
209.76903,209.87119,77,64,73
209.99979,210.10196,77,64,73
210.23056,210.33272,77,64,73
210.46133,210.56349,77,64,73
210.6921,210.79427,77,64,73
210.92287,211.02502,77,64,73
211.15364,211.2558,77,64,73
211.3844,211.48657,77,64,73
211.61517,211.71733,77,64,73
211.84595,211.9481,77,64,73
212.0767,212.17888,77,64,73
212.30748,212.40964,75,64,73
212.53825,212.64041,75,64,73
212.76901,212.87119,75,64,73
212.99979,213.10194,75,64,73
213.23056,213.33272,74,64,73
213.46132,213.56349,74,64,73
213.6921,213.79425,74,64,73
213.92287,214.02502,74,64,73
214.61517,215.42287,82,64,73
215.53824,215.74257,70,64,73
216.46132,216.92287,69,64,73
216.92287,217.3267,70,64,73
217.3844,217.58873,74,64,73
220.15363,221.0767,72,64,73
221.0767,221.48055,70,64,73
221.99977,222.45891,77,64,73
222.46132,222.92046,77,64,73
222.92285,223.35555,77,64,73
223.3844,224.59593,77,64,73
225.23055,226.84593,77,64,73
227.53824,227.74255,79,64,73
227.99977,228.2041,79,64,73
230.99977,231.10193,77,64,73
231.23055,231.3327,77,64,73
231.4613,231.56348,77,64,73
231.69208,231.89641,74,64,73
234.69208,235.09592,82,64,73
235.15361,235.25577,79,64,73
235.38438,235.5887,75,64,73
238.38438,238.78822,84,64,73
238.84592,238.94807,81,64,73
239.07669,239.281,77,64,73
241.84592,244.61514,77,64,73
244.61514,245.42284,81,64,73
245.53822,246.23053,82,64,73
246.23053,246.3459,81,64,73
246.3459,246.44687,79,64,73
246.46129,246.66562,77,64,73
246.92284,247.12715,77,64,73
247.38437,248.19206,77,64,73
248.30745,249.11514,81,64,73
249.46129,249.56345,82,64,73
249.69206,249.79422,77,64,73
251.30743,251.4096,79,64,73
251.53821,251.64038,74,64,73
253.1536,253.25575,79,64,73
253.38437,253.48653,79,64,73
253.61513,253.7173,79,64,73
253.8459,254.05023,79,64,73
254.76898,254.9733,79,64,73
256.8459,256.94806,77,64,73
257.07666,257.17883,77,64,73
257.30743,257.4096,77,64,73
257.5382,257.64038,77,64,73
257.76898,257.87112,77,64,73
257.99976,258.1019,77,64,73
258.2305,258.33267,77,64,73
258.46127,258.69205,75,64,73
258.69205,258.89398,72,64,73
258.92282,259.025,69,64,73
259.1536,259.25574,72,64,73
259.38437,259.4865,65,64,73
259.6151,259.7173,69,64,73
259.8459,259.94806,72,64,73
260.07666,260.17883,75,64,73
260.30743,260.71127,74,64,73
267.92282,268.0382,86,64,73
268.0382,268.13916,85,64,73
268.15356,268.25574,86,64,73
268.38434,268.49973,86,64,73
268.49973,268.6007,85,64,73
268.6151,268.7173,86,64,73
268.8459,268.96127,86,64,73
268.96127,269.06223,85,64,73
269.07666,269.19205,86,64,73
269.19205,269.30743,85,64,73
269.30743,269.42282,86,64,73
269.42282,269.52377,85,64,73
269.53818,269.64035,86,64,73
269.76895,269.87112,84,64,73
269.99973,270.1019,82,64,73
270.2305,270.33267,81,64,73
270.46127,270.56345,79,64,73
270.69205,270.7942,77,64,73
270.92282,271.02496,75,64,73
271.15356,271.25574,74,64,73
271.38434,271.49973,72,64,73
271.49973,271.6151,70,64,73
271.6151,271.7305,69,64,73
271.7305,271.83145,70,64,73
271.8459,271.94684,72,64,73
271.96127,272.06223,74,64,73
272.07666,272.1776,75,64,73
272.19205,272.293,74,64,73
272.30743,272.4228,72,64,73
272.4228,272.53818,70,64,73
272.53818,272.65356,69,64,73
272.65356,272.75455,70,64,73
272.76895,272.86993,72,64,73
272.88434,272.9853,74,64,73
272.99973,273.10068,75,64,73
273.1151,273.21606,74,64,73
273.2305,273.33145,72,64,73
273.3459,273.44684,81,64,73
273.46127,273.56223,79,64,73
273.57666,273.6776,82,64,73
273.69205,273.793,81,64,73
273.8074,273.9084,82,64,73
273.9228,274.02377,84,64,73
274.03818,274.13916,86,64,73
274.15356,274.25455,87,64,73
274.26895,274.3699,86,64,73
274.38434,274.4853,84,64,73
274.49973,274.60068,82,64,73
274.6151,274.71606,81,64,73
274.7305,274.83145,79,64,73
274.8459,274.94684,77,64,73
274.96127,275.06223,75,64,73
275.07666,275.4805,74,64,73
282.69202,282.8074,86,64,73
282.8074,282.90836,85,64,73
282.9228,283.02496,86,64,73
283.15356,283.26895,86,64,73
283.26895,283.3699,85,64,73
283.38434,283.48648,86,64,73
283.6151,283.7305,86,64,73
283.7305,283.83145,85,64,73
283.84586,283.96124,86,64,73
283.96124,284.07663,85,64,73
284.07663,284.19202,86,64,73
284.19202,284.293,85,64,73
284.3074,284.40958,86,64,73
284.53818,284.64035,84,64,73
284.76895,284.87112,82,64,73
284.99973,285.10187,81,64,73
285.23047,285.33264,79,64,73
285.46124,285.56342,77,64,73
285.69202,285.7942,75,64,73
285.9228,286.02496,74,64,73
286.15356,286.25452,72,64,73
286.26895,286.38434,81,64,73
286.38434,286.49973,79,64,73
286.49973,286.60068,81,64,73
286.6151,286.71606,82,64,73
286.73047,286.84586,81,64,73
286.84586,286.96124,79,64,73
286.96124,287.06223,81,64,73
287.07663,287.1776,84,64,73
287.19202,287.3074,81,64,73
287.3074,287.4228,79,64,73
287.4228,287.52374,81,64,73
287.53818,287.63913,82,64,73
287.65356,287.76895,81,64,73
287.76895,287.88434,79,64,73
287.88434,287.9853,81,64,73
287.99973,289.38434,84,64,73
289.38434,289.78818,87,64,73
289.84586,290.2497,86,64,73
290.76895,291.69202,77,64,73
291.69202,292.61508,79,64,73
292.61508,293.4228,82,64,73
293.53818,294.46124,79,64,73
294.46124,295.58624,82,64,73
295.61508,295.71725,74,64,73
295.84586,295.94803,74,64,73
296.07663,296.1788,74,64,73
296.3074,296.40955,74,64,73
296.53818,296.64032,77,64,73
296.76892,296.8711,77,64,73
296.9997,297.10187,77,64,73
297.23047,297.46124,77,64,73
297.46124,297.66318,75,64,73
297.69202,297.79416,72,64,73
297.9228,298.02493,69,64,73
298.15353,298.2557,65,64,73
298.3843,298.48648,69,64,73
298.61508,298.71725,72,64,73
298.84586,298.94803,77,64,73
299.07663,299.48047,74,64,73
307.15353,307.2557,82,64,73
307.3843,307.61508,83,64,73
307.61508,307.817,84,64,73
307.84586,307.948,84,64,73
308.07663,308.17877,84,64,73
308.30737,308.53815,81,64,73
308.53815,308.74008,82,64,73
308.76892,308.8711,82,64,73
308.9997,309.10187,82,64,73
309.23047,309.46124,87,64,73
309.46124,309.692,84,64,73
309.692,309.92276,79,64,73
309.92276,310.1247,81,64,73
310.15353,310.3843,84,64,73
310.3843,310.58624,82,64,73
310.61508,310.84586,86,64,73
310.84586,311.04776,82,64,73
311.0766,311.30737,87,64,73
311.30737,311.53815,84,64,73
311.53815,311.76892,79,64,73
311.76892,311.97086,81,64,73
311.9997,312.23047,84,64,73
312.23047,312.43237,82,64,73
312.4612,312.692,86,64,73
312.692,312.89392,82,64,73
312.92276,313.15353,87,64,73
313.15353,313.3843,84,64,73
313.3843,313.61508,79,64,73
313.61508,313.817,81,64,73
313.84583,314.0766,84,64,73
314.0766,314.27853,82,64,73
314.30737,314.53815,86,64,73
314.53815,314.74008,82,64,73
314.76892,314.9997,87,64,73
314.9997,315.23047,84,64,73
315.23047,315.4612,79,64,73
315.4612,315.66315,81,64,73
315.692,316.09583,82,64,73
316.15353,316.45642,86,64,73
316.4997,316.60065,86,64,73
316.61508,317.01892,82,64,73
0.0,0.8076915,70,64,68
0.923076,1.5288446,65,64,68
1.615383,1.7175463,74,64,68
1.846152,2.0504787,70,64,68
2.538459,2.6538434,74,64,68
2.6538434,2.7548048,77,64,68
2.769228,2.8846126,75,64,68
2.8846126,2.999997,74,64,68
2.999997,3.1153815,72,64,68
3.1153815,3.216343,70,64,68
3.230766,3.3461504,69,64,68
3.3461504,3.461535,70,64,68
3.461535,3.5769196,72,64,68
3.5769196,3.677881,69,64,68
3.692304,3.8966308,65,64,68
4.153842,4.3581686,65,64,68
4.61538,4.6706686,67,64,68
4.6730723,4.7307644,65,64,68
4.7307644,4.788457,67,64,68
4.788457,4.846149,65,64,68
4.846149,4.903841,67,64,68
4.903841,4.9615335,65,64,68
4.9615335,5.0192256,67,64,68
5.0192256,5.076918,65,64,68
5.076918,5.13461,67,64,68
5.13461,5.1923027,65,64,68
5.1923027,5.2499948,67,64,68
5.2499948,5.307687,65,64,68
5.307687,5.4230714,67,64,68
5.4230714,5.524033,69,64,68
5.538456,5.9423018,70,64,68
6.230763,6.3461475,74,64,68
6.3461475,6.4471087,77,64,68
6.461532,6.5769167,75,64,68
6.5769167,6.692301,74,64,68
6.692301,6.8076854,72,64,68
6.8076854,6.908647,70,64,68
6.92307,7.0384545,69,64,68
7.0384545,7.153839,70,64,68
7.153839,7.2692237,72,64,68
7.2692237,7.370185,69,64,68
7.384608,7.588935,65,64,68
7.846146,8.050472,65,64,68
8.307684,8.362972,67,64,68
8.365376,8.423068,65,64,68
8.423068,8.480761,67,64,68
8.480761,8.538453,65,64,68
8.538453,8.596146,67,64,68
8.596146,8.653837,65,64,68
8.653837,8.71153,67,64,68
8.71153,8.769222,65,64,68
8.769222,8.826914,67,64,68
8.826914,8.884606,65,64,68
8.884606,8.942299,67,64,68
8.942299,8.999991,65,64,68
8.999991,9.1153755,67,64,68
9.1153755,9.216337,69,64,68
9.23076,9.332923,70,64,68
9.461529,9.563692,74,64,68
9.692298,9.794461,74,64,68
9.923067,10.02523,74,64,68
10.153836,10.256,74,64,68
10.384605,10.486769,74,64,68
10.615374,10.717537,74,64,68
10.846143,10.948306,74,64,68
11.076912,11.179075,74,64,68
11.307681,11.409844,74,64,68
11.53845,11.640614,74,64,68
11.769219,11.871383,74,64,68
11.999988,12.102151,74,64,68
12.230757,12.33292,74,64,68
12.461526,12.563689,74,64,68
12.692295,12.794458,74,64,68
12.923064,13.025228,75,64,68
13.153833,13.255997,75,64,68
13.384602,13.486765,75,64,68
13.615371,13.717534,75,64,68
13.84614,13.948303,74,64,68
14.076909,14.179072,74,64,68
14.307678,14.409842,74,64,68
14.538447,14.640611,74,64,68
14.769216,14.871379,67,64,68
14.999985,15.102148,67,64,68
15.230754,15.332917,67,64,68
15.461523,15.563686,67,64,68
15.692292,15.794456,65,64,68
15.923061,16.025225,65,64,68
16.15383,16.255993,65,64,68
16.3846,16.486763,65,64,68
16.615368,17.538445,63,64,68
17.538445,17.94229,62,64,68
22.615362,23.074495,65,64,68
23.0769,23.536034,69,64,68
23.538439,23.97113,69,64,68
23.999975,24.692284,72,64,68
24.692284,24.894205,70,64,68
24.923052,25.326899,70,64,68
25.846128,28.096127,70,64,68
28.846125,29.076895,75,64,68
29.076895,29.307663,77,64,68
29.307663,29.509586,79,64,68
29.538431,29.769201,79,64,68
29.769201,29.99997,77,64,68
29.99997,30.23074,75,64,68
30.23074,30.432661,74,64,68
30.461508,30.576893,73,64,68
30.576893,30.692278,74,64,68
30.692278,30.807661,75,64,68
30.807661,30.908623,74,64,68
30.923046,31.038431,74,64,68
31.038431,31.153814,72,64,68
31.153814,31.2692,70,64,68
31.2692,31.370161,69,64,68
31.384584,31.78843,70,64,68
32.423046,32.524006,70,64,68
32.53843,32.63939,72,64,68
32.653812,32.754776,74,64,68
32.7692,32.87016,75,64,68
32.884583,32.985542,77,64,68
32.999966,33.10093,79,64,68
33.115353,33.216312,81,64,68
33.230736,34.03843,82,64,68
34.153812,34.759583,77,64,68
34.84612,34.948284,86,64,68
35.07689,35.281216,82,64,68
35.769196,35.88458,74,64,68
35.88458,35.985542,77,64,68
35.999966,36.11535,75,64,68
36.11535,36.230732,74,64,68
36.230732,36.34612,72,64,68
36.34612,36.44708,70,64,68
36.461502,36.576885,69,64,68
36.576885,36.692272,70,64,68
36.692272,36.807655,72,64,68
36.807655,36.908615,69,64,68
36.92304,37.127365,65,64,68
37.38458,37.588905,65,64,68
37.846115,37.901405,67,64,68
37.90381,37.961502,65,64,68
37.961502,38.01919,67,64,68
38.01919,38.076885,65,64,68
38.076885,38.13458,67,64,68
38.13458,38.19227,65,64,68
38.19227,38.24996,67,64,68
38.24996,38.307655,65,64,68
38.307655,38.365345,67,64,68
38.365345,38.42304,65,64,68
38.42304,38.480732,67,64,68
38.480732,38.53842,65,64,68
38.53842,38.65381,67,64,68
38.65381,38.75477,69,64,68
38.76919,39.17304,70,64,68
39.4615,39.576885,74,64,68
39.576885,39.677845,77,64,68
39.69227,39.80765,75,64,68
39.80765,39.92304,74,64,68
39.92304,40.03842,72,64,68
40.03842,40.13938,70,64,68
40.153805,40.25477,69,64,68
40.26919,40.37015,70,64,68
40.384575,40.485535,72,64,68
40.499958,40.60092,69,64,68
40.615345,40.81967,67,64,68
41.07688,41.281208,67,64,68
41.53842,41.59611,67,64,68
41.59611,41.653805,65,64,68
41.653805,41.7115,67,64,68
41.7115,41.769188,65,64,68
41.769188,41.82688,67,64,68
41.82688,41.884575,65,64,68
41.884575,41.942265,67,64,68
41.942265,41.999958,65,64,68
41.999958,42.05765,67,64,68
42.05765,42.11534,65,64,68
42.11534,42.173035,67,64,68
42.173035,42.23073,65,64,68
42.23073,42.34611,64,64,68
42.34611,42.44707,62,64,68
42.461494,43.067265,60,64,68
43.153805,43.355724,64,64,68
43.38457,43.486736,67,64,68
43.61534,43.717503,72,64,68
43.84611,43.948273,76,64,68
44.076878,44.179043,79,64,68
44.307648,44.999954,82,64,68
44.999954,45.201878,81,64,68
45.230724,45.576878,79,64,68
45.576878,45.69226,81,64,68
45.69226,46.038414,77,64,68
46.038414,46.139378,79,64,68
46.1538,46.384567,77,64,68
46.384567,46.58649,76,64,68
46.615337,47.278797,76,64,68
47.307644,47.538414,79,64,68
47.538414,47.769184,77,64,68
47.769184,47.920624,74,64,68
47.94226,47.99995,76,64,68
47.99995,48.23072,74,64,68
48.23072,48.432644,72,64,68
48.46149,49.12495,72,64,68
49.153797,49.384567,73,64,68
49.384567,49.615334,74,64,68
49.615334,49.817257,70,64,68
49.846104,49.903797,72,64,68
49.903797,49.961487,70,64,68
49.961487,50.01918,72,64,68
50.01918,50.076874,70,64,68
50.076874,50.134563,72,64,68
50.134563,50.192257,70,64,68
50.192257,50.24995,72,64,68
50.24995,50.307644,70,64,68
50.307644,50.365334,72,64,68
50.365334,50.423027,70,64,68
50.423027,50.48072,72,64,68
50.48072,50.53841,70,64,68
50.53841,50.653797,69,64,68
50.653797,50.754757,70,64,68
50.76918,51.173027,69,64,68
58.615326,58.91821,76,64,68
58.96148,59.062443,76,64,68
59.076862,59.769173,76,64,68
59.769173,59.971092,74,64,68
59.99994,60.204266,72,64,68
60.46148,60.764362,79,64,68
60.807632,60.908592,79,64,68
60.923016,61.615322,79,64,68
61.615322,61.817245,77,64,68
61.846092,62.05042,76,64,68
62.30763,62.610516,82,64,68
62.65378,62.754745,82,64,68
62.76917,63.692245,82,64,68
63.692245,64.49994,79,64,68
64.61532,65.5384,77,64,68
65.5384,65.99993,76,64,68
65.99993,66.40378,75,64,68
66.46147,66.86532,74,64,68
67.384544,67.78839,70,64,68
68.307625,68.509544,69,64,68
68.53839,68.65378,70,64,68
68.65378,68.769165,72,64,68
68.769165,68.884544,74,64,68
68.884544,68.99993,76,64,68
68.99993,69.11532,77,64,68
69.11532,69.21628,79,64,68
69.2307,69.634544,81,64,68
70.384544,70.48671,67,64,68
70.61531,70.717476,70,64,68
70.846085,70.94825,74,64,68
71.07685,71.30762,70,64,68
71.30762,71.509544,67,64,68
71.53839,71.64056,70,64,68
71.76916,71.87132,74,64,68
71.99993,72.2307,70,64,68
72.2307,72.43262,67,64,68
72.461464,72.56363,70,64,68
72.69224,72.794395,74,64,68
72.923004,73.03839,79,64,68
73.03839,73.15377,77,64,68
73.15377,73.26916,76,64,68
73.26916,73.384544,74,64,68
73.384544,73.49992,72,64,68
73.49992,73.61531,70,64,68
73.61531,73.7307,69,64,68
73.7307,73.83166,67,64,68
73.84608,73.94824,65,64,68
74.07685,74.179016,69,64,68
74.30762,74.40978,72,64,68
74.53838,74.64055,77,64,68
74.76916,75.461464,81,64,68
75.461464,75.66338,77,64,68
75.69223,76.38454,82,64,68
76.38454,76.586464,79,64,68
76.61531,77.30762,84,64,68
77.30762,77.50954,81,64,68
77.53838,77.74031,86,64,68
77.76915,77.84608,75,64,68
77.84608,77.923,74,64,68
77.923,77.9903,73,64,68
77.99992,78.10209,74,64,68
78.23069,78.332855,78,64,68
78.46146,78.69223,81,64,68
78.69223,78.89415,79,64,68
78.923,79.02516,82,64,68
79.15377,79.25593,78,64,68
79.38454,79.6153,81,64,68
79.6153,79.81723,79,64,68
79.84608,79.948235,82,64,68
80.07684,80.17901,78,64,68
80.30761,80.53838,81,64,68
80.53838,80.7403,79,64,68
80.76915,80.871315,74,64,68
80.999916,81.10208,79,64,68
81.23069,81.46146,77,64,68
81.46146,81.66338,76,64,68
81.69222,82.35569,76,64,68
82.38454,82.6153,84,64,68
82.6153,82.84607,83,64,68
82.84607,83.048,82,64,68
83.07684,83.30761,81,64,68
83.30761,83.538376,79,64,68
83.538376,83.76915,77,64,68
83.76915,83.97107,78,64,68
83.999916,84.60568,79,64,68
84.69222,84.89414,76,64,68
84.92299,85.15376,81,64,68
85.15376,85.38453,79,64,68
85.38453,85.615295,77,64,68
85.615295,85.81722,78,64,68
85.84607,86.451836,79,64,68
86.538376,86.740295,76,64,68
86.76914,86.97107,77,64,68
86.999916,87.076836,79,64,68
87.076836,87.153755,77,64,68
87.153755,87.22107,76,64,68
87.23068,87.33285,77,64,68
87.46145,87.563614,81,64,68
87.69222,87.79438,84,64,68
88.153755,88.5576,87,64,68
88.615295,88.81722,86,64,68
88.84606,88.94703,82,64,68
88.96145,89.06241,77,64,68
89.076836,89.278755,74,64,68
89.3076,89.40856,77,64,68
89.42299,89.52395,74,64,68
89.53837,89.740295,70,64,68
89.76914,89.8701,74,64,68
89.88453,89.98549,70,64,68
89.99991,90.201836,65,64,68
90.23068,90.33164,70,64,68
90.34606,90.44702,65,64,68
90.46145,90.563614,62,64,68
90.692215,90.79438,65,64,68
90.92299,91.02515,70,64,68
91.153755,91.25592,74,64,68
91.38452,91.48669,77,64,68
91.615295,91.71745,82,64,68
91.84606,91.94823,86,64,68
92.07683,92.17899,62,64,68
92.3076,92.71145,60,64,68
92.99991,93.11529,84,64,68
93.11529,93.216255,83,64,68
93.230675,93.33284,84,64,68
93.46145,93.56361,81,64,68
93.692215,93.79438,79,64,68
93.92298,94.02515,77,64,68
94.153755,94.21144,81,64,68
94.21144,94.269135,79,64,68
94.269135,94.32683,81,64,68
94.32683,94.38452,79,64,68
94.38452,94.442215,81,64,68
94.442215,94.49991,79,64,68
94.49991,94.557594,81,64,68
94.557594,94.61529,79,64,68
94.61529,94.67298,81,64,68
94.67298,94.730675,79,64,68
94.730675,94.78837,81,64,68
94.78837,94.84606,79,64,68
94.84606,94.90375,81,64,68
94.90375,94.96144,79,64,68
94.96144,95.019135,81,64,68
95.019135,95.07683,79,64,68
95.07683,95.13452,81,64,68
95.13452,95.192215,79,64,68
95.192215,95.24991,81,64,68
95.24991,95.307594,79,64,68
95.307594,95.36529,81,64,68
95.36529,95.42298,79,64,68
95.42298,95.480675,81,64,68
95.480675,95.53837,79,64,68
95.53837,95.59606,81,64,68
95.59606,95.65375,79,64,68
95.65375,95.71144,81,64,68
95.71144,95.769135,79,64,68
95.769135,95.88452,77,64,68
95.88452,95.98548,79,64,68
95.9999,96.40375,77,64,68
99.92297,100.03836,82,64,68
100.03836,100.13932,81,64,68
100.15375,100.25591,82,64,68
100.384514,100.4999,82,64,68
100.4999,100.60086,81,64,68
100.61529,100.717445,82,64,68
100.846054,100.96144,82,64,68
100.96144,101.0624,81,64,68
101.07682,101.19221,82,64,68
101.19221,101.307594,81,64,68
101.307594,101.42297,82,64,68
101.42297,101.52393,81,64,68
101.53836,101.640526,82,64,68
101.76913,101.87129,81,64,68
101.9999,102.10206,79,64,68
102.23067,102.33283,77,64,68
102.46143,102.5636,76,64,68
102.69221,102.794365,74,64,68
102.92297,103.02514,72,64,68
103.15374,103.255905,70,64,68
103.384514,104.99989,69,64,68
105.23067,106.15374,72,64,68
106.15374,106.96143,77,64,68
107.07681,107.1922,76,64,68
107.1922,107.30759,74,64,68
107.30759,107.422966,72,64,68
107.422966,107.52393,74,64,68
107.53835,107.63931,76,64,68
107.65374,107.7547,77,64,68
107.76912,107.87009,79,64,68
107.88451,107.985466,77,64,68
107.99989,108.11528,76,64,68
108.11528,108.23066,74,64,68
108.23066,108.34605,72,64,68
108.34605,108.44701,74,64,68
108.46143,108.56239,76,64,68
108.57681,108.67777,77,64,68
108.6922,108.79316,79,64,68
108.80759,108.90855,77,64,68
108.922966,109.03835,76,64,68
109.03835,109.15374,74,64,68
109.15374,109.26912,72,64,68
109.26912,109.37009,74,64,68
109.38451,109.49989,76,64,68
109.49989,109.61527,77,64,68
109.61527,109.73066,79,64,68
109.73066,109.83162,81,64,68
109.84605,109.948204,82,64,68
110.07681,110.17898,82,64,68
110.30758,110.409744,81,64,68
110.53835,110.64051,79,64,68
110.76912,111.172966,77,64,68
114.69219,114.80758,82,64,68
114.80758,114.90854,81,64,68
114.92296,115.02512,82,64,68
115.15373,115.26912,82,64,68
115.26912,115.37008,81,64,68
115.3845,115.486664,82,64,68
115.61527,115.73065,82,64,68
115.73065,115.83161,81,64,68
115.84604,115.961426,82,64,68
115.961426,116.076805,81,64,68
116.076805,116.19219,82,64,68
116.19219,116.29315,81,64,68
116.30758,116.40974,82,64,68
116.538345,116.64051,81,64,68
116.76911,116.87128,79,64,68
116.999886,117.10204,77,64,68
117.23065,117.33282,76,64,68
117.46142,117.56358,74,64,68
117.69219,117.79435,72,64,68
117.92296,118.02512,70,64,68
118.153725,119.76911,69,64,68
119.99988,120.92296,72,64,68
120.92296,121.730644,77,64,68
121.84603,121.96142,76,64,68
121.96142,122.0768,74,64,68
122.0768,122.192184,72,64,68
122.192184,122.293144,74,64,68
122.30757,122.40853,76,64,68
122.42295,122.52392,77,64,68
122.53834,122.6393,79,64,68
122.653725,122.754684,77,64,68
122.76911,122.88449,76,64,68
122.88449,122.99988,74,64,68
122.99988,123.115265,72,64,68
123.115265,123.216225,74,64,68
123.230644,123.331604,76,64,68
123.34603,123.44699,77,64,68
123.46142,123.56238,79,64,68
123.5768,123.67776,77,64,68
123.692184,123.80757,76,64,68
123.80757,123.92295,74,64,68
123.92295,124.03834,72,64,68
124.03834,124.1393,71,64,68
124.153725,124.269104,72,64,68
124.269104,124.38449,74,64,68
124.38449,124.49988,76,64,68
124.49988,124.60084,77,64,68
124.61526,124.716225,79,64,68
124.730644,124.831604,77,64,68
124.84603,124.94699,76,64,68
124.96141,125.06238,74,64,68
125.0768,125.17776,72,64,68
125.192184,125.293144,70,64,68
125.30756,125.40853,69,64,68
125.42295,125.52391,67,64,68
125.53834,125.942184,65,64,68
126.692184,126.79434,69,64,68
126.92295,127.025116,72,64,68
127.15372,127.25588,77,64,68
127.38449,128.50949,81,64,68
128.53833,128.6405,82,64,68
128.7691,128.87126,84,64,68
128.99988,129.10204,86,64,68
129.23064,130.03833,77,64,68
130.15372,130.209,77,64,68
130.21141,130.2691,76,64,68
130.2691,130.3268,77,64,68
130.3268,130.38449,76,64,68
130.38449,130.44218,77,64,68
130.44218,130.49986,76,64,68
130.49986,130.55756,77,64,68
130.55756,130.61525,76,64,68
130.61525,130.67294,77,64,68
130.67294,130.73064,76,64,68
130.73064,130.78833,77,64,68
130.78833,130.84602,76,64,68
130.84602,130.96141,74,64,68
130.96141,131.06236,76,64,68
131.0768,131.48064,77,64,68
131.7691,131.97102,77,64,68
131.99986,132.23064,78,64,68
132.23064,132.43256,79,64,68
132.46141,132.56357,79,64,68
132.69217,132.79434,79,64,68
132.92294,133.15372,76,64,68
133.15372,133.35564,77,64,68
133.38448,133.48665,77,64,68
133.61525,133.7174,77,64,68
133.84602,134.07678,73,64,68
134.07678,134.30756,74,64,68
134.30756,134.53833,75,64,68
134.53833,134.74025,76,64,68
134.76909,134.99986,79,64,68
134.99986,135.20178,77,64,68
135.23064,135.3328,77,64,68
139.38448,140.30756,74,64,68
140.30756,141.23062,72,64,68
141.23062,142.03831,70,64,68
142.1537,142.9614,69,64,68
143.07678,143.88448,70,64,68
143.99986,144.92293,69,64,68
144.92293,145.73062,70,64,68
145.84601,146.24985,69,64,68
146.30754,146.61043,72,64,68
146.6537,146.75465,72,64,68
146.76909,147.17293,69,64,68
147.69215,148.49985,74,64,68
148.61523,149.22101,69,64,68
149.30754,149.40971,77,64,68
149.53831,149.74265,74,64,68
150.23062,150.34601,77,64,68
150.34601,150.44696,81,64,68
150.4614,150.57677,79,64,68
150.57677,150.69215,77,64,68
150.69215,150.80754,76,64,68
150.80754,150.90851,74,64,68
150.92293,151.03831,73,64,68
151.03831,151.1537,74,64,68
151.1537,151.26907,76,64,68
151.26907,151.37004,73,64,68
151.38446,151.58879,69,64,68
151.84601,152.05032,69,64,68
152.30754,152.36523,70,64,68
152.36523,152.42293,69,64,68
152.42293,152.48062,70,64,68
152.48062,152.53831,69,64,68
152.53831,152.59601,70,64,68
152.59601,152.65369,69,64,68
152.65369,152.71138,70,64,68
152.71138,152.76907,69,64,68
152.76907,152.82677,70,64,68
152.82677,152.88446,69,64,68
152.88446,152.94215,70,64,68
152.94215,152.99985,69,64,68
152.99985,153.11523,71,64,68
153.11523,153.21619,73,64,68
153.23062,153.63446,74,64,68
153.92293,154.03831,77,64,68
154.03831,154.13927,81,64,68
154.15369,154.26907,79,64,68
154.26907,154.38446,77,64,68
154.38446,154.49985,76,64,68
154.49985,154.6008,74,64,68
154.61523,154.73062,73,64,68
154.73062,154.846,74,64,68
154.846,154.96138,76,64,68
154.96138,155.06235,73,64,68
155.07677,155.2811,69,64,68
155.5383,155.74263,69,64,68
155.99985,156.80754,75,64,68
156.92291,157.7306,74,64,68
157.846,158.45177,65,64,68
158.5383,158.64047,74,64,68
158.76907,158.9734,70,64,68
159.46138,159.57677,74,64,68
159.57677,159.67772,77,64,68
159.69215,159.80753,75,64,68
159.80753,159.92291,74,64,68
159.92291,160.0383,72,64,68
160.0383,160.13927,70,64,68
160.15369,160.26907,69,64,68
160.26907,160.38446,70,64,68
160.38446,160.49983,72,64,68
160.49983,160.6008,69,64,68
160.61522,160.81955,65,64,68
161.07677,161.28108,65,64,68
161.5383,161.596,75,64,68
161.596,161.65369,74,64,68
161.65369,161.71138,75,64,68
161.71138,161.76907,74,64,68
161.76907,161.82677,75,64,68
161.82677,161.88446,74,64,68
161.88446,161.94214,75,64,68
161.94214,161.99983,74,64,68
161.99983,162.05753,75,64,68
162.05753,162.11522,74,64,68
162.11522,162.17291,75,64,68
162.17291,162.2306,74,64,68
162.2306,162.346,72,64,68
162.346,162.44696,74,64,68
162.46138,163.26907,75,64,68
163.38445,163.99022,70,64,68
164.07675,164.17892,79,64,68
164.30753,165.11522,75,64,68
165.2306,165.83638,70,64,68
165.92291,166.02507,79,64,68
166.15369,166.358,75,64,68
166.61522,166.81955,70,64,68
167.07675,167.28108,79,64,68
167.5383,167.74261,75,64,68
167.99983,168.92291,74,64,68
168.92291,169.84598,75,64,68
169.84598,170.76906,77,64,68
170.76906,171.57675,75,64,68
171.69214,172.09598,74,64,68
173.53828,176.99982,63,64,68
177.23059,178.15367,62,64,68
178.15367,178.91087,65,64,68
179.01906,179.07674,67,64,68
179.07674,179.30751,65,64,68
179.30751,179.50943,63,64,68
179.53828,179.94212,63,64,68
180.9229,182.76904,70,64,68
182.76904,183.1729,72,64,68
183.9229,184.02505,72,64,68
184.15366,184.25583,72,64,68
184.38443,184.48659,72,64,68
184.6152,185.01904,72,64,68
185.76904,185.87122,72,64,68
185.99982,186.10197,72,64,68
186.23058,186.33275,72,64,68
186.46135,186.8652,72,64,68
187.38443,187.78827,72,64,68
188.30751,188.71135,70,64,68
189.46135,189.5635,70,64,68
189.69212,189.79428,70,64,68
189.92288,190.02505,70,64,68
190.15366,190.61519,70,64,68
190.61519,191.07674,74,64,68
191.07674,191.53827,77,64,68
191.53827,191.94211,74,64,68
191.9998,192.8075,75,64,68
192.92288,193.52866,70,64,68
193.61519,193.71736,79,64,68
193.84596,194.0503,75,64,68
195.69211,196.4998,77,64,68
196.61519,197.22096,72,64,68
197.3075,197.40965,81,64,68
197.53827,197.65366,77,64,68
197.65366,197.76903,79,64,68
197.76903,197.88441,77,64,68
197.88441,197.98538,76,64,68
197.9998,198.10077,77,64,68
198.11519,198.21614,79,64,68
198.23058,198.33153,81,64,68
198.34596,198.44691,82,64,68
198.46133,198.57672,84,64,68
198.57672,198.69211,86,64,68
198.69211,198.8075,84,64,68
198.8075,198.90846,82,64,68
198.92288,199.02383,81,64,68
199.03827,199.13922,79,64,68
199.15364,199.25461,77,64,68
199.26903,199.37,75,64,68
199.38441,200.19211,70,64,68
200.3075,200.91325,65,64,68
200.9998,201.10196,74,64,68
201.23058,201.43489,70,64,68
201.92288,202.03825,74,64,68
202.03825,202.13922,77,64,68
202.15364,202.26903,75,64,68
202.26903,202.38441,74,64,68
202.38441,202.4998,72,64,68
202.4998,202.60075,70,64,68
202.61519,202.73056,69,64,68
202.73056,202.84595,70,64,68
202.84595,202.96133,72,64,68
202.96133,203.0623,69,64,68
203.07672,203.28105,65,64,68
203.53825,203.74258,65,64,68
203.9998,204.05508,67,64,68
204.0575,204.11517,65,64,68
204.11517,204.17287,67,64,68
204.17287,204.23056,65,64,68
204.23056,204.28825,67,64,68
204.28825,204.34595,65,64,68
204.34595,204.40364,67,64,68
204.40364,204.46133,65,64,68
204.46133,204.51903,67,64,68
204.51903,204.57672,65,64,68
204.57672,204.63441,67,64,68
204.63441,204.69211,65,64,68
204.69211,204.8075,67,64,68
204.8075,204.90845,69,64,68
204.92287,205.32672,70,64,68
205.61517,205.73056,74,64,68
205.73056,205.83153,77,64,68
205.84595,205.96133,75,64,68
205.96133,206.07672,74,64,68
206.07672,206.19211,72,64,68
206.19211,206.29306,70,64,68
206.30748,206.42287,69,64,68
206.42287,206.53825,70,64,68
206.53825,206.65364,72,64,68
206.65364,206.75461,69,64,68
206.76903,206.97336,65,64,68
207.23056,207.43489,65,64,68
207.6921,207.74739,67,64,68
207.74979,207.80748,65,64,68
207.80748,207.86517,67,64,68
207.86517,207.92287,65,64,68
207.92287,207.98056,67,64,68
207.98056,208.03825,65,64,68
208.03825,208.09595,67,64,68
208.09595,208.15364,65,64,68
208.15364,208.21133,67,64,68
208.21133,208.26903,65,64,68
208.26903,208.32672,67,64,68
208.32672,208.3844,65,64,68
208.3844,208.49979,67,64,68
208.49979,208.60075,69,64,68
208.61517,208.71735,70,64,68
208.84595,208.9481,74,64,68
209.07672,209.17888,74,64,68
209.30748,209.40965,74,64,68
209.53825,209.64041,74,64,68
209.76903,209.87119,74,64,68
209.99979,210.10196,74,64,68
210.23056,210.33272,74,64,68
210.46133,210.56349,74,64,68
210.6921,210.79427,74,64,68
210.92287,211.02502,74,64,68
211.15364,211.2558,74,64,68
211.3844,211.48657,74,64,68
211.61517,211.71733,74,64,68
211.84595,211.9481,74,64,68
212.0767,212.17888,74,64,68
212.30748,212.40964,75,64,68
212.53825,212.64041,75,64,68
212.76901,212.87119,75,64,68
212.99979,213.10194,75,64,68
213.23056,213.33272,74,64,68
213.46132,213.56349,74,64,68
213.6921,213.79425,74,64,68
213.92287,214.02502,74,64,68
214.15363,214.2558,67,64,68
214.3844,214.48656,67,64,68
214.61517,214.71733,67,64,68
214.84593,214.9481,67,64,68
215.0767,215.17888,65,64,68
215.30748,215.40964,65,64,68
215.53824,215.64041,65,64,68
215.76901,215.87119,65,64,68
215.99979,216.92287,63,64,68
216.92287,217.3267,62,64,68
221.99977,222.45891,65,64,68
222.46132,222.92046,69,64,68
222.92285,223.35555,69,64,68
223.3844,223.99016,72,64,68
224.0767,224.27863,70,64,68
224.30746,224.71132,70,64,68
225.23055,227.48055,70,64,68
228.23055,228.4613,75,64,68
228.4613,228.69208,77,64,68
228.69208,228.894,79,64,68
228.92285,229.15361,79,64,68
229.15361,229.38438,77,64,68
229.38438,229.61516,75,64,68
229.61516,229.81708,74,64,68
229.84592,230.05025,72,64,68
230.30746,230.5118,69,64,68
230.769,231.17285,70,64,68
233.53822,234.34592,62,64,68
234.4613,235.67284,63,64,68
236.30745,237.23053,67,64,68
237.23053,238.55745,72,64,68
238.61514,238.81947,72,64,68
239.07669,239.281,72,64,68
239.99976,241.61514,65,64,68
241.84592,243.23053,70,64,68
243.23053,243.63437,74,64,68
243.69206,245.07668,75,64,68
245.07668,245.48053,72,64,68
245.53822,246.92284,70,64,68
246.92284,247.32668,74,64,68
247.38437,248.76898,75,64,68
248.76898,249.17282,72,64,68
249.23051,249.43245,70,64,68
249.46129,249.56345,77,64,68
249.69206,249.79422,74,64,68
251.30743,251.4096,74,64,68
251.53821,251.64038,70,64,68
253.1536,253.25575,70,64,68
253.38437,253.48653,72,64,68
253.61513,253.7173,74,64,68
253.8459,254.05023,75,64,68
254.76898,254.9733,75,64,68
256.8459,256.94806,74,64,68
257.07666,257.17883,74,64,68
257.30743,257.4096,74,64,68
257.5382,257.64038,72,64,68
257.76898,257.87112,70,64,68
257.99976,258.1019,69,64,68
258.2305,258.33267,70,64,68
258.46127,258.69205,69,64,68
258.69205,258.89398,72,64,68
258.92282,259.025,77,64,68
259.1536,259.25574,81,64,68
259.38437,260.07666,81,64,68
260.07666,260.19205,79,64,68
260.19205,260.293,81,64,68
260.30743,260.71127,82,64,68
267.92282,268.0382,82,64,68
268.0382,268.13916,81,64,68
268.15356,268.25574,82,64,68
268.38434,268.49973,82,64,68
268.49973,268.6007,81,64,68
268.6151,268.7173,82,64,68
268.8459,268.96127,82,64,68
268.96127,269.06223,81,64,68
269.07666,269.19205,82,64,68
269.19205,269.30743,81,64,68
269.30743,269.42282,82,64,68
269.42282,269.52377,81,64,68
269.53818,269.64035,82,64,68
269.76895,269.87112,81,64,68
269.99973,270.1019,79,64,68
270.2305,270.33267,77,64,68
270.46127,270.56345,75,64,68
270.69205,270.7942,74,64,68
270.92282,271.02496,72,64,68
271.15356,271.25574,70,64,68
271.38434,271.49973,69,64,68
271.49973,271.6151,67,64,68
271.6151,271.7305,65,64,68
271.7305,271.83145,67,64,68
271.8459,271.94684,69,64,68
271.96127,272.06223,70,64,68
272.07666,272.1776,72,64,68
272.19205,272.293,70,64,68
272.30743,272.4228,69,64,68
272.4228,272.53818,67,64,68
272.53818,272.65356,65,64,68
272.65356,272.75455,67,64,68
272.76895,272.86993,69,64,68
272.88434,272.9853,70,64,68
272.99973,273.10068,72,64,68
273.1151,273.21606,70,64,68
273.2305,273.33145,69,64,68
273.3459,273.44684,77,64,68
273.46127,273.56223,76,64,68
273.57666,273.6776,79,64,68
273.69205,273.793,77,64,68
273.8074,273.9084,79,64,68
273.9228,274.02377,81,64,68
274.03818,274.13916,82,64,68
274.15356,274.25455,84,64,68
274.26895,274.3699,82,64,68
274.38434,274.4853,81,64,68
274.49973,274.60068,79,64,68
274.6151,274.71606,77,64,68
274.7305,274.83145,75,64,68
274.8459,274.94684,74,64,68
274.96127,275.06223,72,64,68
275.07666,275.4805,70,64,68
282.69202,282.8074,82,64,68
282.8074,282.90836,81,64,68
282.9228,283.02496,82,64,68
283.15356,283.26895,82,64,68
283.26895,283.3699,81,64,68
283.38434,283.48648,82,64,68
283.6151,283.7305,82,64,68
283.7305,283.83145,81,64,68
283.84586,283.96124,82,64,68
283.96124,284.07663,81,64,68
284.07663,284.19202,82,64,68
284.19202,284.293,81,64,68
284.3074,284.40958,82,64,68
284.53818,284.64035,81,64,68
284.76895,284.87112,79,64,68
284.99973,285.10187,77,64,68
285.23047,285.33264,75,64,68
285.46124,285.56342,74,64,68
285.69202,285.7942,72,64,68
285.9228,286.02496,70,64,68
286.15356,286.25452,69,64,68
286.26895,286.38434,77,64,68
286.38434,286.49973,76,64,68
286.49973,286.60068,77,64,68
286.6151,286.71606,79,64,68
286.73047,286.84586,77,64,68
286.84586,286.96124,76,64,68
286.96124,287.06223,77,64,68
287.07663,287.1776,81,64,68
287.19202,287.3074,77,64,68
287.3074,287.4228,76,64,68
287.4228,287.52374,77,64,68
287.53818,287.63913,79,64,68
287.65356,287.76895,77,64,68
287.76895,287.88434,76,64,68
287.88434,287.9853,77,64,68
287.99973,288.11508,72,64,68
288.11508,288.23047,70,64,68
288.23047,288.34586,69,64,68
288.34586,288.44684,67,64,68
288.46124,288.57663,65,64,68
288.57663,288.69202,67,64,68
288.69202,288.8074,69,64,68
288.8074,288.90836,70,64,68
288.9228,289.03818,72,64,68
289.03818,289.15356,70,64,68
289.15356,289.26895,72,64,68
289.26895,289.3699,74,64,68
289.38434,289.48648,75,64,68
289.61508,289.71725,72,64,68
289.84586,290.2497,70,64,68
290.76895,291.69202,74,64,68
291.69202,292.61508,75,64,68
292.61508,293.4228,79,64,68
293.53818,294.46124,75,64,68
294.46124,295.3843,79,64,68
295.3843,295.58624,74,64,68
295.61508,295.71725,70,64,68
295.84586,295.94803,70,64,68
296.07663,296.1788,70,64,68
296.3074,296.40955,70,64,68
296.53818,296.64032,70,64,68
296.76892,296.8711,74,64,68
296.9997,297.10187,77,64,68
297.23047,297.28818,82,64,68
297.28818,297.34586,81,64,68
297.34586,297.40353,82,64,68
297.40353,297.46124,81,64,68
297.46124,297.51892,82,64,68
297.51892,297.57663,81,64,68
297.57663,297.6343,82,64,68
297.6343,297.69202,81,64,68
297.69202,297.7497,82,64,68
297.7497,297.8074,81,64,68
297.8074,297.86508,82,64,68
297.86508,297.9228,81,64,68
297.9228,297.98047,82,64,68
297.98047,298.03818,81,64,68
298.03818,298.09586,82,64,68
298.09586,298.15353,81,64,68
298.15353,298.21124,82,64,68
298.21124,298.26892,81,64,68
298.26892,298.32663,82,64,68
298.32663,298.3843,81,64,68
298.3843,298.44202,82,64,68
298.44202,298.4997,81,64,68
298.4997,298.5574,82,64,68
298.5574,298.61508,81,64,68
298.61508,298.6728,82,64,68
298.6728,298.73047,81,64,68
298.73047,298.78818,82,64,68
298.78818,298.84586,81,64,68
298.84586,298.96124,79,64,68
298.96124,299.0622,81,64,68
299.07663,299.48047,82,64,68
299.76892,299.97086,70,64,68
299.9997,300.23047,71,64,68
300.23047,300.4324,72,64,68
300.46124,300.56342,72,64,68
300.69202,300.79416,72,64,68
300.9228,301.15353,69,64,68
301.15353,301.35547,70,64,68
301.3843,301.48648,70,64,68
301.61508,301.71725,70,64,68
301.84586,302.07663,75,64,68
302.07663,302.3074,72,64,68
302.3074,302.53815,67,64,68
302.53815,302.74008,69,64,68
302.76892,302.9997,72,64,68
302.9997,303.20163,70,64,68
303.23047,303.33264,70,64,68
307.15353,307.35547,70,64,68
307.3843,307.61508,71,64,68
307.61508,307.817,72,64,68
307.84586,307.948,72,64,68
308.07663,308.17877,72,64,68
308.30737,308.53815,69,64,68
308.53815,308.74008,70,64,68
308.76892,308.8711,70,64,68
308.9997,309.10187,70,64,68
309.23047,310.15353,75,64,68
310.15353,310.96124,74,64,68
311.0766,311.9997,75,64,68
311.9997,312.80737,74,64,68
312.92276,313.84583,75,64,68
313.84583,314.65353,74,64,68
314.76892,315.692,75,64,68
315.692,316.09583,74,64,68
316.15353,316.45642,77,64,68
316.4997,316.60065,77,64,68
316.61508,317.01892,74,64,68
0.0,0.8076915,70,64,71
0.923076,1.5288446,65,64,71
1.615383,1.7175463,74,64,71
1.846152,2.0504787,70,64,71
2.538459,2.6538434,74,64,71
2.6538434,2.7548048,77,64,71
2.769228,2.8846126,75,64,71
2.8846126,2.999997,74,64,71
2.999997,3.1153815,72,64,71
3.1153815,3.216343,70,64,71
3.230766,3.3461504,69,64,71
3.3461504,3.461535,70,64,71
3.461535,3.5769196,72,64,71
3.5769196,3.677881,69,64,71
3.692304,3.8966308,65,64,71
4.153842,4.3581686,65,64,71
4.61538,4.6706686,67,64,71
4.6730723,4.7307644,65,64,71
4.7307644,4.788457,67,64,71
4.788457,4.846149,65,64,71
4.846149,4.903841,67,64,71
4.903841,4.9615335,65,64,71
4.9615335,5.0192256,67,64,71
5.0192256,5.076918,65,64,71
5.076918,5.13461,67,64,71
5.13461,5.1923027,65,64,71
5.1923027,5.2499948,67,64,71
5.2499948,5.307687,65,64,71
5.307687,5.4230714,67,64,71
5.4230714,5.524033,69,64,71
5.538456,5.9423018,70,64,71
6.230763,6.3461475,74,64,71
6.3461475,6.4471087,77,64,71
6.461532,6.5769167,75,64,71
6.5769167,6.692301,74,64,71
6.692301,6.8076854,72,64,71
6.8076854,6.908647,70,64,71
6.92307,7.0384545,69,64,71
7.0384545,7.153839,70,64,71
7.153839,7.2692237,72,64,71
7.2692237,7.370185,69,64,71
7.384608,7.588935,65,64,71
7.846146,8.050472,65,64,71
8.307684,8.362972,67,64,71
8.365376,8.423068,65,64,71
8.423068,8.480761,67,64,71
8.480761,8.538453,65,64,71
8.538453,8.596146,67,64,71
8.596146,8.653837,65,64,71
8.653837,8.71153,67,64,71
8.71153,8.769222,65,64,71
8.769222,8.826914,67,64,71
8.826914,8.884606,65,64,71
8.884606,8.942299,67,64,71
8.942299,8.999991,65,64,71
8.999991,9.1153755,67,64,71
9.1153755,9.216337,69,64,71
9.23076,9.634605,70,64,71
10.846143,11.048066,77,64,71
11.076912,11.8846035,82,64,71
11.999988,12.055277,82,64,71
12.05768,12.115373,81,64,71
12.115373,12.173065,82,64,71
12.173065,12.230757,81,64,71
12.230757,12.288449,82,64,71
12.288449,12.346142,81,64,71
12.346142,12.403833,82,64,71
12.403833,12.461526,81,64,71
12.461526,12.519218,82,64,71
12.519218,12.576911,81,64,71
12.576911,12.634603,82,64,71
12.634603,12.692295,81,64,71
12.692295,12.8942175,82,64,71
12.923064,13.6129675,81,64,71
13.615371,13.673063,81,64,71
13.673063,13.730756,79,64,71
13.730756,13.788447,77,64,71
13.788447,13.838928,79,64,71
13.84614,14.249986,77,64,71
14.538447,14.640611,79,64,71
14.769216,15.459119,77,64,71
15.461523,15.519216,77,64,71
15.519216,15.576907,75,64,71
15.576907,15.6346,74,64,71
15.6346,15.685081,75,64,71
15.692292,16.096138,74,64,71
16.3846,16.486763,75,64,71
16.615368,17.276424,74,64,71
17.27883,17.307674,74,64,71
17.307674,17.408636,72,64,71
17.42306,17.47354,70,64,71
17.480751,17.531233,72,64,71
17.538445,17.94229,70,64,71
18.230751,18.432674,70,64,71
18.46152,18.807674,69,64,71
18.807674,18.923058,72,64,71
18.923058,19.26921,70,64,71
19.26921,19.370173,74,64,71
19.384596,19.73075,72,64,71
19.73075,19.846134,75,64,71
19.846134,20.192287,74,64,71
20.192287,20.29325,79,64,71
20.307673,20.53844,77,64,71
20.53844,20.76921,76,64,71
20.76921,21.576902,75,64,71
21.692286,21.80767,74,64,71
21.80767,21.923056,77,64,71
21.923056,22.038439,75,64,71
22.038439,22.1394,72,64,71
22.153824,22.612959,70,64,71
22.615362,23.074495,70,64,71
23.0769,23.536034,72,64,71
23.538439,23.97113,72,64,71
23.999975,24.692284,75,64,71
24.692284,24.894205,74,64,71
24.923052,25.326899,74,64,71
25.615358,25.817282,77,64,71
25.846128,26.192282,81,64,71
26.192282,26.293243,82,64,71
26.307667,26.65382,76,64,71
26.65382,26.754782,77,64,71
26.769203,27.115358,73,64,71
27.115358,27.216318,74,64,71
27.230742,27.576895,69,64,71
27.576895,27.677856,70,64,71
27.69228,27.92305,66,64,71
27.92305,28.124971,67,64,71
28.153818,28.269203,67,64,71
28.269203,28.384586,63,64,71
28.384586,28.499971,58,64,71
28.499971,28.600933,55,64,71
28.615356,28.71752,51,64,71
28.846125,29.076895,79,64,71
29.076895,29.307663,81,64,71
29.307663,29.509586,82,64,71
29.538431,29.769201,82,64,71
29.769201,29.99997,81,64,71
29.99997,30.23074,79,64,71
30.23074,30.432661,77,64,71
30.461508,30.576893,76,64,71
30.576893,30.692278,77,64,71
30.692278,30.807661,79,64,71
30.807661,30.908623,77,64,71
30.923046,31.038431,77,64,71
31.038431,31.153814,75,64,71
31.153814,31.2692,74,64,71
31.2692,31.370161,72,64,71
31.384584,31.486748,70,64,71
31.615353,31.730738,82,64,71
31.730738,31.8317,77,64,71
31.846123,31.947083,74,64,71
31.961506,32.06247,70,64,71
32.076893,32.177853,65,64,71
32.192276,32.293236,62,64,71
32.30766,32.711506,58,64,71
33.230736,34.03843,70,64,71
34.153812,34.759583,65,64,71
34.84612,34.948284,74,64,71
35.07689,35.281216,70,64,71
35.769196,35.88458,74,64,71
35.88458,35.985542,77,64,71
35.999966,36.11535,75,64,71
36.11535,36.230732,74,64,71
36.230732,36.34612,72,64,71
36.34612,36.44708,70,64,71
36.461502,36.576885,69,64,71
36.576885,36.692272,70,64,71
36.692272,36.807655,72,64,71
36.807655,36.908615,69,64,71
36.92304,37.127365,65,64,71
37.38458,37.588905,65,64,71
37.846115,37.901405,67,64,71
37.90381,37.961502,65,64,71
37.961502,38.01919,67,64,71
38.01919,38.076885,65,64,71
38.076885,38.13458,67,64,71
38.13458,38.19227,65,64,71
38.19227,38.24996,67,64,71
38.24996,38.307655,65,64,71
38.307655,38.365345,67,64,71
38.365345,38.42304,65,64,71
38.42304,38.480732,67,64,71
38.480732,38.53842,65,64,71
38.53842,38.65381,67,64,71
38.65381,38.75477,69,64,71
38.76919,39.17304,70,64,71
39.4615,39.576885,74,64,71
39.576885,39.677845,77,64,71
39.69227,39.80765,75,64,71
39.80765,39.92304,74,64,71
39.92304,40.03842,72,64,71
40.03842,40.13938,70,64,71
40.153805,40.26919,69,64,71
40.26919,40.384575,70,64,71
40.384575,40.499958,72,64,71
40.499958,40.60092,69,64,71
40.615345,40.81967,67,64,71
41.07688,41.281208,67,64,71
41.53842,41.59611,69,64,71
41.59611,41.653805,67,64,71
41.653805,41.7115,69,64,71
41.7115,41.769188,67,64,71
41.769188,41.82688,69,64,71
41.82688,41.884575,67,64,71
41.884575,41.942265,69,64,71
41.942265,41.999958,67,64,71
41.999958,42.05765,69,64,71
42.05765,42.11534,67,64,71
42.11534,42.173035,69,64,71
42.173035,42.34611,67,64,71
42.34611,42.44707,65,64,71
42.461494,42.86534,64,64,71
44.769184,45.11534,64,64,71
45.11534,45.2163,65,64,71
45.230724,45.43505,67,64,71
45.69226,45.896587,69,64,71
46.1538,47.538414,70,64,71
47.538414,47.94226,69,64,71
47.99995,49.21149,67,64,71
49.384567,49.615334,70,64,71
49.615334,49.817257,67,64,71
49.846104,49.903797,69,64,71
49.903797,49.961487,67,64,71
49.961487,50.01918,69,64,71
50.01918,50.076874,67,64,71
50.076874,50.134563,69,64,71
50.134563,50.192257,67,64,71
50.192257,50.24995,69,64,71
50.24995,50.307644,67,64,71
50.307644,50.365334,69,64,71
50.365334,50.423027,67,64,71
50.423027,50.48072,69,64,71
50.48072,50.53841,67,64,71
50.53841,50.653797,65,64,71
50.653797,50.754757,67,64,71
50.76918,51.173027,65,64,71
51.692257,53.30764,57,64,71
53.538406,55.15379,58,64,71
55.38456,56.999943,62,64,71
57.230713,57.63456,60,64,71
57.69225,58.096096,60,64,71
58.15379,58.557632,60,64,71
58.615326,58.91821,70,64,71
58.96148,59.062443,70,64,71
59.076862,60.288403,70,64,71
60.46148,60.764362,76,64,71
60.807632,60.908592,76,64,71
60.923016,62.134552,76,64,71
62.30763,62.610516,79,64,71
62.65378,62.754745,79,64,71
62.76917,63.692245,79,64,71
63.692245,64.49994,76,64,71
64.61532,66.86532,65,64,71
67.384544,67.78839,65,64,71
68.307625,68.71147,65,64,71
69.46147,69.56363,77,64,71
69.69224,69.7944,82,64,71
69.923004,70.02517,81,64,71
70.15378,70.557625,74,64,71
71.07685,71.4807,74,64,71
71.99993,72.923004,74,64,71
72.923004,74.24992,72,64,71
74.76916,75.69223,77,64,71
75.69223,76.61531,76,64,71
76.61531,77.423,75,64,71
77.53838,77.94223,74,64,71
78.69223,78.794395,74,64,71
78.923,79.02516,74,64,71
79.15377,79.25593,74,64,71
79.38454,80.999916,74,64,71
81.23069,82.84607,67,64,71
83.07684,83.999916,69,64,71
83.999916,84.80761,70,64,71
84.92299,85.84607,69,64,71
85.84607,86.65376,70,64,71
86.76914,87.89414,69,64,71
87.92299,88.025154,72,64,71
88.153755,88.25592,72,64,71
88.38453,88.48669,72,64,71
88.615295,89.01914,70,64,71
89.53837,89.942215,74,64,71
90.46145,92.71145,77,64,71
92.769135,93.22827,77,64,71
93.230675,93.68981,77,64,71
93.692215,94.12491,77,64,71
94.153755,94.20904,77,64,71
94.21144,94.269135,76,64,71
94.269135,94.32683,77,64,71
94.32683,94.38452,76,64,71
94.38452,94.442215,77,64,71
94.442215,94.49991,76,64,71
94.49991,94.557594,77,64,71
94.557594,94.61529,76,64,71
94.61529,94.67298,77,64,71
94.67298,94.730675,76,64,71
94.730675,94.78837,77,64,71
94.78837,94.84606,76,64,71
94.84606,94.90375,77,64,71
94.90375,94.96144,76,64,71
94.96144,95.019135,77,64,71
95.019135,95.07683,76,64,71
95.07683,95.13452,77,64,71
95.13452,95.192215,76,64,71
95.192215,95.24991,77,64,71
95.24991,95.307594,76,64,71
95.307594,95.36529,77,64,71
95.36529,95.42298,76,64,71
95.42298,95.480675,77,64,71
95.480675,95.53837,76,64,71
95.53837,95.59606,77,64,71
95.59606,95.65375,76,64,71
95.65375,95.71144,77,64,71
95.71144,95.769135,76,64,71
95.769135,95.88452,74,64,71
95.88452,95.98548,76,64,71
95.9999,96.40375,77,64,71
103.61528,103.73067,81,64,71
103.73067,103.83163,80,64,71
103.84605,103.94821,81,64,71
104.07682,104.1922,81,64,71
104.1922,104.29317,80,64,71
104.30759,104.40975,81,64,71
104.53836,104.65374,81,64,71
104.65374,104.7547,80,64,71
104.76913,104.884514,81,64,71
104.884514,104.99989,80,64,71
104.99989,105.11528,81,64,71
105.11528,105.21624,80,64,71
105.23067,105.332825,81,64,71
105.46143,105.5636,79,64,71
105.6922,105.794365,77,64,71
105.92297,106.02513,76,64,71
106.15374,106.255905,74,64,71
106.38451,106.48667,72,64,71
106.61528,106.71744,70,64,71
106.84605,106.94821,69,64,71
107.07681,107.53835,67,64,71
107.53835,107.99989,72,64,71
107.99989,108.46143,76,64,71
108.46143,108.86527,79,64,71
108.922966,109.49989,82,64,71
109.49989,109.61527,81,64,71
109.61527,109.73066,79,64,71
109.73066,109.83162,77,64,71
109.84605,110.05037,76,64,71
110.30758,110.51191,76,64,71
110.76912,111.172966,77,64,71
118.3845,118.49988,81,64,71
118.49988,118.600845,80,64,71
118.615265,118.71743,81,64,71
118.84603,118.96142,81,64,71
118.96142,119.06238,80,64,71
119.076805,119.17897,81,64,71
119.30757,119.42296,81,64,71
119.42296,119.52392,80,64,71
119.538345,119.653725,81,64,71
119.653725,119.76911,80,64,71
119.76911,119.8845,81,64,71
119.8845,119.98546,80,64,71
119.99988,120.10204,81,64,71
120.23065,120.33281,79,64,71
120.46142,120.56358,77,64,71
120.692184,120.79435,76,64,71
120.92296,121.025116,74,64,71
121.153725,121.25589,72,64,71
121.38449,121.48666,70,64,71
121.615265,121.71743,69,64,71
121.84603,122.76911,67,64,71
122.76911,123.230644,72,64,71
123.230644,123.63449,76,64,71
123.692184,123.80757,79,64,71
123.80757,123.92295,77,64,71
123.92295,124.03834,76,64,71
124.03834,124.1393,74,64,71
124.153725,124.269104,76,64,71
124.269104,124.38449,77,64,71
124.38449,124.49988,79,64,71
124.49988,124.60084,81,64,71
124.61526,124.716225,82,64,71
124.730644,124.831604,81,64,71
124.84603,124.94699,79,64,71
124.96141,125.06238,77,64,71
125.0768,125.17776,76,64,71
125.192184,125.293144,74,64,71
125.30756,125.40853,72,64,71
125.42295,125.52391,70,64,71
125.53834,125.65372,69,64,71
125.65372,125.769104,65,64,71
125.769104,125.88449,60,64,71
125.88449,125.98545,57,64,71
125.99987,126.11526,53,64,71
126.11526,126.230644,57,64,71
126.230644,126.34603,60,64,71
126.34603,126.44699,65,64,71
126.46141,126.563576,69,64,71
126.692184,126.79434,72,64,71
126.92295,127.025116,77,64,71
127.15372,127.25588,81,64,71
127.38449,128.50949,84,64,71
128.53833,128.6405,86,64,71
128.7691,128.87126,88,64,71
128.99988,129.10204,89,64,71
129.23064,130.03833,60,64,71
130.15372,130.21141,81,64,71
130.21141,130.2691,79,64,71
130.2691,130.3268,81,64,71
130.3268,130.38449,79,64,71
130.38449,130.44218,81,64,71
130.44218,130.49986,79,64,71
130.49986,130.55756,81,64,71
130.55756,130.61525,79,64,71
130.61525,130.67294,81,64,71
130.67294,130.73064,79,64,71
130.73064,130.78833,81,64,71
130.78833,130.84602,79,64,71
130.84602,130.96141,77,64,71
130.96141,131.06236,79,64,71
131.0768,131.48064,77,64,71
135.46141,135.66333,77,64,71
135.69217,135.92294,78,64,71
135.92294,136.12486,79,64,71
136.15372,136.25587,79,64,71
136.38448,136.48665,79,64,71
136.61525,136.84602,76,64,71
136.84602,137.04794,77,64,71
137.07678,137.17896,77,64,71
137.30756,137.40971,77,64,71
137.53833,137.76909,73,64,71
137.76909,137.99986,74,64,71
137.99986,138.23064,75,64,71
138.23064,138.43256,76,64,71
138.4614,138.69217,79,64,71
138.69217,138.89409,77,64,71
138.92294,139.0251,77,64,71
139.1537,139.25587,77,64,71
139.38448,139.61525,78,64,71
139.61525,139.81717,79,64,71
139.84601,139.94818,79,64,71
140.07678,140.17894,79,64,71
140.30756,140.53831,76,64,71
140.53831,140.74025,77,64,71
140.76909,140.87125,77,64,71
140.99986,141.10202,77,64,71
141.23062,141.4614,82,64,71
141.4614,141.69217,79,64,71
141.69217,141.92293,74,64,71
141.92293,142.12486,76,64,71
142.1537,142.38448,79,64,71
142.38448,142.5864,77,64,71
142.61523,142.7174,77,64,71
142.84601,142.94818,77,64,71
143.07678,143.30756,82,64,71
143.30756,143.53831,79,64,71
143.53831,143.76909,74,64,71
143.76909,143.97101,76,64,71
143.99986,144.23062,79,64,71
144.23062,144.43254,77,64,71
144.4614,144.56355,77,64,71
144.69217,144.79433,77,64,71
144.92293,145.1537,82,64,71
145.1537,145.38448,79,64,71
145.38448,145.61523,74,64,71
145.61523,145.81717,76,64,71
145.84601,146.24985,77,64,71
146.30754,146.61043,81,64,71
146.6537,146.75465,81,64,71
146.76909,147.17293,77,64,71
147.69215,148.49985,74,64,71
148.61523,149.22101,69,64,71
149.30754,149.40971,77,64,71
149.53831,149.74265,74,64,71
150.23062,150.34601,77,64,71
150.34601,150.44696,81,64,71
150.4614,150.57677,79,64,71
150.57677,150.69215,77,64,71
150.69215,150.80754,76,64,71
150.80754,150.90851,74,64,71
150.92293,151.03831,73,64,71
151.03831,151.1537,74,64,71
151.1537,151.26907,76,64,71
151.26907,151.37004,73,64,71
151.38446,151.58879,69,64,71
151.84601,152.05032,69,64,71
152.30754,152.36523,70,64,71
152.36523,152.42293,69,64,71
152.42293,152.48062,70,64,71
152.48062,152.53831,69,64,71
152.53831,152.59601,70,64,71
152.59601,152.65369,69,64,71
152.65369,152.71138,70,64,71
152.71138,152.76907,69,64,71
152.76907,152.82677,70,64,71
152.82677,152.88446,69,64,71
152.88446,152.94215,70,64,71
152.94215,152.99985,69,64,71
152.99985,153.11523,71,64,71
153.11523,153.21619,73,64,71
153.23062,153.63446,74,64,71
153.92293,154.03831,77,64,71
154.03831,154.13927,81,64,71
154.15369,154.26907,79,64,71
154.26907,154.38446,77,64,71
154.38446,154.49985,76,64,71
154.49985,154.6008,74,64,71
154.61523,154.73062,73,64,71
154.73062,154.846,74,64,71
154.846,154.96138,76,64,71
154.96138,155.06235,73,64,71
155.07677,155.2811,69,64,71
155.5383,155.74263,69,64,71
155.99985,156.05513,74,64,71
156.05754,156.11523,72,64,71
156.11523,156.17293,74,64,71
156.17293,156.2306,72,64,71
156.2306,156.2883,74,64,71
156.2883,156.346,72,64,71
156.346,156.40369,74,64,71
156.40369,156.46138,72,64,71
156.46138,156.51907,74,64,71
156.51907,156.57677,72,64,71
156.57677,156.63446,74,64,71
156.63446,156.69215,72,64,71
156.69215,156.80754,74,64,71
156.80754,156.9085,72,64,71
156.92291,157.7306,74,64,71
157.846,158.45177,65,64,71
158.5383,158.64047,74,64,71
158.76907,158.9734,70,64,71
159.46138,159.57677,74,64,71
159.57677,159.67772,77,64,71
159.69215,159.80753,75,64,71
159.80753,159.92291,74,64,71
159.92291,160.0383,72,64,71
160.0383,160.13927,70,64,71
160.15369,160.26907,69,64,71
160.26907,160.38446,70,64,71
160.38446,160.49983,72,64,71
160.49983,160.6008,69,64,71
160.61522,160.81955,65,64,71
161.07677,161.28108,65,64,71
161.5383,162.14407,70,64,71
162.2306,162.43253,70,64,71
162.46138,163.26907,75,64,71
163.38445,163.99022,70,64,71
164.07675,164.17892,79,64,71
164.30753,165.11522,75,64,71
165.2306,165.83638,70,64,71
165.92291,166.02507,79,64,71
166.15369,166.358,75,64,71
166.61522,166.81955,70,64,71
167.07675,167.28108,67,64,71
167.5383,167.74261,63,64,71
167.99983,168.69214,70,64,71
168.69214,168.89406,72,64,71
168.92291,169.12723,70,64,71
169.38445,169.58878,75,64,71
169.84598,170.05031,70,64,71
170.30753,170.51186,77,64,71
170.76906,170.97339,70,64,71
171.23059,171.43492,79,64,71
171.69214,172.09598,70,64,71
173.53828,175.15367,58,64,71
175.38445,176.99982,60,64,71
177.23059,178.6152,65,64,71
178.6152,179.01906,62,64,71
179.07674,179.68251,58,64,71
179.76906,179.97098,63,64,71
179.99982,180.40367,67,64,71
181.15367,181.25583,63,64,71
181.38443,181.4866,63,64,71
181.6152,181.71736,63,64,71
181.84598,181.94814,63,64,71
182.07674,182.17891,63,64,71
182.30751,182.40967,63,64,71
182.53828,182.64044,63,64,71
182.76904,183.1729,63,64,71
183.9229,184.02505,63,64,71
184.15366,184.25583,63,64,71
184.38443,184.48659,63,64,71
184.6152,185.01904,63,64,71
185.76904,185.87122,63,64,71
185.99982,186.10197,63,64,71
186.23058,186.33275,63,64,71
186.46135,186.8652,63,64,71
187.38443,187.78827,75,64,71
188.30751,189.92288,75,64,71
190.15366,190.20894,75,64,71
190.21135,190.26904,74,64,71
190.26904,190.32674,75,64,71
190.32674,190.38443,74,64,71
190.38443,190.44212,75,64,71
190.44212,190.49982,74,64,71
190.49982,190.5575,75,64,71
190.5575,190.61519,74,64,71
190.61519,190.67288,75,64,71
190.67288,190.73058,74,64,71
190.73058,190.78827,75,64,71
190.78827,190.84596,74,64,71
190.84596,190.90366,75,64,71
190.90366,190.96135,74,64,71
190.96135,191.01904,75,64,71
191.01904,191.07674,74,64,71
191.07674,191.13443,75,64,71
191.13443,191.19212,74,64,71
191.19212,191.2498,75,64,71
191.2498,191.3075,74,64,71
191.3075,191.36519,75,64,71
191.36519,191.42288,74,64,71
191.42288,191.48058,75,64,71
191.48058,191.53827,74,64,71
191.53827,191.59596,75,64,71
191.59596,191.65366,74,64,71
191.65366,191.71135,75,64,71
191.71135,191.76904,74,64,71
191.76904,191.88443,72,64,71
191.88443,191.98538,74,64,71
191.9998,192.8075,75,64,71
192.92288,193.52866,70,64,71
193.61519,193.71736,79,64,71
193.84596,194.0503,75,64,71
195.69211,196.4998,77,64,71
196.61519,197.22096,72,64,71
197.3075,197.40965,81,64,71
197.53827,197.74258,77,64,71
199.38441,200.19211,70,64,71
200.3075,200.91325,65,64,71
200.9998,201.10196,74,64,71
201.23058,201.43489,70,64,71
201.92288,202.03825,74,64,71
202.03825,202.13922,77,64,71
202.15364,202.26903,75,64,71
202.26903,202.38441,74,64,71
202.38441,202.4998,72,64,71
202.4998,202.60075,70,64,71
202.61519,202.73056,69,64,71
202.73056,202.84595,70,64,71
202.84595,202.96133,72,64,71
202.96133,203.0623,69,64,71
203.07672,203.28105,65,64,71
203.53825,203.74258,65,64,71
203.9998,204.05508,67,64,71
204.0575,204.11517,65,64,71
204.11517,204.17287,67,64,71
204.17287,204.23056,65,64,71
204.23056,204.28825,67,64,71
204.28825,204.34595,65,64,71
204.34595,204.40364,67,64,71
204.40364,204.46133,65,64,71
204.46133,204.51903,67,64,71
204.51903,204.57672,65,64,71
204.57672,204.63441,67,64,71
204.63441,204.69211,65,64,71
204.69211,204.8075,67,64,71
204.8075,204.90845,69,64,71
204.92287,205.32672,70,64,71
205.61517,205.73056,74,64,71
205.73056,205.83153,77,64,71
205.84595,205.96133,75,64,71
205.96133,206.07672,74,64,71
206.07672,206.19211,72,64,71
206.19211,206.29306,70,64,71
206.30748,206.42287,69,64,71
206.42287,206.53825,70,64,71
206.53825,206.65364,72,64,71
206.65364,206.75461,69,64,71
206.76903,206.97336,65,64,71
207.23056,207.43489,65,64,71
207.6921,207.74739,67,64,71
207.74979,207.80748,65,64,71
207.80748,207.86517,67,64,71
207.86517,207.92287,65,64,71
207.92287,207.98056,67,64,71
207.98056,208.03825,65,64,71
208.03825,208.09595,67,64,71
208.09595,208.15364,65,64,71
208.15364,208.21133,67,64,71
208.21133,208.26903,65,64,71
208.26903,208.32672,67,64,71
208.32672,208.3844,65,64,71
208.3844,208.49979,67,64,71
208.49979,208.60075,69,64,71
208.61517,208.8195,70,64,71
210.23056,210.43248,77,64,71
210.46133,211.26901,82,64,71
211.3844,211.4397,82,64,71
211.4421,211.49979,81,64,71
211.49979,211.55748,82,64,71
211.55748,211.61517,81,64,71
211.61517,211.67287,82,64,71
211.67287,211.73056,81,64,71
211.73056,211.78825,82,64,71
211.78825,211.84595,81,64,71
211.84595,211.90364,82,64,71
211.90364,211.96132,81,64,71
211.96132,212.01901,82,64,71
212.01901,212.0767,81,64,71
212.0767,212.27864,82,64,71
212.30748,212.96854,81,64,71
212.97095,212.99979,81,64,71
212.99979,213.10075,79,64,71
213.11517,213.16565,77,64,71
213.17287,213.22334,79,64,71
213.23056,213.6344,77,64,71
213.92287,214.02502,79,64,71
214.15363,214.81468,77,64,71
214.8171,214.84593,77,64,71
214.84593,214.9469,75,64,71
214.96132,215.01181,74,64,71
215.01901,215.0695,75,64,71
215.0767,215.48056,74,64,71
215.76901,215.87119,75,64,71
215.99979,216.66084,74,64,71
216.66324,216.6921,74,64,71
216.6921,216.79305,72,64,71
216.80748,216.85796,70,64,71
216.86517,216.91565,72,64,71
216.92287,217.52863,70,64,71
217.61517,217.8171,70,64,71
217.84593,218.1921,69,64,71
218.1921,218.30748,72,64,71
218.30748,218.65363,70,64,71
218.65363,218.7546,74,64,71
218.76901,219.11516,72,64,71
219.11516,219.23055,75,64,71
219.23055,219.5767,74,64,71
219.5767,219.67766,79,64,71
219.6921,219.92285,77,64,71
219.92285,220.15363,76,64,71
220.15363,220.96132,75,64,71
221.0767,221.1921,74,64,71
221.1921,221.30746,77,64,71
221.30746,221.42285,75,64,71
221.42285,221.52382,72,64,71
221.53824,221.99738,70,64,71
221.99977,222.45891,70,64,71
222.46132,222.92046,72,64,71
222.92285,223.35555,72,64,71
223.3844,224.0767,75,64,71
224.0767,224.27863,74,64,71
224.30746,224.71132,74,64,71
224.99977,225.20169,77,64,71
225.23055,225.57669,81,64,71
225.57669,225.67766,82,64,71
225.69208,226.03824,76,64,71
226.03824,226.13919,77,64,71
226.15363,226.49977,73,64,71
226.49977,226.60074,74,64,71
226.61516,226.96132,69,64,71
226.96132,227.06227,70,64,71
227.07669,227.30746,66,64,71
227.30746,227.50938,67,64,71
227.53824,227.65363,67,64,71
227.65363,227.769,63,64,71
227.769,227.88438,58,64,71
227.88438,227.98535,55,64,71
227.99977,228.10193,51,64,71
228.23055,228.4613,79,64,71
228.4613,228.69208,81,64,71
228.69208,228.894,82,64,71
228.92285,229.15361,82,64,71
229.15361,229.38438,81,64,71
229.38438,229.61516,79,64,71
229.61516,229.81708,77,64,71
229.84592,229.9613,76,64,71
229.9613,230.07669,77,64,71
230.07669,230.19208,79,64,71
230.19208,230.29305,77,64,71
230.30746,230.42285,77,64,71
230.42285,230.53824,75,64,71
230.53824,230.65361,74,64,71
230.65361,230.75458,72,64,71
230.769,230.87117,70,64,71
230.99977,231.11516,82,64,71
231.11516,231.21611,77,64,71
231.23055,231.3315,74,64,71
231.34592,231.44688,70,64,71
231.4613,231.56227,65,64,71
231.57669,231.67766,62,64,71
231.69208,231.79424,58,64,71
231.92285,232.02501,58,64,71
232.15361,232.25578,58,64,71
232.38438,232.48654,58,64,71
232.61516,232.71732,58,64,71
232.84592,232.94809,58,64,71
233.07669,233.17885,58,64,71
233.30746,233.40962,58,64,71
233.53822,233.6404,58,64,71
233.769,233.87115,58,64,71
233.99977,234.10193,58,64,71
234.23053,234.3327,58,64,71
234.4613,235.67284,58,64,71
236.30745,236.7113,51,64,71
237.23053,237.63438,51,64,71
238.15361,238.55745,53,64,71
238.61514,238.81947,65,64,71
239.07669,239.281,53,64,71
239.99976,241.61514,57,64,71
241.84592,242.30745,58,64,71
242.30745,242.76898,62,64,71
242.76898,243.23053,65,64,71
243.23053,243.63437,70,64,71
243.69206,244.1536,72,64,71
244.1536,244.61514,69,64,71
244.61514,245.01898,65,64,71
245.53822,245.99976,58,64,71
245.99976,246.46129,62,64,71
246.46129,246.92284,65,64,71
246.92284,247.32668,70,64,71
247.38437,247.8459,72,64,71
247.8459,248.30745,69,64,71
248.30745,248.71129,65,64,71
249.23051,250.1536,70,64,71
250.1536,250.96129,66,64,71
251.07668,251.99974,67,64,71
251.99974,252.80743,62,64,71
252.92282,253.61513,63,64,71
253.61513,253.81705,65,64,71
253.8459,254.05023,63,64,71
254.76898,254.9733,63,64,71
256.61514,257.01898,65,64,71
257.07666,257.4805,65,64,71
257.5382,257.94205,65,64,71
257.99976,258.4036,65,64,71
258.46127,258.8651,53,64,71
258.92282,259.32666,53,64,71
259.38437,259.7882,53,64,71
259.8459,260.24973,53,64,71
260.30743,260.71127,58,64,71
264.2305,264.3459,79,64,71
264.3459,264.44684,78,64,71
264.46127,264.56345,79,64,71
264.69205,264.80743,79,64,71
264.80743,264.9084,78,64,71
264.92282,265.02496,79,64,71
265.1536,265.26895,79,64,71
265.26895,265.36993,78,64,71
265.38434,265.49973,79,64,71
265.49973,265.6151,78,64,71
265.6151,265.7305,79,64,71
265.7305,265.83145,78,64,71
265.8459,265.94806,79,64,71
266.07666,266.17883,77,64,71
266.30743,266.40958,75,64,71
266.5382,266.64035,74,64,71
266.76895,266.87112,72,64,71
266.99973,267.1019,70,64,71
267.2305,267.33267,69,64,71
267.46127,267.56345,67,64,71
267.69205,269.30743,65,64,71
269.53818,270.46127,70,64,71
270.46127,271.26895,74,64,71
271.38434,273.63434,63,64,71
273.69205,273.89636,72,64,71
274.15356,274.3579,69,64,71
274.6151,274.81943,81,64,71
275.07666,275.4805,82,64,71
278.99973,279.1151,79,64,71
279.1151,279.21606,78,64,71
279.2305,279.33264,79,64,71
279.46127,279.57663,79,64,71
279.57663,279.6776,78,64,71
279.69202,279.7942,79,64,71
279.9228,280.03818,79,64,71
280.03818,280.13913,78,64,71
280.15356,280.26895,79,64,71
280.26895,280.38434,78,64,71
280.38434,280.49973,79,64,71
280.49973,280.60068,78,64,71
280.6151,280.71725,79,64,71
280.8459,280.94803,77,64,71
281.07663,281.1788,75,64,71
281.3074,281.40958,74,64,71
281.53818,281.64035,72,64,71
281.76895,281.87112,70,64,71
281.99973,282.10187,69,64,71
282.2305,282.33264,67,64,71
282.46124,284.71124,65,64,71
284.76895,285.23047,70,64,71
285.23047,285.69202,74,64,71
285.69202,286.09586,77,64,71
286.15356,287.76895,75,64,71
287.99973,288.11508,75,64,71
288.11508,288.23047,74,64,71
288.23047,288.34586,72,64,71
288.34586,288.44684,70,64,71
288.46124,288.57663,69,64,71
288.57663,288.69202,70,64,71
288.69202,288.8074,72,64,71
288.8074,288.90836,74,64,71
288.9228,289.03818,75,64,71
289.03818,289.15356,74,64,71
289.15356,289.26895,75,64,71
289.26895,289.3699,77,64,71
289.38434,289.49973,79,64,71
289.49973,289.61508,77,64,71
289.61508,289.73047,79,64,71
289.73047,289.83145,81,64,71
289.84586,289.94803,82,64,71
290.07663,290.17758,82,64,71
290.19202,290.29297,77,64,71
290.3074,290.40836,74,64,71
290.4228,290.52374,70,64,71
290.53818,290.63913,65,64,71
290.65356,290.75452,62,64,71
290.76895,290.8699,58,64,71
290.88434,290.9853,62,64,71
290.9997,291.10068,65,64,71
291.11508,291.21606,62,64,71
291.23047,291.4324,58,64,71
291.46124,291.66318,82,64,71
291.69202,291.8074,51,64,71
291.8074,291.9228,58,64,71
291.9228,292.03818,55,64,71
292.03818,292.13913,58,64,71
292.15356,292.26895,51,64,71
292.26895,292.3843,58,64,71
292.3843,292.4997,55,64,71
292.4997,292.60068,58,64,71
292.61508,292.73047,51,64,71
292.73047,292.84586,55,64,71
292.84586,292.96124,58,64,71
292.96124,293.07663,63,64,71
293.07663,293.19202,67,64,71
293.19202,293.3074,70,64,71
293.3074,293.4228,75,64,71
293.4228,293.52374,79,64,71
293.53818,293.64032,82,64,71
293.76895,293.8699,82,64,71
293.8843,293.9853,79,64,71
293.9997,294.10068,75,64,71
294.11508,294.21606,70,64,71
294.23047,294.33145,67,64,71
294.34586,294.4468,63,64,71
294.46124,294.5622,58,64,71
294.57663,294.67758,63,64,71
294.69202,294.79297,58,64,71
294.8074,294.90836,55,64,71
294.9228,295.02493,51,64,71
295.15356,295.2557,52,64,71
295.3843,295.78818,53,64,71
295.84586,295.96124,76,64,71
295.96124,296.07663,77,64,71
296.07663,296.19202,79,64,71
296.19202,296.29297,77,64,71
296.3074,296.40836,82,64,71
296.4228,296.52374,81,64,71
296.53818,296.63913,79,64,71
296.65356,296.75452,77,64,71
296.76892,296.8699,75,64,71
296.8843,296.9853,74,64,71
296.9997,297.10068,72,64,71
297.11508,297.21603,70,64,71
297.23047,297.28818,74,64,71
297.28818,297.34586,72,64,71
297.34586,297.40353,74,64,71
297.40353,297.46124,72,64,71
297.46124,297.51892,74,64,71
297.51892,297.57663,72,64,71
297.57663,297.6343,74,64,71
297.6343,297.69202,72,64,71
297.69202,297.7497,74,64,71
297.7497,297.8074,72,64,71
297.8074,297.86508,74,64,71
297.86508,297.9228,72,64,71
297.9228,297.98047,74,64,71
297.98047,298.03818,72,64,71
298.03818,298.09586,74,64,71
298.09586,298.15353,72,64,71
298.15353,298.21124,74,64,71
298.21124,298.26892,72,64,71
298.26892,298.32663,74,64,71
298.32663,298.3843,72,64,71
298.3843,298.44202,74,64,71
298.44202,298.4997,72,64,71
298.4997,298.5574,74,64,71
298.5574,298.61508,72,64,71
298.61508,298.6728,74,64,71
298.6728,298.73047,72,64,71
298.73047,298.78818,74,64,71
298.78818,298.84586,72,64,71
298.84586,298.96124,70,64,71
298.96124,299.0622,72,64,71
299.07663,299.48047,70,64,71
303.46124,303.66315,70,64,71
303.69202,303.92276,71,64,71
303.92276,304.1247,72,64,71
304.15353,304.2557,72,64,71
304.3843,304.48648,72,64,71
304.61508,304.84586,69,64,71
304.84586,305.04776,70,64,71
305.07663,305.17877,70,64,71
305.30737,305.40955,70,64,71
305.53815,305.76892,75,64,71
305.76892,305.9997,72,64,71
305.9997,306.23047,67,64,71
306.23047,306.43237,69,64,71
306.46124,306.692,72,64,71
306.692,306.89392,70,64,71
306.92276,307.02493,70,64,71
307.15353,307.2557,70,64,71
307.3843,307.61508,71,64,71
307.61508,307.817,72,64,71
307.84586,307.948,72,64,71
308.07663,308.17877,72,64,71
308.30737,308.53815,69,64,71
308.53815,308.74008,70,64,71
308.76892,308.8711,70,64,71
308.9997,309.10187,70,64,71
309.23047,309.46124,75,64,71
309.46124,309.692,72,64,71
309.692,309.92276,67,64,71
309.92276,310.1247,69,64,71
310.15353,310.3843,72,64,71
310.3843,310.58624,70,64,71
310.61508,310.84586,74,64,71
310.84586,311.04776,70,64,71
311.0766,311.30737,75,64,71
311.30737,311.53815,72,64,71
311.53815,311.76892,67,64,71
311.76892,311.97086,69,64,71
311.9997,312.23047,72,64,71
312.23047,312.43237,70,64,71
312.4612,312.692,74,64,71
312.692,312.89392,70,64,71
312.92276,313.15353,75,64,71
313.15353,313.3843,72,64,71
313.3843,313.61508,67,64,71
313.61508,313.817,69,64,71
313.84583,314.0766,72,64,71
314.0766,314.27853,70,64,71
314.30737,314.53815,74,64,71
314.53815,314.74008,70,64,71
314.76892,314.9997,75,64,71
314.9997,315.23047,72,64,71
315.23047,315.4612,67,64,71
315.4612,315.66315,69,64,71
315.692,316.09583,70,64,71
316.15353,316.45642,74,64,71
316.4997,316.60065,74,64,71
316.61508,317.01892,70,64,71
0.0,0.8076915,70,64,60
0.923076,1.5288446,65,64,60
1.615383,1.7175463,65,64,60
1.846152,2.0504787,58,64,60
3.692304,3.8966308,65,64,60
4.153842,4.3581686,65,64,60
4.61538,5.2211485,65,64,60
5.307687,5.5096097,65,64,60
5.538456,5.9423018,58,64,60
7.384608,7.588935,65,64,60
7.846146,8.050472,65,64,60
8.307684,8.913452,65,64,60
8.999991,9.201914,65,64,60
9.23076,9.332923,58,64,60
9.461529,9.563692,58,64,60
9.692298,9.794461,58,64,60
9.923067,10.02523,58,64,60
10.153836,10.256,58,64,60
10.384605,10.486769,58,64,60
10.615374,10.717537,58,64,60
10.846143,10.948306,58,64,60
11.076912,14.538447,58,64,60
15.230754,15.692292,67,64,60
15.692292,16.096138,65,64,60
16.15383,16.358156,70,64,60
17.076906,17.538445,63,64,60
17.538445,17.94229,62,64,60
17.999983,18.20431,58,64,60
18.46152,20.076902,65,64,60
20.307673,21.230747,67,64,60
21.230747,21.692286,69,64,60
21.692286,22.096132,70,64,60
24.230745,24.45911,65,64,60
24.461514,24.689878,65,64,60
24.692284,24.920649,65,64,60
24.923052,25.151417,65,64,60
25.153822,25.382187,65,64,60
25.38459,25.612955,65,64,60
25.615358,25.831705,65,64,60
25.846128,26.249973,65,64,60
28.153818,28.358145,63,64,60
28.615356,28.819683,63,64,60
30.461508,31.2692,65,64,60
31.384584,31.78843,58,64,60
33.230736,34.03843,70,64,60
34.153812,34.759583,65,64,60
34.84612,34.948284,65,64,60
35.07689,35.281216,58,64,60
36.92304,37.127365,65,64,60
37.38458,37.588905,65,64,60
37.846115,38.451885,65,64,60
38.53842,38.740345,65,64,60
38.76919,39.17304,58,64,60
40.615345,40.81967,67,64,60
41.07688,41.281208,67,64,60
41.53842,42.144188,67,64,60
42.23073,42.43265,67,64,60
42.461494,42.86534,67,64,60
44.307648,44.999954,67,64,60
44.999954,45.201878,65,64,60
45.230724,45.63457,64,64,60
46.615337,46.819664,67,64,60
47.076878,47.281204,67,64,60
48.46149,48.665817,67,64,60
48.923027,49.127354,67,64,60
50.307644,50.76918,67,64,60
50.76918,51.173027,65,64,60
51.692257,55.15379,65,64,60
55.38456,56.769173,58,64,60
56.769173,57.17302,59,64,60
57.230713,57.63456,60,64,60
57.69225,58.096096,60,64,60
58.15379,58.557632,60,64,60
58.615326,58.91821,67,64,60
58.96148,59.062443,67,64,60
59.076862,60.288403,67,64,60
60.46148,60.764362,67,64,60
60.807632,60.908592,67,64,60
60.923016,62.134552,67,64,60
62.30763,62.610516,67,64,60
62.65378,62.754745,67,64,60
62.76917,64.38455,67,64,60
64.61532,65.019165,65,64,60
73.84608,77.94223,65,64,60
86.76914,88.38453,65,64,60
88.615295,89.01914,58,64,60
89.53837,89.942215,58,64,60
90.46145,92.07683,58,64,60
92.53837,92.64053,65,64,60
92.769135,92.8713,65,64,60
92.99991,93.10207,65,64,60
93.230675,93.33284,65,64,60
93.46145,93.56361,65,64,60
93.692215,93.79438,65,64,60
93.92298,94.02515,65,64,60
94.38452,94.48669,67,64,60
94.61529,94.71745,67,64,60
94.84606,94.94822,67,64,60
95.07683,95.28116,67,64,60
96.46144,96.92298,65,64,60
96.92298,97.38452,64,64,60
97.38452,97.78836,63,64,60
97.846054,98.769135,62,64,60
98.769135,99.57682,60,64,60
99.69221,101.94221,58,64,60
102.46143,102.86528,58,64,60
103.384514,105.43499,65,64,60
105.6922,105.89653,65,64,60
106.15374,106.35807,65,64,60
106.61528,106.8196,65,64,60
107.07681,109.32681,67,64,60
109.84605,110.24989,67,64,60
111.23066,111.6922,65,64,60
111.6922,112.15373,64,64,60
112.15373,112.55758,63,64,60
112.61527,113.538345,62,64,60
113.538345,114.34604,60,64,60
114.461426,117.92296,58,64,60
118.153725,120.20421,65,64,60
120.46142,120.66574,65,64,60
120.92296,121.12728,65,64,60
121.38449,121.58882,65,64,60
121.84603,124.09603,67,64,60
124.153725,124.35805,67,64,60
124.61526,124.81959,67,64,60
125.0768,125.28113,67,64,60
125.53834,125.942184,65,64,60
127.38449,129.63449,65,64,60
131.0768,138.86525,65,64,60
139.38448,140.30756,70,64,60
140.30756,141.23062,69,64,60
141.23062,142.03831,67,64,60
142.1537,143.07678,65,64,60
143.07678,143.88448,67,64,60
143.99986,144.92293,65,64,60
144.92293,145.73062,67,64,60
145.84601,146.24985,65,64,60
146.30754,146.61043,65,64,60
146.6537,146.75465,65,64,60
146.76909,147.17293,65,64,60
147.69215,148.49985,65,64,60
148.61523,149.22101,65,64,60
149.30754,149.40971,65,64,60
149.53831,149.74265,65,64,60
153.23062,153.63446,65,64,60
155.99985,156.6056,65,64,60
156.69215,156.89407,65,64,60
156.92291,157.7306,70,64,60
157.846,158.45177,65,64,60
158.5383,158.64047,65,64,60
158.76907,158.9734,58,64,60
161.5383,162.14407,65,64,60
162.2306,162.43253,65,64,60
162.46138,163.26907,63,64,60
163.38445,163.99022,58,64,60
164.07675,164.17892,67,64,60
164.30753,165.11522,63,64,60
165.2306,165.83638,58,64,60
165.92291,166.02507,67,64,60
166.15369,166.358,63,64,60
166.61522,166.81955,70,64,60
167.07675,167.28108,67,64,60
167.5383,167.74261,63,64,60
167.99983,169.21136,58,64,60
169.38445,169.58878,58,64,60
169.84598,171.05753,58,64,60
171.23059,171.43492,58,64,60
171.69214,172.09598,58,64,60
172.61522,172.81714,70,64,60
172.84598,173.0479,68,64,60
173.07675,173.27867,67,64,60
173.30753,173.50945,65,64,60
173.53828,173.94214,63,64,60
173.99983,174.66328,63,64,60
174.69214,174.80751,65,64,60
174.80751,174.90848,63,64,60
174.9229,175.12483,62,64,60
175.15367,175.35559,63,64,60
175.38445,175.6152,67,64,60
175.6152,175.81714,65,64,60
175.84598,176.65367,65,64,60
176.76906,176.97098,65,64,60
176.99982,177.20175,67,64,60
177.23059,177.46136,70,64,60
177.46136,177.69212,68,64,60
177.69212,177.9229,67,64,60
177.9229,178.12482,65,64,60
178.15367,178.38443,63,64,60
178.38443,178.6152,62,64,60
178.6152,178.84598,65,64,60
178.84598,178.99742,68,64,60
179.01906,179.07674,70,64,60
179.07674,179.30751,68,64,60
179.30751,179.50943,67,64,60
179.53828,179.94212,67,64,60
180.23059,180.33275,70,64,60
180.46136,180.56352,70,64,60
180.69212,180.7943,70,64,60
180.9229,181.15367,70,64,60
181.15367,181.35559,67,64,60
181.38443,182.19212,63,64,60
182.30751,182.71135,61,64,60
182.76904,182.97098,60,64,60
182.99982,183.1152,64,64,60
183.1152,183.21616,65,64,60
183.23059,183.33275,68,64,60
183.46135,183.56352,67,64,60
183.69212,184.81712,65,64,60
184.84596,184.96135,64,64,60
184.96135,185.06232,65,64,60
185.07674,185.1789,68,64,60
185.30751,185.40967,67,64,60
185.53827,186.66327,65,64,60
186.69212,186.80751,65,64,60
186.80751,186.90846,64,64,60
186.9229,187.02505,65,64,60
187.15366,187.26904,65,64,60
187.26904,187.37001,64,64,60
187.38443,187.49982,65,64,60
187.49982,187.6152,67,64,60
187.6152,187.73058,68,64,60
187.73058,187.83154,67,64,60
187.84596,187.94693,65,64,60
187.96135,188.06232,63,64,60
188.07674,188.1777,62,64,60
188.19212,188.29308,60,64,60
188.30751,188.50943,58,64,60
188.53827,188.63924,60,64,60
188.65366,188.75462,62,64,60
188.76904,188.87001,63,64,60
188.88443,188.98538,65,64,60
188.99982,189.10077,67,64,60
189.11519,189.21616,68,64,60
189.23058,189.33275,70,64,60
189.46135,189.5635,67,64,60
189.69212,189.79428,65,64,60
189.92288,190.02505,63,64,60
190.15366,190.21135,67,64,60
190.21135,190.26904,65,64,60
190.26904,190.32674,67,64,60
190.32674,190.38443,65,64,60
190.38443,190.44212,67,64,60
190.44212,190.49982,65,64,60
190.49982,190.5575,67,64,60
190.5575,190.61519,65,64,60
190.61519,190.67288,67,64,60
190.67288,190.73058,65,64,60
190.73058,190.78827,67,64,60
190.78827,190.84596,65,64,60
190.84596,190.90366,67,64,60
190.90366,190.96135,65,64,60
190.96135,191.01904,67,64,60
191.01904,191.07674,65,64,60
191.07674,191.13443,67,64,60
191.13443,191.19212,65,64,60
191.19212,191.2498,67,64,60
191.2498,191.3075,65,64,60
191.3075,191.36519,67,64,60
191.36519,191.42288,65,64,60
191.42288,191.48058,67,64,60
191.48058,191.53827,65,64,60
191.53827,191.59596,67,64,60
191.59596,191.65366,65,64,60
191.65366,191.71135,67,64,60
191.71135,191.76904,65,64,60
191.76904,191.88443,63,64,60
191.88443,191.98538,65,64,60
191.9998,192.8075,63,64,60
192.92288,193.52866,58,64,60
193.61519,193.71736,67,64,60
193.84596,194.0503,63,64,60
195.69211,196.4998,65,64,60
196.61519,197.22096,65,64,60
197.3075,197.40965,65,64,60
197.53827,197.74258,65,64,60
199.38441,200.19211,70,64,60
200.3075,200.91325,65,64,60
200.9998,201.10196,65,64,60
201.23058,201.43489,58,64,60
203.07672,203.28105,65,64,60
203.53825,203.74258,65,64,60
203.9998,204.60556,65,64,60
204.69211,204.89403,65,64,60
204.92287,205.32672,58,64,60
206.76903,206.97336,65,64,60
207.23056,207.43489,65,64,60
207.6921,208.29787,65,64,60
208.3844,208.58633,65,64,60
208.61517,208.71735,58,64,60
208.84595,208.9481,58,64,60
209.07672,209.17888,58,64,60
209.30748,209.40965,58,64,60
209.53825,209.64041,58,64,60
209.76903,209.87119,58,64,60
209.99979,210.10196,58,64,60
210.23056,210.33272,58,64,60
210.46133,213.92287,58,64,60
214.61517,215.0767,67,64,60
215.0767,215.48056,65,64,60
215.53824,215.74257,70,64,60
216.46132,216.92287,63,64,60
216.92287,217.3267,62,64,60
217.3844,217.58873,58,64,60
217.84593,219.46132,65,64,60
219.6921,220.61516,67,64,60
220.61516,221.0767,69,64,60
221.0767,221.48055,70,64,60
223.61516,223.71733,65,64,60
223.84593,223.94809,65,64,60
224.0767,224.17886,65,64,60
224.30746,224.40964,65,64,60
224.53824,224.6404,65,64,60
224.76901,224.87117,65,64,60
224.99977,225.10194,65,64,60
225.23055,225.63438,65,64,60
227.53824,227.74255,63,64,60
227.99977,228.2041,63,64,60
229.84592,230.65361,65,64,60
230.769,231.17285,58,64,60
232.61516,234.23053,58,64,60
234.4613,236.07669,63,64,60
236.769,237.17284,67,64,60
237.69206,238.09592,67,64,60
238.61514,238.81947,65,64,60
239.07669,239.281,65,64,60
241.84592,243.46129,58,64,60
243.69206,245.30745,65,64,60
245.53822,247.1536,58,64,60
247.38437,248.99976,65,64,60
249.23051,253.32668,58,64,60
254.76898,254.9733,63,64,60
256.8459,256.94806,65,64,60
257.07666,257.17883,65,64,60
257.30743,257.4096,65,64,60
257.5382,257.64038,65,64,60
257.76898,257.87112,65,64,60
257.99976,258.1019,65,64,60
258.2305,258.33267,65,64,60
258.46127,260.07666,65,64,60
260.30743,260.50937,58,64,60
260.76898,261.2305,70,64,60
261.2305,261.69205,69,64,60
261.69205,262.0959,68,64,60
262.1536,263.07666,67,64,60
263.07666,263.88434,65,64,60
263.99973,267.46127,63,64,60
267.69205,269.94205,58,64,60
269.99973,270.40356,58,64,60
270.46127,270.8651,58,64,60
270.92282,271.32666,58,64,60
271.38434,273.63434,65,64,60
274.15356,274.3579,65,64,60
275.07666,275.27856,58,64,60
275.53818,275.99973,70,64,60
275.99973,276.46127,69,64,60
276.46127,276.8651,68,64,60
276.9228,277.8459,67,64,60
277.8459,278.65356,65,64,60
278.76895,282.2305,63,64,60
282.46124,284.71124,58,64,60
284.76895,285.1728,58,64,60
285.23047,285.63434,58,64,60
285.69202,286.09586,58,64,60
286.15356,288.40356,65,64,60
288.46124,288.86508,65,64,60
288.9228,289.32663,65,64,60
289.38434,289.78818,65,64,60
289.84586,290.2497,65,64,60
295.3843,296.9997,70,64,60
297.23047,298.44202,65,64,60
298.61508,299.01892,65,64,60
299.07663,299.9997,65,64,60
299.9997,300.8074,67,64,60
300.9228,303.69202,65,64,60
303.69202,304.4997,67,64,60
304.61508,307.3843,65,64,60
307.3843,308.192,67,64,60
308.30737,309.51892,65,64,60
309.692,310.09586,65,64,60
310.15353,310.96124,65,64,60
311.0766,311.68237,65,64,60
311.76892,311.97086,65,64,60
311.9997,312.80737,65,64,60
312.92276,313.52853,65,64,60
313.61508,313.817,65,64,60
313.84583,314.65353,65,64,60
314.76892,315.3747,65,64,60
315.4612,315.66315,65,64,60
315.692,316.09583,65,64,60
316.15353,316.45642,70,64,60
316.4997,316.60065,70,64,60
316.61508,317.01892,58,64,60
0.0,0.8076915,58,64,70
0.923076,1.5288446,53,64,70
1.615383,1.7175463,62,64,70
1.846152,2.0504787,58,64,70
2.538459,2.6538434,62,64,70
2.6538434,2.7548048,65,64,70
2.769228,2.8846126,63,64,70
2.8846126,2.999997,62,64,70
2.999997,3.1153815,60,64,70
3.1153815,3.216343,58,64,70
3.230766,3.3461504,57,64,70
3.3461504,3.461535,58,64,70
3.461535,3.5769196,60,64,70
3.5769196,3.677881,57,64,70
3.692304,3.8966308,53,64,70
4.153842,4.3581686,53,64,70
4.61538,4.6706686,55,64,70
4.6730723,4.7307644,53,64,70
4.7307644,4.788457,55,64,70
4.788457,4.846149,53,64,70
4.846149,4.903841,55,64,70
4.903841,4.9615335,53,64,70
4.9615335,5.0192256,55,64,70
5.0192256,5.076918,53,64,70
5.076918,5.13461,55,64,70
5.13461,5.1923027,53,64,70
5.1923027,5.2499948,55,64,70
5.2499948,5.307687,53,64,70
5.307687,5.4230714,55,64,70
5.4230714,5.524033,57,64,70
5.538456,5.9423018,58,64,70
6.230763,6.3461475,62,64,70
6.3461475,6.4471087,65,64,70
6.461532,6.5769167,63,64,70
6.5769167,6.692301,62,64,70
6.692301,6.8076854,60,64,70
6.8076854,6.908647,58,64,70
6.92307,7.0384545,57,64,70
7.0384545,7.153839,58,64,70
7.153839,7.2692237,60,64,70
7.2692237,7.370185,57,64,70
7.384608,7.588935,53,64,70
7.846146,8.050472,53,64,70
8.307684,8.365376,57,64,70
8.365376,8.423068,55,64,70
8.423068,8.480761,57,64,70
8.480761,8.538453,55,64,70
8.538453,8.596146,57,64,70
8.596146,8.653837,55,64,70
8.653837,8.71153,57,64,70
8.71153,8.769222,55,64,70
8.769222,8.826914,57,64,70
8.826914,8.884606,55,64,70
8.884606,8.942299,57,64,70
8.942299,9.1153755,55,64,70
9.1153755,9.216337,57,64,70
9.23076,9.332923,58,64,70
9.461529,9.563692,58,64,70
9.692298,9.794461,58,64,70
9.923067,10.02523,58,64,70
10.153836,10.256,58,64,70
10.384605,10.486769,58,64,70
10.615374,10.717537,58,64,70
10.846143,10.948306,58,64,70
11.076912,11.179075,58,64,70
11.307681,11.409844,46,64,70
11.53845,11.640614,46,64,70
11.769219,11.871383,46,64,70
11.999988,12.102151,46,64,70
12.230757,12.33292,46,64,70
12.461526,12.563689,46,64,70
12.692295,12.794458,46,64,70
12.923064,13.025228,46,64,70
13.153833,13.255997,46,64,70
13.384602,13.486765,46,64,70
13.615371,13.717534,46,64,70
13.84614,13.948303,46,64,70
14.076909,14.179072,46,64,70
14.307678,14.409842,46,64,70
14.538447,14.640611,46,64,70
14.769216,14.871379,46,64,70
14.999985,15.102148,46,64,70
15.230754,15.332917,46,64,70
15.461523,15.563686,46,64,70
15.692292,15.794456,46,64,70
15.923061,16.025225,46,64,70
16.15383,16.255993,46,64,70
16.3846,16.486763,46,64,70
16.615368,16.717531,46,64,70
16.846136,16.9483,46,64,70
17.076906,17.17907,46,64,70
17.307674,17.409838,46,64,70
17.538445,17.740366,46,64,70
17.769213,17.999983,58,64,70
17.999983,18.230751,60,64,70
18.230751,18.432674,62,64,70
18.46152,18.923058,63,64,70
18.923058,19.384596,62,64,70
19.384596,19.846134,57,64,70
19.846134,20.249979,58,64,70
20.307673,20.76921,55,64,70
20.76921,21.230747,60,64,70
21.230747,21.634594,57,64,70
21.692286,21.923056,58,64,70
21.923056,22.124977,53,64,70
22.153824,22.612959,50,64,70
22.615362,23.074495,50,64,70
23.0769,23.536034,53,64,70
23.538439,23.97113,53,64,70
23.999975,24.403822,58,64,70
24.461514,24.86536,46,64,70
24.923052,25.326899,46,64,70
25.38459,25.788435,46,64,70
25.846128,27.461512,50,64,70
27.69228,29.307663,51,64,70
29.538431,29.942278,53,64,70
29.99997,30.403816,53,64,70
30.461508,30.865355,41,64,70
30.923046,31.32689,41,64,70
31.384584,31.78843,46,64,70
32.423046,32.524006,46,64,70
32.53843,32.63939,48,64,70
32.653812,32.754776,50,64,70
32.7692,32.87016,51,64,70
32.884583,32.985542,53,64,70
32.999966,33.10093,55,64,70
33.115353,33.216312,57,64,70
33.230736,34.03843,58,64,70
34.153812,34.759583,53,64,70
34.84612,34.948284,62,64,70
35.07689,35.281216,58,64,70
35.769196,35.88458,62,64,70
35.88458,35.985542,65,64,70
35.999966,36.11535,63,64,70
36.11535,36.230732,62,64,70
36.230732,36.34612,60,64,70
36.34612,36.44708,58,64,70
36.461502,36.576885,57,64,70
36.576885,36.692272,58,64,70
36.692272,36.807655,60,64,70
36.807655,36.908615,57,64,70
36.92304,37.127365,53,64,70
37.38458,37.588905,53,64,70
37.846115,37.901405,55,64,70
37.90381,37.961502,53,64,70
37.961502,38.01919,55,64,70
38.01919,38.076885,53,64,70
38.076885,38.13458,55,64,70
38.13458,38.19227,53,64,70
38.19227,38.24996,55,64,70
38.24996,38.307655,53,64,70
38.307655,38.365345,55,64,70
38.365345,38.42304,53,64,70
38.42304,38.480732,55,64,70
38.480732,38.53842,53,64,70
38.53842,38.65381,55,64,70
38.65381,38.75477,57,64,70
38.76919,39.17304,58,64,70
39.4615,39.576885,62,64,70
39.576885,39.677845,65,64,70
39.69227,39.80765,63,64,70
39.80765,39.92304,62,64,70
39.92304,40.03842,60,64,70
40.03842,40.13938,58,64,70
40.153805,40.26919,57,64,70
40.26919,40.384575,58,64,70
40.384575,40.499958,60,64,70
40.499958,40.60092,57,64,70
40.615345,40.81967,55,64,70
41.07688,41.281208,55,64,70
41.53842,41.59611,55,64,70
41.59611,41.653805,53,64,70
41.653805,41.7115,55,64,70
41.7115,41.769188,53,64,70
41.769188,41.82688,55,64,70
41.82688,41.884575,53,64,70
41.884575,41.942265,55,64,70
41.942265,41.999958,53,64,70
41.999958,42.05765,55,64,70
42.05765,42.11534,53,64,70
42.11534,42.173035,55,64,70
42.173035,42.23073,53,64,70
42.23073,42.34611,52,64,70
42.34611,42.44707,50,64,70
42.461494,42.86534,48,64,70
46.615337,46.819664,48,64,70
47.076878,47.538414,48,64,70
47.538414,47.94226,50,64,70
47.99995,49.615334,52,64,70
49.846104,50.24995,53,64,70
50.307644,50.711487,41,64,70
50.99995,51.201874,57,64,70
51.230717,51.43264,58,64,70
51.461487,51.66341,60,64,70
51.692257,51.923023,60,64,70
51.923023,52.124947,53,64,70
52.153793,52.817253,53,64,70
52.8461,53.07687,55,64,70
53.07687,53.30764,56,64,70
53.30764,53.509563,57,64,70
53.538406,53.769176,57,64,70
53.769176,53.9711,50,64,70
53.999947,54.663406,50,64,70
54.692253,54.923023,62,64,70
54.923023,55.15379,60,64,70
55.15379,55.355713,58,64,70
55.38456,55.61533,57,64,70
55.61533,55.8461,55,64,70
55.8461,56.076866,54,64,70
56.076866,56.27879,55,64,70
56.307636,56.913406,62,64,70
56.999943,57.201866,53,64,70
57.230713,57.288403,57,64,70
57.288403,57.346096,55,64,70
57.346096,57.40379,57,64,70
57.40379,57.46148,55,64,70
57.46148,57.519173,57,64,70
57.519173,57.576866,55,64,70
57.576866,57.63456,57,64,70
57.63456,57.69225,55,64,70
57.69225,57.749943,57,64,70
57.749943,57.807636,55,64,70
57.807636,57.865326,57,64,70
57.865326,57.92302,55,64,70
57.92302,58.038403,52,64,70
58.038403,58.139366,53,64,70
58.15379,58.557632,52,64,70
58.615326,58.91821,48,64,70
58.96148,59.062443,48,64,70
59.076862,60.288403,48,64,70
60.46148,60.764362,48,64,70
60.807632,60.908592,48,64,70
60.923016,62.134552,48,64,70
62.30763,62.610516,48,64,70
62.65378,62.754745,48,64,70
62.76917,63.173016,48,64,70
63.230705,63.634552,48,64,70
63.692245,64.09609,48,64,70
64.153786,64.557625,48,64,70
64.61532,65.019165,41,64,70
65.07686,65.5384,53,64,70
65.5384,65.99993,55,64,70
65.99993,66.40378,57,64,70
66.46147,66.86532,58,64,70
67.384544,67.78839,46,64,70
68.307625,68.71147,53,64,70
69.2307,69.634544,41,64,70
70.15378,70.557625,46,64,70
71.07685,71.4807,46,64,70
71.99993,72.40377,46,64,70
72.461464,72.80762,55,64,70
72.80762,72.908585,53,64,70
72.923004,73.12733,52,64,70
73.384544,73.58887,60,64,70
73.84608,74.048004,53,64,70
74.07685,74.27877,53,64,70
74.30762,74.509544,53,64,70
74.53838,74.74031,53,64,70
74.76916,74.97108,53,64,70
74.99992,75.20185,53,64,70
75.2307,75.43262,53,64,70
75.461464,75.66338,53,64,70
75.69223,75.89416,55,64,70
75.923004,76.12492,55,64,70
76.15377,76.35569,55,64,70
76.38454,76.586464,55,64,70
76.61531,76.81723,57,64,70
76.84608,77.048,57,64,70
77.07684,77.27877,57,64,70
77.30762,77.50954,57,64,70
77.53838,77.94223,58,64,70
78.69223,78.794395,58,64,70
78.923,79.02516,55,64,70
79.15377,79.25593,57,64,70
79.38454,79.6153,60,64,70
79.6153,79.81723,58,64,70
79.84608,79.948235,55,64,70
80.07684,80.17901,57,64,70
80.30761,80.53838,60,64,70
80.53838,80.7403,58,64,70
80.76915,80.871315,59,64,70
80.999916,81.10208,55,64,70
81.23069,81.43261,60,64,70
81.46146,81.66338,48,64,70
81.69222,81.89415,48,64,70
81.923,82.124916,48,64,70
82.15376,82.35569,48,64,70
82.38454,82.6153,60,64,70
82.6153,82.84607,62,64,70
82.84607,83.048,64,64,70
83.07684,83.999916,65,64,70
83.999916,84.46146,64,64,70
84.46146,84.8653,67,64,70
84.92299,85.84607,65,64,70
85.84607,86.30761,64,64,70
86.30761,86.71145,67,64,70
86.76914,87.89414,65,64,70
87.92299,88.025154,57,64,70
88.153755,88.25592,57,64,70
88.38453,88.48669,57,64,70
88.615295,89.01914,58,64,70
90.46145,90.865295,46,64,70
90.92299,91.32683,46,64,70
91.38452,91.78837,46,64,70
91.84606,92.24991,46,64,70
92.3076,92.71145,48,64,70
92.769135,93.17298,48,64,70
93.230675,93.63452,48,64,70
93.692215,94.09606,48,64,70
94.153755,94.355675,60,64,70
94.38452,94.58644,60,64,70
94.61529,94.817215,60,64,70
94.84606,95.04798,60,64,70
95.07683,95.27875,60,64,70
95.307594,95.50952,60,64,70
95.53837,95.74029,60,64,70
95.769135,95.971054,60,64,70
95.9999,96.40375,53,64,70
103.61528,103.73067,65,64,70
103.73067,103.83163,64,64,70
103.84605,103.94821,65,64,70
104.07682,104.1922,65,64,70
104.1922,104.29317,64,64,70
104.30759,104.40975,65,64,70
104.53836,104.65374,65,64,70
104.65374,104.7547,64,64,70
104.76913,104.884514,65,64,70
104.884514,104.99989,64,64,70
104.99989,105.11528,65,64,70
105.11528,105.21624,64,64,70
105.23067,105.332825,65,64,70
105.46143,105.5636,64,64,70
105.6922,105.794365,62,64,70
105.92297,106.02513,60,64,70
106.15374,106.255905,58,64,70
106.38451,106.48667,57,64,70
106.61528,106.71744,55,64,70
106.84605,106.94821,53,64,70
107.07681,108.20181,48,64,70
108.23066,108.332825,48,64,70
108.46143,108.56359,48,64,70
108.6922,108.794365,48,64,70
108.922966,110.53835,48,64,70
110.76912,111.172966,53,64,70
118.3845,118.49988,65,64,70
118.49988,118.600845,64,64,70
118.615265,118.71743,65,64,70
118.84603,118.96142,65,64,70
118.96142,119.06238,64,64,70
119.076805,119.17897,65,64,70
119.30757,119.42296,65,64,70
119.42296,119.52392,64,64,70
119.538345,119.653725,65,64,70
119.653725,119.76911,64,64,70
119.76911,119.8845,65,64,70
119.8845,119.98546,64,64,70
119.99988,120.10204,65,64,70
120.23065,120.33281,64,64,70
120.46142,120.56358,62,64,70
120.692184,120.79435,60,64,70
120.92296,121.025116,58,64,70
121.153725,121.25589,57,64,70
121.38449,121.48666,55,64,70
121.615265,121.71743,53,64,70
121.84603,122.97103,48,64,70
122.99988,123.10204,48,64,70
123.230644,123.33281,48,64,70
123.46142,123.563576,48,64,70
123.692184,124.817184,48,64,70
124.84603,124.94819,48,64,70
125.0768,125.17896,48,64,70
125.30756,125.40973,48,64,70
125.53834,125.942184,53,64,70
126.46141,126.86526,53,64,70
127.38449,127.78833,53,64,70
127.84602,128.24988,53,64,70
128.30757,128.71141,53,64,70
128.7691,129.17294,53,64,70
129.23064,129.43256,60,64,70
129.46141,129.66333,60,64,70
129.69218,129.8941,60,64,70
129.92294,130.12486,60,64,70
130.15372,130.35564,48,64,70
130.38449,130.58641,48,64,70
130.61525,130.81718,48,64,70
130.84602,131.04794,48,64,70
131.0768,131.99986,57,64,70
131.99986,132.80756,58,64,70
132.92294,133.84602,57,64,70
133.84602,134.65372,58,64,70
134.76909,135.69217,57,64,70
135.69217,136.49986,58,64,70
136.61525,137.53833,57,64,70
137.53833,138.34601,58,64,70
138.4614,139.38448,57,64,70
139.38448,140.19217,58,64,70
140.30756,141.23062,57,64,70
141.23062,142.03831,55,64,70
142.1537,143.07678,53,64,70
143.07678,143.88448,55,64,70
143.99986,144.92293,53,64,70
144.92293,145.73062,55,64,70
145.84601,146.24985,53,64,70
146.30754,146.61043,53,64,70
146.6537,146.75465,53,64,70
146.76909,147.17293,53,64,70
147.69215,148.49985,50,64,70
148.61523,149.22101,45,64,70
149.30754,149.40971,53,64,70
149.53831,149.74265,50,64,70
150.23062,150.34601,53,64,70
150.34601,150.44696,57,64,70
150.4614,150.57677,55,64,70
150.57677,150.69215,53,64,70
150.69215,150.80754,52,64,70
150.80754,150.90851,50,64,70
150.92293,151.03831,49,64,70
151.03831,151.1537,50,64,70
151.1537,151.26907,52,64,70
151.26907,151.37004,49,64,70
151.38446,151.58879,45,64,70
151.84601,152.05032,45,64,70
152.30754,152.36523,46,64,70
152.36523,152.42293,45,64,70
152.42293,152.48062,46,64,70
152.48062,152.53831,45,64,70
152.53831,152.59601,46,64,70
152.59601,152.65369,45,64,70
152.65369,152.71138,46,64,70
152.71138,152.76907,45,64,70
152.76907,152.82677,46,64,70
152.82677,152.88446,45,64,70
152.88446,152.94215,46,64,70
152.94215,152.99985,45,64,70
152.99985,153.11523,47,64,70
153.11523,153.21619,49,64,70
153.23062,153.63446,53,64,70
153.92293,154.03831,53,64,70
154.03831,154.13927,57,64,70
154.15369,154.26907,55,64,70
154.26907,154.38446,53,64,70
154.38446,154.49985,52,64,70
154.49985,154.6008,50,64,70
154.61523,154.73062,49,64,70
154.73062,154.846,50,64,70
154.846,154.96138,52,64,70
154.96138,155.06235,49,64,70
155.07677,155.2811,45,64,70
155.5383,155.74263,45,64,70
155.99985,156.40369,41,64,70
156.46138,156.86523,41,64,70
156.92291,157.7306,58,64,70
157.846,158.45177,53,64,70
158.5383,158.64047,62,64,70
158.76907,158.9734,58,64,70
159.46138,159.57677,62,64,70
159.57677,159.67772,65,64,70
159.69215,159.80753,63,64,70
159.80753,159.92291,62,64,70
159.92291,160.0383,60,64,70
160.0383,160.13927,58,64,70
160.15369,160.26907,57,64,70
160.26907,160.38446,58,64,70
160.38446,160.49983,60,64,70
160.49983,160.6008,57,64,70
160.61522,160.81955,53,64,70
161.07677,161.28108,53,64,70
161.5383,162.346,56,64,70
162.46138,163.26907,55,64,70
163.38445,163.99022,46,64,70
164.07675,164.17892,55,64,70
164.30753,165.11522,51,64,70
165.2306,165.83638,46,64,70
165.92291,166.02507,55,64,70
166.15369,166.358,51,64,70
166.61522,166.81955,46,64,70
167.07675,167.28108,43,64,70
167.5383,167.74261,39,64,70
167.99983,168.20175,46,64,70
168.2306,168.43253,58,64,70
168.46136,168.6633,58,64,70
168.69214,168.89406,58,64,70
168.92291,169.12483,58,64,70
169.15367,169.3556,58,64,70
169.38445,169.58636,58,64,70
169.61522,169.81714,58,64,70
169.84598,170.04791,46,64,70
170.07675,170.27867,58,64,70
170.30753,170.50945,58,64,70
170.53828,170.74022,58,64,70
170.76906,170.97098,58,64,70
170.99983,171.20175,58,64,70
171.23059,171.43253,58,64,70
171.46136,171.66328,58,64,70
171.69214,172.09598,46,64,70
173.53828,175.15367,43,64,70
175.38445,176.99982,44,64,70
177.23059,178.84598,46,64,70
179.07674,179.28107,39,64,70
179.53828,179.74261,39,64,70
179.99982,180.20415,39,64,70
180.9229,182.76904,55,64,70
182.76904,183.1729,56,64,70
183.9229,184.03828,55,64,70
184.03828,184.13924,56,64,70
184.15366,184.25583,60,64,70
184.38443,184.48659,58,64,70
184.6152,185.01904,56,64,70
185.76904,185.88443,55,64,70
185.88443,185.9854,56,64,70
185.99982,186.10197,60,64,70
186.23058,186.33275,58,64,70
186.46135,186.8652,56,64,70
187.38443,187.78827,44,64,70
188.30751,188.71135,46,64,70
189.23058,189.63443,46,64,70
190.15366,190.35558,46,64,70
190.38443,190.58635,46,64,70
190.61519,190.81712,46,64,70
190.84596,191.04788,46,64,70
191.07674,191.27866,46,64,70
191.3075,191.50943,46,64,70
191.53827,191.74019,46,64,70
191.76904,191.97096,46,64,70
191.9998,192.8075,51,64,70
192.92288,193.52866,46,64,70
193.61519,193.71736,55,64,70
193.84596,194.07674,51,64,70
194.07674,194.19211,53,64,70
194.19211,194.3075,55,64,70
194.3075,194.42288,56,64,70
194.42288,194.53827,58,64,70
194.53827,194.65366,60,64,70
194.65366,194.75461,62,64,70
194.76904,194.87,63,64,70
194.88441,194.98538,65,64,70
194.9998,195.10077,67,64,70
195.11519,195.21616,65,64,70
195.23058,195.33154,63,64,70
195.34596,195.44691,62,64,70
195.46135,195.5623,60,64,70
195.57672,195.67769,58,64,70
195.69211,196.4998,57,64,70
196.61519,197.22096,60,64,70
197.3075,197.40965,53,64,70
197.53827,197.74258,53,64,70
199.38441,200.19211,58,64,70
200.3075,200.91325,53,64,70
200.9998,201.10196,62,64,70
201.23058,201.43489,58,64,70
201.92288,202.03825,62,64,70
202.03825,202.13922,65,64,70
202.15364,202.26903,63,64,70
202.26903,202.38441,62,64,70
202.38441,202.4998,60,64,70
202.4998,202.60075,58,64,70
202.61519,202.73056,57,64,70
202.73056,202.84595,58,64,70
202.84595,202.96133,60,64,70
202.96133,203.0623,57,64,70
203.07672,203.28105,53,64,70
203.53825,203.74258,53,64,70
203.9998,204.05508,55,64,70
204.0575,204.11517,53,64,70
204.11517,204.17287,55,64,70
204.17287,204.23056,53,64,70
204.23056,204.28825,55,64,70
204.28825,204.34595,53,64,70
204.34595,204.40364,55,64,70
204.40364,204.46133,53,64,70
204.46133,204.51903,55,64,70
204.51903,204.57672,53,64,70
204.57672,204.63441,55,64,70
204.63441,204.69211,53,64,70
204.69211,204.8075,55,64,70
204.8075,204.90845,57,64,70
204.92287,205.32672,58,64,70
205.61517,205.73056,62,64,70
205.73056,205.83153,65,64,70
205.84595,205.96133,63,64,70
205.96133,206.07672,62,64,70
206.07672,206.19211,60,64,70
206.19211,206.29306,58,64,70
206.30748,206.42287,57,64,70
206.42287,206.53825,58,64,70
206.53825,206.65364,60,64,70
206.65364,206.75461,57,64,70
206.76903,206.97336,53,64,70
207.23056,207.43489,53,64,70
207.6921,207.74979,57,64,70
207.74979,207.80748,55,64,70
207.80748,207.86517,57,64,70
207.86517,207.92287,55,64,70
207.92287,207.98056,57,64,70
207.98056,208.03825,55,64,70
208.03825,208.09595,57,64,70
208.09595,208.15364,55,64,70
208.15364,208.21133,57,64,70
208.21133,208.26903,55,64,70
208.26903,208.32672,57,64,70
208.32672,208.49979,55,64,70
208.49979,208.60075,57,64,70
208.61517,208.71735,58,64,70
208.84595,208.9481,46,64,70
209.07672,209.17888,46,64,70
209.30748,209.40965,46,64,70
209.53825,209.64041,46,64,70
209.76903,209.87119,46,64,70
209.99979,210.10196,46,64,70
210.23056,210.33272,46,64,70
210.46133,210.56349,46,64,70
210.6921,210.79427,46,64,70
210.92287,211.02502,46,64,70
211.15364,211.2558,46,64,70
211.3844,211.48657,46,64,70
211.61517,211.71733,46,64,70
211.84595,211.9481,46,64,70
212.0767,212.17888,46,64,70
212.30748,212.40964,46,64,70
212.53825,212.64041,46,64,70
212.76901,212.87119,46,64,70
212.99979,213.10194,46,64,70
213.23056,213.33272,46,64,70
213.46132,213.56349,46,64,70
213.6921,213.79425,46,64,70
213.92287,214.02502,46,64,70
214.15363,214.2558,46,64,70
214.3844,214.48656,46,64,70
214.61517,214.71733,46,64,70
214.84593,214.9481,46,64,70
215.0767,215.17888,46,64,70
215.30748,215.40964,46,64,70
215.53824,215.64041,46,64,70
215.76901,215.87119,46,64,70
215.99979,216.10194,46,64,70
216.23056,216.33272,46,64,70
216.46132,216.56349,46,64,70
216.6921,216.79425,46,64,70
216.92287,217.12479,46,64,70
217.15363,217.3844,58,64,70
217.3844,217.61517,60,64,70
217.61517,217.8171,62,64,70
217.84593,218.30748,63,64,70
218.30748,218.76901,62,64,70
218.76901,219.23055,57,64,70
219.23055,219.6344,58,64,70
219.6921,220.15363,55,64,70
220.15363,220.61516,60,64,70
220.61516,221.01901,57,64,70
221.0767,221.30746,58,64,70
221.30746,221.5094,53,64,70
221.53824,221.99738,50,64,70
221.99977,222.45891,50,64,70
222.46132,222.92046,53,64,70
222.92285,223.35555,53,64,70
223.3844,223.78824,58,64,70
223.84593,224.24977,46,64,70
224.30746,224.71132,46,64,70
224.76901,225.17285,46,64,70
225.23055,226.84593,50,64,70
227.07669,228.69208,51,64,70
228.92285,229.32669,53,64,70
229.38438,229.78824,53,64,70
229.84592,230.24977,41,64,70
230.30746,230.7113,41,64,70
230.769,231.17285,46,64,70
231.92285,232.02501,46,64,70
232.15361,232.25578,50,64,70
232.38438,232.48654,53,64,70
232.61516,233.019,58,64,70
233.07669,233.48053,62,64,70
233.53822,233.94208,65,64,70
233.99977,234.4613,44,64,70
234.4613,235.5863,43,64,70
235.61514,235.71732,46,64,70
235.84592,235.94807,51,64,70
236.07669,236.17885,55,64,70
236.30745,236.53822,60,64,70
236.53822,236.769,59,64,70
236.769,236.99976,62,64,70
236.99976,237.20169,60,64,70
237.23053,237.4613,63,64,70
237.4613,237.69206,62,64,70
237.69206,237.92284,60,64,70
237.92284,238.12476,58,64,70
238.15361,238.269,60,64,70
238.269,238.38438,58,64,70
238.38438,238.5863,57,64,70
238.61514,239.27861,57,64,70
239.30745,239.50937,65,64,70
239.53822,239.74014,65,64,70
239.769,239.97092,65,64,70
239.99976,240.23053,65,64,70
240.23053,240.4613,64,64,70
240.4613,240.69206,67,64,70
240.69206,240.894,65,64,70
240.92284,241.61514,60,64,70
241.61514,241.73053,62,64,70
241.73053,241.83148,63,64,70
241.84592,242.24976,62,64,70
242.30745,242.35793,46,64,70
242.42284,242.47331,50,64,70
242.53822,242.5887,53,64,70
242.65361,242.70409,58,64,70
242.76898,242.88437,62,64,70
242.88437,242.99976,63,64,70
242.99976,243.11514,65,64,70
243.11514,243.21611,67,64,70
243.23053,243.43245,65,64,70
243.46129,243.56226,50,64,70
243.57668,243.67764,46,64,70
243.69206,243.79422,45,64,70
243.92284,244.025,41,64,70
244.1536,244.25577,45,64,70
244.38437,244.48654,48,64,70
244.61514,244.7173,53,64,70
244.8459,244.94807,57,64,70
245.07668,245.17885,60,64,70
245.30745,245.4096,65,64,70
245.53822,245.6536,62,64,70
245.6536,245.76898,58,64,70
245.76898,245.88437,53,64,70
245.88437,245.98534,50,64,70
245.99976,246.05023,46,64,70
246.11514,246.16562,50,64,70
246.23053,246.281,53,64,70
246.3459,246.3964,58,64,70
246.46129,246.57668,62,64,70
246.57668,246.69206,63,64,70
246.69206,246.80745,65,64,70
246.80745,246.9084,67,64,70
246.92284,247.12476,65,64,70
247.1536,247.25456,50,64,70
247.26898,247.36995,46,64,70
247.38437,247.48653,45,64,70
247.61514,247.7173,41,64,70
247.8459,247.94807,45,64,70
248.07668,248.17883,48,64,70
248.30745,248.4096,53,64,70
248.53821,248.64038,57,64,70
248.76898,248.87114,60,64,70
248.99976,249.10191,65,64,70
249.23051,249.46129,63,64,70
249.46129,249.66321,62,64,70
249.92282,250.025,62,64,70
250.1536,250.38437,61,64,70
250.38437,250.61513,62,64,70
250.61513,250.8459,63,64,70
250.8459,251.04782,62,64,70
251.07668,251.30743,60,64,70
251.30743,251.50937,58,64,70
251.76898,251.87114,58,64,70
251.99974,252.23051,57,64,70
252.23051,252.46129,58,64,70
252.46129,252.69206,60,64,70
252.69206,252.89398,58,64,70
252.92282,253.1536,57,64,70
253.1536,253.38437,55,64,70
253.38437,253.61513,57,64,70
253.61513,253.81705,59,64,70
253.8459,254.02258,60,64,70
254.04782,254.07668,62,64,70
254.07668,254.17763,60,64,70
254.19205,254.29301,59,64,70
254.30743,254.50935,60,64,70
254.53821,254.74013,62,64,70
254.76898,254.94566,63,64,70
254.9709,254.99974,65,64,70
254.99974,255.10071,63,64,70
255.11513,255.2161,62,64,70
255.23051,255.43243,63,64,70
255.46129,255.66321,65,64,70
255.69205,256.0959,67,64,70
256.1536,256.55743,70,64,70
256.61514,257.2209,41,64,70
257.30743,257.42282,65,64,70
257.42282,257.52377,64,64,70
257.5382,257.64038,63,64,70
257.76898,257.87112,62,64,70
257.99976,258.1019,60,64,70
258.2305,258.33267,58,64,70
258.46127,258.51898,62,64,70
258.51898,258.57666,60,64,70
258.57666,258.63437,62,64,70
258.63437,258.69205,60,64,70
258.69205,258.74976,62,64,70
258.74976,258.80743,60,64,70
258.80743,258.8651,62,64,70
258.8651,258.92282,60,64,70
258.92282,258.9805,62,64,70
258.9805,259.0382,60,64,70
259.0382,259.0959,62,64,70
259.0959,259.1536,60,64,70
259.1536,259.21127,62,64,70
259.21127,259.26898,60,64,70
259.26898,259.32666,62,64,70
259.32666,259.38437,60,64,70
259.38437,259.44205,62,64,70
259.44205,259.49973,60,64,70
259.49973,259.55743,62,64,70
259.55743,259.6151,60,64,70
259.6151,259.67282,62,64,70
259.67282,259.7305,60,64,70
259.7305,259.7882,62,64,70
259.7882,259.8459,60,64,70
259.8459,259.9036,62,64,70
259.9036,259.96127,60,64,70
259.96127,260.01898,62,64,70
260.01898,260.07666,60,64,70
260.07666,260.19205,58,64,70
260.19205,260.293,60,64,70
260.30743,260.71127,58,64,70
264.2305,264.3459,63,64,70
264.3459,264.44684,62,64,70
264.46127,264.56345,63,64,70
264.69205,264.80743,63,64,70
264.80743,264.9084,62,64,70
264.92282,265.02496,63,64,70
265.1536,265.26895,63,64,70
265.26895,265.36993,62,64,70
265.38434,265.49973,63,64,70
265.49973,265.6151,62,64,70
265.6151,265.7305,63,64,70
265.7305,265.83145,62,64,70
265.8459,265.94806,63,64,70
266.07666,266.17883,62,64,70
266.30743,266.40958,60,64,70
266.5382,266.64035,58,64,70
266.76895,266.87112,57,64,70
266.99973,267.1019,55,64,70
267.2305,267.33267,53,64,70
267.46127,267.56345,51,64,70
267.69205,268.0959,50,64,70
268.15356,268.96127,46,64,70
269.07666,269.4805,50,64,70
269.53818,270.3459,53,64,70
270.46127,271.26895,58,64,70
271.38434,272.99973,53,64,70
273.2305,273.4348,41,64,70
273.69205,273.89636,41,64,70
274.15356,274.3579,41,64,70
274.6151,274.81943,41,64,70
275.07666,275.4805,46,64,70
278.99973,279.1151,63,64,70
279.1151,279.21606,62,64,70
279.2305,279.33264,63,64,70
279.46127,279.57663,63,64,70
279.57663,279.6776,62,64,70
279.69202,279.7942,63,64,70
279.9228,280.03818,63,64,70
280.03818,280.13913,62,64,70
280.15356,280.26895,63,64,70
280.26895,280.38434,62,64,70
280.38434,280.49973,63,64,70
280.49973,280.60068,62,64,70
280.6151,280.71725,63,64,70
280.8459,280.94803,62,64,70
281.07663,281.1788,60,64,70
281.3074,281.40958,58,64,70
281.53818,281.64035,57,64,70
281.76895,281.87112,55,64,70
281.99973,282.10187,53,64,70
282.2305,282.33264,51,64,70
282.46124,282.9228,50,64,70
282.9228,283.38434,53,64,70
283.38434,283.84586,58,64,70
283.84586,284.24973,62,64,70
284.3074,286.5574,65,64,70
286.6151,287.01895,53,64,70
287.07663,287.48047,53,64,70
287.53818,287.94202,53,64,70
287.99973,289.21124,41,64,70
289.38434,289.78818,53,64,70
289.84586,290.2497,46,64,70
290.76895,291.1728,46,64,70
291.69202,292.09586,51,64,70
293.53818,293.94202,39,64,70
295.3843,295.78818,41,64,70
295.84586,296.2497,53,64,70
296.3074,296.71124,53,64,70
296.76892,297.1728,53,64,70
297.23047,297.4324,41,64,70
297.46124,297.66318,41,64,70
297.69202,297.89392,41,64,70
297.9228,298.1247,41,64,70
298.15353,298.35547,41,64,70
298.3843,298.58624,41,64,70
298.61508,298.81702,41,64,70
298.84586,299.0478,41,64,70
299.07663,299.48047,46,64,70
299.53815,299.9997,62,64,70
299.9997,300.8074,63,64,70
300.9228,301.84586,62,64,70
301.84586,302.3074,60,64,70
302.3074,302.71124,63,64,70
302.76892,303.69202,62,64,70
303.69202,304.4997,63,64,70
304.61508,305.53815,62,64,70
305.53815,305.9997,60,64,70
305.9997,306.40353,63,64,70
306.46124,307.3843,62,64,70
307.3843,308.192,63,64,70
308.30737,309.23047,62,64,70
309.23047,310.03815,60,64,70
310.15353,310.84586,58,64,70
310.84586,311.04776,62,64,70
311.0766,311.76892,60,64,70
311.76892,311.97086,65,64,70
311.9997,312.692,58,64,70
312.692,312.89392,62,64,70
312.92276,313.61508,60,64,70
313.61508,313.817,65,64,70
313.84583,314.53815,58,64,70
314.53815,314.74008,62,64,70
314.76892,315.4612,60,64,70
315.4612,315.66315,65,64,70
315.692,316.09583,58,64,70
316.15353,316.35544,58,64,70
316.3843,316.5862,58,64,70
316.61508,317.01892,46,64,70
