start_time,end_time,note_value,velocity,instrument_program_number
5.322581,6.0201616,77,64,73
6.290323,6.7137103,77,64,73
11.612904,11.930445,77,64,73
11.975807,12.081654,77,64,73
12.096775,12.338711,82,64,73
12.338711,12.580646,84,64,73
12.580646,12.822581,81,64,73
12.822581,12.980847,82,64,73
13.004033,13.064517,86,64,73
13.064517,13.306453,84,64,73
13.306453,13.5181465,82,64,73
13.548388,14.51613,87,64,73
14.51613,14.727823,86,64,73
14.879033,14.98488,86,64,73
15.000001,15.241937,84,64,73
15.241937,15.483872,87,64,73
15.483872,15.725807,84,64,73
15.725807,15.937501,81,64,73
15.967743,16.330647,82,64,73
16.330647,16.39113,84,64,73
16.39113,16.44355,86,64,73
16.451614,17.298388,84,64,73
17.419355,17.736897,77,64,73
17.782259,17.888105,77,64,73
17.903227,18.145163,82,64,73
18.145163,18.387098,84,64,73
18.387098,18.629034,81,64,73
18.629034,18.7873,82,64,73
18.810486,18.87097,86,64,73
18.87097,19.112904,84,64,73
19.112904,19.324598,82,64,73
19.35484,20.322582,87,64,73
20.322582,20.534275,86,64,73
20.685486,20.791332,86,64,73
20.806454,21.04839,84,64,73
21.04839,21.290323,87,64,73
21.290323,21.532259,84,64,73
21.532259,21.743954,79,64,73
21.774195,22.137098,81,64,73
22.137098,22.197582,82,64,73
22.197582,22.250002,84,64,73
22.258066,23.10484,82,64,73
25.645163,26.129034,82,64,73
26.129034,26.340727,77,64,73
28.54839,29.03226,82,64,73
29.03226,29.243954,77,64,73
30.000002,30.483873,82,64,73
30.483873,30.695566,77,64,73
42.09678,42.414318,77,64,73
42.45968,42.56553,77,64,73
42.580647,42.822582,82,64,73
42.822582,43.064518,84,64,73
43.064518,43.306454,81,64,73
43.306454,43.46472,82,64,73
43.487907,43.54839,86,64,73
43.54839,43.790325,84,64,73
43.790325,44.002018,82,64,73
44.03226,45.000004,87,64,73
45.000004,45.211697,86,64,73
45.362907,45.468754,86,64,73
45.483875,45.72581,84,64,73
45.72581,45.967747,87,64,73
45.967747,46.20968,84,64,73
46.20968,46.421375,79,64,73
46.451614,46.814518,81,64,73
46.814518,46.875004,82,64,73
46.875004,46.92742,84,64,73
46.935486,47.358875,82,64,73
48.3871,48.54839,87,64,73
48.54839,48.709682,86,64,73
48.709682,48.85081,84,64,73
48.87097,48.941536,82,64,73
49.03226,49.102825,81,64,73
49.19355,49.264114,79,64,73
49.354843,49.425407,77,64,73
49.516132,49.586697,79,64,73
49.67742,49.747986,81,64,73
49.838715,50.2621,82,64,73
51.290325,51.45162,87,64,73
51.45162,51.612907,86,64,73
51.612907,51.754036,84,64,73
51.774197,51.84476,82,64,73
51.935486,52.00605,81,64,73
52.09678,52.167343,79,64,73
52.258068,52.328632,77,64,73
52.419357,52.48992,79,64,73
52.58065,52.651215,81,64,73
52.74194,52.90323,82,64,73
53.104843,53.15726,86,64,73
53.22581,53.439518,82,64,73
60.000004,60.967747,77,64,73
60.967747,61.391132,86,64,73
61.45162,61.93549,84,64,73
61.93549,62.419357,82,64,73
62.419357,62.842747,81,64,73
62.90323,63.145164,81,64,73
63.145164,63.3871,79,64,73
63.3871,63.629036,78,64,73
63.629036,63.84073,79,64,73
63.87097,64.23387,82,64,73
64.23387,64.33972,86,64,73
64.35484,64.838715,77,64,73
64.838715,65.2621,76,64,73
70.645164,71.34274,72,64,73
71.61291,72.88307,72,64,73
73.06452,73.54839,74,64,73
73.54839,74.032265,76,64,73
74.032265,74.45565,77,64,73
74.516136,75.48388,74,64,73
75.48388,75.907265,70,64,73
75.96775,76.17944,69,64,73
76.451614,76.663315,81,64,73
76.935486,77.14719,77,64,73
77.41936,78.68952,76,64,73
78.87097,79.082664,77,64,73
79.35484,79.566536,81,64,73
79.838715,80.05041,77,64,73
80.322586,81.59275,76,64,73
81.7742,82.197586,77,64,73
83.225815,83.70969,75,64,73
83.70969,84.13307,69,64,73
84.67742,85.16129,77,64,73
85.16129,85.58469,74,64,73
86.129036,86.61291,77,64,73
86.61291,87.03629,74,64,73
87.58065,88.004036,77,64,73
88.225815,88.29638,82,64,73
88.3871,88.457664,81,64,73
88.54839,88.61896,79,64,73
88.70969,88.78025,77,64,73
88.87097,88.941536,75,64,73
89.032265,89.19356,74,64,73
89.19356,89.35484,75,64,73
89.35484,89.49597,77,64,73
89.516136,89.5867,70,64,73
89.67742,89.74799,74,64,73
89.838715,89.90928,75,64,73
90.00001,90.07057,77,64,73
90.16129,90.23186,79,64,73
90.322586,90.39315,80,64,73
90.48388,90.645164,78,64,73
90.645164,90.78629,79,64,73
90.80646,90.87702,79,64,73
90.96775,91.129036,81,64,73
91.129036,91.270164,82,64,73
91.29033,91.36089,82,64,73
91.45162,91.61291,78,64,73
91.61291,91.754036,79,64,73
91.7742,91.844765,79,64,73
91.93549,92.09678,74,64,73
92.09678,92.23791,75,64,73
92.25807,92.328636,75,64,73
92.41936,92.58065,71,64,73
92.58065,92.72178,72,64,73
92.74194,92.81251,72,64,73
92.90323,92.97379,79,64,73
93.06452,93.135086,75,64,73
93.225815,93.29638,72,64,73
93.3871,93.87097,70,64,73
93.87097,94.294365,69,64,73
105.24194,105.48388,76,64,73
105.48388,105.725815,77,64,73
105.725815,105.96775,79,64,73
105.96775,106.20969,77,64,73
106.20969,106.42138,75,64,73
106.45162,106.66533,74,64,73
109.838715,110.322586,75,64,73
110.322586,110.74597,72,64,73
110.80646,110.913315,70,64,73
111.04839,111.15525,74,64,73
111.29033,111.504036,70,64,73
116.61291,117.09678,74,64,73
117.09678,117.30848,70,64,73
121.45162,121.66533,72,64,73
121.93549,122.1492,80,64,73
122.419365,122.90324,79,64,73
122.90324,123.11493,77,64,73
123.62904,123.73589,80,64,73
123.87098,124.35485,79,64,73
124.35485,124.56654,77,64,73
125.96775,126.038315,84,64,73
126.12904,126.19961,82,64,73
126.29033,126.36089,80,64,73
126.45162,126.52219,79,64,73
126.612915,126.68348,77,64,73
126.7742,128.22581,75,64,73
128.22581,128.43953,74,64,73
134.2742,134.51614,82,64,73
134.51614,134.75807,81,64,73
134.75807,135.00002,80,64,73
135.00002,135.24194,79,64,73
135.24194,135.45364,77,64,73
135.48389,135.90727,75,64,73
140.32259,140.80344,82,64,73
140.80646,141.26009,82,64,73
141.29033,143.37703,82,64,73
146.12904,146.82663,84,64,73
147.09679,149.18347,84,64,73
151.45163,151.69356,77,64,73
151.69356,151.90526,82,64,73
152.17743,152.28429,77,64,73
152.41937,152.52621,77,64,73
152.6613,152.76816,77,64,73
152.90323,153.14517,77,64,73
153.14517,153.35687,82,64,73
153.62904,153.7359,77,64,73
153.87097,153.97783,77,64,73
154.11292,154.21977,77,64,73
154.35484,155.20163,77,64,73
155.32259,155.74597,79,64,73
155.80646,156.01816,72,64,73
156.0484,156.28731,77,64,73
156.29033,156.52925,77,64,73
156.53227,156.77118,77,64,73
156.7742,157.01312,77,64,73
157.01614,157.24295,77,64,73
157.25807,158.92139,77,64,73
158.95163,159.19054,77,64,73
159.19356,159.43246,77,64,73
159.4355,159.67441,77,64,73
159.67743,159.91634,77,64,73
159.91937,160.14618,77,64,73
160.1613,162.0363,77,64,73
163.5484,163.7621,84,64,73
164.03227,164.24597,84,64,73
164.51614,166.39114,84,64,73
166.45163,166.66533,84,64,73
166.9355,167.1492,84,64,73
167.41937,167.63307,84,64,73
172.50002,172.60687,77,64,73
172.74194,172.8488,77,64,73
172.98389,173.09074,77,64,73
173.22581,173.70969,77,64,73
173.70969,174.19356,74,64,73
174.19356,174.61694,70,64,73
174.67743,175.1613,74,64,73
175.1613,175.64517,70,64,73
175.64517,176.06856,65,64,73
176.12904,176.61292,77,64,73
176.61292,177.09679,74,64,73
177.09679,177.52017,70,64,73
177.58066,178.06453,74,64,73
178.06453,178.5484,70,64,73
178.5484,178.97179,65,64,73
180.00002,180.10687,75,64,73
180.24194,180.3488,75,64,73
180.48389,183.8105,75,64,73
187.01614,187.123,84,64,73
187.25807,187.36493,84,64,73
187.50002,187.60687,84,64,73
187.74194,188.37703,84,64,73
188.46776,188.57462,87,64,73
188.70969,188.81654,87,64,73
188.95163,189.05849,87,64,73
189.19356,191.06856,87,64,73
193.5484,194.03227,84,64,73
194.03227,194.24396,81,64,73
196.45163,196.9355,84,64,73
196.9355,197.14719,81,64,73
197.90324,198.38712,84,64,73
198.38712,198.5988,81,64,73
199.35486,199.83873,84,64,73
199.83873,200.05042,81,64,73
205.64517,206.34276,77,64,73
206.61292,207.0363,77,64,73
211.9355,212.25304,77,64,73
212.2984,212.40425,77,64,73
212.41937,212.6613,82,64,73
212.6613,212.90324,84,64,73
212.90324,213.14517,81,64,73
213.14517,213.30344,82,64,73
213.32663,213.38712,86,64,73
213.38712,213.62904,84,64,73
213.62904,213.84074,82,64,73
213.87099,214.83873,87,64,73
214.83873,215.05042,86,64,73
215.20163,215.30748,86,64,73
215.3226,215.56453,84,64,73
215.56453,215.80647,87,64,73
215.80647,216.0484,84,64,73
216.0484,216.2601,81,64,73
216.29034,216.65324,82,64,73
216.65324,216.71373,84,64,73
216.71373,216.76614,86,64,73
216.7742,217.62099,84,64,73
217.74194,218.0595,77,64,73
218.10486,218.2107,77,64,73
218.22581,218.46776,82,64,73
218.46776,218.70969,84,64,73
218.70969,218.95163,81,64,73
218.95163,219.1099,82,64,73
219.13307,219.19356,86,64,73
219.19356,219.4355,84,64,73
219.4355,219.64719,82,64,73
219.67743,220.64517,87,64,73
220.64517,220.85687,86,64,73
221.00807,221.11392,86,64,73
221.12904,221.37099,84,64,73
221.37099,221.61292,87,64,73
221.61292,221.85486,84,64,73
221.85486,222.06654,79,64,73
222.09679,222.45969,81,64,73
222.45969,222.52017,82,64,73
222.52017,222.5726,84,64,73
222.58066,223.42743,82,64,73
225.96776,226.45163,82,64,73
226.45163,226.66331,77,64,73
228.87099,229.35486,82,64,73
229.35486,229.56654,77,64,73
230.3226,230.80647,82,64,73
230.80647,231.01816,77,64,73
242.41937,242.73691,77,64,73
242.78227,242.88812,77,64,73
242.90324,243.14517,82,64,73
243.14517,243.38712,84,64,73
243.38712,243.62904,81,64,73
243.62904,243.78731,82,64,73
243.8105,243.87099,86,64,73
243.87099,244.11292,84,64,73
244.11292,244.32462,82,64,73
244.35486,245.3226,87,64,73
245.3226,245.53429,86,64,73
245.6855,245.79135,86,64,73
245.80647,246.0484,84,64,73
246.0484,246.29034,87,64,73
246.29034,246.53227,84,64,73
246.53227,246.74397,79,64,73
246.77422,247.13712,81,64,73
247.13712,247.1976,82,64,73
247.1976,247.25002,84,64,73
247.25809,247.68147,82,64,73
248.7097,248.87099,87,64,73
248.87099,249.03227,86,64,73
249.03227,249.1734,84,64,73
249.19356,249.26413,82,64,73
249.35486,249.42542,81,64,73
249.51614,249.58672,79,64,73
249.67743,249.748,77,64,73
249.83873,249.90929,79,64,73
250.00002,250.07059,81,64,73
250.1613,250.5847,82,64,73
251.61292,251.77422,87,64,73
251.77422,251.9355,86,64,73
251.9355,252.07663,84,64,73
252.09679,252.16736,82,64,73
252.25809,252.32864,81,64,73
252.41937,252.48993,79,64,73
252.58066,252.65123,77,64,73
252.74196,252.81252,79,64,73
252.90324,252.9738,81,64,73
253.06453,253.22583,82,64,73
253.42743,253.47986,86,64,73
253.5484,253.76212,82,64,73
0.483871,0.967742,62,64,68
0.967742,1.451613,65,64,68
1.451613,1.8750001,62,64,68
1.935484,2.7822583,67,64,68
2.903226,3.8104842,65,64,68
3.870968,4.294355,65,64,68
4.354839,4.83871,70,64,68
4.83871,5.6854844,69,64,68
5.806452,6.0181456,65,64,68
6.0483875,6.2600813,63,64,68
6.290323,6.774194,62,64,68
6.774194,7.258065,65,64,68
7.258065,7.6814523,62,64,68
7.741936,8.709678,67,64,68
8.709678,9.133065,65,64,68
9.193549,9.616936,67,64,68
10.161291,10.645162,63,64,68
10.645162,11.068549,62,64,68
11.612904,11.930445,65,64,68
11.975807,12.081654,65,64,68
12.096775,12.943549,65,64,68
13.064517,13.487905,70,64,68
13.548388,14.032259,70,64,68
14.032259,14.51613,72,64,68
14.51613,14.939517,74,64,68
15.000001,15.846775,65,64,68
15.967743,16.39113,70,64,68
16.451614,16.935486,69,64,68
16.935486,17.358871,77,64,68
17.419355,17.736897,65,64,68
17.782259,17.888105,65,64,68
17.903227,18.750002,65,64,68
18.87097,19.778227,70,64,68
19.83871,20.322582,72,64,68
20.322582,20.74597,74,64,68
20.806454,21.653227,67,64,68
21.774195,22.01613,65,64,68
22.01613,22.227823,75,64,68
22.258066,22.471775,74,64,68
22.741938,22.955647,70,64,68
25.645163,26.129034,77,64,68
26.129034,26.340727,74,64,68
28.064518,28.54839,65,64,68
28.54839,28.760082,62,64,68
29.03226,29.19355,65,64,68
29.395163,29.447582,65,64,68
29.51613,30.000002,65,64,68
30.000002,30.211695,62,64,68
30.483873,30.645163,65,64,68
30.846777,30.899195,65,64,68
30.967745,32.419357,65,64,68
32.419357,32.842743,62,64,68
36.774197,37.258068,62,64,68
37.258068,37.74194,65,64,68
37.74194,38.165325,62,64,68
38.225807,38.70968,67,64,68
38.70968,39.19355,69,64,68
39.19355,39.61694,70,64,68
39.67742,40.161293,70,64,68
40.161293,40.645164,65,64,68
40.645164,41.06855,70,64,68
41.129036,41.612907,69,64,68
41.612907,42.09678,72,64,68
42.09678,42.520164,69,64,68
42.580647,43.064518,70,64,68
43.064518,43.54839,77,64,68
43.54839,43.97178,74,64,68
44.03226,44.516132,70,64,68
44.516132,45.000004,72,64,68
45.000004,45.42339,74,64,68
45.483875,45.967747,67,64,68
45.967747,46.17944,63,64,68
46.451614,46.814518,72,64,68
46.814518,46.875004,74,64,68
46.875004,46.92742,75,64,68
46.935486,47.358875,74,64,68
48.3871,49.838715,75,64,68
49.838715,50.2621,74,64,68
51.290325,52.560486,75,64,68
52.74194,52.90323,74,64,68
53.104843,53.15726,77,64,68
53.22581,53.439518,74,64,68
54.19355,55.161293,77,64,68
55.161293,55.584682,82,64,68
55.645164,56.129036,81,64,68
56.129036,56.612907,77,64,68
56.612907,57.036293,75,64,68
57.09678,57.30847,74,64,68
57.338715,57.459682,75,64,68
57.459682,57.56553,74,64,68
57.58065,57.822586,72,64,68
57.822586,58.06452,70,64,68
58.06452,58.306454,69,64,68
58.306454,58.51815,70,64,68
58.54839,58.790325,74,64,68
58.790325,59.00202,72,64,68
59.03226,59.24597,72,64,68
65.322586,65.64013,72,64,68
65.685486,65.791336,72,64,68
65.80646,66.04839,77,64,68
66.04839,66.29033,79,64,68
66.29033,66.532265,76,64,68
66.532265,66.69053,77,64,68
66.713715,66.7742,81,64,68
66.7742,67.016136,79,64,68
67.016136,67.22783,77,64,68
67.25807,68.22581,82,64,68
68.22581,68.43751,81,64,68
68.588715,68.694565,81,64,68
68.70968,68.951614,79,64,68
68.951614,69.19355,82,64,68
69.19355,69.435486,79,64,68
69.435486,69.64718,76,64,68
69.67742,70.04033,77,64,68
70.04033,70.100815,79,64,68
70.100815,70.15323,81,64,68
70.16129,71.00807,79,64,68
71.129036,71.44658,72,64,68
71.49194,71.597786,72,64,68
71.61291,71.85484,77,64,68
71.85484,72.09678,79,64,68
72.09678,72.338715,76,64,68
72.338715,72.49698,77,64,68
72.520164,72.58065,81,64,68
72.58065,72.822586,79,64,68
72.822586,73.03428,77,64,68
73.06452,74.032265,82,64,68
74.032265,74.24396,81,64,68
74.395164,74.501015,81,64,68
74.516136,74.75807,79,64,68
74.75807,75.00001,82,64,68
75.00001,75.24194,79,64,68
75.24194,75.453636,74,64,68
75.48388,75.84678,76,64,68
75.84678,75.907265,77,64,68
75.907265,75.95969,79,64,68
75.96775,76.17944,77,64,68
79.032265,79.10283,65,64,68
79.19355,79.264114,69,64,68
79.35484,79.42541,72,64,68
79.516136,79.5867,77,64,68
79.67742,79.747986,81,64,68
79.838715,80.00001,84,64,68
80.00001,80.141136,81,64,68
80.16129,80.23186,77,64,68
80.322586,80.48388,82,64,68
80.48388,80.62501,79,64,68
80.645164,80.71573,76,64,68
80.80646,80.87702,72,64,68
80.96775,81.129036,78,64,68
81.129036,81.270164,79,64,68
81.29033,81.36089,70,64,68
81.45162,81.61291,78,64,68
81.61291,81.754036,79,64,68
81.7742,82.197586,69,64,68
83.225815,84.67742,72,64,68
84.67742,85.100815,70,64,68
86.7742,86.844765,82,64,68
86.93549,87.00606,81,64,68
87.09678,87.16734,79,64,68
87.25807,87.328636,77,64,68
87.41936,87.48992,75,64,68
87.58065,87.74194,74,64,68
87.74194,87.90323,75,64,68
87.90323,88.04436,77,64,68
88.06452,88.48791,70,64,68
89.67742,89.74799,70,64,68
89.838715,89.90928,72,64,68
90.00001,90.07057,74,64,68
90.16129,90.23186,75,64,68
90.322586,90.39315,77,64,68
90.48388,90.645164,74,64,68
90.645164,90.78629,75,64,68
90.80646,90.87702,75,64,68
90.96775,91.129036,78,64,68
91.129036,91.270164,79,64,68
91.29033,91.36089,79,64,68
91.45162,91.61291,74,64,68
91.61291,91.754036,75,64,68
91.7742,91.844765,75,64,68
91.93549,92.09678,71,64,68
92.09678,92.23791,72,64,68
92.25807,92.328636,72,64,68
92.41936,92.63106,67,64,68
92.90323,93.11493,72,64,68
93.3871,93.81049,72,64,68
94.35484,94.49597,79,64,68
94.516136,94.657265,75,64,68
94.67743,94.81856,72,64,68
94.838715,95.322586,70,64,68
95.322586,95.74597,69,64,68
102.338715,102.44557,70,64,68
102.58065,102.68751,70,64,68
102.822586,102.92944,70,64,68
103.06452,103.17138,70,64,68
103.30646,103.413315,70,64,68
103.54839,103.79033,69,64,68
103.79033,104.00202,72,64,68
104.2742,104.48589,72,64,68
104.75807,104.969765,70,64,68
105.00001,105.2117,69,64,68
108.14517,108.356865,70,64,68
108.629036,108.84074,72,64,68
109.11291,109.32461,65,64,68
109.59678,109.80847,67,64,68
110.08065,110.29234,72,64,68
110.56452,110.776215,69,64,68
110.80646,110.913315,70,64,68
111.04839,111.15525,65,64,68
111.29033,111.504036,62,64,68
113.70969,114.19356,65,64,68
114.19356,114.40525,62,64,68
116.12904,116.44658,62,64,68
116.49194,116.59779,62,64,68
116.61291,117.24799,62,64,68
119.516136,120.00001,70,64,68
120.00001,120.2117,67,64,68
125.08065,125.18751,80,64,68
125.322586,125.80646,79,64,68
125.80646,126.01815,77,64,68
127.25807,127.74194,70,64,68
127.74194,128.16533,72,64,68
128.22581,128.43953,65,64,68
134.2742,134.51614,74,64,68
134.51614,134.72783,77,64,68
134.75807,135.00002,77,64,68
135.00002,135.24194,75,64,68
135.24194,135.45364,74,64,68
135.48389,135.90727,75,64,68
140.32259,140.80344,79,64,68
140.80646,141.26009,79,64,68
141.29033,143.16533,79,64,68
143.22581,143.43752,79,64,68
146.12904,146.82663,81,64,68
147.09679,148.36694,81,64,68
148.5484,149.1734,81,64,68
149.19356,149.26413,69,64,68
149.35484,149.42542,70,64,68
149.51614,149.5867,72,64,68
149.67743,149.748,70,64,68
149.83871,149.90929,69,64,68
150.00002,150.1613,75,64,68
150.1613,150.32259,74,64,68
150.32259,150.46371,72,64,68
150.48389,150.64517,81,64,68
150.64517,150.80646,79,64,68
150.80646,150.94759,77,64,68
150.96776,151.10889,84,64,68
151.12904,151.27017,81,64,68
151.29033,151.43146,75,64,68
151.45163,151.55847,74,64,68
151.69356,151.81453,79,64,68
151.81453,151.92038,77,64,68
151.9355,152.04134,75,64,68
152.05646,152.16231,74,64,68
152.17743,152.28328,72,64,68
152.2984,152.40425,70,64,68
152.41937,152.54033,69,64,68
152.54033,152.6613,72,64,68
152.6613,152.78227,77,64,68
152.78227,152.88812,75,64,68
152.90323,153.11493,74,64,68
153.14517,153.26614,79,64,68
153.26614,153.37198,77,64,68
153.3871,153.49295,75,64,68
153.50807,153.61392,74,64,68
153.62904,153.7349,72,64,68
153.75002,153.85585,70,64,68
153.87097,153.99194,69,64,68
153.99194,154.11292,72,64,68
154.11292,154.23389,77,64,68
154.23389,154.33972,75,64,68
154.35484,154.47581,74,64,68
154.47581,154.59679,72,64,68
154.59679,154.71776,70,64,68
154.71776,154.83871,69,64,68
154.83871,154.95969,70,64,68
154.95969,155.08066,74,64,68
155.08066,155.20163,77,64,68
155.20163,155.30746,82,64,68
155.32259,155.42844,81,64,68
155.44356,155.54941,79,64,68
155.56453,155.67038,77,64,68
155.6855,155.79134,76,64,68
155.80646,156.22984,77,64,68
156.7742,157.09175,72,64,68
157.1371,157.24295,75,64,68
157.25807,157.74194,74,64,68
157.74194,158.22581,70,64,68
158.22581,158.6492,82,64,68
158.70969,159.19356,81,64,68
159.19356,159.61694,77,64,68
159.67743,159.99496,84,64,68
160.04033,160.14618,75,64,68
160.1613,160.64517,74,64,68
160.64517,161.12904,70,64,68
161.12904,161.55243,82,64,68
161.61292,162.0363,81,64,68
163.5484,163.7621,79,64,68
164.03227,164.24597,82,64,68
164.51614,165.00002,81,64,68
165.00002,165.4234,77,64,68
166.45163,166.66533,79,64,68
166.9355,167.1492,82,64,68
167.41937,167.63307,81,64,68
168.14517,168.25203,69,64,68
168.38712,168.49396,72,64,68
168.62904,168.7359,70,64,68
168.87097,168.97783,69,64,68
169.11292,169.21977,67,64,68
169.35484,169.4617,65,64,68
169.59679,169.70364,67,64,68
169.83871,169.94557,69,64,68
170.08066,170.18752,70,64,68
170.32259,170.42944,69,64,68
170.56453,170.67139,67,64,68
170.80646,170.91331,65,64,68
171.0484,171.15526,67,64,68
171.29033,171.39719,69,64,68
171.53227,171.63913,70,64,68
171.7742,171.98792,72,64,68
172.25807,172.47179,69,64,68
173.22581,173.43953,70,64,68
174.67743,174.7984,62,64,68
174.7984,174.90425,65,64,68
174.91937,174.97179,70,64,68
175.04033,175.09276,74,64,68
175.1613,175.28227,65,64,68
175.28227,175.38812,70,64,68
175.40324,175.45566,74,64,68
175.5242,175.57663,77,64,68
175.64517,175.76614,70,64,68
175.76614,175.872,74,64,68
175.88712,175.93953,77,64,68
176.00807,176.0605,82,64,68
176.12904,176.61292,77,64,68
176.61292,177.0363,74,64,68
177.21776,177.27017,74,64,68
177.33871,177.39114,70,64,68
177.45969,177.51212,65,64,68
177.58066,177.70163,62,64,68
177.70163,177.80746,65,64,68
177.82259,177.87502,70,64,68
177.94356,177.99599,74,64,68
178.06453,178.1855,65,64,68
178.1855,178.29134,70,64,68
178.30646,178.35889,74,64,68
178.42743,178.47984,77,64,68
178.5484,178.66937,70,64,68
178.66937,178.7752,74,64,68
178.79033,178.84276,77,64,68
178.9113,178.96371,82,64,68
179.03227,179.51614,79,64,68
179.51614,179.72783,75,64,68
180.00002,180.10687,72,64,68
180.24194,180.3488,72,64,68
180.48389,183.8105,72,64,68
185.56453,185.67139,81,64,68
185.80646,185.91331,81,64,68
186.0484,186.15526,81,64,68
186.29033,189.61694,81,64,68
189.67743,189.89114,81,64,68
190.1613,190.37502,81,64,68
190.64517,191.06856,81,64,68
193.5484,194.03227,75,64,68
194.03227,194.24396,72,64,68
196.45163,196.9355,75,64,68
196.9355,197.14719,72,64,68
197.90324,198.38712,75,64,68
198.38712,198.5988,72,64,68
199.35486,199.83873,75,64,68
199.83873,200.05042,72,64,68
200.80646,201.29033,62,64,68
201.29033,201.7742,65,64,68
201.7742,202.1976,62,64,68
202.25807,203.10486,67,64,68
203.22581,204.13307,65,64,68
204.19356,204.61694,65,64,68
204.67743,205.1613,70,64,68
205.1613,206.00807,69,64,68
206.12904,206.34074,65,64,68
206.37099,206.58267,63,64,68
206.61292,207.09679,62,64,68
207.09679,207.58066,65,64,68
207.58066,208.00404,62,64,68
208.06453,209.03227,67,64,68
209.03227,209.45566,65,64,68
209.51614,209.93953,67,64,68
210.48389,210.96776,63,64,68
210.96776,211.39114,62,64,68
211.9355,212.25304,65,64,68
212.2984,212.40425,65,64,68
212.41937,213.26614,65,64,68
213.38712,213.8105,70,64,68
213.87099,214.35486,70,64,68
214.35486,214.83873,72,64,68
214.83873,215.26212,74,64,68
215.3226,216.16937,65,64,68
216.29034,216.71373,70,64,68
216.7742,217.25807,69,64,68
217.25807,217.68147,77,64,68
217.74194,218.0595,65,64,68
218.10486,218.2107,65,64,68
218.22581,219.0726,65,64,68
219.19356,220.10081,70,64,68
220.1613,220.64517,72,64,68
220.64517,221.06856,74,64,68
221.12904,221.97581,67,64,68
222.09679,222.33873,65,64,68
222.33873,222.55042,75,64,68
222.58066,222.79437,74,64,68
223.06453,223.27824,70,64,68
225.96776,226.45163,77,64,68
226.45163,226.66331,74,64,68
228.38712,228.87099,65,64,68
228.87099,229.08267,62,64,68
229.35486,229.51614,65,64,68
229.71776,229.77017,65,64,68
229.83873,230.3226,65,64,68
230.3226,230.53429,62,64,68
230.80647,230.96776,65,64,68
231.16937,231.22179,65,64,68
231.29034,232.74196,65,64,68
232.74196,233.16534,62,64,68
237.09679,237.58066,62,64,68
237.58066,238.06453,65,64,68
238.06453,238.48792,62,64,68
238.5484,239.03227,67,64,68
239.03227,239.51614,69,64,68
239.51614,239.93953,70,64,68
240.00002,240.48389,70,64,68
240.48389,240.96776,65,64,68
240.96776,241.39114,70,64,68
241.45163,241.9355,69,64,68
241.9355,242.41937,72,64,68
242.41937,242.84276,69,64,68
242.90324,243.38712,70,64,68
243.38712,243.87099,77,64,68
243.87099,244.29437,74,64,68
244.35486,244.83873,70,64,68
244.83873,245.3226,72,64,68
245.3226,245.74599,74,64,68
245.80647,246.29034,67,64,68
246.29034,246.50203,63,64,68
246.77422,247.13712,72,64,68
247.13712,247.1976,74,64,68
247.1976,247.25002,75,64,68
247.25809,247.68147,74,64,68
248.7097,250.1613,75,64,68
250.1613,250.5847,74,64,68
251.61292,252.88309,75,64,68
253.06453,253.22583,74,64,68
253.42743,253.47986,77,64,68
253.5484,253.76212,74,64,68
0.0,0.31754035,65,64,71
0.36290324,0.46875003,65,64,71
0.483871,0.7258065,70,64,71
0.7258065,0.967742,72,64,71
0.967742,1.2096775,69,64,71
1.2096775,1.3679436,70,64,71
1.3911291,1.451613,74,64,71
1.451613,1.6935484,72,64,71
1.6935484,1.9052421,70,64,71
1.935484,2.903226,75,64,71
2.903226,3.1149197,74,64,71
3.2661293,3.3719761,74,64,71
3.387097,3.6290326,72,64,71
3.6290326,3.870968,75,64,71
3.870968,4.1129036,72,64,71
4.1129036,4.324597,69,64,71
4.354839,4.7177424,70,64,71
4.7177424,4.778226,72,64,71
4.778226,4.8306456,74,64,71
4.83871,5.6854844,72,64,71
5.806452,6.1239924,65,64,71
6.1693554,6.275202,65,64,71
6.290323,6.5322585,70,64,71
6.5322585,6.774194,72,64,71
6.774194,7.0161295,69,64,71
7.0161295,7.1743956,70,64,71
7.1975813,7.258065,74,64,71
7.258065,7.5000005,72,64,71
7.5000005,7.7116942,70,64,71
7.741936,8.709678,75,64,71
8.709678,8.921371,74,64,71
9.072581,9.178428,74,64,71
9.193549,9.435485,72,64,71
9.435485,9.67742,75,64,71
9.67742,9.919355,72,64,71
9.919355,10.131049,67,64,71
10.161291,10.524195,69,64,71
10.524195,10.584678,70,64,71
10.584678,10.637097,72,64,71
10.645162,11.068549,70,64,71
11.612904,11.930445,65,64,71
11.975807,12.081654,65,64,71
12.096775,12.338711,70,64,71
12.338711,12.580646,72,64,71
12.580646,12.822581,69,64,71
12.822581,12.980847,70,64,71
13.004033,13.064517,74,64,71
13.064517,13.306453,72,64,71
13.306453,13.5181465,70,64,71
13.548388,14.51613,75,64,71
14.51613,14.727823,74,64,71
14.879033,14.98488,74,64,71
15.000001,15.241937,72,64,71
15.241937,15.483872,75,64,71
15.483872,15.725807,72,64,71
15.725807,15.937501,69,64,71
15.967743,16.330647,70,64,71
16.330647,16.39113,72,64,71
16.39113,16.44355,74,64,71
16.451614,17.298388,72,64,71
17.419355,17.736897,65,64,71
17.782259,17.888105,65,64,71
17.903227,18.145163,70,64,71
18.145163,18.387098,72,64,71
18.387098,18.629034,69,64,71
18.629034,18.7873,70,64,71
18.810486,18.87097,74,64,71
18.87097,19.112904,72,64,71
19.112904,19.324598,70,64,71
19.35484,20.322582,75,64,71
20.322582,20.534275,74,64,71
20.685486,20.791332,74,64,71
20.806454,21.04839,72,64,71
21.04839,21.290323,75,64,71
21.290323,21.532259,72,64,71
21.532259,21.743954,67,64,71
21.774195,22.137098,69,64,71
22.137098,22.197582,70,64,71
22.197582,22.250002,72,64,71
22.258066,22.471775,70,64,71
23.225807,23.387098,77,64,71
23.58871,23.64113,77,64,71
23.709679,23.87097,77,64,71
23.87097,24.032259,76,64,71
24.032259,24.19355,75,64,71
24.19355,24.354841,74,64,71
24.354841,24.51613,72,64,71
24.51613,24.677422,70,64,71
24.677422,24.83871,69,64,71
24.83871,25.000002,70,64,71
25.000002,25.14113,72,64,71
25.161291,25.645163,74,64,71
25.645163,25.856857,70,64,71
26.129034,26.290325,77,64,71
26.491938,26.544357,77,64,71
26.612906,26.774195,77,64,71
26.774195,26.935486,76,64,71
26.935486,27.096775,75,64,71
27.096775,27.258066,74,64,71
27.258066,27.419357,72,64,71
27.419357,27.580647,70,64,71
27.580647,27.741938,69,64,71
27.741938,27.903227,70,64,71
27.903227,28.044357,72,64,71
28.064518,28.54839,74,64,71
28.54839,28.760082,70,64,71
29.03226,29.19355,77,64,71
29.395163,29.447582,72,64,71
29.51613,30.000002,74,64,71
30.000002,30.211695,70,64,71
30.483873,30.645163,77,64,71
30.846777,30.899195,72,64,71
30.967745,32.419357,74,64,71
32.419357,32.842743,70,64,71
33.87097,35.74597,53,64,71
36.290325,36.607864,65,64,71
36.65323,36.759075,65,64,71
36.774197,37.016132,70,64,71
37.016132,37.258068,72,64,71
37.258068,37.500004,69,64,71
37.500004,37.658268,70,64,71
37.681454,37.74194,74,64,71
37.74194,37.983875,72,64,71
37.983875,38.195568,70,64,71
38.225807,39.19355,75,64,71
39.19355,39.405243,74,64,71
39.556454,39.6623,74,64,71
39.67742,39.919357,72,64,71
39.919357,40.161293,75,64,71
40.161293,40.40323,72,64,71
40.40323,40.61492,69,64,71
40.645164,41.008068,70,64,71
41.008068,41.06855,72,64,71
41.06855,41.12097,74,64,71
41.129036,41.97581,72,64,71
42.09678,42.414318,65,64,71
42.45968,42.56553,65,64,71
42.580647,42.822582,70,64,71
42.822582,43.064518,72,64,71
43.064518,43.306454,69,64,71
43.306454,43.46472,70,64,71
43.487907,43.54839,74,64,71
43.54839,43.790325,72,64,71
43.790325,44.002018,70,64,71
44.03226,45.000004,75,64,71
45.000004,45.211697,74,64,71
45.362907,45.468754,74,64,71
45.483875,45.72581,72,64,71
45.72581,45.967747,75,64,71
45.967747,46.20968,72,64,71
46.20968,46.421375,67,64,71
46.451614,46.814518,69,64,71
46.814518,46.875004,70,64,71
46.875004,46.92742,72,64,71
46.935486,47.00605,70,64,71
47.09678,47.258068,82,64,71
47.258068,47.399197,81,64,71
47.419357,47.48992,79,64,71
47.580647,47.651215,77,64,71
47.74194,47.812504,76,64,71
47.90323,47.973793,77,64,71
48.064518,48.135082,79,64,71
48.22581,48.296375,77,64,71
48.3871,48.54839,75,64,71
48.54839,48.709682,74,64,71
48.709682,48.85081,72,64,71
48.87097,48.941536,70,64,71
49.03226,49.102825,69,64,71
49.19355,49.264114,67,64,71
49.354843,49.425407,65,64,71
49.516132,49.586697,67,64,71
49.67742,49.747986,69,64,71
49.838715,49.90928,70,64,71
50.000004,50.161293,82,64,71
50.161293,50.30242,81,64,71
50.322582,50.39315,79,64,71
50.483875,50.55444,77,64,71
50.645164,50.71573,76,64,71
50.806454,50.877018,77,64,71
50.967747,51.03831,79,64,71
51.129036,51.1996,77,64,71
51.290325,51.45162,75,64,71
51.45162,51.612907,74,64,71
51.612907,51.754036,72,64,71
51.774197,51.84476,70,64,71
51.935486,52.00605,69,64,71
52.09678,52.167343,67,64,71
52.258068,52.328632,65,64,71
52.419357,52.48992,67,64,71
52.58065,52.651215,69,64,71
52.74194,52.90323,70,64,71
53.104843,53.15726,74,64,71
53.22581,53.439518,70,64,71
54.19355,54.67742,62,64,71
54.67742,55.161293,65,64,71
55.161293,55.584682,62,64,71
55.645164,56.612907,60,64,71
56.612907,57.036293,65,64,71
57.09678,57.310486,65,64,71
57.58065,57.794357,62,64,71
58.06452,58.306454,65,64,71
58.306454,58.51815,70,64,71
58.54839,58.790325,70,64,71
58.790325,59.00202,69,64,71
59.03226,59.15323,70,64,71
59.15323,59.274197,69,64,71
59.274197,59.516132,67,64,71
59.516132,59.758068,69,64,71
59.758068,59.96976,70,64,71
60.000004,60.967747,72,64,71
60.967747,61.391132,70,64,71
61.45162,61.93549,69,64,71
61.93549,62.419357,67,64,71
62.419357,62.842747,65,64,71
62.90323,63.750004,74,64,71
63.87097,64.23387,74,64,71
64.23387,64.33972,70,64,71
64.35484,64.838715,69,64,71
64.838715,65.2621,67,64,71
65.80646,66.29033,69,64,71
66.29033,66.7742,72,64,71
66.7742,67.197586,69,64,71
67.25807,68.22581,74,64,71
68.22581,68.6492,72,64,71
68.70968,69.55646,70,64,71
69.67742,69.91936,69,64,71
69.91936,70.13105,77,64,71
70.16129,70.40323,76,64,71
70.40323,70.645164,72,64,71
70.645164,70.8871,67,64,71
70.8871,71.129036,64,64,71
71.129036,71.37097,67,64,71
71.37097,71.582664,70,64,71
71.61291,71.8246,69,64,71
71.85484,72.066536,70,64,71
72.09678,72.30847,67,64,71
72.338715,72.49698,69,64,71
72.520164,72.58065,72,64,71
72.58065,72.822586,70,64,71
72.822586,73.03428,69,64,71
73.06452,74.032265,74,64,71
74.032265,74.45565,72,64,71
74.516136,75.00001,70,64,71
75.00001,75.42339,67,64,71
76.129036,76.1996,65,64,71
76.29033,76.36089,69,64,71
76.451614,76.52219,72,64,71
76.61291,76.68347,77,64,71
76.7742,76.844765,81,64,71
76.935486,77.09678,84,64,71
77.09678,77.23791,81,64,71
77.25807,77.328636,77,64,71
77.41936,77.58065,82,64,71
77.58065,77.72178,79,64,71
77.74194,77.81251,76,64,71
77.90323,77.97379,72,64,71
78.06452,78.225815,78,64,71
78.225815,78.36694,79,64,71
78.3871,78.457664,70,64,71
78.54839,78.70969,78,64,71
78.70969,78.850815,79,64,71
78.87097,79.082664,69,64,71
81.935486,82.00605,65,64,71
82.09678,82.16734,69,64,71
82.25807,82.41936,72,64,71
82.41936,82.560486,69,64,71
82.58065,82.651215,72,64,71
82.74194,82.90323,77,64,71
82.90323,83.04436,72,64,71
83.06452,83.135086,77,64,71
83.225815,83.3871,81,64,71
83.3871,83.52823,77,64,71
83.54839,83.61896,81,64,71
83.70969,83.78025,84,64,71
83.87097,83.941536,82,64,71
84.032265,84.10283,81,64,71
84.19356,84.26412,79,64,71
84.35484,84.42541,77,64,71
84.516136,84.5867,75,64,71
84.67742,84.838715,74,64,71
84.838715,85.00001,75,64,71
85.00001,85.141136,77,64,71
85.16129,85.23186,70,64,71
85.322586,85.39315,82,64,71
85.48388,85.55444,81,64,71
85.645164,85.71573,79,64,71
85.80646,85.87702,77,64,71
85.96775,86.038315,75,64,71
86.129036,86.29033,74,64,71
86.29033,86.45162,75,64,71
86.45162,86.59275,77,64,71
86.61291,87.03629,70,64,71
89.516136,89.72984,70,64,71
90.00001,90.213715,70,64,71
90.48388,91.754036,70,64,71
91.93549,92.35888,67,64,71
93.3871,93.81049,65,64,71
95.80646,95.87702,79,64,71
95.96775,96.038315,75,64,71
96.129036,96.1996,72,64,71
96.29033,96.7742,70,64,71
96.7742,97.197586,69,64,71
97.74194,99.19356,52,64,71
99.19356,99.61694,53,64,71
100.645164,101.129036,62,64,71
101.129036,101.61291,65,64,71
101.61291,102.0363,62,64,71
102.09678,103.06452,67,64,71
103.06452,103.48791,65,64,71
103.54839,104.395164,65,64,71
104.516136,104.75807,65,64,71
104.75807,104.969765,70,64,71
105.00001,105.24194,69,64,71
105.24194,105.48388,67,64,71
105.48388,105.725815,65,64,71
105.725815,105.96775,63,64,71
105.96775,106.20969,62,64,71
106.20969,106.42138,60,64,71
106.45162,106.66533,62,64,71
106.93549,107.1492,65,64,71
107.419365,107.63307,62,64,71
107.90324,108.11694,67,64,71
108.3871,108.600815,69,64,71
108.87097,109.08469,70,64,71
109.35484,110.20162,67,64,71
110.322586,110.56452,65,64,71
110.56452,110.776215,63,64,71
110.80646,110.913315,62,64,71
111.04839,111.15525,65,64,71
111.29033,111.504036,62,64,71
113.225815,113.38711,65,64,71
113.38711,113.54839,67,64,71
113.54839,113.68952,69,64,71
113.70969,114.13307,70,64,71
114.19356,114.40525,58,64,71
116.12904,116.29033,62,64,71
116.29033,116.45162,63,64,71
116.45162,116.59275,66,64,71
116.61291,117.0363,67,64,71
117.09678,117.30848,55,64,71
119.032265,119.19356,58,64,71
119.19356,119.35484,60,64,71
119.35484,119.49598,62,64,71
119.516136,119.93952,63,64,71
120.00001,120.2117,51,64,71
120.48388,120.96775,55,64,71
120.96775,121.391136,56,64,71
121.45162,121.66533,60,64,71
121.93549,122.1492,56,64,71
122.419365,122.63307,58,64,71
123.38711,123.600815,58,64,71
123.87098,124.08469,58,64,71
124.838715,125.05243,58,64,71
125.322586,125.5363,58,64,71
127.25807,127.68146,67,64,71
127.74194,128.16533,69,64,71
128.22581,128.43953,70,64,71
129.67743,130.15828,51,64,71
130.1613,130.64215,51,64,71
130.64517,131.0988,51,64,71
131.12904,132.3992,51,64,71
132.58066,133.5484,58,64,71
133.5484,133.97179,63,64,71
134.03227,134.45566,62,64,71
135.48389,135.96472,51,64,71
135.96776,136.4486,51,64,71
136.45161,136.90526,51,64,71
136.93549,137.90323,51,64,71
137.90323,138.32663,63,64,71
138.3871,138.87097,60,64,71
138.87097,139.29436,56,64,71
139.35484,139.59679,65,64,71
139.59679,139.80847,56,64,71
139.83871,140.05042,55,64,71
140.32259,140.80344,70,64,71
140.80646,141.26009,70,64,71
141.29033,143.36694,70,64,71
143.3871,143.45767,67,64,71
143.5484,143.61896,68,64,71
143.70969,143.78026,70,64,71
143.87097,143.94154,72,64,71
144.03227,144.10283,74,64,71
144.19356,144.25404,77,64,71
144.25404,144.31453,75,64,71
144.31453,144.37502,77,64,71
144.37502,144.5363,74,64,71
144.5363,144.67743,75,64,71
144.69759,144.76816,79,64,71
144.85889,144.92944,77,64,71
145.02017,145.09073,75,64,71
145.18146,145.25203,74,64,71
145.34276,145.41331,72,64,71
145.50404,145.5746,70,64,71
145.66533,146.08871,69,64,71
146.1492,146.84679,75,64,71
147.11694,149.20364,75,64,71
151.45163,151.87502,70,64,71
152.17743,152.2984,75,64,71
152.2984,152.40425,74,64,71
152.41937,152.52621,72,64,71
152.6613,152.76816,69,64,71
152.90323,153.32663,70,64,71
153.62904,153.75002,75,64,71
153.75002,153.85585,74,64,71
153.87097,153.97783,72,64,71
154.11292,154.21977,69,64,71
154.35484,154.77823,70,64,71
155.32259,155.74597,58,64,71
155.80646,155.92743,57,64,71
155.92743,156.0484,60,64,71
156.0484,156.16937,65,64,71
156.16937,156.2752,60,64,71
156.29033,156.4113,57,64,71
156.4113,156.53227,60,64,71
156.53227,156.65323,65,64,71
156.65323,156.75908,60,64,71
156.7742,156.89517,57,64,71
156.89517,157.01614,60,64,71
157.01614,157.1371,65,64,71
157.1371,157.24295,60,64,71
157.25807,157.37904,58,64,71
157.37904,157.50002,65,64,71
157.50002,157.62097,62,64,71
157.62097,157.72682,65,64,71
157.74194,157.86292,58,64,71
157.86292,157.98389,65,64,71
157.98389,158.10484,62,64,71
158.10484,158.2107,65,64,71
158.22581,158.34679,58,64,71
158.34679,158.46776,65,64,71
158.46776,158.58871,62,64,71
158.58871,158.69456,65,64,71
158.70969,158.83066,60,64,71
158.83066,158.95163,65,64,71
158.95163,159.07259,63,64,71
159.07259,159.17844,65,64,71
159.19356,159.31453,60,64,71
159.31453,159.4355,65,64,71
159.4355,159.55646,63,64,71
159.55646,159.66231,65,64,71
159.67743,159.7984,60,64,71
159.7984,159.91937,65,64,71
159.91937,160.04033,63,64,71
160.04033,160.14618,65,64,71
160.1613,160.28227,58,64,71
160.28227,160.40324,65,64,71
160.40324,160.5242,62,64,71
160.5242,160.63005,65,64,71
160.64517,160.76614,58,64,71
160.76614,160.8871,65,64,71
160.8871,161.00807,62,64,71
161.00807,161.11392,65,64,71
161.12904,161.25002,58,64,71
161.25002,161.37097,65,64,71
161.37097,161.49194,62,64,71
161.49194,161.5978,65,64,71
161.61292,162.0363,60,64,71
162.58066,162.70163,82,64,71
162.70163,162.82259,81,64,71
162.82259,162.94356,79,64,71
162.94356,163.04941,77,64,71
163.06453,163.27824,76,64,71
163.5484,163.7621,76,64,71
164.03227,164.24597,76,64,71
164.51614,165.36292,77,64,71
165.48389,165.60484,82,64,71
165.60484,165.72581,81,64,71
165.72581,165.84679,79,64,71
165.84679,165.95264,77,64,71
165.96776,166.18146,76,64,71
166.45163,166.66533,76,64,71
166.9355,167.1492,76,64,71
167.54033,167.6613,77,64,71
167.6613,167.78227,79,64,71
167.78227,167.88812,77,64,71
167.90324,168.0242,76,64,71
168.0242,168.14517,77,64,71
168.14517,168.26614,79,64,71
168.26614,168.372,77,64,71
168.38712,168.50807,75,64,71
168.50807,168.61392,77,64,71
168.62904,168.75002,74,64,71
168.75002,168.85587,75,64,71
168.87097,168.99194,72,64,71
168.99194,169.0978,77,64,71
169.11292,169.23389,70,64,71
169.23389,169.33972,77,64,71
169.35484,169.47581,69,64,71
169.47581,169.58167,77,64,71
169.59679,169.71776,70,64,71
169.71776,169.8236,77,64,71
169.83871,169.95969,72,64,71
169.95969,170.06554,77,64,71
170.08066,170.20163,74,64,71
170.20163,170.30746,77,64,71
170.32259,170.44356,72,64,71
170.44356,170.54941,77,64,71
170.56453,170.6855,70,64,71
170.6855,170.79134,77,64,71
170.80646,170.92743,69,64,71
170.92743,171.03328,77,64,71
171.0484,171.16937,70,64,71
171.16937,171.2752,77,64,71
171.29033,171.4113,72,64,71
171.4113,171.51715,77,64,71
171.53227,171.65324,74,64,71
171.65324,171.75908,77,64,71
171.7742,171.89517,75,64,71
171.89517,172.01614,77,64,71
172.01614,172.13712,79,64,71
172.13712,172.24295,77,64,71
172.25807,172.36392,75,64,71
172.37904,172.4849,74,64,71
172.50002,172.60587,72,64,71
172.62097,172.72682,70,64,71
172.74194,172.8478,69,64,71
172.86292,172.96877,67,64,71
172.98389,173.08972,65,64,71
173.10484,173.2107,63,64,71
173.22581,173.34679,62,64,71
173.34679,173.45264,65,64,71
173.46776,173.52017,70,64,71
173.58871,173.64114,74,64,71
173.70969,173.83066,65,64,71
173.83066,173.93651,70,64,71
173.95163,174.00404,74,64,71
174.07259,174.12502,77,64,71
174.19356,174.31453,70,64,71
174.31453,174.42038,74,64,71
174.4355,174.48792,77,64,71
174.55646,174.60889,82,64,71
174.67743,174.89114,77,64,71
175.1613,175.37502,74,64,71
175.76614,175.81856,74,64,71
175.88712,175.93953,70,64,71
176.00807,176.0605,65,64,71
176.12904,176.25002,62,64,71
176.25002,176.35587,65,64,71
176.37099,176.4234,70,64,71
176.49194,176.54437,74,64,71
176.61292,176.73389,65,64,71
176.73389,176.83974,70,64,71
176.85484,176.90727,74,64,71
176.97581,177.02824,77,64,71
177.09679,177.21776,70,64,71
177.21776,177.3236,74,64,71
177.33871,177.39114,77,64,71
177.45969,177.51212,82,64,71
177.58066,177.79437,77,64,71
178.06453,178.27824,74,64,71
178.66937,178.72179,70,64,71
178.79033,178.84276,74,64,71
178.9113,178.96371,77,64,71
179.03227,179.15324,77,64,71
179.15324,179.25908,75,64,71
179.2742,179.39517,75,64,71
179.39517,179.50102,74,64,71
179.51614,179.63712,74,64,71
179.63712,179.74295,72,64,71
179.75807,179.87904,72,64,71
179.87904,179.9849,71,64,71
180.00002,180.10587,71,64,71
180.12099,180.22682,72,64,71
180.24194,180.36292,75,64,71
180.36292,180.46877,72,64,71
180.48389,180.60484,70,64,71
180.60484,180.7107,69,64,71
180.72581,180.84679,75,64,71
180.84679,180.95264,72,64,71
180.96776,181.08871,70,64,71
181.08871,181.19456,69,64,71
181.20969,181.33066,75,64,71
181.33066,181.43651,72,64,71
181.45163,181.57259,70,64,71
181.57259,181.67844,69,64,71
181.69356,181.81453,75,64,71
181.81453,181.92038,72,64,71
181.9355,182.05646,70,64,71
182.05646,182.16231,69,64,71
182.17743,182.2984,75,64,71
182.2984,182.40425,72,64,71
182.41937,182.54033,70,64,71
182.54033,182.64618,69,64,71
182.6613,182.78227,75,64,71
182.78227,182.88812,72,64,71
182.90324,183.0242,70,64,71
183.0242,183.13005,69,64,71
183.14517,183.26614,75,64,71
183.26614,183.372,72,64,71
183.38712,183.87099,70,64,71
183.87099,184.08267,69,64,71
184.11292,184.21977,77,64,71
184.35486,184.4617,77,64,71
184.59679,184.70364,77,64,71
184.83871,187.5605,77,64,71
187.74194,188.2228,77,64,71
188.22581,188.70667,77,64,71
188.70969,189.16331,77,64,71
189.19356,191.06856,77,64,71
191.49194,191.54437,65,64,71
191.61292,191.7742,65,64,71
191.97581,192.02824,65,64,71
192.09679,192.58066,65,64,71
192.58066,193.06453,69,64,71
193.06453,193.48792,72,64,71
193.5484,193.97179,65,64,71
194.39517,194.44759,65,64,71
194.51614,194.67743,65,64,71
194.87904,194.93146,65,64,71
195.00002,195.48389,65,64,71
195.48389,195.96776,69,64,71
195.96776,196.39114,72,64,71
196.45163,196.87502,65,64,71
197.2984,197.35081,65,64,71
197.41937,197.58066,65,64,71
197.78227,197.83469,65,64,71
197.90324,198.32663,65,64,71
198.75002,198.80243,65,64,71
198.87099,199.03227,65,64,71
199.23389,199.2863,65,64,71
199.35486,199.77824,65,64,71
200.20163,200.25404,65,64,71
200.3226,200.48389,65,64,71
200.6855,200.73792,65,64,71
200.80646,201.0484,70,64,71
201.0484,201.29033,72,64,71
201.29033,201.53227,69,64,71
201.53227,201.69054,70,64,71
201.71373,201.7742,74,64,71
201.7742,202.01614,72,64,71
202.01614,202.22783,70,64,71
202.25807,203.22581,75,64,71
203.22581,203.43752,74,64,71
203.58873,203.69456,74,64,71
203.70969,203.95163,72,64,71
203.95163,204.19356,75,64,71
204.19356,204.4355,72,64,71
204.4355,204.64719,69,64,71
204.67743,205.04033,70,64,71
205.04033,205.10081,72,64,71
205.10081,205.15324,74,64,71
205.1613,206.00807,72,64,71
206.12904,206.44658,65,64,71
206.49194,206.5978,65,64,71
206.61292,206.85486,70,64,71
206.85486,207.09679,72,64,71
207.09679,207.33873,69,64,71
207.33873,207.497,70,64,71
207.52017,207.58066,74,64,71
207.58066,207.8226,72,64,71
207.8226,208.03429,70,64,71
208.06453,209.03227,75,64,71
209.03227,209.24397,74,64,71
209.39517,209.50102,74,64,71
209.51614,209.75807,72,64,71
209.75807,210.00002,75,64,71
210.00002,210.24194,72,64,71
210.24194,210.45364,67,64,71
210.48389,210.84679,69,64,71
210.84679,210.90727,70,64,71
210.90727,210.95969,72,64,71
210.96776,211.39114,70,64,71
211.9355,212.25304,65,64,71
212.2984,212.40425,65,64,71
212.41937,212.6613,70,64,71
212.6613,212.90324,72,64,71
212.90324,213.14517,69,64,71
213.14517,213.30344,70,64,71
213.32663,213.38712,74,64,71
213.38712,213.62904,72,64,71
213.62904,213.84074,70,64,71
213.87099,214.83873,75,64,71
214.83873,215.05042,74,64,71
215.20163,215.30748,74,64,71
215.3226,215.56453,72,64,71
215.56453,215.80647,75,64,71
215.80647,216.0484,72,64,71
216.0484,216.2601,69,64,71
216.29034,216.65324,70,64,71
216.65324,216.71373,72,64,71
216.71373,216.76614,74,64,71
216.7742,217.62099,72,64,71
217.74194,218.0595,65,64,71
218.10486,218.2107,65,64,71
218.22581,218.46776,70,64,71
218.46776,218.70969,72,64,71
218.70969,218.95163,69,64,71
218.95163,219.1099,70,64,71
219.13307,219.19356,74,64,71
219.19356,219.4355,72,64,71
219.4355,219.64719,70,64,71
219.67743,220.64517,75,64,71
220.64517,220.85687,74,64,71
221.00807,221.11392,74,64,71
221.12904,221.37099,72,64,71
221.37099,221.61292,75,64,71
221.61292,221.85486,72,64,71
221.85486,222.06654,67,64,71
222.09679,222.45969,69,64,71
222.45969,222.52017,70,64,71
222.52017,222.5726,72,64,71
222.58066,222.79437,70,64,71
223.5484,223.70969,77,64,71
223.9113,223.96373,77,64,71
224.03227,224.19356,77,64,71
224.19356,224.35486,76,64,71
224.35486,224.51614,75,64,71
224.51614,224.67743,74,64,71
224.67743,224.83873,72,64,71
224.83873,225.00002,70,64,71
225.00002,225.1613,69,64,71
225.1613,225.3226,70,64,71
225.3226,225.46373,72,64,71
225.48389,225.96776,74,64,71
225.96776,226.17944,70,64,71
226.45163,226.61292,77,64,71
226.81453,226.86694,77,64,71
226.9355,227.09679,77,64,71
227.09679,227.25809,76,64,71
227.25809,227.41937,75,64,71
227.41937,227.58066,74,64,71
227.58066,227.74194,72,64,71
227.74194,227.90324,70,64,71
227.90324,228.06453,69,64,71
228.06453,228.22581,70,64,71
228.22581,228.36694,72,64,71
228.38712,228.87099,74,64,71
228.87099,229.08267,70,64,71
229.35486,229.51614,77,64,71
229.71776,229.77017,72,64,71
229.83873,230.3226,74,64,71
230.3226,230.53429,70,64,71
230.80647,230.96776,77,64,71
231.16937,231.22179,72,64,71
231.29034,232.74196,74,64,71
232.74196,233.16534,70,64,71
234.19356,236.06856,53,64,71
236.61292,236.93047,65,64,71
236.97581,237.08167,65,64,71
237.09679,237.33873,70,64,71
237.33873,237.58066,72,64,71
237.58066,237.8226,69,64,71
237.8226,237.98087,70,64,71
238.00404,238.06453,74,64,71
238.06453,238.30647,72,64,71
238.30647,238.51816,70,64,71
238.5484,239.51614,75,64,71
239.51614,239.72784,74,64,71
239.87904,239.9849,74,64,71
240.00002,240.24196,72,64,71
240.24196,240.48389,75,64,71
240.48389,240.72583,72,64,71
240.72583,240.93752,69,64,71
240.96776,241.33066,70,64,71
241.33066,241.39114,72,64,71
241.39114,241.44356,74,64,71
241.45163,242.2984,72,64,71
242.41937,242.73691,65,64,71
242.78227,242.88812,65,64,71
242.90324,243.14517,70,64,71
243.14517,243.38712,72,64,71
243.38712,243.62904,69,64,71
243.62904,243.78731,70,64,71
243.8105,243.87099,74,64,71
243.87099,244.11292,72,64,71
244.11292,244.32462,70,64,71
244.35486,245.3226,75,64,71
245.3226,245.53429,74,64,71
245.6855,245.79135,74,64,71
245.80647,246.0484,72,64,71
246.0484,246.29034,75,64,71
246.29034,246.53227,72,64,71
246.53227,246.74397,67,64,71
246.77422,247.13712,69,64,71
247.13712,247.1976,70,64,71
247.1976,247.25002,72,64,71
247.25809,247.32864,70,64,71
247.41937,247.58066,82,64,71
247.58066,247.72179,81,64,71
247.74196,247.81252,79,64,71
247.90324,247.9738,77,64,71
248.06453,248.1351,76,64,71
248.22583,248.29639,77,64,71
248.38712,248.45767,79,64,71
248.5484,248.61897,77,64,71
248.7097,248.87099,75,64,71
248.87099,249.03227,74,64,71
249.03227,249.1734,72,64,71
249.19356,249.26413,70,64,71
249.35486,249.42542,69,64,71
249.51614,249.58672,67,64,71
249.67743,249.748,65,64,71
249.83873,249.90929,67,64,71
250.00002,250.07059,69,64,71
250.1613,250.23187,70,64,71
250.3226,250.48389,82,64,71
250.48389,250.62502,81,64,71
250.64517,250.71574,79,64,71
250.80647,250.87703,77,64,71
250.96776,251.03833,76,64,71
251.12904,251.19962,77,64,71
251.29034,251.3609,79,64,71
251.45163,251.5222,77,64,71
251.61292,251.77422,75,64,71
251.77422,251.9355,74,64,71
251.9355,252.07663,72,64,71
252.09679,252.16736,70,64,71
252.25809,252.32864,69,64,71
252.41937,252.48993,67,64,71
252.58066,252.65123,65,64,71
252.74196,252.81252,67,64,71
252.90324,252.9738,69,64,71
253.06453,253.22583,70,64,71
253.42743,253.47986,74,64,71
253.5484,253.76212,70,64,71
0.483871,1.7540324,65,64,60
1.935484,2.7822583,67,64,60
2.903226,3.3266132,65,64,60
3.870968,4.0846777,65,64,60
4.354839,4.5685487,65,64,60
4.83871,5.6854844,65,64,60
6.290323,7.5604844,65,64,60
7.741936,8.709678,67,64,60
8.709678,9.133065,65,64,60
9.67742,9.8911295,67,64,60
10.161291,10.375001,65,64,60
10.645162,11.068549,65,64,60
11.612904,11.930445,65,64,60
11.975807,12.081654,65,64,60
12.096775,14.818549,58,64,60
15.000001,16.875002,65,64,60
17.419355,17.736897,65,64,60
17.782259,17.888105,65,64,60
17.903227,20.625002,58,64,60
20.806454,21.653227,63,64,60
21.774195,22.197582,65,64,60
22.258066,22.471775,58,64,60
22.741938,22.955647,70,64,60
24.677422,24.99496,65,64,60
25.040325,25.146172,65,64,60
25.161291,25.796373,65,64,60
27.580647,27.898188,65,64,60
27.94355,28.049397,65,64,60
28.064518,28.699598,65,64,60
36.774197,38.044357,65,64,60
38.225807,39.19355,67,64,60
39.19355,40.10081,65,64,60
40.161293,40.58468,65,64,60
40.645164,41.06855,65,64,60
41.129036,41.97581,65,64,60
42.580647,43.85081,65,64,60
44.03226,45.000004,67,64,60
45.000004,45.42339,65,64,60
45.483875,46.451614,63,64,60
46.451614,46.875004,65,64,60
46.935486,47.358875,58,64,60
48.3871,49.65726,65,64,60
49.838715,50.2621,58,64,60
51.290325,52.560486,65,64,60
52.74194,52.90323,58,64,60
53.104843,53.15726,58,64,60
53.22581,53.439518,58,64,60
60.000004,61.875004,65,64,60
65.80646,68.52823,65,64,60
68.70968,69.55646,70,64,60
69.67742,69.91936,69,64,60
69.91936,70.13105,65,64,60
70.16129,70.58468,67,64,60
71.61291,74.33468,65,64,60
74.516136,75.48388,70,64,60
75.48388,75.907265,67,64,60
75.96775,76.17944,65,64,60
77.90323,78.010086,67,64,60
78.3871,78.49396,67,64,60
78.87097,79.08469,65,64,60
80.80646,80.913315,67,64,60
81.29033,81.39719,67,64,60
81.7742,84.49597,65,64,60
84.67742,85.100815,58,64,60
86.129036,86.55242,58,64,60
87.58065,88.004036,58,64,60
89.516136,89.72984,65,64,60
90.00001,90.213715,65,64,60
90.48388,90.907265,63,64,60
92.41936,92.63307,67,64,60
92.90323,93.11694,67,64,60
93.3871,93.81049,65,64,60
94.838715,95.2621,65,64,60
96.29033,96.713715,65,64,60
100.645164,101.126015,58,64,60
101.129036,101.609886,58,64,60
101.61291,102.066536,58,64,60
102.09678,103.36694,58,64,60
103.54839,104.395164,63,64,60
104.516136,104.75807,62,64,60
104.75807,104.969765,58,64,60
105.00001,105.213715,65,64,60
105.48388,105.697586,65,64,60
106.45162,106.66533,58,64,60
106.93549,107.1492,58,64,60
107.419365,107.63307,58,64,60
107.90324,109.17339,58,64,60
109.35484,110.322586,63,64,60
110.322586,110.74597,65,64,60
110.80646,110.913315,58,64,60
111.04839,111.15525,58,64,60
111.29033,111.504036,58,64,60
113.225815,113.54336,65,64,60
113.588715,113.694565,65,64,60
113.70969,114.344765,65,64,60
119.032265,119.34981,58,64,60
119.39517,119.501015,58,64,60
119.516136,120.151215,58,64,60
122.419365,123.05444,58,64,60
124.516136,124.5867,72,64,60
124.67743,124.74799,70,64,60
124.838715,124.90928,68,64,60
125.00001,125.07057,67,64,60
125.1613,125.231865,65,64,60
125.322586,125.80646,63,64,60
125.80646,126.01815,62,64,60
129.19356,129.5111,58,64,60
129.55646,129.66231,58,64,60
129.67743,129.91936,63,64,60
129.91936,130.1613,65,64,60
130.1613,130.40323,62,64,60
130.40323,130.56151,63,64,60
130.58469,130.64517,67,64,60
130.64517,130.8871,65,64,60
130.8871,131.0988,63,64,60
131.12904,132.09679,68,64,60
132.09679,132.30847,67,64,60
132.45969,132.56554,67,64,60
132.58066,132.82259,65,64,60
132.82259,133.06453,68,64,60
133.06453,133.30646,65,64,60
133.30646,133.51816,62,64,60
133.5484,133.9113,63,64,60
133.9113,133.97179,65,64,60
133.97179,134.0242,67,64,60
134.03227,134.87904,65,64,60
135.00002,135.31755,58,64,60
135.36292,135.46877,58,64,60
135.48389,135.72581,63,64,60
135.72581,135.96776,65,64,60
135.96776,136.20969,62,64,60
136.20969,136.36795,63,64,60
136.39114,136.45161,67,64,60
136.45161,136.69356,65,64,60
136.69356,136.90526,63,64,60
136.93549,137.90323,68,64,60
137.90323,138.11493,67,64,60
138.26614,138.37198,67,64,60
138.3871,138.62904,65,64,60
138.62904,138.87097,68,64,60
138.87097,139.11292,65,64,60
139.11292,139.3246,60,64,60
139.35484,139.71776,62,64,60
139.71776,139.77823,63,64,60
139.77823,139.83066,65,64,60
139.83871,140.05042,63,64,60
140.32259,140.80344,63,64,60
140.80646,141.26009,63,64,60
141.29033,143.16533,63,64,60
143.22581,143.43752,63,64,60
146.12904,146.82663,65,64,60
147.09679,148.97179,65,64,60
149.03227,149.24396,65,64,60
151.45163,151.55847,65,64,60
151.69356,151.80042,65,64,60
151.9355,152.1492,65,64,60
152.90323,153.01009,65,64,60
153.14517,153.25203,65,64,60
153.3871,153.60081,65,64,60
154.35484,154.77823,65,64,60
155.80646,157.46977,65,64,60
157.50002,157.60687,65,64,60
157.74194,157.8488,65,64,60
157.98389,158.09073,65,64,60
158.22581,158.33267,65,64,60
158.46776,158.5746,65,64,60
158.70969,160.373,65,64,60
160.40324,160.51009,65,64,60
160.64517,160.75203,65,64,60
160.8871,160.99396,65,64,60
161.12904,161.2359,65,64,60
161.37097,161.47783,65,64,60
161.61292,162.0363,65,64,60
164.51614,164.93953,65,64,60
167.41937,167.63307,65,64,60
168.87097,172.19759,65,64,60
172.25807,172.47179,65,64,60
173.22581,174.89114,70,64,60
175.1613,175.37502,70,64,60
175.64517,175.85889,70,64,60
176.12904,177.79437,70,64,60
178.06453,178.27824,70,64,60
178.5484,178.76212,70,64,60
179.03227,179.45566,70,64,60
180.48389,183.8105,65,64,60
188.46776,188.57462,65,64,60
188.70969,188.81654,65,64,60
188.95163,189.05849,65,64,60
189.19356,191.06856,65,64,60
193.5484,193.97179,65,64,60
196.45163,196.87502,65,64,60
200.80646,202.07663,65,64,60
202.25807,203.10486,67,64,60
203.22581,203.6492,65,64,60
204.19356,204.40727,65,64,60
204.67743,204.89114,65,64,60
205.1613,206.00807,65,64,60
206.61292,207.88307,65,64,60
208.06453,209.03227,67,64,60
209.03227,209.45566,65,64,60
210.00002,210.21373,67,64,60
210.48389,210.6976,65,64,60
210.96776,211.39114,65,64,60
211.9355,212.25304,65,64,60
212.2984,212.40425,65,64,60
212.41937,215.14114,58,64,60
215.3226,217.1976,65,64,60
217.74194,218.0595,65,64,60
218.10486,218.2107,65,64,60
218.22581,220.9476,58,64,60
221.12904,221.97581,63,64,60
222.09679,222.52017,65,64,60
222.58066,222.79437,58,64,60
223.06453,223.27824,70,64,60
225.00002,225.31755,65,64,60
225.36292,225.46877,65,64,60
225.48389,226.11897,65,64,60
227.90324,228.22078,65,64,60
228.26614,228.372,65,64,60
228.38712,229.02219,65,64,60
237.09679,238.36696,65,64,60
238.5484,239.51614,67,64,60
239.51614,240.4234,65,64,60
240.48389,240.90727,65,64,60
240.96776,241.39114,65,64,60
241.45163,242.2984,65,64,60
242.90324,244.1734,65,64,60
244.35486,245.3226,67,64,60
245.3226,245.74599,65,64,60
245.80647,246.77422,63,64,60
246.77422,247.1976,65,64,60
247.25809,247.68147,58,64,60
248.7097,249.97986,65,64,60
250.1613,250.5847,58,64,60
251.61292,252.88309,65,64,60
253.06453,253.22583,58,64,60
253.42743,253.47986,58,64,60
253.5484,253.76212,58,64,60
0.483871,2.4163308,46,64,70
2.419355,2.9002018,46,64,70
2.903226,3.3568552,46,64,70
3.387097,4.2338715,51,64,70
4.354839,4.5967746,50,64,70
4.5967746,4.808468,46,64,70
4.83871,5.5362906,41,64,70
6.290323,8.222783,46,64,70
8.225807,8.706654,46,64,70
8.709678,9.163307,46,64,70
9.193549,10.161291,51,64,70
10.161291,10.584678,53,64,70
10.645162,10.752017,46,64,70
10.887097,10.993953,58,64,70
11.129033,11.235888,53,64,70
11.370969,11.477823,58,64,70
11.612904,11.719759,50,64,70
11.854839,11.961695,53,64,70
12.096775,12.580646,58,64,70
12.580646,13.064517,62,64,70
13.064517,13.487905,58,64,70
13.548388,14.032259,55,64,70
14.032259,14.51613,57,64,70
14.51613,14.939517,58,64,70
15.000001,15.846775,51,64,70
15.967743,16.209679,50,64,70
16.209679,16.421371,46,64,70
16.451614,16.875002,53,64,70
16.935486,17.147179,41,64,70
17.17742,17.419355,65,64,70
17.419355,17.661291,63,64,70
17.661291,17.872986,60,64,70
17.903227,18.387098,58,64,70
18.387098,18.87097,62,64,70
18.87097,19.294355,58,64,70
19.35484,19.83871,55,64,70
19.83871,20.322582,57,64,70
20.322582,20.74597,58,64,70
20.806454,21.653227,51,64,70
21.774195,22.197582,53,64,70
22.258066,22.471775,46,64,70
22.741938,22.955647,58,64,70
24.677422,24.83871,53,64,70
24.83871,25.000002,55,64,70
25.000002,25.14113,57,64,70
25.161291,25.584679,58,64,70
25.645163,25.856857,46,64,70
27.580647,27.721777,53,64,70
27.741938,27.883066,55,64,70
27.903227,28.044357,57,64,70
28.064518,28.487906,58,64,70
28.54839,28.760082,46,64,70
29.51613,30.15121,58,64,70
30.483873,30.967745,45,64,70
30.967745,32.842743,46,64,70
33.3871,33.70464,53,64,70
33.750004,33.85585,48,64,70
33.87097,35.322582,50,64,70
35.322582,35.74597,46,64,70
36.774197,37.255043,46,64,70
37.258068,37.738914,46,64,70
37.74194,38.195568,46,64,70
38.225807,39.49597,46,64,70
39.67742,40.524197,51,64,70
40.645164,40.8871,50,64,70
40.8871,41.098793,46,64,70
41.129036,41.55242,41,64,70
41.612907,42.09678,53,64,70
42.09678,42.520164,51,64,70
42.580647,43.42742,50,64,70
43.54839,43.97178,46,64,70
44.03226,44.516132,43,64,70
44.516132,45.000004,45,64,70
45.000004,45.42339,46,64,70
45.483875,46.451614,51,64,70
46.451614,46.875004,53,64,70
46.935486,47.358875,46,64,70
48.3871,48.54839,63,64,70
48.54839,48.709682,62,64,70
48.709682,48.85081,60,64,70
48.87097,48.941536,58,64,70
49.03226,49.102825,57,64,70
49.19355,49.264114,55,64,70
49.354843,49.425407,53,64,70
49.516132,49.586697,55,64,70
49.67742,49.747986,57,64,70
49.838715,50.2621,58,64,70
51.290325,51.45162,63,64,70
51.45162,51.612907,62,64,70
51.612907,51.754036,60,64,70
51.774197,51.84476,58,64,70
51.935486,52.00605,57,64,70
52.09678,52.167343,55,64,70
52.258068,52.328632,53,64,70
52.419357,52.48992,55,64,70
52.58065,52.651215,57,64,70
52.74194,52.90323,58,64,70
53.104843,53.15726,53,64,70
53.22581,53.439518,46,64,70
54.19355,54.40726,58,64,70
54.67742,54.891132,62,64,70
55.161293,55.375004,58,64,70
55.645164,55.858875,53,64,70
56.129036,56.342747,57,64,70
56.612907,56.82662,53,64,70
57.09678,57.943554,58,64,70
58.06452,58.487907,46,64,70
58.54839,58.97178,53,64,70
59.03226,59.15323,55,64,70
59.15323,59.274197,53,64,70
59.274197,59.516132,52,64,70
59.516132,59.758068,53,64,70
59.758068,59.96976,55,64,70
60.000004,60.42339,57,64,70
60.483875,61.93549,65,64,70
61.93549,62.419357,64,64,70
62.419357,62.842747,65,64,70
62.90323,63.750004,58,64,70
63.87097,64.29436,55,64,70
64.35484,64.77823,60,64,70
64.838715,65.2621,48,64,70
65.80646,67.738914,41,64,70
67.74194,68.222786,41,64,70
68.22581,68.67944,41,64,70
68.70968,69.19355,40,64,70
69.19355,69.61694,48,64,70
69.67742,69.891136,41,64,70
70.16129,71.00807,48,64,70
71.129036,71.37097,46,64,70
71.37097,71.582664,43,64,70
71.61291,72.09376,41,64,70
72.09678,72.57763,41,64,70
72.58065,73.03428,41,64,70
73.06452,74.33468,41,64,70
74.516136,75.48388,46,64,70
75.48388,75.907265,48,64,70
75.96775,76.17944,41,64,70
76.451614,76.663315,53,64,70
76.935486,77.14719,57,64,70
77.41936,77.84275,55,64,70
78.3871,78.810486,48,64,70
78.87097,79.082664,41,64,70
79.35484,79.566536,53,64,70
79.838715,80.05041,57,64,70
80.322586,80.74597,55,64,70
81.29033,81.713715,48,64,70
81.7742,81.98589,41,64,70
82.25807,82.469765,45,64,70
82.74194,82.953636,48,64,70
83.225815,83.6492,53,64,70
84.19356,84.67742,57,64,70
84.67742,85.100815,58,64,70
85.645164,86.129036,57,64,70
86.129036,86.55242,58,64,70
87.09678,87.58065,57,64,70
87.58065,88.004036,58,64,70
88.54839,89.032265,57,64,70
89.032265,89.45565,58,64,70
89.516136,89.72984,62,64,70
90.00001,90.213715,58,64,70
90.48388,91.754036,63,64,70
91.93549,93.20565,51,64,70
93.3871,93.81049,53,64,70
93.87097,94.294365,41,64,70
94.838715,95.2621,53,64,70
95.322586,95.74597,41,64,70
96.29033,96.713715,53,64,70
96.7742,97.197586,41,64,70
97.25807,97.328636,55,64,70
97.419365,97.48993,51,64,70
97.58065,97.651215,48,64,70
97.74194,99.19356,46,64,70
99.19356,99.61694,45,64,70
100.1613,100.478836,53,64,70
100.5242,100.63005,53,64,70
100.645164,100.8871,58,64,70
100.8871,101.129036,60,64,70
101.129036,101.37097,57,64,70
101.37097,101.52924,58,64,70
101.55243,101.61291,62,64,70
101.61291,101.85484,60,64,70
101.85484,102.066536,58,64,70
102.09678,103.06452,63,64,70
103.06452,103.276215,62,64,70
103.42743,103.53327,62,64,70
103.54839,103.79033,60,64,70
103.79033,104.032265,63,64,70
104.032265,104.2742,60,64,70
104.2742,104.48589,57,64,70
104.516136,104.879036,58,64,70
104.879036,104.93952,60,64,70
104.93952,104.99194,62,64,70
105.00001,105.84678,60,64,70
105.96775,106.285286,53,64,70
106.33065,106.4365,53,64,70
106.45162,106.69356,58,64,70
106.69356,106.93549,60,64,70
106.93549,107.17743,57,64,70
107.17743,107.33569,58,64,70
107.35888,107.419365,62,64,70
107.419365,107.6613,60,64,70
107.6613,107.87299,58,64,70
107.90324,108.87097,63,64,70
108.87097,109.08267,62,64,70
109.23388,109.33972,62,64,70
109.35484,109.59678,60,64,70
109.59678,109.838715,63,64,70
109.838715,110.08065,60,64,70
110.08065,110.29234,55,64,70
110.322586,110.68549,57,64,70
110.68549,110.74597,58,64,70
110.74597,110.79839,60,64,70
110.80646,111.22984,58,64,70
111.7742,111.93549,65,64,70
112.13711,112.18952,65,64,70
112.25807,112.419365,65,64,70
112.419365,112.58065,64,64,70
112.58065,112.74194,63,64,70
112.74194,112.90324,62,64,70
112.90324,113.06452,60,64,70
113.06452,113.225815,58,64,70
113.225815,113.38711,57,64,70
113.38711,113.54839,58,64,70
113.54839,113.68952,60,64,70
113.70969,114.19356,62,64,70
114.19356,114.40525,58,64,70
114.67743,114.838715,62,64,70
115.04033,115.09275,62,64,70
115.1613,115.322586,62,64,70
115.322586,115.48388,61,64,70
115.48388,115.64517,60,64,70
115.64517,115.80646,58,64,70
115.80646,115.96775,57,64,70
115.96775,116.12904,55,64,70
116.12904,116.29033,54,64,70
116.29033,116.45162,55,64,70
116.45162,116.59275,57,64,70
116.61291,117.09678,58,64,70
117.09678,117.30848,55,64,70
117.58065,117.74194,58,64,70
117.94356,117.99598,58,64,70
118.06452,118.225815,58,64,70
118.225815,118.38711,57,64,70
118.38711,118.54839,56,64,70
118.54839,118.70969,55,64,70
118.70969,118.87098,53,64,70
118.87098,119.032265,51,64,70
119.032265,119.19356,50,64,70
119.19356,119.35484,51,64,70
119.35484,119.49598,53,64,70
119.516136,120.00001,55,64,70
120.00001,120.2117,51,64,70
120.24194,120.48388,62,64,70
120.48388,120.725815,63,64,70
120.725815,120.93751,59,64,70
120.96775,121.20969,60,64,70
121.20969,121.45162,55,64,70
121.45162,121.69356,56,64,70
121.69356,121.90525,52,64,70
121.93549,122.29839,53,64,70
122.29839,122.35888,55,64,70
122.35888,122.4113,56,64,70
122.419365,122.90324,51,64,70
122.90324,123.044365,50,64,70
123.06452,123.135086,60,64,70
123.225815,123.29638,58,64,70
123.38711,123.45767,56,64,70
123.54839,123.61896,55,64,70
123.70969,123.78025,53,64,70
123.87098,124.35485,51,64,70
124.35485,124.56654,50,64,70
125.322586,125.74598,46,64,70
128.70969,129.19356,46,64,70
129.19356,129.61694,44,64,70
129.67743,130.1613,43,64,70
130.1613,130.64517,46,64,70
130.64517,131.06856,43,64,70
131.12904,131.61292,48,64,70
131.61292,132.09679,50,64,70
132.09679,132.52017,51,64,70
132.58066,133.5484,56,64,70
133.5484,133.79033,55,64,70
133.79033,134.00203,51,64,70
134.03227,134.45566,46,64,70
134.51614,134.93953,58,64,70
135.00002,135.24194,46,64,70
135.24194,135.45364,44,64,70
135.48389,135.96776,43,64,70
135.96776,136.45161,46,64,70
136.45161,136.87502,43,64,70
136.93549,137.41936,48,64,70
137.41936,137.90323,50,64,70
137.90323,138.32663,51,64,70
138.3871,139.35484,44,64,70
139.35484,139.77823,46,64,70
139.83871,139.94557,39,64,70
140.08066,140.18752,43,64,70
140.32259,140.42944,46,64,70
140.56453,140.67139,51,64,70
140.80646,140.91331,55,64,70
141.0484,141.15526,58,64,70
141.29033,141.39719,63,64,70
141.53227,141.63913,58,64,70
141.7742,141.88106,55,64,70
142.01614,142.12299,51,64,70
142.25807,142.36493,46,64,70
142.50002,142.60686,43,64,70
142.74194,142.8488,39,64,70
142.98389,143.09073,51,64,70
143.22581,143.43752,39,64,70
145.64517,145.75203,41,64,70
145.8871,145.99396,45,64,70
146.12904,146.2359,48,64,70
146.37097,146.47783,53,64,70
146.61292,146.71977,57,64,70
146.85484,146.9617,60,64,70
147.09679,147.20364,65,64,70
147.33871,147.44557,60,64,70
147.58066,147.68752,57,64,70
147.82259,147.92944,53,64,70
148.06453,148.17139,48,64,70
148.30646,148.41331,45,64,70
148.5484,148.65526,41,64,70
148.79033,148.89719,53,64,70
149.03227,149.24396,41,64,70
150.00002,150.21371,60,64,70
150.48389,150.69759,53,64,70
150.96776,151.18146,57,64,70
151.45163,151.87502,58,64,70
152.41937,152.84276,53,64,70
152.90323,153.32663,58,64,70
153.87097,154.29437,53,64,70
154.35484,154.77823,58,64,70
154.83871,155.2621,46,64,70
155.80646,156.22984,53,64,70
156.29033,156.71371,41,64,70
158.22581,158.54335,65,64,70
158.58871,158.69456,62,64,70
158.70969,159.19356,63,64,70
159.19356,159.67743,60,64,70
159.67743,160.10081,57,64,70
160.1613,160.64517,58,64,70
160.64517,161.12904,53,64,70
161.12904,161.55243,46,64,70
161.61292,161.71877,41,64,70
161.73389,161.83972,45,64,70
161.85484,161.9607,48,64,70
161.97581,162.08167,53,64,70
162.09679,162.20264,57,64,70
162.21776,162.3236,60,64,70
162.33871,162.44456,65,64,70
162.45969,162.56554,64,64,70
162.58066,162.70163,62,64,70
162.70163,162.82259,60,64,70
162.82259,162.94356,58,64,70
162.94356,163.04941,57,64,70
163.06453,163.17038,55,64,70
163.1855,163.29134,53,64,70
163.30646,163.41231,52,64,70
163.42743,163.53328,50,64,70
163.5484,163.65425,48,64,70
163.66937,163.7752,52,64,70
163.79033,163.89618,55,64,70
163.9113,164.01715,52,64,70
164.03227,164.15324,48,64,70
164.15324,164.2742,46,64,70
164.2742,164.39517,45,64,70
164.39517,164.50102,43,64,70
164.51614,164.622,41,64,70
164.6371,164.74295,45,64,70
164.75807,164.86392,48,64,70
164.87904,164.9849,53,64,70
165.00002,165.10585,57,64,70
165.12097,165.22682,60,64,70
165.24194,165.3478,65,64,70
165.36292,165.46877,64,64,70
165.48389,165.60484,62,64,70
165.60484,165.72581,60,64,70
165.72581,165.84679,58,64,70
165.84679,165.95264,57,64,70
165.96776,166.0736,55,64,70
166.08871,166.19456,53,64,70
166.20969,166.31554,52,64,70
166.33066,166.43651,50,64,70
166.45163,166.55746,48,64,70
166.57259,166.67844,52,64,70
166.69356,166.79941,55,64,70
166.81453,166.92038,52,64,70
166.9355,167.05646,48,64,70
167.05646,167.17743,46,64,70
167.17743,167.2984,45,64,70
167.2984,167.40425,43,64,70
167.41937,167.63307,41,64,70
168.87097,169.29437,53,64,70
170.32259,170.74597,53,64,70
171.7742,171.98792,57,64,70
172.25807,172.47179,60,64,70
172.74194,172.95566,53,64,70
173.22581,173.43953,46,64,70
173.70969,173.9234,46,64,70
174.19356,174.40727,46,64,70
174.67743,176.34276,46,64,70
176.61292,176.82663,46,64,70
177.09679,177.3105,46,64,70
177.58066,178.5484,46,64,70
178.5484,178.97179,50,64,70
179.03227,179.45566,51,64,70
180.00002,180.21371,48,64,70
180.48389,183.8105,53,64,70
187.01614,187.123,53,64,70
187.25807,187.36493,53,64,70
187.50002,187.60687,53,64,70
187.74194,188.22581,53,64,70
188.22581,188.43752,57,64,70
188.46776,188.57462,58,64,70
188.70969,188.81654,60,64,70
188.95163,189.05849,60,64,70
189.19356,191.06856,60,64,70
193.5484,193.97179,53,64,70
196.45163,196.87502,53,64,70
200.80646,202.73892,46,64,70
202.74194,203.2228,46,64,70
203.22581,203.67944,46,64,70
203.70969,204.55647,51,64,70
204.67743,204.91937,50,64,70
204.91937,205.13106,46,64,70
205.1613,205.85889,41,64,70
206.61292,208.54538,46,64,70
208.5484,209.02925,46,64,70
209.03227,209.4859,46,64,70
209.51614,210.48389,51,64,70
210.48389,210.90727,53,64,70
210.96776,211.07462,46,64,70
211.20969,211.31654,58,64,70
211.45163,211.55849,53,64,70
211.69356,211.80042,58,64,70
211.9355,212.04236,50,64,70
212.17743,212.28429,53,64,70
212.41937,212.90324,58,64,70
212.90324,213.38712,62,64,70
213.38712,213.8105,58,64,70
213.87099,214.35486,55,64,70
214.35486,214.83873,57,64,70
214.83873,215.26212,58,64,70
215.3226,216.16937,51,64,70
216.29034,216.53227,50,64,70
216.53227,216.74397,46,64,70
216.7742,217.1976,53,64,70
217.25807,217.46977,41,64,70
217.50002,217.74194,65,64,70
217.74194,217.98389,63,64,70
217.98389,218.19557,60,64,70
218.22581,218.70969,58,64,70
218.70969,219.19356,62,64,70
219.19356,219.61694,58,64,70
219.67743,220.1613,55,64,70
220.1613,220.64517,57,64,70
220.64517,221.06856,58,64,70
221.12904,221.97581,51,64,70
222.09679,222.52017,53,64,70
222.58066,222.79437,46,64,70
223.06453,223.27824,58,64,70
225.00002,225.1613,53,64,70
225.1613,225.3226,55,64,70
225.3226,225.46373,57,64,70
225.48389,225.90727,58,64,70
225.96776,226.17944,46,64,70
227.90324,228.04437,53,64,70
228.06453,228.20566,55,64,70
228.22581,228.36694,57,64,70
228.38712,228.8105,58,64,70
228.87099,229.08267,46,64,70
229.83873,230.4738,58,64,70
230.80647,231.29034,45,64,70
231.29034,233.16534,46,64,70
233.70969,234.02724,53,64,70
234.0726,234.17844,48,64,70
234.19356,235.64517,50,64,70
235.64517,236.06856,46,64,70
237.09679,237.57764,46,64,70
237.58066,238.06151,46,64,70
238.06453,238.51816,46,64,70
238.5484,239.81856,46,64,70
240.00002,240.84679,51,64,70
240.96776,241.20969,50,64,70
241.20969,241.42139,46,64,70
241.45163,241.87502,41,64,70
241.9355,242.41937,53,64,70
242.41937,242.84276,51,64,70
242.90324,243.75002,50,64,70
243.87099,244.29437,46,64,70
244.35486,244.83873,43,64,70
244.83873,245.3226,45,64,70
245.3226,245.74599,46,64,70
245.80647,246.77422,51,64,70
246.77422,247.1976,53,64,70
247.25809,247.68147,46,64,70
248.7097,248.87099,63,64,70
248.87099,249.03227,62,64,70
249.03227,249.1734,60,64,70
249.19356,249.26413,58,64,70
249.35486,249.42542,57,64,70
249.51614,249.58672,55,64,70
249.67743,249.748,53,64,70
249.83873,249.90929,55,64,70
250.00002,250.07059,57,64,70
250.1613,250.5847,58,64,70
251.61292,251.77422,63,64,70
251.77422,251.9355,62,64,70
251.9355,252.07663,60,64,70
252.09679,252.16736,58,64,70
252.25809,252.32864,57,64,70
252.41937,252.48993,55,64,70
252.58066,252.65123,53,64,70
252.74196,252.81252,55,64,70
252.90324,252.9738,57,64,70
253.06453,253.22583,58,64,70
253.42743,253.47986,53,64,70
253.5484,253.76212,46,64,70
