start_time,end_time,note_value,velocity,instrument_program_number
0.6818175,0.88257486,74,64,73
1.5909075,1.7916648,73,64,73
2.4999976,2.700755,74,64,73
3.4090874,3.609845,74,64,73
4.3181777,4.5189347,74,64,73
5.2272673,5.428025,79,64,73
6.1363573,6.337115,76,64,73
7.0454473,7.246205,77,64,73
7.9545374,8.352264,81,64,73
8.863627,9.261354,81,64,73
9.772717,10.1704445,81,64,73
10.6818075,11.079535,81,64,73
11.590898,12.045443,74,64,73
12.045443,12.499988,73,64,73
12.499988,12.897715,76,64,73
12.954533,13.35226,76,64,73
13.409078,13.63635,74,64,73
13.63635,13.835214,73,64,73
13.863623,17.386347,74,64,73
17.499983,18.295437,73,64,73
18.409073,19.005663,74,64,73
19.09089,19.289753,77,64,73
19.318163,19.545435,77,64,73
19.545435,19.744299,76,64,73
19.772707,19.971571,74,64,73
19.99998,20.198843,73,64,73
20.227253,21.136343,73,64,73
21.136343,21.53407,74,64,73
27.954517,28.409063,76,64,73
28.409063,28.863607,81,64,73
28.863607,29.261333,73,64,73
29.318153,29.71588,74,64,73
31.590878,32.042583,82,64,73
32.04542,32.497128,82,64,73
32.499966,32.9261,82,64,73
32.954514,34.772694,82,64,73
34.772694,35.170418,79,64,73
40.681778,41.136322,84,64,73
41.136322,41.590866,80,64,73
41.590866,41.988594,77,64,73
42.499958,42.954502,82,64,73
42.954502,43.409046,79,64,73
43.409046,43.806774,75,64,73
49.318134,51.335175,81,64,73
51.363586,51.412827,81,64,73
51.477222,51.526463,79,64,73
51.59086,51.6401,77,64,73
51.704494,51.753735,79,64,73
51.81813,51.86737,76,64,73
51.931767,51.98101,77,64,73
52.045403,52.094646,74,64,73
52.15904,52.208282,76,64,73
52.272675,52.32192,77,64,73
52.38631,52.435555,79,64,73
52.499947,52.54919,81,64,73
52.613583,52.662827,83,64,73
52.72722,52.776463,85,64,73
52.840855,52.8901,86,64,73
52.95449,53.15525,85,64,73
53.40904,54.20449,81,64,73
54.318127,54.971535,81,64,73
54.999947,55.049187,81,64,73
55.113583,55.162823,79,64,73
55.22722,55.27646,77,64,73
55.340855,55.390095,79,64,73
55.45449,55.50373,76,64,73
55.568127,55.617367,77,64,73
55.681763,55.731007,74,64,73
55.7954,55.844643,76,64,73
55.909035,55.95828,77,64,73
56.02267,56.071915,79,64,73
56.136307,56.18555,81,64,73
56.249943,56.299187,83,64,73
56.36358,56.412823,85,64,73
56.477215,56.52646,86,64,73
56.59085,56.98858,85,64,73
57.0454,57.343693,88,64,73
57.386307,57.485737,88,64,73
57.499943,57.89767,81,64,73
58.40903,59.516987,77,64,73
59.545395,59.644825,81,64,73
59.65903,59.758465,79,64,73
59.772667,59.8721,77,64,73
59.886303,59.985737,76,64,73
59.99994,60.099373,74,64,73
60.113575,60.21301,72,64,73
60.22721,60.32759,70,64,73
60.454487,60.553917,86,64,73
60.568123,60.667553,84,64,73
60.68176,60.78119,82,64,73
60.795395,60.894825,81,64,73
60.90903,61.00846,79,64,73
61.022667,61.122097,77,64,73
61.136303,61.236683,76,64,73
61.363575,61.463005,79,64,73
61.47721,61.57664,77,64,73
61.590847,61.69028,76,64,73
61.704483,61.803917,74,64,73
61.81812,61.917553,72,64,73
61.931755,62.03119,70,64,73
62.04539,62.24615,69,64,73
68.40902,68.860725,79,64,73
68.86357,69.2897,79,64,73
69.318115,70.42606,87,64,73
70.454475,70.554855,86,64,73
70.68175,70.78213,84,64,73
70.90902,71.0094,82,64,73
71.13629,72.7272,81,64,73
72.954475,74.14765,81,64,73
74.31811,74.54538,79,64,73
74.54538,74.74424,78,64,73
74.77265,74.97341,79,64,73
75.68174,75.8825,74,64,73
76.590836,76.79159,72,64,73
77.49992,77.70068,72,64,73
78.40901,78.60977,72,64,73
85.79537,85.8948,72,64,73
85.909004,86.00844,74,64,73
86.022644,86.12207,76,64,73
86.13628,86.23571,77,64,73
86.249916,86.34934,79,64,73
86.36355,86.46298,81,64,73
86.47719,86.576614,82,64,73
86.59082,86.6912,84,64,73
86.81809,86.91847,77,64,73
87.045364,87.10219,79,64,73
87.10219,87.159004,77,64,73
87.159004,87.21582,79,64,73
87.21582,87.27264,77,64,73
87.27264,87.38628,76,64,73
87.38628,87.48571,77,64,73
87.499916,87.60029,82,64,73
87.72719,87.82756,82,64,73
87.95446,88.06809,82,64,73
88.06809,88.18173,84,64,73
88.18173,88.295364,86,64,73
88.295364,88.3948,82,64,73
88.409004,88.509384,79,64,73
88.63628,88.73666,79,64,73
88.86355,88.97718,79,64,73
88.97718,89.09082,76,64,73
89.09082,89.20445,79,64,73
89.20445,89.30389,82,64,73
89.31809,89.41847,81,64,73
89.545364,89.645744,81,64,73
89.77264,89.88628,81,64,73
89.88628,89.99991,82,64,73
89.99991,90.11355,84,64,73
90.11355,90.212975,81,64,73
90.22718,90.32756,77,64,73
90.45445,90.55483,77,64,73
90.681725,90.795364,72,64,73
90.795364,90.909,77,64,73
90.909,91.02264,81,64,73
91.02264,91.12207,77,64,73
91.13628,91.23665,79,64,73
91.36355,91.46392,79,64,73
91.59082,91.70445,79,64,73
91.70445,91.81809,81,64,73
91.81809,91.931725,82,64,73
91.931725,92.03116,79,64,73
92.045364,92.14479,77,64,73
92.159,92.25843,76,64,73
92.27264,92.37207,74,64,73
92.38627,92.4857,72,64,73
92.49991,92.61354,71,64,73
92.61354,92.72718,72,64,73
92.72718,92.84081,74,64,73
92.84081,92.94025,76,64,73
92.95445,94.54536,77,64,73
94.77263,96.36354,84,64,73
96.59081,98.18172,89,64,73
98.40899,99.9999,81,64,73
100.22717,101.81808,86,64,73
102.04535,102.4999,85,64,73
102.4999,102.69876,86,64,73
102.954445,103.40899,85,64,73
103.40899,103.60785,86,64,73
103.86353,104.31808,85,64,73
104.31808,104.77262,86,64,73
104.77262,105.227165,88,64,73
105.227165,105.62489,89,64,73
105.68171,106.13626,90,64,73
106.13626,106.93171,91,64,73
107.04535,107.44308,83,64,73
107.49989,108.60785,84,64,73
108.63625,108.73663,86,64,73
108.863525,108.963905,88,64,73
109.0908,109.19118,89,64,73
109.31807,109.37489,81,64,73
109.37489,109.43171,79,64,73
109.43171,109.488525,81,64,73
109.488525,109.54534,79,64,73
109.54534,109.602165,81,64,73
109.602165,109.65898,79,64,73
109.65898,109.7158,81,64,73
109.7158,109.77262,79,64,73
109.77262,109.82944,81,64,73
109.82944,109.88625,79,64,73
109.88625,109.94307,81,64,73
109.94307,109.99989,79,64,73
109.99989,110.05671,81,64,73
110.05671,110.113525,79,64,73
110.113525,110.17034,81,64,73
110.17034,110.227165,79,64,73
110.227165,110.28398,81,64,73
110.28398,110.3408,79,64,73
110.3408,110.39761,81,64,73
110.39761,110.45444,79,64,73
110.45444,110.51125,81,64,73
110.51125,110.56807,79,64,73
110.56807,110.62489,81,64,73
110.62489,110.68171,79,64,73
110.68171,110.738525,81,64,73
110.738525,110.79534,79,64,73
110.79534,110.852165,81,64,73
110.852165,110.90898,79,64,73
110.90898,111.02261,77,64,73
111.02261,111.12205,79,64,73
111.13625,111.53398,77,64,73
119.31806,119.545334,81,64,73
119.545334,119.772606,82,64,73
119.772606,119.99988,84,64,73
119.99988,120.198746,81,64,73
120.22715,120.45442,85,64,73
120.45442,120.681694,86,64,73
120.681694,120.90897,88,64,73
120.90897,121.107834,86,64,73
121.136246,121.36352,84,64,73
121.36352,121.59079,82,64,73
121.59079,121.81806,81,64,73
121.81806,122.01692,79,64,73
122.045334,122.49704,77,64,73
122.49988,122.553856,77,64,73
122.556694,122.61351,76,64,73
122.61351,122.670334,77,64,73
122.670334,122.72715,76,64,73
122.72715,122.84079,74,64,73
122.84079,122.940216,76,64,73
122.95442,123.181694,77,64,73
123.181694,123.408966,79,64,73
123.408966,123.63624,81,64,73
123.63624,123.835106,82,64,73
123.86351,124.09078,84,64,73
124.09078,124.318054,85,64,73
124.318054,124.54533,86,64,73
124.54533,124.744194,82,64,73
124.772606,125.224304,81,64,73
125.22715,125.283966,81,64,73
125.283966,125.34078,79,64,73
125.34078,125.3976,81,64,73
125.3976,125.45442,79,64,73
125.45442,125.568054,77,64,73
125.568054,125.66749,79,64,73
125.681694,126.07942,77,64,73
135.4544,135.5548,81,64,73
135.68169,135.78206,79,64,73
135.90895,136.00934,77,64,73
136.13623,136.2366,76,64,73
136.3635,136.46388,77,64,73
136.59077,136.79153,79,64,73
137.27258,137.37297,82,64,73
137.49986,137.60023,81,64,73
137.72714,137.82751,79,64,73
137.9544,138.05478,77,64,73
138.18169,138.28206,79,64,73
138.40895,138.60971,81,64,73
139.09077,139.19115,84,64,73
139.31804,139.41843,82,64,73
139.54532,139.64569,81,64,73
139.77258,139.87297,79,64,73
139.99986,140.10023,81,64,73
140.22713,140.42789,82,64,73
141.13622,141.19304,81,64,73
141.19304,141.24986,79,64,73
141.24986,141.30667,81,64,73
141.30667,141.3635,79,64,73
141.3635,141.42032,81,64,73
141.42032,141.47713,79,64,73
141.47713,141.53395,81,64,73
141.53395,141.59077,79,64,73
141.59077,141.64758,81,64,73
141.64758,141.7044,79,64,73
141.7044,141.76122,81,64,73
141.76122,141.81804,79,64,73
141.81804,141.93167,77,64,73
141.93167,142.03111,79,64,73
142.04532,142.14569,77,64,73
142.27258,142.37297,81,64,73
142.49986,142.60023,84,64,73
142.9544,143.01122,81,64,73
143.01122,143.06804,79,64,73
143.06804,143.12486,81,64,73
143.12486,143.18167,79,64,73
143.18167,143.2385,81,64,73
143.2385,143.29532,79,64,73
143.29532,143.35213,81,64,73
143.35213,143.40895,79,64,73
143.40895,143.46576,81,64,73
143.46576,143.52258,79,64,73
143.52258,143.5794,81,64,73
143.5794,143.63622,79,64,73
143.63622,143.74986,77,64,73
143.74986,143.84929,79,64,73
143.8635,143.96387,77,64,73
144.09076,144.19115,81,64,73
144.31804,144.41841,84,64,73
144.77258,144.8294,81,64,73
144.8294,144.88622,79,64,73
144.88622,144.94304,81,64,73
144.94304,144.99985,79,64,73
144.99985,145.05667,81,64,73
145.05667,145.1135,79,64,73
145.1135,145.1703,81,64,73
145.1703,145.22713,79,64,73
145.22713,145.28395,81,64,73
145.28395,145.34076,79,64,73
145.34076,145.39758,81,64,73
145.39758,145.4544,79,64,73
145.4544,145.56804,77,64,73
145.56804,145.66747,79,64,73
145.68167,145.78206,77,64,73
145.90895,146.00932,81,64,73
146.13622,146.2366,84,64,73
146.59076,146.64758,81,64,73
146.64758,146.70439,79,64,73
146.70439,146.76122,81,64,73
146.76122,146.81804,79,64,73
146.81804,146.87485,81,64,73
146.87485,146.93167,79,64,73
146.93167,146.9885,81,64,73
146.9885,147.0453,79,64,73
147.0453,147.10213,81,64,73
147.10213,147.15895,79,64,73
147.15895,147.21576,81,64,73
147.21576,147.27258,79,64,73
147.27258,147.38622,77,64,73
147.38622,147.48564,79,64,73
147.49985,147.89758,77,64,73
147.95439,148.25269,81,64,73
148.2953,148.39474,81,64,73
148.40894,148.80667,77,64,73
149.77258,149.97333,84,64,73
150.68167,150.88243,76,64,73
151.59076,151.79152,77,64,73
152.49985,152.7006,65,64,73
153.40894,153.6097,82,64,73
154.31802,154.51878,86,64,73
155.22711,155.42787,79,64,73
156.1362,156.33696,81,64,73
157.95439,158.40894,82,64,73
158.40894,158.80666,81,64,73
159.77257,160.62483,69,64,73
161.59074,162.04529,72,64,73
162.04529,162.49983,77,64,73
162.49983,162.89757,72,64,73
162.95438,164.65892,69,64,73
164.77257,165.56802,67,64,73
166.1362,166.33696,72,64,73
167.04529,167.24605,77,64,73
167.95438,168.15514,82,64,73
168.86346,169.06422,76,64,73
169.31801,169.51877,77,64,73
169.77255,169.8862,77,64,73
169.8862,169.99983,79,64,73
169.99983,170.11346,81,64,73
170.11346,170.21289,82,64,73
170.2271,170.32748,84,64,73
170.45438,170.55475,84,64,73
170.68164,170.78203,84,64,73
170.90892,171.0093,84,64,73
171.1362,173.40892,84,64,73
173.40892,173.86346,85,64,73
173.86346,174.31801,86,64,73
174.31801,174.71573,84,64,73
174.77255,178.18164,83,64,73
178.4089,179.31801,81,64,73
179.31801,180.11345,80,64,73
180.2271,181.818,79,64,73
182.04527,183.63618,78,64,73
183.86345,184.06421,79,64,73
184.318,184.41838,79,64,73
184.54527,184.64565,79,64,73
184.77254,184.8483,80,64,73
184.8483,184.92406,79,64,73
184.92406,184.99982,78,64,73
184.99982,185.10019,79,64,73
185.22708,185.32747,79,64,73
185.45436,185.55473,79,64,73
185.68163,185.75739,80,64,73
185.75739,185.83315,79,64,73
185.83315,185.9089,78,64,73
185.9089,186.00928,79,64,73
186.13618,186.23656,79,64,73
186.36345,186.46382,79,64,73
186.59073,187.27254,87,64,73
187.27254,187.38617,86,64,73
187.38617,187.48561,84,64,73
187.49982,187.70058,83,64,73
187.95436,188.05473,79,64,73
188.18163,188.28201,79,64,73
188.4089,188.48466,80,64,73
188.48466,188.56042,79,64,73
188.56042,188.63617,78,64,73
188.63617,188.73656,79,64,73
188.86345,188.96382,79,64,73
189.09071,189.1911,79,64,73
189.318,189.39375,80,64,73
189.39375,189.46951,79,64,73
189.46951,189.54526,78,64,73
189.54526,189.64565,79,64,73
189.77254,189.87291,79,64,73
189.99982,190.10019,79,64,73
190.22708,190.9089,87,64,73
190.9089,191.02254,86,64,73
191.02254,191.12196,84,64,73
191.13617,191.33693,83,64,73
191.59071,191.6911,79,64,73
191.818,191.91837,79,64,73
192.04526,192.12102,80,64,73
192.12102,192.19678,79,64,73
192.19678,192.27254,78,64,73
192.27254,192.37291,79,64,73
192.4998,192.60019,79,64,73
192.72708,192.82745,79,64,73
192.95435,193.0301,82,64,73
193.0301,193.10587,80,64,73
193.10587,193.18163,79,64,73
193.18163,193.282,80,64,73
193.4089,193.50928,80,64,73
193.63617,193.73654,80,64,73
193.86345,193.9392,79,64,73
193.9392,194.01495,77,64,73
194.01495,194.09071,76,64,73
194.09071,194.1911,77,64,73
194.318,194.41837,82,64,73
194.54526,194.64565,82,64,73
194.77254,194.9733,82,64,73
198.86343,199.31798,80,64,73
199.31798,199.77252,77,64,73
199.77252,200.17026,72,64,73
202.4998,202.95435,75,64,73
202.95435,203.40889,79,64,73
203.40889,203.80661,82,64,73
205.68161,207.49979,80,64,73
207.49979,207.89752,79,64,73
209.31798,209.7157,79,64,73
210.45433,210.55472,79,64,73
210.68161,210.78198,77,64,73
210.90887,211.00926,79,64,73
211.13615,211.33691,80,64,73
214.0907,214.19107,79,64,73
214.31796,214.41835,77,64,73
214.54524,214.64561,79,64,73
214.7725,214.97327,80,64,73
218.40887,222.2441,75,64,73
223.86342,224.26114,75,64,73
224.7725,225.17023,75,64,73
225.90886,226.00925,75,64,73
226.13614,226.23651,75,64,73
226.3634,226.46379,75,64,73
226.59068,226.69106,75,64,73
226.81795,226.91833,75,64,73
227.04523,227.1456,75,64,73
227.2725,227.37288,75,64,73
227.49977,227.60016,74,64,73
227.72705,227.82742,74,64,73
227.95432,228.0547,74,64,73
228.1816,228.28197,74,64,73
228.40886,228.50925,74,64,73
228.63614,228.73651,74,64,73
228.8634,228.96379,74,64,73
229.09068,229.19106,74,64,73
229.31795,230.22704,75,64,73
230.22704,231.02249,79,64,73
231.13614,232.72704,82,64,73
232.95432,234.54523,87,64,73
234.77249,234.99977,87,64,73
234.99977,235.19862,86,64,73
235.22704,235.4259,84,64,73
235.45432,235.65317,83,64,73
235.68158,235.88234,83,64,73
236.13612,236.33688,83,64,73
236.59067,237.49976,84,64,73
237.49976,238.29521,87,64,73
238.40886,239.99976,91,64,73
240.22704,241.81795,90,64,73
242.04521,242.27249,87,64,73
242.27249,242.47134,86,64,73
242.49976,242.60014,86,64,73
242.72704,242.82741,86,64,73
242.9543,243.18158,86,64,73
243.18158,243.38043,84,64,73
243.40884,243.50923,84,64,73
243.63612,243.7365,84,64,73
243.86339,243.96378,82,64,73
244.09067,244.1901,86,64,73
244.2043,244.30373,84,64,73
244.31793,244.41737,82,64,73
244.43158,244.531,81,64,73
244.54521,244.64464,79,64,73
244.65884,244.75829,78,64,73
244.77248,244.87192,79,64,73
244.88612,244.98555,78,64,73
244.99976,245.09918,79,64,73
245.11339,245.21283,81,64,73
245.22702,245.32646,79,64,73
245.34067,245.4401,77,64,73
245.4543,245.55373,76,64,73
245.56793,245.66737,74,64,73
245.68158,245.781,73,64,73
245.79521,245.89464,74,64,73
245.90884,246.00827,76,64,73
246.02248,246.12192,77,64,73
246.13612,246.23555,76,64,73
246.24976,246.34918,77,64,73
246.36339,246.46281,79,64,73
246.47702,246.57646,81,64,73
246.59067,246.6901,79,64,73
246.7043,246.80373,77,64,73
246.81793,246.91737,76,64,73
246.93156,247.031,77,64,73
247.04521,247.14464,79,64,73
247.15884,247.25827,82,64,73
247.27248,247.37192,81,64,73
247.38612,247.48555,79,64,73
247.49976,247.59918,77,64,73
247.61339,247.71281,79,64,73
247.72702,247.82646,81,64,73
247.84067,247.9401,79,64,73
247.9543,248.05373,77,64,73
248.06793,248.16736,79,64,73
248.18156,248.281,76,64,73
248.29521,248.39464,77,64,73
248.40884,248.50827,74,64,73
248.52248,248.62192,76,64,73
248.63611,248.73555,77,64,73
248.74976,248.84918,79,64,73
248.86339,248.96281,81,64,73
248.97702,249.07646,83,64,73
249.09065,249.1901,85,64,73
249.2043,249.30373,86,64,73
249.31793,249.41736,84,64,73
249.43156,249.531,82,64,73
249.54521,249.64464,81,64,73
249.65884,249.75827,79,64,73
249.77248,249.8719,78,64,73
249.88611,249.98555,79,64,73
249.99976,250.09918,81,64,73
250.11339,250.21281,79,64,73
250.22702,250.32646,77,64,73
250.34065,250.4401,76,64,73
250.4543,250.55373,82,64,73
250.56793,250.66736,81,64,73
250.68156,250.781,79,64,73
250.7952,250.89464,77,64,73
250.90884,251.00827,76,64,73
251.02248,251.1219,74,64,73
251.13611,251.33498,73,64,73
251.59065,251.7043,80,64,73
251.7043,251.81793,81,64,73
251.81793,251.93156,82,64,73
251.93156,252.03099,81,64,73
252.0452,252.9543,80,64,73
252.9543,253.15315,81,64,73
253.40884,253.52248,80,64,73
253.52248,253.63611,81,64,73
253.63611,253.74974,82,64,73
253.74974,253.84918,81,64,73
253.86339,254.77248,80,64,73
254.77248,255.1702,81,64,73
256.1361,256.59067,77,64,73
256.59067,256.98837,76,64,73
257.95428,258.40884,77,64,73
258.40884,258.80655,76,64,73
260.68155,260.88232,74,64,73
261.59064,261.7914,73,64,73
262.49973,262.7005,74,64,73
263.4088,263.6096,74,64,73
264.31793,264.51868,74,64,73
265.22702,265.42776,79,64,73
266.1361,266.33685,76,64,73
267.0452,267.24594,77,64,73
267.95428,268.352,81,64,73
268.86337,269.2611,81,64,73
269.77246,270.1702,81,64,73
270.68155,271.07928,81,64,73
271.59064,272.0452,74,64,73
272.0452,272.4429,73,64,73
272.49973,273.352,76,64,73
273.4088,273.60767,74,64,73
273.63608,273.83496,73,64,73
273.86337,274.26108,74,64,73
278.86334,279.6588,74,64,73
279.77246,279.82642,74,64,73
279.82925,279.88608,73,64,73
279.88608,279.9429,74,64,73
279.9429,279.99973,73,64,73
279.99973,280.11334,71,64,73
280.11334,280.2128,73,64,73
280.227,280.62473,74,64,73
287.95425,288.0679,81,64,73
288.0679,288.18152,82,64,73
288.18152,288.29517,81,64,73
288.29517,288.3946,79,64,73
288.4088,288.5092,77,64,73
288.63608,288.73645,77,64,73
288.86334,288.977,74,64,73
288.977,289.0906,77,64,73
289.0906,289.20425,81,64,73
289.20425,289.30368,86,64,73
289.3179,289.41827,82,64,73
289.54517,289.64554,82,64,73
289.77243,289.88608,79,64,73
289.88608,289.9997,81,64,73
289.9997,290.11334,82,64,73
290.11334,290.21277,83,64,73
290.227,290.32736,84,64,73
290.45425,290.55463,84,64,73
290.68152,290.79517,86,64,73
290.79517,290.9088,84,64,73
290.9088,291.02243,79,64,73
291.02243,291.12186,82,64,73
291.13608,291.23645,81,64,73
291.36334,291.4637,81,64,73
291.5906,291.70425,81,64,73
291.70425,291.8179,82,64,73
291.8179,291.93152,84,64,73
291.93152,292.03094,81,64,73
292.04517,292.14554,78,64,73
292.27243,292.3728,78,64,73
292.4997,292.61334,86,64,73
292.61334,292.727,84,64,73
292.727,292.8406,81,64,73
292.8406,292.94003,78,64,73
292.95425,293.05463,79,64,73
293.18152,293.2819,79,64,73
293.40878,293.52243,79,64,73
293.52243,293.63608,81,64,73
293.63608,293.7497,82,64,73
293.7497,293.84915,81,64,73
293.86334,293.96277,79,64,73
293.977,294.07642,77,64,73
294.0906,294.19003,76,64,73
294.20425,294.30368,74,64,73
294.3179,294.43152,73,64,73
294.43152,294.54517,74,64,73
294.54517,294.65878,76,64,73
294.65878,294.75824,73,64,73
294.77243,294.97128,74,64,73
295.227,296.02243,81,64,73
296.13608,296.53378,81,64,73
296.5906,298.18152,85,64,73
298.40878,299.9997,86,64,73
300.22696,301.81787,88,64,73
302.04517,303.63605,89,64,73
303.86334,305.45425,90,64,73
305.68152,305.88226,91,64,73
306.13605,306.33682,86,64,73
306.5906,307.27243,82,64,73
307.27243,307.47128,79,64,73
307.4997,307.59912,77,64,73
307.61334,307.71277,81,64,73
307.72696,307.8264,80,64,73
307.8406,307.94003,81,64,73
307.95422,308.05368,82,64,73
308.06787,308.1673,81,64,73
308.18152,308.28094,80,64,73
308.29514,308.3946,81,64,73
308.40878,308.5082,86,64,73
308.52243,308.62186,84,64,73
308.63605,308.73547,82,64,73
308.7497,308.84912,81,64,73
308.86334,308.96277,79,64,73
308.97696,309.0764,77,64,73
309.0906,309.19003,76,64,73
309.20422,309.30368,74,64,73
309.31787,309.3747,77,64,73
309.3747,309.43152,76,64,73
309.43152,309.4883,77,64,73
309.4883,309.54514,76,64,73
309.54514,309.60196,77,64,73
309.60196,309.65878,76,64,73
309.65878,309.7156,77,64,73
309.7156,309.77243,76,64,73
309.77243,309.82922,77,64,73
309.82922,309.88605,76,64,73
309.88605,309.94287,77,64,73
309.94287,309.9997,76,64,73
309.9997,310.1133,74,64,73
310.1133,310.21277,76,64,73
310.22696,310.28378,77,64,73
310.28378,310.3406,76,64,73
310.3406,310.39743,77,64,73
310.39743,310.45422,76,64,73
310.45422,310.51105,77,64,73
310.51105,310.56787,76,64,73
310.56787,310.6247,77,64,73
310.6247,310.68152,76,64,73
310.68152,310.7383,77,64,73
310.7383,310.79514,76,64,73
310.79514,310.85196,77,64,73
310.85196,310.90878,76,64,73
310.90878,311.02243,74,64,73
311.02243,311.12186,76,64,73
311.13605,311.53378,74,64,73
314.9997,315.10007,69,64,73
315.22696,315.4277,81,64,73
316.81787,316.91824,69,64,73
317.04514,317.24588,81,64,73
318.63605,318.73642,70,64,73
318.8633,319.0641,82,64,73
319.54514,319.6455,73,64,73
319.7724,319.87277,76,64,73
319.9997,320.10007,73,64,73
320.22696,320.4277,74,64,73
320.90878,321.00916,77,64,73
321.13605,321.23642,76,64,73
321.3633,321.46368,74,64,73
321.59058,321.69098,73,64,73
321.81787,321.91824,74,64,73
322.04514,322.24588,76,64,73
322.72696,322.82733,79,64,73
322.95422,323.0546,77,64,73
323.1815,323.28186,76,64,73
323.40875,323.50916,74,64,73
323.63605,323.73642,76,64,73
323.8633,324.06406,77,64,73
324.54514,324.6455,81,64,73
324.7724,324.87277,79,64,73
324.99966,325.10007,77,64,73
325.22696,325.32733,76,64,73
325.45422,325.5546,77,64,73
325.6815,325.88226,79,64,73
326.59058,326.6474,77,64,73
326.6474,326.70422,76,64,73
326.70422,326.76105,77,64,73
326.76105,326.81784,76,64,73
326.81784,326.87466,77,64,73
326.87466,326.9315,76,64,73
326.9315,326.9883,77,64,73
326.9883,327.04514,76,64,73
327.04514,327.10196,77,64,73
327.10196,327.15875,76,64,73
327.15875,327.21558,77,64,73
327.21558,327.2724,76,64,73
327.2724,327.38605,74,64,73
327.38605,327.48547,76,64,73
327.49966,327.60004,77,64,73
327.72696,327.82733,81,64,73
327.95422,328.0546,86,64,73
328.40875,328.46274,77,64,73
328.46558,328.5224,76,64,73
328.5224,328.57922,77,64,73
328.57922,328.63605,76,64,73
328.63605,328.69284,77,64,73
328.69284,328.74966,76,64,73
328.74966,328.8065,77,64,73
328.8065,328.8633,76,64,73
328.8633,328.92014,77,64,73
328.92014,328.97693,76,64,73
328.97693,329.03375,77,64,73
329.03375,329.09058,76,64,73
329.09058,329.20422,74,64,73
329.20422,329.30365,76,64,73
329.31784,329.41824,77,64,73
329.54514,329.6455,81,64,73
329.7724,329.87277,86,64,73
330.22693,330.2809,77,64,73
330.28375,330.34058,76,64,73
330.34058,330.3974,77,64,73
330.3974,330.45422,76,64,73
330.45422,330.51105,77,64,73
330.51105,330.56784,76,64,73
330.56784,330.62466,77,64,73
330.62466,330.6815,76,64,73
330.6815,330.7383,77,64,73
330.7383,330.79514,76,64,73
330.79514,330.85193,77,64,73
330.85193,330.90875,76,64,73
330.90875,331.0224,74,64,73
331.0224,331.12183,76,64,73
331.13605,331.23642,77,64,73
331.3633,331.46368,81,64,73
331.59058,331.69095,86,64,73
332.04514,332.10193,77,64,73
332.10193,332.15875,76,64,73
332.15875,332.21558,77,64,73
332.21558,332.2724,76,64,73
332.2724,332.38602,74,64,73
332.38602,332.48547,76,64,73
332.49966,332.55365,86,64,73
332.5565,332.6133,85,64,73
332.6133,332.67014,86,64,73
332.67014,332.72693,85,64,73
332.72693,332.84058,83,64,73
332.84058,332.94,85,64,73
332.95422,333.35193,86,64,73
333.40875,333.70706,86,64,73
333.74966,333.8491,86,64,73
333.8633,334.26102,86,64,73
0.2272725,1.1363626,65,64,68
1.1363626,1.5909075,67,64,68
1.5909075,1.9886343,64,64,68
2.0454526,2.8409061,62,64,68
2.9545424,4.659086,69,64,68
4.7727227,6.4772663,67,64,68
6.5909023,7.3863564,65,64,68
7.4999924,8.409082,67,64,68
8.409082,9.204536,64,64,68
9.318172,9.545445,62,64,68
9.545445,9.744308,65,64,68
9.772717,10.5681715,69,64,68
10.6818075,11.136353,73,64,68
11.136353,11.53408,74,64,68
11.590898,12.386352,69,64,68
12.499988,13.35226,69,64,68
13.409078,13.607941,70,64,68
13.63635,13.835214,69,64,68
13.863623,14.26135,69,64,68
14.318168,15.17044,69,64,68
15.227258,15.45453,67,64,68
15.45453,15.653394,66,64,68
15.681803,16.988619,67,64,68
17.045437,17.84089,70,64,68
17.954527,18.352255,64,64,68
18.863617,19.064375,69,64,68
19.318163,19.518919,69,64,68
19.772707,19.973465,69,64,68
20.227253,21.136343,67,64,68
21.136343,21.53407,65,64,68
22.499977,22.951681,69,64,68
22.954523,23.406227,69,64,68
23.409067,23.835203,69,64,68
24.318157,24.769861,70,64,68
24.772703,25.224407,70,64,68
25.227247,25.653383,70,64,68
25.681793,27.045427,70,64,68
27.045427,27.443155,67,64,68
27.499973,29.318153,64,64,68
29.318153,29.71588,62,64,68
29.772697,30.224401,69,64,68
30.227243,30.678947,69,64,68
30.681787,31.107924,69,64,68
31.136332,31.53406,67,64,68
32.954514,33.8636,67,64,68
33.8636,34.659058,70,64,68
34.772694,35.170418,75,64,68
37.045418,37.27269,68,64,68
37.27269,37.471554,67,64,68
37.49996,37.89769,65,64,68
37.954506,38.352234,65,64,68
38.863598,39.318142,70,64,68
39.318142,39.772686,75,64,68
39.772686,40.170414,79,64,68
44.31814,45.227226,72,64,68
45.227226,45.624954,75,64,68
45.681774,46.0795,74,64,68
47.9545,48.863586,76,64,68
48.863586,49.261314,74,64,68
49.318134,49.41851,73,64,68
49.545406,49.659042,69,64,68
49.659042,49.758472,71,64,68
49.77268,49.886314,73,64,68
49.886314,49.99995,74,64,68
49.99995,50.113586,76,64,68
50.113586,50.213017,77,64,68
50.227222,51.136314,79,64,68
51.136314,51.33707,77,64,68
51.59086,51.791615,81,64,68
52.045403,52.72722,74,64,68
52.72722,52.840855,76,64,68
52.840855,52.94029,77,64,68
52.95449,53.05487,76,64,68
53.181767,53.295403,69,64,68
53.295403,53.394833,71,64,68
53.40904,53.522675,73,64,68
53.522675,53.63631,74,64,68
53.63631,53.749947,76,64,68
53.749947,53.849377,77,64,68
53.863583,54.77267,79,64,68
54.77267,54.97343,77,64,68
55.22722,55.427975,81,64,68
55.681763,56.36358,74,64,68
56.36358,56.477215,76,64,68
56.477215,56.57665,77,64,68
56.59085,56.98858,76,64,68
57.0454,57.343693,73,64,68
57.386307,57.485737,73,64,68
57.499943,57.89767,73,64,68
58.40903,59.516987,77,64,68
59.545395,59.644825,81,64,68
59.65903,59.758465,79,64,68
59.772667,59.8721,77,64,68
59.886303,59.985737,76,64,68
59.99994,60.099373,74,64,68
60.113575,60.21301,72,64,68
60.22721,60.32759,70,64,68
60.454487,60.553917,86,64,68
60.568123,60.667553,84,64,68
60.68176,60.78119,82,64,68
60.795395,60.894825,81,64,68
60.90903,61.00846,79,64,68
61.022667,61.122097,77,64,68
61.136303,61.236683,76,64,68
61.363575,61.463005,79,64,68
61.47721,61.57664,77,64,68
61.590847,61.69028,76,64,68
61.704483,61.803917,74,64,68
61.81812,61.917553,72,64,68
61.931755,62.03119,70,64,68
62.04539,62.24615,69,64,68
66.59084,67.04255,70,64,68
67.04539,67.47153,70,64,68
67.49993,68.60789,79,64,68
68.63629,68.83516,77,64,68
68.86357,69.06243,75,64,68
69.09084,69.2897,74,64,68
69.318115,69.54539,74,64,68
69.54539,69.74425,72,64,68
69.77266,70.454475,72,64,68
70.454475,70.530235,74,64,68
70.530235,70.60599,72,64,68
70.60599,70.68175,70,64,68
70.68175,70.88061,72,64,68
70.90902,71.10788,74,64,68
71.13629,72.04538,75,64,68
72.04538,72.27265,74,64,68
72.27265,72.49992,72,64,68
72.49992,72.7272,70,64,68
72.7272,72.92606,69,64,68
72.954475,73.18175,79,64,68
73.18175,73.38061,78,64,68
73.40902,74.06242,78,64,68
74.090836,74.191216,78,64,68
74.31811,74.41849,79,64,68
74.54538,74.64576,81,64,68
74.77265,74.99992,82,64,68
74.99992,75.19879,78,64,68
75.227196,75.45447,78,64,68
75.45447,75.653336,79,64,68
75.68174,75.90901,79,64,68
75.90901,76.10788,74,64,68
76.136284,76.236664,82,64,68
76.36356,76.463936,79,64,68
76.590836,77.59936,77,64,68
77.613556,77.727196,79,64,68
77.727196,77.84083,81,64,68
77.84083,77.95447,79,64,68
77.95447,78.0681,82,64,68
78.0681,78.18174,81,64,68
78.18174,78.29538,79,64,68
78.29538,78.394806,77,64,68
78.40901,78.60977,76,64,68
85.68173,85.88249,65,64,68
86.13628,86.337036,69,64,68
87.045364,87.246124,72,64,68
87.95446,88.15521,77,64,68
88.86355,89.06431,72,64,68
89.77264,89.9734,72,64,68
90.681725,90.882484,65,64,68
91.59082,91.79157,74,64,68
92.49991,92.61354,71,64,68
92.61354,92.72718,72,64,68
92.72718,92.84081,74,64,68
92.84081,92.94025,76,64,68
92.95445,94.54536,77,64,68
94.77263,98.18172,84,64,68
98.40899,101.81808,81,64,68
102.04535,102.44308,81,64,68
102.4999,103.29535,81,64,68
103.40899,103.80672,81,64,68
103.86353,104.204445,82,64,68
104.204445,104.26126,84,64,68
104.26126,104.3105,82,64,68
104.31808,104.65899,81,64,68
104.65899,104.715805,82,64,68
104.715805,104.765045,81,64,68
104.77262,105.11353,79,64,68
105.11353,105.17035,81,64,68
105.17035,105.21959,79,64,68
105.227165,105.56808,77,64,68
105.56808,105.62489,79,64,68
105.62489,105.67413,77,64,68
105.68171,106.02262,75,64,68
106.02262,106.07944,77,64,68
106.07944,106.128685,75,64,68
106.13626,106.23663,74,64,68
106.36353,106.463905,77,64,68
106.590805,106.691185,74,64,68
106.81808,106.91846,77,64,68
107.04535,107.14573,74,64,68
107.27262,107.373,77,64,68
107.49989,107.60027,69,64,68
107.727165,107.827545,72,64,68
107.95444,108.05482,77,64,68
108.18171,108.28209,72,64,68
108.40898,108.50936,69,64,68
108.63625,108.73663,77,64,68
108.863525,108.963905,79,64,68
109.0908,109.19118,81,64,68
109.31807,109.37205,77,64,68
109.37489,109.43171,76,64,68
109.43171,109.488525,77,64,68
109.488525,109.54534,76,64,68
109.54534,109.602165,77,64,68
109.602165,109.65898,76,64,68
109.65898,109.7158,77,64,68
109.7158,109.77262,76,64,68
109.77262,109.82944,77,64,68
109.82944,109.88625,76,64,68
109.88625,109.94307,77,64,68
109.94307,109.99989,76,64,68
109.99989,110.05671,77,64,68
110.05671,110.113525,76,64,68
110.113525,110.17034,77,64,68
110.17034,110.227165,76,64,68
110.227165,110.28398,77,64,68
110.28398,110.3408,76,64,68
110.3408,110.39761,77,64,68
110.39761,110.45444,76,64,68
110.45444,110.51125,77,64,68
110.51125,110.56807,76,64,68
110.56807,110.62489,77,64,68
110.62489,110.68171,76,64,68
110.68171,110.738525,77,64,68
110.738525,110.79534,76,64,68
110.79534,110.852165,77,64,68
110.852165,110.90898,76,64,68
110.90898,111.02261,74,64,68
111.02261,111.12205,76,64,68
111.13625,111.53398,77,64,68
118.636246,118.736626,64,64,68
118.86352,118.9639,65,64,68
119.09079,119.19117,67,64,68
119.31806,119.545334,69,64,68
119.545334,119.772606,70,64,68
119.772606,119.99988,72,64,68
119.99988,120.198746,69,64,68
120.22715,120.45442,73,64,68
120.45442,120.681694,74,64,68
120.681694,120.90897,76,64,68
120.90897,121.107834,74,64,68
121.136246,121.36352,72,64,68
121.36352,121.59079,70,64,68
121.59079,121.81806,69,64,68
121.81806,122.01692,67,64,68
122.045334,123.15328,72,64,68
123.181694,123.408966,70,64,68
123.408966,123.63624,69,64,68
123.63624,123.835106,67,64,68
123.86351,124.26124,65,64,68
124.318054,125.11351,77,64,68
125.22715,125.28113,77,64,68
125.283966,125.34078,76,64,68
125.34078,125.3976,77,64,68
125.3976,125.45442,76,64,68
125.45442,125.568054,74,64,68
125.568054,125.66749,76,64,68
125.681694,126.07942,77,64,68
128.18169,128.28207,81,64,68
128.40897,128.50934,79,64,68
128.63623,128.73662,77,64,68
128.86351,128.96388,76,64,68
129.09077,129.19116,77,64,68
129.31805,129.51881,79,64,68
129.99986,130.10025,82,64,68
130.22714,130.32751,81,64,68
130.45442,130.5548,79,64,68
130.68169,130.78206,77,64,68
130.90897,131.00934,79,64,68
131.13623,131.33699,81,64,68
131.81805,131.91843,84,64,68
132.04532,132.1457,82,64,68
132.2726,132.37297,81,64,68
132.49986,132.60025,79,64,68
132.72714,132.82751,81,64,68
132.9544,133.15517,82,64,68
133.8635,133.92032,81,64,68
133.92032,133.97714,79,64,68
133.97714,134.03395,81,64,68
134.03395,134.09077,79,64,68
134.09077,134.1476,81,64,68
134.1476,134.2044,79,64,68
134.2044,134.26123,81,64,68
134.26123,134.31805,79,64,68
134.31805,134.37486,81,64,68
134.37486,134.43169,79,64,68
134.43169,134.4885,81,64,68
134.4885,134.54532,79,64,68
134.54532,134.65895,77,64,68
134.65895,134.75839,79,64,68
134.7726,135.17032,77,64,68
135.90895,136.00934,69,64,68
136.13623,136.2366,67,64,68
136.3635,136.46388,65,64,68
136.59077,136.79153,64,64,68
137.72714,137.82751,70,64,68
137.9544,138.05478,69,64,68
138.18169,138.28206,67,64,68
138.40895,138.60971,65,64,68
139.54532,139.64569,72,64,68
139.77258,139.87297,70,64,68
139.99986,140.10023,69,64,68
140.22713,140.42789,74,64,68
141.13622,141.19304,77,64,68
141.19304,141.24986,76,64,68
141.24986,141.30667,77,64,68
141.30667,141.3635,76,64,68
141.3635,141.42032,77,64,68
141.42032,141.47713,76,64,68
141.47713,141.53395,77,64,68
141.53395,141.59077,76,64,68
141.59077,141.64758,77,64,68
141.64758,141.7044,76,64,68
141.7044,141.76122,77,64,68
141.76122,141.81804,76,64,68
141.81804,141.93167,74,64,68
141.93167,142.03111,76,64,68
142.04532,142.14569,77,64,68
142.27258,142.37297,72,64,68
142.49986,142.60023,81,64,68
142.9544,143.01122,77,64,68
143.01122,143.06804,76,64,68
143.06804,143.12486,77,64,68
143.12486,143.18167,76,64,68
143.18167,143.2385,77,64,68
143.2385,143.29532,76,64,68
143.29532,143.35213,77,64,68
143.35213,143.40895,76,64,68
143.40895,143.46576,77,64,68
143.46576,143.52258,76,64,68
143.52258,143.5794,77,64,68
143.5794,143.63622,76,64,68
143.63622,143.74986,74,64,68
143.74986,143.84929,76,64,68
143.8635,143.96387,77,64,68
144.09076,144.19115,72,64,68
144.31804,144.41841,81,64,68
144.77258,144.8294,77,64,68
144.8294,144.88622,76,64,68
144.88622,144.94304,77,64,68
144.94304,144.99985,76,64,68
144.99985,145.05667,77,64,68
145.05667,145.1135,76,64,68
145.1135,145.1703,77,64,68
145.1703,145.22713,76,64,68
145.22713,145.28395,77,64,68
145.28395,145.34076,76,64,68
145.34076,145.39758,77,64,68
145.39758,145.4544,76,64,68
145.4544,145.56804,74,64,68
145.56804,145.66747,76,64,68
145.68167,145.78206,77,64,68
145.90895,146.00932,72,64,68
146.13622,146.2366,81,64,68
146.59076,146.64758,77,64,68
146.64758,146.70439,76,64,68
146.70439,146.76122,77,64,68
146.76122,146.81804,76,64,68
146.81804,146.87485,77,64,68
146.87485,146.93167,76,64,68
146.93167,146.9885,77,64,68
146.9885,147.0453,76,64,68
147.0453,147.10213,77,64,68
147.10213,147.15895,76,64,68
147.15895,147.21576,77,64,68
147.21576,147.27258,76,64,68
147.27258,147.38622,74,64,68
147.38622,147.48564,76,64,68
147.49985,147.89758,77,64,68
147.95439,148.25269,72,64,68
148.2953,148.39474,72,64,68
148.40894,148.80667,69,64,68
149.09076,149.19113,72,64,68
149.31804,149.66557,72,64,68
149.71576,149.77258,76,64,68
149.77258,149.99985,74,64,68
149.99985,150.19872,72,64,68
150.22713,150.67883,72,64,68
150.68167,151.1078,72,64,68
151.13622,151.47713,72,64,68
151.47713,151.57655,77,64,68
151.59076,152.49985,77,64,68
152.49985,152.89757,75,64,68
152.95439,153.18167,75,64,68
153.18167,153.40894,74,64,68
153.40894,153.63622,73,64,68
153.63622,153.83507,74,64,68
153.86348,154.09076,74,64,68
154.09076,154.16652,75,64,68
154.16652,154.24226,74,64,68
154.24226,154.31802,73,64,68
154.31802,154.51689,74,64,68
154.5453,154.74416,79,64,68
154.77257,155.45439,79,64,68
155.45439,155.65326,72,64,68
155.68166,155.88242,72,64,68
156.36348,156.56235,72,64,68
156.59076,156.81802,72,64,68
156.81802,156.9667,77,64,68
156.98848,157.0453,81,64,68
157.0453,157.27257,79,64,68
157.27257,157.47144,77,64,68
157.49985,158.09644,76,64,68
158.18166,158.38052,72,64,68
158.40894,158.6362,72,64,68
158.6362,158.78488,81,64,68
158.80666,158.86348,82,64,68
158.86348,159.09074,81,64,68
159.09074,159.28961,79,64,68
159.31802,159.91461,79,64,68
159.99985,160.1987,72,64,68
160.22711,160.45439,72,64,68
160.45439,160.65324,84,64,68
160.68166,161.47711,84,64,68
161.59074,161.93828,82,64,68
161.98848,162.04529,84,64,68
162.04529,162.27257,82,64,68
162.27257,162.47144,81,64,68
162.49983,163.29529,81,64,68
163.40892,163.60779,81,64,68
163.6362,163.83507,79,64,68
163.86348,164.09074,78,64,68
164.09074,164.31802,84,64,68
164.31802,164.54529,81,64,68
164.54529,164.74416,78,64,68
164.77257,164.99983,81,64,68
164.99983,165.22711,79,64,68
165.22711,165.45438,74,64,68
165.45438,165.65324,79,64,68
165.68166,165.90892,77,64,68
165.90892,166.1362,76,64,68
166.1362,166.36346,84,64,68
166.36346,166.56233,76,64,68
166.59074,166.81801,79,64,68
166.81801,167.04529,77,64,68
167.04529,167.27255,81,64,68
167.27255,167.47142,77,64,68
167.49983,167.72711,73,64,68
167.72711,167.95438,74,64,68
167.95438,168.18166,76,64,68
168.18166,168.38051,77,64,68
168.40892,168.60968,69,64,68
168.86346,168.9771,72,64,68
168.9771,169.09074,70,64,68
169.09074,169.20438,69,64,68
169.20438,169.3038,67,64,68
169.31801,169.51877,65,64,68
170.68164,170.79529,76,64,68
170.79529,170.90892,77,64,68
170.90892,171.02255,79,64,68
171.02255,171.122,81,64,68
171.1362,171.23657,82,64,68
171.36346,171.46384,82,64,68
171.59074,171.69112,82,64,68
171.81801,171.9184,82,64,68
172.04529,172.64188,82,64,68
172.7271,172.92596,79,64,68
172.95438,174.31801,81,64,68
174.31801,174.71573,79,64,68
174.77255,176.36346,77,64,68
176.59073,177.49982,76,64,68
177.49982,178.29527,79,64,68
178.4089,181.13618,77,64,68
181.13618,181.93164,75,64,68
182.04527,182.443,75,64,68
182.49982,183.29527,72,64,68
183.4089,184.06421,74,64,68
184.318,184.41838,77,64,68
184.54527,184.64565,75,64,68
184.77254,184.99982,75,64,68
184.99982,185.19868,74,64,68
185.22708,185.32747,74,64,68
185.45436,185.55473,77,64,68
185.68163,185.9089,77,64,68
185.9089,186.10777,75,64,68
186.13618,186.36345,75,64,68
186.36345,186.56232,74,64,68
186.59073,186.818,74,64,68
186.818,187.01686,72,64,68
187.04527,187.14565,72,64,68
187.27254,187.37292,75,64,68
187.49982,187.70058,74,64,68
187.95436,188.05473,77,64,68
188.18163,188.28201,75,64,68
188.4089,188.63617,75,64,68
188.63617,188.83504,74,64,68
188.86345,188.96382,74,64,68
189.09071,189.1911,77,64,68
189.318,189.54526,77,64,68
189.54526,189.74413,75,64,68
189.77254,189.99982,75,64,68
189.99982,190.19867,74,64,68
190.22708,190.45436,74,64,68
190.45436,190.65321,72,64,68
190.68163,190.78201,72,64,68
190.9089,191.00928,75,64,68
191.13617,191.33693,74,64,68
191.59071,191.6911,74,64,68
191.818,191.91837,74,64,68
192.04526,192.24602,74,64,68
192.4998,192.60019,74,64,68
192.72708,192.82745,74,64,68
192.95435,193.1551,77,64,68
193.4089,193.50928,77,64,68
193.63617,193.73654,77,64,68
193.86345,194.0642,80,64,68
194.318,194.41837,80,64,68
194.54526,194.64565,80,64,68
194.77254,194.9733,79,64,68
197.04526,197.4998,79,64,68
197.4998,197.95435,75,64,68
197.95435,198.35208,70,64,68
200.68161,201.13617,74,64,68
201.13617,201.59071,77,64,68
201.59071,201.98843,80,64,68
205.68161,207.89752,77,64,68
209.31798,209.7157,75,64,68
210.45433,210.55472,75,64,68
210.68161,210.78198,74,64,68
210.90887,211.00926,75,64,68
211.13615,211.33691,77,64,68
214.0907,214.19107,75,64,68
214.31796,214.41835,74,64,68
214.54524,214.64561,75,64,68
214.7725,214.97327,77,64,68
218.63614,218.73653,67,64,68
218.86342,218.96379,67,64,68
219.09068,219.19107,67,64,68
219.31796,219.41833,67,64,68
219.54524,219.64561,67,64,68
219.7725,219.87288,67,64,68
219.99979,220.10016,67,64,68
220.22705,220.42592,68,64,68
220.6816,221.13614,67,64,68
221.13614,221.335,68,64,68
221.59068,222.04523,67,64,68
222.04523,222.2441,68,64,68
223.86342,224.26114,67,64,68
224.7725,225.17023,67,64,68
225.90886,226.00925,67,64,68
226.13614,226.23651,67,64,68
226.3634,226.46379,67,64,68
226.59068,226.69106,67,64,68
226.81795,226.91833,67,64,68
227.04523,227.1456,67,64,68
227.2725,227.37288,67,64,68
227.49977,228.40886,68,64,68
228.40886,228.8066,65,64,68
228.8634,229.26114,74,64,68
229.31795,230.22704,75,64,68
230.22704,231.02249,79,64,68
231.13614,232.04523,77,64,68
232.04523,232.84068,80,64,68
232.95432,234.54523,79,64,68
234.77249,236.3634,77,64,68
236.59067,238.18158,75,64,68
238.40886,239.2043,84,64,68
239.31795,239.91454,84,64,68
239.99976,240.19862,84,64,68
240.22704,241.81795,84,64,68
242.04521,243.63612,81,64,68
243.86339,244.26112,79,64,68
244.31793,244.51869,74,64,68
245.22702,245.42778,74,64,68
246.13612,246.33687,73,64,68
247.04521,247.24597,76,64,68
247.9543,248.15506,74,64,68
248.86339,249.06415,77,64,68
249.77248,249.97324,74,64,68
250.68156,250.88232,79,64,68
251.13611,251.33687,76,64,68
252.27248,252.49974,74,64,68
252.49974,252.72702,76,64,68
252.72702,252.92589,77,64,68
252.9543,253.15504,76,64,68
254.09065,254.31793,74,64,68
254.31793,254.5452,76,64,68
254.5452,254.74406,77,64,68
254.77248,255.1702,76,64,68
256.1361,256.59067,74,64,68
256.59067,256.98837,73,64,68
257.95428,258.40884,74,64,68
258.40884,258.80655,73,64,68
260.22702,261.1361,65,64,68
261.1361,261.59064,67,64,68
261.59064,261.98837,64,64,68
262.0452,262.84064,62,64,68
262.95428,264.6588,69,64,68
264.77246,266.47702,67,64,68
266.59064,267.3861,65,64,68
267.49973,268.4088,67,64,68
268.4088,269.20428,64,64,68
269.3179,269.5452,62,64,68
269.5452,269.74405,65,64,68
269.77246,270.5679,69,64,68
270.68155,271.07928,73,64,68
271.13608,271.5338,74,64,68
271.59064,272.38608,69,64,68
272.49973,272.89746,69,64,68
272.95428,273.63608,69,64,68
273.63608,273.83496,70,64,68
273.86337,274.26108,69,64,68
274.3179,274.77246,69,64,68
274.77246,275.5679,70,64,68
275.68155,276.13608,69,64,68
276.13608,276.5338,67,64,68
276.59064,277.49973,65,64,68
277.49973,277.95425,67,64,68
277.95425,278.352,69,64,68
278.4088,279.3179,70,64,68
279.3179,279.71564,69,64,68
279.77246,279.9732,69,64,68
280.227,280.62473,69,64,68
287.95425,288.15503,74,64,68
288.86334,289.06412,77,64,68
289.77243,289.9732,76,64,68
290.68152,290.8823,79,64,68
291.5906,291.79138,69,64,68
292.4997,292.70047,72,64,68
293.40878,293.60956,70,64,68
294.3179,294.51865,79,64,68
294.77243,296.36334,77,64,68
296.5906,298.18152,79,64,68
298.40878,299.9997,81,64,68
300.22696,301.81787,85,64,68
302.04517,303.63605,86,64,68
303.86334,305.45425,81,64,68
305.68152,305.88226,79,64,68
306.13605,306.33682,82,64,68
306.5906,307.27243,79,64,68
307.27243,307.47128,76,64,68
307.4997,309.0906,77,64,68
309.31787,309.41824,69,64,68
309.54514,309.64554,73,64,68
309.77243,309.8728,73,64,68
309.9997,310.10007,73,64,68
310.22696,310.28094,74,64,68
310.28378,310.3406,73,64,68
310.3406,310.39743,74,64,68
310.39743,310.45422,73,64,68
310.45422,310.51105,74,64,68
310.51105,310.56787,73,64,68
310.56787,310.6247,74,64,68
310.6247,310.68152,73,64,68
310.68152,310.7383,74,64,68
310.7383,310.79514,73,64,68
310.79514,310.85196,74,64,68
310.85196,310.90878,73,64,68
310.90878,311.02243,71,64,68
311.02243,311.12186,73,64,68
311.13605,311.53378,74,64,68
313.63605,313.73642,77,64,68
313.8633,313.9637,76,64,68
314.0906,314.19098,74,64,68
314.31787,314.41824,73,64,68
314.54514,314.6455,74,64,68
314.7724,314.97318,76,64,68
315.45422,315.5546,79,64,68
315.6815,315.7819,77,64,68
315.90878,316.00916,76,64,68
316.13605,316.23642,74,64,68
316.3633,316.46368,76,64,68
316.5906,316.79135,77,64,68
317.2724,317.3728,81,64,68
317.4997,317.60007,79,64,68
317.72696,317.82733,77,64,68
317.95422,318.0546,76,64,68
318.1815,318.2819,77,64,68
318.40878,318.60953,79,64,68
319.31787,319.3747,77,64,68
319.3747,319.4315,76,64,68
319.4315,319.4883,77,64,68
319.4883,319.54514,76,64,68
319.54514,319.60196,77,64,68
319.60196,319.65878,76,64,68
319.65878,319.71558,77,64,68
319.71558,319.7724,76,64,68
319.7724,319.82922,77,64,68
319.82922,319.88605,76,64,68
319.88605,319.94287,77,64,68
319.94287,319.9997,76,64,68
319.9997,320.1133,74,64,68
320.1133,320.21274,76,64,68
320.22696,320.4277,74,64,68
322.2724,322.37277,69,64,68
322.49966,322.70044,81,64,68
324.09058,324.19095,69,64,68
324.31787,324.51862,81,64,68
325.90875,326.00916,70,64,68
326.13605,326.3368,82,64,68
326.81784,326.91824,69,64,68
327.04514,327.1455,81,64,68
327.2724,327.37277,69,64,68
327.49966,327.70044,74,64,68
327.95422,328.06784,62,64,68
328.06784,328.1673,65,64,68
328.1815,328.2809,69,64,68
328.29514,328.39456,74,64,68
328.40875,328.5082,73,64,68
328.5224,328.62183,76,64,68
328.63605,328.73547,79,64,68
328.74966,328.8491,82,64,68
328.8633,328.96274,81,64,68
328.97693,329.0764,79,64,68
329.09058,329.19,77,64,68
329.20422,329.30365,76,64,68
329.31784,329.51672,74,64,68
329.7724,329.88605,62,64,68
329.88605,329.98547,65,64,68
329.99966,330.0991,69,64,68
330.1133,330.21274,74,64,68
330.22693,330.3264,73,64,68
330.34058,330.44,76,64,68
330.45422,330.55365,79,64,68
330.56784,330.6673,82,64,68
330.6815,330.7809,81,64,68
330.79514,330.89456,79,64,68
330.90875,331.00818,77,64,68
331.0224,331.12183,76,64,68
331.13605,331.3349,74,64,68
331.59058,331.70422,62,64,68
331.70422,331.80365,65,64,68
331.81784,331.91727,69,64,68
331.9315,332.0309,74,64,68
332.04514,332.14456,73,64,68
332.15875,332.25818,76,64,68
332.2724,332.37183,79,64,68
332.38602,332.48547,82,64,68
332.49966,332.5991,81,64,68
332.6133,332.71274,79,64,68
332.72693,332.8264,77,64,68
332.84058,332.94,76,64,68
332.95422,333.35193,74,64,68
333.40875,333.70706,77,64,68
333.74966,333.8491,77,64,68
333.8633,334.26102,74,64,68
334.31784,334.3188,74,64,68
0.0,0.19886343,69,64,71
0.2272725,0.57481,69,64,71
0.6249994,0.6818175,72,64,71
0.6818175,0.90909,70,64,71
0.90909,1.1079534,69,64,71
1.1363626,1.5880666,69,64,71
1.5909075,2.0170434,69,64,71
2.0454526,2.272725,69,64,71
2.272725,2.4715884,74,64,71
2.4999976,3.2954512,74,64,71
3.4090874,3.8068144,72,64,71
3.8636324,4.090905,72,64,71
4.090905,4.3181777,70,64,71
4.3181777,4.54545,69,64,71
4.54545,4.7443132,70,64,71
4.7727227,4.999995,70,64,71
4.999995,5.0757527,72,64,71
5.0757527,5.15151,70,64,71
5.15151,5.2272673,69,64,71
5.2272673,5.426131,70,64,71
5.45454,5.6534033,76,64,71
5.6818123,6.36363,76,64,71
6.36363,6.5624933,69,64,71
6.5909023,6.9886293,69,64,71
7.27272,7.373099,69,64,71
7.4999924,7.727265,69,64,71
7.727265,7.875939,74,64,71
7.8977194,7.9545374,76,64,71
7.9545374,8.18181,74,64,71
8.18181,8.380673,73,64,71
8.409082,9.005672,73,64,71
9.0909,9.191278,69,64,71
9.318172,9.545445,69,64,71
9.545445,9.694119,77,64,71
9.715899,9.772717,79,64,71
9.772717,9.99999,77,64,71
9.99999,10.1988535,76,64,71
10.2272625,10.823853,76,64,71
10.90908,11.009459,69,64,71
11.136353,11.363625,69,64,71
11.363625,11.562489,81,64,71
11.590898,12.386352,81,64,71
12.499988,12.847525,79,64,71
12.897715,12.954533,81,64,71
12.954533,13.181805,79,64,71
13.181805,13.380669,77,64,71
13.409078,14.204532,77,64,71
14.318168,14.517031,76,64,71
14.54544,14.744304,74,64,71
14.772713,14.999985,72,64,71
14.999985,15.198849,70,64,71
15.227258,16.02271,70,64,71
16.136347,16.33521,69,64,71
16.36362,16.562483,67,64,71
16.590893,16.818165,65,64,71
16.818165,17.017029,64,64,71
17.045437,17.84089,64,64,71
17.954527,18.1818,67,64,71
18.1818,18.380663,70,64,71
18.409073,18.636345,69,64,71
18.636345,18.863617,74,64,71
18.863617,19.09089,65,64,71
19.09089,19.289753,69,64,71
19.318163,19.545435,69,64,71
19.545435,19.744299,67,64,71
19.772707,19.971571,65,64,71
19.99998,20.198843,64,64,71
20.227253,21.136343,64,64,71
21.136343,21.53407,62,64,71
22.499977,22.951681,53,64,71
22.954523,23.406227,53,64,71
23.409067,23.835203,53,64,71
24.318157,24.769861,55,64,71
24.772703,25.224407,55,64,71
25.227247,25.653383,55,64,71
25.681793,27.2727,55,64,71
27.499973,28.863607,57,64,71
28.863607,29.261333,67,64,71
29.318153,29.71588,65,64,71
29.772697,30.224401,53,64,71
30.227243,30.678947,53,64,71
30.681787,31.107924,53,64,71
31.136332,31.53406,55,64,71
32.04542,32.44315,55,64,71
34.772694,36.3636,55,64,71
36.590874,38.806778,58,64,71
38.863598,39.261326,58,64,71
39.318142,39.71587,58,64,71
39.772686,40.170414,58,64,71
40.227234,41.420414,60,64,71
41.590866,42.954502,58,64,71
42.954502,43.749958,63,64,71
43.863594,44.26132,60,64,71
46.13632,46.590862,74,64,71
46.590862,47.045406,72,64,71
47.045406,47.443134,79,64,71
47.499954,48.409042,70,64,71
48.409042,49.204494,71,64,71
49.318134,49.71586,69,64,71
50.454494,50.56813,73,64,71
50.56813,50.667564,76,64,71
50.681767,50.795403,81,64,71
50.795403,50.90904,76,64,71
50.90904,51.022675,73,64,71
51.022675,51.12211,69,64,71
51.136314,51.23669,74,64,71
51.363586,51.463963,77,64,71
51.59086,51.691235,74,64,71
51.81813,51.91851,69,64,71
52.045403,52.24616,65,64,71
52.499947,52.700706,62,64,71
52.95449,53.15525,69,64,71
54.090855,54.20449,73,64,71
54.20449,54.303925,76,64,71
54.318127,54.431763,81,64,71
54.431763,54.5454,76,64,71
54.5454,54.659035,73,64,71
54.659035,54.75847,69,64,71
54.77267,54.87305,74,64,71
54.999947,55.100323,77,64,71
55.22722,55.327595,74,64,71
55.45449,55.554867,69,64,71
55.681763,55.88252,65,64,71
56.136307,56.337067,62,64,71
56.59085,56.98858,69,64,71
57.0454,57.343693,81,64,71
57.386307,57.485737,81,64,71
57.499943,57.89767,81,64,71
58.40903,59.516987,77,64,71
59.545395,59.644825,81,64,71
59.65903,59.758465,79,64,71
59.772667,59.8721,77,64,71
59.886303,59.985737,76,64,71
59.99994,60.099373,74,64,71
60.113575,60.21301,72,64,71
60.22721,60.32759,70,64,71
60.454487,60.553917,74,64,71
60.568123,60.667553,72,64,71
60.68176,60.78119,70,64,71
60.795395,60.894825,69,64,71
60.90903,61.00846,67,64,71
61.022667,61.122097,65,64,71
61.136303,61.236683,64,64,71
61.363575,61.463005,67,64,71
61.47721,61.57664,65,64,71
61.590847,61.69028,64,64,71
61.704483,61.803917,62,64,71
61.81812,61.917553,60,64,71
61.931755,62.03119,58,64,71
62.04539,62.24615,57,64,71
62.954483,63.406185,72,64,71
63.409027,63.835163,72,64,71
63.86357,64.97153,77,64,71
64.99993,65.22721,75,64,71
65.22721,65.45448,72,64,71
65.45448,65.65334,69,64,71
65.681755,66.36357,70,64,71
66.36357,66.4772,74,64,71
66.4772,66.57664,72,64,71
66.59084,66.98857,70,64,71
67.49993,69.09084,70,64,71
69.77266,70.224365,72,64,71
70.2272,70.67891,72,64,71
70.68175,71.10788,72,64,71
71.590836,72.04254,72,64,71
72.04538,72.497086,72,64,71
72.49992,72.92606,72,64,71
73.40902,73.860725,75,64,71
73.86356,74.31527,75,64,71
74.31811,74.74424,75,64,71
74.77265,74.97341,74,64,71
75.227196,75.427956,74,64,71
76.136284,76.236664,74,64,71
76.36356,76.463936,70,64,71
76.590836,78.40901,69,64,71
78.40901,78.60788,67,64,71
78.863556,78.977196,72,64,71
78.977196,79.09083,71,64,71
79.09083,79.20447,72,64,71
79.20447,79.3039,71,64,71
79.3181,79.41848,72,64,71
79.54537,79.64575,65,64,71
79.772644,79.82947,67,64,71
79.82947,79.886284,65,64,71
79.886284,79.9431,67,64,71
79.9431,79.99992,65,64,71
79.99992,80.113556,64,64,71
80.113556,80.21299,65,64,71
80.227196,80.32757,70,64,71
80.45447,80.55484,70,64,71
80.68174,80.79537,70,64,71
80.79537,80.90901,72,64,71
80.90901,81.022644,74,64,71
81.022644,81.12208,70,64,71
81.136284,81.236664,67,64,71
81.363556,81.463936,67,64,71
81.59083,81.70446,67,64,71
81.70446,81.8181,72,64,71
81.8181,81.93174,71,64,71
81.93174,82.031166,70,64,71
82.04537,82.14575,69,64,71
82.272644,82.373024,69,64,71
82.499916,82.613556,69,64,71
82.613556,82.72719,70,64,71
82.72719,82.84083,72,64,71
82.84083,82.940254,69,64,71
82.95446,83.05484,65,64,71
83.18173,83.28211,65,64,71
83.409004,83.522644,60,64,71
83.522644,83.63628,65,64,71
83.63628,83.749916,69,64,71
83.749916,83.84935,65,64,71
83.863556,83.96393,67,64,71
84.09083,84.1912,67,64,71
84.3181,84.43173,67,64,71
84.43173,84.54537,69,64,71
84.54537,84.659004,70,64,71
84.659004,84.75844,69,64,71
84.772644,84.87208,67,64,71
84.88628,84.98571,65,64,71
84.999916,85.09935,64,64,71
85.11355,85.21298,62,64,71
85.22719,85.32757,60,64,71
85.45446,85.55484,72,64,71
85.68173,85.88059,70,64,71
85.909004,86.10787,69,64,71
87.499916,87.70067,74,64,71
88.409004,88.60976,76,64,71
89.31809,89.51885,77,64,71
90.22718,90.42794,69,64,71
91.13628,91.33703,70,64,71
92.045364,92.24612,72,64,71
92.95445,94.54536,77,64,71
94.77263,96.36354,84,64,71
96.59081,98.18172,81,64,71
98.40899,99.9999,76,64,71
100.22717,101.81808,77,64,71
102.04535,102.14478,79,64,71
102.15899,102.25842,76,64,71
102.27263,102.372055,77,64,71
102.38626,102.485695,79,64,71
102.4999,102.59933,81,64,71
102.61353,102.71297,77,64,71
102.72717,102.8266,79,64,71
102.840805,102.94024,81,64,71
102.954445,103.05387,79,64,71
103.06808,103.16751,76,64,71
103.18172,103.28114,77,64,71
103.29535,103.39478,79,64,71
103.40899,103.50842,81,64,71
103.52262,103.622055,77,64,71
103.63626,103.735695,79,64,71
103.74989,103.84933,81,64,71
103.86353,103.977165,79,64,71
103.977165,104.090805,76,64,71
104.090805,104.204445,74,64,71
104.204445,104.30387,73,64,71
104.31808,104.41846,74,64,71
104.54535,104.64573,74,64,71
104.77262,104.873,76,64,71
104.99989,105.10027,76,64,71
105.227165,105.327545,77,64,71
105.45444,105.55482,77,64,71
105.68171,106.13626,78,64,71
106.13626,107.04535,79,64,71
107.04535,107.44308,80,64,71
107.49989,108.60785,81,64,71
108.63625,108.73663,77,64,71
108.863525,108.963905,79,64,71
109.0908,109.19118,81,64,71
109.31807,109.37205,77,64,71
109.37489,109.43171,76,64,71
109.43171,109.488525,77,64,71
109.488525,109.54534,76,64,71
109.54534,109.602165,77,64,71
109.602165,109.65898,76,64,71
109.65898,109.7158,77,64,71
109.7158,109.77262,76,64,71
109.77262,109.82944,77,64,71
109.82944,109.88625,76,64,71
109.88625,109.94307,77,64,71
109.94307,109.99989,76,64,71
109.99989,110.05671,77,64,71
110.05671,110.113525,76,64,71
110.113525,110.17034,77,64,71
110.17034,110.227165,76,64,71
110.227165,110.28398,77,64,71
110.28398,110.3408,76,64,71
110.3408,110.39761,77,64,71
110.39761,110.45444,76,64,71
110.45444,110.51125,77,64,71
110.51125,110.56807,76,64,71
110.56807,110.62489,77,64,71
110.62489,110.68171,76,64,71
110.68171,110.738525,77,64,71
110.738525,110.79534,76,64,71
110.79534,110.852165,77,64,71
110.852165,110.90898,76,64,71
110.90898,111.02261,74,64,71
111.02261,111.12205,76,64,71
111.13625,111.53398,77,64,71
112.95443,113.863525,58,64,71
113.863525,114.261246,55,64,71
114.31807,114.51882,58,64,71
114.77261,115.6817,60,64,71
115.6817,116.07943,57,64,71
116.136246,116.337006,60,64,71
116.59079,116.81806,67,64,71
116.81806,117.045334,65,64,71
117.045334,117.27261,64,64,71
117.27261,117.47147,65,64,71
117.499886,117.70064,67,64,71
117.95443,118.15518,65,64,71
118.40897,118.60973,64,64,71
119.31806,120.11352,65,64,71
120.22715,121.022606,65,64,71
121.136246,122.95442,67,64,71
122.95442,123.15518,65,64,71
125.681694,125.79533,65,64,71
125.79533,125.908966,67,64,71
125.908966,126.0226,69,64,71
126.0226,126.12203,71,64,71
126.13624,126.24987,72,64,71
126.24987,126.36351,71,64,71
126.36351,126.47715,72,64,71
126.47715,126.57658,71,64,71
126.59078,126.70442,72,64,71
126.70442,126.818054,71,64,71
126.818054,126.931694,72,64,71
126.931694,127.03112,71,64,71
127.04533,127.158966,72,64,71
127.158966,127.2726,71,64,71
127.2726,127.38624,72,64,71
127.38624,127.485664,71,64,71
127.49987,127.61351,72,64,71
127.61351,127.72714,71,64,71
127.72714,127.84078,72,64,71
127.84078,127.940216,71,64,71
127.954414,128.06805,72,64,71
128.06805,128.18169,71,64,71
128.18169,128.29533,72,64,71
128.29533,128.39476,71,64,71
128.40897,128.5226,72,64,71
128.5226,128.63623,71,64,71
128.63623,128.74988,72,64,71
128.74988,128.8493,71,64,71
128.86351,128.97714,72,64,71
128.97714,129.09077,71,64,71
129.09077,129.20442,72,64,71
129.20442,129.30385,71,64,71
129.31805,129.43169,72,64,71
129.43169,129.54532,71,64,71
129.54532,129.65897,72,64,71
129.65897,129.75839,71,64,71
129.7726,129.88623,72,64,71
129.88623,129.99986,71,64,71
129.99986,130.11351,72,64,71
130.11351,130.21294,71,64,71
130.22714,130.34077,72,64,71
130.34077,130.45442,71,64,71
130.45442,130.56805,72,64,71
130.56805,130.66748,71,64,71
130.68169,130.79532,72,64,71
130.79532,130.90897,71,64,71
130.90897,131.0226,72,64,71
131.0226,131.12202,71,64,71
131.13623,131.24986,72,64,71
131.24986,131.36351,71,64,71
131.36351,131.47714,72,64,71
131.47714,131.57657,71,64,71
131.59077,131.7044,72,64,71
131.7044,131.81805,71,64,71
131.81805,131.93169,72,64,71
131.93169,132.03111,71,64,71
132.04532,132.15897,72,64,71
132.15897,132.2726,71,64,71
132.2726,132.38623,72,64,71
132.38623,132.48566,71,64,71
132.49986,132.61351,72,64,71
132.61351,132.72714,76,64,71
132.72714,132.82657,77,64,71
132.84077,132.9402,72,64,71
132.9544,133.05385,74,64,71
133.06805,133.18169,77,64,71
133.18169,133.29532,76,64,71
133.29532,133.39476,77,64,71
133.40895,133.50839,79,64,71
133.5226,133.63623,77,64,71
133.63623,133.74986,76,64,71
133.74986,133.8493,77,64,71
133.8635,133.96294,82,64,71
133.97714,134.07657,81,64,71
134.09077,134.1902,79,64,71
134.2044,134.30385,77,64,71
134.31805,134.41748,76,64,71
134.43169,134.53111,74,64,71
134.54532,134.64474,72,64,71
134.65895,134.75839,70,64,71
134.7726,135.17032,69,64,71
135.4544,135.5548,69,64,71
135.68169,135.78206,67,64,71
135.90895,136.00934,65,64,71
136.13623,136.2366,64,64,71
136.3635,136.46388,65,64,71
136.59077,136.79153,67,64,71
137.27258,137.37297,70,64,71
137.49986,137.60023,69,64,71
137.72714,137.82751,67,64,71
137.9544,138.05478,65,64,71
138.18169,138.28206,67,64,71
138.40895,138.60971,69,64,71
139.09077,139.19115,72,64,71
139.31804,139.41843,70,64,71
139.54532,139.64569,69,64,71
139.77258,139.87297,67,64,71
139.99986,140.10023,69,64,71
140.22713,140.42789,70,64,71
141.13622,141.81804,70,64,71
141.81804,142.0169,72,64,71
142.04532,142.24417,69,64,71
142.49986,142.6135,84,64,71
142.6135,142.72713,81,64,71
142.72713,142.84076,77,64,71
142.84076,142.9402,72,64,71
142.9544,143.05383,70,64,71
143.06804,143.16747,67,64,71
143.18167,143.28111,64,64,71
143.29532,143.39474,60,64,71
143.40895,143.50838,58,64,71
143.52258,143.62201,55,64,71
143.63622,143.73566,52,64,71
143.74986,143.84929,55,64,71
143.8635,144.06236,53,64,71
144.31804,144.43167,84,64,71
144.43167,144.5453,81,64,71
144.5453,144.65895,77,64,71
144.65895,144.75838,72,64,71
144.77258,144.87201,70,64,71
144.88622,144.98566,67,64,71
144.99985,145.09929,64,64,71
145.1135,145.21292,60,64,71
145.22713,145.32655,58,64,71
145.34076,145.4402,55,64,71
145.4544,145.55383,52,64,71
145.56804,145.66747,55,64,71
145.68167,145.88054,53,64,71
146.13622,146.24985,84,64,71
146.24985,146.3635,81,64,71
146.3635,146.47713,77,64,71
146.47713,146.57655,72,64,71
146.59076,146.6902,70,64,71
146.70439,146.80383,67,64,71
146.81804,146.91747,64,64,71
146.93167,147.0311,60,64,71
147.0453,147.14474,58,64,71
147.15895,147.25838,55,64,71
147.27258,147.37201,52,64,71
147.38622,147.48564,55,64,71
147.49985,147.89758,53,64,71
147.95439,148.25269,77,64,71
148.2953,148.39474,77,64,71
148.40894,148.80667,77,64,71
149.31804,150.22713,69,64,71
150.22713,151.02258,70,64,71
151.13622,152.0453,69,64,71
152.0453,152.84076,72,64,71
152.95439,153.74985,65,64,71
153.86348,155.56802,70,64,71
155.68166,156.47711,69,64,71
156.59076,160.62483,72,64,71
160.68166,161.1362,77,64,71
161.1362,161.59074,76,64,71
161.59074,161.98848,79,64,71
162.04529,162.95438,72,64,71
162.95438,163.74983,75,64,71
163.86348,165.45438,74,64,71
165.68166,167.27255,72,64,71
167.95438,168.15514,74,64,71
168.40892,168.60968,77,64,71
168.86346,168.9771,81,64,71
168.9771,169.09074,79,64,71
169.09074,169.20438,77,64,71
169.20438,169.3038,76,64,71
169.31801,169.51877,77,64,71
171.59074,171.70438,72,64,71
171.70438,171.81801,74,64,71
171.81801,171.93164,76,64,71
171.93164,172.03108,77,64,71
172.04529,172.14566,79,64,71
172.27255,172.37294,79,64,71
172.49983,172.6002,76,64,71
172.7271,172.82748,76,64,71
172.95438,173.40892,77,64,71
173.40892,173.86346,79,64,71
173.86346,174.31801,77,64,71
174.31801,174.71573,76,64,71
174.77255,176.36346,74,64,71
176.59073,177.49982,72,64,71
177.49982,178.29527,73,64,71
178.4089,179.31801,74,64,71
179.31801,180.11345,72,64,71
180.2271,181.02255,71,64,71
181.13618,182.443,72,64,71
182.49982,183.4089,75,64,71
183.4089,183.63618,74,64,71
183.63618,183.83504,72,64,71
183.86345,184.06421,71,64,71
184.318,184.41838,74,64,71
184.54527,184.64565,72,64,71
184.77254,184.99982,72,64,71
184.99982,185.19868,71,64,71
185.22708,185.32747,71,64,71
185.45436,185.55473,74,64,71
185.68163,185.9089,74,64,71
185.9089,186.10777,72,64,71
186.13618,186.36345,72,64,71
186.36345,186.56232,71,64,71
186.59073,186.818,71,64,71
186.818,187.01686,72,64,71
187.04527,187.14565,60,64,71
187.27254,187.37292,60,64,71
187.49982,187.70058,67,64,71
187.95436,188.05473,74,64,71
188.18163,188.28201,72,64,71
188.4089,188.63617,72,64,71
188.63617,188.83504,71,64,71
188.86345,188.96382,71,64,71
189.09071,189.1911,74,64,71
189.318,189.54526,74,64,71
189.54526,189.74413,72,64,71
189.77254,189.99982,72,64,71
189.99982,190.19867,71,64,71
190.22708,190.45436,71,64,71
190.45436,190.65321,72,64,71
190.68163,190.78201,60,64,71
190.9089,191.00928,60,64,71
191.13617,191.33693,67,64,71
191.59071,191.6911,71,64,71
191.818,191.91837,71,64,71
192.04526,192.24602,71,64,71
192.4998,192.60019,71,64,71
192.72708,192.82745,71,64,71
192.95435,193.1551,74,64,71
193.4089,193.50928,74,64,71
193.63617,193.73654,74,64,71
193.86345,194.0642,74,64,71
194.318,194.41837,77,64,71
194.54526,194.64565,77,64,71
194.77254,194.9733,75,64,71
196.59071,198.18163,58,64,71
198.40889,199.9998,60,64,71
200.22707,200.42783,65,64,71
201.13617,201.33691,62,64,71
202.04526,204.26115,58,64,71
204.31798,204.7157,58,64,71
204.77252,205.17024,58,64,71
205.22707,205.6248,58,64,71
205.68161,206.07935,60,64,71
207.49979,207.69865,65,64,71
207.72707,208.12479,67,64,71
208.18161,208.57933,68,64,71
208.63615,209.03387,67,64,71
209.0907,209.28957,65,64,71
209.31798,209.7157,63,64,71
211.5907,211.79146,65,64,71
212.04524,212.95433,74,64,71
212.95433,213.35207,75,64,71
215.22705,215.42781,65,64,71
215.68161,216.5907,74,64,71
216.5907,216.98842,75,64,71
220.45433,220.5547,63,64,71
220.6816,220.78198,63,64,71
220.90887,221.00925,63,64,71
221.13614,221.23653,63,64,71
221.36342,221.46379,63,64,71
221.59068,221.69107,63,64,71
221.81796,221.91833,63,64,71
222.04523,222.2441,63,64,71
223.86342,224.26114,63,64,71
224.7725,225.17023,63,64,71
225.90886,226.00925,70,64,71
226.13614,226.23651,70,64,71
226.3634,226.46379,70,64,71
226.59068,226.69106,70,64,71
226.81795,226.91833,70,64,71
227.04523,227.1456,70,64,71
227.2725,227.37288,70,64,71
227.49977,227.60016,70,64,71
227.72705,227.82742,70,64,71
227.95432,228.0547,70,64,71
228.1816,228.28197,70,64,71
228.40886,228.50925,74,64,71
228.63614,228.73651,74,64,71
228.8634,228.96379,74,64,71
229.09068,229.19106,74,64,71
229.31795,230.90886,75,64,71
231.13614,232.72704,74,64,71
232.95432,234.54523,82,64,71
234.77249,235.68158,80,64,71
235.68158,236.47704,79,64,71
236.59067,238.18158,79,64,71
238.40886,239.2043,75,64,71
239.31795,239.91454,75,64,71
239.99976,240.19862,75,64,71
240.22704,241.02249,75,64,71
241.13612,242.44293,81,64,71
242.49976,243.29521,74,64,71
243.40884,243.80658,74,64,71
243.86339,244.26112,74,64,71
244.77248,244.97324,62,64,71
245.68158,245.88232,64,64,71
246.59067,246.79141,76,64,71
247.49976,247.70052,69,64,71
248.40884,248.6096,69,64,71
249.31793,249.51869,70,64,71
250.22702,250.42778,70,64,71
251.13611,251.33687,69,64,71
252.27248,252.49974,77,64,71
252.49974,252.72702,76,64,71
252.72702,252.92589,74,64,71
252.9543,253.35202,73,64,71
254.09065,254.31793,77,64,71
254.31793,254.5452,76,64,71
254.5452,254.74406,74,64,71
254.77248,254.87285,73,64,71
254.99974,255.10013,69,64,71
255.22702,255.3274,69,64,71
255.45428,255.55467,69,64,71
255.68156,255.78194,69,64,71
255.90883,256.00922,69,64,71
256.1361,256.23648,69,64,71
256.36337,256.46375,69,64,71
256.59067,256.93155,69,64,71
256.93155,257.031,70,64,71
257.0452,257.14557,69,64,71
257.27246,257.37286,69,64,71
257.49976,257.60013,69,64,71
257.72702,257.8274,69,64,71
257.95428,258.05466,69,64,71
258.18155,258.28195,69,64,71
258.40884,258.74976,69,64,71
258.74976,258.84918,70,64,71
258.86337,258.96375,69,64,71
259.09064,259.19104,69,64,71
259.31793,259.4183,69,64,71
259.5452,259.64557,69,64,71
259.77246,259.87283,69,64,71
259.99973,260.10013,69,64,71
260.22702,260.57455,69,64,71
260.62473,260.68155,72,64,71
260.68155,260.90884,70,64,71
260.90884,261.1077,69,64,71
261.1361,261.5878,69,64,71
261.59064,262.01678,69,64,71
262.0452,262.27246,69,64,71
262.27246,262.4713,74,64,71
262.49973,263.2952,74,64,71
263.4088,263.80655,72,64,71
263.86337,264.09064,72,64,71
264.09064,264.31793,70,64,71
264.31793,264.5452,69,64,71
264.5452,264.74405,70,64,71
264.77246,264.99973,70,64,71
264.99973,265.0755,72,64,71
265.0755,265.15125,70,64,71
265.15125,265.22702,69,64,71
265.22702,265.42587,70,64,71
265.45428,265.55466,76,64,71
265.68155,266.36337,76,64,71
266.36337,266.56223,69,64,71
266.59064,266.98837,69,64,71
267.27246,267.4713,69,64,71
267.49973,267.727,69,64,71
267.727,267.87567,74,64,71
267.89746,267.95428,76,64,71
267.95428,268.18155,74,64,71
268.18155,268.3804,73,64,71
268.4088,269.0054,73,64,71
269.09064,269.2895,69,64,71
269.3179,269.51678,69,64,71
269.5452,269.69385,77,64,71
269.71564,269.77246,79,64,71
269.77246,269.99973,77,64,71
269.99973,270.1986,76,64,71
270.227,270.82358,76,64,71
270.9088,271.1077,69,64,71
271.13608,271.36337,69,64,71
271.36337,271.56223,81,64,71
271.59064,272.38608,81,64,71
272.49973,272.84726,79,64,71
272.89746,272.95428,81,64,71
272.95428,273.18155,79,64,71
273.18155,273.3804,77,64,71
273.4088,274.20428,77,64,71
274.3179,274.54517,77,64,71
274.54517,274.74405,76,64,71
274.77246,275.68155,75,64,71
275.68155,276.13608,74,64,71
276.13608,276.5338,73,64,71
276.59064,277.38608,81,64,71
277.49973,277.727,79,64,71
277.727,277.95425,77,64,71
277.95425,278.18155,76,64,71
278.18155,278.3804,74,64,71
278.4088,278.63608,77,64,71
278.63608,278.86334,76,64,71
278.86334,279.09064,79,64,71
279.09064,279.2895,76,64,71
279.3179,279.3719,74,64,71
279.37473,279.43155,73,64,71
279.43155,279.48834,74,64,71
279.48834,279.54517,73,64,71
279.54517,279.602,74,64,71
279.602,279.6588,73,64,71
279.6588,279.71564,74,64,71
279.71564,279.77246,73,64,71
279.77246,279.82925,74,64,71
279.82925,279.88608,73,64,71
279.88608,279.9429,74,64,71
279.9429,279.99973,73,64,71
279.99973,280.11334,71,64,71
280.11334,280.2128,73,64,71
280.227,280.42584,74,64,71
280.68155,280.79517,69,64,71
280.79517,280.9088,70,64,71
280.9088,281.02246,69,64,71
281.02246,281.1219,67,64,71
281.13608,281.23645,65,64,71
281.36334,281.46375,65,64,71
281.59064,281.70425,73,64,71
281.70425,281.8179,74,64,71
281.8179,281.93155,76,64,71
281.93155,282.03098,74,64,71
282.04517,282.14554,70,64,71
282.27243,282.37283,70,64,71
282.49973,282.61334,67,64,71
282.61334,282.727,69,64,71
282.727,282.84064,70,64,71
282.84064,282.94006,71,64,71
282.95425,283.05463,72,64,71
283.18155,283.28192,72,64,71
283.4088,283.52243,74,64,71
283.52243,283.63608,72,64,71
283.63608,283.74973,67,64,71
283.74973,283.84915,70,64,71
283.86334,283.96375,69,64,71
284.09064,284.191,69,64,71
284.3179,284.43152,69,64,71
284.43152,284.54517,70,64,71
284.54517,284.6588,72,64,71
284.6588,284.75824,69,64,71
284.77243,284.87283,66,64,71
284.99973,285.1001,66,64,71
285.227,285.34064,74,64,71
285.34064,285.45425,72,64,71
285.45425,285.5679,69,64,71
285.5679,285.66733,66,64,71
285.68152,285.78192,67,64,71
285.9088,286.0092,67,64,71
286.13608,286.24973,67,64,71
286.24973,286.36334,69,64,71
286.36334,286.477,70,64,71
286.477,286.59064,69,64,71
286.59064,286.69006,67,64,71
286.70425,286.80368,65,64,71
286.8179,286.91733,64,64,71
286.93152,287.03098,62,64,71
287.04517,287.14554,61,64,71
287.27243,287.37283,69,64,71
287.49973,287.727,67,64,71
287.727,287.92584,65,64,71
288.4088,288.60956,74,64,71
289.3179,289.51865,79,64,71
290.227,290.42773,76,64,71
291.13608,291.33682,77,64,71
292.04517,292.2459,74,64,71
292.95425,293.155,70,64,71
293.86334,294.0641,64,64,71
294.3179,294.51865,69,64,71
294.77243,296.36334,74,64,71
296.5906,298.18152,76,64,71
298.40878,299.9997,77,64,71
300.22696,303.63605,81,64,71
303.86334,305.88226,74,64,71
306.13605,306.33682,74,64,71
306.5906,306.79135,74,64,71
307.04514,307.2459,74,64,71
307.4997,309.0906,74,64,71
309.31787,309.51862,73,64,71
311.13605,311.2497,62,64,71
311.2497,311.3633,64,64,71
311.3633,311.47696,65,64,71
311.47696,311.5764,67,64,71
311.5906,311.70422,69,64,71
311.70422,311.81787,70,64,71
311.81787,311.93152,69,64,71
311.93152,312.03094,70,64,71
312.04514,312.15878,69,64,71
312.15878,312.2724,70,64,71
312.2724,312.38605,69,64,71
312.38605,312.48547,70,64,71
312.4997,312.6133,69,64,71
312.6133,312.72696,70,64,71
312.72696,312.8406,69,64,71
312.8406,312.94003,70,64,71
312.95422,313.06787,69,64,71
313.06787,313.18152,70,64,71
313.18152,313.29514,69,64,71
313.29514,313.39456,70,64,71
313.40878,313.5224,69,64,71
313.5224,313.63605,70,64,71
313.63605,313.7497,69,64,71
313.7497,313.84912,70,64,71
313.8633,313.97696,69,64,71
313.97696,314.0906,70,64,71
314.0906,314.20422,69,64,71
314.20422,314.30365,70,64,71
314.31787,314.43152,69,64,71
314.43152,314.54514,70,64,71
314.54514,314.65878,69,64,71
314.65878,314.7582,70,64,71
314.7724,314.88605,69,64,71
314.88605,314.9997,70,64,71
314.9997,315.1133,69,64,71
315.1133,315.21274,70,64,71
315.22696,315.3406,69,64,71
315.3406,315.45422,70,64,71
315.45422,315.56787,69,64,71
315.56787,315.6673,70,64,71
315.6815,315.79514,69,64,71
315.79514,315.90878,70,64,71
315.90878,316.0224,69,64,71
316.0224,316.12186,70,64,71
316.13605,316.2497,69,64,71
316.2497,316.3633,70,64,71
316.3633,316.47696,69,64,71
316.47696,316.5764,70,64,71
316.5906,316.70422,69,64,71
316.70422,316.81787,70,64,71
316.81787,316.9315,69,64,71
316.9315,317.03094,70,64,71
317.04514,317.15878,69,64,71
317.15878,317.2724,70,64,71
317.2724,317.38605,69,64,71
317.38605,317.48547,70,64,71
317.4997,317.6133,69,64,71
317.6133,317.72696,70,64,71
317.72696,317.84058,69,64,71
317.84058,317.94003,70,64,71
317.95422,318.06787,69,64,71
318.06787,318.1815,67,64,71
318.1815,318.29514,65,64,71
318.29514,318.39456,69,64,71
318.40878,318.5224,70,64,71
318.5224,318.63605,79,64,71
318.63605,318.7497,82,64,71
318.7497,318.84912,81,64,71
318.8633,318.96274,79,64,71
318.97696,319.0764,77,64,71
319.09058,319.19003,76,64,71
319.20422,319.30365,74,64,71
319.31787,319.4173,73,64,71
319.4315,319.53094,74,64,71
319.54514,319.64456,76,64,71
319.65878,319.7582,77,64,71
319.7724,319.88605,79,64,71
319.88605,319.9997,76,64,71
319.9997,320.09912,81,64,71
320.1133,320.21274,79,64,71
320.22696,320.4277,77,64,71
321.3633,321.46368,65,64,71
321.59058,321.69098,64,64,71
321.81787,321.91824,62,64,71
322.04514,322.24588,61,64,71
323.1815,323.28186,67,64,71
323.40875,323.50916,65,64,71
323.63605,323.73642,64,64,71
323.8633,324.06406,62,64,71
324.99966,325.10007,74,64,71
325.22696,325.32733,73,64,71
325.45422,325.5546,74,64,71
325.6815,326.07922,67,64,71
326.59058,326.9883,69,64,71
327.49966,327.6133,81,64,71
327.6133,327.71274,77,64,71
327.72696,327.8264,74,64,71
327.84058,327.94,69,64,71
327.95422,328.15308,65,64,71
328.63605,328.73642,79,64,71
328.8633,328.96368,76,64,71
329.09058,329.19095,73,64,71
329.31784,329.4315,81,64,71
329.4315,329.5309,77,64,71
329.54514,329.64456,74,64,71
329.65875,329.75818,69,64,71
329.7724,329.97125,65,64,71
330.45422,330.5546,79,64,71
330.6815,330.78186,76,64,71
330.90875,331.00912,73,64,71
331.13605,331.24966,81,64,71
331.24966,331.3491,77,64,71
331.3633,331.46274,74,64,71
331.47693,331.5764,69,64,71
331.59058,331.78943,65,64,71
332.2724,332.37277,79,64,71
332.49966,332.60004,76,64,71
332.72693,332.82733,73,64,71
332.95422,333.35193,74,64,71
333.40875,333.70706,81,64,71
333.74966,333.8491,81,64,71
333.8633,334.26102,77,64,71
22.499977,22.951681,65,64,60
22.954523,23.38066,65,64,60
24.318157,24.769861,67,64,60
24.772703,25.19884,67,64,60
26.136337,26.588041,63,64,60
26.590883,27.01702,63,64,60
32.272694,32.471558,63,64,60
32.499966,32.69883,63,64,60
32.72724,32.9261,63,64,60
32.954514,33.63633,63,64,60
33.63633,33.835194,67,64,60
33.8636,34.54542,67,64,60
34.54542,34.74428,70,64,60
34.772694,35.568146,70,64,60
35.68178,35.909054,68,64,60
35.909054,36.136326,67,64,60
36.136326,36.3636,65,64,60
36.3636,36.56246,63,64,60
36.590874,36.818146,65,64,60
36.818146,36.8939,67,64,60
36.8939,36.96966,65,64,60
36.96966,37.045418,64,64,60
37.045418,37.24428,65,64,60
37.27269,37.471554,67,64,60
37.49996,37.89769,68,64,60
37.954506,38.302044,68,64,60
38.352234,38.409054,70,64,60
38.409054,38.636326,68,64,60
38.636326,38.83519,67,64,60
38.863598,39.3153,67,64,60
39.318142,39.517006,67,64,60
39.545414,39.645794,67,64,60
39.772686,39.873066,67,64,60
39.99996,40.100338,67,64,60
40.227234,40.454506,67,64,60
40.454506,40.681778,65,64,60
40.681778,40.90905,64,64,60
40.90905,41.107914,65,64,60
41.136322,41.732914,65,64,60
41.81814,41.966816,65,64,60
41.988594,42.045414,67,64,60
42.045414,42.272686,65,64,60
42.272686,42.47155,63,64,60
42.499958,43.153366,63,64,60
43.181774,43.409046,67,64,60
43.409046,43.63632,68,64,60
43.63632,43.835182,67,64,60
43.863594,44.090866,67,64,60
44.090866,44.31814,65,64,60
44.31814,44.54541,64,64,60
44.54541,44.744274,65,64,60
44.772682,45.369274,65,64,60
45.4545,45.653362,65,64,60
45.681774,46.789726,65,64,60
46.818134,46.918514,65,64,60
47.045406,47.145786,65,64,60
47.27268,47.34844,65,64,60
47.443134,47.499954,67,64,60
47.499954,47.727226,65,64,60
47.727226,47.92609,64,64,60
47.9545,48.607906,64,64,60
48.636314,48.736694,64,64,60
48.863586,48.963966,64,64,60
49.09086,49.19124,64,64,60
49.318134,49.71586,64,64,60
50.454494,50.554874,64,64,60
50.681767,50.782146,64,64,60
50.90904,51.00942,64,64,60
51.136314,51.33707,65,64,60
52.272675,52.373055,65,64,60
52.499947,52.600327,65,64,60
52.72722,52.8276,65,64,60
52.95449,53.15525,64,64,60
54.090855,54.191235,64,64,60
54.318127,54.418507,64,64,60
54.5454,54.64578,64,64,60
54.77267,54.97343,65,64,60
55.909035,56.009415,65,64,60
56.136307,56.236687,65,64,60
56.36358,56.46396,65,64,60
56.59085,56.98858,64,64,60
57.0454,57.343693,64,64,60
57.386307,57.485737,64,64,60
57.499943,57.89767,64,64,60
58.40903,59.602215,65,64,60
62.04539,62.24615,65,64,60
64.77266,65.224365,65,64,60
65.22721,65.65334,65,64,60
65.681755,66.7897,70,64,60
66.818115,67.04539,68,64,60
67.04539,67.27266,65,64,60
67.27266,67.47153,62,64,60
67.49993,68.18175,63,64,60
68.18175,68.29539,67,64,60
68.29539,68.39482,65,64,60
68.40902,68.60789,63,64,60
68.63629,68.83516,62,64,60
68.86357,69.06243,60,64,60
69.09084,69.2897,58,64,60
69.318115,70.90902,57,64,60
80.68174,81.07947,65,64,60
81.59083,81.988556,67,64,60
82.499916,82.897644,65,64,60
83.409004,83.80673,65,64,60
84.3181,84.71583,65,64,60
85.22719,85.624916,64,64,60
85.68173,86.07946,65,64,60
92.95445,94.54536,65,64,60
94.77263,96.36354,67,64,60
96.59081,98.18172,65,64,60
98.40899,99.9999,67,64,60
100.22717,101.81808,65,64,60
102.04535,102.4999,67,64,60
102.4999,102.69876,65,64,60
102.954445,103.40899,67,64,60
103.40899,103.60785,65,64,60
103.86353,104.31808,67,64,60
104.31808,104.51694,65,64,60
107.49989,108.60785,65,64,60
108.63625,108.73663,65,64,60
108.863525,108.963905,67,64,60
109.0908,109.19118,69,64,60
109.31807,110.113525,70,64,60
110.227165,110.82375,70,64,60
110.90898,111.10784,70,64,60
111.13625,111.53398,69,64,60
132.2726,132.37297,65,64,60
132.49986,132.60025,67,64,60
132.72714,132.82751,65,64,60
133.40895,133.60971,70,64,60
134.31805,134.5188,67,64,60
134.7726,134.97334,65,64,60
136.59077,136.79153,67,64,60
138.40895,138.60971,65,64,60
139.54532,139.64569,65,64,60
139.77258,139.87297,67,64,60
139.99986,140.10023,65,64,60
140.22713,140.42789,65,64,60
141.59077,141.88907,67,64,60
141.93167,142.03111,67,64,60
142.04532,142.44304,65,64,60
142.72713,142.82751,65,64,60
142.9544,143.8635,70,64,60
143.8635,144.26122,69,64,60
144.5453,144.64569,65,64,60
144.77258,145.68167,70,64,60
145.68167,146.0794,69,64,60
146.3635,146.46387,65,64,60
146.59076,147.49985,70,64,60
147.49985,147.89758,69,64,60
147.95439,148.25269,65,64,60
148.2953,148.39474,65,64,60
148.40894,148.80667,65,64,60
149.31804,150.22713,65,64,60
150.22713,151.02258,67,64,60
151.13622,152.72713,65,64,60
160.22711,161.1362,65,64,60
161.1362,161.93166,67,64,60
162.04529,163.6362,65,64,60
165.22711,166.47711,67,64,60
166.59074,167.70059,65,64,60
167.95438,168.15514,65,64,60
168.86346,169.06422,67,64,60
169.31801,169.51877,65,64,60
183.86345,186.07936,67,64,60
186.59073,187.04242,67,64,60
187.04527,187.4714,67,64,60
187.49982,189.71571,67,64,60
190.22708,190.67879,67,64,60
190.68163,191.10776,67,64,60
191.13617,191.33693,67,64,60
195.22708,195.32745,63,64,60
195.45435,195.55473,63,64,60
195.68163,195.75739,65,64,60
195.75739,195.83313,63,64,60
195.83313,195.90889,62,64,60
195.90889,196.10776,63,64,60
196.13617,196.23654,63,64,60
196.36343,196.46382,63,64,60
196.59071,196.66647,65,64,60
196.66647,196.74223,63,64,60
196.74223,196.81798,62,64,60
196.81798,197.01685,63,64,60
197.04526,197.14563,63,64,60
197.27254,197.37291,63,64,60
197.4998,197.72708,63,64,60
197.72708,197.95435,70,64,60
197.95435,198.18163,68,64,60
198.18163,198.33029,67,64,60
198.35208,198.40889,68,64,60
198.40889,198.63617,67,64,60
198.63617,198.83502,65,64,60
198.86343,199.65889,65,64,60
199.77252,199.88617,65,64,60
199.88617,199.9998,67,64,60
199.9998,200.11343,65,64,60
200.11343,200.21288,63,64,60
200.22707,200.32745,62,64,60
200.45435,200.67877,70,64,60
200.68161,200.90605,70,64,60
200.90889,201.12196,70,64,60
201.13617,201.36343,70,64,60
201.36343,201.59071,68,64,60
201.59071,201.81798,67,64,60
201.81798,202.01685,65,64,60
202.04526,202.27252,68,64,60
202.27252,202.47139,67,64,60
202.4998,203.29526,67,64,60
203.40889,203.52252,67,64,60
203.52252,203.63615,70,64,60
203.63615,203.7498,68,64,60
203.7498,203.84923,65,64,60
203.86343,204.08786,63,64,60
204.0907,204.31514,65,64,60
204.31798,204.5424,67,64,60
204.54526,204.76968,68,64,60
204.77252,204.99695,70,64,60
204.9998,205.22423,72,64,60
205.22707,205.45149,74,64,60
205.45435,205.6674,75,64,60
205.68161,205.90889,65,64,60
205.90889,205.98465,67,64,60
205.98465,206.0604,65,64,60
206.0604,206.13615,64,64,60
206.13615,206.33502,65,64,60
206.36343,206.56229,67,64,60
206.5907,206.79146,68,64,60
207.04524,207.246,68,64,60
207.49979,207.69865,68,64,60
207.72707,208.12479,70,64,60
208.18161,208.57933,72,64,60
208.63615,209.03387,70,64,60
209.0907,209.28957,68,64,60
209.31798,209.51683,67,64,60
209.77252,209.88615,67,64,60
209.88615,209.99979,70,64,60
209.99979,210.11343,67,64,60
210.11343,210.21286,63,64,60
210.22707,210.32744,58,64,60
210.45433,210.55472,58,64,60
210.68161,210.78198,58,64,60
210.90887,211.00926,58,64,60
211.13615,211.23653,58,64,60
211.36342,211.47707,65,64,60
211.47707,211.57649,63,64,60
211.5907,211.69012,62,64,60
211.70433,211.80377,63,64,60
211.81796,211.9174,65,64,60
211.93161,212.03104,67,64,60
212.04524,212.14467,65,64,60
212.15887,212.25832,67,64,60
212.27252,212.37195,68,64,60
212.38615,212.48558,67,64,60
212.49979,212.59921,70,64,60
212.61342,212.71286,68,64,60
212.72707,212.82649,67,64,60
212.8407,212.94012,65,64,60
212.95433,213.1532,67,64,60
213.40887,213.5225,67,64,60
213.5225,213.63615,70,64,60
213.63615,213.74979,67,64,60
213.74979,213.84921,63,64,60
213.86342,213.9638,58,64,60
214.0907,214.19107,58,64,60
214.31796,214.41835,58,64,60
214.54524,214.64561,58,64,60
214.7725,214.87195,58,64,60
214.88615,214.98558,60,64,60
214.99979,215.09921,62,64,60
215.11342,215.21286,63,64,60
215.22705,215.32649,62,64,60
215.3407,215.44012,63,64,60
215.45433,215.55376,65,64,60
215.56796,215.6674,67,64,60
215.68161,215.78104,65,64,60
215.79524,215.89467,67,64,60
215.90887,216.0083,68,64,60
216.0225,216.12195,67,64,60
216.13615,216.23558,70,64,60
216.24979,216.34921,68,64,60
216.36342,216.46284,67,64,60
216.47705,216.57649,65,64,60
216.5907,216.78955,67,64,60
217.04524,217.15887,70,64,60
217.15887,217.2583,72,64,60
217.2725,217.32175,70,64,60
217.38614,217.4354,67,64,60
217.49979,217.61342,63,64,60
217.61342,217.71284,70,64,60
217.72705,217.77629,67,64,60
217.8407,217.88994,63,64,60
217.95433,218.06796,58,64,60
218.06796,218.16739,67,64,60
218.1816,218.23083,63,64,60
218.29524,218.34448,58,64,60
218.40887,218.50925,55,64,60
218.86342,219.7725,70,64,60
219.7725,220.17023,71,64,60
220.22705,220.42592,72,64,60
220.6816,221.13614,71,64,60
221.13614,221.335,72,64,60
221.59068,222.04523,71,64,60
222.04523,222.2441,72,64,60
222.2725,222.38614,72,64,60
222.38614,222.48558,70,64,60
222.49977,222.60016,68,64,60
222.72705,222.82742,67,64,60
222.95432,223.0547,65,64,60
223.1816,223.28197,63,64,60
223.40887,223.50925,62,64,60
223.63614,223.73651,60,64,60
223.86342,223.96379,58,64,60
224.31796,224.97136,58,64,60
224.99977,225.04901,60,64,60
225.11342,225.16266,62,64,60
225.22705,225.27629,63,64,60
225.34068,225.38992,65,64,60
225.45432,225.50356,67,64,60
225.56796,225.6172,68,64,60
225.6816,225.88046,70,64,60
226.13614,226.78955,70,64,60
226.81795,227.04523,69,64,60
227.04523,227.2725,68,64,60
227.2725,227.47136,67,64,60
227.49977,227.5566,67,64,60
227.5566,227.6134,65,64,60
227.6134,227.67023,67,64,60
227.67023,227.72705,65,64,60
227.72705,227.78386,67,64,60
227.78386,227.84068,65,64,60
227.84068,227.8975,67,64,60
227.8975,227.95432,65,64,60
227.95432,228.01114,67,64,60
228.01114,228.06795,65,64,60
228.06795,228.12477,67,64,60
228.12477,228.1816,65,64,60
228.1816,228.2384,67,64,60
228.2384,228.29523,65,64,60
228.29523,228.35205,67,64,60
228.35205,228.40886,65,64,60
228.40886,228.46568,67,64,60
228.46568,228.52249,65,64,60
228.52249,228.57932,67,64,60
228.57932,228.63614,65,64,60
228.63614,228.69295,67,64,60
228.69295,228.74977,65,64,60
228.74977,228.8066,67,64,60
228.8066,228.8634,65,64,60
228.8634,228.92023,67,64,60
228.92023,228.97705,65,64,60
228.97705,229.03386,67,64,60
229.03386,229.09068,65,64,60
229.09068,229.20432,63,64,60
229.20432,229.30374,65,64,60
229.31795,229.71568,63,64,60
230.22704,230.82364,63,64,60
230.90886,231.10773,63,64,60
231.13614,231.93158,58,64,60
232.04523,232.64182,70,64,60
232.72704,232.9259,70,64,60
232.95432,234.54523,63,64,60
234.77249,235.56795,65,64,60
235.68158,236.27817,67,64,60
236.3634,236.56226,67,64,60
236.59067,238.18158,67,64,60
238.40886,239.99976,63,64,60
243.86339,244.26112,67,64,60
281.59064,281.79138,65,64,60
282.49973,282.70047,67,64,60
283.4088,283.60956,67,64,60
284.3179,284.51865,65,64,60
285.227,285.42773,72,64,60
286.13608,286.33682,70,64,60
287.04517,287.2459,69,64,60
287.49973,287.70047,69,64,60
294.77243,296.36334,65,64,60
296.5906,298.18152,67,64,60
298.40878,299.9997,65,64,60
300.22696,301.81787,64,64,60
302.04517,303.63605,65,64,60
305.68152,305.88226,67,64,60
306.13605,306.33682,67,64,60
306.5906,306.79135,67,64,60
307.04514,307.2459,67,64,60
307.4997,309.0906,65,64,60
309.54514,309.64554,67,64,60
309.77243,309.8728,67,64,60
309.9997,310.10007,67,64,60
310.22696,310.32733,67,64,60
310.45422,310.55463,67,64,60
310.68152,310.7819,67,64,60
310.90878,311.00916,67,64,60
311.13605,311.53378,65,64,60
319.31787,319.91446,67,64,60
319.9997,320.19855,67,64,60
320.22696,320.4277,65,64,60
327.04514,327.3434,67,64,60
327.38605,327.48547,67,64,60
327.49966,327.70044,65,64,60
328.1815,328.28186,65,64,60
328.40875,329.31784,67,64,60
329.31784,329.71558,65,64,60
329.99966,330.10004,65,64,60
330.22693,331.13605,67,64,60
331.13605,331.53375,65,64,60
331.81784,331.91824,65,64,60
332.04514,332.95422,67,64,60
332.95422,333.35193,65,64,60
333.40875,333.70706,65,64,60
333.74966,333.8491,65,64,60
333.8633,334.26102,65,64,60
334.31784,334.3188,70,64,60
0.2272725,1.1363626,50,64,70
1.1363626,1.9318162,52,64,70
2.0454526,2.9545424,53,64,70
2.9545424,3.7499962,54,64,70
3.8636324,4.7727227,55,64,70
4.7727227,5.5681763,52,64,70
5.6818123,6.4772663,49,64,70
6.5909023,7.3863564,50,64,70
7.4999924,8.409082,52,64,70
8.409082,9.204536,55,64,70
9.318172,9.772717,53,64,70
9.772717,10.2272625,62,64,70
10.2272625,10.6818075,61,64,70
10.6818075,11.079535,64,64,70
11.136353,11.590898,62,64,70
11.590898,12.045443,65,64,70
12.045443,12.499988,64,64,70
12.499988,12.897715,61,64,70
12.954533,13.749987,62,64,70
13.863623,14.659077,50,64,70
14.772713,15.681803,55,64,70
15.681803,16.477257,52,64,70
16.590893,17.499983,58,64,70
17.499983,18.295437,55,64,70
18.409073,18.806799,53,64,70
18.863617,19.261345,50,64,70
19.318163,19.715889,57,64,70
19.772707,20.170435,45,64,70
20.227253,20.624979,50,64,70
20.681797,21.079525,45,64,70
21.136343,21.53407,38,64,70
21.81816,22.017023,57,64,70
22.045433,22.840887,57,64,70
22.954523,23.181795,55,64,70
23.181795,23.409067,53,64,70
23.409067,23.63634,52,64,70
23.63634,23.835203,50,64,70
23.863613,24.090885,53,64,70
24.090885,24.28975,51,64,70
24.318157,25.113611,51,64,70
25.227247,25.340883,51,64,70
25.340883,25.45452,53,64,70
25.45452,25.568157,51,64,70
25.568157,25.667587,50,64,70
25.681793,25.880655,51,64,70
25.909065,26.306791,55,64,70
26.36361,26.46399,58,64,70
26.590883,26.818155,57,64,70
26.818155,27.045427,55,64,70
27.045427,27.2727,53,64,70
27.2727,27.471563,52,64,70
27.499973,27.727245,50,64,70
27.727245,27.92611,49,64,70
27.954517,28.607925,49,64,70
28.636335,28.736713,57,64,70
28.863607,28.963985,57,64,70
29.09088,29.19126,57,64,70
29.318153,30.113605,57,64,70
30.227243,30.454515,55,64,70
30.454515,30.681787,53,64,70
30.681787,30.90906,52,64,70
30.90906,31.107924,50,64,70
31.136332,31.363605,53,64,70
31.363605,31.562468,51,64,70
31.590878,32.38633,51,64,70
32.499966,32.72724,46,64,70
32.72724,32.9261,43,64,70
32.954514,33.352238,39,64,70
33.8636,34.26133,39,64,70
34.772694,36.590874,51,64,70
36.590874,38.18178,50,64,70
38.409054,38.806778,51,64,70
38.863598,39.3153,39,64,70
39.318142,39.769848,39,64,70
39.772686,40.198822,39,64,70
40.227234,41.81814,44,64,70
42.045414,42.954502,43,64,70
42.954502,43.749958,46,64,70
43.863594,45.56814,44,64,70
45.681774,46.590862,46,64,70
46.590862,47.386314,45,64,70
47.499954,48.409042,43,64,70
48.409042,49.204494,44,64,70
49.318134,49.516994,45,64,70
49.545406,49.74427,57,64,70
49.77268,49.971542,57,64,70
49.99995,50.198814,57,64,70
50.227222,50.426086,57,64,70
50.454494,50.65336,57,64,70
50.681767,50.88063,57,64,70
50.90904,51.107903,57,64,70
51.136314,51.335175,45,64,70
51.363586,51.562447,57,64,70
51.59086,51.789722,57,64,70
51.81813,52.016994,57,64,70
52.045403,52.244267,57,64,70
52.272675,52.47154,57,64,70
52.499947,52.69881,57,64,70
52.72722,52.926083,57,64,70
52.95449,53.153355,45,64,70
53.181767,53.380627,57,64,70
53.40904,53.607903,57,64,70
53.63631,53.835175,57,64,70
53.863583,54.062447,57,64,70
54.090855,54.28972,57,64,70
54.318127,54.51699,57,64,70
54.5454,54.744263,57,64,70
54.77267,54.971535,45,64,70
54.999947,55.198807,57,64,70
55.22722,55.426083,57,64,70
55.45449,55.653355,57,64,70
55.681763,55.880627,57,64,70
55.909035,56.1079,57,64,70
56.136307,56.33517,57,64,70
56.36358,56.562443,57,64,70
56.59085,56.98858,45,64,70
57.0454,57.343693,45,64,70
57.386307,57.485737,45,64,70
57.499943,57.89767,45,64,70
58.40903,59.516987,53,64,70
59.545395,59.644825,65,64,70
59.65903,59.758465,64,64,70
59.772667,59.8721,65,64,70
59.886303,59.985737,64,64,70
59.99994,60.099373,62,64,70
60.113575,60.21301,60,64,70
60.22721,60.32759,58,64,70
60.454487,60.553917,62,64,70
60.568123,60.667553,60,64,70
60.68176,60.78119,58,64,70
60.795395,60.894825,57,64,70
60.90903,61.00846,55,64,70
61.022667,61.122097,53,64,70
61.136303,61.236683,52,64,70
61.363575,61.463005,55,64,70
61.47721,61.57664,53,64,70
61.590847,61.69028,52,64,70
61.704483,61.803917,50,64,70
61.81812,61.917553,48,64,70
61.931755,62.03119,46,64,70
62.04539,62.24615,45,64,70
63.86357,64.318115,45,64,70
64.318115,64.77266,48,64,70
64.77266,65.17039,53,64,70
65.681755,66.1363,46,64,70
66.1363,66.59084,50,64,70
66.59084,66.98857,53,64,70
67.49993,67.954475,46,64,70
67.954475,68.40902,51,64,70
68.40902,68.80675,55,64,70
69.318115,69.77266,53,64,70
69.77266,70.2272,57,64,70
70.2272,70.62493,60,64,70
71.13629,71.590836,53,64,70
71.590836,72.04538,60,64,70
72.04538,72.44311,63,64,70
72.954475,74.77265,60,64,70
74.77265,75.17038,58,64,70
75.68174,76.07947,46,64,70
76.590836,76.988556,48,64,70
77.04538,77.44311,60,64,70
77.49992,77.89765,60,64,70
77.95447,78.352196,60,64,70
78.40901,78.60977,48,64,70
80.227196,80.42795,50,64,70
81.136284,81.337036,52,64,70
82.04537,82.24613,53,64,70
82.95446,83.15522,45,64,70
83.863556,84.06431,46,64,70
84.772644,84.9734,48,64,70
85.68173,85.88249,41,64,70
86.59082,86.79158,53,64,70
92.95445,93.05389,41,64,70
93.06809,93.16752,53,64,70
93.181725,93.28116,55,64,70
93.295364,93.39479,57,64,70
93.409,93.50843,58,64,70
93.52264,93.62206,60,64,70
93.63627,93.7357,62,64,70
93.74991,93.849335,64,64,70
93.86354,93.962975,65,64,70
93.97718,94.07661,64,64,70
94.09081,94.19025,62,64,70
94.20445,94.30389,60,64,70
94.318085,94.41752,58,64,70
94.431725,94.53116,57,64,70
94.54536,94.64479,55,64,70
94.659,94.75843,53,64,70
94.77263,94.87206,52,64,70
94.88627,94.9857,53,64,70
94.99991,95.099335,55,64,70
95.11354,95.212975,53,64,70
95.22718,95.32661,52,64,70
95.34081,95.44025,53,64,70
95.45445,95.55388,55,64,70
95.568085,95.66752,57,64,70
95.681725,95.78115,58,64,70
95.79536,95.89479,57,64,70
95.909,96.00843,55,64,70
96.02263,96.12206,53,64,70
96.13627,96.2357,52,64,70
96.2499,96.349335,48,64,70
96.36354,96.462975,50,64,70
96.47717,96.57661,52,64,70
96.59081,96.78967,53,64,70
96.818085,96.91752,65,64,70
96.931725,97.03115,64,64,70
97.04536,97.14479,62,64,70
97.159,97.25842,60,64,70
97.27263,97.37206,58,64,70
97.38627,97.485695,57,64,70
97.4999,97.599335,58,64,70
97.61354,97.71297,57,64,70
97.72717,97.82661,55,64,70
97.84081,97.94025,53,64,70
97.954445,98.05388,55,64,70
98.068085,98.16752,53,64,70
98.18172,98.28115,52,64,70
98.29536,98.39479,50,64,70
98.40899,98.60786,49,64,70
98.63627,98.735695,50,64,70
98.7499,98.849335,52,64,70
98.86354,98.96297,53,64,70
98.97717,99.07661,55,64,70
99.09081,99.19024,57,64,70
99.204445,99.30388,59,64,70
99.318085,99.41751,61,64,70
99.43172,99.53115,62,64,70
99.54536,99.64478,64,64,70
99.65899,99.75842,62,64,70
99.77263,99.87206,61,64,70
99.88626,99.985695,58,64,70
99.9999,100.099335,57,64,70
100.11353,100.21297,55,64,70
100.22717,100.32661,53,64,70
100.340805,100.44024,50,64,70
100.454445,100.55388,52,64,70
100.568085,100.66751,53,64,70
100.68172,100.78115,55,64,70
100.79536,100.89478,57,64,70
100.90899,101.00842,59,64,70
101.02263,101.122055,61,64,70
101.13626,101.235695,62,64,70
101.2499,101.34933,61,64,70
101.36353,101.46297,58,64,70
101.47717,101.57661,57,64,70
101.590805,101.69024,55,64,70
101.704445,101.80388,53,64,70
101.81808,101.91751,52,64,70
101.93172,102.03115,50,64,70
102.04535,102.14573,52,64,70
102.4999,102.59933,53,64,70
102.61353,102.71297,50,64,70
102.72717,102.8266,52,64,70
102.840805,102.94024,53,64,70
102.954445,103.054825,52,64,70
103.40899,103.50842,53,64,70
103.52262,103.622055,50,64,70
103.63626,103.735695,52,64,70
103.74989,103.84933,53,64,70
103.86353,104.204445,55,64,70
104.204445,104.26126,57,64,70
104.26126,104.3105,55,64,70
104.31808,104.65899,53,64,70
104.65899,104.715805,55,64,70
104.715805,104.765045,53,64,70
104.77262,105.11353,52,64,70
105.11353,105.17035,53,64,70
105.17035,105.21959,52,64,70
105.227165,105.56808,50,64,70
105.56808,105.62489,52,64,70
105.62489,105.67413,50,64,70
105.68171,106.02262,48,64,70
106.02262,106.07944,50,64,70
106.07944,106.128685,48,64,70
106.13626,106.23663,46,64,70
106.36353,106.463905,50,64,70
106.590805,106.691185,46,64,70
106.81808,106.91846,50,64,70
107.04535,107.14573,46,64,70
107.27262,107.373,50,64,70
107.49989,107.60027,48,64,70
107.727165,107.827545,48,64,70
107.95444,108.05482,48,64,70
108.18171,108.28209,48,64,70
108.40898,108.50936,48,64,70
108.63625,108.73663,48,64,70
108.863525,108.963905,48,64,70
109.0908,109.19118,48,64,70
109.31807,109.41845,48,64,70
109.54534,109.64572,48,64,70
109.77262,109.87299,48,64,70
109.99989,110.100266,48,64,70
110.227165,110.32754,48,64,70
110.45444,110.55482,48,64,70
110.68171,110.78209,48,64,70
110.90898,111.00936,48,64,70
111.13625,111.53398,41,64,70
112.04534,112.27261,57,64,70
112.27261,112.499886,58,64,70
112.499886,112.72716,60,64,70
112.72716,112.926025,57,64,70
112.95443,113.1817,61,64,70
113.1817,113.40897,62,64,70
113.40897,113.63625,64,64,70
113.63625,113.83511,62,64,70
113.863525,114.0908,60,64,70
114.0908,114.31807,58,64,70
114.31807,114.54534,57,64,70
114.54534,114.7442,55,64,70
114.77261,115.22716,53,64,70
115.22716,115.624886,52,64,70
115.6817,115.88246,53,64,70
116.136246,116.337006,55,64,70
116.59079,116.81806,58,64,70
116.81806,117.045334,57,64,70
117.045334,117.27261,55,64,70
117.27261,117.47147,57,64,70
117.499886,117.84079,58,64,70
117.84079,117.95443,60,64,70
117.95443,118.295334,57,64,70
118.295334,118.39477,58,64,70
118.40897,118.50935,55,64,70
118.636246,118.736626,48,64,70
118.86352,118.9639,50,64,70
119.09079,119.19117,52,64,70
119.31806,119.545334,53,64,70
119.545334,119.772606,55,64,70
119.772606,119.99988,57,64,70
119.99988,120.198746,53,64,70
120.22715,120.62488,58,64,70
120.681694,121.07942,46,64,70
121.136246,122.84079,58,64,70
122.95442,123.181694,57,64,70
123.181694,123.408966,55,64,70
123.408966,123.63624,53,64,70
123.63624,123.835106,55,64,70
123.86351,124.06427,57,64,70
124.318054,124.518814,58,64,70
124.772606,124.97336,60,64,70
125.22715,125.4279,48,64,70
125.681694,126.07942,53,64,70
128.63623,128.73662,57,64,70
128.86351,128.96388,55,64,70
129.09077,129.19116,53,64,70
129.31805,129.51881,52,64,70
130.45442,130.5548,58,64,70
130.68169,130.78206,57,64,70
130.90897,131.00934,55,64,70
131.13623,131.33699,53,64,70
132.2726,132.37297,53,64,70
132.49986,132.60025,60,64,70
132.72714,132.82751,53,64,70
132.9544,133.15517,46,64,70
133.40895,133.60971,62,64,70
133.8635,134.06425,52,64,70
134.7726,134.88623,53,64,70
134.88623,134.99986,55,64,70
134.99986,135.1135,57,64,70
135.1135,135.21294,59,64,70
135.22714,135.34077,60,64,70
135.34077,135.4544,59,64,70
135.4544,135.56804,60,64,70
135.56804,135.66748,59,64,70
135.68169,135.79532,60,64,70
135.79532,135.90895,59,64,70
135.90895,136.0226,60,64,70
136.0226,136.12202,59,64,70
136.13623,136.24986,60,64,70
136.24986,136.3635,59,64,70
136.3635,136.47714,60,64,70
136.47714,136.57657,59,64,70
136.59077,136.7044,60,64,70
136.7044,136.81804,59,64,70
136.81804,136.93169,60,64,70
136.93169,137.03111,59,64,70
137.04532,137.15895,60,64,70
137.15895,137.27258,59,64,70
137.27258,137.38623,60,64,70
137.38623,137.48566,59,64,70
137.49986,137.6135,60,64,70
137.6135,137.72714,59,64,70
137.72714,137.84077,60,64,70
137.84077,137.9402,59,64,70
137.9544,138.06804,60,64,70
138.06804,138.18169,59,64,70
138.18169,138.29532,60,64,70
138.29532,138.39474,59,64,70
138.40895,138.52258,60,64,70
138.52258,138.63623,59,64,70
138.63623,138.74986,60,64,70
138.74986,138.84929,59,64,70
138.8635,138.97713,60,64,70
138.97713,139.09077,59,64,70
139.09077,139.2044,60,64,70
139.2044,139.30383,59,64,70
139.31804,139.43167,60,64,70
139.43167,139.54532,59,64,70
139.54532,139.65895,60,64,70
139.65895,139.75838,59,64,70
139.77258,139.88623,60,64,70
139.88623,139.99986,57,64,70
139.99986,140.1135,55,64,70
140.1135,140.21292,53,64,70
140.22713,140.32657,46,64,70
140.34077,140.4402,48,64,70
140.4544,140.55383,50,64,70
140.56804,140.66748,52,64,70
140.68167,140.78111,53,64,70
140.79532,140.89474,55,64,70
140.90895,141.00838,57,64,70
141.02258,141.12202,58,64,70
141.13622,141.23566,48,64,70
141.24986,141.34929,50,64,70
141.3635,141.46292,52,64,70
141.47713,141.57657,53,64,70
141.59077,141.6902,55,64,70
141.7044,141.80383,57,64,70
141.81804,141.91747,58,64,70
141.93167,142.03111,60,64,70
142.04532,142.44304,53,64,70
142.72713,142.82751,53,64,70
142.9544,143.05478,48,64,70
143.18167,143.28206,48,64,70
143.40895,143.50932,48,64,70
143.63622,143.7366,48,64,70
143.8635,144.06425,41,64,70
144.5453,144.64569,53,64,70
144.77258,144.87296,48,64,70
144.99985,145.10023,48,64,70
145.22713,145.3275,48,64,70
145.4544,145.55478,48,64,70
145.68167,145.88243,41,64,70
146.3635,146.46387,53,64,70
146.59076,146.69115,48,64,70
146.81804,146.91841,48,64,70
147.0453,147.14569,48,64,70
147.27258,147.37296,48,64,70
147.49985,147.89758,41,64,70
147.95439,148.25269,41,64,70
148.2953,148.39474,41,64,70
148.40894,148.80667,41,64,70
149.31804,150.22713,53,64,70
150.22713,151.02258,52,64,70
151.13622,152.0453,53,64,70
152.0453,152.84076,57,64,70
152.95439,153.86348,58,64,70
153.86348,154.65894,55,64,70
154.77257,155.68166,52,64,70
155.68166,156.47711,53,64,70
156.59076,157.49985,57,64,70
157.49985,158.2953,55,64,70
158.40894,159.31802,53,64,70
159.31802,160.11348,52,64,70
160.22711,160.68166,53,64,70
160.68166,161.1362,57,64,70
161.1362,161.59074,55,64,70
161.59074,161.98848,52,64,70
162.04529,162.49983,53,64,70
162.49983,162.89757,57,64,70
162.95438,164.65892,60,64,70
164.77257,166.47711,58,64,70
166.59074,167.3862,57,64,70
167.49983,167.70059,58,64,70
167.95438,168.15514,58,64,70
168.40892,168.60968,60,64,70
168.86346,169.06422,60,64,70
169.31801,169.51877,53,64,70
174.77255,177.38618,67,64,70
177.49982,178.29527,64,64,70
178.4089,179.20436,65,64,70
179.31801,181.02255,62,64,70
181.13618,181.59073,60,64,70
181.59073,181.98845,58,64,70
182.04527,183.63618,56,64,70
183.86345,184.26118,55,64,70
186.13618,186.58788,43,64,70
186.59073,187.04242,48,64,70
187.04527,187.4714,51,64,70
187.49982,187.70058,55,64,70
189.77254,190.22424,43,64,70
190.22708,190.67879,48,64,70
190.68163,191.10776,51,64,70
191.13617,191.33693,55,64,70
193.4089,193.50928,58,64,70
193.63617,193.73654,58,64,70
193.86345,194.0642,58,64,70
194.318,194.41837,58,64,70
194.54526,194.64565,58,64,70
194.77254,194.9733,51,64,70
196.59071,198.18163,43,64,70
198.40889,199.9998,44,64,70
200.22707,200.6248,46,64,70
201.13617,201.53389,46,64,70
202.04526,202.44298,51,64,70
202.95435,203.35207,51,64,70
203.86343,205.45435,55,64,70
205.68161,206.36343,56,64,70
206.36343,206.56229,58,64,70
206.5907,206.79146,60,64,70
207.04524,207.246,60,64,70
207.49979,209.31798,50,64,70
209.31798,209.7157,51,64,70
211.5907,211.98842,58,64,70
212.04524,212.44296,46,64,70
212.49979,212.89752,46,64,70
212.95433,213.35207,51,64,70
215.22705,215.62479,58,64,70
215.68161,216.07933,46,64,70
216.13615,216.53387,46,64,70
216.5907,216.98842,51,64,70
218.63614,218.73653,51,64,70
218.86342,218.96379,51,64,70
219.09068,219.19107,51,64,70
219.31796,219.41833,51,64,70
219.54524,219.64561,51,64,70
219.7725,219.87288,51,64,70
219.99979,220.10016,51,64,70
220.22705,220.62479,44,64,70
221.13614,221.53387,44,64,70
222.04523,222.2441,44,64,70
223.86342,224.26114,46,64,70
224.7725,225.17023,46,64,70
225.6816,225.78197,46,64,70
225.90886,226.00925,46,64,70
226.13614,226.23651,46,64,70
226.3634,226.46379,46,64,70
226.59068,226.69106,46,64,70
226.81795,226.91833,46,64,70
227.04523,227.1456,46,64,70
227.2725,227.37288,46,64,70
227.49977,227.60016,46,64,70
227.72705,227.82742,46,64,70
227.95432,228.0547,46,64,70
228.1816,228.28197,46,64,70
228.40886,228.50925,46,64,70
228.63614,228.73651,46,64,70
228.8634,228.96379,46,64,70
229.09068,229.19106,46,64,70
229.31795,229.41833,39,64,70
229.54523,229.6456,51,64,70
229.77249,229.87288,55,64,70
229.99977,230.10014,58,64,70
230.22704,230.34068,63,64,70
230.34068,230.45432,62,64,70
230.45432,230.56795,60,64,70
230.56795,230.66739,58,64,70
230.6816,230.78102,56,64,70
230.79523,230.89465,55,64,70
230.90886,231.00829,53,64,70
231.02249,231.12193,51,64,70
231.13614,231.33499,46,64,70
231.3634,231.46379,58,64,70
231.59068,231.69106,58,64,70
231.81795,231.91833,58,64,70
232.04523,232.15886,58,64,70
232.15886,232.27249,57,64,70
232.27249,232.38612,58,64,70
232.38612,232.48557,60,64,70
232.49977,232.5992,58,64,70
232.6134,232.71283,56,64,70
232.72704,232.82648,55,64,70
232.84068,232.94011,53,64,70
232.95432,233.18158,51,64,70
233.18158,233.29523,53,64,70
233.29523,233.40886,55,64,70
233.40886,233.52249,56,64,70
233.52249,233.63612,58,64,70
233.63612,233.74977,60,64,70
233.74977,233.8492,62,64,70
233.8634,233.96378,63,64,70
234.09067,234.19106,58,64,70
234.31795,234.41832,55,64,70
234.54523,234.6456,51,64,70
234.77249,234.88612,53,64,70
234.88612,234.99977,51,64,70
234.99977,235.1134,50,64,70
235.1134,235.21283,51,64,70
235.22704,235.32646,53,64,70
235.34067,235.44011,55,64,70
235.45432,235.55374,56,64,70
235.56795,235.66737,53,64,70
235.68158,235.88045,55,64,70
235.90886,236.00829,50,64,70
236.02249,236.12192,51,64,70
236.13612,236.24977,55,64,70
236.24977,236.3492,53,64,70
236.3634,236.46283,51,64,70
236.47704,236.57646,50,64,70
236.59067,236.69106,48,64,70
236.81795,236.91832,51,64,70
237.04521,237.1456,55,64,70
237.27249,237.37286,51,64,70
237.49976,237.60014,48,64,70
237.72704,237.82741,51,64,70
237.9543,238.05469,55,64,70
238.18158,238.28195,51,64,70
238.40886,238.50923,48,64,70
238.63612,238.73651,51,64,70
238.8634,238.96378,55,64,70
239.09067,239.19106,60,64,70
239.31795,239.41832,63,64,70
239.54521,239.6456,62,64,70
239.77249,239.87286,60,64,70
239.99976,240.10014,58,64,70
240.22704,240.32741,57,64,70
240.4543,240.55469,60,64,70
240.68158,240.78195,63,64,70
240.90884,241.00923,62,64,70
241.13612,241.2365,60,64,70
241.36339,241.46378,63,64,70
241.59067,241.69104,57,64,70
241.81795,241.91832,60,64,70
242.04521,242.14558,54,64,70
242.27249,242.37286,57,64,70
242.49976,242.60014,60,64,70
242.72704,242.82741,57,64,70
242.9543,243.05469,54,64,70
243.18158,243.28195,57,64,70
243.40884,243.50923,50,64,70
243.63612,243.7365,54,64,70
243.86339,244.26112,55,64,70
244.77248,244.97324,58,64,70
245.68158,245.88232,57,64,70
246.59067,246.79141,61,64,70
247.49976,247.70052,62,64,70
248.40884,248.6096,53,64,70
249.31793,249.51869,55,64,70
250.22702,250.42778,43,64,70
251.13611,251.33498,45,64,70
251.36339,251.56226,45,64,70
251.59065,251.78952,45,64,70
251.81793,252.0168,45,64,70
252.0452,253.15315,45,64,70
253.18156,253.38043,45,64,70
253.40884,253.6077,45,64,70
253.63611,253.83498,45,64,70
253.86339,254.76964,45,64,70
254.77248,255.1702,45,64,70
255.22702,255.68156,61,64,70
255.68156,256.07928,62,64,70
256.59067,256.7914,45,64,70
257.0452,257.49976,61,64,70
257.49976,257.89746,62,64,70
258.40884,258.6096,45,64,70
260.22702,261.1361,50,64,70
261.1361,261.93155,52,64,70
262.0452,262.95428,53,64,70
262.95428,263.74973,54,64,70
263.86337,264.77246,55,64,70
264.77246,265.5679,52,64,70
265.68155,266.59064,49,64,70
266.59064,267.3861,50,64,70
267.49973,268.4088,52,64,70
268.4088,269.20428,55,64,70
269.3179,269.77246,53,64,70
269.77246,270.227,62,64,70
270.227,270.68155,61,64,70
270.68155,271.07928,64,64,70
271.13608,271.59064,62,64,70
271.59064,272.0452,65,64,70
272.0452,272.49973,64,64,70
272.49973,272.89746,61,64,70
272.95428,273.74973,62,64,70
273.86337,274.6588,50,64,70
274.77246,275.68155,55,64,70
275.68155,276.13608,53,64,70
276.13608,276.5338,52,64,70
276.59064,277.49973,50,64,70
277.49973,277.95425,52,64,70
277.95425,278.352,53,64,70
278.4088,278.80655,55,64,70
278.86334,279.26108,43,64,70
279.3179,279.71564,45,64,70
279.77246,280.17017,45,64,70
280.227,280.62473,38,64,70
281.13608,281.33685,50,64,70
282.04517,282.24594,55,64,70
282.95425,283.15503,52,64,70
283.86334,284.06412,53,64,70
284.77243,284.9732,57,64,70
285.68152,285.8823,58,64,70
286.59064,286.79138,52,64,70
287.04517,287.2459,57,64,70
287.49973,287.70047,62,64,70
294.77243,294.87186,62,64,70
294.88608,294.9855,64,64,70
294.9997,295.09915,65,64,70
295.11334,295.21277,64,64,70
295.227,295.32642,62,64,70
295.3406,295.44003,60,64,70
295.45425,295.55368,58,64,70
295.56787,295.66733,57,64,70
295.68152,295.78094,55,64,70
295.79517,295.8946,53,64,70
295.90878,296.00824,52,64,70
296.02243,296.12186,50,64,70
296.13608,296.2355,49,64,70
296.2497,296.34912,50,64,70
296.36334,296.46277,53,64,70
296.477,296.57642,50,64,70
296.5906,296.7895,45,64,70
296.81787,296.91733,47,64,70
296.93152,297.03094,49,64,70
297.04517,297.1446,50,64,70
297.15878,297.25824,52,64,70
297.27243,297.37186,53,64,70
297.38608,297.4855,55,64,70
297.4997,297.59912,57,64,70
297.61334,297.71277,58,64,70
297.727,297.82642,57,64,70
297.8406,297.94003,56,64,70
297.95425,298.05368,57,64,70
298.06787,298.16733,55,64,70
298.18152,298.28094,53,64,70
298.29517,298.3946,52,64,70
298.40878,298.63608,50,64,70
298.63608,298.7497,52,64,70
298.7497,298.86334,53,64,70
298.86334,298.97696,55,64,70
298.97696,299.0906,57,64,70
299.0906,299.20425,59,64,70
299.20425,299.30368,61,64,70
299.31787,299.41827,62,64,70
299.54517,299.64554,57,64,70
299.77243,299.8728,53,64,70
299.9997,300.10007,50,64,70
300.22696,300.32736,52,64,70
300.45425,300.55463,57,64,70
300.68152,300.7819,61,64,70
300.90878,301.00916,57,64,70
301.13605,301.23645,64,64,70
301.36334,301.4637,57,64,70
301.5906,301.69098,61,64,70
301.81787,301.91827,57,64,70
302.04517,302.24402,62,64,70
302.27243,302.37186,60,64,70
302.38605,302.4855,58,64,70
302.4997,302.59912,57,64,70
302.61334,302.71277,55,64,70
302.72696,302.82642,53,64,70
302.8406,302.94003,52,64,70
302.95425,303.05368,50,64,70
303.06787,303.1673,52,64,70
303.18152,303.28094,53,64,70
303.29517,303.3946,55,64,70
303.40878,303.5082,57,64,70
303.52243,303.62186,59,64,70
303.63605,303.7355,61,64,70
303.7497,303.84912,62,64,70
303.86334,303.9637,60,64,70
304.0906,304.19098,57,64,70
304.31787,304.41824,54,64,70
304.54514,304.64554,50,64,70
304.77243,304.8728,48,64,70
304.9997,305.10007,45,64,70
305.22696,305.32733,50,64,70
305.45425,305.55463,48,64,70
305.68152,305.88037,46,64,70
305.90878,306.10764,55,64,70
306.13605,306.33493,55,64,70
306.36334,306.5622,55,64,70
306.5906,306.78946,55,64,70
306.81787,307.01672,55,64,70
307.04514,307.24402,55,64,70
307.27243,307.47128,55,64,70
307.4997,307.69855,57,64,70
307.72696,307.92584,57,64,70
307.95422,308.1531,57,64,70
308.18152,308.38037,57,64,70
308.40878,308.60764,57,64,70
308.63605,308.83493,57,64,70
308.86334,309.0622,57,64,70
309.0906,309.28946,57,64,70
309.31787,309.51672,45,64,70
309.54514,309.74402,45,64,70
309.77243,309.97128,45,64,70
309.9997,310.19855,45,64,70
310.22696,310.4258,45,64,70
310.45422,310.6531,45,64,70
310.68152,310.88037,45,64,70
310.90878,311.10764,45,64,70
311.13605,311.53378,50,64,70
314.0906,314.19098,65,64,70
314.31787,314.41824,64,64,70
314.54514,314.6455,62,64,70
314.7724,314.97318,61,64,70
315.90878,316.00916,67,64,70
316.13605,316.23642,65,64,70
316.3633,316.46368,64,64,70
316.5906,316.79135,62,64,70
317.72696,317.82733,62,64,70
317.95422,318.0546,61,64,70
318.1815,318.2819,62,64,70
318.40878,318.60953,55,64,70
319.31787,319.51862,57,64,70
320.22696,320.34058,50,64,70
320.34058,320.45422,52,64,70
320.45422,320.56787,53,64,70
320.56787,320.6673,55,64,70
320.6815,320.88037,57,64,70
320.90878,321.0224,57,64,70
321.0224,321.12183,58,64,70
321.13605,321.3349,57,64,70
321.3633,321.47696,57,64,70
321.47696,321.5764,58,64,70
321.59058,321.78946,57,64,70
321.81787,321.9315,57,64,70
321.9315,322.0309,58,64,70
322.04514,322.244,57,64,70
322.2724,322.38605,57,64,70
322.38605,322.48547,58,64,70
322.49966,322.69855,57,64,70
322.72696,322.84058,57,64,70
322.84058,322.94003,58,64,70
322.95422,323.15308,57,64,70
323.1815,323.29514,57,64,70
323.29514,323.39456,58,64,70
323.40875,323.60764,57,64,70
323.63605,323.74966,57,64,70
323.74966,323.84912,58,64,70
323.8633,324.06216,57,64,70
324.09058,324.20422,57,64,70
324.20422,324.30365,58,64,70
324.31787,324.51672,57,64,70
324.54514,324.65875,57,64,70
324.65875,324.7582,58,64,70
324.7724,324.97125,57,64,70
324.99966,325.1133,57,64,70
325.1133,325.21274,58,64,70
325.22696,325.34058,57,64,70
325.34058,325.45422,55,64,70
325.45422,325.56787,53,64,70
325.56787,325.6673,57,64,70
325.6815,325.7809,58,64,70
325.79514,325.89456,60,64,70
325.90875,326.0082,58,64,70
326.0224,326.12183,57,64,70
326.13605,326.23547,55,64,70
326.24966,326.3491,53,64,70
326.3633,326.46274,52,64,70
326.47696,326.5764,50,64,70
326.59058,326.69,49,64,70
326.70422,326.80365,47,64,70
326.81784,326.9173,45,64,70
326.9315,327.0309,47,64,70
327.04514,327.14456,49,64,70
327.15875,327.2582,50,64,70
327.2724,327.37183,52,64,70
327.38605,327.48547,49,64,70
327.49966,327.69855,50,64,70
327.72696,327.9258,38,64,70
327.95422,328.15308,38,64,70
328.1815,328.38034,38,64,70
328.40875,329.51672,38,64,70
329.54514,329.744,38,64,70
329.7724,329.97125,38,64,70
329.99966,330.19855,38,64,70
330.22693,331.3349,38,64,70
331.3633,331.56216,38,64,70
331.59058,331.78943,38,64,70
331.81784,332.01672,38,64,70
332.04514,333.35193,38,64,70
333.40875,333.70706,50,64,70
333.74966,333.8491,50,64,70
333.8633,334.26102,38,64,70
334.31784,334.3188,58,64,70
