start_time,end_time,note_value,velocity,instrument_program_number
7.27272,7.373099,81,64,73
7.4999924,7.6003714,81,64,73
7.727265,7.827644,81,64,73
7.9545374,8.068173,81,64,73
8.068173,8.18181,82,64,73
8.18181,8.295446,81,64,73
8.295446,8.394878,80,64,73
8.409082,8.509461,81,64,73
8.636355,8.736733,81,64,73
8.863627,8.977263,81,64,73
8.977263,9.0909,82,64,73
9.0909,9.204536,81,64,73
9.204536,9.303968,80,64,73
9.318172,9.418551,81,64,73
9.545445,9.6458235,81,64,73
9.772717,9.873096,79,64,73
9.99999,10.1003685,79,64,73
10.2272625,10.454535,79,64,73
10.454535,10.6533985,77,64,73
10.6818075,10.7821865,76,64,73
10.90908,11.009459,81,64,73
11.136353,11.236732,74,64,73
11.363625,11.464004,74,64,73
11.590898,11.704534,74,64,73
11.704534,11.81817,76,64,73
11.81817,11.931807,77,64,73
11.931807,12.031238,74,64,73
12.045443,12.145822,76,64,73
12.272715,12.373094,76,64,73
12.499988,12.613624,76,64,73
12.613624,12.72726,77,64,73
12.72726,12.840897,79,64,73
12.840897,12.940328,80,64,73
12.954533,13.068169,81,64,73
13.068169,13.181805,82,64,73
13.181805,13.281237,81,64,73
13.295442,13.344684,77,64,73
13.409078,13.522714,81,64,73
13.522714,13.622146,79,64,73
13.63635,13.735782,77,64,73
13.749987,13.849418,76,64,73
13.863623,14.062486,74,64,73
17.954527,18.068163,78,64,73
18.068163,18.1818,79,64,73
18.1818,18.295437,81,64,73
18.295437,18.394869,78,64,73
18.409073,18.50945,79,64,73
18.636345,18.736723,79,64,73
18.863617,18.963997,81,64,73
19.09089,19.191269,81,64,73
19.318163,19.659071,82,64,73
19.659071,19.758503,79,64,73
19.772707,20.426115,75,64,73
20.454525,20.554903,74,64,73
20.681797,20.782177,74,64,73
20.90907,21.009449,74,64,73
21.136343,21.363615,77,64,73
21.363615,21.562479,75,64,73
21.590887,22.244295,75,64,73
22.272705,22.373083,77,64,73
22.499977,22.600357,77,64,73
22.72725,22.82763,77,64,73
22.954523,23.181795,80,64,73
23.181795,23.38066,79,64,73
23.409067,24.062475,79,64,73
24.090885,24.191263,74,64,73
24.318157,24.418537,74,64,73
24.54543,24.64581,74,64,73
24.772703,24.999975,77,64,73
24.999975,25.19884,75,64,73
25.227247,25.880655,75,64,73
25.909065,26.009443,75,64,73
26.136337,26.236715,75,64,73
26.36361,26.46399,75,64,73
26.590883,27.698835,75,64,73
27.727245,27.827623,82,64,73
27.954517,28.054895,82,64,73
28.18179,28.28217,82,64,73
28.409063,28.80679,82,64,73
28.863607,29.71588,79,64,73
29.772697,30.62497,77,64,73
30.681787,31.335196,75,64,73
31.363605,31.463984,72,64,73
31.590878,31.691256,74,64,73
31.81815,31.91853,75,64,73
32.04542,32.1458,74,64,73
32.272694,32.499966,78,64,73
32.499966,32.69883,79,64,73
32.72724,32.827618,75,64,73
32.954514,33.153378,74,64,73
34.999966,35.07572,80,64,73
35.07572,35.15148,79,64,73
35.15148,35.21777,78,64,73
35.227238,35.327618,79,64,73
35.45451,35.55489,82,64,73
35.68178,36.136326,87,64,73
36.136326,36.534054,86,64,73
36.590874,36.69125,85,64,73
36.818146,36.917576,76,64,73
36.93178,37.03121,77,64,73
37.045418,37.159054,81,64,73
37.159054,37.258484,79,64,73
37.27269,37.37212,77,64,73
37.386326,37.48576,76,64,73
37.49996,37.613598,79,64,73
37.613598,37.71303,77,64,73
37.727234,37.826668,76,64,73
37.84087,37.940304,77,64,73
37.954506,38.068142,82,64,73
38.068142,38.167576,81,64,73
38.18178,38.28121,79,64,73
38.295418,38.394848,77,64,73
38.409054,38.52269,77,64,73
38.52269,38.62212,76,64,73
38.636326,38.735756,74,64,73
38.74996,38.849392,76,64,73
38.863598,38.977234,81,64,73
38.977234,39.076664,79,64,73
39.09087,39.1903,77,64,73
39.204506,39.30394,76,64,73
39.318142,39.431778,76,64,73
39.431778,39.53121,74,64,73
39.545414,39.644848,73,64,73
39.65905,39.758484,74,64,73
39.772686,39.886322,79,64,73
39.886322,39.985756,77,64,73
39.99996,40.099392,76,64,73
40.113598,40.213028,74,64,73
40.227234,40.32761,73,64,73
40.454506,40.554882,69,64,73
40.681778,41.53405,81,64,73
41.590866,41.988594,80,64,73
42.045414,42.14579,81,64,73
42.272686,42.373062,69,64,73
42.499958,43.35223,81,64,73
43.409046,43.522682,81,64,73
43.522682,43.63632,80,64,73
43.63632,43.749958,78,64,73
43.749958,43.84939,80,64,73
43.863594,43.96397,81,64,73
44.31814,44.418518,81,64,73
44.54541,44.64579,81,64,73
44.772682,44.873062,81,64,73
45.227226,45.327606,81,64,73
45.4545,45.55488,81,64,73
45.681774,45.78215,81,64,73
55.909035,56.136307,77,64,73
56.136307,56.36358,76,64,73
56.36358,56.562443,75,64,73
56.59085,56.69123,74,64,73
56.818127,56.918503,77,64,73
57.0454,57.145775,82,64,73
57.727215,57.954487,77,64,73
57.954487,58.18176,76,64,73
58.18176,58.380623,75,64,73
58.40903,58.50941,74,64,73
58.636307,58.736683,77,64,73
58.86358,58.963955,82,64,73
65.681755,66.59084,81,64,73
66.59084,67.3863,82,64,73
67.49993,67.954475,84,64,73
67.954475,68.40902,78,64,73
68.40902,68.80675,79,64,73
68.86357,69.06432,82,64,73
69.43175,69.53118,78,64,73
69.54539,69.64481,81,64,73
69.65902,69.75845,79,64,73
69.77266,69.872086,78,64,73
69.88629,69.985725,75,64,73
69.99993,70.099365,74,64,73
70.11356,70.213,72,64,73
70.2272,70.32664,70,64,73
70.340836,70.44027,74,64,73
70.454475,70.55391,76,64,73
70.56811,70.66754,78,64,73
70.68175,70.78118,79,64,73
70.79539,70.89481,81,64,73
70.90902,71.00845,82,64,73
71.02266,71.122086,85,64,73
71.13629,71.33705,86,64,73
74.090836,74.191216,81,64,73
74.31811,74.54538,81,64,73
74.54538,74.65902,82,64,73
74.65902,74.758446,84,64,73
74.77265,74.97341,86,64,73
75.227196,75.427956,82,64,73
75.90901,76.00939,79,64,73
76.136284,76.36356,79,64,73
76.36356,76.477196,81,64,73
76.477196,76.57663,82,64,73
76.590836,76.79159,84,64,73
77.04538,77.24613,81,64,73
77.727196,77.827576,78,64,73
77.95447,78.18174,78,64,73
78.18174,78.29538,79,64,73
78.29538,78.394806,81,64,73
78.40901,78.60977,82,64,73
79.54537,79.64575,79,64,73
79.772644,79.873024,79,64,73
79.99992,80.100296,79,64,73
80.227196,81.136284,80,64,73
81.136284,81.59083,79,64,73
81.59083,81.988556,78,64,73
82.04537,82.386284,86,64,73
82.386284,82.48571,82,64,73
82.499916,82.698784,79,64,73
83.18173,83.28211,79,64,73
83.409004,83.509384,79,64,73
83.63628,83.73666,79,64,73
83.863556,84.772644,80,64,73
84.772644,85.22719,79,64,73
85.22719,85.624916,78,64,73
85.68173,85.88249,79,64,73
86.81809,86.91847,81,64,73
87.045364,87.145744,81,64,73
87.27264,87.37302,81,64,73
87.499916,87.70067,81,64,73
88.63628,88.73666,81,64,73
88.86355,88.96393,81,64,73
89.09082,89.1912,81,64,73
89.31809,89.51885,81,64,73
90.22718,91.732864,79,64,73
91.81809,91.91847,77,64,73
92.045364,92.64195,77,64,73
92.72718,92.82756,75,64,73
92.95445,93.55104,75,64,73
93.63627,93.73665,74,64,73
93.86354,94.318085,79,64,73
94.318085,94.71581,82,64,73
94.77263,95.568085,86,64,73
95.681725,96.07945,87,64,73
99.54536,99.64574,79,64,73
99.77263,99.87301,79,64,73
99.9999,100.10028,79,64,73
100.22717,101.13626,81,64,73
101.13626,101.53399,82,64,73
101.81808,101.91846,82,64,73
102.04535,102.27263,82,64,73
102.27263,102.47149,81,64,73
102.4999,102.69876,79,64,73
102.72717,102.92603,78,64,73
102.954445,103.40899,79,64,73
103.40899,103.80672,82,64,73
103.86353,104.77262,86,64,73
104.77262,105.17035,87,64,73
108.63625,108.73663,79,64,73
108.863525,108.963905,79,64,73
109.0908,109.19118,79,64,73
109.31807,110.227165,81,64,73
110.227165,110.426025,79,64,73
110.90898,111.00936,82,64,73
111.13625,111.53398,81,64,73
111.5908,111.69118,79,64,73
111.81807,111.91845,78,64,73
112.04534,112.2461,79,64,73
112.72716,112.8408,75,64,73
112.8408,112.94023,73,64,73
112.95443,113.15519,74,64,73
113.63625,113.749886,75,64,73
113.749886,113.84932,73,64,73
113.863525,114.06428,74,64,73
114.54534,114.65897,75,64,73
114.65897,114.75841,73,64,73
114.77261,114.87205,74,64,73
114.886246,114.98568,78,64,73
114.999886,115.09932,81,64,73
115.11352,115.21295,79,64,73
115.22716,115.32659,78,64,73
115.3408,115.44022,75,64,73
115.45443,115.55386,74,64,73
115.56807,115.667496,72,64,73
115.6817,115.88246,70,64,73
116.36352,116.47716,75,64,73
116.47716,116.57659,73,64,73
116.59079,116.79155,74,64,73
117.27261,117.386246,75,64,73
117.386246,117.48568,73,64,73
117.499886,117.59931,74,64,73
117.61352,117.71295,78,64,73
117.72716,117.826584,81,64,73
117.84079,117.94022,79,64,73
117.95443,118.053856,78,64,73
118.06806,118.167496,75,64,73
118.1817,118.28113,74,64,73
118.295334,118.39477,72,64,73
118.40897,118.50841,70,64,73
118.522606,118.62204,74,64,73
118.636246,118.73568,79,64,73
118.74988,118.84931,82,64,73
118.86352,118.9639,81,64,73
119.09079,119.19117,78,64,73
119.31806,119.71579,79,64,73
121.81806,121.91844,79,64,73
122.045334,122.49988,79,64,73
122.49988,122.69874,81,64,73
122.72715,122.82753,82,64,73
122.95442,123.408966,74,64,73
123.408966,123.607834,73,64,73
124.54533,124.645706,86,64,73
124.772606,125.22715,86,64,73
125.22715,125.45442,85,64,73
125.45442,125.65328,84,64,73
125.681694,126.59078,82,64,73
126.59078,126.98851,81,64,73
134.54532,134.6457,77,64,73
134.7726,134.99986,82,64,73
134.99986,135.22714,80,64,73
135.22714,135.4544,77,64,73
135.4544,135.65327,74,64,73
135.68169,136.0226,75,64,73
136.0226,136.12202,79,64,73
136.13623,136.2366,70,64,73
136.3635,136.46388,70,64,73
136.59077,136.79153,79,64,73
139.77258,140.1135,77,64,73
140.1135,140.21292,74,64,73
140.22713,140.42789,82,64,73
143.40895,143.74986,75,64,73
143.74986,143.84929,70,64,73
143.8635,144.06425,79,64,73
145.22713,145.56804,84,64,73
145.56804,145.66747,81,64,73
145.68167,145.88243,87,64,73
146.59076,146.69115,74,64,73
146.81804,146.91841,70,64,73
147.0453,147.14569,69,64,73
147.27258,147.37296,72,64,73
147.49985,147.60023,70,64,73
147.72713,147.8275,74,64,73
147.95439,148.05478,69,64,73
148.18167,148.28204,72,64,73
148.40894,148.50932,70,64,73
148.63622,148.73659,74,64,73
148.8635,148.96387,72,64,73
149.09076,149.51689,77,64,73
149.5453,149.64569,70,64,73
149.77258,149.87296,69,64,73
149.99985,150.10023,65,64,73
150.45439,150.55478,77,64,73
150.68167,150.78204,74,64,73
150.90894,151.00932,82,64,73
151.36348,151.46387,75,64,73
151.59076,151.69113,69,64,73
151.81802,151.91841,81,64,73
152.0453,152.95439,82,64,73
152.95439,153.35211,81,64,73
157.49985,158.6078,82,64,73
158.6362,158.73659,80,64,73
158.86348,158.96385,79,64,73
159.09074,159.19113,77,64,73
159.31802,159.4184,75,64,73
159.54529,159.64568,79,64,73
159.77257,159.87294,74,64,73
159.99985,160.10022,77,64,73
160.22711,160.32748,75,64,73
160.45439,160.55476,79,64,73
160.68166,160.78204,74,64,73
160.90894,161.00931,77,64,73
161.1362,161.23659,75,64,73
161.36348,161.46385,79,64,73
161.59074,161.69113,77,64,73
161.81802,162.24416,70,64,73
162.27257,162.37294,75,64,73
162.49983,162.60022,74,64,73
162.72711,162.82748,77,64,73
162.95438,164.65892,70,64,73
164.77257,164.87294,75,64,73
164.99983,165.10022,79,64,73
165.22711,165.34074,80,64,73
165.34074,165.45438,79,64,73
165.45438,165.56802,77,64,73
165.56802,165.66745,75,64,73
165.68166,166.07938,74,64,73
168.18166,168.28203,83,64,73
168.40892,168.50931,84,64,73
168.6362,168.73657,84,64,73
168.86346,168.9771,84,64,73
168.9771,169.09074,86,64,73
169.09074,169.20438,84,64,73
169.20438,169.3038,83,64,73
169.31801,169.4184,84,64,73
169.54529,169.64566,84,64,73
169.77255,169.8862,84,64,73
169.8862,169.99983,86,64,73
169.99983,170.11346,84,64,73
170.11346,170.21289,83,64,73
170.2271,170.32748,84,64,73
170.45438,170.55475,84,64,73
170.68164,170.78203,82,64,73
170.90892,171.0093,82,64,73
171.1362,171.4771,81,64,73
171.4771,171.57654,84,64,73
171.59074,171.7896,77,64,73
171.81801,172.24414,77,64,73
172.27255,172.37294,74,64,73
172.49983,172.55664,75,64,73
172.55664,172.61346,74,64,73
172.61346,172.67029,75,64,73
172.67029,172.7271,74,64,73
172.7271,172.84073,72,64,73
172.84073,172.94017,74,64,73
172.95438,173.3521,75,64,73
175.90892,176.0093,82,64,73
176.13618,176.23657,82,64,73
176.36346,176.46384,82,64,73
176.81801,176.91838,79,64,73
177.04527,177.14566,79,64,73
177.27255,177.37292,79,64,73
177.7271,177.82747,82,64,73
177.95436,178.05475,82,64,73
178.18164,178.28201,82,64,73
178.63618,178.73656,79,64,73
178.86346,178.96384,79,64,73
179.09073,179.1911,79,64,73
179.54527,179.6589,76,64,73
179.6589,179.75835,73,64,73
179.77255,179.87292,69,64,73
179.99982,180.1002,79,64,73
180.2271,180.34073,77,64,73
180.34073,180.45436,74,64,73
180.45436,180.56801,69,64,73
180.56801,180.68164,74,64,73
180.68164,180.79527,77,64,73
180.79527,180.9089,81,64,73
180.9089,181.02255,79,64,73
181.02255,181.12198,77,64,73
181.13618,181.23656,76,64,73
181.36345,181.46384,81,64,73
181.818,181.91838,79,64,73
182.04527,182.1589,77,64,73
182.1589,182.27255,76,64,73
182.27255,182.38618,74,64,73
182.38618,182.49982,73,64,73
182.49982,182.61345,74,64,73
182.61345,182.7271,76,64,73
182.7271,182.82652,77,64,73
182.84073,182.88997,86,64,73
182.95436,183.15512,85,64,73
184.318,184.51875,86,64,73
184.77254,184.9733,85,64,73
186.13618,186.33693,86,64,73
186.59073,186.79147,85,64,73
191.13617,192.04526,74,64,73
192.04526,192.84071,73,64,73
192.95435,193.4089,74,64,73
193.4089,193.80663,72,64,73
193.86345,194.0642,70,64,73
194.9998,195.10019,73,64,73
195.22708,195.32745,73,64,73
195.45435,195.55473,73,64,73
195.68163,196.69109,74,64,73
197.04526,197.14563,79,64,73
197.4998,199.20435,76,64,73
199.31798,199.41837,74,64,73
199.77252,199.87291,81,64,73
200.22707,200.32745,73,64,73
200.68161,200.782,81,64,73
201.13617,201.59071,74,64,73
201.59071,202.04526,77,64,73
202.04526,202.95435,81,64,73
202.95435,203.15321,82,64,73
209.0907,209.28957,81,64,73
209.31798,209.54524,81,64,73
209.54524,209.74411,79,64,73
209.77252,209.8729,77,64,73
209.99979,210.10017,76,64,73
210.22707,210.62479,77,64,73
212.27252,212.34827,79,64,73
212.34827,212.42403,77,64,73
212.42403,212.49031,76,64,73
212.49979,212.60016,77,64,73
212.72707,212.82744,81,64,73
212.95433,213.40887,84,64,73
213.40887,213.60774,82,64,73
213.63615,213.73653,81,64,73
213.86342,214.31796,84,64,73
214.31796,214.51683,82,64,73
214.54524,214.64561,81,64,73
214.7725,214.99979,81,64,73
214.99979,215.19865,79,64,73
215.22705,215.45433,79,64,73
215.45433,215.6532,78,64,73
215.68161,215.90887,81,64,73
215.90887,216.10774,79,64,73
216.13615,216.78955,88,64,73
216.81796,217.04524,85,64,73
217.04524,217.2725,81,64,73
217.2725,217.47137,79,64,73
217.49979,217.69864,77,64,73
217.72705,217.80281,79,64,73
217.80281,217.87857,77,64,73
217.87857,217.94485,76,64,73
217.95433,218.0547,77,64,73
218.1816,218.28198,81,64,73
218.40887,218.63614,81,64,73
218.63614,218.835,79,64,73
218.86342,218.96379,77,64,73
219.09068,219.19107,76,64,73
219.31796,219.71568,74,64,73
219.99979,220.11342,82,64,73
220.11342,220.21284,80,64,73
220.22705,220.42781,81,64,73
220.90887,221.0225,82,64,73
221.0225,221.12193,80,64,73
221.13614,221.3369,81,64,73
221.81796,221.9316,82,64,73
221.9316,222.03102,80,64,73
222.04523,222.14467,81,64,73
222.15887,222.2583,77,64,73
222.2725,222.37193,79,64,73
222.38614,222.48558,76,64,73
222.49977,222.59921,77,64,73
222.61342,222.71284,74,64,73
222.72705,222.82648,76,64,73
222.84068,222.94012,73,64,73
222.95432,223.0547,74,64,73
223.1816,223.29523,81,64,73
223.29523,223.39467,77,64,73
223.40887,223.50925,79,64,73
223.63614,223.73651,77,64,73
223.86342,223.96379,76,64,73
224.09068,224.20432,81,64,73
224.20432,224.30376,77,64,73
224.31796,224.41833,79,64,73
224.54523,224.64561,77,64,73
224.7725,224.87288,76,64,73
224.99977,225.11342,81,64,73
225.11342,225.21284,77,64,73
225.22705,225.32742,79,64,73
225.45432,225.5547,76,64,73
225.6816,225.78197,77,64,73
225.90886,226.00925,76,64,73
226.13614,226.23651,74,64,73
226.3634,226.46379,73,64,73
226.59068,226.69011,74,64,73
226.70432,226.80376,77,64,73
226.81795,226.91739,81,64,73
226.9316,227.03102,86,64,73
227.04523,227.14465,84,64,73
227.15886,227.2583,82,64,73
227.2725,227.37193,81,64,73
227.38614,227.48557,79,64,73
227.49977,227.6134,77,64,73
227.6134,227.72705,79,64,73
227.72705,227.84068,81,64,73
227.84068,227.94011,82,64,73
227.95432,228.05376,81,64,73
228.06795,228.16739,79,64,73
228.1816,228.28102,77,64,73
228.29523,228.39465,76,64,73
228.40886,228.5083,74,64,73
228.52249,228.62193,77,64,73
228.63614,228.73557,81,64,73
228.74977,228.8492,86,64,73
228.8634,228.96284,84,64,73
228.97705,229.07648,82,64,73
229.09068,229.19011,81,64,73
229.20432,229.30374,79,64,73
229.31795,229.4316,77,64,73
229.4316,229.54523,79,64,73
229.54523,229.65886,81,64,73
229.65886,229.75829,82,64,73
229.77249,229.87193,81,64,73
229.88614,229.98557,79,64,73
229.99977,230.0992,77,64,73
230.1134,230.21284,76,64,73
230.22704,230.32648,74,64,73
230.34068,230.44011,77,64,73
230.45432,230.55374,81,64,73
230.56795,230.66739,86,64,73
230.6816,230.78102,84,64,73
230.79523,230.89465,82,64,73
230.90886,231.00829,81,64,73
231.02249,231.12193,79,64,73
231.13614,231.24977,77,64,73
231.24977,231.3634,79,64,73
231.3634,231.47704,81,64,73
231.47704,231.57648,82,64,73
231.59068,231.69011,81,64,73
231.70432,231.80374,79,64,73
231.81795,231.91739,77,64,73
231.93158,232.03102,76,64,73
232.04523,232.1456,74,64,73
232.27249,232.37288,86,64,73
232.49977,232.60014,86,64,73
232.72704,232.82742,86,64,73
232.95432,233.35204,86,64,73
233.40886,233.80658,86,64,73
233.8634,234.26112,86,64,73
0.2272725,0.32765117,77,64,68
0.454545,0.5549237,74,64,68
0.6818175,0.78219616,73,64,68
0.90909,1.0094687,76,64,68
1.1363626,1.2367412,74,64,68
1.363635,1.4640137,77,64,68
1.5909075,1.6912862,73,64,68
1.81818,1.9185587,76,64,68
2.0454526,2.145831,74,64,68
2.272725,2.3731036,77,64,68
2.4999976,2.6003761,76,64,68
2.72727,3.153406,69,64,68
3.181815,3.2821937,74,64,68
3.4090874,3.5094662,73,64,68
3.63636,3.7367387,69,64,68
4.090905,4.1912837,69,64,68
4.3181777,4.418556,65,64,68
4.54545,4.6458287,74,64,68
4.999995,5.1003737,69,64,68
5.2272673,5.3276463,73,64,68
5.45454,5.554919,76,64,68
5.6818123,6.5909023,74,64,68
6.5909023,6.6912813,73,64,68
6.818175,6.918554,70,64,68
7.0454473,7.1458263,69,64,68
7.27272,7.373099,67,64,68
7.4999924,7.6003714,65,64,68
7.727265,7.827644,62,64,68
14.318168,14.431804,74,64,68
14.431804,14.54544,77,64,68
14.54544,14.659077,76,64,68
14.659077,14.758508,74,64,68
14.772713,14.873091,73,64,68
14.999985,15.100364,73,64,68
15.227258,15.327636,74,64,68
15.45453,15.554909,74,64,68
15.681803,16.36362,70,64,68
16.36362,16.562483,82,64,68
16.590893,16.818165,81,64,68
16.818165,17.017029,79,64,68
17.045437,17.102255,79,64,68
17.102255,17.159073,77,64,68
17.159073,17.215893,79,64,68
17.215893,17.27271,77,64,68
17.27271,17.471573,76,64,68
17.499983,17.60036,77,64,68
17.727255,17.827633,72,64,68
17.954527,18.054907,72,64,68
18.1818,18.282179,72,64,68
18.409073,18.50945,70,64,68
18.636345,18.736723,70,64,68
18.863617,18.963997,69,64,68
19.09089,19.191269,69,64,68
19.318163,19.418541,67,64,68
19.545435,19.645813,70,64,68
19.772707,19.873087,70,64,68
19.99998,20.100359,70,64,68
20.227253,20.525547,70,64,68
20.568161,20.667593,72,64,68
20.681797,20.782177,70,64,68
20.90907,21.009449,70,64,68
21.136343,21.236721,70,64,68
21.363615,21.463993,70,64,68
21.590887,21.691267,70,64,68
21.81816,21.91854,70,64,68
22.045433,22.343727,70,64,68
22.386341,22.485773,72,64,68
22.499977,22.600357,70,64,68
22.72725,22.82763,70,64,68
22.954523,23.054901,70,64,68
23.181795,23.282173,70,64,68
23.409067,23.509447,70,64,68
23.63634,23.73672,70,64,68
23.863613,24.161907,70,64,68
24.204521,24.303953,72,64,68
24.318157,24.418537,70,64,68
24.54543,24.64581,70,64,68
24.772703,25.17043,70,64,68
28.636335,28.736713,70,64,68
28.863607,28.963985,70,64,68
29.09088,29.19126,70,64,68
29.318153,31.022696,70,64,68
31.136332,31.931786,69,64,68
32.04542,32.1458,70,64,68
32.272694,32.499966,72,64,68
32.499966,32.69883,70,64,68
32.72724,32.827618,66,64,68
32.954514,33.153378,67,64,68
34.999966,35.10034,70,64,68
35.227238,35.327618,70,64,68
35.45451,35.55489,70,64,68
35.68178,36.136326,75,64,68
36.136326,36.534054,74,64,68
36.590874,36.789738,73,64,68
37.045418,37.159054,77,64,68
37.159054,37.258484,76,64,68
37.27269,37.37212,74,64,68
37.386326,37.48576,73,64,68
37.49996,37.613598,76,64,68
37.613598,37.71303,74,64,68
37.727234,37.826668,73,64,68
37.84087,37.940304,74,64,68
37.954506,38.068142,79,64,68
38.068142,38.167576,77,64,68
38.18178,38.28121,76,64,68
38.295418,38.394848,74,64,68
38.409054,38.863598,73,64,68
38.863598,39.261326,76,64,68
39.318142,39.431778,79,64,68
39.431778,39.53121,77,64,68
39.545414,39.644848,76,64,68
39.65905,39.758484,77,64,68
39.772686,39.886322,82,64,68
39.886322,39.985756,81,64,68
39.99996,40.099392,79,64,68
40.113598,40.213028,77,64,68
40.227234,40.32761,76,64,68
40.454506,40.554882,69,64,68
40.681778,40.782158,69,64,68
40.90905,41.00943,69,64,68
41.136322,41.931778,77,64,68
42.045414,42.499958,76,64,68
42.499958,42.897686,73,64,68
42.954502,43.863594,74,64,68
43.863594,43.96397,76,64,68
44.31814,44.418518,69,64,68
44.54541,44.64579,69,64,68
44.772682,44.873062,69,64,68
45.227226,45.327606,69,64,68
45.4545,45.55488,69,64,68
45.681774,45.78215,69,64,68
48.18177,48.28215,70,64,68
48.409042,48.509422,70,64,68
48.636314,48.736694,70,64,68
48.863586,48.977222,70,64,68
48.977222,49.09086,72,64,68
49.09086,49.204494,70,64,68
49.204494,49.30393,69,64,68
49.318134,49.41851,70,64,68
49.545406,49.645782,70,64,68
49.77268,49.886314,70,64,68
49.886314,49.99995,72,64,68
49.99995,50.113586,70,64,68
50.113586,50.213017,69,64,68
50.227222,50.327602,70,64,68
50.454494,50.554874,70,64,68
50.681767,50.782146,69,64,68
50.90904,51.00942,69,64,68
51.136314,51.23669,67,64,68
51.363586,51.463963,74,64,68
51.59086,51.789722,62,64,68
55.909035,56.136307,69,64,68
56.136307,56.36358,70,64,68
56.36358,56.562443,72,64,68
56.59085,56.69123,65,64,68
56.818127,56.918503,74,64,68
57.0454,57.145775,74,64,68
57.727215,57.92608,69,64,68
57.954487,58.15335,70,64,68
58.18176,58.380623,72,64,68
58.40903,58.50941,65,64,68
58.636307,58.736683,74,64,68
58.86358,58.963955,74,64,68
65.681755,67.599365,74,64,68
67.61357,67.713,78,64,68
67.7272,67.82664,81,64,68
67.84084,67.94027,79,64,68
67.954475,68.05391,78,64,68
68.068115,68.16755,75,64,68
68.18175,68.28118,74,64,68
68.29539,68.39482,72,64,68
68.40902,68.50845,70,64,68
68.52266,68.62209,74,64,68
68.63629,68.735725,79,64,68
68.74993,68.849365,77,64,68
68.86357,68.963,75,64,68
68.9772,69.07664,74,64,68
69.09084,69.19027,72,64,68
69.204475,69.30391,70,64,68
69.318115,69.41849,69,64,68
69.54539,69.943115,69,64,68
69.99993,70.42606,74,64,68
70.454475,70.8522,70,64,68
70.90902,71.0094,79,64,68
71.13629,71.33705,78,64,68
74.090836,74.191216,77,64,68
74.31811,74.41849,77,64,68
74.54538,74.64576,77,64,68
74.77265,75.11356,77,64,68
75.11356,75.21299,82,64,68
75.227196,75.327576,74,64,68
75.90901,76.00939,75,64,68
76.136284,76.236664,75,64,68
76.36356,76.463936,75,64,68
76.590836,76.93174,75,64,68
76.93174,77.03117,81,64,68
77.04538,77.14576,72,64,68
77.727196,77.827576,74,64,68
77.95447,78.05485,74,64,68
78.18174,78.28212,74,64,68
78.40901,78.50939,74,64,68
78.636284,78.736664,70,64,68
78.863556,78.963936,70,64,68
79.09083,79.19121,70,64,68
79.3181,80.68174,72,64,68
80.68174,81.136284,71,64,68
81.136284,81.59083,70,64,68
81.59083,81.988556,69,64,68
82.04537,82.14575,67,64,68
82.272644,82.373024,70,64,68
82.499916,82.600296,70,64,68
82.72719,82.82757,70,64,68
82.95446,84.3181,72,64,68
84.3181,84.772644,71,64,68
84.772644,85.22719,70,64,68
85.22719,85.624916,69,64,68
85.68173,85.88249,67,64,68
86.81809,86.91847,76,64,68
87.045364,87.145744,76,64,68
87.27264,87.37302,76,64,68
87.499916,87.70067,69,64,68
88.63628,88.73666,76,64,68
88.86355,88.96393,76,64,68
89.09082,89.1912,76,64,68
89.31809,89.51885,69,64,68
90.45445,90.53021,75,64,68
90.53021,90.60597,74,64,68
90.60597,90.67226,72,64,68
90.681725,90.782104,74,64,68
90.909,91.00938,77,64,68
91.13628,91.33514,75,64,68
91.36355,91.4393,74,64,68
91.4393,91.51506,72,64,68
91.51506,91.581345,71,64,68
91.59082,91.69119,72,64,68
91.81809,91.91847,75,64,68
92.045364,92.244225,74,64,68
92.27264,92.3484,72,64,68
92.3484,92.42415,70,64,68
92.42415,92.49044,69,64,68
92.49991,92.60029,70,64,68
92.72718,92.82756,74,64,68
92.95445,93.15331,72,64,68
93.181725,93.257484,70,64,68
93.257484,93.33324,69,64,68
93.33324,93.39953,67,64,68
93.409,93.50938,69,64,68
93.63627,93.73665,72,64,68
93.86354,94.09081,70,64,68
94.09081,94.54536,74,64,68
94.54536,94.744225,79,64,68
94.77263,96.07945,82,64,68
99.54536,99.64574,79,64,68
99.77263,99.87301,79,64,68
99.9999,100.10028,79,64,68
100.22717,101.13626,78,64,68
101.13626,101.53399,79,64,68
101.81808,101.91846,79,64,68
102.04535,102.27263,82,64,68
102.27263,102.47149,81,64,68
102.4999,102.69876,79,64,68
102.72717,102.92603,78,64,68
102.954445,103.86353,79,64,68
103.86353,104.97149,82,64,68
104.99989,105.11353,82,64,68
105.11353,105.21296,81,64,68
105.227165,105.327545,82,64,68
105.45444,105.55482,74,64,68
105.68171,106.13626,77,64,68
106.13626,106.33512,75,64,68
106.36353,106.463905,74,64,68
106.590805,107.04535,77,64,68
107.04535,107.24421,75,64,68
107.27262,107.373,74,64,68
107.49989,107.57565,74,64,68
107.57565,107.651405,75,64,68
107.651405,107.727165,74,64,68
107.727165,107.926025,72,64,68
107.95444,108.0302,72,64,68
108.0302,108.10595,74,64,68
108.10595,108.18171,72,64,68
108.18171,108.38058,71,64,68
108.40898,108.63625,74,64,68
108.63625,108.83512,72,64,68
108.863525,109.51694,84,64,68
109.54534,109.64572,81,64,68
109.77262,109.87299,78,64,68
109.99989,110.100266,72,64,68
110.227165,110.426025,70,64,68
110.45444,110.53019,72,64,68
110.53019,110.60595,70,64,68
110.60595,110.67224,69,64,68
110.68171,110.78209,70,64,68
110.90898,111.00936,74,64,68
111.13625,111.363525,74,64,68
111.363525,111.562386,72,64,68
111.5908,111.69118,70,64,68
111.81807,111.91845,69,64,68
112.04534,112.14572,67,64,68
112.27261,112.38625,74,64,68
112.38625,112.48568,70,64,68
112.499886,112.600266,72,64,68
112.72716,112.82754,70,64,68
112.95443,113.05481,69,64,68
113.1817,113.281136,74,64,68
113.29534,113.394775,70,64,68
113.40897,113.50935,72,64,68
113.63625,113.736626,70,64,68
113.863525,113.9639,69,64,68
114.0908,114.19022,74,64,68
114.20443,114.30386,70,64,68
114.31807,114.41845,72,64,68
114.54534,114.64572,70,64,68
114.77261,114.87299,69,64,68
115.90897,116.02261,74,64,68
116.02261,116.12204,70,64,68
116.136246,116.236626,72,64,68
116.36352,116.4639,70,64,68
116.59079,116.69117,69,64,68
116.81806,116.9317,74,64,68
116.9317,117.031136,70,64,68
117.045334,117.14571,72,64,68
117.27261,117.372986,70,64,68
117.499886,117.60026,69,64,68
118.636246,118.736626,74,64,68
118.86352,118.9639,74,64,68
119.09079,119.19117,74,64,68
119.31806,119.71579,74,64,68
123.63624,123.73662,82,64,68
123.86351,124.318054,82,64,68
124.318054,124.51692,81,64,68
124.54533,124.645706,79,64,68
124.772606,125.45442,79,64,68
125.45442,125.65328,78,64,68
125.681694,126.36351,79,64,68
126.36351,126.56237,77,64,68
126.59078,126.98851,76,64,68
130.90897,131.00934,74,64,68
131.13623,131.36351,77,64,68
131.36351,131.59077,75,64,68
131.59077,131.81805,70,64,68
131.81805,132.0169,67,64,68
132.04532,133.35214,63,64,68
133.40895,134.26123,65,64,68
134.31805,135.17032,70,64,68
135.22714,135.90895,70,64,68
135.90895,136.10782,67,64,68
136.13623,136.2366,67,64,68
136.3635,136.46388,67,64,68
136.59077,136.79153,63,64,68
141.59077,141.93167,74,64,68
141.93167,142.03111,70,64,68
142.04532,142.24606,77,64,68
144.31804,144.65895,75,64,68
144.65895,144.75838,74,64,68
144.77258,144.97334,72,64,68
146.13622,146.47713,77,64,68
146.47713,146.57655,75,64,68
146.59076,146.79152,74,64,68
152.72713,152.8275,72,64,68
152.95439,153.05476,72,64,68
153.18167,153.28204,72,64,68
153.40894,153.52257,72,64,68
153.52257,153.63622,74,64,68
153.63622,153.74985,72,64,68
153.74985,153.84927,71,64,68
153.86348,153.96387,72,64,68
154.09076,154.19113,72,64,68
154.31802,154.43167,72,64,68
154.43167,154.5453,74,64,68
154.5453,154.65894,72,64,68
154.65894,154.75836,71,64,68
154.77257,154.87296,72,64,68
154.99985,155.10022,72,64,68
155.22711,155.3275,70,64,68
155.45439,155.55476,70,64,68
155.68166,155.90894,70,64,68
155.90894,156.1078,69,64,68
156.1362,156.23659,67,64,68
156.36348,156.46385,72,64,68
156.59076,156.64757,74,64,68
156.64757,156.70439,72,64,68
156.70439,156.7612,74,64,68
156.7612,156.81802,72,64,68
156.81802,156.93166,71,64,68
156.93166,157.0311,72,64,68
157.0453,157.24416,77,64,68
157.27257,157.37296,75,64,68
157.49985,157.95439,75,64,68
157.95439,158.15324,74,64,68
158.18166,158.28204,77,64,68
158.40894,158.52257,78,64,68
158.52257,158.6362,79,64,68
158.6362,158.74985,80,64,68
158.74985,158.84927,77,64,68
158.86348,158.96385,75,64,68
159.09074,159.19113,74,64,68
159.31802,159.71574,75,64,68
161.1362,162.84074,70,64,68
163.18166,163.28203,75,64,68
163.40892,163.50931,70,64,68
163.6362,163.73657,67,64,68
164.09074,164.19112,74,64,68
164.31802,164.4184,79,64,68
164.54529,164.64568,74,64,68
164.99983,165.10022,74,64,68
165.22711,165.32748,75,64,68
165.45438,165.55476,72,64,68
165.68166,165.78203,67,64,68
165.90892,166.00931,71,64,68
166.1362,166.23657,74,64,68
166.36346,166.46385,72,64,68
166.59074,166.69112,71,64,68
166.81801,166.9184,74,64,68
167.04529,167.14566,72,64,68
167.27255,167.37294,75,64,68
167.49983,167.89755,71,64,68
167.95438,168.60779,79,64,68
168.6362,168.73657,76,64,68
168.86346,168.96385,77,64,68
169.09074,169.19112,72,64,68
169.31801,169.4184,67,64,68
169.54529,169.64566,70,64,68
169.77255,169.87294,68,64,68
169.99983,170.1002,65,64,68
170.2271,170.62483,64,64,68
170.90892,171.0093,76,64,68
171.1362,171.23657,77,64,68
171.36346,171.46384,77,64,68
171.59074,171.70438,77,64,68
171.70438,171.81801,79,64,68
171.81801,171.93164,77,64,68
171.93164,172.03108,75,64,68
172.04529,172.49983,74,64,68
172.49983,172.89755,77,64,68
172.95438,173.40892,75,64,68
173.40892,173.80664,79,64,68
173.86346,174.26118,79,64,68
174.31801,174.71573,76,64,68
174.77255,175.17027,69,64,68
175.2271,176.07938,74,64,68
176.59073,176.79149,74,64,68
177.49982,177.70058,70,64,68
178.4089,178.60966,67,64,68
179.31801,179.77255,64,64,68
179.77255,180.17027,73,64,68
180.2271,180.32747,74,64,68
180.68164,180.78201,69,64,68
181.13618,181.23656,76,64,68
181.59073,181.6911,73,64,68
182.04527,182.14565,74,64,68
182.49982,182.60019,77,64,68
182.95436,183.15512,76,64,68
184.318,184.51875,77,64,68
184.77254,184.9733,76,64,68
186.13618,186.33693,77,64,68
186.59073,186.79147,76,64,68
187.49982,187.60019,77,64,68
187.72708,187.82747,74,64,68
187.95436,188.05473,73,64,68
188.18163,188.28201,76,64,68
188.4089,188.50928,74,64,68
188.63617,188.73656,77,64,68
188.86345,188.96382,73,64,68
189.09071,189.1911,76,64,68
189.318,189.41837,74,64,68
189.54526,189.64565,77,64,68
189.77254,189.87291,76,64,68
189.99982,190.42595,69,64,68
190.45436,190.55473,74,64,68
190.68163,190.78201,73,64,68
190.9089,191.00928,69,64,68
191.36345,191.46382,69,64,68
191.59071,191.6911,69,64,68
191.818,191.91837,69,64,68
192.04526,192.95435,70,64,68
192.95435,193.7498,69,64,68
193.86345,194.0642,67,64,68
194.9998,195.10019,69,64,68
195.22708,195.32745,69,64,68
195.45435,195.55473,69,64,68
195.68163,196.47708,69,64,68
196.59071,196.69109,70,64,68
197.04526,197.14563,74,64,68
197.4998,198.40889,73,64,68
198.40889,199.20435,72,64,68
199.54526,199.64563,74,64,68
199.77252,199.87291,74,64,68
199.9998,200.10017,74,64,68
200.22707,200.32745,73,64,68
200.45435,200.55472,73,64,68
200.68161,200.782,73,64,68
200.90889,201.00926,73,64,68
201.13617,201.53389,74,64,68
203.18161,203.25737,79,64,68
203.25737,203.33313,77,64,68
203.33313,203.39941,76,64,68
203.40889,203.50926,77,64,68
203.63615,203.73654,81,64,68
203.86343,204.31798,84,64,68
204.31798,204.51685,82,64,68
204.54526,204.64563,81,64,68
204.77252,205.22707,84,64,68
205.22707,205.42593,82,64,68
205.45435,205.55472,81,64,68
205.68161,205.90889,81,64,68
205.90889,206.10774,79,64,68
206.13615,206.36343,79,64,68
206.36343,206.56229,78,64,68
206.5907,206.81798,81,64,68
206.81798,207.01685,79,64,68
207.04524,207.69865,82,64,68
207.72707,207.82744,79,64,68
207.95433,208.05472,76,64,68
208.18161,208.28198,79,64,68
208.40889,208.60774,77,64,68
208.63615,208.71191,79,64,68
208.71191,208.78767,77,64,68
208.78767,208.85396,76,64,68
208.86343,208.9638,77,64,68
209.0907,209.19109,81,64,68
209.31798,209.54524,81,64,68
209.54524,209.74411,79,64,68
209.77252,209.8729,77,64,68
209.99979,210.10017,76,64,68
210.22707,210.68161,74,64,68
210.68161,211.13615,77,64,68
211.13615,212.04524,81,64,68
212.04524,212.24411,82,64,68
216.13615,216.98842,79,64,68
217.04524,218.09637,81,64,68
218.1816,218.38046,77,64,68
218.40887,218.63614,77,64,68
218.63614,218.835,76,64,68
218.86342,218.96379,74,64,68
219.09068,219.19107,73,64,68
219.31796,219.71568,74,64,68
223.1816,223.29523,77,64,68
223.29523,223.39467,74,64,68
223.40887,223.50925,76,64,68
223.63614,223.73651,74,64,68
223.86342,224.06227,73,64,68
224.09068,224.20432,77,64,68
224.20432,224.30376,74,64,68
224.31796,224.41833,76,64,68
224.54523,224.64561,74,64,68
224.7725,224.97136,73,64,68
224.99977,225.11342,77,64,68
225.11342,225.21284,74,64,68
225.22705,225.32742,76,64,68
225.45432,225.5547,64,64,68
225.6816,226.07932,69,64,68
226.3634,226.46379,67,64,68
226.59068,226.79144,65,64,68
227.49977,227.6134,74,64,68
227.6134,227.72705,76,64,68
227.72705,227.84068,77,64,68
227.84068,227.94011,79,64,68
227.95432,228.05376,77,64,68
228.06795,228.16739,76,64,68
228.1816,228.28102,74,64,68
228.29523,228.39465,73,64,68
228.40886,228.8066,74,64,68
229.31795,229.4316,74,64,68
229.4316,229.54523,76,64,68
229.54523,229.65886,77,64,68
229.65886,229.75829,79,64,68
229.77249,229.87193,77,64,68
229.88614,229.98557,76,64,68
229.99977,230.0992,74,64,68
230.1134,230.21284,73,64,68
230.22704,230.62477,74,64,68
231.13614,231.24977,74,64,68
231.24977,231.3634,76,64,68
231.3634,231.47704,77,64,68
231.47704,231.57648,79,64,68
231.59068,231.69011,77,64,68
231.70432,231.80374,76,64,68
231.81795,231.91739,74,64,68
231.93158,232.03102,73,64,68
232.04523,232.1456,74,64,68
232.27249,232.37288,77,64,68
232.49977,232.60014,77,64,68
232.72704,232.82742,77,64,68
232.95432,233.35204,77,64,68
233.40886,233.80658,81,64,68
233.8634,234.26112,77,64,68
0.0,0.100378685,81,64,71
0.2272725,0.32765117,81,64,71
0.454545,0.5549237,81,64,71
0.6818175,0.7954537,81,64,71
0.7954537,0.90909,82,64,71
0.90909,1.0227263,81,64,71
1.0227263,1.1221579,80,64,71
1.1363626,1.2367412,81,64,71
1.363635,1.4640137,81,64,71
1.5909075,1.7045437,81,64,71
1.7045437,1.81818,82,64,71
1.81818,1.9318162,81,64,71
1.9318162,2.0312479,80,64,71
2.0454526,2.145831,81,64,71
2.272725,2.3731036,81,64,71
2.4999976,2.6003761,79,64,71
2.72727,2.8276486,79,64,71
2.9545424,3.181815,79,64,71
3.181815,3.3806784,77,64,71
3.4090874,3.5094662,76,64,71
3.63636,3.7367387,81,64,71
3.8636324,3.9640112,74,64,71
4.090905,4.1912837,74,64,71
4.3181777,4.4318137,74,64,71
4.4318137,4.54545,76,64,71
4.54545,4.659086,77,64,71
4.659086,4.7585177,74,64,71
4.7727227,4.873101,76,64,71
4.999995,5.1003737,76,64,71
5.2272673,5.3409038,76,64,71
5.3409038,5.45454,77,64,71
5.45454,5.5681763,79,64,71
5.5681763,5.667608,76,64,71
5.6818123,5.7821913,77,64,71
5.909085,6.009464,77,64,71
6.1363573,6.2367363,80,64,71
6.36363,6.464009,80,64,71
6.5909023,6.79166,81,64,71
7.4999924,7.6003714,69,64,71
7.727265,7.827644,74,64,71
7.9545374,8.054916,73,64,71
8.18181,8.282188,76,64,71
8.409082,8.509461,74,64,71
8.636355,8.736733,77,64,71
8.863627,8.964006,73,64,71
9.0909,9.191278,76,64,71
9.318172,9.418551,74,64,71
9.545445,9.6458235,77,64,71
9.772717,9.873096,76,64,71
9.99999,10.426126,69,64,71
10.454535,10.5549135,74,64,71
10.6818075,10.7821865,73,64,71
10.90908,11.009459,69,64,71
11.363625,11.464004,65,64,71
11.590898,11.691277,69,64,71
11.81817,11.918549,74,64,71
12.272715,12.373094,67,64,71
12.499988,12.600367,70,64,71
12.72726,12.827639,76,64,71
12.954533,13.068169,77,64,71
13.068169,13.181805,79,64,71
13.181805,13.281237,77,64,71
13.295442,13.344684,74,64,71
13.409078,13.522714,77,64,71
13.522714,13.622146,76,64,71
13.63635,13.735782,74,64,71
13.749987,13.849418,73,64,71
13.863623,13.964002,74,64,71
14.090895,14.191274,69,64,71
14.318168,14.418546,69,64,71
14.54544,14.645819,69,64,71
14.772713,14.873091,67,64,71
14.999985,15.100364,67,64,71
15.227258,15.327636,65,64,71
15.45453,15.554909,65,64,71
15.681803,16.079529,62,64,71
16.136347,16.534075,74,64,71
16.590893,17.27271,72,64,71
17.27271,17.471573,70,64,71
17.499983,17.897709,69,64,71
19.545435,19.659071,79,64,71
19.659071,19.758503,75,64,71
19.772707,19.973465,70,64,71
20.454525,20.553957,70,64,71
20.568161,20.667593,74,64,71
20.681797,20.882555,77,64,71
21.363615,21.477251,79,64,71
21.477251,21.576683,75,64,71
21.590887,21.791645,70,64,71
22.272705,22.386341,74,64,71
22.386341,22.485773,77,64,71
22.499977,22.700735,80,64,71
23.181795,23.295431,79,64,71
23.295431,23.394863,75,64,71
23.409067,23.609825,70,64,71
24.090885,24.190317,70,64,71
24.204521,24.303953,74,64,71
24.318157,24.518915,77,64,71
24.999975,25.113611,75,64,71
25.113611,25.213043,70,64,71
25.227247,25.428005,67,64,71
34.999966,35.07572,77,64,71
35.07572,35.15148,75,64,71
35.15148,35.21777,74,64,71
35.227238,35.327618,75,64,71
35.45451,35.55489,77,64,71
35.68178,36.136326,79,64,71
36.136326,36.534054,80,64,71
36.590874,36.69125,81,64,71
36.818146,36.917576,76,64,71
36.93178,37.03121,77,64,71
37.045418,37.159054,81,64,71
37.159054,37.258484,79,64,71
37.27269,37.37212,77,64,71
37.386326,37.48576,76,64,71
37.49996,37.613598,79,64,71
37.613598,37.71303,77,64,71
37.727234,37.826668,76,64,71
37.84087,37.940304,77,64,71
37.954506,38.068142,82,64,71
38.068142,38.167576,81,64,71
38.18178,38.28121,79,64,71
38.295418,38.394848,77,64,71
38.409054,38.52269,77,64,71
38.52269,38.62212,76,64,71
38.636326,38.735756,74,64,71
38.74996,38.849392,76,64,71
38.863598,38.977234,81,64,71
38.977234,39.076664,79,64,71
39.09087,39.1903,77,64,71
39.204506,39.30394,76,64,71
39.318142,39.431778,76,64,71
39.431778,39.53121,74,64,71
39.545414,39.644848,73,64,71
39.65905,39.758484,74,64,71
39.772686,39.886322,79,64,71
39.886322,39.985756,77,64,71
39.99996,40.099392,76,64,71
40.113598,40.213028,74,64,71
40.227234,40.32761,73,64,71
40.454506,40.554882,69,64,71
42.499958,42.59939,81,64,71
42.613594,42.713024,79,64,71
42.72723,42.82666,77,64,71
42.840866,42.940296,76,64,71
42.954502,43.06814,76,64,71
43.06814,43.167572,74,64,71
43.181774,43.281208,73,64,71
43.29541,43.394844,74,64,71
43.409046,43.522682,79,64,71
43.522682,43.622116,77,64,71
43.63632,43.735752,76,64,71
43.749958,43.84939,74,64,71
43.863594,43.96397,73,64,71
44.31814,44.418518,69,64,71
44.54541,44.64579,69,64,71
44.772682,44.873062,69,64,71
45.227226,45.327606,69,64,71
45.4545,45.55488,69,64,71
45.681774,45.78215,69,64,71
48.18177,48.28215,74,64,71
48.409042,48.509422,74,64,71
48.636314,48.736694,74,64,71
48.863586,48.977222,74,64,71
48.977222,49.09086,75,64,71
49.09086,49.204494,74,64,71
49.204494,49.30393,73,64,71
49.318134,49.41851,74,64,71
49.545406,49.645782,74,64,71
49.77268,49.886314,74,64,71
49.886314,49.99995,75,64,71
49.99995,50.113586,74,64,71
50.113586,50.213017,73,64,71
50.227222,50.327602,74,64,71
50.454494,50.554874,74,64,71
50.681767,50.782146,72,64,71
50.90904,51.00942,72,64,71
51.136314,51.363586,72,64,71
51.363586,51.562447,70,64,71
51.59086,51.789722,69,64,71
51.81813,51.91851,74,64,71
52.045403,53.153355,67,64,71
53.181767,53.282143,71,64,71
53.40904,53.509415,72,64,71
53.63631,53.73669,74,64,71
53.863583,54.062447,75,64,71
54.090855,54.16661,77,64,71
54.16661,54.24237,75,64,71
54.24237,54.30866,74,64,71
54.318127,54.418507,75,64,71
54.5454,54.64578,76,64,71
54.77267,55.1704,77,64,71
60.454487,60.554863,66,64,71
60.68176,61.335167,67,64,71
61.363575,61.463955,68,64,71
61.590847,62.244255,69,64,71
62.272663,62.373043,72,64,71
62.49994,63.153347,70,64,71
63.181755,63.38062,75,64,71
63.409027,64.06244,70,64,71
64.09084,64.19122,70,64,71
64.318115,64.418495,70,64,71
64.54539,64.64577,70,64,71
64.77266,65.880615,69,64,71
65.90903,66.00845,81,64,71
66.02266,66.12209,79,64,71
66.1363,66.23573,78,64,71
66.24993,66.349365,75,64,71
66.36357,66.463005,74,64,71
66.4772,66.57664,72,64,71
66.59084,66.69028,70,64,71
66.704475,66.80391,74,64,71
66.818115,66.91755,79,64,71
66.93175,67.03118,77,64,71
67.04539,67.14482,75,64,71
67.15903,67.25845,74,64,71
67.27266,67.37209,72,64,71
67.3863,67.485725,70,64,71
67.49993,67.60031,69,64,71
67.7272,68.12493,69,64,71
68.18175,68.60789,74,64,71
68.63629,69.03402,70,64,71
69.09084,69.191216,67,64,71
69.318115,69.41849,66,64,71
69.54539,69.943115,66,64,71
69.99993,70.10031,69,64,71
70.2272,70.32758,67,64,71
70.454475,70.8522,67,64,71
70.90902,71.0094,70,64,71
71.13629,71.33516,69,64,71
71.590836,71.691216,74,64,71
71.81811,71.91849,74,64,71
72.04538,72.7272,79,64,71
72.7272,72.840836,81,64,71
72.840836,72.94027,82,64,71
72.954475,73.05485,75,64,71
73.18175,73.28213,79,64,71
73.40902,73.5094,79,64,71
73.63629,73.73667,79,64,71
73.86356,74.54538,77,64,71
74.54538,74.74424,75,64,71
74.77265,74.87303,74,64,71
74.99992,75.1003,77,64,71
75.227196,75.327576,77,64,71
75.45447,75.55485,77,64,71
75.68174,76.36356,75,64,71
76.36356,76.56242,74,64,71
76.590836,76.69121,72,64,71
76.81811,76.91848,75,64,71
77.04538,77.14576,75,64,71
77.27265,77.37303,75,64,71
77.49992,78.18174,74,64,71
78.18174,78.3806,72,64,71
78.40901,78.50939,70,64,71
78.636284,78.736664,74,64,71
78.863556,78.963936,74,64,71
79.09083,79.19121,74,64,71
79.3181,80.624916,75,64,71
80.68174,81.53401,74,64,71
81.59083,81.988556,72,64,71
82.04537,82.14575,70,64,71
82.272644,82.373024,74,64,71
82.499916,82.600296,74,64,71
82.72719,82.82757,74,64,71
82.95446,84.26128,75,64,71
84.3181,85.17037,74,64,71
85.22719,85.624916,72,64,71
85.68173,85.88059,70,64,71
85.909004,85.984764,81,64,71
85.984764,86.06052,79,64,71
86.06052,86.12681,78,64,71
86.13628,86.23666,79,64,71
86.36355,86.46393,82,64,71
86.59082,87.27264,81,64,71
87.27264,87.471504,79,64,71
87.499916,87.69878,78,64,71
87.72719,87.80294,81,64,71
87.80294,87.8787,79,64,71
87.8787,87.944984,78,64,71
87.95446,88.05483,79,64,71
88.18173,88.28211,82,64,71
88.409004,89.09082,81,64,71
89.09082,89.28968,79,64,71
89.31809,89.51695,78,64,71
89.545364,89.621124,82,64,71
89.621124,89.69688,81,64,71
89.69688,89.76317,79,64,71
89.77264,89.87302,81,64,71
89.99991,90.10029,84,64,71
90.22718,91.13628,83,64,71
91.13628,91.33514,84,64,71
91.36355,91.46392,84,64,71
91.81809,92.045364,81,64,71
92.045364,92.244225,82,64,71
92.27264,92.37302,82,64,71
92.72718,92.95445,79,64,71
92.95445,93.15331,81,64,71
93.181725,93.282104,81,64,71
93.63627,93.73665,78,64,71
93.86354,94.77263,79,64,71
94.77263,95.880585,82,64,71
95.909,96.02263,82,64,71
96.02263,96.12206,81,64,71
96.13627,96.23665,82,64,71
96.36354,96.46392,74,64,71
96.59081,97.04536,77,64,71
97.04536,97.244225,75,64,71
97.27263,97.37301,74,64,71
97.4999,97.954445,77,64,71
97.954445,98.15331,75,64,71
98.18172,98.2821,74,64,71
98.40899,98.48475,74,64,71
98.48475,98.56051,75,64,71
98.56051,98.63627,74,64,71
98.63627,98.83513,72,64,71
98.86354,98.93929,72,64,71
98.93929,99.01505,74,64,71
99.01505,99.09081,72,64,71
99.09081,99.28967,71,64,71
99.318085,99.54536,74,64,71
99.54536,99.74422,72,64,71
99.77263,100.42603,84,64,71
100.454445,100.554825,81,64,71
100.68172,100.7821,78,64,71
100.90899,101.00937,72,64,71
101.13626,101.33513,70,64,71
101.36353,101.43929,72,64,71
101.43929,101.51505,70,64,71
101.51505,101.58134,69,64,71
101.590805,101.691185,70,64,71
101.81808,101.91846,74,64,71
102.04535,102.27263,74,64,71
102.27263,102.47149,72,64,71
102.4999,102.69876,70,64,71
102.72717,102.92603,69,64,71
102.954445,103.18172,72,64,71
103.18172,103.38058,70,64,71
103.40899,103.50937,79,64,71
103.63626,103.73664,79,64,71
103.86353,105.17035,82,64,71
108.63625,108.73663,79,64,71
108.863525,108.963905,79,64,71
109.0908,109.19118,79,64,71
109.31807,110.227165,78,64,71
110.227165,110.426025,79,64,71
110.90898,111.00936,79,64,71
111.13625,111.81807,74,64,71
111.81807,112.01693,72,64,71
112.04534,112.14572,70,64,71
112.27261,112.38625,70,64,71
112.38625,112.48568,67,64,71
112.499886,112.600266,69,64,71
112.72716,112.82754,67,64,71
112.95443,113.05481,66,64,71
113.1817,113.281136,70,64,71
113.29534,113.394775,67,64,71
113.40897,113.50935,69,64,71
113.63625,113.736626,67,64,71
113.863525,113.9639,66,64,71
114.0908,114.19022,70,64,71
114.20443,114.30386,67,64,71
114.31807,114.41845,69,64,71
114.54534,114.64572,67,64,71
114.77261,114.87299,66,64,71
115.90897,116.02261,70,64,71
116.02261,116.12204,67,64,71
116.136246,116.236626,69,64,71
116.36352,116.4639,67,64,71
116.59079,116.69117,66,64,71
116.81806,116.9317,70,64,71
116.9317,117.031136,67,64,71
117.045334,117.14571,69,64,71
117.27261,117.372986,67,64,71
117.499886,117.60026,66,64,71
118.636246,118.74988,70,64,71
118.74988,118.84931,74,64,71
118.86352,118.9639,72,64,71
119.09079,119.19117,69,64,71
119.31806,119.71579,70,64,71
119.99988,120.10026,79,64,71
120.22715,120.681694,79,64,71
120.681694,120.88056,81,64,71
120.90897,121.009346,82,64,71
121.136246,121.59079,74,64,71
121.59079,121.78965,73,64,71
123.63624,123.73662,72,64,71
123.86351,124.26124,70,64,71
124.318054,124.51692,72,64,71
124.54533,124.645706,74,64,71
124.772606,125.22715,74,64,71
125.22715,125.45442,76,64,71
125.45442,125.65328,78,64,71
125.681694,126.36351,79,64,71
126.36351,126.56237,77,64,71
126.59078,126.98851,76,64,71
127.2726,127.37298,76,64,71
127.49987,127.72714,81,64,71
127.72714,127.954414,79,64,71
127.954414,128.18169,76,64,71
128.18169,128.38055,73,64,71
128.40897,128.86351,69,64,71
128.86351,129.26123,77,64,71
129.31805,129.7726,74,64,71
129.7726,130.17032,82,64,71
130.22714,130.68169,74,64,71
130.68169,131.07942,80,64,71
131.13623,131.59077,79,64,71
131.59077,132.49986,82,64,71
132.49986,132.8976,73,64,71
132.9544,133.35214,72,64,71
133.40895,134.26123,80,64,71
134.31805,135.17032,77,64,71
135.22714,135.56804,74,64,71
135.56804,135.66748,77,64,71
135.68169,135.90895,75,64,71
135.90895,136.10782,70,64,71
136.13623,136.2366,70,64,71
136.3635,136.46388,70,64,71
136.59077,136.79153,67,64,71
137.72714,137.926,60,64,71
137.9544,138.05478,60,64,71
138.18169,138.28206,60,64,71
138.40895,138.50934,60,64,71
138.63623,138.7366,60,64,71
138.8635,138.96388,60,64,71
139.09077,139.19115,60,64,71
139.54532,139.64569,65,64,71
139.77258,139.87297,65,64,71
139.99986,140.10023,65,64,71
140.22713,140.32751,65,64,71
140.4544,140.55478,65,64,71
140.68167,140.78206,65,64,71
140.90895,141.00932,65,64,71
141.3635,141.46387,65,64,71
141.59077,141.69115,65,64,71
141.81804,141.91841,65,64,71
142.04532,142.14569,65,64,71
142.27258,142.37297,70,64,71
142.49986,142.60023,70,64,71
142.72713,142.82751,70,64,71
142.9544,144.26122,70,64,71
144.31804,144.97145,75,64,71
144.99985,145.10023,75,64,71
145.22713,145.3275,75,64,71
145.4544,145.55478,75,64,71
145.68167,145.88243,72,64,71
146.59076,146.69115,70,64,71
147.0453,147.14569,72,64,71
147.49985,147.60023,74,64,71
147.95439,148.05478,75,64,71
148.40894,148.50932,74,64,71
148.8635,148.96387,69,64,71
149.31804,149.41841,70,64,71
149.77258,149.87296,65,64,71
150.22713,150.3275,62,64,71
150.68167,150.78204,58,64,71
151.13622,151.23659,57,64,71
151.59076,151.69113,53,64,71
152.0453,152.14568,58,64,71
152.49985,152.60022,55,64,71
152.95439,153.05476,53,64,71
153.18167,153.28204,69,64,71
153.40894,153.50932,67,64,71
153.63622,153.73659,70,64,71
153.86348,153.96387,69,64,71
154.09076,154.19113,72,64,71
154.31802,154.41841,64,64,71
154.5453,154.64568,67,64,71
154.77257,154.87296,65,64,71
154.99985,155.10022,69,64,71
155.22711,155.3275,67,64,71
155.45439,155.88052,72,64,71
155.90894,156.00931,65,64,71
156.1362,156.23659,64,64,71
156.36348,156.46385,67,64,71
156.59076,157.89757,65,64,71
157.95439,158.6078,70,64,71
158.6362,158.73659,72,64,71
158.86348,158.96385,70,64,71
159.09074,159.19113,68,64,71
159.31802,159.71574,67,64,71
165.45438,165.55476,79,64,71
165.68166,165.78203,79,64,71
165.90892,166.00931,79,64,71
166.1362,166.24983,79,64,71
166.24983,166.36346,80,64,71
166.36346,166.47711,79,64,71
166.47711,166.57654,78,64,71
166.59074,166.69112,79,64,71
166.81801,166.9184,79,64,71
167.04529,167.15892,79,64,71
167.15892,167.27255,80,64,71
167.27255,167.3862,79,64,71
167.3862,167.48563,78,64,71
167.49983,167.6002,79,64,71
167.72711,167.82748,79,64,71
167.95438,168.05476,77,64,71
168.18166,168.28203,77,64,71
168.40892,168.50931,76,64,71
168.6362,168.73657,79,64,71
168.86346,168.96385,77,64,71
169.09074,169.19112,80,64,71
169.31801,169.4184,76,64,71
169.54529,169.64566,79,64,71
169.77255,169.87294,77,64,71
169.99983,170.1002,80,64,71
170.2271,170.62483,79,64,71
170.68164,171.53392,72,64,71
171.59074,172.44301,77,64,71
172.49983,173.3521,70,64,71
173.63618,173.73657,82,64,71
173.86346,173.96384,81,64,71
174.09073,174.19112,81,64,71
174.31801,174.43164,81,64,71
174.43164,174.54527,82,64,71
174.54527,174.65892,81,64,71
174.65892,174.75835,79,64,71
174.77255,174.87292,78,64,71
174.99983,175.1002,78,64,71
175.2271,175.34073,78,64,71
175.34073,175.45438,79,64,71
175.45438,175.56801,81,64,71
175.56801,175.66743,78,64,71
175.68164,175.79527,79,64,71
175.79527,175.90892,78,64,71
175.90892,176.02255,79,64,71
176.02255,176.13618,81,64,71
176.13618,176.24982,82,64,71
176.24982,176.36346,81,64,71
176.36346,176.4771,79,64,71
176.4771,176.57652,78,64,71
176.59073,176.70438,79,64,71
176.70438,176.81801,78,64,71
176.81801,176.93164,79,64,71
176.93164,177.04527,81,64,71
177.04527,177.15892,82,64,71
177.15892,177.27255,81,64,71
177.27255,177.38618,79,64,71
177.38618,177.48561,77,64,71
177.49982,177.61346,76,64,71
177.61346,177.7271,74,64,71
177.7271,177.84073,76,64,71
177.84073,177.94017,77,64,71
177.95436,178.06801,79,64,71
178.06801,178.18164,77,64,71
178.18164,178.29527,79,64,71
178.29527,178.39471,81,64,71
178.4089,178.52255,82,64,71
178.52255,178.63618,81,64,71
178.63618,178.74982,79,64,71
178.74982,178.84926,77,64,71
178.86346,178.9771,79,64,71
178.9771,179.09073,77,64,71
179.09073,179.20436,76,64,71
179.20436,179.3038,74,64,71
179.31801,179.43164,73,64,71
179.43164,179.54527,69,64,71
179.54527,179.6589,73,64,71
179.6589,179.77255,76,64,71
179.77255,179.88618,81,64,71
179.88618,179.99982,79,64,71
179.99982,180.11345,77,64,71
180.11345,180.21289,76,64,71
180.2271,180.32747,74,64,71
180.45436,180.55475,77,64,71
180.9089,181.0093,74,64,71
181.13618,181.24982,73,64,71
181.24982,181.36345,69,64,71
181.36345,181.4771,73,64,71
181.4771,181.59073,76,64,71
181.59073,181.70436,81,64,71
181.70436,181.818,79,64,71
181.818,181.93164,77,64,71
181.93164,182.03107,76,64,71
182.04527,182.14565,74,64,71
182.27255,182.37292,77,64,71
182.7271,182.82747,80,64,71
182.95436,183.15512,81,64,71
184.318,184.51875,80,64,71
184.77254,184.9733,81,64,71
186.13618,186.33693,80,64,71
186.59073,186.81516,81,64,71
186.818,187.04242,81,64,71
187.04527,187.2697,81,64,71
187.27254,187.48561,81,64,71
187.49982,187.60019,81,64,71
187.72708,187.82747,81,64,71
187.95436,188.068,81,64,71
188.068,188.18163,82,64,71
188.18163,188.29527,81,64,71
188.29527,188.3947,80,64,71
188.4089,188.50928,81,64,71
188.63617,188.73656,81,64,71
188.86345,188.97708,81,64,71
188.97708,189.09071,82,64,71
189.09071,189.20436,81,64,71
189.20436,189.30379,80,64,71
189.318,189.41837,81,64,71
189.54526,189.64565,81,64,71
189.77254,189.87291,79,64,71
189.99982,190.10019,79,64,71
190.22708,190.45436,79,64,71
190.45436,190.65321,77,64,71
190.68163,190.78201,76,64,71
190.9089,191.00928,81,64,71
191.13617,191.23656,74,64,71
191.36345,191.46382,74,64,71
191.59071,191.70436,74,64,71
191.70436,191.818,76,64,71
191.818,191.93163,77,64,71
191.93163,192.03105,74,64,71
192.04526,192.14565,76,64,71
192.27254,192.37291,76,64,71
192.4998,192.61345,76,64,71
192.61345,192.72708,77,64,71
192.72708,192.84071,79,64,71
192.84071,192.94016,76,64,71
192.95435,193.05473,77,64,71
193.18163,193.282,77,64,71
193.4089,193.52254,78,64,71
193.52254,193.63617,79,64,71
193.63617,193.7498,81,64,71
193.7498,193.84924,78,64,71
193.86345,193.96288,79,64,71
193.97708,194.0765,81,64,71
194.09071,194.19014,82,64,71
194.20435,194.30379,81,64,71
194.318,194.41742,79,64,71
194.43163,194.53105,77,64,71
194.54526,194.6447,76,64,71
194.65889,194.75833,74,64,71
194.77254,194.87196,73,64,71
194.88617,194.9856,74,64,71
194.9998,195.09924,76,64,71
195.11343,195.21288,77,64,71
195.22708,195.3265,79,64,71
195.34071,195.44014,76,64,71
195.45435,195.55379,81,64,71
195.568,195.66742,79,64,71
195.68163,195.782,77,64,71
195.90889,196.02254,81,64,71
196.02254,196.12196,77,64,71
196.13617,196.23654,74,64,71
196.36343,196.47708,77,64,71
196.47708,196.5765,74,64,71
196.59071,196.69109,70,64,71
196.81798,196.93163,74,64,71
196.93163,197.03105,70,64,71
197.04526,197.14563,67,64,71
197.27254,197.38617,70,64,71
197.38617,197.4856,67,64,71
197.4998,197.60017,64,64,71
197.72708,197.77632,82,64,71
197.84071,197.88995,79,64,71
197.95435,198.06798,77,64,71
198.06798,198.16742,76,64,71
198.18163,198.23087,82,64,71
198.29526,198.3445,79,64,71
198.40889,198.52252,77,64,71
198.52252,198.62196,76,64,71
198.63617,198.68541,82,64,71
198.7498,198.79904,79,64,71
198.86343,198.97708,77,64,71
198.97708,199.0765,76,64,71
199.09071,199.13995,82,64,71
199.20435,199.25359,79,64,71
199.31798,199.41742,77,64,71
199.43163,199.53105,81,64,71
199.54526,199.64468,82,64,71
199.65889,199.75832,81,64,71
199.77252,199.87196,79,64,71
199.88617,199.9856,77,64,71
199.9998,200.09923,76,64,71
200.11343,200.21288,74,64,71
200.22707,200.28389,77,64,71
200.28389,200.34071,76,64,71
200.34071,200.39752,77,64,71
200.39752,200.45435,76,64,71
200.45435,200.51117,77,64,71
200.51117,200.56798,76,64,71
200.56798,200.6248,77,64,71
200.6248,200.68161,76,64,71
200.68161,200.73843,77,64,71
200.73843,200.79526,76,64,71
200.79526,200.85207,77,64,71
200.85207,200.90889,76,64,71
200.90889,201.02252,74,64,71
201.02252,201.12196,76,64,71
201.13617,202.04526,74,64,71
202.04526,203.15321,77,64,71
206.81798,206.91835,74,64,71
207.04524,207.14563,79,64,71
207.27252,207.3729,77,64,71
207.49979,207.89752,76,64,71
207.95433,208.35207,73,64,71
208.40889,208.60774,69,64,71
208.63615,208.71191,76,64,71
208.71191,208.78767,74,64,71
208.78767,208.85396,73,64,71
208.86343,208.9638,74,64,71
209.0907,209.19109,77,64,71
209.31798,209.54524,77,64,71
209.54524,209.74411,76,64,71
209.77252,209.8729,74,64,71
209.99979,210.10017,73,64,71
210.22707,211.13615,74,64,71
211.13615,212.24411,77,64,71
212.27252,212.3729,77,64,71
212.49979,212.60016,77,64,71
212.72707,212.82744,77,64,71
212.95433,213.05472,77,64,71
213.18161,213.28198,77,64,71
213.40887,213.50926,77,64,71
213.63615,213.73653,77,64,71
213.86342,213.9638,77,64,71
214.0907,214.20433,77,64,71
214.20433,214.30376,79,64,71
214.31796,214.41835,77,64,71
214.54524,214.64561,75,64,71
214.7725,214.8729,74,64,71
214.99979,215.10016,74,64,71
215.22705,215.32744,72,64,71
215.45433,215.5547,72,64,71
215.68161,215.78198,70,64,71
215.90887,216.00925,82,64,71
216.13615,216.24979,82,64,71
216.24979,216.36342,81,64,71
216.36342,216.47705,79,64,71
216.47705,216.57649,77,64,71
216.5907,217.18729,76,64,71
217.2725,217.47137,76,64,71
217.49979,217.69864,69,64,71
217.72705,217.80281,76,64,71
217.80281,217.87857,74,64,71
217.87857,217.94485,73,64,71
217.95433,218.0547,74,64,71
218.1816,218.28198,77,64,71
218.40887,218.63614,77,64,71
218.63614,218.835,76,64,71
218.86342,218.96379,74,64,71
219.09068,219.19107,73,64,71
219.31796,219.51683,74,64,71
219.54524,219.65887,81,64,71
219.65887,219.7583,78,64,71
219.7725,219.87288,79,64,71
219.99979,220.10016,77,64,71
220.22705,220.32744,76,64,71
220.45433,220.56796,81,64,71
220.56796,220.66739,78,64,71
220.6816,220.78198,79,64,71
220.90887,221.00925,77,64,71
221.13614,221.23653,76,64,71
221.36342,221.47705,81,64,71
221.47705,221.57648,78,64,71
221.59068,221.69107,79,64,71
221.81796,221.91833,76,64,71
222.04523,222.14561,77,64,71
222.2725,222.37288,76,64,71
222.49977,222.60016,74,64,71
222.72705,222.82742,69,64,71
222.95432,223.35205,65,64,71
223.63614,223.74977,82,64,71
223.74977,223.84921,80,64,71
223.86342,224.06416,81,64,71
224.54523,224.65886,82,64,71
224.65886,224.7583,80,64,71
224.7725,224.97327,81,64,71
225.45432,225.56796,82,64,71
225.56796,225.66739,80,64,71
225.6816,225.78102,81,64,71
225.79523,225.89465,77,64,71
225.90886,226.0083,79,64,71
226.0225,226.12193,76,64,71
226.13614,226.23557,77,64,71
226.24977,226.34921,74,64,71
226.3634,226.46284,76,64,71
226.47705,226.57648,73,64,71
226.59068,226.9884,74,64,71
227.49977,227.6134,77,64,71
227.6134,227.72705,79,64,71
227.72705,227.84068,81,64,71
227.84068,227.94011,82,64,71
227.95432,228.05376,81,64,71
228.06795,228.16739,79,64,71
228.1816,228.28102,77,64,71
228.29523,228.39465,76,64,71
228.40886,228.8066,74,64,71
229.31795,229.4316,77,64,71
229.4316,229.54523,79,64,71
229.54523,229.65886,81,64,71
229.65886,229.75829,82,64,71
229.77249,229.87193,81,64,71
229.88614,229.98557,79,64,71
229.99977,230.0992,77,64,71
230.1134,230.21284,76,64,71
230.22704,230.62477,74,64,71
231.13614,231.24977,77,64,71
231.24977,231.3634,79,64,71
231.3634,231.47704,81,64,71
231.47704,231.57648,82,64,71
231.59068,231.69011,81,64,71
231.70432,231.80374,79,64,71
231.81795,231.91739,77,64,71
231.93158,232.03102,76,64,71
232.04523,232.1456,74,64,71
232.27249,232.37288,74,64,71
232.49977,232.60014,74,64,71
232.72704,232.82742,74,64,71
232.95432,233.35204,74,64,71
233.40886,233.80658,74,64,71
233.8634,234.26112,74,64,71
3.8636324,4.7727227,65,64,60
4.7727227,5.5681763,67,64,60
5.6818123,6.0795393,65,64,60
6.36363,6.464009,65,64,60
6.5909023,6.79166,64,64,60
11.136353,12.045443,65,64,60
12.045443,12.840897,67,64,60
12.954533,13.054912,65,64,60
13.181805,13.282184,65,64,60
13.409078,13.509457,67,64,60
13.63635,13.736729,67,64,60
13.863623,14.659077,65,64,60
20.227253,20.823843,58,64,60
20.90907,21.107933,58,64,60
21.136343,21.931797,58,64,60
22.045433,22.642023,70,64,60
22.72725,22.926113,70,64,60
22.954523,24.971565,70,64,60
25.227247,25.340883,70,64,60
25.340883,25.45452,72,64,60
25.45452,25.568157,70,64,60
25.568157,25.667587,68,64,60
25.681793,25.782171,67,64,60
25.909065,26.009443,67,64,60
26.136337,26.236715,68,64,60
26.36361,26.46399,68,64,60
26.590883,26.691261,65,64,60
26.818155,26.918533,65,64,60
27.045427,27.145805,67,64,60
27.2727,27.37308,67,64,60
27.499973,27.600351,63,64,60
27.727245,27.827623,63,64,60
27.954517,28.068153,67,64,60
28.068153,28.18179,65,64,60
28.18179,28.295425,63,64,60
28.295425,28.394857,65,64,60
28.409063,28.863607,67,64,60
28.863607,29.062471,63,64,60
29.09088,29.166637,70,64,60
29.261333,29.318153,72,64,60
29.318153,29.517015,70,64,60
29.545425,29.744287,68,64,60
29.99997,30.075727,68,64,60
30.170424,30.227243,70,64,60
30.227243,30.426105,68,64,60
30.454515,30.653378,67,64,60
30.90906,30.984818,67,64,60
31.079514,31.136332,68,64,60
31.136332,31.335196,67,64,60
31.363605,31.562468,66,64,60
31.81815,31.91853,66,64,60
32.04542,33.153378,67,64,60
33.181786,33.25754,69,64,60
33.25754,33.3333,67,64,60
33.3333,33.39959,66,64,60
33.409058,33.509438,67,64,60
33.63633,33.73671,68,64,60
33.8636,33.96398,70,64,60
34.090874,34.191254,70,64,60
34.318146,34.418526,70,64,60
34.54542,34.645798,70,64,60
34.772694,36.590874,70,64,60
36.590874,36.988598,69,64,60
48.409042,48.80677,58,64,60
49.318134,49.71586,58,64,60
50.227222,50.681767,70,64,60
50.681767,51.079494,69,64,60
51.136314,51.59086,70,64,60
51.59086,51.789722,69,64,60
52.72722,52.8276,67,64,60
52.95449,53.15525,67,64,60
54.999947,55.100323,65,64,60
55.22722,55.327595,65,64,60
55.45449,55.554867,65,64,60
55.681763,56.136307,65,64,60
56.136307,56.33517,67,64,60
56.36358,56.46396,69,64,60
56.59085,57.0454,70,64,60
57.0454,57.244263,65,64,60
57.27267,57.373047,65,64,60
57.499943,57.61358,67,64,60
57.61358,57.727215,65,64,60
57.727215,57.84085,64,64,60
57.84085,57.940285,65,64,60
57.954487,58.15335,67,64,60
58.18176,58.380623,69,64,60
58.40903,58.86358,70,64,60
58.86358,59.062443,65,64,60
59.09085,59.204487,65,64,60
59.204487,59.303917,62,64,60
59.318123,59.418503,58,64,60
59.545395,59.645775,58,64,60
59.772667,59.873047,58,64,60
59.99994,60.10032,58,64,60
60.22721,60.823803,58,64,60
60.90903,61.107895,59,64,60
61.136303,61.73289,60,64,60
61.81812,62.016983,61,64,60
62.04539,62.641983,62,64,60
62.72721,62.840847,65,64,60
62.840847,62.940277,62,64,60
62.954483,63.054863,63,64,60
63.181755,63.579483,67,64,60
63.6363,64.06244,70,64,60
64.09084,64.48857,67,64,60
64.54539,64.64577,63,64,60
64.77266,64.8863,65,64,60
64.8863,64.99993,63,64,60
64.99993,65.1988,62,64,60
65.22721,65.34084,63,64,60
65.34084,65.45448,62,64,60
65.45448,65.65334,61,64,60
65.681755,66.07948,62,64,60
75.227196,75.327576,58,64,60
75.45447,75.55485,58,64,60
75.68174,76.477196,63,64,60
77.04538,77.14576,63,64,60
77.27265,77.37303,63,64,60
77.49992,78.29538,62,64,60
81.363556,81.463936,55,64,60
81.59083,81.69121,55,64,60
81.8181,81.91848,55,64,60
82.04537,82.4431,55,64,60
84.999916,85.100296,55,64,60
85.22719,85.32757,55,64,60
85.45446,85.55484,55,64,60
85.68173,85.88249,55,64,60
90.22718,91.534,67,64,60
93.86354,94.77263,70,64,60
94.77263,95.568085,68,64,60
95.681725,95.880585,67,64,60
95.909,96.00938,70,64,60
96.13627,96.23665,70,64,60
96.36354,96.46392,70,64,60
96.59081,96.69119,70,64,60
96.818085,96.918465,70,64,60
97.04536,97.14574,70,64,60
97.27263,97.37301,70,64,60
97.4999,97.60028,70,64,60
97.72717,97.84081,70,64,60
97.84081,97.94025,72,64,60
97.954445,98.054825,70,64,60
98.18172,98.2821,68,64,60
98.40899,98.50937,67,64,60
98.63627,98.73664,67,64,60
98.86354,98.96391,65,64,60
99.09081,99.191185,65,64,60
99.318085,99.51884,63,64,60
102.954445,103.86353,70,64,60
103.86353,104.65899,68,64,60
104.77262,104.97149,67,64,60
104.99989,105.10027,70,64,60
105.227165,105.327545,70,64,60
105.45444,105.55482,70,64,60
105.68171,105.78209,70,64,60
105.90898,106.00936,70,64,60
106.13626,106.23663,70,64,60
106.36353,106.463905,70,64,60
106.590805,106.691185,70,64,60
106.81808,106.93171,70,64,60
106.93171,107.03114,72,64,60
107.04535,107.14573,70,64,60
107.27262,107.373,68,64,60
107.49989,107.60027,67,64,60
107.727165,107.827545,67,64,60
107.95444,108.05482,65,64,60
108.18171,108.28209,65,64,60
108.40898,108.60974,63,64,60
118.636246,118.736626,70,64,60
118.86352,118.9639,69,64,60
119.09079,119.19117,69,64,60
119.31806,119.71579,70,64,60
122.045334,122.95442,70,64,60
122.95442,123.35215,69,64,60
132.72714,132.92601,67,64,60
132.9544,133.18169,70,64,60
133.18169,133.40895,68,64,60
133.40895,133.63623,65,64,60
133.63623,133.8351,63,64,60
133.8635,134.54532,62,64,60
134.54532,134.74419,65,64,60
134.7726,135.56804,68,64,60
135.68169,136.27827,67,64,60
136.3635,136.47714,67,64,60
136.47714,136.57657,68,64,60
136.59077,136.69115,70,64,60
136.81804,136.91748,72,64,60
136.93169,137.03111,70,64,60
137.04532,137.14569,68,64,60
137.27258,137.37297,67,64,60
137.49986,138.05383,65,64,60
138.06804,138.18169,67,64,60
138.18169,138.29532,65,64,60
138.29532,138.39474,64,64,60
138.40895,138.50934,65,64,60
138.63623,138.7366,67,64,60
138.8635,138.96388,68,64,60
139.09077,139.19115,65,64,60
139.31804,139.54532,63,64,60
139.54532,139.74417,62,64,60
139.77258,140.426,62,64,60
140.4544,140.55383,65,64,60
140.56804,140.66748,67,64,60
140.68167,140.78111,65,64,60
140.79532,140.89474,63,64,60
140.90895,141.00838,62,64,60
141.02258,141.12202,60,64,60
141.13622,141.33508,58,64,60
141.59077,142.24417,70,64,60
142.27258,142.37297,65,64,60
142.49986,142.60023,67,64,60
142.72713,142.80289,68,64,60
142.89758,142.9544,70,64,60
142.9544,143.18167,68,64,60
143.18167,143.38054,67,64,60
143.40895,144.06236,67,64,60
144.09076,144.19115,67,64,60
144.31804,144.41841,72,64,60
144.5453,144.62106,70,64,60
144.71576,144.77258,72,64,60
144.77258,144.99985,70,64,60
144.99985,145.19872,69,64,60
145.22713,145.88054,69,64,60
145.90895,146.00932,69,64,60
146.13622,146.2366,69,64,60
146.3635,146.46387,69,64,60
146.59076,146.79152,70,64,60
156.59076,158.2953,65,64,60
159.09074,159.19113,70,64,60
159.31802,159.4184,70,64,60
159.54529,159.64568,70,64,60
159.77257,159.8862,70,64,60
159.8862,159.99985,72,64,60
159.99985,160.11348,70,64,60
160.11348,160.2129,69,64,60
160.22711,160.32748,70,64,60
160.45439,160.55476,70,64,60
160.68166,160.79529,70,64,60
160.79529,160.90894,72,64,60
160.90894,161.02257,70,64,60
161.02257,161.122,69,64,60
161.1362,161.23659,70,64,60
161.36348,161.46385,70,64,60
161.59074,161.69113,68,64,60
161.81802,161.9184,68,64,60
162.04529,162.27257,68,64,60
162.27257,162.47144,67,64,60
162.49983,162.60022,65,64,60
162.72711,162.82748,70,64,60
162.95438,163.05476,63,64,60
163.18166,163.28203,63,64,60
163.40892,163.52257,63,64,60
163.52257,163.6362,65,64,60
163.6362,163.74983,67,64,60
163.74983,163.84927,63,64,60
163.86348,163.96385,65,64,60
164.09074,164.19112,65,64,60
164.31802,164.43166,65,64,60
164.43166,164.54529,67,64,60
164.54529,164.65892,68,64,60
164.65892,164.75836,65,64,60
164.77257,164.87294,67,64,60
164.99983,165.10022,67,64,60
165.22711,165.34074,65,64,60
165.34074,165.45438,63,64,60
165.45438,165.56802,62,64,60
165.56802,165.66745,60,64,60
165.68166,166.07938,59,64,60
172.7271,172.82748,58,64,60
172.95438,173.05475,63,64,60
173.18164,173.28203,63,64,60
173.40892,173.52255,63,64,60
173.52255,173.63618,65,64,60
173.63618,173.74983,63,64,60
173.74983,173.84926,62,64,60
173.86346,173.96384,60,64,60
174.09073,174.19112,60,64,60
175.90892,176.0093,67,64,60
176.13618,176.23657,67,64,60
176.36346,176.46384,67,64,60
176.81801,176.91838,70,64,60
177.04527,177.14566,70,64,60
177.27255,177.37292,70,64,60
177.7271,177.82747,67,64,60
177.95436,178.05475,67,64,60
178.18164,178.28201,67,64,60
178.63618,178.73656,70,64,60
178.86346,178.96384,70,64,60
179.09073,179.1911,70,64,60
179.31801,179.71573,69,64,60
183.4089,183.7072,69,64,60
183.74982,183.84924,69,64,60
183.86345,184.26118,70,64,60
185.22708,185.52538,69,64,60
185.568,185.66743,69,64,60
185.68163,186.07936,70,64,60
191.13617,192.04526,65,64,60
192.04526,192.84071,67,64,60
192.95435,193.86345,69,64,60
193.86345,194.0642,70,64,60
196.81798,196.91837,70,64,60
197.04526,197.14563,70,64,60
197.27254,197.37291,70,64,60
197.4998,199.20435,67,64,60
199.31798,199.41837,65,64,60
200.45435,200.55472,67,64,60
200.68161,200.782,67,64,60
200.90889,201.00926,67,64,60
201.13617,202.04526,65,64,60
202.04526,202.95435,63,64,60
202.95435,203.15321,62,64,60
203.18161,203.282,65,64,60
203.40889,203.50926,65,64,60
203.63615,203.73654,65,64,60
203.86343,203.9638,65,64,60
204.0907,204.19109,65,64,60
204.31798,204.41835,65,64,60
204.54526,204.64563,65,64,60
204.77252,204.8729,65,64,60
204.9998,205.11343,65,64,60
205.11343,205.21286,67,64,60
205.22707,205.32745,65,64,60
205.45435,205.55472,63,64,60
205.68161,205.782,62,64,60
205.90889,206.00926,62,64,60
206.13615,206.23654,60,64,60
206.36343,206.4638,60,64,60
206.5907,206.79146,58,64,60
209.54524,209.64563,70,64,60
209.77252,209.8729,69,64,60
209.99979,210.10017,67,64,60
210.22707,211.13615,65,64,60
211.13615,212.04524,63,64,60
212.04524,212.24411,62,64,60
218.63614,218.73653,70,64,60
218.86342,218.96379,69,64,60
219.09068,219.19107,69,64,60
219.31796,219.71568,69,64,60
226.59068,226.9884,65,64,60
227.49977,227.6134,65,64,60
227.6134,227.72705,67,64,60
227.72705,227.84068,69,64,60
227.84068,227.94011,70,64,60
227.95432,228.0547,69,64,60
228.1816,228.28197,69,64,60
228.40886,228.8066,69,64,60
229.31795,229.4316,65,64,60
229.4316,229.54523,67,64,60
229.54523,229.65886,69,64,60
229.65886,229.75829,70,64,60
229.77249,229.87288,69,64,60
229.99977,230.10014,69,64,60
230.22704,230.62477,69,64,60
231.13614,231.23557,65,64,60
231.24977,231.3492,67,64,60
231.3634,231.46283,69,64,60
231.47704,231.57648,70,64,60
231.59068,231.69106,69,64,60
231.81795,231.91833,69,64,60
232.04523,232.1456,69,64,60
232.27249,232.37288,65,64,60
232.49977,232.60014,65,64,60
232.72704,232.82742,65,64,60
232.95432,233.35204,65,64,60
233.40886,233.80658,65,64,60
233.8634,234.26112,65,64,60
0.2272725,0.42613593,50,64,70
0.6818175,0.8806809,52,64,70
1.1363626,1.3352259,53,64,70
1.5909075,1.789771,55,64,70
2.0454526,2.2443159,53,64,70
2.4999976,2.698861,49,64,70
2.9545424,3.153406,50,64,70
3.4090874,3.607951,45,64,70
3.8636324,4.0624957,41,64,70
4.3181777,4.5170407,50,64,70
4.7727227,4.9715858,49,64,70
5.2272673,5.426131,45,64,70
5.6818123,5.880676,50,64,70
6.1363573,6.335221,46,64,70
6.5909023,6.6912813,45,64,70
6.818175,6.918554,55,64,70
7.0454473,7.1458263,53,64,70
7.27272,7.373099,52,64,70
7.4999924,7.698856,50,64,70
7.9545374,8.153401,52,64,70
8.409082,8.607946,53,64,70
8.863627,9.06249,55,64,70
9.318172,9.5170355,53,64,70
9.772717,9.9715805,49,64,70
10.2272625,10.426126,50,64,70
10.6818075,10.880671,45,64,70
11.136353,11.335216,41,64,70
11.590898,11.789761,53,64,70
12.045443,12.244306,43,64,70
12.499988,12.698851,55,64,70
12.954533,13.153396,45,64,70
13.409078,13.607941,57,64,70
13.863623,13.964002,50,64,70
14.090895,14.191274,50,64,70
14.318168,14.418546,53,64,70
14.54544,14.645819,53,64,70
14.772713,14.873091,52,64,70
14.999985,15.100364,52,64,70
15.227258,15.327636,50,64,70
15.45453,15.554909,50,64,70
15.681803,15.782181,55,64,70
15.909075,16.009453,55,64,70
16.136347,16.236727,55,64,70
16.36362,16.463999,55,64,70
16.590893,16.69127,60,64,70
16.818165,16.918543,60,64,70
17.045437,17.145817,60,64,70
17.27271,17.373089,60,64,70
17.499983,17.60036,53,64,70
17.727255,17.827633,53,64,70
17.954527,18.054907,57,64,70
18.1818,18.282179,57,64,70
18.409073,18.50945,55,64,70
18.636345,18.736723,55,64,70
18.863617,18.963997,53,64,70
19.09089,19.191269,53,64,70
19.318163,19.418541,55,64,70
19.545435,19.645813,55,64,70
19.772707,19.873087,55,64,70
19.99998,20.100359,55,64,70
20.227253,20.327631,56,64,70
20.454525,20.554903,56,64,70
20.681797,20.782177,56,64,70
20.90907,21.009449,56,64,70
21.136343,21.236721,55,64,70
21.363615,21.463993,55,64,70
21.590887,21.691267,55,64,70
21.81816,21.91854,55,64,70
22.045433,22.145811,50,64,70
22.272705,22.373083,50,64,70
22.499977,22.600357,50,64,70
22.72725,22.82763,50,64,70
22.954523,23.054901,51,64,70
23.181795,23.282173,51,64,70
23.409067,23.509447,51,64,70
23.63634,23.73672,51,64,70
23.863613,23.963991,56,64,70
24.090885,24.191263,56,64,70
24.318157,24.418537,56,64,70
24.54543,24.64581,56,64,70
24.772703,25.17043,55,64,70
26.136337,26.249973,60,64,70
26.249973,26.36361,62,64,70
26.36361,26.477245,60,64,70
26.477245,26.576677,58,64,70
26.590883,26.691261,56,64,70
26.818155,26.918533,56,64,70
27.045427,27.145805,58,64,70
27.2727,27.37308,58,64,70
27.499973,27.600351,55,64,70
27.727245,27.827623,55,64,70
27.954517,28.054895,50,64,70
28.18179,28.28217,50,64,70
28.409063,28.509441,51,64,70
28.636335,28.736713,46,64,70
28.863607,28.963985,43,64,70
29.09088,29.19126,39,64,70
29.545425,29.645803,46,64,70
29.772697,29.873075,50,64,70
29.99997,30.10035,46,64,70
30.454515,30.554893,51,64,70
30.681787,30.782166,55,64,70
30.90906,31.00944,51,64,70
31.363605,31.463984,51,64,70
31.590878,31.691256,50,64,70
31.81815,31.91853,48,64,70
32.04542,32.1458,46,64,70
32.272694,32.373074,45,64,70
32.499966,32.600346,43,64,70
32.72724,32.827618,45,64,70
32.954514,33.05489,46,64,70
33.181786,33.282166,48,64,70
33.409058,33.509438,46,64,70
33.63633,33.73671,44,64,70
33.8636,33.96398,43,64,70
34.090874,34.191254,41,64,70
34.318146,34.418526,39,64,70
34.54542,34.645798,38,64,70
34.772694,34.87307,39,64,70
34.999966,35.10034,38,64,70
35.227238,35.327618,39,64,70
35.45451,35.55489,41,64,70
35.68178,36.136326,43,64,70
36.136326,36.534054,44,64,70
36.590874,36.69125,45,64,70
36.818146,36.91852,57,64,70
37.045418,37.145798,57,64,70
37.27269,37.37307,57,64,70
37.49996,37.60034,57,64,70
37.727234,37.827614,57,64,70
37.954506,38.054886,57,64,70
38.18178,38.282158,57,64,70
38.409054,38.50943,45,64,70
38.636326,38.736702,57,64,70
38.863598,38.963978,57,64,70
39.09087,39.19125,57,64,70
39.318142,39.41852,57,64,70
39.545414,39.645794,57,64,70
39.772686,39.873066,57,64,70
39.99996,40.100338,57,64,70
40.227234,40.32761,57,64,70
40.681778,40.781208,57,64,70
40.795414,40.894844,55,64,70
40.90905,41.00848,53,64,70
41.022686,41.122116,52,64,70
41.136322,41.249958,52,64,70
41.249958,41.349392,50,64,70
41.363594,41.463028,49,64,70
41.47723,41.576664,50,64,70
41.590866,41.704502,55,64,70
41.704502,41.803936,53,64,70
41.81814,41.917572,52,64,70
41.931778,42.031208,50,64,70
42.045414,42.14579,49,64,70
42.272686,42.373062,52,64,70
42.499958,42.600338,45,64,70
42.72723,42.82761,55,64,70
42.954502,43.054882,53,64,70
43.181774,43.282154,50,64,70
43.409046,43.509426,62,64,70
43.63632,43.7367,58,64,70
43.863594,43.96397,57,64,70
44.31814,44.418518,57,64,70
44.54541,44.64579,57,64,70
44.772682,44.873062,57,64,70
45.227226,45.327606,57,64,70
45.4545,45.55488,57,64,70
45.681774,45.78215,57,64,70
46.13632,46.236694,57,64,70
46.36359,46.46397,57,64,70
46.590862,46.691242,58,64,70
46.818134,46.918514,60,64,70
47.045406,47.145786,62,64,70
47.27268,47.37306,63,64,70
47.499954,50.681767,65,64,70
50.681767,51.079494,66,64,70
51.136314,51.59086,67,64,70
51.59086,51.789722,66,64,70
51.81813,51.91851,62,64,70
52.045403,52.499947,63,64,70
52.499947,52.69881,62,64,70
52.72722,52.8276,59,64,70
52.95449,53.05487,60,64,70
53.181767,53.282143,62,64,70
53.40904,53.509415,63,64,70
53.63631,53.73669,65,64,70
53.863583,54.5454,67,64,70
54.5454,54.744263,58,64,70
54.77267,55.1704,57,64,70
56.818127,56.918503,53,64,70
57.0454,57.145775,50,64,70
57.27267,57.373047,46,64,70
57.499943,57.89767,41,64,70
58.636307,58.736683,53,64,70
58.86358,58.963955,50,64,70
59.09085,59.191227,46,64,70
59.545395,59.645775,55,64,70
59.772667,59.873047,53,64,70
59.99994,60.10032,51,64,70
60.22721,61.136303,50,64,70
61.136303,62.04539,51,64,70
62.04539,62.840847,53,64,70
62.954483,64.06244,55,64,70
64.09084,64.19122,55,64,70
64.318115,64.418495,55,64,70
64.54539,64.64577,55,64,70
64.77266,65.681755,55,64,70
65.681755,66.07948,54,64,70
66.1363,66.33705,57,64,70
66.59084,66.7916,55,64,70
67.04539,67.24615,43,64,70
67.49993,67.70069,50,64,70
67.954475,68.155235,62,64,70
68.40902,68.60978,55,64,70
68.86357,69.06432,43,64,70
69.318115,69.715836,50,64,70
69.77266,69.87304,62,64,70
69.99993,70.10031,62,64,70
70.2272,70.32664,55,64,70
70.340836,70.44027,54,64,70
70.454475,70.55391,55,64,70
70.56811,70.66754,57,64,70
70.68175,70.78118,58,64,70
70.79539,70.89481,57,64,70
70.90902,71.00845,58,64,70
71.02266,71.122086,61,64,70
71.13629,71.33705,62,64,70
72.49992,72.6003,55,64,70
72.7272,72.827576,55,64,70
72.954475,73.63629,60,64,70
73.63629,73.74992,62,64,70
73.74992,73.84936,63,64,70
73.86356,74.090836,57,64,70
74.090836,74.20447,58,64,70
74.20447,74.3039,60,64,70
74.31811,74.54538,53,64,70
74.54538,74.65902,55,64,70
74.65902,74.758446,57,64,70
74.77265,75.45447,58,64,70
75.45447,75.56811,60,64,70
75.56811,75.66754,62,64,70
75.68174,75.90901,55,64,70
75.90901,76.02265,57,64,70
76.02265,76.122086,58,64,70
76.136284,76.36356,51,64,70
76.36356,76.477196,53,64,70
76.477196,76.57663,55,64,70
76.590836,77.27265,57,64,70
77.27265,77.386284,58,64,70
77.386284,77.48572,60,64,70
77.49992,77.727196,54,64,70
77.727196,77.84083,55,64,70
77.84083,77.94026,57,64,70
77.95447,78.18174,50,64,70
78.18174,78.29538,52,64,70
78.29538,78.394806,54,64,70
78.40901,78.50939,55,64,70
78.636284,78.736664,43,64,70
78.863556,78.963936,43,64,70
79.09083,79.19121,43,64,70
79.3181,81.335144,43,64,70
81.363556,81.463936,55,64,70
81.59083,81.69121,55,64,70
81.8181,81.91848,55,64,70
82.04537,82.14575,55,64,70
82.272644,82.373024,43,64,70
82.499916,82.600296,43,64,70
82.72719,82.82757,43,64,70
82.95446,84.971504,43,64,70
84.999916,85.100296,55,64,70
85.22719,85.32757,55,64,70
85.45446,85.55484,55,64,70
85.68173,85.88249,55,64,70
86.81809,86.91847,61,64,70
87.045364,87.145744,61,64,70
87.27264,87.37302,61,64,70
87.499916,87.70067,62,64,70
88.63628,88.73666,61,64,70
88.86355,88.96393,61,64,70
89.09082,89.1912,61,64,70
89.31809,89.51885,62,64,70
93.86354,94.77263,55,64,70
94.77263,95.568085,53,64,70
95.681725,95.880585,51,64,70
95.909,96.00938,55,64,70
96.13627,96.23665,56,64,70
96.36354,96.46392,56,64,70
96.59081,96.69119,55,64,70
96.818085,96.918465,55,64,70
97.04536,97.14574,56,64,70
97.27263,97.37301,56,64,70
97.4999,97.60028,55,64,70
97.72717,97.84081,55,64,70
97.84081,97.94025,56,64,70
97.954445,98.054825,55,64,70
98.18172,98.2821,53,64,70
98.40899,98.50937,51,64,70
98.63627,98.73664,51,64,70
98.86354,98.96391,50,64,70
99.09081,99.191185,50,64,70
99.318085,99.418465,48,64,70
99.54536,99.64574,63,64,70
99.77263,99.87301,63,64,70
99.9999,100.10028,63,64,70
100.22717,101.53399,62,64,70
101.590805,101.791565,67,64,70
102.04535,102.24611,50,64,70
102.4999,102.70065,62,64,70
102.954445,103.86353,55,64,70
103.86353,104.65899,53,64,70
104.77262,104.97149,51,64,70
104.99989,105.10027,55,64,70
105.227165,105.327545,56,64,70
105.45444,105.55482,56,64,70
105.68171,105.78209,55,64,70
105.90898,106.00936,55,64,70
106.13626,106.23663,56,64,70
106.36353,106.463905,56,64,70
106.590805,106.691185,55,64,70
106.81808,106.93171,55,64,70
106.93171,107.03114,56,64,70
107.04535,107.14573,55,64,70
107.27262,107.373,53,64,70
107.49989,107.60027,51,64,70
107.727165,107.827545,51,64,70
107.95444,108.05482,50,64,70
108.18171,108.28209,50,64,70
108.40898,108.60785,48,64,70
108.63625,108.73663,63,64,70
108.863525,108.963905,63,64,70
109.0908,109.19118,63,64,70
109.31807,110.62489,62,64,70
110.68171,110.88246,67,64,70
111.13625,111.33701,50,64,70
111.5908,111.79156,62,64,70
112.04534,112.2461,55,64,70
114.999886,115.100266,54,64,70
115.22716,115.32754,57,64,70
115.45443,115.55481,54,64,70
115.6817,116.07943,55,64,70
117.72716,117.82753,54,64,70
117.95443,118.05481,57,64,70
118.1817,118.28208,54,64,70
118.40897,118.50935,55,64,70
118.636246,118.736626,43,64,70
118.86352,118.9639,50,64,70
119.09079,119.19117,38,64,70
119.31806,119.71579,43,64,70
120.22715,121.136246,58,64,70
121.136246,121.533966,57,64,70
123.63624,123.73662,55,64,70
123.86351,124.318054,55,64,70
124.318054,124.51692,57,64,70
124.54533,124.645706,58,64,70
124.772606,125.45442,58,64,70
125.45442,125.65328,57,64,70
125.681694,125.908966,55,64,70
125.908966,126.13624,53,64,70
126.13624,126.36351,52,64,70
126.36351,126.56237,50,64,70
126.59078,126.98851,49,64,70
129.09077,129.19116,57,64,70
129.31805,129.54532,60,64,70
129.54532,129.7726,58,64,70
129.7726,129.99986,53,64,70
129.99986,130.19873,50,64,70
130.22714,132.49986,46,64,70
132.49986,132.8976,51,64,70
132.9544,133.40895,44,64,70
133.40895,133.80669,48,64,70
133.8635,135.56804,46,64,70
135.68169,136.78964,39,64,70
136.81804,136.91843,39,64,70
137.04532,137.14569,41,64,70
137.27258,137.37297,43,64,70
137.49986,137.60023,44,64,70
137.72714,137.82751,44,64,70
137.9544,138.05478,44,64,70
138.18169,138.28206,44,64,70
138.40895,138.50934,44,64,70
138.63623,138.7366,44,64,70
138.8635,138.96388,44,64,70
139.09077,139.19115,44,64,70
139.31804,139.41843,46,64,70
139.54532,139.64569,46,64,70
139.77258,139.87297,46,64,70
139.99986,140.10023,46,64,70
140.22713,140.32751,46,64,70
140.4544,140.55478,46,64,70
140.68167,140.78206,46,64,70
140.90895,141.00932,46,64,70
141.13622,141.2366,50,64,70
141.3635,141.46387,50,64,70
141.59077,141.69115,50,64,70
141.81804,141.91841,50,64,70
142.04532,142.14569,50,64,70
142.27258,142.37297,50,64,70
142.49986,142.60023,50,64,70
142.72713,142.82751,50,64,70
142.9544,143.05478,51,64,70
143.18167,143.28206,51,64,70
143.40895,143.50932,51,64,70
143.63622,143.7366,51,64,70
143.8635,143.96387,51,64,70
144.09076,144.19115,51,64,70
144.31804,144.41841,51,64,70
144.5453,144.64569,51,64,70
144.77258,144.87296,53,64,70
144.99985,145.10023,53,64,70
145.22713,145.3275,53,64,70
145.4544,145.55478,53,64,70
145.68167,145.88243,53,64,70
146.3635,146.46387,65,64,70
146.59076,146.69115,65,64,70
146.81804,146.91841,65,64,70
147.0453,147.15895,65,64,70
147.15895,147.27258,67,64,70
147.27258,147.38622,65,64,70
147.38622,147.48564,64,64,70
147.49985,147.60023,65,64,70
147.72713,147.8275,65,64,70
147.95439,148.06804,65,64,70
148.06804,148.18167,67,64,70
148.18167,148.2953,65,64,70
148.2953,148.39474,64,64,70
148.40894,148.50932,65,64,70
148.63622,148.73659,65,64,70
148.8635,148.96387,63,64,70
149.09076,149.19113,63,64,70
149.31804,149.5453,63,64,70
149.5453,149.74417,62,64,70
149.77258,149.87296,60,64,70
149.99985,150.10023,65,64,70
150.22713,150.3275,58,64,70
150.45439,150.55478,58,64,70
150.68167,150.7953,58,64,70
150.7953,150.90894,60,64,70
150.90894,151.02258,62,64,70
151.02258,151.12201,58,64,70
151.13622,151.23659,60,64,70
151.36348,151.46387,60,64,70
151.59076,151.70439,60,64,70
151.70439,151.81802,62,64,70
151.81802,151.93167,63,64,70
151.93167,152.0311,60,64,70
152.0453,152.14568,62,64,70
152.27257,152.37296,62,64,70
152.49985,152.60022,64,64,70
152.72713,152.8275,64,64,70
152.95439,153.05476,65,64,70
153.18167,153.28204,53,64,70
153.40894,153.50932,52,64,70
153.63622,153.73659,55,64,70
153.86348,153.96387,53,64,70
154.09076,154.19113,57,64,70
154.31802,154.41841,55,64,70
154.5453,154.64568,58,64,70
154.77257,154.97144,57,64,70
155.22711,155.42598,52,64,70
155.68166,155.88052,53,64,70
156.1362,156.33507,48,64,70
156.59076,157.3862,57,64,70
157.49985,158.18166,58,64,70
158.18166,158.2953,60,64,70
158.2953,158.39473,62,64,70
158.40894,158.50931,63,64,70
158.6362,158.73659,56,64,70
158.86348,158.96385,58,64,70
159.09074,159.19113,46,64,70
159.31802,159.51689,51,64,70
159.77257,159.97144,53,64,70
160.22711,160.42598,55,64,70
160.68166,160.88052,56,64,70
161.1362,161.33507,55,64,70
161.59074,161.78961,50,64,70
162.04529,162.24416,51,64,70
162.49983,162.6987,46,64,70
162.95438,163.15324,43,64,70
163.40892,163.60779,39,64,70
163.86348,164.65892,44,64,70
164.77257,164.87294,43,64,70
164.99983,165.10022,47,64,70
165.22711,165.32748,48,64,70
165.45438,165.55476,51,64,70
165.68166,168.29529,55,64,70
168.40892,171.02255,48,64,70
171.1362,171.53392,53,64,70
171.81801,171.9184,57,64,70
172.04529,172.14566,58,64,70
172.27255,172.37294,58,64,70
172.49983,172.61346,58,64,70
172.61346,172.7271,60,64,70
172.7271,172.84073,58,64,70
172.84073,172.94017,56,64,70
172.95438,173.05475,55,64,70
173.18164,173.28203,55,64,70
173.40892,173.5093,55,64,70
173.63618,173.73657,55,64,70
173.86346,173.96384,60,64,70
174.09073,174.19112,60,64,70
174.31801,174.41838,61,64,70
174.54527,174.64566,61,64,70
174.77255,175.2271,62,64,70
175.2271,175.62482,60,64,70
175.68164,176.07938,58,64,70
176.36346,176.46384,62,64,70
176.59073,176.79149,58,64,70
177.27255,177.37292,58,64,70
177.49982,177.70058,55,64,70
178.18164,178.28201,55,64,70
178.4089,178.60966,52,64,70
179.09073,179.1911,52,64,70
179.31801,179.41838,57,64,70
179.54527,179.64566,57,64,70
179.77255,179.87292,57,64,70
179.99982,180.1002,57,64,70
180.2271,180.32747,57,64,70
180.45436,180.55475,57,64,70
180.68164,180.78201,57,64,70
180.9089,181.0093,57,64,70
181.13618,181.33505,57,64,70
181.36345,181.56232,57,64,70
181.59073,181.7896,57,64,70
181.818,182.01686,57,64,70
182.04527,182.24414,57,64,70
182.27255,182.4714,57,64,70
182.49982,182.69868,57,64,70
182.7271,182.92595,57,64,70
182.95436,183.15323,57,64,70
183.4089,183.7072,61,64,70
183.74982,183.84924,61,64,70
183.86345,184.26118,62,64,70
185.22708,185.52538,61,64,70
185.568,185.66743,61,64,70
185.68163,186.07936,62,64,70
186.818,186.91838,55,64,70
187.04527,187.14565,53,64,70
187.27254,187.37292,52,64,70
187.49982,187.69867,50,64,70
187.95436,188.15321,52,64,70
188.4089,188.60777,53,64,70
188.86345,189.06232,55,64,70
189.318,189.51686,53,64,70
189.77254,189.9714,49,64,70
190.22708,190.42595,50,64,70
190.68163,190.8805,45,64,70
191.13617,191.23656,41,64,70
191.36345,191.46382,38,64,70
191.59071,191.6911,38,64,70
191.818,191.91837,38,64,70
192.04526,194.0623,38,64,70
194.318,194.41837,58,64,70
194.77254,194.87291,57,64,70
195.68163,195.782,62,64,70
196.13617,196.23654,53,64,70
196.59071,196.69109,55,64,70
197.04526,197.14563,58,64,70
197.4998,197.89752,49,64,70
199.31798,199.41837,50,64,70
199.77252,199.87291,53,64,70
200.22707,200.32745,57,64,70
200.68161,200.782,45,64,70
201.13617,202.04526,62,64,70
202.04526,202.95435,60,64,70
202.95435,203.15321,58,64,70
203.18161,203.282,62,64,70
203.40889,203.50926,63,64,70
203.63615,203.73654,63,64,70
203.86343,203.9638,62,64,70
204.0907,204.19109,62,64,70
204.31798,204.41835,63,64,70
204.54526,204.64563,63,64,70
204.77252,204.8729,62,64,70
204.9998,205.11343,62,64,70
205.11343,205.21286,63,64,70
205.22707,205.32745,62,64,70
205.45435,205.55472,60,64,70
205.68161,205.782,58,64,70
205.90889,206.00926,58,64,70
206.13615,206.23654,57,64,70
206.36343,206.4638,57,64,70
206.5907,206.69109,55,64,70
206.81798,206.91835,58,64,70
207.04524,207.14563,64,64,70
207.27252,207.3729,62,64,70
207.49979,208.40889,61,64,70
208.40889,208.80661,62,64,70
208.86343,209.26115,50,64,70
209.31798,209.7157,57,64,70
209.77252,210.17024,45,64,70
210.22707,211.13615,62,64,70
211.13615,212.04524,60,64,70
212.04524,212.24411,58,64,70
212.27252,212.3729,62,64,70
212.49979,212.60016,63,64,70
212.72707,212.82744,63,64,70
212.95433,213.05472,62,64,70
213.18161,213.28198,62,64,70
213.40887,213.50926,63,64,70
213.63615,213.73653,63,64,70
213.86342,213.9638,62,64,70
214.0907,214.20433,62,64,70
214.20433,214.30376,63,64,70
214.31796,214.41835,62,64,70
214.54524,214.64561,60,64,70
214.7725,214.8729,58,64,70
214.99979,215.10016,58,64,70
215.22705,215.32744,57,64,70
215.45433,215.5547,57,64,70
215.68161,215.78198,55,64,70
215.90887,216.00925,67,64,70
216.13615,216.24979,67,64,70
216.24979,216.36342,65,64,70
216.36342,216.47705,64,64,70
216.47705,216.57649,62,64,70
216.5907,217.49979,61,64,70
217.49979,217.8975,62,64,70
217.95433,218.35205,50,64,70
218.40887,218.8066,57,64,70
218.86342,219.26114,45,64,70
219.31796,219.51683,50,64,70
219.54524,219.65887,65,64,70
219.65887,219.7583,62,64,70
219.7725,219.87288,64,64,70
219.99979,220.10016,62,64,70
220.22705,220.32744,61,64,70
220.45433,220.56796,65,64,70
220.56796,220.66739,62,64,70
220.6816,220.78198,64,64,70
220.90887,221.00925,62,64,70
221.13614,221.23653,61,64,70
221.36342,221.47705,65,64,70
221.47705,221.57648,62,64,70
221.59068,221.69107,64,64,70
221.81796,221.91833,52,64,70
222.04523,222.44296,57,64,70
222.49977,222.8975,45,64,70
222.95432,223.35205,50,64,70
225.90886,226.00925,57,64,70
226.13614,226.23651,57,64,70
226.3634,226.46379,57,64,70
226.59068,226.69011,50,64,70
226.70432,226.80376,53,64,70
226.81795,226.91739,57,64,70
226.9316,227.03102,62,64,70
227.04523,227.14465,60,64,70
227.15886,227.2583,58,64,70
227.2725,227.37193,57,64,70
227.38614,227.48557,55,64,70
227.49977,227.60016,53,64,70
227.72705,227.82742,50,64,70
227.95432,228.0547,45,64,70
228.40886,228.5083,50,64,70
228.52249,228.62193,53,64,70
228.63614,228.73557,57,64,70
228.74977,228.8492,62,64,70
228.8634,228.96284,60,64,70
228.97705,229.07648,58,64,70
229.09068,229.19011,57,64,70
229.20432,229.30374,55,64,70
229.31795,229.41833,53,64,70
229.54523,229.6456,50,64,70
229.77249,229.87288,45,64,70
230.22704,230.32648,50,64,70
230.34068,230.44011,53,64,70
230.45432,230.55374,57,64,70
230.56795,230.66739,62,64,70
230.6816,230.78102,60,64,70
230.79523,230.89465,58,64,70
230.90886,231.00829,57,64,70
231.02249,231.12193,55,64,70
231.13614,231.23651,53,64,70
231.3634,231.46379,50,64,70
231.59068,231.69106,45,64,70
231.81795,231.91833,57,64,70
232.04523,232.1456,50,64,70
232.27249,232.37288,62,64,70
232.49977,232.60014,57,64,70
232.72704,232.82742,53,64,70
232.95432,233.05469,50,64,70
233.18158,233.28197,50,64,70
233.40886,233.50923,45,64,70
233.63612,233.73651,41,64,70
233.8634,234.26112,38,64,70
