start_time,end_time,note_value,velocity,instrument_program_number
0.0,0.10253906,72,64,73
0.1171875,0.9375,77,64,73
1.0546875,1.6699219,84,64,73
1.7578125,1.9628906,84,64,73
1.9921875,2.9296875,81,64,73
2.9296875,3.5449219,77,64,73
3.6328125,3.8378906,77,64,73
3.8671875,4.6875,79,64,73
4.8046875,5.0390625,77,64,73
5.0390625,5.2734375,76,64,73
5.2734375,5.5078125,74,64,73
5.5078125,5.7128906,72,64,73
5.7421875,6.1523438,77,64,73
6.2109375,6.5185547,81,64,73
6.5625,6.665039,81,64,73
6.6796875,7.0898438,77,64,73
7.8515625,7.9553223,72,64,73
8.0859375,8.189697,72,64,73
8.3203125,8.424072,72,64,73
8.5546875,8.658447,72,64,73
8.7890625,8.892822,72,64,73
9.0234375,9.127197,72,64,73
9.2578125,9.361572,72,64,73
9.4921875,9.84375,72,64,73
9.84375,9.946289,77,64,73
9.9609375,10.168457,72,64,73
11.8359375,12.7734375,77,64,73
12.7734375,13.183594,76,64,73
13.2421875,13.449707,77,64,73
15.1171875,15.9375,74,64,73
16.054688,16.669922,74,64,73
16.757812,16.96289,74,64,73
16.992188,19.277344,72,64,73
19.804688,20.214844,72,64,73
20.976562,21.080322,84,64,73
21.210938,21.314697,84,64,73
21.445312,21.549072,84,64,73
21.679688,21.914062,84,64,73
21.914062,22.148438,83,64,73
22.148438,22.382812,86,64,73
22.382812,22.58789,84,64,73
22.617188,24.697266,84,64,73
24.726562,24.830322,84,64,73
24.960938,25.064697,84,64,73
25.195312,25.299072,84,64,73
25.429688,25.664062,84,64,73
25.664062,25.898438,83,64,73
25.898438,26.132812,86,64,73
26.132812,26.33789,84,64,73
26.367188,28.945312,84,64,73
28.945312,29.15039,81,64,73
29.179688,29.589844,84,64,73
29.882812,29.986572,84,64,73
30.117188,30.351562,82,64,73
30.351562,30.585938,81,64,73
30.585938,30.820312,79,64,73
30.820312,31.02539,77,64,73
31.054688,31.464844,76,64,73
31.757812,31.861572,86,64,73
31.992188,32.226562,84,64,73
32.226562,32.460938,82,64,73
32.460938,32.695312,81,64,73
32.695312,32.90039,79,64,73
32.929688,33.339844,77,64,73
33.632812,33.83789,87,64,73
33.867188,34.101562,86,64,73
34.101562,34.335938,84,64,73
34.335938,34.570312,82,64,73
34.570312,34.77539,81,64,73
34.804688,35.039062,79,64,73
35.039062,35.273438,78,64,73
35.273438,35.507812,86,64,73
35.507812,35.71289,78,64,73
35.742188,35.845947,79,64,73
36.210938,36.5625,82,64,73
36.5625,36.66504,81,64,73
36.679688,36.783447,79,64,73
37.148438,37.5,86,64,73
37.5,37.60254,84,64,73
37.617188,37.851562,84,64,73
37.851562,38.05664,82,64,73
38.085938,38.291016,81,64,73
38.320312,38.47412,79,64,73
38.496094,38.554688,79,64,73
38.554688,38.789062,77,64,73
38.789062,39.023438,76,64,73
39.023438,39.257812,77,64,73
39.257812,39.46289,79,64,73
39.492188,39.697266,76,64,73
39.726562,39.777832,72,64,73
39.84375,39.89502,74,64,73
39.960938,40.012207,76,64,73
40.078125,40.129395,77,64,73
40.195312,40.246582,79,64,73
40.3125,40.36377,76,64,73
40.429688,40.546875,77,64,73
40.546875,40.664062,79,64,73
40.664062,40.78125,81,64,73
40.78125,40.88379,79,64,73
40.898438,41.015625,82,64,73
41.015625,41.132812,81,64,73
41.132812,41.25,79,64,73
41.25,41.35254,77,64,73
41.367188,41.572266,76,64,73
41.601562,41.652832,72,64,73
41.71875,41.77002,74,64,73
41.835938,41.887207,76,64,73
41.953125,42.004395,77,64,73
42.070312,42.121582,79,64,73
42.1875,42.23877,76,64,73
42.304688,42.421875,77,64,73
42.421875,42.539062,79,64,73
42.539062,42.65625,81,64,73
42.65625,42.75879,79,64,73
42.773438,42.890625,82,64,73
42.890625,43.007812,81,64,73
43.007812,43.125,79,64,73
43.125,43.22754,77,64,73
43.242188,43.652344,76,64,73
43.710938,44.018555,84,64,73
44.0625,44.16504,84,64,73
44.179688,44.589844,84,64,73
50.742188,51.445312,86,64,73
51.445312,51.679688,85,64,73
51.679688,51.914062,84,64,73
51.914062,52.148438,83,64,73
52.148438,52.382812,84,64,73
52.382812,52.58789,81,64,73
52.617188,53.320312,79,64,73
53.320312,53.52539,81,64,73
53.554688,53.762207,79,64,73
54.023438,54.230957,79,64,73
54.492188,54.902344,79,64,73
54.960938,55.01709,81,64,73
55.01953,55.078125,79,64,73
55.078125,55.13672,81,64,73
55.13672,55.195312,79,64,73
55.195312,55.253906,81,64,73
55.253906,55.3125,79,64,73
55.3125,55.41504,81,64,73
55.429688,55.839844,83,64,73
55.898438,55.95459,84,64,73
55.95703,56.015625,83,64,73
56.015625,56.07422,84,64,73
56.07422,56.132812,83,64,73
56.132812,56.191406,84,64,73
56.191406,56.25,83,64,73
56.25,56.35254,84,64,73
56.367188,56.484375,86,64,73
56.484375,56.601562,85,64,73
56.601562,56.71875,86,64,73
56.71875,56.82129,85,64,73
56.835938,56.953125,86,64,73
56.953125,57.070312,85,64,73
57.070312,57.1875,86,64,73
57.1875,57.29004,85,64,73
57.304688,57.407227,86,64,73
57.421875,57.524414,84,64,73
57.539062,57.6416,83,64,73
57.65625,57.75879,81,64,73
57.773438,57.875977,79,64,73
57.890625,57.993164,77,64,73
58.007812,58.11035,76,64,73
58.125,58.22754,74,64,73
58.242188,58.447266,76,64,73
58.710938,58.814697,79,64,73
58.945312,59.049072,79,64,73
59.179688,59.414062,78,64,73
59.414062,59.648438,79,64,73
59.648438,59.882812,81,64,73
59.882812,60.08789,79,64,73
60.117188,60.351562,78,64,73
60.351562,60.55664,79,64,73
60.585938,60.689697,84,64,73
60.820312,60.924072,81,64,73
61.054688,61.289062,78,64,73
61.289062,61.49414,79,64,73
61.523438,61.627197,84,64,73
61.757812,61.861572,81,64,73
61.992188,62.197266,78,64,73
62.226562,62.63672,79,64,73
62.695312,63.10547,77,64,73
63.164062,63.57422,76,64,73
63.632812,64.072266,74,64,73
64.10156,64.51172,72,64,73
64.57031,64.77539,71,64,73
64.80469,64.921875,72,64,73
64.921875,65.03906,74,64,73
65.03906,65.15625,76,64,73
65.15625,65.27344,77,64,73
65.27344,65.390625,79,64,73
65.390625,65.50781,81,64,73
65.50781,65.625,83,64,73
65.625,65.72754,84,64,73
65.74219,66.21094,83,64,73
66.21094,66.416016,79,64,73
66.5625,66.61377,79,64,73
66.67969,67.14844,84,64,73
67.14844,67.353516,79,64,73
67.5,67.55127,79,64,73
67.61719,68.08594,86,64,73
68.08594,68.291016,79,64,73
68.4375,68.48877,79,64,73
68.55469,69.25781,88,64,73
69.25781,69.375,86,64,73
69.375,69.47754,84,64,73
69.49219,69.59473,83,64,73
69.609375,69.711914,86,64,73
69.72656,69.8291,84,64,73
69.84375,69.94629,83,64,73
69.96094,70.06348,81,64,73
70.078125,70.180664,79,64,73
70.19531,70.29785,78,64,73
70.3125,70.41504,76,64,73
70.42969,70.53223,74,64,73
70.546875,70.649414,71,64,73
70.66406,70.7666,72,64,73
70.78125,70.88379,74,64,73
70.89844,71.00098,76,64,73
71.015625,71.118164,78,64,73
71.13281,71.23535,79,64,73
71.25,71.35254,81,64,73
71.36719,71.484375,83,64,73
71.484375,71.60156,81,64,73
71.60156,71.71875,79,64,73
71.71875,71.83594,78,64,73
71.83594,71.953125,79,64,73
71.953125,72.07031,81,64,73
72.07031,72.1875,83,64,73
72.1875,72.29004,84,64,73
72.30469,72.40845,86,64,73
72.53906,72.59766,84,64,73
72.59766,72.65625,83,64,73
72.65625,72.75879,81,64,73
72.77344,72.8772,83,64,73
73.00781,73.11157,86,64,73
73.24219,73.65234,91,64,73
75.58594,75.64453,77,64,73
75.64453,75.703125,76,64,73
75.703125,75.76172,77,64,73
75.76172,75.82031,76,64,73
75.82031,75.9375,74,64,73
75.9375,76.04004,76,64,73
76.05469,76.15845,77,64,73
76.52344,76.58203,77,64,73
76.58203,76.640625,76,64,73
76.640625,76.69922,77,64,73
76.69922,76.75781,76,64,73
76.75781,76.875,74,64,73
76.875,76.97754,76,64,73
76.99219,77.09595,74,64,73
80.74219,82.61719,79,64,73
82.61719,84.25781,82,64,73
84.49219,85.42969,81,64,73
85.42969,86.25,77,64,73
86.36719,86.77734,76,64,73
89.17969,90.52734,84,64,73
95.03906,95.14282,77,64,73
95.27344,95.3772,79,64,73
95.50781,95.61157,81,64,73
95.74219,96.67969,79,64,73
96.67969,97.5,77,64,73
97.61719,98.02734,76,64,73
98.55469,99.020996,76,64,73
99.02344,99.46289,76,64,73
99.49219,99.851074,76,64,73
99.90234,99.96094,79,64,73
99.96094,100.19531,77,64,73
100.19531,100.40039,76,64,73
100.42969,100.63721,76,64,73
100.89844,101.10596,76,64,73
101.36719,102.30469,81,64,73
102.30469,103.125,80,64,73
103.24219,104.17969,81,64,73
104.17969,105.0,79,64,73
105.11719,105.58594,79,64,73
105.58594,105.791016,72,64,73
106.05469,106.15845,71,64,73
106.28906,106.39282,72,64,73
106.52344,106.6272,74,64,73
106.75781,106.86157,76,64,73
106.99219,107.22656,77,64,73
107.22656,107.34375,79,64,73
107.34375,107.44629,81,64,73
107.46094,107.5647,79,64,73
107.69531,107.79907,77,64,73
107.92969,108.03345,76,64,73
108.16406,108.26782,74,64,73
108.39844,108.5022,72,64,73
108.63281,108.73657,74,64,73
108.86719,109.33594,75,64,73
109.33594,109.541016,76,64,73
111.21094,111.67969,76,64,73
111.67969,112.14844,74,64,73
112.14844,112.55859,73,64,73
112.61719,113.08594,74,64,73
113.08594,113.49609,75,64,73
113.55469,114.90234,76,64,73
114.96094,115.42969,78,64,73
115.42969,115.89844,79,64,73
115.89844,116.30859,77,64,73
116.36719,116.47095,76,64,73
116.83594,117.509766,79,64,73
117.53906,117.64282,78,64,73
117.77344,117.8772,77,64,73
118.00781,118.11157,76,64,73
118.24219,118.47656,81,64,73
118.47656,118.59375,83,64,73
118.59375,118.69629,84,64,73
118.71094,118.8147,83,64,73
118.94531,119.04907,81,64,73
119.17969,119.28345,79,64,73
119.41406,119.51782,77,64,73
119.64844,119.7522,76,64,73
119.88281,119.98657,74,64,73
120.11719,120.21973,72,64,73
120.234375,120.336914,74,64,73
120.35156,120.4541,76,64,73
120.46875,120.57129,77,64,73
120.58594,120.68848,79,64,73
120.703125,120.805664,81,64,73
120.82031,120.92285,83,64,73
120.9375,121.04004,84,64,73
121.05469,121.15845,83,64,73
121.28906,121.39282,86,64,73
121.640625,121.743164,77,64,73
121.75781,121.86035,76,64,73
121.875,121.97754,74,64,73
121.99219,122.09473,72,64,73
122.109375,122.211914,74,64,73
122.22656,122.3291,76,64,73
122.34375,122.44629,77,64,73
122.46094,122.56348,79,64,73
122.578125,122.680664,81,64,73
122.69531,122.79785,83,64,73
122.8125,122.91504,84,64,73
122.92969,123.03345,83,64,73
123.16406,123.26782,86,64,73
123.515625,123.618164,77,64,73
123.63281,123.73535,76,64,73
123.75,123.85254,74,64,73
123.86719,123.96973,72,64,73
123.984375,124.086914,74,64,73
124.10156,124.2041,76,64,73
124.21875,124.32129,77,64,73
124.33594,124.43848,79,64,73
124.453125,124.555664,81,64,73
124.57031,124.67285,83,64,73
124.6875,124.79004,84,64,73
124.80469,124.90845,83,64,73
125.03906,125.14282,86,64,73
125.50781,125.61157,83,64,73
125.74219,126.15234,84,64,73
126.21094,126.518555,84,64,73
126.5625,126.66504,84,64,73
126.67969,127.08984,84,64,73
127.5,127.60254,79,64,73
127.61719,128.4375,84,64,73
128.55469,129.16992,88,64,73
129.25781,129.46289,88,64,73
129.49219,130.3125,84,64,73
130.42969,131.04492,88,64,73
131.13281,131.33789,88,64,73
131.36719,132.59766,86,64,73
132.77344,133.00781,84,64,73
133.00781,133.21289,83,64,73
133.24219,133.47656,81,64,73
133.47656,133.68164,79,64,73
133.71094,134.53125,79,64,73
134.64844,134.88281,77,64,73
134.88281,135.08789,76,64,73
135.11719,135.35156,74,64,73
135.35156,135.55664,73,64,73
135.58594,136.40625,73,64,73
136.52344,136.9336,82,64,73
136.99219,137.69531,81,64,73
137.69531,137.90039,84,64,73
137.92969,138.16406,86,64,73
138.16406,138.39844,81,64,73
138.39844,138.63281,82,64,73
138.63281,138.83789,79,64,73
138.86719,139.57031,77,64,73
139.57031,139.6875,79,64,73
139.6875,139.79004,81,64,73
139.80469,140.03906,81,64,73
140.03906,140.24414,79,64,73
140.27344,140.47852,77,64,73
140.50781,140.71289,76,64,73
140.74219,141.15234,74,64,73
143.08594,144.02344,81,64,73
144.02344,144.4336,77,64,73
144.49219,144.90234,74,64,73
146.83594,147.77344,81,64,73
147.77344,148.1836,77,64,73
148.24219,148.65234,84,64,73
150.58594,151.52344,87,64,73
151.52344,151.9336,81,64,73
151.99219,153.63281,82,64,73
153.86719,155.74219,77,64,73
155.74219,157.38281,78,64,73
157.61719,158.02734,81,64,73
159.25781,159.46289,86,64,73
159.49219,160.3125,86,64,73
160.42969,160.66406,84,64,73
160.66406,160.89844,82,64,73
160.89844,161.13281,81,64,73
161.13281,161.33789,79,64,73
161.36719,161.60156,78,64,73
161.60156,161.83594,79,64,73
161.83594,162.07031,81,64,73
162.07031,162.27539,79,64,73
162.30469,162.53906,82,64,73
162.53906,162.74414,79,64,73
162.77344,163.00781,86,64,73
163.00781,163.21289,79,64,73
163.24219,163.47656,77,64,73
163.47656,163.71094,76,64,73
163.71094,163.94531,79,64,73
163.94531,164.15039,77,64,73
164.17969,164.41406,81,64,73
164.41406,164.64844,79,64,73
164.64844,164.88281,82,64,73
164.88281,165.08789,81,64,73
165.11719,165.35156,84,64,73
165.35156,165.58594,82,64,73
165.58594,165.82031,86,64,73
165.82031,166.02539,84,64,73
166.05469,166.28906,83,64,73
166.28906,166.52344,84,64,73
166.52344,166.75781,79,64,73
166.75781,166.96289,82,64,73
166.99219,167.8125,81,64,73
167.92969,168.54492,84,64,73
168.63281,168.83789,84,64,73
168.86719,169.80469,81,64,73
169.80469,170.41992,77,64,73
170.50781,170.71289,77,64,73
170.74219,171.5625,79,64,73
171.67969,171.91406,77,64,73
171.91406,172.14844,76,64,73
172.14844,172.38281,74,64,73
172.38281,172.58789,72,64,73
172.61719,173.02734,77,64,73
173.08594,173.39355,81,64,73
173.4375,173.54004,81,64,73
173.55469,173.96484,77,64,73
174.72656,174.83032,72,64,73
174.96094,175.0647,72,64,73
175.19531,175.29907,72,64,73
175.42969,175.53345,72,64,73
175.66406,175.76782,72,64,73
175.89844,176.0022,72,64,73
176.13281,176.23657,72,64,73
176.36719,176.71875,72,64,73
176.71875,176.82129,77,64,73
176.83594,177.2461,72,64,73
178.71094,179.64844,77,64,73
179.64844,180.0586,76,64,73
180.11719,180.52734,77,64,73
181.99219,182.8125,79,64,73
182.92969,183.54492,79,64,73
183.63281,183.83789,79,64,73
183.86719,185.50781,79,64,73
185.74219,185.84595,81,64,73
186.21094,186.3147,79,64,73
186.67969,186.78345,77,64,73
187.14844,187.2522,76,64,73
187.61719,187.8247,77,64,73
189.96094,190.42725,69,64,73
190.42969,190.896,69,64,73
190.89844,191.33789,69,64,73
191.83594,192.30225,72,64,73
192.30469,192.771,72,64,73
192.77344,193.21289,72,64,73
193.24219,195.52734,72,64,73
195.58594,195.82031,70,64,73
195.82031,196.02539,69,64,73
196.05469,196.2622,70,64,73
196.52344,196.73096,74,64,73
196.99219,197.1997,74,64,73
200.74219,202.61719,74,64,73
202.61719,202.82227,72,64,73
203.08594,203.55225,82,64,73
203.55469,204.021,82,64,73
204.02344,204.46289,82,64,73
204.49219,206.36719,81,64,73
206.36719,206.57227,79,64,73
206.83594,206.9397,82,64,73
207.30469,207.40845,82,64,73
207.77344,207.8772,82,64,73
208.24219,210.11719,81,64,73
210.11719,210.32227,79,64,73
212.46094,212.8125,72,64,73
212.8125,212.91504,74,64,73
212.92969,213.1372,76,64,73
213.39844,213.60596,79,64,73
214.33594,214.6875,81,64,73
214.6875,214.79004,77,64,73
214.80469,215.0122,72,64,73
215.27344,215.48096,69,64,73
216.21094,216.32812,72,64,73
216.32812,216.44531,74,64,73
216.44531,216.5625,76,64,73
216.5625,216.66504,77,64,73
216.67969,216.78345,79,64,73
217.14844,217.2522,84,64,73
218.08594,218.4375,81,64,73
218.4375,218.54004,77,64,73
218.55469,218.65845,72,64,73
219.02344,219.1272,69,64,73
219.49219,221.57227,77,64,73
221.60156,221.71875,77,64,73
221.71875,221.82129,74,64,73
221.83594,222.04346,70,64,73
223.47656,223.58032,74,64,73
223.71094,223.8147,74,64,73
223.94531,224.04907,74,64,73
224.17969,224.3872,74,64,73
225.35156,225.45532,74,64,73
225.58594,225.6897,74,64,73
225.82031,225.92407,74,64,73
226.28906,226.39282,74,64,73
226.52344,226.6272,74,64,73
226.75781,226.86157,74,64,73
226.99219,228.13477,74,64,73
228.16406,228.26782,77,64,73
228.39844,228.5022,77,64,73
228.63281,228.73657,77,64,73
228.86719,229.33594,77,64,73
229.33594,229.7461,72,64,73
230.03906,230.14282,69,64,73
230.27344,230.3772,72,64,73
230.50781,230.61157,69,64,73
230.74219,231.21094,70,64,73
231.21094,231.6211,67,64,73
231.91406,232.01782,76,64,73
232.14844,232.2522,79,64,73
232.38281,232.48657,70,64,73
232.61719,233.02734,69,64,73
238.71094,238.82812,75,64,73
238.82812,238.94531,74,64,73
238.94531,239.0625,72,64,73
239.0625,239.16504,74,64,73
239.17969,239.28345,75,64,73
239.64844,239.76562,75,64,73
239.76562,239.88281,74,64,73
239.88281,240.0,72,64,73
240.0,240.10254,74,64,73
240.11719,240.3247,72,64,73
241.05469,242.40234,72,64,73
242.92969,244.27734,72,64,73
245.74219,247.38281,72,64,73
247.61719,247.8247,74,64,73
248.55469,248.7622,74,64,73
249.49219,249.6997,74,64,73
250.42969,251.83594,79,64,73
251.83594,252.50977,77,64,73
252.53906,252.64282,84,64,73
252.77344,252.8772,81,64,73
253.00781,253.11157,77,64,73
253.24219,253.29834,77,64,73
253.30078,253.35938,76,64,73
253.35938,253.41797,77,64,73
253.41797,253.47656,76,64,73
253.47656,253.53516,77,64,73
253.53516,253.59375,76,64,73
253.59375,253.65234,77,64,73
253.65234,253.71094,76,64,73
253.71094,253.76953,77,64,73
253.76953,253.82812,76,64,73
253.82812,253.88672,77,64,73
253.88672,253.94531,76,64,73
253.94531,254.0039,77,64,73
254.0039,254.0625,76,64,73
254.0625,254.1211,77,64,73
254.1211,254.17969,76,64,73
254.17969,254.23828,77,64,73
254.23828,254.29688,76,64,73
254.29688,254.35547,77,64,73
254.35547,254.41406,76,64,73
254.41406,254.47266,77,64,73
254.47266,254.53125,76,64,73
254.53125,254.58984,77,64,73
254.58984,254.64844,76,64,73
254.64844,254.70703,77,64,73
254.70703,254.76562,76,64,73
254.76562,254.82422,77,64,73
254.82422,254.88281,76,64,73
254.88281,255.0,74,64,73
255.0,255.10254,76,64,73
255.11719,255.52734,77,64,73
256.0547,256.521,81,64,73
256.52344,256.9629,81,64,73
256.9922,257.40234,81,64,73
257.46094,257.57812,84,64,73
257.57812,257.6953,82,64,73
257.6953,257.9004,81,64,73
257.9297,258.396,81,64,73
258.39844,258.8379,81,64,73
258.8672,259.8047,86,64,73
259.8047,260.625,85,64,73
260.7422,261.6797,86,64,73
261.6797,262.5,84,64,73
262.6172,263.08594,84,64,73
263.08594,263.4961,77,64,73
263.78906,263.89282,77,64,73
264.02344,264.1272,79,64,73
264.2578,264.36157,81,64,73
264.4922,264.72656,82,64,73
264.72656,264.84375,84,64,73
264.84375,264.9463,86,64,73
264.96094,265.0647,84,64,73
265.1953,265.29907,82,64,73
265.4297,265.53345,81,64,73
265.66406,265.76782,79,64,73
265.89844,266.0022,77,64,73
266.1328,266.23657,76,64,73
266.3672,266.60156,76,64,73
266.60156,266.80664,77,64,73
266.83594,267.04102,77,64,73
268.71094,269.1797,81,64,73
269.1797,269.64844,79,64,73
269.64844,270.0586,78,64,73
270.1172,270.58594,79,64,73
270.58594,271.0547,80,64,73
271.0547,272.40234,81,64,73
272.46094,272.9297,83,64,73
272.9297,273.39844,84,64,73
273.39844,273.8086,82,64,73
273.8672,273.97095,81,64,73
274.33594,275.15625,84,64,73
275.27344,275.6836,84,64,73
275.7422,275.97656,86,64,73
275.97656,276.09375,88,64,73
276.09375,276.1963,89,64,73
276.21094,276.3147,88,64,73
276.4453,276.54907,86,64,73
276.6797,276.78345,84,64,73
276.91406,277.01782,82,64,73
277.14844,277.2522,81,64,73
277.3828,277.48657,79,64,73
277.6172,279.2578,81,64,73
279.4922,281.1328,82,64,73
281.3672,283.0078,81,64,73
283.2422,284.8828,82,64,73
285.1172,285.23438,81,64,73
285.23438,285.3369,77,64,73
285.35156,285.40283,81,64,73
285.46875,285.52002,84,64,73
285.58594,285.70312,82,64,73
285.70312,285.8203,81,64,73
285.8203,285.9375,79,64,73
285.9375,286.04004,81,64,73
286.0547,286.2622,82,64,73
286.9922,287.10938,81,64,73
287.10938,287.2119,77,64,73
287.22656,287.27783,81,64,73
287.34375,287.39502,84,64,73
287.46094,287.57812,82,64,73
287.57812,287.6953,81,64,73
287.6953,287.8125,79,64,73
287.8125,287.91504,81,64,73
287.9297,288.1372,82,64,73
288.8672,288.98438,81,64,73
288.98438,289.0869,77,64,73
289.10156,289.15283,81,64,73
289.21875,289.27002,84,64,73
289.33594,289.45312,82,64,73
289.45312,289.5703,81,64,73
289.5703,289.6875,79,64,73
289.6875,289.79004,81,64,73
289.8047,290.0122,82,64,73
290.5078,290.61157,88,64,73
290.7422,291.15234,89,64,73
291.21094,291.51855,89,64,73
291.5625,291.66504,89,64,73
291.6797,292.08984,89,64,73
0.0,0.10253906,72,64,68
0.1171875,0.9375,77,64,68
1.0546875,1.6699219,72,64,68
1.7578125,1.9628906,72,64,68
1.9921875,2.9296875,69,64,68
2.9296875,3.5449219,65,64,68
3.6328125,3.8378906,65,64,68
3.8671875,4.6875,67,64,68
4.8046875,5.0390625,65,64,68
5.0390625,5.2734375,64,64,68
5.2734375,5.5078125,62,64,68
5.5078125,5.7128906,60,64,68
5.7421875,6.1523438,65,64,68
6.2109375,6.5185547,69,64,68
6.5625,6.665039,69,64,68
6.6796875,7.0898438,65,64,68
9.7265625,9.830322,72,64,68
9.9609375,10.064697,72,64,68
10.1953125,10.299072,72,64,68
10.4296875,10.6640625,72,64,68
10.6640625,10.869141,69,64,68
11.6015625,11.705322,72,64,68
11.8359375,11.939697,72,64,68
12.0703125,12.174072,72,64,68
12.3046875,12.408447,72,64,68
12.5390625,12.642822,72,64,68
12.7734375,12.877197,72,64,68
13.0078125,13.111572,72,64,68
13.2421875,13.4765625,72,64,68
13.4765625,13.681641,69,64,68
13.7109375,13.814697,77,64,68
13.9453125,14.049072,72,64,68
14.1796875,14.387207,69,64,68
15.1171875,15.9375,79,64,68
16.054688,16.669922,79,64,68
16.757812,16.96289,79,64,68
16.992188,18.632812,79,64,68
18.867188,18.970947,81,64,68
19.335938,19.439697,79,64,68
19.804688,19.908447,77,64,68
20.273438,20.377197,76,64,68
20.742188,21.152344,77,64,68
23.085938,23.4375,76,64,68
23.4375,23.554688,79,64,68
23.554688,23.90625,77,64,68
23.90625,24.023438,81,64,68
24.023438,24.375,79,64,68
24.375,24.47754,82,64,68
24.492188,24.699707,81,64,68
26.835938,27.1875,76,64,68
27.1875,27.304688,79,64,68
27.304688,27.65625,77,64,68
27.65625,27.773438,81,64,68
27.773438,28.125,79,64,68
28.125,28.22754,82,64,68
28.242188,28.345947,81,64,68
28.476562,28.59375,81,64,68
28.59375,28.69629,77,64,68
28.710938,28.828125,72,64,68
28.828125,28.930664,69,64,68
28.945312,28.996582,77,64,68
29.0625,29.11377,72,64,68
29.179688,29.296875,69,64,68
29.296875,29.399414,72,64,68
29.414062,29.465332,77,64,68
29.53125,29.58252,81,64,68
29.648438,29.752197,77,64,68
30.820312,30.924072,72,64,68
31.054688,31.289062,70,64,68
31.289062,31.523438,69,64,68
31.523438,31.757812,67,64,68
31.757812,31.96289,70,64,68
31.992188,32.199707,69,64,68
32.695312,32.799072,74,64,68
32.929688,33.164062,72,64,68
33.164062,33.398438,70,64,68
33.398438,33.632812,69,64,68
33.632812,33.83789,72,64,68
33.867188,34.074707,70,64,68
35.039062,35.273438,72,64,68
35.273438,35.507812,74,64,68
35.507812,35.71289,75,64,68
35.742188,38.027344,74,64,68
38.085938,38.293457,74,64,68
38.554688,38.762207,74,64,68
39.023438,39.230957,74,64,68
39.492188,39.902344,67,64,68
39.960938,40.78125,72,64,68
40.898438,41.777344,72,64,68
41.835938,42.65625,72,64,68
42.773438,43.652344,72,64,68
43.710938,44.018555,76,64,68
44.0625,44.16504,76,64,68
44.179688,44.589844,76,64,68
46.992188,47.695312,79,64,68
47.695312,47.929688,78,64,68
47.929688,48.164062,77,64,68
48.164062,48.398438,76,64,68
48.398438,48.632812,77,64,68
48.632812,48.83789,74,64,68
48.867188,49.804688,73,64,68
49.804688,50.625,76,64,68
50.742188,51.679688,77,64,68
51.679688,53.027344,74,64,68
53.789062,54.023438,79,64,68
54.023438,54.257812,77,64,68
54.257812,54.46289,76,64,68
54.492188,55.195312,74,64,68
55.195312,55.40039,76,64,68
55.429688,56.132812,77,64,68
56.132812,56.33789,76,64,68
56.367188,57.070312,74,64,68
57.070312,57.27539,72,64,68
57.304688,57.408447,71,64,68
57.773438,58.125,71,64,68
58.125,58.183594,72,64,68
58.183594,58.234863,74,64,68
58.242188,58.447266,72,64,68
58.710938,59.179688,76,64,68
59.179688,59.648438,74,64,68
59.648438,60.058594,76,64,68
60.117188,60.527344,74,64,68
64.33594,65.15625,67,64,68
65.27344,65.48096,79,64,68
65.74219,66.21094,79,64,68
66.21094,66.62109,71,64,68
66.67969,67.14844,79,64,68
67.14844,67.55859,72,64,68
67.61719,68.08594,79,64,68
68.08594,68.49609,74,64,68
68.55469,69.25781,79,64,68
69.25781,69.46289,78,64,68
69.49219,69.59473,79,64,68
69.609375,69.711914,83,64,68
69.72656,69.8291,81,64,68
69.84375,69.94629,79,64,68
69.96094,70.06348,78,64,68
70.078125,70.180664,76,64,68
70.19531,70.29785,74,64,68
70.3125,70.41504,72,64,68
70.42969,70.53223,71,64,68
70.546875,70.649414,67,64,68
70.66406,70.7666,69,64,68
70.78125,70.88379,71,64,68
70.89844,71.00098,72,64,68
71.015625,71.118164,74,64,68
71.13281,71.23535,76,64,68
71.25,71.35254,78,64,68
71.36719,72.509766,79,64,68
72.53906,72.64282,83,64,68
72.77344,72.8772,79,64,68
73.00781,73.11157,74,64,68
73.24219,73.65234,71,64,68
75.58594,75.64453,74,64,68
75.64453,75.703125,72,64,68
75.703125,75.76172,74,64,68
75.76172,75.82031,72,64,68
75.82031,75.9375,71,64,68
75.9375,76.04004,72,64,68
76.05469,76.15845,74,64,68
76.52344,76.58203,74,64,68
76.58203,76.640625,72,64,68
76.640625,76.69922,74,64,68
76.69922,76.75781,72,64,68
76.75781,76.875,71,64,68
76.875,76.97754,72,64,68
76.99219,77.09595,71,64,68
80.97656,81.08032,76,64,68
81.21094,81.3147,72,64,68
81.44531,81.54907,67,64,68
81.67969,82.08984,64,64,68
82.85156,82.95532,79,64,68
83.08594,83.1897,76,64,68
83.32031,83.42407,72,64,68
83.55469,83.96484,67,64,68
84.72656,84.83032,81,64,68
84.96094,85.0647,77,64,68
85.19531,85.29907,72,64,68
85.42969,85.83984,69,64,68
87.77344,87.890625,78,64,68
87.890625,88.00781,79,64,68
88.00781,88.125,81,64,68
88.125,88.22754,79,64,68
88.24219,88.34595,76,64,68
88.47656,88.58032,76,64,68
88.71094,88.8147,76,64,68
88.94531,89.04907,76,64,68
89.17969,90.11719,77,64,68
90.11719,90.52734,76,64,68
92.92969,93.63281,69,64,68
93.63281,93.83789,65,64,68
93.86719,94.10156,64,64,68
94.10156,94.21875,65,64,68
94.21875,94.33594,67,64,68
94.33594,94.453125,69,64,68
94.453125,94.57031,71,64,68
94.57031,94.6875,72,64,68
94.6875,94.79004,74,64,68
94.80469,95.21484,76,64,68
95.50781,95.61157,72,64,68
95.74219,95.79834,72,64,68
95.80078,95.859375,71,64,68
95.859375,95.91797,72,64,68
95.91797,95.97656,71,64,68
95.97656,96.03516,72,64,68
96.03516,96.09375,71,64,68
96.09375,96.15234,72,64,68
96.15234,96.21094,71,64,68
96.21094,96.26953,72,64,68
96.26953,96.328125,71,64,68
96.328125,96.38672,72,64,68
96.38672,96.44531,71,64,68
96.44531,96.50391,72,64,68
96.50391,96.5625,71,64,68
96.5625,96.62109,72,64,68
96.62109,96.67969,71,64,68
96.67969,96.73828,72,64,68
96.73828,96.796875,71,64,68
96.796875,96.85547,72,64,68
96.85547,96.91406,71,64,68
96.91406,96.97266,72,64,68
96.97266,97.03125,71,64,68
97.03125,97.08984,72,64,68
97.08984,97.14844,71,64,68
97.14844,97.20703,72,64,68
97.20703,97.265625,71,64,68
97.265625,97.32422,72,64,68
97.32422,97.38281,71,64,68
97.38281,97.5,69,64,68
97.5,97.60254,71,64,68
97.61719,98.02734,72,64,68
98.55469,99.02344,76,64,68
99.02344,99.49219,74,64,68
99.49219,100.42969,72,64,68
100.42969,100.89844,71,64,68
100.89844,101.30859,70,64,68
101.36719,102.30469,69,64,68
102.30469,103.125,71,64,68
103.24219,103.65234,69,64,68
103.71094,104.384766,74,64,68
104.41406,104.51782,71,64,68
104.64844,104.7522,72,64,68
104.88281,104.98657,74,64,68
105.11719,106.34766,67,64,68
106.52344,106.93359,67,64,68
106.99219,107.8125,69,64,68
107.92969,108.54492,67,64,68
108.63281,108.83789,71,64,68
108.86719,109.33594,71,64,68
109.33594,109.541016,72,64,68
109.80469,110.27344,76,64,68
110.27344,110.74219,74,64,68
110.74219,111.67969,72,64,68
111.67969,112.14844,71,64,68
112.14844,112.55859,70,64,68
112.61719,113.55469,69,64,68
113.55469,114.375,71,64,68
114.49219,114.90234,69,64,68
114.96094,115.634766,74,64,68
115.66406,115.76782,71,64,68
115.89844,116.0022,72,64,68
116.13281,116.23657,74,64,68
116.36719,117.59766,67,64,68
117.77344,118.18359,67,64,68
118.24219,119.384766,69,64,68
119.41406,119.51782,69,64,68
119.64844,119.7522,67,64,68
119.88281,119.98657,65,64,68
120.11719,120.21973,64,64,68
120.234375,120.336914,65,64,68
120.35156,120.4541,67,64,68
120.46875,120.57129,69,64,68
120.58594,120.68848,71,64,68
120.703125,120.805664,72,64,68
120.82031,120.92285,74,64,68
120.9375,121.04004,76,64,68
121.05469,121.15845,74,64,68
121.28906,121.39282,77,64,68
121.75781,121.86157,65,64,68
121.99219,122.09473,64,64,68
122.109375,122.211914,65,64,68
122.22656,122.3291,67,64,68
122.34375,122.44629,69,64,68
122.46094,122.56348,71,64,68
122.578125,122.680664,72,64,68
122.69531,122.79785,74,64,68
122.8125,122.91504,76,64,68
122.92969,123.03345,74,64,68
123.16406,123.26782,77,64,68
123.63281,123.73657,65,64,68
123.86719,123.96973,64,64,68
123.984375,124.086914,65,64,68
124.10156,124.2041,67,64,68
124.21875,124.32129,69,64,68
124.33594,124.43848,71,64,68
124.453125,124.555664,72,64,68
124.57031,124.67285,74,64,68
124.6875,124.79004,76,64,68
124.80469,124.90845,74,64,68
125.03906,125.14282,77,64,68
125.50781,125.61157,74,64,68
125.74219,126.15234,72,64,68
126.21094,126.518555,72,64,68
126.5625,126.66504,72,64,68
126.67969,127.08984,72,64,68
127.5,127.60254,67,64,68
127.61719,128.4375,72,64,68
128.55469,129.16992,76,64,68
129.25781,129.46289,76,64,68
129.49219,130.3125,72,64,68
130.42969,131.04492,76,64,68
131.13281,131.33789,76,64,68
131.36719,132.59766,74,64,68
132.77344,133.00781,72,64,68
133.00781,133.21289,71,64,68
133.24219,133.47656,69,64,68
133.47656,133.68164,67,64,68
133.71094,134.53125,67,64,68
134.64844,134.88281,65,64,68
134.88281,135.08789,64,64,68
135.11719,136.52344,64,64,68
136.52344,136.9336,73,64,68
136.99219,137.8125,74,64,68
140.50781,140.71289,81,64,68
140.74219,141.5625,81,64,68
141.67969,141.91406,79,64,68
141.91406,142.14844,77,64,68
142.14844,142.38281,76,64,68
142.38281,142.58789,74,64,68
142.61719,142.85156,73,64,68
142.85156,143.08594,74,64,68
143.08594,143.32031,76,64,68
143.32031,143.52539,74,64,68
143.55469,143.65845,77,64,68
143.78906,144.02344,74,64,68
144.02344,144.25781,73,64,68
144.25781,144.46289,74,64,68
144.49219,145.3125,81,64,68
145.42969,145.66406,79,64,68
145.66406,145.89844,77,64,68
145.89844,146.13281,76,64,68
146.13281,146.33789,74,64,68
146.36719,146.60156,73,64,68
146.60156,146.83594,74,64,68
146.83594,147.07031,76,64,68
147.07031,147.27539,74,64,68
147.30469,147.40845,77,64,68
147.53906,147.77344,74,64,68
147.77344,148.00781,73,64,68
148.00781,148.21289,74,64,68
148.24219,149.0625,75,64,68
149.17969,149.41406,77,64,68
149.41406,149.64844,75,64,68
149.64844,149.88281,74,64,68
149.88281,150.08789,72,64,68
150.11719,150.35156,70,64,68
150.35156,150.58594,69,64,68
150.58594,150.82031,81,64,68
150.82031,151.05469,77,64,68
151.05469,151.28906,84,64,68
151.28906,151.52344,81,64,68
151.52344,151.75781,77,64,68
151.75781,151.96289,75,64,68
151.99219,155.50781,74,64,68
155.74219,158.08594,72,64,68
158.08594,159.02344,69,64,68
159.02344,159.4336,78,64,68
159.49219,161.13281,79,64,68
161.36719,163.00781,74,64,68
163.24219,163.65234,67,64,68
166.875,166.97754,72,64,68
166.99219,167.8125,77,64,68
167.92969,168.54492,72,64,68
168.63281,168.83789,72,64,68
168.86719,169.80469,69,64,68
169.80469,170.41992,65,64,68
170.50781,170.71289,65,64,68
170.74219,171.5625,67,64,68
171.67969,171.91406,65,64,68
171.91406,172.14844,64,64,68
172.14844,172.38281,62,64,68
172.38281,172.58789,60,64,68
172.61719,173.02734,65,64,68
173.08594,173.39355,69,64,68
173.4375,173.54004,69,64,68
173.55469,173.96484,65,64,68
176.60156,176.70532,72,64,68
176.83594,176.9397,72,64,68
177.07031,177.17407,72,64,68
177.30469,177.53906,72,64,68
177.53906,177.74414,69,64,68
178.47656,178.58032,72,64,68
178.71094,178.8147,72,64,68
178.94531,179.04907,72,64,68
179.17969,179.28345,72,64,68
179.41406,179.51782,72,64,68
179.64844,179.7522,72,64,68
179.88281,179.98657,72,64,68
180.11719,180.35156,72,64,68
180.35156,180.55664,69,64,68
180.58594,180.6897,77,64,68
180.82031,180.92407,72,64,68
181.05469,181.2622,69,64,68
181.99219,182.8125,74,64,68
182.92969,183.54492,74,64,68
183.63281,183.83789,74,64,68
183.86719,185.9497,72,64,68
186.67969,186.8872,72,64,68
187.61719,187.8247,72,64,68
189.96094,190.42725,65,64,68
190.42969,190.896,65,64,68
190.89844,191.33789,65,64,68
191.83594,192.30225,65,64,68
192.30469,192.771,65,64,68
192.77344,193.21289,65,64,68
193.24219,195.3247,65,64,68
195.58594,195.79346,65,64,68
196.05469,196.2622,65,64,68
196.52344,196.75781,70,64,68
196.75781,196.96289,69,64,68
196.99219,197.22656,72,64,68
197.22656,197.43164,70,64,68
197.46094,198.39844,67,64,68
198.39844,198.8086,66,64,68
199.33594,199.54346,67,64,68
199.80469,200.0122,67,64,68
200.27344,200.48096,67,64,68
201.21094,201.41846,67,64,68
201.67969,201.8872,67,64,68
202.14844,202.35596,67,64,68
202.61719,202.82227,67,64,68
203.08594,203.55225,76,64,68
203.55469,204.021,76,64,68
204.02344,204.46289,76,64,68
204.49219,206.36719,77,64,68
206.36719,206.57227,76,64,68
206.83594,206.9397,76,64,68
207.30469,207.40845,76,64,68
207.77344,207.8772,76,64,68
208.24219,210.11719,77,64,68
210.11719,210.32227,76,64,68
211.28906,211.39282,72,64,68
211.52344,211.6272,72,64,68
211.75781,211.86157,72,64,68
211.99219,212.22656,72,64,68
212.22656,212.46094,74,64,68
212.46094,212.69531,76,64,68
212.69531,212.90039,77,64,68
212.92969,213.16406,81,64,68
213.16406,213.39844,79,64,68
213.39844,213.63281,77,64,68
213.63281,213.83789,76,64,68
213.86719,214.21875,77,64,68
214.21875,214.32129,81,64,68
214.33594,215.00977,72,64,68
215.03906,215.14282,72,64,68
215.27344,215.3772,72,64,68
215.50781,215.61157,72,64,68
215.74219,215.85938,72,64,68
215.85938,215.97656,74,64,68
215.97656,216.09375,76,64,68
216.09375,216.19629,77,64,68
216.21094,216.32812,76,64,68
216.32812,216.44531,77,64,68
216.44531,216.5625,79,64,68
216.5625,216.66504,81,64,68
216.67969,216.78345,82,64,68
216.91406,217.01782,79,64,68
217.14844,217.2522,77,64,68
217.38281,217.48657,76,64,68
217.61719,217.96875,77,64,68
217.96875,218.07129,81,64,68
218.08594,218.75977,72,64,68
218.78906,218.90625,84,64,68
218.90625,219.00879,81,64,68
219.02344,219.1272,77,64,68
219.25781,219.375,81,64,68
219.375,219.47754,77,64,68
219.49219,219.59595,72,64,68
219.72656,219.84375,77,64,68
219.84375,219.94629,72,64,68
219.96094,220.0647,69,64,68
220.19531,220.3125,72,64,68
220.3125,220.41504,69,64,68
220.42969,221.13281,65,64,68
221.13281,221.33789,63,64,68
221.36719,221.77734,62,64,68
222.07031,222.1582,74,64,68
222.1582,222.1875,76,64,68
222.1875,222.29004,73,64,68
222.30469,222.50977,74,64,68
222.53906,222.64282,74,64,68
222.77344,222.8772,76,64,68
223.00781,223.11157,78,64,68
223.24219,223.71094,81,64,68
223.71094,223.89038,79,64,68
223.91602,223.94531,76,64,68
223.94531,224.0625,74,64,68
224.0625,224.16504,73,64,68
224.17969,224.38477,74,64,68
224.41406,224.51782,74,64,68
224.64844,224.7522,76,64,68
224.88281,224.98657,78,64,68
225.11719,225.58594,81,64,68
225.58594,225.79102,79,64,68
225.82031,225.92407,78,64,68
226.05469,226.52344,81,64,68
226.52344,226.72852,79,64,68
226.75781,226.84814,78,64,68
226.96289,226.99219,81,64,68
226.99219,227.10938,79,64,68
227.10938,227.22656,78,64,68
227.22656,227.34375,79,64,68
227.34375,227.42065,81,64,68
227.43164,227.46094,84,64,68
227.46094,227.57812,82,64,68
227.57812,227.69531,81,64,68
227.69531,227.8125,82,64,68
227.8125,227.91504,84,64,68
227.92969,228.33984,86,64,68
228.39844,228.8086,89,64,68
228.86719,229.48242,60,64,68
229.57031,229.6875,77,64,68
229.6875,229.79004,81,64,68
229.80469,229.90845,84,64,68
230.03906,230.14282,81,64,68
230.27344,230.3772,79,64,68
230.50781,230.61157,77,64,68
230.74219,230.80078,81,64,68
230.80078,230.85938,79,64,68
230.85938,230.91797,81,64,68
230.91797,230.97656,79,64,68
230.97656,231.03516,81,64,68
231.03516,231.09375,79,64,68
231.09375,231.15234,81,64,68
231.15234,231.21094,79,64,68
231.21094,231.26953,81,64,68
231.26953,231.32812,79,64,68
231.32812,231.38672,81,64,68
231.38672,231.44531,79,64,68
231.44531,231.5039,81,64,68
231.5039,231.5625,79,64,68
231.5625,231.6211,81,64,68
231.6211,231.67969,79,64,68
231.67969,231.73828,81,64,68
231.73828,231.79688,79,64,68
231.79688,231.85547,81,64,68
231.85547,231.91406,79,64,68
231.91406,231.97266,81,64,68
231.97266,232.03125,79,64,68
232.03125,232.08984,81,64,68
232.08984,232.14844,79,64,68
232.14844,232.20703,81,64,68
232.20703,232.26562,79,64,68
232.26562,232.32422,81,64,68
232.32422,232.38281,79,64,68
232.38281,232.5,77,64,68
232.5,232.60254,79,64,68
232.61719,233.02734,77,64,68
238.71094,238.82812,72,64,68
238.82812,238.94531,70,64,68
238.94531,239.0625,69,64,68
239.0625,239.16504,70,64,68
239.17969,239.28345,72,64,68
239.64844,239.76562,72,64,68
239.76562,239.88281,70,64,68
239.88281,240.0,69,64,68
240.0,240.10254,70,64,68
240.11719,240.3247,69,64,68
241.05469,241.99219,67,64,68
241.99219,242.40234,69,64,68
242.92969,243.86719,67,64,68
243.86719,244.27734,69,64,68
245.74219,248.02734,65,64,68
248.55469,248.7622,65,64,68
249.49219,249.6997,65,64,68
250.66406,250.76782,74,64,68
250.89844,251.0022,74,64,68
251.13281,251.23657,74,64,68
251.60156,251.70532,72,64,68
251.83594,251.9397,72,64,68
252.07031,252.17407,72,64,68
252.53906,252.64282,81,64,68
252.77344,252.8772,77,64,68
253.00781,253.11157,72,64,68
253.47656,253.58032,82,64,68
253.71094,253.8147,79,64,68
253.94531,254.04907,76,64,68
254.17969,254.28345,72,64,68
254.41406,254.51782,70,64,68
254.64844,254.7522,67,64,68
254.88281,254.98657,64,64,68
255.11719,255.52734,65,64,68
256.0547,256.52344,81,64,68
256.52344,256.9336,79,64,68
256.9922,257.9297,77,64,68
257.9297,258.39844,76,64,68
258.39844,258.8086,75,64,68
258.8672,259.8047,74,64,68
259.8047,260.625,76,64,68
260.7422,261.21094,74,64,68
261.21094,261.88477,79,64,68
261.91406,262.01782,76,64,68
262.14844,262.2522,77,64,68
262.3828,262.48657,79,64,68
262.6172,263.84766,72,64,68
264.02344,264.4336,72,64,68
264.4922,265.4297,74,64,68
265.4297,266.04492,72,64,68
266.1328,266.3379,72,64,68
266.3672,266.77734,72,64,68
266.83594,267.77344,81,64,68
267.77344,268.1836,79,64,68
268.2422,269.1797,77,64,68
269.1797,269.64844,76,64,68
269.64844,270.0586,75,64,68
270.1172,271.0547,74,64,68
271.0547,271.875,76,64,68
271.9922,272.46094,74,64,68
272.46094,273.13477,79,64,68
273.16406,273.26782,76,64,68
273.39844,273.5022,77,64,68
273.6328,273.73657,79,64,68
273.8672,275.00977,72,64,68
275.03906,275.14282,71,64,68
275.27344,275.3772,70,64,68
275.5078,275.61157,69,64,68
275.7422,276.5625,74,64,68
276.6797,277.3828,72,64,68
277.3828,277.5879,76,64,68
277.6172,279.90234,77,64,68
279.96094,280.78125,79,64,68
280.89844,281.25,79,64,68
281.25,281.35254,76,64,68
281.3672,283.65234,77,64,68
283.71094,284.53125,79,64,68
284.64844,285.0,79,64,68
285.0,285.10254,76,64,68
285.1172,285.23438,77,64,68
285.23438,285.3369,72,64,68
285.35156,285.40283,77,64,68
285.46875,285.52002,81,64,68
285.58594,285.70312,79,64,68
285.70312,285.8203,77,64,68
285.8203,285.9375,76,64,68
285.9375,286.04004,77,64,68
286.0547,286.2622,79,64,68
286.9922,287.10938,77,64,68
287.10938,287.2119,72,64,68
287.22656,287.27783,77,64,68
287.34375,287.39502,81,64,68
287.46094,287.57812,79,64,68
287.57812,287.6953,77,64,68
287.6953,287.8125,76,64,68
287.8125,287.91504,77,64,68
287.9297,288.1372,79,64,68
288.8672,288.98438,77,64,68
288.98438,289.0869,72,64,68
289.10156,289.15283,77,64,68
289.21875,289.27002,81,64,68
289.33594,289.45312,79,64,68
289.45312,289.5703,77,64,68
289.5703,289.6875,76,64,68
289.6875,289.79004,77,64,68
289.8047,290.0122,79,64,68
290.5078,290.61157,82,64,68
290.7422,291.15234,81,64,68
291.21094,291.51855,81,64,68
291.5625,291.66504,81,64,68
291.6797,292.08984,77,64,68
0.0,0.10253906,72,64,71
0.1171875,0.9375,77,64,71
1.0546875,1.6699219,72,64,71
1.7578125,1.9628906,72,64,71
1.9921875,2.9296875,69,64,71
2.9296875,3.5449219,65,64,71
3.6328125,3.8378906,65,64,71
3.8671875,4.6875,67,64,71
4.8046875,5.0390625,65,64,71
5.0390625,5.2734375,64,64,71
5.2734375,5.5078125,62,64,71
5.5078125,5.7128906,60,64,71
5.7421875,6.1523438,65,64,71
6.2109375,6.5185547,69,64,71
6.5625,6.665039,69,64,71
6.6796875,7.0898438,65,64,71
8.0859375,9.0234375,60,64,71
9.0234375,9.433594,58,64,71
9.4921875,9.595947,57,64,71
9.7265625,9.830322,65,64,71
9.9609375,10.064697,60,64,71
10.1953125,10.299072,57,64,71
10.4296875,10.839844,53,64,71
11.8359375,12.7734375,65,64,71
12.7734375,13.183594,67,64,71
13.2421875,13.345947,69,64,71
13.4765625,13.580322,65,64,71
13.7109375,13.814697,60,64,71
13.9453125,14.049072,57,64,71
14.1796875,14.387207,53,64,71
14.6484375,15.9375,77,64,71
16.054688,16.669922,77,64,71
16.757812,16.96289,77,64,71
16.992188,18.632812,76,64,71
18.867188,18.970947,77,64,71
19.335938,19.439697,74,64,71
19.804688,19.908447,72,64,71
20.273438,20.377197,70,64,71
20.742188,21.152344,69,64,71
23.085938,23.4375,72,64,71
23.4375,23.554688,76,64,71
23.554688,23.90625,74,64,71
23.90625,24.023438,77,64,71
24.023438,24.375,76,64,71
24.375,24.47754,79,64,71
24.492188,24.699707,77,64,71
26.835938,27.1875,72,64,71
27.1875,27.304688,76,64,71
27.304688,27.65625,74,64,71
27.65625,27.773438,77,64,71
27.773438,28.125,76,64,71
28.125,28.22754,79,64,71
28.242188,28.345947,77,64,71
28.476562,28.59375,77,64,71
28.59375,28.69629,72,64,71
28.710938,28.828125,69,64,71
28.828125,28.930664,65,64,71
28.945312,28.996582,60,64,71
29.0625,29.11377,57,64,71
29.179688,29.296875,53,64,71
29.296875,29.399414,60,64,71
29.414062,29.465332,57,64,71
29.53125,29.58252,60,64,71
29.648438,29.752197,53,64,71
31.289062,31.757812,72,64,71
31.757812,31.96289,76,64,71
31.992188,32.199707,77,64,71
33.164062,33.632812,72,64,71
33.632812,33.83789,78,64,71
33.867188,34.074707,79,64,71
34.570312,34.77539,75,64,71
34.804688,35.039062,74,64,71
35.039062,35.273438,72,64,71
35.273438,35.507812,70,64,71
35.507812,35.71289,69,64,71
35.742188,35.845947,67,64,71
37.148438,37.5,82,64,71
37.5,37.60254,81,64,71
37.617188,37.824707,79,64,71
38.085938,38.293457,67,64,71
39.726562,39.814453,67,64,71
39.814453,39.84375,69,64,71
39.84375,39.94629,66,64,71
39.960938,40.064697,67,64,71
40.195312,40.299072,72,64,71
40.664062,40.751953,65,64,71
40.751953,40.78125,67,64,71
40.78125,40.88379,64,64,71
40.898438,41.002197,65,64,71
41.132812,41.236572,69,64,71
41.572266,41.601562,69,64,71
41.601562,41.71875,67,64,71
41.71875,41.82129,66,64,71
41.835938,41.939697,67,64,71
42.070312,42.174072,72,64,71
42.539062,42.626953,65,64,71
42.626953,42.65625,67,64,71
42.65625,42.75879,64,64,71
42.773438,42.877197,65,64,71
43.007812,43.111572,69,64,71
43.242188,43.652344,67,64,71
43.710938,44.018555,67,64,71
44.0625,44.16504,67,64,71
44.179688,44.589844,67,64,71
48.867188,49.570312,81,64,71
49.570312,49.804688,80,64,71
49.804688,50.039062,79,64,71
50.039062,50.273438,78,64,71
50.273438,50.507812,79,64,71
50.507812,50.71289,76,64,71
50.742188,51.679688,74,64,71
51.679688,52.5,78,64,71
52.617188,53.085938,79,64,71
53.085938,53.90625,74,64,71
54.023438,54.433594,74,64,71
54.492188,56.777344,67,64,71
56.835938,57.65625,77,64,71
57.773438,57.890625,76,64,71
57.890625,58.007812,74,64,71
58.007812,58.125,72,64,71
58.125,58.22754,71,64,71
58.242188,58.447266,72,64,71
58.710938,59.179688,72,64,71
59.179688,59.648438,71,64,71
59.648438,60.058594,72,64,71
60.117188,60.324707,71,64,71
60.585938,61.054688,76,64,71
61.054688,61.523438,74,64,71
61.523438,61.933594,76,64,71
61.992188,62.460938,74,64,71
62.460938,62.929688,72,64,71
62.929688,63.398438,71,64,71
63.398438,63.808594,69,64,71
63.867188,64.33594,67,64,71
64.33594,64.74609,65,64,71
64.80469,64.921875,64,64,71
64.921875,65.03906,65,64,71
65.03906,65.15625,67,64,71
65.15625,65.27344,69,64,71
65.27344,65.390625,71,64,71
65.390625,65.50781,72,64,71
65.50781,65.625,74,64,71
65.625,65.72754,76,64,71
65.74219,66.67969,74,64,71
66.67969,67.5,76,64,71
67.61719,68.55469,77,64,71
68.55469,69.375,76,64,71
69.49219,71.572266,74,64,71
71.60156,71.71875,73,64,71
71.71875,71.83594,74,64,71
71.83594,71.953125,76,64,71
71.953125,72.07031,78,64,71
72.07031,72.1875,79,64,71
72.1875,72.29004,81,64,71
72.30469,72.40845,83,64,71
72.53906,72.64282,79,64,71
72.77344,72.8772,74,64,71
73.00781,73.11157,71,64,71
73.24219,73.65234,67,64,71
73.94531,74.15039,67,64,71
74.17969,74.38721,72,64,71
74.64844,74.85596,76,64,71
75.11719,77.40234,79,64,71
77.46094,77.578125,78,64,71
77.578125,77.69531,79,64,71
77.69531,77.8125,81,64,71
77.8125,77.91504,79,64,71
77.92969,78.03345,78,64,71
78.16406,78.26782,77,64,71
78.39844,78.5022,76,64,71
78.63281,78.73657,74,64,71
78.86719,81.15234,72,64,71
81.21094,81.31348,67,64,71
81.328125,81.44531,72,64,71
81.44531,81.5625,76,64,71
81.5625,81.66504,79,64,71
81.67969,81.796875,84,64,71
81.796875,81.91406,79,64,71
81.91406,82.03125,76,64,71
82.03125,82.13379,72,64,71
82.14844,82.265625,67,64,71
82.265625,82.38281,64,64,71
82.38281,82.5,60,64,71
82.5,82.60254,55,64,71
82.61719,83.02734,52,64,71
83.08594,83.65723,79,64,71
83.671875,83.774414,76,64,71
83.78906,83.8916,72,64,71
83.90625,84.00879,67,64,71
84.02344,84.12598,64,64,71
84.140625,84.243164,60,64,71
84.25781,84.36035,55,64,71
84.375,84.47754,52,64,71
84.49219,84.90234,53,64,71
84.96094,85.53223,84,64,71
85.546875,85.649414,81,64,71
85.66406,85.7666,77,64,71
85.78125,85.88379,72,64,71
85.89844,86.00098,69,64,71
86.015625,86.118164,65,64,71
86.13281,86.23535,60,64,71
86.25,86.35254,57,64,71
86.36719,86.77734,55,64,71
86.83594,86.953125,78,64,71
86.953125,87.07031,79,64,71
87.07031,87.1875,81,64,71
87.1875,87.29004,79,64,71
87.30469,87.40845,76,64,71
87.53906,87.64282,76,64,71
87.77344,87.890625,75,64,71
87.890625,88.00781,76,64,71
88.00781,88.125,77,64,71
88.125,88.22754,76,64,71
88.24219,88.34595,72,64,71
88.47656,88.58032,72,64,71
88.71094,88.828125,71,64,71
88.828125,88.94531,72,64,71
88.94531,89.0625,74,64,71
89.0625,89.16504,72,64,71
89.17969,89.296875,69,64,71
89.296875,89.41406,72,64,71
89.41406,89.53125,77,64,71
89.53125,89.63379,81,64,71
89.64844,89.7522,84,64,71
89.88281,89.98657,81,64,71
90.11719,90.35156,78,64,71
90.35156,90.55664,79,64,71
90.58594,90.703125,77,64,71
90.703125,90.82031,79,64,71
90.82031,90.9375,76,64,71
90.9375,91.04004,79,64,71
91.05469,91.171875,74,64,71
91.171875,91.28906,79,64,71
91.28906,91.40625,76,64,71
91.40625,91.52344,79,64,71
91.52344,91.640625,77,64,71
91.640625,91.75781,79,64,71
91.75781,91.875,76,64,71
91.875,91.97754,79,64,71
91.99219,92.109375,74,64,71
92.109375,92.22656,79,64,71
92.22656,92.34375,76,64,71
92.34375,92.46094,79,64,71
92.46094,92.578125,77,64,71
92.578125,92.69531,79,64,71
92.69531,92.8125,76,64,71
92.8125,92.91504,79,64,71
92.92969,93.03223,74,64,71
93.046875,93.149414,76,64,71
93.16406,93.2666,77,64,71
93.28125,93.38379,76,64,71
93.39844,93.50098,74,64,71
93.515625,93.618164,72,64,71
93.63281,93.73535,71,64,71
93.75,93.85254,69,64,71
93.86719,94.10156,67,64,71
94.10156,94.21875,69,64,71
94.21875,94.33594,71,64,71
94.33594,94.453125,72,64,71
94.453125,94.57031,74,64,71
94.57031,94.6875,76,64,71
94.6875,94.79004,77,64,71
94.80469,94.90845,79,64,71
95.03906,95.14282,81,64,71
95.27344,95.3772,83,64,71
95.50781,95.61157,84,64,71
95.74219,95.80078,76,64,71
95.80078,95.859375,74,64,71
95.859375,95.91797,76,64,71
95.91797,95.97656,74,64,71
95.97656,96.03516,76,64,71
96.03516,96.09375,74,64,71
96.09375,96.15234,76,64,71
96.15234,96.21094,74,64,71
96.21094,96.26953,76,64,71
96.26953,96.328125,74,64,71
96.328125,96.38672,76,64,71
96.38672,96.44531,74,64,71
96.44531,96.50391,76,64,71
96.50391,96.5625,74,64,71
96.5625,96.62109,76,64,71
96.62109,96.67969,74,64,71
96.67969,96.73828,76,64,71
96.73828,96.796875,74,64,71
96.796875,96.85547,76,64,71
96.85547,96.91406,74,64,71
96.91406,96.97266,76,64,71
96.97266,97.03125,74,64,71
97.03125,97.08984,76,64,71
97.08984,97.14844,74,64,71
97.14844,97.20703,76,64,71
97.20703,97.265625,74,64,71
97.265625,97.32422,76,64,71
97.32422,97.38281,74,64,71
97.38281,97.5,72,64,71
97.5,97.60254,74,64,71
97.61719,98.02734,72,64,71
99.96094,100.42969,76,64,71
100.42969,100.89844,74,64,71
100.89844,101.30859,73,64,71
101.36719,101.83594,74,64,71
101.83594,102.30469,75,64,71
102.30469,103.71094,76,64,71
103.71094,104.17969,78,64,71
104.17969,104.64844,79,64,71
104.64844,105.05859,77,64,71
105.11719,105.22095,76,64,71
105.58594,106.259766,79,64,71
106.28906,106.39282,78,64,71
106.52344,106.6272,77,64,71
106.75781,106.86157,76,64,71
106.99219,107.22656,81,64,71
107.22656,107.34375,83,64,71
107.34375,107.44629,84,64,71
107.46094,107.5647,83,64,71
107.69531,107.79907,81,64,71
107.92969,108.03345,79,64,71
108.16406,108.26782,77,64,71
108.39844,108.5022,76,64,71
108.63281,108.73657,74,64,71
108.86719,109.33594,71,64,71
109.33594,109.541016,72,64,71
109.80469,110.270996,76,64,71
110.27344,110.71289,76,64,71
110.74219,111.101074,76,64,71
111.15234,111.21094,79,64,71
111.21094,111.44531,77,64,71
111.44531,111.65039,76,64,71
111.67969,112.145996,76,64,71
112.14844,112.58789,76,64,71
112.61719,113.55469,81,64,71
113.55469,114.375,80,64,71
114.49219,115.42969,81,64,71
115.42969,116.25,79,64,71
116.36719,116.83594,79,64,71
116.83594,117.041016,72,64,71
117.30469,117.40845,71,64,71
117.53906,117.64282,72,64,71
117.77344,117.8772,74,64,71
118.00781,118.11157,76,64,71
118.24219,118.47656,77,64,71
118.47656,118.59375,79,64,71
118.59375,118.69629,81,64,71
118.71094,118.8147,79,64,71
118.94531,119.04907,77,64,71
119.17969,119.28345,76,64,71
119.41406,119.51782,74,64,71
119.64844,119.7522,72,64,71
119.88281,119.98657,71,64,71
120.11719,120.32471,72,64,71
121.05469,121.15723,77,64,71
121.171875,121.274414,79,64,71
121.28906,121.3916,77,64,71
121.40625,121.50879,76,64,71
121.52344,121.62598,74,64,71
121.640625,121.743164,71,64,71
121.75781,121.86035,72,64,71
121.875,121.97754,74,64,71
121.99219,122.19971,76,64,71
122.92969,123.03223,77,64,71
123.046875,123.149414,79,64,71
123.16406,123.2666,77,64,71
123.28125,123.38379,76,64,71
123.39844,123.50098,74,64,71
123.515625,123.618164,71,64,71
123.63281,123.73535,72,64,71
123.75,123.85254,74,64,71
123.86719,124.07471,76,64,71
124.80469,124.90723,77,64,71
124.921875,125.024414,79,64,71
125.03906,125.1416,77,64,71
125.15625,125.25879,76,64,71
125.27344,125.37598,74,64,71
125.390625,125.493164,76,64,71
125.50781,125.61035,77,64,71
125.625,125.72754,79,64,71
125.74219,126.15234,76,64,71
126.21094,126.518555,76,64,71
126.5625,126.66504,76,64,71
126.67969,127.08984,76,64,71
127.5,127.60254,67,64,71
127.61719,128.4375,72,64,71
128.55469,129.16992,76,64,71
129.25781,129.46289,76,64,71
129.49219,130.3125,72,64,71
130.42969,131.04492,76,64,71
131.13281,131.33789,76,64,71
131.36719,132.59766,74,64,71
132.77344,133.00781,72,64,71
133.00781,133.21289,71,64,71
133.24219,133.47656,69,64,71
133.47656,133.68164,67,64,71
133.71094,134.53125,67,64,71
134.64844,134.88281,65,64,71
134.88281,135.08789,64,64,71
135.11719,136.75781,64,64,71
136.99219,137.69531,62,64,71
137.69531,137.90039,64,64,71
137.92969,138.33984,65,64,71
138.39844,138.8086,74,64,71
138.86719,139.57031,74,64,71
139.57031,139.6875,76,64,71
139.6875,139.79004,77,64,71
139.80469,140.03906,77,64,71
140.03906,140.24414,76,64,71
140.27344,140.47852,74,64,71
140.50781,140.71289,73,64,71
140.74219,141.15234,74,64,71
141.21094,141.67725,69,64,71
141.67969,142.146,69,64,71
142.14844,142.58789,69,64,71
142.61719,144.90234,69,64,71
144.96094,145.42725,69,64,71
145.42969,145.896,69,64,71
145.89844,146.33789,69,64,71
146.36719,148.65234,69,64,71
148.71094,149.17725,69,64,71
149.17969,149.646,69,64,71
149.64844,150.08789,69,64,71
150.11719,151.34766,69,64,71
151.75781,151.96289,77,64,71
151.99219,152.8125,77,64,71
152.92969,153.16406,75,64,71
153.16406,153.39844,74,64,71
153.39844,153.63281,72,64,71
153.63281,153.83789,70,64,71
153.86719,154.10156,69,64,71
154.10156,154.33594,70,64,71
154.33594,154.57031,72,64,71
154.57031,154.77539,70,64,71
154.80469,155.03906,74,64,71
155.03906,155.27344,70,64,71
155.27344,155.50781,69,64,71
155.50781,155.71289,70,64,71
155.74219,156.67969,72,64,71
156.67969,157.5,75,64,71
157.61719,160.72266,74,64,71
160.89844,161.77734,70,64,71
161.83594,162.65625,67,64,71
162.77344,163.1836,67,64,71
163.24219,163.65234,72,64,71
166.875,166.97754,72,64,71
166.99219,167.8125,77,64,71
167.92969,168.54492,72,64,71
168.63281,168.83789,72,64,71
168.86719,169.80469,69,64,71
169.80469,170.41992,65,64,71
170.50781,170.71289,65,64,71
170.74219,171.5625,67,64,71
171.67969,171.91406,65,64,71
171.91406,172.14844,64,64,71
172.14844,172.38281,62,64,71
172.38281,172.58789,60,64,71
172.61719,173.02734,65,64,71
173.08594,173.39355,69,64,71
173.4375,173.54004,69,64,71
173.55469,173.96484,65,64,71
174.96094,175.89844,60,64,71
175.89844,176.3086,58,64,71
176.36719,176.47095,57,64,71
176.60156,176.70532,65,64,71
176.83594,176.9397,60,64,71
177.07031,177.17407,57,64,71
177.30469,177.5122,53,64,71
178.71094,179.64844,65,64,71
179.64844,180.0586,67,64,71
180.11719,180.35156,69,64,71
180.35156,180.55664,65,64,71
180.58594,180.6897,60,64,71
180.82031,180.92407,57,64,71
181.05469,181.2622,53,64,71
181.52344,182.8125,77,64,71
182.92969,183.54492,77,64,71
183.63281,183.83789,77,64,71
183.86719,185.74219,76,64,71
185.74219,185.84595,77,64,71
186.21094,186.3147,74,64,71
186.67969,186.78345,72,64,71
187.14844,187.2522,70,64,71
187.61719,187.8247,69,64,71
189.49219,189.72656,57,64,71
189.72656,189.93164,60,64,71
189.96094,190.0647,65,64,71
190.19531,190.29907,69,64,71
190.42969,190.6372,72,64,71
191.36719,191.60156,60,64,71
191.60156,191.80664,65,64,71
191.83594,191.9397,69,64,71
192.07031,192.17407,72,64,71
192.30469,192.5122,75,64,71
193.24219,194.88281,57,64,71
195.11719,195.52734,58,64,71
195.58594,195.79346,58,64,71
196.05469,196.2622,58,64,71
197.46094,197.69531,67,64,71
197.69531,197.90039,66,64,71
197.92969,198.16406,69,64,71
198.16406,198.39844,67,64,71
198.39844,198.63281,70,64,71
198.63281,198.83789,69,64,71
198.86719,199.10156,72,64,71
199.10156,199.30664,70,64,71
199.33594,199.54346,58,64,71
199.80469,200.0122,58,64,71
200.27344,200.48096,58,64,71
200.74219,201.67969,58,64,71
201.67969,202.5,59,64,71
202.61719,202.71973,60,64,71
202.73438,202.83691,64,64,71
202.85156,202.9541,67,64,71
202.96875,203.07129,64,64,71
203.08594,203.4961,60,64,71
204.49219,204.59473,60,64,71
204.60938,204.71191,65,64,71
204.72656,204.8291,69,64,71
204.84375,204.94629,65,64,71
204.96094,205.3711,60,64,71
206.36719,206.46973,60,64,71
206.48438,206.58691,64,64,71
206.60156,206.7041,67,64,71
206.71875,206.82129,64,64,71
206.83594,207.2461,60,64,71
208.24219,208.34473,60,64,71
208.35938,208.46191,65,64,71
208.47656,208.5791,69,64,71
208.59375,208.69629,65,64,71
208.71094,209.1211,60,64,71
210.11719,210.32227,72,64,71
210.35156,210.46875,67,64,71
210.46875,210.57129,64,64,71
210.58594,210.6897,60,64,71
210.82031,210.92407,55,64,71
211.05469,211.46484,52,64,71
211.99219,214.27734,60,64,71
215.74219,218.02734,60,64,71
219.72656,219.83032,60,64,71
219.96094,220.0647,60,64,71
220.19531,220.29907,60,64,71
220.42969,220.53345,60,64,71
220.66406,220.76782,60,64,71
220.89844,221.0022,60,64,71
221.13281,221.23657,60,64,71
221.36719,221.57227,58,64,71
221.60156,221.71875,74,64,71
221.71875,221.82129,70,64,71
221.83594,222.04346,65,64,71
222.53906,222.64282,66,64,71
222.77344,222.8772,67,64,71
223.00781,223.11157,72,64,71
223.24219,223.65234,72,64,71
223.71094,223.91602,70,64,71
224.41406,224.51782,66,64,71
224.64844,224.7522,67,64,71
224.88281,224.98657,72,64,71
225.11719,225.58594,72,64,71
225.58594,225.79102,70,64,71
225.82031,225.92407,72,64,71
226.05469,226.46484,72,64,71
226.52344,226.72852,70,64,71
226.75781,226.86157,72,64,71
226.99219,227.1997,70,64,71
227.46094,227.8125,74,64,71
227.8125,227.91504,72,64,71
227.92969,228.1372,70,64,71
228.39844,228.60596,74,64,71
228.86719,229.33594,69,64,71
229.33594,229.54102,72,64,71
229.6875,229.73877,72,64,71
229.80469,230.94727,77,64,71
230.97656,231.08032,77,64,71
231.21094,231.3147,77,64,71
231.44531,231.54907,77,64,71
231.67969,231.73584,77,64,71
231.73828,231.79688,76,64,71
231.79688,231.85547,77,64,71
231.85547,231.91406,76,64,71
231.91406,231.97266,77,64,71
231.97266,232.03125,76,64,71
232.03125,232.08984,77,64,71
232.08984,232.14844,76,64,71
232.14844,232.20703,77,64,71
232.20703,232.26562,76,64,71
232.26562,232.32422,77,64,71
232.32422,232.38281,76,64,71
232.38281,232.5,74,64,71
232.5,232.60254,76,64,71
232.61719,233.02734,77,64,71
234.96094,235.07812,70,64,71
235.07812,235.19531,69,64,71
235.19531,235.3125,67,64,71
235.3125,235.41504,69,64,71
235.42969,235.53345,70,64,71
235.89844,236.01562,70,64,71
236.01562,236.13281,69,64,71
236.13281,236.25,67,64,71
236.25,236.35254,69,64,71
236.36719,236.47095,67,64,71
240.35156,240.45532,69,64,71
240.58594,240.6897,69,64,71
240.82031,240.92407,69,64,71
241.28906,241.39282,70,64,71
241.52344,241.6272,70,64,71
241.75781,241.86157,70,64,71
242.22656,242.33032,69,64,71
242.46094,242.5647,69,64,71
242.69531,242.79907,69,64,71
243.16406,243.26782,70,64,71
243.39844,243.5022,70,64,71
243.63281,243.73657,70,64,71
243.86719,244.27734,69,64,71
245.74219,247.38281,57,64,71
247.61719,248.02734,58,64,71
248.55469,248.96484,58,64,71
249.49219,249.90234,58,64,71
250.42969,251.36719,70,64,71
251.36719,253.00781,69,64,71
253.47656,253.58032,79,64,71
253.71094,253.8147,76,64,71
253.94531,254.04907,72,64,71
254.17969,254.28345,70,64,71
254.41406,254.51782,67,64,71
254.64844,254.7522,64,64,71
254.88281,254.98657,58,64,71
255.11719,255.52734,57,64,71
257.46094,257.9297,81,64,71
257.9297,258.39844,79,64,71
258.39844,258.8086,78,64,71
258.8672,259.33594,79,64,71
259.33594,259.8047,80,64,71
259.8047,261.21094,81,64,71
261.21094,261.6797,83,64,71
261.6797,262.14844,84,64,71
262.14844,262.5586,82,64,71
262.6172,262.72095,81,64,71
263.08594,263.75977,72,64,71
263.78906,263.89282,71,64,71
264.02344,264.1272,70,64,71
264.2578,264.36157,69,64,71
264.4922,264.72656,74,64,71
264.72656,264.84375,76,64,71
264.84375,264.9463,77,64,71
264.96094,265.0647,76,64,71
265.1953,265.29907,74,64,71
265.4297,265.53345,72,64,71
265.66406,265.76782,70,64,71
265.89844,266.0022,69,64,71
266.1328,266.23657,67,64,71
266.3672,266.60156,68,64,71
266.60156,266.80664,69,64,71
266.83594,267.04102,69,64,71
267.3047,267.771,81,64,71
267.77344,268.2129,81,64,71
268.2422,268.60107,81,64,71
268.65234,268.71094,84,64,71
268.71094,268.9453,82,64,71
268.9453,269.1504,81,64,71
269.1797,269.646,81,64,71
269.64844,270.0879,81,64,71
270.1172,271.0547,86,64,71
271.0547,271.875,85,64,71
271.9922,272.9297,86,64,71
272.9297,273.75,84,64,71
273.8672,274.33594,84,64,71
274.33594,274.7461,77,64,71
275.03906,275.14282,77,64,71
275.27344,275.3772,79,64,71
275.5078,275.61157,81,64,71
275.7422,275.97656,82,64,71
275.97656,276.09375,84,64,71
276.09375,276.1963,86,64,71
276.21094,276.3147,84,64,71
276.4453,276.54907,82,64,71
276.6797,276.78345,81,64,71
276.91406,277.01782,79,64,71
277.14844,277.2522,77,64,71
277.3828,277.48657,76,64,71
277.6172,277.82227,77,64,71
277.85156,277.96875,81,64,71
277.96875,278.0713,77,64,71
278.08594,278.18848,72,64,71
278.20312,278.30566,69,64,71
278.3203,278.42285,65,64,71
278.4375,278.54004,60,64,71
278.5547,278.65723,57,64,71
278.67188,278.7744,65,64,71
278.78906,278.8916,60,64,71
278.90625,279.0088,65,64,71
279.02344,279.12598,57,64,71
279.14062,279.24316,65,64,71
279.2578,279.36035,60,64,71
279.375,279.47754,65,64,71
279.4922,279.69727,58,64,71
279.72656,279.84375,79,64,71
279.84375,279.9463,81,64,71
279.96094,280.06348,82,64,71
280.07812,280.18066,81,64,71
280.1953,280.29785,79,64,71
280.3125,280.41504,77,64,71
280.4297,280.53223,76,64,71
280.54688,280.6494,72,64,71
280.66406,280.7666,70,64,71
280.78125,280.8838,67,64,71
280.89844,281.00098,64,64,71
281.01562,281.11816,60,64,71
281.1328,281.23535,58,64,71
281.25,281.35254,55,64,71
281.3672,281.57227,53,64,71
281.60156,281.71875,81,64,71
281.71875,281.83594,77,64,71
281.83594,281.93848,72,64,71
281.95312,282.05566,69,64,71
282.0703,282.17285,65,64,71
282.1875,282.29004,60,64,71
282.3047,282.40723,57,64,71
282.42188,282.5244,60,64,71
282.53906,282.6416,65,64,71
282.65625,282.7588,69,64,71
282.77344,282.87598,72,64,71
282.89062,282.99316,69,64,71
283.0078,283.11035,65,64,71
283.125,283.22754,60,64,71
283.2422,283.44727,58,64,71
283.47656,283.59375,79,64,71
283.59375,283.6963,81,64,71
283.71094,283.81348,82,64,71
283.82812,283.93066,81,64,71
283.9453,284.04785,79,64,71
284.0625,284.16504,77,64,71
284.1797,284.28223,76,64,71
284.29688,284.3994,72,64,71
284.41406,284.5166,70,64,71
284.53125,284.6338,67,64,71
284.64844,284.75098,64,64,71
284.76562,284.86816,60,64,71
284.8828,284.98535,58,64,71
285.0,285.10254,55,64,71
285.1172,285.52734,53,64,71
286.0547,286.15723,76,64,71
286.17188,286.2744,77,64,71
286.28906,286.3916,79,64,71
286.40625,286.5088,81,64,71
286.52344,286.62598,82,64,71
286.64062,286.74316,79,64,71
286.7578,286.86035,77,64,71
286.875,286.97754,76,64,71
286.9922,287.40234,77,64,71
287.9297,288.03223,76,64,71
288.04688,288.1494,77,64,71
288.16406,288.2666,79,64,71
288.28125,288.3838,81,64,71
288.39844,288.50098,82,64,71
288.51562,288.61816,79,64,71
288.6328,288.73535,77,64,71
288.75,288.85254,76,64,71
288.8672,289.27734,77,64,71
289.8047,289.90723,76,64,71
289.92188,290.0244,74,64,71
290.03906,290.1416,76,64,71
290.15625,290.2588,77,64,71
290.27344,290.37598,79,64,71
290.39062,290.49316,81,64,71
290.5078,290.61035,82,64,71
290.625,290.72754,79,64,71
290.7422,291.15234,77,64,71
291.21094,291.51855,81,64,71
291.5625,291.66504,81,64,71
291.6797,292.08984,77,64,71
0.0,0.10253906,60,64,60
0.1171875,0.9375,65,64,60
1.0546875,1.6699219,60,64,60
1.7578125,1.9628906,60,64,60
1.9921875,2.9296875,57,64,60
2.9296875,3.5449219,53,64,60
3.6328125,3.8378906,65,64,60
3.8671875,4.6875,67,64,60
4.8046875,5.0390625,65,64,60
5.0390625,5.2734375,64,64,60
5.2734375,5.5078125,62,64,60
5.5078125,5.7128906,60,64,60
5.7421875,6.1523438,65,64,60
6.2109375,6.5185547,69,64,60
6.5625,6.665039,69,64,60
6.6796875,7.0898438,65,64,60
7.3828125,7.5878906,60,64,60
7.6171875,7.8515625,65,64,60
7.8515625,8.056641,69,64,60
8.0859375,9.0234375,69,64,60
9.0234375,9.382324,67,64,60
9.433594,9.4921875,69,64,60
9.4921875,9.7265625,67,64,60
9.7265625,9.931641,65,64,60
9.9609375,10.634766,65,64,60
10.6640625,10.767822,64,64,60
10.8984375,11.002197,65,64,60
11.1328125,11.236572,67,64,60
11.3671875,11.6015625,69,64,60
11.6015625,11.806641,72,64,60
11.8359375,12.7734375,72,64,60
12.7734375,13.132324,70,64,60
13.183594,13.2421875,72,64,60
13.2421875,13.4765625,70,64,60
13.4765625,13.681641,69,64,60
13.7109375,14.53125,69,64,60
14.6484375,14.8828125,70,64,60
14.8828125,15.087891,69,64,60
15.1171875,15.3515625,69,64,60
15.3515625,15.5859375,67,64,60
15.5859375,15.8203125,66,64,60
15.8203125,16.02539,67,64,60
16.054688,16.669922,67,64,60
16.757812,16.96289,67,64,60
16.992188,18.222656,67,64,60
18.398438,18.603516,69,64,60
18.632812,18.83789,70,64,60
18.867188,19.21875,72,64,60
19.21875,19.335938,69,64,60
19.335938,19.6875,70,64,60
19.6875,19.79004,67,64,60
19.804688,20.15625,69,64,60
20.15625,20.273438,65,64,60
20.273438,20.625,67,64,60
20.625,20.72754,64,64,60
20.742188,21.152344,65,64,60
23.085938,23.554688,70,64,60
23.554688,24.023438,69,64,60
24.023438,24.433594,67,64,60
24.492188,24.699707,65,64,60
26.835938,27.304688,70,64,60
27.304688,27.773438,69,64,60
27.773438,28.183594,67,64,60
28.242188,28.652344,65,64,60
30.117188,31.757812,60,64,60
31.992188,33.632812,65,64,60
37.617188,39.902344,67,64,60
40.898438,41.25,69,64,60
41.25,41.35254,65,64,60
41.367188,41.777344,67,64,60
42.773438,43.125,69,64,60
43.125,43.22754,65,64,60
43.242188,43.652344,60,64,60
43.710938,44.018555,60,64,60
44.0625,44.16504,60,64,60
44.179688,44.589844,60,64,60
52.617188,53.320312,67,64,60
53.320312,53.52539,66,64,60
53.554688,53.789062,65,64,60
53.789062,54.023438,64,64,60
54.023438,54.257812,62,64,60
54.257812,54.46289,60,64,60
54.492188,55.195312,59,64,60
55.195312,55.40039,60,64,60
55.429688,55.637207,59,64,60
55.898438,56.105957,67,64,60
56.367188,58.447266,67,64,60
66.21094,66.62109,67,64,60
67.14844,67.55859,67,64,60
68.08594,68.49609,67,64,60
69.02344,69.43359,67,64,60
69.49219,70.634766,67,64,60
70.66406,70.76782,67,64,60
70.89844,71.0022,67,64,60
71.13281,71.23657,67,64,60
71.36719,72.509766,67,64,60
72.53906,72.64282,67,64,60
72.77344,72.8772,67,64,60
73.00781,73.11157,67,64,60
73.24219,73.65234,67,64,60
79.33594,79.453125,70,64,60
79.453125,79.57031,69,64,60
79.57031,79.6875,67,64,60
79.6875,79.79004,69,64,60
79.80469,79.90845,70,64,60
80.27344,80.390625,70,64,60
80.390625,80.50781,69,64,60
80.50781,80.625,67,64,60
80.625,80.72754,69,64,60
80.74219,80.84595,67,64,60
82.61719,86.77734,60,64,60
90.58594,90.79346,67,64,60
91.05469,91.26221,67,64,60
91.52344,91.73096,67,64,60
91.99219,92.92969,67,64,60
92.92969,93.75,69,64,60
94.33594,94.54346,60,64,60
94.80469,95.01221,60,64,60
95.27344,95.48096,60,64,60
95.74219,97.38281,67,64,60
97.61719,98.02734,60,64,60
105.58594,105.79346,60,64,60
106.05469,106.26221,60,64,60
106.52344,106.73096,60,64,60
106.99219,107.8125,65,64,60
107.92969,108.75,67,64,60
108.86719,109.27734,60,64,60
116.83594,117.24609,60,64,60
117.30469,117.71484,60,64,60
117.77344,118.18359,60,64,60
118.24219,119.0625,65,64,60
119.17969,120.0,67,64,60
120.11719,120.22095,60,64,60
120.35156,120.45532,60,64,60
120.82031,120.92407,60,64,60
121.05469,121.15845,67,64,60
121.28906,121.39282,67,64,60
121.75781,121.86157,67,64,60
121.99219,122.09595,60,64,60
122.22656,122.33032,60,64,60
122.69531,122.79907,60,64,60
122.92969,123.03345,67,64,60
123.16406,123.26782,67,64,60
123.63281,123.73657,67,64,60
123.86719,123.97095,60,64,60
124.10156,124.20532,60,64,60
124.57031,124.67407,60,64,60
124.80469,124.90845,67,64,60
125.03906,125.14282,67,64,60
125.50781,125.61157,67,64,60
125.74219,126.15234,60,64,60
126.21094,126.518555,60,64,60
126.5625,126.66504,60,64,60
126.67969,127.08984,60,64,60
127.61719,128.4375,60,64,60
128.55469,129.16992,60,64,60
129.25781,129.46289,60,64,60
129.49219,130.3125,60,64,60
130.42969,131.04492,60,64,60
131.13281,131.33789,60,64,60
131.36719,133.65234,67,64,60
133.71094,134.01855,67,64,60
134.0625,134.16504,67,64,60
134.17969,134.58984,67,64,60
141.21094,141.67725,65,64,60
141.67969,142.146,65,64,60
142.14844,142.58789,65,64,60
142.61719,144.90234,65,64,60
144.96094,145.42725,65,64,60
145.42969,145.896,65,64,60
145.89844,146.33789,65,64,60
146.36719,148.65234,65,64,60
148.71094,149.17725,65,64,60
149.17969,149.646,65,64,60
149.64844,150.08789,65,64,60
150.11719,152.40234,65,64,60
152.46094,152.92725,65,64,60
152.92969,153.396,65,64,60
153.39844,153.83789,65,64,60
153.86719,155.50781,65,64,60
155.74219,159.25781,69,64,60
159.49219,159.90234,67,64,60
166.875,166.97754,60,64,60
166.99219,167.8125,65,64,60
167.92969,168.54492,60,64,60
168.63281,168.83789,60,64,60
168.86719,169.80469,57,64,60
169.80469,170.41992,53,64,60
170.50781,170.71289,65,64,60
170.74219,171.5625,67,64,60
171.67969,171.91406,65,64,60
171.91406,172.14844,64,64,60
172.14844,172.38281,62,64,60
172.38281,172.58789,60,64,60
172.61719,173.02734,65,64,60
173.08594,173.39355,69,64,60
173.4375,173.54004,69,64,60
173.55469,173.96484,65,64,60
174.25781,174.46289,60,64,60
174.49219,174.72656,65,64,60
174.72656,174.93164,69,64,60
174.96094,175.89844,69,64,60
175.89844,176.25732,67,64,60
176.3086,176.36719,69,64,60
176.36719,176.60156,67,64,60
176.60156,176.80664,65,64,60
176.83594,177.50977,65,64,60
177.53906,177.64282,64,64,60
177.77344,177.8772,65,64,60
178.00781,178.11157,67,64,60
178.24219,178.47656,69,64,60
178.47656,178.68164,72,64,60
178.71094,179.64844,72,64,60
179.64844,180.00732,70,64,60
180.0586,180.11719,72,64,60
180.11719,180.35156,70,64,60
180.35156,180.55664,69,64,60
180.58594,181.25977,69,64,60
181.28906,181.52344,69,64,60
181.52344,181.75781,70,64,60
181.75781,181.96289,69,64,60
181.99219,182.22656,69,64,60
182.22656,182.46094,67,64,60
182.46094,182.69531,66,64,60
182.69531,182.90039,67,64,60
182.92969,183.54492,67,64,60
183.63281,183.83789,67,64,60
183.86719,185.09766,67,64,60
185.27344,185.47852,69,64,60
185.50781,185.71289,70,64,60
185.74219,186.09375,72,64,60
186.09375,186.21094,69,64,60
186.21094,186.5625,70,64,60
186.5625,186.66504,67,64,60
186.67969,187.03125,69,64,60
187.03125,187.14844,65,64,60
187.14844,187.5,67,64,60
187.5,187.60254,64,64,60
187.61719,187.8247,65,64,60
202.61719,204.90234,60,64,60
204.96094,205.16846,60,64,60
205.42969,205.6372,60,64,60
205.89844,206.10596,60,64,60
206.36719,208.65234,60,64,60
208.71094,208.91846,60,64,60
209.17969,209.3872,60,64,60
209.64844,209.85596,60,64,60
210.11719,210.32227,60,64,60
211.99219,213.86719,67,64,60
213.86719,214.27734,65,64,60
214.33594,214.80225,65,64,60
214.80469,215.271,65,64,60
215.27344,215.71289,65,64,60
215.74219,217.61719,67,64,60
217.61719,218.02734,65,64,60
218.08594,218.55225,65,64,60
218.55469,219.021,65,64,60
219.02344,219.46289,65,64,60
219.49219,221.77734,65,64,60
228.86719,230.50781,65,64,60
230.74219,231.15234,60,64,60
231.67969,232.08984,60,64,60
232.61719,233.02734,65,64,60
233.32031,233.42407,60,64,60
233.55469,233.7622,65,64,60
234.02344,234.23096,69,64,60
234.49219,236.77734,72,64,60
236.83594,237.07031,72,64,60
237.07031,237.27539,70,64,60
237.30469,237.53906,70,64,60
237.53906,237.74414,69,64,60
237.77344,238.00781,69,64,60
238.00781,238.21289,67,64,60
238.24219,240.32227,65,64,60
240.58594,240.68848,65,64,60
240.70312,240.80566,69,64,60
240.82031,240.92285,67,64,60
240.9375,241.04004,65,64,60
241.05469,241.15723,64,64,60
241.17188,241.27441,65,64,60
241.28906,241.3916,67,64,60
241.40625,241.50879,69,64,60
241.52344,241.62598,70,64,60
241.64062,241.74316,67,64,60
241.75781,241.86035,65,64,60
241.875,241.97754,64,64,60
241.99219,242.09473,65,64,60
242.10938,242.21191,67,64,60
242.22656,242.3291,69,64,60
242.34375,242.44629,70,64,60
242.46094,242.56348,72,64,60
242.57812,242.68066,69,64,60
242.69531,242.79785,67,64,60
242.8125,242.91504,65,64,60
242.92969,243.03223,64,64,60
243.04688,243.14941,65,64,60
243.16406,243.2666,67,64,60
243.28125,243.38379,69,64,60
243.39844,243.50098,70,64,60
243.51562,243.61816,67,64,60
243.63281,243.73535,65,64,60
243.75,243.85254,64,64,60
243.86719,244.27734,65,64,60
244.33594,244.4397,60,64,60
244.57031,244.67407,60,64,60
244.80469,245.03906,60,64,60
245.03906,245.24414,65,64,60
245.27344,245.50781,65,64,60
245.50781,245.71289,69,64,60
245.74219,245.97656,69,64,60
245.97656,246.18164,72,64,60
246.21094,247.03125,72,64,60
247.14844,247.61719,63,64,60
247.61719,248.02734,62,64,60
248.08594,248.20312,67,64,60
248.20312,248.32031,66,64,60
248.32031,248.4375,67,64,60
248.4375,248.54004,66,64,60
248.55469,248.65845,67,64,60
249.02344,249.14062,67,64,60
249.14062,249.25781,66,64,60
249.25781,249.375,67,64,60
249.375,249.47754,66,64,60
249.49219,249.59473,67,64,60
249.60938,249.71191,69,64,60
249.72656,249.8291,70,64,60
249.84375,249.94629,69,64,60
249.96094,250.06348,67,64,60
250.07812,250.18066,69,64,60
250.19531,250.29785,70,64,60
250.3125,250.41504,69,64,60
250.42969,250.53223,67,64,60
250.54688,250.64941,69,64,60
250.66406,250.7666,70,64,60
250.78125,250.88379,69,64,60
250.89844,251.00098,67,64,60
251.01562,251.11816,65,64,60
251.13281,251.23535,64,64,60
251.25,251.35254,62,64,60
251.36719,251.57227,60,64,60
251.60156,251.7041,62,64,60
251.71875,251.82129,64,64,60
251.83594,251.93848,65,64,60
251.95312,252.05566,67,64,60
252.07031,252.17285,69,64,60
252.1875,252.29004,70,64,60
252.30469,252.5122,72,64,60
253.00781,253.11157,65,64,60
253.24219,253.30078,69,64,60
253.30078,253.35938,67,64,60
253.35938,253.41797,69,64,60
253.41797,253.47656,67,64,60
253.47656,253.53516,69,64,60
253.53516,253.59375,67,64,60
253.59375,253.65234,69,64,60
253.65234,253.71094,67,64,60
253.71094,253.76953,69,64,60
253.76953,253.82812,67,64,60
253.82812,253.88672,69,64,60
253.88672,253.94531,67,64,60
253.94531,254.0039,69,64,60
254.0039,254.0625,67,64,60
254.0625,254.1211,69,64,60
254.1211,254.17969,67,64,60
254.17969,254.23828,69,64,60
254.23828,254.29688,67,64,60
254.29688,254.35547,69,64,60
254.35547,254.41406,67,64,60
254.41406,254.47266,69,64,60
254.47266,254.53125,67,64,60
254.53125,254.58984,69,64,60
254.58984,254.64844,67,64,60
254.64844,254.70703,69,64,60
254.70703,254.76562,67,64,60
254.76562,254.82422,69,64,60
254.82422,254.88281,67,64,60
254.88281,255.0,65,64,60
255.0,255.10254,67,64,60
255.11719,255.52734,65,64,60
262.6172,264.2578,65,64,60
264.96094,265.16846,70,64,60
265.89844,266.10596,72,64,60
266.3672,266.77734,65,64,60
273.8672,275.5078,65,64,60
276.21094,276.41846,70,64,60
277.14844,277.35596,72,64,60
277.6172,279.2578,65,64,60
279.4922,279.90234,65,64,60
280.4297,281.04492,60,64,60
281.1328,281.3379,60,64,60
281.3672,282.3047,60,64,60
282.3047,283.65234,65,64,60
284.1797,284.79492,60,64,60
284.8828,285.0879,60,64,60
285.1172,285.52734,60,64,60
286.28906,286.39282,60,64,60
286.52344,286.6272,60,64,60
286.7578,286.86157,60,64,60
286.9922,287.40234,65,64,60
288.16406,288.26782,60,64,60
288.39844,288.5022,60,64,60
288.6328,288.73657,60,64,60
288.8672,289.27734,65,64,60
290.03906,290.14282,60,64,60
290.27344,290.3772,60,64,60
290.5078,290.61157,60,64,60
290.7422,291.15234,65,64,60
291.21094,291.51855,65,64,60
291.5625,291.66504,65,64,60
291.6797,292.08984,65,64,60
0.0,0.10253906,48,64,70
0.1171875,0.9375,53,64,70
1.0546875,1.6699219,48,64,70
1.7578125,1.9628906,48,64,70
1.9921875,2.9296875,45,64,70
2.9296875,3.5449219,41,64,70
3.6328125,3.8378906,41,64,70
3.8671875,4.6875,43,64,70
4.8046875,5.0390625,41,64,70
5.0390625,5.2734375,40,64,70
5.2734375,5.5078125,38,64,70
5.5078125,5.7128906,36,64,70
5.7421875,6.1523438,41,64,70
6.2109375,6.5185547,45,64,70
6.5625,6.665039,45,64,70
6.6796875,7.0898438,41,64,70
7.6171875,8.5546875,53,64,70
8.5546875,9.375,48,64,70
9.4921875,9.902344,41,64,70
10.6640625,10.767822,48,64,70
10.8984375,11.002197,50,64,70
11.1328125,11.236572,52,64,70
11.3671875,11.6015625,53,64,70
11.6015625,11.806641,57,64,70
11.8359375,12.7734375,57,64,70
12.7734375,13.132324,55,64,70
13.183594,13.2421875,57,64,70
13.2421875,13.4765625,55,64,70
13.4765625,13.681641,53,64,70
13.7109375,14.384766,53,64,70
14.4140625,14.6484375,52,64,70
14.6484375,14.8828125,50,64,70
14.8828125,15.087891,48,64,70
15.1171875,15.9375,47,64,70
16.054688,16.669922,47,64,70
16.757812,16.96289,47,64,70
16.992188,18.632812,46,64,70
18.867188,19.074707,45,64,70
19.335938,19.543457,46,64,70
19.804688,20.012207,48,64,70
20.273438,20.480957,48,64,70
20.742188,21.152344,41,64,70
22.617188,23.027344,60,64,70
24.023438,24.433594,48,64,70
24.492188,24.699707,53,64,70
26.367188,26.777344,60,64,70
27.773438,28.183594,48,64,70
28.242188,28.652344,53,64,70
29.179688,29.589844,41,64,70
30.351562,30.585938,60,64,70
30.585938,30.820312,58,64,70
30.820312,31.054688,57,64,70
31.054688,31.289062,55,64,70
31.289062,31.523438,53,64,70
31.523438,31.728516,52,64,70
32.226562,32.460938,62,64,70
32.460938,32.695312,60,64,70
32.695312,32.929688,58,64,70
32.929688,33.164062,57,64,70
33.164062,33.398438,55,64,70
33.398438,33.603516,53,64,70
34.101562,34.335938,63,64,70
34.335938,34.570312,62,64,70
34.570312,34.804688,60,64,70
34.804688,35.039062,58,64,70
35.039062,35.273438,57,64,70
35.273438,35.507812,62,64,70
35.507812,35.71289,60,64,70
35.742188,38.027344,58,64,70
38.085938,38.293457,58,64,70
38.554688,38.762207,59,64,70
39.023438,39.230957,59,64,70
39.492188,39.960938,60,64,70
39.960938,40.429688,58,64,70
40.429688,40.898438,57,64,70
40.898438,41.308594,53,64,70
41.367188,41.572266,60,64,70
41.601562,41.80664,60,64,70
41.835938,42.041016,58,64,70
42.070312,42.27539,58,64,70
42.304688,42.509766,57,64,70
42.539062,42.74414,57,64,70
42.773438,42.978516,53,64,70
43.007812,43.21289,53,64,70
43.242188,43.652344,60,64,70
43.710938,44.018555,48,64,70
44.0625,44.16504,48,64,70
44.179688,44.589844,48,64,70
45.117188,45.820312,67,64,70
45.820312,46.054688,66,64,70
46.054688,46.289062,65,64,70
46.289062,46.523438,64,64,70
46.523438,46.757812,65,64,70
46.757812,46.96289,62,64,70
46.992188,47.929688,60,64,70
47.929688,48.632812,59,64,70
48.632812,48.83789,58,64,70
48.867188,49.804688,57,64,70
49.804688,50.625,61,64,70
50.742188,52.148438,62,64,70
52.148438,52.558594,60,64,70
52.617188,53.320312,59,64,70
53.320312,53.52539,60,64,70
53.554688,53.789062,59,64,70
53.789062,54.023438,60,64,70
54.023438,54.257812,62,64,70
54.257812,54.46289,64,64,70
54.492188,55.195312,65,64,70
55.195312,55.40039,64,64,70
55.429688,56.132812,62,64,70
56.132812,56.33789,60,64,70
56.367188,56.574707,59,64,70
56.835938,57.043457,59,64,70
57.304688,57.512207,55,64,70
57.773438,57.980957,55,64,70
58.242188,58.447266,60,64,70
60.585938,61.054688,60,64,70
61.054688,61.523438,59,64,70
61.523438,61.933594,60,64,70
61.992188,62.460938,59,64,70
62.460938,62.929688,57,64,70
62.929688,63.398438,55,64,70
63.398438,63.808594,53,64,70
63.867188,64.33594,52,64,70
64.33594,64.74609,50,64,70
64.80469,65.01221,48,64,70
65.27344,65.48096,48,64,70
65.74219,65.97656,43,64,70
65.97656,66.18164,55,64,70
66.21094,66.3147,43,64,70
66.44531,66.54907,43,64,70
66.67969,66.91406,43,64,70
66.91406,67.11914,55,64,70
67.14844,67.2522,43,64,70
67.38281,67.48657,43,64,70
67.61719,67.822266,43,64,70
67.85156,68.05664,55,64,70
68.08594,68.291016,59,64,70
68.32031,68.52539,55,64,70
68.55469,68.759766,60,64,70
68.78906,68.99414,55,64,70
69.02344,69.228516,52,64,70
69.25781,69.46289,48,64,70
69.49219,69.697266,43,64,70
69.72656,69.93164,55,64,70
69.96094,70.166016,55,64,70
70.19531,70.40039,55,64,70
70.42969,70.634766,55,64,70
70.66406,70.86914,55,64,70
70.89844,71.103516,55,64,70
71.13281,71.33789,55,64,70
71.36719,71.57471,55,64,70
71.83594,72.04346,55,64,70
72.30469,72.51221,55,64,70
72.77344,72.98096,55,64,70
73.24219,73.65234,43,64,70
79.33594,79.453125,67,64,70
79.453125,79.57031,65,64,70
79.57031,79.6875,64,64,70
79.6875,79.79004,65,64,70
79.80469,79.90845,67,64,70
80.27344,80.390625,67,64,70
80.390625,80.50781,65,64,70
80.50781,80.625,64,64,70
80.625,80.72754,65,64,70
80.74219,80.84595,64,64,70
81.91406,82.01782,60,64,70
82.14844,82.2522,55,64,70
82.38281,82.48657,52,64,70
82.61719,83.02734,48,64,70
83.78906,83.89282,60,64,70
84.02344,84.1272,55,64,70
84.25781,84.36157,58,64,70
84.49219,84.90234,57,64,70
85.66406,85.76782,60,64,70
85.89844,86.0022,65,64,70
86.13281,86.23657,53,64,70
86.36719,86.77734,55,64,70
87.30469,87.71484,55,64,70
88.24219,89.17969,55,64,70
89.17969,89.58984,53,64,70
89.64844,89.85596,57,64,70
90.11719,90.52734,60,64,70
90.82031,90.92407,60,64,70
91.05469,91.15845,59,64,70
91.28906,91.39282,60,64,70
91.52344,91.6272,62,64,70
91.75781,91.86157,60,64,70
91.99219,92.09595,59,64,70
92.22656,92.33032,60,64,70
92.46094,92.5647,62,64,70
92.69531,92.79907,60,64,70
92.92969,93.13721,53,64,70
93.39844,93.60596,65,64,70
93.86719,94.07471,55,64,70
94.80469,95.01221,55,64,70
95.74219,96.15234,43,64,70
96.21094,96.62109,43,64,70
96.67969,97.08984,43,64,70
97.14844,97.55859,43,64,70
97.61719,98.02734,48,64,70
98.55469,99.02344,60,64,70
99.02344,99.49219,59,64,70
99.49219,99.96094,58,64,70
99.96094,100.42969,57,64,70
100.42969,100.89844,56,64,70
100.89844,101.30859,55,64,70
101.36719,101.83594,54,64,70
101.83594,102.30469,53,64,70
102.30469,102.77344,52,64,70
102.77344,103.18359,50,64,70
103.24219,103.71094,49,64,70
103.71094,104.12109,48,64,70
104.17969,104.28345,47,64,70
104.41406,104.51782,43,64,70
104.64844,104.7522,45,64,70
104.88281,104.98657,47,64,70
105.11719,105.22095,48,64,70
105.35156,105.45532,50,64,70
105.58594,105.6897,52,64,70
105.82031,105.92407,53,64,70
106.05469,106.15845,55,64,70
106.28906,106.39282,57,64,70
106.52344,106.6272,59,64,70
106.75781,106.86157,60,64,70
106.99219,107.19971,53,64,70
107.46094,107.66846,53,64,70
107.92969,108.13721,55,64,70
108.39844,108.60596,55,64,70
108.86719,109.27734,48,64,70
109.33594,110.27344,60,64,70
110.27344,110.68359,59,64,70
110.74219,111.21094,58,64,70
111.21094,111.67969,57,64,70
111.67969,112.14844,56,64,70
112.14844,112.55859,55,64,70
112.61719,113.08594,54,64,70
113.08594,113.55469,53,64,70
113.55469,114.02344,52,64,70
114.02344,114.43359,50,64,70
114.49219,114.96094,49,64,70
114.96094,115.37109,48,64,70
115.42969,115.53345,47,64,70
115.66406,115.76782,43,64,70
115.89844,116.0022,45,64,70
116.13281,116.23657,47,64,70
116.36719,116.47095,48,64,70
116.60156,116.70532,50,64,70
116.83594,116.9397,52,64,70
117.07031,117.17407,53,64,70
117.30469,117.40845,55,64,70
117.53906,117.64282,57,64,70
117.77344,117.8772,59,64,70
118.00781,118.11157,60,64,70
118.24219,118.44971,53,64,70
118.71094,118.91846,41,64,70
119.17969,119.38721,43,64,70
119.64844,119.85596,55,64,70
120.11719,120.32471,60,64,70
121.05469,121.15723,62,64,70
121.171875,121.274414,64,64,70
121.28906,121.3916,62,64,70
121.40625,121.50879,60,64,70
121.52344,121.62598,59,64,70
121.640625,121.743164,55,64,70
121.75781,121.86035,57,64,70
121.875,121.97754,59,64,70
121.99219,122.19971,60,64,70
122.92969,123.03223,62,64,70
123.046875,123.149414,64,64,70
123.16406,123.2666,62,64,70
123.28125,123.38379,60,64,70
123.39844,123.50098,59,64,70
123.515625,123.618164,55,64,70
123.63281,123.73535,57,64,70
123.75,123.85254,59,64,70
123.86719,124.07471,60,64,70
124.80469,124.90723,62,64,70
124.921875,125.024414,64,64,70
125.03906,125.1416,62,64,70
125.15625,125.25879,60,64,70
125.27344,125.3772,59,64,70
125.50781,125.61157,55,64,70
125.74219,126.15234,60,64,70
126.21094,126.518555,48,64,70
126.5625,126.66504,48,64,70
126.67969,127.08984,48,64,70
127.5,127.60254,55,64,70
127.61719,128.4375,60,64,70
128.55469,129.16992,64,64,70
129.25781,129.46289,64,64,70
129.49219,130.3125,60,64,70
130.42969,131.04492,64,64,70
131.13281,131.33789,64,64,70
131.36719,132.59766,62,64,70
132.77344,133.00781,60,64,70
133.00781,133.21289,59,64,70
133.24219,133.47656,57,64,70
133.47656,133.68164,55,64,70
133.71094,134.53125,55,64,70
134.64844,135.52734,58,64,70
135.58594,136.40625,57,64,70
136.52344,137.40234,55,64,70
137.46094,137.66602,53,64,70
137.69531,137.90039,52,64,70
137.92969,138.33984,50,64,70
138.39844,138.8086,43,64,70
138.86719,139.0747,45,64,70
139.33594,139.54346,45,64,70
139.80469,140.0122,45,64,70
140.27344,140.48096,45,64,70
140.74219,141.15234,38,64,70
141.21094,141.67725,50,64,70
141.67969,142.146,50,64,70
142.14844,142.58789,50,64,70
142.61719,144.90234,50,64,70
144.96094,145.42725,50,64,70
145.42969,145.896,50,64,70
145.89844,146.33789,50,64,70
146.36719,148.24219,50,64,70
148.24219,148.65234,48,64,70
148.71094,149.17725,48,64,70
149.17969,149.646,48,64,70
149.64844,150.08789,48,64,70
150.11719,151.75781,48,64,70
151.99219,154.27734,46,64,70
155.50781,155.71289,62,64,70
155.74219,156.5625,63,64,70
156.67969,156.91406,62,64,70
156.91406,157.14844,60,64,70
157.14844,157.38281,58,64,70
157.38281,157.58789,57,64,70
157.61719,157.85156,55,64,70
157.85156,158.08594,54,64,70
158.08594,158.32031,57,64,70
158.32031,158.52539,54,64,70
158.55469,158.78906,50,64,70
158.78906,159.02344,54,64,70
159.02344,159.25781,57,64,70
159.25781,159.46289,60,64,70
159.49219,161.13281,58,64,70
161.36719,162.77344,46,64,70
162.77344,163.1836,47,64,70
163.24219,163.71094,48,64,70
163.71094,164.17969,50,64,70
164.17969,164.64844,52,64,70
164.64844,165.0586,53,64,70
165.11719,166.83105,55,64,70
166.875,166.97754,48,64,70
166.99219,167.8125,53,64,70
167.92969,168.54492,48,64,70
168.63281,168.83789,48,64,70
168.86719,169.80469,45,64,70
169.80469,170.41992,41,64,70
170.50781,170.71289,41,64,70
170.74219,171.5625,43,64,70
171.67969,171.91406,41,64,70
171.91406,172.14844,40,64,70
172.14844,172.38281,38,64,70
172.38281,172.58789,36,64,70
172.61719,173.02734,41,64,70
173.08594,173.39355,45,64,70
173.4375,173.54004,45,64,70
173.55469,173.96484,41,64,70
174.49219,175.42969,53,64,70
175.42969,176.25,48,64,70
176.36719,176.77734,41,64,70
177.53906,177.64282,48,64,70
177.77344,177.8772,50,64,70
178.00781,178.11157,52,64,70
178.24219,178.47656,53,64,70
178.47656,178.68164,57,64,70
178.71094,179.64844,57,64,70
179.64844,180.00732,55,64,70
180.0586,180.11719,57,64,70
180.11719,180.35156,55,64,70
180.35156,180.55664,53,64,70
180.58594,181.25977,53,64,70
181.28906,181.52344,52,64,70
181.52344,181.75781,50,64,70
181.75781,181.96289,48,64,70
181.99219,182.8125,47,64,70
182.92969,183.54492,47,64,70
183.63281,183.83789,47,64,70
183.86719,185.50781,46,64,70
185.74219,185.84595,45,64,70
186.21094,186.3147,46,64,70
186.67969,186.78345,48,64,70
187.14844,187.2522,48,64,70
187.61719,187.8247,41,64,70
188.08594,188.20312,53,64,70
188.20312,188.32031,52,64,70
188.32031,188.4375,53,64,70
188.4375,188.54004,55,64,70
188.55469,188.65845,57,64,70
188.78906,188.89282,58,64,70
189.02344,189.1272,60,64,70
189.25781,189.36157,62,64,70
189.49219,190.72266,63,64,70
190.89844,191.10352,62,64,70
191.13281,191.33789,60,64,70
191.36719,191.60156,58,64,70
191.60156,191.80664,57,64,70
191.83594,192.65625,57,64,70
192.77344,192.97852,60,64,70
193.00781,193.21289,57,64,70
193.24219,193.47656,55,64,70
193.47656,193.71094,53,64,70
193.71094,193.94531,52,64,70
193.94531,194.15039,53,64,70
194.17969,194.41406,48,64,70
194.41406,194.64844,50,64,70
194.64844,194.88281,51,64,70
194.88281,195.08789,53,64,70
195.11719,196.05469,51,64,70
196.05469,196.25977,50,64,70
196.28906,196.52344,50,64,70
196.52344,196.75781,55,64,70
196.75781,196.96289,54,64,70
196.99219,197.22656,57,64,70
197.22656,197.46094,55,64,70
197.46094,197.69531,58,64,70
197.69531,197.90039,57,64,70
197.92969,198.16406,60,64,70
198.16406,198.39844,58,64,70
198.39844,198.63281,62,64,70
198.63281,198.83789,60,64,70
198.86719,199.10156,63,64,70
199.10156,199.33594,62,64,70
199.33594,199.57031,61,64,70
199.57031,199.77539,62,64,70
199.80469,200.03906,60,64,70
200.03906,200.27344,58,64,70
200.27344,200.50781,57,64,70
200.50781,200.71289,55,64,70
200.74219,201.97266,55,64,70
202.14844,202.26562,55,64,70
202.26562,202.38281,53,64,70
202.38281,202.5,52,64,70
202.5,202.60254,53,64,70
202.61719,202.82227,52,64,70
203.08594,203.20312,48,64,70
203.20312,203.32031,50,64,70
203.32031,203.4375,52,64,70
203.4375,203.54004,53,64,70
203.55469,203.65723,55,64,70
203.67188,203.77441,53,64,70
203.78906,203.8916,52,64,70
203.90625,204.00879,50,64,70
204.02344,204.12598,48,64,70
204.14062,204.24316,46,64,70
204.25781,204.36035,45,64,70
204.375,204.47754,43,64,70
204.49219,204.72656,41,64,70
204.72656,204.84375,43,64,70
204.84375,204.96094,45,64,70
204.96094,205.07812,46,64,70
205.07812,205.19531,48,64,70
205.19531,205.3125,50,64,70
205.3125,205.41504,52,64,70
205.42969,205.53345,53,64,70
205.66406,205.76782,57,64,70
205.89844,206.0022,60,64,70
206.13281,206.23657,65,64,70
206.36719,206.57227,64,64,70
206.83594,206.95312,60,64,70
206.95312,207.07031,59,64,70
207.07031,207.1875,58,64,70
207.1875,207.29004,57,64,70
207.30469,207.40723,55,64,70
207.42188,207.52441,53,64,70
207.53906,207.6416,52,64,70
207.65625,207.75879,50,64,70
207.77344,207.87598,48,64,70
207.89062,207.99316,46,64,70
208.00781,208.11035,45,64,70
208.125,208.22754,43,64,70
208.24219,208.47656,41,64,70
208.47656,208.59375,43,64,70
208.59375,208.71094,45,64,70
208.71094,208.82812,46,64,70
208.82812,208.94531,48,64,70
208.94531,209.0625,50,64,70
209.0625,209.16504,52,64,70
209.17969,209.28223,53,64,70
209.29688,209.39941,55,64,70
209.41406,209.5166,57,64,70
209.53125,209.63379,58,64,70
209.64844,209.75098,60,64,70
209.76562,209.86816,62,64,70
209.88281,209.98535,64,64,70
210.0,210.10254,65,64,70
210.11719,210.22095,64,64,70
210.35156,210.45532,60,64,70
210.58594,210.6897,55,64,70
210.82031,210.92407,52,64,70
211.05469,211.46484,48,64,70
211.99219,213.86719,58,64,70
213.86719,214.27734,57,64,70
214.33594,214.80225,57,64,70
214.80469,215.271,57,64,70
215.27344,215.71289,57,64,70
215.74219,217.61719,58,64,70
217.61719,218.02734,57,64,70
218.08594,218.55225,57,64,70
218.55469,219.021,57,64,70
219.02344,219.46289,57,64,70
219.49219,221.13281,57,64,70
221.36719,221.77734,58,64,70
221.83594,222.04346,46,64,70
222.53906,222.64282,60,64,70
222.77344,222.8772,58,64,70
223.00781,223.11157,57,64,70
223.24219,223.71094,54,64,70
223.71094,223.91602,55,64,70
224.41406,224.51782,60,64,70
224.64844,224.7522,58,64,70
224.88281,224.98657,57,64,70
225.11719,225.58594,54,64,70
225.58594,225.79102,55,64,70
225.82031,225.92407,57,64,70
226.05469,226.52344,54,64,70
226.52344,226.72852,55,64,70
226.75781,226.86157,57,64,70
226.99219,227.1997,55,64,70
227.46094,227.66846,55,64,70
227.92969,228.1372,58,64,70
228.39844,228.60596,58,64,70
228.86719,229.0747,60,64,70
229.33594,229.54346,60,64,70
229.80469,230.0122,60,64,70
230.27344,230.48096,60,64,70
230.74219,231.15234,48,64,70
231.21094,231.6211,48,64,70
231.67969,232.08984,48,64,70
232.14844,232.5586,48,64,70
232.61719,233.02734,41,64,70
234.96094,235.07812,67,64,70
235.07812,235.19531,65,64,70
235.19531,235.3125,64,64,70
235.3125,235.41504,65,64,70
235.42969,235.53345,67,64,70
235.89844,236.01562,67,64,70
236.01562,236.13281,65,64,70
236.13281,236.25,64,64,70
236.25,236.35254,65,64,70
236.36719,236.47095,64,64,70
240.11719,240.3247,53,64,70
241.05469,241.2622,48,64,70
241.99219,242.1997,53,64,70
242.92969,243.1372,48,64,70
243.86719,244.27734,53,64,70
245.74219,246.15234,53,64,70
246.67969,247.08984,53,64,70
247.61719,248.02734,46,64,70
248.55469,248.96484,46,64,70
249.49219,249.90234,46,64,70
249.96094,250.3711,46,64,70
250.42969,250.83984,46,64,70
250.89844,251.3086,46,64,70
251.36719,251.77734,48,64,70
251.83594,252.2461,48,64,70
252.30469,252.71484,48,64,70
252.77344,253.1836,48,64,70
253.24219,253.44727,48,64,70
253.47656,253.68164,48,64,70
253.71094,253.91602,48,64,70
253.94531,254.15039,48,64,70
254.17969,254.38477,48,64,70
254.41406,254.61914,48,64,70
254.64844,254.85352,48,64,70
254.88281,255.08789,48,64,70
255.11719,255.52734,53,64,70
256.0547,256.52344,65,64,70
256.52344,256.9336,64,64,70
256.9922,257.46094,63,64,70
257.46094,257.9297,62,64,70
257.9297,258.39844,61,64,70
258.39844,258.8086,60,64,70
258.8672,259.33594,59,64,70
259.33594,259.8047,58,64,70
259.8047,260.27344,57,64,70
260.27344,260.7422,55,64,70
260.7422,261.21094,54,64,70
261.21094,261.6211,53,64,70
261.6797,261.78345,52,64,70
261.91406,262.01782,48,64,70
262.14844,262.2522,50,64,70
262.3828,262.48657,52,64,70
262.6172,262.72095,53,64,70
262.85156,262.95532,55,64,70
263.08594,263.1897,57,64,70
263.3203,263.42407,58,64,70
263.5547,263.65845,60,64,70
263.78906,263.89282,62,64,70
264.02344,264.1272,64,64,70
264.2578,264.36157,65,64,70
264.4922,264.6997,58,64,70
264.96094,265.16846,58,64,70
265.4297,265.6372,60,64,70
265.89844,266.10596,60,64,70
266.3672,266.77734,53,64,70
266.83594,267.77344,65,64,70
267.77344,268.2422,64,64,70
268.2422,268.71094,63,64,70
268.71094,269.1797,62,64,70
269.1797,269.64844,61,64,70
269.64844,270.0586,60,64,70
270.1172,270.58594,59,64,70
270.58594,271.0547,58,64,70
271.0547,271.52344,57,64,70
271.52344,271.9922,55,64,70
271.9922,272.46094,54,64,70
272.46094,272.8711,53,64,70
272.9297,273.03345,52,64,70
273.16406,273.26782,48,64,70
273.39844,273.5022,50,64,70
273.6328,273.73657,52,64,70
273.8672,273.97095,53,64,70
274.10156,274.20532,55,64,70
274.33594,274.4397,57,64,70
274.5703,274.67407,58,64,70
274.8047,274.90845,60,64,70
275.03906,275.14282,62,64,70
275.27344,275.3772,64,64,70
275.5078,275.61157,65,64,70
275.7422,275.9497,58,64,70
276.21094,276.41846,58,64,70
276.6797,276.8872,60,64,70
277.14844,277.35596,48,64,70
277.6172,278.5547,65,64,70
278.5547,279.375,63,64,70
279.4922,280.3125,62,64,70
280.4297,281.04492,60,64,70
281.1328,281.3379,60,64,70
281.3672,282.3047,65,64,70
282.3047,283.125,63,64,70
283.2422,284.0625,62,64,70
284.1797,284.79492,60,64,70
284.8828,285.0879,60,64,70
285.1172,285.52734,53,64,70
286.0547,286.15723,48,64,70
286.17188,286.2744,50,64,70
286.28906,286.3916,52,64,70
286.40625,286.5088,53,64,70
286.52344,286.62598,55,64,70
286.64062,286.74316,58,64,70
286.7578,286.86035,57,64,70
286.875,286.97754,55,64,70
286.9922,287.40234,53,64,70
287.9297,288.03223,48,64,70
288.04688,288.1494,50,64,70
288.16406,288.2666,52,64,70
288.28125,288.3838,53,64,70
288.39844,288.50098,55,64,70
288.51562,288.61816,58,64,70
288.6328,288.73535,57,64,70
288.75,288.85254,55,64,70
288.8672,289.27734,53,64,70
289.8047,289.90723,48,64,70
289.92188,290.0244,47,64,70
290.03906,290.1416,48,64,70
290.15625,290.2588,50,64,70
290.27344,290.37598,52,64,70
290.39062,290.49316,53,64,70
290.5078,290.61035,55,64,70
290.625,290.72754,60,64,70
290.7422,291.15234,53,64,70
291.21094,291.51855,53,64,70
291.5625,291.66504,53,64,70
291.6797,292.08984,41,64,70
