start_time,end_time,note_value,velocity,instrument_program_number
0.0,1.4583331,69,64,73
1.6666665,2.216435,69,64,73
2.222222,2.7719905,69,64,73
2.7777774,3.2986107,69,64,73
3.333333,3.8831015,69,64,73
3.8888886,4.438657,69,64,73
4.444444,4.9942126,69,64,73
4.9999995,5.549768,69,64,73
5.555555,6.1053233,69,64,73
6.1111107,6.6319437,69,64,73
6.666666,7.2164345,69,64,73
7.2222214,7.77199,69,64,73
7.777777,8.327545,69,64,73
8.333332,8.854166,69,64,73
8.888888,9.374999,69,64,73
9.444444,9.930554,74,64,73
9.999999,11.458332,70,64,73
11.666665,12.216434,70,64,73
12.222221,12.77199,70,64,73
12.777777,13.29861,70,64,73
13.333332,13.8831005,70,64,73
13.888887,14.438656,70,64,73
14.444443,14.994211,70,64,73
14.999998,15.549767,70,64,73
15.555554,16.105322,70,64,73
16.111109,16.631943,70,64,73
16.666664,17.216433,70,64,73
17.222221,17.77199,70,64,73
17.777777,18.327545,70,64,73
18.333332,18.854164,70,64,73
18.888887,19.438656,69,64,73
19.444443,19.965277,69,64,73
19.999998,20.97222,69,64,73
23.055553,23.298609,74,64,73
23.33333,24.687498,86,64,73
24.72222,24.999998,88,64,73
24.999998,25.277775,89,64,73
25.277775,25.555553,85,64,73
25.555553,25.83333,88,64,73
25.83333,26.111109,86,64,73
26.111109,26.388885,85,64,73
26.388885,26.63194,84,64,73
26.666664,26.94444,83,64,73
26.94444,27.22222,82,64,73
27.22222,27.499998,81,64,73
27.499998,27.743053,78,64,73
27.777775,28.33333,81,64,73
28.33333,28.81944,79,64,73
29.166664,29.44444,79,64,73
29.44444,29.72222,81,64,73
29.72222,29.965275,82,64,73
29.999996,30.425344,81,64,73
30.486109,30.555553,84,64,73
30.555553,30.83333,82,64,73
30.83333,31.076385,81,64,73
31.111109,31.94444,86,64,73
31.94444,32.187496,81,64,73
32.222218,32.499996,82,64,73
32.499996,32.777775,81,64,73
32.777775,33.055553,79,64,73
33.055553,33.17708,77,64,73
33.194443,33.263885,76,64,73
33.263885,33.32465,77,64,73
33.33333,33.402775,79,64,73
33.402775,33.472218,77,64,73
33.472218,33.541664,79,64,73
33.541664,33.611107,77,64,73
33.611107,33.680553,79,64,73
33.680553,33.749996,77,64,73
33.749996,33.819443,79,64,73
33.819443,33.888885,77,64,73
33.888885,33.95833,79,64,73
33.95833,34.027775,77,64,73
34.027775,34.097218,79,64,73
34.097218,34.166664,77,64,73
34.166664,34.236107,79,64,73
34.236107,34.305553,77,64,73
34.305553,34.374996,79,64,73
34.374996,34.444443,77,64,73
34.444443,34.513885,79,64,73
34.513885,34.58333,77,64,73
34.58333,34.652775,79,64,73
34.652775,34.722218,77,64,73
34.722218,34.791664,79,64,73
34.791664,34.861107,77,64,73
34.861107,34.930553,79,64,73
34.930553,34.999996,77,64,73
34.999996,35.069443,79,64,73
35.069443,35.138885,77,64,73
35.138885,35.20833,79,64,73
35.20833,35.277775,77,64,73
35.277775,35.416664,76,64,73
35.416664,35.538193,77,64,73
35.555553,36.041664,76,64,73
36.666664,38.611107,84,64,73
38.888885,39.44444,81,64,73
39.44444,39.930553,77,64,73
39.999996,40.55555,72,64,73
40.55555,41.041664,69,64,73
41.111107,42.08333,65,64,73
42.222218,43.81944,77,64,73
43.888885,44.44444,78,64,73
44.44444,44.999996,79,64,73
44.999996,45.486107,81,64,73
45.55555,45.83333,82,64,73
45.83333,46.111107,84,64,73
46.111107,46.388885,85,64,73
46.388885,46.63194,86,64,73
46.66666,47.499996,77,64,73
47.499996,47.638885,79,64,73
47.638885,47.76041,77,64,73
47.777775,48.023724,76,64,73
49.999996,50.83333,72,64,73
50.83333,51.076385,70,64,73
51.111107,51.357056,69,64,73
53.88888,54.134834,74,64,73
54.44444,54.690388,74,64,73
54.999996,55.245945,74,64,73
55.55555,55.8015,74,64,73
56.111107,56.357056,74,64,73
56.66666,57.77777,74,64,73
57.77777,58.26388,79,64,73
59.722218,59.843742,72,64,73
59.999992,60.972218,72,64,73
61.111107,61.357056,77,64,73
63.88888,64.30555,77,64,73
64.30555,64.42708,72,64,73
64.444435,64.690384,69,64,73
67.22221,67.638885,77,64,73
67.638885,67.76041,74,64,73
67.77777,68.02372,70,64,73
70.55555,70.8015,74,64,73
71.11111,71.357056,74,64,73
73.88888,74.134834,72,64,73
74.444435,74.690384,72,64,73
80.55555,80.694435,83,64,73
80.694435,80.93749,84,64,73
81.1111,81.24999,80,64,73
81.24999,81.49305,81,64,73
81.66666,81.80555,76,64,73
81.80555,82.0486,77,64,73
82.22221,82.3611,71,64,73
82.3611,82.60416,72,64,73
82.77777,82.84721,83,64,73
82.84721,82.91666,81,64,73
82.91666,82.9861,83,64,73
82.9861,83.05555,81,64,73
83.05555,83.194435,79,64,73
83.194435,83.31596,81,64,73
83.33333,83.819435,82,64,73
90.55555,90.8015,69,64,73
91.1111,91.35705,72,64,73
91.66666,91.912605,77,64,73
92.22221,92.46816,81,64,73
92.77777,93.02372,84,64,73
93.33332,96.66666,87,64,73
96.66666,97.15277,86,64,73
100.55554,100.97221,74,64,73
100.97221,101.09374,75,64,73
101.1111,101.35705,74,64,73
103.88888,104.13483,77,64,73
104.444435,104.690384,77,64,73
104.99999,105.24594,77,64,73
105.55554,105.80149,76,64,73
106.1111,106.35705,76,64,73
106.66666,106.912605,77,64,73
111.944435,112.22221,86,64,73
112.22221,112.95138,84,64,73
113.05554,113.33332,76,64,73
113.33332,113.57927,77,64,73
118.6111,118.88888,86,64,73
118.88888,119.61804,84,64,73
119.72221,119.96526,76,64,73
119.999985,122.22221,79,64,73
122.22221,122.70832,77,64,73
126.66666,128.02081,87,64,73
128.05554,128.33331,86,64,73
128.33331,128.6111,84,64,73
128.6111,128.85416,82,64,73
128.88887,129.16666,81,64,73
129.16666,129.44443,82,64,73
129.44443,129.72221,84,64,73
129.72221,129.96527,81,64,73
129.99998,130.4861,78,64,73
133.05554,133.17706,74,64,73
133.33331,134.16666,74,64,73
134.16666,134.40971,78,64,73
134.44443,134.69038,81,64,73
134.99998,135.27777,81,64,73
135.27777,135.52081,79,64,73
135.55554,135.83331,78,64,73
135.83331,136.1111,81,64,73
136.1111,136.38887,84,64,73
136.38887,136.63193,87,64,73
136.66666,137.08331,87,64,73
137.08331,137.20485,86,64,73
137.22221,137.46815,86,64,73
138.33331,138.88309,74,64,73
138.88887,139.43864,74,64,73
139.44443,139.96527,74,64,73
139.99998,140.54976,74,64,73
140.55554,141.10532,74,64,73
141.1111,141.66086,74,64,73
141.66666,142.21642,74,64,73
142.22221,142.77197,74,64,73
142.77777,143.2986,74,64,73
143.33331,143.88309,74,64,73
143.88887,144.43864,74,64,73
144.44443,144.9942,74,64,73
144.99998,145.54976,74,64,73
145.55554,146.10532,74,64,73
146.1111,146.63193,74,64,73
146.66666,147.21642,74,64,73
147.22221,147.77197,74,64,73
147.77776,148.32753,74,64,73
148.33331,148.88309,74,64,73
148.88887,149.43864,74,64,73
149.44443,149.96526,74,64,73
149.99998,150.55554,77,64,73
150.55554,151.04166,70,64,73
151.1111,151.35704,70,64,73
151.66666,152.21642,70,64,73
152.22221,152.77197,75,64,73
152.77776,153.2986,75,64,73
153.33331,153.88309,74,64,73
153.88887,154.43864,74,64,73
154.44443,154.9942,74,64,73
154.99998,155.54976,74,64,73
155.55554,156.1053,74,64,73
156.1111,156.63193,74,64,73
156.66666,157.21642,75,64,73
157.22221,157.77197,75,64,73
157.77776,158.32753,75,64,73
158.33331,158.88309,72,64,73
158.88887,159.43864,72,64,73
159.44443,159.96526,72,64,73
159.99998,160.54976,72,64,73
160.55554,161.1053,72,64,73
161.1111,161.66086,72,64,73
161.66666,162.21642,69,64,73
162.2222,162.77197,69,64,73
162.77776,163.2986,69,64,73
163.33331,163.88309,70,64,73
163.88887,164.43864,70,64,73
164.44443,164.9942,70,64,73
164.99998,165.54976,70,64,73
165.55554,166.1053,70,64,73
166.1111,166.63193,70,64,73
166.66666,167.21642,69,64,73
167.2222,167.77197,69,64,73
167.77776,168.32753,69,64,73
168.33331,168.88309,69,64,73
168.88887,169.43864,69,64,73
169.44443,169.96526,69,64,73
169.99998,170.54976,67,64,73
170.55554,171.1053,67,64,73
171.1111,171.63193,67,64,73
173.05554,173.2986,74,64,73
173.33331,173.6111,81,64,73
173.6111,173.85416,80,64,73
173.88887,174.68748,80,64,73
174.7222,174.99998,89,64,73
174.99998,175.27776,88,64,73
175.27776,175.55554,89,64,73
175.55554,175.83331,91,64,73
175.83331,176.1111,89,64,73
176.1111,176.38887,88,64,73
176.38887,176.63193,86,64,73
176.66666,177.49998,85,64,73
177.49998,177.63887,86,64,73
177.63887,177.7604,88,64,73
177.77776,178.02371,81,64,73
178.33331,178.57927,81,64,73
178.88887,179.13483,77,64,73
179.44443,179.69037,74,64,73
179.99998,180.83331,73,64,73
180.83331,180.9722,74,64,73
180.9722,181.09373,76,64,73
181.1111,181.35704,69,64,73
181.66664,181.9126,81,64,73
182.2222,182.46815,77,64,73
182.77776,183.02371,74,64,73
183.33331,184.30554,81,64,73
187.2222,187.63887,79,64,73
187.63887,187.76039,76,64,73
187.77776,188.02371,73,64,73
190.55554,190.9722,79,64,73
190.9722,191.09373,76,64,73
191.1111,191.35704,73,64,73
193.88887,194.30554,82,64,73
194.30554,194.42706,79,64,73
194.44443,194.69037,76,64,73
197.2222,197.77776,76,64,73
197.77776,198.26387,77,64,73
207.2222,207.46815,82,64,73
208.33331,208.57925,79,64,73
209.44443,209.69037,76,64,73
210.55554,210.80148,74,64,73
211.11108,211.35704,74,64,73
211.66664,211.9126,74,64,73
212.2222,212.46815,74,64,73
212.77776,213.02371,74,64,73
213.88887,214.13481,74,64,73
214.44443,214.69037,74,64,73
214.99998,215.24593,74,64,73
215.55553,215.80148,73,64,73
216.11108,216.35704,73,64,73
217.2222,217.36108,80,64,73
217.36108,217.60414,81,64,73
217.77776,217.91664,85,64,73
217.91664,218.1597,86,64,73
218.33331,218.4722,80,64,73
218.4722,218.71526,81,64,73
218.88887,219.02776,76,64,73
219.02776,219.27081,77,64,73
219.44443,219.51387,76,64,73
219.51387,219.58331,74,64,73
219.58331,219.65276,76,64,73
219.65276,219.7222,74,64,73
219.7222,219.86108,73,64,73
219.86108,219.98262,74,64,73
219.99998,220.24593,73,64,73
228.33331,228.88307,86,64,73
228.88887,229.43863,86,64,73
229.44443,229.96526,86,64,73
229.99997,230.83331,87,64,73
230.83331,231.07637,86,64,73
231.11108,231.66086,85,64,73
231.66664,232.21642,85,64,73
232.2222,232.77197,85,64,73
232.77776,233.29858,85,64,73
233.33331,234.16664,86,64,73
234.16664,234.4097,88,64,73
234.44443,234.69037,89,64,73
234.99997,235.54974,86,64,73
235.55553,236.1053,86,64,73
236.11108,236.63193,86,64,73
236.66664,237.49997,87,64,73
237.49997,237.74303,86,64,73
237.77776,238.32753,85,64,73
238.33331,238.88307,85,64,73
238.88887,239.43863,85,64,73
239.44443,239.96526,85,64,73
239.99997,240.48608,86,64,73
243.88887,244.13481,74,64,73
244.44443,244.69037,74,64,73
247.2222,247.77197,74,64,73
247.77776,248.32751,74,64,73
248.33331,248.88307,74,64,73
248.88887,249.43863,73,64,73
249.44441,249.96526,73,64,73
249.99997,250.48608,74,64,73
251.94441,252.2222,86,64,73
252.2222,252.95137,84,64,73
253.05553,253.33331,81,64,73
253.33331,253.57925,79,64,73
258.61108,258.88885,86,64,73
258.88885,259.61804,84,64,73
259.7222,259.99997,81,64,73
259.99997,260.2459,79,64,73
262.2222,262.95135,76,64,73
263.05554,263.29858,81,64,73
263.3333,266.66663,79,64,73
266.66663,267.15274,77,64,73
6.3888884,6.6319437,69,64,68
6.666666,7.499999,74,64,68
7.499999,7.743055,77,64,68
7.777777,8.263888,81,64,68
8.333332,8.611111,80,64,68
8.611111,8.888888,81,64,68
8.888888,9.166666,82,64,68
9.166666,9.444444,81,64,68
9.444444,9.722221,77,64,68
9.722221,9.965277,74,64,68
9.999999,10.277777,73,64,68
10.277777,10.370369,74,64,68
10.370369,10.462962,73,64,68
10.462962,10.555554,71,64,68
10.555554,10.79861,73,64,68
10.833332,11.076387,74,64,68
11.11111,11.603008,76,64,68
13.888887,14.438656,70,64,68
14.444443,14.994211,70,64,68
14.999998,15.549767,70,64,68
15.555554,16.105322,70,64,68
16.111109,16.631943,70,64,68
16.666664,17.216433,70,64,68
17.222221,17.77199,70,64,68
17.777777,18.327545,70,64,68
18.333332,18.854164,70,64,68
18.888887,19.438656,69,64,68
19.444443,19.965277,69,64,68
19.999998,20.549767,69,64,68
20.555553,21.105322,69,64,68
21.111109,21.660877,69,64,68
21.666664,22.216433,69,64,68
22.22222,22.771988,69,64,68
22.777775,23.298609,69,64,68
23.33333,23.883099,69,64,68
23.888887,24.438656,69,64,68
24.444443,24.994211,69,64,68
24.999998,25.52083,69,64,68
25.555553,26.105322,74,64,68
26.111109,26.63194,74,64,68
26.666664,27.216433,74,64,68
27.22222,27.771988,74,64,68
27.777775,28.327543,74,64,68
28.33333,28.883099,74,64,68
28.888885,29.438654,73,64,68
29.44444,29.965275,73,64,68
29.999996,30.549765,74,64,68
30.555553,31.105322,74,64,68
31.111109,31.660877,74,64,68
31.666664,32.187496,74,64,68
32.222218,32.499996,79,64,68
32.499996,32.777775,77,64,68
32.777775,33.055553,76,64,68
33.055553,33.17708,74,64,68
33.194443,33.263885,73,64,68
33.263885,33.32465,74,64,68
33.33333,33.402775,76,64,68
33.402775,33.472218,74,64,68
33.472218,33.541664,76,64,68
33.541664,33.611107,74,64,68
33.611107,33.680553,76,64,68
33.680553,33.749996,74,64,68
33.749996,33.819443,76,64,68
33.819443,33.888885,74,64,68
33.888885,33.95833,76,64,68
33.95833,34.027775,74,64,68
34.027775,34.097218,76,64,68
34.097218,34.166664,74,64,68
34.166664,34.236107,76,64,68
34.236107,34.305553,74,64,68
34.305553,34.374996,76,64,68
34.374996,34.444443,74,64,68
34.444443,34.513885,76,64,68
34.513885,34.58333,74,64,68
34.58333,34.652775,76,64,68
34.652775,34.722218,74,64,68
34.722218,34.791664,76,64,68
34.791664,34.861107,74,64,68
34.861107,34.930553,76,64,68
34.930553,34.999996,74,64,68
34.999996,35.069443,76,64,68
35.069443,35.138885,74,64,68
35.138885,35.20833,76,64,68
35.20833,35.277775,74,64,68
35.277775,35.416664,73,64,68
35.416664,35.538193,74,64,68
35.555553,36.041664,73,64,68
36.666664,38.611107,84,64,68
38.888885,39.44444,81,64,68
39.44444,39.930553,77,64,68
39.999996,40.55555,72,64,68
40.55555,41.041664,69,64,68
41.111107,42.777775,65,64,68
42.777775,43.263885,63,64,68
43.33333,43.579277,62,64,68
43.888885,44.44444,66,64,68
44.44444,44.999996,67,64,68
44.999996,45.486107,69,64,68
45.55555,45.83333,70,64,68
45.83333,46.111107,72,64,68
46.111107,46.388885,73,64,68
46.388885,46.63194,74,64,68
46.66666,47.499996,65,64,68
47.499996,47.638885,67,64,68
47.638885,47.76041,65,64,68
47.777775,48.023724,64,64,68
49.999996,50.83333,69,64,68
50.83333,51.076385,67,64,68
51.111107,51.357056,65,64,68
53.88888,54.134834,70,64,68
54.44444,54.690388,70,64,68
54.999996,55.245945,70,64,68
55.55555,56.111107,70,64,68
56.111107,56.597218,66,64,68
56.66666,57.222218,67,64,68
57.222218,57.77777,69,64,68
57.77777,58.26388,70,64,68
59.722218,59.843742,67,64,68
59.999992,60.83333,67,64,68
60.83333,61.07638,64,64,68
61.111107,61.357056,65,64,68
63.88888,64.30555,72,64,68
64.30555,64.42708,69,64,68
64.444435,64.690384,65,64,68
67.22221,67.638885,74,64,68
67.638885,67.76041,70,64,68
67.77777,68.02372,65,64,68
70.55555,70.8015,70,64,68
71.11111,71.357056,70,64,68
73.88888,74.134834,69,64,68
74.444435,74.690384,65,64,68
78.33333,79.444435,72,64,68
79.444435,79.93055,70,64,68
79.99999,82.91666,69,64,68
83.33333,83.57928,67,64,68
83.88888,84.02777,81,64,68
84.02777,84.27083,82,64,68
84.444435,84.58333,78,64,68
84.58333,84.82638,79,64,68
84.99999,85.13888,75,64,68
85.13888,85.381935,76,64,68
85.55555,85.694435,71,64,68
85.694435,85.93749,72,64,68
86.1111,86.18055,81,64,68
86.18055,86.24999,79,64,68
86.24999,86.319435,81,64,68
86.319435,86.38888,79,64,68
86.38888,86.52777,77,64,68
86.52777,86.6493,79,64,68
86.66666,87.15277,81,64,68
90.55555,90.8015,65,64,68
91.1111,91.35705,69,64,68
91.66666,91.912605,72,64,68
92.22221,92.46816,77,64,68
92.77777,93.02372,81,64,68
93.33332,96.66666,84,64,68
96.66666,97.15277,82,64,68
100.55554,100.97221,70,64,68
100.97221,101.09374,72,64,68
101.1111,101.35705,70,64,68
103.88888,104.13483,74,64,68
104.444435,104.690384,72,64,68
104.99999,105.24594,72,64,68
105.55554,105.80149,70,64,68
106.1111,106.35705,70,64,68
106.66666,106.912605,69,64,68
108.6111,108.88888,77,64,68
108.88888,109.61804,75,64,68
109.72221,109.99999,72,64,68
109.99999,110.24594,70,64,68
113.33332,113.6111,69,64,68
113.6111,113.85416,72,64,68
113.88888,114.16666,72,64,68
114.16666,114.40971,69,64,68
114.444435,114.72221,69,64,68
114.72221,114.96526,72,64,68
114.999985,115.27776,72,64,68
115.27776,115.52082,69,64,68
115.55554,115.83332,69,64,68
115.83332,116.07638,72,64,68
116.1111,116.38888,72,64,68
116.38888,116.631935,69,64,68
116.66666,116.944435,70,64,68
116.944435,117.187485,74,64,68
117.22221,117.499985,74,64,68
117.499985,117.74304,70,64,68
117.77776,118.05554,70,64,68
118.05554,118.2986,74,64,68
118.33332,118.6111,74,64,68
118.6111,118.85416,70,64,68
118.88888,119.16666,67,64,68
119.16666,119.40971,70,64,68
119.444435,119.72221,72,64,68
119.72221,119.96526,70,64,68
119.999985,122.22221,70,64,68
122.22221,122.70832,69,64,68
126.66666,128.02081,75,64,68
128.05554,128.33331,74,64,68
128.33331,128.6111,75,64,68
128.6111,128.85416,74,64,68
128.88887,129.16666,72,64,68
129.16666,129.44443,74,64,68
129.44443,129.72221,75,64,68
129.72221,129.96527,72,64,68
129.99998,130.4861,69,64,68
130.55554,131.10532,74,64,68
131.1111,131.66087,74,64,68
131.66666,132.21642,74,64,68
132.22221,132.77197,74,64,68
132.77777,133.2986,74,64,68
133.33331,133.88309,74,64,68
133.88887,134.43864,74,64,68
134.44443,134.9942,74,64,68
134.99998,135.54976,74,64,68
135.55554,136.10532,75,64,68
136.1111,136.63193,75,64,68
136.66666,137.21642,69,64,68
137.22221,137.77197,69,64,68
137.77777,138.2986,69,64,68
139.72221,139.96527,74,64,68
139.99998,140.27777,74,64,68
140.27777,140.55554,78,64,68
140.55554,140.83331,81,64,68
140.83331,141.07637,79,64,68
141.1111,141.38887,78,64,68
141.38887,141.66666,81,64,68
141.66666,141.94443,84,64,68
141.94443,142.18748,82,64,68
142.22221,142.49998,81,64,68
142.49998,142.77777,78,64,68
142.77777,143.05554,74,64,68
143.05554,143.2986,72,64,68
143.33331,143.6111,72,64,68
143.6111,143.88887,74,64,68
143.88887,144.16666,69,64,68
144.16666,144.40971,70,64,68
144.44443,144.69038,70,64,68
144.99998,145.54976,70,64,68
145.55554,146.10532,70,64,68
146.1111,146.63193,70,64,68
146.66666,147.21642,70,64,68
147.22221,147.77197,70,64,68
147.77776,148.32753,70,64,68
148.33331,148.88309,70,64,68
148.88887,149.43864,70,64,68
149.44443,149.96526,70,64,68
149.99998,150.54976,70,64,68
150.55554,151.10532,70,64,68
151.1111,151.63193,70,64,68
151.66666,152.21642,67,64,68
152.22221,152.77197,67,64,68
152.77776,153.2986,67,64,68
153.33331,153.88309,67,64,68
153.88887,154.43864,67,64,68
154.44443,154.9942,67,64,68
154.99998,155.54976,67,64,68
155.55554,156.1053,67,64,68
156.1111,156.63193,67,64,68
156.66666,157.21642,67,64,68
157.22221,157.77197,67,64,68
157.77776,158.32753,67,64,68
158.33331,158.88309,67,64,68
158.88887,159.43864,67,64,68
159.44443,159.96526,67,64,68
159.99998,160.54976,69,64,68
160.55554,161.1053,69,64,68
161.1111,161.66086,69,64,68
161.66666,162.21642,69,64,68
162.2222,162.77197,66,64,68
162.77776,163.2986,66,64,68
163.33331,163.88309,67,64,68
163.88887,164.43864,67,64,68
164.44443,164.96526,67,64,68
166.38887,166.63193,76,64,68
166.66666,168.02081,81,64,68
168.05554,168.33331,84,64,68
168.33331,168.6111,82,64,68
168.6111,168.85416,81,64,68
168.88887,169.16666,79,64,68
169.16666,169.44443,78,64,68
169.44443,169.7222,81,64,68
169.7222,169.96526,78,64,68
169.99998,170.55554,79,64,68
170.55554,170.69443,78,64,68
170.69443,170.83331,77,64,68
170.83331,170.9722,76,64,68
170.9722,171.09373,75,64,68
171.1111,171.35704,74,64,68
171.66666,172.21642,74,64,68
172.2222,172.77197,74,64,68
172.77776,173.2986,74,64,68
173.33331,175.55554,74,64,68
175.55554,176.52776,76,64,68
176.66666,177.49998,76,64,68
177.49998,177.74304,73,64,68
177.77776,178.02371,73,64,68
178.33331,178.57927,81,64,68
178.88887,179.13483,77,64,68
179.44443,179.69037,74,64,68
179.99998,180.83331,73,64,68
180.83331,180.9722,74,64,68
180.9722,181.09373,76,64,68
181.1111,181.35704,69,64,68
181.66664,181.9126,81,64,68
182.2222,182.46815,77,64,68
182.77776,183.02371,74,64,68
183.33331,184.30554,73,64,68
187.2222,187.63887,76,64,68
187.63887,187.76039,73,64,68
187.77776,188.02371,69,64,68
190.55554,190.9722,76,64,68
190.9722,191.09373,73,64,68
191.1111,191.35704,69,64,68
193.88887,194.30554,79,64,68
194.30554,194.42706,76,64,68
194.44443,194.69037,73,64,68
197.2222,197.77776,73,64,68
197.77776,198.26387,74,64,68
207.2222,207.46815,79,64,68
208.33331,208.57925,76,64,68
209.44443,209.69037,67,64,68
209.99998,212.91664,65,64,68
213.88887,214.13481,67,64,68
214.44443,214.69037,65,64,68
214.99998,215.24593,65,64,68
215.55553,215.80148,64,64,68
216.11108,216.35704,69,64,68
216.66664,219.58331,69,64,68
219.99998,220.48608,69,64,68
220.55553,220.69443,81,64,68
220.69443,220.93748,82,64,68
221.11108,221.24998,78,64,68
221.24998,221.49303,79,64,68
221.66664,221.80553,75,64,68
221.80553,222.04858,76,64,68
222.2222,222.36108,78,64,68
222.36108,222.60414,79,64,68
222.77776,222.8472,75,64,68
222.8472,222.91664,73,64,68
222.91664,222.98608,75,64,68
222.98608,223.05553,73,64,68
223.05553,223.19443,71,64,68
223.19443,223.31595,73,64,68
223.33331,223.81943,74,64,68
226.66664,229.58331,69,64,68
229.99997,232.91664,70,64,68
233.33331,236.24997,69,64,68
236.66664,239.58331,70,64,68
239.99997,240.48608,69,64,68
240.55553,240.63655,74,64,68
240.74072,240.82173,76,64,68
240.9259,241.00693,78,64,68
241.11108,241.29626,79,64,68
241.29626,241.48146,81,64,68
241.48146,241.6435,82,64,68
241.66664,241.74767,74,64,68
241.85182,241.93285,76,64,68
242.03702,242.11803,78,64,68
242.2222,242.40738,79,64,68
242.40738,242.59258,81,64,68
242.59258,242.75461,82,64,68
242.77776,242.85876,74,64,68
242.96294,243.04396,76,64,68
243.14812,243.22914,78,64,68
243.33331,243.5185,79,64,68
243.5185,243.70367,81,64,68
243.70367,243.88887,78,64,68
243.88887,244.07405,79,64,68
244.07405,244.25923,81,64,68
244.25923,244.42126,78,64,68
244.44443,244.52544,79,64,68
244.62961,244.71062,82,64,68
244.81479,244.89581,81,64,68
244.99997,245.081,79,64,68
245.18517,245.26617,78,64,68
245.37035,245.45137,77,64,68
245.55553,245.63655,76,64,68
245.74072,245.82173,74,64,68
245.9259,246.00691,73,64,68
246.11108,246.19211,72,64,68
246.29626,246.37729,71,64,68
246.48146,246.56247,70,64,68
246.66664,246.85182,69,64,68
246.85182,247.03702,73,64,68
247.03702,247.19905,74,64,68
247.2222,247.30322,77,64,68
247.40738,247.4884,81,64,68
247.59258,247.67358,86,64,68
247.77776,247.8472,77,64,68
247.8472,247.91664,76,64,68
247.91664,247.98608,77,64,68
247.98608,248.05553,76,64,68
248.05553,248.12497,77,64,68
248.12497,248.19441,76,64,68
248.19441,248.26387,77,64,68
248.26387,248.33331,76,64,68
248.33331,248.40276,77,64,68
248.40276,248.4722,76,64,68
248.4722,248.54164,77,64,68
248.54164,248.61108,76,64,68
248.61108,248.68053,77,64,68
248.68053,248.74997,76,64,68
248.74997,248.81941,77,64,68
248.81941,248.88887,76,64,68
248.88887,248.95831,77,64,68
248.95831,249.02776,76,64,68
249.02776,249.0972,77,64,68
249.0972,249.16664,76,64,68
249.16664,249.23608,77,64,68
249.23608,249.30553,76,64,68
249.30553,249.37497,77,64,68
249.37497,249.44441,76,64,68
249.44441,249.51387,77,64,68
249.51387,249.58331,76,64,68
249.58331,249.65276,77,64,68
249.65276,249.7222,76,64,68
249.7222,249.86108,74,64,68
249.86108,249.98262,76,64,68
249.99997,250.48608,74,64,68
253.33331,253.61108,67,64,68
253.61108,253.85414,70,64,68
253.88887,254.16664,74,64,68
254.16664,254.4097,70,64,68
254.44441,254.7222,67,64,68
254.7222,254.96526,70,64,68
254.99997,255.27776,74,64,68
255.27776,255.52081,70,64,68
255.55553,255.83331,64,64,68
255.83331,256.07635,67,64,68
256.11108,256.38885,69,64,68
256.38885,256.63193,67,64,68
256.66663,256.94443,65,64,68
256.94443,257.18747,69,64,68
257.2222,257.49997,74,64,68
257.49997,257.74304,69,64,68
257.77774,258.26385,65,64,68
261.94443,262.2222,82,64,68
262.2222,262.95135,81,64,68
263.05554,263.29858,73,64,68
263.3333,266.66663,76,64,68
266.66663,267.15274,74,64,68
0.0,1.4583331,69,64,71
1.6666665,2.216435,69,64,71
2.222222,2.7719905,69,64,71
2.7777774,3.2986107,69,64,71
3.333333,3.8831015,69,64,71
3.8888886,4.438657,69,64,71
4.444444,4.9942126,69,64,71
4.9999995,5.549768,69,64,71
5.555555,6.1053233,69,64,71
6.1111107,6.6319437,69,64,71
6.666666,7.2164345,69,64,71
7.2222214,7.77199,69,64,71
7.777777,8.327545,69,64,71
8.333332,8.854166,69,64,71
8.888888,9.444444,69,64,71
9.444444,9.930554,74,64,71
9.999999,11.458332,70,64,71
11.666665,12.216434,70,64,71
12.222221,12.77199,70,64,71
12.777777,13.29861,70,64,71
13.333332,13.8831005,70,64,71
13.888887,14.438656,70,64,71
14.444443,14.965277,70,64,71
16.388887,16.631943,73,64,71
16.666664,17.499998,76,64,71
17.499998,17.743053,79,64,71
17.777777,18.263887,82,64,71
18.333332,18.611109,82,64,71
18.611109,18.888887,79,64,71
18.888887,19.166664,77,64,71
19.166664,19.444443,76,64,71
19.444443,19.72222,81,64,71
19.72222,19.965277,79,64,71
19.999998,20.277775,79,64,71
20.277775,20.555553,80,64,71
20.555553,20.833332,81,64,71
20.833332,21.076387,76,64,71
21.111109,21.944443,79,64,71
21.944443,22.187498,77,64,71
22.22222,22.70833,77,64,71
23.888887,24.438656,69,64,71
24.444443,24.994211,69,64,71
24.999998,25.549767,69,64,71
25.555553,26.105322,69,64,71
26.111109,26.63194,69,64,71
26.666664,27.22222,74,64,71
27.22222,27.777775,72,64,71
27.777775,28.263885,70,64,71
28.33333,28.883099,70,64,71
28.888885,29.438654,70,64,71
29.44444,29.965275,70,64,71
29.999996,30.549765,69,64,71
30.555553,31.105322,69,64,71
31.111109,31.660877,69,64,71
31.666664,32.21643,69,64,71
32.222218,32.771988,69,64,71
32.777775,33.298607,69,64,71
33.33333,33.8831,69,64,71
33.888885,34.438656,69,64,71
34.444443,34.99421,69,64,71
34.999996,35.52083,69,64,71
35.555553,36.041664,69,64,71
36.666664,38.611107,84,64,71
38.888885,39.44444,81,64,71
39.44444,39.930553,77,64,71
39.999996,40.55555,72,64,71
40.55555,41.041664,69,64,71
41.111107,42.08333,65,64,71
42.222218,43.33333,60,64,71
43.33333,43.81944,62,64,71
44.999996,45.55555,66,64,71
45.55555,46.04166,67,64,71
46.111107,46.357056,70,64,71
46.66666,47.777775,69,64,71
47.777775,48.263885,67,64,71
49.999996,52.91666,65,64,71
53.33333,53.579277,58,64,71
54.44444,54.690388,58,64,71
55.55555,55.8015,58,64,71
56.66666,58.88888,55,64,71
58.88888,59.861107,52,64,71
59.999992,60.24594,53,64,71
61.111107,61.357056,53,64,71
63.88888,64.134834,65,64,71
64.444435,64.690384,65,64,71
64.99999,65.24594,65,64,71
65.55555,65.8015,65,64,71
66.11111,66.357056,65,64,71
66.66666,68.12499,65,64,71
68.33333,68.57928,62,64,71
68.888885,69.134834,62,64,71
69.444435,69.690384,62,64,71
69.99999,70.24594,62,64,71
76.11111,76.90971,77,64,71
76.944435,77.22221,79,64,71
77.22221,77.49999,76,64,71
77.49999,77.74305,77,64,71
77.77777,78.04976,77,64,71
78.05555,78.32754,77,64,71
78.33333,78.605316,77,64,71
78.61111,78.87152,77,64,71
78.88888,79.16087,76,64,71
79.16666,79.43865,76,64,71
79.444435,79.71643,76,64,71
79.72221,79.98263,76,64,71
79.99999,81.1111,77,64,71
81.1111,82.22221,72,64,71
82.22221,83.194435,69,64,71
83.33333,86.66666,70,64,71
86.66666,87.15277,69,64,71
87.22221,87.3611,83,64,71
87.3611,87.60416,84,64,71
87.77777,87.91666,80,64,71
87.91666,88.15971,81,64,71
88.33333,88.47221,76,64,71
88.47221,88.71527,77,64,71
88.88888,89.02777,71,64,71
89.02777,89.27082,72,64,71
89.444435,89.58332,68,64,71
89.58332,89.82638,69,64,71
89.99999,91.45832,65,64,71
91.66666,91.912605,77,64,71
92.22221,92.46816,77,64,71
92.77777,93.02372,77,64,71
93.33332,93.39698,79,64,71
93.40277,93.47221,78,64,71
93.47221,93.54166,79,64,71
93.54166,93.6111,78,64,71
93.6111,93.68055,79,64,71
93.68055,93.74999,78,64,71
93.74999,93.819435,79,64,71
93.819435,93.88888,78,64,71
93.88888,93.95832,79,64,71
93.95832,94.02777,78,64,71
94.02777,94.09721,79,64,71
94.09721,94.16666,78,64,71
94.16666,94.2361,79,64,71
94.2361,94.30555,78,64,71
94.30555,94.37499,79,64,71
94.37499,94.444435,78,64,71
94.444435,94.51388,79,64,71
94.51388,94.58332,78,64,71
94.58332,94.65277,79,64,71
94.65277,94.72221,78,64,71
94.72221,94.79166,79,64,71
94.79166,94.8611,78,64,71
94.8611,94.93055,79,64,71
94.93055,94.99999,78,64,71
94.99999,95.069435,79,64,71
95.069435,95.13888,78,64,71
95.13888,95.20832,79,64,71
95.20832,95.27777,78,64,71
95.27777,95.34721,79,64,71
95.34721,95.41666,78,64,71
95.41666,95.4861,79,64,71
95.4861,95.55555,78,64,71
95.55555,95.62499,79,64,71
95.62499,95.694435,78,64,71
95.694435,95.76388,79,64,71
95.76388,95.83332,78,64,71
95.83332,95.90277,79,64,71
95.90277,95.97221,78,64,71
95.97221,96.04166,79,64,71
96.04166,96.1111,78,64,71
96.1111,96.18055,79,64,71
96.18055,96.24999,78,64,71
96.24999,96.319435,79,64,71
96.319435,96.38888,78,64,71
96.38888,96.52777,76,64,71
96.52777,96.6493,78,64,71
96.66666,97.15277,79,64,71
97.22221,97.30323,74,64,71
97.407394,97.48842,76,64,71
97.59258,97.6736,78,64,71
97.77777,97.96295,79,64,71
97.96295,98.14814,81,64,71
98.14814,98.31017,82,64,71
98.33332,98.414345,74,64,71
98.51851,98.599525,76,64,71
98.7037,98.78471,78,64,71
98.88888,99.074066,79,64,71
99.074066,99.25925,81,64,71
99.25925,99.42129,82,64,71
99.444435,99.52545,74,64,71
99.62962,99.71064,76,64,71
99.814804,99.89582,78,64,71
99.99999,100.18517,79,64,71
100.18517,100.37036,81,64,71
100.37036,100.55554,78,64,71
100.55554,100.74073,79,64,71
100.74073,100.92592,81,64,71
100.92592,101.08795,78,64,71
101.1111,101.192116,79,64,71
101.29629,101.377304,82,64,71
101.48147,101.56249,81,64,71
101.66666,101.74767,79,64,71
101.851845,101.93286,78,64,71
102.037025,102.11804,77,64,71
102.22221,102.30323,76,64,71
102.407394,102.48842,75,64,71
102.59258,102.6736,74,64,71
102.77777,102.85879,72,64,71
102.96295,103.04397,71,64,71
103.14814,103.22916,70,64,71
103.33332,103.51851,69,64,71
103.51851,103.70369,72,64,71
103.70369,103.86573,77,64,71
103.88888,103.969894,74,64,71
104.074066,104.15508,79,64,71
104.25925,104.2795,82,64,71
104.30554,104.37499,77,64,71
104.37499,104.43575,79,64,71
104.444435,104.51388,81,64,71
104.51388,104.58332,79,64,71
104.58332,104.65277,81,64,71
104.65277,104.72221,79,64,71
104.72221,104.79166,81,64,71
104.79166,104.8611,79,64,71
104.8611,104.93054,81,64,71
104.93054,104.99999,79,64,71
104.99999,105.069435,81,64,71
105.069435,105.13888,79,64,71
105.13888,105.20832,81,64,71
105.20832,105.27777,79,64,71
105.27777,105.34721,81,64,71
105.34721,105.41666,79,64,71
105.41666,105.4861,81,64,71
105.4861,105.55554,79,64,71
105.55554,105.62499,81,64,71
105.62499,105.694435,79,64,71
105.694435,105.76388,81,64,71
105.76388,105.83332,79,64,71
105.83332,105.90277,81,64,71
105.90277,105.97221,79,64,71
105.97221,106.04166,81,64,71
106.04166,106.1111,79,64,71
106.1111,106.18054,81,64,71
106.18054,106.24999,79,64,71
106.24999,106.319435,81,64,71
106.319435,106.38888,79,64,71
106.38888,106.52776,77,64,71
106.52776,106.64929,79,64,71
106.66666,106.912605,77,64,71
107.22221,107.49999,72,64,71
107.49999,107.74304,69,64,71
107.77776,108.05554,69,64,71
108.05554,108.2986,72,64,71
108.33332,108.6111,72,64,71
108.6111,108.85416,69,64,71
108.88888,109.16666,69,64,71
109.16666,109.40971,72,64,71
109.444435,109.72221,72,64,71
109.72221,109.96526,69,64,71
109.99999,110.27776,70,64,71
110.27776,110.52082,74,64,71
110.55554,110.83332,74,64,71
110.83332,111.07638,70,64,71
111.1111,111.38888,70,64,71
111.38888,111.631935,74,64,71
111.66666,111.944435,74,64,71
111.944435,112.18749,70,64,71
112.22221,112.49999,67,64,71
112.49999,112.74304,70,64,71
112.77776,113.05554,72,64,71
113.05554,113.2986,70,64,71
113.33332,113.57927,69,64,71
115.27776,115.55554,77,64,71
115.55554,116.28471,75,64,71
116.38888,116.66666,72,64,71
116.66666,116.912605,70,64,71
119.72221,119.96526,72,64,71
119.999985,122.22221,76,64,71
122.22221,122.70832,77,64,71
126.66666,128.02081,75,64,71
128.05554,128.33331,74,64,71
128.33331,128.6111,72,64,71
128.6111,128.85416,70,64,71
128.88887,129.61804,69,64,71
129.72221,129.96527,69,64,71
129.99998,130.4861,72,64,71
130.55554,131.10532,72,64,71
131.1111,131.66087,72,64,71
131.66666,132.21642,72,64,71
132.22221,132.77197,72,64,71
132.77777,133.2986,72,64,71
133.33331,133.88309,72,64,71
133.88887,134.43864,72,64,71
134.44443,134.9942,72,64,71
134.99998,135.54976,72,64,71
135.55554,136.10532,72,64,71
136.1111,136.63193,72,64,71
136.66666,137.21642,72,64,71
137.22221,137.77197,72,64,71
137.77777,138.32753,72,64,71
138.33331,138.88309,72,64,71
138.88887,139.43864,72,64,71
139.44443,139.96527,72,64,71
139.99998,140.54976,72,64,71
140.55554,141.10532,72,64,71
141.1111,141.66086,72,64,71
141.66666,142.18748,72,64,71
142.22221,142.77777,72,64,71
142.77777,143.26387,69,64,71
143.33331,143.88309,67,64,71
143.88887,144.43864,67,64,71
144.44443,144.96526,67,64,71
146.38887,146.63193,74,64,71
146.66666,147.49998,70,64,71
147.49998,147.74304,74,64,71
147.77776,148.05554,77,64,71
148.05554,148.33331,82,64,71
148.33331,148.6111,81,64,71
148.6111,148.88887,82,64,71
148.88887,149.16666,84,64,71
149.16666,149.44443,82,64,71
149.44443,149.72221,79,64,71
149.72221,149.96526,77,64,71
149.99998,150.24304,75,64,71
150.27776,150.37036,77,64,71
150.37036,150.46295,75,64,71
150.46295,150.55554,74,64,71
150.55554,150.7986,75,64,71
150.83331,151.07637,79,64,71
151.1111,151.35704,75,64,71
151.66666,152.21642,67,64,71
152.22221,152.77197,67,64,71
152.77776,153.2986,67,64,71
153.33331,153.88309,65,64,71
153.88887,154.43864,65,64,71
154.44443,154.9942,65,64,71
154.99998,155.54976,65,64,71
155.55554,156.1053,65,64,71
156.1111,156.63193,65,64,71
156.66666,157.21642,63,64,71
157.22221,157.77197,63,64,71
157.77776,158.2986,63,64,71
159.72221,159.96526,72,64,71
159.99998,161.35416,78,64,71
161.38887,161.66666,81,64,71
161.66666,161.94443,78,64,71
161.94443,162.2222,75,64,71
162.2222,162.49998,74,64,71
162.49998,162.77776,72,64,71
162.77776,163.05554,70,64,71
163.05554,163.2986,69,64,71
163.33331,163.57637,70,64,71
163.6111,163.70369,72,64,71
163.70369,163.79628,70,64,71
163.79628,163.88887,69,64,71
163.88887,164.13193,70,64,71
164.16666,164.4097,79,64,71
164.44443,164.69038,76,64,71
164.99998,165.54976,64,64,71
165.55554,166.1053,64,64,71
166.1111,166.63193,64,64,71
166.66666,167.21642,66,64,71
167.2222,167.77197,66,64,71
167.77776,168.32753,66,64,71
168.33331,168.88309,74,64,71
168.88887,169.43864,74,64,71
169.44443,169.96526,74,64,71
169.99998,170.55554,74,64,71
170.55554,171.04166,67,64,71
171.1111,171.66086,67,64,71
171.66666,172.21642,67,64,71
172.2222,172.77197,67,64,71
172.77776,173.2986,67,64,71
173.33331,175.55554,65,64,71
175.55554,176.04166,64,64,71
176.1111,176.5972,68,64,71
176.66666,177.21642,69,64,71
177.2222,177.74304,69,64,71
177.77776,178.02371,69,64,71
178.33331,178.57927,81,64,71
178.88887,179.13483,77,64,71
179.44443,179.69037,74,64,71
179.99998,180.83331,73,64,71
180.83331,180.9722,74,64,71
180.9722,181.09373,76,64,71
181.1111,181.35704,69,64,71
181.66664,181.9126,81,64,71
182.2222,182.46815,77,64,71
182.77776,183.02371,74,64,71
183.33331,184.30554,69,64,71
186.66664,186.9126,61,64,71
187.2222,187.46815,61,64,71
187.77776,188.02371,64,64,71
188.33331,188.57927,64,64,71
188.88887,189.13483,69,64,71
189.44443,189.69037,69,64,71
189.99998,190.24593,61,64,71
190.55554,190.80148,61,64,71
191.1111,191.35704,64,64,71
191.66664,191.9126,64,64,71
192.2222,192.46815,69,64,71
192.77776,193.02371,69,64,71
193.33331,193.88309,67,64,71
193.88887,194.43864,67,64,71
194.44443,194.96526,67,64,71
194.99998,195.54974,64,64,71
195.55554,196.1053,64,64,71
196.11108,196.63193,64,64,71
196.66664,197.77776,64,64,71
197.77776,198.26387,62,64,71
198.33331,198.57927,69,64,71
198.88887,199.13481,67,64,71
199.44443,199.69037,65,64,71
199.99998,200.54974,64,64,71
200.55554,201.1053,64,64,71
201.11108,201.66086,64,64,71
201.66664,202.18748,64,64,71
202.2222,202.77776,64,64,71
202.77776,203.26387,69,64,71
203.33331,204.44443,69,64,71
204.44443,204.93054,65,64,71
216.66664,219.99998,65,64,71
219.99998,223.33331,67,64,71
223.33331,223.81943,65,64,71
223.88887,224.02776,80,64,71
224.02776,224.27081,81,64,71
224.44443,224.58331,76,64,71
224.58331,224.82637,77,64,71
224.99998,225.13887,73,64,71
225.13887,225.38193,74,64,71
225.55553,225.69443,68,64,71
225.69443,225.93748,69,64,71
226.11108,226.24998,64,64,71
226.24998,226.49303,65,64,71
226.66664,228.12498,62,64,71
228.33331,228.88307,74,64,71
228.88887,229.43863,74,64,71
229.44443,229.96526,74,64,71
229.99997,230.83331,75,64,71
230.83331,231.07637,74,64,71
231.11108,231.66086,73,64,71
231.66664,232.21642,73,64,71
232.2222,232.77197,73,64,71
232.77776,233.29858,73,64,71
233.33331,234.16664,74,64,71
234.16664,234.4097,76,64,71
234.44443,234.69037,77,64,71
234.99997,235.54974,74,64,71
235.55553,236.1053,74,64,71
236.11108,236.63193,74,64,71
236.66664,237.49997,75,64,71
237.49997,237.74303,74,64,71
237.77776,238.32753,73,64,71
238.33331,238.88307,73,64,71
238.88887,239.43863,73,64,71
239.44443,239.96526,73,64,71
239.99997,240.48608,74,64,71
243.88887,244.13481,70,64,71
244.44443,244.69037,70,64,71
247.2222,247.77197,69,64,71
247.77776,248.32751,69,64,71
248.33331,248.88307,69,64,71
248.88887,249.43863,67,64,71
249.44441,249.96526,67,64,71
249.99997,250.27776,65,64,71
250.27776,250.55553,69,64,71
250.55553,250.83331,74,64,71
250.83331,251.07637,69,64,71
251.11108,251.38887,65,64,71
251.38887,251.66664,69,64,71
251.66664,251.94441,74,64,71
251.94441,252.18747,69,64,71
252.2222,252.49997,66,64,71
252.49997,252.77776,69,64,71
252.77776,253.05553,74,64,71
253.05553,253.29858,69,64,71
253.33331,253.81941,70,64,71
255.27776,255.55553,82,64,71
255.55553,256.2847,81,64,71
256.38885,256.66663,73,64,71
256.66663,256.9126,74,64,71
257.2222,257.49997,74,64,71
257.49997,257.74304,69,64,71
257.77774,258.05554,65,64,71
258.05554,258.3333,69,64,71
258.3333,258.61108,74,64,71
258.61108,258.85413,69,64,71
258.88885,259.16663,66,64,71
259.16663,259.44443,69,64,71
259.44443,259.7222,74,64,71
259.7222,259.96524,69,64,71
259.99997,260.27774,67,64,71
260.27774,260.55554,70,64,71
260.55554,260.8333,74,64,71
260.8333,261.11108,70,64,71
261.11108,261.38885,67,64,71
261.38885,261.66663,70,64,71
261.66663,261.94443,74,64,71
261.94443,262.18747,70,64,71
262.2222,262.49997,64,64,71
262.49997,262.77774,69,64,71
262.77774,263.05554,73,64,71
263.05554,263.29858,69,64,71
263.3333,266.66663,73,64,71
266.66663,267.15274,74,64,71
0.0,1.4583331,65,64,60
1.6666665,2.216435,65,64,60
2.222222,2.7719905,65,64,60
2.7777774,3.2986107,65,64,60
3.333333,3.8831015,65,64,60
3.8888886,4.438657,65,64,60
4.444444,4.9942126,65,64,60
4.9999995,5.549768,65,64,60
5.555555,6.1053233,65,64,60
6.1111107,6.6319437,65,64,60
6.666666,7.2164345,65,64,60
7.2222214,7.77199,65,64,60
7.777777,8.327545,65,64,60
8.333332,8.8831005,65,64,60
8.888888,9.438657,65,64,60
9.444444,9.965277,65,64,60
9.999999,11.458332,67,64,60
11.666665,12.216434,67,64,60
12.222221,12.77199,67,64,60
12.777777,13.29861,67,64,60
13.333332,13.8831005,67,64,60
13.888887,14.438656,67,64,60
14.444443,14.994211,67,64,60
14.999998,15.549767,67,64,60
15.555554,16.105322,67,64,60
16.111109,16.631943,67,64,60
16.666664,17.216433,67,64,60
17.222221,17.77199,67,64,60
17.777777,18.327545,67,64,60
18.333332,18.8831,67,64,60
18.888887,19.438656,67,64,60
19.444443,19.965277,67,64,60
19.999998,20.549767,65,64,60
20.555553,21.105322,65,64,60
21.111109,21.660877,65,64,60
21.666664,22.216433,65,64,60
22.22222,22.771988,65,64,60
22.777775,23.298609,65,64,60
23.33333,23.883099,65,64,60
23.888887,24.438656,65,64,60
24.444443,24.994211,65,64,60
24.999998,25.549767,69,64,60
25.555553,26.105322,69,64,60
26.111109,26.63194,69,64,60
26.666664,27.216433,67,64,60
27.22222,27.771988,67,64,60
27.777775,28.327543,67,64,60
28.33333,28.883099,67,64,60
28.888885,29.438654,67,64,60
29.44444,29.965275,67,64,60
29.999996,30.549765,65,64,60
30.555553,31.105322,65,64,60
31.111109,31.660877,65,64,60
31.666664,32.21643,65,64,60
32.222218,32.771988,65,64,60
32.777775,33.298607,65,64,60
33.33333,33.8831,69,64,60
33.888885,34.438656,69,64,60
34.444443,34.99421,69,64,60
34.999996,35.52083,69,64,60
35.555553,36.041664,69,64,60
36.666664,38.611107,72,64,60
38.888885,39.44444,69,64,60
39.44444,39.930553,65,64,60
39.999996,40.55555,60,64,60
40.55555,41.041664,57,64,60
41.111107,42.08333,53,64,60
42.222218,43.888885,65,64,60
43.888885,44.374996,63,64,60
44.44444,44.936337,62,64,60
45.55555,46.047447,70,64,60
46.66666,47.777775,69,64,60
47.777775,48.263885,67,64,60
61.66666,62.21643,72,64,60
62.222218,62.771984,72,64,60
62.77777,63.298603,72,64,60
63.33333,64.68749,72,64,60
64.72221,64.99999,71,64,60
64.99999,65.27777,70,64,60
65.27777,65.55555,69,64,60
65.55555,65.83333,67,64,60
65.83333,66.11111,65,64,60
66.11111,66.388885,69,64,60
66.388885,66.631935,65,64,60
66.66666,67.39583,64,64,60
67.49999,67.74305,62,64,60
67.77777,68.02372,62,64,60
68.888885,69.16666,62,64,60
69.16666,69.444435,64,64,60
69.444435,69.72221,65,64,60
69.72221,69.96527,66,64,60
69.99999,70.24305,67,64,60
70.27777,70.37036,69,64,60
70.37036,70.46296,67,64,60
70.46296,70.55555,66,64,60
70.55555,70.79861,67,64,60
70.83333,71.076385,69,64,60
71.11111,71.59721,70,64,60
71.66666,71.851845,70,64,60
71.851845,72.03703,72,64,60
72.03703,72.22221,70,64,60
72.22221,72.4074,69,64,60
72.4074,72.59258,70,64,60
72.59258,72.77777,69,64,60
72.77777,72.96296,67,64,60
72.96296,73.14814,69,64,60
73.14814,73.31018,67,64,60
73.33333,73.57638,65,64,60
73.61111,73.7037,67,64,60
73.7037,73.79629,65,64,60
73.79629,73.88888,64,64,60
73.88888,74.131935,65,64,60
74.16666,74.40971,67,64,60
74.444435,74.68749,69,64,60
74.72221,74.814804,70,64,60
74.814804,74.9074,69,64,60
74.9074,74.99999,67,64,60
74.99999,75.24305,69,64,60
75.27777,75.52083,70,64,60
75.55555,76.90971,72,64,60
76.944435,77.22221,71,64,60
77.22221,77.49999,70,64,60
77.49999,77.74305,69,64,60
77.77777,77.84721,69,64,60
77.84721,77.91666,67,64,60
77.91666,77.98611,69,64,60
77.98611,78.05555,67,64,60
78.05555,78.12499,69,64,60
78.12499,78.194435,67,64,60
78.194435,78.26388,69,64,60
78.26388,78.33333,67,64,60
78.33333,78.40277,69,64,60
78.40277,78.47221,67,64,60
78.47221,78.54166,69,64,60
78.54166,78.61111,67,64,60
78.61111,78.68055,69,64,60
78.68055,78.74999,67,64,60
78.74999,78.819435,69,64,60
78.819435,78.88888,67,64,60
78.88888,78.95833,69,64,60
78.95833,79.02777,67,64,60
79.02777,79.09721,69,64,60
79.09721,79.16666,67,64,60
79.16666,79.23611,69,64,60
79.23611,79.30555,67,64,60
79.30555,79.37499,69,64,60
79.37499,79.444435,67,64,60
79.444435,79.51388,69,64,60
79.51388,79.58333,67,64,60
79.58333,79.65277,69,64,60
79.65277,79.72221,67,64,60
79.72221,79.86111,65,64,60
79.86111,79.98263,67,64,60
79.99999,80.97221,65,64,60
83.33333,87.15277,60,64,60
91.1111,92.22221,65,64,60
92.22221,93.194435,69,64,60
93.33332,94.444435,72,64,60
94.444435,95.41666,69,64,60
95.55555,96.66666,63,64,60
96.66666,97.15277,62,64,60
106.66666,106.912605,65,64,60
107.22221,107.46816,65,64,60
107.77776,108.02372,65,64,60
108.33332,108.57927,65,64,60
108.88888,109.61804,65,64,60
109.72221,109.96526,65,64,60
109.99999,110.24594,65,64,60
110.55554,110.80149,65,64,60
111.1111,111.35705,65,64,60
111.66666,111.912605,65,64,60
112.22221,112.95138,60,64,60
113.05554,113.2986,60,64,60
113.33332,113.57927,65,64,60
113.88888,114.13483,65,64,60
114.444435,114.690384,65,64,60
114.999985,115.24594,65,64,60
115.55554,116.28471,65,64,60
116.38888,116.631935,65,64,60
116.66666,116.912605,65,64,60
117.22221,117.46816,65,64,60
117.77776,118.02371,65,64,60
118.33332,118.57927,65,64,60
118.88888,119.61804,60,64,60
119.72221,119.96526,60,64,60
119.999985,122.70832,60,64,60
123.33332,123.88309,60,64,60
123.88888,124.438644,60,64,60
124.444435,124.9942,60,64,60
124.999985,125.54976,60,64,60
125.55554,126.10531,60,64,60
126.1111,126.631935,60,64,60
126.66666,128.6111,60,64,60
128.88887,129.61804,60,64,60
129.72221,129.96527,60,64,60
129.99998,130.4861,57,64,60
130.55554,131.10532,69,64,60
131.1111,131.66087,69,64,60
131.66666,132.21642,69,64,60
132.22221,132.77197,69,64,60
132.77777,133.2986,69,64,60
133.33331,133.88309,69,64,60
133.88887,134.43864,69,64,60
134.44443,134.9942,69,64,60
134.99998,135.54976,69,64,60
135.55554,136.10532,69,64,60
136.1111,136.63193,69,64,60
136.66666,137.21642,69,64,60
137.22221,137.77197,69,64,60
137.77777,138.32753,69,64,60
138.33331,138.88309,69,64,60
138.88887,139.43864,69,64,60
139.44443,139.96527,69,64,60
139.99998,140.54976,69,64,60
140.55554,141.10532,69,64,60
141.1111,141.66086,69,64,60
141.66666,142.21642,69,64,60
142.22221,142.77197,69,64,60
142.77777,143.2986,69,64,60
143.33331,143.88309,67,64,60
143.88887,144.43864,67,64,60
144.44443,144.9942,67,64,60
144.99998,145.54976,67,64,60
145.55554,146.10532,67,64,60
146.1111,146.63193,67,64,60
146.66666,147.21642,65,64,60
147.22221,147.77197,65,64,60
147.77776,148.32753,65,64,60
148.33331,148.88309,65,64,60
148.88887,149.43864,65,64,60
149.44443,149.96526,65,64,60
149.99998,150.54976,63,64,60
150.55554,151.10532,63,64,60
151.1111,151.63193,63,64,60
151.66666,152.21642,67,64,60
152.22221,152.77197,67,64,60
152.77776,153.2986,67,64,60
153.33331,153.88309,67,64,60
153.88887,154.43864,67,64,60
154.44443,154.9942,67,64,60
154.99998,155.54976,67,64,60
155.55554,156.1053,67,64,60
156.1111,156.63193,67,64,60
156.66666,157.21642,67,64,60
157.22221,157.77197,67,64,60
157.77776,158.32753,67,64,60
158.33331,158.88309,67,64,60
158.88887,159.43864,67,64,60
159.44443,159.96526,67,64,60
159.99998,160.54976,69,64,60
160.55554,161.1053,69,64,60
161.1111,161.66086,69,64,60
161.66666,162.21642,69,64,60
162.2222,162.77197,69,64,60
162.77776,163.2986,69,64,60
163.33331,163.88309,70,64,60
163.88887,164.43864,70,64,60
164.44443,164.96526,70,64,60
164.99998,165.54976,67,64,60
165.55554,166.1053,67,64,60
166.1111,166.63193,67,64,60
166.66666,167.2222,69,64,60
167.2222,167.70831,63,64,60
167.77776,168.32753,62,64,60
168.33331,168.88309,62,64,60
168.88887,169.43864,62,64,60
169.44443,169.96526,62,64,60
169.99998,170.54976,62,64,60
170.55554,171.1053,62,64,60
171.1111,171.66086,62,64,60
171.66666,172.21642,62,64,60
172.2222,172.77197,62,64,60
172.77776,173.2986,62,64,60
173.33331,174.44443,62,64,60
174.44443,175.41666,65,64,60
175.55554,176.2847,64,64,60
176.38887,176.63193,64,64,60
176.66666,177.63887,64,64,60
178.33331,178.57927,69,64,60
178.88887,179.13483,65,64,60
179.44443,179.69037,65,64,60
179.99998,181.45831,64,64,60
181.66664,181.9126,69,64,60
182.2222,182.46815,65,64,60
182.77776,183.02371,65,64,60
183.33331,184.30554,64,64,60
194.99998,195.54974,57,64,60
195.55554,196.1053,57,64,60
196.11108,196.63193,57,64,60
196.66664,197.63887,57,64,60
198.33331,198.88309,69,64,60
198.88887,199.43864,69,64,60
199.44443,199.96526,69,64,60
199.99998,201.35414,69,64,60
201.38887,201.66664,70,64,60
201.66664,201.94443,69,64,60
201.94443,202.18748,68,64,60
202.2222,202.49998,69,64,60
202.49998,202.77776,67,64,60
202.77776,203.05554,65,64,60
203.05554,203.29858,64,64,60
203.33331,203.74998,67,64,60
203.74998,203.88887,65,64,60
203.88887,204.30554,69,64,60
204.30554,204.42706,65,64,60
204.44443,204.69037,62,64,60
204.99998,205.27776,69,64,60
205.27776,205.41664,70,64,60
205.41664,205.53818,69,64,60
205.55554,205.83331,67,64,60
205.83331,205.9722,69,64,60
205.9722,206.09373,67,64,60
206.11108,206.38887,65,64,60
206.38887,206.52776,67,64,60
206.52776,206.64929,65,64,60
206.66664,206.9097,64,64,60
206.94443,207.03702,65,64,60
207.03702,207.12961,64,64,60
207.12961,207.2222,62,64,60
207.2222,207.46526,64,64,60
207.49998,207.74304,65,64,60
207.77776,208.02081,67,64,60
208.05554,208.14813,69,64,60
208.14813,208.24072,67,64,60
208.24072,208.33331,65,64,60
208.33331,208.57637,67,64,60
208.61108,208.85414,69,64,60
208.88887,209.37498,70,64,60
209.7222,209.96526,70,64,60
209.99998,210.9722,69,64,60
211.11108,211.38887,68,64,60
211.38887,211.66664,69,64,60
211.66664,211.94443,70,64,60
211.94443,212.2222,69,64,60
212.2222,212.49998,67,64,60
212.49998,212.77776,65,64,60
212.77776,213.05553,64,64,60
213.05553,213.29858,62,64,60
213.33331,213.61108,65,64,60
213.61108,213.88887,64,64,60
213.88887,214.16664,67,64,60
214.16664,214.4097,64,64,60
214.44443,214.58331,65,64,60
214.58331,214.7222,69,64,60
214.7222,214.86108,70,64,60
214.86108,214.99998,69,64,60
214.99998,215.13887,67,64,60
215.13887,215.27776,65,64,60
215.27776,215.41664,64,64,60
215.41664,215.53818,62,64,60
215.55553,215.62498,65,64,60
215.62498,215.69443,64,64,60
215.69443,215.76387,65,64,60
215.76387,215.83331,64,64,60
215.83331,215.90276,65,64,60
215.90276,215.9722,64,64,60
215.9722,216.04164,65,64,60
216.04164,216.11108,64,64,60
216.11108,216.18053,65,64,60
216.18053,216.24998,64,64,60
216.24998,216.31943,65,64,60
216.31943,216.38887,64,64,60
216.38887,216.52776,62,64,60
216.52776,216.64928,64,64,60
216.66664,217.15276,62,64,60
219.99998,223.81943,57,64,60
226.66664,229.58331,65,64,60
229.99997,232.91664,67,64,60
233.33331,236.24997,65,64,60
236.66664,239.58331,67,64,60
239.99997,240.48608,65,64,60
247.2222,247.77197,57,64,60
247.77776,248.32751,57,64,60
248.33331,248.88307,57,64,60
248.88887,249.43863,57,64,60
249.44441,249.96526,57,64,60
249.99997,251.94441,57,64,60
252.2222,253.33331,69,64,60
253.33331,253.81941,70,64,60
255.55553,257.15274,69,64,60
258.88885,259.99997,69,64,60
259.99997,260.48608,70,64,60
262.2222,263.19443,69,64,60
263.3333,267.15274,69,64,60
0.0,1.4583331,50,64,70
1.6666665,2.216435,50,64,70
2.222222,2.7719905,50,64,70
2.7777774,3.2986107,50,64,70
3.333333,3.8831015,50,64,70
3.8888886,4.438657,50,64,70
4.444444,4.9942126,50,64,70
4.9999995,5.549768,50,64,70
5.555555,6.1053233,50,64,70
6.1111107,6.6319437,50,64,70
6.666666,7.2164345,50,64,70
7.2222214,7.77199,50,64,70
7.777777,8.327545,50,64,70
8.333332,8.8831005,50,64,70
8.888888,9.438657,50,64,70
9.444444,9.965277,50,64,70
9.999999,11.458332,52,64,70
11.666665,12.216434,52,64,70
12.222221,12.77199,52,64,70
12.777777,13.29861,52,64,70
13.333332,13.8831005,52,64,70
13.888887,14.438656,52,64,70
14.444443,14.994211,52,64,70
14.999998,15.549767,52,64,70
15.555554,16.105322,52,64,70
16.111109,16.631943,52,64,70
16.666664,17.216433,49,64,70
17.222221,17.77199,49,64,70
17.777777,18.327545,49,64,70
18.333332,18.8831,49,64,70
18.888887,19.438656,49,64,70
19.444443,19.965277,49,64,70
19.999998,20.549767,50,64,70
20.555553,21.105322,50,64,70
21.111109,21.660877,50,64,70
21.666664,22.216433,50,64,70
22.22222,22.771988,50,64,70
22.777775,23.298609,50,64,70
23.33333,23.883099,53,64,70
23.888887,24.438656,53,64,70
24.444443,24.994211,53,64,70
24.999998,25.549767,53,64,70
25.555553,26.105322,54,64,70
26.111109,26.63194,54,64,70
26.666664,27.216433,55,64,70
27.22222,27.771988,55,64,70
27.777775,28.327543,55,64,70
28.33333,28.883099,55,64,70
28.888885,29.438654,55,64,70
29.44444,29.965275,55,64,70
29.999996,30.549765,53,64,70
30.555553,31.105322,53,64,70
31.111109,31.660877,53,64,70
31.666664,32.21643,53,64,70
32.222218,32.771988,50,64,70
32.777775,33.298607,50,64,70
33.33333,33.8831,45,64,70
33.888885,34.409718,45,64,70
34.444443,34.99421,57,64,70
34.999996,35.52083,57,64,70
35.555553,36.041664,45,64,70
36.666664,38.611107,60,64,70
38.888885,39.44444,57,64,70
39.44444,39.930553,53,64,70
39.999996,40.55555,48,64,70
40.55555,41.041664,45,64,70
41.111107,42.222218,41,64,70
42.222218,43.19444,45,64,70
43.33333,43.888885,46,64,70
43.888885,44.44444,48,64,70
44.44444,44.999996,46,64,70
44.999996,45.55555,45,64,70
45.55555,46.04166,43,64,70
46.111107,46.357056,46,64,70
46.66666,48.124996,48,64,70
48.33333,48.8831,60,64,70
48.888885,49.438652,60,64,70
49.44444,49.96527,60,64,70
49.999996,51.35416,60,64,70
51.388885,51.66666,61,64,70
51.66666,51.94444,62,64,70
51.94444,52.187496,60,64,70
52.222218,52.499996,59,64,70
52.499996,52.77777,60,64,70
52.77777,53.05555,58,64,70
53.05555,53.237843,57,64,70
53.26388,53.33333,58,64,70
53.33333,53.88888,57,64,70
53.88888,54.374996,55,64,70
54.44444,55.41666,55,64,70
55.55555,55.740734,55,64,70
55.740734,55.92592,57,64,70
55.92592,56.111107,58,64,70
56.111107,56.29629,57,64,70
56.29629,56.481476,58,64,70
56.481476,56.643513,60,64,70
56.66666,56.94444,60,64,70
56.94444,57.222218,58,64,70
57.222218,57.499992,57,64,70
57.499992,57.74305,55,64,70
57.77777,58.05555,53,64,70
58.05555,58.33333,52,64,70
58.33333,58.611107,62,64,70
58.611107,58.85416,60,64,70
58.88888,59.16666,60,64,70
59.16666,59.44444,55,64,70
59.44444,59.722218,57,64,70
59.722218,59.843742,58,64,70
59.861107,59.93055,57,64,70
59.93055,59.991314,58,64,70
59.999992,60.06944,60,64,70
60.06944,60.13888,58,64,70
60.13888,60.20833,60,64,70
60.20833,60.27777,58,64,70
60.27777,60.347218,60,64,70
60.347218,60.41666,58,64,70
60.41666,60.486107,60,64,70
60.486107,60.55555,58,64,70
60.55555,60.624992,60,64,70
60.624992,60.69444,58,64,70
60.69444,60.76388,60,64,70
60.76388,60.83333,58,64,70
60.83333,60.972218,57,64,70
60.972218,61.093742,58,64,70
61.111107,61.597218,57,64,70
63.33333,66.24999,45,64,70
66.66666,66.912605,46,64,70
67.22221,67.46816,46,64,70
67.77777,68.02372,46,64,70
68.33333,68.57928,46,64,70
68.888885,69.134834,46,64,70
69.444435,69.690384,46,64,70
69.99999,70.24594,46,64,70
71.66666,72.22221,50,64,70
72.22221,72.77777,48,64,70
72.77777,73.26388,46,64,70
73.33333,73.57928,45,64,70
74.99999,75.24594,53,64,70
75.55555,75.8015,57,64,70
76.11111,76.357056,53,64,70
76.66666,77.15277,48,64,70
77.22221,77.70833,48,64,70
77.77777,78.26388,60,64,70
78.33333,78.819435,60,64,70
78.88888,79.37499,48,64,70
79.444435,79.93055,48,64,70
79.99999,83.33333,53,64,70
83.33333,86.24999,52,64,70
86.66666,87.15277,53,64,70
91.1111,92.22221,65,64,70
92.22221,93.194435,60,64,70
93.33332,93.57927,57,64,70
93.88888,94.13483,57,64,70
94.444435,94.690384,57,64,70
94.99999,95.24594,57,64,70
95.55555,95.8015,57,64,70
96.1111,96.35705,57,64,70
96.66666,97.15277,58,64,70
99.99999,100.4861,46,64,70
103.33332,103.57927,53,64,70
103.88888,104.13483,46,64,70
104.444435,104.690384,48,64,70
104.99999,105.24594,48,64,70
105.55554,105.80149,48,64,70
106.1111,106.35705,48,64,70
106.66666,106.944435,53,64,70
106.944435,107.18749,57,64,70
107.22221,107.49999,57,64,70
107.49999,107.74304,53,64,70
107.77776,108.05554,53,64,70
108.05554,108.2986,57,64,70
108.33332,108.6111,57,64,70
108.6111,108.85416,53,64,70
108.88888,109.16666,53,64,70
109.16666,109.40971,57,64,70
109.444435,109.72221,57,64,70
109.72221,109.96526,53,64,70
109.99999,110.24304,50,64,70
110.27776,110.52082,58,64,70
110.55554,110.83332,58,64,70
110.83332,111.07638,53,64,70
111.1111,111.38888,50,64,70
111.38888,111.631935,53,64,70
111.66666,111.944435,53,64,70
111.944435,112.18749,50,64,70
112.22221,112.49999,52,64,70
112.49999,112.74304,55,64,70
112.77776,113.05554,58,64,70
113.05554,113.2986,55,64,70
113.33332,113.6111,53,64,70
113.6111,113.85416,57,64,70
113.88888,114.16666,57,64,70
114.16666,114.40971,53,64,70
114.444435,114.72221,53,64,70
114.72221,114.96526,57,64,70
114.999985,115.27776,57,64,70
115.27776,115.52082,53,64,70
115.55554,115.83332,53,64,70
115.83332,116.07638,57,64,70
116.1111,116.38888,57,64,70
116.38888,116.631935,53,64,70
116.66666,116.90971,50,64,70
116.944435,117.187485,58,64,70
117.22221,117.499985,58,64,70
117.499985,117.74304,53,64,70
117.77776,118.05554,50,64,70
118.05554,118.2986,53,64,70
118.33332,118.6111,53,64,70
118.6111,118.85416,50,64,70
118.88888,119.16666,52,64,70
119.16666,119.40971,55,64,70
119.444435,119.72221,58,64,70
119.72221,119.96526,55,64,70
119.999985,120.24593,53,64,70
121.1111,121.35705,48,64,70
122.22221,122.46816,41,64,70
126.66666,128.02081,63,64,70
128.05554,128.33331,62,64,70
128.33331,128.6111,60,64,70
128.6111,128.85416,58,64,70
128.88887,129.16666,57,64,70
129.16666,129.44443,58,64,70
129.44443,129.72221,60,64,70
129.72221,129.96527,57,64,70
129.99998,130.4861,54,64,70
130.55554,131.10532,54,64,70
131.1111,131.66087,54,64,70
131.66666,132.21642,54,64,70
132.22221,132.77197,54,64,70
132.77777,133.2986,54,64,70
133.33331,133.88309,54,64,70
133.88887,134.43864,54,64,70
134.44443,134.9942,54,64,70
134.99998,135.54976,54,64,70
135.55554,136.10532,54,64,70
136.1111,136.63193,54,64,70
136.66666,137.21642,54,64,70
137.22221,137.77197,54,64,70
137.77777,138.32753,54,64,70
138.33331,138.88309,54,64,70
138.88887,139.43864,54,64,70
139.44443,139.96527,54,64,70
139.99998,140.54976,54,64,70
140.55554,141.10532,54,64,70
141.1111,141.66086,54,64,70
141.66666,142.21642,54,64,70
142.22221,142.77197,54,64,70
142.77777,143.2986,54,64,70
143.33331,143.88309,55,64,70
143.88887,144.43864,55,64,70
144.44443,144.9942,55,64,70
144.99998,145.54976,55,64,70
145.55554,146.10532,55,64,70
146.1111,146.63193,55,64,70
146.66666,147.21642,56,64,70
147.22221,147.77197,56,64,70
147.77776,148.32753,56,64,70
148.33331,148.88309,56,64,70
148.88887,149.43864,56,64,70
149.44443,149.96526,56,64,70
149.99998,150.54976,55,64,70
150.55554,151.10532,55,64,70
151.1111,151.63193,55,64,70
153.05554,153.2986,55,64,70
153.33331,154.16666,59,64,70
154.16666,154.40971,62,64,70
154.44443,154.72221,65,64,70
154.72221,154.99998,66,64,70
154.99998,155.27776,67,64,70
155.27776,155.52081,66,64,70
155.55554,155.83331,67,64,70
155.83331,156.1111,62,64,70
156.1111,156.38887,63,64,70
156.38887,156.63193,59,64,70
156.66666,157.49998,62,64,70
157.49998,157.74304,60,64,70
157.77776,158.02371,60,64,70
158.33331,158.88309,51,64,70
158.88887,159.43864,51,64,70
159.44443,159.96526,51,64,70
159.99998,160.54976,50,64,70
160.55554,161.1053,50,64,70
161.1111,161.66086,50,64,70
161.66666,162.21642,50,64,70
162.2222,162.77197,50,64,70
162.77776,163.2986,50,64,70
163.33331,163.88309,49,64,70
163.88887,164.43864,49,64,70
164.44443,164.9942,49,64,70
164.99998,165.54976,49,64,70
165.55554,166.1053,49,64,70
166.1111,166.63193,49,64,70
166.66666,167.21642,48,64,70
167.2222,167.77197,48,64,70
167.77776,168.32753,48,64,70
168.33331,168.88309,48,64,70
168.88887,169.43864,48,64,70
169.44443,169.96526,48,64,70
169.99998,170.54976,47,64,70
170.55554,171.1053,47,64,70
171.1111,171.66086,47,64,70
171.66666,172.21642,47,64,70
172.2222,172.77197,47,64,70
172.77776,173.2986,47,64,70
173.33331,173.88309,46,64,70
173.88887,174.43864,46,64,70
174.44443,174.9942,46,64,70
174.99998,175.54974,46,64,70
175.55554,176.1053,46,64,70
176.1111,176.63193,46,64,70
176.66666,177.21642,45,64,70
177.2222,177.74304,45,64,70
177.77776,178.02371,45,64,70
178.33331,178.57927,57,64,70
178.88887,179.13483,53,64,70
179.44443,179.69037,50,64,70
179.99998,180.54974,45,64,70
180.55554,181.07637,45,64,70
181.1111,181.35704,45,64,70
181.66664,181.9126,57,64,70
182.2222,182.46815,53,64,70
182.77776,183.02371,50,64,70
183.33331,184.30554,45,64,70
184.99998,185.54974,57,64,70
185.55554,186.1053,57,64,70
186.1111,186.63193,57,64,70
186.66664,188.02081,57,64,70
188.05554,188.33331,61,64,70
188.33331,188.6111,64,64,70
188.6111,188.85414,62,64,70
188.88887,189.16664,61,64,70
189.16664,189.44443,64,64,70
189.44443,189.7222,67,64,70
189.7222,189.96526,65,64,70
189.99998,190.13887,67,64,70
190.13887,190.27776,65,64,70
190.27776,190.52081,64,64,70
190.55554,191.52776,64,64,70
191.66664,191.94443,64,64,70
191.94443,192.2222,61,64,70
192.2222,192.49998,58,64,70
192.49998,192.77776,55,64,70
192.77776,193.05554,52,64,70
193.05554,193.2986,49,64,70
193.33331,193.6111,46,64,70
193.6111,193.85414,43,64,70
193.88887,194.68748,40,64,70
194.7222,194.99998,61,64,70
194.99998,195.27776,64,64,70
195.27776,195.55554,62,64,70
195.55554,195.83331,61,64,70
195.83331,196.11108,58,64,70
196.11108,196.38887,57,64,70
196.38887,196.63193,55,64,70
196.66664,196.73608,57,64,70
196.73608,196.80554,55,64,70
196.80554,196.87498,57,64,70
196.87498,196.94443,55,64,70
196.94443,197.01387,57,64,70
197.01387,197.08331,55,64,70
197.08331,197.15276,57,64,70
197.15276,197.2222,55,64,70
197.2222,197.29164,57,64,70
197.29164,197.36108,55,64,70
197.36108,197.43054,57,64,70
197.43054,197.49998,55,64,70
197.49998,197.63887,53,64,70
197.63887,197.76039,55,64,70
197.77776,198.26387,53,64,70
198.33331,198.88309,53,64,70
198.88887,199.43864,52,64,70
199.44443,199.96526,50,64,70
199.99998,200.54974,49,64,70
200.55554,201.1053,49,64,70
201.11108,201.66086,49,64,70
201.66664,202.21642,49,64,70
202.2222,202.77197,49,64,70
202.77776,203.29858,49,64,70
203.33331,204.30554,50,64,70
204.44443,204.93054,38,64,70
204.99998,205.55554,53,64,70
205.55554,206.11108,52,64,70
206.11108,206.5972,50,64,70
206.66664,206.9126,43,64,70
207.77776,208.02371,55,64,70
208.88887,209.13481,43,64,70
209.99998,210.24593,50,64,70
211.11108,211.35704,38,64,70
212.2222,212.46815,50,64,70
213.33331,213.57925,43,64,70
213.88887,214.13481,43,64,70
214.44443,214.69037,45,64,70
214.99998,215.24593,45,64,70
215.55553,215.80148,45,64,70
216.11108,216.35704,45,64,70
216.66664,219.99998,50,64,70
219.99998,222.91664,52,64,70
223.33331,223.81943,50,64,70
226.66664,230.48608,38,64,70
230.55553,231.1053,38,64,70
231.11108,231.66086,38,64,70
231.66664,232.21642,38,64,70
232.2222,232.77197,38,64,70
232.77776,233.29858,38,64,70
233.33331,237.15276,38,64,70
237.2222,237.77197,38,64,70
237.77776,238.32753,38,64,70
238.33331,238.88307,38,64,70
238.88887,239.43863,38,64,70
239.44443,239.96526,38,64,70
239.99997,240.48608,38,64,70
243.33331,243.57925,46,64,70
244.44443,244.69037,55,64,70
246.66664,246.9126,53,64,70
247.2222,247.46814,50,64,70
247.77776,248.32751,57,64,70
248.33331,248.85414,57,64,70
248.88887,249.43863,45,64,70
249.44441,249.96526,45,64,70
249.99997,250.27776,50,64,70
250.27776,250.55553,53,64,70
250.55553,250.83331,57,64,70
250.83331,251.07637,53,64,70
251.11108,251.38887,50,64,70
251.38887,251.66664,53,64,70
251.66664,251.94441,57,64,70
251.94441,252.18747,53,64,70
252.2222,252.49997,50,64,70
252.49997,252.77776,54,64,70
252.77776,253.05553,57,64,70
253.05553,253.29858,54,64,70
253.33331,253.61108,50,64,70
253.61108,253.88887,55,64,70
253.88887,254.16664,58,64,70
254.16664,254.4097,55,64,70
254.44441,254.7222,50,64,70
254.7222,254.99997,55,64,70
254.99997,255.27776,58,64,70
255.27776,255.52081,55,64,70
255.55553,255.83331,49,64,70
255.83331,256.11108,52,64,70
256.11108,256.38885,55,64,70
256.38885,256.63193,52,64,70
256.66663,256.94443,50,64,70
256.94443,257.2222,53,64,70
257.2222,257.49997,57,64,70
257.49997,257.74304,53,64,70
257.77774,258.05554,50,64,70
258.05554,258.3333,53,64,70
258.3333,258.61108,57,64,70
258.61108,258.85413,53,64,70
258.88885,259.16663,50,64,70
259.16663,259.44443,54,64,70
259.44443,259.7222,57,64,70
259.7222,259.96524,54,64,70
259.99997,260.27774,50,64,70
260.27774,260.55554,55,64,70
260.55554,260.8333,58,64,70
260.8333,261.07635,55,64,70
261.11108,261.38885,50,64,70
261.38885,261.66663,55,64,70
261.66663,261.94443,58,64,70
261.94443,262.18747,55,64,70
262.2222,262.49997,49,64,70
262.49997,262.77774,52,64,70
262.77774,263.05554,55,64,70
263.05554,263.29858,52,64,70
263.3333,263.57925,50,64,70
264.44443,264.69037,57,64,70
265.55554,265.80148,45,64,70
266.66663,266.9126,38,64,70
