start_time,end_time,note_value,velocity,instrument_program_number
9.6,9.7325,81,64,73
9.9,10.0325,82,64,73
10.2,10.4625,84,64,73
10.5,10.575,86,64,73
10.575,10.65,84,64,73
10.65,10.725,83,64,73
10.725,10.79,84,64,73
10.8,10.9325,86,64,73
11.1,11.2325,82,64,73
11.4,11.5325,81,64,73
11.7,11.8325,81,64,73
12.0,12.1325,82,64,73
12.3,12.4325,82,64,73
12.6,12.75,86,64,73
12.75,12.9,84,64,73
12.9,13.05,82,64,73
13.05,13.18125,84,64,73
13.2,13.35,86,64,73
13.35,13.5,84,64,73
13.5,13.65,82,64,73
13.65,13.78125,81,64,73
13.8,13.9325,79,64,73
14.1,14.2325,79,64,73
14.4,14.5325,81,64,73
14.7,14.8325,82,64,73
15.0,15.2625,84,64,73
15.3,15.375,86,64,73
15.375,15.45,84,64,73
15.45,15.525,83,64,73
15.525,15.59,84,64,73
15.6,15.7325,86,64,73
15.9,16.0325,82,64,73
16.2,16.3325,81,64,73
16.5,16.6325,81,64,73
16.8,16.9325,82,64,73
17.1,17.2325,82,64,73
17.4,17.55,84,64,73
17.55,17.7,89,64,73
17.7,17.85,84,64,73
17.85,17.98125,81,64,73
18.0,18.15,84,64,73
18.15,18.3,82,64,73
18.3,18.45,81,64,73
18.45,18.58125,79,64,73
18.6,18.8625,77,64,73
19.2,19.3325,84,64,73
19.8,19.9325,84,64,73
20.4,20.5325,84,64,73
21.0,21.1325,84,64,73
21.6,21.7325,81,64,73
22.2,22.3325,79,64,73
22.8,22.875,77,64,73
22.875,22.95,76,64,73
22.95,23.025,77,64,73
23.025,23.1,76,64,73
23.1,23.25,77,64,73
23.25,23.38125,79,64,73
23.4,23.6625,81,64,73
24.0,24.1325,84,64,73
24.6,24.7325,84,64,73
25.2,25.3325,84,64,73
25.8,25.9325,84,64,73
26.4,26.5325,81,64,73
27.0,27.1325,79,64,73
27.6,27.675,77,64,73
27.675,27.75,76,64,73
27.75,27.825,77,64,73
27.825,27.9,76,64,73
27.9,28.05,77,64,73
28.05,28.18125,79,64,73
28.2,28.4625,81,64,73
28.8,28.9325,77,64,73
29.1,29.2325,77,64,73
29.4,29.475,81,64,73
29.475,29.55,79,64,73
29.55,29.625,81,64,73
29.625,29.7,79,64,73
29.7,29.8325,77,64,73
30.0,30.075,81,64,73
30.075,30.15,79,64,73
30.15,30.225,81,64,73
30.225,30.3,79,64,73
30.3,30.4325,77,64,73
30.6,30.9,82,64,73
30.9,31.0325,81,64,73
31.2,31.3325,77,64,73
31.5,31.6325,77,64,73
31.8,31.875,81,64,73
31.875,31.95,79,64,73
31.95,32.025,81,64,73
32.025,32.1,79,64,73
32.1,32.2325,77,64,73
32.4,32.475,81,64,73
32.475,32.55,79,64,73
32.55,32.625,81,64,73
32.625,32.7,79,64,73
32.7,32.8325,77,64,73
33.0,33.3,82,64,73
33.3,33.4325,81,64,73
33.6,33.7325,77,64,73
33.9,34.0325,77,64,73
34.2,35.1,86,64,73
35.1,35.3625,84,64,73
35.4,35.7,83,64,73
35.7,35.9625,79,64,73
36.0,36.1325,84,64,73
36.3,36.4325,82,64,73
36.6,36.7325,81,64,73
36.9,37.05,81,64,73
37.05,37.18125,84,64,73
37.2,37.35,84,64,73
37.35,37.48125,82,64,73
37.5,37.63125,81,64,73
37.65,37.78125,79,64,73
37.8,38.0625,77,64,73
39.3,39.45,79,64,73
39.45,39.58125,81,64,73
39.6,39.75,84,64,73
39.75,39.88125,82,64,73
39.9,40.03125,81,64,73
40.05,40.18125,79,64,73
40.2,40.4625,81,64,73
41.7,41.85,79,64,73
41.85,41.98125,81,64,73
42.0,42.15,84,64,73
42.15,42.28125,82,64,73
42.3,42.43125,81,64,73
42.45,42.58125,79,64,73
42.6,42.7325,77,64,73
42.9,43.0325,81,64,73
43.2,43.3325,77,64,73
43.8,44.325,89,64,73
44.4,44.79375,84,64,73
44.85,44.98125,84,64,73
45.0,45.7875,81,64,73
45.9,46.03125,81,64,73
46.05,46.18125,82,64,73
46.2,46.35,84,64,73
46.35,46.48125,86,64,73
46.5,46.565,84,64,73
46.65,46.715,82,64,73
46.8,46.865,81,64,73
46.95,47.015,79,64,73
47.1,47.165,77,64,73
47.25,47.315,79,64,73
47.4,47.5325,81,64,73
47.7,47.8325,77,64,73
48.6,49.05,72,64,73
49.05,49.18125,70,64,73
49.2,49.3325,69,64,73
49.8,50.25,79,64,73
50.25,50.38125,77,64,73
50.4,50.5325,76,64,73
51.3,51.4325,72,64,73
51.6,51.7325,72,64,73
51.9,52.0325,77,64,73
52.2,52.8,77,64,73
52.8,53.0625,76,64,73
53.4,53.85,76,64,73
53.85,53.98125,72,64,73
54.0,54.15,77,64,73
54.15,54.3,76,64,73
54.3,54.45,74,64,73
54.45,54.58125,72,64,73
54.6,56.0625,74,64,73
56.1,56.2325,74,64,73
56.4,56.5325,74,64,73
56.7,56.8325,74,64,73
57.0,57.45,71,64,73
57.45,57.58125,72,64,73
57.6,57.7325,72,64,73
62.7,62.83125,79,64,73
62.85,62.98125,79,64,73
63.0,63.2625,84,64,73
63.3,63.43125,84,64,73
63.45,63.58125,84,64,73
63.6,63.75,86,64,73
63.75,63.88125,84,64,73
63.9,64.03125,83,64,73
64.05,64.18125,81,64,73
64.2,64.4625,79,64,73
64.5,64.63125,79,64,73
64.65,64.78125,79,64,73
64.8,64.95,81,64,73
64.95,65.08125,79,64,73
65.1,65.23125,77,64,73
65.25,65.38125,76,64,73
65.4,65.6625,74,64,73
65.7,65.83125,74,64,73
65.85,65.98125,74,64,73
66.0,66.15,79,64,73
66.15,66.28125,77,64,73
66.3,66.43125,76,64,73
66.45,66.58125,74,64,73
66.6,66.67125,74,64,73
66.675,66.75,72,64,73
66.75,66.825,71,64,73
66.825,66.89,72,64,73
66.9,66.965,74,64,73
67.05,67.115,76,64,73
67.2,67.265,77,64,73
67.35,67.415,79,64,73
67.5,67.565,81,64,73
67.65,67.715,83,64,73
67.8,68.0625,84,64,73
68.1,68.23125,84,64,73
68.25,68.38125,84,64,73
68.4,68.55,86,64,73
68.55,68.68125,84,64,73
68.7,68.83125,83,64,73
68.85,68.98125,81,64,73
69.0,69.2625,79,64,73
69.3,69.43125,79,64,73
69.45,69.58125,79,64,73
69.6,69.75,81,64,73
69.75,69.88125,79,64,73
69.9,70.03125,77,64,73
70.05,70.18125,76,64,73
70.2,70.3325,74,64,73
70.5,70.6325,74,64,73
71.4,72.45,81,64,73
72.6,72.7325,86,64,73
72.9,73.0325,86,64,73
73.8,74.85,81,64,73
75.0,75.15,86,64,73
75.15,75.3,74,64,73
75.3,75.365,86,64,73
75.45,75.515,84,64,73
75.6,75.665,83,64,73
75.75,75.815,81,64,73
75.9,75.965,79,64,73
76.05,76.115,77,64,73
76.2,76.35,76,64,73
76.35,76.48125,72,64,73
76.5,76.565,84,64,73
76.65,76.715,79,64,73
76.8,76.95,76,64,73
76.95,77.08125,72,64,73
77.1,77.165,84,64,73
77.25,77.315,79,64,73
77.4,77.55,76,64,73
77.55,77.68125,72,64,73
77.7,77.765,84,64,73
77.85,77.915,79,64,73
78.0,78.065,76,64,73
78.15,78.215,72,64,73
78.3,78.365,74,64,73
78.45,78.515,76,64,73
78.6,78.75,77,64,73
78.75,78.88125,79,64,73
78.9,78.965,81,64,73
79.05,79.115,79,64,73
79.2,79.265,77,64,73
79.35,79.415,76,64,73
79.5,79.565,74,64,73
79.65,79.715,72,64,73
79.8,79.95,71,64,73
79.95,80.08125,67,64,73
80.1,80.165,71,64,73
80.25,80.315,74,64,73
80.4,80.55,79,64,73
80.55,80.68125,74,64,73
80.7,80.765,79,64,73
80.85,80.915,83,64,73
81.0,81.065,86,64,73
81.15,81.215,84,64,73
81.3,81.365,83,64,73
81.45,81.515,81,64,73
81.6,81.665,79,64,73
81.75,81.815,77,64,73
81.9,81.965,76,64,73
82.05,82.115,74,64,73
82.2,82.4625,72,64,73
86.1,86.2325,79,64,73
86.4,86.5325,79,64,73
86.7,86.8325,79,64,73
87.0,89.25,81,64,73
89.4,91.3875,79,64,73
91.5,91.65,77,64,73
91.65,91.78125,76,64,73
91.8,91.9325,74,64,73
92.1,92.2325,74,64,73
92.4,92.5325,77,64,73
92.7,92.8325,77,64,73
93.0,93.2625,76,64,73
96.0,96.1325,79,64,73
96.3,96.4325,81,64,73
96.6,96.8625,82,64,73
96.9,96.965,84,64,73
96.975,97.04,82,64,73
97.05,97.115,81,64,73
97.125,97.19,82,64,73
97.2,97.3325,84,64,73
97.5,97.6325,81,64,73
97.8,97.9325,79,64,73
98.1,98.2325,79,64,73
98.7,99.0,78,64,73
99.0,99.2625,79,64,73
99.3,99.4325,79,64,73
99.9,100.2,78,64,73
100.2,100.5,79,64,73
100.5,100.8,78,64,73
100.8,101.1,79,64,73
101.1,101.3625,78,64,73
101.4,101.5325,79,64,73
101.7,101.8325,78,64,73
102.0,102.1325,79,64,73
102.3,102.4325,81,64,73
102.6,102.7325,82,64,73
102.9,103.0325,84,64,73
103.2,103.3325,86,64,73
103.5,103.6325,84,64,73
103.8,103.9325,82,64,73
104.1,104.2325,81,64,73
104.4,104.5325,79,64,73
104.7,104.8325,77,64,73
105.0,105.1325,76,64,73
105.3,105.4325,74,64,73
105.6,105.7325,72,64,73
105.9,106.0325,70,64,73
106.2,106.4625,69,64,73
116.4,116.5325,81,64,73
116.7,116.8325,82,64,73
117.0,117.2625,84,64,73
117.3,117.375,86,64,73
117.375,117.45,84,64,73
117.45,117.525,83,64,73
117.525,117.59,84,64,73
117.6,117.7325,86,64,73
117.9,118.0325,82,64,73
118.2,118.3325,81,64,73
118.5,118.6325,81,64,73
118.8,118.9325,82,64,73
119.1,119.2325,82,64,73
119.4,119.55,86,64,73
119.55,119.7,84,64,73
119.7,119.85,82,64,73
119.85,119.98125,84,64,73
120.0,120.15,86,64,73
120.15,120.3,84,64,73
120.3,120.45,82,64,73
120.45,120.58125,81,64,73
120.6,120.7325,79,64,73
120.9,121.0325,79,64,73
121.2,121.3325,81,64,73
121.5,121.6325,82,64,73
121.8,122.0625,84,64,73
122.1,122.175,86,64,73
122.175,122.25,84,64,73
122.25,122.325,83,64,73
122.325,122.39,84,64,73
122.4,122.5325,86,64,73
122.7,122.8325,82,64,73
123.0,123.1325,81,64,73
123.3,123.4325,81,64,73
123.6,123.7325,82,64,73
123.9,124.0325,82,64,73
124.2,124.35,84,64,73
124.35,124.5,89,64,73
124.5,124.65,84,64,73
124.65,124.78125,81,64,73
124.8,124.95,84,64,73
124.95,125.1,82,64,73
125.1,125.25,81,64,73
125.25,125.38125,79,64,73
125.4,125.6625,77,64,73
129.15,129.3,81,64,73
129.3,129.45,80,64,73
129.45,129.6,81,64,73
129.6,129.75,82,64,73
129.75,129.9,83,64,73
129.9,130.05,84,64,73
130.05,130.18124,85,64,73
130.2,130.725,86,64,73
130.8,131.19376,86,64,73
131.25,131.38126,86,64,73
131.4,132.1875,86,64,73
132.3,132.45,86,64,73
132.45,132.58125,89,64,73
132.6,132.7325,88,64,73
132.9,133.125,88,64,73
133.125,133.19,86,64,73
133.2,133.3325,85,64,73
133.5,133.725,85,64,73
133.725,133.79,88,64,73
133.8,134.4,82,64,73
134.4,134.6625,81,64,73
134.7,134.8325,88,64,73
135.0,135.6,82,64,73
135.6,135.8625,81,64,73
135.9,136.0325,88,64,73
136.2,136.8,82,64,73
136.8,136.93124,81,64,73
136.95,137.015,76,64,73
137.1,137.165,81,64,73
137.25,137.315,76,64,73
137.4,137.55,73,64,73
137.55,137.68124,76,64,73
137.7,137.765,81,64,73
137.85,137.915,85,64,73
138.0,138.15,88,64,73
138.15,138.28125,85,64,73
138.3,138.365,81,64,73
138.45,138.515,79,64,73
138.6,138.75,77,64,73
138.75,138.88126,74,64,73
138.9,138.965,77,64,73
139.05,139.115,81,64,73
139.2,139.3325,86,64,73
143.4,145.9325,81,64,73
146.1,146.2325,81,64,73
146.4,146.5325,81,64,73
147.9,148.2,78,64,73
148.2,148.4625,79,64,73
149.1,149.4,79,64,73
149.4,149.6625,76,64,73
150.3,150.6,76,64,73
150.6,151.8,77,64,73
151.8,153.0,79,64,73
153.0,154.2,81,64,73
154.2,155.25,82,64,73
155.4,156.0,84,64,73
156.0,156.3,83,64,73
156.3,156.5625,82,64,73
156.6,156.7325,81,64,73
156.9,157.0325,79,64,73
157.2,157.3325,77,64,73
157.5,157.6325,76,64,73
157.8,158.4,84,64,73
158.4,158.7,83,64,73
158.7,158.9625,82,64,73
159.0,159.1325,81,64,73
159.3,159.4325,79,64,73
159.6,159.7325,77,64,73
159.9,160.0325,76,64,73
160.2,160.3325,77,64,73
160.5,160.8,82,64,73
160.8,161.0625,81,64,73
161.1,161.2325,76,64,73
161.4,161.5325,77,64,73
161.7,162.0,82,64,73
162.0,162.2625,81,64,73
162.3,162.4325,76,64,73
162.6,162.7325,77,64,73
163.2,163.3325,79,64,73
163.8,163.9325,81,64,73
164.4,164.5325,79,64,73
165.0,165.7875,79,64,73
166.8,167.4,82,64,73
167.4,167.6625,81,64,73
168.9,169.05,79,64,73
169.05,169.18124,81,64,73
169.2,169.3325,82,64,73
169.5,169.6325,82,64,73
169.8,169.9325,81,64,73
171.3,171.45,79,64,73
171.45,171.58125,81,64,73
171.6,171.7325,82,64,73
171.9,172.0325,82,64,73
172.2,172.3325,81,64,73
177.3,177.6,84,64,73
177.6,177.9,83,64,73
177.9,178.1625,82,64,73
178.2,178.3325,81,64,73
182.1,182.2325,84,64,73
182.4,182.5325,84,64,73
182.7,182.8325,84,64,73
183.0,183.3,84,64,73
183.3,183.5625,76,64,73
184.5,184.79625,80,64,73
184.8,185.09625,80,64,73
185.1,185.38126,80,64,73
185.4,185.85,80,64,73
185.85,186.0,82,64,73
186.0,186.45,80,64,73
186.45,186.58125,82,64,73
186.6,190.2,80,64,73
190.2,191.6625,79,64,73
191.7,191.99625,79,64,73
192.0,192.29625,79,64,73
192.3,192.58125,79,64,73
192.6,193.05,80,64,73
193.05,193.2,82,64,73
193.2,193.65,80,64,73
193.65,193.78125,82,64,73
193.8,197.4,80,64,73
197.4,199.125,79,64,73
200.7,200.8325,84,64,73
201.0,201.3,83,64,73
201.3,201.5625,84,64,73
203.1,203.2325,84,64,73
203.4,203.7,83,64,73
203.7,203.9625,84,64,73
204.6,204.9,83,64,73
204.9,205.1625,84,64,73
205.8,208.2,83,64,73
208.2,208.4625,84,64,73
218.4,218.5325,81,64,73
218.7,218.8325,82,64,73
219.0,219.2625,84,64,73
219.3,219.375,86,64,73
219.375,219.45,84,64,73
219.45,219.525,83,64,73
219.525,219.59,84,64,73
219.6,219.7325,86,64,73
219.9,220.0325,82,64,73
220.2,220.3325,81,64,73
220.5,220.6325,81,64,73
220.8,220.9325,82,64,73
221.1,221.2325,82,64,73
221.4,221.55,86,64,73
221.55,221.7,84,64,73
221.7,221.85,82,64,73
221.85,221.98125,84,64,73
222.0,222.15,86,64,73
222.15,222.3,84,64,73
222.3,222.45,82,64,73
222.45,222.58125,81,64,73
222.6,222.7325,79,64,73
222.9,223.0325,79,64,73
223.2,223.3325,81,64,73
223.5,223.6325,82,64,73
223.8,224.0625,84,64,73
224.1,224.175,86,64,73
224.175,224.25,84,64,73
224.25,224.325,83,64,73
224.325,224.39,84,64,73
224.4,224.5325,86,64,73
224.7,224.8325,82,64,73
225.0,225.1325,81,64,73
225.3,225.4325,81,64,73
225.6,225.7325,82,64,73
225.9,226.0325,82,64,73
226.2,226.35,84,64,73
226.35,226.5,89,64,73
226.5,226.65,84,64,73
226.65,226.78125,81,64,73
226.8,226.95,84,64,73
226.95,227.1,82,64,73
227.1,227.25,81,64,73
227.25,227.38126,79,64,73
227.4,227.6625,77,64,73
228.0,228.1325,84,64,73
228.6,228.7325,84,64,73
229.2,229.3325,84,64,73
229.8,229.9325,84,64,73
230.4,230.5325,81,64,73
231.0,231.1325,79,64,73
231.6,231.675,77,64,73
231.675,231.75,76,64,73
231.75,231.825,77,64,73
231.825,231.9,76,64,73
231.9,232.05,77,64,73
232.05,232.18124,79,64,73
232.2,232.4625,81,64,73
232.8,232.9325,84,64,73
233.4,233.5325,84,64,73
234.0,234.1325,84,64,73
234.6,234.7325,84,64,73
235.2,235.3325,81,64,73
235.8,235.9325,79,64,73
236.4,236.475,77,64,73
236.475,236.55,76,64,73
236.55,236.625,77,64,73
236.625,236.7,76,64,73
236.7,236.85,77,64,73
236.85,236.98125,79,64,73
237.0,237.2625,81,64,73
237.6,237.7325,77,64,73
237.9,238.0325,77,64,73
238.2,238.275,81,64,73
238.275,238.35,79,64,73
238.35,238.425,81,64,73
238.425,238.5,79,64,73
238.5,238.6325,77,64,73
238.8,238.875,81,64,73
238.875,238.95,79,64,73
238.95,239.025,81,64,73
239.025,239.1,79,64,73
239.1,239.2325,77,64,73
239.4,239.7,82,64,73
239.7,239.8325,81,64,73
240.0,240.1325,77,64,73
240.3,240.4325,77,64,73
240.6,240.675,81,64,73
240.675,240.75,79,64,73
240.75,240.825,81,64,73
240.825,240.9,79,64,73
240.9,241.0325,77,64,73
241.2,241.275,81,64,73
241.275,241.35,79,64,73
241.35,241.425,81,64,73
241.425,241.5,79,64,73
241.5,241.6325,77,64,73
241.8,242.1,82,64,73
242.1,242.2325,81,64,73
242.4,242.5325,77,64,73
242.7,242.8325,77,64,73
243.0,243.9,86,64,73
243.9,244.1625,84,64,73
244.2,244.5,83,64,73
244.5,244.7625,79,64,73
244.8,244.9325,84,64,73
245.1,245.2325,82,64,73
245.4,245.5325,81,64,73
245.7,245.85,81,64,73
245.85,245.98125,84,64,73
246.0,246.15,84,64,73
246.15,246.28125,82,64,73
246.3,246.43124,81,64,73
246.45,246.58125,79,64,73
246.6,246.8625,77,64,73
248.1,248.25,79,64,73
248.25,248.38126,81,64,73
248.4,248.55,84,64,73
248.55,248.68124,82,64,73
248.7,248.83125,81,64,73
248.85,248.98125,79,64,73
249.0,249.2625,81,64,73
250.5,250.65,79,64,73
250.65,250.78125,81,64,73
250.8,250.95,84,64,73
250.95,251.08125,82,64,73
251.1,251.23125,81,64,73
251.25,251.38126,79,64,73
251.4,251.5325,77,64,73
251.7,251.8325,81,64,73
9.6,9.7325,77,64,68
9.9,10.0325,79,64,68
10.2,10.4625,81,64,68
10.5,10.575,82,64,68
10.575,10.65,81,64,68
10.65,10.725,79,64,68
10.725,10.79,81,64,68
10.8,10.9325,82,64,68
11.1,11.2325,79,64,68
11.4,11.5325,77,64,68
11.7,11.8325,77,64,68
12.0,12.1325,79,64,68
12.3,12.4325,79,64,68
12.6,12.75,82,64,68
12.75,12.9,81,64,68
12.9,13.05,79,64,68
13.05,13.18125,81,64,68
13.2,13.35,82,64,68
13.35,13.5,81,64,68
13.5,13.65,79,64,68
13.65,13.78125,77,64,68
13.8,13.9325,76,64,68
14.1,14.2325,76,64,68
14.4,14.5325,77,64,68
14.7,14.8325,79,64,68
15.0,15.2625,81,64,68
15.3,15.375,82,64,68
15.375,15.45,81,64,68
15.45,15.525,79,64,68
15.525,15.59,81,64,68
15.6,15.7325,82,64,68
15.9,16.0325,79,64,68
16.2,16.3325,77,64,68
16.5,16.6325,77,64,68
16.8,16.9325,79,64,68
17.1,17.2325,79,64,68
17.4,17.55,81,64,68
17.55,17.7,84,64,68
17.7,17.85,81,64,68
17.85,17.98125,77,64,68
18.0,18.15,81,64,68
18.15,18.3,79,64,68
18.3,18.45,77,64,68
18.45,18.58125,76,64,68
18.6,18.8625,77,64,68
19.2,19.3325,81,64,68
19.8,19.9325,79,64,68
20.4,20.5325,76,64,68
21.0,21.1325,77,64,68
21.6,21.7325,65,64,68
22.2,22.3325,67,64,68
22.8,23.6625,72,64,68
24.0,24.1325,77,64,68
24.6,24.7325,76,64,68
25.2,25.3325,72,64,68
25.8,25.9325,65,64,68
26.4,26.5325,69,64,68
27.0,28.4625,72,64,68
28.8,28.9325,72,64,68
29.1,29.2325,72,64,68
29.4,29.475,76,64,68
29.475,29.55,74,64,68
29.55,29.625,76,64,68
29.625,29.7,74,64,68
29.7,29.8325,72,64,68
30.0,30.075,76,64,68
30.075,30.15,74,64,68
30.15,30.225,76,64,68
30.225,30.3,74,64,68
30.3,30.4325,72,64,68
30.6,30.9,76,64,68
30.9,31.0325,77,64,68
31.2,31.3325,72,64,68
31.5,31.6325,72,64,68
31.8,31.875,76,64,68
31.875,31.95,74,64,68
31.95,32.025,76,64,68
32.025,32.1,74,64,68
32.1,32.2325,72,64,68
32.4,32.475,76,64,68
32.475,32.55,74,64,68
32.55,32.625,76,64,68
32.625,32.7,74,64,68
32.7,32.8325,72,64,68
33.0,33.3,76,64,68
33.3,33.4325,77,64,68
34.2,34.5,77,64,68
34.5,34.8,79,64,68
34.8,35.0625,81,64,68
35.1,35.2325,81,64,68
35.4,36.6,79,64,68
36.6,36.7325,77,64,68
36.9,37.05,77,64,68
37.05,37.18125,81,64,68
37.2,37.35,81,64,68
37.35,37.48125,79,64,68
37.5,37.63125,77,64,68
37.65,37.78125,76,64,68
37.8,38.0625,77,64,68
39.3,39.45,76,64,68
39.45,39.58125,77,64,68
39.6,39.75,81,64,68
39.75,39.88125,79,64,68
39.9,40.03125,77,64,68
40.05,40.18125,76,64,68
40.2,40.4625,77,64,68
41.7,41.85,76,64,68
41.85,41.98125,77,64,68
42.0,42.15,81,64,68
42.15,42.28125,79,64,68
42.3,42.43125,77,64,68
42.45,42.58125,76,64,68
42.6,42.7325,77,64,68
42.9,43.0325,72,64,68
43.2,43.3325,69,64,68
43.8,44.325,77,64,68
44.4,44.79375,72,64,68
44.85,44.98125,72,64,68
45.0,45.7875,69,64,68
45.9,46.03125,69,64,68
46.05,46.18125,70,64,68
46.2,46.35,72,64,68
46.35,46.48125,74,64,68
46.5,46.565,72,64,68
46.65,46.715,70,64,68
46.8,46.865,69,64,68
46.95,47.015,67,64,68
47.1,47.165,65,64,68
47.25,47.315,67,64,68
47.4,47.5325,69,64,68
47.7,47.8325,65,64,68
48.3,48.4325,72,64,68
48.6,49.05,81,64,68
49.05,49.18125,79,64,68
49.2,49.3325,77,64,68
49.5,49.6325,72,64,68
49.8,50.25,82,64,68
50.25,50.38125,81,64,68
50.4,50.5325,79,64,68
50.7,50.83125,84,64,68
50.85,50.98125,82,64,68
51.0,51.15,82,64,68
51.15,51.28125,81,64,68
51.3,51.43125,79,64,68
51.45,51.58125,77,64,68
51.6,51.75,76,64,68
51.75,51.9,77,64,68
51.9,52.05,79,64,68
52.05,52.18125,81,64,68
52.2,52.8,81,64,68
52.8,53.0625,79,64,68
54.3,54.5625,67,64,68
54.6,56.0625,69,64,68
56.1,56.625,67,64,68
56.7,56.9625,67,64,68
57.0,57.7875,67,64,68
57.9,58.4625,60,64,68
58.5,59.025,62,64,68
59.1,59.6625,64,64,68
59.7,60.13125,65,64,68
60.15,60.215,64,64,68
60.3,60.365,62,64,68
60.45,60.515,60,64,68
60.9,61.0325,69,64,68
61.5,61.6325,77,64,68
61.8,62.4,76,64,68
62.4,62.6625,74,64,68
62.7,62.83125,79,64,68
62.85,62.98125,79,64,68
63.0,63.2625,84,64,68
63.3,63.43125,84,64,68
63.45,63.58125,84,64,68
63.6,63.75,86,64,68
63.75,63.88125,84,64,68
63.9,64.03125,83,64,68
64.05,64.18125,81,64,68
64.2,64.4625,79,64,68
64.5,64.63125,79,64,68
64.65,64.78125,79,64,68
64.8,64.95,81,64,68
64.95,65.08125,79,64,68
65.1,65.23125,77,64,68
65.25,65.38125,76,64,68
65.4,65.6625,74,64,68
65.7,65.83125,74,64,68
65.85,65.98125,74,64,68
66.0,66.15,79,64,68
66.15,66.28125,77,64,68
66.3,66.43125,76,64,68
66.45,66.58125,74,64,68
66.6,66.67125,74,64,68
66.675,66.75,72,64,68
66.75,66.825,71,64,68
66.825,66.89,72,64,68
66.9,66.965,74,64,68
67.05,67.115,76,64,68
67.2,67.265,77,64,68
67.35,67.415,79,64,68
67.5,67.565,81,64,68
67.65,67.78125,83,64,68
67.8,68.0625,84,64,68
68.1,68.23125,84,64,68
68.25,68.38125,84,64,68
68.4,68.55,86,64,68
68.55,68.68125,84,64,68
68.7,68.83125,83,64,68
68.85,68.98125,81,64,68
69.0,69.2625,79,64,68
69.3,69.43125,79,64,68
69.45,69.58125,79,64,68
69.6,69.75,81,64,68
69.75,69.88125,79,64,68
69.9,70.03125,77,64,68
70.05,70.18125,76,64,68
70.2,70.3325,74,64,68
70.5,70.6325,74,64,68
71.7,72.0,77,64,68
72.0,72.3,76,64,68
72.3,72.5625,73,64,68
72.6,72.7325,74,64,68
72.9,73.0325,74,64,68
74.1,74.4,77,64,68
74.4,74.7,76,64,68
74.7,74.9625,73,64,68
75.0,75.1325,74,64,68
75.3,75.4325,74,64,68
76.2,76.3325,72,64,68
76.5,76.6325,72,64,68
77.4,77.5325,70,64,68
77.7,77.8325,70,64,68
78.6,78.7325,69,64,68
78.9,79.0325,69,64,68
79.8,79.9325,67,64,68
80.1,80.2325,67,64,68
81.0,81.1325,65,64,68
81.3,81.4325,65,64,68
82.2,82.4625,64,64,68
83.1,83.3625,67,64,68
83.4,83.6625,67,64,68
84.3,84.5625,67,64,68
84.6,84.8625,67,64,68
86.1,86.2325,76,64,68
86.4,86.5325,72,64,68
86.7,86.8325,72,64,68
87.0,88.05,72,64,68
88.2,90.45,77,64,68
90.6,91.125,76,64,68
91.2,91.9325,72,64,68
92.1,92.2325,72,64,68
92.4,92.5325,71,64,68
92.7,92.8325,71,64,68
93.0,93.2625,72,64,68
93.6,93.7325,76,64,68
93.9,94.0325,77,64,68
94.2,94.4625,79,64,68
94.5,94.565,81,64,68
94.575,94.64,79,64,68
94.65,94.715,78,64,68
94.725,94.79,79,64,68
94.8,94.9325,81,64,68
95.1,95.2325,77,64,68
95.4,95.5325,76,64,68
95.7,95.8325,76,64,68
97.8,101.6625,60,64,68
103.5,103.6325,84,64,68
103.8,103.9325,82,64,68
104.1,104.2325,81,64,68
104.4,104.5325,79,64,68
104.7,104.8325,77,64,68
105.0,105.1325,76,64,68
105.3,105.4325,74,64,68
105.6,105.7325,72,64,68
105.9,106.0325,70,64,68
106.2,106.4625,69,64,68
116.4,116.5325,77,64,68
116.7,116.8325,79,64,68
117.0,117.2625,81,64,68
117.3,117.375,82,64,68
117.375,117.45,81,64,68
117.45,117.525,79,64,68
117.525,117.59,81,64,68
117.6,117.7325,82,64,68
117.9,118.0325,79,64,68
118.2,118.3325,77,64,68
118.5,118.6325,77,64,68
118.8,118.9325,79,64,68
119.1,119.2325,79,64,68
119.4,119.55,82,64,68
119.55,119.7,81,64,68
119.7,119.85,79,64,68
119.85,119.98125,81,64,68
120.0,120.15,82,64,68
120.15,120.3,81,64,68
120.3,120.45,79,64,68
120.45,120.58125,77,64,68
120.6,120.7325,76,64,68
120.9,121.0325,76,64,68
121.2,121.3325,77,64,68
121.5,121.6325,79,64,68
121.8,122.0625,81,64,68
122.1,122.175,82,64,68
122.175,122.25,81,64,68
122.25,122.325,79,64,68
122.325,122.39,81,64,68
122.4,122.5325,82,64,68
122.7,122.8325,79,64,68
123.0,123.1325,77,64,68
123.3,123.4325,77,64,68
123.6,123.7325,79,64,68
123.9,124.0325,79,64,68
124.2,124.35,81,64,68
124.35,124.5,84,64,68
124.5,124.65,81,64,68
124.65,124.78125,77,64,68
124.8,124.95,81,64,68
124.95,125.1,79,64,68
125.1,125.25,77,64,68
125.25,125.38125,76,64,68
125.4,125.6625,77,64,68
127.95,128.1,72,64,68
128.1,128.25,74,64,68
128.25,128.4,76,64,68
128.4,128.55,77,64,68
128.55,128.7,78,64,68
128.7,128.85,79,64,68
128.85,128.98125,80,64,68
129.0,129.2625,81,64,68
130.2,130.725,74,64,68
130.8,131.19376,74,64,68
131.25,131.38126,74,64,68
131.4,132.1875,74,64,68
132.3,132.45,74,64,68
132.45,132.58125,77,64,68
132.6,132.7325,76,64,68
132.9,133.125,76,64,68
133.125,133.19,74,64,68
133.2,133.3325,73,64,68
133.5,133.725,73,64,68
133.725,133.79,76,64,68
133.8,134.325,70,64,68
134.4,134.6625,69,64,68
134.7,134.8325,76,64,68
135.0,135.525,70,64,68
135.6,135.8625,69,64,68
135.9,136.0325,76,64,68
136.2,136.725,70,64,68
136.8,136.93124,69,64,68
136.95,137.015,73,64,68
137.1,137.165,76,64,68
137.25,137.315,81,64,68
137.4,137.6625,79,64,68
138.3,138.4325,76,64,68
138.6,138.7325,77,64,68
139.35,139.415,69,64,68
139.5,139.565,74,64,68
139.65,139.715,77,64,68
139.8,139.95,81,64,68
139.95,140.08125,82,64,68
140.1,140.165,79,64,68
140.25,140.315,81,64,68
140.4,140.55,77,64,68
140.55,140.68124,79,64,68
140.7,140.765,76,64,68
140.85,140.915,77,64,68
141.0,141.15,74,64,68
141.15,141.28125,76,64,68
141.3,141.365,72,64,68
141.45,141.515,74,64,68
141.6,141.75,70,64,68
141.75,141.88126,72,64,68
141.9,141.965,69,64,68
142.05,142.115,70,64,68
142.2,142.33125,67,64,68
142.35,142.5,78,64,68
142.5,142.65,79,64,68
142.65,142.78125,81,64,68
142.8,142.865,82,64,68
142.95,143.015,79,64,68
143.1,143.165,76,64,68
143.25,143.315,74,64,68
143.4,143.55,73,64,68
143.55,143.68124,69,64,68
143.7,143.765,76,64,68
143.85,143.915,73,64,68
144.0,144.15,74,64,68
144.15,144.28125,69,64,68
144.3,144.365,77,64,68
144.45,144.515,74,64,68
144.6,144.75,76,64,68
144.75,144.88126,69,64,68
144.9,144.965,79,64,68
145.05,145.115,76,64,68
145.2,145.35,77,64,68
145.35,145.48125,74,64,68
145.5,145.565,81,64,68
145.65,145.715,77,64,68
145.8,145.9325,76,64,68
146.1,146.2325,76,64,68
146.4,146.5325,76,64,68
147.0,147.1325,75,64,68
147.3,147.4325,75,64,68
147.6,147.7325,75,64,68
148.2,148.3325,74,64,68
148.5,148.6325,74,64,68
148.8,148.9325,74,64,68
149.4,149.5325,72,64,68
149.7,149.8325,72,64,68
150.0,150.1325,72,64,68
150.6,155.25,72,64,68
155.4,155.925,72,64,68
157.5,157.6325,72,64,68
157.8,158.325,72,64,68
159.9,160.0325,72,64,68
160.2,160.3325,72,64,68
161.1,161.2325,72,64,68
161.4,161.5325,72,64,68
162.3,162.4325,72,64,68
162.6,162.7325,72,64,68
163.2,163.3325,72,64,68
164.1,164.625,77,64,68
164.7,164.8325,74,64,68
165.0,165.6,77,64,68
165.6,165.8625,76,64,68
166.8,167.6625,72,64,68
167.7,167.8325,72,64,68
168.0,168.1325,72,64,68
168.3,168.4325,72,64,68
168.6,170.0625,72,64,68
170.1,170.2325,72,64,68
170.4,170.5325,72,64,68
170.7,170.8325,72,64,68
171.0,172.4625,72,64,68
177.3,177.6,76,64,68
177.6,177.9,77,64,68
177.9,178.1625,79,64,68
178.2,178.3325,81,64,68
179.7,180.225,72,64,68
180.3,180.8625,72,64,68
180.9,181.425,72,64,68
181.5,181.6325,72,64,68
181.8,181.9325,69,64,68
182.1,182.2325,69,64,68
182.4,182.5325,69,64,68
182.7,182.8325,69,64,68
183.0,183.3,70,64,68
183.3,183.5625,67,64,68
184.5,184.79625,77,64,68
184.8,185.09625,77,64,68
185.1,185.38126,77,64,68
185.4,185.85,77,64,68
185.85,186.0,79,64,68
186.0,186.45,77,64,68
186.45,186.58125,79,64,68
186.6,191.4,77,64,68
191.4,191.6625,76,64,68
191.7,191.99625,76,64,68
192.0,192.29625,76,64,68
192.3,192.58125,76,64,68
192.6,193.05,77,64,68
193.05,193.2,79,64,68
193.2,193.65,77,64,68
193.65,193.78125,79,64,68
193.8,198.6,77,64,68
198.6,199.125,76,64,68
200.7,200.8325,76,64,68
201.0,201.3,77,64,68
201.3,201.5625,76,64,68
203.1,203.2325,76,64,68
203.4,203.7,77,64,68
203.7,203.9625,76,64,68
204.6,204.9,77,64,68
204.9,205.1625,76,64,68
205.8,208.2,77,64,68
208.2,208.4625,76,64,68
218.4,218.5325,77,64,68
218.7,218.8325,79,64,68
219.0,219.2625,81,64,68
219.3,219.375,82,64,68
219.375,219.45,81,64,68
219.45,219.525,79,64,68
219.525,219.59,81,64,68
219.6,219.7325,82,64,68
219.9,220.0325,79,64,68
220.2,220.3325,77,64,68
220.5,220.6325,77,64,68
220.8,220.9325,79,64,68
221.1,221.2325,79,64,68
221.4,221.55,82,64,68
221.55,221.7,81,64,68
221.7,221.85,79,64,68
221.85,221.98125,81,64,68
222.0,222.15,82,64,68
222.15,222.3,81,64,68
222.3,222.45,79,64,68
222.45,222.58125,77,64,68
222.6,222.7325,76,64,68
222.9,223.0325,76,64,68
223.2,223.3325,77,64,68
223.5,223.6325,79,64,68
223.8,224.0625,81,64,68
224.1,224.175,82,64,68
224.175,224.25,81,64,68
224.25,224.325,79,64,68
224.325,224.39,81,64,68
224.4,224.5325,82,64,68
224.7,224.8325,79,64,68
225.0,225.1325,77,64,68
225.3,225.4325,77,64,68
225.6,225.7325,79,64,68
225.9,226.0325,79,64,68
226.2,226.35,81,64,68
226.35,226.5,84,64,68
226.5,226.65,81,64,68
226.65,226.78125,77,64,68
226.8,226.95,81,64,68
226.95,227.1,79,64,68
227.1,227.25,77,64,68
227.25,227.38126,76,64,68
227.4,227.6625,77,64,68
228.0,228.1325,81,64,68
228.6,228.7325,79,64,68
229.2,229.3325,76,64,68
229.8,229.9325,77,64,68
230.4,230.5325,65,64,68
231.0,231.1325,67,64,68
231.6,232.4625,72,64,68
232.8,232.9325,77,64,68
233.4,233.5325,76,64,68
234.0,234.1325,72,64,68
234.6,234.7325,65,64,68
235.2,235.3325,69,64,68
235.8,237.2625,72,64,68
237.6,237.7325,72,64,68
237.9,238.0325,72,64,68
238.2,238.275,76,64,68
238.275,238.35,74,64,68
238.35,238.425,76,64,68
238.425,238.5,74,64,68
238.5,238.6325,72,64,68
238.8,238.875,76,64,68
238.875,238.95,74,64,68
238.95,239.025,76,64,68
239.025,239.1,74,64,68
239.1,239.2325,72,64,68
239.4,239.7,76,64,68
239.7,239.8325,77,64,68
240.0,240.1325,72,64,68
240.3,240.4325,72,64,68
240.6,240.675,76,64,68
240.675,240.75,74,64,68
240.75,240.825,76,64,68
240.825,240.9,74,64,68
240.9,241.0325,72,64,68
241.2,241.275,76,64,68
241.275,241.35,74,64,68
241.35,241.425,76,64,68
241.425,241.5,74,64,68
241.5,241.6325,72,64,68
241.8,242.1,76,64,68
242.1,242.2325,77,64,68
243.0,243.3,77,64,68
243.3,243.6,79,64,68
243.6,243.8625,81,64,68
243.9,244.0325,81,64,68
244.2,245.4,79,64,68
245.4,245.5325,77,64,68
245.7,245.85,77,64,68
245.85,245.98125,81,64,68
246.0,246.15,81,64,68
246.15,246.28125,79,64,68
246.3,246.43124,77,64,68
246.45,246.58125,76,64,68
246.6,246.8625,77,64,68
248.1,248.25,76,64,68
248.25,248.38126,77,64,68
248.4,248.55,81,64,68
248.55,248.68124,79,64,68
248.7,248.83125,77,64,68
248.85,248.98125,76,64,68
249.0,249.2625,77,64,68
250.5,250.65,76,64,68
250.65,250.78125,77,64,68
250.8,250.95,81,64,68
250.95,251.08125,79,64,68
251.1,251.23125,77,64,68
251.25,251.38126,76,64,68
251.4,251.5325,77,64,68
251.7,251.8325,72,64,68
0.6,3.2625,53,64,71
3.3,3.4325,65,64,71
3.6,3.7325,65,64,71
3.9,4.0325,53,64,71
4.2,4.3325,52,64,71
4.5,4.6325,60,64,71
5.4,8.0625,53,64,71
8.1,8.2325,65,64,71
8.4,8.5325,60,64,71
8.7,8.8325,60,64,71
9.0,9.1325,53,64,71
9.6,9.7325,69,64,71
9.9,10.0325,70,64,71
10.2,10.4625,72,64,71
10.5,10.575,74,64,71
10.575,10.65,72,64,71
10.65,10.725,71,64,71
10.725,10.79,72,64,71
10.8,10.9325,74,64,71
11.1,11.2325,70,64,71
11.4,11.5325,69,64,71
11.7,11.8325,69,64,71
12.0,12.1325,70,64,71
12.3,12.4325,70,64,71
12.6,12.75,74,64,71
12.75,12.9,72,64,71
12.9,13.05,70,64,71
13.05,13.18125,72,64,71
13.2,13.35,74,64,71
13.35,13.5,72,64,71
13.5,13.65,70,64,71
13.65,13.78125,69,64,71
13.8,13.9325,67,64,71
14.1,14.2325,67,64,71
14.4,14.5325,69,64,71
14.7,14.8325,70,64,71
15.0,15.2625,72,64,71
15.3,15.375,74,64,71
15.375,15.45,72,64,71
15.45,15.525,71,64,71
15.525,15.59,72,64,71
15.6,15.7325,74,64,71
15.9,16.0325,70,64,71
16.2,16.3325,69,64,71
16.5,16.6325,69,64,71
16.8,16.9325,70,64,71
17.1,17.2325,70,64,71
17.4,17.55,72,64,71
17.55,17.7,77,64,71
17.7,17.85,72,64,71
17.85,17.98125,69,64,71
18.0,18.15,72,64,71
18.15,18.3,70,64,71
18.3,18.45,69,64,71
18.45,18.58125,67,64,71
18.6,18.8625,65,64,71
19.2,19.3325,77,64,71
19.8,19.9325,76,64,71
20.4,20.5325,72,64,71
21.0,21.1325,65,64,71
21.6,21.7325,65,64,71
22.2,22.3325,67,64,71
22.8,22.9325,82,64,71
23.1,23.2325,82,64,71
23.4,23.7,81,64,71
23.7,23.9625,77,64,71
24.0,24.1325,81,64,71
24.6,24.7325,79,64,71
25.2,25.3325,76,64,71
25.8,25.9325,77,64,71
26.4,26.5325,65,64,71
27.0,27.1325,67,64,71
27.6,27.7325,82,64,71
27.9,28.0325,82,64,71
28.2,28.5,81,64,71
28.5,28.7625,77,64,71
28.8,28.9325,69,64,71
29.1,29.2325,69,64,71
29.4,29.475,72,64,71
29.475,29.55,70,64,71
29.55,29.625,72,64,71
29.625,29.7,70,64,71
29.7,29.8325,69,64,71
30.0,30.075,72,64,71
30.075,30.15,70,64,71
30.15,30.225,72,64,71
30.225,30.3,70,64,71
30.3,30.4325,69,64,71
30.6,30.9,67,64,71
30.9,31.0325,65,64,71
31.2,31.3325,69,64,71
31.5,31.6325,69,64,71
31.8,31.875,72,64,71
31.875,31.95,70,64,71
31.95,32.025,72,64,71
32.025,32.1,70,64,71
32.1,32.2325,69,64,71
32.4,32.475,72,64,71
32.475,32.55,70,64,71
32.55,32.625,72,64,71
32.625,32.7,70,64,71
32.7,32.8325,69,64,71
33.0,33.3,67,64,71
33.3,33.4325,65,64,71
34.2,34.5,77,64,71
34.5,34.8,76,64,71
34.8,35.0625,74,64,71
35.1,35.2325,74,64,71
35.4,36.0,74,64,71
36.0,36.2625,72,64,71
36.3,36.4325,76,64,71
36.6,36.7325,77,64,71
36.9,37.05,69,64,71
37.05,37.18125,72,64,71
37.2,37.35,72,64,71
37.35,37.48125,70,64,71
37.5,37.63125,69,64,71
37.65,37.78125,67,64,71
37.8,38.0625,69,64,71
39.3,39.45,67,64,71
39.45,39.58125,69,64,71
39.6,39.75,72,64,71
39.75,39.88125,70,64,71
39.9,40.03125,69,64,71
40.05,40.18125,67,64,71
40.2,40.4625,69,64,71
41.7,41.85,76,64,71
41.85,41.98125,77,64,71
42.0,42.15,81,64,71
42.15,42.28125,79,64,71
42.3,42.43125,77,64,71
42.45,42.58125,76,64,71
42.6,42.7325,77,64,71
42.9,43.0325,81,64,71
43.2,43.3325,77,64,71
43.8,44.325,77,64,71
44.4,44.79375,72,64,71
44.85,44.98125,72,64,71
45.0,45.7875,69,64,71
45.9,46.03125,69,64,71
46.05,46.18125,70,64,71
46.2,46.35,72,64,71
46.35,46.48125,74,64,71
46.5,46.565,72,64,71
46.65,46.715,70,64,71
46.8,46.865,69,64,71
46.95,47.015,67,64,71
47.1,47.165,65,64,71
47.25,47.315,67,64,71
47.4,47.5325,69,64,71
47.7,47.8325,65,64,71
53.1,53.2325,72,64,71
53.4,53.85,79,64,71
53.85,53.98125,76,64,71
54.0,54.15,81,64,71
54.15,54.3,79,64,71
54.3,54.45,77,64,71
54.45,54.58125,76,64,71
54.6,54.75,77,64,71
54.75,54.9,79,64,71
54.9,55.05,76,64,71
55.05,55.18125,77,64,71
55.2,55.3325,74,64,71
55.5,55.6325,81,64,71
55.8,56.1,78,64,71
56.1,56.7,79,64,71
56.7,56.9625,77,64,71
57.0,57.45,75,64,71
57.45,57.58125,76,64,71
57.6,57.7325,76,64,71
57.9,57.965,76,64,71
58.05,58.115,72,64,71
58.2,58.35,71,64,71
58.35,58.48125,69,64,71
58.5,58.565,77,64,71
58.65,58.715,74,64,71
58.8,58.95,72,64,71
58.95,59.08125,71,64,71
59.1,59.165,79,64,71
59.25,59.315,76,64,71
59.4,59.55,74,64,71
59.55,59.7,72,64,71
59.7,59.85,71,64,71
59.85,59.98125,72,64,71
60.0,60.065,74,64,71
60.15,60.215,76,64,71
60.3,60.365,77,64,71
60.45,60.515,79,64,71
60.6,60.75,80,64,71
60.75,60.88125,81,64,71
60.9,61.05,76,64,71
61.05,61.18125,77,64,71
61.2,61.35,73,64,71
61.35,61.48125,74,64,71
61.5,61.565,77,64,71
61.65,61.715,81,64,71
61.8,62.4,72,64,71
62.4,62.6625,71,64,71
62.7,62.83125,79,64,71
62.85,62.98125,79,64,71
63.0,63.2625,84,64,71
63.3,63.43125,84,64,71
63.45,63.58125,84,64,71
63.6,63.75,86,64,71
63.75,63.88125,84,64,71
63.9,64.03125,83,64,71
64.05,64.18125,81,64,71
64.2,64.4625,79,64,71
64.5,64.63125,79,64,71
64.65,64.78125,79,64,71
64.8,64.95,81,64,71
64.95,65.08125,79,64,71
65.1,65.23125,77,64,71
65.25,65.38125,76,64,71
65.4,65.6625,74,64,71
65.7,65.83125,74,64,71
65.85,65.98125,74,64,71
66.0,66.15,79,64,71
66.15,66.28125,77,64,71
66.3,66.43125,76,64,71
66.45,66.58125,74,64,71
66.6,66.67125,74,64,71
66.675,66.75,72,64,71
66.75,66.825,71,64,71
66.825,66.89,72,64,71
66.9,66.965,74,64,71
67.05,67.115,76,64,71
67.2,67.265,77,64,71
67.35,67.415,79,64,71
67.5,67.565,81,64,71
67.65,67.78125,83,64,71
67.8,68.0625,84,64,71
68.1,68.23125,84,64,71
68.25,68.38125,84,64,71
68.4,68.55,86,64,71
68.55,68.68125,84,64,71
68.7,68.83125,83,64,71
68.85,68.98125,81,64,71
69.0,69.2625,79,64,71
69.3,69.43125,79,64,71
69.45,69.58125,79,64,71
69.6,69.75,81,64,71
69.75,69.88125,79,64,71
69.9,70.03125,77,64,71
70.05,70.18125,76,64,71
70.2,70.3325,74,64,71
70.5,70.6325,74,64,71
71.7,72.0,74,64,71
72.0,72.3,73,64,71
72.3,72.5625,79,64,71
72.6,72.7325,77,64,71
72.9,73.0325,77,64,71
74.1,74.4,74,64,71
74.4,74.7,73,64,71
74.7,74.9625,79,64,71
75.0,75.1325,77,64,71
75.3,75.4325,77,64,71
81.0,81.1325,71,64,71
81.3,81.4325,71,64,71
82.2,82.33125,72,64,71
82.35,82.48125,79,64,71
82.5,82.575,81,64,71
82.575,82.65,79,64,71
82.65,82.725,81,64,71
82.725,82.8,79,64,71
82.8,82.93125,77,64,71
82.95,83.08125,79,64,71
83.1,83.23125,74,64,71
83.25,83.38125,79,64,71
83.4,83.53125,76,64,71
83.55,83.68125,79,64,71
83.7,83.775,81,64,71
83.775,83.85,79,64,71
83.85,83.925,81,64,71
83.925,84.0,79,64,71
84.0,84.13125,77,64,71
84.15,84.28125,79,64,71
84.3,84.43125,74,64,71
84.45,84.58125,79,64,71
84.6,84.73125,76,64,71
84.75,84.88125,79,64,71
84.9,84.975,81,64,71
84.975,85.05,79,64,71
85.05,85.125,81,64,71
85.125,85.2,79,64,71
85.2,85.33125,84,64,71
85.35,85.48125,79,64,71
85.5,85.575,81,64,71
85.575,85.65,79,64,71
85.65,85.725,81,64,71
85.725,85.8,79,64,71
85.8,85.93125,76,64,71
85.95,86.08125,72,64,71
86.1,86.175,74,64,71
86.175,86.25,72,64,71
86.25,86.325,74,64,71
86.325,86.4,72,64,71
86.4,86.53125,67,64,71
86.55,86.68125,64,64,71
86.7,86.77125,65,64,71
86.775,86.85,64,64,71
86.85,86.925,65,64,71
86.925,87.0,64,64,71
87.0,87.15,65,64,71
87.15,87.28125,69,64,71
87.3,87.365,72,64,71
87.45,87.515,69,64,71
87.6,87.75,77,64,71
87.75,87.88125,72,64,71
87.9,87.965,81,64,71
88.05,88.115,77,64,71
88.2,88.35,84,64,71
88.35,88.5,81,64,71
88.5,88.63125,77,64,71
88.65,88.715,72,64,71
88.8,88.865,69,64,71
88.95,89.015,65,64,71
89.1,89.165,62,64,71
89.25,89.315,60,64,71
89.4,89.55,59,64,71
89.55,89.68125,60,64,71
89.7,89.765,62,64,71
89.85,89.915,64,64,71
90.0,90.065,65,64,71
90.15,90.215,67,64,71
90.3,90.365,69,64,71
90.45,90.515,71,64,71
90.6,90.665,72,64,71
90.75,90.815,74,64,71
90.9,90.965,76,64,71
91.05,91.115,77,64,71
91.2,91.265,79,64,71
91.35,91.415,81,64,71
91.5,91.565,83,64,71
91.65,91.715,84,64,71
91.8,91.875,76,64,71
91.875,91.95,74,64,71
91.95,92.025,76,64,71
92.025,92.1,74,64,71
92.1,92.175,76,64,71
92.175,92.25,74,64,71
92.25,92.325,76,64,71
92.325,92.4,74,64,71
92.4,92.475,76,64,71
92.475,92.55,74,64,71
92.55,92.625,76,64,71
92.625,92.7,74,64,71
92.7,92.85,72,64,71
92.85,92.98125,74,64,71
93.0,93.2625,72,64,71
96.0,96.1325,76,64,71
96.3,96.4325,77,64,71
96.6,96.8625,79,64,71
96.9,96.965,81,64,71
96.975,97.04,79,64,71
97.05,97.115,78,64,71
97.125,97.19,79,64,71
97.2,97.3325,81,64,71
97.5,97.6325,77,64,71
97.8,97.9325,76,64,71
98.1,98.2325,76,64,71
98.7,99.0,75,64,71
99.0,99.2625,76,64,71
99.3,99.4325,76,64,71
99.9,100.2,75,64,71
100.2,100.5,76,64,71
100.5,100.8,75,64,71
100.8,101.1,76,64,71
101.1,101.3625,75,64,71
101.4,101.5325,76,64,71
103.5,103.6325,81,64,71
103.8,103.9325,79,64,71
104.1,104.2325,77,64,71
104.4,104.5325,76,64,71
104.7,104.8325,74,64,71
105.0,105.1325,72,64,71
105.3,105.4325,70,64,71
105.6,105.7325,69,64,71
105.9,106.0325,67,64,71
106.2,106.4625,65,64,71
106.5,106.6325,53,64,71
106.8,106.9325,53,64,71
107.1,107.2325,53,64,71
107.4,110.0625,53,64,71
110.1,110.2325,65,64,71
110.4,110.5325,65,64,71
110.7,110.8325,53,64,71
111.0,111.1325,52,64,71
111.3,111.4325,60,64,71
112.2,114.8625,53,64,71
114.9,115.0325,65,64,71
115.2,115.3325,60,64,71
115.5,115.6325,60,64,71
115.8,115.9325,53,64,71
116.4,116.5325,69,64,71
116.7,116.8325,70,64,71
117.0,117.2625,72,64,71
117.3,117.375,74,64,71
117.375,117.45,72,64,71
117.45,117.525,71,64,71
117.525,117.59,72,64,71
117.6,117.7325,74,64,71
117.9,118.0325,70,64,71
118.2,118.3325,69,64,71
118.5,118.6325,69,64,71
118.8,118.9325,70,64,71
119.1,119.2325,70,64,71
119.4,119.55,74,64,71
119.55,119.7,72,64,71
119.7,119.85,70,64,71
119.85,119.98125,72,64,71
120.0,120.15,74,64,71
120.15,120.3,72,64,71
120.3,120.45,70,64,71
120.45,120.58125,69,64,71
120.6,120.7325,67,64,71
120.9,121.0325,67,64,71
121.2,121.3325,69,64,71
121.5,121.6325,70,64,71
121.8,122.0625,72,64,71
122.1,122.175,74,64,71
122.175,122.25,72,64,71
122.25,122.325,71,64,71
122.325,122.39,72,64,71
122.4,122.5325,74,64,71
122.7,122.8325,70,64,71
123.0,123.1325,69,64,71
123.3,123.4325,69,64,71
123.6,123.7325,70,64,71
123.9,124.0325,70,64,71
124.2,124.35,72,64,71
124.35,124.5,77,64,71
124.5,124.65,72,64,71
124.65,124.78125,69,64,71
124.8,124.95,72,64,71
124.95,125.1,70,64,71
125.1,125.25,69,64,71
125.25,125.38125,67,64,71
125.4,125.6625,65,64,71
126.75,126.9,72,64,71
126.9,127.05,71,64,71
127.05,127.2,72,64,71
127.2,127.35,73,64,71
127.35,127.5,74,64,71
127.5,127.65,75,64,71
127.65,127.78125,76,64,71
127.8,128.0625,77,64,71
130.2,130.725,74,64,71
130.8,131.19376,74,64,71
131.25,131.38126,74,64,71
131.4,132.1875,74,64,71
132.3,132.45,74,64,71
132.45,132.58125,77,64,71
132.6,132.7325,76,64,71
132.9,133.03125,76,64,71
133.05,133.18124,74,64,71
133.2,133.3325,73,64,71
133.5,133.63126,73,64,71
133.65,133.78125,76,64,71
133.8,134.325,70,64,71
134.4,134.6625,69,64,71
134.7,134.8325,76,64,71
135.0,135.525,70,64,71
135.6,135.8625,69,64,71
135.9,136.0325,76,64,71
136.2,136.725,70,64,71
136.8,137.0625,69,64,71
137.1,137.2325,73,64,71
137.4,137.6625,76,64,71
138.3,138.4325,73,64,71
138.6,138.7325,74,64,71
139.5,139.6325,69,64,71
139.8,139.9325,77,64,71
140.1,140.2325,76,64,71
140.4,140.5325,74,64,71
140.7,140.8325,73,64,71
141.0,142.4625,74,64,71
142.8,142.9325,70,64,71
143.4,143.925,64,64,71
144.0,145.125,69,64,71
145.2,145.725,74,64,71
145.8,145.9325,73,64,71
146.1,146.2325,73,64,71
146.4,146.5325,73,64,71
147.0,147.1325,72,64,71
147.3,147.4325,72,64,71
147.6,147.7325,72,64,71
148.2,148.3325,71,64,71
148.5,148.6325,71,64,71
148.8,148.9325,71,64,71
149.4,149.5325,70,64,71
149.7,149.8325,70,64,71
150.0,150.1325,70,64,71
150.6,151.8,69,64,71
151.8,152.85,70,64,71
153.0,154.2,69,64,71
154.2,155.25,67,64,71
155.4,155.925,65,64,71
156.9,157.0325,70,64,71
157.2,157.3325,69,64,71
157.5,157.6325,67,64,71
157.8,158.325,65,64,71
159.3,159.4325,70,64,71
159.6,159.7325,69,64,71
159.9,160.0325,67,64,71
160.2,160.3325,65,64,71
161.1,161.2325,60,64,71
161.4,161.5325,65,64,71
162.3,162.4325,60,64,71
162.6,162.865,65,64,71
163.2,163.465,64,64,71
163.8,164.85,62,64,71
165.0,165.1325,60,64,71
165.3,165.4325,60,64,71
165.6,165.7325,60,64,71
166.8,167.4,76,64,71
167.4,167.925,77,64,71
168.9,169.05,79,64,71
169.05,169.18124,77,64,71
169.2,169.3325,76,64,71
169.5,169.6325,76,64,71
169.8,169.9325,77,64,71
171.3,171.45,79,64,71
171.45,171.58125,77,64,71
171.6,171.7325,76,64,71
171.9,172.0325,76,64,71
172.2,172.3325,77,64,71
173.7,173.925,53,64,71
173.925,173.99,57,64,71
174.0,174.1325,60,64,71
174.3,174.4325,65,64,71
174.6,174.7325,69,64,71
174.9,175.0325,57,64,71
175.2,175.3325,58,64,71
175.5,175.6325,60,64,71
175.8,175.9325,62,64,71
177.3,177.6,72,64,71
177.6,177.9,74,64,71
177.9,178.1625,76,64,71
178.2,178.3325,77,64,71
179.7,180.0,76,64,71
180.0,180.3,77,64,71
180.3,180.5625,76,64,71
180.6,180.9,77,64,71
180.9,181.2,76,64,71
181.2,181.4625,77,64,71
181.5,181.6325,77,64,71
181.8,181.9325,77,64,71
182.1,182.2325,77,64,71
182.4,182.5325,77,64,71
182.7,182.8325,77,64,71
183.0,183.075,77,64,71
183.075,183.15,76,64,71
183.15,183.225,77,64,71
183.225,183.3,76,64,71
183.3,183.375,77,64,71
183.375,183.45,76,64,71
183.45,183.525,77,64,71
183.525,183.6,76,64,71
183.6,183.675,77,64,71
183.675,183.75,76,64,71
183.75,183.825,77,64,71
183.825,183.9,76,64,71
183.9,184.05,74,64,71
184.05,184.18124,76,64,71
184.2,184.4625,77,64,71
187.5,187.6325,74,64,71
187.8,188.325,72,64,71
188.4,188.6625,71,64,71
188.7,188.8325,74,64,71
189.0,189.525,72,64,71
189.6,189.8625,71,64,71
189.9,190.0325,74,64,71
190.2,190.725,72,64,71
190.8,191.0625,71,64,71
191.1,191.2325,83,64,71
191.4,191.85,84,64,71
191.85,191.925,79,64,71
191.925,191.99,76,64,71
192.0,192.1325,72,64,71
194.7,194.8325,74,64,71
195.0,195.525,72,64,71
195.6,195.8625,71,64,71
195.9,196.0325,74,64,71
196.2,196.725,72,64,71
196.8,197.0625,71,64,71
197.1,197.2325,74,64,71
197.4,197.925,72,64,71
198.0,198.2625,71,64,71
198.3,198.4325,83,64,71
198.6,198.8625,84,64,71
198.9,199.0325,72,64,71
199.2,199.3325,72,64,71
199.5,199.6325,72,64,71
199.8,199.9325,72,64,71
200.1,200.2325,72,64,71
200.4,200.5325,72,64,71
200.7,200.8325,72,64,71
201.0,201.3,74,64,71
201.3,201.5625,72,64,71
201.6,201.7325,72,64,71
201.9,202.0325,72,64,71
202.2,202.3325,72,64,71
202.5,202.6325,72,64,71
202.8,202.9325,72,64,71
203.1,203.2325,72,64,71
203.4,203.7,74,64,71
203.7,203.9625,72,64,71
204.0,204.1325,72,64,71
204.3,204.4325,72,64,71
204.6,204.9,74,64,71
204.9,205.1625,72,64,71
205.2,205.3325,72,64,71
205.5,205.6325,72,64,71
205.8,208.2,74,64,71
208.2,208.4625,72,64,71
209.4,212.0625,53,64,71
212.1,212.2325,65,64,71
212.4,212.5325,65,64,71
212.7,212.8325,53,64,71
213.0,213.1325,52,64,71
213.3,213.4325,60,64,71
214.2,216.8625,53,64,71
216.9,217.0325,65,64,71
217.2,217.3325,60,64,71
217.5,217.6325,60,64,71
217.8,217.9325,53,64,71
218.4,218.5325,69,64,71
218.7,218.8325,70,64,71
219.0,219.2625,72,64,71
219.3,219.375,74,64,71
219.375,219.45,72,64,71
219.45,219.525,71,64,71
219.525,219.59,72,64,71
219.6,219.7325,74,64,71
219.9,220.0325,70,64,71
220.2,220.3325,69,64,71
220.5,220.6325,69,64,71
220.8,220.9325,70,64,71
221.1,221.2325,70,64,71
221.4,221.55,74,64,71
221.55,221.7,72,64,71
221.7,221.85,70,64,71
221.85,221.98125,72,64,71
222.0,222.15,74,64,71
222.15,222.3,72,64,71
222.3,222.45,70,64,71
222.45,222.58125,69,64,71
222.6,222.7325,67,64,71
222.9,223.0325,67,64,71
223.2,223.3325,69,64,71
223.5,223.6325,70,64,71
223.8,224.0625,72,64,71
224.1,224.175,74,64,71
224.175,224.25,72,64,71
224.25,224.325,71,64,71
224.325,224.39,72,64,71
224.4,224.5325,74,64,71
224.7,224.8325,70,64,71
225.0,225.1325,69,64,71
225.3,225.4325,69,64,71
225.6,225.7325,70,64,71
225.9,226.0325,70,64,71
226.2,226.35,72,64,71
226.35,226.5,77,64,71
226.5,226.65,72,64,71
226.65,226.78125,69,64,71
226.8,226.95,72,64,71
226.95,227.1,70,64,71
227.1,227.25,69,64,71
227.25,227.38126,67,64,71
227.4,227.6625,65,64,71
228.0,228.1325,77,64,71
228.6,228.7325,76,64,71
229.2,229.3325,72,64,71
229.8,229.9325,65,64,71
230.4,230.5325,65,64,71
231.0,231.1325,67,64,71
231.6,231.7325,82,64,71
231.9,232.0325,82,64,71
232.2,232.5,81,64,71
232.5,232.7625,77,64,71
232.8,232.9325,81,64,71
233.4,233.5325,79,64,71
234.0,234.1325,76,64,71
234.6,234.7325,77,64,71
235.2,235.3325,65,64,71
235.8,235.9325,67,64,71
236.4,236.5325,82,64,71
236.7,236.8325,82,64,71
237.0,237.3,81,64,71
237.3,237.5625,77,64,71
237.6,237.7325,69,64,71
237.9,238.0325,69,64,71
238.2,238.275,72,64,71
238.275,238.35,70,64,71
238.35,238.425,72,64,71
238.425,238.5,70,64,71
238.5,238.6325,69,64,71
238.8,238.875,72,64,71
238.875,238.95,70,64,71
238.95,239.025,72,64,71
239.025,239.1,70,64,71
239.1,239.2325,69,64,71
239.4,239.7,67,64,71
239.7,239.8325,65,64,71
240.0,240.1325,69,64,71
240.3,240.4325,69,64,71
240.6,240.675,72,64,71
240.675,240.75,70,64,71
240.75,240.825,72,64,71
240.825,240.9,70,64,71
240.9,241.0325,69,64,71
241.2,241.275,72,64,71
241.275,241.35,70,64,71
241.35,241.425,72,64,71
241.425,241.5,70,64,71
241.5,241.6325,69,64,71
241.8,242.1,67,64,71
242.1,242.2325,65,64,71
243.0,243.3,77,64,71
243.3,243.6,76,64,71
243.6,243.8625,74,64,71
243.9,244.0325,74,64,71
244.2,244.8,74,64,71
244.8,245.0625,72,64,71
245.1,245.2325,76,64,71
245.4,245.5325,77,64,71
245.7,245.85,69,64,71
245.85,245.98125,72,64,71
246.0,246.15,72,64,71
246.15,246.28125,70,64,71
246.3,246.43124,69,64,71
246.45,246.58125,67,64,71
246.6,246.8625,69,64,71
248.1,248.25,67,64,71
248.25,248.38126,69,64,71
248.4,248.55,72,64,71
248.55,248.68124,70,64,71
248.7,248.83125,69,64,71
248.85,248.98125,67,64,71
249.0,249.2625,69,64,71
250.5,250.65,76,64,71
250.65,250.78125,77,64,71
250.8,250.95,81,64,71
250.95,251.08125,79,64,71
251.1,251.23125,77,64,71
251.25,251.38126,76,64,71
251.4,251.5325,77,64,71
251.7,251.8325,81,64,71
0.0,0.1325,65,64,60
0.3,0.4325,67,64,60
0.6,0.8625,69,64,60
0.9,0.975,70,64,60
0.975,1.05,69,64,60
1.05,1.125,67,64,60
1.125,1.19,69,64,60
1.2,1.3325,70,64,60
1.5,1.6325,67,64,60
1.8,1.9325,65,64,60
2.1,2.2325,65,64,60
2.4,2.5325,67,64,60
2.7,2.8325,67,64,60
3.0,3.15,70,64,60
3.15,3.28125,69,64,60
3.3,3.43125,67,64,60
3.45,3.58125,69,64,60
3.6,3.75,70,64,60
3.75,3.9,69,64,60
3.9,4.05,67,64,60
4.05,4.18125,65,64,60
4.2,4.3325,60,64,60
4.5,4.6325,60,64,60
4.8,4.9325,65,64,60
5.1,5.2325,67,64,60
5.4,5.6625,69,64,60
5.7,5.775,70,64,60
5.775,5.85,69,64,60
5.85,5.925,67,64,60
5.925,5.99,69,64,60
6.0,6.1325,70,64,60
6.3,6.4325,67,64,60
6.6,6.7325,65,64,60
6.9,7.0325,65,64,60
7.2,7.3325,67,64,60
7.5,7.6325,67,64,60
7.8,7.95,69,64,60
7.95,8.08125,72,64,60
8.1,8.165,69,64,60
8.25,8.315,65,64,60
8.4,8.5325,67,64,60
8.7,8.8325,60,64,60
9.0,9.1325,57,64,60
9.3,9.4325,57,64,60
9.6,9.7325,65,64,60
9.9,10.0325,65,64,60
10.2,11.5325,65,64,60
11.7,11.8325,65,64,60
12.0,12.1325,67,64,60
12.3,12.4325,67,64,60
12.6,12.7325,69,64,60
12.9,13.0325,69,64,60
13.2,13.35,70,64,60
13.35,13.5,69,64,60
13.5,13.65,67,64,60
13.65,13.78125,65,64,60
13.8,13.9325,60,64,60
14.1,14.2325,60,64,60
14.4,14.5325,65,64,60
14.7,14.8325,65,64,60
15.0,16.3325,65,64,60
16.5,16.6325,65,64,60
16.8,16.9325,67,64,60
17.1,17.2325,67,64,60
17.4,17.5325,69,64,60
17.7,17.8325,69,64,60
18.0,18.1325,67,64,60
18.3,18.4325,67,64,60
18.6,18.8625,65,64,60
19.2,19.35,69,64,60
19.35,19.48125,72,64,60
19.5,19.565,69,64,60
19.65,19.715,65,64,60
19.8,19.9325,60,64,60
20.1,20.2325,60,64,60
20.7,20.8325,60,64,60
21.3,21.4325,60,64,60
21.9,22.0325,60,64,60
22.5,22.6325,60,64,60
22.8,22.9325,60,64,60
23.1,23.2325,60,64,60
23.4,23.6625,60,64,60
24.0,24.15,69,64,60
24.15,24.28125,72,64,60
24.3,24.365,69,64,60
24.45,24.515,65,64,60
24.6,24.7325,60,64,60
24.9,25.0325,60,64,60
25.5,25.6325,60,64,60
26.1,26.2325,60,64,60
26.7,26.8325,60,64,60
27.3,27.4325,60,64,60
27.6,27.7325,60,64,60
27.9,28.0325,60,64,60
28.2,28.4625,60,64,60
30.6,30.9,60,64,60
30.9,31.0325,65,64,60
33.0,33.3,60,64,60
33.3,33.4325,65,64,60
33.6,33.7325,69,64,60
33.9,34.0325,69,64,60
34.2,34.5,69,64,60
34.5,34.8,67,64,60
34.8,35.0625,65,64,60
35.1,35.2325,69,64,60
35.4,36.0,67,64,60
36.0,36.525,60,64,60
36.6,36.7325,65,64,60
36.9,37.0325,65,64,60
37.2,37.3325,60,64,60
37.5,37.6325,60,64,60
37.95,38.015,65,64,60
38.1,38.165,69,64,60
38.25,38.315,72,64,60
38.4,38.55,69,64,60
38.55,38.68125,72,64,60
38.7,38.765,69,64,60
38.85,38.915,65,64,60
39.0,39.5325,60,64,60
40.35,40.415,65,64,60
40.5,40.565,69,64,60
40.65,40.715,72,64,60
40.8,40.95,69,64,60
40.95,41.08125,72,64,60
41.1,41.23125,69,64,60
41.25,41.38125,65,64,60
41.4,42.45,60,64,60
42.6,42.7325,65,64,60
42.9,43.0325,65,64,60
43.2,43.3325,65,64,60
43.8,44.325,65,64,60
44.4,44.79375,60,64,60
44.85,44.98125,60,64,60
45.0,45.7875,57,64,60
45.9,46.03125,69,64,60
46.05,46.18125,70,64,60
46.2,46.35,72,64,60
46.35,46.48125,74,64,60
46.5,46.565,72,64,60
46.65,46.715,70,64,60
46.8,46.865,69,64,60
46.95,47.015,67,64,60
47.1,47.165,65,64,60
47.25,47.315,67,64,60
47.4,47.5325,69,64,60
47.7,47.8325,65,64,60
48.9,49.05,65,64,60
49.05,49.18125,67,64,60
49.2,49.3325,69,64,60
50.1,50.25,67,64,60
50.25,50.38125,69,64,60
50.4,50.5325,70,64,60
51.3,51.4325,69,64,60
51.6,51.7325,67,64,60
51.9,52.0325,65,64,60
52.2,52.3325,60,64,60
52.5,52.6325,60,64,60
52.8,53.0625,60,64,60
60.6,60.7325,65,64,60
61.2,61.3325,69,64,60
61.8,62.325,67,64,60
62.7,62.83125,67,64,60
62.85,62.98125,67,64,60
63.0,63.2625,72,64,60
63.3,63.43125,72,64,60
63.45,63.58125,72,64,60
63.6,63.75,74,64,60
63.75,63.88125,72,64,60
63.9,64.03125,71,64,60
64.05,64.18125,69,64,60
64.2,64.4625,67,64,60
64.5,64.63125,67,64,60
64.65,64.78125,67,64,60
64.8,65.0625,67,64,60
65.1,65.23125,67,64,60
65.25,65.38125,67,64,60
65.4,65.6625,67,64,60
65.7,65.83125,67,64,60
65.85,65.98125,67,64,60
66.0,66.2625,67,64,60
66.3,66.5625,67,64,60
66.6,66.7325,67,64,60
66.9,67.0325,67,64,60
67.35,67.415,67,64,60
67.5,67.565,69,64,60
67.65,67.715,71,64,60
67.8,68.0625,72,64,60
68.1,68.23125,72,64,60
68.25,68.38125,72,64,60
68.4,68.55,74,64,60
68.55,68.68125,72,64,60
68.7,68.83125,71,64,60
68.85,68.98125,69,64,60
69.0,69.2625,67,64,60
69.3,69.43125,67,64,60
69.45,69.58125,67,64,60
69.6,69.8625,67,64,60
69.9,70.03125,67,64,60
70.05,70.18125,67,64,60
70.2,70.3325,69,64,60
70.5,70.6325,69,64,60
72.6,72.7325,69,64,60
72.9,73.0325,69,64,60
75.0,75.1325,69,64,60
75.3,75.4325,69,64,60
81.0,81.2625,67,64,60
81.3,81.5625,67,64,60
82.2,84.45,67,64,60
84.6,85.125,60,64,60
87.3,87.4325,65,64,60
87.6,87.7325,65,64,60
87.9,88.0325,65,64,60
88.5,88.6325,69,64,60
88.8,88.9325,69,64,60
89.1,89.2325,69,64,60
89.7,89.8325,67,64,60
90.0,90.1325,67,64,60
90.3,90.4325,67,64,60
90.9,91.0325,67,64,60
91.2,91.3325,67,64,60
91.5,91.6325,67,64,60
91.8,91.9325,69,64,60
92.1,92.2325,69,64,60
92.4,92.5325,67,64,60
92.7,92.8325,67,64,60
93.0,98.0625,60,64,60
98.1,98.4,59,64,60
98.4,98.6625,60,64,60
99.3,99.6,59,64,60
99.6,99.8625,60,64,60
100.5,100.6325,60,64,60
100.8,100.9325,60,64,60
101.1,101.2325,60,64,60
101.4,101.5325,60,64,60
106.8,106.9325,65,64,60
107.1,107.2325,67,64,60
107.4,107.6625,69,64,60
107.7,107.775,70,64,60
107.775,107.85,69,64,60
107.85,107.925,67,64,60
107.925,107.99,69,64,60
108.0,108.1325,70,64,60
108.3,108.4325,67,64,60
108.6,108.7325,65,64,60
108.9,109.0325,65,64,60
109.2,109.3325,67,64,60
109.5,109.6325,67,64,60
109.8,109.95,70,64,60
109.95,110.1,69,64,60
110.1,110.25,67,64,60
110.25,110.38125,69,64,60
110.4,110.55,70,64,60
110.55,110.7,69,64,60
110.7,110.85,67,64,60
110.85,110.98125,65,64,60
111.0,111.1325,60,64,60
111.3,111.4325,60,64,60
111.6,111.7325,65,64,60
111.9,112.0325,67,64,60
112.2,112.4625,69,64,60
112.5,112.575,70,64,60
112.575,112.65,69,64,60
112.65,112.725,67,64,60
112.725,112.79,69,64,60
112.8,112.9325,70,64,60
113.1,113.2325,67,64,60
113.4,113.5325,65,64,60
113.7,113.8325,65,64,60
114.0,114.1325,67,64,60
114.3,114.4325,67,64,60
114.6,114.75,69,64,60
114.75,114.88125,72,64,60
114.9,114.965,69,64,60
115.05,115.115,65,64,60
115.2,115.4625,67,64,60
115.5,115.565,65,64,60
115.65,115.715,60,64,60
115.8,115.9325,57,64,60
116.1,116.2325,57,64,60
116.4,116.5325,65,64,60
116.7,116.8325,65,64,60
117.0,118.3325,65,64,60
118.5,118.6325,65,64,60
118.8,118.9325,67,64,60
119.1,119.2325,67,64,60
119.4,119.5325,69,64,60
119.7,119.8325,69,64,60
120.0,120.15,70,64,60
120.15,120.3,69,64,60
120.3,120.45,67,64,60
120.45,120.58125,65,64,60
120.6,120.7325,60,64,60
120.9,121.0325,60,64,60
121.2,121.3325,65,64,60
121.5,121.6325,65,64,60
121.8,123.1325,65,64,60
123.3,123.4325,65,64,60
123.6,123.7325,67,64,60
123.9,124.0325,67,64,60
124.2,124.3325,69,64,60
124.5,124.6325,69,64,60
124.8,124.9325,67,64,60
125.1,125.2325,67,64,60
125.4,125.6625,57,64,60
130.2,130.725,65,64,60
130.8,131.19376,65,64,60
131.25,131.38126,65,64,60
131.4,132.1875,65,64,60
132.3,132.5625,65,64,60
132.6,133.125,67,64,60
133.2,133.59375,67,64,60
133.65,133.78125,67,64,60
133.8,134.5875,67,64,60
134.7,134.9625,67,64,60
135.0,135.7875,67,64,60
135.9,136.1625,67,64,60
136.2,136.725,67,64,60
137.1,137.3625,69,64,60
137.4,137.6625,69,64,60
138.3,138.5625,69,64,60
138.6,138.8625,69,64,60
143.4,143.925,57,64,60
144.6,145.125,57,64,60
145.8,145.9325,57,64,60
146.1,146.2325,57,64,60
146.4,146.5325,57,64,60
150.6,151.8,65,64,60
151.8,152.85,67,64,60
153.0,154.2,65,64,60
154.2,155.25,60,64,60
155.4,155.925,57,64,60
156.6,158.325,60,64,60
159.0,160.4625,60,64,60
165.9,166.1625,60,64,60
166.2,166.93124,67,64,60
166.95,167.015,70,64,60
167.1,167.165,69,64,60
167.25,167.315,67,64,60
167.4,167.55,65,64,60
167.55,167.68124,60,64,60
167.7,167.765,57,64,60
167.85,167.915,60,64,60
168.0,168.065,65,64,60
168.15,168.215,69,64,60
168.3,168.365,72,64,60
168.45,168.515,69,64,60
168.6,168.75,67,64,60
168.75,168.88126,65,64,60
168.9,168.965,64,64,60
169.05,169.115,65,64,60
169.2,169.265,67,64,60
169.35,169.415,70,64,60
169.5,169.565,69,64,60
169.65,169.715,67,64,60
169.8,169.95,65,64,60
169.95,170.08125,60,64,60
170.1,170.165,57,64,60
170.25,170.315,60,64,60
170.4,170.465,65,64,60
170.55,170.615,69,64,60
170.7,170.765,72,64,60
170.85,170.915,69,64,60
171.0,171.15,67,64,60
171.15,171.28125,65,64,60
171.3,171.365,64,64,60
171.45,171.515,65,64,60
171.6,171.665,67,64,60
171.75,171.815,70,64,60
171.9,171.965,69,64,60
172.05,172.115,67,64,60
172.2,172.3325,65,64,60
172.5,172.725,72,64,60
172.725,172.79,69,64,60
172.8,172.9325,65,64,60
173.1,173.325,69,64,60
173.325,173.39,65,64,60
173.4,173.5325,60,64,60
173.7,173.925,57,64,60
173.925,173.99,60,64,60
174.0,174.1325,65,64,60
174.3,174.4325,69,64,60
174.6,175.3875,72,64,60
175.5,175.65,70,64,60
175.65,175.78125,69,64,60
175.8,175.95,69,64,60
175.95,176.08125,67,64,60
176.1,176.25,67,64,60
176.25,176.38126,65,64,60
176.4,176.55,65,64,60
176.55,176.68124,64,64,60
176.7,176.85,64,64,60
176.85,176.98125,62,64,60
177.0,177.2625,60,64,60
177.6,178.4625,60,64,60
178.5,178.63126,62,64,60
178.65,178.78125,64,64,60
178.8,178.93124,65,64,60
178.95,179.08125,67,64,60
179.1,179.23125,69,64,60
179.25,179.38126,70,64,60
179.4,179.55,72,64,60
179.55,179.68124,69,64,60
179.7,179.765,67,64,60
179.85,179.915,70,64,60
180.0,180.15,69,64,60
180.15,180.28125,65,64,60
180.3,180.365,67,64,60
180.45,180.515,70,64,60
180.6,180.75,69,64,60
180.75,180.88126,65,64,60
180.9,180.965,67,64,60
181.05,181.115,70,64,60
181.2,181.35,69,64,60
181.35,181.48125,72,64,60
181.5,181.565,69,64,60
181.65,181.715,65,64,60
181.8,182.85,60,64,60
183.0,183.075,69,64,60
183.075,183.15,67,64,60
183.15,183.225,69,64,60
183.225,183.3,67,64,60
183.3,183.375,69,64,60
183.375,183.45,67,64,60
183.45,183.525,69,64,60
183.525,183.6,67,64,60
183.6,183.675,69,64,60
183.675,183.75,67,64,60
183.75,183.825,69,64,60
183.825,183.9,67,64,60
183.9,184.05,65,64,60
184.05,184.18124,67,64,60
184.2,184.725,65,64,60
191.1,191.2325,67,64,60
191.4,191.85,67,64,60
191.85,191.98125,72,64,60
192.0,192.1325,72,64,60
198.3,198.4325,67,64,60
198.6,199.125,67,64,60
205.8,208.4625,67,64,60
208.8,208.9325,65,64,60
209.1,209.2325,67,64,60
209.4,209.6625,69,64,60
209.7,209.775,70,64,60
209.775,209.85,69,64,60
209.85,209.925,67,64,60
209.925,209.99,69,64,60
210.0,210.1325,70,64,60
210.3,210.4325,67,64,60
210.6,210.7325,65,64,60
210.9,211.0325,65,64,60
211.2,211.3325,67,64,60
211.5,211.6325,67,64,60
211.8,211.95,70,64,60
211.95,212.08125,69,64,60
212.1,212.23125,67,64,60
212.25,212.38126,69,64,60
212.4,212.55,70,64,60
212.55,212.7,69,64,60
212.7,212.85,67,64,60
212.85,212.98125,65,64,60
213.0,213.1325,60,64,60
213.3,213.4325,60,64,60
213.6,213.7325,65,64,60
213.9,214.0325,67,64,60
214.2,214.4625,69,64,60
214.5,214.575,70,64,60
214.575,214.65,69,64,60
214.65,214.725,67,64,60
214.725,214.79,69,64,60
214.8,214.9325,70,64,60
215.1,215.2325,67,64,60
215.4,215.5325,65,64,60
215.7,215.8325,65,64,60
216.0,216.1325,67,64,60
216.3,216.4325,67,64,60
216.6,216.75,69,64,60
216.75,216.88126,72,64,60
216.9,216.965,69,64,60
217.05,217.115,65,64,60
217.2,217.3325,67,64,60
217.5,217.6325,60,64,60
217.8,217.9325,57,64,60
218.1,218.2325,57,64,60
218.4,218.5325,65,64,60
218.7,218.8325,65,64,60
219.0,220.3325,65,64,60
220.5,220.6325,65,64,60
220.8,220.9325,67,64,60
221.1,221.2325,67,64,60
221.4,221.5325,69,64,60
221.7,221.8325,69,64,60
222.0,222.15,70,64,60
222.15,222.3,69,64,60
222.3,222.45,67,64,60
222.45,222.58125,65,64,60
222.6,222.7325,60,64,60
222.9,223.0325,60,64,60
223.2,223.3325,65,64,60
223.5,223.6325,65,64,60
223.8,225.1325,65,64,60
225.3,225.4325,65,64,60
225.6,225.7325,67,64,60
225.9,226.0325,67,64,60
226.2,226.3325,69,64,60
226.5,226.6325,69,64,60
226.8,226.9325,67,64,60
227.1,227.2325,67,64,60
227.4,227.6625,65,64,60
228.0,228.15,69,64,60
228.15,228.28125,72,64,60
228.3,228.365,69,64,60
228.45,228.515,65,64,60
228.6,228.7325,60,64,60
228.9,229.0325,60,64,60
229.5,229.6325,60,64,60
230.1,230.2325,60,64,60
230.7,230.8325,60,64,60
231.3,231.4325,60,64,60
231.6,231.7325,60,64,60
231.9,232.0325,60,64,60
232.2,232.4625,60,64,60
232.8,232.95,69,64,60
232.95,233.08125,72,64,60
233.1,233.165,69,64,60
233.25,233.315,65,64,60
233.4,233.5325,60,64,60
233.7,233.8325,60,64,60
234.3,234.4325,60,64,60
234.9,235.0325,60,64,60
235.5,235.6325,60,64,60
236.1,236.2325,60,64,60
236.4,236.5325,60,64,60
236.7,236.8325,60,64,60
237.0,237.2625,60,64,60
239.4,239.7,60,64,60
239.7,239.8325,65,64,60
241.8,242.1,60,64,60
242.1,242.2325,65,64,60
242.4,242.5325,69,64,60
242.7,242.8325,69,64,60
243.0,243.3,69,64,60
243.3,243.6,67,64,60
243.6,243.8625,65,64,60
243.9,244.0325,69,64,60
244.2,244.8,67,64,60
244.8,245.325,60,64,60
245.4,245.5325,65,64,60
245.7,245.8325,65,64,60
246.0,246.1325,60,64,60
246.3,246.4325,60,64,60
246.75,246.815,65,64,60
246.9,246.965,69,64,60
247.05,247.115,72,64,60
247.2,247.35,69,64,60
247.35,247.48125,72,64,60
247.5,247.565,69,64,60
247.65,247.715,65,64,60
247.8,248.3325,60,64,60
249.15,249.215,65,64,60
249.3,249.365,69,64,60
249.45,249.515,72,64,60
249.6,249.75,69,64,60
249.75,249.88126,72,64,60
249.9,250.03125,69,64,60
250.05,250.18124,65,64,60
250.2,251.25,60,64,60
251.4,251.5325,65,64,60
251.7,251.8325,65,64,60
0.0,0.1325,57,64,70
0.3,0.4325,58,64,70
0.6,0.8625,60,64,70
0.9,0.975,62,64,70
0.975,1.05,60,64,70
1.05,1.125,59,64,70
1.125,1.19,60,64,70
1.2,1.3325,62,64,70
1.5,1.6325,58,64,70
1.8,1.9325,57,64,70
2.1,2.2325,57,64,70
2.4,2.5325,58,64,70
2.7,2.8325,58,64,70
3.0,3.15,62,64,70
3.15,3.28125,60,64,70
3.3,3.43125,58,64,70
3.45,3.58125,60,64,70
3.6,3.75,62,64,70
3.75,3.9,60,64,70
3.9,4.05,58,64,70
4.05,4.18125,57,64,70
4.2,4.3325,55,64,70
4.5,4.6325,55,64,70
4.8,4.9325,57,64,70
5.1,5.2325,58,64,70
5.4,5.6625,60,64,70
5.7,5.775,62,64,70
5.775,5.85,60,64,70
5.85,5.925,59,64,70
5.925,5.99,60,64,70
6.0,6.1325,62,64,70
6.3,6.4325,58,64,70
6.6,6.7325,57,64,70
6.9,7.0325,57,64,70
7.2,7.3325,58,64,70
7.5,7.6325,58,64,70
7.8,7.95,60,64,70
7.95,8.08125,65,64,70
8.1,8.165,60,64,70
8.25,8.315,57,64,70
8.4,8.55,60,64,70
8.55,8.68125,58,64,70
8.7,8.765,57,64,70
8.85,8.915,55,64,70
9.0,9.1325,53,64,70
9.3,9.4325,53,64,70
9.6,9.7325,41,64,70
9.9,10.0325,41,64,70
10.2,11.5325,41,64,70
11.7,11.8325,53,64,70
12.0,12.1325,41,64,70
12.3,12.4325,41,64,70
12.6,13.3875,41,64,70
13.5,13.7625,41,64,70
13.8,13.95,48,64,70
13.95,14.1,46,64,70
14.1,14.25,45,64,70
14.25,14.38125,43,64,70
14.4,14.5325,41,64,70
14.7,14.8325,41,64,70
15.0,16.3325,41,64,70
16.5,16.6325,53,64,70
16.8,16.9325,41,64,70
17.1,17.2325,41,64,70
17.4,17.6625,41,64,70
18.0,18.2625,48,64,70
18.6,18.8625,41,64,70
20.4,20.465,55,64,70
20.55,20.615,57,64,70
20.7,20.765,58,64,70
20.85,20.915,60,64,70
21.0,21.3,57,64,70
21.3,21.5625,53,64,70
21.6,21.7325,65,64,70
21.9,22.0325,65,64,70
22.2,22.5,64,64,70
22.5,22.7625,60,64,70
22.8,22.87125,62,64,70
22.875,22.95,60,64,70
22.95,23.025,62,64,70
23.025,23.1,60,64,70
23.1,23.175,62,64,70
23.175,23.25,60,64,70
23.25,23.325,62,64,70
23.325,23.39,64,64,70
23.4,23.6625,65,64,70
25.2,25.265,55,64,70
25.35,25.415,57,64,70
25.5,25.565,58,64,70
25.65,25.715,60,64,70
25.8,26.1,57,64,70
26.1,26.3625,53,64,70
26.4,26.5325,65,64,70
26.7,26.8325,65,64,70
27.0,27.3,64,64,70
27.3,27.5625,60,64,70
27.6,27.67125,62,64,70
27.675,27.75,60,64,70
27.75,27.825,62,64,70
27.825,27.9,60,64,70
27.9,27.975,62,64,70
27.975,28.05,60,64,70
28.05,28.125,62,64,70
28.125,28.19,64,64,70
28.2,28.4625,65,64,70
30.6,30.7325,60,64,70
30.9,31.0325,53,64,70
33.0,33.1325,60,64,70
33.3,33.4325,53,64,70
34.2,34.5,62,64,70
34.5,34.8,64,64,70
34.8,35.0625,65,64,70
35.1,35.2325,66,64,70
35.4,35.7,67,64,70
35.7,36.0,65,64,70
36.0,36.2625,64,64,70
36.3,36.4325,60,64,70
36.6,36.7325,65,64,70
36.9,37.0325,53,64,70
37.2,37.3325,60,64,70
37.5,37.6325,48,64,70
37.8,38.0625,53,64,70
39.3,39.43125,48,64,70
39.45,39.58125,48,64,70
39.6,39.8625,48,64,70
39.9,40.1625,48,64,70
40.2,40.4625,53,64,70
41.7,41.83125,48,64,70
41.85,41.98125,48,64,70
42.0,42.2625,48,64,70
42.3,42.5625,48,64,70
42.6,42.7325,41,64,70
42.9,43.0325,53,64,70
43.2,43.4625,41,64,70
43.8,44.325,65,64,70
44.4,44.79375,60,64,70
44.85,44.98125,60,64,70
45.0,45.7875,57,64,70
45.9,46.03125,57,64,70
46.05,46.18125,58,64,70
46.2,46.35,60,64,70
46.35,46.48125,62,64,70
46.5,46.565,60,64,70
46.65,46.715,58,64,70
46.8,46.865,57,64,70
46.95,47.015,55,64,70
47.1,47.165,53,64,70
47.25,47.315,55,64,70
47.4,47.5325,57,64,70
47.7,47.8325,53,64,70
48.6,48.7325,53,64,70
49.2,49.3325,53,64,70
49.8,49.9325,48,64,70
50.4,50.5325,48,64,70
51.0,51.1325,41,64,70
51.6,51.7325,41,64,70
52.2,52.3325,48,64,70
52.5,52.6325,48,64,70
52.8,53.0625,48,64,70
53.4,56.0625,60,64,70
56.1,56.23125,59,64,70
56.25,56.38125,57,64,70
56.4,56.5325,59,64,70
56.7,56.8325,55,64,70
57.0,57.1325,60,64,70
57.3,57.4325,48,64,70
57.6,57.7325,48,64,70
57.9,58.0325,48,64,70
58.2,58.465,53,64,70
58.8,59.065,55,64,70
59.4,59.665,57,64,70
60.0,60.15,59,64,70
60.15,60.3,60,64,70
60.3,60.45,62,64,70
60.45,60.58125,64,64,70
60.6,60.7325,65,64,70
61.2,61.3325,53,64,70
61.8,61.95,55,64,70
61.95,62.1,54,64,70
62.1,62.25,55,64,70
62.25,62.38125,54,64,70
62.4,62.6625,55,64,70
62.7,62.83125,55,64,70
62.85,62.98125,55,64,70
63.0,63.2625,60,64,70
63.3,63.43125,60,64,70
63.45,63.58125,60,64,70
63.6,63.75,62,64,70
63.75,63.88125,60,64,70
63.9,64.03125,59,64,70
64.05,64.18125,57,64,70
64.2,64.4625,55,64,70
64.5,64.63125,55,64,70
64.65,64.78125,53,64,70
64.8,64.95,53,64,70
64.95,65.08125,52,64,70
65.1,65.23125,50,64,70
65.25,65.38125,48,64,70
65.4,65.6625,47,64,70
65.7,65.9625,50,64,70
66.0,66.2625,43,64,70
66.3,66.5625,47,64,70
66.6,66.67125,50,64,70
66.675,66.75,48,64,70
66.75,66.825,50,64,70
66.825,66.89,48,64,70
66.9,66.965,50,64,70
67.05,67.115,52,64,70
67.2,67.265,53,64,70
67.35,67.415,55,64,70
67.5,67.565,57,64,70
67.65,67.715,59,64,70
67.8,68.0625,60,64,70
68.1,68.23125,60,64,70
68.25,68.38125,60,64,70
68.4,68.55,62,64,70
68.55,68.68125,60,64,70
68.7,68.83125,59,64,70
68.85,68.98125,57,64,70
69.0,69.2625,55,64,70
69.3,69.43125,55,64,70
69.45,69.58125,53,64,70
69.6,69.75,53,64,70
69.75,69.88125,52,64,70
69.9,70.03125,50,64,70
70.05,70.18125,48,64,70
70.2,70.3325,53,64,70
70.5,70.6325,53,64,70
72.6,72.7325,62,64,70
72.9,73.0325,62,64,70
75.0,75.1325,62,64,70
75.3,75.4325,62,64,70
76.2,76.3325,60,64,70
76.5,76.6325,60,64,70
77.4,77.5325,58,64,70
77.7,77.8325,58,64,70
78.6,78.7325,57,64,70
78.9,79.0325,57,64,70
79.8,79.9325,55,64,70
80.1,80.2325,55,64,70
81.0,81.2625,53,64,70
81.3,81.5625,53,64,70
82.2,82.3325,52,64,70
82.5,82.6325,64,64,70
82.8,82.9325,62,64,70
83.1,83.2325,59,64,70
83.4,83.5325,60,64,70
83.7,83.8325,64,64,70
84.0,84.1325,62,64,70
84.3,84.4325,59,64,70
84.6,85.125,60,64,70
85.8,86.325,48,64,70
87.0,87.525,41,64,70
88.2,88.725,53,64,70
89.4,89.925,43,64,70
90.6,91.125,48,64,70
91.5,91.6325,52,64,70
91.8,91.9325,53,64,70
92.1,92.2325,54,64,70
92.4,92.5325,55,64,70
92.7,92.8325,43,64,70
93.0,93.2625,48,64,70
93.6,93.7325,60,64,70
93.9,94.0325,62,64,70
94.2,94.4625,64,64,70
94.5,94.565,65,64,70
94.575,94.64,64,64,70
94.65,94.715,62,64,70
94.725,94.79,64,64,70
94.8,94.9325,65,64,70
95.1,95.2325,62,64,70
95.4,95.5325,60,64,70
95.7,95.8325,60,64,70
98.1,98.4,63,64,70
98.4,98.6625,64,64,70
99.3,99.6,63,64,70
99.6,99.8625,64,64,70
101.55,101.7,60,64,70
101.7,101.85,62,64,70
101.85,101.98125,60,64,70
102.0,102.15,58,64,70
102.15,102.3,60,64,70
102.3,102.45,57,64,70
102.45,102.58125,58,64,70
102.6,102.75,55,64,70
102.75,102.88125,58,64,70
102.9,102.965,57,64,70
103.05,103.115,60,64,70
103.2,103.35,58,64,70
103.35,103.48125,60,64,70
103.5,103.565,57,64,70
103.65,103.715,58,64,70
103.8,103.93125,55,64,70
103.95,104.2125,67,64,70
104.25,104.315,65,64,70
104.4,104.55,64,64,70
104.55,104.68125,65,64,70
104.7,104.765,62,64,70
104.85,104.915,64,64,70
105.0,105.15,60,64,70
105.15,105.28125,62,64,70
105.3,105.365,58,64,70
105.45,105.515,60,64,70
105.6,105.75,57,64,70
105.75,105.88125,58,64,70
105.9,105.965,55,64,70
106.05,106.115,57,64,70
106.2,106.275,55,64,70
106.275,106.35,53,64,70
106.35,106.5,52,64,70
106.5,106.65,53,64,70
106.65,106.78125,55,64,70
106.8,106.9325,57,64,70
107.1,107.2325,58,64,70
107.4,107.6625,60,64,70
107.7,107.775,62,64,70
107.775,107.85,60,64,70
107.85,107.925,59,64,70
107.925,107.99,60,64,70
108.0,108.1325,62,64,70
108.3,108.4325,58,64,70
108.6,108.7325,57,64,70
108.9,109.0325,57,64,70
109.2,109.3325,58,64,70
109.5,109.6325,58,64,70
109.8,109.95,62,64,70
109.95,110.1,60,64,70
110.1,110.25,58,64,70
110.25,110.38125,60,64,70
110.4,110.55,62,64,70
110.55,110.7,60,64,70
110.7,110.85,58,64,70
110.85,110.98125,57,64,70
111.0,111.1325,55,64,70
111.3,111.4325,55,64,70
111.6,111.7325,57,64,70
111.9,112.0325,58,64,70
112.2,112.4625,60,64,70
112.5,112.575,62,64,70
112.575,112.65,60,64,70
112.65,112.725,59,64,70
112.725,112.79,60,64,70
112.8,112.9325,62,64,70
113.1,113.2325,58,64,70
113.4,113.5325,57,64,70
113.7,113.8325,57,64,70
114.0,114.1325,58,64,70
114.3,114.4325,58,64,70
114.6,114.75,60,64,70
114.75,114.88125,65,64,70
114.9,114.965,60,64,70
115.05,115.115,57,64,70
115.2,115.35,60,64,70
115.35,115.48125,58,64,70
115.5,115.565,57,64,70
115.65,115.715,55,64,70
115.8,115.9325,53,64,70
116.1,116.2325,53,64,70
116.4,116.5325,41,64,70
116.7,116.8325,41,64,70
117.0,118.3325,41,64,70
118.5,118.6325,53,64,70
118.8,118.9325,41,64,70
119.1,119.2325,41,64,70
119.4,120.1875,41,64,70
120.3,120.5625,41,64,70
120.6,120.75,48,64,70
120.75,120.9,46,64,70
120.9,121.05,45,64,70
121.05,121.18125,43,64,70
121.2,121.3325,41,64,70
121.5,121.6325,41,64,70
121.8,123.1325,41,64,70
123.3,123.4325,53,64,70
123.6,123.7325,41,64,70
123.9,124.0325,41,64,70
124.2,124.4625,41,64,70
124.8,125.0625,48,64,70
125.55,125.7,53,64,70
125.7,125.85,54,64,70
125.85,126.0,55,64,70
126.0,126.15,56,64,70
126.15,126.3,57,64,70
126.3,126.45,58,64,70
126.45,126.58125,59,64,70
126.6,127.5,60,64,70
127.5,127.7625,58,64,70
127.8,128.0625,57,64,70
130.2,130.725,62,64,70
130.8,131.19376,62,64,70
131.25,131.38126,62,64,70
131.4,132.1875,62,64,70
132.3,132.45,62,64,70
132.45,132.58125,65,64,70
132.6,132.7325,64,64,70
132.9,133.05,64,64,70
133.05,133.18124,62,64,70
133.2,133.3325,61,64,70
133.5,133.65,61,64,70
133.65,133.78125,64,64,70
133.8,134.4,58,64,70
134.4,134.6625,57,64,70
135.3,135.4325,64,64,70
135.6,135.7325,61,64,70
135.9,136.0325,67,64,70
136.5,136.6325,64,64,70
136.8,136.9325,61,64,70
137.1,137.2325,57,64,70
137.4,137.6625,49,64,70
138.3,138.4325,57,64,70
138.6,138.7325,50,64,70
139.2,139.3325,38,64,70
139.8,139.9325,50,64,70
140.1,140.2325,49,64,70
140.4,140.5325,50,64,70
140.7,140.8325,52,64,70
141.0,141.1325,53,64,70
141.3,141.4325,54,64,70
141.6,141.7325,55,64,70
141.9,142.0325,57,64,70
142.2,142.3325,58,64,70
142.8,142.9325,55,64,70
143.4,143.5325,57,64,70
143.7,143.8325,55,64,70
144.0,144.1325,53,64,70
144.3,144.4325,50,64,70
144.6,144.7325,49,64,70
144.9,145.0325,45,64,70
145.2,145.3325,50,64,70
145.5,145.6325,38,64,70
145.8,145.9325,45,64,70
146.1,146.2325,45,64,70
146.4,146.5325,45,64,70
150.6,151.33125,60,64,70
151.35,151.5,62,64,70
151.5,151.65,64,64,70
151.65,151.78125,65,64,70
151.8,151.95,65,64,70
151.95,152.1,64,64,70
152.1,152.25,62,64,70
152.25,152.38126,60,64,70
152.4,152.55,59,64,70
152.55,152.7,60,64,70
152.7,152.85,62,64,70
152.85,152.98125,60,64,70
153.0,153.73125,60,64,70
153.75,153.9,62,64,70
153.9,154.05,64,64,70
154.05,154.18124,65,64,70
154.2,154.35,64,64,70
154.35,154.5,65,64,70
154.5,154.65,67,64,70
154.65,154.8,65,64,70
154.8,154.95,64,64,70
154.95,155.1,62,64,70
155.1,155.25,60,64,70
155.25,155.38126,58,64,70
155.4,155.6625,57,64,70
155.7,155.765,48,64,70
155.85,155.915,60,64,70
156.0,156.065,50,64,70
156.15,156.215,60,64,70
156.3,156.365,52,64,70
156.45,156.515,60,64,70
156.6,156.665,53,64,70
156.75,156.815,60,64,70
156.9,156.965,52,64,70
157.05,157.115,60,64,70
157.2,157.265,53,64,70
157.35,157.415,60,64,70
157.5,157.565,55,64,70
157.65,157.715,60,64,70
157.8,157.95,57,64,70
157.95,158.08125,60,64,70
158.1,158.165,48,64,70
158.25,158.315,60,64,70
158.4,158.465,50,64,70
158.55,158.615,60,64,70
158.7,158.765,52,64,70
158.85,158.915,60,64,70
159.0,159.065,53,64,70
159.15,159.215,60,64,70
159.3,159.365,52,64,70
159.45,159.515,60,64,70
159.6,159.665,53,64,70
159.75,159.815,60,64,70
159.9,159.965,55,64,70
160.05,160.115,60,64,70
160.2,160.35,57,64,70
160.35,160.48125,60,64,70
160.5,160.565,52,64,70
160.65,160.715,60,64,70
160.8,160.865,53,64,70
160.95,161.015,60,64,70
161.1,161.165,55,64,70
161.25,161.315,60,64,70
161.4,161.55,57,64,70
161.55,161.68124,60,64,70
161.7,161.765,52,64,70
161.85,161.915,60,64,70
162.0,162.065,53,64,70
162.15,162.215,60,64,70
162.3,162.365,55,64,70
162.45,162.515,60,64,70
162.6,162.665,57,64,70
162.75,162.815,53,64,70
162.9,162.965,55,64,70
163.05,163.115,57,64,70
163.2,163.265,58,64,70
163.35,163.415,60,64,70
163.5,163.565,62,64,70
163.65,163.715,64,64,70
163.8,163.9325,65,64,70
164.1,164.625,57,64,70
164.7,164.8325,59,64,70
165.0,165.6,62,64,70
165.6,165.8625,60,64,70
166.2,166.4625,48,64,70
167.4,167.6625,41,64,70
168.6,168.7325,48,64,70
169.2,169.3325,48,64,70
169.8,169.9325,41,64,70
171.0,171.1325,48,64,70
171.6,171.7325,48,64,70
172.2,172.3325,41,64,70
174.9,175.0325,41,64,70
175.2,175.3325,43,64,70
175.5,175.6325,45,64,70
175.8,175.9325,46,64,70
176.7,176.8325,47,64,70
177.0,177.1325,48,64,70
177.3,177.4325,48,64,70
177.6,177.7325,48,64,70
177.9,178.0325,48,64,70
178.2,178.3325,48,64,70
179.4,179.6625,48,64,70
180.6,180.8625,48,64,70
181.5,181.6325,41,64,70
181.8,181.9325,48,64,70
182.1,182.2325,48,64,70
182.4,182.5325,48,64,70
182.7,182.8325,48,64,70
183.0,183.1325,60,64,70
183.3,183.4325,60,64,70
183.6,183.7325,48,64,70
183.9,184.0325,48,64,70
184.2,184.725,53,64,70
188.1,188.2325,53,64,70
188.4,188.7,50,64,70
188.7,188.9625,47,64,70
189.3,189.4325,53,64,70
189.6,189.9,50,64,70
189.9,190.1625,47,64,70
190.5,190.6325,53,64,70
190.8,190.9325,50,64,70
191.1,191.2325,55,64,70
191.4,191.925,48,64,70
195.3,195.4325,53,64,70
195.6,195.9,50,64,70
195.9,196.1625,47,64,70
196.5,196.6325,53,64,70
196.8,197.1,50,64,70
197.1,197.3625,47,64,70
197.7,197.8325,65,64,70
198.0,198.1325,62,64,70
198.3,198.4325,55,64,70
198.6,198.8625,48,64,70
205.8,208.05,55,64,70
208.2,208.4625,48,64,70
208.8,208.9325,57,64,70
209.1,209.2325,58,64,70
209.4,209.6625,60,64,70
209.7,209.775,62,64,70
209.775,209.85,60,64,70
209.85,209.925,59,64,70
209.925,209.99,60,64,70
210.0,210.1325,62,64,70
210.3,210.4325,58,64,70
210.6,210.7325,57,64,70
210.9,211.0325,57,64,70
211.2,211.3325,58,64,70
211.5,211.6325,58,64,70
211.8,211.95,62,64,70
211.95,212.08125,60,64,70
212.1,212.23125,58,64,70
212.25,212.38126,60,64,70
212.4,212.55,62,64,70
212.55,212.7,60,64,70
212.7,212.85,58,64,70
212.85,212.98125,57,64,70
213.0,213.1325,55,64,70
213.3,213.4325,55,64,70
213.6,213.7325,57,64,70
213.9,214.0325,58,64,70
214.2,214.4625,60,64,70
214.5,214.575,62,64,70
214.575,214.65,60,64,70
214.65,214.725,59,64,70
214.725,214.79,60,64,70
214.8,214.9325,62,64,70
215.1,215.2325,58,64,70
215.4,215.5325,57,64,70
215.7,215.8325,57,64,70
216.0,216.1325,58,64,70
216.3,216.4325,58,64,70
216.6,216.75,60,64,70
216.75,216.88126,65,64,70
216.9,216.965,60,64,70
217.05,217.115,57,64,70
217.2,217.35,60,64,70
217.35,217.48125,58,64,70
217.5,217.565,57,64,70
217.65,217.715,55,64,70
217.8,217.9325,53,64,70
218.1,218.2325,53,64,70
218.4,218.5325,41,64,70
218.7,218.8325,41,64,70
219.0,220.3325,41,64,70
220.5,220.6325,53,64,70
220.8,220.9325,41,64,70
221.1,221.2325,41,64,70
221.4,222.1875,41,64,70
222.3,222.5625,41,64,70
222.6,222.75,48,64,70
222.75,222.9,46,64,70
222.9,223.05,45,64,70
223.05,223.18124,43,64,70
223.2,223.3325,41,64,70
223.5,223.6325,41,64,70
223.8,225.1325,41,64,70
225.3,225.4325,53,64,70
225.6,225.7325,41,64,70
225.9,226.0325,41,64,70
226.2,226.4625,41,64,70
226.8,227.0625,48,64,70
227.4,227.6625,41,64,70
229.2,229.265,55,64,70
229.35,229.415,57,64,70
229.5,229.565,58,64,70
229.65,229.715,60,64,70
229.8,230.1,57,64,70
230.1,230.3625,53,64,70
230.4,230.5325,65,64,70
230.7,230.8325,65,64,70
231.0,231.3,64,64,70
231.3,231.5625,60,64,70
231.6,231.67125,62,64,70
231.675,231.75,60,64,70
231.75,231.825,62,64,70
231.825,231.9,60,64,70
231.9,231.975,62,64,70
231.975,232.05,60,64,70
232.05,232.125,62,64,70
232.125,232.19,64,64,70
232.2,232.4625,65,64,70
234.0,234.065,55,64,70
234.15,234.215,57,64,70
234.3,234.365,58,64,70
234.45,234.515,60,64,70
234.6,234.9,57,64,70
234.9,235.1625,53,64,70
235.2,235.3325,65,64,70
235.5,235.6325,65,64,70
235.8,236.1,64,64,70
236.1,236.3625,60,64,70
236.4,236.47125,62,64,70
236.475,236.55,60,64,70
236.55,236.625,62,64,70
236.625,236.7,60,64,70
236.7,236.775,62,64,70
236.775,236.85,60,64,70
236.85,236.925,62,64,70
236.925,236.99,64,64,70
237.0,237.2625,65,64,70
239.4,239.5325,60,64,70
239.7,239.8325,53,64,70
241.8,241.9325,60,64,70
242.1,242.2325,53,64,70
243.0,243.3,62,64,70
243.3,243.6,64,64,70
243.6,243.8625,65,64,70
243.9,244.0325,66,64,70
244.2,244.5,67,64,70
244.5,244.8,65,64,70
244.8,245.0625,64,64,70
245.1,245.2325,60,64,70
245.4,245.5325,65,64,70
245.7,245.8325,53,64,70
246.0,246.1325,60,64,70
246.3,246.4325,48,64,70
246.6,246.8625,53,64,70
248.1,248.23125,48,64,70
248.25,248.38126,48,64,70
248.4,248.6625,48,64,70
248.7,248.9625,48,64,70
249.0,249.2625,53,64,70
250.5,250.63126,48,64,70
250.65,250.78125,48,64,70
250.8,251.0625,48,64,70
251.1,251.3625,48,64,70
251.4,251.5325,41,64,70
251.7,251.8325,53,64,70
