start_time,end_time,note_value,velocity,instrument_program_number
0.0,0.063142,76,40,0
0.0,0.063142,71,34,0
0.252568,0.31571,76,37,0
0.252568,0.31571,71,31,0
0.505136,0.5714901,72,31,0
0.505136,0.5714901,76,37,0
0.7705525,0.8348254,76,40,0
0.7705525,0.8348254,71,34,0
1.027644,1.0919169,71,30,0
1.027644,1.0919169,76,36,0
1.2847354,1.4099127,67,40,0
1.4099127,1.53509,69,35,0
1.53509,1.655572,71,40,0
1.655572,1.776054,72,36,0
1.776054,1.896536,71,40,0
1.896536,2.017018,78,45,0
2.017018,2.1375,76,43,0
2.1375,2.2583282,74,40,0
2.2583282,2.3824894,71,39,0
2.3824894,2.5050404,76,41,0
2.5050404,2.626223,79,43,0
2.626223,2.7458253,82,45,0
2.7458253,2.864769,83,48,0
3.006949,3.070091,83,40,0
3.006949,3.070091,78,34,0
3.006949,3.070091,74,34,0
3.259517,3.322659,78,31,0
3.259517,3.322659,74,31,0
3.259517,3.322659,83,37,0
3.512085,3.578439,79,31,0
3.512085,3.578439,74,31,0
3.512085,3.578439,83,37,0
3.7775016,3.8417745,83,40,0
3.7775016,3.8417745,78,34,0
3.7775016,3.8417745,74,34,0
4.034593,4.098866,78,30,0
4.034593,4.098866,83,36,0
4.034593,4.098866,74,30,0
4.2916846,4.4168615,71,40,0
4.4168615,4.542039,73,35,0
4.542039,4.663506,74,40,0
4.663506,4.7849736,78,36,0
4.7849736,4.9064407,74,40,0
4.7849736,4.9064407,71,40,0
4.9064407,5.0416613,78,45,0
5.0416613,5.1631284,73,63,0
5.1631284,5.2849736,78,60,0
5.0416613,5.2849736,70,53,0
5.2849736,5.407376,75,62,0
5.2849736,5.407376,71,52,0
5.407376,5.5283747,78,57,0
5.5283747,5.6480393,75,63,0
5.5283747,5.6480393,71,53,0
5.6480393,5.7663984,78,59,0
5.7663984,5.8838797,71,54,0
5.7663984,5.8838797,75,64,0
5.8838797,6.0458317,78,57,0
6.0458317,6.108974,76,40,0
6.0458317,6.108974,71,34,0
6.2984,6.3615417,71,31,0
6.2984,6.3615417,76,37,0
6.5509677,6.617322,76,37,0
6.5509677,6.617322,72,31,0
6.8163843,6.880657,76,40,0
6.8163843,6.880657,71,34,0
7.073476,7.1386933,71,30,0
7.073476,7.1386933,76,36,0
7.3343453,7.4595227,67,40,0
7.4595227,7.5846996,69,35,0
7.5846996,7.7047,71,40,0
7.7047,7.8247,72,36,0
7.8247,7.9447,71,40,0
7.9447,8.0647,78,45,0
8.0647,8.1847,76,43,0
8.1847,8.305086,74,40,0
8.305086,8.429248,71,39,0
8.429248,8.551799,76,41,0
8.551799,8.672981,79,43,0
8.672981,8.792583,82,45,0
8.792583,8.911527,83,48,0
9.053037,9.1161785,78,34,0
9.053037,9.1161785,74,34,0
9.053037,9.1161785,83,40,0
9.305605,9.368747,83,37,0
9.305605,9.368747,78,31,0
9.305605,9.368747,74,31,0
9.558172,9.624527,83,37,0
9.558172,9.624527,79,31,0
9.558172,9.624527,74,31,0
9.823589,9.887862,78,34,0
9.823589,9.887862,74,34,0
9.823589,9.887862,83,40,0
10.080681,10.144954,83,36,0
10.080681,10.144954,78,30,0
10.080681,10.144954,74,30,0
10.337772,10.462949,71,40,0
10.462949,10.588126,73,35,0
10.588126,10.709094,74,40,0
10.709094,10.830062,78,36,0
10.830062,10.95103,71,40,0
10.830062,10.95103,74,40,0
10.95103,11.08625,78,45,0
11.08625,11.207718,73,63,0
11.207718,11.329563,78,60,0
11.08625,11.329563,70,53,0
11.329563,11.451964,75,62,0
11.329563,11.451964,71,52,0
11.451964,11.572964,78,57,0
11.572964,11.692629,75,63,0
11.572964,11.692629,71,53,0
11.692629,11.810987,78,59,0
11.810987,11.928469,71,54,0
11.810987,11.928469,75,64,0
11.928469,12.089517,78,57,0
12.089517,12.152658,59,88,0
12.342085,12.405227,59,80,0
12.594653,12.661007,54,80,0
12.860069,12.924342,59,88,0
13.117161,13.182378,59,79,0
13.378031,13.503207,64,40,0
13.503207,13.628385,66,35,0
13.628385,13.748867,67,40,0
13.748867,13.869349,70,36,0
13.869349,13.989831,67,40,0
13.989831,14.114312,70,34,0
14.114312,14.23578,66,41,0
14.23578,14.357625,70,36,0
14.357625,14.480026,64,41,0
14.480026,14.601026,70,36,0
14.601026,14.720691,64,41,0
14.720691,14.839049,70,35,0
15.1175785,15.18072,59,88,0
15.370147,15.433289,59,80,0
15.622715,15.689069,54,80,0
15.888131,15.952404,59,88,0
16.145224,16.209496,59,79,0
16.402315,16.52749,64,40,0
16.52749,16.652668,66,35,0
16.652668,16.774136,67,40,0
16.774136,16.895603,70,36,0
16.895603,17.01707,67,40,0
17.01707,17.14117,70,34,0
17.14117,17.262638,66,41,0
17.262638,17.384483,70,36,0
17.384483,17.506464,64,41,0
17.506464,17.628445,70,36,0
17.628445,17.750425,64,41,0
17.750425,17.87616,70,35,0
17.87616,17.99814,67,41,0
17.99814,18.120121,69,35,0
18.120121,18.242104,70,44,0
18.242104,18.362585,73,40,0
18.362585,18.483067,70,46,0
18.483067,18.603548,73,39,0
18.603548,18.724031,69,51,0
18.724031,18.84648,73,45,0
18.84648,18.966923,67,54,0
18.966923,19.087366,73,48,0
19.087366,19.20781,67,57,0
19.20781,19.333544,73,53,0
19.333544,19.455524,70,59,0
19.455524,19.577505,71,52,0
19.577505,19.699486,72,62,0
19.699486,19.819967,76,55,0
19.819967,19.94045,72,62,0
19.94045,20.060932,76,55,0
20.060932,20.181414,71,61,0
20.181414,20.305382,76,50,0
20.305382,20.425825,70,62,0
20.425825,20.546267,76,55,0
20.546267,20.66671,70,58,0
20.66671,20.787153,76,50,0
20.787153,20.910713,70,55,0
20.910713,21.045933,76,46,0
21.045933,21.170033,71,40,0
21.170033,21.294134,76,36,0
21.294134,21.418234,71,40,0
21.418234,21.542334,76,34,0
21.542334,21.666433,71,41,0
21.666433,21.790535,76,36,0
21.790535,21.916819,71,40,0
21.916819,22.043102,75,36,0
22.043102,22.169386,71,40,0
22.169386,22.29567,75,34,0
22.29567,22.421955,71,41,0
22.421955,22.56926,75,36,0
22.56926,22.632374,71,34,0
22.56926,22.632374,76,40,0
22.82172,22.884836,76,37,0
22.82172,22.884836,71,31,0
23.074183,23.140535,76,37,0
23.074183,23.140535,72,31,0
23.339598,23.403872,76,40,0
23.339598,23.403872,71,34,0
23.59669,23.661907,76,36,0
23.59669,23.661907,71,30,0
23.85756,23.982737,67,40,0
23.982737,24.107914,69,35,0
24.107914,24.227913,71,40,0
24.227913,24.347914,72,36,0
24.347914,24.467915,71,40,0
24.467915,24.587914,78,45,0
24.587914,24.707914,76,43,0
24.707914,24.8283,74,40,0
24.8283,24.952461,71,39,0
24.952461,25.075012,76,41,0
25.075012,25.196196,79,43,0
25.196196,25.315798,82,45,0
25.315798,25.43474,83,48,0
25.57625,25.639393,78,34,0
25.57625,25.639393,74,34,0
25.57625,25.639393,83,40,0
25.82882,25.89196,78,31,0
25.82882,25.89196,83,37,0
25.82882,25.89196,74,31,0
26.081387,26.147741,79,31,0
26.081387,26.147741,74,31,0
26.081387,26.147741,83,37,0
26.346804,26.411076,83,40,0
26.346804,26.411076,78,34,0
26.346804,26.411076,74,34,0
26.603895,26.668167,74,30,0
26.603895,26.668167,83,36,0
26.603895,26.668167,78,30,0
26.860987,26.986162,71,40,0
26.986162,27.11134,73,35,0
27.11134,27.232307,74,40,0
27.232307,27.353275,78,36,0
27.353275,27.474243,71,40,0
27.353275,27.474243,74,40,0
27.474243,27.609465,78,45,0
27.609465,27.730932,73,63,0
27.730932,27.852777,78,60,0
27.609465,27.852777,70,53,0
27.852777,27.97518,75,62,0
27.852777,27.97518,71,52,0
27.97518,28.096178,78,57,0
28.096178,28.215843,75,63,0
28.096178,28.215843,71,53,0
28.215843,28.334202,78,59,0
28.334202,28.451683,75,64,0
28.334202,28.451683,71,54,0
28.451683,28.61273,78,57,0
28.61273,28.675873,59,88,0
28.8653,28.92844,59,80,0
29.117867,29.184221,54,80,0
29.383284,29.447556,59,88,0
29.640375,29.705591,59,79,0
29.901245,30.02642,64,40,0
30.02642,30.151598,66,35,0
30.151598,30.272081,67,40,0
30.272081,30.392563,70,36,0
30.392563,30.513044,67,40,0
30.513044,30.637526,70,34,0
30.637526,30.758993,66,41,0
30.758993,30.880838,70,36,0
30.880838,31.00324,64,41,0
31.00324,31.124239,70,36,0
31.124239,31.243904,64,41,0
31.243904,31.362263,70,35,0
31.640793,31.703934,59,88,0
31.89336,31.956503,59,80,0
32.145927,32.212284,54,80,0
32.411346,32.475616,59,88,0
32.668438,32.732708,59,79,0
32.92553,33.050705,64,40,0
33.050705,33.175884,66,35,0
33.175884,33.297348,67,40,0
33.297348,33.418816,70,36,0
33.418816,33.540283,67,40,0
33.540283,33.664383,70,34,0
33.664383,33.78585,66,41,0
33.78585,33.907696,70,36,0
33.907696,34.02968,64,41,0
34.02968,34.15166,70,36,0
34.15166,34.27364,64,41,0
34.27364,34.399372,70,35,0
34.399372,34.521355,67,41,0
34.521355,34.643337,69,35,0
34.643337,34.765316,70,44,0
34.765316,34.8858,73,40,0
34.8858,35.00628,70,46,0
35.00628,35.126762,73,39,0
35.126762,35.247246,69,51,0
35.247246,35.369694,73,45,0
35.369694,35.490135,67,54,0
35.490135,35.61058,73,48,0
35.61058,35.73102,67,57,0
35.73102,35.85676,73,53,0
35.85676,35.978737,70,59,0
35.978737,36.10072,71,52,0
36.10072,36.2227,72,62,0
36.2227,36.34318,76,55,0
36.34318,36.463665,72,62,0
36.463665,36.584145,76,55,0
36.584145,36.704628,71,61,0
36.704628,36.828594,76,50,0
36.828594,36.94904,70,62,0
36.94904,37.06948,76,55,0
37.06948,37.189926,70,58,0
37.189926,37.310368,76,50,0
37.310368,37.433926,70,55,0
37.433926,37.569145,76,46,0
37.569145,37.69325,71,40,0
37.69325,37.81735,76,36,0
37.81735,37.94145,71,40,0
37.94145,38.065548,76,34,0
38.065548,38.189648,71,41,0
38.189648,38.313747,76,36,0
38.313747,38.440033,71,40,0
38.440033,38.566315,75,36,0
38.566315,38.6926,71,40,0
38.6926,38.818886,75,34,0
38.818886,38.945168,71,41,0
38.945168,39.104183,75,36,0
39.104183,39.1673,71,34,0
39.104183,39.1673,76,40,0
39.356647,39.41976,76,37,0
39.356647,39.41976,71,31,0
39.609108,39.67546,72,31,0
39.609108,39.67546,76,37,0
39.874523,39.938797,71,34,0
39.874523,39.938797,76,40,0
40.131615,40.19589,71,30,0
40.131615,40.19589,76,36,0
40.388706,40.513885,67,40,0
40.513885,40.63906,69,35,0
40.63906,40.759544,71,40,0
40.759544,40.880024,72,36,0
40.880024,41.000507,71,40,0
41.000507,41.12099,78,45,0
41.12099,41.24147,76,43,0
41.24147,41.3623,74,40,0
41.3623,41.48646,71,39,0
41.48646,41.609013,76,41,0
41.609013,41.730194,79,43,0
41.730194,41.849796,82,45,0
41.849796,41.968742,83,48,0
42.11092,42.17406,83,40,0
42.11092,42.17406,78,34,0
42.11092,42.17406,74,34,0
42.363487,42.426632,83,37,0
42.363487,42.426632,74,31,0
42.363487,42.426632,78,31,0
42.61606,42.68241,83,37,0
42.61606,42.68241,74,31,0
42.61606,42.68241,79,31,0
42.881474,42.945747,83,40,0
42.881474,42.945747,78,34,0
42.881474,42.945747,74,34,0
43.138565,43.20284,78,30,0
43.138565,43.20284,83,36,0
43.138565,43.20284,74,30,0
43.395657,43.520832,71,40,0
43.520832,43.64601,73,35,0
43.64601,43.76748,74,40,0
43.76748,43.888947,78,36,0
43.888947,44.010414,74,40,0
43.888947,44.010414,71,40,0
44.010414,44.145634,78,45,0
44.145634,44.2671,73,63,0
44.2671,44.388947,78,60,0
44.145634,44.388947,70,53,0
44.388947,44.51135,71,52,0
44.388947,44.51135,75,62,0
44.51135,44.632347,78,57,0
44.632347,44.75201,71,53,0
44.632347,44.75201,75,63,0
44.75201,44.87037,78,59,0
44.87037,44.98785,71,54,0
44.87037,44.98785,75,64,0
44.98785,45.149803,78,57,0
45.149803,45.212944,76,40,0
45.149803,45.212944,71,34,0
45.40237,45.465515,76,37,0
45.40237,45.465515,71,31,0
45.654938,45.721294,72,31,0
45.654938,45.721294,76,37,0
45.920357,45.98463,76,40,0
45.920357,45.98463,71,34,0
46.17745,46.242664,71,30,0
46.17745,46.242664,76,36,0
46.438316,46.563496,67,40,0
46.563496,46.68867,69,35,0
46.68867,46.80867,71,40,0
46.80867,46.928673,72,36,0
46.928673,47.04867,71,40,0
47.04867,47.16867,78,45,0
47.16867,47.28867,76,43,0
47.28867,47.409058,74,40,0
47.409058,47.53322,71,39,0
47.53322,47.65577,76,41,0
47.65577,47.77695,79,43,0
47.77695,47.896553,82,45,0
47.896553,48.0155,83,48,0
48.28117,48.40372,68,36,0
48.40372,48.524902,69,38,0
48.524902,48.644505,72,40,0
48.644505,48.76345,76,43,0
49.031418,49.15922,64,36,0
49.15922,49.285343,65,38,0
49.285343,49.409832,69,40,0
49.409832,49.533463,72,43,0
49.85106,49.996944,62,34,0
49.996944,50.141056,63,36,0
50.141056,50.283478,66,38,0
50.283478,50.427254,71,40,0
50.71948,50.78262,55,22,0
50.71948,50.78262,64,27,0
50.71948,50.78262,59,22,0
50.972046,51.03519,55,20,0
50.972046,51.03519,64,24,0
50.972046,51.03519,59,20,0
51.224617,51.29097,55,20,0
51.224617,51.29097,64,24,0
51.224617,51.29097,60,20,0
51.490032,51.553173,64,27,0
51.490032,51.553173,55,22,0
51.490032,51.553173,59,22,0
51.7426,51.80574,55,20,0
51.7426,51.80574,59,20,0
51.7426,51.80574,64,24,0
51.995167,52.061523,64,24,0
51.995167,52.061523,57,20,0
51.995167,52.061523,55,20,0
52.260586,52.323727,64,27,0
52.260586,52.323727,55,22,0
52.260586,52.323727,59,22,0
52.892006,52.974125,71,22,0
52.974125,53.06413,75,22,0
53.06413,53.132107,67,27,0
53.06413,53.132107,76,32,0
53.743908,53.830784,83,22,0
53.830784,53.925922,87,22,0
53.925922,54.021065,79,27,0
53.925922,54.021065,88,32,0
0.0,0.063142,64,34,0
0.0,0.063142,67,40,0
0.252568,0.31571,67,35,0
0.252568,0.31571,64,29,0
0.505136,0.5714901,60,25,0
0.505136,0.5714901,67,30,0
0.7705525,0.8348254,67,35,0
0.7705525,0.8348254,64,29,0
1.027644,1.0919169,64,26,0
1.027644,1.0919169,67,31,0
1.53509,1.595331,67,35,0
1.53509,1.595331,64,29,0
1.776054,1.836295,64,27,0
1.776054,1.836295,67,32,0
2.017018,2.077259,64,28,0
2.017018,2.077259,69,33,0
2.2583282,2.5050404,67,35,0
2.2583282,2.5050404,64,29,0
3.006949,3.070091,71,40,0
3.259517,3.322659,71,35,0
3.512085,3.578439,67,30,0
3.7775016,3.8417745,71,35,0
4.034593,4.098866,71,31,0
4.542039,4.6027727,66,35,0
4.7849736,4.845707,62,32,0
4.9064407,4.974051,64,39,0
5.0416613,5.102395,66,56,0
5.2849736,5.7663984,66,66,0
5.7663984,6.0458317,59,60,0
6.0458317,6.108974,67,40,0
6.0458317,6.108974,64,34,0
6.2984,6.3615417,64,29,0
6.2984,6.3615417,67,35,0
6.5509677,6.617322,60,25,0
6.5509677,6.617322,67,30,0
6.8163843,6.880657,67,35,0
6.8163843,6.880657,64,29,0
7.073476,7.1386933,64,26,0
7.073476,7.1386933,67,31,0
7.5846996,7.6447,67,35,0
7.5846996,7.6447,64,29,0
7.8247,7.8847,64,27,0
7.8247,7.8847,67,32,0
8.0647,8.1247,64,28,0
8.0647,8.1247,69,33,0
8.305086,8.551799,64,29,0
8.305086,8.551799,67,35,0
9.053037,9.1161785,71,40,0
9.305605,9.368747,71,35,0
9.558172,9.624527,67,30,0
9.823589,9.887862,71,35,0
10.080681,10.144954,71,31,0
10.588126,10.64861,66,35,0
10.830062,10.890546,62,32,0
10.95103,11.01864,64,39,0
11.08625,11.146984,66,56,0
11.329563,11.810987,66,66,0
11.810987,12.089517,59,60,0
12.089517,12.152658,47,88,0
12.342085,12.405227,47,76,0
12.594653,12.661007,42,66,0
12.860069,12.924342,47,76,0
13.117161,13.182378,47,67,0
13.628385,13.688626,61,34,0
13.628385,13.688626,52,28,0
13.869349,13.92959,61,34,0
13.869349,13.92959,52,28,0
14.114312,14.175046,54,28,0
14.114312,14.175046,61,34,0
14.357625,14.419005,55,28,0
14.357625,14.419005,61,34,0
14.601026,14.661068,55,29,0
14.601026,14.661068,61,35,0
15.1175785,15.18072,47,88,0
15.370147,15.433289,47,76,0
15.622715,15.689069,42,66,0
15.888131,15.952404,47,76,0
16.145224,16.209496,47,67,0
16.652668,16.713402,61,34,0
16.652668,16.713402,52,28,0
16.895603,16.956337,61,34,0
16.895603,16.956337,52,28,0
17.14117,17.201904,61,34,0
17.14117,17.201904,54,28,0
17.384483,17.445475,61,34,0
17.384483,17.445475,55,28,0
17.628445,17.689436,55,29,0
17.628445,17.689436,61,35,0
18.120121,18.181112,64,37,0
18.120121,18.181112,55,30,0
18.362585,18.422825,55,32,0
18.362585,18.422825,64,39,0
18.603548,18.66379,55,33,0
18.603548,18.66379,64,40,0
18.84648,18.906702,64,42,0
18.84648,18.906702,58,35,0
19.087366,19.147589,58,37,0
19.087366,19.147589,64,45,0
19.577505,19.638496,67,51,0
19.577505,19.638496,58,42,0
19.819967,19.880209,64,42,0
19.819967,19.880209,67,51,0
20.060932,20.121174,67,51,0
20.060932,20.121174,62,42,0
20.305382,20.365602,66,51,0
20.305382,20.365602,60,42,0
20.546267,20.60649,60,36,0
20.546267,20.60649,66,44,0
20.787153,20.848934,66,40,0
20.787153,20.848934,60,33,0
21.045933,21.107983,66,34,0
21.045933,21.107983,59,28,0
21.294134,21.356184,66,34,0
21.294134,21.356184,59,28,0
21.542334,21.604383,66,34,0
21.542334,21.604383,59,28,0
21.790535,21.853676,66,34,0
21.790535,21.853676,59,28,0
22.043102,22.106245,59,28,0
22.043102,22.106245,66,34,0
22.29567,22.358812,66,34,0
22.29567,22.358812,59,28,0
22.56926,22.632374,64,34,0
22.56926,22.632374,67,40,0
22.82172,22.884836,64,29,0
22.82172,22.884836,67,35,0
23.074183,23.140535,67,30,0
23.074183,23.140535,60,25,0
23.339598,23.403872,67,35,0
23.339598,23.403872,64,29,0
23.59669,23.661907,64,26,0
23.59669,23.661907,67,31,0
24.107914,24.167913,67,35,0
24.107914,24.167913,64,29,0
24.347914,24.407913,67,32,0
24.347914,24.407913,64,27,0
24.587914,24.647913,69,33,0
24.587914,24.647913,64,28,0
24.8283,25.075012,64,29,0
24.8283,25.075012,67,35,0
25.57625,25.639393,71,40,0
25.82882,25.89196,71,35,0
26.081387,26.147741,67,30,0
26.346804,26.411076,71,35,0
26.603895,26.668167,71,31,0
27.11134,27.171824,66,35,0
27.353275,27.41376,62,32,0
27.474243,27.541853,64,39,0
27.609465,27.670198,66,56,0
27.852777,28.334202,66,66,0
28.334202,28.61273,59,60,0
28.61273,28.675873,47,88,0
28.8653,28.92844,47,76,0
29.117867,29.184221,42,66,0
29.383284,29.447556,47,76,0
29.640375,29.705591,47,67,0
30.151598,30.21184,61,34,0
30.151598,30.21184,52,28,0
30.392563,30.452805,52,28,0
30.392563,30.452805,61,34,0
30.637526,30.69826,61,34,0
30.637526,30.69826,54,28,0
30.880838,30.942219,55,28,0
30.880838,30.942219,61,34,0
31.124239,31.184282,55,29,0
31.124239,31.184282,61,35,0
31.640793,31.703934,47,88,0
31.89336,31.956503,47,76,0
32.145927,32.212284,42,66,0
32.411346,32.475616,47,76,0
32.668438,32.732708,47,67,0
33.175884,33.236618,61,34,0
33.175884,33.236618,52,28,0
33.418816,33.47955,61,34,0
33.418816,33.47955,52,28,0
33.664383,33.725117,61,34,0
33.664383,33.725117,54,28,0
33.907696,33.96869,61,34,0
33.907696,33.96869,55,28,0
34.15166,34.21265,61,35,0
34.15166,34.21265,55,29,0
34.643337,34.704327,55,30,0
34.643337,34.704327,64,37,0
34.8858,34.94604,64,39,0
34.8858,34.94604,55,32,0
35.126762,35.187004,64,40,0
35.126762,35.187004,55,33,0
35.369694,35.429916,58,35,0
35.369694,35.429916,64,42,0
35.61058,35.670803,58,37,0
35.61058,35.670803,64,45,0
36.10072,36.16171,58,42,0
36.10072,36.16171,67,51,0
36.34318,36.403423,67,51,0
36.34318,36.403423,64,42,0
36.584145,36.644386,62,42,0
36.584145,36.644386,67,51,0
36.828594,36.888817,66,51,0
36.828594,36.888817,60,42,0
37.06948,37.129704,60,36,0
37.06948,37.129704,66,44,0
37.310368,37.372147,60,33,0
37.310368,37.372147,66,40,0
37.569145,37.6312,59,28,0
37.569145,37.6312,66,34,0
37.81735,37.8794,59,28,0
37.81735,37.8794,66,34,0
38.065548,38.127598,59,28,0
38.065548,38.127598,66,34,0
38.313747,38.376892,66,34,0
38.313747,38.376892,59,28,0
38.566315,38.62946,59,28,0
38.566315,38.62946,66,34,0
38.818886,38.882027,66,34,0
38.818886,38.882027,59,28,0
39.104183,39.1673,64,34,0
39.104183,39.1673,67,40,0
39.356647,39.41976,67,35,0
39.356647,39.41976,64,29,0
39.609108,39.67546,60,25,0
39.609108,39.67546,67,30,0
39.874523,39.938797,64,29,0
39.874523,39.938797,67,35,0
40.131615,40.19589,64,26,0
40.131615,40.19589,67,31,0
40.63906,40.699303,67,35,0
40.63906,40.699303,64,29,0
40.880024,40.940266,67,32,0
40.880024,40.940266,64,27,0
41.12099,41.181232,69,33,0
41.12099,41.181232,64,28,0
41.3623,41.609013,64,29,0
41.3623,41.609013,67,35,0
42.11092,42.17406,71,40,0
42.363487,42.426632,71,35,0
42.61606,42.68241,67,30,0
42.881474,42.945747,71,35,0
43.138565,43.20284,71,31,0
43.64601,43.706745,66,35,0
43.888947,43.94968,62,32,0
44.010414,44.078022,64,39,0
44.145634,44.206367,66,56,0
44.388947,44.87037,66,66,0
44.87037,45.149803,59,60,0
45.149803,45.212944,67,40,0
45.149803,45.212944,64,34,0
45.40237,45.465515,67,35,0
45.40237,45.465515,64,29,0
45.654938,45.721294,67,30,0
45.654938,45.721294,60,25,0
45.920357,45.98463,67,35,0
45.920357,45.98463,64,29,0
46.17745,46.242664,64,26,0
46.17745,46.242664,67,31,0
46.68867,46.748672,67,35,0
46.68867,46.748672,64,29,0
46.928673,46.98867,67,32,0
46.928673,46.98867,64,27,0
47.16867,47.228672,69,33,0
47.16867,47.228672,64,28,0
47.409058,47.65577,67,35,0
47.409058,47.65577,64,29,0
48.15701,48.40372,60,26,0
48.15701,48.40372,64,31,0
48.901875,49.15922,60,31,0
48.901875,49.15922,57,26,0
49.703453,49.996944,57,29,0
49.703453,49.996944,47,21,0
49.703453,49.996944,54,24,0
50.71948,50.78262,52,22,0
50.71948,50.78262,47,18,0
50.71948,50.78262,40,18,0
50.972046,51.03519,52,19,0
50.972046,51.03519,40,16,0
50.972046,51.03519,47,16,0
51.224617,51.29097,40,13,0
51.224617,51.29097,45,13,0
51.224617,51.29097,52,16,0
51.490032,51.553173,47,18,0
51.490032,51.553173,52,22,0
51.490032,51.553173,40,18,0
51.7426,51.80574,52,19,0
51.7426,51.80574,47,16,0
51.7426,51.80574,40,16,0
51.995167,52.061523,48,13,0
51.995167,52.061523,40,13,0
51.995167,52.061523,52,16,0
52.260586,52.323727,47,18,0
52.260586,52.323727,40,18,0
52.260586,52.323727,52,22,0
53.06413,53.132107,59,27,0
53.06413,53.132107,52,22,0
53.925922,54.021065,64,22,0
53.925922,54.021065,71,27,0
