start_time,end_time,note_value,velocity,instrument_program_number
1.780416,2.732797,71,39,0
2.732797,3.6752574,64,42,0
3.4470828,3.685178,66,36,0
3.685178,4.3994637,67,43,0
4.3994637,4.637559,66,29,0
4.3994637,4.637559,69,37,0
4.637559,5.351845,71,45,0
5.351845,5.58994,76,37,0
4.637559,5.58994,67,36,0
5.58994,6.304226,79,45,0
6.304226,6.542321,78,37,0
5.58994,6.542321,72,36,0
6.542321,7.2566066,74,50,0
7.2566066,7.494702,72,43,0
6.542321,7.494702,66,40,0
7.494702,8.208988,76,54,0
8.208988,8.484217,74,46,0
7.494702,8.484217,69,43,0
8.484217,10.050365,71,40,0
10.050365,10.554567,72,36,0
8.484217,10.554567,63,32,0
10.554567,11.286275,69,43,0
11.286275,11.530177,71,36,0
10.554567,11.530177,65,34,0
11.530177,12.261885,67,45,0
12.261885,12.505787,69,39,0
11.530177,12.505787,64,36,0
12.505787,13.28165,66,45,0
13.28165,13.54027,67,36,0
12.505787,13.54027,62,36,0
13.54027,14.316133,64,43,0
14.316133,14.601847,66,35,0
13.54027,14.601847,60,34,0
14.601847,15.63633,59,32,0
14.601847,15.63633,63,41,0
15.63633,17.154684,55,28,0
15.63633,17.154684,59,28,0
15.63633,17.154684,64,36,0
17.638554,18.606297,71,39,0
17.638554,18.606297,63,31,0
18.606297,19.320581,64,42,0
19.320581,19.558678,66,36,0
18.545813,19.558678,60,38,0
19.558678,20.272963,67,43,0
19.558678,20.272963,64,36,0
20.272963,20.511059,66,29,0
20.272963,20.511059,69,37,0
20.511059,21.225344,71,45,0
21.225344,21.46344,76,37,0
20.511059,21.46344,67,36,0
21.46344,22.177725,79,45,0
22.177725,22.415821,78,37,0
21.46344,22.415821,69,36,0
22.415821,23.130106,74,50,0
23.130106,23.368202,72,43,0
22.415821,23.368202,66,40,0
23.368202,24.082487,76,54,0
24.082487,24.350344,74,46,0
23.368202,24.350344,67,43,0
24.350344,25.413624,66,32,0
24.350344,25.949339,71,40,0
25.949339,26.485052,72,27,0
25.413624,26.485052,65,32,0
26.485052,26.957493,60,25,0
26.485052,27.209595,69,32,0
27.209595,27.461695,71,27,0
26.957493,27.461695,62,18,0
27.461695,28.21037,67,33,0
28.21037,28.47124,69,29,0
27.461695,28.47124,64,27,0
28.47124,28.959044,57,27,0
28.47124,29.222202,66,33,0
29.222202,29.48536,67,27,0
28.959044,29.48536,59,20,0
29.48536,30.241663,64,32,0
30.241663,30.538692,66,26,0
29.48536,30.538692,60,25,0
30.538692,31.72681,59,24,0
30.538692,31.72681,63,30,0
31.72681,34.10305,55,21,0
31.72681,34.10305,59,21,0
31.72681,34.10305,64,27,0
34.10305,35.04055,66,58,0
34.10305,35.04055,62,58,0
35.04055,35.707214,67,63,0
35.707214,35.92944,69,54,0
35.04055,35.92944,62,43,0
35.92944,36.373882,71,64,0
36.373882,36.81833,67,55,0
35.92944,36.81833,64,43,0
36.81833,37.24386,71,67,0
36.76277,37.24386,66,54,0
37.24386,37.688305,69,55,0
37.24386,37.688305,64,55,0
37.688305,38.11423,62,54,0
37.688305,38.132748,69,67,0
38.132748,38.577194,62,55,0
38.577194,39.24386,72,63,0
39.24386,39.46608,74,56,0
38.577194,39.46608,64,43,0
39.46608,39.910526,76,68,0
39.910526,40.35497,72,61,0
39.46608,40.35497,66,46,0
40.299416,41.30735,67,61,0
40.35497,41.783543,74,77,0
41.783543,42.334137,74,77,0
41.30735,42.334137,69,62,0
42.334137,43.000805,76,72,0
43.000805,43.223026,78,62,0
42.334137,43.223026,71,49,0
43.223026,43.66747,74,73,0
43.66747,44.111916,71,63,0
43.223026,44.111916,69,49,0
44.111916,44.778584,72,70,0
44.778584,45.000805,74,56,0
44.111916,45.000805,67,59,0
45.000805,45.445248,71,68,0
45.445248,45.889694,67,57,0
45.000805,45.889694,66,57,0
45.889694,46.834576,69,69,0
45.889694,46.834576,64,58,0
46.834576,48.952442,71,57,0
46.77552,48.952442,63,48,0
48.952442,50.272385,63,39,0
48.952442,50.272385,71,46,0
50.272385,51.041615,64,42,0
51.041615,51.298027,66,36,0
50.272385,51.298027,59,36,0
51.298027,52.01231,67,43,0
52.01231,52.250404,69,37,0
51.298027,52.250404,64,29,0
51.298027,52.250404,59,29,0
52.250404,52.96469,71,45,0
52.96469,53.202785,76,37,0
52.250404,53.202785,67,36,0
52.250404,53.202785,64,36,0
53.202785,53.917072,79,45,0
53.917072,54.155167,78,37,0
53.202785,54.155167,72,36,0
53.202785,54.155167,64,36,0
54.155167,54.85829,74,50,0
54.85829,55.092667,72,43,0
54.155167,55.092667,66,40,0
54.155167,55.092667,71,40,0
55.092667,55.79579,76,54,0
55.79579,56.071022,74,46,0
55.092667,56.071022,69,43,0
55.092667,56.071022,60,43,0
56.071022,57.142452,59,43,0
56.071022,57.646652,71,40,0
57.646652,58.150856,72,36,0
57.142452,58.150856,57,43,0
56.071022,58.150856,63,32,0
58.150856,58.88256,69,32,0
58.88256,59.126465,71,27,0
58.150856,59.126465,65,25,0
58.150856,59.126465,60,25,0
59.126465,59.858173,67,33,0
59.858173,60.102074,69,29,0
59.126465,60.102074,64,27,0
59.126465,60.102074,59,27,0
60.102074,60.877937,66,33,0
60.877937,61.13656,67,27,0
60.102074,61.13656,62,27,0
60.102074,61.13656,57,27,0
61.13656,61.91242,64,32,0
61.91242,62.198135,66,26,0
61.13656,62.198135,60,25,0
61.13656,62.198135,55,25,0
62.198135,63.289043,59,24,0
62.198135,63.289043,63,30,0
62.198135,63.289043,54,24,0
63.289043,65.47086,55,21,0
63.289043,65.47086,59,21,0
63.289043,65.47086,64,27,0
65.47086,66.40836,66,58,0
65.47086,66.40836,62,58,0
66.40836,67.07503,67,63,0
67.07503,67.29725,69,54,0
66.40836,67.29725,62,43,0
67.29725,67.74169,71,64,0
67.74169,68.18614,67,55,0
67.29725,68.18614,64,43,0
68.18614,68.61167,71,67,0
68.130585,68.61167,66,54,0
68.61167,69.056114,69,55,0
68.61167,69.056114,64,55,0
69.056114,69.48204,62,54,0
69.056114,69.50056,69,67,0
69.50056,69.94501,62,55,0
69.94501,70.61167,72,63,0
70.61167,70.83389,74,56,0
69.94501,70.83389,64,43,0
70.83389,71.278336,76,68,0
71.278336,71.722786,72,61,0
70.83389,71.722786,66,46,0
71.66723,72.67516,67,61,0
71.722786,73.15135,74,77,0
73.15135,73.70195,74,77,0
72.67516,73.70195,69,62,0
73.70195,74.368614,76,72,0
74.368614,74.590836,78,62,0
73.70195,74.590836,71,49,0
74.590836,75.035286,74,73,0
75.035286,75.47973,71,63,0
74.590836,75.47973,69,49,0
75.47973,76.14639,72,70,0
76.14639,76.368614,74,56,0
75.47973,76.368614,67,59,0
76.368614,76.81306,71,68,0
76.81306,77.25751,67,57,0
76.368614,77.25751,66,57,0
77.25751,78.202385,69,69,0
77.25751,78.202385,64,58,0
78.202385,80.32025,71,57,0
78.14333,80.32025,63,48,0
80.32025,81.6402,63,39,0
80.32025,81.6402,71,46,0
81.6402,82.409424,64,42,0
82.409424,82.66584,66,36,0
81.6402,82.66584,59,36,0
82.66584,83.38012,67,43,0
83.38012,83.61822,69,37,0
82.66584,83.61822,64,29,0
82.66584,83.61822,59,29,0
83.61822,84.332504,71,45,0
84.332504,84.5706,76,37,0
83.61822,84.5706,67,36,0
83.61822,84.5706,64,36,0
84.5706,85.28488,79,45,0
85.28488,85.52298,78,37,0
84.5706,85.52298,72,36,0
84.5706,85.52298,64,36,0
85.52298,86.226105,74,50,0
86.226105,86.46048,72,43,0
85.52298,86.46048,66,40,0
85.52298,86.46048,71,40,0
86.46048,87.163605,76,54,0
87.163605,87.438835,74,46,0
86.46048,87.438835,69,43,0
86.46048,87.438835,60,43,0
87.438835,88.51026,59,43,0
87.438835,89.014465,71,40,0
89.014465,89.51867,72,36,0
88.51026,89.51867,57,43,0
87.438835,89.51867,63,32,0
89.51867,90.250374,69,32,0
90.250374,90.49428,71,27,0
89.51867,90.49428,65,25,0
89.51867,90.49428,60,25,0
90.49428,91.22598,67,33,0
91.22598,91.46989,69,29,0
90.49428,91.46989,64,27,0
90.49428,91.46989,59,27,0
91.46989,92.24575,66,33,0
92.24575,92.50437,67,27,0
91.46989,92.50437,62,27,0
91.46989,92.50437,57,27,0
92.50437,93.280235,64,32,0
93.280235,93.56595,66,26,0
92.50437,93.56595,60,25,0
92.50437,93.56595,55,25,0
94.65685,95.747765,59,18,0
94.65685,95.747765,63,22,0
94.65685,95.747765,54,18,0
99.76846,99.89981,68,34,0
99.89981,100.03116,71,28,0
99.76846,100.03116,64,30,0
100.03116,100.16052,68,33,0
100.16052,100.28989,71,25,0
100.03116,100.28989,64,29,0
100.28989,100.416794,73,43,0
100.416794,100.54369,69,25,0
100.54369,100.6706,73,36,0
100.6706,100.7975,69,25,0
100.54369,100.7975,61,32,0
100.7975,100.86603,66,36,0
100.7975,100.86603,61,32,0
101.333725,101.46478,66,34,0
101.46478,101.59585,69,28,0
101.333725,101.59585,61,30,0
101.59585,101.729836,66,33,0
101.729836,101.86382,69,25,0
101.59585,101.86382,61,29,0
102.15105,102.225525,68,30,0
102.15105,102.225525,63,30,0
102.44896,102.52344,68,30,0
102.44896,102.52344,63,30,0
101.86382,102.74687,71,42,0
103.00957,103.14092,64,34,0
103.14092,103.27227,68,28,0
103.00957,103.27227,63,30,0
103.27227,103.40136,64,33,0
103.40136,103.53044,68,25,0
103.27227,103.53044,63,29,0
103.53044,103.65735,69,46,0
103.65735,103.78425,66,25,0
103.78425,103.911156,69,36,0
103.911156,104.038055,66,25,0
103.78425,104.038055,57,32,0
104.038055,104.10935,61,36,0
104.038055,104.10935,57,32,0
104.58535,104.716415,59,34,0
104.716415,104.84747,63,28,0
104.58535,104.84747,54,30,0
104.84747,104.98146,59,33,0
104.98146,105.115456,63,25,0
104.84747,105.115456,54,29,0
105.40405,105.478905,59,30,0
105.40405,105.478905,56,30,0
105.70345,105.778305,59,30,0
105.70345,105.778305,56,30,0
105.115456,106.00285,64,42,0
106.26555,106.3969,63,39,0
106.3969,106.52825,66,32,0
106.26555,106.52825,59,30,0
106.52825,106.657616,63,37,0
106.65007,106.779434,66,28,0
106.52825,106.78698,59,29,0
106.78698,106.91389,68,49,0
106.91389,107.04079,64,28,0
107.04079,107.167694,68,41,0
107.167694,107.29459,64,28,0
107.04079,107.29459,56,32,0
107.29459,107.36312,61,41,0
107.29459,107.36312,56,32,0
107.83082,107.961876,61,39,0
107.961876,108.09294,64,32,0
107.83082,108.09294,56,30,0
108.09294,108.22693,61,37,0
108.22693,108.360916,64,28,0
108.09294,108.360916,56,29,0
108.647446,108.72066,63,30,0
108.647446,108.72066,58,30,0
108.94028,109.01348,63,30,0
108.94028,109.01348,58,30,0
108.360916,109.2331,66,48,0
109.4958,109.627144,59,39,0
109.627144,109.75849,63,32,0
109.4958,109.75849,58,30,0
109.75849,109.88786,59,37,0
109.88786,110.01723,63,28,0
109.75849,110.01723,58,29,0
110.01723,110.14413,64,49,0
110.14413,110.271034,61,28,0
110.271034,110.397934,64,41,0
110.397934,110.52484,61,28,0
110.271034,110.52484,52,32,0
110.52484,110.59563,56,41,0
110.52484,110.59563,52,32,0
111.070114,111.20118,54,39,0
111.20118,111.33224,58,32,0
111.070114,111.33224,49,30,0
111.33224,111.466225,54,37,0
111.466225,111.60021,58,28,0
111.33224,111.60021,49,29,0
111.89021,111.96562,54,30,0
111.89021,111.96562,51,30,0
112.19187,112.26766,54,30,0
112.19187,112.26766,51,30,0
111.60021,112.49505,59,48,0
112.75775,112.8891,78,30,0
112.8891,113.02045,82,25,0
112.75775,113.02045,75,30,0
113.02045,113.14981,78,29,0
113.14981,113.279175,82,22,0
113.02045,113.279175,75,29,0
113.279175,113.40608,84,38,0
113.40608,113.53298,80,22,0
113.53298,113.65989,84,32,0
113.65989,113.78679,80,22,0
113.53298,113.78679,72,32,0
113.78679,113.855316,75,32,0
113.78679,113.855316,72,32,0
114.32301,114.45407,78,30,0
114.45407,114.58514,82,25,0
114.32301,114.58514,75,30,0
114.58514,114.719124,78,29,0
114.719124,114.85311,82,22,0
114.58514,114.85311,75,29,0
115.140335,115.21481,74,30,0
115.140335,115.21481,70,30,0
115.43825,115.512726,74,30,0
115.43825,115.512726,70,30,0
114.85311,115.73616,77,37,0
115.998856,116.13021,85,33,0
116.13021,116.26156,89,27,0
115.998856,116.26156,82,33,0
116.26156,116.39064,85,31,0
116.39064,116.51973,89,24,0
116.26156,116.51973,82,31,0
116.51973,116.64664,91,44,0
116.64664,116.77354,87,24,0
116.77354,116.900444,91,35,0
116.900444,117.02734,87,24,0
116.77354,117.02734,79,35,0
117.02734,117.09864,82,35,0
117.02734,117.09864,79,35,0
117.57464,117.7057,85,33,0
117.7057,117.83676,89,27,0
117.57464,117.83676,82,33,0
117.83676,117.97075,85,31,0
117.97075,118.10474,89,24,0
117.83676,118.10474,82,31,0
118.39334,118.46819,81,33,0
118.39334,118.46819,77,33,0
118.69274,118.76759,81,33,0
118.69274,118.76759,77,33,0
118.10474,118.99214,84,40,0
119.25484,119.386185,68,30,0
119.386185,119.51753,72,25,0
119.25484,119.51753,65,30,0
119.51753,119.646904,68,29,0
119.646904,119.77627,72,22,0
119.51753,119.77627,65,29,0
119.77627,119.90317,74,38,0
119.90317,120.030075,70,22,0
120.030075,120.156975,74,32,0
120.156975,120.28388,70,22,0
120.030075,120.28388,62,32,0
120.28388,120.35241,65,32,0
120.28388,120.35241,62,32,0
120.82011,120.951164,68,30,0
120.951164,121.08223,72,25,0
120.82011,121.08223,65,30,0
121.08223,121.21622,68,29,0
121.21622,121.350204,72,22,0
121.08223,121.350204,65,29,0
121.63742,121.7119,64,30,0
121.63742,121.7119,60,30,0
121.93533,122.00982,64,30,0
121.93533,122.00982,60,30,0
121.350204,122.23325,67,37,0
122.49595,122.6273,75,41,0
122.6273,122.758644,79,35,0
122.49595,122.758644,72,41,0
122.758644,122.88773,75,40,0
122.88773,123.01682,79,31,0
122.758644,123.01682,72,40,0
123.01682,123.14372,81,59,0
123.14372,123.27063,77,32,0
123.27063,123.39753,81,48,0
123.39753,123.52444,77,33,0
123.27063,123.52444,69,48,0
123.52444,123.595726,72,49,0
123.52444,123.595726,69,49,0
124.0723,124.20365,87,53,0
124.20365,124.335,91,43,0
124.0723,124.335,84,53,0
124.335,124.46409,87,51,0
124.46409,124.59318,91,38,0
124.335,124.59318,84,51,0
124.59318,124.72008,93,74,0
124.72008,124.846985,89,39,0
124.846985,124.973885,93,59,0
124.973885,125.10079,89,40,0
124.846985,125.10079,81,59,0
125.10079,125.17208,84,61,0
125.10079,125.17208,81,61,0
125.38596,125.513084,75,63,0
125.513084,125.64021,79,70,0
125.38596,125.64021,72,53,0
125.64021,126.20896,81,71,0
125.64021,126.20896,77,71,0
125.64021,126.20896,72,60,0
126.20896,126.33608,87,72,0
126.33608,126.4632,91,80,0
126.20896,126.4632,84,61,0
126.4632,127.03195,93,81,0
126.4632,127.03195,89,81,0
126.4632,127.03195,84,68,0
127.03195,127.15908,75,70,0
127.15908,127.2862,79,76,0
127.03195,127.2862,72,58,0
127.2862,127.85495,81,77,0
127.2862,127.85495,77,77,0
127.2862,127.85495,72,65,0
127.85495,127.98207,87,78,0
127.98207,128.10919,91,87,0
127.85495,128.10919,84,66,0
128.10919,128.6726,93,88,0
128.10919,128.6726,89,88,0
128.10919,128.6726,84,75,0
128.67795,129.21709,81,85,0
128.67795,129.21709,77,85,0
128.67795,129.21709,72,85,0
129.22218,129.78163,93,88,0
129.22218,129.78163,89,88,0
129.22218,129.78163,84,88,0
129.78693,130.32484,81,85,0
129.78693,130.32484,77,85,0
129.78693,130.32484,72,85,0
130.32993,130.88806,93,88,0
130.32993,130.88806,89,88,0
130.32993,130.88806,84,88,0
130.89334,131.4337,81,85,0
130.89334,131.4337,77,85,0
130.89334,131.4337,72,85,0
131.43881,132.04074,93,88,0
131.43881,132.04074,89,88,0
131.43881,132.04074,84,88,0
132.04645,132.60457,83,92,0
132.04645,132.60457,78,92,0
132.04645,132.60457,71,92,0
132.60985,133.18416,95,97,0
132.60985,133.18416,90,97,0
132.60985,133.18416,83,97,0
133.18959,133.75433,83,92,0
133.18959,133.75433,78,92,0
133.18959,133.75433,71,92,0
133.75969,134.33958,95,97,0
133.75969,134.33958,90,97,0
133.75969,134.33958,83,97,0
134.34508,134.97995,83,92,0
134.34508,134.97995,78,92,0
134.34508,134.97995,71,92,0
134.98598,135.54541,95,97,0
134.98598,135.54541,90,97,0
134.98598,135.54541,83,97,0
135.8134,135.94475,80,92,0
135.94475,136.0761,83,76,0
135.8134,136.0761,76,76,0
136.0761,136.20547,80,90,0
136.20547,136.33484,83,76,0
136.0761,136.33484,76,75,0
136.33484,136.46173,85,92,0
136.46173,136.58864,81,77,0
136.58864,136.71936,85,75,0
136.71936,136.8501,81,72,0
136.58864,136.8501,73,55,0
136.8501,136.91861,78,80,0
136.8501,136.91861,73,71,0
137.38689,137.51823,78,87,0
137.51823,137.64958,81,76,0
137.38689,137.64958,73,87,0
137.64958,137.77895,78,86,0
137.77895,137.90831,81,75,0
137.64958,137.90831,73,86,0
138.17738,138.25128,75,72,0
138.17738,138.25128,80,72,0
138.47296,138.54741,80,72,0
138.47296,138.54741,75,72,0
137.90831,138.77075,83,88,0
139.03345,139.1648,76,75,0
139.1648,139.29614,80,63,0
139.03345,139.29614,75,75,0
139.29614,139.4255,76,74,0
139.4255,139.55487,80,63,0
139.29614,139.55487,75,74,0
139.55487,139.68178,81,73,0
139.68178,139.80869,78,63,0
139.80869,139.9394,81,65,0
139.9394,140.07013,78,58,0
139.80869,140.07013,69,62,0
140.07013,140.13866,73,65,0
140.07013,140.13866,69,65,0
140.60692,140.73827,71,63,0
140.73827,140.86963,75,53,0
140.60692,140.86963,66,53,0
140.86963,140.999,71,63,0
140.999,141.12836,75,53,0
140.86963,141.12836,66,52,0
141.40744,141.48398,68,47,0
141.40744,141.48398,71,47,0
141.71358,141.7903,71,45,0
141.71358,141.7903,68,45,0
141.12836,142.0205,76,65,0
142.28319,142.41454,63,39,0
142.41454,142.54588,66,32,0
142.28319,142.54588,59,30,0
142.54588,142.67526,63,37,0
142.67526,142.80463,66,28,0
142.54588,142.80463,59,29,0
142.80463,142.93152,68,49,0
142.93152,143.05843,64,28,0
143.05843,143.18533,68,41,0
143.18533,143.31224,64,28,0
143.05843,143.31224,56,32,0
143.31224,143.38077,61,41,0
143.31224,143.38077,56,32,0
143.84845,143.97952,61,39,0
143.97952,144.11058,64,32,0
143.84845,144.11058,56,30,0
144.11058,144.24457,61,37,0
144.24457,144.37856,64,28,0
144.11058,144.37856,56,29,0
144.66508,144.7383,63,30,0
144.66508,144.7383,58,30,0
144.95792,145.03113,63,30,0
144.95792,145.03113,58,30,0
144.37856,145.25075,66,48,0
145.51344,145.64479,59,39,0
145.64479,145.77614,63,32,0
145.51344,145.77614,58,30,0
145.77614,145.9055,59,37,0
145.9055,146.03487,63,28,0
145.77614,146.03487,58,29,0
146.03487,146.16177,64,49,0
146.16177,146.28868,61,28,0
146.28868,146.41557,64,41,0
146.41557,146.54248,61,28,0
146.28868,146.54248,52,32,0
146.54248,146.61327,56,41,0
146.54248,146.61327,52,32,0
147.08775,147.21881,54,39,0
147.21881,147.34988,58,32,0
147.08775,147.34988,49,30,0
147.34988,147.48387,54,37,0
147.48387,147.61786,58,28,0
147.34988,147.61786,49,29,0
147.90785,147.98326,54,30,0
147.90785,147.98326,51,30,0
148.20952,148.28531,54,30,0
148.20952,148.28531,51,30,0
147.61786,148.5127,59,48,0
148.77539,148.90674,78,30,0
148.90674,149.03809,82,25,0
148.77539,149.03809,75,30,0
149.03809,149.16745,78,29,0
149.16745,149.29681,82,22,0
149.03809,149.29681,75,29,0
149.29681,149.42372,84,38,0
149.42372,149.55063,80,22,0
149.55063,149.67754,84,32,0
149.67754,149.80443,80,22,0
149.55063,149.80443,72,32,0
149.80443,149.87296,75,32,0
149.80443,149.87296,72,32,0
150.34065,150.47171,78,30,0
150.47171,150.60278,82,25,0
150.34065,150.60278,75,30,0
150.60278,150.73677,78,29,0
150.73677,150.87076,82,22,0
150.60278,150.87076,75,29,0
151.15797,151.23245,74,30,0
151.15797,151.23245,70,30,0
151.45589,151.53036,74,30,0
151.45589,151.53036,70,30,0
150.87076,151.7538,77,37,0
152.0165,152.14784,85,33,0
152.14784,152.2792,89,27,0
152.0165,152.2792,82,33,0
152.2792,152.40828,85,31,0
152.40828,152.53737,89,24,0
152.2792,152.53737,82,31,0
152.53737,152.66428,91,44,0
152.66428,152.79118,87,24,0
152.79118,152.91809,91,35,0
152.91809,153.04498,87,24,0
152.79118,153.04498,79,35,0
153.04498,153.11629,82,35,0
153.04498,153.11629,79,35,0
153.59229,153.72334,85,33,0
153.72334,153.8544,89,27,0
153.59229,153.8544,82,33,0
153.8544,153.98839,85,31,0
153.98839,154.12238,89,24,0
153.8544,154.12238,82,31,0
154.41098,154.48584,81,33,0
154.41098,154.48584,77,33,0
154.71039,154.78523,81,33,0
154.71039,154.78523,77,33,0
154.12238,155.00978,84,40,0
155.27248,155.40382,68,30,0
155.40382,155.53517,72,25,0
155.27248,155.53517,65,30,0
155.53517,155.66455,68,29,0
155.66455,155.79391,72,22,0
155.53517,155.79391,65,29,0
155.79391,155.9208,74,38,0
155.9208,156.04771,70,22,0
156.04771,156.17462,74,32,0
156.17462,156.30153,70,22,0
156.04771,156.30153,62,32,0
156.30153,156.37004,65,32,0
156.30153,156.37004,62,32,0
156.83774,156.96881,68,30,0
156.96881,157.09987,72,25,0
156.83774,157.09987,65,30,0
157.09987,157.23386,68,29,0
157.23386,157.36784,72,22,0
157.09987,157.36784,65,29,0
157.65506,157.72954,64,30,0
157.65506,157.72954,60,30,0
157.95297,158.02745,64,30,0
157.95297,158.02745,60,30,0
157.36784,158.2509,67,37,0
158.5136,158.64494,75,41,0
158.64494,158.77629,79,35,0
158.5136,158.77629,72,41,0
158.77629,158.90538,75,40,0
158.90538,159.03447,79,31,0
158.77629,159.03447,72,40,0
159.03447,159.16136,81,59,0
159.16136,159.28827,77,32,0
159.28827,159.41518,81,48,0
159.41518,159.54208,77,33,0
159.28827,159.54208,69,48,0
159.54208,159.61337,72,49,0
159.54208,159.61337,69,49,0
160.08995,160.2213,87,53,0
160.2213,160.35265,91,43,0
160.08995,160.35265,84,53,0
160.35265,160.48174,87,51,0
160.48174,160.61082,91,38,0
160.35265,160.61082,84,51,0
160.61082,160.73772,93,74,0
160.73772,160.86462,89,39,0
160.86462,160.99153,93,59,0
160.99153,161.11844,89,40,0
160.86462,161.11844,81,59,0
161.11844,161.18973,84,61,0
161.11844,161.18973,81,61,0
161.40361,161.53073,75,63,0
161.53073,161.65785,79,70,0
161.40361,161.65785,72,53,0
161.65785,162.2266,81,71,0
161.65785,162.2266,77,71,0
161.65785,162.2266,72,60,0
162.2266,162.35373,87,72,0
162.35373,162.48085,91,80,0
162.2266,162.48085,84,61,0
162.48085,163.04959,93,81,0
162.48085,163.04959,89,81,0
162.48085,163.04959,84,68,0
163.04959,163.17673,75,70,0
163.17673,163.30385,79,76,0
163.04959,163.30385,72,58,0
163.30385,163.87259,81,77,0
163.30385,163.87259,77,77,0
163.30385,163.87259,72,65,0
163.87259,163.99971,87,78,0
163.99971,164.12685,91,87,0
163.87259,164.12685,84,66,0
164.12685,164.69026,93,88,0
164.12685,164.69026,89,88,0
164.12685,164.69026,84,75,0
164.69559,165.23473,81,85,0
164.69559,165.23473,77,85,0
164.69559,165.23473,72,85,0
165.23982,165.79927,93,88,0
165.23982,165.79927,89,88,0
165.23982,165.79927,84,88,0
165.80457,166.34248,81,85,0
165.80457,166.34248,77,85,0
165.80457,166.34248,72,85,0
166.34756,166.9057,93,88,0
166.34756,166.9057,89,88,0
166.34756,166.9057,84,88,0
166.91098,167.45134,81,85,0
166.91098,167.45134,77,85,0
166.91098,167.45134,72,85,0
167.45645,168.05838,93,88,0
167.45645,168.05838,89,88,0
167.45645,168.05838,84,88,0
168.06409,168.62221,83,92,0
168.06409,168.62221,78,92,0
168.06409,168.62221,71,92,0
168.62749,169.2018,95,97,0
168.62749,169.2018,90,97,0
168.62749,169.2018,83,97,0
169.20723,169.77199,83,92,0
169.20723,169.77199,78,92,0
169.20723,169.77199,71,92,0
169.77733,170.35724,95,97,0
169.77733,170.35724,90,97,0
169.77733,170.35724,83,97,0
170.36272,170.99759,83,92,0
170.36272,170.99759,78,92,0
170.36272,170.99759,71,92,0
171.00362,171.56305,95,97,0
171.00362,171.56305,90,97,0
171.00362,171.56305,83,97,0
171.83105,171.9624,80,92,0
171.9624,172.09375,83,76,0
171.83105,172.09375,76,76,0
172.09375,172.22311,80,90,0
172.22311,172.35248,83,76,0
172.09375,172.35248,76,75,0
172.35248,172.47939,85,92,0
172.47939,172.60628,81,77,0
172.60628,172.73701,85,75,0
172.73701,172.86774,81,72,0
172.60628,172.86774,73,55,0
172.86774,172.93626,78,80,0
172.86774,172.93626,73,71,0
173.40453,173.53587,78,87,0
173.53587,173.66722,81,76,0
173.40453,173.66722,73,87,0
173.66722,173.79659,78,86,0
173.79659,173.92596,81,75,0
173.66722,173.92596,73,86,0
174.19502,174.26892,75,72,0
174.19502,174.26892,80,72,0
174.4906,174.56505,80,72,0
174.4906,174.56505,75,72,0
173.92596,174.78839,83,88,0
175.05109,175.18243,76,75,0
175.18243,175.31378,80,63,0
175.05109,175.31378,75,75,0
175.31378,175.44315,76,74,0
175.44315,175.57251,80,63,0
175.31378,175.57251,75,74,0
175.57251,175.69942,81,73,0
175.69942,175.82632,78,63,0
175.82632,175.95705,81,64,0
175.95705,176.08777,78,58,0
175.82632,176.08777,69,62,0
176.08777,176.1563,73,65,0
176.08777,176.1563,69,65,0
176.62457,176.75592,71,63,0
176.75592,176.88727,75,53,0
176.62457,176.88727,66,53,0
176.88727,177.01663,71,63,0
177.01663,177.146,75,53,0
176.88727,177.146,66,52,0
177.42508,177.50162,68,47,0
177.42508,177.50162,71,47,0
177.73122,177.80795,71,45,0
177.73122,177.80795,68,45,0
177.146,178.03813,76,65,0
179.2216,179.35295,59,37,0
179.35295,179.4843,63,31,0
179.2216,179.4843,54,31,0
179.4843,179.61366,59,37,0
179.61366,179.74303,63,31,0
179.4843,179.74303,54,30,0
180.02211,180.09865,56,26,0
180.02211,180.09865,59,26,0
180.32825,180.40498,59,25,0
180.32825,180.40498,56,25,0
179.74303,180.63516,64,38,0
181.81863,181.94998,59,31,0
181.94998,182.08133,63,26,0
181.81863,182.08133,54,26,0
182.08133,182.2107,59,31,0
182.2107,182.34006,63,26,0
182.08133,182.34006,54,25,0
183.45386,183.5852,59,26,0
183.5852,183.71655,63,22,0
183.45386,183.71655,54,22,0
183.71655,183.84592,59,26,0
183.84592,183.97528,63,22,0
183.71655,183.97528,54,21,0
185.71492,186.6673,71,39,0
186.6673,187.60976,64,42,0
187.38159,187.61969,66,36,0
187.61969,188.33397,67,43,0
188.33397,188.57207,66,29,0
188.33397,188.57207,69,37,0
188.57207,189.28635,71,45,0
189.28635,189.52444,76,37,0
188.57207,189.52444,67,36,0
189.52444,190.23874,79,45,0
190.23874,190.47682,78,37,0
189.52444,190.47682,72,36,0
190.47682,191.19112,74,50,0
191.19112,191.42921,72,43,0
190.47682,191.42921,66,40,0
191.42921,192.1435,76,54,0
192.1435,192.41872,74,46,0
191.42921,192.41872,69,43,0
192.41872,193.98488,71,40,0
193.98488,194.48907,72,36,0
192.41872,194.48907,63,32,0
194.48907,195.22078,69,43,0
195.22078,195.46468,71,36,0
194.48907,195.46468,65,34,0
195.46468,196.1964,67,45,0
196.1964,196.44029,69,39,0
195.46468,196.44029,64,36,0
196.44029,197.21616,66,45,0
197.21616,197.47478,67,36,0
196.44029,197.47478,62,36,0
197.47478,198.25064,64,43,0
198.25064,198.53635,66,35,0
197.47478,198.53635,60,34,0
198.53635,199.57083,59,32,0
198.53635,199.57083,63,41,0
199.57083,201.08919,55,28,0
199.57083,201.08919,59,28,0
199.57083,201.08919,64,36,0
201.57306,202.5408,71,39,0
201.57306,202.5408,63,31,0
202.5408,203.25508,64,42,0
203.25508,203.49318,66,36,0
202.48032,203.49318,60,38,0
203.49318,204.20747,67,43,0
203.49318,204.20747,64,36,0
204.20747,204.44557,66,29,0
204.20747,204.44557,69,37,0
204.44557,205.15985,71,45,0
205.15985,205.39795,76,37,0
204.44557,205.39795,67,36,0
205.39795,206.11223,79,45,0
206.11223,206.35033,78,37,0
205.39795,206.35033,69,36,0
206.35033,207.0646,74,50,0
207.0646,207.3027,72,43,0
206.35033,207.3027,66,40,0
207.3027,208.017,76,54,0
208.017,208.28485,74,46,0
207.3027,208.28485,67,43,0
208.28485,209.34813,66,32,0
208.28485,209.88385,71,40,0
209.88385,210.41956,72,27,0
209.34813,210.41956,65,32,0
210.41956,210.892,60,25,0
210.41956,211.1441,69,32,0
211.1441,211.3962,71,27,0
210.892,211.3962,62,18,0
211.3962,212.14488,67,33,0
212.14488,212.40575,69,29,0
211.3962,212.40575,64,27,0
212.40575,212.89355,57,27,0
212.40575,213.15671,66,33,0
213.15671,213.41986,67,27,0
212.89355,213.41986,59,20,0
213.41986,214.17616,64,32,0
214.17616,214.4732,66,26,0
213.41986,214.4732,60,25,0
214.4732,215.66132,59,24,0
214.4732,215.66132,63,30,0
215.66132,218.03755,55,21,0
215.66132,218.03755,59,21,0
215.66132,218.03755,64,27,0
218.03755,218.97505,66,58,0
218.03755,218.97505,62,58,0
218.97505,219.64172,67,63,0
219.64172,219.86394,69,54,0
218.97505,219.86394,62,43,0
219.86394,220.3084,71,64,0
220.3084,220.75284,67,55,0
219.86394,220.75284,64,43,0
220.75284,221.17836,71,67,0
220.69728,221.17836,66,54,0
221.17836,221.6228,69,55,0
221.17836,221.6228,64,55,0
221.6228,222.04874,62,54,0
221.6228,222.06726,69,67,0
222.06726,222.5117,62,55,0
222.5117,223.17836,72,63,0
223.17836,223.40059,74,56,0
222.5117,223.40059,64,43,0
223.40059,223.84503,76,68,0
223.84503,224.28947,72,61,0
223.40059,224.28947,66,46,0
224.23392,225.24185,67,61,0
224.28947,225.71805,74,77,0
225.71805,226.26865,74,77,0
225.24185,226.26865,69,62,0
226.26865,226.9353,76,72,0
226.9353,227.15753,78,62,0
226.26865,227.15753,71,49,0
227.15753,227.60197,74,73,0
227.60197,228.04642,71,63,0
227.15753,228.04642,69,49,0
228.04642,228.71309,72,70,0
228.71309,228.9353,74,56,0
228.04642,228.9353,67,59,0
228.9353,229.37976,71,68,0
229.37976,229.8242,67,57,0
228.9353,229.8242,66,57,0
229.8242,230.76909,69,69,0
229.8242,230.76909,64,58,0
230.76909,232.88695,71,57,0
230.71002,232.88695,63,48,0
232.88695,234.2069,63,39,0
232.88695,234.2069,71,46,0
234.2069,234.97612,64,42,0
234.97612,235.23253,66,36,0
234.2069,235.23253,59,36,0
235.23253,235.94682,67,43,0
235.94682,236.1849,69,37,0
235.23253,236.1849,64,29,0
235.23253,236.1849,59,29,0
236.1849,236.8992,71,45,0
236.8992,237.1373,76,37,0
236.1849,237.1373,67,36,0
236.1849,237.1373,64,36,0
237.1373,237.85158,79,45,0
237.85158,238.08968,78,37,0
237.1373,238.08968,72,36,0
237.1373,238.08968,64,36,0
238.08968,238.7928,74,50,0
238.7928,239.02718,72,43,0
238.08968,239.02718,66,40,0
238.08968,239.02718,71,40,0
239.02718,239.7303,76,54,0
239.7303,240.00552,74,46,0
239.02718,240.00552,69,43,0
239.02718,240.00552,60,43,0
240.00552,241.07695,59,43,0
240.00552,241.58116,71,40,0
241.58116,242.20602,72,36,0
241.07695,242.20602,57,43,0
240.00552,242.20602,63,32,0
242.20602,243.05493,69,32,0
243.05493,243.33789,71,27,0
242.20602,243.33789,65,25,0
242.20602,243.33789,60,25,0
243.33789,244.18678,67,33,0
244.18678,244.46976,69,29,0
243.33789,244.46976,64,27,0
243.33789,244.46976,59,27,0
244.46976,245.41692,66,33,0
245.41692,245.73265,67,27,0
244.46976,245.73265,62,27,0
244.46976,245.73265,57,27,0
245.73265,246.67981,64,32,0
246.67981,247.06433,66,26,0
245.73265,247.06433,60,25,0
245.73265,247.06433,55,25,0
248.49257,249.92079,59,20,0
248.49257,249.92079,63,25,0
248.49257,249.92079,54,20,0
251.34903,255.63371,55,17,0
251.34903,255.63371,59,17,0
251.34903,255.63371,64,22,0
3.685178,4.637559,62,25,0
4.637559,5.58994,61,30,0
3.685178,5.58994,64,30,0
5.58994,6.542321,64,26,0
5.58994,6.542321,60,22,0
6.542321,7.494702,62,30,0
6.542321,7.494702,59,25,0
7.494702,8.484217,60,32,0
7.494702,8.484217,57,27,0
8.484217,9.546164,59,30,0
8.484217,9.546164,55,25,0
9.546164,10.554567,57,26,0
9.546164,10.554567,54,22,0
10.554567,11.530177,60,30,0
10.554567,11.530177,53,25,0
11.530177,12.505787,48,22,0
11.530177,12.505787,59,26,0
12.505787,13.54027,57,30,0
12.505787,13.54027,50,25,0
13.54027,14.601847,45,22,0
13.54027,14.601847,55,26,0
14.601847,15.63633,47,22,0
14.601847,15.63633,54,27,0
15.63633,16.670813,40,25,0
17.638554,18.606297,54,25,0
18.606297,19.320581,59,35,0
19.320581,19.558678,57,30,0
19.558678,20.272963,62,30,0
20.272963,20.511059,60,24,0
20.511059,21.46344,59,30,0
16.670813,21.46344,52,46,0
21.46344,22.415821,64,26,0
21.46344,22.415821,54,22,0
22.415821,23.368202,59,30,0
22.415821,23.368202,55,25,0
23.368202,24.350344,60,32,0
23.368202,24.350344,57,27,0
24.350344,25.413624,59,25,0
25.413624,26.485052,55,26,0
24.350344,26.485052,62,30,0
26.485052,26.957493,57,22,0
26.957493,27.461695,59,16,0
26.485052,27.461695,53,18,0
27.461695,28.47124,48,16,0
27.461695,28.47124,60,19,0
28.47124,28.959044,54,22,0
28.959044,29.48536,55,16,0
28.47124,29.48536,50,18,0
29.48536,30.538692,45,16,0
29.48536,30.538692,57,19,0
30.538692,31.72681,47,16,0
30.538692,31.72681,54,20,0
31.72681,34.10305,40,18,0
34.10305,35.04055,57,55,0
34.10305,35.04055,50,48,0
35.04055,35.92944,59,55,0
35.92944,36.81833,61,49,0
35.04055,36.81833,55,55,0
36.81833,37.24386,62,53,0
37.24386,37.688305,57,45,0
37.688305,38.577194,54,39,0
36.81833,38.577194,50,53,0
38.577194,39.46608,55,55,0
39.46608,40.35497,57,52,0
38.577194,40.35497,48,55,0
40.35497,41.30735,59,60,0
41.30735,42.334137,62,44,0
40.35497,42.334137,43,60,0
42.334137,43.223026,67,63,0
43.223026,44.111916,66,56,0
44.111916,45.000805,64,60,0
45.000805,45.889694,62,44,0
45.889694,46.834576,60,44,0
46.834576,47.851524,59,44,0
42.334137,47.851524,55,63,0
47.851524,48.952442,54,28,0
47.851524,48.952442,58,33,0
48.952442,49.540676,57,32,0
49.540676,50.272385,56,29,0
48.952442,50.272385,53,27,0
50.272385,51.298027,55,30,0
50.272385,51.298027,52,25,0
51.298027,52.250404,50,25,0
51.298027,52.250404,62,30,0
52.250404,53.202785,61,30,0
52.250404,53.202785,49,25,0
53.202785,54.155167,60,26,0
53.202785,54.155167,48,22,0
54.155167,55.092667,59,30,0
54.155167,55.092667,47,25,0
55.092667,56.071022,57,32,0
55.092667,56.071022,45,27,0
56.071022,57.142452,55,30,0
56.071022,57.142452,43,25,0
57.142452,58.150856,54,26,0
57.142452,58.150856,42,22,0
58.150856,59.126465,53,22,0
58.150856,59.126465,41,18,0
59.126465,60.102074,36,16,0
59.126465,60.102074,48,19,0
60.102074,61.13656,50,22,0
60.102074,61.13656,38,18,0
61.13656,62.198135,33,16,0
61.13656,62.198135,45,19,0
62.198135,63.289043,35,16,0
62.198135,63.289043,47,20,0
63.289043,65.47086,40,18,0
63.289043,65.47086,28,13,0
65.47086,66.40836,57,55,0
65.47086,66.40836,50,48,0
66.40836,67.29725,59,55,0
67.29725,68.18614,61,49,0
66.40836,68.18614,55,55,0
68.18614,68.61167,62,53,0
68.61167,69.056114,57,45,0
69.056114,69.94501,54,39,0
68.18614,69.94501,50,53,0
69.94501,70.83389,55,55,0
70.83389,71.722786,57,52,0
69.94501,71.722786,48,55,0
71.722786,72.67516,59,60,0
72.67516,73.70195,62,44,0
71.722786,73.70195,43,60,0
73.70195,74.590836,67,63,0
74.590836,75.47973,66,56,0
75.47973,76.368614,64,60,0
76.368614,77.25751,62,44,0
77.25751,78.202385,60,44,0
78.202385,79.21934,59,44,0
73.70195,79.21934,55,63,0
79.21934,80.32025,54,28,0
79.21934,80.32025,58,33,0
80.32025,80.908485,57,32,0
80.908485,81.6402,56,29,0
80.32025,81.6402,53,27,0
81.6402,82.66584,55,30,0
81.6402,82.66584,52,25,0
82.66584,83.61822,50,25,0
82.66584,83.61822,62,30,0
83.61822,84.5706,61,30,0
83.61822,84.5706,49,25,0
84.5706,85.52298,60,26,0
84.5706,85.52298,48,22,0
85.52298,86.46048,59,30,0
85.52298,86.46048,47,25,0
86.46048,87.438835,57,32,0
86.46048,87.438835,45,27,0
87.438835,88.51026,55,30,0
87.438835,88.51026,43,25,0
88.51026,89.51867,54,26,0
88.51026,89.51867,42,22,0
89.51867,90.49428,53,22,0
89.51867,90.49428,41,18,0
90.49428,91.46989,36,16,0
90.49428,91.46989,48,19,0
91.46989,92.50437,50,22,0
91.46989,92.50437,38,18,0
92.50437,93.56595,33,16,0
92.50437,93.56595,45,19,0
94.65685,95.747765,35,12,0
94.65685,95.747765,47,15,0
97.92958,98.717674,40,24,0
97.92958,98.717674,47,24,0
98.717674,99.50576,40,21,0
98.717674,99.50576,47,21,0
99.50576,100.28989,40,21,0
99.50576,100.28989,47,21,0
100.28989,101.0716,47,21,0
100.28989,101.0716,40,21,0
101.0716,101.86382,47,21,0
101.0716,101.86382,40,21,0
101.86382,102.74687,47,21,0
101.86382,102.74687,40,21,0
102.74687,103.53044,40,21,0
102.74687,103.53044,47,21,0
103.53044,104.32323,47,21,0
103.53044,104.32323,40,21,0
104.32323,105.115456,47,21,0
104.32323,105.115456,40,21,0
105.115456,106.00285,47,21,0
105.115456,106.00285,40,21,0
106.26555,106.52825,42,21,0
106.52825,106.78698,42,21,0
106.00285,106.78698,35,21,0
107.04079,107.29459,42,21,0
107.29459,107.36312,42,21,0
106.78698,107.568695,35,21,0
107.83082,108.09294,42,21,0
108.09294,108.360916,42,21,0
107.568695,108.360916,35,21,0
108.647446,108.72066,42,21,0
108.94028,109.01348,42,21,0
108.360916,109.2331,35,21,0
109.4958,109.75849,42,21,0
109.75849,110.01723,42,21,0
109.2331,110.01723,35,21,0
110.271034,110.52484,42,21,0
110.52484,110.59563,42,21,0
110.01723,110.80799,35,21,0
111.070114,111.33224,42,21,0
111.33224,111.60021,42,21,0
110.80799,111.60021,35,21,0
111.89021,111.96562,42,21,0
112.19187,112.26766,42,21,0
111.60021,112.49505,35,21,0
112.49505,113.279175,63,21,0
112.49505,113.279175,70,21,0
113.279175,114.06089,63,21,0
113.279175,114.06089,56,21,0
114.06089,114.85311,70,21,0
114.06089,114.85311,63,21,0
114.85311,115.73616,65,21,0
114.85311,115.73616,58,21,0
115.73616,116.51973,70,21,0
115.73616,116.51973,77,21,0
116.51973,117.312515,70,21,0
116.51973,117.312515,63,21,0
117.312515,118.10474,77,21,0
117.312515,118.10474,70,21,0
118.10474,118.99214,72,21,0
118.10474,118.99214,65,21,0
118.99214,119.77627,53,21,0
118.99214,119.77627,60,21,0
119.77627,120.55798,53,21,0
119.77627,120.55798,46,21,0
120.55798,121.350204,60,21,0
120.55798,121.350204,53,21,0
121.350204,122.23325,55,21,0
121.350204,122.23325,48,21,0
122.23325,123.01682,60,28,0
122.23325,123.01682,67,28,0
123.01682,123.80961,60,30,0
123.01682,123.80961,53,30,0
123.80961,124.59318,72,35,0
123.80961,124.59318,79,35,0
124.59318,125.38596,72,38,0
124.59318,125.38596,65,38,0
125.38596,125.64021,60,45,0
125.38596,125.64021,67,53,0
125.64021,126.20896,65,41,0
125.64021,126.20896,69,50,0
126.20896,126.4632,72,51,0
126.20896,126.4632,79,62,0
126.4632,127.03195,77,47,0
126.4632,127.03195,81,56,0
127.03195,127.2862,60,47,0
127.03195,127.2862,67,58,0
127.2862,127.85495,65,45,0
127.2862,127.85495,69,53,0
127.85495,128.10919,72,56,0
127.85495,128.10919,79,68,0
128.10919,128.6726,77,52,0
128.10919,128.6726,81,60,0
128.67795,129.21709,69,58,0
128.67795,129.21709,65,47,0
129.22218,129.78163,81,60,0
129.22218,129.78163,77,52,0
129.78693,130.32484,69,58,0
129.78693,130.32484,65,47,0
130.32993,130.88806,81,60,0
130.32993,130.88806,77,52,0
130.89334,131.4337,69,58,0
130.89334,131.4337,65,47,0
131.43881,132.04074,81,60,0
131.43881,132.04074,77,52,0
132.04645,132.60457,66,51,0
132.04645,132.60457,59,42,0
132.60985,133.18416,78,52,0
132.60985,133.18416,71,46,0
133.18959,133.75433,66,51,0
133.18959,133.75433,59,42,0
133.75969,134.33958,78,52,0
133.75969,134.33958,71,46,0
134.34508,134.97995,66,51,0
134.34508,134.97995,59,42,0
134.98598,135.54541,78,52,0
134.98598,135.54541,71,46,0
135.5507,135.68205,40,79,0
135.5507,135.68205,47,94,0
135.8134,136.33484,52,60,0
135.8134,136.33484,59,71,0
136.33484,136.46173,40,68,0
136.33484,136.46173,47,80,0
136.58864,137.12419,52,59,0
136.58864,137.12419,59,70,0
137.12419,137.25554,40,63,0
137.12419,137.25554,47,75,0
137.38689,137.90831,52,60,0
137.38689,137.90831,59,71,0
137.90831,138.04285,40,68,0
137.90831,138.04285,47,80,0
138.17738,138.77075,52,59,0
138.17738,138.77075,59,70,0
138.77075,138.9021,40,52,0
138.77075,138.9021,47,63,0
139.03345,139.55487,52,50,0
139.03345,139.55487,59,59,0
139.55487,139.68178,40,55,0
139.55487,139.68178,47,65,0
139.80869,140.34422,52,49,0
139.80869,140.34422,59,57,0
140.34422,140.47557,40,52,0
140.34422,140.47557,47,63,0
140.60692,141.12836,52,50,0
140.60692,141.12836,59,59,0
141.12836,141.2679,40,55,0
141.12836,141.2679,47,65,0
141.40744,142.0205,52,44,0
141.40744,142.0205,59,51,0
142.28319,142.54588,42,21,0
142.54588,142.80463,42,21,0
142.0205,142.80463,35,21,0
143.05843,143.31224,42,21,0
143.31224,143.38077,42,21,0
142.80463,143.58633,35,21,0
143.84845,144.11058,42,21,0
144.11058,144.37856,42,21,0
143.58633,144.37856,35,21,0
144.66508,144.7383,42,21,0
144.95792,145.03113,42,21,0
144.37856,145.25075,35,21,0
145.51344,145.77614,42,21,0
145.77614,146.03487,42,21,0
145.25075,146.03487,35,21,0
146.28868,146.54248,42,21,0
146.54248,146.61327,42,21,0
146.03487,146.82564,35,21,0
147.08775,147.34988,42,21,0
147.34988,147.61786,42,21,0
146.82564,147.61786,35,21,0
147.90785,147.98326,42,21,0
148.20952,148.28531,42,21,0
147.61786,148.5127,35,21,0
148.5127,149.29681,63,21,0
148.5127,149.29681,70,21,0
149.29681,150.07854,63,21,0
149.29681,150.07854,56,21,0
150.07854,150.87076,70,21,0
150.07854,150.87076,63,21,0
150.87076,151.7538,65,21,0
150.87076,151.7538,58,21,0
151.7538,152.53737,70,21,0
151.7538,152.53737,77,21,0
152.53737,153.33015,70,21,0
152.53737,153.33015,63,21,0
153.33015,154.12238,77,21,0
153.33015,154.12238,70,21,0
154.12238,155.00978,72,21,0
154.12238,155.00978,65,21,0
155.00978,155.79391,53,21,0
155.00978,155.79391,60,21,0
155.79391,156.57562,53,21,0
155.79391,156.57562,46,21,0
156.57562,157.36784,60,21,0
156.57562,157.36784,53,21,0
157.36784,158.2509,55,21,0
157.36784,158.2509,48,21,0
158.2509,159.03447,60,28,0
158.2509,159.03447,67,28,0
159.03447,159.82726,60,30,0
159.03447,159.82726,53,30,0
159.82726,160.61082,72,35,0
159.82726,160.61082,79,35,0
160.61082,161.40361,72,38,0
160.61082,161.40361,65,38,0
161.40361,161.65785,60,45,0
161.40361,161.65785,67,53,0
161.65785,162.2266,65,41,0
161.65785,162.2266,69,50,0
162.2266,162.48085,72,51,0
162.2266,162.48085,79,62,0
162.48085,163.04959,77,47,0
162.48085,163.04959,81,56,0
163.04959,163.30385,60,47,0
163.04959,163.30385,67,58,0
163.30385,163.87259,65,45,0
163.30385,163.87259,69,53,0
163.87259,164.12685,72,56,0
163.87259,164.12685,79,68,0
164.12685,164.69026,77,52,0
164.12685,164.69026,81,60,0
164.69559,165.23473,69,58,0
164.69559,165.23473,65,47,0
165.23982,165.79927,81,60,0
165.23982,165.79927,77,52,0
165.80457,166.34248,69,58,0
165.80457,166.34248,65,47,0
166.34756,166.9057,81,60,0
166.34756,166.9057,77,52,0
166.91098,167.45134,69,58,0
166.91098,167.45134,65,47,0
167.45645,168.05838,81,60,0
167.45645,168.05838,77,52,0
168.06409,168.62221,66,51,0
168.06409,168.62221,59,42,0
168.62749,169.2018,78,52,0
168.62749,169.2018,71,46,0
169.20723,169.77199,66,51,0
169.20723,169.77199,59,42,0
169.77733,170.35724,78,52,0
169.77733,170.35724,71,46,0
170.36272,170.99759,66,51,0
170.36272,170.99759,59,42,0
171.00362,171.56305,78,52,0
171.00362,171.56305,71,46,0
171.56834,171.6997,40,79,0
171.56834,171.6997,47,94,0
171.83105,172.35248,52,60,0
171.83105,172.35248,59,71,0
172.35248,172.47939,40,68,0
172.35248,172.47939,47,80,0
172.60628,173.14183,52,59,0
172.60628,173.14183,59,70,0
173.14183,173.27318,40,63,0
173.14183,173.27318,47,75,0
173.40453,173.92596,52,60,0
173.40453,173.92596,59,71,0
173.92596,174.06049,40,68,0
173.92596,174.06049,47,80,0
174.19502,174.78839,52,59,0
174.19502,174.78839,59,70,0
174.78839,174.91974,40,52,0
174.78839,174.91974,47,63,0
175.05109,175.57251,52,50,0
175.05109,175.57251,59,59,0
175.57251,175.69942,40,55,0
175.57251,175.69942,47,65,0
175.82632,176.36188,52,49,0
175.82632,176.36188,59,57,0
176.36188,176.49323,40,52,0
176.36188,176.49323,47,63,0
176.62457,177.146,52,50,0
176.62457,177.146,59,59,0
177.146,177.28554,40,55,0
177.146,177.28554,47,65,0
177.42508,178.03813,52,44,0
177.42508,178.03813,59,51,0
179.2216,179.74303,47,35,0
178.95891,179.74303,40,30,0
180.02211,180.63516,47,30,0
179.74303,180.63516,40,33,0
181.81863,182.34006,47,29,0
181.55594,182.34006,40,25,0
183.45386,183.97528,47,24,0
183.19116,183.97528,40,21,0
187.61969,188.57207,62,25,0
188.57207,189.52444,61,30,0
187.61969,189.52444,64,30,0
189.52444,190.47682,64,26,0
189.52444,190.47682,60,22,0
190.47682,191.42921,62,30,0
190.47682,191.42921,59,25,0
191.42921,192.41872,60,32,0
191.42921,192.41872,57,27,0
192.41872,193.48067,59,30,0
192.41872,193.48067,55,25,0
193.48067,194.48907,57,26,0
193.48067,194.48907,54,22,0
194.48907,195.46468,60,30,0
194.48907,195.46468,53,25,0
195.46468,196.44029,48,22,0
195.46468,196.44029,59,26,0
196.44029,197.47478,57,30,0
196.44029,197.47478,50,25,0
197.47478,198.53635,45,22,0
197.47478,198.53635,55,26,0
198.53635,199.57083,47,22,0
198.53635,199.57083,54,27,0
199.57083,200.60532,40,25,0
201.57306,202.5408,54,25,0
202.5408,203.017,59,35,0
203.017,203.49318,57,30,0
203.49318,203.96938,62,30,0
203.96938,204.44557,60,24,0
204.44557,205.39795,59,30,0
200.60532,205.39795,52,46,0
205.39795,206.35033,64,26,0
205.39795,206.35033,54,22,0
206.35033,207.3027,59,30,0
206.35033,207.3027,55,25,0
207.3027,208.28485,60,32,0
207.3027,208.28485,57,27,0
208.28485,209.34813,59,25,0
209.34813,210.41956,55,26,0
208.28485,210.41956,62,30,0
210.41956,210.892,57,22,0
210.892,211.3962,59,16,0
210.41956,211.3962,53,18,0
211.3962,212.40575,48,16,0
211.3962,212.40575,60,19,0
212.40575,212.89355,54,22,0
212.89355,213.41986,55,16,0
212.40575,213.41986,50,18,0
213.41986,214.4732,45,16,0
213.41986,214.4732,57,19,0
214.4732,215.66132,47,16,0
214.4732,215.66132,54,20,0
215.66132,218.03755,40,18,0
218.03755,218.97505,57,55,0
218.03755,218.97505,50,48,0
218.97505,219.86394,59,55,0
219.86394,220.75284,61,49,0
218.97505,220.75284,55,55,0
220.75284,221.17836,62,53,0
221.17836,221.6228,57,45,0
221.6228,222.5117,54,39,0
220.75284,222.5117,50,53,0
222.5117,223.40059,55,55,0
223.40059,224.28947,57,52,0
222.5117,224.28947,48,55,0
224.28947,225.24185,59,60,0
225.24185,226.26865,62,44,0
224.28947,226.26865,43,60,0
226.26865,227.15753,67,63,0
227.15753,228.04642,66,56,0
228.04642,228.9353,64,60,0
228.9353,229.8242,62,44,0
229.8242,230.76909,60,44,0
230.76909,231.78603,59,44,0
226.26865,231.78603,55,63,0
231.78603,232.88695,54,28,0
231.78603,232.88695,58,33,0
232.88695,233.47519,57,32,0
233.47519,234.2069,56,29,0
232.88695,234.2069,53,27,0
234.2069,235.23253,55,30,0
234.2069,235.23253,52,25,0
235.23253,236.1849,50,25,0
235.23253,236.1849,62,30,0
236.1849,237.1373,61,30,0
236.1849,237.1373,49,25,0
237.1373,238.08968,60,26,0
237.1373,238.08968,48,22,0
238.08968,239.02718,59,30,0
238.08968,239.02718,47,25,0
239.02718,240.00552,57,32,0
239.02718,240.00552,45,27,0
240.00552,241.07695,55,30,0
240.00552,241.07695,43,25,0
241.07695,242.20602,54,26,0
241.07695,242.20602,42,22,0
242.20602,243.33789,53,22,0
242.20602,243.33789,41,18,0
243.33789,244.46976,36,16,0
243.33789,244.46976,48,19,0
244.46976,245.73265,50,22,0
244.46976,245.73265,38,18,0
245.73265,247.06433,33,16,0
245.73265,247.06433,45,19,0
248.49257,249.92079,35,13,0
248.49257,249.92079,47,17,0
251.34903,255.63371,40,15,0
251.34903,255.63371,28,11,0
