start_time,end_time,note_value,velocity,instrument_program_number
0.762096,0.949479,72,40,0
0.949479,1.136862,74,37,0
1.136862,1.324245,76,45,0
1.324245,1.511628,72,38,0
1.136862,1.699011,65,34,0
1.511628,1.7915465,76,38,0
1.7915465,1.8378142,74,34,0
1.8378142,1.884082,76,34,0
1.884082,2.069153,74,43,0
2.069153,2.2595086,71,38,0
1.699011,2.2595086,67,34,0
2.2595086,2.3574839,74,40,0
2.2595086,2.830225,64,34,0
2.642842,3.017608,74,49,0
3.017608,3.20211,72,40,0
3.20211,3.386612,69,37,0
2.830225,3.386612,65,34,0
3.386612,3.571114,72,45,0
3.571114,3.755616,69,38,0
3.755616,3.944771,72,38,0
3.386612,3.944771,62,34,0
3.944771,4.129842,71,45,0
4.129842,4.314913,67,43,0
4.314913,4.5046663,71,38,0
3.944771,4.5046663,60,34,0
4.5046663,4.6026416,69,40,0
4.5046663,5.073056,59,34,0
4.8868365,5.2592754,69,46,0
5.2592754,5.442091,67,40,0
5.442091,5.6318445,64,37,0
5.073056,5.6318445,60,34,0
5.6318445,5.8163466,67,45,0
5.8163466,6.0008483,62,38,0
5.6318445,6.1936507,59,34,0
6.0008483,6.287342,67,38,0
6.287342,6.334188,64,34,0
6.334188,6.3810334,66,34,0
6.3810334,6.5684166,64,43,0
6.5684166,6.763729,62,38,0
6.1936507,6.763729,57,34,0
6.763729,6.9499483,67,40,0
6.9499483,7.136168,62,33,0
6.763729,7.3321185,59,30,0
7.136168,7.426696,67,32,0
7.426696,7.4739847,64,27,0
7.4739847,7.5212736,66,27,0
7.5212736,7.711629,64,34,0
7.711629,7.9069414,62,29,0
7.3321185,7.9069414,57,28,0
7.9069414,8.0082245,67,30,0
7.9069414,8.0082245,59,25,0
8.312074,9.135444,67,29,0
8.312074,9.135444,59,24,0
9.897539,10.084923,72,40,0
10.084923,10.2723055,74,37,0
10.2723055,10.459688,76,45,0
10.459688,10.647072,72,38,0
10.2723055,10.834455,65,34,0
10.647072,10.92699,76,38,0
10.92699,10.973258,74,34,0
10.973258,11.019526,76,34,0
11.019526,11.2045965,74,43,0
11.2045965,11.394952,71,38,0
10.834455,11.394952,67,34,0
11.394952,11.492928,74,40,0
11.394952,11.965669,64,34,0
11.778285,12.153051,74,49,0
12.153051,12.337553,72,40,0
12.337553,12.522056,69,37,0
11.965669,12.522056,65,34,0
12.522056,12.706557,72,45,0
12.706557,12.89106,69,38,0
12.89106,13.0802145,72,38,0
12.522056,13.0802145,62,34,0
13.0802145,13.2652855,71,45,0
13.2652855,13.4503565,67,43,0
13.4503565,13.64011,71,38,0
13.0802145,13.64011,60,34,0
13.64011,13.738085,69,40,0
13.64011,14.2085,59,34,0
14.02228,14.394719,69,46,0
14.394719,14.577535,67,40,0
14.577535,14.767288,64,37,0
14.2085,14.767288,60,34,0
14.767288,14.95179,67,45,0
14.95179,15.136292,62,38,0
14.767288,15.329094,59,34,0
15.136292,15.422786,67,38,0
15.422786,15.469631,64,34,0
15.469631,15.516477,66,34,0
15.516477,15.70386,64,43,0
15.70386,15.899173,62,38,0
15.329094,15.899173,57,34,0
15.899173,16.085392,67,40,0
16.085392,16.271612,62,33,0
15.899173,16.467562,59,30,0
16.271612,16.56214,67,32,0
16.56214,16.609428,64,27,0
16.609428,16.656717,66,27,0
16.656717,16.847073,64,34,0
16.847073,17.042385,62,29,0
16.467562,17.042385,57,28,0
17.042385,17.143667,67,30,0
17.042385,17.143667,59,25,0
17.447517,18.67602,67,29,0
17.447517,18.67602,59,24,0
18.67602,19.104284,67,20,0
18.67602,19.104284,59,17,0
19.479052,20.03781,71,75,0
19.479052,20.03781,68,73,0
20.03781,20.598307,72,75,0
20.03781,20.598307,69,62,0
20.598307,20.696281,71,75,0
20.598307,20.696281,68,72,0
20.990208,21.369715,71,75,0
20.990208,21.369715,68,48,0
21.369715,21.557096,71,40,0
21.557096,21.74448,73,37,0
21.74448,21.931864,75,45,0
21.931864,22.119246,71,38,0
21.74448,22.30663,64,34,0
22.119246,22.399164,75,38,0
22.399164,22.445433,73,34,0
22.445433,22.4917,75,34,0
22.4917,22.676771,73,43,0
22.676771,22.867126,69,38,0
22.30663,22.867126,63,34,0
22.867126,22.965101,71,34,0
22.867126,22.965101,68,27,0
22.867126,22.965101,64,27,0
23.25046,23.625225,71,41,0
23.25046,23.625225,68,33,0
23.25046,23.625225,64,33,0
23.995367,24.55187,74,75,0
23.995367,24.55187,71,73,0
24.55187,25.112368,75,75,0
24.55187,25.112368,72,62,0
25.112368,25.210342,74,75,0
25.112368,25.210342,71,72,0
25.504269,25.883776,74,75,0
25.504269,25.883776,71,48,0
25.883776,26.071157,74,40,0
26.071157,26.258541,76,37,0
26.258541,26.445925,78,45,0
26.445925,26.633307,74,38,0
26.258541,26.82069,67,34,0
26.633307,26.913225,78,38,0
26.913225,26.959494,76,34,0
26.959494,27.00576,78,34,0
27.00576,27.190832,76,43,0
27.190832,27.381187,72,38,0
26.82069,27.381187,66,34,0
27.381187,27.479162,74,34,0
27.381187,27.479162,71,27,0
27.381187,27.479162,67,27,0
27.76452,28.144707,74,41,0
27.76452,28.144707,71,33,0
27.76452,28.144707,67,33,0
28.144707,28.235285,74,43,0
28.235285,28.325865,76,43,0
28.325865,28.515684,78,38,0
28.325865,28.515684,72,30,0
28.325865,28.515684,69,30,0
28.526789,28.624763,74,34,0
28.526789,28.624763,71,27,0
28.526789,28.624763,67,27,0
28.89919,29.273958,74,41,0
28.89919,29.273958,71,33,0
28.89919,29.273958,67,33,0
29.273958,29.364536,74,43,0
29.364536,29.455116,76,43,0
29.455116,29.644936,77,38,0
29.455116,29.644936,72,30,0
29.455116,29.644936,69,30,0
29.835897,29.926477,74,43,0
29.926477,30.017057,76,43,0
30.017057,30.111698,78,38,0
30.017057,30.111698,72,30,0
30.017057,30.111698,69,30,0
30.39723,30.48781,74,43,0
30.48781,30.57839,76,43,0
30.57839,30.673033,77,38,0
30.57839,30.673033,72,30,0
30.57839,30.673033,69,30,0
30.959171,31.049751,74,43,0
31.049751,31.14033,76,43,0
31.14033,31.234972,78,38,0
31.14033,31.234972,72,30,0
31.14033,31.234972,69,30,0
31.520504,31.611084,74,43,0
31.611084,31.701664,76,43,0
31.701664,31.796305,77,38,0
31.701664,31.796305,72,30,0
31.701664,31.796305,69,30,0
32.082443,32.173023,77,43,0
32.173023,32.263603,79,43,0
32.263603,32.358643,81,38,0
32.263603,32.358643,74,30,0
32.263603,32.358643,72,30,0
32.644176,32.734756,77,43,0
32.734756,32.825336,79,43,0
32.825336,32.919025,81,38,0
32.825336,32.919025,74,30,0
32.825336,32.919025,71,30,0
33.20368,33.29426,76,43,0
33.29426,33.38484,77,43,0
33.38484,33.477947,79,38,0
33.38484,33.477947,72,30,0
33.38484,33.477947,71,30,0
33.75728,33.84786,76,43,0
33.84786,33.93844,77,43,0
33.93844,34.033077,79,37,0
33.93844,34.033077,72,29,0
33.93844,34.033077,71,29,0
34.319218,34.409798,76,41,0
34.409798,34.500378,77,41,0
34.500378,34.595016,79,36,0
34.500378,34.595016,72,28,0
34.500378,34.595016,69,28,0
34.88055,34.97113,76,39,0
34.97113,35.06171,77,39,0
35.06171,35.16198,79,34,0
35.06171,35.16198,72,27,0
35.06171,35.16198,69,27,0
35.453205,35.543785,74,37,0
35.543785,35.634365,76,37,0
35.634365,35.729008,77,33,0
35.634365,35.729008,71,26,0
35.634365,35.729008,69,26,0
36.01454,36.10512,74,36,0
36.10512,36.1957,76,36,0
36.1957,36.29034,77,31,0
36.1957,36.29034,71,24,0
36.1957,36.29034,69,24,0
36.572903,36.663483,74,34,0
36.663483,36.754063,76,34,0
36.754063,36.846596,77,30,0
36.754063,36.846596,71,23,0
36.754063,36.846596,67,23,0
37.124203,37.214783,74,32,0
37.214783,37.305363,76,32,0
37.305363,37.400005,77,28,0
37.305363,37.400005,71,22,0
37.305363,37.400005,67,22,0
37.686142,37.776722,72,30,0
37.776722,37.867302,74,30,0
37.867302,37.95927,76,26,0
37.867302,37.95927,69,21,0
37.867302,37.95927,67,21,0
38.235176,38.325756,72,29,0
38.325756,38.416336,74,29,0
38.416336,38.510975,76,25,0
38.416336,38.510975,69,20,0
38.416336,38.510975,67,20,0
38.791798,38.882378,72,27,0
38.882378,38.972958,74,27,0
38.972958,39.065777,76,24,0
38.972958,39.065777,69,19,0
38.972958,39.065777,65,19,0
41.029457,41.120037,71,27,0
41.120037,41.210617,72,27,0
41.210617,41.305256,74,24,0
41.210617,41.305256,69,19,0
41.210617,41.305256,65,19,0
44.208317,44.399277,74,16,0
44.208317,44.399277,67,14,0
44.960613,45.147995,84,32,0
45.147995,45.335377,86,29,0
45.335377,45.522762,88,36,0
45.522762,45.710144,84,30,0
45.710144,45.990063,88,30,0
45.990063,46.03633,86,27,0
46.03633,46.082596,88,27,0
46.082596,46.26767,86,34,0
46.26767,46.458023,84,30,0
46.458023,46.556,88,32,0
46.84136,47.216125,88,39,0
47.216125,47.401196,84,32,0
47.401196,47.592155,86,29,0
47.592155,47.780125,88,36,0
47.780125,47.968094,84,30,0
47.968094,48.2486,88,30,0
48.2486,48.29487,86,27,0
48.29487,48.341137,88,27,0
48.341137,48.526207,86,34,0
48.526207,48.716564,84,30,0
48.716564,48.814537,88,32,0
49.099895,49.474663,88,39,0
49.84943,50.0345,89,24,0
49.84943,50.0345,93,24,0
49.84943,50.0345,96,28,0
50.41044,50.595512,91,24,0
50.41044,50.595512,95,28,0
50.41044,50.595512,89,24,0
50.970936,51.16689,88,24,0
50.970936,51.16689,91,24,0
50.970936,51.16689,95,28,0
51.541653,51.72904,88,24,0
51.541653,51.72904,89,24,0
51.541653,51.72904,93,28,0
52.1021,52.289482,86,24,0
52.1021,52.289482,89,24,0
52.1021,52.289482,93,28,0
52.66425,52.84932,88,24,0
52.66425,52.84932,91,28,0
52.66425,52.84932,86,24,0
53.224747,53.420696,84,24,0
53.224747,53.420696,88,24,0
53.224747,53.420696,91,28,0
53.795464,53.982845,84,24,0
53.795464,53.982845,86,24,0
53.795464,53.982845,89,28,0
54.357613,54.540985,83,24,0
54.357613,54.540985,86,24,0
54.357613,54.540985,89,28,0
54.919296,55.104366,84,24,0
54.919296,55.104366,88,28,0
54.919296,55.104366,83,24,0
55.479794,55.667175,81,24,0
55.479794,55.667175,84,24,0
55.479794,55.667175,88,28,0
56.041943,56.227013,83,24,0
56.041943,56.227013,86,28,0
56.041943,56.227013,81,24,0
56.60244,56.7847,79,24,0
56.60244,56.7847,83,24,0
56.60244,56.7847,86,28,0
57.159466,57.344536,81,24,0
57.159466,57.344536,84,28,0
57.159466,57.344536,79,24,0
57.719963,57.915913,77,24,0
57.719963,57.915913,81,24,0
57.719963,57.915913,84,28,0
58.29068,58.47806,79,24,0
58.29068,58.47806,83,28,0
58.29068,58.47806,77,24,0
58.85349,59.04087,77,25,0
58.85349,59.04087,81,25,0
58.85349,59.04087,84,29,0
59.415638,59.600708,79,25,0
59.415638,59.600708,83,30,0
59.415638,59.600708,77,25,0
59.976135,60.172085,76,25,0
59.976135,60.172085,79,25,0
59.976135,60.172085,83,30,0
60.546852,60.734234,77,26,0
60.546852,60.734234,81,31,0
60.546852,60.734234,76,26,0
61.10966,61.293034,74,27,0
61.10966,61.293034,77,27,0
61.10966,61.293034,81,31,0
61.670155,61.85523,76,28,0
61.670155,61.85523,79,33,0
61.670155,61.85523,74,28,0
62.23065,62.426605,72,28,0
62.23065,62.426605,76,28,0
62.23065,62.426605,79,33,0
62.80137,62.988754,74,28,0
62.80137,62.988754,77,34,0
62.80137,62.988754,72,28,0
63.365395,63.549896,71,30,0
63.365395,63.549896,74,30,0
63.365395,63.549896,77,35,0
63.92584,64.11091,72,30,0
63.92584,64.11091,76,36,0
63.92584,64.11091,71,30,0
64.486336,64.67372,69,31,0
64.486336,64.67372,72,31,0
64.486336,64.67372,76,37,0
65.048485,65.23355,71,33,0
65.048485,65.23355,74,40,0
65.048485,65.23355,69,33,0
65.60898,65.796364,69,35,0
65.60898,65.796364,72,35,0
65.60898,65.796364,76,41,0
66.17113,66.3562,71,37,0
66.17113,66.3562,74,44,0
66.17113,66.3562,69,37,0
66.73163,66.92758,65,40,0
66.73163,66.92758,69,40,0
66.73163,66.92758,72,47,0
67.302345,67.500885,67,42,0
67.302345,67.500885,71,50,0
67.302345,67.500885,65,42,0
67.89166,68.08141,65,44,0
67.89166,68.08141,69,44,0
67.89166,68.08141,72,52,0
68.46092,68.645996,67,44,0
68.46092,68.645996,71,52,0
68.46092,68.645996,65,44,0
69.02142,69.21737,64,44,0
69.02142,69.21737,67,44,0
69.02142,69.21737,71,52,0
69.59214,69.77952,65,44,0
69.59214,69.77952,69,52,0
69.59214,69.77952,64,44,0
70.170296,70.35826,62,44,0
70.170296,70.35826,65,44,0
70.170296,70.35826,69,52,0
70.73421,70.91927,64,44,0
70.73421,70.91927,67,52,0
70.73421,70.91927,62,44,0
71.2947,71.490654,60,44,0
71.2947,71.490654,64,44,0
71.2947,71.490654,67,52,0
71.86542,72.0528,62,44,0
71.86542,72.0528,65,52,0
71.86542,72.0528,60,44,0
72.44357,72.631546,59,44,0
72.44357,72.631546,62,44,0
72.44357,72.631546,65,52,0
73.007484,73.19256,60,44,0
73.007484,73.19256,64,52,0
73.007484,73.19256,59,44,0
73.567986,73.751915,57,44,0
73.567986,73.751915,60,44,0
73.567986,73.751915,64,52,0
74.129036,74.31411,59,44,0
74.129036,74.31411,62,52,0
74.129036,74.31411,57,44,0
74.68954,74.87751,55,44,0
74.68954,74.87751,59,44,0
74.68954,74.87751,62,52,0
75.25345,75.438515,57,44,0
75.25345,75.438515,60,52,0
75.25345,75.438515,55,44,0
75.81394,76.009895,57,44,0
75.81394,76.009895,60,44,0
75.81394,76.009895,64,52,0
76.38466,76.58061,59,44,0
76.38466,76.58061,62,52,0
76.38466,76.58061,57,44,0
76.58061,76.650795,60,81,0
76.58061,76.650795,48,68,0
76.78114,76.85277,61,72,0
76.78114,76.85277,49,61,0
76.98579,77.034294,56,73,0
76.98579,77.034294,60,73,0
76.98579,77.0537,51,73,0
76.98579,77.0537,63,86,0
77.17983,77.24562,60,79,0
77.17983,77.24562,48,67,0
77.55577,77.740845,56,61,0
77.367805,77.740845,51,63,0
77.367805,77.740845,63,76,0
77.55577,77.740845,53,61,0
77.740845,77.80562,61,81,0
77.740845,77.80562,49,68,0
77.92592,77.99254,60,72,0
77.92592,77.99254,48,61,0
78.11627,78.21425,63,77,0
78.11627,78.21425,60,64,0
78.11627,78.21425,56,64,0
78.11627,78.21425,51,64,0
78.68699,78.874374,56,61,0
78.4996,78.874374,51,79,0
78.4996,78.874374,63,93,0
78.68699,78.874374,53,61,0
78.874374,78.941635,60,81,0
78.874374,78.941635,48,68,0
79.06656,79.13559,61,72,0
79.06656,79.13559,49,61,0
79.263794,79.31231,56,73,0
79.263794,79.31231,60,73,0
79.263794,79.33171,51,73,0
79.263794,79.33171,63,86,0
79.45784,79.523636,60,79,0
79.45784,79.523636,48,67,0
79.833786,80.01885,56,61,0
79.64581,80.01885,51,63,0
79.64581,80.01885,63,76,0
79.833786,80.01885,53,61,0
80.01885,80.083626,61,81,0
80.01885,80.083626,49,68,0
80.203926,80.270546,60,72,0
80.203926,80.270546,48,61,0
80.39428,80.492256,63,77,0
80.39428,80.492256,60,64,0
80.39428,80.492256,56,64,0
80.39428,80.492256,51,64,0
80.965,81.15842,56,61,0
80.77761,81.15842,51,79,0
80.77761,81.15842,63,93,0
80.965,81.15842,53,61,0
81.15842,81.22861,60,89,0
81.15842,81.22861,48,74,0
81.358955,81.43337,62,79,0
81.358955,81.43337,50,67,0
81.57157,81.62008,55,68,0
81.57157,81.62008,60,80,0
81.57157,81.63949,52,68,0
81.57157,81.63949,64,94,0
81.76562,81.831406,60,86,0
81.76562,81.831406,48,73,0
82.141556,82.32663,57,67,0
81.95359,82.32663,52,69,0
81.95359,82.32663,64,83,0
82.141556,82.32663,53,67,0
82.32663,82.3914,62,89,0
82.32663,82.3914,50,74,0
82.5117,82.57832,60,79,0
82.5117,82.57832,48,67,0
82.70206,82.80334,64,84,0
82.70206,82.80334,60,70,0
82.70206,82.80334,55,70,0
82.70206,82.80334,52,70,0
83.27939,83.466774,57,67,0
83.092,83.466774,52,83,0
83.092,83.466774,64,98,0
83.27939,83.466774,53,67,0
83.466774,83.534035,60,89,0
83.466774,83.534035,48,74,0
83.65896,83.72799,62,79,0
83.65896,83.72799,50,67,0
83.85619,83.90471,55,80,0
83.85619,83.90471,60,80,0
83.85619,83.92411,52,80,0
83.85619,83.92411,64,94,0
84.05025,84.116035,60,86,0
84.05025,84.116035,48,73,0
84.426186,84.61125,57,67,0
84.23821,84.61125,52,69,0
84.23821,84.61125,64,83,0
84.426186,84.61125,53,67,0
84.61125,84.67603,62,89,0
84.61125,84.67603,50,74,0
84.796326,84.86295,60,79,0
84.796326,84.86295,48,67,0
84.98668,85.08831,64,84,0
84.98668,85.08831,60,70,0
84.98668,85.08831,55,70,0
84.98668,85.08831,52,70,0
85.5647,85.75208,57,67,0
85.37732,85.75208,52,83,0
85.37732,85.75208,64,98,0
85.5647,85.75208,53,67,0
85.75208,85.79893,48,70,0
85.757545,85.80439,60,70,0
85.93947,85.99028,62,70,0
85.93947,85.99028,50,70,0
87.672455,88.045494,52,58,0
88.045494,88.11255,48,62,0
88.23707,88.30702,50,55,0
90.4326,90.61999,60,40,0
90.61999,90.807365,62,37,0
90.807365,90.99475,64,45,0
90.99475,91.18213,60,38,0
90.807365,91.369514,53,34,0
91.18213,91.46205,64,38,0
91.46205,91.508316,62,34,0
91.508316,91.55459,64,34,0
91.55459,91.739655,62,43,0
91.739655,91.930016,59,42,0
91.369514,91.930016,55,34,0
91.930016,92.02799,60,47,0
92.31335,92.641266,60,49,0
92.68811,92.875496,60,40,0
92.875496,93.06288,62,37,0
93.06288,93.25026,64,45,0
93.25026,93.437645,60,38,0
93.06288,93.62503,53,34,0
93.437645,93.71756,64,38,0
93.71756,93.76383,62,34,0
93.76383,93.8101,64,34,0
93.8101,93.99517,62,43,0
93.99517,94.185524,59,42,0
93.62503,94.185524,55,34,0
94.185524,94.2835,60,47,0
94.568855,94.94363,60,49,0
95.31839,95.87715,71,75,0
95.31839,95.87715,68,73,0
95.87715,96.437645,72,75,0
95.87715,96.437645,69,62,0
96.437645,96.53562,71,75,0
96.437645,96.53562,68,72,0
96.829544,97.20905,71,75,0
96.829544,97.20905,68,48,0
97.20905,97.39644,71,40,0
97.39644,97.58382,73,37,0
97.58382,97.7712,75,45,0
97.7712,97.95859,71,38,0
97.58382,98.145966,64,34,0
97.95859,98.2385,75,38,0
98.2385,98.284775,73,34,0
98.284775,98.33104,75,34,0
98.33104,98.51611,73,43,0
98.51611,98.70647,69,38,0
98.145966,98.70647,63,34,0
98.70647,98.80444,71,34,0
98.70647,98.80444,68,27,0
98.70647,98.80444,64,27,0
99.0898,99.46457,71,41,0
99.0898,99.46457,68,33,0
99.0898,99.46457,64,33,0
99.83302,100.39483,74,75,0
99.83302,100.39483,71,73,0
100.39483,100.95533,75,75,0
100.39483,100.95533,72,62,0
100.95533,101.05331,74,75,0
100.95533,101.05331,71,72,0
101.34723,101.72674,74,75,0
101.34723,101.72674,71,48,0
101.72674,101.914116,74,40,0
101.914116,102.1015,76,37,0
102.1015,102.28889,78,45,0
102.28889,102.476265,74,38,0
102.1015,102.66365,67,34,0
102.476265,102.75619,78,38,0
102.75619,102.80245,76,34,0
102.80245,102.848724,78,34,0
102.848724,103.03379,76,43,0
103.03379,103.22415,72,38,0
102.66365,103.22415,66,34,0
103.22415,103.32212,74,34,0
103.22415,103.32212,71,27,0
103.22415,103.32212,67,27,0
103.60748,103.98767,74,41,0
103.60748,103.98767,71,33,0
103.60748,103.98767,67,33,0
103.98767,104.07825,74,43,0
104.07825,104.16882,76,43,0
104.16882,104.35864,78,38,0
104.16882,104.35864,72,30,0
104.16882,104.35864,69,30,0
104.36975,104.46773,74,34,0
104.36975,104.46773,71,27,0
104.36975,104.46773,67,27,0
104.74215,105.11692,71,33,0
104.74215,105.11692,67,33,0
104.74215,105.11692,74,41,0
105.11692,105.2075,74,43,0
105.2075,105.29808,76,43,0
105.29808,105.4879,77,38,0
105.29808,105.4879,72,30,0
105.29808,105.4879,69,30,0
105.678856,105.76944,74,43,0
105.76944,105.860016,76,43,0
105.860016,105.95466,78,38,0
105.860016,105.95466,72,30,0
105.860016,105.95466,69,30,0
106.24019,106.33077,74,43,0
106.33077,106.42135,76,43,0
106.42135,106.51599,77,38,0
106.42135,106.51599,72,30,0
106.42135,106.51599,69,30,0
106.80213,106.89271,74,43,0
106.89271,106.98329,76,43,0
106.98329,107.07583,78,38,0
106.98329,107.07583,72,30,0
106.98329,107.07583,69,30,0
107.35343,107.444016,74,43,0
107.444016,107.53459,76,43,0
107.53459,107.629234,77,38,0
107.53459,107.629234,72,30,0
107.53459,107.629234,69,30,0
107.915375,108.00595,77,43,0
108.00595,108.096535,79,43,0
108.096535,108.1885,81,38,0
108.096535,108.1885,74,30,0
108.096535,108.1885,72,30,0
108.4644,108.554985,77,43,0
108.554985,108.64556,79,43,0
108.64556,108.740204,81,38,0
108.64556,108.740204,74,30,0
108.64556,108.740204,71,30,0
109.026344,109.11692,76,43,0
109.11692,109.207504,77,43,0
109.207504,109.29975,79,38,0
109.207504,109.29975,72,30,0
109.207504,109.29975,71,30,0
109.57651,109.66708,76,43,0
109.66708,109.75767,77,43,0
109.75767,109.85231,79,37,0
109.75767,109.85231,72,29,0
109.75767,109.85231,71,29,0
110.13845,110.22903,76,41,0
110.22903,110.3196,77,41,0
110.3196,110.41214,79,36,0
110.3196,110.41214,72,28,0
110.3196,110.41214,69,28,0
110.68975,110.78033,76,39,0
110.78033,110.87091,77,39,0
110.87091,110.96857,79,34,0
110.87091,110.96857,72,27,0
110.87091,110.96857,69,27,0
111.25718,111.34776,74,37,0
111.34776,111.43834,76,37,0
111.43834,111.53298,77,33,0
111.43834,111.53298,71,26,0
111.43834,111.53298,69,26,0
111.81851,111.909096,74,36,0
111.909096,111.99967,76,36,0
111.99967,112.094315,77,31,0
111.99967,112.094315,71,24,0
111.99967,112.094315,69,24,0
112.380455,112.47103,74,34,0
112.47103,112.561615,76,34,0
112.561615,112.654434,77,30,0
112.561615,112.654434,71,23,0
112.561615,112.654434,67,23,0
112.9329,113.02348,74,32,0
113.02348,113.11406,76,32,0
113.11406,113.2087,77,28,0
113.11406,113.2087,71,22,0
113.11406,113.2087,67,22,0
113.49484,113.58542,72,30,0
113.58542,113.676,74,30,0
113.676,113.76854,76,26,0
113.676,113.76854,69,21,0
113.676,113.76854,67,21,0
114.04614,114.13672,72,29,0
114.13672,114.2273,74,29,0
114.2273,114.321945,76,25,0
114.2273,114.321945,69,20,0
114.2273,114.321945,67,20,0
114.608086,114.69866,72,27,0
114.69866,114.789246,74,27,0
114.789246,114.881775,76,24,0
114.789246,114.881775,69,19,0
114.789246,114.881775,65,19,0
116.8446,116.93517,71,27,0
116.93517,117.02576,72,27,0
117.02576,117.1204,74,24,0
117.02576,117.1204,69,19,0
117.02576,117.1204,65,19,0
120.02346,120.21442,74,16,0
120.02346,120.21442,67,14,0
120.77575,120.963135,84,32,0
120.963135,121.15052,86,29,0
121.15052,121.3379,88,36,0
121.3379,121.52528,84,30,0
121.52528,121.80521,88,30,0
121.80521,121.85147,86,27,0
121.85147,121.897736,88,27,0
121.897736,122.08281,86,34,0
122.08281,122.27316,84,30,0
122.27316,122.37114,88,32,0
122.6565,123.031265,88,39,0
123.031265,123.21865,84,32,0
123.21865,123.40603,86,29,0
123.40603,123.593414,88,36,0
123.593414,123.78079,84,30,0
123.78079,124.060715,88,30,0
124.060715,124.10698,86,27,0
124.10698,124.15325,88,27,0
124.15325,124.33832,86,34,0
124.33832,124.52868,84,30,0
124.52868,124.62665,88,32,0
124.91201,125.28677,88,39,0
125.65578,125.84316,89,24,0
125.65578,125.84316,93,24,0
125.65578,125.84316,96,28,0
126.217926,126.403,91,24,0
126.217926,126.403,95,28,0
126.217926,126.403,89,24,0
126.77843,126.97438,88,24,0
126.77843,126.97438,91,24,0
126.77843,126.97438,95,28,0
127.349144,127.53653,88,24,0
127.349144,127.53653,89,24,0
127.349144,127.53653,93,28,0
127.91129,128.093,86,24,0
127.91129,128.093,89,24,0
127.91129,128.093,93,28,0
128.47195,128.65703,88,24,0
128.47195,128.65703,91,28,0
128.47195,128.65703,86,24,0
129.03246,129.22841,84,24,0
129.03246,129.22841,88,24,0
129.03246,129.22841,91,28,0
129.60316,129.79056,84,24,0
129.60316,129.79056,86,24,0
129.60316,129.79056,89,28,0
130.16428,130.35225,83,24,0
130.16428,130.35225,86,24,0
130.16428,130.35225,89,28,0
130.7282,130.91327,84,24,0
130.7282,130.91327,88,28,0
130.7282,130.91327,83,24,0
131.28868,131.47607,81,24,0
131.28868,131.47607,84,24,0
131.28868,131.47607,88,28,0
131.85083,132.032,83,24,0
131.85083,132.032,86,28,0
131.85083,132.032,81,24,0
132.40799,132.59538,79,24,0
132.40799,132.59538,83,24,0
132.40799,132.59538,86,28,0
132.97014,133.15521,81,24,0
132.97014,133.15521,84,28,0
132.97014,133.15521,79,24,0
133.53064,133.7266,77,24,0
133.53064,133.7266,81,24,0
133.53064,133.7266,84,28,0
134.10136,134.28874,79,24,0
134.10136,134.28874,83,28,0
134.10136,134.28874,77,24,0
134.66417,134.85155,77,25,0
134.66417,134.85155,81,25,0
134.66417,134.85155,84,29,0
135.22632,135.41139,79,25,0
135.22632,135.41139,83,30,0
135.22632,135.41139,77,25,0
135.784,135.97995,76,25,0
135.784,135.97995,79,25,0
135.784,135.97995,83,30,0
136.35472,136.5421,77,26,0
136.35472,136.5421,81,31,0
136.35472,136.5421,76,26,0
136.91753,137.10492,74,27,0
136.91753,137.10492,77,27,0
136.91753,137.10492,81,31,0
137.47968,137.66139,76,28,0
137.47968,137.66139,79,33,0
137.47968,137.66139,74,28,0
138.03738,138.23334,72,28,0
138.03738,138.23334,76,28,0
138.03738,138.23334,79,33,0
138.60811,138.79549,74,28,0
138.60811,138.79549,77,34,0
138.60811,138.79549,72,28,0
139.16754,139.35493,71,30,0
139.16754,139.35493,74,30,0
139.16754,139.35493,77,35,0
139.72969,139.91476,72,30,0
139.72969,139.91476,76,36,0
139.72969,139.91476,71,30,0
140.29019,140.47758,69,31,0
140.29019,140.47758,72,31,0
140.29019,140.47758,76,37,0
140.85234,141.03741,71,33,0
140.85234,141.03741,74,40,0
140.85234,141.03741,69,33,0
141.41284,141.60022,69,35,0
141.41284,141.60022,72,35,0
141.41284,141.60022,76,41,0
141.97499,142.16006,71,37,0
141.97499,142.16006,74,44,0
141.97499,142.16006,69,37,0
142.53549,142.73145,65,40,0
142.53549,142.73145,69,40,0
142.53549,142.73145,72,47,0
143.1062,143.30475,67,42,0
143.1062,143.30475,71,50,0
143.1062,143.30475,65,42,0
143.69553,143.8835,65,44,0
143.69553,143.8835,69,44,0
143.69553,143.8835,72,52,0
144.25943,144.4445,67,44,0
144.25943,144.4445,71,52,0
144.25943,144.4445,65,44,0
144.81993,145.01588,64,44,0
144.81993,145.01588,67,44,0
144.81993,145.01588,71,52,0
145.39064,145.57803,65,44,0
145.39064,145.57803,69,52,0
145.39064,145.57803,64,44,0
145.96881,146.15677,62,44,0
145.96881,146.15677,65,44,0
145.96881,146.15677,69,52,0
146.53271,146.71779,64,44,0
146.53271,146.71779,67,52,0
146.53271,146.71779,62,44,0
147.09322,147.28915,60,44,0
147.09322,147.28915,64,44,0
147.09322,147.28915,67,52,0
147.66393,147.8513,62,44,0
147.66393,147.8513,65,52,0
147.66393,147.8513,60,44,0
148.24208,148.43005,59,44,0
148.24208,148.43005,62,44,0
148.24208,148.43005,65,52,0
148.806,148.99106,60,44,0
148.806,148.99106,64,52,0
148.806,148.99106,59,44,0
149.36649,149.55446,57,44,0
149.36649,149.55446,60,44,0
149.36649,149.55446,64,52,0
149.9304,150.11266,59,44,0
149.9304,150.11266,62,52,0
149.9304,150.11266,57,44,0
150.4896,150.67757,55,44,0
150.4896,150.67757,59,44,0
150.4896,150.67757,62,52,0
151.05351,151.23859,57,44,0
151.05351,151.23859,60,52,0
151.05351,151.23859,55,44,0
151.61401,151.80995,57,44,0
151.61401,151.80995,60,44,0
151.61401,151.80995,64,52,0
152.18472,152.38068,59,44,0
152.18472,152.38068,62,52,0
152.18472,152.38068,57,44,0
152.38068,152.45087,60,81,0
152.38068,152.45087,48,68,0
152.5812,152.65283,61,72,0
152.5812,152.65283,49,61,0
152.78584,152.83437,56,73,0
152.78584,152.83437,60,73,0
152.78584,152.85376,51,73,0
152.78584,152.85376,63,86,0
152.9799,153.04568,60,79,0
152.9799,153.04568,48,67,0
153.35583,153.54091,56,61,0
153.16786,153.54091,51,63,0
153.16786,153.54091,63,76,0
153.35583,153.54091,53,61,0
153.54091,153.60568,61,81,0
153.54091,153.60568,49,68,0
153.72598,153.7926,60,72,0
153.72598,153.7926,48,61,0
153.91634,154.01431,63,77,0
153.91634,154.01431,60,64,0
153.91634,154.01431,56,64,0
153.91634,154.01431,51,64,0
154.48705,154.67444,56,61,0
154.29967,154.67444,51,79,0
154.29967,154.67444,63,93,0
154.48705,154.67444,53,61,0
154.67444,154.7417,60,81,0
154.67444,154.7417,48,68,0
154.86662,154.93565,61,72,0
154.86662,154.93565,49,61,0
155.06386,155.11237,56,73,0
155.06386,155.11237,60,73,0
155.06386,155.13177,51,73,0
155.06386,155.13177,63,86,0
155.2579,155.3237,60,79,0
155.2579,155.3237,48,67,0
155.63385,155.81892,56,61,0
155.44588,155.81892,51,63,0
155.44588,155.81892,63,76,0
155.63385,155.81892,53,61,0
155.81892,155.8837,61,81,0
155.81892,155.8837,49,68,0
156.00398,156.07062,60,72,0
156.00398,156.07062,48,61,0
156.19435,156.29231,63,77,0
156.19435,156.29231,60,64,0
156.19435,156.29231,56,64,0
156.19435,156.29231,51,64,0
156.76506,156.95848,56,61,0
156.57768,156.95848,51,79,0
156.57768,156.95848,63,93,0
156.76506,156.95848,53,61,0
156.95848,157.02867,60,89,0
156.95848,157.02867,48,74,0
157.15903,157.23343,62,79,0
157.15903,157.23343,50,67,0
157.37163,157.42015,55,68,0
157.37163,157.42015,60,80,0
157.37163,157.43954,52,68,0
157.37163,157.43954,64,94,0
157.56569,157.63147,60,86,0
157.56569,157.63147,48,73,0
157.94162,158.1267,57,67,0
157.75365,158.1267,52,69,0
157.75365,158.1267,64,83,0
157.94162,158.1267,53,67,0
158.1267,158.19147,62,89,0
158.1267,158.19147,50,74,0
158.31177,158.37839,60,79,0
158.31177,158.37839,48,67,0
158.50212,158.60341,64,84,0
158.50212,158.60341,60,70,0
158.50212,158.60341,55,70,0
158.50212,158.60341,52,70,0
159.07945,159.26683,57,67,0
158.89207,159.26683,52,83,0
158.89207,159.26683,64,98,0
159.07945,159.26683,53,67,0
159.26683,159.3341,60,89,0
159.26683,159.3341,48,74,0
159.45901,159.52806,62,79,0
159.45901,159.52806,50,67,0
159.65627,159.70477,55,80,0
159.65627,159.70477,60,80,0
159.65627,159.72418,52,80,0
159.65627,159.72418,64,94,0
159.85031,159.91609,60,86,0
159.85031,159.91609,48,73,0
160.22624,160.41132,57,67,0
160.03828,160.41132,52,69,0
160.03828,160.41132,64,83,0
160.22624,160.41132,53,67,0
160.41132,160.47609,62,89,0
160.41132,160.47609,50,74,0
160.59639,160.66301,60,79,0
160.59639,160.66301,48,67,0
160.78674,160.88837,64,84,0
160.78674,160.88837,60,70,0
160.78674,160.88837,55,70,0
160.78674,160.88837,52,70,0
161.36476,161.55214,57,67,0
161.17738,161.55214,52,83,0
161.17738,161.55214,64,98,0
161.36476,161.55214,53,67,0
161.55214,161.60051,60,70,0
161.55214,161.60051,48,70,0
161.74557,161.79639,62,70,0
161.74557,161.79639,50,70,0
163.47856,163.8516,52,58,0
163.8516,163.91866,48,62,0
164.04317,164.11313,50,55,0
166.23871,166.42609,60,40,0
166.42609,166.61346,62,37,0
166.61346,166.80086,64,45,0
166.80086,166.98824,60,38,0
166.61346,167.17561,53,34,0
166.98824,167.26816,64,38,0
167.26816,167.31442,62,34,0
167.31442,167.36069,64,34,0
167.36069,167.54576,62,43,0
167.54576,167.73611,59,42,0
167.17561,167.73611,55,34,0
167.73611,167.83409,60,47,0
168.11945,168.44737,60,49,0
168.49422,168.6816,60,40,0
168.6816,168.86899,62,37,0
168.86899,169.05463,64,45,0
169.05463,169.24438,60,38,0
168.86899,169.43176,53,34,0
169.24438,169.52429,64,38,0
169.52429,169.57057,62,34,0
169.57057,169.61684,64,34,0
169.61684,169.80191,62,43,0
169.80191,169.99226,59,42,0
169.43176,169.99226,55,34,0
169.99226,170.09024,60,47,0
170.3756,170.75037,60,49,0
170.75037,170.93542,62,43,0
170.93542,171.1258,64,42,0
171.1258,171.22375,60,47,0
171.50912,171.88388,60,49,0
171.88388,172.06895,59,43,0
172.06895,172.25931,55,42,0
172.25931,172.35728,60,47,0
172.65121,173.02599,60,41,0
173.02599,173.21104,62,36,0
173.21104,173.40141,64,35,0
172.8386,173.40141,53,34,0
173.40141,173.49937,60,39,0
173.40141,173.97212,52,34,0
173.78474,174.1595,60,34,0
174.1595,174.34457,59,30,0
174.34457,174.53493,55,29,0
173.97212,174.53493,50,28,0
174.53493,174.6329,60,33,0
174.53493,174.6329,52,28,0
174.92184,175.68568,60,33,0
174.92184,175.68568,52,28,0
175.68568,175.78836,64,23,0
175.68568,175.78836,72,28,0
176.0909,176.91011,64,23,0
176.0909,176.91011,72,28,0
176.91011,177.03247,84,23,0
176.91011,177.03247,76,19,0
177.42125,180.61841,84,23,0
177.42125,180.61841,76,19,0
0.0,0.574713,60,96,0
0.574713,1.136862,59,32,0
1.136862,1.699011,57,33,0
1.699011,2.2595086,59,27,0
2.2595086,2.830225,55,31,0
2.830225,3.386612,57,29,0
3.386612,3.944771,53,33,0
3.944771,4.5046663,52,27,0
4.5046663,5.073056,50,31,0
5.073056,5.6318445,52,27,0
0.0,5.6318445,48,40,0
5.6318445,6.1936507,50,33,0
6.1936507,6.763729,48,27,0
6.763729,7.3321185,50,29,0
7.3321185,7.9069414,48,22,0
5.6318445,7.9069414,43,28,0
7.9069414,8.527745,50,23,0
7.9069414,8.527745,43,19,0
8.527745,9.135444,38,23,0
8.527745,9.135444,31,19,0
9.135444,9.710156,60,96,0
9.710156,10.2723055,59,32,0
10.2723055,10.834455,57,33,0
10.834455,11.394952,59,27,0
11.394952,11.965669,55,31,0
11.965669,12.522056,57,29,0
12.522056,13.0802145,53,33,0
13.0802145,13.64011,52,27,0
13.64011,14.2085,50,31,0
14.2085,14.767288,52,27,0
9.135444,14.767288,48,40,0
14.767288,15.329094,50,33,0
15.329094,15.899173,48,27,0
15.899173,16.467562,50,29,0
16.467562,17.042385,48,22,0
14.767288,17.042385,43,28,0
17.042385,17.663189,50,23,0
17.042385,17.663189,43,19,0
17.663189,18.270887,38,23,0
17.663189,18.270887,31,19,0
18.270887,19.104284,50,26,0
18.270887,19.104284,43,22,0
19.104284,19.197977,62,79,0
19.291668,19.385359,64,73,0
19.479052,19.571302,65,89,0
19.663553,19.755804,62,74,0
19.848055,20.130344,65,74,0
20.130344,20.17661,64,67,0
20.17661,20.22288,65,67,0
20.22288,20.315414,64,84,0
20.407951,20.503128,63,74,0
20.598307,21.17996,64,74,0
21.17996,21.369715,52,50,0
21.17996,21.369715,59,54,0
21.74448,22.30663,56,33,0
22.30663,22.867126,57,27,0
21.74448,22.867126,47,28,0
22.867126,23.437843,59,26,0
22.867126,23.437843,52,22,0
23.437843,23.625225,47,26,0
23.437843,23.625225,40,22,0
23.625225,23.717762,65,79,0
23.810297,23.902832,67,73,0
23.995367,24.087055,68,89,0
24.178741,24.27043,65,74,0
24.362116,24.644405,68,74,0
24.644405,24.690672,67,67,0
24.690672,24.73694,68,67,0
24.73694,24.829475,67,84,0
24.922012,25.017189,66,74,0
25.112368,25.694021,67,74,0
25.694021,25.883776,55,50,0
25.694021,25.883776,62,54,0
26.258541,26.82069,59,33,0
26.82069,27.381187,60,27,0
26.258541,27.381187,50,28,0
27.381187,27.951904,62,26,0
27.381187,27.951904,55,22,0
27.951904,28.325865,50,26,0
27.951904,28.325865,43,22,0
28.526789,29.097506,62,26,0
28.526789,29.097506,55,22,0
29.097506,29.465685,50,26,0
29.097506,29.465685,43,22,0
29.656075,30.027624,62,26,0
29.656075,30.027624,55,22,0
30.21798,30.588959,50,26,0
30.21798,30.588959,43,22,0
30.779348,31.150898,62,26,0
30.779348,31.150898,55,22,0
31.341253,31.712233,50,26,0
31.341253,31.712233,43,22,0
31.902622,32.27457,62,26,0
31.902622,32.27457,55,22,0
32.464924,32.836266,50,26,0
32.464924,32.836266,43,22,0
33.01272,33.38484,48,22,0
33.01272,33.38484,55,26,0
33.571056,33.93844,36,22,0
33.571056,33.93844,43,26,0
34.128258,34.500378,53,21,0
34.128258,34.500378,60,25,0
34.690197,35.06171,41,20,0
34.690197,35.06171,48,24,0
35.262245,35.634365,47,19,0
35.262245,35.634365,53,23,0
35.824184,36.1957,35,18,0
35.824184,36.1957,41,22,0
36.38552,36.754063,52,18,0
36.38552,36.754063,59,21,0
36.939133,37.305363,40,17,0
36.939133,37.305363,47,20,0
37.495182,37.867302,45,16,0
37.495182,37.867302,52,19,0
38.05124,38.416336,33,15,0
38.05124,38.416336,40,18,0
38.606155,38.972958,50,14,0
38.606155,38.972958,57,16,0
39.1586,39.525402,38,14,0
39.1586,39.525402,45,16,0
39.71522,40.08734,50,14,0
39.71522,40.08734,57,16,0
40.27716,40.648678,38,14,0
40.27716,40.648678,45,16,0
40.838497,41.210617,43,14,0
40.838497,41.210617,50,16,0
41.400436,41.59079,31,14,0
41.400436,41.59079,38,16,0
41.96177,42.15273,43,14,0
41.96177,42.15273,50,16,0
42.52371,42.714066,31,14,0
42.52371,42.714066,38,16,0
43.085045,43.276005,43,14,0
43.085045,43.276005,50,16,0
43.646984,43.837337,55,14,0
43.646984,43.837337,62,16,0
44.770256,44.960613,79,14,0
44.770256,44.960613,86,16,0
45.335377,45.42907,79,26,0
45.897526,45.990063,79,21,0
46.458023,46.556,79,24,0
47.02874,47.122433,79,24,0
47.592155,47.686142,91,26,0
48.156067,48.2486,91,21,0
48.716564,48.814537,91,24,0
49.28728,49.38097,91,24,0
49.474663,49.662045,84,35,0
49.662045,49.84943,86,31,0
49.84943,50.0345,88,39,0
50.0345,50.22247,84,33,0
50.22247,50.502975,88,33,0
50.502975,50.549244,86,29,0
50.549244,50.595512,88,29,0
50.595512,50.780582,86,37,0
50.780582,50.970936,83,33,0
50.970936,51.068913,86,35,0
51.35427,51.72904,84,42,0
51.72904,51.91354,81,35,0
51.91354,52.1021,83,31,0
52.1021,52.289482,84,39,0
52.289482,52.476864,81,33,0
52.476864,52.756783,84,33,0
52.756783,52.80305,83,29,0
52.80305,52.84932,84,29,0
52.84932,53.03439,83,37,0
53.03439,53.224747,79,33,0
53.224747,53.32272,83,35,0
53.608078,53.982845,81,42,0
53.982845,54.170227,77,35,0
54.170227,54.357613,79,31,0
54.357613,54.540985,81,39,0
54.540985,54.73014,77,33,0
54.73014,55.01183,81,33,0
55.01183,55.058098,79,29,0
55.058098,55.104366,81,29,0
55.104366,55.289436,79,37,0
55.289436,55.479794,76,33,0
55.479794,55.667175,79,39,0
55.667175,55.854557,76,33,0
55.854557,56.134476,79,33,0
56.134476,56.180744,77,29,0
56.180744,56.227013,79,29,0
56.227013,56.412083,77,37,0
56.412083,56.60244,74,33,0
56.60244,56.7847,77,39,0
56.7847,56.972084,74,33,0
56.972084,57.252,77,33,0
57.252,57.298267,76,29,0
57.298267,57.344536,77,29,0
57.344536,57.529606,76,37,0
57.529606,57.719963,72,33,0
57.719963,57.81794,76,35,0
58.103294,58.47806,74,42,0
58.47806,58.66313,72,37,0
58.66313,58.85349,74,33,0
58.85349,59.04087,76,41,0
59.04087,59.228256,72,34,0
59.228256,59.508175,76,34,0
59.508175,59.55444,74,31,0
59.55444,59.600708,76,31,0
59.600708,59.785778,74,39,0
59.785778,59.976135,71,34,0
59.976135,60.074112,74,38,0
60.35947,60.734234,72,46,0
60.734234,60.919304,69,42,0
60.919304,61.10966,71,37,0
61.10966,61.293034,72,44,0
61.293034,61.481594,69,37,0
61.481594,61.76269,72,37,0
61.76269,61.80896,71,34,0
61.80896,61.85523,72,34,0
61.85523,62.0403,71,43,0
62.0403,62.23065,67,39,0
62.23065,62.32863,71,41,0
62.613987,62.988754,69,51,0
62.988754,63.173824,65,45,0
63.173824,63.365395,67,40,0
63.365395,63.549896,69,49,0
63.549896,63.737865,65,40,0
63.737865,64.01837,69,41,0
64.01837,64.064644,67,37,0
64.064644,64.11091,69,37,0
64.11091,64.29598,67,48,0
64.29598,64.486336,64,42,0
64.486336,64.67372,67,52,0
64.67372,64.8611,64,44,0
64.8611,65.14102,67,44,0
65.14102,65.18729,65,41,0
65.18729,65.23355,67,41,0
65.23355,65.418625,65,53,0
65.418625,65.60898,62,47,0
65.60898,65.796364,65,58,0
65.796364,65.98375,62,50,0
65.98375,66.263664,65,50,0
66.263664,66.30994,64,47,0
66.30994,66.3562,65,47,0
66.3562,66.541275,64,59,0
66.541275,66.73163,60,54,0
66.73163,66.829605,64,58,0
67.11496,67.500885,62,75,0
67.500885,67.56794,60,74,0
67.500885,67.56794,48,62,0
67.69246,67.76218,62,66,0
67.69246,67.76218,50,56,0
67.89166,67.95808,64,79,0
67.89166,67.95808,52,67,0
68.08141,68.14783,60,66,0
68.08141,68.14783,48,56,0
68.27117,68.645996,64,66,0
68.27117,68.645996,52,56,0
68.645996,68.71077,62,74,0
68.645996,68.71077,50,62,0
68.83106,68.89769,59,66,0
68.83106,68.89769,47,56,0
69.02142,69.11939,62,70,0
69.02142,69.11939,50,59,0
69.404755,69.77952,60,85,0
69.404755,69.77952,48,72,0
69.77952,69.84657,57,74,0
69.77952,69.84657,45,62,0
69.97109,70.04081,59,66,0
69.97109,70.04081,47,56,0
70.170296,70.236084,60,79,0
70.170296,70.236084,48,67,0
70.35826,70.42406,57,66,0
70.35826,70.42406,45,56,0
70.546234,70.91927,60,66,0
70.546234,70.91927,48,56,0
70.91927,70.98405,59,74,0
70.91927,70.98405,47,62,0
71.10435,71.17097,55,66,0
71.10435,71.17097,43,56,0
71.2947,71.39268,59,70,0
71.2947,71.39268,47,59,0
71.67803,72.0528,57,82,0
71.67803,72.0528,45,69,0
72.0528,72.11985,53,74,0
72.0528,72.11985,41,62,0
72.24437,72.314095,55,66,0
72.24437,72.314095,43,56,0
72.44357,72.50936,57,79,0
72.44357,72.50936,45,67,0
72.631546,72.697334,53,66,0
72.631546,72.697334,41,56,0
72.81951,73.19256,57,66,0
72.81951,73.19256,45,56,0
73.19256,73.25733,55,74,0
73.19256,73.25733,43,62,0
73.377625,73.44425,52,66,0
73.377625,73.44425,40,56,0
73.567986,73.63236,55,79,0
73.567986,73.63236,43,67,0
73.751915,73.81792,52,66,0
73.751915,73.81792,40,56,0
73.940475,74.31411,55,66,0
73.940475,74.31411,43,56,0
74.31411,74.37888,53,74,0
74.31411,74.37888,41,62,0
74.49918,74.5658,50,66,0
74.49918,74.5658,38,56,0
74.68954,74.755325,53,79,0
74.68954,74.755325,41,67,0
74.87751,74.9433,50,66,0
74.87751,74.9433,38,56,0
75.065475,75.438515,53,66,0
75.065475,75.438515,41,56,0
75.438515,75.503296,52,74,0
75.438515,75.503296,40,62,0
75.62359,75.690216,48,66,0
75.62359,75.690216,36,56,0
75.81394,75.91192,52,70,0
75.81394,75.91192,40,59,0
76.19728,76.58061,50,85,0
76.19728,76.58061,38,72,0
76.98579,77.17983,44,62,0
76.98579,77.17983,39,49,0
76.98579,77.17983,32,49,0
77.55577,77.740845,29,44,0
77.55577,77.740845,32,44,0
77.55577,77.740845,41,55,0
78.11627,78.312225,44,62,0
78.11627,78.312225,39,49,0
78.11627,78.312225,32,49,0
78.68699,78.874374,29,45,0
78.68699,78.874374,32,45,0
78.68699,78.874374,41,57,0
79.263794,79.45784,44,62,0
79.263794,79.45784,39,49,0
79.263794,79.45784,32,49,0
79.833786,80.01885,29,44,0
79.833786,80.01885,32,44,0
79.833786,80.01885,41,55,0
80.39428,80.59023,44,62,0
80.39428,80.59023,39,49,0
80.39428,80.59023,32,49,0
80.965,81.15842,29,45,0
80.965,81.15842,32,45,0
80.965,81.15842,41,57,0
81.57157,81.76562,48,68,0
81.57157,81.76562,43,53,0
81.57157,81.76562,36,53,0
82.141556,82.32663,29,48,0
82.141556,82.32663,36,48,0
82.141556,82.32663,41,60,0
82.70206,82.904625,48,68,0
82.70206,82.904625,43,53,0
82.70206,82.904625,36,53,0
83.27939,83.466774,29,49,0
83.27939,83.466774,36,49,0
83.27939,83.466774,41,62,0
83.85619,84.05025,48,68,0
83.85619,84.05025,43,53,0
83.85619,84.05025,36,53,0
84.426186,84.61125,29,48,0
84.426186,84.61125,36,48,0
84.426186,84.61125,41,60,0
84.98668,85.18993,48,68,0
84.98668,85.18993,43,53,0
84.98668,85.18993,36,53,0
85.5647,85.75208,29,49,0
85.5647,85.75208,36,49,0
85.5647,85.75208,41,62,0
86.142715,86.34597,48,57,0
86.142715,86.34597,43,45,0
86.142715,86.34597,36,45,0
86.72132,86.906395,29,41,0
86.72132,86.906395,36,41,0
86.72132,86.906395,41,52,0
87.28182,87.48507,48,47,0
87.28182,87.48507,43,37,0
87.28182,87.48507,36,37,0
87.86043,88.045494,29,34,0
87.86043,88.045494,36,34,0
87.86043,88.045494,41,43,0
88.436935,88.647316,48,34,0
88.436935,88.647316,43,26,0
88.436935,88.647316,36,26,0
89.05659,89.26123,29,24,0
89.05659,89.26123,36,24,0
89.05659,89.26123,41,31,0
89.6705,90.24522,48,35,0
90.24522,90.807365,47,32,0
90.807365,91.369514,45,33,0
91.369514,91.930016,47,27,0
89.6705,91.930016,36,40,0
91.930016,92.50073,48,31,0
92.50073,93.06288,47,27,0
93.06288,93.62503,45,33,0
93.62503,94.185524,47,27,0
91.930016,94.185524,36,40,0
94.185524,94.94363,48,31,0
94.185524,94.94363,36,40,0
94.94363,95.037315,62,79,0
95.131004,95.2247,64,73,0
95.31839,95.410645,65,89,0
95.50289,95.595146,62,74,0
95.68739,95.96968,65,74,0
95.96968,96.01595,64,67,0
96.01595,96.06222,65,67,0
96.06222,96.154755,64,84,0
96.24729,96.34247,63,74,0
96.437645,97.0193,64,74,0
97.0193,97.20905,52,50,0
97.0193,97.20905,59,54,0
97.58382,98.145966,56,33,0
98.145966,98.70647,57,27,0
97.58382,98.70647,47,28,0
98.70647,99.27718,59,26,0
98.70647,99.27718,52,22,0
99.27718,99.46457,47,26,0
99.27718,99.46457,40,22,0
99.46457,99.55739,65,79,0
99.65021,99.741615,67,73,0
99.83302,99.92528,68,89,0
100.017525,100.10978,65,74,0
100.20203,100.487366,68,74,0
100.487366,100.53363,67,67,0
100.53363,100.5799,68,67,0
100.5799,100.67244,67,84,0
100.76498,100.86015,66,74,0
100.95533,101.53698,67,74,0
101.53698,101.72674,55,50,0
101.53698,101.72674,62,54,0
102.1015,102.66365,59,33,0
102.66365,103.22415,60,27,0
102.1015,103.22415,50,28,0
103.22415,103.79487,62,26,0
103.22415,103.79487,55,22,0
103.79487,104.16882,50,26,0
103.79487,104.16882,43,22,0
104.36975,104.94047,62,26,0
104.36975,104.94047,55,22,0
104.94047,105.30865,50,26,0
104.94047,105.30865,43,22,0
105.49904,105.87058,62,26,0
105.49904,105.87058,55,22,0
106.06094,106.43192,50,26,0
106.06094,106.43192,43,22,0
106.62231,106.99409,62,26,0
106.62231,106.99409,55,22,0
107.17916,107.54516,50,26,0
107.17916,107.54516,43,22,0
107.73555,108.10726,62,26,0
107.73555,108.10726,55,22,0
108.2912,108.65613,50,26,0
108.2912,108.65613,43,22,0
108.83538,109.207504,48,22,0
108.83538,109.207504,55,26,0
109.392006,109.75767,36,22,0
109.392006,109.75767,43,26,0
109.94749,110.3196,53,21,0
109.94749,110.3196,60,25,0
110.50468,110.87091,41,20,0
110.50468,110.87091,48,24,0
111.06622,111.43834,47,19,0
111.06622,111.43834,53,23,0
111.62816,111.99967,35,18,0
111.62816,111.99967,41,22,0
112.18949,112.561615,52,18,0
112.18949,112.561615,59,21,0
112.74726,113.11406,40,17,0
112.74726,113.11406,47,20,0
113.30388,113.676,45,16,0
113.30388,113.676,52,19,0
113.86107,114.2273,33,15,0
113.86107,114.2273,40,18,0
114.41712,114.789246,50,14,0
114.41712,114.789246,57,16,0
114.97431,115.340546,38,14,0
114.97431,115.340546,45,16,0
115.530365,115.90248,50,14,0
115.530365,115.90248,57,16,0
116.0923,116.46381,38,14,0
116.0923,116.46381,45,16,0
116.65363,117.02576,43,14,0
116.65363,117.02576,50,16,0
117.215576,117.40593,31,14,0
117.215576,117.40593,38,16,0
117.77691,117.96787,43,14,0
117.77691,117.96787,50,16,0
118.33885,118.529205,31,14,0
118.33885,118.529205,38,16,0
118.900185,119.09114,43,14,0
118.900185,119.09114,50,16,0
119.46212,119.65248,55,14,0
119.46212,119.65248,62,16,0
120.585396,120.77575,79,14,0
120.585396,120.77575,86,16,0
121.15052,121.24421,79,26,0
121.71267,121.80521,79,21,0
122.27316,122.37114,79,24,0
122.84388,122.93758,79,24,0
123.40603,123.49972,91,26,0
123.96818,124.060715,91,21,0
124.52868,124.62665,91,24,0
125.099396,125.193085,91,24,0
125.28677,125.471275,84,35,0
125.471275,125.65578,86,31,0
125.65578,125.84316,88,39,0
125.84316,126.03055,84,33,0
126.03055,126.31046,88,33,0
126.31046,126.356735,86,29,0
126.356735,126.403,88,29,0
126.403,126.58807,86,37,0
126.58807,126.77843,83,33,0
126.77843,126.8764,86,35,0
127.16176,127.53653,84,42,0
127.53653,127.72391,81,35,0
127.72391,127.91129,83,31,0
127.91129,128.093,84,39,0
128.093,128.28458,81,33,0
128.28458,128.56448,84,33,0
128.56448,128.61076,83,29,0
128.61076,128.65703,84,29,0
128.65703,128.8421,83,37,0
128.8421,129.03246,79,33,0
129.03246,129.13043,83,35,0
129.41579,129.79056,81,42,0
129.79056,129.97392,77,35,0
129.97392,130.16428,79,31,0
130.16428,130.35225,81,39,0
130.35225,130.54022,77,33,0
130.54022,130.82072,81,33,0
130.82072,130.86699,79,29,0
130.86699,130.91327,81,29,0
130.91327,131.09833,79,37,0
131.09833,131.28868,76,33,0
131.28868,131.47607,79,39,0
131.47607,131.66345,76,33,0
131.66345,131.94142,79,33,0
131.94142,131.98671,77,29,0
131.98671,132.032,79,29,0
132.032,132.21764,77,37,0
132.21764,132.40799,74,33,0
132.40799,132.59538,77,39,0
132.59538,132.78276,74,33,0
132.78276,133.06268,77,33,0
133.06268,133.10895,76,29,0
133.10895,133.15521,77,29,0
133.15521,133.34029,76,37,0
133.34029,133.53064,72,33,0
133.53064,133.62862,76,35,0
133.91397,134.28874,74,42,0
134.28874,134.47382,72,37,0
134.47382,134.66417,74,33,0
134.66417,134.85155,76,41,0
134.85155,135.03894,72,34,0
135.03894,135.31885,76,34,0
135.31885,135.36513,74,31,0
135.36513,135.41139,76,31,0
135.41139,135.59364,74,39,0
135.59364,135.784,71,34,0
135.784,135.88197,74,38,0
136.16734,136.5421,72,46,0
136.5421,136.72717,69,42,0
136.72717,136.91753,71,37,0
136.91753,137.10492,72,44,0
137.10492,137.2923,69,37,0
137.2923,137.57053,72,37,0
137.57053,137.61597,71,34,0
137.61597,137.66139,72,34,0
137.66139,137.84703,71,43,0
137.84703,138.03738,67,39,0
138.03738,138.13536,71,41,0
138.42072,138.79549,69,51,0
138.79549,138.97719,65,45,0
138.97719,139.16754,67,40,0
139.16754,139.35493,69,49,0
139.35493,139.54231,65,40,0
139.54231,139.82224,69,41,0
139.82224,139.8685,67,37,0
139.8685,139.91476,69,37,0
139.91476,140.09984,67,48,0
140.09984,140.29019,64,42,0
140.29019,140.47758,67,52,0
140.47758,140.66496,64,44,0
140.66496,140.94489,67,44,0
140.94489,140.99115,65,41,0
140.99115,141.03741,67,41,0
141.03741,141.22249,65,53,0
141.22249,141.41284,62,47,0
141.41284,141.60022,65,58,0
141.60022,141.78761,62,50,0
141.78761,142.06752,65,50,0
142.06752,142.1138,64,47,0
142.1138,142.16006,65,47,0
142.16006,142.34514,64,59,0
142.34514,142.53549,60,54,0
142.53549,142.63347,64,58,0
142.91882,143.30475,62,75,0
143.30475,143.3718,60,74,0
143.30475,143.3718,48,62,0
143.49632,143.56604,62,66,0
143.49632,143.56604,50,56,0
143.69553,143.7613,64,79,0
143.69553,143.7613,52,67,0
143.8835,143.94928,60,66,0
143.8835,143.94928,48,56,0
144.07146,144.4445,64,66,0
144.07146,144.4445,52,56,0
144.4445,144.50928,62,74,0
144.4445,144.50928,50,62,0
144.62958,144.6962,59,66,0
144.62958,144.6962,47,56,0
144.81993,144.91791,62,70,0
144.81993,144.91791,50,59,0
145.20326,145.57803,60,85,0
145.20326,145.57803,48,72,0
145.57803,145.64508,57,74,0
145.57803,145.64508,45,62,0
145.7696,145.83932,59,66,0
145.7696,145.83932,47,56,0
145.96881,146.03459,60,79,0
145.96881,146.03459,48,67,0
146.15677,146.22256,57,66,0
146.15677,146.22256,45,56,0
146.34474,146.71779,60,66,0
146.34474,146.71779,48,56,0
146.71779,146.78256,59,74,0
146.71779,146.78256,47,62,0
146.90286,146.96948,55,66,0
146.90286,146.96948,43,56,0
147.09322,147.1912,59,70,0
147.09322,147.1912,47,59,0
147.47655,147.8513,57,82,0
147.47655,147.8513,45,69,0
147.8513,147.91837,53,74,0
147.8513,147.91837,41,62,0
148.04288,148.11261,55,66,0
148.04288,148.11261,43,56,0
148.24208,148.30788,57,79,0
148.24208,148.30788,45,67,0
148.43005,148.49585,53,66,0
148.43005,148.49585,41,56,0
148.61803,148.99106,57,66,0
148.61803,148.99106,45,56,0
148.99106,149.05585,55,74,0
148.99106,149.05585,43,62,0
149.17613,149.24277,52,66,0
149.17613,149.24277,40,56,0
149.36649,149.43228,55,79,0
149.36649,149.43228,43,67,0
149.55446,149.62025,52,66,0
149.55446,149.62025,40,56,0
149.74243,150.11266,55,66,0
149.74243,150.11266,43,56,0
150.11266,150.17645,53,74,0
150.11266,150.17645,41,62,0
150.29492,150.36305,50,66,0
150.29492,150.36305,38,56,0
150.4896,150.55539,53,79,0
150.4896,150.55539,41,67,0
150.67757,150.74336,50,66,0
150.67757,150.74336,38,56,0
150.86554,151.23859,53,66,0
150.86554,151.23859,41,56,0
151.23859,151.30336,52,74,0
151.23859,151.30336,40,62,0
151.42366,151.49028,48,66,0
151.42366,151.49028,36,56,0
151.61401,151.71199,52,70,0
151.61401,151.71199,40,59,0
151.99734,152.38068,50,85,0
151.99734,152.38068,38,72,0
152.78584,152.9799,44,62,0
152.78584,152.9799,39,49,0
152.78584,152.9799,32,49,0
153.35583,153.54091,29,44,0
153.35583,153.54091,32,44,0
153.35583,153.54091,41,55,0
153.91634,154.11229,44,62,0
153.91634,154.11229,39,49,0
153.91634,154.11229,32,49,0
154.48705,154.67444,29,45,0
154.48705,154.67444,32,45,0
154.48705,154.67444,41,57,0
155.06386,155.2579,44,62,0
155.06386,155.2579,39,49,0
155.06386,155.2579,32,49,0
155.63385,155.81892,29,44,0
155.63385,155.81892,32,44,0
155.63385,155.81892,41,55,0
156.19435,156.39029,44,62,0
156.19435,156.39029,39,49,0
156.19435,156.39029,32,49,0
156.76506,156.95848,29,45,0
156.76506,156.95848,32,45,0
156.76506,156.95848,41,57,0
157.37163,157.56569,48,68,0
157.37163,157.56569,43,53,0
157.37163,157.56569,36,53,0
157.94162,158.1267,29,48,0
157.94162,158.1267,36,48,0
157.94162,158.1267,41,60,0
158.50212,158.70468,48,68,0
158.50212,158.70468,43,53,0
158.50212,158.70468,36,53,0
159.07945,159.26683,29,49,0
159.07945,159.26683,36,49,0
159.07945,159.26683,41,62,0
159.65627,159.85031,48,68,0
159.65627,159.85031,43,53,0
159.65627,159.85031,36,53,0
160.22624,160.41132,29,48,0
160.22624,160.41132,36,48,0
160.22624,160.41132,41,60,0
160.78674,160.98999,48,68,0
160.78674,160.98999,43,53,0
160.78674,160.98999,36,53,0
161.36476,161.55214,29,49,0
161.36476,161.55214,36,49,0
161.36476,161.55214,41,62,0
161.94882,162.15207,48,57,0
161.94882,162.15207,43,45,0
161.94882,162.15207,36,45,0
162.52742,162.7125,29,41,0
162.52742,162.7125,36,41,0
162.52742,162.7125,41,52,0
163.08792,163.29118,48,47,0
163.08792,163.29118,43,37,0
163.08792,163.29118,36,37,0
163.66653,163.8516,29,34,0
163.66653,163.8516,36,34,0
163.66653,163.8516,41,43,0
164.24304,164.45341,48,34,0
164.24304,164.45341,43,26,0
164.24304,164.45341,36,26,0
164.8627,165.06734,29,24,0
164.8627,165.06734,36,24,0
164.8627,165.06734,41,31,0
165.47661,166.05132,48,35,0
166.05132,166.61346,47,32,0
166.61346,167.17561,45,33,0
167.17561,167.73611,47,27,0
165.47661,167.73611,36,40,0
167.73611,168.30684,48,31,0
168.30684,168.86899,47,27,0
168.86899,169.43176,45,33,0
169.43176,169.99226,47,27,0
167.73611,169.99226,36,40,0
169.99226,170.56297,48,31,0
169.99226,170.56297,36,40,0
170.56297,171.1258,77,36,0
170.56297,171.1258,72,27,0
170.56297,171.1258,69,27,0
171.1258,171.6965,76,40,0
171.1258,171.6965,72,31,0
171.1258,171.6965,67,31,0
171.6965,172.25931,74,36,0
171.6965,172.25931,72,27,0
171.6965,172.25931,65,27,0
172.25931,172.8386,72,40,0
172.25931,172.8386,64,31,0
172.8386,173.40141,45,30,0
173.40141,173.97212,43,34,0
173.97212,174.53493,41,25,0
174.53493,175.11281,43,28,0
172.8386,175.11281,36,22,0
175.11281,176.29076,43,22,0
175.11281,176.29076,36,22,0
176.29076,177.68767,55,18,0
176.29076,177.68767,48,18,0
177.68767,180.61841,67,15,0
177.68767,180.61841,60,15,0
