start_time,end_time,note_value,velocity,instrument_program_number
0.0,0.313851,69,42,0
0.313851,0.413064,67,31,0
0.413064,0.512277,65,31,0
0.512277,0.62524575,67,31,0
0.0,0.62524575,57,34,0
0.62524575,1.0437138,69,36,0
1.0437138,1.261778,65,36,0
0.62524575,1.261778,58,30,0
1.261778,1.5768597,69,42,0
1.5768597,1.6760727,67,32,0
1.6760727,1.7752857,65,32,0
1.7752857,1.8892155,67,32,0
1.261778,1.8892155,60,34,0
1.8892155,2.4975762,69,36,0
1.8892155,2.4975762,58,30,0
2.5540605,2.8716104,72,45,0
2.8716104,2.9708235,74,38,0
2.9708235,3.0700364,76,42,0
3.0700364,3.1692495,74,38,0
2.5540605,3.1692495,65,36,0
3.1692495,3.5926495,65,38,0
3.1692495,3.5926495,72,47,0
3.5926495,3.832707,68,42,0
3.5926495,3.832707,64,42,0
3.832707,4.5133905,72,48,0
4.5133905,4.9671793,77,52,0
3.832707,4.9671793,65,40,0
5.194074,5.507925,72,50,0
5.507925,5.607138,71,37,0
5.607138,5.706351,69,37,0
5.706351,5.8193197,71,37,0
5.194074,5.8193197,60,40,0
5.8193197,6.2377877,72,43,0
6.2377877,6.455852,69,43,0
5.8193197,6.455852,62,36,0
6.455852,6.7709336,72,50,0
6.7709336,6.8701468,71,38,0
6.8701468,6.96936,69,38,0
6.96936,7.0832896,71,38,0
6.455852,7.0832896,64,40,0
7.0832896,7.695741,72,43,0
7.0832896,7.695741,62,36,0
7.752226,8.069776,76,50,0
8.069776,8.168989,77,42,0
8.168989,8.268202,79,46,0
8.268202,8.367414,77,42,0
7.752226,8.367414,69,40,0
8.367414,8.790814,69,41,0
8.367414,8.790814,76,51,0
8.790814,9.030872,72,45,0
8.790814,9.030872,68,45,0
9.030872,9.692005,76,51,0
9.030872,9.912382,69,42,0
9.912382,10.126622,68,57,0
10.126622,10.349753,67,61,0
9.692005,10.773153,81,53,0
10.773153,10.984854,78,53,0
10.984854,11.190094,74,53,0
11.190094,11.395335,75,53,0
11.395335,11.616623,76,53,0
10.349753,11.616623,66,70,0
11.616623,12.03509,77,53,0
12.03509,12.251042,74,49,0
12.251042,12.691797,71,41,0
11.616623,12.691797,65,42,0
13.123875,13.335575,81,53,0
13.335575,13.547275,78,47,0
13.547275,13.752515,74,49,0
13.752515,13.957756,75,53,0
12.912175,14.179044,66,64,0
13.957756,14.388278,76,54,0
14.388278,14.597511,77,62,0
14.597511,14.813463,74,53,0
14.813463,15.033841,69,56,0
15.033841,15.254218,70,58,0
14.179044,15.391954,65,42,0
15.254218,15.68564,71,63,0
15.68564,15.896685,72,58,0
15.896685,16.107729,69,53,0
16.107729,16.318773,61,47,0
16.318773,16.529818,62,43,0
16.529818,16.752205,64,44,0
16.752205,16.962421,65,46,0
16.962421,17.172638,68,42,0
17.172638,17.391409,69,39,0
17.391409,17.615658,73,31,0
17.615658,17.672226,74,32,0
17.615658,17.672226,69,25,0
17.615658,17.672226,65,25,0
17.844437,17.902353,77,33,0
17.844437,17.902353,74,26,0
17.844437,17.902353,69,26,0
18.077677,18.136652,74,32,0
18.077677,18.136652,77,32,0
18.077677,18.136652,81,40,0
19.393923,20.67527,64,40,0
20.67527,20.99035,60,40,0
20.99035,21.089565,59,30,0
21.089565,21.188778,60,30,0
21.188778,21.302708,62,30,0
21.302708,21.971643,64,34,0
21.971643,22.286726,60,40,0
22.286726,22.385939,59,30,0
22.385939,22.485151,60,30,0
22.485151,22.599081,62,30,0
22.599081,23.265963,64,34,0
23.265963,23.474543,52,24,0
23.265963,23.474543,60,29,0
23.891703,24.104408,72,27,0
23.889095,24.10618,64,22,0
24.529818,25.641754,76,23,0
24.529818,25.641754,84,28,0
25.86414,26.177992,69,42,0
26.177992,26.277205,67,31,0
26.277205,26.376417,65,31,0
26.376417,26.489386,67,31,0
25.86414,26.489386,57,34,0
26.489386,26.907854,69,36,0
26.907854,27.12592,65,36,0
26.489386,27.12592,58,30,0
27.12592,27.441,69,42,0
27.441,27.540213,67,32,0
27.540213,27.639425,65,32,0
27.639425,27.753355,67,32,0
27.12592,27.753355,60,34,0
27.753355,28.361717,69,36,0
27.753355,28.361717,58,30,0
28.418201,28.73575,72,45,0
28.73575,28.834965,74,38,0
28.834965,28.934177,76,42,0
28.934177,29.03339,74,38,0
28.418201,29.03339,65,36,0
29.03339,29.456789,65,38,0
29.03339,29.456789,72,47,0
29.456789,29.696848,68,42,0
29.456789,29.696848,64,42,0
29.696848,30.377531,72,48,0
30.377531,30.83132,77,51,0
29.696848,30.83132,65,39,0
31.058214,31.372065,72,50,0
31.372065,31.47128,71,37,0
31.47128,31.570492,69,37,0
31.570492,31.68346,71,37,0
31.058214,31.68346,60,40,0
31.68346,32.10193,72,43,0
32.10193,32.319992,69,43,0
31.68346,32.319992,62,36,0
32.319992,32.635075,72,50,0
32.635075,32.734287,71,38,0
32.734287,32.8335,69,38,0
32.8335,32.94743,71,38,0
32.319992,32.94743,64,40,0
32.94743,33.559883,72,43,0
32.94743,33.559883,62,36,0
33.616367,33.933918,76,50,0
33.933918,34.03313,77,42,0
34.03313,34.132343,79,46,0
34.132343,34.231556,77,42,0
33.616367,34.231556,69,40,0
34.231556,34.654957,69,41,0
34.231556,34.654957,76,51,0
34.654957,34.89501,72,45,0
34.654957,34.89501,68,45,0
34.89501,35.556145,76,51,0
34.89501,35.776524,69,42,0
35.776524,35.99076,68,57,0
35.99076,36.213894,67,61,0
35.556145,36.637295,81,53,0
36.637295,36.848995,78,53,0
36.848995,37.054234,74,53,0
37.054234,37.259476,75,53,0
37.259476,37.480762,76,53,0
36.213894,37.480762,66,70,0
37.480762,37.89923,77,53,0
37.89923,38.11518,74,50,0
38.11518,38.55594,71,46,0
37.480762,38.55594,65,42,0
38.988014,39.199715,81,53,0
39.199715,39.411415,78,47,0
39.411415,39.616657,74,49,0
39.616657,39.821896,75,53,0
38.776314,40.043182,66,64,0
39.821896,40.25242,76,54,0
40.25242,40.46165,77,60,0
40.46165,40.677605,74,53,0
40.677605,40.89798,69,56,0
40.89798,41.11836,70,58,0
40.043182,41.256096,65,42,0
41.11836,41.54978,71,63,0
41.54978,41.760826,72,58,0
41.760826,41.97187,69,53,0
41.97187,42.182915,61,47,0
42.182915,42.39396,62,43,0
42.39396,42.616344,64,44,0
42.616344,42.82656,65,46,0
42.82656,43.036777,68,42,0
43.036777,43.25555,69,39,0
43.25555,43.479797,73,31,0
43.479797,43.536366,74,32,0
43.479797,43.536366,69,25,0
43.479797,43.536366,65,25,0
43.708576,43.766495,77,33,0
43.708576,43.766495,74,26,0
43.708576,43.766495,69,26,0
43.94182,44.000793,74,32,0
43.94182,44.000793,77,32,0
43.94182,44.000793,81,40,0
45.258064,46.53941,64,40,0
46.53941,46.854492,60,40,0
46.854492,46.953705,59,30,0
46.953705,47.052917,60,30,0
47.052917,47.166847,62,30,0
47.166847,47.835785,64,34,0
47.835785,48.150867,60,40,0
48.150867,48.25008,59,30,0
48.25008,48.349293,60,30,0
48.349293,48.463223,62,30,0
48.463223,49.130104,64,34,0
49.130104,49.338684,52,24,0
49.130104,49.338684,60,29,0
49.755844,49.968548,72,27,0
49.753235,49.97032,64,22,0
50.39396,51.505894,76,23,0
50.39396,51.505894,84,28,0
51.72828,52.042133,67,42,0
52.042133,52.141346,66,31,0
52.141346,52.24056,67,31,0
52.24056,52.353527,69,31,0
51.72828,52.771996,62,34,0
52.771996,52.99006,64,36,0
52.353527,53.30391,70,36,0
53.30391,53.403122,69,36,0
53.403122,53.502335,70,38,0
53.502335,53.615303,72,40,0
52.99006,54.03377,65,34,0
54.03377,54.25184,66,42,0
54.467766,54.575222,67,48,0
53.615303,54.575222,74,44,0
54.575222,54.68228,70,42,0
54.575222,54.68228,73,42,0
54.68228,54.788944,67,46,0
54.788944,54.895214,74,42,0
54.788944,54.895214,70,42,0
54.895214,54.974632,70,47,0
55.001095,55.080276,78,41,0
55.001095,55.080276,74,41,0
55.106644,55.185535,70,45,0
55.21181,55.290413,74,39,0
55.21181,55.290413,79,39,0
55.316597,55.39491,74,43,0
55.421,55.499027,79,37,0
55.421,55.499027,81,37,0
55.525032,55.60277,74,43,0
55.628685,55.70642,79,36,0
55.628685,55.70642,82,36,0
55.73231,55.80932,79,41,0
55.83491,55.91232,82,34,0
55.83491,55.91232,85,34,0
55.93837,56.0171,79,38,0
56.043545,56.124287,82,33,0
56.043545,56.124287,86,33,0
56.151867,56.266033,91,48,0
56.873264,57.187115,72,46,0
57.187115,57.286327,71,34,0
57.286327,57.385544,72,35,0
57.385544,57.498512,74,35,0
56.873264,57.916977,67,37,0
57.916977,58.135044,69,42,0
57.498512,58.448895,75,41,0
58.448895,58.548107,74,44,0
58.548107,58.64732,75,47,0
58.64732,58.76029,77,50,0
58.135044,59.178757,70,41,0
59.178757,59.39682,71,42,0
59.61275,59.720207,72,48,0
58.76029,59.720207,79,55,0
59.720207,59.827267,75,42,0
59.720207,59.827267,78,42,0
59.827267,59.933926,72,46,0
59.933926,60.0402,79,42,0
59.933926,60.0402,75,42,0
60.0402,60.119617,75,47,0
60.146076,60.22526,83,41,0
60.146076,60.22526,79,41,0
60.25163,60.33052,75,45,0
60.356796,60.4354,79,39,0
60.356796,60.4354,84,39,0
60.461582,60.539894,79,43,0
60.565987,60.644012,84,37,0
60.565987,60.644012,86,37,0
60.670013,60.747757,79,43,0
60.77367,60.851406,84,36,0
60.77367,60.851406,87,36,0
60.877296,60.9543,84,41,0
60.979897,61.057304,87,34,0
60.979897,61.057304,90,34,0
61.083355,61.162086,84,38,0
61.18853,61.26927,87,33,0
61.18853,61.26927,91,33,0
61.296852,61.41102,96,48,0
62.121544,62.22429,86,31,0
62.121544,62.22429,82,31,0
62.22429,62.32667,88,35,0
62.32667,62.428635,86,30,0
62.32667,62.428635,82,30,0
62.428635,62.530228,89,35,0
62.530228,62.63143,82,31,0
62.530228,62.63143,86,31,0
62.73263,62.83383,82,30,0
62.73263,62.83383,86,30,0
62.83383,62.93503,88,35,0
62.93503,63.036232,82,32,0
62.93503,63.036232,86,32,0
63.036232,63.13716,89,35,0
63.13716,63.239056,86,31,0
63.13716,63.239056,82,31,0
63.342278,63.445568,86,34,0
63.342278,63.445568,82,34,0
63.445568,63.54871,88,39,0
63.54871,63.651646,86,34,0
63.54871,63.651646,82,34,0
63.651646,63.75424,89,41,0
63.75424,63.85669,82,37,0
63.75424,63.85669,86,37,0
63.958923,64.06084,82,37,0
63.958923,64.06084,86,37,0
64.06084,64.16255,88,45,0
64.16255,64.26409,82,41,0
64.16255,64.26409,86,41,0
64.26409,64.36564,89,46,0
64.36564,64.47908,86,42,0
64.36564,64.47908,82,42,0
64.58278,64.68536,86,42,0
64.58278,64.68536,83,42,0
64.68536,64.78667,88,47,0
64.78667,64.88727,86,39,0
64.78667,64.88727,83,39,0
64.88727,64.9875,89,45,0
64.9875,65.08733,83,39,0
64.9875,65.08733,86,39,0
65.186775,65.285965,83,36,0
65.186775,65.285965,86,36,0
65.285965,65.38516,88,42,0
65.38516,65.48435,83,37,0
65.38516,65.48435,86,37,0
65.48435,65.58355,89,40,0
65.58355,65.684456,86,35,0
65.58355,65.684456,83,35,0
65.78956,65.89075,86,31,0
65.78956,65.89075,83,31,0
65.89075,65.99003,88,35,0
65.99003,66.08891,86,30,0
65.99003,66.08891,83,30,0
66.08891,66.18778,89,35,0
66.18778,66.286644,83,31,0
66.18778,66.286644,86,31,0
66.38551,66.48422,83,30,0
66.38551,66.48422,86,30,0
66.48422,66.58369,88,35,0
66.58369,66.68391,83,32,0
66.58369,66.68391,86,32,0
66.68391,66.78491,89,35,0
66.78491,66.88677,86,31,0
66.78491,66.88677,83,31,0
66.99007,67.09281,85,31,0
66.99007,67.09281,82,31,0
67.09281,67.19519,88,35,0
67.19519,67.29716,85,30,0
67.19519,67.29716,82,30,0
67.29716,67.39875,89,35,0
67.39875,67.499954,82,31,0
67.39875,67.499954,85,31,0
67.60115,67.702354,82,30,0
67.60115,67.702354,85,30,0
67.702354,67.80356,88,36,0
67.80356,67.904755,82,32,0
67.80356,67.904755,85,32,0
67.904755,68.005684,89,36,0
68.005684,68.107574,85,32,0
68.005684,68.107574,82,32,0
68.2108,68.314095,85,35,0
68.2108,68.314095,82,35,0
68.314095,68.41724,88,40,0
68.41724,68.52017,85,36,0
68.41724,68.52017,82,36,0
68.52017,68.622765,89,44,0
68.622765,68.72521,82,40,0
68.622765,68.72521,85,40,0
68.827446,68.92936,82,40,0
68.827446,68.92936,85,40,0
68.92936,69.031075,88,50,0
69.031075,69.132614,82,46,0
69.031075,69.132614,85,46,0
69.132614,69.23416,89,53,0
69.23416,69.3476,85,49,0
69.23416,69.3476,82,49,0
69.4513,69.55389,85,46,0
69.4513,69.55389,82,46,0
69.55389,69.65519,88,52,0
69.65519,69.75579,85,43,0
69.65519,69.75579,82,43,0
69.75579,69.856026,89,50,0
69.856026,69.95586,82,44,0
69.856026,69.95586,85,44,0
70.0553,70.15449,85,43,0
70.0553,70.15449,82,43,0
70.15449,70.253685,88,53,0
70.253685,70.352875,85,46,0
70.253685,70.352875,82,46,0
70.352875,70.45207,89,53,0
70.45207,70.55298,82,46,0
70.45207,70.55298,85,46,0
70.65808,70.75927,85,43,0
70.65808,70.75927,82,43,0
70.75927,70.85855,88,53,0
70.85855,70.957436,85,45,0
70.85855,70.957436,82,45,0
70.957436,71.056305,89,53,0
71.056305,71.15517,82,44,0
71.056305,71.15517,85,44,0
71.254036,71.352745,82,45,0
71.254036,71.352745,85,45,0
71.352745,71.45221,89,49,0
71.45221,71.55243,85,43,0
71.45221,71.55243,82,43,0
71.55243,71.65325,90,49,0
71.65325,71.833015,82,42,0
71.65325,71.833015,85,42,0
71.94332,72.041046,82,56,0
71.94332,72.041046,85,56,0
72.041046,72.13877,90,63,0
72.13877,72.236496,85,53,0
72.13877,72.236496,82,53,0
72.236496,72.33422,91,62,0
72.33422,72.431946,82,52,0
72.33422,72.431946,85,52,0
72.53722,72.63559,82,56,0
72.53722,72.63559,85,56,0
72.63559,72.733955,90,61,0
72.733955,72.83232,85,53,0
72.733955,72.83232,82,53,0
72.83232,72.93069,91,61,0
72.93069,73.02905,82,52,0
72.93069,73.02905,85,52,0
73.14101,73.23841,82,51,0
73.14101,73.23841,85,51,0
73.23841,73.33582,90,58,0
73.33582,73.43323,85,49,0
73.33582,73.43323,82,49,0
73.43323,73.53064,91,57,0
73.53064,73.62805,82,48,0
73.53064,73.62805,85,48,0
73.7352,73.832924,79,51,0
73.7352,73.832924,82,51,0
73.832924,73.93065,87,56,0
73.93065,74.02838,82,49,0
73.93065,74.02838,79,49,0
74.02838,74.12611,88,56,0
74.12611,74.22383,79,48,0
74.12611,74.22383,82,48,0
74.33098,74.429344,76,45,0
74.33098,74.429344,79,45,0
74.429344,74.52772,84,50,0
74.52772,74.62608,79,42,0
74.52772,74.62608,76,42,0
74.62608,74.72445,85,48,0
74.72445,74.822815,76,39,0
74.72445,74.822815,79,39,0
74.92545,75.02546,73,41,0
74.92545,75.02546,76,41,0
75.02546,75.125465,81,44,0
75.125465,75.22547,76,38,0
75.125465,75.22547,73,38,0
75.22547,75.32548,82,43,0
75.32548,75.42549,73,36,0
75.32548,75.42549,76,36,0
75.534584,75.636635,70,38,0
75.534584,75.636635,73,38,0
75.636635,75.738686,78,42,0
75.738686,75.84073,73,35,0
75.738686,75.84073,70,35,0
75.84073,75.94278,79,40,0
75.94278,76.04482,70,33,0
75.94278,76.04482,73,33,0
76.15319,76.2592,67,34,0
76.15319,76.2592,70,34,0
76.2592,76.36522,75,37,0
76.36522,76.47123,70,31,0
76.36522,76.47123,67,31,0
76.47123,76.57725,76,35,0
76.57725,76.68326,67,30,0
76.57725,76.68326,70,30,0
78.067635,78.17166,70,29,0
78.067635,78.17166,67,29,0
78.17166,78.275696,72,35,0
78.275696,78.37972,70,30,0
78.275696,78.37972,67,30,0
78.37972,78.48375,73,35,0
78.48375,78.58778,70,31,0
78.48375,78.58778,67,31,0
78.69915,78.80336,70,29,0
78.69915,78.80336,67,29,0
78.80336,78.90739,72,35,0
78.90739,79.01141,70,31,0
78.90739,79.01141,67,31,0
79.01141,79.11545,73,35,0
79.11545,79.230125,70,30,0
79.11545,79.230125,67,30,0
79.230125,80.47947,78,47,0
80.59167,80.6957,70,29,0
80.59167,80.6957,64,29,0
80.6957,80.79973,73,37,0
80.79973,80.903755,70,32,0
80.79973,80.903755,64,32,0
80.903755,81.00779,74,38,0
81.00779,81.11182,70,35,0
81.00779,81.11182,64,35,0
81.22318,81.32739,70,34,0
81.22318,81.32739,64,34,0
81.32739,81.43143,73,42,0
81.43143,81.53545,70,37,0
81.43143,81.53545,64,37,0
81.53545,81.63948,74,43,0
81.63948,81.75416,70,38,0
81.63948,81.75416,64,38,0
81.75416,83.41863,79,62,0
83.41863,83.62669,69,43,0
83.62669,84.04281,70,50,0
84.04281,84.25087,72,43,0
84.25087,84.666985,73,52,0
84.666985,84.875046,74,43,0
84.875046,85.29116,66,51,0
85.29116,85.49922,67,37,0
85.49922,85.91534,69,48,0
85.91534,86.1234,70,39,0
86.1234,86.53952,61,35,0
86.53952,86.747574,62,26,0
86.747574,87.1637,64,39,0
87.1637,87.3277,65,25,0
87.38237,87.83798,67,34,0
87.83798,88.08863,68,27,0
88.08863,88.40248,69,37,0
88.40248,88.50169,67,27,0
88.50169,88.60091,65,27,0
88.60091,88.713875,67,27,0
88.08863,88.713875,57,30,0
88.713875,89.13235,69,32,0
89.13235,89.35041,65,32,0
88.713875,89.35041,58,27,0
89.35041,89.66549,69,37,0
89.66549,89.7647,67,28,0
89.7647,89.863914,65,28,0
89.863914,89.977844,67,28,0
89.35041,89.977844,60,30,0
89.977844,90.586205,69,32,0
89.977844,90.586205,58,27,0
90.64269,90.96024,72,45,0
90.96024,91.059456,74,38,0
91.059456,91.15867,76,42,0
91.15867,91.25788,74,38,0
90.64269,91.25788,65,36,0
91.25788,91.68128,65,38,0
91.25788,91.68128,72,47,0
91.68128,91.92134,68,42,0
91.68128,91.92134,64,42,0
91.92134,92.60202,72,48,0
92.60202,93.05581,77,52,0
91.92134,93.05581,65,40,0
93.28271,93.59656,72,50,0
93.59656,93.69577,71,37,0
93.69577,93.79498,69,37,0
93.79498,93.90795,71,37,0
93.28271,93.90795,60,40,0
93.90795,94.326416,72,43,0
94.326416,94.54448,69,43,0
93.90795,94.54448,62,36,0
94.54448,94.859566,72,50,0
94.859566,94.95878,71,38,0
94.95878,95.05799,69,38,0
95.05799,95.17192,71,38,0
94.54448,95.17192,64,40,0
95.17192,95.78437,72,43,0
95.17192,95.78437,62,36,0
95.84086,96.15841,76,50,0
96.15841,96.25762,77,42,0
96.25762,96.356834,79,46,0
96.356834,96.45605,77,42,0
95.84086,96.45605,69,40,0
96.45605,96.87945,69,41,0
96.45605,96.87945,76,51,0
96.87945,97.11951,72,45,0
96.87945,97.11951,68,45,0
97.11951,97.78063,76,51,0
97.11951,98.001015,69,42,0
98.001015,98.215256,68,57,0
98.215256,98.438385,67,61,0
97.78063,98.861786,81,53,0
98.861786,99.07349,78,53,0
99.07349,99.278725,74,53,0
99.278725,99.48396,75,53,0
99.48396,99.70525,76,53,0
98.438385,99.70525,66,70,0
99.70525,100.12372,77,53,0
100.12372,100.339676,74,50,0
100.339676,100.780426,71,49,0
99.70525,100.780426,65,42,0
101.21251,101.42421,81,53,0
101.42421,101.6359,78,47,0
101.6359,101.84115,74,49,0
101.84115,102.04639,75,53,0
101.00081,102.26768,66,64,0
102.04639,102.476906,76,54,0
102.476906,102.68614,77,62,0
102.68614,102.90209,74,53,0
102.90209,103.48058,71,56,0
102.26768,103.48058,65,42,0
103.563225,103.986626,86,80,0
103.986626,104.198326,82,62,0
104.198326,104.403564,78,53,0
104.403564,104.60881,79,60,0
104.60881,104.83009,81,63,0
103.563225,104.83009,74,57,0
104.83009,105.248566,82,71,0
105.248566,105.464516,79,57,0
105.464516,106.12565,76,53,0
104.83009,106.12565,70,60,0
106.33735,106.54905,86,70,0
106.54905,106.76075,82,62,0
106.76075,106.96599,78,53,0
106.96599,107.17123,79,60,0
106.12565,107.39252,74,68,0
107.17123,107.60175,81,63,0
107.60175,107.81098,82,62,0
107.81098,108.02694,79,57,0
108.02694,108.247314,73,56,0
108.247314,108.46769,74,58,0
107.39252,108.68807,70,59,0
108.46769,108.89912,76,63,0
108.89912,109.11016,77,58,0
109.11016,109.321205,74,53,0
109.321205,109.53225,66,47,0
109.53225,109.74329,67,43,0
109.74329,109.965675,69,44,0
109.965675,110.175896,70,46,0
110.175896,110.38611,73,42,0
110.38611,110.60488,74,39,0
110.60488,110.82913,78,31,0
110.82913,110.8857,79,32,0
110.82913,110.8857,74,25,0
110.82913,110.8857,70,25,0
111.05791,111.11583,82,33,0
111.05791,111.11583,79,26,0
111.05791,111.11583,74,26,0
111.29115,111.35013,79,32,0
111.29115,111.35013,82,32,0
111.29115,111.35013,86,40,0
112.70743,113.98878,69,40,0
112.70743,113.98878,64,36,0
112.70743,113.98878,58,36,0
113.98878,114.303856,65,40,0
114.303856,114.40307,64,30,0
114.40307,114.50228,65,30,0
114.50228,114.61621,67,30,0
113.98878,114.61621,57,32,0
114.61621,115.28515,69,34,0
114.61621,115.28515,64,38,0
114.61621,115.28515,58,30,0
115.28515,115.600235,65,40,0
115.600235,115.69945,64,30,0
115.69945,115.79866,65,30,0
115.79866,115.91259,67,30,0
115.91259,116.57947,69,34,0
115.91259,116.57947,58,30,0
115.91259,116.57947,64,38,0
116.57947,116.78805,57,24,0
116.57947,116.78805,65,29,0
117.20521,117.417915,77,27,0
117.20521,117.42235,69,22,0
117.84332,118.95526,81,23,0
117.84332,118.95526,89,28,0
119.17765,119.4915,67,42,0
119.4915,119.59071,66,31,0
119.59071,119.689926,67,31,0
119.689926,119.802895,69,31,0
119.17765,120.22136,62,34,0
120.22136,120.43942,64,36,0
119.802895,120.75327,70,36,0
120.75327,120.852486,69,36,0
120.852486,120.951706,70,38,0
120.951706,121.064674,72,40,0
120.43942,121.48314,65,34,0
121.48314,121.7012,66,42,0
121.91713,122.02459,67,48,0
121.064674,122.02459,74,44,0
122.02459,122.131645,70,42,0
122.02459,122.131645,73,42,0
122.131645,122.23831,67,46,0
122.23831,122.34458,74,42,0
122.23831,122.34458,70,42,0
122.34458,122.423996,70,47,0
122.45046,122.52964,78,41,0
122.45046,122.52964,74,41,0
122.55601,122.6349,70,45,0
122.66118,122.73978,74,39,0
122.66118,122.73978,79,39,0
122.76596,122.84428,74,43,0
122.87037,122.948395,79,37,0
122.87037,122.948395,81,37,0
122.974396,123.05214,74,43,0
123.07805,123.15579,79,36,0
123.07805,123.15579,82,36,0
123.18168,123.25868,79,41,0
123.28428,123.36169,82,34,0
123.28428,123.36169,85,34,0
123.38774,123.46647,79,38,0
123.49291,123.573654,82,33,0
123.49291,123.573654,86,33,0
123.601234,123.7154,91,48,0
124.32263,124.63648,72,46,0
124.63648,124.735695,71,34,0
124.735695,124.83491,72,35,0
124.83491,124.947876,74,35,0
124.32263,125.36635,67,37,0
125.36635,125.58441,69,42,0
124.947876,125.89826,75,41,0
125.89826,125.997475,74,44,0
125.997475,126.09669,75,47,0
126.09669,126.209656,77,50,0
125.58441,126.62812,70,41,0
126.62812,126.84619,71,42,0
127.06212,127.16957,72,48,0
126.209656,127.16957,79,55,0
127.16957,127.276634,75,42,0
127.16957,127.276634,78,42,0
127.276634,127.38329,72,46,0
127.38329,127.48956,79,42,0
127.38329,127.48956,75,42,0
127.48956,127.568985,75,47,0
127.59544,127.67463,83,41,0
127.59544,127.67463,79,41,0
127.701,127.779884,75,45,0
127.80616,127.884766,79,39,0
127.80616,127.884766,84,39,0
127.91095,127.98926,79,43,0
128.01535,128.09338,84,37,0
128.01535,128.09338,86,37,0
128.11938,128.19713,79,43,0
128.22304,128.30077,84,36,0
128.22304,128.30077,87,36,0
128.32666,128.40367,84,41,0
128.42926,128.50667,87,34,0
128.42926,128.50667,90,34,0
128.53271,128.61145,84,38,0
128.6379,128.71864,87,33,0
128.6379,128.71864,91,33,0
128.74622,128.86038,96,48,0
129.5709,129.67366,86,31,0
129.5709,129.67366,82,31,0
129.67366,129.77603,88,35,0
129.77603,129.878,86,30,0
129.77603,129.878,82,30,0
129.878,129.9796,89,35,0
129.9796,130.0808,82,31,0
129.9796,130.0808,86,31,0
130.18199,130.2832,82,30,0
130.18199,130.2832,86,30,0
130.2832,130.3844,88,35,0
130.3844,130.4856,82,32,0
130.3844,130.4856,86,32,0
130.4856,130.58653,89,35,0
130.58653,130.68842,86,31,0
130.58653,130.68842,82,31,0
130.79164,130.89494,86,34,0
130.79164,130.89494,82,34,0
130.89494,130.99808,88,39,0
130.99808,131.10101,86,34,0
130.99808,131.10101,82,34,0
131.10101,131.2036,89,41,0
131.2036,131.30606,82,37,0
131.2036,131.30606,86,37,0
131.4083,131.5102,82,37,0
131.4083,131.5102,86,37,0
131.5102,131.61192,88,45,0
131.61192,131.71346,82,41,0
131.61192,131.71346,86,41,0
131.71346,131.815,89,46,0
131.815,131.92845,86,42,0
131.815,131.92845,82,42,0
132.03215,132.13474,86,42,0
132.03215,132.13474,83,42,0
132.13474,132.23604,88,47,0
132.23604,132.33662,86,39,0
132.23604,132.33662,83,39,0
132.33662,132.43687,89,45,0
132.43687,132.5367,83,39,0
132.43687,132.5367,86,39,0
132.63614,132.73534,83,36,0
132.63614,132.73534,86,36,0
132.73534,132.83453,88,42,0
132.83453,132.93372,83,37,0
132.83453,132.93372,86,37,0
132.93372,133.03291,89,40,0
133.03291,133.13382,86,35,0
133.03291,133.13382,83,35,0
133.23892,133.34012,86,31,0
133.23892,133.34012,83,31,0
133.34012,133.43939,88,35,0
133.43939,133.53828,86,30,0
133.43939,133.53828,83,30,0
133.53828,133.63715,89,35,0
133.63715,133.73601,83,31,0
133.63715,133.73601,86,31,0
133.83488,133.9336,83,30,0
133.83488,133.9336,86,30,0
133.9336,134.03305,88,35,0
134.03305,134.13327,83,32,0
134.03305,134.13327,86,32,0
134.13327,134.23427,89,35,0
134.23427,134.33614,86,31,0
134.23427,134.33614,83,31,0
134.43944,134.54218,85,31,0
134.43944,134.54218,82,31,0
134.54218,134.64456,88,35,0
134.64456,134.74652,85,30,0
134.64456,134.74652,82,30,0
134.74652,134.84811,89,35,0
134.84811,134.94933,82,31,0
134.84811,134.94933,85,31,0
135.05052,135.15172,82,30,0
135.05052,135.15172,85,30,0
135.15172,135.25291,88,36,0
135.25291,135.35413,82,32,0
135.25291,135.35413,85,32,0
135.35413,135.45505,89,36,0
135.45505,135.55695,85,32,0
135.45505,135.55695,82,32,0
135.66017,135.76346,85,35,0
135.66017,135.76346,82,35,0
135.76346,135.8666,88,40,0
135.8666,135.96954,85,36,0
135.8666,135.96954,82,36,0
135.96954,136.07213,89,44,0
136.07213,136.17458,82,40,0
136.07213,136.17458,85,40,0
136.27681,136.37872,82,40,0
136.27681,136.37872,85,40,0
136.37872,136.48044,88,50,0
136.48044,136.58199,82,46,0
136.48044,136.58199,85,46,0
136.58199,136.68353,89,53,0
136.68353,136.79697,85,49,0
136.68353,136.79697,82,49,0
136.90067,137.00325,85,46,0
136.90067,137.00325,82,46,0
137.00325,137.10455,88,52,0
137.10455,137.20515,85,43,0
137.10455,137.20515,82,43,0
137.20515,137.30539,89,50,0
137.30539,137.40523,82,44,0
137.30539,137.40523,85,44,0
137.50467,137.60385,85,43,0
137.50467,137.60385,82,43,0
137.60385,137.70305,88,53,0
137.70305,137.80225,85,46,0
137.70305,137.80225,82,46,0
137.80225,137.90143,89,53,0
137.90143,138.00235,82,46,0
137.90143,138.00235,85,46,0
138.10744,138.20863,85,43,0
138.10744,138.20863,82,43,0
138.20863,138.30792,88,53,0
138.30792,138.4068,85,45,0
138.30792,138.4068,82,45,0
138.4068,138.50568,89,53,0
138.50568,138.60454,82,44,0
138.50568,138.60454,85,44,0
138.7034,138.80211,82,45,0
138.7034,138.80211,85,45,0
138.80211,138.90158,89,49,0
138.90158,139.00179,85,43,0
138.90158,139.00179,82,43,0
139.00179,139.10262,90,49,0
139.10262,139.28238,82,42,0
139.10262,139.28238,85,42,0
139.39268,139.49042,82,56,0
139.39268,139.49042,85,56,0
139.49042,139.58813,90,63,0
139.58813,139.68587,85,53,0
139.58813,139.68587,82,53,0
139.68587,139.78358,91,62,0
139.78358,139.88132,82,52,0
139.78358,139.88132,85,52,0
139.98659,140.08495,82,56,0
139.98659,140.08495,85,56,0
140.08495,140.18332,90,61,0
140.18332,140.2817,85,53,0
140.18332,140.2817,82,53,0
140.2817,140.38005,91,61,0
140.38005,140.47842,82,52,0
140.38005,140.47842,85,52,0
140.59036,140.68777,82,51,0
140.59036,140.68777,85,51,0
140.68777,140.78519,90,58,0
140.78519,140.8826,85,49,0
140.78519,140.8826,82,49,0
140.8826,140.98001,91,57,0
140.98001,141.07741,82,48,0
140.98001,141.07741,85,48,0
141.18457,141.28229,79,51,0
141.18457,141.28229,82,51,0
141.28229,141.38002,87,56,0
141.38002,141.47774,82,49,0
141.38002,141.47774,79,49,0
141.47774,141.57547,88,56,0
141.57547,141.6732,79,48,0
141.57547,141.6732,82,48,0
141.78035,141.87871,76,45,0
141.78035,141.87871,79,45,0
141.87871,141.97708,84,50,0
141.97708,142.07545,79,42,0
141.97708,142.07545,76,42,0
142.07545,142.17381,85,48,0
142.17381,142.27219,76,39,0
142.17381,142.27219,79,39,0
142.37482,142.47482,73,41,0
142.37482,142.47482,76,41,0
142.47482,142.57483,81,44,0
142.57483,142.67484,76,38,0
142.57483,142.67484,73,38,0
142.67484,142.77484,82,43,0
142.77484,142.87485,73,36,0
142.77484,142.87485,76,36,0
142.98395,143.086,70,38,0
142.98395,143.086,73,38,0
143.086,143.18805,78,42,0
143.18805,143.2901,73,35,0
143.18805,143.2901,70,35,0
143.2901,143.39215,79,40,0
143.39215,143.49419,70,33,0
143.39215,143.49419,73,33,0
143.60255,143.70857,67,34,0
143.60255,143.70857,70,34,0
143.70857,143.81459,75,37,0
143.81459,143.9206,70,31,0
143.81459,143.9206,67,31,0
143.9206,144.02661,76,35,0
144.02661,144.13263,67,30,0
144.02661,144.13263,70,30,0
145.517,145.62103,70,29,0
145.517,145.62103,67,29,0
145.62103,145.72505,72,35,0
145.72505,145.82909,70,30,0
145.72505,145.82909,67,30,0
145.82909,145.93312,73,35,0
145.93312,146.03716,70,31,0
145.93312,146.03716,67,31,0
146.14851,146.25273,70,29,0
146.14851,146.25273,67,29,0
146.25273,146.35675,72,35,0
146.35675,146.46078,70,31,0
146.35675,146.46078,67,31,0
146.46078,146.56482,73,35,0
146.56482,146.67949,70,30,0
146.56482,146.67949,67,30,0
146.67949,147.92883,78,47,0
148.04103,148.14507,70,29,0
148.04103,148.14507,64,29,0
148.14507,148.2491,73,37,0
148.2491,148.35312,70,32,0
148.2491,148.35312,64,32,0
148.35312,148.45715,74,38,0
148.45715,148.56119,70,35,0
148.45715,148.56119,64,35,0
148.67255,148.77676,70,34,0
148.67255,148.77676,64,34,0
148.77676,148.88078,73,42,0
148.88078,148.98482,70,37,0
148.88078,148.98482,64,37,0
148.98482,149.08885,74,43,0
149.08885,149.20352,70,38,0
149.08885,149.20352,64,38,0
149.20352,150.868,79,62,0
150.868,151.07605,69,43,0
151.07605,151.49217,70,50,0
151.49217,151.70024,72,43,0
151.70024,152.11635,73,52,0
152.11635,152.32442,74,43,0
152.32442,152.74052,66,51,0
152.74052,152.9486,67,37,0
152.9486,153.3647,69,48,0
153.3647,153.57277,70,39,0
153.57277,153.98888,61,35,0
153.98888,154.19695,62,26,0
154.19695,154.61307,64,39,0
154.61307,154.77707,65,25,0
154.83174,155.28735,67,34,0
155.28735,155.538,68,27,0
155.538,155.85185,69,37,0
155.85185,155.95107,67,27,0
155.95107,156.05028,65,27,0
156.05028,156.16324,67,27,0
155.538,156.16324,57,30,0
156.16324,156.58171,69,32,0
156.58171,156.79977,65,32,0
156.16324,156.79977,58,27,0
156.79977,157.11485,69,37,0
157.11485,157.21407,67,28,0
157.21407,157.31328,65,28,0
157.31328,157.42722,67,28,0
156.79977,157.42722,60,30,0
157.42722,158.03557,69,32,0
157.42722,158.03557,58,27,0
158.09206,158.4096,72,45,0
158.4096,158.50882,74,38,0
158.50882,158.60803,76,42,0
158.60803,158.70724,74,38,0
158.09206,158.70724,65,36,0
158.70724,159.13065,65,38,0
158.70724,159.13065,72,47,0
159.13065,159.37071,68,42,0
159.13065,159.37071,64,42,0
159.37071,160.05139,72,48,0
160.05139,160.50517,77,48,0
159.37071,160.50517,65,40,0
160.73207,161.04593,72,50,0
161.04593,161.14514,71,37,0
161.14514,161.24435,69,37,0
161.24435,161.35732,71,37,0
160.73207,161.35732,60,40,0
161.35732,161.77579,72,43,0
161.77579,161.99385,69,43,0
161.35732,161.99385,62,36,0
161.99385,162.30893,72,50,0
162.30893,162.40814,71,38,0
162.40814,162.50735,69,38,0
162.50735,162.62129,71,38,0
161.99385,162.62129,64,40,0
162.62129,163.23373,72,43,0
162.62129,163.23373,62,36,0
163.29022,163.60777,76,50,0
163.60777,163.70699,77,42,0
163.70699,163.8062,79,46,0
163.8062,163.90541,77,42,0
163.29022,163.90541,69,40,0
163.90541,164.32881,69,41,0
163.90541,164.32881,76,51,0
164.32881,164.56886,72,45,0
164.32881,164.56886,68,45,0
164.56886,165.23,76,51,0
164.56886,165.45038,69,42,0
165.45038,165.66463,68,57,0
165.66463,165.88776,67,61,0
165.23,166.31116,81,53,0
166.31116,166.52286,78,53,0
166.52286,166.72809,74,53,0
166.72809,166.93333,75,53,0
166.93333,167.15462,76,53,0
165.88776,167.15462,66,70,0
167.15462,167.57309,77,53,0
167.57309,167.78905,74,50,0
167.78905,168.2298,71,47,0
167.15462,168.2298,65,44,0
168.66187,168.87357,81,53,0
168.87357,169.08527,78,47,0
169.08527,169.29051,74,49,0
169.29051,169.49576,75,53,0
168.45016,169.71704,66,64,0
169.49576,169.92627,76,54,0
169.92627,170.13551,77,62,0
170.13551,170.35146,74,53,0
170.35146,170.92995,71,56,0
169.71704,170.92995,65,44,0
171.01259,171.43599,86,80,0
171.43599,171.64769,82,62,0
171.64769,171.85294,78,53,0
171.85294,172.05818,79,60,0
172.05818,172.27946,81,63,0
171.01259,172.27946,74,57,0
172.27946,172.69794,82,71,0
172.69794,172.91388,79,55,0
172.91388,173.57501,76,50,0
172.27946,173.57501,70,60,0
173.78671,173.99841,86,70,0
173.99841,174.21011,82,62,0
174.21011,174.41536,78,53,0
174.41536,174.62059,79,60,0
173.57501,174.84189,74,68,0
174.62059,175.05112,81,63,0
175.05112,175.26035,82,62,0
175.26035,175.4763,79,57,0
175.4763,175.69669,73,56,0
175.69669,175.91705,74,58,0
174.84189,176.13744,70,59,0
175.91705,176.34848,76,63,0
176.34848,176.55952,77,58,0
176.55952,176.77057,74,53,0
176.77057,176.98161,66,47,0
176.98161,177.19266,67,43,0
177.19266,177.41504,69,44,0
177.41504,177.62526,70,46,0
177.62526,177.83548,73,42,0
177.83548,178.05424,74,39,0
178.05424,178.2785,78,31,0
178.2785,178.33507,79,32,0
178.2785,178.33507,74,25,0
178.2785,178.33507,70,25,0
178.50728,178.5652,82,33,0
178.50728,178.5652,79,26,0
178.50728,178.5652,74,26,0
178.74052,178.79948,79,32,0
178.74052,178.79948,82,32,0
178.74052,178.79948,86,40,0
180.1568,181.43814,69,40,0
180.1568,181.43814,64,36,0
180.1568,181.43814,58,36,0
181.43814,181.75322,65,40,0
181.75322,181.85243,64,30,0
181.85243,181.95164,65,30,0
181.95164,182.06558,67,30,0
181.43814,182.06558,57,32,0
182.06558,182.73451,69,34,0
182.06558,182.73451,64,38,0
182.06558,182.73451,58,30,0
182.73451,183.0496,65,40,0
183.0496,183.14882,64,30,0
183.14882,183.24803,65,30,0
183.24803,183.36195,67,30,0
183.36195,184.04495,69,34,0
183.36195,184.04495,58,30,0
183.36195,184.04495,64,38,0
184.04495,184.27327,57,24,0
184.05447,184.28278,65,29,0
184.72989,184.99213,77,24,0
184.72989,184.99759,69,19,0
185.5166,186.87529,81,20,0
185.5166,186.87529,89,25,0
0.0,0.62524575,48,28,0
0.62524575,1.261778,50,24,0
1.261778,1.8892155,52,28,0
1.8892155,2.4975762,50,24,0
0.0,2.5540605,41,24,0
2.4975762,2.5540605,41,25,0
2.5540605,3.1692495,57,30,0
2.5258183,3.8026998,48,29,0
3.7726927,3.832707,41,23,0
3.1692495,3.832707,58,30,0
3.832707,4.5133905,57,32,0
3.8026998,4.9388175,48,27,0
5.194074,5.8193197,52,34,0
5.8193197,6.455852,53,29,0
6.455852,7.0832896,55,34,0
7.0832896,7.695741,53,29,0
5.194074,7.752226,45,29,0
7.695741,7.752226,45,25,0
7.752226,8.367414,60,34,0
7.723984,9.000865,52,29,0
8.367414,9.030872,62,33,0
9.030872,10.349753,60,34,0
9.030872,10.349753,52,29,0
9.030872,10.349753,45,25,0
10.349753,11.5613,60,34,0
10.349753,11.5613,50,29,0
11.588962,12.636703,50,34,0
11.616623,12.691797,59,34,0
11.5613,12.691797,43,34,0
12.912175,14.123722,60,34,0
12.912175,14.123722,50,29,0
14.151382,15.199124,50,40,0
14.179044,15.254218,59,43,0
14.123722,15.254218,43,38,0
15.474596,17.172638,60,48,0
15.391954,17.172638,43,40,0
15.419501,17.172638,50,43,0
15.447048,17.172638,57,46,0
19.393923,20.449144,44,44,0
20.449144,20.67527,43,32,0
19.393923,20.67527,53,36,0
19.393923,20.67527,59,36,0
20.67527,21.302708,43,27,0
20.67527,21.302708,52,32,0
20.67527,21.302708,36,21,0
21.302708,21.971643,56,30,0
21.302708,21.971643,53,30,0
21.302708,21.971643,59,38,0
21.302708,21.971643,44,38,0
21.971643,22.599081,43,27,0
21.971643,22.599081,52,32,0
21.971643,22.599081,36,21,0
22.599081,23.265963,56,30,0
22.599081,23.265963,53,30,0
22.599081,23.265963,59,38,0
22.599081,23.265963,44,38,0
23.265963,23.474543,43,26,0
23.265963,23.474543,36,22,0
23.891703,24.104408,55,26,0
23.891703,24.104408,48,22,0
24.529818,25.641754,67,28,0
24.529818,25.641754,60,23,0
25.86414,26.489386,48,28,0
26.489386,27.12592,50,24,0
27.12592,27.753355,52,28,0
27.753355,28.361717,50,24,0
25.86414,28.418201,41,24,0
28.361717,28.418201,41,22,0
28.418201,29.03339,57,30,0
28.38996,29.66684,48,26,0
29.636833,29.696848,41,23,0
29.03339,29.696848,58,30,0
29.696848,30.377531,57,32,0
29.66684,30.802958,48,27,0
31.058214,31.68346,52,34,0
31.68346,32.319992,53,29,0
32.319992,32.94743,55,34,0
32.94743,33.559883,53,29,0
31.058214,33.616367,45,29,0
33.559883,33.616367,45,25,0
33.616367,34.231556,60,34,0
33.588123,34.865005,52,29,0
34.231556,34.89501,62,33,0
34.89501,36.213894,60,34,0
34.89501,36.213894,52,29,0
34.89501,36.213894,45,25,0
36.213894,37.42544,60,34,0
36.213894,37.42544,50,29,0
37.453102,38.500843,50,34,0
37.480762,38.55594,59,34,0
37.42544,38.55594,43,34,0
38.776314,39.98786,60,34,0
38.776314,39.98786,50,29,0
40.015522,41.063263,50,40,0
40.043182,41.11836,59,43,0
39.98786,41.11836,43,38,0
41.338737,43.036777,60,48,0
41.256096,43.036777,43,40,0
41.28364,43.036777,50,43,0
41.311188,43.036777,57,46,0
45.258064,46.313286,44,44,0
46.313286,46.53941,43,32,0
45.258064,46.53941,53,36,0
45.258064,46.53941,59,36,0
46.53941,47.166847,43,27,0
46.53941,47.166847,52,32,0
46.53941,47.166847,36,21,0
47.166847,47.835785,56,30,0
47.166847,47.835785,53,30,0
47.166847,47.835785,59,38,0
47.166847,47.835785,44,38,0
47.835785,48.463223,43,27,0
47.835785,48.463223,52,32,0
47.835785,48.463223,36,21,0
48.463223,49.130104,56,30,0
48.463223,49.130104,53,30,0
48.463223,49.130104,59,38,0
48.463223,49.130104,44,38,0
49.130104,49.338684,43,26,0
49.130104,49.338684,36,22,0
49.755844,49.968548,55,26,0
49.755844,49.968548,48,22,0
50.39396,51.505894,67,28,0
50.39396,51.505894,60,23,0
51.72828,52.771996,58,28,0
52.771996,52.99006,60,34,0
52.99006,54.03377,62,37,0
54.03377,54.195114,63,37,0
51.72828,54.25184,48,24,0
54.195114,54.25184,48,37,0
54.25184,54.467766,64,47,0
54.223476,54.467766,58,41,0
56.873264,57.916977,63,30,0
57.916977,58.135044,65,40,0
58.135044,59.178757,67,44,0
59.178757,59.3401,68,37,0
56.873264,59.39682,53,26,0
59.3401,59.39682,53,37,0
59.39682,59.61275,69,47,0
59.368458,59.61275,63,41,0
62.01825,62.428635,46,58,0
62.428635,62.63143,53,52,0
62.63143,63.036232,58,58,0
63.036232,63.239056,60,53,0
63.239056,63.651646,62,63,0
63.651646,63.85669,65,65,0
63.85669,64.26409,70,74,0
64.26409,64.394,69,58,0
64.47908,65.684456,69,81,0
65.684456,66.08891,68,52,0
64.45072,66.08891,62,53,0
64.42236,66.08891,59,47,0
64.394,66.08891,52,41,0
66.88677,67.29716,46,58,0
67.29716,67.499954,53,52,0
67.499954,67.904755,58,58,0
67.904755,68.107574,60,53,0
68.107574,68.52017,61,63,0
68.52017,68.72521,65,70,0
68.72521,69.132614,70,76,0
69.132614,69.26252,68,62,0
69.3476,70.55298,68,86,0
70.55298,70.957436,67,62,0
69.319244,70.957436,61,57,0
69.290886,70.957436,58,51,0
69.26252,70.957436,51,43,0
71.105736,71.15517,49,60,0
71.15517,71.55243,66,80,0
71.55243,71.833015,65,76,0
71.833015,73.02905,65,69,0
73.02905,76.47123,64,66,0
71.833015,76.47123,58,64,0
71.70368,76.47123,48,73,0
71.70368,76.47123,36,73,0
71.833015,76.47123,55,64,0
77.95544,78.17166,58,37,0
77.90243,78.17166,49,29,0
78.58778,78.80336,37,29,0
80.47947,80.6957,58,37,0
80.42646,80.6957,48,29,0
81.11182,81.32739,36,33,0
87.38237,87.83798,52,31,0
87.83798,88.08863,50,27,0
87.3277,88.08863,36,24,0
88.08863,88.713875,48,25,0
88.713875,89.35041,50,21,0
89.35041,89.977844,52,25,0
89.977844,90.586205,50,21,0
88.08863,90.64269,41,21,0
90.586205,90.64269,41,25,0
90.64269,91.25788,57,30,0
90.61445,91.891335,48,29,0
91.86132,91.92134,41,23,0
91.25788,91.92134,58,30,0
91.92134,92.60202,57,32,0
91.891335,93.02745,48,27,0
93.28271,93.90795,52,34,0
93.90795,94.54448,53,29,0
94.54448,95.17192,55,34,0
95.17192,95.78437,53,29,0
93.28271,95.84086,45,29,0
95.78437,95.84086,45,25,0
95.84086,96.45605,60,34,0
95.812614,97.08949,52,29,0
97.05949,97.11951,45,25,0
96.45605,97.11951,62,33,0
97.08949,98.41049,52,29,0
97.11951,98.438385,60,34,0
98.438385,99.64993,60,34,0
98.438385,99.64993,50,29,0
99.67759,100.725334,50,34,0
99.70525,100.780426,59,34,0
99.64993,100.780426,43,34,0
101.00081,102.21236,60,34,0
101.00081,102.21236,50,29,0
102.26768,103.48058,59,43,0
102.24001,103.48058,50,40,0
102.21236,103.48058,43,38,0
103.563225,104.747116,70,57,0
103.48058,104.747116,55,38,0
103.50813,104.747116,62,40,0
103.53568,104.747116,65,44,0
104.77477,105.95118,55,41,0
104.747116,106.04301,48,40,0
104.80244,106.04301,58,42,0
104.83009,106.04301,64,54,0
106.12565,107.30953,70,57,0
106.04301,107.30953,55,38,0
106.07056,107.30953,62,40,0
106.0981,107.30953,65,44,0
107.3372,108.5136,55,41,0
107.30953,108.60543,48,40,0
107.36485,108.60543,58,42,0
107.39252,108.60543,64,57,0
108.68807,110.38611,65,48,0
108.60543,110.38611,46,40,0
108.63297,110.38611,55,43,0
108.66052,110.38611,62,46,0
112.70743,113.76265,49,44,0
113.76265,113.98878,48,32,0
113.98878,114.61621,48,27,0
113.98878,114.61621,41,21,0
114.61621,115.28515,61,30,0
114.61621,115.28515,49,38,0
115.28515,115.91259,48,27,0
115.28515,115.91259,57,32,0
115.28515,115.91259,41,21,0
115.91259,116.57947,61,30,0
115.91259,116.57947,49,38,0
116.57947,116.78805,48,26,0
116.57947,116.78805,41,22,0
117.20521,117.417915,60,26,0
117.20521,117.417915,53,22,0
117.84332,118.95526,72,28,0
117.84332,118.95526,65,23,0
119.17765,120.22136,58,28,0
120.22136,120.43942,60,34,0
120.43942,121.48314,62,37,0
121.48314,121.64448,63,37,0
119.17765,121.7012,48,24,0
121.64448,121.7012,48,37,0
121.7012,121.91713,64,47,0
121.672844,121.91713,58,41,0
124.32263,125.36635,63,30,0
125.36635,125.58441,65,40,0
125.58441,126.62812,67,44,0
126.62812,126.78947,68,37,0
124.32263,126.84619,53,26,0
126.78947,126.84619,53,37,0
126.84619,127.06212,69,47,0
126.817825,127.06212,63,41,0
129.46762,129.878,46,58,0
129.878,130.0808,53,52,0
130.0808,130.4856,58,58,0
130.4856,130.68842,60,53,0
130.68842,131.10101,62,63,0
131.10101,131.30606,65,68,0
131.30606,131.71346,70,73,0
131.71346,131.84337,69,58,0
131.92845,133.13382,69,81,0
133.13382,133.53828,68,52,0
131.90009,133.53828,62,53,0
131.87172,133.53828,59,47,0
131.84337,133.53828,52,41,0
134.33614,134.74652,46,58,0
134.74652,134.94933,53,52,0
134.94933,135.35413,58,58,0
135.35413,135.55695,60,53,0
135.55695,135.96954,61,63,0
135.96954,136.17458,65,70,0
136.17458,136.58199,70,77,0
136.58199,136.71188,68,62,0
136.79697,138.00235,68,81,0
138.00235,138.4068,67,62,0
136.76862,138.4068,61,57,0
136.74025,138.4068,58,51,0
136.71188,138.4068,51,43,0
138.5551,138.60454,49,60,0
138.60454,139.00179,66,80,0
139.00179,139.28238,65,76,0
139.28238,140.47842,65,69,0
140.47842,143.9206,64,66,0
139.28238,143.9206,58,64,0
139.15305,143.9206,48,77,0
139.15305,143.9206,36,77,0
139.28238,143.9206,55,64,0
145.4048,145.62103,58,37,0
145.35179,145.62103,49,29,0
146.03716,146.25273,37,29,0
147.92883,148.14507,58,37,0
147.87582,148.14507,48,29,0
148.56119,148.77676,36,33,0
154.83174,155.28735,52,31,0
155.28735,155.538,50,27,0
154.77707,155.538,36,24,0
155.538,156.16324,48,25,0
156.16324,156.79977,50,21,0
156.79977,157.42722,52,25,0
157.42722,158.03557,50,21,0
155.538,158.09206,41,21,0
158.03557,158.09206,41,25,0
158.09206,158.70724,57,30,0
158.06381,159.3407,48,29,0
159.31068,159.37071,41,23,0
158.70724,159.37071,58,30,0
159.37071,160.05139,57,32,0
159.3407,160.47682,48,27,0
160.73207,161.35732,52,34,0
161.35732,161.99385,53,29,0
161.99385,162.62129,55,34,0
162.62129,163.23373,53,29,0
160.73207,163.29022,45,29,0
163.23373,163.29022,45,25,0
163.29022,163.90541,60,34,0
163.26198,164.53886,52,29,0
164.50885,164.56886,45,25,0
163.90541,164.56886,62,33,0
164.53886,165.85986,52,29,0
164.56886,165.88776,60,34,0
165.88776,167.0993,60,34,0
165.88776,167.0993,50,29,0
167.12695,168.1747,50,34,0
167.15462,168.2298,59,34,0
167.0993,168.2298,43,34,0
168.45016,169.66171,60,34,0
168.45016,169.66171,50,29,0
169.71704,170.92995,59,43,0
169.68938,170.92995,50,40,0
169.66171,170.92995,43,38,0
171.01259,172.19647,70,57,0
170.92995,172.19647,55,38,0
170.9575,172.19647,62,40,0
170.98505,172.19647,65,44,0
172.22414,173.40054,55,41,0
172.19647,173.49237,48,40,0
172.2518,173.49237,58,42,0
172.27946,173.49237,64,57,0
173.57501,174.7589,70,57,0
173.49237,174.7589,55,38,0
173.51991,174.7589,62,40,0
173.54747,174.7589,65,44,0
174.78656,175.96297,55,41,0
174.7589,176.0548,48,40,0
174.81422,176.0548,58,42,0
174.84189,176.0548,64,57,0
176.13744,177.83548,65,48,0
176.0548,177.83548,46,40,0
176.08234,177.83548,55,43,0
176.1099,177.83548,62,46,0
180.1568,181.21202,49,44,0
181.21202,181.43814,48,32,0
181.43814,182.06558,48,27,0
181.43814,182.06558,41,21,0
182.06558,182.73451,61,30,0
182.06558,182.73451,49,38,0
182.73451,183.36195,48,27,0
182.73451,183.36195,57,32,0
182.73451,183.36195,41,21,0
183.36195,184.04495,61,30,0
183.36195,184.04495,49,38,0
184.04495,184.27327,48,26,0
184.04495,184.27327,41,22,0
184.72989,184.99213,60,23,0
184.72989,184.99213,53,19,0
185.5166,186.87529,72,25,0
185.5166,186.87529,65,20,0
