start_time,end_time,note_value,velocity,instrument_program_number
0.260926,0.5088057,82,15,0
0.260926,0.5088057,85,22,0
0.260926,0.5088057,78,15,0
0.521852,0.7697317,82,15,0
0.521852,0.7697317,85,22,0
0.521852,0.7697317,78,15,0
0.782778,1.0287007,82,16,0
0.782778,1.0287007,85,24,0
0.782778,1.0287007,78,16,0
1.041644,1.2875667,82,15,0
1.041644,1.2875667,85,22,0
1.041644,1.2875667,78,15,0
1.30051,1.5493853,82,15,0
1.30051,1.5493853,85,22,0
1.30051,1.5493853,78,15,0
1.82341,2.0712898,82,15,0
1.82341,2.0712898,85,22,0
1.82341,2.0712898,78,15,0
2.084336,2.3322158,82,15,0
2.084336,2.3322158,85,22,0
2.084336,2.3322158,78,15,0
2.345262,2.5911846,82,16,0
2.345262,2.5911846,85,24,0
2.345262,2.5911846,78,16,0
2.604128,2.8500507,82,14,0
2.604128,2.8500507,85,21,0
2.604128,2.8500507,78,14,0
2.862994,3.1118693,82,14,0
2.862994,3.1118693,85,21,0
2.862994,3.1118693,78,14,0
3.400197,3.6480768,82,15,0
3.400197,3.6480768,85,22,0
3.400197,3.6480768,78,15,0
3.661123,3.9090028,82,15,0
3.661123,3.9090028,85,22,0
3.661123,3.9090028,78,15,0
3.922049,4.167,82,16,0
3.922049,4.167,85,24,0
3.922049,4.167,78,16,0
4.179892,4.426795,82,14,0
4.179892,4.426795,85,21,0
4.179892,4.426795,78,14,0
4.43979,4.6969295,82,14,0
4.43979,4.6969295,87,21,0
4.43979,4.6969295,78,14,0
4.969329,5.2123685,87,24,0
4.969329,5.2123685,82,16,0
4.969329,5.2123685,78,16,0
5.22516,5.4710827,87,24,0
5.22516,5.4710827,82,16,0
5.22516,5.4710827,78,16,0
5.739857,5.9828963,85,26,0
5.739857,5.9828963,82,16,0
5.739857,5.9828963,78,16,0
5.995688,6.248617,78,16,0
5.995688,6.248617,82,26,0
5.995688,6.248617,73,16,0
6.519772,6.7628117,78,28,0
6.519772,6.7628117,75,19,0
6.519772,6.7628117,71,19,0
6.775603,7.020554,78,28,0
6.775603,7.020554,75,19,0
6.775603,7.020554,71,19,0
7.291289,7.5343285,80,28,0
7.291289,7.5343285,75,18,0
7.291289,7.5343285,71,18,0
7.54712,7.8015614,80,27,0
7.54712,7.8015614,75,18,0
7.54712,7.8015614,71,18,0
8.070784,8.31477,82,24,0
8.070784,8.31477,78,16,0
8.070784,8.31477,73,16,0
8.327611,8.571597,82,24,0
8.327611,8.571597,78,16,0
8.327611,8.571597,73,16,0
8.584438,8.82465,82,27,0
8.584438,8.82465,78,18,0
8.584438,8.82465,73,18,0
8.837293,9.080333,82,24,0
8.837293,9.080333,78,16,0
8.837293,9.080333,73,16,0
9.093124,9.348134,82,24,0
9.093124,9.348134,78,16,0
9.093124,9.348134,73,16,0
9.620422,9.8634615,82,20,0
9.620422,9.8634615,85,30,0
9.620422,9.8634615,78,20,0
9.876253,10.146267,85,30,0
9.876253,10.146267,82,20,0
9.876253,10.146267,78,20,0
10.160478,10.404464,89,34,0
10.160478,10.404464,82,23,0
10.160478,10.404464,78,23,0
10.417305,10.661186,78,21,0
10.417305,10.661186,82,21,0
10.417305,10.661186,87,32,0
10.674022,10.923913,85,32,0
10.674022,10.923913,82,21,0
10.674022,10.923913,78,21,0
11.195931,11.438021,82,23,0
11.195931,11.438021,87,35,0
11.195931,11.438021,78,23,0
11.450762,11.698642,85,33,0
11.450762,11.698642,82,21,0
11.450762,11.698642,78,21,0
11.970554,12.219429,78,29,0
11.970554,12.219429,82,34,0
11.970554,12.219429,73,23,0
12.232528,12.481403,78,32,0
12.232528,12.481403,73,21,0
12.232528,12.481403,70,21,0
12.756476,13.001427,78,30,0
12.756476,13.001427,75,20,0
12.756476,13.001427,71,20,0
13.014319,13.276316,78,30,0
13.014319,13.276316,75,20,0
13.014319,13.276316,71,20,0
13.290105,13.535056,82,35,0
13.290105,13.535056,75,23,0
13.290105,13.535056,71,23,0
13.547948,13.792899,80,31,0
13.547948,13.792899,75,20,0
13.547948,13.792899,71,20,0
13.805791,14.056683,78,31,0
13.805791,14.056683,75,20,0
13.805791,14.056683,71,20,0
14.330813,14.578692,82,30,0
14.330813,14.578692,78,20,0
14.330813,14.578692,73,20,0
14.591739,14.837662,82,30,0
14.591739,14.837662,78,20,0
14.591739,14.837662,73,20,0
14.850605,15.0917425,82,33,0
14.850605,15.0917425,78,21,0
14.850605,15.0917425,73,21,0
15.104434,15.348419,82,30,0
15.104434,15.348419,78,20,0
15.104434,15.348419,73,20,0
15.361261,15.631968,82,30,0
15.361261,15.631968,78,20,0
15.361261,15.631968,73,20,0
15.907141,16.15502,82,32,0
15.907141,16.15502,78,27,0
15.907141,16.15502,74,27,0
16.168068,16.40828,82,32,0
16.168068,16.40828,78,27,0
16.168068,16.40828,74,27,0
16.680819,16.92674,82,36,0
16.680819,16.92674,78,30,0
16.680819,16.92674,74,30,0
16.939684,17.191595,82,39,0
16.939684,17.191595,78,33,0
16.939684,17.191595,74,33,0
17.46578,17.711702,82,38,0
17.46578,17.711702,78,32,0
17.46578,17.711702,75,32,0
17.724646,17.976557,82,38,0
17.724646,17.976557,78,32,0
17.724646,17.976557,75,32,0
18.250742,18.495693,75,33,0
18.250742,18.495693,70,27,0
18.250742,18.495693,66,27,0
18.508585,18.761515,75,33,0
18.508585,18.761515,70,27,0
18.508585,18.761515,66,27,0
19.035751,19.283632,82,32,0
19.035751,19.283632,78,27,0
19.035751,19.283632,74,27,0
19.296679,19.53689,82,32,0
19.296679,19.53689,78,27,0
19.296679,19.53689,74,27,0
19.80943,20.055351,83,36,0
19.80943,20.055351,78,30,0
19.80943,20.055351,74,30,0
20.068295,20.320206,85,39,0
20.068295,20.320206,78,33,0
20.068295,20.320206,74,33,0
20.59439,20.837431,82,42,0
20.59439,20.837431,78,35,0
20.59439,20.837431,75,35,0
20.850222,21.102133,82,43,0
20.850222,21.102133,78,36,0
20.850222,21.102133,75,36,0
21.115393,21.363272,82,45,0
21.115393,21.363272,78,37,0
21.115393,21.363272,75,37,0
21.376318,21.62127,82,46,0
21.376318,21.62127,78,39,0
21.376318,21.62127,75,39,0
21.634161,21.91492,82,48,0
21.634161,21.91492,78,40,0
21.634161,21.91492,75,40,0
22.19813,22.45314,82,40,0
22.19813,22.45314,78,33,0
22.19813,22.45314,74,33,0
22.466562,22.716454,82,40,0
22.466562,22.716454,78,33,0
22.466562,22.716454,74,33,0
22.729605,22.987804,82,40,0
22.729605,22.987804,78,33,0
22.729605,22.987804,74,33,0
23.001392,23.263474,82,41,0
23.001392,23.263474,78,34,0
23.001392,23.263474,74,34,0
23.277267,23.55684,81,41,0
23.277267,23.55684,78,34,0
23.277267,23.55684,74,34,0
23.833557,24.078508,81,39,0
23.833557,24.078508,77,33,0
23.833557,24.078508,73,33,0
24.0914,24.343311,81,38,0
24.0914,24.343311,77,32,0
24.0914,24.343311,73,32,0
24.619614,24.866516,80,37,0
24.619614,24.866516,77,31,0
24.619614,24.866516,73,31,0
24.87951,25.133488,80,37,0
24.87951,25.133488,77,31,0
24.87951,25.133488,73,31,0
25.408829,25.654753,80,39,0
25.408829,25.654753,76,33,0
25.408829,25.654753,72,33,0
25.667696,25.913618,80,39,0
25.667696,25.913618,76,33,0
25.667696,25.913618,72,33,0
26.180391,26.310286,72,33,0
26.180391,26.429266,82,39,0
26.180391,26.429266,76,33,0
26.442364,26.697374,84,41,0
26.442364,26.697374,76,34,0
26.970694,27.217598,80,41,0
26.970694,27.217598,77,34,0
26.970694,27.217598,73,34,0
27.230593,27.477495,80,41,0
27.230593,27.477495,77,34,0
27.230593,27.477495,73,34,0
27.49049,27.74342,89,53,0
27.756731,28.007622,85,47,0
27.756731,28.007622,80,39,0
27.756731,28.007622,77,39,0
28.020828,28.273756,84,47,0
28.020828,28.273756,80,39,0
28.020828,28.273756,77,39,0
28.547995,28.795874,83,45,0
28.547995,28.795874,77,38,0
28.547995,28.795874,73,38,0
28.80892,29.0568,83,45,0
28.80892,29.0568,77,38,0
28.80892,29.0568,73,38,0
29.069847,29.313831,83,47,0
29.069847,29.313831,77,39,0
29.069847,29.313831,73,39,0
29.326674,29.574553,82,44,0
29.326674,29.574553,77,37,0
29.326674,29.574553,73,37,0
29.587599,29.85557,81,44,0
29.587599,29.85557,77,37,0
29.587599,29.85557,73,37,0
30.1306,30.375551,81,44,0
30.1306,30.375551,77,37,0
30.1306,30.375551,73,37,0
30.388443,30.636322,81,44,0
30.388443,30.636322,77,37,0
30.388443,30.636322,73,37,0
30.909267,31.153252,80,44,0
30.909267,31.153252,77,37,0
30.909267,31.153252,73,37,0
31.166094,31.416985,81,44,0
31.166094,31.416985,77,37,0
31.166094,31.416985,73,37,0
31.690088,31.934072,82,44,0
31.690088,31.934072,78,37,0
31.690088,31.934072,75,37,0
31.946915,32.227676,82,46,0
31.946915,32.227676,78,39,0
31.946915,32.227676,75,39,0
32.24245,32.50144,85,52,0
32.24245,32.515392,75,44,0
32.24245,32.515392,78,44,0
32.515392,32.78052,84,48,0
32.515392,32.78052,78,40,0
32.515392,32.78052,75,40,0
32.794476,33.07807,82,48,0
32.794476,33.07807,78,40,0
32.794476,33.07807,75,40,0
33.367058,33.617947,85,48,0
33.367058,33.617947,80,41,0
33.367058,33.617947,77,41,0
33.631153,33.882046,85,44,0
33.631153,33.882046,80,36,0
33.631153,33.882046,77,36,0
33.89525,34.149227,85,39,0
33.89525,34.149227,80,33,0
33.89525,34.149227,77,33,0
34.162594,34.41657,85,34,0
34.162594,34.41657,80,29,0
34.162594,34.41657,77,29,0
34.429935,34.73149,85,31,0
34.429935,34.73149,80,26,0
34.429935,34.73149,77,26,0
35.022594,35.270473,82,15,0
35.022594,35.270473,85,22,0
35.022594,35.270473,78,15,0
35.28352,35.5314,82,15,0
35.28352,35.5314,85,22,0
35.28352,35.5314,78,15,0
35.544445,35.789394,82,16,0
35.544445,35.789394,85,24,0
35.544445,35.789394,78,16,0
35.802288,36.055634,82,14,0
35.802288,36.055634,85,21,0
35.802288,36.055634,78,14,0
36.068966,36.35759,82,14,0
36.068966,36.35759,87,21,0
36.068966,36.35759,78,14,0
36.631645,36.874687,87,24,0
36.631645,36.874687,82,16,0
36.631645,36.874687,78,16,0
36.887478,37.1334,87,24,0
36.887478,37.1334,82,16,0
36.887478,37.1334,78,16,0
37.402176,37.645214,85,26,0
37.402176,37.645214,82,16,0
37.402176,37.645214,78,16,0
37.658005,37.910934,78,16,0
37.658005,37.910934,82,26,0
37.658005,37.910934,73,16,0
38.18209,38.42513,78,28,0
38.18209,38.42513,75,19,0
38.18209,38.42513,71,19,0
38.43792,38.68287,78,28,0
38.43792,38.68287,75,19,0
38.43792,38.68287,71,19,0
38.953606,39.196644,80,28,0
38.953606,39.196644,75,18,0
38.953606,39.196644,71,18,0
39.20944,39.45536,80,27,0
39.20944,39.45536,75,18,0
39.20944,39.45536,71,18,0
39.724133,39.96812,82,24,0
39.724133,39.96812,78,16,0
39.724133,39.96812,73,16,0
39.98096,40.224945,82,24,0
39.98096,40.224945,78,16,0
39.98096,40.224945,73,16,0
40.23779,40.478,82,27,0
40.23779,40.478,78,18,0
40.23779,40.478,73,18,0
40.490643,40.73368,82,24,0
40.490643,40.73368,78,16,0
40.490643,40.73368,73,16,0
40.746475,41.001484,82,24,0
40.746475,41.001484,78,16,0
40.746475,41.001484,73,16,0
41.273773,41.51681,82,20,0
41.273773,41.51681,85,30,0
41.273773,41.51681,78,20,0
41.529602,41.796894,85,30,0
41.529602,41.796894,82,20,0
41.529602,41.796894,78,20,0
41.810963,42.054947,89,34,0
41.810963,42.054947,82,23,0
41.810963,42.054947,78,23,0
42.06779,42.311775,78,21,0
42.06779,42.311775,82,21,0
42.06779,42.311775,87,32,0
42.324615,42.57451,85,32,0
42.324615,42.57451,82,21,0
42.324615,42.57451,78,21,0
42.846527,43.088615,82,23,0
42.846527,43.088615,87,35,0
42.846527,43.088615,78,23,0
43.101357,43.349236,85,33,0
43.101357,43.349236,82,21,0
43.101357,43.349236,78,21,0
43.621147,43.870026,78,23,0
43.621147,43.870026,82,34,0
43.621147,43.870026,73,23,0
43.88312,44.132,78,32,0
43.88312,44.132,73,21,0
43.88312,44.132,70,21,0
44.40707,44.652023,78,30,0
44.40707,44.652023,75,20,0
44.40707,44.652023,71,20,0
44.664913,44.918133,78,30,0
44.664913,44.918133,75,20,0
44.664913,44.918133,71,20,0
44.93146,45.176414,82,35,0
44.93146,45.176414,75,23,0
44.93146,45.176414,71,23,0
45.189304,45.434258,80,31,0
45.189304,45.434258,75,20,0
45.189304,45.434258,71,20,0
45.447147,45.69804,78,31,0
45.447147,45.69804,75,20,0
45.447147,45.69804,71,20,0
45.97217,46.22005,82,30,0
45.97217,46.22005,78,20,0
45.97217,46.22005,73,20,0
46.233097,46.47902,82,30,0
46.233097,46.47902,78,20,0
46.233097,46.47902,73,20,0
46.491962,46.7331,82,33,0
46.491962,46.7331,78,21,0
46.491962,46.7331,73,21,0
46.745792,46.989777,82,30,0
46.745792,46.989777,78,20,0
46.745792,46.989777,73,20,0
47.002617,47.28338,82,30,0
47.002617,47.28338,78,20,0
47.002617,47.28338,73,20,0
47.559082,47.80696,82,32,0
47.559082,47.80696,78,27,0
47.559082,47.80696,74,27,0
47.820007,48.06022,82,32,0
47.820007,48.06022,78,27,0
47.820007,48.06022,74,27,0
48.33276,48.578682,82,36,0
48.33276,48.578682,78,30,0
48.33276,48.578682,74,30,0
48.591625,48.858917,82,39,0
48.591625,48.858917,78,33,0
48.591625,48.858917,74,33,0
49.13391,49.379833,82,38,0
49.13391,49.379833,78,32,0
49.13391,49.379833,75,32,0
49.392776,49.644688,82,38,0
49.392776,49.644688,78,32,0
49.392776,49.644688,75,32,0
49.918873,50.163822,75,33,0
49.918873,50.163822,70,27,0
49.918873,50.163822,66,27,0
50.176716,50.429646,75,33,0
50.176716,50.429646,70,27,0
50.176716,50.429646,66,27,0
50.70388,50.951763,82,32,0
50.70388,50.951763,78,27,0
50.70388,50.951763,74,27,0
50.96481,51.20502,82,32,0
50.96481,51.20502,78,27,0
50.96481,51.20502,74,27,0
51.47756,51.72348,83,36,0
51.47756,51.72348,78,30,0
51.47756,51.72348,74,30,0
51.736423,51.988335,85,39,0
51.736423,51.988335,78,33,0
51.736423,51.988335,74,33,0
52.26252,52.50556,82,42,0
52.26252,52.50556,78,35,0
52.26252,52.50556,75,35,0
52.518353,52.770264,82,43,0
52.518353,52.770264,78,36,0
52.518353,52.770264,75,36,0
52.783524,53.031403,82,45,0
52.783524,53.031403,78,37,0
52.783524,53.031403,75,37,0
53.04445,53.2894,82,46,0
53.04445,53.2894,78,39,0
53.04445,53.2894,75,39,0
53.30229,53.577217,82,48,0
53.30229,53.577217,78,40,0
53.30229,53.577217,75,40,0
53.86012,54.115128,82,40,0
53.86012,54.115128,78,33,0
53.86012,54.115128,74,33,0
54.128548,54.37844,82,40,0
54.128548,54.37844,78,33,0
54.128548,54.37844,74,33,0
54.39159,54.653072,82,40,0
54.39159,54.653072,78,33,0
54.39159,54.653072,74,33,0
54.666836,54.931458,82,41,0
54.666836,54.931458,78,34,0
54.666836,54.931458,74,34,0
54.945446,55.22205,81,41,0
54.945446,55.22205,78,34,0
54.945446,55.22205,74,34,0
55.49858,55.74353,81,39,0
55.49858,55.74353,77,33,0
55.49858,55.74353,73,33,0
55.756424,56.008335,81,38,0
55.756424,56.008335,77,32,0
55.756424,56.008335,73,32,0
56.284637,56.53154,80,37,0
56.284637,56.53154,77,31,0
56.284637,56.53154,73,31,0
56.544537,56.79851,80,37,0
56.544537,56.79851,77,31,0
56.544537,56.79851,73,31,0
57.073853,57.319775,80,39,0
57.073853,57.319775,76,33,0
57.073853,57.319775,72,33,0
57.332718,57.578644,80,39,0
57.332718,57.578644,76,33,0
57.332718,57.578644,72,33,0
57.845413,57.97531,72,33,0
57.845413,58.094288,82,39,0
57.845413,58.094288,76,33,0
58.107388,58.3624,84,41,0
58.107388,58.3624,76,34,0
58.63572,58.88262,80,41,0
58.63572,58.88262,77,34,0
58.63572,58.88262,73,34,0
58.895615,59.169117,80,41,0
58.895615,59.169117,77,34,0
58.895615,59.169117,73,34,0
59.18351,59.43644,89,53,0
59.449753,59.70064,85,47,0
59.449753,59.70064,80,39,0
59.449753,59.70064,77,39,0
59.71385,59.99687,84,47,0
59.71385,59.99687,80,39,0
59.71385,59.99687,77,39,0
60.27269,60.52057,83,45,0
60.27269,60.52057,77,38,0
60.27269,60.52057,73,38,0
60.533615,60.781494,83,45,0
60.533615,60.781494,77,38,0
60.533615,60.781494,73,38,0
60.79454,61.038525,83,47,0
60.79454,61.038525,77,39,0
60.79454,61.038525,73,39,0
61.05137,61.299248,82,44,0
61.05137,61.299248,77,37,0
61.05137,61.299248,73,37,0
61.312294,61.57157,81,44,0
61.312294,61.57157,77,37,0
61.312294,61.57157,73,37,0
61.846146,62.091095,81,44,0
61.846146,62.091095,77,37,0
61.846146,62.091095,73,37,0
62.10399,62.351868,81,44,0
62.10399,62.351868,77,37,0
62.10399,62.351868,73,37,0
62.624813,62.868797,80,44,0
62.624813,62.868797,77,37,0
62.624813,62.868797,73,37,0
62.881638,63.13253,81,44,0
62.881638,63.13253,77,37,0
62.881638,63.13253,73,37,0
63.405632,63.64962,82,44,0
63.405632,63.64962,78,37,0
63.405632,63.64962,75,37,0
63.66246,63.930153,82,46,0
63.66246,63.930153,78,39,0
63.66246,63.930153,75,39,0
63.944244,64.20276,85,52,0
63.944244,64.21636,75,44,0
63.944244,64.21636,78,44,0
64.21636,64.4793,84,48,0
64.21636,64.4793,78,40,0
64.21636,64.4793,75,40,0
64.49322,64.77061,82,48,0
64.49322,64.77061,78,40,0
64.49322,64.77061,75,40,0
65.059265,65.31016,85,48,0
65.059265,65.31016,80,40,0
65.059265,65.31016,77,40,0
65.323364,65.57425,85,44,0
65.323364,65.57425,80,36,0
65.323364,65.57425,77,36,0
65.587456,65.84144,85,40,0
65.587456,65.84144,80,33,0
65.587456,65.84144,77,33,0
65.854805,66.11982,85,36,0
65.854805,66.11982,80,30,0
65.854805,66.11982,77,30,0
66.133766,66.342995,85,33,0
66.133766,66.342995,80,27,0
66.133766,66.342995,77,27,0
66.70333,66.96463,59,25,0
66.70333,66.96463,56,20,0
66.70333,66.96463,53,20,0
66.96463,67.22594,59,25,0
66.96463,67.22594,56,20,0
66.96463,67.22594,53,20,0
67.22594,67.48007,59,25,0
67.22594,67.48007,56,20,0
67.22594,67.48007,53,20,0
67.48007,67.74076,59,25,0
66.412735,67.74076,61,40,0
67.48007,67.74076,53,20,0
67.48007,67.74076,56,20,0
67.74076,68.07138,62,39,0
68.33767,68.59593,59,25,0
68.33767,68.59593,56,20,0
68.33767,68.59593,53,20,0
68.59593,68.854195,59,25,0
68.07138,68.854195,62,43,0
68.59593,68.854195,53,20,0
68.59593,68.854195,56,20,0
69.10834,69.36902,59,25,0
69.10834,69.36902,56,20,0
69.10834,69.36902,53,20,0
69.36902,69.64799,59,25,0
68.854195,69.64799,61,37,0
69.36902,69.64799,53,20,0
69.36902,69.64799,56,20,0
69.91816,70.17347,59,25,0
69.91816,70.17347,56,20,0
70.17347,70.42878,59,25,0
70.17347,70.42878,56,20,0
69.64799,70.42878,62,41,0
70.42878,70.680626,66,45,0
70.680626,70.93711,62,42,0
70.680626,70.93711,59,25,0
70.680626,70.93711,56,20,0
70.93711,71.19902,64,44,0
71.46092,71.726585,59,25,0
71.46092,71.726585,56,20,0
71.46092,71.726585,53,20,0
71.726585,71.983665,59,25,0
71.726585,71.983665,56,20,0
71.726585,71.983665,53,20,0
71.983665,72.236084,59,25,0
71.983665,72.236084,56,20,0
71.983665,72.236084,53,20,0
72.236084,72.49616,59,25,0
72.236084,72.49616,56,20,0
72.236084,72.49616,53,20,0
72.49616,72.7196,59,25,0
72.49616,72.7196,56,20,0
72.49616,72.7196,53,20,0
71.19902,72.794075,61,40,0
73.067566,73.32614,62,39,0
73.067566,73.32614,59,31,0
73.067566,73.32614,56,31,0
73.32614,73.58501,62,39,0
73.32614,73.58501,59,31,0
73.32614,73.58501,56,31,0
73.58501,73.84002,62,39,0
73.58501,73.84002,59,31,0
73.58501,73.84002,56,31,0
73.84002,74.12498,62,39,0
72.794075,74.12498,65,55,0
73.84002,74.12498,56,31,0
73.84002,74.12498,59,31,0
74.12498,74.39384,66,55,0
74.668,74.924484,62,40,0
74.668,74.924484,59,32,0
74.668,74.924484,56,32,0
74.924484,75.18098,62,41,0
74.39384,75.18098,66,61,0
74.924484,75.18098,56,32,0
74.924484,75.18098,59,32,0
75.43397,75.69527,62,41,0
75.43397,75.69527,59,33,0
75.43397,75.69527,56,33,0
75.69527,75.95967,62,41,0
75.18098,75.95967,65,54,0
75.69527,75.95967,56,33,0
75.69527,75.95967,59,33,0
76.22219,76.47519,62,42,0
76.22219,76.47519,59,33,0
76.47519,76.75584,62,42,0
76.47519,76.75584,59,33,0
75.95967,76.75584,66,60,0
76.75584,77.01232,69,67,0
77.01232,77.2724,66,63,0
77.01232,77.2724,62,43,0
77.01232,77.2724,59,34,0
77.2724,77.54062,68,66,0
77.80691,78.0599,62,48,0
77.80691,78.0599,59,39,0
78.0599,78.31521,62,48,0
78.0599,78.31521,59,39,0
78.31521,78.57169,62,49,0
78.31521,78.57169,59,39,0
78.57169,78.83862,62,49,0
78.57169,78.83862,59,39,0
78.83862,79.102394,62,49,0
78.83862,79.102394,59,39,0
77.54062,79.102394,65,65,0
79.102394,79.35424,69,70,0
79.35424,79.61073,66,66,0
79.35424,79.61073,62,50,0
79.35424,79.61073,59,39,0
79.61073,79.875755,68,69,0
80.134026,80.39594,62,50,0
80.134026,80.39594,59,40,0
80.39594,80.662224,62,51,0
80.39594,80.662224,59,40,0
79.875755,80.662224,65,63,0
80.662224,80.911476,69,71,0
80.911476,81.1662,66,67,0
80.911476,81.1662,62,51,0
80.911476,81.1662,59,39,0
81.1662,81.42447,68,71,0
81.68394,81.9422,62,52,0
81.68394,81.9422,59,41,0
81.9422,82.205345,62,52,0
81.9422,82.205345,59,41,0
81.42447,82.205345,65,64,0
82.205345,82.4535,73,80,0
82.4535,82.70939,69,75,0
82.4535,82.70939,65,57,0
82.4535,82.70939,62,44,0
82.70939,82.97254,71,76,0
83.23201,83.48615,65,58,0
83.23201,83.48615,62,46,0
83.48615,83.74622,65,58,0
83.48615,83.74622,62,47,0
82.97254,83.74622,68,73,0
83.74622,83.99438,73,82,0
83.99438,84.2491,69,77,0
83.99438,84.2491,65,58,0
83.99438,84.2491,62,44,0
84.2491,84.505585,71,78,0
84.76445,85.01745,65,59,0
84.76445,85.01745,62,47,0
85.01745,85.27692,65,59,0
85.01745,85.27692,62,47,0
84.505585,85.27692,68,74,0
85.27692,85.517044,76,80,0
85.517044,85.76464,73,60,0
85.517044,85.76464,68,47,0
85.517044,85.76464,65,47,0
85.76464,86.00271,74,81,0
86.00271,86.246506,71,66,0
86.00271,86.246506,68,52,0
86.00271,86.246506,65,52,0
86.246506,86.48256,76,86,0
86.48256,86.72477,73,69,0
86.48256,86.72477,68,54,0
86.48256,86.72477,65,54,0
86.72477,86.957375,74,94,0
86.957375,87.194435,71,72,0
86.957375,87.194435,68,57,0
86.957375,87.194435,65,57,0
87.194435,87.424164,76,98,0
87.424164,87.65872,73,77,0
87.424164,87.65872,68,61,0
87.424164,87.65872,65,61,0
87.65872,87.88656,74,103,0
87.88656,88.18448,71,80,0
87.88656,88.18448,68,63,0
87.88656,88.18448,65,63,0
88.18448,90.64726,77,101,0
88.18448,90.64726,65,88,0
91.03804,91.1593,77,101,0
91.03804,91.1593,65,88,0
91.173996,93.61608,78,101,0
91.173996,93.61608,66,88,0
93.990326,94.11239,78,101,0
93.990326,94.11239,66,88,0
94.11239,96.56966,81,101,0
94.11239,96.56966,69,88,0
96.96549,97.08913,81,101,0
96.96549,97.08913,69,88,0
97.08913,98.58149,83,105,0
97.08913,98.58149,71,92,0
98.58149,99.9873,84,109,0
98.58149,99.9873,72,95,0
99.9873,100.65052,73,80,0
99.9873,100.65052,85,98,0
100.73342,101.98414,85,57,0
100.65052,101.98414,73,50,0
102.04911,102.33581,87,59,0
101.98414,102.33581,75,49,0
102.33581,103.10937,75,54,0
102.33581,103.10937,87,65,0
103.10937,103.62103,73,50,0
103.10937,103.62103,85,57,0
103.62103,103.82685,70,46,0
103.62103,103.82685,82,55,0
103.89118,104.6627,78,61,0
103.82685,104.6627,66,54,0
104.6627,105.37773,68,50,0
104.6627,105.37773,80,57,0
105.441765,106.945786,82,62,0
105.37773,106.945786,70,54,0
107.0121,107.81619,85,63,0
106.945786,107.81619,73,55,0
107.81619,108.0753,77,57,0
107.81619,108.0753,89,65,0
108.0753,108.33442,75,56,0
108.0753,108.33442,87,64,0
108.33442,108.5317,73,56,0
108.33442,108.5317,85,64,0
108.59746,109.11115,87,72,0
108.5317,109.11115,75,63,0
109.11115,109.37208,73,58,0
109.11115,109.37208,85,64,0
109.37208,109.89292,70,59,0
109.37208,109.89292,82,67,0
109.89292,110.107185,66,55,0
109.89292,110.107185,78,63,0
110.175125,110.95648,78,68,0
110.107185,110.95648,66,60,0
110.95648,111.221756,70,60,0
110.95648,111.221756,82,68,0
111.221756,111.48703,68,54,0
111.221756,111.48703,80,61,0
111.48703,111.69084,66,54,0
111.48703,111.69084,78,61,0
111.75878,113.28822,82,68,0
111.69084,113.28822,70,60,0
113.354385,114.65114,82,68,0
113.28822,114.65114,70,60,0
114.65114,114.85596,70,63,0
114.65114,114.85596,82,72,0
114.924225,115.70919,82,77,0
114.85596,115.70919,70,67,0
115.70919,116.427635,63,60,0
115.70919,116.427635,75,72,0
116.494194,117.54066,82,82,0
116.427635,117.54066,70,72,0
117.54066,117.81844,71,67,0
117.54066,117.81844,83,76,0
117.81844,118.03122,73,65,0
117.81844,118.03122,85,76,0
118.10215,119.61279,82,86,0
118.03122,119.61279,70,75,0
119.61279,120.456635,75,86,0
119.67864,120.986206,87,102,0
120.986206,121.22622,74,70,0
120.986206,121.22622,86,82,0
121.30622,122.09118,86,95,0
121.22622,122.09118,74,78,0
122.09118,122.80963,73,70,0
122.09118,122.80963,85,82,0
122.87619,123.587685,85,88,0
122.80963,123.587685,73,76,0
123.6509,124.19177,87,85,0
123.587685,124.19177,75,74,0
124.19177,124.39313,77,73,0
124.19177,124.39313,89,86,0
124.46025,125.244255,85,94,0
124.39313,125.244255,73,83,0
125.244255,125.532036,82,82,0
125.244255,125.532036,94,97,0
125.532036,125.836624,78,75,0
125.532036,125.836624,90,89,0
125.836624,126.08187,77,73,0
125.836624,126.08187,89,87,0
126.148186,127.18607,88,98,0
126.08187,127.18607,76,90,0
127.18607,127.44494,87,85,0
127.18607,127.44494,75,72,0
127.44494,127.644066,74,71,0
127.44494,127.71632,86,84,0
127.71632,128.49101,86,97,0
127.64975,128.49101,74,82,0
128.49101,129.03189,85,86,0
128.49101,129.03189,73,73,0
129.03189,129.23325,74,70,0
129.03189,129.23325,86,83,0
129.30037,130.08897,87,99,0
129.23325,130.08897,75,84,0
130.08897,130.36963,78,83,0
130.08897,130.36963,90,98,0
130.36963,130.66054,77,73,0
130.36963,130.66054,89,87,0
130.66054,131.00806,75,70,0
130.66054,131.00806,87,83,0
131.07208,132.58214,90,67,0
131.00806,132.58214,78,60,0
132.64737,134.17119,91,66,0
132.58214,134.17119,79,58,0
134.23767,135.80283,92,60,0
134.17119,135.80283,80,54,0
135.87093,137.51048,93,56,0
135.80283,137.51048,81,49,0
137.58191,140.37386,94,47,0
137.51048,140.37386,82,45,0
144.03154,145.74472,63,33,0
145.74472,147.2994,62,33,0
144.2265,147.2994,78,44,0
144.16049,147.2994,69,39,0
144.09601,147.2994,66,36,0
150.45078,154.20665,66,36,0
3.124968,4.309841,73,35,0
4.309841,4.710463,75,34,0
4.710463,5.484026,75,38,0
5.484026,5.8677726,73,35,0
5.8677726,6.261929,70,33,0
6.261929,7.033446,66,37,0
7.033446,7.814953,68,35,0
7.814953,9.361556,70,38,0
9.361556,10.160478,73,39,0
10.160478,10.417305,77,41,0
10.417305,10.674022,75,39,0
10.674022,10.937065,73,39,0
10.937065,11.323346,75,44,0
11.323346,11.711688,73,42,0
11.711688,12.101541,70,41,0
12.101541,12.494502,66,39,0
12.494502,13.290105,66,42,0
13.290105,13.547948,70,42,0
13.547948,13.805791,68,37,0
13.805791,14.069887,66,37,0
14.069887,15.361261,70,42,0
16.420921,16.680819,54,34,0
16.420921,16.680819,62,42,0
15.646215,16.810251,70,42,0
16.810251,17.204853,70,49,0
17.204853,17.989817,70,52,0
17.989817,18.774826,63,48,0
19.549534,19.80943,62,42,0
19.549534,19.80943,54,34,0
18.774826,19.80943,70,42,0
19.80943,20.068295,71,49,0
20.068295,20.333466,73,49,0
20.333466,21.929699,70,52,0
21.929699,23.13933,70,54,0
23.13933,23.571583,69,48,0
23.571583,24.356571,69,45,0
24.356571,25.146856,68,44,0
25.146856,25.926561,68,48,0
25.926561,26.311377,70,51,0
26.311377,26.710796,72,50,0
26.710796,27.49049,68,57,0
27.49049,27.755623,77,58,0
27.756731,28.020828,73,56,0
28.020828,28.28707,72,56,0
28.28707,29.326674,71,57,0
29.326674,29.587599,70,53,0
29.587599,29.869673,69,53,0
29.869673,30.649368,69,55,0
30.649368,31.166094,68,56,0
31.166094,31.43019,69,58,0
31.43019,32.24245,70,57,0
32.24245,32.51423,73,60,0
32.515392,32.794476,72,54,0
32.794476,33.093,70,54,0
33.093,34.747364,73,60,0
34.747364,35.935627,73,35,0
35.935627,36.37278,75,34,0
36.37278,37.146343,75,38,0
37.146343,37.53009,73,35,0
37.53009,37.924248,70,33,0
37.924248,38.695763,66,37,0
38.695763,39.468304,68,35,0
39.468304,41.014908,70,38,0
41.014908,41.810963,73,39,0
41.810963,42.06779,77,41,0
42.06779,42.324615,75,39,0
42.324615,42.58766,73,39,0
42.58766,42.97394,75,44,0
42.97394,43.36228,73,42,0
43.36228,43.752136,70,41,0
43.752136,44.145096,66,39,0
44.145096,44.93146,66,42,0
44.93146,45.189304,70,42,0
45.189304,45.447147,68,37,0
45.447147,45.711243,66,37,0
45.711243,47.002617,70,42,0
48.07286,48.33276,62,37,0
48.07286,48.33276,54,30,0
47.298157,48.462193,70,42,0
48.462193,48.872986,70,49,0
48.872986,49.657948,70,52,0
49.657948,50.442955,63,48,0
51.217663,51.47756,62,37,0
51.217663,51.47756,54,30,0
50.442955,51.47756,70,42,0
51.47756,51.736423,71,49,0
51.736423,52.001595,73,49,0
52.001595,53.591686,70,52,0
53.591686,54.805576,70,54,0
54.805576,55.236607,69,48,0
55.236607,56.021595,69,45,0
56.021595,56.81188,68,44,0
56.81188,57.591587,68,48,0
57.591587,57.976402,70,51,0
57.976402,58.37582,72,50,0
58.37582,59.18351,68,57,0
59.18351,59.448643,77,58,0
59.449753,59.71385,73,56,0
59.71385,60.01176,72,56,0
60.01176,61.05137,71,57,0
61.05137,61.312294,70,53,0
61.312294,61.58522,69,53,0
61.58522,62.364914,69,55,0
62.364914,62.881638,68,56,0
62.881638,63.145737,69,58,0
63.145737,63.944244,70,57,0
63.944244,64.21523,73,60,0
64.21636,64.49322,72,54,0
64.49322,64.7852,70,54,0
66.342995,66.412735,37,35,0
64.7852,66.412735,73,60,0
66.412735,67.74076,49,37,0
67.74076,68.07138,50,37,0
68.07138,68.854195,50,44,0
68.854195,69.64799,49,37,0
69.64799,70.42878,50,37,0
70.42878,70.680626,54,43,0
70.680626,70.93711,50,39,0
70.93711,71.19902,52,41,0
72.7196,72.794075,41,40,0
71.19902,72.794075,49,39,0
72.794075,74.12498,53,51,0
74.12498,74.39384,54,53,0
74.39384,75.18098,54,62,0
75.18098,75.95967,53,54,0
75.95967,76.75584,54,54,0
76.75584,77.01232,57,64,0
77.01232,77.2724,54,58,0
77.2724,77.54062,56,62,0
77.54062,79.102394,53,59,0
79.102394,79.35424,57,67,0
79.35424,79.61073,54,60,0
79.61073,79.875755,56,65,0
79.875755,80.662224,53,61,0
80.662224,80.911476,57,68,0
80.911476,81.1662,54,61,0
81.1662,81.42447,56,66,0
81.42447,82.205345,53,62,0
82.205345,82.4535,61,76,0
82.4535,82.70939,57,69,0
82.70939,82.97254,59,69,0
82.97254,83.74622,56,71,0
83.74622,83.99438,61,78,0
83.99438,84.2491,57,70,0
84.2491,84.505585,59,71,0
84.505585,85.27692,56,72,0
85.27692,85.517044,64,69,0
85.517044,85.76464,61,64,0
85.76464,86.00271,62,71,0
86.00271,86.246506,59,67,0
86.246506,86.48256,64,76,0
86.48256,86.72477,61,72,0
86.72477,86.957375,62,81,0
86.957375,87.194435,59,75,0
87.194435,87.424164,64,85,0
87.424164,87.65872,61,80,0
87.65872,87.88656,62,90,0
87.88656,88.18448,59,85,0
88.447624,88.70004,56,55,0
88.447624,88.70004,49,55,0
88.447624,88.70004,53,55,0
88.447624,88.70004,61,69,0
88.70004,88.95246,61,67,0
88.70004,88.95246,49,54,0
88.70004,88.95246,53,54,0
88.70004,88.95246,56,54,0
88.95246,89.19904,56,52,0
88.95246,89.19904,61,66,0
88.95246,89.19904,49,52,0
88.95246,89.19904,53,52,0
89.19904,89.44313,56,51,0
89.19904,89.44313,61,65,0
89.19904,89.44313,49,51,0
89.19904,89.44313,53,51,0
89.44313,89.68615,56,50,0
89.44313,89.68615,61,64,0
89.44313,89.68615,49,50,0
89.44313,89.68615,53,50,0
89.68615,89.92806,56,50,0
89.68615,89.92806,61,63,0
89.68615,89.92806,49,50,0
89.68615,89.92806,53,50,0
89.92806,90.16887,56,49,0
89.92806,90.16887,61,62,0
89.92806,90.16887,49,49,0
89.92806,90.16887,53,49,0
90.16887,90.40863,56,48,0
90.16887,90.40863,61,60,0
90.16887,90.40863,49,48,0
90.16887,90.40863,53,48,0
90.40863,90.64726,61,59,0
90.40863,90.64726,49,47,0
90.40863,90.64726,53,47,0
90.40863,90.64726,56,47,0
90.64726,90.91678,61,58,0
90.64726,90.91678,49,46,0
90.64726,90.91678,53,46,0
90.64726,90.91678,56,46,0
91.4206,91.67302,59,55,0
91.4206,91.67302,47,55,0
91.4206,91.67302,62,69,0
91.4206,91.67302,54,55,0
91.67302,91.92253,62,67,0
91.67302,91.92253,47,54,0
91.67302,91.92253,59,54,0
91.67302,91.92253,54,54,0
91.92253,92.165085,62,66,0
91.92253,92.165085,47,52,0
91.92253,92.165085,59,52,0
91.92253,92.165085,54,52,0
92.165085,92.4067,62,65,0
92.165085,92.4067,47,51,0
92.165085,92.4067,59,51,0
92.165085,92.4067,54,51,0
92.4067,92.64738,62,64,0
92.4067,92.64738,47,50,0
92.4067,92.64738,59,50,0
92.4067,92.64738,54,50,0
92.64738,92.887085,62,63,0
92.64738,92.887085,47,50,0
92.64738,92.887085,59,50,0
92.64738,92.887085,54,50,0
92.887085,93.125885,62,62,0
92.887085,93.125885,54,49,0
92.887085,93.125885,47,49,0
92.887085,93.125885,59,49,0
93.125885,93.36378,62,60,0
93.125885,93.36378,47,48,0
93.125885,93.36378,54,48,0
93.125885,93.36378,59,48,0
93.36378,93.60107,59,47,0
93.36378,93.60107,47,47,0
93.36378,93.60107,54,47,0
93.36378,93.60107,62,59,0
93.60107,93.868,59,46,0
93.60107,93.868,54,46,0
93.60107,93.868,47,46,0
93.60107,93.868,62,58,0
94.37491,94.62848,62,69,0
94.37491,94.62848,54,55,0
94.37491,94.62848,45,55,0
94.37491,94.62848,57,55,0
94.62848,94.88205,57,54,0
94.62848,94.88205,54,54,0
94.62848,94.88205,45,54,0
94.62848,94.88205,62,67,0
94.88205,95.126816,57,52,0
94.88205,95.126816,54,52,0
94.88205,95.126816,45,52,0
94.88205,95.126816,62,66,0
95.126816,95.36974,57,51,0
95.126816,95.36974,54,51,0
95.126816,95.36974,45,51,0
95.126816,95.36974,62,65,0
95.36974,95.61091,57,50,0
95.36974,95.61091,62,64,0
95.36974,95.61091,45,50,0
95.36974,95.61091,54,50,0
95.61091,95.850174,45,50,0
95.61091,95.850174,54,50,0
95.61091,95.850174,57,50,0
95.61091,95.850174,62,63,0
95.850174,96.089066,45,49,0
95.850174,96.089066,54,49,0
95.850174,96.089066,57,49,0
95.850174,96.089066,62,62,0
96.089066,96.32796,57,48,0
96.089066,96.32796,62,60,0
96.089066,96.32796,45,48,0
96.089066,96.32796,54,48,0
96.32796,96.56966,57,47,0
96.32796,96.56966,62,59,0
96.32796,96.56966,45,47,0
96.32796,96.56966,54,47,0
96.56966,96.841805,57,46,0
96.56966,96.841805,62,58,0
96.56966,96.841805,45,46,0
96.56966,96.841805,54,46,0
97.34621,97.59602,59,59,0
97.34621,97.59602,44,59,0
97.34621,97.59602,66,75,0
97.34621,97.59602,62,59,0
97.34621,97.59602,54,59,0
97.59602,97.84483,59,59,0
97.59602,97.84483,44,59,0
97.59602,97.84483,54,59,0
97.59602,97.84483,62,59,0
97.59602,97.84483,66,75,0
97.84483,98.0875,66,75,0
97.84483,98.0875,44,59,0
97.84483,98.0875,54,59,0
97.84483,98.0875,62,59,0
97.84483,98.0875,59,59,0
98.0875,98.32792,66,75,0
98.0875,98.32792,54,58,0
98.0875,98.32792,62,58,0
98.0875,98.32792,44,58,0
98.0875,98.32792,59,58,0
98.32792,98.58149,59,58,0
98.32792,98.58149,44,58,0
98.32792,98.58149,62,58,0
98.32792,98.58149,66,75,0
98.32792,98.58149,54,58,0
98.833534,99.10373,65,86,0
98.833534,99.10373,43,69,0
98.833534,99.10373,59,69,0
98.833534,99.10373,61,69,0
98.833534,99.10373,53,69,0
99.10373,99.38337,59,70,0
99.10373,99.38337,43,70,0
99.10373,99.38337,53,70,0
99.10373,99.38337,61,70,0
99.10373,99.38337,65,88,0
99.38337,99.67314,65,90,0
99.38337,99.67314,59,72,0
99.38337,99.67314,43,72,0
99.38337,99.67314,61,72,0
99.38337,99.67314,53,72,0
99.67314,99.9873,59,73,0
99.67314,99.9873,43,73,0
99.67314,99.9873,65,93,0
99.67314,99.9873,61,73,0
99.67314,99.9873,53,73,0
101.00759,101.257774,82,32,0
101.00759,101.257774,78,27,0
101.27088,101.51839,82,35,0
101.27088,101.51839,78,29,0
101.53137,101.77632,82,32,0
101.53137,101.77632,78,27,0
101.789215,102.03612,82,32,0
101.789215,102.03612,78,27,0
102.59467,102.837715,82,36,0
102.59467,102.837715,78,30,0
102.8505,103.09643,82,36,0
102.8505,103.09643,78,30,0
103.365204,103.60824,82,35,0
103.365204,103.60824,78,29,0
104.149025,104.39206,75,32,0
104.149025,104.39206,71,27,0
104.404854,104.6498,75,35,0
104.404854,104.6498,71,29,0
104.92054,105.16358,71,27,0
104.92054,105.16358,75,32,0
105.17637,105.428955,71,27,0
105.17637,105.428955,75,32,0
105.69759,105.94158,78,32,0
105.69759,105.94158,73,27,0
105.95442,106.19841,78,35,0
105.95442,106.19841,73,29,0
106.21125,106.45146,78,32,0
106.21125,106.45146,73,27,0
106.4641,106.707146,78,32,0
106.4641,106.707146,73,27,0
106.71993,106.93951,73,27,0
106.71993,106.99884,78,32,0
107.270966,107.51401,78,34,0
107.270966,107.51401,82,41,0
107.526794,107.80172,82,41,0
107.526794,107.80172,78,34,0
108.85632,109.37208,82,42,0
108.85632,109.37208,78,35,0
109.63095,110.175125,78,42,0
109.63095,110.175125,73,35,0
110.43667,110.68162,75,41,0
110.43667,110.68162,71,34,0
110.6945,110.94338,71,34,0
110.6945,110.94338,75,41,0
112.01971,112.267586,73,31,0
112.01971,112.267586,78,36,0
112.28063,112.52656,73,33,0
112.28063,112.52656,78,39,0
112.5395,112.78064,73,31,0
112.5395,112.78064,78,36,0
112.79333,113.037315,73,31,0
112.79333,113.037315,78,36,0
113.050156,113.341156,73,31,0
113.050156,113.341156,78,36,0
113.61531,113.8632,74,31,0
113.61531,113.8632,77,36,0
113.87624,114.11957,74,33,0
113.87624,114.11957,77,39,0
114.13238,114.379326,74,31,0
114.13238,114.379326,77,36,0
114.39227,114.6382,74,31,0
114.39227,114.6382,77,36,0
115.18515,115.431076,75,34,0
115.18515,115.431076,78,41,0
115.444016,115.69593,75,34,0
115.444016,115.69593,78,41,0
115.970116,116.215065,66,33,0
115.970116,116.215065,70,40,0
116.22796,116.48089,66,33,0
116.22796,116.48089,70,40,0
116.75513,117.003006,74,36,0
116.75513,117.003006,77,43,0
117.01605,117.25626,74,36,0
117.01605,117.25626,77,43,0
117.268906,117.52707,74,27,0
117.268906,117.52707,77,39,0
117.54066,117.80456,65,42,0
117.54066,117.80456,62,35,0
117.81844,118.08796,65,36,0
117.81844,118.08796,62,26,0
118.363075,118.608086,75,45,0
118.363075,118.608086,78,45,0
118.62098,118.872894,75,46,0
118.62098,118.872894,78,46,0
118.886154,119.13403,75,50,0
118.886154,119.13403,78,50,0
119.14708,119.39203,75,52,0
119.14708,119.39203,78,52,0
119.40492,119.60702,75,55,0
119.40492,119.665474,78,55,0
119.93957,120.18745,78,64,0
119.93957,120.18745,82,64,0
120.20049,120.443825,78,66,0
120.20049,120.443825,82,66,0
120.456635,120.70358,78,66,0
120.456635,120.70358,82,66,0
120.71653,120.97272,78,66,0
120.71653,120.97272,82,66,0
121.56715,121.81307,78,61,0
121.56715,121.81307,82,61,0
121.82601,122.07793,82,61,0
121.82601,122.07793,78,61,0
122.35211,122.59706,82,62,0
122.35211,122.59706,78,62,0
122.609955,122.86288,82,62,0
122.609955,122.86288,78,62,0
123.137115,123.384995,81,50,0
123.137115,123.384995,77,50,0
123.39805,123.63826,81,50,0
123.39805,123.63826,77,50,0
123.92265,124.178314,77,58,0
123.92265,124.178314,81,58,0
124.721176,124.96619,82,55,0
124.721176,124.96619,78,55,0
124.97909,125.230995,82,63,0
124.97909,125.230995,78,63,0
126.40911,126.67004,82,66,0
126.40911,126.67004,78,66,0
126.67004,126.92618,82,66,0
126.67004,126.92618,78,66,0
126.92618,127.18607,82,64,0
126.92618,127.18607,78,64,0
127.18607,127.44494,82,64,0
127.18607,127.44494,78,64,0
127.44494,127.71632,82,64,0
127.44494,127.71632,78,64,0
127.97724,128.22511,82,58,0
127.97724,128.22511,78,58,0
128.23816,128.47838,82,66,0
128.23816,128.47838,78,66,0
128.76277,129.01843,78,60,0
128.76277,129.01843,82,60,0
129.03189,129.30037,78,60,0
129.03189,129.30037,82,60,0
129.5613,129.8063,83,58,0
129.5613,129.8063,80,58,0
129.8192,130.07549,83,61,0
129.8192,130.07549,80,61,0
130.08897,130.36963,83,62,0
130.08897,130.36963,80,49,0
130.36963,130.66054,83,67,0
130.36963,130.66054,80,67,0
130.66054,131.07208,80,49,0
130.66054,131.07208,83,62,0
131.32791,131.57521,83,30,0
131.32791,131.57521,86,36,0
131.58823,131.83553,83,32,0
131.58823,131.83553,86,38,0
131.84854,132.09187,83,29,0
131.84854,132.09187,86,36,0
132.10469,132.35315,83,29,0
132.10469,132.35315,86,36,0
132.36623,132.63432,83,29,0
132.36623,132.63432,86,35,0
132.90768,133.15793,83,29,0
132.90768,133.15793,86,35,0
133.1711,133.42133,83,29,0
133.1711,133.42133,86,36,0
133.4345,133.68123,83,28,0
133.4345,133.68123,86,34,0
133.69421,133.94327,83,27,0
133.69421,133.94327,86,32,0
133.95638,134.22437,83,27,0
133.95638,134.22437,86,32,0
134.5017,134.75735,83,27,0
134.5017,134.75735,88,31,0
134.77081,135.02647,88,33,0
134.77081,135.02647,83,27,0
135.03993,135.29254,88,30,0
135.03993,135.29254,83,25,0
135.30583,135.564,88,29,0
135.30583,135.564,83,25,0
135.57759,135.85732,88,29,0
135.57759,135.85732,83,25,0
136.14401,136.4161,90,29,0
136.14401,136.4161,86,24,0
136.43042,136.70251,90,29,0
136.43042,136.70251,86,26,0
136.71684,136.9808,90,27,0
136.71684,136.9808,86,24,0
136.99469,137.2654,90,27,0
136.99469,137.2654,86,22,0
137.27965,137.56763,90,27,0
137.27965,137.56763,86,22,0
137.89423,138.18655,90,25,0
137.89423,138.18655,85,20,0
138.20193,138.49055,90,27,0
138.20193,138.49055,85,21,0
138.50575,138.7982,90,25,0
138.50575,138.7982,85,20,0
138.81367,139.1075,90,25,0
138.81367,139.1075,85,20,0
139.12297,139.4178,90,25,0
139.12297,139.4178,85,20,0
139.43332,139.72899,90,25,0
139.43332,139.72899,85,20,0
139.7446,140.04152,90,25,0
139.7446,140.04152,85,20,0
140.05724,140.3579,85,20,0
140.05724,140.3579,90,25,0
143.96706,147.2994,57,30,0
143.90257,147.2994,47,29,0
143.84839,147.2994,35,27,0
149.8248,154.20665,61,24,0
147.80354,154.20665,42,25,0
148.30771,154.20665,49,25,0
147.2994,154.20665,30,30,0
149.31602,154.20665,58,25,0
148.81186,154.20665,54,25,0
100.87103,101.00759,42,27,0
101.00759,101.13959,49,29,0
101.13959,101.27088,54,31,0
101.27088,101.401474,58,32,0
101.401474,101.53137,61,34,0
101.53137,101.66029,66,35,0
101.66029,101.789215,61,31,0
101.789215,101.91917,66,36,0
101.91917,102.04911,70,31,0
102.46524,102.59467,42,27,0
102.59467,102.72259,49,29,0
102.72259,102.8505,54,31,0
102.8505,102.979935,58,32,0
102.979935,103.10937,61,34,0
103.10937,103.23729,66,35,0
103.23729,103.365204,61,31,0
103.365204,103.49312,66,36,0
103.49312,103.62103,70,31,0
104.0201,104.149025,42,27,0
104.149025,104.27694,51,29,0
104.27694,104.404854,54,31,0
104.404854,104.533775,59,32,0
104.533775,104.6627,63,34,0
105.56968,105.69759,42,27,0
105.69759,105.82601,49,29,0
105.82601,105.95442,54,31,0
105.95442,106.08283,58,32,0
106.08283,106.21125,61,34,0
106.21125,106.33768,66,35,0
106.33768,106.4641,61,31,0
106.4641,106.59202,66,36,0
106.59202,106.71993,70,31,0
107.14153,107.270966,42,31,0
107.270966,107.39888,49,33,0
107.39888,107.526794,54,35,0
107.526794,107.67149,58,36,0
107.67149,107.81619,61,39,0
107.81619,108.0753,70,33,0
107.81619,108.0753,66,33,0
107.81619,108.0753,65,40,0
108.0753,108.33442,70,32,0
108.0753,108.33442,66,32,0
108.0753,108.33442,63,37,0
108.33442,108.59746,70,30,0
108.33442,108.59746,66,30,0
108.33442,108.59746,61,36,0
108.72689,108.85632,42,31,0
108.85632,108.98374,49,33,0
108.98374,109.11115,54,35,0
109.11115,109.241615,58,36,0
109.241615,109.37208,61,39,0
110.30589,110.43667,42,27,0
110.43667,110.56559,51,29,0
110.56559,110.6945,54,31,0
110.6945,110.82549,59,32,0
110.82549,110.95648,63,34,0
110.95648,111.221756,63,33,0
110.95648,111.221756,59,33,0
110.95648,111.221756,58,40,0
111.221756,111.48703,63,32,0
111.221756,111.48703,59,32,0
111.221756,111.48703,56,37,0
111.48703,111.75878,63,30,0
111.48703,111.75878,59,30,0
111.48703,111.75878,54,36,0
111.889244,112.01971,42,27,0
112.01971,112.15017,49,29,0
112.15017,112.28063,54,31,0
112.28063,112.410065,58,32,0
112.410065,112.5395,61,34,0
112.5395,112.66641,66,35,0
112.66641,112.79333,61,31,0
112.79333,112.921745,66,36,0
112.921745,113.050156,70,31,0
113.48485,113.61531,42,33,0
113.61531,113.74577,50,34,0
113.74577,113.87624,53,35,0
113.87624,114.00431,58,36,0
114.00431,114.13238,62,37,0
115.05469,115.18515,42,36,0
115.18515,115.31458,51,38,0
115.31458,115.444016,54,41,0
115.444016,115.5766,58,43,0
115.5766,115.70919,63,45,0
116.624664,116.75513,42,37,0
116.75513,116.88559,50,39,0
116.88559,117.01605,53,41,0
117.01605,117.14248,58,43,0
117.14248,117.268906,62,44,0
117.54066,117.81844,59,50,0
117.81844,118.10215,61,54,0
118.23261,118.363075,42,36,0
118.363075,118.49203,51,37,0
118.49203,118.62098,54,38,0
118.62098,118.75357,58,39,0
118.75357,118.886154,63,41,0
118.886154,119.01662,66,42,0
119.01662,119.14708,54,44,0
119.14708,119.276,58,45,0
119.276,119.40492,63,45,0
119.40492,119.5435,66,47,0
119.5435,119.67864,70,48,0
119.809105,120.07003,48,58,0
120.07003,120.20049,54,48,0
120.20049,120.32857,58,50,0
120.71653,120.986206,70,54,0
120.71653,120.986206,66,54,0
120.32857,120.986206,63,52,0
120.986206,121.30622,70,53,0
120.986206,121.30622,66,53,0
120.986206,121.30622,62,53,0
121.43668,121.56715,49,47,0
121.56715,121.69658,58,50,0
121.69658,121.82601,61,52,0
121.82601,121.958595,66,55,0
121.958595,122.09118,70,57,0
123.00665,123.137115,49,45,0
123.137115,123.26758,57,47,0
123.26758,123.39805,61,49,0
123.39805,123.524475,65,52,0
123.524475,123.6509,69,54,0
123.92265,124.19177,69,56,0
123.92265,124.19177,65,47,0
123.92265,124.19177,63,47,0
124.19177,124.46025,65,60,0
124.59071,124.721176,42,53,0
124.721176,124.85013,49,56,0
124.85013,124.97909,54,60,0
124.97909,125.11167,58,64,0
125.11167,125.244255,61,67,0
125.244255,125.532036,70,68,0
125.532036,125.836624,70,66,0
125.532036,125.836624,66,66,0
125.836624,126.148186,70,62,0
125.836624,126.148186,66,62,0
125.836624,126.148186,65,74,0
126.27865,126.53957,48,54,0
126.53957,126.67004,54,56,0
126.67004,126.7981,58,60,0
127.18607,127.44494,70,62,0
126.7981,127.44494,64,64,0
127.18607,127.44494,63,62,0
127.18607,127.44494,66,62,0
127.44494,127.71632,70,59,0
127.44494,127.71632,66,59,0
127.44494,127.71632,62,59,0
127.84678,127.97724,49,58,0
127.97724,128.1077,58,61,0
128.1077,128.23816,61,63,0
128.23816,128.3646,66,66,0
128.3646,128.49101,70,69,0
128.76277,129.03189,70,66,0
128.76277,129.03189,66,66,0
128.76277,129.03189,61,66,0
129.03189,129.30037,70,66,0
129.03189,129.30037,66,66,0
129.03189,129.30037,62,66,0
129.43083,129.5613,49,63,0
129.5613,129.69025,56,65,0
129.69025,129.8192,59,66,0
129.8192,129.95409,63,68,0
129.95409,130.08897,68,70,0
130.08897,130.36963,71,69,0
130.08897,130.36963,66,43,0
130.08897,130.36963,68,43,0
130.36963,130.66054,71,65,0
130.36963,130.66054,65,41,0
130.36963,130.66054,68,41,0
130.66054,131.07208,71,64,0
130.66054,131.07208,68,40,0
130.66054,131.07208,63,40,0
131.2,131.32791,47,30,0
131.32791,131.45807,54,32,0
131.45807,131.58823,59,34,0
131.58823,131.71838,62,35,0
131.71838,131.84854,66,36,0
131.84854,131.97661,71,37,0
131.97661,132.10469,74,33,0
132.77753,132.90768,43,29,0
132.90768,133.0394,50,31,0
133.0394,133.1711,55,32,0
133.1711,133.3028,59,33,0
133.3028,133.4345,62,34,0
133.4345,133.56435,67,35,0
133.56435,133.69421,71,31,0
134.36967,134.5017,40,26,0
134.5017,134.63625,47,28,0
134.63625,134.77081,52,30,0
134.77081,134.90536,56,31,0
134.90536,135.03993,59,31,0
135.03993,135.17288,64,32,0
135.17288,135.30583,68,28,0
136.00748,136.14401,38,24,0
136.14401,136.28722,45,25,0
136.28722,136.43042,50,27,0
136.43042,136.57364,54,27,0
136.57364,136.71684,57,29,0
136.71684,136.85576,62,30,0
136.85576,136.99469,66,27,0
137.73883,137.89423,30,21,0
137.89423,138.04808,37,21,0
138.04808,138.20193,42,23,0
138.20193,138.35384,46,24,0
138.35384,138.50575,49,25,0
138.50575,138.65903,54,27,0
138.65903,138.81367,49,27,0
138.81367,138.96832,54,27,0
138.96832,139.12297,58,27,0
139.12297,139.27814,61,28,0
139.27814,139.43332,63,28,0
139.43332,139.5888,66,29,0
139.5888,139.7446,70,29,0
139.7446,139.90068,73,30,0
139.90068,140.05724,75,30,0
140.05724,140.21487,78,30,0
140.21487,140.37386,82,31,0
140.37386,140.53427,85,31,0
140.53427,140.67981,87,34,0
140.69608,140.8437,90,36,0
140.86034,141.01205,94,37,0
141.02916,141.1938,97,39,0
141.2121,141.48758,99,41,0
141.51819,142.38524,102,42,0
