start_time,end_time,note_value,velocity,instrument_program_number
0.525026,0.779091,50,31,0
0.525026,0.779091,57,31,0
0.779091,1.033156,57,31,0
0.779091,1.033156,50,31,0
1.033156,1.287221,57,36,0
1.033156,1.287221,50,36,0
2.492308,2.7300634,57,31,0
2.492308,2.7300634,50,31,0
2.7300634,2.967819,57,31,0
2.7300634,2.967819,50,31,0
2.967819,3.207378,57,35,0
2.967819,3.207378,50,35,0
3.686496,3.7657478,69,39,0
3.7657478,3.8449996,71,39,0
3.8449996,3.9242516,69,41,0
4.162007,4.3997626,69,44,0
3.9242516,4.3997626,66,44,0
4.3997626,4.4583197,74,45,0
4.3997626,4.4583197,66,42,0
4.633991,4.693657,66,45,0
4.633991,4.693657,78,42,0
4.8726544,5.11041,76,45,0
5.11041,5.3481655,74,42,0
4.8726544,5.3481655,66,37,0
5.3481655,5.407604,66,42,0
5.585921,5.64536,66,41,0
5.585921,5.64536,69,41,0
5.8236766,6.061432,66,45,0
5.8236766,6.061432,69,45,0
5.8236766,6.061432,71,45,0
6.2991877,6.536943,71,41,0
6.2991877,6.536943,69,41,0
6.2991877,6.536943,66,41,0
6.655821,6.7746987,69,41,0
6.655821,6.7746987,71,41,0
6.655821,6.7746987,66,41,0
6.7746987,7.250337,66,41,0
6.7746987,7.250337,69,41,0
6.7746987,7.250337,71,41,0
7.250337,7.3084583,66,42,0
7.250337,7.3084583,62,42,0
7.482823,7.5409446,66,42,0
7.482823,7.5409446,68,42,0
7.482823,7.5409446,62,42,0
7.715309,7.951288,69,45,0
7.951288,8.177925,71,42,0
7.715309,8.177925,66,45,0
7.715309,8.177925,62,45,0
8.177925,8.236047,62,44,0
8.177925,8.236047,66,44,0
8.410412,8.468533,66,44,0
8.410412,8.468533,68,44,0
8.410412,8.468533,62,44,0
8.642898,8.877126,69,45,0
8.877126,9.103764,71,42,0
8.642898,9.103764,66,45,0
8.642898,9.103764,62,45,0
9.103764,9.217901,66,44,0
9.103764,9.217901,62,44,0
9.33204,9.389109,68,44,0
9.33204,9.389109,62,44,0
9.33204,9.389109,66,44,0
9.560315,9.790271,69,47,0
9.560315,9.790271,64,47,0
9.560315,9.790271,62,47,0
10.0202265,10.25358,69,42,0
10.0202265,10.25358,61,42,0
10.370257,10.486935,61,42,0
10.370257,10.486935,69,42,0
10.486935,10.720288,61,42,0
10.486935,10.720288,69,42,0
11.183598,11.26025,73,44,0
11.26025,11.336902,74,44,0
11.336902,11.413553,73,44,0
11.643509,11.873465,74,47,0
11.413553,11.873465,71,47,0
11.873465,11.932238,71,49,0
11.873465,11.932238,79,49,0
12.108556,12.167329,71,45,0
12.108556,12.167329,83,45,0
12.343648,12.578739,81,48,0
12.578739,12.81383,79,42,0
12.343648,12.81383,71,41,0
12.81383,12.871528,67,42,0
12.81383,12.871528,71,42,0
13.044618,13.102314,74,42,0
13.044618,13.102314,71,42,0
13.044618,13.102314,67,42,0
13.275405,13.509633,67,46,0
13.275405,13.509633,78,46,0
13.275405,13.509633,74,46,0
13.275405,13.509633,71,46,0
13.742987,13.977216,67,42,0
13.742987,13.977216,78,42,0
13.742987,13.977216,74,42,0
13.742987,13.977216,71,42,0
14.09433,14.211444,67,42,0
14.09433,14.211444,78,42,0
14.09433,14.211444,74,42,0
14.09433,14.211444,71,42,0
14.211444,14.689873,71,42,0
14.211444,14.689873,78,42,0
14.211444,14.689873,74,42,0
14.211444,14.689873,67,42,0
14.689873,14.748646,67,42,0
14.689873,14.748646,71,42,0
14.924964,14.983737,67,42,0
14.924964,14.983737,71,42,0
14.924964,14.983737,73,42,0
15.160055,15.396034,74,46,0
15.396034,15.623497,76,42,0
15.160055,15.623497,71,46,0
15.160055,15.623497,67,46,0
15.623497,15.68227,67,45,0
15.623497,15.68227,71,45,0
15.858588,15.917361,73,45,0
15.858588,15.917361,71,45,0
15.858588,15.917361,67,45,0
16.09368,16.31711,74,47,0
16.31711,16.547897,76,44,0
16.09368,16.547897,71,47,0
16.09368,16.547897,67,47,0
16.547897,16.604763,67,45,0
16.547897,16.604763,71,45,0
16.77536,16.832226,73,45,0
16.77536,16.832226,71,45,0
16.77536,16.832226,67,45,0
17.002823,17.23361,67,49,0
17.002823,17.23361,69,49,0
17.002823,17.23361,74,49,0
17.464397,17.695183,66,45,0
17.464397,17.695183,74,45,0
17.810577,17.92597,66,45,0
17.810577,17.92597,74,45,0
17.92597,18.156757,66,45,0
17.92597,18.156757,74,45,0
19.420425,19.668482,69,27,0
19.420425,19.668482,62,27,0
19.668482,19.916538,69,27,0
19.668482,19.916538,62,27,0
19.916538,20.164595,69,33,0
19.916538,20.164595,62,33,0
21.363674,21.60143,69,27,0
21.363674,21.60143,62,27,0
21.60143,21.839186,69,27,0
21.60143,21.839186,62,27,0
21.839186,22.078745,69,31,0
21.839186,22.078745,62,31,0
22.557863,22.637114,81,35,0
22.637114,22.716366,83,35,0
22.716366,22.795618,81,36,0
23.028105,23.26059,81,39,0
22.795618,23.26059,78,39,0
23.26059,23.319363,86,39,0
23.26059,23.319363,78,39,0
23.495682,23.554676,78,37,0
23.495682,23.554676,90,37,0
23.73166,23.965015,88,41,0
23.965015,24.20277,86,37,0
23.73166,24.20277,78,33,0
24.20277,24.262209,78,37,0
24.440525,24.499964,78,36,0
24.440525,24.499964,81,36,0
24.678282,24.916037,83,39,0
24.678282,24.916037,81,39,0
24.678282,24.916037,78,39,0
25.153791,25.391548,83,37,0
25.153791,25.391548,81,37,0
25.153791,25.391548,78,37,0
25.510426,25.629303,81,37,0
25.510426,25.629303,78,37,0
25.510426,25.629303,83,37,0
25.629303,26.104942,83,37,0
25.629303,26.104942,81,37,0
25.629303,26.104942,78,37,0
26.104942,26.163063,78,38,0
26.104942,26.163063,74,38,0
26.337427,26.39555,78,38,0
26.337427,26.39555,80,38,0
26.337427,26.39555,74,38,0
26.569914,26.805893,81,41,0
26.805893,27.03253,83,37,0
26.569914,27.03253,74,41,0
26.569914,27.03253,78,41,0
27.03253,27.09065,74,39,0
27.03253,27.09065,78,39,0
27.265017,27.323137,78,38,0
27.265017,27.323137,74,38,0
27.265017,27.323137,80,38,0
27.497501,27.731731,81,41,0
27.731731,27.958368,83,37,0
27.497501,27.958368,74,41,0
27.497501,27.958368,78,41,0
27.958368,28.015436,78,39,0
27.958368,28.015436,74,39,0
28.186644,28.243713,78,39,0
28.186644,28.243713,74,39,0
28.186644,28.243713,80,39,0
28.41492,28.644875,81,41,0
28.41492,28.644875,76,41,0
28.41492,28.644875,74,41,0
28.87483,29.108185,81,38,0
28.87483,29.108185,73,38,0
29.224861,29.34154,81,38,0
29.224861,29.34154,73,38,0
29.34154,29.574894,81,38,0
29.34154,29.574894,73,38,0
30.038202,30.114855,85,39,0
30.114855,30.191505,86,39,0
30.191505,30.268158,85,39,0
30.498114,30.72807,86,42,0
30.268158,30.72807,83,42,0
30.72807,30.786627,83,44,0
30.72807,30.786627,91,44,0
30.962297,31.02107,83,39,0
30.962297,31.02107,95,39,0
31.19739,31.430742,93,42,0
31.430742,31.665834,91,38,0
31.19739,31.665834,83,37,0
31.665834,31.723532,79,38,0
31.665834,31.723532,83,38,0
31.896622,31.954319,86,38,0
31.896622,31.954319,79,38,0
31.896622,31.954319,83,38,0
32.127407,32.361637,79,42,0
32.127407,32.361637,83,42,0
32.127407,32.361637,86,42,0
32.127407,32.361637,90,42,0
32.59499,32.82922,79,37,0
32.59499,32.82922,83,37,0
32.59499,32.82922,86,37,0
32.59499,32.82922,90,37,0
32.946335,33.06345,79,37,0
32.946335,33.06345,83,37,0
32.946335,33.06345,86,37,0
32.946335,33.06345,90,37,0
33.06345,33.540947,79,37,0
33.06345,33.540947,83,37,0
33.06345,33.540947,86,37,0
33.06345,33.540947,90,37,0
33.540947,33.59972,83,38,0
33.540947,33.59972,79,38,0
33.77604,33.834812,79,38,0
33.77604,33.834812,83,38,0
33.77604,33.834812,85,38,0
34.011127,34.24711,86,42,0
34.24711,34.47457,88,38,0
34.011127,34.47457,79,42,0
34.011127,34.47457,83,42,0
34.47457,34.533344,79,39,0
34.47457,34.533344,83,39,0
34.709663,34.768436,79,39,0
34.709663,34.768436,83,39,0
34.709663,34.768436,85,39,0
34.94475,35.168182,86,42,0
35.168182,35.39897,88,39,0
34.94475,35.39897,79,42,0
34.94475,35.39897,83,42,0
35.39897,35.455837,79,39,0
35.39897,35.455837,83,39,0
35.626434,35.6833,79,39,0
35.626434,35.6833,83,39,0
35.626434,35.6833,85,39,0
35.853897,36.084682,79,44,0
35.853897,36.084682,81,44,0
35.853897,36.084682,86,44,0
36.31547,36.546257,78,39,0
36.31547,36.546257,86,39,0
36.66165,36.777042,78,39,0
36.66165,36.777042,86,39,0
36.777042,37.00783,78,39,0
36.777042,37.00783,86,39,0
39.607037,39.721592,61,75,0
39.721592,39.836147,59,68,0
39.836147,39.950706,61,68,0
39.950706,40.007984,57,68,0
39.607037,40.06526,64,75,0
40.06526,40.180653,62,68,0
40.296047,40.41911,59,68,0
40.06526,40.54217,66,71,0
40.54217,40.656727,61,75,0
40.656727,40.771282,59,69,0
40.771282,40.88584,61,69,0
40.88584,40.94312,57,69,0
40.54217,41.000397,64,75,0
41.000397,41.11579,62,68,0
41.231182,41.346577,59,68,0
41.000397,41.46197,66,71,0
41.691082,41.76582,78,56,0
41.76582,41.84056,80,56,0
41.84056,41.9153,78,56,0
41.691082,41.9153,68,56,0
41.691082,41.9153,74,56,0
41.9153,42.03112,69,60,0
41.9153,42.03112,73,60,0
41.9153,42.03112,76,60,0
42.146942,42.26276,69,59,0
42.146942,42.26276,76,59,0
42.146942,42.26276,73,59,0
42.378582,43.305153,69,59,0
42.378582,43.305153,73,59,0
42.378582,43.305153,76,59,0
43.305153,43.768436,64,52,0
43.305153,43.768436,60,52,0
43.768436,44.00008,76,48,0
43.768436,44.00008,72,48,0
43.768436,44.00008,68,48,0
44.00008,44.231724,76,47,0
44.00008,44.231724,72,47,0
44.00008,44.231724,68,47,0
44.231724,44.68765,76,46,0
44.231724,44.68765,72,46,0
44.231724,44.68765,68,46,0
44.68765,44.745243,76,34,0
44.68765,44.745243,72,34,0
44.91803,44.976875,77,34,0
44.91803,44.976875,72,34,0
44.91803,44.976875,76,34,0
45.153416,45.38218,79,37,0
45.38218,45.617565,81,34,0
45.153416,45.617565,76,37,0
45.153416,45.617565,72,37,0
45.617565,45.674755,76,34,0
45.617565,45.674755,72,34,0
45.84633,45.905174,77,34,0
45.84633,45.905174,76,34,0
45.84633,45.905174,72,34,0
46.081715,46.302692,79,38,0
46.302692,46.533073,81,34,0
46.081715,46.533073,77,38,0
46.081715,46.533073,71,38,0
46.533073,46.644695,76,34,0
46.533073,46.644695,71,34,0
46.533073,46.644695,67,34,0
46.75632,46.8703,74,34,0
46.75632,46.8703,71,34,0
46.75632,46.8703,67,34,0
46.8703,46.930424,74,35,0
46.930424,46.990543,76,35,0
46.990543,47.217712,74,39,0
47.217712,47.44488,72,34,0
46.990543,47.44488,64,39,0
47.44488,47.56089,72,34,0
47.44488,47.56089,64,34,0
47.6769,47.79589,72,34,0
47.6769,47.79589,64,34,0
47.914883,48.248077,72,39,0
47.914883,48.248077,64,39,0
48.847237,48.96329,64,75,0
48.96329,49.077847,62,68,0
49.077847,49.1924,64,68,0
49.1924,49.249683,60,68,0
48.847237,49.30696,67,75,0
49.30696,49.42235,65,68,0
49.537746,49.660324,62,68,0
49.30696,49.782906,69,71,0
49.782906,49.89746,64,75,0
49.89746,50.012016,62,69,0
50.012016,50.12657,64,69,0
50.12657,50.183853,60,69,0
49.782906,50.24113,67,75,0
50.24113,50.35652,65,68,0
50.471916,50.58731,62,68,0
50.24113,50.702705,69,71,0
50.931816,51.006554,81,56,0
51.006554,51.08129,83,56,0
51.08129,51.156033,81,56,0
50.931816,51.156033,71,56,0
50.931816,51.156033,77,56,0
51.156033,51.27185,72,60,0
51.156033,51.27185,76,60,0
51.156033,51.27185,79,60,0
51.387672,51.503494,72,59,0
51.387672,51.503494,79,59,0
51.387672,51.503494,76,59,0
51.619316,52.545887,72,59,0
51.619316,52.545887,76,59,0
51.619316,52.545887,79,59,0
52.545887,53.00917,67,52,0
52.545887,53.00917,63,52,0
53.00917,53.240814,79,48,0
53.00917,53.240814,75,48,0
53.00917,53.240814,71,48,0
53.240814,53.472458,79,47,0
53.240814,53.472458,75,47,0
53.240814,53.472458,71,47,0
53.472458,53.928383,79,46,0
53.472458,53.928383,75,46,0
53.472458,53.928383,71,46,0
53.928383,53.985977,79,34,0
53.928383,53.985977,75,34,0
54.158764,54.276455,80,34,0
54.158764,54.276455,75,34,0
54.158764,54.276455,79,34,0
54.39415,54.622913,82,37,0
54.622913,54.8583,84,34,0
54.39415,54.8583,79,37,0
54.39415,54.8583,75,37,0
54.8583,54.91549,79,34,0
54.8583,54.91549,75,34,0
55.087063,55.14591,80,34,0
55.087063,55.14591,79,34,0
55.087063,55.14591,75,34,0
55.32245,55.543427,82,38,0
55.543427,55.773808,84,34,0
55.32245,55.773808,80,38,0
55.32245,55.773808,74,38,0
55.773808,55.88543,79,34,0
55.773808,55.88543,74,34,0
55.773808,55.88543,70,34,0
55.997055,56.111034,77,34,0
55.997055,56.111034,74,34,0
55.997055,56.111034,70,34,0
56.111034,56.172565,77,35,0
56.172565,56.234097,79,35,0
56.234097,56.461266,77,39,0
56.461266,56.688435,75,34,0
56.234097,56.688435,67,39,0
56.688435,56.804443,75,34,0
56.688435,56.804443,67,34,0
56.920456,57.039444,75,34,0
56.920456,57.039444,67,34,0
57.158436,57.6344,75,39,0
57.158436,57.6344,67,39,0
57.748955,57.863514,61,28,0
57.748955,57.863514,55,25,0
57.97807,58.092625,55,25,0
57.97807,58.092625,61,25,0
57.97807,58.092625,63,29,0
58.2093,58.325977,65,34,0
58.2093,58.325977,61,25,0
58.2093,58.325977,55,25,0
58.44576,58.565536,67,33,0
58.44576,58.565536,61,26,0
58.44576,58.565536,55,26,0
58.678856,58.792175,61,31,0
58.678856,58.792175,55,27,0
58.905495,59.018814,61,27,0
58.905495,59.018814,55,27,0
58.905495,59.018814,63,31,0
59.134636,59.250454,65,36,0
59.134636,59.250454,61,28,0
59.134636,59.250454,55,28,0
59.370235,59.490013,67,33,0
59.370235,59.490013,61,28,0
59.370235,59.490013,55,28,0
59.601334,59.71265,61,34,0
59.601334,59.71265,55,29,0
59.823967,59.935284,61,30,0
59.823967,59.935284,55,30,0
59.823967,59.935284,63,34,0
60.049423,60.16356,65,39,0
60.049423,60.16356,61,29,0
60.049423,60.16356,55,29,0
60.282436,60.401314,68,42,0
60.513424,60.62553,67,38,0
60.513424,60.62553,61,31,0
60.513424,60.62553,55,31,0
60.737637,60.849747,61,31,0
60.737637,60.849747,55,31,0
60.737637,60.849747,63,38,0
60.965565,61.081387,65,39,0
60.965565,61.081387,61,31,0
60.965565,61.081387,55,31,0
61.19721,61.31303,61,38,0
61.19721,61.31303,55,32,0
61.427586,61.54214,63,36,0
61.427586,61.54214,56,36,0
61.6567,61.771255,56,35,0
61.6567,61.771255,65,35,0
61.6567,61.771255,63,35,0
61.88793,62.00461,67,40,0
61.88793,62.00461,63,30,0
61.88793,62.00461,56,30,0
62.12439,62.244167,68,39,0
62.12439,62.244167,63,31,0
62.12439,62.244167,56,31,0
62.357487,62.470806,63,36,0
62.357487,62.470806,56,31,0
62.584126,62.697445,65,31,0
62.584126,62.697445,56,31,0
62.584126,62.697445,63,36,0
62.813263,62.929085,67,41,0
62.813263,62.929085,63,32,0
62.813263,62.929085,56,32,0
63.048866,63.168644,68,39,0
63.048866,63.168644,63,32,0
63.048866,63.168644,56,32,0
63.27996,63.391277,63,39,0
63.27996,63.391277,56,34,0
63.502598,63.613914,65,34,0
63.502598,63.613914,56,34,0
63.502598,63.613914,63,39,0
63.72805,63.84219,67,44,0
63.72805,63.84219,63,34,0
63.72805,63.84219,56,34,0
63.961067,64.07995,70,48,0
64.192055,64.30416,68,44,0
64.192055,64.30416,63,36,0
64.192055,64.30416,56,36,0
64.41627,64.52837,65,36,0
64.41627,64.52837,56,36,0
64.41627,64.52837,63,44,0
64.64505,64.76173,67,45,0
64.64505,64.76173,63,36,0
64.64505,64.76173,56,36,0
64.8784,64.99509,63,43,0
64.8784,64.99509,56,36,0
65.11176,65.22844,66,48,0
65.11176,65.22844,60,48,0
65.345116,65.46179,60,44,0
65.345116,65.46179,68,44,0
65.345116,65.46179,66,44,0
65.57847,65.695145,70,47,0
65.57847,65.695145,66,47,0
65.57847,65.695145,60,47,0
65.814926,65.93471,72,46,0
65.814926,65.93471,66,37,0
65.814926,65.93471,60,37,0
66.04844,66.16217,66,48,0
66.04844,66.16217,60,48,0
66.275894,66.389626,68,37,0
66.275894,66.389626,60,37,0
66.275894,66.389626,66,44,0
66.50545,66.62127,70,47,0
66.50545,66.62127,66,47,0
66.50545,66.62127,60,47,0
66.74105,66.86083,72,45,0
66.74105,66.86083,66,37,0
66.74105,66.86083,60,37,0
66.97497,67.0891,66,47,0
66.97497,67.0891,60,47,0
67.20325,67.31738,68,46,0
67.20325,67.31738,60,46,0
67.20325,67.31738,66,46,0
67.43406,67.550735,70,56,0
67.43406,67.550735,66,56,0
67.43406,67.550735,60,56,0
67.66962,67.78849,73,50,0
67.903046,68.0176,72,55,0
67.903046,68.0176,66,55,0
67.903046,68.0176,60,55,0
68.132164,68.24672,66,40,0
68.132164,68.24672,60,40,0
68.132164,68.24672,68,48,0
68.36254,68.47836,70,50,0
68.36254,68.47836,66,40,0
68.36254,68.47836,60,40,0
68.59418,68.71,66,47,0
68.59418,68.71,60,40,0
68.82456,68.93912,68,59,0
68.82456,68.93912,61,59,0
69.05367,69.16823,61,52,0
69.05367,69.16823,70,52,0
69.05367,69.16823,68,52,0
69.284904,69.40158,72,57,0
69.284904,69.40158,68,57,0
69.284904,69.40158,61,57,0
69.52136,69.64114,73,55,0
69.52136,69.64114,68,55,0
69.52136,69.64114,61,55,0
69.75405,69.86696,68,59,0
69.75405,69.86696,61,59,0
69.979866,70.09277,70,53,0
69.979866,70.09277,61,53,0
69.979866,70.09277,68,53,0
70.208595,70.32442,72,59,0
70.208595,70.32442,68,59,0
70.208595,70.32442,61,59,0
70.4442,70.56398,73,55,0
70.4442,70.56398,68,55,0
70.4442,70.56398,61,55,0
70.6757,70.78741,68,59,0
70.6757,70.78741,61,59,0
70.899124,71.01084,70,57,0
70.899124,71.01084,61,57,0
70.899124,71.01084,68,57,0
71.12498,71.23911,72,64,0
71.12498,71.23911,68,64,0
71.12498,71.23911,61,64,0
71.35162,71.46414,75,64,0
71.57625,71.688354,73,62,0
71.57625,71.688354,68,62,0
71.57625,71.688354,61,62,0
71.80046,71.91257,68,48,0
71.80046,71.91257,61,48,0
71.80046,71.91257,70,59,0
72.02839,72.14421,72,61,0
72.02839,72.14421,68,48,0
72.02839,72.14421,61,48,0
72.26003,72.375854,68,57,0
72.26003,72.375854,61,48,0
72.48757,72.59928,68,71,0
72.48757,72.59928,62,71,0
72.711,72.822716,70,63,0
72.711,72.822716,62,63,0
72.711,72.822716,68,63,0
72.93685,73.05099,72,70,0
72.93685,73.05099,68,70,0
72.93685,73.05099,62,70,0
73.16681,73.28263,75,75,0
73.393555,73.50448,74,69,0
73.393555,73.50448,68,69,0
73.393555,73.50448,62,69,0
73.6154,73.72632,68,52,0
73.6154,73.72632,62,52,0
73.6154,73.72632,70,63,0
73.84088,73.95544,72,66,0
73.84088,73.95544,68,52,0
73.84088,73.95544,62,52,0
74.06999,74.18455,68,62,0
74.29586,74.40718,68,70,0
74.29586,74.40718,72,70,0
74.29586,74.40718,74,70,0
74.5185,74.629814,72,66,0
74.5185,74.629814,75,66,0
74.5185,74.629814,68,66,0
74.74437,74.858925,72,72,0
74.74437,74.858925,68,72,0
74.74437,74.858925,77,72,0
74.97475,75.09057,80,81,0
75.20189,75.3132,72,80,0
75.20189,75.3132,68,80,0
75.20189,75.3132,79,80,0
75.42452,75.53584,68,72,0
75.42452,75.53584,75,72,0
75.42452,75.53584,72,72,0
75.65123,75.766624,72,80,0
75.65123,75.766624,68,80,0
75.65123,75.766624,77,80,0
75.879135,75.991646,74,66,0
76.10297,76.21429,77,75,0
76.3256,76.43692,79,75,0
76.54592,76.65492,80,81,0
76.76135,76.86778,84,75,0
76.97385,77.07992,80,75,0
77.18563,77.29129,77,75,0
77.39954,77.5078,80,81,0
77.612465,77.717125,77,75,0
77.821785,77.926445,74,75,0
78.031105,78.135765,77,75,0
78.24256,78.34935,74,81,0
78.45332,78.5573,70,75,0
78.66126,78.765236,74,75,0
78.86921,78.97318,70,75,0
79.07997,79.18677,67,81,0
79.29073,79.39471,70,75,0
79.49868,79.60265,67,75,0
79.70663,79.81059,63,75,0
79.9196,80.0286,67,85,0
80.133606,80.23862,63,80,0
80.34362,80.44862,60,80,0
80.55363,80.65864,63,80,0
80.76917,80.87971,60,93,0
80.98785,81.09878,56,86,0
81.21272,81.32984,60,89,0
81.45032,81.5729,56,103,0
82.021324,82.46976,63,83,0
82.021324,82.46976,56,83,0
82.021324,82.46976,60,83,0
82.021324,82.46976,68,93,0
82.46976,82.91819,72,83,0
82.46976,82.91819,75,83,0
82.46976,82.91819,68,83,0
82.46976,82.91819,80,93,0
82.91819,83.37976,80,81,0
82.91819,83.37976,87,81,0
81.5729,83.37976,55,108,0
82.91819,83.37976,92,91,0
82.91819,83.37976,84,81,0
83.82819,84.27662,63,83,0
83.82819,84.27662,56,83,0
83.82819,84.27662,60,83,0
83.82819,84.27662,68,93,0
84.27662,84.72505,72,83,0
84.27662,84.72505,75,83,0
84.27662,84.72505,68,83,0
84.27662,84.72505,80,93,0
84.72505,85.17348,80,81,0
84.72505,85.17348,87,81,0
83.37976,85.17348,54,108,0
84.72505,85.17348,92,91,0
84.72505,85.17348,84,81,0
85.636765,86.08681,63,83,0
85.636765,86.08681,56,83,0
85.636765,86.08681,59,83,0
85.636765,86.08681,68,93,0
86.08681,86.53686,71,83,0
86.08681,86.53686,75,83,0
86.08681,86.53686,68,83,0
86.08681,86.53686,80,93,0
86.53686,86.9869,80,81,0
86.53686,86.9869,87,81,0
85.17348,86.9869,53,111,0
86.53686,86.9869,92,91,0
86.53686,86.9869,83,81,0
87.46241,87.97054,67,93,0
87.46241,87.97054,57,83,0
87.46241,87.97054,69,93,0
87.46241,87.97054,55,83,0
87.46241,87.97054,61,83,0
87.97054,88.49124,73,83,0
87.97054,88.49124,67,83,0
87.97054,88.49124,81,93,0
87.97054,88.49124,79,93,0
87.97054,88.49124,69,83,0
88.49124,88.833664,79,78,0
88.49124,88.833664,81,78,0
88.49124,88.833664,93,86,0
88.49124,88.833664,91,86,0
88.49124,88.833664,85,78,0
88.833664,88.957214,81,88,0
88.957214,89.080765,83,88,0
89.080765,89.20431,81,88,0
86.9869,89.20431,52,111,0
89.44387,89.6781,81,97,0
89.20431,89.6781,78,97,0
89.6781,89.79434,78,90,0
89.6781,89.79434,86,101,0
89.6781,89.79434,81,90,0
89.91058,90.02514,78,83,0
89.91058,90.02514,90,93,0
89.91058,90.02514,81,83,0
90.139694,90.372185,88,102,0
90.372185,90.601295,86,93,0
90.139694,90.601295,78,75,0
90.139694,90.601295,81,75,0
90.601295,90.71301,78,93,0
90.601295,90.71301,74,89,0
90.82472,90.93845,78,81,0
90.82472,90.93845,81,90,0
90.82472,90.93845,74,81,0
91.052185,91.27326,78,85,0
91.052185,91.27326,74,85,0
91.052185,91.27326,83,95,0
91.052185,91.27326,81,85,0
91.49434,91.715416,78,77,0
91.49434,91.715416,74,77,0
91.49434,91.715416,83,86,0
91.49434,91.715416,81,77,0
91.82596,91.93649,78,77,0
91.82596,91.93649,74,77,0
91.82596,91.93649,83,86,0
91.82596,91.93649,81,77,0
91.93649,92.386536,78,77,0
91.93649,92.386536,74,77,0
91.93649,92.386536,83,86,0
91.93649,92.386536,81,86,0
92.386536,92.49631,78,90,0
92.386536,92.49631,74,90,0
92.60608,92.716995,78,90,0
92.60608,92.716995,80,90,0
92.60608,92.716995,74,90,0
92.82792,93.05294,81,97,0
93.05294,93.272484,83,89,0
92.82792,93.272484,78,87,0
92.82792,93.272484,74,87,0
93.272484,93.382256,74,93,0
93.272484,93.382256,78,93,0
93.49202,93.604126,74,90,0
93.49202,93.604126,78,90,0
93.49202,93.604126,80,90,0
93.71624,93.94619,81,97,0
93.94619,94.16882,83,89,0
93.71624,94.16882,78,87,0
93.71624,94.16882,74,87,0
94.16882,94.28297,78,93,0
94.16882,94.28297,74,93,0
94.3971,94.51465,78,93,0
94.3971,94.51465,74,93,0
94.3971,94.51465,80,93,0
94.632195,94.86215,81,97,0
94.632195,94.86215,69,87,0
94.632195,94.86215,74,87,0
94.632195,94.86215,76,87,0
95.0921,95.32546,81,84,0
95.0921,95.32546,76,75,0
95.0921,95.32546,69,75,0
95.0921,95.32546,73,75,0
95.44214,95.558815,81,84,0
95.44214,95.558815,69,75,0
95.44214,95.558815,76,75,0
95.44214,95.558815,73,75,0
95.558815,96.02552,81,84,0
95.558815,96.02552,69,75,0
95.558815,96.02552,76,75,0
95.558815,96.02552,73,75,0
96.25548,96.33213,85,89,0
96.33213,96.40878,86,89,0
96.40878,96.485435,85,89,0
96.71207,96.938705,86,96,0
96.485435,96.938705,83,96,0
96.938705,97.05538,83,89,0
96.938705,97.05538,91,99,0
96.938705,97.05538,86,89,0
97.17206,97.28579,83,81,0
97.17206,97.28579,95,91,0
97.17206,97.28579,86,81,0
97.39952,97.62216,93,97,0
97.62216,97.85211,91,86,0
97.39952,97.85211,83,76,0
97.85211,97.962654,79,76,0
97.85211,97.962654,83,86,0
98.07319,98.187744,79,76,0
98.07319,98.187744,86,86,0
98.07319,98.187744,83,76,0
98.3023,98.53309,79,80,0
98.3023,98.53309,90,90,0
98.3023,98.53309,86,80,0
98.3023,98.53309,83,80,0
98.76388,98.98341,79,72,0
98.76388,98.98341,90,80,0
98.76388,98.98341,86,72,0
98.76388,98.98341,83,72,0
99.093185,99.20296,79,72,0
99.093185,99.20296,90,80,0
99.093185,99.20296,86,72,0
99.093185,99.20296,83,72,0
99.20296,99.65036,79,72,0
99.20296,99.65036,90,80,0
99.20296,99.65036,86,72,0
99.20296,99.65036,83,72,0
99.65036,99.76051,79,86,0
99.65036,99.76051,83,86,0
99.87066,99.980804,79,86,0
99.87066,99.980804,83,86,0
99.87066,99.980804,85,86,0
100.09096,100.31759,86,96,0
100.31759,100.53486,88,86,0
100.09096,100.53486,83,86,0
100.09096,100.53486,79,86,0
100.53486,100.646576,79,91,0
100.53486,100.646576,83,91,0
100.758286,100.87,79,89,0
100.758286,100.87,83,89,0
100.758286,100.87,85,89,0
100.98172,101.20202,86,96,0
101.20202,101.4328,88,89,0
100.98172,101.4328,79,86,0
100.98172,101.4328,83,86,0
101.4328,101.548195,79,91,0
101.4328,101.548195,83,91,0
101.66359,101.778984,79,91,0
101.66359,101.778984,83,91,0
101.66359,101.778984,85,91,0
101.89438,102.12947,79,84,0
101.89438,102.12947,74,84,0
101.89438,102.12947,86,94,0
101.89438,102.12947,81,84,0
102.364555,102.59965,78,73,0
102.364555,102.59965,81,73,0
102.364555,102.59965,74,73,0
102.364555,102.59965,86,81,0
102.71719,102.83474,78,73,0
102.71719,102.83474,81,73,0
102.71719,102.83474,74,73,0
102.71719,102.83474,86,81,0
102.83474,103.08376,78,73,0
102.83474,103.08376,81,73,0
102.83474,103.08376,74,73,0
102.83474,103.08376,86,81,0
106.33778,106.626884,71,44,0
106.626884,107.178154,69,46,0
107.178154,107.45969,67,42,0
106.33778,107.45969,62,30,0
106.33778,107.45969,59,30,0
107.45969,108.584984,66,44,0
107.45969,108.584984,62,30,0
107.45969,108.584984,59,30,0
108.584984,108.87386,69,44,0
108.87386,109.409294,67,46,0
109.409294,109.67823,66,40,0
108.584984,109.67823,60,30,0
108.584984,109.67823,57,30,0
109.67823,110.75426,64,44,0
109.67823,110.75426,60,30,0
109.67823,110.75426,57,30,0
110.75426,111.0243,67,45,0
111.0243,111.551445,66,46,0
111.551445,111.81293,64,40,0
110.75426,111.81293,59,31,0
110.75426,111.81293,55,31,0
111.81293,112.884575,67,46,0
111.81293,112.884575,62,31,0
111.81293,112.884575,55,34,0
112.884575,113.16611,66,45,0
113.16611,113.69963,64,46,0
113.69963,113.973,66,42,0
112.884575,113.973,61,44,0
112.884575,113.973,55,44,0
113.973,115.170135,62,44,0
113.973,115.170135,54,44,0
115.170135,115.46814,76,56,0
115.46814,116.02174,74,55,0
116.02174,116.288506,72,44,0
115.170135,116.288506,71,40,0
115.170135,116.288506,64,40,0
116.288506,117.40025,71,45,0
116.288506,117.40025,67,40,0
116.288506,117.40025,64,40,0
117.40025,117.685394,74,51,0
117.685394,118.23444,72,55,0
118.23444,118.49802,71,44,0
117.40025,118.49802,69,36,0
117.40025,118.49802,62,36,0
118.49802,119.58607,69,45,0
118.49802,119.58607,66,38,0
118.49802,119.58607,62,38,0
119.58607,119.86519,72,52,0
119.86519,120.44295,71,55,0
120.44295,120.71858,69,47,0
119.58607,120.71858,67,36,0
119.58607,120.71858,60,36,0
120.71858,121.42743,78,61,0
121.42743,121.57847,81,55,0
121.57847,121.692726,79,44,0
121.692726,121.806984,76,44,0
120.71858,121.928154,72,35,0
121.806984,121.928154,72,44,0
120.71858,121.928154,67,35,0
121.928154,122.24471,71,46,0
122.24471,122.86016,69,48,0
122.86016,123.186035,71,39,0
121.928154,123.186035,66,37,0
121.928154,123.186035,60,37,0
123.186035,123.523605,60,40,0
123.523605,124.12232,59,37,0
123.186035,124.557556,67,30,0
124.557556,124.85289,83,42,0
124.85289,125.40416,82,45,0
125.40416,125.534386,80,40,0
124.47051,125.675156,75,27,0
125.604774,125.675156,75,27,0
124.38346,125.675156,71,27,0
125.534386,125.675156,71,27,0
125.675156,126.62507,82,44,0
126.62507,126.76406,71,27,0
126.694565,126.76406,75,27,0
126.76406,127.04087,82,42,0
127.04087,127.57439,80,45,0
127.57439,127.70513,78,40,0
127.70513,127.844124,71,27,0
127.77463,127.844124,75,27,0
127.844124,128.91492,80,42,0
128.91492,129.18944,80,42,0
129.18944,129.72731,79,47,0
129.72731,129.97981,78,42,0
128.91492,129.97981,72,29,0
129.97981,130.24394,73,37,0
129.97981,130.49455,77,50,0
130.24394,130.75197,72,39,0
130.75197,131.01659,71,35,0
130.49455,131.01659,76,44,0
131.01659,131.28122,75,38,0
131.28122,131.81046,73,42,0
131.81046,132.09685,75,42,0
131.01659,132.09685,70,31,0
132.09685,132.93079,71,30,0
132.09685,132.93079,66,30,0
133.31902,133.61435,79,37,0
133.61435,134.16562,78,39,0
134.16562,134.29585,76,36,0
133.24138,134.43661,71,23,0
134.36624,134.43661,71,23,0
133.16373,134.43661,67,23,0
134.29585,134.43661,67,23,0
134.43661,135.38654,78,38,0
135.38654,135.52553,67,23,0
135.45604,135.52553,71,23,0
135.52553,135.80234,78,37,0
135.80234,136.33586,76,39,0
136.33586,136.4666,74,36,0
136.4666,136.60559,67,23,0
136.53609,136.60559,71,23,0
136.60559,137.67638,76,38,0
137.67638,137.9509,76,39,0
137.9509,138.48878,75,45,0
138.48878,138.74129,74,39,0
137.67638,138.74129,68,27,0
138.74129,139.0059,69,35,0
138.74129,139.25555,73,47,0
139.0059,139.51196,68,37,0
139.51196,139.77658,67,31,0
139.25555,139.77658,72,40,0
139.77658,140.0412,71,36,0
140.0412,140.57043,69,39,0
139.77658,140.85684,66,29,0
140.57043,140.85684,66,39,0
140.85684,142.02374,62,28,0
142.02374,142.31648,71,35,0
142.31648,142.8536,69,36,0
142.8536,143.13513,67,34,0
142.02374,143.13513,62,26,0
142.02374,143.13513,59,26,0
143.13513,144.24626,66,36,0
143.13513,144.24626,62,26,0
143.13513,144.24626,59,26,0
144.24626,144.5278,69,36,0
144.5278,145.05554,67,38,0
145.05554,145.32448,66,35,0
144.24626,145.32448,60,26,0
144.24626,145.32448,57,26,0
145.32448,146.39818,64,36,0
145.32448,146.39818,60,26,0
145.32448,146.39818,57,26,0
146.39818,146.67154,67,37,0
146.67154,147.19356,66,38,0
147.19356,147.45505,64,35,0
146.39818,147.45505,59,27,0
146.39818,147.45505,55,27,0
147.45505,148.52669,67,27,0
147.45505,148.52669,62,27,0
147.45505,148.52669,55,27,0
148.52669,148.80823,66,37,0
148.80823,149.33647,64,38,0
149.33647,149.60985,66,35,0
148.52669,149.60985,61,36,0
148.52669,149.60985,55,36,0
149.60985,150.80698,62,36,0
149.60985,150.80698,54,36,0
150.80698,151.09714,76,47,0
151.09714,151.6344,74,46,0
151.6344,151.90117,72,36,0
150.80698,151.90117,71,35,0
150.80698,151.90117,64,35,0
151.90117,153.01291,71,38,0
151.90117,153.01291,67,35,0
151.90117,153.01291,64,35,0
153.01291,153.29323,74,42,0
153.29323,153.83026,72,46,0
153.83026,154.09384,71,36,0
153.01291,154.09384,69,29,0
153.01291,154.09384,62,29,0
154.09384,155.1819,69,38,0
154.09384,155.1819,66,31,0
154.09384,155.1819,62,31,0
155.1819,155.46101,72,44,0
155.46101,156.01883,71,46,0
156.01883,156.33075,69,39,0
155.1819,156.33075,67,29,0
155.1819,156.33075,60,29,0
156.33075,157.03958,78,51,0
157.03958,157.19063,81,46,0
157.19063,157.30489,79,36,0
157.30489,157.41914,76,36,0
156.33075,157.54031,72,28,0
157.41914,157.54031,72,36,0
156.33075,157.54031,67,28,0
157.54031,157.85687,71,38,0
157.85687,158.47232,69,40,0
158.47232,158.81157,71,34,0
157.54031,158.81157,66,30,0
157.54031,158.81157,60,30,0
158.81157,159.17311,60,35,0
159.17311,159.88283,59,30,0
158.81157,160.23102,67,26,0
160.23102,160.52635,83,42,0
160.52635,161.07762,82,45,0
161.07762,161.20786,80,40,0
160.14397,161.34862,75,27,0
161.27823,161.34862,75,27,0
160.05693,161.34862,71,27,0
161.20786,161.34862,71,27,0
161.34862,162.29854,82,42,0
162.29854,162.43753,71,27,0
162.36803,162.43753,75,27,0
162.43753,162.71432,82,42,0
162.71432,163.24785,80,45,0
163.24785,163.3786,78,40,0
163.3786,163.5176,71,27,0
163.44809,163.5176,75,27,0
163.5176,164.58838,80,42,0
164.58838,164.8629,80,42,0
164.8629,165.40077,79,47,0
165.40077,165.65327,78,42,0
164.58838,165.65327,72,29,0
165.65327,165.9174,73,37,0
165.65327,166.1661,77,50,0
165.9174,166.42055,72,39,0
166.42055,166.68518,71,35,0
166.1661,166.68518,76,44,0
166.68518,166.9498,75,38,0
166.9498,167.47903,73,42,0
167.47903,167.76543,75,42,0
166.68518,167.76543,70,31,0
167.76543,168.59937,71,30,0
167.76543,168.59937,66,30,0
168.98761,169.28294,79,37,0
169.28294,169.83421,78,39,0
169.83421,169.96443,76,36,0
168.90996,170.10521,71,23,0
170.03482,170.10521,71,23,0
168.8323,170.10521,67,23,0
169.96443,170.10521,67,23,0
170.10521,171.05511,78,38,0
171.05511,171.1941,67,23,0
171.12462,171.1941,71,23,0
171.1941,171.47092,78,37,0
171.47092,172.00444,76,39,0
172.00444,172.13518,74,36,0
172.13518,172.27417,67,23,0
172.20468,172.27417,71,23,0
172.27417,173.34496,76,38,0
173.34496,173.61949,76,39,0
173.61949,174.15736,75,45,0
174.15736,174.40987,74,39,0
173.34496,174.40987,68,27,0
174.40987,174.67448,69,35,0
174.40987,174.92317,73,47,0
174.67448,175.17667,68,37,0
175.17667,175.44128,67,31,0
174.92317,175.44128,72,40,0
175.44128,175.7059,71,36,0
175.7059,176.23515,69,39,0
175.44128,176.52155,66,29,0
176.23515,176.52155,66,39,0
176.52155,177.68846,62,28,0
177.68846,177.9812,71,35,0
177.9812,178.51831,69,36,0
178.51831,178.79985,67,34,0
177.68846,178.79985,62,26,0
177.68846,178.79985,59,26,0
178.79985,179.90971,66,36,0
178.79985,179.90971,62,26,0
178.79985,179.90971,59,26,0
179.90971,180.19125,69,36,0
180.19125,180.719,67,38,0
180.719,180.98795,66,35,0
179.90971,180.98795,60,26,0
179.90971,180.98795,57,26,0
180.98795,182.05928,64,37,0
180.98795,182.05928,60,26,0
180.98795,182.05928,57,26,0
182.05928,182.33266,67,37,0
182.33266,182.85466,66,38,0
182.85466,183.11615,64,35,0
182.05928,183.11615,59,27,0
182.05928,183.11615,55,27,0
183.11615,184.18779,67,27,0
183.11615,184.18779,62,27,0
183.11615,184.18779,55,27,0
184.18779,184.46933,66,37,0
184.46933,184.99757,64,38,0
184.99757,185.27095,66,35,0
184.18779,185.27095,61,36,0
184.18779,185.27095,55,36,0
185.27095,186.46808,62,36,0
185.27095,186.46808,54,36,0
186.46808,186.75824,76,47,0
186.75824,187.29552,74,46,0
187.29552,187.56227,72,36,0
186.46808,187.56227,71,35,0
186.46808,187.56227,64,35,0
187.56227,188.67401,71,38,0
187.56227,188.67401,67,35,0
187.56227,188.67401,64,35,0
188.67401,188.95433,74,42,0
188.95433,189.49136,72,46,0
189.49136,189.75494,71,36,0
188.67401,189.75494,69,29,0
188.67401,189.75494,62,29,0
189.75494,190.843,69,38,0
189.75494,190.843,66,31,0
189.75494,190.843,62,31,0
190.843,191.12212,72,44,0
191.12212,191.67993,71,46,0
191.67993,191.99185,69,39,0
190.843,191.99185,67,29,0
190.843,191.99185,60,29,0
191.99185,192.7007,78,51,0
192.7007,192.85173,81,46,0
192.85173,192.96599,79,36,0
192.96599,193.08025,76,36,0
191.99185,193.20142,72,28,0
193.08025,193.20142,72,36,0
191.99185,193.20142,67,28,0
193.20142,193.51797,71,38,0
193.51797,194.13342,69,40,0
194.13342,194.47267,71,34,0
193.20142,194.47267,66,30,0
193.20142,194.47267,60,30,0
194.47267,194.83421,60,35,0
194.83421,195.6226,59,30,0
194.47267,196.04947,67,26,0
196.56805,196.82211,57,31,0
196.56805,196.82211,50,31,0
196.82211,197.07619,57,31,0
196.82211,197.07619,50,31,0
197.07619,197.33025,57,36,0
197.07619,197.33025,50,36,0
198.53534,198.77309,57,31,0
198.53534,198.77309,50,31,0
198.77309,199.01085,57,31,0
198.77309,199.01085,50,31,0
199.01085,199.25041,57,35,0
199.01085,199.25041,50,35,0
199.72952,199.80878,69,39,0
199.80878,199.88803,71,39,0
199.88803,199.96729,69,41,0
200.20503,200.4428,69,44,0
199.96729,200.4428,66,44,0
200.4428,200.50134,66,42,0
200.4428,200.50134,74,45,0
200.67702,200.73668,66,45,0
200.67702,200.73668,78,42,0
200.91568,201.15344,76,45,0
201.15344,201.39119,74,42,0
200.91568,201.39119,66,37,0
201.39119,201.45064,66,42,0
201.62895,201.68839,66,41,0
201.62895,201.68839,69,41,0
201.8667,202.10446,66,45,0
201.8667,202.10446,69,45,0
201.8667,202.10446,71,45,0
202.34221,202.57997,66,41,0
202.34221,202.57997,69,41,0
202.34221,202.57997,71,41,0
202.69885,202.81773,66,41,0
202.69885,202.81773,69,41,0
202.69885,202.81773,71,41,0
202.81773,203.29337,66,41,0
202.81773,203.29337,69,41,0
202.81773,203.29337,71,41,0
203.29337,203.35149,66,42,0
203.29337,203.35149,62,42,0
203.52585,203.58397,66,42,0
203.52585,203.58397,68,42,0
203.52585,203.58397,62,42,0
203.75833,203.99431,69,45,0
203.99431,204.22095,71,42,0
203.75833,204.22095,66,45,0
203.75833,204.22095,62,45,0
204.22095,204.27907,62,44,0
204.22095,204.27907,66,44,0
204.45345,204.51157,62,44,0
204.45345,204.51157,66,44,0
204.45345,204.51157,68,44,0
204.68593,204.92015,69,45,0
204.92015,205.14679,71,42,0
204.68593,205.14679,66,45,0
204.68593,205.14679,62,45,0
205.14679,205.20386,66,44,0
205.14679,205.20386,62,44,0
205.37506,205.43213,66,44,0
205.37506,205.43213,62,44,0
205.37506,205.43213,68,44,0
205.60335,205.8333,69,47,0
205.60335,205.8333,64,47,0
205.60335,205.8333,62,47,0
206.06325,206.29662,69,42,0
206.06325,206.29662,61,42,0
206.41328,206.52997,69,42,0
206.41328,206.52997,61,42,0
206.52997,206.76332,69,42,0
206.52997,206.76332,61,42,0
207.22662,207.30328,73,44,0
207.30328,207.37993,74,44,0
207.37993,207.45659,73,44,0
207.68654,207.91649,74,47,0
207.45659,207.91649,71,47,0
207.91649,207.97527,71,49,0
207.91649,207.97527,79,49,0
208.15158,208.21036,71,45,0
208.15158,208.21036,83,45,0
208.38667,208.62177,81,48,0
208.62177,208.85686,79,42,0
208.38667,208.85686,71,41,0
208.85686,208.91455,67,42,0
208.85686,208.91455,71,42,0
209.08765,209.14534,67,42,0
209.08765,209.14534,74,42,0
209.08765,209.14534,71,42,0
209.31844,209.55266,67,46,0
209.31844,209.55266,78,46,0
209.31844,209.55266,74,46,0
209.31844,209.55266,71,46,0
209.78601,210.02025,67,42,0
209.78601,210.02025,78,42,0
209.78601,210.02025,74,42,0
209.78601,210.02025,71,42,0
210.13736,210.25447,67,42,0
210.13736,210.25447,78,42,0
210.13736,210.25447,74,42,0
210.13736,210.25447,71,42,0
210.25447,210.7329,67,42,0
210.25447,210.7329,78,42,0
210.25447,210.7329,74,42,0
210.25447,210.7329,71,42,0
210.7329,210.79167,67,42,0
210.7329,210.79167,71,42,0
210.96799,211.02676,67,42,0
210.96799,211.02676,71,42,0
210.96799,211.02676,73,42,0
211.20308,211.43906,74,46,0
211.43906,211.66652,76,42,0
211.20308,211.66652,71,46,0
211.20308,211.66652,67,46,0
211.66652,211.7253,67,45,0
211.66652,211.7253,71,45,0
211.90161,211.96039,67,45,0
211.90161,211.96039,71,45,0
211.90161,211.96039,73,45,0
212.1367,212.36014,74,47,0
212.36014,212.59093,76,44,0
212.1367,212.59093,67,47,0
212.1367,212.59093,71,47,0
212.59093,212.6478,67,45,0
212.59093,212.6478,71,45,0
212.81839,212.87526,67,45,0
212.81839,212.87526,71,45,0
212.81839,212.87526,73,45,0
213.04585,213.27664,67,49,0
213.04585,213.27664,69,49,0
213.04585,213.27664,74,49,0
213.50743,213.7382,66,45,0
213.50743,213.7382,74,45,0
213.8536,213.969,66,45,0
213.8536,213.969,74,45,0
213.969,214.19978,66,45,0
213.969,214.19978,74,45,0
215.46346,215.7115,69,27,0
215.46346,215.7115,62,27,0
215.7115,215.95956,69,27,0
215.7115,215.95956,62,27,0
215.95956,216.20763,69,33,0
215.95956,216.20763,62,33,0
217.40671,217.64445,69,27,0
217.40671,217.64445,62,27,0
217.64445,217.88222,69,27,0
217.64445,217.88222,62,27,0
217.88222,218.12177,69,31,0
217.88222,218.12177,62,31,0
218.60089,218.68015,81,35,0
218.68015,218.7594,83,35,0
218.7594,218.83865,81,36,0
219.07114,219.30362,81,39,0
218.83865,219.30362,78,39,0
219.30362,219.3624,78,39,0
219.30362,219.3624,86,39,0
219.53871,219.5977,78,37,0
219.53871,219.5977,90,37,0
219.77469,220.00804,88,41,0
220.00804,220.2458,86,37,0
219.77469,220.2458,78,33,0
220.2458,220.30524,78,37,0
220.48355,220.543,78,36,0
220.48355,220.543,81,36,0
220.72131,220.95906,78,39,0
220.72131,220.95906,81,39,0
220.72131,220.95906,83,39,0
221.19682,221.43457,78,37,0
221.19682,221.43457,81,37,0
221.19682,221.43457,83,37,0
221.55345,221.67233,78,37,0
221.55345,221.67233,81,37,0
221.55345,221.67233,83,37,0
221.67233,222.14796,78,37,0
221.67233,222.14796,81,37,0
221.67233,222.14796,83,37,0
222.14796,222.20609,78,38,0
222.14796,222.20609,74,38,0
222.38046,222.43858,78,38,0
222.38046,222.43858,80,38,0
222.38046,222.43858,74,38,0
222.61295,222.84892,81,41,0
222.84892,223.07556,83,37,0
222.61295,223.07556,78,41,0
222.61295,223.07556,74,41,0
223.07556,223.13368,74,39,0
223.07556,223.13368,78,39,0
223.30804,223.36617,74,38,0
223.30804,223.36617,78,38,0
223.30804,223.36617,80,38,0
223.54053,223.77477,81,41,0
223.77477,224.00139,83,37,0
223.54053,224.00139,78,41,0
223.54053,224.00139,74,41,0
224.00139,224.05847,78,39,0
224.00139,224.05847,74,39,0
224.22968,224.28674,78,39,0
224.22968,224.28674,74,39,0
224.22968,224.28674,80,39,0
224.45795,224.6879,81,41,0
224.45795,224.6879,76,41,0
224.45795,224.6879,74,41,0
224.91786,225.15121,81,38,0
224.91786,225.15121,73,38,0
225.26788,225.38457,81,38,0
225.26788,225.38457,73,38,0
225.38457,225.61792,81,38,0
225.38457,225.61792,73,38,0
226.08124,226.15788,85,39,0
226.15788,226.23453,86,39,0
226.23453,226.31119,85,39,0
226.54114,226.7711,86,42,0
226.31119,226.7711,83,42,0
226.7711,226.82965,83,44,0
226.7711,226.82965,91,44,0
227.00533,227.0641,83,39,0
227.00533,227.0641,95,39,0
227.24042,227.47377,93,42,0
227.47377,227.70886,91,38,0
227.24042,227.70886,83,37,0
227.70886,227.76656,79,38,0
227.70886,227.76656,83,38,0
227.93965,227.99734,79,38,0
227.93965,227.99734,86,38,0
227.93965,227.99734,83,38,0
228.17044,228.40466,79,42,0
228.17044,228.40466,90,42,0
228.17044,228.40466,86,42,0
228.17044,228.40466,83,42,0
228.63802,228.87225,79,37,0
228.63802,228.87225,90,37,0
228.63802,228.87225,86,37,0
228.63802,228.87225,83,37,0
228.98936,229.10648,79,37,0
228.98936,229.10648,90,37,0
228.98936,229.10648,86,37,0
228.98936,229.10648,83,37,0
229.10648,229.58397,79,37,0
229.10648,229.58397,90,37,0
229.10648,229.58397,86,37,0
229.10648,229.58397,83,37,0
229.58397,229.64275,79,38,0
229.58397,229.64275,83,38,0
229.81906,229.87784,79,38,0
229.81906,229.87784,83,38,0
229.81906,229.87784,85,38,0
230.05415,230.29013,86,42,0
230.29013,230.5176,88,38,0
230.05415,230.5176,83,42,0
230.05415,230.5176,79,42,0
230.5176,230.57637,79,39,0
230.5176,230.57637,83,39,0
230.75269,230.81146,79,39,0
230.75269,230.81146,83,39,0
230.75269,230.81146,85,39,0
230.98778,231.21121,86,42,0
231.21121,231.442,88,39,0
230.98778,231.442,79,42,0
230.98778,231.442,83,42,0
231.442,231.49887,79,39,0
231.442,231.49887,83,39,0
231.66946,231.72633,79,39,0
231.66946,231.72633,83,39,0
231.66946,231.72633,85,39,0
231.89693,232.12772,79,44,0
231.89693,232.12772,81,44,0
231.89693,232.12772,86,44,0
232.3585,232.58928,78,39,0
232.3585,232.58928,86,39,0
232.70468,232.82007,78,39,0
232.70468,232.82007,86,39,0
232.82007,233.05086,78,39,0
232.82007,233.05086,86,39,0
235.65007,235.76462,61,75,0
235.76462,235.87918,59,68,0
235.87918,235.99373,61,68,0
235.99373,236.05101,57,68,0
235.65007,236.10829,64,75,0
236.10829,236.22368,62,68,0
236.33908,236.46214,59,68,0
236.10829,236.5852,66,71,0
236.5852,236.69975,61,75,0
236.69975,236.81432,59,69,0
236.81432,236.92886,61,69,0
236.92886,236.98615,57,69,0
236.5852,237.04343,64,75,0
237.04343,237.15881,62,68,0
237.27422,237.3896,59,68,0
237.04343,237.505,66,71,0
237.73412,237.80885,78,56,0
237.80885,237.88359,80,56,0
237.88359,237.95833,78,56,0
237.73412,237.95833,68,56,0
237.73412,237.95833,74,56,0
237.95833,238.07414,69,60,0
237.95833,238.07414,73,60,0
237.95833,238.07414,76,60,0
238.18997,238.30579,69,59,0
238.18997,238.30579,76,59,0
238.18997,238.30579,73,59,0
238.42162,239.34818,69,59,0
238.42162,239.34818,73,59,0
238.42162,239.34818,76,59,0
239.34818,239.81146,64,52,0
239.34818,239.81146,60,52,0
239.81146,240.0431,76,48,0
239.81146,240.0431,72,48,0
239.81146,240.0431,68,48,0
240.0431,240.27475,76,47,0
240.0431,240.27475,72,47,0
240.0431,240.27475,68,47,0
240.27475,240.73068,76,46,0
240.27475,240.73068,72,46,0
240.27475,240.73068,68,46,0
240.73068,240.84587,76,34,0
240.73068,240.84587,72,34,0
240.96106,241.07875,77,34,0
240.96106,241.07875,72,34,0
240.96106,241.07875,76,34,0
241.19644,241.4252,79,37,0
241.4252,241.6606,81,34,0
241.19644,241.6606,76,37,0
241.19644,241.6606,72,37,0
241.6606,241.77498,76,34,0
241.6606,241.77498,72,34,0
241.88936,242.00705,77,34,0
241.88936,242.00705,76,34,0
241.88936,242.00705,72,34,0
242.12474,242.34572,79,38,0
242.34572,242.5761,81,34,0
242.12474,242.5761,77,38,0
242.12474,242.5761,71,38,0
242.5761,242.68773,76,34,0
242.5761,242.68773,71,34,0
242.5761,242.68773,67,34,0
242.79935,242.91333,74,34,0
242.79935,242.91333,71,34,0
242.79935,242.91333,67,34,0
242.91333,242.97345,74,35,0
242.97345,243.03357,76,35,0
243.03357,243.26074,74,39,0
243.26074,243.48792,72,34,0
243.03357,243.48792,64,39,0
243.48792,243.60391,72,34,0
243.48792,243.60391,64,34,0
243.71992,243.83891,72,34,0
243.71992,243.83891,64,34,0
243.95792,244.2911,72,39,0
243.95792,244.2911,64,39,0
244.89026,245.00632,64,75,0
245.00632,245.12088,62,68,0
245.12088,245.23543,64,68,0
245.23543,245.29271,60,68,0
244.89026,245.34999,67,75,0
245.34999,245.46538,65,68,0
245.58078,245.70335,62,68,0
245.34999,245.82593,69,71,0
245.82593,245.94049,64,75,0
245.94049,246.05504,62,69,0
246.05504,246.1696,64,69,0
246.1696,246.22688,60,69,0
245.82593,246.28416,67,75,0
246.28416,246.39955,65,68,0
246.51494,246.63034,62,68,0
246.28416,246.74573,69,71,0
246.97484,247.04958,81,56,0
247.04958,247.12431,83,56,0
247.12431,247.19907,81,56,0
246.97484,247.19907,71,56,0
246.97484,247.19907,77,56,0
247.19907,247.31488,72,60,0
247.19907,247.31488,76,60,0
247.19907,247.31488,79,60,0
247.4307,247.54652,72,59,0
247.4307,247.54652,79,59,0
247.4307,247.54652,76,59,0
247.66234,248.58891,72,59,0
247.66234,248.58891,76,59,0
247.66234,248.58891,79,59,0
248.58891,249.0522,67,52,0
248.58891,249.0522,63,52,0
249.0522,249.28384,79,48,0
249.0522,249.28384,75,48,0
249.0522,249.28384,71,48,0
249.28384,249.51549,79,47,0
249.28384,249.51549,75,47,0
249.28384,249.51549,71,47,0
249.51549,249.9714,79,46,0
249.51549,249.9714,75,46,0
249.51549,249.9714,71,46,0
249.9714,250.029,79,34,0
249.9714,250.029,75,34,0
250.2018,250.26064,80,34,0
250.2018,250.26064,75,34,0
250.2018,250.26064,79,34,0
250.43718,250.66594,82,37,0
250.66594,250.90132,84,34,0
250.43718,250.90132,79,37,0
250.43718,250.90132,75,37,0
250.90132,250.95851,79,34,0
250.90132,250.95851,75,34,0
251.1301,251.18893,80,34,0
251.1301,251.18893,79,34,0
251.1301,251.18893,75,34,0
251.36548,251.58646,82,38,0
251.58646,251.81683,84,34,0
251.36548,251.81683,80,38,0
251.36548,251.81683,74,38,0
251.81683,251.92845,79,34,0
251.81683,251.92845,74,34,0
251.81683,251.92845,70,34,0
252.04008,252.15407,77,34,0
252.04008,252.15407,74,34,0
252.04008,252.15407,70,34,0
252.15407,252.21559,77,35,0
252.21559,252.27713,79,35,0
252.27713,252.50429,77,39,0
252.50429,252.73146,75,34,0
252.27713,252.73146,67,39,0
252.73146,252.84747,75,34,0
252.73146,252.84747,67,34,0
252.96349,253.08247,75,34,0
252.96349,253.08247,67,34,0
253.20146,253.67743,75,39,0
253.20146,253.67743,67,39,0
253.79198,253.90654,61,28,0
253.79198,253.90654,55,25,0
254.0211,254.13565,55,25,0
254.0211,254.13565,61,25,0
254.0211,254.13565,63,29,0
254.25233,254.369,65,34,0
254.25233,254.369,58,25,0
254.25233,254.369,55,25,0
254.48878,254.60857,67,33,0
254.48878,254.60857,61,26,0
254.48878,254.60857,55,26,0
254.72188,254.8352,61,31,0
254.72188,254.8352,55,27,0
254.94852,255.06184,61,27,0
254.94852,255.06184,55,27,0
254.94852,255.06184,63,31,0
255.17766,255.29349,65,36,0
255.17766,255.29349,61,28,0
255.17766,255.29349,55,28,0
255.41327,255.53304,67,33,0
255.41327,255.53304,61,28,0
255.41327,255.53304,55,28,0
255.64436,255.75568,61,34,0
255.64436,255.75568,55,29,0
255.86699,255.97832,61,30,0
255.86699,255.97832,55,30,0
255.86699,255.97832,63,34,0
256.09244,256.20657,65,39,0
256.09244,256.20657,61,29,0
256.09244,256.20657,55,29,0
256.32547,256.44434,68,42,0
256.55646,256.66855,67,38,0
256.55646,256.66855,61,31,0
256.55646,256.66855,55,31,0
256.78067,256.89276,61,31,0
256.78067,256.89276,55,31,0
256.78067,256.89276,63,38,0
257.0086,257.12442,65,39,0
257.0086,257.12442,61,31,0
257.0086,257.12442,55,31,0
257.24023,257.35605,61,38,0
257.24023,257.35605,55,32,0
257.4706,257.58517,63,36,0
257.4706,257.58517,56,36,0
257.69974,257.81427,56,35,0
257.69974,257.81427,65,35,0
257.69974,257.81427,63,35,0
257.93097,258.04764,67,40,0
257.93097,258.04764,63,30,0
257.93097,258.04764,56,30,0
258.16742,258.2872,68,39,0
258.16742,258.2872,63,31,0
258.16742,258.2872,56,31,0
258.4005,258.51382,63,36,0
258.4005,258.51382,56,31,0
258.62717,258.74048,65,31,0
258.62717,258.74048,56,31,0
258.62717,258.74048,63,36,0
258.8563,258.9721,67,41,0
258.8563,258.9721,63,32,0
258.8563,258.9721,56,32,0
259.0919,259.21167,68,39,0
259.0919,259.21167,63,32,0
259.0919,259.21167,56,32,0
259.323,259.4343,63,39,0
259.323,259.4343,56,34,0
259.54562,259.65695,65,35,0
259.54562,259.65695,56,35,0
259.54562,259.65695,63,39,0
259.7711,259.88522,67,44,0
259.7711,259.88522,63,34,0
259.7711,259.88522,56,34,0
260.0041,260.123,70,48,0
260.23508,260.3472,68,44,0
260.23508,260.3472,63,36,0
260.23508,260.3472,56,36,0
260.4593,260.5714,65,36,0
260.4593,260.5714,56,36,0
260.4593,260.5714,63,44,0
260.68808,260.80475,67,45,0
260.68808,260.80475,63,36,0
260.68808,260.80475,56,36,0
260.92145,261.03812,63,43,0
260.92145,261.03812,56,36,0
261.1548,261.27145,66,48,0
261.1548,261.27145,60,48,0
261.38815,261.50482,60,44,0
261.38815,261.50482,68,44,0
261.38815,261.50482,66,44,0
261.6215,261.73816,70,47,0
261.6215,261.73816,66,47,0
261.6215,261.73816,60,47,0
261.85794,261.97772,72,46,0
261.85794,261.97772,66,37,0
261.85794,261.97772,60,37,0
262.09146,262.2052,66,48,0
262.09146,262.2052,60,48,0
262.31894,262.43265,68,37,0
262.31894,262.43265,60,37,0
262.31894,262.43265,66,44,0
262.5485,262.6643,70,47,0
262.5485,262.6643,66,47,0
262.5485,262.6643,60,47,0
262.7841,262.90387,72,45,0
262.7841,262.90387,66,37,0
262.7841,262.90387,60,37,0
263.018,263.13214,66,47,0
263.018,263.13214,60,47,0
263.24628,263.3604,68,46,0
263.24628,263.3604,60,46,0
263.24628,263.3604,66,46,0
263.47708,263.59375,70,56,0
263.47708,263.59375,66,56,0
263.47708,263.59375,60,56,0
263.71265,263.8315,73,50,0
263.94608,264.06064,72,55,0
263.94608,264.06064,66,55,0
263.94608,264.06064,60,55,0
264.1752,264.28973,66,40,0
264.1752,264.28973,60,40,0
264.1752,264.28973,68,48,0
264.40558,264.5214,70,50,0
264.40558,264.5214,66,40,0
264.40558,264.5214,60,40,0
264.6372,264.75302,66,47,0
264.6372,264.75302,60,40,0
264.86758,264.98215,68,59,0
264.86758,264.98215,61,59,0
265.0967,265.21124,61,52,0
265.0967,265.21124,70,52,0
265.0967,265.21124,68,52,0
265.32794,265.4446,72,57,0
265.32794,265.4446,68,57,0
265.32794,265.4446,61,57,0
265.5644,265.68417,73,55,0
265.5644,265.68417,68,55,0
265.5644,265.68417,61,55,0
265.7971,265.90997,68,59,0
265.7971,265.90997,61,59,0
266.0229,266.1358,70,53,0
266.0229,266.1358,61,53,0
266.0229,266.1358,68,53,0
266.25162,266.36746,72,59,0
266.25162,266.36746,68,59,0
266.25162,266.36746,61,59,0
266.4872,266.607,73,55,0
266.4872,266.607,68,55,0
266.4872,266.607,61,55,0
266.71872,266.83044,68,59,0
266.71872,266.83044,61,59,0
266.94214,267.05386,70,57,0
266.94214,267.05386,61,57,0
266.94214,267.05386,68,57,0
267.168,267.28214,72,64,0
267.168,267.28214,68,64,0
267.168,267.28214,61,64,0
267.39465,267.50717,75,64,0
267.61926,267.73138,73,62,0
267.61926,267.73138,68,62,0
267.61926,267.73138,61,62,0
267.84348,267.9556,68,48,0
267.84348,267.9556,61,48,0
267.84348,267.9556,70,59,0
268.0714,268.18723,72,61,0
268.0714,268.18723,68,48,0
268.0714,268.18723,61,48,0
268.30307,268.41888,68,57,0
268.30307,268.41888,61,48,0
268.5306,268.6423,68,71,0
268.5306,268.6423,62,71,0
268.75403,268.86575,70,63,0
268.75403,268.86575,62,63,0
268.75403,268.86575,68,63,0
268.9799,269.09402,72,70,0
268.9799,269.09402,68,70,0
268.9799,269.09402,62,70,0
269.20984,269.32565,75,75,0
269.43658,269.54752,74,69,0
269.43658,269.54752,68,69,0
269.43658,269.54752,62,69,0
269.65842,269.76935,68,52,0
269.65842,269.76935,62,52,0
269.65842,269.76935,70,63,0
269.8839,269.99847,72,66,0
269.8839,269.99847,68,52,0
269.8839,269.99847,62,52,0
270.113,270.22757,68,62,0
270.3389,270.4502,68,70,0
270.3389,270.4502,72,70,0
270.3389,270.4502,74,70,0
270.56152,270.67285,72,66,0
270.56152,270.67285,75,66,0
270.56152,270.67285,68,66,0
270.7874,270.90195,72,72,0
270.7874,270.90195,68,72,0
270.7874,270.90195,77,72,0
271.0178,271.1336,80,81,0
271.2449,271.35623,72,80,0
271.2449,271.35623,68,80,0
271.2449,271.35623,79,80,0
271.46756,271.57886,68,72,0
271.46756,271.57886,75,72,0
271.46756,271.57886,72,72,0
271.69427,271.80966,72,80,0
271.69427,271.80966,68,80,0
271.69427,271.80966,77,80,0
271.92218,272.03467,74,66,0
272.146,272.25732,77,75,0
272.36862,272.47995,79,75,0
272.58896,272.69797,80,81,0
272.80438,272.9108,84,75,0
273.01688,273.12296,80,75,0
273.22867,273.33432,77,75,0
273.44257,273.55084,80,81,0
273.6555,273.76016,77,75,0
273.8648,273.96948,74,75,0
274.07413,274.1788,77,75,0
274.28558,274.39236,74,81,0
274.49634,274.6003,70,75,0
274.70428,274.80826,74,75,0
274.91223,275.0162,70,75,0
275.12302,275.2298,67,81,0
275.33377,275.43774,70,75,0
275.54172,275.6457,67,75,0
275.74966,275.85364,63,75,0
275.96262,276.07162,67,85,0
276.17664,276.28165,63,80,0
276.38666,276.49164,60,80,0
276.59665,276.70166,63,80,0
276.8122,276.92273,60,93,0
277.03088,277.1418,56,86,0
277.25574,277.37286,60,89,0
277.49335,277.61594,56,103,0
278.06436,278.5128,63,83,0
278.06436,278.5128,56,83,0
278.06436,278.5128,60,83,0
278.06436,278.5128,68,93,0
278.5128,278.9612,72,83,0
278.5128,278.9612,75,83,0
278.5128,278.9612,68,83,0
278.5128,278.9612,80,93,0
278.9612,279.4228,80,81,0
278.9612,279.4228,87,81,0
277.61594,279.4228,55,108,0
278.9612,279.4228,92,91,0
278.9612,279.4228,84,81,0
279.87122,280.31964,63,83,0
279.87122,280.31964,56,83,0
279.87122,280.31964,60,83,0
279.87122,280.31964,68,93,0
280.31964,280.76807,72,83,0
280.31964,280.76807,75,83,0
280.31964,280.76807,68,83,0
280.31964,280.76807,80,93,0
280.76807,281.21652,80,81,0
280.76807,281.21652,87,81,0
279.4228,281.21652,54,108,0
280.76807,281.21652,92,91,0
280.76807,281.21652,84,81,0
281.67978,282.12985,63,83,0
281.67978,282.12985,56,83,0
281.67978,282.12985,59,83,0
281.67978,282.12985,68,93,0
282.12985,282.5799,71,83,0
282.12985,282.5799,75,83,0
282.12985,282.5799,68,83,0
282.12985,282.5799,80,93,0
282.5799,283.02994,80,81,0
282.5799,283.02994,87,81,0
281.21652,283.02994,53,111,0
282.5799,283.02994,92,91,0
282.5799,283.02994,83,81,0
283.50543,284.01358,67,93,0
283.50543,284.01358,57,83,0
283.50543,284.01358,69,93,0
283.50543,284.01358,55,83,0
283.50543,284.01358,61,83,0
284.01358,284.53427,73,83,0
284.01358,284.53427,67,83,0
284.01358,284.53427,81,93,0
284.01358,284.53427,79,93,0
284.01358,284.53427,69,83,0
284.53427,284.8767,79,78,0
284.53427,284.8767,81,78,0
284.53427,284.8767,93,86,0
284.53427,284.8767,91,86,0
284.53427,284.8767,85,78,0
284.8767,285.00024,81,88,0
285.00024,285.12378,83,88,0
285.12378,285.24734,81,88,0
283.02994,285.24734,52,111,0
285.4869,285.72113,81,97,0
285.24734,285.72113,78,97,0
285.72113,285.83737,78,90,0
285.72113,285.83737,86,101,0
285.72113,285.83737,81,90,0
285.9536,286.06818,78,83,0
285.9536,286.06818,90,93,0
285.9536,286.06818,81,83,0
286.18274,286.41522,88,102,0
286.41522,286.64432,86,93,0
286.18274,286.64432,78,75,0
286.18274,286.64432,81,75,0
286.64432,286.75604,78,93,0
286.64432,286.75604,74,90,0
286.86777,286.98148,78,81,0
286.86777,286.98148,81,90,0
286.86777,286.98148,74,81,0
287.0952,287.31628,78,85,0
287.0952,287.31628,74,85,0
287.0952,287.31628,83,95,0
287.0952,287.31628,81,95,0
287.53735,287.75845,78,77,0
287.53735,287.75845,74,77,0
287.53735,287.75845,83,86,0
287.53735,287.75845,81,86,0
287.869,287.97952,78,77,0
287.869,287.97952,74,77,0
287.869,287.97952,83,86,0
287.869,287.97952,81,86,0
287.97952,288.42957,78,77,0
287.97952,288.42957,74,77,0
287.97952,288.42957,83,86,0
287.97952,288.42957,81,86,0
288.42957,288.53934,78,90,0
288.42957,288.53934,74,90,0
288.6491,288.76004,78,90,0
288.6491,288.76004,80,90,0
288.6491,288.76004,74,90,0
288.87094,289.09598,81,97,0
289.09598,289.31552,83,89,0
288.87094,289.31552,78,87,0
288.87094,289.31552,74,87,0
289.31552,289.4253,74,93,0
289.31552,289.4253,78,93,0
289.53506,289.64716,74,90,0
289.53506,289.64716,78,90,0
289.53506,289.64716,80,90,0
289.75928,289.98923,81,97,0
289.98923,290.21185,83,89,0
289.75928,290.21185,78,87,0
289.75928,290.21185,74,87,0
290.21185,290.326,78,93,0
290.21185,290.326,74,93,0
290.44012,290.55768,78,93,0
290.44012,290.55768,74,93,0
290.44012,290.55768,80,93,0
290.67523,290.90518,81,97,0
290.67523,290.90518,69,87,0
290.67523,290.90518,74,87,0
290.67523,290.90518,76,87,0
291.13513,291.3685,81,84,0
291.13513,291.3685,76,75,0
291.13513,291.3685,69,75,0
291.13513,291.3685,73,75,0
291.48517,291.60184,81,84,0
291.48517,291.60184,69,75,0
291.48517,291.60184,76,75,0
291.48517,291.60184,73,75,0
291.60184,292.06854,81,84,0
291.60184,292.06854,69,75,0
291.60184,292.06854,76,75,0
291.60184,292.06854,73,75,0
292.2985,292.37515,85,89,0
292.37515,292.4518,86,89,0
292.4518,292.52847,85,89,0
292.7551,292.98172,86,96,0
292.52847,292.98172,83,96,0
292.98172,293.09842,83,89,0
292.98172,293.09842,91,99,0
292.98172,293.09842,86,89,0
293.2151,293.32883,83,81,0
293.2151,293.32883,95,91,0
293.2151,293.32883,86,81,0
293.44257,293.6652,93,97,0
293.6652,293.89514,91,86,0
293.44257,293.89514,83,76,0
293.89514,294.00568,79,86,0
293.89514,294.00568,83,86,0
294.1162,294.23077,79,76,0
294.1162,294.23077,86,86,0
294.1162,294.23077,83,86,0
294.34534,294.5761,79,80,0
294.34534,294.5761,90,90,0
294.34534,294.5761,86,80,0
294.34534,294.5761,83,80,0
294.80692,295.02643,79,72,0
294.80692,295.02643,90,80,0
294.80692,295.02643,86,72,0
294.80692,295.02643,83,72,0
295.1362,295.24597,79,72,0
295.1362,295.24597,90,80,0
295.1362,295.24597,86,72,0
295.1362,295.24597,83,72,0
295.24597,295.6934,79,72,0
295.24597,295.6934,90,80,0
295.24597,295.6934,86,72,0
295.24597,295.6934,83,72,0
295.6934,295.80353,79,86,0
295.6934,295.80353,83,86,0
295.9137,296.02383,79,86,0
295.9137,296.02383,83,86,0
295.9137,296.02383,85,86,0
296.13397,296.36063,86,96,0
296.36063,296.57788,88,86,0
296.13397,296.57788,83,86,0
296.13397,296.57788,79,86,0
296.57788,296.6896,79,91,0
296.57788,296.6896,83,91,0
296.80133,296.91302,79,89,0
296.80133,296.91302,83,89,0
296.80133,296.91302,85,89,0
297.02475,297.24506,86,96,0
297.24506,297.47583,88,89,0
297.02475,297.47583,79,86,0
297.02475,297.47583,83,86,0
297.47583,297.59122,79,91,0
297.47583,297.59122,83,91,0
297.7066,297.82202,79,91,0
297.7066,297.82202,83,91,0
297.7066,297.82202,85,91,0
297.9374,298.1725,79,84,0
297.9374,298.1725,74,84,0
297.9374,298.1725,86,94,0
297.9374,298.1725,81,84,0
298.4076,298.64267,78,73,0
298.4076,298.64267,81,73,0
298.4076,298.64267,74,73,0
298.4076,298.64267,86,81,0
298.76022,298.87778,78,73,0
298.76022,298.87778,81,73,0
298.76022,298.87778,74,73,0
298.76022,298.87778,86,81,0
298.87778,299.1268,78,73,0
298.87778,299.1268,81,73,0
298.87778,299.1268,74,73,0
298.87778,299.1268,86,81,0
299.62485,299.7038,86,71,0
299.7038,299.78275,88,71,0
299.78275,299.84818,86,71,0
299.94632,300.05884,78,72,0
299.94632,300.05884,84,72,0
300.17133,300.28384,78,72,0
300.17133,300.28384,84,72,0
300.17133,300.28384,88,72,0
300.39636,300.50888,78,72,0
300.39636,300.50888,84,72,0
300.39636,300.50888,86,72,0
300.62137,300.73422,78,72,0
300.62137,300.73422,84,72,0
300.62137,300.73422,90,72,0
300.84674,300.95926,78,72,0
300.84674,300.95926,84,72,0
301.07178,301.1843,78,72,0
301.07178,301.1843,84,72,0
301.07178,301.1843,88,72,0
301.29678,301.4093,78,72,0
301.29678,301.4093,84,72,0
301.29678,301.4093,86,72,0
301.5319,301.65445,78,72,0
301.5319,301.65445,84,72,0
301.5319,301.65445,90,72,0
301.65445,301.88693,86,84,0
301.65445,301.88693,81,84,0
301.65445,301.88693,83,84,0
302.11945,302.35193,86,72,0
302.11945,302.35193,79,72,0
302.11945,302.35193,83,72,0
302.46817,302.5844,79,72,0
302.46817,302.5844,86,72,0
302.46817,302.5844,83,72,0
302.5844,303.03445,79,72,0
302.5844,303.03445,86,72,0
302.5844,303.03445,83,72,0
303.2777,303.35608,81,63,0
303.35706,303.43518,83,63,0
303.43347,303.49255,81,63,0
303.5815,303.69403,73,64,0
303.5815,303.69403,79,64,0
303.80655,303.91904,73,64,0
303.80655,303.91904,79,64,0
303.80655,303.91904,83,64,0
304.03156,304.14407,73,64,0
304.03156,304.14407,81,64,0
304.03156,304.14407,79,64,0
304.2566,304.36908,73,64,0
304.2566,304.36908,79,64,0
304.2566,304.36908,85,64,0
304.4816,304.59412,79,63,0
304.4816,304.59412,73,63,0
304.70663,304.81915,73,63,0
304.70663,304.81915,79,63,0
304.70663,304.81915,83,63,0
304.93164,305.04416,81,63,0
304.93164,305.04416,79,63,0
304.93164,305.04416,73,63,0
305.16614,305.28873,73,63,0
305.16614,305.28873,85,63,0
305.16614,305.28873,79,63,0
305.28873,305.5212,76,70,0
305.28873,305.5212,78,70,0
305.28873,305.5212,81,70,0
305.7537,305.98618,74,64,0
305.7537,305.98618,78,64,0
305.7537,305.98618,81,64,0
306.10245,306.2187,74,64,0
306.10245,306.2187,78,64,0
306.10245,306.2187,81,64,0
306.2187,306.66895,74,64,0
306.2187,306.66895,78,64,0
306.2187,306.66895,81,64,0
306.9122,306.99057,74,50,0
306.99057,307.06894,76,50,0
307.06894,307.13107,74,50,0
307.22427,307.3376,66,51,0
307.22427,307.3376,72,51,0
307.4509,307.56424,66,51,0
307.4509,307.56424,72,51,0
307.4509,307.56424,76,51,0
307.67755,307.79086,66,51,0
307.67755,307.79086,74,51,0
307.67755,307.79086,72,51,0
307.90417,308.01752,66,51,0
307.90417,308.01752,72,51,0
307.90417,308.01752,78,51,0
308.1304,308.24332,72,50,0
308.1304,308.24332,66,50,0
308.35623,308.46915,66,50,0
308.35623,308.46915,72,50,0
308.35623,308.46915,76,50,0
308.58206,308.69495,74,50,0
308.58206,308.69495,72,50,0
308.58206,308.69495,66,50,0
308.819,308.94302,66,50,0
308.819,308.94302,78,50,0
308.819,308.94302,72,50,0
308.94302,309.1755,69,60,0
308.94302,309.1755,71,60,0
308.94302,309.1755,74,60,0
309.408,309.64047,67,51,0
309.408,309.64047,71,51,0
309.408,309.64047,74,51,0
309.7567,309.87296,67,51,0
309.7567,309.87296,71,51,0
309.7567,309.87296,74,51,0
309.87296,310.3232,67,51,0
309.87296,310.3232,71,51,0
309.87296,310.3232,74,51,0
310.56326,310.64136,69,47,0
310.64233,310.72018,71,47,0
310.71844,310.7806,69,47,0
310.8743,310.98804,61,47,0
310.8743,310.98804,67,47,0
311.10175,311.21548,61,47,0
311.10175,311.21548,67,47,0
311.10175,311.21548,71,47,0
311.32922,311.44296,61,47,0
311.32922,311.44296,69,47,0
311.32922,311.44296,67,47,0
311.55667,311.6704,61,47,0
311.55667,311.6704,67,47,0
311.55667,311.6704,73,47,0
311.78415,311.8979,67,47,0
311.78415,311.8979,61,47,0
312.0116,312.12534,61,47,0
312.0116,312.12534,67,47,0
312.0116,312.12534,71,47,0
312.23907,312.3528,69,47,0
312.23907,312.3528,67,47,0
312.23907,312.3528,61,47,0
312.47684,312.60086,61,47,0
312.47684,312.60086,73,47,0
312.47684,312.60086,67,47,0
312.60086,312.83334,64,55,0
312.60086,312.83334,66,55,0
312.60086,312.83334,69,55,0
313.06583,313.2983,62,47,0
313.06583,313.2983,66,47,0
313.06583,313.2983,69,47,0
313.41455,313.5308,62,47,0
313.41455,313.5308,66,47,0
313.41455,313.5308,69,47,0
313.5308,313.95886,62,47,0
313.5308,313.95886,66,47,0
313.5308,313.95886,69,47,0
314.3916,314.61432,57,45,0
314.3916,314.61432,59,45,0
314.3916,314.61432,62,45,0
314.83707,315.05978,55,42,0
314.83707,315.05978,59,42,0
314.83707,315.05978,62,42,0
315.17117,315.28253,55,42,0
315.17117,315.28253,59,42,0
315.17117,315.28253,62,42,0
315.28253,315.7113,55,42,0
315.28253,315.7113,59,42,0
315.28253,315.7113,62,42,0
316.5849,316.69763,54,35,0
316.5849,316.69763,57,35,0
316.5849,316.69763,52,35,0
317.47766,317.59,54,35,0
317.47766,317.59,57,35,0
317.47766,317.59,50,35,0
318.36737,318.48007,50,35,0
318.36737,318.48007,47,35,0
318.36737,318.48007,45,35,0
319.2646,319.37967,50,35,0
319.2646,319.37967,47,35,0
319.2646,319.37967,43,35,0
320.18356,320.409,43,35,0
320.18356,320.409,50,35,0
321.08536,321.3108,55,35,0
321.08536,321.3108,62,35,0
321.98904,322.21753,67,37,0
321.98904,322.21753,74,37,0
322.9093,323.14026,79,39,0
322.9093,323.14026,86,39,0
323.8317,324.06046,79,39,0
323.8317,324.06046,86,39,0
324.74026,324.96494,74,37,0
324.74026,324.96494,67,37,0
325.63892,325.8636,62,35,0
325.63892,325.8636,55,35,0
326.5376,326.76227,50,34,0
326.5376,326.76227,43,34,0
327.9043,328.13364,38,30,0
327.9043,328.13364,31,30,0
328.8831,329.27316,74,93,0
328.8831,329.27316,86,126,0
328.8831,329.27316,81,94,0
328.8831,329.27316,78,93,0
0.0,0.262513,45,36,0
0.0,0.262513,38,36,0
1.541286,1.7790415,45,31,0
1.541286,1.7790415,38,31,0
1.7790415,2.016797,38,31,0
1.7790415,2.016797,45,31,0
2.016797,2.2545526,45,36,0
2.016797,2.2545526,38,36,0
3.446937,3.686496,45,31,0
3.446937,3.686496,38,31,0
3.686496,3.9242516,38,31,0
3.686496,3.9242516,45,31,0
3.9242516,4.162007,38,35,0
3.9242516,4.162007,45,35,0
4.3997626,4.4583197,57,31,0
4.3997626,4.4583197,50,31,0
4.633991,4.693657,57,31,0
4.633991,4.693657,50,31,0
4.8726544,5.11041,57,35,0
4.8726544,5.11041,50,35,0
5.3481655,5.407604,45,31,0
5.3481655,5.407604,38,31,0
5.585921,5.64536,45,31,0
5.585921,5.64536,38,31,0
5.8236766,6.2991877,38,35,0
5.8236766,6.2991877,45,35,0
6.2991877,6.536943,57,33,0
6.2991877,6.536943,50,33,0
6.655821,6.7746987,57,33,0
6.655821,6.7746987,50,33,0
6.7746987,7.250337,50,33,0
6.7746987,7.250337,57,33,0
7.715309,8.177925,42,34,0
7.715309,8.177925,35,34,0
8.177925,8.236047,47,31,0
8.177925,8.236047,54,31,0
8.410412,8.468533,54,31,0
8.410412,8.468533,47,31,0
8.642898,9.103764,47,34,0
8.642898,9.103764,40,34,0
9.103764,9.217901,59,31,0
9.103764,9.217901,52,31,0
9.33204,9.389109,59,31,0
9.33204,9.389109,52,31,0
9.560315,10.0202265,40,35,0
9.560315,10.0202265,33,35,0
10.0202265,10.25358,64,33,0
10.0202265,10.25358,57,33,0
10.370257,10.486935,57,33,0
10.370257,10.486935,64,33,0
10.486935,10.720288,57,33,0
10.486935,10.720288,64,33,0
11.413553,11.873465,50,39,0
11.413553,11.873465,43,39,0
11.873465,11.932238,55,38,0
11.873465,11.932238,62,38,0
12.108556,12.167329,62,38,0
12.108556,12.167329,55,38,0
12.343648,12.81383,62,41,0
12.343648,12.81383,55,41,0
13.275405,13.742987,47,36,0
13.275405,13.742987,40,36,0
13.742987,13.977216,52,34,0
13.742987,13.977216,59,34,0
14.09433,14.211444,59,34,0
14.09433,14.211444,52,34,0
14.211444,14.689873,59,36,0
14.211444,14.689873,52,36,0
15.160055,15.623497,52,39,0
15.160055,15.623497,45,39,0
15.623497,15.68227,57,36,0
15.623497,15.68227,64,36,0
15.858588,15.917361,64,36,0
15.858588,15.917361,57,36,0
16.09368,16.547897,64,39,0
16.09368,16.547897,57,39,0
17.002823,17.464397,38,39,0
17.002823,17.464397,45,39,0
17.464397,17.695183,62,36,0
17.464397,17.695183,69,36,0
17.810577,17.92597,62,36,0
17.810577,17.92597,69,36,0
17.92597,18.387545,69,36,0
17.92597,18.387545,62,36,0
18.387545,18.645765,57,27,0
18.387545,18.645765,50,27,0
18.645765,18.903984,57,27,0
18.645765,18.903984,50,27,0
18.903984,19.162205,57,31,0
18.903984,19.162205,50,31,0
20.412653,20.650408,57,27,0
20.412653,20.650408,50,27,0
20.650408,20.888163,57,27,0
20.650408,20.888163,50,27,0
20.888163,21.12592,50,30,0
20.888163,21.12592,57,30,0
22.318304,22.557863,57,27,0
22.318304,22.557863,50,27,0
22.557863,22.795618,57,27,0
22.557863,22.795618,50,27,0
22.795618,23.028105,57,31,0
22.795618,23.028105,50,31,0
23.26059,23.319363,69,27,0
23.26059,23.319363,62,27,0
23.495682,23.554676,62,27,0
23.495682,23.554676,69,27,0
23.73166,23.965015,69,31,0
23.73166,23.965015,62,31,0
24.20277,24.262209,50,27,0
24.20277,24.262209,57,27,0
24.440525,24.499964,50,27,0
24.440525,24.499964,57,27,0
24.678282,25.153791,57,31,0
24.678282,25.153791,50,31,0
25.153791,25.391548,69,30,0
25.153791,25.391548,62,30,0
25.510426,25.629303,69,30,0
25.510426,25.629303,62,30,0
25.629303,26.104942,62,30,0
25.629303,26.104942,69,30,0
26.569914,27.03253,54,30,0
26.569914,27.03253,47,30,0
27.03253,27.09065,59,27,0
27.03253,27.09065,66,27,0
27.265017,27.323137,66,27,0
27.265017,27.323137,59,27,0
27.497501,27.958368,59,30,0
27.497501,27.958368,52,30,0
27.958368,28.015436,71,27,0
27.958368,28.015436,64,27,0
28.186644,28.243713,64,27,0
28.186644,28.243713,71,27,0
28.41492,28.87483,64,30,0
28.41492,28.87483,57,30,0
28.87483,29.108185,76,28,0
28.87483,29.108185,69,28,0
29.224861,29.34154,69,28,0
29.224861,29.34154,76,28,0
29.34154,29.574894,69,28,0
29.34154,29.574894,76,28,0
30.268158,30.72807,62,35,0
30.268158,30.72807,55,35,0
30.72807,30.786627,74,33,0
30.72807,30.786627,67,33,0
30.962297,31.02107,67,33,0
30.962297,31.02107,74,33,0
31.19739,31.665834,74,36,0
31.19739,31.665834,67,36,0
32.127407,32.59499,59,33,0
32.127407,32.59499,52,33,0
32.59499,32.82922,64,29,0
32.59499,32.82922,71,29,0
32.946335,33.06345,71,29,0
32.946335,33.06345,64,29,0
33.06345,33.540947,64,33,0
33.06345,33.540947,71,33,0
34.011127,34.47457,64,34,0
34.011127,34.47457,57,34,0
34.47457,34.533344,69,33,0
34.47457,34.533344,76,33,0
34.709663,34.768436,76,33,0
34.709663,34.768436,69,33,0
34.94475,35.39897,76,35,0
34.94475,35.39897,69,35,0
35.853897,36.31547,62,34,0
35.853897,36.31547,69,34,0
36.31547,36.546257,74,33,0
36.31547,36.546257,81,33,0
36.66165,36.777042,74,33,0
36.66165,36.777042,81,33,0
36.777042,37.238617,81,33,0
36.777042,37.238617,74,33,0
37.715946,38.18265,52,80,0
37.715946,38.18265,45,80,0
38.18265,38.298046,52,72,0
38.18265,38.298046,45,72,0
38.41344,38.537952,45,72,0
38.41344,38.537952,52,72,0
38.662464,39.129173,52,80,0
38.662464,39.129173,45,80,0
39.129173,39.244568,52,72,0
39.129173,39.244568,45,72,0
39.35996,39.483498,52,72,0
39.35996,39.483498,45,72,0
39.607037,40.06526,52,71,0
39.607037,40.06526,45,71,0
40.06526,40.296047,52,64,0
40.06526,40.296047,45,64,0
40.296047,40.41911,52,64,0
40.296047,40.41911,45,64,0
40.54217,41.000397,52,71,0
40.54217,41.000397,45,71,0
41.000397,41.231182,52,64,0
41.000397,41.231182,45,64,0
41.231182,41.346577,52,64,0
41.231182,41.346577,45,64,0
43.305153,43.768436,56,59,0
45.153416,45.2678,52,33,0
45.153416,45.2678,43,33,0
45.2678,45.38218,55,33,0
45.38218,45.499874,60,33,0
45.499874,45.617565,64,33,0
46.081715,46.192204,50,33,0
46.081715,46.192204,43,33,0
46.192204,46.302692,55,33,0
46.302692,46.41788,59,33,0
46.41788,46.533073,65,33,0
46.990543,47.44488,43,33,0
46.990543,47.44488,36,33,0
47.44488,47.56089,55,30,0
47.44488,47.56089,48,30,0
47.6769,47.79589,55,30,0
47.6769,47.79589,48,30,0
47.914883,48.248077,55,33,0
47.914883,48.248077,48,33,0
48.35596,48.47806,48,72,0
48.35596,48.47806,55,72,0
48.600163,48.723698,55,72,0
48.600163,48.723698,48,72,0
48.847237,49.30696,55,71,0
48.847237,49.30696,48,71,0
49.30696,49.537746,48,64,0
49.30696,49.537746,55,64,0
49.537746,49.660324,55,64,0
49.537746,49.660324,48,64,0
49.782906,50.24113,48,71,0
49.782906,50.24113,55,71,0
50.24113,50.471916,48,64,0
50.24113,50.471916,55,64,0
50.471916,50.58731,48,64,0
50.471916,50.58731,55,64,0
52.545887,53.00917,59,59,0
54.39415,54.50853,55,33,0
54.39415,54.50853,46,33,0
54.50853,54.622913,58,33,0
54.622913,54.740604,63,33,0
54.740604,54.8583,67,33,0
55.32245,55.432938,46,33,0
55.32245,55.432938,53,33,0
55.432938,55.543427,58,33,0
55.543427,55.658615,62,33,0
55.658615,55.773808,68,33,0
56.234097,56.688435,39,33,0
56.234097,56.688435,46,33,0
56.688435,56.804443,51,30,0
56.688435,56.804443,58,30,0
56.920456,57.039444,51,30,0
56.920456,57.039444,58,30,0
57.158436,57.6344,51,33,0
57.158436,57.6344,58,33,0
57.6344,57.748955,51,27,0
57.6344,57.748955,46,27,0
57.863514,57.97807,39,23,0
58.092625,58.2093,51,23,0
58.092625,58.2093,46,23,0
58.325977,58.44576,39,26,0
58.565536,58.678856,51,29,0
58.565536,58.678856,46,29,0
58.792175,58.905495,39,27,0
59.018814,59.134636,51,27,0
59.018814,59.134636,46,27,0
59.250454,59.370235,39,28,0
59.490013,59.601334,51,35,0
59.490013,59.601334,46,35,0
59.71265,59.823967,39,30,0
59.935284,60.049423,51,30,0
59.935284,60.049423,46,30,0
60.16356,60.282436,39,30,0
60.401314,60.513424,51,36,0
60.401314,60.513424,46,36,0
60.62553,60.737637,39,33,0
60.849747,60.965565,51,33,0
60.849747,60.965565,46,33,0
61.081387,61.19721,39,33,0
61.31303,61.427586,51,33,0
61.31303,61.427586,48,33,0
61.54214,61.6567,39,30,0
61.771255,61.88793,51,31,0
61.771255,61.88793,48,31,0
62.00461,62.12439,39,30,0
62.244167,62.357487,51,34,0
62.244167,62.357487,48,34,0
62.470806,62.584126,39,31,0
62.697445,62.813263,51,32,0
62.697445,62.813263,48,32,0
62.929085,63.048866,39,32,0
63.168644,63.27996,51,40,0
63.168644,63.27996,48,40,0
63.391277,63.502598,39,34,0
63.613914,63.72805,51,35,0
63.613914,63.72805,48,35,0
63.84219,63.961067,39,35,0
64.07995,64.192055,51,42,0
64.07995,64.192055,48,42,0
64.30416,64.41627,39,37,0
64.52837,64.64505,51,38,0
64.52837,64.64505,48,38,0
64.76173,64.8784,39,38,0
64.99509,65.11176,54,44,0
64.99509,65.11176,44,44,0
65.22844,65.345116,39,42,0
65.46179,65.57847,54,44,0
65.46179,65.57847,44,44,0
65.695145,65.814926,39,39,0
65.93471,66.04844,54,45,0
65.93471,66.04844,44,45,0
66.16217,66.275894,39,42,0
66.389626,66.50545,54,42,0
66.389626,66.50545,44,42,0
66.62127,66.74105,39,44,0
66.86083,66.97497,54,48,0
66.86083,66.97497,44,48,0
67.0891,67.20325,39,42,0
67.31738,67.43406,54,47,0
67.31738,67.43406,44,47,0
67.550735,67.66962,39,44,0
67.78849,67.903046,54,50,0
67.78849,67.903046,44,50,0
68.0176,68.132164,39,46,0
68.24672,68.36254,54,46,0
68.24672,68.36254,44,46,0
68.47836,68.59418,39,46,0
68.71,68.82456,53,50,0
68.71,68.82456,44,50,0
68.93912,69.05367,39,46,0
69.16823,69.284904,53,48,0
69.16823,69.284904,44,48,0
69.40158,69.52136,39,46,0
69.64114,69.75405,53,51,0
69.64114,69.75405,44,51,0
69.86696,69.979866,39,47,0
70.09277,70.208595,53,50,0
70.09277,70.208595,44,50,0
70.32442,70.4442,39,47,0
70.56398,70.6757,53,60,0
70.56398,70.6757,44,60,0
70.78741,70.899124,39,50,0
71.01084,71.12498,53,56,0
71.01084,71.12498,44,56,0
71.23911,71.35162,39,51,0
71.46414,71.57625,53,59,0
71.46414,71.57625,44,59,0
71.688354,71.80046,39,53,0
71.91257,72.02839,53,57,0
71.91257,72.02839,44,57,0
72.14421,72.26003,39,53,0
72.375854,72.59928,53,60,0
72.375854,72.59928,46,60,0
72.375854,72.59928,39,60,0
72.59928,72.822716,53,55,0
72.59928,72.822716,46,55,0
72.59928,72.822716,39,55,0
72.822716,73.28263,53,57,0
72.822716,73.28263,46,57,0
72.822716,73.28263,39,57,0
73.28263,73.50448,65,53,0
73.28263,73.50448,58,53,0
73.28263,73.50448,51,53,0
73.50448,73.72632,65,53,0
73.50448,73.72632,58,53,0
73.50448,73.72632,51,53,0
73.72632,74.18455,65,61,0
73.72632,74.18455,58,61,0
73.72632,74.18455,51,61,0
74.18455,74.40718,53,59,0
74.18455,74.40718,46,59,0
74.18455,74.40718,39,59,0
74.40718,74.629814,53,55,0
74.40718,74.629814,46,55,0
74.40718,74.629814,39,55,0
74.629814,75.09057,53,59,0
74.629814,75.09057,46,59,0
74.629814,75.09057,39,59,0
75.09057,75.3132,65,61,0
75.09057,75.3132,58,61,0
75.09057,75.3132,51,61,0
75.3132,75.53584,65,56,0
75.3132,75.53584,58,56,0
75.3132,75.53584,51,56,0
75.53584,75.991646,65,64,0
75.53584,75.991646,58,64,0
75.53584,75.991646,51,64,0
75.991646,76.10297,53,75,0
75.991646,76.10297,65,75,0
76.21429,76.3256,67,75,0
76.21429,76.3256,55,75,0
76.43692,76.54592,56,82,0
76.43692,76.54592,68,82,0
76.65492,76.76135,60,75,0
76.65492,76.76135,72,75,0
76.86778,76.97385,56,75,0
76.86778,76.97385,68,75,0
77.07992,77.18563,53,75,0
77.07992,77.18563,65,75,0
77.29129,77.5078,56,82,0
77.29129,77.5078,68,82,0
77.5078,77.717125,53,75,0
77.5078,77.717125,65,75,0
77.717125,77.926445,50,75,0
77.717125,77.926445,62,75,0
77.926445,78.135765,65,75,0
77.926445,78.135765,53,75,0
78.135765,78.34935,62,82,0
78.135765,78.34935,50,82,0
78.34935,78.5573,58,75,0
78.34935,78.5573,46,75,0
78.5573,78.765236,50,75,0
78.5573,78.765236,62,75,0
78.765236,78.97318,58,75,0
78.765236,78.97318,46,75,0
78.97318,79.18677,55,82,0
78.97318,79.18677,43,82,0
79.18677,79.39471,58,75,0
79.18677,79.39471,46,75,0
79.39471,79.60265,55,75,0
79.39471,79.60265,43,75,0
79.60265,79.81059,51,75,0
79.60265,79.81059,39,75,0
79.81059,80.0286,55,85,0
79.81059,80.0286,43,85,0
80.0286,80.23862,51,79,0
80.0286,80.23862,39,79,0
80.23862,80.44862,48,79,0
80.23862,80.44862,36,79,0
80.44862,80.65864,51,79,0
80.44862,80.65864,39,79,0
80.65864,80.87971,48,85,0
80.65864,80.87971,36,85,0
80.87971,81.09878,44,81,0
80.87971,81.09878,32,81,0
81.09878,81.32984,48,86,0
81.09878,81.32984,36,86,0
81.32984,81.5729,44,95,0
81.32984,81.5729,32,95,0
82.021324,82.46976,44,74,0
82.021324,82.46976,51,88,0
82.021324,82.46976,48,74,0
82.46976,82.91819,56,74,0
82.46976,82.91819,63,88,0
82.46976,82.91819,60,74,0
82.91819,83.37976,68,74,0
82.91819,83.37976,75,88,0
81.5729,83.37976,31,90,0
81.5729,83.37976,43,107,0
82.91819,83.37976,72,74,0
83.82819,84.27662,44,74,0
83.82819,84.27662,51,88,0
83.82819,84.27662,48,74,0
84.27662,84.72505,56,74,0
84.27662,84.72505,63,88,0
84.27662,84.72505,60,74,0
84.72505,85.17348,68,74,0
84.72505,85.17348,75,88,0
83.37976,85.17348,30,90,0
83.37976,85.17348,42,107,0
84.72505,85.17348,72,74,0
85.636765,86.08681,44,74,0
85.636765,86.08681,51,88,0
85.636765,86.08681,47,74,0
86.08681,86.53686,56,74,0
86.08681,86.53686,63,88,0
86.08681,86.53686,59,74,0
86.53686,86.9869,68,74,0
86.53686,86.9869,75,88,0
85.17348,86.9869,29,93,0
85.17348,86.9869,41,110,0
86.53686,86.9869,71,74,0
86.9869,87.97054,40,110,0
87.46241,87.97054,40,74,0
87.46241,87.97054,49,88,0
87.46241,87.97054,45,74,0
87.97054,88.49124,52,74,0
87.97054,88.49124,57,74,0
87.97054,88.49124,61,88,0
88.49124,88.833664,64,74,0
88.49124,88.833664,73,88,0
88.49124,88.833664,69,74,0
86.9869,89.20431,28,93,0
89.20431,89.32409,45,79,0
89.20431,89.32409,38,79,0
89.32409,89.44387,50,68,0
89.44387,89.56098,54,68,0
89.56098,89.6781,57,68,0
89.6781,89.771095,62,70,0
89.771095,89.86409,57,70,0
89.86409,89.956406,54,69,0
89.956406,90.04805,50,68,0
90.04805,90.139694,45,68,0
90.139694,90.23269,38,64,0
90.23269,90.32568,45,69,0
90.32568,90.41801,50,70,0
90.41801,90.50965,54,71,0
90.50965,90.601295,57,73,0
90.601295,90.82472,62,75,0
91.052185,91.27326,50,77,0
91.052185,91.27326,45,77,0
91.052185,91.27326,38,77,0
91.27326,91.715416,54,68,0
91.27326,91.715416,57,68,0
91.27326,91.715416,62,68,0
91.715416,92.161514,57,68,0
91.715416,92.161514,62,68,0
91.715416,92.161514,66,68,0
92.161514,92.386536,62,68,0
92.161514,92.386536,66,68,0
92.161514,92.386536,69,68,0
92.82792,92.90293,35,66,0
92.90293,92.977936,42,59,0
92.977936,93.05294,47,59,0
93.05294,93.12612,50,59,0
93.12612,93.1993,54,59,0
93.1993,93.272484,59,59,0
93.272484,93.49202,62,59,0
93.71624,93.80822,40,66,0
93.80822,93.9002,47,59,0
93.9002,93.99072,52,59,0
93.99072,94.07977,56,59,0
94.07977,94.16882,62,59,0
94.16882,94.3971,66,59,0
94.632195,94.86215,45,75,0
94.632195,94.86215,40,75,0
94.632195,94.86215,33,75,0
94.86215,95.32546,52,64,0
94.86215,95.32546,57,64,0
94.86215,95.32546,61,64,0
95.32546,95.79217,57,64,0
95.32546,95.79217,61,64,0
95.32546,95.79217,64,64,0
95.79217,96.02552,61,64,0
95.79217,96.02552,64,64,0
95.79217,96.02552,69,64,0
96.485435,96.59875,50,65,0
96.485435,96.59875,43,65,0
96.59875,96.71207,55,57,0
96.71207,96.825386,59,57,0
96.825386,96.938705,62,57,0
96.938705,97.03205,67,65,0
97.03205,97.12539,62,59,0
97.12539,97.21755,59,58,0
97.21755,97.30854,55,58,0
97.30854,97.39952,50,57,0
97.39952,97.48858,43,56,0
97.48858,97.57763,47,56,0
97.57763,97.66815,55,57,0
97.66815,97.76013,59,57,0
97.76013,97.85211,62,57,0
97.85211,98.07319,67,57,0
98.3023,98.53309,52,73,0
98.3023,98.53309,47,73,0
98.3023,98.53309,40,73,0
98.53309,98.98341,55,62,0
98.53309,98.98341,66,62,0
98.53309,98.98341,62,62,0
98.53309,98.98341,59,62,0
98.98341,99.41872,59,62,0
98.98341,99.41872,67,62,0
98.98341,99.41872,66,62,0
98.98341,99.41872,62,62,0
99.41872,99.65036,62,62,0
99.41872,99.65036,71,62,0
99.41872,99.65036,67,62,0
99.41872,99.65036,66,62,0
100.09096,100.18161,45,69,0
100.18161,100.27226,52,60,0
100.27226,100.361046,57,60,0
100.361046,100.44795,62,60,0
100.44795,100.53486,67,60,0
100.53486,100.758286,71,60,0
100.98172,101.06984,45,69,0
101.06984,101.15796,52,60,0
101.15796,101.24817,57,60,0
101.24817,101.340485,62,60,0
101.340485,101.4328,67,60,0
101.4328,101.66359,71,60,0
101.89438,102.12947,50,75,0
101.89438,102.12947,45,75,0
101.89438,102.12947,38,75,0
102.12947,102.59965,57,64,0
102.12947,102.59965,62,64,0
102.12947,102.59965,66,64,0
102.59965,103.08376,62,64,0
102.59965,103.08376,66,64,0
102.59965,103.08376,69,64,0
103.08376,103.332794,74,62,0
103.08376,103.332794,69,62,0
103.08376,103.332794,66,62,0
103.83084,105.10921,50,44,0
103.83084,105.10921,43,44,0
105.10921,106.33778,50,44,0
105.10921,106.33778,43,44,0
106.33778,107.45969,50,30,0
106.33778,107.45969,43,30,0
107.45969,107.74985,59,44,0
107.74985,108.30346,57,45,0
108.30346,108.584984,55,40,0
107.45969,108.584984,50,30,0
107.45969,108.584984,43,30,0
108.584984,109.67823,54,42,0
108.584984,109.67823,50,27,0
108.584984,109.67823,43,27,0
109.67823,109.95855,57,44,0
109.95855,110.491745,55,46,0
110.491745,110.75426,54,40,0
109.67823,110.75426,50,30,0
109.67823,110.75426,43,30,0
110.75426,111.81293,50,27,0
110.75426,111.81293,43,27,0
110.75426,111.81293,52,42,0
111.81293,112.0863,55,44,0
112.0863,112.61345,54,46,0
112.61345,112.884575,52,42,0
111.81293,112.884575,40,37,0
112.884575,113.973,45,44,0
112.884575,113.973,33,44,0
113.973,114.246376,45,50,0
113.973,114.246376,38,50,0
114.246376,114.85055,50,55,0
114.246376,114.85055,62,55,0
114.85055,115.170135,61,55,0
114.85055,115.170135,49,55,0
115.170135,116.288506,60,40,0
115.170135,116.288506,55,40,0
115.170135,116.288506,48,40,0
116.288506,116.577385,64,31,0
116.288506,116.577385,52,31,0
116.577385,117.13563,62,36,0
116.577385,117.13563,50,36,0
117.13563,117.40025,60,28,0
117.13563,117.40025,48,28,0
116.288506,117.40025,55,34,0
117.40025,118.49802,59,31,0
117.40025,118.49802,54,31,0
117.40025,118.49802,47,31,0
118.49802,118.77482,62,31,0
118.49802,118.77482,50,31,0
118.77482,119.3127,60,36,0
118.77482,119.3127,48,36,0
119.3127,119.58607,59,29,0
119.3127,119.58607,47,29,0
118.49802,119.58607,54,36,0
119.58607,120.71858,57,30,0
119.58607,120.71858,52,30,0
119.58607,120.71858,45,30,0
120.71858,121.00874,60,57,0
121.00874,121.57847,59,51,0
121.57847,121.928154,57,45,0
120.71858,121.928154,33,55,0
121.928154,123.186035,50,40,0
121.928154,123.186035,38,40,0
123.186035,124.12232,50,30,0
123.186035,124.12232,43,30,0
125.675156,125.95428,71,29,0
125.95428,126.49433,70,29,0
126.49433,126.76406,68,27,0
126.76406,127.844124,70,27,0
127.844124,128.12093,70,29,0
128.12093,128.65445,68,29,0
124.29642,128.91492,66,27,0
128.65445,128.91492,66,27,0
124.12232,128.91492,54,27,0
124.209366,128.91492,63,27,0
128.91492,129.97981,66,29,0
128.91492,129.97981,63,29,0
129.97981,131.01659,68,34,0
129.97981,131.01659,61,34,0
131.01659,132.09685,54,31,0
131.01659,132.09685,64,31,0
132.09685,132.38324,64,31,0
132.38324,132.93079,63,31,0
132.09685,133.31902,59,25,0
133.00844,133.31902,59,23,0
134.43661,134.71574,67,29,0
134.71574,135.2558,66,29,0
135.2558,135.52553,64,27,0
135.52553,136.60559,66,27,0
136.60559,136.8824,66,29,0
136.8824,137.41592,64,29,0
133.08607,137.67638,62,23,0
137.41592,137.67638,62,27,0
132.93079,137.67638,50,23,0
137.67638,138.74129,62,27,0
137.67638,138.74129,59,27,0
138.74129,139.77658,64,30,0
138.74129,139.77658,57,30,0
139.77658,140.85684,50,29,0
139.77658,140.85684,60,29,0
140.85684,141.14323,59,29,0
141.14323,141.71602,57,29,0
141.71602,142.02374,54,29,0
142.02374,142.57797,50,23,0
142.02374,142.57797,43,23,0
142.57797,143.13513,74,34,0
143.13513,143.42154,59,29,0
143.42154,143.97514,57,35,0
143.97514,144.24626,55,31,0
143.13513,144.24626,50,26,0
143.13513,144.24626,43,26,0
144.24626,144.78879,54,22,0
144.24626,144.78879,50,22,0
144.24626,144.78879,43,22,0
144.78879,145.32448,74,35,0
145.32448,145.60246,57,29,0
145.60246,146.13567,55,36,0
146.13567,146.39818,54,31,0
145.32448,146.39818,50,26,0
145.32448,146.39818,43,26,0
146.39818,146.93,50,22,0
146.39818,146.93,43,22,0
146.39818,146.93,52,22,0
146.93,147.32431,74,34,0
147.45505,147.72842,55,34,0
147.72842,148.25557,54,36,0
148.25557,148.52669,52,31,0
147.32431,148.52669,40,30,0
148.52669,149.0697,45,36,0
148.52669,149.0697,33,36,0
149.0697,149.60985,69,36,0
149.60985,149.88321,45,42,0
149.60985,149.88321,38,42,0
149.88321,150.48738,50,46,0
149.88321,150.48738,62,46,0
150.48738,150.80698,61,46,0
150.48738,150.80698,49,46,0
150.80698,151.3576,60,35,0
150.80698,151.3576,55,35,0
150.80698,151.3576,48,35,0
151.3576,151.90117,79,46,0
151.90117,152.19005,64,23,0
151.90117,152.19005,52,23,0
152.19005,152.74829,62,31,0
152.19005,152.74829,50,31,0
152.74829,153.01291,60,25,0
152.74829,153.01291,48,25,0
151.90117,153.01291,55,22,0
153.01291,153.55574,59,27,0
153.01291,153.55574,54,27,0
153.01291,153.55574,47,27,0
153.55574,154.09384,78,46,0
154.09384,154.37065,62,23,0
154.09384,154.37065,50,23,0
154.37065,154.90852,60,31,0
154.37065,154.90852,48,31,0
154.90852,155.1819,59,25,0
154.90852,155.1819,47,25,0
154.09384,155.1819,54,22,0
155.1819,155.72995,57,26,0
155.1819,155.72995,52,26,0
155.1819,155.72995,45,26,0
155.72995,156.15665,76,44,0
156.33075,156.62091,60,55,0
156.62091,157.19063,59,42,0
157.19063,157.54031,57,37,0
156.15665,157.54031,33,56,0
157.54031,158.1646,50,35,0
157.54031,158.1646,38,35,0
158.1646,158.81157,74,38,0
158.81157,159.88283,50,26,0
158.81157,159.88283,43,26,0
161.34862,161.62773,71,29,0
161.62773,162.16779,70,29,0
162.16779,162.43753,68,27,0
162.43753,163.5176,70,27,0
163.5176,163.79439,70,29,0
163.79439,164.32791,68,29,0
159.96988,164.58838,66,27,0
164.32791,164.58838,66,27,0
159.79578,164.58838,54,27,0
159.88283,164.58838,63,27,0
164.58838,165.65327,66,29,0
164.58838,165.65327,63,29,0
165.65327,166.68518,68,34,0
165.65327,166.68518,61,34,0
166.68518,167.76543,54,31,0
166.68518,167.76543,64,31,0
167.76543,168.05183,64,31,0
168.05183,168.59937,63,31,0
167.76543,168.98761,59,25,0
168.67702,168.98761,59,23,0
170.10521,170.38432,67,29,0
170.38432,170.92438,66,29,0
170.92438,171.1941,64,27,0
171.1941,172.27417,66,27,0
172.27417,172.55098,66,29,0
172.55098,173.0845,64,29,0
168.75465,173.34496,62,23,0
173.0845,173.34496,62,27,0
168.59937,173.34496,50,23,0
173.34496,174.40987,62,27,0
173.34496,174.40987,59,27,0
174.40987,175.44128,64,30,0
174.40987,175.44128,57,30,0
175.44128,176.52155,50,29,0
175.44128,176.52155,60,29,0
176.52155,176.80794,59,29,0
176.80794,177.38074,57,29,0
177.38074,177.68846,54,29,0
177.68846,178.24268,50,23,0
177.68846,178.24268,43,23,0
178.24268,178.79985,74,34,0
178.79985,179.08499,59,29,0
179.08499,179.6386,57,35,0
179.6386,179.90971,55,31,0
178.79985,179.90971,50,26,0
178.79985,179.90971,43,26,0
179.90971,180.45224,54,22,0
179.90971,180.45224,50,22,0
179.90971,180.45224,43,22,0
180.45224,180.98795,74,35,0
180.98795,181.26357,57,29,0
181.26357,181.79677,55,36,0
181.79677,182.05928,54,31,0
180.98795,182.05928,50,26,0
180.98795,182.05928,43,26,0
182.05928,182.5911,50,22,0
182.05928,182.5911,43,22,0
182.05928,182.5911,52,22,0
182.5911,182.98541,74,35,0
183.11615,183.38953,55,34,0
183.38953,183.91667,54,36,0
183.91667,184.18779,52,31,0
182.98541,184.18779,40,30,0
184.18779,184.7308,45,36,0
184.18779,184.7308,33,36,0
184.7308,185.27095,69,36,0
185.27095,185.54433,45,42,0
185.27095,185.54433,38,42,0
185.54433,186.14848,50,46,0
185.54433,186.14848,62,46,0
186.14848,186.46808,61,46,0
186.14848,186.46808,49,46,0
186.46808,187.0187,60,35,0
186.46808,187.0187,55,35,0
186.46808,187.0187,48,35,0
187.0187,187.56227,79,47,0
187.56227,187.85115,64,23,0
187.56227,187.85115,52,23,0
187.85115,188.4094,62,31,0
187.85115,188.4094,50,31,0
188.4094,188.67401,60,25,0
188.4094,188.67401,48,25,0
187.56227,188.67401,55,22,0
188.67401,189.21684,59,27,0
188.67401,189.21684,54,27,0
188.67401,189.21684,47,27,0
189.21684,189.75494,78,46,0
189.75494,190.03175,62,23,0
189.75494,190.03175,50,23,0
190.03175,190.56963,60,31,0
190.03175,190.56963,48,31,0
190.56963,190.843,59,25,0
190.56963,190.843,47,25,0
189.75494,190.843,54,22,0
190.843,191.39105,57,26,0
190.843,191.39105,52,26,0
190.843,191.39105,45,26,0
191.39105,191.81775,76,42,0
191.99185,192.28201,60,55,0
192.28201,192.85173,59,42,0
192.85173,193.20142,57,37,0
191.81775,193.20142,33,56,0
193.20142,193.8257,50,35,0
193.20142,193.8257,38,35,0
193.8257,194.47267,74,35,0
194.47267,195.6226,50,26,0
194.47267,195.6226,43,26,0
196.04947,196.30876,45,36,0
196.04947,196.30876,38,36,0
197.58432,197.82207,45,31,0
197.58432,197.82207,38,31,0
197.82207,198.05983,45,31,0
197.82207,198.05983,38,31,0
198.05983,198.29758,45,36,0
198.05983,198.29758,38,36,0
199.48996,199.72952,45,31,0
199.48996,199.72952,38,31,0
199.72952,199.96729,45,31,0
199.72952,199.96729,38,31,0
199.96729,200.20503,45,35,0
199.96729,200.20503,38,35,0
200.4428,200.50134,57,31,0
200.4428,200.50134,50,31,0
200.67702,200.73668,57,31,0
200.67702,200.73668,50,31,0
200.91568,201.15344,50,35,0
200.91568,201.15344,57,35,0
201.39119,201.45064,45,31,0
201.39119,201.45064,38,31,0
201.62895,201.68839,45,31,0
201.62895,201.68839,38,31,0
201.8667,202.34221,45,35,0
201.8667,202.34221,38,35,0
202.34221,202.57997,57,33,0
202.34221,202.57997,50,33,0
202.69885,202.81773,57,33,0
202.69885,202.81773,50,33,0
202.81773,203.29337,57,33,0
202.81773,203.29337,50,33,0
203.75833,204.22095,42,34,0
203.75833,204.22095,35,34,0
204.22095,204.27907,54,31,0
204.22095,204.27907,47,31,0
204.45345,204.51157,54,31,0
204.45345,204.51157,47,31,0
204.68593,205.14679,47,34,0
204.68593,205.14679,40,34,0
205.14679,205.20386,59,31,0
205.14679,205.20386,52,31,0
205.37506,205.43213,59,31,0
205.37506,205.43213,52,31,0
205.60335,206.06325,40,35,0
205.60335,206.06325,33,35,0
206.06325,206.29662,57,33,0
206.06325,206.29662,64,33,0
206.41328,206.52997,57,33,0
206.41328,206.52997,64,33,0
206.52997,206.76332,57,33,0
206.52997,206.76332,64,33,0
207.45659,207.91649,50,39,0
207.45659,207.91649,43,39,0
207.91649,207.97527,55,38,0
207.91649,207.97527,62,38,0
208.15158,208.21036,55,38,0
208.15158,208.21036,62,38,0
208.38667,208.85686,62,41,0
208.38667,208.85686,55,41,0
209.31844,209.78601,47,36,0
209.31844,209.78601,40,36,0
209.78601,210.02025,52,34,0
209.78601,210.02025,59,34,0
210.13736,210.25447,52,34,0
210.13736,210.25447,59,34,0
210.25447,210.7329,59,36,0
210.25447,210.7329,52,36,0
211.20308,211.66652,52,39,0
211.20308,211.66652,45,39,0
211.66652,211.7253,57,36,0
211.66652,211.7253,64,36,0
211.90161,211.96039,57,36,0
211.90161,211.96039,64,36,0
212.1367,212.59093,64,39,0
212.1367,212.59093,57,39,0
213.04585,213.50743,45,39,0
213.04585,213.50743,38,39,0
213.50743,213.7382,62,36,0
213.50743,213.7382,69,36,0
213.8536,213.969,62,36,0
213.8536,213.969,69,36,0
213.969,214.43057,62,36,0
213.969,214.43057,69,36,0
214.43057,214.6888,57,27,0
214.43057,214.6888,50,27,0
214.6888,214.947,57,27,0
214.6888,214.947,50,27,0
214.947,215.20523,57,31,0
214.947,215.20523,50,31,0
216.45567,216.69344,57,27,0
216.45567,216.69344,50,27,0
216.69344,216.9312,57,27,0
216.69344,216.9312,50,27,0
216.9312,217.16895,57,30,0
216.9312,217.16895,50,30,0
218.36133,218.60089,57,27,0
218.36133,218.60089,50,27,0
218.60089,218.83865,57,27,0
218.60089,218.83865,50,27,0
218.83865,219.07114,57,31,0
218.83865,219.07114,50,31,0
219.30362,219.3624,69,27,0
219.30362,219.3624,62,27,0
219.53871,219.5977,69,27,0
219.53871,219.5977,62,27,0
219.77469,220.00804,62,31,0
219.77469,220.00804,69,31,0
220.2458,220.30524,57,27,0
220.2458,220.30524,50,27,0
220.48355,220.543,57,27,0
220.48355,220.543,50,27,0
220.72131,221.19682,57,31,0
220.72131,221.19682,50,31,0
221.19682,221.43457,69,30,0
221.19682,221.43457,62,30,0
221.55345,221.67233,69,30,0
221.55345,221.67233,62,30,0
221.67233,222.14796,69,30,0
221.67233,222.14796,62,30,0
222.61295,223.07556,54,30,0
222.61295,223.07556,47,30,0
223.07556,223.13368,66,27,0
223.07556,223.13368,59,27,0
223.30804,223.36617,66,27,0
223.30804,223.36617,59,27,0
223.54053,224.00139,59,30,0
223.54053,224.00139,52,30,0
224.00139,224.05847,71,27,0
224.00139,224.05847,64,27,0
224.22968,224.28674,71,27,0
224.22968,224.28674,64,27,0
224.45795,224.91786,64,30,0
224.45795,224.91786,57,30,0
224.91786,225.15121,69,28,0
224.91786,225.15121,76,28,0
225.26788,225.38457,69,28,0
225.26788,225.38457,76,28,0
225.38457,225.61792,69,28,0
225.38457,225.61792,76,28,0
226.31119,226.7711,62,35,0
226.31119,226.7711,55,35,0
226.7711,226.82965,67,33,0
226.7711,226.82965,74,33,0
227.00533,227.0641,67,33,0
227.00533,227.0641,74,33,0
227.24042,227.70886,74,36,0
227.24042,227.70886,67,36,0
228.17044,228.63802,59,33,0
228.17044,228.63802,52,33,0
228.63802,228.87225,64,29,0
228.63802,228.87225,71,29,0
228.98936,229.10648,64,29,0
228.98936,229.10648,71,29,0
229.10648,229.58397,71,33,0
229.10648,229.58397,64,33,0
230.05415,230.5176,64,34,0
230.05415,230.5176,57,34,0
230.5176,230.57637,69,33,0
230.5176,230.57637,76,33,0
230.75269,230.81146,69,33,0
230.75269,230.81146,76,33,0
230.98778,231.442,76,35,0
230.98778,231.442,69,35,0
231.89693,232.3585,69,34,0
231.89693,232.3585,62,34,0
232.3585,232.58928,74,33,0
232.3585,232.58928,81,33,0
232.70468,232.82007,74,33,0
232.70468,232.82007,81,33,0
232.82007,233.28165,74,33,0
232.82007,233.28165,81,33,0
233.75897,234.22568,52,80,0
233.75897,234.22568,45,80,0
234.22568,234.34108,52,72,0
234.22568,234.34108,45,72,0
234.45647,234.58098,45,72,0
234.45647,234.58098,52,72,0
234.70549,235.1722,52,80,0
234.70549,235.1722,45,80,0
235.1722,235.2876,52,72,0
235.1722,235.2876,45,72,0
235.40298,235.52652,52,72,0
235.40298,235.52652,45,72,0
235.65007,236.10829,52,71,0
235.65007,236.10829,45,71,0
236.10829,236.33908,52,64,0
236.10829,236.33908,45,64,0
236.33908,236.46214,52,64,0
236.33908,236.46214,45,64,0
236.5852,237.04343,52,71,0
236.5852,237.04343,45,71,0
237.04343,237.27422,52,64,0
237.04343,237.27422,45,64,0
237.27422,237.3896,52,64,0
237.27422,237.3896,45,64,0
239.34818,239.81146,56,59,0
241.19644,241.31082,52,33,0
241.19644,241.31082,43,33,0
241.31082,241.4252,55,33,0
241.4252,241.54291,60,33,0
241.54291,241.6606,64,33,0
242.12474,242.23523,50,33,0
242.12474,242.23523,43,33,0
242.23523,242.34572,55,33,0
242.34572,242.4609,59,33,0
242.4609,242.5761,65,33,0
243.03357,243.48792,43,33,0
243.03357,243.48792,36,33,0
243.48792,243.60391,55,30,0
243.48792,243.60391,48,30,0
243.71992,243.83891,55,30,0
243.71992,243.83891,48,30,0
243.95792,244.2911,55,33,0
243.95792,244.2911,48,33,0
244.39899,244.52109,48,72,0
244.39899,244.52109,55,72,0
244.64319,244.76672,55,72,0
244.64319,244.76672,48,72,0
244.89026,245.34999,55,71,0
244.89026,245.34999,48,71,0
245.34999,245.58078,48,64,0
245.34999,245.58078,55,64,0
245.58078,245.70335,55,64,0
245.58078,245.70335,48,64,0
245.82593,246.28416,48,71,0
245.82593,246.28416,55,71,0
246.28416,246.51494,48,64,0
246.28416,246.51494,55,64,0
246.51494,246.63034,48,64,0
246.51494,246.63034,55,64,0
248.58891,249.0522,59,59,0
250.43718,250.55156,55,33,0
250.43718,250.55156,46,33,0
250.55156,250.66594,58,33,0
250.66594,250.78363,63,33,0
250.78363,250.90132,67,33,0
251.36548,251.47597,46,33,0
251.36548,251.47597,53,33,0
251.47597,251.58646,58,33,0
251.58646,251.70164,62,33,0
251.70164,251.81683,68,33,0
252.27713,252.73146,39,33,0
252.27713,252.73146,46,33,0
252.73146,252.84747,51,30,0
252.73146,252.84747,58,30,0
252.96349,253.08247,51,30,0
252.96349,253.08247,58,30,0
253.20146,253.67743,51,33,0
253.20146,253.67743,58,33,0
253.67743,253.79198,51,27,0
253.67743,253.79198,46,27,0
253.90654,254.0211,39,23,0
254.13565,254.25233,51,23,0
254.13565,254.25233,46,23,0
254.369,254.48878,39,26,0
254.60857,254.72188,51,29,0
254.60857,254.72188,46,29,0
254.8352,254.94852,39,27,0
255.06184,255.17766,51,27,0
255.06184,255.17766,46,27,0
255.29349,255.41327,39,28,0
255.53304,255.64436,51,35,0
255.53304,255.64436,46,35,0
255.75568,255.86699,39,30,0
255.97832,256.09244,51,30,0
255.97832,256.09244,46,30,0
256.20657,256.32547,39,30,0
256.44434,256.55646,51,36,0
256.44434,256.55646,46,36,0
256.66855,256.78067,39,33,0
256.89276,257.0086,51,33,0
256.89276,257.0086,46,33,0
257.12442,257.24023,39,33,0
257.35605,257.4706,51,33,0
257.35605,257.4706,48,33,0
257.58517,257.69974,39,30,0
257.81427,257.93097,51,31,0
257.81427,257.93097,48,31,0
258.04764,258.16742,39,30,0
258.2872,258.4005,51,34,0
258.2872,258.4005,48,34,0
258.51382,258.62717,39,31,0
258.74048,258.8563,51,32,0
258.74048,258.8563,48,32,0
258.9721,259.0919,39,32,0
259.21167,259.323,51,40,0
259.21167,259.323,48,40,0
259.4343,259.54562,39,34,0
259.65695,259.7711,51,35,0
259.65695,259.7711,48,35,0
259.88522,260.0041,39,35,0
260.123,260.23508,51,42,0
260.123,260.23508,48,42,0
260.3472,260.4593,39,37,0
260.5714,260.68808,51,38,0
260.5714,260.68808,48,38,0
260.80475,260.92145,39,38,0
261.03812,261.1548,54,44,0
261.03812,261.1548,44,44,0
261.27145,261.38815,39,42,0
261.50482,261.6215,54,44,0
261.50482,261.6215,44,44,0
261.73816,261.85794,39,39,0
261.97772,262.09146,54,45,0
261.97772,262.09146,44,45,0
262.2052,262.31894,39,42,0
262.43265,262.5485,54,42,0
262.43265,262.5485,44,42,0
262.6643,262.7841,39,44,0
262.90387,263.018,54,48,0
262.90387,263.018,44,48,0
263.13214,263.24628,39,42,0
263.3604,263.47708,54,47,0
263.3604,263.47708,44,47,0
263.59375,263.71265,39,44,0
263.8315,263.94608,54,50,0
263.8315,263.94608,44,50,0
264.06064,264.1752,39,46,0
264.28973,264.40558,54,46,0
264.28973,264.40558,44,46,0
264.5214,264.6372,39,46,0
264.75302,264.86758,53,50,0
264.75302,264.86758,44,50,0
264.98215,265.0967,39,46,0
265.21124,265.32794,53,48,0
265.21124,265.32794,44,48,0
265.4446,265.5644,39,46,0
265.68417,265.7971,53,51,0
265.68417,265.7971,44,51,0
265.90997,266.0229,39,47,0
266.1358,266.25162,53,50,0
266.1358,266.25162,44,50,0
266.36746,266.4872,39,47,0
266.607,266.71872,53,60,0
266.607,266.71872,44,60,0
266.83044,266.94214,39,50,0
267.05386,267.168,53,56,0
267.05386,267.168,44,56,0
267.28214,267.39465,39,51,0
267.50717,267.61926,53,59,0
267.50717,267.61926,44,59,0
267.73138,267.84348,39,53,0
267.9556,268.0714,53,57,0
267.9556,268.0714,44,57,0
268.18723,268.30307,39,53,0
268.41888,268.6423,53,60,0
268.41888,268.6423,46,60,0
268.41888,268.6423,39,60,0
268.6423,268.86575,53,55,0
268.6423,268.86575,46,55,0
268.6423,268.86575,39,55,0
268.86575,269.32565,53,57,0
268.86575,269.32565,46,57,0
268.86575,269.32565,39,57,0
269.32565,269.54752,65,53,0
269.32565,269.54752,58,53,0
269.32565,269.54752,51,53,0
269.54752,269.76935,65,53,0
269.54752,269.76935,58,53,0
269.54752,269.76935,51,53,0
269.76935,270.22757,65,61,0
269.76935,270.22757,58,61,0
269.76935,270.22757,51,61,0
270.22757,270.4502,53,59,0
270.22757,270.4502,46,59,0
270.22757,270.4502,39,59,0
270.4502,270.67285,53,55,0
270.4502,270.67285,46,55,0
270.4502,270.67285,39,55,0
270.67285,271.1336,53,59,0
270.67285,271.1336,46,59,0
270.67285,271.1336,39,59,0
271.1336,271.35623,65,61,0
271.1336,271.35623,58,61,0
271.1336,271.35623,51,61,0
271.35623,271.57886,65,56,0
271.35623,271.57886,58,56,0
271.35623,271.57886,51,56,0
271.57886,272.03467,65,64,0
271.57886,272.03467,58,64,0
271.57886,272.03467,51,64,0
272.03467,272.146,53,75,0
272.03467,272.146,65,75,0
272.25732,272.36862,67,75,0
272.25732,272.36862,55,75,0
272.47995,272.58896,56,82,0
272.47995,272.58896,68,82,0
272.69797,272.80438,60,75,0
272.69797,272.80438,72,75,0
272.9108,273.01688,56,75,0
272.9108,273.01688,68,75,0
273.12296,273.22867,53,75,0
273.12296,273.22867,65,75,0
273.33432,273.55084,56,82,0
273.33432,273.55084,68,82,0
273.55084,273.76016,53,75,0
273.55084,273.76016,65,75,0
273.76016,273.96948,50,75,0
273.76016,273.96948,62,75,0
273.96948,274.1788,65,75,0
273.96948,274.1788,53,75,0
274.1788,274.39236,62,82,0
274.1788,274.39236,50,82,0
274.39236,274.6003,58,75,0
274.39236,274.6003,46,75,0
274.6003,274.80826,50,75,0
274.6003,274.80826,62,75,0
274.80826,275.0162,58,75,0
274.80826,275.0162,46,75,0
275.0162,275.2298,55,82,0
275.0162,275.2298,43,82,0
275.2298,275.43774,58,75,0
275.2298,275.43774,46,75,0
275.43774,275.6457,55,75,0
275.43774,275.6457,43,75,0
275.6457,275.85364,51,75,0
275.6457,275.85364,39,75,0
275.85364,276.07162,55,85,0
275.85364,276.07162,43,85,0
276.07162,276.28165,51,79,0
276.07162,276.28165,39,79,0
276.28165,276.49164,48,79,0
276.28165,276.49164,36,79,0
276.49164,276.70166,51,79,0
276.49164,276.70166,39,79,0
276.70166,276.92273,48,85,0
276.70166,276.92273,36,85,0
276.92273,277.1418,44,81,0
276.92273,277.1418,32,81,0
277.1418,277.37286,48,86,0
277.1418,277.37286,36,86,0
277.37286,277.61594,44,95,0
277.37286,277.61594,32,95,0
278.06436,278.5128,44,74,0
278.06436,278.5128,51,88,0
278.06436,278.5128,48,74,0
278.5128,278.9612,56,74,0
278.5128,278.9612,63,88,0
278.5128,278.9612,60,74,0
278.9612,279.4228,68,74,0
278.9612,279.4228,75,88,0
277.61594,279.4228,31,90,0
277.61594,279.4228,43,107,0
278.9612,279.4228,72,74,0
279.87122,280.31964,44,74,0
279.87122,280.31964,51,88,0
279.87122,280.31964,48,74,0
280.31964,280.76807,56,74,0
280.31964,280.76807,63,88,0
280.31964,280.76807,60,74,0
280.76807,281.21652,68,74,0
280.76807,281.21652,75,88,0
279.4228,281.21652,30,90,0
279.4228,281.21652,42,107,0
280.76807,281.21652,72,74,0
281.67978,282.12985,44,74,0
281.67978,282.12985,51,88,0
281.67978,282.12985,47,74,0
282.12985,282.5799,56,74,0
282.12985,282.5799,63,88,0
282.12985,282.5799,59,74,0
282.5799,283.02994,68,74,0
282.5799,283.02994,75,88,0
281.21652,283.02994,29,93,0
281.21652,283.02994,41,110,0
282.5799,283.02994,71,74,0
283.02994,284.01358,40,110,0
283.50543,284.01358,40,74,0
283.50543,284.01358,49,88,0
283.50543,284.01358,45,74,0
284.01358,284.53427,52,74,0
284.01358,284.53427,57,74,0
284.01358,284.53427,61,88,0
284.53427,284.8767,64,74,0
284.53427,284.8767,73,88,0
284.53427,284.8767,69,74,0
283.02994,285.24734,28,93,0
285.24734,285.36713,45,79,0
285.24734,285.36713,38,79,0
285.36713,285.4869,50,68,0
285.4869,285.604,54,68,0
285.604,285.72113,57,68,0
285.72113,285.81412,62,70,0
285.81412,285.9071,57,70,0
285.9071,285.99942,54,69,0
285.99942,286.0911,50,68,0
286.0911,286.18274,45,68,0
286.18274,286.27573,38,64,0
286.27573,286.3687,45,69,0
286.3687,286.46103,50,70,0
286.46103,286.55267,54,71,0
286.55267,286.64432,57,73,0
286.64432,286.86777,62,75,0
287.0952,287.31628,50,77,0
287.0952,287.31628,45,77,0
287.0952,287.31628,38,77,0
287.31628,287.75845,54,68,0
287.31628,287.75845,57,68,0
287.31628,287.75845,62,68,0
287.75845,288.20453,57,68,0
287.75845,288.20453,62,68,0
287.75845,288.20453,66,68,0
288.20453,288.42957,62,68,0
288.20453,288.42957,66,68,0
288.20453,288.42957,69,68,0
288.87094,288.94595,35,66,0
288.94595,289.02097,42,59,0
289.02097,289.09598,47,59,0
289.09598,289.16916,50,59,0
289.16916,289.24234,54,59,0
289.24234,289.31552,59,59,0
289.31552,289.53506,62,59,0
289.75928,289.85126,40,66,0
289.85126,289.94324,47,59,0
289.94324,290.03375,52,59,0
290.03375,290.1228,56,59,0
290.1228,290.21185,62,59,0
290.21185,290.44012,66,59,0
290.67523,290.90518,45,75,0
290.67523,290.90518,40,75,0
290.67523,290.90518,33,75,0
290.90518,291.3685,52,64,0
290.90518,291.3685,57,64,0
290.90518,291.3685,61,64,0
291.3685,291.8352,57,64,0
291.3685,291.8352,61,64,0
291.3685,291.8352,64,64,0
291.8352,292.06854,61,64,0
291.8352,292.06854,64,64,0
291.8352,292.06854,69,64,0
292.52847,292.64178,50,65,0
292.52847,292.64178,43,65,0
292.64178,292.7551,55,57,0
292.7551,292.8684,59,57,0
292.8684,292.98172,62,57,0
292.98172,293.07507,67,65,0
293.07507,293.16843,62,59,0
293.16843,293.2606,59,58,0
293.2606,293.35156,55,58,0
293.35156,293.44257,50,57,0
293.44257,293.53162,43,56,0
293.53162,293.62067,47,56,0
293.62067,293.71118,55,57,0
293.71118,293.80316,59,57,0
293.80316,293.89514,62,57,0
293.89514,294.1162,67,57,0
294.34534,294.5761,52,73,0
294.34534,294.5761,47,73,0
294.34534,294.5761,40,73,0
294.5761,295.02643,55,62,0
294.5761,295.02643,66,62,0
294.5761,295.02643,62,62,0
294.5761,295.02643,59,62,0
295.02643,295.46176,59,62,0
295.02643,295.46176,67,62,0
295.02643,295.46176,66,62,0
295.02643,295.46176,62,62,0
295.46176,295.6934,62,62,0
295.46176,295.6934,71,62,0
295.46176,295.6934,67,62,0
295.46176,295.6934,66,62,0
296.13397,296.22464,45,69,0
296.22464,296.3153,52,60,0
296.3153,296.40408,57,60,0
296.40408,296.49097,62,60,0
296.49097,296.57788,67,60,0
296.57788,296.80133,71,60,0
297.02475,297.11285,45,69,0
297.11285,297.201,52,60,0
297.201,297.2912,57,60,0
297.2912,297.3835,62,60,0
297.3835,297.47583,67,60,0
297.47583,297.7066,71,60,0
297.9374,298.1725,50,75,0
297.9374,298.1725,45,75,0
297.9374,298.1725,38,75,0
298.1725,298.64267,57,64,0
298.1725,298.64267,62,64,0
298.1725,298.64267,66,64,0
298.64267,299.1268,62,64,0
298.64267,299.1268,66,64,0
298.64267,299.1268,69,64,0
299.1268,299.37582,74,62,0
299.1268,299.37582,69,62,0
299.1268,299.37582,66,62,0
299.84818,300.00256,45,55,0
299.84818,300.00256,38,55,0
300.05884,300.2276,45,48,0
300.05884,300.2276,33,48,0
300.28384,300.4526,45,55,0
300.28384,300.4526,38,55,0
300.50888,300.67764,45,48,0
300.50888,300.67764,33,48,0
300.73422,300.903,45,52,0
300.73422,300.903,38,52,0
300.95926,301.12802,45,48,0
300.95926,301.12802,33,48,0
301.1843,301.35306,45,55,0
301.1843,301.35306,38,55,0
301.4093,301.59317,45,46,0
301.4093,301.59317,33,46,0
301.65445,301.82883,45,51,0
301.65445,301.82883,38,51,0
301.88693,302.0613,33,52,0
302.11945,302.2938,45,51,0
302.11945,302.2938,38,51,0
302.35193,302.52628,33,52,0
302.5844,302.75317,45,51,0
302.5844,302.75317,38,51,0
302.80942,302.97818,33,51,0
303.03445,303.2169,45,51,0
303.03445,303.2169,38,51,0
303.2777,303.44916,33,52,0
303.4933,303.63776,45,55,0
303.4933,303.63776,38,55,0
303.69403,303.8628,45,48,0
303.69403,303.8628,33,48,0
303.91904,304.08783,45,55,0
303.91904,304.08783,38,55,0
304.14407,304.31284,45,48,0
304.14407,304.31284,33,48,0
304.36908,304.53787,45,53,0
304.36908,304.53787,38,53,0
304.59412,304.76288,45,48,0
304.59412,304.76288,33,48,0
304.81915,304.9879,45,53,0
304.81915,304.9879,38,53,0
305.04416,305.22745,45,46,0
305.04416,305.22745,33,46,0
305.28873,305.4631,45,51,0
305.28873,305.4631,38,51,0
305.5212,305.6956,33,52,0
305.7537,305.92807,45,51,0
305.7537,305.92807,38,51,0
305.98618,306.16055,33,52,0
306.2187,306.38766,45,51,0
306.2187,306.38766,38,51,0
306.4439,306.61267,33,51,0
306.66895,306.85138,45,51,0
306.66895,306.85138,38,51,0
306.9122,307.08447,33,40,0
307.13107,307.28094,45,44,0
307.13107,307.28094,38,44,0
307.3376,307.50757,45,38,0
307.3376,307.50757,33,38,0
307.56424,307.73422,45,44,0
307.56424,307.73422,38,44,0
307.79086,307.96085,45,38,0
307.79086,307.96085,33,38,0
308.01752,308.18686,45,42,0
308.01752,308.18686,38,42,0
308.24332,308.4127,45,38,0
308.24332,308.4127,33,38,0
308.46915,308.63852,45,42,0
308.46915,308.63852,38,42,0
308.69495,308.881,33,36,0
308.94302,309.11737,45,39,0
308.94302,309.11737,38,39,0
309.1755,309.34985,33,40,0
309.408,309.58237,45,39,0
309.408,309.58237,38,39,0
309.64047,309.81485,33,40,0
309.87296,310.04193,45,39,0
309.87296,310.04193,38,39,0
310.0982,310.26697,33,39,0
310.3232,310.50293,45,39,0
310.3232,310.50293,38,39,0
310.56326,310.7349,33,39,0
310.78137,310.93115,45,44,0
310.78137,310.93115,38,44,0
310.98804,311.15863,33,38,0
311.21548,311.38608,45,44,0
311.21548,311.38608,38,44,0
311.44296,311.61356,33,38,0
311.6704,311.841,45,42,0
311.6704,311.841,38,42,0
311.8979,312.06848,33,38,0
312.12534,312.29593,45,42,0
312.12534,312.29593,38,42,0
312.3528,312.53885,33,36,0
312.60086,312.77524,45,39,0
312.60086,312.77524,38,39,0
312.83334,313.00772,33,40,0
313.06583,313.2402,45,39,0
313.06583,313.2402,38,39,0
313.2983,313.4727,33,40,0
313.5308,313.69086,45,39,0
313.5308,313.69086,38,39,0
313.74448,313.90527,33,39,0
313.95886,314.11966,45,39,0
313.95886,314.11966,38,39,0
314.17355,314.3371,33,39,0
314.3916,314.55865,45,35,0
314.3916,314.55865,38,35,0
314.61432,314.78137,33,36,0
314.83707,315.00412,45,35,0
314.83707,315.00412,38,35,0
315.05978,315.22684,33,36,0
315.28253,315.44333,45,35,0
315.28253,315.44333,38,35,0
315.49692,315.6577,33,35,0
315.7113,315.8721,45,35,0
315.7113,315.8721,38,35,0
315.92572,316.08652,33,35,0
316.1401,316.2513,45,35,0
316.1401,316.2513,38,35,0
316.5849,316.69763,33,36,0
317.0358,317.14627,45,35,0
317.0358,317.14627,38,35,0
317.47766,317.59,33,35,0
317.927,318.03708,45,35,0
317.927,318.03708,38,35,0
318.36737,318.48007,33,34,0
318.81824,318.92984,45,35,0
318.81824,318.92984,38,35,0
319.2646,319.37967,33,35,0
319.72488,319.95422,45,35,0
319.72488,319.95422,38,35,0
320.63446,320.8599,50,35,0
320.63446,320.8599,57,35,0
321.53622,321.762,69,35,0
321.53622,321.762,62,35,0
322.44742,322.67838,74,38,0
322.44742,322.67838,81,38,0
323.37122,323.60196,86,42,0
323.37122,323.60196,93,42,0
324.28802,324.51462,74,39,0
324.28802,324.51462,81,39,0
325.1896,325.41428,69,35,0
325.1896,325.41428,62,35,0
326.08826,326.31293,57,31,0
326.08826,326.31293,50,31,0
326.98694,327.21628,45,31,0
326.98694,327.21628,38,31,0
328.8831,329.27316,38,91,0
328.8831,329.27316,33,77,0
328.8831,329.27316,26,77,0
