start_time,end_time,note_value,velocity,instrument_program_number
1.0797575,1.3308035,65,51,0
1.3308035,2.040662,67,55,0
2.040662,2.500432,69,56,0
2.500432,2.740432,70,55,0
2.740432,3.4197545,74,61,0
3.4197545,3.8760285,72,55,0
3.8760285,4.111785,65,52,0
4.111785,4.7911663,71,55,0
4.7911663,5.2390676,72,60,0
5.2390676,5.4762034,74,58,0
5.4762034,6.147845,77,66,0
6.147845,6.595606,75,64,0
6.595606,6.8340797,75,71,0
6.8340797,7.5338235,76,77,0
7.5338235,7.9918385,82,72,0
7.9918385,8.236736,81,67,0
8.236736,8.953421,69,66,0
8.953421,9.425861,82,69,0
9.425861,9.677962,81,61,0
9.677962,10.414127,69,56,0
10.414127,10.897999,82,58,0
10.897999,11.147999,81,53,0
11.397999,11.656619,65,35,0
11.397999,11.656619,62,35,0
11.656619,11.915239,65,31,0
11.656619,11.915239,62,31,0
11.915239,12.173861,62,31,0
11.915239,12.173861,65,31,0
12.173861,12.430118,65,31,0
12.173861,12.430118,62,31,0
11.147999,12.430118,69,50,0
12.430118,12.677031,53,52,0
12.677031,13.39518,55,55,0
13.39518,13.866737,57,55,0
13.866737,14.1096525,60,52,0
14.1096525,14.797305,55,59,0
14.797305,15.25574,53,55,0
15.25574,15.4938345,55,57,0
15.4938345,16.17771,57,63,0
16.17771,16.636145,59,66,0
16.636145,16.87328,62,61,0
16.87328,17.552525,56,72,0
17.552525,18.005356,55,70,0
18.005356,18.256401,60,72,0
18.954672,19.421598,72,70,0
19.421598,19.668512,70,67,0
18.256401,19.668512,61,75,0
20.381367,20.855675,69,70,0
20.855675,21.104637,67,63,0
19.668512,21.104637,62,74,0
21.104637,21.584639,56,58,0
21.584639,21.838875,57,53,0
21.838875,22.311316,62,58,0
22.311316,22.556915,57,54,0
22.556915,23.31099,57,50,0
23.31099,23.819466,58,46,0
23.819466,24.063368,57,52,0
24.063368,24.77264,55,55,0
24.77264,25.237614,57,56,0
25.237614,25.481516,60,53,0
25.481516,26.163334,55,59,0
26.163334,26.617878,53,55,0
26.617878,26.853636,55,57,0
26.853636,27.542591,57,60,0
27.542591,27.995422,59,66,0
27.995422,28.232557,62,62,0
28.232557,28.923962,56,72,0
28.923962,29.384897,55,70,0
29.384897,29.641308,60,72,0
30.361517,30.837708,72,72,0
30.837708,31.085642,70,67,0
29.641308,31.085642,61,77,0
31.80298,32.277287,69,70,0
32.277287,32.52939,67,58,0
31.085642,32.52939,62,74,0
32.52939,33.009388,56,54,0
33.009388,33.263626,57,50,0
33.263626,33.74946,62,56,0
33.74946,33.99739,57,53,0
33.99739,34.765606,60,50,0
34.765606,35.296577,58,46,0
35.573154,36.292522,62,55,0
36.524345,36.75617,61,36,0
36.524345,36.75617,57,36,0
36.30315,36.76697,65,64,0
36.75617,36.991104,57,34,0
36.75617,36.991104,61,34,0
36.75617,36.991104,64,58,0
36.991104,37.10637,61,51,0
37.10637,37.22101,62,53,0
37.22101,37.33502,64,55,0
37.33502,37.448414,65,58,0
37.448414,37.561203,68,60,0
37.561203,37.673386,69,63,0
37.673386,37.78497,73,66,0
37.78497,37.89596,74,68,0
37.89596,38.006367,77,74,0
38.37188,39.07143,62,56,0
39.303253,39.535072,61,36,0
39.303253,39.535072,57,36,0
39.07143,39.535072,65,64,0
39.535072,39.77001,64,58,0
39.535072,39.77001,61,34,0
39.535072,39.77001,57,34,0
39.77001,39.885277,61,51,0
39.885277,39.999916,62,53,0
39.999916,40.113922,64,55,0
40.113922,40.22732,65,58,0
40.22732,40.340107,68,60,0
40.340107,40.45229,69,63,0
40.45229,40.5638,73,66,0
40.5638,40.676907,74,68,0
40.676907,40.78731,81,73,0
41.147137,41.8398,62,57,0
42.069706,42.299606,57,36,0
42.069706,42.299606,61,36,0
41.8398,42.299606,65,64,0
42.299606,42.534546,61,34,0
42.299606,42.534546,57,34,0
42.299606,42.534546,64,58,0
42.534546,42.64981,61,51,0
42.64981,42.76445,62,53,0
42.76445,42.87772,64,55,0
42.87772,42.99015,65,58,0
42.99015,43.101883,68,60,0
43.101883,43.212788,69,63,0
43.212788,43.323082,73,66,0
43.323082,43.433376,74,68,0
43.433376,43.5434,77,74,0
43.903812,44.61008,62,58,0
44.8419,45.073723,57,36,0
44.8419,45.073723,61,36,0
44.61008,45.073723,65,63,0
45.073723,45.30866,61,34,0
45.073723,45.30866,57,34,0
45.073723,45.30866,64,58,0
45.30866,45.423923,61,51,0
45.423923,45.538567,62,53,0
45.538567,45.652573,64,55,0
45.652573,45.76597,65,58,0
45.76597,45.878757,68,60,0
45.878757,45.99094,69,63,0
45.99094,46.10245,73,66,0
46.10245,46.215553,74,68,0
46.215553,46.325962,81,74,0
46.68139,47.39517,86,85,0
47.39517,48.102448,74,72,0
48.102448,48.451607,60,57,0
48.451607,48.566402,62,54,0
48.566402,48.680042,63,57,0
48.680042,48.7924,64,59,0
49.014694,49.125805,60,46,0
49.014694,49.125805,57,46,0
48.7924,49.236916,67,62,0
49.236916,49.362175,57,42,0
49.236916,49.362175,60,42,0
49.236916,49.48744,65,59,0
49.48744,50.203217,82,74,0
50.203217,50.910496,70,67,0
50.910496,51.259655,57,57,0
51.259655,51.374454,58,49,0
51.374454,51.48862,59,52,0
51.48862,51.602016,61,55,0
51.827293,51.93993,53,46,0
51.602016,52.052567,64,58,0
52.052567,52.17783,53,42,0
52.052567,52.30309,62,56,0
52.538383,52.779346,62,41,0
52.538383,52.779346,58,36,0
52.538383,52.779346,67,41,0
52.779346,53.02626,62,35,0
52.779346,53.02626,58,30,0
52.779346,53.02626,67,35,0
53.02626,53.50057,81,70,0
53.50057,53.743484,69,59,0
53.979706,54.219704,67,41,0
53.979706,54.219704,58,36,0
53.979706,54.219704,62,41,0
54.219704,54.464603,67,35,0
54.219704,54.464603,58,30,0
54.219704,54.464603,62,35,0
54.464603,54.93891,81,69,0
54.93891,55.184814,69,59,0
55.184814,55.555183,64,50,0
55.555183,55.674706,63,45,0
55.674706,55.794228,64,48,0
55.794228,55.91375,65,51,0
55.91375,56.40962,69,54,0
56.40962,56.69506,67,52,0
56.95147,57.468174,55,36,0
56.95147,57.468174,58,39,0
56.95147,57.468174,62,39,0
57.748547,58.38395,61,36,0
57.748547,58.38395,55,32,0
57.748547,58.38395,52,32,0
58.38395,59.126415,62,55,0
59.362637,59.598858,57,36,0
59.362637,59.598858,61,36,0
59.126415,59.598858,65,64,0
59.598858,59.83733,61,34,0
59.598858,59.83733,57,34,0
59.598858,59.83733,64,58,0
59.83733,59.952595,61,51,0
59.952595,60.067234,62,53,0
60.067234,60.181244,64,55,0
60.181244,60.29464,65,58,0
60.29464,60.40743,68,60,0
60.40743,60.51961,69,63,0
60.51961,60.631195,73,66,0
60.631195,60.742188,74,68,0
60.742188,60.852596,77,75,0
61.218105,61.91861,62,58,0
62.150433,62.38225,61,36,0
62.150433,62.38225,57,36,0
61.91861,62.38225,65,64,0
62.38225,62.61719,57,34,0
62.38225,62.61719,64,58,0
62.38225,62.61719,61,34,0
62.61719,62.732452,61,51,0
62.732452,62.847095,62,53,0
62.847095,62.96002,64,55,0
62.96002,63.07189,65,58,0
63.07189,63.182594,68,60,0
63.182594,63.29289,69,63,0
63.29289,63.40344,73,66,0
63.40344,63.516544,74,68,0
63.516544,63.62695,81,74,0
63.982376,64.67878,62,59,0
64.90868,65.13859,57,36,0
64.90868,65.13859,61,36,0
64.67878,65.13859,65,64,0
65.13859,65.37322,61,34,0
65.13859,65.37322,57,34,0
65.13859,65.37322,64,58,0
65.37322,65.48679,61,51,0
65.48679,65.59993,62,53,0
65.59993,65.71264,64,55,0
65.71264,65.82486,65,58,0
65.82486,65.93666,68,60,0
65.93666,66.04805,69,63,0
66.04805,66.15915,73,66,0
66.15915,66.27014,74,68,0
66.27014,66.38055,77,73,0
66.74148,67.44581,62,58,0
67.677635,67.909454,57,36,0
67.677635,67.909454,61,36,0
67.44581,67.909454,65,63,0
67.909454,68.144394,61,34,0
67.909454,68.144394,57,34,0
67.909454,68.144394,64,58,0
68.144394,68.25966,61,51,0
68.25966,68.3743,62,53,0
68.3743,68.488304,64,55,0
68.488304,68.6017,65,58,0
68.6017,68.71449,68,60,0
68.71449,68.826675,69,63,0
68.826675,68.93818,73,66,0
68.93818,69.051285,74,68,0
69.051285,69.1617,81,74,0
69.51712,70.232574,86,86,0
70.232574,70.93986,74,72,0
70.93986,71.28902,60,57,0
71.28902,71.40382,62,54,0
71.40382,71.51798,63,57,0
71.51798,71.63138,64,59,0
71.85665,71.96929,57,46,0
71.85665,71.96929,60,46,0
71.63138,72.08193,67,62,0
72.08193,72.20719,57,42,0
72.08193,72.20719,60,42,0
72.08193,72.33245,65,59,0
72.33245,73.05285,82,72,0
73.05285,73.764755,70,62,0
73.764755,74.113914,58,51,0
74.113914,74.228714,59,43,0
74.228714,74.34288,60,46,0
74.34288,74.456276,62,48,0
74.456276,74.90683,65,51,0
74.90683,75.14973,63,48,0
75.38848,75.562584,63,33,0
75.38848,75.562584,65,33,0
75.38848,75.562584,53,30,0
75.62029,75.79194,65,30,0
75.62029,75.79194,53,27,0
75.62029,75.79194,63,30,0
76.07497,76.2446,65,29,0
76.07497,76.2446,53,26,0
76.07497,76.2446,63,29,0
76.30115,76.49307,65,26,0
76.30115,76.49307,53,23,0
76.30115,76.49307,63,26,0
76.55974,76.9217,68,51,0
76.9217,77.037445,69,43,0
77.037445,77.15209,68,46,0
77.15209,77.26564,69,48,0
77.26564,77.49091,74,51,0
77.49091,77.659874,63,35,0
77.49091,77.71619,71,51,0
77.71619,77.89916,63,31,0
77.71619,77.96015,72,48,0
78.19787,78.37483,63,33,0
78.19787,78.37483,53,30,0
78.19787,78.37483,65,33,0
78.433266,78.60705,63,30,0
78.433266,78.60705,53,27,0
78.433266,78.60705,65,30,0
78.89358,79.06531,63,29,0
78.89358,79.06531,53,26,0
78.89358,79.06531,65,29,0
79.12255,79.31044,65,26,0
79.12255,79.31044,63,26,0
79.12255,79.31044,53,23,0
79.37307,79.73121,68,51,0
79.73121,79.848404,69,43,0
79.848404,79.96496,68,46,0
79.96496,80.0807,69,48,0
80.0807,80.31061,74,51,0
80.31061,80.48303,63,35,0
80.31061,80.54051,71,51,0
80.54051,80.72672,63,31,0
80.54051,80.788795,72,48,0
80.788795,81.27462,67,51,0
81.27462,81.52994,72,46,0
81.52994,81.77384,66,51,0
81.77384,81.95677,63,35,0
81.77384,81.95677,60,35,0
82.017746,82.21686,60,31,0
82.017746,82.21686,63,31,0
82.017746,82.28323,65,48,0
82.28323,82.79781,67,48,0
82.79781,83.08739,72,42,0
83.08739,83.366196,66,45,0
83.366196,83.59673,60,31,0
83.366196,83.59673,63,31,0
83.67358,83.92192,63,26,0
83.67358,83.92192,60,26,0
83.67358,84.0047,65,41,0
84.0047,84.74296,67,51,0
84.74296,85.224495,69,53,0
85.224495,85.46643,70,54,0
85.46643,86.16224,74,61,0
86.16224,86.6288,72,55,0
86.6288,86.86483,65,52,0
86.86483,87.55193,71,55,0
87.55193,88.00137,72,60,0
88.00137,88.23851,74,59,0
88.23851,88.91448,77,66,0
88.91448,89.36561,75,64,0
89.36561,89.60951,75,71,0
89.60951,90.306,76,77,0
90.306,90.76694,82,72,0
90.76694,91.00706,81,67,0
91.00706,91.712906,69,66,0
91.712906,92.17658,82,70,0
92.17658,92.42611,81,62,0
92.42611,93.1653,69,57,0
93.1653,93.65113,82,59,0
93.65113,93.90754,81,54,0
94.158585,94.41946,65,35,0
94.158585,94.41946,62,35,0
94.41946,94.68033,62,31,0
94.41946,94.68033,65,31,0
94.68033,94.9412,65,31,0
94.68033,94.9412,62,31,0
94.9412,95.19746,62,31,0
94.9412,95.19746,65,31,0
93.90754,95.19746,69,50,0
95.19746,95.44235,53,52,0
95.44235,96.14832,55,55,0
96.14832,96.61992,57,56,0
96.61992,96.859924,60,52,0
96.859924,97.54008,55,59,0
97.54008,97.99635,53,55,0
97.99635,98.23211,55,57,0
98.23211,98.91574,57,60,0
98.91574,99.36435,59,66,0
99.36435,99.60149,62,63,0
99.60149,100.2859,56,75,0
100.2859,100.74217,55,75,0
100.74217,100.99641,60,79,0
101.70939,102.18369,72,79,0
102.18369,102.429596,70,73,0
100.99641,102.429596,61,84,0
103.14609,103.62039,69,76,0
103.62039,103.86165,67,69,0
102.429596,103.86165,62,81,0
103.86165,104.33592,56,64,0
104.33592,104.59233,57,58,0
104.59233,105.06852,62,63,0
105.06852,105.32062,57,57,0
105.32062,106.084564,60,53,0
106.084564,106.6179,58,46,0
106.90636,107.385895,68,45,0
107.385895,107.63418,69,39,0
107.63418,108.11576,74,45,0
108.11576,108.370865,69,39,0
108.370865,109.09869,72,45,0
109.09869,109.835365,70,45,0
109.835365,110.580505,61,50,0
110.580505,111.33843,62,47,0
111.33843,112.10653,57,44,0
112.10653,112.885895,58,36,0
112.885895,113.37382,80,51,0
113.37382,113.62547,81,44,0
113.62547,114.11551,86,51,0
114.11551,114.37061,81,44,0
114.37061,115.116325,84,51,0
115.116325,115.861465,82,51,0
115.861465,116.62013,73,57,0
116.62013,117.38697,74,54,0
117.38697,118.16427,69,44,0
118.16427,118.94149,70,36,0
118.94149,119.71879,69,44,0
119.71879,120.50102,70,36,0
120.50102,121.29437,69,44,0
121.29437,122.13111,70,36,0
122.116806,123.28213,69,44,0
123.29526,123.454834,68,39,0
123.454834,123.61441,69,33,0
123.61441,123.77399,70,37,0
123.77399,123.933556,69,31,0
123.933556,124.70279,74,42,0
124.70279,125.24725,72,38,0
125.24725,126.79631,65,28,0
125.24725,126.79631,62,23,0
125.24725,126.79631,70,34,0
1.3308035,1.5615726,65,36,0
1.3308035,1.5615726,62,30,0
1.3308035,1.5615726,58,30,0
1.5615726,1.7987266,62,31,0
1.5615726,1.7987266,65,35,0
1.5615726,1.7987266,58,31,0
1.7987266,2.040662,62,28,0
1.7987266,2.040662,65,32,0
1.7987266,2.040662,58,28,0
2.040662,2.270547,58,31,0
2.040662,2.270547,65,35,0
2.040662,2.270547,62,31,0
2.270547,2.500432,58,24,0
2.270547,2.500432,65,32,0
2.270547,2.500432,62,24,0
2.9634805,3.1916175,57,30,0
2.9634805,3.1916175,63,36,0
2.9634805,3.1916175,65,36,0
3.1916175,3.4197545,65,36,0
3.1916175,3.4197545,57,30,0
3.1916175,3.4197545,63,36,0
3.4197545,3.6478915,63,36,0
3.4197545,3.6478915,65,36,0
3.4197545,3.6478915,57,30,0
3.6478915,3.8665228,65,36,0
3.6478915,3.8665228,57,30,0
3.6478915,3.8665228,63,36,0
4.3348336,4.5603976,65,36,0
4.3348336,4.5603976,56,30,0
4.3348336,4.5603976,62,30,0
4.5603976,4.7911663,62,30,0
4.5603976,4.7911663,65,36,0
4.5603976,4.7911663,56,30,0
4.7911663,5.0151873,62,33,0
4.7911663,5.0151873,65,40,0
4.7911663,5.0151873,56,33,0
5.0151873,5.2390676,62,33,0
5.0151873,5.2390676,65,40,0
5.0151873,5.2390676,56,33,0
5.7000837,5.9239645,60,38,0
5.7000837,5.9239645,63,47,0
5.7000837,5.9239645,55,38,0
5.9239645,6.147845,55,38,0
5.9239645,6.147845,63,47,0
5.9239645,6.147845,60,38,0
6.147845,6.371725,60,38,0
6.147845,6.371725,63,48,0
6.147845,6.371725,55,38,0
6.371725,6.595606,63,48,0
6.371725,6.595606,55,38,0
6.371725,6.595606,60,38,0
7.060495,7.2869096,61,49,0
7.060495,7.2869096,57,45,0
7.060495,7.2869096,55,44,0
7.060495,7.2869096,64,49,0
7.2869096,7.5338235,64,45,0
7.2869096,7.5338235,55,38,0
7.2869096,7.5338235,61,45,0
7.2869096,7.5338235,57,38,0
7.5338235,7.7628307,64,50,0
7.5338235,7.7628307,55,41,0
7.5338235,7.7628307,61,50,0
7.5338235,7.7628307,57,41,0
7.7628307,7.9918385,61,50,0
7.7628307,7.9918385,57,41,0
7.7628307,7.9918385,55,41,0
7.7628307,7.9918385,64,50,0
8.471111,8.705486,62,44,0
8.471111,8.705486,57,37,0
8.471111,8.705486,53,37,0
8.705486,8.953421,53,37,0
8.705486,8.953421,57,37,0
8.705486,8.953421,62,43,0
8.953421,9.189641,62,43,0
8.953421,9.189641,57,36,0
8.953421,9.189641,53,36,0
9.189641,9.425861,57,36,0
9.189641,9.425861,53,36,0
9.189641,9.425861,62,42,0
9.918926,10.15989,61,37,0
9.918926,10.15989,55,31,0
9.918926,10.15989,52,31,0
9.918926,10.15989,57,37,0
10.15989,10.414127,57,37,0
10.15989,10.414127,52,31,0
10.15989,10.414127,61,37,0
10.15989,10.414127,55,26,0
10.414127,10.656063,57,37,0
10.414127,10.656063,52,30,0
10.414127,10.656063,61,37,0
10.414127,10.656063,55,25,0
10.656063,10.897999,57,36,0
10.656063,10.897999,52,30,0
10.656063,10.897999,61,36,0
10.656063,10.897999,55,25,0
11.397999,11.656619,50,23,0
11.397999,11.656619,57,33,0
11.656619,11.915239,50,21,0
11.656619,11.915239,57,29,0
11.915239,12.173861,57,29,0
11.915239,12.173861,50,21,0
12.173861,12.430118,57,29,0
12.173861,12.430118,50,21,0
12.9179945,13.158958,65,35,0
12.9179945,13.158958,48,31,0
12.9179945,13.158958,63,35,0
12.9179945,13.158958,53,31,0
13.158958,13.39518,63,33,0
13.158958,13.39518,53,29,0
13.158958,13.39518,48,29,0
13.158958,13.39518,65,33,0
13.39518,13.628642,48,35,0
13.39518,13.628642,53,35,0
13.39518,13.628642,63,35,0
13.39518,13.628642,65,35,0
13.628642,13.866737,63,27,0
13.628642,13.866737,53,27,0
13.628642,13.866737,48,27,0
13.628642,13.866737,65,32,0
14.33887,14.568088,65,36,0
14.33887,14.568088,62,36,0
14.33887,14.568088,46,30,0
14.568088,14.797305,46,30,0
14.568088,14.797305,65,36,0
14.568088,14.797305,62,36,0
14.797305,15.026523,62,36,0
14.797305,15.026523,65,36,0
14.797305,15.026523,46,30,0
15.026523,15.25574,65,36,0
15.026523,15.25574,46,30,0
15.026523,15.25574,62,36,0
15.716884,15.943298,65,33,0
15.716884,15.943298,55,33,0
15.716884,15.943298,50,33,0
15.716884,15.943298,67,39,0
15.943298,16.17771,50,33,0
15.943298,16.17771,55,33,0
15.943298,16.17771,65,33,0
15.943298,16.17771,67,39,0
16.17771,16.406927,50,36,0
16.17771,16.406927,55,36,0
16.17771,16.406927,65,36,0
16.17771,16.406927,67,42,0
16.406927,16.636145,50,36,0
16.406927,16.636145,55,36,0
16.406927,16.636145,65,36,0
16.406927,16.636145,67,44,0
17.099695,17.32611,63,51,0
17.099695,17.32611,48,41,0
17.099695,17.32611,60,41,0
17.32611,17.552525,60,41,0
17.32611,17.552525,63,52,0
17.32611,17.552525,48,41,0
17.552525,17.77894,63,52,0
17.552525,17.77894,48,41,0
17.552525,17.77894,60,41,0
17.77894,17.995922,60,42,0
17.77894,17.995922,63,53,0
17.77894,17.995922,48,42,0
18.484539,18.716198,58,57,0
18.484539,18.716198,64,57,0
18.484539,18.716198,55,46,0
18.716198,18.954672,55,39,0
18.716198,18.954672,64,47,0
18.716198,18.954672,58,47,0
18.954672,19.188135,58,52,0
18.954672,19.188135,64,52,0
18.954672,19.188135,55,43,0
19.188135,19.421598,64,52,0
19.188135,19.421598,55,43,0
19.188135,19.421598,58,52,0
19.900171,20.135466,58,38,0
19.900171,20.135466,53,38,0
19.900171,20.135466,65,46,0
20.135466,20.381367,58,38,0
20.135466,20.381367,53,38,0
20.135466,20.381367,65,46,0
20.381367,20.61852,53,38,0
20.381367,20.61852,58,38,0
20.381367,20.61852,65,46,0
20.61852,20.855675,65,46,0
20.61852,20.855675,58,38,0
20.61852,20.855675,53,38,0
21.344637,21.584639,51,38,0
21.344637,21.584639,41,38,0
21.584639,21.838875,41,31,0
21.584639,21.838875,51,38,0
22.075096,22.311316,50,37,0
22.075096,22.311316,42,30,0
22.311316,22.556915,50,36,0
22.311316,22.556915,42,30,0
22.802515,23.056753,55,36,0
22.802515,23.056753,50,33,0
22.802515,23.056753,43,28,0
23.056753,23.31099,50,29,0
23.056753,23.31099,55,32,0
23.056753,23.31099,43,25,0
23.31099,23.565228,43,25,0
23.31099,23.565228,50,29,0
23.31099,23.565228,55,32,0
23.565228,23.819466,50,29,0
23.565228,23.819466,55,32,0
23.565228,23.819466,43,25,0
24.301462,24.539558,48,28,0
24.301462,24.539558,53,28,0
24.301462,24.539558,63,32,0
24.301462,24.539558,65,32,0
24.539558,24.77264,53,27,0
24.539558,24.77264,48,27,0
24.539558,24.77264,63,30,0
24.539558,24.77264,65,30,0
24.77264,25.001858,63,32,0
24.77264,25.001858,53,28,0
24.77264,25.001858,48,28,0
24.77264,25.001858,65,32,0
25.001858,25.237614,53,27,0
25.001858,25.237614,48,27,0
25.001858,25.237614,63,30,0
25.001858,25.237614,65,30,0
25.708788,25.936062,46,30,0
25.708788,25.936062,58,36,0
25.708788,25.936062,62,36,0
25.936062,26.163334,62,36,0
25.936062,26.163334,46,30,0
25.936062,26.163334,58,36,0
26.163334,26.390606,58,36,0
26.163334,26.390606,62,36,0
26.163334,26.390606,46,30,0
26.390606,26.617878,62,36,0
26.390606,26.617878,46,30,0
26.390606,26.617878,58,36,0
27.080908,27.30818,65,33,0
27.080908,27.30818,55,33,0
27.080908,27.30818,50,33,0
27.080908,27.30818,67,39,0
27.30818,27.542591,50,33,0
27.30818,27.542591,55,33,0
27.30818,27.542591,65,33,0
27.30818,27.542591,67,39,0
27.542591,27.769007,50,36,0
27.542591,27.769007,55,36,0
27.542591,27.769007,65,36,0
27.542591,27.769007,67,44,0
27.769007,27.995422,50,37,0
27.769007,27.995422,55,37,0
27.769007,27.995422,65,37,0
27.769007,27.995422,67,44,0
28.463026,28.693493,60,41,0
28.463026,28.693493,63,51,0
28.463026,28.693493,48,41,0
28.693493,28.923962,60,41,0
28.693493,28.923962,63,52,0
28.693493,28.923962,48,41,0
28.923962,29.154428,63,52,0
28.923962,29.154428,48,41,0
28.923962,29.154428,60,41,0
29.154428,29.375294,48,42,0
29.154428,29.375294,63,53,0
29.154428,29.375294,60,42,0
29.878462,30.115616,55,44,0
29.878462,30.115616,64,55,0
29.878462,30.115616,58,55,0
30.115616,30.361517,64,49,0
30.115616,30.361517,55,41,0
30.115616,30.361517,58,49,0
30.361517,30.599613,58,55,0
30.361517,30.599613,64,55,0
30.361517,30.599613,55,45,0
30.599613,30.837708,64,55,0
30.599613,30.837708,55,45,0
30.599613,30.837708,58,55,0
31.321861,31.558083,58,40,0
31.321861,31.558083,53,40,0
31.321861,31.558083,65,48,0
31.558083,31.80298,65,48,0
31.558083,31.80298,58,40,0
31.558083,31.80298,53,40,0
31.80298,32.040134,58,40,0
31.80298,32.040134,53,40,0
31.80298,32.040134,65,48,0
32.040134,32.277287,65,48,0
32.040134,32.277287,58,40,0
32.040134,32.277287,53,40,0
32.76939,33.009388,51,36,0
32.76939,33.009388,48,36,0
33.009388,33.263626,51,36,0
33.009388,33.263626,48,30,0
33.506542,33.747433,57,36,0
33.506542,33.74946,51,36,0
33.506542,33.74946,41,30,0
33.506542,33.74946,53,36,0
33.74946,33.99739,53,36,0
33.74946,33.99739,41,30,0
33.74946,33.99739,51,36,0
34.25163,34.505867,51,36,0
34.25163,34.505867,57,36,0
34.25163,34.505867,54,36,0
34.25163,34.505867,46,28,0
34.505867,34.765606,46,24,0
34.505867,34.765606,54,32,0
34.505867,34.765606,51,32,0
34.505867,34.765606,57,32,0
34.765606,35.031094,51,32,0
35.031094,35.296577,49,32,0
34.765606,35.296577,46,24,0
34.765606,35.296577,53,29,0
35.296577,35.573154,50,32,0
35.81501,36.051735,58,31,0
35.81501,36.051735,65,36,0
35.81501,36.051735,55,31,0
36.051735,36.28249,58,31,0
36.051735,36.28249,55,31,0
36.051735,36.28249,65,36,0
36.524345,36.75617,55,34,0
36.524345,36.75617,45,34,0
36.75617,36.991104,45,34,0
36.75617,36.991104,55,34,0
37.22101,37.33502,57,36,0
37.22101,37.33502,53,30,0
37.22101,37.33502,62,36,0
37.448414,37.561203,50,30,0
37.673386,37.78497,65,44,0
37.673386,37.78497,57,44,0
37.673386,37.78497,62,44,0
37.89596,38.006367,50,40,0
38.116776,38.244328,69,50,0
38.116776,38.244328,62,42,0
38.116776,38.244328,65,42,0
38.60085,38.832672,65,36,0
38.60085,38.832672,55,31,0
38.60085,38.832672,58,31,0
38.832672,39.06148,55,31,0
38.832672,39.06148,65,36,0
38.832672,39.06148,58,31,0
39.303253,39.535072,45,34,0
39.303253,39.535072,55,34,0
39.535072,39.77001,55,34,0
39.535072,39.77001,45,34,0
39.999916,40.113922,62,36,0
39.999916,40.113922,57,36,0
39.999916,40.113922,53,30,0
40.22732,40.340107,50,30,0
40.45229,40.5638,62,44,0
40.45229,40.5638,65,44,0
40.45229,40.5638,57,44,0
40.676907,40.78731,50,38,0
40.89772,41.02243,65,43,0
40.89772,41.02243,69,51,0
40.89772,41.02243,62,43,0
41.374237,41.60508,58,31,0
41.374237,41.60508,65,36,0
41.374237,41.60508,55,31,0
41.60508,41.83002,65,36,0
41.60508,41.83002,55,31,0
41.60508,41.83002,58,31,0
42.069706,42.299606,45,34,0
42.069706,42.299606,55,34,0
42.299606,42.534546,45,34,0
42.299606,42.534546,55,34,0
42.76445,42.87772,57,36,0
42.76445,42.87772,53,30,0
42.76445,42.87772,62,36,0
42.99015,43.101883,50,30,0
43.212788,43.323082,57,44,0
43.212788,43.323082,65,44,0
43.212788,43.323082,62,44,0
43.433376,43.5434,50,40,0
43.65329,43.778553,65,42,0
43.65329,43.778553,69,50,0
43.65329,43.778553,62,42,0
44.13757,44.371323,58,31,0
44.13757,44.371323,65,36,0
44.13757,44.371323,55,31,0
44.371323,44.600132,58,31,0
44.371323,44.600132,55,31,0
44.371323,44.600132,65,36,0
44.8419,45.073723,55,34,0
44.8419,45.073723,45,34,0
45.073723,45.30866,45,34,0
45.073723,45.30866,55,34,0
45.538567,45.652573,57,36,0
45.538567,45.652573,53,30,0
45.538567,45.652573,62,36,0
45.76597,45.878757,50,30,0
45.99094,46.10245,65,44,0
45.99094,46.10245,57,44,0
45.99094,46.10245,62,44,0
46.215553,46.325962,50,38,0
46.43637,46.55888,69,51,0
46.43637,46.55888,62,43,0
46.43637,46.55888,65,43,0
46.913208,47.03273,66,46,0
46.913208,47.03273,62,34,0
46.913208,47.03273,60,34,0
46.913208,47.03273,70,46,0
47.152252,47.273712,62,28,0
47.152252,47.273712,60,28,0
47.152252,47.273712,66,39,0
47.152252,47.273712,69,39,0
47.62892,47.7458,69,44,0
47.62892,47.7458,58,40,0
47.62892,47.7458,62,40,0
47.862675,47.98256,62,34,0
47.862675,47.98256,67,39,0
47.862675,47.98256,58,34,0
48.33522,48.451607,58,44,0
48.33522,48.451607,55,40,0
48.566402,48.680042,55,36,0
48.566402,48.680042,58,41,0
49.014694,49.125805,48,41,0
49.014694,49.125805,41,36,0
49.236916,49.362175,48,37,0
49.236916,49.362175,41,33,0
49.72216,49.840736,67,46,0
49.72216,49.840736,56,41,0
49.72216,49.840736,62,46,0
49.959316,50.081264,56,34,0
49.959316,50.081264,65,39,0
49.959316,50.081264,62,39,0
50.43697,50.55385,65,44,0
50.43697,50.55385,55,40,0
50.43697,50.55385,62,40,0
50.670727,50.79061,55,34,0
50.670727,50.79061,64,39,0
50.670727,50.79061,62,34,0
51.14327,51.259655,55,44,0
51.14327,51.259655,52,40,0
51.374454,51.48862,52,36,0
51.374454,51.48862,55,41,0
51.827293,51.93993,50,41,0
51.827293,51.93993,46,36,0
52.052567,52.17783,46,33,0
52.052567,52.17783,50,37,0
52.30309,52.779346,64,66,0
52.779346,53.02626,52,40,0
53.263416,53.50057,61,40,0
53.263416,53.50057,67,44,0
53.263416,53.50057,57,40,0
53.50057,53.743484,67,39,0
53.50057,53.743484,57,34,0
53.50057,53.743484,61,34,0
53.743484,54.219704,64,66,0
54.219704,54.464603,52,40,0
54.701756,54.93891,67,44,0
54.701756,54.93891,57,40,0
54.701756,54.93891,61,40,0
54.93891,55.184814,57,34,0
54.93891,55.184814,67,39,0
54.93891,55.184814,61,34,0
55.431725,55.91375,58,39,0
55.431725,55.91375,55,36,0
55.431725,55.91375,62,39,0
56.161682,56.69506,58,32,0
56.161682,56.69506,62,36,0
56.161682,56.69506,52,32,0
56.69506,57.079674,40,46,0
57.079674,57.204155,39,40,0
57.204155,57.328636,40,42,0
57.328636,57.468174,43,44,0
57.468174,58.02892,46,46,0
58.02892,58.38395,45,43,0
58.643692,58.885628,58,31,0
58.643692,58.885628,65,36,0
58.643692,58.885628,55,31,0
58.885628,59.116383,58,31,0
58.885628,59.116383,55,31,0
58.885628,59.116383,65,36,0
59.362637,59.598858,55,34,0
59.362637,59.598858,45,34,0
59.598858,59.83733,45,34,0
59.598858,59.83733,55,34,0
60.067234,60.181244,57,36,0
60.067234,60.181244,53,30,0
60.067234,60.181244,62,36,0
60.29464,60.40743,50,30,0
60.51961,60.631195,65,44,0
60.51961,60.631195,57,44,0
60.51961,60.631195,62,44,0
60.742188,60.852596,50,40,0
60.963,61.090553,69,50,0
60.963,61.090553,62,50,0
60.963,61.090553,65,50,0
61.44708,61.67985,65,36,0
61.44708,61.67985,55,31,0
61.44708,61.67985,58,31,0
61.67985,61.90866,58,31,0
61.67985,61.90866,55,31,0
61.67985,61.90866,65,36,0
62.150433,62.38225,55,34,0
62.150433,62.38225,45,34,0
62.38225,62.61719,55,34,0
62.38225,62.61719,45,34,0
62.847095,62.96002,53,30,0
62.847095,62.96002,57,36,0
62.847095,62.96002,62,36,0
63.07189,63.182594,50,30,0
63.29289,63.40344,57,44,0
63.29289,63.40344,65,44,0
63.29289,63.40344,62,44,0
63.516544,63.62695,50,38,0
63.73736,63.859867,62,43,0
63.73736,63.859867,69,51,0
63.73736,63.859867,65,43,0
64.21322,64.44405,55,31,0
64.21322,64.44405,65,36,0
64.21322,64.44405,58,31,0
64.44405,64.669,55,31,0
64.44405,64.669,65,36,0
64.44405,64.669,58,31,0
64.90868,65.13859,45,34,0
64.90868,65.13859,55,34,0
65.13859,65.37322,45,34,0
65.13859,65.37322,55,34,0
65.59993,65.71264,62,36,0
65.59993,65.71264,57,36,0
65.59993,65.71264,53,30,0
65.82486,65.93666,50,30,0
66.04805,66.15915,62,44,0
66.04805,66.15915,65,44,0
66.04805,66.15915,57,44,0
66.27014,66.38055,50,40,0
66.49096,66.61622,65,42,0
66.49096,66.61622,69,50,0
66.49096,66.61622,62,42,0
66.9733,67.207054,58,31,0
66.9733,67.207054,65,36,0
66.9733,67.207054,55,31,0
67.207054,67.43587,58,31,0
67.207054,67.43587,55,31,0
67.207054,67.43587,65,36,0
67.677635,67.909454,55,34,0
67.677635,67.909454,45,34,0
67.909454,68.144394,45,34,0
67.909454,68.144394,55,34,0
68.3743,68.488304,57,36,0
68.3743,68.488304,53,30,0
68.3743,68.488304,62,36,0
68.6017,68.71449,50,30,0
68.826675,68.93818,62,44,0
68.826675,68.93818,65,44,0
68.826675,68.93818,57,44,0
69.051285,69.1617,50,38,0
69.2721,69.39461,65,43,0
69.2721,69.39461,69,51,0
69.2721,69.39461,62,43,0
69.74894,69.8673,70,46,0
69.74894,69.8673,60,34,0
69.74894,69.8673,66,46,0
69.74894,69.8673,62,34,0
69.985664,70.10912,66,39,0
69.985664,70.10912,69,39,0
69.985664,70.10912,60,28,0
69.985664,70.10912,62,28,0
70.46633,70.583206,62,40,0
70.46633,70.583206,69,44,0
70.46633,70.583206,58,40,0
70.70009,70.81997,67,39,0
70.70009,70.81997,62,34,0
70.70009,70.81997,58,34,0
71.17263,71.28902,58,44,0
71.17263,71.28902,55,40,0
71.40382,71.51798,58,41,0
71.40382,71.51798,55,36,0
71.85665,71.96929,41,36,0
71.85665,71.96929,48,41,0
72.08193,72.20719,41,33,0
72.08193,72.20719,48,37,0
72.56718,72.690125,67,43,0
72.56718,72.690125,58,32,0
72.56718,72.690125,62,43,0
72.56718,72.690125,56,32,0
72.81308,72.93296,62,36,0
72.81308,72.93296,65,36,0
72.81308,72.93296,58,26,0
72.81308,72.93296,56,26,0
73.2866,73.40471,58,36,0
73.2866,73.40471,65,40,0
73.2866,73.40471,55,30,0
73.52282,73.64379,63,35,0
73.52282,73.64379,58,30,0
73.52282,73.64379,55,25,0
73.99753,74.113914,56,39,0
73.99753,74.113914,53,36,0
74.228714,74.34288,56,36,0
74.228714,74.34288,53,32,0
74.68156,74.79419,60,35,0
74.68156,74.79419,48,31,0
74.68156,74.79419,55,31,0
74.90683,75.028275,55,28,0
74.90683,75.028275,60,31,0
74.90683,75.028275,48,28,0
75.14973,75.504715,44,51,0
75.504715,75.62029,45,43,0
75.62029,75.73494,44,46,0
75.73494,75.84879,45,48,0
75.84879,76.07497,50,51,0
76.07497,76.30115,47,42,0
76.30115,76.55974,48,48,0
76.80265,76.97966,60,36,0
76.80265,76.97966,54,36,0
76.80265,76.97966,63,39,0
77.037445,77.209015,63,36,0
77.037445,77.209015,54,32,0
77.037445,77.209015,60,32,0
77.49091,77.659874,53,31,0
77.49091,77.659874,57,35,0
77.71619,77.89916,53,28,0
77.71619,77.89916,57,31,0
77.96015,78.31623,44,51,0
78.31623,78.433266,45,43,0
78.433266,78.54934,44,46,0
78.54934,78.664604,45,48,0
78.664604,78.89358,50,51,0
78.89358,79.12255,47,42,0
79.12255,79.37307,48,48,0
79.611824,79.78989,60,36,0
79.611824,79.78989,54,36,0
79.611824,79.78989,63,39,0
79.848404,80.02291,63,36,0
79.848404,80.02291,54,32,0
79.848404,80.02291,60,32,0
80.31061,80.48303,53,31,0
80.31061,80.48303,57,35,0
80.54051,80.72672,53,28,0
80.54051,80.72672,57,31,0
81.03171,81.21389,63,39,0
81.03171,81.21389,60,36,0
81.03171,81.21389,58,36,0
81.27462,81.46611,58,27,0
81.27462,81.46611,63,30,0
81.27462,81.46611,60,27,0
81.77384,81.95677,53,31,0
81.77384,81.95677,57,35,0
82.017746,82.21686,57,31,0
82.017746,82.21686,53,28,0
82.54052,82.73349,60,33,0
82.54052,82.73349,58,33,0
82.54052,82.73349,63,36,0
82.79781,83.01499,60,24,0
82.79781,83.01499,63,28,0
82.79781,83.01499,58,24,0
83.366196,83.59673,57,26,0
83.366196,83.59673,53,22,0
83.67358,83.92192,57,22,0
83.67358,83.92192,53,20,0
84.24742,84.49825,65,35,0
84.24742,84.49825,58,31,0
84.24742,84.49825,62,31,0
84.49825,84.74296,65,32,0
84.49825,84.74296,58,28,0
84.49825,84.74296,62,28,0
84.74296,84.98373,62,30,0
84.74296,84.98373,65,34,0
84.74296,84.98373,58,30,0
84.98373,85.224495,65,32,0
84.98373,85.224495,58,28,0
84.98373,85.224495,62,28,0
85.70247,85.93235,63,36,0
85.70247,85.93235,57,30,0
85.70247,85.93235,65,36,0
85.93235,86.16224,65,36,0
85.93235,86.16224,57,30,0
85.93235,86.16224,63,36,0
86.16224,86.395515,57,30,0
86.16224,86.395515,65,36,0
86.16224,86.395515,63,36,0
86.395515,86.61908,63,36,0
86.395515,86.61908,65,36,0
86.395515,86.61908,57,30,0
87.0921,87.31938,62,30,0
87.0921,87.31938,65,36,0
87.0921,87.31938,56,30,0
87.31938,87.55193,62,30,0
87.31938,87.55193,65,36,0
87.31938,87.55193,56,30,0
87.55193,87.77666,62,33,0
87.55193,87.77666,65,40,0
87.55193,87.77666,56,33,0
87.77666,88.00137,56,33,0
87.77666,88.00137,65,40,0
87.77666,88.00137,62,33,0
88.459915,88.68892,55,38,0
88.459915,88.68892,63,47,0
88.459915,88.68892,60,38,0
88.68892,88.91448,63,47,0
88.68892,88.91448,55,38,0
88.68892,88.91448,60,38,0
88.91448,89.140045,60,38,0
88.91448,89.140045,63,48,0
88.91448,89.140045,55,38,0
89.140045,89.36561,63,48,0
89.140045,89.36561,55,38,0
89.140045,89.36561,60,38,0
89.838524,90.06753,61,55,0
89.838524,90.06753,57,44,0
89.838524,90.06753,55,44,0
89.838524,90.06753,64,55,0
90.06753,90.306,55,41,0
90.06753,90.306,57,41,0
90.06753,90.306,61,49,0
90.06753,90.306,64,49,0
90.306,90.53647,55,45,0
90.306,90.53647,57,45,0
90.306,90.53647,61,55,0
90.306,90.53647,64,55,0
90.53647,90.76694,55,45,0
90.53647,90.76694,57,45,0
90.53647,90.76694,61,55,0
90.53647,90.76694,64,55,0
91.24003,91.473,57,38,0
91.24003,91.473,53,38,0
91.24003,91.473,62,46,0
91.473,91.712906,62,46,0
91.473,91.712906,57,38,0
91.473,91.712906,53,38,0
91.712906,91.94475,57,38,0
91.712906,91.94475,53,38,0
91.712906,91.94475,62,46,0
91.94475,92.17658,53,38,0
91.94475,92.17658,57,38,0
91.94475,92.17658,62,45,0
92.668045,92.90998,52,31,0
92.668045,92.90998,55,38,0
92.668045,92.90998,61,38,0
92.668045,92.90998,57,38,0
92.90998,93.1653,55,31,0
92.90998,93.1653,52,31,0
92.90998,93.1653,61,37,0
92.90998,93.1653,57,37,0
93.1653,93.40822,55,31,0
93.1653,93.40822,52,31,0
93.1653,93.40822,61,37,0
93.1653,93.40822,57,37,0
93.40822,93.65113,55,30,0
93.40822,93.65113,52,30,0
93.40822,93.65113,61,37,0
93.40822,93.65113,57,37,0
94.158585,94.41946,50,23,0
94.158585,94.41946,57,33,0
94.41946,94.68033,57,29,0
94.41946,94.68033,50,21,0
94.68033,94.9412,57,29,0
94.68033,94.9412,50,21,0
94.9412,95.19746,50,21,0
94.9412,95.19746,57,29,0
95.679504,95.91116,53,31,0
95.679504,95.91116,48,31,0
95.679504,95.91116,63,35,0
95.679504,95.91116,65,35,0
95.91116,96.14832,63,32,0
95.91116,96.14832,53,28,0
95.91116,96.14832,48,28,0
95.91116,96.14832,65,32,0
96.14832,96.380875,65,35,0
96.14832,96.380875,48,31,0
96.14832,96.380875,63,35,0
96.14832,96.380875,53,31,0
96.380875,96.61992,63,33,0
96.380875,96.61992,53,29,0
96.380875,96.61992,48,29,0
96.380875,96.61992,65,33,0
97.08806,97.311935,62,36,0
97.08806,97.311935,58,36,0
97.08806,97.311935,46,30,0
97.311935,97.54008,58,36,0
97.311935,97.54008,62,36,0
97.311935,97.54008,46,30,0
97.54008,97.76821,62,36,0
97.54008,97.76821,46,30,0
97.54008,97.76821,58,36,0
97.76821,97.99635,46,30,0
97.76821,97.99635,62,36,0
97.76821,97.99635,58,36,0
98.45828,98.68133,50,33,0
98.45828,98.68133,55,33,0
98.45828,98.68133,65,33,0
98.45828,98.68133,67,40,0
98.68133,98.91574,65,34,0
98.68133,98.91574,55,34,0
98.68133,98.91574,50,34,0
98.68133,98.91574,67,40,0
98.91574,99.141304,55,37,0
98.91574,99.141304,50,37,0
98.91574,99.141304,65,37,0
98.91574,99.141304,67,45,0
99.141304,99.36435,65,38,0
99.141304,99.36435,55,38,0
99.141304,99.36435,50,38,0
99.141304,99.36435,67,46,0
99.82963,100.05776,60,44,0
99.82963,100.05776,63,55,0
99.82963,100.05776,48,44,0
100.05776,100.2859,60,45,0
100.05776,100.2859,63,56,0
100.05776,100.2859,48,45,0
100.2859,100.51404,63,57,0
100.2859,100.51404,48,45,0
100.2859,100.51404,60,45,0
100.51404,100.732666,48,42,0
100.51404,100.732666,63,53,0
100.51404,100.732666,60,42,0
101.22718,101.46247,55,50,0
101.22718,101.46247,64,63,0
101.22718,101.46247,58,63,0
101.46247,101.70939,64,51,0
101.46247,101.70939,55,44,0
101.46247,101.70939,58,51,0
101.70939,101.94654,58,57,0
101.70939,101.94654,64,57,0
101.70939,101.94654,55,47,0
101.94654,102.18369,64,57,0
101.94654,102.18369,55,47,0
101.94654,102.18369,58,57,0
102.66489,102.900185,58,42,0
102.66489,102.900185,53,42,0
102.66489,102.900185,65,50,0
102.900185,103.14609,65,50,0
102.900185,103.14609,58,42,0
102.900185,103.14609,53,42,0
103.14609,103.38324,58,42,0
103.14609,103.38324,53,42,0
103.14609,103.38324,65,50,0
103.38324,103.62039,65,50,0
103.38324,103.62039,58,42,0
103.38324,103.62039,53,42,0
104.098785,104.33592,51,42,0
104.098785,104.33592,48,42,0
104.33592,104.59233,51,41,0
104.33592,104.59233,48,34,0
104.83042,105.066536,57,40,0
104.83042,105.06852,51,40,0
104.83042,105.06852,41,33,0
104.83042,105.06852,53,40,0
105.06852,105.32062,53,39,0
105.06852,105.32062,41,32,0
105.06852,105.32062,51,39,0
105.57272,105.82482,51,37,0
105.57272,105.82482,57,37,0
105.57272,105.82482,54,37,0
105.57272,105.82482,46,34,0
105.82482,106.084564,54,32,0
105.82482,106.084564,57,32,0
105.82482,106.084564,51,32,0
105.82482,106.084564,46,29,0
106.084564,106.35123,51,32,0
106.35123,106.6179,49,32,0
106.084564,106.6179,53,29,0
106.084564,106.6179,46,29,0
106.6179,106.90636,50,32,0
107.146126,107.32596,60,27,0
107.146126,107.32596,54,27,0
107.146126,107.32596,63,30,0
107.385895,107.57211,63,27,0
107.385895,107.57211,54,24,0
107.385895,107.57211,60,24,0
107.63418,107.81477,62,31,0
107.63418,107.81477,60,27,0
107.63418,107.81477,54,27,0
107.87497,108.055565,54,25,0
107.87497,108.055565,60,25,0
107.87497,108.055565,62,28,0
108.610634,108.79046,62,30,0
108.610634,108.79046,58,27,0
108.610634,108.79046,55,27,0
108.8504,109.03661,58,24,0
108.8504,109.03661,62,27,0
108.8504,109.03661,55,24,0
109.33948,109.520065,58,27,0
109.33948,109.520065,63,31,0
109.33948,109.520065,55,27,0
109.58026,109.77159,55,25,0
109.58026,109.77159,63,28,0
109.58026,109.77159,58,25,0
110.08038,110.264145,54,27,0
110.08038,110.264145,58,27,0
110.08038,110.264145,64,30,0
110.3254,110.51673,64,27,0
110.3254,110.51673,54,24,0
110.3254,110.51673,58,24,0
110.827705,111.0131,65,31,0
110.827705,111.0131,53,27,0
110.827705,111.0131,58,27,0
111.0749,111.272545,65,28,0
111.0749,111.272545,53,25,0
111.0749,111.272545,58,25,0
111.84174,112.10653,51,27,0
111.84174,112.10653,54,27,0
112.614395,112.885895,46,20,0
112.614395,112.885895,53,26,0
112.614395,112.885895,50,20,0
113.12985,113.31283,66,24,0
113.12985,113.31283,72,24,0
113.12985,113.31283,75,27,0
113.37382,113.56256,75,24,0
113.37382,113.56256,66,21,0
113.37382,113.56256,72,21,0
113.87049,114.05425,72,24,0
113.87049,114.05425,74,27,0
113.87049,114.05425,66,24,0
114.11551,114.30683,66,22,0
114.11551,114.30683,74,25,0
114.11551,114.30683,72,22,0
114.62061,114.802795,67,24,0
114.62061,114.802795,70,24,0
114.62061,114.802795,74,27,0
114.863525,115.05312,74,24,0
114.863525,115.05312,67,21,0
114.863525,115.05312,70,21,0
115.36134,115.545105,75,27,0
115.36134,115.545105,67,24,0
115.36134,115.545105,70,24,0
115.60636,115.79769,75,25,0
115.60636,115.79769,67,22,0
115.60636,115.79769,70,22,0
116.110886,116.29794,70,24,0
116.110886,116.29794,66,24,0
116.110886,116.29794,76,27,0
116.3603,116.555176,70,21,0
116.3603,116.555176,76,24,0
116.3603,116.555176,66,21,0
116.87179,117.06053,70,24,0
116.87179,117.06053,77,27,0
116.87179,117.06053,65,24,0
117.12344,117.32109,70,22,0
117.12344,117.32109,77,25,0
117.12344,117.32109,65,22,0
117.89948,118.16427,66,24,0
117.89948,118.16427,63,24,0
118.6792,118.94149,65,23,0
118.6792,118.94149,58,18,0
118.6792,118.94149,62,18,0
119.454,119.71879,63,24,0
119.454,119.71879,66,24,0
120.23372,120.50102,58,18,0
120.23372,120.50102,65,23,0
120.23372,120.50102,62,18,0
121.02317,121.29437,63,24,0
121.02317,121.29437,66,24,0
121.81894,122.13111,62,18,0
121.81894,122.13111,65,23,0
121.81894,122.13111,58,18,0
123.00878,123.933556,63,24,0
123.00878,123.933556,66,24,0
125.24725,126.79631,46,18,0
125.24725,126.79631,53,22,0
