start_time,end_time,note_value,velocity,instrument_program_number
0.645404,0.7946575,71,49,0
0.645404,0.7946575,66,45,0
0.7946575,0.943911,65,46,0
0.943911,1.243163,71,49,0
0.943911,1.243163,66,45,0
1.243163,1.395819,70,49,0
1.243163,1.395819,64,45,0
1.547908,1.697534,67,49,0
1.547908,1.697534,62,45,0
1.697534,1.8471599,61,45,0
1.8471599,2.147912,62,45,0
1.8471599,2.147912,67,49,0
2.147912,2.3013644,66,47,0
2.147912,2.3013644,61,44,0
2.4548168,2.6044428,66,49,0
2.4548168,2.6044428,60,45,0
2.6044428,2.7540689,59,46,0
2.7540689,3.0555768,66,49,0
2.7540689,3.0555768,60,45,0
3.0555768,3.2054944,59,43,0
3.0555768,3.2054944,64,46,0
3.355412,3.506492,58,45,0
3.355412,3.506492,64,49,0
3.657572,3.808652,62,52,0
3.657572,3.808652,58,47,0
3.9597318,4.1108117,61,50,0
3.9597318,4.1108117,58,45,0
4.1108117,4.2626724,59,47,0
4.7179275,4.7934675,71,47,0
4.7179275,4.7934675,74,47,0
4.7179275,4.7934675,62,47,0
4.8690076,4.9445477,64,49,0
4.8690076,4.9445477,71,49,0
4.8690076,4.9445477,74,49,0
5.0200872,5.096018,65,46,0
5.0200872,5.096018,71,46,0
5.0200872,5.096018,74,46,0
5.625188,5.701118,59,45,0
5.625188,5.701118,66,45,0
5.625188,5.701118,56,45,0
5.7770486,5.8529787,64,46,0
5.7770486,5.8529787,58,46,0
5.7770486,5.8529787,61,46,0
5.928909,6.005036,62,46,0
5.928909,6.005036,59,46,0
6.532858,6.608398,62,47,0
6.532858,6.608398,71,47,0
6.532858,6.608398,74,47,0
6.683938,6.759478,71,49,0
6.683938,6.759478,64,49,0
6.683938,6.759478,74,49,0
6.8350177,6.911346,74,45,0
6.8350177,6.911346,71,45,0
6.8350177,6.911346,65,45,0
7.440914,7.5168443,56,47,0
7.440914,7.5168443,59,47,0
7.440914,7.5168443,66,47,0
7.5927744,7.6687045,58,46,0
7.5927744,7.6687045,61,46,0
7.5927744,7.6687045,64,46,0
7.744635,7.8691163,62,46,0
7.744635,7.8691163,59,46,0
7.9935975,8.142851,71,49,0
7.9935975,8.142851,66,45,0
8.142851,8.292105,65,46,0
8.292105,8.591356,71,49,0
8.292105,8.591356,66,45,0
8.591356,8.744013,64,45,0
8.591356,8.744013,70,49,0
8.896668,9.045922,67,49,0
8.896668,9.045922,62,45,0
9.045922,9.195175,61,45,0
9.195175,9.495175,67,49,0
9.195175,9.495175,62,45,0
9.495175,9.648628,66,47,0
9.495175,9.648628,61,44,0
9.80208,9.951707,60,45,0
9.80208,9.951707,66,49,0
9.951707,10.101333,59,46,0
10.101333,10.402841,60,45,0
10.101333,10.402841,66,49,0
10.402841,10.552758,64,46,0
10.402841,10.552758,59,43,0
10.702676,10.853755,64,49,0
10.702676,10.853755,58,45,0
11.004835,11.155915,62,52,0
11.004835,11.155915,58,47,0
11.306995,11.458076,58,45,0
11.306995,11.458076,61,50,0
11.458076,11.609936,59,47,0
12.065191,12.140731,74,47,0
12.065191,12.140731,71,47,0
12.065191,12.140731,62,47,0
12.21627,12.291811,64,49,0
12.21627,12.291811,71,49,0
12.21627,12.291811,74,49,0
12.367351,12.443281,65,46,0
12.367351,12.443281,71,46,0
12.367351,12.443281,74,46,0
12.972451,13.048382,56,45,0
12.972451,13.048382,59,45,0
12.972451,13.048382,66,45,0
13.124311,13.200242,58,44,0
13.124311,13.200242,61,44,0
13.124311,13.200242,64,44,0
13.276173,13.352299,62,46,0
13.276173,13.352299,59,46,0
13.880121,13.955662,74,50,0
13.880121,13.955662,62,50,0
13.880121,13.955662,71,50,0
14.031201,14.106741,74,53,0
14.031201,14.106741,71,53,0
14.031201,14.106741,64,53,0
14.1822815,14.487191,74,58,0
14.1822815,14.487191,71,58,0
14.1822815,14.487191,65,58,0
14.487191,14.792498,73,62,0
14.487191,14.792498,71,62,0
14.487191,14.792498,65,62,0
14.792498,15.097836,77,68,0
14.792498,15.097836,73,68,0
14.792498,15.097836,71,68,0
15.097836,15.285336,70,69,0
15.097836,15.285336,73,69,0
15.097836,15.285336,78,69,0
15.347836,15.496719,78,45,0
15.347836,15.496719,83,49,0
15.496719,15.645602,77,46,0
15.645602,15.944855,83,49,0
15.645602,15.944855,78,45,0
15.944855,16.097511,82,49,0
15.944855,16.097511,76,45,0
16.250166,16.39942,79,49,0
16.250166,16.39942,74,45,0
16.39942,16.548674,73,45,0
16.548674,16.849426,79,49,0
16.548674,16.849426,74,45,0
16.849426,17.002878,78,47,0
16.849426,17.002878,73,44,0
17.162878,17.310297,78,69,0
17.162878,17.310297,72,62,0
17.310297,17.45918,71,64,0
17.45918,17.611042,78,69,0
17.45918,17.611042,72,62,0
17.611042,17.758461,66,67,0
17.611042,17.758461,72,67,0
17.758461,17.907345,65,60,0
17.907345,18.059599,72,64,0
17.907345,18.059599,66,64,0
18.059599,18.209517,64,67,0
18.059599,18.209517,60,67,0
18.209517,18.359434,59,67,0
18.359434,18.509735,64,64,0
18.359434,18.509735,60,64,0
18.664406,18.740532,57,66,0
18.664406,18.740532,54,66,0
18.664406,18.740532,63,66,0
18.816658,18.916994,55,70,0
18.816658,18.916994,59,70,0
18.816658,18.916994,64,70,0
19.017328,19.166582,88,55,0
19.017328,19.166582,83,50,0
19.166582,19.315834,82,52,0
19.315834,19.615088,88,55,0
19.315834,19.615088,83,50,0
19.615088,19.767742,81,50,0
19.615088,19.767742,87,55,0
19.920399,20.069653,84,55,0
19.920399,20.069653,79,50,0
20.069653,20.218906,78,51,0
20.218906,20.518158,84,55,0
20.218906,20.518158,79,50,0
20.518158,20.67161,83,53,0
20.518158,20.67161,78,49,0
20.82909,20.97724,83,69,0
20.82909,20.97724,77,62,0
20.97724,21.126492,76,64,0
21.126492,21.278353,83,69,0
21.126492,21.278353,77,62,0
21.278353,21.4265,77,67,0
21.278353,21.4265,71,67,0
21.4265,21.577581,70,60,0
21.577581,21.729834,77,64,0
21.577581,21.729834,71,64,0
21.729834,21.878584,65,67,0
21.729834,21.878584,69,67,0
21.878584,22.027098,64,67,0
22.027098,22.177399,69,64,0
22.027098,22.177399,65,64,0
22.33207,22.484324,59,52,0
22.33207,22.484324,62,58,0
22.33207,22.484324,68,58,0
22.484324,22.636578,60,52,0
22.484324,22.636578,69,58,0
22.636578,22.938736,60,50,0
22.636578,22.938736,69,56,0
22.938736,23.240896,71,55,0
22.938736,23.240896,68,55,0
22.938736,23.240896,62,49,0
23.240896,23.391977,64,51,0
23.240896,23.391977,69,57,0
23.240896,23.391977,72,57,0
23.544632,23.848354,60,51,0
23.544632,23.848354,69,57,0
23.848354,24.152075,59,49,0
23.848354,24.152075,62,55,0
23.848354,24.152075,68,55,0
24.152075,24.303936,57,49,0
24.152075,24.303936,60,55,0
24.152075,24.303936,69,55,0
24.45699,24.75915,72,58,0
24.45699,24.75915,64,52,0
24.75915,25.061308,65,54,0
24.75915,25.061308,71,61,0
24.75915,25.061308,74,61,0
25.061308,25.212389,76,63,0
25.061308,25.212389,72,63,0
25.061308,25.212389,64,56,0
25.365442,25.669163,72,59,0
25.365442,25.669163,64,53,0
25.669163,25.972883,65,51,0
25.669163,25.972883,71,57,0
25.669163,25.972883,62,51,0
25.972883,26.124744,60,52,0
25.972883,26.124744,64,58,0
25.972883,26.124744,72,58,0
26.277798,26.579958,76,62,0
26.277798,26.579958,67,55,0
26.579958,26.882118,78,61,0
26.579958,26.882118,75,55,0
26.579958,26.882118,69,54,0
26.882118,27.033197,76,61,0
26.882118,27.033197,67,54,0
26.882118,27.033197,79,61,0
27.185452,27.487612,79,67,0
27.185452,27.487612,71,60,0
27.487612,27.789772,78,57,0
27.487612,27.789772,81,64,0
27.487612,27.789772,72,57,0
27.789772,27.940851,83,64,0
27.789772,27.940851,79,64,0
27.789772,27.940851,71,57,0
28.093904,28.396065,74,62,0
28.093904,28.396065,83,69,0
28.396065,28.698225,76,60,0
28.396065,28.698225,82,60,0
28.396065,28.698225,85,67,0
28.698225,28.849306,86,72,0
28.698225,28.849306,83,72,0
28.698225,28.849306,74,65,0
29.00196,29.304121,86,83,0
29.00196,29.304121,78,74,0
29.304121,29.606281,79,71,0
29.304121,29.606281,88,79,0
29.304121,29.606281,85,71,0
29.606281,29.75736,78,72,0
29.606281,29.75736,86,81,0
29.606281,29.75736,90,81,0
29.910814,30.212975,90,83,0
29.910814,30.212975,86,83,0
29.910814,30.212975,78,74,0
30.212975,30.515133,90,80,0
30.212975,30.515133,78,71,0
30.212975,30.515133,86,80,0
30.515133,30.819267,78,72,0
30.515133,30.819267,86,81,0
30.515133,30.819267,90,81,0
30.819267,31.121428,78,73,0
30.819267,31.121428,90,82,0
30.819267,31.121428,88,82,0
31.121428,31.423588,78,69,0
31.121428,31.423588,88,78,0
31.121428,31.423588,90,78,0
31.423588,31.72772,90,79,0
31.423588,31.72772,88,79,0
31.423588,31.72772,78,70,0
31.72772,32.029987,78,79,0
31.72772,32.029987,70,70,0
31.72772,32.029987,76,79,0
32.029987,32.332256,78,79,0
32.029987,32.332256,70,70,0
32.029987,32.332256,76,79,0
32.332256,32.652878,78,77,0
32.332256,32.652878,76,77,0
32.332256,32.652878,70,69,0
32.652878,32.956516,58,63,0
32.652878,32.956516,66,70,0
32.652878,32.956516,64,70,0
32.956516,33.2725,58,63,0
32.956516,33.2725,64,70,0
32.956516,33.2725,66,70,0
33.2725,33.62571,58,62,0
33.2725,33.62571,66,69,0
33.2725,33.62571,64,69,0
33.68795,33.837204,71,49,0
33.68795,33.837204,66,45,0
33.837204,33.986458,65,46,0
33.986458,34.28571,71,49,0
33.986458,34.28571,66,45,0
34.28571,34.438366,64,45,0
34.28571,34.438366,70,49,0
34.591022,34.740578,67,49,0
34.591022,34.740578,62,45,0
34.740578,34.88983,61,45,0
34.88983,35.189083,67,49,0
34.88983,35.189083,62,45,0
35.189083,35.342537,66,47,0
35.189083,35.342537,61,44,0
35.49599,35.645245,66,49,0
35.49599,35.645245,60,45,0
35.645245,35.7945,59,46,0
35.7945,36.09525,60,45,0
35.7945,36.09525,66,49,0
36.09525,36.245167,64,46,0
36.09525,36.245167,59,43,0
36.395084,36.546165,64,49,0
36.395084,36.546165,58,45,0
36.697243,36.848324,62,52,0
36.697243,36.848324,58,47,0
36.999405,37.150482,58,45,0
36.999405,37.150482,61,50,0
37.150482,37.302345,59,47,0
37.7576,37.83314,74,47,0
37.7576,37.83314,71,47,0
37.7576,37.83314,62,47,0
37.90868,37.98422,64,49,0
37.90868,37.98422,71,49,0
37.90868,37.98422,74,49,0
38.05976,38.13569,65,46,0
38.05976,38.13569,71,46,0
38.05976,38.13569,74,46,0
38.66486,38.74079,56,45,0
38.66486,38.74079,59,45,0
38.66486,38.74079,66,45,0
38.81672,38.89265,58,46,0
38.81672,38.89265,61,46,0
38.81672,38.89265,64,46,0
38.968582,39.04471,62,46,0
38.968582,39.04471,59,46,0
39.57253,39.64807,74,47,0
39.57253,39.64807,62,47,0
39.57253,39.64807,71,47,0
39.72361,39.79915,74,49,0
39.72361,39.79915,71,49,0
39.72361,39.79915,64,49,0
39.87469,39.95102,74,45,0
39.87469,39.95102,71,45,0
39.87469,39.95102,65,45,0
40.48256,40.55849,56,47,0
40.48256,40.55849,59,47,0
40.48256,40.55849,66,47,0
40.63442,40.71035,64,46,0
40.63442,40.71035,61,46,0
40.63442,40.71035,58,46,0
40.78628,40.864437,62,46,0
40.78628,40.864437,59,46,0
41.39741,41.473343,64,47,0
41.39741,41.473343,69,47,0
41.39741,41.473343,57,47,0
41.54927,41.625202,57,46,0
41.54927,41.625202,64,46,0
41.54927,41.625202,67,46,0
41.701134,41.77929,57,47,0
41.701134,41.77929,62,47,0
41.701134,41.77929,66,47,0
42.312263,42.388195,68,55,0
42.312263,42.388195,73,55,0
42.312263,42.388195,61,55,0
42.464123,42.540054,71,55,0
42.464123,42.540054,61,55,0
42.464123,42.540054,68,55,0
42.615986,42.69414,70,55,0
42.615986,42.69414,66,55,0
42.615986,42.69414,61,55,0
42.7723,42.9226,78,66,0
42.9226,43.0729,76,66,0
42.7723,43.0729,73,66,0
43.0729,43.224762,71,64,0
43.0729,43.224762,74,64,0
43.224762,43.37506,78,72,0
43.37506,43.52536,76,69,0
43.224762,43.52536,73,72,0
43.52536,43.677616,74,70,0
43.52536,43.677616,71,70,0
43.677616,43.827915,78,77,0
43.827915,43.978218,76,78,0
43.677616,43.978218,73,77,0
43.978218,44.13289,74,80,0
43.978218,44.13289,71,80,0
44.13289,44.211258,73,82,0
44.13289,44.211258,78,82,0
44.289627,44.36899,74,78,0
44.289627,44.36899,71,78,0
44.448357,44.929417,79,88,0
44.448357,44.929417,76,88,0
44.448357,44.929417,71,74,0
44.448357,44.929417,67,74,0
45.24004,45.3167,64,64,0
45.3167,45.39297,67,63,0
45.39297,45.468708,76,61,0
45.468708,45.54425,73,60,0
45.54425,45.61979,71,59,0
45.61979,45.695427,67,58,0
45.695427,45.77116,64,56,0
46.075287,46.152145,49,58,0
46.152145,46.229412,47,58,0
46.229412,46.30685,43,58,0
46.618652,46.696606,64,56,0
46.618652,46.696606,55,56,0
46.618652,46.696606,59,56,0
47.08252,47.158726,67,63,0
47.158726,47.23461,71,63,0
47.23461,47.310177,79,61,0
47.310177,47.385742,76,60,0
47.385742,47.46131,73,59,0
47.46131,47.536877,71,58,0
47.536877,47.612442,67,57,0
47.915012,47.991276,52,58,0
47.991276,48.067867,49,58,0
48.067867,48.144596,47,58,0
48.455574,48.533318,59,62,0
48.455574,48.533318,64,62,0
48.455574,48.533318,67,62,0
48.455574,48.533318,71,62,0
48.921013,48.998074,59,71,0
48.998074,49.074932,62,73,0
49.074932,49.151592,66,75,0
49.151592,49.228054,71,78,0
49.228054,49.304382,74,79,0
49.228054,49.304382,62,79,0
49.304382,49.38071,78,81,0
49.304382,49.38071,66,81,0
49.38071,49.457035,83,84,0
49.38071,49.457035,71,84,0
49.457035,49.533363,74,86,0
49.457035,49.533363,86,86,0
49.533363,49.752342,78,81,0
49.533363,49.752342,90,90,0
49.752342,49.827156,76,80,0
49.752342,49.827156,64,72,0
49.752342,49.827156,91,95,0
49.752342,49.827156,79,85,0
49.90197,49.976784,73,76,0
49.90197,49.976784,61,68,0
49.90197,49.976784,88,90,0
49.90197,49.976784,76,81,0
50.05166,50.126656,78,85,0
50.05166,50.126656,90,95,0
50.05166,50.126656,74,80,0
50.05166,50.126656,62,72,0
50.201656,50.276657,86,90,0
50.201656,50.276657,74,81,0
50.201656,50.276657,71,76,0
50.201656,50.276657,59,68,0
50.351784,50.42697,61,80,0
50.351784,50.42697,73,80,0
50.351784,50.42697,76,85,0
50.351784,50.42697,88,95,0
50.50216,50.577347,70,76,0
50.50216,50.577347,73,81,0
50.50216,50.577347,85,90,0
50.50216,50.577347,58,68,0
50.652725,50.7281,59,71,0
50.652725,50.7281,86,94,0
50.652725,50.7281,74,84,0
50.652725,50.7281,71,79,0
50.80348,50.878918,82,86,0
50.80348,50.878918,70,77,0
50.80348,50.878918,66,73,0
50.80348,50.878918,54,65,0
50.954483,51.030052,83,92,0
50.954483,51.030052,71,82,0
51.105618,51.181313,66,76,0
51.105618,51.181313,78,85,0
51.25707,51.33283,67,81,0
51.25707,51.33283,79,90,0
51.40865,51.48479,76,84,0
51.40865,51.48479,64,75,0
51.560932,51.637074,78,91,0
51.560932,51.637074,66,81,0
51.71322,51.78936,74,83,0
51.71322,51.78936,62,74,0
51.8655,51.941643,64,81,0
51.8655,51.941643,76,90,0
52.017788,52.09393,61,73,0
52.017788,52.09393,73,82,0
52.17007,52.246212,74,90,0
52.17007,52.246212,62,81,0
52.322357,52.39855,70,84,0
52.322357,52.39855,58,75,0
52.47501,52.551804,71,91,0
52.47501,52.551804,59,81,0
52.628864,52.71028,54,73,0
52.628864,52.71028,66,82,0
52.791695,53.102673,67,89,0
52.791695,53.102673,55,80,0
53.102673,53.258163,70,80,0
53.102673,53.258163,64,72,0
53.102673,53.258163,61,72,0
53.258163,53.41745,71,86,0
53.258163,53.41745,66,77,0
53.258163,53.41745,62,77,0
53.872704,53.948242,61,56,0
53.872704,53.948242,73,56,0
53.872704,53.948242,74,56,0
54.023785,54.099323,74,53,0
54.023785,54.099323,73,53,0
54.023785,54.099323,62,53,0
54.174866,54.250793,64,52,0
54.174866,54.250793,73,52,0
54.174866,54.250793,74,52,0
54.779964,54.855896,59,53,0
54.779964,54.855896,56,53,0
54.779964,54.855896,66,53,0
54.931824,55.007755,66,52,0
54.931824,55.007755,61,52,0
54.931824,55.007755,58,52,0
55.083687,55.159813,66,52,0
55.083687,55.159813,59,52,0
55.083687,55.159813,62,52,0
55.687634,55.763176,61,54,0
55.687634,55.763176,73,54,0
55.687634,55.763176,74,54,0
55.838715,55.914253,62,55,0
55.838715,55.914253,73,55,0
55.838715,55.914253,74,55,0
55.989796,56.066124,64,51,0
55.989796,56.066124,73,51,0
55.989796,56.066124,74,51,0
56.597664,56.673595,59,55,0
56.597664,56.673595,66,55,0
56.597664,56.673595,56,55,0
56.749523,56.825455,58,55,0
56.749523,56.825455,61,55,0
56.749523,56.825455,66,55,0
56.901386,56.97811,59,52,0
56.901386,56.97811,62,52,0
56.901386,56.97811,66,52,0
57.054836,57.130768,66,60,0
57.054836,57.130768,71,66,0
57.054836,57.130768,62,60,0
57.2067,57.282627,62,57,0
57.2067,57.282627,66,57,0
57.2067,57.282627,70,62,0
57.35856,57.435085,71,66,0
57.35856,57.435085,66,60,0
57.35856,57.435085,62,60,0
57.511612,57.587543,66,61,0
57.511612,57.587543,71,61,0
57.511612,57.587543,74,67,0
57.66347,57.739403,71,58,0
57.66347,57.739403,66,58,0
57.66347,57.739403,73,63,0
57.815334,57.89186,74,69,0
57.815334,57.89186,71,63,0
57.815334,57.89186,66,63,0
57.968388,58.044315,71,63,0
57.968388,58.044315,74,63,0
57.968388,58.044315,78,69,0
58.120247,58.19618,71,61,0
58.120247,58.19618,74,61,0
58.120247,58.19618,77,67,0
58.272106,58.348434,71,66,0
58.272106,58.348434,74,66,0
58.272106,58.348434,78,72,0
58.424763,58.500694,74,67,0
58.424763,58.500694,78,67,0
58.424763,58.500694,83,73,0
58.576622,58.652554,78,63,0
58.576622,58.652554,82,69,0
58.576622,58.652554,74,63,0
58.728485,58.80501,74,68,0
58.728485,58.80501,78,68,0
58.728485,58.80501,83,74,0
58.88154,58.95747,78,69,0
58.88154,58.95747,83,69,0
58.88154,58.95747,86,75,0
59.033398,59.10933,83,63,0
59.033398,59.10933,85,69,0
59.033398,59.10933,78,63,0
59.18526,59.261787,86,77,0
59.18526,59.261787,78,70,0
59.18526,59.261787,83,70,0
59.338314,59.41424,90,78,0
59.338314,59.41424,86,71,0
59.338314,59.41424,83,71,0
59.490173,59.566105,89,72,0
59.490173,59.566105,86,66,0
59.490173,59.566105,83,66,0
59.642033,59.717964,90,80,0
59.642033,59.717964,83,73,0
59.642033,59.717964,86,73,0
59.793896,59.869823,95,80,0
59.793896,59.869823,90,73,0
59.793896,59.869823,86,73,0
59.945625,60.02136,94,76,0
59.945625,60.02136,90,70,0
59.945625,60.02136,86,70,0
60.096897,60.172375,86,78,0
60.096897,60.172375,90,78,0
60.096897,60.172375,95,86,0
60.247723,60.322872,95,90,0
60.247723,60.322872,90,82,0
60.247723,60.322872,86,82,0
60.39802,60.47515,86,77,0
60.39802,60.47515,90,77,0
60.39802,60.47515,94,85,0
60.55228,60.62821,90,85,0
60.55228,60.62821,86,85,0
60.55228,60.62821,95,93,0
61.007862,61.090504,83,89,0
61.007862,61.090504,78,81,0
61.007862,61.090504,74,81,0
61.503727,61.592224,62,81,0
61.503727,61.592224,66,81,0
61.503727,61.592224,71,89,0
63.06476,63.551323,74,55,0
63.551323,64.034134,73,51,0
64.034134,64.358505,71,52,0
64.358505,64.5207,69,47,0
64.5207,65.0035,69,47,0
63.06476,65.0035,66,42,0
65.0035,65.48096,71,55,0
65.48096,65.962524,69,51,0
65.0035,65.962524,64,42,0
65.962524,66.286896,67,55,0
66.286896,66.44909,66,51,0
66.44909,66.93625,66,51,0
65.962524,66.93625,63,42,0
66.93625,67.413704,62,42,0
66.93625,67.413704,69,55,0
67.413704,67.89651,62,51,0
67.89651,68.22089,66,55,0
68.22089,68.38307,64,51,0
68.38307,68.88411,64,51,0
67.89651,68.88411,62,42,0
68.88411,69.37726,59,42,0
68.88411,69.37726,66,55,0
69.37726,69.87588,59,51,0
69.87588,70.20645,62,53,0
70.20645,70.37174,61,49,0
70.37174,70.87879,61,49,0
69.87588,70.87879,58,40,0
70.87879,71.84573,62,47,0
70.87879,71.84573,69,47,0
70.87879,71.84573,57,47,0
71.84573,72.81261,57,46,0
71.84573,72.81261,54,46,0
72.81261,73.77043,74,49,0
72.81261,73.77043,71,49,0
72.81261,73.77043,64,49,0
73.77043,74.7336,64,52,0
73.77043,74.7336,59,52,0
74.7336,75.69885,76,52,0
74.7336,75.69885,64,52,0
75.69885,76.69346,69,50,0
75.69885,76.69346,63,50,0
76.69346,77.19346,81,56,0
76.69346,77.19346,76,56,0
76.69346,77.19346,69,56,0
77.19346,77.68216,73,56,0
77.19346,77.68216,69,56,0
77.68216,78.01183,73,69,0
78.01183,78.17667,71,60,0
77.68216,78.17667,68,53,0
78.17667,78.69443,69,60,0
78.69443,79.18099,76,55,0
79.18099,79.663795,69,51,0
78.69443,79.663795,67,47,0
79.663795,79.988174,71,55,0
79.988174,80.15036,69,51,0
80.15036,80.63752,69,51,0
79.663795,80.63752,66,47,0
80.63752,81.60033,69,47,0
80.63752,81.60033,71,47,0
81.60033,82.08689,67,47,0
81.60033,82.08689,69,47,0
82.08689,82.574974,71,36,0
82.08689,82.574974,68,36,0
82.574974,83.05625,80,57,0
83.05625,83.53906,73,53,0
82.574974,83.53906,71,49,0
83.53906,83.86344,74,57,0
83.87222,84.03434,73,53,0
84.02563,84.03434,73,53,0
83.53906,84.50843,69,49,0
84.50843,85.482735,72,49,0
84.50843,85.482735,74,49,0
85.482735,85.98413,70,49,0
85.482735,85.98413,73,49,0
85.98413,86.47594,74,45,0
85.98413,86.47594,71,45,0
86.47594,86.9625,83,62,0
86.9625,87.445305,76,58,0
86.47594,87.445305,74,53,0
87.445305,87.769684,75,65,0
87.769684,87.93187,76,63,0
87.93187,88.42041,76,63,0
87.445305,88.42041,73,56,0
88.42041,88.902985,85,68,0
88.902985,89.387726,78,63,0
88.42041,89.387726,76,54,0
89.387726,89.719215,77,71,0
89.719215,89.884964,78,69,0
89.884964,90.37409,78,69,0
89.387726,90.37409,74,61,0
90.37409,92.36161,71,58,0
90.37409,92.36161,68,58,0
92.36161,92.877365,74,64,0
92.36161,92.877365,67,57,0
92.877365,93.41058,67,57,0
93.41058,93.76044,74,58,0
93.76044,93.93536,73,51,0
93.93536,94.53115,73,53,0
93.41058,94.53115,67,58,0
94.53115,95.017715,74,55,0
95.017715,95.50052,73,51,0
95.50052,95.8249,71,52,0
95.8249,95.98708,69,47,0
95.98708,96.469894,69,47,0
94.53115,96.469894,66,42,0
96.469894,96.94989,71,55,0
96.94989,97.4377,69,51,0
96.469894,97.4377,64,42,0
97.4377,97.76208,67,55,0
97.76208,97.92426,66,51,0
97.92426,98.419044,66,51,0
97.4377,98.419044,63,42,0
98.419044,98.89905,62,42,0
98.419044,98.89905,69,55,0
98.89905,99.38185,62,51,0
99.38185,99.70623,66,55,0
99.70623,99.868416,64,51,0
99.868416,100.36135,64,51,0
99.38185,100.36135,62,42,0
100.36135,100.84916,59,42,0
100.36135,100.84916,66,55,0
100.84916,101.34777,59,51,0
101.34777,101.68485,62,53,0
101.68485,101.853386,61,49,0
101.853386,102.365906,61,49,0
101.34777,102.365906,58,40,0
102.365906,103.338135,62,47,0
102.365906,103.338135,69,47,0
102.365906,103.338135,57,47,0
103.338135,104.32044,57,46,0
103.338135,104.32044,54,46,0
103.338135,104.32044,62,46,0
104.32044,105.288216,67,49,0
104.32044,105.288216,74,49,0
104.32044,105.288216,62,49,0
105.288216,106.26782,65,48,0
105.288216,106.26782,59,48,0
105.288216,106.26782,71,48,0
106.26782,107.24882,66,51,0
106.26782,107.24882,69,51,0
106.26782,107.24882,57,51,0
107.24882,108.21568,64,50,0
107.24882,108.21568,59,50,0
108.21568,109.21463,61,45,0
108.21568,109.21463,55,45,0
109.21463,110.28933,62,40,0
109.21463,110.28933,54,40,0
110.28933,110.785194,71,55,0
110.785194,111.273,70,51,0
110.28933,111.273,66,39,0
111.273,111.60634,67,55,0
111.60634,111.773,66,51,0
111.773,112.27084,66,51,0
111.273,112.27084,61,36,0
112.27084,112.75997,74,49,0
112.75997,113.250435,73,45,0
112.27084,113.250435,66,37,0
112.27084,113.250435,64,35,0
113.250435,113.750435,71,47,0
113.250435,113.750435,66,43,0
113.250435,113.750435,62,44,0
113.750435,114.2409,70,44,0
113.750435,114.2409,66,44,0
114.2409,114.7409,83,55,0
114.7409,115.23003,82,51,0
114.2409,115.23003,78,39,0
115.23003,115.564285,79,55,0
115.564285,115.73142,78,51,0
115.73142,116.231705,78,51,0
115.23003,116.231705,73,36,0
116.231705,116.71428,86,49,0
116.71428,117.20608,85,45,0
116.231705,117.20608,78,39,0
116.231705,117.20608,76,39,0
117.20608,117.71028,83,47,0
117.20608,117.71028,78,43,0
117.20608,117.71028,74,44,0
117.71028,118.20209,82,44,0
117.71028,118.20209,78,44,0
118.20209,118.535416,83,44,0
118.535416,118.70209,82,40,0
118.70209,119.193886,82,40,0
118.20209,119.193886,76,31,0
120.20097,120.542854,71,44,0
120.542854,120.7138,70,40,0
120.7138,121.225464,70,40,0
120.20097,121.225464,64,31,0
125.37635,125.52863,71,49,0
125.37635,125.52863,66,45,0
125.52863,125.680916,65,46,0
125.680916,125.98861,71,49,0
125.680916,125.98861,66,45,0
125.98861,126.141266,70,49,0
125.98861,126.141266,64,45,0
126.29335,126.44449,67,49,0
126.29335,126.44449,62,45,0
126.44449,126.59562,61,45,0
126.59562,126.90019,67,49,0
126.59562,126.90019,62,45,0
126.90019,127.05364,66,47,0
126.90019,127.05364,61,44,0
127.20709,127.35709,66,49,0
127.20709,127.35709,60,45,0
127.35709,127.507095,59,46,0
127.507095,127.809364,66,49,0
127.507095,127.809364,60,45,0
127.809364,127.95928,64,46,0
127.809364,127.95928,59,43,0
128.10919,128.26027,64,49,0
128.10919,128.26027,58,45,0
128.41136,128.56244,62,52,0
128.41136,128.56244,58,47,0
128.71352,128.8646,61,50,0
128.71352,128.8646,58,45,0
128.8646,129.01646,59,47,0
129.47171,129.54726,74,47,0
129.47171,129.54726,71,47,0
129.47171,129.54726,62,47,0
129.62279,129.69833,74,49,0
129.62279,129.69833,71,49,0
129.62279,129.69833,64,49,0
129.77386,129.84981,74,46,0
129.77386,129.84981,71,46,0
129.77386,129.84981,65,46,0
130.37897,130.4549,66,45,0
130.37897,130.4549,59,45,0
130.37897,130.4549,56,45,0
130.53084,130.60677,64,46,0
130.53084,130.60677,61,46,0
130.53084,130.60677,58,46,0
130.6827,130.75882,62,46,0
130.6827,130.75882,59,46,0
131.28664,131.36218,74,47,0
131.28664,131.36218,71,47,0
131.28664,131.36218,62,47,0
131.43773,131.51326,74,49,0
131.43773,131.51326,71,49,0
131.43773,131.51326,64,49,0
131.5888,131.66513,74,45,0
131.5888,131.66513,71,45,0
131.5888,131.66513,65,45,0
132.1947,132.27063,66,47,0
132.1947,132.27063,59,47,0
132.1947,132.27063,56,47,0
132.34656,132.42249,64,46,0
132.34656,132.42249,61,46,0
132.34656,132.42249,58,46,0
132.49841,132.6229,62,46,0
132.49841,132.6229,59,46,0
132.74738,132.89664,71,49,0
132.74738,132.89664,66,45,0
132.89664,133.04588,65,46,0
133.04588,133.34514,71,49,0
133.04588,133.34514,66,45,0
133.34514,133.4978,70,49,0
133.34514,133.4978,64,45,0
133.65045,133.79971,67,49,0
133.65045,133.79971,62,45,0
133.79971,133.94896,61,45,0
133.94896,134.24896,67,49,0
133.94896,134.24896,62,45,0
134.24896,134.4024,66,47,0
134.24896,134.4024,61,44,0
134.55586,134.70549,66,49,0
134.55586,134.70549,60,45,0
134.70549,134.85512,59,46,0
134.85512,135.15663,66,49,0
134.85512,135.15663,60,45,0
135.15663,135.30655,64,46,0
135.15663,135.30655,59,43,0
135.45647,135.60754,64,49,0
135.45647,135.60754,58,45,0
135.75862,135.9097,62,52,0
135.75862,135.9097,58,47,0
136.06078,136.21185,61,50,0
136.06078,136.21185,58,45,0
136.21185,136.36372,59,47,0
136.81897,136.89452,74,47,0
136.81897,136.89452,71,47,0
136.81897,136.89452,62,47,0
136.97006,137.0456,74,49,0
136.97006,137.0456,71,49,0
136.97006,137.0456,64,49,0
137.12114,137.19707,74,46,0
137.12114,137.19707,71,46,0
137.12114,137.19707,65,46,0
137.72624,137.80217,66,45,0
137.72624,137.80217,59,45,0
137.72624,137.80217,56,45,0
137.8781,137.95403,64,44,0
137.8781,137.95403,61,44,0
137.8781,137.95403,58,44,0
138.02995,138.10608,62,46,0
138.02995,138.10608,59,46,0
138.63391,138.70944,74,50,0
138.63391,138.70944,71,50,0
138.63391,138.70944,62,50,0
138.78499,138.86052,74,54,0
138.78499,138.86052,71,54,0
138.78499,138.86052,64,54,0
138.93607,139.24098,74,58,0
138.93607,139.24098,71,58,0
138.93607,139.24098,65,58,0
139.24098,139.54628,65,63,0
139.24098,139.54628,71,63,0
139.24098,139.54628,73,63,0
139.54628,139.85162,77,68,0
139.54628,139.85162,73,68,0
139.54628,139.85162,71,68,0
139.85162,140.03912,78,69,0
139.85162,140.03912,73,69,0
139.85162,140.03912,70,69,0
140.10162,140.2505,83,49,0
140.10162,140.2505,78,45,0
140.2505,140.39938,77,46,0
140.39938,140.69864,83,49,0
140.39938,140.69864,78,45,0
140.69864,140.85129,82,49,0
140.69864,140.85129,76,45,0
141.00395,141.1532,79,49,0
141.00395,141.1532,74,45,0
141.1532,141.30246,73,45,0
141.30246,141.60321,79,49,0
141.30246,141.60321,74,45,0
141.60321,141.75667,78,47,0
141.60321,141.75667,73,44,0
141.92426,142.07169,78,69,0
141.92426,142.07169,72,62,0
142.07169,142.22057,71,64,0
142.22057,142.37242,78,69,0
142.22057,142.37242,72,62,0
142.37242,142.5202,72,67,0
142.37242,142.5202,66,67,0
142.5202,142.6713,65,60,0
142.6713,142.82355,72,64,0
142.6713,142.82355,66,64,0
142.82355,142.97346,64,67,0
142.82355,142.97346,60,67,0
142.97346,143.12338,59,67,0
143.12338,143.27368,64,64,0
143.12338,143.27368,60,64,0
143.42834,143.50447,63,66,0
143.42834,143.50447,57,66,0
143.42834,143.50447,54,66,0
143.5806,143.68127,64,70,0
143.5806,143.68127,59,70,0
143.5806,143.68127,55,70,0
143.78194,143.9312,88,49,0
143.78194,143.9312,83,45,0
143.9312,144.08044,82,46,0
144.08044,144.3797,88,49,0
144.08044,144.3797,83,45,0
144.3797,144.53236,87,49,0
144.3797,144.53236,81,45,0
144.68501,144.83427,84,49,0
144.68501,144.83427,79,45,0
144.83427,144.98352,78,45,0
144.98352,145.28278,84,49,0
144.98352,145.28278,79,45,0
145.28278,145.43623,83,47,0
145.28278,145.43623,78,44,0
145.59927,145.74742,83,69,0
145.59927,145.74742,77,62,0
145.74742,145.89705,76,64,0
145.89705,146.0489,83,69,0
145.89705,146.0489,77,62,0
146.0489,146.19742,77,67,0
146.0489,146.19742,71,67,0
146.19742,146.3485,70,60,0
146.3485,146.50075,77,64,0
146.3485,146.50075,71,64,0
146.50075,146.65067,69,67,0
146.50075,146.65067,65,67,0
146.65067,146.80058,64,67,0
146.80058,146.95088,69,64,0
146.80058,146.95088,65,64,0
147.10556,147.25781,68,58,0
147.10556,147.25781,62,58,0
147.10556,147.25781,59,52,0
147.25781,147.41006,69,58,0
147.25781,147.41006,60,52,0
147.41006,147.71222,69,56,0
147.41006,147.71222,60,50,0
147.71222,148.01439,71,55,0
147.71222,148.01439,68,55,0
147.71222,148.01439,62,49,0
148.01439,148.16547,72,57,0
148.01439,148.16547,69,57,0
148.01439,148.16547,64,51,0
148.31812,148.62184,69,57,0
148.31812,148.62184,60,51,0
148.62184,148.92557,68,52,0
148.62184,148.92557,62,52,0
148.62184,148.92557,59,46,0
148.92557,149.07742,69,52,0
148.92557,149.07742,60,52,0
148.92557,149.07742,57,46,0
149.23048,149.53264,72,58,0
149.23048,149.53264,64,52,0
149.53264,149.8348,74,61,0
149.53264,149.8348,71,61,0
149.53264,149.8348,65,54,0
149.8348,149.98589,76,63,0
149.8348,149.98589,72,63,0
149.8348,149.98589,64,56,0
150.13893,150.44266,72,59,0
150.13893,150.44266,64,53,0
150.44266,150.74637,71,57,0
150.44266,150.74637,65,51,0
150.44266,150.74637,62,51,0
150.74637,150.89824,72,58,0
150.74637,150.89824,64,58,0
150.74637,150.89824,60,52,0
151.05128,151.35345,76,62,0
151.05128,151.35345,67,55,0
151.35345,151.65561,78,61,0
151.35345,151.65561,75,55,0
151.35345,151.65561,69,54,0
151.65561,151.80669,79,61,0
151.65561,151.80669,76,61,0
151.65561,151.80669,67,54,0
151.95894,152.26111,79,67,0
151.95894,152.26111,71,60,0
152.26111,152.56326,78,57,0
152.26111,152.56326,81,64,0
152.26111,152.56326,72,57,0
152.56326,152.71434,83,64,0
152.56326,152.71434,79,64,0
152.56326,152.71434,71,57,0
152.8674,153.16956,83,69,0
152.8674,153.16956,74,62,0
153.16956,153.47171,76,59,0
153.16956,153.47171,82,59,0
153.16956,153.47171,85,66,0
153.47171,153.62279,74,61,0
153.47171,153.62279,83,68,0
153.47171,153.62279,86,68,0
153.77545,154.0776,78,68,0
153.77545,154.0776,86,76,0
154.0776,154.37978,79,66,0
154.0776,154.37978,85,66,0
154.0776,154.37978,88,74,0
154.37978,154.53085,78,70,0
154.37978,154.53085,86,79,0
154.37978,154.53085,90,79,0
154.6843,154.98647,90,83,0
154.6843,154.98647,86,83,0
154.6843,154.98647,78,74,0
154.98647,155.28862,90,80,0
154.98647,155.28862,86,80,0
154.98647,155.28862,78,71,0
155.28862,155.59276,78,72,0
155.28862,155.59276,86,81,0
155.28862,155.59276,90,81,0
155.59276,155.89491,78,73,0
155.59276,155.89491,90,82,0
155.59276,155.89491,88,82,0
155.89491,156.19708,90,78,0
155.89491,156.19708,88,78,0
155.89491,156.19708,78,69,0
156.19708,156.5012,90,79,0
156.19708,156.5012,88,79,0
156.19708,156.5012,78,70,0
156.5012,156.80348,76,79,0
156.5012,156.80348,70,70,0
156.5012,156.80348,78,79,0
156.80348,157.1096,76,79,0
156.80348,157.1096,78,79,0
156.80348,157.1096,70,70,0
157.1096,157.4231,78,77,0
157.1096,157.4231,76,77,0
157.1096,157.4231,70,69,0
157.4231,157.73042,64,70,0
157.4231,157.73042,66,70,0
157.4231,157.73042,58,63,0
157.73042,158.05075,66,70,0
157.73042,158.05075,64,70,0
157.73042,158.05075,58,63,0
158.05075,158.4061,64,69,0
158.05075,158.4061,66,69,0
158.05075,158.4061,58,62,0
158.4686,158.61784,71,49,0
158.4686,158.61784,66,45,0
158.61784,158.7671,65,46,0
158.7671,159.06635,71,49,0
158.7671,159.06635,66,45,0
159.06635,159.21901,70,49,0
159.06635,159.21901,64,45,0
159.37166,159.52122,67,49,0
159.37166,159.52122,62,45,0
159.52122,159.67047,61,45,0
159.67047,159.96973,67,49,0
159.67047,159.96973,62,45,0
159.96973,160.12318,66,47,0
159.96973,160.12318,61,44,0
160.27663,160.42589,66,49,0
160.27663,160.42589,60,45,0
160.42589,160.57513,59,46,0
160.57513,160.87589,66,49,0
160.57513,160.87589,60,45,0
160.87589,161.0258,64,46,0
160.87589,161.0258,59,43,0
161.17572,161.3268,64,49,0
161.17572,161.3268,58,45,0
161.47789,161.62897,62,52,0
161.47789,161.62897,58,47,0
161.78004,161.93112,61,50,0
161.78004,161.93112,58,45,0
161.93112,162.083,59,47,0
162.53824,162.61378,74,47,0
162.53824,162.61378,71,47,0
162.53824,162.61378,62,47,0
162.68932,162.76486,74,49,0
162.68932,162.76486,71,49,0
162.68932,162.76486,64,49,0
162.8404,162.91634,74,46,0
162.8404,162.91634,71,46,0
162.8404,162.91634,65,46,0
163.4455,163.52142,66,45,0
163.4455,163.52142,59,45,0
163.4455,163.52142,56,45,0
163.59737,163.6733,64,46,0
163.59737,163.6733,61,46,0
163.59737,163.6733,58,46,0
163.74922,163.82535,62,46,0
163.74922,163.82535,59,46,0
164.35316,164.42871,74,47,0
164.35316,164.42871,71,47,0
164.35316,164.42871,62,47,0
164.50426,164.57979,74,49,0
164.50426,164.57979,71,49,0
164.50426,164.57979,64,49,0
164.65533,164.73166,74,45,0
164.65533,164.73166,71,45,0
164.65533,164.73166,65,45,0
165.2632,165.33913,66,47,0
165.2632,165.33913,59,47,0
165.2632,165.33913,56,47,0
165.41505,165.491,64,46,0
165.41505,165.491,61,46,0
165.41505,165.491,58,46,0
165.56693,165.64508,62,46,0
165.56693,165.64508,59,46,0
166.17805,166.25398,69,47,0
166.17805,166.25398,64,47,0
166.17805,166.25398,57,47,0
166.32991,166.40584,67,46,0
166.32991,166.40584,64,46,0
166.32991,166.40584,57,46,0
166.48177,166.55994,66,47,0
166.48177,166.55994,62,47,0
166.48177,166.55994,57,47,0
167.09291,167.16884,73,55,0
167.09291,167.16884,68,55,0
167.09291,167.16884,61,55,0
167.24477,167.3207,71,55,0
167.24477,167.3207,68,55,0
167.24477,167.3207,61,55,0
167.39662,167.47478,70,55,0
167.39662,167.47478,66,55,0
167.39662,167.47478,61,55,0
167.55293,167.70325,78,66,0
167.70325,167.85355,76,66,0
167.55293,167.85355,73,66,0
167.85355,168.0054,74,64,0
167.85355,168.0054,71,64,0
168.0054,168.1557,78,72,0
168.1557,168.306,76,69,0
168.0054,168.306,73,72,0
168.306,168.45825,74,70,0
168.306,168.45825,71,70,0
168.45825,168.60855,78,77,0
168.60855,168.75885,76,78,0
168.45825,168.75885,73,77,0
168.75885,168.91353,74,80,0
168.75885,168.91353,71,80,0
168.91353,168.9919,73,82,0
168.91353,168.9919,78,82,0
169.07027,169.14963,74,78,0
169.07027,169.14963,71,78,0
169.229,169.71005,79,88,0
169.229,169.71005,67,74,0
169.229,169.71005,71,74,0
169.229,169.71005,76,88,0
170.02068,170.09734,64,64,0
170.09734,170.17361,67,63,0
170.17361,170.24934,76,61,0
170.24934,170.32489,73,60,0
170.32489,170.40044,71,59,0
170.40044,170.47607,67,58,0
170.47607,170.5518,64,56,0
170.85593,170.93279,49,58,0
170.93279,171.01006,47,58,0
171.01006,171.0875,43,58,0
171.39929,171.47725,64,56,0
171.39929,171.47725,59,56,0
171.39929,171.47725,55,56,0
171.86316,171.93936,67,63,0
171.93936,172.01524,71,63,0
172.01524,172.09082,79,61,0
172.09082,172.16638,76,60,0
172.16638,172.24194,73,59,0
172.24194,172.31752,71,58,0
172.31752,172.39308,67,57,0
172.69565,172.77191,52,58,0
172.77191,172.84851,49,58,0
172.84851,172.92523,47,58,0
173.2362,173.31396,67,62,0
173.2362,173.31396,71,62,0
173.2362,173.31396,59,62,0
173.2362,173.31396,64,62,0
173.70164,173.77872,59,71,0
173.77872,173.85558,62,73,0
173.85558,173.93224,66,75,0
173.93224,174.0087,71,78,0
174.0087,174.08502,74,79,0
174.0087,174.08502,62,79,0
174.08502,174.16135,78,81,0
174.08502,174.16135,66,81,0
174.16135,174.23767,83,84,0
174.16135,174.23767,71,84,0
174.23767,174.31401,86,86,0
174.23767,174.31401,74,86,0
174.31401,174.54388,78,81,0
174.31401,174.54388,90,90,0
174.54388,174.61833,91,95,0
174.54388,174.61833,64,72,0
174.54388,174.61833,76,80,0
174.54388,174.61833,79,85,0
174.69278,174.76721,88,90,0
174.69278,174.76721,61,68,0
174.69278,174.76721,73,76,0
174.69278,174.76721,76,81,0
174.84184,174.91647,78,85,0
174.84184,174.91647,62,72,0
174.84184,174.91647,74,80,0
174.84184,174.91647,90,95,0
174.99117,175.06596,86,90,0
174.99117,175.06596,59,68,0
174.99117,175.06596,71,76,0
174.99117,175.06596,74,81,0
175.14078,175.21573,76,85,0
175.14078,175.21573,61,80,0
175.14078,175.21573,73,80,0
175.14078,175.21573,88,95,0
175.29073,175.36572,85,90,0
175.29073,175.36572,58,68,0
175.29073,175.36572,70,76,0
175.29073,175.36572,73,81,0
175.4409,175.5161,74,84,0
175.4409,175.5161,59,71,0
175.4409,175.5161,71,79,0
175.4409,175.5161,86,94,0
175.59135,175.66673,82,86,0
175.59135,175.66673,54,65,0
175.59135,175.66673,66,73,0
175.59135,175.66673,70,77,0
175.7421,175.81761,83,92,0
175.7421,175.81761,71,82,0
175.89317,175.96873,66,76,0
175.89317,175.96873,78,85,0
176.0445,176.12025,79,90,0
176.0445,176.12025,67,81,0
176.19608,176.27202,76,84,0
176.19608,176.27202,64,75,0
176.34798,176.42392,78,91,0
176.34798,176.42392,66,81,0
176.49988,176.57582,74,83,0
176.49988,176.57582,62,74,0
176.65178,176.72772,76,90,0
176.65178,176.72772,64,81,0
176.80367,176.87962,73,82,0
176.80367,176.87962,61,73,0
176.95557,177.03152,74,90,0
176.95557,177.03152,62,81,0
177.10747,177.18365,70,84,0
177.10747,177.18365,58,75,0
177.26012,177.33691,71,91,0
177.26012,177.33691,59,81,0
177.41397,177.49539,66,82,0
177.41397,177.49539,54,73,0
177.57681,177.88779,67,89,0
177.57681,177.88779,55,80,0
177.88779,178.04327,70,80,0
177.88779,178.04327,64,72,0
177.88779,178.04327,61,72,0
178.04327,178.20256,71,86,0
178.04327,178.20256,66,77,0
178.04327,178.20256,62,77,0
178.65782,178.73335,74,56,0
178.65782,178.73335,73,56,0
178.65782,178.73335,61,56,0
178.8089,178.88443,74,53,0
178.8089,178.88443,73,53,0
178.8089,178.88443,62,53,0
178.95998,179.0359,74,52,0
178.95998,179.0359,73,52,0
178.95998,179.0359,64,52,0
179.56508,179.641,66,53,0
179.56508,179.641,59,53,0
179.56508,179.641,56,53,0
179.71693,179.79286,66,52,0
179.71693,179.79286,61,52,0
179.71693,179.79286,58,52,0
179.86879,179.94493,62,52,0
179.86879,179.94493,59,52,0
179.86879,179.94493,66,52,0
180.47275,180.54828,74,54,0
180.47275,180.54828,73,54,0
180.47275,180.54828,61,54,0
180.62383,180.69937,74,55,0
180.62383,180.69937,73,55,0
180.62383,180.69937,62,55,0
180.7749,180.85123,74,51,0
180.7749,180.85123,73,51,0
180.7749,180.85123,64,51,0
181.38278,181.45871,66,55,0
181.38278,181.45871,59,55,0
181.38278,181.45871,56,55,0
181.53464,181.61057,66,55,0
181.53464,181.61057,61,55,0
181.53464,181.61057,58,55,0
181.6865,181.76323,66,52,0
181.6865,181.76323,62,52,0
181.6865,181.76323,59,52,0
181.83995,181.91588,71,66,0
181.83995,181.91588,66,60,0
181.83995,181.91588,62,60,0
181.9918,182.06773,70,62,0
181.9918,182.06773,66,57,0
181.9918,182.06773,62,57,0
182.14368,182.2202,71,66,0
182.14368,182.2202,66,60,0
182.14368,182.2202,62,60,0
182.29672,182.37265,74,67,0
182.29672,182.37265,71,61,0
182.29672,182.37265,66,61,0
182.44858,182.52452,73,63,0
182.44858,182.52452,71,58,0
182.44858,182.52452,66,58,0
182.60045,182.67697,74,69,0
182.60045,182.67697,71,63,0
182.60045,182.67697,66,63,0
182.7535,182.82942,78,69,0
182.7535,182.82942,74,63,0
182.7535,182.82942,71,63,0
182.90536,182.9813,77,67,0
182.90536,182.9813,74,61,0
182.90536,182.9813,71,61,0
183.05722,183.13354,78,72,0
183.05722,183.13354,74,66,0
183.05722,183.13354,71,66,0
183.20987,183.28581,83,73,0
183.20987,183.28581,78,67,0
183.20987,183.28581,74,67,0
183.36174,183.43767,82,69,0
183.36174,183.43767,78,63,0
183.36174,183.43767,74,63,0
183.5136,183.59012,83,74,0
183.5136,183.59012,78,68,0
183.5136,183.59012,74,68,0
183.66666,183.74258,86,75,0
183.66666,183.74258,83,69,0
183.66666,183.74258,78,69,0
183.81851,183.89444,85,69,0
183.81851,183.89444,83,63,0
183.81851,183.89444,78,63,0
183.97037,184.04689,86,77,0
183.97037,184.04689,83,70,0
183.97037,184.04689,78,70,0
184.12343,184.19936,90,78,0
184.12343,184.19936,86,71,0
184.12343,184.19936,83,71,0
184.27528,184.35121,89,72,0
184.27528,184.35121,86,66,0
184.27528,184.35121,83,66,0
184.42714,184.50308,90,80,0
184.42714,184.50308,86,73,0
184.42714,184.50308,83,73,0
184.57901,184.65494,95,80,0
184.57901,184.65494,90,73,0
184.57901,184.65494,86,73,0
184.73073,184.80647,94,76,0
184.73073,184.80647,90,70,0
184.73073,184.80647,86,70,0
184.882,184.95749,95,86,0
184.882,184.95749,90,78,0
184.882,184.95749,86,78,0
185.03284,185.10799,95,90,0
185.03284,185.10799,90,82,0
185.03284,185.10799,86,82,0
185.18314,185.26027,94,85,0
185.18314,185.26027,90,77,0
185.18314,185.26027,86,77,0
185.33739,185.41331,95,93,0
185.33739,185.41331,90,85,0
185.33739,185.41331,86,85,0
185.79297,185.8689,83,89,0
185.79297,185.8689,78,81,0
185.79297,185.8689,74,81,0
186.24855,186.32448,71,89,0
186.24855,186.32448,66,81,0
186.24855,186.32448,62,81,0
187.16685,187.24458,71,89,0
187.16685,187.24458,66,81,0
187.16685,187.24458,62,81,0
187.63904,187.71924,83,89,0
187.63904,187.71924,71,80,0
187.63904,187.71924,74,80,0
187.63904,187.71924,78,89,0
188.17494,189.46527,59,94,0
0.645404,0.7946575,62,45,0
0.7946575,0.943911,61,43,0
1.093537,1.243163,47,38,0
0.943911,1.243163,62,45,0
1.243163,1.395819,61,43,0
1.395819,1.547908,47,37,0
1.547908,1.697534,59,44,0
1.697534,1.8471599,58,42,0
1.997536,2.147912,47,39,0
1.8471599,2.147912,59,45,0
2.147912,2.3013644,58,44,0
2.3013644,2.4548168,47,38,0
2.4548168,2.6044428,57,44,0
2.6044428,2.7540689,56,41,0
2.9048228,3.0555768,47,38,0
2.7540689,3.0555768,57,45,0
3.0555768,3.2054944,56,44,0
3.2054944,3.355412,47,35,0
3.355412,3.506492,55,45,0
3.506492,3.657572,47,43,0
3.657572,3.808652,54,49,0
3.808652,3.9597318,47,50,0
3.9597318,4.1108117,52,47,0
4.1108117,4.2626724,50,44,0
4.1108117,4.2626724,47,44,0
4.2626724,4.337631,53,52,0
4.41259,4.4897184,54,54,0
4.5668473,5.0200872,55,59,0
5.0200872,5.171948,43,49,0
5.171948,5.247488,45,51,0
5.323028,5.398568,43,49,0
5.4741077,5.928909,42,51,0
5.928909,6.0811625,47,48,0
6.0811625,6.1561213,53,51,0
6.23108,6.306039,54,54,0
6.380997,6.8350177,55,58,0
6.8350177,6.9876738,43,49,0
6.9876738,7.063214,45,51,0
7.138754,7.214294,43,49,0
7.289834,7.744635,42,49,0
7.744635,7.8691163,47,49,0
7.9935975,8.142851,62,45,0
8.142851,8.292105,61,43,0
8.4417305,8.591356,47,41,0
8.292105,8.591356,62,45,0
8.591356,8.744013,61,43,0
8.744013,8.896668,47,37,0
8.896668,9.045922,59,44,0
9.045922,9.195175,58,42,0
9.345176,9.495175,47,40,0
9.195175,9.495175,59,45,0
9.495175,9.648628,58,44,0
9.648628,9.80208,47,36,0
9.80208,9.951707,57,44,0
9.951707,10.101333,56,41,0
10.252087,10.402841,47,42,0
10.101333,10.402841,57,45,0
10.402841,10.552758,56,44,0
10.552758,10.702676,47,38,0
10.702676,10.853755,55,45,0
10.853755,11.004835,47,43,0
11.004835,11.155915,54,49,0
11.155915,11.306995,47,50,0
11.306995,11.458076,52,47,0
11.458076,11.609936,47,44,0
11.458076,11.609936,50,44,0
11.609936,11.684895,53,52,0
11.759853,11.836982,54,54,0
11.914111,12.367351,55,59,0
12.367351,12.519212,43,49,0
12.519212,12.594751,45,51,0
12.670291,12.7458315,43,49,0
12.821371,13.276173,42,51,0
13.276173,13.428426,47,48,0
13.428426,13.503385,53,51,0
13.578343,13.653302,54,54,0
13.728261,14.334937,55,60,0
14.334937,14.639444,56,66,0
14.639444,14.946755,61,66,0
14.946755,15.097836,68,68,0
15.097836,15.285336,66,61,0
15.347836,15.496719,74,45,0
15.496719,15.645602,73,43,0
15.795228,15.944855,66,36,0
15.645602,15.944855,74,45,0
15.944855,16.097511,73,43,0
16.250166,16.39942,71,44,0
16.39942,16.548674,70,42,0
16.097511,16.699049,66,33,0
16.699049,16.849426,66,39,0
16.548674,16.849426,71,45,0
16.849426,17.002878,70,44,0
17.002878,17.162878,66,37,0
17.162878,17.611042,64,60,0
17.162878,17.611042,69,60,0
17.611042,18.059599,57,53,0
17.611042,18.059599,64,53,0
18.059599,18.509735,54,53,0
18.059599,18.509735,57,53,0
18.509735,18.58707,48,53,0
18.664406,18.740532,47,46,0
18.816658,18.916994,52,53,0
19.017328,19.166582,79,50,0
19.166582,19.315834,78,48,0
19.465462,19.615088,71,46,0
19.315834,19.615088,79,50,0
19.615088,19.767742,78,48,0
19.920399,20.069653,76,49,0
20.069653,20.218906,75,47,0
19.767742,20.368532,71,43,0
20.368532,20.518158,71,44,0
20.218906,20.518158,76,50,0
20.518158,20.67161,75,49,0
20.67161,20.82909,71,38,0
20.82909,21.278353,74,60,0
20.82909,21.278353,69,60,0
21.278353,21.729834,69,53,0
21.278353,21.729834,62,53,0
21.729834,22.177399,62,53,0
21.729834,22.177399,59,53,0
22.177399,22.254734,53,53,0
22.33207,22.408195,52,40,0
22.484324,22.56045,45,47,0
22.636578,22.712116,53,37,0
22.787657,22.863197,52,37,0
22.938736,23.014277,45,43,0
23.089817,23.165358,53,37,0
23.240896,23.316437,52,37,0
23.391977,23.468306,45,43,0
23.544632,23.620564,53,37,0
23.696493,23.772423,52,37,0
23.848354,23.924284,45,43,0
24.000214,24.076145,53,38,0
24.152075,24.228004,52,38,0
24.303936,24.380463,45,45,0
24.45699,24.532528,57,39,0
24.608068,24.683609,56,39,0
24.75915,24.834688,48,48,0
24.910229,24.98577,57,44,0
25.061308,25.136848,56,44,0
25.212389,25.288916,48,47,0
25.365442,25.441372,57,44,0
25.517303,25.593233,56,44,0
25.669163,25.745094,48,47,0
25.821024,25.896954,57,43,0
25.972883,26.048815,56,43,0
26.124744,26.201271,48,49,0
26.277798,26.353338,60,44,0
26.428879,26.504417,59,44,0
26.579958,26.655499,52,48,0
26.73104,26.806578,60,43,0
26.882118,26.957659,59,43,0
27.033197,27.109325,52,49,0
27.185452,27.260992,64,44,0
27.336533,27.412071,63,44,0
27.487612,27.563152,55,51,0
27.63869,27.714231,64,46,0
27.789772,27.865313,63,47,0
27.940851,28.017378,55,51,0
28.093904,28.169445,67,46,0
28.244986,28.320524,66,46,0
28.396065,28.471605,59,54,0
28.547146,28.622684,67,49,0
28.698225,28.773766,66,51,0
28.849306,28.925632,59,57,0
29.00196,29.077501,71,53,0
29.153042,29.22858,70,51,0
29.304121,29.379662,62,62,0
29.455202,29.53074,71,52,0
29.606281,29.681822,70,61,0
29.75736,29.834087,62,49,0
29.910814,30.061893,70,62,0
30.061893,30.212975,62,48,0
30.212975,30.364054,70,61,0
30.364054,30.515133,62,48,0
30.515133,30.666214,70,61,0
30.666214,30.819267,62,48,0
30.819267,30.970346,70,61,0
30.970346,31.121428,61,48,0
31.121428,31.272507,70,58,0
31.272507,31.423588,61,46,0
31.423588,31.574667,70,57,0
31.574667,31.72772,61,46,0
31.72772,31.878855,61,57,0
31.878855,32.029987,54,46,0
32.029987,32.18112,61,56,0
32.18112,32.332256,54,42,0
32.332256,32.483387,61,57,0
32.483387,32.652878,54,44,0
32.652878,32.80446,49,50,0
32.80446,32.956516,42,40,0
32.956516,33.111805,49,50,0
33.111805,33.2725,42,41,0
33.2725,33.438988,49,49,0
33.438988,33.62571,42,41,0
33.68795,33.837204,62,45,0
33.837204,33.986458,61,43,0
34.13608,34.28571,47,40,0
33.986458,34.28571,62,45,0
34.28571,34.438366,61,43,0
34.438366,34.591022,47,36,0
34.591022,34.740578,59,44,0
34.740578,34.88983,58,42,0
35.03946,35.189083,47,39,0
34.88983,35.189083,59,45,0
35.189083,35.342537,58,44,0
35.342537,35.49599,47,36,0
35.49599,35.645245,57,44,0
35.645245,35.7945,56,41,0
35.944874,36.09525,47,40,0
35.7945,36.09525,57,45,0
36.09525,36.245167,56,44,0
36.245167,36.395084,47,37,0
36.395084,36.546165,55,45,0
36.546165,36.697243,47,43,0
36.697243,36.848324,54,49,0
36.848324,36.999405,47,50,0
36.999405,37.150482,52,47,0
37.150482,37.302345,50,44,0
37.150482,37.302345,47,44,0
37.302345,37.377304,53,52,0
37.452263,37.529392,54,54,0
37.606518,38.05976,55,59,0
38.05976,38.21162,43,49,0
38.21162,38.28716,45,51,0
38.3627,38.43824,43,49,0
38.51378,38.968582,42,51,0
38.968582,39.120834,47,48,0
39.120834,39.195793,53,51,0
39.270752,39.34571,54,54,0
39.42067,39.87469,55,58,0
39.87469,40.027348,43,49,0
40.027348,40.102886,45,54,0
40.178425,40.253967,43,51,0
40.329506,40.78628,42,52,0
40.78628,40.942596,47,49,0
40.942596,41.018135,52,55,0
41.093674,41.169216,50,52,0
41.244755,41.701134,49,51,0
41.701134,41.85745,50,50,0
41.85745,41.932987,56,58,0
42.008526,42.08407,54,56,0
42.159607,42.615986,53,55,0
42.615986,42.7723,54,52,0
42.7723,43.0729,58,56,0
43.0729,43.224762,56,60,0
42.7723,43.224762,66,56,0
43.224762,43.52536,58,60,0
43.52536,43.677616,56,65,0
43.224762,43.677616,66,60,0
43.677616,43.978218,58,65,0
43.978218,44.13289,56,71,0
43.677616,44.13289,66,65,0
44.13289,44.211258,66,72,0
44.13289,44.211258,58,72,0
44.289627,44.36899,59,69,0
44.289627,44.36899,66,69,0
44.448357,44.929417,64,75,0
44.448357,44.929417,52,63,0
44.448357,44.929417,59,63,0
45.007675,45.08553,55,56,0
45.08553,45.162983,59,57,0
45.162983,45.24004,61,59,0
44.929417,45.24004,52,54,0
45.77116,45.846767,61,57,0
45.846767,45.922565,59,57,0
45.922565,45.99876,55,56,0
45.99876,46.075287,52,56,0
46.30685,46.462753,40,57,0
46.462753,46.618652,49,57,0
46.774555,46.85201,52,53,0
46.85201,46.929195,59,55,0
46.929195,47.006054,61,56,0
47.006054,47.08252,64,58,0
47.612442,47.68794,64,58,0
47.68794,47.763348,61,57,0
47.763348,47.83902,59,56,0
47.83902,47.915012,55,56,0
48.144596,48.300083,43,60,0
48.300083,48.455574,49,57,0
48.61106,48.688805,42,63,0
48.688805,48.76641,47,65,0
48.76641,48.843815,50,68,0
48.843815,48.921013,54,70,0
49.074932,49.151592,54,75,0
49.151592,49.228054,59,77,0
50.954483,51.030052,67,78,0
50.954483,51.030052,55,70,0
51.105618,51.181313,50,64,0
51.105618,51.181313,62,72,0
51.25707,51.33283,52,68,0
51.25707,51.33283,64,76,0
51.40865,51.48479,61,71,0
51.40865,51.48479,49,63,0
51.560932,51.637074,62,77,0
51.560932,51.637074,50,69,0
51.71322,51.78936,47,63,0
51.71322,51.78936,59,70,0
51.8655,51.941643,61,76,0
51.8655,51.941643,49,68,0
52.017788,52.09393,46,62,0
52.017788,52.09393,58,69,0
52.17007,52.246212,47,68,0
52.17007,52.246212,59,68,0
52.322357,52.39855,42,63,0
52.322357,52.39855,54,71,0
52.47501,52.551804,55,77,0
52.47501,52.551804,43,69,0
52.628864,52.71028,50,62,0
52.628864,52.71028,38,62,0
52.791695,53.102673,52,75,0
52.791695,53.102673,40,67,0
53.102673,53.258163,54,68,0
53.102673,53.258163,42,61,0
53.258163,53.41745,47,68,0
53.41745,53.49241,52,58,0
53.567368,53.644497,54,60,0
53.721622,54.326725,55,66,0
54.326725,54.402264,45,57,0
54.477806,54.553345,43,55,0
54.628883,55.083687,42,57,0
55.083687,55.23594,47,54,0
55.23594,55.310898,52,57,0
55.385857,55.460815,54,60,0
55.535774,56.142452,55,65,0
56.142452,56.21799,45,61,0
56.29353,56.369072,43,57,0
56.44461,56.901386,42,58,0
56.901386,56.97811,47,58,0
57.054836,57.130768,59,55,0
57.054836,57.130768,50,49,0
57.054836,57.130768,54,49,0
57.2067,57.282627,54,45,0
57.2067,57.282627,58,50,0
57.2067,57.282627,50,45,0
57.35856,57.435085,50,48,0
57.35856,57.435085,59,54,0
57.35856,57.435085,54,48,0
57.511612,57.587543,59,50,0
57.511612,57.587543,62,56,0
57.511612,57.587543,54,50,0
57.66347,57.739403,61,54,0
57.66347,57.739403,54,48,0
57.66347,57.739403,59,48,0
57.815334,57.89186,62,58,0
57.815334,57.89186,54,52,0
57.815334,57.89186,59,52,0
57.968388,58.044315,66,54,0
57.968388,58.044315,59,48,0
57.968388,58.044315,62,48,0
58.120247,58.19618,62,53,0
58.120247,58.19618,59,53,0
58.120247,58.19618,65,59,0
58.272106,58.348434,59,54,0
58.272106,58.348434,66,60,0
58.272106,58.348434,62,54,0
58.424763,58.500694,62,51,0
58.424763,58.500694,71,57,0
58.424763,58.500694,66,51,0
58.576622,58.652554,66,55,0
58.576622,58.652554,70,62,0
58.576622,58.652554,62,55,0
58.728485,58.80501,66,55,0
58.728485,58.80501,71,62,0
58.728485,58.80501,62,55,0
58.88154,58.95747,74,62,0
58.88154,58.95747,66,55,0
58.88154,58.95747,71,55,0
59.033398,59.10933,66,52,0
59.033398,59.10933,73,58,0
59.033398,59.10933,71,52,0
59.18526,59.261787,74,64,0
59.18526,59.261787,66,57,0
59.18526,59.261787,71,57,0
59.338314,59.41424,74,58,0
59.338314,59.41424,78,65,0
59.338314,59.41424,71,58,0
59.490173,59.566105,77,63,0
59.490173,59.566105,71,56,0
59.490173,59.566105,74,56,0
59.642033,59.717964,74,60,0
59.642033,59.717964,78,67,0
59.642033,59.717964,71,60,0
59.793896,59.869823,78,67,0
59.793896,59.869823,74,60,0
59.793896,59.869823,71,60,0
59.793896,59.869823,83,67,0
59.945625,60.02136,78,64,0
59.945625,60.02136,74,57,0
59.945625,60.02136,71,57,0
59.945625,60.02136,82,64,0
60.096897,60.172375,83,72,0
60.096897,60.172375,71,65,0
60.096897,60.172375,78,72,0
60.096897,60.172375,74,65,0
60.247723,60.322872,83,73,0
60.247723,60.322872,71,65,0
60.247723,60.322872,78,73,0
60.247723,60.322872,74,65,0
60.39802,60.47515,82,71,0
60.39802,60.47515,71,63,0
60.39802,60.47515,78,71,0
60.39802,60.47515,74,63,0
60.55228,60.62821,78,78,0
60.55228,60.62821,74,69,0
60.55228,60.62821,71,69,0
60.55228,60.62821,83,78,0
61.007862,61.090504,59,66,0
61.007862,61.090504,71,74,0
61.007862,61.090504,66,66,0
61.503727,61.592224,47,66,0
61.503727,61.592224,59,74,0
61.503727,61.592224,54,66,0
62.034702,62.141087,47,74,0
62.034702,62.141087,35,66,0
62.034702,62.141087,50,74,0
62.034702,62.141087,42,66,0
62.034702,62.141087,59,81,0
62.034702,62.141087,54,74,0
63.06476,65.0035,50,36,0
63.06476,65.0035,57,36,0
65.0035,65.962524,49,36,0
65.962524,66.93625,48,36,0
65.0035,66.93625,57,36,0
66.93625,67.89651,54,36,0
67.89651,68.88411,56,36,0
66.93625,68.88411,47,36,0
68.88411,69.87588,50,36,0
68.88411,69.87588,44,36,0
69.87588,70.87879,52,36,0
69.87588,70.87879,43,36,0
70.87879,71.3641,45,58,0
71.3641,71.84573,47,55,0
70.87879,71.84573,42,47,0
71.84573,72.16927,49,57,0
72.16927,72.33104,50,54,0
72.33104,72.81261,50,54,0
71.84573,72.81261,45,46,0
72.81261,73.29133,52,58,0
73.29133,73.77043,54,57,0
72.81261,73.77043,44,49,0
73.77043,74.09314,55,67,0
74.09314,74.254486,56,59,0
74.254486,74.7336,56,59,0
73.77043,74.7336,50,52,0
74.7336,75.211044,56,70,0
75.211044,75.69885,57,66,0
74.7336,75.69885,49,54,0
75.69885,76.02943,59,69,0
76.02943,76.19472,60,63,0
76.19472,76.69346,60,63,0
75.69885,76.69346,54,69,0
76.69346,77.19346,61,68,0
77.19346,77.52044,66,68,0
77.52044,77.68216,64,55,0
76.69346,77.68216,52,60,0
77.68216,78.17667,62,49,0
77.68216,78.17667,52,45,0
78.17667,78.69443,61,46,0
78.17667,78.69443,57,43,0
78.69443,79.663795,49,41,0
79.663795,80.63752,50,41,0
78.69443,80.63752,57,41,0
80.63752,81.11752,66,55,0
81.11752,81.60033,59,51,0
80.63752,81.60033,51,41,0
81.60033,81.924706,61,53,0
81.924706,82.08689,59,50,0
82.08689,82.574974,59,50,0
81.60033,82.574974,52,48,0
82.574974,83.53906,53,43,0
83.53906,84.50843,54,43,0
82.574974,84.50843,61,43,0
84.50843,84.99361,69,57,0
84.99361,85.482735,62,53,0
84.50843,85.482735,54,43,0
85.482735,85.817,64,55,0
85.817,85.98413,62,52,0
85.98413,86.47594,62,52,0
85.482735,86.47594,55,50,0
86.47594,87.445305,56,47,0
87.445305,88.42041,57,47,0
86.47594,88.42041,64,47,0
88.42041,89.387726,58,46,0
89.387726,90.37409,59,47,0
88.42041,90.37409,66,51,0
90.37409,90.869965,66,63,0
90.869965,91.36043,59,56,0
91.36043,91.69469,66,60,0
91.69469,91.86182,64,54,0
91.86182,92.36161,64,54,0
90.37409,92.36161,52,51,0
92.36161,93.41058,46,45,0
93.41058,94.53115,45,39,0
92.36161,94.53115,52,45,0
94.53115,96.469894,50,36,0
94.53115,96.469894,57,36,0
96.469894,97.4377,49,36,0
97.4377,98.419044,48,36,0
96.469894,98.419044,57,36,0
98.419044,99.38185,54,36,0
99.38185,100.36135,56,36,0
98.419044,100.36135,47,36,0
100.36135,101.34777,50,36,0
100.36135,101.34777,44,36,0
101.34777,102.365906,52,36,0
101.34777,102.365906,43,36,0
102.365906,102.85637,45,58,0
102.85637,103.338135,47,55,0
102.365906,103.338135,42,47,0
103.338135,103.66781,47,57,0
103.66781,103.83264,48,54,0
103.83264,104.32044,48,54,0
103.338135,104.32044,45,46,0
104.32044,104.80173,46,61,0
104.80173,105.288216,47,57,0
104.32044,105.288216,43,49,0
105.288216,105.61608,49,60,0
105.61608,105.78002,50,56,0
105.78002,106.26782,50,56,0
105.288216,106.26782,44,48,0
106.26782,106.76233,50,64,0
106.76233,107.24882,51,59,0
106.26782,107.24882,45,51,0
107.24882,107.57235,57,63,0
107.57235,107.73412,55,57,0
107.73412,108.21568,55,57,0
107.24882,108.21568,43,50,0
108.21568,108.546265,54,54,0
108.546265,108.711555,52,50,0
108.711555,109.21463,52,50,0
108.21568,109.21463,45,45,0
109.21463,109.55554,46,48,0
109.55554,109.726,45,44,0
109.726,110.28933,45,44,0
109.21463,110.28933,38,40,0
110.28933,110.785194,62,46,0
110.785194,111.273,61,43,0
111.273,111.773,59,44,0
111.773,112.27084,58,41,0
110.28933,112.27084,54,34,0
112.27084,112.75997,56,34,0
112.75997,113.250435,58,51,0
113.250435,113.58377,59,53,0
113.58377,113.750435,61,49,0
113.750435,114.2409,61,49,0
112.27084,114.2409,54,55,0
114.2409,114.7409,74,46,0
114.7409,115.23003,73,43,0
115.23003,115.564285,71,44,0
115.564285,115.73142,70,41,0
115.73142,116.231705,70,41,0
114.2409,116.231705,66,34,0
116.231705,116.71428,68,34,0
116.71428,117.20608,70,51,0
117.20608,117.54221,71,55,0
117.54221,117.71028,73,51,0
117.71028,118.20209,73,51,0
116.231705,118.20209,66,55,0
118.20209,118.70209,67,36,0
118.70209,119.193886,66,34,0
118.20209,119.193886,73,27,0
119.193886,119.53287,67,39,0
119.53287,119.70236,66,35,0
119.70236,120.20097,66,35,0
120.20097,120.7138,55,36,0
120.7138,121.225464,54,34,0
120.20097,121.225464,61,27,0
121.225464,121.57029,55,35,0
121.57029,121.74271,54,29,0
121.74271,122.25262,54,30,0
122.25262,122.61083,55,33,0
122.61083,122.78993,54,29,0
122.78993,123.316246,54,29,0
123.316246,123.7046,55,31,0
123.7046,123.91293,54,26,0
123.91293,125.37635,54,26,0
125.37635,125.52863,62,45,0
125.52863,125.680916,61,43,0
125.83476,125.98861,47,38,0
125.680916,125.98861,62,45,0
125.98861,126.141266,61,43,0
126.141266,126.29335,47,37,0
126.29335,126.44449,59,44,0
126.44449,126.59562,58,42,0
126.7479,126.90019,47,39,0
126.59562,126.90019,59,45,0
126.90019,127.05364,58,44,0
127.05364,127.20709,47,38,0
127.20709,127.35709,57,44,0
127.35709,127.507095,56,41,0
127.658226,127.809364,47,38,0
127.507095,127.809364,57,45,0
127.809364,127.95928,56,44,0
127.95928,128.10919,47,35,0
128.10919,128.26027,55,45,0
128.26027,128.41136,47,43,0
128.41136,128.56244,54,49,0
128.56244,128.71352,47,50,0
128.71352,128.8646,52,47,0
128.8646,129.01646,50,44,0
128.8646,129.01646,47,44,0
129.01646,129.09142,53,52,0
129.16637,129.2435,54,54,0
129.32063,129.77386,55,59,0
129.77386,129.92574,43,49,0
129.92574,130.00127,45,51,0
130.07681,130.15236,43,49,0
130.22789,130.6827,42,51,0
130.6827,130.83495,47,48,0
130.83495,130.90991,53,51,0
130.98486,131.05983,54,54,0
131.13478,131.5888,55,58,0
131.5888,131.74146,43,49,0
131.74146,131.817,45,51,0
131.89253,131.96808,43,49,0
132.04362,132.49841,42,49,0
132.49841,132.6229,47,49,0
132.74738,132.89664,62,45,0
132.89664,133.04588,61,43,0
133.19551,133.34514,47,41,0
133.04588,133.34514,62,45,0
133.34514,133.4978,61,43,0
133.4978,133.65045,47,37,0
133.65045,133.79971,59,44,0
133.79971,133.94896,58,42,0
134.09895,134.24896,47,40,0
133.94896,134.24896,59,45,0
134.24896,134.4024,58,44,0
134.4024,134.55586,47,36,0
134.55586,134.70549,57,44,0
134.70549,134.85512,56,41,0
135.00587,135.15663,47,42,0
134.85512,135.15663,57,45,0
135.15663,135.30655,56,44,0
135.30655,135.45647,47,38,0
135.45647,135.60754,55,45,0
135.60754,135.75862,47,43,0
135.75862,135.9097,54,49,0
135.9097,136.06078,47,50,0
136.06078,136.21185,52,47,0
136.21185,136.36372,50,44,0
136.21185,136.36372,47,44,0
136.36372,136.43867,53,52,0
136.51364,136.59076,54,54,0
136.6679,137.12114,55,59,0
137.12114,137.273,43,49,0
137.273,137.34854,45,51,0
137.42407,137.49962,43,49,0
137.57515,138.02995,42,51,0
138.02995,138.1822,47,48,0
138.1822,138.25717,53,51,0
138.33212,138.40709,54,54,0
138.48204,139.08871,55,60,0
139.08871,139.39323,56,67,0
139.39323,139.70055,61,66,0
139.70055,139.85162,68,68,0
139.85162,140.03912,66,61,0
140.10162,140.2505,74,45,0
140.2505,140.39938,73,43,0
140.54901,140.69864,66,36,0
140.39938,140.69864,74,45,0
140.69864,140.85129,73,43,0
141.00395,141.1532,71,44,0
141.1532,141.30246,70,42,0
140.85129,141.45284,66,33,0
141.45284,141.60321,66,39,0
141.30246,141.60321,71,45,0
141.60321,141.75667,70,44,0
141.75667,141.92426,66,37,0
141.92426,142.37242,69,60,0
141.92426,142.37242,64,60,0
142.37242,142.82355,57,53,0
142.37242,142.82355,64,53,0
142.82355,143.27368,57,53,0
142.82355,143.27368,54,53,0
143.27368,143.35101,48,53,0
143.42834,143.50447,47,46,0
143.5806,143.68127,52,53,0
143.78194,143.9312,79,45,0
143.9312,144.08044,78,43,0
144.23007,144.3797,71,41,0
144.08044,144.3797,79,45,0
144.3797,144.53236,78,43,0
144.68501,144.83427,76,44,0
144.83427,144.98352,75,42,0
144.53236,145.13315,71,38,0
145.13315,145.28278,71,39,0
144.98352,145.28278,76,45,0
145.28278,145.43623,75,44,0
145.43623,145.59927,71,34,0
145.59927,146.0489,74,60,0
145.59927,146.0489,69,60,0
146.0489,146.50075,62,53,0
146.0489,146.50075,69,53,0
146.50075,146.95088,62,53,0
146.50075,146.95088,59,53,0
146.95088,147.02823,53,53,0
147.10556,147.18169,52,40,0
147.25781,147.33394,45,47,0
147.41006,147.48561,53,37,0
147.56114,147.63669,52,37,0
147.71222,147.78777,45,43,0
147.86331,147.93884,53,37,0
148.01439,148.08992,52,37,0
148.16547,148.24179,45,43,0
148.31812,148.39406,53,37,0
148.46999,148.54591,52,37,0
148.62184,148.69777,45,43,0
148.7737,148.84964,53,38,0
148.92557,149.0015,52,38,0
149.07742,149.15395,45,45,0
149.23048,149.30602,57,39,0
149.38156,149.45709,56,39,0
149.53264,149.60818,48,48,0
149.68372,149.75926,57,44,0
149.8348,149.91034,56,44,0
149.98589,150.06241,48,47,0
150.13893,150.21486,57,44,0
150.29079,150.36673,56,44,0
150.44266,150.51859,48,47,0
150.59451,150.67044,57,43,0
150.74637,150.82231,56,43,0
150.89824,150.97476,48,49,0
151.05128,151.12683,60,44,0
151.20236,151.27791,59,44,0
151.35345,151.42899,52,48,0
151.50453,151.58006,60,43,0
151.65561,151.73114,59,43,0
151.80669,151.88281,52,49,0
151.95894,152.03448,64,44,0
152.11002,152.18556,63,44,0
152.26111,152.33664,55,51,0
152.41219,152.48772,64,46,0
152.56326,152.6388,63,47,0
152.71434,152.79086,55,51,0
152.8674,152.94293,67,46,0
153.01848,153.09401,66,46,0
153.16956,153.2451,59,53,0
153.32063,153.39618,67,47,0
153.47171,153.54726,66,48,0
153.62279,153.69913,59,53,0
153.77545,153.851,71,49,0
153.92653,154.00208,70,47,0
154.0776,154.15315,62,58,0
154.22868,154.30423,71,50,0
154.37978,154.4553,70,59,0
154.53085,154.60757,62,48,0
154.6843,154.83539,70,62,0
154.83539,154.98647,62,48,0
154.98647,155.13754,70,61,0
155.13754,155.28862,62,48,0
155.28862,155.4397,70,61,0
155.4397,155.59276,62,48,0
155.59276,155.74384,70,61,0
155.74384,155.89491,61,48,0
155.89491,156.04599,70,58,0
156.04599,156.19708,61,46,0
156.19708,156.34816,70,57,0
156.34816,156.5012,61,46,0
156.5012,156.65234,61,57,0
156.65234,156.80348,54,46,0
156.80348,156.95654,61,56,0
156.95654,157.1096,54,42,0
157.1096,157.26266,61,57,0
157.26266,157.4231,54,44,0
157.4231,157.57596,49,50,0
157.57596,157.73042,42,40,0
157.73042,157.88814,49,50,0
157.88814,158.05075,42,41,0
158.05075,158.2186,49,49,0
158.2186,158.4061,42,41,0
158.4686,158.61784,62,45,0
158.61784,158.7671,61,43,0
158.91672,159.06635,47,40,0
158.7671,159.06635,62,45,0
159.06635,159.21901,61,43,0
159.21901,159.37166,47,36,0
159.37166,159.52122,59,44,0
159.52122,159.67047,58,42,0
159.8201,159.96973,47,39,0
159.67047,159.96973,59,45,0
159.96973,160.12318,58,44,0
160.12318,160.27663,47,36,0
160.27663,160.42589,57,44,0
160.42589,160.57513,56,41,0
160.72551,160.87589,47,40,0
160.57513,160.87589,57,45,0
160.87589,161.0258,56,44,0
161.0258,161.17572,47,37,0
161.17572,161.3268,55,45,0
161.3268,161.47789,47,43,0
161.47789,161.62897,54,49,0
161.62897,161.78004,47,50,0
161.78004,161.93112,52,47,0
161.93112,162.083,50,44,0
161.93112,162.083,47,44,0
162.083,162.15794,53,52,0
162.2329,162.31003,54,54,0
162.38716,162.8404,55,59,0
162.8404,162.99226,43,49,0
162.99226,163.0678,45,51,0
163.14334,163.21889,43,49,0
163.29442,163.74922,42,51,0
163.74922,163.90147,47,48,0
163.90147,163.97644,53,51,0
164.05139,164.12636,54,54,0
164.20131,164.65533,55,58,0
164.65533,164.80798,43,49,0
164.80798,164.88353,45,54,0
164.95906,165.0346,43,51,0
165.11015,165.56693,42,52,0
165.56693,165.72324,47,49,0
165.72324,165.79878,52,55,0
165.87431,165.94986,50,52,0
166.02539,166.48177,49,51,0
166.48177,166.63809,50,50,0
166.63809,166.71362,56,58,0
166.78917,166.86472,54,56,0
166.94025,167.39662,53,55,0
167.39662,167.55293,54,52,0
167.55293,167.85355,58,56,0
167.85355,168.0054,56,60,0
167.55293,168.0054,66,56,0
168.0054,168.306,58,60,0
168.306,168.45825,56,65,0
168.0054,168.45825,66,60,0
168.45825,168.75885,58,65,0
168.75885,168.91353,56,71,0
168.45825,168.91353,66,65,0
168.91353,168.9919,66,72,0
168.91353,168.9919,58,72,0
169.07027,169.14963,66,69,0
169.07027,169.14963,59,69,0
169.229,169.71005,64,75,0
169.229,169.71005,59,63,0
169.229,169.71005,52,63,0
169.78831,169.86617,55,56,0
169.86617,169.94362,59,57,0
169.94362,170.02068,61,59,0
169.71005,170.02068,52,54,0
170.5518,170.62741,61,57,0
170.62741,170.7032,59,57,0
170.7032,170.7794,55,56,0
170.7794,170.85593,52,56,0
171.0875,171.2434,40,57,0
171.2434,171.39929,49,57,0
171.55519,171.63264,52,53,0
171.63264,171.70984,59,55,0
171.70984,171.7867,61,56,0
171.7867,171.86316,64,58,0
172.39308,172.46858,64,58,0
172.46858,172.54399,61,57,0
172.54399,172.61966,59,56,0
172.61966,172.69565,55,56,0
172.92523,173.08072,43,60,0
173.08072,173.2362,49,57,0
173.39171,173.46945,42,63,0
173.46945,173.54706,47,65,0
173.54706,173.62445,50,68,0
173.62445,173.70164,54,70,0
173.85558,173.93224,54,75,0
173.93224,174.0087,59,77,0
175.7421,175.81761,55,70,0
175.7421,175.81761,67,78,0
175.89317,175.96873,62,72,0
175.89317,175.96873,50,64,0
176.0445,176.12025,64,76,0
176.0445,176.12025,52,68,0
176.19608,176.27202,61,71,0
176.19608,176.27202,49,63,0
176.34798,176.42392,62,77,0
176.34798,176.42392,50,69,0
176.49988,176.57582,59,70,0
176.49988,176.57582,47,63,0
176.65178,176.72772,61,76,0
176.65178,176.72772,49,68,0
176.80367,176.87962,58,69,0
176.80367,176.87962,46,62,0
176.95557,177.03152,59,68,0
176.95557,177.03152,47,68,0
177.10747,177.18365,54,71,0
177.10747,177.18365,42,63,0
177.26012,177.33691,55,77,0
177.26012,177.33691,43,69,0
177.41397,177.49539,50,62,0
177.41397,177.49539,38,62,0
177.57681,177.88779,52,75,0
177.57681,177.88779,40,67,0
177.88779,178.04327,54,68,0
177.88779,178.04327,42,61,0
178.04327,178.20256,47,68,0
178.20256,178.27753,52,58,0
178.35248,178.42961,54,60,0
178.50673,179.11183,55,66,0
179.11183,179.18738,45,57,0
179.26291,179.33846,43,55,0
179.414,179.86879,42,57,0
179.86879,180.02106,47,54,0
180.02106,180.09601,52,57,0
180.17097,180.24593,54,60,0
180.32089,180.92757,55,65,0
180.92757,181.0031,45,61,0
181.07864,181.15417,43,57,0
181.22972,181.6865,42,58,0
181.6865,181.76323,47,58,0
181.83995,181.91588,59,55,0
181.83995,181.91588,54,49,0
181.83995,181.91588,50,49,0
181.9918,182.06773,58,50,0
181.9918,182.06773,54,45,0
181.9918,182.06773,50,45,0
182.14368,182.2202,59,54,0
182.14368,182.2202,54,48,0
182.14368,182.2202,50,48,0
182.29672,182.37265,62,56,0
182.29672,182.37265,59,50,0
182.29672,182.37265,54,50,0
182.44858,182.52452,61,54,0
182.44858,182.52452,59,48,0
182.44858,182.52452,54,48,0
182.60045,182.67697,62,58,0
182.60045,182.67697,59,52,0
182.60045,182.67697,54,52,0
182.7535,182.82942,59,48,0
182.7535,182.82942,62,48,0
182.7535,182.82942,66,54,0
182.90536,182.9813,59,53,0
182.90536,182.9813,62,53,0
182.90536,182.9813,65,59,0
183.05722,183.13354,59,54,0
183.05722,183.13354,62,54,0
183.05722,183.13354,66,60,0
183.20987,183.28581,71,57,0
183.20987,183.28581,66,51,0
183.20987,183.28581,62,51,0
183.36174,183.43767,70,62,0
183.36174,183.43767,66,55,0
183.36174,183.43767,62,55,0
183.5136,183.59012,71,62,0
183.5136,183.59012,66,55,0
183.5136,183.59012,62,55,0
183.66666,183.74258,74,62,0
183.66666,183.74258,71,55,0
183.66666,183.74258,66,55,0
183.81851,183.89444,73,58,0
183.81851,183.89444,71,52,0
183.81851,183.89444,66,52,0
183.97037,184.04689,74,64,0
183.97037,184.04689,71,57,0
183.97037,184.04689,66,57,0
184.12343,184.19936,78,65,0
184.12343,184.19936,74,58,0
184.12343,184.19936,71,58,0
184.27528,184.35121,77,63,0
184.27528,184.35121,74,56,0
184.27528,184.35121,71,56,0
184.42714,184.50308,78,67,0
184.42714,184.50308,74,60,0
184.42714,184.50308,71,60,0
184.57901,184.65494,83,67,0
184.57901,184.65494,71,60,0
184.57901,184.65494,74,60,0
184.57901,184.65494,78,67,0
184.73073,184.80647,82,64,0
184.73073,184.80647,71,57,0
184.73073,184.80647,74,57,0
184.73073,184.80647,78,64,0
184.882,184.95749,83,72,0
184.882,184.95749,71,65,0
184.882,184.95749,74,65,0
184.882,184.95749,78,72,0
185.03284,185.10799,83,73,0
185.03284,185.10799,71,65,0
185.03284,185.10799,74,65,0
185.03284,185.10799,78,73,0
185.18314,185.26027,82,71,0
185.18314,185.26027,71,63,0
185.18314,185.26027,74,63,0
185.18314,185.26027,78,71,0
185.33739,185.41331,83,78,0
185.33739,185.41331,71,69,0
185.33739,185.41331,74,69,0
185.33739,185.41331,78,78,0
185.79297,185.8689,71,74,0
185.79297,185.8689,66,66,0
185.79297,185.8689,59,66,0
186.24855,186.32448,59,74,0
186.24855,186.32448,54,66,0
186.24855,186.32448,47,66,0
186.70413,186.78125,59,81,0
186.70413,186.78125,42,66,0
186.70413,186.78125,47,74,0
186.70413,186.78125,35,66,0
186.70413,186.78125,54,74,0
186.70413,186.78125,50,74,0
187.16685,187.24458,59,74,0
187.16685,187.24458,54,66,0
187.16685,187.24458,47,66,0
187.63904,187.71924,62,70,0
187.51807,187.71924,47,63,0
187.55838,187.71924,54,63,0
187.59871,187.71924,59,70,0
188.17494,189.46527,47,75,0
188.17494,189.46527,35,75,0
