start_time,end_time,note_value,velocity,instrument_program_number
0.603366,0.905938,63,39,0
0.304383,0.905938,68,59,0
1.204921,1.507554,68,31,0
1.204921,1.507554,63,28,0
0.905938,1.507554,70,57,0
1.507554,1.804319,72,57,0
2.404679,2.708307,67,38,0
2.404679,2.708307,63,34,0
2.105963,2.708307,73,63,0
3.011935,3.315563,63,30,0
3.011935,3.315563,67,35,0
2.708307,3.315563,72,62,0
3.315563,3.619191,70,51,0
4.231581,4.542397,63,38,0
4.231581,4.542397,68,42,0
3.928948,4.542397,72,63,0
4.846025,5.148658,68,41,0
4.846025,5.148658,63,37,0
4.542397,5.148658,73,68,0
5.148658,5.445423,75,71,0
5.445423,5.6677656,77,73,0
5.777095,6.001775,79,74,0
5.755229,6.001775,74,56,0
5.733363,6.001775,68,51,0
6.1111045,6.434554,80,77,0
6.0892386,6.434554,74,56,0
6.067373,6.434554,68,51,0
6.745435,7.0563164,63,38,0
6.745435,7.0563164,68,38,0
6.745435,7.0563164,72,44,0
7.0563164,7.3681993,63,38,0
6.434554,7.3681993,75,81,0
7.0563164,7.3681993,72,43,0
7.0563164,7.3681993,68,38,0
7.6738544,7.8201957,78,59,0
7.8201957,7.9665375,77,56,0
7.9665375,8.121945,75,59,0
8.121945,8.277353,78,56,0
8.277353,8.734324,77,62,0
8.734324,8.885641,73,59,0
8.885641,9.041049,70,55,0
9.041049,9.196457,65,50,0
9.502112,9.648454,76,59,0
9.648454,9.794795,75,56,0
9.794795,9.950203,73,59,0
9.950203,10.105612,76,56,0
10.105612,10.562583,75,62,0
10.562583,10.7139,72,59,0
10.7139,10.8693075,68,57,0
10.8693075,11.024715,63,52,0
11.334473,11.637105,63,39,0
11.334473,11.637105,60,35,0
11.637105,11.947922,63,39,0
11.637105,11.947922,60,35,0
11.334473,11.947922,68,59,0
12.25155,12.554182,65,36,0
12.25155,12.554182,60,31,0
11.947922,12.554182,67,63,0
12.554182,12.850947,68,59,0
12.554182,12.850947,65,36,0
12.554182,12.850947,60,31,0
12.850947,13.307919,70,68,0
13.307919,13.459235,71,61,0
13.156602,13.459235,68,36,0
13.156602,13.459235,62,31,0
13.459235,13.614643,70,59,0
13.614643,13.770051,71,52,0
13.459235,13.770051,68,36,0
13.459235,13.770051,62,31,0
14.081739,14.384373,63,40,0
14.081739,14.384373,61,36,0
14.384373,14.699201,63,39,0
14.384373,14.699201,61,35,0
13.770051,14.699201,67,59,0
15.3079405,15.611415,63,39,0
15.008957,15.611415,68,59,0
15.915043,16.217676,68,31,0
15.915043,16.217676,63,28,0
15.611415,16.217676,70,58,0
16.217676,16.51444,72,57,0
17.114801,17.418428,67,38,0
17.114801,17.418428,63,34,0
16.816086,17.418428,73,63,0
17.722057,18.025686,63,30,0
17.722057,18.025686,67,35,0
17.418428,18.025686,72,62,0
18.025686,18.329313,70,51,0
18.941704,19.25252,63,38,0
18.941704,19.25252,68,42,0
18.63907,19.25252,72,63,0
19.556147,19.85878,68,41,0
19.556147,19.85878,63,37,0
19.25252,19.85878,73,68,0
19.85878,20.155546,75,71,0
20.155546,20.38385,77,73,0
20.4935,20.722416,79,74,0
20.47157,20.722416,74,56,0
20.44964,20.722416,68,48,0
20.832066,21.161736,80,77,0
20.810135,21.161736,74,55,0
20.788204,21.161736,68,48,0
21.472616,21.783497,72,44,0
21.472616,21.783497,68,38,0
21.472616,21.783497,63,38,0
21.783497,22.095379,72,43,0
21.161736,22.095379,75,81,0
21.783497,22.095379,63,38,0
21.783497,22.095379,68,38,0
22.401035,22.543552,78,59,0
22.543552,22.686071,77,56,0
22.686071,22.834585,75,59,0
22.834585,22.989624,78,56,0
22.989624,23.446596,77,62,0
23.446596,23.597912,73,59,0
23.597912,23.75332,70,55,0
23.75332,23.90873,65,50,0
24.214384,24.359663,80,66,0
24.359663,24.50494,79,61,0
24.50494,24.656456,77,64,0
24.656456,24.811094,80,60,0
24.811094,25.268066,79,68,0
25.268066,25.419382,76,61,0
25.419382,25.574791,72,59,0
25.574791,25.730198,67,55,0
26.328568,26.630053,72,46,0
26.328568,26.630053,66,46,0
26.031433,26.630053,74,70,0
26.92807,27.232391,72,37,0
26.92807,27.232391,67,34,0
26.630053,27.232391,76,70,0
27.232391,27.530825,79,70,0
28.128603,28.431053,71,45,0
28.128603,28.431053,65,39,0
27.830584,28.431053,74,75,0
28.431053,29.02795,76,73,0
29.02795,29.331285,72,61,0
28.72993,29.331285,64,36,0
28.72993,29.331285,67,40,0
29.92995,30.233288,66,45,0
29.92995,30.233288,72,50,0
29.631933,30.233288,74,71,0
30.53484,30.831974,72,48,0
30.53484,30.831974,67,44,0
30.233288,30.831974,76,73,0
30.831974,31.134027,79,69,0
31.134027,31.590176,74,73,0
31.590176,31.740793,76,70,0
31.439558,31.740793,71,41,0
31.439558,31.740793,65,39,0
31.740793,31.894869,74,64,0
31.894869,32.048943,76,60,0
31.740793,32.048943,71,44,0
31.740793,32.048943,65,45,0
32.048943,32.505093,72,66,0
32.505093,32.65571,76,55,0
32.65571,32.809784,75,58,0
32.809784,32.96386,76,56,0
32.96386,33.420006,72,66,0
33.420006,33.573067,76,55,0
33.573067,33.728508,75,58,0
33.728508,33.88395,76,56,0
33.88395,34.03701,72,66,0
34.03701,34.187763,76,55,0
34.187763,34.340435,75,58,0
34.340435,34.493107,76,55,0
34.493107,34.64457,72,62,0
34.64457,34.79434,76,56,0
34.79434,34.944527,75,59,0
34.944527,35.095985,76,55,0
35.095985,35.246605,72,63,0
35.246605,35.395954,76,55,0
35.395954,35.547417,75,58,0
35.547417,35.69888,76,56,0
35.69888,35.847393,73,59,0
35.847393,35.99758,77,55,0
35.99758,36.146465,76,64,0
36.146465,36.293884,77,56,0
36.293884,36.443512,73,60,0
36.443512,36.593136,77,58,0
36.593136,36.741283,76,62,0
36.741283,36.891285,77,58,0
36.88441,37.033344,73,68,0
37.04017,37.187588,77,60,0
37.187588,37.33759,76,63,0
37.33759,37.487587,77,62,0
37.63647,37.787933,77,62,0
37.78099,37.93165,76,72,0
37.93855,38.087902,77,63,0
38.087902,38.239365,80,75,0
38.239365,38.392128,79,71,0
37.487587,38.392128,71,67,0
38.392128,38.843964,75,82,0
38.843964,38.995857,76,70,0
38.995857,39.147747,79,72,0
39.147747,39.299637,84,68,0
39.449825,39.601288,75,62,0
39.601288,39.751904,74,72,0
39.751904,39.901257,75,63,0
39.901257,40.052715,78,69,0
40.052715,40.205482,77,66,0
39.299637,40.205482,69,67,0
40.205482,40.65732,72,71,0
40.65732,40.809208,73,69,0
40.809208,40.9611,77,68,0
40.9611,41.11299,82,64,0
41.11299,41.564827,69,72,0
41.564827,41.71672,70,67,0
41.71672,41.86861,73,70,0
41.86861,42.0205,80,66,0
42.0205,42.172394,79,66,0
42.172394,42.324284,77,60,0
42.324284,42.476173,75,61,0
42.476173,42.628067,74,56,0
42.628067,42.78191,77,59,0
42.78191,42.935757,75,56,0
42.935757,43.08843,73,59,0
43.08843,43.23989,77,55,0
43.23989,43.39179,76,64,0
43.39179,43.54179,77,56,0
43.54179,43.693253,73,60,0
43.693253,43.84471,77,58,0
43.84471,43.993595,76,62,0
43.993595,44.145058,77,58,0
44.138115,44.28747,73,68,0
44.29431,44.442093,77,60,0
44.442093,44.59172,76,63,0
44.59172,44.741344,77,62,0
44.891533,45.042995,77,62,0
45.036053,45.18671,76,72,0
45.19361,45.342964,77,63,0
45.342964,45.494427,80,75,0
45.494427,45.64719,79,71,0
44.741344,45.64719,71,67,0
45.64719,46.099026,75,82,0
46.099026,46.25092,76,69,0
46.25092,46.40281,79,72,0
46.40281,46.5547,84,69,0
46.704887,46.85635,75,62,0
46.85635,47.006966,74,72,0
47.006966,47.15632,75,63,0
47.15632,47.307777,78,69,0
47.307777,47.460545,77,66,0
46.5547,47.460545,69,67,0
47.460545,47.91238,72,74,0
47.91238,48.06427,73,67,0
48.06427,48.216164,77,70,0
48.216164,48.368053,82,64,0
48.368053,48.81989,69,68,0
48.81989,48.971783,70,60,0
48.971783,49.123672,72,62,0
49.123672,49.275562,73,59,0
49.275562,49.7274,66,63,0
49.7274,49.87929,67,57,0
49.87929,50.03118,69,59,0
50.03118,50.183075,70,56,0
50.786438,51.089012,63,39,0
50.487457,51.089012,68,59,0
51.387993,51.690628,68,31,0
51.387993,51.690628,63,28,0
51.089012,51.690628,70,59,0
51.690628,51.987392,72,59,0
52.587753,52.89138,67,38,0
52.587753,52.89138,63,34,0
52.289036,52.89138,73,63,0
53.195007,53.49864,63,30,0
53.195007,53.49864,67,35,0
52.89138,53.49864,72,62,0
53.49864,53.802265,70,51,0
54.414654,54.72547,63,38,0
54.414654,54.72547,68,42,0
54.112022,54.72547,72,63,0
55.0291,55.334442,68,41,0
55.0291,55.334442,63,37,0
54.72547,55.334442,73,68,0
55.334442,55.635952,75,71,0
55.635952,55.864254,77,73,0
55.973904,56.204056,79,74,0
55.951973,56.204056,74,56,0
55.930046,56.204056,68,51,0
56.313705,56.644283,80,77,0
56.291775,56.644283,74,56,0
56.269844,56.644283,68,51,0
56.96007,57.27586,72,44,0
56.96007,57.27586,68,38,0
56.96007,57.27586,63,38,0
57.27586,57.587746,72,43,0
56.644283,57.587746,75,81,0
57.27586,57.587746,63,38,0
57.27586,57.587746,68,38,0
57.8934,58.0366,78,59,0
58.0366,58.179794,77,56,0
58.179794,58.335205,75,59,0
58.335205,58.490612,78,56,0
58.490612,58.947582,77,62,0
58.947582,59.0989,73,59,0
59.0989,59.254307,70,55,0
59.254307,59.409714,65,50,0
59.71537,59.86065,76,59,0
59.86065,60.005928,75,56,0
60.005928,60.161335,73,59,0
60.161335,60.316742,76,56,0
60.316742,60.773716,75,62,0
60.773716,60.92503,72,59,0
60.92503,61.08044,68,57,0
61.08044,61.235847,63,52,0
61.545605,61.848236,63,39,0
61.545605,61.848236,60,35,0
61.848236,62.159054,63,39,0
61.848236,62.159054,60,35,0
61.545605,62.159054,68,59,0
62.46268,62.765316,65,36,0
62.46268,62.765316,60,31,0
62.159054,62.765316,67,63,0
62.765316,63.06208,68,59,0
62.765316,63.06208,65,36,0
62.765316,63.06208,60,31,0
63.06208,63.51905,70,68,0
63.51905,63.67037,71,61,0
63.367733,63.67037,68,36,0
63.367733,63.67037,62,31,0
63.67037,63.825775,70,59,0
63.825775,63.981182,71,52,0
63.67037,63.981182,68,36,0
63.67037,63.981182,62,31,0
64.29094,64.593575,63,40,0
64.29094,64.593575,61,36,0
64.593575,64.9084,63,39,0
64.593575,64.9084,61,35,0
63.981182,64.9084,67,59,0
65.51714,65.82062,63,39,0
65.218155,65.82062,68,59,0
66.124245,66.42688,68,31,0
66.124245,66.42688,63,28,0
65.82062,66.42688,70,59,0
66.42688,66.72364,72,56,0
67.324005,67.62763,67,38,0
67.324005,67.62763,63,34,0
67.02528,67.62763,73,63,0
67.93126,68.234886,63,30,0
67.93126,68.234886,67,35,0
67.62763,68.234886,72,62,0
68.234886,68.53851,70,51,0
69.1509,69.46172,63,38,0
69.1509,69.46172,68,42,0
68.848274,69.46172,72,63,0
69.76535,70.06798,68,41,0
69.76535,70.06798,63,37,0
69.46172,70.06798,73,68,0
70.06798,70.364746,75,71,0
70.364746,70.58945,77,73,0
70.6991,70.92262,79,74,0
70.67717,70.92262,74,56,0
70.655235,70.92262,68,48,0
71.03227,71.35836,80,77,0
71.010345,71.35836,74,55,0
70.98841,71.35836,68,48,0
71.67086,71.98336,72,44,0
71.67086,71.98336,68,38,0
71.67086,71.98336,63,38,0
71.98336,72.29524,72,43,0
71.35836,72.29524,75,81,0
71.98336,72.29524,63,38,0
71.98336,72.29524,68,38,0
72.6009,72.74241,78,59,0
72.74241,72.88392,77,56,0
72.88392,73.03932,75,59,0
73.03932,73.19473,78,56,0
73.19473,73.6517,77,62,0
73.6517,73.80302,73,59,0
73.80302,73.95843,70,55,0
73.95843,74.11384,65,50,0
74.41949,74.56407,80,66,0
74.56407,74.70865,79,61,0
74.70865,74.859024,77,64,0
74.859024,75.01406,80,60,0
75.01406,75.47103,79,68,0
75.47103,75.62235,76,61,0
75.62235,75.777756,72,59,0
75.777756,75.93317,67,55,0
76.23882,76.388664,82,70,0
76.388664,76.538506,80,64,0
76.538506,76.69392,79,69,0
76.69392,76.84932,82,63,0
76.84932,77.3063,80,72,0
77.3063,77.45761,77,64,0
77.45761,77.61302,71,62,0
77.61302,77.768425,68,58,0
77.768425,78.22753,77,64,0
78.22753,78.38099,73,58,0
78.38099,78.54056,70,56,0
78.54056,78.700134,67,51,0
78.700134,79.165695,70,58,0
79.165695,79.318756,68,51,0
79.318756,79.47876,63,49,0
79.47876,79.6445,60,46,0
79.95272,81.16143,68,51,0
81.16143,82.0729,66,51,0
82.0729,82.82768,64,51,0
82.82768,82.97797,63,46,0
82.97797,83.13035,62,49,0
83.13035,83.28273,63,47,0
83.59095,84.79455,68,51,0
85.70479,86.45401,76,68,0
86.45401,86.60429,75,56,0
86.60429,86.756676,71,59,0
84.79455,86.756676,66,51,0
86.756676,86.90906,66,55,0
87.21727,88.4194,68,51,0
88.4194,89.33088,66,51,0
89.33088,90.08353,64,51,0
90.08353,90.232414,63,46,0
90.232414,90.384796,62,49,0
90.384796,90.537186,63,47,0
90.8454,92.048996,68,51,0
92.048996,92.960785,66,51,0
92.960785,93.40804,67,63,0
93.40804,93.559,75,63,0
93.559,93.70928,71,64,0
93.70928,93.85956,70,61,0
93.85956,94.16638,68,62,0
94.16638,94.618805,69,73,0
94.618805,94.767685,73,68,0
94.767685,94.91806,78,72,0
94.91806,95.07035,81,68,0
95.07035,95.6832,80,75,0
95.07035,95.6832,68,67,0
95.6832,95.98838,78,72,0
95.6832,95.98838,66,64,0
95.07035,95.98838,73,64,0
96.2966,96.90277,71,52,0
96.2966,96.90277,59,52,0
96.2966,96.90277,66,52,0
96.2966,96.90277,69,52,0
96.90277,96.978966,73,70,0
96.90277,96.978966,61,63,0
96.90277,96.978966,66,63,0
96.90277,96.978966,69,63,0
97.20754,97.28373,75,64,0
97.20754,97.28373,63,57,0
97.20754,97.28373,66,57,0
97.20754,97.28373,69,57,0
97.512314,97.5885,76,62,0
97.512314,97.5885,68,55,0
97.512314,97.5885,64,55,0
97.81708,98.27381,66,63,0
98.27381,98.422325,65,57,0
98.422325,98.5727,68,64,0
98.5727,98.72498,66,58,0
98.72498,99.02956,75,63,0
99.02956,99.33412,73,61,0
99.33412,99.64012,71,61,0
99.94821,100.55457,71,53,0
99.94821,100.55457,64,53,0
99.94821,100.55457,59,53,0
100.859344,101.47346,68,53,0
100.859344,101.47346,64,48,0
100.859344,101.47346,56,48,0
101.47346,101.92551,69,73,0
101.92551,102.07402,73,68,0
102.07402,102.226616,78,72,0
102.226616,102.37921,81,68,0
102.37921,102.99206,80,75,0
102.37921,102.99206,68,67,0
102.99206,103.29725,78,72,0
102.99206,103.29725,66,64,0
102.37921,103.29725,73,64,0
103.60546,104.21163,71,52,0
103.60546,104.21163,59,52,0
103.60546,104.21163,66,52,0
103.60546,104.21163,69,52,0
104.21163,104.28783,73,70,0
104.21163,104.28783,61,63,0
104.21163,104.28783,66,63,0
104.21163,104.28783,69,63,0
104.5164,104.5926,75,64,0
104.5164,104.5926,63,57,0
104.5164,104.5926,66,57,0
104.5164,104.5926,69,57,0
104.821175,104.89737,76,62,0
104.821175,104.89737,68,55,0
104.821175,104.89737,64,55,0
105.125946,105.582306,66,63,0
105.582306,105.73045,65,57,0
105.73045,105.88284,68,64,0
105.88284,106.035225,66,58,0
106.035225,106.34,75,63,0
106.34,106.64477,73,61,0
106.64477,106.95076,71,61,0
107.25885,107.86522,71,53,0
107.25885,107.86522,64,53,0
107.25885,107.86522,59,53,0
108.17777,108.25693,70,57,0
108.17777,108.25693,66,57,0
108.17777,108.25693,64,57,0
108.49439,108.57591,71,62,0
108.49439,108.57591,66,55,0
108.49439,108.57591,63,55,0
109.12869,110.33012,68,51,0
110.33012,111.24012,66,51,0
111.24012,111.99241,64,51,0
111.99241,112.14019,63,46,0
112.14019,112.29257,62,49,0
112.29257,112.44496,63,47,0
112.753174,113.95678,68,51,0
114.86741,115.619125,76,68,0
115.619125,115.7694,75,50,0
115.7694,115.92179,71,55,0
113.95678,115.92179,66,51,0
115.92179,116.07417,66,47,0
116.382385,117.58598,68,51,0
117.58598,118.49821,66,51,0
118.49821,119.2516,64,51,0
119.2516,119.39975,63,46,0
119.39975,119.55214,62,49,0
119.55214,119.70452,63,47,0
120.01274,121.21634,68,51,0
121.21634,122.127815,66,56,0
122.127815,123.02919,67,59,0
123.02919,123.33354,68,59,0
123.78677,123.93566,70,55,0
123.93566,124.08804,71,59,0
124.08804,124.240425,70,56,0
124.240425,124.84181,73,60,0
124.84181,125.14781,71,56,0
125.60104,125.74992,74,57,0
125.74992,125.90231,76,61,0
125.90231,126.054695,74,58,0
126.054695,126.66547,76,63,0
126.66547,126.971466,75,58,0
127.42433,127.572845,70,55,0
127.572845,127.72523,71,59,0
127.72523,127.87762,70,56,0
127.87762,128.48389,73,60,0
128.48389,128.78989,71,56,0
129.24348,129.39275,74,57,0
129.39275,129.54659,76,61,0
129.54659,129.70044,74,58,0
129.70044,130.17003,76,67,0
130.17003,130.32468,75,58,0
130.32468,130.47893,74,62,0
130.47893,130.6332,75,58,0
130.6332,131.10318,76,67,0
131.10318,131.2615,75,58,0
131.2615,131.42322,74,62,0
131.42322,131.58495,75,58,0
131.58495,131.75717,82,70,0
131.75717,131.90833,80,69,0
131.90833,132.06009,79,68,0
132.06009,132.21242,76,67,0
132.21242,132.36528,75,64,0
132.36528,132.51883,73,62,0
132.51883,132.6702,76,68,0
132.6702,132.82182,75,67,0
132.82182,132.9738,73,66,0
132.9738,133.12611,71,64,0
133.12611,133.27878,70,64,0
133.27878,133.43178,68,63,0
133.43178,133.5851,67,60,0
133.5851,133.73953,68,60,0
133.73953,133.89517,69,59,0
133.89517,134.05183,70,58,0
134.05183,134.20973,71,57,0
134.20973,134.36888,72,57,0
134.36888,134.52888,73,59,0
134.52888,134.69373,72,53,0
134.69373,134.85788,75,58,0
134.85788,135.02635,73,56,0
135.02635,135.19957,72,53,0
135.19957,135.39409,70,51,0
135.99745,136.30003,63,39,0
135.69847,136.30003,68,59,0
136.59901,136.90164,68,31,0
136.59901,136.90164,63,28,0
136.30003,136.90164,70,59,0
136.90164,137.19841,72,57,0
137.79877,138.1024,67,38,0
137.79877,138.1024,63,34,0
137.50005,138.1024,73,63,0
138.40602,138.70966,63,30,0
138.40602,138.70966,67,35,0
138.1024,138.70966,72,62,0
138.70966,139.01328,70,51,0
139.62567,139.9365,63,38,0
139.62567,139.9365,68,42,0
139.32304,139.9365,72,63,0
140.24011,140.54276,68,41,0
140.24011,140.54276,63,37,0
139.9365,140.54276,73,68,0
140.54276,140.83951,75,71,0
140.83951,141.06721,77,73,0
141.17686,141.40514,79,74,0
141.15492,141.40514,74,56,0
141.133,141.40514,68,51,0
141.51447,141.85345,80,77,0
141.4926,141.85345,74,56,0
141.47073,141.85345,68,51,0
142.17517,142.49689,72,44,0
142.17517,142.49689,68,38,0
142.17517,142.49689,63,38,0
142.49689,142.80876,72,43,0
141.85345,142.80876,75,81,0
142.49689,142.80876,63,38,0
142.49689,142.80876,68,38,0
143.11443,143.26184,78,59,0
143.26184,143.40926,77,56,0
143.40926,143.56467,75,59,0
143.56467,143.72008,78,56,0
143.72008,144.17705,77,62,0
144.17705,144.32837,73,59,0
144.32837,144.48378,70,55,0
144.48378,144.63919,65,50,0
144.94484,145.09299,76,59,0
145.09299,145.24113,75,56,0
145.24113,145.39655,73,59,0
145.39655,145.55196,76,56,0
145.55196,146.00893,75,62,0
146.00893,146.16023,72,59,0
146.16023,146.31564,68,57,0
146.31564,146.47105,63,52,0
146.7808,147.08345,63,39,0
146.7808,147.08345,60,35,0
147.08345,147.39426,63,39,0
147.08345,147.39426,60,35,0
146.7808,147.39426,68,59,0
147.69789,148.00052,65,36,0
147.69789,148.00052,60,31,0
147.39426,148.00052,67,63,0
148.00052,148.29729,68,59,0
148.00052,148.29729,65,36,0
148.00052,148.29729,60,31,0
148.29729,148.75426,70,68,0
148.75426,148.9093,71,61,0
148.60294,148.9093,68,36,0
148.60294,148.9093,62,31,0
148.9093,149.06718,70,59,0
149.06718,149.22508,71,52,0
148.9093,149.22508,68,36,0
148.9093,149.22508,62,31,0
149.53484,149.83748,63,40,0
149.53484,149.83748,61,36,0
149.83748,150.1523,63,39,0
149.83748,150.1523,61,35,0
149.22508,150.1523,67,59,0
150.76105,151.06451,63,39,0
150.46207,151.06451,68,59,0
151.36815,151.67078,68,31,0
151.36815,151.67078,63,28,0
151.06451,151.67078,70,57,0
151.67078,151.96754,72,57,0
152.5679,152.87154,67,38,0
152.5679,152.87154,63,34,0
152.2692,152.87154,73,63,0
153.17516,153.47879,63,30,0
153.17516,153.47879,67,35,0
152.87154,153.47879,72,62,0
153.47879,153.78241,70,51,0
154.3948,154.70563,63,38,0
154.3948,154.70563,68,42,0
154.09218,154.70563,72,63,0
155.00925,155.31189,68,41,0
155.00925,155.31189,63,37,0
154.70563,155.31189,73,68,0
155.31189,155.60864,75,71,0
155.60864,155.83046,77,73,0
155.94043,156.1628,79,74,0
155.91844,156.1628,74,56,0
155.89644,156.1628,68,48,0
156.27245,156.59853,80,77,0
156.25052,156.59853,74,55,0
156.22858,156.59853,68,48,0
156.91682,157.23514,72,44,0
156.91682,157.23514,68,38,0
156.91682,157.23514,63,38,0
157.23514,157.54701,72,43,0
156.59853,157.54701,75,81,0
157.23514,157.54701,63,38,0
157.23514,157.54701,68,38,0
157.85268,157.99586,78,59,0
157.99586,158.13907,77,56,0
158.13907,158.29448,75,59,0
158.29448,158.44987,78,56,0
158.44987,158.90686,77,62,0
158.90686,159.05817,73,59,0
159.05817,159.21358,70,55,0
159.21358,159.36899,65,50,0
159.66824,159.81317,80,66,0
159.81317,159.9581,79,61,0
159.9581,160.1135,77,64,0
160.1135,160.2689,80,60,0
160.2689,160.72588,79,68,0
160.72588,160.8772,76,61,0
160.8772,161.03261,72,59,0
161.03261,161.18802,67,55,0
161.78337,162.08485,72,46,0
161.78337,162.08485,66,46,0
161.48924,162.08485,74,70,0
162.38287,162.6872,72,37,0
162.38287,162.6872,67,34,0
162.08485,162.6872,76,70,0
162.6872,162.98563,79,70,0
163.57878,163.88123,71,45,0
163.57878,163.88123,65,39,0
163.28539,163.88123,74,75,0
163.88123,164.47813,76,73,0
164.47813,164.78146,72,61,0
164.18011,164.78146,64,36,0
164.18011,164.78146,67,40,0
165.37695,165.68028,66,45,0
165.37695,165.68028,72,50,0
165.0821,165.68028,74,71,0
165.98184,166.27898,72,48,0
165.98184,166.27898,67,44,0
165.68028,166.27898,76,73,0
166.27898,166.58102,79,69,0
166.58102,167.03717,74,73,0
167.03717,167.18779,76,70,0
166.88657,167.18779,71,44,0
166.88657,167.18779,65,42,0
167.18779,167.34187,74,64,0
167.34187,167.49594,76,60,0
167.18779,167.49594,71,44,0
167.18779,167.49594,65,45,0
167.49594,167.95209,72,66,0
167.95209,168.10916,76,55,0
168.10916,168.27176,75,58,0
168.27176,168.43437,76,56,0
168.43437,168.90277,72,66,0
168.90277,169.05623,76,55,0
169.05623,169.21289,75,58,0
169.21289,169.36955,76,56,0
169.36955,169.52379,72,66,0
169.52379,169.67531,76,55,0
169.67531,169.82915,75,58,0
169.82915,169.983,76,55,0
169.983,170.13528,72,62,0
170.13528,170.28505,76,56,0
170.28505,170.43733,75,59,0
170.43733,170.58879,76,55,0
170.58879,170.73941,72,63,0
170.73941,170.88876,76,55,0
170.88876,171.04066,75,58,0
171.04066,171.19257,76,56,0
171.19257,171.34181,73,59,0
171.34181,171.49327,77,55,0
171.49327,171.64215,76,64,0
171.64215,171.78958,77,56,0
171.78958,171.93921,73,60,0
171.93921,172.08884,77,58,0
172.08884,172.23698,76,62,0
172.23698,172.3866,77,58,0
172.37975,172.52866,73,68,0
172.53546,172.68217,77,60,0
172.68217,172.83179,76,63,0
172.83179,172.98141,77,62,0
173.1292,173.28067,77,62,0
173.27373,173.42438,76,72,0
173.43129,173.58063,77,63,0
173.58063,173.7321,80,75,0
173.7321,173.88486,79,71,0
172.98141,173.88486,71,67,0
173.88486,174.3367,75,82,0
174.3367,174.48859,76,70,0
174.48859,174.64047,79,72,0
174.64047,174.79237,84,68,0
174.94255,175.09402,75,62,0
175.09402,175.24463,74,72,0
175.24463,175.39398,75,63,0
175.39398,175.54544,78,70,0
175.54544,175.69821,77,66,0
174.79237,175.69821,69,67,0
175.69821,176.15005,72,72,0
176.15005,176.30194,73,68,0
176.30194,176.45383,77,69,0
176.45383,176.60573,82,67,0
176.60573,177.05756,69,72,0
177.05756,177.20946,70,67,0
177.20946,177.36134,73,70,0
177.36134,177.51323,80,66,0
177.51323,177.66867,79,66,0
177.66867,177.82411,77,60,0
177.82411,177.97955,75,61,0
177.97955,178.135,74,56,0
178.135,178.29044,77,59,0
178.29044,178.44588,75,56,0
178.44588,178.59894,73,59,0
178.59894,178.7504,77,55,0
178.7504,178.90102,76,64,0
178.90102,179.05037,77,56,0
179.05037,179.20265,73,60,0
179.20265,179.35493,77,58,0
179.35493,179.50569,76,62,0
179.50569,179.65875,77,58,0
179.65173,179.80188,73,68,0
179.80875,179.95653,77,60,0
179.95653,180.10616,76,63,0
180.10616,180.25578,77,62,0
180.40598,180.55743,77,62,0
180.55049,180.70116,76,72,0
180.70805,180.8574,77,63,0
180.8574,181.00887,80,75,0
181.00887,181.16164,79,71,0
180.25578,181.16164,71,67,0
181.16164,181.61346,75,82,0
181.61346,181.76535,76,69,0
181.76535,181.91725,79,72,0
181.91725,182.06914,84,69,0
182.21933,182.37079,75,62,0
182.37079,182.52141,74,72,0
182.52141,182.67076,75,63,0
182.67076,182.82222,78,69,0
182.82222,182.97498,77,66,0
182.06914,182.97498,69,67,0
182.97498,183.42682,72,74,0
183.42682,183.5787,73,67,0
183.5787,183.7306,77,70,0
183.7306,183.88249,82,64,0
183.88249,184.33434,69,68,0
184.33434,184.48622,70,60,0
184.48622,184.6381,72,62,0
184.6381,184.79001,73,59,0
184.79001,185.24184,66,63,0
185.24184,185.39374,67,57,0
185.39374,185.54562,69,59,0
185.54562,185.69751,70,56,0
186.30087,186.60345,63,39,0
186.00189,186.60345,68,59,0
186.90244,187.20506,68,31,0
186.90244,187.20506,63,28,0
186.60345,187.20506,70,59,0
187.20506,187.50183,72,59,0
188.10219,188.40582,67,38,0
188.10219,188.40582,63,34,0
187.80348,188.40582,73,63,0
188.70944,189.01308,63,30,0
188.70944,189.01308,67,35,0
188.40582,189.01308,72,62,0
189.01308,189.31671,70,51,0
189.9291,190.23991,63,38,0
189.9291,190.23991,68,42,0
189.62646,190.23991,72,63,0
190.54839,190.8553,68,41,0
190.54839,190.8553,63,37,0
190.23991,190.8553,73,68,0
190.8553,191.16943,75,71,0
191.16943,191.39655,77,73,0
191.50652,191.7373,79,74,0
191.48453,191.7373,74,56,0
191.46252,191.7373,68,51,0
191.84727,192.18155,80,77,0
191.82529,192.18155,74,56,0
191.8033,192.18155,68,51,0
192.50327,192.82498,72,47,0
192.50327,192.82498,68,41,0
192.50327,192.82498,63,41,0
192.82498,193.13686,72,46,0
192.18155,193.13686,75,81,0
192.82498,193.13686,63,41,0
192.82498,193.13686,68,41,0
193.44252,193.58435,78,59,0
193.58435,193.7262,77,56,0
193.7262,193.8762,75,59,0
193.8762,194.03204,78,56,0
194.03204,194.48901,77,62,0
194.48901,194.64034,73,59,0
194.64034,194.79575,70,55,0
194.79575,194.95116,65,50,0
195.2568,195.40422,76,59,0
195.40422,195.55165,75,56,0
195.55165,195.70705,73,59,0
195.70705,195.86246,76,56,0
195.86246,196.31943,75,62,0
196.31943,196.47075,72,59,0
196.47075,196.62616,68,57,0
196.62616,196.78157,63,52,0
197.09132,197.39395,63,39,0
197.09132,197.39395,60,35,0
197.39395,197.70477,63,39,0
197.39395,197.70477,60,35,0
197.09132,197.70477,68,59,0
198.00839,198.31104,65,36,0
198.00839,198.31104,60,31,0
197.70477,198.31104,67,63,0
198.31104,198.6078,68,59,0
198.31104,198.6078,65,36,0
198.31104,198.6078,60,31,0
198.6078,199.06477,70,68,0
199.06477,199.21608,71,61,0
198.91345,199.21608,68,36,0
198.91345,199.21608,62,31,0
199.21608,199.37149,70,59,0
199.37149,199.5269,71,52,0
199.21608,199.5269,68,36,0
199.21608,199.5269,62,31,0
199.84352,200.15521,63,40,0
199.84352,200.15521,61,36,0
200.15521,200.48041,63,39,0
200.15521,200.48041,61,35,0
199.5269,200.48041,67,59,0
201.08916,201.39262,63,39,0
200.79018,201.39262,68,59,0
201.69626,201.99889,68,31,0
201.69626,201.99889,63,28,0
201.39262,201.99889,70,59,0
201.99889,202.29565,72,59,0
202.89601,203.19965,67,38,0
202.89601,203.19965,63,34,0
202.5973,203.19965,73,63,0
203.50327,203.8069,63,30,0
203.50327,203.8069,67,35,0
203.19965,203.8069,72,62,0
203.8069,204.11053,70,51,0
204.72292,205.03374,63,38,0
204.72292,205.03374,68,42,0
204.42029,205.03374,72,63,0
205.33736,205.64,68,41,0
205.33736,205.64,63,37,0
205.03374,205.64,73,68,0
205.64,205.93677,75,71,0
205.93677,206.15912,77,73,0
206.26877,206.49174,79,74,0
206.24684,206.49174,74,56,0
206.22491,206.49174,68,48,0
206.60172,206.93504,80,77,0
206.57971,206.93504,74,55,0
206.55772,206.93504,68,48,0
207.25937,207.5837,72,44,0
207.25937,207.5837,68,38,0
207.25937,207.5837,63,38,0
207.5837,207.89557,72,43,0
206.93504,207.89557,75,81,0
207.5837,207.89557,63,38,0
207.5837,207.89557,68,38,0
208.20123,208.34546,78,59,0
208.34546,208.48969,77,56,0
208.48969,208.6451,75,59,0
208.6451,208.8005,78,56,0
208.8005,209.25748,77,62,0
209.25748,209.4088,73,59,0
209.4088,209.5642,70,55,0
209.5642,209.7196,65,50,0
210.02527,210.17511,80,66,0
210.17511,210.32495,79,61,0
210.32495,210.48036,77,64,0
210.48036,210.63577,80,60,0
210.63577,211.09274,79,68,0
211.09274,211.24405,76,61,0
211.24405,211.39946,72,59,0
211.39946,211.55487,67,55,0
211.86052,212.01036,82,70,0
212.01036,212.1602,80,64,0
212.1602,212.31561,79,69,0
212.31561,212.47102,82,63,0
212.47102,212.928,80,72,0
212.928,213.07932,77,64,0
213.07932,213.23473,71,62,0
213.23473,213.39014,68,58,0
213.39014,213.8471,77,64,0
213.8471,213.99841,73,58,0
213.99841,214.15475,70,56,0
214.15475,214.3111,67,51,0
214.3111,214.77113,70,58,0
214.77113,214.92303,68,51,0
214.92303,215.08205,63,49,0
215.08205,215.24106,60,46,0
215.53809,215.82794,62,39,0
215.53809,215.82794,59,39,0
215.82794,216.12134,62,39,0
215.82794,216.12134,59,39,0
215.53809,216.12134,65,59,0
216.4112,216.70174,62,39,0
216.4112,216.70174,59,39,0
216.12134,216.70174,67,61,0
216.70174,216.98666,68,59,0
216.70174,216.98666,62,39,0
216.70174,216.98666,59,39,0
216.98666,217.27042,67,48,0
216.98666,217.27042,63,42,0
216.98666,217.27042,60,42,0
217.54819,217.83054,67,52,0
217.54819,217.83054,63,47,0
217.54819,217.83054,60,47,0
218.10704,218.38832,60,46,0
218.10704,218.38832,63,51,0
218.94899,219.21988,64,42,0
218.94899,219.21988,59,42,0
219.21988,219.49771,64,42,0
219.21988,219.49771,59,42,0
218.94899,219.49771,68,64,0
219.76968,220.04686,64,42,0
219.76968,220.04686,59,42,0
219.49771,220.04686,70,67,0
220.04686,220.31949,71,64,0
220.04686,220.31949,64,42,0
220.04686,220.31949,59,42,0
220.31949,220.59402,72,52,0
220.31949,220.59402,63,46,0
220.31949,220.59402,60,46,0
220.86429,221.13882,72,58,0
220.86429,221.13882,63,52,0
220.86429,221.13882,60,52,0
221.40971,221.68556,60,51,0
221.40971,221.68556,72,57,0
221.40971,221.68556,63,52,0
222.22867,222.49773,74,48,0
222.22867,222.49773,71,48,0
222.49773,222.77187,74,48,0
222.49773,222.77187,71,48,0
222.22867,222.77187,77,72,0
223.04213,223.31691,74,48,0
223.04213,223.31691,71,48,0
222.77187,223.31691,79,76,0
223.31691,223.58913,80,73,0
223.31691,223.58913,74,48,0
223.31691,223.58913,71,48,0
223.58913,223.86133,79,60,0
223.58913,223.86133,75,53,0
223.58913,223.86133,72,53,0
224.128,224.39835,79,66,0
224.128,224.39835,75,59,0
224.128,224.39835,72,59,0
224.6656,224.93974,72,59,0
224.6656,224.93974,75,65,0
225.48393,225.74942,76,54,0
225.48393,225.74942,71,54,0
225.74942,226.01886,76,54,0
225.74942,226.01886,71,54,0
225.48393,226.01886,80,83,0
226.28552,226.5562,76,55,0
226.28552,226.5562,71,55,0
226.01886,226.5562,82,87,0
226.5562,226.8246,83,86,0
226.5562,226.8246,76,56,0
226.5562,226.8246,71,56,0
226.8246,227.09845,84,68,0
226.8246,227.09845,75,61,0
226.8246,227.09845,72,61,0
227.36102,227.63046,84,75,0
227.36102,227.63046,75,67,0
227.36102,227.63046,72,67,0
227.89304,228.16559,72,67,0
227.89304,228.16559,84,75,0
227.89304,228.16559,75,68,0
228.72556,229.29027,76,76,0
228.72556,229.29027,88,87,0
228.72556,229.29027,83,76,0
228.72556,229.29027,80,76,0
229.29027,229.35844,87,82,0
229.42664,229.49481,84,76,0
229.56299,229.63164,80,79,0
229.70029,229.76894,75,77,0
229.83759,229.90752,72,80,0
230.40646,230.96988,64,69,0
230.40646,230.96988,76,77,0
230.40646,230.96988,71,69,0
230.40646,230.96988,68,69,0
230.96988,231.0408,75,78,0
231.11172,231.18265,72,72,0
231.25357,231.3245,68,75,0
231.39542,231.46632,63,72,0
231.53725,231.60954,60,76,0
231.82642,231.89767,75,74,0
231.96893,232.04019,72,67,0
232.11145,232.18443,68,71,0
232.25743,232.33043,63,67,0
232.40341,232.47641,60,71,0
232.69539,232.76767,75,65,0
232.83997,232.91226,72,60,0
232.98454,233.05826,68,62,0
233.13196,233.20567,63,59,0
233.27939,233.35309,60,62,0
233.57422,233.64668,75,61,0
233.71915,233.79161,72,56,0
233.86407,233.93738,68,58,0
234.01108,234.0848,63,55,0
234.15851,234.23221,60,58,0
234.45334,234.52667,75,56,0
234.6,234.67332,72,51,0
234.74666,234.82037,68,53,0
234.89407,234.96779,63,51,0
235.0415,235.1152,60,55,0
235.48691,235.63747,60,46,0
235.63747,235.78677,63,48,0
235.78677,235.93646,68,49,0
235.93646,236.08696,72,51,0
236.08696,236.23825,75,52,0
236.23825,236.38976,77,55,0
236.38976,236.54079,75,52,0
236.54079,236.69128,72,51,0
236.69128,236.8417,68,49,0
236.8417,236.99234,72,51,0
236.99234,237.1433,75,55,0
237.1433,237.21924,80,58,0
237.4471,237.52422,80,55,0
237.4471,237.52422,84,55,0
237.75557,237.8341,80,55,0
237.75557,237.8341,84,55,0
237.75557,237.8341,87,55,0
238.06972,238.14824,80,57,0
238.06972,238.14824,84,57,0
238.06972,238.14824,92,57,0
0.0,0.304383,44,37,0
0.304383,0.603366,51,27,0
0.304383,0.603366,60,32,0
0.304383,0.603366,56,27,0
0.603366,0.905938,56,24,0
0.603366,0.905938,60,27,0
0.603366,0.905938,51,24,0
0.905938,1.204921,39,44,0
1.204921,1.507554,56,19,0
1.204921,1.507554,60,22,0
1.204921,1.507554,51,19,0
1.507554,1.804319,56,26,0
1.507554,1.804319,60,29,0
1.507554,1.804319,51,26,0
1.804319,2.105963,46,39,0
2.105963,2.404679,51,30,0
2.105963,2.404679,55,30,0
2.105963,2.404679,61,34,0
2.404679,2.708307,51,22,0
2.404679,2.708307,55,22,0
2.404679,2.708307,61,25,0
2.708307,3.011935,39,39,0
3.011935,3.315563,51,20,0
3.011935,3.315563,55,20,0
3.011935,3.315563,61,23,0
3.315563,3.619191,61,32,0
3.315563,3.619191,55,27,0
3.315563,3.619191,51,27,0
3.619191,3.928948,44,50,0
3.928948,4.231581,51,33,0
3.928948,4.231581,60,36,0
3.928948,4.231581,56,33,0
4.231581,4.542397,51,27,0
4.231581,4.542397,56,27,0
4.231581,4.542397,60,33,0
4.542397,4.846025,39,55,0
4.846025,5.148658,54,27,0
4.846025,5.148658,60,32,0
4.846025,5.148658,56,27,0
5.148658,5.445423,54,34,0
5.148658,5.445423,60,37,0
5.148658,5.445423,56,34,0
5.445423,5.6677656,44,57,0
5.7114973,6.001775,59,44,0
5.6896315,6.001775,56,37,0
5.6677656,6.001775,53,31,0
6.0455065,6.434554,59,45,0
6.0236406,6.434554,56,40,0
6.001775,6.434554,53,33,0
6.434554,6.745435,44,63,0
6.745435,7.0563164,51,22,0
6.745435,7.0563164,60,25,0
6.745435,7.0563164,56,22,0
7.0563164,7.3681993,51,22,0
7.0563164,7.3681993,60,25,0
7.0563164,7.3681993,56,22,0
7.3681993,7.6738544,45,37,0
7.6738544,7.9665375,60,27,0
7.6738544,7.9665375,63,32,0
7.6738544,7.9665375,53,27,0
7.9665375,8.277353,53,24,0
7.9665375,8.277353,60,24,0
7.9665375,8.277353,63,27,0
8.277353,8.583009,46,37,0
8.583009,8.885641,53,27,0
8.583009,8.885641,61,32,0
8.583009,8.885641,58,27,0
8.885641,9.196457,53,24,0
8.885641,9.196457,58,24,0
8.885641,9.196457,61,27,0
9.196457,9.502112,43,37,0
9.502112,9.794795,51,27,0
9.502112,9.794795,61,32,0
9.502112,9.794795,58,27,0
9.794795,10.105612,51,24,0
9.794795,10.105612,58,24,0
9.794795,10.105612,61,27,0
10.105612,10.411266,44,37,0
10.411266,10.7139,56,27,0
10.411266,10.7139,60,32,0
10.411266,10.7139,51,27,0
10.7139,11.024715,51,24,0
10.7139,11.024715,56,24,0
10.7139,11.024715,60,27,0
11.024715,11.334473,42,37,0
11.334473,11.637105,54,31,0
11.334473,11.637105,56,36,0
11.637105,11.947922,56,30,0
11.637105,11.947922,54,27,0
11.947922,12.25155,41,44,0
12.25155,12.554182,53,25,0
12.25155,12.554182,56,28,0
12.554182,12.850947,56,33,0
12.554182,12.850947,53,29,0
12.850947,13.156602,40,37,0
13.156602,13.459235,56,36,0
13.156602,13.459235,52,31,0
13.459235,13.770051,56,30,0
13.459235,13.770051,52,27,0
13.770051,14.081739,39,37,0
14.081739,14.384373,58,34,0
14.081739,14.384373,51,29,0
14.384373,14.699201,51,25,0
14.384373,14.699201,58,28,0
14.699201,15.008957,44,37,0
15.008957,15.3079405,51,27,0
15.008957,15.3079405,60,32,0
15.008957,15.3079405,56,27,0
15.3079405,15.611415,56,24,0
15.3079405,15.611415,60,27,0
15.3079405,15.611415,51,24,0
15.611415,15.915043,39,44,0
15.915043,16.217676,56,19,0
15.915043,16.217676,60,22,0
15.915043,16.217676,51,19,0
16.217676,16.51444,56,26,0
16.217676,16.51444,60,29,0
16.217676,16.51444,51,26,0
16.51444,16.816086,46,39,0
16.816086,17.114801,51,30,0
16.816086,17.114801,55,30,0
16.816086,17.114801,61,34,0
17.114801,17.418428,51,22,0
17.114801,17.418428,55,22,0
17.114801,17.418428,61,25,0
17.418428,17.722057,39,39,0
17.722057,18.025686,51,20,0
17.722057,18.025686,55,20,0
17.722057,18.025686,61,23,0
18.025686,18.329313,61,32,0
18.025686,18.329313,55,27,0
18.025686,18.329313,51,27,0
18.329313,18.63907,44,38,0
18.63907,18.941704,51,30,0
18.63907,18.941704,60,34,0
18.63907,18.941704,56,30,0
18.941704,19.25252,51,26,0
18.941704,19.25252,56,26,0
18.941704,19.25252,60,30,0
19.25252,19.556147,39,55,0
19.556147,19.85878,54,27,0
19.556147,19.85878,60,32,0
19.556147,19.85878,56,27,0
19.85878,20.155546,54,34,0
19.85878,20.155546,60,37,0
19.85878,20.155546,56,34,0
20.155546,20.38385,44,56,0
20.42771,20.722416,59,44,0
20.405779,20.722416,56,36,0
20.38385,20.722416,53,29,0
20.766275,21.161736,59,45,0
20.744345,21.161736,56,39,0
20.722416,21.161736,53,33,0
21.161736,21.472616,44,59,0
21.472616,21.783497,51,22,0
21.472616,21.783497,60,25,0
21.472616,21.783497,56,22,0
21.783497,22.095379,51,22,0
21.783497,22.095379,60,25,0
21.783497,22.095379,56,22,0
22.095379,22.401035,45,37,0
22.401035,22.686071,60,31,0
22.401035,22.686071,63,36,0
22.401035,22.686071,53,31,0
22.686071,22.989624,53,27,0
22.686071,22.989624,60,27,0
22.686071,22.989624,63,30,0
22.989624,23.29528,46,37,0
23.29528,23.597912,53,31,0
23.29528,23.597912,61,36,0
23.29528,23.597912,58,31,0
23.597912,23.90873,53,27,0
23.597912,23.90873,58,27,0
23.597912,23.90873,61,30,0
23.90873,24.214384,47,42,0
24.214384,24.50494,65,37,0
24.214384,24.50494,62,33,0
24.214384,24.50494,55,33,0
24.50494,24.811094,55,28,0
24.50494,24.811094,62,28,0
24.50494,24.811094,65,31,0
24.811094,25.116749,48,38,0
25.116749,25.419382,60,33,0
25.116749,25.419382,64,37,0
25.116749,25.419382,55,33,0
25.419382,25.730198,55,28,0
25.419382,25.730198,60,28,0
25.419382,25.730198,64,31,0
25.730198,26.031433,48,44,0
26.031433,26.328568,60,37,0
26.031433,26.328568,62,42,0
26.031433,26.328568,56,37,0
26.328568,26.630053,56,31,0
26.328568,26.630053,60,31,0
26.328568,26.630053,62,36,0
26.630053,26.92807,48,45,0
26.92807,27.232391,64,29,0
26.92807,27.232391,60,26,0
26.92807,27.232391,55,26,0
27.232391,27.530825,55,35,0
27.232391,27.530825,64,38,0
27.232391,27.530825,60,35,0
27.530825,27.830584,48,46,0
27.830584,28.128603,62,45,0
27.830584,28.128603,56,39,0
27.830584,28.128603,53,39,0
28.128603,28.431053,56,29,0
28.128603,28.431053,62,34,0
28.128603,28.431053,53,29,0
28.431053,28.72993,48,46,0
28.72993,29.02795,60,30,0
28.72993,29.02795,55,27,0
29.02795,29.331285,55,37,0
29.02795,29.331285,60,42,0
29.331285,29.631933,48,45,0
29.631933,29.92995,56,39,0
29.631933,29.92995,62,45,0
29.631933,29.92995,60,39,0
29.92995,30.233288,56,35,0
29.92995,30.233288,60,35,0
29.92995,30.233288,62,39,0
30.233288,30.53484,48,44,0
30.53484,30.831974,55,35,0
30.53484,30.831974,64,38,0
30.53484,30.831974,60,35,0
30.831974,31.134027,55,38,0
30.831974,31.134027,64,43,0
30.831974,31.134027,60,38,0
31.134027,31.439558,48,44,0
31.439558,31.740793,56,35,0
31.439558,31.740793,62,39,0
31.439558,31.740793,53,35,0
31.740793,32.048943,53,31,0
31.740793,32.048943,56,31,0
31.740793,32.048943,62,36,0
32.048943,32.354473,48,44,0
32.354473,32.65571,55,29,0
32.354473,32.65571,64,34,0
32.354473,32.65571,60,29,0
32.96386,33.26939,48,44,0
33.26939,33.573067,60,29,0
33.26939,33.573067,64,34,0
33.26939,33.573067,55,29,0
33.88395,34.187763,48,44,0
34.187763,34.493107,55,29,0
34.187763,34.493107,64,34,0
34.187763,34.493107,60,29,0
35.69888,35.99758,58,44,0
35.99758,36.293884,65,37,0
35.99758,36.293884,61,33,0
36.293884,36.593136,65,38,0
36.293884,36.593136,61,34,0
36.593136,36.891285,56,46,0
36.891285,37.187588,58,34,0
36.891285,37.187588,61,34,0
36.891285,37.187588,65,38,0
37.187588,37.487587,58,35,0
37.187588,37.487587,61,35,0
37.187588,37.487587,65,39,0
37.487587,37.787933,55,49,0
37.787933,38.087902,65,40,0
37.787933,38.087902,59,36,0
37.787933,38.087902,62,36,0
38.087902,38.392128,59,36,0
38.087902,38.392128,62,36,0
38.087902,38.392128,65,41,0
38.392128,38.6942,48,55,0
38.6942,38.995857,55,44,0
38.6942,38.995857,60,44,0
38.6942,38.995857,67,44,0
38.995857,39.299637,67,49,0
38.995857,39.299637,55,49,0
38.995857,39.299637,60,49,0
39.299637,39.601288,53,49,0
39.601288,39.901257,57,36,0
39.601288,39.901257,60,36,0
39.601288,39.901257,65,40,0
39.901257,40.205482,57,36,0
39.901257,40.205482,60,36,0
39.901257,40.205482,65,41,0
40.205482,40.50755,46,52,0
40.50755,40.809208,65,39,0
40.50755,40.809208,58,39,0
40.50755,40.809208,61,39,0
40.809208,41.11299,65,44,0
40.809208,41.11299,58,44,0
40.809208,41.11299,61,44,0
41.11299,41.415062,49,48,0
41.415062,41.71672,61,39,0
41.415062,41.71672,58,39,0
41.415062,41.71672,65,39,0
41.71672,42.0205,61,39,0
41.71672,42.0205,58,39,0
41.71672,42.0205,65,39,0
42.0205,42.324284,51,48,0
42.324284,42.628067,58,35,0
42.324284,42.628067,63,39,0
42.324284,42.628067,61,35,0
42.628067,42.935757,58,36,0
42.628067,42.935757,63,40,0
42.628067,42.935757,61,36,0
42.935757,43.23989,58,45,0
43.23989,43.54179,61,34,0
43.23989,43.54179,65,38,0
43.54179,43.84471,65,39,0
43.54179,43.84471,61,35,0
43.84471,44.145058,56,48,0
44.145058,44.442093,65,40,0
44.145058,44.442093,58,36,0
44.145058,44.442093,61,36,0
44.442093,44.741344,65,41,0
44.442093,44.741344,58,37,0
44.442093,44.741344,61,37,0
44.741344,45.042995,55,52,0
45.042995,45.342964,62,39,0
45.042995,45.342964,59,39,0
45.042995,45.342964,65,43,0
45.342964,45.64719,65,44,0
45.342964,45.64719,59,39,0
45.342964,45.64719,62,39,0
45.64719,45.94926,48,58,0
45.94926,46.25092,67,49,0
45.94926,46.25092,55,49,0
45.94926,46.25092,60,49,0
46.25092,46.5547,55,49,0
46.25092,46.5547,60,49,0
46.25092,46.5547,67,49,0
46.5547,46.85635,53,49,0
46.85635,47.15632,65,40,0
46.85635,47.15632,57,36,0
46.85635,47.15632,60,36,0
47.15632,47.460545,57,36,0
47.15632,47.460545,60,36,0
47.15632,47.460545,65,41,0
47.460545,47.76261,46,52,0
47.76261,48.06427,65,39,0
47.76261,48.06427,58,39,0
47.76261,48.06427,61,39,0
48.06427,48.368053,65,44,0
48.06427,48.368053,58,44,0
48.06427,48.368053,61,44,0
48.368053,48.670124,49,48,0
48.670124,48.971783,61,39,0
48.670124,48.971783,58,39,0
48.670124,48.971783,65,39,0
48.971783,49.275562,65,39,0
48.971783,49.275562,58,39,0
48.971783,49.275562,61,39,0
49.275562,49.577633,51,45,0
49.577633,49.87929,63,37,0
49.577633,49.87929,58,37,0
49.577633,49.87929,61,37,0
49.87929,50.183075,61,37,0
49.87929,50.183075,58,37,0
49.87929,50.183075,63,37,0
50.183075,50.487457,44,37,0
50.487457,50.786438,60,32,0
50.487457,50.786438,56,27,0
50.487457,50.786438,51,27,0
50.786438,51.089012,56,24,0
50.786438,51.089012,60,27,0
50.786438,51.089012,51,24,0
51.089012,51.387993,39,44,0
51.387993,51.690628,60,22,0
51.387993,51.690628,56,19,0
51.387993,51.690628,51,19,0
51.690628,51.987392,60,29,0
51.690628,51.987392,56,26,0
51.690628,51.987392,51,26,0
51.987392,52.289036,46,39,0
52.289036,52.587753,55,30,0
52.289036,52.587753,61,34,0
52.289036,52.587753,51,30,0
52.587753,52.89138,55,22,0
52.587753,52.89138,61,25,0
52.587753,52.89138,51,22,0
52.89138,53.195007,39,39,0
53.195007,53.49864,55,20,0
53.195007,53.49864,51,20,0
53.195007,53.49864,61,23,0
53.49864,53.802265,55,27,0
53.49864,53.802265,51,27,0
53.49864,53.802265,61,32,0
53.802265,54.112022,44,51,0
54.112022,54.414654,60,36,0
54.112022,54.414654,56,33,0
54.112022,54.414654,51,33,0
54.414654,54.72547,56,27,0
54.414654,54.72547,60,33,0
54.414654,54.72547,51,27,0
54.72547,55.0291,39,59,0
55.0291,55.334442,60,32,0
55.0291,55.334442,56,27,0
55.0291,55.334442,54,27,0
55.334442,55.635952,60,37,0
55.334442,55.635952,56,34,0
55.334442,55.635952,54,34,0
55.635952,55.864254,44,52,0
55.908115,56.204056,59,44,0
55.886185,56.204056,56,37,0
55.864254,56.204056,53,31,0
56.247913,56.644283,59,45,0
56.225986,56.644283,56,40,0
56.204056,56.644283,53,33,0
56.644283,56.96007,44,57,0
56.96007,57.27586,60,25,0
56.96007,57.27586,56,22,0
56.96007,57.27586,51,22,0
57.27586,57.587746,60,25,0
57.27586,57.587746,56,22,0
57.27586,57.587746,51,22,0
57.587746,57.8934,45,37,0
57.8934,58.179794,63,36,0
57.8934,58.179794,60,31,0
57.8934,58.179794,53,31,0
58.179794,58.490612,60,27,0
58.179794,58.490612,63,30,0
58.179794,58.490612,53,27,0
58.490612,58.796265,46,37,0
58.796265,59.0989,61,36,0
58.796265,59.0989,58,31,0
58.796265,59.0989,53,31,0
59.0989,59.409714,58,27,0
59.0989,59.409714,61,30,0
59.0989,59.409714,53,27,0
59.409714,59.71537,43,37,0
59.71537,60.005928,61,36,0
59.71537,60.005928,58,31,0
59.71537,60.005928,51,31,0
60.005928,60.316742,58,27,0
60.005928,60.316742,61,30,0
60.005928,60.316742,51,27,0
60.316742,60.6224,44,37,0
60.6224,60.92503,60,36,0
60.6224,60.92503,56,31,0
60.6224,60.92503,51,31,0
60.92503,61.235847,56,27,0
60.92503,61.235847,60,30,0
60.92503,61.235847,51,27,0
61.235847,61.545605,42,37,0
61.545605,61.848236,56,36,0
61.545605,61.848236,54,31,0
61.848236,62.159054,54,27,0
61.848236,62.159054,56,30,0
62.159054,62.46268,41,44,0
62.46268,62.765316,56,28,0
62.46268,62.765316,53,25,0
62.765316,63.06208,56,33,0
62.765316,63.06208,53,29,0
63.06208,63.367733,40,37,0
63.367733,63.67037,56,36,0
63.367733,63.67037,52,31,0
63.67037,63.981182,56,30,0
63.67037,63.981182,52,27,0
63.981182,64.29094,39,37,0
64.29094,64.593575,58,34,0
64.29094,64.593575,51,29,0
64.593575,64.9084,51,25,0
64.593575,64.9084,58,28,0
64.9084,65.218155,44,37,0
65.218155,65.51714,60,32,0
65.218155,65.51714,56,27,0
65.218155,65.51714,51,27,0
65.51714,65.82062,56,24,0
65.51714,65.82062,60,27,0
65.51714,65.82062,51,24,0
65.82062,66.124245,39,44,0
66.124245,66.42688,60,22,0
66.124245,66.42688,56,19,0
66.124245,66.42688,51,19,0
66.42688,66.72364,60,29,0
66.42688,66.72364,56,26,0
66.42688,66.72364,51,26,0
66.72364,67.02528,46,39,0
67.02528,67.324005,55,30,0
67.02528,67.324005,61,34,0
67.02528,67.324005,51,30,0
67.324005,67.62763,55,22,0
67.324005,67.62763,61,25,0
67.324005,67.62763,51,22,0
67.62763,67.93126,39,39,0
67.93126,68.234886,55,20,0
67.93126,68.234886,51,20,0
67.93126,68.234886,61,23,0
68.234886,68.53851,55,27,0
68.234886,68.53851,51,27,0
68.234886,68.53851,61,32,0
68.53851,68.848274,44,38,0
68.848274,69.1509,60,34,0
68.848274,69.1509,56,30,0
68.848274,69.1509,51,30,0
69.1509,69.46172,56,26,0
69.1509,69.46172,60,30,0
69.1509,69.46172,51,26,0
69.46172,69.76535,39,55,0
69.76535,70.06798,60,32,0
69.76535,70.06798,56,27,0
69.76535,70.06798,54,27,0
70.06798,70.364746,60,37,0
70.06798,70.364746,56,34,0
70.06798,70.364746,54,34,0
70.364746,70.58945,44,57,0
70.63331,70.92262,59,44,0
70.611374,70.92262,56,36,0
70.58945,70.92262,53,29,0
70.966484,71.35836,59,45,0
70.94455,71.35836,56,39,0
70.92262,71.35836,53,33,0
71.35836,71.67086,44,63,0
71.67086,71.98336,60,25,0
71.67086,71.98336,56,22,0
71.67086,71.98336,51,22,0
71.98336,72.29524,60,25,0
71.98336,72.29524,56,22,0
71.98336,72.29524,51,22,0
72.29524,72.6009,45,37,0
72.6009,72.88392,63,36,0
72.6009,72.88392,60,31,0
72.6009,72.88392,53,31,0
72.88392,73.19473,60,27,0
72.88392,73.19473,63,30,0
72.88392,73.19473,53,27,0
73.19473,73.50039,46,37,0
73.50039,73.80302,61,36,0
73.50039,73.80302,58,31,0
73.50039,73.80302,53,31,0
73.80302,74.11384,58,27,0
73.80302,74.11384,61,30,0
73.80302,74.11384,53,27,0
74.11384,74.41949,47,42,0
74.41949,74.70865,62,33,0
74.41949,74.70865,55,33,0
74.41949,74.70865,65,37,0
74.70865,75.01406,62,28,0
74.70865,75.01406,65,31,0
74.70865,75.01406,55,28,0
75.01406,75.31972,48,38,0
75.31972,75.62235,64,37,0
75.31972,75.62235,60,33,0
75.31972,75.62235,55,33,0
75.62235,75.93317,60,28,0
75.62235,75.93317,64,31,0
75.62235,75.93317,55,28,0
75.93317,76.23882,49,45,0
76.23882,76.538506,61,35,0
76.23882,76.538506,58,35,0
76.23882,76.538506,65,39,0
76.538506,76.84932,61,29,0
76.538506,76.84932,65,34,0
76.538506,76.84932,58,29,0
76.84932,77.154976,50,40,0
77.154976,77.45761,65,39,0
77.154976,77.45761,59,35,0
77.154976,77.45761,56,35,0
77.45761,77.768425,59,29,0
77.45761,77.768425,65,34,0
77.45761,77.768425,56,29,0
77.768425,78.07408,51,36,0
78.07408,78.38099,63,35,0
78.07408,78.38099,61,30,0
78.07408,78.38099,55,30,0
78.38099,78.700134,61,26,0
78.38099,78.700134,63,29,0
78.38099,78.700134,55,26,0
78.700134,79.012634,44,31,0
79.012634,79.318756,60,30,0
79.012634,79.318756,56,27,0
79.012634,79.318756,51,27,0
79.318756,79.6445,56,23,0
79.318756,79.6445,60,26,0
79.318756,79.6445,51,23,0
79.6445,80.10342,59,47,0
80.10342,80.25412,58,44,0
80.25412,80.4065,61,47,0
80.4065,80.55889,58,42,0
79.95272,80.85666,52,39,0
80.55889,81.46705,59,46,0
80.85666,81.76556,51,47,0
81.46705,82.37141,59,47,0
81.76556,82.67741,49,45,0
82.67741,83.28273,47,48,0
82.37141,83.28273,59,47,0
83.28273,83.73983,59,47,0
83.73983,83.88872,58,44,0
83.88872,84.0411,61,47,0
84.0411,84.19348,58,42,0
83.59095,84.489784,52,39,0
84.19348,85.100174,59,46,0
84.489784,85.39794,51,47,0
85.100174,86.001816,59,47,0
85.39794,86.303734,49,45,0
86.303734,86.90906,47,48,0
86.001816,86.90906,59,47,0
86.90906,87.36542,59,47,0
87.36542,87.513565,58,44,0
87.513565,87.665955,61,47,0
87.665955,87.81834,58,42,0
87.21727,88.11463,52,39,0
87.81834,88.72503,59,46,0
88.11463,89.02354,51,47,0
88.72503,89.62865,59,47,0
89.02354,89.93465,49,45,0
89.93465,90.537186,47,48,0
89.62865,90.537186,59,47,0
90.537186,90.99391,59,47,0
90.99391,91.142426,58,44,0
91.142426,91.294815,61,47,0
91.294815,91.4472,58,42,0
90.8454,91.744225,52,39,0
91.4472,92.35462,59,46,0
91.744225,92.65313,51,47,0
92.65313,93.25708,51,45,0
92.35462,93.25708,58,47,0
93.25708,93.559,44,51,0
93.559,93.85956,59,42,0
93.559,93.85956,56,36,0
93.559,93.85956,51,36,0
94.16638,94.46992,54,57,0
94.46992,95.07035,66,52,0
94.46992,95.07035,57,46,0
94.46992,95.07035,61,46,0
95.07035,95.378006,52,57,0
95.378006,95.98838,61,51,0
95.378006,95.98838,57,45,0
95.98838,96.447296,51,57,0
96.447296,96.598,49,53,0
96.598,96.75038,52,58,0
96.75038,96.90277,51,53,0
96.90277,96.978966,49,56,0
97.20754,97.28373,48,52,0
97.512314,97.5885,47,52,0
97.81708,98.1253,46,52,0
98.1253,98.72498,54,39,0
98.1253,98.72498,52,39,0
98.1253,98.72498,61,44,0
98.72498,99.02956,45,50,0
99.02956,99.64012,59,39,0
99.02956,99.64012,54,34,0
99.02956,99.64012,51,34,0
99.64012,100.0993,44,56,0
100.092384,100.24309,43,51,0
100.24999,100.40219,45,57,0
100.3952,100.54759,44,52,0
100.55457,100.859344,49,56,0
100.859344,101.164116,47,53,0
101.164116,101.47346,40,53,0
101.47346,101.77699,54,57,0
101.77699,102.37921,66,52,0
101.77699,102.37921,57,46,0
101.77699,102.37921,61,46,0
102.37921,102.686874,52,57,0
102.686874,103.29725,61,51,0
102.686874,103.29725,57,45,0
103.29725,103.756165,51,57,0
103.756165,103.90687,49,53,0
103.90687,104.05925,52,58,0
104.05925,104.21163,51,53,0
104.21163,104.28783,49,56,0
104.5164,104.5926,48,52,0
104.821175,104.89737,47,52,0
105.125946,105.43416,46,52,0
105.43416,106.035225,54,39,0
105.43416,106.035225,52,39,0
105.43416,106.035225,61,44,0
106.035225,106.34,45,50,0
106.34,106.95076,59,39,0
106.34,106.95076,54,34,0
106.34,106.95076,51,34,0
106.95076,107.409935,44,56,0
107.40303,107.553734,43,51,0
107.56064,107.71283,45,57,0
107.70585,107.85823,44,52,0
107.86522,107.94234,51,56,0
108.17777,108.25693,49,52,0
108.49439,108.57591,47,52,0
108.82048,109.27758,59,47,0
109.27758,109.42646,58,44,0
109.42646,109.57885,61,47,0
109.57885,109.73123,58,42,0
109.12869,110.02535,52,39,0
109.73123,110.63574,59,46,0
110.02535,110.93277,51,47,0
110.63574,111.53863,59,47,0
110.93277,111.84463,49,45,0
111.84463,112.44496,47,48,0
111.53863,112.44496,59,47,0
112.44496,112.90206,59,47,0
112.90206,113.05094,58,44,0
113.05094,113.20332,61,47,0
113.20332,113.35571,58,42,0
112.753174,113.65201,52,39,0
113.35571,114.2624,59,46,0
113.65201,114.560165,51,47,0
114.2624,115.16693,59,47,0
114.560165,115.46885,49,45,0
115.46885,116.07417,47,48,0
115.16693,116.07417,59,47,0
116.07417,116.5309,59,47,0
116.5309,116.67941,58,44,0
116.67941,116.8318,61,47,0
116.8318,116.984184,58,42,0
116.382385,117.28122,52,39,0
116.984184,117.89161,59,46,0
117.28122,118.190865,51,47,0
117.89161,118.79746,59,47,0
118.190865,119.103455,49,45,0
119.103455,119.70452,47,48,0
118.79746,119.70452,59,47,0
119.70452,120.16162,59,47,0
120.16162,120.3105,58,44,0
120.3105,120.46289,61,47,0
120.46289,120.61527,58,42,0
120.01274,120.91157,52,39,0
120.61527,121.521965,59,46,0
120.91157,121.82047,51,47,0
121.521965,122.42707,61,50,0
121.521965,122.42707,58,50,0
121.82047,122.73142,51,48,0
122.42707,123.33354,63,52,0
122.42707,123.33354,59,52,0
122.73142,123.63789,51,49,0
123.33354,124.240425,55,47,0
123.33354,124.240425,63,52,0
123.33354,124.240425,61,47,0
123.63789,124.53746,51,49,0
124.53746,125.14781,51,49,0
124.240425,125.14781,63,47,0
124.240425,125.14781,59,41,0
124.240425,125.14781,56,41,0
125.45216,126.054695,51,51,0
125.14781,126.054695,59,44,0
125.14781,126.054695,63,44,0
125.14781,126.054695,68,49,0
126.35947,126.971466,51,51,0
126.054695,126.971466,58,44,0
126.054695,126.971466,61,44,0
126.054695,126.971466,67,49,0
126.971466,127.87762,63,47,0
126.971466,127.87762,55,41,0
126.971466,127.87762,61,41,0
127.27582,128.17953,51,49,0
128.17953,128.78989,51,49,0
127.87762,128.78989,63,47,0
127.87762,128.78989,59,41,0
127.87762,128.78989,56,41,0
129.09424,129.70044,51,51,0
128.78989,129.70044,59,44,0
128.78989,129.70044,63,44,0
128.78989,129.70044,68,49,0
130.0154,130.6332,51,51,0
129.70044,130.6332,58,44,0
129.70044,130.6332,61,44,0
129.70044,130.6332,67,49,0
130.94487,131.58495,51,51,0
130.6332,131.58495,58,44,0
130.6332,131.58495,61,44,0
130.6332,131.58495,67,49,0
135.39409,135.69847,44,37,0
135.69847,135.99745,60,32,0
135.69847,135.99745,56,27,0
135.69847,135.99745,51,27,0
135.99745,136.30003,56,24,0
135.99745,136.30003,60,27,0
135.99745,136.30003,51,24,0
136.30003,136.59901,39,44,0
136.59901,136.90164,60,22,0
136.59901,136.90164,56,19,0
136.59901,136.90164,51,19,0
136.90164,137.19841,60,29,0
136.90164,137.19841,56,26,0
136.90164,137.19841,51,26,0
137.19841,137.50005,46,39,0
137.50005,137.79877,55,30,0
137.50005,137.79877,61,34,0
137.50005,137.79877,51,30,0
137.79877,138.1024,55,22,0
137.79877,138.1024,61,25,0
137.79877,138.1024,51,22,0
138.1024,138.40602,39,39,0
138.40602,138.70966,55,20,0
138.40602,138.70966,51,20,0
138.40602,138.70966,61,23,0
138.70966,139.01328,55,27,0
138.70966,139.01328,51,27,0
138.70966,139.01328,61,32,0
139.01328,139.32304,44,38,0
139.32304,139.62567,60,34,0
139.32304,139.62567,56,30,0
139.32304,139.62567,51,30,0
139.62567,139.9365,56,26,0
139.62567,139.9365,60,30,0
139.62567,139.9365,51,26,0
139.9365,140.24011,39,55,0
140.24011,140.54276,60,32,0
140.24011,140.54276,56,27,0
140.24011,140.54276,54,27,0
140.54276,140.83951,60,37,0
140.54276,140.83951,56,34,0
140.54276,140.83951,54,34,0
140.83951,141.06721,44,56,0
141.11107,141.40514,59,44,0
141.08914,141.40514,56,37,0
141.06721,141.40514,53,31,0
141.44887,141.85345,59,45,0
141.427,141.85345,56,40,0
141.40514,141.85345,53,33,0
141.85345,142.17517,44,60,0
142.17517,142.49689,60,25,0
142.17517,142.49689,56,22,0
142.17517,142.49689,51,22,0
142.49689,142.80876,60,25,0
142.49689,142.80876,56,22,0
142.49689,142.80876,51,22,0
142.80876,143.11443,45,37,0
143.11443,143.40926,63,36,0
143.11443,143.40926,60,31,0
143.11443,143.40926,53,31,0
143.40926,143.72008,60,27,0
143.40926,143.72008,63,30,0
143.40926,143.72008,53,27,0
143.72008,144.02574,46,37,0
144.02574,144.32837,61,36,0
144.02574,144.32837,58,31,0
144.02574,144.32837,53,31,0
144.32837,144.63919,58,27,0
144.32837,144.63919,61,30,0
144.32837,144.63919,53,27,0
144.63919,144.94484,43,37,0
144.94484,145.24113,61,36,0
144.94484,145.24113,58,31,0
144.94484,145.24113,51,31,0
145.24113,145.55196,58,27,0
145.24113,145.55196,61,30,0
145.24113,145.55196,51,27,0
145.55196,145.8576,44,37,0
145.8576,146.16023,60,36,0
145.8576,146.16023,56,31,0
145.8576,146.16023,51,31,0
146.16023,146.47105,56,27,0
146.16023,146.47105,60,30,0
146.16023,146.47105,51,27,0
146.47105,146.7808,42,37,0
146.7808,147.08345,56,36,0
146.7808,147.08345,54,31,0
147.08345,147.39426,54,27,0
147.08345,147.39426,56,30,0
147.39426,147.69789,41,44,0
147.69789,148.00052,56,28,0
147.69789,148.00052,53,25,0
148.00052,148.29729,56,33,0
148.00052,148.29729,53,29,0
148.29729,148.60294,40,37,0
148.60294,148.9093,56,36,0
148.60294,148.9093,52,31,0
148.9093,149.22508,56,30,0
148.9093,149.22508,52,27,0
149.22508,149.53484,39,37,0
149.53484,149.83748,58,34,0
149.53484,149.83748,51,29,0
149.83748,150.1523,51,25,0
149.83748,150.1523,58,28,0
150.1523,150.46207,44,37,0
150.46207,150.76105,60,32,0
150.46207,150.76105,56,27,0
150.46207,150.76105,51,27,0
150.76105,151.06451,56,24,0
150.76105,151.06451,60,27,0
150.76105,151.06451,51,24,0
151.06451,151.36815,39,44,0
151.36815,151.67078,60,22,0
151.36815,151.67078,56,19,0
151.36815,151.67078,51,19,0
151.67078,151.96754,60,29,0
151.67078,151.96754,56,26,0
151.67078,151.96754,51,26,0
151.96754,152.2692,46,39,0
152.2692,152.5679,55,30,0
152.2692,152.5679,61,34,0
152.2692,152.5679,51,30,0
152.5679,152.87154,55,22,0
152.5679,152.87154,61,25,0
152.5679,152.87154,51,22,0
152.87154,153.17516,39,39,0
153.17516,153.47879,55,20,0
153.17516,153.47879,51,20,0
153.17516,153.47879,61,23,0
153.47879,153.78241,55,27,0
153.47879,153.78241,51,27,0
153.47879,153.78241,61,32,0
153.78241,154.09218,44,38,0
154.09218,154.3948,60,34,0
154.09218,154.3948,56,30,0
154.09218,154.3948,51,30,0
154.3948,154.70563,56,26,0
154.3948,154.70563,60,30,0
154.3948,154.70563,51,26,0
154.70563,155.00925,39,55,0
155.00925,155.31189,60,32,0
155.00925,155.31189,56,27,0
155.00925,155.31189,54,27,0
155.31189,155.60864,60,37,0
155.31189,155.60864,56,34,0
155.31189,155.60864,54,34,0
155.60864,155.83046,44,60,0
155.87445,156.1628,59,44,0
155.85245,156.1628,56,36,0
155.83046,156.1628,53,29,0
156.20665,156.59853,59,45,0
156.18472,156.59853,56,39,0
156.1628,156.59853,53,33,0
156.59853,156.91682,44,63,0
156.91682,157.23514,60,25,0
156.91682,157.23514,56,22,0
156.91682,157.23514,51,22,0
157.23514,157.54701,60,25,0
157.23514,157.54701,56,22,0
157.23514,157.54701,51,22,0
157.54701,157.85268,45,37,0
157.85268,158.13907,63,36,0
157.85268,158.13907,60,31,0
157.85268,158.13907,53,31,0
158.13907,158.44987,60,27,0
158.13907,158.44987,63,30,0
158.13907,158.44987,53,27,0
158.44987,158.75554,46,37,0
158.75554,159.05817,61,36,0
158.75554,159.05817,58,31,0
158.75554,159.05817,53,31,0
159.05817,159.36899,58,27,0
159.05817,159.36899,61,30,0
159.05817,159.36899,53,27,0
159.36899,159.66824,47,42,0
159.66824,159.9581,62,33,0
159.66824,159.9581,55,33,0
159.66824,159.9581,65,37,0
159.9581,160.2689,62,28,0
159.9581,160.2689,65,31,0
159.9581,160.2689,55,28,0
160.2689,160.57457,48,38,0
160.57457,160.8772,64,37,0
160.57457,160.8772,60,33,0
160.57457,160.8772,55,33,0
160.8772,161.18802,60,28,0
160.8772,161.18802,64,31,0
160.8772,161.18802,55,28,0
161.18802,161.48924,48,44,0
161.48924,161.78337,62,42,0
161.48924,161.78337,60,37,0
161.48924,161.78337,56,37,0
161.78337,162.08485,60,31,0
161.78337,162.08485,62,36,0
161.78337,162.08485,56,31,0
162.08485,162.38287,48,45,0
162.38287,162.6872,64,29,0
162.38287,162.6872,60,26,0
162.38287,162.6872,55,26,0
162.6872,162.98563,64,38,0
162.6872,162.98563,60,35,0
162.6872,162.98563,55,35,0
162.98563,163.28539,48,46,0
163.28539,163.57878,56,39,0
163.28539,163.57878,62,45,0
163.28539,163.57878,53,39,0
163.57878,163.88123,56,29,0
163.57878,163.88123,62,34,0
163.57878,163.88123,53,29,0
163.88123,164.18011,48,46,0
164.18011,164.47813,55,27,0
164.18011,164.47813,60,30,0
164.47813,164.78146,55,37,0
164.47813,164.78146,60,42,0
164.78146,165.0821,48,45,0
165.0821,165.37695,62,45,0
165.0821,165.37695,60,39,0
165.0821,165.37695,56,39,0
165.37695,165.68028,60,35,0
165.37695,165.68028,62,39,0
165.37695,165.68028,56,35,0
165.68028,165.98184,48,44,0
165.98184,166.27898,64,38,0
165.98184,166.27898,60,35,0
165.98184,166.27898,55,35,0
166.27898,166.58102,64,46,0
166.27898,166.58102,60,40,0
166.27898,166.58102,55,40,0
166.58102,166.88657,48,44,0
166.88657,167.18779,62,42,0
166.88657,167.18779,56,37,0
166.88657,167.18779,53,37,0
167.18779,167.49594,56,31,0
167.18779,167.49594,62,36,0
167.18779,167.49594,53,31,0
167.49594,167.80148,48,44,0
167.80148,168.10916,64,34,0
167.80148,168.10916,60,29,0
167.80148,168.10916,55,29,0
168.43437,168.74933,48,44,0
168.74933,169.05623,64,34,0
168.74933,169.05623,60,29,0
168.74933,169.05623,55,29,0
169.36955,169.67531,48,44,0
169.67531,169.983,64,34,0
169.67531,169.983,60,29,0
169.67531,169.983,55,29,0
171.19257,171.49327,58,44,0
171.49327,171.78958,61,33,0
171.49327,171.78958,65,37,0
171.78958,172.08884,61,34,0
171.78958,172.08884,65,38,0
172.08884,172.3866,56,46,0
172.3866,172.68217,58,34,0
172.3866,172.68217,61,34,0
172.3866,172.68217,65,38,0
172.68217,172.98141,58,35,0
172.68217,172.98141,61,35,0
172.68217,172.98141,65,39,0
172.98141,173.28067,55,49,0
173.28067,173.58063,59,36,0
173.28067,173.58063,62,36,0
173.28067,173.58063,65,40,0
173.58063,173.88486,59,36,0
173.58063,173.88486,62,36,0
173.58063,173.88486,65,41,0
173.88486,174.18694,48,55,0
174.18694,174.48859,55,44,0
174.18694,174.48859,60,44,0
174.18694,174.48859,67,44,0
174.48859,174.79237,55,49,0
174.48859,174.79237,60,49,0
174.48859,174.79237,67,49,0
174.79237,175.09402,53,49,0
175.09402,175.39398,57,36,0
175.09402,175.39398,60,36,0
175.09402,175.39398,65,40,0
175.39398,175.69821,57,36,0
175.39398,175.69821,60,36,0
175.39398,175.69821,65,41,0
175.69821,176.00027,46,52,0
176.00027,176.30194,58,39,0
176.00027,176.30194,61,39,0
176.00027,176.30194,65,39,0
176.30194,176.60573,58,44,0
176.30194,176.60573,61,44,0
176.30194,176.60573,65,44,0
176.60573,176.90779,49,48,0
176.90779,177.20946,58,39,0
176.90779,177.20946,61,39,0
176.90779,177.20946,65,39,0
177.20946,177.51323,58,39,0
177.20946,177.51323,61,39,0
177.20946,177.51323,65,39,0
177.51323,177.82411,51,48,0
177.82411,178.135,63,39,0
177.82411,178.135,61,35,0
177.82411,178.135,58,35,0
178.135,178.44588,63,39,0
178.135,178.44588,61,35,0
178.135,178.44588,58,35,0
178.44588,178.7504,58,44,0
178.7504,179.05037,61,33,0
178.7504,179.05037,65,37,0
179.05037,179.35493,61,34,0
179.05037,179.35493,65,38,0
179.35493,179.65875,56,46,0
179.65875,179.95653,58,34,0
179.65875,179.95653,61,34,0
179.65875,179.95653,65,38,0
179.95653,180.25578,58,35,0
179.95653,180.25578,61,35,0
179.95653,180.25578,65,39,0
180.25578,180.55743,55,49,0
180.55743,180.8574,59,36,0
180.55743,180.8574,62,36,0
180.55743,180.8574,65,40,0
180.8574,181.16164,59,36,0
180.8574,181.16164,62,36,0
180.8574,181.16164,65,41,0
181.16164,181.4637,48,55,0
181.4637,181.76535,55,49,0
181.4637,181.76535,60,49,0
181.4637,181.76535,67,49,0
181.76535,182.06914,55,49,0
181.76535,182.06914,60,49,0
181.76535,182.06914,67,49,0
182.06914,182.37079,53,49,0
182.37079,182.67076,57,36,0
182.37079,182.67076,60,36,0
182.37079,182.67076,65,40,0
182.67076,182.97498,57,36,0
182.67076,182.97498,60,36,0
182.67076,182.97498,65,41,0
182.97498,183.27705,46,52,0
183.27705,183.5787,58,39,0
183.27705,183.5787,61,39,0
183.27705,183.5787,65,39,0
183.5787,183.88249,58,44,0
183.5787,183.88249,61,44,0
183.5787,183.88249,65,44,0
183.88249,184.18456,49,48,0
184.18456,184.48622,58,39,0
184.18456,184.48622,61,39,0
184.18456,184.48622,65,39,0
184.48622,184.79001,58,39,0
184.48622,184.79001,61,39,0
184.48622,184.79001,65,39,0
184.79001,185.09207,51,45,0
185.09207,185.39374,58,37,0
185.09207,185.39374,61,37,0
185.09207,185.39374,63,37,0
185.39374,185.69751,58,37,0
185.39374,185.69751,61,37,0
185.39374,185.69751,63,37,0
185.69751,186.00189,44,37,0
186.00189,186.30087,60,36,0
186.00189,186.30087,56,31,0
186.00189,186.30087,51,31,0
186.30087,186.60345,56,27,0
186.30087,186.60345,60,30,0
186.30087,186.60345,51,27,0
186.60345,186.90244,39,44,0
186.90244,187.20506,60,25,0
186.90244,187.20506,56,22,0
186.90244,187.20506,51,22,0
187.20506,187.50183,60,33,0
187.20506,187.50183,56,29,0
187.20506,187.50183,51,29,0
187.50183,187.80348,46,39,0
187.80348,188.10219,55,34,0
187.80348,188.10219,61,38,0
187.80348,188.10219,51,34,0
188.10219,188.40582,55,25,0
188.10219,188.40582,61,28,0
188.10219,188.40582,51,25,0
188.40582,188.70944,39,39,0
188.70944,189.01308,55,23,0
188.70944,189.01308,51,23,0
188.70944,189.01308,61,26,0
189.01308,189.31671,55,31,0
189.01308,189.31671,51,31,0
189.01308,189.31671,61,36,0
189.31671,189.62646,44,38,0
189.62646,189.9291,60,38,0
189.62646,189.9291,56,34,0
189.62646,189.9291,51,34,0
189.9291,190.23991,56,29,0
189.9291,190.23991,60,34,0
189.9291,190.23991,51,29,0
190.23991,190.54839,39,55,0
190.54839,190.8553,60,36,0
190.54839,190.8553,56,31,0
190.54839,190.8553,54,31,0
190.8553,191.16943,60,42,0
190.8553,191.16943,56,38,0
190.8553,191.16943,54,38,0
191.16943,191.39655,44,55,0
191.44054,191.7373,59,44,0
191.41853,191.7373,56,37,0
191.39655,191.7373,53,31,0
191.7813,192.18155,59,45,0
191.75931,192.18155,56,40,0
191.7373,192.18155,53,33,0
192.18155,192.50327,44,60,0
192.50327,192.82498,60,30,0
192.50327,192.82498,56,27,0
192.50327,192.82498,51,27,0
192.82498,193.13686,60,30,0
192.82498,193.13686,56,27,0
192.82498,193.13686,51,27,0
193.13686,193.44252,45,37,0
193.44252,193.7262,63,36,0
193.44252,193.7262,60,31,0
193.44252,193.7262,53,31,0
193.7262,194.03204,60,27,0
193.7262,194.03204,63,30,0
193.7262,194.03204,53,27,0
194.03204,194.3377,46,37,0
194.3377,194.64034,61,36,0
194.3377,194.64034,58,31,0
194.3377,194.64034,53,31,0
194.64034,194.95116,58,27,0
194.64034,194.95116,61,30,0
194.64034,194.95116,53,27,0
194.95116,195.2568,43,37,0
195.2568,195.55165,61,36,0
195.2568,195.55165,58,31,0
195.2568,195.55165,51,31,0
195.55165,195.86246,58,27,0
195.55165,195.86246,61,30,0
195.55165,195.86246,51,27,0
195.86246,196.16812,44,37,0
196.16812,196.47075,60,36,0
196.16812,196.47075,56,31,0
196.16812,196.47075,51,31,0
196.47075,196.78157,56,27,0
196.47075,196.78157,60,30,0
196.47075,196.78157,51,27,0
196.78157,197.09132,42,37,0
197.09132,197.39395,56,36,0
197.09132,197.39395,54,31,0
197.39395,197.70477,54,27,0
197.39395,197.70477,56,30,0
197.70477,198.00839,41,44,0
198.00839,198.31104,56,28,0
198.00839,198.31104,53,25,0
198.31104,198.6078,56,33,0
198.31104,198.6078,53,29,0
198.6078,198.91345,40,37,0
198.91345,199.21608,56,36,0
198.91345,199.21608,52,31,0
199.21608,199.5269,56,30,0
199.21608,199.5269,52,27,0
199.5269,199.84352,39,37,0
199.84352,200.15521,58,34,0
199.84352,200.15521,51,29,0
200.15521,200.48041,51,25,0
200.15521,200.48041,58,28,0
200.48041,200.79018,44,37,0
200.79018,201.08916,60,32,0
200.79018,201.08916,56,27,0
200.79018,201.08916,51,27,0
201.08916,201.39262,56,24,0
201.08916,201.39262,60,27,0
201.08916,201.39262,51,24,0
201.39262,201.69626,39,44,0
201.69626,201.99889,60,22,0
201.69626,201.99889,56,19,0
201.69626,201.99889,51,19,0
201.99889,202.29565,60,29,0
201.99889,202.29565,56,26,0
201.99889,202.29565,51,26,0
202.29565,202.5973,46,39,0
202.5973,202.89601,55,30,0
202.5973,202.89601,61,34,0
202.5973,202.89601,51,30,0
202.89601,203.19965,55,22,0
202.89601,203.19965,61,25,0
202.89601,203.19965,51,22,0
203.19965,203.50327,39,39,0
203.50327,203.8069,55,20,0
203.50327,203.8069,51,20,0
203.50327,203.8069,61,23,0
203.8069,204.11053,55,27,0
203.8069,204.11053,51,27,0
203.8069,204.11053,61,32,0
204.11053,204.42029,44,38,0
204.42029,204.72292,60,34,0
204.42029,204.72292,56,30,0
204.42029,204.72292,51,30,0
204.72292,205.03374,56,26,0
204.72292,205.03374,60,30,0
204.72292,205.03374,51,26,0
205.03374,205.33736,39,59,0
205.33736,205.64,60,32,0
205.33736,205.64,56,27,0
205.33736,205.64,54,27,0
205.64,205.93677,60,37,0
205.64,205.93677,56,34,0
205.64,205.93677,54,34,0
205.93677,206.15912,44,60,0
206.20299,206.49174,59,44,0
206.18106,206.49174,56,36,0
206.15912,206.49174,53,29,0
206.53572,206.93504,59,45,0
206.51373,206.93504,56,39,0
206.49174,206.93504,53,33,0
206.93504,207.25937,44,68,0
207.25937,207.5837,60,25,0
207.25937,207.5837,56,22,0
207.25937,207.5837,51,22,0
207.5837,207.89557,60,25,0
207.5837,207.89557,56,22,0
207.5837,207.89557,51,22,0
207.89557,208.20123,45,37,0
208.20123,208.48969,63,36,0
208.20123,208.48969,60,31,0
208.20123,208.48969,53,31,0
208.48969,208.8005,60,27,0
208.48969,208.8005,63,30,0
208.48969,208.8005,53,27,0
208.8005,209.10616,46,37,0
209.10616,209.4088,61,36,0
209.10616,209.4088,58,31,0
209.10616,209.4088,53,31,0
209.4088,209.7196,58,27,0
209.4088,209.7196,61,30,0
209.4088,209.7196,53,27,0
209.7196,210.02527,47,42,0
210.02527,210.32495,62,33,0
210.02527,210.32495,55,33,0
210.02527,210.32495,65,37,0
210.32495,210.63577,62,28,0
210.32495,210.63577,65,31,0
210.32495,210.63577,55,28,0
210.63577,210.94142,48,38,0
210.94142,211.24405,64,37,0
210.94142,211.24405,60,33,0
210.94142,211.24405,55,33,0
211.24405,211.55487,60,28,0
211.24405,211.55487,64,31,0
211.24405,211.55487,55,28,0
211.55487,211.86052,49,45,0
211.86052,212.1602,61,35,0
211.86052,212.1602,58,35,0
211.86052,212.1602,65,39,0
212.1602,212.47102,61,29,0
212.1602,212.47102,65,34,0
212.1602,212.47102,58,29,0
212.47102,212.77669,50,40,0
212.77669,213.07932,65,39,0
212.77669,213.07932,59,35,0
212.77669,213.07932,56,35,0
213.07932,213.39014,59,29,0
213.07932,213.39014,65,34,0
213.07932,213.39014,56,29,0
213.39014,213.69579,51,36,0
213.69579,213.99841,63,35,0
213.69579,213.99841,61,30,0
213.69579,213.99841,55,30,0
213.99841,214.3111,61,26,0
213.99841,214.3111,63,29,0
213.99841,214.3111,55,26,0
214.3111,214.61925,44,31,0
214.61925,214.92303,60,30,0
214.61925,214.92303,56,27,0
214.61925,214.92303,51,27,0
214.92303,215.24106,56,23,0
214.92303,215.24106,60,26,0
214.92303,215.24106,51,23,0
215.53809,215.82794,56,36,0
215.53809,215.82794,53,31,0
215.53809,215.82794,50,31,0
215.82794,216.12134,53,27,0
215.24106,216.12134,44,37,0
215.82794,216.12134,50,27,0
215.82794,216.12134,56,30,0
216.4112,216.70174,56,25,0
216.4112,216.70174,53,22,0
216.4112,216.70174,50,22,0
216.70174,216.98666,56,33,0
216.12134,216.98666,44,44,0
216.70174,216.98666,50,29,0
216.70174,216.98666,53,29,0
216.98666,217.27042,51,53,0
216.98666,217.27042,39,53,0
217.27042,217.83054,53,58,0
217.27042,217.83054,41,58,0
217.83054,218.38832,55,62,0
217.83054,218.38832,43,62,0
218.38832,218.67049,56,57,0
218.38832,218.67049,44,57,0
218.94899,219.21988,56,42,0
218.94899,219.21988,52,37,0
219.21988,219.49771,52,31,0
219.21988,219.49771,56,36,0
218.67049,219.49771,50,63,0
219.76968,220.04686,56,27,0
219.76968,220.04686,52,24,0
220.04686,220.31949,56,36,0
220.04686,220.31949,52,31,0
219.49771,220.31949,50,48,0
220.31949,220.59402,51,58,0
220.31949,220.59402,39,58,0
220.59402,221.13882,53,63,0
220.59402,221.13882,41,63,0
221.13882,221.68556,55,69,0
221.13882,221.68556,43,69,0
221.68556,221.95583,56,63,0
221.68556,221.95583,44,63,0
222.22867,222.49773,68,47,0
222.22867,222.49773,65,41,0
222.22867,222.49773,62,41,0
222.49773,222.77187,65,36,0
221.95583,222.77187,56,63,0
222.49773,222.77187,62,36,0
222.49773,222.77187,68,40,0
223.04213,223.31691,68,30,0
223.04213,223.31691,65,27,0
223.04213,223.31691,62,27,0
223.31691,223.58913,68,40,0
222.77187,223.58913,56,55,0
223.31691,223.58913,62,36,0
223.31691,223.58913,65,36,0
223.58913,223.86133,63,68,0
223.58913,223.86133,51,68,0
223.86133,224.39835,65,73,0
223.86133,224.39835,53,73,0
224.39835,224.93974,67,79,0
224.39835,224.93974,55,79,0
224.93974,225.21387,68,74,0
224.93974,225.21387,56,74,0
225.48393,225.74942,68,50,0
225.48393,225.74942,64,43,0
225.74942,226.01886,64,38,0
225.74942,226.01886,68,42,0
225.21387,226.01886,62,71,0
226.28552,226.5562,68,36,0
226.28552,226.5562,64,30,0
226.5562,226.8246,68,46,0
226.5562,226.8246,64,40,0
226.01886,226.8246,62,61,0
226.8246,227.09845,63,76,0
226.8246,227.09845,51,76,0
227.09845,227.63046,65,84,0
227.09845,227.63046,53,84,0
227.63046,228.16559,67,91,0
227.63046,228.16559,55,91,0
228.16559,228.43623,68,84,0
228.16559,228.43623,56,84,0
228.43623,228.72556,56,89,0
228.72556,229.29027,71,72,0
228.72556,229.29027,62,64,0
228.72556,229.29027,64,64,0
228.72556,229.29027,68,64,0
229.29027,229.56299,72,73,0
229.29027,229.56299,68,73,0
229.29027,229.56299,63,73,0
230.11731,230.40646,44,80,0
230.40646,230.96988,59,65,0
230.40646,230.96988,50,57,0
230.40646,230.96988,52,57,0
230.40646,230.96988,56,57,0
230.96988,231.25357,60,70,0
230.96988,231.25357,56,70,0
230.96988,231.25357,51,70,0
231.82642,232.11145,44,65,0
232.11145,232.40341,60,51,0
232.11145,232.40341,56,51,0
232.11145,232.40341,51,51,0
232.69539,232.98454,44,58,0
232.98454,233.27939,60,45,0
232.98454,233.27939,56,45,0
232.98454,233.27939,51,45,0
233.57422,233.86407,44,53,0
233.86407,234.15851,60,41,0
233.86407,234.15851,56,41,0
233.86407,234.15851,51,41,0
234.45334,234.74666,44,49,0
234.74666,235.0415,60,39,0
234.74666,235.0415,56,39,0
234.74666,235.0415,51,39,0
235.33633,235.63747,44,49,0
235.63747,236.54079,60,39,0
235.63747,236.54079,56,39,0
235.63747,236.54079,51,39,0
236.54079,236.61606,63,35,0
236.54079,236.61606,60,35,0
236.54079,236.61606,56,35,0
236.8417,236.91699,63,35,0
236.8417,236.91699,60,35,0
236.8417,236.91699,56,35,0
237.1433,237.21924,63,37,0
237.1433,237.21924,60,37,0
237.1433,237.21924,56,37,0
237.4471,237.52422,75,35,0
237.4471,237.52422,72,35,0
237.4471,237.52422,68,35,0
237.75557,237.8341,75,35,0
237.75557,237.8341,72,35,0
237.75557,237.8341,68,35,0
238.06972,238.14824,75,39,0
238.06972,238.14824,72,39,0
238.06972,238.14824,68,39,0
