start_time,end_time,note_value,velocity,instrument_program_number
4.072679,4.37877,62,53,0
4.37877,4.6743364,64,54,0
4.6743364,4.978905,66,56,0
4.978905,5.289786,67,57,0
5.289786,5.5882936,69,59,0
5.5882936,5.886801,70,61,0
5.886801,6.1853085,72,63,0
6.1853085,6.506164,74,65,0
6.506164,6.796019,79,68,0
6.796019,7.0945263,78,66,0
7.0945263,7.4223957,79,58,0
7.4223957,8.625591,74,53,0
8.929943,9.239006,74,56,0
9.239006,9.554132,69,59,0
9.554132,9.874988,72,51,0
9.239006,9.874988,67,31,0
9.239006,9.874988,63,31,0
9.874988,10.17759,70,53,0
9.874988,10.17759,67,45,0
9.874988,10.17759,62,45,0
11.421039,11.734322,70,53,0
11.734322,12.049448,66,57,0
12.049448,12.3645735,69,49,0
11.734322,12.3645735,60,46,0
12.3645735,13.608495,67,53,0
12.3645735,13.608495,58,47,0
13.92455,14.230641,62,52,0
14.230641,14.529149,64,54,0
14.529149,14.833717,66,55,0
14.230641,14.833717,60,48,0
14.833717,15.142996,58,51,0
14.833717,15.142996,67,57,0
15.142996,15.444503,69,59,0
15.444503,15.746011,70,61,0
15.746011,16.047518,72,63,0
16.047518,16.361654,74,68,0
16.361654,16.654337,79,63,0
16.654337,16.952845,77,61,0
16.952845,17.266129,79,59,0
16.654337,17.266129,65,33,0
16.654337,17.266129,72,36,0
16.654337,17.266129,75,40,0
17.266129,18.475967,65,46,0
17.266129,18.478518,74,55,0
17.266129,18.478518,70,46,0
18.78287,19.091932,77,60,0
19.091932,19.407059,75,63,0
19.407059,19.727915,77,58,0
19.091932,19.727915,74,50,0
19.091932,19.727915,63,50,0
19.091932,19.727915,70,50,0
19.727915,20.949728,63,50,0
19.727915,20.952278,69,50,0
19.727915,20.952278,72,60,0
21.25663,21.565693,75,55,0
21.565693,21.88082,74,56,0
21.88082,22.201675,75,50,0
21.565693,22.201675,62,37,0
21.565693,22.201675,69,37,0
21.565693,22.201675,72,38,0
22.201675,22.828241,70,53,0
22.201675,22.828241,62,44,0
22.201675,22.828241,67,44,0
23.762657,24.077782,74,54,0
24.077782,24.392908,72,56,0
24.392908,24.708035,74,52,0
24.077782,24.708035,69,35,0
24.077782,24.708035,63,35,0
24.708035,25.02889,72,55,0
24.708035,25.347073,62,35,0
25.02889,25.349745,70,47,0
24.708035,25.349745,67,35,0
25.349745,25.6706,69,50,0
25.6706,26.002092,67,49,0
25.349745,26.002092,58,32,0
26.002092,26.661434,64,35,0
26.002092,26.99663,70,52,0
26.99663,27.339485,69,39,0
26.661434,27.339485,66,32,0
26.661434,27.339485,63,29,0
27.339485,27.99166,67,48,0
27.339485,27.99166,62,40,0
28.984715,29.293993,67,67,0
29.293993,29.596796,69,69,0
29.596796,29.906075,70,66,0
29.906075,30.203104,72,69,0
30.203104,30.507673,74,70,0
30.507673,30.804703,75,72,0
30.804703,31.10927,77,74,0
31.10927,31.406801,79,75,0
31.406801,31.698063,81,72,0
31.698063,31.995092,82,79,0
31.995092,32.31212,84,77,0
32.31212,33.515327,77,75,0
33.818356,34.12605,77,73,0
34.12605,34.41731,79,75,0
34.41731,34.726925,82,73,0
34.726925,35.93606,75,70,0
36.240627,36.54153,75,67,0
36.54153,36.842434,77,71,0
36.842434,37.153896,81,67,0
37.153896,38.399742,74,60,0
38.711205,39.017296,67,68,0
39.017296,39.312862,69,69,0
39.312862,39.61743,70,69,0
39.61743,39.92993,72,69,0
39.92993,40.22405,74,70,0
40.22405,40.52708,75,72,0
40.52708,40.83011,77,74,0
40.83011,41.13314,79,75,0
41.13314,41.424404,81,72,0
41.424404,41.730495,82,79,0
41.730495,42.04752,84,77,0
42.04752,43.24822,74,75,0
43.54973,43.84726,74,73,0
43.84726,44.139942,76,75,0
44.139942,44.44979,78,72,0
44.44979,45.65905,79,77,0
45.96517,46.266075,74,67,0
46.266075,46.563107,72,70,0
46.563107,46.874565,70,67,0
46.874565,48.09893,78,63,0
48.40502,48.705925,72,61,0
48.705925,49.00683,70,63,0
49.00683,49.32011,69,61,0
49.32011,49.6262,79,68,0
49.6262,49.779247,74,61,0
49.779247,49.85577,75,45,0
49.85577,49.932293,74,47,0
49.932293,50.238384,73,63,0
50.238384,50.544476,74,60,0
50.544476,50.850563,75,63,0
50.850563,51.156654,74,60,0
51.156654,51.462746,70,63,0
51.462746,52.079906,67,60,0
51.776367,52.08246,74,63,0
52.38336,53.325745,74,68,0
53.325745,53.650066,62,53,0
53.650066,53.96643,64,54,0
53.96643,54.27494,66,56,0
54.27494,54.571968,67,57,0
54.571968,54.876537,69,59,0
54.876537,55.174824,70,61,0
55.174824,55.479393,72,63,0
55.479393,55.803715,74,65,0
55.803715,56.09357,79,68,0
56.09357,56.389137,78,66,0
56.389137,56.715225,79,64,0
56.715225,57.924423,74,53,0
58.228775,58.537838,74,56,0
58.537838,58.852962,69,59,0
58.852962,59.173817,72,56,0
58.537838,59.173817,67,31,0
58.537838,59.173817,63,31,0
59.173817,59.470848,67,45,0
59.173817,59.470848,62,45,0
59.173817,59.470848,70,53,0
60.714294,61.02758,70,53,0
61.02758,61.342705,66,57,0
61.342705,61.65783,69,53,0
61.02758,61.65783,60,46,0
61.65783,62.898174,58,47,0
61.65783,62.898174,67,53,0
63.21423,63.52032,62,52,0
63.52032,63.826412,64,54,0
63.826412,64.1325,66,55,0
63.52032,64.1325,60,48,0
64.1325,64.44178,67,57,0
64.1325,64.44178,58,51,0
64.44178,64.74178,69,59,0
64.74178,65.04635,70,61,0
65.04635,65.35092,72,63,0
65.35092,65.67007,74,68,0
65.67007,65.95992,79,63,0
65.95992,66.25404,77,61,0
66.25404,66.5749,79,59,0
65.95992,66.5749,72,36,0
65.95992,66.5749,75,40,0
65.95992,66.5749,65,33,0
66.5749,67.784676,65,46,0
66.5749,67.78722,74,55,0
66.5749,67.78722,70,46,0
68.09157,68.40063,77,60,0
68.40063,68.71575,75,63,0
68.71575,69.036606,77,58,0
68.40063,69.036606,74,50,0
68.40063,69.036606,70,50,0
68.40063,69.036606,63,50,0
69.036606,70.25842,63,50,0
69.036606,70.26097,72,60,0
69.036606,70.26097,69,50,0
70.56532,70.87439,75,55,0
70.87439,71.189514,74,56,0
71.189514,71.51037,75,50,0
70.87439,71.51037,62,37,0
70.87439,71.51037,72,38,0
70.87439,71.51037,69,37,0
71.51037,72.13693,70,53,0
71.51037,72.13693,67,44,0
71.51037,72.13693,62,44,0
73.07135,73.392204,74,54,0
73.392204,73.706345,72,56,0
73.706345,74.0272,74,52,0
73.392204,74.0272,69,35,0
73.392204,74.0272,63,35,0
74.0272,74.34978,72,55,0
74.0272,74.66967,62,35,0
74.34978,74.672356,70,51,0
74.0272,74.672356,67,35,0
74.672356,74.99494,69,50,0
74.99494,75.32461,67,49,0
74.672356,75.32461,58,27,0
75.32461,75.99128,64,35,0
75.32461,76.32461,70,52,0
76.32461,76.67548,69,39,0
75.99128,76.67548,66,32,0
75.99128,76.67548,63,29,0
76.67548,77.01068,67,48,0
76.67548,77.01068,62,34,0
77.310684,77.878136,74,50,0
77.310684,77.878136,71,42,0
77.878136,78.44028,67,37,0
77.878136,78.44028,71,44,0
78.44028,78.9895,74,49,0
78.44028,78.9895,71,41,0
78.9895,79.51936,76,52,0
78.9895,79.51936,72,44,0
79.51936,79.773605,66,39,0
79.51936,79.773605,69,47,0
79.773605,80.037346,71,47,0
79.773605,80.037346,67,39,0
80.037346,80.55132,72,49,0
80.037346,80.55132,69,41,0
80.55132,81.057655,76,47,0
80.55132,81.057655,72,39,0
81.057655,81.57454,74,51,0
81.057655,81.57454,71,43,0
81.57454,82.07986,76,44,0
81.57454,82.07986,79,52,0
82.07986,82.58731,78,49,0
82.07986,82.58731,74,41,0
82.58731,83.09477,76,49,0
82.58731,83.09477,72,41,0
83.09477,83.603325,74,49,0
83.09477,83.603325,71,41,0
83.603325,83.8642,69,46,0
83.603325,83.8642,66,38,0
83.8642,84.12507,67,38,0
83.8642,84.12507,71,46,0
84.12507,84.6584,72,47,0
84.12507,84.6584,69,39,0
84.6584,85.21478,73,49,0
84.6584,85.21478,70,41,0
85.21478,85.47942,74,50,0
85.21478,85.47942,71,42,0
85.744064,86.25347,74,71,0
85.744064,86.25347,71,60,0
85.744064,86.25347,62,59,0
86.25347,86.75185,67,52,0
86.25347,86.75185,71,62,0
86.25347,86.75185,59,52,0
86.75185,87.25128,74,70,0
86.75185,87.25128,71,59,0
86.75185,87.25128,62,58,0
87.25128,87.74439,76,71,0
87.25128,87.74439,72,60,0
87.25128,87.74439,64,59,0
87.74439,88.01068,66,56,0
87.74439,88.01068,69,66,0
87.98987,88.260124,67,56,0
87.98987,88.260124,71,66,0
88.23958,88.735794,69,59,0
88.23958,88.735794,72,68,0
88.735794,89.25971,76,67,0
88.735794,89.25971,64,57,0
88.735794,89.25971,72,56,0
89.23963,89.72927,62,63,0
89.23963,89.72927,71,63,0
89.23963,89.72927,74,75,0
89.72927,90.24235,76,66,0
89.72927,90.24235,67,64,0
89.72927,90.24235,79,78,0
90.22202,90.737144,66,61,0
90.22202,90.737144,78,73,0
90.22202,90.737144,74,62,0
90.716736,91.23492,64,61,0
90.716736,91.23492,76,74,0
90.716736,91.23492,72,62,0
91.214676,91.70149,62,61,0
91.214676,91.70149,71,62,0
91.214676,91.70149,74,74,0
91.70149,91.96839,69,69,0
91.70149,91.96839,57,60,0
91.70149,91.96839,66,58,0
91.94773,92.21736,59,60,0
91.94773,92.21736,67,58,0
91.94773,92.21736,71,69,0
92.196526,92.698975,60,61,0
92.196526,92.698975,69,62,0
92.196526,92.698975,72,74,0
92.698975,93.20962,76,82,0
92.698975,93.20962,72,69,0
92.698975,93.20962,64,68,0
93.20962,93.341576,74,92,0
93.20962,93.341576,71,78,0
93.20962,93.341576,62,78,0
93.47354,93.6055,74,84,0
93.47354,93.6055,71,71,0
93.47354,93.6055,67,71,0
93.73746,94.50841,79,90,0
94.50841,94.76091,76,83,0
93.73746,94.76091,71,77,0
93.73746,94.76091,67,77,0
94.76091,94.89052,78,86,0
94.76091,94.89052,71,73,0
94.76091,94.89052,66,73,0
95.020134,95.14974,71,81,0
95.020134,95.14974,66,67,0
95.27936,96.0503,76,90,0
96.0503,96.30392,72,77,0
95.27936,96.30392,67,77,0
95.27936,96.30392,64,77,0
96.30392,96.433525,74,86,0
96.30392,96.433525,67,73,0
96.30392,96.433525,62,73,0
96.56314,96.69275,67,81,0
96.822365,97.58308,74,90,0
96.822365,97.58308,62,77,0
97.58308,97.83412,73,83,0
97.58308,97.83412,61,71,0
96.822365,97.83412,67,56,0
97.83412,98.33621,72,82,0
97.83412,98.33621,66,71,0
97.83412,98.33621,60,71,0
98.33621,98.46412,71,83,0
98.33621,98.46412,65,71,0
98.33621,98.46412,59,60,0
98.59145,98.72167,77,79,0
98.59145,98.72167,68,64,0
98.59145,98.72167,65,55,0
98.59145,98.72167,71,64,0
98.8519,99.104,76,84,0
98.8519,99.104,69,72,0
98.8519,99.104,64,72,0
99.104,99.356094,69,79,0
99.356094,99.480064,74,85,0
99.356094,99.480064,67,73,0
99.356094,99.480064,62,70,0
100.115814,100.36686,71,75,0
100.36686,100.622185,69,76,0
100.622185,100.88262,71,75,0
100.36686,100.88262,66,61,0
100.36686,100.88262,60,57,0
100.88262,101.01458,67,76,0
100.88262,101.01458,59,76,0
101.146545,101.2785,74,84,0
101.146545,101.2785,71,71,0
101.146545,101.2785,67,71,0
101.41046,102.18141,79,90,0
102.18141,102.433914,76,83,0
101.41046,102.433914,71,77,0
101.41046,102.433914,67,77,0
102.433914,102.56352,78,86,0
102.433914,102.56352,71,73,0
102.433914,102.56352,66,73,0
102.69314,102.82275,71,81,0
102.69314,102.82275,66,67,0
102.95236,103.723305,76,90,0
103.723305,103.97692,72,78,0
102.95236,103.97692,67,77,0
102.95236,103.97692,64,77,0
103.97692,104.10653,74,86,0
103.97692,104.10653,67,73,0
103.97692,104.10653,62,73,0
104.236145,104.36575,67,81,0
104.49537,105.2652,74,90,0
104.49537,105.2652,62,77,0
105.2652,105.518814,73,83,0
105.2652,105.518814,61,71,0
104.49537,105.518814,67,56,0
105.518814,106.02507,70,62,0
105.518814,106.27974,76,95,0
105.518814,106.27974,64,80,0
106.27974,106.530075,75,82,0
106.27974,106.530075,63,70,0
106.02507,106.530075,69,73,0
106.530075,107.03507,72,71,0
106.530075,107.28974,78,100,0
106.530075,107.28974,66,84,0
107.28974,107.53794,77,84,0
107.28974,107.53794,65,73,0
107.03507,107.53794,69,74,0
107.53794,108.04083,74,72,0
107.53794,108.296715,80,104,0
107.53794,108.296715,68,86,0
108.296715,108.47347,79,95,0
108.296715,108.47347,67,81,0
108.04083,108.562256,73,80,0
108.54006,108.562256,73,77,0
108.562256,108.73983,82,99,0
108.55116,108.73983,76,79,0
108.52896,108.73983,70,74,0
108.82862,109.00619,85,94,0
108.79533,109.00619,73,74,0
108.80642,109.00619,76,78,0
108.81752,109.00619,79,80,0
109.09498,109.27255,88,99,0
109.06168,109.27255,76,75,0
109.072784,109.27255,79,80,0
109.08388,109.27255,82,82,0
109.361336,109.53891,91,95,0
109.32804,109.53891,79,74,0
109.33914,109.53891,82,78,0
109.350235,109.53891,85,80,0
109.627594,109.808075,94,99,0
109.5944,109.808075,82,79,0
109.6055,109.808075,85,82,0
109.61655,109.808075,88,84,0
109.90089,110.09201,97,94,0
109.86589,110.09201,85,75,0
109.87752,110.09201,88,79,0
109.889206,110.09201,91,81,0
110.19491,110.70942,100,101,0
110.15632,110.70942,88,78,0
110.16918,110.70942,91,83,0
110.182045,110.70942,94,86,0
110.822464,111.387695,103,99,0
110.780075,111.387695,91,78,0
110.794205,111.387695,94,82,0
110.808334,111.387695,97,85,0
115.54297,116.884605,62,62,0
115.54297,116.884605,74,62,0
115.54297,116.884605,72,62,0
115.54297,116.884605,69,62,0
116.884605,117.20575,62,53,0
117.20575,117.52252,64,54,0
117.52252,117.83489,66,56,0
117.83489,118.14417,67,57,0
118.14417,118.44568,69,59,0
118.44568,118.75496,70,61,0
118.75496,119.06423,72,63,0
119.06423,119.37867,74,65,0
119.37867,119.68376,79,68,0
119.68376,119.99982,78,66,0
119.99982,120.31914,79,64,0
120.31914,121.54518,74,53,0
121.84953,122.1586,74,56,0
122.1586,122.473724,69,59,0
122.473724,122.79458,72,51,0
122.1586,122.79458,67,31,0
122.1586,122.79458,63,31,0
122.79458,123.09718,70,53,0
122.79458,123.09718,67,45,0
122.79458,123.09718,62,45,0
124.34194,124.65522,70,53,0
124.65522,124.97035,66,57,0
124.97035,125.28548,69,49,0
124.65522,125.28548,60,46,0
125.28548,126.529396,67,53,0
125.28548,126.529396,58,47,0
126.84545,127.15154,62,52,0
127.15154,127.457634,64,54,0
127.457634,127.763725,66,55,0
127.15154,127.763725,60,48,0
127.763725,128.073,67,57,0
127.763725,128.073,58,51,0
128.073,128.373,69,59,0
128.373,128.67757,70,61,0
128.67757,128.98215,72,63,0
128.98215,129.30472,74,68,0
129.30472,129.59598,79,63,0
129.59598,129.89598,77,61,0
129.89598,130.21684,79,59,0
129.59598,130.21684,65,33,0
129.59598,130.21684,72,36,0
129.59598,130.21684,75,40,0
130.21684,131.41974,65,46,0
130.21684,131.42233,74,55,0
130.21684,131.42233,70,46,0
131.72668,132.03574,77,60,0
132.03574,132.35086,75,63,0
132.35086,132.67172,77,58,0
132.03574,132.67172,74,50,0
132.03574,132.67172,70,50,0
132.03574,132.67172,63,50,0
132.67172,133.8827,63,50,0
132.67172,133.8853,72,60,0
132.67172,133.8853,69,50,0
134.18965,134.49872,75,55,0
134.49872,134.81384,74,56,0
134.81384,135.1347,75,50,0
134.49872,135.1347,72,38,0
134.49872,135.1347,69,37,0
134.49872,135.1347,62,37,0
135.1347,135.75673,70,56,0
135.1347,135.75673,67,47,0
135.1347,135.75673,62,47,0
136.69037,137.0055,74,57,0
137.0055,137.31694,72,59,0
137.31694,137.63467,74,55,0
137.0055,137.63467,69,37,0
137.0055,137.63467,63,37,0
137.63467,137.94882,72,58,0
137.63467,138.26363,62,37,0
137.94882,138.26628,70,54,0
137.63467,138.26628,67,37,0
138.26628,138.58713,69,53,0
138.58713,138.91501,67,52,0
138.26628,138.91501,58,34,0
138.91501,139.57074,64,37,0
138.91501,139.8986,70,55,0
139.8986,140.24544,69,42,0
139.57074,140.24544,66,34,0
139.57074,140.24544,63,31,0
140.24544,140.89767,67,51,0
140.24544,140.89767,62,43,0
141.88669,142.19278,67,68,0
142.19278,142.48836,69,69,0
142.48836,142.79141,70,69,0
142.79141,143.1007,72,69,0
143.1007,143.39627,74,70,0
143.39627,143.69626,75,72,0
143.69626,144.00238,77,74,0
144.00238,144.29991,79,75,0
144.29991,144.59744,81,72,0
144.59744,144.90353,82,79,0
144.90353,145.22057,84,77,0
145.22057,146.41116,77,75,0
146.70746,147.00499,77,73,0
147.00499,147.29767,79,75,0
147.29767,147.60751,82,73,0
147.60751,148.7791,75,70,0
149.07974,149.38431,75,67,0
149.38431,149.68134,77,71,0
149.68134,149.9928,81,67,0
149.9928,151.22426,74,60,0
151.52788,151.82344,67,68,0
151.82344,152.11755,69,69,0
152.11755,152.42038,70,69,0
152.42038,152.7145,72,69,0
152.7145,153.01733,74,70,0
153.01733,153.3219,75,72,0
153.3219,153.62646,77,74,0
153.62646,153.924,79,75,0
153.924,154.22153,81,72,0
154.22153,154.52762,82,79,0
154.52762,154.84464,84,77,0
154.84464,156.02701,74,75,0
156.32257,156.6201,74,73,0
156.6201,156.91763,76,75,0
156.91763,157.22829,78,72,0
157.22829,158.44272,79,77,0
158.74934,159.05025,74,67,0
159.05025,159.35115,72,69,0
159.35115,159.66261,70,67,0
159.66261,160.87704,78,63,0
161.17914,161.48004,72,61,0
161.48004,161.78094,70,63,0
161.78094,162.09422,69,61,0
162.09422,162.39273,79,68,0
162.39273,162.54501,74,61,0
162.54501,162.62115,75,45,0
162.62115,162.6973,74,47,0
162.6973,163.00186,73,63,0
163.00186,163.30643,74,60,0
163.30643,163.61252,75,63,0
163.61252,163.91861,74,60,0
163.91861,164.2247,70,63,0
164.2247,164.84187,67,60,0
164.53833,164.84442,74,63,0
165.14532,166.07198,74,68,0
166.07198,166.392,62,53,0
166.392,166.7064,64,54,0
166.7064,167.01756,66,56,0
167.01756,167.33199,67,57,0
167.33199,167.64642,69,59,0
167.64642,167.95255,70,61,0
167.95255,168.26535,72,63,0
168.26535,168.57977,74,65,0
168.57977,168.88487,79,68,0
168.88487,169.20093,78,66,0
169.20093,169.52025,79,64,0
169.52025,170.73845,74,53,0
171.0428,171.35187,74,56,0
171.35187,171.66699,69,59,0
171.66699,171.98785,72,51,0
171.35187,171.98785,67,31,0
171.35187,171.98785,63,31,0
171.98785,172.29045,70,53,0
171.98785,172.29045,67,45,0
171.98785,172.29045,62,45,0
173.5339,173.84718,70,53,0
173.84718,174.16231,66,57,0
174.16231,174.47743,69,49,0
173.84718,174.47743,60,46,0
174.47743,175.72136,67,53,0
174.47743,175.72136,58,47,0
176.03741,176.3435,62,52,0
176.3435,176.63907,64,54,0
176.63907,176.94363,66,55,0
176.3435,176.94363,60,48,0
176.94363,177.24214,67,57,0
176.94363,177.24214,58,51,0
177.24214,177.54672,69,59,0
177.54672,177.85129,70,61,0
177.85129,178.15585,72,63,0
178.15585,178.46732,74,68,0
178.46732,178.76651,79,63,0
178.76651,179.0726,77,61,0
179.0726,179.38588,79,59,0
178.76651,179.38588,65,33,0
178.76651,179.38588,72,36,0
178.76651,179.38588,75,40,0
179.38588,180.5912,65,46,0
179.38588,180.59372,74,55,0
179.38588,180.59372,70,46,0
180.89807,181.20714,77,60,0
181.20714,181.52226,75,63,0
181.52226,181.84312,77,58,0
181.20714,181.84312,74,50,0
181.20714,181.84312,70,50,0
181.20714,181.84312,63,50,0
181.84312,183.05367,63,50,0
181.84312,183.0562,72,60,0
181.84312,183.0562,69,50,0
183.36055,183.66962,75,55,0
183.66962,183.98474,74,56,0
183.98474,184.30559,75,50,0
183.66962,184.30559,72,38,0
183.66962,184.30559,69,37,0
183.66962,184.30559,62,37,0
184.30559,184.92816,70,53,0
184.30559,184.92816,67,44,0
184.30559,184.92816,62,44,0
185.86179,186.17691,74,54,0
186.17691,186.49205,72,56,0
186.49205,186.80717,74,52,0
186.17691,186.80717,69,35,0
186.17691,186.80717,63,35,0
186.80717,187.12419,72,55,0
186.80717,187.43858,62,35,0
187.12419,187.44122,70,51,0
186.80717,187.44122,67,35,0
187.44122,187.75824,69,50,0
187.75824,188.08102,67,49,0
187.44122,188.08102,58,32,0
188.08102,188.72661,64,35,0
188.08102,189.0494,70,52,0
189.0494,189.38023,69,39,0
188.72661,189.38023,66,32,0
188.72661,189.38023,63,29,0
189.38023,190.01688,67,48,0
189.38023,190.01688,62,40,0
191.28554,191.5901,86,35,0
191.28554,191.5901,91,51,0
190.97945,191.5901,82,47,0
191.89467,192.1917,84,35,0
191.5901,192.1917,81,46,0
191.89467,192.1917,90,48,0
191.89467,192.1917,86,35,0
192.49782,192.79637,81,35,0
192.1917,192.79637,79,45,0
192.49782,192.79637,87,50,0
192.49782,192.79637,84,35,0
193.10097,193.40076,81,35,0
192.79637,193.40076,78,45,0
193.10097,193.40076,86,50,0
193.10097,193.40076,84,35,0
193.71004,194.00854,78,35,0
193.40076,194.00854,75,44,0
193.71004,194.00854,84,50,0
193.71004,194.00854,81,35,0
194.31622,194.61627,76,35,0
194.00854,194.61627,74,46,0
194.31622,194.61627,82,50,0
194.31622,194.61627,79,35,0
194.92397,195.22395,75,35,0
194.61627,195.22395,72,47,0
194.92397,195.22395,81,50,0
194.92397,195.22395,78,35,0
195.53323,195.83174,74,35,0
195.53323,195.83174,79,51,0
195.22395,195.83174,70,44,0
195.83174,196.14262,70,54,0
196.14262,196.44875,69,54,0
196.44875,196.75963,67,54,0
196.75963,197.06732,66,56,0
196.14262,197.06732,72,36,0
196.14262,197.06732,74,38,0
197.06732,197.3782,67,53,0
197.3782,197.68748,68,54,0
197.68748,197.98898,69,53,0
198.60918,199.84956,60,36,0
198.60918,199.84956,62,38,0
199.84956,200.48325,62,35,0
199.84956,200.48325,58,30,0
201.08932,201.38783,74,35,0
201.08932,201.38783,79,51,0
200.78323,201.38783,70,47,0
201.69711,201.99712,72,34,0
201.38783,201.99712,69,45,0
201.69711,201.99712,78,47,0
201.69711,201.99712,74,34,0
202.308,202.608,69,33,0
201.99712,202.608,67,43,0
202.308,202.608,75,48,0
202.308,202.608,72,33,0
202.91728,203.21878,69,33,0
202.608,203.21878,66,42,0
202.91728,203.21878,74,48,0
202.91728,203.21878,72,33,0
203.52966,203.83118,66,33,0
203.21878,203.83118,63,42,0
203.52966,203.83118,72,47,0
203.52966,203.83118,69,33,0
204.14044,204.44196,64,32,0
203.83118,204.44196,62,42,0
204.14044,204.44196,70,46,0
204.14044,204.44196,67,32,0
204.75284,205.05435,63,32,0
204.44196,205.05435,60,40,0
204.75284,205.05435,69,46,0
204.75284,205.05435,66,32,0
205.36362,205.66212,62,31,0
205.36362,205.66212,67,46,0
205.05435,205.66212,58,41,0
205.66212,205.973,58,48,0
205.973,206.27913,57,48,0
206.27913,206.59001,55,48,0
206.59001,206.8977,54,50,0
205.973,206.8977,60,32,0
205.973,206.8977,62,34,0
206.8977,207.20859,55,47,0
207.20859,207.51787,56,48,0
207.51787,207.81938,57,47,0
208.43958,209.70662,48,31,0
208.43958,209.70662,50,33,0
209.70662,210.35544,50,33,0
209.70662,210.35544,46,27,0
211.01653,211.31752,48,28,0
211.01653,211.31752,50,34,0
211.01653,211.31752,42,28,0
211.61653,211.91283,50,35,0
211.61653,211.91283,46,29,0
211.61653,211.91283,43,29,0
212.20694,212.49892,54,37,0
212.20694,212.49892,50,31,0
212.20694,212.49892,45,31,0
212.78831,213.07585,55,39,0
212.78831,213.07585,50,33,0
212.78831,213.07585,46,33,0
213.36089,213.6439,57,40,0
213.36089,213.6439,54,40,0
213.36089,213.6439,50,34,0
213.92494,214.20401,58,42,0
213.92494,214.20401,55,35,0
213.92494,214.20401,50,35,0
214.48308,214.76215,60,36,0
214.48308,214.76215,62,43,0
214.48308,214.76215,54,36,0
215.04121,215.31645,58,38,0
215.04121,215.31645,62,38,0
215.04121,215.31645,67,45,0
215.59167,215.86691,60,36,0
215.59167,215.86691,62,43,0
215.59167,215.86691,54,36,0
216.14343,216.42122,55,39,0
216.14343,216.42122,58,39,0
216.14343,216.42122,62,47,0
216.70052,216.97916,66,48,0
216.70052,216.97916,62,40,0
216.70052,216.97916,57,40,0
217.2563,217.53217,67,49,0
217.2563,217.53217,62,41,0
217.2563,217.53217,58,41,0
217.80655,218.0797,69,50,0
217.80655,218.0797,66,42,0
217.80655,218.0797,62,42,0
218.3514,218.62187,70,53,0
218.3514,218.62187,67,44,0
218.3514,218.62187,62,44,0
218.89174,219.16408,74,54,0
218.89174,219.16408,72,45,0
218.89174,219.16408,66,45,0
219.44058,219.70964,79,55,0
219.44058,219.70964,74,46,0
219.44058,219.70964,70,46,0
219.9787,220.25647,66,46,0
219.9787,220.25647,72,46,0
219.9787,220.25647,74,55,0
220.53426,220.80331,79,56,0
220.43008,220.80331,67,44,0
220.46481,220.80331,70,47,0
220.49953,220.80331,74,52,0
221.07237,221.34143,66,47,0
221.07237,221.34143,72,47,0
221.07237,221.34143,74,55,0
221.61049,221.87955,79,56,0
221.50958,221.87955,67,44,0
221.54323,221.87955,70,47,0
221.57686,221.87955,74,51,0
222.1486,222.42638,78,50,0
222.1486,222.42638,84,50,0
222.1486,222.42638,86,59,0
222.70416,222.97443,91,65,0
222.59999,222.97443,79,51,0
222.63472,222.97443,82,56,0
222.66943,222.97443,86,60,0
223.2447,223.52248,78,51,0
223.2447,223.52248,84,51,0
223.2447,223.52248,86,59,0
223.80026,224.07175,91,65,0
223.69609,224.07175,79,50,0
223.7308,224.07175,82,55,0
223.76553,224.07175,86,58,0
224.34325,224.61473,91,62,0
224.24144,224.61473,79,47,0
224.27538,224.61473,82,52,0
224.30931,224.61473,86,57,0
224.88623,225.15813,91,59,0
224.78442,225.15813,79,46,0
224.81836,225.15813,82,50,0
224.8523,225.15813,86,54,0
225.43231,225.70903,91,55,0
225.32916,225.70903,79,45,0
225.36351,225.70903,82,47,0
225.39792,225.70903,86,51,0
225.98831,226.26935,91,50,0
225.88324,226.26935,79,42,0
225.91823,226.26935,82,44,0
225.95328,226.26935,86,46,0
226.5535,226.84058,91,47,0
226.44662,226.84058,79,36,0
226.48218,226.84058,82,38,0
226.51778,226.84058,86,40,0
227.13066,227.42336,91,44,0
227.0215,227.42336,79,32,0
227.05785,227.42336,82,36,0
227.09425,227.42336,86,40,0
227.71603,228.01604,91,41,0
227.60628,228.01604,79,29,0
227.64287,228.01604,82,33,0
227.67944,228.01604,86,34,0
228.54103,229.29103,91,37,0
228.25978,229.29103,79,26,0
228.35353,229.29103,82,30,0
228.44728,229.29103,86,34,0
0.0,0.626566,43,40,0
0.626566,1.253132,50,38,0
1.253132,2.506264,62,34,0
1.253132,2.506264,55,28,0
1.253132,2.506264,58,28,0
2.506264,3.13283,43,40,0
3.13283,3.759396,50,38,0
3.759396,4.978905,58,35,0
3.759396,4.978905,55,35,0
3.759396,4.978905,62,35,0
4.978905,5.5882936,43,40,0
5.5882936,6.1853085,50,37,0
6.1853085,6.796019,55,34,0
6.1853085,6.796019,62,40,0
6.1853085,6.796019,58,34,0
6.796019,7.4223957,45,45,0
7.4223957,8.016455,46,44,0
8.016455,8.625591,55,38,0
8.625591,9.236381,67,35,0
8.625591,9.239006,62,29,0
9.239006,9.874988,48,35,0
9.874988,10.17759,50,42,0
10.17759,10.485725,63,50,0
10.485725,10.798552,61,47,0
10.485725,10.798552,58,29,0
10.485725,10.798552,55,29,0
10.798552,11.111377,63,39,0
11.111377,11.421039,62,40,0
11.111377,11.421039,58,34,0
11.111377,11.421039,55,34,0
11.734322,12.3645735,50,42,0
12.666658,12.976383,51,42,0
12.976383,13.292439,49,37,0
13.292439,13.608495,51,32,0
13.608495,14.833717,50,35,0
12.3645735,14.833717,43,46,0
14.833717,15.444503,43,40,0
15.444503,16.047518,50,37,0
16.047518,16.654337,55,34,0
16.047518,16.654337,62,40,0
16.047518,16.654337,58,34,0
16.654337,17.266129,45,42,0
17.266129,17.866337,46,44,0
17.866337,18.478518,53,38,0
18.478518,19.091932,65,39,0
18.478518,19.091932,62,28,0
18.478518,19.091932,58,28,0
19.091932,19.727915,43,41,0
19.727915,20.340096,45,44,0
20.340096,20.952278,57,36,0
20.952278,21.565693,67,36,0
20.952278,21.565693,63,30,0
20.952278,21.565693,60,30,0
21.565693,22.201675,42,36,0
22.201675,22.828241,43,39,0
22.828241,23.454807,50,36,0
23.454807,24.077782,62,34,0
23.454807,24.077782,55,23,0
23.454807,24.077782,58,23,0
24.077782,24.708035,48,34,0
25.349745,26.002092,62,32,0
26.002092,26.661434,61,31,0
24.708035,27.339485,50,39,0
26.661434,27.665573,60,30,0
27.665573,27.99166,58,32,0
27.339485,27.99166,55,28,0
27.99166,28.32315,55,30,0
28.32315,28.662134,50,30,0
28.662134,29.293993,43,30,0
29.906075,30.507673,51,52,0
30.507673,31.10927,65,49,0
31.10927,32.31212,60,52,0
31.10927,32.31212,53,44,0
31.10927,32.31212,57,44,0
32.31212,32.909264,50,67,0
32.909264,33.515327,65,58,0
33.515327,34.726925,58,49,0
33.515327,34.726925,62,58,0
33.515327,34.726925,53,49,0
34.726925,35.326923,48,57,0
35.326923,35.93606,65,53,0
35.93606,37.153896,63,52,0
35.93606,37.153896,53,44,0
35.93606,37.153896,57,44,0
37.153896,37.77682,46,53,0
37.77682,38.399742,65,49,0
38.399742,39.61743,53,37,0
38.399742,39.61743,58,37,0
38.399742,39.61743,62,44,0
39.61743,40.22405,51,52,0
40.22405,40.83011,65,49,0
40.83011,42.04752,53,44,0
40.83011,42.04752,57,44,0
40.83011,42.04752,60,52,0
42.04752,42.645206,50,67,0
42.645206,43.24822,66,58,0
43.24822,44.44979,54,44,0
43.24822,44.44979,62,52,0
43.24822,44.44979,57,44,0
44.44979,45.046806,50,55,0
45.046806,45.65905,62,53,0
45.65905,46.874565,55,44,0
45.65905,46.874565,58,52,0
46.874565,47.486748,50,53,0
47.486748,48.09893,62,41,0
48.09893,49.32011,57,35,0
48.09893,49.32011,60,41,0
49.32011,49.932293,50,53,0
49.932293,50.544476,62,44,0
50.544476,51.776367,58,44,0
50.544476,51.776367,55,37,0
51.776367,51.929413,50,46,0
51.776367,51.929413,57,46,0
52.08246,52.38336,67,53,0
52.38336,52.690533,66,52,0
52.690533,53.00142,63,51,0
53.00142,53.32304,62,50,0
53.325745,53.650066,60,48,0
53.650066,53.96643,58,47,0
53.96643,54.27494,57,46,0
54.27494,54.876537,55,40,0
54.27494,54.876537,43,40,0
54.876537,55.479393,50,37,0
55.479393,56.09357,55,34,0
55.479393,56.09357,62,40,0
55.479393,56.09357,58,34,0
56.09357,56.715225,45,45,0
56.715225,57.31224,46,44,0
57.31224,57.924423,55,38,0
57.924423,58.53521,67,35,0
57.924423,58.537838,62,29,0
58.537838,59.173817,48,35,0
59.173817,59.470848,50,42,0
59.470848,59.778984,63,50,0
59.778984,60.09181,55,31,0
59.778984,60.09181,61,50,0
59.778984,60.09181,58,31,0
60.09181,60.404633,63,49,0
60.404633,60.714294,62,45,0
60.404633,60.714294,58,38,0
60.404633,60.714294,55,33,0
61.02758,61.65783,50,42,0
61.956337,62.266064,51,42,0
62.266064,62.58212,49,44,0
62.58212,62.898174,51,42,0
62.898174,64.1325,50,39,0
61.65783,64.1325,43,46,0
64.1325,64.74178,43,40,0
64.74178,65.35092,50,37,0
65.35092,65.95992,55,34,0
65.35092,65.95992,62,40,0
65.35092,65.95992,58,34,0
65.95992,66.5749,45,42,0
66.5749,67.18708,46,44,0
67.18708,67.78722,53,41,0
67.78722,68.40063,62,30,0
67.78722,68.40063,58,30,0
67.78722,68.40063,65,42,0
68.40063,69.036606,43,41,0
69.036606,69.64879,45,44,0
69.64879,70.26097,57,39,0
70.26097,70.87439,67,39,0
70.26097,70.87439,63,33,0
70.26097,70.87439,60,33,0
70.87439,71.51037,42,36,0
71.51037,72.13693,43,39,0
72.13693,72.763504,50,36,0
72.763504,73.392204,62,34,0
72.763504,73.392204,55,23,0
72.763504,73.392204,58,23,0
73.392204,74.0272,48,34,0
74.672356,75.32461,62,32,0
75.32461,75.99128,61,31,0
75.99128,76.67548,60,30,0
76.67548,77.01068,59,34,0
74.0272,77.01068,50,39,0
77.01068,77.59106,50,30,0
77.01068,77.59106,43,25,0
77.59106,78.155914,55,24,0
77.59106,78.155914,62,29,0
77.59106,78.155914,50,24,0
78.155914,78.713005,50,29,0
78.155914,78.713005,43,24,0
78.713005,79.25151,62,29,0
78.713005,79.25151,54,24,0
78.713005,79.25151,50,24,0
79.25151,79.773605,50,29,0
79.25151,79.773605,43,29,0
79.773605,80.29159,62,29,0
79.773605,80.29159,54,24,0
79.773605,80.29159,50,24,0
80.29159,80.80449,50,30,0
80.29159,80.80449,43,25,0
80.80449,81.32244,62,30,0
80.80449,81.32244,55,25,0
80.80449,81.32244,50,25,0
81.32244,81.82454,50,30,0
81.32244,81.82454,43,25,0
81.82454,82.3309,55,25,0
81.82454,82.3309,62,30,0
81.82454,82.3309,50,25,0
82.3309,82.83836,50,30,0
82.3309,82.83836,43,25,0
82.83836,83.34582,62,30,0
82.83836,83.34582,54,25,0
82.83836,83.34582,50,25,0
83.34582,83.8642,50,30,0
83.34582,83.8642,43,25,0
83.8642,84.39173,62,30,0
83.8642,84.39173,54,25,0
83.8642,84.39173,50,25,0
84.39173,84.93659,50,30,0
84.39173,84.93659,43,25,0
84.93659,85.47942,62,29,0
84.93659,85.47942,55,24,0
84.93659,85.47942,50,24,0
85.47942,85.744064,50,28,0
85.47942,85.744064,43,23,0
85.9971,86.49998,52,64,0
86.49998,86.75185,50,50,0
86.49998,86.75185,43,41,0
86.99941,87.49572,55,67,0
87.49572,87.74439,54,49,0
87.49572,87.74439,43,40,0
87.49572,87.74439,50,49,0
87.98987,88.486084,63,61,0
88.486084,88.735794,62,52,0
88.486084,88.735794,57,44,0
88.486084,88.735794,55,44,0
88.985504,89.4806,66,66,0
89.4806,89.727196,67,56,0
89.97121,90.46593,58,67,0
90.46593,90.716736,59,55,0
90.96164,91.45759,56,69,0
91.45759,91.70149,57,60,0
91.94773,92.447395,51,71,0
92.447395,92.698975,50,64,0
92.9543,93.341576,42,78,0
93.47354,93.6055,43,74,0
93.73746,94.25143,52,63,0
94.25143,94.76091,55,75,0
93.73746,94.76091,59,78,0
93.73746,94.76091,64,78,0
94.76091,94.89052,59,59,0
94.76091,94.89052,62,72,0
95.020134,95.14974,59,63,0
95.020134,95.14974,54,55,0
95.020134,95.14974,50,55,0
95.27936,95.79332,48,63,0
95.79332,96.30392,52,75,0
95.27936,96.30392,55,78,0
95.27936,96.30392,60,78,0
96.30392,96.433525,55,59,0
96.30392,96.433525,59,72,0
96.822365,97.33203,59,64,0
96.822365,97.33203,47,56,0
97.33203,97.83412,58,67,0
97.33203,97.83412,46,57,0
96.822365,97.83412,50,56,0
97.83412,98.33621,57,69,0
97.83412,98.33621,51,57,0
97.83412,98.33621,45,57,0
98.33621,98.46412,56,64,0
98.33621,98.46412,50,55,0
98.33621,98.46412,44,46,0
98.59145,98.72167,56,61,0
98.59145,98.72167,59,61,0
98.59145,98.72167,50,44,0
98.8519,99.356094,57,64,0
98.8519,99.356094,60,64,0
98.8519,99.356094,48,55,0
99.356094,99.480064,59,71,0
99.356094,99.480064,55,59,0
99.356094,99.480064,50,55,0
99.604034,99.85719,55,61,0
100.36686,100.88262,50,61,0
100.88262,101.01458,55,66,0
99.85719,101.01458,62,77,0
101.146545,101.2785,62,74,0
101.146545,101.2785,59,62,0
101.146545,101.2785,55,62,0
101.41046,101.92443,52,63,0
101.92443,102.433914,55,75,0
101.41046,102.433914,59,78,0
101.41046,102.433914,64,78,0
102.433914,102.56352,59,59,0
102.433914,102.56352,62,72,0
102.69314,102.82275,59,63,0
102.69314,102.82275,54,55,0
102.69314,102.82275,50,55,0
102.95236,103.466324,48,63,0
103.466324,103.97692,52,75,0
102.95236,103.97692,55,78,0
102.95236,103.97692,60,78,0
103.97692,104.10653,55,59,0
103.97692,104.10653,59,72,0
104.49537,105.00709,59,64,0
104.49537,105.00709,47,56,0
105.00709,105.518814,58,60,0
105.00709,105.518814,46,50,0
104.49537,105.518814,50,56,0
105.518814,106.02507,61,69,0
105.518814,106.02507,49,58,0
105.518814,106.02507,55,58,0
106.02507,106.530075,60,59,0
106.02507,106.530075,48,49,0
106.02507,106.530075,54,48,0
106.530075,107.03507,63,72,0
106.530075,107.03507,51,61,0
106.530075,107.03507,57,61,0
107.03507,107.53794,62,61,0
107.03507,107.53794,50,51,0
107.03507,107.53794,56,50,0
107.53794,108.04083,65,75,0
107.53794,108.04083,53,63,0
107.53794,108.04083,59,63,0
108.04083,108.47347,64,69,0
108.04083,108.47347,52,58,0
108.04083,108.47347,58,56,0
108.51787,108.73983,67,59,0
108.49567,108.73983,61,55,0
108.47347,108.73983,55,50,0
108.48457,108.73983,58,53,0
108.50677,108.73983,64,57,0
108.784225,109.00619,70,58,0
108.76203,109.00619,64,52,0
108.73983,109.00619,58,48,0
108.75093,109.00619,61,51,0
108.773125,109.00619,67,56,0
109.05058,109.27255,73,60,0
109.02839,109.27255,67,56,0
109.00619,109.27255,61,52,0
109.01729,109.27255,64,56,0
109.03949,109.27255,70,59,0
109.31694,109.53891,76,58,0
109.29475,109.53891,70,53,0
109.27255,109.53891,64,50,0
109.283646,109.53891,67,52,0
109.30585,109.53891,73,56,0
109.583305,109.808075,79,59,0
109.561104,109.808075,73,56,0
109.53891,109.808075,67,53,0
109.55001,109.808075,70,55,0
109.572205,109.808075,76,58,0
109.85426,110.09201,82,57,0
109.83111,110.09201,76,53,0
109.808075,110.09201,70,51,0
109.819595,110.09201,73,53,0
109.84269,110.09201,79,56,0
110.143456,110.70942,85,59,0
110.11774,110.70942,79,55,0
110.09201,110.70942,73,51,0
110.10487,110.70942,76,53,0
110.1306,110.70942,82,58,0
110.765945,111.387695,88,59,0
110.73768,111.387695,82,55,0
110.70942,111.387695,76,50,0
110.72355,111.387695,79,53,0
110.75181,111.387695,85,57,0
112.508415,112.667595,52,72,0
112.82678,112.989365,49,71,0
113.15195,113.31454,46,70,0
113.47712,114.14535,45,74,0
114.14535,114.81357,43,72,0
115.54297,116.884605,50,51,0
115.54297,116.884605,57,51,0
114.81357,116.884605,42,71,0
117.83489,118.44568,43,40,0
118.44568,119.06423,50,37,0
119.06423,119.37867,55,34,0
119.06423,119.37867,58,34,0
119.06423,119.37867,62,40,0
119.37867,119.68376,58,49,0
119.68376,119.99982,57,50,0
119.99982,120.31914,55,48,0
120.31914,120.62217,54,43,0
120.62217,120.9303,55,48,0
120.31914,120.9303,46,36,0
120.31914,120.9303,50,36,0
120.9303,121.23392,58,52,0
121.23392,121.54518,60,48,0
121.54518,121.84953,62,52,0
122.1586,122.79458,48,35,0
122.79458,123.09718,50,42,0
123.09718,123.40532,63,50,0
123.40532,123.71814,61,50,0
123.40532,123.71814,55,31,0
123.40532,123.71814,58,31,0
123.71814,124.03228,63,39,0
124.03228,124.34194,62,40,0
124.03228,124.34194,58,34,0
124.03228,124.34194,55,34,0
124.65522,125.28548,50,42,0
125.58756,125.897285,51,42,0
125.897285,126.21334,49,44,0
126.21334,126.529396,51,32,0
126.529396,127.763725,50,35,0
125.28548,127.763725,43,46,0
127.763725,128.373,43,40,0
128.373,128.98215,50,37,0
128.98215,129.30472,55,34,0
128.98215,129.30472,58,34,0
128.98215,129.30472,62,40,0
129.30472,129.59598,58,50,0
129.59598,129.89598,57,53,0
129.89598,130.21684,55,49,0
130.21684,130.50952,53,38,0
130.50952,130.80803,55,49,0
130.21684,130.80803,46,44,0
130.80803,131.11105,58,52,0
131.11105,131.42233,62,49,0
131.42233,131.72668,65,52,0
132.03574,132.67172,43,41,0
132.96875,133.27487,55,44,0
132.67172,133.27487,45,44,0
133.27487,133.57404,57,48,0
133.57404,133.8853,60,45,0
133.8853,134.18965,63,41,0
134.49872,135.1347,42,36,0
135.45216,135.75673,50,37,0
135.1347,135.75673,43,42,0
135.75673,136.06645,55,43,0
136.06645,136.3825,58,39,0
136.3825,136.69037,62,38,0
137.0055,137.63467,48,36,0
138.26628,138.91501,62,34,0
138.91501,139.57074,61,33,0
137.63467,140.24544,50,42,0
139.57074,140.56801,60,32,0
140.56801,140.89767,58,36,0
140.24544,140.89767,55,30,0
140.89767,141.22736,55,37,0
141.22736,141.55702,50,36,0
141.55702,142.19278,43,36,0
142.79141,143.39627,51,52,0
143.39627,144.00238,65,49,0
144.00238,145.22057,53,44,0
144.00238,145.22057,57,44,0
144.00238,145.22057,60,52,0
145.52513,145.81781,53,60,0
145.22057,145.81781,50,67,0
145.81781,146.10907,58,63,0
146.10907,146.41116,62,59,0
147.00499,147.60751,58,44,0
146.41116,147.60751,65,66,0
147.00499,147.60751,53,44,0
147.00499,147.60751,62,52,0
147.90381,148.19228,53,53,0
147.60751,148.19228,48,57,0
148.19228,148.48354,57,58,0
148.48354,148.7791,63,54,0
149.38431,149.9928,57,39,0
148.7791,149.9928,65,57,0
149.38431,149.9928,63,47,0
149.38431,149.9928,53,39,0
150.30208,150.5991,53,50,0
149.9928,150.5991,46,53,0
150.5991,150.9068,58,53,0
150.9068,151.22426,62,48,0
151.82344,152.42038,58,34,0
151.22426,152.42038,65,47,0
151.82344,152.42038,53,34,0
151.82344,152.42038,62,41,0
152.42038,153.01733,51,52,0
153.01733,153.62646,65,49,0
153.62646,154.84464,53,44,0
153.62646,154.84464,57,44,0
153.62646,154.84464,60,52,0
155.1359,155.43294,54,60,0
154.84464,155.43294,50,67,0
155.43294,155.73145,57,64,0
155.73145,156.02701,62,62,0
156.02701,156.6201,66,58,0
156.6201,157.22829,62,47,0
156.6201,157.22829,57,39,0
157.52892,157.83401,55,52,0
157.22829,157.83401,50,55,0
157.83401,158.13611,58,58,0
158.13611,158.44272,62,53,0
158.44272,159.05025,67,57,0
159.05025,159.66261,55,32,0
159.05025,159.66261,62,36,0
159.96324,160.26987,54,36,0
159.66261,160.26987,50,53,0
160.26987,160.57196,57,43,0
160.57196,160.87704,62,38,0
160.87704,161.48004,66,43,0
161.48004,162.09422,62,35,0
161.48004,162.09422,60,35,0
161.48004,162.09422,57,35,0
162.39273,162.6973,55,44,0
162.09422,162.6973,50,53,0
162.6973,163.00186,58,46,0
163.00186,163.30643,62,44,0
163.30643,163.91861,67,44,0
163.91861,164.53833,55,44,0
163.91861,164.53833,58,44,0
163.91861,164.53833,62,44,0
164.53833,164.84442,57,46,0
164.53833,164.84442,50,46,0
164.84442,165.14532,67,53,0
165.14532,165.44736,66,52,0
165.44736,165.75113,63,51,0
165.75113,166.07198,62,50,0
166.07198,166.392,60,48,0
166.392,166.7064,58,47,0
166.7064,167.01756,57,46,0
167.01756,167.64642,43,40,0
167.64642,168.26535,50,37,0
168.26535,168.57977,55,34,0
168.26535,168.57977,58,34,0
168.26535,168.57977,62,40,0
168.57977,168.88487,58,49,0
168.88487,169.20093,57,52,0
169.20093,169.52025,55,48,0
169.52025,169.819,54,43,0
169.819,170.12358,55,48,0
169.52025,170.12358,46,36,0
169.52025,170.12358,50,36,0
170.12358,170.42719,58,52,0
170.42719,170.73845,60,50,0
170.73845,171.0428,62,52,0
171.35187,171.98785,48,35,0
171.98785,172.29045,50,42,0
172.29045,172.59859,63,50,0
172.59859,172.9114,61,50,0
172.59859,172.9114,55,31,0
172.59859,172.9114,58,31,0
172.9114,173.22424,63,39,0
173.22424,173.5339,62,40,0
173.22424,173.5339,58,34,0
173.22424,173.5339,55,34,0
173.84718,174.47743,50,42,0
174.77953,175.08925,51,42,0
175.08925,175.4053,49,44,0
175.4053,175.72136,51,32,0
175.72136,176.94363,50,35,0
174.47743,176.94363,43,46,0
176.94363,177.54672,43,40,0
177.54672,178.15585,50,37,0
178.15585,178.46732,55,34,0
178.15585,178.46732,58,34,0
178.15585,178.46732,62,40,0
178.46732,178.76651,58,50,0
178.76651,179.0726,57,53,0
179.0726,179.38588,55,49,0
178.76651,179.38588,45,40,0
179.38588,179.69516,53,38,0
179.69516,179.99367,55,49,0
179.38588,179.99367,46,44,0
179.99367,180.2907,58,51,0
180.2907,180.59372,62,49,0
180.59372,180.89807,65,52,0
181.20714,181.84312,43,41,0
182.154,182.45401,55,44,0
181.84312,182.45401,45,44,0
182.45401,182.75317,57,48,0
182.75317,183.0562,60,45,0
183.0562,183.36055,63,41,0
183.66962,184.30559,42,36,0
184.61372,184.92816,50,35,0
184.30559,184.92816,43,39,0
184.92816,185.23788,55,40,0
185.23788,185.55394,58,37,0
185.55394,185.86179,62,36,0
186.17691,186.80717,48,34,0
187.44122,188.08102,62,32,0
188.08102,188.72661,61,31,0
186.80717,189.38023,50,39,0
188.72661,189.69601,60,30,0
189.69601,190.01688,58,34,0
189.38023,190.01688,55,28,0
190.01688,190.33774,55,35,0
190.33774,190.65858,50,34,0
190.65858,191.89467,43,34,0
191.28554,192.49782,50,36,0
191.89467,194.31622,43,38,0
192.49782,194.92397,50,36,0
194.92397,196.14262,50,36,0
194.31622,196.14262,43,40,0
196.14262,197.06732,62,39,0
196.14262,197.06732,55,37,0
197.3782,197.98898,50,33,0
197.3782,197.98898,62,32,0
197.3782,197.98898,60,30,0
197.3782,197.98898,43,33,0
198.29668,198.60918,58,51,0
198.60918,198.91687,57,54,0
198.91687,199.22937,55,50,0
197.98898,199.22937,54,38,0
199.22937,199.53706,54,54,0
199.53706,199.84956,52,51,0
199.84956,200.16045,54,54,0
200.16045,200.48325,55,51,0
200.48325,201.69711,43,36,0
200.48325,201.69711,50,36,0
201.69711,204.14044,31,37,0
202.308,204.75284,38,34,0
204.75284,205.973,38,33,0
204.14044,205.973,31,37,0
205.973,206.8977,50,35,0
205.973,206.8977,43,33,0
207.20859,207.81938,38,29,0
207.20859,207.81938,50,28,0
207.20859,207.81938,48,27,0
207.20859,207.81938,31,29,0
208.12708,208.43958,46,45,0
208.43958,208.74725,45,47,0
208.74725,209.05975,43,43,0
207.81938,209.05975,42,34,0
209.05975,209.37723,42,46,0
209.37723,209.70662,40,43,0
209.70662,210.02577,42,45,0
210.02577,210.35544,43,41,0
210.35544,210.71259,31,31,0
210.71259,211.31752,38,36,0
211.31752,211.91283,31,29,0
211.91283,212.49892,38,32,0
212.49892,213.07585,31,27,0
213.07585,213.6439,38,33,0
213.6439,214.20401,31,29,0
214.20401,214.76215,38,34,0
214.76215,215.31645,31,30,0
215.31645,215.86691,50,36,0
215.86691,216.42122,43,32,0
216.42122,216.97916,50,36,0
216.97916,217.53217,43,31,0
217.53217,218.0797,50,37,0
218.0797,218.62187,43,33,0
218.62187,219.16408,50,38,0
219.16408,219.70964,43,33,0
219.70964,220.25647,50,40,0
220.25647,220.80331,43,35,0
220.80331,221.34143,50,42,0
221.34143,221.87955,43,38,0
221.87955,222.42638,62,43,0
222.42638,222.97443,55,39,0
222.97443,223.52248,62,45,0
223.52248,224.07175,55,41,0
224.07175,224.61473,74,40,0
224.07175,224.61473,67,40,0
224.61473,225.15813,74,34,0
224.61473,225.15813,67,34,0
225.15813,225.70903,74,36,0
225.15813,225.70903,67,36,0
225.70903,226.26935,74,29,0
225.70903,226.26935,67,29,0
226.26935,226.84058,74,31,0
226.26935,226.84058,67,31,0
226.84058,227.42336,74,27,0
226.84058,227.42336,67,27,0
227.42336,228.01604,74,29,0
227.42336,228.01604,67,29,0
228.01604,231.54103,74,25,0
228.01604,231.54103,67,25,0
