start_time,end_time,note_value,velocity,instrument_program_number
0.0017720438,0.4252905,66,55,0
0.4252905,0.6676841,68,52,0
0.6302925,0.854642,69,48,0
0.854642,1.2799325,68,55,0
1.2799325,1.705223,71,45,0
0.854642,1.705223,59,30,0
0.854642,1.705223,64,36,0
2.1305134,2.555804,69,52,0
2.555804,2.9343832,71,62,0
2.555804,2.9343832,68,52,0
2.9687996,3.3675816,73,66,0
2.9687996,3.3675816,69,56,0
1.705223,3.4038346,64,55,0
3.4038346,4.2544155,76,59,0
3.4038346,4.2544155,71,49,0
4.2544155,5.1049967,69,49,0
4.2544155,5.1049967,73,57,0
3.4038346,5.1049967,64,46,0
5.1049967,5.521663,73,69,0
5.521663,5.763768,74,68,0
5.726665,5.949283,76,66,0
5.949283,6.3714614,78,66,0
5.949283,6.8098655,73,55,0
6.3714614,6.8098655,73,59,0
5.949283,6.8098655,66,46,0
6.8098655,7.6604466,74,57,0
6.8098655,7.6604466,66,35,0
6.8098655,7.6604466,71,42,0
7.6604466,8.095229,66,58,0
8.095229,8.339984,68,55,0
8.305019,8.522653,69,51,0
8.522653,8.945188,73,50,0
8.522653,9.392948,63,46,0
8.945188,9.818239,70,45,0
9.818239,10.298732,71,42,0
9.392948,10.298732,62,40,0
10.298732,10.724022,66,55,0
10.724022,10.966415,68,54,0
10.929024,11.153374,69,50,0
11.153374,11.578664,68,55,0
11.578664,12.003954,71,45,0
11.153374,12.003954,59,37,0
11.153374,12.003954,64,37,0
12.429245,12.854535,69,55,0
12.854535,13.235845,71,62,0
12.854535,13.235845,68,52,0
13.270509,13.6723795,73,67,0
13.270509,13.6723795,69,57,0
12.003954,13.708913,64,55,0
13.708913,14.559494,76,61,0
13.708913,14.559494,71,49,0
14.559494,15.410075,69,54,0
14.559494,15.410075,73,63,0
13.708913,15.410075,64,45,0
15.410075,15.823071,73,75,0
15.823071,16.060946,75,72,0
16.024412,16.243614,76,68,0
16.243614,16.66261,68,73,0
16.66261,17.094326,73,59,0
16.243614,17.094326,64,53,0
17.094326,17.964853,66,43,0
17.094326,17.964853,63,43,0
17.094326,17.964853,71,62,0
17.964853,18.383846,73,76,0
18.383846,18.623653,75,75,0
17.964853,18.809168,71,58,0
17.964853,18.809168,64,58,0
18.58655,18.809168,76,70,0
18.809168,19.228163,68,73,0
19.228163,19.669989,73,58,0
18.809168,19.669989,64,53,0
19.669989,20.547564,63,43,0
19.669989,20.547564,66,43,0
19.669989,20.547564,71,62,0
20.547564,20.963537,73,77,0
20.963537,21.210587,75,75,0
20.547564,21.4059,64,59,0
20.547564,21.4059,71,59,0
21.171524,21.4059,76,71,0
21.4059,21.837616,80,75,0
21.837616,22.269333,76,64,0
22.269333,22.691511,75,68,0
22.691511,23.14021,73,62,0
23.14021,24.018526,63,44,0
23.14021,24.018526,66,44,0
23.14021,24.018526,73,55,0
24.018526,24.459702,61,58,0
24.459702,24.912458,59,56,0
24.018526,24.932142,66,52,0
24.018526,24.932142,63,44,0
24.932142,25.949398,64,45,0
24.932142,25.949398,59,39,0
25.949398,26.370056,74,54,0
26.370056,26.610748,73,50,0
26.573357,26.797707,71,47,0
26.797707,27.222996,66,51,0
27.222996,27.67528,69,40,0
26.797707,27.67528,63,43,0
27.67528,28.542974,68,46,0
27.67528,28.542974,64,39,0
28.542974,28.974628,66,50,0
28.542974,28.974628,61,41,0
28.974628,29.419865,68,39,0
28.974628,29.419865,60,31,0
29.419865,29.854647,66,50,0
29.419865,29.854647,61,41,0
29.854647,30.30693,60,30,0
29.854647,30.30693,68,38,0
30.30693,31.225357,64,42,0
30.30693,31.225357,59,37,0
31.225357,31.63989,74,54,0
31.63989,31.877722,73,50,0
31.84033,32.06468,71,47,0
32.06468,32.49319,66,51,0
32.49319,32.945473,69,40,0
32.06468,32.945473,63,43,0
32.945473,33.81946,68,46,0
32.945473,33.81946,64,39,0
33.81946,34.25742,66,50,0
33.81946,34.25742,61,41,0
34.25742,34.702656,68,39,0
34.25742,34.702656,60,31,0
34.702656,35.137436,66,50,0
34.702656,35.137436,61,41,0
35.137436,35.58972,60,30,0
35.137436,35.58972,68,38,0
35.58972,36.49429,64,42,0
35.58972,36.49429,59,37,0
36.49429,36.905247,70,56,0
36.49429,36.905247,64,46,0
36.905247,37.336903,72,50,0
36.905247,37.336903,63,42,0
37.336903,37.750694,64,46,0
37.336903,37.750694,70,56,0
37.750694,38.18548,72,50,0
37.750694,38.18548,63,41,0
38.18548,39.055042,68,51,0
38.18548,39.055042,63,42,0
39.055042,39.457726,74,59,0
39.055042,39.457726,68,51,0
39.457726,39.88938,76,56,0
39.457726,39.88938,67,46,0
39.88938,40.289383,68,53,0
39.88938,40.289383,74,62,0
40.289383,40.714912,76,57,0
40.289383,40.714912,67,47,0
40.714912,41.140446,63,37,0
40.714912,41.140446,66,44,0
41.140446,41.56598,67,38,0
41.140446,41.56598,64,30,0
40.714912,41.56598,72,52,0
41.56598,41.794735,74,59,0
41.56598,41.958134,68,55,0
41.76206,41.992382,77,47,0
41.958134,42.369095,72,44,0
41.958134,42.369095,67,44,0
41.958134,42.369095,76,59,0
42.369095,42.60243,74,59,0
42.369095,42.769093,68,56,0
42.569096,42.804306,77,49,0
42.769093,43.191628,67,44,0
42.769093,43.191628,72,45,0
42.769093,43.191628,76,59,0
43.191628,43.614162,66,49,0
43.191628,43.614162,63,41,0
43.614162,44.036697,67,42,0
43.614162,44.036697,64,33,0
43.191628,44.036697,72,59,0
44.036697,44.442104,68,56,0
44.036697,44.442104,74,67,0
44.442104,44.86464,72,49,0
44.442104,44.86464,67,49,0
44.442104,44.86464,76,63,0
44.86464,45.26199,79,71,0
44.86464,45.26199,70,59,0
45.26199,45.687523,78,64,0
45.26199,45.687523,69,52,0
45.687523,46.084873,68,59,0
45.687523,46.084873,77,71,0
46.084873,46.504456,76,64,0
46.084873,46.504456,67,52,0
46.504456,46.908794,76,71,0
46.504456,46.908794,67,59,0
46.908794,47.32546,75,64,0
46.908794,47.32546,66,52,0
47.32546,47.557247,70,65,0
47.32546,47.72281,64,63,0
47.524136,47.758022,73,52,0
47.72281,48.145344,66,42,0
47.72281,48.145344,71,55,0
47.72281,48.145344,63,42,0
48.145344,48.564926,76,69,0
48.145344,48.564926,67,57,0
48.564926,49.010162,75,63,0
48.564926,49.010162,66,52,0
49.010162,49.24195,70,55,0
49.010162,49.407513,64,58,0
49.208836,49.44248,73,52,0
49.407513,49.82709,63,33,0
49.407513,49.82709,71,42,0
49.407513,49.82709,66,33,0
49.82709,50.060425,70,56,0
49.82709,50.227093,64,56,0
50.027092,50.264687,73,48,0
50.227093,50.678223,66,30,0
50.227093,50.678223,63,30,0
50.227093,50.678223,71,41,0
50.678223,51.146973,61,41,0
50.678223,51.146973,58,34,0
51.146973,51.655445,59,36,0
50.678223,51.655445,66,48,0
51.655445,52.096622,66,54,0
52.096622,52.343803,68,51,0
52.30641,52.53076,69,47,0
52.53076,52.95605,68,55,0
52.95605,53.381344,71,44,0
52.53076,53.381344,59,36,0
52.53076,53.381344,64,36,0
53.806633,54.231922,69,56,0
54.231922,54.610504,71,62,0
54.231922,54.610504,68,52,0
54.64492,55.0437,69,56,0
54.64492,55.0437,73,66,0
53.381344,55.079956,64,55,0
55.079956,55.930534,71,49,0
55.079956,55.930534,76,59,0
55.930534,56.781116,73,57,0
55.930534,56.781116,69,49,0
55.079956,56.781116,64,49,0
56.781116,57.206406,73,69,0
57.206406,57.45141,74,68,0
57.411407,57.65141,76,66,0
57.65141,58.073586,78,66,0
57.65141,58.51199,73,55,0
58.073586,58.51199,73,59,0
57.65141,58.51199,66,46,0
58.51199,59.36257,66,46,0
58.51199,59.36257,71,46,0
58.51199,59.36257,74,57,0
59.36257,59.794228,66,57,0
59.794228,60.038982,68,52,0
60.004017,60.22165,69,46,0
60.22165,60.64123,73,54,0
60.22165,61.088993,63,49,0
60.64123,61.54701,70,44,0
61.54701,62.027008,71,42,0
61.088993,62.027008,62,40,0
62.027008,62.452297,66,55,0
62.452297,62.69469,68,54,0
62.6573,62.88165,69,47,0
62.88165,63.30694,68,55,0
63.30694,63.73223,71,45,0
62.88165,63.73223,59,36,0
62.88165,63.73223,64,36,0
64.157524,64.58281,69,55,0
64.58281,64.96412,71,62,0
64.58281,64.96412,68,52,0
64.99879,65.40066,69,57,0
64.99879,65.40066,73,67,0
63.73223,65.43719,64,55,0
65.43719,66.28777,71,51,0
65.43719,66.28777,76,61,0
66.28777,67.13835,73,63,0
66.28777,67.13835,69,54,0
65.43719,67.13835,64,47,0
67.13835,67.551346,73,72,0
67.551346,67.79438,75,70,0
67.75784,67.97704,76,66,0
67.97704,68.39604,68,74,0
68.39604,68.82776,73,60,0
67.97704,68.82776,64,50,0
68.82776,69.69829,71,66,0
68.82776,69.69829,66,47,0
68.82776,69.69829,63,47,0
69.69829,70.11728,73,78,0
70.11728,70.36388,75,70,0
69.69829,70.54939,71,60,0
69.69829,70.54939,64,60,0
70.326775,70.54939,76,64,0
70.54939,70.96839,68,74,0
70.96839,71.41022,73,62,0
70.54939,71.41022,64,50,0
71.41022,72.36165,63,47,0
71.41022,72.36165,66,47,0
71.41022,72.36165,71,66,0
72.36165,73.353386,76,61,0
73.353386,73.82582,74,52,0
73.82582,74.32169,72,44,0
74.32169,74.8013,71,50,0
74.8013,75.314125,70,42,0
72.36165,75.314125,67,48,0
72.36165,75.314125,64,48,0
75.819176,75.97069,55,38,0
75.97069,76.12221,59,34,0
76.12221,76.27372,64,36,0
76.27372,76.42354,69,39,0
76.42354,76.57279,67,34,0
76.57279,76.71549,64,34,0
76.71549,76.854385,70,38,0
76.854385,76.99138,71,34,0
76.99138,77.12629,76,34,0
77.12629,77.25962,78,38,0
77.25962,77.39296,79,34,0
77.39296,77.528114,83,34,0
77.528114,77.77499,88,40,0
78.01171,78.96409,76,61,0
78.96409,79.422104,74,55,0
79.422104,79.92631,72,46,0
79.92631,80.40631,71,50,0
80.40631,80.92355,70,41,0
78.01171,80.92355,67,48,0
78.01171,80.92355,64,48,0
81.436485,81.59152,55,38,0
81.59152,81.74656,59,34,0
81.74656,81.901596,64,36,0
81.901596,82.055374,69,39,0
82.055374,82.20915,67,34,0
82.20915,82.36152,64,34,0
83.68049,84.6561,76,61,0
84.6561,85.11764,74,53,0
85.11764,85.63488,72,45,0
85.63488,86.114876,71,51,0
86.114876,86.63662,70,44,0
83.68049,86.63662,67,48,0
83.68049,86.63662,64,48,0
87.118126,87.26964,55,38,0
87.26964,87.42116,59,34,0
87.42116,87.57267,64,36,0
87.57267,87.72419,69,39,0
87.72419,87.87486,67,34,0
87.87486,88.02139,64,34,0
88.02139,88.16477,70,38,0
88.16477,88.30513,71,34,0
88.30513,88.4426,76,34,0
88.4426,88.57773,78,38,0
88.57773,88.71287,79,34,0
88.71287,88.855,83,34,0
88.855,89.1038,88,40,0
89.3526,90.336205,76,61,0
90.336205,90.804955,74,57,0
90.804955,91.3222,72,52,0
91.3222,91.80607,71,57,0
91.80607,92.33238,70,51,0
89.3526,92.33238,67,48,0
89.3526,92.33238,64,48,0
92.82419,93.31599,76,58,0
93.31599,93.78843,74,65,0
93.78843,94.30125,72,60,0
94.30125,94.78512,71,69,0
94.78512,95.30686,70,69,0
93.31599,95.30686,67,59,0
93.31599,95.30686,64,45,0
95.81534,95.97928,61,62,0
95.97928,96.138275,65,57,0
96.138275,96.294304,68,57,0
95.30686,96.294304,77,72,0
96.7624,96.91979,58,62,0
96.91979,97.07018,63,55,0
97.07018,97.214615,67,55,0
96.294304,97.214615,70,74,0
97.6793,97.8314,60,62,0
97.8314,97.97848,63,57,0
97.97848,98.10311,68,57,0
97.214615,98.12059,75,74,0
98.58086,98.72847,58,62,0
98.72847,98.88264,61,57,0
98.88264,99.04658,65,57,0
98.12059,99.04658,68,74,0
99.04658,99.55718,67,66,0
99.51901,100.01735,68,58,0
99.97703,100.50515,72,58,0
99.97703,100.991875,61,41,0
99.97703,100.991875,63,41,0
100.4609,100.991875,70,42,0
101.48832,101.638985,61,62,0
101.638985,101.786865,65,57,0
101.786865,101.93163,68,57,0
100.991875,101.93163,77,71,0
102.39803,102.544304,58,62,0
102.544304,102.68541,63,55,0
102.68541,102.82171,67,55,0
101.93163,102.82171,70,73,0
103.284164,103.42605,60,62,0
103.42605,103.5603,63,57,0
103.5603,103.73824,68,57,0
102.82171,103.73824,75,75,0
104.19941,104.345665,65,62,0
104.345665,104.48802,68,57,0
104.48802,104.62644,72,57,0
103.73824,104.62644,80,76,0
105.08476,105.22917,62,62,0
105.22917,105.37027,67,55,0
105.37027,105.50774,71,55,0
104.62644,105.50774,74,74,0
105.96949,106.11682,63,62,0
106.11682,106.2602,67,57,0
106.2602,106.39958,72,57,0
105.50774,106.39958,79,75,0
106.861336,107.01317,61,58,0
107.01317,107.162056,59,55,0
107.162056,107.307846,65,55,0
106.39958,107.307846,71,71,0
107.307846,107.78933,70,68,0
107.75229,108.23461,71,64,0
108.19673,108.69162,76,58,0
108.19673,109.13538,64,45,0
108.19673,109.13538,67,58,0
108.651276,109.13538,72,47,0
109.59597,109.7425,61,58,0
109.7425,109.88486,59,55,0
109.88486,110.029045,65,55,0
109.13538,110.029045,71,71,0
110.029045,110.548386,70,68,0
110.50163,110.712,71,58,0
111.06259,111.350365,79,69,0
111.350365,111.66044,76,63,0
110.99248,111.99954,72,64,0
111.66044,111.99954,72,63,0
110.922356,111.99954,67,64,0
112.46129,112.613396,61,58,0
112.613396,112.763336,59,55,0
112.763336,112.9141,65,55,0
111.99954,112.9141,71,71,0
112.9141,113.4141,70,69,0
113.37563,113.89488,71,64,0
113.85641,114.342636,76,65,0
113.85641,114.7864,64,51,0
113.85641,114.7864,67,57,0
114.30229,114.7864,72,49,0
115.248146,115.40136,61,58,0
115.40136,115.550766,59,55,0
115.550766,115.7,65,55,0
114.7864,115.7,71,73,0
115.7,116.16175,70,70,0
116.16175,116.38684,71,58,0
116.38684,116.46187,71,53,0
116.46187,116.536896,72,58,0
116.536896,116.61193,71,52,0
116.61193,116.68696,70,58,0
116.68696,116.761986,71,52,0
116.761986,117.06968,80,69,0
117.06968,117.56616,79,63,0
117.56616,117.74873,77,63,0
118.22354,118.38259,64,58,0
118.38259,118.544876,67,55,0
118.544876,118.71017,72,55,0
117.74873,118.71017,77,79,0
118.878235,119.04773,75,64,0
118.71017,119.218666,76,73,0
119.04773,119.218666,76,53,0
119.218666,119.39108,79,53,0
119.39108,119.56538,78,52,0
119.56538,119.76752,79,46,0
119.76752,120.37395,84,52,0
120.98038,121.97211,76,61,0
121.97211,122.44455,74,53,0
122.44455,122.94042,72,45,0
122.94042,123.42003,71,52,0
123.42003,123.93285,70,40,0
120.98038,123.93285,67,48,0
120.98038,123.93285,64,48,0
124.4694,124.62092,55,38,0
124.62092,124.77243,59,34,0
124.77243,124.92204,64,36,0
124.92204,125.06541,69,39,0
125.06541,125.20726,67,34,0
125.20726,125.3464,64,34,0
125.3464,125.48338,70,38,0
125.48338,125.61852,71,34,0
125.61852,125.75186,76,34,0
125.75186,125.88344,78,38,0
125.88344,126.015015,79,34,0
126.015015,126.1493,83,34,0
126.1493,126.39617,88,40,0
126.6329,127.58527,76,61,0
127.58527,128.04329,74,53,0
128.04329,128.5475,72,44,0
128.5475,129.0275,71,51,0
129.0275,129.54474,70,42,0
126.6329,129.54474,67,48,0
126.6329,129.54474,64,48,0
130.05238,130.2039,55,38,0
130.2039,130.35541,59,34,0
130.35541,130.50693,64,36,0
130.50693,130.65508,69,39,0
130.65508,130.80267,67,34,0
130.80267,130.94974,64,34,0
132.25766,133.23326,76,61,0
133.23326,133.69481,74,56,0
133.69481,134.21205,72,45,0
134.21205,134.69205,71,50,0
134.69205,135.24251,70,44,0
132.25766,135.24251,67,48,0
132.25766,135.24251,64,48,0
135.77281,135.92432,55,38,0
135.92432,136.07584,59,34,0
136.07584,136.22736,64,36,0
136.22736,136.37308,69,39,0
136.37308,136.51697,67,34,0
136.51697,136.65881,64,34,0
136.65881,136.79868,70,38,0
136.79868,136.93661,71,34,0
136.93661,137.07314,76,34,0
137.07314,137.20827,78,38,0
137.20827,137.3434,79,34,0
137.3434,137.48553,83,34,0
137.48553,137.73433,88,40,0
137.98312,138.96674,76,64,0
138.96674,139.43549,74,57,0
139.43549,139.95273,72,48,0
139.95273,140.4366,71,53,0
140.4366,140.96292,70,51,0
138.96674,140.96292,67,42,0
138.96674,140.96292,64,35,0
141.45473,141.94652,76,58,0
142.41896,142.93178,68,65,0
142.93178,143.41565,69,67,0
143.41565,143.9374,70,71,0
141.94652,143.9374,66,44,0
141.94652,143.9374,64,37,0
144.44586,144.60982,63,62,0
144.60982,144.76881,66,57,0
144.76881,144.92484,71,57,0
143.9374,144.92484,78,73,0
145.39293,145.55032,59,62,0
145.55032,145.70071,62,55,0
145.70071,145.84515,67,55,0
144.92484,145.84515,74,73,0
146.30983,146.46193,59,62,0
146.46193,146.60901,63,57,0
146.60901,146.73364,66,57,0
145.84515,146.75113,75,74,0
147.1707,147.32278,59,62,0
147.32278,147.47844,61,57,0
147.47844,147.6391,65,57,0
146.75113,147.6391,68,71,0
147.6391,148.13991,70,70,0
148.10085,148.60808,71,64,0
148.5696,149.0717,75,69,0
148.5696,149.51546,64,37,0
148.5696,149.51546,66,43,0
149.03136,149.51546,73,54,0
149.98367,150.13127,63,62,0
150.13127,150.27542,66,57,0
150.27542,150.41603,71,57,0
149.51546,150.41603,78,71,0
150.86716,151.01157,59,62,0
151.01157,151.15341,62,55,0
151.15341,151.29865,67,55,0
150.41603,151.29865,74,74,0
151.7532,151.89929,59,62,0
151.89929,152.04039,63,57,0
152.04039,152.16168,66,57,0
151.29865,152.17882,75,75,0
152.62,152.76572,59,62,0
152.76572,152.91554,61,57,0
152.91554,153.0703,65,57,0
152.17882,153.0703,68,71,0
153.0703,153.53955,70,68,0
153.50195,153.99011,71,57,0
153.95308,154.43787,75,69,0
153.95308,154.88162,64,37,0
153.95308,154.88162,66,43,0
154.39752,154.88162,73,54,0
155.34262,155.49329,63,62,0
155.49329,155.64008,66,57,0
155.64008,155.78668,71,57,0
154.88162,155.78668,78,74,0
156.24413,156.39339,59,62,0
156.39339,156.53964,62,55,0
156.53964,156.68518,67,55,0
155.78668,156.68518,74,74,0
157.12935,157.27533,59,62,0
157.27533,157.41922,63,57,0
157.41922,157.54773,66,57,0
156.68518,157.56773,75,75,0
158.17897,158.32631,59,57,0
158.32631,158.47502,62,57,0
157.56773,158.47502,67,73,0
159.08998,159.23993,62,55,0
159.23993,159.39024,63,55,0
158.47502,159.39024,66,74,0
160.02408,160.17955,47,57,0
160.17955,160.31285,50,57,0
159.39024,160.33167,55,75,0
160.33167,160.96101,54,76,0
160.94939,161.1449,53,68,0
161.10551,161.30392,54,64,0
161.27614,161.55455,55,71,0
161.51456,161.79552,56,62,0
161.7552,162.03877,57,65,0
161.99812,162.28468,58,57,0
162.24335,162.5333,59,62,0
162.49164,163.03787,61,63,0
162.9955,163.83795,62,59,0
163.79166,165.04315,63,62,0
164.96964,165.95003,64,46,0
165.85199,167.1265,65,42,0
167.02846,168.20493,66,38,0
171.25589,171.69707,66,50,0
171.69707,171.94572,68,49,0
171.90833,172.13268,69,46,0
172.13268,172.55797,68,51,0
172.55797,172.98326,71,46,0
172.13268,172.98326,64,41,0
172.13268,172.98326,59,34,0
173.40855,173.83383,69,54,0
173.83383,174.21242,71,62,0
173.83383,174.21242,68,52,0
174.24684,174.64561,73,66,0
174.24684,174.64561,69,56,0
172.98326,174.68187,64,55,0
174.68187,175.53246,76,61,0
174.68187,175.53246,71,50,0
175.53246,176.38303,73,57,0
175.53246,176.38303,69,49,0
174.68187,176.38303,64,47,0
176.38303,176.80832,73,69,0
176.80832,177.05043,74,68,0
177.01332,177.23595,76,66,0
177.23595,177.65813,78,66,0
177.23595,178.09653,73,55,0
177.65813,178.09653,73,59,0
177.23595,178.09653,66,46,0
178.09653,178.97983,74,57,0
178.09653,178.97983,71,42,0
178.09653,178.97983,66,42,0
178.97983,179.421,66,56,0
179.421,179.6681,68,52,0
179.6308,179.85468,69,48,0
179.85468,180.2772,73,52,0
179.85468,180.72166,63,46,0
180.2772,181.1533,70,48,0
181.1533,181.59854,71,38,0
180.72166,181.59854,62,36,0
181.59854,182.02383,66,55,0
182.02383,182.26624,68,50,0
182.22884,182.45319,69,46,0
182.45319,182.87848,68,55,0
182.87848,183.30377,71,48,0
182.45319,183.30377,64,41,0
182.45319,183.30377,59,34,0
183.72906,184.15436,69,55,0
184.15436,184.53566,71,62,0
184.15436,184.53566,68,52,0
184.57033,184.9722,73,67,0
184.57033,184.9722,69,57,0
183.30377,185.00873,64,62,0
185.00873,185.85931,76,61,0
185.00873,185.85931,71,54,0
185.85931,186.70988,73,63,0
185.85931,186.70988,69,54,0
185.00873,186.70988,64,48,0
186.70988,187.1229,73,75,0
187.1229,187.36592,75,70,0
187.32939,187.54858,76,67,0
187.54858,187.96758,68,74,0
187.96758,188.39929,73,64,0
187.54858,188.39929,64,50,0
188.39929,189.26982,71,62,0
188.39929,189.26982,66,43,0
188.39929,189.26982,63,43,0
189.26982,189.68881,73,81,0
189.68881,189.93542,75,75,0
189.26982,190.12094,71,62,0
189.26982,190.12094,64,62,0
189.89832,190.12094,76,71,0
190.12094,190.53993,68,73,0
190.53993,190.98175,73,63,0
190.12094,190.98175,64,50,0
190.98175,191.85933,71,62,0
190.98175,191.85933,66,43,0
190.98175,191.85933,63,43,0
191.85933,192.2753,73,77,0
192.2753,192.52235,75,69,0
191.85933,192.71767,71,59,0
191.85933,192.71767,64,59,0
192.48329,192.71767,76,64,0
192.71767,193.14938,80,74,0
193.14938,193.5811,76,62,0
193.5811,194.00328,75,66,0
194.00328,194.45198,73,63,0
194.45198,195.33029,73,55,0
194.45198,195.33029,66,44,0
194.45198,195.33029,63,44,0
195.33029,195.77147,61,58,0
195.77147,196.233,59,48,0
195.33029,196.233,66,55,0
195.33029,196.233,63,44,0
196.233,197.18993,64,50,0
196.233,197.18993,59,50,0
197.18993,197.61058,74,54,0
197.61058,197.85127,73,50,0
197.81389,198.03824,71,47,0
198.03824,198.46353,66,51,0
198.46353,198.9158,69,36,0
198.03824,198.9158,63,43,0
198.9158,199.78351,68,46,0
198.9158,199.78351,64,39,0
199.78351,200.27937,66,50,0
199.78351,200.27937,61,41,0
200.27937,200.72461,68,39,0
200.27937,200.72461,60,31,0
200.72461,201.1594,66,50,0
200.72461,201.1594,61,41,0
201.1594,201.61168,68,38,0
201.1594,201.61168,60,30,0
201.61168,202.5327,64,42,0
201.61168,202.5327,59,37,0
202.5327,202.94724,74,54,0
202.94724,203.18507,73,50,0
203.14767,203.37202,71,47,0
203.37202,203.80054,66,51,0
203.80054,204.25282,69,39,0
203.37202,204.25282,63,43,0
204.25282,205.12682,68,46,0
204.25282,205.12682,64,39,0
205.12682,205.56477,66,50,0
205.12682,205.56477,61,41,0
205.56477,206.01001,68,39,0
205.56477,206.01001,60,31,0
206.01001,206.4448,66,50,0
206.01001,206.4448,61,41,0
206.4448,206.89706,68,38,0
206.4448,206.89706,60,30,0
206.89706,207.80164,64,42,0
206.89706,207.80164,59,37,0
207.80164,208.2126,70,56,0
207.80164,208.2126,64,46,0
208.2126,208.64426,72,46,0
208.2126,208.64426,63,39,0
208.64426,209.05804,70,56,0
208.64426,209.05804,64,46,0
209.05804,209.49283,72,46,0
209.05804,209.49283,63,38,0
209.49283,210.3624,68,51,0
209.49283,210.3624,63,42,0
210.3624,210.76508,74,59,0
210.3624,210.76508,68,51,0
210.76508,211.19986,76,56,0
210.76508,211.19986,67,46,0
211.19986,211.59985,74,62,0
211.19986,211.59985,68,53,0
211.59985,212.02539,76,57,0
211.59985,212.02539,67,47,0
212.02539,212.45093,66,44,0
212.02539,212.45093,63,37,0
212.45093,212.87645,67,38,0
212.45093,212.87645,64,30,0
212.02539,212.87645,72,52,0
212.87645,213.10521,74,60,0
212.87645,213.26862,68,55,0
213.07254,213.30286,77,47,0
213.26862,213.67957,72,44,0
213.26862,213.67957,67,44,0
213.26862,213.67957,76,59,0
213.67957,213.9129,74,60,0
213.67957,214.07957,68,55,0
213.87958,214.11478,77,49,0
214.07957,214.5021,72,45,0
214.07957,214.5021,67,44,0
214.07957,214.5021,76,59,0
214.5021,214.92464,66,49,0
214.5021,214.92464,63,41,0
214.92464,215.34718,67,42,0
214.92464,215.34718,64,33,0
214.5021,215.34718,72,59,0
215.34718,215.75258,74,67,0
215.34718,215.75258,68,56,0
215.75258,216.17511,76,59,0
215.75258,216.17511,67,46,0
215.75258,216.17511,72,46,0
216.17511,216.5778,79,71,0
216.17511,216.5778,70,59,0
216.5778,217.00333,78,64,0
216.5778,217.00333,69,52,0
217.00333,217.40334,77,71,0
217.00333,217.40334,68,59,0
217.40334,217.8229,76,64,0
217.40334,217.8229,67,52,0
217.8229,218.22725,76,71,0
217.8229,218.22725,67,59,0
218.22725,218.64392,75,64,0
218.22725,218.64392,66,52,0
218.64392,218.8757,70,64,0
218.64392,219.04128,64,63,0
218.84259,219.07648,73,46,0
219.04128,219.4638,63,35,0
219.04128,219.4638,71,55,0
219.04128,219.4638,66,42,0
219.4638,219.88339,76,69,0
219.4638,219.88339,67,57,0
219.88339,220.32863,75,58,0
219.88339,220.32863,66,48,0
220.32863,220.56041,70,57,0
220.32863,220.72597,64,58,0
220.5273,220.76094,73,45,0
220.72597,221.14555,63,33,0
220.72597,221.14555,71,42,0
220.72597,221.14555,66,33,0
221.14555,221.37889,70,54,0
221.14555,221.54555,64,56,0
221.34555,221.58315,73,41,0
221.54555,221.99669,63,30,0
221.54555,221.99669,71,41,0
221.54555,221.99669,66,30,0
221.99669,222.46544,61,41,0
221.99669,222.46544,58,28,0
222.46544,222.9739,59,36,0
221.99669,222.9739,66,48,0
222.9739,223.41508,66,55,0
223.41508,223.66226,68,51,0
223.62488,223.84923,69,46,0
223.84923,224.2745,68,55,0
224.2745,224.6998,71,48,0
223.84923,224.6998,64,36,0
223.84923,224.6998,59,30,0
225.12509,225.55038,69,58,0
225.55038,225.92897,71,62,0
225.55038,225.92897,68,52,0
225.96338,226.36217,73,66,0
225.96338,226.36217,69,56,0
224.6998,226.3984,64,55,0
226.3984,227.249,76,59,0
226.3984,227.249,71,49,0
227.249,228.09958,73,57,0
227.249,228.09958,69,49,0
226.3984,228.09958,64,45,0
228.09958,228.52487,73,69,0
228.52487,228.77019,74,68,0
228.72987,228.9718,76,66,0
228.9718,229.39398,78,67,0
228.9718,229.83238,73,55,0
229.39398,229.83238,73,63,0
228.9718,229.83238,66,46,0
229.83238,230.68297,74,59,0
229.83238,230.68297,71,49,0
229.83238,230.68297,66,41,0
230.68297,231.10826,66,58,0
231.10826,231.34917,68,55,0
231.31476,231.53185,69,48,0
231.53185,231.94781,73,55,0
231.53185,232.38284,63,49,0
231.94781,232.80814,70,44,0
232.80814,233.27325,71,42,0
232.38284,233.27325,62,40,0
233.27325,233.69855,66,55,0
233.69855,233.94093,68,54,0
233.90355,234.1279,69,47,0
234.1279,234.55319,68,55,0
234.55319,234.97849,71,51,0
234.1279,234.97849,64,36,0
234.1279,234.97849,59,30,0
235.40376,235.82906,69,56,0
235.82906,236.21037,71,62,0
235.82906,236.21037,68,52,0
236.24504,236.64691,73,67,0
236.24504,236.64691,69,57,0
234.97849,236.68344,64,55,0
236.68344,237.53401,76,61,0
236.68344,237.53401,71,51,0
237.53401,238.3846,73,63,0
237.53401,238.3846,69,54,0
236.68344,238.3846,64,48,0
238.3846,238.81013,73,72,0
238.81013,239.05223,74,71,0
239.01514,239.23775,76,69,0
239.23775,239.65993,78,69,0
239.23775,240.09833,73,54,0
239.65993,240.09833,73,62,0
239.23775,240.09833,66,54,0
240.09833,240.94891,74,62,0
240.09833,240.94891,71,51,0
240.09833,240.94891,66,43,0
240.94891,241.37445,74,75,0
241.37445,241.61655,76,73,0
241.57945,241.80206,78,69,0
241.80206,242.22424,80,71,0
241.80206,242.22424,75,56,0
242.22424,242.66264,75,66,0
241.80206,242.66264,68,47,0
242.66264,243.51323,76,65,0
242.66264,243.51323,73,54,0
242.66264,243.51323,68,45,0
243.51323,243.9242,76,73,0
243.9242,244.16649,78,68,0
244.12967,244.35059,80,64,0
244.35059,244.74632,81,71,0
244.7823,245.17804,80,62,0
245.21402,245.60101,78,65,0
245.6362,246.0406,76,59,0
246.07738,246.47023,74,63,0
246.50594,247.37247,69,63,0
247.37247,248.26819,81,69,0
248.26819,248.71931,75,52,0
248.26819,248.71931,72,52,0
248.26819,248.71931,63,52,0
248.71931,249.14186,76,60,0
248.71931,249.14186,73,60,0
248.71931,249.14186,64,60,0
249.14186,249.3899,66,52,0
249.35312,249.57372,68,45,0
249.57372,249.96378,69,52,0
249.99924,251.3461,62,36,0
249.99924,251.3461,59,36,0
251.3461,251.76863,61,41,0
251.3461,251.76863,57,41,0
249.99924,251.76863,64,42,0
251.76863,252.01666,66,42,0
251.9799,252.20049,68,38,0
252.20049,252.59056,69,42,0
252.62602,253.96648,62,29,0
252.62602,253.96648,59,29,0
253.96648,254.389,61,41,0
253.96648,254.389,57,40,0
252.62602,254.389,64,36,0
254.389,254.63704,66,52,0
254.60028,254.82086,68,45,0
254.82086,255.21094,69,52,0
255.2464,256.1225,61,36,0
255.2464,256.1225,57,36,0
256.1225,257.01974,60,39,0
256.1225,257.01974,57,39,0
256.1225,257.01974,51,39,0
257.01974,257.45453,61,42,0
257.01974,257.45453,57,36,0
257.01974,257.45453,52,36,0
257.45453,258.80792,62,46,0
257.45453,258.80792,56,39,0
257.45453,258.80792,54,33,0
258.80792,259.25903,51,41,0
258.80792,259.25903,56,41,0
259.74292,259.9042,49,38,0
259.9042,260.0655,52,34,0
260.0655,260.22678,57,36,0
260.22678,260.38303,51,39,0
260.38303,260.53867,52,34,0
260.53867,260.6931,57,34,0
260.6931,260.84695,60,38,0
260.84695,260.99963,61,34,0
260.99963,261.15115,64,34,0
261.15115,262.9931,69,45,0
262.9931,263.43756,67,44,0
263.43756,263.9063,65,41,0
263.9063,264.35742,64,44,0
264.35742,264.8659,63,40,0
262.084,264.8659,57,34,0
265.3421,265.50082,61,38,0
265.50082,265.65955,64,34,0
265.65955,265.8183,69,36,0
265.8183,265.97702,63,39,0
265.97702,266.13513,64,34,0
266.13513,266.292,69,34,0
266.292,266.44763,72,38,0
266.44763,266.60208,73,34,0
266.60208,266.75534,76,34,0
266.75534,268.62167,81,49,0
268.62167,269.0661,79,44,0
269.0661,269.53854,77,41,0
269.53854,269.99655,76,44,0
269.99655,270.469,75,40,0
267.70563,270.469,69,34,0
271.109,271.269,73,30,0
271.269,271.42902,75,31,0
271.42902,271.58902,78,34,0
271.58902,271.749,76,30,0
271.749,271.909,73,30,0
271.909,272.0665,81,33,0
272.0665,272.22458,85,30,0
272.22458,272.38333,88,30,0
272.38333,272.54333,92,33,0
272.54333,272.70398,93,30,0
272.70398,272.8659,97,30,0
273.40164,274.47638,88,29,0
273.40164,274.47638,93,29,0
274.52313,275.5979,88,29,0
274.52313,275.5979,93,29,0
275.64462,276.77206,88,29,0
275.64462,276.77206,93,29,0
276.82108,280.3505,93,28,0
276.82108,280.3505,88,28,0
272.8659,280.3505,100,36,0
0.854642,1.705223,50,37,0
1.705223,2.555804,49,42,0
2.555804,2.9343832,47,53,0
2.9687996,3.3675816,45,55,0
0.854642,3.4038346,52,44,0
3.4038346,4.2544155,44,40,0
4.2544155,5.1049967,45,39,0
3.4038346,5.1049967,52,45,0
5.949283,6.8098655,54,43,0
5.949283,6.8098655,61,53,0
5.949283,6.8098655,46,36,0
6.8098655,7.6604466,54,36,0
6.8098655,7.6604466,59,42,0
6.8098655,7.6604466,47,30,0
8.522653,9.392948,47,35,0
8.522653,9.392948,57,41,0
9.392948,10.298732,56,34,0
9.392948,10.298732,52,28,0
11.153374,12.003954,50,44,0
12.003954,12.854535,49,42,0
12.854535,13.235845,47,53,0
13.270509,13.6723795,45,56,0
11.153374,13.708913,52,44,0
13.708913,14.559494,44,43,0
14.559494,15.410075,45,43,0
13.708913,15.410075,52,42,0
17.094326,17.519617,57,59,0
17.519617,17.964853,59,54,0
17.964853,18.809168,56,61,0
16.243614,18.809168,47,50,0
19.669989,20.09528,57,59,0
20.09528,20.547564,59,54,0
20.547564,20.963537,56,58,0
18.809168,20.963537,47,50,0
23.14021,23.574991,54,62,0
23.574991,23.830074,56,58,0
23.792383,24.018526,57,50,0
24.018526,24.932142,47,50,0
24.932142,25.412144,57,52,0
25.412144,25.949398,56,50,0
24.932142,25.949398,52,44,0
26.162062,26.26656,52,45,0
25.949398,26.370056,40,50,0
26.370056,26.472311,54,46,0
26.573357,26.685532,56,47,0
26.797707,27.010351,57,50,0
27.010351,27.222996,59,45,0
27.222996,28.094275,60,47,0
28.094275,28.542974,59,35,0
26.797707,28.542974,52,36,0
28.542974,28.974628,45,44,0
28.974628,29.419865,44,31,0
29.419865,29.854647,45,44,0
29.854647,30.30693,44,34,0
28.542974,30.30693,52,37,0
30.30693,30.759214,57,38,0
30.759214,31.225357,56,36,0
30.30693,31.225357,52,33,0
31.434881,31.537882,52,45,0
31.225357,31.63989,40,50,0
31.63989,31.740694,54,46,0
31.84033,31.952503,56,47,0
32.06468,32.278934,57,50,0
32.278934,32.49319,59,45,0
32.49319,33.37076,60,46,0
33.37076,33.81946,59,34,0
32.06468,33.81946,52,36,0
33.81946,34.25742,45,44,0
34.25742,34.702656,44,31,0
34.702656,35.137436,45,44,0
35.137436,35.58972,44,34,0
33.81946,35.58972,52,37,0
35.58972,36.042004,57,38,0
36.042004,36.49429,56,36,0
35.58972,36.49429,52,33,0
36.49429,36.905247,49,50,0
36.905247,37.336903,48,42,0
37.336903,37.750694,49,51,0
37.750694,38.18548,48,46,0
36.49429,38.18548,56,41,0
38.18548,38.620262,61,44,0
38.620262,39.055042,60,41,0
38.18548,39.055042,56,34,0
39.055042,39.457726,53,53,0
39.457726,39.88938,52,46,0
39.88938,40.289383,53,57,0
40.289383,40.714912,52,51,0
39.055042,40.714912,60,45,0
40.714912,41.140446,56,38,0
40.714912,41.140446,60,46,0
41.140446,41.56598,55,32,0
41.140446,41.56598,48,26,0
41.56598,41.958134,53,55,0
41.958134,42.369095,55,40,0
42.369095,42.769093,53,58,0
42.769093,43.191628,55,44,0
41.56598,43.191628,60,44,0
43.191628,43.614162,60,45,0
43.191628,43.614162,56,36,0
43.614162,44.036697,48,21,0
43.614162,44.036697,55,32,0
44.036697,44.442104,53,56,0
44.442104,44.86464,48,46,0
44.036697,44.86464,60,46,0
44.86464,45.26199,57,47,0
44.86464,45.26199,61,55,0
45.26199,45.687523,62,54,0
45.687523,46.084873,55,47,0
45.687523,46.084873,59,55,0
46.084873,46.504456,60,54,0
46.504456,46.908794,54,42,0
46.504456,46.908794,58,51,0
46.908794,47.32546,59,54,0
47.32546,47.72281,55,58,0
47.72281,48.145344,54,39,0
47.72281,48.145344,47,29,0
48.145344,48.564926,54,41,0
48.145344,48.564926,58,46,0
48.564926,49.010162,59,49,0
49.010162,49.407513,55,57,0
49.407513,49.82709,47,26,0
49.407513,49.82709,54,31,0
49.82709,50.227093,55,55,0
50.227093,50.678223,54,30,0
50.227093,50.678223,47,24,0
50.678223,51.146973,52,37,0
51.146973,51.655445,51,28,0
52.53076,53.381344,50,44,0
53.381344,54.231922,49,42,0
54.231922,54.610504,47,53,0
54.64492,55.0437,45,55,0
52.53076,55.079956,52,44,0
55.079956,55.930534,44,40,0
55.930534,56.781116,45,39,0
55.079956,56.781116,52,45,0
57.65141,58.51199,46,36,0
57.65141,58.51199,61,53,0
57.65141,58.51199,54,43,0
58.51199,59.36257,59,42,0
58.51199,59.36257,54,36,0
58.51199,59.36257,47,36,0
60.22165,61.088993,57,45,0
60.22165,61.088993,47,37,0
61.088993,62.027008,52,28,0
61.088993,62.027008,56,34,0
62.88165,63.73223,50,44,0
63.73223,64.58281,49,42,0
64.58281,64.96412,47,53,0
64.99879,65.40066,45,56,0
62.88165,65.43719,52,44,0
65.43719,66.28777,44,43,0
66.28777,67.13835,45,43,0
65.43719,67.13835,52,45,0
68.82776,69.25305,57,57,0
69.25305,69.69829,59,52,0
69.69829,70.54939,56,58,0
67.97704,70.54939,47,46,0
71.41022,71.8355,57,57,0
71.8355,72.36165,59,52,0
70.54939,72.36165,47,48,0
72.36165,75.314125,60,48,0
72.36165,75.314125,55,40,0
72.36165,75.314125,48,40,0
75.499306,75.667656,40,31,0
75.667656,75.819176,47,30,0
78.01171,80.92355,60,48,0
78.01171,80.92355,55,40,0
78.01171,80.92355,48,40,0
81.110466,81.28144,40,31,0
81.28144,81.436485,47,30,0
82.36152,82.50858,60,38,0
82.50858,82.652985,59,34,0
82.652985,82.79484,55,34,0
82.79484,82.93445,48,37,0
82.93445,83.07215,47,34,0
83.07215,83.20751,43,33,0
83.20751,83.68049,40,40,0
83.68049,86.63662,60,48,0
83.68049,86.63662,55,40,0
83.68049,86.63662,48,40,0
86.80611,86.96661,40,31,0
86.96661,87.118126,47,30,0
89.3526,92.33238,60,48,0
89.3526,92.33238,55,40,0
89.3526,92.33238,48,40,0
93.31599,95.30686,60,46,0
93.31599,95.30686,55,37,0
93.31599,95.30686,48,34,0
95.64584,95.81534,56,57,0
95.47635,95.97928,49,57,0
96.60637,96.7624,51,58,0
96.45034,96.91979,49,58,0
97.52441,97.6793,51,59,0
97.36951,97.8314,48,59,0
98.42843,98.58086,53,59,0
98.274506,98.72847,46,59,0
99.97703,100.991875,55,34,0
99.97703,100.991875,51,34,0
101.33086,101.48832,56,57,0
101.16137,101.638985,49,57,0
102.2437,102.39803,51,58,0
102.08767,102.544304,49,58,0
103.1315,103.284164,51,59,0
102.97661,103.42605,48,59,0
104.046074,104.19941,60,57,0
103.89216,104.345665,53,57,0
104.93427,105.08476,55,58,0
104.78036,105.22917,53,58,0
105.815575,105.96949,55,59,0
105.66165,106.11682,51,59,0
106.553505,106.70742,49,57,0
106.70742,106.861336,55,57,0
108.19673,109.13538,60,46,0
108.19673,109.13538,55,46,0
108.19673,109.13538,48,39,0
109.2893,109.443214,49,57,0
109.443214,109.59597,55,57,0
110.852234,111.99954,64,46,0
110.78211,111.99954,55,46,0
110.712,111.99954,48,46,0
112.15346,112.30737,49,57,0
112.30737,112.46129,55,57,0
113.85641,114.7864,60,47,0
113.85641,114.7864,55,39,0
113.85641,114.7864,48,39,0
114.940315,115.09423,49,57,0
115.09423,115.248146,55,57,0
118.066345,118.22354,55,57,0
117.90754,118.38259,48,57,0
120.98038,123.93285,60,48,0
120.98038,123.93285,55,40,0
120.98038,123.93285,48,40,0
124.13904,124.31789,40,31,0
124.31789,124.4694,47,30,0
126.6329,129.54474,60,48,0
126.6329,129.54474,55,40,0
126.6329,129.54474,48,40,0
129.73164,129.90086,40,31,0
129.90086,130.05238,47,30,0
130.94974,131.09494,60,38,0
131.09494,131.23753,59,34,0
131.23753,131.37741,55,34,0
131.37741,131.51463,48,37,0
131.51463,131.64932,47,34,0
131.64932,131.78468,43,33,0
131.78468,132.25766,40,40,0
132.25766,135.24251,60,48,0
132.25766,135.24251,55,40,0
132.25766,135.24251,48,40,0
135.44452,135.62129,40,31,0
135.62129,135.77281,47,30,0
138.96674,140.96292,60,42,0
138.96674,140.96292,55,36,0
138.96674,140.96292,48,30,0
141.94652,143.9374,60,38,0
141.94652,143.9374,54,29,0
141.94652,143.9374,48,29,0
144.27638,144.44586,54,57,0
144.10689,144.60982,47,57,0
145.23691,145.39293,55,58,0
145.08087,145.55032,47,58,0
146.15494,146.30983,54,59,0
146.00005,146.46193,47,59,0
147.03085,147.1707,53,59,0
146.89099,147.32278,47,59,0
148.5696,149.51546,58,37,0
148.5696,149.51546,54,37,0
148.5696,149.51546,47,37,0
149.82988,149.98367,54,57,0
149.67267,150.13127,47,57,0
150.71678,150.86716,55,58,0
150.5664,151.01157,47,58,0
151.60168,151.7532,54,59,0
151.45016,151.89929,47,59,0
152.47293,152.62,53,59,0
152.32587,152.76572,47,59,0
153.95308,154.88162,58,37,0
153.95308,154.88162,54,37,0
153.95308,154.88162,47,37,0
155.18932,155.34262,54,57,0
155.03548,155.49329,47,57,0
156.09203,156.24413,55,58,0
155.93936,156.39339,47,58,0
156.98148,157.12935,54,59,0
156.83333,157.27533,47,59,0
157.87556,158.0286,53,57,0
158.0286,158.17897,55,62,0
157.72165,158.17897,47,57,0
158.78285,158.93678,54,58,0
158.93678,159.08998,59,62,0
158.62894,159.08998,47,58,0
159.707,159.86539,41,59,0
159.86539,160.02408,43,62,0
159.54863,160.02408,35,59,0
160.64842,160.8068,42,59,0
160.8068,160.96101,51,62,0
160.49004,160.96101,35,59,0
172.13268,172.98326,50,39,0
172.98326,173.83383,49,48,0
173.83383,174.21242,47,53,0
174.24684,174.64561,45,55,0
172.13268,174.68187,52,50,0
174.68187,175.53246,44,43,0
175.53246,176.38303,45,39,0
174.68187,176.38303,52,45,0
177.23595,178.09653,61,53,0
177.23595,178.09653,54,43,0
177.23595,178.09653,46,36,0
178.09653,178.97983,59,42,0
178.09653,178.97983,54,36,0
178.09653,178.97983,47,36,0
179.85468,180.72166,57,47,0
179.85468,180.72166,47,32,0
180.72166,181.59854,56,34,0
180.72166,181.59854,52,28,0
182.45319,183.30377,50,42,0
183.30377,184.15436,49,48,0
184.15436,184.53566,47,53,0
184.57033,184.9722,45,56,0
182.45319,185.00873,52,50,0
185.00873,185.85931,44,45,0
185.85931,186.70988,45,43,0
185.00873,186.70988,52,45,0
188.39929,188.82458,57,59,0
188.82458,189.26982,59,54,0
189.26982,190.12094,56,61,0
187.54858,190.12094,47,50,0
190.98175,191.40704,57,59,0
191.40704,191.85933,59,54,0
191.85933,192.2753,56,58,0
190.12094,192.2753,47,50,0
194.45198,194.88676,54,62,0
194.88676,195.14185,56,58,0
195.10416,195.33029,57,52,0
195.33029,196.233,47,46,0
196.233,196.69812,57,58,0
196.69812,197.18993,56,56,0
196.233,197.18993,52,46,0
197.40259,197.50708,52,45,0
197.18993,197.61058,40,50,0
197.61058,197.71284,54,46,0
197.81389,197.92606,56,47,0
198.03824,198.25089,57,50,0
198.25089,198.46353,59,45,0
198.46353,199.33481,60,47,0
199.33481,199.78351,59,35,0
198.03824,199.78351,52,36,0
199.78351,200.27937,45,44,0
200.27937,200.72461,44,31,0
200.72461,201.1594,45,44,0
201.1594,201.61168,44,34,0
199.78351,201.61168,52,37,0
201.61168,202.06395,57,38,0
202.06395,202.5327,56,36,0
201.61168,202.5327,52,33,0
202.74223,202.84523,52,45,0
202.5327,202.94724,40,50,0
202.94724,203.04805,54,46,0
203.14767,203.25986,56,47,0
203.37202,203.58629,57,50,0
203.58629,203.80054,59,45,0
203.80054,204.67812,60,46,0
204.67812,205.12682,59,34,0
203.37202,205.12682,52,36,0
205.12682,205.56477,45,44,0
205.56477,206.01001,44,31,0
206.01001,206.4448,45,44,0
206.4448,206.89706,44,34,0
205.12682,206.89706,52,37,0
206.89706,207.34935,57,38,0
207.34935,207.80164,56,36,0
206.89706,207.80164,52,33,0
207.80164,208.2126,49,50,0
208.2126,208.64426,48,39,0
208.64426,209.05804,49,51,0
209.05804,209.49283,48,42,0
207.80164,209.49283,56,41,0
209.49283,209.92761,61,44,0
209.92761,210.3624,60,41,0
209.49283,210.3624,56,38,0
210.3624,210.76508,53,53,0
210.76508,211.19986,52,46,0
211.19986,211.59985,53,57,0
211.59985,212.02539,52,51,0
210.3624,212.02539,60,45,0
212.02539,212.45093,60,46,0
212.02539,212.45093,56,38,0
212.45093,212.87645,55,32,0
212.45093,212.87645,48,26,0
212.87645,213.26862,53,55,0
213.26862,213.67957,55,40,0
213.67957,214.07957,53,58,0
214.07957,214.5021,55,44,0
212.87645,214.5021,60,44,0
214.5021,214.92464,60,45,0
214.5021,214.92464,56,36,0
214.92464,215.34718,55,32,0
214.92464,215.34718,48,21,0
215.34718,215.75258,53,56,0
215.75258,216.17511,48,43,0
215.34718,216.17511,60,46,0
216.17511,216.5778,61,55,0
216.17511,216.5778,57,47,0
216.5778,217.00333,62,54,0
217.00333,217.40334,59,55,0
217.00333,217.40334,55,47,0
217.40334,217.8229,60,54,0
217.8229,218.22725,58,55,0
217.8229,218.22725,54,47,0
218.22725,218.64392,59,54,0
218.64392,219.04128,55,58,0
219.04128,219.4638,54,39,0
219.04128,219.4638,47,24,0
219.4638,219.88339,54,41,0
219.4638,219.88339,58,46,0
219.88339,220.32863,59,45,0
220.32863,220.72597,55,57,0
220.72597,221.14555,54,31,0
220.72597,221.14555,47,26,0
221.14555,221.54555,55,55,0
221.54555,221.99669,54,30,0
221.54555,221.99669,47,24,0
221.99669,222.46544,52,31,0
222.46544,222.9739,51,28,0
223.84923,224.6998,50,37,0
224.6998,225.55038,49,42,0
225.55038,225.92897,47,53,0
225.96338,226.36217,45,55,0
223.84923,226.3984,52,44,0
226.3984,227.249,44,40,0
227.249,228.09958,45,39,0
226.3984,228.09958,52,45,0
228.9718,229.83238,61,53,0
228.9718,229.83238,54,43,0
228.9718,229.83238,46,36,0
229.83238,230.68297,59,46,0
229.83238,230.68297,54,38,0
229.83238,230.68297,47,32,0
231.53185,232.38284,57,50,0
231.53185,232.38284,47,41,0
232.38284,233.27325,56,39,0
232.38284,233.27325,52,31,0
234.1279,234.97849,50,37,0
234.97849,235.82906,49,42,0
235.82906,236.21037,47,53,0
236.24504,236.64691,45,56,0
234.1279,236.68344,52,44,0
236.68344,237.53401,44,43,0
237.53401,238.3846,45,43,0
236.68344,238.3846,52,51,0
239.23775,240.09833,61,51,0
239.23775,240.09833,54,43,0
239.23775,240.09833,46,36,0
240.09833,240.94891,59,48,0
240.09833,240.94891,54,39,0
240.09833,240.94891,47,33,0
241.80206,242.66264,63,54,0
241.80206,242.66264,56,44,0
241.80206,242.66264,48,37,0
242.66264,243.51323,61,50,0
242.66264,243.51323,56,40,0
242.66264,243.51323,49,34,0
246.07738,246.50594,57,64,0
246.50594,246.75699,59,61,0
246.72023,246.94081,61,58,0
246.94081,247.3365,62,61,0
247.37247,247.78914,61,58,0
246.07738,247.82701,54,56,0
247.82701,248.23143,59,61,0
247.82701,248.71931,53,52,0
248.71931,249.14186,52,50,0
248.26819,249.14186,57,56,0
249.99924,250.41591,57,45,0
250.4538,250.8582,55,48,0
250.89497,251.3461,56,45,0
250.4538,251.3461,52,42,0
251.3461,251.76863,40,38,0
252.62602,253.04268,57,38,0
253.08057,253.47911,55,40,0
253.51535,253.96648,56,38,0
253.08057,253.96648,52,36,0
253.96648,254.389,40,38,0
255.2464,255.50566,54,45,0
255.46861,255.7268,53,39,0
255.69084,256.08652,52,48,0
256.1225,256.38565,42,42,0
256.34805,256.6101,41,39,0
256.5736,258.35678,40,48,0
258.35678,259.25903,52,42,0
259.25903,259.42035,33,31,0
259.42035,259.58163,40,31,0
259.58163,259.74292,45,30,0
262.084,264.8659,53,31,0
262.084,264.8659,60,33,0
264.8659,265.02463,45,31,0
265.02463,265.18335,52,31,0
265.18335,265.3421,57,30,0
267.70563,270.469,65,31,0
267.70563,270.469,72,33,0
270.629,270.789,57,28,0
270.789,270.949,64,27,0
270.949,271.109,69,33,0
273.40164,274.47638,85,25,0
273.40164,274.47638,81,25,0
274.52313,275.5979,85,26,0
274.52313,275.5979,81,26,0
275.64462,276.77206,85,26,0
275.64462,276.77206,81,26,0
276.82108,280.3505,85,25,0
276.82108,280.3505,81,25,0
