start_time,end_time,note_value,velocity,instrument_program_number
2.3653708,3.0630448,74,50,0
3.0630448,3.5315628,71,51,0
2.2508836,3.5315628,62,40,0
3.4384224,3.5315628,62,37,0
2.309465,3.5315628,66,45,0
3.5315628,4.451808,71,55,0
3.4851837,4.451808,67,39,0
4.6588693,5.3606234,74,53,0
5.3606234,5.824363,71,53,0
4.5601196,5.824363,62,40,0
5.730215,5.824363,62,36,0
4.6105995,5.824363,69,42,0
5.824363,6.864826,71,52,0
5.777624,6.864826,67,39,0
6.864826,7.5877185,76,63,0
7.5877185,7.9491644,74,60,0
6.864826,7.9491644,66,52,0
7.9491644,9.033503,74,59,0
7.9491644,9.033503,67,52,0
9.033503,9.384379,79,66,0
9.384379,9.735256,78,58,0
9.735256,10.098893,76,56,0
9.033503,10.098893,70,52,0
10.098893,11.189802,69,48,0
11.189802,11.553439,74,60,0
11.553439,11.917075,69,56,0
11.917075,12.292075,72,58,0
11.189802,12.292075,66,48,0
12.292075,13.019348,66,50,0
12.292075,13.019348,72,57,0
13.019348,13.382985,71,55,0
13.019348,13.382985,67,49,0
13.382985,13.742267,64,52,0
13.742267,14.101548,57,51,0
14.101548,14.4696455,64,53,0
13.382985,14.4696455,69,52,0
14.4696455,15.240428,64,55,0
15.240428,15.443462,62,53,0
14.4696455,15.68162,69,55,0
15.68162,16.379293,74,55,0
16.379293,16.831982,71,51,0
15.5661955,16.831982,62,40,0
16.735147,16.831982,62,37,0
15.624827,16.831982,66,45,0
16.831982,17.752228,71,52,0
16.784628,17.752228,67,39,0
17.959288,18.661043,74,53,0
18.661043,19.107634,71,53,0
17.860538,19.107634,62,40,0
19.010798,19.107634,62,36,0
17.911018,19.107634,69,42,0
19.107634,20.148096,71,50,0
19.060278,20.148096,67,39,0
20.148096,20.870989,76,63,0
20.870989,21.232435,74,60,0
20.148096,21.232435,66,52,0
21.232435,22.316772,67,53,0
21.232435,22.316772,74,62,0
22.316772,22.66765,79,66,0
22.66765,23.018526,76,55,0
23.018526,23.382162,79,57,0
22.316772,23.382162,70,52,0
23.382162,24.109436,78,62,0
24.109436,24.473072,78,56,0
23.382162,24.473072,71,58,0
24.473072,24.826014,83,62,0
24.826014,25.178955,79,60,0
25.178955,25.553955,83,57,0
24.473072,25.553955,73,53,0
25.553955,26.281227,81,61,0
26.281227,26.644863,81,55,0
25.553955,26.644863,74,51,0
26.644863,27.008501,86,55,0
27.008501,27.372137,81,53,0
27.372137,27.735773,86,53,0
26.644863,27.735773,74,49,0
27.735773,28.826683,81,50,0
27.735773,28.826683,86,57,0
29.19032,29.553955,81,39,0
29.553955,29.917593,86,39,0
29.917593,30.283834,93,44,0
31.042253,31.811485,98,45,0
30.65886,31.811485,93,42,0
30.283834,31.811485,86,42,0
32.196102,32.540928,86,57,0
32.540928,32.889767,82,55,0
32.889767,33.244793,79,52,0
33.244793,33.58378,77,53,0
33.58378,33.932613,81,49,0
33.932613,34.29847,79,49,0
34.29847,35.363556,77,52,0
32.196102,35.363556,74,57,0
38.434147,38.778973,74,57,0
38.778973,39.12781,70,55,0
39.12781,39.482838,67,52,0
39.482838,39.821823,65,53,0
39.821823,40.17066,69,49,0
40.17066,40.536514,67,46,0
40.536514,41.6016,65,51,0
38.434147,41.6016,62,57,0
44.682053,45.404945,62,55,0
45.404945,45.770798,59,51,0
44.682053,45.770798,57,55,0
45.770798,46.855137,55,48,0
45.770798,46.855137,59,48,0
46.855137,47.57803,62,51,0
47.57803,47.946125,59,51,0
46.855137,47.946125,57,51,0
47.946125,48.986588,59,46,0
47.946125,49.03177,55,41,0
48.986588,49.70948,64,57,0
49.70948,50.070927,62,53,0
48.986588,50.070927,54,50,0
50.070927,51.155266,55,53,0
50.070927,51.155266,62,59,0
51.155266,51.50614,67,66,0
51.50614,51.857018,66,63,0
51.857018,52.220654,64,62,0
51.155266,52.220654,58,59,0
52.220654,53.6752,57,60,0
53.6752,54.04557,59,52,0
54.04557,54.43267,60,56,0
54.43267,55.159943,60,58,0
55.159943,55.534943,59,55,0
55.534943,57.744278,59,55,0
57.744278,58.471554,59,57,0
58.471554,58.846554,57,53,0
58.846554,61.06246,57,52,0
61.06246,61.435135,57,49,0
61.435135,61.807804,59,46,0
61.807804,62.199963,60,46,0
62.199963,62.99996,60,48,0
62.99996,63.425495,59,42,0
62.199963,63.425495,54,42,0
63.425495,64.75102,59,42,0
63.425495,64.75102,55,38,0
65.71661,65.874504,67,52,0
65.25102,65.874504,71,70,0
66.32698,66.482414,66,57,0
65.874504,66.482414,70,62,0
66.482414,66.7604,74,73,0
66.7604,67.050255,73,67,0
66.7604,67.050255,66,57,0
66.7604,67.050255,64,57,0
67.050255,67.34186,71,61,0
67.050255,67.34186,66,51,0
67.050255,67.34186,62,51,0
68.08105,68.22969,67,55,0
67.64532,68.22969,71,70,0
68.65925,68.80438,66,57,0
68.22969,68.80438,70,62,0
68.80438,69.083664,78,74,0
69.083664,69.37405,76,71,0
69.37405,69.5164,71,56,0
69.5164,69.65876,72,57,0
69.37405,69.65876,76,70,0
69.65876,69.80897,71,52,0
69.80897,69.95918,66,51,0
69.65876,69.95918,75,62,0
70.39635,70.54499,67,55,0
69.95918,70.54499,71,70,0
70.9731,71.11679,66,57,0
70.54499,71.11679,70,62,0
71.11679,71.394775,74,73,0
71.394775,71.68505,73,67,0
71.394775,71.68505,66,57,0
71.394775,71.68505,64,57,0
71.68505,71.97533,71,61,0
71.68505,71.97533,66,51,0
71.68505,71.97533,62,51,0
72.69515,72.840294,67,55,0
72.2656,72.840294,71,70,0
73.26903,73.418495,66,57,0
72.840294,73.418495,70,62,0
73.418495,73.70701,78,72,0
73.70701,74.0043,76,71,0
74.0043,74.14856,71,56,0
74.14856,74.29282,72,56,0
74.0043,74.29282,76,70,0
74.29282,74.44147,71,52,0
74.44147,74.59012,66,51,0
74.29282,74.59012,75,62,0
74.872574,75.01672,67,52,0
75.01672,75.16087,71,48,0
74.59012,75.16087,79,79,0
75.44721,75.59337,66,50,0
75.59337,75.739525,71,47,0
75.16087,75.739525,78,77,0
75.739525,76.03184,77,77,0
76.03184,76.32415,80,67,0
76.03184,76.32415,73,50,0
76.03184,76.32415,71,49,0
76.32415,76.61646,71,60,0
76.61646,76.908775,69,57,0
76.32415,76.908775,73,71,0
77.19123,77.33538,66,52,0
77.33538,77.47953,69,48,0
76.908775,77.47953,78,77,0
77.76587,77.912025,64,50,0
77.912025,78.05818,69,46,0
77.47953,78.05818,76,75,0
78.05818,78.35398,75,79,0
78.35398,78.64978,78,69,0
78.35398,78.64978,71,50,0
78.35398,78.64978,69,49,0
78.64978,78.94558,69,60,0
78.94558,79.24138,67,57,0
78.64978,79.24138,71,71,0
79.52569,79.670654,64,52,0
79.670654,79.81562,67,48,0
79.24138,79.81562,76,75,0
80.10556,80.25172,62,50,0
80.25172,80.39787,67,47,0
79.81562,80.39787,74,73,0
80.39787,80.690186,74,72,0
80.690186,80.9825,73,67,0
80.690186,80.9825,67,42,0
80.690186,80.9825,61,41,0
80.9825,81.27481,71,59,0
80.9825,81.27481,67,51,0
80.9825,81.27481,64,51,0
81.27481,81.56712,69,57,0
81.99667,82.141815,61,46,0
81.56712,82.141815,67,59,0
82.571365,82.7165,62,46,0
82.141815,82.7165,66,57,0
82.7165,83.00502,73,60,0
83.00502,83.295296,71,49,0
83.00502,83.295296,66,39,0
83.00502,83.295296,62,36,0
83.295296,83.58557,69,55,0
84.30245,84.4466,63,49,0
83.87585,84.4466,69,62,0
84.8791,85.02525,64,49,0
84.4466,85.02525,67,60,0
85.02525,85.317566,76,66,0
85.317566,85.60988,74,53,0
85.317566,85.60988,67,45,0
85.317566,85.60988,64,45,0
85.60988,85.90219,74,61,0
85.90219,86.1945,73,57,0
86.624054,86.769196,61,46,0
86.1945,86.769196,67,59,0
87.198746,87.34389,62,46,0
86.769196,87.34389,66,57,0
87.34389,87.624466,73,58,0
87.624466,87.91474,71,49,0
87.624466,87.91474,66,39,0
87.624466,87.91474,62,36,0
87.91474,88.20502,69,55,0
88.921906,89.06605,63,49,0
88.49529,89.06605,69,60,0
89.49855,89.64471,64,51,0
89.06605,89.64471,67,60,0
89.64471,89.92759,76,64,0
89.92759,90.219955,74,53,0
89.92759,90.219955,67,45,0
89.92759,90.219955,64,45,0
90.219955,90.50467,73,61,0
91.08951,91.3879,69,59,0
91.08951,91.3879,62,49,0
90.800995,91.3879,72,71,0
91.676414,91.97481,67,62,0
91.676414,91.97481,62,52,0
91.3879,91.97481,71,72,0
92.25944,92.55782,71,63,0
92.25944,92.55782,64,53,0
91.97481,92.55782,74,74,0
92.846344,93.15309,69,63,0
92.846344,93.15309,64,53,0
92.55782,93.15309,73,74,0
93.44744,93.7564,71,67,0
93.44744,93.7564,65,56,0
93.15309,93.7564,73,78,0
94.05891,94.38159,71,69,0
94.05891,94.38159,65,58,0
93.7564,94.38159,73,80,0
94.38159,94.97358,78,86,0
94.97358,95.57376,73,85,0
94.38159,95.57376,66,73,0
94.38159,95.57376,70,73,0
95.57376,95.87972,73,80,0
95.87972,96.18569,75,80,0
96.18569,96.79151,73,81,0
95.57376,96.79151,65,60,0
95.57376,96.79151,70,60,0
96.79151,97.38349,78,86,0
97.38349,97.98367,73,84,0
96.79151,97.98367,66,73,0
96.79151,97.98367,70,73,0
97.98367,98.29282,73,80,0
98.29282,98.601974,75,80,0
98.601974,99.20734,73,81,0
97.98367,99.20734,65,60,0
97.98367,99.20734,70,60,0
99.50059,99.79951,73,64,0
99.50059,99.79951,70,55,0
99.20734,99.79951,66,82,0
100.09679,100.39997,66,46,0
100.09679,100.39997,70,56,0
99.79951,100.39997,61,72,0
100.39997,100.703156,61,75,0
100.703156,101.00634,63,70,0
101.00634,101.61744,61,72,0
100.703156,101.61744,71,52,0
100.703156,101.61744,68,52,0
101.91255,102.21147,73,58,0
101.91255,102.21147,70,49,0
101.61744,102.21147,66,73,0
102.50876,102.81194,66,40,0
102.50876,102.81194,70,49,0
102.21147,102.81194,61,64,0
102.81194,103.11512,61,68,0
103.11512,103.418304,63,62,0
103.418304,104.036316,61,64,0
103.11512,104.036316,71,47,0
103.11512,104.036316,68,47,0
104.33445,104.64187,73,51,0
104.33445,104.64187,70,44,0
104.036316,104.64187,66,66,0
104.944786,105.261375,66,36,0
104.944786,105.261375,70,44,0
104.64187,105.261375,61,58,0
105.56572,105.88141,70,39,0
105.56572,105.88141,73,46,0
105.261375,105.88141,66,59,0
106.18911,106.509346,70,39,0
106.18911,106.509346,66,31,0
105.88141,106.509346,61,51,0
106.962494,107.117134,67,52,0
106.509346,107.117134,71,70,0
107.55991,107.711426,66,57,0
107.117134,107.711426,70,62,0
107.711426,107.99431,74,73,0
107.99431,108.28668,73,67,0
107.99431,108.28668,66,57,0
107.99431,108.28668,64,57,0
108.28668,108.57905,71,61,0
108.28668,108.57905,66,51,0
108.28668,108.57905,62,51,0
109.3105,109.45564,67,55,0
108.88095,109.45564,71,70,0
109.88519,110.030334,66,57,0
109.45564,110.030334,70,62,0
110.030334,110.31885,78,74,0
110.31885,110.61765,76,71,0
110.61765,110.76001,71,56,0
110.76001,110.90237,72,57,0
110.61765,110.90237,76,70,0
110.90237,111.052574,71,52,0
111.052574,111.20278,66,51,0
110.90237,111.20278,75,62,0
111.629395,111.77354,71,42,0
111.20278,111.77354,79,79,0
112.20604,112.352196,71,44,0
111.77354,112.352196,78,77,0
112.352196,112.64451,78,75,0
112.64451,112.790665,66,52,0
112.790665,112.93681,69,48,0
112.64451,112.93681,76,67,0
113.37528,113.52144,67,40,0
112.93681,113.52144,74,71,0
113.94805,114.09219,69,42,0
113.52144,114.09219,76,77,0
114.5247,114.67085,67,44,0
114.09219,114.67085,74,73,0
114.67085,114.96316,74,77,0
114.96316,115.109314,62,52,0
115.109314,115.25547,69,48,0
114.96316,115.25547,72,67,0
115.69394,115.840096,67,40,0
115.69394,115.840096,62,40,0
115.25547,115.840096,71,67,0
116.28166,116.430916,61,42,0
115.840096,116.430916,67,62,0
116.430916,116.726166,66,61,0
116.88053,117.0349,61,36,0
116.726166,117.0349,67,58,0
117.48018,117.62861,62,42,0
117.0349,117.62861,71,62,0
118.07894,118.23243,62,36,0
117.62861,118.23243,69,59,0
118.23243,118.67771,63,56,0
118.67771,118.82613,60,36,0
118.82613,119.122986,62,52,0
119.43352,119.88128,51,56,0
119.88128,120.03053,48,35,0
120.03053,120.32904,50,53,0
121.23332,121.39,61,47,0
121.39,121.55341,62,40,0
121.55341,121.72422,66,45,0
121.72422,121.90315,69,40,0
122.68391,123.38158,74,53,0
123.38158,123.8501,71,51,0
122.571526,123.8501,62,40,0
123.75696,123.8501,62,37,0
122.63138,123.8501,66,45,0
123.8501,124.77034,71,55,0
123.80372,124.77034,67,39,0
124.9774,125.67915,74,53,0
125.67915,126.1429,71,53,0
124.878654,126.1429,62,40,0
126.04875,126.1429,62,36,0
124.92913,126.1429,69,42,0
126.1429,127.18336,71,52,0
126.09616,127.18336,67,39,0
127.18336,127.90625,76,63,0
127.90625,128.2677,74,60,0
127.18336,128.2677,66,52,0
128.2677,129.35204,67,52,0
128.2677,129.35204,74,59,0
129.35204,129.70291,79,66,0
129.70291,130.05379,78,60,0
130.05379,130.41742,76,57,0
129.35204,130.41742,70,52,0
130.41742,131.50833,69,48,0
131.50833,131.87198,74,60,0
131.87198,132.23561,69,56,0
132.23561,132.61061,72,58,0
131.50833,132.61061,66,48,0
132.61061,133.33788,66,50,0
132.61061,133.33788,72,57,0
133.33788,133.70152,71,55,0
133.33788,133.70152,67,49,0
133.70152,134.0608,64,52,0
134.0608,134.42007,57,51,0
134.42007,134.78818,64,53,0
133.70152,134.78818,69,52,0
134.78818,135.55896,64,55,0
135.55896,135.7603,62,53,0
134.78818,135.99312,69,55,0
135.99312,136.6908,74,55,0
136.6908,137.1435,71,51,0
135.88295,137.1435,62,40,0
137.04665,137.1435,62,37,0
135.9411,137.1435,66,45,0
137.1435,138.06374,71,52,0
137.09613,138.06374,67,39,0
138.2708,138.97255,74,53,0
138.97255,139.41914,71,53,0
138.17204,139.41914,62,40,0
139.3223,139.41914,62,36,0
138.22252,139.41914,69,42,0
139.41914,140.4596,71,50,0
139.37178,140.4596,67,39,0
140.4596,141.1825,76,63,0
141.1825,141.54395,74,60,0
140.4596,141.54395,66,52,0
141.54395,142.62828,67,53,0
141.54395,142.62828,74,62,0
142.62828,142.97916,79,66,0
142.97916,143.33003,76,61,0
143.33003,143.69366,79,62,0
142.62828,143.69366,70,52,0
143.69366,144.42094,78,62,0
144.42094,144.78458,78,56,0
143.69366,144.78458,71,58,0
144.78458,145.13751,83,62,0
145.13751,145.49046,79,60,0
145.49046,145.86546,83,57,0
144.78458,145.86546,73,53,0
145.86546,146.59273,81,61,0
146.59273,146.95638,81,55,0
145.86546,146.95638,74,51,0
146.95638,147.32,86,55,0
147.32,147.68364,81,53,0
147.68364,148.04727,86,53,0
146.95638,148.04727,74,49,0
148.04727,149.13818,81,50,0
148.04727,149.13818,86,57,0
149.50183,149.86546,81,39,0
149.86546,150.2291,86,39,0
150.2291,150.59534,93,44,0
151.35376,152.12299,98,44,0
150.97037,152.12299,93,42,0
150.59534,152.12299,86,42,0
152.5076,152.85243,86,57,0
152.85243,153.20126,82,55,0
153.20126,153.5563,79,52,0
153.5563,153.89528,77,53,0
153.89528,154.24413,81,49,0
154.24413,154.60997,79,49,0
154.60997,155.67506,77,52,0
152.5076,155.67506,74,57,0
158.74565,159.09048,74,57,0
159.09048,159.43932,70,55,0
159.43932,159.79434,67,52,0
159.79434,160.13333,65,53,0
160.13333,160.48216,69,49,0
160.48216,160.84802,67,49,0
160.84802,161.9131,65,51,0
158.74565,161.9131,62,57,0
164.99356,165.71645,62,55,0
165.71645,166.0823,59,51,0
164.99356,166.0823,57,55,0
166.0823,167.16664,59,48,0
166.0823,167.16664,55,48,0
167.16664,167.88953,62,51,0
167.88953,168.25763,59,51,0
167.16664,168.25763,57,51,0
168.25763,169.2981,59,46,0
168.25763,169.34328,55,41,0
169.2981,170.02098,64,57,0
170.02098,170.38243,62,53,0
169.2981,170.38243,54,50,0
170.38243,171.46677,55,53,0
170.38243,171.46677,62,59,0
171.46677,171.81764,67,59,0
171.81764,172.16852,66,57,0
172.16852,172.53217,64,56,0
171.46677,172.53217,58,52,0
172.53217,173.98671,57,53,0
173.98671,174.35707,59,47,0
174.35707,174.74417,60,49,0
174.74417,175.47145,60,51,0
175.47145,175.84645,59,49,0
175.84645,178.05579,59,49,0
178.05579,178.78307,59,45,0
178.78307,179.15807,57,42,0
179.15807,181.37396,57,41,0
181.37396,181.74664,57,39,0
181.74664,182.11931,59,36,0
182.11931,182.51147,60,36,0
182.51147,184.671,60,38,0
184.671,185.23175,59,34,0
182.51147,185.23175,54,34,0
185.23175,190.27849,59,34,0
185.23175,190.27849,55,29,0
190.27849,193.64296,59,25,0
190.27849,193.64296,55,24,0
2.1893492,3.5315628,57,37,0
2.125,3.5315628,50,33,0
3.3408225,4.451808,52,31,0
3.3902996,4.451808,55,36,0
4.5072145,5.824363,57,44,0
4.451808,5.824363,54,36,0
5.6333504,6.864826,55,33,0
5.682116,6.864826,59,36,0
6.864826,7.9491644,57,41,0
6.864826,7.9491644,60,47,0
7.9491644,9.033503,62,46,0
7.9491644,9.033503,59,41,0
9.033503,10.098893,61,42,0
9.033503,10.098893,64,48,0
10.098893,10.462529,67,51,0
10.462529,10.826166,66,50,0
10.826166,11.189802,64,49,0
10.098893,11.189802,62,51,0
11.189802,12.292075,50,42,0
11.189802,12.292075,57,48,0
12.292075,13.019348,57,45,0
12.292075,13.019348,51,39,0
13.019348,13.382985,55,38,0
13.019348,13.382985,52,34,0
14.101548,14.4696455,55,40,0
13.382985,14.4696455,49,33,0
14.4696455,15.240428,55,45,0
15.240428,15.443462,54,40,0
14.4696455,15.68162,50,39,0
15.443462,15.68162,50,33,0
15.5058975,16.831982,57,37,0
16.629293,17.752228,52,31,0
16.683338,17.752228,55,36,0
17.807634,19.107634,57,44,0
17.752228,19.107634,50,36,0
18.904945,20.148096,55,33,0
18.958988,20.148096,59,36,0
20.148096,21.232435,60,47,0
20.148096,21.232435,57,41,0
21.232435,22.316772,59,44,0
21.232435,22.316772,62,49,0
22.316772,23.382162,64,51,0
22.316772,23.382162,61,40,0
23.382162,24.473072,66,49,0
23.382162,24.473072,62,44,0
24.473072,25.553955,67,47,0
24.473072,25.553955,64,41,0
25.553955,26.644863,66,41,0
25.553955,26.644863,69,47,0
26.644863,27.735773,69,39,0
26.644863,27.735773,66,34,0
27.735773,28.09941,74,44,0
28.463047,28.826683,74,41,0
28.826683,31.811485,74,48,0
28.09941,31.811485,69,41,0
27.735773,31.811485,66,26,0
32.196102,35.363556,70,44,0
32.196102,35.363556,65,44,0
35.700634,35.869175,74,55,0
36.037712,36.206253,72,51,0
36.37479,36.54333,70,55,0
36.711872,36.88041,67,51,0
37.04895,37.216545,65,50,0
37.384144,37.55412,62,51,0
37.72604,37.899952,58,46,0
38.07591,38.25342,55,45,0
38.434147,41.6016,53,44,0
38.434147,41.6016,58,44,0
41.9368,42.104393,62,55,0
42.27199,42.43959,60,51,0
42.60719,42.774784,58,55,0
42.942383,43.10998,55,51,0
43.27758,43.445175,53,50,0
43.612774,43.78275,50,51,0
43.95467,44.128582,46,46,0
44.30454,44.48205,43,45,0
44.682053,45.770798,42,44,0
45.770798,46.855137,40,44,0
44.682053,46.855137,50,44,0
46.855137,47.946125,42,44,0
47.946125,48.986588,43,44,0
46.865677,48.99713,50,44,0
48.986588,50.070927,48,47,0
48.986588,50.070927,45,41,0
50.070927,51.155266,50,49,0
50.070927,51.155266,47,44,0
51.155266,52.220654,49,46,0
51.155266,52.220654,52,51,0
52.220654,52.584293,55,51,0
52.584293,52.94793,54,50,0
52.94793,53.311565,52,49,0
53.311565,53.6752,54,48,0
52.220654,53.6752,50,51,0
55.534943,56.659943,54,41,0
55.534943,56.659943,57,47,0
55.534943,56.659943,51,41,0
56.659943,57.02139,55,41,0
56.659943,57.02139,52,37,0
58.846554,59.971554,52,38,0
58.846554,59.971554,55,42,0
58.846554,59.971554,49,38,0
59.971554,60.33519,54,37,0
59.971554,60.33519,50,33,0
62.199963,63.425495,51,40,0
63.425495,64.75102,50,37,0
62.199963,65.25102,43,36,0
65.558716,65.874504,61,55,0
65.40487,65.874504,52,49,0
66.17154,66.482414,61,56,0
66.023026,66.482414,54,49,0
66.62141,66.7604,54,47,0
66.482414,66.7604,47,59,0
66.7604,66.90533,56,49,0
66.90533,67.050255,58,52,0
67.050255,67.19606,59,53,0
67.19606,67.34186,61,51,0
67.34186,67.49359,62,55,0
67.49359,67.64532,59,50,0
67.932396,68.22969,61,55,0
67.78886,68.22969,52,49,0
68.51411,68.80438,61,56,0
68.3719,68.80438,54,49,0
68.94402,69.083664,66,47,0
68.80438,69.083664,60,59,0
69.083664,69.22886,67,49,0
69.22886,69.37405,69,51,0
69.37405,69.65876,59,53,0
70.247696,70.54499,61,55,0
70.10344,70.54499,52,49,0
70.82941,71.11679,61,56,0
70.6872,71.11679,54,49,0
71.25578,71.394775,54,47,0
71.11679,71.394775,47,59,0
71.394775,71.53991,56,49,0
71.53991,71.68505,58,52,0
71.68505,71.830185,59,53,0
71.830185,71.97533,61,50,0
71.97533,72.12046,62,53,0
72.12046,72.2656,59,51,0
72.55002,72.840294,61,55,0
72.40781,72.840294,52,49,0
73.11957,73.418495,61,56,0
72.97993,73.418495,54,49,0
73.56275,73.70701,66,47,0
73.418495,73.70701,60,59,0
73.70701,73.85566,67,49,0
73.85566,74.0043,69,52,0
74.0043,74.29282,59,53,0
74.731346,74.872574,52,52,0
74.872574,75.01672,59,49,0
75.01672,75.16087,64,42,0
75.30404,75.44721,50,53,0
75.44721,75.59337,59,50,0
75.59337,75.739525,62,44,0
75.88568,76.03184,49,49,0
76.03184,76.17799,61,52,0
76.17799,76.32415,65,48,0
76.47031,76.61646,54,41,0
76.61646,76.76262,61,48,0
76.76262,76.908775,66,40,0
77.05,77.19123,49,52,0
77.19123,77.33538,57,49,0
77.33538,77.47953,61,44,0
77.622696,77.76587,48,53,0
77.76587,77.912025,54,50,0
77.912025,78.05818,60,45,0
78.20608,78.35398,47,49,0
78.35398,78.50188,54,52,0
78.50188,78.64978,59,49,0
78.797676,78.94558,52,46,0
78.94558,79.093475,59,51,0
79.093475,79.24138,64,47,0
79.38353,79.52569,50,49,0
79.52569,79.670654,55,48,0
79.670654,79.81562,59,42,0
79.960594,80.10556,46,49,0
80.10556,80.25172,52,47,0
80.25172,80.39787,58,41,0
80.54403,80.690186,45,44,0
80.690186,80.83634,52,48,0
80.83634,80.9825,57,42,0
81.128654,81.42097,62,49,0
81.42097,81.56712,61,46,0
81.85154,82.141815,58,46,0
81.70933,82.141815,45,41,0
82.42622,82.7165,57,47,0
82.28402,82.7165,45,41,0
82.86076,83.00502,45,35,0
83.00502,83.150154,50,41,0
83.150154,83.295296,54,39,0
83.295296,83.44044,57,40,0
83.44044,83.58557,62,40,0
83.58557,83.73071,66,42,0
83.73071,83.8698,69,39,0
84.15831,84.4466,60,47,0
84.017075,84.4466,45,41,0
84.73294,85.02525,59,45,0
84.589775,85.02525,45,40,0
85.17141,85.317566,45,39,0
85.317566,85.46372,52,42,0
85.46372,85.60988,55,38,0
85.60988,85.756035,58,39,0
85.756035,85.90219,64,41,0
85.90219,86.04835,67,44,0
86.04835,86.1945,57,39,0
86.47892,86.769196,58,46,0
86.33671,86.769196,45,41,0
87.053604,87.34389,57,47,0
86.9114,87.34389,45,41,0
87.48418,87.624466,45,35,0
87.624466,87.76961,50,41,0
87.76961,87.91474,54,39,0
87.91474,88.05988,57,40,0
88.05988,88.20502,62,39,0
88.20502,88.35016,66,42,0
88.35016,88.48925,69,39,0
88.777756,89.06605,60,47,0
88.63653,89.06605,45,41,0
89.352394,89.64471,59,45,0
89.20922,89.64471,45,40,0
89.78615,89.92759,45,39,0
89.92759,90.07378,52,42,0
90.07378,90.219955,55,38,0
90.219955,90.36231,58,39,0
90.36231,90.50467,64,41,0
90.50467,90.65283,67,44,0
90.65283,90.800995,70,39,0
90.94525,91.08951,45,45,0
91.08951,91.23871,54,48,0
91.23871,91.3879,57,45,0
91.53216,91.676414,45,45,0
91.676414,91.82561,55,48,0
91.82561,91.97481,59,45,0
92.11712,92.25944,45,47,0
92.25944,92.40863,56,50,0
92.40863,92.55782,59,50,0
92.70208,92.846344,45,47,0
92.846344,92.99972,57,50,0
92.99972,93.15309,61,47,0
93.30026,93.44744,44,49,0
93.44744,93.60192,56,53,0
93.60192,93.7564,61,49,0
93.90765,94.05891,44,53,0
94.05891,94.22025,56,57,0
94.22025,94.38159,61,53,0
94.528076,94.67456,42,60,0
94.67456,94.824066,49,62,0
94.824066,94.97358,54,60,0
95.12208,95.27058,49,60,0
95.27058,95.422165,54,62,0
95.422165,95.57376,61,57,0
95.726746,95.87972,42,59,0
95.87972,96.03271,49,63,0
96.03271,96.18569,56,58,0
96.33715,96.4886,49,57,0
96.4886,96.64005,56,62,0
96.64005,96.79151,61,58,0
96.937996,97.08448,42,60,0
97.08448,97.233986,49,62,0
97.233986,97.38349,54,60,0
97.53199,97.68049,49,60,0
97.68049,97.832085,54,62,0
97.832085,97.98367,61,57,0
98.13825,98.29282,42,59,0
98.29282,98.4474,49,63,0
98.4474,98.601974,56,58,0
98.75343,98.904884,49,57,0
98.904884,99.05634,56,62,0
99.05634,99.20734,61,58,0
99.35382,99.50059,42,57,0
99.50059,99.65009,49,59,0
99.65009,99.79951,54,57,0
99.948006,100.09679,49,57,0
100.09679,100.24838,54,59,0
100.24838,100.393654,61,53,0
100.55157,100.703156,42,56,0
100.703156,100.854744,49,60,0
100.854744,101.00634,53,55,0
101.15793,101.309525,49,53,0
101.309525,101.46348,53,59,0
101.46348,101.61744,59,55,0
101.7649,101.91255,42,45,0
101.91255,102.06206,49,47,0
102.06206,102.21147,54,45,0
102.35997,102.50876,49,45,0
102.50876,102.66035,54,47,0
102.66035,102.805626,61,42,0
102.96353,103.11512,42,44,0
103.11512,103.266716,49,48,0
103.266716,103.418304,53,44,0
103.5699,103.72149,49,42,0
103.72149,103.87891,53,47,0
103.87891,104.036316,59,44,0
104.18536,104.33445,42,39,0
104.33445,104.48841,49,41,0
104.4743,104.62825,54,39,0
104.79332,104.944786,49,39,0
104.944786,105.10308,54,41,0
105.10308,105.261375,61,38,0
105.41367,105.56572,42,35,0
105.56572,105.724014,49,37,0
105.724014,105.88141,54,35,0
106.03537,106.18911,49,35,0
106.18911,106.34923,54,37,0
106.34923,106.509346,61,34,0
106.80785,107.117134,61,55,0
106.6586,107.117134,52,49,0
107.408394,107.711426,61,56,0
107.262764,107.711426,54,49,0
107.85287,107.99431,54,47,0
107.711426,107.99431,47,59,0
107.99431,108.140495,56,49,0
108.140495,108.28668,58,52,0
108.28668,108.43286,59,53,0
108.43286,108.57905,61,51,0
108.57905,108.73,62,55,0
108.73,108.88095,59,50,0
109.16537,109.45564,61,55,0
109.023155,109.45564,52,49,0
109.74006,110.030334,61,56,0
109.59785,110.030334,54,49,0
110.17459,110.31885,66,47,0
110.030334,110.31885,60,59,0
110.31885,110.468254,67,49,0
110.468254,110.61765,69,51,0
110.61765,110.90237,59,53,0
111.485245,111.77354,67,49,0
111.34402,111.77354,64,52,0
112.05988,112.352196,66,50,0
111.91671,112.352196,62,53,0
112.64451,112.93681,62,49,0
112.49835,112.93681,60,49,0
113.229126,113.52144,62,48,0
113.08297,113.52144,59,41,0
113.8039,114.09219,66,49,0
113.662674,114.09219,60,52,0
114.37854,114.67085,62,50,0
114.23537,114.67085,59,53,0
114.96316,115.25547,57,49,0
114.817,115.25547,54,49,0
115.54778,115.840096,55,48,0
115.40163,115.840096,53,41,0
116.13241,116.430916,55,44,0
115.98625,116.430916,52,44,0
116.726166,117.0349,55,42,0
116.57854,117.0349,51,37,0
117.33176,117.62861,55,44,0
117.18333,117.62861,50,44,0
117.92546,118.23243,54,42,0
117.77703,118.23243,50,37,0
118.52928,118.82613,57,42,0
118.38086,118.82613,55,37,0
118.97456,119.122986,54,35,0
119.122986,119.27825,57,38,0
119.27825,119.43352,62,35,0
119.732025,120.03053,45,42,0
119.58277,120.03053,43,37,0
120.17979,120.32904,42,35,0
120.32904,120.478294,45,38,0
120.478294,120.62727,50,35,0
120.62727,120.776245,53,42,0
120.776245,120.926895,54,40,0
120.926895,121.07925,56,42,0
121.07925,121.23332,57,38,0
122.50831,123.8501,57,37,0
122.44211,123.8501,50,33,0
123.659355,124.77034,52,31,0
123.70883,124.77034,55,36,0
124.825745,126.1429,57,44,0
124.77034,126.1429,54,36,0
125.95188,127.18336,55,33,0
126.00065,127.18336,59,36,0
127.18336,128.2677,57,41,0
127.18336,128.2677,60,47,0
128.2677,129.35204,59,41,0
128.2677,129.35204,62,46,0
129.35204,130.41742,61,42,0
129.35204,130.41742,64,48,0
130.41742,130.78107,67,51,0
130.78107,131.1447,66,50,0
131.1447,131.50833,64,49,0
130.41742,131.50833,62,51,0
131.50833,132.61061,57,48,0
131.50833,132.61061,50,42,0
132.61061,133.33788,57,45,0
132.61061,133.33788,51,39,0
133.33788,133.70152,55,38,0
133.33788,133.70152,52,34,0
134.42007,134.78818,55,40,0
133.70152,134.78818,49,33,0
134.78818,135.55896,55,45,0
135.55896,135.7603,54,40,0
134.78818,135.99312,50,39,0
135.7603,135.99312,50,33,0
135.82246,137.1435,57,37,0
136.9408,138.06374,52,31,0
136.99484,138.06374,55,36,0
138.11914,139.41914,57,44,0
138.06374,139.41914,54,36,0
139.21645,140.4596,55,33,0
139.2705,140.4596,59,36,0
140.4596,141.54395,57,41,0
140.4596,141.54395,60,47,0
141.54395,142.62828,59,44,0
141.54395,142.62828,62,49,0
142.62828,143.69366,61,40,0
142.62828,143.69366,64,51,0
143.69366,144.78458,66,49,0
143.69366,144.78458,62,44,0
144.78458,145.86546,67,47,0
144.78458,145.86546,64,41,0
145.86546,146.95638,69,47,0
145.86546,146.95638,66,41,0
146.95638,148.04727,69,39,0
146.95638,148.04727,66,34,0
148.04727,148.41092,74,44,0
148.77455,149.13818,74,41,0
149.13818,152.12299,74,48,0
148.41092,152.12299,69,41,0
148.04727,152.12299,66,26,0
152.5076,155.67506,65,44,0
152.5076,155.67506,70,44,0
156.01215,156.18068,74,55,0
156.34921,156.51776,72,51,0
156.6863,156.85484,70,55,0
157.02338,157.19191,67,51,0
157.36046,157.52805,65,50,0
157.69565,157.86563,62,51,0
158.03755,158.21146,58,46,0
158.38742,158.56493,55,45,0
158.74565,161.9131,53,44,0
158.74565,161.9131,58,44,0
162.2483,162.4159,62,55,0
162.5835,162.7511,60,51,0
162.9187,163.08629,58,55,0
163.25389,163.4215,55,51,0
163.58908,163.75668,53,50,0
163.92429,164.09425,50,51,0
164.26617,164.4401,46,46,0
164.61604,164.79356,43,45,0
164.99356,166.0823,42,44,0
166.0823,167.16664,40,44,0
164.99356,167.16664,50,44,0
167.16664,168.25763,42,44,0
168.25763,169.2981,43,44,0
167.17719,169.30864,50,44,0
169.2981,170.38243,45,41,0
169.2981,170.38243,48,47,0
170.38243,171.46677,47,44,0
170.38243,171.46677,50,49,0
171.46677,172.53217,49,46,0
171.46677,172.53217,52,51,0
172.53217,172.8958,55,46,0
172.8958,173.25943,54,45,0
173.25943,173.62308,52,44,0
173.62308,173.98671,54,42,0
172.53217,173.98671,50,46,0
175.84645,176.97145,57,41,0
175.84645,176.97145,54,37,0
175.84645,176.97145,51,37,0
176.97145,177.3329,55,37,0
176.97145,177.3329,52,33,0
179.15807,180.28307,55,34,0
179.15807,180.28307,52,29,0
179.15807,180.28307,49,29,0
180.28307,180.6467,54,29,0
180.28307,180.6467,50,26,0
182.51147,185.23175,51,31,0
183.737,186.914,43,27,0
186.914,188.59624,43,26,0
185.23175,190.27849,50,29,0
190.27849,193.64296,50,21,0
188.59624,193.64296,43,26,0
