start_time,end_time,note_value,velocity,instrument_program_number
0.0,0.83525574,74,75,0
0.0,0.83525574,62,67,0
0.83525574,0.954578,62,65,0
0.83525574,0.954578,74,73,0
0.954578,1.7898338,74,75,0
0.954578,1.7898338,62,67,0
1.7898338,1.909156,62,63,0
1.7898338,1.909156,74,71,0
1.909156,2.7444117,74,78,0
1.909156,2.7444117,62,70,0
2.7444117,2.863734,74,74,0
2.7444117,2.863734,62,66,0
2.863734,3.6989899,62,70,0
2.863734,3.6989899,74,78,0
3.6989899,3.818312,74,75,0
3.6989899,3.818312,62,67,0
3.818312,4.285893,74,78,0
3.818312,4.285893,62,70,0
4.285893,5.1568527,62,70,0
4.285893,5.1568527,74,78,0
5.1568527,6.0224648,74,78,0
5.1568527,6.0224648,62,70,0
6.0224648,6.7201376,74,78,0
6.0224648,6.7201376,62,70,0
6.7201376,7.1896214,62,67,0
6.7201376,7.1896214,74,75,0
7.1896214,7.3069925,62,68,0
7.1896214,7.3069925,74,76,0
7.882589,8.754903,67,83,0
7.882589,8.754903,79,83,0
8.754903,9.412327,79,78,0
8.754903,9.412327,67,70,0
9.412327,9.864263,79,78,0
9.412327,9.864263,67,70,0
9.864263,9.981634,67,68,0
9.864263,9.981634,79,76,0
10.099005,10.216376,78,87,0
10.099005,10.216376,74,87,0
10.099005,10.216376,86,97,0
10.333747,10.451118,79,79,0
10.333747,10.451118,74,79,0
10.333747,10.451118,86,88,0
10.568489,10.803231,78,84,0
10.568489,10.803231,74,84,0
10.568489,10.803231,86,94,0
11.037973,11.645414,67,80,0
11.037973,11.645414,59,72,0
11.645414,11.750309,67,75,0
11.645414,11.750309,59,67,0
11.785274,11.897147,59,67,0
11.785274,11.897147,67,75,0
11.934439,12.516581,59,72,0
11.934439,12.516581,67,81,0
12.516581,12.621475,59,67,0
12.516581,12.621475,67,75,0
12.656441,12.761335,67,74,0
12.656441,12.761335,59,66,0
12.796301,13.470193,67,80,0
12.796301,13.470193,59,72,0
13.470193,13.585206,71,74,0
13.470193,13.585206,67,66,0
13.700218,13.813417,72,80,0
13.700218,13.813417,69,72,0
13.926617,14.04163,71,74,0
13.926617,14.04163,67,66,0
14.156643,14.269841,72,80,0
14.156643,14.269841,69,72,0
14.38304,14.49624,69,79,0
14.38304,14.49624,62,71,0
14.609439,15.207523,71,72,0
14.609439,15.207523,74,80,0
15.207523,15.312419,71,67,0
15.207523,15.312419,74,75,0
15.3473835,15.458817,74,75,0
15.3473835,15.458817,71,67,0
15.495961,16.073534,74,81,0
15.495961,16.073534,71,72,0
16.073534,16.181147,71,67,0
16.073534,16.181147,74,75,0
16.218582,16.33089,74,74,0
16.218582,16.33089,71,66,0
16.368328,16.480202,76,80,0
16.368328,16.480202,72,72,0
16.592075,16.703947,74,77,0
16.592075,16.703947,71,69,0
16.81582,16.929916,72,77,0
16.81582,16.929916,69,69,0
17.04401,17.16138,71,75,0
17.04401,17.16138,64,67,0
17.04401,17.16138,68,75,0
17.278753,17.3947,64,73,0
17.278753,17.3947,69,82,0
17.510645,17.628506,71,77,0
17.510645,17.628506,68,69,0
17.510645,17.628506,64,69,0
17.746365,17.86278,72,82,0
17.746365,17.86278,69,73,0
17.746365,17.86278,64,67,0
18.213936,18.326178,78,72,0
18.213936,18.326178,74,64,0
18.43842,18.553423,73,59,0
18.43842,18.553423,76,66,0
18.668428,18.781576,71,63,0
18.668428,18.781576,74,71,0
18.894724,19.009727,66,60,0
18.894724,19.009727,73,67,0
18.894724,19.009727,70,67,0
19.124731,19.2388,71,69,0
19.124731,19.2388,66,62,0
19.352869,19.46836,73,64,0
19.352869,19.46836,70,64,0
19.352869,19.46836,66,57,0
19.58385,19.69792,74,67,0
19.58385,19.69792,71,67,0
19.58385,19.69792,66,60,0
20.041998,20.153002,80,72,0
20.041998,20.153002,76,64,0
20.264006,20.377205,75,59,0
20.264006,20.377205,78,66,0
20.490404,20.602278,76,71,0
20.490404,20.602278,73,63,0
20.714151,20.827795,75,67,0
20.714151,20.827795,72,67,0
20.714151,20.827795,68,60,0
20.94144,21.052874,73,69,0
20.94144,21.052874,68,62,0
21.164307,21.277506,75,64,0
21.164307,21.277506,68,57,0
21.164307,21.277506,72,64,0
21.390705,21.503452,68,60,0
21.390705,21.503452,76,67,0
21.390705,21.503452,73,67,0
21.846209,22.069075,81,61,0
21.846209,22.069075,78,54,0
22.069075,22.29194,79,55,0
22.069075,22.29194,76,49,0
22.29194,22.5114,74,54,0
22.29194,22.5114,78,60,0
22.5114,22.729185,76,56,0
22.5114,22.729185,69,50,0
22.729185,22.950327,81,61,0
22.729185,22.950327,78,54,0
22.950327,23.171467,76,49,0
22.950327,23.171467,79,55,0
23.171467,23.390078,78,60,0
23.171467,23.390078,74,54,0
23.390078,23.612944,76,58,0
23.390078,23.612944,69,52,0
23.612944,23.83073,78,55,0
23.612944,23.83073,81,62,0
23.83073,24.051027,79,57,0
23.83073,24.051027,76,51,0
24.051027,24.271324,78,63,0
24.051027,24.271324,74,56,0
24.271324,24.495071,69,53,0
24.271324,24.495071,76,59,0
24.495071,24.712038,81,63,0
24.495071,24.712038,78,56,0
24.712038,24.932335,76,53,0
24.712038,24.932335,79,59,0
24.932335,25.15263,78,63,0
24.932335,25.15263,74,56,0
25.15263,25.376377,76,61,0
25.15263,25.376377,69,54,0
25.376377,25.592516,83,62,0
25.376377,25.592516,86,69,0
25.592516,25.808655,84,63,0
25.592516,25.808655,81,56,0
25.808655,26.028952,83,68,0
25.808655,26.028952,79,61,0
26.028952,26.253569,74,56,0
26.028952,26.253569,81,63,0
26.253569,26.4689,86,71,0
26.253569,26.4689,83,63,0
26.4689,26.684233,84,64,0
26.4689,26.684233,81,57,0
26.684233,26.902018,79,62,0
26.684233,26.902018,83,69,0
26.902018,27.124884,74,59,0
26.902018,27.124884,81,66,0
27.124884,27.3394,83,64,0
27.124884,27.3394,86,72,0
27.3394,27.553915,84,65,0
27.3394,27.553915,81,58,0
27.553915,27.772526,83,71,0
27.553915,27.772526,79,63,0
27.772526,27.987858,74,61,0
27.772526,27.987858,81,68,0
27.987858,28.203997,86,73,0
27.987858,28.203997,83,65,0
28.203997,28.422607,84,68,0
28.203997,28.422607,81,61,0
28.422607,28.641218,79,64,0
28.422607,28.641218,83,72,0
28.641218,28.867617,81,70,0
28.641218,28.867617,74,70,0
28.867617,29.476042,79,92,0
28.867617,29.476042,71,82,0
28.867617,29.476042,67,82,0
29.476042,29.581676,79,86,0
29.476042,29.581676,71,77,0
29.476042,29.581676,67,77,0
29.616886,29.72876,71,77,0
29.616886,29.72876,79,86,0
29.616886,29.72876,67,77,0
29.766052,30.345118,67,83,0
29.766052,30.345118,71,83,0
29.766052,30.345118,79,93,0
30.345118,30.4515,79,86,0
30.345118,30.4515,71,77,0
30.345118,30.4515,67,77,0
30.486961,30.593344,79,85,0
30.486961,30.593344,71,76,0
30.486961,30.593344,67,76,0
30.628805,31.289824,79,92,0
30.628805,31.289824,71,82,0
30.628805,31.289824,67,82,0
31.289824,31.40257,79,82,0
31.289824,31.40257,83,82,0
31.289824,31.40257,71,73,0
31.515318,31.625889,84,87,0
31.515318,31.625889,81,87,0
31.515318,31.625889,72,78,0
31.73646,31.849215,83,85,0
31.73646,31.849215,79,85,0
31.73646,31.849215,71,76,0
31.961523,32.072094,81,87,0
31.961523,32.072094,84,87,0
31.961523,32.072094,72,78,0
32.182663,32.29631,74,81,0
32.182663,32.29631,81,81,0
32.182663,32.29631,69,72,0
32.409954,33.009026,83,101,0
32.409954,33.009026,74,90,0
32.409954,33.009026,86,101,0
33.009026,33.11466,86,94,0
33.009026,33.11466,74,84,0
33.009026,33.11466,83,94,0
33.149868,33.261303,86,94,0
33.149868,33.261303,74,84,0
33.149868,33.261303,83,94,0
33.298447,33.876514,86,102,0
33.298447,33.876514,74,91,0
33.298447,33.876514,83,102,0
33.876514,33.98437,86,94,0
33.876514,33.98437,74,84,0
33.876514,33.98437,83,94,0
34.02181,34.134117,86,93,0
34.02181,34.134117,74,83,0
34.02181,34.134117,83,93,0
34.171555,34.28343,84,93,0
34.171555,34.28343,76,83,0
34.171555,34.28343,88,93,0
34.3953,34.507175,86,86,0
34.3953,34.507175,74,77,0
34.3953,34.507175,83,86,0
34.61905,34.733143,72,81,0
34.61905,34.733143,84,91,0
34.61905,34.733143,81,91,0
34.847237,34.964607,83,85,0
34.847237,34.964607,79,85,0
34.847237,34.964607,71,76,0
34.847237,34.964607,74,85,0
35.081978,35.19935,69,84,0
35.081978,35.19935,74,84,0
35.081978,35.19935,81,94,0
35.081978,35.19935,78,94,0
35.31672,35.434093,79,89,0
35.31672,35.434093,71,80,0
35.31672,35.434093,83,89,0
35.31672,35.434093,74,80,0
35.551464,35.668835,81,94,0
35.551464,35.668835,78,94,0
35.551464,35.668835,69,77,0
35.551464,35.668835,74,77,0
36.020947,36.63037,79,92,0
36.020947,36.63037,67,82,0
36.020947,36.63037,71,82,0
36.63037,36.772217,79,86,0
36.63037,36.772217,67,77,0
36.63037,36.772217,71,77,0
36.772217,36.92138,67,77,0
36.772217,36.92138,79,86,0
36.772217,36.92138,71,77,0
36.92138,37.499947,71,83,0
36.92138,37.499947,67,83,0
36.92138,37.499947,79,93,0
37.499947,37.64129,71,77,0
37.499947,37.64129,67,77,0
37.499947,37.64129,79,86,0
37.64129,37.78263,71,76,0
37.64129,37.78263,67,76,0
37.64129,37.78263,79,85,0
37.78263,38.44709,71,82,0
37.78263,38.44709,67,82,0
37.78263,38.44709,79,92,0
38.44709,38.67171,83,82,0
38.44709,38.67171,71,73,0
38.44709,38.67171,79,82,0
38.67171,38.89032,81,87,0
38.67171,38.89032,72,78,0
38.67171,38.89032,84,87,0
38.89032,39.114937,80,85,0
38.89032,39.114937,71,76,0
38.89032,39.114937,83,85,0
39.114937,39.224667,72,78,0
39.114937,39.224667,84,87,0
39.114937,39.224667,81,87,0
39.334396,39.446705,81,81,0
39.334396,39.446705,69,72,0
39.334396,39.446705,74,81,0
39.559013,40.223476,86,96,0
39.559013,40.223476,74,82,0
40.223476,40.445484,72,73,0
40.223476,40.445484,84,82,0
39.559013,40.445484,79,87,0
40.445484,40.664944,79,87,0
40.445484,40.664944,71,78,0
40.445484,40.664944,83,87,0
40.664944,40.88869,81,85,0
40.664944,40.88869,72,76,0
40.664944,40.88869,84,85,0
40.88869,40.997997,86,87,0
40.88869,40.997997,74,78,0
40.88869,40.997997,83,87,0
41.1073,41.219173,79,81,0
41.1073,41.219173,71,72,0
41.1073,41.219173,83,81,0
41.331047,41.997154,84,87,0
41.331047,41.997154,79,82,0
41.331047,41.997154,91,96,0
41.997154,42.10709,78,69,0
41.997154,42.10709,84,69,0
41.997154,42.10709,90,77,0
42.21703,42.324837,88,82,0
42.21703,42.324837,84,82,0
42.21703,42.324837,76,74,0
42.43264,42.54345,90,80,0
42.43264,42.54345,86,80,0
42.43264,42.54345,78,72,0
42.654255,42.76206,84,82,0
42.654255,42.76206,88,82,0
42.654255,42.76206,76,74,0
42.869865,42.98067,86,76,0
42.869865,42.98067,83,76,0
42.869865,42.98067,74,68,0
43.09148,43.200554,84,81,0
43.09148,43.200554,81,81,0
43.09148,43.200554,72,73,0
43.30963,43.418705,74,66,0
43.30963,43.418705,86,74,0
43.30963,43.418705,83,74,0
43.52778,43.63436,84,79,0
43.52778,43.63436,81,79,0
43.52778,43.63436,72,71,0
43.74094,43.850876,71,64,0
43.74094,43.850876,83,72,0
43.74094,43.850876,79,72,0
43.960815,44.068623,81,77,0
43.960815,44.068623,69,69,0
43.960815,44.068623,78,77,0
44.176426,44.287235,83,74,0
44.176426,44.287235,71,66,0
44.176426,44.287235,79,74,0
44.39804,44.505844,78,77,0
44.39804,44.505844,69,69,0
44.39804,44.505844,81,77,0
44.61365,44.724457,79,73,0
44.61365,44.724457,67,65,0
44.61365,44.724457,76,73,0
44.835266,44.94434,78,81,0
44.835266,44.94434,66,73,0
44.835266,44.94434,74,81,0
45.053417,45.16249,67,66,0
45.053417,45.16249,76,74,0
45.053417,45.16249,79,74,0
45.271564,45.378147,78,79,0
45.271564,45.378147,66,71,0
45.271564,45.378147,74,79,0
45.484726,45.59466,76,72,0
45.484726,45.59466,72,72,0
45.484726,45.59466,64,64,0
45.7046,45.81241,62,65,0
45.7046,45.81241,74,73,0
45.7046,45.81241,71,73,0
45.92021,46.03102,76,70,0
45.92021,46.03102,64,62,0
45.92021,46.03102,72,70,0
46.141827,46.249634,74,73,0
46.141827,46.249634,62,65,0
46.141827,46.249634,71,73,0
46.357437,46.468243,69,69,0
46.357437,46.468243,64,61,0
46.357437,46.468243,72,69,0
46.579052,47.18898,71,73,0
46.579052,47.18898,67,65,0
47.18898,47.33133,71,68,0
47.18898,47.33133,67,61,0
47.18898,47.33133,59,61,0
47.33133,47.480495,71,68,0
47.33133,47.480495,67,61,0
47.33133,47.480495,59,61,0
47.480495,48.058563,71,70,0
47.480495,48.058563,67,62,0
47.480495,48.058563,59,62,0
48.058563,48.199406,67,61,0
48.058563,48.199406,71,68,0
48.058563,48.199406,59,61,0
48.199406,48.340252,59,60,0
48.199406,48.340252,67,60,0
48.199406,48.340252,71,68,0
48.340252,48.787746,71,69,0
48.340252,48.787746,67,61,0
48.340252,48.787746,59,61,0
49.00471,49.117023,67,65,0
49.00471,49.117023,74,65,0
49.00471,49.117023,62,58,0
49.229332,49.337814,73,69,0
49.229332,49.337814,67,62,0
49.229332,49.337814,76,69,0
49.229332,49.337814,64,62,0
49.446297,49.55687,74,68,0
49.446297,49.55687,62,60,0
49.66744,49.77592,72,69,0
49.66744,49.77592,76,69,0
49.66744,49.77592,64,62,0
49.884407,49.996716,78,64,0
49.884407,49.996716,66,57,0
50.109024,50.33364,79,69,0
50.109024,50.33364,67,62,0
50.109024,50.33364,71,62,0
50.70163,50.844997,83,74,0
50.70163,50.844997,71,67,0
50.70163,50.844997,79,67,0
50.844997,50.994164,71,67,0
50.844997,50.994164,83,74,0
50.844997,50.994164,79,67,0
50.994164,51.57323,79,68,0
50.994164,51.57323,71,68,0
50.994164,51.57323,83,77,0
51.57323,51.715073,79,67,0
51.57323,51.715073,71,67,0
51.57323,51.715073,83,74,0
51.715073,51.85692,79,66,0
51.715073,51.85692,71,66,0
51.715073,51.85692,83,74,0
51.85692,52.304413,79,67,0
51.85692,52.304413,71,67,0
51.85692,52.304413,83,75,0
52.521378,52.633686,86,74,0
52.521378,52.633686,74,66,0
52.521378,52.633686,79,74,0
52.745995,52.85448,79,71,0
52.745995,52.85448,85,78,0
52.745995,52.85448,88,78,0
52.745995,52.85448,76,71,0
52.962963,53.073967,74,69,0
52.962963,53.073967,86,77,0
53.18497,53.40276,88,78,0
53.18497,53.40276,76,71,0
53.18497,53.40276,84,78,0
53.40276,53.627377,78,65,0
53.40276,53.627377,84,65,0
53.40276,53.627377,90,73,0
53.40276,53.627377,86,73,0
53.627377,53.851994,86,71,0
53.627377,53.851994,83,71,0
53.627377,53.851994,91,78,0
53.627377,53.851994,79,71,0
54.07661,54.185097,74,68,0
54.07661,54.185097,86,76,0
54.221256,54.329327,88,76,0
54.221256,54.329327,76,68,0
54.36535,54.473015,90,77,0
54.36535,54.473015,78,69,0
54.508766,54.6202,79,70,0
54.508766,54.6202,91,78,0
54.9545,55.062984,86,76,0
54.9545,55.062984,74,68,0
55.099144,55.207214,88,76,0
55.099144,55.207214,76,68,0
55.243237,55.350903,78,69,0
55.243237,55.350903,90,77,0
55.386654,55.49596,79,70,0
55.386654,55.49596,91,78,0
55.823875,55.932083,74,68,0
55.823875,55.932083,86,76,0
55.96838,56.07769,88,76,0
55.96838,56.07769,76,68,0
56.114265,56.224697,90,77,0
56.114265,56.224697,78,69,0
56.2617,56.484566,79,70,0
56.2617,56.484566,91,78,0
56.70743,56.78086,67,55,0
56.854435,56.928295,69,55,0
57.002438,57.076874,70,51,0
57.151604,58.02438,71,55,0
58.02438,58.47011,72,55,0
58.47011,58.543266,67,55,0
58.6167,58.690556,69,55,0
58.7647,58.839283,71,51,0
58.914303,59.680298,72,55,0
59.680298,59.794853,76,55,0
59.794853,60.240585,71,55,0
60.240585,60.31402,54,55,0
60.38759,60.46145,55,55,0
60.535595,60.610027,57,51,0
61.113327,61.336193,63,35,0
61.113327,61.336193,66,39,0
60.684757,61.55906,59,55,0
61.55906,62.00479,60,55,0
62.00479,62.077946,55,55,0
62.151375,62.225235,57,55,0
62.00479,62.225235,64,39,0
62.00479,62.225235,67,39,0
62.29938,62.373962,59,51,0
62.87909,63.101955,69,39,0
62.87909,63.101955,72,39,0
62.448982,63.21651,60,55,0
63.21651,63.33107,64,55,0
63.33107,63.776802,59,55,0
63.776802,63.85023,66,55,0
63.923805,63.997665,68,55,0
63.776802,63.997665,63,39,0
64.07181,64.14625,70,51,0
64.22097,65.10562,71,55,0
65.10562,65.55135,72,55,0
65.55135,65.624504,67,55,0
65.69794,65.7718,69,55,0
65.84594,65.920525,71,51,0
65.995544,66.761536,72,55,0
66.761536,66.87609,76,55,0
66.87609,67.32182,71,55,0
67.32182,67.395256,54,55,0
67.468834,67.54269,55,55,0
67.61684,67.69127,57,51,0
68.20659,68.42946,66,39,0
68.20659,68.42946,63,39,0
67.766,68.65232,59,55,0
68.65232,69.09805,60,55,0
69.09805,69.1712,55,55,0
69.24464,69.3185,57,55,0
69.09805,69.3185,67,39,0
69.09805,69.3185,64,39,0
69.39265,69.467224,59,51,0
69.982834,70.2057,72,39,0
69.982834,70.2057,69,39,0
69.542244,70.32026,60,55,0
70.32026,70.434814,64,55,0
70.434814,70.88055,59,55,0
70.88055,70.95398,63,59,0
71.02755,71.10141,64,59,0
70.88055,71.10141,71,42,0
71.17556,71.24999,65,57,0
71.75483,72.20056,61,46,0
71.32472,72.20056,66,62,0
72.20056,72.42342,68,67,0
72.20056,72.42342,60,64,0
72.64629,73.09031,68,61,0
72.64629,73.09031,80,68,0
73.09031,73.534325,79,67,0
73.09031,73.534325,67,60,0
73.534325,73.98006,78,67,0
73.534325,73.98006,68,60,0
73.534325,73.98006,66,60,0
73.98006,74.203804,76,67,0
73.98006,74.203804,68,54,0
73.98006,74.203804,64,54,0
74.42755,74.574554,64,61,0
74.574554,74.722565,66,61,0
74.722565,74.87173,67,59,0
75.301834,75.74757,63,48,0
74.87173,75.74757,68,65,0
75.74757,75.97043,62,67,0
75.74757,75.97043,70,69,0
76.1933,76.63221,70,63,0
76.1933,76.63221,82,70,0
76.63221,77.07449,69,63,0
76.63221,77.07449,81,70,0
77.07449,77.51851,80,66,0
77.07449,77.51851,68,59,0
77.07449,77.51851,70,59,0
77.51851,77.74313,78,70,0
77.51851,77.74313,66,56,0
77.51851,77.74313,70,56,0
77.96775,78.04175,70,59,0
78.11575,78.18976,72,57,0
78.263756,78.33776,74,57,0
78.411766,78.48577,75,60,0
78.55977,78.63377,74,57,0
78.70778,78.78178,75,57,0
78.85578,78.92979,82,60,0
79.003784,79.07779,81,56,0
79.151794,79.2258,82,56,0
79.2998,79.3738,78,60,0
79.44781,79.521805,77,57,0
79.59581,79.669815,78,57,0
79.74381,79.817245,74,61,0
79.89068,79.96411,73,59,0
80.037544,80.11098,74,59,0
80.18441,80.258415,75,60,0
80.33241,80.40642,74,58,0
80.48042,80.55442,75,58,0
80.628426,80.70301,70,59,0
80.77759,80.85217,69,57,0
80.92676,81.001335,70,57,0
81.07592,81.150795,75,60,0
81.22566,81.30054,74,57,0
81.37541,81.45029,75,58,0
82.13986,82.2926,82,71,0
82.2926,82.44534,81,66,0
82.44534,82.59747,82,71,0
82.59747,82.749596,70,65,0
82.749596,82.901726,82,67,0
82.901726,83.056946,82,71,0
83.056946,83.212166,70,67,0
83.212166,83.367386,82,67,0
83.98578,84.13853,82,71,0
84.13853,84.29127,81,66,0
84.29127,84.44339,82,71,0
84.44339,84.59552,70,65,0
84.59552,84.74764,82,67,0
84.74764,84.90286,82,71,0
84.90286,85.05808,70,67,0
85.05808,85.2133,82,67,0
85.2133,85.28731,71,59,0
85.361305,85.43531,73,57,0
85.509315,85.58331,75,57,0
85.65732,85.73132,76,60,0
85.80532,85.879326,75,57,0
85.95333,86.027336,76,57,0
86.10133,86.17534,83,60,0
86.249344,86.32334,82,56,0
86.39735,86.47135,83,56,0
86.54535,86.619354,79,60,0
86.69336,86.76736,78,57,0
86.84136,86.91537,79,57,0
86.98937,87.0628,75,61,0
87.13623,87.20966,74,59,0
87.2831,87.35653,75,59,0
87.42996,87.50397,76,60,0
87.577965,87.65197,75,58,0
87.725975,87.79997,76,58,0
87.87398,87.94856,71,59,0
88.02315,88.097725,70,57,0
88.17231,88.24689,71,57,0
88.32147,88.39635,76,60,0
88.47122,88.54609,75,57,0
88.620964,88.69584,76,58,0
89.385414,89.538155,83,71,0
89.538155,89.6909,82,66,0
89.6909,89.843025,83,71,0
89.843025,89.99515,71,65,0
89.99515,90.14728,83,67,0
90.14728,90.3025,83,71,0
90.3025,90.45772,71,67,0
90.45772,90.61294,83,67,0
91.23134,91.38408,83,71,0
91.38408,91.53682,82,66,0
91.53682,91.68894,83,71,0
91.68894,91.84107,71,65,0
91.84107,91.993195,83,67,0
91.993195,92.148415,83,71,0
92.148415,92.303635,71,67,0
92.303635,92.458855,83,67,0
92.458855,92.612206,84,60,0
92.612206,92.76556,72,56,0
92.76556,92.91891,84,56,0
92.91891,93.07103,84,62,0
93.07103,93.22316,72,59,0
93.22316,93.37528,84,58,0
93.37528,93.52741,86,64,0
93.52741,93.679535,74,59,0
93.679535,93.83107,86,62,0
93.83107,93.98319,86,67,0
93.98319,94.13517,74,62,0
94.13517,94.2867,86,63,0
94.2867,94.437775,88,69,0
94.437775,94.58871,76,65,0
94.58871,94.73904,88,67,0
94.73904,94.88908,88,71,0
94.88908,95.038826,76,67,0
95.038826,95.18857,88,66,0
95.18857,95.33831,90,72,0
95.33831,95.48806,78,68,0
95.48806,95.6378,90,68,0
95.6378,95.786385,90,76,0
95.786385,95.93496,78,69,0
95.93496,96.08296,90,72,0
96.08296,96.23097,90,78,0
96.23097,96.378395,78,71,0
96.378395,96.525826,90,73,0
96.525826,96.67269,90,80,0
96.67269,96.81955,78,73,0
96.81955,96.966415,90,76,0
96.966415,97.11328,90,80,0
97.11328,97.26015,78,73,0
97.26015,97.40701,90,76,0
97.40701,97.556175,90,80,0
97.556175,97.70534,78,73,0
97.70534,97.85451,90,76,0
97.85451,98.000244,78,78,0
98.000244,98.14599,66,71,0
98.14599,98.291725,78,73,0
98.291725,98.439735,78,80,0
98.439735,98.58774,66,73,0
98.58774,98.73574,78,78,0
98.73574,98.88375,78,84,0
98.88375,99.03175,66,77,0
99.03175,99.17976,78,82,0
99.17976,99.328926,78,88,0
99.328926,99.47809,66,81,0
99.47809,99.62726,78,85,0
99.62726,99.77744,78,92,0
99.77744,99.92957,66,84,0
99.92957,100.08386,78,89,0
100.08386,100.19617,83,94,0
100.08386,100.19617,78,79,0
100.08386,100.19617,71,79,0
100.08386,100.19617,75,79,0
100.233604,100.34476,71,71,0
100.233604,100.34476,75,71,0
100.233604,100.34476,83,84,0
100.233604,100.34476,78,71,0
100.381615,100.495705,78,71,0
100.381615,100.495705,71,71,0
100.381615,100.495705,83,84,0
100.381615,100.495705,75,71,0
100.53374,100.758354,83,94,0
100.53374,100.758354,78,79,0
100.53374,100.758354,71,79,0
100.53374,100.758354,75,79,0
100.98298,101.09528,71,79,0
100.98298,101.09528,75,79,0
100.98298,101.09528,83,94,0
100.98298,101.09528,78,79,0
101.13272,101.24329,78,71,0
101.13272,101.24329,71,71,0
101.13272,101.24329,83,84,0
101.13272,101.24329,75,71,0
101.28015,101.39379,78,71,0
101.28015,101.39379,71,71,0
101.28015,101.39379,83,84,0
101.28015,101.39379,75,71,0
101.43167,101.656296,71,79,0
101.43167,101.656296,78,79,0
101.43167,101.656296,83,94,0
101.43167,101.656296,75,79,0
101.88091,101.99148,83,94,0
101.88091,101.99148,75,79,0
101.88091,101.99148,71,79,0
101.88091,101.99148,78,79,0
102.028336,102.13891,78,71,0
102.028336,102.13891,71,71,0
102.028336,102.13891,83,84,0
102.028336,102.13891,75,71,0
102.175766,102.28941,71,71,0
102.175766,102.28941,78,71,0
102.175766,102.28941,83,84,0
102.175766,102.28941,75,71,0
102.32729,102.55235,78,79,0
102.32729,102.55235,75,79,0
102.32729,102.55235,71,79,0
102.32729,102.55235,83,94,0
102.77697,102.88798,71,79,0
102.77697,102.88798,75,79,0
102.77697,102.88798,83,94,0
102.77697,102.88798,78,79,0
102.92498,103.03598,78,71,0
102.92498,103.03598,71,71,0
102.92498,103.03598,83,84,0
102.92498,103.03598,75,71,0
103.07298,103.18618,83,84,0
103.07298,103.18618,78,71,0
103.07298,103.18618,71,71,0
103.07298,103.18618,75,71,0
103.223915,103.44853,71,79,0
103.223915,103.44853,75,79,0
103.223915,103.44853,83,94,0
103.223915,103.44853,78,79,0
103.67315,103.82202,86,94,0
103.67315,103.82202,74,79,0
103.82202,103.9706,74,71,0
103.82202,103.9706,86,84,0
103.9706,104.12212,86,84,0
103.9706,104.12212,74,71,0
104.12212,104.34674,86,94,0
104.12212,104.34674,74,79,0
104.571365,104.71994,74,79,0
104.571365,104.71994,86,94,0
104.71994,104.868515,86,84,0
104.71994,104.868515,74,71,0
104.868515,105.020645,74,71,0
104.868515,105.020645,86,84,0
105.020645,105.24526,86,94,0
105.020645,105.24526,74,79,0
105.46988,105.61904,74,84,0
105.46988,105.61904,62,71,0
105.61904,105.76821,62,63,0
105.61904,105.76821,74,75,0
105.76821,105.91973,74,75,0
105.76821,105.91973,62,63,0
105.91973,106.144356,74,84,0
105.91973,106.144356,62,71,0
106.36897,106.518715,62,71,0
106.36897,106.518715,74,84,0
106.518715,106.668465,74,75,0
106.518715,106.668465,62,63,0
106.668465,106.819984,74,75,0
106.668465,106.819984,62,63,0
106.819984,107.04461,62,71,0
106.819984,107.04461,74,84,0
107.269226,107.42075,74,78,0
107.269226,107.42075,62,70,0
107.42075,107.57228,74,73,0
107.42075,107.57228,62,65,0
107.57228,107.7238,74,73,0
107.57228,107.7238,62,65,0
107.7238,108.32129,74,78,0
107.7238,108.32129,62,70,0
108.32129,108.43494,74,72,0
108.32129,108.43494,62,64,0
108.47282,108.586464,74,72,0
108.47282,108.586464,62,64,0
108.624344,109.22217,74,78,0
108.624344,109.22217,62,70,0
109.22217,109.3336,74,72,0
109.22217,109.3336,62,64,0
109.37074,109.48218,74,72,0
109.37074,109.48218,62,64,0
109.519325,110.216995,74,78,0
109.519325,110.216995,62,70,0
110.216995,110.68648,74,75,0
110.216995,110.68648,62,67,0
110.68648,110.80385,74,76,0
110.68648,110.80385,62,68,0
111.07215,111.185356,79,75,0
111.07215,111.185356,67,67,0
111.22308,111.33628,79,75,0
111.22308,111.33628,67,67,0
111.374016,111.96098,79,83,0
111.374016,111.96098,67,74,0
111.96098,112.07198,79,75,0
111.96098,112.07198,67,67,0
112.108986,112.21999,79,75,0
112.108986,112.21999,67,67,0
112.256996,112.922325,79,78,0
112.256996,112.922325,67,70,0
112.922325,113.37426,79,78,0
112.922325,113.37426,67,70,0
113.37426,113.49163,79,76,0
113.37426,113.49163,67,68,0
113.609,113.72637,86,97,0
113.609,113.72637,78,87,0
113.609,113.72637,74,87,0
113.84374,113.96111,86,88,0
113.84374,113.96111,79,79,0
113.84374,113.96111,74,79,0
114.07848,114.31323,86,94,0
114.07848,114.31323,78,84,0
114.07848,114.31323,74,84,0
114.54797,115.15444,67,80,0
114.54797,115.15444,59,72,0
115.15444,115.258606,67,75,0
115.15444,115.258606,59,67,0
115.29333,115.405205,67,75,0
115.29333,115.405205,59,67,0
115.4425,116.024635,67,81,0
115.4425,116.024635,59,72,0
116.024635,116.12953,67,75,0
116.024635,116.12953,59,67,0
116.1645,116.269394,67,74,0
116.1645,116.269394,59,66,0
116.30436,116.97825,67,80,0
116.30436,116.97825,59,72,0
116.97825,117.09326,67,66,0
116.97825,117.09326,71,74,0
117.208275,117.32147,72,80,0
117.208275,117.32147,69,72,0
117.43467,117.54968,71,74,0
117.43467,117.54968,67,66,0
117.664696,117.7779,69,72,0
117.664696,117.7779,72,80,0
117.8911,118.004295,69,79,0
117.8911,118.004295,62,71,0
118.11749,118.715096,71,72,0
118.11749,118.715096,74,80,0
118.715096,118.81962,74,75,0
118.715096,118.81962,71,67,0
118.85446,118.9659,74,75,0
118.85446,118.9659,71,67,0
119.003044,119.58061,74,81,0
119.003044,119.58061,71,72,0
119.58061,119.688225,74,75,0
119.58061,119.688225,71,67,0
119.72566,119.837975,74,74,0
119.72566,119.837975,71,66,0
119.87541,119.98728,72,72,0
119.87541,119.98728,76,80,0
120.09916,120.21103,74,77,0
120.09916,120.21103,71,69,0
120.32291,120.437,72,77,0
120.32291,120.437,69,69,0
120.551094,120.668465,71,75,0
120.551094,120.668465,68,75,0
120.551094,120.668465,64,67,0
120.785835,120.90178,69,82,0
120.785835,120.90178,64,73,0
121.01773,121.13559,71,77,0
121.01773,121.13559,68,69,0
121.01773,121.13559,64,69,0
121.25345,121.36986,72,82,0
121.25345,121.36986,69,73,0
121.25345,121.36986,64,67,0
121.721016,121.83326,78,72,0
121.721016,121.83326,74,64,0
121.9455,122.06051,76,66,0
121.9455,122.06051,73,59,0
122.17551,122.28866,74,71,0
122.17551,122.28866,71,63,0
122.4018,122.51681,73,67,0
122.4018,122.51681,70,67,0
122.4018,122.51681,66,60,0
122.63181,122.74588,71,69,0
122.63181,122.74588,66,62,0
122.85995,122.97544,73,64,0
122.85995,122.97544,70,64,0
122.85995,122.97544,66,57,0
123.090935,123.205,74,67,0
123.090935,123.205,71,67,0
123.090935,123.205,66,60,0
123.54908,123.66008,80,72,0
123.54908,123.66008,76,64,0
123.77109,123.884285,78,66,0
123.77109,123.884285,75,59,0
123.99748,124.10936,76,71,0
123.99748,124.10936,73,63,0
124.22123,124.33488,75,67,0
124.22123,124.33488,72,67,0
124.22123,124.33488,68,60,0
124.448524,124.55995,73,69,0
124.448524,124.55995,68,62,0
124.67139,124.784584,75,64,0
124.67139,124.784584,72,64,0
124.67139,124.784584,68,57,0
124.89779,125.01054,76,67,0
124.89779,125.01054,73,67,0
124.89779,125.01054,68,60,0
125.35329,125.57616,81,61,0
125.35329,125.57616,78,54,0
125.57616,125.79902,79,55,0
125.57616,125.79902,76,49,0
125.79902,126.01848,78,60,0
125.79902,126.01848,74,54,0
126.01848,126.23627,76,56,0
126.01848,126.23627,69,50,0
126.23627,126.457405,81,61,0
126.23627,126.457405,78,54,0
126.457405,126.67855,79,55,0
126.457405,126.67855,76,49,0
126.67855,126.89716,78,60,0
126.67855,126.89716,74,54,0
126.89716,127.120026,76,58,0
126.89716,127.120026,69,52,0
127.120026,127.337814,81,62,0
127.120026,127.337814,78,55,0
127.337814,127.558105,79,57,0
127.337814,127.558105,76,51,0
127.558105,127.778404,78,63,0
127.558105,127.778404,74,56,0
127.778404,128.00215,76,59,0
127.778404,128.00215,69,53,0
128.00215,128.21912,81,63,0
128.00215,128.21912,78,56,0
128.21912,128.43942,79,59,0
128.21912,128.43942,76,53,0
128.43942,128.65971,78,63,0
128.43942,128.65971,74,56,0
128.65971,128.88345,76,61,0
128.65971,128.88345,69,54,0
128.88345,129.0996,86,69,0
128.88345,129.0996,83,62,0
129.0996,129.31573,84,63,0
129.0996,129.31573,81,56,0
129.31573,129.53603,83,68,0
129.31573,129.53603,79,61,0
129.53603,129.76065,81,63,0
129.53603,129.76065,74,56,0
129.76065,129.97598,86,71,0
129.76065,129.97598,83,63,0
129.97598,130.19131,84,64,0
129.97598,130.19131,81,57,0
130.19131,130.4091,83,69,0
130.19131,130.4091,79,62,0
130.4091,130.63196,81,66,0
130.4091,130.63196,74,59,0
130.63196,130.84648,86,72,0
130.63196,130.84648,83,64,0
130.84648,131.06099,84,65,0
130.84648,131.06099,81,58,0
131.06099,131.2796,83,71,0
131.06099,131.2796,79,63,0
131.2796,131.49493,81,68,0
131.2796,131.49493,74,61,0
131.49493,131.71107,86,73,0
131.49493,131.71107,83,65,0
131.71107,131.92969,84,68,0
131.71107,131.92969,81,61,0
131.92969,132.1483,83,72,0
131.92969,132.1483,79,64,0
132.1483,132.3747,81,70,0
132.1483,132.3747,74,70,0
132.3747,132.98264,79,92,0
132.3747,132.98264,71,82,0
132.3747,132.98264,67,82,0
132.98264,133.08789,79,86,0
132.98264,133.08789,71,77,0
132.98264,133.08789,67,77,0
133.12299,133.23485,79,86,0
133.12299,133.23485,71,77,0
133.12299,133.23485,67,77,0
133.27214,133.84923,79,93,0
133.27214,133.84923,71,83,0
133.27214,133.84923,67,83,0
133.84923,133.95412,79,86,0
133.84923,133.95412,71,77,0
133.84923,133.95412,67,77,0
133.98909,134.09398,79,85,0
133.98909,134.09398,71,76,0
133.98909,134.09398,67,76,0
134.12895,134.78996,79,92,0
134.12895,134.78996,71,82,0
134.12895,134.78996,67,82,0
134.78996,135.01546,79,82,0
134.78996,135.01546,83,82,0
134.78996,135.01546,71,73,0
135.01546,135.23051,84,87,0
135.01546,135.23051,81,87,0
135.01546,135.23051,72,78,0
135.23051,135.45558,83,85,0
135.23051,135.45558,79,85,0
135.23051,135.45558,71,76,0
135.45558,135.67671,81,87,0
135.45558,135.67671,84,87,0
135.45558,135.67671,72,78,0
135.67671,135.904,81,81,0
135.67671,135.904,74,81,0
135.67671,135.904,69,72,0
135.904,136.50209,83,101,0
135.904,136.50209,86,101,0
135.904,136.50209,74,90,0
136.50209,136.607,86,94,0
136.50209,136.607,83,94,0
136.50209,136.607,74,84,0
136.64195,136.75339,86,94,0
136.64195,136.75339,83,94,0
136.64195,136.75339,74,84,0
136.79053,137.3681,86,102,0
136.79053,137.3681,83,102,0
136.79053,137.3681,74,91,0
137.3681,137.47572,86,94,0
137.3681,137.47572,83,94,0
137.3681,137.47572,74,84,0
137.51315,137.62546,86,93,0
137.51315,137.62546,83,93,0
137.51315,137.62546,74,83,0
137.6629,137.77477,84,93,0
137.6629,137.77477,88,93,0
137.6629,137.77477,76,83,0
137.88664,137.99852,86,86,0
137.88664,137.99852,83,86,0
137.88664,137.99852,74,77,0
138.1104,138.22449,84,91,0
138.1104,138.22449,81,91,0
138.1104,138.22449,72,81,0
138.33858,138.45595,83,85,0
138.33858,138.45595,71,76,0
138.33858,138.45595,74,85,0
138.33858,138.45595,79,85,0
138.57332,138.69069,81,94,0
138.57332,138.69069,69,84,0
138.57332,138.69069,74,84,0
138.57332,138.69069,78,94,0
138.80806,138.92543,83,89,0
138.80806,138.92543,71,80,0
138.80806,138.92543,74,80,0
138.80806,138.92543,79,89,0
139.0428,139.16017,81,94,0
139.0428,139.16017,69,77,0
139.0428,139.16017,74,77,0
139.0428,139.16017,78,94,0
139.51228,140.12172,79,92,0
139.51228,140.12172,71,82,0
139.51228,140.12172,67,82,0
140.12172,140.2281,79,86,0
140.12172,140.2281,71,77,0
140.12172,140.2281,67,77,0
140.26357,140.37543,79,86,0
140.26357,140.37543,71,77,0
140.26357,140.37543,67,77,0
140.41272,140.99179,79,93,0
140.41272,140.99179,71,83,0
140.41272,140.99179,67,83,0
140.99179,141.09818,79,86,0
140.99179,141.09818,71,77,0
140.99179,141.09818,67,77,0
141.13364,141.24002,79,85,0
141.13364,141.24002,71,76,0
141.13364,141.24002,67,76,0
141.27548,141.9365,79,92,0
141.27548,141.9365,71,82,0
141.27548,141.9365,67,82,0
141.9365,142.16112,79,82,0
141.9365,142.16112,83,82,0
141.9365,142.16112,71,73,0
142.16112,142.37616,84,87,0
142.16112,142.37616,81,87,0
142.16112,142.37616,72,78,0
142.37616,142.60078,83,85,0
142.37616,142.60078,80,85,0
142.37616,142.60078,71,76,0
142.60078,142.71051,81,87,0
142.60078,142.71051,84,87,0
142.60078,142.71051,72,78,0
142.82024,142.93256,81,81,0
142.82024,142.93256,74,81,0
142.82024,142.93256,69,72,0
143.04486,143.70932,86,96,0
143.04486,143.70932,74,82,0
143.70932,143.93134,84,82,0
143.70932,143.93134,72,73,0
143.04486,143.93134,79,87,0
143.93134,144.15079,83,87,0
143.93134,144.15079,79,87,0
143.93134,144.15079,71,78,0
144.15079,144.37454,84,85,0
144.15079,144.37454,81,85,0
144.15079,144.37454,72,76,0
144.37454,144.48384,83,87,0
144.37454,144.48384,86,87,0
144.37454,144.48384,74,78,0
144.59315,144.70502,83,81,0
144.59315,144.70502,79,81,0
144.59315,144.70502,71,72,0
144.8169,145.483,91,96,0
144.8169,145.483,84,87,0
144.8169,145.483,79,82,0
145.483,145.59294,90,77,0
145.483,145.59294,78,69,0
145.483,145.59294,84,69,0
145.70288,145.81068,88,82,0
145.70288,145.81068,84,82,0
145.70288,145.81068,76,74,0
145.91849,146.0293,90,80,0
145.91849,146.0293,86,80,0
145.91849,146.0293,78,72,0
146.1401,146.24791,84,82,0
146.1401,146.24791,88,82,0
146.1401,146.24791,76,74,0
146.35571,146.46652,86,76,0
146.35571,146.46652,83,76,0
146.35571,146.46652,74,68,0
146.57733,146.6864,84,81,0
146.57733,146.6864,81,81,0
146.57733,146.6864,72,73,0
146.79547,146.90456,74,66,0
146.79547,146.90456,86,74,0
146.79547,146.90456,83,74,0
147.01363,147.12021,84,79,0
147.01363,147.12021,81,79,0
147.01363,147.12021,72,71,0
147.22679,147.33673,83,72,0
147.22679,147.33673,71,64,0
147.22679,147.33673,79,72,0
147.44666,147.55447,81,77,0
147.44666,147.55447,78,77,0
147.44666,147.55447,69,69,0
147.66228,147.77309,83,74,0
147.66228,147.77309,79,74,0
147.66228,147.77309,71,66,0
147.88388,147.9917,78,77,0
147.88388,147.9917,81,77,0
147.88388,147.9917,69,69,0
148.0995,148.21031,79,73,0
148.0995,148.21031,76,73,0
148.0995,148.21031,67,65,0
148.3211,148.43019,78,81,0
148.3211,148.43019,74,81,0
148.3211,148.43019,66,73,0
148.53926,148.64833,67,66,0
148.53926,148.64833,79,74,0
148.53926,148.64833,76,74,0
148.75742,148.864,78,79,0
148.75742,148.864,74,79,0
148.75742,148.864,66,71,0
148.97057,149.0805,76,72,0
148.97057,149.0805,64,64,0
148.97057,149.0805,72,72,0
149.19044,149.29825,74,73,0
149.19044,149.29825,71,73,0
149.19044,149.29825,62,65,0
149.40605,149.51686,72,70,0
149.40605,149.51686,76,70,0
149.40605,149.51686,64,62,0
149.62767,149.73547,71,73,0
149.62767,149.73547,74,73,0
149.62767,149.73547,62,65,0
149.84328,149.95409,72,69,0
149.84328,149.95409,69,69,0
149.84328,149.95409,64,61,0
150.0649,150.67484,71,73,0
150.0649,150.67484,67,65,0
150.67484,150.78159,71,68,0
150.67484,150.78159,67,61,0
150.67484,150.78159,59,61,0
150.81718,150.92905,71,68,0
150.81718,150.92905,67,61,0
150.81718,150.92905,59,61,0
150.96634,151.54541,71,70,0
150.96634,151.54541,67,62,0
150.96634,151.54541,59,62,0
151.54541,151.6518,71,68,0
151.54541,151.6518,67,61,0
151.54541,151.6518,59,61,0
151.68726,151.79364,71,68,0
151.68726,151.79364,67,60,0
151.68726,151.79364,59,60,0
151.8291,152.2766,71,69,0
151.8291,152.2766,67,61,0
151.8291,152.2766,59,61,0
152.49356,152.71817,67,65,0
152.49356,152.71817,74,65,0
152.49356,152.71817,62,58,0
152.71817,152.93513,76,69,0
152.71817,152.93513,67,62,0
152.71817,152.93513,64,62,0
152.71817,152.93513,73,69,0
152.93513,153.15628,74,68,0
152.93513,153.15628,62,60,0
153.15628,153.37325,72,69,0
153.15628,153.37325,76,69,0
153.15628,153.37325,64,62,0
153.37325,153.59787,78,64,0
153.37325,153.59787,66,57,0
153.59787,153.82248,79,69,0
153.59787,153.82248,71,62,0
153.59787,153.82248,67,62,0
154.19048,154.298,83,74,0
154.19048,154.298,79,67,0
154.19048,154.298,71,67,0
154.33385,154.44571,83,74,0
154.33385,154.44571,79,67,0
154.33385,154.44571,71,67,0
154.483,155.06157,83,77,0
154.483,155.06157,79,68,0
154.483,155.06157,71,68,0
155.06157,155.16757,83,74,0
155.06157,155.16757,79,67,0
155.06157,155.16757,71,67,0
155.20291,155.30891,83,74,0
155.20291,155.30891,79,66,0
155.20291,155.30891,71,66,0
155.34425,155.79175,83,75,0
155.34425,155.79175,79,67,0
155.34425,155.79175,71,67,0
156.00871,156.23334,79,81,0
156.00871,156.23334,86,81,0
156.00871,156.23334,74,72,0
156.23334,156.4503,88,85,0
156.23334,156.4503,79,78,0
156.23334,156.4503,76,78,0
156.23334,156.4503,85,85,0
156.4503,156.67232,86,84,0
156.4503,156.67232,74,75,0
156.67232,156.89009,84,85,0
156.67232,156.89009,88,85,0
156.67232,156.89009,76,78,0
156.89009,157.11472,90,80,0
156.89009,157.11472,84,71,0
156.89009,157.11472,86,80,0
156.89009,157.11472,78,71,0
157.11472,157.33934,91,85,0
157.11472,157.33934,86,78,0
157.11472,157.33934,79,78,0
157.11472,157.33934,83,78,0
157.56395,157.67244,86,83,0
157.56395,157.67244,74,74,0
157.7086,157.81667,88,83,0
157.7086,157.81667,76,74,0
157.85269,157.96036,90,84,0
157.85269,157.96036,78,75,0
157.99611,158.21898,91,85,0
157.99611,158.21898,79,77,0
158.44183,158.55032,86,83,0
158.44183,158.55032,74,74,0
158.58649,158.69455,88,83,0
158.58649,158.69455,76,74,0
158.73058,158.83824,90,84,0
158.73058,158.83824,78,75,0
158.874,159.114,91,85,0
158.874,159.114,79,77,0
159.35399,159.63568,79,79,0
159.35399,159.63568,67,71,0
159.35399,159.63568,71,71,0
159.35399,159.63568,74,71,0
159.91737,161.40805,67,88,0
159.91737,161.40805,62,79,0
159.91737,161.40805,59,79,0
3.818312,4.424782,47,61,0
3.818312,4.424782,55,68,0
4.424782,4.528949,55,63,0
4.424782,4.528949,47,56,0
4.563671,4.6755443,47,56,0
4.563671,4.6755443,55,63,0
4.712836,5.2962255,55,69,0
4.712836,5.2962255,47,62,0
5.2962255,5.400755,55,63,0
5.2962255,5.400755,47,56,0
5.435598,5.5401273,47,55,0
5.435598,5.5401273,55,62,0
5.5749707,6.2506537,55,68,0
5.5749707,6.2506537,47,61,0
6.2506537,6.368025,55,55,0
6.2506537,6.368025,59,62,0
6.4853954,6.6027665,60,68,0
6.4853954,6.6027665,57,61,0
6.7201376,6.8375087,55,55,0
6.7201376,6.8375087,59,62,0
6.9548798,7.072251,57,61,0
6.9548798,7.072251,60,68,0
7.1896214,7.3069925,57,67,0
7.1896214,7.3069925,50,60,0
7.4243636,8.022449,62,68,0
7.4243636,8.022449,59,61,0
8.022449,8.127344,59,56,0
8.022449,8.127344,62,63,0
8.162309,8.273742,62,63,0
8.162309,8.273742,59,56,0
8.310886,8.894276,62,69,0
8.310886,8.894276,59,62,0
8.894276,9.001398,59,56,0
8.894276,9.001398,62,63,0
9.038835,9.151144,62,62,0
9.038835,9.151144,59,55,0
9.18858,9.300453,60,61,0
9.18858,9.300453,64,68,0
9.412327,9.5242,62,61,0
9.412327,9.5242,59,54,0
9.636074,9.750169,60,65,0
9.636074,9.750169,57,58,0
9.864263,9.981634,59,59,0
9.864263,9.981634,55,53,0
10.099005,10.216376,50,71,0
10.099005,10.216376,57,79,0
10.333747,10.451118,55,66,0
10.333747,10.451118,59,74,0
10.568489,10.803231,57,79,0
10.568489,10.803231,50,71,0
11.505554,12.37672,63,72,0
11.505554,12.37672,51,64,0
12.37672,12.796301,62,70,0
12.37672,12.796301,50,63,0
13.243794,14.156643,51,64,0
13.243794,14.156643,63,72,0
14.156643,14.609439,62,69,0
14.156643,14.609439,50,62,0
15.067663,15.495961,55,61,0
15.067663,15.495961,67,68,0
15.495961,15.933183,54,64,0
15.495961,15.933183,66,72,0
15.933183,16.368328,53,62,0
15.933183,16.368328,65,69,0
16.368328,17.04401,64,72,0
16.368328,17.04401,52,64,0
17.04401,17.16138,62,60,0
17.04401,17.16138,52,54,0
17.04401,17.16138,50,54,0
17.278753,17.3947,48,59,0
17.278753,17.3947,60,66,0
17.278753,17.3947,52,59,0
17.510645,17.628506,47,51,0
17.510645,17.628506,59,57,0
17.510645,17.628506,52,51,0
17.746365,17.86278,45,54,0
17.746365,17.86278,57,60,0
17.746365,17.86278,52,54,0
17.979195,18.096565,43,49,0
17.979195,18.096565,55,55,0
18.213936,18.326178,42,54,0
18.213936,18.326178,54,60,0
18.894724,19.009727,64,57,0
18.894724,19.009727,52,51,0
19.124731,19.2388,62,60,0
19.124731,19.2388,50,54,0
19.352869,19.46836,61,56,0
19.352869,19.46836,49,50,0
19.58385,19.69792,59,59,0
19.58385,19.69792,47,53,0
19.811989,19.926992,57,56,0
19.811989,19.926992,45,50,0
20.041998,20.153002,44,54,0
20.041998,20.153002,56,60,0
20.714151,20.827795,66,57,0
20.714151,20.827795,54,51,0
20.94144,21.052874,52,54,0
20.94144,21.052874,64,60,0
20.94144,21.052874,56,54,0
21.164307,21.277506,56,51,0
21.164307,21.277506,63,56,0
21.164307,21.277506,51,50,0
21.390705,21.503452,56,53,0
21.390705,21.503452,61,59,0
21.390705,21.503452,49,53,0
21.616201,21.731205,59,56,0
21.616201,21.731205,47,50,0
21.846209,22.29194,57,60,0
21.846209,22.29194,45,54,0
22.29194,22.729185,47,50,0
22.29194,22.729185,57,56,0
22.29194,22.729185,59,56,0
22.729185,23.390078,48,54,0
22.729185,23.390078,60,60,0
22.729185,23.390078,57,60,0
23.390078,23.612944,57,57,0
23.390078,23.612944,61,57,0
23.390078,23.612944,49,51,0
23.612944,24.051027,57,62,0
23.612944,24.051027,45,55,0
24.051027,24.495071,47,52,0
24.051027,24.495071,57,58,0
24.051027,24.495071,59,58,0
24.495071,25.15263,48,55,0
24.495071,25.15263,60,62,0
24.495071,25.15263,57,62,0
25.15263,25.376377,61,60,0
25.15263,25.376377,57,60,0
25.15263,25.376377,49,54,0
25.376377,25.808655,62,69,0
25.376377,25.808655,50,62,0
25.808655,26.253569,52,56,0
25.808655,26.253569,62,63,0
25.808655,26.253569,64,63,0
26.253569,26.902018,65,69,0
26.253569,26.902018,53,62,0
26.253569,26.902018,62,69,0
26.902018,27.124884,66,65,0
26.902018,27.124884,62,65,0
26.902018,27.124884,54,58,0
27.124884,27.553915,50,63,0
27.124884,27.553915,62,71,0
27.553915,27.987858,52,59,0
27.553915,27.987858,62,66,0
27.553915,27.987858,64,66,0
27.987858,28.641218,53,65,0
27.987858,28.641218,65,73,0
27.987858,28.641218,62,73,0
28.641218,28.867617,66,68,0
28.641218,28.867617,62,68,0
28.641218,28.867617,54,61,0
28.867617,29.335197,55,79,0
29.335197,30.203274,53,71,0
29.335197,30.203274,65,79,0
29.335197,30.203274,55,71,0
30.203274,31.0763,64,77,0
30.203274,31.0763,52,69,0
30.203274,31.0763,55,69,0
31.0763,31.961523,55,71,0
31.0763,31.961523,63,79,0
31.0763,31.961523,51,71,0
31.961523,32.409954,50,67,0
31.961523,32.409954,62,75,0
31.961523,32.409954,54,67,0
32.409954,32.86818,38,66,0
32.409954,32.86818,50,74,0
32.86818,33.298447,50,74,0
32.86818,33.298447,40,66,0
32.86818,33.298447,52,74,0
33.298447,33.73567,50,79,0
33.298447,33.73567,42,71,0
33.298447,33.73567,54,79,0
33.73567,34.171555,55,75,0
33.73567,34.171555,43,67,0
33.73567,34.171555,50,75,0
34.3953,34.507175,43,64,0
34.3953,34.507175,55,72,0
34.3953,34.507175,50,64,0
34.61905,34.733143,45,66,0
34.61905,34.733143,57,74,0
34.61905,34.733143,50,66,0
34.847237,34.964607,50,59,0
34.847237,34.964607,59,66,0
34.847237,34.964607,47,59,0
35.081978,35.19935,54,70,0
35.081978,35.19935,57,78,0
35.081978,35.19935,50,70,0
35.081978,35.19935,62,78,0
35.31672,35.434093,59,73,0
35.31672,35.434093,62,73,0
35.31672,35.434093,55,65,0
35.551464,35.668835,62,76,0
35.551464,35.668835,50,68,0
35.551464,35.668835,57,76,0
35.551464,35.668835,54,68,0
36.020947,36.48853,55,79,0
36.48853,37.3586,55,71,0
36.48853,37.3586,53,71,0
36.48853,37.3586,65,79,0
37.3586,38.230125,55,69,0
37.3586,38.230125,64,77,0
37.3586,38.230125,52,69,0
38.230125,38.67171,55,71,0
38.230125,38.67171,63,79,0
38.230125,38.67171,51,71,0
38.67171,39.334396,50,67,0
38.67171,39.334396,62,75,0
38.67171,39.334396,54,67,0
39.334396,39.446705,60,68,0
39.334396,39.446705,54,61,0
39.334396,39.446705,48,61,0
39.559013,39.78276,50,64,0
39.559013,39.78276,47,64,0
39.559013,39.78276,55,72,0
39.559013,39.78276,59,72,0
39.78276,40.006508,60,67,0
39.78276,40.006508,48,60,0
40.006508,40.223476,47,64,0
40.006508,40.223476,59,72,0
40.223476,40.445484,57,67,0
40.223476,40.445484,45,60,0
40.445484,41.1073,55,71,0
40.445484,41.1073,43,63,0
41.1073,41.219173,41,60,0
41.1073,41.219173,53,67,0
40.445484,41.331047,50,71,0
41.331047,41.44292,52,72,0
41.331047,41.44292,40,64,0
41.554794,41.666668,42,60,0
41.554794,41.666668,54,67,0
41.77854,41.887848,52,72,0
41.77854,41.887848,40,64,0
41.997154,42.10709,50,70,0
41.997154,42.10709,38,63,0
42.21703,42.869865,36,66,0
42.21703,42.869865,48,74,0
42.869865,42.98067,50,65,0
42.869865,42.98067,38,65,0
43.09148,43.74094,51,70,0
43.09148,43.74094,39,70,0
43.74094,43.850876,52,64,0
43.74094,43.850876,40,64,0
43.960815,44.61365,54,71,0
43.960815,44.61365,42,71,0
44.61365,44.724457,43,65,0
44.61365,44.724457,55,65,0
44.835266,45.484726,57,70,0
44.835266,45.484726,45,70,0
45.484726,45.59466,58,64,0
45.484726,45.59466,46,64,0
45.7046,46.357437,59,67,0
45.7046,46.357437,47,67,0
46.357437,46.468243,60,60,0
46.357437,46.468243,48,60,0
46.579052,47.046635,50,63,0
46.579052,47.046635,62,63,0
47.046635,47.480495,51,56,0
47.046635,47.480495,63,63,0
47.480495,47.917717,62,63,0
47.480495,47.917717,50,63,0
47.917717,48.340252,63,61,0
47.917717,48.340252,51,55,0
48.340252,48.787746,50,63,0
48.340252,48.787746,62,63,0
48.787746,49.229332,59,63,0
48.787746,49.229332,47,56,0
49.229332,49.66744,58,60,0
49.229332,49.66744,46,53,0
49.66744,50.109024,57,54,0
49.66744,50.109024,45,48,0
50.109024,50.33364,55,60,0
50.109024,50.33364,43,54,0
50.55826,50.994164,63,66,0
50.55826,50.994164,51,58,0
50.994164,51.431385,50,66,0
50.994164,51.431385,62,66,0
51.431385,51.85692,63,64,0
51.431385,51.85692,51,57,0
51.85692,52.304413,50,66,0
51.85692,52.304413,62,66,0
52.304413,52.745995,59,66,0
52.304413,52.745995,47,58,0
52.745995,53.18497,58,63,0
52.745995,53.18497,46,55,0
53.18497,53.627377,57,56,0
53.18497,53.627377,45,50,0
53.627377,53.851994,55,63,0
53.627377,53.851994,43,56,0
54.07661,54.508766,50,53,0
54.07661,54.508766,47,53,0
54.07661,54.508766,54,53,0
54.07661,54.508766,62,59,0
54.508766,54.6202,59,56,0
54.508766,54.6202,62,63,0
54.508766,54.6202,55,56,0
54.9545,55.386654,47,53,0
54.9545,55.386654,50,53,0
54.9545,55.386654,54,53,0
54.9545,55.386654,62,59,0
55.386654,55.49596,55,56,0
55.386654,55.49596,62,63,0
55.386654,55.49596,59,56,0
55.823875,56.2617,50,53,0
55.823875,56.2617,47,53,0
55.823875,56.2617,54,53,0
55.823875,56.2617,62,59,0
56.2617,56.484566,62,63,0
56.2617,56.484566,59,56,0
56.2617,56.484566,55,56,0
56.70743,56.928295,62,39,0
56.70743,56.928295,59,35,0
57.578648,57.801514,57,31,0
57.578648,57.801514,63,35,0
57.578648,57.801514,59,31,0
58.47011,58.690556,55,31,0
58.47011,58.690556,64,35,0
58.47011,58.690556,60,31,0
59.342873,59.56574,57,30,0
59.342873,59.56574,64,34,0
59.342873,59.56574,60,30,0
59.342873,59.56574,54,30,0
60.240585,60.46145,63,39,0
60.240585,60.46145,59,35,0
61.113327,61.336193,47,28,0
61.113327,61.336193,57,32,0
61.113327,61.336193,45,28,0
62.00479,62.225235,43,27,0
62.00479,62.225235,55,31,0
62.00479,62.225235,48,27,0
62.87909,63.101955,42,29,0
62.87909,63.101955,48,29,0
62.87909,63.101955,54,33,0
63.776802,63.997665,47,31,0
63.776802,63.997665,59,35,0
63.776802,63.997665,54,31,0
64.65989,64.88275,63,35,0
64.65989,64.88275,59,31,0
64.65989,64.88275,57,31,0
65.55135,65.7718,60,31,0
65.55135,65.7718,64,35,0
65.55135,65.7718,55,31,0
66.42412,66.64698,64,34,0
66.42412,66.64698,60,30,0
66.42412,66.64698,57,30,0
66.42412,66.64698,54,30,0
67.32182,67.54269,59,35,0
67.32182,67.54269,63,39,0
68.20659,68.42946,57,32,0
68.20659,68.42946,47,28,0
68.20659,68.42946,45,28,0
69.09805,69.3185,48,27,0
69.09805,69.3185,55,31,0
69.09805,69.3185,43,27,0
69.982834,70.2057,48,29,0
69.982834,70.2057,42,29,0
69.982834,70.2057,54,33,0
70.88055,71.10141,47,33,0
70.88055,71.10141,59,37,0
70.88055,71.10141,54,33,0
71.75483,72.20056,57,41,0
71.75483,72.20056,54,41,0
71.75483,72.20056,45,36,0
72.20056,72.42342,56,49,0
72.20056,72.42342,44,44,0
72.64629,72.72029,44,57,0
72.7943,72.8683,43,52,0
72.94231,73.016304,44,52,0
73.09031,73.164314,46,59,0
73.23831,73.31232,44,53,0
73.38632,73.46032,46,53,0
73.534325,73.60861,48,59,0
73.68291,73.757195,46,55,0
73.83148,73.90577,48,55,0
73.98006,74.203804,49,60,0
74.42755,74.648415,49,39,0
74.42755,74.648415,61,44,0
74.42755,74.648415,56,39,0
75.301834,75.74757,47,43,0
75.301834,75.74757,59,48,0
75.301834,75.74757,56,48,0
75.74757,75.97043,58,51,0
75.74757,75.97043,46,45,0
76.1933,76.26645,46,61,0
76.3396,76.41276,45,56,0
76.48591,76.55906,46,56,0
76.63221,76.705925,48,64,0
76.77964,76.853355,46,57,0
76.92707,77.00078,48,57,0
77.07449,77.1485,50,64,0
77.2225,77.2965,49,59,0
77.37051,77.44451,50,59,0
77.51851,77.74313,51,66,0
77.96775,78.18976,68,41,0
77.96775,78.18976,56,37,0
77.96775,78.18976,58,37,0
78.411766,78.63377,66,44,0
78.411766,78.63377,54,39,0
78.411766,78.63377,58,39,0
78.85578,79.07779,50,36,0
78.85578,79.07779,58,40,0
78.85578,79.07779,62,40,0
79.2998,79.521805,58,39,0
79.2998,79.521805,63,44,0
79.2998,79.521805,51,39,0
79.74381,79.96411,58,36,0
79.74381,79.96411,65,40,0
79.74381,79.96411,53,36,0
80.18441,80.40642,58,39,0
80.18441,80.40642,54,39,0
80.18441,80.40642,66,44,0
80.628426,80.85217,58,35,0
80.628426,80.85217,56,35,0
80.628426,80.85217,68,39,0
81.07592,81.30054,54,39,0
81.07592,81.30054,58,39,0
81.07592,81.30054,66,44,0
81.525154,81.679146,58,70,0
81.679146,81.83313,58,67,0
81.83313,81.98712,58,66,0
81.98712,82.44534,54,72,0
81.98712,82.44534,63,72,0
82.44534,82.901726,58,68,0
82.44534,82.901726,65,68,0
82.901726,83.367386,63,71,0
82.901726,83.367386,66,71,0
83.367386,83.5226,58,73,0
83.5226,83.67782,58,70,0
83.67782,83.83304,58,70,0
83.83304,84.29127,63,72,0
83.83304,84.29127,54,72,0
84.29127,84.74764,65,68,0
84.29127,84.74764,58,68,0
84.74764,85.2133,66,71,0
84.74764,85.2133,63,71,0
85.2133,85.43531,57,37,0
85.2133,85.43531,59,37,0
85.2133,85.43531,69,41,0
85.65732,85.879326,55,39,0
85.65732,85.879326,59,39,0
85.65732,85.879326,67,44,0
86.10133,86.32334,51,36,0
86.10133,86.32334,59,40,0
86.10133,86.32334,63,40,0
86.54535,86.76736,52,39,0
86.54535,86.76736,64,44,0
86.54535,86.76736,59,39,0
86.98937,87.20966,54,36,0
86.98937,87.20966,66,40,0
86.98937,87.20966,59,36,0
87.42996,87.65197,67,44,0
87.42996,87.65197,55,39,0
87.42996,87.65197,59,39,0
87.87398,88.097725,69,39,0
87.87398,88.097725,57,35,0
87.87398,88.097725,59,35,0
88.32147,88.54609,59,39,0
88.32147,88.54609,55,39,0
88.32147,88.54609,67,44,0
88.770706,88.9247,59,70,0
88.9247,89.07869,59,67,0
89.07869,89.23267,59,66,0
89.23267,89.6909,64,72,0
89.23267,89.6909,55,72,0
89.6909,90.14728,66,68,0
89.6909,90.14728,59,68,0
90.14728,90.61294,64,71,0
90.14728,90.61294,67,71,0
90.61294,90.76816,59,73,0
90.76816,90.92337,59,70,0
90.92337,91.07859,59,70,0
91.07859,91.53682,64,72,0
91.07859,91.53682,55,72,0
91.53682,91.993195,66,68,0
91.53682,91.993195,59,68,0
91.993195,92.458855,67,71,0
91.993195,92.458855,64,71,0
92.458855,92.68888,64,49,0
92.458855,92.68888,60,44,0
92.458855,92.68888,58,44,0
92.91891,93.147095,57,45,0
92.91891,93.147095,65,51,0
92.91891,93.147095,60,45,0
93.37528,93.60347,66,52,0
93.37528,93.60347,62,46,0
93.37528,93.60347,60,46,0
93.83107,94.05926,59,48,0
93.83107,94.05926,67,54,0
93.83107,94.05926,62,48,0
94.2867,94.513245,68,56,0
94.2867,94.513245,64,50,0
94.2867,94.513245,62,50,0
94.73904,94.96395,61,52,0
94.73904,94.96395,69,58,0
94.73904,94.96395,64,52,0
95.18857,95.413185,66,53,0
95.18857,95.413185,70,59,0
95.18857,95.413185,64,53,0
95.6378,95.86067,66,61,0
95.6378,95.86067,71,61,0
95.6378,95.86067,63,54,0
96.08296,96.30468,66,63,0
96.08296,96.30468,61,56,0
96.08296,96.30468,64,56,0
96.08296,96.30468,70,63,0
96.525826,96.746124,71,65,0
96.525826,96.746124,59,58,0
96.525826,96.746124,63,58,0
96.525826,96.746124,66,65,0
96.966415,97.186714,70,65,0
96.966415,97.186714,61,58,0
96.966415,97.186714,64,58,0
96.966415,97.186714,66,65,0
97.40701,97.63076,59,58,0
97.40701,97.63076,63,58,0
97.40701,97.63076,66,65,0
97.40701,97.63076,71,65,0
97.85451,98.07311,52,50,0
97.85451,98.07311,49,50,0
97.85451,98.07311,54,50,0
97.85451,98.07311,58,56,0
98.291725,98.51373,47,52,0
98.291725,98.51373,51,52,0
98.291725,98.51373,54,52,0
98.291725,98.51373,59,58,0
98.73574,98.95775,52,54,0
98.73574,98.95775,58,60,0
98.73574,98.95775,49,54,0
98.73574,98.95775,54,54,0
99.17976,99.40351,54,57,0
99.17976,99.40351,47,57,0
99.17976,99.40351,51,57,0
99.17976,99.40351,59,63,0
99.62726,99.853355,49,59,0
99.62726,99.853355,58,66,0
99.62726,99.853355,52,59,0
99.62726,99.853355,54,59,0
100.08386,100.19617,51,55,0
100.08386,100.19617,47,55,0
100.08386,100.19617,54,55,0
100.08386,100.19617,59,65,0
100.233604,100.34476,47,49,0
100.233604,100.34476,51,49,0
100.233604,100.34476,54,49,0
100.233604,100.34476,59,58,0
100.381615,100.495705,54,49,0
100.381615,100.495705,47,49,0
100.381615,100.495705,51,49,0
100.381615,100.495705,59,58,0
100.53374,100.758354,51,55,0
100.53374,100.758354,47,55,0
100.53374,100.758354,54,55,0
100.53374,100.758354,59,65,0
100.98298,101.09528,47,55,0
100.98298,101.09528,51,55,0
100.98298,101.09528,54,55,0
100.98298,101.09528,59,65,0
101.13272,101.24329,51,49,0
101.13272,101.24329,47,49,0
101.13272,101.24329,54,49,0
101.13272,101.24329,59,58,0
101.28015,101.39379,59,58,0
101.28015,101.39379,51,49,0
101.28015,101.39379,54,49,0
101.28015,101.39379,47,49,0
101.43167,101.656296,47,55,0
101.43167,101.656296,51,55,0
101.43167,101.656296,54,55,0
101.43167,101.656296,59,65,0
101.88091,101.99148,51,55,0
101.88091,101.99148,47,55,0
101.88091,101.99148,54,55,0
101.88091,101.99148,59,65,0
102.028336,102.13891,54,49,0
102.028336,102.13891,47,49,0
102.028336,102.13891,51,49,0
102.028336,102.13891,59,58,0
102.175766,102.28941,47,49,0
102.175766,102.28941,51,49,0
102.175766,102.28941,54,49,0
102.175766,102.28941,59,58,0
102.32729,102.55235,54,55,0
102.32729,102.55235,47,55,0
102.32729,102.55235,51,55,0
102.32729,102.55235,59,65,0
102.77697,102.88798,59,65,0
102.77697,102.88798,51,55,0
102.77697,102.88798,54,55,0
102.77697,102.88798,47,55,0
102.92498,103.03598,54,49,0
102.92498,103.03598,47,49,0
102.92498,103.03598,51,49,0
102.92498,103.03598,59,58,0
103.07298,103.18618,51,49,0
103.07298,103.18618,47,49,0
103.07298,103.18618,54,49,0
103.07298,103.18618,59,58,0
103.223915,103.44853,59,65,0
103.223915,103.44853,51,55,0
103.223915,103.44853,54,55,0
103.223915,103.44853,47,55,0
103.67315,103.82202,62,65,0
103.67315,103.82202,50,55,0
103.82202,103.9706,62,58,0
103.82202,103.9706,50,49,0
103.9706,104.12212,50,49,0
103.9706,104.12212,62,58,0
104.12212,104.34674,62,65,0
104.12212,104.34674,50,55,0
104.571365,104.71994,62,65,0
104.571365,104.71994,50,55,0
104.71994,104.868515,62,58,0
104.71994,104.868515,50,49,0
104.868515,105.020645,50,49,0
104.868515,105.020645,62,58,0
105.020645,105.24526,62,65,0
105.020645,105.24526,50,55,0
107.269226,107.86979,55,68,0
107.269226,107.86979,47,61,0
107.86979,107.97928,55,63,0
107.86979,107.97928,47,56,0
108.01578,108.13126,55,63,0
108.01578,108.13126,47,56,0
108.16976,108.773506,55,69,0
108.16976,108.773506,47,62,0
108.773506,108.88538,55,63,0
108.773506,108.88538,47,56,0
108.922676,109.034546,55,62,0
108.922676,109.034546,47,55,0
109.07184,109.74751,55,68,0
109.07184,109.74751,47,61,0
109.74751,109.86488,55,55,0
109.74751,109.86488,59,62,0
109.982254,110.099625,60,68,0
109.982254,110.099625,57,61,0
110.216995,110.334366,59,62,0
110.216995,110.334366,55,55,0
110.45174,110.56911,57,61,0
110.45174,110.56911,60,68,0
110.68648,110.80385,57,67,0
110.68648,110.80385,50,60,0
110.92122,111.51921,59,61,0
110.92122,111.51921,62,68,0
111.51921,111.6281,62,63,0
111.51921,111.6281,59,56,0
111.6644,111.77583,62,63,0
111.6644,111.77583,59,56,0
111.81297,112.401634,62,69,0
111.81297,112.401634,59,62,0
112.401634,112.5114,62,63,0
112.401634,112.5114,59,56,0
112.548836,112.66114,62,62,0
112.548836,112.66114,59,55,0
112.69858,112.810455,60,61,0
112.69858,112.810455,64,68,0
112.922325,113.034195,62,61,0
112.922325,113.034195,59,54,0
113.14607,113.26017,60,65,0
113.14607,113.26017,57,58,0
113.37426,113.49163,59,59,0
113.37426,113.49163,55,53,0
113.609,113.72637,57,79,0
113.609,113.72637,50,71,0
113.84374,113.96111,59,74,0
113.84374,113.96111,55,66,0
114.07848,114.31323,57,79,0
114.07848,114.31323,50,71,0
115.01555,115.88477,51,64,0
115.01555,115.88477,63,72,0
115.88477,116.30436,62,70,0
115.88477,116.30436,50,63,0
116.751854,117.664696,63,72,0
116.751854,117.664696,51,64,0
117.664696,118.11749,62,69,0
117.664696,118.11749,50,62,0
118.57572,119.003044,55,61,0
118.57572,119.003044,67,68,0
119.003044,119.44026,54,64,0
119.003044,119.44026,66,72,0
119.44026,119.87541,53,62,0
119.44026,119.87541,65,69,0
119.87541,120.551094,64,72,0
119.87541,120.551094,52,64,0
120.551094,120.668465,62,60,0
120.551094,120.668465,52,54,0
120.551094,120.668465,50,54,0
120.785835,120.90178,60,66,0
120.785835,120.90178,48,59,0
120.785835,120.90178,52,59,0
121.01773,121.13559,59,57,0
121.01773,121.13559,52,51,0
121.01773,121.13559,47,51,0
121.25345,121.36986,57,60,0
121.25345,121.36986,52,54,0
121.25345,121.36986,45,54,0
121.486275,121.603645,55,55,0
121.486275,121.603645,43,49,0
121.721016,121.83326,54,60,0
121.721016,121.83326,42,54,0
122.4018,122.51681,64,57,0
122.4018,122.51681,52,51,0
122.63181,122.74588,62,60,0
122.63181,122.74588,50,54,0
122.85995,122.97544,61,56,0
122.85995,122.97544,49,50,0
123.090935,123.205,59,59,0
123.090935,123.205,47,53,0
123.31907,123.434074,57,56,0
123.31907,123.434074,45,50,0
123.54908,123.66008,56,60,0
123.54908,123.66008,44,54,0
124.22123,124.33488,66,57,0
124.22123,124.33488,54,51,0
124.448524,124.55995,64,60,0
124.448524,124.55995,52,54,0
124.448524,124.55995,56,54,0
124.67139,124.784584,63,56,0
124.67139,124.784584,51,50,0
124.67139,124.784584,56,51,0
124.89779,125.01054,61,59,0
124.89779,125.01054,49,53,0
124.89779,125.01054,56,53,0
125.12328,125.23829,59,56,0
125.12328,125.23829,47,50,0
125.35329,125.79902,57,60,0
125.35329,125.79902,45,54,0
125.79902,126.23627,57,56,0
125.79902,126.23627,59,56,0
125.79902,126.23627,47,50,0
126.23627,126.89716,60,60,0
126.23627,126.89716,48,54,0
126.23627,126.89716,57,60,0
126.89716,127.120026,61,57,0
126.89716,127.120026,57,57,0
126.89716,127.120026,49,51,0
127.120026,127.558105,57,62,0
127.120026,127.558105,45,55,0
127.558105,128.00215,57,58,0
127.558105,128.00215,59,58,0
127.558105,128.00215,47,52,0
128.00215,128.65971,60,62,0
128.00215,128.65971,48,55,0
128.00215,128.65971,57,62,0
128.65971,128.88345,61,60,0
128.65971,128.88345,57,60,0
128.65971,128.88345,49,54,0
128.88345,129.31573,62,69,0
128.88345,129.31573,50,62,0
129.31573,129.76065,62,63,0
129.31573,129.76065,64,63,0
129.31573,129.76065,52,56,0
129.76065,130.4091,65,69,0
129.76065,130.4091,53,62,0
129.76065,130.4091,62,69,0
130.4091,130.63196,66,65,0
130.4091,130.63196,62,65,0
130.4091,130.63196,54,58,0
130.63196,131.06099,62,71,0
130.63196,131.06099,50,63,0
131.06099,131.49493,62,66,0
131.06099,131.49493,64,66,0
131.06099,131.49493,52,59,0
131.49493,132.1483,65,73,0
131.49493,132.1483,53,65,0
131.49493,132.1483,62,73,0
132.1483,132.3747,66,68,0
132.1483,132.3747,62,68,0
132.1483,132.3747,54,61,0
132.3747,132.84229,55,79,0
132.84229,133.70937,53,71,0
132.84229,133.70937,65,79,0
132.84229,133.70937,55,71,0
133.70937,134.57645,64,77,0
133.70937,134.57645,52,69,0
133.70937,134.57645,55,69,0
134.57645,135.45558,63,79,0
134.57645,135.45558,51,71,0
134.57645,135.45558,55,71,0
135.45558,135.904,62,75,0
135.45558,135.904,50,67,0
135.45558,135.904,54,67,0
135.904,136.36223,50,74,0
135.904,136.36223,38,66,0
136.36223,136.79053,40,66,0
136.36223,136.79053,52,74,0
136.36223,136.79053,50,74,0
136.79053,137.22775,42,71,0
136.79053,137.22775,54,79,0
136.79053,137.22775,50,79,0
137.22775,137.6629,43,67,0
137.22775,137.6629,55,75,0
137.22775,137.6629,50,75,0
137.88664,137.99852,55,72,0
137.88664,137.99852,50,64,0
137.88664,137.99852,43,64,0
138.1104,138.22449,57,74,0
138.1104,138.22449,50,66,0
138.1104,138.22449,45,66,0
138.33858,138.45595,59,66,0
138.33858,138.45595,50,59,0
138.33858,138.45595,47,59,0
138.57332,138.69069,62,78,0
138.57332,138.69069,54,70,0
138.57332,138.69069,57,78,0
138.57332,138.69069,50,70,0
138.80806,138.92543,62,73,0
138.80806,138.92543,59,73,0
138.80806,138.92543,55,65,0
139.0428,139.16017,62,76,0
139.0428,139.16017,54,68,0
139.0428,139.16017,50,68,0
139.0428,139.16017,57,76,0
139.51228,139.97987,55,79,0
139.97987,140.84995,53,71,0
139.97987,140.84995,65,79,0
139.97987,140.84995,55,71,0
140.84995,141.72298,64,77,0
140.84995,141.72298,52,69,0
140.84995,141.72298,55,69,0
141.72298,142.16112,63,79,0
141.72298,142.16112,51,71,0
141.72298,142.16112,55,71,0
142.16112,142.82024,62,75,0
142.16112,142.82024,54,67,0
142.16112,142.82024,50,67,0
142.82024,142.93256,60,68,0
142.82024,142.93256,54,61,0
142.82024,142.93256,48,61,0
143.04486,143.26862,59,72,0
143.04486,143.26862,47,64,0
143.04486,143.26862,50,64,0
143.04486,143.26862,55,72,0
143.26862,143.49236,60,67,0
143.26862,143.49236,48,60,0
143.49236,143.70932,59,72,0
143.49236,143.70932,47,64,0
143.70932,143.93134,57,67,0
143.70932,143.93134,45,60,0
143.93134,144.59315,55,71,0
143.93134,144.59315,43,63,0
144.59315,144.70502,53,67,0
144.59315,144.70502,41,60,0
143.93134,144.8169,50,71,0
144.8169,144.92877,52,72,0
144.8169,144.92877,40,64,0
145.04063,145.15251,54,67,0
145.04063,145.15251,42,60,0
145.26439,145.37369,52,72,0
145.26439,145.37369,40,64,0
145.483,145.59294,50,70,0
145.483,145.59294,38,63,0
145.70288,146.35571,48,74,0
145.70288,146.35571,36,66,0
146.35571,146.46652,50,65,0
146.35571,146.46652,38,65,0
146.57733,147.22679,51,70,0
146.57733,147.22679,39,70,0
147.22679,147.33673,52,64,0
147.22679,147.33673,40,64,0
147.44666,148.0995,54,71,0
147.44666,148.0995,42,71,0
148.0995,148.21031,55,65,0
148.0995,148.21031,43,65,0
148.3211,148.97057,57,70,0
148.3211,148.97057,45,70,0
148.97057,149.0805,58,64,0
148.97057,149.0805,46,64,0
149.19044,149.84328,59,67,0
149.19044,149.84328,47,67,0
149.84328,149.95409,60,60,0
149.84328,149.95409,48,60,0
150.0649,150.53249,62,63,0
150.0649,150.53249,50,63,0
150.53249,150.96634,63,63,0
150.53249,150.96634,51,56,0
150.96634,151.40356,62,63,0
150.96634,151.40356,50,63,0
151.40356,151.8291,63,61,0
151.40356,151.8291,51,55,0
151.8291,152.2766,62,63,0
151.8291,152.2766,50,63,0
152.2766,152.71817,59,63,0
152.2766,152.71817,47,56,0
152.71817,153.15628,58,60,0
152.71817,153.15628,46,53,0
153.15628,153.59787,57,54,0
153.15628,153.59787,45,48,0
153.59787,153.82248,55,60,0
153.59787,153.82248,43,54,0
154.0471,154.483,63,66,0
154.0471,154.483,51,58,0
154.483,154.92023,62,66,0
154.483,154.92023,50,66,0
154.92023,155.34425,63,64,0
154.92023,155.34425,51,57,0
155.34425,155.79175,62,66,0
155.34425,155.79175,50,66,0
155.79175,156.23334,59,66,0
155.79175,156.23334,47,58,0
156.23334,156.67232,58,69,0
156.23334,156.67232,46,60,0
156.67232,157.11472,57,61,0
156.67232,157.11472,45,55,0
157.11472,157.33934,55,69,0
157.11472,157.33934,43,61,0
157.56395,157.99611,62,64,0
157.56395,157.99611,47,58,0
157.56395,157.99611,50,58,0
157.56395,157.99611,54,58,0
157.99611,158.21898,62,69,0
157.99611,158.21898,59,61,0
157.99611,158.21898,55,61,0
158.44183,158.874,62,64,0
158.44183,158.874,47,58,0
158.44183,158.874,50,58,0
158.44183,158.874,54,58,0
158.874,159.114,62,69,0
158.874,159.114,59,61,0
158.874,159.114,55,61,0
159.35399,159.63568,62,68,0
159.35399,159.63568,59,61,0
159.35399,159.63568,55,61,0
159.91737,161.40805,55,73,0
159.91737,161.40805,50,65,0
159.91737,161.40805,43,65,0
