start_time,end_time,note_value,velocity,instrument_program_number
0.00125,0.62625,67,90,0
0.6,1.2245098,65,85,0
1.2,1.8122735,70,89,0
1.788235,2.1009684,72,87,0
2.0766964,2.3924682,77,73,0
2.3679585,2.9801168,74,86,0
2.9561934,3.2677848,72,85,0
3.243275,3.5623925,77,74,0
3.5373926,4.0998926,74,85,0
4.1373925,4.7623925,70,86,0
4.7373924,5.3623924,72,86,0
5.3373923,5.9637084,67,82,0
5.9373927,6.5294976,65,81,0
6.5689716,7.1689715,62,69,0
6.5689716,7.1689715,67,82,0
6.5689716,7.1689715,58,69,0
7.1689715,7.7689714,65,80,0
7.1689715,7.7689714,57,68,0
7.1689715,7.7689714,60,68,0
7.7689714,8.354338,70,80,0
7.7689714,8.354338,58,68,0
7.7689714,8.354338,62,68,0
8.354338,8.651367,72,82,0
8.651367,8.951367,77,78,0
8.354338,8.951367,69,69,0
8.354338,8.951367,60,69,0
8.951367,9.5425,65,68,0
8.951367,9.5425,74,81,0
8.951367,9.5425,69,68,0
9.5425,9.839529,72,81,0
9.839529,10.136559,77,77,0
9.5425,10.136559,69,68,0
9.5425,10.136559,60,68,0
10.136559,10.698564,74,84,0
10.136559,10.698564,65,71,0
10.136559,10.698564,70,71,0
10.736064,11.336064,70,78,0
10.736064,11.336064,62,66,0
10.736064,11.336064,67,66,0
11.336064,11.936064,72,77,0
11.336064,11.936064,64,65,0
11.336064,11.936064,67,65,0
11.936064,12.536064,55,59,0
11.936064,12.536064,67,70,0
11.936064,12.536064,60,59,0
12.536064,13.144173,60,56,0
12.536064,13.144173,57,56,0
12.536064,13.144173,65,66,0
13.184713,13.809713,65,92,0
13.784713,14.409713,67,88,0
14.384713,15.000856,62,83,0
14.976584,15.292478,65,86,0
15.267847,15.588044,67,74,0
15.563414,16.178701,60,80,0
16.154547,16.468792,67,80,0
16.4444,16.76221,69,72,0
16.737083,17.30241,65,79,0
17.3401,17.9401,77,84,0
17.3401,17.9401,72,71,0
17.3401,17.9401,65,71,0
17.3401,17.9401,69,71,0
17.9401,18.528334,74,82,0
17.9401,18.528334,62,69,0
17.9401,18.528334,65,69,0
18.528334,18.819597,60,68,0
18.528334,18.819597,72,80,0
18.819597,19.113714,58,62,0
18.819597,19.113714,70,74,0
18.528334,19.113714,65,68,0
19.113714,19.690638,65,79,0
19.7291,20.3541,65,92,0
20.3291,20.95373,67,88,0
20.929098,21.544504,62,85,0
21.520231,21.835884,65,86,0
21.811493,22.128807,67,77,0
22.104177,22.719582,63,85,0
22.69531,23.011202,70,94,0
22.986572,23.306768,72,78,0
23.282139,23.836325,68,81,0
23.873272,24.47327,80,84,0
23.873272,24.47327,68,71,0
23.873272,24.47327,72,71,0
23.873272,24.47327,75,71,0
24.47327,25.07327,65,68,0
24.47327,25.07327,68,68,0
24.47327,25.07327,77,80,0
25.07327,25.368837,68,66,0
25.07327,25.368837,75,78,0
25.07327,25.368837,63,66,0
25.368837,25.664404,73,78,0
25.368837,25.664404,61,66,0
25.664404,26.25651,68,74,0
26.295984,26.895983,68,57,0
26.295984,26.895983,56,48,0
26.895983,27.495983,70,58,0
26.895983,27.495983,58,49,0
27.495983,28.095984,56,49,0
27.495983,28.095984,68,58,0
26.295984,28.095984,63,48,0
28.095984,28.385838,70,58,0
28.095984,28.385838,58,49,0
28.385838,28.6743,72,58,0
28.385838,28.6743,60,49,0
28.095984,28.96276,63,49,0
28.6743,28.96276,63,53,0
28.6743,28.96276,75,63,0
28.96276,29.254023,70,58,0
28.96276,29.254023,58,49,0
29.254023,29.849648,68,55,0
29.254023,29.849648,56,46,0
29.849648,30.13811,65,62,0
29.849648,30.13811,73,73,0
29.849648,30.13811,68,62,0
29.849648,30.13811,61,62,0
30.13811,30.430794,63,58,0
30.13811,30.430794,72,58,0
30.13811,30.430794,75,69,0
30.13811,30.430794,68,58,0
30.430794,30.719254,73,62,0
30.430794,30.719254,65,62,0
30.430794,30.719254,77,73,0
30.430794,30.719254,68,62,0
30.719254,31.007715,80,75,0
30.719254,31.007715,68,63,0
31.007715,31.294798,75,61,0
31.007715,31.294798,66,61,0
31.007715,31.294798,78,72,0
31.007715,31.294798,70,61,0
31.294798,31.581879,73,57,0
31.294798,31.581879,65,57,0
31.294798,31.581879,77,68,0
31.294798,31.581879,68,57,0
31.581879,31.874561,63,63,0
31.581879,31.874561,72,63,0
31.581879,31.874561,75,75,0
31.581879,31.874561,68,63,0
31.874561,32.167244,66,58,0
31.874561,32.167244,78,69,0
32.167244,32.459927,70,58,0
32.167244,32.459927,73,58,0
32.167244,32.459927,77,69,0
32.167244,32.459927,65,58,0
32.459927,32.75261,73,68,0
32.459927,32.75261,61,57,0
32.75261,33.351418,75,64,0
32.75261,33.351418,68,54,0
32.75261,33.351418,63,54,0
32.75261,33.351418,72,54,0
33.351418,33.951416,68,61,0
33.351418,33.951416,56,51,0
33.351418,33.951416,63,51,0
33.951416,34.551414,58,51,0
33.951416,34.551414,70,61,0
33.951416,34.551414,63,51,0
34.551414,35.151417,68,61,0
34.551414,35.151417,63,51,0
34.551414,35.151417,56,51,0
35.151417,35.442677,70,58,0
35.151417,35.442677,58,49,0
35.442677,35.732533,60,49,0
35.442677,35.732533,72,58,0
35.732533,36.02239,75,63,0
35.151417,36.02239,63,49,0
35.732533,36.02239,63,53,0
36.02239,36.293007,70,58,0
36.02239,36.293007,58,49,0
36.331665,36.931667,60,52,0
36.331665,36.931667,72,62,0
36.931667,37.531666,62,54,0
36.931667,37.531666,74,64,0
37.531666,38.1228,72,63,0
37.531666,38.1228,60,53,0
36.331665,38.1228,67,52,0
38.1228,38.41548,74,62,0
38.1228,38.41548,62,52,0
38.41548,38.708164,77,62,0
38.41548,38.708164,65,52,0
38.1228,39.00085,67,52,0
38.708164,39.00085,67,54,0
38.708164,39.00085,79,64,0
39.00085,39.293533,62,53,0
39.00085,39.293533,74,63,0
39.293533,39.84231,60,51,0
39.293533,39.84231,72,61,0
39.8789,40.165977,77,79,0
39.8789,40.165977,72,67,0
39.8789,40.165977,65,67,0
39.8789,40.165977,69,67,0
40.165977,40.458664,67,61,0
40.165977,40.458664,72,61,0
40.165977,40.458664,79,72,0
40.165977,40.458664,76,61,0
40.458664,40.747124,72,69,0
40.458664,40.747124,69,69,0
40.458664,40.747124,81,82,0
40.458664,40.747124,77,69,0
40.747124,41.031483,72,61,0
40.747124,41.031483,84,72,0
41.031483,41.319946,82,81,0
41.031483,41.319946,79,68,0
41.031483,41.319946,70,68,0
41.031483,41.319946,74,68,0
41.319946,41.611206,69,63,0
41.319946,41.611206,72,63,0
41.319946,41.611206,81,75,0
41.319946,41.611206,77,63,0
41.611206,41.901062,76,68,0
41.611206,41.901062,67,68,0
41.611206,41.901062,79,81,0
41.611206,41.901062,72,68,0
41.901062,42.193745,82,75,0
41.901062,42.193745,70,63,0
42.193745,42.495255,81,79,0
42.193745,42.495255,74,67,0
42.193745,42.495255,69,67,0
42.193745,42.495255,77,67,0
42.495255,42.79676,77,74,0
42.495255,42.79676,65,62,0
42.79676,43.399837,76,58,0
42.79676,43.399837,72,58,0
42.79676,43.399837,67,58,0
42.79676,43.399837,79,69,0
43.399837,43.999836,60,51,0
43.399837,43.999836,67,51,0
43.399837,43.999836,72,61,0
43.999836,44.599834,67,51,0
43.999836,44.599834,62,51,0
43.999836,44.599834,74,61,0
44.599834,45.199837,60,51,0
44.599834,45.199837,67,51,0
44.599834,45.199837,72,61,0
45.199837,45.491096,62,49,0
45.199837,45.491096,67,49,0
45.199837,45.491096,74,58,0
45.491096,45.780952,65,49,0
45.491096,45.780952,77,58,0
45.780952,46.07081,79,63,0
45.780952,46.07081,67,53,0
46.07081,46.33596,74,58,0
46.07081,46.33596,62,49,0
46.37384,46.959206,73,56,0
46.37384,46.959206,81,67,0
46.37384,46.959206,69,56,0
46.959206,47.55034,77,64,0
46.959206,47.55034,69,54,0
46.959206,47.55034,74,54,0
47.55034,48.138573,81,65,0
47.55034,48.138573,69,55,0
47.55034,48.138573,73,55,0
48.138573,48.73857,64,51,0
48.138573,48.73857,70,51,0
48.138573,48.73857,74,61,0
48.73857,49.32394,81,60,0
48.73857,49.32394,69,51,0
48.73857,49.32394,72,51,0
49.32394,49.92394,70,47,0
49.32394,49.92394,74,56,0
49.32394,49.92394,64,47,0
49.92394,50.219505,77,66,0
50.219505,50.51507,72,60,0
49.92394,50.51507,65,56,0
49.92394,50.51507,69,56,0
50.51507,51.06926,70,54,0
50.51507,51.06926,74,64,0
50.51507,51.06926,65,54,0
51.106205,51.700512,65,52,0
51.106205,51.700512,77,62,0
51.106205,51.700512,69,52,0
51.700512,52.303524,74,56,0
51.700512,52.303524,65,47,0
51.700512,52.303524,70,47,0
52.303524,52.594788,77,64,0
52.594788,52.890354,72,60,0
52.303524,52.890354,65,54,0
52.303524,52.890354,69,54,0
52.890354,53.45568,70,52,0
52.890354,53.45568,65,52,0
52.890354,53.45568,74,62,0
53.49337,53.790398,63,53,0
53.790398,54.08743,64,46,0
53.49337,54.08743,67,53,0
53.49337,54.08743,72,63,0
54.08743,54.687428,65,49,0
54.08743,54.687428,69,58,0
54.08743,54.687428,60,49,0
54.687428,55.287426,62,46,0
54.687428,55.287426,70,55,0
54.687428,55.287426,65,46,0
55.287426,55.582993,63,64,0
55.582993,55.87856,64,56,0
55.287426,55.87856,67,54,0
55.287426,55.87856,72,64,0
55.87856,56.443886,69,58,0
55.87856,56.443886,65,49,0
55.87856,56.443886,60,49,0
56.481575,56.77714,70,75,0
56.77714,57.065605,74,82,0
56.481575,57.065605,62,63,0
56.481575,57.065605,65,63,0
57.065605,57.65674,65,74,0
57.065605,57.65674,77,88,0
57.65674,57.94659,70,69,0
57.65674,57.94659,63,69,0
57.65674,57.94659,67,69,0
57.65674,57.94659,75,82,0
57.94659,58.24362,74,78,0
57.94659,58.24362,62,66,0
58.24362,58.536304,72,75,0
58.24362,58.536304,60,63,0
58.24362,58.536304,65,63,0
58.24362,58.536304,69,63,0
58.536304,58.833332,58,60,0
58.536304,58.833332,70,71,0
58.833332,59.42739,60,69,0
58.833332,59.42739,72,82,0
58.833332,59.42739,65,69,0
59.42739,60.02145,74,84,0
59.42739,60.02145,65,71,0
59.42739,60.02145,62,71,0
60.02145,60.61551,72,86,0
60.02145,60.61551,77,86,0
60.02145,60.61551,69,73,0
60.02145,60.61551,65,73,0
60.61551,60.915512,67,76,0
60.61551,60.915512,79,90,0
60.61551,60.915512,70,76,0
60.61551,60.915512,75,76,0
60.915512,61.21551,82,82,0
60.915512,61.21551,70,69,0
61.21551,61.77801,65,75,0
61.21551,61.77801,77,89,0
61.81551,62.101227,63,68,0
61.81551,62.101227,70,68,0
61.81551,62.101227,75,81,0
61.81551,62.101227,67,68,0
62.101227,62.39108,62,60,0
62.101227,62.39108,74,75,0
62.39108,62.676796,60,62,0
62.39108,62.676796,72,73,0
62.39108,62.676796,69,62,0
62.39108,62.676796,65,62,0
62.676796,62.96948,70,71,0
62.676796,62.96948,58,60,0
62.96948,63.554844,72,75,0
62.96948,63.554844,60,63,0
62.96948,63.554844,65,63,0
63.554844,64.15786,74,90,0
63.554844,64.15786,62,76,0
63.554844,64.15786,65,76,0
64.15786,64.76087,77,88,0
64.15786,64.76087,69,74,0
64.15786,64.76087,72,74,0
64.15786,64.76087,65,74,0
64.76087,65.0579,72,77,0
64.76087,65.0579,79,91,0
64.76087,65.0579,67,77,0
64.76087,65.0579,76,91,0
65.0579,65.35741,70,69,0
65.0579,65.35741,82,82,0
65.35741,65.91991,65,74,0
65.35741,65.91991,77,88,0
65.957405,66.55741,79,91,0
65.957405,66.55741,67,77,0
66.55741,67.11991,77,88,0
66.55741,67.11991,65,74,0
67.15741,67.75741,67,93,0
67.75741,68.308876,65,90,0
68.34564,68.94564,58,73,0
68.34564,68.94564,70,87,0
68.34564,68.94564,62,73,0
68.94564,69.23833,72,85,0
69.23833,69.54761,77,80,0
68.94564,69.54761,60,72,0
68.94564,69.54761,69,72,0
69.23833,69.54761,65,68,0
69.54761,70.15674,70,73,0
69.54761,70.15674,62,73,0
69.54761,70.15674,74,86,0
70.15674,70.45674,72,85,0
70.45674,70.756744,77,78,0
70.15674,70.756744,60,72,0
70.15674,70.756744,69,72,0
70.45674,70.756744,65,66,0
70.756744,71.327805,70,72,0
70.756744,71.327805,62,72,0
70.756744,71.327805,74,85,0
71.365875,71.97501,70,85,0
71.365875,71.97501,58,72,0
71.365875,71.97501,62,72,0
71.97501,72.58415,72,84,0
71.97501,72.58415,60,71,0
71.97501,72.58415,67,71,0
72.58415,73.19329,67,78,0
72.58415,73.19329,60,66,0
72.58415,73.19329,55,66,0
73.19329,73.77619,60,62,0
73.19329,73.77619,57,62,0
73.19329,73.77619,65,74,0
73.81505,74.42419,67,92,0
73.81505,74.42419,62,78,0
73.81505,74.42419,58,78,0
74.42419,75.033325,65,91,0
74.42419,75.033325,60,77,0
74.42419,75.033325,57,77,0
75.033325,75.64246,58,77,0
75.033325,75.64246,65,77,0
75.033325,75.64246,70,91,0
75.033325,75.64246,62,77,0
75.64246,75.95335,72,85,0
75.64246,75.95335,65,72,0
75.95335,76.26422,65,66,0
75.64246,76.26422,69,72,0
75.64246,76.26422,60,72,0
75.95335,76.26422,77,78,0
76.26422,76.83529,74,85,0
76.26422,76.83529,70,72,0
76.26422,76.83529,62,72,0
76.26422,76.83529,65,72,0
76.87336,77.18424,72,85,0
76.87336,77.18424,65,72,0
77.18424,77.495125,65,66,0
76.87336,77.495125,69,72,0
76.87336,77.495125,60,72,0
77.18424,77.495125,77,78,0
77.495125,78.06619,62,72,0
77.495125,78.06619,74,85,0
77.495125,78.06619,65,72,0
77.495125,78.06619,70,72,0
78.10426,78.72602,58,74,0
78.10426,78.72602,70,88,0
78.10426,78.72602,62,74,0
78.10426,78.72602,67,74,0
78.72602,80.00262,63,79,0
78.72602,80.00262,67,79,0
78.72602,80.00262,75,93,0
78.72602,80.00262,72,79,0
80.00262,81.32858,69,75,0
80.00262,81.32858,60,75,0
80.00262,81.32858,72,89,0
80.00262,81.32858,65,75,0
81.32858,81.66007,62,76,0
81.32858,81.66007,65,76,0
81.32858,84.6435,70,90,0
85.50064,85.6315,70,89,0
85.6315,85.76235,69,77,0
85.76235,85.82778,70,80,0
85.89321,85.96039,70,80,0
86.02757,86.158424,70,85,0
86.158424,86.28928,69,77,0
86.28928,86.35471,70,80,0
86.420135,86.48703,70,80,0
86.553925,86.68478,70,89,0
86.68478,86.815636,69,75,0
86.815636,86.881065,70,78,0
86.94649,87.01308,70,78,0
87.079666,87.210526,70,81,0
87.210526,87.341385,69,69,0
87.341385,87.40681,70,70,0
87.47224,87.53913,70,72,0
87.606026,87.67145,70,85,0
87.73688,87.80231,69,74,0
87.86774,87.93316,72,76,0
87.99859,88.06402,70,70,0
88.12945,88.19487,75,80,0
88.2603,88.32573,74,74,0
88.39116,88.45658,77,76,0
88.52201,88.58744,75,72,0
88.65287,88.71829,78,78,0
88.78372,88.84804,79,75,0
88.912346,89.044365,84,86,0
89.044365,89.1758,82,77,0
89.1758,89.30665,80,81,0
89.30665,89.43751,79,74,0
89.43751,89.56836,77,78,0
89.56836,89.69922,75,73,0
89.69922,89.76381,83,73,0
89.82839,89.89498,77,69,0
89.96157,90.09243,82,100,0
90.09243,90.22328,80,78,0
90.22328,90.288155,83,74,0
90.35302,90.417885,77,69,0
90.48276,90.61361,82,100,0
90.61361,90.74679,80,76,0
90.74679,90.81138,83,96,0
90.87597,90.94286,77,73,0
91.00975,91.07462,82,93,0
91.13949,91.20638,77,71,0
91.27328,91.338425,81,87,0
91.40357,91.47016,74,69,0
91.53675,91.60218,80,84,0
91.66761,91.7345,74,68,0
91.80139,91.86682,70,81,0
91.93225,91.99767,69,74,0
92.0631,92.12853,72,76,0
92.19396,92.25939,70,70,0
92.324814,92.39024,75,80,0
92.45567,92.5211,74,74,0
92.586525,92.651955,77,76,0
92.717384,92.782814,75,72,0
92.848236,92.913666,78,78,0
92.979095,93.0434,79,75,0
93.10772,93.23759,84,92,0
93.23759,93.36902,82,77,0
93.36902,93.49987,80,81,0
93.49987,93.63073,79,74,0
93.63073,93.76158,77,78,0
93.76158,93.89655,75,73,0
93.89655,93.961975,90,87,0
94.027405,94.092834,87,69,0
94.158264,94.22369,85,73,0
94.289116,94.354546,83,69,0
94.419975,94.55083,82,88,0
94.55083,94.68519,85,70,0
94.68519,94.81605,83,80,0
94.81605,94.9469,80,74,0
94.9469,95.01233,78,77,0
95.07776,95.14524,75,71,0
95.21272,95.27815,73,95,0
95.343575,95.41076,71,76,0
95.477936,95.608795,70,90,0
95.608795,95.73965,73,71,0
95.73965,95.87051,71,74,0
95.87051,96.00547,68,68,0
96.00547,96.10886,68,62,0
96.00547,96.10886,65,62,0
96.14322,96.24556,68,66,0
96.14322,96.24556,65,66,0
96.2795,96.38088,68,69,0
96.2795,96.38088,65,69,0
96.414474,96.51486,68,73,0
96.414474,96.51486,65,73,0
96.00547,96.54816,70,62,0
96.68075,96.81334,78,68,0
96.81334,96.94592,77,68,0
96.94592,97.078514,75,68,0
96.54816,97.078514,69,89,0
97.078514,97.18191,68,62,0
97.078514,97.18191,65,62,0
97.21626,97.3186,68,65,0
97.21626,97.3186,65,65,0
97.352554,97.45393,68,68,0
97.352554,97.45393,65,68,0
97.487526,97.587906,68,63,0
97.487526,97.587906,65,63,0
97.078514,97.6212,70,62,0
97.75379,97.88638,78,70,0
97.88638,98.018974,77,68,0
98.018974,98.151566,75,68,0
97.6212,98.151566,69,91,0
98.151566,98.25495,71,65,0
98.151566,98.25495,68,65,0
98.289314,98.391655,71,68,0
98.289314,98.391655,68,68,0
98.4256,98.52698,71,70,0
98.4256,98.52698,68,70,0
98.56057,98.66096,71,73,0
98.56057,98.66096,68,73,0
98.151566,98.69425,73,65,0
98.82684,98.962425,81,71,0
98.962425,99.09502,80,75,0
99.09502,99.22761,78,71,0
98.69425,99.22761,72,87,0
99.22761,99.33099,74,66,0
99.22761,99.33099,70,66,0
99.36536,99.4677,74,68,0
99.36536,99.4677,70,68,0
99.50164,99.60303,74,70,0
99.50164,99.60303,70,70,0
99.63661,99.737,74,72,0
99.63661,99.737,70,72,0
99.22761,99.770294,75,66,0
99.902885,100.03847,83,72,0
100.03847,100.17106,82,91,0
100.17106,100.30365,80,72,0
99.770294,100.30365,74,87,0
100.69809,100.83305,77,77,0
100.563126,100.83305,71,91,0
100.563126,100.83305,68,63,0
101.229126,101.36349,77,77,0
101.094765,101.36349,71,91,0
101.094765,101.36349,68,63,0
101.36349,101.49322,71,77,0
101.49322,101.62343,70,70,0
101.62343,101.7541,71,74,0
101.7541,101.88514,70,67,0
101.88514,102.015625,71,73,0
102.015625,102.14706,70,67,0
102.14706,102.27956,71,73,0
102.27956,102.42153,77,67,0
102.42153,102.48783,70,85,0
102.55412,102.62042,69,74,0
102.686714,102.75301,72,76,0
102.819305,102.885605,70,70,0
102.9519,103.01733,75,80,0
103.082756,103.14818,74,74,0
103.21361,103.27904,77,76,0
103.34447,103.4099,75,72,0
103.47532,103.54075,78,78,0
103.60618,103.67022,79,75,0
103.73426,103.86344,84,94,0
103.86344,103.994865,82,77,0
103.994865,104.125725,80,81,0
104.125725,104.25658,79,74,0
104.25658,104.387436,77,78,0
104.387436,104.51829,75,73,0
104.51829,104.58288,83,73,0
104.64747,104.71406,77,69,0
104.78065,104.9115,82,96,0
104.9115,105.04236,80,78,0
105.04236,105.10722,83,74,0
105.1721,105.23696,77,69,0
105.30183,105.432686,82,94,0
105.432686,105.565865,80,76,0
105.565865,105.630455,87,96,0
105.69504,105.76193,86,73,0
105.82883,105.89369,89,84,0
105.958565,106.02545,87,71,0
106.09235,106.22265,83,88,0
106.22265,106.35583,86,69,0
106.35583,106.48668,84,76,0
106.48668,106.62047,80,68,0
106.62047,106.75425,79,89,0
106.75425,106.88804,82,72,0
106.88804,107.02182,80,79,0
107.02182,107.15561,77,74,0
107.15561,107.222496,75,85,0
107.28939,107.356285,74,73,0
107.42318,107.49007,77,91,0
107.55696,107.623856,75,74,0
107.69075,107.7582,79,71,0
107.69075,107.7582,82,71,0
107.82565,107.893105,79,73,0
107.82565,107.893105,82,73,0
107.960556,108.02801,79,75,0
107.960556,108.02801,82,75,0
108.09546,108.16291,79,78,0
108.09546,108.16291,82,78,0
108.23036,108.29781,79,80,0
108.23036,108.29781,82,80,0
108.364876,108.431656,79,82,0
108.364876,108.431656,82,82,0
108.49804,108.56414,79,84,0
108.49804,108.56414,82,84,0
108.62977,108.698425,79,85,0
108.62977,108.698425,82,85,0
108.76708,109.04928,74,94,0
108.76708,109.04928,78,94,0
108.76708,109.04928,86,94,0
109.04928,109.15001,74,74,0
109.04928,109.15001,78,74,0
109.183586,109.284325,74,70,0
109.183586,109.284325,78,70,0
109.3179,109.41893,74,76,0
109.3179,109.41893,78,76,0
109.452415,109.55243,74,70,0
109.452415,109.55243,78,70,0
109.58558,109.68454,74,75,0
109.58558,109.68454,78,75,0
109.71731,109.82029,74,71,0
109.71731,109.82029,78,71,0
109.854614,110.12887,74,89,0
109.854614,110.12887,76,89,0
110.12887,110.19815,80,70,0
110.12887,110.19815,82,70,0
110.267426,110.3367,80,67,0
110.267426,110.3367,82,67,0
110.40598,110.68024,74,89,0
110.40598,110.68024,76,89,0
110.68024,110.7492,80,68,0
110.68024,110.7492,82,68,0
110.81816,110.88713,80,68,0
110.81816,110.88713,82,68,0
110.95609,111.05732,76,71,0
110.95609,111.05732,74,71,0
111.09106,111.19228,76,71,0
111.09106,111.19228,74,71,0
111.22603,111.32725,76,71,0
111.22603,111.32725,74,71,0
111.36099,111.46221,76,71,0
111.36099,111.46221,74,71,0
111.49596,111.597176,74,74,0
111.49596,111.597176,76,74,0
111.63092,111.73215,76,77,0
111.63092,111.73215,74,77,0
111.765884,111.86711,76,80,0
111.765884,111.86711,74,80,0
111.90085,112.002075,76,84,0
111.90085,112.002075,74,84,0
112.03581,112.103,76,91,0
112.03581,112.103,73,91,0
112.17048,112.23827,76,82,0
112.17048,112.23827,73,82,0
112.30636,112.37476,76,87,0
112.30636,112.37476,73,87,0
112.44348,112.51514,76,79,0
112.44348,112.51514,73,79,0
112.5868,112.85673,73,96,0
112.5868,112.85673,81,96,0
113.12666,113.40885,74,94,0
113.12666,113.40885,78,94,0
113.12666,113.40885,86,94,0
113.40885,113.50959,74,75,0
113.40885,113.50959,78,75,0
113.54317,113.6439,74,70,0
113.54317,113.6439,78,70,0
113.677475,113.77851,74,75,0
113.677475,113.77851,78,75,0
113.812,113.91201,74,69,0
113.812,113.91201,78,69,0
113.94515,114.04412,74,75,0
113.94515,114.04412,78,75,0
114.07688,114.17987,74,70,0
114.07688,114.17987,78,70,0
114.214195,114.48845,78,89,0
114.214195,114.48845,76,89,0
114.48845,114.557724,82,68,0
114.48845,114.557724,84,68,0
114.62701,114.69628,82,68,0
114.62701,114.69628,84,68,0
114.76556,115.03981,78,89,0
114.76556,115.03981,76,89,0
115.03981,115.10878,82,69,0
115.03981,115.10878,84,69,0
115.17774,115.24671,82,69,0
115.17774,115.24671,84,69,0
115.315674,115.4169,76,71,0
115.315674,115.4169,78,71,0
115.45064,115.551865,76,71,0
115.45064,115.551865,78,71,0
115.5856,115.68683,76,71,0
115.5856,115.68683,78,71,0
115.720566,115.82179,76,71,0
115.720566,115.82179,78,71,0
115.85554,115.95676,78,70,0
115.85554,115.95676,76,70,0
115.9905,116.09172,76,71,0
115.9905,116.09172,78,71,0
116.125465,116.226685,76,73,0
116.125465,116.226685,78,73,0
116.26043,116.36166,76,75,0
116.26043,116.36166,78,75,0
116.39539,116.46257,75,81,0
116.39539,116.46257,78,81,0
116.53006,116.59785,75,74,0
116.53006,116.59785,78,74,0
116.66594,116.73434,75,79,0
116.66594,116.73434,78,79,0
116.803055,116.87472,75,71,0
116.803055,116.87472,78,71,0
116.94638,117.21631,75,85,0
116.94638,117.21631,83,85,0
117.48624,117.76843,76,94,0
117.48624,117.76843,88,94,0
117.76843,117.90275,75,70,0
117.90275,118.037056,76,67,0
118.037056,118.17157,78,72,0
118.17157,118.30473,79,70,0
118.30473,118.43646,82,74,0
118.43646,118.57378,83,72,0
118.57378,118.85167,74,89,0
118.57378,118.85167,86,89,0
118.57378,118.85167,77,89,0
118.85167,118.99043,80,74,0
118.99043,119.12919,79,76,0
118.85167,119.12919,77,74,0
118.85167,119.12919,74,74,0
119.12919,119.411385,75,79,0
119.12919,119.411385,84,94,0
119.411385,119.5457,71,70,0
119.5457,119.68001,72,67,0
119.68001,119.81452,74,72,0
119.81452,119.947685,75,70,0
119.947685,120.079414,78,74,0
120.079414,120.21673,79,72,0
120.21673,120.49462,70,89,0
120.21673,120.49462,82,89,0
120.21673,120.49462,73,89,0
120.49462,120.63397,76,74,0
120.63397,120.77333,75,70,0
120.49462,120.77333,70,74,0
120.49462,120.77333,73,74,0
120.77333,121.05552,75,79,0
120.77333,121.05552,72,79,0
120.77333,121.05552,80,94,0
121.05552,121.189835,71,70,0
121.189835,121.32415,72,67,0
121.32415,121.458664,67,71,0
121.458664,121.59182,68,67,0
121.59182,121.72356,71,72,0
121.72356,121.86086,72,68,0
122.13876,122.27221,71,88,0
122.27221,122.406815,77,80,0
122.13876,122.406815,68,79,0
122.406815,122.68901,75,79,0
122.406815,122.68901,72,79,0
122.406815,122.68901,80,94,0
122.68901,122.82332,71,70,0
122.82332,122.957634,72,65,0
122.957634,123.09215,67,71,0
123.09215,123.22531,68,67,0
123.22531,123.35704,71,74,0
123.35704,123.49435,72,67,0
123.77225,123.90904,71,85,0
123.90904,124.045845,77,80,0
123.77225,124.045845,68,77,0
124.045845,124.3201,74,89,0
124.045845,124.3201,76,89,0
124.3201,124.38906,80,68,0
124.3201,124.38906,82,68,0
124.45803,124.52699,80,68,0
124.45803,124.52699,82,68,0
124.595955,124.87815,77,79,0
124.595955,124.87815,73,79,0
124.595955,124.87815,85,94,0
124.87815,125.01247,76,70,0
125.01247,125.146774,77,65,0
125.146774,125.28129,72,70,0
125.28129,125.41445,73,66,0
125.41445,125.54618,76,71,0
125.54618,125.683495,77,67,0
125.96139,126.09819,76,85,0
126.09819,126.234985,82,80,0
125.96139,126.234985,73,85,0
126.234985,126.50924,74,89,0
126.234985,126.50924,76,89,0
126.50924,126.57821,81,68,0
126.50924,126.57821,82,68,0
126.64717,126.71613,81,68,0
126.64717,126.71613,82,68,0
127.062996,127.1998,76,85,0
127.1998,127.33659,82,80,0
127.062996,127.33659,73,85,0
127.614494,127.75129,76,85,0
127.75129,127.88809,83,80,0
127.614494,127.88809,74,85,0
127.88809,128.16234,74,89,0
127.88809,128.16234,76,89,0
128.16234,128.23131,80,72,0
128.16234,128.23131,82,72,0
128.30028,128.36923,80,72,0
128.30028,128.36923,82,72,0
128.7161,128.8529,76,85,0
128.8529,128.9897,83,80,0
128.7161,128.9897,74,85,0
129.2676,129.40439,79,85,0
129.40439,129.5412,85,80,0
129.2676,129.5412,76,85,0
129.5412,129.81544,74,89,0
129.5412,129.81544,76,89,0
129.81544,129.88441,80,73,0
129.81544,129.88441,82,73,0
129.95337,130.02234,80,73,0
129.95337,130.02234,82,73,0
130.3692,130.506,79,85,0
130.506,130.6428,85,80,0
130.3692,130.6428,76,85,0
130.9207,131.0575,79,85,0
131.0575,131.19429,85,80,0
130.9207,131.19429,76,85,0
131.47218,131.609,79,85,0
131.609,131.74579,85,80,0
131.47218,131.74579,76,85,0
132.02368,132.16434,81,85,0
132.16434,132.30498,88,76,0
132.02368,132.30498,79,85,0
132.30498,132.44762,81,89,0
132.44762,132.59026,88,81,0
132.30498,132.59026,79,89,0
132.59026,132.73637,81,93,0
132.73637,132.88248,88,80,0
132.59026,132.88248,79,93,0
132.88248,132.95058,74,94,0
133.01866,133.08665,74,86,0
133.15445,133.22214,74,94,0
133.28961,133.3571,74,85,0
133.42438,133.49156,74,94,0
133.55855,133.62544,75,88,0
133.69234,133.75893,74,94,0
133.82552,133.89182,77,88,0
133.9581,134.02411,74,94,0
134.09012,134.15613,74,86,0
134.22214,134.28815,74,94,0
134.35416,134.42017,74,86,0
134.48618,134.55219,74,94,0
134.6182,134.6842,76,86,0
134.75021,134.81622,74,94,0
134.88223,134.94824,81,85,0
135.01425,135.08026,74,92,0
135.14627,135.21228,74,87,0
135.27829,135.3443,74,86,0
135.41031,135.47632,74,86,0
135.54233,135.64058,74,92,0
135.67334,135.77159,74,92,0
135.80434,135.90303,74,91,0
135.93593,136.0346,74,91,0
136.0675,136.16663,74,90,0
136.19966,136.29878,74,90,0
136.33182,136.43138,74,89,0
136.46455,136.56412,74,88,0
136.5973,136.6973,74,88,0
136.73064,136.83064,74,87,0
136.86397,136.96442,74,87,0
136.9979,137.09839,74,86,0
137.13203,137.19781,70,85,0
137.26361,137.32939,69,74,0
137.39519,137.4607,72,76,0
137.52618,137.59169,70,70,0
137.6572,137.72241,75,80,0
137.78763,137.85284,74,74,0
137.91806,137.98328,77,76,0
138.0485,138.11371,75,72,0
138.17894,138.24416,78,78,0
138.30937,138.37396,79,75,0
138.43854,138.56842,84,93,0
138.56842,138.69984,82,77,0
138.69984,138.8307,80,81,0
138.8307,138.96155,79,74,0
138.96155,139.0924,77,78,0
139.0924,139.22327,75,73,0
139.22327,139.28786,83,73,0
139.35245,139.41904,77,69,0
139.48563,139.61649,82,99,0
139.61649,139.74733,80,78,0
139.74733,139.8122,83,74,0
139.87708,139.94194,77,69,0
140.0068,140.13766,82,99,0
140.13766,140.27084,80,76,0
140.27084,140.33543,83,98,0
140.40001,140.4669,77,73,0
140.5338,140.59866,82,89,0
140.66354,140.73042,77,71,0
140.79732,140.86247,81,83,0
140.92763,140.99422,74,69,0
141.0608,141.12624,80,82,0
141.19165,141.25854,74,68,0
141.32544,141.39087,70,81,0
141.4563,141.52173,69,74,0
141.58716,141.65259,72,76,0
141.718,141.78343,70,70,0
141.84886,141.91429,75,80,0
141.97972,142.04515,74,74,0
142.11058,142.17601,77,76,0
142.24142,142.30685,75,72,0
142.37228,142.43771,78,78,0
142.50314,142.56773,79,75,0
142.63232,142.76219,84,94,0
142.76219,142.89362,82,77,0
142.89362,143.02448,80,81,0
143.02448,143.15533,79,74,0
143.15533,143.2862,77,78,0
143.2862,143.42116,75,73,0
143.42116,143.48657,90,87,0
143.552,143.61743,87,69,0
143.68286,143.74829,85,73,0
143.81372,143.87915,83,69,0
143.94458,144.07542,82,96,0
144.07542,144.2098,85,70,0
144.2098,144.34065,83,81,0
144.34065,144.4715,80,74,0
144.4715,144.53693,78,77,0
144.60236,144.66985,75,71,0
144.73732,144.80275,73,95,0
144.86818,144.93536,71,76,0
145.00253,145.13339,70,98,0
145.13339,145.26425,73,71,0
145.26425,145.39511,71,74,0
145.39511,145.53008,68,68,0
145.53008,145.63345,68,62,0
145.53008,145.63345,65,62,0
145.66782,145.77016,68,66,0
145.66782,145.77016,65,66,0
145.80411,145.90549,68,69,0
145.80411,145.90549,65,69,0
145.93907,146.03946,68,73,0
145.93907,146.03946,65,73,0
145.53008,146.07275,70,62,0
146.20535,146.33794,78,68,0
146.33794,146.47054,77,68,0
146.47054,146.60312,75,68,0
146.07275,146.60312,69,88,0
146.60312,146.70651,68,62,0
146.60312,146.70651,65,62,0
146.74086,146.8432,68,65,0
146.74086,146.8432,65,65,0
146.87715,146.97853,68,68,0
146.87715,146.97853,65,68,0
147.01213,147.1125,68,63,0
147.01213,147.1125,65,63,0
146.60312,147.1458,70,62,0
147.2784,147.41098,78,70,0
147.41098,147.54358,77,68,0
147.54358,147.67616,75,68,0
147.1458,147.67616,69,88,0
147.67616,147.77956,71,65,0
147.67616,147.77956,68,65,0
147.81392,147.91626,71,68,0
147.81392,147.91626,68,68,0
147.9502,148.05159,71,70,0
147.9502,148.05159,68,70,0
148.08517,148.18556,71,73,0
148.08517,148.18556,68,73,0
147.67616,148.21886,73,65,0
148.35144,148.48703,81,71,0
148.48703,148.61961,80,79,0
148.61961,148.75221,78,71,0
148.21886,148.75221,72,85,0
148.75221,148.8556,74,66,0
148.75221,148.8556,70,66,0
148.88995,148.9923,74,68,0
148.88995,148.9923,70,68,0
149.02625,149.12762,74,70,0
149.02625,149.12762,70,70,0
149.16121,149.2616,74,72,0
149.16121,149.2616,70,72,0
148.75221,149.29489,75,66,0
149.42749,149.56308,83,72,0
149.56308,149.69566,82,85,0
149.69566,149.82826,80,72,0
149.29489,149.82826,74,88,0
150.22269,150.35765,77,77,0
150.08772,150.35765,71,83,0
150.08772,150.35765,68,76,0
150.75372,150.89374,77,77,0
150.61937,150.89374,71,83,0
150.61937,150.89374,68,76,0
150.89374,151.16798,74,89,0
150.89374,151.16798,76,89,0
151.16798,151.23726,80,70,0
151.16798,151.23726,82,70,0
151.30653,151.37582,80,70,0
151.30653,151.37582,82,70,0
151.4451,151.71935,74,89,0
151.4451,151.71935,76,89,0
151.71935,151.78831,80,68,0
151.71935,151.78831,82,68,0
151.85728,151.92624,80,68,0
151.85728,151.92624,82,68,0
151.99521,152.12607,70,85,0
152.12607,152.25693,69,74,0
152.25693,152.38777,72,76,0
152.38777,152.51863,70,70,0
152.51863,152.65123,75,80,0
152.65123,152.78381,74,74,0
152.78381,152.9164,77,76,0
152.9164,153.05904,75,72,0
153.05904,153.3333,74,89,0
153.05904,153.3333,76,89,0
153.3333,153.40227,80,68,0
153.3333,153.40227,82,68,0
153.47122,153.54019,80,68,0
153.47122,153.54019,82,68,0
153.88705,154.02385,71,74,0
154.02385,154.15562,77,77,0
153.88705,154.15562,68,74,0
154.15562,154.22192,78,78,0
154.28822,154.35365,79,75,0
154.41907,154.55109,84,86,0
154.55109,154.68253,82,77,0
154.68253,154.81339,80,81,0
154.81339,154.94423,79,74,0
154.94423,155.07509,77,78,0
155.07509,155.21205,75,73,0
155.21205,155.4863,74,89,0
155.21205,155.4863,76,89,0
155.4863,155.55527,80,68,0
155.4863,155.55527,82,68,0
155.62422,155.69319,80,68,0
155.62422,155.69319,82,68,0
156.04005,156.17685,71,76,0
156.17685,156.31366,77,80,0
156.04005,156.31366,68,76,0
156.58725,156.72809,89,89,0
156.72809,156.86894,82,74,0
156.58725,156.86894,77,89,0
157.15465,157.3003,89,89,0
157.3003,157.44592,82,74,0
157.15465,157.44592,77,89,0
157.73718,157.88794,89,91,0
157.88794,158.03868,82,73,0
157.73718,158.03868,77,91,0
158.84804,158.93428,63,56,0
158.84804,158.93428,70,63,0
158.84804,158.93428,67,56,0
159.02037,159.10593,63,59,0
159.02037,159.10593,67,59,0
159.02037,159.10593,70,66,0
159.19131,159.27638,70,62,0
159.19131,159.27638,67,55,0
159.36113,159.44571,67,63,0
159.36113,159.44571,70,63,0
159.36113,159.44571,72,70,0
159.53029,159.61487,75,63,0
159.53029,159.61487,70,56,0
159.53029,159.61487,67,56,0
159.69896,159.78304,67,54,0
159.69896,159.78304,70,54,0
159.69896,159.78304,75,61,0
159.86664,159.95024,74,60,0
159.86664,159.95024,70,60,0
159.86664,159.95024,75,67,0
160.03339,160.12048,74,68,0
160.03339,160.12048,70,61,0
160.03339,160.12048,75,68,0
160.2092,160.29791,80,63,0
160.2092,160.29791,84,70,0
160.2092,160.29791,75,63,0
160.38626,160.47443,75,57,0
160.38626,160.47443,77,57,0
160.38626,160.47443,80,64,0
160.56224,160.64986,72,57,0
160.56224,160.64986,75,57,0
160.56224,160.64986,77,64,0
160.73714,160.82425,75,68,0
160.73714,160.82425,72,61,0
160.73714,160.82425,68,61,0
160.91136,160.99898,67,63,0
160.91136,160.99898,70,63,0
160.91136,160.99898,72,70,0
161.08698,161.17531,67,57,0
161.08698,161.17531,70,57,0
161.08698,161.17531,74,64,0
161.2653,161.35776,67,61,0
161.2653,161.35776,70,61,0
161.2653,161.35776,75,68,0
161.45306,161.55698,67,62,0
161.45306,161.55698,70,62,0
161.45306,161.55698,79,69,0
161.64677,161.73639,63,56,0
161.64677,161.73639,67,56,0
161.64677,161.73639,70,63,0
161.82562,161.91452,63,55,0
161.82562,161.91452,70,62,0
161.82562,161.91452,67,55,0
162.00323,162.0914,70,68,0
162.00323,162.0914,67,61,0
162.1792,162.26683,67,59,0
162.1792,162.26683,70,59,0
162.1792,162.26683,72,66,0
162.35394,162.44087,75,63,0
162.35394,162.44087,70,56,0
162.35394,162.44087,67,56,0
162.52745,162.61354,67,55,0
162.52745,162.61354,70,55,0
162.52745,162.61354,75,62,0
162.69943,162.785,75,67,0
162.69943,162.785,74,60,0
162.69943,162.785,70,60,0
162.87022,162.95512,74,57,0
162.87022,162.95512,70,57,0
162.87022,162.95512,75,64,0
163.04172,163.1283,80,57,0
163.04172,163.1283,84,64,0
163.04172,163.1283,75,57,0
163.21437,163.30046,77,63,0
163.21437,163.30046,80,71,0
163.21437,163.30046,75,63,0
163.38602,163.47157,72,63,0
163.38602,163.47157,75,63,0
163.38602,163.47157,77,70,0
163.55664,163.6417,75,69,0
163.55664,163.6417,72,62,0
163.55664,163.6417,68,62,0
163.72629,163.81087,67,61,0
163.72629,163.81087,70,61,0
163.72629,163.81087,72,68,0
163.89545,163.98003,67,60,0
163.89545,163.98003,70,60,0
163.89545,163.98003,74,67,0
164.06462,164.1492,67,59,0
164.06462,164.1492,70,59,0
164.06462,164.1492,75,66,0
164.23378,164.31836,67,62,0
164.23378,164.31836,70,62,0
164.23378,164.31836,79,69,0
164.40294,164.48753,75,59,0
164.40294,164.48753,79,66,0
164.40294,164.48753,70,59,0
164.57211,164.6567,74,62,0
164.57211,164.6567,70,55,0
164.57211,164.6567,66,55,0
164.74127,164.82587,75,63,0
164.74127,164.82587,67,56,0
164.74127,164.82587,70,56,0
164.91045,164.99503,71,60,0
164.91045,164.99503,67,54,0
164.91045,164.99503,63,54,0
165.07912,165.1632,72,63,0
165.07912,165.1632,67,56,0
165.07912,165.1632,63,56,0
165.24744,165.33202,63,54,0
165.24744,165.33202,67,54,0
165.24744,165.33202,73,61,0
165.41661,165.50151,67,56,0
165.41661,165.50151,70,56,0
165.41661,165.50151,74,63,0
165.58658,165.67163,68,56,0
165.58658,165.67163,74,56,0
165.58658,165.67163,77,63,0
165.75381,165.836,70,56,0
165.75381,165.836,79,63,0
165.75381,165.836,75,56,0
165.91818,166.00037,74,59,0
165.91818,166.00037,66,53,0
165.91818,166.00037,70,53,0
166.08255,166.16473,70,56,0
166.08255,166.16473,67,56,0
166.08255,166.16473,75,63,0
166.24692,166.3291,71,58,0
166.24692,166.3291,67,52,0
166.24692,166.3291,63,52,0
166.41129,166.49347,72,63,0
166.41129,166.49347,67,56,0
166.41129,166.49347,63,56,0
166.57564,166.65782,73,61,0
166.57564,166.65782,67,54,0
166.57564,166.65782,63,54,0
166.74,166.82219,74,63,0
166.74,166.82219,70,56,0
166.74,166.82219,67,56,0
166.90437,166.98656,77,58,0
166.90437,166.98656,74,52,0
166.90437,166.98656,68,52,0
167.06648,167.14641,67,62,0
167.22618,167.30568,72,63,0
167.22618,167.30568,67,56,0
167.38516,167.46437,69,64,0
167.54344,167.6225,74,66,0
167.54344,167.6225,69,59,0
167.70113,167.77977,70,68,0
167.85826,167.93648,77,69,0
167.85826,167.93648,72,62,0
168.0147,168.09262,73,70,0
168.1704,168.24791,74,63,0
168.1704,168.24791,79,71,0
168.32542,168.40321,75,72,0
168.48059,168.5577,76,66,0
168.48059,168.5577,80,74,0
168.63452,168.71107,78,75,0
168.78725,168.86314,79,69,0
168.78725,168.86314,84,77,0
168.93877,169.01413,80,78,0
169.08911,169.16385,80,71,0
169.08911,169.16385,86,79,0
169.23831,169.31253,82,72,0
169.23831,169.31253,86,81,0
169.38637,169.56537,82,73,0
169.38637,169.56537,91,82,0
169.56537,172.66518,59,105,0
172.66518,175.7649,55,42,0
175.7649,178.8646,67,91,0
178.8646,184.28955,55,85,0
178.8646,184.28955,59,85,0
178.8646,184.28955,66,109,0
184.28955,187.00203,58,83,0
187.00203,189.94241,59,50,0
184.28955,189.94241,55,83,0
184.28955,189.94241,66,106,0
189.94241,193.33864,55,87,0
189.94241,193.33864,66,105,0
189.94241,193.33864,61,87,0
193.33864,196.05112,62,64,0
196.05112,198.98367,59,45,0
193.33864,198.98367,54,64,0
193.33864,198.98367,66,72,0
198.98367,201.43115,54,36,0
198.98367,201.43115,61,36,0
198.98367,201.43115,66,40,0
202.65489,205.75461,59,104,0
202.65489,205.75461,55,96,0
202.65489,205.75461,47,86,0
205.75461,208.85431,55,89,0
205.75461,208.85431,58,97,0
205.75461,208.85431,46,80,0
208.85431,212.2188,67,95,0
208.85431,212.2188,70,98,0
208.85431,212.2188,58,82,0
212.2188,214.93127,62,60,0
214.93127,217.64375,61,50,0
212.2188,217.64375,52,54,0
212.2188,217.64375,57,54,0
212.2188,217.64375,64,60,0
217.64375,220.35623,61,63,0
220.35623,222.10805,62,58,0
217.64375,222.10805,69,63,0
222.10805,222.97762,69,54,0
217.64375,222.97762,65,63,0
217.64375,222.97762,57,56,0
222.97762,225.6901,74,71,0
225.6901,227.43275,73,66,0
227.43275,228.3041,74,62,0
222.97762,228.3041,69,60,0
222.97762,228.3041,60,54,0
222.97762,228.3041,62,54,0
228.3041,231.05092,72,63,0
228.3041,231.05092,67,63,0
228.3041,231.05092,62,56,0
231.05092,232.42435,70,50,0
231.05092,232.42435,67,50,0
231.05092,232.42435,62,45,0
232.88214,234.08745,55,111,0
234.08745,237.3584,67,82,0
234.08745,237.3584,79,109,0
234.08745,237.3584,75,95,0
234.08745,237.3584,70,82,0
237.3584,240.40768,67,61,0
237.3584,240.40768,55,55,0
237.3584,240.40768,60,55,0
237.3584,240.40768,64,61,0
240.40768,243.05098,67,83,0
240.40768,243.05098,64,83,0
240.40768,243.05098,58,74,0
243.05098,245.65967,66,75,0
243.05098,245.65967,62,75,0
243.05098,245.65967,59,67,0
245.65967,248.26837,64,60,0
245.65967,248.26837,61,60,0
245.65967,248.26837,55,53,0
248.26837,250.87706,62,56,0
248.26837,250.87706,59,56,0
248.26837,250.87706,56,50,0
250.87706,260.0993,59,92,0
250.87706,260.0993,53,82,0
250.87706,260.0993,56,82,0
250.87706,260.0993,62,100,0
261.8664,261.96783,90,31,0
261.96783,262.07056,78,19,0
262.07056,262.1746,90,31,0
262.1746,262.2745,78,18,0
262.2745,262.37595,90,31,0
262.37595,262.47867,78,19,0
262.47867,262.58035,90,31,0
262.58035,262.6808,78,19,0
262.6808,262.78348,90,31,0
262.78348,262.8839,78,19,0
262.8839,262.98285,90,32,0
262.98285,263.08252,78,19,0
263.08252,263.185,90,32,0
263.185,263.2849,78,20,0
263.2849,263.38266,90,32,0
263.38266,263.48306,78,20,0
263.48306,263.58426,90,32,0
263.58426,263.6827,78,20,0
263.6827,263.77975,90,33,0
263.77975,263.8782,78,20,0
263.8782,263.9769,90,33,0
263.9769,264.0728,78,20,0
264.0728,264.16757,90,33,0
264.16757,264.26233,78,20,0
264.26233,264.3596,90,34,0
264.3596,264.459,78,21,0
264.459,264.55655,90,34,0
264.55655,264.65173,78,20,0
264.65173,264.7472,90,34,0
264.7472,264.84445,78,21,0
264.84445,264.94196,90,34,0
264.94196,265.03946,78,21,0
265.03946,265.13626,90,34,0
265.13626,265.2317,78,21,0
265.2317,265.32712,90,34,0
265.32712,265.42416,78,21,0
265.42416,265.52237,90,34,0
265.52237,265.61783,78,21,0
265.61783,265.71234,90,34,0
265.71234,265.808,78,21,0
265.808,265.90527,90,34,0
265.90527,266.00162,78,21,0
266.00162,266.09705,90,34,0
266.09705,266.19318,78,21,0
266.19318,266.29068,90,34,0
266.29068,266.38702,78,21,0
266.38702,266.482,90,34,0
266.482,266.57675,78,21,0
266.57675,266.67242,90,34,0
266.67242,266.76855,78,21,0
266.76855,266.86285,90,34,0
266.86285,266.95898,78,20,0
266.95898,267.05603,90,34,0
267.05603,267.15146,78,21,0
267.15146,267.24622,90,34,0
267.24622,267.34164,78,21,0
267.34164,267.4366,90,34,0
267.4366,267.5303,78,21,0
267.5303,267.62573,90,34,0
267.62573,267.7223,78,21,0
267.7223,267.81705,90,34,0
267.81705,267.9105,78,21,0
267.9105,268.00525,90,34,0
268.00525,268.10138,78,21,0
268.10138,268.1968,90,34,0
268.1968,268.29114,78,21,0
268.29114,268.38748,90,34,0
268.38748,268.48404,78,21,0
268.48404,268.57794,90,34,0
268.57794,268.6701,78,21,0
268.6701,268.76465,90,34,0
268.76465,268.86145,78,21,0
268.86145,268.9585,90,34,0
268.9585,269.05347,78,21,0
269.05347,269.1498,90,34,0
269.1498,269.2466,78,20,0
269.2466,269.3425,90,34,0
269.3425,269.43726,78,21,0
269.43726,269.532,90,34,0
269.532,269.62677,78,21,0
269.62677,269.7213,90,34,0
269.7213,269.81744,78,21,0
269.81744,269.914,90,34,0
269.914,270.00812,78,21,0
270.00812,270.10446,90,34,0
270.10446,270.20267,78,21,0
270.20267,270.2972,90,34,0
270.2972,270.39288,78,21,0
270.39288,270.48947,90,34,0
270.48947,270.58356,78,19,0
270.58356,270.6801,90,34,0
270.6801,270.77557,78,20,0
270.77557,270.87033,90,33,0
270.87033,270.96713,78,20,0
270.96713,271.06348,90,32,0
271.06348,271.1589,78,20,0
271.1589,271.25345,90,34,0
271.25345,271.3469,78,21,0
271.3469,271.44232,90,34,0
271.44232,271.53534,78,20,0
271.53534,271.62878,90,34,0
271.62878,271.7231,78,21,0
271.7231,271.817,90,34,0
271.817,271.9129,78,21,0
271.9129,272.0097,90,34,0
272.0097,272.1072,78,21,0
272.1072,272.205,90,34,0
272.205,272.3025,78,21,0
272.3025,272.4,90,34,0
272.4,272.49658,78,21,0
272.49658,272.59482,90,34,0
272.59482,272.69302,78,21,0
272.69302,272.78735,90,32,0
272.78735,272.88278,78,21,0
272.88278,272.97845,90,33,0
272.97845,273.0755,78,20,0
273.0755,273.17093,90,33,0
273.17093,273.2682,78,20,0
273.2682,273.3634,90,32,0
273.3634,273.45816,78,20,0
273.45816,273.5545,90,34,0
273.5545,273.64883,78,21,0
273.64883,273.74518,90,34,0
273.74518,273.83972,78,20,0
273.83972,273.9345,90,34,0
273.9345,274.03085,78,21,0
274.03085,274.12695,90,34,0
274.12695,274.22284,78,21,0
274.22284,274.31696,90,34,0
274.31696,274.41516,78,21,0
274.41516,274.5097,90,34,0
274.5097,274.60446,78,21,0
274.60446,274.70343,90,34,0
274.70343,274.79843,78,21,0
274.79843,274.89322,90,34,0
274.89322,274.99075,78,21,0
274.99075,275.0897,90,33,0
275.0897,275.18964,78,21,0
275.18964,275.2891,90,31,0
275.2891,275.38586,78,21,0
275.38586,275.4868,90,32,0
275.4868,275.58386,78,21,0
275.58386,275.6833,90,34,0
275.6833,275.7827,78,21,0
275.7827,275.88214,90,33,0
275.88214,275.98282,78,21,0
275.98282,276.08176,90,33,0
276.08176,276.18195,78,20,0
276.18195,276.2799,90,32,0
276.2799,276.38034,78,21,0
276.38034,276.47858,90,32,0
276.47858,276.5775,78,21,0
276.5775,276.67792,90,36,0
276.67792,276.77615,78,26,0
276.77615,276.87485,90,37,0
276.87485,276.9748,78,28,0
276.9748,277.0723,90,40,0
277.0723,277.17075,78,29,0
277.17075,277.27066,90,40,0
277.27066,277.3696,78,31,0
277.3696,277.46857,90,40,0
277.46857,277.56607,78,31,0
277.56607,277.6643,90,40,0
277.6643,277.76398,78,31,0
277.76398,277.8615,90,41,0
277.8615,277.96045,78,32,0
277.96045,278.0589,90,42,0
278.0589,278.1557,78,34,0
278.1557,278.25024,89,48,0
278.25024,278.34525,77,39,0
278.34525,278.44113,89,47,0
278.44113,278.53726,77,35,0
278.53726,278.63477,89,48,0
278.63477,278.73065,77,39,0
278.73065,278.8243,89,48,0
278.8243,278.91956,77,39,0
278.91956,279.01706,88,50,0
279.01706,279.11203,76,40,0
279.11203,279.20724,88,50,0
279.20724,279.30405,76,39,0
279.30405,279.39948,88,49,0
279.39948,279.49448,76,39,0
279.49448,279.5906,88,49,0
279.5906,279.68765,76,39,0
279.68765,279.7859,86,56,0
279.7859,279.88507,74,42,0
279.88507,279.98477,86,56,0
279.98477,280.08044,74,43,0
280.08044,280.177,86,56,0
280.177,280.27744,74,43,0
280.27744,280.3754,86,56,0
280.3754,280.47293,74,42,0
280.47293,280.56836,83,52,0
280.56836,280.66333,71,43,0
280.66333,280.76038,83,52,0
280.76038,280.8556,71,41,0
280.8556,280.9497,83,52,0
280.9497,281.0465,71,42,0
281.0465,281.1424,83,52,0
281.1424,281.23715,71,42,0
281.23715,281.33102,82,51,0
281.33102,281.42468,70,42,0
281.42468,281.51968,82,51,0
281.51968,281.6125,70,42,0
281.6125,281.70792,82,51,0
281.70792,281.80246,70,42,0
281.80246,281.8959,82,51,0
281.8959,281.99,70,41,0
281.99,282.0868,81,50,0
282.0868,282.18317,69,40,0
282.18317,282.28043,81,49,0
282.28043,282.377,69,39,0
282.377,282.47314,81,48,0
282.47314,282.56973,69,39,0
282.56973,282.66702,81,48,0
282.66702,282.76245,69,39,0
282.76245,282.86066,80,48,0
282.86066,282.95654,68,39,0
282.95654,283.052,80,48,0
283.052,283.1502,68,39,0
283.1502,283.24588,80,48,0
283.24588,283.34222,68,39,0
283.34222,283.43973,80,48,0
283.43973,283.5382,68,39,0
283.5382,283.6367,79,43,0
283.6367,283.7361,67,34,0
283.7361,283.83505,79,44,0
283.83505,283.9345,67,35,0
283.9345,284.03418,79,43,0
284.03418,284.13217,67,35,0
284.13217,284.23135,79,47,0
284.23135,284.33054,67,34,0
284.33054,284.42712,79,42,0
284.42712,284.5221,67,35,0
284.5221,284.6171,79,42,0
284.6171,284.7146,67,35,0
284.7146,284.81024,79,42,0
284.81024,284.90823,67,35,0
284.90823,285.00647,79,42,0
285.00647,285.10327,67,35,0
285.10327,285.1978,77,44,0
285.1978,285.29214,65,36,0
285.29214,285.3887,77,44,0
285.3887,285.4853,65,34,0
285.4853,285.57938,77,44,0
285.57938,285.67596,65,34,0
285.67596,285.7723,77,44,0
285.7723,285.86774,65,33,0
285.86774,285.96838,77,44,0
285.96838,286.0676,65,32,0
286.0676,286.16653,77,42,0
286.16653,286.2677,65,32,0
286.2677,286.3679,77,41,0
286.3679,286.46957,65,32,0
286.46957,286.57202,77,41,0
286.57202,286.67242,65,33,0
286.67242,286.77542,78,39,0
286.77542,286.87973,66,32,0
286.87973,286.9804,78,39,0
286.9804,287.08032,66,31,0
287.08032,287.182,78,37,0
287.182,287.28342,66,31,0
287.28342,287.3826,78,37,0
287.3826,287.4838,66,29,0
287.4838,287.58652,90,36,0
287.58652,287.68744,78,28,0
287.68744,287.78836,90,36,0
287.78836,287.8903,78,28,0
287.8903,287.99222,90,35,0
287.99222,288.0919,78,27,0
288.0919,288.19107,90,35,0
288.19107,288.2898,78,26,0
288.2898,288.38477,90,36,0
288.38477,288.4835,78,28,0
288.4835,288.57938,90,39,0
288.57938,288.6748,78,28,0
288.6748,288.7735,90,37,0
288.7735,288.86963,78,29,0
288.86963,288.96375,90,37,0
288.96375,289.05984,78,34,0
289.05984,289.15573,89,42,0
289.15573,289.24918,77,35,0
289.24918,289.34488,89,42,0
289.34488,289.4403,77,35,0
289.4403,289.53528,89,42,0
289.53528,289.63208,77,35,0
289.63208,289.72754,89,42,0
289.72754,289.8223,77,35,0
289.8223,289.9191,88,46,0
289.9191,290.01755,76,37,0
290.01755,290.11578,88,46,0
290.11578,290.21143,76,39,0
290.21143,290.31085,88,46,0
290.31085,290.41052,76,40,0
290.41052,290.5078,88,46,0
290.5078,290.60605,76,40,0
290.60605,290.7017,85,51,0
290.7017,290.79715,73,40,0
290.79715,290.8951,85,50,0
290.8951,290.99033,73,39,0
290.99033,291.0851,85,50,0
291.0851,291.18192,73,40,0
291.18192,291.27646,85,48,0
291.27646,291.3742,73,40,0
291.3742,291.47195,83,46,0
291.47195,291.56625,71,37,0
291.56625,291.6635,83,46,0
291.6635,291.7608,71,39,0
291.7608,291.85556,83,46,0
291.85556,291.95056,71,40,0
291.95056,292.04736,83,46,0
292.04736,292.14417,71,40,0
292.14417,292.2431,81,43,0
292.2431,292.34085,69,35,0
292.34085,292.43954,81,42,0
292.43954,292.53757,69,35,0
292.53757,292.63824,81,42,0
292.63824,292.73575,69,34,0
292.73575,292.83444,81,42,0
292.83444,292.93338,69,34,0
292.93338,293.0277,86,54,0
293.0277,293.12405,74,44,0
293.12405,293.21973,86,54,0
293.21973,293.31448,74,46,0
293.31448,293.41107,86,54,0
293.41107,293.50516,74,46,0
293.50516,293.59973,86,54,0
293.59973,293.6965,74,46,0
293.6965,293.79218,86,56,0
293.79218,293.8863,74,49,0
293.8863,293.98264,86,55,0
293.98264,294.08038,74,51,0
294.08038,294.1779,86,56,0
294.1779,294.27243,74,49,0
294.27243,294.3672,86,56,0
294.3672,294.46262,74,44,0
294.46262,294.5613,85,50,0
294.5613,294.65884,73,39,0
294.65884,294.75778,85,50,0
294.75778,294.85648,73,37,0
294.85648,294.95398,85,49,0
294.95398,295.05295,73,37,0
295.05295,295.15045,85,49,0
295.15045,295.24747,73,39,0
295.24747,295.34293,90,42,0
295.34293,295.43857,78,34,0
295.43857,295.53656,90,42,0
295.53656,295.63245,78,34,0
295.63245,295.72745,90,42,0
295.72745,295.8252,78,34,0
295.8252,295.92108,90,42,0
295.92108,296.01764,78,34,0
296.01764,296.1133,93,49,0
296.1133,296.20898,81,37,0
296.20898,296.30533,93,49,0
296.30533,296.39963,81,39,0
296.39963,296.49646,93,49,0
296.49646,296.5928,81,39,0
296.5928,296.68692,93,49,0
296.68692,296.78326,81,39,0
296.78326,296.88196,90,49,0
296.88196,296.97763,78,37,0
296.97763,297.0733,90,42,0
297.0733,297.1715,78,35,0
297.1715,297.26785,90,41,0
297.26785,297.36218,78,34,0
297.36218,297.4576,90,41,0
297.4576,297.5537,78,34,0
297.5537,297.6487,90,40,0
297.6487,297.7453,78,33,0
297.7453,297.84647,90,40,0
297.84647,297.9452,78,33,0
297.9452,298.04364,90,39,0
298.04364,298.14407,78,32,0
298.14407,298.24326,90,37,0
298.24326,298.34146,78,31,0
298.34146,298.4447,90,37,0
298.4447,298.5459,78,29,0
298.5459,298.64938,90,36,0
298.64938,298.7511,78,29,0
298.7511,298.85358,90,36,0
298.85358,298.9579,78,31,0
298.9579,299.05957,90,35,0
299.05957,299.16336,78,28,0
299.16336,299.2682,90,34,0
299.2682,299.3694,78,27,0
299.3694,299.47397,90,34,0
299.47397,299.5788,78,26,0
299.5788,299.67996,90,34,0
299.67996,299.78116,78,27,0
299.78116,299.88388,90,34,0
299.88388,299.98438,78,26,0
299.98438,300.07938,88,52,0
300.07938,300.1762,76,42,0
300.1762,300.27164,88,52,0
300.27164,300.36914,76,42,0
300.36914,300.4653,88,52,0
300.4653,300.56006,76,44,0
300.56006,300.6571,88,52,0
300.6571,300.75345,76,44,0
300.75345,300.84668,88,52,0
300.84668,300.94012,76,44,0
300.94012,301.03555,88,52,0
301.03555,301.13123,76,42,0
301.13123,301.22424,88,52,0
301.22424,301.319,76,43,0
301.319,301.4131,88,52,0
301.4131,301.50717,76,43,0
301.50717,301.6054,85,50,0
301.6054,301.7022,73,41,0
301.7022,301.79947,85,50,0
301.79947,301.8977,73,42,0
301.8977,301.995,85,50,0
301.995,302.09344,73,42,0
302.09344,302.19025,85,50,0
302.19025,302.28705,73,42,0
302.28705,302.38028,88,52,0
302.38028,302.47287,76,44,0
302.47287,302.56876,88,52,0
302.56876,302.66397,76,44,0
302.66397,302.7572,88,52,0
302.7572,302.8522,76,44,0
302.8522,302.94565,88,52,0
302.94565,303.03888,76,43,0
303.03888,303.13406,88,58,0
303.13406,303.22797,76,50,0
303.22797,303.3214,88,58,0
303.3214,303.4175,76,50,0
303.4175,303.51273,88,58,0
303.51273,303.60574,76,50,0
303.60574,303.69983,88,58,0
303.69983,303.7939,76,51,0
303.7939,303.89166,85,55,0
303.89166,303.9892,73,46,0
303.9892,304.08936,85,55,0
304.08936,304.18854,73,48,0
304.18854,304.28467,85,55,0
304.28467,304.3829,73,47,0
304.3829,304.48257,85,55,0
304.48257,304.58057,73,48,0
304.58057,304.676,84,56,0
304.676,304.77188,72,48,0
304.77188,304.86868,84,56,0
304.86868,304.9641,72,47,0
304.9641,305.06284,84,56,0
305.06284,305.16058,72,46,0
305.16058,305.25534,84,56,0
305.25534,305.35333,72,48,0
305.35333,305.45154,83,55,0
305.45154,305.5472,71,48,0
305.5472,305.64426,83,55,0
305.64426,305.7399,71,48,0
305.7399,305.8351,83,55,0
305.8351,305.93265,71,48,0
305.93265,306.0306,83,55,0
306.0306,306.1272,71,47,0
306.1272,306.22308,82,50,0
306.22308,306.32104,70,43,0
306.32104,306.41855,82,50,0
306.41855,306.51355,70,41,0
306.51355,306.60922,82,50,0
306.60922,306.70602,70,41,0
306.70602,306.8033,82,50,0
306.8033,306.90225,70,42,0
306.90225,306.99976,81,47,0
306.99976,307.0952,69,40,0
307.0952,307.19342,81,47,0
307.19342,307.29236,69,40,0
307.29236,307.3899,81,47,0
307.3899,307.48486,69,40,0
307.48486,307.58054,81,47,0
307.58054,307.67853,69,41,0
307.67853,307.77747,80,54,0
307.77747,307.875,68,46,0
307.875,307.97043,80,54,0
307.97043,308.06656,68,44,0
308.06656,308.16406,80,54,0
308.16406,308.26157,68,44,0
308.26157,308.35907,80,54,0
308.35907,308.45657,68,46,0
308.45657,308.5543,79,54,0
308.5543,308.6511,67,43,0
308.6511,308.74908,79,50,0
308.74908,308.84976,67,42,0
308.84976,308.9466,79,50,0
308.9466,309.0441,67,44,0
309.0441,309.14377,79,50,0
309.14377,309.2408,67,42,0
309.2408,309.34274,77,48,0
309.34274,309.44318,65,41,0
309.44318,309.5459,77,48,0
309.5459,309.64838,65,41,0
309.64838,309.74756,77,48,0
309.74756,309.85028,65,41,0
309.85028,309.9538,77,46,0
309.9538,310.05573,65,39,0
310.05573,310.16086,77,48,0
310.16086,310.26465,65,39,0
310.26465,310.37088,77,44,0
310.37088,310.47412,65,39,0
310.47412,310.58008,77,44,0
310.58008,310.68384,65,37,0
310.68384,310.7898,77,44,0
310.7898,310.89465,65,39,0
310.89465,310.99658,78,41,0
310.99658,311.09933,66,37,0
311.09933,311.20178,78,41,0
311.20178,311.3017,66,36,0
311.3017,311.40494,78,41,0
311.40494,311.50845,66,34,0
311.50845,311.60965,78,40,0
311.60965,311.71082,66,34,0
311.71082,311.81174,78,40,0
311.81174,311.91214,66,32,0
311.91214,312.01486,78,40,0
312.01486,312.11578,66,32,0
312.11578,312.2152,78,39,0
312.2152,312.31793,66,31,0
312.31793,312.42014,78,39,0
312.42014,312.5208,66,31,0
312.5208,312.62073,78,39,0
312.62073,312.71848,66,28,0
312.71848,312.81912,78,37,0
312.81912,312.91956,66,28,0
312.91956,313.0173,78,37,0
313.0173,313.1185,66,28,0
313.1185,313.21866,78,34,0
313.21866,313.31833,66,25,0
313.31833,313.41608,78,37,0
313.31833,313.51526,66,43,0
313.41608,313.51526,66,25,0
313.51526,313.61493,78,37,0
313.61493,313.71268,66,25,0
313.71268,313.81287,78,37,0
313.81287,313.9123,66,25,0
313.9123,314.0091,78,37,0
314.0091,314.1061,66,25,0
314.1061,314.2027,78,37,0
314.2027,314.29767,66,25,0
314.29767,314.39496,78,37,0
314.39496,314.4927,66,25,0
314.4927,314.58905,78,37,0
314.58905,314.688,66,25,0
314.688,314.78693,78,37,0
314.78693,314.8835,66,25,0
314.8835,314.97873,78,37,0
314.97873,315.07217,66,25,0
315.07217,315.16785,78,37,0
315.16785,315.26535,66,25,0
315.26535,315.361,78,37,0
315.361,315.45645,66,25,0
315.45645,315.55325,78,37,0
315.55325,315.64914,66,25,0
313.31833,315.64914,76,52,0
315.64914,315.7428,78,50,0
315.7428,315.8356,66,25,0
315.8356,315.93057,78,37,0
315.93057,316.0267,66,25,0
316.0267,316.12015,78,37,0
316.12015,316.2147,66,25,0
316.2147,316.3115,78,37,0
316.3115,316.4054,66,25,0
316.4054,316.5015,78,37,0
316.5015,316.59808,66,25,0
316.59808,316.69217,78,37,0
316.69217,316.7867,66,25,0
316.7867,316.88126,78,37,0
316.88126,316.97427,66,25,0
316.97427,317.06747,78,37,0
317.06747,317.16095,66,25,0
315.64914,317.16095,74,50,0
313.31833,317.16095,72,52,0
317.16095,317.2573,78,48,0
317.2573,317.35248,66,25,0
317.35248,317.44907,78,37,0
317.44907,317.54382,66,25,0
317.54382,317.64038,78,37,0
317.64038,317.73697,66,25,0
317.73697,317.83218,78,37,0
317.83218,317.92828,66,25,0
317.16095,317.92828,72,48,0
317.92828,318.12454,66,37,0
318.02725,318.12454,66,25,0
317.92828,318.21997,78,48,0
318.12454,318.21997,78,37,0
318.21997,318.31747,66,25,0
318.31747,318.4164,78,37,0
318.4164,318.51163,66,25,0
318.51163,318.6066,78,37,0
318.6066,318.70273,66,25,0
317.92828,318.70273,70,37,0
317.92828,318.70273,73,37,0
318.70273,318.79532,78,32,0
318.79532,318.88855,66,20,0
318.88855,318.9831,78,32,0
318.9831,319.0761,66,20,0
319.0761,319.1702,78,32,0
319.1702,319.26453,66,20,0
319.26453,319.3586,78,32,0
319.3586,319.4527,66,21,0
319.4527,319.54813,78,33,0
319.54813,319.64114,66,21,0
319.64114,319.73843,78,33,0
319.73843,319.83548,66,21,0
319.83548,319.93,78,33,0
319.93,320.0268,66,21,0
320.0268,320.12292,78,33,0
320.12292,320.21814,66,21,0
320.21814,320.31223,78,34,0
320.31223,320.40546,66,23,0
320.40546,320.50134,78,34,0
320.50134,320.59613,66,23,0
320.59613,320.69022,78,34,0
320.69022,320.78564,66,23,0
320.78564,320.8802,78,34,0
320.8802,320.97363,66,23,0
320.97363,321.06665,78,35,0
321.06665,321.16074,66,23,0
321.16074,321.25595,78,35,0
321.25595,321.34875,66,23,0
321.34875,321.44308,78,35,0
321.44308,321.53784,66,23,0
321.53784,321.6313,78,35,0
321.6313,321.72406,66,24,0
321.72406,321.825,78,36,0
321.825,321.92618,66,24,0
321.92618,322.0274,78,36,0
322.0274,322.12988,66,24,0
322.12988,322.22983,78,36,0
322.22983,322.331,66,24,0
322.331,322.43066,78,36,0
322.43066,322.5311,66,24,0
322.5311,322.62744,78,37,0
322.5311,322.72614,66,43,0
322.62744,322.72614,66,21,0
322.72614,322.82388,78,32,0
322.82388,322.92233,66,20,0
322.92233,323.01846,78,32,0
323.01846,323.11765,66,21,0
323.11765,323.21588,78,32,0
323.21588,323.31268,66,21,0
323.31268,323.40878,78,33,0
323.40878,323.5063,66,21,0
323.5063,323.60266,78,34,0
323.60266,323.69925,66,21,0
323.69925,323.7982,78,34,0
323.7982,323.89407,66,21,0
323.89407,323.99088,78,35,0
323.99088,324.0877,66,23,0
324.0877,324.18246,78,35,0
324.18246,324.27927,66,23,0
324.27927,324.37515,78,35,0
324.37515,324.47104,66,23,0
324.47104,324.56717,78,35,0
324.56717,324.66125,66,25,0
324.66125,324.75714,78,36,0
324.75714,324.85303,66,25,0
322.5311,324.85303,76,52,0
324.85303,324.94583,78,50,0
324.94583,325.0397,66,25,0
325.0397,325.13492,78,37,0
325.13492,325.22836,66,25,0
325.22836,325.3218,78,37,0
325.3218,325.41614,66,25,0
325.41614,325.50937,78,37,0
325.50937,325.605,66,25,0
325.605,325.69803,78,36,0
325.69803,325.79282,66,25,0
325.79282,325.88736,78,36,0
325.88736,325.98016,66,25,0
325.98016,326.0758,78,37,0
326.0758,326.16946,66,25,0
326.16946,326.26422,78,37,0
326.26422,326.35898,66,25,0
324.85303,326.35898,74,50,0
322.5311,326.35898,72,52,0
326.35898,326.45398,78,48,0
326.45398,326.55032,66,21,0
326.55032,326.6474,78,36,0
326.6474,326.7417,66,21,0
326.7417,326.8385,78,37,0
326.8385,326.93747,66,21,0
326.93747,327.03452,78,34,0
327.03452,327.12973,66,25,0
326.35898,327.12973,72,48,0
327.12973,327.32593,66,37,0
327.22842,327.32593,66,25,0
327.12973,327.4214,78,48,0
327.32593,327.4214,78,37,0
327.4214,327.5168,66,25,0
327.5168,327.61432,78,36,0
327.61432,327.71066,66,25,0
327.71066,327.8061,78,34,0
327.8061,327.90222,66,25,0
327.12973,327.90222,70,37,0
327.12973,327.90222,73,37,0
327.90222,327.99374,78,32,0
327.99374,328.08875,66,20,0
328.08875,328.18393,78,32,0
328.18393,328.27695,66,20,0
328.27695,328.37308,78,32,0
328.37308,328.4672,66,20,0
328.4672,328.56085,78,32,0
328.56085,328.65494,66,21,0
328.65494,328.75128,78,33,0
328.75128,328.84695,66,21,0
328.84695,328.94284,78,33,0
328.94284,329.03894,66,21,0
329.03894,329.13483,78,33,0
329.13483,329.23212,66,21,0
329.23212,329.32962,78,33,0
329.32962,329.42712,66,21,0
329.42712,329.52164,78,34,0
329.52164,329.61755,66,23,0
329.61755,329.71344,78,34,0
329.71344,329.80774,66,23,0
329.80774,329.90363,78,34,0
329.90363,330.0002,66,23,0
330.0002,330.0945,78,34,0
330.0945,330.18884,66,23,0
330.18884,330.2823,78,35,0
330.2823,330.37683,66,23,0
330.37683,330.46964,78,35,0
330.46964,330.56375,66,23,0
330.56375,330.6583,78,35,0
330.6583,330.75305,66,23,0
330.75305,330.84738,78,35,0
330.84738,330.942,66,24,0
330.942,331.04022,78,36,0
331.04022,331.1382,66,24,0
331.1382,331.23596,78,36,0
331.23596,331.3349,66,24,0
331.3349,331.4324,78,36,0
331.4324,331.52808,66,24,0
331.52808,331.62607,78,36,0
331.62607,331.72452,66,24,0
331.72452,331.8211,78,37,0
331.72452,331.91812,66,43,0
331.8211,331.91812,66,25,0
331.91812,332.01755,78,37,0
332.01755,332.11438,66,25,0
332.11438,332.21097,78,37,0
332.21097,332.30966,66,25,0
332.30966,332.40717,78,37,0
332.40717,332.50467,66,25,0
332.50467,332.60034,78,37,0
332.60034,332.69806,66,25,0
332.69806,332.79352,78,37,0
332.79352,332.88852,66,25,0
332.88852,332.98627,78,37,0
332.98627,333.0819,66,25,0
333.0819,333.1794,78,37,0
333.1794,333.27646,66,25,0
333.27646,333.37305,78,37,0
333.37305,333.46988,66,25,0
333.46988,333.56714,78,37,0
333.56714,333.661,66,25,0
333.661,333.756,78,39,0
333.756,333.85214,66,25,0
333.85214,333.9458,78,39,0
333.9458,334.0419,66,25,0
331.72452,334.0419,75,52,0
334.0419,334.13712,78,47,0
334.13712,334.23233,66,25,0
334.23233,334.32913,78,36,0
334.32913,334.42526,66,25,0
334.42526,334.52115,78,36,0
334.52115,334.61865,66,23,0
334.61865,334.71475,78,34,0
334.71475,334.81274,66,25,0
334.81274,334.91168,78,35,0
334.91168,335.00757,66,23,0
335.00757,335.10303,78,34,0
335.10303,335.20053,66,21,0
335.20053,335.2971,78,34,0
335.2971,335.39185,66,23,0
335.39185,335.4882,78,33,0
335.4882,335.585,66,23,0
334.0419,335.585,69,47,0
335.585,335.68134,78,40,0
335.68134,335.77817,66,25,0
335.77817,335.87427,78,32,0
335.87427,335.97018,66,21,0
335.97018,336.06863,78,32,0
336.06863,336.16617,66,20,0
336.16617,336.26205,78,34,0
336.26205,336.35956,66,23,0
335.585,336.35956,70,40,0
331.72452,336.35956,73,52,0
336.35956,336.5527,66,33,0
336.4559,336.5527,66,25,0
336.35956,336.64883,78,42,0
336.5527,336.64883,78,36,0
336.64883,336.74634,66,24,0
336.74634,336.84457,78,35,0
336.84457,336.94208,66,24,0
336.94208,337.03818,78,35,0
337.03818,337.13498,66,24,0
337.13498,337.22952,78,37,0
337.22952,337.32233,66,23,0
337.32233,337.41623,78,35,0
337.41623,337.51303,66,23,0
337.51303,337.60916,78,34,0
337.60916,337.7024,66,23,0
337.7024,337.79648,78,34,0
337.79648,337.89056,66,23,0
336.35956,337.89056,70,33,0
336.35956,337.89056,73,33,0
337.89056,337.986,78,33,0
337.986,338.0812,66,21,0
338.0812,338.178,78,33,0
338.178,338.2739,66,21,0
338.2739,338.3698,78,33,0
338.3698,338.46802,66,21,0
338.46802,338.5639,78,32,0
338.5639,338.65958,66,20,0
338.65958,338.75412,78,32,0
338.75412,338.8507,66,20,0
338.8507,338.9475,78,32,0
338.9475,339.0425,66,20,0
339.0425,339.13977,78,32,0
339.13977,339.235,66,20,0
339.235,339.33112,78,32,0
339.33112,339.42722,66,20,0
339.42722,339.5213,78,32,0
339.5213,339.61588,66,20,0
339.61588,339.70996,78,32,0
339.70996,339.80518,66,20,0
339.80518,339.89926,78,32,0
339.89926,339.9956,66,20,0
339.9956,340.09015,78,32,0
340.09015,340.18423,66,20,0
340.18423,340.28268,78,32,0
340.28268,340.37997,66,20,0
340.37997,340.47867,78,32,0
340.47867,340.5776,66,20,0
340.5776,340.6744,78,32,0
340.6744,340.77194,66,20,0
340.77194,340.8709,78,32,0
340.8709,340.96747,66,20,0
340.96747,341.06573,78,37,0
340.96747,341.16516,66,43,0
341.06573,341.16516,66,25,0
341.16516,341.26196,78,37,0
341.26196,341.36066,66,25,0
341.36066,341.4591,78,37,0
341.4591,341.5559,66,25,0
341.5559,341.65414,78,37,0
341.65414,341.75143,66,25,0
341.75143,341.8464,78,37,0
341.8464,341.9428,66,25,0
341.9428,342.0401,78,37,0
342.0401,342.1344,66,25,0
342.1344,342.2319,78,37,0
342.2319,342.3278,66,25,0
342.3278,342.42325,78,37,0
342.42325,342.51913,66,25,0
342.51913,342.61502,78,37,0
342.61502,342.70956,66,25,0
342.70956,342.80682,78,37,0
342.80682,342.90158,66,25,0
342.90158,342.99817,78,39,0
342.99817,343.09314,66,25,0
343.09314,343.18927,78,39,0
343.18927,343.2847,66,25,0
340.96747,343.2847,75,52,0
343.2847,343.37772,78,47,0
343.37772,343.47205,66,25,0
343.47205,343.5668,78,37,0
343.5668,343.66025,66,25,0
343.66025,343.75525,78,37,0
343.75525,343.8489,66,25,0
343.8489,343.9448,78,37,0
343.9448,344.03976,66,25,0
344.03976,344.13278,78,37,0
344.13278,344.22754,66,25,0
344.22754,344.32166,78,37,0
344.32166,344.4138,66,25,0
344.4138,344.50925,78,37,0
344.50925,344.60422,66,25,0
344.60422,344.69812,78,37,0
344.69812,344.79288,66,25,0
343.2847,344.79288,69,47,0
344.79288,344.88742,78,40,0
344.88742,344.98492,66,25,0
344.98492,345.08386,78,35,0
345.08386,345.1802,66,25,0
345.1802,345.2775,78,34,0
345.2775,345.37387,66,25,0
345.37387,345.47256,78,34,0
345.47256,345.56845,66,25,0
344.79288,345.56845,70,40,0
340.96747,345.56845,73,52,0
345.56845,345.7623,66,33,0
345.6662,345.7623,66,25,0
345.56845,345.85867,78,42,0
345.7623,345.85867,78,36,0
345.85867,345.9557,66,24,0
345.9557,346.05157,78,35,0
346.05157,346.14816,66,24,0
346.14816,346.24496,78,35,0
346.24496,346.34177,66,24,0
346.34177,346.43585,78,37,0
346.43585,346.52908,66,23,0
346.52908,346.6245,78,35,0
346.6245,346.71838,66,23,0
346.71838,346.81314,78,34,0
346.81314,346.9077,66,23,0
346.9077,347.0027,78,34,0
347.0027,347.09836,66,23,0
345.56845,347.09836,70,33,0
345.56845,347.09836,73,33,0
347.09836,347.1954,78,33,0
347.1954,347.2915,66,21,0
347.2915,347.38904,78,33,0
347.38904,347.48517,66,21,0
347.48517,347.58173,78,33,0
347.58173,347.67972,66,21,0
347.67972,347.7763,78,32,0
347.7763,347.87173,66,20,0
347.87173,347.9665,78,32,0
347.9665,348.06308,66,20,0
348.06308,348.15897,78,32,0
348.15897,348.25284,66,20,0
348.25284,348.34857,78,32,0
348.34857,348.44537,66,20,0
348.44537,348.54013,78,32,0
348.54013,348.6358,66,20,0
348.6358,348.73056,78,32,0
348.73056,348.8251,66,20,0
348.8251,348.9203,78,32,0
348.9203,349.0131,66,20,0
349.0131,349.10724,78,32,0
349.10724,349.20157,66,20,0
349.20157,349.29675,78,32,0
349.29675,349.39337,66,20,0
349.39337,349.49133,78,32,0
349.49133,349.58746,66,20,0
349.58746,349.68597,78,32,0
349.68597,349.78372,66,20,0
349.78372,349.88242,78,32,0
349.88242,349.9826,66,20,0
349.9826,350.07986,78,32,0
350.07986,350.17667,66,20,0
350.17667,350.36755,66,33,0
350.27255,350.36755,66,25,0
350.17667,350.4658,78,42,0
350.36755,350.4658,78,37,0
350.4658,350.56122,66,25,0
350.56122,350.6569,78,36,0
350.6569,350.75464,66,25,0
350.75464,350.85098,78,36,0
350.85098,350.9485,66,25,0
350.9485,351.0428,78,32,0
351.0428,351.13867,66,19,0
351.13867,351.23322,78,29,0
351.23322,351.32605,66,19,0
351.32605,351.42123,78,29,0
351.42123,351.51492,66,19,0
351.51492,351.60968,78,29,0
351.60968,351.7051,66,19,0
351.7051,351.80167,78,31,0
351.80167,351.89825,66,20,0
351.89825,351.99554,78,31,0
351.99554,352.0912,66,20,0
352.0912,352.18802,78,31,0
352.18802,352.283,66,20,0
352.283,352.37912,78,31,0
352.37912,352.47522,66,20,0
352.47522,352.56976,78,31,0
352.56976,352.6659,66,20,0
352.6659,352.75912,78,31,0
352.75912,352.8539,66,20,0
352.8539,352.95,78,32,0
352.95,353.0439,66,20,0
353.0439,353.13934,78,32,0
353.13934,353.23477,66,20,0
353.23477,353.3337,78,32,0
353.3337,353.4305,66,20,0
353.4305,353.529,78,32,0
353.529,353.62674,66,20,0
353.62674,353.72546,78,32,0
353.72546,353.82663,66,21,0
353.82663,353.9244,78,32,0
353.9244,354.02362,66,21,0
350.17667,354.02362,71,33,0
350.17667,354.02362,75,42,0
354.02362,354.1243,78,33,0
354.1243,354.22522,66,21,0
354.22522,354.3269,78,33,0
354.3269,354.42615,66,21,0
354.42615,354.5294,78,33,0
354.5294,354.63284,66,21,0
354.63284,354.73846,78,33,0
354.73846,354.84485,66,21,0
354.84485,354.94122,78,32,0
354.94122,355.03757,66,19,0
355.03757,355.13312,78,33,0
355.13312,355.22906,66,19,0
355.22906,355.32483,78,32,0
355.32483,355.42038,66,19,0
355.42038,355.51413,78,32,0
355.51413,355.608,66,20,0
355.608,355.70102,78,34,0
355.70102,355.79532,66,20,0
355.79532,355.88855,78,32,0
355.88855,355.98398,66,20,0
355.98398,356.07635,78,31,0
356.07635,356.1707,66,20,0
356.1707,356.26477,78,31,0
356.26477,356.35843,66,20,0
356.35843,356.45343,78,29,0
356.45343,356.54865,66,19,0
356.54865,356.64233,78,29,0
356.64233,356.73663,66,18,0
356.73663,356.82944,78,29,0
356.82944,356.9249,66,18,0
356.9249,357.0192,78,28,0
357.0192,357.1122,66,18,0
357.1122,357.20764,78,27,0
357.20764,357.30197,66,18,0
357.30197,357.395,78,27,0
357.395,357.4902,66,17,0
357.4902,357.58408,78,26,0
357.58408,357.6756,66,17,0
357.6756,357.7704,78,26,0
357.7704,357.8651,66,17,0
357.8651,357.96158,78,24,0
357.96158,358.05585,66,16,0
358.05585,358.15015,78,24,0
358.15015,358.2437,66,15,0
358.2437,358.33728,78,24,0
358.33728,358.43256,66,15,0
358.43256,358.52655,78,23,0
358.52655,358.62003,66,15,0
358.62003,358.71548,78,22,0
358.71548,358.80917,66,15,0
358.80917,358.90265,78,22,0
358.90265,358.99786,66,14,0
358.99786,359.09097,78,22,0
359.09097,359.1831,66,14,0
359.1831,359.2782,78,22,0
359.2782,359.37323,66,14,0
359.37323,359.47006,78,22,0
359.47006,359.5688,66,15,0
359.5688,359.6644,78,22,0
359.6644,359.7594,66,14,0
359.7594,359.85403,78,22,0
359.85403,359.94736,66,14,0
359.94736,360.04285,78,22,0
360.04285,360.13828,66,14,0
360.13828,360.2356,78,20,0
360.2356,360.3307,66,13,0
360.3307,360.42792,78,20,0
360.42792,360.52847,66,12,0
360.52847,360.62784,78,20,0
360.62784,360.72772,66,12,0
360.72772,360.8278,78,19,0
360.8278,360.92758,66,12,0
360.92758,361.03027,78,18,0
361.03027,361.13065,66,12,0
361.13065,361.22977,78,18,0
361.22977,361.3302,66,11,0
361.3302,361.43066,78,18,0
361.43066,361.532,66,11,0
361.532,361.63248,78,18,0
361.63248,361.7352,66,11,0
0.00125,0.62625,55,68,0
0.6,1.2245098,53,64,0
1.2,1.8122735,58,67,0
1.788235,2.1009684,60,65,0
2.0766964,2.3924682,65,55,0
2.3679585,2.9801168,62,65,0
2.9561934,3.2677848,60,64,0
3.243275,3.5623925,65,55,0
3.5373926,4.1623926,62,64,0
4.1373925,4.6998925,58,65,0
4.7373924,5.3623924,60,65,0
5.3373923,5.9637084,55,62,0
5.9373927,6.5294976,53,61,0
6.5689716,7.1689715,43,62,0
6.5689716,7.1689715,55,74,0
7.1689715,7.7689714,45,58,0
7.1689715,7.7689714,53,69,0
7.7689714,8.354338,43,58,0
7.7689714,8.354338,55,69,0
8.354338,8.951367,41,56,0
8.354338,8.951367,53,66,0
8.951367,9.5425,38,51,0
8.951367,9.5425,50,60,0
9.5425,10.136559,53,69,0
9.5425,10.136559,41,58,0
10.136559,10.698564,58,67,0
10.136559,10.698564,46,56,0
10.736064,11.336064,55,63,0
10.736064,11.336064,43,53,0
11.336064,11.936064,48,67,0
11.336064,11.936064,36,56,0
11.936064,12.536064,40,49,0
11.936064,12.536064,52,58,0
12.536064,13.144173,41,47,0
12.536064,13.144173,53,56,0
13.184713,13.809713,53,70,0
13.784713,14.409713,55,66,0
14.384713,15.000856,50,63,0
14.976584,15.292478,53,65,0
15.267847,15.588044,55,55,0
15.563414,16.178701,48,61,0
16.154547,16.468792,55,61,0
16.4444,16.76221,57,54,0
16.737083,17.30241,53,60,0
17.3401,17.9401,41,73,0
17.3401,17.9401,29,62,0
17.9401,18.528334,46,69,0
17.9401,18.528334,34,58,0
18.528334,18.819597,33,56,0
18.528334,18.819597,45,67,0
18.819597,19.113714,43,64,0
18.819597,19.113714,31,54,0
19.113714,19.690638,41,61,0
19.113714,19.690638,29,51,0
19.7291,20.3541,53,70,0
20.3291,20.95373,55,66,0
20.929098,21.544504,50,64,0
21.520231,21.835884,53,65,0
21.811493,22.128807,55,58,0
22.104177,22.719582,51,64,0
22.69531,23.011202,58,71,0
22.986572,23.306768,60,60,0
23.282139,23.836325,56,60,0
23.873272,24.47327,32,62,0
23.873272,24.47327,44,73,0
24.47327,25.07327,49,68,0
24.47327,25.07327,37,57,0
25.07327,25.368837,48,67,0
25.07327,25.368837,36,56,0
25.368837,25.664404,34,51,0
25.368837,25.664404,46,63,0
25.664404,26.25651,44,64,0
25.664404,26.25651,32,54,0
26.295984,26.895983,42,44,0
26.295984,26.895983,30,37,0
26.895983,27.495983,30,33,0
26.895983,27.495983,42,39,0
27.495983,28.095984,41,40,0
27.495983,28.095984,29,34,0
28.095984,28.6743,42,44,0
28.095984,28.6743,30,37,0
28.6743,29.254023,30,34,0
28.6743,29.254023,42,41,0
29.254023,29.548141,42,41,0
29.254023,29.548141,54,49,0
29.548141,29.849648,51,46,0
29.548141,29.849648,39,39,0
29.849648,30.13811,53,55,0
29.849648,30.13811,41,46,0
30.13811,30.430794,39,42,0
30.13811,30.430794,51,50,0
30.430794,30.719254,49,55,0
30.430794,30.719254,37,46,0
30.719254,31.007715,25,46,0
30.719254,31.007715,37,55,0
31.007715,31.294798,39,47,0
31.007715,31.294798,51,56,0
31.294798,31.581879,41,43,0
31.294798,31.581879,53,51,0
31.581879,31.874561,44,47,0
31.581879,31.874561,56,56,0
31.874561,32.167244,32,47,0
31.874561,32.167244,44,56,0
32.167244,32.459927,46,46,0
32.167244,32.459927,34,39,0
32.459927,32.75261,49,46,0
32.459927,32.75261,37,39,0
32.75261,33.045296,48,51,0
32.75261,33.045296,36,43,0
33.045296,33.351418,44,48,0
33.045296,33.351418,32,40,0
33.351418,33.951416,42,42,0
33.351418,33.951416,30,35,0
33.951416,34.551414,42,37,0
33.951416,34.551414,30,31,0
34.551414,35.151417,30,37,0
34.551414,35.151417,42,44,0
35.151417,35.732533,42,42,0
35.151417,35.732533,30,35,0
35.732533,36.02239,42,38,0
35.732533,36.02239,54,45,0
36.331665,36.931667,34,34,0
36.331665,36.931667,46,41,0
36.931667,37.531666,34,32,0
36.931667,37.531666,46,38,0
37.531666,38.1228,45,40,0
37.531666,38.1228,33,34,0
38.1228,38.708164,46,42,0
38.1228,38.708164,34,35,0
38.708164,39.293533,46,41,0
38.708164,39.293533,34,34,0
39.293533,39.84231,46,34,0
39.293533,39.84231,58,41,0
39.8789,40.165977,45,52,0
39.8789,40.165977,57,62,0
40.165977,40.458664,55,56,0
40.165977,40.458664,43,47,0
40.458664,40.747124,53,61,0
40.458664,40.747124,41,51,0
40.747124,41.031483,41,56,0
40.747124,41.031483,29,47,0
41.031483,41.319946,55,61,0
41.031483,41.319946,43,51,0
41.319946,41.611206,45,47,0
41.319946,41.611206,57,56,0
41.611206,41.901062,60,62,0
41.611206,41.901062,48,52,0
41.901062,42.193745,48,58,0
41.901062,42.193745,36,49,0
42.193745,42.495255,50,60,0
42.193745,42.495255,38,51,0
42.495255,42.79676,53,60,0
42.495255,42.79676,41,51,0
42.79676,43.09527,52,58,0
42.79676,43.09527,40,49,0
43.09527,43.399837,36,49,0
43.09527,43.399837,48,58,0
43.399837,43.999836,46,42,0
43.399837,43.999836,34,35,0
43.999836,44.599834,34,35,0
43.999836,44.599834,46,42,0
44.599834,45.199837,46,44,0
44.599834,45.199837,34,37,0
45.199837,45.780952,46,42,0
45.199837,45.780952,34,35,0
45.780952,46.07081,46,38,0
45.780952,46.07081,58,45,0
46.37384,46.959206,45,43,0
46.37384,46.959206,57,51,0
46.959206,47.55034,50,46,0
46.959206,47.55034,62,46,0
47.55034,48.138573,45,43,0
47.55034,48.138573,57,51,0
48.138573,48.73857,55,44,0
48.138573,48.73857,43,37,0
48.73857,49.32394,53,50,0
48.73857,49.32394,41,42,0
49.32394,49.92394,43,37,0
49.32394,49.92394,55,44,0
49.92394,50.51507,38,44,0
49.92394,50.51507,50,52,0
50.51507,51.06926,55,49,0
50.51507,51.06926,43,41,0
51.106205,51.700512,50,52,0
51.106205,51.700512,38,44,0
51.700512,52.303524,43,35,0
51.700512,52.303524,55,42,0
52.303524,52.890354,50,52,0
52.303524,52.890354,38,44,0
52.890354,53.45568,55,48,0
52.890354,53.45568,43,40,0
53.49337,54.08743,48,51,0
53.49337,54.08743,36,43,0
54.08743,54.687428,41,41,0
54.08743,54.687428,53,49,0
54.687428,55.287426,43,35,0
54.687428,55.287426,55,42,0
55.287426,55.87856,48,50,0
55.287426,55.87856,36,42,0
55.87856,56.443886,41,40,0
55.87856,56.443886,53,48,0
56.481575,57.065605,55,56,0
56.481575,57.065605,43,47,0
57.065605,57.65674,29,51,0
57.065605,57.65674,41,60,0
57.65674,58.24362,43,67,0
57.65674,58.24362,31,56,0
58.24362,58.536304,45,62,0
58.24362,58.536304,33,52,0
58.536304,58.833332,34,47,0
58.536304,58.833332,46,56,0
58.833332,59.42739,33,54,0
58.833332,59.42739,45,64,0
59.42739,60.02145,46,66,0
59.42739,60.02145,34,56,0
60.02145,60.61551,33,56,0
60.02145,60.61551,45,66,0
60.61551,61.21551,43,63,0
60.61551,61.21551,31,53,0
61.21551,61.77801,29,56,0
61.21551,61.77801,41,67,0
61.81551,62.39108,43,63,0
61.81551,62.39108,31,53,0
62.39108,62.676796,33,52,0
62.39108,62.676796,45,62,0
62.676796,62.96948,34,46,0
62.676796,62.96948,46,55,0
62.96948,63.554844,45,62,0
62.96948,63.554844,33,52,0
63.554844,64.15786,46,68,0
63.554844,64.15786,34,57,0
64.15786,64.76087,33,57,0
64.15786,64.76087,45,68,0
64.76087,65.35741,31,58,0
64.76087,65.35741,43,69,0
65.35741,65.91991,29,56,0
65.35741,65.91991,41,66,0
65.957405,66.55741,31,58,0
65.957405,66.55741,43,69,0
66.55741,67.11991,41,66,0
66.55741,67.11991,29,56,0
67.15741,67.75741,55,69,0
67.75741,68.308876,53,68,0
68.34564,68.94564,55,66,0
68.34564,68.94564,43,56,0
68.94564,69.54761,41,57,0
68.94564,69.54761,53,68,0
69.54761,70.15674,55,62,0
69.54761,70.15674,43,52,0
70.15674,70.756744,45,57,0
70.15674,70.756744,57,68,0
70.756744,71.327805,46,52,0
70.756744,71.327805,58,62,0
71.365875,71.97501,43,52,0
71.365875,71.97501,55,62,0
71.97501,72.58415,39,54,0
71.97501,72.58415,51,64,0
72.58415,73.19329,52,58,0
72.58415,73.19329,40,49,0
73.19329,73.77619,41,48,0
73.19329,73.77619,53,57,0
73.81505,74.42419,46,69,0
73.81505,74.42419,34,58,0
74.42419,75.033325,45,66,0
74.42419,75.033325,33,56,0
75.033325,75.64246,31,56,0
75.033325,75.64246,43,67,0
75.64246,76.26422,29,57,0
75.64246,76.26422,41,68,0
76.26422,76.83529,46,64,0
76.26422,76.83529,34,54,0
76.87336,77.495125,33,57,0
76.87336,77.495125,45,68,0
77.495125,78.06619,46,64,0
77.495125,78.06619,34,54,0
78.10426,78.72602,43,51,0
78.10426,78.72602,55,60,0
78.72602,80.00262,36,56,0
78.72602,80.00262,48,67,0
80.00262,81.32858,41,51,0
80.00262,81.32858,53,61,0
81.32858,81.66007,46,58,0
81.32858,81.66007,58,69,0
85.50064,85.6315,67,69,0
85.50064,85.6315,63,69,0
85.6315,85.76235,58,56,0
85.76235,85.82778,67,61,0
85.76235,85.82778,63,61,0
85.89321,85.96039,67,61,0
85.89321,85.96039,63,61,0
86.02757,86.158424,67,67,0
86.02757,86.158424,63,67,0
86.158424,86.28928,58,55,0
86.28928,86.35471,67,61,0
86.28928,86.35471,63,61,0
86.420135,86.48703,67,61,0
86.420135,86.48703,63,61,0
86.553925,86.68478,67,69,0
86.553925,86.68478,63,69,0
86.68478,86.815636,58,55,0
86.815636,86.881065,67,59,0
86.815636,86.881065,63,59,0
86.94649,87.01308,67,58,0
86.94649,87.01308,63,58,0
87.079666,87.210526,67,61,0
87.079666,87.210526,63,61,0
87.210526,87.341385,58,49,0
87.341385,87.40681,67,55,0
87.341385,87.40681,63,55,0
87.47224,87.53913,67,55,0
87.47224,87.53913,63,55,0
87.606026,87.67145,67,56,0
87.606026,87.67145,63,56,0
87.73688,87.80231,67,52,0
87.73688,87.80231,63,52,0
87.86774,87.93316,67,56,0
87.86774,87.93316,63,56,0
87.99859,88.06402,67,50,0
87.99859,88.06402,63,50,0
88.12945,88.19487,67,56,0
88.12945,88.19487,63,56,0
88.2603,88.32573,67,52,0
88.2603,88.32573,63,52,0
88.39116,88.45658,67,56,0
88.39116,88.45658,63,56,0
88.52201,88.58744,67,50,0
88.52201,88.58744,63,50,0
88.65287,88.71829,67,56,0
88.65287,88.71829,70,56,0
88.78372,88.84804,67,50,0
88.78372,88.84804,70,50,0
88.912346,88.978355,67,59,0
88.912346,88.978355,70,59,0
89.044365,89.11008,67,51,0
89.044365,89.11008,70,51,0
89.1758,89.24123,67,58,0
89.1758,89.24123,70,58,0
89.30665,89.37208,70,53,0
89.30665,89.37208,67,53,0
89.43751,89.50294,67,56,0
89.43751,89.50294,70,56,0
89.56836,89.63379,67,51,0
89.56836,89.63379,70,51,0
89.69922,89.7961,71,54,0
89.69922,89.7961,68,54,0
89.82839,89.928276,71,48,0
89.82839,89.928276,68,48,0
89.96157,90.059715,75,54,0
89.96157,90.059715,71,54,0
90.09243,90.190575,75,49,0
90.09243,90.190575,71,49,0
90.22328,90.32059,71,55,0
90.22328,90.32059,68,55,0
90.35302,90.450325,71,51,0
90.35302,90.450325,68,51,0
90.48276,90.580894,75,54,0
90.48276,90.580894,71,54,0
90.61361,90.71349,75,51,0
90.61361,90.71349,71,51,0
90.74679,90.84367,74,54,0
90.74679,90.84367,68,54,0
90.87597,90.97631,74,39,0
90.87597,90.97631,68,39,0
91.00975,91.107056,74,51,0
91.00975,91.107056,68,51,0
91.13949,91.23983,74,39,0
91.13949,91.23983,68,39,0
91.27328,91.370995,70,49,0
91.27328,91.370995,65,49,0
91.40357,91.503456,70,37,0
91.40357,91.503456,65,37,0
91.53675,91.634895,70,46,0
91.53675,91.634895,65,46,0
91.66761,91.767944,70,35,0
91.66761,91.767944,65,35,0
91.80139,91.86682,67,56,0
91.80139,91.86682,63,56,0
91.93225,91.99767,67,52,0
91.93225,91.99767,63,52,0
92.0631,92.12853,67,56,0
92.0631,92.12853,63,56,0
92.19396,92.25939,67,50,0
92.19396,92.25939,63,50,0
92.324814,92.39024,67,56,0
92.324814,92.39024,63,56,0
92.45567,92.5211,67,52,0
92.45567,92.5211,63,52,0
92.586525,92.651955,67,56,0
92.586525,92.651955,63,56,0
92.717384,92.782814,67,50,0
92.717384,92.782814,63,50,0
92.848236,92.913666,67,56,0
92.848236,92.913666,70,56,0
92.979095,93.0434,67,50,0
92.979095,93.0434,70,50,0
93.10772,93.17265,67,59,0
93.10772,93.17265,70,59,0
93.23759,93.3033,67,51,0
93.23759,93.3033,70,51,0
93.36902,93.43445,67,58,0
93.36902,93.43445,70,58,0
93.49987,93.5653,67,53,0
93.49987,93.5653,70,53,0
93.63073,93.69616,67,56,0
93.63073,93.69616,70,56,0
93.76158,93.82906,67,51,0
93.76158,93.82906,70,51,0
93.89655,93.99469,75,57,0
93.89655,93.99469,71,57,0
94.027405,94.12555,75,51,0
94.027405,94.12555,71,51,0
94.158264,94.2564,75,53,0
94.158264,94.2564,71,53,0
94.289116,94.38726,75,47,0
94.289116,94.38726,71,47,0
93.89655,94.419975,78,57,0
94.419975,94.51811,71,53,0
94.419975,94.51811,68,53,0
94.55083,94.651596,71,47,0
94.55083,94.651596,68,47,0
94.68519,94.78333,71,55,0
94.68519,94.78333,68,55,0
94.81605,94.914185,71,48,0
94.81605,94.914185,68,48,0
94.419975,94.9469,76,53,0
94.9469,95.045044,66,52,0
94.9469,95.045044,63,52,0
95.07776,95.17898,66,46,0
95.07776,95.17898,63,46,0
95.21272,95.31086,66,54,0
95.21272,95.31086,63,54,0
95.343575,95.44434,66,47,0
95.343575,95.44434,63,47,0
94.9469,95.477936,71,52,0
95.477936,95.57608,64,55,0
95.477936,95.57608,59,55,0
95.608795,95.70693,64,47,0
95.608795,95.70693,59,47,0
95.73965,95.83779,64,51,0
95.73965,95.83779,59,51,0
95.87051,95.971725,64,48,0
95.87051,95.971725,59,48,0
95.477936,96.00547,68,55,0
96.00547,96.14322,58,42,0
96.14322,96.2795,60,44,0
96.2795,96.414474,61,46,0
96.414474,96.54816,62,48,0
96.54816,96.6476,66,55,0
96.54816,96.6476,63,55,0
96.68075,96.78019,66,50,0
96.68075,96.78019,63,50,0
96.81334,96.91278,66,50,0
96.81334,96.91278,63,50,0
96.94592,97.04537,66,50,0
96.94592,97.04537,63,50,0
97.078514,97.21626,58,40,0
97.21626,97.352554,60,42,0
97.352554,97.487526,61,44,0
97.487526,97.6212,62,46,0
97.6212,97.72064,66,55,0
97.6212,97.72064,63,55,0
97.75379,97.85323,66,48,0
97.75379,97.85323,63,48,0
97.88638,97.985825,66,48,0
97.88638,97.985825,63,48,0
98.018974,98.118416,66,49,0
98.018974,98.118416,63,49,0
98.151566,98.289314,61,42,0
98.289314,98.4256,63,44,0
98.4256,98.56057,64,46,0
98.56057,98.69425,65,48,0
98.69425,98.79369,69,58,0
98.69425,98.79369,66,58,0
98.82684,98.92853,69,50,0
98.82684,98.92853,66,50,0
98.962425,99.06187,69,54,0
98.962425,99.06187,66,54,0
99.09502,99.19446,69,50,0
99.09502,99.19446,66,50,0
99.22761,99.36536,63,42,0
99.36536,99.50164,65,44,0
99.50164,99.63661,66,46,0
99.63661,99.770294,66,48,0
99.770294,99.869736,71,57,0
99.770294,99.869736,68,57,0
99.902885,100.00458,71,48,0
99.902885,100.00458,68,48,0
100.03847,100.13792,71,52,0
100.03847,100.13792,68,52,0
100.17106,100.27051,71,49,0
100.17106,100.27051,68,49,0
100.30365,100.43339,58,54,0
100.43339,100.563126,59,54,0
100.563126,100.83305,65,44,0
100.563126,100.83305,63,44,0
100.83305,100.963905,58,54,0
100.963905,101.094765,59,54,0
101.094765,101.36349,65,45,0
101.094765,101.36349,63,45,0
101.49322,101.7541,68,56,0
101.49322,101.7541,65,56,0
101.7541,102.015625,67,52,0
101.7541,102.015625,64,52,0
102.015625,102.27956,66,49,0
102.015625,102.27956,63,49,0
102.27956,102.42153,65,48,0
102.27956,102.42153,62,48,0
102.42153,102.48783,67,56,0
102.42153,102.48783,63,56,0
102.55412,102.62042,67,52,0
102.55412,102.62042,63,52,0
102.686714,102.75301,67,56,0
102.686714,102.75301,63,56,0
102.819305,102.885605,67,50,0
102.819305,102.885605,63,50,0
102.9519,103.01733,67,56,0
102.9519,103.01733,63,56,0
103.082756,103.14818,67,52,0
103.082756,103.14818,63,52,0
103.21361,103.27904,67,56,0
103.21361,103.27904,63,56,0
103.34447,103.4099,67,50,0
103.34447,103.4099,63,50,0
103.47532,103.54075,67,56,0
103.47532,103.54075,70,56,0
103.60618,103.67022,67,50,0
103.60618,103.67022,70,50,0
103.73426,103.79885,67,59,0
103.73426,103.79885,70,59,0
103.86344,103.92915,67,51,0
103.86344,103.92915,70,51,0
103.994865,104.060295,67,58,0
103.994865,104.060295,70,58,0
104.125725,104.191154,67,53,0
104.125725,104.191154,70,53,0
104.25658,104.32201,67,56,0
104.25658,104.32201,70,56,0
104.387436,104.452866,67,51,0
104.387436,104.452866,70,51,0
104.51829,104.61517,71,54,0
104.51829,104.61517,68,54,0
104.64747,104.74735,71,48,0
104.64747,104.74735,68,48,0
104.78065,104.87879,75,54,0
104.78065,104.87879,71,54,0
104.9115,105.00964,75,49,0
104.9115,105.00964,71,49,0
105.04236,105.139656,71,55,0
105.04236,105.139656,68,55,0
105.1721,105.269394,71,51,0
105.1721,105.269394,68,51,0
105.30183,105.39997,75,54,0
105.30183,105.39997,71,54,0
105.432686,105.53257,75,51,0
105.432686,105.53257,71,51,0
105.565865,105.66275,75,54,0
105.565865,105.66275,72,54,0
105.69504,105.79538,75,46,0
105.69504,105.79538,72,46,0
105.82883,105.926125,75,54,0
105.82883,105.926125,72,54,0
105.958565,106.0589,75,44,0
105.958565,106.0589,72,44,0
105.565865,106.09235,68,43,0
106.09235,106.19007,72,53,0
106.09235,106.19007,68,53,0
106.22265,106.32253,72,43,0
106.22265,106.32253,68,43,0
106.35583,106.453964,72,50,0
106.35583,106.453964,68,50,0
106.48668,106.58702,72,43,0
106.48668,106.58702,68,43,0
106.09235,106.62047,63,43,0
106.62047,106.7208,68,52,0
106.62047,106.7208,63,52,0
106.75425,106.85459,68,43,0
106.75425,106.85459,63,43,0
106.88804,106.98837,68,49,0
106.88804,106.98837,63,49,0
107.02182,107.12216,68,43,0
107.02182,107.12216,63,43,0
106.62047,107.15561,60,52,0
107.15561,107.25594,63,49,0
107.15561,107.25594,60,49,0
107.28939,107.38973,63,43,0
107.28939,107.38973,60,43,0
107.42318,107.52351,63,52,0
107.42318,107.52351,60,52,0
107.55696,107.6573,63,43,0
107.55696,107.6573,60,43,0
107.15561,107.69075,56,49,0
107.69075,107.960556,58,60,0
107.82565,107.960556,58,63,0
107.69075,107.960556,67,60,0
107.69075,107.960556,55,60,0
107.69075,107.960556,63,60,0
107.960556,108.09546,62,66,0
108.09546,108.23036,63,69,0
108.23036,108.364876,67,72,0
108.364876,108.49804,70,75,0
108.49804,108.62977,74,78,0
108.62977,108.76708,75,81,0
108.76708,109.04928,69,84,0
108.76708,109.04928,66,84,0
109.04928,109.183586,57,71,0
109.183586,109.3179,61,66,0
109.3179,109.452415,62,70,0
109.452415,109.58558,64,66,0
109.58558,109.71731,66,70,0
109.71731,109.854614,69,65,0
109.854614,109.99571,70,78,0
109.99571,110.12887,68,74,0
110.12887,110.267426,64,64,0
110.12887,110.267426,62,64,0
110.40598,110.54708,70,77,0
110.54708,110.68024,68,72,0
110.68024,110.81816,64,67,0
110.68024,110.81816,62,67,0
110.95609,111.49596,58,71,0
111.49596,111.63092,57,62,0
111.63092,111.765884,56,62,0
111.765884,111.90085,59,62,0
111.90085,112.03581,58,62,0
112.03581,112.103,57,63,0
112.17048,112.23827,59,66,0
112.30636,112.37476,60,69,0
112.44348,112.51514,61,71,0
112.5868,112.72176,66,78,0
112.72176,112.85673,64,70,0
112.85673,112.9917,61,74,0
112.9917,113.12666,57,69,0
113.12666,113.40885,69,83,0
113.12666,113.40885,66,83,0
113.40885,113.54317,57,70,0
113.54317,113.677475,61,65,0
113.677475,113.812,62,70,0
113.812,113.94515,64,65,0
113.94515,114.07688,66,70,0
114.07688,114.214195,69,66,0
114.214195,114.35529,72,78,0
114.35529,114.48845,70,73,0
114.48845,114.62701,64,67,0
114.48845,114.62701,66,67,0
114.76556,114.906654,72,77,0
114.906654,115.03981,70,72,0
115.03981,115.17774,64,66,0
115.03981,115.17774,66,66,0
115.315674,115.85554,60,71,0
115.85554,115.9905,59,62,0
115.9905,116.125465,58,62,0
116.125465,116.26043,61,62,0
116.26043,116.39539,60,62,0
116.39539,116.46257,59,61,0
116.53006,116.59785,61,63,0
116.66594,116.73434,62,65,0
116.803055,116.87472,63,67,0
116.94638,117.081345,67,73,0
117.081345,117.21631,65,66,0
117.21631,117.35127,63,71,0
117.35127,117.48624,59,66,0
117.48624,117.76843,67,83,0
117.48624,117.76843,64,83,0
117.48624,117.76843,71,83,0
117.76843,117.86916,64,66,0
117.76843,117.86916,67,66,0
117.90275,118.00348,67,58,0
117.90275,118.00348,64,58,0
118.037056,118.138084,67,66,0
118.037056,118.138084,64,66,0
118.17157,118.27159,67,58,0
118.17157,118.27159,64,58,0
118.30473,118.403694,67,66,0
118.30473,118.403694,64,66,0
118.43646,118.539444,67,59,0
118.43646,118.539444,64,59,0
118.57378,118.714874,69,70,0
118.714874,118.85167,69,65,0
118.57378,118.85167,62,70,0
118.85167,118.99043,71,66,0
118.99043,119.12919,71,59,0
119.12919,119.411385,67,62,0
119.12919,119.411385,63,62,0
119.12919,119.411385,72,73,0
119.411385,119.512115,63,66,0
119.411385,119.512115,60,66,0
119.5457,119.64643,60,58,0
119.5457,119.64643,63,58,0
119.68001,119.78104,60,66,0
119.68001,119.78104,63,66,0
119.81452,119.91454,60,58,0
119.81452,119.91454,63,58,0
119.947685,120.046646,60,66,0
119.947685,120.046646,63,66,0
120.079414,120.182396,60,59,0
120.079414,120.182396,63,59,0
120.21673,120.35783,65,70,0
120.35783,120.49462,65,65,0
120.21673,120.49462,58,70,0
120.49462,120.63397,67,66,0
120.63397,120.77333,67,59,0
120.77333,121.05552,60,63,0
120.77333,121.05552,63,63,0
120.77333,121.05552,68,75,0
121.05552,121.15626,63,66,0
121.05552,121.15626,68,66,0
121.189835,121.29057,68,58,0
121.189835,121.29057,63,58,0
121.32415,121.42518,60,66,0
121.32415,121.42518,63,66,0
121.458664,121.55868,60,58,0
121.458664,121.55868,63,58,0
121.59182,121.69079,56,66,0
121.59182,121.69079,63,66,0
121.72356,121.82654,56,59,0
121.72356,121.82654,63,59,0
121.86086,122.00196,58,70,0
122.00196,122.13876,59,65,0
122.13876,122.406815,65,66,0
122.13876,122.406815,63,66,0
122.406815,122.68901,60,62,0
122.406815,122.68901,63,62,0
122.406815,122.68901,68,73,0
122.68901,122.78974,63,66,0
122.68901,122.78974,68,66,0
122.82332,122.92406,68,58,0
122.82332,122.92406,63,58,0
122.957634,123.05866,60,66,0
122.957634,123.05866,63,66,0
123.09215,123.19216,60,58,0
123.09215,123.19216,63,58,0
123.22531,123.32427,56,66,0
123.22531,123.32427,63,66,0
123.35704,123.46002,56,59,0
123.35704,123.46002,63,59,0
123.49435,123.635445,58,70,0
123.635445,123.77225,59,65,0
123.77225,124.045845,65,66,0
123.77225,124.045845,63,66,0
124.045845,124.18694,70,77,0
124.18694,124.3201,68,72,0
124.3201,124.595955,64,67,0
124.3201,124.595955,62,67,0
124.595955,124.87815,71,83,0
124.595955,124.87815,68,70,0
124.595955,124.87815,61,70,0
124.87815,124.97889,71,66,0
124.87815,124.97889,68,66,0
125.01247,125.1132,68,58,0
125.01247,125.1132,71,58,0
125.146774,125.2478,68,66,0
125.146774,125.2478,65,66,0
125.28129,125.38131,68,58,0
125.28129,125.38131,65,58,0
125.41445,125.51341,61,66,0
125.41445,125.51341,68,66,0
125.54618,125.64916,61,59,0
125.54618,125.64916,68,59,0
125.683495,125.82459,63,70,0
125.82459,125.96139,64,65,0
125.96139,126.234985,70,66,0
125.96139,126.234985,68,66,0
126.234985,126.37608,70,77,0
126.37608,126.50924,68,72,0
126.50924,126.64717,64,67,0
126.50924,126.64717,62,67,0
126.7851,126.9262,63,70,0
126.9262,127.062996,64,65,0
127.062996,127.33659,70,66,0
127.062996,127.33659,68,66,0
127.33659,127.47769,63,70,0
127.47769,127.614494,64,65,0
127.614494,127.88809,71,66,0
127.614494,127.88809,68,66,0
127.88809,128.02919,70,77,0
128.02919,128.16234,68,72,0
128.16234,128.4382,64,67,0
128.16234,128.4382,62,67,0
128.4382,128.5793,63,70,0
128.5793,128.7161,64,65,0
128.7161,128.9897,71,66,0
128.7161,128.9897,68,66,0
128.9897,129.1308,63,70,0
129.1308,129.2676,64,65,0
129.2676,129.5412,73,66,0
129.2676,129.5412,69,66,0
129.5412,129.68228,70,77,0
129.68228,129.81544,68,72,0
129.81544,129.95337,64,67,0
129.81544,129.95337,62,67,0
130.09131,130.2324,63,70,0
130.2324,130.3692,64,65,0
130.3692,130.6428,73,66,0
130.3692,130.6428,69,66,0
130.6428,130.78389,63,70,0
130.78389,130.9207,64,65,0
130.9207,131.19429,73,66,0
130.9207,131.19429,69,66,0
131.19429,131.33539,63,70,0
131.33539,131.47218,64,65,0
131.47218,131.74579,73,66,0
131.47218,131.74579,69,66,0
131.74579,131.88689,68,70,0
131.88689,132.02368,69,65,0
132.02368,132.30498,73,66,0
132.02368,132.30498,76,66,0
132.30498,132.59026,73,66,0
132.30498,132.59026,76,66,0
132.59026,132.88248,73,66,0
132.59026,132.88248,76,66,0
132.88248,132.95058,62,79,0
133.01866,133.08665,62,71,0
133.15445,133.22214,62,79,0
133.28961,133.3571,62,71,0
133.42438,133.49156,62,80,0
133.55855,133.62544,63,73,0
133.69234,133.75893,62,81,0
133.82552,133.89182,65,71,0
133.9581,134.02411,62,81,0
134.09012,134.15613,62,72,0
134.22214,134.28815,62,81,0
134.35416,134.42017,62,73,0
134.48618,134.55219,62,81,0
134.6182,134.6842,64,73,0
134.75021,134.81622,62,81,0
134.88223,134.94824,69,72,0
135.67334,135.80434,73,75,0
135.80434,135.93593,72,74,0
135.93593,136.0675,71,73,0
136.0675,136.19966,70,72,0
136.19966,136.33182,69,72,0
136.33182,136.46455,68,71,0
136.46455,136.5973,67,70,0
136.5973,136.73064,66,69,0
136.73064,136.86397,65,68,0
136.86397,136.9979,64,67,0
136.9979,137.13203,63,66,0
137.13203,137.23071,67,56,0
137.13203,137.23071,63,56,0
137.26361,137.36229,67,52,0
137.26361,137.36229,63,52,0
137.39519,137.49344,67,56,0
137.39519,137.49344,63,56,0
137.52618,137.62444,67,50,0
137.52618,137.62444,63,50,0
137.6572,137.75502,67,56,0
137.6572,137.75502,63,56,0
137.78763,137.88545,67,52,0
137.78763,137.88545,63,52,0
137.91806,138.01588,67,56,0
137.91806,138.01588,63,56,0
138.0485,138.14632,67,50,0
138.0485,138.14632,63,50,0
138.17894,138.27676,67,56,0
138.17894,138.27676,70,56,0
138.30937,138.40625,67,50,0
138.30937,138.40625,70,50,0
138.43854,138.53595,67,59,0
138.43854,138.53595,70,59,0
138.56842,138.66699,67,51,0
138.56842,138.66699,70,51,0
138.69984,138.79799,67,58,0
138.69984,138.79799,70,58,0
138.8307,138.92885,67,53,0
138.8307,138.92885,70,53,0
138.96155,139.0597,67,56,0
138.96155,139.0597,70,56,0
139.0924,139.19055,67,51,0
139.0924,139.19055,70,51,0
139.22327,139.32014,71,54,0
139.22327,139.32014,68,54,0
139.35245,139.45233,71,48,0
139.35245,139.45233,68,48,0
139.48563,139.58377,75,54,0
139.48563,139.58377,71,54,0
139.61649,139.71461,75,49,0
139.61649,139.71461,71,49,0
139.74733,139.84464,71,55,0
139.74733,139.84464,68,55,0
139.87708,139.97437,71,51,0
139.87708,139.97437,68,51,0
140.0068,140.10495,75,54,0
140.0068,140.10495,71,54,0
140.13766,140.23755,75,51,0
140.13766,140.23755,71,51,0
140.27084,140.36772,74,51,0
140.27084,140.36772,68,51,0
140.40001,140.50035,74,42,0
140.40001,140.50035,68,42,0
140.5338,140.6311,74,49,0
140.5338,140.6311,68,49,0
140.66354,140.76387,74,39,0
140.66354,140.76387,68,39,0
140.79732,140.89505,70,47,0
140.79732,140.89505,65,47,0
140.92763,141.02751,70,38,0
140.92763,141.02751,65,38,0
141.0608,141.15894,70,46,0
141.0608,141.15894,65,46,0
141.19165,141.29199,70,36,0
141.19165,141.29199,65,36,0
141.32544,141.42358,67,56,0
141.32544,141.42358,63,56,0
141.4563,141.55444,67,52,0
141.4563,141.55444,63,52,0
141.58716,141.68529,67,56,0
141.58716,141.68529,63,56,0
141.718,141.81615,67,50,0
141.718,141.81615,63,50,0
141.84886,141.947,67,56,0
141.84886,141.947,63,56,0
141.97972,142.07787,67,52,0
141.97972,142.07787,63,52,0
142.11058,142.20872,67,56,0
142.11058,142.20872,63,56,0
142.24142,142.33957,67,50,0
142.24142,142.33957,63,50,0
142.37228,142.47043,67,56,0
142.37228,142.47043,70,56,0
142.50314,142.60002,67,50,0
142.50314,142.60002,70,50,0
142.63232,142.72972,67,59,0
142.63232,142.72972,70,59,0
142.76219,142.86076,67,51,0
142.76219,142.86076,70,51,0
142.89362,142.99176,67,58,0
142.89362,142.99176,70,58,0
143.02448,143.12262,67,53,0
143.02448,143.12262,70,53,0
143.15533,143.25348,67,56,0
143.15533,143.25348,70,56,0
143.2862,143.3874,67,51,0
143.2862,143.3874,70,51,0
143.42116,143.51929,75,57,0
143.42116,143.51929,71,57,0
143.552,143.65015,75,51,0
143.552,143.65015,71,51,0
143.68286,143.781,75,53,0
143.68286,143.781,71,53,0
143.81372,143.91187,75,47,0
143.81372,143.91187,71,47,0
143.42116,143.94458,78,57,0
143.94458,144.04271,71,53,0
143.94458,144.04271,68,53,0
144.07542,144.17621,71,47,0
144.07542,144.17621,68,47,0
144.2098,144.30794,71,55,0
144.2098,144.30794,68,55,0
144.34065,144.43878,71,48,0
144.34065,144.43878,68,48,0
143.94458,144.4715,76,53,0
144.4715,144.56964,66,52,0
144.4715,144.56964,63,52,0
144.60236,144.70358,66,46,0
144.60236,144.70358,63,46,0
144.73732,144.83546,66,54,0
144.73732,144.83546,63,54,0
144.86818,144.96895,66,47,0
144.86818,144.96895,63,47,0
144.4715,145.00253,71,52,0
145.00253,145.10068,64,55,0
145.00253,145.10068,59,55,0
145.13339,145.23154,64,47,0
145.13339,145.23154,59,47,0
145.26425,145.3624,64,51,0
145.26425,145.3624,59,51,0
145.39511,145.49634,64,48,0
145.39511,145.49634,59,48,0
145.00253,145.53008,68,55,0
145.53008,145.66782,58,42,0
145.66782,145.80411,60,44,0
145.80411,145.93907,61,46,0
145.93907,146.07275,62,48,0
146.07275,146.1722,66,55,0
146.07275,146.1722,63,55,0
146.20535,146.3048,66,50,0
146.20535,146.3048,63,50,0
146.33794,146.43738,66,50,0
146.33794,146.43738,63,50,0
146.47054,146.56998,66,50,0
146.47054,146.56998,63,50,0
146.60312,146.74086,58,40,0
146.74086,146.87715,60,42,0
146.87715,147.01213,61,44,0
147.01213,147.1458,62,46,0
147.1458,147.24525,66,55,0
147.1458,147.24525,63,55,0
147.2784,147.37784,66,48,0
147.2784,147.37784,63,48,0
147.41098,147.51042,66,48,0
147.41098,147.51042,63,48,0
147.54358,147.64302,66,49,0
147.54358,147.64302,63,49,0
147.67616,147.81392,61,42,0
147.81392,147.9502,63,44,0
147.9502,148.08517,64,46,0
148.08517,148.21886,65,48,0
148.21886,148.3183,69,58,0
148.21886,148.3183,66,58,0
148.35144,148.45314,69,50,0
148.35144,148.45314,66,50,0
148.48703,148.58647,69,55,0
148.48703,148.58647,66,55,0
148.61961,148.71907,69,50,0
148.61961,148.71907,66,50,0
148.75221,148.88995,63,42,0
148.88995,149.02625,65,44,0
149.02625,149.16121,66,46,0
149.16121,149.29489,66,48,0
149.29489,149.39433,71,57,0
149.29489,149.39433,68,57,0
149.42749,149.52917,71,48,0
149.42749,149.52917,68,48,0
149.56308,149.66252,71,53,0
149.56308,149.66252,68,53,0
149.69566,149.7951,71,49,0
149.69566,149.7951,68,49,0
149.82826,149.958,58,54,0
149.958,150.08772,59,54,0
150.08772,150.35765,65,54,0
150.08772,150.35765,63,54,0
150.35765,150.48851,58,54,0
150.48851,150.61937,59,54,0
150.61937,150.89374,65,54,0
150.61937,150.89374,63,54,0
150.89374,151.03482,70,78,0
151.03482,151.16798,68,74,0
151.16798,151.30653,64,64,0
151.16798,151.30653,62,64,0
151.4451,151.5862,70,77,0
151.5862,151.71935,68,72,0
151.71935,151.85728,64,63,0
151.71935,151.85728,62,63,0
151.99521,152.09335,67,56,0
151.99521,152.09335,63,56,0
152.12607,152.22421,67,52,0
152.12607,152.22421,63,52,0
152.25693,152.35506,67,56,0
152.25693,152.35506,63,56,0
152.38777,152.48592,67,50,0
152.38777,152.48592,63,50,0
152.51863,152.61807,67,56,0
152.51863,152.61807,63,56,0
152.65123,152.75067,67,52,0
152.65123,152.75067,63,52,0
152.78381,152.88326,67,56,0
152.78381,152.88326,63,56,0
152.9164,153.02338,67,50,0
152.9164,153.02338,63,50,0
153.05904,153.20013,70,77,0
153.20013,153.3333,68,72,0
153.3333,153.60916,64,67,0
153.3333,153.60916,62,67,0
153.60916,153.75026,58,70,0
153.75026,153.88705,59,59,0
153.88705,154.15562,65,50,0
153.88705,154.15562,63,50,0
154.15562,154.25507,67,56,0
154.15562,154.25507,63,56,0
154.28822,154.38637,67,50,0
154.28822,154.38637,63,50,0
154.41907,154.51808,67,59,0
154.41907,154.51808,63,59,0
154.55109,154.64966,67,51,0
154.55109,154.64966,63,51,0
154.68253,154.78067,67,58,0
154.68253,154.78067,70,58,0
154.81339,154.91151,67,53,0
154.81339,154.91151,70,53,0
154.94423,155.04237,67,56,0
154.94423,155.04237,70,56,0
155.07509,155.17705,67,51,0
155.07509,155.17705,70,51,0
155.21205,155.35313,70,77,0
155.35313,155.4863,68,72,0
155.4863,155.76216,64,67,0
155.4863,155.76216,62,67,0
155.76216,155.90326,58,70,0
155.90326,156.04005,59,65,0
156.04005,156.31366,65,59,0
156.04005,156.31366,63,59,0
156.31366,156.45045,71,73,0
156.45045,156.58725,70,74,0
156.31366,156.58725,65,73,0
156.58725,156.86894,74,69,0
156.58725,156.86894,62,69,0
156.86894,157.0118,71,73,0
157.0118,157.15465,70,75,0
156.86894,157.15465,65,73,0
157.15465,157.44592,74,70,0
157.15465,157.44592,62,70,0
157.44592,157.59155,71,74,0
157.59155,157.73718,70,75,0
157.44592,157.73718,65,74,0
157.73718,158.03868,74,72,0
157.73718,158.03868,62,72,0
158.76146,158.93428,58,88,0
158.93428,159.10593,60,78,0
159.10593,159.27638,62,81,0
159.27638,159.44571,63,83,0
159.44571,159.61487,62,90,0
159.61487,159.78304,63,79,0
159.78304,159.95024,65,82,0
159.95024,160.12048,67,78,0
160.12048,160.29791,65,88,0
160.29791,160.47443,72,83,0
160.47443,160.64986,68,84,0
160.64986,160.82425,65,82,0
160.82425,160.99898,63,91,0
160.99898,161.17531,62,83,0
161.17531,161.35776,60,89,0
161.35776,161.55698,58,80,0
161.55698,161.73639,58,88,0
161.73639,161.91452,60,82,0
161.91452,162.0914,62,84,0
162.0914,162.26683,63,79,0
162.26683,162.44087,62,90,0
162.44087,162.61354,63,78,0
162.61354,162.785,65,83,0
162.785,162.95512,67,79,0
162.95512,163.1283,65,88,0
163.1283,163.30046,72,81,0
163.30046,163.47157,68,85,0
163.47157,163.6417,65,80,0
163.6417,163.81087,63,89,0
163.81087,163.98003,62,78,0
163.98003,164.1492,60,84,0
164.1492,164.31836,58,78,0
164.31836,164.48753,67,88,0
164.48753,164.6567,62,81,0
164.6567,164.82587,63,88,0
164.82587,164.99503,59,79,0
164.99503,165.1632,60,83,0
165.1632,165.33202,61,75,0
165.33202,165.50151,62,81,0
165.50151,165.67163,58,78,0
165.67163,165.836,67,88,0
165.836,166.00037,62,79,0
166.00037,166.16473,63,84,0
166.16473,166.3291,59,78,0
166.3291,166.49347,60,84,0
166.49347,166.65782,61,75,0
166.65782,166.82219,62,83,0
166.82219,166.98656,58,77,0
166.98656,167.14641,63,82,0
167.14641,167.30568,64,83,0
167.30568,167.46437,65,84,0
167.46437,167.6225,66,85,0
167.6225,167.77977,67,86,0
167.77977,167.93648,68,88,0
167.93648,168.09262,69,88,0
168.09262,168.24791,70,89,0
168.24791,168.40321,72,90,0
168.40321,168.5577,73,91,0
168.5577,168.71107,74,92,0
168.71107,168.86314,75,93,0
168.86314,169.01413,76,94,0
169.01413,169.16385,77,95,0
169.16385,169.31253,78,96,0
169.31253,169.56537,79,97,0
169.56537,172.66518,47,93,0
169.56537,172.66518,35,74,0
172.66518,175.7649,43,39,0
172.66518,175.7649,31,30,0
175.7649,178.8646,55,79,0
175.7649,178.8646,43,64,0
178.8646,181.57707,50,72,0
178.8646,181.57707,38,57,0
181.57707,184.28955,49,48,0
181.57707,184.28955,37,38,0
184.28955,187.00203,48,67,0
184.28955,187.00203,36,50,0
187.00203,189.94241,47,42,0
187.00203,189.94241,35,33,0
189.94241,193.33864,46,77,0
189.94241,193.33864,34,61,0
193.33864,196.05112,45,58,0
193.33864,196.05112,33,46,0
196.05112,198.98367,43,43,0
196.05112,198.98367,31,34,0
198.98367,201.43115,42,28,0
198.98367,201.43115,30,22,0
202.65489,205.75461,43,78,0
202.65489,205.75461,35,62,0
202.65489,205.75461,31,62,0
205.75461,208.85431,43,74,0
205.75461,208.85431,31,58,0
205.75461,208.85431,34,58,0
208.85431,212.2188,55,71,0
208.85431,212.2188,43,56,0
208.85431,212.2188,46,56,0
212.2188,217.64375,45,42,0
212.2188,217.64375,40,33,0
212.2188,217.64375,33,33,0
217.64375,222.97762,45,46,0
217.64375,222.97762,41,36,0
217.64375,222.97762,33,36,0
222.97762,228.3041,45,46,0
222.97762,228.3041,42,36,0
228.3041,232.42435,43,41,0
228.3041,232.42435,50,41,0
222.97762,232.42435,33,36,0
232.88214,234.08745,43,73,0
232.88214,234.08745,31,58,0
234.08745,237.3584,55,64,0
234.08745,237.3584,58,72,0
234.08745,237.3584,63,80,0
237.3584,240.40768,52,48,0
237.41557,240.45854,43,38,0
240.40768,241.31184,48,52,0
241.31184,243.05098,49,52,0
243.05098,245.65967,50,55,0
245.65967,248.26837,52,44,0
240.40768,248.26837,42,47,0
248.26837,250.87706,42,39,0
248.26837,250.87706,53,39,0
250.87706,260.0993,50,79,0
250.87706,260.0993,47,71,0
250.87706,260.0993,42,63,0
267.34164,268.10138,67,54,0
267.34164,268.10138,64,42,0
267.34164,268.10138,59,42,0
268.10138,268.86145,66,44,0
268.10138,268.86145,61,35,0
268.10138,268.86145,58,35,0
268.86145,269.62677,71,55,0
268.86145,269.62677,66,43,0
268.86145,269.62677,62,43,0
269.62677,270.39288,73,52,0
269.62677,270.39288,66,41,0
270.39288,270.47345,78,52,0
269.62677,270.77557,70,41,0
271.1589,271.9129,74,56,0
271.1589,271.9129,71,44,0
271.1589,271.9129,67,44,0
271.9129,272.69302,73,51,0
271.9129,272.69302,71,41,0
271.9129,272.69302,65,41,0
272.69302,272.7718,78,57,0
272.69302,273.0755,70,46,0
272.69302,273.0755,66,46,0
273.45816,274.22284,74,55,0
273.45816,274.22284,71,43,0
274.22284,274.99075,73,52,0
274.22284,274.99075,66,41,0
274.99075,275.7827,71,50,0
274.99075,275.7827,67,40,0
275.7827,276.5775,66,50,0
276.5775,277.3696,43,55,0
276.5775,277.3696,31,43,0
277.3696,278.1557,42,51,0
277.3696,278.1557,30,41,0
278.1557,278.91956,47,55,0
278.1557,278.91956,35,43,0
278.91956,279.68765,49,50,0
278.91956,279.68765,37,40,0
279.68765,280.47293,54,54,0
279.68765,280.47293,42,42,0
280.47293,281.23715,50,55,0
280.47293,281.23715,38,43,0
281.23715,281.99,49,50,0
281.23715,281.99,37,40,0
281.99,282.76245,54,51,0
281.99,282.76245,42,41,0
282.76245,284.33054,50,55,0
282.76245,284.33054,38,43,0
284.33054,285.10327,47,52,0
284.33054,285.10327,35,41,0
285.10327,285.86774,49,56,0
285.10327,285.86774,37,44,0
285.86774,286.67242,47,52,0
285.86774,286.67242,35,41,0
286.67242,287.4838,42,46,0
286.67242,287.4838,30,36,0
288.2898,289.05984,66,56,0
288.2898,289.05984,61,44,0
288.2898,289.05984,58,44,0
289.05984,289.8223,67,54,0
289.05984,289.8223,62,42,0
289.05984,289.8223,59,42,0
289.8223,290.60605,64,51,0
289.8223,290.60605,60,41,0
289.8223,290.60605,55,41,0
290.60605,291.3742,66,58,0
290.60605,291.3742,58,46,0
290.60605,291.3742,54,46,0
291.3742,292.14417,67,56,0
291.3742,292.14417,55,44,0
291.3742,292.14417,59,44,0
292.14417,292.93338,64,54,0
292.14417,292.93338,60,42,0
292.14417,292.93338,57,42,0
292.93338,293.6965,69,58,0
292.93338,293.6965,66,46,0
293.6965,294.46262,71,57,0
293.6965,294.46262,67,46,0
292.93338,294.46262,62,46,0
294.46262,295.24747,58,49,0
295.24747,296.01764,54,42,0
294.46262,296.01764,61,43,0
296.01764,296.09763,78,54,0
296.01764,296.78326,74,42,0
296.01764,296.78326,69,42,0
296.78326,297.5537,74,60,0
296.78326,297.5537,71,48,0
294.46262,297.5537,66,55,0
297.5537,298.34146,73,58,0
297.5537,298.34146,66,46,0
298.34146,299.16336,71,52,0
298.34146,299.16336,67,41,0
299.16336,299.98438,66,49,0
299.98438,300.75345,42,58,0
299.98438,300.75345,30,46,0
300.75345,301.50717,43,57,0
300.75345,301.50717,31,46,0
301.50717,302.28705,40,55,0
301.50717,302.28705,28,43,0
302.28705,303.03888,42,57,0
302.28705,303.03888,30,46,0
303.03888,303.7939,43,55,0
303.03888,303.7939,31,43,0
303.7939,304.58057,40,55,0
303.7939,304.58057,28,43,0
304.58057,305.35333,45,58,0
304.58057,305.35333,33,46,0
305.35333,306.1272,47,55,0
305.35333,306.1272,35,43,0
306.1272,307.67853,42,54,0
306.1272,307.67853,30,42,0
307.67853,308.45657,54,58,0
307.67853,308.45657,42,46,0
308.45657,309.2408,50,59,0
308.45657,309.2408,38,47,0
309.2408,310.05573,49,55,0
309.2408,310.05573,37,43,0
310.05573,310.89465,47,55,0
310.05573,310.89465,35,43,0
310.89465,311.71082,42,52,0
310.89465,311.71082,30,41,0
313.31833,315.64914,64,43,0
315.64914,317.16095,62,41,0
313.31833,317.92828,60,34,0
317.16095,317.92828,60,39,0
313.31833,317.92828,50,34,0
313.31833,317.92828,57,34,0
317.92828,318.70273,61,42,0
317.92828,318.70273,58,33,0
317.92828,318.70273,54,33,0
318.70273,319.4527,42,37,0
319.4527,320.21814,49,39,0
320.21814,320.97363,54,42,0
320.97363,321.72406,58,44,0
321.72406,322.5311,61,49,0
322.5311,324.85303,64,43,0
324.85303,326.35898,62,41,0
322.5311,327.12973,60,43,0
326.35898,327.12973,60,39,0
322.5311,327.12973,50,34,0
322.5311,327.12973,57,34,0
327.12973,327.90222,61,42,0
327.12973,327.90222,58,33,0
327.12973,327.90222,54,33,0
327.90222,328.65494,42,37,0
328.65494,329.42712,49,39,0
329.42712,330.18884,54,41,0
330.18884,330.942,58,44,0
330.942,331.72452,61,49,0
331.72452,334.0419,63,34,0
334.0419,335.585,57,40,0
335.585,336.35956,58,39,0
331.72452,336.35956,54,34,0
331.72452,336.35956,47,34,0
336.35956,340.18423,61,36,0
336.35956,340.18423,54,28,0
336.35956,340.18423,58,28,0
338.65958,340.5776,35,24,0
338.65958,340.5776,42,31,0
340.96747,343.2847,54,34,0
340.96747,343.2847,63,34,0
343.2847,344.79288,57,40,0
344.79288,345.56845,58,39,0
340.96747,345.56845,47,34,0
345.56845,349.39337,61,36,0
345.56845,349.39337,54,28,0
345.56845,349.39337,58,28,0
347.87173,349.78372,35,24,0
347.87173,349.78372,42,31,0
350.9485,351.7051,35,36,0
351.7051,352.47522,42,36,0
352.47522,353.23477,51,36,0
350.17667,354.02362,59,26,0
353.23477,354.02362,59,34,0
350.17667,354.02362,63,33,0
350.17667,354.02362,54,26,0
354.02362,354.84485,63,34,0
354.84485,361.7352,83,38,0
354.84485,361.7352,87,38,0
354.84485,361.7352,90,38,0
