start_time,end_time,note_value,velocity,instrument_program_number
0.0007462688,0.1791045,66,90,0
0.0007462688,0.1791045,54,76,0
0.358209,0.71115,55,96,0
1.417032,1.5052673,54,73,0
1.417032,1.5052673,66,86,0
1.5935025,1.683864,66,82,0
1.5935025,1.683864,54,69,0
1.7742255,2.1271665,55,91,0
2.8330486,3.009519,65,90,0
2.8330486,3.009519,53,76,0
3.1859896,3.354529,56,93,0
3.354529,3.5309994,55,87,0
4.2368817,4.3251166,53,73,0
4.2368817,4.3251166,65,86,0
4.413352,4.5029044,65,82,0
4.413352,4.5029044,53,69,0
4.5924563,4.762428,56,90,0
4.762428,4.8963566,55,85,0
4.9409995,5.1134133,56,90,0
5.1134133,5.242724,55,87,0
5.6387687,5.9917097,55,86,0
5.9917097,6.3446503,55,82,0
6.511317,6.591746,56,85,0
6.3446503,6.672175,55,95,0
6.8407145,6.930535,65,77,0
6.672175,7.020355,55,83,0
7.020355,7.373296,55,85,0
7.373296,7.726237,55,83,0
7.893368,8.054226,56,84,0
7.726237,8.054226,55,94,0
8.223718,8.305461,61,77,0
8.054226,8.387205,55,83,0
8.55341,8.714268,56,82,0
8.387205,8.714268,55,88,0
8.884239,8.969225,65,75,0
8.714268,9.054211,55,84,0
9.219501,9.3795,56,76,0
9.054211,9.3795,55,83,0
9.547098,9.726203,61,77,0
9.3795,9.726203,55,82,0
9.726203,10.080185,55,84,0
10.080185,10.434167,55,82,0
10.434167,10.788149,55,85,0
10.788149,11.142131,55,84,0
11.142131,11.2264,55,71,0
11.310671,11.390884,60,65,0
11.471099,11.554201,56,84,0
11.637303,11.718385,61,73,0
11.799465,11.881433,57,72,0
11.9634,12.044045,62,71,0
12.12469,12.209436,58,81,0
12.294182,12.376599,63,70,0
12.459017,12.543286,55,73,0
12.627557,12.707986,60,68,0
12.788415,12.87198,56,88,0
12.955545,13.037737,61,77,0
13.119929,13.203262,57,75,0
13.286595,13.367241,62,74,0
13.447886,13.532156,58,87,0
13.6164255,13.697507,63,74,0
13.778587,13.862387,55,76,0
13.946185,14.027059,60,70,0
14.107273,14.190606,56,90,0
14.273939,14.355683,61,80,0
14.437427,14.521226,57,78,0
14.605024,14.6846,62,77,0
14.764175,14.848446,58,89,0
14.932715,15.013796,63,76,0
15.094877,15.177979,55,81,0
15.261083,15.340658,60,75,0
15.420234,15.5037985,56,99,0
15.587364,15.669108,61,86,0
15.750852,15.833954,57,88,0
15.917057,15.995797,62,83,0
16.074537,16.159523,58,99,0
16.244509,16.327381,63,84,0
16.368818,16.410255,89,62,0
16.410255,16.4909,88,76,0
16.410255,16.4909,84,76,0
16.410255,16.4909,76,64,0
16.689346,16.728613,87,60,0
16.728613,16.809475,77,61,0
16.728613,16.809475,85,72,0
16.728613,16.809475,80,72,0
17.008759,17.048233,86,58,0
17.048233,17.129095,84,72,0
17.048233,17.129095,78,72,0
17.048233,17.129095,74,61,0
17.327759,17.367025,84,55,0
17.367025,17.447454,79,69,0
17.367025,17.447454,82,69,0
17.367025,17.447454,70,58,0
17.646305,17.685778,77,58,0
17.685778,17.766424,64,61,0
17.685778,17.766424,72,72,0
17.685778,17.766424,76,72,0
17.96487,18.004137,75,56,0
18.004137,18.085,68,68,0
18.004137,18.085,65,57,0
18.004137,18.085,73,68,0
18.284283,18.323757,74,54,0
18.323757,18.40462,72,68,0
18.323757,18.40462,62,57,0
18.323757,18.40462,66,68,0
18.602364,18.641325,72,52,0
18.641325,18.721754,58,55,0
18.641325,18.721754,67,65,0
18.641325,18.721754,70,65,0
18.920605,18.960077,65,55,0
18.960077,19.041378,64,68,0
18.960077,19.041378,60,68,0
18.960077,19.041378,55,57,0
19.24268,19.282679,63,54,0
19.282679,19.364647,53,54,0
19.282679,19.364647,61,64,0
19.282679,19.364647,56,64,0
19.567581,19.607904,62,52,0
19.607904,19.690321,60,64,0
19.607904,19.690321,54,64,0
19.607904,19.690321,50,54,0
19.894361,19.934902,60,49,0
19.934902,20.017319,55,62,0
19.934902,20.017319,58,62,0
19.934902,20.017319,51,52,0
20.260593,20.343927,55,88,0
20.427261,20.507261,60,73,0
20.587261,20.670134,56,85,0
20.753006,20.834751,61,71,0
20.916494,20.99891,57,87,0
21.08133,21.161116,62,72,0
21.240904,21.32332,58,87,0
21.405739,21.486168,63,72,0
21.574663,21.741795,60,67,0
21.574663,21.741795,64,67,0
21.574663,21.741795,72,79,0
21.574663,21.741795,67,67,0
21.908926,22.238596,76,61,0
21.908926,22.238596,67,61,0
21.908926,22.238596,79,72,0
21.908926,22.238596,72,61,0
22.238596,22.568266,79,75,0
22.238596,22.568266,76,63,0
22.238596,22.568266,67,63,0
22.238596,22.568266,72,63,0
22.568266,22.856726,67,61,0
22.568266,22.856726,72,61,0
22.568266,22.856726,79,72,0
22.568266,22.856726,76,61,0
22.856726,22.901237,80,64,0
22.856726,22.901237,68,54,0
22.901237,23.069304,67,61,0
22.901237,23.069304,79,72,0
23.237371,23.57828,67,58,0
23.237371,23.57828,60,58,0
23.237371,23.57828,72,69,0
23.237371,23.57828,64,58,0
23.57828,24.085321,62,62,0
23.57828,24.085321,68,62,0
23.57828,24.085321,74,73,0
23.57828,24.085321,65,62,0
24.257547,24.425146,72,79,0
24.257547,24.425146,64,67,0
24.257547,24.425146,60,67,0
24.257547,24.425146,67,67,0
24.592745,24.922415,76,61,0
24.592745,24.922415,67,61,0
24.592745,24.922415,79,72,0
24.592745,24.922415,72,61,0
24.922415,25.252085,67,63,0
24.922415,25.252085,76,63,0
24.922415,25.252085,79,75,0
24.922415,25.252085,72,63,0
25.252085,25.540545,76,61,0
25.252085,25.540545,72,61,0
25.252085,25.540545,67,61,0
25.252085,25.540545,79,72,0
25.540545,25.584925,69,54,0
25.540545,25.584925,81,64,0
25.584925,25.75299,79,72,0
25.584925,25.75299,67,61,0
25.921059,26.261967,67,58,0
25.921059,26.261967,60,58,0
25.921059,26.261967,72,69,0
25.921059,26.261967,64,58,0
26.261967,26.769009,74,73,0
26.261967,26.769009,69,62,0
26.261967,26.769009,62,62,0
26.261967,26.769009,66,62,0
26.942537,27.111076,78,83,0
26.942537,27.111076,69,70,0
26.942537,27.111076,75,83,0
27.279615,27.613878,81,72,0
27.279615,27.613878,75,61,0
27.279615,27.613878,69,61,0
27.279615,27.613878,78,72,0
27.613878,27.94814,78,75,0
27.613878,27.94814,69,63,0
27.613878,27.94814,81,75,0
27.613878,27.94814,75,63,0
27.94814,28.282402,69,61,0
27.94814,28.282402,78,72,0
27.94814,28.282402,81,72,0
27.94814,28.282402,75,61,0
28.282402,28.445446,91,82,0
28.282402,28.445446,87,82,0
28.282402,28.445446,79,69,0
28.282402,28.445446,82,69,0
28.445446,28.61165,86,72,0
28.445446,28.61165,74,61,0
28.61165,28.775137,87,77,0
28.61165,28.775137,75,65,0
28.775137,28.941805,82,72,0
28.775137,28.941805,70,61,0
28.941805,29.10574,82,68,0
28.941805,29.10574,91,80,0
28.941805,29.10574,79,68,0
28.941805,29.10574,87,80,0
29.10574,29.272406,86,72,0
29.10574,29.272406,74,61,0
29.272406,29.439072,75,65,0
29.272406,29.439072,87,77,0
29.439072,29.605738,70,61,0
29.439072,29.605738,82,72,0
29.605738,29.774279,75,83,0
29.605738,29.774279,69,70,0
29.605738,29.774279,78,83,0
29.942818,30.277079,75,61,0
29.942818,30.277079,78,72,0
29.942818,30.277079,81,72,0
29.942818,30.277079,69,61,0
30.277079,30.611341,81,75,0
30.277079,30.611341,78,75,0
30.277079,30.611341,69,63,0
30.277079,30.611341,75,63,0
30.611341,30.945604,69,61,0
30.611341,30.945604,75,61,0
30.611341,30.945604,81,72,0
30.611341,30.945604,78,72,0
30.945604,31.112734,82,69,0
30.945604,31.112734,91,82,0
30.945604,31.112734,94,82,0
30.945604,31.112734,87,69,0
31.279865,31.442467,82,68,0
31.279865,31.442467,94,80,0
31.442467,31.608213,89,72,0
31.442467,31.608213,77,61,0
31.608213,31.7717,91,73,0
31.608213,31.7717,87,73,0
31.608213,31.7717,79,62,0
31.608213,31.7717,82,62,0
31.7717,31.93699,87,69,0
31.7717,31.93699,75,58,0
31.93699,32.100033,86,77,0
31.93699,32.100033,74,65,0
32.100033,32.265778,82,72,0
32.100033,32.265778,70,61,0
32.265778,32.43432,83,83,0
32.265778,32.43432,75,70,0
32.265778,32.43432,71,70,0
32.265778,32.43432,81,83,0
32.60286,32.93712,83,72,0
32.60286,32.93712,75,61,0
32.60286,32.93712,87,72,0
32.60286,32.93712,78,72,0
32.93712,33.27138,75,63,0
32.93712,33.27138,83,75,0
32.93712,33.27138,87,75,0
32.93712,33.27138,78,75,0
33.27138,33.605644,87,72,0
33.27138,33.605644,78,72,0
33.27138,33.605644,75,61,0
33.27138,33.605644,83,72,0
33.605644,33.76913,84,66,0
33.605644,33.76913,91,78,0
33.605644,33.76913,79,66,0
33.605644,33.76913,88,78,0
33.76913,33.93488,74,61,0
33.76913,33.93488,86,72,0
33.93488,34.097923,88,76,0
33.93488,34.097923,76,64,0
34.097923,34.263668,84,67,0
34.097923,34.263668,72,56,0
34.263668,34.427155,84,66,0
34.263668,34.427155,91,78,0
34.263668,34.427155,79,66,0
34.263668,34.427155,88,78,0
34.427155,34.5929,86,68,0
34.427155,34.5929,74,57,0
34.5929,34.758648,76,62,0
34.5929,34.758648,88,73,0
34.758648,34.924393,72,56,0
34.758648,34.924393,84,66,0
34.924393,35.092934,83,83,0
34.924393,35.092934,81,83,0
34.924393,35.092934,71,70,0
34.924393,35.092934,75,70,0
35.26147,35.595734,75,61,0
35.26147,35.595734,78,61,0
35.26147,35.595734,87,72,0
35.26147,35.595734,83,72,0
35.595734,35.929996,78,63,0
35.595734,35.929996,75,63,0
35.595734,35.929996,87,75,0
35.595734,35.929996,83,75,0
35.929996,36.26426,75,61,0
35.929996,36.26426,78,61,0
35.929996,36.26426,87,72,0
35.929996,36.26426,83,72,0
36.26426,36.430004,84,66,0
36.26426,36.430004,91,78,0
36.26426,36.430004,96,78,0
36.26426,36.430004,88,66,0
36.59575,36.757473,84,64,0
36.59575,36.757473,96,76,0
36.757473,36.92141,91,67,0
36.757473,36.92141,79,56,0
36.92141,37.086243,93,68,0
36.92141,37.086243,88,68,0
36.92141,37.086243,81,57,0
36.92141,37.086243,84,57,0
37.086243,37.254784,89,64,0
37.086243,37.254784,77,54,0
37.254784,37.423325,88,73,0
37.254784,37.423325,76,62,0
37.423325,37.59186,84,66,0
37.423325,37.59186,72,56,0
37.59186,37.761833,67,78,0
37.59186,37.761833,55,66,0
37.931805,38.096188,103,73,0
37.931805,38.096188,91,62,0
38.096188,38.26332,86,56,0
38.096188,38.26332,98,67,0
38.26332,38.428154,99,70,0
38.26332,38.428154,87,59,0
38.428154,38.595753,86,55,0
38.428154,38.595753,98,65,0
38.595753,38.76059,94,70,0
38.595753,38.76059,82,59,0
38.76059,38.928185,79,56,0
38.76059,38.928185,91,67,0
38.928185,39.09302,92,70,0
38.928185,39.09302,80,59,0
39.09302,39.26062,87,54,0
39.09302,39.26062,99,64,0
39.26062,39.425907,95,67,0
39.26062,39.425907,83,56,0
39.425907,39.596848,87,50,0
39.425907,39.596848,99,59,0
39.596848,39.774364,98,74,0
39.596848,39.774364,86,62,0
39.951878,40.129395,79,57,0
39.951878,40.129395,91,68,0
40.306908,40.64685,79,66,0
40.306908,40.64685,91,78,0
40.64685,40.811234,91,73,0
40.64685,40.811234,79,62,0
40.811234,40.978367,74,56,0
40.811234,40.978367,86,67,0
40.978367,41.1432,75,59,0
40.978367,41.1432,87,70,0
41.1432,41.3108,86,65,0
41.1432,41.3108,74,55,0
41.3108,41.475636,82,70,0
41.3108,41.475636,70,59,0
41.475636,41.643234,79,67,0
41.475636,41.643234,67,56,0
41.643234,41.808067,68,59,0
41.643234,41.808067,80,70,0
41.808067,41.975666,75,54,0
41.808067,41.975666,87,64,0
41.975666,42.140953,71,56,0
41.975666,42.140953,83,67,0
42.140953,42.311893,87,59,0
42.140953,42.311893,75,50,0
42.311893,42.491,86,79,0
42.311893,42.491,74,67,0
42.670105,42.84921,79,67,0
42.670105,42.84921,67,56,0
43.028313,43.368256,67,66,0
43.028313,43.368256,79,78,0
43.368256,43.53264,67,62,0
43.368256,43.53264,79,73,0
43.53264,43.69977,74,67,0
43.53264,43.69977,62,56,0
43.69977,43.864605,63,59,0
43.69977,43.864605,75,70,0
43.864605,44.032204,62,55,0
43.864605,44.032204,74,65,0
44.032204,44.197037,58,59,0
44.032204,44.197037,70,70,0
44.197037,44.364635,67,67,0
44.197037,44.364635,55,56,0
44.719666,44.88405,67,62,0
44.719666,44.88405,79,73,0
44.364635,44.88405,54,87,0
44.88405,45.05118,62,56,0
44.88405,45.05118,74,67,0
45.05118,45.216015,75,70,0
45.05118,45.216015,63,59,0
45.216015,45.383614,62,55,0
45.216015,45.383614,74,65,0
45.383614,45.550743,70,70,0
45.383614,45.550743,58,59,0
45.550743,45.72217,67,67,0
45.550743,45.72217,55,56,0
46.074078,46.238464,79,73,0
46.074078,46.238464,67,62,0
45.72217,46.238464,53,87,0
46.238464,46.405594,62,56,0
46.238464,46.405594,74,67,0
46.405594,46.57043,63,59,0
46.405594,46.57043,75,70,0
46.57043,46.738026,74,65,0
46.57043,46.738026,62,55,0
46.738026,46.906094,70,70,0
46.738026,46.906094,58,59,0
46.906094,47.078506,67,67,0
46.906094,47.078506,55,56,0
47.43249,47.596874,67,62,0
47.43249,47.596874,79,73,0
47.078506,47.596874,52,87,0
47.596874,47.764004,74,67,0
47.596874,47.764004,62,56,0
47.764004,47.92884,63,59,0
47.764004,47.92884,75,70,0
47.92884,48.096436,62,55,0
47.92884,48.096436,74,65,0
48.096436,48.264503,58,59,0
48.096436,48.264503,70,70,0
48.264503,48.43692,55,56,0
48.264503,48.43692,67,67,0
48.43692,48.795128,51,87,0
48.795128,48.9651,50,87,0
49.475014,49.644985,80,70,0
49.13507,49.644985,59,73,0
49.13507,49.644985,71,87,0
49.475014,49.644985,92,83,0
49.899643,49.984386,103,72,0
50.069134,50.15388,98,65,0
50.238625,50.32315,99,69,0
50.407658,50.492165,95,66,0
50.57667,50.66118,96,69,0
50.74547,50.82974,91,65,0
50.91401,50.99828,92,69,0
51.08255,51.166603,86,65,0
51.2504,51.334198,87,72,0
51.418,51.501797,83,65,0
51.585598,51.669395,84,69,0
51.753193,51.836994,79,65,0
51.92079,52.004593,80,68,0
52.08839,52.17219,74,63,0
52.25599,52.339787,75,69,0
52.423588,52.507385,71,66,0
52.590717,52.674053,72,72,0
52.757385,52.840717,67,63,0
52.924053,53.007233,68,69,0
53.090332,53.173435,62,66,0
53.25654,53.33964,63,69,0
53.42267,53.50554,59,66,0
53.588413,53.671288,60,75,0
53.754158,53.837032,55,69,0
53.919678,54.002323,56,78,0
54.084965,54.16761,50,71,0
54.250256,54.3329,51,81,0
54.415546,54.49819,47,74,0
54.580833,54.66348,48,82,0
54.746124,54.82877,43,77,0
54.911415,54.99406,44,82,0
55.076702,55.159576,43,77,0
55.242912,55.3264,44,82,0
55.41004,55.493843,43,76,0
55.577797,55.66191,47,82,0
55.746178,55.830685,43,79,0
55.91527,56.00002,56,82,0
56.085003,56.17015,55,76,0
56.25538,56.340847,59,82,0
56.42648,56.512276,55,79,0
56.512276,56.689266,56,85,0
56.86626,57.04325,56,84,0
57.22024,57.397232,79,86,0
57.22024,57.397232,67,73,0
57.574223,57.751213,67,70,0
57.574223,57.751213,79,83,0
57.928204,58.105194,56,85,0
58.28219,58.45918,56,84,0
58.63617,58.81316,67,73,0
58.63617,58.81316,79,86,0
58.99015,59.16714,67,70,0
58.99015,59.16714,79,83,0
59.34413,60.052097,56,85,0
60.052097,60.76006,67,71,0
60.052097,60.76006,79,84,0
60.76006,61.468025,56,85,0
61.468025,62.268024,67,70,0
61.468025,62.268024,79,83,0
62.268024,62.670048,67,61,0
62.670048,63.080673,67,54,0
63.080673,63.50027,67,51,0
63.50027,63.93585,67,47,0
63.93585,64.053,67,36,0
64.040085,64.15755,64,31,0
64.14462,64.2608,67,36,0
64.24759,64.36542,64,31,0
64.35257,64.46953,67,36,0
64.45639,64.57495,64,31,0
64.56166,64.67836,67,36,0
64.66564,64.78048,64,31,0
64.76763,64.88502,67,36,0
64.87188,64.989265,64,32,0
64.97641,65.09307,67,36,0
65.08008,65.19605,64,31,0
65.18291,65.301544,67,36,0
65.28833,65.40616,64,31,0
65.39331,65.50985,67,36,0
65.496704,65.61425,64,31,0
65.601395,65.716934,67,36,0
65.70394,65.82138,64,30,0
65.80832,65.92498,67,36,0
65.912125,66.02773,64,30,0
66.01467,66.13228,67,36,0
66.119354,66.23503,64,32,0
66.22204,66.33987,67,36,0
66.32672,66.43139,64,31,0
66.43139,66.596825,67,37,0
66.54417,66.71026,64,32,0
66.65781,66.82527,67,36,0
66.77201,66.9409,64,32,0
66.88766,67.05519,67,37,0
67.00234,67.12942,64,31,0
67.11627,67.232666,67,36,0
67.21967,67.33734,64,31,0
67.32435,67.442764,67,36,0
67.429474,67.54644,64,32,0
67.53359,67.65063,67,36,0
67.63771,67.75555,64,31,0
67.742256,67.85982,67,36,0
67.84697,67.965996,64,31,0
67.95256,68.07127,67,36,0
68.05828,68.1767,64,31,0
68.16341,68.28037,67,36,0
68.267525,68.38648,64,30,0
68.373116,68.491165,67,36,0
68.47824,68.595345,64,30,0
68.58221,68.70033,67,36,0
68.68733,68.80379,64,32,0
68.79086,68.90869,67,36,0
68.89555,69.00193,64,31,0
69.00193,69.13216,67,39,0
69.11754,69.24921,64,33,0
69.2345,69.36634,67,38,0
69.351456,69.48334,64,33,0
69.46863,69.600426,67,38,0
69.58581,69.71559,64,34,0
69.70253,69.81912,67,36,0
69.80634,69.92338,64,31,0
69.910164,70.02851,67,36,0
70.01573,70.13106,64,32,0
70.11799,70.23444,67,36,0
70.221664,70.3385,64,31,0
70.32521,70.441414,67,36,0
70.42863,70.545876,64,31,0
70.53274,70.64891,67,36,0
70.63613,70.75309,64,31,0
70.739944,70.85692,67,36,0
70.84421,70.96133,64,30,0
70.94819,71.06479,67,36,0
71.051865,71.16976,64,30,0
71.15655,71.27282,67,36,0
71.2601,71.37663,64,32,0
71.363495,71.4819,67,36,0
71.46891,71.57407,64,31,0
71.57407,71.6963,67,36,0
71.6827,71.80367,64,31,0
71.79008,71.91175,67,36,0
71.89854,72.01637,64,31,0
72.00337,72.122604,67,36,0
72.109245,72.22752,64,31,0
72.21467,72.33092,67,36,0
72.31777,72.43538,64,31,0
72.422455,72.541176,67,36,0
72.527885,72.64638,64,32,0
72.63345,72.75203,67,36,0
72.73859,72.85821,64,31,0
72.84521,72.962234,67,36,0
72.94903,73.0681,64,31,0
73.05504,73.17177,67,36,0
73.158844,73.277565,64,31,0
73.264275,73.38343,67,36,0
73.37044,73.47513,64,30,0
73.47513,73.63052,67,38,0
73.58189,73.73532,64,35,0
73.6867,73.844284,67,38,0
73.79339,73.956215,64,32,0
73.90424,74.06709,67,36,0
74.015594,74.18132,64,31,0
74.12694,74.24845,67,40,0
74.23509,74.35668,64,36,0
74.342926,74.46486,67,39,0
74.45157,74.572784,64,34,0
74.55911,74.68156,67,39,0
74.66804,74.78963,64,33,0
74.77619,74.932274,67,38,0
74.883255,75.039505,64,32,0
74.99033,75.14698,67,36,0
75.09696,75.254,64,32,0
75.204956,75.36085,67,36,0
75.31112,75.4528,64,31,0
75.41959,75.580185,66,37,0
75.52947,75.69136,63,32,0
75.64001,75.801384,66,36,0
75.75005,75.91088,63,32,0
75.86057,76.02088,66,37,0
75.96998,76.091866,63,31,0
76.0788,76.195816,66,34,0
76.18289,76.30021,63,29,0
76.286995,76.40475,66,34,0
76.39182,76.50966,63,30,0
76.49637,76.61508,66,33,0
76.602234,76.71934,63,28,0
76.70619,76.824974,66,33,0
76.81176,76.929436,63,28,0
76.91629,77.0356,66,33,0
77.022316,77.13978,63,28,0
77.126854,77.24505,66,33,0
77.231834,77.3493,63,27,0
77.33637,77.453705,66,32,0
77.44049,77.55919,63,27,0
77.546196,77.66209,66,32,0
77.6493,77.767296,63,28,0
77.754005,77.87316,66,32,0
77.860016,77.96515,63,27,0
77.96515,78.12777,66,39,0
78.075516,78.24022,63,33,0
78.1887,78.35026,66,38,0
78.29939,78.46196,63,33,0
78.410736,78.57261,66,38,0
78.52111,78.645454,63,34,0
78.632454,78.74856,66,34,0
78.735565,78.85375,63,29,0
78.84054,78.95821,66,34,0
78.945366,79.06126,63,30,0
79.048195,79.1669,66,33,0
79.15391,79.270294,63,28,0
79.25715,79.37534,66,33,0
79.36242,79.47767,63,28,0
79.46496,79.58099,66,33,0
79.56778,79.68584,63,28,0
79.67305,79.78946,66,33,0
79.77631,79.894005,63,27,0
79.88116,79.99648,66,32,0
79.98356,80.10079,63,27,0
80.087654,80.20519,66,32,0
80.19234,80.30944,63,28,0
80.2963,80.41398,66,32,0
80.400986,80.504944,63,27,0
80.504944,80.663864,65,36,0
80.6134,80.77219,62,31,0
80.72201,80.87805,65,36,0
80.82956,80.982124,62,31,0
80.93367,81.086876,65,36,0
81.038795,81.19149,62,31,0
81.14247,81.295586,65,36,0
81.247894,81.40115,62,31,0
81.351715,81.504585,65,36,0
81.457146,81.60886,62,32,0
81.56011,81.71432,65,36,0
81.66568,81.7825,62,31,0
81.76951,81.88799,65,36,0
81.87478,81.99282,62,31,0
81.97961,82.097946,65,36,0
82.08502,82.20098,62,31,0
82.18799,82.30625,65,36,0
82.29311,82.39824,62,30,0
82.39824,82.54587,65,38,0
82.4986,82.64803,62,35,0
82.601,82.75316,65,38,0
82.7027,82.86343,62,32,0
82.812096,82.97368,65,36,0
82.92278,83.04635,62,31,0
83.03283,83.153496,65,40,0
83.14005,83.261795,62,36,0
83.24835,83.36964,65,39,0
83.35588,83.47905,62,34,0
83.465614,83.586655,65,39,0
83.573135,83.68129,62,33,0
83.68129,83.837524,65,38,0
83.78835,83.944466,62,32,0
83.895424,84.050865,65,36,0
84.001144,84.159035,62,32,0
84.109436,84.26494,65,36,0
84.21605,84.3366,62,31,0
84.322845,84.44599,64,37,0
84.432396,84.5562,61,32,0
84.54228,84.66506,64,36,0
84.65154,84.77439,61,32,0
84.760635,84.88533,64,37,0
84.87149,84.98217,61,31,0
84.98217,85.09891,63,36,0
85.08584,85.20439,59,31,0
85.19125,85.30842,63,36,0
85.29536,85.41413,59,32,0
85.40107,85.51874,63,36,0
85.5056,85.610725,59,31,0
85.610725,86.25315,69,49,0
85.610725,86.25315,81,54,0
86.25315,86.56445,88,57,0
86.25315,86.56445,76,53,0
86.87702,87.00189,59,37,0
86.98789,87.111465,56,32,0
87.097946,87.22195,59,36,0
87.20786,87.33217,56,32,0
87.31873,87.44144,59,37,0
87.42768,87.53773,56,31,0
87.53773,87.65418,58,36,0
87.64111,87.7587,55,31,0
87.74563,87.86181,58,36,0
87.848595,87.967606,55,32,0
87.95461,88.07259,58,36,0
88.05945,88.16458,55,31,0
88.16458,88.8135,81,54,0
88.16458,88.8135,69,49,0
88.8135,89.12455,76,53,0
88.8135,89.12455,88,57,0
89.43795,89.5616,55,37,0
89.54768,89.67182,51,32,0
89.658226,89.781784,55,36,0
89.76811,89.89135,51,32,0
89.87751,90.00106,55,37,0
89.98739,90.09571,51,31,0
90.09571,90.21253,54,36,0
90.19924,90.319145,50,31,0
90.306,90.42354,54,36,0
90.41025,90.530075,50,32,0
90.517006,90.63396,54,36,0
90.620964,90.7266,50,31,0
90.7266,91.39129,81,54,0
90.7266,91.39129,69,49,0
91.39129,91.70293,76,53,0
91.39129,91.70293,88,57,0
92.66022,92.77617,67,32,0
92.763176,92.88136,63,27,0
92.8683,92.98475,67,32,0
92.97197,93.08916,63,27,0
93.07623,93.19407,67,33,0
93.18093,93.28606,63,27,0
93.28606,93.3961,67,36,0
93.36859,93.47831,64,31,0
93.4508,93.5607,67,36,0
93.53366,93.64261,64,32,0
93.61478,93.72498,67,36,0
93.69779,93.807846,64,31,0
93.780014,93.89136,67,36,0
93.863525,93.94703,64,31,0
93.94703,94.05042,67,34,0
94.02486,94.128136,64,29,0
94.101555,94.206985,67,34,0
94.181,94.28467,64,29,0
94.25883,94.36395,67,33,0
94.33723,94.44324,64,29,0
94.41711,94.52064,67,34,0
94.494934,94.572624,64,29,0
94.572624,94.67924,67,33,0
94.65266,94.75735,64,28,0
94.73164,94.83503,67,33,0
94.8089,94.91645,64,29,0
94.8891,94.99726,67,33,0
94.97083,95.07566,64,31,0
95.04967,95.15277,67,34,0
94.8891,95.204605,70,50,0
94.8891,95.204605,79,60,0
94.8891,95.204605,76,60,0
95.12707,95.204605,64,30,0
95.204605,95.310616,67,65,0
95.28389,95.3896,64,31,0
95.36347,95.46742,67,34,0
95.204605,95.5194,91,65,0
95.204605,95.5194,88,65,0
95.204605,95.5194,82,55,0
95.44158,95.54583,64,32,0
95.5194,95.62556,67,35,0
95.59913,95.703964,64,31,0
95.67797,95.781494,67,34,0
95.75565,95.83318,64,30,0
95.83318,95.94338,67,36,0
95.91604,96.02706,64,31,0
95.99939,96.11162,67,36,0
96.08294,96.198204,64,32,0
96.16934,96.28241,67,36,0
96.2549,96.364624,64,31,0
96.33679,96.44863,67,36,0
96.42063,96.53076,64,31,0
96.50464,96.60774,67,34,0
96.5819,96.68599,64,29,0
96.66,96.76297,67,34,0
96.73754,96.840515,64,29,0
96.81424,96.91892,67,33,0
96.89293,96.99561,64,29,0
96.97019,97.07404,67,34,0
97.04746,97.12705,64,29,0
97.12705,97.23002,67,33,0
97.20445,97.308716,64,28,0
97.28229,97.38684,67,33,0
97.36114,97.46368,64,29,0
97.43811,97.54252,67,33,0
97.51609,97.6195,64,31,0
97.59407,97.695915,67,34,0
97.43811,97.74863,70,52,0
97.43811,97.74863,76,62,0
97.43811,97.74863,79,62,0
97.67035,97.74863,64,30,0
97.74863,97.85332,67,66,0
97.82747,97.92987,64,31,0
97.904305,98.008575,67,36,0
97.74863,98.06083,82,55,0
97.74863,98.06083,91,66,0
97.74863,98.06083,88,66,0
97.98215,98.086395,64,32,0
98.06083,98.16338,67,38,0
98.13739,98.24207,64,31,0
98.21594,98.32004,67,38,0
98.2942,98.37173,64,33,0
98.37173,98.4791,67,40,0
98.45191,98.560684,64,31,0
98.533646,98.64132,67,36,0
98.61444,98.72136,64,32,0
98.695076,98.80005,67,38,0
98.773926,98.87815,64,31,0
98.85231,98.957016,67,36,0
98.930435,99.036606,64,30,0
99.01032,99.114426,67,34,0
99.088295,99.193405,64,29,0
99.16698,99.271225,67,34,0
99.24538,99.349625,64,29,0
99.32334,99.42775,67,33,0
99.40205,99.50557,64,29,0
99.47945,99.58396,67,34,0
99.55783,99.66164,64,29,0
99.636215,99.73876,67,36,0
99.712776,99.81561,64,31,0
99.79032,99.89315,67,36,0
99.86716,99.97097,64,32,0
99.94484,100.04922,67,36,0
100.023224,100.126755,64,31,0
100.10105,100.20444,67,36,0
100.17831,100.25684,64,31,0
100.25684,100.359955,67,34,0
100.33425,100.43851,64,29,0
100.412224,100.51647,67,34,0
100.49062,100.596,64,29,0
100.56816,100.67885,67,33,0
100.651184,100.76253,64,29,0
100.735016,100.84507,67,34,0
100.81756,100.92681,64,29,0
100.89977,101.00761,67,37,0
100.980415,101.09013,64,32,0
101.06262,101.17093,67,37,0
101.1442,101.25052,64,32,0
101.22394,101.33178,67,37,0
101.3049,101.41198,64,31,0
101.38493,101.49355,67,38,0
101.46636,101.547935,64,31,0
101.547935,101.65424,67,39,0
101.627815,101.73428,64,31,0
101.707245,101.815094,67,37,0
101.78851,101.89453,64,32,0
101.867805,101.97488,67,36,0
101.948296,102.05553,64,31,0
102.02865,102.13526,67,34,0
102.10868,102.21609,64,29,0
102.188416,102.298294,66,38,0
102.27095,102.38082,63,31,0
102.35331,102.46209,66,38,0
102.43505,102.54543,63,32,0
102.5176,102.628296,66,38,0
102.600784,102.71083,63,31,0
102.68332,102.79304,66,38,0
102.765686,102.847725,63,31,0
102.847725,102.95182,66,34,0
102.92597,103.02979,63,29,0
103.00352,103.1085,66,34,0
103.082504,103.18561,63,29,0
103.159904,103.26415,66,33,0
103.237724,103.34314,63,29,0
103.31671,103.42302,66,34,0
103.39629,103.50291,63,29,0
103.476326,103.581024,66,33,0
103.555176,103.65828,63,28,0
103.632576,103.7364,66,33,0
103.71011,103.78955,63,29,0
103.78955,103.8938,67,33,0
103.86767,103.972946,64,31,0
103.946365,104.05223,67,34,0
103.78955,104.10421,76,63,0
103.78955,104.10421,79,63,0
103.78955,104.10421,70,53,0
104.02595,104.10421,64,30,0
104.10421,104.20773,67,66,0
104.18161,104.287025,64,31,0
104.2606,104.36528,67,34,0
104.10421,104.41741,82,55,0
104.10421,104.41741,88,66,0
104.10421,104.41741,91,66,0
104.33944,104.44383,64,32,0
104.41741,104.52357,67,35,0
104.49714,104.60242,64,31,0
104.57613,104.68127,67,34,0
104.65498,104.76183,64,30,0
104.733826,104.84468,66,36,0
104.81702,104.929184,63,31,0
104.90102,105.0122,66,36,0
104.984856,105.09588,63,32,0
105.06771,105.17938,66,36,0
105.15172,105.2616,63,31,0
105.233925,105.3451,66,36,0
105.31727,105.4269,63,31,0
105.40078,105.50445,66,34,0
105.478745,105.58214,63,29,0
105.555855,105.661125,66,34,0
105.63485,105.73881,63,29,0
105.713104,105.81652,66,33,0
105.78994,105.8961,63,29,0
105.869675,105.97421,66,34,0
105.94823,106.05162,63,29,0
106.02563,106.131355,66,33,0
106.10463,106.21005,63,28,0
106.18406,106.28717,66,33,0
106.26132,106.33929,63,29,0
106.33929,106.44324,67,33,0
106.417534,106.519936,64,31,0
106.49423,106.598335,67,34,0
106.33929,106.65032,76,64,0
106.33929,106.65032,79,64,0
106.33929,106.65032,70,54,0
106.57206,106.65032,64,30,0
106.65032,106.755165,67,67,0
106.72888,106.834015,64,31,0
106.80773,106.91099,67,34,0
106.65032,106.96283,82,56,0
106.65032,106.96283,88,67,0
106.65032,106.96283,91,67,0
106.88542,106.988815,64,32,0
106.96283,107.0672,67,35,0
107.04108,107.14559,64,31,0
107.11946,107.223976,67,34,0
107.197845,107.277145,64,30,0
107.277145,107.38529,65,40,0
107.35795,107.46641,62,31,0
107.43968,107.54798,65,36,0
107.52079,107.62879,62,32,0
107.60236,107.70807,65,38,0
107.68165,107.78735,62,31,0
107.760925,107.86532,65,36,0
107.83947,107.9455,62,30,0
107.918625,108.02569,65,34,0
107.99926,108.10452,62,29,0
108.0784,108.182205,65,34,0
108.15621,108.26209,62,29,0
108.23551,108.340355,65,33,0
108.31451,108.41733,62,29,0
108.391624,108.49617,65,34,0
108.46974,108.575455,62,29,0
108.54903,108.65357,65,36,0
108.62772,108.73241,62,31,0
108.705986,108.81169,65,36,0
108.78526,108.88981,62,32,0
108.86396,108.96865,65,36,0
108.94222,109.04883,62,31,0
109.0221,109.12585,65,36,0
109.10069,109.176025,62,31,0
109.176025,109.28057,65,34,0
109.25429,109.35941,62,29,0
109.33313,109.43826,65,34,0
109.41198,109.5194,62,29,0
109.49206,109.60179,65,33,0
109.573784,109.68596,62,29,0
109.65812,109.76849,65,34,0
109.74098,109.85071,62,29,0
109.82352,109.93104,65,36,0
109.90431,110.01063,62,31,0
109.98405,110.09251,65,36,0
110.06516,110.1727,62,32,0
110.14627,110.25289,65,36,0
110.22585,110.33493,62,31,0
110.30759,110.415726,65,36,0
110.38885,110.46934,62,31,0
110.46934,110.57535,65,34,0
110.549065,110.65614,62,29,0
110.62895,110.73679,65,34,0
110.71006,110.815926,62,29,0
110.7895,110.89641,65,33,0
110.86953,110.97736,62,29,0
110.950325,111.05817,65,34,0
111.03129,111.13789,62,29,0
111.11147,111.21824,64,36,0
111.1912,111.297676,61,32,0
111.27139,111.377266,64,37,0
111.35039,111.45822,61,32,0
111.43134,111.537506,64,36,0
111.511375,111.61679,61,33,0
111.59022,111.69682,64,38,0
111.6701,111.75013,61,33,0
111.75013,111.85453,63,39,0
111.8281,111.934715,59,34,0
111.90784,112.01444,63,39,0
111.98802,112.09256,59,34,0
112.06672,112.170685,63,39,0
112.1444,112.24996,59,35,0
112.22353,112.3291,63,40,0
112.30282,112.38108,59,35,0
112.38108,112.48504,62,41,0
112.45905,112.56258,58,36,0
112.53673,112.64113,62,41,0
112.6147,112.720116,58,36,0
112.693985,112.79779,62,41,0
112.77209,112.87547,58,36,0
112.84934,112.9552,62,42,0
112.928474,113.00791,58,36,0
113.00791,113.11172,60,43,0
113.08588,113.189835,57,37,0
113.16355,113.269875,60,44,0
113.243,113.35006,57,37,0
113.32348,113.428604,60,43,0
113.40261,113.50687,57,38,0
113.48058,113.58767,60,45,0
113.56063,113.64175,57,38,0
113.64175,113.74836,59,45,0
113.72179,113.82886,56,39,0
113.80182,113.909515,59,45,0
113.882935,113.98851,56,39,0
113.96223,114.06854,59,45,0
114.04182,114.14934,56,40,0
114.12246,114.22893,59,46,0
114.202644,114.28118,56,41,0
114.28118,114.38721,58,47,0
114.36033,114.46784,55,41,0
114.44096,114.54757,58,47,0
114.52115,114.62598,55,42,0
114.59998,114.70422,58,46,0
114.67809,114.78456,55,42,0
114.75768,114.86429,58,49,0
114.83787,114.91655,55,43,0
114.91655,115.02007,57,49,0
114.99423,115.09863,53,43,0
115.07235,115.178215,57,50,0
115.151634,115.2575,53,44,0
115.23137,115.33547,57,49,0
115.30948,115.41373,53,44,0
115.38744,115.49258,57,51,0
115.46629,115.54483,53,45,0
115.54483,115.64966,56,52,0
115.62353,115.72879,52,45,0
115.70251,115.80591,56,52,0
115.78034,115.88504,52,45,0
115.85862,115.96316,56,51,0
115.937454,116.042305,52,45,0
116.01573,116.12115,56,53,0
116.09502,116.17312,52,46,0
116.17312,116.27622,55,51,0
116.2501,116.355515,51,45,0
116.32923,116.43277,55,49,0
116.40692,116.511154,51,44,0
116.48502,116.58984,55,47,0
116.56356,116.66869,51,43,0
116.64241,116.74754,55,46,0
116.72126,116.7998,51,42,0
116.7998,116.9039,54,47,0
116.87791,116.98244,50,41,0
116.956154,117.06026,54,45,0
117.03442,117.139404,50,40,0
117.11268,117.21738,54,43,0
117.19167,117.295494,50,39,0
117.26921,117.37419,54,42,0
117.34806,117.42676,50,38,0
117.42676,117.53188,53,43,0
117.5056,117.61058,49,37,0
117.58445,117.68841,53,41,0
117.66256,117.767395,49,36,0
117.740814,117.84669,53,39,0
117.820404,117.92552,49,36,0
117.89894,118.00526,53,38,0
117.978676,118.05811,49,35,0
118.05811,118.16323,52,38,0
118.1371,118.24134,48,34,0
118.21535,118.32063,52,37,0
118.29391,118.40081,48,33,0
118.374084,118.47967,52,36,0
118.453674,118.55852,48,32,0
118.53194,118.63825,52,35,0
118.61167,118.69141,48,31,0
121.0589,121.23102,64,65,0
121.0589,121.23102,76,65,0
121.23102,122.18898,76,72,0
121.23102,122.18898,88,72,0
123.608,123.782196,64,65,0
123.608,123.782196,76,65,0
123.782196,124.73637,76,72,0
123.782196,124.73637,88,72,0
130.32574,130.6787,55,86,0
131.73752,132.09045,55,86,0
132.09045,132.44339,55,82,0
133.14928,133.50221,55,86,0
133.50221,133.85516,55,82,0
134.02182,134.10225,56,85,0
133.85516,134.18268,55,95,0
134.35123,134.44104,65,77,0
134.18268,134.53087,55,83,0
134.53087,134.8838,55,85,0
134.8838,135.23674,55,83,0
135.40388,135.56473,56,84,0
135.23674,135.56473,55,94,0
135.73422,135.81596,61,77,0
135.56473,135.89772,55,83,0
135.89772,136.2517,55,80,0
136.2517,136.60568,55,78,0
136.60568,136.95966,55,81,0
136.95966,137.31364,55,85,0
137.31364,137.39792,55,71,0
137.48218,137.5624,60,65,0
137.64261,137.72571,56,84,0
137.8088,137.8899,61,73,0
137.97098,138.05295,57,72,0
138.13492,138.21527,62,71,0
138.29549,138.38023,58,81,0
138.46498,138.5474,63,70,0
138.6298,138.71408,55,73,0
138.79836,138.87878,60,68,0
138.95921,139.04277,56,88,0
139.12634,139.20853,61,77,0
139.29073,139.37405,57,79,0
139.45738,139.53804,62,74,0
139.61868,139.70294,58,87,0
139.78722,139.86874,63,74,0
139.9095,139.95026,89,62,0
139.95026,140.03091,88,76,0
139.95026,140.03091,84,76,0
139.95026,140.03091,76,64,0
140.22813,140.267,87,60,0
140.267,140.34785,77,61,0
140.267,140.34785,85,72,0
140.267,140.34785,80,72,0
140.54713,140.58661,86,58,0
140.58661,140.66748,84,72,0
140.58661,140.66748,74,61,0
140.58661,140.66748,78,72,0
140.86522,140.90417,84,55,0
140.90417,140.9846,70,58,0
140.90417,140.9846,79,69,0
140.90417,140.9846,82,69,0
141.18346,141.22293,77,58,0
141.22293,141.30357,76,72,0
141.22293,141.30357,72,72,0
141.22293,141.30357,64,61,0
141.50081,141.53966,75,56,0
141.53966,141.62053,65,57,0
141.53966,141.62053,73,68,0
141.53966,141.62053,68,68,0
141.81981,141.85928,74,54,0
141.85928,141.94014,72,68,0
141.85928,141.94014,66,68,0
141.85928,141.94014,62,57,0
142.1379,142.17685,72,52,0
142.17685,142.25728,67,65,0
142.17685,142.25728,70,65,0
142.17685,142.25728,58,55,0
142.4961,142.5799,55,76,0
142.6637,142.74457,60,70,0
142.82478,142.90811,56,90,0
142.99146,143.0732,61,80,0
143.15494,143.23874,57,78,0
143.32254,143.40211,62,77,0
143.48169,143.56596,58,89,0
143.65022,143.73131,63,76,0
143.8124,143.8955,55,81,0
143.97859,144.05817,60,75,0
144.13774,144.22131,56,99,0
144.30487,144.38663,61,86,0
144.46837,144.55147,57,88,0
144.63457,144.7133,62,83,0
144.79205,144.87703,58,99,0
144.96202,145.04489,63,84,0
145.12776,145.29489,72,79,0
145.12776,145.29489,67,79,0
145.12776,145.29489,60,67,0
145.12776,145.29489,64,67,0
145.46204,145.7917,67,61,0
145.46204,145.7917,72,61,0
145.46204,145.7917,79,72,0
145.46204,145.7917,76,72,0
145.7917,146.12137,76,75,0
145.7917,146.12137,67,63,0
145.7917,146.12137,79,75,0
145.7917,146.12137,72,63,0
146.12137,146.40984,76,72,0
146.12137,146.40984,67,61,0
146.12137,146.40984,79,72,0
146.12137,146.40984,72,61,0
146.40984,146.45395,80,64,0
146.40984,146.45395,68,54,0
146.45395,146.62201,79,72,0
146.45395,146.62201,67,61,0
146.79008,147.131,72,69,0
146.79008,147.131,64,58,0
146.79008,147.131,60,58,0
146.79008,147.131,67,69,0
147.131,147.63426,68,73,0
147.131,147.63426,62,62,0
147.131,147.63426,74,73,0
147.131,147.63426,65,62,0
147.80556,147.97314,60,67,0
147.80556,147.97314,67,79,0
147.80556,147.97314,72,79,0
147.80556,147.97314,64,67,0
148.14075,148.47041,76,72,0
148.14075,148.47041,72,61,0
148.14075,148.47041,67,61,0
148.14075,148.47041,79,72,0
148.47041,148.8001,67,63,0
148.47041,148.8001,76,75,0
148.47041,148.8001,79,75,0
148.47041,148.8001,72,63,0
148.8001,149.08855,79,72,0
148.8001,149.08855,76,72,0
148.8001,149.08855,67,61,0
148.8001,149.08855,72,61,0
149.08855,149.1328,69,54,0
149.08855,149.1328,81,64,0
149.1328,149.30086,79,72,0
149.1328,149.30086,67,61,0
149.46893,149.80984,67,69,0
149.46893,149.80984,60,58,0
149.46893,149.80984,72,69,0
149.46893,149.80984,64,58,0
149.80984,150.31499,74,73,0
149.80984,150.31499,69,73,0
149.80984,150.31499,62,62,0
149.80984,150.31499,66,62,0
150.48804,150.65659,78,83,0
150.48804,150.65659,69,70,0
150.48804,150.65659,75,83,0
150.82512,151.15938,78,72,0
150.82512,151.15938,75,61,0
150.82512,151.15938,69,61,0
150.82512,151.15938,81,72,0
151.15938,151.49364,69,63,0
151.15938,151.49364,75,63,0
151.15938,151.49364,81,75,0
151.15938,151.49364,78,75,0
151.49364,151.82791,78,72,0
151.49364,151.82791,69,61,0
151.49364,151.82791,81,72,0
151.49364,151.82791,75,61,0
151.82791,151.99095,79,69,0
151.82791,151.99095,82,69,0
151.82791,151.99095,91,82,0
151.82791,151.99095,87,82,0
151.99095,152.15533,74,61,0
151.99095,152.15533,86,72,0
152.15533,152.31882,75,65,0
152.15533,152.31882,87,77,0
152.31882,152.48412,82,72,0
152.31882,152.48412,70,61,0
152.48412,152.64804,91,80,0
152.48412,152.64804,87,80,0
152.48412,152.64804,79,68,0
152.48412,152.64804,82,68,0
152.64804,152.81471,86,72,0
152.64804,152.81471,74,61,0
152.81471,152.98138,87,77,0
152.81471,152.98138,75,65,0
152.98138,153.14804,82,72,0
152.98138,153.14804,70,61,0
153.14804,153.31659,78,83,0
153.14804,153.31659,69,70,0
153.14804,153.31659,75,83,0
153.48512,153.81938,69,61,0
153.48512,153.81938,75,61,0
153.48512,153.81938,81,72,0
153.48512,153.81938,78,72,0
153.81938,154.15364,78,75,0
153.81938,154.15364,69,63,0
153.81938,154.15364,81,75,0
153.81938,154.15364,75,63,0
154.15364,154.48792,81,72,0
154.15364,154.48792,78,72,0
154.15364,154.48792,69,61,0
154.15364,154.48792,75,61,0
154.48792,154.65504,91,82,0
154.48792,154.65504,87,69,0
154.48792,154.65504,94,82,0
154.48792,154.65504,82,69,0
154.82217,154.98346,82,68,0
154.82217,154.98346,94,80,0
154.98346,155.14922,77,61,0
154.98346,155.14922,89,72,0
155.14922,155.3127,82,62,0
155.14922,155.3127,91,73,0
155.14922,155.3127,79,62,0
155.14922,155.3127,87,73,0
155.3127,155.47798,87,69,0
155.3127,155.47798,75,58,0
155.47798,155.64102,74,65,0
155.47798,155.64102,86,77,0
155.64102,155.80678,70,61,0
155.64102,155.80678,82,72,0
155.80678,155.97531,71,70,0
155.80678,155.97531,81,83,0
155.80678,155.97531,83,83,0
155.80678,155.97531,75,70,0
156.14386,156.47812,87,72,0
156.14386,156.47812,78,72,0
156.14386,156.47812,75,61,0
156.14386,156.47812,83,72,0
156.47812,156.81238,83,75,0
156.47812,156.81238,75,63,0
156.47812,156.81238,87,75,0
156.47812,156.81238,78,75,0
156.81238,157.14664,78,72,0
156.81238,157.14664,83,72,0
156.81238,157.14664,87,72,0
156.81238,157.14664,75,61,0
157.14664,157.31012,84,66,0
157.14664,157.31012,91,78,0
157.14664,157.31012,79,66,0
157.14664,157.31012,88,78,0
157.31012,157.47588,86,72,0
157.31012,157.47588,74,61,0
157.47588,157.63892,76,64,0
157.47588,157.63892,88,76,0
157.63892,157.80466,72,56,0
157.63892,157.80466,84,67,0
157.80466,157.96683,91,78,0
157.80466,157.96683,84,78,0
157.80466,157.96683,79,66,0
157.80466,157.96683,88,78,0
157.96683,158.13257,74,57,0
157.96683,158.13257,86,68,0
158.13257,158.29831,76,62,0
158.13257,158.29831,88,73,0
158.29831,158.46407,84,66,0
158.29831,158.46407,72,56,0
158.46407,158.6326,81,83,0
158.46407,158.6326,75,70,0
158.46407,158.6326,71,70,0
158.46407,158.6326,83,83,0
158.80115,159.1354,75,61,0
158.80115,159.1354,78,61,0
158.80115,159.1354,87,72,0
158.80115,159.1354,83,72,0
159.1354,159.46967,83,75,0
159.1354,159.46967,75,63,0
159.1354,159.46967,87,75,0
159.1354,159.46967,78,63,0
159.46967,159.80392,87,72,0
159.46967,159.80392,83,72,0
159.46967,159.80392,75,61,0
159.46967,159.80392,78,61,0
159.80392,159.96968,91,78,0
159.80392,159.96968,88,66,0
159.80392,159.96968,96,78,0
159.80392,159.96968,84,66,0
160.13542,160.29802,84,64,0
160.13542,160.29802,96,76,0
160.29802,160.46196,79,56,0
160.29802,160.46196,91,67,0
160.46196,160.62862,81,57,0
160.46196,160.62862,84,57,0
160.46196,160.62862,93,68,0
160.46196,160.62862,88,68,0
160.62862,160.79716,77,54,0
160.62862,160.79716,89,64,0
160.79716,160.9657,76,62,0
160.79716,160.9657,88,73,0
160.9657,161.13425,72,56,0
160.9657,161.13425,84,66,0
161.13425,161.30421,67,78,0
161.13425,161.30421,55,66,0
161.47418,161.63857,91,73,0
161.47418,161.63857,103,73,0
161.63857,161.8057,98,67,0
161.63857,161.8057,86,56,0
161.8057,161.97054,87,59,0
161.8057,161.97054,99,70,0
161.97054,162.13814,86,55,0
161.97054,162.13814,98,65,0
162.13814,162.30296,82,59,0
162.13814,162.30296,94,70,0
162.30296,162.47057,91,67,0
162.30296,162.47057,79,56,0
162.47057,162.63405,92,70,0
162.47057,162.63405,80,59,0
162.63405,162.80165,99,64,0
162.63405,162.80165,87,54,0
162.80165,162.96693,95,67,0
162.80165,162.96693,83,56,0
162.96693,163.13788,99,59,0
162.96693,163.13788,87,50,0
163.13788,163.3154,98,74,0
163.13788,163.3154,86,74,0
163.4929,163.67043,91,68,0
163.4929,163.67043,79,57,0
163.84795,164.18788,79,66,0
163.84795,164.18788,91,78,0
164.18788,164.35004,79,62,0
164.18788,164.35004,91,73,0
164.35004,164.51718,74,56,0
164.35004,164.51718,86,67,0
164.51718,164.682,87,70,0
164.51718,164.682,75,59,0
164.682,164.84961,74,55,0
164.682,164.84961,86,65,0
164.84961,165.01445,82,70,0
164.84961,165.01445,70,59,0
165.01445,165.18204,67,56,0
165.01445,165.18204,79,67,0
165.18204,165.34554,80,70,0
165.18204,165.34554,68,59,0
165.34554,165.51312,75,54,0
165.34554,165.51312,87,64,0
165.51312,165.67842,71,56,0
165.51312,165.67842,83,67,0
165.67842,165.84935,87,59,0
165.67842,165.84935,75,50,0
165.84935,166.02846,86,79,0
165.84935,166.02846,74,67,0
166.20757,166.38667,67,56,0
166.20757,166.38667,79,67,0
166.56578,166.90572,79,78,0
166.56578,166.90572,67,66,0
166.90572,167.0701,67,62,0
166.90572,167.0701,79,73,0
167.0701,167.23723,74,67,0
167.0701,167.23723,62,56,0
167.23723,167.40117,63,59,0
167.23723,167.40117,75,70,0
167.40117,167.56877,62,55,0
167.40117,167.56877,74,65,0
167.56877,167.7336,58,59,0
167.56877,167.7336,70,70,0
167.7336,167.9012,67,67,0
167.7336,167.9012,55,56,0
168.25623,168.42061,67,62,0
168.25623,168.42061,79,73,0
167.9012,168.42061,54,87,0
168.42061,168.58774,62,56,0
168.42061,168.58774,74,67,0
168.58774,168.75258,75,70,0
168.58774,168.75258,63,59,0
168.75258,168.92018,62,55,0
168.75258,168.92018,74,65,0
168.92018,169.08731,58,59,0
168.92018,169.08731,70,70,0
169.08731,169.25873,67,67,0
169.08731,169.25873,55,56,0
169.61064,169.77502,67,62,0
169.61064,169.77502,79,73,0
169.25873,169.77502,53,87,0
169.77502,169.94215,62,56,0
169.77502,169.94215,74,67,0
169.94215,170.107,75,70,0
169.94215,170.107,63,59,0
170.107,170.27458,62,55,0
170.107,170.27458,74,65,0
170.27458,170.44266,70,70,0
170.27458,170.44266,58,59,0
170.44266,170.61507,55,56,0
170.44266,170.61507,67,67,0
170.96906,171.13344,79,73,0
170.96906,171.13344,67,62,0
170.61507,171.13344,52,87,0
171.13344,171.30057,74,67,0
171.13344,171.30057,62,56,0
171.30057,171.4654,75,70,0
171.30057,171.4654,63,59,0
171.4654,171.633,62,55,0
171.4654,171.633,74,65,0
171.633,171.80107,70,70,0
171.633,171.80107,58,59,0
171.80107,171.97348,55,56,0
171.80107,171.97348,67,67,0
171.97348,172.3317,51,87,0
172.3317,172.50166,50,87,0
173.01158,173.18155,92,83,0
172.67163,173.18155,59,73,0
172.67163,173.18155,71,87,0
173.01158,173.18155,80,70,0
173.43651,173.52148,103,72,0
173.60648,173.69147,98,65,0
173.77644,173.861,99,69,0
173.9455,174.03001,95,66,0
174.11452,174.19902,96,69,0
174.28331,174.36758,91,65,0
174.45184,174.53612,92,69,0
174.62039,174.70444,86,65,0
174.78824,174.87204,87,72,0
174.95584,175.03964,83,65,0
175.12344,175.20723,84,69,0
175.29103,175.37483,79,65,0
175.45863,175.54243,80,68,0
175.62624,175.71004,74,63,0
175.79382,175.87762,75,69,0
175.96143,176.04523,71,66,0
176.12856,176.2119,72,72,0
176.29523,176.37856,67,63,0
176.4619,176.54507,68,69,0
176.62817,176.71127,62,66,0
176.79437,176.87749,63,69,0
176.96051,177.04338,59,66,0
177.12625,177.20912,60,75,0
177.292,177.37488,55,69,0
177.45752,177.54016,56,77,0
177.6228,177.70546,50,71,0
177.7881,177.87074,51,76,0
177.95338,178.03603,47,68,0
178.11868,178.20132,48,72,0
178.28397,178.36661,43,63,0
178.44925,178.5319,44,72,0
178.61455,178.69742,43,63,0
178.78075,178.86424,44,70,0
178.94788,179.03168,43,63,0
179.11563,179.19975,47,75,0
179.28403,179.36853,43,63,0
179.45303,179.53691,44,69,0
179.62056,179.70436,43,63,0
179.78831,179.87242,47,73,0
179.9567,180.04128,43,61,0
180.12587,180.21037,44,68,0
180.29488,180.37938,43,62,0
180.46373,180.548,44,67,0
180.63228,180.71654,46,63,0
180.80066,180.88469,47,64,0
180.96872,181.05276,50,62,0
181.13663,181.22043,51,64,0
181.30423,181.38803,53,68,0
181.47168,181.55524,55,68,0
181.63881,181.72237,56,64,0
181.80579,181.88911,58,65,0
181.97244,182.05579,59,65,0
182.13896,182.22206,62,76,0
182.30516,182.38828,63,69,0
182.47122,182.5541,65,69,0
182.63696,182.71983,67,69,0
182.80255,182.88521,68,76,0
182.96785,183.05049,70,70,0
183.13298,183.21541,71,70,0
183.29782,183.38023,74,72,0
183.46243,183.54462,75,78,0
183.62682,183.709,77,72,0
183.7912,183.87338,79,72,0
183.95558,184.03777,80,72,0
184.11996,184.20215,83,80,0
184.28435,184.36655,86,71,0
184.28435,184.36655,74,63,0
184.44873,184.53093,75,63,0
184.44873,184.53093,87,71,0
184.61311,184.69531,77,64,0
184.61311,184.69531,89,72,0
184.7775,184.8597,91,72,0
184.7775,184.8597,79,64,0
184.94188,185.02408,80,63,0
184.94188,185.02408,92,70,0
185.10626,185.18846,82,63,0
185.10626,185.18846,94,70,0
185.27065,185.35277,95,71,0
185.27065,185.35277,83,63,0
185.43474,185.51692,86,69,0
185.43474,185.51692,98,77,0
185.59933,185.68192,87,63,0
185.59933,185.68192,99,71,0
185.76471,185.84766,101,72,0
185.76471,185.84766,89,64,0
185.93083,186.01425,103,72,0
185.93083,186.01425,91,64,0
186.09805,186.18184,87,66,0
186.09805,186.18184,99,74,0
186.26564,186.34944,89,60,0
186.26564,186.34944,101,67,0
186.43324,186.51704,83,64,0
186.43324,186.51704,95,72,0
186.60085,186.68465,98,68,0
186.60085,186.68465,86,61,0
186.76843,186.85223,99,75,0
186.76843,186.85223,87,67,0
186.93604,187.01984,89,61,0
186.93604,187.01984,101,68,0
187.10364,187.18744,95,72,0
187.10364,187.18744,83,64,0
187.27122,187.35503,86,61,0
187.27122,187.35503,98,68,0
187.43883,187.52263,87,64,0
187.43883,187.52263,99,72,0
187.60643,187.69023,101,69,0
187.60643,187.69023,89,62,0
187.77333,187.85658,77,56,0
187.77333,187.85658,89,63,0
187.94,188.02356,78,55,0
187.94,188.02356,90,62,0
188.10736,188.19131,91,63,0
188.10736,188.19131,79,56,0
188.27544,188.35977,80,57,0
188.27544,188.35977,92,64,0
188.44429,188.52904,93,65,0
188.44429,188.52904,81,58,0
188.61394,188.699,82,59,0
188.61394,188.699,94,66,0
188.78423,188.8697,83,60,0
188.78423,188.8697,95,67,0
188.95541,189.04129,96,68,0
188.95541,189.04129,84,61,0
189.12733,189.21355,85,61,0
189.12733,189.21355,97,68,0
189.3,189.38661,86,62,0
189.3,189.38661,98,69,0
189.4734,189.56046,99,70,0
189.4734,189.56046,87,63,0
189.64766,189.73512,89,63,0
189.64766,189.73512,101,71,0
189.82275,189.91055,90,64,0
189.82275,189.91055,102,72,0
189.99854,190.16765,103,73,0
189.99854,190.16765,91,65,0
190.37387,191.795,75,90,0
190.37387,191.795,63,75,0
190.37387,191.795,67,75,0
190.37387,191.795,70,90,0
191.97728,193.49529,77,85,0
191.97728,193.49529,65,71,0
191.97728,193.49529,70,71,0
191.97728,193.49529,74,85,0
193.66385,194.36366,79,90,0
193.66385,194.36366,67,75,0
193.66385,194.36366,70,75,0
193.66385,194.36366,75,90,0
194.51431,194.91167,75,86,0
194.51431,194.91167,63,72,0
194.51431,194.91167,67,72,0
194.51431,194.91167,72,86,0
194.91167,195.2116,79,79,0
194.91167,195.2116,67,79,0
195.33069,196.1403,77,82,0
195.33069,196.1403,65,69,0
195.33069,196.1403,70,69,0
195.33069,196.1403,74,82,0
196.1403,196.84871,70,71,0
196.1403,196.84871,58,71,0
196.99799,197.39192,75,86,0
196.99799,197.39192,67,72,0
196.99799,197.39192,70,72,0
196.99799,197.39192,79,86,0
197.39192,197.79062,82,80,0
197.39192,197.79062,70,80,0
197.79062,198.18536,77,85,0
197.79062,198.18536,65,71,0
198.18536,198.58403,75,83,0
198.18536,198.58403,63,69,0
197.79062,198.58403,70,85,0
198.58403,199.38138,74,82,0
198.58403,199.38138,70,82,0
198.58403,199.38138,62,69,0
199.38138,200.07904,70,68,0
199.38138,200.07904,67,68,0
199.38138,200.07904,58,57,0
200.22902,200.62296,75,86,0
200.22902,200.62296,67,72,0
200.22902,200.62296,70,72,0
200.22902,200.62296,79,86,0
200.62296,201.02165,82,80,0
200.62296,201.02165,70,67,0
201.02165,201.41638,77,83,0
201.02165,201.41638,65,83,0
201.41638,201.81505,75,81,0
201.41638,201.81505,63,81,0
201.02165,201.81505,70,69,0
201.81505,202.6124,74,76,0
201.81505,202.6124,70,76,0
201.81505,202.6124,62,64,0
202.6124,203.40974,70,69,0
202.6124,203.40974,67,69,0
202.6124,203.40974,58,57,0
203.57733,204.99846,75,90,0
203.57733,204.99846,63,75,0
203.57733,204.99846,67,75,0
203.57733,204.99846,70,90,0
205.16513,206.68314,77,85,0
205.16513,206.68314,65,71,0
205.16513,206.68314,70,85,0
205.16513,206.68314,74,85,0
206.85172,207.55151,79,90,0
206.85172,207.55151,67,75,0
206.85172,207.55151,70,75,0
206.85172,207.55151,75,90,0
207.70216,208.09952,75,86,0
207.70216,208.09952,63,72,0
207.70216,208.09952,67,72,0
207.70216,208.09952,72,86,0
208.09952,208.39944,79,79,0
208.09952,208.39944,67,66,0
208.51854,209.32816,77,82,0
208.51854,209.32816,65,69,0
208.51854,209.32816,70,69,0
208.51854,209.32816,74,82,0
209.32816,210.14818,70,75,0
209.32816,210.14818,58,63,0
210.14818,210.55634,75,63,0
210.14818,210.55634,87,73,0
210.55634,210.96451,75,59,0
210.55634,210.96451,87,70,0
210.14818,210.96451,80,73,0
210.96451,211.3644,74,54,0
210.96451,211.3644,86,65,0
211.3644,211.76439,70,52,0
211.3644,211.76439,82,63,0
210.96451,211.76439,80,73,0
211.76439,212.1644,84,68,0
211.76439,212.1644,72,56,0
212.1644,212.5698,72,51,0
212.1644,212.5698,84,62,0
212.5698,212.9752,68,53,0
212.5698,212.9752,80,65,0
212.9752,213.38062,84,63,0
212.9752,213.38062,72,52,0
211.76439,213.38062,75,68,0
213.38062,214.19142,82,76,0
213.38062,214.19142,70,64,0
214.19142,214.60098,80,72,0
214.19142,214.60098,68,63,0
213.38062,214.60098,75,66,0
214.60098,215.02055,79,80,0
214.60098,215.02055,67,67,0
215.02055,216.69888,77,83,0
215.02055,216.69888,65,69,0
215.02055,216.69888,68,69,0
215.02055,216.69888,72,83,0
216.69888,217.53804,82,83,0
216.69888,217.53804,70,70,0
216.69888,217.53804,74,70,0
216.69888,217.53804,77,83,0
217.53804,218.4223,72,67,0
217.53804,218.4223,84,81,0
217.53804,218.4223,79,81,0
217.53804,218.4223,75,67,0
218.4223,218.83467,63,69,0
218.4223,218.83467,75,83,0
218.83467,219.24704,63,64,0
218.83467,219.24704,75,76,0
219.24704,219.65382,62,64,0
219.24704,219.65382,74,76,0
219.65382,220.07635,60,63,0
219.65382,220.07635,72,75,0
219.24704,220.07635,68,66,0
220.07635,220.89548,70,82,0
220.07635,220.89548,58,69,0
220.89548,221.3107,68,83,0
220.89548,221.3107,56,69,0
220.07635,221.3107,63,69,0
221.3107,221.73027,67,80,0
221.3107,221.73027,55,67,0
221.73027,223.4086,63,84,0
221.73027,223.4086,53,70,0
221.73027,223.4086,60,70,0
221.73027,223.4086,65,84,0
223.4086,225.08691,70,87,0
223.4086,225.08691,58,72,0
223.4086,225.08691,62,72,0
223.4086,225.08691,67,87,0
225.30121,226.72232,75,94,0
225.30121,226.72232,67,80,0
225.08691,226.72232,51,100,0
225.30121,226.72232,63,80,0
225.30121,226.72232,70,94,0
226.92233,228.44034,77,89,0
226.92233,228.44034,70,73,0
226.72232,228.44034,51,90,0
226.92233,228.44034,65,73,0
226.92233,228.44034,74,89,0
228.6089,229.45937,79,94,0
228.6089,229.45937,70,80,0
228.6089,229.45937,75,94,0
228.6089,229.45937,67,80,0
229.45937,229.86478,75,90,0
229.45937,229.86478,67,75,0
229.45937,229.86478,72,90,0
229.45937,229.86478,63,75,0
229.86478,230.27856,79,82,0
229.86478,230.27856,67,69,0
228.44034,230.27856,51,90,0
230.27856,231.08817,77,85,0
230.27856,231.08817,65,71,0
230.27856,231.08817,70,71,0
230.27856,231.08817,74,85,0
231.08817,231.79659,70,80,0
231.08817,231.79659,58,67,0
231.96324,232.35718,75,90,0
231.96324,232.35718,70,75,0
231.96324,232.35718,79,90,0
231.96324,232.35718,67,75,0
232.35718,232.75587,82,83,0
232.35718,232.75587,70,69,0
232.75587,233.15062,77,89,0
232.75587,233.15062,65,73,0
233.15062,233.54929,75,87,0
233.15062,233.54929,63,72,0
232.75587,233.54929,70,89,0
233.54929,234.34663,74,85,0
233.54929,234.34663,70,85,0
233.54929,234.34663,62,71,0
234.34663,235.0443,70,75,0
231.79659,235.0443,51,90,0
234.34663,235.0443,58,63,0
234.34663,235.0443,67,75,0
235.23064,235.62457,75,90,0
235.23064,235.62457,70,90,0
235.23064,235.62457,79,90,0
235.23064,235.62457,67,75,0
235.62457,236.02327,82,83,0
235.62457,236.02327,70,69,0
236.02327,236.418,77,87,0
236.02327,236.418,65,72,0
236.418,236.81668,75,84,0
236.418,236.81668,63,70,0
236.02327,236.81668,70,87,0
236.81668,237.61401,74,81,0
236.81668,237.61401,70,81,0
236.81668,237.61401,62,81,0
237.61401,238.43034,70,73,0
235.0443,238.43034,51,90,0
237.61401,238.43034,58,63,0
237.61401,238.43034,67,73,0
238.43034,240.00356,68,50,0
238.43034,240.00356,63,50,0
238.43034,240.00356,59,50,0
240.00356,240.75104,63,49,0
240.00356,240.75104,59,49,0
240.75104,241.48372,63,47,0
240.75104,241.48372,59,47,0
241.48372,242.21642,64,50,0
241.48372,242.21642,61,50,0
242.21642,242.94193,66,50,0
242.21642,242.94193,63,50,0
242.94193,244.41704,68,53,0
242.94193,244.41704,64,53,0
244.41704,245.89215,66,50,0
244.41704,245.89215,63,50,0
245.89215,246.6153,68,51,0
245.89215,246.6153,64,51,0
246.6153,247.33846,69,52,0
246.6153,247.33846,66,52,0
247.33846,248.05925,71,53,0
247.33846,248.05925,68,53,0
248.05925,248.78954,71,50,0
248.05925,248.78954,68,50,0
248.78954,249.5057,69,53,0
248.78954,249.5057,66,53,0
249.5057,250.23122,71,54,0
249.5057,250.23122,68,54,0
250.23122,251.6729,73,56,0
250.23122,251.6729,69,56,0
251.6729,252.3822,74,63,0
251.6729,252.3822,66,63,0
252.3822,253.10068,73,56,0
252.3822,253.10068,69,56,0
253.10068,254.53763,71,53,0
253.10068,254.53763,68,53,0
254.53763,255.2561,73,54,0
254.53763,255.2561,64,54,0
255.2561,255.97925,68,52,0
255.2561,255.97925,71,52,0
255.97925,256.7024,69,51,0
255.97925,256.7024,61,51,0
256.7024,257.42557,68,49,0
256.7024,257.42557,64,49,0
257.42557,258.88135,66,52,0
257.42557,258.88135,63,52,0
258.88135,260.39047,64,50,0
258.88135,260.39047,61,50,0
260.39047,261.92688,63,46,0
260.39047,261.92688,56,46,0
261.92688,262.71378,63,37,0
261.92688,262.71378,56,37,0
262.71378,263.40228,63,35,0
262.71378,263.40228,56,35,0
263.53244,263.71167,91,71,0
263.53394,263.7132,103,90,0
263.7132,263.8933,101,83,0
263.71393,263.89407,89,65,0
263.89258,264.07294,87,71,0
263.8933,264.0737,99,90,0
264.0737,264.25464,98,82,0
264.07523,264.25616,86,64,0
264.25464,264.43552,96,88,0
264.2554,264.43628,84,70,0
264.43552,264.61685,94,82,0
264.43552,264.61685,82,64,0
264.61685,264.79926,80,70,0
264.61685,264.79926,92,88,0
264.79926,264.99686,91,82,0
264.80154,264.99915,79,64,0
264.99686,265.1779,89,87,0
264.99838,265.1794,77,70,0
265.1779,265.36,87,81,0
265.1794,265.36148,75,63,0
265.35922,265.54114,74,68,0
265.36,265.5419,86,86,0
265.5419,265.72336,84,80,0
265.5442,265.72562,72,63,0
265.72336,265.90485,82,86,0
265.72485,265.90637,70,68,0
265.90485,266.0868,80,80,0
265.9056,266.08755,68,63,0
266.08603,266.26886,67,68,0
266.0868,266.26962,79,86,0
266.2681,266.46387,65,63,0
266.26962,266.46542,77,80,0
266.46387,266.6485,63,66,0
266.46542,266.65002,75,84,0
266.65002,266.83466,74,79,0
266.65002,266.83466,62,63,0
266.83313,267.01773,60,66,0
266.83466,267.01926,72,84,0
267.01773,267.21066,58,62,0
267.01926,267.21234,70,76,0
267.21234,267.3965,68,83,0
267.21463,267.3988,56,65,0
267.3965,267.5807,67,73,0
267.3965,267.5807,55,61,0
267.57916,267.7645,53,64,0
267.5807,267.76602,65,82,0
267.7645,267.955,51,61,0
267.76602,267.95663,63,73,0
267.955,268.1427,50,63,0
267.95663,268.14426,62,80,0
268.14426,268.33188,60,72,0
268.14426,268.33188,48,59,0
268.33188,268.51953,58,80,0
268.33267,268.5203,46,63,0
268.51953,268.71265,56,71,0
268.5203,268.71347,44,57,0
268.71265,268.90213,55,79,0
268.71347,268.9029,43,62,0
268.90213,269.08975,53,69,0
268.9029,269.0905,41,54,0
269.0882,269.27582,39,62,0
269.08975,269.27737,51,79,0
269.27737,269.465,50,68,0
269.27817,269.46576,38,54,0
269.465,269.64758,51,76,0
269.64758,269.8302,53,67,0
269.8302,270.01498,55,76,0
270.01498,270.1998,56,68,0
270.1998,270.38275,58,79,0
270.38275,270.56573,60,68,0
270.56573,270.75052,62,80,0
270.75052,270.9499,63,69,0
270.9499,271.1328,65,72,0
270.9499,271.1328,53,65,0
271.1328,271.31573,67,67,0
271.1328,271.31573,55,60,0
271.3142,271.49713,56,70,0
271.31573,271.49866,68,79,0
271.49866,271.69708,70,70,0
271.49942,271.69785,58,63,0
271.69708,271.88113,72,83,0
271.6986,271.88266,60,72,0
271.88113,272.0652,74,73,0
271.88266,272.0667,62,67,0
272.0652,272.24924,75,85,0
272.06595,272.25,63,75,0
272.24847,272.43253,65,68,0
272.24924,272.4333,77,75,0
272.4333,272.614,79,88,0
272.43555,272.61627,67,80,0
272.614,272.79474,80,80,0
272.6155,272.79626,68,70,0
272.79474,272.9788,82,90,0
272.79703,272.98108,70,81,0
272.9788,273.1628,84,81,0
272.98108,273.1651,72,71,0
273.1628,273.3441,86,91,0
273.16357,273.34485,74,82,0
273.3426,273.52386,75,70,0
273.3441,273.52536,87,80,0
273.52536,273.71017,77,83,0
273.52536,273.71017,89,92,0
273.70938,273.907,79,73,0
273.71017,273.9079,91,84,0
273.9079,274.0927,89,92,0
273.91022,274.095,77,83,0
274.09192,274.27673,75,80,0
274.0927,274.2775,87,88,0
274.2775,274.4623,86,92,0
274.27905,274.46384,74,83,0
274.4623,274.66125,84,87,0
274.4646,274.66357,72,79,0
274.66125,274.84665,82,91,0
274.66357,274.84897,70,82,0
274.84665,275.03204,80,84,0
274.84897,275.03436,68,73,0
275.03204,275.21747,79,90,0
275.03284,275.21823,67,81,0
275.21747,275.4078,65,73,0
275.21747,275.4078,77,84,0
275.4078,276.89117,75,96,0
275.4078,276.89117,63,85,0
275.4078,276.89117,67,85,0
275.4078,276.89117,70,85,0
276.89117,278.38052,77,90,0
276.89117,278.38052,65,81,0
276.89117,278.38052,70,90,0
276.89117,278.38052,74,90,0
278.38052,279.11588,79,96,0
278.38052,279.11588,67,85,0
278.38052,279.11588,70,85,0
278.38052,279.11588,75,85,0
279.11588,279.48315,75,91,0
279.11588,279.48315,63,82,0
279.11588,279.48315,67,82,0
279.11588,279.48315,72,82,0
279.48315,279.85532,79,84,0
279.48315,279.85532,70,73,0
279.48315,279.85532,75,73,0
279.48315,279.85532,67,73,0
279.85532,280.60358,77,88,0
279.85532,280.60358,65,79,0
279.85532,280.60358,70,79,0
279.85532,280.60358,74,79,0
280.60358,281.36148,70,81,0
280.60358,281.36148,58,72,0
281.36148,281.73874,75,72,0
281.36148,281.73874,87,81,0
281.73874,282.11603,75,72,0
281.36148,282.11603,84,72,0
281.36148,282.11603,80,72,0
281.73874,282.11603,87,81,0
282.11603,282.48563,74,72,0
282.11603,282.48563,86,81,0
282.48563,282.85532,70,68,0
282.11603,282.85532,79,72,0
282.11603,282.85532,82,72,0
282.48563,282.85532,82,76,0
282.85532,283.22504,84,79,0
282.85532,283.22504,72,70,0
283.22504,283.59973,72,68,0
283.22504,283.59973,84,75,0
283.59973,283.97443,68,67,0
282.85532,283.97443,80,79,0
283.59973,283.97443,80,73,0
283.97443,284.34912,84,71,0
282.85532,284.34912,77,70,0
283.97443,284.34912,72,63,0
284.34912,285.0985,82,82,0
284.34912,285.0985,74,82,0
284.34912,285.0985,79,82,0
284.34912,285.0985,70,72,0
285.0985,285.47708,80,79,0
285.0985,285.47708,68,70,0
285.47708,285.8625,79,84,0
285.47708,285.8625,67,75,0
285.0985,285.8625,72,70,0
285.8625,287.3249,77,89,0
285.8625,287.3249,65,79,0
285.8625,287.3249,75,79,0
285.8625,287.3249,72,79,0
287.3249,287.87704,82,95,0
287.3249,287.87704,70,84,0
287.3249,287.87704,74,84,0
287.3249,287.87704,77,84,0
288.85602,290.3492,70,67,0
288.85602,290.3492,66,67,0
290.3492,291.08865,70,65,0
290.3492,291.08865,66,65,0
291.08865,291.81348,70,63,0
291.08865,291.81348,66,63,0
291.81348,292.5383,71,66,0
291.81348,292.5383,68,66,0
292.5383,293.25598,73,66,0
292.5383,293.25598,70,66,0
293.25598,294.7152,75,66,0
293.25598,294.7152,71,66,0
294.7152,296.17447,73,66,0
294.7152,296.17447,70,66,0
296.17447,296.8898,75,65,0
296.17447,296.8898,71,65,0
296.8898,297.60516,76,66,0
296.8898,297.60516,73,66,0
297.60516,298.31818,78,67,0
297.60516,298.31818,75,67,0
298.31818,299.04062,78,64,0
298.31818,299.04062,75,64,0
299.04062,299.74905,76,67,0
299.04062,299.74905,73,67,0
299.74905,300.46677,78,68,0
299.74905,300.46677,75,68,0
300.46677,301.89288,80,71,0
300.46677,301.89288,76,71,0
301.89288,302.59454,81,75,0
301.89288,302.59454,73,75,0
302.59454,303.3053,80,67,0
302.59454,303.3053,76,67,0
303.3053,304.72675,78,64,0
303.3053,304.72675,75,64,0
304.72675,305.43747,80,64,0
304.72675,305.43747,71,64,0
305.43747,306.15283,75,60,0
305.43747,306.15283,78,60,0
306.15283,306.8682,76,57,0
306.15283,306.8682,68,57,0
306.8682,307.58353,75,54,0
306.8682,307.58353,71,54,0
307.58353,309.0236,73,57,0
307.58353,309.0236,70,57,0
309.0236,310.51648,71,54,0
309.0236,310.51648,68,54,0
310.51648,312.03635,70,48,0
310.51648,312.03635,63,48,0
312.03635,312.81476,70,39,0
312.03635,312.81476,63,39,0
312.81476,313.59317,70,35,0
312.81476,313.59317,63,35,0
313.59317,315.1467,63,85,0
313.59317,315.1467,53,85,0
315.1467,316.69516,63,84,0
315.1467,316.69516,52,84,0
316.69516,318.2436,63,85,0
316.69516,318.2436,53,85,0
318.2436,319.78702,63,84,0
318.2436,319.78702,52,84,0
319.78702,320.02945,77,84,0
319.78702,320.02945,75,84,0
319.78702,320.02945,68,84,0
320.02945,320.27188,65,60,0
320.27188,320.5143,77,50,0
320.27188,320.5143,75,50,0
320.27188,320.5143,68,50,0
320.5143,320.7567,65,62,0
320.7567,320.99915,77,48,0
320.7567,320.99915,75,48,0
320.7567,320.99915,68,48,0
320.99915,321.24158,65,54,0
321.24158,321.484,71,77,0
321.24158,321.484,75,77,0
321.24158,321.484,68,77,0
321.484,321.7264,64,60,0
321.7264,321.96884,71,48,0
321.7264,321.96884,75,48,0
321.7264,321.96884,68,48,0
321.96884,322.21127,64,62,0
322.21127,322.4537,71,45,0
322.21127,322.4537,75,45,0
322.21127,322.4537,68,45,0
322.4537,322.6961,64,50,0
322.6961,322.93854,77,79,0
322.6961,322.93854,75,79,0
322.6961,322.93854,68,79,0
322.93854,323.18097,65,60,0
323.18097,323.4234,77,48,0
323.18097,323.4234,75,48,0
323.18097,323.4234,68,48,0
323.4234,323.6658,65,63,0
323.6658,323.90823,77,47,0
323.6658,323.90823,75,47,0
323.6658,323.90823,68,47,0
323.90823,324.15067,65,54,0
324.15067,324.3931,71,77,0
324.15067,324.3931,75,77,0
324.15067,324.3931,68,77,0
324.3931,324.6355,64,60,0
324.6355,324.87793,71,47,0
324.6355,324.87793,75,47,0
324.6355,324.87793,68,47,0
324.87793,325.12036,64,62,0
325.12036,325.3628,71,45,0
325.12036,325.3628,75,45,0
325.12036,325.3628,68,45,0
325.3628,325.6052,64,51,0
325.6052,325.78702,99,77,0
325.6052,325.78702,101,77,0
325.78702,325.96884,89,59,0
325.96884,326.14902,89,63,0
325.96884,326.14902,87,63,0
326.14902,326.3292,77,57,0
326.3292,326.50778,87,64,0
326.3292,326.50778,89,64,0
326.50778,326.68634,89,54,0
326.68634,326.86493,101,69,0
326.68634,326.86493,99,69,0
326.86493,327.0435,89,64,0
327.0435,327.2253,99,77,0
327.0435,327.2253,95,77,0
327.2253,327.40714,88,57,0
327.40714,327.5873,83,63,0
327.40714,327.5873,87,63,0
327.5873,327.7675,76,57,0
327.7675,327.94604,87,65,0
327.7675,327.94604,83,65,0
327.94604,328.12463,88,59,0
328.12463,328.3032,95,71,0
328.12463,328.3032,99,71,0
328.3032,328.48178,88,63,0
328.48178,328.66357,99,80,0
328.48178,328.66357,101,80,0
328.66357,328.8454,89,59,0
328.8454,329.02505,89,66,0
328.8454,329.02505,87,66,0
329.02505,329.20468,77,59,0
329.20468,329.38327,87,65,0
329.20468,329.38327,89,65,0
329.38327,329.56183,89,57,0
329.56183,329.7404,101,70,0
329.56183,329.7404,99,70,0
329.7404,329.91898,89,63,0
329.91898,330.1008,99,81,0
329.91898,330.1008,95,81,0
330.1008,330.28262,88,60,0
330.28262,330.46225,83,65,0
330.28262,330.46225,87,65,0
330.46225,330.64188,76,59,0
330.64188,330.81995,87,65,0
330.64188,330.81995,83,65,0
330.81995,330.998,88,59,0
330.998,331.17603,95,72,0
330.998,331.17603,99,72,0
331.17603,331.35406,88,64,0
331.35406,331.5359,99,83,0
331.35406,331.5359,96,83,0
331.35406,331.5359,92,83,0
331.5359,331.71768,89,63,0
331.71768,331.89734,84,60,0
331.71768,331.89734,87,60,0
331.71768,331.89734,80,60,0
331.89734,332.07697,77,62,0
332.07697,332.25555,87,57,0
332.07697,332.25555,84,57,0
332.07697,332.25555,80,57,0
332.25555,332.4341,89,60,0
332.4341,332.6127,96,67,0
332.4341,332.6127,99,67,0
332.4341,332.6127,92,67,0
332.6127,332.79126,89,64,0
332.79126,332.97308,98,84,0
332.79126,332.97308,94,84,0
332.79126,332.97308,91,84,0
332.97308,333.1549,87,63,0
333.1549,333.33453,82,54,0
333.1549,333.33453,86,54,0
333.1549,333.33453,79,54,0
333.33453,333.5142,75,62,0
333.5142,333.69275,86,56,0
333.5142,333.69275,82,56,0
333.5142,333.69275,79,56,0
333.69275,333.8713,87,62,0
333.8713,334.0499,94,71,0
333.8713,334.0499,98,71,0
333.8713,334.0499,91,71,0
334.0499,334.22845,87,65,0
334.22845,334.41028,92,81,0
334.22845,334.41028,94,81,0
334.22845,334.41028,87,81,0
334.41028,334.5921,83,64,0
334.5921,334.77173,82,68,0
334.5921,334.77173,80,68,0
334.5921,334.77173,75,68,0
334.77173,334.9514,71,63,0
334.9514,335.12943,80,68,0
334.9514,335.12943,82,68,0
334.9514,335.12943,75,68,0
335.12943,335.30746,83,61,0
335.30746,335.4855,94,73,0
335.30746,335.4855,92,73,0
335.30746,335.4855,87,73,0
335.4855,335.66354,83,64,0
335.66354,335.84537,91,84,0
335.66354,335.84537,86,84,0
335.84537,336.0272,82,65,0
336.0272,336.20682,79,69,0
336.0272,336.20682,74,69,0
336.20682,336.38647,70,63,0
336.38647,336.56555,79,72,0
336.38647,336.56555,74,72,0
336.56555,336.74466,82,65,0
336.74466,336.92377,91,80,0
336.74466,336.92377,86,80,0
336.92377,337.10287,82,69,0
337.10287,337.2847,84,92,0
337.10287,337.2847,79,85,0
337.2847,337.46652,75,66,0
337.46652,337.64615,72,71,0
337.46652,337.64615,67,64,0
337.64615,337.8258,63,64,0
337.8258,338.00543,82,73,0
337.8258,338.00543,77,73,0
338.00543,338.1851,74,66,0
338.1851,338.36472,70,71,0
338.1851,338.36472,65,63,0
338.36472,338.54437,62,70,0
338.54437,338.72617,84,91,0
338.54437,338.72617,79,84,0
338.72617,338.908,75,66,0
338.908,339.0898,72,71,0
338.908,339.0898,67,71,0
339.0898,339.27164,63,64,0
339.27164,339.45074,86,62,0
339.27164,339.45074,82,62,0
339.27164,339.45074,89,84,0
339.45074,339.62985,77,66,0
339.62985,339.81165,94,87,0
339.62985,339.81165,89,63,0
339.62985,339.81165,86,63,0
339.81165,339.99347,82,70,0
339.99347,340.1753,84,66,0
339.99347,340.1753,87,66,0
339.99347,340.1753,91,96,0
340.1753,340.35712,82,66,0
340.35712,340.53894,79,71,0
340.35712,340.53894,75,63,0
340.35712,340.53894,72,61,0
340.53894,340.72073,70,64,0
340.72073,340.9004,86,59,0
340.72073,340.9004,82,59,0
340.72073,340.9004,89,82,0
340.9004,341.08002,77,66,0
341.08002,341.25967,94,88,0
341.08002,341.25967,89,64,0
341.08002,341.25967,86,64,0
341.25967,341.4393,82,70,0
341.4393,341.62112,86,45,0
341.4393,341.62112,87,45,0
341.4393,341.62112,91,95,0
341.62112,341.80295,84,66,0
341.80295,341.98477,79,71,0
341.80295,341.98477,75,61,0
341.80295,341.98477,74,61,0
341.98477,342.1666,72,64,0
342.1666,342.3484,82,44,0
342.1666,342.3484,84,44,0
342.1666,342.3484,87,92,0
342.3484,342.5302,79,62,0
342.5302,342.71426,75,67,0
342.5302,342.71426,72,56,0
342.5302,342.71426,70,56,0
342.71426,342.89832,67,64,0
342.89832,343.08124,84,65,0
342.89832,343.08124,87,65,0
342.89832,343.08124,89,90,0
343.08124,343.26416,80,66,0
343.26416,343.44708,77,71,0
343.26416,343.44708,75,61,0
343.26416,343.44708,72,61,0
343.44708,343.63004,68,64,0
343.63004,343.81296,77,64,0
343.63004,343.81296,80,64,0
343.63004,343.81296,84,90,0
343.81296,343.99588,75,66,0
343.99588,344.1788,72,71,0
343.99588,344.1788,68,61,0
343.99588,344.1788,65,61,0
344.1788,344.36172,63,64,0
344.36172,344.54355,65,49,0
344.36172,344.54355,68,49,0
344.36172,344.54355,70,87,0
344.54355,344.72537,62,66,0
344.72537,344.90665,74,79,0
344.72537,344.90665,70,45,0
344.72537,344.90665,68,45,0
344.90665,345.0879,65,64,0
345.0879,345.26862,70,48,0
345.0879,345.26862,74,48,0
345.0879,345.26862,77,86,0
345.26862,345.44934,68,66,0
345.44934,345.62952,82,90,0
345.44934,345.62952,77,51,0
345.44934,345.62952,74,51,0
345.62952,345.80963,70,72,0
345.80963,345.98926,84,95,0
345.80963,345.98926,79,54,0
345.98926,346.1689,75,66,0
346.1689,346.34854,72,71,0
346.1689,346.34854,67,62,0
346.34854,346.5282,63,64,0
346.5282,346.70782,86,46,0
346.5282,346.70782,82,46,0
346.5282,346.70782,89,82,0
346.70782,346.88745,77,66,0
346.88745,347.06982,94,88,0
346.88745,347.06982,89,50,0
346.88745,347.06982,86,50,0
347.06982,347.2522,82,70,0
347.2522,347.43402,84,54,0
347.2522,347.43402,87,54,0
347.2522,347.43402,91,97,0
347.43402,347.61584,82,66,0
347.61584,347.79767,79,71,0
347.61584,347.79767,75,64,0
347.61584,347.79767,72,60,0
347.79767,347.9795,70,64,0
347.9795,348.15967,86,46,0
347.9795,348.15967,82,46,0
347.9795,348.15967,89,82,0
348.15967,348.33984,77,66,0
348.33984,348.52185,94,88,0
348.33984,348.52185,89,50,0
348.33984,348.52185,86,50,0
348.52185,348.70422,82,70,0
348.70422,348.88495,67,60,0
348.70422,348.88495,72,83,0
348.70422,348.88495,68,60,0
348.88495,349.06567,65,65,0
349.06567,349.24612,75,81,0
349.06567,349.24612,74,57,0
349.06567,349.24612,70,57,0
349.24612,349.4263,67,64,0
349.4263,349.60648,72,60,0
349.4263,349.60648,75,60,0
349.4263,349.60648,77,83,0
349.60648,349.7861,68,66,0
349.7861,349.96576,80,87,0
349.7861,349.96576,77,63,0
349.7861,349.96576,74,63,0
349.96576,350.14505,72,71,0
350.14505,350.3236,74,64,0
350.14505,350.3236,79,88,0
350.14505,350.3236,75,81,0
350.3236,350.50165,71,66,0
350.50165,350.67926,80,83,0
350.50165,350.67926,79,60,0
350.50165,350.67926,75,60,0
350.67926,350.8564,72,64,0
350.8564,351.03314,79,63,0
350.8564,351.03314,80,63,0
350.8564,351.03314,84,87,0
351.03314,351.20944,77,66,0
351.20944,351.3853,89,87,0
351.20944,351.3853,86,63,0
351.20944,351.3853,84,63,0
351.3853,351.5611,80,72,0
351.5611,351.74142,87,59,0
351.5611,351.74142,92,90,0
351.74142,351.92194,94,66,0
351.74142,351.92194,80,35,0
351.92194,352.10263,92,89,0
351.92194,352.10263,87,57,0
352.10263,352.2836,94,66,0
352.10263,352.2836,80,35,0
352.2836,352.46417,87,59,0
352.2836,352.46417,92,90,0
352.46417,352.64447,94,66,0
352.46417,352.64447,80,35,0
352.64447,352.82455,92,87,0
352.64447,352.82455,87,56,0
352.82455,353.0049,94,66,0
352.82455,353.0049,80,35,0
353.0049,353.1846,87,60,0
353.0049,353.1846,92,92,0
353.1846,353.365,94,70,0
353.1846,353.365,80,37,0
353.365,353.5468,92,91,0
353.365,353.5468,87,60,0
353.5468,353.7271,94,69,0
353.5468,353.7271,80,36,0
353.7271,353.9075,87,63,0
353.7271,353.9075,92,95,0
353.9075,354.08792,94,70,0
353.9075,354.08792,80,37,0
354.08792,354.2687,92,90,0
354.08792,354.2687,87,59,0
354.2687,354.4492,94,69,0
354.2687,354.4492,80,36,0
354.4492,354.6299,87,64,0
354.4492,354.6299,89,96,0
354.6299,354.8111,94,72,0
354.6299,354.8111,80,37,0
354.8111,354.99274,89,95,0
354.8111,354.99274,87,63,0
354.99274,355.17484,94,71,0
354.99274,355.17484,80,37,0
355.17484,355.3574,87,65,0
355.17484,355.3574,89,99,0
355.3574,355.5405,94,72,0
355.3574,355.5405,80,37,0
355.5405,355.7241,89,94,0
355.5405,355.7241,87,84,0
355.7241,355.90814,94,71,0
355.7241,355.90814,80,37,0
355.90814,356.09274,87,66,0
355.90814,356.09274,89,100,0
356.09274,356.27783,94,75,0
356.09274,356.27783,80,40,0
356.27783,356.4634,89,99,0
356.27783,356.4634,87,66,0
356.4634,356.64954,94,73,0
356.4634,356.64954,80,39,0
356.64954,356.83618,87,67,0
356.64954,356.83618,89,103,0
356.83618,357.0233,94,75,0
356.83618,357.0233,80,40,0
357.0233,357.21088,89,97,0
357.0233,357.21088,87,65,0
357.21088,357.41858,94,73,0
357.21088,357.41858,80,39,0
357.41858,357.50922,104,85,0
357.50922,357.59998,103,80,0
357.59998,357.691,101,85,0
357.691,357.7813,99,78,0
357.7813,357.8715,98,83,0
357.8715,357.96194,96,77,0
357.96194,358.05225,94,83,0
358.05225,358.1419,92,76,0
358.1419,358.2312,91,82,0
358.2312,358.31992,89,79,0
358.31992,358.40964,87,81,0
358.40964,358.498,86,76,0
358.498,358.58694,84,81,0
358.58694,358.6752,82,76,0
358.6752,358.76352,80,80,0
358.76352,358.85114,79,75,0
358.85114,358.93912,77,79,0
358.93912,359.02682,75,73,0
359.02682,359.11407,74,79,0
359.11407,359.20084,72,75,0
359.20084,359.28726,70,79,0
359.28726,359.3739,68,73,0
359.3739,359.4604,67,79,0
359.4604,359.54605,65,72,0
359.54605,359.63266,63,79,0
359.63266,359.71838,62,73,0
359.71838,359.8044,60,78,0
359.8044,359.8897,58,73,0
359.8897,359.9749,56,77,0
359.9749,360.06015,55,72,0
360.06015,360.14523,53,79,0
360.14523,360.22983,51,73,0
360.22983,360.31433,50,78,0
360.31433,360.39832,48,73,0
360.39832,360.48257,46,79,0
360.48257,360.56543,44,75,0
360.56543,360.64844,43,80,0
360.64844,360.7318,41,76,0
360.7318,360.8166,39,82,0
360.8166,360.90054,38,76,0
360.90054,360.986,36,83,0
360.986,361.0708,34,78,0
361.0708,361.1567,32,85,0
361.1567,361.243,31,78,0
361.243,361.32962,29,86,0
361.32962,361.4173,27,81,0
361.4173,361.50528,26,87,0
361.50528,362.93384,24,83,0
363.3624,363.7186,75,85,0
363.3624,363.7186,87,102,0
363.3624,363.7186,82,100,0
363.3624,363.7186,79,85,0
363.72195,364.0448,58,66,0
363.72195,364.0448,63,79,0
364.04785,364.36237,75,73,0
364.04785,364.36237,87,89,0
364.04785,364.36237,82,89,0
364.04785,364.36237,79,73,0
364.36533,364.6869,58,59,0
364.36533,364.6869,63,71,0
364.68997,365.00763,75,73,0
364.68997,365.00763,87,90,0
364.68997,365.00763,82,90,0
364.68997,365.00763,79,73,0
365.01065,365.3641,58,57,0
365.01065,365.3641,63,70,0
365.36743,365.68408,77,84,0
365.36743,365.68408,89,98,0
365.36743,365.68408,86,98,0
365.36743,365.68408,82,84,0
365.68716,366.00546,62,62,0
365.68716,366.00546,65,72,0
366.00845,366.3133,77,72,0
366.00845,366.3133,89,89,0
366.00845,366.3133,86,89,0
366.00845,366.3133,82,72,0
366.31616,366.63193,62,59,0
366.31616,366.63193,65,71,0
366.63492,366.9457,77,72,0
366.63492,366.9457,89,88,0
366.63492,366.9457,86,88,0
366.63492,366.9457,82,72,0
366.94864,367.29474,62,58,0
366.94864,367.29474,65,70,0
367.29803,367.63547,79,84,0
367.29803,367.63547,91,99,0
367.29803,367.63547,87,99,0
367.29803,367.63547,82,84,0
367.63864,367.96295,70,80,0
367.63864,367.96295,75,80,0
367.63864,367.96295,67,68,0
367.966,368.28293,79,77,0
367.966,368.28293,91,92,0
367.966,368.28293,87,92,0
367.966,368.28293,82,77,0
368.28592,368.61148,75,76,0
368.28592,368.61148,87,91,0
368.28592,368.61148,84,91,0
368.28592,368.61148,79,76,0
368.61456,368.94012,63,68,0
368.61456,368.94012,67,68,0
368.61456,368.94012,72,80,0
368.9432,369.26877,79,72,0
368.9432,369.26877,87,87,0
368.9432,369.26877,84,72,0
368.9432,369.26877,91,87,0
369.27185,369.59744,77,72,0
369.27185,369.59744,89,87,0
369.27185,369.59744,86,87,0
369.27185,369.59744,82,72,0
369.60052,369.91562,62,79,0
369.60052,369.91562,58,79,0
369.92163,370.23553,62,81,0
369.92163,370.23553,65,81,0
370.24155,370.55426,70,83,0
370.24155,370.55426,65,83,0
370.56024,370.87177,70,87,0
370.56024,370.87177,74,87,0
370.87772,371.188,77,90,0
370.87772,371.188,74,90,0
371.19388,371.68945,79,95,0
371.19388,371.68945,75,95,0
371.19388,371.68945,67,80,0
371.69467,372.19025,82,90,0
371.69467,372.19025,75,90,0
371.69467,372.19025,70,75,0
372.19547,372.68332,77,89,0
372.19547,372.68332,70,89,0
372.19547,372.68332,65,73,0
372.68845,373.18402,75,85,0
372.68845,373.18402,70,85,0
372.68845,373.18402,63,72,0
373.18924,373.51996,62,72,0
373.18924,373.51996,70,87,0
373.18924,373.51996,74,87,0
373.5231,373.84122,62,79,0
373.5231,373.84122,58,79,0
373.84424,374.15814,62,81,0
373.84424,374.15814,65,81,0
374.16412,374.47684,70,83,0
374.16412,374.47684,65,83,0
374.48282,374.79437,70,87,0
374.48282,374.79437,74,87,0
374.80032,375.11057,77,90,0
374.80032,375.11057,74,90,0
375.11646,375.61203,79,95,0
375.11646,375.61203,75,95,0
375.11646,375.61203,67,80,0
375.61725,376.11282,82,90,0
375.61725,376.11282,75,90,0
375.61725,376.11282,70,75,0
376.11804,376.6059,77,89,0
376.11804,376.6059,70,89,0
376.11804,376.6059,65,73,0
376.61102,377.1066,75,85,0
376.61102,377.1066,70,85,0
376.61102,377.1066,63,61,0
377.11182,377.44257,62,72,0
377.11182,377.44257,70,87,0
377.11182,377.44257,74,87,0
377.44568,377.7608,62,79,0
377.44568,377.7608,58,79,0
377.7668,378.08072,62,81,0
377.7668,378.08072,67,81,0
378.0867,378.39944,70,83,0
378.0867,378.39944,65,70,0
378.0867,378.39944,68,83,0
378.40543,378.71695,70,87,0
378.40543,378.71695,74,87,0
378.40543,378.71695,68,83,0
378.7229,379.03314,77,90,0
378.7229,379.03314,74,90,0
378.7229,379.03314,70,83,0
379.03906,379.35837,75,76,0
379.03906,379.35837,80,91,0
379.03906,379.35837,87,91,0
379.3614,379.68073,51,62,0
379.3614,379.68073,56,72,0
379.3614,379.68073,63,72,0
379.68375,380.01447,75,72,0
379.68375,380.01447,80,86,0
379.68375,380.01447,87,86,0
380.0176,380.50546,74,76,0
380.0176,380.50546,80,91,0
380.0176,380.50546,86,91,0
380.5106,380.9984,82,86,0
380.5106,380.9984,75,86,0
380.5106,380.9984,70,72,0
381.00357,381.32288,72,75,0
381.00357,381.32288,75,90,0
381.00357,381.32288,84,90,0
381.3259,381.64523,51,62,0
381.3259,381.64523,56,72,0
381.3259,381.64523,63,72,0
381.64825,381.9676,72,72,0
381.64825,381.9676,75,86,0
381.64825,381.9676,84,86,0
381.9706,382.45844,68,75,0
381.9706,382.45844,75,90,0
381.9706,382.45844,80,90,0
382.46356,382.95142,84,82,0
382.46356,382.95142,75,82,0
382.46356,382.95142,72,69,0
382.95654,383.4444,82,90,0
382.95654,383.4444,75,90,0
382.95654,383.4444,70,75,0
383.44952,383.93738,70,76,0
383.44952,383.93738,63,76,0
383.44952,383.93738,58,64,0
383.9425,384.43033,80,88,0
383.9425,384.43033,70,88,0
383.9425,384.43033,68,73,0
384.4355,384.89935,79,83,0
384.4355,384.89935,70,70,0
384.4355,384.89935,67,70,0
384.90424,385.21622,77,53,0
384.90424,385.21622,65,47,0
384.90424,385.21622,72,47,0
384.90424,385.21622,75,53,0
385.21918,385.51727,77,49,0
385.21918,385.51727,65,44,0
385.21918,385.51727,72,44,0
385.21918,385.51727,75,49,0
385.52005,385.8125,77,49,0
385.52005,385.8125,65,44,0
385.52005,385.8125,72,44,0
385.52005,385.8125,75,49,0
385.81528,386.1035,77,48,0
385.81528,386.1035,65,43,0
385.81528,386.1035,72,43,0
385.81528,386.1035,75,48,0
386.1062,386.3944,77,48,0
386.1062,386.3944,65,43,0
386.1062,386.3944,72,43,0
386.1062,386.3944,75,48,0
386.39713,386.7021,77,48,0
386.39713,386.7021,65,43,0
386.39713,386.7021,72,43,0
386.39713,386.7021,75,48,0
386.705,386.99005,79,60,0
386.705,386.99005,67,53,0
386.705,386.99005,70,53,0
386.705,386.99005,74,53,0
386.99277,387.27786,79,54,0
386.99277,387.27786,67,48,0
386.99277,387.27786,70,48,0
386.99277,387.27786,74,48,0
387.28055,387.56717,79,54,0
387.28055,387.56717,67,49,0
387.28055,387.56717,70,49,0
387.28055,387.56717,74,49,0
387.56992,387.85095,79,54,0
387.56992,387.85095,67,49,0
387.56992,387.85095,70,49,0
387.56992,387.85095,75,54,0
387.8536,388.13467,79,55,0
387.8536,388.13467,67,49,0
387.8536,388.13467,70,49,0
387.8536,388.13467,75,55,0
388.13733,388.43637,79,55,0
388.13733,388.43637,67,49,0
388.13733,388.43637,70,49,0
388.13733,388.43637,75,55,0
388.4392,388.71826,79,61,0
388.4392,388.71826,82,61,0
388.4392,388.71826,70,55,0
388.4392,388.71826,73,55,0
388.72092,389.0,79,56,0
388.72092,389.0,82,56,0
388.72092,389.0,70,51,0
388.72092,389.0,73,51,0
389.00262,389.28885,79,57,0
389.00262,389.28885,82,57,0
389.00262,389.28885,70,51,0
389.00262,389.28885,73,51,0
389.29163,389.58514,80,63,0
389.29163,389.58514,68,56,0
389.29163,389.58514,71,56,0
389.29163,389.58514,75,56,0
389.58792,389.86798,80,58,0
389.58792,389.86798,68,52,0
389.58792,389.86798,71,52,0
389.58792,389.86798,75,52,0
389.87064,390.1497,80,59,0
389.87064,390.1497,68,52,0
389.87064,390.1497,71,52,0
389.87064,390.1497,75,52,0
390.15234,390.42563,80,67,0
390.15234,390.42563,75,58,0
390.15234,390.42563,68,58,0
390.42822,390.7015,80,67,0
390.42822,390.7015,75,58,0
390.42822,390.7015,68,58,0
390.7041,390.98486,80,67,0
390.7041,390.98486,75,59,0
390.7041,390.98486,68,59,0
390.98764,391.26282,80,63,0
390.98764,391.26282,74,58,0
390.98764,391.26282,68,58,0
391.26544,391.54062,80,64,0
391.26544,391.54062,74,58,0
391.26544,391.54062,68,58,0
391.54324,391.8247,80,64,0
391.54324,391.8247,74,59,0
391.54324,391.8247,68,59,0
391.82748,392.1075,80,64,0
391.82748,392.1075,73,64,0
391.82748,392.1075,68,64,0
392.11017,392.3902,80,64,0
392.11017,392.3902,73,64,0
392.11017,392.3902,68,64,0
392.39285,392.6785,80,61,0
392.39285,392.6785,73,61,0
392.39285,392.6785,68,61,0
392.6812,392.96378,79,69,0
392.6812,392.96378,73,69,0
392.6812,392.96378,67,69,0
392.96643,393.24747,79,65,0
392.96643,393.24747,73,65,0
392.96643,393.24747,67,65,0
393.25012,393.53116,79,64,0
393.25012,393.53116,73,64,0
393.25012,393.53116,67,64,0
393.5338,393.8184,78,76,0
393.5338,393.8184,73,68,0
393.5338,393.8184,66,68,0
393.8211,394.10928,78,68,0
393.8211,394.10928,73,61,0
393.8211,394.10928,66,61,0
394.11203,394.40125,78,69,0
394.11203,394.40125,73,62,0
394.11203,394.40125,66,62,0
394.404,394.6943,77,80,0
394.404,394.6943,72,80,0
394.404,394.6943,65,70,0
394.69705,394.98734,77,73,0
394.69705,394.98734,72,73,0
394.69705,394.98734,65,65,0
394.99008,395.28036,77,74,0
394.99008,395.28036,75,74,0
394.99008,395.28036,65,66,0
395.2831,395.57993,77,73,0
395.2831,395.57993,89,83,0
395.2831,395.57993,87,83,0
395.2831,395.57993,82,73,0
395.58273,395.87955,65,65,0
395.58273,395.87955,77,72,0
395.58273,395.87955,75,72,0
395.58273,395.87955,70,65,0
395.8824,396.1748,77,69,0
395.8824,396.1748,89,77,0
395.8824,396.1748,87,77,0
395.8824,396.1748,82,69,0
396.17758,396.47,77,72,0
396.17758,396.47,65,65,0
396.17758,396.47,68,65,0
396.17758,396.47,75,72,0
396.47278,396.76245,89,77,0
396.47278,396.76245,77,69,0
396.47278,396.76245,80,69,0
396.47278,396.76245,87,77,0
396.7652,397.0544,77,72,0
396.7652,397.0544,65,65,0
396.7652,397.0544,68,65,0
396.7652,397.0544,75,72,0
397.05716,397.35178,77,73,0
397.05716,397.35178,89,83,0
397.05716,397.35178,87,83,0
397.05716,397.35178,82,73,0
397.35455,397.64917,65,65,0
397.35455,397.64917,77,72,0
397.35455,397.64917,75,72,0
397.35455,397.64917,70,65,0
397.65195,397.94226,77,69,0
397.65195,397.94226,89,77,0
397.65195,397.94226,87,77,0
397.65195,397.94226,82,69,0
397.945,398.2353,77,72,0
397.945,398.2353,65,65,0
397.945,398.2353,71,65,0
397.945,398.2353,75,72,0
398.23804,398.52832,89,77,0
398.23804,398.52832,77,69,0
398.23804,398.52832,83,69,0
398.23804,398.52832,87,77,0
398.53107,398.82138,77,72,0
398.53107,398.82138,65,65,0
398.53107,398.82138,71,65,0
398.53107,398.82138,75,72,0
398.82413,399.12228,77,73,0
398.82413,399.12228,89,83,0
398.82413,399.12228,87,83,0
398.82413,399.12228,82,73,0
399.12512,399.42328,65,65,0
399.12512,399.42328,77,72,0
399.12512,399.42328,75,72,0
399.12512,399.42328,70,65,0
399.42612,399.71777,77,69,0
399.42612,399.71777,89,77,0
399.42612,399.71777,87,77,0
399.42612,399.71777,82,69,0
399.72052,400.0122,77,73,0
399.72052,400.0122,65,67,0
399.72052,400.0122,69,67,0
399.72052,400.0122,75,73,0
400.01495,400.3066,89,82,0
400.01495,400.3066,77,72,0
400.01495,400.3066,81,72,0
400.01495,400.3066,87,82,0
400.3094,400.60104,77,76,0
400.3094,400.60104,65,69,0
400.3094,400.60104,69,69,0
400.3094,400.60104,75,76,0
400.6038,400.89978,77,80,0
400.6038,400.89978,89,90,0
400.6038,400.89978,87,90,0
400.6038,400.89978,82,80,0
400.90256,401.19855,65,70,0
400.90256,401.19855,77,80,0
400.90256,401.19855,75,80,0
400.90256,401.19855,70,70,0
401.20135,401.49356,77,77,0
401.20135,401.49356,89,86,0
401.20135,401.49356,87,86,0
401.20135,401.49356,82,77,0
401.4963,401.78796,77,82,0
401.4963,401.78796,65,72,0
401.4963,401.78796,72,72,0
401.4963,401.78796,75,82,0
401.79074,402.0824,89,89,0
401.79074,402.0824,77,80,0
401.79074,402.0824,84,80,0
401.79074,402.0824,87,89,0
402.08514,402.47177,77,84,0
402.08514,402.47177,65,75,0
402.08514,402.47177,72,75,0
402.08514,402.47177,75,84,0
402.47543,403.09183,79,95,0
402.47543,403.09183,87,106,0
402.47543,403.09183,91,106,0
403.09183,403.7082,67,87,0
403.09183,403.7082,75,97,0
403.09183,403.7082,79,97,0
403.7082,404.37073,67,90,0
403.7082,404.37073,63,90,0
403.7082,404.37073,55,80,0
404.37073,404.94177,71,88,0
404.37073,404.94177,59,81,0
404.37073,404.94177,63,81,0
404.37073,404.94177,66,88,0
404.94177,405.55148,73,85,0
404.94177,405.55148,61,75,0
404.94177,405.55148,66,75,0
404.94177,405.55148,70,85,0
405.55148,406.177,79,95,0
405.55148,406.177,87,106,0
405.55148,406.177,91,106,0
406.177,406.80255,67,87,0
406.177,406.80255,75,97,0
406.177,406.80255,79,97,0
406.80255,407.4809,67,90,0
406.80255,407.4809,63,90,0
406.80255,407.4809,55,80,0
407.4809,408.11832,72,88,0
407.4809,408.11832,60,81,0
407.4809,408.11832,63,81,0
407.4809,408.11832,67,88,0
408.11832,408.88785,74,85,0
408.11832,408.88785,62,75,0
408.11832,408.88785,65,75,0
408.11832,408.88785,70,85,0
409.18927,411.3092,75,99,0
409.18927,411.3092,67,83,0
408.88785,411.3092,51,105,0
409.18927,411.3092,63,83,0
409.18927,411.3092,70,99,0
411.61322,413.9075,77,92,0
411.61322,413.9075,70,77,0
411.3092,413.9075,51,95,0
411.61322,413.9075,65,77,0
411.61322,413.9075,74,92,0
414.17563,415.82068,79,99,0
414.17563,415.82068,70,83,0
413.9075,415.82068,51,95,0
414.17563,415.82068,67,83,0
414.17563,415.82068,75,99,0
415.82068,416.62424,75,94,0
415.82068,416.62424,63,79,0
415.82068,416.62424,67,79,0
415.82068,416.62424,72,94,0
416.62424,417.4448,79,86,0
416.62424,417.4448,72,72,0
416.62424,417.4448,75,86,0
416.62424,417.4448,67,72,0
417.4448,419.0874,77,89,0
417.4448,419.0874,65,73,0
417.4448,419.0874,70,73,0
417.4448,419.0874,74,89,0
419.0874,420.62732,70,95,0
419.0874,420.62732,58,81,0
420.62732,420.87897,60,99,0
420.62732,420.87897,63,99,0
420.87897,422.78122,80,97,0
420.87897,422.78122,68,81,0
420.87897,422.78122,72,81,0
420.87897,422.78122,75,97,0
422.78122,423.03287,62,92,0
422.78122,423.03287,67,92,0
423.03287,424.93512,82,97,0
423.03287,424.93512,70,81,0
423.03287,424.93512,74,81,0
423.03287,424.93512,79,97,0
424.93512,425.18307,67,92,0
424.93512,425.18307,63,92,0
425.18307,426.16098,91,108,0
425.18307,426.16098,79,89,0
425.18307,426.16098,82,89,0
425.18307,426.16098,87,108,0
426.16098,427.1389,70,99,0
426.16098,427.1389,67,84,0
426.16098,427.1389,63,84,0
427.1389,428.11682,91,108,0
427.1389,428.11682,79,89,0
427.1389,428.11682,82,89,0
427.1389,428.11682,87,108,0
428.11682,429.09143,70,99,0
428.11682,429.09143,67,85,0
428.11682,429.09143,63,84,0
429.09143,432.38412,63,108,0
429.09143,432.38412,51,95,0
432.38412,433.57373,51,110,0
0.0007462688,0.1791045,42,74,0
0.358209,0.71115,31,65,0
0.358209,0.71115,43,77,0
1.417032,1.5052673,42,69,0
1.5935025,1.683864,42,66,0
1.7742255,2.1271665,43,74,0
1.7742255,2.1271665,31,63,0
2.8330486,3.009519,41,72,0
3.1859896,3.354529,44,75,0
3.1859896,3.354529,32,63,0
3.354529,3.5309994,31,59,0
3.354529,3.5309994,43,70,0
4.2368817,4.3251166,41,68,0
4.413352,4.5029044,41,65,0
4.5924563,4.762428,44,71,0
4.5924563,4.762428,32,60,0
4.762428,4.8963566,31,57,0
4.762428,4.8963566,43,68,0
4.9409995,5.1134133,32,61,0
4.9409995,5.1134133,44,72,0
5.1134133,5.242724,43,67,0
5.1134133,5.242724,31,56,0
5.6387687,5.9917097,43,68,0
5.6387687,5.9917097,31,68,0
5.9917097,6.3446503,31,65,0
5.9917097,6.3446503,43,65,0
6.3446503,6.4279838,43,75,0
6.3446503,6.4279838,31,75,0
6.511317,6.591746,44,68,0
6.8407145,6.930535,53,61,0
6.672175,7.020355,43,66,0
7.020355,7.373296,31,57,0
7.020355,7.373296,43,68,0
7.373296,7.726237,31,55,0
7.373296,7.726237,43,66,0
7.726237,7.893368,43,75,0
7.726237,7.893368,31,63,0
7.893368,8.054226,44,66,0
8.223718,8.305461,49,61,0
8.054226,8.387205,43,66,0
8.387205,8.55341,31,60,0
8.387205,8.55341,43,71,0
8.55341,8.714268,44,64,0
8.884239,8.969225,53,60,0
8.714268,9.054211,43,67,0
9.054211,9.219501,43,66,0
9.054211,9.219501,31,55,0
9.219501,9.3795,44,61,0
9.547098,9.726203,49,61,0
9.3795,9.726203,43,66,0
9.726203,10.080185,43,67,0
9.726203,10.080185,31,56,0
10.080185,10.434167,31,55,0
10.080185,10.434167,43,65,0
10.434167,10.788149,43,67,0
10.434167,10.788149,31,56,0
10.788149,11.142131,31,54,0
10.788149,11.142131,43,63,0
11.142131,11.2264,43,56,0
11.142131,11.2264,31,47,0
11.310671,11.390884,48,52,0
11.310671,11.390884,36,44,0
11.471099,11.554201,32,56,0
11.471099,11.554201,44,67,0
11.637303,11.718385,37,49,0
11.637303,11.718385,49,58,0
11.799465,11.881433,45,57,0
11.799465,11.881433,33,48,0
11.9634,12.044045,38,47,0
11.9634,12.044045,50,56,0
12.12469,12.209436,46,63,0
12.12469,12.209436,34,53,0
12.294182,12.376599,39,46,0
12.294182,12.376599,51,55,0
12.459017,12.543286,43,59,0
12.459017,12.543286,31,50,0
12.627557,12.707986,48,54,0
12.627557,12.707986,36,45,0
12.788415,12.87198,32,59,0
12.788415,12.87198,44,70,0
12.955545,13.037737,37,51,0
12.955545,13.037737,49,61,0
13.119929,13.203262,45,60,0
13.119929,13.203262,33,50,0
13.286595,13.367241,50,59,0
13.286595,13.367241,38,50,0
13.447886,13.532156,34,58,0
13.447886,13.532156,46,68,0
13.6164255,13.697507,51,59,0
13.6164255,13.697507,39,59,0
13.778587,13.862387,31,51,0
13.778587,13.862387,43,61,0
13.946185,14.027059,48,55,0
13.946185,14.027059,36,46,0
14.107273,14.190606,32,61,0
14.107273,14.190606,44,72,0
14.273939,14.355683,37,53,0
14.273939,14.355683,49,63,0
14.437427,14.521226,45,62,0
14.437427,14.521226,33,52,0
14.605024,14.6846,50,62,0
14.605024,14.6846,38,52,0
14.764175,14.848446,34,59,0
14.764175,14.848446,46,70,0
14.932715,15.013796,51,61,0
14.932715,15.013796,39,61,0
15.094877,15.177979,31,55,0
15.094877,15.177979,43,65,0
15.261083,15.340658,48,59,0
15.261083,15.340658,36,50,0
15.420234,15.5037985,32,66,0
15.420234,15.5037985,44,79,0
15.587364,15.669108,49,68,0
15.587364,15.669108,37,57,0
15.750852,15.833954,33,59,0
15.750852,15.833954,45,70,0
15.917057,15.995797,50,66,0
15.917057,15.995797,38,55,0
16.074537,16.159523,34,64,0
16.074537,16.159523,46,77,0
16.244509,16.327381,51,67,0
16.244509,16.327381,39,56,0
16.410255,16.4909,43,72,0
16.410255,16.4909,31,61,0
16.571545,16.65008,36,55,0
16.571545,16.65008,48,66,0
16.728613,16.809475,32,58,0
16.728613,16.809475,44,69,0
16.890339,16.969286,37,54,0
16.890339,16.969286,49,63,0
17.048233,17.129095,45,72,0
17.048233,17.129095,33,61,0
17.209957,17.288492,50,65,0
17.209957,17.288492,38,55,0
17.367025,17.447454,34,59,0
17.367025,17.447454,46,70,0
17.527884,17.60683,51,63,0
17.527884,17.60683,39,54,0
17.685778,17.766424,31,61,0
17.685778,17.766424,43,61,0
17.847069,17.925602,48,66,0
17.847069,17.925602,36,55,0
18.004137,18.085,32,58,0
18.004137,18.085,44,69,0
18.165861,18.244808,49,63,0
18.165861,18.244808,37,54,0
18.323757,18.40462,33,61,0
18.323757,18.40462,45,72,0
18.485481,18.563404,50,65,0
18.485481,18.563404,38,55,0
18.641325,18.721754,34,59,0
18.641325,18.721754,46,70,0
18.802183,18.88113,51,63,0
18.802183,18.88113,39,54,0
18.960077,19.041378,43,72,0
18.960077,19.041378,31,61,0
19.122679,19.202679,36,55,0
19.122679,19.202679,48,66,0
19.282679,19.364647,32,58,0
19.282679,19.364647,44,69,0
19.446613,19.52726,49,63,0
19.446613,19.52726,37,54,0
19.607904,19.690321,33,61,0
19.607904,19.690321,45,72,0
19.77274,19.85382,50,65,0
19.77274,19.85382,38,55,0
19.934902,20.017319,34,59,0
19.934902,20.017319,46,70,0
20.099737,20.180164,51,63,0
20.099737,20.180164,39,54,0
20.260593,20.343927,43,76,0
20.260593,20.343927,31,63,0
20.427261,20.507261,36,55,0
20.427261,20.507261,48,66,0
20.587261,20.670134,32,61,0
20.587261,20.670134,44,72,0
20.753006,20.834751,49,63,0
20.753006,20.834751,37,54,0
20.916494,20.99891,45,75,0
20.916494,20.99891,33,63,0
21.08133,21.161116,38,55,0
21.08133,21.161116,50,65,0
21.240904,21.32332,46,72,0
21.240904,21.32332,34,62,0
21.405739,21.486168,39,54,0
21.405739,21.486168,51,63,0
21.574663,21.741795,43,70,0
21.574663,21.741795,31,59,0
21.741795,21.908926,42,65,0
21.908926,22.073761,43,70,0
21.908926,22.073761,31,59,0
22.073761,22.238596,42,65,0
22.238596,22.40343,31,59,0
22.238596,22.40343,43,70,0
22.40343,22.568266,42,65,0
22.568266,22.7331,43,70,0
22.568266,22.7331,31,59,0
22.7331,22.901237,42,65,0
22.901237,23.069304,43,70,0
22.901237,23.069304,31,59,0
23.069304,23.237371,42,67,0
23.237371,23.407825,31,59,0
23.237371,23.407825,43,70,0
23.407825,23.57828,42,67,0
23.57828,23.747293,48,72,0
23.57828,23.747293,36,61,0
23.747293,23.916307,34,60,0
23.747293,23.916307,46,71,0
23.916307,24.085321,45,70,0
23.916307,24.085321,33,59,0
24.085321,24.257547,44,69,0
24.085321,24.257547,32,58,0
24.257547,24.425146,31,59,0
24.257547,24.425146,43,70,0
24.425146,24.592745,42,65,0
24.592745,24.75758,43,70,0
24.592745,24.75758,31,59,0
24.75758,24.922415,42,65,0
24.922415,25.08725,43,70,0
24.922415,25.08725,31,59,0
25.08725,25.252085,42,65,0
25.252085,25.41692,31,59,0
25.252085,25.41692,43,70,0
25.41692,25.584925,42,65,0
25.584925,25.75299,31,59,0
25.584925,25.75299,43,70,0
25.75299,25.921059,42,67,0
25.921059,26.091513,31,59,0
25.921059,26.091513,43,70,0
26.091513,26.261967,42,67,0
26.261967,26.43098,48,72,0
26.261967,26.43098,36,61,0
26.43098,26.599995,35,60,0
26.43098,26.599995,47,71,0
26.599995,26.769009,34,59,0
26.599995,26.769009,46,70,0
26.769009,26.942537,33,58,0
26.769009,26.942537,45,69,0
27.279615,27.613878,60,59,0
27.279615,27.613878,48,50,0
27.613878,27.94814,36,54,0
27.613878,27.94814,48,63,0
27.94814,28.282402,48,50,0
27.94814,28.282402,60,60,0
26.942537,28.282402,66,70,0
28.61165,28.941805,43,50,0
28.61165,28.941805,55,59,0
28.941805,29.272406,31,54,0
28.941805,29.272406,43,54,0
29.272406,29.605738,43,50,0
29.272406,29.605738,55,60,0
28.282402,29.605738,70,70,0
29.942818,30.277079,48,50,0
29.942818,30.277079,60,59,0
30.277079,30.611341,48,63,0
30.277079,30.611341,36,54,0
30.611341,30.945604,48,50,0
30.611341,30.945604,60,60,0
29.605738,30.945604,66,70,0
31.279865,31.608213,43,50,0
31.279865,31.608213,55,59,0
31.608213,31.93699,31,54,0
31.608213,31.93699,43,63,0
31.93699,32.265778,55,60,0
31.93699,32.265778,43,50,0
30.945604,32.265778,70,70,0
32.60286,32.93712,57,59,0
32.60286,32.93712,45,50,0
32.93712,33.27138,45,63,0
32.93712,33.27138,33,54,0
33.27138,33.605644,57,60,0
33.27138,33.605644,45,50,0
32.265778,33.605644,66,70,0
33.93488,34.263668,52,59,0
33.93488,34.263668,40,50,0
34.263668,34.5929,40,63,0
34.263668,34.5929,28,54,0
34.5929,34.924393,40,50,0
34.5929,34.924393,52,60,0
33.605644,34.924393,70,70,0
35.26147,35.595734,57,59,0
35.26147,35.595734,45,50,0
35.595734,35.929996,33,54,0
35.595734,35.929996,45,63,0
35.929996,36.26426,45,50,0
35.929996,36.26426,57,60,0
34.924393,36.26426,66,70,0
36.59575,36.92141,40,50,0
36.59575,36.92141,52,59,0
36.92141,37.254784,40,63,0
36.92141,37.254784,28,54,0
37.254784,37.59186,52,60,0
37.254784,37.59186,40,50,0
36.26426,37.59186,72,70,0
37.59186,37.761833,43,68,0
37.59186,37.761833,31,57,0
37.931805,38.096188,79,66,0
38.096188,38.26332,74,60,0
38.26332,38.428154,75,65,0
38.428154,38.595753,74,60,0
38.595753,38.76059,70,65,0
38.76059,38.928185,67,60,0
38.928185,39.09302,68,64,0
39.09302,39.26062,75,58,0
39.26062,39.425907,71,62,0
39.425907,39.596848,75,58,0
39.596848,39.774364,74,63,0
39.951878,40.129395,67,61,0
40.306908,40.64685,55,57,0
40.306908,40.64685,67,68,0
40.64685,40.811234,67,66,0
40.64685,40.811234,55,55,0
40.811234,40.978367,62,60,0
40.811234,40.978367,50,50,0
40.978367,41.1432,51,55,0
40.978367,41.1432,63,65,0
41.1432,41.3108,62,60,0
41.1432,41.3108,50,50,0
41.3108,41.475636,58,65,0
41.3108,41.475636,46,55,0
41.475636,41.643234,43,50,0
41.475636,41.643234,55,60,0
41.643234,41.808067,44,54,0
41.643234,41.808067,56,64,0
41.808067,41.975666,51,49,0
41.808067,41.975666,63,58,0
41.975666,42.140953,59,62,0
41.975666,42.140953,47,52,0
42.140953,42.311893,63,58,0
42.140953,42.311893,51,49,0
42.311893,42.491,50,54,0
42.311893,42.491,62,63,0
42.670105,42.84921,55,61,0
42.670105,42.84921,43,51,0
43.028313,43.368256,43,57,0
43.028313,43.368256,55,68,0
43.368256,43.53264,43,55,0
43.368256,43.53264,55,66,0
43.53264,43.69977,50,60,0
43.53264,43.69977,38,50,0
43.69977,43.864605,51,65,0
43.69977,43.864605,39,55,0
43.864605,44.032204,50,60,0
43.864605,44.032204,38,50,0
44.032204,44.197037,46,65,0
44.032204,44.197037,34,55,0
44.197037,44.364635,31,50,0
44.197037,44.364635,43,60,0
44.719666,44.88405,43,55,0
44.364635,44.88405,30,59,0
44.364635,44.88405,42,70,0
44.719666,44.88405,55,66,0
44.88405,45.05118,50,60,0
44.88405,45.05118,38,50,0
45.05118,45.216015,51,65,0
45.05118,45.216015,39,55,0
45.216015,45.383614,38,50,0
45.216015,45.383614,50,60,0
45.383614,45.550743,46,65,0
45.383614,45.550743,34,55,0
45.550743,45.72217,43,60,0
45.550743,45.72217,31,50,0
46.074078,46.238464,55,66,0
45.72217,46.238464,29,59,0
45.72217,46.238464,41,70,0
46.074078,46.238464,43,55,0
46.238464,46.405594,38,50,0
46.238464,46.405594,50,60,0
46.405594,46.57043,39,55,0
46.405594,46.57043,51,65,0
46.57043,46.738026,38,50,0
46.57043,46.738026,50,60,0
46.738026,46.906094,46,65,0
46.738026,46.906094,34,55,0
46.906094,47.078506,43,60,0
46.906094,47.078506,31,50,0
47.43249,47.596874,55,66,0
47.078506,47.596874,40,70,0
47.078506,47.596874,28,59,0
47.43249,47.596874,43,55,0
47.596874,47.764004,50,60,0
47.596874,47.764004,38,50,0
47.764004,47.92884,39,55,0
47.764004,47.92884,51,65,0
47.92884,48.096436,38,50,0
47.92884,48.096436,50,60,0
48.096436,48.264503,34,55,0
48.096436,48.264503,46,65,0
48.264503,48.43692,43,60,0
48.264503,48.43692,31,50,0
48.43692,48.795128,39,70,0
48.43692,48.795128,27,59,0
48.795128,49.13507,38,70,0
48.795128,49.13507,26,59,0
49.475014,49.644985,56,72,0
49.13507,49.644985,47,70,0
49.13507,49.644985,35,59,0
49.475014,49.644985,68,72,0
49.814896,49.899643,91,76,0
49.984386,50.069134,86,69,0
50.15388,50.238625,87,73,0
50.32315,50.407658,83,70,0
50.492165,50.57667,84,73,0
50.66118,50.74547,79,69,0
50.82974,50.91401,80,72,0
50.99828,51.08255,74,70,0
51.166603,51.2504,75,76,0
51.334198,51.418,71,66,0
51.501797,51.585598,72,72,0
51.669395,51.753193,67,66,0
51.836994,51.92079,68,72,0
52.004593,52.08839,62,67,0
52.17219,52.25599,63,72,0
52.339787,52.423588,59,67,0
52.507385,52.590717,60,76,0
52.674053,52.757385,55,67,0
52.840717,52.924053,56,73,0
53.007233,53.090332,50,67,0
53.173435,53.25654,51,73,0
53.33964,53.42267,47,70,0
53.50554,53.588413,48,74,0
53.671288,53.754158,43,72,0
53.837032,53.919678,44,76,0
54.002323,54.084965,38,71,0
54.16761,54.250256,39,76,0
54.3329,54.415546,35,72,0
54.49819,54.580833,36,76,0
54.66348,54.746124,31,71,0
54.82877,54.911415,32,77,0
54.99406,55.076702,31,72,0
55.159576,55.242912,32,76,0
55.3264,55.41004,31,71,0
55.493843,55.577797,35,76,0
55.66191,55.746178,31,69,0
55.830685,55.91527,32,63,0
55.830685,55.91527,44,74,0
56.00002,56.085003,43,71,0
56.00002,56.085003,31,60,0
56.17015,56.25538,35,62,0
56.17015,56.25538,47,73,0
56.340847,56.42648,43,71,0
56.340847,56.42648,31,60,0
56.512276,56.689266,32,64,0
56.512276,56.689266,44,76,0
56.86626,57.04325,44,72,0
56.86626,57.04325,32,61,0
57.22024,57.397232,43,64,0
57.22024,57.397232,55,76,0
57.574223,57.751213,55,72,0
57.574223,57.751213,43,61,0
57.928204,58.105194,32,64,0
57.928204,58.105194,44,76,0
58.28219,58.45918,44,72,0
58.28219,58.45918,32,61,0
58.63617,58.81316,55,76,0
58.63617,58.81316,43,64,0
58.99015,59.16714,43,61,0
58.99015,59.16714,55,72,0
59.34413,60.052097,44,76,0
60.052097,60.76006,55,70,0
60.76006,61.468025,44,76,0
61.468025,62.268024,55,71,0
66.43139,66.77201,46,40,0
66.43139,66.77201,58,48,0
67.11627,68.373116,52,42,0
67.11627,68.373116,40,35,0
69.00193,69.17602,46,40,0
69.00193,69.17602,58,47,0
69.351456,69.527695,58,45,0
69.351456,69.527695,46,38,0
69.70253,70.94819,40,34,0
69.70253,70.94819,52,40,0
71.57407,71.73662,58,49,0
71.57407,71.73662,46,41,0
71.89854,72.05579,62,45,0
71.89854,72.05579,50,45,0
72.21467,72.37034,48,38,0
72.21467,72.37034,60,45,0
72.527885,72.685585,50,45,0
72.527885,72.685585,62,45,0
72.84521,73.47513,58,46,0
72.84521,73.47513,46,39,0
73.47513,73.634445,60,46,0
73.47513,73.634445,48,39,0
73.79339,73.96041,46,36,0
73.79339,73.96041,58,44,0
74.12694,74.77619,62,49,0
74.12694,74.77619,50,41,0
74.77619,74.93626,48,37,0
74.77619,74.93626,60,45,0
75.09696,75.25796,46,36,0
75.09696,75.25796,58,43,0
75.41959,75.75005,59,45,0
75.41959,75.75005,47,37,0
76.0788,77.33637,52,42,0
76.0788,77.33637,40,35,0
77.96515,78.13202,47,37,0
77.96515,78.13202,59,45,0
78.29939,78.46609,59,43,0
78.29939,78.46609,47,36,0
78.632454,79.88116,40,34,0
78.632454,79.88116,52,40,0
80.504944,80.66794,56,45,0
80.504944,80.66794,44,37,0
80.82956,80.986084,60,42,0
80.82956,80.986084,48,35,0
81.14247,81.29944,47,38,0
81.14247,81.29944,59,45,0
81.457146,81.61282,60,45,0
81.457146,81.61282,48,37,0
81.76951,82.39824,44,39,0
81.76951,82.39824,56,46,0
82.39824,82.54973,45,39,0
82.39824,82.54973,57,46,0
82.7027,82.8676,56,43,0
82.7027,82.8676,44,36,0
83.03283,83.68129,48,40,0
83.03283,83.68129,60,47,0
83.68129,83.84151,59,45,0
83.68129,83.84151,47,37,0
84.001144,84.16304,44,36,0
84.001144,84.16304,56,43,0
84.322845,84.65154,57,45,0
84.322845,84.65154,45,37,0
84.98217,85.29536,40,35,0
84.98217,85.29536,52,42,0
85.610725,85.731155,62,40,0
85.71779,85.839455,58,32,0
85.826096,85.94577,62,38,0
85.93225,86.05315,58,31,0
86.03993,86.15961,62,37,0
86.14624,86.25315,58,32,0
86.25315,86.36988,60,36,0
86.3571,86.47385,57,30,0
86.460785,86.57738,60,36,0
86.56445,86.68148,57,31,0
86.66856,86.785576,60,36,0
86.77251,86.89062,57,31,0
86.87702,87.20786,45,49,0
87.53773,87.848595,40,45,0
88.16458,88.28601,57,40,0
88.272415,88.393166,53,32,0
88.37995,88.50172,57,38,0
88.4878,88.60956,53,31,0
88.59596,88.71833,57,37,0
88.704735,88.8135,53,32,0
88.8135,88.92939,56,36,0
88.91661,89.03299,52,30,0
89.02014,89.137764,56,36,0
89.12455,89.24138,52,31,0
89.22824,89.3457,56,36,0
89.33278,89.451546,52,31,0
89.43795,89.76811,45,49,0
90.09571,90.41025,40,42,0
90.7266,90.85081,53,33,0
90.83681,90.962654,49,26,0
90.94898,91.0727,53,32,0
91.0587,91.18308,49,27,0
91.16956,91.29386,53,32,0
91.279945,91.39129,49,26,0
91.39129,91.507965,52,32,0
91.494675,91.61303,48,27,0
91.600105,91.716286,52,32,0
91.70293,91.82216,48,27,0
91.80924,91.92541,52,33,0
91.91219,92.01791,48,27,0
92.01791,92.13811,51,32,0
92.12482,92.24526,47,26,0
92.23174,92.35101,51,31,0
92.3378,92.458626,47,27,0
92.44518,92.56614,51,30,0
92.5527,92.66022,47,26,0
93.28606,93.61478,58,47,0
93.28606,93.61478,46,40,0
93.94703,95.204605,40,35,0
93.94703,95.204605,52,42,0
95.83318,95.99939,58,48,0
95.83318,95.99939,46,40,0
96.16934,96.33679,46,38,0
96.16934,96.33679,58,45,0
96.50464,97.74863,40,34,0
96.50464,97.74863,52,40,0
98.37173,98.533646,58,48,0
98.37173,98.533646,46,40,0
98.695076,98.85231,62,44,0
98.695076,98.85231,50,36,0
99.01032,99.16698,60,45,0
99.01032,99.16698,48,38,0
99.32334,99.47945,62,45,0
99.32334,99.47945,50,37,0
99.636215,100.25684,58,46,0
99.636215,100.25684,46,39,0
100.25684,100.412224,48,39,0
100.25684,100.412224,60,46,0
100.56816,100.735016,46,36,0
100.56816,100.735016,58,43,0
100.89977,101.547935,62,47,0
100.89977,101.547935,50,40,0
101.547935,101.707245,60,45,0
101.547935,101.707245,48,37,0
101.867805,102.02865,58,43,0
101.867805,102.02865,46,36,0
102.188416,102.5176,47,37,0
102.188416,102.5176,59,45,0
102.847725,104.10421,52,42,0
102.847725,104.10421,40,35,0
104.733826,104.90102,59,45,0
104.733826,104.90102,47,37,0
105.06771,105.233925,59,43,0
105.06771,105.233925,47,36,0
105.40078,106.65032,40,34,0
105.40078,106.65032,52,40,0
107.277145,107.43968,44,37,0
107.277145,107.43968,56,45,0
107.60236,107.760925,48,35,0
107.60236,107.760925,60,42,0
107.918625,108.0784,59,45,0
107.918625,108.0784,47,38,0
108.23551,108.391624,60,45,0
108.23551,108.391624,48,37,0
108.54903,109.176025,56,46,0
108.54903,109.176025,44,39,0
109.176025,109.33313,57,46,0
109.176025,109.33313,45,39,0
109.49206,109.65812,56,43,0
109.49206,109.65812,44,36,0
109.82352,110.46934,60,47,0
109.82352,110.46934,48,40,0
110.46934,110.62895,47,37,0
110.46934,110.62895,59,45,0
110.7895,110.950325,56,43,0
110.7895,110.950325,44,36,0
111.11147,112.38108,45,52,0
112.38108,113.64175,40,61,0
113.64175,116.17312,33,69,0
116.17312,118.69141,31,71,0
118.69141,118.798935,52,27,0
118.69141,118.798935,56,32,0
118.77221,118.87958,60,28,0
118.85239,118.96099,56,32,0
118.85239,118.96099,52,27,0
118.93411,119.04014,60,28,0
119.013855,119.120026,52,27,0
119.013855,119.120026,56,33,0
119.09315,119.20051,60,28,0
119.17378,119.27906,52,28,0
119.17378,119.27906,56,34,0
119.25322,119.33177,60,29,0
119.33177,119.43883,51,30,0
119.33177,119.43883,55,36,0
119.4121,119.516945,59,32,0
119.49124,119.5952,55,36,0
119.49124,119.5952,51,30,0
119.56892,119.67404,59,32,0
119.64791,119.75116,55,39,0
119.64791,119.75116,51,33,0
119.725586,119.828415,59,34,0
119.80243,119.9061,51,34,0
119.80243,119.9061,55,40,0
119.88026,119.95779,59,34,0
119.95779,120.06103,53,40,0
119.95779,120.06103,50,34,0
120.035324,120.13718,58,36,0
120.111885,120.21431,50,33,0
120.111885,120.21431,53,39,0
120.18803,120.2939,58,34,0
120.26747,120.37171,53,39,0
120.26747,120.37171,50,33,0
120.34587,120.450714,58,33,0
120.42414,120.53046,53,36,0
120.42414,120.53046,50,30,0
120.503876,120.58361,58,32,0
120.58361,120.68932,48,30,0
120.58361,120.68932,52,36,0
120.66305,120.76758,57,31,0
120.74145,120.84731,48,30,0
120.74145,120.84731,52,36,0
120.82073,120.92705,57,31,0
120.90047,121.00633,52,34,0
120.90047,121.00633,48,28,0
120.98006,121.087585,57,30,0
121.0589,121.173645,52,33,0
121.0589,121.173645,48,27,0
121.14496,121.23102,57,28,0
121.23102,121.33763,56,32,0
121.23102,121.33763,52,27,0
121.3112,121.41782,60,28,0
121.390785,121.49832,56,32,0
121.390785,121.49832,52,27,0
121.47189,121.57731,60,28,0
121.551025,121.65781,52,27,0
121.551025,121.65781,56,33,0
121.63138,121.736946,60,28,0
121.71052,121.8179,56,34,0
121.71052,121.8179,52,28,0
121.79086,121.871506,60,29,0
121.871506,121.97692,55,36,0
121.871506,121.97692,51,30,0
121.9508,122.05548,59,32,0
122.02891,122.13597,55,36,0
122.02891,122.13597,51,30,0
122.10909,122.214966,59,32,0
122.18898,122.2925,51,33,0
122.18898,122.2925,55,39,0
122.26637,122.37195,59,34,0
122.34537,122.4505,55,40,0
122.34537,122.4505,51,34,0
122.42451,122.50205,59,34,0
122.50205,122.60749,53,40,0
122.50205,122.60749,50,34,0
122.58091,122.686775,58,36,0
122.6605,122.764885,50,33,0
122.6605,122.764885,53,39,0
122.73904,122.843735,58,34,0
122.817154,122.923164,53,39,0
122.817154,122.923164,50,33,0
122.896736,123.001564,58,33,0
122.97558,123.079834,50,30,0
122.97558,123.079834,53,36,0
123.05326,123.132996,58,32,0
123.132996,123.23724,52,36,0
123.132996,123.23724,48,30,0
123.211395,123.316536,57,31,0
123.28981,123.395676,52,36,0
123.28981,123.395676,48,30,0
123.36939,123.475105,57,31,0
123.44853,123.55485,52,34,0
123.44853,123.55485,48,34,0
123.52827,123.63703,57,30,0
123.608,123.72414,48,27,0
123.608,123.72414,52,33,0
123.6951,123.782196,57,28,0
123.782196,123.88806,44,36,0
123.782196,123.88806,40,30,0
123.861786,123.966606,48,29,0
123.94032,124.04709,44,36,0
123.94032,124.04709,40,30,0
124.02036,124.12592,48,30,0
124.0998,124.20567,40,30,0
124.0998,124.20567,44,36,0
124.178635,124.28555,48,30,0
124.25913,124.36471,44,36,0
124.25913,124.36471,40,30,0
124.33783,124.418465,48,30,0
124.418465,124.52388,39,28,0
124.418465,124.52388,43,34,0
124.49775,124.603615,47,28,0
124.57674,124.68395,43,34,0
124.57674,124.68395,39,28,0
124.65737,124.76295,47,28,0
124.73637,124.84375,43,34,0
124.73637,124.84375,39,28,0
124.81671,124.9244,47,27,0
124.89783,125.00325,43,34,0
124.89783,125.00325,39,28,0
124.97697,125.05596,47,27,0
125.05596,125.16167,38,25,0
125.05596,125.16167,41,30,0
125.13525,125.24081,46,21,0
125.21452,125.320694,38,25,0
125.21452,125.320694,41,30,0
125.293816,125.39998,46,19,0
125.37385,125.48018,41,29,0
125.37385,125.48018,38,25,0
125.45314,125.561295,46,18,0
125.534256,125.64103,38,25,0
125.534256,125.64103,41,29,0
125.6146,125.6945,46,17,0
125.6945,125.8028,40,28,0
125.6945,125.8028,36,24,0
125.775925,125.88269,45,16,0
125.85611,125.96442,36,23,0
125.85611,125.96442,40,27,0
125.93707,126.04679,45,16,0
126.01945,126.1279,36,23,0
126.01945,126.1279,40,27,0
126.10102,126.21011,45,16,0
126.1826,126.29265,40,27,0
126.1826,126.29265,36,22,0
126.26514,126.34767,45,16,0
126.34767,126.45535,39,27,0
126.34767,126.45535,35,23,0
126.428474,126.53788,43,15,0
126.51021,126.620094,39,27,0
126.51021,126.620094,35,22,0
126.5929,126.674484,43,15,0
126.674484,126.78343,39,27,0
126.674484,126.78343,35,22,0
126.75671,126.86584,43,15,0
126.83768,126.949844,35,22,0
126.83768,126.949844,39,27,0
126.922005,127.00361,43,14,0
127.00361,127.1121,35,21,0
127.00361,127.1121,39,26,0
127.08495,127.194405,43,15,0
127.16723,127.27629,39,26,0
127.16723,127.27629,35,21,0
127.248695,127.35814,43,15,0
127.331085,127.44118,35,21,0
127.331085,127.44118,39,26,0
127.41321,127.52324,43,15,0
127.496185,127.60622,35,21,0
127.496185,127.60622,39,26,0
127.578125,127.66162,43,14,0
127.66162,127.77179,35,21,0
127.66162,127.77179,39,26,0
127.74386,127.85547,43,15,0
127.82781,127.93741,39,25,0
127.82781,127.93741,35,20,0
127.91003,128.02112,43,15,0
127.99306,128.10405,39,25,0
127.99306,128.10405,35,20,0
128.07664,128.18709,43,15,0
128.15906,128.27083,39,24,0
128.15906,128.27083,35,19,0
128.24327,128.32574,43,14,0
128.32574,130.32574,39,26,0
128.32574,130.32574,35,21,0
130.32574,130.6787,31,57,0
130.32574,130.6787,43,68,0
131.73752,132.09045,43,68,0
131.73752,132.09045,31,57,0
132.09045,132.44339,31,55,0
132.09045,132.44339,43,65,0
133.14928,133.50221,31,57,0
133.14928,133.50221,43,68,0
133.50221,133.85516,43,65,0
133.50221,133.85516,31,55,0
133.85516,133.93849,43,75,0
134.02182,134.10225,44,68,0
133.85516,134.18268,31,63,0
134.35123,134.44104,53,61,0
134.18268,134.53087,43,66,0
134.53087,134.8838,43,68,0
134.53087,134.8838,31,57,0
134.8838,135.23674,43,66,0
134.8838,135.23674,31,55,0
135.23674,135.40388,43,75,0
135.40388,135.56473,44,66,0
135.23674,135.56473,31,63,0
135.73422,135.81596,49,61,0
135.56473,135.89772,43,66,0
135.89772,136.2517,31,48,0
135.89772,136.2517,43,57,0
136.2517,136.60568,31,45,0
136.2517,136.60568,43,54,0
136.60568,136.95966,31,49,0
136.60568,136.95966,43,58,0
136.95966,137.31364,31,54,0
136.95966,137.31364,43,64,0
137.31364,137.39792,31,47,0
137.31364,137.39792,43,56,0
137.48218,137.5624,48,52,0
137.48218,137.5624,36,44,0
137.64261,137.72571,44,67,0
137.64261,137.72571,32,57,0
137.8088,137.8899,49,58,0
137.8088,137.8899,37,49,0
137.97098,138.05295,33,48,0
137.97098,138.05295,45,57,0
138.13492,138.21527,38,47,0
138.13492,138.21527,50,56,0
138.29549,138.38023,34,54,0
138.29549,138.38023,46,64,0
138.46498,138.5474,51,55,0
138.46498,138.5474,39,46,0
138.6298,138.71408,43,59,0
138.6298,138.71408,31,50,0
138.79836,138.87878,48,54,0
138.79836,138.87878,36,45,0
138.95921,139.04277,32,59,0
138.95921,139.04277,44,70,0
139.12634,139.20853,49,61,0
139.12634,139.20853,37,51,0
139.29073,139.37405,45,63,0
139.29073,139.37405,33,52,0
139.45738,139.53804,50,59,0
139.45738,139.53804,38,50,0
139.61868,139.70294,34,58,0
139.61868,139.70294,46,68,0
139.78722,139.86874,39,50,0
139.78722,139.86874,51,59,0
139.95026,140.03091,43,72,0
139.95026,140.03091,31,61,0
140.11156,140.18927,36,55,0
140.11156,140.18927,48,66,0
140.267,140.34785,32,58,0
140.267,140.34785,44,69,0
140.42871,140.50766,37,54,0
140.42871,140.50766,49,63,0
140.58661,140.66748,45,72,0
140.58661,140.66748,33,61,0
140.74834,140.82626,38,55,0
140.74834,140.82626,50,65,0
140.90417,140.9846,34,59,0
140.90417,140.9846,46,70,0
141.06503,141.14398,39,54,0
141.06503,141.14398,51,63,0
141.22293,141.30357,31,61,0
141.22293,141.30357,43,72,0
141.38423,141.46194,48,66,0
141.38423,141.46194,36,55,0
141.53966,141.62053,32,58,0
141.53966,141.62053,44,69,0
141.70139,141.78033,49,63,0
141.70139,141.78033,37,54,0
141.85928,141.94014,33,61,0
141.85928,141.94014,45,72,0
142.02101,142.09894,38,55,0
142.02101,142.09894,50,65,0
142.17685,142.25728,34,59,0
142.17685,142.25728,46,70,0
142.3377,142.41714,39,54,0
142.3377,142.41714,51,63,0
142.4961,142.5799,43,61,0
142.4961,142.5799,31,51,0
142.6637,142.74457,48,55,0
142.6637,142.74457,36,46,0
142.82478,142.90811,32,61,0
142.82478,142.90811,44,72,0
142.99146,143.0732,49,63,0
142.99146,143.0732,37,53,0
143.15494,143.23874,33,52,0
143.15494,143.23874,45,62,0
143.32254,143.40211,38,52,0
143.32254,143.40211,50,62,0
143.48169,143.56596,34,59,0
143.48169,143.56596,46,70,0
143.65022,143.73131,51,61,0
143.65022,143.73131,39,51,0
143.8124,143.8955,43,65,0
143.8124,143.8955,31,55,0
143.97859,144.05817,36,50,0
143.97859,144.05817,48,59,0
144.13774,144.22131,32,66,0
144.13774,144.22131,44,79,0
144.30487,144.38663,49,68,0
144.30487,144.38663,37,57,0
144.46837,144.55147,33,59,0
144.46837,144.55147,45,70,0
144.63457,144.7133,38,55,0
144.63457,144.7133,50,66,0
144.79205,144.87703,34,64,0
144.79205,144.87703,46,77,0
144.96202,145.04489,39,56,0
144.96202,145.04489,51,67,0
145.12776,145.29489,31,59,0
145.12776,145.29489,43,70,0
145.29489,145.46204,42,65,0
145.46204,145.62686,43,70,0
145.46204,145.62686,31,59,0
145.62686,145.7917,42,65,0
145.7917,145.95653,31,59,0
145.7917,145.95653,43,70,0
145.95653,146.12137,42,65,0
146.12137,146.28621,43,70,0
146.12137,146.28621,31,59,0
146.28621,146.45395,42,65,0
146.45395,146.62201,43,70,0
146.45395,146.62201,31,59,0
146.62201,146.79008,42,67,0
146.79008,146.96054,31,59,0
146.79008,146.96054,43,70,0
146.96054,147.131,42,67,0
147.131,147.3,48,72,0
147.131,147.3,36,61,0
147.3,147.46713,34,60,0
147.3,147.46713,46,71,0
147.46713,147.63426,45,70,0
147.46713,147.63426,33,59,0
147.63426,147.80556,32,58,0
147.63426,147.80556,44,69,0
147.80556,147.97314,31,59,0
147.80556,147.97314,43,70,0
147.97314,148.14075,42,65,0
148.14075,148.30559,43,70,0
148.14075,148.30559,31,59,0
148.30559,148.47041,42,65,0
148.47041,148.63525,43,70,0
148.47041,148.63525,31,59,0
148.63525,148.8001,42,65,0
148.8001,148.96492,31,59,0
148.8001,148.96492,43,70,0
148.96492,149.1328,42,65,0
149.1328,149.30086,31,59,0
149.1328,149.30086,43,70,0
149.30086,149.46893,42,67,0
149.46893,149.63939,31,59,0
149.46893,149.63939,43,70,0
149.63939,149.80984,42,67,0
149.80984,149.97885,48,72,0
149.80984,149.97885,36,61,0
149.97885,150.14693,35,60,0
149.97885,150.14693,47,71,0
150.14693,150.31499,34,59,0
150.14693,150.31499,46,70,0
150.31499,150.48804,33,58,0
150.31499,150.48804,45,69,0
150.82512,151.15938,60,59,0
150.82512,151.15938,48,50,0
151.15938,151.49364,36,54,0
151.15938,151.49364,48,63,0
151.49364,151.82791,48,50,0
151.49364,151.82791,60,60,0
150.48804,151.82791,66,70,0
152.15533,152.48412,43,50,0
152.15533,152.48412,55,59,0
152.48412,152.81471,31,54,0
152.48412,152.81471,43,63,0
152.81471,153.14804,43,50,0
152.81471,153.14804,55,60,0
151.82791,153.14804,70,70,0
153.48512,153.81938,48,50,0
153.48512,153.81938,60,59,0
153.81938,154.15364,48,63,0
153.81938,154.15364,36,54,0
154.15364,154.48792,48,50,0
154.15364,154.48792,60,60,0
153.14804,154.48792,66,70,0
154.82217,155.14922,55,59,0
154.82217,155.14922,43,50,0
155.14922,155.47798,31,54,0
155.14922,155.47798,43,63,0
155.47798,155.80678,55,60,0
155.47798,155.80678,43,50,0
154.48792,155.80678,70,70,0
156.14386,156.47812,45,50,0
156.14386,156.47812,57,59,0
156.47812,156.81238,45,63,0
156.47812,156.81238,33,54,0
156.81238,157.14664,57,60,0
156.81238,157.14664,45,50,0
155.80678,157.14664,66,70,0
157.47588,157.80466,40,50,0
157.47588,157.80466,52,59,0
157.80466,158.13257,40,63,0
157.80466,158.13257,28,54,0
158.13257,158.46407,52,60,0
158.13257,158.46407,40,50,0
157.14664,158.46407,70,70,0
158.80115,159.1354,57,59,0
158.80115,159.1354,45,50,0
159.1354,159.46967,33,54,0
159.1354,159.46967,45,63,0
159.46967,159.80392,57,60,0
159.46967,159.80392,45,50,0
158.46407,159.80392,66,70,0
160.13542,160.46196,52,59,0
160.13542,160.46196,40,50,0
160.46196,160.79716,40,63,0
160.46196,160.79716,28,54,0
160.79716,161.13425,52,60,0
160.79716,161.13425,40,50,0
159.80392,161.13425,72,70,0
161.13425,161.30421,43,68,0
161.13425,161.30421,31,57,0
161.47418,161.63857,79,66,0
161.63857,161.8057,74,60,0
161.8057,161.97054,75,65,0
161.97054,162.13814,74,60,0
162.13814,162.30296,70,65,0
162.30296,162.47057,67,60,0
162.47057,162.63405,68,64,0
162.63405,162.80165,75,58,0
162.80165,162.96693,71,62,0
162.96693,163.13788,75,58,0
163.13788,163.3154,74,63,0
163.4929,163.67043,67,61,0
163.84795,164.18788,55,57,0
163.84795,164.18788,67,68,0
164.18788,164.35004,55,55,0
164.18788,164.35004,67,66,0
164.35004,164.51718,62,60,0
164.35004,164.51718,50,50,0
164.51718,164.682,63,65,0
164.51718,164.682,51,55,0
164.682,164.84961,62,60,0
164.682,164.84961,50,50,0
164.84961,165.01445,46,55,0
164.84961,165.01445,58,65,0
165.01445,165.18204,43,50,0
165.01445,165.18204,55,60,0
165.18204,165.34554,44,54,0
165.18204,165.34554,56,64,0
165.34554,165.51312,63,58,0
165.34554,165.51312,51,49,0
165.51312,165.67842,59,62,0
165.51312,165.67842,47,52,0
165.67842,165.84935,51,58,0
165.67842,165.84935,63,58,0
165.84935,166.02846,50,54,0
165.84935,166.02846,62,63,0
166.20757,166.38667,55,61,0
166.20757,166.38667,43,51,0
166.56578,166.90572,43,57,0
166.56578,166.90572,55,68,0
166.90572,167.0701,43,55,0
166.90572,167.0701,55,66,0
167.0701,167.23723,50,60,0
167.0701,167.23723,38,50,0
167.23723,167.40117,51,65,0
167.23723,167.40117,39,55,0
167.40117,167.56877,38,50,0
167.40117,167.56877,50,60,0
167.56877,167.7336,34,55,0
167.56877,167.7336,46,65,0
167.7336,167.9012,31,50,0
167.7336,167.9012,43,60,0
168.25623,168.42061,43,55,0
167.9012,168.42061,30,59,0
167.9012,168.42061,42,70,0
168.25623,168.42061,55,66,0
168.42061,168.58774,50,60,0
168.42061,168.58774,38,50,0
168.58774,168.75258,39,55,0
168.58774,168.75258,51,65,0
168.75258,168.92018,38,50,0
168.75258,168.92018,50,60,0
168.92018,169.08731,46,65,0
168.92018,169.08731,34,55,0
169.08731,169.25873,43,60,0
169.08731,169.25873,31,50,0
169.61064,169.77502,43,55,0
169.25873,169.77502,41,70,0
169.25873,169.77502,29,59,0
169.61064,169.77502,55,66,0
169.77502,169.94215,38,50,0
169.77502,169.94215,50,60,0
169.94215,170.107,51,65,0
169.94215,170.107,39,55,0
170.107,170.27458,38,50,0
170.107,170.27458,50,60,0
170.27458,170.44266,46,65,0
170.27458,170.44266,34,55,0
170.44266,170.61507,43,60,0
170.44266,170.61507,31,50,0
170.96906,171.13344,43,55,0
170.61507,171.13344,28,59,0
170.61507,171.13344,40,70,0
170.96906,171.13344,55,66,0
171.13344,171.30057,50,60,0
171.13344,171.30057,38,50,0
171.30057,171.4654,51,65,0
171.30057,171.4654,39,55,0
171.4654,171.633,50,60,0
171.4654,171.633,38,50,0
171.633,171.80107,34,55,0
171.633,171.80107,46,65,0
171.80107,171.97348,31,50,0
171.80107,171.97348,43,60,0
171.97348,172.3317,39,70,0
171.97348,172.3317,27,59,0
172.3317,172.50166,26,59,0
172.3317,172.50166,38,70,0
173.01158,173.18155,56,61,0
172.67163,173.18155,35,59,0
172.67163,173.18155,47,70,0
173.01158,173.18155,68,72,0
173.35152,173.43651,91,76,0
173.52148,173.60648,86,69,0
173.69147,173.77644,87,73,0
173.861,173.9455,83,70,0
174.03001,174.11452,84,73,0
174.19902,174.28331,79,69,0
174.36758,174.45184,80,72,0
174.53612,174.62039,74,70,0
174.70444,174.78824,75,76,0
174.87204,174.95584,71,66,0
175.03964,175.12344,72,72,0
175.20723,175.29103,67,66,0
175.37483,175.45863,68,72,0
175.54243,175.62624,62,67,0
175.71004,175.79382,63,72,0
175.87762,175.96143,59,67,0
176.04523,176.12856,60,76,0
176.2119,176.29523,55,67,0
176.37856,176.4619,56,73,0
176.54507,176.62817,50,67,0
176.71127,176.79437,51,73,0
176.87749,176.96051,47,70,0
177.04338,177.12625,48,74,0
177.20912,177.292,43,68,0
177.37488,177.45752,44,72,0
177.54016,177.6228,38,66,0
177.70546,177.7881,39,71,0
177.87074,177.95338,35,64,0
178.03603,178.11868,36,66,0
178.20132,178.28397,31,60,0
178.36661,178.44925,32,67,0
178.5319,178.61455,31,61,0
178.69742,178.78075,32,66,0
178.86424,178.94788,31,63,0
179.03168,179.11563,35,71,0
179.19975,179.28403,31,60,0
179.36853,179.45303,32,67,0
179.53691,179.62056,31,61,0
179.70436,179.78831,35,73,0
179.87242,179.9567,31,63,0
180.04128,180.12587,32,72,0
180.21037,180.29488,31,67,0
180.37938,180.46373,32,70,0
180.548,180.63228,34,66,0
180.71654,180.80066,35,72,0
180.88469,180.96872,38,66,0
181.05276,181.13663,39,69,0
181.22043,181.30423,41,73,0
181.38803,181.47168,43,72,0
181.38803,181.47168,31,61,0
181.55524,181.63881,32,57,0
181.55524,181.63881,44,68,0
181.72237,181.80579,34,58,0
181.72237,181.80579,46,69,0
181.88911,181.97244,35,59,0
181.88911,181.97244,47,70,0
182.05579,182.13896,50,76,0
182.05579,182.13896,38,64,0
182.22206,182.30516,51,70,0
182.22206,182.30516,39,59,0
182.38828,182.47122,53,70,0
182.38828,182.47122,41,59,0
182.5541,182.63696,43,59,0
182.5541,182.63696,55,70,0
182.71983,182.80255,56,76,0
182.71983,182.80255,44,64,0
182.88521,182.96785,46,59,0
182.88521,182.96785,58,70,0
183.05049,183.13298,59,70,0
183.05049,183.13298,47,59,0
183.21541,183.29782,50,59,0
183.21541,183.29782,62,70,0
183.38023,183.46243,63,78,0
183.38023,183.46243,51,65,0
183.54462,183.62682,65,71,0
183.54462,183.62682,53,60,0
183.709,183.7912,67,72,0
183.709,183.7912,55,61,0
183.87338,183.95558,56,61,0
183.87338,183.95558,68,72,0
184.03777,184.11996,59,67,0
184.03777,184.11996,71,80,0
184.20215,184.28435,62,72,0
184.36655,184.44873,63,72,0
184.53093,184.61311,65,72,0
184.69531,184.7775,67,81,0
184.8597,184.94188,68,74,0
185.02408,185.10626,70,74,0
185.18846,185.27065,71,74,0
185.35277,185.43474,74,81,0
185.51692,185.59933,75,75,0
185.68192,185.76471,77,76,0
185.84766,185.93083,79,77,0
186.01425,186.09805,75,85,0
186.18184,186.26564,77,75,0
186.34944,186.43324,71,81,0
186.51704,186.60085,74,74,0
186.68465,186.76843,75,83,0
186.85223,186.93604,77,74,0
187.01984,187.10364,71,79,0
187.18744,187.27122,74,75,0
187.35503,187.43883,75,79,0
187.35503,187.43883,63,74,0
187.52263,187.60643,65,69,0
187.52263,187.60643,77,73,0
187.69023,187.77333,53,53,0
187.69023,187.77333,65,67,0
187.85658,187.94,66,65,0
187.85658,187.94,54,52,0
188.02356,188.10736,67,69,0
188.02356,188.10736,55,54,0
188.19131,188.27544,68,67,0
188.19131,188.27544,56,63,0
188.35977,188.44429,69,68,0
188.35977,188.44429,57,64,0
188.52904,188.61394,58,65,0
188.52904,188.61394,70,69,0
188.699,188.78423,71,69,0
188.699,188.78423,59,65,0
188.8697,188.95541,72,70,0
188.8697,188.95541,60,66,0
189.04129,189.12733,61,67,0
189.04129,189.12733,73,71,0
189.21355,189.3,62,67,0
189.21355,189.3,74,71,0
189.38661,189.4734,75,72,0
189.38661,189.4734,63,68,0
189.56046,189.64766,65,68,0
189.56046,189.64766,77,72,0
189.73512,189.82275,78,73,0
189.73512,189.82275,66,69,0
189.91055,189.99854,79,73,0
189.91055,189.99854,67,69,0
190.37387,191.795,55,72,0
190.16765,191.795,43,96,0
190.37387,191.795,46,62,0
190.37387,191.795,51,62,0
191.97728,193.49529,53,68,0
191.795,193.49529,41,87,0
191.97728,193.49529,46,57,0
191.97728,193.49529,50,57,0
193.66385,194.51431,51,72,0
193.66385,194.51431,46,62,0
193.49529,194.51431,39,87,0
193.66385,194.51431,43,62,0
194.51431,195.2116,48,68,0
194.36366,195.2116,36,81,0
194.51431,195.2116,39,57,0
194.51431,195.2116,43,57,0
195.33069,196.1403,50,65,0
195.2116,196.1403,38,82,0
195.33069,196.1403,41,54,0
195.33069,196.1403,46,54,0
196.1403,196.84871,46,66,0
196.99799,197.79062,51,68,0
196.99799,197.79062,46,57,0
196.84871,197.79062,39,87,0
197.79062,198.18536,50,72,0
197.79062,198.18536,38,62,0
198.18536,198.58403,48,72,0
198.18536,198.58403,36,62,0
197.79062,198.58403,46,72,0
198.58403,199.38138,46,65,0
198.58403,199.38138,41,54,0
198.58403,199.38138,34,54,0
199.38138,200.07904,43,48,0
199.38138,200.07904,39,48,0
199.38138,200.07904,31,41,0
200.22902,201.02165,51,68,0
200.22902,201.02165,46,57,0
200.07904,201.02165,39,87,0
201.02165,201.41638,50,72,0
201.02165,201.41638,38,62,0
201.41638,201.81505,48,72,0
201.41638,201.81505,36,62,0
201.02165,201.81505,46,72,0
201.81505,202.6124,46,65,0
201.81505,202.6124,41,54,0
201.81505,202.6124,34,54,0
202.6124,203.40974,43,48,0
202.6124,203.40974,39,48,0
202.6124,203.40974,31,42,0
203.57733,204.99846,55,72,0
203.40974,204.99846,43,86,0
203.57733,204.99846,46,62,0
203.57733,204.99846,51,62,0
205.16513,206.68314,53,68,0
204.99846,206.68314,41,87,0
205.16513,206.68314,46,57,0
205.16513,206.68314,50,57,0
206.85172,207.70216,51,72,0
206.85172,207.70216,46,62,0
206.68314,207.70216,39,87,0
206.85172,207.70216,43,62,0
207.70216,208.39944,48,68,0
207.55151,208.39944,36,81,0
207.70216,208.39944,39,57,0
207.70216,208.39944,43,57,0
208.51854,209.32816,50,54,0
208.39944,209.32816,38,82,0
208.51854,209.32816,41,54,0
208.51854,209.32816,46,54,0
209.32816,210.14818,46,70,0
210.14818,210.55634,48,51,0
210.14818,210.55634,60,63,0
210.55634,210.96451,48,49,0
210.55634,210.96451,60,59,0
210.14818,210.96451,56,63,0
210.96451,211.3644,46,46,0
210.96451,211.3644,58,54,0
211.3644,211.76439,43,44,0
211.3644,211.76439,55,51,0
210.96451,211.76439,51,63,0
211.76439,212.1644,56,59,0
211.76439,212.1644,44,52,0
212.1644,212.5698,44,39,0
212.1644,212.5698,56,51,0
212.5698,212.9752,41,41,0
212.5698,212.9752,53,53,0
212.9752,213.38062,56,51,0
212.9752,213.38062,44,39,0
211.76439,213.38062,51,51,0
213.38062,214.19142,55,65,0
213.38062,214.19142,43,54,0
214.19142,214.60098,53,60,0
214.19142,214.60098,41,50,0
213.38062,214.60098,51,56,0
214.60098,215.02055,51,62,0
214.60098,215.02055,39,51,0
215.02055,216.69888,60,62,0
215.02055,216.69888,56,51,0
215.02055,216.69888,53,51,0
216.69888,217.53804,58,64,0
216.69888,217.53804,50,53,0
216.69888,217.53804,53,53,0
216.69888,217.53804,62,64,0
217.53804,218.27231,48,49,0
217.53804,218.27231,55,49,0
217.53804,218.27231,63,59,0
218.27231,218.4223,32,72,0
218.4223,218.83467,48,56,0
218.4223,218.83467,60,67,0
218.83467,219.24704,48,51,0
218.83467,219.24704,60,63,0
219.24704,219.65382,46,50,0
219.24704,219.65382,58,60,0
219.65382,220.07635,44,48,0
219.65382,220.07635,56,57,0
219.24704,220.07635,51,45,0
220.07635,220.89548,55,63,0
220.07635,220.89548,43,52,0
220.89548,221.3107,53,63,0
220.89548,221.3107,41,52,0
220.07635,221.3107,51,54,0
221.3107,221.73027,51,65,0
221.3107,221.73027,39,54,0
221.73027,223.4086,56,68,0
221.73027,223.4086,44,56,0
223.4086,225.08691,55,71,0
223.4086,225.08691,43,60,0
225.30121,226.72232,55,76,0
225.08691,226.72232,39,90,0
225.30121,226.72232,43,63,0
225.08691,226.72232,27,85,0
225.30121,226.72232,51,76,0
225.30121,226.72232,46,63,0
226.92233,228.44034,53,71,0
226.72232,228.44034,39,90,0
226.92233,228.44034,41,62,0
226.72232,228.44034,27,76,0
226.92233,228.44034,50,62,0
226.92233,228.44034,46,62,0
228.6089,229.45937,51,76,0
228.6089,229.45937,43,63,0
228.44034,229.45937,29,84,0
228.6089,229.45937,39,63,0
228.6089,229.45937,46,76,0
229.45937,230.27856,48,71,0
229.45937,230.27856,36,62,0
229.45937,230.27856,39,62,0
229.45937,230.27856,43,71,0
230.27856,231.08817,50,68,0
230.27856,231.08817,38,57,0
230.27856,231.08817,41,57,0
230.27856,231.08817,46,68,0
231.08817,231.79659,46,72,0
231.08817,231.79659,34,63,0
231.96324,232.75587,46,71,0
231.96324,232.75587,43,71,0
231.96324,232.75587,55,71,0
232.75587,233.15062,50,75,0
232.75587,233.15062,38,63,0
233.15062,233.54929,48,75,0
232.75587,233.54929,46,75,0
233.15062,233.54929,36,63,0
233.54929,234.34663,46,62,0
233.54929,234.34663,34,50,0
233.54929,234.34663,43,62,0
234.34663,235.0443,50,54,0
234.34663,235.0443,38,45,0
231.79659,235.0443,27,76,0
231.79659,235.0443,39,90,0
234.34663,235.0443,46,54,0
235.23064,236.02327,51,71,0
235.23064,236.02327,46,71,0
236.02327,236.418,50,75,0
236.02327,236.418,38,63,0
236.418,236.81668,48,75,0
236.02327,236.81668,46,75,0
236.418,236.81668,36,63,0
236.81668,237.61401,46,68,0
236.81668,237.61401,34,56,0
236.81668,237.61401,43,68,0
237.61401,238.43034,50,52,0
237.61401,238.43034,38,45,0
235.0443,238.43034,27,76,0
235.0443,238.43034,39,81,0
237.61401,238.43034,46,52,0
238.43034,240.00356,44,50,0
238.43034,240.00356,51,50,0
240.00356,240.75104,51,42,0
240.00356,240.75104,44,42,0
240.75104,241.48372,56,41,0
240.75104,241.48372,47,41,0
241.48372,242.21642,56,43,0
241.48372,242.21642,49,43,0
242.21642,242.94193,59,43,0
242.21642,242.94193,47,43,0
242.94193,244.41704,59,45,0
242.94193,244.41704,52,45,0
244.41704,245.89215,59,43,0
245.89215,246.6153,56,43,0
245.89215,246.6153,59,43,0
246.6153,247.33846,54,44,0
246.6153,247.33846,61,44,0
247.33846,248.05925,64,46,0
247.33846,248.05925,52,46,0
248.05925,248.78954,64,43,0
248.05925,248.78954,52,43,0
248.78954,249.5057,64,45,0
248.78954,249.5057,57,45,0
249.5057,250.23122,64,46,0
249.5057,250.23122,52,46,0
250.23122,251.6729,57,47,0
250.23122,251.6729,64,47,0
251.6729,252.3822,59,52,0
251.6729,252.3822,62,52,0
252.3822,253.10068,57,49,0
252.3822,253.10068,64,49,0
253.10068,254.53763,64,47,0
253.10068,254.53763,52,47,0
254.53763,255.2561,61,48,0
254.53763,255.2561,57,48,0
255.2561,255.97925,59,47,0
255.2561,255.97925,52,47,0
255.97925,256.7024,54,45,0
255.97925,256.7024,57,45,0
256.7024,257.42557,56,41,0
256.7024,257.42557,49,41,0
257.42557,258.88135,54,47,0
257.42557,258.88135,51,47,0
258.88135,260.39047,56,43,0
258.88135,260.39047,52,43,0
260.39047,261.92688,44,39,0
260.39047,261.92688,51,39,0
261.92688,262.71378,51,36,0
261.92688,262.71378,44,36,0
262.71378,263.40228,51,34,0
262.71378,263.40228,44,34,0
263.53394,264.89072,51,88,0
263.40228,264.89072,39,81,0
263.53394,264.89072,43,72,0
263.53394,264.89072,46,72,0
264.99686,266.36118,53,86,0
264.89072,266.36118,41,75,0
264.99686,266.36118,46,70,0
264.99686,266.36118,50,70,0
266.46542,267.11157,55,87,0
266.36118,267.11157,43,80,0
266.46542,267.11157,46,70,0
266.46542,267.11157,51,70,0
267.21234,267.48862,51,82,0
267.21234,267.48862,46,67,0
267.11157,267.48862,39,66,0
267.5807,267.8587,55,80,0
267.5807,267.8587,46,64,0
267.48862,267.8587,43,63,0
267.95663,268.61334,53,79,0
267.95663,268.61334,46,63,0
267.8587,268.61334,41,63,0
268.71265,269.465,46,71,0
268.71265,269.465,38,59,0
268.61334,269.465,34,54,0
269.465,269.8302,55,82,0
269.465,269.8302,46,67,0
269.465,269.8302,43,67,0
269.8302,270.1998,58,76,0
269.8302,270.1998,46,63,0
269.8302,270.1998,51,63,0
270.1998,270.56573,53,81,0
270.1998,270.56573,41,65,0
270.56573,270.84293,51,79,0
270.56573,270.84293,39,63,0
270.1998,270.84293,46,65,0
270.9499,271.59012,50,79,0
270.9499,271.59012,46,63,0
270.84293,271.59012,38,63,0
271.69708,272.4333,46,68,0
271.69708,272.4333,43,54,0
271.59012,272.4333,34,54,0
272.4333,272.79474,55,82,0
272.4333,272.79474,43,67,0
272.79474,273.1628,58,76,0
272.79474,273.1628,46,63,0
272.4333,273.1628,51,67,0
273.1628,273.52536,53,81,0
273.1628,273.52536,41,65,0
273.52536,273.80255,51,79,0
273.52536,273.80255,39,63,0
273.1628,273.80255,46,65,0
273.9079,274.5547,50,79,0
273.9079,274.5547,46,63,0
273.80255,274.5547,38,64,0
274.66125,275.4078,46,68,0
274.5547,275.4078,34,54,0
274.66125,275.4078,43,54,0
275.40704,275.59177,63,72,0
275.4078,275.59253,75,82,0
275.59177,275.77664,62,68,0
275.59253,275.77744,74,75,0
275.77744,275.96265,72,82,0
275.77975,275.96497,60,72,0
275.96112,276.14587,58,67,0
275.96265,276.1474,70,73,0
276.1474,276.33237,68,82,0
276.1474,276.33237,56,72,0
276.33087,276.51566,55,67,0
276.33237,276.5172,67,73,0
276.5172,276.70245,65,82,0
276.51877,276.70398,53,82,0
276.7009,276.88962,51,66,0
276.70245,276.89117,63,72,0
276.88962,277.07556,50,72,0
276.89117,277.07712,62,82,0
277.07712,277.26312,60,72,0
277.07944,277.26544,48,65,0
277.26233,277.44763,46,72,0
277.26312,277.4484,58,82,0
277.44763,277.63333,44,68,0
277.4484,277.63412,56,75,0
277.63412,277.81967,55,82,0
277.6349,277.82043,43,72,0
277.81967,278.00577,53,73,0
277.8212,278.0073,41,67,0
278.00577,278.1916,51,82,0
278.0081,278.1939,39,72,0
278.1916,278.38052,50,72,0
278.19315,278.38208,38,66,0
278.38052,278.56424,48,82,0
278.38052,278.56424,36,82,0
278.56348,278.74728,34,65,0
278.56424,278.74808,46,72,0
278.74808,278.93198,44,76,0
278.7496,278.9335,32,68,0
278.93198,279.11588,43,68,0
278.93198,279.11588,31,60,0
279.11588,279.29953,41,73,0
279.11588,279.29953,29,67,0
279.29953,279.48315,39,65,0
279.30182,279.48547,27,57,0
279.48315,279.66797,38,72,0
279.48468,279.6695,26,66,0
279.6664,279.85373,24,56,0
279.66797,279.85532,36,63,0
279.85532,280.04236,38,66,0
279.85608,280.04315,26,57,0
280.04236,280.22943,39,59,0
280.04236,280.22943,27,51,0
280.22943,280.4165,41,67,0
280.231,280.41806,29,59,0
280.4165,280.60358,43,62,0
280.4173,280.60434,31,54,0
280.60358,280.79065,45,68,0
280.60434,280.7914,33,60,0
280.79065,280.97772,46,63,0
280.79065,280.97772,34,56,0
280.97614,281.168,36,62,0
280.97772,281.1696,48,70,0
281.1688,281.3607,38,57,0
281.1696,281.36148,50,66,0
281.36148,281.5501,51,70,0
281.36148,281.5501,39,62,0
281.5501,281.73874,53,67,0
281.5517,281.74033,41,59,0
281.73874,281.92737,55,72,0
281.73953,281.92816,43,66,0
281.92737,282.11603,56,67,0
281.92975,282.11832,44,59,0
282.11603,282.30078,58,76,0
282.11755,282.3023,46,68,0
282.30078,282.48563,60,70,0
282.30078,282.48563,48,70,0
282.48486,282.6697,50,72,0
282.48563,282.67047,62,81,0
282.67047,282.85532,58,76,0
282.67123,282.8561,46,68,0
282.85532,283.0402,56,80,0
282.85532,283.0402,44,71,0
283.03864,283.2235,43,68,0
283.0402,283.22504,55,75,0
283.22504,283.41238,53,75,0
283.2266,283.41394,41,68,0
283.41238,283.59973,51,72,0
283.41318,283.60052,39,63,0
283.59818,283.78552,38,67,0
283.59973,283.78708,50,73,0
283.78708,283.97443,48,68,0
283.78943,283.97678,36,60,0
283.97287,284.16022,34,66,0
283.97443,284.16177,46,72,0
284.16177,284.34912,44,59,0
284.16412,284.35147,32,59,0
284.34912,284.53647,43,72,0
284.35068,284.53802,31,65,0
284.5357,284.72305,29,57,0
284.53647,284.72382,41,65,0
284.72382,284.91116,39,72,0
284.72382,284.91116,27,65,0
284.9096,285.09695,26,57,0
284.91116,285.0985,38,66,0
285.0985,285.28778,39,72,0
285.1009,285.29016,27,63,0
285.28778,285.47708,40,66,0
285.28937,285.4787,28,57,0
285.4755,285.66934,29,62,0
285.47708,285.67096,41,70,0
285.67096,285.8625,43,65,0
285.6734,285.86475,31,57,0
285.8625,286.0424,44,67,0
285.86398,286.0439,32,59,0
286.0424,286.2234,46,63,0
286.04315,286.22415,34,56,0
286.22263,286.40472,36,70,0
286.2234,286.4055,48,70,0
286.40472,286.58792,38,65,0
286.4055,286.58868,50,65,0
286.58868,286.77274,51,72,0
286.59024,286.7743,39,65,0
286.77274,286.9568,53,66,0
286.77274,286.9568,41,57,0
286.95526,287.1393,43,68,0
286.9568,287.14084,55,75,0
287.14084,287.3249,56,68,0
287.1416,287.32565,44,60,0
287.3249,287.50894,58,79,0
287.32642,287.51047,46,70,0
287.50894,287.693,60,72,0
287.50894,287.693,48,63,0
287.69223,287.87628,50,72,0
287.693,287.87704,62,81,0
287.87704,288.0611,63,72,0
287.8778,288.06186,51,66,0
288.0611,288.24515,65,84,0
288.06262,288.24667,53,73,0
288.24515,288.4292,67,75,0
288.24667,288.43073,55,68,0
288.4292,288.61325,68,88,0
288.43073,288.61478,56,79,0
288.61325,288.85602,70,81,0
288.61325,288.85602,58,72,0
288.85602,290.3492,51,59,0
288.85602,290.3492,58,59,0
290.3492,291.08865,58,54,0
290.3492,291.08865,51,54,0
291.08865,291.81348,63,52,0
291.08865,291.81348,54,52,0
291.81348,292.5383,63,54,0
291.81348,292.5383,56,54,0
292.5383,293.25598,66,54,0
292.5383,293.25598,54,54,0
293.25598,294.7152,66,54,0
293.25598,294.7152,59,54,0
294.7152,296.17447,66,54,0
296.17447,296.8898,63,52,0
296.17447,296.8898,66,52,0
296.8898,297.60516,61,54,0
296.8898,297.60516,68,54,0
297.60516,298.31818,71,57,0
297.60516,298.31818,59,57,0
298.31818,299.04062,71,52,0
298.31818,299.04062,59,52,0
299.04062,299.74905,71,54,0
299.04062,299.74905,64,54,0
299.74905,300.46677,71,57,0
299.74905,300.46677,59,57,0
300.46677,301.89288,64,59,0
300.46677,301.89288,71,59,0
301.89288,302.59454,66,63,0
301.89288,302.59454,69,63,0
302.59454,303.3053,64,59,0
302.59454,303.3053,71,59,0
303.3053,304.72675,71,56,0
303.3053,304.72675,59,56,0
304.72675,305.43747,68,54,0
304.72675,305.43747,64,54,0
305.43747,306.15283,66,53,0
305.43747,306.15283,59,53,0
306.15283,306.8682,61,50,0
306.15283,306.8682,64,50,0
306.8682,307.58353,63,45,0
306.8682,307.58353,56,45,0
307.58353,309.0236,61,51,0
307.58353,309.0236,58,51,0
309.0236,310.51648,63,45,0
309.0236,310.51648,59,45,0
310.51648,312.03635,51,41,0
310.51648,312.03635,58,41,0
312.03635,312.81476,58,37,0
312.03635,312.81476,51,37,0
312.81476,313.59317,58,34,0
312.81476,313.59317,51,34,0
314.37747,315.1467,44,79,0
313.59317,315.1467,59,71,0
315.92593,316.69516,35,79,0
315.1467,316.69516,56,71,0
317.47437,318.2436,44,77,0
316.69516,318.2436,59,71,0
319.0178,319.78702,35,79,0
318.2436,319.78702,56,71,0
320.5143,321.24158,44,80,0
319.78702,321.24158,63,71,0
319.78702,321.24158,59,71,0
319.78702,321.24158,53,71,0
321.96884,322.6961,35,71,0
321.24158,322.6961,52,71,0
321.24158,322.6961,63,71,0
321.24158,322.6961,56,71,0
323.4234,324.15067,44,84,0
322.6961,324.15067,53,71,0
322.6961,324.15067,59,71,0
322.6961,324.15067,63,71,0
324.87793,325.6052,35,73,0
324.15067,325.6052,52,71,0
324.15067,325.6052,63,71,0
324.15067,325.6052,56,71,0
326.3292,327.0435,44,82,0
325.6052,327.0435,53,71,0
325.6052,327.0435,59,71,0
325.6052,327.0435,63,71,0
327.7675,328.48178,35,75,0
327.0435,328.48178,52,71,0
327.0435,328.48178,63,71,0
327.0435,328.48178,56,71,0
329.20468,329.91898,44,82,0
328.48178,329.91898,53,72,0
328.48178,329.91898,59,72,0
328.48178,329.91898,63,72,0
330.64188,331.35406,35,75,0
329.91898,331.35406,52,73,0
329.91898,331.35406,63,73,0
329.91898,331.35406,56,73,0
332.07697,332.79126,34,77,0
331.35406,332.79126,63,80,0
333.5142,334.22845,34,76,0
332.79126,334.22845,63,77,0
334.9514,335.66354,34,77,0
334.22845,335.66354,63,79,0
336.38647,337.10287,34,77,0
335.66354,337.10287,63,81,0
337.8258,338.54437,34,80,0
337.10287,338.54437,63,82,0
339.27164,339.99347,34,79,0
338.54437,339.99347,63,82,0
340.72073,341.4393,34,80,0
339.99347,341.4393,63,82,0
342.1666,342.89832,34,80,0
341.4393,342.89832,63,82,0
342.89832,344.36172,63,82,0
344.36172,345.80963,34,85,0
346.5282,347.2522,34,83,0
345.80963,347.2522,63,89,0
347.9795,348.70422,34,83,0
347.2522,348.70422,63,89,0
348.70422,349.4263,63,87,0
349.4263,350.14505,34,83,0
350.14505,350.8564,63,90,0
350.8564,351.5611,34,83,0
351.5611,352.82455,70,82,0
351.5611,352.82455,63,59,0
351.5611,352.82455,58,59,0
351.5611,352.82455,65,59,0
352.2836,353.0049,39,82,0
352.2836,353.0049,27,65,0
353.0049,354.2687,70,84,0
353.0049,354.2687,65,60,0
353.0049,354.2687,58,60,0
353.0049,354.2687,63,60,0
353.7271,354.4492,39,86,0
353.7271,354.4492,27,68,0
354.4492,355.7241,70,87,0
354.4492,355.7241,65,62,0
354.4492,355.7241,58,62,0
354.4492,355.7241,63,62,0
355.17484,355.90814,39,89,0
355.17484,355.90814,27,70,0
355.90814,357.21088,70,90,0
355.90814,357.21088,65,64,0
355.90814,357.21088,58,64,0
355.90814,357.21088,63,64,0
356.64954,357.41858,39,91,0
356.64954,357.41858,27,72,0
357.41705,357.50772,92,68,0
357.50922,357.59998,91,60,0
357.6022,357.6933,89,64,0
357.68948,357.7798,87,59,0
357.78207,357.87222,86,63,0
357.87222,357.96268,84,57,0
357.96194,358.05225,82,63,0
358.05075,358.1404,80,57,0
358.1441,358.23343,79,63,0
358.23343,358.32214,77,57,0
358.32065,358.4104,75,63,0
358.40964,358.498,74,56,0
358.498,358.58694,72,62,0
358.58694,358.6752,70,54,0
358.67743,358.76572,68,62,0
358.76282,358.8504,67,54,0
358.85114,358.93912,65,61,0
358.9384,359.0261,63,54,0
359.02902,359.11624,62,61,0
359.11334,359.2001,60,54,0
359.20224,359.28873,58,61,0
359.288,359.37463,56,54,0
359.3732,359.45966,55,61,0
359.46182,359.5475,53,54,0
359.5482,359.63483,51,61,0
359.63266,359.71838,50,54,0
359.71912,359.8051,48,61,0
359.80655,359.8918,46,54,0
359.88828,359.97348,44,57,0
359.97705,360.06226,43,53,0
360.06085,360.14594,41,59,0
360.14383,360.22842,39,59,0
360.23056,360.31503,38,61,0
360.31503,360.39902,36,54,0
360.39902,360.48328,34,62,0
360.48187,360.56473,32,57,0
360.56747,360.65054,31,63,0
360.64703,360.73044,29,54,0
360.73044,360.8152,27,63,0
360.818,360.90195,26,63,0
360.89984,360.9853,24,57,0
363.3624,363.7186,43,80,0
363.3624,363.7186,31,65,0
363.3624,363.7186,34,65,0
363.3624,363.7186,39,80,0
363.72195,364.0448,55,73,0
363.72195,364.0448,51,64,0
364.04785,364.36237,43,82,0
364.04785,364.36237,31,69,0
364.36533,364.6869,55,65,0
364.36533,364.6869,51,53,0
364.68997,365.00763,43,79,0
364.68997,365.00763,31,66,0
364.68997,365.00763,34,66,0
364.68997,365.00763,39,79,0
365.01065,365.3641,55,67,0
365.01065,365.3641,51,54,0
365.36743,365.68408,41,78,0
365.36743,365.68408,29,63,0
365.36743,365.68408,34,63,0
365.36743,365.68408,38,63,0
365.68716,366.00546,53,50,0
365.68716,366.00546,50,50,0
365.68716,366.00546,58,63,0
366.00845,366.3133,41,72,0
366.00845,366.3133,29,61,0
366.31616,366.63193,53,65,0
366.31616,366.63193,50,52,0
366.31616,366.63193,58,65,0
366.63492,366.9457,41,70,0
366.63492,366.9457,29,59,0
366.63492,366.9457,34,59,0
366.63492,366.9457,38,70,0
366.94864,367.29474,53,54,0
366.94864,367.29474,50,54,0
366.94864,367.29474,58,65,0
367.29803,367.63547,39,77,0
367.29803,367.63547,27,63,0
367.29803,367.63547,31,63,0
367.29803,367.63547,34,77,0
367.63864,367.96295,58,56,0
367.63864,367.96295,55,56,0
367.63864,367.96295,63,69,0
367.966,368.28293,39,86,0
367.966,368.28293,27,72,0
368.28592,368.61148,39,69,0
368.28592,368.61148,48,81,0
368.28592,368.61148,43,81,0
368.28592,368.61148,36,69,0
368.61456,368.94012,55,56,0
368.61456,368.94012,51,56,0
368.61456,368.94012,60,69,0
368.9432,369.26877,51,71,0
368.9432,369.26877,39,56,0
369.27185,369.59744,41,65,0
369.27185,369.59744,50,76,0
369.27185,369.59744,46,76,0
369.27185,369.59744,38,65,0
369.60052,369.91562,53,63,0
369.60052,369.91562,50,63,0
369.92163,370.23553,58,64,0
369.92163,370.23553,53,64,0
370.24155,370.55426,62,67,0
370.24155,370.55426,58,67,0
370.56024,370.87177,62,68,0
370.56024,370.87177,65,68,0
370.87772,371.188,70,70,0
370.87772,371.188,65,70,0
371.19388,371.68945,51,77,0
371.19388,371.68945,46,77,0
371.19388,371.68945,39,65,0
371.69467,372.19025,55,70,0
371.69467,372.19025,51,70,0
371.69467,372.19025,43,57,0
372.19547,372.68332,43,66,0
372.19547,372.68332,50,66,0
372.19547,372.68332,38,54,0
372.68845,373.18402,48,72,0
372.68845,373.18402,43,72,0
372.68845,373.18402,36,51,0
373.18924,373.51996,43,75,0
373.18924,373.51996,34,65,0
373.18924,373.51996,46,75,0
373.5231,373.84122,53,63,0
373.5231,373.84122,50,63,0
373.84424,374.15814,58,64,0
373.84424,374.15814,53,64,0
374.16412,374.47684,62,67,0
374.16412,374.47684,58,67,0
374.48282,374.79437,62,68,0
374.48282,374.79437,65,68,0
374.80032,375.11057,70,70,0
374.80032,375.11057,65,70,0
375.11646,375.61203,51,77,0
375.11646,375.61203,46,77,0
375.11646,375.61203,39,65,0
375.61725,376.11282,55,70,0
375.61725,376.11282,51,70,0
375.61725,376.11282,43,57,0
376.11804,376.6059,43,66,0
376.11804,376.6059,50,66,0
376.11804,376.6059,38,54,0
376.61102,377.1066,48,72,0
376.61102,377.1066,43,72,0
376.61102,377.1066,36,51,0
377.11182,377.44257,43,75,0
377.11182,377.44257,34,65,0
377.11182,377.44257,46,75,0
377.44568,377.7608,55,63,0
377.44568,377.7608,50,63,0
377.7668,378.08072,58,64,0
377.7668,378.08072,55,64,0
378.0867,378.39944,62,67,0
378.0867,378.39944,58,67,0
378.0867,378.39944,56,54,0
378.40543,378.71695,62,68,0
378.40543,378.71695,65,68,0
378.40543,378.71695,58,54,0
378.7229,379.03314,68,70,0
378.7229,379.03314,65,70,0
378.7229,379.03314,62,54,0
379.03906,379.35837,60,69,0
379.03906,379.35837,68,81,0
379.03906,379.35837,72,81,0
379.3614,379.68073,44,57,0
379.3614,379.68073,36,48,0
379.3614,379.68073,48,57,0
379.68375,380.01447,60,70,0
379.68375,380.01447,48,57,0
379.68375,380.01447,56,70,0
380.0176,380.50546,58,77,0
380.0176,380.50546,51,77,0
380.0176,380.50546,46,65,0
380.5106,380.9984,55,70,0
380.5106,380.9984,51,70,0
380.5106,380.9984,43,57,0
381.00357,381.32288,44,62,0
381.00357,381.32288,51,72,0
381.00357,381.32288,56,72,0
381.3259,381.64523,44,57,0
381.3259,381.64523,36,48,0
381.3259,381.64523,48,57,0
381.64825,381.9676,56,70,0
381.64825,381.9676,44,57,0
381.64825,381.9676,51,70,0
381.9706,382.45844,53,70,0
381.9706,382.45844,48,70,0
381.9706,382.45844,41,57,0
382.46356,382.95142,56,67,0
382.46356,382.95142,48,67,0
382.46356,382.95142,44,54,0
382.95654,383.4444,55,70,0
382.95654,383.4444,51,70,0
382.95654,383.4444,43,57,0
383.44952,383.93738,43,54,0
383.44952,383.93738,39,54,0
383.44952,383.93738,31,46,0
383.9425,384.43033,53,68,0
383.9425,384.43033,46,68,0
383.9425,384.43033,41,54,0
384.4355,384.89935,51,64,0
384.4355,384.89935,46,64,0
384.4355,384.89935,39,53,0
384.90424,385.21622,44,39,0
384.90424,385.21622,32,35,0
385.21918,385.51727,44,32,0
385.21918,385.51727,56,35,0
385.52005,385.8125,44,36,0
385.52005,385.8125,32,32,0
385.81528,386.1035,56,34,0
385.81528,386.1035,44,30,0
386.1062,386.3944,32,30,0
386.1062,386.3944,44,35,0
386.39713,386.7021,56,33,0
386.39713,386.7021,44,27,0
386.705,386.99005,46,46,0
386.705,386.99005,34,40,0
386.99277,387.27786,46,33,0
386.99277,387.27786,58,36,0
387.28055,387.56717,46,38,0
387.28055,387.56717,34,34,0
387.56992,387.85095,58,38,0
387.56992,387.85095,46,34,0
387.8536,388.13467,34,35,0
387.8536,388.13467,46,39,0
388.13733,388.43637,58,39,0
388.13733,388.43637,46,35,0
388.4392,388.71826,46,47,0
388.4392,388.71826,34,41,0
388.72092,389.0,46,37,0
388.72092,389.0,58,42,0
389.00262,389.28885,46,42,0
389.00262,389.28885,34,38,0
389.29163,389.58514,59,46,0
389.29163,389.58514,47,41,0
389.58792,389.86798,35,34,0
389.58792,389.86798,47,38,0
389.87064,390.1497,59,38,0
389.87064,390.1497,47,34,0
390.15234,390.42563,47,38,0
390.15234,390.42563,35,38,0
390.42822,390.7015,47,38,0
390.42822,390.7015,59,38,0
390.7041,390.98486,47,38,0
390.7041,390.98486,35,38,0
390.98764,391.26282,58,41,0
390.98764,391.26282,46,38,0
391.26544,391.54062,34,38,0
391.26544,391.54062,46,42,0
391.54324,391.8247,58,42,0
391.54324,391.8247,46,39,0
391.82748,392.1075,45,42,0
391.82748,392.1075,33,38,0
392.11017,392.3902,45,39,0
392.11017,392.3902,57,43,0
392.39285,392.6785,45,42,0
392.39285,392.6785,33,42,0
392.6812,392.96378,57,48,0
392.6812,392.96378,45,48,0
392.96643,393.24747,33,43,0
392.96643,393.24747,45,43,0
393.25012,393.53116,57,42,0
393.25012,393.53116,45,42,0
393.5338,393.8184,45,56,0
393.5338,393.8184,33,49,0
393.8211,394.10928,45,42,0
393.8211,394.10928,57,47,0
394.11203,394.40125,45,48,0
394.11203,394.40125,33,43,0
394.404,394.6943,57,60,0
394.404,394.6943,45,52,0
394.69705,394.98734,33,46,0
394.69705,394.98734,45,50,0
394.99008,395.28036,45,46,0
394.99008,395.28036,57,51,0
395.2831,395.57993,46,68,0
395.2831,395.57993,34,60,0
395.58273,395.87955,46,47,0
395.58273,395.87955,58,52,0
395.8824,396.1748,46,57,0
395.8824,396.1748,34,51,0
396.17758,396.47,59,71,0
396.17758,396.47,47,64,0
396.47278,396.76245,35,48,0
396.47278,396.76245,47,54,0
396.7652,397.0544,59,50,0
396.7652,397.0544,47,45,0
397.05716,397.35178,46,62,0
397.05716,397.35178,34,54,0
397.35455,397.64917,46,47,0
397.35455,397.64917,58,52,0
397.65195,397.94226,46,57,0
397.65195,397.94226,34,51,0
397.945,398.2353,56,72,0
397.945,398.2353,44,65,0
398.23804,398.52832,32,48,0
398.23804,398.52832,44,54,0
398.53107,398.82138,56,50,0
398.53107,398.82138,44,45,0
398.82413,399.12228,46,62,0
398.82413,399.12228,34,54,0
399.12512,399.42328,46,47,0
399.12512,399.42328,58,52,0
399.42612,399.71777,46,57,0
399.42612,399.71777,34,51,0
399.72052,400.0122,60,72,0
399.72052,400.0122,48,65,0
400.01495,400.3066,36,50,0
400.01495,400.3066,48,56,0
400.3094,400.60104,60,53,0
400.3094,400.60104,48,47,0
400.6038,400.89978,46,67,0
400.6038,400.89978,34,59,0
400.90256,401.19855,46,50,0
400.90256,401.19855,58,57,0
401.20135,401.49356,46,64,0
401.20135,401.49356,34,57,0
401.4963,401.78796,57,82,0
401.4963,401.78796,45,72,0
401.79074,402.0824,33,56,0
401.79074,402.0824,45,63,0
402.08514,402.47177,57,59,0
402.08514,402.47177,45,52,0
402.47543,402.78363,46,86,0
402.47543,402.78363,34,76,0
402.78363,403.09183,62,72,0
402.78363,403.09183,50,64,0
403.09183,403.4,63,80,0
403.09183,403.4,51,71,0
403.4,403.7082,50,73,0
403.4,403.7082,38,67,0
403.7082,404.0245,51,79,0
403.7082,404.0245,39,70,0
404.0245,404.37073,46,72,0
404.0245,404.37073,34,65,0
404.37073,404.94177,54,67,0
404.37073,404.94177,51,67,0
404.37073,404.94177,47,62,0
404.94177,405.55148,54,63,0
404.94177,405.55148,49,54,0
404.94177,405.55148,42,54,0
405.55148,405.86423,46,86,0
405.55148,405.86423,34,76,0
405.86423,406.177,62,72,0
405.86423,406.177,50,64,0
406.177,406.48978,63,80,0
406.177,406.48978,51,71,0
406.48978,406.80255,50,73,0
406.48978,406.80255,38,67,0
406.80255,407.12738,51,79,0
406.80255,407.12738,39,70,0
407.12738,407.4809,46,72,0
407.12738,407.4809,34,65,0
407.4809,408.11832,55,67,0
407.4809,408.11832,51,67,0
407.4809,408.11832,48,62,0
408.11832,408.88785,58,63,0
408.11832,408.88785,53,63,0
408.11832,408.88785,46,54,0
409.18927,411.3092,55,80,0
408.88785,411.3092,39,92,0
409.18927,411.3092,43,66,0
408.88785,411.3092,27,89,0
409.18927,411.3092,51,80,0
409.18927,411.3092,46,66,0
411.61322,413.9075,53,75,0
411.3092,413.9075,39,91,0
411.61322,413.9075,41,63,0
411.3092,413.9075,27,80,0
411.61322,413.9075,50,63,0
411.61322,413.9075,46,63,0
414.17563,415.82068,51,80,0
414.17563,415.82068,43,66,0
413.9075,415.82068,39,90,0
413.9075,415.82068,27,89,0
414.17563,415.82068,46,80,0
415.82068,416.62424,48,75,0
415.82068,416.62424,36,63,0
415.82068,416.62424,39,63,0
415.82068,416.62424,43,75,0
416.62424,417.4448,51,70,0
416.62424,417.4448,39,61,0
416.62424,417.4448,43,61,0
416.62424,417.4448,48,70,0
417.4448,419.0874,50,70,0
417.4448,419.0874,38,61,0
417.4448,419.0874,41,61,0
417.4448,419.0874,46,70,0
419.0874,420.62732,46,80,0
419.0874,420.62732,34,80,0
420.62732,420.87897,56,82,0
420.62732,420.87897,53,82,0
420.87897,422.78122,41,77,0
420.87897,422.78122,29,77,0
422.78122,423.03287,58,73,0
422.78122,423.03287,55,73,0
423.03287,424.93512,43,77,0
423.03287,424.93512,31,77,0
424.93512,425.18307,58,73,0
424.93512,425.18307,51,73,0
425.18307,426.16098,39,86,0
425.18307,426.16098,27,77,0
426.16098,427.1389,58,67,0
426.16098,427.1389,55,67,0
427.1389,428.11682,39,86,0
427.1389,428.11682,27,77,0
428.11682,429.09143,58,67,0
428.11682,429.09143,55,67,0
429.09143,429.1974,27,70,0
429.1974,429.30426,39,62,0
429.30426,429.4101,27,70,0
429.4101,429.5161,39,59,0
429.5161,429.62143,27,70,0
429.62143,429.72696,39,63,0
429.72696,429.83167,27,71,0
429.83167,429.93646,39,62,0
429.93646,430.04086,27,70,0
430.04086,430.14542,39,62,0
430.14542,430.25,27,71,0
430.25,430.35352,39,64,0
430.35352,430.45822,27,73,0
430.45822,430.56128,39,65,0
430.56128,430.66412,27,76,0
430.66412,430.76746,39,66,0
430.76746,430.8696,27,79,0
430.8696,430.97305,39,70,0
430.97305,431.07617,27,81,0
431.07617,431.17752,39,72,0
431.17752,431.27954,27,83,0
431.27954,431.38138,39,77,0
431.38138,431.48215,27,86,0
431.48215,431.58337,39,80,0
431.58337,431.68323,27,88,0
431.68323,431.784,39,80,0
431.784,431.88547,27,91,0
431.88547,431.9851,39,84,0
431.9851,432.08426,27,99,0
432.08426,432.18494,39,89,0
432.18494,432.2848,27,103,0
432.2848,432.38412,39,92,0
432.38412,433.57373,39,104,0
432.38412,433.57373,27,96,0
