start_time,end_time,note_value,velocity,instrument_program_number
7.146893,7.804716,61,34,0
7.146893,7.804716,65,34,0
7.146893,7.804716,68,40,0
7.804716,8.462539,58,30,0
7.804716,8.462539,67,30,0
7.804716,8.462539,70,36,0
8.462539,9.112101,68,35,0
8.462539,9.112101,72,42,0
8.462539,9.112101,63,35,0
9.112101,9.757978,67,39,0
9.112101,9.757978,70,39,0
9.112101,9.757978,75,47,0
9.757978,10.390689,72,39,0
9.757978,10.390689,75,39,0
9.757978,10.390689,80,46,0
10.390689,11.033363,75,39,0
10.390689,11.033363,79,47,0
10.390689,11.033363,70,39,0
11.033363,11.684758,67,38,0
11.033363,11.684758,72,38,0
11.033363,11.684758,75,45,0
11.684758,12.339494,68,33,0
11.684758,12.339494,72,33,0
11.684758,12.339494,77,39,0
12.339494,13.004756,77,32,0
12.339494,13.004756,82,38,0
12.339494,13.004756,73,32,0
13.004756,13.678989,77,28,0
13.004756,13.678989,80,28,0
13.004756,13.678989,84,33,0
13.678989,14.025209,87,33,0
13.678989,14.025209,82,28,0
13.678989,14.025209,79,28,0
21.468712,22.128489,70,34,0
21.468712,22.128489,79,40,0
21.468712,22.128489,67,34,0
21.468712,22.128489,75,34,0
22.128489,22.788263,77,40,0
22.128489,22.788263,65,34,0
22.128489,22.788263,68,34,0
22.128489,22.788263,73,34,0
22.788263,23.433216,72,34,0
22.788263,23.433216,80,40,0
22.788263,23.433216,75,34,0
22.788263,23.433216,68,34,0
23.433216,24.080654,70,34,0
23.433216,24.080654,75,34,0
23.433216,24.080654,79,34,0
23.433216,24.080654,82,40,0
24.080654,24.726719,73,35,0
24.080654,24.726719,77,35,0
24.080654,24.726719,82,35,0
24.080654,24.726719,85,42,0
24.726719,25.383593,89,46,0
24.726719,25.383593,85,39,0
24.726719,25.383593,77,39,0
24.726719,25.383593,82,39,0
25.383593,26.012506,87,37,0
25.383593,26.012506,82,37,0
25.383593,26.012506,79,37,0
25.383593,26.012506,91,44,0
26.054434,26.736485,72,40,0
26.054434,26.736485,79,40,0
26.054434,26.736485,84,48,0
26.054434,26.736485,75,40,0
26.736485,27.406952,75,39,0
26.736485,27.406952,80,46,0
26.736485,27.406952,68,39,0
26.736485,27.406952,72,39,0
27.406952,28.089003,73,38,0
27.406952,28.089003,70,38,0
27.406952,28.089003,82,45,0
27.406952,28.089003,77,38,0
28.089003,28.464283,79,40,0
28.089003,28.464283,75,34,0
28.089003,28.464283,70,34,0
28.089003,28.464283,67,34,0
28.839565,29.528112,65,47,0
28.839565,29.528112,56,39,0
28.839565,29.528112,61,39,0
29.528112,30.198729,55,38,0
29.528112,30.198729,58,38,0
29.528112,30.198729,63,45,0
30.198729,30.850903,68,44,0
30.198729,30.850903,63,38,0
30.198729,30.850903,60,38,0
30.850903,31.186134,70,39,0
31.186134,31.521368,75,33,0
30.850903,31.521368,67,33,0
31.521368,31.849237,68,35,0
31.521368,31.849237,72,42,0
30.850903,31.849237,63,33,0
32.177105,32.49817,70,39,0
32.49817,32.84323,75,34,0
32.177105,32.84323,65,33,0
32.177105,32.84323,61,33,0
32.84323,33.502575,72,38,0
32.84323,33.502575,63,32,0
32.84323,33.502575,67,32,0
33.502575,34.151222,60,35,0
33.502575,34.151222,63,35,0
33.502575,34.151222,68,35,0
34.151222,34.81158,62,35,0
34.151222,34.81158,65,35,0
34.151222,34.81158,70,42,0
34.81158,35.482197,65,40,0
34.81158,35.482197,62,34,0
34.81158,35.482197,58,34,0
35.482197,36.160397,63,37,0
35.482197,36.160397,58,31,0
35.482197,36.160397,55,31,0
36.205612,37.570023,70,39,0
36.205612,37.570023,82,47,0
37.570023,39.54311,87,52,0
37.570023,39.54311,75,44,0
39.54311,40.921623,79,33,0
39.54311,40.921623,91,39,0
40.921623,41.653778,80,32,0
40.921623,41.653778,92,38,0
41.653778,43.819195,82,31,0
41.653778,43.819195,94,37,0
46.88668,49.756847,51,45,0
49.756847,50.135536,51,41,0
50.135536,50.4998,51,45,0
50.518974,50.883236,51,41,0
50.90241,51.262165,51,38,0
51.2811,51.85157,51,45,0
51.85157,52.034138,52,41,0
52.034138,52.33438,51,45,0
52.43446,52.783424,54,47,0
52.801792,53.157154,52,45,0
53.175858,53.54012,51,40,0
53.55929,54.091774,49,45,0
54.119324,54.297638,51,40,0
54.297638,54.585217,49,42,0
54.681076,55.034233,52,48,0
55.052822,55.41258,51,42,0
55.431515,55.795578,49,41,0
55.81475,56.581623,47,45,0
56.581623,56.957985,49,48,0
56.957985,57.325317,51,52,0
57.325317,57.701683,49,51,0
57.701683,58.094917,47,41,0
58.094917,58.657745,46,45,0
58.657745,58.837128,47,41,0
58.837128,59.124706,46,45,0
59.220566,59.571636,49,48,0
59.590115,59.94766,47,41,0
59.966476,60.33074,46,40,0
60.349915,61.50022,47,45,0
61.50022,62.26709,44,39,0
62.26709,62.71358,63,53,0
62.68163,65.35708,68,58,0
65.326935,65.722374,71,57,0
65.688644,65.99225,70,53,0
65.95851,66.059715,68,47,0
66.02598,66.12434,70,45,0
66.093445,66.49605,68,61,0
66.46409,66.87948,64,51,0
66.84753,67.230965,68,47,0
67.230965,68.029785,68,53,0
67.99783,68.41322,63,51,0
68.38127,69.93662,66,56,0
69.90564,70.30437,64,51,0
70.273,70.583626,63,47,0
70.583626,70.67475,63,43,0
70.64485,71.03517,64,56,0
71.00362,71.413864,63,46,0
71.38231,71.79256,61,43,0
71.761,72.139694,63,53,0
72.139694,74.458115,56,48,0
74.42616,74.83531,58,51,0
74.80376,75.087776,59,51,0
75.05621,75.15089,61,46,0
75.11933,75.21324,63,41,0
75.18245,75.58317,61,56,0
75.551994,75.958015,59,46,0
75.92606,76.34086,58,43,0
76.309494,77.434555,59,56,0
77.434555,79.29851,56,47,0
80.43018,80.83115,68,51,0
80.83115,85.35397,75,63,0
85.35397,85.73741,80,56,0
87.27115,87.738266,63,53,0
87.706314,90.37945,68,57,0
90.34949,90.74209,71,57,0
90.70903,91.00661,70,53,0
90.97354,91.07274,68,47,0
91.03967,91.13688,70,45,0
91.1058,91.510704,68,61,0
91.47875,91.894135,64,51,0
91.86218,92.24562,68,47,0
92.24562,93.04444,68,53,0
93.01249,93.42788,63,51,0
93.39593,94.93767,64,56,0
94.906494,95.31117,66,57,0
93.39593,95.64789,59,42,0
95.280556,95.67869,68,59,0
95.64789,96.04823,69,62,0
96.01744,96.417786,71,58,0
95.64789,96.75654,61,42,0
95.64789,96.75654,64,42,0
96.386986,96.75654,73,58,0
96.75654,98.267105,66,62,0
98.267105,98.67178,68,60,0
96.75654,99.0085,57,37,0
96.75654,99.0085,61,37,0
98.64117,99.0085,69,58,0
99.0085,99.7706,68,62,0
99.0085,100.16133,63,42,0
99.7706,100.16133,63,56,0
100.16133,100.91883,68,61,0
100.91883,101.29289,66,56,0
99.0085,101.29289,56,42,0
101.29289,102.43613,64,58,0
102.43613,102.810196,63,56,0
102.810196,103.18426,61,53,0
103.18426,103.57749,59,48,0
101.29289,103.57749,56,42,0
103.57749,104.14328,58,51,0
104.14328,104.32477,59,46,0
104.32477,104.70346,58,51,0
103.57749,104.70346,56,42,0
104.70346,105.0752,61,48,0
105.0752,105.44695,59,46,0
105.44695,105.825645,58,45,0
104.70346,105.825645,55,42,0
105.825645,106.99555,59,46,0
105.825645,106.99555,56,42,0
106.99555,108.94068,56,43,0
110.50826,111.26099,76,45,0
110.50826,111.26099,64,45,0
111.26099,111.6268,76,43,0
110.50826,111.6268,69,40,0
110.50826,111.6268,73,40,0
111.26099,111.6268,64,43,0
111.6268,112.16335,78,48,0
111.6268,112.16335,66,48,0
112.16335,112.34421,76,46,0
112.16335,112.34421,64,46,0
112.34421,112.71596,75,42,0
111.6268,112.71596,69,43,0
111.6268,112.71596,73,43,0
112.34421,112.71596,63,42,0
112.71596,113.464554,76,48,0
112.71596,113.464554,64,48,0
113.464554,113.83107,76,45,0
112.71596,113.83107,69,43,0
112.71596,113.83107,73,43,0
113.464554,113.83107,64,45,0
113.83107,114.37364,78,46,0
113.83107,114.37364,66,46,0
114.37364,114.55655,76,40,0
114.37364,114.55655,64,40,0
114.55655,114.942345,75,40,0
113.83107,114.942345,69,41,0
113.83107,114.942345,73,41,0
114.55655,114.942345,63,40,0
114.942345,116.07144,76,45,0
114.942345,116.07144,64,45,0
114.942345,116.07144,69,45,0
114.942345,116.07144,73,45,0
116.07144,117.20752,74,46,0
116.07144,117.20752,62,46,0
116.07144,117.20752,66,46,0
116.07144,117.20752,69,46,0
117.20752,118.70242,81,51,0
117.20752,118.70242,69,51,0
118.70242,119.06012,80,51,0
118.70242,119.06012,68,51,0
117.20752,119.44116,78,51,0
119.06012,119.44116,78,47,0
117.20752,119.44116,74,51,0
119.06012,119.44116,66,47,0
119.44116,120.54316,76,51,0
119.44116,120.54316,64,51,0
119.44116,120.54316,68,51,0
119.44116,120.54316,73,51,0
120.54316,121.64516,80,54,0
120.54316,121.64516,68,54,0
120.54316,121.64516,73,54,0
120.54316,121.64516,76,54,0
121.64516,122.747154,78,53,0
121.64516,122.747154,66,53,0
121.64516,122.747154,68,53,0
121.64516,122.747154,75,53,0
122.747154,123.87505,76,47,0
122.747154,123.87505,64,47,0
122.747154,123.87505,68,47,0
122.747154,123.87505,73,47,0
123.87505,125.00415,75,51,0
123.87505,125.00415,63,51,0
125.00415,125.738815,73,48,0
125.00415,125.738815,61,48,0
125.738815,126.1175,71,46,0
123.87505,126.1175,67,45,0
123.87505,126.1175,70,45,0
125.738815,126.1175,59,46,0
126.1175,126.66984,70,51,0
126.1175,126.66984,58,51,0
126.66984,126.85026,71,41,0
126.66984,126.85026,59,41,0
126.85026,127.237656,70,35,0
126.85026,127.237656,58,35,0
127.237656,127.59084,73,43,0
127.237656,127.59084,61,43,0
127.59084,127.94824,71,38,0
127.59084,127.94824,59,38,0
127.94824,128.33563,70,35,0
126.1175,128.33563,63,45,0
126.1175,128.33563,67,45,0
127.94824,128.33563,58,35,0
128.33563,129.45448,71,45,0
128.33563,129.45448,68,45,0
129.45448,130.20038,68,41,0
128.33563,130.20038,63,45,0
128.33563,130.20038,59,45,0
130.57333,131.30917,76,45,0
130.57333,131.30917,64,45,0
131.30917,131.67497,76,43,0
130.57333,131.67497,69,40,0
130.57333,131.67497,73,40,0
131.30917,131.67497,64,43,0
131.67497,132.20465,78,48,0
131.67497,132.20465,66,48,0
132.20465,132.3825,76,46,0
132.20465,132.3825,64,46,0
132.3825,132.66132,75,42,0
132.3825,132.66132,63,42,0
131.67497,132.75426,73,43,0
131.67497,132.75426,69,43,0
132.75426,133.49008,76,48,0
132.75426,133.49008,64,48,0
133.49008,133.8538,76,45,0
132.75426,133.8538,69,43,0
132.75426,133.8538,73,43,0
133.49008,133.8538,64,45,0
133.8538,134.3894,78,46,0
133.8538,134.3894,66,46,0
134.3894,134.57127,76,40,0
134.3894,134.57127,64,40,0
134.57127,134.86061,75,40,0
134.57127,134.86061,63,40,0
133.8538,134.95706,73,41,0
133.8538,134.95706,69,41,0
134.95706,136.08617,76,45,0
134.95706,136.08617,64,45,0
134.95706,136.08617,69,45,0
134.95706,136.08617,73,45,0
136.08617,137.22224,74,46,0
136.08617,137.22224,62,46,0
136.08617,137.22224,66,46,0
136.08617,137.22224,69,46,0
137.22224,138.35133,81,51,0
137.22224,138.35133,69,51,0
138.35133,138.71925,80,51,0
138.35133,138.71925,68,51,0
138.71925,139.07892,69,45,0
138.71925,139.07892,81,45,0
137.22224,139.45996,78,51,0
139.07892,139.45996,78,46,0
137.22224,139.45996,74,51,0
139.07892,139.45996,66,46,0
139.45996,140.56197,76,51,0
139.45996,140.56197,64,51,0
139.45996,140.56197,68,51,0
139.45996,140.56197,73,51,0
140.56197,141.66396,80,47,0
140.56197,141.66396,68,47,0
140.56197,141.66396,73,47,0
140.56197,141.66396,76,47,0
141.66396,142.01967,78,48,0
141.66396,142.01967,66,48,0
141.66396,142.01967,68,48,0
142.01967,142.387,80,45,0
141.66396,142.75636,75,48,0
142.387,142.75636,75,45,0
142.01967,142.75636,68,45,0
142.387,142.75636,63,45,0
142.75636,143.11934,76,47,0
142.75636,143.11934,64,47,0
143.11934,143.48666,75,43,0
143.11934,143.48666,63,43,0
143.48666,143.8799,76,42,0
142.75636,143.8799,68,47,0
142.75636,143.8799,73,47,0
143.48666,143.8799,64,42,0
143.8799,145.009,75,51,0
143.8799,145.009,63,51,0
145.009,145.74367,73,48,0
145.009,145.74367,61,48,0
145.74367,146.12236,71,46,0
143.8799,146.12236,67,45,0
143.8799,146.12236,70,45,0
145.74367,146.12236,59,46,0
146.12236,146.67212,70,51,0
146.12236,146.67212,58,51,0
146.67212,146.84998,71,41,0
146.67212,146.84998,59,41,0
146.84998,147.13225,70,35,0
146.84998,147.13225,58,35,0
147.22633,147.58205,73,43,0
147.22633,147.58205,61,43,0
147.58205,147.94717,71,38,0
147.58205,147.94717,59,38,0
147.94717,148.22772,70,35,0
147.94717,148.22772,58,35,0
146.12236,148.32124,67,45,0
146.12236,148.32124,63,45,0
148.32124,149.46588,71,45,0
148.32124,149.46588,68,45,0
149.46588,150.19595,68,41,0
148.32124,150.19595,63,40,0
148.32124,150.19595,59,40,0
151.69887,152.84024,68,51,0
152.84024,157.36307,75,63,0
157.36307,158.12993,80,56,0
159.28024,159.72673,63,51,0
159.69478,162.36372,68,56,0
162.33376,162.72615,71,53,0
162.6933,162.98892,70,51,0
162.95607,163.05461,68,45,0
163.02177,163.11848,70,42,0
163.08746,163.49234,68,56,0
163.45963,163.88396,64,47,0
163.8521,164.23454,68,45,0
164.23454,165.02501,68,53,0
164.99435,165.39423,75,48,0
165.36227,167.6254,68,50,0
168.75696,170.25186,69,51,0
170.25186,170.603,68,47,0
168.75696,170.603,66,36,0
168.75696,170.603,63,36,0
170.603,170.96912,69,44,0
170.96912,171.72333,70,57,0
171.69252,172.09286,77,48,0
170.96912,172.80118,62,36,0
170.96912,172.80118,65,36,0
172.06207,172.80118,70,50,0
173.17072,174.66774,72,51,0
174.66774,175.01886,71,47,0
173.17072,175.01886,66,36,0
173.17072,175.01886,63,36,0
175.01886,175.38184,72,45,0
175.38184,176.15173,73,57,0
176.12093,176.52127,80,50,0
175.38184,177.22958,68,36,0
175.38184,177.22958,65,36,0
176.49048,177.22958,73,50,0
177.61203,181.99687,74,51,0
177.61203,181.99687,70,51,0
177.61203,181.99687,63,51,0
181.99687,183.10672,75,56,0
181.99687,183.10672,63,56,0
181.99687,183.10672,68,36,0
183.10672,183.46442,74,48,0
183.10672,183.46442,62,48,0
183.46442,183.82613,73,46,0
183.46442,183.82613,61,46,0
183.82613,184.19403,74,45,0
183.82613,184.19403,62,45,0
183.10672,184.19403,68,36,0
184.19403,185.30269,75,53,0
184.19403,185.30269,63,53,0
184.19403,185.30269,68,36,0
185.30269,185.66039,74,47,0
185.30269,185.66039,62,47,0
185.66039,186.01808,73,46,0
185.66039,186.01808,61,46,0
186.01808,186.38388,74,45,0
186.01808,186.38388,62,45,0
185.30269,186.38388,68,36,0
186.38388,187.49254,75,52,0
186.38388,187.49254,63,52,0
187.49254,188.60118,74,47,0
187.49254,188.60118,62,47,0
186.38388,188.60118,68,36,0
188.60118,189.70982,73,46,0
188.60118,189.70982,68,46,0
188.60118,189.70982,61,46,0
189.70982,190.81183,80,57,0
189.70982,190.81183,76,57,0
189.70982,190.81183,68,57,0
190.81183,191.91382,78,56,0
190.81183,191.91382,75,56,0
190.81183,191.91382,66,56,0
191.91382,193.04172,76,55,0
191.91382,193.04172,73,55,0
191.91382,193.04172,64,55,0
193.04172,194.1708,75,51,0
193.04172,194.1708,63,51,0
194.1708,194.90547,73,48,0
194.1708,194.90547,61,48,0
194.90547,195.28416,71,46,0
193.04172,195.28416,67,45,0
193.04172,195.28416,70,45,0
194.90547,195.28416,59,46,0
195.28416,195.8365,70,51,0
195.28416,195.8365,58,51,0
195.8365,196.01692,71,41,0
195.8365,196.01692,59,41,0
196.01692,196.30377,70,35,0
196.01692,196.30377,58,35,0
196.39938,196.75258,73,43,0
196.39938,196.75258,61,43,0
196.75258,197.1177,71,38,0
196.75258,197.1177,59,38,0
197.1177,197.49178,70,35,0
195.28416,197.49178,63,38,0
195.28416,197.49178,67,38,0
197.1177,197.49178,58,35,0
197.49178,198.61397,71,45,0
197.49178,198.61397,68,37,0
198.61397,199.3621,68,41,0
197.49178,199.3621,63,36,0
197.49178,199.3621,59,37,0
201.60649,202.04744,63,51,0
202.01549,204.68443,68,56,0
204.65448,205.04752,71,53,0
205.014,205.31558,70,51,0
205.28207,205.3826,68,45,0
205.34909,205.44711,70,42,0
205.4161,205.82022,68,56,0
205.78827,206.2029,64,47,0
206.1717,206.546,68,45,0
206.546,207.1134,68,53,0
207.1134,207.29895,76,48,0
207.29895,207.67302,68,45,0
207.67302,209.56209,68,49,0
211.06772,212.56053,69,51,0
212.56053,212.91716,68,47,0
211.06772,212.91716,66,36,0
211.06772,212.91716,63,36,0
212.91716,213.28014,69,48,0
213.28014,213.80408,70,57,0
213.80408,213.98557,77,51,0
213.98557,214.35512,70,51,0
214.35512,215.09421,70,47,0
213.28014,215.09421,65,36,0
213.28014,215.09421,62,36,0
215.46376,216.95253,72,51,0
216.95253,217.30916,71,47,0
215.46376,217.30916,66,36,0
215.46376,217.30916,63,36,0
217.30916,217.67213,72,46,0
217.67213,218.19989,73,57,0
218.19989,218.38245,80,51,0
218.38245,218.752,73,51,0
218.752,219.4911,73,48,0
217.67213,219.4911,65,36,0
217.67213,219.4911,68,36,0
219.86066,224.26804,74,51,0
219.86066,224.26804,70,51,0
219.86066,224.26804,63,51,0
224.26804,225.37177,75,56,0
224.26804,225.37177,63,56,0
224.26804,225.37177,68,36,0
225.37177,225.71883,74,48,0
225.37177,225.71883,62,48,0
225.71883,226.07967,73,46,0
225.71883,226.07967,61,46,0
226.07967,226.44699,74,44,0
226.07967,226.44699,62,44,0
225.37177,226.44699,68,36,0
226.44699,227.5478,75,53,0
226.44699,227.5478,63,53,0
226.44699,227.5478,68,36,0
227.5478,227.89487,74,47,0
227.5478,227.89487,62,47,0
227.89487,228.2557,73,46,0
227.89487,228.2557,61,46,0
228.2557,228.63815,74,45,0
228.2557,228.63815,62,45,0
227.5478,228.63815,68,36,0
228.63815,229.75009,75,52,0
228.63815,229.75009,63,52,0
229.75009,230.86203,74,47,0
229.75009,230.86203,62,47,0
228.63815,230.86203,68,36,0
230.86203,232.00099,73,46,0
230.86203,232.00099,68,46,0
230.86203,232.00099,61,46,0
232.00099,233.10298,80,57,0
232.00099,233.10298,76,57,0
232.00099,233.10298,68,57,0
233.10298,234.2106,78,56,0
233.10298,234.2106,75,56,0
233.10298,234.2106,66,56,0
234.2106,234.56172,76,52,0
234.2106,234.56172,64,52,0
234.56172,234.92686,80,43,0
234.56172,234.92686,68,43,0
234.92686,235.2986,76,47,0
234.92686,235.2986,64,47,0
234.2106,235.2986,73,52,0
235.2986,236.4277,75,47,0
235.2986,236.4277,63,47,0
236.4277,236.78088,73,48,0
236.4277,236.78088,61,48,0
236.78088,237.14822,75,45,0
236.78088,237.14822,63,45,0
237.14822,237.52692,71,42,0
235.2986,237.52692,67,47,0
235.2986,237.52692,70,47,0
237.14822,237.52692,59,42,0
237.52692,238.07925,70,47,0
237.52692,238.07925,58,47,0
238.07925,238.25967,71,37,0
238.07925,238.25967,59,37,0
238.25967,238.63603,70,32,0
238.25967,238.63603,58,32,0
238.63603,238.99687,73,40,0
238.63603,238.99687,61,40,0
238.99687,239.36201,71,33,0
238.99687,239.36201,59,33,0
239.36201,239.58589,70,30,0
239.36201,239.58589,58,30,0
237.52692,239.80977,67,31,0
237.52692,239.80977,63,31,0
242.15053,242.90326,76,37,0
242.15053,242.90326,64,37,0
242.90326,243.27962,76,36,0
242.15053,243.27962,69,33,0
242.15053,243.27962,73,33,0
242.90326,243.27962,64,36,0
243.27962,243.82408,78,41,0
243.27962,243.82408,66,41,0
243.82408,244.00557,76,38,0
243.82408,244.00557,64,38,0
244.00557,244.19145,75,35,0
244.00557,244.19145,63,35,0
243.27962,244.37732,73,36,0
243.27962,244.37732,69,36,0
244.37732,245.1347,76,41,0
244.37732,245.1347,64,41,0
245.1347,245.49843,76,37,0
244.37732,245.49843,69,36,0
244.37732,245.49843,73,36,0
245.1347,245.49843,64,37,0
245.49843,246.03903,78,38,0
245.49843,246.03903,66,38,0
246.03903,246.22194,76,33,0
246.03903,246.22194,64,33,0
246.22194,246.43059,75,33,0
246.22194,246.43059,63,33,0
245.49843,246.63924,73,35,0
245.49843,246.63924,69,35,0
248.98,250.11607,61,47,0
248.98,250.11607,64,47,0
248.98,250.11607,68,47,0
248.98,250.11607,73,47,0
250.11607,251.23132,80,56,0
250.11607,251.23132,68,56,0
250.11607,251.23132,73,56,0
250.11607,251.23132,76,56,0
251.23132,252.34656,78,52,0
251.23132,252.34656,66,52,0
251.23132,252.34656,68,52,0
251.23132,252.34656,75,52,0
252.34656,253.51488,76,47,0
252.34656,253.51488,64,47,0
252.34656,253.51488,68,47,0
252.34656,253.51488,73,47,0
255.87254,256.45493,70,42,0
255.87254,256.45493,58,42,0
256.45493,256.64905,71,35,0
256.45493,256.64905,59,35,0
256.64905,257.0467,70,28,0
255.87254,257.0467,63,37,0
255.87254,257.0467,67,37,0
256.64905,257.0467,58,28,0
257.0467,257.4128,73,36,0
257.0467,257.4128,61,36,0
257.4128,257.80606,71,32,0
257.4128,257.80606,59,32,0
257.80606,258.20703,70,28,0
257.0467,258.20703,63,37,0
257.0467,258.20703,67,37,0
257.80606,258.20703,58,28,0
260.16327,260.61685,63,51,0
260.5841,263.32086,68,55,0
263.29016,263.69275,71,56,0
263.65854,263.9663,70,51,0
263.9321,264.0347,68,45,0
264.0005,264.10068,70,42,0
264.06888,264.4835,68,57,0
264.4505,264.87927,64,48,0
264.84628,265.24207,68,45,0
265.24207,266.06662,68,51,0
266.03363,266.46176,63,48,0
266.4294,268.0298,66,52,0
267.99744,268.4246,64,48,0
268.39206,268.716,63,45,0
268.716,268.81226,63,41,0
268.7803,269.1961,64,52,0
269.16376,269.58585,63,43,0
269.552,269.99207,61,41,0
269.95822,270.36444,63,51,0
270.36444,271.9755,56,46,0
274.77063,275.58047,64,38,0
274.77063,275.58047,56,34,0
274.77063,275.58047,58,34,0
274.77063,275.58047,61,34,0
275.98035,276.7902,63,38,0
275.98035,276.7902,55,34,0
275.98035,276.7902,58,34,0
275.98035,276.7902,61,34,0
279.56015,280.36996,62,38,0
279.56015,280.36996,57,34,0
279.56015,280.36996,54,34,0
280.76987,281.57968,61,38,0
280.76987,281.57968,56,34,0
280.76987,281.57968,52,34,0
281.97958,282.3845,58,38,0
281.97958,282.3845,55,38,0
284.00415,284.8061,75,68,0
284.00415,284.8061,63,68,0
284.8061,289.57556,80,73,0
284.8061,289.57556,68,73,0
0.0013704646,0.65919346,53,52,0
0.657823,1.315646,51,51,0
1.315646,1.960599,56,49,0
1.960599,2.271673,58,45,0
2.271673,2.596208,63,45,0
2.596208,3.238331,60,48,0
3.238331,3.549405,58,44,0
3.549405,3.886711,63,46,0
3.886711,4.536273,60,42,0
4.536273,5.178947,56,48,0
5.178947,5.828509,58,46,0
5.828509,6.478071,53,48,0
6.478071,7.1050916,51,48,0
7.146893,7.804716,53,51,0
7.804716,8.462539,51,51,0
8.462539,9.112101,56,51,0
9.112101,9.42809,58,56,0
9.42809,9.757978,63,56,0
9.757978,10.390689,60,55,0
10.390689,10.712026,58,59,0
10.712026,11.033363,63,56,0
11.033363,11.684758,60,58,0
11.684758,12.339494,56,44,0
12.339494,13.004756,58,45,0
13.004756,13.678989,53,41,0
13.678989,14.025209,51,38,0
14.37143,15.010748,51,52,0
15.010748,15.650066,53,51,0
15.650066,16.29502,48,49,0
16.29502,16.63589,51,48,0
16.602901,16.932789,53,42,0
16.932789,17.577742,46,47,0
17.577742,17.92754,53,44,0
17.89574,18.21374,55,41,0
18.21374,18.819424,51,42,0
18.859802,19.502478,63,57,0
19.502478,20.152039,60,52,0
20.152039,20.509298,58,53,0
20.47682,20.801601,56,48,0
20.801601,21.427017,51,48,0
21.468712,22.128489,51,56,0
22.128489,22.788263,53,53,0
22.788263,23.433216,48,51,0
23.433216,23.785378,51,51,0
23.75257,24.080654,53,47,0
24.080654,24.726719,46,53,0
24.726719,25.0783,53,51,0
25.04438,25.383593,55,47,0
25.383593,26.012506,51,51,0
26.054434,26.736485,63,56,0
26.736485,27.406952,60,50,0
27.406952,27.78208,58,49,0
27.747976,28.089003,56,42,0
28.089003,28.464283,51,48,0
28.839565,30.850903,51,53,0
30.850903,32.177105,44,56,0
32.177105,34.151222,39,56,0
34.151222,35.482197,32,51,0
36.205612,36.887817,65,42,0
36.205612,36.887817,61,35,0
36.205612,36.887817,56,35,0
36.887817,37.570023,55,38,0
36.887817,37.570023,63,45,0
36.887817,37.570023,58,38,0
37.570023,38.230087,60,34,0
37.570023,38.230087,68,40,0
37.570023,38.230087,63,34,0
38.230087,38.55657,70,40,0
38.55657,38.883045,75,34,0
38.230087,38.883045,67,34,0
38.883045,39.213078,72,42,0
38.883045,39.213078,68,35,0
38.230087,39.213078,63,34,0
39.54311,39.87497,70,39,0
39.87497,40.206825,75,34,0
39.54311,40.206825,61,33,0
39.54311,40.206825,65,33,0
40.206825,40.921623,63,32,0
40.206825,40.921623,72,38,0
40.206825,40.921623,67,32,0
40.921623,41.653778,68,34,0
40.921623,41.653778,63,28,0
40.921623,41.653778,60,28,0
41.653778,42.44389,62,29,0
41.653778,42.44389,70,35,0
41.653778,42.44389,65,29,0
42.44389,43.36076,62,27,0
42.44389,43.36076,65,32,0
42.44389,43.36076,58,27,0
43.36076,43.819195,63,31,0
43.36076,43.819195,58,26,0
43.36076,43.819195,55,26,0
62.68163,66.093445,51,41,0
66.093445,67.230965,52,41,0
67.230965,70.64485,51,41,0
70.64485,71.761,52,41,0
71.761,74.042725,51,41,0
74.042725,76.309494,52,41,0
76.309494,76.901634,51,45,0
76.871735,77.08307,52,38,0
77.05112,77.434555,51,43,0
77.434555,77.83728,54,45,0
77.8063,78.2098,52,43,0
78.17805,78.5591,51,45,0
78.5591,79.149025,49,45,0
79.119125,79.33046,51,43,0
79.29851,79.681946,49,43,0
79.681946,80.08305,52,47,0
80.05149,80.4636,51,43,0
80.43018,80.83115,49,39,0
80.83115,81.62938,47,45,0
81.59802,82.005,49,42,0
81.97438,82.372696,51,47,0
82.34171,82.74582,49,42,0
82.71346,83.101715,47,40,0
83.101715,83.69525,46,43,0
83.66518,83.87755,47,38,0
83.8456,84.229034,46,45,0
84.229034,84.625534,49,46,0
84.59417,85.00249,47,42,0
84.970535,85.35397,46,40,0
85.35397,86.50428,47,42,0
87.706314,91.1058,51,41,0
91.1058,92.24562,52,41,0
92.24562,93.39593,51,41,0
93.39593,95.64789,56,41,0
95.64789,96.75654,52,41,0
96.75654,99.0085,51,41,0
99.0085,101.29289,48,41,0
101.29289,102.43613,49,38,0
102.43613,103.57749,51,40,0
103.57749,104.70346,52,40,0
104.70346,110.10794,51,38,0
110.50826,111.6268,52,35,0
110.50826,111.6268,49,35,0
111.6268,112.71596,54,33,0
111.6268,112.71596,51,33,0
112.71596,113.83107,52,35,0
112.71596,113.83107,49,35,0
113.83107,114.942345,54,32,0
113.83107,114.942345,51,32,0
114.942345,116.07144,52,35,0
114.942345,116.07144,49,35,0
116.07144,119.44116,54,35,0
116.07144,119.44116,50,35,0
119.44116,120.54316,56,37,0
119.44116,120.54316,52,37,0
120.54316,121.64516,52,39,0
120.54316,121.64516,49,39,0
121.64516,122.747154,54,36,0
121.64516,122.747154,51,36,0
122.747154,123.87505,56,33,0
122.747154,123.87505,52,33,0
123.87505,126.1175,51,40,0
126.1175,128.33563,55,33,0
128.33563,130.20038,56,33,0
130.57333,131.67497,52,35,0
130.57333,131.67497,49,35,0
131.67497,132.75426,54,33,0
131.67497,132.75426,51,33,0
132.75426,133.8538,52,35,0
132.75426,133.8538,49,35,0
133.8538,134.95706,54,32,0
133.8538,134.95706,51,32,0
134.95706,136.08617,52,35,0
134.95706,136.08617,49,35,0
136.08617,139.45996,54,35,0
136.08617,139.45996,50,35,0
139.45996,140.56197,56,37,0
139.45996,140.56197,52,37,0
140.56197,141.66396,52,35,0
140.56197,141.66396,49,35,0
141.66396,142.75636,54,35,0
141.66396,142.75636,51,35,0
142.75636,143.8799,56,33,0
142.75636,143.8799,52,33,0
143.8799,146.12236,55,40,0
146.12236,148.32124,51,33,0
148.32124,148.91338,51,45,0
148.88348,149.09645,52,38,0
149.06287,149.46588,51,43,0
149.46588,149.85828,54,45,0
149.82759,150.2277,52,43,0
150.19595,150.577,51,45,0
150.577,151.16693,49,45,0
151.13704,151.34828,51,43,0
151.31642,151.69887,49,43,0
151.69887,152.09213,52,47,0
152.06058,152.47269,51,43,0
152.43927,152.84024,49,39,0
152.84024,153.63847,47,45,0
153.6071,154.01408,49,42,0
153.98347,154.38177,51,47,0
154.3508,154.7549,49,42,0
154.72255,155.1108,47,40,0
155.1108,155.70433,46,43,0
155.67427,155.88664,47,38,0
155.85469,156.23811,46,45,0
156.23811,156.63463,49,46,0
156.60326,157.01158,47,42,0
156.97963,157.36307,46,40,0
157.36307,158.51337,47,42,0
159.69478,163.08746,51,41,0
163.08746,164.23454,52,41,0
164.23454,165.36227,51,41,0
165.36227,167.6254,56,40,0
168.75696,170.96912,60,41,0
170.96912,173.17072,58,41,0
173.17072,175.38184,57,41,0
175.38184,177.61203,56,41,0
177.61203,181.99687,54,41,0
181.99687,183.10672,53,36,0
183.10672,184.19403,52,36,0
184.19403,185.30269,53,36,0
185.30269,186.38388,52,36,0
186.38388,188.60118,53,36,0
188.60118,189.70982,52,36,0
189.70982,190.81183,49,43,0
190.81183,191.91382,51,42,0
191.91382,193.04172,56,40,0
193.04172,194.1708,51,40,0
194.1708,195.28416,55,40,0
195.28416,196.39938,51,33,0
196.39938,197.49178,55,33,0
197.49178,198.61397,51,33,0
198.61397,201.60649,56,33,0
202.01549,205.4161,51,38,0
205.4161,206.546,52,41,0
206.546,209.56209,59,38,0
211.06772,213.28014,60,41,0
213.28014,215.46376,58,41,0
215.46376,217.67213,57,41,0
217.67213,219.86066,56,41,0
219.86066,224.26804,54,41,0
224.26804,225.37177,53,36,0
225.37177,226.44699,52,36,0
226.44699,227.5478,53,36,0
227.5478,228.63815,52,36,0
228.63815,230.86203,53,36,0
230.86203,232.00099,52,36,0
232.00099,233.10298,49,35,0
233.10298,234.2106,51,35,0
234.2106,235.2986,56,33,0
235.2986,236.4277,51,40,0
236.4277,237.52692,55,40,0
237.52692,238.63603,51,33,0
238.63603,239.58589,55,31,0
242.15053,243.27962,52,28,0
242.15053,243.27962,49,28,0
243.27962,244.37732,54,27,0
243.27962,244.37732,51,27,0
244.37732,245.49843,52,28,0
244.37732,245.49843,49,28,0
245.49843,246.43059,54,27,0
245.49843,246.43059,51,27,0
248.98,250.11607,56,35,0
248.98,250.11607,52,35,0
250.11607,251.23132,52,42,0
250.11607,251.23132,49,42,0
251.23132,252.34656,54,38,0
251.23132,252.34656,51,38,0
252.34656,253.51488,56,36,0
252.34656,253.51488,52,36,0
255.87254,257.0467,51,27,0
257.0467,258.20703,55,27,0
260.5841,264.06888,51,40,0
264.06888,265.24207,52,40,0
265.24207,266.03363,59,42,0
266.4294,267.2059,58,40,0
267.2059,267.60422,57,38,0
267.60422,267.99744,56,46,0
267.99744,268.7803,55,43,0
268.7803,269.552,48,48,0
269.552,269.95822,49,41,0
274.77063,275.58047,49,38,0
275.98035,276.7902,51,38,0
279.56015,280.36996,48,38,0
280.76987,281.57968,49,38,0
284.8061,286.3959,59,51,0
284.60736,286.3959,51,51,0
284.42444,286.3959,44,51,0
46.88668,50.135536,44,33,0
50.135536,51.26532,44,31,0
51.2811,52.417778,44,34,0
52.43446,53.543316,44,33,0
53.55929,54.6651,44,34,0
54.681076,55.798775,44,34,0
55.81475,57.701683,44,34,0
58.094917,59.966476,44,34,0
60.349915,61.100807,44,34,0
61.116783,61.489037,44,28,0
62.26709,62.664356,44,31,0
62.68163,63.43252,44,36,0
63.448498,63.811413,44,29,0
63.82719,64.57809,44,33,0
64.59406,64.95254,44,29,0
64.968124,65.67357,44,32,0
65.688644,66.07658,44,33,0
66.093445,66.83155,44,36,0
66.84753,67.21499,44,34,0
67.230965,67.98186,44,36,0
67.99783,68.365295,44,33,0
68.38127,69.132164,44,36,0
69.14814,69.50662,44,33,0
69.5222,70.25788,44,36,0
70.273,70.62955,44,33,0
70.64485,71.36653,44,36,0
71.38231,71.745224,44,33,0
71.761,72.50715,44,36,0
72.523125,72.88381,44,30,0
72.89949,73.65039,44,33,0
73.66637,74.02705,44,30,0
74.042725,74.78827,44,34,0
74.80376,75.16667,44,33,0
75.18245,75.91048,44,36,0
75.92606,76.29352,44,33,0
76.309494,77.41858,44,36,0
77.434555,78.54322,44,34,0
78.5591,80.83115,44,36,0
80.83115,83.101715,44,37,0
83.101715,85.35397,44,38,0
85.35397,86.104866,44,38,0
86.12084,86.488304,44,36,0
86.50428,87.25517,44,36,0
87.27115,87.68818,44,31,0
87.706314,88.45721,44,36,0
88.47318,88.8361,44,30,0
88.851875,89.60277,44,32,0
89.618744,89.97723,44,29,0
89.99281,90.694046,44,34,0
90.70903,91.089264,44,33,0
91.1058,91.84621,44,36,0
91.86218,92.229645,44,34,0
92.24562,92.99651,44,36,0
93.01249,93.37995,44,33,0
93.39593,94.14682,44,36,0
94.162796,94.52348,44,29,0
94.53916,95.26498,44,33,0
95.280556,95.63258,44,33,0
95.64789,96.37159,44,36,0
96.386986,96.74114,44,33,0
96.75654,97.50743,44,36,0
97.52341,97.884094,44,33,0
97.89977,98.62559,44,36,0
98.64117,98.993195,44,33,0
99.0085,99.75472,44,35,0
99.7706,100.14505,44,33,0
100.16133,100.903244,44,36,0
100.91883,101.277306,44,33,0
101.29289,102.043785,44,34,0
102.05976,102.42045,44,33,0
102.43613,103.16867,44,35,0
103.18426,103.56111,44,30,0
103.57749,104.30964,44,35,0
104.32477,104.687675,44,33,0
104.70346,105.431465,44,34,0
105.44695,105.80987,44,28,0
105.825645,106.59573,44,35,0
106.612114,106.979576,44,28,0
106.99555,107.76073,44,31,0
107.77701,108.14428,44,28,0
108.16025,108.92442,44,31,0
108.94068,109.31041,44,28,0
109.326485,110.09166,44,30,0
110.10794,110.49158,44,27,0
110.50826,111.24531,44,31,0
111.26099,111.61156,44,28,0
111.6268,112.32914,44,30,0
112.34421,112.70046,44,28,0
112.71596,113.44896,44,30,0
113.464554,113.81583,44,28,0
113.83107,114.541306,44,30,0
114.55655,114.92627,44,27,0
114.942345,115.6794,44,33,0
115.695076,116.05576,44,31,0
116.07144,116.81305,44,35,0
116.82883,117.944565,44,31,0
117.96024,118.32093,44,28,0
118.33661,119.04521,44,34,0
119.06012,119.425285,44,28,0
119.44116,120.16052,44,31,0
120.17583,120.527855,44,28,0
120.54316,121.26252,44,31,0
121.277824,121.62985,44,28,0
121.64516,122.36452,44,31,0
122.37982,122.73185,44,28,0
122.747154,123.466515,44,30,0
123.48182,123.85867,44,28,0
123.87505,124.6121,44,32,0
124.627785,124.988464,44,23,0
125.00415,125.7235,44,30,0
125.738815,126.10172,44,28,0
126.1175,126.83522,44,30,0
126.85026,127.22151,44,27,0
127.237656,127.93335,44,28,0
127.94824,128.3195,44,23,0
128.33563,129.066,44,28,0
129.08154,129.43895,44,28,0
129.45448,130.18484,44,32,0
130.20038,130.5578,44,29,0
130.57333,131.29384,44,32,0
131.30917,131.65973,44,26,0
131.67497,132.36768,44,30,0
132.3825,132.73875,44,28,0
132.75426,133.47476,44,31,0
133.49008,133.83865,44,28,0
133.8538,134.5561,44,30,0
134.57127,134.941,44,28,0
134.95706,135.69412,44,34,0
135.7098,136.07048,44,28,0
136.08617,136.82777,44,32,0
136.84355,137.95929,44,33,0
137.97496,138.33565,44,31,0
138.35133,139.06393,44,34,0
139.07892,139.44409,44,28,0
139.45996,140.17932,44,35,0
140.19463,140.54666,44,28,0
140.56197,141.28133,44,36,0
141.29663,141.64865,44,28,0
141.66396,142.37169,44,32,0
142.387,142.74097,44,28,0
142.75636,143.47136,44,30,0
143.48666,143.86353,44,28,0
143.8799,144.61694,44,32,0
144.63263,144.99332,44,27,0
145.009,145.72836,44,30,0
145.74367,146.10657,44,27,0
146.12236,146.83514,44,31,0
146.84998,147.21065,44,28,0
147.22633,147.93196,44,31,0
147.94717,148.30566,44,23,0
148.32124,152.84024,44,32,0
152.84024,155.1108,44,33,0
155.1108,157.36307,44,35,0
157.36307,158.11395,44,34,0
158.12993,158.49739,44,27,0
158.51337,159.26427,44,32,0
159.28024,159.6775,44,29,0
159.69478,160.44566,44,28,0
160.46164,160.82455,44,22,0
160.84033,161.59123,44,26,0
161.60721,161.96568,44,20,0
161.98128,162.67831,44,26,0
162.6933,163.07104,44,20,0
163.08746,163.83574,44,26,0
163.8521,164.21861,44,20,0
164.23454,164.97867,44,25,0
164.99435,165.34694,44,22,0
165.36227,166.11316,44,26,0
166.12914,166.48763,44,22,0
166.5032,167.23575,44,26,0
167.25133,167.60982,44,22,0
167.6254,168.35794,44,28,0
168.37354,168.74098,44,22,0
168.75696,169.49402,44,27,0
169.50969,169.87038,44,28,0
169.88606,170.58836,44,30,0
170.603,170.95386,44,28,0
170.96912,171.67746,44,32,0
171.69252,172.04668,44,31,0
172.06207,172.78578,44,35,0
172.80118,173.15532,44,23,0
173.17072,173.90778,44,26,0
173.92345,174.28413,44,27,0
174.29982,175.00423,44,29,0
175.01886,175.36671,44,30,0
175.38184,176.10553,44,32,0
176.12093,176.47508,44,31,0
176.49048,177.21419,44,34,0
177.22958,177.5961,44,22,0
177.61203,178.33342,44,32,0
178.34877,178.69157,44,27,0
178.70647,179.42285,44,28,0
179.4381,179.78473,44,25,0
179.7998,180.51617,44,28,0
180.53142,180.87805,44,25,0
180.89313,181.61363,44,28,0
181.62895,181.98155,44,25,0
181.99687,182.7213,44,32,0
182.73671,183.0913,44,26,0
183.10672,183.81105,44,31,0
183.82613,184.17871,44,23,0
184.19403,184.91774,44,30,0
184.93314,185.2873,44,26,0
185.30269,186.00317,44,28,0
186.01808,186.36865,44,26,0
186.38388,187.10759,44,29,0
187.12299,187.47714,44,23,0
187.49254,188.21623,44,27,0
188.23163,188.58578,44,25,0
188.60118,189.32487,44,27,0
189.34029,189.69443,44,23,0
189.70982,190.42918,44,33,0
190.44449,190.79652,44,28,0
190.81183,191.53119,44,35,0
191.5465,191.89851,44,31,0
191.91382,192.63318,44,35,0
192.64848,193.02533,44,31,0
193.04172,193.77876,44,31,0
193.79445,194.15514,44,23,0
194.1708,194.89017,44,27,0
194.90547,195.26839,44,23,0
195.28416,196.00189,44,28,0
196.01692,196.38345,44,23,0
196.39938,197.1025,44,27,0
197.1177,197.4762,44,23,0
197.49178,198.22432,44,28,0
198.23991,198.59839,44,23,0
198.61397,199.34651,44,27,0
199.3621,199.72058,44,22,0
199.73618,200.46872,44,28,0
200.4843,200.84277,44,26,0
200.85837,201.59091,44,29,0
201.60649,201.99844,44,22,0
202.01549,202.76639,44,26,0
202.78236,203.14528,44,27,0
203.16106,203.91194,44,30,0
203.92792,204.2864,44,23,0
204.30199,204.99904,44,27,0
205.014,205.39935,44,22,0
205.4161,206.15573,44,27,0
206.1717,206.53041,44,20,0
206.546,207.28336,44,26,0
207.29895,207.65742,44,27,0
207.67302,208.4239,44,29,0
208.43988,208.79837,44,27,0
208.81395,209.5465,44,29,0
209.56209,209.92056,44,27,0
209.93614,210.66869,44,29,0
210.68428,211.05174,44,22,0
211.06772,211.80476,44,28,0
211.82043,212.18112,44,22,0
212.19681,212.9023,44,25,0
212.91716,213.26501,44,22,0
213.28014,213.97044,44,28,0
213.98557,214.33972,44,27,0
214.35512,215.07881,44,29,0
215.09421,215.44836,44,28,0
215.46376,216.2008,44,31,0
216.21649,216.57718,44,22,0
216.59285,217.2943,44,27,0
217.30916,217.65701,44,22,0
217.67213,218.36723,44,28,0
218.38245,218.7366,44,27,0
218.752,219.47571,44,29,0
219.4911,219.84525,44,22,0
219.86066,220.58435,44,28,0
220.59975,220.94443,44,27,0
220.95941,221.67992,44,29,0
221.69525,222.04062,44,25,0
222.0556,222.7802,44,29,0
222.79562,223.14294,44,25,0
223.15802,223.88261,44,27,0
223.89803,224.25261,44,25,0
224.26804,224.99263,44,28,0
225.00804,225.35661,44,25,0
225.37177,226.06464,44,23,0
226.07967,226.43169,44,22,0
226.44699,227.1707,44,26,0
227.1861,227.53273,44,22,0
227.5478,228.24066,44,28,0
228.2557,228.62222,44,22,0
228.63815,229.364,44,27,0
229.37946,229.73465,44,27,0
229.75009,230.47594,44,30,0
230.49138,230.84659,44,25,0
230.86203,231.58788,44,29,0
231.60332,231.98442,44,23,0
232.00099,232.72034,44,31,0
232.73566,233.08768,44,28,0
233.10298,233.82234,44,33,0
233.83765,234.19505,44,28,0
234.2106,234.91165,44,31,0
234.92686,235.28311,44,28,0
235.2986,236.03566,44,33,0
236.05133,236.41202,44,23,0
236.4277,237.13292,44,27,0
237.14822,237.51114,44,23,0
237.52692,238.24463,44,28,0
238.25967,238.62035,44,22,0
238.63603,239.3468,44,25,0
239.36201,239.7911,44,23,0
239.80977,240.56067,44,28,0
240.57664,240.9441,44,24,0
240.96008,241.72525,44,28,0
241.74153,242.13348,44,25,0
242.15053,242.88757,44,28,0
242.90326,243.26395,44,23,0
243.27962,243.99045,44,22,0
244.00557,244.36183,44,26,0
244.37732,245.11893,44,22,0
245.1347,245.48328,44,23,0
245.49843,246.2067,44,22,0
246.22194,246.62186,44,25,0
246.63924,247.39014,44,28,0
247.40611,247.77357,44,25,0
247.78955,248.55472,44,28,0
248.571,248.96295,44,25,0
248.98,249.7216,44,31,0
249.73738,250.1003,44,28,0
250.11607,250.84409,44,33,0
250.85957,251.21582,44,28,0
251.23132,251.95932,44,33,0
251.97481,252.33107,44,26,0
252.34656,253.09277,44,25,0
253.10866,253.49796,44,23,0
253.51488,254.26578,44,28,0
254.28175,254.64922,44,24,0
254.66519,255.43036,44,27,0
255.44664,255.8548,44,24,0
255.87254,256.63287,44,26,0
256.64905,257.03012,44,18,0
257.0467,257.78967,44,22,0
257.80606,258.1903,44,18,0
258.20703,258.96735,44,25,0
258.98352,259.36523,44,20,0
259.38184,260.147,44,22,0
260.16327,260.56656,44,25,0
260.5841,261.3542,44,30,0
261.37057,261.7403,44,25,0
261.75638,262.53143,44,28,0
262.5479,262.91537,44,25,0
262.93137,263.6432,44,28,0
263.65854,264.0518,44,25,0
264.06888,264.8298,44,28,0
264.84628,265.2256,44,22,0
265.24207,266.01712,44,28,0
266.03363,266.4129,44,25,0
266.4294,269.95822,44,28,0
269.95822,270.75375,44,28,0
270.7707,271.14923,44,23,0
271.16568,271.95862,44,28,0
271.9755,272.35873,44,23,0
272.3754,273.16837,44,28,0
273.1852,273.55917,44,23,0
273.57544,274.35858,44,28,0
274.37524,274.75418,44,23,0
274.77063,275.5636,44,28,0
275.58047,275.96368,44,23,0
275.98035,276.77332,44,28,0
276.7902,277.16873,44,23,0
277.18518,277.9587,44,28,0
277.97516,278.3516,44,23,0
278.36795,279.14618,44,28,0
279.16275,279.54358,44,23,0
279.56015,280.35312,44,28,0
280.36996,280.7532,44,23,0
280.76987,281.56284,44,28,0
281.57968,281.96292,44,23,0
281.97958,284.8061,44,28,0
286.3959,288.74753,44,28,0
288.78067,291.13226,44,28,0
