start_time,end_time,note_value,velocity,instrument_program_number
0.1164235,0.20374112,58,81,0
0.232847,0.32016462,58,77,0
0.465694,0.5530116,57,77,0
0.5821175,0.66943514,58,73,0
0.8149645,0.9022821,54,84,0
0.931388,1.0285383,57,77,0
1.1773453,1.2646629,61,87,0
1.2937688,1.3810863,60,87,0
1.5274805,1.6154467,56,75,0
1.6447687,1.7327349,56,73,0
1.8793453,1.9673114,53,74,0
1.9966335,2.0845997,54,71,0
2.236416,2.3299673,58,72,0
2.3614774,2.457087,56,67,0
3.0221539,3.1094713,58,49,0
3.1385772,3.225895,58,47,0
3.3714242,3.458742,57,45,0
3.4878478,3.5751655,58,45,0
3.7206948,3.8080125,54,46,0
3.8371184,3.9323685,57,45,0
4.080542,4.1678596,61,47,0
4.1969657,4.284283,60,47,0
4.4319096,4.5208,56,46,0
4.5504303,4.639321,56,45,0
4.7874722,4.876363,53,45,0
4.905993,4.9948835,54,45,0
5.148298,5.242792,58,43,0
5.274611,5.371014,56,43,0
5.940677,6.0279946,54,72,0
6.0571003,6.1444182,57,71,0
6.2899475,6.377265,58,80,0
6.406371,6.4936886,60,80,0
6.639218,6.726536,63,85,0
6.7556415,6.852792,61,80,0
7.001599,7.0889163,60,77,0
7.1180224,7.20534,58,71,0
7.350869,7.4381866,56,81,0
7.467293,7.5546103,56,79,0
7.7001395,7.7874575,61,79,0
7.816563,7.9038806,60,84,0
8.054668,8.147043,56,79,0
8.178089,8.271842,58,79,0
8.837214,8.924532,54,43,0
8.953638,9.040956,57,43,0
9.186485,9.273803,58,45,0
9.302909,9.390226,60,45,0
9.535756,9.623074,63,47,0
9.652179,9.74933,61,47,0
9.898136,9.985455,60,45,0
10.01456,10.101877,58,45,0
10.247407,10.334724,56,49,0
10.363831,10.451148,56,49,0
10.596678,10.683995,61,46,0
10.713101,10.800419,60,46,0
10.950258,11.042439,56,46,0
11.073485,11.167673,58,46,0
11.629138,11.727443,70,70,0
11.629138,11.727443,66,62,0
11.760211,11.858516,70,62,0
11.760211,11.858516,66,55,0
11.891284,11.989136,70,63,0
11.891284,11.989136,66,57,0
12.021283,12.111947,66,63,0
12.021283,12.111947,70,71,0
12.142043,12.232,65,64,0
12.26184,12.351064,66,62,0
12.26184,12.351064,70,70,0
12.380673,12.469249,62,63,0
12.498774,12.58735,66,63,0
12.498774,12.58735,63,57,0
12.616875,12.708682,65,64,0
12.739284,12.82884,70,70,0
12.858692,12.948248,73,69,0
12.739284,12.9781,66,62,0
12.9781,13.067656,72,65,0
12.9781,13.067656,68,59,0
13.097507,13.189314,65,59,0
13.097507,13.189314,68,65,0
13.219916,13.311723,68,63,0
13.219916,13.311723,65,57,0
13.342325,13.438677,68,63,0
13.342325,13.438677,65,63,0
13.470794,13.559071,65,65,0
13.470794,13.559071,68,73,0
13.58859,13.677257,61,67,0
13.706886,13.795949,63,65,0
13.706886,13.795949,66,65,0
13.825683,13.916442,65,72,0
13.946925,14.038965,70,64,0
13.946925,14.038965,66,57,0
14.069896,14.1633,65,65,0
14.194694,14.606819,65,82,0
14.194694,14.606819,61,74,0
14.606819,14.7034025,70,45,0
14.606819,14.7034025,66,41,0
14.735597,14.83218,70,33,0
14.735597,14.83218,66,29,0
14.864374,14.962226,70,35,0
14.864374,14.962226,66,31,0
14.99433,15.084764,66,35,0
14.99433,15.084764,70,40,0
15.114645,15.203496,65,35,0
15.232839,15.320497,66,32,0
15.232839,15.320497,70,36,0
15.349715,15.437373,62,36,0
15.466593,15.55425,63,29,0
15.466593,15.55425,66,33,0
15.583469,15.675276,65,42,0
15.705878,15.795434,70,37,0
15.825286,15.914842,73,45,0
15.705878,15.944694,66,33,0
15.944694,16.03425,72,39,0
15.944694,16.03425,68,39,0
16.064102,16.155909,68,41,0
16.064102,16.155909,65,36,0
16.18651,16.278316,65,29,0
16.18651,16.278316,68,33,0
16.30892,16.405272,68,33,0
16.30892,16.405272,65,29,0
16.43739,16.525665,65,32,0
16.43739,16.525665,68,36,0
16.555183,16.64385,61,36,0
16.673481,16.762543,63,36,0
16.673481,16.762543,66,36,0
16.792276,16.883837,65,42,0
16.914608,17.007666,66,36,0
16.914608,17.007666,70,41,0
17.038942,17.133595,65,36,0
17.16546,17.595177,65,45,0
17.16546,17.595177,61,41,0
17.595177,17.685642,62,72,0
17.715704,17.805655,63,69,0
17.715704,17.805655,66,69,0
17.835554,17.92497,65,69,0
17.954716,18.043655,66,80,0
17.954716,18.043655,70,80,0
18.073301,18.162241,69,74,0
18.191889,18.28673,73,75,0
18.191889,18.28673,70,75,0
18.318342,18.407282,71,84,0
18.43693,18.52587,72,74,0
18.43693,18.52587,75,74,0
18.555515,18.644455,70,75,0
18.555515,18.644455,73,75,0
18.674103,18.763042,68,74,0
18.792688,18.881628,67,72,0
18.674103,18.911276,72,74,0
18.911276,19.000216,66,70,0
19.029861,19.120676,64,74,0
18.911276,19.150946,70,70,0
19.150946,19.24176,65,71,0
19.272032,19.362844,67,70,0
19.393116,19.482056,68,81,0
19.393116,19.63029,73,81,0
19.63029,19.719229,72,72,0
19.511703,19.748877,69,66,0
19.748877,19.840998,70,69,0
19.871706,19.963829,68,65,0
19.994535,20.089737,70,63,0
20.121471,20.532732,65,64,0
20.121471,20.532732,62,57,0
20.532732,20.622883,62,40,0
20.652838,20.74247,63,36,0
20.652838,20.74247,66,41,0
20.772264,20.861376,65,37,0
20.891022,20.979652,66,44,0
20.891022,20.979652,70,44,0
21.009197,21.097828,69,41,0
21.127373,21.222212,70,47,0
21.127373,21.222212,73,47,0
21.253826,21.342766,71,49,0
21.372414,21.461353,72,46,0
21.372414,21.461353,75,46,0
21.491,21.579939,70,44,0
21.491,21.579939,73,44,0
21.609587,21.698526,68,41,0
21.728172,21.817112,67,45,0
21.609587,21.846758,72,41,0
21.846758,21.9357,66,42,0
21.965345,22.05616,64,44,0
21.846758,22.08643,70,42,0
22.08643,22.177244,65,41,0
22.207516,22.298328,67,39,0
22.3286,22.41754,68,42,0
22.3286,22.565773,73,42,0
22.565773,22.654713,72,43,0
22.447187,22.68436,69,36,0
22.68436,22.775263,70,40,0
22.805809,22.898169,68,36,0
22.929205,23.023098,70,37,0
23.054705,23.467587,65,43,0
23.054705,23.467587,61,37,0
23.467587,23.592628,65,32,0
23.467587,23.592628,60,32,0
23.71767,23.842628,60,32,0
23.71767,23.842628,65,32,0
23.842628,23.966925,65,31,0
23.842628,23.966925,58,31,0
24.090256,24.212624,65,36,0
24.090256,24.212624,60,36,0
24.212624,24.334063,61,39,0
24.212624,24.334063,65,39,0
24.454575,24.574854,63,33,0
24.454575,24.574854,65,33,0
24.574854,24.695131,65,32,0
24.574854,24.695131,60,32,0
24.81541,24.93569,65,32,0
24.81541,24.93569,61,32,0
24.93569,25.05597,63,31,0
24.93569,25.05597,58,31,0
25.176249,25.296528,63,33,0
25.176249,25.296528,56,41,0
25.296528,25.416805,63,37,0
25.296528,25.416805,61,46,0
25.536777,25.657522,60,34,0
25.536777,25.657522,63,34,0
25.657522,25.779036,58,33,0
25.657522,25.779036,63,33,0
25.902046,26.02742,63,31,0
25.902046,26.02742,60,31,0
26.02742,26.153969,63,32,0
26.02742,26.153969,61,32,0
26.28052,26.418667,63,32,0
26.28052,26.418667,58,32,0
26.418667,26.543211,60,32,0
26.418667,26.543211,65,32,0
26.667753,26.792297,65,32,0
26.667753,26.792297,60,32,0
26.792297,26.91643,65,34,0
26.792297,26.91643,58,34,0
27.03952,27.161497,65,35,0
27.03952,27.161497,60,35,0
27.161497,27.28232,65,40,0
27.161497,27.28232,61,40,0
27.402214,27.522032,65,34,0
27.402214,27.522032,63,34,0
27.522032,27.64185,60,32,0
27.522032,27.64185,65,32,0
27.76167,27.881487,65,36,0
27.76167,27.881487,61,36,0
27.881487,28.001305,63,33,0
27.881487,28.001305,58,33,0
28.121122,28.24094,63,33,0
28.121122,28.24094,56,42,0
28.24094,28.360758,61,49,0
28.24094,28.360758,63,39,0
28.480576,28.600176,63,32,0
28.480576,28.600176,60,32,0
28.600176,28.720842,63,32,0
28.600176,28.720842,58,32,0
28.84251,28.9652,63,32,0
28.84251,28.9652,60,32,0
28.9652,29.08877,63,32,0
28.9652,29.08877,61,32,0
29.212337,29.355482,63,32,0
29.212337,29.355482,58,32,0
29.480524,29.605566,60,27,0
29.605566,29.730524,65,32,0
29.605566,29.730524,72,32,0
29.85482,29.978151,70,31,0
29.85482,29.978151,58,31,0
29.978151,30.10052,72,36,0
29.978151,30.10052,60,36,0
29.85482,30.10052,65,31,0
30.221958,30.34247,61,35,0
30.221958,30.34247,73,35,0
30.34247,30.462748,63,32,0
30.34247,30.462748,75,32,0
30.221958,30.462748,65,35,0
30.583027,30.703306,72,32,0
30.583027,30.703306,60,32,0
30.703306,30.823586,73,32,0
30.703306,30.823586,61,32,0
30.583027,30.823586,65,32,0
30.943865,31.064144,70,33,0
30.943865,31.064144,58,33,0
31.064144,31.184422,68,34,0
31.064144,31.184422,56,43,0
30.943865,31.184422,63,33,0
31.3047,31.424673,73,29,0
31.3047,31.424673,61,37,0
31.424673,31.545418,72,34,0
31.424673,31.545418,60,34,0
31.3047,31.545418,63,37,0
31.666931,31.789942,58,34,0
31.666931,31.789942,70,34,0
31.789942,31.915316,72,32,0
31.789942,31.915316,60,32,0
31.666931,31.915316,63,34,0
32.041866,32.168415,73,32,0
32.041866,32.168415,61,32,0
32.168415,32.30656,58,32,0
32.168415,32.30656,70,32,0
32.041866,32.30656,63,32,0
32.431602,32.556644,60,34,0
32.556644,32.681606,65,37,0
32.556644,32.681606,72,37,0
32.8059,32.92923,58,37,0
32.8059,32.92923,70,37,0
32.92923,33.0516,72,44,0
32.92923,33.0516,60,44,0
32.8059,33.0516,65,37,0
33.17304,33.29355,73,45,0
33.17304,33.29355,61,45,0
33.29355,33.41383,63,43,0
33.29355,33.41383,75,43,0
33.17304,33.41383,65,45,0
33.534107,33.65439,72,45,0
33.534107,33.65439,60,45,0
33.65439,33.774666,61,45,0
33.65439,33.774666,73,45,0
33.534107,33.774666,65,45,0
33.894943,34.015224,70,49,0
33.894943,34.015224,58,49,0
34.015224,34.1355,56,65,0
34.015224,34.1355,68,52,0
33.894943,34.1355,63,49,0
34.255783,34.375755,61,53,0
34.255783,34.375755,73,42,0
34.375755,34.4965,72,49,0
34.375755,34.4965,60,49,0
34.255783,34.4965,63,53,0
34.61801,34.74102,58,49,0
34.61801,34.74102,70,49,0
34.74102,34.866394,72,50,0
34.74102,34.866394,60,50,0
34.61801,34.866394,63,49,0
34.992947,35.119495,61,52,0
35.119495,35.267323,66,52,0
35.119495,35.267323,63,52,0
35.119495,35.267323,73,52,0
35.267323,35.36259,70,70,0
35.267323,35.36259,66,62,0
35.394344,35.489613,70,62,0
35.394344,35.489613,66,55,0
35.521366,35.619217,70,63,0
35.521366,35.619217,66,57,0
35.651367,35.742027,66,71,0
35.651367,35.742027,70,80,0
35.772125,35.862083,65,64,0
35.891922,35.981148,66,70,0
35.891922,35.981148,70,70,0
36.010754,36.09933,62,63,0
36.128857,36.217434,66,63,0
36.128857,36.217434,63,57,0
36.246956,36.338764,65,64,0
36.369366,36.45959,70,70,0
36.489666,36.579887,73,69,0
36.609962,36.700188,72,65,0
36.369366,36.730263,66,70,0
36.730263,36.822067,68,65,0
36.730263,36.822067,65,59,0
36.85267,36.944477,68,63,0
36.85267,36.944477,65,57,0
36.97508,37.07143,65,63,0
36.97508,37.07143,68,63,0
37.103546,37.191826,65,65,0
37.103546,37.191826,68,73,0
37.221344,37.31001,61,67,0
37.33964,37.428703,63,59,0
37.33964,37.428703,66,65,0
37.458435,37.549194,65,77,0
37.579678,37.67172,70,70,0
37.579678,37.67172,66,59,0
37.70265,37.800945,65,71,0
37.83371,38.250854,61,89,0
38.250854,38.346123,81,43,0
38.250854,38.346123,78,43,0
38.377876,38.473145,81,37,0
38.377876,38.473145,78,37,0
38.504898,38.60275,81,39,0
38.504898,38.60275,78,39,0
38.6349,38.725563,78,45,0
38.6349,38.725563,81,45,0
38.755657,38.845615,77,40,0
38.875454,38.96468,78,43,0
38.875454,38.96468,81,43,0
38.99429,39.082863,74,39,0
39.11239,39.200966,75,39,0
39.11239,39.200966,78,39,0
39.230488,39.322296,77,40,0
39.352898,39.442455,81,43,0
39.472305,39.561863,85,42,0
39.591713,39.68127,84,40,0
39.352898,39.71112,78,43,0
39.71112,39.80293,80,40,0
39.71112,39.80293,76,40,0
39.83353,39.92534,80,39,0
39.83353,39.92534,76,39,0
39.95594,40.05229,80,39,0
39.95594,40.05229,76,39,0
40.084408,40.172684,76,44,0
40.084408,40.172684,80,44,0
40.202206,40.29087,73,41,0
40.3205,40.409565,75,40,0
40.3205,40.409565,78,40,0
40.439297,40.530056,76,46,0
40.56054,40.65258,78,43,0
40.56054,40.65258,81,43,0
40.68351,40.776913,76,44,0
40.808308,41.230686,73,53,0
41.230686,41.32115,62,72,0
41.35121,41.441162,66,69,0
41.35121,41.441162,63,69,0
41.47106,41.56048,65,69,0
41.59022,41.67916,66,80,0
41.59022,41.67916,70,80,0
41.70881,41.79775,69,74,0
41.827396,41.922237,70,75,0
41.827396,41.922237,73,75,0
41.95385,42.04279,71,84,0
42.072437,42.161377,72,65,0
42.072437,42.161377,75,74,0
42.191025,42.279964,70,66,0
42.191025,42.279964,73,75,0
42.30961,42.39855,68,74,0
42.428196,42.517136,67,72,0
42.30961,42.546783,72,74,0
42.546783,42.635723,66,70,0
42.66537,42.756184,64,74,0
42.546783,42.786453,70,70,0
42.786453,42.87727,65,71,0
42.90754,42.998352,67,70,0
43.028625,43.117565,68,81,0
43.028625,43.265797,73,81,0
43.265797,43.354736,72,72,0
43.14721,43.384384,69,66,0
43.384384,43.476505,70,69,0
43.507214,43.599335,68,65,0
43.630043,43.725914,70,63,0
43.7579,44.173374,65,70,0
43.7579,44.173374,62,62,0
44.173374,44.26384,74,44,0
44.293903,44.383854,75,43,0
44.293903,44.383854,78,43,0
44.41375,44.503166,77,43,0
44.532913,44.621853,78,49,0
44.532913,44.621853,82,49,0
44.6515,44.74044,81,45,0
44.770084,44.864925,82,45,0
44.770084,44.864925,85,45,0
44.89654,44.98548,83,52,0
45.015125,45.104065,84,45,0
45.015125,45.104065,87,45,0
45.133713,45.222652,81,45,0
45.133713,45.222652,85,45,0
45.2523,45.34124,80,45,0
45.370888,45.459827,79,44,0
45.2523,45.48947,84,45,0
45.48947,45.57841,78,44,0
45.60806,45.69887,75,45,0
45.48947,45.729145,81,44,0
45.729145,45.819958,76,44,0
45.850227,45.941044,78,44,0
45.971313,46.062904,79,50,0
45.971313,46.215553,85,50,0
46.215553,46.307144,83,44,0
46.093433,46.337673,80,41,0
45.971313,46.337673,76,50,0
46.337673,46.432877,81,46,0
46.46461,46.55981,80,41,0
46.591545,46.692593,81,39,0
46.337673,46.72632,76,46,0
46.72632,47.165985,76,46,0
46.72632,47.165985,69,42,0
47.293007,47.38827,62,65,0
47.293007,47.38827,57,59,0
47.42003,47.51788,66,53,0
47.42003,47.51788,69,61,0
47.670788,47.760746,61,49,0
47.670788,47.760746,65,54,0
47.790585,47.879807,66,50,0
47.790585,47.879807,62,44,0
48.02752,48.116093,62,57,0
48.02752,48.116093,59,51,0
48.26803,48.357586,66,69,0
48.387436,48.476994,69,65,0
48.26803,48.506844,62,62,0
48.506844,48.5964,68,62,0
48.506844,48.5964,64,54,0
48.7517,48.845787,60,54,0
48.7517,48.845787,63,62,0
48.87715,48.973503,66,49,0
48.87715,48.973503,72,55,0
49.123413,49.212082,63,59,0
49.123413,49.212082,60,52,0
49.24171,49.330776,64,53,0
49.24171,49.330776,61,46,0
49.48175,49.57379,68,53,0
49.48175,49.57379,64,46,0
49.60472,49.698124,66,50,0
49.60472,49.698124,63,44,0
50.27398,50.369247,74,41,0
50.27398,50.369247,69,36,0
50.401,50.498856,78,36,0
50.401,50.498856,81,36,0
50.65176,50.74172,73,29,0
50.65176,50.74172,77,33,0
50.771557,50.860783,78,30,0
50.771557,50.860783,74,26,0
51.00849,51.09707,71,31,0
51.00849,51.09707,74,35,0
51.249,51.33856,78,43,0
51.36841,51.457966,81,41,0
51.249,51.48782,74,43,0
51.48782,51.577374,80,37,0
51.48782,51.577374,76,37,0
51.732674,51.826763,75,37,0
51.732674,51.826763,72,33,0
51.858124,51.954475,78,30,0
51.858124,51.954475,84,34,0
52.10439,52.193054,72,32,0
52.10439,52.193054,75,36,0
52.222687,52.31175,76,32,0
52.222687,52.31175,73,27,0
52.462723,52.554764,80,32,0
52.462723,52.554764,76,27,0
52.585693,52.6791,78,30,0
52.585693,52.6791,75,26,0
53.268677,53.36212,57,64,0
53.268677,53.36212,62,72,0
53.393646,53.483067,61,61,0
53.393646,53.483067,64,67,0
53.6314,53.72034,62,52,0
53.6314,53.72034,66,59,0
53.749985,53.838924,68,54,0
53.749985,53.838924,64,49,0
53.98716,54.0761,69,56,0
53.98716,54.0761,66,50,0
54.105743,54.194687,68,54,0
54.105743,54.194687,64,49,0
54.34292,54.431858,66,65,0
54.34292,54.431858,62,59,0
54.461506,54.553833,64,62,0
54.461506,54.553833,61,54,0
54.70795,54.80194,68,63,0
54.70795,54.80194,60,57,0
54.835384,54.92595,63,53,0
54.835384,54.92595,70,61,0
55.07826,55.16985,68,53,0
55.07826,55.16985,72,61,0
55.20038,55.29197,73,55,0
55.20038,55.29197,70,49,0
55.4473,55.541718,75,72,0
55.4473,55.541718,72,64,0
55.573326,55.668777,76,65,0
55.573326,55.668777,73,59,0
56.25895,56.35239,69,52,0
56.25895,56.35239,74,59,0
56.38392,56.473335,73,49,0
56.38392,56.473335,76,54,0
56.62167,56.71061,74,42,0
56.62167,56.71061,78,46,0
56.740253,56.829197,80,44,0
56.740253,56.829197,76,40,0
56.97743,57.06637,81,45,0
56.97743,57.06637,78,41,0
57.096016,57.184956,80,44,0
57.096016,57.184956,76,40,0
57.333187,57.422127,74,47,0
57.333187,57.422127,78,53,0
57.451775,57.5441,76,50,0
57.451775,57.5441,73,44,0
57.69822,57.79221,80,53,0
57.69822,57.79221,72,46,0
57.825657,57.91622,75,43,0
57.825657,57.91622,82,47,0
58.068527,58.16012,80,43,0
58.068527,58.16012,84,47,0
58.190647,58.282238,82,40,0
58.190647,58.282238,85,44,0
58.43757,58.531986,87,59,0
58.43757,58.531986,84,52,0
58.563595,58.659046,88,53,0
58.563595,58.659046,85,47,0
59.246952,59.340393,86,47,0
59.246952,59.340393,81,43,0
59.37192,59.46134,88,44,0
59.37192,59.46134,85,40,0
59.609673,59.698612,86,36,0
59.609673,59.698612,90,42,0
59.72826,59.8172,92,40,0
59.72826,59.8172,88,35,0
59.965435,60.08402,93,41,0
59.965435,60.08402,90,36,0
60.08402,60.2025,92,40,0
60.08402,60.2025,88,35,0
60.2025,60.32106,90,40,0
60.2025,60.32106,86,35,0
60.32106,60.440605,85,41,0
60.32106,60.440605,88,45,0
60.440605,60.68165,86,42,0
60.440605,60.68165,83,36,0
60.68165,60.80146,85,49,0
60.68165,60.80146,82,44,0
60.80146,61.038982,83,44,0
60.80146,61.038982,86,50,0
61.038982,61.15676,84,45,0
61.038982,61.15676,87,51,0
61.15676,61.391228,85,45,0
61.15676,61.391228,88,52,0
61.391228,61.50846,86,46,0
61.391228,61.50846,89,53,0
61.50846,61.742928,90,53,0
61.50846,61.742928,87,47,0
61.742928,61.86016,88,49,0
61.742928,61.86016,91,55,0
61.86016,62.094593,89,50,0
61.86016,62.094593,92,56,0
62.094593,62.21144,90,51,0
62.094593,62.21144,93,57,0
62.21144,62.446262,91,52,0
62.21144,62.446262,94,59,0
62.446262,62.565643,92,53,0
62.446262,62.565643,95,60,0
62.565643,62.68682,93,53,0
62.565643,62.68682,96,61,0
62.68682,62.8098,97,62,0
62.68682,62.8098,94,54,0
62.8098,62.934685,95,55,0
62.8098,62.934685,98,62,0
62.934685,63.06147,96,55,0
62.934685,63.06147,99,62,0
63.06147,63.317356,97,65,0
63.06147,63.317356,100,73,0
64.83223,65.12083,60,45,0
65.12083,65.26513,60,42,0
65.26513,65.55373,58,45,0
65.55373,65.7027,60,42,0
65.7027,65.98495,61,47,0
65.98495,66.12607,63,44,0
66.12607,66.40832,60,47,0
66.40832,66.55392,61,44,0
66.55392,66.838684,58,45,0
66.99266,67.27245,61,47,0
67.27245,67.41235,60,44,0
67.41235,67.723434,58,47,0
67.723434,67.87036,60,44,0
67.41235,67.87036,56,47,0
67.87036,68.17112,61,47,0
68.17112,68.33042,61,45,0
67.87036,68.33042,55,47,0
68.33042,68.6203,60,45,0
68.6203,68.76524,60,42,0
68.76524,69.05513,58,45,0
69.05513,69.2041,60,42,0
68.33042,69.2041,54,47,0
69.2041,69.49011,61,47,0
69.2041,69.49011,54,36,0
69.49011,69.63312,63,44,0
69.63312,69.92834,60,47,0
69.63312,69.92834,54,36,0
69.92834,70.08086,61,44,0
70.08086,70.36816,58,47,0
70.522125,70.80943,61,47,0
70.80943,70.95308,60,44,0
70.08086,70.95308,53,47,0
70.95308,71.2669,58,47,0
71.2669,71.41657,60,44,0
70.95308,71.41657,53,47,0
71.41657,71.729004,61,47,0
71.729004,71.902,63,45,0
71.41657,71.902,53,47,0
71.902,72.19721,65,50,0
72.19721,72.344826,65,45,0
72.344826,72.64004,63,50,0
72.64004,72.78901,65,45,0
71.902,72.78901,59,50,0
72.78901,73.07503,66,53,0
73.07503,73.21803,68,46,0
73.21803,73.50405,65,53,0
73.50405,73.64965,66,47,0
72.78901,73.64965,56,50,0
73.64965,73.93442,63,50,0
73.93442,74.08839,61,45,0
74.08839,74.37189,66,53,0
74.37189,74.51364,65,47,0
73.64965,74.51364,54,50,0
74.51364,74.824715,63,53,0
74.824715,74.97165,65,47,0
74.51364,74.97165,54,53,0
74.97165,75.27099,66,53,0
75.27099,75.43029,66,50,0
74.97165,75.43029,63,53,0
75.43029,75.718895,67,54,0
75.718895,75.86319,67,50,0
75.86319,76.151794,65,54,0
76.151794,76.300766,67,50,0
75.43029,76.300766,61,54,0
76.300766,76.58301,68,57,0
76.58301,76.72414,70,52,0
76.72414,77.00638,67,57,0
77.00638,77.151985,68,53,0
76.300766,77.151985,61,54,0
77.151985,77.43675,65,54,0
77.43675,77.59072,64,52,0
77.59072,77.87052,68,59,0
77.87052,78.01042,67,54,0
77.151985,78.01042,61,54,0
78.01042,78.321495,65,61,0
78.321495,78.46843,67,55,0
78.01042,78.46843,61,61,0
78.46843,78.76228,68,62,0
78.46843,78.76228,65,62,0
78.76228,78.92159,70,59,0
78.76228,78.92159,67,59,0
78.46843,78.92159,61,62,0
79.04565,79.13775,72,50,0
79.04565,79.13775,60,44,0
79.04565,79.13775,63,44,0
79.04565,79.13775,66,50,0
79.28957,79.37958,72,50,0
79.28957,79.37958,60,44,0
79.28957,79.37958,63,44,0
79.28957,79.37958,66,50,0
79.52959,79.62164,72,57,0
79.52959,79.62164,60,51,0
79.52959,79.62164,63,51,0
79.52959,79.62164,66,57,0
79.783775,79.87135,63,55,0
79.783775,79.87135,66,55,0
79.783775,79.87135,75,62,0
80.02562,80.11765,72,53,0
80.02562,80.11765,60,47,0
80.02562,80.11765,63,47,0
80.02562,80.11765,66,53,0
80.271034,80.3754,72,45,0
80.271034,80.3754,60,41,0
80.271034,80.3754,63,41,0
80.271034,80.3754,66,45,0
80.53477,80.627426,70,50,0
80.53477,80.627426,58,44,0
80.53477,80.627426,61,44,0
80.53477,80.627426,65,50,0
80.780136,80.87089,73,50,0
80.780136,80.87089,61,44,0
80.780136,80.87089,65,44,0
80.780136,80.87089,68,50,0
81.02113,81.11201,73,50,0
81.02113,81.11201,61,44,0
81.02113,81.11201,65,44,0
81.02113,81.11201,68,50,0
81.26498,81.35771,58,46,0
81.26498,81.35771,67,53,0
81.26498,81.35771,70,53,0
81.26498,81.35771,64,53,0
81.513626,81.60602,73,62,0
81.513626,81.60602,61,55,0
81.513626,81.60602,64,55,0
81.513626,81.60602,67,62,0
81.75967,81.875565,70,53,0
81.75967,81.875565,58,47,0
81.75967,81.875565,64,47,0
81.75967,81.875565,67,53,0
82.03333,82.12556,72,54,0
82.03333,82.12556,60,44,0
82.03333,82.12556,63,44,0
82.03333,82.12556,66,49,0
82.27819,82.36906,72,53,0
82.27819,82.36906,60,43,0
82.27819,82.36906,63,43,0
82.27819,82.36906,66,47,0
82.520096,82.611725,72,61,0
82.520096,82.611725,60,47,0
82.520096,82.611725,63,47,0
82.520096,82.611725,66,53,0
82.76615,82.85986,63,49,0
82.76615,82.85986,66,49,0
82.76615,82.85986,75,62,0
83.01412,83.10151,72,53,0
83.01412,83.10151,60,42,0
83.01412,83.10151,63,42,0
83.01412,83.10151,66,46,0
83.247154,83.363045,72,50,0
83.247154,83.363045,60,40,0
83.247154,83.363045,63,40,0
83.247154,83.363045,66,44,0
83.52574,83.618004,70,54,0
83.52574,83.618004,58,44,0
83.52574,83.618004,61,44,0
83.52574,83.618004,65,49,0
83.77009,83.860466,73,53,0
83.77009,83.860466,61,43,0
83.77009,83.860466,65,43,0
83.77009,83.860466,68,53,0
84.01009,84.10068,73,53,0
84.01009,84.10068,61,43,0
84.01009,84.10068,65,43,0
84.01009,84.10068,68,47,0
84.253265,84.34583,58,44,0
84.253265,84.34583,64,44,0
84.253265,84.34583,67,49,0
84.253265,84.34583,70,54,0
84.501305,84.5937,73,65,0
84.501305,84.5937,65,52,0
84.501305,84.5937,61,52,0
84.74769,84.85724,70,54,0
84.74769,84.85724,66,49,0
84.74769,84.85724,58,44,0
85.012825,85.10395,77,63,0
85.012825,85.10395,65,49,0
85.012825,85.10395,68,49,0
85.012825,85.10395,71,56,0
85.254,85.34291,71,54,0
85.254,85.34291,77,63,0
85.254,85.34291,65,47,0
85.254,85.34291,68,47,0
85.49054,85.58018,77,67,0
85.49054,85.58018,65,53,0
85.49054,85.58018,68,53,0
85.49054,85.58018,71,61,0
85.740135,85.827866,68,60,0
85.740135,85.827866,71,65,0
85.740135,85.827866,80,74,0
85.97982,86.069695,77,64,0
85.97982,86.069695,65,52,0
85.97982,86.069695,68,52,0
85.97982,86.069695,71,57,0
86.2195,86.32032,77,57,0
86.2195,86.32032,65,45,0
86.2195,86.32032,68,45,0
86.2195,86.32032,71,51,0
86.476776,86.5679,75,63,0
86.476776,86.5679,63,49,0
86.476776,86.5679,66,49,0
86.476776,86.5679,70,56,0
86.71795,86.80686,78,62,0
86.71795,86.80686,66,47,0
86.71795,86.80686,70,47,0
86.71795,86.80686,73,54,0
86.9541,87.04321,78,62,0
86.9541,87.04321,66,47,0
86.9541,87.04321,70,47,0
86.9541,87.04321,73,54,0
87.1933,87.28433,63,49,0
87.1933,87.28433,66,49,0
87.1933,87.28433,70,56,0
87.1933,87.28433,75,63,0
87.43963,87.53203,78,79,0
87.43963,87.53203,70,62,0
87.43963,87.53203,66,62,0
87.68266,87.78905,75,63,0
87.68266,87.78905,66,49,0
87.68266,87.78905,63,49,0
87.68266,87.78905,70,56,0
87.947014,88.038055,79,69,0
87.947014,88.038055,67,54,0
87.947014,88.038055,70,54,0
87.947014,88.038055,73,62,0
88.18818,88.2773,73,60,0
88.18818,88.2773,79,70,0
88.18818,88.2773,67,53,0
88.18818,88.2773,70,53,0
88.42584,88.51556,79,75,0
88.42584,88.51556,67,61,0
88.42584,88.51556,70,61,0
88.42584,88.51556,73,66,0
88.66585,88.75529,70,63,0
88.66585,88.75529,73,72,0
88.66585,88.75529,82,81,0
88.90955,89.00158,79,77,0
88.90955,89.00158,67,62,0
88.90955,89.00158,70,62,0
88.90955,89.00158,73,69,0
89.15497,89.25579,79,66,0
89.15497,89.25579,67,53,0
89.15497,89.25579,70,53,0
89.15497,89.25579,73,60,0
89.40991,89.50049,77,75,0
89.40991,89.50049,65,60,0
89.40991,89.50049,70,60,0
89.40991,89.50049,73,66,0
89.64984,89.738396,80,71,0
89.64984,89.738396,68,56,0
89.64984,89.738396,70,56,0
89.64984,89.738396,73,63,0
89.88536,89.974556,80,71,0
89.88536,89.974556,68,56,0
89.88536,89.974556,70,56,0
89.88536,89.974556,73,63,0
90.12505,90.216515,66,60,0
90.12505,90.216515,70,60,0
90.12505,90.216515,73,66,0
90.12505,90.216515,77,75,0
90.372696,90.4668,79,79,0
90.372696,90.4668,73,63,0
90.372696,90.4668,67,63,0
90.372696,90.4668,77,79,0
90.623634,90.71774,81,83,0
90.623634,90.71774,73,65,0
90.623634,90.71774,69,65,0
90.623634,90.71774,77,74,0
90.87613,90.9714,61,86,0
90.87613,90.9714,58,80,0
91.00315,91.101006,66,72,0
91.00315,91.101006,70,80,0
91.253914,91.343864,65,71,0
91.253914,91.343864,69,71,0
91.37371,91.46293,66,61,0
91.37371,91.46293,70,65,0
91.61064,91.69922,63,69,0
91.61064,91.69922,66,75,0
91.85115,91.940704,70,84,0
91.97056,92.06011,73,82,0
91.85115,92.089966,66,75,0
92.089966,92.17952,72,80,0
92.089966,92.17952,68,71,0
92.33482,92.42891,61,81,0
92.33482,92.42891,56,73,0
92.46027,92.556625,65,66,0
92.46027,92.556625,68,73,0
92.706535,92.795204,65,77,0
92.706535,92.795204,61,71,0
92.82484,92.913895,66,69,0
92.82484,92.913895,63,63,0
93.06487,93.15691,70,69,0
93.06487,93.15691,66,63,0
93.18784,93.28125,68,65,0
93.18784,93.28125,65,61,0
93.85179,93.94706,73,79,0
93.85179,93.94706,70,71,0
93.97881,94.07666,78,63,0
93.97881,94.07666,82,71,0
94.22957,94.31953,77,59,0
94.22957,94.31953,81,63,0
94.349365,94.43859,78,53,0
94.349365,94.43859,82,59,0
94.5863,94.67488,75,62,0
94.5863,94.67488,78,67,0
94.82681,94.91637,82,79,0
94.94622,95.035774,85,74,0
94.82681,95.06563,78,70,0
95.06563,95.15518,84,71,0
95.06563,95.15518,80,63,0
95.310486,95.40457,73,71,0
95.310486,95.40457,68,64,0
95.435936,95.53229,77,61,0
95.435936,95.53229,80,65,0
95.6822,95.77087,77,69,0
95.6822,95.77087,73,63,0
95.8005,95.88956,78,62,0
95.8005,95.88956,75,55,0
96.040535,96.132576,82,62,0
96.040535,96.132576,78,55,0
96.163506,96.25691,80,59,0
96.163506,96.25691,77,53,0
96.8267,96.92279,75,86,0
96.8267,96.92279,66,77,0
96.8267,96.92279,70,77,0
96.8267,96.92279,78,86,0
96.95476,97.20862,68,81,0
96.95476,97.20862,80,81,0
97.20862,97.30833,69,83,0
97.20862,97.30833,81,94,0
97.20862,97.30833,78,94,0
97.20862,97.30833,75,83,0
97.34156,97.44934,70,77,0
97.34156,97.44934,82,86,0
97.48527,97.58344,75,92,0
97.48527,97.58344,78,92,0
97.48527,97.58344,87,103,0
97.6155,97.71076,74,79,0
97.6155,97.71076,86,87,0
97.74234,97.83679,73,84,0
97.74234,97.83679,85,95,0
97.86824,97.96261,84,85,0
97.86824,97.96261,72,76,0
97.994064,98.088165,83,87,0
97.994064,98.088165,71,79,0
98.11962,98.214485,70,79,0
98.11962,98.214485,82,87,0
98.246284,98.34382,69,77,0
98.246284,98.34382,77,86,0
98.246284,98.34382,81,86,0
98.37633,98.473854,68,71,0
98.37633,98.473854,80,79,0
98.50636,98.76222,85,87,0
98.50636,98.76222,73,79,0
98.88804,98.9824,71,69,0
98.88804,98.9824,83,77,0
98.76222,99.013855,84,73,0
98.76222,99.013855,78,73,0
98.76222,99.013855,72,66,0
99.013855,99.11348,70,64,0
99.013855,99.11348,77,72,0
99.013855,99.11348,82,72,0
99.14668,99.2463,68,62,0
99.14668,99.2463,80,70,0
99.27951,99.38268,70,59,0
99.27951,99.38268,82,64,0
99.417076,99.85981,65,63,0
99.417076,99.85981,77,70,0
99.417076,99.85981,74,70,0
99.417076,99.85981,68,63,0
99.98967,100.08576,87,81,0
99.98967,100.08576,78,73,0
99.98967,100.08576,82,73,0
99.98967,100.08576,90,81,0
100.11774,100.37159,80,67,0
100.11774,100.37159,92,76,0
100.37159,100.47219,81,89,0
100.37159,100.47219,93,89,0
100.37159,100.47219,90,89,0
100.37159,100.47219,87,89,0
100.50572,100.61099,82,73,0
100.50572,100.61099,94,81,0
100.64608,100.74411,87,90,0
100.64608,100.74411,90,90,0
100.64608,100.74411,99,94,0
100.7764,100.872314,86,74,0
100.7764,100.872314,98,82,0
100.904106,100.9992,85,80,0
100.904106,100.9992,97,90,0
101.03078,101.12551,96,83,0
101.03078,101.12551,84,74,0
101.15718,101.25244,95,85,0
101.15718,101.25244,83,76,0
101.28428,101.38011,82,74,0
101.28428,101.38011,94,82,0
101.41217,101.5097,81,76,0
101.41217,101.5097,89,85,0
101.41217,101.5097,93,85,0
101.542206,101.63974,80,67,0
101.542206,101.63974,92,75,0
101.67225,101.9281,97,82,0
101.67225,101.9281,85,74,0
102.053925,102.148285,83,65,0
102.053925,102.148285,95,74,0
101.9281,102.17974,96,65,0
101.9281,102.17974,90,59,0
101.9281,102.17974,84,57,0
102.17974,102.27936,82,63,0
102.17974,102.27936,89,70,0
102.17974,102.27936,94,70,0
102.31257,102.412186,80,59,0
102.31257,102.412186,92,66,0
102.44539,102.54856,82,55,0
102.44539,102.54856,94,63,0
102.582954,103.02166,77,56,0
102.582954,103.02166,89,63,0
102.582954,103.02166,86,63,0
102.582954,103.02166,80,56,0
103.02166,103.11445,50,51,0
103.14529,103.2373,51,47,0
103.14529,103.2373,54,47,0
103.26788,103.35913,53,47,0
103.389465,103.48009,54,54,0
103.389465,103.48009,58,54,0
103.51029,103.60092,57,52,0
103.63113,103.72729,61,52,0
103.63113,103.72729,58,52,0
103.759346,103.84997,59,52,0
103.88017,103.970795,63,60,0
103.88017,103.970795,60,46,0
104.00101,104.09163,61,52,0
104.00101,104.09163,58,41,0
104.12183,104.21152,60,52,0
104.12183,104.21152,56,41,0
104.241684,104.332726,55,52,0
104.363266,104.455444,58,51,0
104.363266,104.455444,54,51,0
104.48629,104.57868,52,51,0
104.6094,104.70123,56,47,0
104.6094,104.70123,53,47,0
104.731735,104.82298,55,47,0
104.85332,104.94394,60,56,0
104.85332,104.94394,56,56,0
104.974144,105.06477,59,53,0
105.09498,105.19114,63,53,0
105.09498,105.19114,60,53,0
105.2232,105.31382,60,52,0
105.344025,105.43465,65,60,0
105.344025,105.43465,61,46,0
105.46486,105.555435,63,55,0
105.46486,105.555435,60,44,0
105.58552,105.676186,61,57,0
105.58552,105.676186,58,45,0
105.70652,105.79814,57,53,0
105.82886,105.921425,60,53,0
105.82886,105.921425,56,53,0
105.952484,106.042946,53,51,0
106.07301,106.162964,58,47,0
106.07301,106.162964,54,47,0
106.192856,106.28227,57,47,0
106.31202,106.40096,61,54,0
106.31202,106.40096,58,54,0
106.43061,106.51955,60,52,0
106.549194,106.644035,61,52,0
106.549194,106.644035,65,52,0
106.67565,106.76459,62,52,0
106.794235,106.88318,63,46,0
106.794235,106.88318,66,60,0
106.91282,107.00176,61,41,0
106.91282,107.00176,65,52,0
107.03141,107.11988,60,41,0
107.03141,107.11988,63,52,0
107.14948,107.238556,59,52,0
107.26835,107.36205,58,51,0
107.26835,107.36205,61,51,0
107.39252,107.48146,64,52,0
107.51111,107.600044,65,46,0
107.51111,107.600044,68,60,0
107.62969,107.718636,63,41,0
107.62969,107.718636,66,52,0
107.748276,107.836754,61,41,0
107.748276,107.836754,65,52,0
107.866356,107.95542,59,52,0
107.98522,108.07637,60,51,0
107.98522,108.07637,63,51,0
108.107864,108.1968,65,52,0
108.22645,108.31539,66,46,0
108.22645,108.31539,70,60,0
108.34503,108.433975,65,41,0
108.34503,108.433975,68,52,0
108.46362,108.5521,63,41,0
108.46362,108.5521,66,52,0
108.581696,108.67077,62,52,0
108.70056,108.79028,61,51,0
108.70056,108.79028,65,51,0
108.82032,108.90911,62,53,0
108.938614,109.02689,63,50,0
108.938614,109.02689,66,50,0
109.056244,109.144005,65,50,0
109.173195,109.26048,66,57,0
109.173195,109.26048,70,57,0
109.28957,109.376854,69,53,0
109.40595,109.49905,73,54,0
109.40595,109.49905,70,54,0
109.530075,109.617355,71,54,0
109.646454,109.733734,75,63,0
109.646454,109.733734,72,50,0
109.76283,109.85011,73,54,0
109.76283,109.85011,70,44,0
109.8792,109.96604,72,54,0
109.8792,109.96604,68,44,0
109.995094,110.08252,67,55,0
110.11176,110.19982,70,54,0
110.11176,110.19982,66,54,0
110.2293,110.31809,64,59,0
110.347595,110.435875,68,54,0
110.347595,110.435875,65,54,0
110.465225,110.552986,67,54,0
110.58218,110.669464,72,65,0
110.58218,110.669464,68,65,0
110.698555,110.78584,71,62,0
110.81493,110.90803,75,62,0
110.81493,110.90803,72,62,0
110.93906,111.02634,72,61,0
111.055435,111.142715,77,69,0
111.055435,111.142715,73,54,0
111.171814,111.259094,75,65,0
111.171814,111.259094,72,52,0
111.28819,111.37503,73,67,0
111.28819,111.37503,70,53,0
111.404076,111.4915,69,63,0
111.520744,111.6088,72,62,0
111.520744,111.6088,68,62,0
111.63829,111.72512,65,63,0
111.753975,111.84032,70,61,0
111.753975,111.84032,66,61,0
111.86902,111.95484,69,61,0
111.9834,112.068756,73,70,0
111.9834,112.068756,70,70,0
112.09721,112.18258,72,66,0
112.21103,112.30207,73,66,0
112.21103,112.30207,77,66,0
112.33242,112.417786,74,66,0
112.446236,112.5316,75,62,0
112.446236,112.5316,78,79,0
112.56006,112.64542,73,54,0
112.56006,112.64542,77,69,0
112.673874,112.7588,72,54,0
112.673874,112.7588,75,69,0
112.78721,112.8727,71,70,0
112.901306,112.98743,70,69,0
112.901306,112.98743,73,69,0
113.01626,113.103096,76,74,0
113.13195,113.21829,77,67,0
113.13195,113.21829,80,85,0
113.24699,113.33282,75,59,0
113.24699,113.33282,78,74,0
113.361374,113.44672,73,60,0
113.361374,113.44672,77,75,0
113.47524,113.56132,71,75,0
113.59018,113.68122,72,74,0
113.59018,113.68122,75,74,0
113.71157,113.796936,77,80,0
113.825386,113.91075,78,72,0
113.825386,113.91075,82,90,0
113.93921,114.02457,77,63,0
113.93921,114.02457,80,80,0
114.053024,114.13795,75,63,0
114.053024,114.13795,78,80,0
114.16636,114.251854,74,81,0
114.28046,114.377495,73,79,0
114.28046,114.377495,77,79,0
114.4081,114.503365,66,103,0
114.53512,114.63039,78,100,0
114.53512,114.63039,74,87,0
114.79214,114.882805,86,79,0
114.79214,114.882805,90,91,0
114.66214,114.912895,78,79,0
114.912895,115.00285,77,68,0
114.912895,115.00285,89,78,0
114.912895,115.00285,85,68,0
115.0327,115.12197,78,66,0
115.0327,115.12197,90,77,0
115.0327,115.12197,86,66,0
115.15171,115.240906,73,82,0
115.15171,115.240906,82,82,0
115.15171,115.240906,85,96,0
115.270645,115.35984,83,72,0
115.270645,115.35984,86,83,0
115.270645,115.35984,74,72,0
115.38958,115.481384,77,68,0
115.38958,115.481384,89,79,0
115.511986,115.60336,78,79,0
115.511986,115.60336,86,79,0
115.511986,115.60336,90,91,0
115.63382,115.72713,81,77,0
115.63382,115.72713,90,77,0
115.63382,115.72713,93,87,0
115.758224,115.85153,80,77,0
115.758224,115.85153,92,87,0
115.758224,115.85153,88,77,0
115.88264,115.97672,64,98,0
116.00809,116.10217,76,94,0
116.00809,116.10217,73,81,0
116.262,116.35188,85,87,0
116.262,116.35188,88,101,0
116.13354,116.38192,76,74,0
116.38192,116.47229,85,78,0
116.38192,116.47229,81,68,0
116.38192,116.47229,73,68,0
116.5025,116.593414,86,74,0
116.5025,116.593414,83,64,0
116.5025,116.593414,74,64,0
116.62383,116.71875,76,83,0
116.62383,116.71875,85,83,0
116.62383,116.71875,88,96,0
116.7504,116.847404,90,79,0
116.7504,116.847404,78,68,0
116.87974,116.976746,88,77,0
116.87974,116.976746,76,66,0
117.008896,117.440674,81,74,0
117.008896,117.440674,85,86,0
117.008896,117.440674,73,74,0
117.440674,117.53065,61,55,0
117.560486,117.6494,62,51,0
117.560486,117.6494,66,51,0
117.67888,117.76692,64,46,0
117.79609,117.8832,66,60,0
117.79609,117.8832,69,60,0
117.91222,117.99926,68,56,0
118.028275,118.123116,69,60,0
118.028275,118.123116,74,60,0
118.154724,118.24177,71,63,0
118.27078,118.35782,73,60,0
118.27078,118.35782,75,60,0
118.38683,118.47388,70,62,0
118.38683,118.47388,73,62,0
118.50289,118.58993,68,56,0
118.61894,118.705986,67,53,0
118.50289,118.735,73,56,0
118.735,118.82204,66,51,0
118.85105,118.941864,64,53,0
118.735,118.97214,71,51,0
118.97214,119.06295,65,53,0
118.97214,119.06295,68,53,0
119.09322,119.18404,67,52,0
119.21431,119.303246,68,60,0
119.21431,119.45148,73,60,0
119.45148,119.54042,73,51,0
119.33289,119.57007,69,50,0
119.57007,119.66219,70,49,0
119.692894,119.78502,68,46,0
119.81573,119.9116,70,45,0
119.94359,120.36102,65,54,0
119.94359,120.36102,62,54,0
120.36102,120.45629,78,93,0
120.488045,120.58331,90,81,0
120.488045,120.58331,86,72,0
120.74506,120.83573,98,74,0
120.74506,120.83573,102,77,0
120.61507,120.86583,90,74,0
120.86583,120.95578,89,57,0
120.86583,120.95578,101,66,0
120.86583,120.95578,97,64,0
120.98563,121.074905,90,55,0
120.98563,121.074905,102,64,0
120.98563,121.074905,98,62,0
121.10464,121.19384,85,70,0
121.10464,121.19384,94,78,0
121.10464,121.19384,97,78,0
121.22357,121.312775,95,69,0
121.22357,121.312775,98,69,0
121.22357,121.312775,86,61,0
121.34251,121.43431,89,58,0
121.34251,121.43431,101,66,0
121.46491,121.55629,90,67,0
121.46491,121.55629,98,74,0
121.46491,121.55629,102,77,0
121.58675,121.68005,93,63,0
121.58675,121.68005,102,74,0
121.58675,121.68005,105,74,0
121.71115,121.80446,92,63,0
121.71115,121.80446,104,74,0
121.71115,121.80446,100,74,0
121.83556,121.92965,76,93,0
121.96101,122.0551,88,77,0
121.96101,122.0551,85,69,0
122.214935,122.30481,97,77,0
122.214935,122.30481,100,85,0
122.086464,122.334854,88,70,0
122.334854,122.425224,97,64,0
122.334854,122.425224,93,64,0
122.334854,122.425224,85,57,0
122.45543,122.54634,98,61,0
122.45543,122.54634,95,61,0
122.45543,122.54634,86,54,0
122.57676,122.671684,88,71,0
122.57676,122.671684,97,78,0
122.57676,122.671684,100,81,0
122.70332,122.80033,102,66,0
122.70332,122.80033,90,58,0
122.832664,122.92967,100,64,0
122.832664,122.92967,88,55,0
122.96182,123.3936,93,70,0
122.96182,123.3936,97,70,0
122.96182,123.3936,85,62,0
123.3936,123.482994,73,53,0
123.51271,123.6013,74,49,0
123.51271,123.6013,78,49,0
123.63071,123.718475,76,46,0
123.747604,123.83465,78,61,0
123.747604,123.83465,81,61,0
123.863655,123.9507,80,53,0
123.97971,124.072624,81,55,0
123.97971,124.072624,86,55,0
124.1036,124.190636,83,62,0
124.21965,124.306694,84,53,0
124.21965,124.306694,87,53,0
124.33571,124.422745,82,60,0
124.33571,124.422745,85,60,0
124.45176,124.5388,80,53,0
124.56782,124.654854,79,52,0
124.45176,124.68387,84,53,0
124.68387,124.77091,78,50,0
124.79993,124.89074,76,52,0
124.68387,124.921005,83,50,0
124.921005,125.011826,77,44,0
124.921005,125.011826,80,49,0
125.04209,125.132904,79,47,0
125.16318,125.25212,80,61,0
125.16318,125.40035,85,61,0
125.40035,125.48929,85,53,0
125.28177,125.518936,81,55,0
125.518936,125.61106,82,50,0
125.64177,125.73389,80,49,0
125.764595,125.86047,82,46,0
125.892456,126.30372,77,54,0
125.892456,126.30372,73,54,0
126.30372,126.43306,94,67,0
126.43306,126.5624,92,56,0
126.5624,126.69175,94,56,0
126.30372,126.69175,85,61,0
126.69175,127.0958,85,60,0
126.69175,127.0958,89,66,0
127.0958,127.22458,70,66,0
127.22458,127.35336,68,59,0
127.35336,127.48214,70,57,0
127.0958,127.48214,61,60,0
127.48214,127.89374,61,57,0
127.48214,127.89374,65,64,0
128.8041,131.47342,73,90,0
128.8041,131.47342,85,90,0
128.8041,131.47342,56,75,0
128.8041,131.47342,61,75,0
128.8041,131.47342,53,75,0
128.8041,131.47342,80,90,0
128.8041,131.47342,65,75,0
132.79665,133.7862,59,44,0
133.7862,134.77576,58,45,0
131.8071,134.77576,61,45,0
134.77576,135.7653,62,44,0
134.77576,135.7653,57,44,0
135.7653,136.78792,59,41,0
135.7653,137.81053,56,41,0
137.81053,138.83315,55,45,0
136.78792,138.83315,58,48,0
135.7653,138.83315,64,41,0
138.83315,140.10487,65,44,0
140.78662,141.12749,66,47,0
141.12749,141.46089,64,52,0
141.46089,141.7943,66,44,0
141.7943,142.81691,62,44,0
142.81691,143.16551,69,51,0
143.16551,143.84724,69,53,0
143.84724,144.03317,71,47,0
144.03317,144.1184,69,36,0
144.1184,144.2036,71,36,0
144.2036,144.7149,69,53,0
144.7149,144.88535,67,47,0
144.88535,145.22621,66,47,0
141.12749,145.22621,57,36,0
145.22621,145.56195,64,52,0
145.56195,145.89722,66,45,0
145.89722,146.96738,62,44,0
146.96738,147.31598,66,47,0
145.22621,147.31598,69,36,0
145.22621,147.31598,57,36,0
147.31598,148.01315,66,53,0
148.01315,148.36987,64,47,0
148.36987,149.06313,64,52,0
149.06313,149.40974,61,47,0
147.31598,149.40974,70,36,0
149.40974,149.9239,62,52,0
149.9239,150.09529,61,47,0
149.40974,150.48607,59,36,0
150.09529,150.48607,59,47,0
149.40974,150.48607,71,36,0
151.21645,151.57109,66,47,0
151.57109,152.26828,66,53,0
152.26828,152.625,64,47,0
152.625,153.31824,64,52,0
153.31824,153.66487,61,47,0
151.57109,153.66487,70,36,0
153.66487,154.17903,62,52,0
154.17903,154.35042,61,47,0
153.66487,154.7156,59,36,0
154.35042,154.7156,59,47,0
153.66487,155.0808,71,36,0
155.44598,155.81117,57,45,0
155.81117,156.92259,59,47,0
157.62865,157.98741,57,45,0
157.98741,158.49408,61,47,0
158.49408,158.65988,62,45,0
158.65988,159.01047,64,45,0
159.01047,159.69221,61,50,0
159.69221,160.04482,57,44,0
160.73416,161.81084,62,36,0
160.04482,161.81084,59,45,0
160.73416,161.81084,69,36,0
160.73416,161.81084,67,36,0
161.81084,162.17172,57,45,0
162.17172,162.68588,61,47,0
162.68588,162.85081,62,45,0
162.85081,163.02333,64,45,0
163.02333,163.1028,61,43,0
163.1028,163.18225,62,36,0
163.18225,163.30798,61,49,0
163.51753,163.64607,59,44,0
163.8603,164.0356,57,44,0
164.91208,165.9992,69,36,0
164.21089,165.9992,59,44,0
164.91208,165.9992,62,36,0
164.91208,165.9992,67,36,0
165.9992,166.36008,57,45,0
166.36008,166.87425,61,47,0
166.87425,167.03918,62,45,0
167.03918,167.3763,64,45,0
167.3763,167.72096,61,49,0
167.72096,168.07155,59,44,0
168.07155,168.43457,57,44,0
168.43457,170.18753,59,47,0
170.18753,170.53812,71,49,0
170.18753,170.53812,66,49,0
170.53812,172.24246,74,53,0
170.53812,172.24246,68,53,0
170.53812,172.24246,64,53,0
172.24246,173.02438,76,52,0
172.24246,173.02438,67,52,0
172.24246,173.02438,64,52,0
173.27011,173.68747,77,52,0
173.14859,173.68747,61,45,0
173.18932,173.68747,67,45,0
173.22975,173.68747,69,46,0
174.33664,174.6775,78,53,0
174.33664,174.6775,90,57,0
174.6775,175.17761,76,56,0
174.6775,175.17761,88,62,0
175.17761,175.34431,90,53,0
175.17761,175.34431,78,47,0
174.6775,175.6852,81,40,0
175.6852,176.3375,81,67,0
175.34431,176.3375,74,47,0
175.34431,176.3375,86,53,0
176.46822,176.5118,74,47,0
176.3375,176.55664,81,55,0
176.5118,176.55664,81,47,0
176.55664,176.60149,86,47,0
176.60149,176.64633,81,47,0
176.3375,176.69118,93,62,0
176.69118,177.37291,81,57,0
176.69118,177.37291,93,63,0
177.60144,177.64404,81,49,0
176.64633,177.64404,86,47,0
177.37291,177.72926,95,57,0
177.68666,177.72926,95,50,0
177.37291,177.72926,83,53,0
177.72926,178.22585,81,57,0
177.72926,178.22585,93,63,0
178.22585,178.38156,79,53,0
178.22585,178.38156,91,57,0
178.38156,178.72244,78,53,0
178.38156,178.72244,90,57,0
177.64404,178.72244,86,49,0
178.72244,179.05818,76,56,0
178.72244,179.05818,88,62,0
179.05818,179.39345,78,50,0
179.05818,179.39345,90,54,0
179.39345,179.75017,74,46,0
179.39345,179.75017,86,52,0
178.72244,179.75017,81,40,0
180.39032,180.7389,78,53,0
180.39032,180.7389,90,57,0
180.7389,181.4361,78,57,0
180.7389,181.4361,90,63,0
181.4361,181.79282,76,53,0
181.4361,181.79282,88,57,0
180.7389,182.13943,82,40,0
181.79282,182.45897,76,56,0
181.79282,182.45897,88,62,0
182.45897,182.80174,73,53,0
182.45897,182.80174,85,57,0
182.80174,183.31592,74,56,0
182.80174,183.31592,86,62,0
183.31592,183.4873,73,53,0
183.31592,183.4873,85,57,0
182.80174,183.8525,71,40,0
183.4873,183.8525,71,53,0
182.80174,183.8525,83,40,0
183.4873,183.8525,83,57,0
184.5372,184.89185,78,53,0
184.5372,184.89185,90,57,0
184.89185,185.58904,78,57,0
184.89185,185.58904,90,63,0
185.58904,185.94576,76,53,0
185.58904,185.94576,88,57,0
184.89185,186.29237,82,40,0
185.94576,186.6054,76,56,0
185.94576,186.6054,88,62,0
186.93814,186.98985,88,50,0
186.6054,186.98985,85,57,0
186.6054,186.98985,73,53,0
186.98985,187.50401,86,62,0
186.83199,187.50401,74,49,0
187.50401,187.6754,73,53,0
187.50401,187.6754,85,57,0
186.98985,188.04059,71,40,0
187.6754,188.04059,71,53,0
186.8855,188.04059,78,49,0
187.6754,188.04059,83,57,0
188.72697,189.09216,69,61,0
188.72697,189.09216,81,61,0
188.72697,189.09216,78,61,0
189.09216,190.18771,71,64,0
189.09216,190.18771,83,64,0
190.18771,190.5529,85,66,0
190.18771,190.5529,73,66,0
189.09216,190.5529,78,64,0
190.91809,191.27686,61,45,0
191.27686,191.78352,65,47,0
191.78352,191.94933,66,45,0
190.91809,191.94933,73,30,0
190.91809,191.94933,70,30,0
191.94933,192.29991,68,45,0
192.29991,192.98166,65,50,0
191.94933,192.98166,73,26,0
192.98166,193.33427,61,44,0
192.98166,194.0236,73,30,0
192.98166,194.0236,71,30,0
194.0236,194.39098,68,30,0
194.0236,194.39098,73,30,0
194.0236,194.39098,71,30,0
193.33427,195.10028,63,45,0
195.10028,195.46117,61,45,0
195.46117,195.97534,65,47,0
195.97534,196.14026,66,45,0
195.10028,196.14026,73,30,0
195.10028,196.14026,70,30,0
196.14026,196.31277,68,45,0
196.14026,196.31277,73,30,0
196.31277,196.39224,65,43,0
196.39224,196.47171,66,36,0
196.47171,196.59743,65,49,0
196.80698,196.93552,63,44,0
197.14975,197.28122,61,44,0
197.14975,197.50035,71,30,0
197.14975,197.50035,73,30,0
197.14975,197.50035,65,30,0
198.20152,199.28865,73,33,0
197.50035,199.28865,63,43,0
198.20152,199.28865,66,33,0
198.20152,199.28865,71,33,0
199.28865,199.64954,61,45,0
199.28865,199.64954,68,39,0
199.28865,199.64954,71,39,0
199.28865,199.64954,73,39,0
199.64954,200.1637,65,47,0
200.1637,200.32863,66,45,0
200.32863,200.66574,68,45,0
200.66574,201.0104,65,49,0
201.0104,201.36101,63,44,0
201.36101,201.72403,61,44,0
201.36101,201.72403,56,36,0
201.72403,203.47697,63,47,0
201.72403,203.47697,59,41,0
203.47697,203.71916,63,47,0
203.47697,203.71916,59,47,0
203.47697,203.71916,56,47,0
203.99306,204.68692,66,41,0
203.93828,204.68692,58,39,0
203.8835,204.68692,54,36,0
206.66856,207.06439,71,44,0
206.61922,207.06439,66,44,0
206.56822,207.06439,59,44,0
207.71355,208.05443,79,57,0
208.05443,208.38783,78,62,0
208.38783,208.72124,79,53,0
207.71355,208.72124,71,40,0
207.71355,208.72124,67,40,0
208.72124,209.72893,76,53,0
208.72124,209.72893,71,40,0
208.72124,209.72893,64,40,0
209.72893,210.0698,83,57,0
210.0698,210.75154,83,63,0
209.72893,210.75154,76,40,0
209.72893,210.75154,67,40,0
210.75154,210.91734,85,61,0
210.91734,211.00023,83,61,0
211.00023,211.08313,85,62,0
211.08313,211.5888,83,67,0
211.5888,211.75198,81,63,0
211.75198,212.0891,79,63,0
212.0891,212.42621,78,66,0
212.42621,212.75793,79,63,0
212.75793,213.76564,76,62,0
212.75793,213.76564,71,40,0
213.76564,214.1244,79,64,0
214.1244,214.816,79,67,0
213.76564,214.816,71,40,0
213.76564,214.816,67,40,0
214.816,215.17065,78,59,0
214.816,215.17065,71,40,0
214.816,215.17065,67,40,0
215.17065,215.88202,78,62,0
215.88202,216.2229,74,63,0
215.17065,216.2229,71,33,0
215.17065,216.2229,67,33,0
216.2229,216.7342,76,67,0
216.7342,216.89912,74,62,0
216.89912,217.25107,73,59,0
216.2229,217.25107,67,40,0
216.2229,217.25107,69,40,0
217.92535,218.28412,79,64,0
218.28412,218.97571,79,67,0
217.92535,218.97571,71,40,0
217.92535,218.97571,67,40,0
218.97571,219.33037,78,59,0
218.97571,219.33037,71,40,0
218.97571,219.33037,67,40,0
219.33037,220.04173,78,62,0
220.04173,220.38261,74,63,0
219.33037,220.38261,71,40,0
219.33037,220.38261,67,40,0
220.38261,220.8939,73,67,0
220.8939,221.05884,71,62,0
220.38261,221.41078,69,40,0
221.05884,221.41078,69,59,0
220.38261,221.41078,67,40,0
222.09253,222.26295,67,41,0
222.09253,222.26295,69,41,0
222.4334,223.46979,67,41,0
222.4334,223.46979,71,41,0
225.82855,225.93915,69,46,0
225.93915,226.04912,76,49,0
226.04912,226.15846,79,51,0
226.04912,226.15846,81,51,0
226.15846,226.2672,81,53,0
226.2672,226.37535,85,54,0
226.37535,226.48247,91,45,0
226.37535,226.48247,93,56,0
226.48247,226.58841,93,56,0
226.48247,226.6416,91,45,0
226.58841,226.69495,86,57,0
226.69495,226.80205,83,56,0
226.80205,226.90974,79,45,0
226.80205,226.90974,81,55,0
226.90974,227.01805,74,54,0
227.01805,227.12694,71,53,0
227.12694,227.24414,67,44,0
227.12694,227.30275,69,53,0
227.24414,227.36134,62,52,0
227.36134,227.47856,59,51,0
229.83028,229.94199,69,46,0
229.94199,230.05289,76,49,0
230.05289,230.1627,79,51,0
230.05289,230.1627,81,51,0
230.1627,230.27174,81,53,0
230.27174,230.37975,85,54,0
230.37975,230.487,91,45,0
230.37975,230.487,93,56,0
230.487,230.59338,93,56,0
230.487,230.64687,91,45,0
230.59338,230.70035,86,57,0
230.70035,230.80789,83,56,0
230.80789,230.91603,79,44,0
230.80789,230.91603,81,55,0
230.91603,231.02478,74,54,0
231.02478,231.13428,71,53,0
231.13428,231.2515,67,43,0
231.13428,231.31009,69,53,0
231.2515,231.3687,62,52,0
231.3687,231.4859,59,51,0
231.4859,231.82535,57,44,0
232.17076,232.51418,69,59,0
232.51418,232.99911,73,62,0
232.99911,233.15782,74,59,0
232.51418,233.15782,69,43,0
232.17076,233.15782,67,43,0
233.15782,233.3256,69,36,0
233.15782,233.3256,76,59,0
233.15782,233.3256,67,36,0
233.3256,233.4095,73,53,0
233.4095,233.4934,74,53,0
233.81963,233.93132,69,46,0
233.93132,234.04224,76,49,0
234.04224,234.15204,79,52,0
234.04224,234.15204,81,52,0
233.4934,234.15204,73,63,0
234.15204,234.2611,81,53,0
234.2611,234.37012,85,55,0
234.37012,234.48805,93,57,0
234.37012,234.48805,91,57,0
234.48805,234.59444,95,57,0
234.48805,234.64792,91,57,0
234.59444,234.7014,86,59,0
234.7014,234.80894,83,57,0
234.80894,234.91708,79,55,0
234.80894,234.91708,83,55,0
234.91708,235.02583,74,55,0
235.02583,235.13533,71,54,0
235.13533,235.25253,67,53,0
235.13533,235.31114,71,53,0
235.25253,235.36975,62,53,0
235.36975,235.48695,59,52,0
235.81277,235.91846,59,57,0
235.91846,236.02332,62,59,0
236.02332,236.12744,67,61,0
236.02332,236.12744,71,61,0
236.12744,236.23155,71,62,0
236.23155,236.3374,74,62,0
236.3374,236.44495,79,63,0
236.3374,236.44495,83,63,0
236.76303,236.86873,62,61,0
236.86873,236.97357,66,62,0
236.97357,237.0777,71,63,0
236.97357,237.0777,74,63,0
237.0777,237.18182,74,63,0
237.18182,237.28766,78,64,0
237.28766,237.3952,86,65,0
237.28766,237.3952,83,65,0
237.71329,237.81898,64,63,0
237.81898,237.92383,68,63,0
237.92383,238.02795,74,65,0
237.92383,238.02795,76,65,0
238.02795,238.13208,76,66,0
238.13208,238.24039,80,67,0
238.24039,238.35289,86,69,0
238.24039,238.35289,88,69,0
238.67097,238.77666,65,65,0
238.77666,238.88152,69,66,0
238.88152,238.98564,73,69,0
238.88152,238.98564,77,69,0
238.98564,239.08975,77,70,0
239.08975,239.19807,81,71,0
239.19807,239.31056,85,71,0
239.19807,239.31056,89,71,0
239.62971,239.73439,66,65,0
239.73439,239.83908,69,69,0
239.83908,239.94376,78,71,0
239.94376,240.05823,78,74,0
240.05823,240.1727,81,77,0
240.1727,240.28716,90,77,0
240.28716,240.45027,86,77,0
240.3959,240.50465,81,76,0
240.50465,240.61339,76,72,0
240.61339,240.7192,76,79,0
240.28716,240.77211,88,81,0
240.7192,240.82501,81,77,0
240.82501,240.93082,76,75,0
240.77211,240.93082,90,76,0
240.93082,241.0986,86,73,0
241.04268,241.15453,78,72,0
241.04268,241.15453,81,72,0
241.15453,241.26639,74,71,0
241.59262,241.70322,69,65,0
241.70322,241.81317,74,69,0
241.81317,241.92252,78,71,0
241.81317,241.92252,81,71,0
241.92252,242.03127,81,74,0
242.03127,242.1394,86,77,0
242.1394,242.24652,90,80,0
242.1394,242.24652,93,80,0
242.24652,242.35248,93,89,0
242.24652,242.40567,90,89,0
242.35248,242.459,86,77,0
242.459,242.56612,81,74,0
242.56612,242.67381,81,79,0
242.67381,242.7821,86,77,0
242.7821,242.891,90,75,0
242.891,243.0668,95,84,0
243.00821,243.12541,86,72,0
243.12541,243.24261,83,71,0
243.349,243.45538,86,64,0
243.45538,243.56177,81,64,0
243.24261,243.56177,93,84,0
243.67052,243.77925,86,65,0
243.77925,243.888,79,71,0
243.56177,243.888,91,83,0
243.99922,244.11044,86,66,0
244.11044,244.22166,78,70,0
243.888,244.22166,90,81,0
244.33289,244.4441,86,69,0
244.4441,244.55533,76,69,0
244.22166,244.55533,88,86,0
244.66467,244.77403,81,63,0
244.77403,244.88338,78,64,0
244.55533,244.88338,90,81,0
244.99524,245.10709,78,65,0
245.10709,245.21895,74,66,0
244.88338,245.21895,86,84,0
245.54518,245.65578,66,65,0
245.65578,245.76573,69,69,0
245.76573,245.87509,78,71,0
245.87509,245.98383,78,74,0
245.98383,246.09196,81,77,0
246.09196,246.19908,90,80,0
246.19908,246.35823,90,89,0
246.30504,246.41156,81,77,0
246.41156,246.51868,78,72,0
246.51868,246.62637,78,79,0
246.62637,246.73466,81,77,0
246.73466,246.84357,90,75,0
246.84357,247.01427,90,82,0
246.95737,247.07117,94,72,0
247.07117,247.18498,102,71,0
247.18498,247.29135,102,86,0
247.29135,247.39774,94,66,0
247.39774,247.50412,90,67,0
247.50412,247.61287,90,82,0
247.61287,247.7216,78,66,0
247.7216,247.83035,90,71,0
247.83035,247.94221,78,83,0
247.94221,248.05406,85,67,0
248.05406,248.16592,90,67,0
248.16592,248.27527,78,87,0
248.27527,248.38463,86,69,0
248.38463,248.49397,90,69,0
248.49397,248.60393,78,83,0
248.60393,248.7139,85,66,0
248.7139,248.82385,90,66,0
248.82385,248.93571,78,81,0
248.93571,249.04758,83,69,0
249.04758,249.15942,90,70,0
249.48566,249.59625,66,65,0
249.59625,249.70622,69,69,0
249.70622,249.81557,78,71,0
249.81557,249.92432,78,74,0
249.92432,250.03246,81,77,0
250.03246,250.13957,90,80,0
250.13957,250.2987,90,89,0
250.24551,250.35205,81,77,0
250.35205,250.45915,78,73,0
250.45915,250.56685,78,79,0
250.56685,250.67516,81,77,0
250.67516,250.78404,90,75,0
250.78404,250.95279,90,83,0
250.89655,251.00905,94,72,0
251.00905,251.12154,102,71,0
251.12154,251.2285,102,84,0
251.2285,251.33546,94,67,0
251.33546,251.44243,90,67,0
251.44243,251.55177,90,81,0
251.55177,251.66113,78,66,0
251.66113,251.77048,90,66,0
251.88234,251.99419,90,70,0
251.99419,252.10605,97,69,0
251.77048,252.10605,85,86,0
252.2148,252.32353,90,70,0
252.32353,252.43228,98,71,0
252.10605,252.43228,86,90,0
252.54413,252.65599,90,66,0
252.65599,252.76785,97,66,0
252.43228,252.76785,85,89,0
252.88232,252.99678,90,66,0
252.99678,253.11125,95,66,0
252.76785,253.11125,83,87,0
253.45467,253.62149,78,63,0
253.45467,253.62149,90,83,0
253.45467,253.62149,86,63,0
253.78833,253.94704,80,66,0
253.78833,253.94704,90,66,0
253.78833,253.94704,92,89,0
254.0264,254.10576,95,83,0
254.10576,254.4284,81,72,0
254.10576,254.4284,90,72,0
254.10576,254.4284,93,92,0
254.4284,254.7602,92,80,0
254.4284,254.7602,80,62,0
254.7602,254.9309,90,74,0
254.7602,254.9309,78,56,0
255.44104,255.5226,66,55,0
255.5226,255.60416,67,55,0
255.60416,255.68571,70,55,0
255.68571,255.76727,71,55,0
255.76727,255.8475,73,56,0
255.8475,255.92772,74,56,0
255.92772,256.00793,76,57,0
256.00793,256.08817,78,59,0
256.08817,256.1697,79,59,0
256.1697,256.25128,82,61,0
256.25128,256.33282,83,61,0
256.33282,256.4144,85,61,0
256.4144,256.49927,86,62,0
256.49927,256.5841,88,62,0
256.5841,256.66898,90,62,0
256.66898,256.75385,91,62,0
256.75385,256.821,94,63,0
256.821,256.88895,95,63,0
256.88895,256.95782,97,63,0
256.95782,257.0277,98,63,0
257.03357,257.10422,100,60,0
257.09854,257.438,102,75,0
257.438,257.60202,78,63,0
257.438,257.60202,90,83,0
257.438,257.60202,86,63,0
257.76605,257.92648,80,66,0
257.76605,257.92648,90,66,0
257.76605,257.92648,92,89,0
258.0067,258.08694,95,83,0
258.08694,258.40958,81,72,0
258.08694,258.40958,90,72,0
258.08694,258.40958,93,92,0
258.40958,258.73947,92,80,0
258.40958,258.73947,80,62,0
258.73947,258.9102,90,74,0
258.73947,258.9102,78,56,0
259.4149,259.49554,66,55,0
259.49554,259.5762,67,55,0
259.5762,259.65686,70,55,0
259.65686,259.73752,71,55,0
259.73752,259.8214,73,56,0
259.8214,259.9053,74,56,0
259.9053,259.9892,76,57,0
259.9892,260.0731,78,59,0
260.0731,260.1529,79,59,0
260.1529,260.23267,82,61,0
260.23267,260.31247,83,61,0
260.31247,260.39224,85,61,0
260.39224,260.45822,86,62,0
260.45822,260.5242,88,62,0
260.5242,260.59018,90,62,0
260.59018,260.65616,91,62,0
260.66165,260.7277,94,62,0
260.72214,260.78888,95,63,0
260.78888,260.8556,97,63,0
260.8556,260.92233,98,63,0
260.92233,260.98907,100,63,0
260.99463,261.0615,102,63,0
261.39722,261.5584,70,67,0
261.39722,261.5584,82,89,0
261.39722,261.5584,78,67,0
261.71884,261.87503,72,71,0
261.71884,261.87503,82,71,0
261.71884,261.87503,84,93,0
261.95312,262.03122,87,89,0
262.03122,262.34866,73,75,0
262.03122,262.34866,82,75,0
262.03122,262.34866,85,97,0
262.34866,262.67307,84,84,0
262.34866,262.67307,72,65,0
262.67307,262.8428,82,80,0
262.67307,262.8428,70,61,0
263.3424,263.42175,70,55,0
263.42175,263.50113,71,55,0
263.50113,263.58047,74,55,0
263.58047,263.65985,75,55,0
263.65985,263.7414,77,56,0
263.7414,263.82294,78,56,0
263.82294,263.9045,80,57,0
263.9045,263.98605,81,59,0
263.98605,264.06543,82,59,0
264.06543,264.14478,83,61,0
264.14478,264.22412,84,61,0
264.22412,264.3035,85,61,0
264.3035,264.38504,86,62,0
264.38504,264.4666,87,62,0
264.4666,264.54816,88,62,0
264.54816,264.62973,89,62,0
264.62973,264.69614,90,63,0
264.71237,264.77747,91,63,0
264.79376,264.85944,92,63,0
264.87595,264.9422,93,63,0
264.9589,265.28513,94,89,0
264.9589,265.28513,82,80,0
264.9589,265.28513,87,81,0
265.44296,265.60083,70,67,0
265.44296,265.60083,78,76,0
265.44296,265.60083,82,76,0
265.75784,265.9149,72,72,0
265.75784,265.9149,78,81,0
265.75784,265.9149,84,81,0
266.0771,266.23932,85,84,0
266.0771,266.23932,78,84,0
266.0771,266.23932,73,75,0
266.40152,266.56372,84,81,0
266.40152,266.56372,78,81,0
266.40152,266.56372,72,73,0
266.72244,266.88116,70,69,0
266.72244,266.88116,78,79,0
266.72244,266.88116,82,79,0
266.88116,267.2148,84,80,0
266.88116,267.2148,94,81,0
266.88116,267.2148,96,89,0
266.88116,267.2148,88,80,0
267.37186,267.52832,68,82,0
267.37186,267.52832,80,82,0
267.6842,267.83957,71,84,0
267.6842,267.83957,83,84,0
267.99408,268.14807,73,85,0
267.99408,268.14807,85,85,0
268.3015,268.45444,75,87,0
268.3015,268.45444,87,87,0
268.7587,268.84604,89,89,0
268.7587,268.84604,93,89,0
268.7587,268.84604,101,89,0
269.2244,269.3117,89,64,0
269.34082,269.42813,101,62,0
269.57367,269.66098,77,71,0
269.6901,269.78726,89,64,0
269.93607,270.02338,65,73,0
270.0525,270.1398,77,73,0
270.2862,270.37415,53,63,0
270.40347,270.49146,65,62,0
270.63806,270.726,41,62,0
270.75534,270.84332,53,61,0
270.99512,271.08868,53,62,0
271.12018,271.2158,65,56,0
271.38046,271.48132,65,62,0
271.51514,271.61716,66,62,0
271.6514,271.7497,67,70,0
271.6514,271.7497,63,62,0
271.78247,271.88077,67,62,0
271.78247,271.88077,63,55,0
271.91354,272.01138,67,63,0
271.91354,272.01138,63,57,0
272.04355,272.13422,63,63,0
272.04355,272.13422,67,71,0
272.1643,272.25424,62,64,0
272.2841,272.37332,63,62,0
272.2841,272.37332,67,70,0
272.40292,272.49152,59,63,0
272.52103,272.60962,60,57,0
272.52103,272.60962,63,63,0
272.63913,272.73093,62,64,0
272.76154,272.8511,67,70,0
272.88095,272.9705,70,69,0
272.76154,273.00037,63,62,0
273.00037,273.0899,69,65,0
273.00037,273.0899,65,59,0
273.11975,273.21158,65,65,0
273.11975,273.21158,62,59,0
273.24216,273.33398,65,63,0
273.24216,273.33398,62,57,0
273.3646,273.46094,65,63,0
273.3646,273.46094,62,63,0
273.49304,273.58133,62,65,0
273.49304,273.58133,65,73,0
273.61084,273.69952,58,67,0
273.72916,273.8182,60,65,0
273.72916,273.8182,63,65,0
273.84793,273.9387,62,72,0
273.96918,274.06122,63,57,0
273.96918,274.06122,67,64,0
274.09216,274.18555,62,65,0
274.09216,274.18555,65,65,0
274.62878,274.72607,90,54,0
274.62878,274.72607,87,49,0
274.7584,274.8554,90,49,0
274.7584,274.8554,87,44,0
274.88776,274.9831,90,51,0
274.88776,274.9831,87,45,0
275.01456,275.10522,87,50,0
275.01456,275.10522,90,55,0
275.1353,275.22528,86,51,0
275.25513,275.34433,87,49,0
275.25513,275.34433,90,54,0
275.37393,275.46204,83,51,0
275.4914,275.57947,84,45,0
275.4914,275.57947,87,51,0
275.60883,275.70065,86,51,0
275.73123,275.82077,90,54,0
275.8506,275.9401,94,54,0
275.73123,275.96994,87,49,0
275.96994,276.05945,93,52,0
275.96994,276.05945,89,45,0
276.0893,276.1811,89,52,0
276.0893,276.1811,85,45,0
276.2117,276.30353,89,51,0
276.2117,276.30353,85,45,0
276.3341,276.43048,89,51,0
276.3341,276.43048,85,51,0
276.4626,276.55087,85,52,0
276.4626,276.55087,89,59,0
276.58038,276.66904,82,53,0
276.69867,276.78775,84,52,0
276.69867,276.78775,87,52,0
276.81747,276.90823,85,57,0
276.93872,277.03076,87,45,0
276.93872,277.03076,90,51,0
277.06168,277.1551,85,52,0
277.06168,277.1551,89,52,0
277.5986,277.6891,71,72,0
277.71915,277.80908,72,69,0
277.71915,277.80908,75,69,0
277.839,277.9284,74,69,0
277.95816,278.0471,75,80,0
277.95816,278.0471,79,80,0
278.07672,278.16568,78,74,0
278.1953,278.29016,79,75,0
278.1953,278.29016,82,75,0
278.32178,278.4107,80,84,0
278.44037,278.5293,81,65,0
278.44037,278.5293,84,74,0
278.55896,278.6479,79,66,0
278.55896,278.6479,82,75,0
278.67752,278.76648,77,74,0
278.7961,278.88507,76,72,0
278.67752,278.9147,81,74,0
278.9147,279.00363,75,70,0
278.9147,279.00363,79,70,0
279.0333,279.1241,73,74,0
279.1544,279.24518,74,71,0
279.1544,279.24518,77,71,0
279.27545,279.36627,75,70,0
279.39655,279.48547,76,61,0
279.39655,279.63373,82,86,0
279.63373,279.72266,80,61,0
279.51514,279.75232,77,62,0
279.39655,279.75232,71,61,0
279.75232,279.84442,78,69,0
279.75232,279.84442,73,59,0
279.87515,279.96725,77,65,0
279.99796,280.09384,78,63,0
280.12582,280.53708,73,70,0
280.12582,280.53708,66,62,0
280.53708,280.62756,79,45,0
280.65762,280.74756,80,44,0
280.65762,280.74756,83,44,0
280.77747,280.86688,82,44,0
280.89664,280.98557,83,49,0
280.89664,280.98557,87,49,0
281.0152,281.10416,86,45,0
281.1338,281.22864,87,46,0
281.1338,281.22864,90,46,0
281.26025,281.34918,88,53,0
281.37885,281.46777,89,41,0
281.37885,281.46777,92,45,0
281.49744,281.58636,87,42,0
281.49744,281.58636,90,46,0
281.616,281.70496,85,45,0
281.7346,281.82355,84,45,0
281.616,281.85318,89,45,0
281.85318,281.9421,83,44,0
281.85318,281.9421,87,44,0
281.97177,282.0626,81,45,0
282.09286,282.18365,82,44,0
282.09286,282.18365,85,44,0
282.21393,282.30475,83,44,0
282.33502,282.42395,84,36,0
282.33502,282.5722,90,46,0
282.5722,282.66113,88,36,0
282.4536,282.6908,85,37,0
282.33502,282.6908,79,36,0
282.6908,282.7829,86,44,0
282.6908,282.7829,81,36,0
282.8136,282.90573,85,41,0
282.93643,283.03232,86,40,0
283.60257,283.69785,62,65,0
283.60257,283.69785,59,59,0
283.7296,283.82745,67,53,0
283.7296,283.82745,71,61,0
283.98038,284.0703,66,49,0
283.98038,284.0703,70,54,0
284.10016,284.1894,71,50,0
284.10016,284.1894,67,44,0
284.3371,284.42566,67,57,0
284.3371,284.42566,64,51,0
284.5776,284.66714,71,69,0
284.69702,284.78656,74,65,0
284.5776,284.8164,67,62,0
284.8164,284.90598,73,62,0
284.8164,284.90598,69,54,0
285.06128,285.15536,62,62,0
285.06128,285.15536,57,54,0
285.18674,285.28308,66,49,0
285.18674,285.28308,69,55,0
285.43298,285.52167,66,59,0
285.43298,285.52167,62,52,0
285.5513,285.64035,67,53,0
285.5513,285.64035,64,46,0
285.79132,285.88336,71,53,0
285.79132,285.88336,67,46,0
285.9143,286.0077,69,50,0
285.9143,286.0077,66,44,0
286.58356,286.67883,74,41,0
286.58356,286.67883,71,36,0
286.71057,286.80844,79,36,0
286.71057,286.80844,83,36,0
286.96133,287.0513,78,29,0
286.96133,287.0513,82,33,0
287.08115,287.17035,83,30,0
287.08115,287.17035,79,26,0
287.31805,287.40665,79,35,0
287.31805,287.40665,76,31,0
287.55856,287.64813,83,43,0
287.67798,287.76755,86,41,0
287.55856,287.7974,79,43,0
287.7974,287.88696,85,37,0
287.7974,287.88696,81,37,0
288.04224,288.13635,74,37,0
288.04224,288.13635,69,33,0
288.1677,288.26404,78,30,0
288.1677,288.26404,81,34,0
288.41397,288.50262,78,36,0
288.41397,288.50262,74,32,0
288.53226,288.62134,79,32,0
288.53226,288.62134,76,27,0
288.7723,288.86435,83,32,0
288.7723,288.86435,79,27,0
288.89526,288.98868,81,30,0
288.89526,288.98868,78,26,0
289.45773,289.5482,63,60,0
289.45773,289.5482,66,66,0
289.57825,289.6682,64,57,0
289.57825,289.6682,67,63,0
289.6981,289.7875,66,63,0
289.6981,289.7875,70,63,0
289.81726,289.90622,67,72,0
289.81726,289.90622,71,72,0
289.93585,290.02478,70,61,0
289.93585,290.02478,73,69,0
290.05444,290.1493,71,70,0
290.05444,290.1493,74,70,0
290.18088,290.26984,75,79,0
290.18088,290.26984,72,69,0
290.29947,290.38843,73,69,0
290.29947,290.38843,76,69,0
290.41806,290.50702,71,70,0
290.41806,290.50702,74,70,0
290.53665,290.62558,69,69,0
290.65524,290.74417,68,66,0
290.53665,290.77383,73,69,0
290.77383,290.86276,67,63,0
290.89243,290.98322,65,69,0
290.77383,291.0135,71,63,0
291.0135,291.1043,66,59,0
291.0135,291.1043,69,65,0
291.13458,291.2254,68,63,0
291.25568,291.3446,69,74,0
291.25568,291.49283,74,74,0
291.49283,291.5818,73,66,0
291.37424,291.61142,70,62,0
291.61142,291.70355,71,63,0
291.73425,291.8264,69,61,0
291.8571,291.9523,71,59,0
291.984,292.4158,66,61,0
291.984,292.4158,62,53,0
292.4158,292.50626,75,53,0
292.4158,292.50626,78,60,0
292.53632,292.62628,76,51,0
292.53632,292.62628,79,56,0
292.6562,292.7456,78,56,0
292.6562,292.7456,82,56,0
292.77533,292.8643,79,64,0
292.77533,292.8643,83,64,0
292.89392,292.98285,82,53,0
292.89392,292.98285,85,62,0
293.0125,293.10736,83,62,0
293.0125,293.10736,86,62,0
293.13898,293.2279,81,70,0
293.25754,293.3465,82,62,0
293.25754,293.3465,86,62,0
293.37613,293.4651,85,62,0
293.49472,293.58368,86,59,0
293.6133,293.70224,90,65,0
293.49472,293.7319,91,65,0
293.7319,293.83493,91,65,0
293.7319,293.83493,94,65,0
293.87164,293.99875,85,72,0
293.99875,294.12585,91,56,0
293.99875,294.12585,94,45,0
294.12585,294.25296,90,56,0
294.25296,294.37897,91,54,0
294.25296,294.37897,94,45,0
294.37897,294.50464,85,60,0
294.50464,294.6299,91,53,0
294.50464,294.6299,94,44,0
294.6299,294.75485,90,53,0
294.75485,294.87927,91,53,0
294.75485,294.87927,94,44,0
294.87927,295.00323,85,57,0
295.00323,295.12686,91,50,0
295.00323,295.12686,94,42,0
295.12686,295.25015,90,50,0
295.25015,295.373,91,51,0
295.25015,295.373,94,43,0
295.373,295.49533,85,49,0
295.49533,295.61768,91,44,0
295.49533,295.61768,94,36,0
295.61768,295.74002,90,44,0
295.74002,295.86234,91,43,0
295.74002,295.86234,94,36,0
295.86234,295.98468,85,45,0
295.98468,296.10703,91,42,0
295.98468,296.10703,94,35,0
296.10703,296.23154,90,42,0
296.23154,296.3581,91,42,0
296.23154,296.3581,94,35,0
296.3581,296.48688,85,44,0
296.48688,296.62094,91,39,0
296.48688,296.62094,94,32,0
296.62094,296.755,90,39,0
296.755,296.8891,91,37,0
296.755,296.8891,94,31,0
296.8891,297.0162,84,44,0
297.0162,297.1433,91,37,0
297.0162,297.1433,94,31,0
297.1433,297.27042,90,37,0
297.27042,297.39752,91,39,0
297.27042,297.39752,94,32,0
297.39752,297.524,84,44,0
297.524,297.6499,91,36,0
297.524,297.6499,94,30,0
297.6499,297.7752,90,36,0
297.7752,297.89987,91,37,0
297.7752,297.89987,94,31,0
297.89987,298.02402,84,44,0
298.02402,298.14755,91,37,0
298.02402,298.14755,94,31,0
298.14755,298.27057,90,37,0
298.27057,298.393,91,39,0
298.27057,298.393,94,32,0
298.393,298.51483,84,44,0
298.51483,298.63666,91,36,0
298.51483,298.63666,94,30,0
298.63666,298.75848,90,36,0
298.75848,298.88034,91,36,0
298.75848,298.88034,94,29,0
298.88034,299.00217,84,42,0
299.00217,299.124,91,36,0
299.00217,299.124,94,29,0
299.124,299.2486,90,35,0
299.2486,299.37543,91,35,0
299.2486,299.37543,94,27,0
299.37543,299.50467,84,41,0
299.50467,299.63812,91,35,0
299.50467,299.63812,94,29,0
299.63812,299.7716,90,35,0
299.7716,299.90506,91,33,0
299.7716,299.90506,94,27,0
299.90506,300.03217,84,37,0
300.03217,300.15927,90,33,0
300.03217,300.15927,94,27,0
300.15927,300.28638,89,33,0
300.28638,300.41293,90,35,0
300.28638,300.41293,94,27,0
300.41293,300.53894,84,37,0
300.53894,300.66443,90,32,0
300.53894,300.66443,94,27,0
300.66443,300.78937,89,32,0
300.78937,300.9137,90,33,0
300.78937,300.9137,94,27,0
300.9137,301.03748,84,37,0
301.03748,301.16077,90,33,0
301.03748,301.16077,94,27,0
301.16077,301.28354,89,33,0
301.28354,301.4058,90,35,0
301.28354,301.4058,94,27,0
301.4058,301.52744,84,37,0
301.52744,301.64877,90,32,0
301.52744,301.64877,94,27,0
301.64877,301.7701,89,32,0
301.7701,301.89142,90,32,0
301.7701,301.89142,94,27,0
301.89142,302.01276,84,37,0
302.01276,302.1341,90,33,0
302.01276,302.1341,94,27,0
302.1341,302.25867,89,33,0
302.25867,302.38553,90,33,0
302.25867,302.38553,94,27,0
302.38553,302.51477,84,39,0
302.51477,302.64822,90,35,0
302.51477,302.64822,94,27,0
302.64822,302.7817,89,35,0
302.7817,302.91516,90,33,0
302.7817,302.91516,94,27,0
302.91516,303.04282,89,45,0
303.04282,303.17,90,43,0
303.04282,303.17,93,51,0
303.17,303.29675,86,51,0
303.29675,303.42303,87,43,0
303.29675,303.42303,90,51,0
303.42303,303.5489,83,51,0
303.5489,303.67426,84,43,0
303.5489,303.67426,87,51,0
303.67426,303.7992,80,51,0
303.7992,303.9236,81,43,0
303.7992,303.9236,84,51,0
303.9236,304.048,77,51,0
304.048,304.17242,78,43,0
304.048,304.17242,81,51,0
304.17242,304.29684,74,51,0
304.29684,304.42123,75,43,0
304.29684,304.42123,78,51,0
304.42123,304.54565,71,51,0
304.54565,304.67004,72,43,0
304.54565,304.67004,75,51,0
304.67004,304.79446,68,51,0
304.79446,304.91888,69,43,0
304.79446,304.91888,72,51,0
304.91888,305.04327,65,51,0
305.04327,305.1677,66,43,0
305.04327,305.1677,70,51,0
305.1677,305.2921,62,51,0
305.2921,305.4165,63,43,0
305.2921,305.4165,66,51,0
305.4165,305.54092,59,51,0
305.54092,305.6653,56,43,0
305.54092,305.6653,60,51,0
305.6653,305.78973,56,51,0
305.78973,305.91415,57,43,0
305.78973,305.91415,60,51,0
305.91415,306.03854,53,51,0
306.03854,306.16296,54,43,0
306.03854,306.16296,57,51,0
306.16296,306.28738,50,51,0
306.28738,306.41177,51,43,0
306.28738,306.41177,54,51,0
306.41177,306.5362,47,51,0
306.5362,306.6606,48,43,0
306.5362,306.6606,51,51,0
306.6606,306.78476,44,51,0
306.78476,306.90994,45,43,0
306.78476,306.90994,48,51,0
306.90994,307.0364,41,51,0
307.0364,307.164,42,43,0
307.0364,307.164,46,51,0
307.164,307.29285,38,51,0
307.29285,307.42288,39,42,0
307.29285,307.42288,42,50,0
310.56863,310.83304,60,56,0
310.83304,310.96185,60,51,0
310.96185,311.05762,58,56,0
311.08954,311.18527,60,51,0
311.2172,311.281,56,51,0
310.56863,311.34485,54,46,0
310.56863,311.34485,51,46,0
311.61108,311.7427,63,49,0
311.7427,312.00598,63,53,0
312.00598,312.1376,65,49,0
312.1376,312.26926,63,54,0
312.26926,312.40088,61,46,0
312.40088,312.53253,60,46,0
311.7427,312.53253,57,44,0
311.7427,312.53253,54,44,0
312.53253,312.62958,58,53,0
312.53253,312.62958,54,44,0
312.66193,312.75766,60,50,0
312.78958,312.8534,56,50,0
313.18466,313.31686,60,49,0
313.31686,313.58127,60,53,0
313.58127,313.71347,58,49,0
313.31686,313.71347,54,44,0
313.31686,313.71347,51,44,0
313.71347,313.9779,58,52,0
313.71347,313.9779,55,44,0
313.9779,314.10895,55,46,0
313.71347,314.10895,52,44,0
314.10895,314.20554,56,52,0
314.10895,314.20554,53,44,0
314.23773,314.33432,55,49,0
314.36652,314.4309,53,49,0
314.758,314.88907,60,46,0
314.88907,315.15118,60,51,0
315.15118,315.28226,58,46,0
314.88907,315.28226,54,43,0
314.88907,315.28226,51,43,0
315.28226,315.54907,58,52,0
315.28226,315.54907,55,44,0
315.54907,315.6813,55,45,0
315.28226,315.6813,52,44,0
315.6813,315.78177,56,53,0
315.81528,315.91574,55,45,0
315.94925,316.06638,53,45,0
316.10544,316.36984,65,62,0
316.36984,316.49866,65,55,0
316.49866,316.594,63,62,0
316.6258,316.7211,65,55,0
316.7529,316.81873,53,39,0
316.7529,316.81873,61,55,0
316.10544,316.88455,59,52,0
316.10544,316.88455,56,52,0
317.15076,317.2824,68,53,0
317.2824,317.5457,68,57,0
317.5457,317.6773,70,54,0
317.6773,317.80896,68,62,0
317.80896,317.94058,66,53,0
317.94058,318.06937,65,54,0
317.2824,318.06937,62,47,0
317.2824,318.06937,59,47,0
318.06937,318.1647,63,62,0
318.06937,318.1647,59,51,0
318.19647,318.29224,65,59,0
318.32413,318.39026,61,55,0
318.32413,318.39026,53,52,0
318.72382,318.85602,65,59,0
318.85602,319.12042,65,63,0
319.12042,319.25262,63,59,0
318.85602,319.25262,59,53,0
318.85602,319.25262,56,53,0
319.25262,319.51703,63,62,0
319.25262,319.51703,60,52,0
319.51703,319.6481,60,56,0
319.25262,319.6481,57,52,0
319.6481,319.74384,61,62,0
319.6481,319.74384,58,52,0
319.77576,319.87152,60,59,0
319.9034,319.96954,58,59,0
320.3008,320.4319,65,56,0
320.4319,320.694,65,62,0
320.694,320.82504,63,56,0
320.4319,320.82504,59,51,0
320.4319,320.82504,56,51,0
320.82504,321.0919,63,62,0
320.82504,321.0919,60,52,0
321.0919,321.22122,60,55,0
320.82504,321.22122,57,52,0
321.22122,321.31824,61,63,0
321.3506,321.44757,60,55,0
321.47992,321.5576,58,55,0
321.63525,321.89316,74,79,0
321.63525,321.89316,62,65,0
321.63525,321.89316,66,65,0
321.63525,321.89316,71,65,0
321.89316,322.01883,74,70,0
321.89316,322.01883,62,59,0
322.01883,322.11554,73,79,0
322.01883,322.11554,61,65,0
322.1478,322.2445,74,70,0
322.1478,322.2445,62,59,0
322.27673,322.37344,71,70,0
322.27673,322.37344,59,59,0
322.01883,322.4057,66,65,0
322.6659,322.7943,78,66,0
322.6659,322.7943,66,56,0
322.7943,323.05112,78,71,0
322.7943,323.05112,66,61,0
323.05112,323.1795,80,69,0
323.05112,323.1795,68,57,0
323.1795,323.30792,78,79,0
323.1795,323.30792,66,65,0
323.30792,323.4363,76,66,0
323.30792,323.4363,64,56,0
323.4363,323.56473,74,69,0
323.4363,323.56473,62,56,0
322.7943,323.56473,71,51,0
323.56473,323.6594,73,76,0
323.56473,323.6594,61,56,0
323.69095,323.7881,74,73,0
323.69095,323.7881,62,56,0
323.82047,323.9176,71,74,0
323.82047,323.9176,59,62,0
324.21133,324.3403,74,73,0
324.21133,324.3403,62,62,0
324.3403,324.5982,74,80,0
324.3403,324.5982,62,66,0
324.5982,324.72717,73,73,0
324.3403,324.72717,66,66,0
324.3403,324.72717,71,66,0
324.5982,324.72717,61,62,0
324.72717,324.8561,72,79,0
324.72717,324.8561,68,65,0
324.72717,324.8561,60,65,0
324.72717,324.8561,63,65,0
324.72717,324.8561,66,65,0
325.1129,325.24475,60,65,0
325.1129,325.24475,58,65,0
325.1129,325.24475,54,65,0
325.50845,325.6403,68,79,0
325.50845,325.6403,56,65,0
325.50845,325.6403,60,65,0
325.50845,325.6403,66,65,0
325.90054,326.02893,78,65,0
325.90054,326.02893,68,65,0
325.90054,326.02893,72,65,0
325.90054,326.02893,80,65,0
326.28574,326.41415,80,65,0
326.28574,326.41415,92,65,0
326.28574,326.41415,90,65,0
326.28574,326.41415,84,65,0
326.67096,326.79715,92,75,0
326.67096,326.79715,102,75,0
326.67096,326.79715,104,75,0
326.67096,326.79715,99,75,0
327.06598,327.1623,70,79,0
327.06598,327.1623,58,65,0
327.1944,327.29068,72,66,0
327.1944,327.29068,60,56,0
327.32278,327.42258,68,69,0
327.32278,327.42258,56,56,0
327.06598,327.4558,66,65,0
327.86932,328.12723,86,94,0
327.86932,328.12723,74,80,0
327.86932,328.12723,78,80,0
327.86932,328.12723,83,80,0
328.12723,328.25287,86,85,0
328.12723,328.25287,74,71,0
328.25287,328.3496,85,94,0
328.25287,328.3496,73,80,0
328.38184,328.47855,86,83,0
328.38184,328.47855,74,70,0
328.5108,328.6133,83,83,0
328.5108,328.6133,71,70,0
328.25287,328.6475,78,80,0
328.9077,329.0361,90,80,0
328.9077,329.0361,78,67,0
329.0361,329.2929,90,85,0
329.0361,329.2929,78,72,0
329.2929,329.42133,92,82,0
329.2929,329.42133,80,69,0
329.42133,329.5497,90,94,0
329.42133,329.5497,78,80,0
329.5497,329.67813,88,80,0
329.5497,329.67813,76,67,0
329.67813,329.80652,86,82,0
329.67813,329.80652,74,67,0
329.0361,329.80652,83,62,0
329.80652,329.90118,85,90,0
329.80652,329.90118,73,67,0
329.93274,330.02988,86,89,0
329.93274,330.02988,74,67,0
330.06226,330.16626,83,89,0
330.06226,330.16626,71,74,0
329.80652,330.2009,78,80,0
330.46228,330.59122,86,89,0
330.46228,330.59122,74,74,0
330.59122,330.84915,86,95,0
330.59122,330.84915,74,80,0
330.84915,330.9781,85,89,0
330.59122,330.9781,78,80,0
330.59122,330.9781,83,80,0
330.84915,330.9781,73,74,0
330.9781,331.10706,75,74,0
330.9781,331.10706,78,74,0
330.9781,331.10706,84,89,0
330.9781,331.10706,80,74,0
330.9781,331.10706,72,74,0
331.236,331.36496,72,85,0
331.236,331.36496,60,71,0
331.36496,331.46167,70,85,0
331.36496,331.46167,58,71,0
331.4939,331.59064,72,85,0
331.4939,331.59064,60,71,0
331.62286,331.72495,68,85,0
331.62286,331.72495,56,71,0
331.36496,331.75897,66,73,0
331.36496,331.75897,63,73,0
331.75897,331.8879,68,66,0
331.75897,331.8879,80,80,0
331.75897,331.8879,78,66,0
331.75897,331.8879,75,66,0
332.1458,332.27478,80,66,0
332.1458,332.27478,92,80,0
332.1458,332.27478,90,66,0
332.1458,332.27478,84,66,0
332.5305,332.65723,92,66,0
332.5305,332.65723,102,66,0
332.5305,332.65723,104,80,0
332.5305,332.65723,96,66,0
332.91513,333.04407,80,66,0
332.91513,333.04407,90,66,0
332.91513,333.04407,92,80,0
332.91513,333.04407,87,66,0
333.31204,333.41434,82,80,0
333.31204,333.41434,70,71,0
333.44843,333.55072,84,73,0
333.44843,333.55072,72,65,0
333.5848,333.68707,80,73,0
333.5848,333.68707,68,65,0
333.31204,333.7212,78,71,0
333.7212,333.82806,57,75,0
333.8637,333.9706,59,67,0
334.00626,334.11313,56,70,0
334.27435,334.3686,72,50,0
334.27435,334.3686,60,44,0
334.27435,334.3686,63,44,0
334.27435,334.3686,66,50,0
334.52325,334.6147,72,50,0
334.52325,334.6147,60,44,0
334.52325,334.6147,63,44,0
334.52325,334.6147,66,50,0
334.76627,334.85828,72,57,0
334.76627,334.85828,60,51,0
334.76627,334.85828,63,51,0
334.76627,334.85828,66,57,0
335.01614,335.10373,63,55,0
335.01614,335.10373,66,55,0
335.01614,335.10373,75,62,0
335.258,335.35,72,53,0
335.258,335.35,60,47,0
335.258,335.35,63,47,0
335.258,335.35,66,53,0
335.50342,335.60776,72,45,0
335.50342,335.60776,60,41,0
335.50342,335.60776,63,41,0
335.50342,335.60776,66,45,0
335.76566,335.85834,70,50,0
335.76566,335.85834,58,44,0
335.76566,335.85834,61,44,0
335.76566,335.85834,65,50,0
336.01086,336.10126,73,50,0
336.01086,336.10126,61,44,0
336.01086,336.10126,65,44,0
336.01086,336.10126,68,50,0
336.2508,336.34116,73,50,0
336.2508,336.34116,61,44,0
336.2508,336.34116,65,44,0
336.2508,336.34116,68,50,0
336.49313,336.58508,58,46,0
336.49313,336.58508,67,53,0
336.49313,336.58508,70,53,0
336.49313,336.58508,64,53,0
336.74075,336.83316,73,62,0
336.74075,336.83316,61,55,0
336.74075,336.83316,64,55,0
336.74075,336.83316,67,62,0
336.98682,337.1027,70,53,0
336.98682,337.1027,58,47,0
336.98682,337.1027,64,47,0
336.98682,337.1027,67,53,0
337.26392,337.35516,72,54,0
337.26392,337.35516,60,44,0
337.26392,337.35516,63,44,0
337.26392,337.35516,66,49,0
337.5061,337.59586,72,53,0
337.5061,337.59586,60,43,0
337.5061,337.59586,63,43,0
337.5061,337.59586,66,47,0
337.74512,337.8359,72,61,0
337.74512,337.8359,60,47,0
337.74512,337.8359,63,47,0
337.74512,337.8359,66,53,0
337.99637,338.09207,63,49,0
337.99637,338.09207,66,49,0
337.99637,338.09207,75,62,0
338.24634,338.33374,72,53,0
338.24634,338.33374,60,42,0
338.24634,338.33374,63,42,0
338.24634,338.33374,66,46,0
338.47937,338.59528,72,50,0
338.47937,338.59528,60,40,0
338.47937,338.59528,63,40,0
338.47937,338.59528,66,44,0
338.75754,338.84955,70,54,0
338.75754,338.84955,58,44,0
338.75754,338.84955,61,44,0
338.75754,338.84955,65,49,0
339.0017,339.0922,73,53,0
339.0017,339.0922,61,43,0
339.0017,339.0922,65,43,0
339.0017,339.0922,68,53,0
339.24246,339.3335,73,53,0
339.24246,339.3335,61,43,0
339.24246,339.3335,65,43,0
339.24246,339.3335,68,47,0
339.48688,339.58005,58,44,0
339.48688,339.58005,64,44,0
339.48688,339.58005,67,49,0
339.48688,339.58005,70,54,0
339.73785,339.83026,73,65,0
339.73785,339.83026,65,52,0
339.73785,339.83026,61,52,0
339.98425,340.09378,70,54,0
339.98425,340.09378,66,49,0
339.98425,340.09378,58,44,0
340.25055,340.3403,77,63,0
340.25055,340.3403,65,49,0
340.25055,340.3403,68,49,0
340.25055,340.3403,71,56,0
340.48917,340.57794,71,54,0
340.48917,340.57794,77,63,0
340.48917,340.57794,65,47,0
340.48917,340.57794,68,47,0
340.72684,340.81677,77,67,0
340.72684,340.81677,65,53,0
340.72684,340.81677,68,53,0
340.72684,340.81677,71,61,0
340.97684,341.06458,68,60,0
340.97684,341.06458,71,65,0
340.97684,341.06458,80,74,0
341.21652,341.3064,77,64,0
341.21652,341.3064,65,52,0
341.21652,341.3064,68,52,0
341.21652,341.3064,71,57,0
341.4562,341.55704,77,57,0
341.4562,341.55704,65,45,0
341.4562,341.55704,68,45,0
341.4562,341.55704,71,51,0
341.71213,341.8025,75,63,0
341.71213,341.8025,63,49,0
341.71213,341.8025,66,49,0
341.71213,341.8025,70,56,0
341.95166,342.04025,78,62,0
341.95166,342.04025,66,47,0
341.95166,342.04025,70,47,0
341.95166,342.04025,73,54,0
342.18686,342.27527,78,62,0
342.18686,342.27527,66,47,0
342.18686,342.27527,70,47,0
342.18686,342.27527,73,54,0
342.42395,342.51398,63,49,0
342.42395,342.51398,66,49,0
342.42395,342.51398,70,56,0
342.42395,342.51398,75,63,0
342.66803,342.7604,78,79,0
342.66803,342.7604,70,62,0
342.66803,342.7604,66,62,0
342.91104,343.01743,75,63,0
342.91104,343.01743,66,49,0
342.91104,343.01743,63,49,0
342.91104,343.01743,70,56,0
343.17447,343.2649,79,69,0
343.17447,343.2649,67,54,0
343.17447,343.2649,70,54,0
343.17447,343.2649,73,62,0
343.41415,343.50284,73,60,0
343.41415,343.50284,79,70,0
343.41415,343.50284,67,53,0
343.41415,343.50284,70,53,0
343.65015,343.73953,79,75,0
343.65015,343.73953,67,61,0
343.65015,343.73953,70,61,0
343.65015,343.73953,73,66,0
343.8995,343.98895,70,63,0
343.8995,343.98895,73,72,0
343.8995,343.98895,82,81,0
344.1432,344.23523,79,77,0
344.1432,344.23523,67,62,0
344.1432,344.23523,70,62,0
344.1432,344.23523,73,69,0
344.3886,344.48944,79,66,0
344.3886,344.48944,67,53,0
344.3886,344.48944,70,53,0
344.3886,344.48944,73,60,0
344.6454,344.73615,77,75,0
344.6454,344.73615,65,60,0
344.6454,344.73615,70,60,0
344.6454,344.73615,73,66,0
344.88556,344.97412,80,71,0
344.88556,344.97412,68,56,0
344.88556,344.97412,70,56,0
344.88556,344.97412,73,63,0
345.1204,345.20898,80,71,0
345.1204,345.20898,68,56,0
345.1204,345.20898,70,56,0
345.1204,345.20898,73,63,0
345.3587,345.4498,66,60,0
345.3587,345.4498,70,60,0
345.3587,345.4498,73,66,0
345.3587,345.4498,77,75,0
345.60904,345.70486,80,79,0
345.60904,345.70486,70,63,0
345.60904,345.70486,68,63,0
345.60904,345.70486,73,79,0
345.8646,345.96652,77,83,0
345.8646,345.96652,70,65,0
345.8646,345.96652,65,65,0
345.8646,345.96652,73,74,0
346.11783,346.20703,87,73,0
346.11783,346.20703,75,59,0
346.11783,346.20703,79,59,0
346.11783,346.20703,82,65,0
346.3543,346.44183,87,73,0
346.3543,346.44183,75,59,0
346.3543,346.44183,79,59,0
346.3543,346.44183,82,65,0
346.58658,346.67328,87,84,0
346.58658,346.67328,75,66,0
346.58658,346.67328,79,66,0
346.58658,346.67328,82,75,0
346.83286,346.92044,78,64,0
346.83286,346.92044,85,64,0
346.83286,346.92044,90,81,0
346.83286,346.92044,82,64,0
347.0747,347.16675,87,80,0
347.0747,347.16675,75,63,0
347.0747,347.16675,79,63,0
347.0747,347.16675,82,70,0
347.32013,347.41714,87,66,0
347.32013,347.41714,75,53,0
347.32013,347.41714,79,53,0
347.32013,347.41714,82,61,0
347.56955,347.65894,85,73,0
347.56955,347.65894,73,59,0
347.56955,347.65894,78,59,0
347.56955,347.65894,82,65,0
347.80667,347.89456,88,73,0
347.80667,347.89456,76,59,0
347.80667,347.89456,82,59,0
347.80667,347.89456,85,65,0
348.03986,348.1269,88,73,0
348.03986,348.1269,76,59,0
348.03986,348.1269,82,59,0
348.03986,348.1269,85,65,0
348.27194,348.359,73,62,0
348.27194,348.359,82,69,0
348.27194,348.359,85,79,0
348.27194,348.359,78,69,0
348.5064,348.5988,88,83,0
348.5064,348.5988,76,66,0
348.5064,348.5988,82,66,0
348.5064,348.5988,85,74,0
348.75244,348.85254,85,80,0
348.75244,348.85254,73,63,0
348.75244,348.85254,78,63,0
348.75244,348.85254,82,70,0
349.00592,349.09503,87,73,0
349.00592,349.09503,75,59,0
349.00592,349.09503,79,59,0
349.00592,349.09503,82,65,0
349.24207,349.32944,87,73,0
349.24207,349.32944,75,59,0
349.24207,349.32944,79,59,0
349.24207,349.32944,82,65,0
349.4751,349.56247,87,84,0
349.4751,349.56247,75,66,0
349.4751,349.56247,79,66,0
349.4751,349.56247,82,75,0
349.72214,349.80972,78,64,0
349.72214,349.80972,85,64,0
349.72214,349.80972,90,81,0
349.72214,349.80972,82,64,0
349.964,350.05603,87,80,0
349.964,350.05603,75,63,0
349.964,350.05603,79,63,0
349.964,350.05603,82,70,0
350.2094,350.30643,87,66,0
350.2094,350.30643,75,53,0
350.2094,350.30643,79,53,0
350.2094,350.30643,82,61,0
350.45926,350.5489,85,73,0
350.45926,350.5489,73,59,0
350.45926,350.5489,78,59,0
350.45926,350.5489,82,65,0
350.69684,350.78473,88,73,0
350.69684,350.78473,76,59,0
350.69684,350.78473,82,59,0
350.69684,350.78473,85,65,0
350.93002,351.01706,88,73,0
350.93002,351.01706,76,59,0
350.93002,351.01706,82,59,0
350.93002,351.01706,85,65,0
351.16214,351.24918,73,62,0
351.16214,351.24918,82,69,0
351.16214,351.24918,85,79,0
351.16214,351.24918,78,69,0
351.39658,351.48898,88,83,0
351.39658,351.48898,76,66,0
351.39658,351.48898,82,66,0
351.39658,351.48898,85,74,0
351.6426,351.7585,85,80,0
351.6426,351.7585,73,63,0
351.6426,351.7585,78,63,0
351.6426,351.7585,82,70,0
351.91507,352.00256,95,73,0
351.91507,352.00256,83,57,0
351.91507,352.00256,90,57,0
351.91507,352.00256,93,65,0
352.14673,352.23215,95,73,0
352.14673,352.23215,83,57,0
352.14673,352.23215,90,57,0
352.14673,352.23215,93,65,0
352.3744,352.45975,95,84,0
352.3744,352.45975,83,66,0
352.3744,352.45975,90,66,0
352.3744,352.45975,93,76,0
352.6192,352.7068,86,63,0
352.6192,352.7068,93,63,0
352.6192,352.7068,98,80,0
352.6192,352.7068,90,63,0
352.86105,352.95306,95,77,0
352.86105,352.95306,83,61,0
352.86105,352.95306,90,61,0
352.86105,352.95306,93,70,0
353.10645,353.20346,95,67,0
353.10645,353.20346,83,53,0
353.10645,353.20346,90,53,0
353.10645,353.20346,93,59,0
353.36282,353.4581,72,86,0
353.36282,353.4581,69,80,0
353.48984,353.5877,77,72,0
353.48984,353.5877,81,80,0
353.7409,353.83173,84,63,0
353.7409,353.83173,93,71,0
353.7409,353.83173,81,63,0
353.98306,354.07388,89,75,0
353.98306,354.07388,81,69,0
353.98306,354.07388,77,69,0
354.22522,354.31702,84,69,0
354.22522,354.31702,77,62,0
354.22522,354.31702,72,62,0
354.46704,354.55658,81,64,0
354.46704,354.55658,69,57,0
354.58646,354.676,77,61,0
354.46704,354.70584,72,57,0
354.824,354.9119,83,77,0
354.824,354.9119,71,61,0
354.824,354.9119,78,61,0
354.824,354.9119,81,69,0
355.05704,355.14328,83,77,0
355.05704,355.14328,71,61,0
355.05704,355.14328,78,61,0
355.05704,355.14328,81,69,0
355.28613,355.3718,83,89,0
355.28613,355.3718,71,70,0
355.28613,355.3718,78,70,0
355.28613,355.3718,81,80,0
355.53128,355.61887,74,67,0
355.53128,355.61887,81,67,0
355.53128,355.61887,86,85,0
355.53128,355.61887,78,67,0
355.77313,355.86517,83,82,0
355.77313,355.86517,71,65,0
355.77313,355.86517,78,65,0
355.77313,355.86517,81,74,0
356.01855,356.1191,83,71,0
356.01855,356.1191,71,56,0
356.01855,356.1191,78,56,0
356.01855,356.1191,81,63,0
356.27963,356.3749,72,86,0
356.27963,356.3749,69,80,0
356.40668,356.50452,77,72,0
356.40668,356.50452,81,80,0
356.65775,356.74854,72,57,0
356.65775,356.74854,81,63,0
356.65775,356.74854,69,57,0
356.8999,356.9907,77,66,0
356.8999,356.9907,69,62,0
356.8999,356.9907,65,62,0
357.14203,357.23386,72,62,0
357.14203,357.23386,65,54,0
357.14203,357.23386,60,54,0
357.38385,357.47342,69,57,0
357.38385,357.47342,57,51,0
357.50327,357.59283,65,53,0
357.38385,357.62268,60,51,0
357.7422,357.83102,71,69,0
357.7422,357.83102,59,53,0
357.7422,357.83102,66,53,0
357.7422,357.83102,69,62,0
357.97757,358.06467,71,69,0
357.97757,358.06467,59,53,0
357.97757,358.06467,66,53,0
357.97757,358.06467,69,62,0
358.20975,358.29678,71,68,0
358.20975,358.29678,59,52,0
358.20975,358.29678,66,52,0
358.20975,358.29678,69,60,0
358.45642,358.544,62,61,0
358.45642,358.544,69,61,0
358.45642,358.544,74,76,0
358.45642,358.544,66,61,0
358.69827,358.79028,71,62,0
358.69827,358.79028,59,50,0
358.69827,358.79028,66,50,0
358.69827,358.79028,69,55,0
358.9437,359.04068,71,63,0
358.9437,359.04068,59,50,0
358.9437,359.04068,66,50,0
358.9437,359.04068,69,56,0
359.19653,359.2896,69,59,0
359.4442,359.53668,69,62,0
359.4442,359.53668,68,54,0
359.69016,359.78192,67,59,0
359.69016,359.78192,69,64,0
359.93433,360.0255,69,69,0
359.93433,360.0255,66,62,0
360.1769,360.2675,69,71,0
360.1769,360.2675,66,63,0
360.1769,360.2675,65,63,0
360.41782,360.5077,69,75,0
360.41782,360.5077,66,67,0
360.41782,360.5077,64,67,0
360.657,360.74652,69,77,0
360.657,360.74652,66,69,0
360.657,360.74652,63,69,0
360.89572,360.98523,69,73,0
360.89572,360.98523,66,65,0
360.89572,360.98523,64,65,0
361.13443,361.22394,69,71,0
361.13443,361.22394,66,63,0
361.13443,361.22394,63,63,0
361.3731,361.46228,69,71,0
361.3731,361.46228,66,63,0
361.3731,361.46228,62,63,0
361.61053,361.69922,69,69,0
361.61053,361.69922,66,62,0
361.61053,361.69922,61,62,0
361.84653,361.9346,69,67,0
361.84653,361.9346,66,61,0
361.84653,361.9346,60,61,0
362.08282,362.172,69,63,0
362.08282,362.172,59,57,0
362.08282,362.172,63,57,0
362.08282,362.172,66,57,0
362.3206,362.40973,69,67,0
362.3206,362.40973,59,60,0
362.3206,362.40973,63,60,0
362.3206,362.40973,66,60,0
362.55832,362.64722,69,72,0
362.55832,362.64722,59,63,0
362.55832,362.64722,63,63,0
362.55832,362.64722,66,63,0
362.79684,362.8875,69,75,0
362.79684,362.8875,59,67,0
362.79684,362.8875,63,67,0
362.79684,362.8875,66,67,0
363.04028,363.13284,69,80,0
363.04028,363.13284,59,72,0
363.04028,363.13284,63,72,0
363.04028,363.13284,66,72,0
363.29486,363.40042,69,84,0
363.29486,363.40042,59,75,0
363.29486,363.40042,63,75,0
363.29486,363.40042,66,75,0
363.56168,363.6551,60,95,0
363.68622,363.78217,66,80,0
363.68622,363.78217,70,86,0
363.68622,363.78217,63,86,0
363.8137,363.9026,82,97,0
363.8137,363.9026,72,77,0
363.8137,363.9026,75,77,0
363.8137,363.9026,78,86,0
364.05048,364.13895,66,62,0
364.05048,364.13895,70,69,0
364.28683,364.37598,63,71,0
364.28683,364.37598,66,79,0
364.52576,364.61356,70,87,0
364.64285,364.73065,73,86,0
364.52576,364.75995,66,79,0
364.75995,364.84775,72,81,0
364.75995,364.84775,68,72,0
365.00006,365.09232,65,89,0
365.00006,365.09232,61,81,0
365.12305,365.21753,68,73,0
365.12305,365.21753,73,81,0
365.24902,365.3356,80,99,0
365.24902,365.3356,68,80,0
365.24902,365.3356,72,80,0
365.24902,365.3356,77,89,0
365.48053,365.56787,66,75,0
365.48053,365.56787,63,69,0
365.71594,365.80618,70,66,0
365.71594,365.80618,66,62,0
365.83652,365.9281,68,64,0
365.83652,365.9281,65,59,0
366.3686,366.462,73,86,0
366.49313,366.58655,82,75,0
366.49313,366.58655,78,69,0
366.49313,366.58655,73,69,0
366.74515,366.83408,94,87,0
366.74515,366.83408,90,77,0
366.74515,366.83408,85,70,0
366.61768,366.86365,82,96,0
366.98193,367.0704,73,62,0
366.98193,367.0704,82,69,0
366.98193,367.0704,70,62,0
367.21783,367.3066,70,71,0
367.21783,367.3066,78,79,0
367.21783,367.3066,66,71,0
367.57333,367.66116,85,77,0
367.57333,367.66116,82,64,0
367.57333,367.66116,73,64,0
367.69043,367.77826,84,72,0
367.69043,367.77826,80,64,0
367.69043,367.77826,72,64,0
367.80753,367.8998,68,86,0
367.93054,368.0228,80,70,0
367.93054,368.0228,77,63,0
367.93054,368.0228,73,63,0
368.17798,368.2654,92,89,0
368.17798,368.2654,85,80,0
368.17798,368.2654,89,80,0
368.05356,368.29462,80,95,0
368.41174,368.49988,78,66,0
368.41174,368.49988,75,62,0
368.41174,368.49988,66,62,0
368.64822,368.7385,82,75,0
368.64822,368.7385,78,69,0
368.7688,368.8604,80,72,0
368.7688,368.8604,77,65,0
369.43155,369.52765,75,86,0
369.43155,369.52765,66,77,0
369.43155,369.52765,70,77,0
369.43155,369.52765,78,86,0
369.55963,369.81348,68,81,0
369.55963,369.81348,80,81,0
369.81348,369.91318,69,83,0
369.81348,369.91318,81,94,0
369.81348,369.91318,78,94,0
369.81348,369.91318,75,83,0
369.9464,370.0542,70,77,0
369.9464,370.0542,82,86,0
370.09012,370.1883,75,92,0
370.09012,370.1883,78,92,0
370.09012,370.1883,87,103,0
370.22037,370.31564,74,79,0
370.22037,370.31564,86,87,0
370.3472,370.44165,73,84,0
370.3472,370.44165,85,95,0
370.4731,370.56747,84,85,0
370.4731,370.56747,72,76,0
370.59894,370.69302,83,87,0
370.59894,370.69302,71,79,0
370.7245,370.81937,70,79,0
370.7245,370.81937,82,87,0
370.85117,370.94867,69,77,0
370.85117,370.94867,77,86,0
370.85117,370.94867,81,86,0
370.9812,371.07874,68,71,0
370.9812,371.07874,80,79,0
371.11124,371.3671,85,87,0
371.11124,371.3671,73,79,0
371.4929,371.58728,71,69,0
371.4929,371.58728,83,77,0
371.3671,371.6187,84,73,0
371.3671,371.6187,78,73,0
371.3671,371.6187,72,66,0
371.6187,371.71835,70,64,0
371.6187,371.71835,77,72,0
371.6187,371.71835,82,72,0
371.75156,371.85117,68,62,0
371.75156,371.85117,80,70,0
371.88437,371.98755,70,59,0
371.88437,371.98755,82,64,0
372.02194,372.46118,65,63,0
372.02194,372.46118,77,70,0
372.02194,372.46118,74,70,0
372.02194,372.46118,68,63,0
372.59106,372.68713,87,86,0
372.59106,372.68713,78,77,0
372.59106,372.68713,82,77,0
372.59106,372.68713,90,86,0
372.71912,372.97296,80,72,0
372.71912,372.97296,92,81,0
372.97296,373.07358,81,79,0
372.97296,373.07358,93,93,0
372.97296,373.07358,90,93,0
372.97296,373.07358,87,79,0
373.10712,373.21237,82,77,0
373.10712,373.21237,94,86,0
373.24747,373.3455,87,84,0
373.24747,373.3455,91,84,0
373.24747,373.3455,99,94,0
373.37778,373.4737,86,79,0
373.37778,373.4737,98,87,0
373.5055,373.6006,85,84,0
373.5055,373.6006,97,95,0
373.63217,373.7269,96,89,0
373.63217,373.7269,84,80,0
373.75858,373.85382,95,90,0
373.75858,373.85382,83,81,0
373.88568,373.9815,82,79,0
373.88568,373.9815,94,87,0
374.01355,374.11108,81,81,0
374.01355,374.11108,88,90,0
374.01355,374.11108,93,90,0
374.1436,374.24112,80,72,0
374.1436,374.24112,92,81,0
374.27362,374.52948,97,87,0
374.27362,374.52948,85,79,0
374.6553,374.74966,81,70,0
374.6553,374.74966,93,79,0
374.52948,374.78113,95,70,0
374.52948,374.78113,87,70,0
374.52948,374.78113,83,62,0
374.78113,374.88074,80,66,0
374.78113,374.88074,88,73,0
374.78113,374.88074,92,73,0
374.91394,375.01358,78,63,0
374.91394,375.01358,90,71,0
375.04678,375.14996,80,60,0
375.04678,375.14996,92,67,0
375.18433,375.61887,76,61,0
375.18433,375.61887,80,61,0
375.18433,375.61887,88,67,0
375.74588,375.84116,64,72,0
375.74588,375.84116,61,63,0
375.8729,375.97076,69,59,0
375.8729,375.97076,73,65,0
376.12366,376.21362,68,53,0
376.12366,376.21362,72,61,0
376.24347,376.33267,73,54,0
376.24347,376.33267,69,47,0
376.48038,376.56897,69,63,0
376.48038,376.56897,66,55,0
376.7209,376.81046,73,75,0
376.8403,376.92987,76,72,0
376.7209,376.95972,69,66,0
376.95972,377.0493,75,66,0
376.95972,377.0493,71,61,0
377.20456,377.29865,68,66,0
377.20456,377.29865,59,61,0
377.33002,377.42636,68,53,0
377.33002,377.42636,71,62,0
377.5763,377.66495,68,63,0
377.5763,377.66495,64,56,0
377.69458,377.78366,69,57,0
377.69458,377.78366,66,52,0
377.93463,378.02667,73,57,0
377.93463,378.02667,69,52,0
378.0576,378.151,68,47,0
378.0576,378.151,71,54,0
378.72153,378.8168,76,44,0
378.72153,378.8168,73,40,0
378.84857,378.9464,81,41,0
378.84857,378.9464,85,41,0
379.0993,379.18927,80,32,0
379.0993,379.18927,84,36,0
379.21912,379.30835,85,33,0
379.21912,379.30835,81,29,0
379.45605,379.54462,81,37,0
379.45605,379.54462,78,34,0
379.69656,379.7861,85,45,0
379.81598,379.90552,88,44,0
379.69656,379.93536,81,45,0
379.93536,380.02493,87,42,0
379.93536,380.02493,83,42,0
380.18024,380.27432,76,42,0
380.18024,380.27432,71,36,0
380.3057,380.40204,80,33,0
380.3057,380.40204,83,36,0
380.55194,380.64062,80,40,0
380.55194,380.64062,76,35,0
380.67026,380.7593,81,35,0
380.67026,380.7593,78,31,0
380.91028,381.00232,85,35,0
380.91028,381.00232,81,31,0
381.03326,381.12665,83,33,0
381.03326,381.12665,80,29,0
381.7245,381.8206,78,77,0
381.7245,381.8206,69,69,0
381.7245,381.8206,73,69,0
381.7245,381.8206,81,77,0
381.85254,382.1064,71,81,0
381.85254,382.1064,83,81,0
382.1064,382.20612,72,80,0
382.1064,382.20612,84,89,0
382.1064,382.20612,81,89,0
382.1064,382.20612,78,80,0
382.23935,382.34714,73,77,0
382.23935,382.34714,85,86,0
382.38306,382.48123,78,87,0
382.38306,382.48123,81,87,0
382.38306,382.48123,90,97,0
382.51328,382.60855,77,79,0
382.51328,382.60855,89,87,0
382.64014,382.7346,76,84,0
382.64014,382.7346,88,95,0
382.76602,382.86038,87,85,0
382.76602,382.86038,75,76,0
382.89185,382.98596,86,87,0
382.89185,382.98596,74,79,0
383.0174,383.11227,73,79,0
383.0174,383.11227,85,87,0
383.14407,383.2416,72,77,0
383.14407,383.2416,80,86,0
383.14407,383.2416,84,86,0
383.2741,383.37164,71,71,0
383.2741,383.37164,83,79,0
383.40414,383.66,88,87,0
383.40414,383.66,76,79,0
383.78583,383.8802,86,77,0
383.78583,383.8802,74,77,0
383.66,383.91165,87,73,0
383.66,383.91165,81,73,0
383.66,383.91165,75,66,0
383.91165,384.01126,73,64,0
383.91165,384.01126,80,72,0
383.91165,384.01126,85,72,0
384.04446,384.14407,71,62,0
384.04446,384.14407,83,70,0
384.1773,384.28046,73,59,0
384.1773,384.28046,85,64,0
384.31485,384.76175,68,63,0
384.31485,384.76175,80,70,0
384.31485,384.76175,77,70,0
384.31485,384.76175,71,63,0
384.8905,384.9866,90,73,0
384.8905,384.9866,81,64,0
384.8905,384.9866,85,64,0
384.8905,384.9866,93,73,0
385.0186,385.27243,83,76,0
385.0186,385.27243,95,76,0
385.27243,385.37213,84,74,0
385.27243,385.37213,96,83,0
385.27243,385.37213,93,83,0
385.27243,385.37213,90,74,0
385.40536,385.51315,85,67,0
385.40536,385.51315,97,76,0
385.54907,385.64725,90,77,0
385.54907,385.64725,93,77,0
385.54907,385.64725,102,84,0
385.67932,385.77457,89,74,0
385.67932,385.77457,101,80,0
385.80615,385.9006,100,87,0
385.80615,385.9006,88,80,0
385.93207,386.02643,99,81,0
385.93207,386.02643,87,72,0
386.05786,386.15198,98,82,0
386.05786,386.15198,86,74,0
386.18344,386.2783,85,74,0
386.18344,386.2783,97,82,0
386.3101,386.40762,84,73,0
386.3101,386.40762,92,81,0
386.3101,386.40762,96,81,0
386.44016,386.53766,83,66,0
386.44016,386.53766,95,74,0
386.5702,386.82605,100,82,0
386.5702,386.82605,88,74,0
386.95184,387.0462,98,73,0
386.95184,387.0462,86,73,0
386.82605,387.07767,99,70,0
386.82605,387.07767,93,70,0
386.82605,387.07767,87,63,0
387.07767,387.17728,85,61,0
387.07767,387.17728,92,67,0
387.07767,387.17728,97,67,0
387.2105,387.31012,83,57,0
387.2105,387.31012,95,65,0
387.34332,387.4465,85,55,0
387.34332,387.4465,97,61,0
387.4809,387.92014,80,54,0
387.4809,387.92014,92,57,0
387.4809,387.92014,89,57,0
387.4809,387.92014,83,54,0
387.92014,388.02438,44,47,0
388.05524,388.14725,49,47,0
388.05524,388.14725,54,47,0
388.17783,388.26907,53,47,0
388.2994,388.39,54,54,0
388.2994,388.39,57,54,0
388.42023,388.51086,56,52,0
388.54108,388.63724,61,52,0
388.54108,388.63724,57,52,0
388.66928,388.75992,59,52,0
388.7901,388.88074,63,60,0
388.7901,388.88074,60,46,0
388.91095,389.00156,61,52,0
388.91095,389.00156,58,41,0
389.03177,389.12146,60,52,0
389.03177,389.12146,56,41,0
389.1516,389.24268,55,52,0
389.2732,389.3654,58,51,0
389.2732,389.3654,54,51,0
389.39624,389.48862,52,51,0
389.51935,389.61118,56,47,0
389.51935,389.61118,53,47,0
389.64166,389.7329,55,47,0
389.76324,389.85388,60,56,0
389.76324,389.85388,56,56,0
389.8841,389.9747,59,53,0
390.0049,390.10107,63,53,0
390.0049,390.10107,60,53,0
390.13315,390.22375,60,52,0
390.25397,390.34457,65,60,0
390.25397,390.34457,61,46,0
390.3748,390.46536,63,55,0
390.3748,390.46536,60,44,0
390.49545,390.58612,61,57,0
390.49545,390.58612,58,45,0
390.61646,390.70807,57,53,0
390.7388,390.83136,60,53,0
390.7388,390.83136,56,53,0
390.86243,390.95288,53,51,0
390.98294,391.0729,58,47,0
390.98294,391.0729,54,47,0
391.1028,391.19223,57,47,0
391.22195,391.3109,61,54,0
391.22195,391.3109,58,54,0
391.34055,391.42947,60,52,0
391.45914,391.554,61,52,0
391.45914,391.554,65,52,0
391.5856,391.67453,62,52,0
391.70416,391.79312,63,46,0
391.70416,391.79312,66,60,0
391.82275,391.9117,61,41,0
391.82275,391.9117,65,52,0
391.94135,392.02982,60,41,0
391.94135,392.02982,63,52,0
392.05942,392.1485,59,52,0
392.17828,392.272,58,51,0
392.17828,392.272,61,51,0
392.30246,392.3914,64,52,0
392.42105,392.50998,65,46,0
392.42105,392.50998,68,60,0
392.53964,392.62857,63,41,0
392.53964,392.62857,66,52,0
392.65823,392.7467,61,41,0
392.65823,392.7467,65,52,0
392.7763,392.86536,59,52,0
392.89517,392.9863,60,51,0
392.89517,392.9863,63,51,0
393.0178,393.10675,65,52,0
393.13638,393.22534,66,46,0
393.13638,393.22534,70,60,0
393.25497,393.3439,65,41,0
393.25497,393.3439,68,52,0
393.37357,393.46204,63,41,0
393.37357,393.46204,66,52,0
393.49164,393.58072,62,52,0
393.6105,393.70023,61,51,0
393.6105,393.70023,65,51,0
393.73026,393.81906,62,53,0
393.84854,393.93683,62,50,0
393.84854,393.93683,66,50,0
393.9662,394.05396,65,50,0
394.08313,394.1704,66,57,0
394.08313,394.1704,69,57,0
394.19952,394.2868,68,53,0
394.3159,394.409,74,54,0
394.3159,394.409,70,54,0
394.44,394.52728,73,54,0
394.5564,394.64368,78,63,0
394.5564,394.64368,74,50,0
394.67276,394.76004,76,54,0
394.67276,394.76004,73,44,0
394.78915,394.87598,74,54,0
394.78915,394.87598,71,44,0
394.90503,394.99246,70,55,0
395.0217,395.10977,73,54,0
395.0217,395.10977,69,54,0
395.13925,395.22803,67,59,0
395.25754,395.34583,71,54,0
395.25754,395.34583,68,54,0
395.37515,395.46292,70,54,0
395.49213,395.5794,74,65,0
395.49213,395.5794,71,65,0
395.6085,395.69577,73,62,0
395.72488,395.81796,78,62,0
395.72488,395.81796,74,62,0
395.849,395.93628,76,61,0
395.96536,396.05264,80,69,0
395.96536,396.05264,77,54,0
396.08176,396.16904,78,65,0
396.08176,396.16904,74,52,0
396.19812,396.28497,73,53,0
396.31403,396.40143,72,63,0
396.19812,396.4307,77,67,0
396.4307,396.52438,74,62,0
396.4307,396.52438,71,62,0
396.55447,396.64258,68,59,0
396.67194,396.76,73,61,0
396.67194,396.76,69,61,0
396.78937,396.87857,72,61,0
396.90842,396.9958,78,72,0
396.90842,396.9958,73,72,0
397.02493,397.1123,77,66,0
397.14142,397.23453,81,67,0
397.14142,397.23453,78,67,0
397.26556,397.354,73,63,0
397.38348,397.4719,78,61,0
397.38348,397.4719,74,61,0
397.50137,397.59125,77,61,0
397.62122,397.70966,83,72,0
397.62122,397.70966,78,72,0
397.73914,397.82758,82,66,0
397.85706,397.95013,86,67,0
397.85706,397.95013,83,67,0
397.98117,398.06787,79,62,0
398.09677,398.18347,83,63,0
398.09677,398.18347,80,63,0
398.21237,398.30127,82,63,0
398.3311,398.4185,86,75,0
398.3311,398.4185,83,75,0
398.4476,398.535,85,70,0
398.56412,398.65723,90,71,0
398.56412,398.65723,86,71,0
398.68823,398.77563,83,71,0
398.80475,398.89215,92,65,0
398.80475,398.89215,84,65,0
398.80475,398.89215,87,65,0
398.92126,399.01114,86,65,0
399.0411,399.13287,96,74,0
399.0411,399.13287,87,74,0
399.0411,399.13287,90,74,0
399.16345,399.2588,89,70,0
399.29056,399.41428,99,74,0
399.29056,399.41428,90,71,0
399.29056,399.41428,96,71,0
399.4555,399.7261,89,93,0
399.4555,399.7261,97,93,0
399.4555,399.7261,101,101,0
399.7261,399.97284,77,104,0
399.97284,400.06818,75,99,0
400.09995,400.19528,77,93,0
399.7261,400.22705,68,82,0
399.7261,400.22705,65,82,0
400.22705,400.47482,73,93,0
400.22705,400.47482,68,69,0
400.22705,400.47482,65,69,0
400.47482,400.7175,61,93,0
400.7175,401.1949,80,101,0
400.7175,401.1949,73,90,0
400.7175,401.1949,68,90,0
401.1949,401.4469,82,95,0
401.1949,401.4469,73,85,0
401.1949,401.4469,70,85,0
401.4469,401.5294,68,74,0
401.4469,401.5294,80,83,0
401.55685,401.63916,67,65,0
401.55685,401.63916,79,73,0
401.77585,401.85754,65,72,0
401.77585,401.85754,77,72,0
401.4469,401.8847,73,83,0
401.9932,402.07428,63,66,0
401.9932,402.07428,75,73,0
402.20895,402.30347,61,63,0
402.20895,402.30347,73,71,0
402.568,403.02197,77,93,0
402.568,403.02197,65,83,0
403.02197,403.2569,75,87,0
403.02197,403.2569,66,79,0
403.2569,403.33875,75,89,0
403.36603,403.44788,74,79,0
403.4752,403.55704,73,79,0
403.58432,403.6662,72,74,0
403.2569,403.69348,66,80,0
403.69348,403.78018,73,80,0
403.80908,403.89575,72,70,0
403.69348,403.92465,65,70,0
403.92465,404.1772,70,71,0
404.4084,404.86182,68,79,0
404.4084,404.86182,65,65,0
404.86182,405.09674,69,76,0
405.09674,405.21072,69,80,0
405.21072,405.3247,70,74,0
405.3247,405.43866,71,74,0
405.43866,405.5575,72,74,0
405.09674,405.5575,65,62,0
405.5575,405.67145,70,81,0
405.67145,405.78543,72,74,0
405.5575,405.78543,65,70,0
405.78543,405.8994,73,74,0
405.8994,406.01337,77,74,0
406.01337,406.12735,82,82,0
406.12735,406.24133,84,76,0
406.24133,406.3553,85,76,0
406.3553,406.47504,89,76,0
406.47504,406.59088,94,82,0
406.59088,406.70865,96,79,0
406.70865,406.83047,97,79,0
406.83047,406.9523,101,79,0
407.2292,407.48907,72,69,0
407.19614,407.48907,65,65,0
407.1631,407.48907,60,62,0
407.61023,407.73108,65,59,0
407.61023,407.73108,75,65,0
407.61023,407.73108,72,65,0
407.61023,407.73108,69,59,0
407.85162,407.97183,67,57,0
407.85162,407.97183,79,64,0
407.97183,408.09158,76,63,0
407.97183,408.09158,64,56,0
407.97183,408.09158,67,56,0
407.97183,408.09158,70,63,0
408.21103,408.33017,74,59,0
408.21103,408.33017,62,52,0
408.21103,408.33017,67,52,0
408.21103,408.33017,70,59,0
408.44897,408.5279,70,62,0
408.5279,408.60727,67,62,0
408.60727,408.68695,62,62,0
408.44897,408.92914,74,71,0
409.17343,409.25485,60,65,0
409.25485,409.33627,65,59,0
409.33627,409.4177,69,59,0
409.33627,409.4177,72,59,0
409.53937,409.6607,77,57,0
409.53937,409.6607,89,57,0
409.53937,409.6607,84,57,0
409.53937,409.6607,81,57,0
409.7817,409.9024,79,62,0
409.7817,409.9024,91,62,0
409.9024,410.0226,76,62,0
409.9024,410.0226,88,69,0
409.9024,410.0226,82,69,0
409.9024,410.0226,79,62,0
410.14252,410.26212,74,51,0
410.14252,410.26212,86,57,0
410.14252,410.26212,82,51,0
410.14252,410.26212,79,57,0
410.38126,410.46017,82,64,0
410.46017,410.53937,79,57,0
410.53937,410.6189,74,57,0
410.38126,410.9065,86,72,0
410.9065,411.18283,84,63,0
410.88492,411.18283,81,57,0
410.8633,411.18283,72,54,0
411.18283,411.30832,81,82,0
411.18283,411.30832,93,93,0
411.18283,411.30832,89,93,0
411.18283,411.30832,84,82,0
411.4322,411.55405,79,79,0
411.4322,411.55405,91,87,0
411.6752,411.79587,77,77,0
411.6752,411.79587,89,86,0
411.9162,412.036,74,76,0
411.9162,412.036,86,85,0
412.15536,412.2744,72,76,0
412.15536,412.2744,84,85,0
412.3925,412.50916,69,75,0
412.3925,412.50916,81,84,0
412.6252,412.74127,67,74,0
412.6252,412.74127,79,83,0
412.85733,412.9729,77,83,0
412.85733,412.9729,65,74,0
413.0885,413.20395,74,82,0
413.0885,413.20395,62,74,0
413.3191,413.43423,72,81,0
413.3191,413.43423,60,73,0
413.54907,413.66376,69,81,0
413.54907,413.66376,57,72,0
413.77844,413.89682,67,86,0
413.77844,413.89682,55,77,0
413.92767,413.95847,65,63,0
413.92767,413.95847,53,55,0
413.95847,413.98923,67,63,0
413.95847,413.98923,55,56,0
413.98923,414.01993,69,63,0
413.98923,414.01993,57,56,0
414.01993,414.05057,71,63,0
414.01993,414.05057,59,57,0
414.05057,414.08115,72,65,0
414.05057,414.08115,60,59,0
414.08115,414.1117,74,66,0
414.08115,414.1117,62,59,0
414.1117,414.14215,76,66,0
414.1117,414.14215,64,59,0
414.14215,414.1726,77,67,0
414.14215,414.1726,65,60,0
414.1726,414.20297,79,69,0
414.1726,414.20297,67,61,0
414.20297,414.2333,81,70,0
414.20297,414.2333,69,62,0
414.2333,414.26358,83,71,0
414.2333,414.26358,71,62,0
414.26358,414.2938,84,71,0
414.26358,414.2938,72,62,0
414.2938,414.32397,86,71,0
414.2938,414.32397,74,63,0
414.32397,414.35406,76,63,0
414.32397,414.35406,88,71,0
414.35406,414.38422,77,63,0
414.35406,414.38422,89,72,0
414.38422,414.41467,79,65,0
414.38422,414.41467,91,72,0
414.41467,414.44537,81,65,0
414.41467,414.44537,93,72,0
414.44537,414.4764,83,66,0
414.44537,414.4764,95,73,0
414.4764,414.50772,84,66,0
414.4764,414.50772,96,74,0
414.50772,414.53937,86,67,0
414.50772,414.53937,98,75,0
414.53937,414.6607,88,69,0
414.53937,414.6607,100,76,0
414.6607,414.9217,89,87,0
414.6607,414.9217,101,93,0
414.9217,415.17593,77,89,0
414.9217,415.17593,80,89,0
414.9217,415.17593,85,89,0
414.9217,415.17593,89,99,0
415.17593,415.27332,75,83,0
415.17593,415.27332,87,94,0
415.3058,415.4032,77,79,0
415.3058,415.4032,89,89,0
415.43567,415.68777,73,79,0
415.43567,415.68777,85,89,0
415.68777,415.93265,61,89,0
415.93265,416.41656,92,97,0
415.93265,416.41656,80,88,0
415.93265,416.41656,85,88,0
415.93265,416.41656,89,88,0
416.41656,416.6648,94,91,0
416.41656,416.6648,82,80,0
416.41656,416.6648,85,80,0
416.41656,416.6648,89,80,0
416.6648,416.78546,92,84,0
416.6648,416.78546,85,77,0
416.6648,416.78546,89,84,0
416.6648,416.78546,80,77,0
416.78546,416.90515,91,84,0
416.78546,416.90515,79,77,0
416.90515,417.02383,90,83,0
416.90515,417.02383,78,75,0
417.02383,417.14166,89,82,0
417.02383,417.14166,77,73,0
417.14166,417.25946,88,81,0
417.14166,417.25946,76,72,0
417.25946,417.3765,87,80,0
417.25946,417.3765,75,72,0
417.3765,417.49265,86,79,0
417.3765,417.49265,74,71,0
417.49265,417.6079,85,79,0
417.49265,417.6079,73,69,0
417.84662,418.31354,80,88,0
417.84662,418.31354,77,88,0
417.84662,418.31354,89,97,0
418.31354,418.56177,87,100,0
418.31354,418.56177,78,89,0
418.31354,418.56177,75,89,0
418.56177,418.68018,87,91,0
418.56177,418.68018,75,80,0
418.68018,418.7979,86,83,0
418.68018,418.7979,74,75,0
418.7979,418.91522,85,84,0
418.7979,418.91522,73,77,0
418.91522,419.0319,84,78,0
418.91522,419.0319,72,69,0
419.0319,419.15076,85,83,0
419.0319,419.15076,73,75,0
419.15076,419.26898,84,78,0
419.15076,419.26898,72,69,0
419.26898,419.38675,83,78,0
419.26898,419.38675,71,69,0
419.38675,419.50388,82,78,0
419.38675,419.50388,70,69,0
419.7369,420.20297,73,83,0
419.7369,420.20297,77,83,0
419.7369,420.20297,80,93,0
419.7369,420.20297,68,83,0
420.20297,420.4512,81,88,0
420.20297,420.4512,78,78,0
420.20297,420.4512,69,78,0
420.20297,420.4512,72,78,0
420.4512,420.56818,81,91,0
420.4512,420.56818,78,80,0
420.4512,420.56818,72,80,0
420.4512,420.56818,69,80,0
420.56818,420.68484,82,83,0
420.56818,420.68484,70,75,0
420.68484,420.8012,83,84,0
420.68484,420.8012,71,77,0
420.8012,420.9171,84,78,0
420.8012,420.9171,72,69,0
420.9171,421.03455,82,83,0
420.9171,421.03455,70,75,0
420.9171,421.03455,77,75,0
421.03455,421.15167,84,78,0
421.03455,421.15167,72,69,0
421.15167,421.26834,85,78,0
421.15167,421.26834,73,69,0
421.26834,421.3852,89,78,0
421.26834,421.3852,77,69,0
421.621,421.85684,92,92,0
421.621,421.85684,89,92,0
421.621,421.85684,80,92,0
421.85684,422.34018,94,100,0
421.85684,422.34018,88,100,0
421.85684,422.34018,82,100,0
422.34018,422.4947,95,95,0
422.34018,422.4947,88,95,0
422.34018,422.4947,83,95,0
422.6298,422.89288,71,72,0
422.59613,422.89288,64,63,0
422.56235,422.89288,59,61,0
423.01407,423.13492,64,59,0
423.01407,423.13492,75,65,0
423.01407,423.13492,71,65,0
423.01407,423.13492,68,59,0
423.25546,423.37567,66,57,0
423.25546,423.37567,78,64,0
423.37567,423.49542,75,63,0
423.37567,423.49542,63,56,0
423.37567,423.49542,66,56,0
423.37567,423.49542,69,63,0
423.61487,423.734,73,59,0
423.61487,423.734,61,52,0
423.61487,423.734,66,52,0
423.61487,423.734,69,59,0
423.8528,423.93173,69,62,0
423.93173,424.0111,66,62,0
424.0111,424.0908,61,62,0
423.8528,424.33298,73,71,0
424.57724,424.6587,59,65,0
424.6587,424.7401,64,59,0
424.7401,424.82153,68,59,0
424.7401,424.82153,71,59,0
424.94318,425.0645,76,57,0
424.94318,425.0645,88,57,0
424.94318,425.0645,83,57,0
424.94318,425.0645,80,57,0
425.18555,425.30624,78,62,0
425.18555,425.30624,90,62,0
425.30624,425.42645,75,62,0
425.30624,425.42645,87,69,0
425.30624,425.42645,81,69,0
425.30624,425.42645,78,62,0
425.54636,425.66595,73,51,0
425.54636,425.66595,85,57,0
425.54636,425.66595,81,51,0
425.54636,425.66595,78,57,0
425.7851,425.84427,82,64,0
425.84427,425.9036,76,61,0
425.9036,425.9631,73,63,0
425.7851,426.26364,85,72,0
426.51898,426.64133,44,76,0
426.64133,426.7635,56,67,0
426.64133,426.7635,49,59,0
426.8853,427.007,49,52,0
426.8853,427.007,61,59,0
426.8853,427.007,56,52,0
426.8853,427.007,53,52,0
427.1283,427.25543,51,56,0
427.1283,427.25543,63,56,0
427.25543,427.37674,48,56,0
427.25543,427.37674,60,75,0
427.25543,427.37674,54,56,0
427.25543,427.37674,51,56,0
427.49707,427.61725,46,47,0
427.49707,427.61725,58,70,0
427.7371,427.8564,52,63,0
427.8564,427.9761,46,59,0
427.7371,428.21704,58,85,0
428.47235,428.5947,50,76,0
428.5947,428.71686,65,67,0
428.5947,428.71686,58,59,0
428.8387,428.96036,58,52,0
428.8387,428.96036,70,63,0
428.8387,428.96036,65,52,0
428.8387,428.96036,62,52,0
429.0817,429.2088,60,56,0
429.0817,429.2088,72,59,0
429.2088,429.33014,57,56,0
429.2088,429.33014,69,75,0
429.2088,429.33014,63,56,0
429.2088,429.33014,60,56,0
429.45047,429.57062,55,47,0
429.45047,429.57062,67,70,0
429.69046,429.8098,61,63,0
429.8098,429.92947,52,59,0
429.69046,430.17044,67,76,0
430.42575,430.5481,53,76,0
430.5481,430.67026,68,67,0
430.5481,430.67026,61,59,0
430.79208,430.91376,61,52,0
430.79208,430.91376,73,63,0
430.79208,430.91376,68,52,0
430.79208,430.91376,65,52,0
431.0351,431.1622,63,56,0
431.0351,431.1622,75,59,0
431.1622,431.2835,60,56,0
431.1622,431.2835,72,75,0
431.1622,431.2835,66,56,0
431.1622,431.2835,63,56,0
431.40384,431.52402,58,47,0
431.40384,431.52402,70,70,0
431.64386,431.7632,64,63,0
431.7632,431.88287,58,59,0
431.64386,432.12387,70,85,0
432.37915,432.5015,62,80,0
432.5015,432.62366,77,70,0
432.5015,432.62366,70,62,0
432.74548,432.86716,82,67,0
432.74548,432.86716,70,57,0
432.74548,432.86716,77,57,0
432.74548,432.86716,74,57,0
432.98853,433.11557,72,58,0
432.98853,433.11557,84,61,0
433.11557,433.2369,69,60,0
433.11557,433.2369,81,81,0
433.11557,433.2369,75,60,0
433.11557,433.2369,72,60,0
433.35724,433.4774,67,49,0
433.35724,433.4774,79,75,0
433.59723,433.71658,73,67,0
433.71658,433.83624,64,61,0
433.59723,434.0772,79,90,0
434.32602,434.44833,65,89,0
434.44833,434.5705,80,77,0
434.44833,434.5705,73,69,0
434.69235,434.814,85,69,0
434.69235,434.814,73,62,0
434.9354,435.06244,75,65,0
434.9354,435.06244,87,65,0
435.06244,435.18375,72,67,0
435.06244,435.18375,84,85,0
435.06244,435.18375,78,67,0
435.06244,435.18375,75,67,0
435.30408,435.4244,70,54,0
435.30408,435.4244,82,76,0
435.5504,435.67075,74,67,0
435.5504,435.67075,86,85,0
435.5504,435.67075,80,67,0
435.5504,435.67075,77,67,0
435.79108,435.9114,73,56,0
435.79108,435.9114,85,77,0
436.03583,436.15613,76,69,0
436.03583,436.15613,88,87,0
436.03583,436.15613,82,69,0
436.03583,436.15613,79,69,0
436.27646,436.3968,75,57,0
436.27646,436.3968,87,79,0
436.5212,436.64154,77,70,0
436.5212,436.64154,89,89,0
436.5212,436.64154,83,70,0
436.5212,436.64154,80,70,0
436.76187,436.8822,75,57,0
436.76187,436.8822,87,80,0
437.00766,437.128,93,90,0
437.00766,437.128,81,71,0
437.00766,437.128,85,71,0
437.00766,437.128,87,71,0
437.24832,437.36865,92,81,0
437.24832,437.36865,80,58,0
437.36865,437.49304,90,66,0
437.36865,437.49304,78,58,0
437.49304,437.61288,96,92,0
437.49304,437.61288,84,73,0
437.49304,437.61288,87,73,0
437.49304,437.61288,90,73,0
437.73273,437.85873,94,84,0
437.73273,437.85873,82,59,0
437.85873,437.98474,92,84,0
437.85873,437.98474,80,59,0
437.98474,438.24118,97,100,0
437.98474,438.24118,89,70,0
437.98474,438.24118,85,70,0
438.24118,438.32892,61,61,0
438.24118,438.32892,56,61,0
438.35815,438.4459,61,54,0
438.35815,438.4459,56,54,0
438.70847,438.79532,61,61,0
438.70847,438.79532,56,61,0
438.82422,438.9107,61,56,0
438.82422,438.9107,56,56,0
439.16888,439.25488,61,61,0
439.16888,439.25488,59,61,0
439.28357,439.3696,61,56,0
439.28357,439.3696,59,56,0
439.62762,439.71365,61,61,0
439.62762,439.71365,57,61,0
439.7423,439.82834,61,56,0
439.7423,439.82834,57,56,0
439.97168,440.0577,59,61,0
439.97168,440.0577,54,61,0
440.0864,440.1724,59,56,0
440.0864,440.1724,52,56,0
440.43045,440.51645,59,56,0
440.43045,440.51645,57,56,0
440.54514,440.63184,59,62,0
440.54514,440.63184,56,62,0
440.89194,440.97864,59,56,0
440.89194,440.97864,54,56,0
441.00754,441.09424,59,61,0
441.00754,441.09424,56,61,0
441.35745,441.4452,59,61,0
441.35745,441.4452,57,61,0
441.59427,441.68414,75,84,0
441.59427,441.68414,81,95,0
441.59427,441.68414,69,84,0
441.71408,441.94806,85,95,0
441.71408,441.94806,77,84,0
441.71408,441.94806,73,84,0
441.94806,442.03577,61,61,0
441.94806,442.03577,56,61,0
442.06503,442.15277,61,54,0
442.06503,442.15277,56,54,0
442.4158,442.503,61,61,0
442.4158,442.503,56,61,0
442.532,442.61887,61,56,0
442.532,442.61887,56,56,0
442.87802,442.9644,61,61,0
442.87802,442.9644,59,61,0
442.99316,443.07953,61,56,0
442.99316,443.07953,59,56,0
443.3386,443.42493,61,61,0
443.3386,443.42493,57,61,0
443.4537,443.54007,61,56,0
443.4537,443.54007,57,56,0
443.684,443.77036,57,61,0
443.684,443.77036,54,61,0
443.79913,443.8865,57,56,0
443.79913,443.8865,52,56,0
444.14868,444.23605,57,56,0
444.14868,444.23605,55,56,0
444.2652,444.35223,57,62,0
444.2652,444.35223,54,62,0
444.61334,444.70038,57,56,0
444.61334,444.70038,52,56,0
444.7294,444.81644,57,61,0
444.7294,444.81644,54,61,0
445.08054,445.16864,57,61,0
445.08054,445.16864,55,61,0
445.31833,445.40857,69,95,0
445.31833,445.40857,57,84,0
445.43866,445.6793,78,95,0
445.43866,445.6793,66,84,0
445.43866,445.6793,69,84,0
445.43866,445.6793,74,84,0
445.6793,445.7674,69,61,0
445.6793,445.7674,62,61,0
445.79675,445.88483,69,54,0
445.79675,445.88483,62,54,0
446.14938,446.2371,69,61,0
446.14938,446.2371,62,61,0
446.2662,446.35306,69,56,0
446.2662,446.35306,62,56,0
446.61133,446.69736,69,61,0
446.61133,446.69736,66,61,0
446.726,446.81204,69,56,0
446.726,446.81204,66,56,0
447.0701,447.1561,69,61,0
447.0701,447.1561,61,61,0
447.0701,447.1561,66,61,0
447.18478,447.27078,69,56,0
447.18478,447.27078,61,56,0
447.18478,447.27078,66,56,0
447.29947,447.54312,83,95,0
447.29947,447.54312,71,84,0
447.29947,447.54312,74,84,0
447.29947,447.54312,79,84,0
447.54312,447.63052,74,61,0
447.54312,447.63052,67,61,0
447.65964,447.74704,74,54,0
447.65964,447.74704,67,54,0
448.00903,448.09604,74,61,0
448.00903,448.09604,67,61,0
448.12494,448.2116,74,56,0
448.12494,448.2116,67,56,0
448.4699,448.5559,74,61,0
448.4699,448.5559,71,61,0
448.5846,448.67062,74,56,0
448.5846,448.67062,71,56,0
448.92865,449.17233,74,61,0
448.92865,449.17233,66,61,0
448.92865,449.17233,71,61,0
449.2917,449.41104,61,62,0
449.2917,449.41104,59,62,0
449.17233,449.5304,65,65,0
449.17233,449.5304,53,65,0
449.5304,449.65274,66,63,0
449.5304,449.65274,54,63,0
449.7721,449.89096,65,63,0
449.7721,449.89096,61,63,0
449.65274,450.00983,55,67,0
449.65274,450.00983,67,67,0
450.00983,450.13165,68,66,0
450.00983,450.13165,56,66,0
450.25052,450.3694,66,66,0
450.25052,450.3694,61,66,0
450.13165,450.48795,69,72,0
450.13165,450.48795,57,72,0
450.48795,450.60876,71,71,0
450.48795,450.60876,59,71,0
450.72714,450.84555,70,67,0
450.72714,450.84555,66,67,0
450.60876,450.96393,72,76,0
450.60876,450.96393,60,76,0
450.96393,451.08347,73,74,0
450.96393,451.08347,61,74,0
451.2014,451.3193,66,72,0
451.2014,451.3193,69,72,0
451.08347,451.4372,74,80,0
451.08347,451.4372,62,80,0
451.4372,451.55753,76,76,0
451.4372,451.55753,64,76,0
451.67545,451.7929,72,75,0
451.67545,451.7929,69,75,0
451.55753,451.91034,77,84,0
451.55753,451.91034,65,84,0
451.91034,452.03018,78,81,0
451.91034,452.03018,66,81,0
452.14716,452.26413,78,80,0
452.14716,452.26413,75,80,0
452.03018,452.3811,80,87,0
452.03018,452.3811,68,87,0
452.3811,452.50095,82,85,0
452.3811,452.50095,70,85,0
452.61792,452.7349,78,84,0
452.61792,452.7349,75,84,0
452.50095,452.85187,83,92,0
452.50095,452.85187,71,92,0
452.85187,452.9706,84,90,0
452.85187,452.9706,72,90,0
452.9706,453.20932,85,106,0
452.9706,453.20932,77,96,0
452.9706,453.20932,73,96,0
453.32675,453.44327,61,50,0
453.32675,453.44327,68,50,0
453.32675,453.44327,73,50,0
453.55933,453.67508,59,51,0
453.55933,453.67508,68,51,0
453.55933,453.67508,71,51,0
453.79053,453.90567,61,52,0
453.79053,453.90567,68,52,0
453.79053,453.90567,73,52,0
454.02036,454.13504,62,55,0
454.02036,454.13504,66,55,0
454.02036,454.13504,74,55,0
454.24973,454.3644,66,53,0
454.24973,454.3644,64,53,0
454.24973,454.3644,76,53,0
454.4791,454.59378,61,53,0
454.4791,454.59378,66,53,0
454.4791,454.59378,73,53,0
454.70847,454.82318,62,51,0
454.70847,454.82318,66,51,0
454.70847,454.82318,74,51,0
454.93787,455.05255,59,55,0
454.93787,455.05255,64,55,0
454.93787,455.05255,71,55,0
455.05255,455.16724,57,51,0
455.05255,455.16724,64,51,0
455.05255,455.16724,69,51,0
455.3966,455.5113,74,55,0
455.3966,455.5113,64,55,0
455.3966,455.5113,62,55,0
455.5113,455.62598,61,51,0
455.5113,455.62598,64,51,0
455.5113,455.62598,73,51,0
455.8558,455.97125,71,52,0
455.8558,455.97125,64,52,0
455.8558,455.97125,59,52,0
455.97125,456.08716,73,49,0
455.97125,456.08716,64,49,0
455.97125,456.08716,61,49,0
456.32004,456.437,74,55,0
456.32004,456.437,64,55,0
456.32004,456.437,62,55,0
456.55444,456.67236,80,73,0
456.55444,456.67236,78,73,0
456.55444,456.67236,68,73,0
456.67236,456.91205,85,95,0
456.67236,456.91205,77,84,0
456.67236,456.91205,73,84,0
457.03027,457.1474,61,50,0
457.03027,457.1474,68,50,0
457.03027,457.1474,73,50,0
457.26407,457.38028,59,51,0
457.26407,457.38028,68,51,0
457.26407,457.38028,71,51,0
457.49603,457.61133,61,52,0
457.49603,457.61133,68,52,0
457.49603,457.61133,73,52,0
457.726,457.8407,62,55,0
457.726,457.8407,66,55,0
457.726,457.8407,74,55,0
457.95538,458.07007,66,53,0
457.95538,458.07007,64,53,0
457.95538,458.07007,76,53,0
458.18475,458.29947,61,53,0
458.18475,458.29947,66,53,0
458.18475,458.29947,73,53,0
458.41415,458.52884,62,51,0
458.41415,458.52884,66,51,0
458.41415,458.52884,74,51,0
458.64352,458.7582,59,55,0
458.64352,458.7582,64,55,0
458.64352,458.7582,71,55,0
458.7582,458.8729,57,51,0
458.7582,458.8729,64,51,0
458.7582,458.8729,69,51,0
459.10226,459.21695,72,55,0
459.10226,459.21695,64,55,0
459.10226,459.21695,60,55,0
459.21695,459.33163,59,51,0
459.21695,459.33163,64,51,0
459.21695,459.33163,71,51,0
459.56146,459.6769,69,52,0
459.56146,459.6769,64,52,0
459.56146,459.6769,57,52,0
459.6769,459.79282,71,49,0
459.6769,459.79282,64,49,0
459.6769,459.79282,59,49,0
460.0257,460.14267,72,55,0
460.0257,460.14267,62,55,0
460.0257,460.14267,60,55,0
460.2601,460.37802,74,73,0
460.2601,460.37802,66,73,0
460.2601,460.37802,62,73,0
460.2601,460.37802,72,73,0
460.37802,460.64374,83,95,0
460.37802,460.64374,71,84,0
460.37802,460.64374,74,84,0
460.37802,460.64374,79,84,0
460.64374,460.73114,74,61,0
460.64374,460.73114,67,61,0
460.76025,460.84763,74,54,0
460.76025,460.84763,67,54,0
461.10828,461.1948,74,61,0
461.10828,461.1948,67,61,0
461.22357,461.30988,74,56,0
461.22357,461.30988,67,56,0
461.56705,461.6527,74,61,0
461.56705,461.6527,71,61,0
461.68127,461.76697,74,56,0
461.68127,461.76697,71,56,0
462.02402,462.10968,74,61,0
462.02402,462.10968,66,61,0
462.02402,462.10968,71,61,0
462.13824,462.22394,74,56,0
462.13824,462.22394,66,56,0
462.13824,462.22394,71,56,0
462.2525,462.5067,88,95,0
462.2525,462.5067,76,84,0
462.2525,462.5067,79,84,0
462.2525,462.5067,84,84,0
462.5067,462.59515,79,61,0
462.5067,462.59515,72,61,0
462.62463,462.71307,79,54,0
462.62463,462.71307,72,54,0
462.9782,463.0657,79,61,0
462.9782,463.0657,72,61,0
463.09473,463.1812,79,56,0
463.09473,463.1812,72,56,0
463.43835,463.52405,79,61,0
463.43835,463.52405,76,61,0
463.55258,463.63828,79,56,0
463.55258,463.63828,76,56,0
463.89532,464.139,79,61,0
463.89532,464.139,71,61,0
463.89532,464.139,76,61,0
464.25836,464.37772,66,62,0
464.25836,464.37772,64,62,0
464.139,464.49707,70,65,0
464.139,464.49707,58,65,0
464.49707,464.6194,71,64,0
464.49707,464.6194,59,64,0
464.73874,464.8576,70,65,0
464.73874,464.8576,66,65,0
464.6194,464.97647,60,70,0
464.6194,464.97647,72,70,0
464.97647,465.09833,73,70,0
464.97647,465.09833,61,70,0
465.2172,465.33606,71,70,0
465.2172,465.33606,66,70,0
465.09833,465.4546,74,74,0
465.09833,465.4546,62,74,0
465.4546,465.57544,76,73,0
465.4546,465.57544,64,73,0
465.69382,465.81223,74,73,0
465.69382,465.81223,71,73,0
465.57544,465.9306,77,80,0
465.57544,465.9306,65,80,0
465.9306,466.05014,78,78,0
465.9306,466.05014,66,78,0
466.16803,466.28595,74,78,0
466.16803,466.28595,76,78,0
466.05014,466.40387,80,84,0
466.05014,466.40387,68,84,0
466.40387,466.5242,81,81,0
466.40387,466.5242,69,81,0
466.64212,466.75955,80,79,0
466.64212,466.75955,74,79,0
466.5242,466.877,82,89,0
466.5242,466.877,70,89,0
466.877,466.99683,83,87,0
466.877,466.99683,71,87,0
467.11383,467.2308,80,86,0
467.11383,467.2308,78,86,0
466.99683,467.34778,84,94,0
466.99683,467.34778,72,94,0
467.34778,467.46762,85,93,0
467.34778,467.46762,73,93,0
467.5846,467.70157,84,92,0
467.5846,467.70157,80,92,0
467.46762,467.81854,87,100,0
467.46762,467.81854,75,100,0
467.81854,467.93726,88,99,0
467.81854,467.93726,76,99,0
468.18713,468.4298,77,93,0
468.18713,468.4298,80,93,0
468.18713,468.4298,85,106,0
468.18713,468.4298,89,106,0
468.4298,468.5235,75,90,0
468.4298,468.5235,87,99,0
468.55475,468.64844,77,83,0
468.55475,468.64844,89,93,0
468.6797,468.92352,73,83,0
468.6797,468.92352,85,93,0
469.1665,469.6425,94,94,0
469.1665,469.6425,88,78,0
469.1665,469.6425,82,78,0
469.6425,469.89343,96,82,0
469.6425,469.89343,88,71,0
469.6425,469.89343,84,71,0
469.89343,470.0162,92,84,0
469.89343,470.0162,85,73,0
469.89343,470.0162,89,84,0
469.89343,470.0162,80,73,0
470.0162,470.13837,91,84,0
470.0162,470.13837,79,73,0
470.13837,470.25928,90,82,0
470.13837,470.25928,78,72,0
470.25928,470.37903,89,80,0
470.25928,470.37903,77,72,0
470.37903,470.49838,88,80,0
470.37903,470.49838,76,71,0
470.49838,470.61774,89,78,0
470.49838,470.61774,77,71,0
470.61774,470.7371,87,77,0
470.61774,470.7371,75,70,0
470.7371,470.85645,85,76,0
470.7371,470.85645,73,69,0
471.0971,471.5732,89,92,0
471.0971,471.5732,81,81,0
471.0971,471.5732,77,81,0
471.5732,471.8231,87,85,0
471.5732,471.8231,75,76,0
471.8231,471.94586,87,90,0
471.8231,471.94586,75,72,0
471.8231,471.94586,78,72,0
471.94586,472.06805,86,85,0
471.94586,472.06805,74,76,0
472.06805,472.18896,85,83,0
472.06805,472.18896,73,74,0
472.18896,472.30872,84,81,0
472.18896,472.30872,72,72,0
472.30872,472.42807,85,74,0
472.30872,472.42807,73,65,0
472.42807,472.54742,84,72,0
472.42807,472.54742,72,63,0
472.54742,472.7861,82,70,0
472.54742,472.7861,70,62,0
472.54742,472.7861,78,70,0
473.02945,473.50568,94,93,0
473.02945,473.50568,88,83,0
473.02945,473.50568,82,83,0
473.50568,473.7539,96,83,0
473.50568,473.7539,88,75,0
473.50568,473.7539,84,75,0
473.7539,473.87668,92,82,0
473.7539,473.87668,85,74,0
473.7539,473.87668,89,82,0
473.7539,473.87668,80,74,0
473.87668,473.99884,91,82,0
473.87668,473.99884,79,74,0
473.99884,474.11975,90,82,0
473.99884,474.11975,78,73,0
474.11975,474.2395,89,81,0
474.11975,474.2395,77,73,0
474.2395,474.35886,88,81,0
474.2395,474.35886,76,72,0
474.35886,474.4782,89,80,0
474.35886,474.4782,77,72,0
474.4782,474.59756,87,79,0
474.4782,474.59756,75,71,0
474.59756,474.72043,85,77,0
474.59756,474.72043,73,69,0
474.72043,474.83978,79,79,0
474.72043,474.83978,67,70,0
474.83978,474.9591,80,71,0
474.83978,474.9591,68,63,0
474.9591,475.07846,78,79,0
474.9591,475.07846,66,70,0
475.07846,475.1978,77,71,0
475.07846,475.1978,65,63,0
475.1978,475.31717,76,79,0
475.1978,475.31717,64,70,0
475.31717,475.43652,77,72,0
475.31717,475.43652,65,64,0
475.43652,475.55588,75,79,0
475.43652,475.55588,63,70,0
475.55588,475.67923,73,71,0
475.55588,475.67923,61,63,0
475.67923,475.79858,67,73,0
475.79858,475.91794,68,63,0
475.91794,476.0373,66,71,0
476.0373,476.15665,65,64,0
476.15665,476.276,64,71,0
476.276,476.39536,65,60,0
476.39536,476.5147,63,65,0
476.5147,476.6391,61,60,0
476.8783,477.35153,65,62,0
477.35153,477.5888,63,52,0
476.8783,477.5888,58,51,0
476.8783,477.5888,54,51,0
477.5888,477.70798,63,52,0
477.70798,477.82733,62,51,0
477.5888,477.82733,54,52,0
477.82733,477.9467,61,51,0
477.9467,478.06604,60,50,0
478.06604,478.1854,61,53,0
478.1854,478.30475,60,52,0
478.06604,478.30475,54,53,0
478.30475,478.4241,59,51,0
478.4241,478.54346,58,50,0
478.78262,479.2559,65,60,0
479.2559,479.49313,63,52,0
478.78262,479.49313,58,51,0
478.78262,479.49313,54,51,0
479.49313,479.61234,63,52,0
479.61234,479.7317,62,51,0
479.49313,479.7317,53,52,0
479.7317,479.851,61,51,0
479.851,479.97037,60,50,0
479.97037,480.08972,61,53,0
480.08972,480.20908,59,52,0
479.97037,480.20908,52,53,0
480.20908,480.32843,58,51,0
480.32843,480.44778,57,50,0
480.68698,481.16022,68,67,0
480.68698,481.16022,56,53,0
481.16022,481.39746,66,55,0
481.16022,481.39746,54,49,0
480.68698,481.39746,61,53,0
481.39746,481.51865,62,61,0
481.51865,481.638,63,54,0
481.39746,481.638,66,61,0
481.638,481.75745,61,54,0
481.75745,481.87814,60,53,0
481.87814,481.9956,65,64,0
481.9956,482.11304,66,60,0
481.87814,482.11304,69,64,0
482.11304,482.23047,64,61,0
482.23047,482.3508,63,59,0
482.3508,482.46594,69,70,0
482.46594,482.5811,70,63,0
482.3508,482.5811,72,70,0
482.5811,482.69623,68,64,0
482.69623,482.8146,66,63,0
482.8146,482.92755,71,75,0
482.92755,483.04047,72,69,0
482.8146,483.04047,75,75,0
483.04047,483.15338,70,70,0
483.15338,483.2699,68,69,0
483.2699,483.3807,74,81,0
483.3807,483.49152,75,75,0
483.2699,483.49152,78,81,0
483.49152,483.6023,73,75,0
483.6023,483.71698,72,73,0
483.71698,483.82614,81,85,0
483.82614,483.93527,82,80,0
483.71698,483.93527,84,85,0
483.93527,484.04443,80,81,0
484.04443,484.15607,78,79,0
484.15607,484.3919,77,96,0
484.15607,484.3919,85,96,0
484.15607,484.3919,89,96,0
484.3919,484.5066,92,81,0
484.3919,484.5066,97,81,0
484.3919,484.5066,101,96,0
484.62097,484.73508,89,76,0
484.62097,484.73508,92,76,0
484.62097,484.73508,97,90,0
484.8488,484.96216,92,86,0
484.8488,484.96216,89,72,0
484.8488,484.96216,85,72,0
485.075,485.1875,80,74,0
485.075,485.1875,85,74,0
485.075,485.1875,89,89,0
485.30002,485.4125,77,73,0
485.30002,485.4125,80,73,0
485.30002,485.4125,85,87,0
485.525,485.63748,80,86,0
485.525,485.63748,77,72,0
485.525,485.63748,73,72,0
485.74997,485.8636,77,84,0
485.74997,485.8636,73,71,0
485.74997,485.8636,68,71,0
485.97833,486.09378,73,84,0
485.97833,486.09378,68,71,0
485.97833,486.09378,65,71,0
486.20877,486.3233,68,72,0
486.20877,486.3233,73,72,0
486.20877,486.3233,77,85,0
486.4374,486.5509,65,67,0
486.4374,486.5509,68,67,0
486.4374,486.5509,73,81,0
486.664,486.77664,68,77,0
486.664,486.77664,65,64,0
486.664,486.77664,61,64,0
486.88882,487.0005,56,65,0
486.88882,487.0005,61,65,0
486.88882,487.0005,65,80,0
487.11212,487.22375,53,65,0
487.11212,487.22375,56,65,0
487.11212,487.22375,61,79,0
487.3354,487.44705,56,77,0
487.3354,487.44705,53,64,0
487.3354,487.44705,49,64,0
487.5587,487.67032,53,75,0
487.5587,487.67032,49,63,0
487.5587,487.67032,44,63,0
487.78195,487.8936,49,75,0
487.78195,487.8936,44,63,0
487.78195,487.8936,41,63,0
488.00427,488.11734,53,56,0
488.00427,488.11734,49,46,0
488.00427,488.11734,41,48,0
488.2307,488.34406,53,58,0
488.2307,488.34406,49,48,0
488.2307,488.34406,41,48,0
488.45715,488.56992,53,59,0
488.45715,488.56992,49,50,0
488.45715,488.56992,41,50,0
488.6824,488.7945,53,61,0
488.6824,488.7945,49,52,0
488.6824,488.7945,41,52,0
488.90625,489.01776,53,63,0
488.90625,489.01776,49,53,0
488.90625,489.01776,41,53,0
489.12897,489.23978,53,66,0
489.12897,489.23978,49,56,0
489.12897,489.23978,41,56,0
489.3503,489.46054,53,68,0
489.3503,489.46054,49,58,0
489.3503,489.46054,41,58,0
489.5705,489.68045,53,69,0
489.5705,489.68045,49,58,0
489.5705,489.68045,41,58,0
489.79044,489.90067,53,68,0
489.79044,489.90067,49,58,0
489.79044,489.90067,41,58,0
490.01105,490.12155,53,67,0
490.01105,490.12155,49,57,0
490.01105,490.12155,41,57,0
490.23236,490.3433,53,65,0
490.23236,490.3433,49,54,0
490.23236,490.3433,41,54,0
490.4545,490.56573,53,63,0
490.4545,490.56573,49,53,0
490.4545,490.56573,41,53,0
490.67737,490.789,53,61,0
490.67737,490.789,49,52,0
490.67737,490.789,41,52,0
490.90106,491.01315,53,59,0
490.90106,491.01315,49,51,0
490.90106,491.01315,41,51,0
491.1255,491.23798,53,58,0
491.1255,491.23798,49,49,0
491.1255,491.23798,41,49,0
491.35077,491.5732,53,58,0
491.35077,491.5732,49,48,0
491.35077,491.5732,41,48,0
491.82532,492.01657,77,80,0
491.80307,492.01657,72,71,0
491.78082,492.01657,65,67,0
492.20786,492.4278,76,67,0
492.20786,492.4278,85,79,0
492.20786,492.4278,81,79,0
492.20786,492.4278,73,67,0
492.6477,492.8727,93,79,0
492.6477,492.8727,81,67,0
492.6477,492.8727,85,67,0
492.6477,492.8727,87,79,0
493.0977,493.32266,89,70,0
493.0977,493.32266,101,84,0
493.0977,493.32266,97,84,0
493.0977,493.32266,92,70,0
493.99765,494.22263,85,76,0
493.99765,494.22263,92,76,0
493.99765,494.22263,97,90,0
494.72778,494.783,80,81,0
494.783,494.83817,81,82,0
494.83817,494.89337,84,82,0
494.89337,495.00372,85,92,0
494.89337,495.00372,73,82,0
495.1141,495.33487,49,85,0
0.0,0.08731762,58,89,0
0.3492705,0.43658814,58,84,0
0.698541,0.78585863,54,82,0
1.0609218,1.1482394,58,86,0
1.4101923,1.4981585,56,81,0
1.762057,1.8500232,56,81,0
2.1139216,2.205539,56,80,0
2.4884844,2.9057302,53,90,0
2.9057302,2.993048,58,53,0
3.2550008,3.3423183,58,50,0
3.6042712,3.6915889,54,49,0
3.9641185,4.051436,58,49,0
4.313389,4.4022794,56,51,0
4.6689515,4.757842,56,49,0
5.0245137,5.1171384,56,49,0
5.403496,5.8242536,53,54,0
5.8242536,5.911571,54,80,0
6.173524,6.2608414,58,82,0
6.5227942,6.610112,63,85,0
6.885175,6.9724927,60,81,0
7.2344456,7.3217635,56,83,0
7.5837164,7.671034,61,80,0
7.9329867,8.024074,58,80,0
8.303351,8.720791,53,89,0
8.720791,8.808109,54,47,0
9.070062,9.157379,58,49,0
9.4193325,9.50665,63,50,0
9.781713,9.869031,60,47,0
10.130983,10.218301,56,50,0
10.480254,10.567572,61,47,0
10.829524,10.919827,58,47,0
11.199421,11.629138,53,57,0
11.629138,11.727443,61,76,0
11.629138,11.727443,56,67,0
12.021283,12.739284,49,76,0
12.021283,12.739284,56,87,0
12.739284,12.82884,37,62,0
12.739284,12.82884,49,70,0
13.097507,13.189314,56,59,0
13.097507,13.189314,61,65,0
13.470794,14.194694,56,86,0
13.470794,14.194694,49,77,0
14.194694,14.297726,49,70,0
14.194694,14.297726,37,62,0
14.606819,14.7034025,61,42,0
14.606819,14.7034025,56,36,0
14.99433,15.705878,56,49,0
14.99433,15.705878,49,44,0
15.705878,15.795434,37,31,0
15.705878,15.795434,49,35,0
16.064102,16.155909,56,30,0
16.064102,16.155909,61,34,0
16.43739,17.16546,49,42,0
16.43739,17.16546,56,46,0
17.16546,17.27289,49,33,0
17.16546,17.27289,37,29,0
17.595177,17.954716,49,55,0
17.595177,17.954716,58,62,0
17.595177,17.954716,54,62,0
17.954716,18.318342,49,53,0
17.954716,18.318342,37,46,0
18.318342,18.674103,66,63,0
18.318342,18.674103,56,57,0
18.318342,18.674103,63,63,0
18.674103,19.029861,37,46,0
18.674103,19.029861,49,53,0
19.029861,19.120676,49,39,0
19.029861,19.120676,61,44,0
19.029861,19.120676,56,44,0
19.393116,19.748877,63,61,0
19.393116,19.748877,66,61,0
19.748877,19.840998,65,50,0
19.393116,19.871706,61,53,0
20.121471,20.532732,56,53,0
20.121471,20.532732,49,47,0
20.121471,20.532732,59,53,0
20.532732,20.891022,54,33,0
20.532732,20.891022,58,33,0
20.532732,20.891022,49,29,0
20.891022,21.253826,49,27,0
20.891022,21.253826,37,25,0
21.253826,21.609587,63,35,0
21.253826,21.609587,56,31,0
21.253826,21.609587,66,35,0
21.609587,21.965345,37,25,0
21.609587,21.965345,49,27,0
21.965345,22.05616,61,23,0
21.965345,22.05616,49,20,0
21.965345,22.05616,56,23,0
22.3286,22.68436,63,30,0
22.3286,22.68436,66,30,0
22.68436,22.775263,65,26,0
22.3286,22.805809,61,26,0
23.054705,23.467587,46,19,0
23.054705,23.467587,55,22,0
23.467587,23.592628,53,27,0
23.467587,23.592628,41,27,0
23.592628,23.71767,53,27,0
23.592628,23.71767,60,27,0
23.966925,24.090256,58,29,0
23.966925,24.090256,53,29,0
24.334063,24.454575,61,30,0
24.334063,24.454575,53,30,0
24.695131,24.81541,53,27,0
24.695131,24.81541,60,27,0
25.05597,25.176249,51,31,0
25.05597,25.176249,58,31,0
25.416805,25.536777,61,27,0
25.416805,25.536777,51,27,0
25.779036,25.902046,51,27,0
25.779036,25.902046,58,27,0
26.153969,26.28052,61,27,0
26.153969,26.28052,51,27,0
26.543211,26.667753,53,27,0
26.543211,26.667753,60,27,0
26.91643,27.03952,53,31,0
26.91643,27.03952,58,31,0
27.28232,27.402214,53,33,0
27.28232,27.402214,61,33,0
27.64185,27.76167,53,29,0
27.64185,27.76167,60,29,0
28.001305,28.121122,58,32,0
28.001305,28.121122,51,32,0
28.360758,28.480576,51,29,0
28.360758,28.480576,61,29,0
28.720842,28.84251,58,29,0
28.720842,28.84251,51,29,0
29.08877,29.212337,51,29,0
29.08877,29.212337,61,29,0
29.355482,29.480524,60,32,0
29.355482,29.480524,53,27,0
29.730524,29.85482,58,29,0
29.730524,29.85482,53,29,0
30.10052,30.221958,61,36,0
30.10052,30.221958,53,36,0
30.462748,30.583027,53,27,0
30.462748,30.583027,60,27,0
30.823586,30.943865,51,32,0
30.823586,30.943865,58,32,0
31.184422,31.3047,61,48,0
31.184422,31.3047,51,48,0
31.545418,31.666931,58,32,0
31.545418,31.666931,51,32,0
31.915316,32.041866,61,31,0
31.915316,32.041866,51,31,0
32.30656,32.431602,60,37,0
32.30656,32.556644,53,34,0
32.556644,32.681606,41,27,0
32.556644,32.681606,53,27,0
32.681606,32.8059,58,35,0
32.681606,32.92923,53,35,0
32.92923,33.0516,53,27,0
32.92923,33.0516,41,27,0
33.0516,33.17304,61,44,0
33.0516,33.29355,53,44,0
33.29355,33.41383,53,35,0
33.29355,33.41383,41,35,0
33.41383,33.534107,60,40,0
33.41383,33.65439,53,40,0
33.65439,33.774666,41,35,0
33.65439,33.774666,53,35,0
33.774666,33.894943,58,50,0
33.774666,34.015224,51,50,0
34.015224,34.1355,39,29,0
34.015224,34.1355,51,29,0
34.1355,34.255783,61,56,0
34.1355,34.375755,51,56,0
34.375755,34.4965,39,37,0
34.375755,34.4965,51,37,0
34.4965,34.61801,58,51,0
34.4965,34.74102,51,51,0
34.74102,34.866394,51,42,0
34.74102,34.866394,39,42,0
34.866394,34.992947,61,50,0
34.866394,35.267323,51,50,0
34.866394,35.267323,57,50,0
35.267323,35.36259,61,64,0
35.394344,35.489613,54,61,0
35.521366,35.619217,51,61,0
35.772125,35.862083,62,60,0
35.891922,35.981148,63,53,0
35.651367,36.010754,37,64,0
35.651367,36.010754,44,72,0
36.010754,36.09933,56,55,0
36.010754,36.09933,59,62,0
36.128857,36.217434,54,50,0
36.128857,36.217434,58,56,0
36.246956,36.338764,53,50,0
36.246956,36.338764,56,56,0
36.369366,36.45959,54,64,0
36.489666,36.579887,58,61,0
36.369366,36.609962,51,57,0
36.609962,36.700188,56,61,0
36.730263,36.822067,61,64,0
36.85267,36.944477,56,61,0
36.97508,37.07143,53,61,0
37.221344,37.31001,53,60,0
37.33964,37.428703,56,53,0
37.103546,37.458435,44,77,0
37.103546,37.458435,37,69,0
37.458435,37.549194,61,62,0
37.579678,37.67172,49,56,0
37.70265,37.800945,56,56,0
37.83371,38.250854,65,72,0
38.250854,38.346123,73,40,0
38.377876,38.473145,66,36,0
38.504898,38.60275,63,36,0
38.755657,38.845615,74,36,0
38.875454,38.96468,75,32,0
38.6349,38.99429,49,36,0
38.6349,38.99429,56,41,0
38.99429,39.082863,68,37,0
38.99429,39.082863,71,37,0
39.11239,39.200966,66,34,0
39.11239,39.200966,69,34,0
39.230488,39.322296,65,34,0
39.230488,39.322296,68,34,0
39.352898,39.442455,66,40,0
39.472305,39.561863,69,36,0
39.352898,39.591713,63,40,0
39.591713,39.68127,68,36,0
39.71112,39.80293,73,40,0
39.83353,39.92534,68,36,0
39.95594,40.05229,64,36,0
40.202206,40.29087,64,36,0
40.3205,40.409565,68,32,0
40.439297,40.530056,73,37,0
40.56054,40.65258,61,34,0
40.68351,40.776913,68,34,0
40.084408,40.808308,56,41,0
40.084408,40.808308,49,36,0
40.808308,41.230686,76,46,0
41.230686,41.32115,59,62,0
41.230686,41.32115,56,54,0
41.35121,41.441162,58,56,0
41.35121,41.441162,54,50,0
41.47106,41.56048,56,56,0
41.47106,41.56048,53,50,0
41.59022,41.95385,54,53,0
41.59022,41.95385,51,46,0
41.95385,42.04279,55,59,0
42.072437,42.161377,56,57,0
42.191025,42.279964,57,55,0
42.30961,42.39855,58,54,0
42.428196,42.517136,59,53,0
42.546783,42.635723,60,51,0
41.827396,42.66537,49,53,0
41.827396,42.66537,37,46,0
42.786453,42.87727,56,52,0
42.90754,42.998352,49,52,0
42.66537,43.028625,61,53,0
43.14721,43.23615,54,52,0
43.265797,43.354736,49,53,0
43.028625,43.384384,63,61,0
43.507214,43.599335,53,45,0
43.384384,43.7579,65,50,0
43.7579,44.173374,59,46,0
43.7579,44.173374,56,42,0
43.630043,44.173374,49,40,0
44.173374,44.26384,71,37,0
44.173374,44.26384,68,33,0
44.293903,44.383854,66,31,0
44.293903,44.383854,69,35,0
44.41375,44.503166,68,35,0
44.41375,44.503166,65,31,0
44.532913,44.89654,66,32,0
44.532913,44.89654,63,27,0
44.89654,44.98548,67,36,0
45.015125,45.104065,68,35,0
45.133713,45.222652,69,34,0
45.2523,45.34124,70,33,0
45.370888,45.459827,71,32,0
45.48947,45.57841,72,31,0
44.770084,45.60806,61,32,0
44.770084,45.60806,49,27,0
45.729145,45.819958,68,32,0
45.850227,45.941044,61,32,0
45.60806,45.971313,73,32,0
46.093433,46.185024,68,32,0
46.215553,46.307144,64,32,0
45.971313,46.337673,74,41,0
46.46461,46.55981,64,27,0
46.337673,46.72632,73,30,0
46.72632,47.165985,73,36,0
46.72632,47.165985,64,32,0
46.591545,47.165985,57,24,0
47.165985,47.26125,42,65,0
47.165985,47.26125,45,65,0
47.165985,47.26125,50,74,0
47.165985,47.26125,54,74,0
47.550026,47.64069,74,81,0
47.550026,47.64069,78,90,0
47.909416,47.997993,58,59,0
47.909416,47.997993,61,65,0
48.14562,48.237427,65,55,0
48.14562,48.237427,61,49,0
48.62625,48.72034,51,63,0
48.62625,48.72034,56,63,0
48.62625,48.72034,44,56,0
49.00562,49.093895,78,90,0
49.00562,49.093895,75,81,0
49.360508,49.451267,63,54,0
49.360508,49.451267,66,62,0
49.72952,50.146957,63,69,0
49.72952,50.146957,60,62,0
50.146957,50.242226,57,44,0
50.146957,50.242226,54,44,0
50.146957,50.242226,62,50,0
50.146957,50.242226,66,50,0
50.531002,50.621666,90,50,0
50.531002,50.621666,86,44,0
50.890392,50.978966,73,41,0
50.890392,50.978966,70,36,0
51.126595,51.2184,77,34,0
51.126595,51.2184,73,30,0
51.607227,51.701313,56,34,0
51.607227,51.701313,68,39,0
51.607227,51.701313,63,34,0
51.986595,52.07487,87,49,0
51.986595,52.07487,90,55,0
52.34148,52.43224,75,33,0
52.34148,52.43224,78,37,0
52.71049,53.075207,72,36,0
52.71049,53.075207,75,42,0
53.14815,53.238617,57,74,0
53.11168,53.238617,50,65,0
53.075207,53.238617,42,65,0
53.512814,53.601753,62,72,0
53.483067,53.601753,57,64,0
53.453323,53.601753,50,64,0
53.868572,53.95751,66,65,0
53.868572,53.95751,62,59,0
54.22433,54.31327,62,55,0
54.22433,54.31327,57,49,0
54.586864,54.67768,60,63,0
54.553833,54.67768,51,56,0
54.520798,54.67768,44,56,0
54.95614,55.04773,68,62,0
54.92595,55.04773,63,54,0
54.895763,55.04773,56,54,0
55.3225,55.41598,72,69,0
55.3225,55.41598,68,62,0
55.700764,56.06548,75,64,0
55.700764,56.06548,78,72,0
56.13842,56.228886,69,62,0
56.101948,56.228886,62,49,0
56.06548,56.228886,54,49,0
56.503082,56.592022,74,59,0
56.473335,56.592022,69,46,0
56.443592,56.592022,62,46,0
56.85884,56.94778,78,53,0
56.85884,56.94778,74,47,0
57.2146,57.30354,69,40,0
57.2146,57.30354,74,44,0
57.577133,57.66795,72,52,0
57.5441,57.66795,63,42,0
57.511066,57.66795,56,41,0
57.946407,58.038,80,50,0
57.91622,58.038,75,41,0
57.886032,58.038,68,41,0
58.312767,58.40625,80,49,0
58.312767,58.40625,84,55,0
58.691032,59.045815,87,52,0
58.691032,59.045815,90,59,0
59.126427,59.216892,81,47,0
59.08612,59.216892,74,39,0
59.045815,59.216892,66,37,0
59.49109,59.58003,86,46,0
59.46134,59.58003,81,37,0
59.4316,59.58003,74,37,0
59.846848,59.935787,86,42,0
59.846848,59.935787,90,46,0
60.561146,60.741627,76,45,0
60.561146,60.741627,79,52,0
60.741627,60.92058,77,45,0
60.741627,60.92058,80,52,0
60.92058,61.097965,78,46,0
60.92058,61.097965,81,53,0
61.097965,61.273994,79,49,0
61.097965,61.273994,82,54,0
61.273994,61.449844,83,54,0
61.273994,61.449844,80,49,0
61.449844,61.625694,81,49,0
61.449844,61.625694,84,55,0
61.625694,61.801544,85,56,0
61.625694,61.801544,82,50,0
61.801544,61.977394,86,57,0
61.801544,61.977394,83,51,0
61.977394,62.153,87,57,0
61.977394,62.153,84,51,0
62.153,62.328583,88,59,0
62.153,62.328583,85,52,0
62.328583,62.50576,89,61,0
62.328583,62.50576,86,53,0
62.50576,62.68682,90,62,0
62.50576,62.68682,87,54,0
62.68682,62.8098,88,54,0
62.68682,62.8098,91,62,0
62.8098,62.934685,92,62,0
62.8098,62.934685,89,55,0
62.934685,63.06147,90,55,0
62.934685,63.06147,93,62,0
63.06147,63.317356,94,77,0
63.06147,63.317356,91,77,0
64.83223,64.97653,42,40,0
64.97653,65.12083,44,31,0
65.12083,65.40943,56,36,0
65.40943,65.55373,44,32,0
65.55373,65.84383,42,36,0
65.84383,65.98495,44,30,0
65.98495,66.2672,56,36,0
66.2672,66.40832,44,33,0
66.40832,66.696304,42,33,0
66.696304,66.838684,44,36,0
66.838684,67.13256,56,43,0
67.13256,67.27245,44,36,0
67.27245,67.57651,41,32,0
67.57651,67.723434,44,36,0
67.723434,68.02074,56,31,0
68.02074,68.17112,44,36,0
68.17112,68.33042,40,36,0
68.33042,68.47536,39,40,0
68.47536,68.6203,44,31,0
68.6203,68.91019,56,36,0
68.91019,69.05513,44,32,0
69.05513,69.34711,39,36,0
69.34711,69.49011,44,30,0
69.49011,69.78073,56,36,0
69.78073,69.92834,44,33,0
69.92834,70.08086,39,33,0
70.08086,70.2245,37,41,0
70.2245,70.36816,44,36,0
70.36816,70.66578,56,43,0
70.66578,70.80943,57,36,0
70.80943,70.95308,45,32,0
70.95308,71.11723,37,41,0
71.11723,71.2669,46,36,0
71.2669,71.57279,58,31,0
71.57279,71.729004,46,36,0
71.729004,72.04961,37,36,0
72.04961,72.19721,49,34,0
72.19721,72.49243,61,40,0
72.49243,72.64004,49,35,0
72.64004,72.93202,47,40,0
72.93202,73.07503,49,33,0
73.07503,73.36104,59,40,0
73.36104,73.50405,49,36,0
73.50405,73.64965,47,36,0
73.64965,73.79203,46,41,0
73.79203,73.93442,49,40,0
73.93442,74.23014,58,35,0
74.23014,74.37189,50,40,0
74.37189,74.67779,46,35,0
74.67779,74.824715,51,40,0
74.824715,75.121315,58,34,0
75.121315,75.27099,51,40,0
75.27099,75.57459,46,40,0
75.57459,75.718895,52,36,0
75.718895,76.00749,58,44,0
76.00749,76.151794,52,37,0
76.151794,76.44189,46,44,0
76.44189,76.58301,52,36,0
76.58301,76.86526,58,44,0
76.86526,77.00638,52,40,0
77.00638,77.294365,46,40,0
77.294365,77.43675,53,44,0
77.43675,77.73062,58,37,0
77.73062,77.87052,53,44,0
77.87052,78.17457,46,41,0
78.17457,78.321495,53,45,0
78.321495,78.61536,58,40,0
78.61536,78.76228,52,45,0
78.76228,78.92159,51,45,0
78.76228,78.92159,46,45,0
79.16824,79.25937,61,53,0
79.40942,79.4993,58,53,0
79.6527,79.75101,61,53,0
79.90291,79.99494,61,55,0
80.14832,80.24036,61,47,0
78.92159,80.41018,44,59,0
78.92159,80.41018,37,49,0
80.658134,80.74976,56,53,0
80.90096,80.99097,60,53,0
81.14246,81.23426,57,53,0
81.38877,81.48239,60,62,0
81.63682,81.72895,60,52,0
80.41018,81.90962,44,59,0
80.41018,81.90962,37,49,0
82.15619,82.24773,61,59,0
82.39927,82.48976,58,57,0
82.64244,82.735176,61,59,0
82.89142,82.983444,61,62,0
83.13064,83.218025,61,53,0
81.90962,83.40168,44,63,0
81.90962,83.40168,37,53,0
83.64859,83.73984,56,59,0
83.89042,83.98006,60,57,0
84.13101,84.222595,57,59,0
84.37689,84.4702,60,61,0
84.6245,84.71689,60,56,0
83.40168,84.88998,44,63,0
83.40168,84.88998,37,53,0
85.134155,85.22416,66,66,0
85.37238,85.46082,63,66,0
85.61022,85.70766,66,67,0
85.85711,85.94914,66,70,0
86.099655,86.18954,66,62,0
84.88998,86.35393,56,62,0
84.88998,86.35393,49,62,0
84.88998,86.35393,59,73,0
86.59811,86.68811,61,66,0
86.83634,86.92454,65,65,0
87.073044,87.16313,62,66,0
87.31522,87.40853,65,74,0
87.56283,87.6527,65,64,0
86.35393,87.82451,49,62,0
86.35393,87.82451,54,62,0
86.35393,87.82451,58,73,0
88.06826,88.1583,68,73,0
88.306816,88.396,65,73,0
88.54552,88.635765,68,74,0
88.78684,88.878876,68,77,0
89.03226,89.12429,68,66,0
87.82451,89.28791,52,67,0
87.82451,89.28791,49,67,0
87.82451,89.28791,58,81,0
89.530495,89.620125,64,79,0
89.767685,89.855804,67,73,0
90.00447,90.094765,64,81,0
90.24722,90.34133,66,81,0
90.49817,90.59227,68,75,0
89.28791,90.74911,49,71,0
89.28791,90.74911,53,71,0
89.28791,90.74911,58,84,0
90.74911,90.844376,54,89,0
90.74911,90.844376,49,71,0
90.74911,90.844376,44,71,0
91.13315,91.223816,78,89,0
91.13315,91.223816,82,99,0
91.49254,91.581116,65,72,0
91.49254,91.581116,62,64,0
91.728745,91.82055,69,66,0
91.728745,91.82055,65,60,0
92.20937,92.30346,53,75,0
92.20937,92.30346,49,60,0
92.20937,92.30346,44,60,0
92.588745,92.67702,80,101,0
92.588745,92.67702,77,90,0
92.943634,93.03439,68,73,0
92.943634,93.03439,65,65,0
93.312645,93.72477,65,82,0
93.312645,93.72477,61,74,0
93.72477,93.82004,66,81,0
93.72477,93.82004,61,72,0
93.72477,93.82004,56,72,0
94.10881,94.19948,90,76,0
94.10881,94.19948,94,85,0
94.4682,94.55678,77,71,0
94.4682,94.55678,74,63,0
94.70441,94.79621,81,61,0
94.70441,94.79621,77,53,0
95.185036,95.27912,65,66,0
95.185036,95.27912,61,60,0
95.185036,95.27912,56,60,0
95.5644,95.65268,92,87,0
95.5644,95.65268,89,79,0
95.91929,96.01005,80,64,0
95.91929,96.01005,77,57,0
96.2883,96.69792,77,73,0
96.2883,96.69792,73,65,0
96.69792,96.890816,58,71,0
96.69792,96.890816,63,71,0
96.69792,96.890816,66,79,0
96.890816,97.08204,49,71,0
97.08204,97.275085,58,71,0
97.08204,97.275085,63,71,0
97.08204,97.275085,66,79,0
97.275085,97.48527,37,69,0
97.48527,97.6791,66,84,0
97.48527,97.6791,63,75,0
97.48527,97.6791,56,75,0
97.6791,97.86824,49,61,0
97.86824,98.05671,66,72,0
97.86824,98.05671,63,63,0
97.86824,98.05671,56,63,0
98.05671,98.246284,37,63,0
98.246284,98.441345,56,57,0
98.246284,98.441345,61,57,0
98.246284,98.441345,65,64,0
98.441345,98.636406,49,54,0
98.636406,98.82513,57,50,0
98.636406,98.82513,63,50,0
98.636406,98.82513,66,55,0
98.82513,99.013855,37,44,0
99.013855,99.2131,58,45,0
99.013855,99.2131,61,45,0
99.013855,99.2131,65,52,0
99.417076,99.85981,56,51,0
99.2131,99.85981,49,45,0
99.417076,99.85981,62,57,0
99.417076,99.85981,59,57,0
99.85981,100.05379,58,71,0
99.85981,100.05379,63,71,0
99.85981,100.05379,66,79,0
100.05379,100.24501,49,71,0
100.24501,100.43865,58,71,0
100.24501,100.43865,63,71,0
100.24501,100.43865,66,79,0
100.43865,100.64608,37,69,0
100.64608,100.84034,66,84,0
100.64608,100.84034,63,75,0
100.64608,100.84034,56,75,0
100.84034,101.03078,49,64,0
101.03078,101.2206,66,72,0
101.03078,101.2206,63,63,0
101.03078,101.2206,56,63,0
101.2206,101.41217,37,63,0
101.41217,101.60723,56,57,0
101.41217,101.60723,61,57,0
101.41217,101.60723,65,64,0
101.60723,101.802284,49,54,0
101.802284,101.99101,57,50,0
101.802284,101.99101,63,50,0
101.802284,101.99101,66,55,0
101.99101,102.17974,37,44,0
102.17974,102.378975,58,45,0
102.17974,102.378975,61,45,0
102.17974,102.378975,65,52,0
102.378975,102.582954,49,45,0
102.582954,103.02166,59,51,0
102.582954,103.02166,62,51,0
102.582954,103.02166,71,57,0
102.582954,103.02166,68,57,0
103.02166,103.11445,37,41,0
103.14529,103.2373,44,36,0
103.26788,103.35913,37,41,0
103.389465,103.48009,44,36,0
103.51029,103.60092,37,43,0
103.63113,103.72729,44,40,0
103.759346,103.84997,37,45,0
103.88017,103.970795,44,41,0
104.00101,104.09163,49,41,0
104.12183,104.21152,56,44,0
104.241684,104.332726,49,41,0
104.363266,104.455444,44,41,0
104.48629,104.57868,37,41,0
104.6094,104.70123,44,36,0
104.731735,104.82298,37,41,0
104.85332,104.94394,44,36,0
104.974144,105.06477,37,43,0
105.09498,105.19114,44,40,0
105.2232,105.31382,37,45,0
105.344025,105.43465,44,41,0
105.46486,105.555435,49,41,0
105.58552,105.676186,56,44,0
105.70652,105.79814,49,41,0
105.82886,105.921425,44,41,0
105.952484,106.042946,37,41,0
106.07301,106.162964,44,36,0
106.192856,106.28227,37,41,0
106.31202,106.40096,44,36,0
106.43061,106.51955,37,43,0
106.549194,106.644035,44,40,0
106.67565,106.76459,37,45,0
106.794235,106.88318,44,41,0
106.91282,107.00176,49,41,0
107.03141,107.11988,56,44,0
107.14948,107.238556,49,41,0
107.26835,107.36205,44,41,0
107.39252,107.48146,37,45,0
107.51111,107.600044,44,41,0
107.62969,107.718636,49,41,0
107.748276,107.836754,56,44,0
107.866356,107.95542,49,41,0
107.98522,108.07637,44,41,0
108.107864,108.1968,37,45,0
108.22645,108.31539,44,41,0
108.34503,108.433975,49,41,0
108.46362,108.5521,56,44,0
108.581696,108.67077,49,41,0
108.70056,108.79028,44,41,0
108.938614,109.02689,49,37,0
108.82032,109.056244,37,43,0
109.173195,109.26048,42,39,0
109.056244,109.28957,54,64,0
109.40595,109.49905,39,42,0
109.28957,109.530075,51,62,0
109.646454,109.733734,49,43,0
109.530075,109.76283,37,47,0
109.8792,109.96604,44,45,0
109.76283,109.995094,56,72,0
110.11176,110.19982,48,46,0
109.995094,110.2293,60,67,0
110.347595,110.435875,49,42,0
110.2293,110.465225,37,45,0
110.58218,110.669464,44,43,0
110.465225,110.698555,56,73,0
110.81493,110.90803,41,45,0
110.698555,110.93906,53,67,0
111.055435,111.142715,49,46,0
110.93906,111.171814,37,53,0
111.28819,111.37503,46,51,0
111.171814,111.404076,58,80,0
111.520744,111.6088,49,47,0
111.404076,111.63829,61,72,0
111.753975,111.84032,49,45,0
111.63829,111.86902,37,51,0
111.9834,112.068756,46,46,0
111.86902,112.09721,58,83,0
112.21103,112.30207,42,52,0
112.09721,112.33242,54,81,0
112.446236,112.5316,49,53,0
112.33242,112.56006,37,59,0
112.673874,112.7588,51,57,0
112.56006,112.78721,63,89,0
112.901306,112.98743,54,57,0
112.78721,113.01626,66,84,0
113.13195,113.21829,49,52,0
113.01626,113.24699,37,59,0
113.361374,113.44672,46,53,0
113.24699,113.47524,58,97,0
113.59018,113.68122,48,59,0
113.47524,113.71157,60,89,0
113.825386,113.91075,49,62,0
113.71157,113.93921,37,70,0
114.053024,114.13795,48,66,0
113.93921,114.16636,60,97,0
114.16636,114.4081,61,92,0
114.4081,114.79214,54,66,0
114.4081,114.79214,62,74,0
114.28046,114.79214,49,63,0
114.4081,114.79214,50,66,0
114.4081,114.79214,57,74,0
114.79214,115.15171,49,69,0
114.79214,115.15171,37,69,0
115.15171,115.511986,56,63,0
115.15171,115.511986,62,71,0
115.15171,115.511986,66,71,0
115.511986,115.88264,49,69,0
115.511986,115.88264,37,62,0
115.88264,116.262,57,69,0
115.88264,116.262,61,79,0
115.88264,116.262,64,79,0
116.262,116.62383,49,69,0
116.262,116.62383,37,62,0
116.62383,117.008896,56,63,0
116.62383,117.008896,68,71,0
116.62383,117.008896,64,71,0
116.62383,117.008896,61,63,0
117.008896,117.440674,57,62,0
117.008896,117.440674,67,69,0
117.008896,117.440674,64,69,0
117.008896,117.440674,61,62,0
117.440674,117.53065,58,42,0
117.440674,117.53065,55,36,0
117.560486,117.6494,57,39,0
117.560486,117.6494,54,34,0
117.67888,117.76692,55,39,0
117.67888,117.76692,52,34,0
117.79609,118.154724,54,36,0
117.79609,118.154724,50,32,0
118.154724,118.24177,55,55,0
118.27078,118.35782,56,57,0
118.38683,118.47388,57,60,0
118.50289,118.58993,58,54,0
118.61894,118.705986,59,53,0
118.735,118.82204,61,50,0
118.028275,118.85105,37,53,0
118.028275,118.85105,49,53,0
118.97214,119.06295,56,40,0
119.09322,119.18404,49,40,0
118.85105,119.21431,61,47,0
119.33289,119.42184,54,40,0
119.45148,119.54042,49,41,0
119.21431,119.57007,63,46,0
119.692894,119.78502,53,36,0
119.57007,119.94359,65,39,0
119.94359,120.36102,56,42,0
119.94359,120.36102,59,42,0
119.81573,120.36102,49,32,0
120.36102,120.74506,54,66,0
120.36102,120.74506,66,74,0
120.36102,120.74506,62,74,0
120.36102,120.74506,57,66,0
120.74506,121.10464,49,69,0
120.74506,121.10464,37,62,0
121.10464,121.46491,56,63,0
121.10464,121.46491,68,71,0
121.10464,121.46491,66,71,0
121.10464,121.46491,62,63,0
121.46491,121.83556,49,69,0
121.46491,121.83556,37,62,0
121.83556,122.214935,57,69,0
121.83556,122.214935,69,79,0
121.83556,122.214935,64,79,0
121.83556,122.214935,61,69,0
122.214935,122.57676,49,69,0
122.214935,122.57676,37,62,0
122.57676,122.96182,56,63,0
122.57676,122.96182,68,71,0
122.57676,122.96182,64,71,0
122.57676,122.96182,61,63,0
122.96182,123.3936,57,62,0
122.96182,123.3936,67,69,0
122.96182,123.3936,64,69,0
122.96182,123.3936,61,62,0
123.3936,123.482994,70,42,0
123.3936,123.482994,67,36,0
123.51271,123.6013,69,39,0
123.51271,123.6013,66,34,0
123.63071,123.718475,67,39,0
123.63071,123.718475,64,39,0
123.747604,124.1036,66,36,0
123.747604,124.1036,62,32,0
124.1036,124.190636,67,56,0
124.21965,124.306694,68,60,0
124.33571,124.422745,69,59,0
124.45176,124.5388,70,56,0
124.56782,124.654854,71,54,0
124.68387,124.77091,73,52,0
123.97971,124.79993,49,54,0
123.97971,124.79993,61,54,0
124.921005,125.011826,68,39,0
125.04209,125.132904,61,39,0
124.79993,125.16318,73,50,0
125.28177,125.370705,66,39,0
125.40035,125.48929,61,39,0
125.16318,125.518936,75,45,0
125.64177,125.73389,65,33,0
125.518936,125.892456,77,34,0
125.892456,126.30372,69,37,0
125.764595,126.30372,61,29,0
126.30372,126.69175,78,45,0
126.30372,126.69175,82,52,0
126.69175,127.0958,80,60,0
126.69175,127.0958,73,53,0
127.0958,127.48214,58,45,0
127.0958,127.48214,65,52,0
127.48214,127.89374,58,59,0
127.48214,127.89374,55,52,0
127.89374,128.02599,53,86,0
127.89374,128.02599,41,72,0
127.89374,128.02599,29,72,0
128.02599,128.15823,51,81,0
128.02599,128.15823,39,69,0
128.02599,128.15823,27,69,0
128.15823,128.30359,53,84,0
128.15823,128.30359,41,71,0
128.15823,128.30359,29,71,0
128.30359,131.47342,49,89,0
128.30359,131.47342,37,74,0
128.30359,131.47342,25,74,0
132.79665,133.7862,44,41,0
132.79665,133.7862,32,41,0
133.7862,134.77576,42,36,0
133.7862,134.77576,30,36,0
131.8071,134.77576,49,42,0
134.77576,135.7653,50,43,0
134.77576,135.7653,41,43,0
134.77576,135.7653,29,43,0
137.98097,138.1514,33,36,0
138.1514,138.32184,45,34,0
138.32184,138.49228,49,36,0
138.49228,138.6627,55,36,0
138.6627,138.83315,57,36,0
135.7653,138.83315,28,31,0
135.7653,138.83315,40,31,0
135.7653,138.83315,50,31,0
140.10487,140.44574,26,41,0
141.12749,145.22621,54,36,0
141.12749,145.22621,38,32,0
146.25394,146.61066,26,30,0
145.22621,147.31598,54,30,0
145.22621,147.31598,38,26,0
147.31598,149.40974,54,30,0
147.31598,149.40974,38,26,0
149.40974,150.48607,54,30,0
149.40974,150.48607,38,26,0
150.48607,150.85126,26,31,0
151.57109,153.66487,54,30,0
151.57109,153.66487,38,26,0
153.66487,155.0808,54,30,0
153.66487,155.0808,38,26,0
155.44598,155.81117,45,44,0
155.81117,156.92259,47,46,0
156.92259,157.28777,45,32,0
156.92259,157.28777,38,32,0
157.62865,157.98741,61,30,0
157.62865,158.65988,67,36,0
157.62865,158.65988,69,36,0
158.65988,159.69221,69,31,0
158.65988,159.69221,67,31,0
159.69221,160.04482,69,31,0
159.69221,160.04482,67,31,0
159.69221,160.04482,61,26,0
160.73416,161.10153,45,31,0
160.73416,161.10153,38,26,0
161.10153,161.45619,38,27,0
161.10153,161.45619,26,24,0
161.81084,162.17172,61,30,0
161.81084,162.85081,67,36,0
161.81084,162.85081,69,36,0
162.85081,163.8603,69,31,0
162.85081,163.8603,67,31,0
163.8603,164.21089,69,31,0
163.8603,164.21089,67,31,0
163.8603,164.21089,61,26,0
164.91208,165.28168,45,30,0
164.91208,165.28168,38,25,0
165.28168,165.64044,38,27,0
165.28168,165.64044,26,24,0
165.9992,166.36008,61,30,0
165.9992,166.36008,67,36,0
165.9992,166.36008,69,36,0
168.07155,168.43457,52,31,0
168.07155,168.43457,49,26,0
168.43457,170.18753,54,35,0
168.43457,170.18753,50,29,0
168.43457,170.18753,47,29,0
170.18753,170.53812,59,34,0
170.18753,170.53812,62,41,0
170.53812,172.24246,59,36,0
170.53812,172.24246,62,44,0
172.24246,173.02438,58,47,0
172.24246,173.02438,62,47,0
173.10751,173.68747,57,42,0
173.06613,173.68747,55,42,0
173.02438,173.68747,45,42,0
173.68747,174.02834,45,47,0
173.68747,174.02834,38,41,0
174.1311,174.23387,62,40,0
174.23387,174.33664,57,40,0
174.02834,174.33664,66,44,0
174.33664,174.6775,66,44,0
174.33664,174.6775,54,36,0
174.6775,175.01091,66,44,0
174.6775,175.01091,57,36,0
174.6775,175.01091,62,44,0
175.01091,175.34431,66,41,0
175.01091,175.34431,54,34,0
175.34431,175.6852,66,44,0
175.34431,175.6852,57,36,0
175.34431,175.6852,62,44,0
175.6852,176.02606,45,47,0
175.6852,176.02606,38,41,0
176.12987,176.23369,62,36,0
176.23369,176.3375,57,36,0
176.02606,176.3375,66,44,0
176.3375,176.69118,66,44,0
176.3375,176.69118,54,36,0
176.69118,177.03204,66,44,0
176.69118,177.03204,57,36,0
176.69118,177.03204,62,44,0
177.03204,177.37291,66,40,0
177.03204,177.37291,54,40,0
177.37291,177.72926,66,44,0
177.37291,177.72926,62,44,0
177.37291,177.72926,57,36,0
177.72926,178.07014,45,47,0
177.72926,178.07014,38,41,0
178.17395,178.27776,62,40,0
178.27776,178.38156,57,40,0
178.07014,178.38156,66,46,0
178.38156,178.72244,66,44,0
178.38156,178.72244,54,36,0
178.72244,179.05818,66,44,0
178.72244,179.05818,57,36,0
178.72244,179.05818,62,44,0
179.05818,179.39345,66,37,0
179.05818,179.39345,54,31,0
179.39345,179.75017,66,36,0
179.39345,179.75017,57,30,0
179.39345,179.75017,62,36,0
179.75017,180.08357,38,47,0
180.18582,180.28807,62,36,0
180.28807,180.39032,58,36,0
180.08357,180.39032,66,44,0
180.39032,180.7389,66,44,0
180.39032,180.7389,54,36,0
180.7389,181.08751,66,44,0
180.7389,181.08751,58,36,0
180.7389,181.08751,62,44,0
181.08751,181.4361,66,41,0
181.08751,181.4361,54,34,0
181.4361,182.13943,66,44,0
181.4361,182.13943,58,36,0
181.4361,182.13943,62,44,0
182.24594,182.35246,62,36,0
182.35246,182.45897,58,36,0
182.13943,182.45897,66,44,0
182.45897,182.80174,66,44,0
182.45897,182.80174,54,36,0
182.80174,183.14452,66,44,0
182.80174,183.14452,59,36,0
182.80174,183.14452,62,44,0
183.14452,183.4873,66,41,0
183.14452,183.4873,54,34,0
183.4873,183.8525,66,44,0
183.4873,183.8525,59,36,0
183.4873,183.8525,62,44,0
183.8525,184.21767,38,47,0
184.32417,184.43068,62,47,0
184.43068,184.5372,58,45,0
184.21767,184.5372,66,52,0
184.5372,184.89185,66,44,0
184.5372,184.89185,54,36,0
184.89185,185.24043,66,44,0
184.89185,185.24043,58,36,0
184.89185,185.24043,62,44,0
185.24043,185.58904,66,41,0
185.24043,185.58904,54,34,0
185.58904,186.29237,66,44,0
185.58904,186.29237,58,36,0
185.58904,186.29237,62,44,0
186.39671,186.50105,62,36,0
186.50105,186.6054,58,36,0
186.29237,186.6054,66,44,0
186.6054,186.98985,66,44,0
186.6054,186.98985,54,36,0
186.98985,187.33263,66,44,0
186.98985,187.33263,59,36,0
186.98985,187.33263,62,44,0
187.33263,187.6754,66,41,0
187.33263,187.6754,54,34,0
187.6754,188.04059,66,44,0
187.6754,188.04059,59,36,0
187.6754,188.04059,62,44,0
188.04059,188.40578,38,41,0
188.04059,188.40578,50,47,0
188.51285,188.6199,62,41,0
188.6199,188.72697,57,41,0
188.40578,188.72697,66,46,0
188.72697,189.09216,66,44,0
188.72697,189.09216,54,36,0
189.09216,189.45735,66,50,0
189.09216,189.45735,56,42,0
189.09216,189.45735,62,50,0
189.45735,189.82254,66,46,0
189.45735,189.82254,54,40,0
189.82254,190.18771,66,45,0
189.82254,190.18771,56,37,0
189.82254,190.18771,62,45,0
190.18771,190.5529,49,51,0
190.18771,190.5529,37,51,0
190.91809,191.94933,49,30,0
190.91809,191.94933,58,30,0
191.94933,192.98166,59,26,0
191.94933,192.98166,49,26,0
192.98166,194.0236,59,26,0
192.98166,194.0236,49,26,0
192.98166,194.0236,56,26,0
194.0236,194.39098,41,29,0
194.39098,195.10028,42,35,0
194.0236,195.10028,49,29,0
195.10028,196.14026,58,26,0
195.10028,196.14026,49,26,0
196.14026,196.31277,59,26,0
196.14026,196.31277,49,26,0
197.14975,197.50035,56,22,0
197.14975,197.50035,49,22,0
197.14975,197.50035,59,22,0
198.20152,198.92989,59,23,0
198.20152,198.92989,54,23,0
198.20152,198.92989,49,23,0
199.28865,199.64954,59,25,0
199.28865,199.64954,53,25,0
199.28865,199.64954,49,25,0
201.36101,201.72403,49,26,0
201.36101,201.72403,53,31,0
201.72403,203.47697,54,35,0
201.72403,203.47697,47,29,0
203.47697,203.71916,51,35,0
203.47697,203.71916,44,35,0
203.82872,204.68692,51,29,0
203.77394,204.68692,46,27,0
203.71916,204.68692,39,25,0
204.69423,205.65114,54,36,0
204.69423,205.65114,66,36,0
205.65782,206.46083,66,32,0
205.65782,206.46083,54,32,0
206.51538,207.06439,57,40,0
206.46083,207.06439,51,40,0
207.06439,207.71355,40,53,0
207.71355,208.72124,64,33,0
207.71355,208.72124,59,33,0
207.71355,208.72124,52,33,0
208.72124,209.0621,67,53,0
209.0621,209.39552,66,56,0
209.39552,209.72893,67,47,0
208.72124,209.72893,52,40,0
208.72124,209.72893,59,40,0
209.72893,210.75154,64,47,0
209.72893,210.75154,59,34,0
209.72893,210.75154,52,34,0
210.75154,211.08313,47,34,0
211.08313,211.75198,40,53,0
212.0891,212.59477,71,56,0
212.59477,212.75793,69,53,0
211.75198,212.75793,59,36,0
211.75198,212.75793,52,36,0
212.75793,213.09505,67,53,0
213.09505,213.42665,66,55,0
213.42665,213.76564,67,53,0
213.76564,214.816,64,51,0
213.76564,214.816,59,36,0
213.76564,214.816,52,36,0
214.816,215.17065,59,36,0
214.816,215.17065,52,36,0
214.816,215.17065,62,41,0
215.17065,215.88202,62,45,0
215.88202,216.2229,59,44,0
215.12631,216.2229,45,32,0
216.2229,216.7342,61,51,0
216.7342,216.89912,59,47,0
216.2229,217.25107,57,51,0
216.89912,217.25107,57,45,0
217.25107,217.58447,40,53,0
217.92535,218.97571,64,47,0
217.58447,218.97571,59,36,0
217.58447,218.97571,52,36,0
218.97571,219.33037,59,30,0
218.97571,219.33037,52,30,0
218.97571,219.33037,62,36,0
219.33037,220.04173,62,44,0
220.04173,220.38261,59,42,0
219.28603,220.38261,45,44,0
220.38261,220.8939,64,52,0
220.8939,221.05884,62,47,0
221.05884,221.41078,61,45,0
220.38261,221.41078,57,40,0
221.41078,222.09253,45,53,0
222.09253,222.26295,61,35,0
222.09253,222.26295,64,35,0
223.11514,223.46979,40,37,0
222.4334,223.46979,62,35,0
222.4334,223.46979,64,35,0
223.46979,223.82222,45,39,0
223.46979,223.82222,33,29,0
224.16167,224.50845,57,53,0
224.50845,225.00156,61,54,0
225.00156,225.16289,62,53,0
224.16167,225.16289,69,42,0
224.16167,225.16289,67,42,0
225.16289,225.50232,64,53,0
225.50232,226.15846,61,57,0
225.16289,226.15846,69,36,0
225.16289,226.15846,67,36,0
226.15846,226.48247,57,51,0
226.15846,226.48247,61,42,0
226.15846,226.48247,69,42,0
226.15846,226.48247,67,42,0
226.48247,227.12694,59,53,0
226.48247,227.12694,62,42,0
226.48247,227.12694,69,42,0
226.48247,227.12694,67,42,0
227.12694,227.47856,40,40,0
227.47856,227.818,33,44,0
227.47856,227.818,45,44,0
228.16292,228.51039,57,53,0
228.51039,229.00627,61,54,0
229.00627,229.16849,62,53,0
228.16292,229.16849,69,42,0
228.16292,229.16849,67,42,0
229.16849,229.50406,64,53,0
229.50406,230.1627,61,57,0
229.16849,230.1627,69,36,0
229.16849,230.1627,67,36,0
230.1627,230.487,57,51,0
230.1627,230.487,61,42,0
230.1627,230.487,69,42,0
230.1627,230.487,67,42,0
230.487,231.13428,59,53,0
230.487,231.13428,62,42,0
230.487,231.13428,69,42,0
230.487,231.13428,67,42,0
231.13428,231.4859,40,40,0
231.4859,231.82535,33,44,0
231.4859,231.82535,45,44,0
232.17076,232.51418,57,53,0
232.17076,232.51418,52,43,0
232.17076,232.51418,45,43,0
232.51418,232.99911,61,49,0
232.99911,233.15782,62,46,0
232.51418,233.15782,57,36,0
233.15782,233.4934,64,46,0
233.4934,233.81963,61,52,0
233.15782,233.81963,57,32,0
233.81963,234.15204,71,45,0
233.81963,234.15204,59,43,0
234.15204,234.35564,57,52,0
234.15204,234.35564,61,43,0
234.15204,234.35564,69,45,0
234.15204,234.35564,67,43,0
234.48805,234.80894,71,53,0
234.35564,234.80894,55,43,0
234.3996,234.80894,62,43,0
234.44383,234.80894,67,47,0
235.48695,235.59872,43,55,0
235.59872,235.70615,50,55,0
235.70615,235.81277,55,55,0
236.44495,236.54898,47,59,0
236.54898,236.65642,54,59,0
236.65642,236.76303,59,59,0
237.3952,237.49924,46,62,0
237.49924,237.60667,56,62,0
237.60667,237.71329,62,62,0
238.35289,238.45692,45,63,0
238.45692,238.56435,55,63,0
238.56435,238.67097,61,63,0
239.31056,239.62971,38,69,0
239.31056,239.62971,50,77,0
239.94376,240.28716,66,74,0
239.94376,240.28716,57,65,0
239.94376,240.28716,54,65,0
240.28716,240.77211,64,77,0
240.28716,240.77211,57,69,0
240.28716,240.77211,52,69,0
240.77211,240.93082,66,74,0
240.77211,240.93082,54,65,0
240.93082,241.26639,62,74,0
240.93082,241.26639,50,65,0
241.26639,241.59262,38,83,0
241.26639,241.59262,26,70,0
241.92252,242.24652,57,66,0
241.92252,242.24652,69,75,0
241.92252,242.24652,66,66,0
241.92252,242.24652,62,66,0
242.24652,242.891,57,65,0
242.24652,242.891,62,65,0
242.24652,242.891,69,74,0
242.24652,242.891,66,65,0
242.891,243.24261,59,65,0
242.891,243.24261,66,65,0
242.891,243.24261,71,74,0
242.891,243.24261,62,65,0
243.24261,243.56177,57,79,0
242.56612,243.56177,38,71,0
243.24261,243.56177,69,79,0
242.56612,243.56177,50,71,0
243.24261,243.56177,62,79,0
243.24261,243.56177,66,79,0
243.56177,243.888,55,64,0
243.56177,243.888,67,72,0
243.888,244.22166,54,57,0
243.888,244.22166,66,64,0
244.22166,244.55533,52,65,0
244.22166,244.55533,57,65,0
244.22166,244.55533,64,74,0
244.55533,244.88338,54,60,0
244.55533,244.88338,66,66,0
244.88338,245.21895,62,71,0
244.88338,245.21895,57,63,0
244.88338,245.21895,50,63,0
245.21895,245.54518,50,83,0
245.21895,245.54518,38,62,0
245.87509,246.19908,54,66,0
245.87509,246.19908,57,66,0
245.87509,246.19908,66,75,0
246.19908,246.84357,54,65,0
246.19908,246.84357,66,74,0
246.19908,246.84357,57,65,0
246.84357,247.18498,52,65,0
246.84357,247.18498,58,65,0
246.84357,247.18498,64,74,0
246.84357,247.18498,54,65,0
247.18498,247.50412,52,79,0
246.51868,247.50412,50,71,0
247.18498,247.50412,64,79,0
246.51868,247.50412,38,71,0
247.18498,247.50412,54,79,0
247.18498,247.50412,58,79,0
247.50412,247.83035,38,64,0
247.50412,247.83035,50,72,0
247.83035,248.16592,49,57,0
247.83035,248.16592,61,64,0
247.83035,248.16592,54,57,0
248.16592,248.49397,50,65,0
248.16592,248.49397,54,65,0
248.16592,248.49397,62,74,0
248.49397,248.82385,49,60,0
248.49397,248.82385,61,66,0
248.49397,248.82385,54,60,0
248.82385,249.15942,59,71,0
248.82385,249.15942,54,63,0
248.82385,249.15942,47,63,0
249.15942,249.48566,38,83,0
249.15942,249.48566,26,62,0
249.81557,250.13957,54,66,0
249.81557,250.13957,57,66,0
249.81557,250.13957,66,75,0
250.13957,250.78404,54,65,0
250.13957,250.78404,66,74,0
250.13957,250.78404,57,65,0
250.78404,251.12154,52,59,0
250.78404,251.12154,58,59,0
250.78404,251.12154,64,65,0
250.78404,251.12154,54,59,0
251.12154,251.44243,52,79,0
250.45915,251.44243,50,71,0
251.12154,251.44243,64,79,0
250.45915,251.44243,38,71,0
251.12154,251.44243,54,79,0
251.12154,251.44243,58,79,0
251.44243,251.77048,38,54,0
251.44243,251.77048,50,72,0
251.77048,252.10605,49,49,0
251.77048,252.10605,61,64,0
251.77048,252.10605,54,49,0
252.10605,252.43228,50,55,0
252.10605,252.43228,54,55,0
252.10605,252.43228,62,74,0
252.43228,252.76785,49,50,0
252.43228,252.76785,61,66,0
252.43228,252.76785,54,50,0
252.76785,253.11125,59,71,0
252.76785,253.11125,54,53,0
252.76785,253.11125,47,53,0
253.11125,253.22572,45,46,0
253.22572,253.3402,46,52,0
253.3402,253.45467,49,52,0
253.11125,253.45467,38,89,0
253.45467,253.56589,50,53,0
253.56589,253.67711,52,53,0
253.67711,253.78833,53,53,0
253.78833,253.89413,54,54,0
253.89413,253.99994,55,55,0
253.99994,254.10576,56,55,0
254.10576,254.2133,57,55,0
254.2133,254.32086,58,56,0
254.32086,254.4284,61,57,0
254.4284,254.539,62,57,0
254.539,254.6496,64,59,0
254.6496,254.7602,65,61,0
254.7602,254.9309,66,66,0
255.10161,255.44104,50,89,0
255.10161,255.44104,38,74,0
255.44104,255.60416,52,63,0
255.44104,255.60416,54,63,0
255.44104,255.60416,64,83,0
255.76727,255.92772,49,61,0
255.76727,255.92772,61,79,0
256.08817,256.4144,62,82,0
256.08817,256.4144,50,63,0
256.4144,256.75385,61,80,0
256.4144,256.75385,49,62,0
256.08817,256.75385,54,63,0
256.75385,256.92325,59,80,0
256.75385,256.92325,54,72,0
256.75385,256.92325,47,62,0
257.09854,257.2117,45,46,0
257.2117,257.32486,46,52,0
257.32486,257.438,49,52,0
257.09854,257.438,38,89,0
257.438,257.54736,50,53,0
257.54736,257.6567,52,53,0
257.6567,257.76605,53,53,0
257.76605,257.87302,54,54,0
257.87302,257.97998,55,55,0
257.97998,258.08694,56,55,0
258.08694,258.1945,57,55,0
258.1945,258.30203,58,56,0
258.30203,258.40958,61,57,0
258.40958,258.51956,62,57,0
258.51956,258.62952,64,59,0
258.62952,258.73947,65,61,0
258.73947,258.9102,66,66,0
259.0809,259.4149,50,89,0
259.0809,259.4149,38,74,0
259.4149,259.5762,52,63,0
259.4149,259.5762,54,63,0
259.4149,259.5762,64,83,0
259.73752,259.9053,49,61,0
259.73752,259.9053,61,79,0
260.0731,260.39224,62,82,0
260.0731,260.39224,50,63,0
260.39224,260.72214,61,80,0
260.39224,260.72214,49,62,0
260.0731,260.72214,54,63,0
260.72214,260.88898,59,80,0
260.72214,260.88898,54,72,0
260.72214,260.88898,47,62,0
261.0558,261.16962,49,46,0
261.16962,261.28342,50,52,0
261.28342,261.39722,53,52,0
261.0558,261.39722,42,89,0
261.39722,261.5049,54,53,0
261.5049,261.61188,56,53,0
261.61188,261.71884,57,53,0
261.71884,261.82297,58,54,0
261.82297,261.9271,59,55,0
261.9271,262.03122,60,55,0
262.03122,262.13702,61,55,0
262.13702,262.24283,62,56,0
262.24283,262.34866,65,57,0
262.34866,262.4568,66,57,0
262.4568,262.56494,68,59,0
262.56494,262.67307,69,61,0
262.67307,262.8428,70,66,0
263.0125,263.3424,54,89,0
263.0125,263.3424,42,74,0
263.3424,263.50113,56,63,0
263.3424,263.50113,58,63,0
263.3424,263.50113,68,83,0
263.65985,263.82294,53,61,0
263.65985,263.82294,65,79,0
263.65985,263.82294,58,61,0
263.98605,264.3035,66,82,0
263.98605,264.3035,51,63,0
264.3035,264.62973,65,80,0
264.3035,264.62973,53,62,0
263.98605,264.62973,58,63,0
264.62973,264.79376,63,80,0
264.62973,264.79376,58,72,0
264.62973,264.79376,51,62,0
264.9589,265.28513,30,72,0
264.9589,265.28513,42,81,0
264.9589,265.28513,37,72,0
265.28513,265.44296,54,61,0
265.28513,265.44296,61,66,0
265.28513,265.44296,66,61,0
265.60083,265.75784,54,65,0
265.60083,265.75784,60,74,0
265.60083,265.75784,66,65,0
265.9149,266.0771,54,72,0
265.9149,266.0771,58,81,0
265.9149,266.0771,66,72,0
266.23932,266.40152,54,67,0
266.23932,266.40152,60,76,0
266.23932,266.40152,66,67,0
266.56372,266.72244,54,63,0
266.56372,266.72244,61,73,0
266.56372,266.72244,66,63,0
266.88116,267.2148,30,79,0
266.88116,267.2148,42,89,0
266.88116,267.2148,36,79,0
267.2148,267.37186,66,77,0
267.2148,267.37186,54,77,0
267.52832,267.6842,70,79,0
267.52832,267.6842,58,79,0
267.83957,267.99408,72,80,0
267.83957,267.99408,60,80,0
268.14807,268.3015,74,81,0
268.14807,268.3015,62,81,0
268.45444,268.60657,76,81,0
268.45444,268.60657,64,81,0
268.7587,268.84604,41,89,0
268.7587,268.84604,36,89,0
268.7587,268.84604,29,89,0
269.10797,269.19528,89,71,0
269.45724,269.54456,77,70,0
269.81964,269.90695,65,72,0
270.1689,270.25687,53,69,0
270.52075,270.60873,41,69,0
270.87262,270.96423,41,66,0
270.87262,270.96423,29,66,0
271.2472,271.347,65,69,0
271.61716,271.6514,56,42,0
271.6514,271.7497,60,61,0
271.6514,271.7497,57,53,0
272.01138,272.04355,52,46,0
272.04355,272.13422,57,62,0
272.04355,272.13422,53,55,0
272.37332,272.40292,44,45,0
272.40292,272.49152,45,53,0
272.73093,272.76154,40,45,0
272.76154,272.8511,41,53,0
273.0899,273.11975,45,45,0
273.11975,273.3646,46,51,0
273.46094,273.49304,49,47,0
273.49304,273.58133,50,55,0
273.8182,273.84793,52,50,0
273.84793,273.9387,53,54,0
274.18555,274.21695,57,56,0
274.21695,274.5604,58,65,0
274.21695,274.5604,62,74,0
274.59454,274.62878,80,31,0
274.62878,274.72607,84,43,0
274.62878,274.72607,81,37,0
274.9831,275.01456,76,32,0
275.01456,275.10522,81,44,0
275.01456,275.10522,77,39,0
275.34433,275.37393,68,32,0
275.37393,275.46204,69,36,0
275.70065,275.73123,64,32,0
275.73123,275.82077,65,36,0
276.05945,276.0893,69,32,0
276.0893,276.1811,70,36,0
276.43048,276.4626,72,32,0
276.4626,276.55087,73,39,0
276.78775,276.81747,76,35,0
276.81747,276.90823,77,39,0
277.1551,277.1865,81,35,0
277.1865,277.5299,82,41,0
277.1865,277.5299,85,45,0
277.5986,277.6891,68,62,0
277.5986,277.6891,65,54,0
277.71915,277.80908,67,56,0
277.71915,277.80908,63,50,0
277.839,277.9284,65,56,0
277.839,277.9284,62,50,0
278.1953,278.29016,61,53,0
278.1953,278.29016,52,46,0
277.95816,278.32178,63,53,0
277.95816,278.32178,60,46,0
278.32178,278.55896,53,59,0
278.55896,278.6479,54,55,0
278.32178,278.67752,60,53,0
278.67752,278.76648,55,54,0
278.67752,278.76648,60,54,0
278.7961,278.88507,56,53,0
278.9147,279.00363,57,51,0
279.0333,279.1241,64,54,0
279.1544,279.24518,65,54,0
279.0333,279.27545,58,53,0
279.27545,279.36627,66,54,0
279.39655,279.48547,67,54,0
279.51514,279.75232,68,54,0
279.39655,279.75232,61,54,0
279.75232,279.87515,70,50,0
279.75232,280.12582,66,50,0
280.12582,280.53708,70,46,0
280.09384,280.53708,61,42,0
280.06186,280.53708,54,40,0
280.53708,280.62756,76,37,0
280.53708,280.62756,73,34,0
280.65762,280.74756,75,35,0
280.65762,280.74756,71,31,0
280.77747,280.86688,73,35,0
280.77747,280.86688,70,31,0
281.1338,281.22864,69,32,0
281.1338,281.22864,60,27,0
280.89664,281.26025,71,32,0
280.89664,281.26025,68,27,0
281.26025,281.49744,61,36,0
281.49744,281.58636,62,34,0
281.26025,281.616,68,32,0
281.616,281.70496,63,34,0
281.616,281.70496,68,34,0
281.7346,281.82355,64,32,0
281.85318,281.9421,65,31,0
281.97177,282.0626,72,34,0
282.09286,282.18365,73,34,0
281.97177,282.21393,66,32,0
282.21393,282.30475,74,34,0
282.33502,282.42395,75,34,0
282.4536,282.6908,76,34,0
282.33502,282.6908,69,34,0
282.6908,282.8136,78,31,0
282.6908,283.0643,74,31,0
283.0643,283.47556,78,39,0
283.0643,283.47556,81,44,0
283.47556,283.57083,55,74,0
283.47556,283.57083,50,74,0
283.47556,283.57083,45,65,0
283.8596,283.95026,79,90,0
283.8596,283.95026,83,81,0
284.219,284.30756,63,59,0
284.219,284.30756,66,65,0
284.4552,284.547,66,49,0
284.4552,284.547,70,55,0
284.93582,285.0299,54,63,0
284.93582,285.0299,50,63,0
284.93582,285.0299,45,56,0
285.3152,285.40347,81,90,0
285.3152,285.40347,78,81,0
285.67007,285.76083,69,62,0
285.67007,285.76083,66,54,0
286.0391,286.45654,66,69,0
286.0391,286.45654,62,62,0
286.45654,286.5518,67,50,0
286.45654,286.5518,62,50,0
286.45654,286.5518,57,44,0
286.84058,286.93124,95,50,0
286.84058,286.93124,91,44,0
287.19998,287.28854,75,36,0
287.19998,287.28854,78,41,0
287.43616,287.52798,78,30,0
287.43616,287.52798,82,34,0
287.9168,288.0109,66,39,0
287.9168,288.0109,62,34,0
287.9168,288.0109,57,34,0
288.29617,288.38446,93,55,0
288.29617,288.38446,90,49,0
288.65106,288.74182,81,37,0
288.65106,288.74182,78,33,0
289.02008,289.3848,78,42,0
289.02008,289.3848,74,36,0
289.45773,289.81726,59,57,0
289.45773,289.81726,55,57,0
289.45773,289.81726,50,51,0
289.81726,290.18088,50,47,0
289.81726,290.18088,38,44,0
290.18088,290.53665,57,53,0
290.18088,290.53665,64,60,0
290.18088,290.53665,67,60,0
290.53665,290.89243,50,47,0
290.53665,290.89243,38,44,0
290.89243,290.98322,62,40,0
290.89243,290.98322,57,40,0
290.89243,290.98322,50,35,0
291.25568,291.61142,64,55,0
291.25568,291.61142,67,55,0
291.61142,291.70355,66,45,0
291.25568,291.8264,62,49,0
291.984,292.30786,59,49,0
291.984,292.30786,50,44,0
292.4158,292.77533,67,51,0
292.30786,292.77533,52,46,0
292.34384,292.77533,55,47,0
292.37982,292.77533,62,47,0
292.77533,293.13898,47,43,0
292.77533,293.13898,35,39,0
293.13898,293.49472,67,53,0
293.10736,293.49472,62,44,0
293.04413,293.49472,52,44,0
293.07574,293.49472,55,44,0
293.49472,293.87164,46,43,0
293.49472,293.87164,34,39,0
293.87164,294.25296,67,65,0
293.83493,294.25296,61,43,0
293.76154,294.25296,52,42,0
293.79825,294.25296,57,43,0
294.4419,294.6299,45,53,0
294.25296,294.75485,33,54,0
294.6299,294.81705,49,52,0
294.81705,295.00323,52,52,0
295.00323,295.18854,55,51,0
295.18854,295.373,57,50,0
295.373,295.5565,61,49,0
295.5565,295.74002,64,45,0
295.74002,295.92352,67,45,0
295.92352,296.10703,73,44,0
296.10703,296.29453,76,44,0
296.29453,296.48688,79,44,0
296.48688,296.8891,82,43,0
296.8891,297.27042,67,40,0
296.8891,297.27042,52,40,0
296.8891,297.27042,58,40,0
296.8891,297.27042,60,40,0
297.4608,297.6499,48,40,0
297.27042,297.7752,36,40,0
297.6499,297.83768,52,40,0
297.83768,298.02402,55,40,0
298.02402,298.20914,58,40,0
298.20914,298.393,60,40,0
298.393,298.57574,64,40,0
298.57574,298.75848,67,40,0
298.75848,298.94125,70,40,0
298.94125,299.124,72,40,0
299.124,299.31168,76,40,0
299.31168,299.50467,79,40,0
299.50467,299.80496,82,40,0
299.90506,300.28638,66,36,0
299.80496,300.28638,51,36,0
299.83832,300.28638,56,36,0
299.8717,300.28638,60,36,0
300.47595,300.66443,44,36,0
300.28638,300.78937,32,36,0
300.66443,300.85156,48,36,0
300.85156,301.03748,51,36,0
301.03748,301.2222,54,39,0
301.2222,301.4058,56,43,0
301.4058,301.5881,60,44,0
301.5881,301.7701,63,42,0
301.7701,301.9521,66,39,0
301.9521,302.1341,68,36,0
302.1341,302.32178,72,36,0
302.32178,302.51477,75,36,0
302.51477,302.71497,78,36,0
302.71497,302.91516,80,36,0
302.91516,303.04282,81,33,0
303.04282,303.17,84,41,0
303.17,303.29675,78,34,0
303.29675,303.42303,81,41,0
303.42303,303.5489,75,33,0
303.5489,303.67426,78,41,0
303.67426,303.7992,72,34,0
303.7992,303.9236,75,41,0
303.9236,304.048,69,34,0
304.048,304.17242,72,41,0
304.17242,304.29684,66,34,0
304.29684,304.42123,69,41,0
304.42123,304.54565,63,34,0
304.54565,304.67004,66,41,0
304.67004,304.79446,60,34,0
304.79446,304.91888,63,42,0
304.91888,305.04327,57,35,0
305.04327,305.1677,60,42,0
305.1677,305.2921,54,33,0
305.2921,305.4165,57,42,0
305.4165,305.54092,51,33,0
305.54092,305.6653,54,42,0
305.6653,305.78973,48,35,0
305.78973,305.91415,51,43,0
305.91415,306.03854,45,36,0
306.03854,306.16296,48,44,0
306.16296,306.28738,42,36,0
306.28738,306.41177,45,44,0
306.41177,306.5362,39,35,0
306.5362,306.6606,42,44,0
306.6606,306.78476,36,34,0
306.78476,306.90994,39,44,0
306.90994,307.0364,33,35,0
307.0364,307.164,36,44,0
307.164,307.29285,30,34,0
307.29285,307.42288,33,44,0
307.42288,307.55396,32,30,0
307.55396,307.68503,31,30,0
307.68503,307.8161,32,30,0
307.94717,308.07825,32,31,0
308.07825,308.20932,31,31,0
308.20932,308.3404,32,31,0
308.3404,308.47147,31,30,0
308.47147,308.60254,32,30,0
307.8161,308.60254,44,45,0
308.7336,308.8647,32,30,0
308.8647,308.99576,31,30,0
308.99576,309.12683,32,30,0
309.12683,309.2579,31,30,0
309.2579,309.38898,32,30,0
308.60254,309.38898,44,45,0
309.52005,309.65112,32,30,0
309.65112,309.7822,31,30,0
309.7822,309.91327,32,30,0
309.91327,310.04434,31,30,0
310.04434,310.1754,32,30,0
309.38898,310.1754,44,45,0
310.3065,310.43756,32,30,0
310.43756,310.56863,31,30,0
310.56863,310.70084,32,30,0
310.70084,310.83304,31,30,0
310.83304,310.96185,32,30,0
310.1754,310.96185,44,45,0
311.08954,311.2172,32,31,0
311.2172,311.34485,31,31,0
311.34485,311.4765,32,31,0
311.4765,311.61108,31,30,0
311.61108,311.7427,32,30,0
310.96185,311.7427,44,45,0
311.87436,312.00598,32,30,0
312.00598,312.1376,31,30,0
312.1376,312.26926,32,30,0
312.26926,312.40088,31,30,0
312.40088,312.53253,32,30,0
311.7427,312.53253,44,46,0
312.66193,312.78958,32,30,0
312.78958,312.91724,31,30,0
312.91724,313.0495,32,30,0
313.0495,313.18466,31,30,0
313.18466,313.31686,32,30,0
312.53253,313.31686,44,45,0
313.44907,313.58127,32,30,0
313.58127,313.71347,31,30,0
313.71347,313.84567,32,30,0
313.84567,313.9779,31,30,0
313.9779,314.10895,32,30,0
313.31686,314.10895,44,45,0
314.23773,314.36652,32,31,0
314.36652,314.49527,31,31,0
314.49527,314.62695,32,31,0
314.62695,314.758,31,30,0
314.758,314.88907,32,30,0
314.10895,314.88907,44,45,0
315.02014,315.15118,32,30,0
315.15118,315.28226,31,30,0
315.28226,315.4133,32,30,0
315.4133,315.54907,31,30,0
315.54907,315.6813,32,30,0
314.88907,315.6813,44,44,0
315.81528,315.94925,32,30,0
315.94925,316.10544,31,30,0
316.10544,316.23764,32,33,0
316.23764,316.36984,31,33,0
316.36984,316.49866,32,33,0
315.6813,316.49866,44,44,0
316.6258,316.7529,43,34,0
316.49866,316.7529,44,50,0
316.7529,316.88455,44,34,0
316.88455,317.0162,51,34,0
317.0162,317.15076,53,33,0
317.15076,317.2824,49,33,0
317.2824,317.41403,44,52,0
317.41403,317.5457,43,33,0
317.5457,317.6773,44,34,0
317.6773,317.80896,32,34,0
317.80896,317.94058,31,34,0
317.94058,318.06937,32,35,0
318.06937,318.19647,44,53,0
318.19647,318.32413,43,35,0
318.32413,318.4564,44,36,0
318.4564,318.58865,51,36,0
318.58865,318.72382,53,36,0
318.72382,318.85602,49,36,0
318.85602,318.98822,44,55,0
318.98822,319.12042,43,36,0
319.12042,319.25262,44,36,0
319.25262,319.38483,32,36,0
319.38483,319.51703,31,36,0
319.51703,319.6481,32,36,0
319.6481,319.77576,44,55,0
319.77576,319.9034,43,36,0
319.9034,320.03568,44,36,0
320.03568,320.16974,49,36,0
320.16974,320.3008,48,36,0
320.3008,320.4319,46,36,0
320.4319,320.56293,44,53,0
320.56293,320.694,43,36,0
320.694,320.82504,44,36,0
320.82504,320.95612,32,36,0
320.95612,321.0919,31,36,0
321.0919,321.22122,32,36,0
321.22122,321.3506,44,53,0
321.3506,321.47992,43,36,0
321.47992,321.63525,44,36,0
321.63525,321.76422,32,54,0
321.76422,321.89316,44,51,0
321.89316,322.01883,44,51,0
322.01883,322.1478,59,55,0
322.01883,322.1478,54,49,0
322.01883,322.1478,50,49,0
322.1478,322.27673,44,52,0
322.27673,322.4057,44,52,0
322.4057,322.53464,32,57,0
322.53464,322.6659,44,53,0
322.6659,322.7943,50,53,0
322.7943,322.9227,54,59,0
322.7943,322.9227,59,59,0
322.7943,322.9227,62,59,0
322.9227,323.05112,50,51,0
323.05112,323.1795,44,51,0
323.1795,323.30792,32,54,0
323.30792,323.4363,44,51,0
323.4363,323.56473,44,51,0
323.56473,323.69095,54,49,0
323.56473,323.69095,59,55,0
323.56473,323.69095,50,49,0
323.69095,323.82047,44,52,0
323.82047,323.94998,44,52,0
323.93918,324.0687,32,54,0
324.0687,324.20035,44,51,0
324.21133,324.3403,44,51,0
324.3403,324.46927,59,55,0
324.3403,324.46927,54,55,0
324.3403,324.46927,50,55,0
324.46927,324.5982,44,52,0
324.72717,324.98508,32,52,0
324.5982,324.98508,44,52,0
324.98508,325.1129,36,60,0
324.98508,325.1129,48,71,0
325.1129,325.2118,46,79,0
325.1129,325.2118,34,65,0
325.24475,325.34363,48,73,0
325.24475,325.34363,36,62,0
325.3766,325.4755,44,73,0
325.3766,325.4755,32,62,0
325.77213,325.90054,51,66,0
325.77213,325.90054,39,56,0
325.90054,326.15735,51,71,0
325.90054,326.15735,39,61,0
326.15735,326.28574,53,69,0
326.15735,326.28574,41,57,0
326.28574,326.38205,51,79,0
326.28574,326.38205,39,65,0
326.41415,326.51044,49,66,0
326.41415,326.51044,37,56,0
326.54254,326.63885,48,69,0
326.54254,326.63885,36,56,0
326.67096,326.76562,46,76,0
326.67096,326.76562,34,56,0
326.79715,326.89432,48,73,0
326.79715,326.89432,36,56,0
326.9267,327.03116,44,74,0
326.9267,327.03116,32,62,0
327.4558,327.55414,57,76,0
327.4558,327.55414,45,56,0
327.58688,327.6852,59,73,0
327.58688,327.6852,47,56,0
327.71796,327.83148,56,74,0
327.71796,327.83148,44,62,0
327.4558,327.86932,54,65,0
327.86932,327.99826,32,65,0
327.99826,328.12723,44,62,0
328.25287,328.5108,59,66,0
328.12723,328.5108,50,63,0
328.25287,328.5108,66,66,0
328.25287,328.5108,54,66,0
328.5108,328.6475,50,62,0
328.5108,328.6475,62,62,0
328.6475,328.77646,61,78,0
328.6475,328.77646,49,70,0
328.77646,328.9077,62,71,0
328.77646,328.9077,50,63,0
328.9077,329.0361,59,71,0
328.9077,329.0361,47,63,0
328.6475,329.0361,54,70,0
329.0361,329.16452,50,70,0
329.0361,329.16452,54,70,0
329.0361,329.16452,59,70,0
329.16452,329.2929,44,62,0
329.2929,329.42133,44,62,0
329.42133,329.5497,32,65,0
329.5497,329.67813,44,62,0
329.80652,330.06226,59,66,0
329.67813,330.06226,50,62,0
329.80652,330.06226,66,66,0
329.80652,330.06226,54,66,0
330.06226,330.2009,50,62,0
330.06226,330.2009,62,62,0
330.2009,330.29803,61,78,0
330.2009,330.29803,49,70,0
330.33044,330.42932,62,71,0
330.33044,330.42932,50,63,0
330.46228,330.559,59,71,0
330.46228,330.559,47,63,0
330.2009,330.59122,54,70,0
330.59122,330.72018,50,70,0
330.59122,330.72018,54,70,0
330.59122,330.72018,59,70,0
330.72018,330.84915,44,62,0
330.9781,331.10706,32,71,0
330.84915,331.10706,44,62,0
331.10706,331.236,51,69,0
331.10706,331.236,39,69,0
331.236,331.36496,53,69,0
331.236,331.36496,41,69,0
331.36496,331.62286,54,76,0
331.36496,331.62286,42,76,0
331.62286,331.75897,60,71,0
331.62286,331.75897,48,71,0
331.75897,331.85568,58,72,0
331.75897,331.85568,46,72,0
331.8879,331.98462,60,66,0
331.8879,331.98462,48,66,0
331.75897,332.01688,54,69,0
331.75897,332.01688,51,69,0
332.01688,332.1136,56,66,0
332.01688,332.1136,44,66,0
332.1458,332.40372,63,79,0
332.1458,332.40372,51,79,0
332.40372,332.5305,65,73,0
332.40372,332.5305,53,73,0
332.5305,332.62552,63,80,0
332.5305,332.62552,51,80,0
332.65723,332.75394,61,74,0
332.65723,332.75394,49,74,0
332.78616,332.88287,60,74,0
332.78616,332.88287,48,74,0
332.91513,333.01184,58,80,0
332.91513,333.01184,51,80,0
332.91513,333.01184,54,80,0
332.91513,333.01184,46,80,0
333.04407,333.1408,60,72,0
333.04407,333.1408,48,72,0
333.17303,333.27728,56,72,0
333.17303,333.27728,44,72,0
333.31204,333.41434,58,71,0
333.44843,333.55072,60,65,0
333.5848,333.68707,56,65,0
333.7212,333.82806,45,66,0
333.7212,333.82806,33,66,0
333.8637,333.9706,47,61,0
333.8637,333.9706,35,61,0
334.00626,334.11313,44,62,0
334.00626,334.11313,32,62,0
333.7212,334.14667,54,75,0
334.39972,334.49255,61,53,0
334.64493,334.7358,58,53,0
334.8891,334.98422,61,53,0
335.13528,335.22733,61,55,0
335.3807,335.47272,61,47,0
334.14667,335.64072,44,59,0
334.14667,335.64072,37,49,0
335.88904,335.98053,56,53,0
336.1312,336.22083,60,53,0
336.37137,336.4626,57,53,0
336.6159,336.70898,60,62,0
336.86395,336.9561,60,52,0
335.64072,337.14133,44,59,0
335.64072,337.14133,37,49,0
337.3855,337.476,61,59,0
337.62567,337.7151,58,57,0
337.86646,337.9639,61,59,0
338.12363,338.21567,61,62,0
338.36285,338.45026,61,53,0
337.14133,338.6339,44,63,0
337.14133,338.6339,37,53,0
338.88013,338.97137,56,59,0
339.12228,339.21228,60,57,0
339.36404,339.45605,57,59,0
339.6113,339.7062,60,61,0
339.86105,339.95343,60,56,0
338.6339,340.1303,44,63,0
338.6339,340.1303,37,53,0
340.37015,340.45947,66,66,0
340.60812,340.69705,63,66,0
340.84692,340.94437,66,67,0
341.0938,341.18585,66,70,0
341.33636,341.42624,66,62,0
340.1303,341.59064,56,62,0
340.1303,341.59064,49,62,0
340.1303,341.59064,59,73,0
341.83246,341.92194,61,66,0
342.06964,342.1575,65,65,0
342.30484,342.39413,62,66,0
342.54413,342.63705,65,74,0
342.7912,342.88107,65,64,0
341.59064,343.0529,49,62,0
341.59064,343.0529,54,62,0
341.59064,343.0529,58,73,0
343.2949,343.38443,68,73,0
343.53223,343.62054,65,73,0
343.7696,343.867,68,74,0
344.02048,344.11252,68,77,0
344.2659,344.35794,68,66,0
343.0529,344.52304,52,67,0
343.0529,344.52304,49,67,0
343.0529,344.52304,58,81,0
344.76624,344.85587,64,79,0
345.00348,345.09106,67,73,0
345.2387,345.32855,64,81,0
345.4813,345.57712,67,81,0
345.73682,345.83264,68,75,0
344.52304,345.99792,49,71,0
344.52304,345.99792,53,71,0
344.52304,345.99792,58,84,0
346.23663,346.32495,76,69,0
346.23663,346.32495,67,60,0
346.23663,346.32495,70,60,0
346.4709,346.55768,73,67,0
346.4709,346.55768,67,60,0
346.4709,346.55768,70,60,0
346.70465,346.8008,76,69,0
346.70465,346.8008,67,60,0
346.70465,346.8008,70,60,0
346.952,347.04404,76,71,0
346.952,347.04404,67,60,0
346.952,347.04404,70,60,0
347.19742,347.28946,76,62,0
347.19742,347.28946,67,60,0
347.19742,347.28946,70,60,0
345.99792,347.44946,58,70,0
345.99792,347.44946,49,70,0
345.99792,347.44946,55,70,0
345.99792,347.44946,63,84,0
347.68866,347.77725,72,69,0
347.68866,347.77725,66,60,0
347.68866,347.77725,70,60,0
347.9237,348.01083,75,67,0
347.9237,348.01083,66,57,0
347.9237,348.01083,70,57,0
348.1559,348.24295,72,69,0
348.1559,348.24295,66,60,0
348.1559,348.24295,70,60,0
348.388,348.4768,75,73,0
348.388,348.4768,66,66,0
348.388,348.4768,70,66,0
348.62958,348.72174,75,66,0
348.62958,348.72174,66,55,0
348.62958,348.72174,70,55,0
347.44946,348.8859,58,70,0
347.44946,348.8859,49,70,0
347.44946,348.8859,54,70,0
347.44946,348.8859,64,84,0
349.1246,349.21283,76,69,0
349.1246,349.21283,67,60,0
349.1246,349.21283,70,60,0
349.35858,349.44595,73,67,0
349.35858,349.44595,67,60,0
349.35858,349.44595,70,60,0
349.59393,349.6901,76,69,0
349.59393,349.6901,67,60,0
349.59393,349.6901,70,60,0
349.84128,349.93332,76,71,0
349.84128,349.93332,67,60,0
349.84128,349.93332,70,60,0
350.0867,350.17874,76,62,0
350.0867,350.17874,67,60,0
350.0867,350.17874,70,60,0
348.8859,350.33875,58,70,0
348.8859,350.33875,49,70,0
348.8859,350.33875,55,70,0
348.8859,350.33875,63,84,0
350.5786,350.66736,72,69,0
350.5786,350.66736,66,60,0
350.5786,350.66736,70,60,0
350.8139,350.901,75,67,0
350.8139,350.901,66,57,0
350.8139,350.901,70,57,0
351.04608,351.13312,72,69,0
351.04608,351.13312,66,60,0
351.04608,351.13312,70,60,0
351.2782,351.36697,75,73,0
351.2782,351.36697,66,66,0
351.2782,351.36697,70,66,0
351.51978,351.6119,75,66,0
351.51978,351.6119,66,55,0
351.51978,351.6119,70,55,0
350.33875,351.79715,58,70,0
350.33875,351.79715,49,70,0
350.33875,351.79715,54,70,0
350.33875,351.79715,64,84,0
352.0316,352.11804,84,68,0
352.0316,352.11804,75,58,0
352.0316,352.11804,78,58,0
352.2606,352.34595,82,67,0
352.2606,352.34595,75,58,0
352.2606,352.34595,78,58,0
352.49097,352.58713,84,68,0
352.49097,352.58713,75,58,0
352.49097,352.58713,78,58,0
352.73834,352.83035,84,70,0
352.73834,352.83035,75,58,0
352.73834,352.83035,78,58,0
352.98373,353.07578,84,59,0
352.98373,353.07578,75,58,0
352.98373,353.07578,78,58,0
351.79715,353.2358,57,73,0
351.79715,353.2358,47,73,0
351.79715,353.2358,54,73,0
351.79715,353.2358,63,89,0
353.2358,353.33105,65,89,0
353.2358,353.33105,45,80,0
353.2358,353.33105,53,80,0
353.2358,353.33105,57,80,0
353.61984,353.71066,80,95,0
353.61984,353.71066,83,95,0
353.862,353.9528,76,75,0
353.862,353.9528,80,75,0
354.10416,354.19495,74,70,0
354.10416,354.19495,71,70,0
354.34763,354.4372,71,66,0
354.34763,354.4372,68,60,0
354.70584,354.93814,63,89,0
354.94107,355.02814,72,64,0
354.94107,355.02814,63,55,0
354.94107,355.02814,66,55,0
355.17188,355.25757,70,63,0
355.17188,355.25757,63,55,0
355.17188,355.25757,66,55,0
355.40308,355.49924,72,64,0
355.40308,355.49924,63,55,0
355.40308,355.49924,66,55,0
355.65042,355.74246,72,65,0
355.65042,355.74246,63,55,0
355.65042,355.74246,66,55,0
355.89584,355.98788,72,57,0
355.89584,355.98788,63,55,0
355.89584,355.98788,66,55,0
354.70584,356.15262,54,73,0
354.70584,356.15262,57,73,0
354.70584,356.15262,47,73,0
356.15262,356.2479,65,89,0
356.15262,356.2479,45,80,0
356.15262,356.2479,53,80,0
356.15262,356.2479,57,80,0
356.53665,356.62747,68,84,0
356.53665,356.62747,71,84,0
356.7788,356.86963,64,66,0
356.7788,356.86963,68,66,0
357.02097,357.1118,62,62,0
357.02097,357.1118,59,62,0
357.26447,357.354,59,60,0
357.26447,357.354,56,53,0
357.62268,357.71243,63,89,0
357.62268,357.71243,47,73,0
357.62268,357.71243,54,73,0
357.62268,357.71243,57,73,0
357.8605,357.9484,60,57,0
357.8605,357.9484,54,49,0
357.8605,357.9484,51,49,0
358.0937,358.18073,58,57,0
358.0937,358.18073,54,49,0
358.0937,358.18073,51,49,0
358.3282,358.42438,60,57,0
358.3282,358.42438,54,49,0
358.3282,358.42438,51,49,0
358.57556,358.66757,60,59,0
358.57556,358.66757,54,49,0
358.57556,358.66757,51,49,0
358.82098,358.913,60,51,0
358.82098,358.913,54,49,0
358.82098,358.913,51,49,0
359.0721,359.16544,57,62,0
359.3206,359.41336,57,63,0
359.3206,359.41336,56,57,0
359.5674,359.65955,55,60,0
359.5674,359.65955,57,65,0
359.8125,359.90387,57,69,0
359.8125,359.90387,54,62,0
360.05585,360.1467,57,71,0
360.05585,360.1467,54,63,0
360.05585,360.1467,53,63,0
360.29758,360.38782,57,73,0
360.29758,360.38782,54,65,0
360.29758,360.38782,52,65,0
360.53766,360.62717,57,74,0
360.53766,360.62717,54,66,0
360.53766,360.62717,51,66,0
360.77637,360.86588,57,73,0
360.77637,360.86588,54,65,0
360.77637,360.86588,52,65,0
361.01508,361.10458,57,72,0
361.01508,361.10458,54,64,0
361.01508,361.10458,51,64,0
361.25375,361.3433,57,71,0
361.25375,361.3433,54,63,0
361.25375,361.3433,50,63,0
361.49197,361.58093,57,70,0
361.49197,361.58093,54,62,0
361.49197,361.58093,49,62,0
361.7287,361.8171,57,67,0
361.7287,361.8171,54,61,0
361.7287,361.8171,48,61,0
361.96396,362.05313,57,66,0
361.96396,362.05313,47,61,0
361.96396,362.05313,51,61,0
361.96396,362.05313,54,61,0
362.2017,362.29086,57,67,0
362.2017,362.29086,47,61,0
362.2017,362.29086,51,61,0
362.2017,362.29086,54,61,0
362.43945,362.5286,57,70,0
362.43945,362.5286,47,63,0
362.43945,362.5286,51,63,0
362.43945,362.5286,54,63,0
362.67703,362.76678,57,75,0
362.67703,362.76678,47,66,0
362.67703,362.76678,51,66,0
362.67703,362.76678,54,66,0
362.91794,363.00955,57,76,0
362.91794,363.00955,47,67,0
362.91794,363.00955,51,67,0
362.91794,363.00955,54,67,0
363.164,363.26117,57,82,0
363.164,363.26117,47,74,0
363.164,363.26117,51,74,0
363.164,363.26117,54,74,0
363.4371,363.53055,58,87,0
363.4371,363.53055,48,70,0
363.4371,363.53055,51,77,0
363.4371,363.53055,54,77,0
363.8137,363.9026,44,86,0
363.8137,363.9026,32,77,0
363.9322,364.0209,65,79,0
363.9322,364.0209,69,79,0
364.16797,364.2571,65,74,0
364.16797,364.2571,62,67,0
364.4057,364.49573,69,70,0
364.4057,364.49573,65,62,0
364.87704,364.9693,56,82,0
364.87704,364.9693,53,73,0
364.87704,364.9693,49,65,0
365.24902,365.3356,44,86,0
365.24902,365.3356,32,77,0
365.36453,365.45148,61,69,0
365.36453,365.45148,65,75,0
365.59705,365.68604,68,72,0
365.59705,365.68604,65,64,0
365.9589,366.3686,65,81,0
365.9589,366.3686,61,73,0
366.3686,366.462,63,87,0
366.3686,366.462,58,79,0
366.3686,366.462,54,79,0
366.49313,366.58655,54,70,0
366.74515,366.83408,32,70,0
366.61768,366.86365,44,89,0
366.86365,366.95236,69,79,0
366.86365,366.95236,72,79,0
367.09943,367.18823,69,74,0
367.09943,367.18823,65,67,0
367.3362,367.42624,72,70,0
367.3362,367.42624,69,62,0
367.45624,367.54407,70,79,0
367.45624,367.54407,73,87,0
367.80753,367.8998,65,82,0
367.80753,367.8998,61,73,0
367.80753,367.8998,56,65,0
367.93054,368.0228,53,70,0
368.17798,368.2654,32,70,0
368.05356,368.29462,44,89,0
368.29462,368.3824,61,77,0
368.29462,368.3824,65,84,0
368.52933,368.61835,68,81,0
368.52933,368.61835,65,72,0
368.8912,369.3028,65,77,0
368.8912,369.3028,61,69,0
369.3028,369.49567,58,71,0
369.3028,369.49567,63,71,0
369.3028,369.49567,66,79,0
369.49567,369.6869,49,71,0
369.6869,369.87994,58,71,0
369.6869,369.87994,63,71,0
369.6869,369.87994,66,79,0
369.87994,370.09012,37,69,0
370.09012,370.28397,66,84,0
370.09012,370.28397,63,75,0
370.09012,370.28397,56,75,0
370.28397,370.4731,49,61,0
370.4731,370.6616,66,72,0
370.4731,370.6616,63,63,0
370.4731,370.6616,56,63,0
370.6616,370.85117,37,63,0
370.85117,371.0462,56,57,0
370.85117,371.0462,61,57,0
370.85117,371.0462,65,64,0
371.0462,371.24127,49,54,0
371.24127,371.43,57,50,0
371.24127,371.43,63,50,0
371.24127,371.43,66,55,0
371.43,371.6187,37,44,0
371.6187,371.81796,58,45,0
371.6187,371.81796,61,45,0
371.6187,371.81796,65,52,0
372.02194,372.46118,56,51,0
371.81796,372.46118,49,45,0
372.02194,372.46118,62,57,0
372.02194,372.46118,59,57,0
372.46118,372.65518,54,71,0
372.46118,372.65518,58,71,0
372.46118,372.65518,63,79,0
372.65518,372.8464,49,71,0
372.8464,373.04004,54,71,0
372.8464,373.04004,58,71,0
372.8464,373.04004,63,79,0
373.04004,373.24747,37,69,0
373.24747,373.4417,64,75,0
373.24747,373.4417,58,67,0
373.24747,373.4417,55,67,0
373.4417,373.63217,49,64,0
373.63217,373.822,64,72,0
373.63217,373.822,58,63,0
373.63217,373.822,55,63,0
373.822,374.01355,37,63,0
374.01355,374.20862,56,57,0
374.01355,374.20862,59,57,0
374.01355,374.20862,64,64,0
374.20862,374.4037,35,54,0
374.4037,374.5924,57,50,0
374.4037,374.5924,59,50,0
374.4037,374.5924,63,55,0
374.5924,374.78113,47,44,0
374.78113,374.98038,56,45,0
374.78113,374.98038,59,45,0
374.78113,374.98038,64,52,0
374.98038,375.18433,49,45,0
375.18433,375.61887,59,51,0
375.18433,375.61887,64,51,0
375.18433,375.61887,71,57,0
375.18433,375.61887,68,57,0
375.61887,375.7141,57,81,0
375.61887,375.7141,52,81,0
375.61887,375.7141,47,72,0
376.0029,376.09357,81,84,0
376.0029,376.09357,85,94,0
376.36227,376.45087,65,63,0
376.36227,376.45087,68,72,0
376.59848,376.6903,68,53,0
376.59848,376.6903,72,62,0
377.07913,377.17322,56,69,0
377.07913,377.17322,52,69,0
377.07913,377.17322,47,62,0
377.4585,377.54675,83,94,0
377.4585,377.54675,80,84,0
377.8134,377.90414,71,66,0
377.8134,377.90414,68,61,0
378.1824,378.5945,68,75,0
378.1824,378.5945,64,66,0
378.5945,378.6898,69,54,0
378.5945,378.6898,64,54,0
378.5945,378.6898,59,47,0
378.97855,379.0692,97,54,0
378.97855,379.0692,93,47,0
379.33795,379.4265,77,40,0
379.33795,379.4265,80,44,0
379.57416,379.66595,80,33,0
379.57416,379.66595,84,36,0
380.05478,380.14886,68,43,0
380.05478,380.14886,64,36,0
380.05478,380.14886,59,36,0
380.43414,380.52243,95,62,0
380.43414,380.52243,92,53,0
380.78903,380.8798,83,42,0
380.78903,380.8798,80,36,0
381.15805,381.52277,80,45,0
381.15805,381.52277,76,41,0
381.5957,381.7886,57,71,0
381.5957,381.7886,61,71,0
381.5957,381.7886,66,79,0
381.7886,381.97983,52,71,0
381.97983,382.17288,57,71,0
381.97983,382.17288,61,71,0
381.97983,382.17288,66,79,0
382.17288,382.38306,40,69,0
382.38306,382.57687,66,80,0
382.38306,382.57687,59,71,0
382.38306,382.57687,56,71,0
382.57687,382.76602,52,61,0
382.76602,382.9545,66,72,0
382.76602,382.9545,59,63,0
382.76602,382.9545,56,63,0
382.9545,383.14407,40,63,0
383.14407,383.33914,59,57,0
383.14407,383.33914,64,57,0
383.14407,383.33914,68,64,0
383.33914,383.53418,52,54,0
383.53418,383.72293,60,50,0
383.53418,383.72293,66,50,0
383.53418,383.72293,69,55,0
383.72293,383.91165,40,44,0
383.91165,384.11087,61,45,0
383.91165,384.11087,64,45,0
383.91165,384.11087,68,52,0
384.31485,384.76175,59,51,0
384.11087,384.76175,52,45,0
384.31485,384.76175,65,57,0
384.31485,384.76175,62,57,0
384.76175,384.95462,57,71,0
384.76175,384.95462,61,71,0
384.76175,384.95462,66,79,0
384.95462,385.14584,52,71,0
385.14584,385.3389,57,71,0
385.14584,385.3389,61,71,0
385.14584,385.3389,66,79,0
385.3389,385.54907,40,69,0
385.54907,385.74292,69,75,0
385.54907,385.74292,63,66,0
385.54907,385.74292,59,66,0
385.74292,385.93207,52,61,0
385.93207,386.1205,69,72,0
385.93207,386.1205,63,63,0
385.93207,386.1205,59,63,0
386.1205,386.3101,40,63,0
386.3101,386.50516,59,57,0
386.3101,386.50516,64,57,0
386.3101,386.50516,68,64,0
386.50516,386.70023,52,54,0
386.70023,386.88895,60,50,0
386.70023,386.88895,66,50,0
386.70023,386.88895,69,55,0
386.88895,387.07767,40,44,0
387.07767,387.27692,61,45,0
387.07767,387.27692,64,45,0
387.07767,387.27692,68,52,0
387.27692,387.4809,52,45,0
387.4809,387.92014,65,45,0
387.4809,387.92014,62,45,0
387.4809,387.92014,74,51,0
387.4809,387.92014,71,51,0
387.92014,388.02438,37,41,0
388.05524,388.14725,45,36,0
388.17783,388.26907,37,41,0
388.2994,388.39,45,36,0
388.42023,388.51086,37,43,0
388.54108,388.63724,45,40,0
388.66928,388.75992,37,45,0
388.7901,388.88074,44,41,0
388.91095,389.00156,49,41,0
389.03177,389.12146,56,44,0
389.1516,389.24268,49,41,0
389.2732,389.3654,44,41,0
389.39624,389.48862,37,41,0
389.51935,389.61118,44,36,0
389.64166,389.7329,37,41,0
389.76324,389.85388,44,36,0
389.8841,389.9747,37,43,0
390.0049,390.10107,44,40,0
390.13315,390.22375,37,45,0
390.25397,390.34457,44,41,0
390.3748,390.46536,49,41,0
390.49545,390.58612,56,44,0
390.61646,390.70807,49,41,0
390.7388,390.83136,44,41,0
390.86243,390.95288,37,41,0
390.98294,391.0729,44,36,0
391.1028,391.19223,37,41,0
391.22195,391.3109,44,36,0
391.34055,391.42947,37,43,0
391.45914,391.554,44,40,0
391.5856,391.67453,37,45,0
391.70416,391.79312,44,41,0
391.82275,391.9117,49,41,0
391.94135,392.02982,56,44,0
392.05942,392.1485,49,41,0
392.17828,392.272,44,41,0
392.30246,392.3914,37,45,0
392.42105,392.50998,44,41,0
392.53964,392.62857,49,41,0
392.65823,392.7467,56,44,0
392.7763,392.86536,49,41,0
392.89517,392.9863,44,41,0
393.0178,393.10675,37,45,0
393.13638,393.22534,44,41,0
393.25497,393.3439,49,41,0
393.37357,393.46204,56,44,0
393.49164,393.58072,49,41,0
393.6105,393.70023,44,41,0
393.73026,393.81906,37,43,0
393.84854,393.93683,49,37,0
394.08313,394.1704,45,39,0
393.9662,394.19952,57,64,0
394.3159,394.409,42,42,0
394.19952,394.44,54,62,0
394.44,394.52728,37,47,0
394.5564,394.64368,49,43,0
394.78915,394.87598,50,45,0
394.67276,394.90503,62,71,0
395.0217,395.10977,54,46,0
394.90503,395.13925,66,66,0
395.13925,395.22803,37,45,0
395.25754,395.34583,49,42,0
395.49213,395.5794,47,43,0
395.37515,395.6085,59,76,0
395.72488,395.81796,44,45,0
395.6085,395.849,56,71,0
395.849,395.93628,37,53,0
395.96536,396.05264,49,46,0
396.19812,396.28497,49,51,0
396.08176,396.31403,61,80,0
396.4307,396.52438,53,47,0
396.31403,396.55447,65,71,0
396.55447,396.64258,57,79,0
396.67194,396.76,61,71,0
396.78937,396.87857,54,71,0
396.55447,396.90842,66,79,0
396.90842,397.26556,49,81,0
396.90842,397.26556,37,81,0
397.26556,397.354,59,81,0
397.38348,397.4719,62,75,0
397.50137,397.59125,54,75,0
397.26556,397.62122,66,81,0
397.62122,397.98117,49,81,0
397.62122,397.98117,37,81,0
397.98117,398.06787,62,81,0
398.09677,398.18347,66,74,0
398.21237,398.30127,56,74,0
397.98117,398.3311,71,81,0
398.3311,398.68823,49,84,0
398.3311,398.68823,37,84,0
398.68823,398.77563,63,89,0
398.80475,398.89215,66,82,0
398.92126,399.01114,56,82,0
398.68823,399.0411,72,89,0
399.0411,399.4555,49,89,0
399.0411,399.4555,37,89,0
399.4555,399.7261,37,82,0
399.4555,399.7261,32,73,0
399.4555,399.7261,25,73,0
399.7261,399.97284,61,90,0
399.97284,400.06818,63,85,0
400.09995,400.19528,65,79,0
399.7261,400.22705,56,82,0
399.7261,400.22705,49,82,0
400.22705,400.47482,61,79,0
400.22705,400.47482,56,69,0
400.22705,400.47482,49,69,0
400.47482,400.7175,49,80,0
400.47482,400.7175,37,70,0
400.7175,401.1949,65,89,0
400.7175,401.1949,61,89,0
400.7175,401.1949,53,80,0
401.1949,401.4469,66,77,0
401.1949,401.4469,54,67,0
401.1949,401.4469,61,77,0
401.4469,401.66656,53,73,0
401.4469,401.66656,61,82,0
401.4469,401.66656,65,82,0
401.66656,401.74857,66,81,0
401.8847,401.9661,64,75,0
402.10126,402.18207,62,73,0
402.33496,402.568,49,86,0
402.33496,402.568,37,77,0
402.568,403.02197,61,79,0
402.568,403.02197,56,79,0
402.568,403.02197,49,70,0
403.02197,403.2569,60,62,0
403.02197,403.2569,49,54,0
403.02197,403.2569,57,62,0
403.2569,403.4752,57,61,0
403.2569,403.4752,60,67,0
403.2569,403.4752,49,61,0
403.4752,403.69348,49,61,0
403.4752,403.69348,37,53,0
403.69348,403.92465,61,52,0
403.69348,403.92465,58,45,0
403.69348,403.92465,49,36,0
403.92465,404.08875,49,53,0
403.92465,404.08875,37,46,0
404.1772,404.4084,65,67,0
404.08875,404.4084,49,57,0
404.11823,404.4084,56,57,0
404.1477,404.4084,61,62,0
404.86182,405.03802,63,63,0
405.03802,405.09674,49,52,0
405.09674,405.21072,63,65,0
405.21072,405.3247,62,59,0
405.3247,405.43866,61,53,0
405.43866,405.5575,60,53,0
405.5575,405.67145,61,56,0
405.67145,405.78543,60,52,0
405.78543,406.24133,58,70,0
406.24133,406.47504,56,59,0
406.24133,406.47504,65,59,0
406.24133,406.47504,68,59,0
406.47504,406.70865,58,59,0
406.47504,406.70865,70,59,0
406.47504,406.70865,67,59,0
406.47504,406.70865,65,59,0
406.70865,406.9523,49,66,0
406.70865,406.9523,37,66,0
406.9523,407.09695,48,71,0
406.9523,407.09695,36,71,0
407.13,407.48907,57,62,0
407.09695,407.48907,48,54,0
407.48907,407.61023,64,71,0
407.73108,407.85162,65,66,0
408.09158,408.21103,62,56,0
408.33017,408.44897,60,53,0
408.68695,408.76724,58,57,0
408.76724,408.84787,48,51,0
408.84787,408.92914,40,50,0
408.92914,409.01056,41,63,0
409.01056,409.092,48,52,0
409.092,409.17343,57,52,0
409.4177,409.53937,76,81,0
409.6607,409.7817,77,76,0
410.0226,410.14252,74,65,0
410.26212,410.38126,72,56,0
410.6189,410.68356,70,56,0
410.68356,410.74826,60,50,0
410.74826,410.82016,52,50,0
410.84174,411.18283,69,53,0
410.82016,411.18283,60,52,0
410.79855,411.18283,53,49,0
411.30832,411.4322,79,69,0
411.30832,411.4322,67,62,0
411.55405,411.6752,77,69,0
411.55405,411.6752,65,62,0
411.79587,411.9162,74,69,0
411.79587,411.9162,62,62,0
412.036,412.15536,72,69,0
412.036,412.15536,60,62,0
412.2744,412.3925,57,61,0
412.2744,412.3925,69,67,0
412.50916,412.6252,55,61,0
412.50916,412.6252,67,67,0
412.74127,412.85733,53,61,0
412.74127,412.85733,65,67,0
412.9729,413.0885,62,66,0
412.9729,413.0885,50,60,0
413.20395,413.3191,60,65,0
413.20395,413.3191,48,59,0
413.43423,413.54907,57,64,0
413.43423,413.54907,45,57,0
413.66376,413.77844,55,64,0
413.66376,413.77844,43,57,0
413.89682,413.95847,53,71,0
413.89682,413.95847,41,63,0
414.6607,414.9217,37,75,0
414.6607,414.9217,25,67,0
414.9217,415.17593,65,88,0
414.9217,415.17593,56,79,0
414.9217,415.17593,53,79,0
414.9217,415.17593,61,79,0
415.17593,415.27332,63,81,0
415.17593,415.27332,51,72,0
415.3058,415.4032,65,75,0
415.3058,415.4032,53,67,0
415.43567,415.68777,61,75,0
415.43567,415.68777,49,59,0
415.68777,415.93265,49,77,0
415.68777,415.93265,37,68,0
415.93265,416.41656,68,81,0
415.93265,416.41656,61,74,0
415.93265,416.41656,56,74,0
415.93265,416.41656,65,81,0
416.41656,416.6648,70,69,0
416.41656,416.6648,61,62,0
416.41656,416.6648,65,69,0
416.41656,416.6648,58,62,0
416.6648,416.78546,56,59,0
416.6648,416.78546,61,59,0
416.6648,416.78546,65,59,0
416.6648,416.78546,68,68,0
416.78546,416.90515,67,68,0
416.78546,416.90515,55,59,0
416.90515,417.02383,66,68,0
416.90515,417.02383,54,59,0
417.02383,417.14166,65,67,0
417.02383,417.14166,53,59,0
417.14166,417.25946,64,66,0
417.14166,417.25946,52,58,0
417.25946,417.3765,63,64,0
417.25946,417.3765,51,58,0
417.3765,417.49265,62,62,0
417.3765,417.49265,50,57,0
417.49265,417.6079,61,61,0
417.49265,417.6079,49,57,0
417.6079,417.84662,49,88,0
417.6079,417.84662,37,88,0
417.84662,418.31354,68,86,0
417.84662,418.31354,61,78,0
417.84662,418.31354,56,78,0
417.84662,418.31354,65,86,0
418.31354,418.56177,66,80,0
418.31354,418.56177,60,71,0
418.31354,418.56177,63,80,0
418.31354,418.56177,57,71,0
418.56177,418.7979,57,67,0
418.56177,418.7979,66,75,0
418.56177,418.7979,63,67,0
418.7979,419.0319,49,62,0
418.7979,419.0319,37,57,0
419.0319,419.26898,65,69,0
419.0319,419.26898,61,69,0
419.0319,419.26898,58,69,0
419.26898,419.50388,49,59,0
419.26898,419.50388,37,53,0
419.50388,419.7369,41,86,0
419.50388,419.7369,29,86,0
419.7369,420.20297,65,82,0
419.7369,420.20297,56,73,0
419.7369,420.20297,53,73,0
419.7369,420.20297,61,82,0
420.20297,420.4512,63,69,0
420.20297,420.4512,54,61,0
420.20297,420.4512,60,69,0
420.20297,420.4512,51,61,0
420.4512,420.56818,63,69,0
420.4512,420.56818,60,60,0
420.4512,420.56818,54,60,0
420.4512,420.56818,51,60,0
420.56818,420.68484,62,62,0
420.56818,420.68484,50,57,0
420.68484,420.8012,61,62,0
420.68484,420.8012,49,57,0
420.8012,420.9171,60,62,0
420.8012,420.9171,48,57,0
420.9171,421.03455,61,69,0
420.9171,421.03455,49,60,0
421.03455,421.15167,60,66,0
421.03455,421.15167,48,59,0
421.15167,421.3852,58,67,0
421.15167,421.3852,46,59,0
421.3852,421.50308,46,59,0
421.3852,421.50308,34,59,0
421.50308,421.621,48,60,0
421.50308,421.621,36,60,0
421.621,421.73892,49,64,0
421.621,421.73892,37,64,0
421.73892,421.85684,53,68,0
421.73892,421.85684,41,68,0
421.85684,421.97766,55,69,0
421.85684,421.97766,43,69,0
421.97766,422.0985,52,69,0
421.97766,422.0985,40,69,0
422.0985,422.21933,51,68,0
422.0985,422.21933,39,68,0
422.21933,422.34018,49,67,0
422.21933,422.34018,37,67,0
422.34018,422.4947,47,67,0
422.34018,422.4947,35,67,0
422.52853,422.89288,56,63,0
422.4947,422.89288,47,62,0
422.89288,423.01407,63,71,0
423.13492,423.25546,64,66,0
423.49542,423.61487,61,56,0
423.734,423.8528,59,53,0
424.0908,424.17108,57,57,0
424.17108,424.2517,47,51,0
424.2517,424.33298,39,50,0
424.33298,424.4144,40,63,0
424.4144,424.49582,47,52,0
424.49582,424.57724,56,52,0
424.82153,424.94318,75,81,0
425.0645,425.18555,76,76,0
425.42645,425.54636,73,65,0
425.66595,425.7851,71,56,0
425.9631,426.02274,70,62,0
426.02274,426.0827,64,64,0
426.0827,426.1428,61,66,0
426.1428,426.20316,55,70,0
426.26364,426.39133,32,70,0
426.39133,426.51898,41,63,0
426.7635,426.8853,48,85,0
427.007,427.1283,49,79,0
427.37674,427.49707,46,62,0
427.61725,427.7371,44,58,0
427.9761,428.09625,42,58,0
428.09625,428.21704,30,51,0
428.21704,428.3447,29,70,0
428.3447,428.47235,46,63,0
428.71686,428.8387,57,85,0
428.96036,429.0817,58,79,0
429.33014,429.45047,55,62,0
429.57062,429.69046,53,58,0
429.92947,430.04965,49,58,0
430.04965,430.17044,33,51,0
430.17044,430.2981,32,70,0
430.2981,430.42575,49,63,0
430.67026,430.79208,60,85,0
430.91376,431.0351,61,79,0
431.2835,431.40384,58,62,0
431.52402,431.64386,56,58,0
431.88287,432.00305,54,58,0
432.00305,432.12387,42,51,0
432.12387,432.25153,41,73,0
432.25153,432.37915,58,67,0
432.62366,432.74548,69,89,0
432.86716,432.98853,70,84,0
433.2369,433.35724,67,66,0
433.4774,433.59723,65,60,0
433.83624,433.95642,61,60,0
433.83624,433.95642,52,58,0
433.95642,434.0772,45,52,0
434.0772,434.2016,44,73,0
434.0772,434.2016,49,81,0
434.2016,434.32602,61,75,0
434.5705,434.69235,72,94,0
434.814,434.9354,73,87,0
435.06244,435.18375,60,67,0
435.06244,435.18375,44,59,0
435.06244,435.18375,51,59,0
435.06244,435.18375,54,59,0
435.18375,435.30408,58,59,0
435.18375,435.30408,70,59,0
435.4244,435.5504,56,57,0
435.4244,435.5504,68,57,0
435.67075,435.79108,61,59,0
435.67075,435.79108,73,59,0
435.9114,436.03583,59,57,0
435.9114,436.03583,71,57,0
436.15613,436.27646,63,59,0
436.15613,436.27646,75,59,0
436.3968,436.5212,61,58,0
436.3968,436.5212,73,58,0
436.64154,436.76187,63,61,0
436.64154,436.76187,75,61,0
436.8822,437.00766,62,59,0
436.8822,437.00766,74,59,0
437.00766,437.128,73,70,0
437.00766,437.128,56,61,0
437.00766,437.128,63,61,0
437.00766,437.128,66,61,0
437.128,437.24832,80,67,0
437.49304,437.61288,72,71,0
437.49304,437.61288,56,63,0
437.49304,437.61288,63,63,0
437.49304,437.61288,66,63,0
437.61288,437.73273,82,67,0
437.98474,438.24118,70,70,0
437.98474,438.24118,65,70,0
437.99222,438.248,58,70,0
438.47513,438.56287,54,55,0
438.47513,438.56287,49,55,0
438.5921,438.67944,54,55,0
438.5921,438.67944,49,55,0
438.9395,439.0255,57,65,0
438.9395,439.0255,49,65,0
439.0542,439.1402,57,61,0
439.0542,439.1402,49,61,0
439.39825,439.48428,56,63,0
439.39825,439.48428,49,63,0
439.51294,439.59897,56,61,0
439.51294,439.59897,49,61,0
439.857,439.94302,54,63,0
439.857,439.94302,47,63,0
440.20108,440.28708,52,61,0
440.20108,440.28708,47,61,0
440.31577,440.40176,57,63,0
440.31577,440.40176,47,63,0
440.66074,440.74744,56,61,0
440.66074,440.74744,47,61,0
440.77634,440.86304,54,62,0
440.77634,440.86304,47,62,0
441.1231,441.21027,56,61,0
441.1231,441.21027,47,61,0
441.24048,441.3282,57,61,0
441.24048,441.3282,47,61,0
441.47443,441.5643,54,61,0
441.47443,441.5643,42,61,0
441.71408,441.94806,49,79,0
441.71408,441.94806,44,70,0
441.71408,441.94806,37,70,0
442.182,442.26974,54,55,0
442.182,442.26974,49,55,0
442.29898,442.3867,54,55,0
442.29898,442.3867,49,55,0
442.64777,442.7341,57,65,0
442.64777,442.7341,49,65,0
442.7629,442.84924,57,61,0
442.7629,442.84924,49,61,0
443.1083,443.19467,56,63,0
443.1083,443.19467,49,63,0
443.22345,443.30978,56,61,0
443.22345,443.30978,49,61,0
443.56885,443.6552,54,63,0
443.56885,443.6552,49,63,0
443.91565,444.00302,52,61,0
443.91565,444.00302,49,61,0
444.03217,444.11954,55,63,0
444.03217,444.11954,49,63,0
444.38123,444.4683,54,61,0
444.38123,444.4683,49,61,0
444.49728,444.58432,52,62,0
444.49728,444.58432,49,62,0
444.84546,444.9329,54,61,0
444.84546,444.9329,49,61,0
444.9631,445.05118,55,61,0
444.9631,445.05118,49,61,0
445.198,445.28824,49,61,0
445.43866,445.6793,62,79,0
445.43866,445.6793,54,70,0
445.198,445.6793,37,61,0
445.43866,445.6793,49,70,0
445.43866,445.6793,57,70,0
445.91418,446.00226,61,55,0
445.91418,446.00226,54,55,0
446.03165,446.12003,61,55,0
446.03165,446.12003,54,55,0
446.38196,446.468,64,65,0
446.38196,446.468,54,65,0
446.49664,446.58267,64,61,0
446.49664,446.58267,54,61,0
446.84073,446.92673,62,63,0
446.84073,446.92673,54,63,0
446.9554,447.0414,62,61,0
446.9554,447.0414,54,61,0
447.29947,447.54312,62,79,0
447.29947,447.54312,49,70,0
447.29947,447.54312,55,70,0
447.29947,447.54312,59,70,0
447.77615,447.86356,66,55,0
447.77615,447.86356,59,55,0
447.89267,447.98,66,55,0
447.89267,447.98,59,55,0
448.2404,448.32654,69,65,0
448.2404,448.32654,59,65,0
448.35522,448.44122,69,61,0
448.35522,448.44122,59,61,0
448.69928,448.7853,67,63,0
448.69928,448.7853,59,63,0
448.81396,448.9,67,61,0
448.81396,448.9,59,61,0
449.41104,449.5304,49,55,0
449.41104,449.5304,44,51,0
449.41104,449.5304,37,51,0
449.89096,450.00983,77,56,0
449.89096,450.00983,73,56,0
449.89096,450.00983,71,52,0
450.3694,450.48795,54,56,0
450.3694,450.48795,49,51,0
450.84555,450.96393,78,55,0
450.84555,450.96393,81,62,0
451.3193,451.4372,49,52,0
451.3193,451.4372,60,59,0
451.3193,451.4372,57,59,0
451.3193,451.4372,54,52,0
451.7929,451.91034,81,60,0
451.7929,451.91034,84,60,0
451.7929,451.91034,86,69,0
452.26413,452.3811,49,55,0
452.26413,452.3811,60,63,0
452.26413,452.3811,56,63,0
452.26413,452.3811,54,55,0
452.7349,452.85187,87,63,0
452.7349,452.85187,90,74,0
452.7349,452.85187,92,74,0
452.9706,453.20932,49,87,0
452.9706,453.20932,44,79,0
452.9706,453.20932,37,79,0
453.20932,453.32675,61,55,0
453.20932,453.32675,56,55,0
453.44327,453.55933,56,53,0
453.44327,453.55933,59,53,0
453.67508,453.79053,61,55,0
453.67508,453.79053,56,55,0
453.90567,454.02036,62,61,0
453.90567,454.02036,54,61,0
454.13504,454.24973,54,55,0
454.13504,454.24973,64,55,0
454.3644,454.4791,54,61,0
454.3644,454.4791,61,61,0
454.59378,454.70847,54,55,0
454.59378,454.70847,62,55,0
454.82318,454.93787,59,63,0
454.82318,454.93787,52,63,0
455.16724,455.28192,57,52,0
455.16724,455.28192,52,52,0
455.28192,455.3966,62,63,0
455.28192,455.3966,52,63,0
455.62598,455.74066,61,51,0
455.62598,455.74066,52,51,0
455.74066,455.8558,59,62,0
455.74066,455.8558,52,62,0
456.08716,456.20337,61,55,0
456.08716,456.20337,52,55,0
456.20337,456.32004,62,63,0
456.20337,456.32004,52,63,0
456.437,456.55444,50,62,0
456.437,456.55444,44,62,0
456.437,456.55444,38,62,0
456.67236,456.91205,49,79,0
456.67236,456.91205,44,70,0
456.67236,456.91205,37,70,0
456.91205,457.03027,61,55,0
456.91205,457.03027,56,55,0
457.1474,457.26407,56,53,0
457.1474,457.26407,59,53,0
457.38028,457.49603,61,55,0
457.38028,457.49603,56,55,0
457.61133,457.726,62,61,0
457.61133,457.726,54,61,0
457.8407,457.95538,54,55,0
457.8407,457.95538,64,55,0
458.07007,458.18475,54,61,0
458.07007,458.18475,61,61,0
458.29947,458.41415,54,55,0
458.29947,458.41415,62,55,0
458.52884,458.64352,59,63,0
458.52884,458.64352,52,63,0
458.8729,458.98758,57,52,0
458.8729,458.98758,52,52,0
458.98758,459.10226,60,63,0
458.98758,459.10226,52,63,0
459.33163,459.44632,59,51,0
459.33163,459.44632,52,51,0
459.44632,459.56146,57,62,0
459.44632,459.56146,52,62,0
459.79282,459.90903,59,55,0
459.79282,459.90903,52,55,0
459.90903,460.0257,60,63,0
459.90903,460.0257,50,63,0
460.14267,460.2601,50,62,0
460.14267,460.2601,38,62,0
460.37802,460.64374,43,79,0
460.37802,460.64374,38,70,0
460.37802,460.64374,31,70,0
460.87662,460.96365,66,55,0
460.87662,460.96365,59,55,0
460.99268,461.07938,66,55,0
460.99268,461.07938,59,55,0
461.33856,461.42422,69,65,0
461.33856,461.42422,59,65,0
461.4528,461.53848,69,61,0
461.4528,461.53848,59,61,0
461.79553,461.8812,67,63,0
461.79553,461.8812,59,63,0
461.90976,461.99545,67,61,0
461.90976,461.99545,59,61,0
462.2525,462.5067,52,79,0
462.2525,462.5067,40,70,0
462.2525,462.5067,43,70,0
462.2525,462.5067,48,70,0
462.74255,462.83096,71,55,0
462.74255,462.83096,64,55,0
462.86044,462.94885,71,55,0
462.86044,462.94885,64,55,0
463.20987,463.29556,74,65,0
463.20987,463.29556,64,65,0
463.32413,463.4098,74,61,0
463.32413,463.4098,64,61,0
463.66684,463.75253,72,63,0
463.66684,463.75253,64,63,0
463.78107,463.86676,72,61,0
463.78107,463.86676,64,61,0
464.37772,464.49707,54,56,0
464.37772,464.49707,49,51,0
464.8576,464.97647,82,60,0
464.8576,464.97647,78,60,0
464.8576,464.97647,76,53,0
465.33606,465.4546,59,61,0
465.33606,465.4546,54,53,0
465.33606,465.4546,49,53,0
465.81223,465.9306,83,61,0
465.81223,465.9306,86,65,0
466.28595,466.40387,49,57,0
466.28595,466.40387,64,64,0
466.28595,466.40387,59,64,0
466.28595,466.40387,56,57,0
466.75955,466.877,86,66,0
466.75955,466.877,88,75,0
467.2308,467.34778,49,63,0
467.2308,467.34778,56,63,0
467.2308,467.34778,63,72,0
467.70157,467.81854,90,83,0
467.70157,467.81854,92,83,0
467.93726,468.18713,37,102,0
467.93726,468.18713,25,75,0
468.18713,468.4298,56,83,0
468.18713,468.4298,44,74,0
468.18713,468.4298,49,74,0
468.4298,468.6797,61,79,0
468.4298,468.6797,56,55,0
468.4298,468.6797,49,55,0
468.6797,468.92352,65,79,0
468.6797,468.92352,56,55,0
468.6797,468.92352,61,62,0
468.6797,468.92352,53,55,0
468.92352,469.0455,49,77,0
468.92352,469.0455,37,61,0
469.0455,469.1665,52,70,0
469.0455,469.1665,40,61,0
469.1665,469.28668,55,71,0
469.1665,469.28668,43,62,0
469.28668,469.40585,58,72,0
469.28668,469.40585,46,63,0
469.40585,469.52426,61,72,0
469.40585,469.52426,49,63,0
469.52426,469.6425,64,74,0
469.52426,469.6425,52,66,0
469.6425,469.89343,67,74,0
469.6425,469.89343,55,66,0
469.89343,470.13837,37,93,0
469.89343,470.13837,25,77,0
470.13837,470.61774,56,73,0
470.13837,470.61774,61,73,0
470.13837,470.61774,65,81,0
470.13837,470.61774,68,81,0
470.61774,470.85645,65,76,0
470.61774,470.85645,56,60,0
470.61774,470.85645,61,60,0
470.61774,470.85645,53,60,0
470.85645,470.97678,49,72,0
470.85645,470.97678,37,55,0
470.97678,471.0971,54,63,0
470.97678,471.0971,42,55,0
471.0971,471.21695,57,63,0
471.0971,471.21695,45,56,0
471.21695,471.3362,60,64,0
471.21695,471.3362,48,57,0
471.3362,471.455,63,65,0
471.3362,471.455,51,57,0
471.455,471.5732,66,66,0
471.455,471.5732,54,60,0
471.5732,471.8231,69,67,0
471.5732,471.8231,57,61,0
471.8231,472.06805,37,87,0
471.8231,472.06805,25,87,0
472.06805,472.54742,57,63,0
472.06805,472.54742,66,79,0
472.06805,472.54742,63,71,0
472.54742,472.7861,66,71,0
472.54742,472.7861,58,63,0
472.54742,472.7861,61,63,0
472.7861,472.9083,49,77,0
472.7861,472.9083,37,61,0
472.9083,473.02945,52,70,0
472.9083,473.02945,40,61,0
473.02945,473.14963,55,71,0
473.02945,473.14963,43,62,0
473.14963,473.26865,58,72,0
473.14963,473.26865,46,63,0
473.26865,473.38742,61,72,0
473.26865,473.38742,49,63,0
473.38742,473.50568,64,74,0
473.38742,473.50568,52,66,0
473.50568,473.7539,67,74,0
473.50568,473.7539,55,66,0
473.7539,473.99884,68,89,0
473.7539,473.99884,56,74,0
473.7539,473.99884,61,74,0
473.7539,473.99884,65,74,0
473.99884,474.2395,32,77,0
473.99884,474.2395,44,86,0
474.2395,474.35886,64,66,0
474.35886,474.4782,65,61,0
474.4782,474.59756,63,66,0
474.59756,474.72043,61,62,0
474.72043,474.83978,55,67,0
474.83978,474.9591,56,61,0
474.9591,475.07846,54,65,0
475.07846,475.1978,53,60,0
475.1978,475.31717,52,66,0
475.31717,475.43652,53,62,0
475.43652,475.55588,51,64,0
475.55588,475.67923,49,62,0
475.67923,475.79858,55,62,0
475.67923,475.79858,43,54,0
475.79858,475.91794,56,51,0
475.79858,475.91794,44,45,0
475.91794,476.0373,54,54,0
475.91794,476.0373,42,49,0
476.0373,476.15665,53,50,0
476.0373,476.15665,41,44,0
476.15665,476.276,52,53,0
476.15665,476.276,40,47,0
476.276,476.39536,53,44,0
476.276,476.39536,41,39,0
476.39536,476.5147,51,51,0
476.39536,476.5147,39,45,0
476.5147,476.6391,49,44,0
476.5147,476.6391,37,39,0
476.6391,476.75894,46,45,0
476.75894,476.8783,47,47,0
476.6391,476.8783,37,45,0
476.8783,476.99716,48,51,0
476.99716,477.10568,49,53,0
477.11554,477.23346,49,54,0
477.23346,477.35153,48,53,0
477.35153,477.46994,47,52,0
477.46994,477.5888,46,50,0
477.5888,477.70798,45,47,0
477.70798,477.82733,46,46,0
477.5888,477.82733,37,47,0
477.82733,477.9467,47,46,0
477.9467,478.06604,48,45,0
478.06604,478.1854,46,47,0
478.1854,478.30475,47,47,0
478.06604,478.30475,37,47,0
478.30475,478.4241,48,46,0
478.4241,478.54346,49,46,0
478.54346,478.66327,46,45,0
478.66327,478.78262,47,47,0
478.54346,478.78262,37,45,0
478.78262,478.9015,48,51,0
478.9015,479.01,49,53,0
479.0199,479.13782,49,54,0
479.13782,479.2559,48,53,0
479.2559,479.37427,47,52,0
479.37427,479.49313,46,50,0
479.49313,479.61234,45,47,0
479.61234,479.7317,46,46,0
479.49313,479.7317,37,47,0
479.7317,479.851,47,46,0
479.851,479.97037,48,45,0
479.97037,480.08972,45,47,0
480.08972,480.20908,47,47,0
479.97037,480.20908,37,47,0
480.20908,480.32843,48,46,0
480.32843,480.44778,49,46,0
480.44778,480.56763,45,47,0
480.56763,480.68698,46,50,0
480.44778,480.68698,37,47,0
480.68698,480.80585,47,53,0
480.80585,480.92422,48,55,0
480.92422,481.04214,49,57,0
481.04214,481.16022,48,55,0
481.16022,481.2786,47,53,0
481.2786,481.39746,46,52,0
481.39746,481.51865,45,50,0
481.51865,481.638,54,45,0
481.638,481.75745,45,49,0
481.75745,481.87814,37,46,0
481.87814,481.9956,45,53,0
481.9956,482.11304,51,50,0
482.11304,482.23047,45,53,0
482.23047,482.3508,37,50,0
482.3508,482.46594,44,57,0
482.46594,482.5811,54,53,0
482.5811,482.69623,44,57,0
482.69623,482.8146,37,55,0
482.8146,482.92755,44,63,0
482.92755,483.04047,51,57,0
483.04047,483.15338,44,62,0
483.15338,483.2699,37,59,0
483.2699,483.3807,44,67,0
483.3807,483.49152,54,63,0
483.49152,483.6023,44,67,0
483.6023,483.71698,37,63,0
483.71698,483.82614,44,71,0
483.82614,483.93527,51,66,0
483.93527,484.04443,44,72,0
484.15607,484.3919,49,80,0
484.15607,484.3919,44,80,0
484.5066,484.62097,91,82,0
484.5066,484.62097,88,70,0
484.04443,484.62097,37,67,0
484.73508,484.8488,88,80,0
484.73508,484.8488,84,66,0
484.96216,485.075,82,76,0
484.96216,485.075,79,63,0
485.1875,485.30002,79,77,0
485.1875,485.30002,76,64,0
485.4125,485.525,76,73,0
485.4125,485.525,72,62,0
485.63748,485.74997,70,74,0
485.63748,485.74997,67,62,0
485.8636,485.97833,67,71,0
485.8636,485.97833,64,60,0
486.09378,486.20877,61,76,0
486.09378,486.20877,49,63,0
486.3233,486.4374,67,74,0
486.3233,486.4374,64,62,0
486.5509,486.664,64,71,0
486.5509,486.664,60,60,0
486.77664,486.88882,58,67,0
486.77664,486.88882,55,57,0
487.0005,487.11212,55,69,0
487.0005,487.11212,52,57,0
487.22375,487.3354,52,65,0
487.22375,487.3354,48,55,0
487.44705,487.5587,46,65,0
487.44705,487.5587,43,55,0
487.67032,487.78195,43,63,0
487.67032,487.78195,40,53,0
487.8936,488.00427,37,75,0
487.8936,488.00427,25,61,0
488.11734,488.2307,48,75,0
488.11734,488.2307,36,61,0
488.34406,488.45715,47,76,0
488.34406,488.45715,35,63,0
488.56992,488.6824,46,79,0
488.56992,488.6824,34,67,0
488.7945,488.90625,45,81,0
488.7945,488.90625,33,69,0
489.01776,489.12897,44,85,0
489.01776,489.12897,32,71,0
489.23978,489.3503,45,87,0
489.23978,489.3503,33,75,0
489.46054,489.5705,46,91,0
489.46054,489.5705,34,76,0
489.68045,489.79044,45,92,0
489.68045,489.79044,33,77,0
489.90067,490.01105,44,92,0
489.90067,490.01105,32,76,0
490.12155,490.23236,43,90,0
490.12155,490.23236,31,76,0
490.3433,490.4545,42,89,0
490.3433,490.4545,30,76,0
490.56573,490.67737,41,85,0
490.56573,490.67737,29,73,0
490.789,490.90106,40,84,0
490.789,490.90106,28,70,0
491.01315,491.1255,39,84,0
491.01315,491.1255,27,70,0
491.23798,491.35077,38,80,0
491.23798,491.35077,26,68,0
491.35077,491.5732,37,79,0
491.35077,491.5732,25,67,0
491.75858,492.01657,63,61,0
491.69183,492.01657,45,50,0
491.71408,492.01657,53,52,0
491.73633,492.01657,57,58,0
492.20786,492.4278,45,63,0
492.20786,492.4278,64,76,0
492.20786,492.4278,57,63,0
492.20786,492.4278,52,63,0
492.6477,492.8727,54,63,0
492.6202,492.8727,42,63,0
492.6477,492.8727,66,76,0
492.6477,492.8727,61,76,0
493.0977,493.32266,56,67,0
493.06955,493.32266,49,67,0
493.0977,493.32266,68,80,0
493.06955,493.32266,37,67,0
493.0977,493.32266,61,80,0
493.0977,493.32266,65,80,0
493.99765,494.22263,77,84,0
493.99765,494.22263,65,70,0
493.99765,494.22263,68,70,0
493.99765,494.22263,73,84,0
494.72778,494.783,56,76,0
494.783,494.83817,57,76,0
494.83817,494.89337,60,76,0
494.89337,495.00372,61,82,0
494.89337,495.00372,49,75,0
495.1141,495.33487,37,76,0
495.1141,495.33487,25,69,0
