start_time,end_time,note_value,velocity,instrument_program_number
5.0,8.75,81,73,40
8.75,10.0,79,91,40
10.0,11.25,78,105,40
11.25,13.125,79,108,40
13.125,13.75,81,108,40
13.75,14.375,82,108,40
14.375,15.0,84,108,40
15.0,16.25,85,108,40
20.0,23.75,79,73,40
23.75,25.0,77,93,40
25.0,26.25,76,106,40
26.25,28.125,77,108,40
28.125,28.75,79,108,40
28.75,29.375,80,108,40
29.375,30.0,82,108,40
30.0,31.25,84,108,40
38.125,38.75,72,73,40
38.75,39.375,74,73,40
39.375,40.0,75,73,40
40.0,40.625,77,73,40
40.625,41.25,78,73,40
41.25,42.75,79,77,40
43.125,43.75,72,99,40
43.75,44.375,74,105,40
44.375,45.0,75,108,40
45.0,48.0,77,108,40
48.75,50.0,76,108,40
50.0,51.25,75,108,40
51.25,52.5,74,108,40
52.5,54.375,72,108,40
54.375,54.6875,74,108,40
54.6875,55.0,72,108,40
55.0,55.3125,71,108,40
55.3125,55.625,72,108,40
55.625,55.9375,74,108,40
55.9375,56.25,72,108,40
56.25,57.25,71,108,40
58.125,58.75,74,73,40
58.75,59.375,75,73,40
59.375,60.0,72,73,40
60.0,61.0,71,73,40
61.875,62.5,74,73,40
62.5,63.125,72,73,40
63.125,63.75,69,73,40
63.75,64.75,67,73,40
65.625,66.25,62,73,40
66.25,66.875,63,73,40
66.875,67.5,60,73,40
67.5,68.5,59,73,40
69.375,70.0,59,80,40
70.0,70.625,59,80,40
70.625,71.25,59,80,40
71.25,71.875,59,100,40
71.875,72.5,61,80,40
72.5,74.0,62,73,40
74.375,74.875,62,73,40
75.0,75.625,62,100,40
75.625,76.25,64,73,40
76.25,77.75,65,73,40
78.125,78.65625,74,73,40
78.75,80.25,72,87,40
80.25,80.4375,71,73,40
80.4375,80.625,72,73,40
80.625,80.8125,74,73,40
80.8125,81.0,72,73,40
81.0,83.25,71,73,40
84.75,85.83462,72,92,40
85.90385,86.13461,72,92,40
86.13461,86.36538,74,92,40
86.36538,86.59615,76,92,40
86.59615,87.519226,79,92,40
87.519226,87.98077,77,92,40
88.44231,89.52692,74,92,40
89.596146,89.82692,74,92,40
89.82692,90.057686,76,92,40
90.057686,90.28846,77,92,40
90.28846,91.21153,81,92,40
91.21153,91.67307,79,92,40
92.134605,93.21922,79,92,40
93.28845,93.35768,79,92,40
93.51922,93.588455,81,92,40
93.74999,93.81922,83,92,40
93.98076,94.21153,84,92,40
94.21153,94.39614,76,92,40
94.4423,94.99615,77,92,40
95.134605,95.203835,76,92,40
95.36537,95.43461,77,92,40
95.596146,95.665375,79,92,40
95.82691,96.05768,81,92,40
96.05768,96.28845,73,92,40
96.28845,96.51922,74,92,40
96.51922,96.749985,76,92,40
96.749985,96.98076,77,92,40
96.98076,97.211525,69,92,40
97.211525,97.44229,74,92,40
97.44229,97.673065,72,92,40
97.673065,97.90383,72,92,40
97.90383,98.134605,71,92,40
98.134605,98.36537,69,92,40
98.36537,98.59614,67,92,40
98.59614,98.82691,66,92,40
98.82691,99.05768,67,92,40
99.05768,99.288445,65,92,40
99.288445,99.47306,62,92,40
99.51922,100.60383,60,98,40
100.67306,100.90383,60,98,40
100.90383,101.1346,62,98,40
101.1346,101.36537,64,98,40
101.36537,102.288445,67,98,40
102.288445,102.65768,65,98,40
103.21152,104.296135,62,98,40
104.365364,104.59613,62,98,40
104.59613,104.826904,64,98,40
104.826904,105.05767,65,98,40
105.05767,105.98075,69,98,40
105.98075,106.349976,67,98,40
106.903824,107.98844,79,98,40
108.05767,108.28844,76,98,40
108.28844,108.5192,77,108,40
108.5192,108.70382,79,98,40
108.74998,108.98074,81,98,40
108.98074,109.21152,84,98,40
109.21152,109.44228,82,98,40
109.44228,109.67305,81,98,40
109.67305,109.903824,79,108,40
109.903824,110.13459,76,98,40
110.13459,110.36536,77,98,40
110.36536,110.57305,79,98,40
110.59613,110.8269,81,98,40
110.8269,111.05766,84,98,40
111.05766,111.28844,82,80,40
111.28844,111.5192,81,80,40
111.5192,111.74997,79,104,40
111.74997,111.98074,76,80,40
111.98074,112.21151,77,80,40
112.21151,112.419205,79,80,40
112.44228,112.81151,81,94,40
112.90382,113.64228,73,94,40
113.8269,114.19612,74,94,40
114.74997,115.488434,83,89,40
115.67304,116.042274,84,108,40
116.36536,116.59612,81,94,40
116.59612,116.82689,77,94,40
116.82689,117.05766,74,94,40
117.28843,117.519196,77,94,40
117.519196,117.74997,74,94,40
117.74997,117.980736,71,94,40
118.2115,118.34997,72,94,40
118.442276,118.48843,74,94,40
118.49997,118.54612,72,94,40
118.557655,118.60381,71,94,40
118.61535,118.66151,72,94,40
118.67304,118.85766,76,94,40
119.13458,119.3192,79,94,40
119.36535,119.41151,81,94,40
119.42304,119.46919,79,94,40
119.480736,119.526886,78,94,40
119.53843,119.58458,79,94,40
119.59612,119.78073,84,94,40
120.057655,120.28843,81,94,40
120.28843,120.519196,77,94,40
120.519196,120.74996,74,94,40
120.980736,121.2115,77,94,40
121.2115,121.44227,74,94,40
121.44227,121.67304,71,94,40
121.67304,121.90381,72,102,40
121.90381,122.088425,67,102,40
122.134575,122.68842,67,102,40
122.82688,123.057655,68,102,40
123.057655,123.28842,69,102,40
123.28842,123.47304,65,102,40
123.519196,124.44227,65,102,40
124.44227,124.8115,64,94,40
129.05765,130.14226,76,94,40
130.21149,130.44226,76,94,40
130.44226,130.67303,77,94,40
130.67303,130.9038,79,94,40
130.9038,131.36534,83,94,40
131.36534,132.01149,81,94,40
132.05765,132.2884,81,88,40
132.2884,132.51918,83,101,40
132.51918,132.74995,84,108,40
132.74995,132.98073,86,102,40
132.98073,133.16533,83,102,40
133.21149,133.76534,79,102,40
133.9038,133.97302,81,102,40
134.13457,134.2038,83,102,40
134.36534,134.43457,84,102,40
134.5961,134.71149,86,102,40
134.71149,134.82687,83,102,40
134.82687,134.94226,86,102,40
134.94226,135.05765,83,102,40
135.05765,135.61148,79,102,40
135.74995,135.81918,81,102,40
135.98071,136.04994,83,102,40
136.21149,136.28072,84,102,40
136.44226,136.55765,86,68,40
136.55765,136.67302,83,68,40
136.67302,136.7884,86,68,40
136.7884,136.9038,83,68,40
136.9038,137.08841,79,68,40
137.36533,137.48071,83,68,40
137.48071,137.5961,79,68,40
137.5961,137.71149,83,68,40
137.71149,137.82687,79,68,40
137.82687,138.01149,76,68,40
138.2884,138.4038,79,68,40
138.4038,138.51918,76,68,40
138.51918,138.63457,79,68,40
138.63457,138.74994,76,68,40
138.74994,139.4884,71,68,40
139.67302,139.73456,74,94,40
139.74994,139.81148,73,94,40
139.82687,139.88841,74,94,40
139.9038,139.96533,73,94,40
139.98071,140.04225,71,94,40
140.05763,140.11917,73,94,40
140.13457,140.24994,74,94,40
140.24994,140.36533,76,94,40
140.36533,140.48071,78,94,40
140.48071,140.5961,79,94,40
140.5961,140.78072,81,94,40
141.05763,141.17302,73,94,40
141.17302,141.2884,74,94,40
141.2884,141.4038,76,94,40
141.4038,141.51918,78,94,40
141.51918,141.7038,79,94,40
141.74994,141.93456,76,94,40
141.98071,142.0961,74,94,40
142.0961,142.21149,76,94,40
142.21149,142.32686,78,94,40
142.32686,142.44225,79,94,40
142.44225,142.62686,81,94,40
142.9038,143.01917,73,94,40
143.01917,143.13455,74,94,40
143.13455,143.24994,76,94,40
143.24994,143.36533,78,94,40
143.36533,143.48071,79,94,40
143.48071,143.5961,76,94,40
143.5961,143.71149,79,94,40
143.71149,143.82686,76,94,40
143.82686,144.01147,74,94,40
144.05763,144.17302,78,94,40
144.17302,144.2884,76,94,40
144.2884,144.47302,74,94,40
144.51917,144.63455,78,94,40
144.63455,144.74994,76,94,40
144.74994,145.11917,74,94,40
145.55763,145.64993,62,92,40
145.55763,145.64993,55,92,40
145.67302,146.22687,62,92,40
145.67302,146.22687,71,92,40
145.67302,146.22687,79,92,40
145.67302,146.22687,55,92,40
146.36533,146.48071,83,108,40
146.48071,146.59608,81,108,40
146.59608,146.6307,79,108,40
146.71147,146.7461,78,108,40
146.82686,146.86148,76,108,40
146.94225,146.97687,74,108,40
147.05763,147.09224,72,108,40
147.17302,147.20763,71,108,40
147.2884,147.32301,69,108,40
147.40378,147.4384,67,108,40
147.51917,147.63455,66,80,40
147.63455,147.74994,69,80,40
147.74994,147.86533,67,80,40
147.86533,147.98071,71,80,40
147.98071,148.09608,69,80,40
148.09608,148.21147,72,80,40
148.21147,148.32686,71,80,40
148.32686,148.44225,74,80,40
148.44225,148.81148,72,80,40
149.36533,149.4807,81,108,40
149.4807,149.59608,80,108,40
149.59608,149.6307,84,108,40
149.71147,149.7461,83,108,40
149.82686,149.94225,81,108,40
149.94225,150.05763,80,108,40
150.05763,150.09224,84,108,40
150.173,150.20763,83,108,40
150.28839,150.32301,81,108,40
150.40378,150.4384,79,108,40
150.51917,150.55379,78,108,40
150.63455,150.66916,76,108,40
150.74994,150.78455,74,108,40
150.86533,150.89993,72,108,40
150.9807,151.01532,71,108,40
151.09608,151.1307,69,108,40
151.21147,151.32686,67,80,40
151.32686,151.44225,71,80,40
151.44225,151.55763,69,80,40
151.55763,151.673,72,80,40
151.673,151.78839,71,80,40
151.78839,151.90378,74,80,40
151.90378,152.01917,72,80,40
152.01917,152.13455,76,80,40
152.13455,152.50378,74,80,40
153.05762,153.173,71,80,40
153.173,153.28839,74,80,40
153.28839,153.40378,72,80,40
153.40378,153.51917,76,80,40
153.51917,153.63455,74,80,40
153.63455,153.74992,77,80,40
153.74992,153.86531,76,80,40
153.86531,153.9807,79,80,40
153.9807,154.34993,77,80,40
154.44225,154.81146,77,80,40
154.90378,155.13455,77,91,40
155.13455,155.31915,76,91,40
155.36531,156.01532,76,91,40
156.05762,156.24223,76,91,40
156.28839,156.473,76,91,40
156.51917,156.70378,76,91,40
156.74992,157.11916,76,91,40
157.21147,157.7653,81,91,40
157.90378,158.0884,81,91,40
158.13454,158.31915,83,91,40
158.36531,158.54993,84,91,40
158.59608,158.82684,84,91,40
158.82684,159.01146,74,91,40
159.05762,159.61147,74,91,40
159.74992,159.93454,74,91,40
159.9807,160.16531,74,91,40
160.21146,160.39607,74,91,40
160.44223,160.673,74,91,40
160.673,160.85762,79,91,40
160.90376,161.45761,79,91,40
161.59608,161.78069,79,91,40
161.82684,162.01146,81,91,40
162.05762,162.24223,83,91,40
162.28839,162.51915,83,98,40
162.51915,162.70377,72,91,40
162.9807,163.16531,72,80,40
163.21146,163.44223,72,66,40
163.44223,163.62685,81,69,40
163.90376,164.08838,81,75,40
164.13454,164.36531,81,78,40
164.36531,164.54993,71,82,40
164.82684,165.01146,71,88,40
165.05762,165.28838,71,90,40
165.28838,165.47299,79,94,40
165.74992,165.93454,79,99,40
165.98068,166.09607,76,94,40
166.09607,166.21146,75,94,40
166.21146,166.32684,78,94,40
166.32684,166.44223,76,94,40
166.44223,166.62685,79,94,40
166.90376,167.01915,72,94,40
167.01915,167.13454,71,94,40
167.13454,167.24992,74,94,40
167.24992,167.3653,72,94,40
167.3653,167.54991,76,94,40
167.82684,167.94223,69,107,40
167.94223,168.0576,68,107,40
168.0576,168.17299,71,107,40
168.17299,168.28838,69,107,40
168.28838,168.40376,72,107,40
168.40376,168.51915,71,107,40
168.51915,168.63454,74,107,40
168.63454,168.74991,72,107,40
168.74991,168.8653,76,107,40
168.8653,168.98068,74,107,40
168.98068,169.09607,78,107,40
169.09607,169.21146,76,107,40
169.21146,169.32684,79,107,40
169.32684,169.44223,78,107,40
169.44223,169.5576,81,107,40
169.5576,169.64992,79,107,40
169.67299,169.78838,83,107,40
169.78838,169.90376,81,107,40
169.90376,170.01915,79,107,40
170.01915,170.13454,78,107,40
170.13454,170.24991,81,107,40
170.24991,170.3653,79,107,40
170.3653,170.48068,78,107,40
170.48068,170.573,76,107,40
170.59607,170.71146,75,107,40
170.71146,170.82684,76,107,40
170.82684,170.94221,74,107,40
170.94221,171.0576,72,107,40
171.0576,171.17299,71,107,40
171.17299,171.28838,69,107,40
171.28838,171.40376,71,107,40
171.40376,171.49606,72,107,40
171.51915,171.63452,74,107,40
171.63452,171.74991,72,107,40
171.74991,171.8653,71,107,40
171.8653,171.98068,72,107,40
171.98068,172.09607,74,107,40
172.09607,172.21146,76,107,40
172.21146,172.32683,78,107,40
172.32683,172.41914,79,107,40
172.44221,172.50375,71,107,40
172.51915,172.58069,69,107,40
172.59607,172.65761,71,107,40
172.67299,172.73453,69,107,40
172.74991,172.81145,71,107,40
172.82683,172.88837,69,107,40
172.90376,172.9653,71,107,40
172.98068,173.04222,69,107,40
173.0576,173.11914,71,107,40
173.13452,173.19606,69,107,40
173.21146,173.273,67,107,40
173.28838,173.34991,69,107,40
173.3653,173.73453,67,107,40
174.28838,174.42683,74,80,40
174.74991,174.88837,74,80,40
175.21144,175.79607,73,80,40
175.82683,175.9499,74,80,40
175.98068,176.02682,71,80,40
176.13452,176.2576,73,80,40
176.28838,176.41145,74,80,40
176.44221,176.48837,71,80,40
176.59607,176.71913,73,80,40
176.74991,176.87299,74,80,40
176.90375,176.9499,71,80,40
177.0576,177.33452,74,80,40
177.40375,177.49606,71,80,40
177.51913,177.88837,74,80,40
178.21144,178.67299,79,79,40
178.67299,179.13452,78,98,40
179.13452,179.59605,76,108,40
179.59605,179.82683,74,108,40
179.82683,180.0576,73,108,40
180.0576,180.28836,72,108,40
180.28836,180.51913,71,108,40
180.51913,180.74991,76,108,40
180.74991,181.21144,67,119,40
181.21144,181.48836,66,94,40
182.59605,182.73451,79,94,40
183.05759,183.19606,79,94,40
183.51913,184.21144,79,94,40
184.21144,184.39606,83,94,40
184.44221,184.59605,78,94,40
184.59605,184.64221,81,94,40
184.7499,184.79605,79,94,40
184.90375,184.9499,77,94,40
185.05759,185.10374,76,94,40
185.21144,185.2576,74,94,40
185.36528,185.41144,72,94,40
185.51913,185.56528,71,94,40
185.67297,185.71913,69,94,40
185.82683,185.98067,67,94,40
185.98067,186.02682,69,94,40
186.13452,186.18066,65,94,40
186.28836,186.41144,64,94,40
186.4422,186.48836,79,94,40
186.59605,186.64221,78,94,40
186.7499,186.79605,76,94,40
186.90375,186.9499,74,94,40
187.05759,187.10374,72,94,40
187.21144,187.36528,71,94,40
187.36528,187.41144,76,94,40
187.51913,187.56528,74,94,40
187.67297,187.71913,72,94,40
187.82681,187.87297,71,94,40
187.98067,188.02682,69,94,40
188.1345,188.50374,67,94,40
189.51912,190.10374,74,108,40
190.1345,190.18066,86,108,40
190.28836,190.3345,84,108,40
190.4422,190.48836,83,108,40
190.59605,190.6422,81,108,40
190.7499,190.79605,79,108,40
190.90375,190.94989,78,108,40
191.05759,191.10374,76,108,40
191.21143,191.25758,74,108,40
191.36528,191.40373,72,108,40
191.40373,191.4422,74,108,40
191.4422,191.48067,72,108,40
191.48067,191.6345,71,108,40
191.6345,191.78836,72,108,40
191.82681,192.19604,71,108,40
193.21143,193.79605,74,66,40
193.82681,193.87297,86,66,40
193.98067,194.02681,84,66,40
194.1345,194.18066,83,66,40
194.28835,194.3345,81,66,40
194.4422,194.48836,79,66,40
194.59604,194.6422,78,66,40
194.7499,194.79605,76,66,40
194.90373,194.94989,74,66,40
195.05759,195.09604,72,66,40
195.09604,195.1345,74,66,40
195.1345,195.17297,72,66,40
195.17297,195.32681,71,66,40
195.32681,195.48065,72,66,40
195.51912,195.88835,74,66,40
196.90373,197.27296,78,108,40
197.36526,197.48065,79,107,40
197.48065,197.51527,78,107,40
197.59604,197.63066,83,107,40
197.71143,197.74605,81,107,40
197.82681,197.86142,79,107,40
197.9422,197.9768,78,107,40
198.05757,198.0922,76,107,40
198.17296,198.20758,74,107,40
198.28835,198.32297,72,107,40
198.40373,198.43835,71,107,40
198.51912,198.55373,69,107,40
198.6345,198.66911,67,107,40
198.7499,198.86526,66,107,40
198.86526,198.89989,67,107,40
198.98065,199.01527,69,107,40
199.09604,199.13066,67,107,40
199.21143,199.32681,76,107,40
199.32681,199.36142,74,107,40
199.4422,199.4768,79,107,40
199.55757,199.5922,78,107,40
199.67296,199.70758,76,107,40
199.78835,199.82297,74,107,40
199.90373,199.93834,72,107,40
200.01912,200.05373,71,107,40
200.1345,200.16911,69,107,40
200.24988,200.2845,67,107,40
200.36526,200.39989,66,107,40
200.48065,200.51527,64,107,40
200.59604,200.71143,63,107,40
200.71143,200.82681,64,107,40
200.82681,200.86142,66,107,40
200.94218,200.9768,64,107,40
201.05757,201.17296,72,107,40
201.17296,201.28835,71,107,40
201.28835,201.32297,76,107,40
201.40373,201.43834,74,107,40
201.51912,201.55373,72,107,40
201.63449,201.66911,71,107,40
201.74988,201.7845,69,107,40
201.86526,201.89989,67,107,40
201.98065,202.01527,66,107,40
202.09604,202.13065,64,107,40
202.21143,202.24603,62,107,40
202.32681,202.36142,60,107,40
202.44218,202.55757,59,107,40
202.55757,202.67296,60,107,40
202.67296,202.70758,62,107,40
202.78835,202.82295,60,107,40
202.90373,202.99603,59,107,40
203.01912,203.11142,60,107,40
203.13449,203.2268,62,107,40
203.24988,203.3422,64,107,40
203.36526,203.45758,66,107,40
203.48065,203.57295,67,107,40
203.59604,203.68834,69,107,40
203.71143,203.80373,71,107,40
203.8268,203.91911,72,107,40
203.94218,204.0345,74,107,40
204.05757,204.14989,76,107,40
204.17296,204.26526,78,107,40
204.28835,204.38065,79,107,40
204.40373,204.49603,81,107,40
204.5191,204.61142,83,107,40
204.63449,204.7268,84,107,40
204.74988,205.48834,86,124,40
205.67296,206.41142,59,124,40
206.59604,207.33449,60,124,40
207.5191,208.25757,88,124,40
208.44218,209.18065,86,124,40
209.36526,209.4268,79,94,40
209.44218,209.50372,78,94,40
209.5191,209.58064,79,94,40
209.59602,209.65756,78,94,40
209.67296,209.7345,79,94,40
209.74988,209.81142,78,94,40
209.8268,209.88834,79,94,40
209.90372,209.96526,78,94,40
209.98064,210.04218,79,94,40
210.05757,210.11911,78,94,40
210.13449,210.19603,76,94,40
210.21141,210.27295,78,94,40
210.28833,210.65756,79,94,40
212.13449,213.2191,74,80,40
213.28833,213.47295,74,80,40
213.5191,213.70372,76,80,40
213.74988,213.93448,78,80,40
213.98064,214.34987,81,80,40
214.44218,214.8114,79,80,40
216.05756,216.24217,73,94,40
216.28833,216.47295,74,94,40
216.5191,216.70372,73,94,40
216.74986,216.93448,74,94,40
216.98064,217.16525,75,94,40
217.21141,217.39603,76,94,40
217.44217,217.62679,78,94,40
217.67294,218.04218,79,94,40
219.51909,220.60371,86,94,40
220.67294,220.85756,84,94,40
220.90372,221.08832,83,94,40
221.13448,221.31909,81,94,40
221.36525,221.73448,78,94,40
221.82678,222.19601,79,94,40
223.2114,224.29602,86,94,40
224.36525,224.54987,84,94,40
224.59601,224.78062,83,94,40
224.82678,225.0114,81,94,40
225.05756,225.28831,78,94,40
225.28831,225.47293,79,94,40
225.51909,225.58832,79,94,40
225.74986,225.81909,79,94,40
225.98062,226.34985,79,94,40
227.13448,227.36523,67,68,40
227.36523,227.48062,79,70,40
227.59601,227.66524,79,71,40
227.82678,228.19601,79,74,40
228.98062,229.2114,67,83,40
229.2114,229.32678,79,85,40
229.44217,229.5114,79,87,40
229.67293,230.04216,79,89,40
230.82678,231.05754,67,99,40
231.05754,231.17293,79,100,40
231.28831,231.35754,79,102,40
231.51909,231.88832,79,104,40
232.44215,233.52678,76,94,40
233.59601,233.82677,77,94,40
233.82677,234.05754,79,94,40
234.05754,234.26523,81,94,40
234.28831,235.37292,72,94,40
235.44215,235.67293,71,94,40
235.67293,235.9037,77,94,40
235.9037,236.13446,74,94,40
236.13446,236.36523,72,94,40
236.36523,236.59601,71,94,40
236.59601,236.82677,74,94,40
236.82677,237.05754,71,94,40
237.05754,237.28831,69,94,40
237.28831,237.51907,67,94,40
237.51907,237.74985,69,94,40
237.74985,237.93446,65,94,40
237.98062,238.21138,64,85,40
238.21138,238.44215,62,85,40
238.44215,238.67293,64,85,40
238.67293,238.90369,65,85,40
238.90369,239.13446,66,85,40
239.13446,239.36523,67,85,40
239.36523,239.596,69,85,40
239.596,239.78061,71,85,40
239.82677,240.91138,72,73,40
240.9806,241.21138,72,73,40
241.21138,241.44215,74,73,40
241.44215,241.67291,76,73,40
241.67291,242.596,81,73,40
242.596,242.96523,79,73,40
243.51907,244.60368,72,73,40
244.67291,244.90369,72,73,40
244.90369,245.13446,74,73,40
245.13446,245.36522,76,73,40
245.36522,246.2883,81,73,40
246.2883,246.65753,79,73,40
247.21138,248.31906,73,73,40
248.36522,248.596,74,73,40
248.596,248.82675,76,73,40
248.82675,249.05753,77,73,40
249.05753,249.9806,81,73,40
249.9806,250.34984,79,73,40
250.90369,252.01137,76,94,40
252.05753,252.2883,77,94,40
252.2883,252.51906,79,94,40
252.51906,252.74983,81,94,40
252.74983,253.67291,84,68,40
253.67291,254.04214,82,76,40
254.59598,255.70367,77,84,40
255.74983,255.98059,82,94,40
255.98059,256.21136,86,96,40
256.21136,256.44214,82,99,40
256.44214,257.3652,89,100,40
257.3652,257.73444,87,108,40
258.05753,258.1729,81,108,40
258.2883,258.51904,84,108,40
258.9806,259.09598,75,108,40
259.21136,259.44214,81,108,40
259.90366,260.01904,72,108,40
260.13443,260.24982,75,108,40
260.3652,260.4806,69,108,40
260.59598,260.71136,72,108,40
260.82675,260.94214,65,108,40
261.05753,261.1729,72,108,40
261.2883,261.40366,64,108,40
261.51904,261.63443,72,108,40
261.74982,261.8652,63,108,40
261.9806,262.09598,64,108,40
262.21136,262.32675,68,108,40
262.44214,262.55753,71,108,40
262.6729,262.78827,64,108,40
262.90366,263.01904,72,108,40
263.13443,263.24982,69,108,40
263.3652,263.4806,81,108,40
263.59598,263.71136,75,108,40
263.82675,263.94214,76,108,40
264.05753,264.1729,71,108,40
264.28827,264.40366,80,108,40
264.51904,264.63443,76,108,40
264.74982,264.8652,81,108,40
264.9806,265.09598,76,108,40
265.21136,265.32675,84,108,40
265.44214,265.55753,81,108,40
265.67288,266.0421,88,108,40
267.74982,267.81906,69,73,40
267.9806,268.0498,69,73,40
268.21136,268.28058,69,73,40
268.44214,268.67288,69,73,40
268.67288,268.8575,71,73,40
268.90366,269.13443,71,73,40
269.13443,269.31906,72,73,40
269.3652,269.59598,72,80,40
269.59598,269.78058,71,73,40
269.82675,269.89597,71,73,40
270.0575,270.12674,71,73,40
270.28827,270.6575,71,73,40
271.4421,271.51135,69,73,40
271.67288,271.74213,69,73,40
271.90366,271.9729,69,73,40
272.13443,272.3652,69,73,40
272.3652,272.5498,71,73,40
272.59598,272.82672,71,73,40
272.82672,273.01135,72,73,40
273.0575,273.28827,72,80,40
273.28827,273.4729,71,73,40
273.51904,273.5883,71,73,40
273.74982,273.81903,71,73,40
273.9806,274.34982,71,73,40
275.13443,275.20364,62,108,40
275.3652,275.43442,68,108,40
275.59598,275.6652,71,108,40
275.82672,276.28827,76,108,40
276.28827,276.6575,74,108,40
276.9806,277.0498,62,108,40
277.21133,277.28058,68,108,40
277.4421,277.51135,71,108,40
277.67288,278.13443,76,108,40
278.13443,278.50366,74,108,40
278.59595,278.71133,73,108,40
278.82672,278.9421,76,108,40
279.0575,279.28827,79,108,40
279.74982,279.8652,73,108,40
279.98056,280.21133,76,108,40
280.67288,280.78827,67,108,40
280.90366,281.01904,70,108,40
281.13443,281.24982,64,108,40
281.36517,281.48056,67,108,40
281.59595,281.71133,61,108,40
281.82672,281.9421,64,108,40
282.0575,282.17288,57,108,40
282.51904,282.74982,69,80,40
282.74982,282.98056,73,80,40
282.98056,283.1652,76,80,40
283.21133,283.67288,82,80,40
283.67288,284.0421,81,80,40
284.36517,284.59595,69,80,40
284.59595,284.82672,73,80,40
284.82672,285.0575,76,80,40
285.0575,285.51904,82,80,40
285.51904,285.88828,81,80,40
287.1344,287.20364,72,119,40
287.36517,287.43442,78,119,40
287.59595,287.6652,81,119,40
287.82672,288.28827,86,119,40
288.28827,288.6575,84,119,40
288.98056,289.0498,72,119,40
289.21133,289.28058,78,119,40
289.4421,289.51132,81,119,40
289.67288,290.1344,86,119,40
290.1344,290.50363,84,119,40
290.82672,290.89594,78,119,40
291.0575,291.1267,80,119,40
291.28827,291.35748,81,119,40
291.519,291.6344,83,119,40
291.7498,291.86517,86,127,40
291.98056,292.21133,77,119,40
292.67288,292.78824,80,119,40
292.90363,293.1344,74,119,40
293.59595,293.71133,77,119,40
293.82672,293.9421,71,119,40
294.0575,294.17288,74,119,40
294.28824,294.40363,65,119,40
294.519,294.6344,68,119,40
294.7498,294.86517,62,119,40
294.98056,295.09595,65,119,40
295.4421,295.67285,67,80,40
295.67285,295.90363,71,80,40
295.90363,296.1344,74,80,40
296.1344,296.59595,80,80,40
296.59595,296.96518,79,80,40
297.28824,297.519,67,80,40
297.519,297.7498,71,80,40
297.7498,297.98056,74,80,40
297.98056,298.4421,80,80,40
298.4421,298.8113,79,80,40
299.1344,299.36517,72,80,40
299.36517,299.59595,75,80,40
299.59595,299.82672,79,80,40
299.82672,300.28824,82,80,40
300.28824,300.65747,80,80,40
300.98056,301.21133,70,80,40
301.21133,301.44208,74,80,40
301.44208,301.67285,77,80,40
301.67285,302.1344,80,80,40
302.1344,302.50363,79,80,40
302.8267,303.05746,68,80,40
303.05746,303.28824,72,80,40
303.28824,303.519,75,80,40
303.519,303.98056,79,80,40
303.98056,304.3498,77,80,40
304.67285,304.90363,67,80,40
304.90363,305.1344,71,80,40
305.1344,305.36517,74,80,40
305.36517,305.8267,77,80,40
305.8267,306.19592,75,80,40
306.519,306.6344,84,108,40
306.7498,306.98056,87,108,40
307.44208,307.55746,81,108,40
307.67285,307.90363,84,108,40
308.36517,308.48056,78,108,40
308.59592,308.7113,81,108,40
308.8267,308.94208,72,108,40
309.05746,309.17285,75,108,40
309.28824,309.40363,69,108,40
309.519,309.6344,72,108,40
309.7498,309.86517,66,108,40
309.98053,310.09592,67,108,40
310.2113,310.3267,55,108,40
310.44208,310.55746,67,108,40
310.67285,310.78824,62,108,40
310.90363,311.019,63,108,40
311.1344,311.2498,60,108,40
311.36514,311.48053,72,108,40
311.59592,311.7113,66,108,40
311.8267,311.94208,67,108,40
312.05746,312.17285,62,108,40
312.28824,312.40363,71,108,40
312.519,312.6344,67,108,40
312.7498,312.86514,72,108,40
312.98053,313.09592,67,108,40
313.2113,313.3267,75,108,40
313.44208,313.55746,72,108,40
313.67285,314.04208,79,108,40
315.74976,315.819,72,73,40
315.98053,316.04977,72,73,40
316.2113,316.28055,72,73,40
316.44208,316.67285,72,73,40
316.67285,316.85745,74,73,40
316.90363,317.13437,74,73,40
317.13437,317.319,75,73,40
317.36514,317.59592,75,73,40
317.59592,317.78055,74,73,40
317.8267,317.89594,74,73,40
318.05746,318.12668,74,73,40
318.28824,318.65747,74,73,40
319.44208,319.5113,72,73,40
319.67285,319.74207,72,73,40
319.90363,319.97284,72,73,40
320.13437,320.36514,72,73,40
320.36514,320.54977,74,73,40
320.59592,320.8267,74,73,40
320.8267,321.0113,75,73,40
321.05746,321.28824,75,73,40
321.28824,321.47284,74,73,40
321.51898,321.58823,74,59,40
321.74976,321.819,74,73,40
321.98053,322.34976,74,73,40
323.8267,324.9113,79,108,40
324.98053,325.2113,83,108,40
325.2113,325.44208,86,108,40
325.44208,325.67282,89,108,40
325.67282,325.9036,91,108,40
325.9036,326.13437,89,108,40
326.13437,326.36514,86,108,40
326.36514,326.54974,83,108,40
326.59592,326.85678,91,65,40
326.85678,327.11765,89,65,40
327.11765,327.3785,86,65,40
327.3785,327.58722,83,65,40
328.68286,329.79056,72,80,40
329.8367,330.06747,72,80,40
330.06747,330.29825,74,80,40
330.29825,330.50595,76,80,40
330.52902,331.4521,79,80,40
331.4521,331.82132,77,80,40
332.37518,333.48285,74,80,40
333.52902,333.7598,74,80,40
333.7598,333.99057,76,80,40
333.99057,334.19824,77,80,40
334.2213,335.1444,81,80,40
335.1444,335.51364,79,80,40
336.06747,337.17517,79,80,40
337.2213,337.29056,79,80,40
337.4521,337.52133,81,80,40
337.68286,337.75208,83,80,40
337.91364,338.1444,84,80,40
338.1444,338.329,76,80,40
338.37515,338.92902,77,80,40
339.06747,339.13672,76,80,40
339.29825,339.36746,77,80,40
339.52902,339.59824,79,80,40
339.75977,339.99054,81,80,40
339.99054,340.17517,73,80,40
340.2213,340.29056,74,80,40
340.4521,340.52133,76,80,40
340.68286,340.91364,77,80,40
340.91364,341.09824,69,80,40
341.1444,341.21362,74,80,40
341.37515,341.4444,72,80,40
341.60593,341.8367,72,80,40
341.8367,342.0213,71,80,40
342.06747,342.1367,69,80,40
342.29825,342.36746,67,80,40
342.52902,342.75977,66,80,40
342.75977,342.99054,67,80,40
342.99054,343.05978,65,80,40
343.2213,343.29056,62,80,40
343.4521,344.5367,60,100,40
344.60593,344.8367,60,91,40
344.8367,345.06747,62,91,40
345.06747,345.29825,64,91,40
345.29825,346.03668,67,91,40
346.2213,346.59055,65,91,40
347.14438,348.229,62,91,40
348.29822,348.48285,62,80,40
348.529,348.71362,64,80,40
348.75977,348.9444,65,80,40
348.99054,349.729,69,91,40
349.9136,350.28284,67,91,40
350.8367,351.9213,64,107,40
351.99054,352.2213,64,107,40
352.2213,352.4521,65,107,40
352.4521,352.68283,67,107,40
352.68283,352.9136,69,77,40
352.9136,353.14438,72,77,40
353.14438,353.37515,70,77,40
353.37515,353.60593,69,77,40
353.60593,353.8367,67,94,40
353.8367,354.06744,64,77,40
354.06744,354.29822,65,77,40
354.29822,354.48285,67,77,40
354.529,354.75977,69,77,40
354.75977,354.99054,84,77,40
354.99054,355.2213,82,77,40
355.2213,355.45206,81,77,40
355.45206,355.68283,79,94,40
355.68283,355.9136,76,77,40
355.9136,356.14438,77,77,40
356.14438,356.32898,79,77,40
356.37515,356.8367,81,85,40
356.8367,357.75977,73,85,40
357.75977,358.129,74,85,40
358.68283,359.60593,83,99,40
359.60593,359.97516,84,119,40
360.06744,360.18283,86,107,40
360.18283,360.27515,88,107,40
360.29822,360.39053,84,107,40
360.4136,360.50592,81,107,40
360.529,361.26746,76,107,40
361.45206,361.529,79,107,40
361.529,361.60593,78,107,40
361.60593,361.68283,79,107,40
361.68283,361.75977,78,107,40
361.75977,361.83667,76,107,40
361.83667,361.9136,78,107,40
361.9136,362.029,79,73,40
362.029,362.14438,81,73,40
362.14438,362.25977,83,73,40
362.25977,362.37515,84,73,40
362.37515,362.55975,86,73,40
362.83667,362.95206,78,73,40
362.95206,363.06744,79,73,40
363.06744,363.18283,81,73,40
363.18283,363.29822,83,73,40
363.29822,363.48282,84,73,40
363.529,363.7136,81,73,40
363.75977,363.87515,79,73,40
363.87515,363.99054,81,73,40
363.99054,364.1059,83,73,40
364.1059,364.22128,84,73,40
364.22128,364.4059,86,73,40
364.68283,364.79822,78,73,40
364.79822,364.9136,79,73,40
364.9136,365.029,81,73,40
365.029,365.1213,83,73,40
365.14438,365.25977,84,73,40
365.25977,365.37515,81,73,40
365.37515,365.4905,84,73,40
365.4905,365.58282,81,73,40
365.6059,365.79053,79,73,40
365.83667,365.95206,83,73,40
365.95206,365.98666,81,73,40
366.06744,366.25208,79,73,40
366.29822,366.4136,83,73,40
366.4136,366.4482,81,73,40
366.529,366.89822,79,73,40
367.33667,367.429,64,80,40
367.45206,367.9136,79,108,40
367.45206,367.9136,72,108,40
367.45206,367.9136,64,108,40
368.029,368.0636,77,107,40
368.14438,368.179,76,107,40
368.25977,368.29437,74,107,40
368.37512,368.40976,72,107,40
368.4905,368.52515,71,107,40
368.6059,368.64053,69,107,40
368.72128,368.7559,67,107,40
368.83667,368.87128,65,107,40
368.95206,368.98666,64,107,40
369.06744,369.10205,62,107,40
369.18283,369.21744,60,107,40
369.29822,369.4136,59,80,40
369.4136,369.529,62,80,40
369.529,369.64438,60,80,40
369.64438,369.75974,64,80,40
369.75974,369.87512,62,80,40
369.87512,369.9905,65,80,40
369.9905,370.1059,64,80,40
370.1059,370.22128,67,80,40
370.22128,370.5905,65,80,40
371.14438,371.25974,77,107,40
371.25974,371.35205,79,107,40
371.37512,371.40976,81,107,40
371.4905,371.52515,79,107,40
371.6059,371.6405,77,107,40
371.72128,371.7559,76,107,40
371.83667,371.87128,74,107,40
371.95206,371.98666,72,107,40
372.06744,372.18283,71,107,40
372.18283,372.29822,72,107,40
372.29822,372.33282,74,107,40
372.4136,372.4482,72,107,40
372.529,372.5636,71,107,40
372.64435,372.679,69,107,40
372.75974,372.79437,67,107,40
372.87512,372.90976,65,107,40
372.9905,373.1059,64,80,40
373.1059,373.22128,67,80,40
373.22128,373.33667,65,80,40
373.33667,373.45206,69,80,40
373.45206,373.56744,67,80,40
373.56744,373.68283,70,80,40
373.68283,373.79822,69,80,40
373.79822,373.9136,72,80,40
373.9136,374.28284,70,80,40
374.83667,374.95206,76,80,40
374.95206,375.06744,79,80,40
375.06744,375.18283,77,80,40
375.18283,375.29822,81,80,40
375.29822,375.4136,79,80,40
375.4136,375.52896,82,80,40
375.52896,375.64435,81,80,40
375.64435,375.75974,84,80,40
375.75974,376.12897,82,80,40
376.22128,376.5905,82,88,40
376.68283,376.91357,82,97,40
376.91357,377.0982,81,97,40
377.14435,377.8828,81,97,40
378.06744,378.43668,81,97,40
378.52896,378.87512,81,97,40
378.87512,378.96744,77,97,40
378.9905,379.54434,81,97,40
379.68283,379.91357,86,97,40
379.91357,380.14435,85,97,40
380.14435,380.37512,86,97,40
380.37512,380.6059,86,97,40
380.6059,380.7905,76,97,40
380.83667,381.57513,76,97,40
381.75974,382.12897,76,97,40
382.22128,382.56744,76,97,40
382.56744,382.65973,77,97,40
382.6828,383.23666,76,97,40
383.37512,383.6059,81,97,40
383.6059,383.83667,83,97,40
383.83667,384.0674,84,97,40
384.0674,384.2982,84,88,40
384.2982,384.41357,74,88,40
384.75974,384.94434,74,80,40
384.9905,385.22128,74,80,40
385.22128,385.33667,84,83,40
385.6828,385.86743,84,89,40
385.91357,386.14435,84,93,40
386.14435,386.25974,76,96,40
386.6059,386.7905,76,103,40
386.83667,387.0674,76,106,40
387.0674,387.1828,84,108,40
387.52896,387.7136,84,108,40
387.75974,387.87512,84,80,40
388.22128,388.33664,81,80,40
388.33664,388.45203,80,80,40
388.45203,388.5674,83,80,40
388.5674,388.6828,81,80,40
388.6828,388.86743,84,80,40
389.14435,389.25974,77,80,40
389.25974,389.37512,76,80,40
389.37512,389.4905,79,80,40
389.4905,389.6059,77,80,40
389.6059,389.7905,81,80,40
390.0674,390.1828,74,107,40
390.1828,390.2982,73,107,40
390.2982,390.41357,76,107,40
390.41357,390.52896,74,107,40
390.52896,390.64435,77,107,40
390.64435,390.75974,79,107,40
390.75974,390.87512,77,107,40
390.87512,390.9905,76,107,40
390.9905,391.1059,74,107,40
391.1059,391.22125,72,107,40
391.22125,391.33664,71,107,40
391.33664,391.42896,69,107,40
391.45203,391.63666,67,107,40
391.6828,391.77512,69,107,40
391.7982,391.8905,71,107,40
391.91357,392.0059,72,107,40
392.02896,392.12128,74,107,40
392.14435,392.23666,76,107,40
392.25974,392.35202,77,107,40
392.37512,392.4905,79,107,40
392.4905,392.5828,77,107,40
392.6059,392.69818,76,107,40
392.72125,392.81357,77,107,40
392.83664,392.92896,79,107,40
392.95203,393.04434,81,107,40
393.0674,393.15973,83,107,40
393.1828,393.27512,84,107,40
393.2982,393.41357,80,107,40
393.41357,393.52896,81,107,40
393.52896,393.62128,83,107,40
393.64435,393.73666,81,107,40
393.75974,393.85202,79,107,40
393.87512,393.9674,77,107,40
393.9905,394.0828,76,107,40
394.10587,394.19818,74,107,40
394.22125,394.2982,76,107,40
394.2982,394.37512,74,107,40
394.37512,394.45203,76,107,40
394.45203,394.52896,74,107,40
394.52896,394.60587,76,107,40
394.60587,394.6828,74,107,40
394.6828,394.75974,76,107,40
394.75974,394.83664,74,107,40
394.83664,394.91357,76,107,40
394.91357,394.9905,74,107,40
394.9905,395.0674,72,107,40
395.0674,395.14435,74,107,40
395.14435,395.51358,72,91,40
396.0674,396.20587,79,77,40
396.52896,396.66742,79,77,40
396.99048,397.60587,78,77,40
397.60587,397.72894,79,77,40
397.75974,397.80588,76,77,40
397.91357,398.0674,78,77,40
398.0674,398.1905,79,77,40
398.22125,398.26743,76,77,40
398.3751,398.52896,78,77,40
398.52896,398.6828,79,77,40
398.6828,398.72894,76,77,40
398.83664,399.1828,79,77,40
399.1828,399.27512,76,77,40
399.2982,399.66742,79,77,40
399.99048,400.45203,84,82,40
400.45203,400.91357,83,82,40
400.91357,401.3751,81,82,40
401.3751,401.60587,79,82,40
401.60587,401.83664,78,82,40
401.83664,402.0674,77,82,40
402.0674,402.2982,76,82,40
402.2982,402.52896,81,82,40
402.52896,402.99048,72,85,40
402.99048,403.3597,71,77,40
404.3751,404.74432,84,77,40
404.83664,405.20587,84,77,40
405.2982,405.99048,84,77,40
405.99048,406.1751,88,77,40
406.22125,406.3751,83,77,40
406.3751,406.49817,86,77,40
406.52893,406.5751,84,77,40
406.6828,406.72894,83,77,40
406.83664,406.88278,81,77,40
406.99048,407.03662,79,77,40
407.14432,407.1905,77,77,40
407.2982,407.34433,76,77,40
407.45203,407.49817,74,77,40
407.60587,407.7597,72,77,40
407.7597,407.80588,74,77,40
407.91354,407.95972,70,77,40
408.0674,408.11356,69,77,40
408.22125,408.2674,84,77,40
408.3751,408.42126,83,77,40
408.52893,408.5751,81,77,40
408.6828,408.72894,79,77,40
408.83664,408.88278,77,77,40
408.99048,409.14432,76,77,40
409.14432,409.1905,81,77,40
409.2982,409.34433,79,77,40
409.45203,409.49817,77,77,40
409.60587,409.652,76,77,40
409.7597,409.80588,74,77,40
409.91354,410.28278,72,94,40
411.29816,411.6674,67,108,40
411.7597,411.88278,67,108,40
411.91354,411.95972,79,108,40
412.0674,412.11356,77,108,40
412.22125,412.2674,76,108,40
412.3751,412.42123,74,108,40
412.52893,412.5751,72,108,40
412.68277,412.72894,71,108,40
412.83664,412.88278,69,108,40
412.99048,413.03662,67,108,40
413.14432,413.18277,65,108,40
413.18277,413.22125,67,108,40
413.22125,413.2597,65,108,40
413.2597,413.41354,64,108,40
413.41354,413.5674,65,108,40
413.60587,413.9751,64,108,40
414.99048,415.3597,79,68,40
415.45203,415.5751,79,68,40
415.60587,415.72894,88,68,40
415.7597,415.88278,86,68,40
415.91354,416.03662,84,68,40
416.06738,416.19046,83,68,40
416.22125,416.34433,81,68,40
416.3751,416.49817,79,68,40
416.52893,416.652,77,68,40
416.68277,416.80585,76,68,40
416.83664,416.8751,74,68,40
416.8751,416.91354,76,68,40
416.91354,416.952,74,68,40
416.952,417.10587,72,68,40
417.10587,417.2597,74,68,40
417.29816,417.6674,76,68,40
418.68277,419.052,83,108,40
419.14432,419.2597,84,108,40
419.2597,419.2943,83,108,40
419.3751,419.4097,81,108,40
419.49048,419.5251,79,108,40
419.60587,419.64047,77,108,40
419.72125,419.75586,76,108,40
419.8366,419.87125,74,108,40
419.952,419.98663,72,108,40
420.06738,420.18277,71,108,40
420.18277,420.21738,72,108,40
420.29816,420.33276,74,108,40
420.41354,420.44815,72,108,40
420.52893,420.64432,71,108,40
420.64432,420.67892,72,108,40
420.7597,420.7943,76,108,40
420.8751,420.9097,72,108,40
420.99048,421.10587,81,108,40
421.10587,421.14047,79,108,40
421.22122,421.25586,77,108,40
421.3366,421.37125,76,108,40
421.452,421.48663,74,108,40
421.56738,421.60202,72,108,40
421.68277,421.71738,71,108,40
421.79816,421.83276,69,108,40
421.91354,422.02893,68,108,40
422.02893,422.14432,69,108,40
422.14432,422.17892,71,108,40
422.2597,422.2943,69,108,40
422.3751,422.49048,68,108,40
422.49048,422.5251,69,108,40
422.60587,422.64047,72,108,40
422.72122,422.75586,69,108,40
422.8366,422.952,77,108,40
422.952,422.98663,76,108,40
423.06738,423.102,74,108,40
423.18277,423.21738,72,108,40
423.29816,423.33276,71,108,40
423.41354,423.44815,69,108,40
423.52893,423.56354,67,108,40
423.64432,423.67892,65,108,40
423.7597,423.8751,64,108,40
423.8751,423.9097,65,108,40
423.99048,424.0251,67,108,40
424.10583,424.14047,65,108,40
424.22122,424.3366,64,108,40
424.3366,424.37125,65,108,40
424.452,424.48663,69,108,40
424.56738,424.602,65,108,40
424.68277,424.79816,64,108,40
424.79816,424.83276,67,108,40
424.91354,424.94815,65,108,40
425.02893,425.06354,64,108,40
425.14432,425.17892,65,108,40
425.2597,425.2943,67,108,40
425.3751,425.4097,69,108,40
425.49048,425.5251,71,108,40
425.60583,425.72122,72,108,40
425.72122,425.8366,71,108,40
425.8366,425.87125,72,108,40
425.952,425.9866,74,108,40
426.06738,426.18277,76,108,40
426.18277,426.21738,77,108,40
426.29816,426.33276,79,108,40
426.41354,426.44815,81,108,40
426.52893,427.2674,82,108,40
427.452,428.19046,61,108,40
428.37506,429.11353,62,108,40
429.29816,430.03662,81,108,40
430.22122,430.9597,79,108,40
431.14432,431.22122,72,108,40
431.22122,431.29816,71,108,40
431.29816,431.37506,72,108,40
431.37506,431.452,71,108,40
431.452,431.52893,72,108,40
431.52893,431.60583,71,108,40
431.60583,431.68277,72,108,40
431.68277,431.75967,71,108,40
431.75967,431.8366,72,108,40
431.8366,431.91354,71,108,40
431.91354,431.99045,69,108,40
431.99045,432.052,71,108,40
432.06738,432.4366,72,105,40
433.91354,434.99814,67,88,40
435.06738,435.29816,67,88,40
435.29816,435.5289,69,88,40
435.5289,435.75967,71,88,40
435.75967,436.22122,74,88,40
436.22122,436.59045,72,73,40
437.8366,438.06738,78,73,40
438.06738,438.29816,79,73,40
438.29816,438.5289,78,73,40
438.5289,438.75967,79,73,40
438.75967,438.99045,80,73,40
438.99045,439.22122,81,73,40
439.22122,439.452,83,73,40
439.452,439.88467,84,73,40
441.29813,442.38275,79,73,40
442.452,442.68274,77,73,40
442.68274,442.9135,76,73,40
442.9135,443.1443,74,73,40
443.1443,443.60583,71,73,40
443.60583,443.97507,72,73,40
444.93274,444.9789,79,80,40
444.99045,446.07507,91,80,40
446.1443,446.32892,89,80,40
446.37506,446.55966,88,80,40
446.60583,446.79044,86,80,40
446.8366,447.06735,83,80,40
447.06735,447.25198,84,80,40
447.29813,447.36737,84,80,40
447.5289,447.59814,84,80,40
447.75967,448.1289,84,80,40
448.9135,449.1443,72,82,40
449.1443,449.25967,84,83,40
449.37506,449.44427,84,85,40
449.60583,449.97507,84,87,40
450.75967,450.99045,72,94,40
450.99045,451.10583,84,96,40
451.22122,451.29044,84,98,40
451.45197,451.8212,84,99,40
452.60583,452.83658,72,108,40
452.83658,452.95197,84,108,40
453.06735,453.25198,84,108,40
453.29813,453.66736,84,108,40
454.2212,455.30582,81,108,40
455.37506,455.6058,82,108,40
455.6058,455.83658,84,108,40
455.83658,456.06735,86,108,40
456.06735,457.15198,77,108,40
457.2212,457.45197,76,94,40
457.45197,457.68274,82,94,40
457.68274,457.9135,79,94,40
457.9135,458.1443,77,94,40
458.1443,458.37506,76,94,40
458.37506,458.6058,79,94,40
458.6058,458.79044,76,94,40
458.83658,459.06735,74,94,40
459.06735,459.29813,72,94,40
459.29813,459.5289,74,94,40
459.5289,459.7135,70,94,40
459.75967,459.99042,69,80,40
459.99042,460.2212,67,85,40
460.2212,460.45197,66,89,40
460.45197,460.68274,67,94,40
460.68274,460.9135,68,99,40
460.9135,461.1443,69,105,40
461.1443,461.37503,70,108,40
461.37503,461.55966,71,108,40
461.6058,462.69043,72,73,40
462.75964,462.99042,73,73,40
462.99042,463.2212,74,73,40
463.2212,463.45197,76,73,40
463.45197,463.8212,79,73,40
463.9135,464.28275,77,73,40
465.29813,466.38272,72,73,40
466.45197,466.63657,73,73,40
466.68274,466.86734,74,73,40
466.9135,467.0981,76,73,40
467.14426,467.37503,79,79,40
467.37503,467.55966,77,82,40
467.6058,468.15964,72,84,40
468.29813,468.48273,73,92,40
468.52887,468.7135,74,94,40
468.75964,468.94427,76,97,40
468.99042,469.2212,79,99,40
469.2212,469.4058,77,102,40
469.45197,470.0058,72,105,40
470.14426,470.3289,73,108,40
470.37503,470.55966,74,108,40
470.6058,470.7904,76,108,40
470.83658,471.06735,79,108,40
471.06735,471.25195,77,108,40
471.52887,471.7135,72,108,40
471.75964,471.99042,81,108,40
471.99042,472.17502,79,108,40
472.45197,472.63657,72,108,40
472.68274,472.91348,82,108,40
472.91348,473.0981,81,108,40
473.37503,473.55963,81,108,40
473.6058,473.83658,83,108,40
473.83658,474.02118,84,108,40
474.2981,474.48273,84,108,40
474.52887,474.75964,84,108,40
474.75964,474.94427,79,108,40
475.2212,475.4058,76,108,40
475.45197,475.6827,79,108,40
475.6827,475.86734,77,108,40
476.14426,476.3289,74,108,40
476.37503,476.74426,72,108,40
477.52887,477.5981,79,108,40
477.75964,477.8289,83,108,40
477.99042,478.05963,86,108,40
478.2212,478.91348,89,108,40
478.91348,479.0981,86,108,40
479.14426,479.83655,88,108,40
479.83655,480.02118,84,108,40
480.06732,480.75964,81,108,40
480.75964,480.94424,86,108,40
480.99042,481.35965,84,108,40
481.45193,481.52887,84,108,40
481.52887,481.6058,83,108,40
481.6058,481.6827,84,108,40
481.6827,481.75964,83,108,40
481.75964,481.83655,81,108,40
481.83655,481.91348,83,108,40
481.91348,482.2827,84,108,40
483.06732,483.13657,79,108,40
483.2981,483.36734,83,108,40
483.52887,483.59808,86,108,40
483.75964,483.94424,89,108,40
483.99042,484.35965,89,108,40
484.45193,484.63657,86,108,40
484.6827,484.86734,88,108,40
484.91348,485.2827,88,108,40
485.37503,485.55963,84,108,40
485.60577,485.7904,81,108,40
485.83655,486.20578,81,108,40
486.2981,486.4827,86,108,40
486.52887,486.8981,84,108,40
486.9904,487.05194,84,108,40
487.06732,487.12888,83,108,40
487.14426,487.20578,84,108,40
487.22116,487.2827,83,108,40
487.2981,487.35962,81,108,40
487.37503,487.43655,83,94,40
487.45193,487.82117,84,94,40
489.2981,490.38272,67,94,40
490.45193,490.63657,67,94,40
490.6827,490.8673,69,94,40
490.91348,491.09808,71,94,40
491.14426,491.32886,74,94,40
491.375,491.55963,72,94,40
492.9904,494.075,79,94,40
494.14423,494.32886,79,94,40
494.375,494.55963,81,94,40
494.60577,494.7904,83,94,40
494.83655,495.06732,86,94,40
495.06732,495.25192,84,94,40
495.2981,495.44208,84,87,40
495.77808,495.9281,84,80,40
496.27808,496.4346,84,73,40
496.79984,497.23618,84,73,40
3.75,6.25,63,73,40
6.25,7.5,62,73,40
7.5,8.75,61,77,40
8.75,10.625,62,91,40
10.625,11.25,69,108,40
11.25,11.875,71,108,40
11.875,12.5,72,108,40
12.5,13.0,74,108,40
18.75,21.25,61,73,40
21.25,22.5,60,73,40
22.5,23.75,59,79,40
23.75,25.625,60,93,40
25.625,26.25,67,108,40
26.25,26.875,69,108,40
26.875,27.5,70,108,40
27.5,28.0,72,108,40
31.25,34.375,65,73,40
34.375,35.0,62,73,40
35.0,38.0,63,73,40
38.125,38.4375,65,73,40
38.4375,38.75,63,73,40
38.75,41.75,62,73,40
41.875,42.5,59,84,40
42.5,43.5,60,92,40
43.75,45.5,72,105,40
45.625,46.25,71,108,40
46.25,46.875,72,108,40
46.875,47.5,73,108,40
47.5,49.25,74,108,40
49.375,50.0,72,108,40
50.0,50.625,70,108,40
50.625,51.25,69,108,40
51.25,51.875,68,108,40
51.875,52.5,67,108,40
52.5,54.5,67,108,40
55.0,55.625,65,108,40
55.625,56.25,60,108,40
56.25,57.25,62,108,40
58.125,58.75,71,73,40
58.75,59.375,72,73,40
59.375,60.0,63,73,40
60.0,61.0,62,73,40
61.875,62.5,65,73,40
62.5,63.125,63,73,40
63.125,63.75,60,73,40
63.75,64.75,59,73,40
65.625,66.25,59,73,40
66.25,66.875,60,73,40
66.875,67.5,57,73,40
67.5,69.0,55,73,40
69.375,70.0,55,80,40
70.0,70.625,55,80,40
70.625,71.25,55,80,40
71.25,71.875,55,100,40
71.875,72.5,58,80,40
72.5,74.375,59,73,40
74.375,74.875,59,73,40
75.0,75.625,59,100,40
75.625,76.25,61,73,40
76.25,77.75,62,73,40
78.125,78.65625,65,73,40
78.75,80.25,65,87,40
80.25,83.25,65,60,40
84.75,84.934616,64,43,40
84.98077,85.16538,64,43,40
85.21154,85.39616,64,43,40
85.44231,85.62692,64,43,40
85.67307,85.85769,64,43,40
85.90385,86.08846,64,43,40
86.13461,86.36538,65,43,40
86.36538,86.59615,67,43,40
86.59615,86.78077,69,43,40
86.82692,87.011536,69,43,40
87.05769,87.2423,69,43,40
87.28846,87.473076,69,43,40
87.519226,87.70384,69,43,40
87.75,87.93461,69,43,40
87.98077,88.16538,69,43,40
88.21153,88.39615,69,43,40
88.44231,88.62692,67,43,40
88.67307,88.85769,67,43,40
88.90384,89.088455,72,43,40
89.13461,89.31923,72,43,40
89.36538,89.549995,71,43,40
89.596146,89.78076,71,43,40
89.82692,90.011536,71,43,40
90.057686,90.2423,71,43,40
90.28846,90.47307,71,43,40
90.519226,90.74999,71,43,40
90.74999,90.98077,72,43,40
90.98077,91.21153,71,43,40
91.21153,91.39615,72,43,40
91.4423,91.626915,67,43,40
91.67307,91.85769,74,43,40
91.90384,92.088455,67,43,40
92.134605,92.31922,76,43,40
92.36538,92.549995,76,43,40
92.596146,92.78076,76,43,40
92.82691,93.01153,76,43,40
93.057686,93.2423,76,43,40
93.28845,93.47307,76,43,40
93.51922,93.703835,74,43,40
93.74999,93.93461,74,43,40
93.98076,94.21153,72,43,40
94.21153,94.4423,71,43,40
94.4423,94.673065,72,43,40
94.673065,94.90384,71,43,40
94.90384,95.08845,72,43,40
95.134605,95.31922,72,43,40
95.36537,95.54999,70,43,40
95.596146,95.78076,70,43,40
95.82691,96.01153,69,43,40
96.05768,96.242294,69,43,40
96.28845,96.47307,67,43,40
96.51922,96.703835,67,43,40
96.749985,96.9346,65,43,40
96.98076,97.165375,65,43,40
97.211525,97.39614,69,43,40
97.44229,97.62691,69,43,40
97.673065,98.134605,62,43,40
98.134605,98.50383,59,51,40
99.51922,100.60383,60,98,40
100.67306,100.90383,60,98,40
100.90383,101.1346,59,98,40
101.1346,101.36537,60,98,40
101.36537,102.288445,64,98,40
102.288445,102.65768,62,98,40
103.21152,104.296135,59,98,40
104.365364,104.59613,59,98,40
104.59613,104.826904,60,98,40
104.826904,105.05767,62,98,40
105.05767,105.98075,65,98,40
105.98075,106.349976,64,98,40
106.903824,107.98844,76,98,40
108.05767,108.28844,72,98,40
108.28844,108.5192,74,108,40
108.5192,108.70382,76,98,40
108.74998,108.98074,77,98,40
108.98074,109.21152,81,98,40
109.21152,109.44228,79,98,40
109.44228,109.67305,77,98,40
109.67305,109.903824,76,108,40
109.903824,110.13459,72,98,40
110.13459,110.36536,74,98,40
110.36536,110.57305,76,98,40
110.59613,110.8269,77,98,40
110.8269,111.05766,81,98,40
111.05766,111.28844,79,80,40
111.28844,111.5192,77,80,40
111.5192,111.74997,76,104,40
111.74997,111.98074,72,80,40
111.98074,112.21151,74,80,40
112.21151,112.419205,76,80,40
112.44228,112.67305,76,64,40
112.67305,112.857666,67,64,40
112.90382,112.973045,67,64,40
113.13459,113.20382,67,64,40
113.36536,113.59612,67,64,40
113.59612,113.78074,65,64,40
113.8269,113.896126,65,64,40
114.05766,114.12689,65,64,40
114.28843,114.5192,65,80,40
114.5192,114.70382,79,85,40
114.74997,114.8192,77,89,40
114.980736,115.04997,77,94,40
115.21151,115.442276,77,99,40
115.442276,115.62689,76,105,40
115.67304,115.74228,76,108,40
115.90382,115.973045,76,108,40
116.13458,116.503815,74,94,40
117.05766,117.42689,65,94,40
117.980736,118.34997,67,94,40
118.90381,119.27304,72,94,40
119.82689,120.19612,74,94,40
120.74996,121.119194,65,94,40
121.67304,122.04227,64,102,40
122.134575,122.87304,64,102,40
123.057655,123.28842,65,102,40
123.28842,123.47304,62,102,40
123.519196,124.44227,62,102,40
124.44227,124.8115,60,94,40
127.211494,128.29611,67,94,40
128.36534,128.59612,67,94,40
128.59612,128.82687,69,94,40
128.82687,129.05765,71,94,40
129.05765,129.51918,74,94,40
129.51918,130.25764,72,94,40
130.44226,130.8115,72,94,40
130.9038,131.48073,72,94,40
131.48073,131.5961,71,94,40
131.5961,131.71149,69,94,40
131.71149,131.82687,67,94,40
131.82687,132.01149,66,94,40
132.05765,132.2884,66,88,40
132.2884,132.51918,67,101,40
132.51918,132.74995,69,108,40
132.74995,133.11919,71,102,40
133.21149,133.3961,74,102,40
133.44226,133.62688,71,102,40
133.67303,133.85765,67,102,40
133.9038,133.97302,66,102,40
134.13457,134.2038,67,102,40
134.36534,134.43457,69,102,40
134.5961,134.78072,71,102,40
134.82687,135.01149,67,102,40
135.05765,135.17302,74,102,40
135.17302,135.2884,71,102,40
135.2884,135.4038,74,102,40
135.4038,135.51918,71,102,40
135.51918,135.7038,67,102,40
135.74995,135.81918,66,102,40
135.98071,136.04994,67,102,40
136.21149,136.28072,69,102,40
136.44226,136.62688,71,94,40
136.9038,137.01918,74,68,40
137.01918,137.13457,72,68,40
137.13457,137.24995,74,68,40
137.24995,137.36533,72,68,40
137.36533,137.54994,71,68,40
137.82687,137.94226,71,68,40
137.94226,138.05763,69,68,40
138.05763,138.17302,71,68,40
138.17302,138.2884,69,68,40
138.2884,138.47302,67,68,40
138.74994,138.86533,67,94,40
138.86533,138.98071,66,94,40
138.98071,139.0961,67,94,40
139.0961,139.21149,66,94,40
139.21149,139.94995,67,94,40
140.13457,140.36533,66,94,40
140.36533,140.54994,62,94,40
140.5961,140.66533,66,94,40
140.82687,140.8961,66,94,40
141.2884,141.47302,67,94,40
141.51918,141.7038,64,94,40
141.74994,141.93456,67,94,40
141.98071,142.21149,66,94,40
142.21149,142.3961,62,94,40
142.44225,142.51147,66,94,40
142.67302,142.74225,66,94,40
143.13455,143.31917,67,94,40
143.36533,143.45763,64,94,40
143.48071,143.57301,67,94,40
143.5961,143.6884,64,94,40
143.71149,143.80379,67,94,40
143.82686,143.94225,66,94,40
143.94225,144.05763,69,94,40
144.05763,144.17302,67,94,40
144.17302,144.2884,69,94,40
144.2884,144.4038,66,94,40
144.4038,144.51917,69,94,40
144.51917,144.63455,67,94,40
144.63455,144.74994,69,94,40
144.74994,145.11917,66,94,40
145.67302,145.90378,62,108,40
145.90378,146.0884,59,108,40
146.13455,146.20378,62,108,40
146.36533,146.43456,62,108,40
146.59608,146.96532,62,108,40
148.44225,148.55763,66,80,40
148.55763,148.67302,69,80,40
148.67302,148.78839,67,80,40
148.78839,148.90378,71,80,40
148.90378,149.01917,69,80,40
149.01917,149.13455,72,80,40
149.13455,149.24994,71,80,40
149.24994,149.36533,74,80,40
149.36533,149.59608,72,96,40
149.59608,149.7807,69,96,40
149.82686,150.05763,72,96,40
150.05763,150.24225,69,96,40
150.28839,150.65762,76,96,40
150.9807,151.16531,66,96,40
151.21147,151.5807,67,80,40
153.9807,154.09608,74,80,40
154.09608,154.21147,76,80,40
154.21147,154.32686,77,80,40
154.32686,154.44225,76,80,40
154.44225,154.55762,74,80,40
154.55762,154.673,72,80,40
154.673,154.78839,71,80,40
154.78839,154.90378,69,80,40
154.90378,156.01147,68,69,40
156.28839,156.74992,74,69,40
156.74992,157.85762,72,69,40
158.13454,158.50377,64,69,40
158.59608,159.70377,66,69,40
159.9807,160.34993,69,69,40
160.44223,161.54993,71,69,40
161.82684,162.19608,69,69,40
162.28839,162.47299,67,85,40
162.74992,162.9807,67,80,40
162.9807,163.16531,71,80,40
163.673,163.90376,72,72,40
163.90376,164.08838,69,75,40
164.59607,164.82684,66,84,40
164.82684,165.01146,69,88,40
165.51915,165.74992,71,97,40
165.74992,165.93454,67,99,40
166.44223,166.55762,69,94,40
166.55762,166.67299,68,94,40
166.67299,166.78838,71,94,40
166.78838,166.90376,69,94,40
166.90376,167.08838,72,94,40
167.3653,167.48068,60,94,40
167.48068,167.59607,59,94,40
167.59607,167.71146,60,94,40
167.71146,167.82684,59,94,40
167.82684,168.93452,64,107,40
168.98068,169.21146,69,107,40
169.21146,169.44223,67,107,40
169.44223,169.67299,66,107,40
169.67299,170.78069,67,107,40
171.0576,171.70377,67,107,40
171.74991,171.93452,67,107,40
171.98068,172.1653,67,107,40
172.21146,172.39607,67,107,40
172.44221,172.62683,66,107,40
172.67299,172.8576,66,107,40
172.90376,173.08838,66,107,40
173.13452,173.31914,66,107,40
173.3653,173.73453,67,107,40
174.28838,174.42683,59,80,40
174.74991,174.88837,59,80,40
175.21144,175.79607,58,80,40
175.82683,175.9499,59,80,40
175.98068,176.02682,55,80,40
176.13452,176.2576,58,80,40
176.28838,176.41145,59,80,40
176.44221,176.48837,55,80,40
176.59607,176.71913,58,80,40
176.74991,176.87299,59,80,40
176.90375,176.9499,55,80,40
177.0576,177.33452,59,80,40
177.40375,177.49606,55,80,40
177.51913,177.88837,59,80,40
177.98068,178.21144,63,58,40
178.21144,178.44221,64,72,40
178.44221,178.67299,61,81,40
178.67299,178.90375,62,88,40
178.90375,179.13452,59,97,40
179.13452,179.3653,60,105,40
179.3653,179.59605,58,108,40
179.59605,179.82683,59,78,40
179.82683,180.0576,61,78,40
180.0576,180.28836,69,78,40
180.28836,180.51913,67,78,40
180.51913,180.74991,67,78,40
180.74991,181.21144,59,119,40
181.21144,181.48836,57,94,40
181.67297,181.81145,74,94,40
182.13452,182.27298,74,94,40
182.59605,183.21144,73,94,40
183.21144,183.33452,74,94,40
183.36528,183.41144,71,94,40
183.51913,183.67297,73,94,40
183.67297,183.79605,74,94,40
183.82683,183.87297,71,94,40
183.98067,184.13452,73,94,40
184.13452,184.2576,74,94,40
184.28836,184.33452,71,94,40
184.44221,184.71913,74,94,40
184.78836,184.88068,71,94,40
184.90375,185.27298,74,94,40
185.82683,186.28836,62,94,40
186.28836,186.41144,60,94,40
186.4422,186.48836,76,94,40
186.59605,186.64221,74,94,40
186.7499,186.79605,72,94,40
186.90375,186.9499,71,94,40
187.05759,187.10374,69,94,40
187.21144,187.36528,67,94,40
187.36528,187.41144,72,94,40
187.51913,187.56528,71,94,40
187.67297,187.71913,69,94,40
187.82681,187.87297,67,94,40
187.98067,188.02682,66,94,40
188.1345,188.50374,67,94,40
189.51912,189.98067,66,108,40
189.98067,190.4422,67,108,40
190.4422,190.81143,62,108,40
191.36528,191.82681,78,66,40
191.82681,192.28836,79,66,40
192.28836,192.65758,74,66,40
193.21143,193.58066,66,66,40
193.67297,194.0422,67,66,40
194.1345,194.50374,62,66,40
195.05759,195.42682,78,71,40
195.51912,195.88835,79,71,40
195.98065,196.34988,74,71,40
197.36526,197.54988,74,94,40
197.59604,197.71143,62,94,40
197.82681,198.05757,62,94,40
199.21143,199.39604,72,94,40
199.4422,199.55757,60,94,40
199.67296,199.90373,60,94,40
201.05757,201.24219,69,94,40
201.28835,201.40373,57,94,40
201.51912,201.74988,57,94,40
202.90373,203.13449,55,94,40
204.74988,204.86526,55,59,40
204.86526,204.98065,67,59,40
204.98065,205.09604,66,59,40
205.09604,205.21141,67,59,40
205.21141,205.3268,69,59,40
205.3268,205.44218,67,59,40
205.44218,205.55757,66,59,40
205.55757,205.67296,67,59,40
205.67296,205.78835,55,59,40
205.78835,205.90373,67,59,40
205.90373,206.0191,66,59,40
206.0191,206.13449,67,59,40
206.13449,206.24988,69,59,40
206.24988,206.36526,67,59,40
206.36526,206.48065,66,59,40
206.48065,206.59604,67,59,40
206.59604,206.71141,55,59,40
206.71141,206.8268,67,59,40
206.8268,206.94218,66,59,40
206.94218,207.05757,67,59,40
207.05757,207.17296,69,59,40
207.17296,207.28835,67,59,40
207.28835,207.40372,66,59,40
207.40372,207.5191,67,59,40
207.5191,207.63449,55,59,40
207.63449,207.74988,67,59,40
207.74988,207.86526,66,59,40
207.86526,207.98065,67,59,40
207.98065,208.09602,69,59,40
208.09602,208.21141,67,59,40
208.21141,208.3268,66,59,40
208.3268,208.44218,67,59,40
208.44218,208.55757,59,59,40
208.55757,208.67296,71,59,40
208.67296,208.78833,69,59,40
208.78833,208.90372,71,59,40
208.90372,209.0191,72,59,40
209.0191,209.13449,71,59,40
209.13449,209.24988,69,59,40
209.24988,209.36526,71,59,40
209.36526,209.48065,62,59,40
209.48065,209.59602,69,59,40
209.59602,209.71141,67,59,40
209.71141,209.8268,69,59,40
209.8268,209.94218,71,59,40
209.94218,210.05757,69,59,40
210.05757,210.17296,67,59,40
210.17296,210.28833,69,59,40
210.28833,211.37296,67,94,40
211.44218,211.6268,67,80,40
211.67294,211.85756,69,80,40
211.90372,212.08833,71,80,40
212.13449,212.50372,74,80,40
212.59602,212.96526,72,80,40
214.21141,214.44218,66,80,40
214.44218,214.67294,67,80,40
214.67294,214.90372,66,80,40
214.90372,215.13449,67,80,40
215.13449,215.36525,68,80,40
215.36525,215.59602,69,80,40
215.59602,215.8268,71,80,40
215.8268,217.30371,72,94,40
217.67294,217.90372,71,94,40
217.90372,218.13448,74,94,40
218.13448,218.36525,71,94,40
218.36525,218.59602,67,94,40
218.59602,218.82678,66,94,40
218.82678,219.05756,62,94,40
219.05756,219.28833,60,94,40
219.28833,219.51909,57,94,40
219.51909,219.7037,55,94,40
219.74986,219.93448,59,94,40
219.98064,220.16525,74,94,40
220.21141,220.39601,79,94,40
220.44217,220.62679,78,94,40
220.67294,220.85756,76,94,40
220.90372,221.08832,74,94,40
221.13448,221.31909,72,94,40
221.36525,221.59602,69,94,40
221.59602,221.82678,71,94,40
221.82678,222.05756,74,94,40
222.05756,222.28833,67,94,40
222.28833,222.51909,66,94,40
222.51909,222.74986,62,94,40
222.74986,222.98064,60,94,40
222.98064,223.16525,57,94,40
223.2114,223.44217,59,94,40
223.44217,223.62679,62,94,40
223.67294,223.9037,74,94,40
223.9037,224.08832,79,94,40
224.13448,224.36525,78,94,40
224.36525,224.59601,76,94,40
224.59601,224.82678,74,94,40
224.82678,225.05756,72,94,40
225.05756,225.28831,70,94,40
225.28831,225.47293,71,94,40
225.51909,225.58832,71,94,40
225.74986,225.81909,71,94,40
225.98062,226.34985,71,94,40
227.13448,227.36523,57,68,40
227.36523,227.48062,69,70,40
227.59601,227.66524,69,71,40
227.82678,228.19601,69,74,40
228.98062,229.2114,59,83,40
229.2114,229.32678,71,85,40
229.44217,229.5114,71,87,40
229.67293,230.04216,71,89,40
230.82678,231.05754,60,99,40
231.05754,231.17293,72,100,40
231.28831,231.35754,72,102,40
231.51909,231.88832,72,104,40
232.44215,233.52678,72,94,40
233.59601,233.82677,74,94,40
233.82677,234.05754,76,94,40
234.05754,234.26523,77,94,40
234.28831,235.396,62,94,40
239.82677,240.05754,64,54,40
240.05754,240.2883,65,54,40
240.2883,240.51907,64,54,40
240.51907,240.74985,65,54,40
240.74985,241.11908,64,54,40
241.67291,241.90369,76,54,40
241.90369,242.13446,77,54,40
242.13446,242.36523,76,54,40
242.36523,242.596,77,54,40
242.596,242.96523,76,54,40
243.51907,243.74985,64,54,40
243.74985,243.9806,65,46,40
243.9806,244.21138,64,54,40
244.21138,244.44215,65,54,40
244.44215,244.81137,64,54,40
245.36522,245.596,76,54,40
245.596,245.82677,77,54,40
245.82677,246.05753,76,54,40
246.05753,246.2883,77,54,40
246.2883,246.65753,76,54,40
247.21138,247.44214,64,54,40
247.44214,247.67291,65,54,40
247.67291,247.90369,64,54,40
247.90369,248.13445,65,54,40
248.13445,248.50368,64,54,40
249.05753,249.2883,76,54,40
249.2883,249.51907,77,54,40
249.51907,249.74983,76,54,40
249.74983,249.9806,77,54,40
249.9806,250.34984,76,66,40
250.90369,251.13445,61,66,40
251.13445,251.36522,62,66,40
251.36522,251.596,61,66,40
251.596,251.82675,62,66,40
251.82675,252.19598,61,66,40
252.74983,252.9806,73,68,40
252.9806,253.21136,74,70,40
253.21136,253.44214,73,72,40
253.44214,253.67291,74,74,40
253.67291,254.04214,73,76,40
254.59598,254.82675,70,84,40
254.82675,255.05753,72,86,40
255.05753,255.28828,70,88,40
255.28828,255.51906,72,90,40
255.51906,255.88829,70,93,40
256.44214,256.6729,69,100,40
256.6729,256.9037,70,103,40
256.9037,257.13443,69,105,40
257.13443,257.3652,70,106,40
257.3652,257.73444,69,108,40
258.51904,258.63443,75,108,40
258.74982,258.9806,69,108,40
259.44214,259.55753,72,108,40
259.6729,259.90366,63,108,40
260.3652,260.4806,69,108,40
260.59598,260.71136,72,108,40
260.82675,260.94214,65,108,40
261.05753,261.1729,72,108,40
261.2883,261.40366,64,108,40
261.51904,261.63443,72,108,40
261.74982,261.8652,63,108,40
261.9806,262.21136,64,108,40
262.44214,262.6729,62,108,40
262.44214,262.6729,64,108,40
262.90366,263.13443,64,108,40
262.90366,263.13443,60,108,40
263.3652,263.59598,69,108,40
263.82675,263.94214,68,108,40
264.05753,264.1729,64,108,40
264.28827,264.40366,74,108,40
264.51904,264.63443,68,108,40
264.74982,264.8652,76,108,40
264.9806,265.09598,72,108,40
265.21136,265.32675,69,108,40
265.44214,265.55753,66,108,40
265.67288,266.0421,68,108,40
267.74982,267.81906,65,73,40
267.9806,268.21136,65,73,40
268.21136,268.39597,64,73,40
268.44214,268.67288,64,73,40
268.67288,268.8575,63,73,40
268.90366,268.9729,63,73,40
269.13443,269.20367,63,73,40
269.3652,269.59598,63,80,40
269.59598,269.78058,64,73,40
269.82675,269.89597,64,73,40
270.0575,270.12674,64,73,40
270.28827,270.6575,64,73,40
271.4421,271.51135,65,73,40
271.67288,271.90366,65,73,40
271.90366,272.0883,64,73,40
272.13443,272.3652,64,73,40
272.3652,272.5498,63,73,40
272.59598,272.78058,63,73,40
272.82672,273.01135,63,73,40
273.0575,273.28827,63,80,40
273.28827,273.4729,64,73,40
273.51904,273.5883,64,73,40
273.74982,273.81903,64,73,40
273.9806,274.34982,64,73,40
274.90366,275.08826,59,108,40
275.13443,275.50366,59,108,40
275.59598,275.96518,59,108,40
276.0575,276.42673,59,108,40
276.51904,276.93442,59,108,40
276.9806,277.3498,59,108,40
277.4421,277.81134,59,108,40
277.90366,278.13443,64,108,40
278.13443,278.3652,68,108,40
278.3652,278.59595,71,108,40
278.59595,278.96518,69,108,40
279.28827,279.40366,73,108,40
279.51904,279.74982,76,108,40
280.21133,280.32672,67,108,40
280.4421,280.67288,73,108,40
282.28827,282.35748,74,54,40
282.51904,282.58826,74,54,40
282.74982,282.81903,76,54,40
282.98056,283.0498,76,54,40
283.21133,283.28058,74,54,40
283.4421,283.51135,74,54,40
283.67288,283.7344,74,73,40
283.7498,283.81134,73,73,40
283.82672,283.88828,74,73,40
283.90366,283.96518,73,73,40
283.98056,284.0421,71,73,40
284.0575,284.11902,73,73,40
284.13443,284.20364,74,54,40
284.36517,284.43442,74,54,40
284.59595,284.6652,76,54,40
284.82672,284.89597,76,54,40
285.0575,285.1267,74,54,40
285.28827,285.35748,74,54,40
285.51904,285.58057,74,73,40
285.59595,285.6575,73,73,40
285.67288,285.7344,74,73,40
285.7498,285.81134,73,73,40
285.82672,285.88828,71,73,40
285.90366,285.96518,73,73,40
285.98056,286.1652,74,108,40
286.21133,286.58057,69,108,40
286.67288,287.0421,69,108,40
287.1344,287.50363,69,108,40
287.59595,288.01132,69,108,40
288.0575,288.42673,69,108,40
288.519,288.88824,69,108,40
288.98056,289.3498,69,108,40
289.4421,289.85748,69,108,40
289.90366,290.27286,69,108,40
290.36517,290.7344,69,108,40
290.82672,291.19595,69,108,40
291.28827,291.47287,69,108,40
291.519,291.88824,67,108,40
292.21133,292.32672,83,108,40
292.4421,292.67288,74,108,40
293.1344,293.2498,77,108,40
293.36517,293.59595,71,108,40
295.21133,295.28055,72,54,40
295.4421,295.51132,72,54,40
295.67285,295.7421,74,54,40
295.90363,295.97287,74,54,40
296.1344,296.20364,72,54,40
296.36517,296.43442,72,54,40
296.59595,296.67285,72,73,40
296.67285,296.7498,71,73,40
296.7498,296.82672,72,73,40
296.82672,296.90363,71,73,40
296.90363,296.98056,69,73,40
296.98056,297.0575,71,73,40
297.0575,297.1267,72,54,40
297.28824,297.35748,72,54,40
297.519,297.58826,74,54,40
297.7498,297.81903,74,54,40
297.98056,298.04977,72,54,40
298.21133,298.28055,72,54,40
298.4421,298.519,72,73,40
298.519,298.59595,71,73,40
298.59595,298.67285,72,73,40
298.67285,298.7498,71,73,40
298.7498,298.82672,69,73,40
298.82672,298.90363,71,73,40
298.90363,298.97287,72,54,40
299.1344,299.20364,67,54,40
299.36517,299.4344,67,54,40
299.59595,299.66516,67,54,40
299.82672,299.89594,67,54,40
300.05746,300.1267,67,54,40
300.28824,300.35748,68,54,40
300.519,300.58826,68,54,40
300.7498,300.819,68,54,40
300.98056,301.04977,68,54,40
301.21133,301.28055,68,54,40
301.44208,301.51132,68,54,40
301.67285,301.7421,65,54,40
301.90363,301.97287,65,54,40
302.1344,302.20364,67,54,40
302.36517,302.4344,67,54,40
302.59595,302.66516,67,54,40
302.8267,302.89594,67,54,40
303.05746,303.1267,67,54,40
303.28824,303.35748,67,54,40
303.519,303.58826,64,54,40
303.7498,303.819,64,54,40
303.98056,304.04977,65,54,40
304.21133,304.28055,65,54,40
304.44208,304.51132,65,54,40
304.67285,304.7421,65,54,40
304.90363,304.97287,65,54,40
305.1344,305.2036,65,54,40
305.36517,305.4344,62,54,40
305.59595,305.66516,62,54,40
305.8267,305.89594,63,54,40
306.05746,306.1267,63,54,40
306.28824,306.519,63,108,40
306.98056,307.09592,75,108,40
307.2113,307.44208,69,108,40
307.90363,308.019,72,108,40
308.1344,308.50363,63,108,40
308.8267,308.94208,72,108,40
309.05746,309.17285,75,108,40
309.28824,309.40363,69,108,40
309.519,309.6344,72,108,40
309.7498,309.86517,66,108,40
309.98053,310.2113,67,108,40
310.44208,310.67285,65,108,40
310.44208,310.67285,55,108,40
310.90363,311.1344,63,108,40
310.90363,311.1344,55,108,40
311.36514,311.59592,60,108,40
311.8267,311.94208,59,108,40
312.05746,312.17285,55,108,40
312.28824,312.40363,65,108,40
312.519,312.6344,59,108,40
312.7498,312.86514,67,108,40
312.98053,313.09592,63,108,40
313.2113,313.3267,60,108,40
313.44208,313.55746,57,108,40
313.67285,314.04208,59,108,40
315.74976,315.819,69,64,40
315.98053,316.2113,69,64,40
316.2113,316.39594,67,64,40
316.44208,316.67285,67,64,40
316.67285,316.85745,66,64,40
316.90363,316.97284,66,64,40
317.13437,317.2036,66,64,40
317.36514,317.59592,66,64,40
317.59592,317.78055,67,64,40
317.8267,317.89594,67,64,40
318.05746,318.12668,67,64,40
318.28824,318.65747,67,64,40
319.44208,319.5113,69,64,40
319.67285,319.90363,69,64,40
319.90363,320.08823,67,64,40
320.13437,320.36514,67,64,40
320.36514,320.54977,66,64,40
320.59592,320.66516,66,64,40
320.8267,320.8959,66,64,40
321.05746,321.28824,66,64,40
321.28824,321.47284,67,64,40
321.51898,321.58823,71,53,40
321.74976,321.819,71,64,40
321.98053,322.34976,67,73,40
322.9036,323.98822,67,108,40
324.05746,324.2882,71,108,40
324.2882,324.51898,74,108,40
324.51898,324.74976,77,108,40
324.74976,324.98053,79,108,40
324.98053,325.2113,77,108,40
325.2113,325.44208,74,108,40
325.44208,325.62668,71,108,40
325.67282,326.04205,67,65,40
326.59592,327.0133,62,65,40
326.59592,327.0133,71,65,40
328.68286,329.79056,64,60,40
329.8367,330.06747,64,60,40
330.06747,330.29825,65,60,40
330.29825,330.50595,67,60,40
330.52902,331.4521,70,60,40
331.4521,331.82132,69,60,40
332.37518,333.48285,71,60,40
333.52902,333.7598,71,60,40
333.7598,333.99057,72,60,40
333.99057,334.19824,74,60,40
334.2213,335.1444,77,60,40
335.1444,335.51364,76,60,40
336.06747,336.29825,76,60,40
336.29825,336.52902,74,60,40
336.52902,336.7598,76,60,40
336.7598,336.99054,74,60,40
336.99054,337.35977,76,60,40
337.91364,338.1444,72,60,40
338.1444,338.37515,71,60,40
338.37515,338.60593,72,60,40
338.60593,338.8367,71,60,40
338.8367,339.20593,72,60,40
339.75977,339.9444,69,60,40
339.99054,340.17517,67,60,40
340.2213,340.40594,69,60,40
340.4521,340.6367,67,60,40
340.68286,340.86746,65,60,40
340.91364,341.09824,64,60,40
341.1444,341.329,65,60,40
341.37515,341.55978,69,60,40
341.60593,341.97516,67,60,40
342.06747,342.52902,59,54,40
342.52902,342.99054,60,60,40
342.99054,343.4521,62,60,40
343.4521,343.82132,60,5,40
345.29825,346.38284,57,91,40
346.4521,346.68286,57,91,40
346.68286,346.9136,59,91,40
346.9136,347.14438,60,91,40
347.14438,347.88284,60,91,40
348.06747,348.4367,59,91,40
348.99054,350.07516,59,91,40
350.14438,350.37515,59,91,40
350.37515,350.60593,60,91,40
350.60593,350.8367,62,91,40
350.8367,351.57516,62,107,40
351.75977,351.9444,60,107,40
351.99054,352.2213,60,107,40
352.2213,352.4521,62,107,40
352.4521,352.68283,64,107,40
352.68283,352.9136,65,77,40
352.9136,353.14438,69,77,40
353.14438,353.37515,67,77,40
353.37515,353.60593,65,77,40
353.60593,353.8367,64,94,40
353.8367,354.06744,60,77,40
354.06744,354.29822,62,77,40
354.29822,354.48285,64,77,40
354.529,354.75977,65,77,40
354.75977,354.99054,81,77,40
354.99054,355.2213,79,77,40
355.2213,355.45206,77,77,40
355.45206,355.68283,76,94,40
355.68283,355.9136,72,77,40
355.9136,356.14438,74,77,40
356.14438,356.32898,76,77,40
356.37515,356.60593,76,77,40
356.60593,356.79053,67,61,40
356.8367,356.9059,67,61,40
357.06744,357.1367,67,61,40
357.29822,357.529,67,61,40
357.529,357.71362,66,61,40
357.75977,357.82898,66,61,40
357.99054,358.05975,66,61,40
358.2213,358.45206,65,80,40
358.45206,358.6367,77,85,40
358.68283,358.75208,77,90,40
358.9136,358.98285,77,94,40
359.14438,359.37515,77,99,40
359.37515,359.55975,76,105,40
359.60593,359.67514,76,108,40
359.83667,359.9059,76,108,40
360.06744,360.25208,60,107,40
360.529,360.64438,72,107,40
360.64438,360.75977,71,107,40
360.75977,360.87515,72,107,40
360.87515,360.99054,71,107,40
360.99054,361.729,72,107,40
361.9136,362.14438,71,66,40
362.14438,362.32898,67,53,40
362.37515,362.44437,71,53,40
362.6059,362.67514,71,53,40
363.06744,363.29822,72,53,40
363.29822,363.529,69,53,40
363.529,363.75977,72,53,40
363.75977,363.99054,71,53,40
363.99054,364.17514,67,53,40
364.22128,364.29053,71,53,40
364.45206,364.5213,71,53,40
364.9136,365.0982,72,53,40
365.14438,365.25977,69,53,40
365.25977,365.37515,72,53,40
365.37515,365.4905,69,53,40
365.4905,365.6059,72,53,40
365.6059,365.72128,71,53,40
365.72128,365.83667,74,53,40
365.83667,365.95206,71,53,40
365.95206,366.06744,74,53,40
366.06744,366.18283,71,53,40
366.18283,366.29822,74,53,40
366.29822,366.4136,71,53,40
366.4136,366.529,74,53,40
366.529,366.89822,71,53,40
367.45206,367.68283,67,107,40
367.68283,367.86743,64,107,40
367.9136,367.98282,67,107,40
368.14438,368.2136,67,107,40
368.37512,368.74435,67,107,40
370.22128,370.33667,59,80,40
370.33667,370.45206,62,80,40
370.45206,370.56744,60,80,40
370.56744,370.68283,64,80,40
370.68283,370.79822,62,80,40
370.79822,370.9136,65,80,40
370.9136,371.029,64,80,40
371.029,371.14438,67,80,40
371.14438,371.37512,65,107,40
371.37512,371.55975,62,107,40
371.6059,371.67514,65,107,40
371.83667,371.9059,65,107,40
372.06744,372.29822,65,107,40
372.29822,372.48282,62,107,40
372.529,372.7136,62,107,40
372.75974,372.82898,62,107,40
372.9905,373.35974,60,80,40
373.9136,374.0059,64,80,40
374.029,374.14435,67,80,40
374.14435,374.25974,65,80,40
374.25974,374.37512,69,80,40
374.37512,374.4905,67,80,40
374.4905,374.6059,70,80,40
374.6059,374.72128,69,80,40
374.72128,374.83667,72,80,40
374.83667,375.2059,70,80,40
375.75974,375.87512,79,80,40
375.87512,375.9905,81,80,40
375.9905,376.1059,82,80,40
376.1059,376.22128,81,80,40
376.22128,376.33667,79,80,40
376.33667,376.45206,77,80,40
376.45206,376.56744,76,80,40
376.56744,376.68283,74,80,40
376.68283,378.01166,73,64,40
378.06744,378.52896,79,64,40
378.52896,379.85782,77,64,40
379.91357,380.37512,65,64,40
380.37512,381.70398,64,64,40
381.75974,382.22128,74,64,40
382.22128,383.5501,72,64,40
383.6059,383.97513,60,64,40
384.0674,384.25204,60,80,40
384.52896,384.75974,65,80,40
384.75974,384.87512,69,80,40
385.45206,385.6828,77,87,40
385.6828,385.7982,72,89,40
386.37512,386.6059,64,99,40
386.6059,386.72128,67,103,40
387.2982,387.52896,79,108,40
387.52896,387.64435,76,108,40
387.75974,387.87512,77,80,40
387.87512,387.9905,76,80,40
387.9905,388.1059,79,80,40
388.1059,388.22128,77,80,40
388.22128,388.40588,81,80,40
388.6828,388.7982,65,80,40
388.7982,388.91357,64,80,40
388.91357,389.02896,67,80,40
389.02896,389.14435,65,80,40
389.14435,389.32895,69,80,40
389.6059,389.72128,74,80,40
389.72128,389.83664,72,80,40
389.83664,389.95203,76,80,40
389.95203,390.0674,74,80,40
390.0674,390.25204,79,80,40
390.75974,390.94434,59,107,40
390.9905,391.1751,60,107,40
391.22125,391.40588,62,107,40
391.45203,391.63666,64,75,40
391.6828,391.86743,64,75,40
391.91357,392.09818,64,75,40
392.14435,392.32895,64,75,40
392.37512,392.55972,64,75,40
392.6059,392.7905,64,75,40
392.83664,393.02127,64,75,40
393.0674,393.25204,64,75,40
393.2982,393.4828,62,75,40
393.52896,393.71356,62,75,40
393.75974,393.94434,62,75,40
393.9905,394.1751,62,75,40
394.22125,394.40588,65,75,40
394.45203,394.63666,65,75,40
394.6828,394.86743,71,75,40
394.91357,395.09818,71,75,40
395.14435,395.51358,72,91,40
396.0674,396.20587,64,77,40
396.52896,396.66742,64,77,40
396.99048,397.60587,63,77,40
397.60587,397.72894,64,77,40
397.75974,397.80588,60,77,40
397.91357,398.0674,63,77,40
398.0674,398.1905,64,77,40
398.22125,398.26743,60,77,40
398.3751,398.52896,63,77,40
398.52896,398.6828,64,77,40
398.6828,398.72894,60,77,40
398.83664,399.1828,64,77,40
399.1828,399.27512,60,77,40
399.2982,399.66742,64,77,40
399.75974,399.99048,68,56,40
399.99048,400.22125,69,56,40
400.22125,400.45203,66,56,40
400.45203,400.6828,67,56,40
400.6828,400.91357,64,56,40
400.91357,401.14435,65,56,40
401.14435,401.3751,63,56,40
401.3751,401.60587,64,56,40
401.60587,401.83664,66,56,40
401.83664,402.0674,74,56,40
402.0674,402.2982,72,56,40
402.2982,402.52896,72,56,40
402.52896,402.99048,64,85,40
402.99048,403.3597,62,64,40
403.45203,403.59048,79,77,40
403.91357,404.05203,79,77,40
404.3751,404.95972,78,77,40
404.99048,405.11356,79,77,40
405.14432,405.1905,76,77,40
405.2982,405.42126,78,77,40
405.45203,405.5751,79,77,40
405.60587,405.652,76,77,40
405.7597,405.88278,78,77,40
405.91357,406.03665,79,77,40
406.0674,406.11356,76,77,40
406.22125,406.49817,79,77,40
406.5674,406.6597,76,77,40
406.6828,407.05203,79,77,40
407.60587,408.0674,67,77,40
408.0674,408.11356,65,77,40
408.22125,408.2674,81,77,40
408.3751,408.42126,79,77,40
408.52893,408.5751,77,77,40
408.6828,408.72894,76,77,40
408.83664,408.88278,74,77,40
408.99048,409.14432,72,77,40
409.14432,409.1905,77,77,40
409.2982,409.34433,76,77,40
409.45203,409.49817,74,77,40
409.60587,409.652,72,77,40
409.7597,409.80588,71,77,40
409.91354,410.28278,72,94,40
411.29816,411.7597,59,108,40
411.7597,412.22125,60,108,40
412.22125,412.68277,55,108,40
413.14432,413.51355,67,68,40
413.60587,413.72894,67,68,40
413.7597,413.80585,79,68,40
413.91354,413.95972,77,68,40
414.06738,414.11356,76,68,40
414.22125,414.2674,74,68,40
414.3751,414.42123,72,68,40
414.52893,414.5751,71,68,40
414.68277,414.72894,69,68,40
414.83664,414.88278,67,68,40
414.99048,415.02893,65,68,40
415.02893,415.06738,67,68,40
415.06738,415.10587,65,68,40
415.10587,415.2597,64,68,40
415.2597,415.41354,65,68,40
415.45203,415.82123,64,68,40
416.83664,417.29816,83,108,40
417.29816,417.7597,84,108,40
417.7597,418.22125,79,108,40
419.14432,419.32892,67,108,40
419.3751,419.49048,55,108,40
419.60587,419.8366,55,108,40
420.99048,421.17508,69,108,40
421.22122,421.3366,60,108,40
421.452,421.68277,60,108,40
422.8366,423.02124,71,108,40
423.06738,423.18277,62,108,40
423.29816,423.52893,62,108,40
424.68277,425.052,60,108,40
426.52893,426.64432,55,88,40
426.64432,426.7597,67,88,40
426.7597,426.8751,66,88,40
426.8751,426.99045,67,88,40
426.99045,427.10583,69,88,40
427.10583,427.22122,67,88,40
427.22122,427.3366,65,88,40
427.3366,427.452,67,88,40
427.452,427.56738,67,88,40
427.56738,427.68277,70,88,40
427.68277,427.79816,69,88,40
427.79816,427.91354,70,88,40
427.91354,428.02893,72,88,40
428.02893,428.14432,70,88,40
428.14432,428.2597,69,88,40
428.2597,428.37506,70,88,40
428.37506,428.49045,62,88,40
428.49045,428.60583,69,88,40
428.60583,428.72122,67,88,40
428.72122,428.8366,69,88,40
428.8366,428.952,71,88,40
428.952,429.06738,69,88,40
429.06738,429.18277,67,88,40
429.18277,429.29816,69,88,40
429.29816,429.41354,69,88,40
429.41354,429.52893,72,88,40
429.52893,429.64432,71,88,40
429.64432,429.7597,72,88,40
429.7597,429.87506,74,88,40
429.87506,429.99045,72,88,40
429.99045,430.10583,71,88,40
430.10583,430.22122,72,88,40
430.22122,430.3366,67,88,40
430.3366,430.452,72,88,40
430.452,430.56738,71,88,40
430.56738,430.68277,72,88,40
430.68277,430.79816,74,88,40
430.79816,430.91354,72,88,40
430.91354,431.02893,71,88,40
431.02893,431.14432,72,88,40
431.14432,431.25967,55,88,40
431.25967,431.37506,62,88,40
431.37506,431.49045,60,88,40
431.49045,431.60583,62,88,40
431.60583,431.72122,64,88,40
431.72122,431.8366,62,88,40
431.8366,431.952,60,88,40
431.952,432.06738,62,88,40
432.06738,433.152,60,114,40
433.22122,433.452,60,88,40
433.452,433.68277,62,88,40
433.68277,433.91354,64,88,40
433.91354,434.28278,67,88,40
434.37506,434.7443,65,73,40
435.99045,436.22122,71,73,40
436.22122,436.452,72,73,40
436.452,436.68277,71,73,40
436.68277,436.91354,72,73,40
436.91354,437.1443,73,73,40
437.1443,437.37506,74,73,40
437.37506,437.60583,76,73,40
437.60583,439.08276,77,73,40
439.452,439.68277,76,73,40
439.68277,439.9135,79,73,40
439.9135,440.1443,76,73,40
440.1443,440.37506,72,73,40
440.37506,440.60583,71,73,40
440.60583,440.8366,67,73,40
440.8366,441.06738,65,73,40
441.06738,441.25198,62,73,40
441.29813,441.5289,64,73,40
441.5289,441.99045,67,73,40
441.99045,442.22122,72,73,40
442.22122,442.452,71,73,40
442.452,442.68274,69,73,40
442.68274,442.9135,67,73,40
442.9135,443.1443,65,73,40
443.1443,443.37506,63,73,40
443.37506,443.60583,64,73,40
443.60583,443.8366,67,73,40
443.8366,444.06738,72,73,40
444.06738,444.29813,71,73,40
444.29813,444.5289,67,73,40
444.5289,444.75967,65,73,40
444.75967,444.9443,62,73,40
444.99045,445.22122,64,73,40
445.22122,445.40582,67,73,40
445.452,445.68274,79,73,40
445.68274,445.86737,84,73,40
445.9135,446.1443,83,73,40
446.1443,446.37506,81,73,40
446.37506,446.60583,79,73,40
446.60583,446.8366,77,73,40
446.8366,447.06735,75,73,40
447.06735,447.25198,76,73,40
447.29813,447.36737,76,73,40
447.5289,447.59814,76,73,40
447.75967,448.1289,76,73,40
448.9135,449.1443,62,82,40
449.1443,449.25967,74,83,40
449.37506,449.44427,74,85,40
449.60583,449.97507,74,87,40
450.75967,450.99045,64,94,40
450.99045,451.10583,76,96,40
451.22122,451.29044,76,98,40
451.45197,451.8212,76,99,40
452.60583,452.83658,65,108,40
452.83658,452.95197,77,108,40
453.06735,453.1366,77,108,40
453.29813,453.66736,77,108,40
454.2212,455.30582,78,108,40
455.37506,455.6058,79,108,40
455.6058,455.83658,81,108,40
455.83658,456.06735,82,108,40
456.06735,456.80582,67,108,40
461.6058,461.83658,64,59,40
461.83658,462.06735,65,59,40
462.06735,462.29813,64,59,40
462.29813,462.5289,65,59,40
462.5289,462.89813,64,59,40
463.68274,463.9135,72,73,40
463.9135,464.14426,69,73,40
464.14426,464.37503,65,73,40
464.37503,464.83658,64,73,40
464.83658,465.29813,67,73,40
465.5289,465.75964,72,73,40
465.75964,465.99042,69,73,40
465.99042,466.2212,65,73,40
466.2212,466.68274,64,73,40
466.68274,467.14426,67,73,40
467.37503,467.6058,65,82,40
467.6058,467.83658,69,84,40
467.83658,468.06735,67,87,40
468.06735,468.29813,64,89,40
468.29813,468.52887,65,92,40
468.52887,468.75964,69,94,40
468.75964,468.94427,67,97,40
468.99042,469.2212,64,99,40
469.2212,469.4058,65,102,40
469.45197,469.63657,69,105,40
469.68274,469.86734,67,107,40
469.91348,470.0981,64,108,40
470.14426,470.3289,65,108,40
470.37503,470.55966,69,108,40
470.6058,470.7904,67,108,40
470.83658,471.06735,64,108,40
471.06735,471.25195,65,108,40
471.52887,471.7135,60,108,40
471.75964,471.99042,72,108,40
471.99042,472.17502,70,108,40
472.45197,472.63657,70,108,40
472.68274,472.91348,79,108,40
472.91348,473.0981,77,108,40
473.37503,473.55963,72,108,40
473.6058,473.83658,75,108,40
473.83658,474.02118,76,108,40
474.2981,474.48273,76,108,40
474.52887,474.75964,76,108,40
474.75964,474.94427,64,108,40
475.2212,475.4058,72,108,40
475.45197,475.6827,76,108,40
475.6827,475.86734,74,108,40
476.14426,476.3289,71,108,40
476.37503,476.44424,72,108,40
476.6058,476.67502,67,108,40
476.83658,476.9058,72,108,40
477.06732,477.13657,76,108,40
477.2981,477.66733,79,108,40
477.75964,478.12888,77,108,40
478.2212,478.31348,55,78,40
478.33658,478.42886,67,78,40
478.45193,478.54425,67,78,40
478.56732,478.65964,67,78,40
478.6827,478.77502,67,78,40
478.7981,478.8904,67,78,40
478.91348,479.0058,67,78,40
479.02887,479.1212,67,78,40
479.14426,479.23657,60,78,40
479.25964,479.35196,72,78,40
479.37503,479.46735,72,78,40
479.49042,479.5827,72,78,40
479.6058,479.6981,72,78,40
479.7212,479.81348,72,78,40
479.83655,479.92886,72,78,40
479.95193,480.04425,72,78,40
480.06732,480.15964,72,78,40
480.1827,480.27502,72,78,40
480.2981,480.3904,72,78,40
480.41348,480.5058,72,78,40
480.52887,480.6212,77,78,40
480.64426,480.73657,77,78,40
480.75964,480.85196,77,78,40
480.87503,480.96735,77,78,40
480.99042,481.0827,76,78,40
481.1058,481.1981,76,78,40
481.2212,481.31348,76,78,40
481.33655,481.42886,76,78,40
481.45193,481.54425,74,78,40
481.56732,481.65964,74,78,40
481.6827,481.77502,74,78,40
481.7981,481.8904,74,78,40
481.91348,481.98273,72,108,40
482.14426,482.21347,67,108,40
482.37503,482.44424,72,108,40
482.6058,482.67502,76,108,40
482.83655,483.20578,79,108,40
483.2981,483.66733,77,108,40
483.75964,483.85193,55,78,40
483.87503,483.96732,67,78,40
483.99042,484.0827,67,78,40
484.1058,484.1981,67,78,40
484.22116,484.31348,67,78,40
484.33655,484.42886,67,78,40
484.45193,484.54425,67,78,40
484.56732,484.65964,67,78,40
484.6827,484.77502,60,78,40
484.7981,484.8904,72,78,40
484.91348,485.0058,72,78,40
485.02887,485.1212,72,78,40
485.14426,485.23657,72,78,40
485.25964,485.35193,72,78,40
485.37503,485.46732,72,78,40
485.49042,485.5827,72,78,40
485.60577,485.6981,72,78,40
485.72116,485.81348,72,78,40
485.83655,485.92886,72,78,40
485.95193,486.04425,72,78,40
486.06732,486.15964,77,78,40
486.1827,486.27502,77,78,40
486.2981,486.3904,77,78,40
486.41348,486.5058,77,78,40
486.52887,486.6212,76,78,40
486.64426,486.73654,76,78,40
486.75964,486.85193,76,78,40
486.87503,486.96732,76,78,40
486.9904,487.0827,74,78,40
487.10577,487.1981,74,78,40
487.22116,487.31348,74,78,40
487.22116,487.31348,74,78,40
487.45193,488.37503,72,94,40
488.37503,489.2981,81,94,40
489.2981,490.22116,79,94,40
490.22116,490.95963,77,94,40
491.14426,492.06732,76,94,40
492.06732,492.9904,77,94,40
492.9904,493.91348,76,94,40
493.91348,494.65195,74,94,40
494.83655,495.2981,72,94,40
495.2981,495.44208,64,87,40
495.77808,495.9281,64,80,40
496.27808,496.4346,64,73,40
496.79984,497.23618,64,73,40
2.5,5.0,56,73,41
5.0,6.25,55,73,41
6.25,7.25,54,73,41
7.5,9.375,55,77,41
9.375,10.0,57,98,41
10.0,10.625,59,105,41
10.625,11.25,60,108,41
11.25,11.875,62,108,41
11.875,12.5,69,108,41
12.5,13.0,71,108,41
17.5,20.0,54,73,41
20.0,21.25,53,73,41
21.25,22.5,52,73,41
22.5,24.375,53,79,41
24.375,25.0,55,99,41
25.0,25.625,57,106,41
25.625,26.25,58,108,41
26.25,26.875,60,108,41
26.875,27.5,67,108,41
27.5,28.0,69,108,41
30.625,31.25,52,73,41
31.25,31.875,53,73,41
31.875,32.5,55,73,41
32.5,33.125,56,73,41
33.125,33.75,57,73,41
33.75,35.25,59,73,41
35.625,36.25,51,73,41
36.25,36.875,53,73,41
36.875,37.5,55,73,41
37.5,40.5,56,73,41
41.25,41.75,55,77,41
41.875,42.5,67,84,41
42.5,43.125,65,92,41
43.125,43.75,63,99,41
43.75,44.375,62,105,41
44.375,45.0,60,108,41
45.0,46.5,62,108,41
46.875,47.5,55,108,41
47.5,49.75,67,108,41
51.875,52.5,58,108,41
52.5,53.125,60,108,41
53.125,53.75,62,108,41
53.75,54.375,63,108,41
54.375,55.0,64,108,41
55.0,55.625,65,108,41
55.625,56.25,66,108,41
56.25,57.25,67,108,41
59.375,60.0,66,73,41
60.0,61.0,67,73,41
63.125,63.75,54,73,41
63.75,64.75,55,73,41
65.625,66.25,53,73,41
66.25,66.875,51,73,41
66.875,67.5,54,73,41
67.5,69.0,55,73,41
69.375,70.0,52,94,41
70.0,72.75,53,73,41
73.125,73.75,52,94,41
73.75,74.75,53,73,41
75.0,76.5,53,73,41
76.875,77.5,58,94,41
77.5,78.125,59,73,41
78.125,78.65625,55,73,41
78.75,80.25,62,87,41
80.25,83.25,62,60,41
84.75,84.934616,60,43,41
84.98077,85.16538,60,43,41
85.21154,85.39616,60,43,41
85.44231,85.62692,60,43,41
85.67307,85.85769,60,43,41
85.90385,86.08846,60,43,41
86.13461,86.31923,60,43,41
86.36538,86.549995,60,43,41
86.59615,86.78077,60,43,41
86.82692,87.011536,60,43,41
87.05769,87.2423,60,43,41
87.28846,87.473076,60,43,41
87.519226,87.70384,60,43,41
87.75,87.93461,60,43,41
87.98077,88.16538,60,43,41
88.21153,88.39615,60,43,41
88.44231,88.62692,59,43,41
88.67307,88.85769,59,43,41
88.90384,89.088455,57,43,41
89.13461,89.31923,57,43,41
89.36538,89.549995,55,43,41
89.596146,89.78076,55,43,41
89.82692,90.011536,53,43,41
90.057686,90.2423,53,43,41
90.28846,90.47307,52,43,41
90.519226,90.70384,52,43,41
90.74999,90.93461,52,43,41
90.98077,91.165375,52,43,41
91.21153,91.39615,64,43,41
91.4423,91.626915,64,43,41
91.67307,91.85769,59,43,41
91.90384,92.088455,59,43,41
92.134605,92.31922,60,43,41
92.36538,92.549995,60,43,41
92.596146,92.78076,60,43,41
92.82691,93.01153,60,43,41
93.057686,93.2423,72,43,41
93.28845,93.47307,72,43,41
93.51922,93.703835,71,43,41
93.74999,93.93461,71,43,41
93.98076,94.21153,69,43,41
94.21153,94.4423,68,43,41
94.4423,94.673065,69,43,41
94.673065,94.90384,68,43,41
94.90384,95.08845,69,43,41
95.134605,95.31922,69,43,41
95.36537,95.54999,67,43,41
95.596146,95.78076,67,43,41
95.82691,96.01153,65,43,41
96.05768,96.242294,65,43,41
96.28845,96.47307,64,43,41
96.51922,96.703835,64,43,41
96.749985,96.9346,62,43,41
96.98076,97.165375,62,43,41
97.211525,97.39614,54,43,41
97.44229,97.62691,54,43,41
97.673065,98.41152,55,51,41
99.51922,99.749985,52,98,41
99.749985,99.98075,55,98,41
99.98075,100.211525,60,98,41
100.211525,100.44229,55,98,41
100.44229,100.90383,52,98,41
102.51921,102.58844,67,98,41
102.749985,102.819214,67,98,41
102.98075,103.04998,67,98,41
103.21152,103.44229,66,98,41
103.44229,103.62691,67,98,41
103.67306,103.74229,62,98,41
103.903824,103.97306,59,98,41
104.1346,104.50383,55,98,41
106.21152,106.28075,72,98,41
106.44228,106.51152,72,98,41
106.67306,106.74229,72,98,41
106.903824,107.13459,71,98,41
107.13459,107.31921,72,98,41
107.365364,107.43459,67,98,41
107.59613,107.66536,64,98,41
107.8269,108.56536,60,108,41
108.74998,109.488434,60,98,41
109.67305,110.411514,60,108,41
110.59613,111.33459,60,98,41
111.5192,112.25767,60,104,41
112.44228,112.67305,61,64,41
112.67305,112.857666,64,64,41
112.90382,112.973045,64,64,41
113.13459,113.20382,64,64,41
113.36536,113.59612,64,64,41
113.59612,113.78074,62,64,41
113.8269,113.896126,62,64,41
114.05766,114.12689,62,64,41
114.28843,114.5192,62,80,41
114.5192,114.70382,74,85,41
114.74997,114.8192,74,89,41
114.980736,115.04997,74,94,41
115.21151,115.442276,74,99,41
115.442276,115.62689,72,105,41
115.67304,115.74228,72,108,41
115.90382,115.973045,72,108,41
116.13458,116.503815,65,94,41
117.05766,117.42689,62,94,41
117.980736,118.34997,60,94,41
118.90381,119.27304,64,94,41
119.82689,120.19612,65,94,41
120.74996,121.119194,62,94,41
121.67304,122.04227,60,102,41
122.134575,122.50381,52,102,41
122.596115,122.96535,55,102,41
123.057655,123.42689,59,102,41
123.519196,124.44227,59,102,41
124.44227,124.8115,60,94,41
125.36534,126.44996,55,94,41
126.51919,126.749954,55,94,41
126.749954,126.98073,57,94,41
126.98073,127.211494,59,94,41
127.211494,127.673035,62,94,41
127.673035,127.703804,62,94,41
127.711494,127.74226,60,94,41
127.749954,127.78072,62,94,41
127.78842,127.81919,60,94,41
127.82688,127.85765,62,94,41
127.86534,127.89611,60,94,41
127.9038,127.93457,62,94,41
127.94226,127.97303,60,94,41
127.98073,128.01149,62,94,41
128.01918,128.06534,60,94,41
128.07687,128.12303,59,94,41
128.13457,128.5038,60,94,41
128.59612,128.96535,65,94,41
129.05765,129.6115,64,94,41
129.74995,129.93457,62,94,41
129.98073,130.53458,60,94,41
130.67303,130.85765,59,94,41
130.9038,131.64226,57,94,41
131.82687,132.01149,57,94,41
132.05765,132.24226,50,88,41
132.2884,133.48842,62,101,41
133.67303,133.85765,62,102,41
133.9038,134.08841,62,102,41
134.13457,134.96533,74,102,41
135.05765,135.61148,62,102,41
135.74995,135.93457,62,102,41
135.98071,136.62688,74,102,41
136.9038,137.01918,71,68,41
137.01918,137.13457,69,68,41
137.13457,137.24995,71,68,41
137.24995,137.36533,69,68,41
137.36533,137.54994,67,68,41
137.82687,137.94226,67,68,41
137.94226,138.05763,66,68,41
138.05763,138.17302,67,68,41
138.17302,138.2884,66,68,41
138.2884,138.47302,64,68,41
138.74994,138.86533,64,94,41
138.86533,138.98071,63,94,41
138.98071,139.0961,64,94,41
139.0961,139.21149,63,94,41
139.21149,139.94995,64,94,41
140.13457,140.36533,62,94,41
140.36533,140.54994,57,94,41
140.5961,140.66533,62,94,41
140.82687,140.8961,62,94,41
141.2884,141.47302,61,94,41
141.51918,141.7038,61,94,41
141.74994,141.93456,61,94,41
141.98071,142.21149,62,94,41
142.21149,142.3961,57,94,41
142.44225,142.51147,62,94,41
142.67302,142.74225,62,94,41
143.13455,143.31917,61,94,41
143.36533,143.54994,61,94,41
143.5961,143.78072,61,94,41
143.82686,143.89609,62,94,41
144.05763,144.12686,61,94,41
144.2884,144.35764,62,94,41
144.51917,144.5884,61,94,41
144.74994,145.11917,62,94,41
145.67302,145.90378,59,108,41
145.90378,146.0884,55,108,41
146.13455,146.20378,59,108,41
146.36533,146.43456,59,108,41
146.59608,146.96532,59,108,41
147.51917,148.62686,60,80,41
147.51917,148.62686,62,80,41
149.36533,149.54994,66,96,41
149.59608,149.96532,66,96,41
150.05763,150.24225,66,96,41
150.28839,150.65762,66,96,41
150.9807,151.16531,62,96,41
151.21147,151.5807,62,80,41
152.13455,152.24994,55,80,41
152.24994,152.36531,59,80,41
152.36531,152.4807,57,80,41
152.4807,152.59608,60,80,41
152.59608,152.71147,59,80,41
152.71147,152.82686,62,80,41
152.82686,152.94225,60,80,41
152.94225,153.05762,64,80,41
153.05762,153.42685,62,80,41
154.90378,156.01147,62,69,41
156.28839,156.74992,68,69,41
156.74992,157.85762,69,69,41
158.13454,158.50377,60,69,41
158.59608,159.70377,60,69,41
159.9807,160.34993,66,69,41
160.44223,161.54993,67,69,41
161.82684,162.19608,66,69,41
162.28839,162.47299,64,85,41
162.74992,162.9807,64,80,41
162.9807,163.16531,67,80,41
163.673,163.90376,69,72,41
163.90376,164.08838,66,75,41
164.59607,164.82684,63,84,41
164.82684,165.01146,66,88,41
165.51915,165.74992,67,97,41
165.74992,165.93454,64,99,41
166.44223,166.55762,60,94,41
166.55762,166.67299,59,94,41
166.67299,166.78838,62,94,41
166.78838,166.90376,60,94,41
166.90376,167.08838,64,94,41
167.3653,167.48068,57,94,41
167.48068,167.59607,56,94,41
167.59607,167.71146,59,94,41
167.71146,167.82684,57,94,41
167.82684,168.93452,60,107,41
168.98068,169.44223,62,107,41
169.44223,169.67299,60,107,41
169.67299,170.13454,59,107,41
170.13454,170.31914,62,107,41
170.3653,170.54991,55,107,41
170.59607,171.33453,57,107,41
171.51915,171.70377,59,107,41
171.74991,171.93452,59,107,41
171.98068,172.1653,59,107,41
172.21146,172.39607,59,107,41
172.44221,172.62683,60,107,41
172.67299,172.8576,60,107,41
172.90376,173.08838,60,107,41
173.13452,173.31914,60,107,41
173.3653,173.73453,59,107,41
175.21144,175.58067,67,80,41
175.67299,176.04222,67,80,41
176.13452,176.87299,67,80,41
177.0576,177.42683,67,80,41
179.59605,179.82683,65,108,41
179.82683,180.0576,64,108,41
180.0576,180.28836,63,108,41
180.28836,180.51913,62,108,41
180.51913,180.74991,57,108,41
180.74991,181.48836,62,108,41
185.82683,186.28836,55,94,41
186.28836,186.6576,55,94,41
186.7499,187.09605,67,94,41
187.09605,187.18835,64,94,41
187.21144,187.90375,62,94,41
187.90375,188.08836,60,108,41
188.1345,188.25758,59,108,41
188.28836,188.33452,74,108,41
188.4422,188.48836,72,108,41
188.59605,188.6422,71,108,41
188.7499,188.79605,69,108,41
188.90375,188.94989,67,108,41
189.05759,189.10374,66,108,41
189.21144,189.25758,64,108,41
189.36528,189.41144,62,108,41
189.51912,189.55759,60,108,41
189.55759,189.59605,62,108,41
189.59605,189.6345,60,108,41
189.6345,189.78836,59,108,41
189.78836,189.9422,60,108,41
189.98067,190.3499,59,108,41
191.36528,191.73451,62,66,41
191.82681,191.94989,62,66,41
191.98067,192.02681,74,66,41
192.1345,192.18066,72,66,41
192.28836,192.3345,71,66,41
192.4422,192.48836,69,66,41
192.59604,192.6422,67,66,41
192.7499,192.79605,66,66,41
192.90373,192.94989,64,66,41
193.05759,193.10374,62,66,41
193.21143,193.2499,60,66,41
193.2499,193.28836,62,66,41
193.28836,193.32681,60,66,41
193.32681,193.48067,59,66,41
193.48067,193.6345,60,66,41
193.67297,194.0422,59,66,41
195.05759,195.42682,62,108,41
195.51912,195.6422,62,108,41
195.67296,195.71912,74,108,41
195.82681,195.87297,72,108,41
195.98065,196.02681,71,108,41
196.1345,196.18066,69,108,41
196.28835,196.3345,67,108,41
196.4422,196.56528,66,108,41
196.59604,196.6422,64,108,41
196.7499,196.79604,62,108,41
196.90373,196.94989,60,108,41
197.05759,197.10373,59,108,41
197.21143,197.25758,57,108,41
197.36526,197.54988,55,94,41
197.59604,197.71143,55,94,41
197.82681,198.05757,55,94,41
199.21143,199.39604,67,94,41
199.4422,199.55757,52,94,41
199.67296,199.90373,52,94,41
201.05757,201.24219,66,94,41
201.28835,201.40373,54,94,41
201.51912,201.74988,54,94,41
202.90373,203.13449,50,94,41
204.74988,205.48834,59,84,41
205.67296,206.41142,62,84,41
206.59604,207.33449,55,84,41
207.5191,208.25757,57,84,41
208.44218,209.18065,62,84,41
209.36526,209.4268,62,84,41
209.44218,209.50372,60,84,41
209.5191,209.58064,62,84,41
209.59602,209.65756,60,84,41
209.67296,209.7345,62,84,41
209.74988,209.81142,60,84,41
209.8268,209.88834,62,84,41
209.90372,209.96526,60,84,41
209.98064,210.04218,62,84,41
210.05757,210.11911,60,84,41
210.13449,210.19603,59,84,41
210.21141,210.27295,60,84,41
210.28833,210.65756,59,94,41
210.74988,211.11911,62,80,41
211.21141,211.58064,59,80,41
211.67294,212.04218,55,80,41
212.13449,212.50372,54,80,41
212.59602,212.96526,57,80,41
213.05757,213.42679,54,80,41
213.5191,213.88834,50,80,41
213.98064,214.34987,59,80,41
214.44218,214.8114,62,80,41
214.90372,215.27295,59,80,41
215.36525,215.73448,55,80,41
215.8268,216.19603,54,94,41
216.28833,216.65756,57,94,41
216.74986,217.1191,54,94,41
217.21141,217.58064,50,94,41
217.67294,218.75755,62,94,41
218.82678,219.0114,62,94,41
219.05756,219.24217,64,94,41
219.28833,219.47295,66,94,41
219.51909,219.88832,69,94,41
219.98064,220.34987,67,94,41
221.36525,222.44986,62,94,41
222.51909,222.7037,62,94,41
222.74986,222.93448,64,94,41
222.98064,223.16525,66,94,41
223.2114,223.58063,69,94,41
223.67294,224.04218,67,94,41
225.28831,225.47293,62,94,41
225.51909,225.7037,62,94,41
225.74986,225.93448,62,94,41
225.98062,226.34985,62,94,41
227.13448,227.36523,64,68,41
227.36523,227.48062,64,70,41
227.59601,227.66524,64,71,41
227.82678,228.19601,64,74,41
228.98062,229.2114,65,83,41
229.2114,229.32678,65,85,41
229.44217,229.5114,65,87,41
229.67293,230.04216,65,89,41
230.82678,231.05754,67,99,41
231.05754,231.17293,67,100,41
231.28831,231.35754,67,102,41
231.51909,231.88832,67,104,41
232.44215,233.52678,70,94,41
233.59601,233.82677,69,94,41
233.82677,234.05754,67,94,41
234.05754,234.26523,65,94,41
234.28831,235.396,65,94,41
236.59601,236.82677,62,94,41
236.82677,237.05754,59,94,41
237.05754,237.28831,57,94,41
237.28831,237.51907,55,94,41
237.51907,237.74985,57,94,41
237.74985,237.93446,53,94,41
237.98062,238.21138,52,85,41
238.21138,238.44215,50,85,41
238.44215,238.67293,52,85,41
238.67293,238.90369,53,85,41
238.90369,239.13446,54,85,41
239.13446,239.36523,55,85,41
239.36523,239.596,57,85,41
239.596,239.78061,59,85,41
239.82677,240.196,60,73,41
241.67291,242.75754,60,73,41
242.82677,243.05754,60,73,41
243.05754,243.2883,62,73,41
243.2883,243.51907,64,73,41
243.51907,244.44215,69,73,41
244.44215,244.81137,67,73,41
245.36522,246.44984,60,73,41
246.51907,246.74983,60,73,41
246.74983,246.9806,62,73,41
246.9806,247.21138,64,73,41
247.21138,248.13445,69,73,41
248.13445,248.50368,67,73,41
249.05753,250.16522,61,73,41
250.21138,250.44214,64,94,41
250.44214,250.67291,67,94,41
250.67291,250.90369,69,94,41
250.90369,251.82675,72,94,41
251.82675,252.19598,70,94,41
252.74983,253.4883,64,68,41
253.67291,253.85753,64,76,41
253.90367,254.13445,67,78,41
254.13445,254.36522,70,80,41
254.36522,254.59598,67,82,41
254.59598,255.51906,75,84,41
255.51906,255.88829,74,93,41
256.44214,257.54984,60,100,41
257.59598,257.82675,65,108,41
257.82675,258.05753,69,108,41
258.05753,258.2883,65,108,41
258.2883,258.4037,69,108,41
258.51904,258.63443,72,108,41
258.74982,258.9806,60,108,41
259.44214,259.55753,63,108,41
259.6729,259.90366,57,108,41
260.3652,260.4806,57,108,41
260.59598,260.71136,60,108,41
260.82675,260.94214,53,108,41
261.05753,261.1729,60,108,41
261.2883,261.40366,52,108,41
261.51904,261.63443,60,108,41
261.74982,261.8652,51,108,41
261.9806,262.21136,52,108,41
262.44214,262.6729,59,108,41
262.90366,263.13443,57,108,41
263.3652,263.59598,57,108,41
263.82675,263.94214,59,108,41
264.05753,264.1729,56,108,41
264.28827,264.40366,59,108,41
264.51904,264.63443,52,108,41
264.74982,264.8652,60,108,41
264.9806,265.09598,57,108,41
265.21136,265.32675,69,108,41
265.44214,265.55753,63,108,41
265.67288,266.0421,64,108,41
268.67288,268.90366,54,73,41
268.90366,269.13443,55,73,41
269.13443,269.3652,57,73,41
269.3652,269.59598,57,80,41
269.59598,269.78058,56,73,41
269.82675,269.89597,56,73,41
270.0575,270.12674,56,73,41
270.28827,270.6575,56,73,41
272.3652,272.59598,54,73,41
272.59598,272.82672,56,73,41
272.82672,273.0575,57,73,41
273.0575,273.28827,57,80,41
273.28827,273.4729,56,73,41
273.51904,273.5883,56,73,41
273.74982,273.81903,56,73,41
273.9806,274.34982,56,73,41
274.90366,275.08826,56,108,41
275.13443,275.50366,56,108,41
275.59598,275.96518,56,108,41
276.0575,276.42673,56,108,41
276.51904,276.93442,56,108,41
276.9806,277.3498,56,108,41
277.4421,277.81134,56,108,41
277.90366,278.13443,56,108,41
278.13443,278.3652,59,108,41
278.3652,278.59595,64,108,41
278.59595,278.96518,64,108,41
279.28827,279.40366,64,108,41
279.51904,279.74982,67,108,41
280.21133,280.32672,64,108,41
280.4421,280.67288,67,108,41
282.28827,282.35748,65,54,41
282.51904,282.58826,65,54,41
282.74982,282.81903,67,54,41
282.98056,283.0498,67,54,41
283.21133,283.28058,65,54,41
283.4421,283.51135,65,54,41
283.67288,283.7344,65,73,41
283.7498,283.81134,64,73,41
283.82672,283.88828,65,73,41
283.90366,283.96518,64,73,41
283.98056,284.0421,62,73,41
284.0575,284.11902,64,73,41
284.13443,284.20364,65,54,41
284.36517,284.43442,65,54,41
284.59595,284.6652,67,54,41
284.82672,284.89597,67,54,41
285.0575,285.1267,65,54,41
285.28827,285.35748,65,54,41
285.51904,285.58057,65,73,41
285.59595,285.6575,64,73,41
285.67288,285.7344,65,73,41
285.7498,285.81134,64,73,41
285.82672,285.88828,62,73,41
285.90366,285.96518,64,73,41
285.98056,286.1652,66,108,41
286.21133,286.58057,66,108,41
286.67288,287.0421,66,108,41
287.1344,287.50363,66,108,41
287.59595,288.01132,66,108,41
288.0575,288.42673,66,108,41
288.519,288.88824,66,108,41
288.98056,289.3498,66,108,41
289.4421,289.85748,66,108,41
289.90366,290.27286,66,108,41
290.36517,290.7344,66,108,41
290.82672,291.19595,66,108,41
291.28827,291.47287,66,108,41
291.519,291.88824,67,108,41
292.21133,292.32672,74,108,41
292.4421,292.67288,71,108,41
293.1344,293.2498,71,108,41
293.36517,293.59595,62,108,41
295.21133,295.28055,63,54,41
295.4421,295.51132,63,54,41
295.67285,295.7421,65,54,41
295.90363,295.97287,65,54,41
296.1344,296.20364,63,54,41
296.36517,296.43442,63,54,41
296.59595,296.67285,63,73,41
296.67285,296.7498,62,73,41
296.7498,296.82672,63,73,41
296.82672,296.90363,62,73,41
296.90363,296.98056,60,73,41
296.98056,297.0575,62,73,41
297.0575,297.1267,63,54,41
297.28824,297.35748,63,54,41
297.519,297.58826,65,54,41
297.7498,297.81903,65,54,41
297.98056,298.04977,63,54,41
298.21133,298.28055,63,54,41
298.4421,298.519,63,73,41
298.519,298.59595,62,73,41
298.59595,298.67285,63,73,41
298.67285,298.7498,62,73,41
298.7498,298.82672,60,73,41
298.82672,298.90363,62,73,41
298.90363,298.97287,63,54,41
299.1344,299.20364,63,54,41
299.36517,299.4344,63,54,41
299.59595,299.66516,63,54,41
299.82672,299.89594,64,54,41
300.05746,300.1267,64,54,41
300.28824,300.35748,65,54,41
300.519,300.58826,65,54,41
300.7498,300.819,65,54,41
300.98056,301.04977,65,54,41
301.21133,301.28055,65,54,41
301.44208,301.51132,65,54,41
301.67285,301.7421,62,54,41
301.90363,301.97287,62,54,41
302.1344,302.20364,63,54,41
302.36517,302.4344,63,54,41
302.59595,302.66516,63,54,41
302.8267,302.89594,63,54,41
303.05746,303.1267,63,54,41
303.28824,303.35748,63,54,41
303.519,303.58826,61,54,41
303.7498,303.819,61,54,41
303.98056,304.04977,62,54,41
304.21133,304.28055,62,54,41
304.44208,304.51132,62,54,41
304.67285,304.7421,62,54,41
304.90363,304.97287,62,54,41
305.1344,305.2036,62,54,41
305.36517,305.4344,59,54,41
305.59595,305.66516,59,54,41
305.8267,305.89594,60,54,41
306.05746,306.1267,60,54,41
306.28824,306.519,60,108,41
306.98056,307.09592,72,108,41
307.2113,307.44208,63,108,41
307.90363,308.019,69,108,41
308.1344,308.50363,60,108,41
308.8267,308.94208,60,108,41
309.05746,309.17285,63,108,41
309.28824,309.40363,57,108,41
309.519,309.6344,60,108,41
309.7498,309.86517,54,108,41
309.98053,310.2113,55,108,41
310.44208,310.67285,62,108,41
310.90363,311.1344,60,108,41
311.36514,311.59592,60,108,41
311.8267,311.94208,62,108,41
312.05746,312.17285,59,108,41
312.28824,312.40363,62,108,41
312.519,312.6344,55,108,41
312.7498,312.86514,63,108,41
312.98053,313.09592,60,108,41
313.2113,313.3267,72,108,41
313.44208,313.55746,66,108,41
313.67285,314.04208,67,108,41
316.67285,316.90363,57,64,41
316.90363,317.13437,59,64,41
317.13437,317.36514,60,64,41
317.36514,317.59592,60,64,41
317.59592,317.78055,59,64,41
317.8267,318.0113,59,64,41
317.8267,318.0113,59,64,41
318.05746,318.24207,59,64,41
318.28824,318.65747,59,64,41
320.36514,320.59592,57,64,41
320.59592,320.8267,59,64,41
320.8267,321.05746,60,64,41
321.05746,321.4267,59,64,41
321.98053,323.06516,55,108,41
323.13437,323.36514,59,108,41
323.36514,323.59592,62,108,41
323.59592,323.8267,65,108,41
323.8267,324.05746,67,108,41
324.05746,324.2882,65,108,41
324.2882,324.51898,62,108,41
324.51898,324.74976,59,108,41
324.74976,325.119,55,108,41
325.67282,326.04205,59,65,41
325.67282,326.04205,62,65,41
326.59592,327.0133,55,65,41
326.59592,327.0133,65,65,41
330.52902,331.4521,64,69,41
331.4521,331.82132,65,69,41
334.2213,335.1444,71,69,41
335.1444,335.51364,72,69,41
336.06747,336.29825,72,60,41
336.29825,336.52902,71,60,41
336.52902,336.7598,72,60,41
336.7598,336.99054,71,60,41
336.99054,337.35977,72,60,41
337.91364,338.1444,69,60,41
338.1444,338.37515,67,60,41
338.37515,338.60593,69,60,41
338.60593,338.8367,67,60,41
338.8367,339.20593,69,60,41
339.75977,339.9444,65,60,41
339.99054,340.17517,64,60,41
340.2213,340.40594,65,60,41
340.4521,340.6367,61,60,41
340.68286,340.86746,62,60,41
340.91364,341.09824,60,60,41
341.1444,341.329,62,60,41
341.37515,341.55978,66,60,41
341.60593,341.97516,67,60,41
342.06747,342.52902,55,54,41
342.52902,342.99054,57,60,41
342.99054,343.4521,59,60,41
343.4521,343.82132,60,5,41
344.37515,345.45978,48,91,41
345.529,345.75977,49,91,41
345.75977,345.99054,50,91,41
345.99054,346.2213,52,91,41
346.2213,347.30594,53,91,41
347.37515,347.60593,54,91,41
347.60593,347.8367,55,91,41
347.8367,348.06747,57,91,41
348.06747,348.4367,59,91,41
348.529,349.15207,50,91,41
349.2213,349.4521,51,91,41
349.4521,349.68286,52,91,41
349.68286,349.9136,54,91,41
349.9136,351.0213,55,91,41
351.06747,351.29822,55,107,41
351.29822,351.529,57,107,41
351.529,351.75977,59,107,41
351.75977,352.129,60,107,41
352.2213,352.59055,58,107,41
352.68283,353.05206,57,77,41
353.60593,355.26746,60,94,41
355.45206,356.19052,60,77,41
356.37515,356.60593,61,77,41
356.60593,356.79053,64,61,41
356.8367,356.9059,64,61,41
357.06744,357.1367,64,61,41
357.29822,357.529,64,61,41
357.529,357.71362,62,61,41
357.75977,357.82898,62,61,41
357.99054,358.05975,62,61,41
358.2213,358.45206,62,80,41
358.45206,358.6367,74,85,41
358.68283,358.75208,74,90,41
358.9136,358.98285,74,94,41
359.14438,359.37515,74,99,41
359.37515,359.55975,72,105,41
359.60593,359.67514,72,108,41
359.83667,359.9059,72,108,41
360.06744,360.25208,57,107,41
360.529,360.64438,69,107,41
360.64438,360.75977,68,107,41
360.75977,360.87515,69,107,41
360.87515,360.99054,68,107,41
360.99054,361.729,69,107,41
361.9136,362.14438,67,66,41
362.14438,362.32898,62,53,41
362.37515,362.44437,67,53,41
362.6059,362.67514,67,53,41
363.06744,363.25208,66,53,41
363.29822,363.48282,66,53,41
363.529,363.7136,66,53,41
363.75977,363.94437,67,53,41
363.99054,364.17514,62,53,41
364.22128,364.29053,67,53,41
364.45206,364.5213,67,53,41
364.9136,365.0982,66,53,41
365.14438,365.32898,66,53,41
365.37515,365.55975,66,53,41
365.6059,365.67514,67,53,41
365.83667,365.9059,66,53,41
366.06744,366.1367,67,53,41
366.29822,366.36743,66,53,41
366.529,366.89822,67,53,41
367.45206,367.68283,64,107,41
367.68283,367.86743,60,107,41
367.9136,367.98282,64,107,41
368.14438,368.2136,64,107,41
368.37512,368.74435,64,107,41
369.29822,370.4059,53,80,41
369.29822,370.4059,55,80,41
371.14438,371.37512,62,107,41
371.37512,371.55975,59,107,41
371.6059,371.67514,62,107,41
371.83667,371.9059,62,107,41
372.06744,372.29822,62,107,41
372.29822,372.48282,59,107,41
372.529,372.7136,59,107,41
372.75974,372.82898,59,107,41
372.9905,373.35974,60,80,41
373.9136,374.029,60,80,41
374.029,374.14435,64,80,41
374.14435,374.25974,62,80,41
374.25974,374.37512,65,80,41
374.37512,374.4905,64,80,41
374.4905,374.6059,67,80,41
374.6059,374.72128,65,80,41
374.72128,374.83667,69,80,41
374.83667,375.2059,67,80,41
376.68283,378.01166,67,64,41
378.06744,378.52896,73,64,41
378.52896,379.85782,74,64,41
379.91357,380.37512,57,64,41
380.37512,381.70398,56,64,41
381.75974,382.22128,68,64,41
382.22128,383.5501,69,64,41
383.6059,383.97513,57,64,41
384.0674,384.25204,57,80,41
384.52896,384.75974,60,80,41
384.75974,384.87512,65,80,41
385.45206,385.6828,72,87,41
385.6828,385.7982,69,89,41
386.37512,386.6059,55,99,41
386.6059,386.72128,60,103,41
387.2982,387.52896,64,108,41
387.52896,387.64435,67,108,41
387.75974,387.87512,69,80,41
387.87512,387.9905,67,80,41
387.9905,388.1059,71,80,41
388.1059,388.22128,69,80,41
388.22128,388.40588,72,80,41
388.6828,388.7982,57,80,41
388.7982,388.91357,55,80,41
388.91357,389.02896,58,80,41
389.02896,389.14435,57,80,41
389.14435,389.32895,60,80,41
389.6059,389.72128,65,80,41
389.72128,389.83664,64,80,41
389.83664,389.95203,67,80,41
389.95203,390.0674,65,80,41
390.0674,390.25204,69,80,41
390.75974,390.94434,53,107,41
390.9905,391.1751,55,107,41
391.22125,391.40588,57,107,41
391.45203,391.63666,60,75,41
391.6828,391.86743,60,75,41
391.91357,392.09818,60,75,41
392.14435,392.32895,60,75,41
392.37512,392.55972,60,75,41
392.6059,392.7905,60,75,41
392.83664,393.02127,60,75,41
393.0674,393.25204,60,75,41
393.2982,393.4828,60,75,41
393.52896,393.71356,60,75,41
393.75974,393.94434,60,75,41
393.9905,394.1751,60,75,41
394.22125,394.40588,59,75,41
394.45203,394.63666,59,75,41
394.6828,394.86743,65,75,41
394.91357,395.09818,65,75,41
395.14435,395.51358,64,91,41
396.99048,397.3597,72,77,41
397.45203,397.82126,72,77,41
397.91357,399.20587,72,77,41
401.3751,401.60587,70,77,41
401.60587,401.83664,69,77,41
401.83664,402.0674,68,77,41
402.0674,402.2982,67,77,41
402.2982,402.52896,62,77,41
402.52896,403.2674,67,77,41
407.60587,408.43665,60,77,41
408.52893,408.8751,72,77,41
408.8751,408.99048,69,77,41
408.99048,409.6828,67,77,41
409.6828,409.8674,65,77,41
409.91354,410.03662,64,108,41
410.0674,410.11356,67,108,41
410.22125,410.2674,65,108,41
410.3751,410.42123,64,108,41
410.52893,410.5751,62,108,41
410.6828,410.72894,60,108,41
410.83664,410.88278,59,108,41
410.99048,411.03662,57,108,41
411.14432,411.1905,55,108,41
411.29816,411.33664,53,108,41
411.33664,411.3751,55,108,41
411.3751,411.41354,53,108,41
411.41354,411.5674,52,108,41
411.5674,411.72125,53,108,41
411.7597,412.12894,52,108,41
413.14432,413.60587,71,68,41
413.60587,414.06738,72,68,41
414.06738,414.52893,67,68,41
414.99048,415.45203,59,68,41
415.45203,415.91354,60,68,41
415.91354,416.3751,55,68,41
416.83664,417.20587,55,108,41
417.29816,417.42123,55,108,41
417.452,417.49817,67,108,41
417.60587,417.652,65,108,41
417.7597,417.80585,64,108,41
417.91354,417.95972,62,108,41
418.06738,418.11356,60,108,41
418.22125,418.34433,59,108,41
418.3751,418.49817,57,108,41
418.52893,418.652,55,108,41
418.68277,418.80585,53,108,41
418.8366,418.9597,52,108,41
418.99048,419.11356,50,108,41
419.14432,419.32892,48,108,41
419.3751,419.49048,60,108,41
419.60587,419.8366,60,108,41
420.99048,421.17508,48,108,41
421.22122,421.3366,57,108,41
421.452,421.68277,57,108,41
422.8366,423.02124,50,108,41
423.06738,423.18277,59,108,41
423.29816,423.52893,59,108,41
424.68277,425.052,55,108,41
426.52893,426.71353,61,63,41
426.7597,426.9443,61,63,41
426.99045,427.17508,61,63,41
427.22122,427.40585,61,63,41
427.452,427.63663,67,63,41
427.68277,427.86737,67,63,41
427.91354,428.09814,67,63,41
428.14432,428.32892,67,63,41
428.37506,428.5597,65,63,41
428.60583,428.79047,65,63,41
428.8366,429.02124,65,63,41
429.06738,429.25198,65,63,41
429.29816,429.48276,63,63,41
429.52893,429.71353,63,63,41
429.7597,429.9443,63,63,41
429.99045,430.17508,63,63,41
430.22122,430.40585,64,63,41
430.452,430.63663,64,63,41
430.68277,430.86737,64,63,41
430.91354,431.09814,64,63,41
431.14432,431.32892,65,63,41
431.37506,431.5597,65,63,41
431.60583,431.79047,65,63,41
431.8366,432.02124,65,63,41
432.06738,432.4366,64,73,41
432.52893,432.99045,55,73,41
432.99045,433.452,52,73,41
433.452,433.91354,48,73,41
433.91354,434.28278,59,73,41
434.37506,434.8366,62,73,41
434.8366,435.29816,59,73,41
435.29816,435.75967,55,73,41
435.75967,436.1289,64,73,41
436.22122,436.68277,67,73,41
436.68277,437.1443,64,73,41
437.1443,437.60583,60,73,41
437.60583,437.97507,71,73,41
438.06738,438.5289,74,73,41
438.5289,438.99045,71,73,41
438.99045,439.452,67,73,41
439.452,440.5366,55,88,41
440.60583,440.8366,55,73,41
440.8366,441.06738,57,73,41
441.06738,441.29813,59,73,41
441.29813,441.75967,62,73,41
441.75967,442.1289,60,73,41
443.1443,444.2289,67,88,41
444.29813,444.5289,67,73,41
444.5289,444.75967,69,73,41
444.75967,444.99045,71,73,41
444.99045,445.35968,74,73,41
445.452,445.8212,72,73,41
447.06735,447.25198,67,73,41
447.29813,447.48276,67,73,41
447.5289,447.71353,67,73,41
447.75967,448.1289,67,73,41
448.9135,449.1443,69,82,41
449.1443,449.25967,69,83,41
449.37506,449.55966,69,85,41
449.60583,449.97507,69,87,41
450.75967,450.99045,70,94,41
450.99045,451.10583,70,96,41
451.22122,451.40582,70,98,41
451.45197,451.8212,70,99,41
452.60583,452.83658,72,108,41
452.83658,452.95197,72,108,41
453.06735,453.1366,72,108,41
453.29813,453.66736,72,108,41
454.2212,455.30582,75,108,41
455.37506,455.6058,74,108,41
455.6058,455.83658,72,108,41
455.83658,456.06735,70,108,41
456.06735,457.17505,70,108,41
458.37506,458.6058,67,94,41
458.6058,458.83658,64,94,41
458.83658,459.06735,62,94,41
459.06735,459.29813,60,94,41
459.29813,459.5289,62,94,41
459.5289,459.7135,58,94,41
459.75967,459.99042,57,80,41
459.99042,460.2212,55,85,41
460.2212,460.45197,54,89,41
460.45197,460.68274,55,94,41
460.68274,460.9135,56,99,41
460.9135,461.1443,57,105,41
461.1443,461.37503,58,108,41
461.37503,461.55966,59,108,41
461.6058,461.97504,60,73,41
463.45197,464.5366,60,73,41
464.6058,464.79044,61,73,41
464.83658,465.02118,62,73,41
465.06735,465.25195,64,73,41
465.29813,465.66736,67,73,41
465.75964,466.12888,65,73,41
466.2212,467.30582,60,78,41
467.37503,467.6058,61,82,41
467.6058,467.83658,62,84,41
467.83658,468.06735,64,87,41
468.06735,468.29813,67,89,41
468.29813,468.52887,65,92,41
468.52887,468.99042,60,94,41
468.99042,469.2212,60,99,41
469.2212,469.4058,60,102,41
469.45197,469.63657,62,105,41
469.68274,469.86734,64,107,41
469.91348,470.14426,67,108,41
470.14426,470.3289,65,108,41
470.37503,470.74426,60,108,41
470.83658,471.06735,60,108,41
471.06735,471.25195,60,108,41
471.2981,471.52887,67,108,41
471.52887,471.7135,65,108,41
471.99042,472.17502,60,108,41
472.2212,472.45197,69,108,41
472.45197,472.63657,67,108,41
472.91348,473.0981,60,108,41
473.14426,473.37503,71,108,41
473.37503,473.55963,69,108,41
473.83658,474.02118,69,108,41
474.06735,474.2981,71,108,41
474.2981,474.48273,72,108,41
474.75964,474.94427,72,108,41
474.99042,475.2212,72,108,41
475.2212,475.4058,67,108,41
475.6827,475.86734,59,108,41
475.91348,476.14426,67,108,41
476.14426,476.3289,65,108,41
476.37503,476.74426,64,108,41
477.52887,477.5981,64,108,41
477.75964,477.8289,67,108,41
477.99042,478.05963,71,108,41
478.2212,478.45193,74,108,41
478.45193,478.63657,71,108,41
478.6827,479.37503,67,108,41
479.37503,479.55963,64,108,41
479.6058,479.97504,60,108,41
480.06732,480.15964,65,78,41
480.1827,480.27502,65,78,41
480.2981,480.3904,65,78,41
480.41348,480.5058,65,78,41
480.52887,480.6212,69,78,41
480.64426,480.73657,69,78,41
480.75964,480.85196,69,78,41
480.87503,480.96735,69,78,41
480.99042,481.0827,67,78,41
481.1058,481.1981,67,78,41
481.2212,481.31348,67,78,41
481.33655,481.42886,67,78,41
481.45193,481.54425,65,78,41
481.56732,481.65964,65,78,41
481.6827,481.77502,65,78,41
481.7981,481.8904,65,78,41
481.91348,482.2827,64,108,41
483.06732,483.13657,64,108,41
483.2981,483.36734,67,108,41
483.52887,483.59808,71,108,41
483.75964,483.94424,74,108,41
483.99042,484.17502,71,108,41
484.22116,484.77502,67,108,41
484.91348,485.09808,64,108,41
485.14426,485.5135,60,108,41
485.60577,485.6981,65,78,41
485.72116,485.81348,65,78,41
485.83655,485.92886,65,78,41
485.95193,486.04425,65,78,41
486.06732,486.15964,69,78,41
486.1827,486.27502,69,78,41
486.2981,486.3904,69,78,41
486.41348,486.5058,69,78,41
486.52887,486.6212,67,78,41
486.64426,486.73654,67,78,41
486.75964,486.85193,67,78,41
486.87503,486.96732,67,78,41
486.9904,487.0827,65,78,41
487.10577,487.1981,65,78,41
487.22116,487.31348,65,78,41
487.22116,487.31348,65,78,41
487.45193,488.37503,64,94,41
488.37503,489.2981,65,94,41
489.2981,490.22116,64,94,41
490.22116,490.95963,62,94,41
491.14426,492.06732,60,94,41
492.06732,492.9904,69,94,41
492.9904,493.91348,67,94,41
493.91348,494.65195,65,94,41
494.83655,495.2981,64,94,41
495.2981,495.44208,55,87,41
495.77808,495.9281,55,80,41
496.27808,496.4346,55,73,41
496.79984,497.23618,55,73,41
0.0,0.25,48,43,42
0.625,0.875,48,43,42
1.25,1.5,48,43,42
1.875,2.125,48,43,42
2.5,2.75,48,43,42
3.125,3.375,48,43,42
3.75,4.0,48,43,42
4.375,4.625,48,43,42
5.0,5.25,48,43,42
5.625,5.875,48,43,42
6.25,6.5,48,43,42
6.875,7.125,48,43,42
7.5,7.75,47,46,42
8.125,8.375,47,48,42
8.75,9.0,47,51,42
9.375,9.625,47,54,42
10.0,10.25,47,56,42
10.625,10.875,47,59,42
11.25,11.5,47,78,42
11.875,12.125,47,85,42
12.5,12.75,47,92,42
13.125,13.75,42,99,42
13.75,14.375,43,106,42
14.375,15.0,45,108,42
15.0,15.25,46,43,42
15.625,15.875,46,43,42
16.25,16.5,46,43,42
16.875,17.125,46,43,42
17.5,17.75,46,43,42
18.125,18.375,46,43,42
18.75,19.0,46,43,42
19.375,19.625,46,43,42
20.0,20.25,46,43,42
20.625,20.875,46,43,42
21.25,21.5,46,43,42
21.875,22.125,46,43,42
22.5,22.75,45,43,42
23.125,23.375,45,43,42
23.75,24.0,45,43,42
24.375,24.625,45,43,42
25.0,25.25,45,43,42
25.625,25.875,45,43,42
26.25,26.5,45,79,42
26.875,27.125,45,86,42
27.5,27.75,45,92,42
28.125,28.75,40,99,42
28.75,29.375,41,105,42
29.375,30.0,43,108,42
30.0,30.25,44,43,42
30.625,30.875,44,43,42
31.25,31.5,44,43,42
31.875,32.125,44,43,42
32.5,32.75,44,43,42
33.125,33.375,44,43,42
33.75,34.0,43,43,42
34.375,34.625,43,43,42
35.0,35.25,43,43,42
35.625,35.875,43,43,42
36.25,36.5,43,43,42
36.875,37.125,43,43,42
37.5,37.75,41,43,42
38.125,38.375,41,43,42
38.75,39.0,41,43,42
39.375,39.625,41,43,42
40.0,40.25,41,43,42
40.625,40.875,41,43,42
41.25,43.25,39,73,42
45.625,46.25,43,108,42
46.25,46.875,44,108,42
46.875,47.5,45,108,42
47.5,48.125,46,108,42
48.125,48.75,47,108,42
48.75,50.25,48,108,42
50.625,51.25,60,108,42
51.25,51.875,59,108,42
51.875,52.5,58,108,42
52.5,53.75,57,108,42
53.75,56.25,56,108,42
56.25,56.75,55,108,42
56.875,57.5,66,94,42
57.5,58.75,67,73,42
60.625,61.25,54,94,42
61.25,62.5,55,73,42
64.375,65.0,42,94,42
65.0,66.25,43,73,42
68.125,68.75,43,73,42
68.75,69.375,47,73,42
69.375,70.0,49,94,42
70.0,70.625,50,73,42
70.625,71.25,47,73,42
71.875,72.5,43,73,42
72.5,73.125,47,73,42
73.125,73.75,49,94,42
73.75,74.375,50,73,42
74.375,75.0,47,73,42
75.625,76.25,43,73,42
76.25,76.875,47,73,42
76.875,77.5,49,94,42
77.5,78.125,50,73,42
78.125,78.65625,47,73,42
78.75,80.25,43,87,42
80.25,83.25,43,60,42
99.749985,99.819214,36,98,42
99.98075,100.04999,40,98,42
100.211525,100.280754,43,98,42
100.44229,100.81152,48,98,42
101.59614,101.66537,55,98,42
101.826904,101.89613,55,98,42
102.05768,102.12691,55,98,42
102.288445,102.47306,54,98,42
102.51921,102.70383,55,98,42
102.749985,102.819214,50,98,42
102.98075,103.04998,47,98,42
103.21152,103.39613,43,98,42
103.44229,103.51152,43,98,42
103.67306,103.74229,47,98,42
103.903824,103.97306,50,98,42
104.1346,104.50383,55,98,42
105.288445,105.35767,60,98,42
105.51921,105.58844,60,98,42
105.74998,105.81921,60,98,42
105.98075,106.16536,59,98,42
106.21152,106.39613,60,98,42
106.44228,106.51152,55,98,42
106.67306,106.74229,52,98,42
106.903824,107.273056,48,98,42
107.8269,108.56536,58,108,42
108.74998,108.98074,57,98,42
108.98074,109.21152,53,98,42
109.21152,109.44228,55,98,42
109.44228,109.67305,57,98,42
109.67305,110.411514,58,108,42
110.59613,110.8269,57,98,42
110.8269,111.05766,53,98,42
111.05766,111.28844,55,80,42
111.28844,111.5192,57,80,42
111.5192,112.25767,58,104,42
112.44228,112.81151,57,94,42
113.36536,113.73459,50,94,42
114.28843,114.65766,55,80,42
115.21151,115.58074,57,99,42
116.13458,116.503815,53,94,42
117.05766,117.42689,55,94,42
117.980736,118.34997,52,94,42
118.90381,119.27304,48,94,42
119.82689,120.19612,53,94,42
120.74996,121.119194,55,94,42
121.67304,123.14996,48,102,42
123.519196,124.603806,36,102,42
124.673035,124.90381,36,94,42
124.90381,125.134575,38,94,42
125.134575,125.36534,40,94,42
125.36534,126.28842,43,94,42
126.28842,127.02688,41,94,42
127.211494,127.39611,40,94,42
127.44227,127.62688,52,94,42
127.673035,127.85765,52,94,42
127.9038,128.08842,52,94,42
128.13457,128.31918,52,94,42
128.36534,128.54996,52,94,42
128.59612,128.78073,50,94,42
128.82687,129.01149,50,94,42
129.05765,129.24226,48,94,42
129.28842,129.47304,48,94,42
129.51918,129.7038,48,94,42
129.74995,129.93457,47,94,42
129.98073,130.16534,45,94,42
130.21149,130.3961,45,94,42
130.44226,130.62688,57,94,42
130.67303,130.85765,55,94,42
130.9038,131.08841,53,94,42
131.13457,131.31918,53,94,42
131.36534,131.54996,53,94,42
131.5961,131.78072,52,94,42
131.82687,132.01149,50,94,42
132.05765,132.24226,50,88,42
132.2884,132.47302,50,101,42
132.51918,132.7038,48,108,42
132.74995,132.98073,47,102,42
132.98073,133.21149,50,102,42
133.21149,133.44226,55,102,42
133.44226,133.67303,59,102,42
133.67303,133.85765,62,102,42
133.9038,133.97302,60,102,42
134.13457,134.2038,59,102,42
134.36534,134.43457,57,102,42
134.5961,134.82687,55,102,42
134.82687,135.05765,47,102,42
135.05765,135.2884,50,102,42
135.2884,135.51918,55,102,42
135.51918,135.7038,59,102,42
135.74995,135.81918,60,102,42
135.98071,136.04994,59,102,42
136.21149,136.28072,57,102,42
136.44226,136.8115,55,94,42
139.21149,139.94995,57,94,42
140.13457,140.50378,50,94,42
141.05763,141.42686,50,94,42
141.98071,142.34995,50,94,42
142.9038,143.27303,50,94,42
143.82686,143.89609,50,94,42
144.05763,144.12686,45,94,42
144.2884,144.35764,50,94,42
144.51917,144.5884,45,94,42
144.74994,145.11917,50,94,42
145.67302,145.85764,43,108,42
145.90378,146.0884,43,108,42
146.13455,146.31917,43,108,42
146.36533,146.54994,43,108,42
146.59608,146.96532,43,108,42
147.51917,148.62686,57,80,42
149.36533,149.43456,50,108,42
149.59608,149.66531,50,108,42
149.82686,149.89609,50,108,42
150.05763,150.12686,50,108,42
150.28839,150.9807,50,108,42
150.9807,151.16531,48,108,42
151.21147,151.5807,47,80,42
154.90378,155.01917,52,80,42
155.01917,155.13455,56,80,42
155.13455,155.24992,54,80,42
155.24992,155.36531,57,80,42
155.36531,155.4807,56,80,42
155.4807,155.59608,59,80,42
155.59608,155.71147,57,80,42
155.71147,155.82686,60,80,42
155.82686,156.19608,59,80,42
156.74992,156.86531,45,80,42
156.86531,156.9807,48,80,42
156.9807,157.09608,47,80,42
157.09608,157.21147,50,80,42
157.21147,157.32684,48,80,42
157.32684,157.44223,52,80,42
157.44223,157.55762,50,80,42
157.55762,157.673,53,80,42
157.673,158.04224,52,80,42
158.59608,158.71147,50,80,42
158.71147,158.82684,54,80,42
158.82684,158.94223,52,80,42
158.94223,159.05762,55,80,42
159.05762,159.173,54,80,42
159.173,159.28839,57,80,42
159.28839,159.40378,55,80,42
159.40378,159.51915,59,80,42
159.51915,159.88838,57,80,42
160.44223,160.55762,43,80,42
160.55762,160.673,47,80,42
160.673,160.78839,45,80,42
160.78839,160.90376,48,80,42
160.90376,161.01915,47,80,42
161.01915,161.13454,50,80,42
161.13454,161.24992,48,80,42
161.24992,161.36531,52,80,42
161.36531,161.73454,50,80,42
162.28839,162.40376,52,80,42
162.40376,162.51915,55,80,42
162.51915,162.63454,54,80,42
162.63454,162.74992,57,80,42
162.74992,162.93454,55,80,42
163.21146,163.32684,54,66,42
163.32684,163.44223,57,67,42
163.44223,163.55762,55,69,42
163.55762,163.673,59,71,42
163.673,163.85762,57,72,42
164.13454,164.24992,51,78,42
164.24992,164.36531,54,80,42
164.36531,164.48068,52,82,42
164.48068,164.59607,55,82,42
164.59607,164.78069,54,84,42
165.05762,165.17299,52,90,42
165.17299,165.28838,55,92,42
165.28838,165.40376,54,94,42
165.40376,165.51915,57,95,42
165.51915,165.70377,55,97,42
165.98068,166.34991,48,94,42
166.90376,167.273,48,94,42
167.82684,168.93452,48,107,42
168.98068,169.21146,60,107,42
169.21146,169.44223,59,107,42
169.44223,169.67299,57,107,42
169.67299,170.04222,55,107,42
170.13454,170.50375,47,107,42
170.59607,170.9653,48,107,42
171.0576,171.42683,52,107,42
171.51915,171.70377,50,107,42
171.74991,171.93452,50,107,42
171.98068,172.1653,50,107,42
172.21146,172.39607,50,107,42
172.44221,172.62683,50,107,42
172.67299,172.8576,50,107,42
172.90376,173.08838,50,107,42
173.13452,173.31914,50,107,42
173.3653,173.73453,43,107,42
173.82683,174.19606,55,107,42
175.21144,175.58067,43,80,42
175.67299,176.04222,55,80,42
176.13452,176.50375,50,80,42
176.59607,176.96529,47,80,42
177.0576,177.42683,43,80,42
179.59605,179.82683,56,108,42
179.82683,180.0576,57,108,42
180.0576,180.28836,54,108,42
180.28836,180.51913,55,108,42
180.51913,180.74991,49,108,42
180.74991,181.48836,50,108,42
181.67297,181.81145,59,94,42
182.13452,182.27298,59,94,42
182.59605,183.21144,58,94,42
183.21144,183.33452,59,94,42
183.36528,183.41144,55,94,42
183.51913,183.67297,58,94,42
183.67297,183.79605,59,94,42
183.82683,183.87297,55,94,42
183.98067,184.13452,58,94,42
184.13452,184.2576,59,94,42
184.28836,184.33452,55,94,42
184.44221,184.71913,59,94,42
184.78836,184.88068,55,94,42
184.90375,185.27298,59,94,42
185.82683,186.28836,47,94,42
186.28836,186.6576,48,94,42
186.7499,187.11913,48,94,42
187.21144,187.58067,50,94,42
187.67297,188.0422,50,94,42
188.1345,188.50374,43,108,42
188.59605,189.05759,55,108,42
189.05759,189.51912,57,108,42
189.51912,189.88835,50,108,42
190.4422,190.90375,55,66,42
190.90375,191.36528,57,66,42
191.36528,191.73451,50,66,42
192.28836,192.7499,55,66,42
192.7499,193.21143,57,66,42
193.21143,193.58066,50,66,42
194.1345,194.59604,55,54,42
194.59604,195.05759,57,54,42
195.05759,195.42682,50,60,42
195.98065,196.4422,55,71,42
196.4422,196.90373,57,71,42
196.90373,197.27296,50,71,42
197.36526,197.54988,47,94,42
197.59604,197.71143,47,94,42
197.82681,198.05757,47,94,42
199.21143,199.39604,48,94,42
199.4422,199.55757,48,94,42
199.67296,199.90373,48,94,42
201.05757,201.24219,50,94,42
201.28835,201.40373,50,94,42
201.51912,201.74988,50,94,42
202.90373,203.13449,43,94,42
204.74988,204.9345,41,94,42
204.98065,205.16527,53,94,42
205.21141,205.39603,53,94,42
205.44218,205.6268,53,94,42
205.67296,205.85757,53,94,42
205.90373,206.08833,53,94,42
206.13449,206.3191,53,94,42
206.36526,206.54988,53,94,42
206.59604,206.78064,40,94,42
206.8268,207.01141,52,94,42
207.05757,207.24219,52,94,42
207.28835,207.47296,52,94,42
207.5191,207.70372,37,94,42
207.74988,207.9345,49,94,42
207.98065,208.16527,49,94,42
208.21141,208.39603,49,94,42
208.44218,208.6268,38,94,42
208.67296,208.85757,50,94,42
208.90372,209.08833,50,94,42
209.13449,209.3191,50,94,42
209.36526,209.54988,38,94,42
209.59602,209.78064,50,94,42
209.8268,210.01141,50,94,42
210.05757,210.24219,50,94,42
210.28833,210.47295,43,94,42
210.5191,210.70372,43,80,42
210.74988,210.9345,43,80,42
210.98064,211.16525,43,80,42
211.21141,211.39603,43,80,42
211.44218,211.6268,43,80,42
211.67294,211.85756,43,80,42
211.90372,212.08833,43,80,42
212.13449,212.3191,43,80,42
212.36525,212.54987,43,80,42
212.59602,212.78064,43,80,42
212.8268,213.01141,43,80,42
213.05757,213.24217,43,80,42
213.28833,213.47295,43,80,42
213.5191,213.70372,43,80,42
213.74988,213.93448,43,80,42
213.98064,214.16525,43,80,42
214.21141,214.39603,43,80,42
214.44218,214.6268,43,80,42
214.67294,214.85756,43,80,42
214.90372,215.08833,43,80,42
215.13449,215.3191,43,80,42
215.36525,215.54987,43,80,42
215.59602,215.78064,43,80,42
215.8268,216.01141,43,94,42
216.05756,216.24217,43,94,42
216.28833,216.47295,43,94,42
216.5191,216.70372,43,94,42
216.74986,216.93448,43,94,42
216.98064,217.16525,43,94,42
217.21141,217.39603,43,94,42
217.44217,217.62679,43,94,42
217.67294,217.85756,43,94,42
218.13448,218.31909,47,94,42
218.59602,218.78064,50,94,42
219.05756,219.24217,38,94,42
219.51909,219.7037,43,94,42
219.98064,220.16525,59,94,42
220.44217,220.62679,62,94,42
220.90372,221.08832,50,94,42
221.36525,221.54987,43,94,42
221.82678,222.0114,47,94,42
222.28833,222.47295,50,94,42
222.74986,222.93448,38,94,42
223.2114,223.39601,43,94,42
223.67294,223.85756,59,94,42
224.13448,224.31909,62,94,42
224.59601,224.78062,50,94,42
225.05756,226.16524,43,94,42
226.2114,226.44217,43,94,42
226.44217,226.67293,45,94,42
226.67293,226.9037,47,94,42
226.9037,227.36523,50,66,42
227.36523,228.0114,48,70,42
228.05756,228.28831,45,76,42
228.28831,228.51909,47,77,42
228.51909,228.74986,48,79,42
228.74986,229.2114,52,82,42
229.2114,229.85754,50,85,42
229.9037,230.13448,47,91,42
230.13448,230.36523,48,93,42
230.36523,230.59601,50,94,42
230.59601,231.05754,53,96,42
231.05754,231.7037,52,100,42
231.74985,231.98062,48,106,42
231.98062,232.2114,50,108,42
232.2114,232.44215,52,108,42
232.44215,233.52678,55,94,42
233.59601,233.82677,53,94,42
233.82677,234.05754,52,94,42
234.05754,234.26523,50,94,42
234.28831,235.02678,56,94,42
235.2114,235.58061,55,94,42
239.82677,240.01138,58,54,42
240.05754,240.24216,58,54,42
240.2883,240.47292,58,54,42
240.51907,240.70369,58,54,42
240.74985,240.93446,58,54,42
240.9806,241.16522,58,54,42
241.21138,241.396,58,54,42
241.44215,241.62677,58,54,42
241.67291,241.85753,58,54,42
241.90369,242.0883,58,54,42
242.13446,242.31908,58,54,42
242.36523,242.54984,58,54,42
242.596,242.78061,58,54,42
242.82677,243.01138,58,54,42
243.05754,243.24214,58,54,42
243.2883,243.47292,58,54,42
243.51907,243.70369,58,54,42
243.74985,243.93446,58,46,42
243.9806,244.16522,58,54,42
244.21138,244.396,58,54,42
244.44215,244.62677,58,54,42
244.67291,244.85753,58,54,42
244.90369,245.0883,58,54,42
245.13446,245.31908,58,54,42
245.36522,245.54984,58,54,42
245.596,245.78061,58,54,42
245.82677,246.01138,58,54,42
246.05753,246.24214,58,54,42
246.2883,246.47292,58,54,42
246.51907,246.70369,58,54,42
246.74983,246.93445,58,54,42
246.9806,247.16522,58,66,42
247.21138,247.396,57,54,42
247.44214,247.62675,57,54,42
247.67291,247.85753,57,54,42
247.90369,248.0883,57,54,42
248.13445,248.31906,57,54,42
248.36522,248.54984,57,54,42
248.596,248.78061,57,54,42
248.82675,249.01137,57,54,42
249.05753,249.24214,57,54,42
249.2883,249.47292,57,54,42
249.51907,249.70367,57,54,42
249.74983,249.93445,57,54,42
249.9806,250.16522,57,66,42
250.21138,250.39598,57,66,42
250.44214,250.62675,57,66,42
250.67291,250.85753,57,66,42
250.90369,251.0883,55,66,42
251.13445,251.31906,55,66,42
251.36522,251.54984,55,66,42
251.596,251.78061,55,66,42
251.82675,252.01137,55,66,42
252.05753,252.24214,55,66,42
252.2883,252.47292,55,66,42
252.51906,252.70367,55,66,42
252.74983,252.93445,55,68,42
252.9806,253.16522,55,70,42
253.21136,253.39598,55,72,42
253.44214,253.62675,55,74,42
253.67291,253.85753,55,76,42
253.90367,254.08829,55,78,42
254.13445,254.31906,55,80,42
254.36522,254.54984,55,82,42
254.59598,254.7806,53,84,42
254.82675,255.01137,53,86,42
255.05753,255.24214,53,88,42
255.28828,255.4729,53,90,42
255.51906,255.70367,53,93,42
255.74983,255.93445,53,94,42
255.98059,256.16522,53,96,42
256.21136,256.396,53,99,42
256.44214,256.62674,53,100,42
256.6729,256.8575,53,103,42
256.9037,257.0883,53,105,42
257.13443,257.31906,53,106,42
257.3652,257.54984,53,108,42
257.59598,257.7806,53,108,42
257.82675,258.01135,53,108,42
258.05753,258.24213,53,108,42
258.2883,258.4037,53,108,42
258.51904,258.63443,41,108,42
258.74982,258.9806,53,108,42
259.44214,259.55753,41,108,42
259.6729,259.90366,53,108,42
260.3652,260.4806,57,108,42
260.59598,260.71136,60,108,42
260.82675,260.94214,53,108,42
261.05753,261.1729,60,108,42
261.2883,261.40366,52,108,42
261.51904,261.63443,60,108,42
261.74982,261.8652,51,108,42
261.9806,262.21136,52,108,42
262.44214,262.6729,56,108,42
262.90366,263.13443,57,108,42
263.3652,263.59598,53,108,42
263.82675,264.19598,52,108,42
265.67288,266.82675,40,94,42
266.82675,267.0575,42,94,42
267.0575,267.28827,44,94,42
267.28827,267.51904,45,94,42
267.51904,268.44214,48,94,42
268.44214,268.81134,47,94,42
269.3652,270.51904,40,94,42
270.51904,270.74982,42,94,42
270.74982,270.9806,44,94,42
270.9806,271.21136,45,94,42
271.21136,272.13443,48,94,42
272.13443,272.50366,47,94,42
273.0575,274.1652,40,94,42
274.21133,274.28058,44,94,42
274.4421,274.51135,47,94,42
274.67288,274.74213,50,94,42
274.90366,275.3652,53,108,42
275.3652,275.73444,52,108,42
276.0575,276.12674,44,108,42
276.28827,276.3575,47,108,42
276.51904,276.58826,50,108,42
276.74982,277.21133,53,108,42
277.21133,277.58057,52,108,42
277.90366,277.97287,59,108,42
278.13443,278.20364,52,108,42
278.3652,278.43442,56,108,42
278.59595,279.28827,57,108,42
279.28827,279.47287,58,108,42
279.51904,280.21133,57,108,42
280.21133,280.39597,58,108,42
280.4421,280.81134,57,108,42
281.13443,281.24982,55,108,42
281.36517,281.48056,58,108,42
281.59595,281.71133,52,108,42
281.82672,281.9421,55,108,42
282.0575,282.17288,49,108,42
282.28827,282.6575,50,73,42
283.67288,284.0421,45,73,42
284.13443,284.50363,50,73,42
285.51904,285.88828,45,78,42
285.98056,286.0498,50,108,42
286.21133,286.28058,54,108,42
286.4421,286.51132,57,108,42
286.67288,286.7421,60,108,42
286.90366,287.36517,63,108,42
287.36517,287.7344,62,108,42
288.0575,288.1267,54,108,42
288.28827,288.35748,57,108,42
288.519,288.58826,60,108,42
288.7498,289.21133,63,108,42
289.21133,289.58057,62,108,42
289.90366,289.97287,54,108,42
290.1344,290.20364,57,108,42
290.36517,290.43442,60,108,42
290.59595,291.0575,63,108,42
291.0575,291.42673,62,108,42
291.519,292.07288,55,108,42
292.21133,292.39594,56,108,42
292.4421,292.99594,55,108,42
293.1344,293.31903,56,108,42
293.36517,293.7344,55,108,42
294.0575,294.17288,53,108,42
294.28824,294.40363,56,108,42
294.519,294.6344,50,108,42
294.7498,294.86517,53,108,42
294.98056,295.09595,47,108,42
295.21133,295.58057,48,73,42
296.59595,296.96518,43,73,42
297.0575,297.4267,48,73,42
298.4421,298.8113,43,73,42
298.90363,299.27286,48,73,42
300.05746,300.28824,41,73,42
300.28824,300.519,44,73,42
300.519,300.7498,48,73,42
300.7498,301.21133,51,73,42
301.21133,301.58057,50,73,42
301.90363,302.1344,39,73,42
302.1344,302.36517,43,73,42
302.36517,302.59595,46,73,42
302.59595,303.05746,50,73,42
303.05746,303.4267,48,73,42
303.7498,303.98056,38,73,42
303.98056,304.21133,41,73,42
304.21133,304.44208,44,73,42
304.44208,304.90363,48,73,42
304.90363,305.27286,47,73,42
305.59595,305.8267,48,73,42
305.8267,306.05746,44,73,42
306.05746,306.28824,43,73,42
306.28824,306.519,42,108,42
306.98056,307.09592,42,108,42
307.2113,307.44208,54,108,42
307.90363,308.019,42,108,42
308.1344,308.50363,54,108,42
308.8267,308.94208,48,108,42
309.05746,309.17285,51,108,42
309.28824,309.40363,45,108,42
309.519,309.6344,48,108,42
309.7498,309.86517,42,108,42
309.98053,310.2113,43,108,42
310.44208,310.67285,47,108,42
310.90363,311.1344,48,108,42
311.36514,311.59592,44,108,42
311.8267,312.19592,43,108,42
313.67285,314.8267,43,94,42
314.8267,315.05746,45,94,42
315.05746,315.28824,47,94,42
315.28824,315.519,48,94,42
315.519,316.44208,51,94,42
316.44208,316.8113,50,94,42
317.36514,318.51898,43,94,42
318.51898,318.74976,45,94,42
318.74976,318.98053,47,94,42
318.98053,319.2113,48,94,42
319.2113,320.13437,51,94,42
320.13437,320.5036,50,94,42
321.05746,322.14206,43,108,42
322.2113,322.44208,43,108,42
322.44208,322.67285,47,108,42
322.67285,322.85745,50,108,42
322.9036,323.13437,55,108,42
323.13437,323.36514,53,108,42
323.36514,323.59592,50,108,42
323.59592,323.8267,47,108,42
323.8267,324.19592,43,108,42
325.67282,326.04205,55,65,42
326.59592,327.0133,43,65,42
328.68286,328.7521,60,48,42
328.91364,328.98288,60,48,42
329.1444,329.21362,60,48,42
329.37518,329.4444,60,48,42
329.60596,329.67517,60,48,42
329.8367,329.90594,60,48,42
330.06747,330.13672,60,48,42
330.29825,330.3675,60,48,42
330.52902,330.59824,60,48,42
330.7598,330.829,60,48,42
330.99057,331.05978,60,48,42
331.2213,331.29056,60,48,42
331.4521,331.52133,60,48,42
331.68286,331.7521,60,48,42
331.91364,331.98288,60,48,42
332.1444,332.21362,60,48,42
332.37518,332.4444,60,48,42
332.60593,332.67517,60,48,42
332.8367,332.90594,60,48,42
333.06747,333.13672,60,48,42
333.29825,333.3675,60,48,42
333.52902,333.59824,60,48,42
333.7598,333.829,60,48,42
333.99057,334.05978,60,48,42
334.2213,334.29056,60,48,42
334.4521,334.52133,60,48,42
334.68286,334.7521,60,48,42
334.91364,334.98285,60,48,42
335.1444,335.21362,60,48,42
335.37518,335.4444,60,48,42
335.60593,335.67517,60,48,42
335.8367,335.90594,60,48,42
336.06747,336.4367,60,80,42
336.99054,337.17517,60,80,42
337.4521,337.63672,59,80,42
337.91364,338.28287,57,80,42
338.8367,339.02133,57,80,42
339.29825,339.48285,55,80,42
339.75977,340.129,53,80,42
340.4521,340.6367,57,80,42
340.68286,341.0521,50,80,42
341.37515,341.55978,62,80,42
341.60593,341.97516,55,80,42
343.68286,343.75208,36,91,42
343.91364,343.98285,40,91,42
344.14438,344.21362,43,91,42
344.37515,344.7444,48,91,42
344.8367,345.20593,36,91,42
345.529,345.59824,38,91,42
345.75977,345.829,41,91,42
345.99054,346.05978,45,91,42
346.2213,346.59055,50,91,42
346.68286,347.0521,38,91,42
347.37515,347.4444,43,107,42
347.60593,347.67517,47,107,42
347.8367,347.9059,50,107,42
348.06747,348.4367,55,107,42
348.529,348.89822,43,107,42
349.2213,349.29053,40,107,42
349.4521,349.5213,43,107,42
349.68286,349.75208,47,107,42
349.9136,350.28284,52,107,42
350.37515,350.7444,40,107,42
351.06747,351.1367,45,107,42
351.29822,351.36746,48,107,42
351.529,351.59824,52,107,42
351.75977,352.129,57,107,42
352.2213,352.59055,55,107,42
352.68283,353.14438,53,77,42
353.14438,353.37515,55,77,42
353.37515,353.60593,57,77,42
353.60593,354.3444,58,94,42
354.529,354.75977,57,77,42
354.75977,354.99054,53,77,42
354.99054,355.2213,55,77,42
355.2213,355.45206,57,77,42
355.45206,356.19052,58,77,42
356.37515,356.7444,57,77,42
357.29822,357.66745,50,77,42
358.2213,358.59055,55,80,42
359.14438,359.5136,57,99,42
360.99054,361.729,62,107,42
361.9136,362.28284,55,73,42
362.83667,363.2059,55,73,42
363.75977,364.129,55,73,42
364.68283,365.05206,55,73,42
365.6059,365.67514,55,73,42
365.83667,365.9059,50,73,42
366.06744,366.1367,55,73,42
366.29822,366.36743,50,73,42
366.529,366.89822,55,73,42
367.45206,367.68283,48,107,42
367.68283,367.86743,48,107,42
367.9136,368.0982,48,107,42
368.14438,368.32898,48,107,42
368.37512,368.74435,48,107,42
369.29822,370.4059,50,80,42
371.14438,371.37512,55,107,42
371.37512,371.55975,43,107,42
371.6059,371.67514,55,107,42
371.83667,371.9059,55,107,42
372.06744,372.8059,55,107,42
372.9905,373.35974,48,80,42
376.68283,376.79822,45,80,42
376.79822,376.91357,49,80,42
376.91357,377.02896,47,80,42
377.02896,377.14435,50,80,42
377.14435,377.25974,49,80,42
377.25974,377.37512,52,80,42
377.37512,377.4905,50,80,42
377.4905,377.6059,53,80,42
377.6059,377.97513,52,80,42
378.52896,378.64435,50,80,42
378.64435,378.75974,53,80,42
378.75974,378.87512,52,80,42
378.87512,378.9905,55,80,42
378.9905,379.1059,53,80,42
379.1059,379.22128,57,80,42
379.22128,379.33667,55,80,42
379.33667,379.45206,58,80,42
379.45206,379.8213,57,80,42
380.37512,380.4905,40,80,42
380.4905,380.6059,44,80,42
380.6059,380.72128,42,80,42
380.72128,380.83667,45,80,42
380.83667,380.95206,44,80,42
380.95206,381.06744,47,80,42
381.06744,381.1828,45,80,42
381.1828,381.2982,48,80,42
381.2982,381.66742,47,80,42
382.22128,382.33667,45,80,42
382.33667,382.45206,48,80,42
382.45206,382.56744,47,69,42
382.56744,382.6828,50,80,42
382.6828,382.7982,48,80,42
382.7982,382.91357,52,80,42
382.91357,383.02896,50,80,42
383.02896,383.14435,53,80,42
383.14435,383.51358,52,80,42
384.0674,384.1828,41,80,42
384.1828,384.2982,45,80,42
384.2982,384.41357,43,80,42
384.41357,384.52896,46,80,42
384.52896,384.7136,45,80,42
384.9905,385.1059,53,80,42
385.1059,385.22128,57,82,42
385.22128,385.33667,55,83,42
385.33667,385.45206,58,85,42
385.45206,385.6828,57,87,42
385.91357,386.02896,43,93,42
386.02896,386.14435,46,94,42
386.14435,386.25974,45,96,42
386.25974,386.37512,48,98,42
386.37512,386.55972,47,99,42
386.83667,386.95203,55,106,42
386.95203,387.0674,58,108,42
387.0674,387.1828,57,108,42
387.1828,387.2982,60,108,42
387.2982,387.48282,58,108,42
387.75974,388.12897,57,80,42
388.6828,389.05203,45,80,42
389.6059,389.97513,53,80,42
390.75974,390.94434,50,107,42
390.9905,391.1751,52,107,42
391.22125,391.40588,53,107,42
391.45203,391.82126,55,107,42
391.91357,392.2828,52,107,42
392.83664,393.20587,57,107,42
393.2982,393.66742,53,107,42
393.75974,394.12897,50,107,42
394.22125,394.59048,55,107,42
394.6828,395.05203,43,107,42
395.14435,395.51358,48,91,42
395.60587,395.9751,60,94,42
396.99048,397.3597,48,94,42
397.45203,397.82126,60,94,42
397.91357,398.2828,55,94,42
398.3751,398.74432,52,94,42
398.83664,399.20587,48,94,42
401.3751,401.60587,61,94,42
401.60587,401.83664,62,94,42
401.83664,402.0674,59,94,42
402.0674,402.2982,60,94,42
402.2982,402.52896,54,94,42
402.52896,403.2674,55,94,42
403.45203,403.59048,64,94,42
403.91357,404.05203,64,77,42
404.3751,404.95972,63,77,42
404.99048,405.11356,64,77,42
405.14432,405.1905,60,77,42
405.2982,405.42126,63,77,42
405.45203,405.5751,64,77,42
405.60587,405.652,60,77,42
405.7597,405.88278,63,77,42
405.91357,406.03665,64,77,42
406.0674,406.11356,60,77,42
406.22125,406.5674,64,77,42
406.5674,406.6597,60,77,42
406.6828,407.05203,64,77,42
407.60587,407.9751,52,77,42
408.0674,408.43665,53,77,42
408.52893,408.89816,53,77,42
408.99048,409.3597,55,77,42
409.45203,409.82126,55,77,42
409.91354,410.28278,48,94,42
410.3751,410.83664,48,108,42
410.83664,411.29816,50,108,42
411.29816,411.7597,43,108,42
412.22125,412.68277,48,108,42
412.68277,413.14432,50,108,42
413.14432,413.60587,43,108,42
414.06738,414.52893,48,94,42
414.52893,414.99048,50,94,42
414.99048,415.45203,43,94,42
415.91354,416.3751,48,68,42
416.3751,416.83664,50,68,42
416.83664,417.29816,43,68,42
417.7597,418.22125,48,108,42
418.22125,418.68277,50,108,42
418.68277,419.14432,43,108,42
419.14432,419.32892,40,108,42
419.3751,419.49048,52,108,42
419.60587,419.8366,52,108,42
420.99048,421.17508,41,108,42
421.22122,421.3366,53,108,42
421.452,421.68277,53,108,42
422.8366,423.02124,43,108,42
423.06738,423.18277,55,108,42
423.29816,423.52893,55,108,42
424.68277,425.052,48,108,42
426.52893,426.71353,40,108,42
426.7597,426.9443,52,108,42
426.99045,427.17508,52,108,42
427.22122,427.40585,52,108,42
427.452,427.63663,52,108,42
427.68277,427.86737,52,108,42
427.91354,428.09814,52,108,42
428.14432,428.32892,52,108,42
428.37506,428.5597,41,108,42
428.60583,428.79047,53,108,42
428.8366,429.02124,53,108,42
429.06738,429.25198,53,108,42
429.29816,429.48276,42,108,42
429.52893,429.71353,54,108,42
429.7597,429.9443,54,108,42
429.99045,430.17508,54,108,42
430.22122,430.40585,43,108,42
430.452,430.63663,55,108,42
430.68277,430.86737,55,108,42
430.91354,431.09814,55,108,42
431.14432,431.32892,43,108,42
431.37506,431.5597,55,108,42
431.60583,431.79047,55,108,42
431.8366,432.02124,55,108,42
432.06738,432.25198,36,73,42
432.29816,432.48276,48,73,42
432.52893,432.71353,48,73,42
432.75967,432.9443,48,73,42
432.99045,433.17508,48,73,42
433.22122,433.40585,48,73,42
433.452,433.6366,48,73,42
433.68277,433.86737,48,73,42
433.91354,434.09814,48,73,42
434.1443,434.32892,48,73,42
434.37506,434.5597,48,73,42
434.60583,434.79047,48,73,42
434.8366,435.0212,48,73,42
435.06738,435.25198,48,73,42
435.29816,435.48276,48,73,42
435.5289,435.71353,48,73,42
435.75967,435.9443,48,73,42
435.99045,436.17508,48,73,42
436.22122,436.40582,48,73,42
436.452,436.6366,48,73,42
436.68277,436.86737,48,73,42
436.91354,437.09814,48,73,42
437.1443,437.32892,48,73,42
437.37506,437.5597,48,73,42
437.60583,437.79047,48,73,42
437.8366,438.0212,48,73,42
438.06738,438.25198,48,73,42
438.29816,438.48276,48,73,42
438.5289,438.71353,48,73,42
438.75967,438.9443,48,73,42
438.99045,439.17508,48,73,42
439.22122,439.40582,48,73,42
439.452,439.6366,48,73,42
439.9135,440.09814,52,73,42
440.37506,440.5597,55,73,42
440.8366,441.0212,43,73,42
441.29813,441.48276,48,73,42
441.75967,441.9443,52,73,42
442.22122,442.40582,55,73,42
442.68274,442.86737,43,73,42
443.1443,443.32892,48,73,42
443.60583,443.79044,64,73,42
444.06738,444.25198,67,73,42
444.5289,444.71353,55,73,42
444.99045,445.17505,60,73,42
445.452,445.6366,64,73,42
445.9135,446.09814,67,73,42
446.37506,446.55966,55,73,42
446.8366,447.9212,48,73,42
447.99045,448.22122,48,73,42
448.22122,448.45197,50,73,42
448.45197,448.68274,52,73,42
448.68274,449.1443,55,80,42
449.1443,449.76736,53,83,42
449.83658,450.06735,50,88,42
450.06735,450.29813,52,90,42
450.29813,450.5289,53,91,42
450.5289,450.99045,57,93,42
450.99045,451.61353,55,96,42
451.68274,451.9135,52,101,42
451.9135,452.1443,53,103,42
452.1443,452.37506,55,105,42
452.37506,452.83658,58,106,42
452.83658,453.45966,57,108,42
453.5289,453.75967,53,108,42
453.75967,453.99045,55,108,42
453.99045,454.2212,57,108,42
454.2212,455.30582,60,108,42
455.37506,455.6058,58,108,42
455.6058,455.83658,57,108,42
455.83658,456.06735,55,108,42
456.06735,456.80582,61,108,42
456.99042,457.35965,60,94,42
461.6058,461.79044,58,54,42
461.83658,462.0212,58,54,42
462.06735,462.25195,58,54,42
462.29813,462.48273,58,54,42
462.5289,462.7135,58,54,42
462.75964,462.94427,58,54,42
462.99042,463.17505,58,54,42
463.2212,463.40582,58,54,42
463.45197,463.63657,57,54,42
463.68274,463.86734,57,54,42
463.9135,464.0981,57,54,42
464.14426,464.3289,57,54,42
464.37503,464.55966,58,54,42
464.6058,464.79044,58,54,42
464.83658,465.02118,58,54,42
465.06735,465.25195,58,54,42
465.29813,465.48273,57,54,42
465.5289,465.7135,57,54,42
465.75964,465.94427,57,54,42
465.99042,466.17505,57,54,42
466.2212,466.4058,58,54,42
466.45197,466.63657,58,54,42
466.68274,466.86734,58,54,42
466.9135,467.0981,58,54,42
467.14426,467.3289,57,79,42
467.37503,467.55966,57,82,42
467.6058,467.79044,58,84,42
467.83658,468.02118,58,87,42
468.06735,468.25195,57,89,42
468.29813,468.48273,57,92,42
468.52887,468.7135,58,94,42
468.75964,468.94427,58,97,42
468.99042,469.17505,57,99,42
469.2212,469.4058,57,102,42
469.45197,469.63657,58,105,42
469.68274,469.86734,58,107,42
469.91348,470.0981,57,108,42
470.14426,470.3289,57,108,42
470.37503,470.55966,58,108,42
470.6058,470.7904,58,108,42
470.83658,471.02118,57,78,42
471.06735,471.25195,57,78,42
471.2981,471.48273,57,78,42
471.52887,471.7135,57,78,42
471.75964,471.94427,52,78,42
471.99042,472.17502,52,78,42
472.2212,472.4058,52,78,42
472.45197,472.63657,52,78,42
472.68274,472.86734,53,78,42
472.91348,473.0981,53,78,42
473.14426,473.3289,53,78,42
473.37503,473.55963,53,78,42
473.6058,473.7904,54,78,42
473.83658,474.02118,54,78,42
474.06735,474.25195,54,78,42
474.2981,474.48273,54,78,42
474.52887,474.7135,55,78,42
474.75964,474.94427,55,78,42
474.99042,475.17502,55,78,42
475.2212,475.4058,55,78,42
475.45197,475.63657,55,78,42
475.6827,475.86734,55,78,42
475.91348,476.0981,55,78,42
476.14426,476.3289,55,78,42
476.37503,476.44424,48,108,42
476.6058,476.67502,52,108,42
476.83658,476.9058,55,108,42
477.06732,477.13657,60,108,42
477.2981,477.66733,64,108,42
477.75964,478.12888,62,108,42
478.45193,478.52118,55,108,42
478.6827,478.75195,62,108,42
478.91348,478.98273,59,108,42
479.37503,479.44424,48,108,42
479.6058,479.67502,55,108,42
479.83655,479.9058,52,108,42
480.06732,480.25195,53,108,42
480.2981,480.48273,52,108,42
480.52887,480.71347,53,108,42
480.75964,480.94424,50,108,42
480.99042,481.17502,55,108,42
481.2212,481.4058,53,108,42
481.45193,481.63657,55,108,42
481.6827,481.86734,43,108,42
481.91348,481.98273,48,108,42
482.14426,482.21347,52,108,42
482.37503,482.44424,55,108,42
482.6058,482.67502,60,108,42
482.83655,483.20578,64,108,42
483.2981,483.66733,62,108,42
483.99042,484.17502,55,108,42
484.22116,484.4058,62,108,42
484.45193,484.63657,59,108,42
484.91348,485.09808,48,108,42
485.14426,485.32886,55,108,42
485.37503,485.55963,52,108,42
485.60577,485.7904,53,108,42
485.83655,486.02118,52,108,42
486.06732,486.25195,53,108,42
486.2981,486.4827,50,108,42
486.52887,486.71347,55,108,42
486.75964,486.94424,53,108,42
486.9904,487.17502,55,108,42
487.22116,487.4058,43,108,42
487.45193,487.63657,48,66,42
487.6827,487.8673,48,66,42
487.91348,488.09808,48,66,42
488.14426,488.32886,48,66,42
488.37503,488.55963,48,66,42
488.60577,488.7904,48,66,42
488.83655,489.02118,48,66,42
489.06732,489.25195,48,66,42
489.2981,489.4827,48,66,42
489.52887,489.71347,48,66,42
489.75964,489.94424,48,66,42
489.9904,490.17502,48,66,42
490.22116,490.4058,48,66,42
490.45193,490.63657,48,66,42
490.6827,490.8673,48,66,42
490.91348,491.09808,48,66,42
491.14426,491.32886,48,66,42
491.375,491.55963,48,66,42
491.60577,491.7904,48,66,42
491.83655,492.02118,48,66,42
492.06732,492.25192,48,66,42
492.2981,492.4827,48,66,42
492.52887,492.71347,48,66,42
492.7596,492.94424,48,66,42
492.9904,493.17502,48,66,42
493.22116,493.4058,48,66,42
493.45193,493.63654,48,66,42
493.6827,493.8673,48,66,42
493.91348,494.09808,48,66,42
494.14423,494.32886,48,66,42
494.375,494.55963,48,66,42
494.60577,494.7904,48,66,42
494.83655,495.2981,48,94,42
495.2981,495.44208,43,87,42
495.77808,495.9281,40,80,42
496.27808,496.4346,43,73,42
496.79984,497.23618,36,73,42
