start_time,end_time,note_value,velocity,instrument_program_number
0.0,0.8727272,72,80,40
1.090909,2.3999999,65,80,40
2.7272725,3.272727,67,80,40
3.272727,4.363636,70,85,40
4.363636,5.2363634,69,80,40
5.9999995,6.9818177,65,80,40
7.0909085,7.963636,70,80,40
8.181817,9.054544,74,80,40
9.272726,9.70909,77,80,40
9.818181,10.363635,76,80,40
10.363635,10.436363,76,58,40
10.454545,10.527272,74,58,40
10.545454,10.618181,76,58,40
10.636363,10.70909,74,58,40
10.727272,10.799999,72,58,40
10.818181,10.890908,74,58,40
10.90909,11.781817,72,58,40
13.090908,14.836363,67,80,40
15.272726,16.145452,69,80,40
16.363634,17.454544,72,80,40
17.454544,18.763636,70,80,40
19.090908,19.527271,69,80,40
19.636362,19.990908,69,68,40
19.931816,20.222725,67,68,40
20.190907,20.454544,70,68,40
20.436361,20.754543,62,68,40
20.72727,21.895452,65,68,40
21.849998,22.995453,67,68,40
22.909088,23.127272,69,80,40
23.181816,23.254543,70,80,40
23.272726,23.345453,69,58,40
23.363634,23.436361,67,58,40
23.454544,23.672726,69,58,40
23.72727,23.945452,70,58,40
23.999998,24.872725,72,80,40
26.181816,27.054543,77,65,40
27.272724,27.70909,76,92,40
27.81818,28.254543,77,92,40
28.363634,28.799997,79,92,40
28.909088,29.345451,81,92,40
29.454542,30.109089,82,92,40
30.186361,30.295452,79,80,40
30.322725,30.431816,76,80,40
30.45909,30.56818,72,80,40
30.595451,31.031816,70,77,40
32.231815,32.449997,69,80,40
32.504543,32.722725,77,80,40
32.754543,33.572723,77,68,40
33.52727,33.799995,74,68,40
33.772724,35.249996,72,68,40
35.204544,35.499996,73,68,40
35.468178,35.736362,74,68,40
35.699997,35.91818,70,68,40
35.999996,36.272724,70,91,40
36.272724,36.490906,69,80,40
36.545452,36.681816,67,80,40
36.81818,36.954544,65,80,40
37.090904,37.963634,65,80,40
39.754543,40.02727,72,68,40
40.054543,40.32727,71,68,40
40.34545,40.890907,74,68,40
40.85454,41.34545,72,68,40
41.968178,42.199997,72,68,40
43.027267,43.34545,72,68,40
43.32727,43.63636,71,68,40
43.61818,44.16363,74,68,40
44.12727,44.290905,72,68,40
45.240906,45.472725,72,68,40
46.363632,46.63636,77,80,40
46.63636,46.90909,76,80,40
46.90909,47.45454,79,80,40
47.45454,47.890903,77,80,40
48.545452,48.981815,77,80,40
49.63636,49.90909,76,80,40
49.90909,50.181812,74,80,40
50.181812,50.72727,77,80,40
50.72727,51.16363,76,80,40
51.818176,52.25454,76,80,40
52.89545,53.16818,79,86,40
53.17272,53.44545,78,86,40
53.481815,54.027267,81,86,40
54.04545,54.37727,79,86,40
55.08636,55.43636,80,86,40
56.18636,56.459087,81,86,40
56.45454,56.72727,80,86,40
56.759087,57.304543,82,86,40
57.304543,57.740906,81,92,40
58.468178,58.799995,81,86,40
59.47727,59.768177,74,68,40
59.759087,59.999996,73,68,40
60.031815,60.468178,76,80,40
60.577267,61.01363,74,80,40
61.66818,62.10454,74,62,40
62.181812,62.618176,74,54,40
62.72727,63.16363,67,55,40
63.27272,63.345448,66,57,40
63.363632,63.43636,67,58,40
63.45454,63.527267,69,58,40
63.54545,65.07272,67,58,40
65.45454,65.52727,66,65,40
65.54545,65.61818,67,65,40
65.63636,65.70908,69,65,40
65.727264,67.25454,67,65,40
67.63636,67.70908,77,71,40
67.727264,67.799995,79,71,40
67.81818,67.8909,81,72,40
67.90909,69.59999,79,72,40
69.81818,69.8909,77,79,40
69.90909,69.98181,79,79,40
69.99999,70.07272,81,80,40
70.090904,72.436356,79,80,40
72.54545,72.81818,79,88,40
72.81818,73.090904,78,84,40
73.090904,73.36363,81,82,40
73.36363,73.63636,79,79,40
73.63636,73.90909,77,76,40
73.90909,74.18181,76,73,40
74.18181,74.45454,79,70,40
74.45454,74.727264,77,66,40
74.727264,74.99999,76,64,40
74.99999,75.27272,74,60,40
75.27272,75.54545,73,58,40
75.54545,75.68181,74,58,40
75.81818,76.090904,73,58,40
76.090904,76.227264,74,58,40
76.36363,76.63636,73,58,40
76.63636,76.77272,74,58,40
77.590904,77.727264,74,56,40
77.727264,77.86363,77,56,40
77.86363,77.99999,76,56,40
77.99999,78.13636,74,56,40
78.13636,78.27272,72,56,40
78.27272,78.40909,71,56,40
78.40909,78.54545,69,56,40
78.54545,78.81818,69,58,40
78.81818,78.95454,67,58,40
79.090904,79.36363,69,58,40
79.36363,79.49999,67,58,40
79.63636,79.77272,69,58,40
79.90908,80.04545,67,58,40
81.81818,82.6909,60,32,40
82.90908,83.34545,60,32,40
83.45454,83.8909,60,32,40
83.99999,84.436356,60,32,40
84.54545,84.98181,60,32,40
85.090904,85.96363,60,43,40
86.18181,87.054535,59,43,40
88.36363,90.109085,67,43,40
91.63635,92.50909,77,43,40
92.727264,93.16363,77,43,40
93.27272,93.70908,77,43,40
93.81818,94.25454,77,43,40
94.36363,94.799995,77,43,40
94.90908,95.78181,77,41,40
95.99999,96.436356,76,65,40
96.54545,96.98181,82,77,40
97.090904,97.52727,82,89,40
97.63635,98.072716,82,92,40
98.18181,99.054535,82,92,40
98.18181,99.054535,72,92,40
99.27272,100.14545,72,92,40
99.27272,100.14545,81,92,40
101.45454,102.32726,74,43,40
102.54545,102.98181,74,43,40
103.090904,103.52727,74,43,40
103.63635,104.072716,74,43,40
104.18181,104.61817,74,43,40
104.727264,104.99999,74,43,40
104.99999,105.13635,75,43,40
105.13635,105.27272,77,43,40
105.27272,105.54545,75,43,40
105.54545,105.81818,74,43,40
105.81818,106.25454,74,43,40
106.363625,106.79999,74,43,40
106.90908,107.34544,74,43,40
107.45454,107.8909,74,43,40
107.99999,108.81818,69,68,40
108.81818,109.0909,74,68,40
109.0909,110.18181,72,68,40
110.18181,111.27272,71,68,40
111.27272,113.01817,72,92,40
113.45454,113.52726,72,75,40
113.54545,113.61817,70,75,40
113.63635,113.70908,72,75,40
113.727264,113.79999,70,75,40
113.81817,113.8909,72,75,40
113.90908,113.98181,70,75,40
113.99999,114.072716,72,75,40
114.0909,114.16363,70,75,40
114.18181,114.25454,72,75,40
114.27272,114.34544,70,75,40
114.363625,114.436356,69,75,40
114.45454,114.52726,70,75,40
114.54545,114.98181,69,92,40
115.0909,115.745445,81,63,40
115.90908,115.98181,82,75,40
115.99999,116.072716,81,76,40
116.0909,116.16363,79,77,40
116.18181,116.399994,81,79,40
116.45454,116.672714,83,82,40
116.727264,116.94544,86,86,40
116.99999,117.21817,84,90,40
117.27272,117.4909,83,92,40
117.54545,117.763626,81,92,40
117.81817,119.127266,79,80,40
119.45454,119.99999,81,67,40
119.99999,120.54545,83,80,40
120.54545,121.0909,84,92,40
121.0909,121.30908,79,80,40
121.363625,121.58181,78,80,40
121.63635,121.85454,77,80,40
121.90908,122.127266,76,80,40
122.18181,122.31817,76,80,40
122.31817,122.45454,74,80,40
122.45454,122.5909,76,80,40
122.5909,122.727264,74,80,40
122.727264,122.863625,76,80,40
122.863625,122.99999,74,80,40
122.99999,123.13635,76,80,40
123.13635,123.27272,74,80,40
123.27272,123.363625,76,80,40
123.363625,123.45454,74,80,40
123.45454,123.54544,76,80,40
123.54544,123.63635,74,80,40
123.63635,123.727264,76,80,40
123.727264,123.81817,74,80,40
123.81817,123.90908,76,80,40
123.90908,123.99999,74,80,40
123.99999,124.0909,76,80,40
124.0909,124.18181,74,80,40
124.18181,124.27272,72,80,40
124.27272,124.363625,74,80,40
124.363625,125.23635,72,43,40
125.99999,126.27272,72,67,40
126.27272,126.54544,71,73,40
126.54544,127.0909,74,88,40
127.0909,127.63635,72,90,40
127.63635,128.18181,76,89,40
128.18181,128.61816,74,80,40
129.27272,129.54544,74,80,40
129.54544,129.81818,73,80,40
129.81818,130.36363,76,88,40
130.36363,130.90907,74,80,40
130.90907,131.45453,77,92,40
131.45453,131.8909,76,95,40
132.54544,132.81818,77,95,40
132.81818,133.0909,76,95,40
133.0909,133.63635,79,108,40
133.63635,134.07272,77,95,40
134.72726,134.99998,79,101,40
134.99998,135.27272,78,101,40
135.27272,135.81818,81,108,40
135.81818,136.25453,79,101,40
136.90907,137.12726,81,101,40
137.18181,137.4,79,101,40
137.45453,137.8909,82,108,40
137.99998,138.43636,81,101,40
139.0909,139.30908,82,101,40
139.36363,139.5818,81,101,40
139.63635,140.07271,84,97,40
140.18181,140.61816,82,101,40
141.27272,141.49089,70,80,40
141.54544,141.76363,69,80,40
141.81818,142.33635,72,88,40
142.36362,143.4,70,80,40
143.45453,143.99998,71,56,40
143.99998,144.40907,72,61,40
144.40907,144.54544,69,61,40
144.54544,144.95453,72,61,40
144.95453,145.0909,69,61,40
145.0909,146.72726,65,61,40
146.72726,147.27272,67,61,40
147.27272,148.36362,70,65,40
148.36362,149.23636,69,58,40
149.99998,150.81818,65,92,40
150.81818,151.0909,62,92,40
151.0909,151.90907,70,92,40
151.90907,152.18181,65,92,40
152.18181,152.99998,74,92,40
152.99998,153.27272,70,92,40
153.27272,154.03635,77,92,40
154.0909,154.30908,76,60,40
154.36362,154.5818,75,57,40
154.63635,154.85454,74,55,40
154.90907,155.7818,72,82,40
157.0909,158.4,67,58,40
158.72726,158.83635,69,58,40
158.86362,158.97272,67,58,40
158.99998,159.10909,66,58,40
159.13635,159.24544,67,58,40
159.27272,159.81816,70,58,40
159.81816,160.36362,69,58,40
160.36362,160.90907,72,69,40
160.90907,161.45453,70,58,40
161.45453,163.0909,70,58,40
163.0909,163.63635,69,58,40
163.63635,163.90907,69,58,40
163.90907,164.18181,67,58,40
164.18181,164.45453,70,58,40
164.45453,164.72726,62,58,40
164.72726,165.27272,65,58,40
165.27272,165.81816,66,58,40
165.81816,166.36362,67,58,40
166.36362,166.90907,68,58,40
166.90907,167.12726,69,58,40
167.18181,167.25453,70,58,40
167.27272,167.34544,69,58,40
167.36362,167.43636,67,58,40
167.45453,167.67271,69,58,40
167.72726,167.94543,70,58,40
167.99998,168.87271,72,58,40
170.18181,170.83635,77,56,40
170.99998,171.10907,79,66,40
171.13635,171.27272,77,68,40
171.27272,171.81816,76,70,40
171.81816,172.36362,77,76,40
172.36362,172.90907,79,82,40
172.90907,173.45453,81,89,40
173.45453,174.10907,82,92,40
174.18636,174.29544,79,80,40
174.32271,174.43181,76,80,40
174.45908,174.56816,72,80,40
174.59544,175.0318,70,72,40
176.2318,176.44998,69,80,40
176.50453,176.72272,77,80,40
176.72726,177.3818,77,58,40
177.54544,177.76363,74,58,40
177.81816,178.03635,72,58,40
178.0909,178.17271,81,58,40
178.36362,178.44543,79,58,40
178.63635,178.71817,77,58,40
178.90907,178.99089,76,58,40
179.18181,179.26363,74,58,40
179.45453,179.53635,72,58,40
179.72726,179.80908,70,58,40
179.99998,180.2727,70,76,40
180.2727,180.54544,69,58,40
180.54544,180.68181,67,58,40
180.81816,180.95453,65,58,40
181.0909,181.96362,65,58,40
183.2727,184.5818,72,87,40
184.63635,184.90907,79,87,40
184.90907,185.18181,77,87,40
185.18181,185.45453,75,87,40
185.45453,185.72726,74,87,40
185.72726,185.99998,72,87,40
185.99998,186.2727,70,87,40
186.2727,186.54544,69,87,40
186.54544,187.0909,72,83,40
187.0909,187.52725,70,58,40
188.18181,188.39998,70,58,40
188.45453,188.67271,69,58,40
188.72726,189.2727,72,64,40
189.2727,189.70908,71,58,40
189.81816,190.36362,74,64,40
190.36362,190.79999,72,58,40
191.45453,191.67271,72,58,40
191.72725,191.94543,71,58,40
191.99998,192.54544,74,64,40
192.54544,192.9818,72,58,40
193.0909,193.63635,75,91,40
193.63635,194.07271,74,92,40
194.72725,194.94543,74,92,40
194.99998,195.21817,73,92,40
195.2727,195.70908,75,101,40
195.81816,196.25453,74,92,40
196.36362,197.67271,74,58,40
197.99998,198.21817,82,74,40
198.2727,198.49089,81,74,40
198.54544,198.9818,84,82,40
199.0909,199.52725,82,74,40
199.63635,200.18181,70,72,40
200.18181,200.61816,69,65,40
201.2727,201.49089,69,64,40
201.54544,201.76363,68,64,40
201.81816,202.36362,70,70,40
202.36362,202.79999,69,64,40
202.90907,204.21817,69,64,40
204.54544,204.76363,77,64,40
204.81816,205.03635,76,64,40
205.0909,205.63635,79,70,40
205.63635,206.07271,77,64,40
206.18181,206.72725,69,64,40
206.72725,207.16362,67,66,40
207.81816,208.03635,67,72,40
208.0909,208.30907,66,72,40
208.36362,208.90907,69,81,40
208.90907,209.34544,67,77,40
209.45453,209.99998,79,88,40
209.99998,210.43634,77,83,40
211.0909,211.30907,67,80,40
211.36362,211.5818,66,81,40
211.63635,212.1818,69,90,40
212.1818,212.61816,67,84,40
212.72725,213.2727,79,88,40
213.2727,213.70908,77,80,40
214.36362,214.5818,67,80,40
214.63635,214.85452,66,80,40
214.90907,215.34544,69,88,40
215.45453,215.89088,67,80,40
215.99998,216.54544,79,88,40
216.54544,216.9818,77,80,40
217.63635,217.85452,79,92,40
217.90907,218.12726,77,92,40
218.1818,218.72725,80,101,40
218.72725,219.16362,77,92,40
219.2727,219.54544,77,92,40
219.54544,219.81816,76,92,40
219.81816,219.95453,74,92,40
220.0909,220.22725,72,92,40
220.36362,220.43634,71,88,40
220.45453,220.52725,72,88,40
220.54544,220.61816,74,88,40
220.63635,222.9818,72,59,40
223.0909,223.30907,72,59,40
223.36362,223.5818,71,59,40
223.63635,224.1818,74,59,40
224.1818,224.61816,72,59,40
224.72725,225.59998,72,59,40
225.81816,226.25453,72,80,40
226.36362,226.5818,84,59,40
226.63634,226.85452,83,60,40
226.90907,227.45453,86,63,40
227.45453,227.89088,84,66,40
227.99998,228.87271,84,70,40
229.0909,232.79999,84,80,40
232.90907,233.1818,84,76,40
233.1818,233.45453,83,76,40
233.45453,233.72725,86,76,40
233.72725,233.99998,84,76,40
233.99998,234.2727,82,76,40
234.2727,234.54544,81,76,40
234.54544,234.81816,84,76,40
234.81816,235.0909,82,76,40
235.0909,235.36362,81,76,40
235.36362,235.63634,79,76,40
235.63634,235.85452,78,64,40
235.90907,236.04544,79,64,40
236.1818,236.39998,78,64,40
236.45453,236.5909,79,64,40
236.72725,236.94543,78,64,40
236.99998,237.13634,79,64,40
237.95453,238.06361,79,64,40
238.0909,238.19998,82,64,40
238.22725,238.33635,81,64,40
238.36362,238.4727,79,64,40
238.49998,238.60907,77,64,40
238.63634,238.74544,76,64,40
238.7727,238.8818,74,64,40
238.90907,239.12726,74,64,40
239.1818,239.31816,72,64,40
239.45453,239.67271,74,64,40
239.72725,239.86362,72,64,40
239.99998,240.21815,74,64,40
240.2727,240.40907,72,64,40
242.1818,243.05452,65,32,40
243.2727,243.70908,65,32,40
243.81816,244.25453,65,32,40
244.36362,244.79997,65,32,40
244.90907,245.34543,65,32,40
245.45453,246.32726,65,51,40
246.54544,247.41817,64,51,40
248.72725,250.4727,72,51,40
251.99998,252.87271,82,51,40
253.09088,253.52725,82,51,40
253.63634,254.07271,82,51,40
254.1818,254.61816,82,51,40
254.72725,255.16362,82,51,40
255.2727,256.14545,82,55,40
256.36362,256.8,81,70,40
256.90906,257.34543,87,78,40
257.45453,257.8909,87,85,40
257.99997,258.43634,87,92,40
258.54544,259.41815,77,92,40
258.54544,259.41815,87,92,40
259.63635,260.50906,77,92,40
259.63635,260.50906,86,92,40
261.81815,262.6909,67,51,40
262.90906,263.34543,67,51,40
263.45453,263.8909,67,51,40
263.99997,264.43634,67,51,40
264.54544,264.98178,67,51,40
265.09088,265.36362,67,51,40
265.36362,265.49997,68,51,40
265.49997,265.63635,70,51,40
265.63635,265.90906,68,51,40
265.90906,266.1818,67,51,40
266.1818,266.61816,67,51,40
266.72726,267.1636,67,51,40
267.2727,267.70908,67,51,40
267.81815,268.25452,67,51,40
268.36362,269.1818,62,69,40
269.1818,269.45453,67,69,40
269.45453,270.54544,65,69,40
270.54544,270.81815,69,87,40
270.81815,271.36362,67,87,40
271.36362,271.63635,65,80,40
271.63635,272.50906,65,80,40
281.45453,282.32724,65,51,40
282.54544,282.98178,65,51,40
283.09088,283.52725,65,51,40
283.63635,284.0727,65,51,40
284.1818,284.61816,65,51,40
284.72723,285.59998,65,51,40
285.81815,286.6909,64,51,40
287.99997,289.74542,60,51,40
291.2727,292.14542,73,92,40
292.36362,292.8,73,92,40
292.90906,293.34543,73,92,40
293.45453,293.8909,73,92,40
293.99997,294.43634,73,92,40
294.54544,295.41815,73,92,40
295.63635,296.0727,72,92,40
296.1818,296.61816,72,92,40
296.72723,297.1636,72,92,40
297.2727,297.70908,72,92,40
297.81815,298.25452,72,92,40
298.36362,298.8,71,92,40
298.90906,299.34543,70,92,40
299.45453,299.89087,70,92,40
299.99997,300.43634,70,92,40
300.54544,300.98178,70,92,40
301.09088,301.52725,70,92,40
301.63635,302.0727,69,92,40
302.1818,302.61816,68,92,40
302.72723,303.1636,68,92,40
303.2727,303.70908,68,92,40
303.81815,304.25452,68,92,40
304.36362,305.23633,67,51,40
307.63635,307.90906,79,92,40
307.90906,308.04544,80,92,40
308.04544,308.1818,82,92,40
308.1818,308.45453,80,51,40
308.45453,308.72723,79,51,40
308.72723,309.1636,79,51,40
309.2727,309.70908,79,51,40
309.81815,310.09088,77,92,40
310.09088,310.22723,79,92,40
310.22723,310.36362,80,80,40
310.36362,310.63635,79,80,40
310.63635,310.90906,77,51,40
310.90906,311.34543,77,51,40
311.45453,311.89087,77,51,40
311.99997,312.8727,77,85,40
313.09088,313.36362,81,92,40
313.36362,313.90906,79,92,40
313.90906,314.1818,77,92,40
314.1818,315.2727,77,92,40
315.2727,316.36362,76,92,40
316.36362,317.45453,75,92,40
317.45453,317.99997,73,92,40
317.99997,318.6818,74,92,40
318.6818,318.81815,76,92,40
318.81815,318.95453,74,92,40
318.95453,319.09088,72,92,40
319.09088,319.22723,74,92,40
319.22723,319.36362,76,92,40
319.36362,319.49997,74,92,40
319.49997,319.63632,76,92,40
319.63632,319.90906,79,92,40
319.90906,320.1818,77,92,40
320.1818,320.45453,76,92,40
320.45453,320.72723,74,92,40
320.72723,322.03635,72,75,40
322.36362,322.8,74,75,40
322.90906,323.34543,76,82,40
323.45453,323.89087,77,88,40
323.99997,324.2727,72,78,40
324.2727,324.54544,71,78,40
324.54544,324.81815,70,78,40
324.81815,325.09088,69,78,40
325.09088,325.1636,67,62,40
325.1818,325.25452,69,62,40
325.2727,325.34543,67,62,40
325.36362,325.43634,69,62,40
325.45453,325.52725,67,62,40
325.54544,325.61816,69,62,40
325.63632,325.70908,67,62,40
325.72723,325.8,69,62,40
325.81815,325.89087,67,62,40
325.90906,325.98178,69,62,40
325.99997,326.0727,67,62,40
326.09088,326.1636,69,62,40
326.1818,326.25452,67,62,40
326.2727,326.34543,69,62,40
326.36362,326.43634,67,62,40
326.45453,326.52725,69,62,40
326.54544,326.61816,67,62,40
326.63632,326.70908,69,62,40
326.72723,326.8,67,62,40
326.81815,326.89087,69,62,40
326.90906,326.98178,67,62,40
326.99997,327.10907,65,62,40
327.13632,327.24542,67,62,40
327.2727,328.14542,65,51,40
330.54544,332.72723,70,80,40
332.72723,333.54544,67,80,40
333.54544,333.81815,64,80,40
333.81815,335.5636,72,80,40
335.99997,337.09088,74,80,40
337.09088,339.2727,65,80,40
339.2727,340.36362,67,80,40
340.36362,341.45453,70,92,40
341.45453,342.32724,69,80,40
343.63632,345.81815,82,80,40
345.81815,346.63632,79,80,40
346.63632,346.90906,76,80,40
346.90906,348.566,84,96,40
348.566,349.13205,85,96,40
349.13205,349.70895,86,96,40
349.70895,350.1705,89,96,40
350.2859,352.03134,77,77,40
352.4677,352.54044,81,64,40
352.55862,352.63135,79,64,40
352.64954,352.72226,81,64,40
352.74045,352.81317,79,64,40
352.83136,352.90408,81,64,40
352.92224,352.995,79,64,40
353.01315,353.0859,81,64,40
353.10406,353.1768,79,64,40
353.19498,353.2677,81,64,40
353.2859,353.3586,79,64,40
353.3768,353.44952,77,64,40
353.4677,353.54044,79,64,40
353.55862,354.43134,77,80,40
355.74045,356.1768,75,80,40
356.83136,357.2677,74,80,40
357.92224,358.3586,73,80,40
359.01315,360.64954,72,80,40
360.64954,361.19498,71,80,40
361.19498,362.2859,70,80,40
362.2859,363.2677,69,80,40
363.3768,365.01315,67,80,40
365.01315,365.12225,69,80,40
365.14954,365.2586,67,80,40
365.2859,365.395,66,80,40
365.42224,365.53134,67,80,40
365.55862,366.43134,72,80,40
366.64954,367.08588,65,80,40
367.74045,368.1768,65,80,40
368.83136,369.2677,65,80,40
369.92224,370.03336,64,56,40
370.03336,370.14447,65,56,40
370.14447,370.25558,67,56,40
370.25558,372.58893,65,56,40
0.0,1.090909,69,58,40
1.090909,2.7272725,60,58,40
2.7272725,3.272727,64,58,40
3.272727,4.363636,67,61,40
4.363636,4.7999997,65,58,40
4.9090905,5.454545,65,80,40
5.454545,5.9999995,64,80,40
5.9999995,6.545454,63,80,40
6.545454,7.0909085,62,67,40
7.0909085,8.181817,65,75,40
8.181817,9.272726,70,88,40
9.272726,9.818181,74,92,40
9.818181,10.363635,72,80,40
10.363635,10.436363,72,58,40
10.454545,10.527272,70,58,40
10.545454,10.618181,72,58,40
10.636363,10.70909,70,58,40
10.727272,10.799999,69,58,40
10.818181,10.890908,70,58,40
10.90909,11.781817,69,58,40
13.090908,13.963635,65,80,40
14.181817,15.054544,64,80,40
15.272726,17.236362,63,80,40
17.454544,17.999998,62,80,40
17.999998,18.545452,64,80,40
18.545452,19.636362,65,80,40
19.636362,20.509089,62,80,40
20.72727,21.599998,60,80,40
21.81818,22.690907,64,80,40
22.909088,23.127272,65,80,40
23.181816,23.254543,67,80,40
23.272726,23.345453,65,58,40
23.363634,23.436361,64,58,40
23.454544,23.672726,65,58,40
23.72727,23.945452,67,58,40
23.999998,24.872725,69,80,40
26.181816,26.61818,72,65,40
26.72727,27.163633,72,74,40
27.272724,27.70909,72,82,40
27.81818,28.254543,72,89,40
28.363634,29.23636,72,92,40
29.454542,30.32727,72,92,40
31.090906,31.963634,70,80,40
32.181816,32.61818,69,80,40
32.72727,33.545452,74,80,40
33.545452,33.81818,70,80,40
33.81818,35.12727,69,80,40
35.454544,35.672726,70,80,40
35.72727,35.94545,67,80,40
35.999996,36.272724,67,91,40
36.272724,36.490906,65,80,40
36.545452,36.681816,64,80,40
36.81818,36.954544,65,80,40
37.090904,38.399998,60,80,40
38.454544,38.672726,61,58,40
38.72727,38.94545,62,58,40
38.999996,39.218178,58,58,40
39.272724,39.545452,57,43,40
39.81818,40.090904,69,43,40
40.363632,40.63636,69,43,40
40.90909,41.181816,69,43,40
41.45454,41.72727,69,43,40
41.999996,42.272724,69,43,40
42.545452,42.81818,67,43,40
43.090904,43.363632,67,43,40
43.63636,43.90909,67,43,40
44.181816,44.45454,67,43,40
44.72727,44.999996,67,43,40
45.272724,45.545452,67,43,40
45.818176,46.090904,72,43,40
46.363632,46.63636,72,43,40
46.90909,47.181816,72,43,40
47.45454,47.72727,72,43,40
47.999996,48.272724,71,43,40
48.545452,48.818176,71,43,40
49.109085,49.381813,72,43,40
49.649998,49.92272,72,43,40
50.222725,50.49545,72,43,40
50.749996,51.022724,72,43,40
51.313633,51.58636,72,43,40
51.840904,52.113632,72,43,40
52.399994,52.67272,72,43,40
52.91363,53.18636,72,43,40
53.481815,53.75454,72,43,40
54.018177,54.290905,72,43,40
54.577267,54.849995,72,43,40
55.08636,55.359085,72,43,40
55.63636,55.90909,72,43,40
56.19545,56.468178,72,43,40
56.813633,57.086357,72,43,40
57.272724,57.54545,72,43,40
57.818176,58.090904,72,43,40
58.349995,58.622723,72,43,40
58.909084,59.181812,60,43,40
59.45454,59.72727,60,43,40
59.999996,60.272724,60,43,40
60.54545,60.818176,60,43,40
61.090904,61.363632,60,43,40
61.63636,61.909084,60,43,40
62.181812,62.618176,59,67,40
62.72727,62.999996,62,70,40
62.999996,63.27272,60,71,40
63.27272,63.818176,64,72,40
63.818176,64.25454,62,75,40
64.90909,65.181816,64,80,40
65.181816,65.45454,62,82,40
65.45454,65.99999,65,82,40
65.99999,66.436356,64,85,40
67.090904,67.36363,65,90,40
67.36363,67.63636,64,92,40
67.63636,68.181816,67,92,40
68.181816,68.61818,65,92,40
69.27272,69.54545,67,92,40
69.54545,69.81818,66,92,40
69.81818,70.36363,69,92,40
70.36363,70.90909,67,92,40
70.90909,71.45454,65,92,40
71.45454,71.99999,64,92,40
71.99999,73.090904,62,80,40
75.27272,75.54545,65,58,40
75.81818,76.090904,65,58,40
76.36363,76.63636,65,58,40
78.54545,78.81818,65,58,40
79.090904,79.36363,65,58,40
79.63636,79.90908,65,58,40
85.090904,86.83636,55,43,40
88.36363,89.23636,72,43,40
89.45454,89.8909,72,43,40
89.99999,90.436356,72,43,40
90.54545,90.98181,72,43,40
91.090904,91.52727,72,43,40
91.63635,92.50909,72,43,40
92.727264,93.59999,71,43,40
94.90908,96.21817,70,41,40
96.54545,96.98181,76,77,40
97.090904,97.52727,76,89,40
97.63635,98.072716,76,92,40
98.18181,99.054535,79,92,40
98.18181,99.054535,70,92,40
99.27272,100.14545,69,92,40
99.27272,100.14545,77,92,40
101.45454,102.32726,69,43,40
101.45454,102.32726,72,43,40
102.54545,102.98181,72,43,40
102.54545,102.98181,69,43,40
103.090904,103.52727,69,43,40
103.090904,103.52727,72,43,40
103.63635,104.072716,69,43,40
103.63635,104.072716,72,43,40
104.18181,104.61817,72,43,40
104.18181,104.61817,69,43,40
104.727264,105.59999,68,43,40
104.727264,105.59999,72,43,40
105.81818,106.25454,72,43,40
105.81818,106.25454,68,43,40
106.363625,106.79999,68,43,40
106.363625,106.79999,72,43,40
106.90908,107.34544,72,43,40
106.90908,107.34544,68,43,40
107.45454,107.8909,72,43,40
107.45454,107.8909,68,43,40
107.99999,109.0909,62,48,40
109.0909,110.18181,64,48,40
110.18181,111.27272,65,48,40
111.27272,111.81818,64,92,40
111.81818,112.363625,60,92,40
112.363625,112.90908,61,92,40
112.90908,113.45454,62,92,40
113.45454,113.99999,63,92,40
113.99999,114.54545,64,92,40
114.54545,114.81817,65,55,40
115.0909,115.363625,72,63,40
115.63635,115.90908,72,71,40
116.18181,116.45454,72,79,40
116.727264,116.99999,72,86,40
117.27272,117.54545,72,92,40
117.81817,118.25453,72,80,40
118.363625,119.23635,79,80,40
119.45454,119.99999,77,67,40
119.99999,120.54545,77,80,40
120.54545,121.0909,76,92,40
121.63635,121.90908,72,58,40
122.18181,122.45454,72,58,40
122.727264,122.99999,72,58,40
123.27272,123.54544,71,58,40
123.81817,124.0909,71,58,40
124.363625,127.63635,72,52,40
127.63635,130.90907,71,65,40
130.90907,133.0909,70,72,40
133.0909,134.18181,69,78,40
134.18181,135.27272,69,77,40
135.27272,137.45453,64,82,40
137.45453,138.54544,65,82,40
138.54544,139.63635,57,71,40
139.63635,140.72726,55,71,40
140.72726,142.90907,55,72,40
143.99998,144.40907,69,61,40
144.40907,144.54544,65,61,40
144.54544,144.95453,69,61,40
144.95453,145.0909,65,61,40
145.0909,146.72726,60,61,40
146.72726,147.27272,64,61,40
147.27272,148.14545,67,58,40
148.36362,148.90907,65,58,40
148.90907,149.45453,65,58,40
149.45453,149.99998,64,58,40
149.99998,150.54544,63,58,40
150.54544,150.98181,62,92,40
151.0909,151.96362,65,92,40
152.18181,153.05453,70,92,40
153.27272,154.03635,74,92,40
154.0909,154.30908,73,92,40
154.36362,154.5818,72,92,40
154.63635,154.85454,70,88,40
154.90907,155.7818,69,82,40
157.0909,157.96362,65,58,40
158.18181,159.05453,64,58,40
159.27272,160.14545,63,58,40
160.36362,160.90907,63,69,40
160.90907,161.45453,62,58,40
161.45453,162.54544,64,58,40
162.54544,163.41817,65,58,40
163.63635,164.72726,62,58,40
164.72726,165.81816,60,58,40
165.81816,166.6909,64,58,40
166.90907,167.12726,65,58,40
167.18181,167.25453,67,58,40
167.27272,167.34544,65,58,40
167.36362,167.43636,64,58,40
167.45453,167.67271,65,58,40
167.72726,167.94543,67,58,40
167.99998,168.87271,69,58,40
170.18181,171.49089,72,56,40
171.81816,172.36362,72,76,40
172.36362,172.90907,72,82,40
172.90907,173.45453,72,89,40
173.45453,174.32726,72,92,40
175.0909,176.18181,70,80,40
176.18181,176.72726,69,80,40
176.72726,177.3818,74,58,40
177.54544,177.76363,70,58,40
177.81816,178.03635,69,58,40
178.0909,178.17271,77,58,40
178.36362,178.44543,76,58,40
178.63635,178.71817,74,58,40
178.90907,178.99089,72,58,40
179.18181,179.26363,70,58,40
179.45453,179.53635,69,58,40
179.72726,179.80908,67,58,40
179.99998,180.2727,67,76,40
180.2727,180.49089,65,76,40
180.54544,180.68181,64,58,40
180.81816,180.95453,65,58,40
181.0909,181.30908,60,58,40
181.36362,181.44543,69,58,40
181.63635,181.71817,67,58,40
181.90907,181.99089,65,58,40
182.18181,182.26363,64,58,40
182.45453,182.53635,62,58,40
182.72726,182.80908,60,58,40
182.99998,183.0818,58,58,40
183.2727,183.54544,57,48,40
183.81816,184.0909,57,48,40
184.36362,184.63635,57,48,40
184.90907,185.18181,57,48,40
185.45453,185.72726,65,48,40
185.99998,186.2727,65,48,40
186.54544,186.81816,65,43,40
187.0909,187.36362,65,43,40
187.63635,187.90907,65,43,40
188.18181,188.45453,65,43,40
188.72726,188.99998,65,43,40
189.2727,189.54544,65,43,40
189.81816,190.0909,65,43,40
190.36362,190.63635,65,43,40
190.90907,191.18181,65,43,40
191.45453,191.72725,65,43,40
191.99998,192.2727,65,43,40
192.54544,192.81816,65,43,40
193.0909,193.36362,66,65,40
193.63635,193.90907,66,65,40
194.18181,194.45453,66,65,40
194.72725,194.99998,66,65,40
195.2727,195.54544,66,65,40
195.81816,196.0909,66,65,40
196.36362,196.79999,67,43,40
196.90907,197.34544,67,43,40
197.45453,197.8909,67,43,40
197.99998,198.43634,67,43,40
198.54544,198.9818,67,43,40
199.0909,199.52725,67,43,40
199.63635,200.07271,67,43,40
200.18181,200.61816,67,43,40
200.72725,201.16362,67,43,40
201.2727,201.70908,67,43,40
201.81816,202.25453,67,43,40
202.36362,202.79999,67,43,40
202.90907,203.34544,65,43,40
203.45453,203.8909,65,43,40
203.99998,204.43634,65,43,40
204.54544,204.9818,69,43,40
205.0909,205.52725,69,43,40
205.63635,206.07271,69,43,40
206.18181,206.45453,65,43,40
206.72725,206.99998,65,45,40
207.2727,207.54544,65,48,40
207.81816,208.0909,65,50,40
208.36362,208.63635,65,53,40
208.90907,209.1818,65,55,40
209.45453,209.72725,65,57,40
209.99998,210.2727,67,60,40
210.54544,210.81816,67,62,40
211.0909,211.36362,67,65,40
211.63635,211.90907,67,67,40
212.1818,212.45453,67,70,40
212.72725,212.99998,67,64,40
213.2727,213.54544,67,64,40
213.81816,214.0909,67,64,40
214.36362,214.63635,67,64,40
214.90907,215.1818,67,64,40
215.45453,215.72725,67,64,40
215.99998,216.43634,67,64,40
216.54544,216.9818,67,64,40
217.0909,217.52725,67,64,40
217.63635,218.07271,71,73,40
218.1818,218.61816,71,73,40
218.72725,219.16362,71,73,40
219.2727,219.81816,72,73,40
219.81816,220.25453,67,73,40
220.90907,221.12726,67,77,40
221.1818,221.39998,66,77,40
221.45453,221.99998,69,85,40
221.99998,222.43634,67,77,40
222.54544,223.0909,70,85,40
223.0909,223.52725,69,77,40
224.1818,224.39998,69,77,40
224.45453,224.67271,68,77,40
224.72725,225.16362,70,85,40
225.2727,225.70908,69,77,40
225.81816,226.36362,72,90,40
226.36362,226.79999,70,91,40
227.45453,227.67271,70,77,40
227.72725,227.94543,69,83,40
227.99998,228.54544,72,99,40
228.54544,228.9818,70,92,40
229.0909,229.63634,74,101,40
229.63634,230.1818,72,92,40
230.1818,230.72725,71,92,40
230.72725,231.2727,70,92,40
231.2727,231.81816,69,92,40
231.81816,232.36362,68,92,40
232.36362,233.23634,67,92,40
235.63634,235.90907,70,43,40
236.1818,236.45453,70,43,40
236.72725,236.99998,70,43,40
238.90907,239.1818,70,43,40
239.45453,239.72725,70,43,40
239.99998,240.2727,70,43,40
245.45453,247.19998,60,51,40
248.72725,249.59998,77,51,40
249.81816,250.25453,77,51,40
250.36362,250.79997,77,51,40
250.90907,251.34543,77,51,40
251.45453,251.89088,77,51,40
251.99998,252.87271,77,51,40
253.09088,253.96361,76,51,40
255.2727,256.5818,75,55,40
256.90906,257.34543,81,78,40
257.45453,257.8909,81,85,40
257.99997,258.43634,81,92,40
258.54544,259.41815,84,92,40
258.54544,259.41815,75,92,40
259.63635,260.50906,82,92,40
259.63635,260.50906,74,92,40
261.81815,262.6909,62,51,40
261.81815,262.6909,65,51,40
262.90906,263.34543,65,51,40
262.90906,263.34543,62,51,40
263.45453,263.8909,65,51,40
263.45453,263.8909,62,51,40
263.99997,264.43634,65,51,40
263.99997,264.43634,62,51,40
264.54544,264.98178,62,51,40
264.54544,264.98178,65,51,40
265.09088,265.96362,65,51,40
265.09088,265.96362,61,51,40
266.1818,266.61816,65,51,40
266.1818,266.61816,61,51,40
266.72726,267.1636,61,51,40
266.72726,267.1636,65,51,40
267.2727,267.70908,61,51,40
267.2727,267.70908,65,51,40
267.81815,268.25452,65,51,40
267.81815,268.25452,61,51,40
268.36362,269.45453,55,58,40
269.45453,270.54544,57,58,40
270.54544,271.63635,58,87,40
271.63635,272.50906,57,80,40
278.1818,279.05453,58,51,40
279.2727,279.70908,58,51,40
279.81815,280.25452,58,51,40
280.36362,280.8,58,51,40
280.90906,281.34543,58,51,40
281.45453,282.32724,58,51,40
282.54544,283.41815,56,51,40
284.72723,286.47272,60,51,40
287.99997,288.8727,72,51,40
289.09088,289.52725,72,60,40
289.63635,290.0727,72,68,40
290.1818,290.61816,72,76,40
290.72723,291.1636,72,84,40
291.2727,292.14542,72,92,40
292.36362,295.41815,70,92,40
295.63635,297.3818,68,92,40
297.81815,298.25452,69,92,40
298.36362,299.23633,67,92,40
299.45453,299.89087,67,92,40
299.99997,300.43634,67,92,40
300.54544,300.98178,67,92,40
301.09088,301.52725,67,92,40
301.63635,302.50906,65,92,40
302.72723,303.1636,65,92,40
303.2727,303.70908,65,92,40
303.81815,304.25452,65,92,40
304.36362,305.23633,67,51,40
305.45453,305.89087,67,51,40
305.99997,306.43634,67,51,40
306.54544,306.98178,67,51,40
307.09088,307.52725,67,51,40
307.63635,308.50906,67,92,40
308.72723,309.1636,67,51,40
309.2727,309.70908,67,51,40
309.81815,310.6909,68,92,40
310.90906,311.34543,68,51,40
311.45453,311.89087,68,51,40
311.99997,312.8727,69,51,40
313.09088,313.96362,64,92,40
314.1818,314.61816,65,92,40
314.72723,315.2727,65,92,40
315.2727,315.81815,66,92,40
315.81815,316.36362,67,92,40
316.36362,316.90906,68,92,40
316.90906,317.45453,69,92,40
317.45453,317.89087,70,51,40
317.99997,318.43634,65,51,40
318.54544,318.98178,65,51,40
319.09088,319.52725,65,51,40
319.63632,320.0727,65,51,40
320.1818,320.61816,65,51,40
320.72723,321.1636,65,64,40
321.2727,322.36362,72,71,40
322.36362,322.90906,71,86,40
322.90906,323.45453,70,92,40
323.45453,323.99997,69,92,40
324.54544,324.81815,65,51,40
325.09088,325.36362,65,51,40
325.63632,325.90906,65,51,40
326.1818,326.45453,64,51,40
326.72723,326.99997,64,51,40
327.2727,327.70908,65,62,40
327.81815,328.09088,60,54,40
328.09088,328.36362,59,54,40
328.36362,328.90906,62,54,40
328.90906,329.34543,60,54,40
329.99997,330.43634,60,54,40
331.09088,331.36362,60,54,40
331.36362,331.63632,59,54,40
331.63632,332.1818,62,54,40
332.1818,332.61816,60,54,40
333.2727,333.70908,60,54,40
334.36362,334.63632,65,54,40
334.63632,334.90906,64,54,40
334.90906,335.45453,67,54,40
335.45453,335.89087,65,54,40
336.54544,336.98178,65,54,40
337.63632,337.90906,60,54,40
337.90906,338.1818,59,54,40
338.1818,338.72723,62,54,40
338.72723,339.1636,60,54,40
339.81815,340.25452,60,54,40
340.90906,341.1818,60,54,40
341.1818,341.45453,59,54,40
341.45453,341.99997,62,54,40
341.99997,342.43634,60,54,40
343.09088,343.52725,60,54,40
344.1818,344.45453,72,54,40
344.45453,344.72723,71,54,40
344.72723,345.2727,74,54,40
345.2727,345.70908,72,54,40
346.36362,346.79996,72,54,40
347.45453,347.72723,77,54,40
347.72723,347.99997,76,54,40
347.99997,348.566,79,54,40
348.566,349.01883,77,54,40
349.70895,350.1705,77,54,40
350.83136,351.10406,72,43,40
351.10406,351.3768,71,43,40
351.3768,351.92224,74,43,40
351.92224,352.3586,72,43,40
353.01315,353.44952,70,43,40
353.55862,353.7768,69,43,40
353.83136,354.04953,69,43,40
354.10406,354.32227,69,43,40
354.3768,354.59497,69,43,40
354.64954,354.8677,69,43,40
354.92224,355.14044,69,43,40
355.19498,355.41318,69,43,40
355.4677,355.68588,69,43,40
355.74045,355.95862,69,43,40
356.01315,356.23135,69,43,40
356.2859,356.50406,69,43,40
356.2859,356.50406,69,43,40
356.55862,356.7768,69,43,40
356.83136,357.04953,70,35,40
357.10406,357.32227,65,35,40
357.3768,357.59497,65,35,40
357.64954,357.8677,65,35,40
357.92224,358.14044,65,35,40
358.19498,358.41318,64,35,40
358.4677,358.68588,64,35,40
358.74045,358.95862,64,35,40
359.01315,359.23135,65,35,40
359.2859,359.50406,63,35,40
359.55862,359.7768,63,35,40
359.83136,360.04953,63,35,40
360.10406,360.32227,62,56,40
360.3768,360.59497,62,56,40
360.64954,360.8677,62,56,40
360.92224,361.14044,62,56,40
361.19498,361.41318,64,56,40
361.4677,361.68588,64,56,40
361.74045,361.95862,64,56,40
362.01315,362.23135,64,56,40
362.2859,362.50406,65,56,40
362.55862,362.7768,65,56,40
362.83136,363.04953,65,56,40
363.10406,363.32227,65,56,40
363.3768,363.59497,61,35,40
363.64954,363.8677,61,35,40
363.92224,364.14044,61,35,40
364.19498,364.41318,61,35,40
364.4677,364.68588,60,35,40
364.74045,364.95862,60,35,40
365.01315,365.23135,60,35,40
365.2859,365.50406,60,35,40
365.55862,365.7768,58,35,40
365.83136,366.04953,58,35,40
366.10406,366.32227,58,35,40
366.3768,366.59497,58,35,40
366.64954,366.8677,57,43,40
366.92224,367.14044,57,43,40
367.19498,367.41318,57,43,40
367.4677,367.68588,57,43,40
367.74045,367.95862,57,43,40
368.01315,368.23135,57,43,40
368.2859,368.50406,57,43,40
368.55862,368.7768,57,43,40
368.83136,369.04953,57,43,40
369.10406,369.32227,57,43,40
369.3768,369.59497,57,43,40
369.64954,369.8677,57,43,40
369.92224,372.58893,57,56,40
0.0,1.090909,60,58,41
1.090909,2.7272725,57,58,41
2.7272725,2.9999998,58,58,41
2.9999998,3.272727,55,58,41
3.272727,4.363636,52,61,41
4.363636,4.7999997,53,58,41
4.9090905,5.454545,53,68,41
5.454545,5.9999995,55,68,41
5.9999995,6.545454,57,68,41
6.545454,7.0909085,58,67,41
7.0909085,8.181817,62,75,41
8.181817,9.272726,65,88,41
9.272726,9.818181,70,92,41
9.818181,10.690908,65,68,41
13.090908,13.963635,62,80,41
14.181817,15.927272,60,80,41
16.363634,17.236362,54,80,41
17.454544,18.32727,55,80,41
18.545452,19.41818,48,80,41
19.636362,20.072725,50,80,41
20.181816,20.399998,55,80,41
20.454544,20.672726,58,80,41
20.72727,21.599998,57,80,41
21.81818,22.690907,60,80,41
22.909088,23.781816,60,80,41
26.181816,27.054543,60,65,41
27.272724,27.70909,70,82,41
27.81818,28.254543,69,89,41
28.363634,28.799997,67,92,41
28.909088,29.345451,65,92,41
29.454542,30.32727,64,92,41
31.090906,31.63636,64,80,41
31.63636,32.181816,67,80,41
32.181816,32.72727,65,80,41
32.72727,34.472725,65,80,41
34.90909,35.781815,64,80,41
35.999996,36.545452,60,91,41
36.545452,36.681816,58,80,41
36.81818,36.954544,57,80,41
37.090904,38.399998,57,80,41
38.72727,38.94545,58,58,41
38.999996,39.218178,55,58,41
39.272724,39.545452,53,43,41
39.81818,40.090904,65,43,41
40.363632,40.63636,65,43,41
40.90909,41.181816,65,43,41
41.45454,41.72727,60,43,41
41.999996,42.272724,60,43,41
42.545452,42.81818,60,43,41
43.090904,43.363632,64,43,41
43.63636,43.90909,64,43,41
44.181816,44.45454,64,43,41
44.72727,44.999996,60,43,41
45.272724,45.545452,60,43,41
45.818176,46.090904,62,43,41
46.363632,46.63636,62,43,41
46.90909,47.181816,62,43,41
47.45454,47.72727,62,43,41
47.999996,48.272724,62,43,41
48.545452,48.818176,62,43,41
49.090904,49.363632,60,43,41
49.63636,49.90909,67,43,41
50.181812,50.45454,67,43,41
50.72727,50.999996,67,43,41
51.272724,51.545452,67,43,41
51.818176,52.090904,67,43,41
52.363632,52.63636,70,43,41
52.90909,53.181812,70,43,41
53.45454,53.72727,70,43,41
53.999996,54.272724,70,43,41
54.54545,54.818176,70,43,41
55.090904,55.363632,70,43,41
55.63636,55.90909,69,43,41
56.181812,56.45454,65,43,41
56.72727,56.999996,65,43,41
57.272724,57.54545,65,43,41
57.818176,58.090904,60,43,41
58.363632,58.63636,60,43,41
58.909084,59.181812,57,43,41
59.45454,59.72727,57,43,41
59.999996,60.272724,57,43,41
60.54545,60.818176,57,43,41
61.090904,61.363632,57,43,41
61.63636,61.909084,57,43,41
62.181812,62.618176,55,67,41
62.72727,62.999996,59,70,41
62.999996,63.27272,57,71,41
63.27272,63.818176,60,72,41
63.818176,64.25454,59,75,41
64.90909,65.181816,60,80,41
65.181816,65.45454,59,82,41
65.45454,65.99999,62,82,41
65.99999,66.436356,60,85,41
67.090904,67.36363,62,90,41
67.36363,67.63636,61,92,41
67.63636,68.181816,64,92,41
68.181816,68.61818,62,92,41
69.27272,69.54545,64,92,41
69.54545,69.81818,63,92,41
69.81818,70.36363,65,92,41
70.36363,70.90909,64,92,41
70.90909,71.45454,62,92,41
71.45454,71.99999,60,92,41
71.99999,73.090904,59,80,41
75.27272,75.54545,62,58,41
75.81818,76.090904,62,58,41
76.36363,76.63636,62,58,41
78.54545,78.81818,62,58,41
79.090904,79.36363,62,58,41
79.63636,79.90908,62,58,41
85.090904,85.96363,65,43,41
86.18181,86.61817,65,43,41
86.727264,87.16363,65,43,41
87.27272,87.70908,65,43,41
87.81818,88.25454,65,43,41
88.36363,89.23636,65,43,41
89.45454,90.32726,64,43,41
91.63635,93.38181,67,43,41
94.90908,96.21817,67,41,41
96.54545,96.98181,67,77,41
97.090904,97.52727,67,89,41
97.63635,98.072716,67,92,41
98.18181,99.054535,60,92,41
99.27272,100.14545,60,92,41
101.45454,102.32726,65,43,41
102.54545,102.98181,65,43,41
103.090904,103.52727,65,43,41
103.63635,104.072716,65,43,41
104.18181,104.61817,65,43,41
104.727264,105.59999,65,43,41
105.81818,106.25454,65,43,41
106.363625,106.79999,65,43,41
106.90908,107.34544,65,43,41
107.45454,107.8909,65,43,41
107.99999,110.18181,60,48,41
110.18181,111.27272,62,48,41
111.27272,111.81818,60,92,41
111.81818,112.363625,48,92,41
112.363625,112.90908,49,92,41
112.90908,113.45454,50,92,41
113.45454,113.99999,51,92,41
113.99999,114.54545,52,92,41
114.54545,114.81817,53,55,41
115.0909,115.363625,65,63,41
115.63635,115.90908,65,71,41
116.18181,116.45454,65,79,41
116.727264,116.99999,65,86,41
117.27272,117.54545,65,92,41
117.81817,120.436356,67,80,41
121.63635,121.90908,64,58,41
122.18181,122.45454,65,58,41
122.727264,122.99999,65,58,41
123.27272,123.54544,65,58,41
123.81817,124.0909,65,58,41
124.363625,127.63635,64,52,41
127.63635,130.90907,65,65,41
130.90907,133.0909,67,72,41
133.0909,134.18181,65,78,41
134.18181,135.27272,60,77,41
135.27272,137.45453,58,82,41
137.45453,138.54544,57,82,41
138.54544,139.63635,53,71,41
139.63635,140.72726,52,71,41
140.72726,142.90907,52,72,41
143.99998,144.87271,60,61,41
145.0909,146.4,57,61,41
146.72726,146.94545,58,61,41
146.99998,147.21817,55,61,41
147.27272,148.14545,52,58,41
148.36362,148.90907,53,58,41
148.90907,149.45453,53,68,41
149.45453,149.99998,55,68,41
149.99998,150.54544,57,68,41
150.54544,150.98181,58,92,41
151.0909,151.96362,62,92,41
152.18181,153.05453,65,92,41
153.27272,153.70908,70,92,41
153.81818,154.6909,65,92,41
157.0909,157.96362,62,58,41
158.18181,159.92726,60,58,41
160.36362,160.90907,54,69,41
160.90907,161.45453,55,58,41
161.45453,162.54544,55,58,41
162.54544,163.41817,53,58,41
163.63635,164.72726,58,58,41
164.72726,165.81816,57,58,41
165.81816,166.6909,60,58,41
166.90907,167.7818,60,58,41
170.18181,171.05453,60,56,41
171.27272,171.81816,70,70,41
171.81816,172.36362,69,76,41
172.36362,172.90907,67,82,41
172.90907,173.45453,65,89,41
173.45453,174.32726,64,92,41
175.0909,175.63635,64,80,41
175.63635,176.18181,67,80,41
176.18181,176.72726,65,80,41
176.72726,177.59999,65,58,41
177.81816,178.25453,65,58,41
178.36362,178.79999,60,58,41
179.45453,179.8909,60,58,41
179.99998,180.43636,60,76,41
180.54544,180.76363,58,58,41
180.81816,180.95453,57,58,41
181.0909,181.30908,57,58,41
181.36362,181.44543,65,58,41
181.63635,181.71817,64,58,41
181.90907,181.99089,62,58,41
182.18181,182.26363,60,58,41
182.45453,182.53635,58,58,41
182.72726,182.80908,57,58,41
182.99998,183.0818,55,58,41
183.2727,183.54544,53,48,41
183.81816,184.0909,53,48,41
184.36362,184.63635,53,48,41
184.90907,185.18181,53,48,41
185.45453,185.72726,57,48,41
185.99998,186.2727,60,48,41
186.54544,186.81816,62,43,41
187.0909,187.36362,62,43,41
187.63635,187.90907,58,43,41
188.18181,188.45453,58,43,41
188.72726,188.99998,62,43,41
189.2727,189.54544,62,43,41
189.81816,190.0909,63,43,41
190.36362,190.63635,63,43,41
190.90907,191.18181,63,43,41
191.45453,191.72725,63,43,41
191.99998,192.2727,63,43,41
192.54544,192.81816,63,43,41
193.0909,193.36362,60,65,41
193.63635,193.90907,60,65,41
194.18181,194.45453,60,65,41
194.72725,194.99998,60,65,41
195.2727,195.54544,60,65,41
195.81816,196.0909,60,65,41
196.36362,196.79999,58,43,41
196.90907,197.34544,58,43,41
197.45453,197.8909,58,43,41
197.99998,198.43634,62,43,41
198.54544,198.9818,62,43,41
199.0909,199.52725,62,43,41
199.63635,200.07271,65,43,41
200.18181,200.61816,65,43,41
200.72725,201.16362,65,43,41
201.2727,201.70908,65,43,41
201.81816,202.25453,65,43,41
202.36362,202.79999,65,43,41
202.90907,203.34544,62,43,41
203.45453,203.8909,62,43,41
203.99998,204.43634,62,43,41
204.54544,204.9818,62,43,41
205.0909,205.52725,62,43,41
205.63635,206.07271,62,43,41
206.18181,206.45453,62,43,41
206.72725,206.99998,62,45,41
207.2727,207.54544,62,48,41
207.81816,208.0909,62,50,41
208.36362,208.63635,62,53,41
208.90907,209.1818,62,55,41
209.45453,209.72725,62,57,41
209.99998,210.2727,62,60,41
210.54544,210.81816,65,62,41
210.54544,210.81816,62,62,41
211.0909,211.36362,65,65,41
211.0909,211.36362,62,65,41
211.63635,211.90907,65,67,41
211.63635,211.90907,62,67,41
212.1818,212.45453,65,70,41
212.1818,212.45453,62,70,41
212.72725,212.99998,65,64,41
212.72725,212.99998,60,64,41
213.2727,213.54544,65,64,41
213.2727,213.54544,60,64,41
213.81816,214.0909,65,64,41
213.81816,214.0909,60,64,41
214.36362,214.63635,65,64,41
214.36362,214.63635,60,64,41
214.90907,215.1818,65,64,41
214.90907,215.1818,60,64,41
215.45453,215.72725,65,64,41
215.45453,215.72725,60,64,41
215.99998,216.43634,59,64,41
215.99998,216.43634,65,64,41
216.54544,216.9818,59,64,41
216.54544,216.9818,65,64,41
217.0909,217.52725,65,64,41
217.0909,217.52725,59,64,41
217.63635,218.07271,65,73,41
218.1818,218.61816,65,73,41
218.72725,219.16362,65,73,41
219.2727,219.81816,67,73,41
219.81816,219.95453,65,73,41
220.0909,220.22725,64,73,41
220.90907,221.12726,64,77,41
221.1818,221.39998,62,77,41
221.45453,221.99998,65,85,41
221.99998,222.43634,64,77,41
222.54544,223.0909,64,85,41
223.0909,223.52725,65,77,41
224.1818,224.39998,65,77,41
224.45453,224.67271,64,77,41
224.72725,225.16362,67,77,41
225.2727,225.70908,65,77,41
225.81816,226.36362,66,90,41
226.36362,226.79999,67,91,41
227.45453,227.67271,67,77,41
227.72725,227.94543,65,83,41
227.99998,228.54544,69,99,41
228.54544,228.9818,67,92,41
229.0909,229.63634,64,101,41
229.63634,230.72725,65,92,41
230.72725,231.2727,64,92,41
231.2727,231.81816,65,92,41
231.81816,232.36362,65,92,41
232.36362,233.23634,64,92,41
235.63634,235.90907,64,43,41
236.1818,236.45453,64,43,41
236.72725,236.99998,64,43,41
238.90907,239.1818,64,43,41
239.45453,239.72725,64,43,41
239.99998,240.2727,64,43,41
245.45453,246.32726,70,51,41
246.54544,246.9818,70,51,41
247.09088,247.52725,70,51,41
247.63634,248.07271,70,51,41
248.1818,248.61816,70,51,41
248.72725,249.59998,70,51,41
249.81816,250.69089,69,51,41
251.99998,253.74544,72,51,41
255.2727,256.5818,72,55,41
256.90906,257.34543,72,78,41
257.45453,257.8909,72,85,41
257.99997,258.43634,72,92,41
258.54544,259.41815,65,92,41
259.63635,260.50906,65,92,41
261.81815,262.6909,58,51,41
262.90906,263.34543,58,51,41
263.45453,263.8909,58,51,41
263.99997,264.43634,58,51,41
264.54544,264.98178,58,51,41
265.09088,265.96362,58,51,41
266.1818,266.61816,58,51,41
266.72726,267.1636,58,51,41
267.2727,267.70908,58,51,41
267.81815,268.25452,58,51,41
268.36362,270.54544,53,58,41
270.54544,271.63635,52,87,41
271.63635,272.50906,53,80,41
274.90906,275.7818,53,39,41
275.99997,276.43634,53,39,41
276.54544,276.98178,53,39,41
277.09088,277.52725,53,39,41
277.63635,278.0727,53,39,41
278.1818,279.05453,53,51,41
279.2727,280.14542,52,51,41
281.45453,283.19998,60,51,41
284.72723,285.59998,70,51,41
285.81815,286.25452,70,51,41
286.36362,286.8,70,51,41
286.90906,287.34543,70,51,41
287.45453,287.8909,70,51,41
287.99997,288.8727,70,51,41
289.09088,289.96362,68,60,41
290.1818,291.05453,65,76,41
291.2727,293.01816,65,92,41
293.45453,294.32724,63,92,41
294.54544,296.2909,63,92,41
296.72723,297.59998,62,92,41
297.81815,299.12726,62,92,41
299.45453,299.89087,61,92,41
299.99997,300.8727,60,92,41
301.09088,302.39996,60,92,41
302.72723,303.1636,60,92,41
303.2727,303.70908,56,92,41
303.81815,304.25452,53,92,41
304.36362,305.23633,61,51,41
304.36362,305.23633,65,51,41
305.45453,305.89087,65,51,41
305.45453,305.89087,61,51,41
305.99997,306.43634,61,51,41
305.99997,306.43634,65,51,41
306.54544,306.98178,61,51,41
306.54544,306.98178,65,51,41
307.09088,307.52725,65,51,41
307.09088,307.52725,61,51,41
307.63635,308.50906,64,92,41
307.63635,308.50906,61,92,41
308.72723,309.1636,64,51,41
308.72723,309.1636,61,51,41
309.2727,309.70908,61,51,41
309.2727,309.70908,64,51,41
309.81815,310.6909,62,92,41
309.81815,310.6909,65,92,41
310.90906,311.34543,62,51,41
310.90906,311.34543,65,51,41
311.45453,311.89087,62,51,41
311.45453,311.89087,65,51,41
311.99997,312.8727,65,51,41
311.99997,312.8727,60,51,41
313.09088,313.96362,58,92,41
314.1818,314.61816,57,92,41
314.72723,315.2727,53,92,41
315.2727,315.81815,54,92,41
315.81815,316.36362,55,92,41
316.36362,316.90906,56,92,41
316.90906,317.45453,57,92,41
317.45453,317.89087,58,51,41
317.99997,318.43634,58,51,41
318.54544,318.98178,58,51,41
319.09088,319.52725,58,51,41
319.63632,320.0727,58,51,41
320.1818,320.61816,58,51,41
320.72723,323.34543,60,56,41
324.54544,324.81815,57,51,41
325.09088,325.36362,58,51,41
325.63632,325.90906,58,51,41
326.1818,326.45453,58,51,41
326.72723,326.99997,58,51,41
327.2727,327.49088,57,37,41
327.54544,327.7636,57,43,41
327.81815,328.03635,57,43,41
328.09088,328.30905,57,43,41
328.36362,328.5818,53,43,41
328.63632,328.85452,53,43,41
328.90906,329.12726,53,43,41
329.1818,329.39996,53,43,41
329.45453,329.6727,57,43,41
329.72723,329.94543,57,43,41
329.99997,330.21814,57,43,41
330.2727,330.49088,57,43,41
330.54544,330.7636,52,43,41
330.81815,331.03635,52,43,41
331.09088,331.30905,52,43,41
331.36362,331.5818,52,43,41
331.63632,331.85452,55,43,41
331.90906,332.12726,55,43,41
332.1818,332.39996,55,43,41
332.45453,332.6727,55,43,41
332.72723,332.94543,52,43,41
332.99997,333.21814,52,43,41
333.2727,333.49088,52,43,41
333.54544,333.7636,55,43,41
333.81815,334.03635,53,43,41
334.09088,334.30905,53,43,41
334.36362,334.5818,53,43,41
334.63632,334.85452,53,43,41
334.90906,335.12726,53,43,41
335.1818,335.39996,53,43,41
335.45453,335.6727,53,43,41
335.72723,335.94543,53,43,41
335.99997,336.21814,53,43,41
336.2727,336.49088,53,43,41
336.54544,336.7636,53,43,41
336.81815,337.03635,53,43,41
337.09088,337.30905,57,43,41
337.36362,337.5818,57,43,41
337.63632,337.85452,57,43,41
337.90906,338.12726,57,43,41
338.1818,338.39996,57,43,41
338.45453,338.6727,57,43,41
338.72723,338.94543,57,43,41
338.99997,339.21814,57,43,41
339.2727,339.49088,52,43,41
339.54544,339.7636,52,43,41
339.81815,340.03635,52,43,41
340.09088,340.30905,52,43,41
340.36362,340.5818,55,43,41
340.63632,340.85452,55,43,41
340.90906,341.12726,55,43,41
341.1818,341.39996,55,43,41
341.45453,341.6727,53,43,41
341.72723,341.94543,53,43,41
341.99997,342.21814,53,43,41
342.2727,342.49088,53,43,41
342.54544,342.7636,65,43,41
342.81815,343.03635,65,43,41
343.09088,343.30905,65,43,41
343.09088,343.30905,65,43,41
343.36362,343.5818,65,43,41
343.63632,343.85452,64,43,41
343.90906,344.12726,64,43,41
344.1818,344.39996,64,43,41
344.45453,344.6727,64,43,41
344.72723,344.94543,67,43,41
344.99997,345.21814,67,43,41
345.2727,345.49088,67,43,41
345.54544,345.7636,67,43,41
345.81815,346.03635,64,43,41
346.09088,346.30905,64,43,41
346.36362,346.5818,64,43,41
346.63632,346.85452,67,43,41
346.90906,347.12726,65,43,41
347.1818,347.39996,65,43,41
347.45453,347.6727,65,43,41
347.72723,347.94543,65,43,41
347.99997,348.22638,64,43,41
348.283,348.5094,64,43,41
348.566,348.79242,64,43,41
348.84903,349.07544,64,43,41
349.13205,349.36282,62,43,41
349.4205,349.65128,62,43,41
349.70895,349.93973,68,43,41
349.99744,350.2282,68,43,41
350.2859,350.50406,69,35,41
350.55862,350.7768,69,35,41
350.83136,351.04953,69,35,41
351.10406,351.32227,69,35,41
351.3768,351.59497,69,35,41
351.64954,351.8677,69,35,41
351.92224,352.14044,69,35,41
352.19498,352.41318,69,35,41
352.4677,352.68588,64,35,41
352.74045,352.95862,64,35,41
353.01315,353.23135,64,35,41
353.2859,353.50406,64,35,41
353.55862,353.7768,65,43,41
353.83136,354.04953,60,43,41
354.10406,354.32227,60,43,41
354.3768,354.59497,60,43,41
354.64954,354.8677,60,43,41
354.92224,355.14044,60,43,41
355.19498,355.41318,60,43,41
355.4677,355.68588,60,43,41
355.74045,355.95862,60,43,41
355.74045,355.95862,60,43,41
355.74045,355.95862,60,43,41
356.01315,356.23135,60,43,41
356.2859,356.50406,60,43,41
356.55862,356.7768,60,43,41
356.83136,357.04953,58,56,41
357.10406,357.32227,58,56,41
357.3768,357.59497,58,56,41
357.64954,357.8677,58,56,41
357.92224,358.14044,58,56,41
358.19498,358.41318,58,56,41
358.4677,358.68588,58,56,41
358.74045,358.95862,58,56,41
359.01315,359.23135,57,56,41
359.2859,359.50406,57,56,41
359.55862,359.7768,57,56,41
359.83136,360.04953,57,56,41
360.10406,360.32227,65,56,41
360.3768,360.59497,65,56,41
360.64954,360.8677,65,56,41
360.92224,361.14044,65,56,41
361.19498,361.41318,61,56,41
361.4677,361.68588,61,56,41
361.74045,361.95862,61,56,41
362.01315,362.23135,61,56,41
362.2859,362.50406,60,56,41
362.55862,362.7768,60,56,41
362.83136,363.04953,60,56,41
363.10406,363.32227,60,56,41
363.3768,363.59497,52,56,41
363.64954,363.8677,52,56,41
363.92224,364.14044,52,56,41
364.19498,364.41318,52,56,41
364.4677,364.68588,52,56,41
364.74045,364.95862,52,56,41
365.01315,365.23135,52,56,41
365.2859,365.50406,52,56,41
365.55862,365.7768,52,56,41
365.83136,366.04953,52,56,41
366.10406,366.32227,52,56,41
366.3768,366.59497,52,56,41
366.64954,366.8677,53,43,41
366.92224,367.14044,48,43,41
367.19498,367.41318,48,43,41
367.4677,367.68588,48,43,41
367.74045,367.95862,48,43,41
368.01315,368.23135,48,43,41
368.2859,368.50406,48,43,41
368.55862,368.7768,48,43,41
368.83136,369.04953,48,43,41
369.10406,369.32227,48,43,41
369.3768,369.59497,48,43,41
369.64954,369.8677,48,43,41
369.92224,372.58893,48,56,41
0.0,1.090909,53,58,42
1.090909,2.181818,45,58,42
2.181818,3.272727,48,58,42
3.272727,5.454545,41,58,42
6.545454,6.9818177,53,67,42
7.636363,8.072726,50,82,42
8.727272,9.163635,46,92,42
9.818181,10.690908,41,68,42
11.454544,11.999999,53,88,42
11.999999,12.545453,55,88,42
12.545453,13.090908,57,88,42
13.090908,13.363635,47,80,42
13.636362,13.90909,47,80,42
14.181817,14.454544,48,80,42
14.727271,14.999999,48,80,42
15.272726,15.545453,42,80,42
15.81818,16.090908,42,80,42
16.363634,16.636362,43,80,42
16.90909,17.181816,43,80,42
17.454544,17.727272,43,80,42
17.999998,18.272726,43,80,42
18.545452,18.81818,45,80,42
19.090908,19.363634,45,80,42
19.636362,19.90909,46,80,42
20.181816,20.454544,46,80,42
20.72727,20.999998,48,80,42
21.272726,21.545452,48,80,42
21.81818,22.090908,48,80,42
22.363634,22.636362,48,80,42
22.909088,23.781816,41,80,42
24.545452,25.090906,53,80,42
25.090906,25.636362,60,80,42
25.636362,26.181816,58,80,42
26.181816,26.454544,57,65,42
26.72727,26.999998,57,74,42
27.272724,27.545452,55,82,42
27.81818,28.090906,53,89,42
28.363634,28.636362,52,92,42
28.909088,29.181816,50,92,42
29.454542,30.32727,48,92,42
31.090906,31.63636,48,80,42
31.63636,32.181816,52,80,42
32.181816,32.72727,53,80,42
32.72727,32.999996,46,80,42
33.272724,33.545452,46,80,42
33.81818,34.090908,48,80,42
34.363632,34.63636,48,80,42
34.90909,35.181816,48,80,42
35.454544,35.72727,48,80,42
35.999996,37.090904,53,91,42
37.63636,38.181816,41,80,42
38.181816,38.72727,45,80,42
38.72727,39.272724,48,80,42
39.272724,40.14545,53,80,42
40.90909,41.181816,53,80,42
41.181816,41.45454,52,80,42
41.45454,41.999996,55,80,42
41.999996,42.545452,53,80,42
42.545452,43.41818,52,80,42
44.181816,44.45454,52,80,42
44.45454,44.72727,50,80,42
44.72727,45.272724,53,80,42
45.272724,45.818176,52,80,42
45.818176,46.690907,50,80,42
47.45454,47.72727,55,80,42
47.72727,47.999996,54,80,42
47.999996,48.545452,57,80,42
48.545452,49.090904,55,80,42
49.090904,49.96363,48,80,42
50.72727,50.999996,60,80,42
50.999996,51.272724,59,80,42
51.272724,51.818176,62,80,42
51.818176,52.25454,60,80,42
52.363632,53.23636,52,80,42
53.999996,54.272724,52,80,42
54.272724,54.54545,50,80,42
54.54545,55.090904,53,80,42
55.090904,55.527267,52,80,42
55.63636,56.509087,53,80,42
57.272724,57.54545,53,80,42
57.54545,57.818176,52,80,42
57.818176,58.363632,55,80,42
58.363632,58.799995,53,80,42
58.909084,59.781815,54,80,42
60.54545,60.818176,54,80,42
60.818176,61.090904,52,80,42
61.090904,61.63636,55,80,42
61.63636,62.181812,54,80,42
62.181812,63.05454,55,67,42
63.818176,64.090904,43,60,42
64.090904,64.36363,42,60,42
64.36363,64.90909,45,60,42
64.90909,65.45454,43,63,42
65.99999,66.21818,43,66,42
66.27272,66.490906,42,67,42
66.54545,66.98181,45,68,42
67.090904,67.52727,43,70,42
68.181816,68.399994,43,73,42
68.45454,68.67272,42,75,42
68.727264,69.16363,45,75,42
69.27272,69.70908,43,77,42
70.36363,70.90909,43,80,42
70.90909,71.45454,47,82,42
71.45454,71.99999,48,84,42
71.99999,73.090904,55,80,42
75.27272,75.54545,55,58,42
75.81818,76.090904,55,58,42
76.36363,76.63636,55,58,42
78.54545,78.81818,59,58,42
79.090904,79.36363,59,58,42
79.63636,79.90908,59,58,42
81.81818,82.090904,48,43,42
82.090904,82.36363,47,43,42
82.36363,82.63636,48,43,42
82.63636,82.90908,43,43,42
82.90908,83.18181,48,43,42
83.18181,83.45454,47,43,42
83.45454,83.727264,48,43,42
83.727264,83.99999,43,43,42
83.99999,84.27272,48,43,42
84.27272,84.54545,47,43,42
84.54545,84.81818,48,43,42
84.81818,85.090904,43,43,42
85.090904,85.36363,50,43,42
85.36363,85.63636,49,43,42
85.63636,85.90908,50,43,42
85.90908,86.18181,43,43,42
86.18181,86.45454,50,43,42
86.45454,86.727264,49,43,42
86.727264,86.99999,50,43,42
86.99999,87.27272,43,43,42
87.27272,87.54545,50,43,42
87.54545,87.81818,49,43,42
87.81818,88.090904,50,43,42
88.090904,88.36363,43,43,42
88.36363,88.63635,48,43,42
88.63635,88.90908,47,43,42
88.90908,89.18181,48,43,42
89.18181,89.45454,43,43,42
89.45454,89.727264,48,43,42
89.727264,89.99999,47,43,42
89.99999,90.27272,48,43,42
90.27272,90.54545,43,43,42
90.54545,90.81818,48,43,42
90.81818,91.090904,47,43,42
91.090904,91.36363,48,43,42
91.36363,91.63635,43,43,42
91.63635,91.90908,50,43,42
91.90908,92.18181,49,43,42
92.18181,92.45454,50,43,42
92.45454,92.727264,43,43,42
92.727264,92.99999,50,43,42
92.99999,93.27272,49,43,42
93.27272,93.54545,50,43,42
93.54545,93.81818,43,43,42
93.81818,94.090904,50,43,42
94.090904,94.36363,49,43,42
94.36363,94.63635,50,43,42
94.63635,94.90908,43,43,42
94.90908,95.18181,48,41,42
95.18181,95.45454,47,47,42
95.45454,95.727264,48,53,42
95.727264,95.99999,43,60,42
95.99999,96.27272,48,65,42
96.27272,96.54545,47,71,42
96.54545,96.81818,48,77,42
96.81818,97.090904,43,83,42
97.090904,97.363625,48,89,42
97.363625,97.63635,47,92,42
97.63635,97.90908,48,92,42
97.90908,98.18181,43,92,42
98.18181,99.054535,40,92,42
99.27272,100.14545,41,92,42
107.99999,109.0909,54,48,42
109.0909,110.18181,55,48,42
110.18181,111.27272,56,48,42
111.27272,112.14545,57,92,42
112.363625,113.23635,45,92,42
113.45454,114.32726,43,92,42
114.54545,115.418175,41,55,42
116.727264,117.59999,53,86,42
117.81817,118.6909,52,80,42
118.90908,119.78181,50,55,42
119.99999,120.87272,48,80,42
121.0909,121.363625,55,80,42
121.63635,121.90908,55,58,42
122.18181,122.45454,55,58,42
122.727264,122.99999,55,58,42
123.27272,123.54544,55,58,42
123.81817,124.0909,55,58,42
124.363625,124.79999,48,58,42
124.90908,125.127266,48,58,42
125.18181,125.39999,47,58,42
125.45454,125.8909,50,58,42
125.99999,126.436356,48,58,42
127.0909,127.52726,48,58,42
128.18181,128.4,48,72,42
128.45453,128.67271,47,72,42
128.72726,129.16362,50,72,42
129.27272,129.70908,48,72,42
130.36363,130.79999,48,72,42
131.45453,131.67271,48,87,42
131.72726,131.94545,47,87,42
131.99998,132.43636,50,87,42
132.54544,132.98181,48,87,42
133.63635,133.85454,48,87,42
133.90907,134.12726,47,87,42
134.18181,134.61816,50,92,42
134.72726,135.16362,48,92,42
135.81818,136.03635,48,92,42
136.0909,136.30908,47,92,42
136.36363,136.79999,50,92,42
136.90907,137.34544,48,92,42
137.99998,138.21817,48,92,42
138.27272,138.49089,47,92,42
138.54544,138.98181,50,92,42
139.0909,139.52727,48,92,42
140.18181,140.4,48,92,42
140.45453,140.67271,47,92,42
140.72726,141.16362,50,80,42
141.27272,141.70908,48,80,42
143.99998,144.87271,53,61,42
145.0909,145.96362,45,61,42
146.18181,147.05453,48,61,42
147.27272,149.01817,41,58,42
150.54544,150.98181,53,92,42
151.63635,152.07271,50,92,42
152.72726,153.16362,46,92,42
153.81818,154.6909,41,92,42
155.45453,155.99998,53,68,42
155.99998,156.54544,50,68,42
156.54544,157.0909,48,68,42
157.0909,157.36362,47,58,42
157.63635,157.90907,47,58,42
158.18181,158.45453,48,58,42
158.72726,158.99998,48,58,42
159.27272,159.54544,42,58,42
159.81816,160.0909,42,58,42
160.36362,160.63635,43,69,42
160.90907,161.18181,43,58,42
161.45453,161.72726,37,58,42
161.99998,162.27272,37,58,42
162.54544,162.81816,38,58,42
163.0909,163.36362,38,58,42
163.63635,163.90907,46,58,42
164.18181,164.45453,46,58,42
164.72726,164.99998,48,58,42
165.27272,165.54544,48,58,42
165.81816,166.0909,48,58,42
166.36362,166.63635,48,58,42
166.90907,167.7818,41,58,42
168.54544,169.0909,60,68,42
169.0909,169.63635,59,68,42
169.63635,170.18181,58,68,42
170.18181,170.61816,57,56,42
170.72726,171.16362,57,63,42
171.27272,171.81816,55,70,42
171.81816,172.36362,53,76,42
172.36362,172.90907,52,82,42
172.90907,173.45453,50,89,42
173.45453,174.32726,48,92,42
175.0909,175.63635,48,80,42
175.63635,176.18181,49,80,42
176.18181,176.72726,50,80,42
176.72726,176.99998,46,58,42
177.2727,177.54544,46,58,42
177.81816,178.0909,48,58,42
178.36362,178.63635,48,58,42
178.90907,179.18181,48,58,42
179.45453,179.72726,48,58,42
179.99998,180.87271,53,76,42
181.63635,182.07271,45,58,42
182.18181,182.61816,48,58,42
182.72726,183.16362,40,58,42
183.2727,183.54544,39,48,42
183.81816,184.0909,39,48,42
184.36362,184.63635,39,48,42
184.90907,185.18181,39,48,42
185.45453,185.72726,51,48,42
185.99998,186.2727,51,48,42
187.0909,187.30908,50,58,42
187.36362,187.5818,48,58,42
187.63635,188.07271,51,58,42
188.18181,188.61816,50,58,42
190.36362,190.5818,45,58,42
190.63635,190.85452,43,58,42
190.90907,191.34544,46,58,42
191.45453,191.8909,45,58,42
193.63635,193.85452,57,92,42
193.90907,194.12726,55,92,42
194.18181,194.61816,58,92,42
194.72725,195.16362,57,92,42
196.90907,197.12726,55,58,42
197.18181,197.39998,54,58,42
197.45453,197.8909,57,58,42
197.99998,198.43634,55,58,42
200.18181,200.39998,49,58,42
200.45453,200.67271,47,58,42
200.72725,201.16362,50,58,42
201.2727,201.70908,49,58,42
203.45453,203.67271,50,58,42
203.72725,203.94543,49,58,42
203.99998,204.43634,52,58,42
204.54544,204.9818,50,58,42
206.72725,206.94543,46,60,42
206.99998,207.21817,45,61,42
207.2727,207.70908,48,62,42
207.81816,208.25453,46,65,42
208.90907,209.34544,46,70,42
209.99998,210.21817,47,75,42
210.2727,210.49089,45,76,42
210.54544,210.9818,48,77,42
211.0909,211.52725,47,80,42
212.1818,212.61816,47,84,42
213.2727,213.49089,48,80,42
213.54544,213.76363,47,80,42
213.81816,214.25453,50,80,42
214.36362,214.79999,48,80,42
215.45453,215.89088,48,80,42
216.54544,216.81816,49,80,42
216.81816,217.0909,48,80,42
217.0909,217.63635,51,80,42
217.63635,218.07271,49,80,42
218.72725,219.16362,49,92,42
219.2727,220.14543,48,92,42
220.36362,221.23634,36,92,42
221.99998,222.2727,52,59,42
222.2727,222.54544,48,59,42
222.54544,223.0909,55,59,42
223.0909,223.63635,53,59,42
223.63635,224.1818,59,59,42
224.1818,224.61816,60,59,42
225.2727,225.49089,53,59,42
225.54544,225.76361,48,59,42
225.81816,226.36362,57,68,42
226.36362,226.90907,55,68,42
226.90907,227.45453,59,68,42
227.45453,227.89088,60,68,42
228.54544,228.81816,55,71,42
228.81816,229.0909,48,80,42
229.0909,229.63634,58,80,42
229.63634,230.1818,57,80,42
230.1818,230.72725,56,80,42
230.72725,231.2727,55,80,42
231.2727,231.81816,53,80,42
231.81816,232.36362,47,80,42
232.36362,233.23634,48,80,42
235.63634,235.90907,48,43,42
236.1818,236.45453,48,43,42
236.72725,236.99998,48,43,42
238.90907,239.1818,64,43,42
239.45453,239.72725,64,43,42
239.99998,240.2727,64,43,42
242.1818,242.45453,53,43,42
242.45453,242.72725,52,43,42
242.72725,242.99998,53,43,42
242.99998,243.2727,48,43,42
243.2727,243.54544,53,43,42
243.54544,243.81816,52,43,42
243.81816,244.09088,53,43,42
244.09088,244.36362,48,43,42
244.36362,244.63634,53,43,42
244.63634,244.90907,52,43,42
244.90907,245.1818,53,43,42
245.1818,245.45453,48,43,42
245.45453,245.72725,55,43,42
245.72725,245.99998,54,43,42
245.99998,246.2727,55,43,42
246.2727,246.54544,48,43,42
246.54544,246.81816,55,43,42
246.81816,247.09088,54,43,42
247.09088,247.36362,55,43,42
247.36362,247.63634,48,43,42
247.63634,247.90907,55,43,42
247.90907,248.1818,54,43,42
248.1818,248.45453,55,43,42
248.45453,248.72725,48,43,42
248.72725,248.99998,53,43,42
248.99998,249.2727,52,43,42
249.2727,249.54544,53,43,42
249.54544,249.81816,48,43,42
249.81816,250.09088,53,43,42
250.09088,250.36362,52,43,42
250.36362,250.63634,53,43,42
250.63634,250.90907,48,43,42
250.90907,251.1818,53,43,42
251.1818,251.45453,52,43,42
251.45453,251.72725,53,43,42
251.72725,251.99998,48,43,42
251.99998,252.2727,55,43,42
252.2727,252.54544,54,43,42
252.54544,252.81816,55,43,42
252.81816,253.09088,48,43,42
253.09088,253.36362,55,43,42
253.36362,253.63634,54,43,42
253.63634,253.90907,55,43,42
253.90907,254.1818,48,43,42
254.1818,254.45453,55,43,42
254.45453,254.72725,54,43,42
254.72725,254.99998,55,43,42
254.99998,255.2727,48,43,42
255.2727,255.54544,53,55,42
255.54544,255.81816,52,60,42
255.81816,256.09088,53,63,42
256.09088,256.36362,48,66,42
256.36362,256.63635,53,70,42
256.63635,256.90906,52,75,42
256.90906,257.1818,53,78,42
257.1818,257.45453,48,82,42
257.45453,257.72726,53,85,42
257.72726,257.99997,52,89,42
257.99997,258.2727,53,92,42
258.2727,258.54544,48,92,42
258.54544,259.41815,45,92,42
259.63635,260.50906,46,92,42
268.36362,269.45453,47,58,42
269.45453,270.54544,48,58,42
270.54544,271.63635,49,87,42
271.63635,272.50906,50,80,42
274.90906,275.1818,41,51,42
275.1818,275.45453,40,51,42
275.45453,275.72726,41,51,42
275.72726,275.99997,36,51,42
275.99997,276.2727,41,51,42
276.2727,276.54544,40,51,42
276.54544,276.81815,41,51,42
276.81815,277.09088,36,51,42
277.09088,277.36362,41,51,42
277.36362,277.63635,40,51,42
277.63635,277.90906,41,51,42
277.90906,278.1818,36,51,42
278.1818,278.45453,43,51,42
278.45453,278.72726,42,51,42
278.72726,278.99997,43,51,42
278.99997,279.2727,36,51,42
279.2727,279.54544,43,51,42
279.54544,279.81815,42,51,42
279.81815,280.09088,43,51,42
280.09088,280.36362,36,51,42
280.36362,280.63635,43,51,42
280.63635,280.90906,42,51,42
280.90906,281.1818,43,51,42
281.1818,281.45453,36,51,42
281.45453,281.72726,41,51,42
281.72726,281.99997,40,51,42
281.99997,282.2727,41,51,42
282.2727,282.54544,36,51,42
282.54544,282.81815,41,51,42
282.81815,283.09088,40,51,42
283.09088,283.36362,41,51,42
283.36362,283.63635,36,51,42
283.63635,283.90906,41,51,42
283.90906,284.1818,40,51,42
284.1818,284.45453,41,51,42
284.45453,284.72723,36,51,42
284.72723,284.99997,43,51,42
284.99997,285.2727,42,51,42
285.2727,285.54544,43,51,42
285.54544,285.81815,36,51,42
285.81815,286.09088,43,51,42
286.09088,286.36362,42,51,42
286.36362,286.63635,43,51,42
286.63635,286.90906,36,51,42
286.90906,287.1818,43,51,42
287.1818,287.45453,42,51,42
287.45453,287.72723,43,51,42
287.72723,287.99997,36,51,42
287.99997,288.2727,41,51,42
288.2727,288.54544,40,51,42
288.54544,288.81815,41,51,42
288.81815,289.09088,36,51,42
289.09088,289.36362,41,60,42
289.36362,289.63635,40,64,42
289.63635,289.90906,41,68,42
289.90906,290.1818,36,72,42
290.1818,290.45453,44,76,42
290.45453,290.72723,43,80,42
290.72723,290.99997,44,84,42
290.99997,291.2727,41,89,42
291.2727,291.54544,46,92,42
291.54544,291.81815,45,92,42
291.81815,292.09088,46,92,42
292.09088,292.36362,41,92,42
292.36362,292.63635,49,92,42
292.63635,292.90906,48,92,42
292.90906,293.1818,49,92,42
293.1818,293.45453,46,92,42
293.45453,293.72723,43,92,42
293.72723,293.99997,41,92,42
293.99997,294.2727,43,92,42
294.2727,294.54544,39,92,42
294.54544,294.81815,44,92,42
294.81815,295.09088,43,92,42
295.09088,295.36362,44,92,42
295.36362,295.63635,39,92,42
295.63635,295.90906,48,92,42
295.90906,296.1818,46,92,42
296.1818,296.45453,48,92,42
296.45453,296.72723,44,92,42
296.72723,296.99997,41,92,42
296.99997,297.2727,40,92,42
297.2727,297.54544,41,92,42
297.54544,297.81815,38,92,42
297.81815,298.09088,43,92,42
298.09088,298.36362,41,92,42
298.36362,298.63635,43,92,42
298.63635,298.90906,38,92,42
298.90906,299.1818,46,92,42
299.1818,299.45453,44,92,42
299.45453,299.72723,46,92,42
299.72723,299.99997,43,92,42
299.99997,300.2727,40,92,42
300.2727,300.54544,38,92,42
300.54544,300.81815,40,92,42
300.81815,301.09088,36,92,42
301.09088,301.36362,41,92,42
301.36362,301.63635,40,92,42
301.63635,301.90906,41,92,42
301.90906,302.1818,36,92,42
302.1818,302.45453,44,92,42
302.45453,302.72723,43,92,42
302.72723,302.99997,44,92,42
302.99997,303.2727,41,92,42
303.2727,303.54544,49,92,42
303.54544,303.81815,48,92,42
303.81815,304.09088,49,92,42
304.09088,304.36362,48,92,42
304.36362,305.23633,46,51,42
305.45453,305.89087,46,51,42
305.99997,306.43634,46,51,42
306.54544,306.98178,46,51,42
307.09088,307.52725,46,51,42
307.63635,308.50906,46,92,42
308.72723,309.1636,46,51,42
309.2727,309.70908,46,51,42
309.81815,310.6909,47,92,42
310.90906,311.34543,47,51,42
311.45453,311.89087,47,51,42
311.99997,312.8727,48,51,42
313.09088,313.96362,49,92,42
314.1818,315.0545,50,92,42
315.2727,316.14542,48,92,42
316.36362,317.23633,41,92,42
317.45453,318.32724,46,51,42
319.63632,320.50906,46,51,42
320.72723,321.59998,45,56,42
321.81815,322.6909,43,70,42
322.90906,323.7818,41,82,42
323.99997,324.2727,48,51,42
324.54544,324.81815,48,51,42
325.09088,325.36362,48,51,42
325.63632,325.90906,48,51,42
326.1818,326.45453,48,51,42
326.72723,326.99997,48,51,42
327.2727,327.70908,41,62,42
328.36362,328.8,45,80,42
329.45453,329.89087,41,80,42
330.54544,330.98178,43,80,42
331.63632,332.0727,40,80,42
332.72723,333.1636,46,80,42
333.81815,334.25452,45,80,42
334.90906,335.34543,45,80,42
335.99997,336.43634,46,80,42
337.09088,337.52725,48,80,42
338.1818,338.61816,48,80,42
339.2727,339.70908,36,80,42
340.36362,340.79996,41,80,42
341.45453,341.89087,53,80,42
342.54544,342.98178,57,80,42
343.63632,344.0727,55,80,42
344.72723,345.1636,52,80,42
345.81815,346.25452,58,80,42
346.90906,347.34543,57,80,42
347.99997,348.90564,57,80,42
349.13205,349.70895,58,92,42
349.70895,350.1705,59,92,42
350.2859,350.72226,60,64,42
351.3768,351.81317,48,64,42
352.4677,352.90408,48,64,42
354.10406,354.32227,53,80,42
354.3768,354.59497,52,80,42
354.64954,355.19498,55,80,42
355.19498,355.63135,53,80,42
356.2859,356.72226,53,80,42
357.3768,357.64954,53,80,42
357.64954,357.92224,52,80,42
357.92224,358.4677,55,80,42
358.4677,358.90408,53,80,42
359.55862,359.995,53,80,42
360.64954,360.92224,41,80,42
360.92224,361.19498,40,80,42
361.19498,361.74045,43,80,42
361.74045,362.1768,41,80,42
362.83136,363.2677,41,80,42
363.92224,364.19498,41,80,42
364.19498,364.4677,40,80,42
364.4677,365.01315,43,80,42
365.01315,365.44952,41,80,42
366.10406,366.54044,41,80,42
366.64954,366.92224,41,58,42
366.92224,367.19498,40,58,42
367.19498,367.4677,41,58,42
367.4677,367.74045,36,58,42
367.74045,368.01315,41,58,42
368.01315,368.2859,40,58,42
368.2859,368.55862,41,58,42
368.55862,368.83136,36,58,42
368.83136,369.10406,41,58,42
369.10406,369.3768,40,58,42
369.3768,369.64954,41,58,42
369.64954,369.92224,36,58,42
369.92224,372.58893,41,56,42
