start_time,end_time,note_value,velocity,instrument_program_number
0.0,0.24,76,65,40
0.24,0.48,77,65,40
0.48,0.72,78,65,40
0.72,0.96,79,65,40
0.96,1.2,81,65,40
1.2,1.44,79,65,40
1.44,1.68,77,65,40
1.68,1.92,74,65,40
1.92,2.064,72,78,40
2.4,2.544,72,65,40
2.88,3.024,72,65,40
3.36,3.504,77,78,40
3.84,3.984,77,65,40
4.32,4.464,77,65,40
4.8,5.28,65,72,40
5.76,5.976,59,97,40
6.0,6.216,55,97,40
6.24,6.456,60,114,40
6.48,6.696,55,114,40
6.72,6.936,62,97,40
6.96,7.176,55,97,40
7.2,7.416,64,97,40
7.44,7.656,55,97,40
7.68,8.112,65,103,40
8.64,8.88,71,65,40
8.88,9.12,67,65,40
9.12,9.36,72,71,40
9.36,9.6,67,71,40
9.6,9.84,74,65,40
9.84,10.08,67,65,40
10.08,10.32,76,65,40
10.32,10.56,67,65,40
10.56,10.8,79,71,40
10.8,11.04,78,71,40
11.04,11.28,77,65,40
11.28,11.52,74,65,40
11.52,11.76,76,65,40
11.76,12.0,72,65,40
12.0,12.384,64,114,40
12.48,12.864,80,113,40
12.96,13.344,81,113,40
13.44,13.824,62,114,40
13.92,14.304,78,113,40
14.4,14.784,79,113,40
14.88,15.264,69,114,40
15.36,15.744,85,113,40
15.84,16.224,86,113,40
16.32,18.0,62,104,40
18.0,18.144,64,72,40
18.24,18.384,66,72,40
18.48,18.624,67,72,40
18.72,18.864,69,72,40
18.96,19.104,71,72,40
19.2,19.344,72,72,40
19.44,19.584,74,72,40
19.68,19.824,76,72,40
19.92,20.064,78,72,40
20.16,20.304,79,72,40
20.4,20.544,81,72,40
20.64,20.88,83,72,40
20.88,21.12,84,72,40
21.12,21.36,85,72,40
21.36,21.6,86,72,40
21.6,21.84,84,72,40
21.84,22.08,81,72,40
22.08,22.464,79,72,40
23.04,23.28,67,72,40
23.28,23.424,74,72,40
23.52,23.76,74,77,40
23.76,23.904,72,93,40
24.0,24.24,72,72,40
24.24,24.384,71,72,40
24.48,24.72,71,72,40
24.72,24.864,69,72,40
24.96,25.2,69,77,40
25.2,25.344,67,77,40
25.44,25.68,67,72,40
25.68,25.824,74,72,40
25.92,26.16,74,72,40
26.16,26.304,72,72,40
26.4,26.64,72,77,40
26.64,26.784,71,77,40
26.88,27.12,71,72,40
27.12,27.264,69,72,40
27.36,27.6,69,72,40
27.6,27.744,67,72,40
27.84,28.32,67,72,40
28.8,29.04,76,65,40
29.04,29.28,77,65,40
29.28,29.52,78,65,40
29.52,29.76,79,65,40
29.76,30.0,81,65,40
30.0,30.24,79,65,40
30.24,30.48,77,65,40
30.48,30.72,74,65,40
30.72,30.864,72,78,40
31.2,31.344,72,65,40
31.68,31.824,72,65,40
32.16,32.304,77,78,40
32.64,32.784,77,65,40
33.12,33.264,77,65,40
33.6,34.08,65,72,40
34.56,34.776,59,97,40
34.8,35.016,55,97,40
35.04,35.256,60,114,40
35.28,35.496,55,114,40
35.52,35.736,62,97,40
35.76,35.976,55,97,40
36.0,36.216,64,97,40
36.24,36.456,55,97,40
36.48,36.912,65,103,40
37.44,37.68,71,65,40
37.68,37.92,67,65,40
37.92,38.16,72,71,40
38.16,38.4,67,71,40
38.4,38.64,74,65,40
38.64,38.88,67,65,40
38.88,39.12,76,65,40
39.12,39.36,67,65,40
39.36,39.6,79,71,40
39.6,39.84,78,71,40
39.84,40.08,77,65,40
40.08,40.32,74,65,40
40.32,40.56,76,65,40
40.56,40.8,72,65,40
40.8,41.184,64,114,40
41.28,41.664,80,113,40
41.76,42.144,81,113,40
42.24,42.624,62,114,40
42.72,43.104,78,113,40
43.2,43.584,79,113,40
43.68,44.064,69,114,40
44.16,44.544,85,113,40
44.64,45.024,86,113,40
45.12,46.8,62,104,40
46.8,46.944,64,72,40
47.04,47.184,66,72,40
47.28,47.424,67,72,40
47.52,47.664,69,72,40
47.76,47.904,71,72,40
48.0,48.144,72,72,40
48.24,48.384,74,72,40
48.48,48.624,76,72,40
48.72,48.864,78,72,40
48.96,49.104,79,72,40
49.2,49.344,81,72,40
49.44,49.68,83,72,40
49.68,49.92,84,72,40
49.92,50.16,85,72,40
50.16,50.4,86,72,40
50.4,50.64,84,72,40
50.64,50.88,81,72,40
50.88,51.264,79,72,40
51.84,52.08,67,72,40
52.08,52.224,74,72,40
52.32,52.56,74,77,40
52.56,52.704,72,93,40
52.8,53.04,72,72,40
53.04,53.184,71,72,40
53.28,53.52,71,72,40
53.52,53.664,69,72,40
53.76,54.0,69,77,40
54.0,54.144,67,77,40
54.24,54.48,67,72,40
54.48,54.624,74,72,40
54.72,54.96,74,72,40
54.96,55.104,72,72,40
55.2,55.44,72,77,40
55.44,55.584,71,77,40
55.68,55.92,71,72,40
55.92,56.064,69,72,40
56.16,56.4,69,72,40
56.4,56.544,67,72,40
56.64,57.12,67,72,40
57.6,57.84,66,86,40
57.84,58.08,67,86,40
58.08,58.32,68,95,40
58.32,58.56,69,95,40
58.56,58.8,70,86,40
58.8,59.04,69,86,40
59.04,59.28,67,86,40
59.28,59.52,64,86,40
59.52,59.664,62,95,40
60.0,60.144,62,86,40
60.48,60.624,62,86,40
60.96,61.104,67,95,40
61.44,61.584,67,86,40
61.92,62.064,67,86,40
62.4,62.784,58,95,40
63.36,63.6,72,79,40
63.6,63.84,74,79,40
63.84,64.08,75,79,40
64.08,64.32,76,79,40
64.32,64.56,77,79,40
64.56,64.8,78,79,40
64.8,65.04,79,79,40
65.04,65.28,80,79,40
65.28,65.424,81,87,40
65.76,65.904,81,79,40
66.24,66.384,81,79,40
66.72,66.864,73,87,40
67.2,67.344,73,79,40
67.68,67.824,73,79,40
68.16,69.312,72,79,40
69.6,70.08,72,79,40
70.08,70.368,71,72,40
70.56,71.04,67,72,40
71.04,72.192,70,72,40
72.48,72.96,70,87,40
72.96,73.248,69,72,40
73.44,73.68,77,72,40
73.68,73.92,79,72,40
73.92,74.16,80,79,40
74.16,74.4,81,79,40
74.4,74.64,82,72,40
74.64,74.88,81,72,40
74.88,75.12,79,72,40
75.12,75.36,76,72,40
75.36,75.6,76,79,40
75.6,75.84,77,79,40
75.84,76.08,79,72,40
76.08,76.32,77,72,40
76.32,76.56,76,72,40
76.56,76.8,73,72,40
76.8,77.04,73,79,40
77.04,77.28,74,79,40
77.28,77.52,76,72,40
77.52,77.76,74,72,40
77.76,78.0,72,72,40
78.0,78.24,69,72,40
78.24,79.392,67,72,40
79.68,80.832,67,72,40
81.12,81.6,67,79,40
81.6,81.84,79,72,40
82.08,82.464,79,72,40
82.56,84.24,79,72,40
84.24,84.48,78,72,40
84.48,84.72,79,72,40
84.72,84.96,77,72,40
84.96,85.2,76,86,40
85.2,85.44,77,86,40
85.44,85.68,78,95,40
85.68,85.92,79,95,40
85.92,86.16,81,86,40
86.16,86.4,79,86,40
86.4,86.64,77,86,40
86.64,86.88,74,86,40
86.88,87.024,72,77,40
87.36,87.504,72,86,40
87.84,87.984,72,86,40
88.32,88.464,77,95,40
88.8,88.944,77,86,40
89.28,89.424,77,86,40
89.76,90.144,65,86,40
90.72,90.912,59,86,40
90.96,91.152,55,86,40
91.2,91.392,60,94,40
91.44,91.632,55,94,40
91.68,91.872,62,86,40
91.92,92.112,55,86,40
92.16,92.352,64,86,40
92.4,92.592,55,86,40
92.64,93.024,65,104,40
93.6,93.84,71,65,40
93.84,94.08,67,65,40
94.08,94.32,72,65,40
94.32,94.56,67,65,40
94.56,94.8,74,65,40
94.8,95.04,67,65,40
95.04,95.28,76,65,40
95.28,95.52,67,65,40
95.52,95.76,79,72,40
95.76,96.0,78,72,40
96.0,96.24,77,72,40
96.24,96.48,74,72,40
96.48,96.72,76,72,40
96.72,96.96,72,72,40
96.96,97.344,60,114,40
97.44,97.824,76,104,40
97.92,98.304,77,104,40
98.4,98.784,69,114,40
98.88,99.264,85,104,40
99.36,99.744,86,104,40
99.84,100.224,67,114,40
100.32,100.704,83,104,40
100.8,101.184,84,104,40
101.28,102.36,62,114,40
102.72,102.912,62,72,40
102.96,103.152,64,72,40
103.2,103.344,66,72,40
103.44,103.584,67,72,40
103.68,103.824,69,72,40
103.92,104.064,71,72,40
104.16,104.304,72,72,40
104.4,104.544,74,72,40
104.64,104.784,76,72,40
104.88,105.024,77,72,40
105.12,105.264,79,72,40
105.36,105.504,81,72,40
105.6,105.84,79,72,40
105.84,106.08,78,72,40
106.08,106.32,77,72,40
106.32,106.56,76,72,40
106.56,106.8,77,72,40
106.8,107.04,74,72,40
107.04,107.424,72,72,40
108.0,108.24,72,72,40
108.24,108.384,79,65,40
108.48,108.72,79,79,40
108.72,108.864,77,72,40
108.96,109.2,77,72,40
109.2,109.344,76,65,40
109.44,109.68,76,72,40
109.68,109.824,74,65,40
109.92,110.16,74,79,40
110.16,110.304,72,72,40
110.4,110.64,72,72,40
110.64,110.784,79,65,40
110.88,111.12,79,72,40
111.12,111.264,77,65,40
111.36,111.6,77,79,40
111.6,111.744,76,72,40
111.84,112.08,76,72,40
112.08,112.224,74,65,40
112.32,112.56,74,72,40
112.56,112.704,72,65,40
112.8,113.568,72,72,40
113.76,114.144,79,89,40
114.24,115.008,81,98,40
115.2,115.584,83,89,40
115.68,116.448,84,98,40
116.64,117.024,79,89,40
117.12,117.504,81,98,40
117.6,117.984,81,89,40
118.08,118.144,84,89,40
118.16,118.224,83,89,40
118.24,118.304,84,89,40
118.32,118.384,83,89,40
118.4,118.464,81,89,40
118.48,118.544,83,89,40
118.56,118.944,84,98,40
119.52,119.76,66,86,40
119.76,120.0,67,86,40
120.0,120.24,68,95,40
120.24,120.48,69,95,40
120.48,120.72,70,86,40
120.72,120.96,69,86,40
120.96,121.2,67,86,40
121.2,121.44,64,86,40
121.44,121.584,62,95,40
121.92,122.064,62,86,40
122.4,122.544,62,86,40
122.88,123.024,67,95,40
123.36,123.504,67,86,40
123.84,123.984,67,86,40
124.32,124.704,58,95,40
125.28,125.52,72,79,40
125.52,125.76,74,79,40
125.76,126.0,75,79,40
126.0,126.24,76,79,40
126.24,126.48,77,79,40
126.48,126.72,78,79,40
126.72,126.96,79,79,40
126.96,127.2,80,79,40
127.2,127.344,81,87,40
127.68,127.824,81,79,40
128.16,128.304,81,79,40
128.64,128.784,73,87,40
129.12,129.264,73,79,40
129.6,129.744,73,79,40
130.08,131.232,72,79,40
131.52,132.0,72,79,40
132.0,132.288,71,72,40
132.48,132.96,67,72,40
132.96,134.112,70,72,40
134.4,134.88,70,87,40
134.88,135.168,69,72,40
135.36,135.6,77,72,40
135.6,135.84,79,72,40
135.84,136.08,80,79,40
136.08,136.32,81,79,40
136.32,136.56,82,72,40
136.56,136.8,81,72,40
136.8,137.04,79,72,40
137.04,137.28,76,72,40
137.28,137.52,76,79,40
137.52,137.76,77,79,40
137.76,138.0,79,72,40
138.0,138.24,77,72,40
138.24,138.48,76,72,40
138.48,138.72,73,72,40
138.72,138.96,73,79,40
138.96,139.2,74,79,40
139.2,139.44,76,72,40
139.44,139.68,74,72,40
139.68,139.92,72,72,40
139.92,140.16,69,72,40
140.16,141.312,67,72,40
141.6,142.752,67,72,40
143.04,143.52,67,79,40
143.52,143.76,79,72,40
144.0,144.384,79,72,40
144.48,146.16,79,72,40
146.16,146.4,78,72,40
146.4,146.64,79,72,40
146.64,146.88,77,72,40
146.88,147.12,76,86,40
147.12,147.36,77,86,40
147.36,147.6,78,95,40
147.6,147.84,79,95,40
147.84,148.08,81,86,40
148.08,148.32,79,86,40
148.32,148.56,77,86,40
148.56,148.8,74,86,40
148.8,148.944,72,77,40
149.28,149.424,72,86,40
149.76,149.904,72,86,40
150.24,150.384,77,95,40
150.72,150.864,77,86,40
151.2,151.344,77,86,40
151.68,152.064,65,86,40
152.64,152.832,59,86,40
152.88,153.072,55,86,40
153.12,153.312,60,94,40
153.36,153.552,55,94,40
153.6,153.792,62,86,40
153.84,154.032,55,86,40
154.08,154.272,64,86,40
154.32,154.512,55,86,40
154.56,154.944,65,104,40
155.52,155.76,71,65,40
155.76,156.0,67,65,40
156.0,156.24,72,65,40
156.24,156.48,67,65,40
156.48,156.72,74,65,40
156.72,156.96,67,65,40
156.96,157.2,76,65,40
157.2,157.44,67,65,40
157.44,157.68,79,72,40
157.68,157.92,78,72,40
157.92,158.16,77,72,40
158.16,158.4,74,72,40
158.4,158.64,76,72,40
158.64,158.88,72,72,40
158.88,159.264,60,114,40
159.36,159.744,76,104,40
159.84,160.224,77,104,40
160.32,160.704,69,114,40
160.8,161.184,85,104,40
161.28,161.664,86,104,40
161.76,162.144,67,114,40
162.24,162.624,83,104,40
162.72,163.104,84,104,40
163.2,164.28,62,114,40
164.64,164.832,62,72,40
164.88,165.072,64,72,40
165.12,165.264,66,72,40
165.36,165.504,67,72,40
165.6,165.744,69,72,40
165.84,165.984,71,72,40
166.08,166.224,72,72,40
166.32,166.464,74,72,40
166.56,166.704,76,72,40
166.8,166.944,77,72,40
167.04,167.184,79,72,40
167.28,167.424,81,72,40
167.52,167.76,79,72,40
167.76,168.0,78,72,40
168.0,168.24,77,72,40
168.24,168.48,76,72,40
168.48,168.72,77,72,40
168.72,168.96,74,72,40
168.96,169.344,72,72,40
169.92,170.16,72,72,40
170.16,170.304,79,65,40
170.4,170.64,79,79,40
170.64,170.784,77,72,40
170.88,171.12,77,72,40
171.12,171.264,76,65,40
171.36,171.6,76,72,40
171.6,171.744,74,65,40
171.84,172.08,74,79,40
172.08,172.224,72,72,40
172.32,172.56,72,72,40
172.56,172.704,79,65,40
172.8,173.04,79,72,40
173.04,173.184,77,65,40
173.28,173.52,77,79,40
173.52,173.664,76,72,40
173.76,174.0,76,72,40
174.0,174.144,74,65,40
174.24,174.48,74,72,40
174.48,174.624,72,65,40
174.72,175.488,72,72,40
175.68,176.064,79,89,40
176.16,176.928,81,98,40
177.12,177.504,83,89,40
177.6,178.368,84,98,40
178.56,178.944,79,89,40
179.04,179.424,81,98,40
179.52,179.904,81,89,40
180.0,180.064,84,89,40
180.08,180.144,83,89,40
180.16,180.224,84,89,40
180.24,180.304,83,89,40
180.32,180.384,81,89,40
180.4,180.464,83,89,40
180.48,180.864,84,98,40
181.44,181.98546,67,68,40
181.98546,182.4299,72,68,40
182.87434,183.31879,75,68,40
183.31879,183.76323,79,68,40
184.20767,184.65211,84,113,40
184.65211,185.541,87,113,40
185.541,185.76323,86,113,40
185.76323,185.98544,84,113,40
185.98544,186.341,83,113,40
186.87434,187.31879,86,75,40
187.31879,187.76323,77,68,40
188.20767,188.65211,80,68,40
188.65211,189.09656,71,68,40
189.541,189.98544,59,85,40
189.98544,190.87433,68,102,40
190.87433,191.09656,67,94,40
191.09656,191.31877,65,94,40
191.31877,191.67433,63,94,40
192.20767,192.56322,75,94,40
192.65211,193.541,67,94,40
193.541,193.98544,68,94,40
193.98544,194.87433,73,94,40
194.87433,195.09656,72,94,40
195.09656,195.31877,68,94,40
195.31877,195.67433,67,94,40
195.76321,196.11877,67,94,40
196.20766,196.6521,68,94,40
196.6521,197.09656,73,94,40
197.09656,197.31877,75,94,40
197.31877,197.541,73,94,40
197.541,197.76321,72,94,40
197.76321,197.98544,68,94,40
197.98544,198.34099,67,113,40
198.42989,198.78543,70,113,40
198.87433,199.22987,75,113,40
199.31877,199.67433,79,113,40
199.76321,200.11877,82,113,40
200.20766,200.56322,87,113,40
200.6521,201.31877,82,113,40
201.31877,201.54099,81,113,40
201.54099,201.76321,80,113,40
201.76321,201.98543,77,113,40
201.98543,202.42987,75,113,40
202.87433,203.41977,67,68,40
203.41977,203.86423,72,68,40
204.30867,204.75311,75,68,40
204.75311,205.19756,79,68,40
205.642,206.08644,84,113,40
206.08644,206.97533,87,113,40
206.97533,207.19756,86,113,40
207.19756,207.41977,84,113,40
207.41977,207.77533,83,113,40
208.30865,208.7531,86,75,40
208.7531,209.19756,77,68,40
209.642,210.08644,80,68,40
210.08644,210.53088,71,68,40
210.97533,211.41977,59,85,40
211.41977,212.30865,68,102,40
212.30865,212.53088,67,94,40
212.53088,212.7531,65,94,40
212.7531,213.10866,63,94,40
213.64198,213.99754,75,94,40
214.08643,214.97533,67,94,40
214.97533,215.41977,68,94,40
215.41977,216.30865,73,94,40
216.30865,216.53087,72,94,40
216.53087,216.7531,68,94,40
216.7531,217.10866,67,94,40
217.19754,217.5531,67,94,40
217.64198,218.08643,68,94,40
218.08643,218.53087,73,94,40
218.53087,218.7531,75,94,40
218.7531,218.97531,73,94,40
218.97531,219.19754,72,94,40
219.19754,219.41975,68,94,40
219.41975,219.77531,67,113,40
219.8642,220.21976,70,113,40
220.30865,220.6642,75,113,40
220.7531,221.10864,79,113,40
221.19754,221.55309,82,113,40
221.64198,221.99753,87,113,40
222.08643,222.7531,82,113,40
222.7531,222.97531,81,113,40
222.97531,223.19754,80,113,40
223.19754,223.41975,77,113,40
223.41975,223.8642,75,113,40
224.30864,224.75308,82,77,40
224.75308,225.19753,76,77,40
225.64198,226.08643,79,77,40
226.08643,226.53087,70,77,40
226.97531,227.41975,64,101,40
227.41975,228.30864,73,104,40
228.30864,228.53087,72,104,40
228.53087,228.75308,70,104,40
228.75308,229.10864,68,104,40
229.64197,230.08641,84,62,40
230.08641,230.53085,78,69,40
230.97531,231.41975,81,69,40
231.41975,231.8642,72,69,40
232.30864,232.75308,66,114,40
232.75308,233.64197,75,114,40
233.64197,233.8642,74,114,40
233.8642,234.08641,72,114,40
234.08641,234.44197,71,114,40
234.9753,235.33086,79,86,40
235.41974,235.64197,78,72,40
235.64197,235.86418,79,73,40
235.86418,236.08641,80,75,40
236.08641,236.30864,79,76,40
236.30864,236.4864,75,77,40
236.53085,236.70863,72,78,40
236.75308,237.10863,71,80,40
237.19753,237.55307,74,82,40
237.64197,237.99751,79,85,40
238.08641,238.30862,80,87,40
238.30862,238.53085,79,89,40
238.53085,238.75307,78,90,40
238.75307,238.9753,79,91,40
238.9753,239.15308,75,93,40
239.19753,239.37529,72,94,40
239.41974,239.7753,71,95,40
239.86418,240.21974,74,98,40
241.19751,241.55307,75,94,40
241.64195,241.99751,79,94,40
242.53085,242.8864,84,94,40
242.9753,243.33084,87,94,40
243.86418,244.21974,78,113,40
244.30862,244.66418,90,113,40
245.19751,245.55307,91,113,40
245.64195,245.99751,86,113,40
246.53084,246.8864,89,94,40
246.97528,247.33084,83,94,40
247.86418,248.21973,86,94,40
248.30862,248.66417,77,94,40
249.19751,249.55307,71,94,40
249.64195,249.99751,83,94,40
250.53084,250.8864,70,94,40
250.97528,251.33084,82,94,40
251.41972,251.86417,82,67,40
251.86417,252.21973,80,67,40
252.30861,252.66417,79,67,40
252.75307,253.19751,79,67,40
253.19751,253.55305,77,67,40
253.64195,253.9975,78,67,40
254.0864,254.53084,78,80,40
254.53084,254.7975,79,67,40
254.97528,255.24194,71,67,40
255.41972,255.77528,72,67,40
256.30862,256.75305,82,77,40
256.75305,257.1975,76,77,40
257.64194,258.0864,79,77,40
258.0864,258.53082,70,77,40
258.97528,259.4197,64,101,40
259.4197,260.3086,73,104,40
260.3086,260.53082,72,104,40
260.53082,260.75305,70,104,40
260.75305,261.1086,68,104,40
261.64194,262.0864,84,62,40
262.0864,262.53082,78,69,40
262.97528,263.4197,81,69,40
263.4197,263.86417,72,69,40
264.3086,264.75305,66,114,40
264.75305,265.64194,75,114,40
265.64194,265.86417,74,114,40
265.86417,266.08636,72,114,40
266.08636,266.44193,71,114,40
266.97528,267.3308,79,86,40
267.4197,267.64194,78,72,40
267.64194,267.86417,79,73,40
267.86417,268.08636,80,75,40
268.08636,268.3086,79,76,40
268.3086,268.4864,75,77,40
268.53082,268.7086,72,78,40
268.75305,269.1086,71,80,40
269.19748,269.55304,74,82,40
269.64194,269.9975,79,85,40
270.08636,270.3086,80,87,40
270.3086,270.53082,79,89,40
270.53082,270.75305,78,90,40
270.75305,270.97525,79,91,40
270.97525,271.15305,75,93,40
271.19748,271.37527,72,94,40
271.4197,271.77527,71,95,40
271.86417,272.2197,74,98,40
273.19748,273.55304,75,94,40
273.64194,273.9975,79,94,40
274.53082,274.88638,84,94,40
274.97525,275.3308,87,94,40
275.86414,276.2197,78,113,40
276.3086,276.66415,90,113,40
277.19748,277.55304,91,113,40
277.64194,277.99747,86,113,40
278.53082,278.88635,89,94,40
278.97525,279.3308,83,94,40
279.86414,280.2197,86,94,40
280.3086,280.66415,77,94,40
281.19748,281.55304,71,94,40
281.6419,281.99747,83,94,40
282.53082,282.88635,70,94,40
282.97525,283.3308,82,94,40
283.4197,283.86414,82,67,40
283.86414,284.2197,80,67,40
284.3086,284.66415,79,67,40
284.75302,285.19748,79,67,40
285.19748,285.55304,77,67,40
285.6419,285.99747,78,67,40
286.08636,286.5308,78,80,40
286.5308,286.7975,79,67,40
286.97525,287.2419,71,67,40
287.41968,287.77524,72,67,40
288.3086,288.54858,76,58,40
288.54858,288.78857,77,58,40
288.78857,289.0286,78,58,40
289.0286,289.2686,79,58,40
289.2686,289.50858,81,58,40
289.50858,289.74857,79,58,40
289.74857,289.9886,77,58,40
289.9886,290.22858,74,58,40
290.22858,290.3726,72,63,40
290.7086,290.85257,72,58,40
291.18857,291.33258,72,64,40
291.66858,291.8126,77,63,40
292.1486,292.29257,77,58,40
292.62857,292.77258,77,64,40
293.10858,293.5886,65,58,40
294.06857,294.28458,59,97,40
294.3086,294.52457,55,97,40
294.54858,294.7646,60,114,40
294.78857,295.00458,55,114,40
295.0286,295.24457,62,97,40
295.2686,295.4846,55,97,40
295.50858,295.72458,64,97,40
295.74857,295.96457,55,97,40
295.9886,296.4206,65,103,40
296.94858,297.18857,71,58,40
297.18857,297.4286,67,58,40
297.4286,297.66858,72,63,40
297.66858,297.90857,67,63,40
297.90857,298.1486,74,58,40
298.1486,298.38858,67,58,40
298.38858,298.62857,76,58,40
298.62857,298.8686,67,58,40
298.8686,299.10858,79,63,40
299.10858,299.34857,78,63,40
299.34857,299.5886,77,58,40
299.5886,299.82858,74,58,40
299.82858,300.06857,76,72,40
300.06857,300.3086,72,72,40
300.3086,300.69257,64,114,40
300.78857,301.17258,80,114,40
301.2686,301.6526,81,114,40
301.74857,302.13257,62,114,40
302.22858,302.61258,78,114,40
302.7086,303.0926,79,114,40
303.18857,303.57257,69,114,40
303.66858,304.05258,85,114,40
304.1486,304.5326,86,114,40
304.62857,306.3086,62,113,40
306.3086,306.45258,64,58,40
306.54858,306.69257,66,58,40
306.78857,306.9326,67,58,40
307.0286,307.17258,69,58,40
307.2686,307.41257,71,58,40
307.50858,307.6526,72,58,40
307.74857,307.89258,74,58,40
307.9886,308.13257,76,58,40
308.22858,308.3726,78,58,40
308.46857,308.61258,79,58,40
308.7086,308.85257,81,58,40
308.94858,309.18857,83,72,40
309.18857,309.4286,84,94,40
309.4286,309.66858,85,94,40
309.66858,309.90857,86,94,40
309.90857,310.1486,84,94,40
310.1486,310.38858,81,72,40
310.38858,310.77258,79,72,40
311.34857,311.5886,67,79,40
311.5886,311.7566,74,72,40
311.82858,312.06857,74,85,40
312.06857,312.23657,72,77,40
312.3086,312.54858,72,79,40
312.54858,312.71658,71,72,40
312.78857,313.0286,71,79,40
313.0286,313.1966,69,72,40
313.2686,313.50858,69,85,40
313.50858,313.67657,67,77,40
313.74857,313.9886,67,79,40
313.9886,314.1566,74,72,40
314.22858,314.46857,74,79,40
314.46857,314.63657,72,72,40
314.7086,314.94858,72,85,40
314.94858,315.11658,71,77,40
315.18857,315.4286,71,79,40
315.4286,315.5966,69,72,40
315.66858,315.90857,69,79,40
315.90857,316.07657,67,72,40
316.1486,316.5326,67,72,40
317.10858,317.34857,66,86,40
317.34857,317.5886,67,86,40
317.5886,317.82858,68,95,40
317.82858,318.06857,69,95,40
318.06857,318.3086,70,86,40
318.3086,318.54858,69,86,40
318.54858,318.78857,67,86,40
318.78857,319.0286,64,86,40
319.0286,319.17258,62,95,40
319.50858,319.6526,62,86,40
319.9886,320.13257,62,86,40
320.46857,320.61258,67,95,40
320.94858,321.0926,67,86,40
321.4286,321.57257,67,86,40
321.90857,322.29257,58,95,40
322.8686,323.10858,72,79,40
323.10858,323.34857,74,79,40
323.34857,323.5886,75,79,40
323.5886,323.82858,76,79,40
323.82858,324.06857,77,79,40
324.06857,324.3086,78,79,40
324.3086,324.54858,79,79,40
324.54858,324.78857,80,79,40
324.78857,324.9326,81,87,40
325.2686,325.41257,81,79,40
325.74857,325.89258,81,79,40
326.22858,326.3726,73,87,40
326.7086,326.85257,73,79,40
327.18857,327.33258,73,79,40
327.66858,328.8206,72,79,40
329.10858,329.5886,72,79,40
329.5886,330.06857,71,72,40
330.06857,330.54858,67,72,40
330.54858,331.7006,70,72,40
331.9886,332.46857,70,87,40
332.46857,332.85257,69,72,40
332.94858,333.18857,77,72,40
333.18857,333.4286,79,72,40
333.4286,333.66858,80,79,40
333.66858,333.90857,81,79,40
333.90857,334.1486,82,72,40
334.1486,334.38858,81,72,40
334.38858,334.62857,79,72,40
334.62857,334.8686,76,72,40
334.8686,335.10858,76,87,40
335.10858,335.34857,77,79,40
335.34857,335.5886,79,72,40
335.5886,335.82858,77,72,40
335.82858,336.06857,76,72,40
336.06857,336.3086,73,72,40
336.3086,336.54858,73,79,40
336.54858,336.78857,74,79,40
336.78857,337.0286,76,72,40
337.0286,337.2686,74,72,40
337.2686,337.50858,72,72,40
337.50858,337.74857,69,72,40
337.74857,338.90057,67,72,40
339.18857,340.34058,67,72,40
340.62857,341.01257,67,79,40
341.10858,341.49258,79,72,40
341.5886,341.9726,79,72,40
342.06857,343.74857,79,72,40
343.74857,343.9886,78,72,40
343.9886,344.22858,79,72,40
344.22858,344.46857,77,72,40
344.46857,344.7086,76,72,40
344.7086,344.94858,77,72,40
344.94858,345.18857,78,87,40
345.18857,345.4286,79,79,40
345.4286,345.66858,81,72,40
345.66858,345.90857,79,72,40
345.90857,346.1486,77,72,40
346.1486,346.38858,74,72,40
346.38858,346.5326,72,79,40
346.8686,347.01257,72,72,40
347.34857,347.49258,72,72,40
347.82858,347.9726,77,96,40
348.3086,348.45258,77,72,40
348.78857,348.9326,77,72,40
349.2686,349.6526,65,79,40
350.22858,350.4206,59,86,40
350.46857,350.66058,55,86,40
350.7086,350.90057,60,94,40
350.94858,351.1406,55,94,40
351.18857,351.38058,62,86,40
351.4286,351.62057,55,86,40
351.66858,351.86057,64,86,40
351.90857,352.1006,55,86,40
352.1486,352.5326,65,104,40
353.10858,353.34857,71,58,40
353.34857,353.5886,67,58,40
353.5886,353.82858,72,58,40
353.82858,354.06857,67,58,40
354.06857,354.3086,74,58,40
354.3086,354.54858,67,58,40
354.54858,354.78857,76,58,40
354.78857,355.0286,67,58,40
355.0286,355.2686,79,58,40
355.2686,355.50858,78,58,40
355.50858,355.74857,77,58,40
355.74857,355.9886,74,58,40
355.9886,356.22858,76,58,40
356.22858,356.46857,72,58,40
356.46857,356.85257,60,113,40
356.94858,357.33258,76,113,40
357.4286,357.8126,77,113,40
357.90857,358.29257,69,113,40
358.38858,358.77258,85,113,40
358.8686,359.2526,86,113,40
359.34857,359.73257,67,113,40
359.82858,360.2126,83,113,40
360.3086,360.69257,84,113,40
360.78857,362.4206,62,113,40
362.46857,362.66058,64,72,40
362.7086,362.85257,66,72,40
362.94858,363.0926,67,72,40
363.18857,363.33258,69,72,40
363.4286,363.57257,71,72,40
363.66858,363.8126,72,72,40
363.90857,364.05258,74,72,40
364.1486,364.29257,76,72,40
364.38858,364.5326,77,72,40
364.62857,364.77258,79,72,40
364.8686,365.01257,81,72,40
365.10858,365.34857,79,72,40
365.34857,365.5886,78,72,40
365.5886,365.82858,77,72,40
365.82858,366.06857,76,72,40
366.06857,366.3086,77,72,40
366.3086,366.54858,74,72,40
366.54858,366.9326,72,72,40
367.50858,367.7006,72,72,40
367.74857,367.94058,79,72,40
367.9886,368.22858,79,72,40
368.22858,368.3726,77,72,40
368.46857,368.7086,77,72,40
368.7086,368.85257,76,72,40
368.94858,369.18857,76,72,40
369.18857,369.33258,74,72,40
369.4286,369.66858,74,72,40
369.66858,369.8126,72,72,40
369.90857,370.1486,72,72,40
370.1486,370.29257,79,72,40
370.38858,370.62857,79,72,40
370.62857,370.77258,77,72,40
370.8686,371.10858,77,72,40
371.10858,371.2526,76,72,40
371.34857,371.5886,76,72,40
371.5886,371.73257,74,72,40
371.82858,372.06857,74,72,40
372.06857,372.2126,72,72,40
372.3086,373.07657,72,72,40
373.2686,373.6526,79,94,40
373.74857,374.51657,81,94,40
374.7086,375.0926,83,94,40
375.18857,375.95657,84,94,40
376.1486,376.5326,79,94,40
376.62857,377.01257,81,94,40
377.10858,377.52597,81,94,40
377.6303,377.7065,84,94,40
377.72556,377.80176,83,94,40
377.8208,377.89697,84,94,40
377.91605,377.99222,83,94,40
378.01126,378.08746,81,94,40
378.1065,378.1827,83,94,40
378.20175,378.64386,84,94,40
1.92,2.064,64,78,40
2.4,2.544,64,65,40
2.88,3.024,64,65,40
3.36,3.504,62,78,40
3.84,3.984,62,65,40
4.32,4.464,62,65,40
4.8,5.28,62,72,40
5.76,5.976,59,97,40
6.0,6.216,55,97,40
6.24,6.456,60,114,40
6.48,6.696,55,114,40
6.72,6.936,62,97,40
6.96,7.176,55,97,40
7.2,7.416,64,97,40
7.44,7.656,55,97,40
7.68,8.112,62,103,40
8.64,9.024,65,72,40
9.12,9.504,64,72,40
9.6,9.984,62,72,40
10.08,10.464,60,72,40
10.56,11.52,59,65,40
11.52,12.0,60,65,40
12.0,12.24,76,95,40
12.24,12.48,75,95,40
12.48,12.72,74,86,40
12.72,12.96,71,86,40
12.96,13.2,72,86,40
13.2,13.44,69,86,40
13.92,14.16,69,86,40
14.16,14.4,72,86,40
14.4,14.88,71,86,40
15.36,15.6,76,86,40
15.6,15.84,79,86,40
15.84,16.32,78,86,40
16.32,17.76,60,104,40
17.76,18.048,59,72,40
19.2,19.488,67,72,40
20.64,20.88,79,72,40
20.88,21.12,81,72,40
21.12,21.36,82,72,40
21.36,21.6,83,72,40
21.6,21.84,81,72,40
21.84,22.08,78,72,40
22.08,22.464,79,72,40
23.04,23.328,62,72,40
23.52,23.808,64,77,40
24.48,24.768,60,72,40
24.96,25.248,59,77,40
25.92,26.208,62,72,40
26.4,26.688,64,77,40
27.36,27.648,60,72,40
27.84,28.32,59,72,40
30.72,30.864,64,78,40
31.2,31.344,64,65,40
31.68,31.824,64,65,40
32.16,32.304,62,78,40
32.64,32.784,62,65,40
33.12,33.264,62,65,40
33.6,34.08,62,72,40
34.56,34.776,59,97,40
34.8,35.016,55,97,40
35.04,35.256,60,114,40
35.28,35.496,55,114,40
35.52,35.736,62,97,40
35.76,35.976,55,97,40
36.0,36.216,64,97,40
36.24,36.456,55,97,40
36.48,36.912,62,103,40
37.44,37.824,65,72,40
37.92,38.304,64,72,40
38.4,38.784,62,72,40
38.88,39.264,60,72,40
39.36,40.32,59,65,40
40.32,40.8,60,65,40
40.8,41.04,76,95,40
41.04,41.28,75,95,40
41.28,41.52,74,86,40
41.52,41.76,71,86,40
41.76,42.0,72,86,40
42.0,42.24,69,86,40
42.72,42.96,69,86,40
42.96,43.2,72,86,40
43.2,43.68,71,86,40
44.16,44.4,76,86,40
44.4,44.64,79,86,40
44.64,45.12,78,86,40
45.12,46.56,60,104,40
46.56,46.848,59,72,40
48.0,48.288,67,72,40
49.44,49.68,79,72,40
49.68,49.92,81,72,40
49.92,50.16,82,72,40
50.16,50.4,83,72,40
50.4,50.64,81,72,40
50.64,50.88,78,72,40
50.88,51.264,79,72,40
51.84,52.128,62,72,40
52.32,52.608,64,77,40
53.28,53.568,60,72,40
53.76,54.048,59,77,40
54.72,55.008,62,72,40
55.2,55.488,64,77,40
56.16,56.448,60,72,40
56.64,57.12,59,72,40
57.6,57.84,66,86,40
57.84,58.08,67,86,40
58.08,58.32,68,95,40
58.32,58.56,69,95,40
58.56,58.8,70,86,40
58.8,59.04,69,86,40
59.04,59.28,67,86,40
59.28,59.52,64,86,40
59.52,59.664,62,95,40
60.0,60.144,62,86,40
60.48,60.624,62,86,40
60.96,61.104,67,95,40
61.44,61.584,67,86,40
61.92,62.064,67,86,40
62.4,63.84,58,86,40
63.84,64.992,74,65,40
65.28,65.424,74,72,40
65.76,65.904,74,65,40
66.24,66.384,74,65,40
66.72,66.864,67,72,40
67.2,67.344,67,65,40
67.68,67.824,67,65,40
68.16,68.928,66,65,40
69.12,69.36,69,72,40
69.36,69.6,66,72,40
69.6,69.984,67,72,40
71.04,71.808,64,72,40
72.0,72.24,67,72,40
72.24,72.48,64,72,40
72.48,72.864,65,72,40
73.92,74.88,72,58,40
74.88,75.36,70,58,40
75.36,76.32,69,58,40
76.32,76.8,67,58,40
76.8,77.76,69,58,40
77.76,78.0,57,75,40
78.0,78.24,60,75,40
78.24,78.624,59,79,40
79.2,79.44,62,72,40
79.44,79.68,63,72,40
79.68,79.92,64,79,40
79.92,80.16,65,79,40
80.16,80.4,67,72,40
80.4,80.64,65,72,40
80.64,80.88,64,72,40
80.88,81.12,60,72,40
81.12,81.6,62,72,40
82.08,82.32,74,72,40
82.32,82.56,75,72,40
82.56,82.8,76,79,40
82.8,83.04,77,79,40
83.04,83.28,79,72,40
83.28,83.52,77,72,40
83.52,83.76,76,72,40
83.76,84.0,72,72,40
84.0,84.384,74,72,40
84.96,85.2,72,86,40
85.2,85.44,74,86,40
85.44,85.68,75,95,40
85.68,85.92,76,95,40
85.92,86.16,77,86,40
86.16,86.4,76,86,40
86.4,86.64,74,86,40
86.64,86.88,71,86,40
86.88,87.024,72,77,40
87.36,87.504,64,86,40
87.84,87.984,64,86,40
88.32,88.464,57,95,40
88.8,88.944,57,86,40
89.28,89.424,57,86,40
89.76,90.144,59,86,40
90.72,90.912,59,86,40
90.96,91.152,55,86,40
91.2,91.392,60,94,40
91.44,91.632,55,94,40
91.68,91.872,62,86,40
91.92,92.112,55,86,40
92.16,92.352,64,86,40
92.4,92.592,55,86,40
92.64,93.024,62,104,40
93.6,93.984,65,65,40
94.08,94.464,64,65,40
94.56,94.944,62,65,40
95.04,95.424,60,65,40
95.52,96.48,59,72,40
96.48,96.96,60,72,40
96.96,97.2,72,95,40
97.2,97.44,71,95,40
97.44,97.68,70,86,40
97.68,97.92,67,86,40
97.92,98.16,69,86,40
98.16,98.4,65,86,40
98.88,99.12,76,86,40
99.12,99.36,79,86,40
99.36,99.84,78,86,40
101.28,102.36,60,114,40
102.72,103.104,60,72,40
104.16,104.544,64,72,40
105.6,105.792,76,72,40
105.84,106.032,75,72,40
106.08,106.272,74,72,40
106.32,106.512,72,72,40
106.56,106.752,74,72,40
106.8,106.992,71,72,40
107.04,107.424,72,72,40
108.0,108.384,67,65,40
108.48,108.864,69,72,40
109.44,109.824,65,65,40
109.92,110.304,64,72,40
110.88,111.264,67,65,40
111.36,111.744,69,72,40
112.32,112.704,65,65,40
112.8,113.184,64,72,40
113.76,114.0,60,98,40
114.0,114.144,67,89,40
114.24,114.48,67,107,40
114.48,114.624,65,98,40
114.72,114.96,65,98,40
114.96,115.104,64,89,40
115.2,115.44,64,98,40
115.44,115.584,62,89,40
115.68,115.92,62,107,40
115.92,116.064,60,98,40
116.16,116.4,60,98,40
116.4,116.544,67,89,40
116.64,116.88,67,98,40
116.88,117.024,65,89,40
117.12,117.36,65,107,40
117.36,117.504,64,89,40
117.6,117.84,64,98,40
117.84,117.984,62,89,40
118.08,118.32,62,98,40
118.32,118.464,60,89,40
118.56,118.944,60,98,40
119.52,119.76,66,86,40
119.76,120.0,67,86,40
120.0,120.24,68,95,40
120.24,120.48,69,95,40
120.48,120.72,70,86,40
120.72,120.96,69,86,40
120.96,121.2,67,86,40
121.2,121.44,64,86,40
121.44,121.584,62,95,40
121.92,122.064,62,86,40
122.4,122.544,62,86,40
122.88,123.024,67,95,40
123.36,123.504,67,86,40
123.84,123.984,67,86,40
124.32,125.76,58,86,40
125.76,126.912,74,65,40
127.2,127.344,74,72,40
127.68,127.824,74,65,40
128.16,128.304,74,65,40
128.64,128.784,67,72,40
129.12,129.264,67,65,40
129.6,129.744,67,65,40
130.08,130.848,66,65,40
131.04,131.28,69,72,40
131.28,131.52,66,72,40
131.52,131.904,67,72,40
132.96,133.728,64,72,40
133.92,134.16,67,72,40
134.16,134.4,64,72,40
134.4,134.784,65,72,40
135.84,136.8,72,58,40
136.8,137.28,70,58,40
137.28,138.24,69,58,40
138.24,138.72,67,58,40
138.72,139.68,69,58,40
139.68,139.92,57,75,40
139.92,140.16,60,75,40
140.16,140.544,59,79,40
141.12,141.36,62,72,40
141.36,141.6,63,72,40
141.6,141.84,64,79,40
141.84,142.08,65,79,40
142.08,142.32,67,72,40
142.32,142.56,65,72,40
142.56,142.8,64,72,40
142.8,143.04,60,72,40
143.04,143.52,62,72,40
144.0,144.24,74,72,40
144.24,144.48,75,72,40
144.48,144.72,76,79,40
144.72,144.96,77,79,40
144.96,145.2,79,72,40
145.2,145.44,77,72,40
145.44,145.68,76,72,40
145.68,145.92,72,72,40
145.92,146.304,74,72,40
146.88,147.12,72,86,40
147.12,147.36,74,86,40
147.36,147.6,75,95,40
147.6,147.84,76,95,40
147.84,148.08,77,86,40
148.08,148.32,76,86,40
148.32,148.56,74,86,40
148.56,148.8,71,86,40
148.8,148.944,72,77,40
149.28,149.424,64,86,40
149.76,149.904,64,86,40
150.24,150.384,57,95,40
150.72,150.864,57,86,40
151.2,151.344,57,86,40
151.68,152.064,59,86,40
152.64,152.832,59,86,40
152.88,153.072,55,86,40
153.12,153.312,60,94,40
153.36,153.552,55,94,40
153.6,153.792,62,86,40
153.84,154.032,55,86,40
154.08,154.272,64,86,40
154.32,154.512,55,86,40
154.56,154.944,62,104,40
155.52,155.904,65,65,40
156.0,156.384,64,65,40
156.48,156.864,62,65,40
156.96,157.344,60,65,40
157.44,158.4,59,72,40
158.4,158.88,60,72,40
158.88,159.12,72,95,40
159.12,159.36,71,95,40
159.36,159.6,70,86,40
159.6,159.84,67,86,40
159.84,160.08,69,86,40
160.08,160.32,65,86,40
160.8,161.04,76,86,40
161.04,161.28,79,86,40
161.28,161.76,78,86,40
163.2,164.28,60,114,40
164.64,165.024,60,72,40
166.08,166.464,64,72,40
167.52,167.712,76,72,40
167.76,167.952,75,72,40
168.0,168.192,74,72,40
168.24,168.432,72,72,40
168.48,168.672,74,72,40
168.72,168.912,71,72,40
168.96,169.344,72,72,40
169.92,170.304,67,65,40
170.4,170.784,69,72,40
171.36,171.744,65,65,40
171.84,172.224,64,72,40
172.8,173.184,67,65,40
173.28,173.664,69,72,40
174.24,174.624,65,65,40
174.72,175.104,64,72,40
175.68,175.92,60,98,40
175.92,176.064,67,89,40
176.16,176.4,67,107,40
176.4,176.544,65,98,40
176.64,176.88,65,98,40
176.88,177.024,64,89,40
177.12,177.36,64,98,40
177.36,177.504,62,89,40
177.6,177.84,62,107,40
177.84,177.984,60,98,40
178.08,178.32,60,98,40
178.32,178.464,67,89,40
178.56,178.8,67,98,40
178.8,178.944,65,89,40
179.04,179.28,65,107,40
179.28,179.424,64,89,40
179.52,179.76,64,98,40
179.76,179.904,62,89,40
180.0,180.24,62,98,40
180.24,180.384,60,89,40
180.48,180.864,60,98,40
181.98546,182.16324,67,32,40
182.20767,182.38545,63,32,40
182.4299,182.56323,67,32,40
182.65211,182.78545,67,32,40
182.87434,183.00768,67,32,40
183.09656,183.2299,67,32,40
183.31879,183.49657,67,32,40
183.54102,183.71878,63,32,40
183.76323,183.89656,67,32,40
183.98546,184.11879,67,32,40
184.20767,184.341,67,32,40
184.4299,184.56323,67,32,40
184.65211,184.8299,67,63,40
184.87434,185.05212,63,63,40
185.09656,185.22989,67,63,40
185.31879,185.45212,67,63,40
185.541,185.67433,67,63,40
185.541,185.67433,67,63,40
185.98544,186.16322,67,63,40
186.20767,186.38545,62,63,40
186.4299,186.56323,67,63,40
186.65211,186.78545,67,63,40
186.87434,187.00768,67,63,40
187.09656,187.22989,67,63,40
187.31879,187.49657,71,26,40
187.541,187.71878,67,26,40
187.76323,187.89656,71,26,40
187.98544,188.11877,71,26,40
188.20767,188.341,71,26,40
188.42989,188.56323,71,26,40
188.65211,188.8299,65,26,40
188.87433,189.05211,62,26,40
189.09656,189.22989,65,26,40
189.31879,189.45212,65,26,40
189.541,189.67433,65,26,40
189.76323,189.89656,65,26,40
189.98544,190.16322,62,56,40
190.20767,190.38545,59,56,40
190.42989,190.56322,62,56,40
190.65211,190.78545,62,56,40
190.87433,191.00766,62,56,40
191.09656,191.22989,62,56,40
191.31877,191.49655,60,56,40
191.541,191.71878,63,74,40
191.76323,191.941,62,74,40
191.98544,192.16322,63,74,40
192.20767,192.38544,65,74,40
192.42989,192.60767,63,74,40
192.65211,192.68173,65,50,40
192.68915,192.71878,63,50,40
192.72618,192.75581,65,50,40
192.76321,192.79285,63,50,40
192.80026,192.8299,65,50,40
192.8373,192.86693,63,50,40
192.87433,193.05211,62,50,40
193.09656,193.27434,63,50,40
193.31877,193.49655,63,50,40
193.541,193.71878,63,50,40
193.76321,193.941,63,50,40
193.98544,194.01508,65,50,40
194.02248,194.05211,63,50,40
194.05951,194.08914,65,50,40
194.09656,194.12619,63,50,40
194.13359,194.16322,65,50,40
194.17062,194.20026,63,50,40
194.20766,194.38544,62,50,40
194.42989,194.60767,63,50,40
194.65211,194.82988,63,50,40
194.87433,195.05211,63,50,40
195.09656,195.27432,63,50,40
195.31877,195.3484,65,50,40
195.3558,195.38544,63,50,40
195.39285,195.42247,65,50,40
195.42989,195.45952,63,50,40
195.46692,195.49655,65,50,40
195.50395,195.53358,63,50,40
195.541,195.71878,62,50,40
195.76321,195.941,63,50,40
195.98544,196.16322,63,50,40
196.20766,196.38544,63,50,40
196.42989,196.60767,63,50,40
196.6521,196.68173,65,50,40
196.68915,196.71877,63,50,40
196.72618,196.75581,65,50,40
196.76321,196.79285,63,50,40
196.80025,196.82988,65,50,40
196.8373,196.86693,63,50,40
196.87433,197.05211,62,50,40
197.09656,197.27432,63,50,40
197.31877,197.49655,63,50,40
197.541,197.71877,63,50,40
197.76321,197.941,63,50,40
197.98544,198.16321,63,60,40
198.20766,198.38544,58,60,40
198.42989,198.56322,67,60,40
198.6521,198.78543,67,60,40
198.87433,199.00766,67,60,40
199.09654,199.22987,67,60,40
199.31877,199.49655,67,60,40
199.54099,199.71877,63,60,40
199.76321,199.89655,75,60,40
199.98544,200.11877,75,60,40
200.20766,200.34099,75,60,40
200.42989,200.56322,75,60,40
200.6521,200.82988,75,60,40
200.87433,201.05211,79,60,40
201.09654,201.22987,70,60,40
201.31877,201.4521,70,60,40
201.54099,201.67432,70,60,40
201.76321,201.89655,70,60,40
201.98543,202.42987,70,60,40
203.41977,203.59755,67,32,40
203.642,203.81978,63,32,40
203.86423,203.99756,67,32,40
204.08644,204.21977,67,32,40
204.30867,204.442,67,32,40
204.53088,204.66422,67,32,40
204.75311,204.9309,67,32,40
204.97533,205.1531,63,32,40
205.19756,205.33089,67,32,40
205.41977,205.5531,67,32,40
205.642,205.77533,67,32,40
205.86421,205.99756,67,32,40
206.08644,206.26422,67,63,40
206.30865,206.48643,63,63,40
206.53088,206.66422,67,63,40
206.75311,206.88644,67,63,40
206.97533,207.10866,67,63,40
206.97533,207.10866,67,63,40
207.41977,207.59755,67,63,40
207.642,207.81978,62,63,40
207.86421,207.99754,67,63,40
208.08644,208.21977,67,63,40
208.30865,208.44199,67,63,40
208.53088,208.66422,67,63,40
208.7531,208.93088,71,26,40
208.97533,209.1531,67,26,40
209.19756,209.33089,71,26,40
209.41977,209.5531,71,26,40
209.642,209.77533,71,26,40
209.86421,209.99754,71,26,40
210.08644,210.26422,65,26,40
210.30865,210.48643,62,26,40
210.53088,210.66422,65,26,40
210.7531,210.88643,65,26,40
210.97533,211.10866,65,26,40
211.19754,211.33087,65,26,40
211.41977,211.59755,62,56,40
211.64198,211.81976,59,56,40
211.86421,211.99754,62,56,40
212.08644,212.21977,62,56,40
212.30865,212.44199,62,56,40
212.53088,212.66422,62,56,40
212.7531,212.93088,60,56,40
212.97533,213.1531,63,74,40
213.19754,213.37532,62,74,40
213.41977,213.59755,63,74,40
213.64198,213.81976,65,74,40
213.86421,214.04199,63,74,40
214.08643,214.11606,65,50,40
214.12347,214.15309,63,50,40
214.1605,214.19014,65,50,40
214.19754,214.22717,63,50,40
214.23457,214.2642,65,50,40
214.27162,214.30124,63,50,40
214.30865,214.48643,62,50,40
214.53087,214.70865,63,50,40
214.7531,214.93088,63,50,40
214.97533,215.15309,63,50,40
215.19754,215.37532,63,50,40
215.41977,215.44939,65,50,40
215.4568,215.48643,63,50,40
215.49384,215.52347,65,50,40
215.53087,215.5605,63,50,40
215.56792,215.59753,65,50,40
215.60495,215.63458,63,50,40
215.64198,215.81976,62,50,40
215.86421,216.04199,63,50,40
216.08643,216.2642,63,50,40
216.30865,216.48643,63,50,40
216.53087,216.70865,63,50,40
216.7531,216.78273,65,50,40
216.79013,216.81976,63,50,40
216.82716,216.8568,65,50,40
216.86421,216.89383,63,50,40
216.90125,216.93088,65,50,40
216.93828,216.96791,63,50,40
216.97531,217.15309,62,50,40
217.19754,217.37532,63,50,40
217.41977,217.59753,63,50,40
217.64198,217.81976,63,50,40
217.86421,218.04198,63,50,40
218.08643,218.11606,65,50,40
218.12346,218.15309,63,50,40
218.1605,218.19012,65,50,40
218.19754,218.22717,63,50,40
218.23457,218.2642,65,50,40
218.2716,218.30124,63,50,40
218.30865,218.48643,62,50,40
218.53087,218.70865,63,50,40
218.7531,218.93088,63,50,40
218.97531,219.15309,63,50,40
219.19754,219.37532,63,50,40
219.41975,219.59753,63,60,40
219.64198,219.81976,58,60,40
219.8642,219.99754,67,60,40
220.08643,220.21976,67,60,40
220.30865,220.44199,67,60,40
220.53087,220.6642,67,60,40
220.7531,220.93086,67,60,40
220.97531,221.15309,63,60,40
221.19754,221.33087,75,60,40
221.41975,221.55309,75,60,40
221.64198,221.77531,75,60,40
221.8642,221.99753,75,60,40
222.08643,222.2642,75,60,40
222.30864,222.48642,79,60,40
222.53087,222.6642,70,60,40
222.7531,222.88643,70,60,40
222.97531,223.10864,70,60,40
223.19754,223.33087,70,60,40
223.41975,223.8642,70,60,40
224.75308,224.93086,70,32,40
224.97531,225.15309,67,32,40
225.19753,225.33087,70,32,40
225.41975,225.55309,70,32,40
225.64198,225.77531,70,32,40
225.8642,225.99753,70,32,40
226.08643,226.26419,67,32,40
226.30864,226.48642,64,32,40
226.53087,226.6642,67,32,40
226.75308,226.88641,67,32,40
226.97531,227.10864,67,32,40
227.19753,227.33086,67,32,40
227.41975,227.59753,55,95,40
227.64197,227.81975,58,95,40
227.8642,227.99753,55,95,40
228.08641,228.21976,55,95,40
228.30864,228.44197,55,95,40
228.53087,228.6642,55,95,40
228.75308,228.93086,56,95,40
228.97531,229.15308,60,95,40
229.19753,229.33086,68,59,40
229.41975,229.55309,68,59,40
229.64197,229.7753,68,59,40
229.8642,229.99753,68,59,40
230.08641,230.26419,72,23,40
230.30864,230.48642,69,23,40
230.53085,230.6642,72,23,40
230.75308,230.88641,72,23,40
230.97531,231.10864,72,23,40
231.19753,231.33086,72,23,40
231.41975,231.59752,69,23,40
231.64197,231.81975,66,23,40
231.8642,231.99753,69,23,40
232.08641,232.21974,69,23,40
232.30864,232.44197,69,23,40
232.53085,232.66418,69,23,40
232.75308,232.93086,57,82,40
232.9753,233.15308,60,82,40
233.19753,233.33086,57,82,40
233.41974,233.55309,57,82,40
233.64197,233.7753,57,82,40
233.8642,233.99753,57,82,40
234.08641,234.26419,55,82,40
234.30864,234.4864,67,86,40
234.53085,234.70863,66,86,40
234.75308,234.93086,67,86,40
234.9753,235.15308,63,86,40
235.19753,235.3753,60,86,40
235.41974,235.7753,59,72,40
236.30864,236.66418,67,77,40
236.75308,236.9753,66,80,40
236.9753,237.19753,67,81,40
237.19753,237.41974,68,82,40
237.41974,237.64197,67,84,40
237.64197,237.81975,63,85,40
237.86418,238.04196,60,86,40
238.08641,238.44197,59,87,40
238.53085,238.88641,62,90,40
238.9753,239.33086,67,93,40
239.41974,239.59752,68,95,40
239.64197,239.86418,67,96,40
239.86418,240.08641,66,98,40
240.08641,240.30862,67,72,40
240.30862,240.4864,65,72,40
240.53085,240.70863,62,72,40
240.75307,240.93085,63,36,40
240.9753,241.15308,60,36,40
241.19751,241.37529,67,36,40
241.41974,241.59752,67,36,40
241.64195,241.81973,67,36,40
241.86418,242.04196,67,36,40
242.08641,242.26418,72,36,40
242.30862,242.4864,67,36,40
242.53085,242.70862,75,36,40
242.75307,242.93085,75,36,40
242.9753,243.15308,75,36,40
243.19751,243.37529,75,36,40
243.41974,243.59752,72,72,40
243.64195,243.81973,69,72,40
243.86418,244.04196,72,72,40
244.0864,244.26418,72,72,40
244.30862,244.4864,72,72,40
244.53085,244.70862,72,72,40
244.75307,244.93085,74,72,40
244.9753,245.15306,71,72,40
245.19751,245.37529,79,72,40
245.41974,245.59752,79,72,40
245.64195,245.81973,79,72,40
245.86418,246.04196,79,72,40
246.0864,246.26418,77,36,40
246.30862,246.4864,74,36,40
246.53084,246.70862,77,36,40
246.75307,246.93085,77,36,40
246.97528,247.15306,77,36,40
247.19751,247.37529,77,36,40
247.41974,247.5975,74,36,40
247.64195,247.81973,62,36,40
247.86418,248.04195,68,36,40
248.0864,248.26418,68,36,40
248.30862,248.4864,68,36,40
248.53084,248.70862,68,36,40
248.75307,248.93085,65,36,40
248.97528,249.15306,62,36,40
249.19751,249.37529,65,36,40
249.41972,249.5975,65,36,40
249.64195,249.81973,65,36,40
249.86418,250.04195,65,36,40
250.0864,250.26418,67,36,40
250.30862,250.48639,58,36,40
250.53084,250.70862,67,36,40
250.75307,250.93085,67,36,40
250.97528,251.15306,67,36,40
251.19751,251.37529,67,36,40
251.41972,252.21973,65,67,40
252.30861,252.66417,64,67,40
252.75307,253.81973,72,67,40
254.0864,254.44194,72,67,40
254.97528,255.24194,65,67,40
255.41972,255.77528,63,67,40
256.75305,256.93085,70,32,40
256.97528,257.15305,67,32,40
257.1975,257.33084,70,32,40
257.4197,257.55307,70,32,40
257.64194,257.77527,70,32,40
257.86417,257.9975,70,32,40
258.0864,258.26416,67,32,40
258.30862,258.4864,64,32,40
258.53082,258.66415,67,32,40
258.75305,258.88638,67,32,40
258.97528,259.1086,67,32,40
259.1975,259.33084,67,32,40
259.4197,259.5975,55,95,40
259.64194,259.81973,58,95,40
259.86417,259.9975,55,95,40
260.0864,260.21973,55,95,40
260.3086,260.44196,55,95,40
260.53082,260.66415,55,95,40
260.75305,260.93082,56,95,40
260.97528,261.15305,60,95,40
261.1975,261.33084,68,59,40
261.4197,261.55304,68,59,40
261.64194,261.77527,68,59,40
261.86417,261.9975,68,59,40
262.0864,262.26416,72,23,40
262.3086,262.4864,69,23,40
262.53082,262.66415,72,23,40
262.75305,262.88638,72,23,40
262.97528,263.1086,72,23,40
263.19748,263.33084,72,23,40
263.4197,263.5975,69,23,40
263.64194,263.8197,66,23,40
263.86417,263.9975,69,23,40
264.0864,264.21973,69,23,40
264.3086,264.44193,69,23,40
264.53082,264.66415,69,23,40
264.75305,264.93082,57,82,40
264.97528,265.15305,60,82,40
265.19748,265.3308,57,82,40
265.4197,265.55304,57,82,40
265.64194,265.77527,57,82,40
265.86417,265.9975,57,82,40
266.08636,266.26416,55,82,40
266.3086,266.4864,67,86,40
266.53082,266.7086,66,86,40
266.75305,266.93082,67,86,40
266.97528,267.15305,63,86,40
267.19748,267.37527,60,86,40
267.4197,267.77527,59,72,40
268.3086,268.66415,67,77,40
268.75305,268.97528,66,80,40
268.97528,269.19748,67,81,40
269.19748,269.4197,68,82,40
269.4197,269.64194,67,84,40
269.64194,269.8197,63,85,40
269.86417,270.04193,60,86,40
270.08636,270.44193,59,87,40
270.53082,270.88638,62,90,40
270.97525,271.3308,67,93,40
271.4197,271.59747,68,95,40
271.64194,271.86417,67,96,40
271.86417,272.08636,66,98,40
272.08636,272.3086,67,72,40
272.3086,272.48636,65,72,40
272.53082,272.7086,62,72,40
272.75305,272.93082,63,36,40
272.97525,273.15305,60,36,40
273.19748,273.37527,67,36,40
273.4197,273.59747,67,36,40
273.64194,273.8197,67,36,40
273.86414,274.04193,67,36,40
274.08636,274.26416,72,36,40
274.3086,274.48636,67,36,40
274.53082,274.7086,75,36,40
274.75305,274.93082,75,36,40
274.97525,275.15305,75,36,40
275.19748,275.37527,75,36,40
275.4197,275.59747,72,72,40
275.64194,275.8197,69,72,40
275.86414,276.04193,72,72,40
276.08636,276.26416,72,72,40
276.3086,276.48636,72,72,40
276.53082,276.7086,72,72,40
276.75302,276.93082,74,72,40
276.97525,277.15305,71,72,40
277.19748,277.37524,79,72,40
277.4197,277.59747,79,72,40
277.64194,277.8197,79,72,40
277.86414,278.04193,79,72,40
278.08636,278.26416,77,36,40
278.3086,278.48636,74,36,40
278.53082,278.7086,77,36,40
278.75302,278.93082,77,36,40
278.97525,279.15305,77,36,40
279.19748,279.37524,77,36,40
279.4197,279.59747,74,36,40
279.64194,279.8197,62,36,40
279.86414,280.04193,68,36,40
280.08636,280.26413,68,36,40
280.3086,280.48636,68,36,40
280.53082,280.7086,68,36,40
280.75302,280.93082,65,36,40
280.97525,281.15305,62,36,40
281.19748,281.37524,65,36,40
281.4197,281.59747,65,36,40
281.6419,281.8197,65,36,40
281.86414,282.04193,65,36,40
282.08636,282.26413,67,36,40
282.3086,282.48636,58,36,40
282.53082,282.7086,67,36,40
282.75302,282.93082,67,36,40
282.97525,283.153,67,36,40
283.19748,283.37524,67,36,40
283.4197,284.2197,65,67,40
284.3086,284.66415,64,67,40
284.75302,285.8197,72,67,40
286.08636,286.44193,72,67,40
286.97525,287.2419,65,67,40
287.41968,287.77524,63,67,40
290.22858,290.3726,64,63,40
290.7086,290.85257,64,58,40
291.18857,291.33258,64,64,40
291.66858,291.8126,62,63,40
292.1486,292.29257,62,58,40
292.62857,292.77258,62,64,40
293.10858,293.5886,62,58,40
294.06857,294.28458,59,97,40
294.3086,294.52457,55,97,40
294.54858,294.7646,60,114,40
294.78857,295.00458,55,114,40
295.0286,295.24457,62,97,40
295.2686,295.4846,55,97,40
295.50858,295.72458,64,97,40
295.74857,295.96457,55,97,40
295.9886,296.4206,62,103,40
296.94858,297.33258,65,72,40
297.4286,297.8126,64,72,40
297.90857,298.29257,62,72,40
298.38858,298.77258,60,72,40
298.8686,299.63657,59,72,40
299.82858,300.3086,60,72,40
300.3086,300.54858,76,103,40
300.54858,300.78857,75,103,40
300.78857,301.0286,74,94,40
301.0286,301.2686,71,94,40
301.2686,301.50858,72,94,40
301.50858,301.74857,69,94,40
302.22858,302.46857,69,94,40
302.46857,302.7086,72,94,40
302.7086,303.18857,71,94,40
303.66858,303.90857,76,94,40
303.90857,304.1486,79,94,40
304.1486,304.62857,78,94,40
304.62857,305.9246,60,113,40
306.06857,306.35657,59,58,40
307.50858,307.79657,67,58,40
308.94858,309.18857,79,72,40
309.18857,309.4286,81,72,40
309.4286,309.66858,82,72,40
309.66858,309.90857,83,72,40
309.90857,310.1486,81,72,40
310.1486,310.38858,78,72,40
310.38858,310.77258,79,72,40
311.34857,311.63657,62,72,40
311.82858,312.11658,64,77,40
312.78857,313.07657,60,72,40
313.2686,313.55658,59,77,40
314.22858,314.51657,62,72,40
314.7086,314.99658,64,77,40
315.66858,315.95657,60,72,40
316.1486,316.5326,59,72,40
317.10858,317.34857,66,86,40
317.34857,317.5886,67,86,40
317.5886,317.82858,68,95,40
317.82858,318.06857,69,95,40
318.06857,318.3086,70,86,40
318.3086,318.54858,69,86,40
318.54858,318.78857,67,86,40
318.78857,319.0286,64,86,40
319.0286,319.17258,62,95,40
319.50858,319.6526,62,86,40
319.9886,320.13257,62,86,40
320.46857,320.61258,67,95,40
320.94858,321.0926,67,86,40
321.4286,321.57257,67,86,40
321.90857,323.34857,58,86,40
323.34857,324.50058,74,72,40
324.78857,324.9326,74,79,40
325.2686,325.41257,74,72,40
325.74857,325.89258,74,72,40
326.22858,326.3726,67,79,40
326.7086,326.85257,67,72,40
327.18857,327.33258,67,72,40
327.66858,328.43658,66,72,40
328.62857,328.8686,69,72,40
328.8686,329.10858,66,72,40
329.10858,329.49258,67,79,40
330.54858,331.3166,64,72,40
331.50858,331.74857,67,72,40
331.74857,331.9886,64,72,40
331.9886,332.3726,65,79,40
333.4286,334.38858,72,72,40
334.38858,334.8686,70,72,40
334.8686,335.82858,69,72,40
335.82858,336.3086,67,72,40
336.3086,337.2686,69,72,40
337.2686,337.50858,57,72,40
337.50858,337.74857,60,72,40
337.74857,338.13257,59,72,40
338.7086,338.94858,62,72,40
338.94858,339.18857,63,72,40
339.18857,339.4286,64,79,40
339.4286,339.66858,65,79,40
339.66858,339.90857,67,72,40
339.90857,340.1486,65,72,40
340.1486,340.38858,64,72,40
340.38858,340.62857,60,72,40
340.62857,341.01257,62,79,40
341.5886,341.82858,74,72,40
341.82858,342.06857,75,72,40
342.06857,342.3086,76,79,40
342.3086,342.54858,77,79,40
342.54858,342.78857,79,72,40
342.78857,343.0286,77,72,40
343.0286,343.2686,76,72,40
343.2686,343.50858,72,72,40
343.50858,343.89258,74,72,40
344.46857,344.7086,72,72,40
344.7086,344.94858,74,72,40
344.94858,345.18857,75,79,40
345.18857,345.4286,76,79,40
345.4286,345.66858,77,72,40
345.66858,345.90857,76,72,40
345.90857,346.1486,74,72,40
346.1486,346.38858,71,72,40
346.38858,346.5326,72,79,40
346.8686,347.01257,64,72,40
347.34857,347.49258,64,72,40
347.82858,347.9726,57,87,40
348.3086,348.45258,57,72,40
348.78857,348.9326,57,72,40
349.2686,349.6526,59,79,40
350.22858,350.4206,59,86,40
350.46857,350.66058,55,86,40
350.7086,350.90057,60,94,40
350.94858,351.1406,55,94,40
351.18857,351.38058,62,86,40
351.4286,351.62057,55,86,40
351.66858,351.86057,64,86,40
351.90857,352.1006,55,86,40
352.1486,352.5326,62,104,40
353.10858,353.49258,65,58,40
353.5886,353.9726,64,58,40
354.06857,354.45258,62,58,40
354.54858,354.9326,60,58,40
355.0286,355.9886,59,58,40
355.9886,356.46857,60,58,40
356.46857,356.7086,72,94,40
356.7086,356.94858,71,94,40
356.94858,357.18857,70,94,40
357.18857,357.4286,67,94,40
357.4286,357.66858,69,94,40
357.66858,357.90857,65,94,40
358.38858,358.62857,76,94,40
358.62857,358.8686,79,94,40
358.8686,359.34857,78,94,40
360.78857,361.94058,60,113,40
362.22858,362.61258,60,72,40
363.66858,364.05258,64,72,40
365.10858,365.30057,76,72,40
365.34857,365.5406,75,72,40
365.5886,365.78058,74,72,40
365.82858,366.02057,72,72,40
366.06857,366.2606,74,72,40
366.3086,366.50058,71,72,40
366.54858,366.9326,72,72,40
367.50858,367.89258,67,72,40
367.9886,368.3726,69,72,40
368.94858,369.33258,65,72,40
369.4286,369.8126,64,72,40
370.38858,370.77258,67,72,40
370.8686,371.2526,69,72,40
371.82858,372.2126,65,72,40
372.3086,372.69257,64,72,40
373.2686,373.50858,60,103,40
373.50858,373.67657,67,94,40
373.74857,373.9886,67,103,40
373.9886,374.1566,65,94,40
374.22858,374.46857,65,103,40
374.46857,374.63657,64,94,40
374.7086,374.94858,64,103,40
374.94858,375.11658,62,94,40
375.18857,375.4286,62,103,40
375.4286,375.5966,60,94,40
375.66858,375.90857,60,103,40
375.90857,376.07657,67,94,40
376.1486,376.38858,67,103,40
376.38858,376.55658,65,94,40
376.62857,376.8686,65,103,40
376.8686,377.0366,64,94,40
377.10858,377.36945,64,103,40
377.36945,377.55206,62,94,40
377.6303,377.91605,62,103,40
377.91605,378.11603,60,94,40
378.20175,378.64386,60,94,40
1.92,2.064,60,78,41
2.4,2.544,60,65,41
2.88,3.024,60,65,41
3.36,3.504,60,78,41
3.84,3.984,60,65,41
4.32,4.464,60,65,41
4.8,5.28,59,72,41
5.76,5.976,59,97,41
6.0,6.216,55,97,41
6.24,6.456,60,114,41
6.48,6.696,55,114,41
6.72,6.936,62,97,41
6.96,7.176,55,97,41
7.2,7.416,64,97,41
7.44,7.656,55,97,41
7.68,8.112,65,103,41
13.44,13.68,62,95,41
13.68,13.92,61,95,41
13.92,14.16,60,86,41
14.16,14.4,57,86,41
14.4,14.64,59,86,41
14.64,14.88,55,86,41
14.88,15.024,57,95,41
15.36,15.504,69,86,41
15.84,15.984,69,86,41
16.32,17.76,57,104,41
17.76,18.048,55,72,41
19.2,19.488,55,72,41
20.64,20.784,74,72,41
21.12,21.264,74,72,41
21.6,21.744,74,72,41
22.08,22.464,67,72,41
23.04,23.328,55,72,41
23.52,23.808,55,77,41
24.48,24.768,54,72,41
24.96,25.248,55,77,41
25.92,26.208,59,72,41
26.4,26.688,59,77,41
27.36,27.648,54,72,41
27.84,28.32,55,72,41
30.72,30.864,60,78,41
31.2,31.344,60,65,41
31.68,31.824,60,65,41
32.16,32.304,60,78,41
32.64,32.784,60,65,41
33.12,33.264,60,65,41
33.6,34.08,59,72,41
34.56,34.776,59,97,41
34.8,35.016,55,97,41
35.04,35.256,60,114,41
35.28,35.496,55,114,41
35.52,35.736,62,97,41
35.76,35.976,55,97,41
36.0,36.216,64,97,41
36.24,36.456,55,97,41
36.48,36.912,65,103,41
42.24,42.48,62,95,41
42.48,42.72,61,95,41
42.72,42.96,60,86,41
42.96,43.2,57,86,41
43.2,43.44,59,86,41
43.44,43.68,55,86,41
43.68,43.824,57,95,41
44.16,44.304,69,86,41
44.64,44.784,69,86,41
45.12,46.56,57,104,41
46.56,46.848,55,72,41
48.0,48.288,55,72,41
49.44,49.584,74,72,41
49.92,50.064,74,72,41
50.4,50.544,74,72,41
50.88,51.264,67,72,41
51.84,52.128,55,72,41
52.32,52.608,55,77,41
53.28,53.568,54,72,41
53.76,54.048,55,77,41
54.72,55.008,59,72,41
55.2,55.488,59,77,41
56.16,56.448,54,72,41
56.64,57.12,55,72,41
57.6,57.84,66,86,41
57.84,58.08,67,86,41
58.08,58.32,68,95,41
58.32,58.56,69,95,41
58.56,58.8,70,86,41
58.8,59.04,69,86,41
59.04,59.28,67,86,41
59.28,59.52,64,86,41
59.52,59.664,62,95,41
60.0,60.144,62,86,41
60.48,60.624,62,86,41
60.96,61.104,67,95,41
61.44,61.584,67,86,41
61.92,62.064,67,86,41
62.4,63.84,58,86,41
63.84,64.608,62,65,41
64.8,65.184,64,65,41
65.28,65.424,65,72,41
65.76,65.904,57,65,41
65.76,65.904,65,65,41
66.24,66.384,57,65,41
66.24,66.384,65,65,41
66.72,66.864,57,72,41
66.72,66.864,64,72,41
67.2,67.344,57,65,41
67.2,67.344,64,65,41
67.68,67.824,64,65,41
67.68,67.824,57,65,41
68.16,69.312,62,65,41
69.6,69.984,60,72,41
71.04,72.192,60,72,41
72.48,72.864,60,72,41
73.92,74.88,65,58,41
74.88,75.36,61,58,41
75.36,76.32,62,58,41
76.32,76.8,64,58,41
76.8,77.28,65,76,41
77.28,77.664,62,58,41
77.76,78.144,62,58,41
78.24,78.48,61,72,41
78.48,78.72,62,72,41
78.72,78.96,64,72,41
78.96,79.2,62,72,41
79.2,79.44,60,72,41
79.44,79.68,57,72,41
79.68,80.064,59,72,41
81.12,81.6,59,72,41
82.08,82.32,71,72,41
82.32,82.56,72,72,41
82.56,82.8,73,79,41
82.8,83.04,74,79,41
83.04,83.28,76,72,41
83.28,83.52,74,72,41
83.52,83.76,72,72,41
83.76,84.0,69,72,41
84.0,84.384,71,72,41
86.4,86.64,66,86,41
86.64,86.88,67,86,41
86.88,87.12,68,77,41
87.12,87.36,69,77,41
87.36,87.6,70,86,41
87.6,87.84,69,86,41
87.84,88.08,67,86,41
88.08,88.32,64,86,41
88.32,88.464,62,95,41
88.8,88.944,62,86,41
89.28,89.424,62,86,41
89.76,90.144,62,86,41
90.72,90.912,59,86,41
90.96,91.152,55,86,41
91.2,91.392,60,94,41
91.44,91.632,55,94,41
91.68,91.872,62,86,41
91.92,92.112,55,86,41
92.16,92.352,64,86,41
92.4,92.592,55,86,41
92.64,93.024,65,104,41
98.4,98.64,69,95,41
98.64,98.88,68,95,41
98.88,99.12,67,86,41
99.12,99.36,64,86,41
99.36,99.6,66,86,41
99.6,99.84,62,86,41
99.84,100.224,55,95,41
100.32,100.704,67,86,41
100.8,101.184,67,86,41
101.28,102.36,57,114,41
102.72,103.104,57,72,41
104.16,104.544,60,72,41
105.6,105.984,67,72,41
106.08,106.464,67,72,41
106.56,106.944,67,72,41
107.04,107.424,60,72,41
108.0,108.384,60,65,41
108.48,108.864,60,72,41
109.44,109.824,59,65,41
109.92,110.304,60,72,41
110.88,111.264,60,65,41
111.36,111.744,60,72,41
112.32,112.704,59,65,41
112.8,113.184,60,72,41
113.76,114.144,60,99,41
114.24,114.624,57,108,41
115.2,115.584,53,99,41
115.68,116.064,52,108,41
116.64,116.88,58,108,41
116.88,117.024,57,99,41
117.12,117.36,57,119,41
117.36,117.504,55,99,41
117.6,117.84,55,108,41
117.84,117.984,53,99,41
118.08,118.32,53,108,41
118.32,118.464,52,99,41
118.56,118.944,52,108,41
119.52,119.76,66,86,41
119.76,120.0,67,86,41
120.0,120.24,68,95,41
120.24,120.48,69,95,41
120.48,120.72,70,86,41
120.72,120.96,69,86,41
120.96,121.2,67,86,41
121.2,121.44,64,86,41
121.44,121.584,62,95,41
121.92,122.064,62,86,41
122.4,122.544,62,86,41
122.88,123.024,67,95,41
123.36,123.504,67,86,41
123.84,123.984,67,86,41
124.32,125.76,58,86,41
125.76,126.528,62,65,41
126.72,127.104,64,65,41
127.2,127.344,65,72,41
127.68,127.824,57,65,41
127.68,127.824,65,65,41
128.16,128.304,57,65,41
128.16,128.304,65,65,41
128.64,128.784,57,72,41
128.64,128.784,64,72,41
129.12,129.264,57,65,41
129.12,129.264,64,65,41
129.6,129.744,64,65,41
129.6,129.744,57,65,41
130.08,131.232,62,65,41
131.52,131.904,60,72,41
132.96,134.112,60,72,41
134.4,134.784,60,72,41
135.84,136.8,65,58,41
136.8,137.28,61,58,41
137.28,138.24,62,58,41
138.24,138.72,64,58,41
138.72,139.2,65,76,41
139.2,139.584,62,58,41
139.68,140.064,62,58,41
140.16,140.4,61,72,41
140.4,140.64,62,72,41
140.64,140.88,64,72,41
140.88,141.12,62,72,41
141.12,141.36,60,72,41
141.36,141.6,57,72,41
141.6,141.984,59,72,41
143.04,143.52,59,72,41
144.0,144.24,71,72,41
144.24,144.48,72,72,41
144.48,144.72,73,79,41
144.72,144.96,74,79,41
144.96,145.2,76,72,41
145.2,145.44,74,72,41
145.44,145.68,72,72,41
145.68,145.92,69,72,41
145.92,146.304,71,72,41
148.32,148.56,66,86,41
148.56,148.8,67,86,41
148.8,149.04,68,77,41
149.04,149.28,69,77,41
149.28,149.52,70,86,41
149.52,149.76,69,86,41
149.76,150.0,67,86,41
150.0,150.24,64,86,41
150.24,150.384,62,95,41
150.72,150.864,62,86,41
151.2,151.344,62,86,41
151.68,152.064,62,86,41
152.64,152.832,59,86,41
152.88,153.072,55,86,41
153.12,153.312,60,94,41
153.36,153.552,55,94,41
153.6,153.792,62,86,41
153.84,154.032,55,86,41
154.08,154.272,64,86,41
154.32,154.512,55,86,41
154.56,154.944,65,104,41
160.32,160.56,69,95,41
160.56,160.8,68,95,41
160.8,161.04,67,86,41
161.04,161.28,64,86,41
161.28,161.52,66,86,41
161.52,161.76,62,86,41
161.76,162.144,55,95,41
162.24,162.624,67,86,41
162.72,163.104,67,86,41
163.2,164.28,57,114,41
164.64,165.024,57,72,41
166.08,166.464,60,72,41
167.52,167.904,67,72,41
168.0,168.384,67,72,41
168.48,168.864,67,72,41
168.96,169.344,60,72,41
169.92,170.304,60,65,41
170.4,170.784,60,72,41
171.36,171.744,59,65,41
171.84,172.224,60,72,41
172.8,173.184,60,65,41
173.28,173.664,60,72,41
174.24,174.624,59,65,41
174.72,175.104,60,72,41
175.68,176.064,60,99,41
176.16,176.544,57,108,41
177.12,177.504,53,99,41
177.6,177.984,52,108,41
178.56,178.8,58,108,41
178.8,178.944,57,99,41
179.04,179.28,57,119,41
179.28,179.424,55,99,41
179.52,179.76,55,108,41
179.76,179.904,53,99,41
180.0,180.24,53,108,41
180.24,180.384,52,99,41
180.48,180.864,52,108,41
181.98546,182.16324,63,32,41
182.20767,182.38545,60,32,41
182.4299,182.56323,63,32,41
182.65211,182.78545,63,32,41
182.87434,183.00768,63,32,41
183.09656,183.2299,63,32,41
183.31879,183.49657,63,32,41
183.54102,183.71878,60,32,41
183.76323,183.89656,63,32,41
183.98546,184.11879,63,32,41
184.20767,184.341,63,32,41
184.4299,184.56323,63,32,41
184.65211,184.8299,63,63,41
184.87434,185.05212,60,63,41
185.09656,185.22989,63,63,41
185.31879,185.45212,63,63,41
185.541,185.67433,63,63,41
185.76323,185.89656,63,63,41
185.98544,186.16322,62,63,41
186.20767,186.38545,59,63,41
186.4299,186.56323,62,63,41
186.65211,186.78545,62,63,41
186.87434,187.00768,62,63,41
187.09656,187.22989,62,63,41
187.31879,187.49657,62,26,41
187.541,187.71878,59,26,41
187.76323,187.89656,62,26,41
187.98544,188.11877,62,26,41
188.20767,188.341,62,26,41
188.42989,188.56323,62,26,41
188.65211,188.8299,62,31,41
188.87433,189.05211,55,31,41
189.09656,189.22989,62,31,41
189.31879,189.45212,62,31,41
189.541,189.67433,62,31,41
189.76323,189.89656,62,31,41
189.98544,190.16322,59,56,41
190.20767,190.38545,55,56,41
190.42989,190.56322,59,56,41
190.65211,190.78545,59,56,41
190.87433,191.00766,59,56,41
191.09656,191.22989,59,56,41
191.31877,191.67433,60,56,41
192.65211,193.541,61,41,41
193.541,193.98544,60,41,41
193.98544,194.87433,55,41,41
194.87433,195.09656,56,41,41
195.09656,195.31877,60,41,41
195.31877,195.67433,61,41,41
195.76321,196.11877,61,41,41
196.20766,196.42989,60,41,41
196.42989,196.6521,56,41,41
196.6521,197.00766,55,41,41
197.09656,197.4521,55,41,41
197.541,197.76321,56,41,41
197.76321,197.98544,60,41,41
197.98544,198.16321,58,60,41
198.20766,198.38544,55,60,41
198.42989,198.56322,63,60,41
198.6521,198.78543,63,60,41
198.87433,199.00766,63,60,41
199.09654,199.22987,63,60,41
199.31877,199.49655,63,60,41
199.54099,199.71877,58,60,41
199.76321,199.89655,67,60,41
199.98544,200.11877,67,60,41
200.20766,200.34099,67,60,41
200.42989,200.56322,67,60,41
200.6521,200.82988,67,60,41
200.87433,201.05211,63,60,41
201.09654,201.22987,62,60,41
201.31877,201.4521,63,60,41
201.54099,201.67432,65,60,41
201.76321,201.89655,68,60,41
201.98543,202.42987,67,60,41
203.41977,203.59755,63,32,41
203.642,203.81978,60,32,41
203.86423,203.99756,63,32,41
204.08644,204.21977,63,32,41
204.30867,204.442,63,32,41
204.53088,204.66422,63,32,41
204.75311,204.9309,63,32,41
204.97533,205.1531,60,32,41
205.19756,205.33089,63,32,41
205.41977,205.5531,63,32,41
205.642,205.77533,63,32,41
205.86421,205.99756,63,32,41
206.08644,206.26422,63,63,41
206.30865,206.48643,60,63,41
206.53088,206.66422,63,63,41
206.75311,206.88644,63,63,41
206.97533,207.10866,63,63,41
207.19756,207.33089,63,63,41
207.41977,207.59755,62,63,41
207.642,207.81978,59,63,41
207.86421,207.99754,62,63,41
208.08644,208.21977,62,63,41
208.30865,208.44199,62,63,41
208.53088,208.66422,62,63,41
208.7531,208.93088,62,26,41
208.97533,209.1531,59,26,41
209.19756,209.33089,62,26,41
209.41977,209.5531,62,26,41
209.642,209.77533,62,26,41
209.86421,209.99754,62,26,41
210.08644,210.26422,62,31,41
210.30865,210.48643,55,31,41
210.53088,210.66422,62,31,41
210.7531,210.88643,62,31,41
210.97533,211.10866,62,31,41
211.19754,211.33087,62,31,41
211.41977,211.59755,59,56,41
211.64198,211.81976,55,56,41
211.86421,211.99754,59,56,41
212.08644,212.21977,59,56,41
212.30865,212.44199,59,56,41
212.53088,212.66422,59,56,41
212.7531,213.10866,60,56,41
214.08643,214.97533,61,41,41
214.97533,215.41977,60,41,41
215.41977,216.30865,55,41,41
216.30865,216.53087,56,41,41
216.53087,216.7531,60,41,41
216.7531,217.10866,61,41,41
217.19754,217.5531,61,41,41
217.64198,217.86421,60,41,41
217.86421,218.08643,56,41,41
218.08643,218.44199,55,41,41
218.53087,218.88643,55,41,41
218.97531,219.19754,56,41,41
219.19754,219.41975,60,41,41
219.41975,219.59753,58,60,41
219.64198,219.81976,55,60,41
219.8642,219.99754,63,60,41
220.08643,220.21976,63,60,41
220.30865,220.44199,63,60,41
220.53087,220.6642,63,60,41
220.7531,220.93086,63,60,41
220.97531,221.15309,58,60,41
221.19754,221.33087,67,60,41
221.41975,221.55309,67,60,41
221.64198,221.77531,67,60,41
221.8642,221.99753,67,60,41
222.08643,222.2642,67,60,41
222.30864,222.48642,63,60,41
222.53087,222.6642,62,60,41
222.7531,222.88643,63,60,41
222.97531,223.10864,65,60,41
223.19754,223.33087,68,60,41
223.41975,223.8642,67,60,41
224.75308,224.93086,67,32,41
224.97531,225.15309,64,32,41
225.19753,225.33087,67,32,41
225.41975,225.55309,67,32,41
225.64198,225.77531,67,32,41
225.8642,225.99753,67,32,41
226.08643,226.26419,64,32,41
226.30864,226.48642,55,32,41
226.53087,226.6642,58,32,41
226.75308,226.88641,58,32,41
226.97531,227.10864,58,32,41
227.19753,227.33086,58,32,41
227.41975,227.59753,52,95,41
227.64197,227.81975,55,95,41
227.8642,227.99753,52,95,41
228.08641,228.21976,52,95,41
228.30864,228.44197,52,95,41
228.53087,228.6642,52,95,41
228.75308,228.93086,53,95,41
228.97531,229.15308,56,95,41
229.19753,229.33086,60,59,41
229.41975,229.55309,60,59,41
229.64197,229.7753,60,59,41
229.8642,229.99753,60,59,41
230.08641,230.26419,69,23,41
230.30864,230.48642,60,23,41
230.53085,230.6642,69,23,41
230.75308,230.88641,69,23,41
230.97531,231.10864,69,23,41
231.19753,231.33086,69,23,41
231.41975,231.59752,66,23,41
231.64197,231.81975,56,23,41
231.8642,231.99753,60,23,41
232.08641,232.21974,60,23,41
232.30864,232.44197,60,23,41
232.53085,232.66418,60,23,41
232.75308,232.93086,54,82,41
232.9753,233.15308,56,82,41
233.19753,233.33086,54,82,41
233.41974,233.55309,54,82,41
233.64197,233.7753,54,82,41
233.8642,233.99753,54,82,41
234.08641,234.44197,55,82,41
235.41974,235.7753,62,72,41
235.86418,236.21974,59,75,41
236.30864,236.53085,60,77,41
236.53085,236.75308,63,78,41
236.75308,237.10863,62,80,41
237.19753,237.55307,59,82,41
237.64197,237.81975,60,85,41
237.86418,238.04196,51,86,41
238.08641,238.44197,50,87,41
238.53085,238.88641,59,90,41
238.9753,239.19753,60,93,41
239.19753,239.41974,63,94,41
239.41974,239.7753,62,95,41
239.86418,240.21974,59,98,41
240.30862,240.53085,62,72,41
240.53085,240.75307,59,72,41
240.75307,240.93085,60,36,41
240.9753,241.15308,55,36,41
241.19751,241.37529,60,36,41
241.41974,241.59752,60,36,41
241.64195,241.81973,60,36,41
241.86418,242.04196,60,36,41
242.08641,242.26418,63,36,41
242.30862,242.4864,60,36,41
242.53085,242.70862,67,36,41
242.75307,242.93085,67,36,41
242.9753,243.15308,67,36,41
243.19751,243.37529,67,36,41
243.41974,243.59752,68,72,41
243.64195,243.81973,66,72,41
243.86418,244.04196,68,72,41
244.0864,244.26418,68,72,41
244.30862,244.4864,68,72,41
244.53085,244.70862,68,72,41
244.75307,244.93085,67,72,41
244.9753,245.15306,62,72,41
245.19751,245.37529,71,72,41
245.41974,245.59752,71,72,41
245.64195,245.81973,71,72,41
245.86418,246.04196,71,72,41
246.0864,246.26418,62,36,41
246.30862,246.4864,65,36,41
246.53084,246.70862,68,36,41
246.75307,246.93085,68,36,41
246.97528,247.15306,68,36,41
247.19751,247.37529,68,36,41
247.41974,247.5975,68,36,41
247.64195,247.81973,59,36,41
247.86418,248.04195,62,36,41
248.0864,248.26418,62,36,41
248.30862,248.4864,62,36,41
248.53084,248.70862,62,36,41
248.75307,248.93085,62,36,41
248.97528,249.15306,59,36,41
249.19751,249.37529,62,36,41
249.41972,249.5975,62,36,41
249.64195,249.81973,62,36,41
249.86418,250.04195,62,36,41
250.0864,250.26418,61,36,41
250.30862,250.48639,55,36,41
250.53084,250.70862,60,36,41
250.75307,250.93085,60,36,41
250.97528,251.15306,60,36,41
251.19751,251.37529,60,36,41
251.41972,252.48639,60,67,41
252.75307,253.46417,60,67,41
253.64195,253.9975,62,67,41
254.0864,254.44194,63,67,41
254.97528,255.24194,62,67,41
255.41972,255.77528,60,67,41
256.75305,256.93085,67,32,41
256.97528,257.15305,64,32,41
257.1975,257.33084,67,32,41
257.4197,257.55307,67,32,41
257.64194,257.77527,67,32,41
257.86417,257.9975,67,32,41
258.0864,258.26416,64,32,41
258.30862,258.4864,55,32,41
258.53082,258.66415,58,32,41
258.75305,258.88638,58,32,41
258.97528,259.1086,58,32,41
259.1975,259.33084,58,32,41
259.4197,259.5975,52,95,41
259.64194,259.81973,55,95,41
259.86417,259.9975,52,95,41
260.0864,260.21973,52,95,41
260.3086,260.44196,52,95,41
260.53082,260.66415,52,95,41
260.75305,260.93082,53,95,41
260.97528,261.15305,56,95,41
261.1975,261.33084,60,59,41
261.4197,261.55304,60,59,41
261.64194,261.77527,60,59,41
261.86417,261.9975,60,59,41
262.0864,262.26416,69,23,41
262.3086,262.4864,60,23,41
262.53082,262.66415,69,23,41
262.75305,262.88638,69,23,41
262.97528,263.1086,69,23,41
263.19748,263.33084,69,23,41
263.4197,263.5975,66,23,41
263.64194,263.8197,56,23,41
263.86417,263.9975,60,23,41
264.0864,264.21973,60,23,41
264.3086,264.44193,60,23,41
264.53082,264.66415,60,23,41
264.75305,264.93082,54,82,41
264.97528,265.15305,56,82,41
265.19748,265.3308,54,82,41
265.4197,265.55304,54,82,41
265.64194,265.77527,54,82,41
265.86417,265.9975,54,82,41
266.08636,266.44193,55,82,41
267.4197,267.77527,62,72,41
267.86417,268.2197,59,75,41
268.3086,268.53082,60,77,41
268.53082,268.75305,63,78,41
268.75305,269.1086,62,80,41
269.19748,269.55304,59,82,41
269.64194,269.8197,60,85,41
269.86417,270.04193,51,86,41
270.08636,270.44193,50,87,41
270.53082,270.88638,59,90,41
270.97525,271.19748,60,93,41
271.19748,271.4197,63,94,41
271.4197,271.77527,62,95,41
271.86417,272.2197,59,98,41
272.3086,272.53082,62,72,41
272.53082,272.75305,59,72,41
272.75305,272.93082,60,36,41
272.97525,273.15305,55,36,41
273.19748,273.37527,60,36,41
273.4197,273.59747,60,36,41
273.64194,273.8197,60,36,41
273.86414,274.04193,60,36,41
274.08636,274.26416,63,36,41
274.3086,274.48636,60,36,41
274.53082,274.7086,67,36,41
274.75305,274.93082,67,36,41
274.97525,275.15305,67,36,41
275.19748,275.37527,67,36,41
275.4197,275.59747,68,72,41
275.64194,275.8197,66,72,41
275.86414,276.04193,68,72,41
276.08636,276.26416,68,72,41
276.3086,276.48636,68,72,41
276.53082,276.7086,68,72,41
276.75302,276.93082,67,72,41
276.97525,277.15305,62,72,41
277.19748,277.37524,71,72,41
277.4197,277.59747,71,72,41
277.64194,277.8197,71,72,41
277.86414,278.04193,71,72,41
278.08636,278.26416,62,36,41
278.3086,278.48636,65,36,41
278.53082,278.7086,68,36,41
278.75302,278.93082,68,36,41
278.97525,279.15305,68,36,41
279.19748,279.37524,68,36,41
279.4197,279.59747,68,36,41
279.64194,279.8197,59,36,41
279.86414,280.04193,62,36,41
280.08636,280.26413,62,36,41
280.3086,280.48636,62,36,41
280.53082,280.7086,62,36,41
280.75302,280.93082,62,36,41
280.97525,281.15305,59,36,41
281.19748,281.37524,62,36,41
281.4197,281.59747,62,36,41
281.6419,281.8197,62,36,41
281.86414,282.04193,62,36,41
282.08636,282.26413,61,36,41
282.3086,282.48636,55,36,41
282.53082,282.7086,60,36,41
282.75302,282.93082,60,36,41
282.97525,283.153,60,36,41
283.19748,283.37524,60,36,41
283.4197,284.48636,60,67,41
284.75302,285.46414,60,67,41
285.6419,285.99747,62,67,41
286.08636,286.44193,63,67,41
286.97525,287.2419,62,67,41
287.41968,287.77524,60,67,41
290.22858,290.3726,60,63,41
290.7086,290.85257,60,58,41
291.18857,291.33258,60,64,41
291.66858,291.8126,60,63,41
292.1486,292.29257,60,58,41
292.62857,292.77258,60,64,41
293.10858,293.5886,59,58,41
294.06857,294.28458,59,97,41
294.3086,294.52457,55,97,41
294.54858,294.7646,60,114,41
294.78857,295.00458,55,114,41
295.0286,295.24457,62,97,41
295.2686,295.4846,55,97,41
295.50858,295.72458,64,97,41
295.74857,295.96457,55,97,41
295.9886,296.4206,65,103,41
301.74857,301.9886,62,103,41
301.9886,302.22858,61,103,41
302.22858,302.46857,60,94,41
302.46857,302.7086,57,94,41
302.7086,302.94858,59,94,41
302.94858,303.18857,55,94,41
303.18857,303.33258,57,103,41
303.66858,303.8126,69,94,41
304.1486,304.29257,69,94,41
304.62857,305.9246,57,113,41
306.06857,306.35657,55,58,41
307.50858,307.79657,55,58,41
308.94858,309.0926,74,72,41
309.4286,309.57257,74,72,41
309.90857,310.05258,74,72,41
310.38858,310.77258,67,72,41
311.34857,311.63657,55,72,41
311.82858,312.11658,55,77,41
312.78857,313.07657,54,72,41
313.2686,313.55658,55,77,41
314.22858,314.51657,59,72,41
314.7086,314.99658,59,77,41
315.66858,315.95657,54,72,41
316.1486,316.5326,55,72,41
317.10858,317.34857,66,86,41
317.34857,317.5886,67,86,41
317.5886,317.82858,68,95,41
317.82858,318.06857,69,95,41
318.06857,318.3086,70,86,41
318.3086,318.54858,69,86,41
318.54858,318.78857,67,86,41
318.78857,319.0286,64,86,41
319.0286,319.17258,62,95,41
319.50858,319.6526,62,86,41
319.9886,320.13257,62,86,41
320.46857,320.61258,67,95,41
320.94858,321.0926,67,86,41
321.4286,321.57257,67,86,41
321.90857,323.34857,58,86,41
323.34857,324.11658,62,72,41
324.3086,324.69257,64,72,41
324.78857,324.9326,65,79,41
325.2686,325.41257,57,72,41
325.2686,325.41257,65,72,41
325.74857,325.89258,57,72,41
325.74857,325.89258,65,72,41
326.22858,326.3726,57,79,41
326.22858,326.3726,64,79,41
326.7086,326.85257,57,72,41
326.7086,326.85257,64,72,41
327.18857,327.33258,64,72,41
327.18857,327.33258,57,72,41
327.66858,328.8206,62,72,41
329.10858,329.49258,60,79,41
330.54858,331.7006,60,72,41
331.9886,332.3726,60,79,41
333.4286,334.38858,65,72,41
334.38858,334.8686,61,72,41
334.8686,335.82858,62,72,41
335.82858,336.3086,64,72,41
336.3086,336.78857,65,86,41
336.78857,337.17258,62,72,41
337.2686,337.6526,62,72,41
337.74857,337.9886,61,79,41
337.9886,338.22858,62,79,41
338.22858,338.46857,64,72,41
338.46857,338.7086,62,72,41
338.7086,338.94858,60,72,41
338.94858,339.18857,57,72,41
339.18857,339.57257,59,72,41
340.62857,341.01257,59,79,41
341.5886,341.82858,71,72,41
341.82858,342.06857,72,72,41
342.06857,342.3086,73,79,41
342.3086,342.54858,74,79,41
342.54858,342.78857,76,72,41
342.78857,343.0286,74,72,41
343.0286,343.2686,72,72,41
343.2686,343.50858,69,72,41
343.50858,343.89258,71,72,41
345.90857,346.1486,66,72,41
346.1486,346.38858,67,72,41
346.38858,346.62857,68,79,41
346.62857,346.8686,69,79,41
346.8686,347.10858,70,72,41
347.10858,347.34857,69,72,41
347.34857,347.5886,67,72,41
347.5886,347.82858,64,72,41
347.82858,347.9726,62,79,41
348.3086,348.45258,62,72,41
348.78857,348.9326,62,72,41
349.2686,349.6526,62,79,41
350.22858,350.4206,59,86,41
350.46857,350.66058,55,86,41
350.7086,350.90057,60,94,41
350.94858,351.1406,55,94,41
351.18857,351.38058,62,86,41
351.4286,351.62057,55,86,41
351.66858,351.86057,64,86,41
351.90857,352.1006,55,86,41
352.1486,352.5326,65,104,41
357.90857,358.1486,69,94,41
358.1486,358.38858,68,94,41
358.38858,358.62857,67,94,41
358.62857,358.8686,64,94,41
358.8686,359.10858,66,94,41
359.10858,359.34857,62,94,41
359.34857,359.73257,55,94,41
359.82858,360.2126,67,94,41
360.3086,360.69257,67,94,41
360.78857,361.94058,57,113,41
362.22858,362.61258,57,72,41
363.66858,364.05258,60,72,41
365.10858,365.49258,67,72,41
365.5886,365.9726,67,72,41
366.06857,366.45258,67,72,41
366.54858,366.9326,60,72,41
367.50858,367.89258,60,72,41
367.9886,368.3726,60,72,41
368.94858,369.33258,59,72,41
369.4286,369.8126,60,72,41
370.38858,370.77258,60,72,41
370.8686,371.2526,60,72,41
371.82858,372.2126,59,72,41
372.3086,372.69257,60,72,41
373.2686,373.6526,60,94,41
373.74857,374.13257,57,94,41
374.7086,375.0926,53,94,41
375.18857,375.57257,52,94,41
376.1486,376.38858,58,94,41
376.38858,376.55658,57,94,41
376.62857,376.8686,57,94,41
376.8686,377.0366,55,94,41
377.10858,377.36945,55,94,41
377.36945,377.55206,53,94,41
377.6303,377.91605,53,94,41
377.91605,378.11603,52,94,41
378.20175,378.64386,52,94,41
1.92,2.064,57,78,42
2.4,2.544,57,65,42
2.88,3.024,57,65,42
3.36,3.504,50,78,42
3.84,3.984,50,65,42
4.32,4.464,50,65,42
4.8,5.28,55,72,42
5.76,5.976,47,97,42
6.0,6.216,43,97,42
6.24,6.456,48,114,42
6.48,6.696,43,114,42
6.72,6.936,50,97,42
6.96,7.176,43,97,42
7.2,7.416,52,97,42
7.44,7.656,43,97,42
7.68,8.112,55,103,42
14.88,15.12,57,95,42
15.12,15.36,56,95,42
15.36,15.6,55,86,42
15.6,15.84,52,86,42
15.84,16.08,54,86,42
16.08,16.32,50,86,42
16.32,17.76,42,104,42
17.76,18.048,43,72,42
19.2,19.488,52,72,42
23.04,23.328,47,72,42
23.52,23.808,48,77,42
24.48,24.768,50,72,42
24.96,25.248,52,77,42
25.92,26.208,47,72,42
26.4,26.688,48,77,42
27.36,27.648,50,72,42
27.84,28.32,43,72,42
30.72,30.864,57,78,42
31.2,31.344,57,65,42
31.68,31.824,57,65,42
32.16,32.304,50,78,42
32.64,32.784,50,65,42
33.12,33.264,50,65,42
33.6,34.08,55,72,42
34.56,34.776,47,97,42
34.8,35.016,43,97,42
35.04,35.256,48,114,42
35.28,35.496,43,114,42
35.52,35.736,50,97,42
35.76,35.976,43,97,42
36.0,36.216,52,97,42
36.24,36.456,43,97,42
36.48,36.912,55,103,42
43.68,43.92,57,95,42
43.92,44.16,56,95,42
44.16,44.4,55,86,42
44.4,44.64,52,86,42
44.64,44.88,54,86,42
44.88,45.12,50,86,42
45.12,46.56,42,104,42
46.56,46.848,43,72,42
48.0,48.288,52,72,42
51.84,52.128,47,72,42
52.32,52.608,48,77,42
53.28,53.568,50,72,42
53.76,54.048,52,77,42
54.72,55.008,47,72,42
55.2,55.488,48,77,42
56.16,56.448,50,72,42
56.64,57.12,43,72,42
57.6,57.84,54,86,42
57.84,58.08,55,86,42
58.08,58.32,56,95,42
58.32,58.56,57,95,42
58.56,58.8,58,86,42
58.8,59.04,57,86,42
59.04,59.28,55,86,42
59.28,59.52,52,86,42
59.52,59.664,50,95,42
60.0,60.144,50,86,42
60.48,60.624,50,86,42
60.96,61.104,55,95,42
61.44,61.584,55,86,42
61.92,62.064,55,86,42
62.4,63.84,46,86,42
63.84,64.992,46,65,42
65.28,65.424,45,72,42
67.68,67.92,54,79,42
67.92,68.16,55,79,42
68.16,68.4,56,87,42
68.4,68.64,57,87,42
68.64,68.88,58,79,42
68.88,69.12,57,79,42
69.12,69.36,54,79,42
69.36,69.6,50,79,42
69.6,69.984,55,79,42
70.56,70.8,52,79,42
70.8,71.04,53,79,42
71.04,71.28,54,87,42
71.28,71.52,55,87,42
71.52,71.76,57,79,42
71.76,72.0,55,79,42
72.0,72.24,52,79,42
72.24,72.48,48,79,42
72.48,72.864,53,79,42
77.28,77.76,53,72,42
77.76,78.24,54,72,42
78.24,78.624,55,79,42
78.72,79.104,43,72,42
80.16,80.64,47,72,42
80.64,81.12,48,72,42
81.12,81.6,43,79,42
81.6,81.84,55,72,42
83.04,83.52,59,72,42
83.52,84.0,60,72,42
84.0,84.384,55,72,42
87.84,88.08,47,86,42
88.08,88.32,48,86,42
88.32,88.56,49,95,42
88.56,88.8,50,95,42
88.8,89.04,52,86,42
89.04,89.28,50,86,42
89.28,89.52,48,86,42
89.52,89.76,45,86,42
89.76,90.144,43,86,42
90.72,90.912,47,86,42
90.96,91.152,43,86,42
91.2,91.392,48,94,42
91.44,91.632,43,94,42
91.68,91.872,50,86,42
91.92,92.112,43,86,42
92.16,92.352,52,86,42
92.4,92.592,43,86,42
92.64,93.024,55,104,42
99.84,100.08,55,95,42
100.08,100.32,54,95,42
100.32,100.56,53,86,42
100.56,100.8,50,86,42
100.8,101.04,52,86,42
101.04,101.28,48,86,42
101.28,102.36,41,114,42
102.72,103.104,42,72,42
104.16,104.544,43,72,42
108.0,108.384,52,65,42
108.48,108.864,53,72,42
109.44,109.824,55,65,42
109.92,110.304,57,72,42
110.88,111.264,52,65,42
111.36,111.744,53,72,42
112.32,112.704,55,65,42
112.8,113.184,48,72,42
113.76,114.144,40,99,42
114.24,114.624,41,108,42
115.2,115.584,43,99,42
115.68,116.064,45,108,42
116.64,117.024,40,99,42
117.12,117.504,41,108,42
117.6,117.984,38,99,42
118.08,118.464,43,99,42
118.56,118.944,36,108,42
119.52,119.76,54,86,42
119.76,120.0,55,86,42
120.0,120.24,56,95,42
120.24,120.48,57,95,42
120.48,120.72,58,86,42
120.72,120.96,57,86,42
120.96,121.2,55,86,42
121.2,121.44,52,86,42
121.44,121.584,50,95,42
121.92,122.064,50,86,42
122.4,122.544,50,86,42
122.88,123.024,55,95,42
123.36,123.504,55,86,42
123.84,123.984,55,86,42
124.32,125.76,46,86,42
125.76,126.912,46,65,42
127.2,127.344,45,72,42
129.6,129.84,54,79,42
129.84,130.08,55,79,42
130.08,130.32,56,87,42
130.32,130.56,57,87,42
130.56,130.8,58,79,42
130.8,131.04,57,79,42
131.04,131.28,54,79,42
131.28,131.52,50,79,42
131.52,131.904,55,79,42
132.48,132.72,52,79,42
132.72,132.96,53,79,42
132.96,133.2,54,87,42
133.2,133.44,55,87,42
133.44,133.68,57,79,42
133.68,133.92,55,79,42
133.92,134.16,52,79,42
134.16,134.4,48,79,42
134.4,134.784,53,79,42
139.2,139.68,53,72,42
139.68,140.16,54,72,42
140.16,140.544,55,79,42
140.64,141.024,43,72,42
142.08,142.56,47,72,42
142.56,143.04,48,72,42
143.04,143.52,43,79,42
143.52,143.76,55,72,42
144.96,145.44,59,72,42
145.44,145.92,60,72,42
145.92,146.304,55,72,42
149.76,150.0,47,86,42
150.0,150.24,48,86,42
150.24,150.48,49,95,42
150.48,150.72,50,95,42
150.72,150.96,52,86,42
150.96,151.2,50,86,42
151.2,151.44,48,86,42
151.44,151.68,45,86,42
151.68,152.064,43,86,42
152.64,152.832,47,86,42
152.88,153.072,43,86,42
153.12,153.312,48,94,42
153.36,153.552,43,94,42
153.6,153.792,50,86,42
153.84,154.032,43,86,42
154.08,154.272,52,86,42
154.32,154.512,43,86,42
154.56,154.944,55,104,42
161.76,162.0,55,95,42
162.0,162.24,54,95,42
162.24,162.48,53,86,42
162.48,162.72,50,86,42
162.72,162.96,52,86,42
162.96,163.2,48,86,42
163.2,164.28,41,114,42
164.64,165.024,42,72,42
166.08,166.464,43,72,42
169.92,170.304,52,65,42
170.4,170.784,53,72,42
171.36,171.744,55,65,42
171.84,172.224,57,72,42
172.8,173.184,52,65,42
173.28,173.664,53,72,42
174.24,174.624,55,65,42
174.72,175.104,48,72,42
175.68,176.064,40,99,42
176.16,176.544,41,108,42
177.12,177.504,43,99,42
177.6,177.984,45,108,42
178.56,178.944,40,99,42
179.04,179.424,41,108,42
179.52,179.904,38,99,42
180.0,180.384,43,99,42
180.48,180.864,36,108,42
182.4299,182.78545,48,77,42
183.76323,184.11879,48,77,42
185.09656,185.45212,48,102,42
185.541,185.89656,36,102,42
185.98544,186.341,43,102,42
186.4299,186.78545,55,102,42
187.76323,188.11877,55,71,42
189.09656,189.45212,43,71,42
190.42989,190.78545,55,95,42
190.87433,191.22989,43,95,42
191.31877,191.67433,48,95,42
191.76323,192.11877,60,95,42
198.87433,199.22987,46,95,42
199.31877,199.67433,51,95,42
200.20766,200.56322,55,95,42
200.6521,201.00766,58,95,42
201.54099,201.89655,62,95,42
201.98543,202.42987,63,95,42
203.86423,204.21977,48,77,42
205.19756,205.5531,48,77,42
206.53088,206.88644,48,102,42
206.97533,207.33089,36,102,42
207.41977,207.77533,43,102,42
207.86421,208.21977,55,102,42
209.19756,209.5531,55,71,42
210.53088,210.88643,43,71,42
211.86421,212.21977,55,95,42
212.30865,212.66422,43,95,42
212.7531,213.10866,48,95,42
213.19754,213.5531,60,95,42
220.30865,220.6642,46,95,42
220.7531,221.10864,51,95,42
221.64198,221.99753,55,95,42
222.08643,222.44199,58,95,42
222.97531,223.33087,62,95,42
223.41975,223.8642,63,95,42
225.19753,225.55309,61,71,42
226.53087,226.88641,52,71,42
227.8642,228.21976,48,95,42
228.30864,228.6642,36,95,42
228.75308,229.10864,41,95,42
229.19753,229.55309,53,95,42
230.53085,230.88641,63,63,42
231.8642,232.21974,54,63,42
233.19753,233.55309,50,95,42
233.64197,233.99753,38,95,42
234.08641,234.44197,43,95,42
234.53085,234.88641,55,95,42
234.9753,235.33086,55,95,42
235.41974,235.7753,55,72,42
235.86418,236.21974,55,75,42
236.30864,236.66418,55,77,42
236.75308,237.10863,55,80,42
237.19753,237.55307,43,82,42
237.64197,237.99751,43,85,42
238.08641,238.44197,43,87,42
238.53085,238.88641,55,90,42
238.9753,239.33086,55,93,42
239.41974,239.7753,55,95,42
239.86418,240.21974,43,98,42
240.30862,240.66418,43,114,42
240.75307,241.10863,48,95,42
241.64195,241.99751,51,95,42
242.08641,242.44196,55,95,42
242.9753,243.33084,60,95,42
243.41974,244.30862,63,95,42
244.30862,244.53085,62,95,42
244.53085,244.75307,60,95,42
244.75307,245.10863,59,95,42
245.64195,245.99751,65,95,42
246.0864,246.44196,59,95,42
246.97528,247.33084,62,95,42
247.41974,247.77528,53,95,42
248.30862,248.66417,47,95,42
248.75307,249.64195,56,95,42
249.64195,249.86418,55,95,42
249.86418,250.0864,53,95,42
250.0864,251.15306,52,95,42
251.41972,252.13084,53,67,42
252.30861,252.66417,55,67,42
252.75307,253.46417,57,67,42
253.64195,253.9975,56,67,42
254.0864,254.44194,55,67,42
254.97528,255.24194,43,67,42
255.41972,255.77528,36,67,42
255.86417,256.21973,48,67,42
257.1975,257.55307,61,71,42
258.53082,258.88638,52,71,42
259.86417,260.21973,48,95,42
260.3086,260.66415,36,95,42
260.75305,261.1086,41,95,42
261.1975,261.55304,53,95,42
262.53082,262.88638,63,63,42
263.86417,264.21973,54,63,42
265.19748,265.55304,50,95,42
265.64194,265.9975,38,95,42
266.08636,266.44193,43,95,42
266.53082,266.88638,55,95,42
266.97528,267.3308,55,95,42
267.4197,267.77527,55,72,42
267.86417,268.2197,55,75,42
268.3086,268.66415,55,77,42
268.75305,269.1086,55,80,42
269.19748,269.55304,43,82,42
269.64194,269.9975,43,85,42
270.08636,270.44193,43,87,42
270.53082,270.88638,55,90,42
270.97525,271.3308,55,93,42
271.4197,271.77527,55,95,42
271.86417,272.2197,43,98,42
272.3086,272.66415,43,114,42
272.75305,273.10858,48,95,42
273.64194,273.9975,51,95,42
274.08636,274.44193,55,95,42
274.97525,275.3308,60,95,42
275.4197,276.3086,63,95,42
276.3086,276.53082,62,95,42
276.53082,276.75302,60,95,42
276.75302,277.10858,59,95,42
277.64194,277.99747,65,95,42
278.08636,278.44193,59,95,42
278.97525,279.3308,62,95,42
279.4197,279.77527,53,95,42
280.3086,280.66415,47,95,42
280.75302,281.6419,56,95,42
281.6419,281.86414,55,95,42
281.86414,282.08636,53,95,42
282.08636,283.153,52,95,42
283.4197,284.1308,53,67,42
284.3086,284.66415,55,67,42
284.75302,285.46414,57,67,42
285.6419,285.99747,56,67,42
286.08636,286.44193,55,67,42
286.97525,287.2419,43,67,42
287.41968,287.77524,36,67,42
287.86414,288.2197,48,67,42
290.22858,290.3726,57,63,42
290.7086,290.85257,57,58,42
291.18857,291.33258,57,64,42
291.66858,291.8126,50,63,42
292.1486,292.29257,50,58,42
292.62857,292.77258,50,64,42
293.10858,293.5886,55,58,42
294.06857,294.28458,47,97,42
294.3086,294.52457,43,97,42
294.54858,294.7646,48,114,42
294.78857,295.00458,43,114,42
295.0286,295.24457,50,97,42
295.2686,295.4846,43,97,42
295.50858,295.72458,52,97,42
295.74857,295.96457,43,97,42
295.9886,296.4206,55,103,42
303.18857,303.4286,57,103,42
303.4286,303.66858,56,103,42
303.66858,303.90857,55,94,42
303.90857,304.1486,52,94,42
304.1486,304.38858,54,94,42
304.38858,304.62857,50,94,42
304.62857,305.9246,42,113,42
306.06857,306.35657,43,58,42
307.50858,307.79657,52,58,42
311.34857,311.63657,47,72,42
311.82858,312.11658,48,77,42
312.78857,313.07657,50,72,42
313.2686,313.55658,52,77,42
314.22858,314.51657,47,72,42
314.7086,314.99658,48,77,42
315.66858,315.95657,50,72,42
316.1486,316.5326,43,72,42
317.10858,317.34857,54,86,42
317.34857,317.5886,55,86,42
317.5886,317.82858,56,95,42
317.82858,318.06857,57,95,42
318.06857,318.3086,58,86,42
318.3086,318.54858,57,86,42
318.54858,318.78857,55,86,42
318.78857,319.0286,52,86,42
319.0286,319.17258,50,95,42
319.50858,319.6526,50,86,42
319.9886,320.13257,50,86,42
320.46857,320.61258,55,95,42
320.94858,321.0926,55,86,42
321.4286,321.57257,55,86,42
321.90857,323.34857,46,86,42
323.34857,324.50058,46,72,42
324.78857,324.9326,45,79,42
327.18857,327.4286,54,72,42
327.4286,327.66858,55,72,42
327.66858,327.90857,56,79,42
327.90857,328.1486,57,79,42
328.1486,328.38858,58,72,42
328.38858,328.62857,57,72,42
328.62857,328.8686,54,72,42
328.8686,329.10858,50,72,42
329.10858,329.49258,55,72,42
330.06857,330.3086,52,72,42
330.3086,330.54858,53,72,42
330.54858,330.78857,54,79,42
330.78857,331.0286,55,79,42
331.0286,331.2686,57,72,42
331.2686,331.50858,55,72,42
331.50858,331.74857,52,72,42
331.74857,331.9886,48,72,42
331.9886,332.3726,53,79,42
336.78857,337.17258,53,72,42
337.2686,337.6526,54,72,42
337.74857,338.13257,55,72,42
338.22858,338.61258,43,72,42
339.66858,340.05258,47,72,42
340.1486,340.5326,48,72,42
340.62857,341.01257,43,79,42
341.10858,341.49258,55,72,42
342.54858,342.9326,59,72,42
343.0286,343.41257,60,72,42
343.50858,343.89258,55,72,42
347.34857,347.5886,47,72,42
347.5886,347.82858,48,72,42
347.82858,348.06857,48,79,42
348.06857,348.3086,50,79,42
348.3086,348.54858,52,72,42
348.54858,348.78857,50,72,42
348.78857,349.0286,48,72,42
349.0286,349.2686,45,72,42
349.2686,349.6526,43,79,42
350.22858,350.4206,47,86,42
350.46857,350.66058,43,86,42
350.7086,350.90057,48,94,42
350.94858,351.1406,43,94,42
351.18857,351.38058,50,86,42
351.4286,351.62057,43,86,42
351.66858,351.86057,52,86,42
351.90857,352.1006,43,86,42
352.1486,352.5326,55,104,42
359.34857,359.5886,55,94,42
359.5886,359.82858,54,94,42
359.82858,360.06857,53,94,42
360.06857,360.3086,50,94,42
360.3086,360.54858,52,94,42
360.54858,360.78857,48,94,42
360.78857,361.94058,41,113,42
362.22858,362.61258,42,72,42
363.66858,364.05258,43,72,42
367.50858,367.89258,52,72,42
367.9886,368.3726,53,72,42
368.94858,369.33258,55,72,42
369.4286,369.8126,57,72,42
370.38858,370.77258,52,72,42
370.8686,371.2526,53,72,42
371.82858,372.2126,55,72,42
372.3086,372.69257,48,72,42
373.2686,373.6526,40,94,42
373.74857,374.13257,41,94,42
374.7086,375.0926,43,94,42
375.18857,375.57257,45,94,42
376.1486,376.5326,40,94,42
376.62857,377.01257,41,94,42
377.10858,377.52597,38,94,42
377.6303,378.08746,43,94,42
378.20175,378.64386,36,94,42
