start_time,end_time,note_value,velocity,instrument_program_number
0.0,0.06,79,89,40
0.2,0.26,79,89,40
0.4,1.0,79,89,40
1.0,1.2,84,89,40
1.2,1.8,83,89,40
1.8,2.0,77,89,40
2.0,2.2,76,89,40
2.2,2.4,72,89,40
2.4,2.6,69,89,40
2.6,2.8,74,89,40
2.8,3.0,72,89,40
3.0,3.16,71,89,40
3.2,3.32,67,89,40
3.4,3.52,67,89,40
3.6,3.66,72,89,40
3.8,3.86,72,89,40
4.0,4.06,73,89,40
4.2,4.26,73,107,40
4.4,4.46,74,89,40
4.6,4.66,74,89,40
4.8,4.86,75,89,40
5.0,5.06,75,89,40
5.2,5.4,76,89,40
5.4,5.6,79,89,40
5.6,5.8,77,89,40
5.8,6.0,81,89,40
6.0,6.2,76,89,40
6.2,6.36,74,107,40
6.4,6.46,79,89,40
6.6,6.66,79,89,40
6.8,7.4,79,89,40
7.4,7.6,84,89,40
7.6,8.2,83,89,40
8.2,8.4,77,89,40
8.4,8.6,76,89,40
8.6,8.8,72,89,40
8.8,9.0,69,89,40
9.0,9.2,74,89,40
9.2,9.4,72,89,40
9.4,9.46,71,89,40
9.6,9.66,72,89,40
9.8,9.86,72,89,40
10.0,10.06,74,89,40
10.2,10.26,74,89,40
10.4,10.46,76,102,40
10.6,10.66,76,89,40
10.8,10.86,77,89,40
11.0,11.06,77,89,40
11.2,11.26,78,89,40
11.4,11.46,78,89,40
11.6,11.8,79,89,40
11.8,11.96,76,89,40
12.0,12.1,79,89,40
12.1,12.2,77,89,40
12.2,12.3,76,89,40
12.3,12.4,74,89,40
12.4,12.56,72,89,40
12.8,12.86,60,96,40
13.0,13.06,60,96,40
13.2,13.32,59,96,40
13.6,13.66,77,77,40
13.8,13.86,77,77,40
14.0,14.2,77,77,40
14.2,14.3,79,77,40
14.3,14.4,81,77,40
14.4,14.5,79,77,40
14.5,14.6,77,77,40
14.6,14.7,76,77,40
14.7,14.8,74,77,40
14.8,15.0,72,77,40
15.0,15.4,71,77,40
15.4,15.6,72,77,40
15.6,15.8,73,77,40
15.8,15.96,74,77,40
16.0,16.06,60,96,40
16.2,16.26,60,96,40
16.4,16.52,59,96,40
16.8,16.86,77,77,40
17.0,17.06,77,77,40
17.2,17.36,77,77,40
17.4,17.48,79,77,40
17.5,17.58,81,77,40
17.6,17.68,79,77,40
17.7,17.78,77,77,40
17.8,17.88,76,77,40
17.9,17.98,74,77,40
18.0,18.16,72,77,40
18.2,18.52,71,77,40
18.6,18.76,72,77,40
18.8,19.0,76,89,40
19.0,19.16,74,77,40
19.2,19.26,79,80,40
19.4,19.46,79,80,40
19.6,20.2,79,80,40
20.2,20.4,84,80,40
20.4,21.0,83,80,40
21.0,21.2,77,80,40
21.2,21.4,76,69,40
21.4,21.6,72,76,40
21.6,21.8,69,82,40
21.8,22.0,74,87,40
22.0,22.2,71,94,40
22.2,22.4,76,101,40
22.4,22.6,72,107,40
22.6,22.8,77,113,40
22.8,22.96,74,114,40
23.0,23.06,79,114,40
24.0,24.06,79,89,40
24.2,24.26,79,89,40
24.4,25.0,79,89,40
25.0,25.2,80,89,40
25.2,25.8,81,89,40
25.8,25.9,77,89,40
25.9,26.0,74,89,40
26.0,26.4,72,89,40
26.4,26.6,76,89,40
26.6,26.8,74,89,40
26.8,27.0,72,89,40
27.2,27.26,60,96,40
27.4,27.46,60,96,40
27.6,27.72,55,96,40
28.0,28.06,64,96,40
28.2,28.26,64,96,40
28.4,28.46,60,96,40
28.6,28.66,67,96,40
28.8,28.86,64,96,40
29.0,29.06,72,96,40
29.2,29.26,67,96,40
29.4,29.46,76,96,40
29.6,29.66,72,96,40
29.8,29.86,79,96,40
30.0,30.06,76,96,40
30.2,30.26,84,96,40
30.4,30.46,79,96,40
30.6,30.66,88,96,40
30.8,31.44,89,113,40
31.6,32.24,65,95,40
32.4,32.46,64,96,40
32.6,32.66,72,96,40
32.8,32.86,69,96,40
33.0,33.06,76,96,40
33.2,33.26,72,96,40
33.4,33.46,81,96,40
33.6,33.66,76,96,40
33.8,33.86,84,96,40
34.0,34.64,87,113,40
34.8,35.44,63,95,40
35.6,35.66,62,96,40
35.8,35.86,70,96,40
36.0,36.06,67,96,40
36.2,36.26,74,96,40
36.4,36.46,70,96,40
36.6,36.66,79,96,40
36.8,36.86,74,96,40
37.0,37.06,86,96,40
37.2,37.84,85,113,40
38.0,38.64,61,95,40
38.8,38.96,62,95,40
39.2,39.26,74,95,40
39.4,39.46,74,95,40
39.6,39.76,74,95,40
40.0,40.06,86,95,40
40.2,40.26,86,95,40
40.4,40.56,86,95,40
40.8,40.86,74,95,40
41.0,41.06,74,95,40
41.2,41.26,74,95,40
41.4,41.46,74,95,40
41.6,41.66,86,95,40
41.8,41.86,86,95,40
42.0,42.16,86,95,40
42.4,42.46,74,39,40
42.6,42.66,74,39,40
42.8,42.96,74,39,40
43.2,43.26,71,67,40
43.4,43.46,71,67,40
43.6,44.56,71,67,40
44.6,44.7,72,67,40
44.7,44.8,74,67,40
44.8,44.86,76,67,40
45.0,45.06,76,67,40
45.2,45.4,76,67,40
45.4,45.56,69,67,40
45.6,45.66,74,67,40
45.8,45.86,74,67,40
46.0,46.2,74,67,40
46.2,46.36,67,67,40
46.4,46.46,72,67,40
46.6,46.66,72,67,40
46.8,47.04,72,67,40
47.1,47.18,74,67,40
47.2,47.44,71,67,40
47.5,47.58,72,67,40
47.6,47.9,69,67,40
47.9,47.98,71,67,40
48.0,48.3,67,67,40
48.3,48.38,69,67,40
48.4,48.6,66,67,40
48.6,48.76,69,67,40
48.8,48.86,69,67,40
49.0,49.06,69,67,40
49.2,49.4,69,67,40
49.4,49.56,70,67,40
49.6,49.66,71,115,40
49.8,49.86,71,115,40
50.0,50.96,71,115,40
51.0,51.1,73,115,40
51.1,51.2,74,115,40
51.2,51.26,76,115,40
51.4,51.46,76,115,40
51.6,51.8,76,115,40
51.8,51.96,69,92,40
52.0,52.06,74,115,40
52.2,52.26,74,92,40
52.4,52.6,74,115,40
52.6,52.76,67,92,40
52.8,52.86,72,115,40
53.0,53.06,72,92,40
53.2,53.5,72,115,40
53.5,53.6,74,115,40
53.6,53.9,71,115,40
53.9,54.0,72,115,40
54.0,54.053333,71,115,40
54.066666,54.12,69,115,40
54.133335,54.18667,71,115,40
54.2,54.253334,69,115,40
54.266666,54.32,71,115,40
54.333332,54.386665,69,115,40
54.4,54.453335,71,115,40
54.466667,54.52,69,115,40
54.533333,54.586666,71,115,40
54.6,54.65333,69,115,40
54.666668,54.72,67,115,40
54.733334,54.786667,69,115,40
54.8,54.96,67,115,40
55.2,55.3,73,80,40
55.3,55.38,74,80,40
55.4,55.43,73,80,40
55.5,55.53,74,80,40
55.6,55.7,76,80,40
55.7,55.78,74,80,40
55.8,55.83,73,80,40
55.9,55.93,74,80,40
56.0,56.1,72,80,40
56.1,56.18,71,80,40
56.2,56.23,69,80,40
56.3,56.33,67,80,40
56.4,56.5,67,80,40
56.5,56.58,66,80,40
56.6,56.63,64,80,40
56.7,56.73,62,80,40
56.8,56.9,73,80,40
56.9,56.98,74,80,40
57.0,57.03,73,80,40
57.1,57.13,74,80,40
57.2,57.3,76,80,40
57.3,57.38,74,80,40
57.4,57.43,72,80,40
57.5,57.53,71,80,40
57.6,57.7,69,80,40
57.7,57.78,71,80,40
57.8,57.83,72,80,40
57.9,57.93,74,80,40
58.0,58.1,72,80,40
58.1,58.18,71,80,40
58.2,58.23,69,80,40
58.3,58.33,67,80,40
58.4,58.5,73,80,40
58.5,58.58,74,80,40
58.6,58.63,73,80,40
58.7,58.73,74,80,40
58.8,58.9,76,80,40
58.9,58.98,74,80,40
59.0,59.03,73,80,40
59.1,59.13,74,80,40
59.2,59.3,72,80,40
59.3,59.38,71,80,40
59.4,59.43,69,80,40
59.5,59.53,67,80,40
59.6,59.7,67,80,40
59.7,59.78,66,80,40
59.8,59.83,64,80,40
59.9,59.93,62,80,40
60.0,60.1,73,80,40
60.1,60.18,74,80,40
60.2,60.23,73,80,40
60.3,60.33,74,80,40
60.4,60.5,76,80,40
60.5,60.58,74,80,40
60.6,60.63,72,80,40
60.7,60.73,71,80,40
60.8,60.9,69,80,40
60.9,60.98,71,80,40
61.0,61.03,72,80,40
61.1,61.13,74,80,40
61.2,61.3,72,80,40
61.3,61.38,71,80,40
61.4,61.43,69,80,40
61.5,61.53,67,80,40
61.6,61.7,78,80,40
61.7,61.78,79,80,40
61.8,61.83,81,80,40
61.9,61.93,79,80,40
62.0,62.1,78,80,40
62.1,62.18,76,80,40
62.2,62.23,75,80,40
62.3,62.33,76,80,40
62.4,62.5,74,80,40
62.5,62.58,72,80,40
62.6,62.63,71,80,40
62.7,62.73,72,80,40
62.8,62.9,71,80,40
62.9,62.98,72,80,40
63.0,63.03,74,80,40
63.1,63.13,76,80,40
63.2,63.3,78,80,40
63.3,63.38,79,80,40
63.4,63.43,81,80,40
63.5,63.53,79,80,40
63.6,63.7,78,80,40
63.7,63.78,76,80,40
63.8,63.83,75,80,40
63.9,63.93,76,80,40
64.0,64.1,74,80,40
64.1,64.18,72,80,40
64.2,64.23,71,80,40
64.3,64.33,72,80,40
64.4,64.5,71,80,40
64.5,64.58,72,80,40
64.6,64.63,74,80,40
64.7,64.73,76,80,40
64.8,64.9,78,96,40
64.9,64.98,79,96,40
65.0,65.03,81,80,40
65.1,65.13,79,80,40
65.2,65.3,78,80,40
65.3,65.38,76,80,40
65.4,65.43,75,80,40
65.5,65.53,76,80,40
65.6,65.7,74,96,40
65.7,65.78,72,96,40
65.8,65.83,71,80,40
65.9,65.93,72,80,40
66.0,66.1,72,80,40
66.1,66.18,71,80,40
66.2,66.23,76,80,40
66.3,66.33,74,80,40
66.4,66.5,73,96,40
66.5,66.58,74,96,40
66.6,66.63,76,80,40
66.7,66.73,74,80,40
66.8,66.9,72,80,40
66.9,66.98,71,80,40
67.0,67.03,76,80,40
67.1,67.13,74,80,40
67.2,67.3,73,96,40
67.3,67.38,74,96,40
67.4,67.43,76,80,40
67.5,67.53,74,80,40
67.6,67.7,72,80,40
67.7,67.78,71,80,40
67.8,67.83,76,80,40
67.9,67.93,74,80,40
68.0,68.1,73,96,40
68.1,68.18,74,96,40
68.2,68.23,76,80,40
68.3,68.33,74,80,40
68.4,68.5,72,80,40
68.5,68.58,71,80,40
68.6,68.63,76,80,40
68.7,68.73,74,80,40
68.8,68.9,73,96,40
68.9,68.98,74,96,40
69.0,69.03,76,80,40
69.1,69.13,74,80,40
69.2,69.4,72,80,40
69.4,69.6,71,80,40
69.6,69.8,76,80,40
69.8,70.0,74,80,40
70.0,70.76,74,56,40
70.8,71.6,75,80,40
71.6,72.4,70,80,40
72.4,72.72,67,80,40
73.0,73.2,67,80,40
73.2,73.4,70,80,40
73.4,73.6,74,80,40
73.6,73.8,77,80,40
73.8,74.0,74,80,40
74.0,74.8,75,80,40
74.8,75.6,70,80,40
75.6,75.92,67,80,40
76.2,76.36,67,80,40
76.4,76.6,70,80,40
76.6,76.8,74,80,40
76.8,77.0,77,80,40
77.0,77.2,74,80,40
77.2,78.0,75,80,40
78.0,78.96,74,80,40
79.0,79.16,72,80,40
79.2,79.92,72,80,40
80.0,80.32,73,80,40
80.4,81.04,74,80,40
81.2,81.84,66,80,40
82.0,82.08,67,104,40
82.1,82.18,66,104,40
82.2,82.28,64,104,40
82.3,82.38,62,104,40
82.4,82.48,64,104,40
82.5,82.58,66,104,40
82.6,82.68,67,104,40
82.7,82.78,69,104,40
82.8,82.88,71,104,40
82.9,82.98,69,104,40
83.0,83.08,67,104,40
83.1,83.18,66,104,40
83.2,83.28,67,104,40
83.3,83.38,69,104,40
83.4,83.48,71,104,40
83.5,83.58,72,104,40
83.6,83.68,76,104,40
83.7,83.78,74,104,40
83.8,83.88,72,104,40
83.9,83.98,71,104,40
84.0,84.08,72,104,40
84.1,84.18,74,104,40
84.2,84.28,76,104,40
84.3,84.38,78,104,40
84.4,84.48,79,104,40
84.5,84.58,78,104,40
84.6,84.68,76,104,40
84.7,84.78,74,104,40
84.8,84.88,76,104,40
84.9,84.98,78,104,40
85.0,85.08,79,104,40
85.1,85.18,81,104,40
85.2,85.28,83,104,40
85.3,85.38,81,104,40
85.4,85.48,79,104,40
85.5,85.58,78,104,40
85.6,85.68,79,104,40
85.7,85.78,81,104,40
85.8,85.88,83,104,40
85.9,85.98,84,104,40
86.0,87.2,86,95,40
87.2,87.6,85,95,40
87.6,87.92,84,95,40
88.0,88.06,83,95,40
88.2,88.26,83,95,40
88.4,88.6,83,95,40
88.6,88.76,84,95,40
88.8,88.86,82,95,40
89.0,89.06,82,95,40
89.2,89.4,82,95,40
89.4,89.56,83,95,40
89.6,89.66,80,95,40
89.8,89.86,80,95,40
90.0,90.2,80,95,40
90.2,90.36,81,95,40
90.4,90.46,78,95,40
90.6,90.66,78,95,40
90.8,91.0,78,95,40
91.0,91.16,79,95,40
91.2,91.26,73,95,40
91.4,91.46,73,95,40
91.6,92.2,74,96,40
92.2,92.36,79,96,40
92.4,93.0,71,96,40
93.0,93.1,72,96,40
93.1,93.2,69,96,40
93.2,93.52,67,96,40
94.0,94.1,68,67,40
94.1,94.2,69,67,40
94.2,94.3,71,67,40
94.3,94.4,72,67,40
94.4,94.5,73,67,40
94.5,94.6,74,67,40
94.6,94.7,76,67,40
94.7,94.8,74,67,40
94.8,95.2,74,89,40
95.2,95.36,79,67,40
95.6,96.0,69,89,40
96.0,96.16,74,67,40
96.4,96.8,72,89,40
96.8,96.96,71,67,40
97.2,97.28,68,67,40
97.3,97.38,69,67,40
97.4,97.48,71,67,40
97.5,97.58,72,67,40
97.6,97.68,73,67,40
97.7,97.78,74,67,40
97.8,97.88,76,67,40
97.9,97.98,74,67,40
98.0,98.4,74,97,40
98.4,98.56,79,67,40
98.8,99.2,67,80,40
99.2,99.36,71,67,40
99.4,99.56,69,67,40
99.6,99.76,67,67,40
100.0,100.16,71,67,40
100.4,100.56,72,67,40
100.8,100.96,69,67,40
101.2,101.36,71,67,40
101.6,101.76,79,67,40
102.0,102.16,81,67,40
102.4,102.56,78,67,40
102.8,102.96,79,67,40
103.2,103.26,88,73,40
103.4,103.46,88,73,40
103.6,103.8,88,73,40
103.8,103.96,81,73,40
104.0,104.06,86,73,40
104.2,104.26,86,73,40
104.4,104.6,86,64,40
104.6,104.76,79,78,40
104.8,104.86,79,79,40
105.0,105.06,79,80,40
105.2,105.26,79,83,40
105.4,105.46,79,84,40
105.6,105.66,79,85,40
105.8,105.86,79,86,40
106.0,106.2,81,97,40
106.2,106.36,79,89,40
106.4,106.46,79,90,40
106.6,106.66,79,91,40
106.8,106.86,79,94,40
107.0,107.06,79,95,40
107.2,107.26,79,96,40
107.4,107.46,79,97,40
107.6,107.8,81,108,40
107.8,107.96,79,83,40
108.8,108.86,79,89,40
109.0,109.06,79,89,40
109.2,109.8,79,89,40
109.8,110.0,84,89,40
110.0,110.6,83,89,40
110.6,110.8,77,89,40
110.8,111.0,75,102,40
111.0,111.2,72,89,40
111.2,111.4,68,89,40
111.4,111.6,74,89,40
111.6,111.8,72,102,40
111.8,111.86,71,89,40
112.0,112.06,67,89,40
112.2,112.26,67,89,40
112.4,112.6,72,82,40
112.6,112.8,71,89,40
112.8,113.0,72,89,40
113.0,113.2,75,89,40
113.2,113.4,74,89,40
113.4,113.6,73,89,40
113.6,113.8,74,89,40
113.8,114.0,77,89,40
114.0,114.2,75,89,40
114.2,114.4,79,89,40
114.4,114.6,77,89,40
114.6,114.8,80,89,40
114.8,115.0,75,113,40
115.0,115.2,74,89,40
115.2,115.26,79,102,40
115.4,115.46,79,102,40
115.6,116.08,79,102,40
116.2,116.36,84,102,40
116.4,116.88,83,102,40
117.0,117.16,77,102,40
117.2,117.4,75,92,40
117.4,117.6,72,92,40
117.6,117.8,69,92,40
117.8,118.0,74,92,40
118.0,118.2,71,93,40
118.2,118.4,75,96,40
118.4,118.6,72,99,40
118.6,118.8,77,102,40
118.8,119.0,74,106,40
119.0,119.2,79,108,40
119.2,119.4,75,113,40
119.4,119.6,80,114,40
119.6,119.8,77,114,40
119.8,119.96,82,114,40
120.8,120.86,70,64,40
121.0,121.06,70,64,40
121.2,121.8,70,64,40
121.8,122.0,75,64,40
122.0,122.6,74,64,40
122.6,122.8,68,64,40
122.8,123.0,67,64,40
123.0,123.16,70,64,40
125.6,125.66,72,62,40
125.8,125.86,72,62,40
126.0,126.48,72,62,40
126.6,126.76,77,62,40
126.8,127.28,76,62,40
127.4,127.56,70,62,40
127.6,127.8,69,62,40
127.8,127.96,72,62,40
129.6,129.66,87,106,40
129.8,129.86,87,106,40
130.0,130.2,87,106,40
130.2,130.36,81,106,40
130.4,130.46,84,108,40
130.6,130.66,84,108,40
130.8,131.0,84,106,40
131.0,131.16,78,106,40
131.2,131.26,81,106,40
131.4,131.46,81,106,40
131.6,131.8,81,106,40
131.8,131.96,75,106,40
132.0,132.06,83,106,40
132.2,132.26,83,106,40
132.4,132.6,83,106,40
132.6,132.76,76,106,40
132.8,133.12,79,106,40
133.2,133.52,78,106,40
133.6,133.92,82,106,40
134.0,134.32,83,106,40
134.4,134.72,86,106,40
134.8,135.12,85,106,40
135.2,135.26,85,106,40
135.4,135.46,85,106,40
135.6,135.76,85,106,40
135.8,135.96,78,106,40
136.0,136.32,81,106,40
136.4,136.72,80,106,40
136.8,137.12,84,106,40
137.2,137.52,85,106,40
137.6,137.92,88,106,40
138.0,138.32,87,106,40
138.4,138.46,87,106,40
138.6,138.66,87,106,40
138.8,139.0,87,106,40
139.0,139.16,80,106,40
139.2,139.26,83,106,40
139.4,139.46,83,106,40
139.6,139.8,83,106,40
139.8,139.96,76,106,40
140.0,140.06,80,106,40
140.2,140.26,80,106,40
140.4,140.6,80,106,40
140.6,140.76,73,106,40
140.8,140.86,76,106,40
141.0,141.06,76,106,40
141.2,141.4,76,106,40
141.4,141.56,69,106,40
141.6,141.66,85,106,40
141.8,141.86,85,106,40
142.0,142.2,85,106,40
142.2,142.36,78,106,40
142.4,142.46,81,106,40
142.6,142.66,81,106,40
142.8,143.0,81,106,40
143.0,143.16,80,106,40
143.2,143.26,78,106,40
143.4,143.46,76,106,40
143.6,144.0,75,106,40
143.6,144.0,83,106,40
144.8,144.86,71,77,40
145.0,145.06,71,77,40
145.2,145.68,71,77,40
145.8,145.96,76,77,40
146.0,146.48,75,77,40
146.6,146.76,69,77,40
146.8,146.96,68,77,40
147.0,147.16,71,77,40
148.0,148.06,71,92,40
148.2,148.26,71,92,40
148.4,148.88,71,92,40
149.0,149.16,76,92,40
149.2,149.68,75,92,40
149.8,149.96,69,92,40
150.0,150.2,67,92,40
150.2,150.32,71,92,40
151.2,151.26,71,92,40
151.4,151.46,71,92,40
151.6,152.08,71,92,40
152.2,152.36,76,92,40
152.4,152.88,76,92,40
153.0,153.16,79,92,40
153.2,153.36,79,92,40
153.4,153.56,77,115,40
155.2,155.26,71,115,40
155.4,155.46,72,115,40
155.6,155.66,74,115,40
155.8,155.86,76,115,40
156.0,156.06,77,115,40
156.2,156.26,79,115,40
156.4,156.6,81,115,40
156.6,156.66,79,115,40
156.8,156.86,79,115,40
157.0,157.06,79,115,40
157.2,157.4,81,115,40
157.4,157.46,79,115,40
157.6,157.8,81,115,40
157.8,157.86,79,115,40
158.0,158.2,81,115,40
158.2,158.26,79,115,40
159.2,159.26,79,92,40
159.4,159.46,79,92,40
159.6,160.2,79,92,40
160.2,160.4,84,92,40
160.4,161.0,83,92,40
161.0,161.2,77,92,40
161.2,161.4,76,92,40
161.4,161.6,72,92,40
161.6,161.8,69,92,40
161.8,162.0,74,92,40
162.0,162.2,72,92,40
162.2,162.36,71,92,40
162.4,162.46,67,92,40
162.6,162.66,67,92,40
162.8,162.86,72,92,40
163.0,163.06,72,73,40
163.2,163.26,73,92,40
163.4,163.46,73,92,40
163.6,163.66,74,92,40
163.8,163.86,74,92,40
164.0,164.06,75,92,40
164.2,164.26,75,92,40
164.4,164.6,76,92,40
164.6,164.8,79,92,40
164.8,165.0,77,92,40
165.0,165.2,81,92,40
165.2,165.4,76,92,40
165.4,165.56,74,92,40
165.6,165.66,79,92,40
165.8,165.86,79,92,40
166.0,166.6,79,92,40
166.6,166.8,84,92,40
166.8,167.4,83,92,40
167.4,167.6,77,92,40
167.6,167.8,76,92,40
167.8,168.0,72,92,40
168.0,168.2,69,92,40
168.2,168.4,74,92,40
168.4,168.6,72,92,40
168.6,168.76,71,92,40
168.8,168.86,72,92,40
169.0,169.06,72,92,40
169.2,169.26,74,92,40
169.4,169.46,74,92,40
169.6,169.66,76,92,40
169.8,169.86,76,92,40
170.0,170.06,77,92,40
170.2,170.26,77,92,40
170.4,170.46,78,92,40
170.6,170.66,78,92,40
170.8,171.0,79,92,40
171.0,171.12,76,92,40
171.2,171.3,79,92,40
171.3,171.4,77,92,40
171.4,171.5,76,92,40
171.5,171.6,74,92,40
171.6,171.76,72,92,40
172.0,172.06,60,115,40
172.2,172.26,60,115,40
172.4,172.52,59,115,40
172.8,172.86,77,92,40
173.0,173.06,77,92,40
173.2,173.36,77,92,40
173.4,173.48,79,92,40
173.5,173.58,81,92,40
173.6,173.68,79,92,40
173.7,173.78,77,92,40
173.8,173.88,76,92,40
173.9,173.98,74,92,40
174.0,174.16,72,92,40
174.2,174.52,71,92,40
174.6,174.76,72,92,40
174.8,175.0,73,92,40
175.0,175.16,74,92,40
175.2,175.26,60,115,40
175.4,175.46,60,115,40
175.6,175.76,59,115,40
176.0,176.06,77,92,40
176.2,176.26,77,92,40
176.4,176.6,77,92,40
176.6,176.7,79,92,40
176.7,176.8,81,92,40
176.8,176.9,79,92,40
176.9,177.0,77,92,40
177.0,177.1,76,92,40
177.1,177.2,74,92,40
177.2,177.4,72,92,40
177.4,177.8,71,92,40
177.8,178.0,72,92,40
178.0,178.16,76,92,40
178.2,178.36,74,92,40
178.4,178.46,79,92,40
178.6,178.66,79,92,40
178.8,179.4,79,92,40
179.4,179.6,84,92,40
179.6,180.2,83,92,40
180.2,180.4,77,92,40
180.4,180.6,76,97,40
180.6,180.8,72,102,40
180.8,181.0,69,104,40
181.0,181.2,74,106,40
181.2,181.4,71,110,40
181.4,181.6,76,113,40
181.6,181.8,72,114,40
181.8,182.0,77,114,40
182.0,182.2,74,114,40
182.2,182.32,79,114,40
183.2,183.26,79,93,40
183.4,183.46,79,94,40
183.6,184.2,79,97,40
184.2,184.4,80,103,40
184.4,185.0,81,104,40
185.0,185.1,77,108,40
185.1,185.2,74,108,40
185.2,185.6,72,108,40
185.6,185.8,76,108,40
185.8,186.0,74,108,40
186.0,186.2,72,108,40
186.4,186.46,60,96,40
186.6,186.66,60,96,40
186.8,186.96,55,96,40
187.2,187.26,64,113,40
187.4,187.46,64,113,40
187.6,187.66,60,113,40
187.8,187.86,67,113,40
188.0,188.06,64,113,40
188.2,188.26,72,113,40
188.4,188.46,67,113,40
188.6,188.66,76,113,40
188.8,188.86,72,113,40
189.0,189.06,79,113,40
189.2,189.26,76,113,40
189.4,189.46,84,113,40
189.6,189.66,79,113,40
189.8,189.86,88,113,40
190.0,190.64,89,110,40
190.8,191.44,65,113,40
191.6,191.66,64,113,40
191.8,191.86,72,113,40
192.0,192.06,67,113,40
192.2,192.26,76,113,40
192.4,192.46,72,113,40
192.6,192.66,79,113,40
192.8,192.86,76,113,40
193.0,193.06,84,113,40
193.2,193.84,86,110,40
194.0,194.64,62,113,40
194.8,194.86,60,113,40
195.0,195.06,69,113,40
195.2,195.26,64,113,40
195.4,195.46,72,114,40
195.6,195.66,69,113,40
195.8,195.86,76,113,40
196.0,196.06,72,113,40
196.2,196.26,84,113,40
196.4,197.04,82,110,40
197.2,197.84,58,113,40
198.0,198.06,57,113,40
198.2,198.26,65,113,40
198.4,198.46,60,113,40
198.6,198.66,69,113,40
198.8,198.86,65,113,40
199.0,199.06,72,113,40
199.2,199.26,69,113,40
199.4,199.46,81,113,40
199.6,200.24,84,110,40
200.4,201.04,60,113,40
201.2,201.36,59,113,40
201.6,201.66,67,86,40
201.8,201.86,67,86,40
202.0,202.16,67,86,40
202.4,202.46,79,104,40
202.6,202.66,79,104,40
202.8,202.96,79,104,40
203.2,203.26,67,104,40
203.4,203.46,67,104,40
203.6,203.66,67,104,40
203.8,203.86,67,104,40
204.0,204.06,79,104,40
204.2,204.26,79,104,40
204.4,204.56,79,104,40
204.8,204.86,67,77,40
205.0,205.06,67,77,40
205.2,205.36,67,77,40
205.6,205.66,76,77,40
205.8,205.86,76,77,40
206.0,207.0,76,77,40
207.0,207.1,77,77,40
207.1,207.2,79,77,40
207.2,207.26,81,77,40
207.4,207.46,81,77,40
207.6,207.8,81,77,40
207.8,207.96,74,77,40
208.0,208.06,79,77,40
208.2,208.26,79,77,40
208.4,208.6,79,77,40
208.6,208.76,72,77,40
208.8,208.86,77,77,40
209.0,209.06,77,77,40
209.2,209.5,77,77,40
209.5,209.6,79,77,40
209.6,209.9,76,77,40
209.9,210.0,77,77,40
210.0,210.3,74,77,40
210.3,210.4,76,77,40
210.4,210.7,72,77,40
210.7,210.8,74,77,40
210.8,211.0,71,77,40
211.0,211.16,74,77,40
211.2,211.26,74,77,40
211.4,211.46,74,77,40
211.6,211.76,74,77,40
211.8,212.0,74,49,40
212.0,212.06,76,115,40
212.2,212.26,76,115,40
212.4,213.36,76,115,40
213.4,213.48,78,115,40
213.5,213.58,79,115,40
213.6,213.66,81,104,40
213.8,213.86,81,104,40
214.0,214.2,81,113,40
214.2,214.32,74,104,40
214.4,214.46,79,104,40
214.6,214.66,79,104,40
214.8,215.0,79,113,40
215.0,215.12,72,104,40
215.2,215.26,77,104,40
215.4,215.46,77,104,40
215.6,215.9,77,115,40
215.9,216.0,79,115,40
216.0,216.3,76,115,40
216.3,216.4,77,115,40
216.4,216.46666,76,115,40
216.46666,216.53334,74,115,40
216.53334,216.6,76,96,40
216.6,216.66667,74,96,40
216.66667,216.73334,76,96,40
216.73334,216.8,74,96,40
216.8,216.86667,76,96,40
216.86667,216.93333,74,96,40
216.93333,217.0,76,96,40
217.0,217.06667,74,96,40
217.06667,217.13333,72,96,40
217.13333,217.2,74,96,40
217.2,217.36,72,96,40
217.6,217.7,78,89,40
217.7,217.78,79,89,40
217.8,217.83,78,89,40
217.9,217.93,79,89,40
218.0,218.1,81,89,40
218.1,218.18,79,89,40
218.2,218.23,78,89,40
218.3,218.33,79,89,40
218.4,218.5,77,89,40
218.5,218.58,76,89,40
218.6,218.63,74,89,40
218.7,218.73,72,89,40
218.8,218.9,72,89,40
218.9,218.98,71,89,40
219.0,219.03,69,89,40
219.1,219.13,67,89,40
219.2,219.3,78,89,40
219.3,219.38,79,89,40
219.4,219.43,78,89,40
219.5,219.53,79,89,40
219.6,219.7,81,89,40
219.7,219.78,79,89,40
219.8,219.83,77,89,40
219.9,219.93,76,89,40
220.0,220.1,74,89,40
220.1,220.18,76,89,40
220.2,220.23,77,89,40
220.3,220.33,79,89,40
220.4,220.5,77,89,40
220.5,220.58,76,89,40
220.6,220.63,74,89,40
220.7,220.73,72,89,40
220.8,220.9,78,89,40
220.9,220.98,79,89,40
221.0,221.03,78,89,40
221.1,221.13,79,89,40
221.2,221.3,81,89,40
221.3,221.38,79,89,40
221.4,221.43,78,89,40
221.5,221.53,79,89,40
221.6,221.7,77,89,40
221.7,221.78,76,89,40
221.8,221.83,74,89,40
221.9,221.93,72,89,40
222.0,222.1,72,89,40
222.1,222.18,71,89,40
222.2,222.28,69,89,40
222.3,222.33,67,89,40
222.4,222.5,78,89,40
222.5,222.58,79,89,40
222.6,222.63,78,89,40
222.7,222.73,79,89,40
222.8,222.9,81,89,40
222.9,222.98,79,89,40
223.0,223.03,77,89,40
223.1,223.13,76,89,40
223.2,223.3,74,89,40
223.3,223.38,76,89,40
223.4,223.43,77,89,40
223.5,223.53,79,89,40
223.6,223.7,77,89,40
223.7,223.78,76,89,40
223.8,223.83,74,89,40
223.9,223.93,72,89,40
224.0,224.1,83,89,40
224.1,224.2,84,89,40
224.2,224.23,86,89,40
224.3,224.33,84,89,40
224.4,224.5,83,89,40
224.5,224.58,81,89,40
224.6,224.63,80,89,40
224.7,224.73,81,89,40
224.8,224.9,79,89,40
224.9,224.98,77,89,40
225.0,225.03,76,89,40
225.1,225.13,77,89,40
225.2,225.3,76,89,40
225.3,225.4,77,89,40
225.4,225.43,79,89,40
225.5,225.53,81,89,40
225.6,225.7,83,89,40
225.7,225.78,84,89,40
225.8,225.83,86,89,40
225.9,225.93,84,89,40
226.0,226.1,83,89,40
226.1,226.18,81,89,40
226.2,226.23,80,89,40
226.3,226.33,81,89,40
226.4,226.5,79,89,40
226.5,226.58,77,89,40
226.6,226.63,76,89,40
226.7,226.73,77,89,40
226.8,226.9,76,89,40
226.9,226.98,77,89,40
227.0,227.03,79,89,40
227.1,227.13,81,89,40
227.2,227.3,83,89,40
227.3,227.38,84,89,40
227.4,227.43,86,89,40
227.5,227.53,84,89,40
227.6,227.7,83,89,40
227.7,227.78,81,89,40
227.8,227.83,80,89,40
227.9,227.93,81,89,40
228.0,228.1,79,71,40
228.1,228.18,77,89,40
228.2,228.23,76,89,40
228.3,228.33,77,89,40
228.4,228.5,76,89,40
228.5,228.58,77,89,40
228.6,228.63,79,89,40
228.7,228.73,81,89,40
228.8,228.9,83,89,40
228.9,228.98,84,89,40
229.0,229.03,86,89,40
229.1,229.13,84,89,40
229.2,229.3,83,89,40
229.3,229.4,81,89,40
229.4,229.43,80,89,40
229.5,229.53,81,89,40
229.6,229.7,79,89,40
229.7,229.78,77,89,40
229.8,229.83,76,89,40
229.9,229.93,77,89,40
230.0,230.1,77,89,40
230.1,230.2,76,71,40
230.2,230.23,81,89,40
230.3,230.33,79,89,40
230.4,230.5,78,89,40
230.5,230.58,79,89,40
230.6,230.63,81,89,40
230.7,230.73,79,89,40
230.8,230.9,77,89,40
230.9,230.98,76,89,40
231.0,231.03,81,89,40
231.1,231.13,79,89,40
231.2,231.3,78,89,40
231.3,231.38,79,89,40
231.4,231.43,81,89,40
231.5,231.53,79,89,40
231.6,231.7,77,89,40
231.7,231.78,76,89,40
231.8,231.83,81,89,40
231.9,231.93,79,89,40
232.0,232.1,78,89,40
232.1,232.18,79,89,40
232.2,232.23,81,89,40
232.3,232.33,79,89,40
232.4,232.5,77,89,40
232.5,232.58,76,89,40
232.6,232.63,81,89,40
232.7,232.73,79,89,40
232.8,232.9,78,89,40
232.9,232.98,79,89,40
233.0,233.03,81,89,40
233.1,233.13,79,89,40
233.2,233.4,77,89,40
233.4,233.6,76,89,40
233.6,233.8,81,89,40
233.8,234.0,79,89,40
234.0,234.8,79,89,40
234.8,235.6,80,74,40
235.6,236.4,75,74,40
236.4,236.8,72,74,40
237.0,237.16,72,74,40
237.2,237.4,75,74,40
237.4,237.6,79,74,40
237.6,237.8,82,74,40
237.8,238.0,79,74,40
238.0,238.8,80,89,40
238.8,239.6,75,89,40
239.6,239.92,72,89,40
240.2,240.36,72,89,40
240.4,240.6,75,89,40
240.6,240.8,79,89,40
240.8,241.0,82,89,40
241.0,241.2,79,89,40
241.2,242.0,80,89,40
242.0,243.0,79,89,40
243.0,243.16,77,89,40
243.2,244.0,77,89,40
244.0,244.4,78,89,40
244.4,245.2,79,89,40
245.2,246.0,71,89,40
246.0,246.8,72,103,40
246.8,247.6,60,119,40
247.6,248.0,61,101,40
249.2,250.0,85,99,40
250.0,250.8,80,110,40
250.8,251.12,77,110,40
251.4,251.56,77,110,40
251.6,251.8,80,110,40
251.8,252.0,84,110,40
252.0,252.2,87,110,40
252.2,252.4,84,110,40
252.4,253.2,85,110,40
253.2,254.0,80,92,40
254.0,254.32,77,92,40
254.6,254.76,77,92,40
254.8,255.0,80,92,40
255.0,255.2,84,92,40
255.2,255.4,87,92,40
255.4,255.6,84,92,40
255.6,256.4,85,92,40
256.4,257.2,84,92,40
257.2,258.0,79,92,40
258.0,258.8,71,92,40
258.8,259.6,72,92,40
259.6,260.4,66,92,40
260.4,261.2,67,74,40
261.2,262.0,59,74,40
262.0,262.08,60,120,40
262.1,262.18,59,96,40
262.2,262.28,57,96,40
262.3,262.38,55,96,40
262.4,262.48,57,96,40
262.5,262.58,59,96,40
262.6,262.68,60,96,40
262.7,262.78,62,96,40
262.8,262.88,64,96,40
262.9,262.98,62,96,40
263.0,263.08,60,96,40
263.1,263.18,59,96,40
263.2,263.28,60,96,40
263.3,263.38,62,96,40
263.4,263.48,64,96,40
263.5,263.58,65,96,40
263.6,263.68,69,96,40
263.7,263.78,67,96,40
263.8,263.88,65,96,40
263.9,263.98,64,96,40
264.0,264.08,65,96,40
264.1,264.18,67,96,40
264.2,264.28,69,96,40
264.3,264.38,71,96,40
264.4,264.48,72,96,40
264.5,264.58,71,96,40
264.6,264.68,69,96,40
264.7,264.78,67,96,40
264.8,264.88,69,96,40
264.9,264.98,71,96,40
265.0,265.08,72,96,40
265.1,265.18,74,96,40
265.2,265.28,76,96,40
265.3,265.38,74,96,40
265.4,265.48,72,96,40
265.5,265.58,71,96,40
265.6,265.68,72,96,40
265.7,265.78,74,96,40
265.8,265.88,76,96,40
265.9,265.98,77,96,40
266.0,267.2,79,96,40
267.2,267.6,78,96,40
267.6,268.0,77,96,40
268.0,268.06,76,96,40
268.2,268.26,76,96,40
268.4,268.6,76,96,40
268.6,268.76,77,96,40
268.8,268.86,75,96,40
269.0,269.06,75,96,40
269.2,269.4,75,96,40
269.4,269.56,76,96,40
269.6,269.66,85,96,40
269.8,269.86,85,96,40
270.0,270.2,85,96,40
270.2,270.36,86,96,40
270.4,270.46,83,96,40
270.6,270.66,83,96,40
270.8,271.0,83,96,40
271.0,271.16,84,96,40
271.2,271.26,78,96,40
271.4,271.46,78,96,40
271.6,272.2,79,96,40
272.2,272.4,84,96,40
272.4,273.0,76,96,40
273.0,273.1,77,96,40
273.1,273.2,74,96,40
273.2,273.6,72,96,40
274.0,274.1,73,77,40
274.1,274.2,74,77,40
274.2,274.3,76,77,40
274.3,274.4,77,77,40
274.4,274.5,78,77,40
274.5,274.6,79,77,40
274.6,274.7,81,77,40
274.7,274.8,79,77,40
274.8,275.2,79,92,40
275.2,275.36,84,77,40
275.6,276.0,74,92,40
276.0,276.16,79,77,40
276.4,276.8,77,92,40
276.8,276.96,76,77,40
277.2,277.3,61,77,40
277.3,277.4,62,77,40
277.4,277.5,64,77,40
277.5,277.6,65,77,40
277.6,277.7,66,77,40
277.7,277.8,67,77,40
277.8,277.9,69,77,40
277.9,278.0,67,77,40
278.0,278.4,67,84,40
278.4,278.56,72,77,40
278.8,279.2,60,77,40
279.2,279.4,64,77,40
279.4,279.6,62,77,40
279.6,279.76,60,77,40
280.0,280.16,64,64,40
280.4,280.56,65,64,40
280.8,280.96,62,64,40
281.2,281.36,64,64,40
281.6,281.76,72,64,40
282.0,282.16,74,64,40
282.4,282.56,71,64,40
282.8,282.96,72,64,40
283.2,283.26,81,99,40
283.4,283.46,81,99,40
283.6,283.8,81,114,40
283.8,283.96,74,99,40
284.0,284.06,79,99,40
284.2,284.26,79,99,40
284.4,284.56,79,114,40
284.6,284.66,72,99,40
284.8,284.86,72,69,40
285.0,285.06,72,69,40
285.2,285.26,72,69,40
285.4,285.46,72,69,40
285.6,285.66,72,69,40
285.8,285.86,72,69,40
286.0,286.2,74,83,40
286.2,286.26,72,69,40
286.4,286.46,84,69,40
286.6,286.66,84,69,40
286.8,286.86,84,69,40
287.0,287.06,84,69,40
287.2,287.26,84,69,40
287.4,287.46,84,69,40
287.6,287.8,86,83,40
287.8,287.96,84,69,40
288.0,288.06,84,69,40
288.2,288.26,84,69,40
288.4,288.6,84,77,40
288.6,288.76,83,77,40
288.8,288.86,83,77,40
289.0,289.06,82,77,40
289.2,289.4,82,77,40
289.4,289.56,81,77,40
289.6,289.66,81,77,40
289.8,289.86,81,77,40
290.0,290.2,81,77,40
290.2,290.36,81,77,40
290.4,290.46,81,77,40
290.6,290.66,80,77,40
290.8,291.0,80,77,40
291.0,291.16,79,77,40
291.2,291.26,79,77,40
291.4,291.46,79,77,40
291.6,291.8,79,77,40
291.8,291.96,77,77,40
292.0,292.06,77,77,40
292.2,292.26,77,77,40
292.4,292.6,77,77,40
292.6,292.76,76,77,40
292.8,292.86,76,77,40
293.0,293.06,76,77,40
293.2,293.4,76,77,40
293.4,293.56,74,77,40
293.6,293.66,74,77,40
293.8,293.86,74,77,40
294.0,294.2,76,77,40
294.2,294.36,74,77,40
294.4,294.46,74,77,40
294.6,294.66,74,77,40
294.8,295.0,76,77,40
295.0,295.16,74,77,40
295.2,295.26,74,77,40
295.4,295.46,74,77,40
295.6,295.8,76,77,40
295.8,295.96,74,77,40
296.0,296.06,74,77,40
296.2,296.26,74,77,40
296.4,296.6,75,77,40
296.6,296.76,74,77,40
296.8,296.86,74,77,40
297.0,297.06,74,77,40
297.2,297.4,75,77,40
297.4,297.56,74,77,40
297.6,297.66,74,77,40
297.8,297.86,74,77,40
298.4,298.46,79,92,40
298.6,298.66,79,92,40
298.8,299.36334,79,92,40
299.4,299.56,84,92,40
299.6,300.16333,83,92,40
300.2,300.36,77,92,40
300.4,300.6,76,90,40
300.6,300.8,72,92,40
300.8,301.0,69,96,40
301.0,301.2,74,98,40
301.2,301.4,71,85,40
301.4,301.6,76,87,40
301.6,301.8,72,90,40
301.8,302.0,77,92,40
302.0,302.2,74,95,40
302.2,302.36,79,97,40
303.2,303.26,79,110,40
303.4,303.46,79,110,40
303.6,304.08,79,110,40
304.2,304.36,80,110,40
304.4,305.0,81,110,40
305.0,305.1,77,110,40
305.1,305.2,74,110,40
305.2,305.8,72,110,40
305.8,305.9,76,110,40
305.9,306.0,74,110,40
306.0,306.2,72,110,40
306.4,306.96,79,83,40
307.0,307.08,81,83,40
307.1,307.18,79,83,40
307.2,307.76,79,83,40
307.8,307.88,78,75,40
307.9,307.98,79,76,40
308.0,308.56,79,77,40
308.6,308.68,81,83,40
308.7,308.78,79,84,40
308.8,309.36,79,85,40
309.4,309.48,78,92,40
309.5,309.58,79,93,40
309.6,310.16,79,94,40
310.2,310.28,81,100,40
310.3,310.38,79,101,40
310.4,310.96,79,102,40
311.0,311.16,79,108,40
311.4,311.56,79,64,40
311.6,311.9,79,64,40
311.9,312.0,81,64,40
312.0,312.3,79,64,40
312.3,312.4,81,64,40
312.4,312.5,79,64,40
312.5,312.6,81,64,40
312.6,312.7,79,64,40
312.7,312.8,81,64,40
312.8,312.9,79,75,40
312.9,313.0,81,78,40
313.0,313.1,79,80,40
313.1,313.2,81,83,40
313.2,313.3,79,85,40
313.3,313.4,81,88,40
313.4,313.5,79,91,40
313.5,313.6,81,93,40
313.6,313.7,79,96,40
313.7,313.8,81,98,40
313.8,313.9,79,101,40
313.9,314.0,81,103,40
314.0,314.16,79,114,40
314.2,314.36,88,113,40
314.6,314.76,86,113,40
315.0,315.16,84,113,40
315.4,315.56,81,113,40
315.8,315.96,79,113,40
316.2,316.36,71,113,40
316.4,316.72,72,90,40
317.2,318.0,89,123,40
318.0,318.4,88,108,40
318.8,319.6,77,108,40
319.6,320.0,76,102,40
320.4,321.2,65,114,40
321.2,321.36,64,103,40
321.4,321.56,79,64,40
321.8,321.96,79,64,40
322.0,322.3,79,64,40
322.3,322.4,81,64,40
322.4,322.7,79,64,40
322.7,322.8,81,64,40
322.8,322.9,79,64,40
322.9,323.0,81,64,40
323.0,323.1,79,64,40
323.1,323.2,81,64,40
323.2,323.3,79,70,40
323.3,323.4,81,73,40
323.4,323.5,79,76,40
323.5,323.6,81,79,40
323.6,323.7,79,81,40
323.7,323.8,81,84,40
323.8,323.9,79,87,40
323.9,324.0,81,90,40
324.0,324.1,79,93,40
324.1,324.2,81,96,40
324.2,324.3,79,99,40
324.3,324.4,81,101,40
324.4,324.56,79,113,40
324.6,324.76,88,114,40
325.0,325.16,86,114,40
325.4,325.56,84,114,40
325.8,325.96,81,114,40
326.2,326.36,79,114,40
326.6,326.76,71,114,40
326.8,327.2,72,95,40
327.2,327.6,73,95,40
327.6,328.0,74,95,40
328.0,328.4,76,105,40
328.4,328.8,77,105,40
328.8,328.86,81,102,40
329.0,329.06,81,102,40
329.2,329.4,81,102,40
329.4,329.56,74,90,40
330.0,330.4,72,105,40
330.4,330.8,73,105,40
330.8,331.2,74,105,40
331.2,331.6,76,105,40
331.6,332.0,77,64,40
332.0,332.06,81,102,40
332.2,332.26,81,102,40
332.4,332.6,81,102,40
332.6,332.76,74,102,40
333.6,333.66,69,112,40
333.8,333.86,69,112,40
334.0,334.2,69,112,40
334.2,334.36,62,112,40
334.4,334.46,67,112,40
334.6,334.66,67,112,40
334.8,335.0,67,112,40
335.0,335.08,60,112,40
335.1,335.36,55,101,40
335.2,335.36,62,101,40
335.2,335.36,71,101,40
335.5,335.76,55,101,40
335.6,335.76,72,114,40
335.6,335.76,64,114,40
335.91364,336.20908,67,101,40
336.02728,336.20908,74,114,40
336.02728,336.20908,83,114,40
336.3682,336.69052,67,101,40
336.4818,336.69052,84,114,40
336.4818,336.69052,76,114,40
0.4,0.6,67,64,40
0.6,0.8,64,64,40
0.8,1.0,67,64,40
1.2,1.4,65,64,40
1.4,1.6,62,64,40
1.6,1.8,65,64,40
2.2,2.4,67,64,40
2.4,2.6,60,64,40
2.6,2.8,69,64,40
2.8,3.0,64,64,40
3.0,3.16,62,64,40
3.6,3.66,67,64,40
3.8,3.86,67,64,40
4.0,4.06,67,64,40
4.2,4.26,67,64,40
4.4,4.46,67,64,40
4.6,4.66,67,64,40
4.8,4.86,67,64,40
5.0,5.06,67,64,40
5.2,5.4,67,64,40
5.4,5.8,72,64,40
5.8,6.0,72,64,40
6.0,6.2,72,64,40
6.2,6.36,71,64,40
6.8,6.9,64,51,40
6.9,7.0,60,51,40
7.0,7.1,64,51,40
7.1,7.2,60,51,40
7.2,7.4,64,51,40
7.6,7.7,65,51,40
7.7,7.8,62,51,40
7.8,7.9,65,51,40
7.9,8.0,62,51,40
8.0,8.2,65,51,40
8.6,8.8,67,64,40
8.8,9.0,60,64,40
9.0,9.2,69,64,40
9.2,9.36,64,64,40
9.4,9.46,62,64,40
9.6,9.66,60,64,40
9.8,9.86,60,64,40
10.0,10.06,60,64,40
10.2,10.26,60,64,40
10.4,10.46,60,64,40
10.6,10.66,60,64,40
10.8,10.86,72,64,40
11.0,11.06,72,64,40
11.2,11.26,72,64,40
11.4,11.46,72,64,40
11.6,11.92,72,64,40
12.0,12.1,76,64,40
12.1,12.2,74,64,40
12.2,12.3,72,64,40
12.3,12.4,71,64,40
12.4,12.56,72,64,40
12.8,12.86,60,96,40
13.0,13.06,60,96,40
13.2,13.32,59,96,40
14.4,14.46,65,92,40
14.6,14.66,65,92,40
14.8,15.0,65,92,40
15.0,15.1,67,92,40
15.1,15.2,69,92,40
15.2,15.3,67,92,40
15.3,15.4,65,92,40
15.4,15.5,64,92,40
15.5,15.6,62,92,40
15.6,15.8,60,92,40
15.8,16.0,59,92,40
16.0,16.06,60,96,40
16.2,16.26,60,96,40
16.4,16.52,59,96,40
17.6,17.66,65,92,40
17.8,17.86,65,92,40
18.0,18.16,65,92,40
18.2,18.28,67,92,40
18.3,18.38,69,92,40
18.4,18.48,67,92,40
18.5,18.58,65,92,40
18.6,18.68,64,92,40
18.7,18.78,62,92,40
18.8,19.0,60,106,40
19.0,19.16,59,92,40
19.6,19.8,67,58,40
19.8,20.0,64,58,40
20.0,20.2,67,58,40
20.4,20.6,65,58,40
20.6,20.8,62,58,40
20.8,21.0,65,58,40
21.4,21.6,67,63,40
21.6,21.8,60,68,40
21.8,22.0,69,73,40
22.0,22.2,62,78,40
22.2,22.4,71,84,40
22.4,22.6,64,89,40
22.6,22.8,72,94,40
22.8,23.0,67,86,40
23.0,23.06,77,86,40
24.4,24.52,72,64,40
24.6,24.72,72,64,40
24.8,24.92,72,64,40
25.2,25.32,72,64,40
25.4,25.52,72,64,40
25.6,25.72,72,64,40
26.0,26.1,64,64,40
26.1,26.2,67,64,40
26.2,26.3,64,64,40
26.3,26.4,67,64,40
26.4,26.5,64,64,40
26.5,26.6,67,64,40
26.6,26.7,65,64,40
26.7,26.8,67,64,40
26.8,27.0,64,64,40
27.2,27.26,60,96,40
27.4,27.46,60,96,40
27.6,27.72,55,96,40
28.0,28.06,64,96,40
28.2,28.26,64,96,40
28.4,28.46,60,96,40
28.6,28.66,67,96,40
28.8,28.86,64,96,40
29.0,29.06,72,96,40
29.2,29.26,67,96,40
29.4,29.46,76,96,40
29.6,29.66,72,96,40
29.8,29.86,79,96,40
30.0,30.06,76,96,40
30.2,30.26,72,96,40
30.4,30.46,67,96,40
30.6,30.66,76,96,40
30.8,30.88,59,95,40
30.9,30.98,59,95,40
31.0,31.08,59,95,40
31.1,31.18,59,95,40
31.2,31.28,59,95,40
31.3,31.38,59,95,40
31.4,31.48,59,95,40
31.5,31.58,59,95,40
31.6,31.68,59,95,40
31.7,31.78,59,95,40
31.8,31.88,59,95,40
31.9,31.98,59,95,40
32.0,32.08,59,95,40
32.1,32.18,59,95,40
32.2,32.28,59,95,40
32.3,32.38,59,95,40
32.4,32.56,60,96,40
32.6,32.92,81,77,40
33.0,33.36,76,77,40
33.4,33.72,72,77,40
33.8,33.96,69,77,40
34.0,34.08,57,95,40
34.1,34.18,57,95,40
34.2,34.28,57,95,40
34.3,34.38,57,95,40
34.4,34.48,57,95,40
34.5,34.58,57,95,40
34.6,34.68,57,95,40
34.7,34.78,57,95,40
34.8,34.88,57,95,40
34.9,34.98,57,95,40
35.0,35.08,57,95,40
35.1,35.18,57,95,40
35.2,35.28,57,95,40
35.3,35.38,57,95,40
35.4,35.48,57,95,40
35.5,35.58,57,95,40
35.6,35.76,58,96,40
35.8,36.12,79,77,40
36.2,36.56,74,77,40
36.6,36.92,70,77,40
37.0,37.16,67,77,40
37.2,37.28,70,66,40
37.3,37.38,70,66,40
37.4,37.48,70,66,40
37.5,37.58,70,66,40
37.6,37.68,70,66,40
37.7,37.78,70,66,40
37.8,37.88,70,66,40
37.9,37.98,70,66,40
38.0,38.08,69,66,40
38.1,38.18,69,66,40
38.2,38.28,69,66,40
38.3,38.38,69,66,40
38.4,38.48,67,66,40
38.5,38.58,67,66,40
38.6,38.68,67,66,40
38.7,38.78,67,66,40
38.8,38.88,66,66,40
38.9,38.98,66,66,40
39.0,39.08,66,66,40
39.1,39.18,66,66,40
39.2,39.28,70,66,40
39.3,39.38,70,66,40
39.4,39.48,70,66,40
39.5,39.58,70,66,40
39.6,39.68,69,66,40
39.7,39.78,69,66,40
39.8,39.88,69,66,40
39.9,39.98,69,66,40
40.0,40.08,67,66,40
40.1,40.18,67,66,40
40.2,40.28,67,66,40
40.3,40.38,67,66,40
40.4,40.48,66,66,40
40.5,40.58,66,66,40
40.6,40.68,66,66,40
40.7,40.78,66,66,40
40.8,40.88,70,66,40
40.9,40.98,70,66,40
41.0,41.08,70,66,40
41.1,41.18,70,66,40
41.2,41.28,69,66,40
41.3,41.38,69,66,40
41.4,41.48,69,66,40
41.5,41.58,69,66,40
41.6,41.68,67,66,40
41.7,41.78,67,66,40
41.8,41.88,67,66,40
41.9,41.98,67,66,40
42.0,42.16,66,95,40
42.4,42.46,69,39,40
42.6,42.66,69,39,40
42.8,42.96,69,39,40
43.8,43.96,55,45,40
44.0,44.12,67,45,40
44.2,44.32,67,45,40
44.4,44.52,67,45,40
44.6,44.72,67,45,40
44.8,44.92,67,45,40
45.0,45.12,67,45,40
45.2,45.32,66,45,40
45.4,45.52,66,45,40
45.6,45.72,65,45,40
45.8,45.92,65,45,40
46.0,46.12,64,45,40
46.2,46.32,64,45,40
46.4,46.52,63,45,40
46.6,46.72,63,45,40
46.8,47.12,62,45,40
47.2,47.52,64,45,40
47.6,47.92,60,56,40
48.0,48.32,61,56,40
48.4,48.6,62,56,40
48.6,48.76,57,56,40
48.8,48.86,57,56,40
49.0,49.06,57,56,40
49.2,49.4,57,56,40
49.4,49.56,58,56,40
49.6,49.66,59,96,40
49.8,49.86,59,96,40
50.0,50.96,59,96,40
51.0,51.16,58,96,40
51.2,51.26,70,96,40
51.4,51.46,70,96,40
51.6,51.8,70,96,40
51.8,51.96,69,77,40
52.0,52.06,68,96,40
52.2,52.26,68,77,40
52.4,52.6,68,96,40
52.6,52.76,67,77,40
52.8,52.86,67,96,40
53.0,53.06,67,77,40
53.2,53.52,66,96,40
53.6,54.32,67,96,40
54.4,54.72,66,96,40
54.8,55.12,67,96,40
55.6,55.76,59,39,40
55.6,55.76,62,39,40
55.8,55.96,62,39,40
55.8,55.96,59,39,40
56.0,56.16,59,39,40
56.0,56.16,62,39,40
56.2,56.36,62,39,40
56.2,56.36,59,39,40
56.4,56.72,60,39,40
56.4,56.72,62,39,40
57.2,57.36,57,39,40
57.2,57.36,66,39,40
57.4,57.56,66,39,40
57.4,57.56,57,39,40
57.6,57.76,66,39,40
57.6,57.76,57,39,40
57.8,57.96,57,39,40
57.8,57.96,66,39,40
58.0,58.32,55,39,40
58.0,58.32,67,39,40
58.8,58.96,62,39,40
58.8,58.96,59,39,40
59.0,59.16,62,39,40
59.0,59.16,59,39,40
59.2,59.36,59,39,40
59.2,59.36,62,39,40
59.4,59.56,62,39,40
59.4,59.56,59,39,40
59.6,59.92,62,39,40
59.6,59.92,60,39,40
60.4,60.56,66,39,40
60.4,60.56,57,39,40
60.6,60.76,57,39,40
60.6,60.76,66,39,40
60.8,60.96,66,39,40
60.8,60.96,57,39,40
61.0,61.16,57,39,40
61.0,61.16,66,39,40
61.2,61.52,55,39,40
61.2,61.52,67,39,40
61.8,62.0,62,47,40
62.0,62.06,64,67,40
62.2,62.26,66,67,40
62.4,62.46,67,67,40
62.6,62.66,69,67,40
62.8,63.12,71,67,40
63.4,63.6,62,67,40
63.6,63.66,64,67,40
63.8,63.86,66,67,40
64.0,64.06,67,67,40
64.2,64.26,69,67,40
64.4,64.56,62,56,40
64.8,65.2,69,80,40
65.2,65.36,67,56,40
65.6,66.0,69,80,40
66.0,66.16,67,56,40
66.4,66.8,69,80,40
66.8,66.96,67,56,40
67.2,67.6,69,80,40
67.6,67.76,67,56,40
68.0,68.4,69,80,40
68.4,68.56,67,56,40
68.8,69.2,69,80,40
69.2,69.36,67,56,40
70.8,71.6,63,56,40
71.6,72.4,58,56,40
72.4,72.72,55,56,40
73.0,73.2,55,56,40
73.2,73.4,58,56,40
73.4,73.6,62,56,40
73.6,73.8,65,56,40
73.8,74.0,62,56,40
74.0,74.8,63,56,40
74.8,75.6,58,56,40
75.6,75.92,55,56,40
76.2,76.36,55,56,40
76.4,76.6,58,56,40
76.6,76.8,62,56,40
76.8,77.0,65,56,40
77.0,77.2,62,56,40
77.2,78.0,63,56,40
78.0,79.0,62,56,40
79.0,79.2,60,56,40
79.2,80.0,60,56,40
80.0,80.4,61,56,40
80.4,81.04,62,56,40
81.2,81.84,60,56,40
82.0,82.32,59,104,40
82.8,83.12,67,104,40
83.6,83.92,71,104,40
84.4,84.72,74,104,40
85.2,85.52,79,104,40
86.2,86.4,71,72,40
86.4,86.56,83,72,40
86.6,86.76,81,72,40
86.8,87.2,80,72,40
87.2,87.6,79,72,40
87.6,88.0,78,72,40
88.0,88.06,77,72,40
88.2,88.26,77,72,40
88.4,88.6,77,72,40
88.6,88.76,76,72,40
88.8,88.86,76,72,40
89.0,89.06,76,72,40
89.2,89.4,76,72,40
89.4,89.56,75,72,40
89.6,89.66,74,72,40
89.8,89.86,74,72,40
90.0,90.2,74,72,40
90.2,90.36,73,72,40
90.4,90.46,72,72,40
90.6,90.66,72,72,40
90.8,91.0,72,72,40
91.0,91.16,71,72,40
91.2,91.26,70,72,40
91.4,91.46,70,72,40
91.6,92.2,71,80,40
92.2,92.36,74,80,40
92.4,93.0,67,80,40
93.0,93.1,69,80,40
93.1,93.2,66,80,40
93.2,93.52,67,80,40
94.0,94.4,66,56,40
94.4,94.8,69,56,40
94.8,95.2,71,74,40
95.2,95.36,67,56,40
95.6,96.0,67,74,40
96.0,96.16,66,56,40
96.4,96.8,69,74,40
96.8,96.96,67,56,40
97.2,97.52,64,62,40
97.6,97.92,66,56,40
98.0,98.4,67,81,40
98.4,98.56,64,56,40
98.8,99.2,62,67,40
99.2,99.52,66,56,40
99.6,99.76,67,56,40
100.0,100.16,67,56,40
100.4,100.56,69,56,40
100.8,100.96,66,56,40
101.2,101.36,67,56,40
101.6,101.76,71,56,40
102.0,102.16,72,56,40
102.4,102.56,69,56,40
102.8,102.96,67,56,40
103.2,103.36,79,56,40
103.6,103.76,79,56,40
104.0,104.16,78,56,40
104.4,104.56,79,64,40
104.8,104.86,67,66,40
105.0,105.06,69,67,40
105.2,105.26,71,69,40
105.4,105.46,72,70,40
105.6,105.66,74,71,40
105.8,105.86,76,72,40
106.0,106.4,77,80,40
106.4,106.46,67,75,40
106.6,106.66,69,76,40
106.8,106.86,71,78,40
107.0,107.06,72,79,40
107.2,107.26,74,80,40
107.4,107.46,76,81,40
107.6,108.0,77,90,40
109.2,109.4,67,38,40
109.4,109.6,63,38,40
109.6,109.8,67,38,40
110.0,110.2,65,38,40
110.2,110.4,62,38,40
110.4,110.6,65,38,40
111.0,111.32,67,64,40
111.4,111.56,65,64,40
111.6,111.8,63,74,40
111.8,111.96,62,64,40
112.4,113.2,67,64,40
113.2,113.8,67,64,40
113.8,114.0,59,64,40
114.0,114.2,60,64,40
114.2,114.4,64,64,40
114.4,114.6,65,64,40
114.6,114.8,72,64,40
114.8,115.0,72,81,40
115.0,115.2,71,64,40
115.6,115.7,64,51,40
115.7,115.8,60,51,40
115.8,115.9,64,51,40
115.9,116.0,60,51,40
116.0,116.2,64,51,40
116.4,116.5,65,51,40
116.5,116.6,62,51,40
116.6,116.7,65,51,40
116.7,116.8,62,51,40
116.8,117.0,65,51,40
117.4,117.6,67,58,40
117.6,117.8,60,58,40
117.8,118.0,69,58,40
118.0,118.2,62,68,40
118.2,118.4,67,69,40
118.4,118.6,63,72,40
118.6,118.8,72,74,40
118.8,119.0,65,77,40
119.0,119.2,74,78,40
119.2,119.4,67,81,40
119.4,119.6,75,83,40
119.6,119.8,70,85,40
119.8,119.96,80,87,40
121.2,121.36,67,51,40
121.4,121.56,63,51,40
121.6,121.76,67,51,40
122.0,122.16,68,51,40
122.2,122.36,65,51,40
122.4,122.56,68,51,40
122.8,123.0,63,64,40
123.0,123.16,67,64,40
124.0,124.06,73,51,40
124.2,124.26,73,51,40
124.4,124.6,73,51,40
124.6,124.76,67,51,40
124.8,124.86,70,51,40
125.0,125.06,70,51,40
125.2,125.4,70,51,40
125.4,125.56,64,51,40
126.0,126.16,68,41,40
126.2,126.36,65,41,40
126.4,126.56,68,41,40
126.8,126.96,70,41,40
127.0,127.16,67,41,40
127.2,127.36,70,41,40
127.6,127.8,65,51,40
127.8,127.96,69,51,40
128.8,128.86,75,83,40
129.0,129.06,75,83,40
129.2,129.4,75,83,40
129.4,129.56,69,83,40
129.6,129.66,84,106,40
129.8,129.86,84,106,40
130.0,130.2,84,106,40
130.2,130.36,78,106,40
130.4,130.46,81,106,40
130.6,130.66,81,106,40
130.8,131.0,81,106,40
131.0,131.16,75,106,40
131.2,131.26,78,106,40
131.4,131.46,78,106,40
131.6,131.8,78,106,40
131.8,131.96,71,106,40
132.0,132.06,71,106,40
132.2,132.26,71,106,40
132.4,132.6,71,106,40
132.6,132.76,64,106,40
132.8,133.12,64,106,40
132.8,133.12,71,106,40
133.2,133.52,64,106,40
133.2,133.52,73,106,40
133.6,133.92,73,106,40
133.6,133.92,76,106,40
134.0,134.32,66,106,40
134.0,134.32,74,106,40
134.4,134.72,71,106,40
134.4,134.72,78,106,40
134.8,135.12,80,106,40
134.8,135.12,71,106,40
135.2,135.26,73,106,40
135.4,135.46,73,106,40
135.6,135.76,73,106,40
135.8,135.96,66,106,40
136.0,136.32,66,106,40
136.0,136.32,73,106,40
136.4,136.72,66,106,40
136.4,136.72,75,106,40
136.8,137.12,75,106,40
136.8,137.12,78,106,40
137.2,137.52,73,106,40
137.2,137.52,76,106,40
137.6,137.92,73,106,40
137.6,137.92,80,106,40
138.0,138.32,82,106,40
138.0,138.32,73,106,40
138.4,138.46,75,106,40
138.6,138.66,75,106,40
138.8,139.0,75,106,40
139.0,139.16,68,106,40
139.2,139.26,71,106,40
139.4,139.46,71,106,40
139.6,139.8,71,106,40
139.8,139.96,64,106,40
140.0,140.06,68,106,40
140.2,140.26,68,106,40
140.4,140.6,68,106,40
140.6,140.76,61,106,40
140.8,140.86,64,106,40
141.0,141.06,64,106,40
141.2,141.4,64,106,40
141.4,141.56,57,106,40
141.6,141.66,73,106,40
141.8,141.86,73,106,40
142.0,142.2,73,106,40
142.2,142.36,66,106,40
142.4,142.46,69,106,40
142.6,142.66,69,106,40
142.8,143.0,69,106,40
143.0,143.16,68,106,40
143.2,143.26,66,106,40
143.4,143.46,64,106,40
143.6,143.65,59,106,40
143.65,144.0,71,106,40
143.65,144.0,66,106,40
145.2,145.36,68,48,40
145.4,145.56,64,48,40
145.6,145.76,68,48,40
146.0,146.16,69,48,40
146.2,146.36,66,48,40
146.4,146.56,69,48,40
146.8,146.96,64,64,40
147.0,147.16,68,64,40
148.4,148.56,67,48,40
148.6,148.76,64,48,40
148.8,148.96,67,48,40
149.2,149.36,69,48,40
149.4,149.56,66,48,40
149.6,149.76,69,48,40
150.0,150.2,64,64,40
150.2,150.32,67,64,40
151.6,151.7,67,51,40
151.7,151.8,64,51,40
151.8,151.9,67,51,40
151.9,152.0,64,51,40
152.0,152.16,67,51,40
152.4,152.5,71,51,40
152.5,152.6,67,51,40
152.6,152.7,71,51,40
152.7,152.8,67,51,40
152.8,152.96,71,51,40
153.2,153.52,59,64,40
153.6,153.66,67,96,40
153.8,153.86,69,96,40
154.0,154.06,71,96,40
154.2,154.26,72,96,40
154.4,154.46,74,96,40
154.6,154.66,76,96,40
154.8,155.0,79,96,40
155.0,155.16,77,96,40
155.2,155.26,67,96,40
155.4,155.46,69,96,40
155.6,155.66,71,96,40
155.8,155.86,72,96,40
156.0,156.06,74,96,40
156.2,156.26,76,96,40
156.4,156.8,77,96,40
157.2,157.36,77,96,40
157.6,157.76,77,96,40
158.0,158.16,77,96,40
159.6,159.8,67,48,40
159.8,160.0,64,48,40
160.0,160.2,67,48,40
160.4,160.6,65,48,40
160.6,160.8,62,48,40
160.8,161.0,65,48,40
161.4,161.6,67,64,40
161.6,161.8,60,64,40
161.8,162.0,69,64,40
162.0,162.2,64,64,40
162.2,162.36,62,64,40
162.8,162.86,67,64,40
163.0,163.06,67,51,40
163.2,163.26,67,64,40
163.4,163.46,67,64,40
163.6,163.66,67,64,40
163.8,163.86,67,64,40
164.0,164.06,67,64,40
164.2,164.26,67,64,40
164.4,164.6,67,64,40
164.6,165.0,72,64,40
165.0,165.2,72,64,40
165.2,165.4,72,64,40
165.4,165.56,71,64,40
166.0,166.1,64,48,40
166.1,166.2,60,48,40
166.2,166.3,64,48,40
166.3,166.4,60,48,40
166.4,166.6,64,48,40
166.8,166.9,65,48,40
166.9,167.0,62,48,40
167.0,167.1,65,48,40
167.1,167.2,62,48,40
167.2,167.4,65,48,40
167.8,168.0,67,64,40
168.0,168.2,60,64,40
168.2,168.4,69,64,40
168.4,168.6,64,64,40
168.6,168.76,62,64,40
168.8,168.86,60,64,40
169.0,169.06,60,64,40
169.2,169.26,60,64,40
169.4,169.46,60,64,40
169.6,169.66,60,64,40
169.8,169.86,60,64,40
170.0,170.06,72,64,40
170.2,170.26,72,64,40
170.4,170.46,72,64,40
170.6,170.66,72,64,40
170.8,171.2,72,64,40
171.2,171.3,76,64,40
171.3,171.4,74,64,40
171.4,171.5,72,64,40
171.5,171.6,71,64,40
171.6,171.76,72,64,40
172.0,172.06,60,115,40
172.2,172.26,60,115,40
172.4,172.52,59,115,40
173.6,173.66,65,90,40
173.8,173.86,65,90,40
174.0,174.16,65,90,40
174.2,174.28,67,90,40
174.3,174.38,69,90,40
174.4,174.48,67,90,40
174.5,174.58,65,90,40
174.6,174.68,64,90,40
174.7,174.78,62,90,40
174.8,175.0,60,64,40
175.0,175.16,59,64,40
175.2,175.26,60,115,40
175.4,175.46,60,115,40
175.6,175.76,59,115,40
176.8,176.86,65,90,40
177.0,177.06,65,90,40
177.2,177.4,65,90,40
177.4,177.5,67,90,40
177.5,177.6,69,90,40
177.6,177.7,67,90,40
177.7,177.8,65,90,40
177.8,177.9,64,90,40
177.9,178.0,62,90,40
178.0,178.2,60,90,40
178.2,178.36,59,90,40
178.8,179.0,67,64,40
179.0,179.2,64,64,40
179.2,179.4,67,64,40
179.6,179.8,65,64,40
179.8,180.0,62,64,40
180.0,180.2,65,64,40
180.6,180.8,67,70,40
180.8,181.0,60,72,40
181.0,181.2,69,74,40
181.2,181.4,62,77,40
181.4,181.6,71,78,40
181.6,181.8,64,81,40
181.8,182.0,72,83,40
182.0,182.2,67,85,40
182.2,182.32,77,87,40
183.6,183.72,72,55,40
183.8,183.92,72,56,40
184.0,184.12,72,57,40
184.4,184.52,72,60,40
184.6,184.72,72,61,40
184.8,184.92,72,62,40
185.2,185.3,64,77,40
185.3,185.4,67,78,40
185.4,185.5,64,79,40
185.5,185.6,67,80,40
185.6,185.7,64,81,40
185.7,185.8,67,81,40
185.8,185.9,65,82,40
185.9,186.0,67,82,40
186.0,186.16,64,83,40
186.4,186.46,60,96,40
186.6,186.66,60,96,40
186.8,186.96,55,96,40
187.2,187.26,64,86,40
187.4,187.46,64,86,40
187.6,187.66,60,86,40
187.8,187.86,67,86,40
188.0,188.06,64,86,40
188.2,188.26,72,86,40
188.4,188.46,67,86,40
188.6,188.66,76,86,40
188.8,188.86,72,86,40
189.0,189.06,79,86,40
189.2,189.26,76,86,40
189.4,189.46,72,86,40
189.6,189.66,67,86,40
189.8,189.86,76,86,40
190.0,190.06,62,69,40
190.1,190.16,62,69,40
190.2,190.26,62,69,40
190.3,190.36,62,69,40
190.4,190.46,62,69,40
190.5,190.56,62,69,40
190.6,190.66,62,69,40
190.7,190.76,62,69,40
190.8,190.86,62,69,40
190.9,190.96,62,69,40
191.0,191.06,62,69,40
191.1,191.16,62,69,40
191.2,191.26,67,69,40
191.3,191.36,67,69,40
191.4,191.46,67,69,40
191.5,191.56,67,69,40
191.6,191.66,67,69,40
191.7,191.76,67,69,40
191.8,191.86,67,69,40
191.9,191.96,67,69,40
192.0,192.06,64,69,40
192.1,192.16,64,69,40
192.2,192.26,64,69,40
192.3,192.36,64,69,40
192.4,192.46,67,69,40
192.5,192.56,67,69,40
192.6,192.66,67,69,40
192.7,192.76,67,69,40
192.8,192.86,72,69,40
192.9,192.96,72,69,40
193.0,193.06,72,69,40
193.1,193.16,72,69,40
193.2,193.26,59,69,40
193.3,193.36,59,69,40
193.4,193.46,59,69,40
193.5,193.56,59,69,40
193.6,193.66,59,69,40
193.7,193.76,59,69,40
193.8,193.86,59,69,40
193.9,193.96,59,69,40
194.0,194.06,59,69,40
194.1,194.16,59,69,40
194.2,194.26,59,69,40
194.3,194.36,59,69,40
194.4,194.46,64,69,40
194.5,194.56,64,62,40
194.6,194.66,64,69,40
194.7,194.76,64,69,40
194.8,194.86,64,69,40
194.9,194.96,64,69,40
195.0,195.06,64,69,40
195.1,195.16,64,69,40
195.2,195.26,60,69,40
195.3,195.36,60,69,40
195.4,195.46,60,69,40
195.5,195.56,60,69,40
195.6,195.66,64,69,40
195.7,195.76,64,69,40
195.8,195.86,64,69,40
195.9,195.96,64,69,40
196.0,196.06,69,69,40
196.1,196.16,69,69,40
196.2,196.26,69,69,40
196.3,196.36,69,69,40
196.4,196.46,55,62,40
196.5,196.56,55,69,40
196.6,196.66,55,69,40
196.7,196.76,55,69,40
196.8,196.86,55,69,40
196.9,196.96,55,69,40
197.0,197.06,55,69,40
197.1,197.16,55,69,40
197.2,197.26,55,69,40
197.3,197.36,55,69,40
197.4,197.46,55,69,40
197.5,197.56,55,69,40
197.6,197.66,60,69,40
197.7,197.76,60,69,40
197.8,197.86,60,69,40
197.9,197.96,60,69,40
198.0,198.06,60,58,40
198.1,198.16,60,69,40
198.2,198.26,60,69,40
198.3,198.36,60,69,40
198.4,198.46,57,69,40
198.5,198.56,57,69,40
198.6,198.66,57,69,40
198.7,198.76,57,69,40
198.8,198.86,60,69,40
198.9,198.96,60,69,40
199.0,199.06,60,69,40
199.1,199.16,60,69,40
199.2,199.26,65,69,40
199.3,199.36,65,69,40
199.4,199.46,65,69,40
199.5,199.56,65,69,40
199.6,199.66,57,69,40
199.7,199.76,57,69,40
199.8,199.86,57,69,40
199.9,199.96,57,69,40
200.0,200.06,57,69,40
200.1,200.16,57,69,40
200.2,200.26,57,69,40
200.3,200.36,57,69,40
200.4,200.46,57,69,40
200.5,200.56,57,69,40
200.6,200.66,57,69,40
200.7,200.76,57,69,40
200.8,200.86,62,69,40
200.9,200.96,62,69,40
201.0,201.06,62,69,40
201.1,201.16,62,69,40
201.2,201.26,62,69,40
201.3,201.36,62,69,40
201.4,201.46,62,69,40
201.5,201.56,62,69,40
201.6,201.66,63,69,40
201.7,201.76,63,69,40
201.8,201.86,63,69,40
201.9,201.96,63,69,40
202.0,202.06,62,69,40
202.1,202.16,62,69,40
202.2,202.26,62,69,40
202.3,202.36,62,69,40
202.4,202.46,60,69,40
202.5,202.56,60,69,40
202.6,202.66,60,69,40
202.7,202.76,60,69,40
202.8,202.86,59,58,40
202.9,202.96,59,69,40
203.0,203.06,59,69,40
203.1,203.16,59,69,40
203.2,203.26,63,69,40
203.3,203.36,63,69,40
203.4,203.46,63,69,40
203.5,203.56,63,80,40
203.6,203.66,62,69,40
203.7,203.76,62,69,40
203.8,203.86,62,69,40
203.9,203.96,62,69,40
204.0,204.06,60,69,40
204.1,204.16,60,69,40
204.2,204.26,60,69,40
204.3,204.36,60,69,40
204.4,204.56,59,86,40
204.8,204.86,62,64,40
205.0,205.06,62,64,40
205.2,205.36,62,64,40
206.2,206.32,60,64,40
206.4,206.46,72,64,40
206.6,206.66,72,64,40
206.8,206.92,72,64,40
207.0,207.12,72,64,40
207.2,207.26,72,64,40
207.4,207.46,72,64,40
207.6,207.8,71,64,40
207.8,207.92,71,64,40
208.0,208.06,70,64,40
208.2,208.26,70,64,40
208.4,208.6,69,64,40
208.6,208.72,69,64,40
208.8,208.86,68,64,40
209.0,209.06,68,64,40
209.2,209.84,67,64,40
210.0,210.64,69,64,40
210.8,211.0,67,64,40
211.0,211.16,62,64,40
211.2,211.26,62,64,40
211.4,211.46,62,64,40
211.6,211.76,62,64,40
211.8,212.0,63,41,40
212.0,212.06,64,96,40
212.2,212.26,64,96,40
212.4,213.36,64,96,40
213.4,213.56,63,96,40
213.6,213.66,75,96,40
213.8,213.86,75,96,40
214.0,214.2,75,105,40
214.2,214.32,74,96,40
214.4,214.46,73,96,40
214.6,214.66,73,96,40
214.8,215.0,73,105,40
215.0,215.12,72,96,40
215.2,215.26,72,96,40
215.4,215.46,72,96,40
215.6,215.92,71,96,40
216.0,216.72,72,96,40
216.8,217.12,71,96,40
217.2,217.52,72,96,40
218.0,218.06,67,42,40
218.2,218.26,67,42,40
218.4,218.46,67,42,40
218.6,218.66,67,42,40
218.8,219.12,67,42,40
219.6,219.66,67,42,40
219.6,219.66,71,42,40
219.8,219.86,71,42,40
219.8,219.86,67,42,40
220.0,220.06,71,42,40
220.0,220.06,67,42,40
220.2,220.26,67,42,40
220.2,220.26,71,42,40
220.4,220.72,67,42,40
220.4,220.72,72,42,40
221.2,221.26,67,42,40
221.4,221.46,67,42,40
221.6,221.66,67,42,40
221.8,221.86,67,42,40
222.0,222.32,67,42,40
222.8,222.86,67,42,40
222.8,222.86,71,42,40
223.0,223.06,67,42,40
223.0,223.06,71,42,40
223.2,223.26,71,42,40
223.2,223.26,67,42,40
223.4,223.46,67,42,40
223.4,223.46,71,42,40
223.6,223.92,67,29,40
223.6,223.92,72,29,40
224.2,224.4,67,77,40
224.4,224.46,69,77,40
224.6,224.66,71,77,40
224.8,224.86,72,77,40
225.0,225.06,74,77,40
225.2,225.52,76,54,40
225.8,226.0,67,77,40
226.0,226.06,69,77,40
226.2,226.26,71,77,40
226.4,226.46,72,77,40
226.6,226.66,74,77,40
226.8,227.12,76,54,40
227.4,227.6,67,77,40
227.6,227.66,69,77,40
227.8,227.86,71,77,40
228.0,228.06,72,62,40
228.2,228.26,74,77,40
228.4,228.56,67,77,40
228.8,229.2,74,70,40
229.2,229.26,72,64,40
229.6,230.0,74,70,40
230.0,230.06,72,64,40
230.4,230.8,74,70,40
230.8,230.86,72,64,40
231.2,231.6,74,70,40
231.6,231.66,72,64,40
232.0,232.4,74,70,40
232.4,232.46,72,64,40
232.8,233.2,74,70,40
233.2,233.26,72,64,40
234.8,235.6,68,64,40
235.6,236.4,63,64,40
236.4,236.8,60,64,40
237.0,237.16,60,64,40
237.2,237.4,63,64,40
237.4,237.6,67,64,40
237.6,237.8,70,64,40
237.8,238.0,67,64,40
238.0,238.8,68,64,40
238.8,239.6,63,64,40
239.6,239.92,60,64,40
240.2,240.36,60,64,40
240.4,240.6,63,64,40
240.6,240.8,67,64,40
240.8,241.0,70,64,40
241.0,241.2,67,64,40
241.2,242.0,68,64,40
242.0,243.0,67,64,40
243.0,243.16,65,64,40
243.2,244.0,65,64,40
244.0,244.4,66,64,40
244.4,245.2,67,64,40
245.2,246.0,65,64,40
246.0,246.2,63,68,40
246.2,246.4,62,70,40
246.4,246.6,63,72,40
246.6,246.8,65,75,40
246.8,247.0,66,77,40
247.0,247.2,70,80,40
247.2,247.4,68,82,40
247.4,247.6,66,85,40
247.6,247.76,65,66,40
247.8,247.92,65,41,40
247.8,247.92,61,41,40
248.0,248.12,65,41,40
248.0,248.12,61,41,40
248.2,248.32,61,41,40
248.2,248.32,65,41,40
248.6,248.72,60,46,40
248.6,248.72,63,46,40
248.8,248.92,63,46,40
248.8,248.92,60,46,40
249.0,249.12,60,46,40
249.0,249.12,63,46,40
249.4,249.56,61,46,40
249.4,249.56,65,46,40
249.6,249.76,65,46,40
249.6,249.76,61,46,40
249.8,249.96,61,46,40
249.8,249.96,65,46,40
250.2,250.36,63,46,40
250.2,250.36,66,46,40
250.4,250.56,63,46,40
250.4,250.56,66,46,40
250.6,250.76,63,46,40
250.6,250.76,66,46,40
251.0,251.16,61,42,40
251.0,251.16,65,42,40
251.2,251.36,65,42,40
251.2,251.36,61,42,40
251.4,251.56,61,42,40
251.4,251.56,65,42,40
251.8,251.96,60,42,40
251.8,251.96,63,42,40
252.0,252.16,63,42,40
252.0,252.16,60,42,40
252.2,252.36,60,42,40
252.2,252.36,63,42,40
252.6,252.76,61,42,40
252.6,252.76,65,42,40
252.8,252.96,65,42,40
252.8,252.96,61,42,40
253.0,253.16,61,42,40
253.0,253.16,65,42,40
253.4,253.56,66,42,40
253.4,253.56,63,42,40
253.6,253.76,63,42,40
253.6,253.76,66,42,40
253.8,253.96,63,42,40
253.8,253.96,66,42,40
254.2,254.36,65,42,40
254.2,254.36,61,42,40
254.4,254.56,61,42,40
254.4,254.56,65,42,40
254.6,254.76,65,42,40
254.6,254.76,61,42,40
255.0,255.16,60,42,40
255.0,255.16,63,42,40
255.2,255.36,63,42,40
255.2,255.36,60,42,40
255.4,255.56,60,42,40
255.4,255.56,63,42,40
255.8,255.92,61,42,40
255.8,255.92,65,42,40
256.0,256.12,61,42,40
256.0,256.12,65,42,40
256.2,256.32,65,42,40
256.2,256.32,61,42,40
256.6,256.72,63,42,40
256.8,256.92,63,42,40
257.0,257.12,63,42,40
257.4,257.52,63,42,40
257.6,257.72,63,42,40
257.8,257.92,63,42,40
258.2,258.32,62,42,40
258.4,258.52,62,42,40
258.6,258.72,62,42,40
259.0,259.12,66,42,40
259.2,259.32,66,42,40
259.4,259.52,66,42,40
259.8,259.96,60,42,40
260.0,260.16,60,42,40
260.2,260.36,60,42,40
260.4,261.2,60,51,40
261.2,262.0,62,51,40
262.0,262.32,52,96,40
262.8,263.12,60,96,40
263.6,263.92,64,96,40
264.4,264.72,67,96,40
265.2,265.52,72,96,40
266.2,266.4,64,98,40
266.4,266.6,76,98,40
266.6,266.8,74,98,40
266.8,267.2,73,98,40
267.2,267.6,72,98,40
267.6,268.0,71,98,40
268.0,268.06,70,82,40
268.2,268.26,70,82,40
268.4,268.6,70,82,40
268.6,268.76,69,82,40
268.8,268.86,69,82,40
269.0,269.06,69,82,40
269.2,269.4,69,82,40
269.4,269.56,68,82,40
269.6,269.66,79,82,40
269.8,269.86,79,82,40
270.0,270.2,79,82,40
270.2,270.36,78,82,40
270.4,270.46,77,82,40
270.6,270.66,77,82,40
270.8,271.0,77,82,40
271.0,271.16,76,82,40
271.2,271.26,75,82,40
271.4,271.46,75,82,40
271.6,272.2,76,82,40
272.2,272.4,79,96,40
272.4,273.0,72,96,40
273.0,273.1,74,96,40
273.1,273.2,71,96,40
273.2,273.6,72,96,40
274.0,274.32,71,64,40
274.4,274.72,74,64,40
274.8,275.2,76,77,40
275.2,275.36,72,64,40
275.6,276.0,72,77,40
276.0,276.16,71,64,40
276.4,276.8,74,77,40
276.8,276.96,72,64,40
277.2,277.52,57,70,40
277.6,277.92,59,64,40
278.0,278.4,60,70,40
278.4,278.56,57,64,40
278.8,279.2,55,64,40
279.2,279.6,59,64,40
279.6,279.76,60,64,40
280.0,280.16,60,64,40
280.4,280.56,62,64,40
280.8,280.96,59,64,40
281.2,281.36,60,64,40
281.6,281.76,64,64,40
282.0,282.16,65,64,40
282.4,282.56,62,64,40
282.8,282.96,60,64,40
283.2,283.36,72,64,40
283.6,283.76,72,64,40
284.0,284.16,71,64,40
284.4,284.56,72,64,40
284.8,284.86,60,77,40
285.0,285.06,62,77,40
285.2,285.26,64,77,40
285.4,285.46,65,77,40
285.6,285.66,67,77,40
285.8,285.86,69,77,40
286.0,286.4,70,77,40
286.4,286.46,72,64,40
286.6,286.66,74,64,40
286.8,286.86,76,64,40
287.0,287.06,77,64,40
287.2,287.26,79,64,40
287.4,287.46,81,64,40
287.6,288.0,82,64,40
289.2,290.0,79,64,40
290.0,290.4,78,64,40
290.8,291.2,77,64,40
291.2,292.0,76,64,40
292.0,292.8,74,64,40
292.8,294.0,72,64,40
294.0,294.32,71,64,40
294.8,295.12,66,64,40
295.6,295.92,67,64,40
296.4,296.72,60,64,40
297.2,297.52,59,64,40
298.8,298.9,67,48,40
298.9,299.0,64,48,40
299.0,299.1,67,48,40
299.1,299.2,64,48,40
299.2,299.36,67,48,40
299.6,299.7,65,48,40
299.7,299.8,62,48,40
299.8,299.9,65,48,40
299.9,300.0,62,48,40
300.0,300.16,65,48,40
300.6,300.8,67,77,40
300.8,301.0,60,80,40
301.0,301.2,69,82,40
301.2,301.4,62,85,40
301.4,301.6,71,87,40
301.6,301.8,64,90,40
301.8,302.0,72,92,40
302.0,302.2,67,95,40
302.2,302.36,77,97,40
303.8,304.0,72,64,40
304.0,304.2,71,64,40
304.2,304.4,70,64,40
304.4,305.0,69,64,40
305.0,305.1,62,48,40
305.1,305.2,65,48,40
305.2,305.3,64,48,40
305.3,305.4,67,48,40
305.4,305.5,64,48,40
305.5,305.6,67,48,40
305.6,305.7,64,48,40
305.7,305.8,67,48,40
305.8,305.9,65,48,40
305.9,306.0,67,48,40
306.0,306.2,64,64,40
306.2,306.4,67,64,40
306.4,306.6,65,64,40
306.6,306.8,64,64,40
306.8,307.0,62,64,40
307.0,307.2,59,64,40
307.2,307.4,60,64,40
307.4,307.6,62,64,40
307.6,307.8,64,64,40
307.8,308.0,67,75,40
308.0,308.2,65,77,40
308.2,308.4,64,79,40
308.4,308.6,62,81,40
308.6,308.8,59,83,40
308.8,309.0,60,85,40
309.0,309.2,62,87,40
309.2,309.4,64,90,40
309.4,309.6,67,92,40
309.6,309.8,65,94,40
309.8,310.0,64,96,40
310.0,310.2,62,98,40
310.2,310.4,59,100,40
310.4,310.6,60,102,40
310.6,310.8,62,104,40
310.8,310.96,64,106,40
311.2,311.36,74,64,40
311.6,311.9,76,64,40
311.9,312.0,77,64,40
312.0,312.3,76,64,40
312.3,312.4,77,64,40
312.4,312.5,76,64,40
312.5,312.6,77,64,40
312.6,312.7,76,64,40
312.7,312.8,77,64,40
312.8,312.9,76,75,40
312.9,313.0,77,78,40
313.0,313.1,76,80,40
313.1,313.2,77,83,40
313.2,313.3,76,85,40
313.3,313.4,77,88,40
313.4,313.5,76,91,40
313.5,313.6,77,93,40
313.6,313.7,76,96,40
313.7,313.8,77,98,40
313.8,313.9,76,101,40
313.9,314.0,77,103,40
314.0,314.06,76,106,40
314.1,314.16,76,56,40
314.2,314.26,76,56,40
314.3,314.36,76,56,40
314.4,314.46,71,56,40
314.5,314.56,71,56,40
314.6,314.66,71,56,40
314.7,314.76,71,56,40
314.8,314.86,72,56,40
314.9,314.96,72,56,40
315.0,315.06,72,56,40
315.1,315.16,72,56,40
315.2,315.26,72,56,40
315.3,315.36,72,56,40
315.4,315.46,72,56,40
315.5,315.56,72,56,40
315.6,315.66,72,56,40
315.7,315.76,72,56,40
315.8,315.86,72,56,40
315.9,315.96,72,56,40
316.0,316.06,65,56,40
316.1,316.16,65,56,40
316.2,316.26,65,56,40
316.3,316.36,65,56,40
316.4,316.56,64,64,40
316.8,317.12,67,64,40
317.4,317.48,69,83,40
317.5,317.58,67,83,40
317.6,318.16,67,83,40
318.2,318.28,66,77,40
318.3,318.38,67,78,40
318.4,318.96,67,79,40
319.0,319.08,69,85,40
319.1,319.18,67,86,40
319.2,319.76,67,87,40
319.8,319.88,66,94,40
319.9,319.98,67,95,40
320.0,320.56,67,96,40
320.6,320.68,69,102,40
320.7,320.78,67,103,40
320.8,321.36,67,104,40
321.2,321.36,67,86,40
321.6,321.76,77,64,40
322.0,322.3,76,64,40
322.3,322.4,77,64,40
322.4,322.7,76,64,40
322.7,322.8,77,64,40
322.8,322.9,76,64,40
322.9,323.0,77,64,40
323.0,323.1,76,64,40
323.1,323.2,77,64,40
323.2,323.3,76,70,40
323.3,323.4,77,73,40
323.4,323.5,76,76,40
323.5,323.6,77,79,40
323.6,323.7,76,81,40
323.7,323.8,77,84,40
323.8,323.9,76,87,40
323.9,324.0,77,90,40
324.0,324.1,76,93,40
324.1,324.2,77,96,40
324.2,324.3,76,99,40
324.3,324.4,77,101,40
324.4,324.46,76,104,40
324.5,324.56,79,107,40
324.6,324.66,79,67,40
324.7,324.76,79,67,40
324.8,324.86,79,67,40
324.9,324.96,77,67,40
325.0,325.06,77,67,40
325.1,325.16,77,67,40
325.2,325.26,77,67,40
325.3,325.36,76,67,40
325.4,325.46,76,67,40
325.5,325.56,76,67,40
325.6,325.66,76,67,40
325.7,325.76,74,67,40
325.8,325.86,74,67,40
325.9,325.96,74,67,40
326.0,326.06,74,67,40
326.1,326.16,72,67,40
326.2,326.26,72,67,40
326.3,326.36,72,67,40
326.4,326.46,67,67,40
326.5,326.56,65,67,40
326.6,326.66,65,67,40
326.7,326.76,65,67,40
326.8,326.96,64,105,40
327.2,327.6,67,105,40
327.6,328.0,65,105,40
328.0,328.4,70,105,40
328.4,328.8,69,105,40
329.6,329.66,79,102,40
329.8,329.86,79,102,40
330.0,330.2,79,102,40
330.2,330.36,72,90,40
330.4,330.72,67,105,40
330.8,331.12,65,105,40
331.2,331.52,70,105,40
331.6,331.92,69,105,40
332.8,332.86,79,102,40
333.0,333.06,79,102,40
333.2,333.4,79,102,40
333.4,333.56,72,102,40
333.6,333.66,69,112,40
333.8,333.86,69,112,40
334.0,334.2,69,112,40
334.2,334.36,62,112,40
334.4,334.46,67,112,40
334.6,334.66,67,112,40
334.8,335.0,67,112,40
335.0,335.16,60,112,40
335.2,335.26,67,112,40
335.4,335.46,67,112,40
335.6,335.8,67,112,40
335.8,335.9818,60,112,40
336.02728,336.09546,79,112,40
336.25455,336.32272,79,112,40
336.4818,336.74268,79,112,40
336.74268,336.9514,72,112,40
0.4,0.6,64,64,41
0.6,0.8,60,64,41
0.8,1.0,64,64,41
1.2,1.4,62,64,41
1.4,1.6,59,64,41
1.6,1.8,62,64,41
3.0,3.16,67,64,41
3.2,3.32,66,64,41
3.4,3.52,65,64,41
3.6,3.66,64,64,41
3.8,3.86,64,64,41
4.0,4.06,64,64,41
4.2,4.26,64,64,41
4.4,4.46,59,64,41
4.6,4.66,59,64,41
4.8,4.86,59,64,41
5.0,5.06,59,64,41
5.2,5.4,60,64,41
5.4,5.6,64,64,41
5.6,5.8,65,64,41
5.8,6.0,60,64,41
6.0,6.4,67,64,41
6.8,6.9,60,51,41
6.9,7.0,55,51,41
7.0,7.1,60,51,41
7.1,7.2,55,51,41
7.2,7.4,60,51,41
7.6,7.7,62,51,41
7.7,7.8,59,51,41
7.8,7.9,62,51,41
7.9,8.0,59,51,41
8.0,8.2,62,51,41
9.6,9.66,55,64,41
9.8,9.86,55,64,41
10.0,10.06,57,64,41
10.2,10.26,57,64,41
10.4,10.46,58,64,41
10.6,10.66,58,64,41
10.8,10.86,60,64,41
11.0,11.06,60,64,41
11.2,11.26,62,64,41
11.4,11.46,62,64,41
11.6,11.72,64,64,41
11.8,11.92,60,64,41
12.0,12.12,67,64,41
12.2,12.32,67,64,41
12.4,12.56,64,64,41
12.8,12.86,60,96,41
13.0,13.06,60,96,41
13.2,13.32,59,96,41
14.4,14.46,62,64,41
14.6,14.66,62,64,41
14.8,15.28,64,64,41
15.4,15.56,64,64,41
15.6,15.76,65,64,41
16.0,16.06,60,96,41
16.2,16.26,60,96,41
16.4,16.52,59,96,41
17.6,17.66,62,64,41
17.8,17.86,62,64,41
18.0,18.48,62,64,41
18.6,18.76,64,64,41
18.8,19.0,66,74,41
19.0,19.16,67,64,41
19.6,19.8,64,58,41
19.8,20.0,60,58,41
20.0,20.2,64,58,41
20.4,20.6,62,58,41
20.6,20.8,59,58,41
20.8,21.0,62,58,41
22.6,22.8,60,94,41
22.8,23.0,65,86,41
23.0,23.06,62,86,41
24.4,24.52,64,64,41
24.6,24.72,64,64,41
24.8,24.92,64,64,41
25.2,25.32,62,64,41
25.4,25.52,62,64,41
25.6,25.72,62,64,41
26.0,26.6,67,64,41
26.6,26.8,59,64,41
26.8,27.0,60,64,41
27.2,27.26,60,96,41
27.4,27.46,60,96,41
27.6,27.72,55,96,41
28.0,28.06,64,96,41
28.2,28.26,64,96,41
28.4,28.46,60,96,41
28.6,28.66,67,96,41
28.8,28.86,64,96,41
29.0,29.06,72,96,41
29.2,29.26,67,96,41
29.4,29.46,64,96,41
29.6,29.66,60,96,41
29.8,29.86,67,96,41
30.0,30.06,64,96,41
30.2,30.26,72,96,41
30.8,30.88,56,95,41
30.9,30.98,56,95,41
31.0,31.08,56,95,41
31.1,31.18,56,95,41
31.2,31.28,56,95,41
31.3,31.38,56,95,41
31.4,31.48,56,95,41
31.5,31.58,56,95,41
31.6,31.68,56,95,41
31.7,31.78,56,95,41
31.8,31.88,56,95,41
31.9,31.98,56,95,41
32.0,32.08,56,95,41
32.1,32.18,56,95,41
32.2,32.28,56,95,41
32.3,32.38,56,95,41
32.4,32.56,57,96,41
32.6,32.92,76,77,41
33.0,33.36,72,77,41
33.4,33.72,69,77,41
33.8,33.96,64,77,41
34.0,34.08,54,95,41
34.1,34.18,54,95,41
34.2,34.28,54,95,41
34.3,34.38,54,95,41
34.4,34.48,54,95,41
34.5,34.58,54,95,41
34.6,34.68,54,95,41
34.7,34.78,54,95,41
34.8,34.88,54,95,41
34.9,34.98,54,95,41
35.0,35.08,54,95,41
35.1,35.18,54,95,41
35.2,35.28,54,95,41
35.3,35.38,54,95,41
35.4,35.48,54,95,41
35.5,35.58,54,95,41
35.6,35.76,55,96,41
35.8,36.12,74,77,41
36.2,36.56,70,77,41
36.6,36.92,67,77,41
37.0,37.16,62,77,41
37.2,37.28,55,66,41
37.3,37.38,55,66,41
37.4,37.48,55,66,41
37.5,37.58,55,66,41
37.6,37.68,55,66,41
37.7,37.78,55,66,41
37.8,37.88,55,66,41
37.9,37.98,55,66,41
38.0,38.08,54,66,41
38.1,38.18,54,66,41
38.2,38.28,54,66,41
38.3,38.38,54,66,41
38.4,38.48,55,66,41
38.5,38.58,55,66,41
38.6,38.68,55,66,41
38.7,38.78,55,66,41
38.8,38.88,57,66,41
38.9,38.98,57,66,41
39.0,39.08,57,66,41
39.1,39.18,57,66,41
39.2,39.28,62,66,41
39.3,39.38,62,66,41
39.4,39.48,62,66,41
39.5,39.58,62,66,41
39.6,39.68,60,66,41
39.7,39.78,60,66,41
39.8,39.88,60,66,41
39.9,39.98,60,66,41
40.0,40.08,58,66,41
40.1,40.18,58,66,41
40.2,40.28,58,66,41
40.3,40.38,58,66,41
40.4,40.48,57,66,41
40.5,40.58,57,66,41
40.6,40.68,57,66,41
40.7,40.78,57,66,41
40.8,40.88,62,66,41
40.9,40.98,62,66,41
41.0,41.08,62,66,41
41.1,41.18,62,66,41
41.2,41.28,60,66,41
41.3,41.38,60,66,41
41.4,41.48,60,66,41
41.5,41.58,60,66,41
41.6,41.68,58,66,41
41.7,41.78,58,66,41
41.8,41.88,58,66,41
41.9,41.98,58,66,41
42.0,42.16,57,95,41
42.4,42.46,66,39,41
42.6,42.66,66,39,41
42.8,42.96,66,39,41
49.4,49.56,54,80,41
49.6,49.66,55,96,41
49.8,49.86,55,96,41
50.0,50.2,55,96,41
50.2,50.36,51,96,41
50.4,50.46,52,96,41
50.6,50.66,52,96,41
50.8,51.0,52,96,41
51.0,51.16,52,96,41
51.2,51.26,61,96,41
51.4,51.46,61,96,41
51.6,51.8,61,96,41
51.8,51.96,62,77,41
52.0,52.06,59,96,41
52.2,52.26,59,77,41
52.4,52.6,59,96,41
52.6,52.76,60,77,41
52.8,52.86,60,96,41
53.0,53.06,60,77,41
53.2,53.52,57,96,41
53.6,53.92,55,96,41
54.0,54.4,64,96,41
54.4,54.6,62,96,41
54.6,54.8,60,96,41
54.8,55.12,59,96,41
55.6,55.76,55,39,41
55.8,55.96,55,39,41
56.0,56.16,55,39,41
56.2,56.36,55,39,41
56.4,56.72,57,39,41
57.2,57.36,60,39,41
57.2,57.36,62,39,41
57.4,57.56,62,39,41
57.4,57.56,60,39,41
57.6,57.76,60,39,41
57.6,57.76,62,39,41
57.8,57.96,62,39,41
57.8,57.96,60,39,41
58.0,58.32,59,39,41
58.0,58.32,62,39,41
58.8,58.96,55,39,41
59.0,59.16,55,39,41
59.2,59.36,55,39,41
59.4,59.56,55,39,41
59.6,59.92,57,39,41
60.4,60.56,62,39,41
60.4,60.56,60,39,41
60.6,60.76,62,39,41
60.6,60.76,60,39,41
60.8,60.96,60,39,41
60.8,60.96,62,39,41
61.0,61.16,62,39,41
61.0,61.16,60,39,41
61.2,61.52,62,39,41
61.2,61.52,59,39,41
61.8,62.0,59,47,41
62.0,62.06,60,67,41
62.2,62.26,62,67,41
62.4,62.46,64,67,41
62.6,62.66,66,67,41
62.8,63.12,67,67,41
63.4,63.6,59,67,41
63.6,63.66,60,67,41
63.8,63.86,62,67,41
64.0,64.06,64,67,41
64.2,64.26,66,67,41
64.4,64.56,67,56,41
64.8,65.36,62,80,41
65.6,66.16,62,80,41
66.4,66.96,62,80,41
67.2,67.76,62,80,41
68.0,68.56,62,80,41
68.8,69.36,62,80,41
71.0,71.12,58,56,41
71.2,71.32,58,56,41
71.4,71.52,58,56,41
71.8,71.92,53,56,41
72.0,72.12,53,56,41
72.2,72.32,53,56,41
72.6,72.72,58,56,41
72.8,72.92,58,56,41
73.0,73.12,58,56,41
73.4,73.52,58,56,41
73.6,73.72,58,56,41
73.8,73.92,58,56,41
74.2,74.32,58,56,41
74.4,74.52,58,56,41
74.6,74.72,58,56,41
75.0,75.16,53,56,41
75.2,75.36,53,56,41
75.4,75.56,53,56,41
75.8,75.96,58,56,41
76.0,76.16,58,56,41
76.2,76.36,58,56,41
76.6,76.72,58,56,41
76.8,76.92,58,56,41
77.0,77.12,58,56,41
77.4,77.52,58,56,41
77.6,77.72,58,56,41
77.8,77.92,58,56,41
78.0,78.12,57,56,41
78.2,78.32,57,56,41
78.4,78.52,56,56,41
78.6,78.72,56,56,41
78.8,79.0,55,67,41
79.0,79.2,54,67,41
79.2,79.4,55,67,41
79.4,79.6,57,67,41
79.6,79.8,58,67,41
79.8,80.0,54,67,41
80.0,80.2,55,67,41
80.2,80.4,57,67,41
80.4,81.04,59,56,41
81.2,81.84,57,56,41
82.0,82.32,55,104,41
82.8,83.12,62,104,41
83.6,83.92,67,104,41
84.4,84.72,71,104,41
85.2,85.52,74,104,41
86.4,86.46,71,104,41
86.6,86.66,71,104,41
86.8,86.96,71,104,41
87.0,87.16,64,104,41
87.2,87.26,69,104,41
87.4,87.46,69,104,41
87.6,87.8,69,104,41
87.8,87.96,62,104,41
88.0,88.06,62,80,41
88.2,88.26,67,80,41
88.6,88.76,67,80,41
88.8,88.86,61,80,41
89.0,89.06,66,80,41
89.4,89.56,66,80,41
89.6,89.66,59,80,41
89.8,89.86,64,80,41
90.2,90.36,64,80,41
90.4,90.46,57,80,41
90.6,90.66,62,80,41
91.0,91.16,62,80,41
91.2,91.26,55,80,41
91.4,91.46,67,80,41
91.6,92.2,67,80,41
92.2,92.36,71,80,41
92.4,93.0,62,80,41
93.0,93.16,60,80,41
93.2,93.52,59,80,41
94.0,94.4,62,56,41
94.4,94.8,66,56,41
94.8,95.2,67,74,41
95.2,95.36,59,56,41
95.6,96.0,64,74,41
96.0,96.16,57,56,41
96.4,96.8,66,74,41
96.8,96.96,67,56,41
97.2,97.52,60,62,41
97.6,97.92,57,56,41
98.0,98.4,55,81,41
98.4,98.56,58,56,41
98.8,99.2,59,67,41
99.2,99.52,60,56,41
99.6,99.76,59,56,41
100.0,100.06,64,73,41
100.2,100.26,64,73,41
100.4,100.6,64,73,41
100.6,100.76,57,73,41
100.8,100.86,62,73,41
101.0,101.06,62,73,41
101.2,101.4,62,73,41
101.4,101.56,55,73,41
101.6,101.76,64,56,41
102.0,102.16,64,56,41
102.4,102.56,62,56,41
102.8,102.96,62,56,41
103.2,103.36,69,56,41
103.6,103.76,69,56,41
104.0,104.16,72,56,41
104.4,104.56,71,64,41
104.8,104.86,67,66,41
105.0,105.06,66,67,41
105.2,105.26,65,69,41
105.4,105.46,64,70,41
105.6,105.66,62,71,41
105.8,105.86,60,72,41
106.0,106.4,59,80,41
106.4,106.46,67,75,41
106.6,106.66,66,76,41
106.8,106.86,65,78,41
107.0,107.06,64,79,41
107.2,107.26,62,80,41
107.4,107.46,60,81,41
107.6,108.0,59,90,41
109.2,109.4,63,38,41
109.4,109.6,60,38,41
109.6,109.8,63,38,41
110.0,110.2,62,38,41
110.2,110.4,59,38,41
110.4,110.6,62,38,41
111.8,111.96,67,64,41
112.0,112.16,66,64,41
112.2,112.36,65,64,41
112.4,112.6,63,74,41
112.6,112.8,62,64,41
112.8,113.0,63,64,41
113.0,113.2,60,64,41
113.2,113.4,59,64,41
113.4,113.6,57,64,41
113.6,113.8,59,64,41
113.8,114.0,55,64,41
114.0,114.8,60,64,41
114.8,115.2,67,70,41
115.6,115.7,60,51,41
115.7,115.8,55,51,41
115.8,115.9,60,51,41
115.9,116.0,55,51,41
116.0,116.2,60,51,41
116.4,116.5,62,51,41
116.5,116.6,59,51,41
116.6,116.7,62,51,41
116.7,116.8,59,51,41
116.8,117.0,62,51,41
119.4,119.56,63,83,41
119.6,119.76,68,85,41
119.8,119.96,65,87,41
121.2,121.36,63,51,41
121.4,121.56,58,51,41
121.6,121.76,63,51,41
122.0,122.16,65,51,41
122.2,122.36,62,51,41
122.4,122.56,65,51,41
126.0,126.16,65,41,41
126.2,126.36,60,41,41
126.4,126.56,65,41,41
126.8,126.96,67,41,41
127.0,127.16,64,41,41
127.2,127.36,67,41,41
130.4,130.46,66,106,41
130.6,130.66,66,106,41
130.8,131.0,66,106,41
131.0,131.16,72,106,41
131.2,131.26,63,106,41
131.4,131.46,63,106,41
131.6,131.8,63,106,41
131.8,131.96,69,106,41
133.6,133.76,66,106,41
133.8,133.96,66,106,41
134.0,134.2,66,106,41
134.2,134.36,59,106,41
134.4,134.46,59,106,41
134.6,134.66,59,106,41
134.8,134.96,59,106,41
135.0,135.16,53,106,41
136.8,136.86,68,106,41
137.0,137.06,68,106,41
137.2,137.4,68,106,41
137.4,137.56,61,106,41
137.6,137.76,61,106,41
137.8,137.96,61,106,41
138.0,138.2,61,106,41
138.2,138.36,55,106,41
139.2,139.26,68,106,41
139.4,139.46,68,106,41
139.6,139.8,68,106,41
139.8,139.96,61,106,41
140.0,140.06,64,106,41
140.2,140.26,64,106,41
140.4,140.6,64,106,41
140.6,140.76,57,106,41
140.8,140.86,61,106,41
141.0,141.06,61,106,41
141.2,141.4,61,106,41
141.4,141.56,54,106,41
141.6,141.66,69,106,41
141.8,141.86,69,106,41
142.0,142.2,69,106,41
142.2,142.36,63,106,41
142.4,142.46,66,106,41
142.6,142.66,66,106,41
142.8,143.0,66,106,41
143.0,143.16,64,106,41
143.2,143.26,63,106,41
143.4,143.46,61,106,41
143.6,144.0,59,106,41
145.2,145.36,64,48,41
145.4,145.56,59,48,41
145.6,145.76,64,48,41
146.0,146.16,66,48,41
146.2,146.36,63,48,41
146.4,146.56,66,48,41
146.8,147.12,59,64,41
148.4,148.56,64,48,41
148.6,148.76,59,48,41
148.8,148.96,64,48,41
149.2,149.36,66,48,41
149.4,149.56,63,48,41
149.6,149.76,66,48,41
150.0,150.4,59,64,41
151.6,151.7,64,51,41
151.7,151.8,59,51,41
151.8,151.9,64,51,41
151.9,152.0,59,51,41
152.0,152.16,64,51,41
152.4,152.5,67,51,41
152.5,152.6,64,51,41
152.6,152.7,67,51,41
152.7,152.8,64,51,41
152.8,152.96,67,51,41
153.2,153.52,55,64,41
153.6,153.66,67,96,41
153.8,153.86,66,96,41
154.0,154.06,65,96,41
154.2,154.26,64,96,41
154.4,154.46,62,96,41
154.6,154.66,60,96,41
154.8,155.2,59,96,41
155.2,155.26,67,96,41
155.4,155.46,66,96,41
155.6,155.66,65,96,41
155.8,155.86,64,96,41
156.0,156.06,62,96,41
156.2,156.26,60,96,41
156.4,156.8,59,96,41
157.2,157.36,59,96,41
157.2,157.36,62,96,41
157.6,157.76,62,96,41
157.6,157.76,59,96,41
158.0,158.16,62,96,41
158.0,158.16,59,96,41
159.6,159.8,64,48,41
159.8,160.0,60,48,41
160.0,160.2,64,48,41
160.4,160.6,62,48,41
160.6,160.8,59,48,41
160.8,161.0,62,48,41
162.2,162.4,67,64,41
162.4,162.6,66,64,41
162.6,162.8,65,64,41
162.8,162.86,64,64,41
163.0,163.06,64,51,41
163.2,163.26,64,64,41
163.4,163.46,64,64,41
163.6,163.66,59,64,41
163.8,163.86,59,64,41
164.0,164.06,59,64,41
164.2,164.26,59,64,41
164.4,164.6,60,64,41
164.6,164.8,64,64,41
164.8,165.0,65,64,41
165.0,165.2,60,64,41
165.2,165.6,67,64,41
166.0,166.1,60,48,41
166.1,166.2,55,48,41
166.2,166.3,60,48,41
166.3,166.4,55,48,41
166.4,166.6,60,48,41
166.8,166.9,62,48,41
166.9,167.0,59,48,41
167.0,167.1,62,48,41
167.1,167.2,59,48,41
167.2,167.4,62,48,41
168.8,168.86,55,64,41
169.0,169.06,55,64,41
169.2,169.26,57,64,41
169.4,169.46,57,64,41
169.6,169.66,58,64,41
169.8,169.86,58,64,41
170.0,170.06,60,64,41
170.2,170.26,60,64,41
170.4,170.46,62,64,41
170.6,170.66,62,64,41
170.8,170.96,64,64,41
171.0,171.16,60,64,41
171.2,171.36,67,64,41
171.4,171.56,67,64,41
171.6,171.76,64,64,41
172.0,172.06,60,115,41
172.2,172.26,60,115,41
172.4,172.52,59,115,41
173.6,173.66,62,64,41
173.8,173.86,62,64,41
174.0,174.48,64,64,41
174.6,174.76,64,64,41
174.8,174.96,65,64,41
175.2,175.26,60,115,41
175.4,175.46,60,115,41
175.6,175.76,59,115,41
176.8,176.86,62,64,41
177.0,177.06,62,64,41
177.2,177.8,62,64,41
177.8,178.0,64,64,41
178.0,178.2,66,64,41
178.2,178.36,67,64,41
178.8,179.0,64,64,41
179.0,179.2,60,64,41
179.2,179.4,64,64,41
179.6,179.8,62,64,41
179.8,180.0,59,64,41
180.0,180.2,62,64,41
181.8,182.0,60,83,41
182.0,182.2,65,85,41
182.2,182.32,62,87,41
183.6,183.72,64,55,41
183.8,183.92,64,56,41
184.0,184.12,64,57,41
184.4,184.52,62,60,41
184.6,184.72,62,61,41
184.8,184.92,62,62,41
185.2,185.8,67,77,41
185.8,186.0,59,82,41
186.0,186.16,60,83,41
186.4,186.46,60,96,41
186.6,186.66,60,96,41
186.8,186.96,55,96,41
187.2,187.26,64,86,41
187.4,187.46,64,86,41
187.6,187.66,60,86,41
187.8,187.86,67,86,41
188.0,188.06,64,86,41
188.2,188.26,72,86,41
188.4,188.46,67,86,41
188.6,188.66,64,86,41
188.8,188.86,60,86,41
189.0,189.06,67,86,41
189.2,189.26,64,86,41
189.4,189.46,72,86,41
190.0,190.06,55,69,41
190.1,190.16,55,69,41
190.2,190.26,55,69,41
190.3,190.36,55,69,41
190.4,190.46,55,69,41
190.5,190.56,55,69,41
190.6,190.66,55,69,41
190.7,190.76,55,69,41
190.8,190.86,59,69,41
190.9,190.96,59,69,41
191.0,191.06,59,69,41
191.1,191.16,59,69,41
191.2,191.26,62,69,41
191.3,191.36,62,69,41
191.4,191.46,62,69,41
191.5,191.56,62,69,41
191.6,191.66,60,69,41
191.7,191.76,60,69,41
191.8,191.86,60,69,41
191.9,191.96,60,69,41
192.0,192.06,60,69,41
192.1,192.16,60,69,41
192.2,192.26,60,69,41
192.3,192.36,60,69,41
192.4,192.46,64,69,41
192.5,192.56,64,69,41
192.6,192.66,64,69,41
192.7,192.76,64,69,41
192.8,192.86,67,69,41
192.9,192.96,67,69,41
193.0,193.06,67,69,41
193.1,193.16,67,69,41
193.2,193.26,52,69,41
193.3,193.36,52,69,41
193.4,193.46,52,69,41
193.5,193.56,52,69,41
193.6,193.66,52,69,41
193.7,193.76,52,69,41
193.8,193.86,52,69,41
193.9,193.96,52,69,41
194.0,194.06,56,69,41
194.1,194.16,56,69,41
194.2,194.26,56,69,41
194.3,194.36,56,69,41
194.4,194.46,59,69,41
194.5,194.56,59,69,41
194.6,194.66,59,69,41
194.7,194.76,59,69,41
194.8,194.86,57,69,41
194.9,194.96,57,69,41
195.0,195.06,57,69,41
195.1,195.16,57,69,41
195.2,195.26,57,69,41
195.3,195.36,57,69,41
195.4,195.46,57,83,41
195.5,195.56,57,69,41
195.6,195.66,60,69,41
195.7,195.76,60,69,41
195.8,195.86,60,69,41
195.9,195.96,60,69,41
196.0,196.06,64,69,41
196.1,196.16,64,69,41
196.2,196.26,64,69,41
196.3,196.36,64,69,41
196.4,196.46,48,62,41
196.5,196.56,48,69,41
196.6,196.66,48,69,41
196.7,196.76,48,69,41
196.8,196.86,48,69,41
196.9,196.96,48,69,41
197.0,197.06,48,69,41
197.1,197.16,48,69,41
197.2,197.26,52,69,41
197.3,197.36,52,69,41
197.4,197.46,52,69,41
197.5,197.56,52,69,41
197.6,197.66,55,69,41
197.7,197.76,55,69,41
197.8,197.86,55,69,41
197.9,197.96,55,69,41
198.0,198.06,53,69,41
198.1,198.16,53,69,41
198.2,198.26,53,69,41
198.3,198.36,53,69,41
198.4,198.46,53,69,41
198.5,198.56,53,69,41
198.6,198.66,53,69,41
198.7,198.76,53,69,41
198.8,198.86,57,69,41
198.9,198.96,57,69,41
199.0,199.06,57,69,41
199.1,199.16,57,69,41
199.2,199.26,60,69,41
199.3,199.36,60,69,41
199.4,199.46,60,69,41
199.5,199.56,60,69,41
199.6,199.66,50,69,41
199.7,199.76,50,69,41
199.8,199.86,50,69,41
199.9,199.96,50,69,41
200.0,200.06,50,69,41
200.1,200.16,50,69,41
200.2,200.26,50,69,41
200.3,200.36,50,69,41
200.4,200.46,54,69,41
200.5,200.56,54,69,41
200.6,200.66,54,69,41
200.7,200.76,54,69,41
200.8,200.86,57,69,41
200.9,200.96,57,69,41
201.0,201.06,57,69,41
201.1,201.16,57,69,41
201.2,201.26,55,69,41
201.3,201.36,55,69,41
201.4,201.46,55,69,41
201.5,201.56,55,69,41
201.6,201.66,55,69,41
201.7,201.76,55,69,41
201.8,201.86,55,69,41
201.9,201.96,55,69,41
202.0,202.06,53,69,41
202.1,202.16,53,69,41
202.2,202.26,53,69,41
202.3,202.36,53,69,41
202.4,202.46,51,69,41
202.5,202.56,51,69,41
202.6,202.66,51,69,41
202.7,202.76,51,69,41
202.8,202.86,50,69,41
202.9,202.96,50,69,41
203.0,203.06,50,69,41
203.1,203.16,50,69,41
203.2,203.26,55,69,41
203.3,203.36,55,69,41
203.4,203.46,55,69,41
203.5,203.56,55,69,41
203.6,203.66,53,69,41
203.7,203.76,53,69,41
203.8,203.86,53,69,41
203.9,203.96,53,69,41
204.0,204.06,51,69,41
204.1,204.16,51,69,41
204.2,204.26,51,69,41
204.3,204.36,51,69,41
204.4,204.56,50,86,41
204.8,204.86,59,64,41
205.0,205.06,59,64,41
205.2,205.36,59,64,41
207.2,207.36,66,64,41
207.6,207.76,67,64,41
208.0,208.16,64,64,41
208.4,208.56,65,64,41
208.8,208.96,62,64,41
209.2,209.6,59,64,41
209.6,210.0,60,64,41
210.0,210.4,65,64,41
210.4,210.8,66,64,41
210.8,211.2,67,64,41
211.8,212.0,59,62,41
212.0,212.06,60,96,41
212.2,212.26,60,96,41
212.4,212.56,60,96,41
212.6,212.76,56,96,41
212.8,212.86,57,96,41
213.0,213.06,57,96,41
213.2,213.36,57,96,41
213.4,213.56,57,96,41
213.6,213.66,66,96,41
213.8,213.86,66,96,41
214.0,214.2,66,105,41
214.2,214.32,67,96,41
214.4,214.46,64,96,41
214.6,214.66,64,96,41
214.8,215.0,64,105,41
215.0,215.12,65,96,41
215.2,215.26,60,96,41
215.4,215.46,60,96,41
215.6,215.92,62,96,41
216.0,216.4,60,96,41
216.4,216.8,69,96,41
216.8,217.0,67,96,41
217.0,217.2,65,96,41
217.2,217.52,64,96,41
218.0,218.06,64,42,41
218.0,218.06,60,42,41
218.2,218.26,60,42,41
218.2,218.26,64,42,41
218.4,218.46,64,42,41
218.4,218.46,60,42,41
218.6,218.66,60,42,41
218.6,218.66,64,42,41
218.8,219.12,65,42,41
218.8,219.12,62,42,41
219.6,219.66,62,42,41
219.6,219.66,65,42,41
219.8,219.86,62,42,41
219.8,219.86,65,42,41
220.0,220.06,65,42,41
220.0,220.06,62,42,41
220.2,220.26,62,42,41
220.2,220.26,65,42,41
220.4,220.72,64,42,41
220.4,220.72,60,42,41
221.2,221.26,64,42,41
221.2,221.26,60,42,41
221.4,221.46,60,42,41
221.4,221.46,64,42,41
221.6,221.66,64,42,41
221.6,221.66,60,42,41
221.8,221.86,60,42,41
221.8,221.86,64,42,41
222.0,222.32,65,42,41
222.0,222.32,62,42,41
222.8,222.86,62,42,41
222.8,222.86,65,42,41
223.0,223.06,62,42,41
223.0,223.06,65,42,41
223.2,223.26,65,42,41
223.2,223.26,62,42,41
223.4,223.46,62,42,41
223.4,223.46,65,42,41
223.6,223.92,60,29,41
223.6,223.92,64,29,41
224.2,224.4,64,77,41
224.4,224.46,65,77,41
224.6,224.66,67,77,41
224.8,224.86,69,77,41
225.0,225.06,71,77,41
225.2,225.52,72,54,41
225.8,226.0,64,77,41
226.0,226.06,65,77,41
226.2,226.26,67,77,41
226.4,226.46,69,77,41
226.6,226.66,71,77,41
226.8,227.12,72,54,41
227.4,227.6,64,77,41
227.6,227.66,65,77,41
227.8,227.86,67,77,41
228.0,228.06,69,62,41
228.2,228.26,71,77,41
228.4,228.56,72,77,41
228.8,229.26,67,70,41
229.6,230.06,67,70,41
230.4,230.86,67,70,41
231.2,231.66,67,70,41
232.0,232.46,67,70,41
232.8,233.26,67,70,41
235.0,235.12,63,48,41
235.2,235.32,63,48,41
235.4,235.52,63,48,41
235.8,235.92,58,48,41
236.0,236.12,58,48,41
236.2,236.32,58,48,41
236.6,236.72,63,48,41
236.8,236.92,63,48,41
237.0,237.12,63,48,41
237.4,237.52,63,48,41
237.6,237.72,63,48,41
237.8,237.92,63,48,41
238.2,238.32,63,48,41
238.4,238.52,63,48,41
238.6,238.72,63,48,41
239.0,239.16,58,48,41
239.2,239.36,58,48,41
239.4,239.56,58,48,41
239.8,239.96,63,48,41
240.0,240.16,63,48,41
240.2,240.36,63,48,41
240.6,240.72,63,48,41
240.8,240.92,63,48,41
241.0,241.12,63,48,41
241.4,241.52,63,48,41
241.6,241.72,63,48,41
241.8,241.92,63,48,41
242.0,242.12,62,48,41
242.2,242.32,62,48,41
242.4,242.52,61,48,41
242.6,242.72,61,48,41
242.8,243.0,60,48,41
243.0,243.2,59,48,41
243.2,243.4,60,64,41
243.4,243.6,62,64,41
243.6,243.8,63,64,41
243.8,244.0,59,64,41
244.0,244.2,60,64,41
244.2,244.4,62,64,41
244.4,245.04,63,64,41
245.2,245.84,62,51,41
246.0,246.2,60,68,41
246.2,246.4,59,70,41
246.4,246.6,60,72,41
246.6,246.8,61,75,41
246.8,247.0,63,77,41
247.0,247.2,66,80,41
247.2,247.4,65,82,41
247.4,247.6,63,85,41
247.6,247.76,61,66,41
247.8,247.92,56,41,41
248.0,248.12,56,41,41
248.2,248.32,56,41,41
248.6,248.72,56,46,41
248.8,248.92,56,46,41
249.0,249.12,56,46,41
249.4,249.56,56,46,41
249.6,249.76,56,46,41
249.8,249.96,56,46,41
250.2,250.36,56,46,41
250.4,250.56,56,46,41
250.6,250.76,56,46,41
251.0,251.16,68,42,41
251.2,251.36,68,42,41
251.4,251.56,68,42,41
251.8,251.96,68,42,41
252.0,252.16,68,42,41
252.2,252.36,68,42,41
252.6,252.76,68,42,41
252.8,252.96,68,42,41
253.0,253.16,68,42,41
253.4,253.56,68,42,41
253.6,253.76,68,42,41
253.8,253.96,68,42,41
254.2,254.36,68,42,41
254.4,254.56,68,42,41
254.6,254.76,68,42,41
255.0,255.16,68,42,41
255.2,255.36,68,42,41
255.4,255.56,68,42,41
255.8,255.92,68,42,41
256.0,256.12,68,42,41
256.2,256.32,68,42,41
256.6,256.72,69,42,41
256.8,256.92,69,42,41
257.0,257.12,69,42,41
257.4,257.52,67,42,41
257.6,257.72,67,42,41
257.8,257.92,67,42,41
258.2,258.32,65,42,41
258.4,258.52,65,42,41
258.6,258.72,65,42,41
259.0,259.12,63,42,41
259.2,259.32,63,42,41
259.4,259.52,63,42,41
259.8,259.96,51,42,41
260.0,260.16,51,42,41
260.2,260.36,51,42,41
260.4,261.2,52,51,41
261.2,262.0,53,51,41
262.0,262.32,48,96,41
262.8,263.12,55,96,41
263.6,263.92,60,96,41
264.4,264.72,64,96,41
265.2,265.52,67,96,41
266.4,266.46,64,98,41
266.6,266.66,64,98,41
266.8,266.96,64,98,41
267.0,267.16,57,98,41
267.2,267.26,62,98,41
267.4,267.46,62,98,41
267.6,267.76,62,98,41
267.8,267.96,55,98,41
268.0,268.06,55,82,41
268.2,268.26,60,82,41
268.6,268.76,60,82,41
268.8,268.86,54,82,41
269.0,269.06,59,82,41
269.4,269.56,71,82,41
269.6,269.66,64,82,41
269.8,269.86,69,82,41
270.2,270.36,69,82,41
270.4,270.46,62,82,41
270.6,270.66,67,82,41
271.0,271.16,67,82,41
271.2,271.26,60,82,41
271.4,271.46,72,82,41
271.6,272.2,72,82,41
272.2,272.4,76,96,41
272.4,273.0,67,96,41
273.0,273.2,65,96,41
273.2,273.6,64,96,41
274.0,274.32,67,64,41
274.4,274.72,71,64,41
274.8,275.2,72,77,41
275.2,275.36,64,64,41
275.6,276.0,69,77,41
276.0,276.16,62,64,41
276.4,276.8,71,77,41
276.8,276.96,72,64,41
277.2,277.52,53,70,41
277.6,277.92,50,64,41
278.0,278.4,48,70,41
278.4,278.56,51,64,41
278.8,279.2,52,64,41
279.2,279.6,53,64,41
279.6,279.76,52,64,41
280.0,280.06,57,92,41
280.2,280.26,57,92,41
280.4,280.6,57,92,41
280.6,280.76,50,92,41
280.8,280.86,55,92,41
281.0,281.06,55,92,41
281.2,281.4,55,92,41
281.4,281.56,48,92,41
281.6,281.76,57,64,41
282.0,282.16,57,64,41
282.4,282.56,55,64,41
282.8,282.96,55,64,41
283.2,283.36,62,64,41
283.6,283.76,62,64,41
284.0,284.16,65,64,41
284.4,284.56,64,64,41
284.8,284.86,60,77,41
285.0,285.06,59,77,41
285.2,285.26,58,77,41
285.4,285.46,57,77,41
285.6,285.66,55,77,41
285.8,285.86,53,77,41
286.0,286.4,52,77,41
286.4,286.46,72,64,41
286.6,286.66,71,64,41
286.8,286.86,70,64,41
287.0,287.06,69,64,41
287.2,287.26,67,64,41
287.4,287.46,65,64,41
287.6,288.0,64,64,41
289.2,290.0,76,64,41
290.0,290.4,75,64,41
290.8,291.2,74,64,41
291.2,292.0,72,64,41
292.0,292.8,71,64,41
292.8,294.0,69,64,41
294.0,294.32,67,64,41
294.8,295.12,60,64,41
295.6,295.92,59,64,41
296.4,296.72,57,64,41
297.2,297.52,55,64,41
298.8,298.9,64,48,41
298.9,299.0,60,48,41
299.0,299.1,64,48,41
299.1,299.2,60,48,41
299.2,299.36,64,48,41
299.6,299.7,62,48,41
299.7,299.8,59,48,41
299.8,299.9,62,48,41
299.9,300.0,59,48,41
300.0,300.16,62,48,41
301.8,302.0,60,92,41
302.0,302.2,65,95,41
302.2,302.36,62,97,41
303.6,304.4,64,64,41
304.4,304.6,64,64,41
304.6,304.8,61,64,41
304.8,305.0,62,64,41
305.0,305.2,69,64,41
305.2,305.8,67,64,41
305.8,306.0,59,64,41
306.0,306.2,60,64,41
306.2,306.4,64,64,41
306.4,306.6,62,64,41
306.6,306.8,60,64,41
306.8,307.0,59,64,41
307.0,307.2,55,64,41
307.2,307.4,57,64,41
307.4,307.6,59,64,41
307.6,307.8,60,64,41
307.8,308.0,64,75,41
308.0,308.2,62,77,41
308.2,308.4,60,79,41
308.4,308.6,59,81,41
308.6,308.8,55,83,41
308.8,309.0,57,85,41
309.0,309.2,59,87,41
309.2,309.4,60,90,41
309.4,309.6,64,92,41
309.6,309.8,62,94,41
309.8,310.0,60,96,41
310.0,310.2,59,98,41
310.2,310.4,55,100,41
310.4,310.6,57,102,41
310.6,310.8,59,104,41
310.8,310.96,60,106,41
311.2,311.36,65,64,41
311.6,311.9,64,64,41
311.9,312.0,62,64,41
312.0,312.3,64,64,41
312.3,312.4,62,64,41
312.4,312.5,64,64,41
312.5,312.6,62,64,41
312.6,312.7,64,64,41
312.7,312.8,62,64,41
312.8,312.9,64,75,41
312.9,313.0,62,78,41
313.0,313.1,64,80,41
313.1,313.2,62,83,41
313.2,313.3,64,85,41
313.3,313.4,62,88,41
313.4,313.5,64,91,41
313.5,313.6,62,93,41
313.6,313.7,64,96,41
313.7,313.8,62,98,41
313.8,313.9,64,101,41
313.9,314.0,62,103,41
314.0,314.06,64,106,41
314.1,314.16,67,56,41
314.2,314.26,67,56,41
314.3,314.36,67,56,41
314.4,314.46,65,56,41
314.5,314.56,65,56,41
314.6,314.66,65,56,41
314.7,314.76,65,56,41
314.8,314.86,64,56,41
314.9,314.96,64,56,41
315.0,315.06,64,56,41
315.1,315.16,64,56,41
315.2,315.26,62,56,41
315.3,315.36,62,56,41
315.4,315.46,62,56,41
315.5,315.56,62,56,41
315.6,315.66,64,56,41
315.7,315.76,64,56,41
315.8,315.86,64,56,41
315.9,315.96,64,56,41
316.0,316.06,62,56,41
316.1,316.16,62,56,41
316.2,316.26,62,56,41
316.3,316.36,62,56,41
316.4,316.6,60,64,41
316.6,316.8,55,64,41
316.8,317.0,53,64,41
317.0,317.2,52,64,41
317.2,317.4,50,64,41
317.4,317.6,59,64,41
317.6,317.8,60,64,41
317.8,318.0,62,64,41
318.0,318.2,64,75,41
318.2,318.4,55,77,41
318.4,318.6,53,79,41
318.6,318.8,52,81,41
318.8,319.0,50,83,41
319.0,319.2,59,85,41
319.2,319.4,60,87,41
319.4,319.6,62,90,41
319.6,319.8,64,92,41
319.8,320.0,55,94,41
320.0,320.2,53,96,41
320.2,320.4,52,98,41
320.4,320.6,50,100,41
320.6,320.8,59,102,41
320.8,321.0,60,104,41
321.0,321.2,62,106,41
321.2,321.36,60,86,41
321.6,321.76,62,64,41
322.0,322.3,64,64,41
322.3,322.4,62,64,41
322.4,322.7,64,64,41
322.7,322.8,62,64,41
322.8,322.9,64,64,41
322.9,323.0,62,64,41
323.0,323.1,64,64,41
323.1,323.2,62,64,41
323.2,323.3,64,70,41
323.3,323.4,62,73,41
323.4,323.5,64,76,41
323.5,323.6,62,79,41
323.6,323.7,64,81,41
323.7,323.8,62,84,41
323.8,323.9,64,87,41
323.9,324.0,62,90,41
324.0,324.1,64,93,41
324.1,324.2,62,96,41
324.2,324.3,64,99,41
324.3,324.4,62,101,41
324.4,324.46,64,104,41
324.5,324.56,64,107,41
324.6,324.66,64,67,41
324.7,324.76,64,67,41
324.8,324.86,67,67,41
324.9,324.96,71,67,41
325.0,325.06,71,67,41
325.1,325.16,71,67,41
325.2,325.26,71,67,41
325.3,325.36,72,67,41
325.4,325.46,72,67,41
325.5,325.56,72,67,41
325.6,325.66,67,67,41
325.7,325.76,65,67,41
325.8,325.86,65,67,41
325.9,325.96,65,67,41
326.0,326.06,65,67,41
326.1,326.16,64,67,41
326.2,326.26,64,67,41
326.3,326.36,64,67,41
326.4,326.46,64,67,41
326.5,326.56,62,67,41
326.6,326.66,62,67,41
326.7,326.76,62,67,41
326.8,326.96,60,105,41
327.2,327.26,57,105,41
327.4,327.46,57,105,41
327.6,327.8,57,102,41
327.8,327.96,50,102,41
328.8,329.2,60,105,41
329.2,329.6,59,105,41
329.6,329.76,71,105,41
329.6,329.76,65,105,41
330.0,330.16,72,105,41
330.0,330.16,64,105,41
330.4,330.46,57,96,41
330.6,330.66,57,96,41
330.8,331.0,57,102,41
331.0,331.16,50,102,41
332.0,332.32,60,64,41
332.4,332.72,59,64,41
332.8,332.96,65,64,41
332.8,332.96,71,64,41
333.2,333.36,64,64,41
333.2,333.36,72,64,41
333.6,333.66,57,112,41
333.8,333.86,57,112,41
334.0,334.2,57,112,41
334.2,334.36,50,112,41
334.4,334.46,55,112,41
334.6,334.66,55,112,41
334.8,335.0,55,112,41
335.0,335.16,48,112,41
335.2,335.26,55,112,41
335.4,335.46,55,112,41
335.6,335.8,55,112,41
335.8,335.9818,48,112,41
336.02728,336.09546,67,112,41
336.25455,336.32272,67,112,41
336.4818,336.74268,67,112,41
336.74268,336.9514,60,112,41
0.4,0.8,60,64,42
1.2,1.6,55,64,42
2.0,2.2,48,64,42
2.2,2.4,52,64,42
2.4,2.6,53,64,42
2.6,2.8,54,64,42
2.8,3.2,55,64,42
5.4,5.6,58,64,42
5.6,5.8,57,64,42
5.8,6.0,53,64,42
6.0,6.4,55,64,42
6.8,6.92,48,64,42
7.0,7.12,48,64,42
7.2,7.32,48,64,42
7.6,7.72,55,64,42
7.8,7.92,55,64,42
8.0,8.12,55,64,42
8.4,8.52,60,64,42
8.6,8.8,52,64,42
8.8,9.0,53,64,42
9.0,9.2,54,64,42
9.2,9.4,55,64,42
9.4,9.46,53,64,42
9.6,9.66,52,64,42
9.8,9.86,52,64,42
10.0,10.06,53,64,42
10.2,10.26,53,64,42
10.4,10.46,55,64,42
10.6,10.66,55,64,42
10.8,10.86,57,64,42
11.0,11.06,57,64,42
11.2,11.26,56,64,42
11.4,11.46,56,64,42
11.6,11.72,55,64,42
11.8,11.92,55,64,42
12.0,12.12,55,64,42
12.2,12.32,55,64,42
12.4,12.56,48,64,42
12.8,12.86,48,96,42
13.0,13.06,48,96,42
13.2,13.32,47,96,42
14.0,14.12,43,64,42
14.2,14.32,55,64,42
14.4,14.52,55,64,42
14.6,14.72,55,64,42
14.8,14.92,55,64,42
15.0,15.12,55,64,42
15.2,15.32,55,64,42
15.4,15.52,55,64,42
15.6,15.72,55,64,42
16.0,16.06,48,96,42
16.2,16.26,48,96,42
16.4,16.52,47,96,42
17.2,17.36,43,64,42
17.4,17.56,55,64,42
17.6,17.76,55,64,42
17.8,17.96,55,64,42
18.0,18.16,55,64,42
18.2,18.36,55,64,42
18.4,18.56,55,64,42
18.6,18.76,55,64,42
18.8,19.0,55,74,42
19.6,20.0,60,58,42
20.4,20.8,55,58,42
21.2,21.4,48,58,42
21.4,21.6,52,63,42
21.6,21.8,53,68,42
21.8,22.0,54,73,42
22.0,22.2,55,78,42
22.2,22.4,56,84,42
22.4,22.6,57,89,42
22.6,22.8,45,94,42
22.8,23.2,47,86,42
24.4,24.52,60,64,42
24.6,24.72,60,64,42
24.8,24.92,60,64,42
25.2,25.32,53,64,42
25.4,25.52,53,64,42
25.6,25.72,53,64,42
26.0,26.12,55,64,42
26.2,26.32,55,64,42
26.4,26.52,55,64,42
26.6,26.72,55,64,42
26.8,26.92,48,64,42
27.2,27.26,48,96,42
27.4,27.46,48,96,42
27.6,27.72,43,96,42
28.0,28.06,52,96,42
28.2,28.26,52,96,42
28.4,28.46,48,96,42
28.6,28.66,55,96,42
28.8,28.86,52,96,42
29.0,29.06,60,96,42
29.2,29.26,55,96,42
29.4,29.46,64,96,42
30.8,30.92,50,95,42
31.0,31.12,50,95,42
31.2,31.32,50,95,42
31.4,31.52,50,95,42
31.6,31.72,50,95,42
31.8,31.92,50,95,42
32.0,32.12,50,95,42
32.2,32.32,50,95,42
32.4,32.72,48,96,42
32.8,33.12,57,96,42
33.2,33.52,52,96,42
33.6,33.92,60,96,42
34.0,34.16,48,95,42
34.2,34.36,48,95,42
34.4,34.56,48,95,42
34.6,34.76,48,95,42
34.8,34.96,48,95,42
35.0,35.16,48,95,42
35.2,35.36,48,95,42
35.4,35.56,48,95,42
35.6,35.92,46,96,42
36.0,36.32,55,96,42
36.4,36.72,50,96,42
36.8,37.12,58,96,42
37.2,37.32,51,95,42
37.4,37.52,51,95,42
37.6,37.72,51,95,42
37.8,37.92,51,95,42
38.0,38.12,51,95,42
38.2,38.32,51,95,42
38.4,38.52,51,95,42
38.6,38.72,51,95,42
38.8,38.92,50,95,42
39.0,39.12,48,95,42
39.2,39.32,46,95,42
39.4,39.52,43,95,42
39.6,39.72,42,95,42
39.8,39.92,38,95,42
40.0,40.12,43,95,42
40.2,40.32,46,95,42
40.4,40.52,50,95,42
40.6,40.72,48,95,42
40.8,40.92,46,95,42
41.0,41.12,43,95,42
41.2,41.32,42,95,42
41.4,41.52,38,95,42
41.6,41.72,43,95,42
41.8,41.92,46,95,42
42.0,42.12,50,95,42
42.4,42.46,62,39,42
42.6,42.66,62,39,42
42.8,42.96,62,39,42
50.2,50.36,42,96,42
50.4,50.46,43,96,42
50.6,50.66,43,96,42
50.8,51.12,43,96,42
51.2,51.26,55,96,42
51.4,51.46,55,96,42
51.6,51.8,55,96,42
51.8,51.96,54,77,42
52.0,52.06,53,96,42
52.2,52.26,53,77,42
52.4,52.6,53,96,42
52.6,52.76,52,77,42
52.8,52.86,51,96,42
53.0,53.06,51,77,42
53.2,53.52,50,96,42
53.6,53.92,52,96,42
54.0,54.32,48,96,42
54.4,54.72,50,96,42
54.8,55.12,43,96,42
55.6,55.76,55,56,42
56.0,56.16,43,56,42
56.4,56.72,50,56,42
57.2,57.36,50,56,42
57.6,57.76,38,56,42
58.0,58.32,43,56,42
58.8,58.96,55,56,42
59.2,59.36,43,56,42
59.6,59.92,50,56,42
60.4,60.56,50,56,42
60.8,60.96,38,56,42
61.2,61.36,43,56,42
61.4,61.56,43,56,42
61.6,62.96,55,56,42
63.0,63.16,43,56,42
63.2,64.24,55,56,42
64.4,64.56,55,56,42
64.8,65.2,54,80,42
65.2,65.36,55,56,42
65.6,66.0,54,80,42
66.0,66.16,55,56,42
66.4,66.8,54,80,42
66.8,66.96,55,56,42
67.2,67.6,54,80,42
67.6,67.76,55,56,42
68.0,68.4,54,80,42
68.4,68.56,55,56,42
68.8,69.2,54,80,42
69.2,69.36,55,56,42
71.0,71.12,55,56,42
71.2,71.32,55,56,42
71.4,71.52,55,56,42
71.8,71.92,50,56,42
72.0,72.12,50,56,42
72.2,72.32,50,56,42
72.6,72.72,51,56,42
72.8,72.92,51,56,42
73.0,73.12,51,56,42
73.4,73.52,56,56,42
73.6,73.72,56,56,42
73.8,73.92,56,56,42
74.2,74.32,55,56,42
74.4,74.52,55,56,42
74.6,74.72,55,56,42
75.0,75.16,50,56,42
75.2,75.36,50,56,42
75.4,75.56,50,56,42
75.8,75.96,51,56,42
76.0,76.16,51,56,42
76.2,76.36,51,56,42
76.6,76.72,56,56,42
76.8,76.92,56,56,42
77.0,77.12,56,56,42
77.4,77.52,55,56,42
77.6,77.72,55,56,42
77.8,77.92,55,56,42
78.0,78.12,54,56,42
78.2,78.32,54,56,42
78.4,78.52,53,56,42
78.6,78.72,53,56,42
78.8,79.44,52,56,42
79.6,80.24,51,56,42
80.4,80.56,50,67,42
80.6,80.76,50,67,42
80.8,80.96,50,67,42
81.0,81.16,50,67,42
81.2,81.36,50,67,42
81.4,81.56,50,67,42
81.6,81.76,50,67,42
81.8,81.96,50,67,42
82.0,82.32,43,104,42
82.8,83.12,55,104,42
83.6,83.92,43,104,42
84.4,84.72,55,104,42
85.2,85.52,43,104,42
88.0,88.06,55,127,42
88.2,88.26,55,127,42
88.4,88.6,55,127,42
88.6,88.76,48,127,42
88.8,88.86,54,127,42
89.0,89.06,54,127,42
89.2,89.4,54,127,42
89.4,89.56,47,127,42
89.6,89.66,52,104,42
89.8,89.86,52,104,42
90.0,90.2,52,104,42
90.2,90.36,45,104,42
90.4,90.46,50,104,42
90.6,90.66,50,104,42
90.8,91.0,50,104,42
91.0,91.16,43,104,42
91.2,91.26,52,80,42
91.4,91.46,52,80,42
91.6,91.72,50,80,42
91.8,91.92,50,80,42
92.0,92.12,50,80,42
92.2,92.32,50,80,42
92.4,92.52,50,80,42
92.6,92.72,50,80,42
92.8,92.92,50,80,42
93.0,93.12,50,80,42
93.2,93.52,43,80,42
94.0,94.8,60,56,42
94.8,95.2,59,74,42
95.2,95.36,52,56,42
95.6,96.0,48,74,42
96.0,96.16,50,56,42
96.4,96.8,52,74,42
96.8,96.96,52,56,42
97.2,97.84,48,56,42
98.0,98.4,47,74,42
98.4,98.58833,49,56,42
98.8,99.6,50,67,42
99.6,99.76,55,56,42
101.6,101.66,52,73,42
101.8,101.86,52,73,42
102.0,102.2,52,73,42
102.2,102.36,45,73,42
102.4,102.46,50,73,42
102.6,102.66,50,73,42
102.8,103.0,50,73,42
103.0,103.16,43,73,42
103.2,103.36,49,56,42
103.6,103.76,50,56,42
104.0,104.16,38,56,42
104.4,104.56,43,64,42
105.2,105.26,62,69,42
105.4,105.46,60,70,42
105.6,105.66,59,71,42
105.8,105.86,57,72,42
106.0,106.4,55,80,42
106.8,106.86,62,78,42
107.0,107.06,60,79,42
107.2,107.26,59,80,42
107.4,107.46,57,81,42
107.6,108.0,55,90,42
109.2,109.52,60,64,42
110.0,110.32,55,64,42
110.8,111.0,48,74,42
111.0,111.2,51,64,42
111.2,111.4,53,64,42
111.4,111.6,50,64,42
111.6,111.92,55,74,42
114.2,114.4,58,64,42
114.4,114.6,56,64,42
114.6,114.8,53,64,42
114.8,115.2,55,70,42
115.6,115.76,48,64,42
115.8,115.96,48,64,42
116.0,116.16,48,64,42
116.4,116.56,55,64,42
116.6,116.76,55,64,42
116.8,116.96,55,64,42
117.2,117.4,60,58,42
117.4,117.6,51,58,42
117.6,117.8,53,58,42
117.8,118.0,54,58,42
118.0,118.2,55,68,42
118.2,118.4,43,69,42
118.4,118.6,44,72,42
118.6,118.8,45,74,42
118.8,119.0,46,77,42
119.0,119.2,47,78,42
119.2,119.4,48,81,42
119.4,119.6,36,83,42
119.6,119.92,38,85,42
121.2,121.52,51,64,42
122.0,122.32,46,64,42
123.2,123.26,61,51,42
123.4,123.46,61,51,42
123.6,123.76,61,51,42
123.8,123.96,55,51,42
124.0,124.06,58,51,42
124.2,124.26,58,51,42
124.4,124.6,58,51,42
124.6,124.76,52,51,42
126.0,126.32,53,62,42
126.8,127.12,48,62,42
128.0,128.06,63,83,42
128.2,128.26,63,83,42
128.4,128.6,63,83,42
128.6,128.76,57,83,42
128.8,128.86,60,83,42
129.0,129.06,60,83,42
129.2,129.4,60,83,42
129.4,129.56,53,83,42
130.4,130.46,63,106,42
130.6,130.66,63,106,42
130.8,131.0,63,106,42
131.0,131.16,69,106,42
131.2,131.26,59,106,42
131.4,131.46,59,106,42
131.6,131.8,59,106,42
131.8,131.96,66,106,42
132.8,132.96,52,108,42
133.0,133.16,52,108,42
133.2,133.4,52,108,42
133.4,133.56,46,108,42
134.4,134.46,47,108,42
134.6,134.66,47,108,42
134.8,134.96,47,108,42
135.0,135.16,41,108,42
136.0,136.06,54,108,42
136.2,136.26,54,108,42
136.4,136.56,54,108,42
136.6,136.76,48,108,42
137.6,137.66,49,106,42
137.8,137.86,49,106,42
138.0,138.2,49,106,42
138.2,138.36,43,106,42
139.2,139.26,56,106,42
139.4,139.46,56,106,42
139.6,139.8,56,106,42
139.8,139.96,49,106,42
140.0,140.06,52,106,42
140.2,140.26,52,106,42
140.4,140.6,52,106,42
140.6,140.76,45,106,42
140.8,140.86,49,106,42
141.0,141.06,49,106,42
141.2,141.4,49,106,42
141.4,141.56,42,106,42
141.6,141.66,57,106,42
141.8,141.86,57,106,42
142.0,142.2,57,106,42
142.2,142.36,51,106,42
142.4,142.46,54,106,42
142.6,142.66,54,106,42
142.8,143.0,54,106,42
143.0,143.16,52,106,42
143.2,143.26,51,106,42
143.4,143.46,49,106,42
143.6,144.0,47,106,42
145.2,145.52,52,64,42
146.0,146.32,47,64,42
146.8,147.12,52,64,42
148.4,148.72,52,64,42
149.2,149.52,47,64,42
150.0,150.4,52,64,42
151.6,151.92,52,64,42
152.4,152.72,52,64,42
153.2,153.52,50,64,42
154.0,154.06,62,96,42
154.2,154.26,60,96,42
154.4,154.46,59,96,42
154.6,154.66,57,96,42
154.8,155.2,55,96,42
155.6,155.66,62,96,42
155.8,155.86,60,96,42
156.0,156.06,59,96,42
156.2,156.26,57,96,42
156.4,156.8,55,96,42
157.2,157.36,43,96,42
157.6,157.76,43,96,42
158.0,158.16,43,96,42
159.6,160.0,60,64,42
160.4,160.8,55,64,42
161.2,161.4,48,64,42
161.4,161.6,52,64,42
161.6,161.8,53,64,42
161.8,162.0,54,64,42
162.0,162.4,55,64,42
164.6,164.8,58,64,42
164.8,165.0,57,64,42
165.0,165.2,53,64,42
165.2,165.6,55,64,42
166.0,166.16,48,64,42
166.2,166.36,48,64,42
166.4,166.56,48,64,42
166.8,166.96,55,64,42
167.0,167.16,55,64,42
167.2,167.36,55,64,42
167.6,167.8,60,64,42
167.8,168.0,52,64,42
168.0,168.2,53,64,42
168.2,168.4,54,64,42
168.4,168.6,55,64,42
168.6,168.76,53,64,42
168.8,168.86,52,64,42
169.0,169.06,52,64,42
169.2,169.26,53,64,42
169.4,169.46,53,64,42
169.6,169.66,55,64,42
169.8,169.86,55,64,42
170.0,170.06,57,64,42
170.2,170.26,57,64,42
170.4,170.46,56,64,42
170.6,170.66,56,64,42
170.8,170.96,55,64,42
171.0,171.16,55,64,42
171.2,171.36,55,64,42
171.4,171.56,55,64,42
171.6,171.76,48,64,42
172.0,172.06,48,115,42
172.2,172.26,48,115,42
172.4,172.52,47,115,42
173.2,173.36,43,64,42
173.4,173.56,55,64,42
173.6,173.76,55,64,42
173.8,173.96,55,64,42
174.0,174.16,55,64,42
174.2,174.36,55,64,42
174.4,174.56,55,64,42
174.6,174.76,55,64,42
174.8,174.96,55,64,42
175.2,175.26,48,115,42
175.4,175.46,48,115,42
175.6,175.76,47,115,42
176.4,176.56,43,64,42
176.6,176.76,55,64,42
176.8,176.96,55,64,42
177.0,177.16,55,64,42
177.2,177.36,55,64,42
177.4,177.56,55,64,42
177.6,177.76,55,64,42
177.8,177.96,55,64,42
178.0,178.16,55,64,42
178.8,179.12,60,64,42
179.6,179.92,55,64,42
180.4,180.6,48,68,42
180.6,180.8,52,70,42
180.8,181.0,53,72,42
181.0,181.2,54,74,42
181.2,181.4,55,77,42
181.4,181.6,56,78,42
181.6,181.8,57,81,42
181.8,182.0,45,83,42
182.0,182.4,47,85,42
183.6,183.72,60,55,42
183.8,183.92,60,56,42
184.0,184.12,60,57,42
184.4,184.52,53,60,42
184.6,184.72,53,61,42
184.8,184.92,53,62,42
185.2,185.32,55,91,42
185.4,185.52,55,93,42
185.6,185.72,55,95,42
185.8,185.92,55,96,42
186.0,186.16,48,98,42
186.4,186.46,48,96,42
186.6,186.66,48,96,42
186.8,186.96,43,96,42
187.2,187.26,52,99,42
187.4,187.46,52,99,42
187.6,187.66,48,99,42
187.8,187.86,55,99,42
188.0,188.06,52,99,42
188.2,188.26,60,99,42
188.4,188.46,55,99,42
188.6,188.66,64,99,42
190.0,190.06,47,109,42
190.2,190.26,55,109,42
190.4,190.46,50,109,42
190.6,190.66,59,109,42
190.8,190.86,55,109,42
191.0,191.06,62,109,42
191.2,191.26,59,109,42
191.4,191.46,67,109,42
191.6,192.24,60,109,42
192.4,193.04,48,109,42
193.2,193.26,44,109,42
193.4,193.46,52,109,42
193.6,193.66,47,109,42
193.8,193.86,56,109,42
194.0,194.06,52,109,42
194.2,194.26,59,109,42
194.4,194.46,56,109,42
194.6,194.66,64,109,42
194.8,195.44,57,109,42
195.6,196.24,45,109,42
196.4,196.46,40,103,42
196.6,196.66,48,114,42
196.8,196.86,43,114,42
197.0,197.06,52,114,42
197.2,197.26,48,114,42
197.4,197.46,55,114,42
197.6,197.66,52,114,42
197.8,197.86,60,114,42
198.0,198.64,53,114,42
198.8,199.44,41,114,42
199.6,199.66,42,114,42
199.8,199.86,50,114,42
200.0,200.06,45,114,42
200.2,200.26,54,114,42
200.4,200.46,50,114,42
200.6,200.66,57,114,42
200.8,200.86,54,114,42
201.0,201.06,62,114,42
201.2,201.26,55,114,42
201.4,201.46,53,114,42
201.6,201.66,51,114,42
201.8,201.86,48,114,42
202.0,202.06,47,114,42
202.2,202.26,43,114,42
202.4,202.46,48,114,42
202.6,202.66,36,114,42
202.8,202.86,43,114,42
203.0,203.06,53,114,42
203.2,203.26,51,114,42
203.4,203.46,48,114,42
203.6,203.66,47,114,42
203.8,203.86,43,114,42
204.0,204.06,48,114,42
204.2,204.26,36,114,42
204.4,204.46,43,114,42
204.8,204.86,55,64,42
205.0,205.06,55,64,42
205.2,205.36,55,64,42
212.6,212.76,47,96,42
212.8,212.86,48,96,42
213.0,213.06,48,96,42
213.2,213.52,48,96,42
213.6,213.66,60,96,42
213.8,213.86,60,96,42
214.0,214.2,60,105,42
214.2,214.32,59,96,42
214.4,214.46,58,96,42
214.6,214.66,58,96,42
214.8,215.0,58,105,42
215.0,215.12,57,96,42
215.2,215.26,56,96,42
215.4,215.46,56,96,42
215.6,215.92,55,96,42
216.0,216.4,57,96,42
216.4,216.8,53,96,42
216.8,217.2,55,96,42
217.2,217.52,48,96,42
218.0,218.16,60,64,42
218.4,218.56,48,64,42
218.8,219.12,55,64,42
219.6,219.76,55,64,42
220.0,220.16,43,64,42
220.4,220.72,48,64,42
221.2,221.36,60,64,42
221.6,221.76,48,64,42
222.0,222.32,55,64,42
222.8,222.96,55,64,42
223.2,223.36,43,64,42
223.6,223.76,48,64,42
223.8,223.96,48,64,42
224.0,225.36,60,64,42
225.4,225.56,48,64,42
225.6,226.64,60,64,42
227.0,227.16,48,64,42
227.2,228.24,60,64,42
228.4,228.56,60,64,42
228.8,229.2,59,70,42
229.2,229.36,60,64,42
229.6,230.0,59,70,42
230.0,230.16,60,64,42
230.4,230.8,59,70,42
230.8,230.96,60,64,42
231.2,231.6,59,70,42
231.6,231.66,60,64,42
232.0,232.4,59,70,42
232.4,232.46,60,64,42
232.8,233.2,59,70,42
233.2,233.26,60,64,42
235.0,235.12,60,48,42
235.2,235.32,60,48,42
235.4,235.52,60,48,42
235.8,235.92,55,48,42
236.0,236.12,55,48,42
236.2,236.32,55,48,42
236.6,236.72,56,48,42
236.8,236.92,56,48,42
237.0,237.12,56,48,42
237.4,237.52,61,48,42
237.6,237.72,61,48,42
237.8,237.92,61,48,42
238.2,238.32,60,48,42
238.4,238.52,60,48,42
238.6,238.72,60,48,42
239.0,239.16,55,48,42
239.2,239.36,55,48,42
239.4,239.56,55,48,42
239.8,239.96,56,48,42
240.0,240.16,56,48,42
240.2,240.36,56,48,42
240.6,240.72,61,48,42
240.8,240.92,61,48,42
241.0,241.12,61,48,42
241.4,241.52,60,48,42
241.6,241.72,60,48,42
241.8,241.92,60,48,42
242.0,242.12,59,48,42
242.2,242.32,59,48,42
242.4,242.52,58,48,42
242.6,242.72,58,48,42
242.8,243.44,57,48,42
243.6,244.24,56,64,42
244.4,244.52,55,64,42
244.6,244.72,55,64,42
244.8,244.92,55,64,42
245.0,245.12,55,64,42
245.2,245.32,55,64,42
245.4,245.52,55,64,42
245.6,245.72,55,64,42
245.8,245.92,55,64,42
246.0,247.12,56,75,42
247.6,248.4,49,95,42
248.4,249.2,44,89,42
249.2,249.6,41,89,42
249.8,249.96,41,64,42
250.0,250.2,44,64,42
250.2,250.4,48,64,42
250.4,250.6,51,64,42
250.6,250.8,48,64,42
250.8,251.6,49,64,42
251.6,252.4,44,64,42
252.4,252.72,41,64,42
253.0,253.16,41,64,42
253.2,253.4,44,64,42
253.4,253.6,48,64,42
253.6,253.8,51,64,42
253.8,254.0,48,64,42
254.0,254.8,49,64,42
254.8,255.6,44,64,42
255.6,256.4,41,64,42
256.4,257.2,42,64,42
257.2,258.0,43,64,42
258.0,258.8,44,64,42
258.8,259.6,45,64,42
259.6,260.4,44,64,42
260.4,260.52,43,64,42
260.6,260.72,43,64,42
260.8,260.92,43,64,42
261.0,261.12,43,64,42
261.2,261.32,43,64,42
261.4,261.52,43,64,42
261.6,261.72,43,64,42
261.8,261.92,43,64,42
262.0,262.32,36,96,42
262.8,263.12,48,96,42
263.6,263.92,36,96,42
264.4,264.72,48,96,42
265.2,265.52,36,96,42
268.0,268.06,48,115,42
268.2,268.26,48,115,42
268.4,268.6,48,115,42
268.6,268.76,41,115,42
268.8,268.86,47,115,42
269.0,269.06,47,115,42
269.2,269.4,47,115,42
269.4,269.56,40,115,42
269.6,269.66,57,96,42
269.8,269.86,57,96,42
270.0,270.2,57,96,42
270.2,270.36,50,96,42
270.4,270.46,55,96,42
270.6,270.66,55,96,42
270.8,271.0,55,96,42
271.0,271.16,48,96,42
271.2,271.26,57,96,42
271.4,271.46,57,96,42
271.6,271.72,55,96,42
271.8,271.92,55,96,42
272.0,272.12,55,96,42
272.2,272.32,55,96,42
272.4,272.52,55,96,42
272.6,272.72,55,96,42
272.8,272.92,55,96,42
273.0,273.12,55,96,42
273.2,273.6,48,96,42
274.0,274.64,65,64,42
274.8,275.2,64,77,42
275.2,275.36,57,64,42
275.6,276.0,53,77,42
276.0,276.16,55,64,42
276.4,276.8,57,77,42
276.8,276.96,57,64,42
277.2,277.84,41,70,42
278.0,278.4,40,70,42
278.4,278.58835,42,64,42
278.8,279.6,43,64,42
279.6,279.76,48,64,42
281.6,281.66,45,92,42
281.8,281.86,45,92,42
282.0,282.2,45,92,42
282.2,282.36,38,92,42
282.4,282.6,43,92,42
282.6,282.66,43,92,42
282.8,283.0,43,92,42
283.0,283.16,36,92,42
283.2,283.36,42,64,42
283.6,283.76,43,64,42
284.0,284.16,43,64,42
284.4,284.56,36,64,42
285.2,285.26,55,64,42
285.4,285.46,53,64,42
285.6,285.66,52,64,42
285.8,285.86,50,64,42
286.0,286.4,48,64,42
286.8,286.86,67,64,42
287.0,287.06,65,64,42
287.2,287.26,64,64,42
287.4,287.46,62,64,42
287.6,288.0,60,64,42
289.2,290.0,61,64,42
290.0,290.32,60,64,42
290.8,291.2,59,64,42
291.2,291.6,60,64,42
291.6,292.0,57,64,42
292.0,292.4,59,64,42
292.4,292.8,56,64,42
292.8,293.2,57,64,42
293.2,293.6,53,64,42
293.6,294.0,54,64,42
294.0,294.32,55,64,42
294.8,295.12,57,64,42
295.6,295.92,55,64,42
296.4,296.72,42,64,42
297.2,297.52,43,64,42
298.8,298.92,48,64,42
299.0,299.12,48,64,42
299.2,299.32,48,64,42
299.6,299.72,43,64,42
299.8,299.92,43,64,42
300.0,300.12,43,64,42
300.4,300.56,48,75,42
300.6,300.76,52,77,42
300.8,300.96,53,80,42
301.0,301.16,53,82,42
301.2,301.36,55,85,42
301.4,301.56,55,87,42
301.6,301.76,57,90,42
301.8,301.96,45,92,42
302.0,302.32,47,95,42
303.6,303.72,60,70,42
303.8,303.92,60,70,42
304.0,304.12,60,70,42
304.2,304.32,60,70,42
304.4,304.52,53,70,42
304.6,304.72,53,70,42
304.8,304.92,53,70,42
305.0,305.12,53,70,42
305.2,305.32,55,70,42
305.4,305.52,55,70,42
305.6,305.72,55,70,42
305.8,305.92,55,70,42
306.0,306.32,48,70,42
306.8,307.6,53,64,42
307.6,308.0,52,64,42
308.4,309.2,41,81,42
309.2,309.6,40,90,42
310.0,310.8,53,98,42
310.8,310.96,52,106,42
311.2,311.36,59,64,42
311.6,311.9,60,64,42
311.9,312.0,59,64,42
312.0,312.3,60,64,42
312.3,312.4,59,64,42
312.4,312.5,60,64,42
312.5,312.6,59,64,42
312.6,312.7,60,64,42
312.7,312.8,59,64,42
312.8,312.9,60,75,42
312.9,313.0,59,78,42
313.0,313.1,60,80,42
313.1,313.2,59,83,42
313.2,313.3,60,85,42
313.3,313.4,59,88,42
313.4,313.5,60,91,42
313.5,313.6,59,93,42
313.6,313.7,60,96,42
313.7,313.8,59,98,42
313.8,313.9,60,101,42
313.9,314.0,59,103,42
314.0,314.16,60,117,42
314.2,314.36,48,88,42
314.4,314.56,50,88,42
314.6,314.76,50,88,42
314.8,314.96,52,88,42
315.0,315.16,52,88,42
315.2,315.36,53,88,42
315.4,315.56,53,88,42
315.6,315.76,55,88,42
315.8,315.96,55,88,42
316.0,316.16,43,88,42
316.2,316.36,43,88,42
316.4,316.6,48,70,42
316.6,316.8,52,70,42
316.8,317.0,50,70,42
317.0,317.2,48,70,42
317.2,317.4,47,70,42
317.4,317.6,43,70,42
317.6,317.8,45,70,42
317.8,318.0,47,70,42
318.0,318.2,48,83,42
318.2,318.4,52,85,42
318.4,318.6,50,87,42
318.6,318.8,48,89,42
318.8,319.0,47,91,42
319.0,319.2,43,94,42
319.2,319.4,45,96,42
319.4,319.6,47,99,42
319.6,319.8,48,101,42
319.8,320.0,52,103,42
320.0,320.2,50,106,42
320.2,320.4,48,108,42
320.4,320.6,47,110,42
320.6,320.8,43,112,42
320.8,321.0,45,114,42
321.0,321.2,47,117,42
321.2,321.36,48,86,42
321.6,321.76,59,64,42
322.0,322.3,60,64,42
322.3,322.4,59,64,42
322.4,322.7,60,64,42
322.7,322.8,59,64,42
322.8,322.9,60,64,42
322.9,323.0,59,64,42
323.0,323.1,60,64,42
323.1,323.2,59,64,42
323.2,323.3,60,70,42
323.3,323.4,59,73,42
323.4,323.5,60,76,42
323.5,323.6,59,79,42
323.6,323.7,60,81,42
323.7,323.8,59,84,42
323.8,323.9,60,87,42
323.9,324.0,59,90,42
324.0,324.1,60,93,42
324.1,324.2,59,96,42
324.2,324.3,60,99,42
324.3,324.4,59,101,42
324.4,324.52,60,104,42
324.6,324.72,48,106,42
324.8,324.92,50,106,42
325.0,325.12,50,106,42
325.2,325.32,52,106,42
325.4,325.52,52,106,42
325.6,325.72,53,106,42
325.8,325.92,53,106,42
326.0,326.12,55,106,42
326.2,326.32,55,106,42
326.4,326.52,43,106,42
326.6,326.72,43,106,42
326.8,326.92,48,105,42
328.0,328.06,48,102,42
328.2,328.26,48,102,42
328.4,328.6,48,102,42
328.6,328.76,41,102,42
328.8,328.96,53,64,42
329.2,329.36,55,64,42
329.6,329.76,43,64,42
330.0,330.16,48,64,42
331.2,331.26,48,102,42
331.4,331.46,48,102,42
331.6,331.8,48,102,42
331.8,331.96,41,102,42
332.0,332.16,53,64,42
332.4,332.56,55,64,42
332.8,332.96,43,64,42
333.2,333.36,48,64,42
333.6,333.66,45,112,42
333.8,333.86,45,112,42
334.0,334.2,45,112,42
334.2,334.36,38,112,42
334.4,334.46,43,112,42
334.6,334.66,43,112,42
334.8,335.0,43,112,42
335.0,335.16,36,112,42
335.2,335.36,43,80,42
335.6,335.76,48,104,42
336.02728,336.20908,43,104,42
336.4818,336.69052,36,104,42
