start_time,end_time,note_value,velocity,instrument_program_number
1.615383,1.823075,67,92,40
1.846152,2.30769,74,92,40
2.30769,2.769228,79,92,40
2.769228,3.0923047,79,92,40
3.230766,3.461535,78,83,40
3.461535,3.6692271,76,41,40
3.692304,3.923073,74,43,40
3.923073,4.153842,75,43,40
4.153842,4.384611,76,40,40
4.384611,4.61538,71,40,40
4.61538,5.076918,74,40,40
5.076918,5.2942257,72,28,40
5.538456,5.596148,74,65,40
5.596148,5.6538405,72,65,40
5.6538405,5.7115326,74,65,40
5.7115326,5.769225,72,65,40
5.769225,5.826917,74,65,40
5.826917,5.8846097,72,65,40
5.8846097,5.9423018,71,65,40
5.9423018,5.999994,72,65,40
5.999994,6.1153784,74,92,40
6.1153784,6.230763,72,92,40
6.230763,6.3461475,71,92,40
6.3461475,6.461532,69,92,40
6.461532,6.92307,67,92,40
6.92307,7.153839,66,65,40
7.153839,7.384608,64,41,40
7.384608,7.615377,62,43,40
7.615377,7.846146,74,43,40
7.846146,8.076915,73,40,40
8.076915,8.307684,72,40,40
8.307684,8.769222,70,43,40
8.769222,8.986529,71,28,40
10.153836,10.615374,57,53,40
10.153836,10.615374,62,53,40
10.615374,10.832682,59,31,40
12.923064,13.338449,81,73,40
13.384602,13.499987,86,73,40
13.499987,13.615371,84,73,40
13.615371,13.730756,83,73,40
13.730756,13.84614,81,73,40
13.84614,14.307678,87,89,40
14.307678,14.769216,88,73,40
14.769216,15.461523,79,67,40
15.461523,15.576907,83,86,40
15.576907,15.692292,81,91,40
15.692292,16.124985,79,84,40
16.615368,16.730753,68,61,40
16.730753,16.846136,69,61,40
16.846136,16.961521,72,61,40
16.961521,17.076906,71,61,40
17.076906,17.192291,74,61,40
17.192291,17.307674,72,61,40
17.307674,17.42306,71,61,40
17.42306,17.538445,69,61,40
17.538445,17.699982,75,58,40
17.769213,17.930752,76,66,40
17.999983,18.16152,78,73,40
18.230751,18.39229,79,82,40
18.46152,19.13075,67,56,40
19.153828,19.257673,71,59,40
19.26921,19.373058,69,65,40
19.384596,19.817287,67,54,40
21.923056,22.130747,67,92,40
22.153824,22.615362,74,92,40
22.615362,23.030746,79,92,40
23.0769,23.538439,79,92,40
23.538439,23.769207,78,92,40
23.769207,23.976898,76,65,40
23.999975,24.230745,74,77,40
24.230745,24.461514,75,61,40
24.461514,24.692284,76,61,40
24.692284,24.899975,71,61,40
24.923052,25.338436,74,61,40
25.38459,25.601898,73,43,40
26.076897,26.13459,74,61,40
26.13459,26.192282,72,61,40
26.192282,26.249973,71,61,40
26.249973,26.307667,72,61,40
26.307667,26.538435,74,61,40
26.538435,26.746126,69,61,40
26.769203,27.184587,70,61,40
27.230742,27.438435,71,43,40
27.92305,28.153818,79,100,40
28.153818,28.384586,78,100,40
28.384586,28.615356,76,100,40
28.615356,29.03074,74,100,40
29.076895,29.307663,73,71,40
29.307663,29.538431,71,100,40
29.538431,29.746124,69,100,40
29.769201,29.99997,81,61,40
29.99997,30.23074,80,61,40
30.23074,30.43843,79,61,40
30.461508,30.6692,78,61,40
30.692278,30.923046,86,61,40
30.923046,31.153814,85,61,40
31.153814,31.361507,84,61,40
31.384584,35.28458,83,61,40
35.307655,35.538425,83,61,40
35.538425,35.769196,82,61,40
35.769196,35.999966,81,61,40
35.999966,36.230732,80,61,40
36.230732,36.461502,79,61,40
36.461502,36.692272,78,61,40
36.692272,36.92304,76,61,40
36.92304,37.130733,75,77,40
37.15381,37.38458,76,77,40
37.38458,37.61535,78,77,40
37.61535,37.846115,79,77,40
37.846115,38.2615,74,77,40
38.307655,38.723038,73,77,40
38.99996,39.103806,79,77,40
39.115345,39.219193,78,77,40
39.23073,39.334576,81,77,40
39.346115,39.44996,79,77,40
39.4615,39.565346,77,77,40
39.576885,39.68073,76,77,40
39.69227,40.10765,74,77,40
40.153805,40.56919,73,77,40
40.84611,40.94996,79,92,40
40.9615,41.065342,78,92,40
41.07688,41.19227,81,61,40
41.19227,41.30765,79,61,40
41.30765,41.423035,77,61,40
41.423035,41.53842,76,61,40
41.53842,41.653805,74,61,40
41.653805,41.769188,73,61,40
41.769188,41.884575,79,77,40
41.884575,41.999958,78,77,40
41.999958,42.11534,81,61,40
42.11534,42.23073,79,61,40
42.23073,42.34611,77,61,40
42.34611,42.461494,76,61,40
42.461494,42.57688,74,61,40
42.57688,42.692265,73,61,40
42.692265,42.807648,79,77,40
42.807648,42.923035,78,77,40
42.923035,43.038418,81,61,40
43.038418,43.153805,79,61,40
43.153805,43.269188,77,61,40
43.269188,43.38457,76,61,40
43.38457,44.723034,74,77,40
44.769184,44.81534,73,54,40
44.88457,44.930725,74,54,40
44.999954,45.04611,76,54,40
45.11534,45.16149,78,54,40
45.230724,45.69226,79,38,40
56.999943,57.230713,69,92,40
57.230713,57.646095,78,92,40
57.69225,58.107635,78,92,40
58.15379,58.199944,78,74,40
58.269173,58.315327,77,74,40
58.384556,58.43071,78,74,40
58.499943,58.546097,77,74,40
58.615326,58.707634,78,92,40
58.846096,59.053787,78,92,40
59.076862,59.69994,81,92,40
59.769173,59.976864,78,46,40
59.99994,60.623016,81,92,40
60.692245,60.89994,78,46,40
60.923016,61.3384,76,92,40
61.384556,61.79994,76,92,40
61.846092,61.892246,76,74,40
61.961475,62.00763,75,74,40
62.076862,62.123016,76,74,40
62.192245,62.2384,75,74,40
62.30763,62.399937,76,92,40
62.5384,62.74609,76,92,40
62.76917,63.392242,79,92,40
63.461475,63.669167,76,46,40
63.692245,64.31532,79,92,40
64.38455,64.59224,76,46,40
64.61532,65.07686,74,61,40
65.07686,65.5384,75,61,40
65.5384,65.99993,76,61,40
65.99993,66.46147,77,61,40
66.46147,66.876854,78,61,40
66.92301,67.026855,81,61,40
67.03839,67.14224,79,61,40
67.15378,67.25762,78,61,40
67.269165,67.37301,76,61,40
67.384544,67.4307,74,61,40
67.49993,67.54609,76,61,40
67.61532,67.66147,78,61,40
67.730705,67.776855,79,61,40
67.846085,67.89224,81,61,40
67.96147,68.00762,83,61,40
68.07686,68.12301,85,61,40
68.19224,68.238396,86,61,40
68.307625,68.769165,62,61,40
68.769165,69.2307,72,92,40
69.2307,69.69224,71,77,40
69.69224,70.15378,83,92,40
70.15378,70.56916,69,77,40
70.61531,71.07685,85,92,40
71.07685,71.29416,86,54,40
71.53839,71.65378,86,54,40
71.65378,71.75762,85,54,40
71.76916,71.815315,83,54,40
71.884544,71.930695,81,54,40
71.99993,72.11531,80,54,40
72.11531,72.2307,81,54,40
72.2307,72.346085,80,54,40
72.346085,72.461464,81,54,40
72.461464,72.57685,80,54,40
72.57685,72.69224,81,54,40
72.69224,72.80762,83,54,40
72.80762,72.91147,79,54,40
72.923004,73.03839,77,54,40
73.03839,73.15377,78,54,40
73.15377,73.26916,77,54,40
73.26916,73.384544,78,54,40
73.384544,73.49992,77,54,40
73.49992,73.61531,78,54,40
73.61531,73.7307,81,54,40
73.7307,73.83454,78,54,40
73.84608,73.961464,75,54,40
73.961464,74.07685,76,54,40
74.07685,74.19223,75,54,40
74.19223,74.30762,76,54,40
74.30762,74.423004,75,54,40
74.423004,74.53838,76,54,40
74.53838,74.65377,79,54,40
74.65377,74.757614,76,54,40
74.76916,74.88454,74,38,40
74.88454,74.99992,73,38,40
74.99992,75.11531,71,38,40
75.11531,75.2307,69,38,40
75.2307,75.34608,86,54,40
75.34608,75.461464,85,54,40
75.461464,75.507614,83,54,40
75.57685,75.623,81,54,40
75.69223,75.80762,80,54,40
75.80762,75.923004,81,54,40
75.923004,76.03838,80,54,40
76.03838,76.15377,81,54,40
76.15377,76.26916,80,54,40
76.26916,76.38454,81,54,40
76.38454,76.49992,83,54,40
76.49992,76.60377,79,54,40
76.61531,76.73069,77,54,40
76.73069,76.84608,78,54,40
76.84608,76.961464,77,54,40
76.961464,77.07684,78,54,40
77.07684,77.19223,77,54,40
77.19223,77.30762,78,54,40
77.30762,77.423,81,54,40
77.423,77.52685,78,54,40
77.53838,77.65377,75,54,40
77.65377,77.76915,76,54,40
77.76915,77.88454,79,54,40
77.88454,77.99992,76,54,40
77.99992,78.1153,76,54,40
78.1153,78.23069,74,54,40
78.23069,78.34608,74,54,40
78.34608,78.44992,73,54,40
78.46146,79.38454,74,38,40
79.38454,80.30761,78,58,40
80.30761,81.13838,79,65,40
81.23069,81.54223,78,54,40
81.57684,81.69222,81,54,40
81.69222,81.80761,81,54,40
81.80761,81.923,79,54,40
81.923,82.038376,78,54,40
82.038376,82.14223,76,54,40
82.15376,82.984535,74,54,40
83.07684,83.999916,78,58,40
83.999916,84.92299,79,65,40
84.92299,85.84607,81,72,40
85.84607,86.676834,83,79,40
86.76914,86.88453,73,110,40
86.88453,86.999916,74,110,40
86.999916,87.115295,76,92,40
87.115295,87.23068,78,92,40
87.23068,87.34607,79,92,40
87.34607,87.46145,81,92,40
87.46145,87.576836,83,92,40
87.576836,87.68068,85,92,40
87.69222,87.90953,86,92,40
88.153755,88.37106,83,54,40
88.615295,88.8326,81,54,40
89.076836,89.29414,79,54,40
89.53837,89.653755,79,72,40
89.653755,89.763374,78,43,40
89.99991,90.115295,78,72,40
90.115295,90.22491,76,43,40
90.46145,90.576836,76,72,40
90.576836,90.68645,74,43,40
90.92299,91.03837,74,72,40
91.03837,91.14799,73,43,40
91.38452,91.60183,74,54,40
91.84606,92.722984,80,77,40
92.769135,92.87875,83,92,40
92.88452,93.43837,81,77,40
93.46145,93.56529,79,54,40
93.57683,93.68068,78,54,40
93.692215,93.79606,78,54,40
93.8076,93.911446,76,54,40
93.92298,94.02683,74,54,40
94.03837,94.14221,73,54,40
94.153755,94.37106,74,54,40
94.61529,95.44606,80,77,40
95.53837,95.64798,83,92,40
95.65375,96.207596,81,77,40
96.230675,96.33452,79,54,40
96.346054,96.449905,78,54,40
96.46144,96.565285,78,54,40
96.57683,96.68067,76,54,40
96.69221,96.79606,74,54,40
96.807594,96.91144,73,54,40
96.92298,97.14029,74,38,40
97.38452,97.488365,76,77,40
97.4999,97.60375,79,77,40
97.61529,97.71913,78,77,40
97.730675,97.83452,76,77,40
97.846054,98.06336,74,54,40
98.307594,98.3999,85,77,40
98.53836,98.63067,85,77,40
98.769135,98.98644,86,67,40
99.69221,100.03836,64,61,40
100.03836,100.15375,64,61,40
100.15375,100.4999,64,61,40
100.4999,100.61529,64,61,40
100.61529,100.96144,66,61,40
100.96144,101.07682,66,61,40
101.07682,101.42297,67,61,40
101.42297,101.53836,67,61,40
101.53836,101.75567,66,61,40
101.9999,102.05182,66,35,40
102.05759,102.11528,64,35,40
102.11528,102.17297,66,35,40
102.17297,102.23067,64,35,40
102.23067,102.28836,66,35,40
102.28836,102.346054,64,35,40
102.346054,102.40375,62,35,40
102.40375,102.46143,64,35,40
102.46143,102.87682,62,49,40
103.15374,103.361435,62,92,40
103.384514,103.84605,69,92,40
103.84605,104.26144,74,92,40
104.30759,105.33451,74,92,40
105.34605,105.46143,73,74,40
105.46143,105.57682,76,74,40
105.57682,105.6922,74,74,40
105.6922,105.80759,78,74,40
105.80759,105.92297,76,74,40
105.92297,106.03835,79,74,40
106.03835,106.15374,78,74,40
106.15374,106.38451,81,92,40
106.38451,106.61528,79,92,40
106.61528,106.84605,78,92,40
106.84605,107.07681,76,92,40
107.07681,107.30759,74,92,40
107.30759,107.53835,73,92,40
107.53835,107.76912,71,92,40
107.76912,107.99989,69,92,40
107.99989,108.20758,68,92,40
108.23066,108.46143,69,92,40
108.46143,108.6922,70,92,40
108.6922,108.80759,71,65,40
108.80759,108.922966,67,65,40
108.922966,110.053734,67,92,40
110.07681,110.30758,66,54,40
110.30758,110.53835,72,54,40
110.53835,110.76912,71,54,40
110.76912,111.63451,71,38,40
112.61527,113.07681,71,65,40
113.07681,113.492195,70,65,40
113.538345,115.29219,70,65,40
115.3845,116.740265,69,43,40
118.153725,118.58642,59,43,40
118.153725,118.58642,68,43,40
119.99988,120.43257,67,43,40
119.99988,120.43257,57,43,40
120.92296,121.29218,57,54,40
120.92296,121.29218,66,54,40
122.30757,122.630646,62,43,40
122.76911,123.230644,62,43,40
123.230644,123.692184,59,43,40
123.692184,124.55757,59,31,40
126.46141,127.29218,55,65,40
126.46141,127.5691,65,65,40
127.61526,127.707565,64,56,40
127.84602,127.93833,62,56,40
128.0768,128.1691,60,56,40
128.30757,128.39987,59,56,40
132.92294,133.13063,58,103,40
133.15372,133.56909,58,74,40
133.61525,134.05371,58,74,40
134.07678,134.49217,58,35,40
134.53833,134.97679,58,35,40
134.99986,135.41525,58,35,40
135.46141,135.89986,58,35,40
135.92294,136.33832,58,35,40
136.38448,136.59218,58,35,40
136.61525,136.83255,57,103,40
137.07678,137.9537,88,107,40
137.99986,138.10371,86,49,40
138.11525,138.21909,85,49,40
138.23064,138.33447,83,49,40
138.34601,138.44986,81,49,40
138.4614,138.56525,79,49,40
138.57678,138.68063,81,49,40
138.69217,138.79602,82,49,40
138.80756,138.91139,81,49,40
138.92294,139.02678,79,49,40
139.03833,139.14217,77,49,40
139.1537,139.25755,76,49,40
139.26909,139.37294,74,49,40
139.38448,139.48833,73,49,40
139.49986,139.60371,74,49,40
139.61525,139.71909,76,49,40
139.73064,139.83447,74,49,40
139.84601,139.94986,73,49,40
139.9614,140.06525,70,49,40
140.07678,140.18063,69,49,40
140.19217,140.29602,67,49,40
140.30756,140.51524,66,103,40
140.53831,140.9537,66,74,40
140.53831,140.9537,57,74,40
140.99986,141.43832,66,74,40
140.99986,141.43832,57,74,40
141.4614,141.87679,66,35,40
141.4614,141.87679,57,35,40
141.92293,142.36139,57,35,40
141.92293,142.36139,66,35,40
142.38448,142.79985,66,35,40
142.38448,142.79985,57,35,40
142.84601,143.28447,57,35,40
142.84601,143.28447,66,35,40
143.30756,143.72293,57,35,40
143.30756,143.72293,66,35,40
143.76909,143.97678,66,35,40
143.76909,143.97678,57,35,40
143.99986,144.21716,66,103,40
143.99986,144.21716,57,103,40
144.4614,145.19986,78,127,40
145.38448,145.47678,76,61,40
145.49985,145.59216,75,61,40
145.61523,145.70755,73,61,40
145.73062,145.82294,71,61,40
145.84601,145.94986,69,49,40
145.9614,146.06523,71,49,40
146.07678,146.18062,72,49,40
146.19215,146.296,71,49,40
146.30754,146.41139,69,49,40
146.42293,146.52678,67,49,40
146.53831,146.64217,66,49,40
146.6537,146.75755,64,49,40
146.76909,146.87292,63,49,40
146.88448,146.98831,64,49,40
146.99985,147.1037,66,49,40
147.11523,147.21909,64,49,40
147.23062,147.33447,63,49,40
147.34601,147.44986,60,49,40
147.4614,147.56523,59,49,40
147.57678,147.68062,57,49,40
147.69215,147.89986,55,65,40
147.92293,148.33832,71,65,40
148.38446,148.59216,71,31,40
148.84601,149.26138,76,65,40
149.30754,149.51523,76,31,40
149.76907,150.18446,75,65,40
150.23062,150.43831,75,31,40
150.69215,151.10754,81,65,40
151.1537,151.36139,81,31,40
151.38446,151.84601,80,70,40
151.84601,152.30754,79,71,40
152.30754,152.53831,79,73,40
152.53831,152.76907,77,74,40
152.76907,153.11523,76,74,40
153.11523,153.23062,75,78,40
153.23062,153.69215,76,78,40
153.69215,154.15369,72,79,40
154.15369,154.61523,71,82,40
154.61523,155.07677,81,84,40
155.07677,155.5383,80,86,40
155.5383,155.99985,79,88,40
155.99985,156.20753,79,91,40
156.2306,156.43831,77,92,40
156.46138,156.77292,76,94,40
156.80754,156.91138,75,95,40
156.92291,157.38446,76,95,40
157.38446,157.846,72,98,40
157.846,158.30754,71,100,40
158.30754,158.76907,63,102,40
158.76907,158.98637,64,38,40
161.07677,161.19215,78,54,40
161.19215,161.30753,81,54,40
161.30753,161.42291,79,54,40
161.42291,161.5383,78,54,40
161.5383,161.7556,76,38,40
162.46138,162.80753,66,54,40
162.80753,162.92291,66,54,40
162.92291,163.26907,66,54,40
163.26907,163.38445,66,54,40
163.38445,163.7306,67,54,40
163.7306,163.846,67,54,40
163.846,164.19214,69,54,40
164.19214,164.30753,69,54,40
164.30753,164.52484,67,54,40
164.76907,164.82098,67,43,40
164.82675,164.87868,66,43,40
164.88445,164.93637,67,43,40
164.94214,164.99406,66,43,40
164.99983,165.05176,67,43,40
165.05753,165.10945,66,43,40
165.11522,165.16714,64,43,40
165.17291,165.22484,66,43,40
165.2306,165.6633,64,22,40
166.15369,167.28445,65,100,40
167.30753,167.42291,67,61,40
167.42291,167.5383,69,61,40
167.5383,167.65367,67,61,40
167.65367,167.76906,65,61,40
167.76906,167.88445,64,61,40
167.88445,167.9883,62,61,40
167.99983,168.2306,62,96,40
168.2306,168.4383,60,43,40
168.46136,169.1306,72,92,40
169.15367,169.26906,74,61,40
169.26906,169.38445,76,61,40
169.38445,169.49983,74,61,40
169.49983,169.61522,72,61,40
169.61522,169.7306,71,61,40
169.7306,169.84598,69,61,40
169.84598,170.07675,69,96,40
170.07675,170.28444,67,54,40
170.30753,170.97675,79,92,40
170.99983,171.11522,81,61,40
171.11522,171.23059,83,61,40
171.23059,171.34598,81,61,40
171.34598,171.46136,79,61,40
171.46136,171.57675,78,61,40
171.57675,171.69214,76,61,40
171.69214,172.15367,74,59,40
172.15367,172.61522,75,73,40
172.61522,173.07675,76,73,40
173.07675,173.53828,78,73,40
173.53828,173.76906,81,73,40
173.76906,173.99983,79,73,40
173.99983,174.34598,78,73,40
174.34598,174.46136,76,73,40
174.46136,174.9229,74,73,40
174.9229,175.38445,73,73,40
175.38445,175.84598,74,73,40
175.84598,176.30751,75,73,40
176.30751,176.76906,76,73,40
176.76906,177.23059,78,73,40
177.23059,177.46136,79,73,40
177.46136,177.57675,81,73,40
177.57675,177.69212,83,73,40
177.69212,177.80751,81,73,40
177.80751,177.9229,79,73,40
177.9229,178.03828,78,73,40
178.03828,178.15367,76,73,40
178.15367,178.6152,74,73,40
178.6152,179.07674,73,73,40
179.07674,179.29405,74,52,40
179.53828,179.65367,64,61,40
179.65367,179.76906,67,61,40
179.76906,179.88443,66,61,40
179.88443,179.99982,64,61,40
179.99982,180.21713,62,43,40
180.46136,180.55367,73,61,40
180.69212,180.78444,73,61,40
180.9229,181.0152,74,43,40
181.38443,181.47675,85,61,40
181.6152,181.7075,85,61,40
181.84598,181.93828,86,43,40
182.76904,183.1152,64,54,40
183.1152,183.23059,64,54,40
183.23059,183.57674,64,54,40
183.57674,183.69212,64,54,40
183.69212,184.03828,66,54,40
184.03828,184.15366,66,54,40
184.15366,184.49982,67,54,40
184.49982,184.6152,67,54,40
184.6152,184.8325,66,38,40
185.07674,185.13443,66,35,40
185.13443,185.19212,64,35,40
185.19212,185.24982,66,35,40
185.24982,185.30751,64,35,40
185.30751,185.3652,66,35,40
185.3652,185.4229,64,35,40
185.4229,185.48059,62,35,40
185.48059,185.53827,64,35,40
185.53827,185.97096,62,31,40
186.46135,186.67867,69,77,40
186.9229,186.98058,69,49,40
186.98058,187.03827,67,49,40
187.03827,187.09596,69,49,40
187.09596,187.15366,67,49,40
187.15366,187.21135,69,49,40
187.21135,187.26904,67,49,40
187.26904,187.32674,66,49,40
187.32674,187.38443,67,49,40
187.38443,187.84596,66,43,40
188.30751,188.52481,72,77,40
188.76904,188.82674,72,49,40
188.82674,188.88443,71,49,40
188.88443,188.94212,72,49,40
188.94212,188.99982,71,49,40
188.99982,189.05751,72,49,40
189.05751,189.11519,71,49,40
189.11519,189.17288,69,49,40
189.17288,189.23058,71,49,40
189.23058,189.69212,69,43,40
190.15366,190.37096,76,77,40
190.61519,190.67288,76,49,40
190.67288,190.73058,74,49,40
190.73058,190.78827,76,49,40
190.78827,190.84596,74,49,40
190.84596,190.90366,76,49,40
190.90366,190.96135,74,49,40
190.96135,191.01904,72,49,40
191.01904,191.07674,74,49,40
191.07674,191.53827,72,43,40
191.53827,191.95366,81,92,40
191.9998,193.15366,79,92,40
193.15366,193.38441,78,92,40
193.38441,193.61519,84,92,40
193.61519,193.84596,81,92,40
193.84596,194.9998,79,92,40
194.9998,195.23058,78,92,40
195.23058,195.46135,84,92,40
195.46135,195.69211,81,92,40
195.69211,195.92288,79,86,40
195.92288,196.39174,78,84,40
196.39174,196.86984,76,79,40
196.86984,197.35574,74,73,40
197.35574,197.85164,72,68,40
197.85164,198.36026,71,64,40
198.36026,198.87976,69,58,40
198.87976,199.14062,67,53,40
199.40848,199.64955,66,77,40
199.67633,200.13788,74,92,40
200.13788,200.59941,79,92,40
200.59941,200.92249,79,74,40
201.06094,201.29172,78,82,40
201.29172,201.4994,76,42,40
201.52249,201.75327,74,38,40
201.75327,201.98402,75,38,40
201.98402,202.2148,76,38,40
202.2148,202.42249,71,38,40
202.44557,202.9071,74,38,40
202.9071,203.1244,72,28,40
203.36864,203.42633,74,92,40
203.42633,203.48402,72,92,40
203.48402,203.54172,74,92,40
203.54172,203.59941,72,92,40
203.59941,203.6571,74,92,40
203.6571,203.7148,72,92,40
203.7148,203.77249,71,92,40
203.77249,203.83018,72,92,40
203.83018,203.94556,74,92,40
203.94556,204.06094,72,92,40
204.06094,204.17633,71,92,40
204.17633,204.29172,69,92,40
204.29172,204.7071,67,92,40
204.75325,204.98402,66,74,40
204.98402,205.2148,64,44,40
205.2148,205.42249,62,31,40
205.44556,205.67633,74,40,40
205.67633,205.9071,73,40,40
205.9071,206.11479,72,40,40
206.13786,206.55325,70,40,40
206.59941,206.81671,71,28,40
207.98402,208.44556,57,38,40
207.98402,208.44556,62,38,40
208.44556,208.66287,59,26,40
210.75325,211.16864,81,54,40
211.21478,211.33017,86,54,40
211.33017,211.44556,84,54,40
211.44556,211.56094,83,54,40
211.56094,211.67633,81,54,40
211.67633,212.13786,87,54,40
212.13786,212.55325,88,54,40
212.5994,213.26863,79,59,40
213.2917,213.40709,83,49,40
213.40709,213.52248,81,50,40
213.52248,213.95517,79,59,40
214.44556,215.11478,76,77,40
215.13786,215.25325,79,54,40
215.25325,215.36862,77,54,40
215.36862,215.58594,76,54,40
216.2917,216.4167,68,61,40
216.4167,216.5417,69,61,40
216.5417,216.6667,72,61,40
216.6667,216.7917,71,61,40
216.7917,216.9167,74,61,40
216.9167,217.0417,72,61,40
217.0417,217.1667,71,61,40
217.1667,217.2917,69,61,40
217.2917,217.4667,75,65,40
217.5417,217.7167,76,65,40
217.7917,217.9667,78,65,40
218.0417,218.2167,79,65,40
218.2917,218.96094,67,54,40
218.98401,219.0994,71,79,40
219.0994,219.21478,69,77,40
219.21478,219.64748,67,54,40
221.75323,221.96094,67,100,40
221.98401,222.44554,74,100,40
222.44554,222.86093,79,100,40
222.90709,223.32246,79,100,40
223.36862,223.5994,78,85,40
223.5994,223.80708,76,67,40
223.83015,224.06093,74,54,40
224.06093,224.2917,75,54,40
224.2917,224.52246,76,54,40
224.52246,224.73016,71,54,40
224.75323,225.16862,74,54,40
225.21477,225.43208,73,38,40
225.90709,225.96477,74,54,40
225.96477,226.02246,72,54,40
226.02246,226.08015,71,54,40
226.08015,226.13785,72,54,40
226.13785,226.34555,74,54,40
226.36862,226.57631,69,54,40
226.5994,227.01477,72,54,40
227.06093,227.27823,71,54,40
227.75323,227.96092,81,77,40
227.98401,228.1917,83,77,40
228.21477,228.42247,84,77,40
228.44554,228.86093,79,77,40
228.90707,229.11478,78,77,40
229.13785,229.57631,76,77,40
229.59938,229.83015,74,54,40
229.83015,230.06093,73,54,40
230.06093,230.29169,72,54,40
230.29169,230.52246,71,54,40
230.52246,230.75323,79,54,40
230.75323,230.984,78,54,40
230.984,231.21477,77,54,40
231.21477,233.4763,76,54,40
233.52246,235.11476,88,54,40
235.13785,235.3686,88,54,40
235.3686,235.59938,87,54,40
235.59938,235.83015,86,54,40
235.83015,236.06091,85,54,40
236.06091,236.29169,84,54,40
236.29169,236.52246,83,54,40
236.52246,236.73015,81,54,40
236.75322,236.96092,80,77,40
236.984,237.21477,81,77,40
237.21477,237.44553,83,77,40
237.44553,237.6763,84,77,40
237.6763,238.09169,79,77,40
238.13783,238.35515,78,38,40
238.83014,238.94553,84,77,40
238.94553,239.06091,83,77,40
239.06091,239.1763,86,77,40
239.1763,239.29169,84,77,40
239.29169,239.40707,82,77,40
239.40707,239.52245,81,77,40
239.52245,239.93784,79,77,40
239.984,240.2013,78,54,40
240.6763,240.79169,84,77,40
240.79169,240.90707,83,77,40
240.90707,241.02245,86,77,40
241.02245,241.13783,84,77,40
241.13783,241.25322,82,77,40
241.25322,241.3686,81,77,40
241.3686,241.484,79,77,40
241.484,241.59938,78,77,40
241.59938,241.71475,84,77,40
241.71475,241.83014,83,77,40
241.83014,241.94553,86,77,40
241.94553,242.06091,84,77,40
242.06091,242.1763,82,77,40
242.1763,242.29169,81,77,40
242.29169,242.40706,79,77,40
242.40706,242.52245,78,77,40
242.52245,242.63783,84,77,40
242.63783,242.75322,83,77,40
242.75322,242.8686,86,77,40
242.8686,242.984,84,77,40
242.984,243.09937,82,77,40
243.09937,243.20322,81,77,40
243.21475,244.59937,79,77,40
244.59937,244.64552,78,67,40
244.71475,244.76091,79,65,40
244.83014,244.8763,81,61,40
244.94553,244.99168,83,59,40
245.06091,245.4936,84,56,40
256.83014,257.0378,74,92,40
257.06088,257.4763,83,92,40
257.52243,257.9378,83,92,40
257.98398,258.03012,83,74,40
258.09937,258.1455,82,74,40
258.21475,258.2609,83,74,40
258.33014,258.37628,82,74,40
258.44553,258.5378,83,92,40
258.67627,258.88397,83,92,40
258.90704,259.53012,86,92,40
259.59937,259.80704,83,65,40
259.83014,260.45322,86,92,40
260.52243,260.73013,83,65,40
260.7532,261.16858,81,92,40
261.21475,261.63013,81,92,40
261.67627,261.72244,81,74,40
261.79166,261.83783,80,74,40
261.90704,261.9532,81,74,40
262.02243,262.06857,80,74,40
262.13782,262.23013,81,92,40
262.3686,262.57626,81,92,40
262.59937,263.22244,84,74,40
263.29166,263.49936,81,52,40
263.52243,264.1455,84,74,40
264.21472,264.42242,81,52,40
264.4455,264.90704,79,61,40
264.90704,265.3686,80,61,40
265.3686,265.8301,81,61,40
265.8301,266.29166,82,61,40
266.29166,266.70703,83,61,40
266.7532,266.85706,86,61,40
266.8686,266.9724,84,61,40
266.98398,267.0878,83,61,40
267.09933,267.2032,81,61,40
267.21472,267.31857,79,61,40
267.3301,267.43396,78,61,40
267.4455,267.54935,76,61,40
267.56088,267.66473,74,61,40
267.67627,267.78012,72,61,40
267.79166,267.8955,71,61,40
267.90704,268.0109,69,61,40
268.02243,268.12628,67,61,40
268.13782,268.5532,55,77,40
268.59933,269.06088,65,83,40
269.06088,269.47626,64,77,40
269.52243,269.98395,76,83,40
269.98395,270.21472,62,77,40
270.4455,270.90704,78,83,40
270.90704,271.12436,79,54,40
271.36856,271.48395,79,58,40
271.48395,271.5878,78,58,40
271.59933,271.6455,76,58,40
271.71472,271.7609,74,58,40
271.8301,271.9455,73,58,40
271.9455,272.06088,74,58,40
272.06088,272.17627,73,58,40
272.17627,272.29166,74,58,40
272.29166,272.40704,73,58,40
272.40704,272.52243,74,58,40
272.52243,272.63782,76,58,40
272.63782,272.74164,72,58,40
272.75317,272.86856,70,58,40
272.86856,272.98395,71,58,40
272.98395,273.09933,70,58,40
273.09933,273.21472,71,58,40
273.21472,273.3301,70,58,40
273.3301,273.4455,71,58,40
273.4455,273.56088,74,58,40
273.56088,273.66473,71,58,40
273.67627,273.79166,68,58,40
273.79166,273.90704,69,58,40
273.90704,274.02243,68,58,40
274.02243,274.13782,69,58,40
274.13782,274.25317,68,58,40
274.25317,274.36856,69,58,40
274.36856,274.48395,72,58,40
274.48395,274.5878,69,58,40
274.59933,274.71472,67,41,40
274.71472,274.8301,66,41,40
274.8301,274.9455,64,41,40
274.9455,275.04935,62,41,40
275.06088,275.17627,79,67,40
275.17627,275.28012,78,67,40
275.29166,275.3378,76,67,40
275.40704,275.4532,74,67,40
275.52243,275.6378,73,58,40
275.6378,275.75317,74,58,40
275.75317,275.86856,73,58,40
275.86856,275.98395,74,58,40
275.98395,276.09933,73,58,40
276.09933,276.21472,74,58,40
276.21472,276.3301,76,58,40
276.3301,276.43396,72,58,40
276.4455,276.56088,70,58,40
276.56088,276.67627,71,58,40
276.67627,276.79166,70,58,40
276.79166,276.90704,71,58,40
276.90704,277.02243,70,58,40
277.02243,277.1378,71,58,40
277.1378,277.25317,74,58,40
277.25317,277.35703,71,58,40
277.36856,277.48395,71,58,40
277.48395,277.59933,69,58,40
277.59933,277.71472,68,58,40
277.71472,277.8301,69,58,40
277.8301,277.9455,72,58,40
277.9455,278.06088,71,58,40
278.06088,278.17627,70,58,40
278.17627,278.28012,71,58,40
278.29166,278.40704,74,58,40
278.40704,278.5224,72,58,40
278.5224,278.6378,71,58,40
278.6378,278.75317,72,58,40
278.75317,278.86856,71,58,40
278.86856,278.98395,72,58,40
278.98395,279.09933,76,58,40
279.09933,279.2032,72,58,40
279.21472,279.3301,72,58,40
279.3301,279.4455,71,58,40
279.4455,279.56088,70,58,40
279.56088,279.67627,71,58,40
279.67627,279.79166,74,58,40
279.79166,279.907,72,58,40
279.907,280.0224,71,58,40
280.0224,280.12625,72,58,40
280.1378,280.25317,76,58,40
280.25317,280.36856,74,58,40
280.36856,280.48395,73,58,40
280.48395,280.59933,74,58,40
280.59933,280.71472,73,58,40
280.71472,280.8301,74,58,40
280.8301,280.9455,77,58,40
280.9455,281.04935,74,58,40
281.06088,281.17627,74,58,40
281.17627,281.29166,72,58,40
281.29166,281.407,71,58,40
281.407,281.5224,72,58,40
281.5224,281.6378,76,58,40
281.6378,281.75317,74,58,40
281.75317,281.86856,73,58,40
281.86856,281.9724,74,58,40
281.98395,282.09933,77,58,40
282.09933,282.21472,76,58,40
282.21472,282.3301,75,58,40
282.3301,282.4455,76,58,40
282.4455,282.56088,75,58,40
282.56088,282.67627,76,58,40
282.67627,282.79163,79,58,40
282.79163,282.89548,76,58,40
282.907,283.0224,79,58,40
283.0224,283.1378,78,58,40
283.1378,283.25317,77,58,40
283.25317,283.36856,78,58,40
283.36856,283.48395,77,58,40
283.48395,283.59933,78,58,40
283.59933,283.71472,81,58,40
283.71472,283.81857,78,58,40
283.8301,284.75317,79,58,40
284.75317,285.67624,83,56,40
285.67624,286.59933,84,77,40
286.59933,286.91086,83,77,40
286.9455,287.04932,86,77,40
287.06085,287.17624,86,77,40
287.17624,287.29163,84,77,40
287.29163,287.407,83,77,40
287.407,287.5224,81,77,40
287.5224,288.35318,79,54,40
288.4455,289.27625,71,48,40
289.36856,290.1993,72,68,40
290.29163,291.1224,74,64,40
291.21472,292.04547,76,91,40
292.1378,292.25317,77,92,40
292.25317,292.36856,76,77,40
292.36856,292.48395,74,77,40
292.48395,292.59933,72,77,40
292.59933,292.71472,71,77,40
292.71472,292.83008,69,77,40
292.83008,292.94547,67,77,40
292.94547,293.06085,65,77,40
293.06085,293.47626,64,77,40
293.98395,294.09933,66,92,40
294.09933,294.2147,67,92,40
294.2147,294.33008,69,77,40
294.33008,294.44547,71,77,40
294.44547,294.56085,72,77,40
294.56085,294.67624,74,77,40
294.67624,294.79163,76,77,40
294.79163,294.907,78,77,40
294.907,295.36856,79,77,40
295.83008,295.94547,73,92,40
295.94547,296.06085,74,92,40
296.06085,296.17624,76,77,40
296.17624,296.29163,78,77,40
296.29163,296.407,79,77,40
296.407,296.5224,81,77,40
296.5224,296.6378,83,77,40
296.6378,296.75317,85,77,40
296.75317,296.97046,86,77,40
297.2147,297.432,84,45,40
297.67624,297.89355,83,56,40
298.1378,298.35507,81,67,40
298.5993,298.81662,79,78,40
299.06085,299.27817,78,89,40
299.5224,299.6378,81,96,40
299.6378,299.7474,79,94,40
299.98392,300.0993,78,89,40
300.0993,300.20892,76,87,40
300.44547,300.56085,73,82,40
300.56085,300.67047,74,80,40
300.907,301.0224,74,74,40
301.0224,301.13202,72,73,40
301.36853,301.48392,72,67,40
301.48392,301.59354,71,65,40
301.83008,301.94547,71,60,40
301.94547,302.05508,69,58,40
302.29163,302.50894,67,53,40
302.75317,303.6301,72,102,40
303.67624,303.78586,76,77,40
303.79163,304.34546,74,77,40
304.36853,304.47238,72,54,40
304.48392,304.58777,71,54,40
304.5993,304.70316,71,54,40
304.7147,304.81854,69,54,40
304.83008,304.93393,67,54,40
304.94547,305.04932,66,54,40
305.06085,305.27817,67,38,40
305.5224,306.35315,85,77,40
306.44547,306.55508,88,77,40
306.56085,307.1147,86,77,40
307.13776,307.2416,84,54,40
307.25314,307.357,83,54,40
307.36853,307.47238,83,54,40
307.48392,307.58777,81,54,40
307.5993,307.70316,79,54,40
307.7147,307.81854,78,54,40
307.83008,308.0474,79,38,40
308.29163,308.407,69,45,40
308.407,308.52237,72,45,40
308.52237,308.63776,71,45,40
308.63776,308.75314,69,45,40
308.75314,308.97046,67,31,40
309.2147,309.307,78,85,40
309.44547,309.53778,78,85,40
309.67624,309.76852,79,60,40
310.13776,310.25314,69,47,40
310.25314,310.36853,72,47,40
310.36853,310.48392,71,47,40
310.48392,310.5993,69,47,40
310.5993,310.81662,67,34,40
311.06085,311.15314,84,85,40
311.29163,311.3839,84,85,40
311.52237,311.6147,83,60,40
312.44547,312.7916,69,54,40
312.7916,312.90698,69,54,40
312.90698,313.26413,69,54,40
313.26413,313.38318,69,54,40
313.38318,313.75204,71,54,40
313.75204,313.875,71,54,40
313.875,314.25635,72,54,40
314.25635,314.38345,72,54,40
314.38345,314.62912,71,54,40
314.9052,314.9734,71,54,40
314.9734,315.04156,69,54,40
315.04156,315.10974,71,54,40
315.10974,315.17792,69,54,40
315.17792,315.24612,71,54,40
315.24612,315.3143,69,54,40
315.3143,315.38248,67,54,40
315.38248,315.45065,69,54,40
315.45065,316.0167,67,38,40
318.32437,318.9013,67,38,40
1.846152,2.30769,71,65,40
2.30769,2.7230742,67,65,40
2.769228,3.461535,72,65,40
3.461535,3.6692271,71,29,40
3.692304,4.153842,69,31,40
4.153842,5.076918,71,28,40
5.076918,5.307687,69,20,40
5.538456,6.461532,64,65,40
6.461532,7.153839,62,65,40
7.153839,7.384608,61,29,40
7.384608,8.538453,62,31,40
8.538453,8.769222,66,28,40
8.769222,8.986529,67,20,40
11.076912,11.492296,69,61,40
11.53845,11.653834,74,61,40
11.653834,11.769219,72,61,40
11.769219,11.8846035,71,61,40
11.8846035,11.999988,69,61,40
11.999988,12.461526,78,96,40
12.461526,12.678833,79,56,40
13.84614,15.230754,67,35,40
15.230754,15.692292,66,54,40
15.692292,16.124985,67,56,40
17.538445,18.46152,67,43,40
18.46152,18.876904,62,56,40
18.923058,19.384596,60,65,40
19.384596,19.817287,59,38,40
20.076902,20.284595,55,92,40
20.307673,20.76921,62,92,40
20.76921,21.184595,67,92,40
21.230747,21.692286,67,92,40
21.692286,21.923056,66,92,40
21.923056,22.130747,64,92,40
22.153824,22.384592,62,92,40
22.384592,22.615362,63,92,40
22.615362,22.84613,64,92,40
22.84613,23.053823,59,92,40
23.0769,23.538439,62,92,40
23.538439,23.769207,60,92,40
23.769207,23.976898,59,65,40
23.999975,24.432669,57,77,40
25.153822,25.211514,69,61,40
25.211514,25.269205,68,61,40
25.269205,25.326899,66,61,40
25.326899,25.38459,67,61,40
25.38459,25.615358,69,61,40
25.615358,25.823051,64,61,40
25.846128,26.261513,67,61,40
26.307667,26.723051,66,43,40
26.999973,27.057665,67,61,40
27.057665,27.115358,66,61,40
27.115358,27.17305,64,61,40
27.17305,27.230742,66,61,40
27.230742,27.461512,67,61,40
27.461512,27.669203,63,61,40
27.69228,27.92305,66,77,40
27.92305,28.384586,64,71,40
28.384586,28.59228,71,71,40
28.615356,29.307663,69,71,40
29.307663,29.515354,68,71,40
29.538431,29.971125,69,71,40
30.461508,30.8942,69,43,40
31.615353,31.846123,59,61,40
31.846123,32.076893,60,61,40
32.076893,32.30766,61,61,40
32.30766,32.53843,62,61,40
32.53843,32.7692,63,61,40
32.7692,32.999966,64,61,40
32.999966,33.230736,65,61,40
33.230736,33.438427,66,61,40
33.461506,33.692272,71,61,40
33.692272,33.923042,69,61,40
33.923042,34.153812,67,61,40
34.153812,34.361504,66,61,40
34.384583,34.61535,72,61,40
34.61535,34.84612,71,61,40
34.84612,35.07689,69,61,40
35.07689,35.50958,67,61,40
36.230732,36.461502,71,61,40
36.461502,36.692272,69,61,40
36.692272,36.92304,67,61,40
36.92304,37.130733,66,77,40
37.15381,37.38458,67,77,40
37.38458,37.61535,69,77,40
37.61535,37.846115,71,77,40
37.846115,38.2615,66,77,40
38.307655,38.515347,64,77,40
38.53842,38.746117,55,77,40
38.76919,39.59996,67,54,40
40.384575,40.592266,55,65,40
40.615345,41.746113,67,65,40
41.769188,42.184574,64,54,40
42.23073,42.43842,65,54,40
42.461494,42.66919,67,54,40
42.692265,43.10765,64,54,40
43.153805,43.361496,65,54,40
43.38457,44.81534,67,54,40
44.88457,44.930725,66,54,40
44.999954,45.04611,64,54,40
45.11534,45.16149,62,54,40
45.230724,45.69226,61,38,40
45.92303,46.130722,57,54,40
46.1538,46.569183,66,54,40
46.615337,47.030724,66,54,40
47.076878,47.12303,66,43,40
47.19226,47.238415,65,43,40
47.307644,47.353798,66,43,40
47.42303,47.469185,65,43,40
47.538414,47.630722,66,43,40
47.769184,47.976875,66,54,40
47.99995,48.623028,69,54,40
48.69226,48.923027,66,38,40
48.923027,49.546104,69,54,40
49.615334,49.846104,66,38,40
49.846104,50.26149,64,54,40
50.307644,50.723026,64,54,40
50.76918,50.815334,64,43,40
50.884563,50.930717,63,43,40
50.99995,51.046104,64,43,40
51.115334,51.161488,63,43,40
51.230717,51.323025,64,43,40
51.461487,51.692257,64,54,40
51.692257,52.31533,67,54,40
52.384563,52.615334,64,26,40
52.615334,53.30764,67,54,40
53.30764,53.538406,64,26,40
53.538406,53.953793,62,54,40
53.999947,54.41533,63,54,40
54.461483,54.87687,64,54,40
54.923023,55.338406,65,54,40
55.38456,55.799946,66,54,40
55.8461,55.961483,67,54,40
55.961483,56.076866,69,54,40
56.076866,56.192253,71,54,40
56.192253,56.307636,67,54,40
56.307636,56.769173,66,54,40
56.769173,56.98648,64,38,40
57.230713,57.646095,69,65,40
57.69225,58.107635,69,65,40
58.15379,59.284557,69,65,40
59.307632,59.538403,69,65,40
59.538403,60.207634,74,65,40
60.23071,60.46148,69,65,40
60.46148,60.87686,74,65,40
60.923016,61.3384,69,65,40
61.384556,61.79994,69,65,40
61.846092,62.97686,69,65,40
62.999935,63.230705,57,65,40
63.230705,63.899937,69,65,40
63.92301,64.153786,57,65,40
64.153786,65.07686,69,65,40
65.07686,65.5384,72,43,40
65.5384,65.99993,71,43,40
65.99993,66.46147,74,43,40
66.46147,66.876854,74,43,40
66.92301,67.026855,78,43,40
67.03839,67.14224,76,43,40
67.15378,67.25762,74,43,40
67.269165,67.37301,73,43,40
67.384544,67.81724,74,43,40
68.307625,68.769165,62,43,40
68.769165,69.2307,63,65,40
69.2307,69.69224,64,54,40
69.69224,70.15378,65,65,40
70.15378,70.56916,66,54,40
70.61531,70.71916,69,65,40
70.7307,70.83454,67,65,40
70.846085,70.94993,66,65,40
70.961464,71.065315,64,65,40
71.07685,71.29416,62,38,40
71.99993,72.09224,69,38,40
72.2307,72.323006,69,38,40
72.461464,72.55377,69,38,40
72.923004,73.01531,69,38,40
73.15377,73.24608,69,38,40
73.384544,73.47685,69,38,40
74.07685,74.29416,71,38,40
74.53838,74.74608,71,38,40
74.76916,75.18454,64,26,40
75.2307,75.34608,74,38,40
75.34608,75.44993,73,38,40
75.461464,75.507614,71,38,40
75.57685,75.623,69,38,40
75.69223,75.80762,68,38,40
75.80762,75.923004,69,38,40
75.923004,76.03838,68,38,40
76.03838,76.15377,69,38,40
76.15377,76.26916,68,38,40
76.26916,76.38454,69,38,40
76.38454,76.49992,71,38,40
76.49992,76.60377,67,38,40
76.61531,76.719154,65,38,40
76.73069,76.84608,66,38,40
76.84608,76.961464,65,38,40
76.961464,77.07684,66,38,40
77.07684,77.19223,65,38,40
77.19223,77.30762,66,38,40
77.30762,77.423,69,38,40
77.423,77.52685,66,38,40
77.53838,77.65377,63,38,40
77.65377,77.76915,64,38,40
77.76915,77.88454,67,38,40
77.88454,77.99992,64,38,40
77.99992,78.1153,64,38,40
78.1153,78.23069,62,38,40
78.23069,78.34608,62,38,40
78.34608,78.44992,61,38,40
78.46146,79.38454,62,26,40
79.38454,81.23069,74,58,40
81.23069,81.54223,74,38,40
81.57684,81.69222,78,38,40
81.69222,81.80761,78,38,40
81.80761,81.923,76,38,40
81.923,82.038376,74,38,40
82.038376,82.14223,73,38,40
82.15376,82.984535,74,38,40
83.07684,83.999916,69,58,40
83.999916,84.92299,71,65,40
84.92299,85.84607,78,72,40
85.84607,86.676834,79,79,40
86.76914,86.88453,67,110,40
86.88453,86.999916,69,110,40
86.999916,87.115295,71,92,40
87.115295,87.23068,73,92,40
87.23068,87.34607,74,92,40
87.34607,87.46145,76,92,40
87.46145,87.576836,78,92,40
87.576836,87.68068,79,92,40
87.69222,87.90953,78,92,40
88.153755,88.37106,79,38,40
88.615295,88.8326,78,38,40
89.076836,89.29414,76,38,40
89.53837,89.75568,74,38,40
89.99991,90.21722,71,38,40
90.46145,90.67876,69,38,40
90.92299,91.1403,67,38,40
91.38452,91.60183,66,38,40
91.84606,92.722984,65,77,40
92.769135,93.43837,66,77,40
93.46145,93.55375,66,38,40
93.692215,93.78452,67,38,40
93.92298,94.01529,67,38,40
94.153755,94.37106,66,38,40
94.61529,95.44606,65,54,40
95.53837,96.207596,66,54,40
96.230675,96.32298,66,38,40
96.46144,96.55375,67,38,40
96.69221,96.784515,67,38,40
96.92298,97.14029,66,26,40
97.38452,97.47682,67,54,40
97.61529,97.707596,67,54,40
97.846054,98.06336,66,38,40
98.307594,98.41144,76,54,40
98.42298,98.526825,79,54,40
98.53836,98.64221,78,54,40
98.65375,98.75759,76,54,40
98.769135,98.98644,74,38,40
99.69221,100.03836,62,43,40
100.03836,100.15375,62,43,40
100.15375,100.4999,62,43,40
100.4999,100.61529,62,43,40
100.61529,100.96144,62,43,40
100.96144,101.07682,62,43,40
101.07682,101.42297,62,43,40
101.42297,101.53836,62,43,40
101.53836,101.75567,62,43,40
101.9999,102.05182,62,24,40
102.05759,102.11528,61,24,40
102.11528,102.17297,62,24,40
102.17297,102.23067,61,24,40
102.23067,102.28836,62,24,40
102.28836,102.346054,61,24,40
102.346054,102.40375,59,24,40
102.40375,102.455666,61,24,40
102.46143,102.89413,62,35,40
103.384514,103.56913,62,65,40
103.84605,104.03066,69,65,40
104.30759,106.52874,67,65,40
109.38451,109.70758,60,38,40
109.84605,110.30758,60,38,40
110.30758,110.76912,66,38,40
110.76912,111.63451,66,26,40
112.38451,112.59219,64,92,40
112.61527,113.07681,71,92,40
113.07681,113.492195,76,92,40
113.538345,114.87681,76,92,40
114.92296,115.038345,75,61,40
115.038345,115.15373,76,61,40
115.15373,115.26912,78,61,40
115.26912,115.3845,76,61,40
115.3845,115.61527,75,61,40
115.61527,115.84604,84,61,40
115.84604,116.076805,83,61,40
116.076805,116.30758,81,61,40
116.30758,116.538345,79,61,40
116.538345,116.76911,78,61,40
116.76911,116.999886,76,61,40
116.999886,117.23065,75,61,40
117.23065,117.46142,72,61,40
117.46142,117.69219,71,61,40
117.69219,117.92296,72,61,40
117.92296,118.153725,69,61,40
118.3845,118.615265,68,61,40
118.615265,118.84603,71,61,40
118.84603,119.076805,74,61,40
119.076805,119.30757,77,61,40
119.30757,119.538345,76,61,40
119.538345,119.76911,83,61,40
119.76911,119.97681,74,61,40
120.23065,120.43834,73,61,40
120.46142,120.66911,76,61,40
120.692184,120.89988,67,61,40
121.153725,121.38449,66,61,40
121.38449,121.615265,69,61,40
121.615265,121.84603,60,61,40
121.84603,122.9768,60,61,40
122.99988,123.230644,59,61,40
123.230644,123.46142,67,61,40
123.46142,123.692184,65,61,40
123.692184,124.55757,65,43,40
126.46141,127.59218,55,65,40
126.46141,127.59218,62,65,40
127.61526,127.707565,60,46,40
127.84602,127.93833,59,46,40
128.0768,128.1691,57,46,40
128.30757,128.39987,55,46,40
133.38448,134.2614,79,107,40
134.30756,134.4114,77,49,40
134.42294,134.5268,76,49,40
134.53833,134.64217,74,49,40
134.65372,134.75755,72,49,40
134.76909,134.87294,70,49,40
134.88448,134.98833,72,49,40
134.99986,135.10371,74,49,40
135.11525,135.2191,72,49,40
135.23064,135.33447,70,49,40
135.34602,135.44986,69,49,40
135.46141,135.56525,67,49,40
135.57678,135.68063,65,49,40
135.69217,135.79602,64,49,40
135.80756,135.9114,65,49,40
135.92294,136.0268,67,49,40
136.03833,136.14217,65,49,40
136.15372,136.25755,64,49,40
136.26909,136.37294,62,49,40
136.38448,136.48833,60,49,40
136.49986,136.60371,58,49,40
136.61525,136.82294,57,103,40
136.84602,137.2614,57,74,40
137.30756,137.74602,57,74,40
137.76909,138.18448,57,43,40
138.23064,138.6691,57,35,40
138.69217,139.10756,57,35,40
139.1537,139.59216,57,35,40
139.61525,140.03062,57,35,40
140.07678,140.28447,57,35,40
140.30756,140.52486,57,127,40
140.76909,141.64601,81,107,40
141.69217,141.796,79,49,40
141.80756,141.91139,78,49,40
141.92293,142.02678,76,49,40
142.03831,142.14217,74,49,40
142.1537,142.25755,72,49,40
142.26909,142.37294,74,49,40
142.38448,142.48831,76,49,40
142.49986,142.6037,74,49,40
142.61523,142.71909,72,49,40
142.73062,142.83447,71,49,40
142.84601,142.94986,69,49,40
142.9614,143.06525,67,49,40
143.07678,143.18063,66,49,40
143.19217,143.296,67,49,40
143.30756,143.41139,69,49,40
143.42293,143.52678,67,49,40
143.53831,143.64217,66,49,40
143.6537,143.75755,64,49,40
143.76909,143.87294,62,49,40
143.88448,143.98831,60,49,40
143.99986,144.20755,59,103,40
144.23062,144.64601,59,74,40
144.69217,145.13063,59,74,40
145.1537,145.56909,59,35,40
145.61523,146.0537,59,35,40
146.07678,146.49216,59,35,40
146.53831,146.97678,59,35,40
146.99985,147.41524,59,35,40
147.4614,147.89986,59,35,40
147.92293,148.03831,67,92,40
148.03831,148.1537,69,92,40
148.1537,148.38446,67,61,40
148.38446,148.47678,67,43,40
148.84601,148.9614,70,92,40
148.9614,149.07677,71,92,40
149.07677,149.30754,70,61,40
149.30754,149.39986,70,43,40
149.76907,149.88446,71,92,40
149.88446,149.99985,72,92,40
149.99985,150.23062,71,61,40
150.23062,150.32292,71,43,40
150.69215,150.80754,71,92,40
150.80754,150.92293,72,92,40
150.92293,151.1537,71,61,40
151.1537,151.246,71,43,40
151.38446,151.546,71,46,40
151.61523,151.77676,71,46,40
151.84601,152.00754,71,46,40
152.07677,152.23831,71,49,40
152.30754,152.51523,72,50,40
152.53831,152.76907,72,50,40
152.76907,152.99985,71,50,40
152.99985,153.23062,69,50,40
153.23062,153.39215,67,52,40
153.46138,153.62292,67,53,40
153.69215,153.8537,69,53,40
153.92293,154.08446,69,55,40
154.15369,154.31523,67,55,40
154.38446,154.546,67,55,40
154.61523,154.77676,66,55,40
154.846,155.00754,66,58,40
155.07677,155.23831,64,59,40
155.30754,155.46907,71,59,40
155.5383,155.69984,71,59,40
155.76907,155.93062,71,60,40
155.99985,156.20753,72,49,40
156.2306,156.46138,72,62,40
156.46138,156.69215,71,62,40
156.69215,156.92291,69,62,40
156.92291,157.08446,67,64,40
157.15369,157.31523,67,66,40
157.38446,157.54599,69,66,40
157.61523,157.77676,69,66,40
157.846,158.00754,67,67,40
158.07677,158.2383,67,67,40
158.30754,158.46907,66,70,40
158.5383,158.69984,66,70,40
158.76907,158.98637,64,30,40
159.2306,159.346,66,54,40
159.346,159.46138,69,54,40
159.46138,159.57677,67,54,40
159.57677,159.69215,66,54,40
159.69215,159.92291,64,38,40
160.15369,160.24599,75,54,40
160.38446,160.47676,75,54,40
160.61522,160.70753,76,38,40
161.07677,161.16907,69,54,40
161.30753,161.39984,69,54,40
161.5383,161.6306,67,38,40
162.46138,162.80753,64,38,40
162.80753,162.92291,64,38,40
162.92291,163.26907,64,38,40
163.26907,163.38445,64,38,40
163.38445,163.7306,64,38,40
163.7306,163.846,64,38,40
163.846,164.19214,64,38,40
164.19214,164.30753,64,38,40
164.30753,164.52484,64,38,40
164.76907,164.82675,64,31,40
164.82675,164.88445,63,31,40
164.88445,164.94214,64,31,40
164.94214,164.99983,63,31,40
164.99983,165.05753,64,31,40
165.05753,165.11522,63,31,40
165.11522,165.17291,60,31,40
165.17291,165.2306,63,31,40
165.2306,165.69214,64,18,40
166.15369,168.2306,59,71,40
168.2306,168.4479,60,38,40
168.92291,170.07675,66,43,40
170.07675,170.29407,67,38,40
170.76906,171.59982,73,43,40
171.69214,171.85367,74,17,40
171.92291,172.08444,74,17,40
172.15367,172.31522,72,22,40
172.38445,172.54597,72,22,40
172.61522,172.77675,71,22,40
172.84598,173.00752,71,22,40
173.07675,173.23828,69,22,40
173.30753,173.46906,69,22,40
173.53828,173.69983,67,22,40
173.76906,173.93059,67,22,40
173.99983,174.16136,71,22,40
174.23059,174.39214,71,22,40
174.46136,174.62291,69,22,40
174.69214,174.85367,69,22,40
174.9229,175.08444,67,22,40
175.15367,175.31522,67,22,40
175.38445,175.54597,66,22,40
175.6152,175.77675,66,22,40
175.84598,176.00752,66,22,40
176.07675,176.23828,66,22,40
176.30751,176.46906,64,22,40
176.53828,176.69983,64,22,40
176.76906,176.93059,63,22,40
176.99982,177.16136,63,22,40
177.23059,177.39214,64,22,40
177.46136,177.6229,64,22,40
177.69212,177.85367,64,22,40
177.9229,178.08444,67,22,40
178.15367,178.3152,66,22,40
178.38443,178.54597,66,22,40
178.6152,178.77675,64,22,40
178.84598,179.0075,64,22,40
179.07674,179.29405,62,22,40
179.53828,179.63058,61,61,40
179.76906,179.86136,61,61,40
179.99982,180.09213,62,43,40
180.46136,180.55367,67,61,40
180.69212,180.78444,67,61,40
180.9229,181.0152,66,43,40
181.38443,181.49982,76,61,40
181.49982,181.6152,79,61,40
181.6152,181.73059,78,61,40
181.73059,181.84598,76,61,40
181.84598,182.06328,74,43,40
182.76904,183.1152,62,38,40
183.1152,183.23059,62,38,40
183.23059,183.57674,62,38,40
183.57674,183.69212,62,38,40
183.69212,184.03828,62,38,40
184.03828,184.15366,62,38,40
184.15366,184.49982,62,38,40
184.49982,184.6152,62,38,40
184.6152,184.8325,62,38,40
185.07674,185.13443,62,35,40
185.13443,185.19212,61,35,40
185.19212,185.24982,62,35,40
185.24982,185.30751,61,35,40
185.30751,185.3652,62,35,40
185.3652,185.4229,61,35,40
185.4229,185.48059,59,35,40
185.48059,185.53827,61,35,40
185.53827,185.97096,62,31,40
186.46135,186.67867,66,77,40
186.9229,186.98058,66,49,40
186.98058,187.03827,64,49,40
187.03827,187.09596,66,49,40
187.09596,187.15366,64,49,40
187.15366,187.21135,66,49,40
187.21135,187.26904,64,49,40
187.26904,187.32674,62,49,40
187.32674,187.38443,64,49,40
187.38443,187.84596,62,43,40
188.30751,188.52481,69,77,40
188.76904,188.82674,69,49,40
188.82674,188.88443,67,49,40
188.88443,188.94212,69,49,40
188.94212,188.99982,67,49,40
188.99982,189.05751,69,49,40
189.05751,189.11519,67,49,40
189.11519,189.17288,66,49,40
189.17288,189.23058,67,49,40
189.23058,189.69212,66,43,40
190.15366,190.37096,72,77,40
190.61519,190.67288,72,49,40
190.67288,190.73058,71,49,40
190.73058,190.78827,72,49,40
190.78827,190.84596,71,49,40
190.84596,190.90366,72,49,40
190.90366,190.96135,71,49,40
190.96135,191.01904,69,49,40
191.01904,191.07674,71,49,40
191.07674,191.53827,69,43,40
191.53827,191.95366,72,92,40
191.9998,193.03827,72,92,40
193.03827,193.15366,71,54,40
193.15366,193.26904,72,54,40
193.26904,193.38441,71,54,40
193.38441,193.4998,72,54,40
193.4998,193.61519,71,54,40
193.61519,193.73058,72,54,40
193.73058,193.84596,71,54,40
193.84596,194.88441,72,77,40
194.88441,194.9998,71,54,40
194.9998,195.11519,72,54,40
195.11519,195.23058,71,54,40
195.23058,195.34596,72,54,40
195.34596,195.46135,71,54,40
195.46135,195.57672,72,54,40
195.57672,195.69211,71,54,40
195.69211,196.15366,72,70,40
196.15366,196.62984,71,65,40
196.62984,197.10983,69,61,40
197.10983,197.60164,67,56,40
197.60164,198.10164,66,53,40
198.10164,198.61888,64,48,40
198.61888,199.14062,62,44,40
199.14062,199.62277,60,41,40
199.67633,200.09172,59,65,40
200.13788,200.55325,74,65,40
200.59941,201.29172,72,65,40
201.29172,201.4994,71,38,40
201.52249,201.93787,69,38,40
201.98402,202.39941,71,38,40
202.44557,202.67633,68,38,40
202.67633,202.9071,69,38,40
202.9071,203.1244,64,20,40
203.36864,204.1994,64,65,40
204.29172,204.9148,62,65,40
204.98402,205.19171,61,31,40
205.2148,205.63017,62,22,40
205.67633,206.34557,69,28,40
206.36864,206.59941,66,28,40
206.59941,206.81671,67,20,40
208.9071,209.32248,69,54,40
209.36864,209.48402,74,54,40
209.48402,209.59941,72,54,40
209.59941,209.71478,71,54,40
209.71478,209.83017,69,54,40
209.83017,210.29172,78,54,40
210.29172,210.50902,79,38,40
211.67633,213.06094,67,38,40
213.06094,213.52248,66,53,40
213.52248,213.95517,67,47,40
214.44556,215.27632,71,54,40
215.36862,215.58594,72,38,40
217.2917,218.19171,67,38,40
218.2917,218.70709,62,54,40
218.75325,219.21478,60,71,40
219.21478,219.64748,59,38,40
219.90709,220.11478,55,100,40
220.13786,220.5994,62,100,40
220.5994,221.01479,67,100,40
221.06093,221.47632,67,100,40
221.52248,221.75323,66,100,40
221.75323,221.96094,64,100,40
221.98401,222.1917,62,100,40
222.21478,222.44554,63,100,40
222.44554,222.67632,64,100,40
222.67632,222.884,59,100,40
222.90709,223.32246,62,100,40
223.36862,223.5994,60,85,40
223.5994,223.80708,59,67,40
223.83015,224.26285,57,54,40
224.98401,225.0417,69,54,40
225.0417,225.0994,68,54,40
225.0994,225.15709,66,54,40
225.15709,225.21477,67,54,40
225.21477,225.42247,69,54,40
225.44554,225.65323,64,54,40
225.67632,226.09169,67,54,40
226.13785,226.55324,66,38,40
226.83015,226.88785,67,54,40
226.88785,226.94554,66,54,40
226.94554,227.00323,64,54,40
227.00323,227.06093,66,54,40
227.06093,227.2917,67,54,40
227.2917,227.49939,63,54,40
227.52246,227.73016,64,54,40
227.75323,227.96092,76,54,40
227.98401,228.1917,74,54,40
228.21477,228.42247,72,54,40
228.44554,228.86093,71,54,40
228.90707,229.11478,69,54,40
229.13785,229.34554,61,54,40
229.36862,229.80132,62,38,40
230.29169,230.72438,62,38,40
231.44554,231.6763,64,54,40
231.6763,231.90707,65,54,40
231.90707,232.13785,66,54,40
232.13785,232.3686,67,54,40
232.3686,232.59938,68,54,40
232.59938,232.83015,69,54,40
232.83015,233.03784,70,54,40
233.06093,233.29169,71,54,40
233.29169,233.52246,76,54,40
233.52246,233.75323,74,54,40
233.75323,233.984,72,54,40
233.984,234.21477,71,54,40
234.21477,234.44554,77,54,40
234.44554,234.6763,76,54,40
234.6763,234.884,74,54,40
234.90707,235.33977,72,38,40
236.06091,236.26862,76,54,40
236.29169,236.49937,74,54,40
236.52246,236.73015,72,54,40
236.75322,236.96092,71,56,40
236.984,237.21477,72,60,40
237.21477,237.44553,74,64,40
237.44553,237.6763,76,68,40
237.6763,238.09169,71,72,40
238.13783,238.34554,69,79,40
238.3686,238.5763,60,95,40
238.59938,239.43015,72,44,40
240.21477,240.42245,60,62,40
240.44553,241.5763,72,62,40
241.59938,242.01476,69,38,40
242.06091,242.2686,70,62,40
242.29169,242.49937,72,62,40
242.52245,242.93784,69,54,40
242.984,243.19168,70,62,40
243.21475,244.64552,72,62,40
244.71475,244.76091,71,65,40
244.83014,244.8763,69,61,40
244.94553,244.99168,67,59,40
245.06091,245.4936,66,56,40
245.75322,245.98398,62,58,40
245.98398,246.39937,71,58,40
246.44553,246.8609,71,58,40
246.90706,246.95322,71,46,40
247.02245,247.0686,70,46,40
247.13783,247.18399,71,46,40
247.25322,247.29936,70,46,40
247.3686,247.5763,71,58,40
247.59937,247.69168,71,58,40
247.83014,248.45322,74,58,40
248.52245,248.73013,71,58,40
248.75322,249.37628,74,58,40
249.44553,249.65321,71,58,40
249.67628,250.09167,69,58,40
250.13783,250.5532,69,58,40
250.59937,250.64552,69,46,40
250.71475,250.76091,68,46,40
250.83014,250.87628,69,46,40
250.94553,250.99167,68,46,40
251.0609,251.2686,69,58,40
251.29167,251.49936,69,58,40
251.52245,252.14552,72,58,40
252.21475,252.42244,69,58,40
252.44551,253.06859,72,58,40
253.13782,253.34552,69,58,40
253.36859,253.78398,67,58,40
253.83012,254.24551,68,58,40
254.29167,254.70705,69,58,40
254.7532,255.1686,70,58,40
255.21475,255.63013,71,58,40
255.67628,255.78014,72,58,40
255.79167,255.89551,74,58,40
255.90706,256.0109,76,58,40
256.02243,256.12628,72,58,40
256.13782,256.5532,71,58,40
256.59937,256.81668,69,41,40
257.06088,257.4763,74,65,40
257.52243,257.9378,74,65,40
257.98398,259.11475,74,65,40
259.13782,259.34552,74,65,40
259.3686,260.0378,79,65,40
260.06088,260.2686,74,65,40
260.29166,260.70706,79,65,40
260.7532,261.16858,74,65,40
261.21475,261.63013,74,65,40
261.67627,262.80704,74,65,40
262.8301,263.0378,62,52,40
263.06088,263.73013,74,52,40
263.7532,263.96088,62,52,40
263.98398,264.90704,74,52,40
264.90704,265.3686,77,43,40
265.3686,265.8301,76,43,40
265.8301,266.70703,79,43,40
266.7532,266.85706,83,43,40
266.8686,266.9724,81,43,40
266.98398,267.0878,79,43,40
267.09933,267.2032,78,43,40
267.21472,267.64743,79,31,40
268.13782,268.5532,67,54,40
268.59933,269.06088,68,59,40
269.06088,269.47626,69,54,40
269.52243,269.98395,70,59,40
269.98395,270.21472,71,54,40
270.4455,270.56088,74,59,40
270.56088,270.67627,72,64,40
270.67627,270.79166,71,59,40
270.79166,270.8955,69,59,40
270.90704,271.12436,67,38,40
271.8301,271.92242,69,41,40
272.06088,272.1532,69,41,40
272.29166,272.38397,69,41,40
272.75317,272.8455,67,41,40
272.98395,273.07626,67,41,40
273.21472,273.30704,67,41,40
273.90704,274.12433,64,41,40
274.36856,274.57626,64,41,40
274.59933,275.01474,57,29,40
275.06088,275.17627,67,47,40
275.17627,275.28012,66,47,40
275.29166,275.3378,64,47,40
275.40704,275.4532,62,47,40
275.52243,275.6378,61,41,40
275.6378,275.75317,62,41,40
275.75317,275.86856,61,41,40
275.86856,275.98395,62,41,40
275.98395,276.09933,61,41,40
276.09933,276.21472,62,41,40
276.21472,276.3301,64,41,40
276.3301,276.43396,60,41,40
276.4455,276.56088,58,41,40
276.56088,276.67627,59,41,40
276.67627,276.79166,58,41,40
276.79166,276.90704,59,41,40
276.90704,277.02243,58,41,40
277.02243,277.1378,59,41,40
277.1378,277.25317,62,41,40
277.25317,277.35703,59,41,40
277.36856,277.48395,59,41,40
277.48395,277.59933,57,41,40
277.59933,277.71472,56,41,40
277.71472,277.8301,57,41,40
277.8301,277.9455,60,41,40
277.9455,278.06088,59,41,40
278.06088,278.17627,58,41,40
278.17627,278.28012,59,41,40
278.29166,278.40704,62,41,40
278.40704,278.5224,60,41,40
278.5224,278.6378,59,41,40
278.6378,278.75317,60,41,40
278.75317,278.86856,59,41,40
278.86856,278.98395,60,41,40
278.98395,279.09933,64,41,40
279.09933,279.2032,60,41,40
279.21472,279.3301,60,41,40
279.3301,279.4455,59,41,40
279.4455,279.56088,58,41,40
279.56088,279.67627,59,41,40
279.67627,279.79166,62,41,40
279.79166,279.907,60,41,40
279.907,280.0224,59,41,40
280.0224,280.12625,60,41,40
280.1378,280.25317,64,41,40
280.25317,280.36856,62,41,40
280.36856,280.48395,61,41,40
280.48395,280.59933,62,41,40
280.59933,280.71472,61,41,40
280.71472,280.8301,62,41,40
280.8301,280.9455,65,41,40
280.9455,281.04935,62,41,40
281.06088,281.17627,62,41,40
281.17627,281.29166,60,41,40
281.29166,281.407,59,41,40
281.407,281.5224,60,41,40
281.5224,281.6378,64,41,40
281.6378,281.75317,62,41,40
281.75317,281.86856,61,41,40
281.86856,281.9724,62,41,40
281.98395,282.09933,65,41,40
282.09933,282.21472,64,41,40
282.21472,282.3301,63,41,40
282.3301,282.4455,64,41,40
282.4455,282.56088,63,41,40
282.56088,282.67627,64,41,40
282.67627,282.79163,67,41,40
282.79163,282.89548,64,41,40
282.907,283.0224,67,41,40
283.0224,283.1378,66,41,40
283.1378,283.25317,65,41,40
283.25317,283.36856,66,41,40
283.36856,283.48395,65,41,40
283.48395,283.59933,66,41,40
283.59933,283.71472,72,41,40
283.71472,283.81857,69,41,40
283.8301,284.75317,71,41,40
284.75317,285.67624,74,56,40
285.67624,286.59933,76,77,40
284.75317,286.59933,79,56,40
286.59933,286.91086,79,77,40
286.9455,287.04932,83,77,40
287.06085,287.17624,83,77,40
287.17624,287.29163,81,77,40
287.29163,287.407,79,77,40
287.407,287.5224,78,77,40
287.5224,288.35318,79,54,40
288.4455,289.27625,62,48,40
288.4455,290.1993,55,48,40
289.36856,290.1993,64,68,40
290.29163,291.1224,71,64,40
290.29163,292.04547,67,64,40
291.21472,292.04547,72,91,40
292.1378,292.25317,74,92,40
292.25317,292.36856,72,77,40
292.36856,292.48395,71,77,40
292.48395,292.59933,69,77,40
292.59933,292.71472,67,77,40
292.71472,292.83008,65,77,40
292.83008,292.94547,64,77,40
292.94547,293.06085,62,77,40
293.06085,293.47626,60,77,40
293.98395,294.09933,60,92,40
294.09933,294.2147,62,92,40
294.2147,294.33008,64,77,40
294.33008,294.44547,66,77,40
294.44547,294.56085,67,77,40
294.56085,294.67624,69,77,40
294.67624,294.79163,71,77,40
294.79163,294.907,72,77,40
294.907,295.36856,71,77,40
295.83008,295.94547,67,92,40
295.94547,296.06085,69,77,40
296.06085,296.17624,71,77,40
296.17624,296.29163,73,77,40
296.29163,296.407,74,77,40
296.407,296.5224,76,77,40
296.5224,296.6378,78,77,40
296.6378,296.75317,79,77,40
296.75317,296.97046,78,77,40
297.2147,297.432,81,45,40
297.67624,297.89355,79,56,40
298.1378,298.35507,76,67,40
298.5993,298.81662,74,78,40
299.06085,299.27817,72,89,40
299.5224,299.73972,71,96,40
299.98392,300.20123,72,89,40
300.44547,300.66278,71,82,40
300.907,301.12433,69,74,40
301.36853,301.58585,67,67,40
301.83008,302.0474,66,60,40
302.29163,302.50894,67,53,40
302.75317,303.6301,58,71,40
303.67624,304.34546,59,54,40
304.36853,304.57623,59,38,40
304.5993,304.807,60,38,40
304.83008,305.03778,60,38,40
305.06085,305.27817,59,26,40
305.5224,306.35315,70,54,40
306.44547,307.1147,71,54,40
307.13776,307.34546,71,38,40
307.36853,307.57623,72,38,40
307.5993,307.807,72,38,40
307.83008,308.0474,71,26,40
308.29163,308.3839,60,85,40
308.52237,308.6147,60,85,40
308.75314,308.84546,59,60,40
309.2147,309.33008,69,41,40
309.33008,309.44547,72,41,40
309.44547,309.56085,71,41,40
309.56085,309.67624,69,41,40
309.67624,309.89352,67,29,40
310.13776,310.23007,60,85,40
310.36853,310.46085,60,85,40
310.5993,310.69162,59,60,40
311.06085,311.15314,78,85,40
311.29163,311.3839,78,85,40
311.52237,311.6147,79,60,40
312.44547,312.7916,67,38,40
312.7916,312.90698,67,38,40
312.90698,313.26413,67,38,40
313.26413,313.38318,67,38,40
313.38318,313.75204,67,38,40
313.75204,313.875,67,38,40
313.875,314.25635,67,38,40
314.25635,314.38345,67,38,40
314.38345,314.62912,67,38,40
314.9052,314.9734,67,38,40
314.9734,315.04156,66,38,40
315.04156,315.10974,67,38,40
315.10974,315.17792,66,38,40
315.17792,315.24612,67,38,40
315.24612,315.3143,66,38,40
315.3143,315.38248,64,38,40
315.38248,315.45065,66,38,40
315.45065,316.0167,67,26,40
1.846152,2.30769,67,65,41
2.30769,2.7230742,62,65,41
2.769228,3.461535,60,65,41
3.461535,3.6692271,64,29,41
3.692304,4.153842,57,31,41
4.153842,4.846149,64,28,41
4.846149,5.076918,68,28,41
5.076918,5.2942257,69,20,41
5.538456,5.999994,57,65,41
5.999994,6.230763,52,65,41
6.230763,6.461532,60,65,41
6.461532,6.92307,59,65,41
6.92307,7.153839,57,46,41
7.153839,7.384608,55,29,41
7.384608,8.307684,57,31,41
8.307684,8.769222,60,28,41
8.769222,8.986529,59,20,41
9.23076,9.646144,69,61,41
9.692298,9.807682,74,61,41
9.807682,9.923067,72,61,41
9.923067,10.038451,71,61,41
10.038451,10.153836,69,61,41
10.153836,10.615374,66,74,41
10.615374,10.832682,67,43,41
11.999988,12.461526,62,53,41
11.999988,12.461526,69,53,41
12.461526,12.678833,71,31,41
13.84614,14.769216,57,35,41
14.769216,15.230754,59,46,41
15.230754,15.692292,60,54,41
15.692292,16.124985,59,56,41
17.538445,18.46152,58,43,41
18.46152,18.876904,59,56,41
18.923058,19.384596,54,65,41
19.384596,19.817287,55,38,41
20.307673,20.76921,59,65,41
20.76921,21.184595,62,65,41
21.230747,21.923056,60,65,41
21.923056,22.130747,59,65,41
22.153824,22.615362,57,65,41
22.615362,23.44613,59,65,41
23.538439,24.207668,62,65,41
24.230745,24.461514,69,43,41
24.461514,24.692284,71,43,41
24.692284,24.899975,68,43,41
24.923052,25.338436,64,43,41
25.38459,26.261513,57,43,41
26.307667,27.138433,62,43,41
27.230742,27.646126,59,43,41
27.92305,28.153818,71,71,41
28.153818,28.384586,69,71,41
28.384586,28.615356,67,71,41
28.615356,29.03074,66,71,41
29.076895,29.307663,64,71,41
29.307663,29.515354,62,71,41
29.538431,29.971125,64,71,41
30.461508,30.8942,66,43,41
32.53843,32.7692,59,61,41
32.7692,32.999966,60,61,41
32.999966,33.230736,61,61,41
33.230736,33.461506,62,61,41
33.461506,33.692272,63,61,41
33.692272,34.10766,64,61,41
34.153812,34.361504,62,61,41
34.384583,34.61535,69,61,41
34.61535,34.84612,67,61,41
34.84612,35.07689,66,61,41
35.07689,35.50958,64,61,41
37.15381,37.38458,59,54,41
37.38458,37.61535,57,54,41
37.61535,37.846115,55,54,41
37.846115,38.469193,57,54,41
38.53842,38.746117,52,54,41
38.76919,39.59996,64,38,41
40.384575,40.592266,52,65,41
40.615345,41.746113,64,65,41
41.769188,42.184574,61,54,41
42.23073,42.43842,62,54,41
42.461494,42.66919,64,54,41
42.692265,43.10765,61,54,41
43.153805,43.361496,62,54,41
43.38457,44.81534,64,54,41
44.88457,44.930725,62,54,41
44.999954,45.04611,61,54,41
45.11534,45.16149,59,54,41
45.230724,45.69226,57,38,41
46.1538,46.569183,57,38,41
46.615337,47.030724,57,38,41
47.076878,47.907646,57,38,41
48.23072,48.32303,54,38,41
48.46149,48.69226,66,38,41
48.69226,48.899952,57,38,41
49.153797,49.246105,54,38,41
49.384567,49.615334,66,38,41
49.615334,49.82303,57,38,41
49.846104,50.26149,59,38,41
50.307644,50.723026,59,38,41
50.76918,51.59995,59,38,41
51.923023,52.01533,52,38,41
52.153793,52.384563,59,38,41
52.384563,52.592255,55,38,41
52.8461,52.938408,52,38,41
53.07687,53.30764,64,38,41
53.30764,53.51533,61,38,41
53.769176,54.184563,57,38,41
54.230717,54.669174,57,38,41
54.692253,55.107635,57,38,41
55.15379,55.59225,57,38,41
55.61533,55.82302,62,38,41
55.8461,55.961483,64,38,41
55.961483,56.076866,66,38,41
56.076866,56.192253,67,38,41
56.192253,56.307636,64,38,41
56.307636,56.769173,62,38,41
56.769173,56.98648,61,26,41
57.230713,57.646095,62,65,41
57.69225,58.107635,62,65,41
58.15379,58.199944,62,52,41
58.269173,58.315327,61,52,41
58.384556,58.43071,62,52,41
58.499943,58.546097,61,52,41
58.615326,58.707634,62,65,41
58.846096,59.053787,62,65,41
59.076862,59.69994,66,65,41
59.769173,59.99994,62,31,41
59.99994,60.623016,66,46,41
60.692245,60.923016,62,31,41
60.923016,61.3384,61,65,41
61.384556,61.79994,61,65,41
61.846092,61.892246,61,52,41
61.961475,62.00763,60,52,41
62.076862,62.123016,61,52,41
62.192245,62.2384,60,52,41
62.30763,62.399937,61,65,41
62.5384,62.74609,61,65,41
62.76917,63.392242,64,65,41
63.461475,63.692245,61,31,41
63.692245,64.31532,64,65,41
64.38455,64.61532,61,31,41
64.61532,65.07686,62,43,41
65.07686,65.5384,69,43,41
65.5384,65.99993,67,43,41
65.99993,66.46147,71,43,41
66.46147,66.92301,69,43,41
66.92301,67.384544,67,43,41
67.384544,67.846085,66,43,41
68.307625,69.2307,54,43,41
69.2307,69.69224,55,54,41
69.69224,70.61531,62,65,41
70.61531,70.823006,64,65,41
70.846085,71.05377,55,65,41
71.07685,71.29416,54,38,41
71.99993,72.09224,64,38,41
72.2307,72.323006,64,38,41
72.461464,72.55377,64,38,41
72.923004,73.01531,66,38,41
73.15377,73.24608,66,38,41
73.384544,73.47685,66,38,41
74.07685,74.29416,67,38,41
74.53838,74.74608,67,38,41
74.76916,75.20185,69,26,41
75.69223,75.78454,64,38,41
75.69223,75.78454,57,38,41
75.923004,76.01531,57,38,41
75.923004,76.01531,64,38,41
76.15377,76.24608,57,38,41
76.15377,76.24608,64,38,41
76.61531,76.70762,62,47,41
76.61531,76.70762,57,47,41
76.84608,76.938385,62,47,41
76.84608,76.938385,57,47,41
77.07684,77.16915,57,47,41
77.07684,77.16915,62,47,41
77.76915,77.98646,59,38,41
77.76915,77.98646,55,38,41
78.23069,78.438385,55,38,41
78.23069,78.438385,57,38,41
78.46146,79.38454,54,26,41
78.46146,79.38454,57,26,41
79.38454,80.30761,69,58,41
79.38454,81.13838,62,58,41
80.30761,81.13838,71,65,41
81.23069,81.43838,69,38,41
81.46146,81.553764,69,38,41
81.69222,81.78453,69,38,41
81.923,82.015305,67,38,41
81.923,82.015305,57,38,41
82.15376,82.984535,66,38,41
82.15376,82.984535,57,38,41
83.07684,84.1153,62,58,41
84.1153,84.23068,64,77,41
84.23068,84.34607,66,77,41
84.34607,84.46146,67,77,41
84.46146,84.576836,69,77,41
84.576836,84.69222,71,77,41
84.69222,84.80761,72,77,41
84.80761,84.91145,74,77,41
84.92299,85.038376,72,92,41
85.038376,85.15376,71,92,41
85.15376,85.26914,69,77,41
85.26914,85.38453,67,77,41
85.38453,85.499916,66,77,41
85.499916,85.615295,64,77,41
85.615295,85.73068,62,77,41
85.73068,85.834526,60,77,41
85.84607,85.96146,59,92,41
85.96146,86.076836,60,77,41
86.076836,86.19222,62,77,41
86.19222,86.30761,64,77,41
86.30761,86.42299,66,77,41
86.42299,86.538376,67,77,41
86.538376,86.65376,69,77,41
86.65376,86.75761,71,77,41
86.76914,86.88453,64,110,41
86.88453,86.999916,66,110,41
86.999916,87.115295,67,92,41
87.115295,87.23068,69,92,41
87.23068,87.34607,71,92,41
87.34607,87.46145,73,92,41
87.46145,87.576836,74,92,41
87.576836,87.68068,76,92,41
87.69222,87.90953,74,92,41
88.153755,88.37106,74,38,41
88.615295,88.8326,74,38,41
89.076836,89.29414,73,38,41
89.53837,89.75568,74,38,41
89.99991,90.21722,67,38,41
90.46145,90.67876,66,38,41
90.92299,91.1403,64,38,41
91.38452,91.60183,62,38,41
91.84606,92.722984,62,77,41
92.769135,93.43837,62,77,41
93.46145,93.55375,62,54,41
93.692215,93.78452,64,38,41
93.92298,94.01529,64,38,41
94.153755,94.37106,62,38,41
94.61529,95.44606,62,54,41
95.53837,96.207596,62,54,41
96.230675,96.32298,62,38,41
96.46144,96.55375,64,38,41
96.69221,96.784515,64,38,41
96.92298,97.14029,62,26,41
97.38452,97.47682,57,54,41
97.61529,97.707596,57,54,41
97.846054,98.06336,62,38,41
98.307594,98.3999,67,54,41
98.53836,98.63067,67,54,41
98.769135,98.98644,66,38,41
99.69221,100.03836,59,43,41
100.03836,100.15375,59,43,41
100.15375,100.4999,59,43,41
100.4999,100.61529,59,43,41
100.61529,100.96144,57,43,41
100.96144,101.07682,57,43,41
101.07682,101.42297,55,43,41
101.42297,101.53836,55,43,41
101.53836,101.75567,57,43,41
101.9999,102.41528,55,43,41
102.46143,102.89413,54,43,41
103.384514,103.56913,54,65,41
103.84605,104.03066,57,65,41
104.30759,106.52874,64,65,41
109.38451,109.70758,57,38,41
109.84605,110.16912,57,38,41
110.30758,110.63066,57,38,41
110.76912,111.63451,57,26,41
112.61527,113.030655,67,65,41
113.07681,113.492195,67,65,41
113.538345,115.29219,67,65,41
115.3845,116.740265,66,43,41
118.153725,118.58642,62,43,41
119.99988,120.43257,61,43,41
120.92296,121.355644,60,43,41
122.30757,122.630646,53,43,41
122.76911,123.092186,53,43,41
123.230644,123.55373,50,43,41
123.692184,124.55757,50,31,41
125.30756,125.51526,48,92,41
125.53834,125.95372,55,92,41
125.99987,126.41526,60,92,41
126.46141,127.488335,60,92,41
127.49987,127.60372,59,120,41
127.61526,127.730644,62,71,41
127.730644,127.84602,60,71,41
127.84602,127.96141,64,71,41
127.96141,128.0768,62,71,41
128.0768,128.19218,65,71,41
128.19218,128.30757,64,71,41
128.30757,128.53833,67,71,41
128.53833,128.7691,65,71,41
128.7691,128.99988,64,71,41
128.99988,129.23064,62,71,41
129.23064,129.46141,60,54,41
129.46141,129.6691,59,54,41
129.69218,130.5691,74,77,41
130.61525,130.73064,72,54,41
130.73064,130.84602,71,54,41
130.84602,130.96141,69,54,41
130.96141,131.06525,67,54,41
131.0768,131.19217,65,54,41
131.19217,131.30756,67,54,41
131.30756,131.42294,69,54,41
131.42294,131.53833,67,54,41
131.53833,131.65372,65,54,41
131.65372,131.7691,64,54,41
131.7691,131.88449,62,54,41
131.88449,131.98833,60,54,41
131.99986,132.11525,59,54,41
132.11525,132.23064,60,54,41
132.23064,132.34602,62,54,41
132.34602,132.46141,60,54,41
132.46141,132.5768,59,54,41
132.5768,132.69217,57,54,41
132.69217,132.80756,55,54,41
132.80756,132.9114,53,54,41
132.92294,133.13063,55,103,41
132.92294,133.13063,52,103,41
133.15372,133.56909,55,74,41
133.15372,133.56909,52,74,41
133.61525,134.05371,52,74,41
133.61525,134.05371,55,74,41
134.07678,134.49217,52,35,41
134.07678,134.49217,55,35,41
134.53833,134.97679,52,35,41
134.53833,134.97679,55,35,41
134.99986,135.41525,55,35,41
134.99986,135.41525,52,35,41
135.46141,135.89986,52,35,41
135.46141,135.89986,55,35,41
135.92294,136.33832,52,35,41
135.92294,136.33832,55,35,41
136.38448,136.82294,55,35,41
136.38448,136.82294,52,35,41
136.84602,137.2614,55,74,41
136.84602,137.2614,52,74,41
137.30756,137.74602,55,74,41
137.30756,137.74602,52,74,41
137.76909,138.18448,55,43,41
137.76909,138.18448,52,43,41
138.23064,138.6691,55,35,41
138.23064,138.6691,52,35,41
138.69217,139.10756,55,35,41
138.69217,139.10756,52,35,41
139.1537,139.59216,55,35,41
139.1537,139.59216,52,35,41
139.61525,140.03062,55,35,41
139.61525,140.03062,52,35,41
140.07678,140.28447,55,35,41
140.07678,140.28447,52,35,41
140.30756,140.51524,54,103,41
140.53831,140.9537,50,74,41
140.53831,140.9537,60,74,41
140.99986,141.43832,60,74,41
140.99986,141.43832,50,74,41
141.4614,141.87679,60,35,41
141.4614,141.87679,50,35,41
141.92293,142.36139,60,35,41
141.92293,142.36139,50,35,41
142.38448,142.79985,60,35,41
142.38448,142.79985,50,35,41
142.84601,143.28447,60,35,41
142.84601,143.28447,50,35,41
143.30756,143.72293,60,35,41
143.30756,143.72293,50,35,41
143.76909,143.97678,60,35,41
143.76909,143.97678,50,35,41
143.99986,144.20755,59,103,41
144.23062,144.64601,57,74,41
144.23062,144.64601,54,74,41
144.69217,145.13063,57,74,41
144.69217,145.13063,54,74,41
145.1537,145.56909,54,35,41
145.1537,145.56909,57,35,41
145.61523,146.0537,54,35,41
145.61523,146.0537,57,35,41
146.07678,146.49216,57,35,41
146.07678,146.49216,54,35,41
146.53831,146.97678,57,35,41
146.53831,146.97678,54,35,41
146.99985,147.41524,57,25,41
146.99985,147.41524,54,25,41
147.4614,147.66908,57,35,41
147.4614,147.66908,54,35,41
147.69215,147.89986,55,65,41
147.69215,147.89986,52,65,41
147.92293,148.33832,64,65,41
148.38446,148.59216,64,31,41
148.84601,149.26138,67,65,41
149.30754,149.51523,64,31,41
149.76907,150.18446,66,65,41
150.23062,150.43831,66,31,41
150.69215,151.10754,66,65,41
151.1537,151.36139,66,31,41
151.38446,151.546,64,46,41
151.61523,151.77676,64,46,41
151.84601,152.00754,64,46,41
152.07677,152.23831,64,49,41
152.30754,152.51523,60,50,41
152.53831,152.76907,69,50,41
152.76907,152.99985,67,50,41
152.99985,153.23062,66,50,41
153.23062,153.39215,64,52,41
153.46138,153.62292,64,53,41
153.69215,153.8537,64,53,41
153.92293,154.08446,64,55,41
154.15369,154.31523,64,55,41
154.38446,154.546,64,55,41
154.61523,154.77676,63,55,41
154.846,155.00754,63,58,41
155.07677,155.23831,64,59,41
155.30754,155.46907,64,59,41
155.5383,155.69984,64,59,41
155.76907,155.93062,64,60,41
155.99985,156.20753,60,49,41
156.2306,156.46138,69,62,41
156.46138,156.69215,67,62,41
156.69215,156.92291,66,62,41
156.92291,157.08446,64,64,41
157.15369,157.31523,64,66,41
157.38446,157.54599,64,66,41
157.61523,157.77676,64,66,41
157.846,158.00754,64,67,41
158.07677,158.2383,64,67,41
158.30754,158.46907,57,84,41
158.5383,158.69984,57,84,41
158.76907,158.98637,55,36,41
159.2306,159.32292,57,54,41
159.46138,159.55368,57,54,41
159.69215,159.78445,55,38,41
160.15369,160.26907,66,54,41
160.26907,160.38446,69,54,41
160.38446,160.49983,67,54,41
160.49983,160.61522,66,54,41
160.61522,160.83253,64,38,41
161.07677,161.16907,63,54,41
161.30753,161.39984,63,54,41
161.5383,161.6306,64,38,41
162.46138,162.80753,60,38,41
162.80753,162.92291,60,38,41
162.92291,163.26907,61,38,41
163.26907,163.38445,61,38,41
163.38445,163.7306,59,38,41
163.7306,163.846,59,38,41
163.846,164.19214,57,38,41
164.19214,164.30753,57,38,41
164.30753,164.52484,59,38,41
164.76907,164.98637,57,38,41
165.2306,165.6633,55,18,41
166.15369,167.74599,50,71,41
167.76906,167.88445,52,43,41
167.88445,167.9883,53,43,41
167.99983,168.2306,53,67,41
168.2306,168.4479,52,31,41
168.92291,169.59213,57,43,41
169.61522,169.7306,59,43,41
169.7306,169.83444,60,43,41
169.84598,170.07675,60,67,41
170.07675,170.29407,59,31,41
170.76906,171.4383,64,43,41
171.46136,171.57675,66,43,41
171.57675,171.6806,67,43,41
171.69214,171.85367,66,17,41
171.92291,172.08444,66,17,41
172.15367,172.31522,66,22,41
172.38445,172.54597,66,22,41
172.61522,172.77675,67,22,41
172.84598,173.00752,67,22,41
173.07675,173.23828,63,22,41
173.30753,173.46906,63,22,41
173.53828,173.69983,64,22,41
173.76906,173.93059,64,22,41
173.99983,174.16136,59,22,41
174.23059,174.39214,67,22,41
174.46136,174.62291,66,22,41
174.69214,174.85367,66,22,41
174.9229,175.08444,64,22,41
175.15367,175.31522,64,22,41
175.38445,175.54597,62,22,41
175.6152,175.77675,62,22,41
175.84598,176.00752,60,22,41
176.07675,176.23828,60,22,41
176.30751,176.46906,59,22,41
176.53828,176.69983,59,22,41
176.76906,176.93059,57,22,41
176.99982,177.16136,57,22,41
177.23059,177.39214,55,22,41
177.46136,177.6229,55,22,41
177.69212,177.85367,59,22,41
177.9229,178.08444,59,22,41
178.15367,178.3152,57,22,41
178.38443,178.54597,57,22,41
178.6152,178.77675,55,22,41
178.84598,179.0075,55,22,41
179.07674,179.29405,54,22,41
179.53828,179.63058,55,61,41
179.76906,179.86136,55,61,41
179.99982,180.09213,54,43,41
180.46136,180.57674,64,61,41
180.57674,180.69212,67,61,41
180.69212,180.80751,66,61,41
180.80751,180.9229,64,61,41
180.9229,181.1402,62,43,41
181.38443,181.47675,67,61,41
181.6152,181.7075,67,61,41
181.84598,181.93828,66,43,41
182.76904,183.1152,59,38,41
183.1152,183.23059,59,38,41
183.23059,183.57674,59,38,41
183.57674,183.69212,59,38,41
183.69212,184.03828,57,38,41
184.03828,184.15366,57,38,41
184.15366,184.49982,55,38,41
184.49982,184.6152,55,38,41
184.6152,184.8325,57,26,41
185.07674,185.29405,55,31,41
185.53827,185.97096,54,22,41
187.38443,187.60173,57,77,41
187.84596,187.90366,57,49,41
187.90366,187.96135,55,49,41
187.96135,188.01904,57,49,41
188.01904,188.07674,55,49,41
188.07674,188.13443,57,49,41
188.13443,188.19212,55,49,41
188.19212,188.24982,54,49,41
188.30751,188.74019,54,43,41
189.23058,189.44789,60,77,41
189.69212,189.74982,60,49,41
189.74982,189.8075,59,49,41
189.8075,189.86519,60,49,41
189.86519,189.92288,59,49,41
189.92288,189.98058,60,49,41
189.98058,190.03827,59,49,41
190.03827,190.09596,57,49,41
190.15366,190.37096,57,43,41
191.53827,191.95366,62,92,41
191.9998,193.03827,69,92,41
193.03827,193.15366,68,54,41
193.15366,193.26904,69,54,41
193.26904,193.38441,68,54,41
193.38441,193.4998,69,54,41
193.4998,193.61519,68,54,41
193.61519,193.73058,69,54,41
193.73058,193.84596,68,54,41
193.84596,194.88441,69,77,41
194.88441,194.9998,68,54,41
194.9998,195.11519,69,54,41
195.11519,195.23058,68,54,41
195.23058,195.34596,69,54,41
195.34596,195.46135,68,54,41
195.46135,195.57672,69,54,41
195.57672,195.69211,68,54,41
195.69211,196.15366,69,70,41
196.15366,196.62984,67,65,41
196.62984,197.10983,66,61,41
197.10983,197.60164,64,56,41
197.60164,198.10164,62,53,41
198.10164,198.61888,60,48,41
198.61888,199.14062,59,44,41
199.14062,199.62277,57,41,41
199.67633,200.09172,67,65,41
200.13788,200.55325,62,65,41
200.59941,201.29172,60,65,41
201.29172,201.4994,64,38,41
201.52249,201.93787,57,38,41
201.98402,202.67633,64,38,41
202.67633,202.9071,68,38,41
202.9071,203.1244,69,20,41
203.36864,203.78403,57,65,41
203.83018,204.03787,52,65,41
204.06094,204.29172,60,65,41
204.29172,204.75325,59,65,41
204.75325,204.98402,57,65,41
204.98402,205.19171,55,31,41
205.2148,206.04556,57,22,41
206.13786,206.55325,60,28,41
206.59941,206.81671,59,20,41
207.06094,207.47633,69,54,41
207.52248,207.63786,74,54,41
207.63786,207.75325,72,54,41
207.75325,207.86864,71,54,41
207.86864,207.98402,69,54,41
207.98402,208.44556,66,54,41
208.44556,208.66287,67,38,41
209.83017,210.29172,62,38,41
209.83017,210.29172,69,38,41
210.29172,210.50902,71,26,41
211.67633,212.5994,57,38,41
212.5994,213.06094,59,47,41
213.06094,213.52248,60,53,41
213.52248,213.95517,59,47,41
214.44556,215.27632,68,54,41
215.36862,215.58594,69,38,41
217.2917,218.19171,58,38,41
218.2917,218.70709,59,54,41
218.75325,219.21478,54,71,41
219.21478,219.64748,55,38,41
220.13786,220.55324,59,71,41
220.5994,221.01479,62,71,41
221.06093,221.75323,60,71,41
221.75323,221.96094,59,71,41
221.98401,222.3994,57,71,41
222.44554,223.27632,59,71,41
223.36862,224.03786,62,60,41
224.06093,224.26862,69,38,41
224.2917,224.52246,71,38,41
224.52246,224.73016,68,38,41
224.75323,225.16862,64,38,41
225.21477,226.09169,57,38,41
226.13785,227.01477,62,38,41
227.06093,227.26862,55,38,41
227.2917,227.73016,71,38,41
227.75323,227.96092,69,54,41
227.98401,228.1917,68,54,41
228.21477,228.42247,69,54,41
228.44554,229.06862,62,54,41
229.13785,229.34554,55,54,41
229.36862,229.80132,57,38,41
230.29169,230.72438,59,38,41
232.3686,232.59938,64,54,41
232.59938,232.83015,65,54,41
232.83015,233.06093,66,54,41
233.06093,233.29169,67,54,41
233.29169,233.52246,68,54,41
233.52246,233.93784,69,54,41
233.984,234.1917,67,54,41
234.21477,234.44554,74,54,41
234.44554,234.6763,72,54,41
234.6763,234.90707,71,54,41
234.90707,235.33977,69,38,41
236.984,237.21477,64,60,41
237.21477,237.44553,62,64,41
237.44553,237.6763,60,68,41
237.6763,238.29938,62,72,41
238.3686,238.5763,57,95,41
238.59938,239.43015,69,44,41
240.21477,240.42245,57,62,41
240.44553,241.5763,69,62,41
241.59938,242.01476,66,38,41
242.06091,242.2686,67,62,41
242.29169,242.49937,69,62,41
242.52245,242.93784,66,54,41
242.984,243.19168,67,62,41
243.21475,244.64552,69,62,41
244.71475,244.76091,67,65,41
244.83014,244.8763,66,61,41
244.94553,244.99168,64,59,41
245.06091,245.4936,62,56,41
245.98398,246.39937,62,41,41
246.44553,246.8609,62,41,41
246.90706,247.73782,62,41,41
248.06091,248.15321,59,41,41
248.29167,248.49937,71,41,41
248.52245,248.73013,62,41,41
248.98398,249.0763,59,41,41
249.21475,249.42244,71,41,41
249.44553,249.65321,62,41,41
249.67628,250.09167,64,41,41
250.13783,250.5532,64,41,41
250.59937,251.43013,64,41,41
251.7532,251.84552,57,41,41
251.98398,252.19167,64,41,41
252.21475,252.42244,60,41,41
252.67628,252.7686,57,41,41
252.90706,253.11475,69,41,41
253.13782,253.34552,66,41,41
253.59937,254.01474,62,41,41
254.0609,254.26859,62,41,41
254.52243,254.93782,62,41,41
254.98398,255.42244,62,41,41
255.44551,255.65321,67,41,41
255.67628,255.78014,69,41,41
255.79167,255.89551,71,41,41
255.90706,256.0109,72,41,41
256.02243,256.12628,69,41,41
256.13782,256.5532,67,41,41
256.59937,256.81668,66,29,41
257.06088,257.4763,67,65,41
257.52243,257.9378,67,65,41
257.98398,258.03012,67,52,41
258.09937,258.1455,66,52,41
258.21475,258.2609,67,52,41
258.33014,258.37628,66,52,41
258.44553,258.5378,67,52,41
258.67627,258.88397,67,65,41
258.90704,259.53012,71,65,41
259.59937,259.80704,67,46,41
259.83014,260.45322,71,65,41
260.52243,260.73013,67,46,41
260.7532,261.16858,66,65,41
261.21475,261.63013,66,65,41
261.67627,261.72244,66,52,41
261.79166,261.83783,65,36,41
261.90704,261.9532,66,52,41
262.02243,262.06857,65,52,41
262.13782,262.23013,66,65,41
262.3686,262.57626,66,65,41
262.59937,263.22244,69,52,41
263.29166,263.49936,66,36,41
263.52243,264.1455,69,52,41
264.21472,264.42242,66,36,41
264.4455,264.90704,67,43,41
264.90704,265.3686,74,43,41
265.3686,265.8301,72,43,41
265.8301,266.29166,76,43,41
266.29166,266.7532,74,43,41
266.7532,267.21472,72,43,41
267.21472,267.64743,71,31,41
268.13782,268.96857,59,54,41
269.06088,269.47626,60,54,41
269.52243,270.21472,67,59,41
270.4455,270.67627,69,59,41
270.67627,270.90704,60,54,41
270.90704,271.12436,59,38,41
271.8301,271.92242,62,41,41
272.06088,272.1532,62,41,41
272.29166,272.38397,62,41,41
272.75317,272.8455,62,41,41
272.98395,273.07626,62,41,41
273.21472,273.30704,62,41,41
273.90704,274.12433,60,41,41
274.36856,274.57626,60,41,41
274.59933,275.03204,62,29,41
275.52243,275.61472,57,41,41
275.52243,275.61472,50,41,41
275.75317,275.8455,57,41,41
275.75317,275.8455,50,41,41
275.98395,276.07626,57,41,41
275.98395,276.07626,50,41,41
276.67627,276.76855,50,41,41
276.67627,276.76855,55,41,41
276.90704,276.99933,50,41,41
276.90704,276.99933,55,41,41
277.1378,277.2301,50,41,41
277.1378,277.2301,55,41,41
277.59933,277.78397,67,50,41
277.59933,277.78397,55,50,41
278.06088,278.24548,67,50,41
278.06088,278.24548,55,50,41
278.5224,278.61472,67,50,41
278.5224,278.61472,55,50,41
278.75317,278.8455,67,50,41
278.75317,278.8455,55,50,41
278.98395,279.07626,55,50,41
278.98395,279.07626,67,50,41
279.4455,279.6301,55,50,41
279.4455,279.6301,67,50,41
279.907,280.09164,67,50,41
279.907,280.09164,55,50,41
280.36856,280.46088,55,50,41
280.36856,280.46088,67,50,41
280.59933,280.69165,55,50,41
280.59933,280.69165,67,50,41
280.8301,280.92242,67,50,41
280.8301,280.92242,55,50,41
281.29166,281.47626,55,50,41
281.29166,281.47626,67,50,41
281.75317,281.9378,67,50,41
281.75317,281.9378,55,50,41
282.21472,282.30704,55,50,41
282.21472,282.30704,67,50,41
282.4455,282.53778,55,50,41
282.4455,282.53778,67,50,41
282.67627,282.76855,67,50,41
282.67627,282.76855,55,50,41
283.1378,283.2301,62,41,41
283.1378,283.2301,60,41,41
283.36856,283.46088,62,41,41
283.36856,283.46088,60,41,41
283.59933,283.69165,57,41,41
283.59933,283.69165,62,41,41
283.8301,283.9455,55,49,41
283.9455,284.06088,57,58,41
284.06088,284.17627,59,58,41
284.17627,284.29163,60,58,41
284.29163,284.407,62,58,41
284.407,284.5224,64,58,41
284.5224,284.6378,66,58,41
284.6378,284.75317,67,58,41
284.75317,284.86856,65,67,41
284.86856,284.98395,64,71,41
284.98395,285.09933,62,61,41
285.09933,285.21472,60,64,41
285.21472,285.3301,59,66,41
285.3301,285.4455,57,70,41
285.4455,285.56088,55,72,41
285.56088,285.67624,53,74,41
285.67624,285.79163,52,92,41
285.79163,285.907,53,79,41
285.907,286.0224,55,82,41
286.0224,286.1378,57,84,41
286.1378,286.25317,59,86,41
286.25317,286.36856,60,89,41
286.36856,286.48395,62,91,41
286.48395,286.59933,64,94,41
286.59933,286.807,62,77,41
286.8301,286.9224,62,77,41
287.06085,287.15317,62,77,41
287.29163,287.38394,62,77,41
287.5224,288.35318,62,54,41
287.5224,288.35318,59,54,41
289.36856,289.48395,55,92,41
289.48395,289.59933,57,77,41
289.59933,289.71472,59,77,41
289.71472,289.8301,60,77,41
289.8301,289.94547,62,77,41
289.94547,290.06085,64,77,41
290.06085,290.17624,65,77,41
290.17624,290.29163,67,77,41
290.29163,290.407,65,92,41
290.407,290.5224,64,77,41
290.5224,290.6378,62,77,41
290.6378,290.75317,60,77,41
290.75317,290.86856,59,77,41
290.86856,290.98395,57,77,41
290.98395,291.09933,55,77,41
291.09933,291.21472,53,77,41
291.21472,291.3301,52,92,41
291.3301,291.44547,53,77,41
291.44547,291.56085,55,77,41
291.56085,291.67624,57,77,41
291.67624,291.79163,59,77,41
291.79163,291.907,60,77,41
291.907,292.0224,62,77,41
292.0224,292.1378,64,77,41
292.1378,292.55316,67,77,41
293.06085,293.17624,64,92,41
293.17624,293.29163,62,92,41
293.29163,293.407,60,77,41
293.407,293.5224,59,77,41
293.5224,293.6378,57,77,41
293.6378,293.75317,55,77,41
293.75317,293.86856,53,77,41
293.86856,293.98395,52,77,41
293.98395,294.09933,57,92,41
294.09933,294.2147,59,92,41
294.2147,294.33008,60,77,41
294.33008,294.44547,62,77,41
294.44547,294.56085,64,77,41
294.56085,294.67624,66,77,41
294.67624,294.79163,67,77,41
294.79163,294.907,69,77,41
294.907,295.36856,67,77,41
295.83008,295.94547,64,92,41
295.94547,296.06085,66,77,41
296.06085,296.17624,67,77,41
296.17624,296.29163,69,77,41
296.29163,296.407,71,77,41
296.407,296.5224,73,77,41
296.5224,296.6378,74,77,41
296.6378,296.75317,76,77,41
296.75317,296.97046,74,77,41
297.2147,297.432,74,45,41
297.67624,297.89355,74,56,41
298.1378,298.35507,72,67,41
298.5993,298.81662,71,78,41
299.06085,299.27817,69,89,41
299.5224,299.73972,67,96,41
299.98392,300.20123,69,89,41
300.44547,300.66278,62,82,41
300.907,301.12433,64,74,41
301.36853,301.58585,62,67,41
301.83008,302.0474,60,60,41
302.29163,302.50894,59,53,41
302.75317,303.6301,55,71,41
303.67624,304.34546,55,54,41
304.36853,304.57623,55,38,41
304.5993,304.807,57,38,41
304.83008,305.03778,57,38,41
305.06085,305.27817,55,26,41
305.5224,306.35315,67,54,41
306.44547,307.1147,67,54,41
307.13776,307.34546,67,38,41
307.36853,307.57623,69,38,41
307.5993,307.807,69,38,41
307.83008,308.0474,67,26,41
308.29163,308.3839,50,85,41
308.52237,308.6147,50,85,41
308.75314,308.84546,55,60,41
309.2147,309.307,60,85,41
309.44547,309.53778,60,85,41
309.67624,309.76852,59,60,41
310.13776,310.34546,50,108,41
310.36853,310.46085,50,85,41
310.5993,310.69162,55,60,41
311.06085,311.17624,69,39,41
311.17624,311.29163,72,39,41
311.29163,311.40698,71,39,41
311.40698,311.52237,69,39,41
311.52237,311.7397,67,27,41
312.44547,312.7916,64,38,41
312.7916,312.90698,64,38,41
312.90698,313.26413,64,38,41
313.26413,313.38318,64,38,41
313.38318,313.75204,62,38,41
313.75204,313.875,62,38,41
313.875,314.25635,60,38,41
314.25635,314.38345,60,38,41
314.38345,314.62912,62,38,41
314.9052,315.16202,60,38,41
314.9052,315.16202,62,38,41
315.45065,315.90347,59,32,41
315.45065,315.90347,62,32,41
1.846152,2.30769,55,92,42
2.30769,2.7230742,59,92,42
2.769228,3.461535,57,92,42
3.461535,3.6692271,55,41,42
3.692304,4.153842,54,43,42
4.153842,4.61538,56,40,42
4.61538,5.307687,57,40,42
5.538456,5.9538403,45,92,42
5.999994,6.415378,48,92,42
6.461532,7.153839,50,92,42
7.153839,7.3615313,52,41,42
7.384608,8.215377,54,43,42
8.307684,8.953837,55,40,42
10.153836,10.615374,48,53,42
10.615374,10.832682,47,31,42
11.999988,12.461526,60,53,42
12.461526,12.678833,59,31,42
13.84614,14.769216,49,35,42
14.769216,15.230754,50,46,42
15.230754,15.692292,51,54,42
15.692292,16.124985,52,56,42
17.538445,18.46152,49,43,42
18.46152,18.876904,50,56,42
18.923058,19.384596,38,65,42
19.384596,19.817287,43,38,42
20.307673,20.76921,43,65,42
20.76921,21.184595,47,65,42
21.230747,21.923056,45,65,42
21.923056,22.130747,43,65,42
22.153824,22.615362,42,65,42
22.615362,22.799976,43,80,42
22.84613,23.053823,55,65,42
23.0769,23.538439,59,65,42
23.538439,23.769207,57,65,42
23.769207,23.976898,55,46,42
23.999975,24.41536,54,54,42
24.461514,24.876898,56,43,42
24.923052,25.75382,57,43,42
25.846128,26.676897,50,43,42
26.769203,27.599972,55,43,42
27.92305,28.153818,52,71,42
28.153818,28.384586,54,71,42
28.384586,28.615356,55,71,42
28.615356,28.823048,57,71,42
28.846125,29.076895,45,71,42
29.076895,29.307663,57,71,42
29.307663,29.538431,59,71,42
29.538431,29.971125,61,71,42
30.461508,30.8942,62,43,42
33.461506,33.692272,47,61,42
33.692272,33.923042,48,61,42
33.923042,34.153812,49,61,42
34.153812,34.384583,50,61,42
34.384583,34.61535,51,61,42
34.61535,34.84612,52,61,42
34.84612,35.07689,54,61,42
35.07689,35.50958,55,61,42
37.15381,37.38458,55,54,42
37.38458,37.61535,54,54,42
37.61535,37.846115,52,54,42
37.846115,37.938423,45,54,42
38.076885,38.169193,57,54,42
38.307655,39.201885,58,54,42
39.92304,40.13073,57,54,42
40.153805,41.446114,58,65,42
41.769188,41.999958,58,78,42
41.999958,42.66919,57,78,42
42.692265,42.923035,58,65,42
42.923035,43.592262,57,65,42
43.61534,43.823032,45,54,42
43.84611,43.93842,57,65,42
44.076878,44.169186,57,65,42
44.307648,45.138416,57,65,42
46.1538,46.569183,50,38,42
46.615337,47.030724,50,38,42
47.076878,47.907646,50,38,42
48.23072,48.32303,38,38,42
48.46149,48.876873,50,38,42
49.153797,49.246105,38,38,42
49.384567,49.79995,50,38,42
49.846104,50.26149,43,38,42
50.307644,50.723026,43,38,42
50.76918,51.59995,43,38,42
51.923023,52.01533,43,38,42
52.153793,52.56918,55,38,42
52.8461,52.938408,43,38,42
53.07687,53.492252,55,38,42
53.538406,54.369175,54,38,42
54.461483,55.29225,49,38,42
55.38456,55.799946,50,38,42
55.8461,56.261482,43,38,42
56.307636,56.42302,45,38,42
56.42302,56.538406,44,38,42
56.538406,56.65379,45,38,42
56.65379,56.769173,44,38,42
56.769173,56.98648,45,26,42
57.46148,57.678787,50,65,42
57.92302,58.13071,50,65,42
58.384556,58.59225,50,65,42
58.615326,58.832634,50,65,42
59.307632,59.39994,38,65,42
59.538403,60.1884,50,65,42
60.23071,60.323017,38,65,42
60.46148,60.87686,50,65,42
61.153786,61.371094,55,65,42
61.615322,61.823013,55,65,42
62.076862,62.284554,55,65,42
62.30763,62.524937,55,65,42
62.999935,63.092243,43,65,42
63.230705,63.899937,55,65,42
63.92301,64.01532,43,65,42
64.153786,64.56917,55,65,42
64.61532,65.5384,54,43,42
65.5384,65.99993,55,43,42
65.99993,66.46147,56,43,42
66.46147,67.384544,57,43,42
67.384544,67.846085,62,43,42
68.307625,68.769165,47,61,42
68.769165,69.2307,45,92,42
69.2307,69.69224,43,77,42
69.69224,70.15378,44,92,42
70.15378,71.07685,45,77,42
71.07685,71.29416,38,65,42
71.99993,72.09224,61,38,42
72.2307,72.323006,61,38,42
72.461464,72.55377,61,38,42
72.923004,73.01531,62,38,42
73.15377,73.24608,62,38,42
73.384544,73.47685,62,38,42
73.84608,74.063385,55,38,42
74.30762,74.524925,52,38,42
74.76916,75.20185,57,26,42
75.69223,75.78454,49,38,42
75.923004,76.01531,49,38,42
76.15377,76.24608,49,38,42
76.61531,76.70762,50,38,42
76.84608,76.938385,50,38,42
77.07684,77.16915,50,38,42
77.53838,77.75569,43,54,42
77.99992,78.21723,45,54,42
78.46146,78.57684,50,65,42
78.57684,78.69223,52,54,42
78.69223,78.80762,54,54,42
78.80762,78.923,55,54,42
78.923,79.03838,57,54,42
79.03838,79.15377,59,54,42
79.15377,79.26915,61,54,42
79.26915,79.373,62,54,42
79.38454,79.49992,60,92,42
79.49992,79.6153,59,77,42
79.6153,79.73069,57,77,42
79.73069,79.84608,55,77,42
79.84608,79.96146,54,77,42
79.96146,80.07684,52,77,42
80.07684,80.19223,50,77,42
80.19223,80.296074,48,77,42
80.30761,80.423,47,92,42
80.423,80.53838,48,92,42
80.53838,80.65376,50,77,42
80.65376,80.76915,52,77,42
80.76915,80.88454,54,77,42
80.88454,80.999916,55,77,42
80.999916,81.1153,57,77,42
81.1153,81.21915,59,77,42
81.23069,81.43838,57,54,42
81.46146,81.553764,57,54,42
81.69222,81.78453,57,54,42
81.923,82.015305,57,54,42
82.15376,82.26915,50,92,42
82.26915,82.38454,52,92,42
82.38454,82.499916,54,77,42
82.499916,82.6153,55,77,42
82.6153,82.73069,57,77,42
82.73069,82.84607,59,77,42
82.84607,82.96146,61,77,42
82.96146,83.0653,62,77,42
83.07684,83.19222,60,92,42
83.19222,83.30761,59,92,42
83.30761,83.423,57,77,42
83.423,83.538376,55,77,42
83.538376,83.65376,54,77,42
83.65376,83.76915,52,77,42
83.76915,83.88453,50,77,42
83.88453,83.98838,48,77,42
83.999916,84.1153,47,92,42
84.1153,84.23068,48,92,42
84.23068,84.34607,50,77,42
84.34607,84.46146,52,77,42
84.46146,84.576836,54,77,42
84.576836,84.69222,55,77,42
84.69222,84.80761,57,77,42
84.80761,84.91145,59,77,42
84.92299,85.038376,57,92,42
85.038376,85.15376,55,92,42
85.15376,85.26914,54,77,42
85.26914,85.38453,52,77,42
85.38453,85.499916,50,77,42
85.499916,85.615295,48,77,42
85.615295,85.73068,47,77,42
85.73068,85.834526,45,77,42
85.84607,85.96146,43,92,42
85.96146,86.076836,45,77,42
86.076836,86.19222,47,77,42
86.19222,86.30761,48,77,42
86.30761,86.42299,50,77,42
86.42299,86.538376,52,77,42
86.538376,86.65376,54,77,42
86.65376,86.75761,55,77,42
86.76914,87.599915,45,92,42
87.69222,87.90953,47,92,42
88.153755,88.37106,55,38,42
88.615295,88.8326,57,38,42
89.076836,89.29414,58,38,42
89.53837,89.75568,59,38,42
89.99991,90.21722,55,38,42
90.46145,90.67876,57,38,42
90.92299,91.1403,45,38,42
91.38452,91.60183,50,38,42
91.84606,92.722984,59,77,42
92.769135,93.59991,57,77,42
93.692215,94.1076,45,54,42
94.153755,94.37106,50,54,42
94.61529,95.44606,59,54,42
95.53837,96.41529,57,54,42
96.46144,96.87682,45,54,42
96.92298,97.14029,50,38,42
98.307594,98.3999,57,77,42
98.53836,98.63067,57,77,42
98.769135,98.98644,62,54,42
99.69221,100.03836,43,43,42
100.03836,100.15375,43,43,42
100.15375,100.4999,44,43,42
100.4999,100.61529,44,43,42
100.61529,100.96144,45,43,42
100.96144,101.07682,45,43,42
101.07682,101.42297,47,43,42
101.42297,101.53836,47,43,42
101.53836,101.75567,45,61,42
101.9999,102.41528,45,61,42
102.46143,102.89413,38,61,42
103.384514,103.56913,50,92,42
103.84605,104.03066,54,92,42
104.30759,106.52874,52,92,42
109.38451,109.70758,51,38,42
109.84605,110.16912,51,38,42
110.30758,110.63066,51,38,42
110.76912,111.63451,51,26,42
112.61527,113.030655,52,65,42
113.07681,113.492195,48,65,42
113.538345,116.740265,47,65,42
118.153725,118.58642,52,43,42
119.99988,120.43257,45,43,42
120.92296,121.355644,50,43,42
122.30757,122.630646,43,43,42
122.76911,123.092186,43,43,42
123.230644,123.55373,43,43,42
123.692184,124.55757,43,31,42
125.53834,125.95372,40,65,42
125.99987,126.41526,36,65,42
126.46141,128.49217,43,65,42
132.92294,133.13063,36,103,42
133.15372,133.3614,48,74,42
133.38448,133.59218,48,74,42
133.61525,133.82294,48,74,42
133.84602,134.05371,48,65,42
134.07678,134.28448,48,35,42
134.30756,134.51524,48,35,42
134.53833,134.74602,48,35,42
134.76909,134.97679,48,35,42
134.99986,135.20755,48,35,42
135.23064,135.43832,48,35,42
135.46141,135.6691,48,35,42
135.69217,135.89986,48,35,42
135.92294,136.13063,48,35,42
136.15372,136.3614,48,35,42
136.38448,136.59218,48,35,42
136.61525,136.82294,37,103,42
136.84602,137.05371,49,74,42
137.07678,137.28448,49,74,42
137.30756,137.51524,49,74,42
137.53833,137.74602,49,65,42
137.76909,137.97679,49,43,42
137.99986,138.20755,49,35,42
138.23064,138.43832,49,35,42
138.4614,138.6691,49,35,42
138.69217,138.89986,49,35,42
138.92294,139.13063,49,35,42
139.1537,139.3614,49,35,42
139.38448,139.59216,49,35,42
139.61525,139.82294,49,35,42
139.84601,140.05371,49,35,42
140.07678,140.28447,49,35,42
140.30756,140.51524,38,103,42
140.53831,140.74602,50,74,42
140.76909,140.97678,50,74,42
140.99986,141.20755,50,74,42
141.23062,141.43832,50,65,42
141.4614,141.66908,50,35,42
141.69217,141.89986,50,35,42
141.92293,142.13063,50,35,42
142.1537,142.36139,50,35,42
142.38448,142.59216,50,35,42
142.61523,142.82294,50,35,42
142.84601,143.0537,50,35,42
143.07678,143.28447,50,25,42
143.30756,143.51524,50,35,42
143.53831,143.74602,50,35,42
143.76909,143.97678,50,35,42
143.99986,144.20755,39,103,42
144.23062,144.43832,51,74,42
144.4614,144.66908,51,74,42
144.69217,144.89986,51,74,42
144.92293,145.13063,51,65,42
145.1537,145.36139,51,35,42
145.38448,145.59216,51,35,42
145.61523,145.82294,51,35,42
145.84601,146.0537,51,35,42
146.07678,146.28447,51,35,42
146.30754,146.51524,51,35,42
146.53831,146.746,51,35,42
146.76909,146.97678,51,35,42
146.99985,147.20755,51,25,42
147.23062,147.43831,51,35,42
147.4614,147.66908,51,35,42
147.69215,148.12485,52,65,42
148.61523,149.04793,48,92,42
149.53831,149.97101,47,92,42
150.4614,150.89407,51,92,42
151.38446,151.546,52,46,42
151.61523,151.77676,52,46,42
151.84601,152.00754,52,46,42
152.07677,152.23831,52,49,42
152.30754,152.46909,57,50,42
152.53831,152.69984,57,50,42
152.76907,152.93062,59,50,42
152.99985,153.16139,59,50,42
153.23062,153.39215,60,52,42
153.46138,153.62292,60,53,42
153.69215,153.8537,57,53,42
153.92293,154.08446,57,55,42
154.15369,154.31523,59,55,42
154.38446,154.546,59,55,42
154.61523,154.77676,47,55,42
154.846,155.00754,47,58,42
155.07677,155.23831,52,59,42
155.30754,155.46907,52,59,42
155.5383,155.69984,52,59,42
155.76907,155.93062,52,60,42
155.99985,156.16138,57,49,42
156.2306,156.39215,57,62,42
156.46138,156.62292,59,62,42
156.69215,156.85368,59,62,42
156.92291,157.08446,60,64,42
157.15369,157.31523,60,66,42
157.38446,157.54599,57,66,42
157.61523,157.77676,57,66,42
157.846,158.00754,59,67,42
158.07677,158.2383,59,67,42
158.30754,158.46907,47,70,42
158.5383,158.69984,47,70,42
158.76907,158.98637,52,36,42
159.2306,159.32292,47,54,42
159.46138,159.55368,47,54,42
159.69215,159.78445,52,38,42
160.15369,160.24599,59,54,42
160.38446,160.47676,59,54,42
160.61522,160.70753,64,38,42
161.07677,161.16907,59,54,42
161.30753,161.39984,59,54,42
161.5383,161.6306,60,38,42
162.46138,162.80753,45,38,42
162.80753,162.92291,45,38,42
162.92291,163.26907,46,38,42
163.26907,163.38445,46,38,42
163.38445,163.7306,47,38,42
163.7306,163.846,47,38,42
163.846,164.19214,48,38,42
164.19214,164.30753,48,38,42
164.30753,164.52484,47,54,42
164.76907,164.98637,47,54,42
165.2306,165.6633,40,26,42
166.15369,167.81522,43,71,42
167.99983,168.41522,48,67,42
168.92291,169.75368,50,43,42
169.84598,170.26137,55,67,42
170.76906,171.59982,57,43,42
171.69214,171.85367,59,17,42
171.92291,172.08444,59,17,42
172.15367,172.31522,57,22,42
172.38445,172.54597,57,22,42
172.61522,172.77675,55,22,42
172.84598,173.00752,55,22,42
173.07675,173.23828,54,22,42
173.30753,173.46906,54,22,42
173.53828,173.69983,52,22,42
173.76906,173.93059,52,22,42
173.99983,174.16136,55,22,42
174.23059,174.39214,55,22,42
174.46136,174.62291,57,22,42
174.69214,174.85367,57,22,42
174.9229,175.08444,58,22,42
175.15367,175.31522,58,22,42
175.38445,175.54597,59,22,42
175.6152,175.77675,59,22,42
175.84598,176.00752,57,22,42
176.07675,176.23828,57,22,42
176.30751,176.46906,55,22,42
176.53828,176.69983,55,22,42
176.76906,176.93059,54,22,42
176.99982,177.16136,54,22,42
177.23059,177.39214,52,22,42
177.46136,177.6229,52,22,42
177.69212,177.85367,55,22,42
177.9229,178.08444,55,22,42
178.15367,178.3152,57,22,42
178.38443,178.54597,57,22,42
178.6152,178.77675,45,22,42
178.84598,179.0075,45,22,42
179.07674,179.29405,50,22,42
179.53828,179.63058,45,61,42
179.76906,179.86136,45,61,42
179.99982,180.09213,50,43,42
180.46136,180.55367,57,61,42
180.69212,180.78444,57,61,42
180.9229,181.0152,62,43,42
181.38443,181.47675,57,61,42
181.6152,181.7075,57,61,42
181.84598,181.93828,59,43,42
182.76904,183.1152,43,38,42
183.1152,183.23059,43,38,42
183.23059,183.57674,44,38,42
183.57674,183.69212,44,38,42
183.69212,184.03828,45,38,42
184.03828,184.15366,45,38,42
184.15366,184.49982,47,38,42
184.49982,184.6152,47,38,42
184.6152,184.8325,45,26,42
185.07674,185.29405,45,31,42
185.53827,185.97096,38,22,42
187.38443,187.60173,54,77,42
187.84596,187.90366,54,49,42
187.90366,187.96135,52,49,42
187.96135,188.01904,54,49,42
188.01904,188.07674,52,49,42
188.07674,188.13443,54,49,42
188.13443,188.19212,52,49,42
188.19212,188.24982,50,49,42
188.30751,188.74019,50,43,42
189.23058,189.44789,57,77,42
189.69212,189.74982,57,49,42
189.74982,189.8075,55,49,42
189.8075,189.86519,57,49,42
189.86519,189.92288,55,49,42
189.92288,189.98058,57,49,42
189.98058,190.03827,55,49,42
190.03827,190.09596,54,49,42
190.15366,190.37096,54,43,42
191.9998,192.11519,62,54,42
192.11519,192.23058,61,54,42
192.23058,192.34596,62,54,42
192.34596,192.46135,61,54,42
192.46135,192.57674,62,54,42
192.57674,192.69211,61,54,42
192.69211,192.8075,62,54,42
192.8075,192.92288,61,54,42
192.92288,193.96135,62,77,42
193.96135,194.07674,61,54,42
194.07674,194.19211,62,54,42
194.19211,194.3075,61,54,42
194.3075,194.42288,62,54,42
194.42288,194.53827,61,54,42
194.53827,194.65366,62,54,42
194.65366,194.76904,61,54,42
194.76904,197.60164,62,77,42
197.60164,199.67633,50,53,42
199.67633,200.09172,55,92,42
200.13788,200.55325,59,92,42
200.59941,201.29172,57,92,42
201.29172,201.4994,55,38,42
201.52249,201.93787,54,38,42
201.98402,202.39941,56,38,42
202.44557,203.09557,57,38,42
203.36864,203.78403,45,92,42
203.83018,204.24556,48,92,42
204.29172,204.9148,50,92,42
204.98402,205.19171,52,44,42
205.2148,206.04556,54,31,42
206.13786,206.69171,55,49,42
207.98402,208.44556,48,38,42
208.44556,208.66287,47,26,42
209.83017,210.29172,60,38,42
210.29172,210.50902,59,26,42
211.67633,212.5994,49,38,42
212.5994,213.06094,50,47,42
213.06094,213.52248,51,53,42
213.52248,213.95517,52,47,42
214.44556,215.27632,62,54,42
215.36862,215.58594,60,38,42
217.2917,218.19171,49,38,42
218.2917,218.70709,50,54,42
218.75325,219.21478,38,71,42
219.21478,219.64748,43,38,42
220.13786,220.55324,43,71,42
220.5994,221.01479,47,71,42
221.06093,221.75323,45,71,42
221.75323,221.96094,43,71,42
221.98401,222.67632,42,71,42
222.67632,222.884,55,71,42
222.90709,223.32246,59,71,42
223.36862,223.5994,57,60,42
223.5994,223.80708,55,48,42
223.83015,224.24554,54,38,42
224.2917,224.75323,56,38,42
224.75323,225.584,57,38,42
225.67632,226.50708,50,38,42
226.5994,227.43016,55,38,42
227.52246,227.73016,48,38,42
227.75323,227.96092,60,54,42
227.98401,228.1917,59,54,42
228.21477,228.65323,57,54,42
228.67632,228.884,62,54,42
228.90707,229.11478,50,54,42
229.13785,229.34554,52,54,42
229.36862,229.80132,54,38,42
230.29169,230.72438,55,38,42
233.29169,233.52246,52,54,42
233.52246,233.75323,53,54,42
233.75323,233.984,54,54,42
233.984,234.21477,55,54,42
234.21477,234.44554,56,54,42
234.44554,234.6763,57,54,42
234.6763,234.90707,59,54,42
234.90707,235.33977,60,38,42
236.984,237.21477,60,60,42
237.21477,237.44553,59,64,42
237.44553,237.6763,57,68,42
237.6763,237.88399,50,72,42
237.90707,238.11476,62,76,42
238.13783,239.03207,63,79,42
239.75322,239.9609,62,54,42
239.984,240.87822,63,54,42
241.59938,241.80707,63,54,42
241.83014,242.49937,62,54,42
242.52245,242.73015,63,54,42
242.75322,243.42245,62,54,42
243.44553,243.65321,50,54,42
243.6763,243.7686,62,54,42
243.90706,243.99937,62,54,42
244.13783,244.57053,62,54,42
245.98398,246.39937,55,41,42
246.44553,246.8609,55,41,42
246.90706,247.73782,55,41,42
248.06091,248.29167,43,41,42
248.29167,248.94168,55,41,42
248.98398,249.21475,43,41,42
249.21475,249.63014,55,41,42
249.67628,250.09167,48,41,42
250.13783,250.5532,48,41,42
250.59937,251.43013,48,41,42
251.7532,251.98398,48,41,42
251.98398,252.63397,60,41,42
252.67628,252.90706,48,41,42
252.90706,253.32243,60,41,42
253.36859,254.19936,59,41,42
254.29167,255.12244,54,41,42
255.21475,255.63013,55,41,42
255.67628,256.09167,48,41,42
256.13782,256.24167,50,41,42
256.2532,256.35706,49,41,42
256.3686,256.47244,50,41,42
256.48398,256.58783,49,41,42
256.59937,256.81668,50,29,42
257.29166,257.50897,43,65,42
257.7532,257.9609,43,65,42
258.21475,258.42242,43,65,42
258.44553,258.6628,43,65,42
259.13782,259.34552,43,65,42
259.3686,260.0378,55,65,42
260.06088,260.2686,43,65,42
260.29166,260.70706,55,65,42
260.98398,261.20126,48,65,42
261.4455,261.6532,48,65,42
261.90704,262.11475,48,65,42
262.13782,262.35513,48,65,42
262.8301,263.0378,36,52,42
263.06088,263.73013,48,52,42
263.7532,263.96088,48,52,42
263.98398,264.39935,60,52,42
264.4455,265.3686,59,43,42
265.3686,265.8301,60,43,42
265.8301,266.29166,61,43,42
266.29166,267.21472,62,43,42
267.21472,267.64743,67,31,42
268.13782,268.5532,52,54,42
268.59933,269.06088,50,59,42
269.06088,269.47626,48,54,42
269.52243,269.98395,49,59,42
269.98395,270.4455,50,54,42
270.90704,271.12436,43,38,42
271.8301,271.92242,54,41,42
272.06088,272.1532,54,41,42
272.29166,272.38397,54,41,42
272.75317,272.8455,55,41,42
272.98395,273.07626,55,41,42
273.21472,273.30704,55,41,42
273.67627,273.8936,48,49,42
274.13782,274.3551,45,49,42
274.59933,275.03204,50,35,42
275.52243,275.61472,42,41,42
275.75317,275.8455,42,41,42
275.98395,276.07626,42,41,42
276.4455,276.5378,43,41,42
276.67627,276.76855,43,41,42
276.90704,276.99933,43,41,42
277.36856,277.58588,48,49,42
277.8301,278.04742,50,49,42
278.29166,278.50894,52,49,42
279.21472,279.43204,50,49,42
279.67627,279.89355,52,49,42
280.1378,280.3551,53,49,42
281.06088,281.27817,52,49,42
281.5224,281.73972,47,49,42
281.98395,282.20126,48,49,42
282.907,283.32242,57,41,42
287.5224,287.6378,55,92,42
287.6378,287.75317,57,77,42
287.75317,287.86856,59,77,42
287.86856,287.98395,60,77,42
287.98395,288.09933,62,77,42
288.09933,288.21472,64,77,42
288.21472,288.3301,66,77,42
288.3301,288.4455,67,77,42
288.4455,288.56085,65,92,42
288.56085,288.67624,64,92,42
288.67624,288.79163,62,77,42
288.79163,288.907,60,77,42
288.907,289.0224,59,77,42
289.0224,289.1378,57,77,42
289.1378,289.25317,55,77,42
289.25317,289.36856,53,77,42
289.36856,289.48395,52,92,42
289.48395,289.59933,53,77,42
289.59933,289.71472,55,77,42
289.71472,289.8301,57,77,42
289.8301,289.94547,59,77,42
289.94547,290.06085,60,77,42
290.06085,290.17624,62,77,42
290.17624,290.29163,64,77,42
290.29163,290.407,62,92,42
290.407,290.5224,60,77,42
290.5224,290.6378,59,77,42
290.6378,290.75317,57,77,42
290.75317,290.86856,55,77,42
290.86856,290.98395,53,77,42
290.98395,291.09933,52,77,42
291.09933,291.21472,50,77,42
291.21472,291.3301,48,92,42
291.3301,291.44547,50,77,42
291.44547,291.56085,52,77,42
291.56085,291.67624,53,77,42
291.67624,291.79163,55,77,42
291.79163,291.907,57,77,42
291.907,292.0224,59,77,42
292.0224,292.1378,60,77,42
292.1378,292.55316,59,77,42
293.06085,293.17624,60,92,42
293.17624,293.29163,59,92,42
293.29163,293.407,57,77,42
293.407,293.5224,55,77,42
293.5224,293.6378,53,77,42
293.6378,293.75317,52,77,42
293.75317,293.86856,50,77,42
293.86856,293.98395,48,77,42
293.98395,294.8147,50,77,42
294.907,295.0224,52,92,42
295.0224,295.1378,54,92,42
295.1378,295.25317,55,77,42
295.25317,295.36856,57,77,42
295.36856,295.48395,59,77,42
295.48395,295.59933,61,77,42
295.59933,295.7147,62,77,42
295.7147,295.83008,64,77,42
295.83008,296.66086,57,77,42
296.75317,296.97046,50,77,42
297.2147,297.432,54,45,42
297.67624,297.89355,55,56,42
298.1378,298.35507,60,67,42
298.5993,298.81662,62,78,42
299.06085,299.27817,63,89,42
299.5224,299.73972,64,96,42
299.98392,300.20123,54,89,42
300.44547,300.66278,55,82,42
300.907,301.12433,48,74,42
301.36853,301.58585,50,67,42
301.83008,302.0474,50,60,42
302.29163,302.50894,43,53,42
302.75317,303.6301,52,71,42
303.67624,304.507,50,54,42
304.5993,305.0147,38,38,42
305.06085,305.27817,43,26,42
305.5224,306.35315,64,54,42
306.44547,307.3224,62,54,42
307.36853,307.78394,50,38,42
307.83008,308.0474,55,26,42
309.2147,309.307,50,85,42
309.44547,309.53778,50,85,42
309.67624,309.76852,55,60,42
311.06085,311.15314,62,85,42
311.29163,311.3839,62,85,42
311.52237,311.6147,64,60,42
312.44547,312.7916,48,38,42
312.7916,312.90698,48,38,42
312.90698,313.26413,49,38,42
313.26413,313.38318,49,38,42
313.38318,313.75204,50,38,42
313.75204,313.875,50,38,42
313.875,314.25635,52,38,42
314.25635,314.38345,52,38,42
314.38345,314.62912,50,38,42
314.9052,315.16202,50,38,42
315.45065,315.98132,43,26,42
