start_time,end_time,note_value,velocity,instrument_program_number
2.4,2.7,67,49,40
2.7,2.8,69,51,40
2.795,2.895,67,51,40
2.895,2.995,66,52,40
3.0,3.3,67,52,40
3.3,3.6,72,54,40
3.6,4.8,72,55,40
6.0,6.3,72,66,40
6.3,6.4,74,67,40
6.395,6.495,72,67,40
6.495,6.595,71,68,40
6.6,6.9,72,68,40
6.9,7.2,76,70,40
7.2,8.4,76,71,40
9.6,9.9,76,82,40
9.9,10.0,77,83,40
9.995,10.095,76,84,40
10.095,10.195,74,84,40
10.2,10.5,76,85,40
10.5,10.8,79,86,40
10.8,12.0,79,87,40
13.2,13.5,77,71,40
13.5,13.8,76,68,40
13.8,14.1,74,90,40
14.1,14.4,72,94,40
14.4,15.0,76,91,40
15.0,15.095,76,76,40
15.095,15.195,74,68,40
15.195,15.3,76,79,40
15.3,15.395,74,59,40
15.395,15.495,72,72,40
15.495,15.6,74,59,40
15.6,16.02,72,47,40
16.2,16.8,71,37,40
16.8,17.4,69,53,40
17.4,18.0,67,48,40
18.0,18.9,67,55,40
18.9,19.045,71,59,40
19.05,19.17,69,56,40
19.2,19.62,67,68,40
19.8,20.4,64,60,40
20.4,21.0,64,60,40
21.0,21.6,64,60,40
21.6,22.5,64,60,40
22.5,22.65,67,60,40
22.65,22.8,65,60,40
22.8,23.28,64,60,40
30.6,31.2,69,66,40
31.2,31.8,69,73,40
31.8,32.4,69,80,40
32.4,33.0,69,76,40
33.0,33.6,62,58,40
33.6,34.2,62,74,40
34.2,34.8,67,83,40
34.8,35.4,67,76,40
35.4,36.0,67,67,40
36.0,36.6,67,73,40
36.6,37.2,60,61,40
37.2,38.4,60,68,40
41.4,42.0,79,80,40
42.0,42.6,79,85,40
42.6,43.2,79,90,40
43.2,43.5,81,100,40
43.5,43.8,79,100,40
43.8,44.1,77,100,40
44.1,44.4,76,100,40
44.4,45.0,74,100,40
45.0,45.9,72,100,40
45.75,45.9,74,100,40
45.9,46.05,76,100,40
46.05,46.2,77,100,40
46.2,46.35,79,100,40
46.35,46.5,81,100,40
46.5,46.62,83,100,40
46.65,46.77,84,100,40
46.8,46.95,83,88,40
46.95,47.1,81,84,40
47.1,47.25,80,58,40
47.25,47.4,81,64,40
47.4,47.55,80,59,40
47.55,47.7,81,61,40
47.7,47.85,79,61,40
47.85,48.0,77,58,40
48.0,48.15,76,67,40
48.15,48.3,79,65,40
48.3,48.45,78,58,40
48.45,48.6,79,65,40
48.6,48.75,78,60,40
48.75,48.9,79,61,40
48.9,49.05,81,62,40
49.05,49.2,79,60,40
49.2,49.5,79,62,40
49.5,49.8,77,56,40
49.8,50.1,76,56,40
50.1,50.4,74,55,40
50.4,51.36,72,80,40
54.0,55.2,79,109,40
55.2,55.62,76,82,40
55.8,56.22,79,96,40
56.4,56.82,79,92,40
57.0,57.42,79,90,40
57.6,58.8,79,115,40
58.8,59.4,74,82,40
59.4,59.82,79,102,40
60.0,60.42,79,114,40
60.6,61.02,79,114,40
61.2,62.4,79,114,40
62.4,62.85,78,106,40
62.85,63.0,79,119,40
63.0,63.45,81,125,40
63.45,63.6,83,124,40
63.6,64.2,84,113,40
64.2,64.8,72,85,40
64.8,64.88,71,106,40
64.9,64.98,72,106,40
65.0,65.08,74,106,40
65.1,65.82,72,84,40
66.0,66.96,71,96,40
68.4,68.7,60,81,40
68.7,68.85,62,89,40
68.85,69.0,64,93,40
69.0,69.15,65,84,40
69.15,69.3,67,89,40
69.3,69.45,69,86,40
69.45,69.6,71,89,40
69.6,69.75,72,91,40
69.75,69.9,67,71,40
69.9,70.05,76,103,40
70.05,70.2,72,80,40
70.2,70.35,79,103,40
70.35,70.5,76,84,40
70.5,70.65,84,95,40
70.65,70.8,79,84,40
70.8,70.95,88,107,40
70.95,71.1,86,79,40
71.1,71.25,84,81,40
71.25,71.4,83,84,40
71.4,71.55,81,82,40
71.55,71.7,79,77,40
71.7,71.845,78,86,40
71.85,71.97,76,90,40
72.0,72.06,76,90,40
72.075,72.15,74,81,40
72.17,72.245,72,91,40
72.245,72.32,74,76,40
72.325,72.47,76,86,40
72.475,72.625,78,94,40
72.625,72.775,79,89,40
72.775,72.925,81,95,40
72.925,73.075,83,86,40
73.075,73.225,84,93,40
73.225,73.375,86,93,40
73.375,73.525,82,79,40
73.525,73.675,83,88,40
73.675,73.825,78,77,40
73.825,73.975,79,85,40
73.975,74.125,73,68,40
74.125,74.275,74,86,40
74.275,74.425,70,77,40
74.425,74.575,71,93,40
74.575,74.725,66,75,40
74.725,74.875,67,86,40
74.875,75.025,62,75,40
75.025,75.175,67,95,40
75.175,75.325,71,98,40
75.325,75.47,76,98,40
75.475,75.595,74,90,40
75.6,75.75,74,82,40
75.75,75.9,72,80,40
75.9,76.05,71,81,40
76.05,76.2,72,91,40
76.2,76.35,72,90,40
76.35,76.5,76,86,40
76.5,76.65,81,103,40
76.65,76.8,79,81,40
76.8,76.95,79,86,40
76.95,77.1,78,77,40
77.1,77.25,84,95,40
77.25,77.4,83,84,40
77.4,77.55,83,90,40
77.55,77.7,81,80,40
77.7,77.85,81,86,40
77.85,78.0,79,81,40
78.0,78.15,79,84,40
78.15,78.3,78,82,40
78.3,78.45,78,79,40
78.45,78.6,76,76,40
78.6,78.75,76,90,40
78.75,78.9,74,84,40
78.9,79.02,74,90,40
79.05,79.17,72,90,40
79.2,79.5,72,98,40
79.5,79.8,71,81,40
79.8,82.02,71,78,40
82.2,82.8,71,64,40
82.8,86.4,70,69,40
86.4,86.7,69,75,40
86.7,86.795,70,75,40
86.795,86.89,69,80,40
86.895,86.99,67,74,40
87.0,87.285,69,74,40
87.3,87.585,70,80,40
87.6,88.165,72,76,40
88.8,89.365,66,49,40
90.0,91.125,67,60,40
99.0,99.6,86,43,40
99.6,100.2,86,47,40
100.2,100.8,86,44,40
100.8,100.995,86,50,40
100.995,101.195,85,52,40
101.195,101.4,81,53,40
101.4,101.595,86,55,40
101.595,101.795,85,57,40
101.795,102.0,81,58,40
102.0,102.195,86,60,40
102.195,102.395,84,61,40
102.395,102.6,81,63,40
102.6,102.795,86,65,40
102.795,102.995,84,66,40
102.995,103.2,81,68,40
103.2,103.395,82,69,40
103.395,103.595,86,71,40
103.595,103.8,84,73,40
103.8,103.99,82,74,40
103.995,104.185,81,76,40
104.195,104.355,79,77,40
104.4,104.595,74,79,40
104.595,104.795,73,81,40
104.795,105.0,69,82,40
105.0,105.19,74,84,40
105.2,105.39,73,86,40
105.4,105.595,69,87,40
105.595,105.795,74,89,40
105.795,106.0,72,90,40
106.0,106.195,69,92,40
106.195,106.395,74,94,40
106.395,106.6,72,95,40
106.6,106.795,69,97,40
106.795,106.995,70,98,40
106.995,107.2,74,100,40
107.2,107.395,72,102,40
107.4,107.56,70,103,40
107.6,107.76,69,105,40
107.8,107.96,67,106,40
108.0,108.075,74,82,40
108.075,108.15,73,73,40
108.155,108.23,74,77,40
108.23,108.305,73,88,40
108.3,108.375,74,82,40
108.375,108.45,73,73,40
108.455,108.53,74,77,40
108.53,108.605,73,62,40
108.6,108.675,74,57,40
108.675,108.75,73,51,40
108.755,108.83,71,54,40
108.83,108.89,73,56,40
108.905,109.145,74,80,40
109.205,110.165,62,80,40
110.405,111.125,62,80,40
111.305,111.545,62,80,40
111.6,112.2,62,84,40
112.2,113.34,67,80,40
113.4,114.0,67,71,40
114.0,114.6,71,85,40
114.6,115.2,67,71,40
115.2,116.4,66,67,40
116.4,117.6,64,66,40
117.6,118.5,64,75,40
118.5,118.8,64,74,40
118.8,120.3,64,76,40
120.3,120.45,66,80,40
120.45,120.6,68,82,40
120.6,120.75,69,82,40
120.75,120.9,68,75,40
120.9,121.05,71,84,40
121.05,121.2,69,74,40
121.2,121.35,72,79,40
121.35,121.5,71,71,40
121.5,121.65,74,84,40
121.65,121.8,72,72,40
121.8,121.95,75,80,40
121.95,122.1,76,77,40
122.1,122.22,72,80,40
122.25,122.37,69,80,40
122.4,123.3,67,70,40
123.3,123.45,69,57,40
123.45,123.6,67,50,40
123.6,124.8,66,76,40
124.8,125.7,74,62,40
125.7,125.91,74,84,40
126.0,126.3,74,80,40
126.3,126.585,79,81,40
126.9,127.2,74,63,40
127.2,127.5,74,73,40
127.5,127.785,81,81,40
128.1,128.31,74,66,40
128.4,128.7,74,72,40
128.7,128.985,83,82,40
129.3,129.51,74,63,40
129.9,130.2,74,69,40
130.2,130.5,86,97,40
130.5,130.8,84,88,40
130.8,131.1,81,84,40
131.1,131.4,78,79,40
131.4,131.7,74,75,40
131.7,132.0,72,71,40
132.0,132.3,69,66,40
132.3,132.6,66,62,40
132.6,132.9,62,75,40
132.9,133.11,74,69,40
133.2,133.5,74,90,40
133.5,133.785,79,79,40
134.1,134.31,74,67,40
134.4,134.7,74,67,40
134.7,134.985,81,82,40
135.3,135.51,74,56,40
135.6,135.9,74,56,40
135.9,136.185,83,77,40
136.5,136.71,74,48,40
136.8,137.1,74,39,40
137.1,137.25,84,70,40
137.25,137.4,83,59,40
137.4,137.55,86,60,40
137.55,137.7,84,54,40
137.7,137.85,83,53,40
137.85,138.0,81,50,40
138.0,138.15,79,53,40
138.15,138.3,78,51,40
138.3,138.45,81,60,40
138.45,138.6,79,53,40
138.6,138.75,83,63,40
138.75,138.9,81,52,40
138.9,139.05,79,56,40
139.05,139.2,78,53,40
139.2,139.35,76,54,40
139.35,139.5,74,54,40
139.5,139.65,78,62,40
139.65,139.8,76,56,40
139.8,139.95,74,54,40
139.95,140.1,72,52,40
140.1,140.22,71,60,40
140.25,140.37,69,60,40
140.4,145.14,67,69,40
145.2,146.4,66,70,40
146.4,147.6,67,78,40
147.6,148.5,69,80,40
148.5,148.65,71,81,40
148.65,148.77,72,80,40
148.8,149.1,76,80,40
149.1,149.7,74,80,40
149.7,149.82,72,80,40
149.85,149.97,71,80,40
150.0,150.3,74,80,40
150.3,150.9,72,80,40
150.9,151.05,71,80,40
151.05,151.17,69,80,40
151.2,151.62,67,80,40
151.8,152.225,69,81,40
152.25,152.325,71,82,40
152.325,152.4,72,80,40
152.4,152.88,71,80,40
159.3,159.45,81,88,40
154.8,159.6,79,66,40
159.45,159.6,83,89,40
159.6,160.8,84,90,40
160.8,162.0,83,100,40
162.0,162.3,81,62,40
162.3,162.6,88,83,40
162.6,162.9,84,47,40
162.9,163.2,81,50,40
163.2,163.5,79,53,40
163.5,163.8,86,60,40
163.8,164.1,83,48,40
164.1,164.4,79,48,40
164.4,164.7,78,48,40
164.7,165.0,84,61,40
165.0,165.3,81,48,40
165.3,165.6,78,47,40
165.6,166.2,79,99,40
166.2,166.625,91,127,40
166.645,166.72,90,91,40
166.72,166.795,88,94,40
166.8,168.0,86,91,40
168.0,168.16,86,104,40
168.2,168.36,84,104,40
168.4,168.56,83,104,40
168.6,168.76,81,104,40
168.8,168.96,79,104,40
169.0,169.16,81,104,40
169.2,171.0,83,111,40
171.0,171.395,67,74,40
171.395,171.495,66,95,40
171.495,171.6,64,98,40
171.6,173.365,62,94,40
174.0,174.565,79,68,40
176.25,176.395,67,51,40
176.4,176.965,68,39,40
177.6,178.165,80,68,40
179.85,179.995,68,52,40
180.0,180.565,67,38,40
181.2,181.765,79,66,40
186.0,186.3,67,49,40
186.3,186.4,69,51,40
186.395,186.495,67,51,40
186.495,186.595,66,52,40
186.6,186.9,67,52,40
186.9,187.2,72,54,40
187.2,188.4,72,55,40
189.6,189.9,72,66,40
189.9,190.0,74,67,40
189.995,190.095,72,67,40
190.095,190.195,71,68,40
190.2,190.5,72,68,40
190.5,190.8,76,70,40
190.8,192.0,76,71,40
193.2,193.5,76,82,40
193.5,193.6,77,83,40
193.595,193.695,76,84,40
193.695,193.795,74,84,40
193.8,194.1,76,85,40
194.1,194.4,79,86,40
194.4,195.6,79,87,40
196.8,197.1,77,71,40
197.1,197.4,76,68,40
197.4,197.7,74,90,40
197.7,198.0,72,94,40
198.0,198.6,76,91,40
198.6,198.695,76,76,40
198.695,198.795,74,68,40
198.795,198.9,76,79,40
198.9,198.995,74,59,40
198.995,199.095,72,72,40
199.095,199.2,74,59,40
199.2,199.62,72,47,40
199.8,200.4,71,31,40
200.4,201.0,69,45,40
201.0,201.6,67,41,40
201.6,202.5,67,55,40
202.5,202.645,71,59,40
202.65,202.77,69,56,40
202.8,203.22,67,68,40
203.4,204.0,64,60,40
204.0,204.6,64,60,40
204.6,205.2,64,60,40
205.2,206.1,64,60,40
206.1,206.25,67,60,40
206.25,206.4,65,60,40
206.4,206.88,64,60,40
214.2,214.8,74,56,40
214.8,215.4,74,56,40
215.4,216.0,74,56,40
216.0,216.6,74,75,40
216.6,217.17,67,61,40
217.2,218.325,67,73,40
221.4,222.0,72,69,40
222.0,222.6,72,73,40
222.6,223.2,72,74,40
223.2,223.8,72,73,40
223.8,224.37,65,62,40
224.4,225.525,65,76,40
228.6,229.2,68,59,40
229.2,229.8,68,61,40
229.8,230.4,68,61,40
230.4,231.0,68,79,40
231.0,231.48,78,66,40
231.6,232.2,78,74,40
232.2,232.8,68,74,40
232.8,233.4,68,76,40
233.4,234.0,68,77,40
234.0,234.6,68,86,40
234.6,235.08,77,71,40
235.2,235.8,77,79,40
235.8,236.4,68,80,40
236.4,237.0,68,82,40
237.0,237.6,68,83,40
237.6,238.2,69,92,40
238.2,238.68,78,77,40
238.8,239.4,78,85,40
239.4,240.0,69,86,40
240.0,240.6,69,88,40
240.6,241.2,69,89,40
241.2,241.8,69,100,40
241.8,242.28,78,82,40
242.4,243.0,78,91,40
243.0,243.6,69,92,40
243.6,244.2,69,94,40
244.2,244.8,69,95,40
244.8,245.4,70,104,40
245.4,245.88,78,86,40
246.0,246.6,78,97,40
246.6,247.2,70,98,40
247.2,247.8,70,100,40
247.8,248.4,70,100,40
248.4,249.0,72,115,40
249.0,249.48,78,110,40
249.6,250.2,78,91,40
250.2,250.8,75,101,40
250.8,251.4,74,109,40
251.4,252.0,72,118,40
252.0,253.8,71,107,40
253.8,254.28,79,81,40
254.4,254.88,79,73,40
255.0,255.48,79,68,40
255.6,256.8,79,122,40
256.8,257.4,75,98,40
257.4,257.88,79,76,40
258.0,258.48,79,69,40
258.6,259.08,79,68,40
259.2,260.4,79,113,40
260.4,261.0,67,83,40
261.0,261.48,79,88,40
261.6,262.08,79,72,40
262.2,262.68,79,71,40
262.8,264.0,79,113,40
264.0,264.6,75,94,40
264.6,265.08,79,79,40
265.2,265.68,79,63,40
265.8,266.28,79,67,40
266.4,266.44,67,80,40
266.45,266.49,69,80,40
266.5,266.54,67,80,40
266.55,266.67,67,80,40
266.7,266.82,69,80,40
266.85,266.97,71,80,40
267.0,267.12,72,80,40
267.15,267.27,74,80,40
267.3,267.42,76,80,40
267.45,267.57,78,80,40
267.6,267.84,79,80,40
267.9,268.02,81,80,40
268.05,268.17,83,80,40
268.2,268.32,84,80,40
268.35,268.47,86,80,40
268.5,268.62,88,80,40
268.65,268.77,90,80,40
268.8,268.92,91,80,40
268.95,269.07,90,80,40
269.1,269.22,88,80,40
269.25,269.37,86,80,40
269.4,269.52,84,80,40
269.55,269.67,83,80,40
269.7,269.82,81,80,40
270.0,270.15,83,80,40
270.15,270.3,81,72,40
270.3,270.45,80,75,40
270.45,270.6,81,79,40
270.6,270.75,80,71,40
270.75,270.9,81,76,40
270.9,271.05,80,74,40
271.05,271.2,81,79,40
271.2,271.35,81,78,40
271.35,271.5,85,82,40
271.5,271.65,86,78,40
271.65,271.8,85,66,40
271.8,271.95,86,81,40
271.95,272.1,88,83,40
272.1,272.25,89,81,40
272.25,272.4,88,71,40
272.4,272.55,89,81,40
272.55,272.7,88,72,40
272.7,272.85,86,72,40
272.85,273.0,88,82,40
273.0,273.15,86,75,40
273.15,273.3,84,67,40
273.3,273.42,83,80,40
273.45,273.57,81,80,40
273.6,273.75,81,80,40
273.75,273.9,79,73,40
273.9,274.05,78,69,40
274.05,274.2,79,77,40
274.2,274.35,78,69,40
274.35,274.5,79,84,40
274.5,274.65,81,77,40
274.65,274.8,79,70,40
274.8,274.95,79,71,40
274.95,275.1,83,81,40
275.1,275.25,84,79,40
275.25,275.4,83,70,40
275.4,275.55,84,81,40
275.55,275.7,87,84,40
275.7,275.85,88,81,40
275.85,276.0,87,74,40
276.0,276.15,88,78,40
276.15,276.3,86,68,40
276.3,276.45,84,71,40
276.45,276.6,86,81,40
276.6,276.75,84,69,40
276.75,276.9,83,73,40
276.9,277.02,81,80,40
277.05,277.17,79,80,40
277.2,277.35,79,76,40
277.35,277.5,77,72,40
277.5,277.65,76,74,40
277.65,277.8,77,79,40
277.8,277.95,76,75,40
277.95,278.1,77,80,40
278.1,278.25,76,72,40
278.25,278.4,77,80,40
278.4,278.55,77,80,40
278.55,278.7,83,90,40
278.7,278.85,86,84,40
278.85,279.0,84,76,40
279.0,279.15,83,69,40
279.15,279.3,86,82,40
279.3,279.45,89,81,40
279.45,279.6,88,74,40
279.6,279.75,86,73,40
279.75,279.9,84,69,40
279.9,280.05,83,74,40
280.05,280.2,84,80,40
280.2,280.35,83,73,40
280.35,280.5,81,75,40
280.5,280.62,79,80,40
280.65,280.77,78,80,40
280.8,281.1,77,79,40
281.1,281.4,76,71,40
281.4,284.28,76,76,40
284.4,288.0,75,77,40
288.0,288.24,74,64,40
288.3,288.38,75,64,40
288.4,288.48,74,64,40
288.5,288.58,72,64,40
288.6,289.025,74,64,40
289.05,289.195,75,64,40
289.2,290.04,77,64,40
290.4,290.965,71,48,40
291.6,292.8,72,40,40
300.6,301.08,79,65,40
301.2,301.68,79,78,40
301.8,302.28,79,72,40
302.4,302.595,79,60,40
302.595,302.795,78,61,40
302.795,303.0,74,62,40
303.0,303.195,79,63,40
303.195,303.395,78,64,40
303.395,303.6,74,66,40
303.6,303.795,79,67,40
303.795,303.995,77,68,40
303.995,304.2,74,69,40
304.2,304.395,79,70,40
304.395,304.595,77,71,40
304.595,304.8,74,72,40
304.8,304.995,75,73,40
304.995,305.195,79,74,40
305.195,305.4,77,76,40
305.4,305.59,75,77,40
305.595,305.785,74,78,40
305.795,305.955,72,79,40
306.0,306.18,67,80,40
306.195,306.375,66,81,40
306.395,306.575,62,82,40
306.6,306.78,67,83,40
306.8,306.98,66,84,40
307.0,307.18,62,86,40
307.2,307.38,67,87,40
307.395,307.575,65,88,40
307.595,307.775,62,89,40
307.8,307.98,67,90,40
308.0,308.18,65,91,40
308.2,308.38,62,92,40
308.4,308.58,63,93,40
308.6,308.78,67,94,40
308.8,308.98,65,96,40
309.0,309.18,63,97,40
309.2,309.38,62,98,40
309.4,309.58,60,99,40
309.6,309.675,67,82,40
309.675,309.75,66,73,40
309.755,309.83,67,77,40
309.83,309.905,66,88,40
309.9,309.975,67,82,40
309.975,310.05,66,56,40
310.055,310.13,67,59,40
310.13,310.205,66,68,40
310.2,310.275,67,63,40
310.275,310.35,66,56,40
310.355,310.43,64,59,40
310.43,310.49,66,62,40
310.505,310.745,67,80,40
310.805,311.765,55,80,40
312.005,312.725,55,80,40
312.905,313.145,55,80,40
313.2,313.8,55,83,40
313.8,314.76,60,86,40
315.0,315.6,60,77,40
315.6,316.2,64,90,40
316.2,316.8,60,70,40
316.8,318.0,59,75,40
318.0,319.2,57,76,40
319.2,320.1,57,80,40
320.1,320.4,57,73,40
320.4,321.3,57,77,40
321.3,321.42,59,80,40
321.45,321.57,60,80,40
321.6,321.72,64,80,40
321.75,321.87,62,80,40
321.9,322.02,65,80,40
322.05,322.17,64,80,40
322.2,322.32,67,80,40
322.35,322.47,65,80,40
322.5,322.62,69,80,40
322.65,322.77,67,80,40
322.8,322.92,70,80,40
322.95,323.07,69,80,40
323.1,323.22,67,80,40
323.25,323.37,65,80,40
323.4,323.52,64,80,40
323.55,323.67,62,80,40
323.7,323.82,65,80,40
323.85,323.97,62,80,40
324.0,324.9,60,72,40
324.9,325.05,62,57,40
325.05,325.2,60,53,40
325.2,326.4,59,72,40
326.4,327.3,67,90,40
327.3,327.51,67,74,40
327.6,327.9,67,76,40
327.9,328.185,72,62,40
328.5,328.71,67,71,40
328.8,329.1,67,75,40
329.1,329.385,74,65,40
329.7,329.91,67,67,40
330.0,330.3,67,79,40
330.3,330.585,76,68,40
330.9,331.11,67,61,40
331.5,331.8,67,66,40
331.8,332.1,79,96,40
332.1,332.4,77,72,40
332.4,332.7,74,67,40
332.7,333.0,71,68,40
333.0,333.3,67,66,40
333.3,333.6,65,72,40
333.6,333.9,62,66,40
333.9,334.2,59,75,40
334.2,334.5,55,72,40
334.5,334.71,79,96,40
334.8,335.195,79,96,40
335.1,335.385,84,63,40
335.7,335.91,79,81,40
336.0,336.3,79,81,40
336.3,336.585,86,66,40
336.9,337.11,79,64,40
337.2,337.5,79,64,40
337.5,337.785,88,68,40
338.1,338.31,79,63,40
338.4,338.7,79,63,40
338.7,338.85,89,98,40
338.85,339.0,88,76,40
339.0,339.15,91,84,40
339.15,339.3,89,74,40
339.3,339.45,88,73,40
339.45,339.6,86,71,40
339.6,339.75,84,71,40
339.75,339.9,83,72,40
339.9,340.05,86,81,40
340.05,340.2,84,70,40
340.2,340.35,88,82,40
340.35,340.5,86,73,40
340.5,340.65,84,67,40
340.65,340.8,83,70,40
340.8,340.95,81,73,40
340.95,341.1,79,73,40
341.1,341.25,83,81,40
341.25,341.4,81,74,40
341.4,341.55,79,69,40
341.55,341.7,77,72,40
341.7,341.845,76,72,40
341.85,341.97,74,80,40
342.0,346.8,72,71,40
346.8,346.895,71,71,40
346.895,346.995,72,77,40
346.995,347.1,71,75,40
347.1,347.195,72,76,40
347.195,347.295,71,72,40
347.295,347.4,72,80,40
347.4,347.495,71,72,40
347.495,347.595,72,80,40
347.595,347.7,71,71,40
347.7,347.85,69,74,40
347.85,348.0,71,75,40
348.0,349.2,72,80,40
349.2,349.5,73,66,40
349.5,350.1,74,64,40
350.1,350.25,76,66,40
350.25,350.4,77,62,40
350.4,350.7,81,69,40
350.7,351.3,79,58,40
351.3,351.45,77,58,40
351.45,351.6,76,55,40
351.6,351.9,76,62,40
351.9,352.5,74,58,40
352.5,352.645,72,52,40
352.65,352.77,71,64,40
352.8,353.4,72,56,40
353.4,353.825,74,60,40
353.845,353.92,76,61,40
353.92,353.995,77,56,40
354.0,354.6,76,50,40
354.6,355.05,77,55,40
355.05,355.125,79,55,40
355.125,355.185,81,56,40
355.2,356.4,79,53,40
359.4,359.85,60,74,40
360.0,360.9,65,88,40
360.9,360.995,67,85,40
360.995,361.095,69,85,40
361.095,361.2,70,81,40
361.2,362.1,72,97,40
362.1,362.25,74,93,40
362.25,362.4,76,92,40
362.4,363.3,77,104,40
363.3,363.38,79,104,40
363.4,363.48,81,104,40
363.5,363.58,83,86,40
363.6,363.9,84,85,40
363.9,364.2,84,54,40
364.2,364.5,81,47,40
364.5,364.8,77,42,40
364.8,365.1,76,51,40
365.1,365.4,81,58,40
365.4,365.7,79,51,40
365.7,366.0,76,47,40
366.0,366.3,74,47,40
366.3,366.6,79,58,40
366.6,366.9,77,51,40
366.9,367.2,74,51,40
367.2,367.8,72,86,40
367.8,368.195,84,112,40
368.195,368.295,83,88,40
368.295,368.4,81,90,40
368.4,369.76,79,83,40
369.795,369.995,77,83,40
369.995,370.2,76,80,40
370.2,370.295,76,89,40
370.3,370.395,74,84,40
370.4,370.59,72,96,40
370.6,370.79,74,96,40
370.8,372.0,72,72,40
373.8,374.25,79,69,40
374.4,375.525,84,83,40
376.8,376.895,84,80,40
376.9,376.995,83,80,40
377.0,377.095,84,80,40
377.1,377.195,83,80,40
377.2,377.295,84,80,40
377.3,377.395,83,80,40
377.4,377.495,84,80,40
377.5,377.595,83,80,40
377.6,377.695,84,80,40
377.7,377.795,83,80,40
377.8,377.895,81,80,40
377.9,377.995,83,80,40
378.0,379.2,84,80,40
380.56363,380.82022,77,69,40
380.82022,381.08337,74,70,40
381.08337,381.35312,71,64,40
381.35312,381.60312,67,47,40
381.60968,381.85968,69,55,40
381.87283,381.97153,65,55,40
382.14258,384.01758,55,80,40
382.14258,384.01758,65,80,40
384.01758,385.1287,64,58,40
384.01758,385.1287,55,58,40
386.2398,386.2648,55,58,40
4.2,5.4,64,35,40
4.2,5.4,55,35,40
5.4,6.6,55,38,40
5.4,6.6,64,38,40
6.6,7.2,55,41,40
6.6,7.2,64,41,40
7.8,9.0,64,44,40
7.8,9.0,55,44,40
9.0,10.2,55,47,40
9.0,10.2,64,47,40
10.2,10.8,55,51,40
10.2,10.8,64,51,40
11.4,12.6,55,75,40
11.4,12.6,64,75,40
12.6,13.8,64,75,40
12.6,13.8,55,75,40
13.8,14.4,67,75,40
14.4,15.6,71,51,40
15.6,16.02,72,91,40
16.2,16.8,67,41,40
16.8,17.4,65,58,40
17.4,18.0,64,58,40
18.0,18.9,64,53,40
18.9,19.045,67,59,40
19.05,19.17,65,56,40
19.2,19.62,64,69,40
19.8,20.4,60,60,40
20.4,21.0,60,60,40
21.0,21.6,60,60,40
21.6,22.5,60,60,40
22.5,22.65,64,60,40
22.65,22.8,62,60,40
22.8,23.22,60,60,40
23.4,24.0,60,40,40
24.0,24.6,60,45,40
24.6,25.2,60,45,40
25.2,26.1,60,45,40
26.1,26.25,64,45,40
26.25,26.4,62,45,40
26.4,26.88,60,45,40
28.8,30.6,57,63,40
30.6,31.2,59,78,40
31.2,33.6,60,80,40
33.6,34.5,59,72,40
34.5,34.8,57,73,40
34.8,35.7,55,74,40
35.7,36.0,57,74,40
36.0,37.2,58,79,40
37.2,37.8,57,77,40
37.8,38.4,77,49,40
38.4,39.0,77,55,40
39.0,39.6,77,60,40
39.6,39.9,79,65,40
39.9,40.2,77,67,40
40.2,40.5,76,70,40
40.5,40.8,74,72,40
40.8,41.1,72,75,40
41.1,41.4,71,77,40
41.4,41.7,69,80,40
41.7,42.0,67,83,40
42.0,42.3,69,85,40
42.3,42.6,72,88,40
42.6,42.9,71,90,40
42.9,43.2,74,93,40
43.2,43.8,69,100,40
43.8,44.365,67,100,40
45.0,45.6,60,100,40
45.6,46.2,64,100,40
46.2,46.8,72,100,40
46.8,47.28,72,64,40
48.0,48.48,72,52,40
49.2,49.68,71,50,40
50.4,50.88,72,80,40
53.0,53.19,64,80,40
53.2,53.39,65,80,40
53.4,53.59,67,80,40
53.6,53.79,69,80,40
53.8,53.99,71,80,40
54.0,57.6,72,79,40
57.6,61.2,74,84,40
61.2,62.4,72,72,40
62.4,62.85,72,75,40
62.85,63.0,71,75,40
63.0,63.45,69,71,40
63.45,63.6,67,70,40
63.6,64.2,66,72,40
64.2,64.8,69,85,40
64.8,66.6,69,74,40
66.6,67.02,59,67,40
67.2,67.62,62,77,40
67.8,68.22,65,83,40
68.4,68.88,55,89,40
68.4,68.88,64,89,40
70.8,71.28,67,80,40
72.0,72.48,67,95,40
74.4,74.965,67,79,40
75.6,76.165,66,93,40
76.8,77.365,72,108,40
78.0,78.565,66,90,40
78.0,78.565,69,90,40
79.8,80.4,62,60,40
80.4,81.0,67,71,40
81.0,81.6,67,62,40
81.6,82.2,67,60,40
82.2,82.8,67,58,40
83.4,84.0,63,41,40
84.0,84.6,67,51,40
84.6,85.2,67,49,40
85.2,85.8,67,45,40
85.8,86.4,67,46,40
86.4,86.965,63,63,40
88.8,89.365,60,52,40
90.0,91.125,58,53,40
91.8,92.4,74,44,40
92.4,93.0,74,47,40
93.0,93.6,74,44,40
93.6,93.795,74,43,40
93.795,93.995,73,44,40
93.995,94.2,69,41,40
94.2,94.395,74,50,40
94.395,94.595,73,43,40
94.595,94.8,69,40,40
94.8,94.995,74,51,40
94.995,95.195,72,43,40
95.195,95.4,69,42,40
95.4,95.59,74,50,40
95.6,95.79,72,42,40
95.8,95.99,69,48,40
96.0,96.195,70,41,40
96.195,96.395,74,48,40
96.395,96.6,72,42,40
96.6,96.79,70,41,40
96.795,96.985,69,40,40
96.995,97.185,67,48,40
97.2,97.8,66,43,40
97.8,99.0,69,46,40
99.0,99.6,66,41,40
99.6,100.5,67,48,40
100.5,100.65,69,47,40
100.8,101.4,69,50,40
101.4,102.6,66,55,40
102.6,103.8,62,65,40
103.8,104.4,74,74,40
104.4,104.595,74,79,40
104.595,104.795,73,81,40
104.795,105.0,69,82,40
105.0,105.19,74,84,40
105.2,105.39,73,86,40
105.4,105.595,69,87,40
105.595,105.795,74,89,40
105.795,106.0,72,90,40
106.0,106.195,69,92,40
106.195,106.395,74,94,40
106.395,106.6,72,95,40
106.6,106.795,69,97,40
106.795,106.995,70,98,40
106.995,107.2,74,100,40
107.2,107.395,72,102,40
107.4,107.56,70,103,40
107.6,107.76,69,105,40
107.8,107.96,67,106,40
108.0,108.075,74,82,40
108.075,108.15,73,73,40
108.155,108.23,74,77,40
108.23,108.305,73,88,40
108.3,108.375,74,82,40
108.375,108.45,73,73,40
108.455,108.53,74,77,40
108.53,108.605,73,62,40
108.6,108.675,74,57,40
108.675,108.75,73,51,40
108.755,108.83,71,54,40
108.83,108.89,73,56,40
108.905,109.145,74,80,40
109.205,110.165,62,80,40
112.2,113.4,62,35,40
113.4,114.6,62,54,40
114.6,115.2,62,54,40
115.8,117.0,60,48,40
117.0,118.2,60,51,40
118.2,118.8,60,49,40
119.4,120.6,60,54,40
120.6,121.8,64,60,40
121.8,122.4,64,55,40
123.0,124.2,62,48,40
124.2,124.8,62,47,40
124.8,125.4,66,62,40
125.4,126.0,69,77,40
126.6,127.165,71,83,40
127.8,128.365,72,79,40
129.0,129.6,71,74,40
129.6,133.2,62,93,40
129.6,133.2,72,93,40
133.8,134.28,74,41,40
134.4,134.88,72,35,40
135.0,135.48,72,36,40
135.6,136.08,71,31,40
136.2,136.68,71,36,40
136.8,137.085,69,50,40
140.4,140.88,65,47,40
141.0,141.48,65,53,40
141.6,142.08,63,54,40
142.2,142.68,63,49,40
142.8,143.28,62,50,40
143.4,143.88,62,51,40
144.0,144.48,61,49,40
144.6,145.08,61,50,40
145.2,145.68,60,48,40
145.8,146.28,60,53,40
146.4,146.88,59,49,40
147.0,147.48,59,53,40
148.2,148.765,67,45,40
149.4,149.965,67,34,40
150.6,151.2,62,33,40
151.2,151.62,62,73,40
151.8,152.225,66,85,40
152.25,152.325,67,80,40
152.325,152.4,69,80,40
152.4,152.82,67,80,40
153.0,153.36,72,80,40
153.45,153.51,74,80,40
153.525,153.585,76,80,40
153.6,154.08,74,80,40
156.6,156.96,60,66,40
157.05,157.11,62,69,40
157.125,157.185,64,70,40
157.2,158.16,65,70,40
158.4,159.6,64,80,40
159.6,160.2,62,90,40
160.2,160.56,74,95,40
160.65,160.71,76,99,40
160.725,160.785,78,100,40
160.8,161.76,79,100,40
162.0,162.48,76,49,40
163.2,163.68,74,49,40
164.4,164.88,72,49,40
165.6,167.4,71,96,40
167.4,167.85,79,118,40
167.85,167.925,78,95,40
167.925,167.985,76,104,40
168.0,169.8,74,92,40
169.8,170.225,79,113,40
170.245,170.32,78,95,40
170.32,170.395,76,88,40
170.4,171.6,74,88,40
171.795,171.985,72,88,40
171.995,172.185,71,92,40
172.2,172.295,71,99,40
172.3,172.395,69,96,40
172.4,172.59,67,95,40
172.6,172.79,66,104,40
172.8,173.365,67,95,40
174.0,174.565,71,61,40
176.25,176.395,62,52,40
176.4,176.965,62,41,40
177.6,178.165,74,68,40
179.85,179.995,62,53,40
180.0,180.565,63,39,40
181.2,181.765,72,62,40
183.45,183.595,67,45,40
183.6,184.165,65,54,40
184.8,185.365,77,69,40
187.8,189.0,55,35,40
187.8,189.0,64,35,40
189.0,190.2,55,38,40
189.0,190.2,64,38,40
190.2,190.8,55,41,40
190.2,190.8,64,41,40
191.4,192.6,55,44,40
191.4,192.6,64,44,40
192.6,193.8,55,47,40
192.6,193.8,64,47,40
193.8,194.4,55,51,40
193.8,194.4,64,51,40
195.0,196.2,64,75,40
195.0,196.2,55,75,40
196.2,197.4,55,75,40
196.2,197.4,64,75,40
197.4,198.0,67,75,40
198.0,199.2,71,51,40
199.2,199.62,72,91,40
199.8,200.4,67,35,40
200.4,201.0,65,49,40
201.0,201.6,64,49,40
201.6,202.5,64,53,40
202.5,202.645,67,59,40
202.65,202.77,65,56,40
202.8,203.22,64,69,40
203.4,204.0,60,60,40
204.0,204.6,60,60,40
204.6,205.2,60,60,40
205.2,206.1,60,60,40
206.1,206.25,64,60,40
206.25,206.4,62,60,40
206.4,206.82,60,60,40
207.0,207.6,60,40,40
207.6,208.2,60,45,40
208.2,208.8,60,45,40
208.8,209.7,60,45,40
209.7,209.85,64,45,40
209.85,210.0,62,45,40
210.0,210.48,60,45,40
214.2,214.8,60,56,40
214.8,215.4,60,56,40
215.4,216.0,60,56,40
216.0,216.6,60,78,40
216.6,217.17,59,75,40
217.2,218.325,58,75,40
221.4,222.0,58,69,40
222.0,222.6,58,78,40
222.6,223.2,58,78,40
223.2,223.8,58,76,40
223.8,224.37,57,75,40
224.4,225.525,56,73,40
226.8,230.4,65,33,40
230.4,234.0,66,48,40
234.0,237.6,65,52,40
237.6,248.4,66,55,40
248.4,252.0,66,72,40
252.0,253.8,67,68,40
253.8,254.28,59,58,40
254.4,254.88,62,62,40
255.0,255.48,65,66,40
255.6,256.8,63,91,40
256.8,257.4,67,108,40
257.4,257.88,72,67,40
258.0,258.48,60,46,40
258.6,259.08,63,63,40
259.2,261.0,62,99,40
261.0,261.48,59,58,40
261.6,262.08,62,65,40
262.2,262.68,65,63,40
262.8,264.0,63,98,40
264.0,264.6,67,112,40
264.6,265.08,72,71,40
265.2,265.68,60,46,40
265.8,266.28,63,59,40
266.4,268.2,62,71,40
268.2,268.68,79,116,40
268.8,269.28,79,95,40
269.4,269.88,79,88,40
270.0,270.6,79,94,40
270.6,271.2,69,72,40
271.2,271.8,69,88,40
271.8,272.28,77,110,40
272.4,272.88,77,96,40
273.0,273.48,77,82,40
273.6,274.2,77,85,40
274.2,274.8,67,70,40
274.8,275.4,67,86,40
275.4,275.88,76,116,40
276.0,276.48,76,94,40
276.6,277.08,76,89,40
277.2,277.8,76,94,40
277.8,278.4,65,71,40
278.4,279.0,65,88,40
279.0,279.6,74,113,40
279.6,280.2,77,97,40
280.2,280.8,74,84,40
281.4,282.0,67,26,40
282.0,282.42,72,32,40
282.6,283.08,72,35,40
283.2,283.68,72,35,40
283.8,284.28,72,32,40
285.0,285.6,68,40,40
285.6,286.02,72,44,40
286.2,286.68,72,46,40
286.8,287.28,72,47,40
287.4,287.88,72,44,40
288.0,288.565,68,32,40
290.4,290.965,65,40,40
291.6,292.8,63,35,40
293.4,293.88,67,72,40
294.0,294.48,67,84,40
294.6,295.08,67,81,40
295.2,295.395,67,78,40
295.395,295.595,66,75,40
295.595,295.8,62,67,40
295.8,295.995,67,83,40
295.995,296.195,66,75,40
296.195,296.4,62,67,40
296.4,296.595,67,82,40
296.595,296.795,65,76,40
296.795,297.0,62,68,40
297.0,297.19,67,85,40
297.2,297.39,65,77,40
297.4,297.595,62,66,40
297.595,297.795,63,80,40
297.795,298.0,67,73,40
298.0,298.19,65,67,40
298.195,298.385,63,67,40
298.395,298.555,62,80,40
298.595,298.755,60,80,40
298.8,299.4,59,72,40
299.4,300.6,62,80,40
300.6,301.2,59,77,40
301.2,302.1,60,75,40
302.1,302.245,62,81,40
302.25,302.37,63,80,40
302.4,304.8,59,60,40
302.4,304.8,62,60,40
304.8,306.0,63,73,40
304.8,306.0,60,73,40
306.0,306.18,67,80,40
306.195,306.375,66,81,40
306.395,306.575,62,82,40
306.6,306.78,67,83,40
306.8,306.98,66,84,40
307.0,307.18,62,86,40
307.2,307.38,67,87,40
307.395,307.575,65,88,40
307.595,307.775,62,89,40
307.8,307.98,67,90,40
308.0,308.18,65,91,40
308.2,308.38,62,92,40
308.4,308.58,63,93,40
308.6,308.78,67,94,40
308.8,308.98,65,96,40
309.0,309.18,63,97,40
309.2,309.38,62,98,40
309.4,309.58,60,99,40
309.6,309.675,67,82,40
309.675,309.75,66,73,40
309.755,309.83,67,77,40
309.83,309.905,66,88,40
309.9,309.975,67,82,40
309.975,310.05,66,56,40
310.055,310.13,67,59,40
310.13,310.205,66,68,40
310.2,310.275,67,63,40
310.275,310.35,66,56,40
310.355,310.43,64,59,40
310.43,310.49,66,62,40
310.505,310.745,67,80,40
310.805,311.765,55,80,40
313.8,315.0,55,50,40
315.0,316.2,55,56,40
316.2,316.8,55,54,40
317.4,318.6,60,48,40
318.6,319.8,60,53,40
319.8,320.4,61,77,40
321.0,322.2,62,56,40
322.2,323.4,57,48,40
323.4,324.0,57,54,40
324.6,325.8,55,74,40
325.8,327.0,59,82,40
327.0,327.6,62,79,40
328.2,328.765,64,57,40
329.4,329.965,65,57,40
330.6,331.2,64,51,40
331.2,334.8,55,56,40
331.2,334.8,65,56,40
335.4,336.0,79,67,40
336.0,336.285,77,55,40
336.6,337.2,77,50,40
337.2,337.485,76,55,40
337.8,338.4,76,54,40
338.4,338.685,74,51,40
342.0,342.6,70,48,40
342.6,343.2,70,53,40
343.2,343.8,68,52,40
343.8,344.4,68,55,40
344.4,345.0,67,50,40
345.0,345.6,67,54,40
345.6,346.2,66,53,40
346.2,346.8,66,55,40
346.8,347.4,65,51,40
347.4,348.0,65,54,40
348.0,348.6,64,50,40
348.6,349.2,64,54,40
349.8,350.365,69,47,40
351.0,351.565,64,37,40
352.2,352.8,65,42,40
352.8,353.4,64,50,40
353.4,353.825,71,62,40
353.845,353.92,72,53,40
353.92,353.995,74,57,40
354.0,354.6,72,52,40
354.6,355.05,74,53,40
355.05,355.125,76,55,40
355.125,355.185,77,56,40
355.2,356.4,76,55,40
358.2,358.595,55,101,40
358.595,358.695,57,108,40
358.695,358.8,59,114,40
358.8,360.6,60,98,40
360.6,361.2,65,80,40
361.2,361.8,64,77,40
361.8,362.4,70,97,40
362.4,362.965,69,88,40
363.6,364.165,74,61,40
364.8,365.365,72,40,40
366.0,366.565,71,38,40
367.2,367.765,72,66,40
369.0,369.285,72,90,40
369.3,369.42,71,96,40
369.45,369.6,69,90,40
369.6,371.4,67,82,40
371.4,371.795,72,82,40
371.795,371.895,71,71,40
371.895,372.0,69,69,40
372.0,373.2,67,67,40
373.395,373.595,65,69,40
373.595,373.8,64,67,40
373.8,373.895,64,74,40
373.9,373.995,62,70,40
374.0,374.19,60,80,40
374.2,374.39,62,80,40
374.4,374.595,60,73,40
374.595,374.795,64,87,40
374.795,375.0,65,78,40
375.0,375.195,67,83,40
375.195,375.395,69,80,40
375.395,375.595,71,83,40
375.6,375.8,72,85,40
375.795,375.995,76,84,40
375.995,376.195,74,75,40
376.195,376.395,72,74,40
376.4,376.6,71,78,40
376.595,376.795,72,76,40
376.8,377.0,71,72,40
376.995,377.195,74,84,40
377.195,377.395,77,87,40
377.4,377.6,81,86,40
377.595,377.795,79,78,40
377.795,377.995,77,80,40
378.0,378.195,76,71,40
378.2,378.4,79,87,40
378.4,378.605,77,68,40
378.6,378.795,76,71,40
378.8,379.0,76,77,40
379.0,379.2057,74,72,40
379.2,379.4216,72,70,40
379.42728,379.65454,71,71,40
379.65454,379.8875,69,73,40
379.8818,380.10342,67,74,40
380.1091,380.33636,65,70,40
380.33636,380.57022,64,71,40
380.56363,382.14258,62,66,40
382.14258,384.01758,62,80,40
384.01758,385.1287,60,38,40
4.2,5.4,60,35,41
5.4,6.6,60,38,41
6.6,7.2,60,41,41
7.8,9.0,60,44,41
9.0,10.2,60,47,41
10.2,10.8,60,51,41
11.4,12.6,60,75,41
12.6,13.8,60,75,41
13.8,14.4,64,75,41
14.4,15.0,67,50,41
15.0,15.6,65,52,41
15.6,16.08,64,70,41
18.0,19.8,60,48,41
19.8,20.4,55,60,41
20.4,21.0,55,60,41
21.0,21.6,55,60,41
21.6,22.5,55,60,41
22.5,22.8,59,60,41
22.8,23.22,60,60,41
23.4,24.0,55,40,41
23.4,24.0,52,40,41
24.0,24.6,52,45,41
24.0,24.6,55,45,41
24.6,25.2,55,45,41
24.6,25.2,52,45,41
25.2,26.1,52,45,41
25.2,26.1,55,45,41
26.1,26.4,53,45,41
26.4,26.88,52,45,41
28.8,31.8,50,68,41
31.8,32.4,52,78,41
32.4,34.8,53,79,41
34.8,35.7,52,77,41
35.7,36.0,50,69,41
36.0,36.6,48,71,41
36.6,36.9,50,76,41
36.9,37.2,52,81,41
37.2,37.8,53,74,41
37.8,38.4,57,49,41
38.4,39.0,59,55,41
39.0,39.6,60,60,41
39.6,41.4,62,65,41
39.6,41.4,55,65,41
41.4,41.7,60,80,41
41.7,42.0,59,83,41
42.0,42.3,60,85,41
42.3,42.6,57,88,41
42.6,42.9,62,90,41
42.9,43.2,59,93,41
43.2,44.4,60,100,41
44.4,45.6,64,100,41
45.6,46.2,67,100,41
46.2,46.8,64,100,41
46.8,47.28,62,59,41
48.0,48.48,64,54,41
49.2,49.68,65,54,41
50.4,50.88,64,80,41
51.8,51.99,52,80,41
52.0,52.19,53,80,41
52.2,52.39,55,80,41
52.4,52.59,57,80,41
52.6,52.79,59,80,41
52.8,53.28,60,80,41
54.0,55.2,64,108,41
55.2,55.62,67,85,41
55.8,56.22,64,70,41
56.4,56.82,60,66,41
57.0,57.42,64,81,41
57.6,58.8,62,94,41
58.8,59.4,67,84,41
59.4,59.82,71,89,41
60.0,60.42,59,70,41
60.6,61.02,62,76,41
61.2,62.4,64,80,41
62.4,64.8,62,72,41
64.8,66.6,62,74,41
66.6,67.02,55,69,41
67.2,67.62,59,77,41
67.8,68.22,62,80,41
68.4,68.88,60,89,41
70.8,71.28,60,80,41
72.0,72.48,62,100,41
74.4,74.965,62,79,41
75.6,76.165,62,93,41
76.8,77.365,69,113,41
78.0,78.565,60,80,41
78.0,78.565,62,80,41
79.8,80.4,55,70,41
80.4,81.0,62,69,41
81.0,81.6,62,66,41
81.6,82.2,62,60,41
82.2,82.8,62,58,41
83.4,84.0,55,43,41
84.0,84.6,63,54,41
84.6,85.2,63,50,41
85.2,85.8,63,43,41
85.8,86.4,63,47,41
86.4,86.965,60,69,41
88.8,89.365,57,47,41
90.0,91.125,55,55,41
95.4,96.0,62,49,41
96.0,96.6,62,53,41
96.6,97.2,62,53,41
97.2,97.395,62,52,41
97.395,97.595,61,53,41
97.595,97.8,57,49,41
97.8,97.995,62,56,41
97.995,98.195,61,51,41
98.195,98.4,57,49,41
98.4,98.595,62,56,41
98.595,98.795,60,51,41
98.795,99.0,57,51,41
99.0,99.195,62,59,41
99.195,99.395,60,53,41
99.395,99.6,57,48,41
99.6,99.795,58,51,41
99.795,99.995,62,58,41
99.995,100.2,60,53,41
100.2,100.39,58,52,41
100.395,100.585,57,51,41
100.595,100.755,55,55,41
100.8,101.4,54,58,41
101.4,102.6,57,55,41
102.6,103.2,54,65,41
103.2,103.8,55,69,41
103.8,104.4,58,74,41
104.4,104.595,74,79,41
104.595,104.795,73,81,41
104.795,105.0,69,82,41
105.0,105.19,74,84,41
105.2,105.39,73,86,41
105.4,105.595,69,87,41
105.595,105.795,74,89,41
105.795,106.0,72,90,41
106.0,106.195,69,92,41
106.195,106.395,74,94,41
106.395,106.6,72,95,41
106.6,106.795,69,97,41
106.795,106.995,70,98,41
106.995,107.2,74,100,41
107.2,107.395,72,102,41
107.4,107.56,70,103,41
107.6,107.76,69,105,41
107.8,107.96,67,106,41
108.0,108.075,74,82,41
108.075,108.15,73,73,41
108.155,108.23,74,77,41
108.23,108.305,73,88,41
108.3,108.375,74,82,41
108.375,108.45,73,73,41
108.455,108.53,74,77,41
108.53,108.605,73,62,41
108.6,108.675,74,57,41
108.675,108.75,73,51,41
108.755,108.83,71,54,41
108.83,108.89,73,56,41
108.905,109.145,74,80,41
109.205,110.165,62,80,41
112.2,113.4,55,32,41
113.4,114.6,55,52,41
114.6,115.2,55,54,41
115.8,117.0,55,44,41
117.0,118.2,55,50,41
118.2,118.8,55,50,41
119.4,120.6,57,53,41
120.6,121.8,60,56,41
121.8,122.4,60,55,41
123.0,124.2,57,53,41
124.2,124.8,54,47,41
124.8,125.4,57,62,41
125.4,126.0,66,77,41
126.6,127.165,67,79,41
127.8,128.365,66,73,41
129.0,129.6,67,77,41
129.6,133.2,62,93,41
129.6,133.2,69,93,41
133.8,134.28,62,29,41
134.4,134.88,66,38,41
135.0,135.48,66,38,41
135.6,136.08,67,37,41
136.2,136.68,67,37,41
136.8,137.085,62,46,41
140.4,140.88,59,44,41
141.0,141.48,59,55,41
141.6,142.08,60,55,41
142.2,142.68,60,52,41
142.8,143.28,55,47,41
143.4,143.88,55,51,41
144.0,144.48,57,57,41
144.6,145.08,57,52,41
145.2,145.68,57,51,41
145.8,146.28,57,53,41
146.4,146.88,55,50,41
147.0,147.48,55,53,41
148.2,148.765,64,47,41
149.4,149.965,59,32,41
150.6,151.2,60,37,41
151.2,151.62,59,74,41
151.8,152.4,62,83,41
152.4,152.82,62,75,41
153.0,153.425,69,86,41
153.45,153.525,71,85,41
153.525,153.585,72,80,41
153.6,154.08,71,80,41
155.4,155.76,55,56,41
155.85,155.91,57,59,41
155.925,155.985,59,60,41
156.0,156.96,60,61,41
157.2,157.68,59,70,41
157.8,158.16,67,75,41
158.25,158.31,69,79,41
158.325,158.385,71,80,41
158.4,159.6,72,80,41
159.6,160.8,66,90,41
161.4,161.76,71,105,41
161.85,161.91,72,109,41
161.925,161.985,74,110,41
162.0,162.48,72,49,41
163.2,163.68,71,52,41
164.4,164.88,69,52,41
165.6,166.8,67,95,41
166.995,167.185,59,91,41
167.195,167.385,60,105,41
167.4,167.59,62,103,41
167.595,167.795,64,105,41
167.795,168.0,66,113,41
168.0,168.195,67,103,41
168.195,168.395,69,103,41
168.395,168.6,71,109,41
168.6,169.2,72,99,41
169.2,169.395,71,96,41
169.395,169.595,59,86,41
169.595,169.8,60,100,41
169.8,169.995,62,107,41
169.995,170.195,64,104,41
170.195,170.4,66,104,41
170.4,172.2,67,105,41
172.2,172.65,50,87,41
172.8,173.365,55,99,41
174.0,174.565,62,64,41
176.25,176.395,59,53,41
176.4,176.965,59,53,41
177.6,178.165,71,69,41
179.85,179.995,59,53,41
180.0,180.565,60,41,41
181.2,181.765,67,60,41
183.45,183.595,60,50,41
183.6,184.165,60,50,41
184.8,185.365,59,50,41
187.8,189.0,60,35,41
189.0,190.2,60,38,41
190.2,190.8,60,41,41
191.4,192.6,60,44,41
192.6,193.8,60,47,41
193.8,194.4,60,51,41
195.0,196.2,60,75,41
196.2,197.4,60,75,41
197.4,198.0,64,75,41
198.0,198.6,67,50,41
198.6,199.2,65,52,41
199.2,199.68,64,70,41
201.6,203.4,60,48,41
203.4,204.0,55,60,41
204.0,204.6,55,60,41
204.6,205.2,55,60,41
205.2,206.1,55,60,41
206.1,206.4,59,60,41
206.4,206.82,60,60,41
207.0,207.6,52,40,41
207.0,207.6,55,40,41
207.6,208.2,52,45,41
207.6,208.2,55,45,41
208.2,208.8,55,45,41
208.2,208.8,52,45,41
208.8,209.7,55,45,41
208.8,209.7,52,45,41
209.7,210.0,53,45,41
210.0,210.48,52,45,41
214.2,214.8,54,56,41
214.8,215.4,54,56,41
215.4,216.0,54,56,41
216.0,216.6,54,76,41
216.6,217.17,55,78,41
217.2,218.325,55,73,41
221.4,222.0,52,66,41
222.0,222.6,52,75,41
222.6,223.2,52,75,41
223.2,223.8,52,77,41
223.8,224.37,53,76,41
224.4,225.525,53,74,41
226.8,230.4,61,34,41
230.4,234.0,63,48,41
234.0,237.6,61,52,41
237.6,248.4,63,55,41
248.4,250.2,63,72,41
250.2,250.8,60,84,41
250.8,251.4,59,91,41
251.4,252.0,60,98,41
252.0,253.8,62,68,41
253.8,254.28,55,59,41
254.4,254.88,59,66,41
255.0,255.48,62,66,41
255.6,256.8,60,98,41
256.8,257.4,63,103,41
257.4,257.88,63,59,41
258.0,258.48,55,54,41
258.6,259.08,60,66,41
259.2,261.0,59,99,41
261.0,261.48,55,55,41
261.6,262.08,59,62,41
262.2,262.68,62,70,41
262.8,264.0,60,90,41
264.0,264.6,63,107,41
264.6,265.08,63,61,41
265.2,265.68,55,56,41
265.8,266.28,60,70,41
266.4,267.6,59,77,41
268.8,270.0,62,55,41
270.0,271.2,64,62,41
271.2,272.4,65,62,41
272.4,273.6,64,58,41
273.6,274.8,62,57,41
274.8,276.0,64,60,41
276.0,277.2,62,58,41
277.2,278.4,60,53,41
278.4,279.6,62,65,41
279.6,280.8,59,59,41
281.4,282.0,60,49,41
282.0,282.42,67,45,41
282.6,283.08,67,47,41
283.2,283.68,67,45,41
283.8,284.28,67,43,41
285.0,285.6,60,38,41
285.6,286.02,68,43,41
286.2,286.68,68,47,41
286.8,287.28,68,44,41
287.4,287.88,68,47,41
288.0,288.565,65,31,41
290.4,290.965,62,41,41
291.6,292.8,60,34,41
297.0,297.48,55,82,41
297.6,298.08,55,97,41
298.2,298.68,55,89,41
298.8,298.995,55,91,41
298.995,299.195,54,92,41
299.195,299.4,50,86,41
299.4,299.595,55,96,41
299.595,299.795,54,89,41
299.795,300.0,50,88,41
300.0,300.195,55,96,41
300.195,300.395,53,89,41
300.395,300.6,50,85,41
300.6,300.795,55,103,41
300.795,300.995,53,91,41
300.995,301.2,50,94,41
301.2,301.395,51,91,41
301.395,301.595,55,102,41
301.595,301.8,53,86,41
301.8,301.99,51,91,41
302.0,302.19,50,88,41
302.2,302.36,48,96,41
302.4,304.2,55,72,41
304.2,304.68,67,70,41
304.8,305.28,67,80,41
305.4,305.88,67,77,41
306.0,306.18,67,80,41
306.195,306.375,66,81,41
306.395,306.575,62,82,41
306.6,306.78,67,83,41
306.8,306.98,66,84,41
307.0,307.18,62,86,41
307.2,307.38,67,87,41
307.395,307.575,65,88,41
307.595,307.775,62,89,41
307.8,307.98,67,90,41
308.0,308.18,65,91,41
308.2,308.38,62,92,41
308.4,308.58,63,93,41
308.6,308.78,67,94,41
308.8,308.98,65,96,41
309.0,309.18,63,97,41
309.2,309.38,62,98,41
309.4,309.58,60,99,41
309.6,309.675,67,82,41
309.675,309.75,66,73,41
309.755,309.83,67,77,41
309.83,309.905,66,88,41
309.9,309.975,67,82,41
309.975,310.05,66,56,41
310.055,310.13,67,59,41
310.13,310.205,66,68,41
310.2,310.275,67,63,41
310.275,310.35,66,56,41
310.355,310.43,64,59,41
310.43,310.49,66,62,41
310.505,310.745,67,80,41
310.805,311.765,43,80,41
313.8,315.0,48,46,41
315.0,316.2,48,52,41
316.2,316.8,48,54,41
317.4,318.6,48,48,41
318.6,319.8,53,56,41
319.8,320.4,52,50,41
321.0,322.2,50,53,41
322.2,322.8,50,53,41
322.8,323.4,53,57,41
323.4,324.0,53,53,41
324.6,325.8,50,73,41
325.8,327.0,50,81,41
327.0,327.6,59,84,41
328.2,328.765,60,56,41
329.4,329.965,59,55,41
330.6,331.2,60,57,41
331.2,334.8,55,55,41
331.2,334.8,62,55,41
335.4,336.0,67,61,41
336.0,336.285,71,57,41
336.6,337.2,71,53,41
337.2,337.485,72,54,41
337.8,338.4,72,50,41
338.4,338.685,67,48,41
342.0,342.6,64,49,41
342.6,343.2,64,51,41
343.2,343.8,65,53,41
343.8,344.4,65,51,41
344.4,345.0,60,44,41
345.0,345.6,60,52,41
345.6,346.2,62,55,41
346.2,346.8,62,54,41
346.8,347.4,62,53,41
347.4,348.0,62,53,41
348.0,348.6,60,51,41
348.6,349.2,60,52,41
349.8,350.365,60,41,41
351.0,351.565,60,39,41
352.2,352.8,62,44,41
352.8,353.4,60,50,41
353.4,354.0,67,65,41
354.0,354.565,67,54,41
357.0,357.395,50,76,41
357.395,357.495,52,106,41
357.495,357.6,54,115,41
357.6,358.2,55,90,41
358.2,359.1,53,89,41
359.1,359.4,52,89,41
359.4,359.7,50,90,41
359.7,360.0,48,91,41
360.0,360.6,48,70,41
360.6,361.2,62,94,41
361.2,361.8,58,77,41
361.8,362.4,60,86,41
362.4,362.965,60,92,41
363.6,364.165,69,65,41
364.8,365.365,67,42,41
366.0,366.565,65,37,41
367.2,367.765,64,60,41
368.595,368.795,52,79,41
368.795,369.0,53,94,41
369.0,369.195,55,94,41
369.195,369.395,57,94,41
369.395,369.6,59,97,41
369.6,369.795,60,96,41
369.795,369.995,62,97,41
369.995,370.2,64,95,41
370.2,370.8,65,91,41
370.8,372.0,64,70,41
372.195,372.395,60,67,41
372.395,372.6,59,70,41
372.6,372.795,57,74,41
372.795,372.995,55,74,41
372.995,373.2,53,72,41
373.2,373.8,52,68,41
373.8,374.4,53,79,41
374.4,374.595,52,73,41
374.595,374.795,60,89,41
374.795,375.0,62,83,41
375.0,375.195,64,85,41
375.195,375.395,65,82,41
375.395,375.595,62,66,41
375.6,375.8,64,84,41
375.795,375.995,67,70,41
375.995,376.195,65,71,41
376.2,376.4,64,79,41
376.395,376.595,62,73,41
376.595,376.795,64,80,41
376.8,377.0,62,71,41
376.995,377.195,71,89,41
377.195,377.395,74,82,41
377.4,377.6,77,86,41
377.595,377.795,76,76,41
377.795,377.995,74,80,41
378.0,378.195,72,72,41
378.2,378.4,76,80,41
378.4,378.605,74,77,41
378.6,378.79,72,72,41
378.8,378.99,67,70,41
379.0,379.16,65,80,41
379.2,379.4216,64,66,41
379.42728,379.65454,67,81,41
379.65454,379.8875,65,70,41
379.8818,380.10342,64,74,41
380.1091,380.33636,62,74,41
380.33636,380.57022,60,72,41
380.56363,382.14258,59,75,41
382.14258,384.01758,59,84,41
384.01758,385.1287,60,44,41
3.6,4.2,36,55,42
4.2,4.8,48,58,42
4.8,5.4,48,42,42
5.4,6.0,48,44,42
6.0,6.6,48,46,42
6.6,7.2,48,48,42
7.2,7.8,36,71,42
7.8,8.4,48,74,42
8.4,9.0,48,54,42
9.0,9.6,48,55,42
9.6,10.2,48,57,42
10.2,10.8,48,60,42
10.8,11.4,36,105,42
11.4,12.0,48,85,42
12.0,12.6,48,85,42
12.6,13.2,48,85,42
13.2,13.8,48,85,42
13.8,14.4,48,51,42
14.4,15.6,55,82,42
15.6,16.08,48,48,42
18.0,19.2,53,46,42
19.2,19.68,48,68,42
21.6,22.8,43,60,42
22.8,23.28,48,60,42
25.2,26.4,43,45,42
26.4,26.64,36,45,42
27.0,27.6,48,88,42
27.6,28.2,48,79,42
28.2,28.8,48,74,42
28.8,29.4,48,78,42
29.4,30.0,42,74,42
30.0,32.4,42,73,42
32.4,34.8,43,72,42
34.8,36.0,36,65,42
36.0,37.8,41,76,42
37.8,38.4,53,49,42
38.4,39.0,50,55,42
39.0,39.6,48,60,42
39.6,40.8,47,65,42
40.8,43.2,53,75,42
43.2,44.4,52,100,42
44.4,45.6,57,100,42
45.6,46.8,55,100,42
46.8,47.28,53,59,42
48.0,48.48,55,52,42
49.2,49.68,43,43,42
50.4,50.59,36,80,42
50.6,50.79,40,80,42
50.8,50.99,41,80,42
51.0,51.19,43,80,42
51.2,51.39,45,80,42
51.4,51.59,47,80,42
51.6,52.74,48,80,42
54.0,54.195,48,88,42
54.195,54.395,52,101,42
54.395,54.6,53,98,42
54.6,54.795,55,103,42
54.795,54.995,57,103,42
54.995,55.2,59,100,42
55.2,55.395,60,101,42
55.395,55.595,59,94,42
55.595,55.8,60,103,42
55.8,55.995,55,94,42
55.995,56.195,54,94,42
56.195,56.4,55,100,42
56.4,56.595,52,99,42
56.595,56.795,50,94,42
56.795,57.0,52,100,42
57.0,57.195,48,90,42
57.195,57.385,47,95,42
57.395,57.555,48,104,42
57.6,57.795,47,96,42
57.795,57.995,50,99,42
57.995,58.2,52,99,42
58.2,58.395,54,103,42
58.395,58.595,55,103,42
58.595,58.8,57,101,42
58.8,58.995,59,100,42
58.995,59.195,57,96,42
59.195,59.4,59,101,42
59.4,59.595,54,91,42
59.595,59.795,52,94,42
59.795,60.0,54,104,42
60.0,60.195,50,90,42
60.195,60.395,48,91,42
60.395,60.6,50,103,42
60.6,60.79,47,94,42
60.795,60.985,45,90,42
60.995,61.185,47,104,42
61.2,61.395,45,95,42
61.395,61.595,48,95,42
61.595,61.8,52,100,42
61.8,61.995,57,100,42
61.995,62.195,60,100,42
62.195,62.4,59,96,42
62.4,62.595,57,99,42
62.595,62.795,59,99,42
62.795,63.0,55,95,42
63.0,63.195,54,92,42
63.195,63.395,55,103,42
63.395,63.6,52,94,42
63.6,63.795,50,95,42
63.795,63.995,57,108,42
63.995,64.2,55,94,42
64.2,64.395,54,90,42
64.395,64.585,52,91,42
64.595,64.755,50,104,42
64.8,64.995,43,94,42
64.995,65.195,47,104,42
65.195,65.4,48,103,42
65.4,65.595,50,103,42
65.595,65.795,52,99,42
65.795,66.0,54,101,42
66.0,66.195,55,98,42
66.195,66.395,54,95,42
66.395,66.6,55,100,42
66.6,66.795,50,91,42
66.795,66.995,48,96,42
66.995,67.2,50,98,42
67.2,67.395,47,90,42
67.395,67.595,45,95,42
67.595,67.8,47,103,42
67.8,67.995,43,90,42
67.995,68.185,42,94,42
68.195,68.355,43,104,42
68.4,68.88,48,101,42
70.8,71.28,48,83,42
72.0,72.48,47,90,42
74.4,74.965,59,78,42
75.6,76.165,57,94,42
76.8,77.365,62,106,42
78.0,78.565,50,84,42
79.8,80.4,43,65,42
80.4,81.0,55,66,42
81.0,81.6,55,63,42
81.6,82.2,55,61,42
82.2,82.8,55,62,42
83.4,84.0,39,38,42
84.0,84.6,51,52,42
84.6,85.2,51,44,42
85.2,85.8,51,43,42
85.8,86.4,51,46,42
86.4,86.965,48,72,42
88.8,89.365,50,51,42
90.0,91.125,43,54,42
93.6,96.0,54,31,42
96.0,97.2,55,35,42
97.2,100.8,50,32,42
100.8,104.4,38,38,42
104.4,104.595,62,79,42
104.595,104.795,61,81,42
104.795,105.0,57,82,42
105.0,105.19,62,84,42
105.2,105.39,61,86,42
105.4,105.595,57,87,42
105.595,105.795,62,89,42
105.795,106.0,60,90,42
106.0,106.195,57,92,42
106.195,106.395,62,94,42
106.395,106.6,60,95,42
106.6,106.795,57,97,42
106.795,106.995,58,98,42
106.995,107.2,62,100,42
107.2,107.395,60,102,42
107.4,107.56,58,103,42
107.6,107.76,57,105,42
107.8,107.96,55,106,42
108.0,108.075,62,82,42
108.075,108.15,61,73,42
108.155,108.23,62,77,42
108.23,108.305,61,88,42
108.3,108.375,62,82,42
108.375,108.45,61,73,42
108.455,108.53,62,77,42
108.53,108.605,61,62,42
108.6,108.675,62,57,42
108.675,108.75,61,51,42
108.755,108.83,59,54,42
108.83,108.89,61,56,42
108.905,109.145,62,80,42
109.205,110.165,50,80,42
112.2,112.8,47,47,42
112.8,113.4,47,52,42
113.4,114.0,47,56,42
114.0,114.6,47,55,42
114.6,115.2,47,55,42
115.8,116.4,48,46,42
116.4,117.0,48,50,42
117.0,117.6,48,53,42
117.6,118.2,48,53,42
118.2,118.8,48,52,42
119.4,120.0,48,53,42
120.0,120.6,48,52,42
120.6,121.2,48,54,42
121.2,121.8,45,46,42
121.8,122.4,45,55,42
123.0,123.6,38,50,42
123.6,124.2,50,60,42
124.2,124.8,50,47,42
124.8,125.4,48,62,42
125.4,126.0,48,77,42
126.6,127.165,47,72,42
127.8,128.365,45,74,42
129.0,129.6,43,72,42
129.6,133.2,42,93,42
133.8,134.28,59,42,42
134.4,134.88,57,36,42
135.0,135.48,57,31,42
135.6,136.08,55,34,42
136.2,136.68,55,35,42
136.8,137.085,54,51,42
140.4,140.88,55,46,42
141.0,141.48,55,52,42
141.6,142.08,48,50,42
142.2,142.68,48,54,42
142.8,143.28,46,50,42
143.4,143.88,46,52,42
144.0,144.48,45,52,42
144.6,145.08,45,51,42
145.2,145.68,51,57,42
145.8,146.28,51,51,42
146.4,146.88,52,55,42
147.0,147.48,52,55,42
148.2,148.765,48,37,42
149.4,149.965,50,33,42
150.6,151.2,50,36,42
151.2,151.62,55,77,42
151.8,152.4,50,68,42
152.4,152.88,43,71,42
154.2,154.56,50,80,42
154.65,154.71,52,80,42
154.725,154.785,54,80,42
154.8,155.4,55,51,42
155.4,156.0,53,56,42
156.0,156.6,52,61,42
156.6,157.2,52,66,42
157.2,157.8,50,70,42
157.8,158.4,50,75,42
158.4,159.0,48,80,42
159.0,159.6,48,85,42
159.6,160.2,45,90,42
160.2,160.8,45,95,42
160.8,161.4,43,100,42
161.4,162.0,43,105,42
162.0,162.48,48,56,42
163.2,163.68,50,54,42
164.4,164.88,50,55,42
165.6,165.795,43,88,42
165.795,165.995,47,103,42
165.995,166.2,48,100,42
166.2,166.395,50,99,42
166.395,166.595,52,99,42
166.595,166.8,54,99,42
166.8,168.0,55,101,42
168.6,169.025,38,87,42
169.045,169.12,40,101,42
169.12,169.18,42,104,42
169.2,170.4,43,103,42
170.595,170.795,47,90,42
170.795,171.0,48,98,42
171.0,171.195,50,107,42
171.195,171.395,52,104,42
171.395,171.6,54,101,42
171.6,171.795,55,105,42
171.795,171.995,57,100,42
171.995,172.2,59,99,42
172.2,172.8,60,101,42
172.8,173.365,59,101,42
174.0,174.565,43,48,42
176.25,176.395,55,61,42
176.4,176.965,53,53,42
177.6,178.165,41,47,42
179.85,179.995,53,57,42
180.0,180.565,51,52,42
181.2,181.765,39,44,42
183.45,183.595,51,48,42
183.6,184.165,50,50,42
184.8,185.365,43,49,42
187.2,187.8,36,55,42
187.8,188.4,48,58,42
188.4,189.0,48,42,42
189.0,189.6,48,44,42
189.6,190.2,48,46,42
190.2,190.8,48,48,42
190.8,191.4,36,71,42
191.4,192.0,48,74,42
192.0,192.6,48,54,42
192.6,193.2,48,55,42
193.2,193.8,48,57,42
193.8,194.4,48,60,42
194.4,195.0,36,105,42
195.0,195.6,48,85,42
195.6,196.2,48,85,42
196.2,196.8,48,85,42
196.8,197.4,48,85,42
197.4,198.0,48,51,42
198.0,199.2,55,82,42
199.2,199.68,48,48,42
201.6,202.8,53,46,42
202.8,203.28,48,68,42
205.2,206.4,43,60,42
206.4,206.88,48,60,42
208.8,210.0,43,45,42
210.0,210.24,36,45,42
210.6,211.2,48,88,42
211.2,211.8,48,79,42
211.8,212.4,48,74,42
212.4,213.0,48,67,42
213.0,213.57,42,56,42
213.6,214.56,42,56,42
217.8,218.4,46,67,42
218.4,219.0,46,73,42
219.0,219.6,46,74,42
219.6,220.2,46,77,42
220.2,220.77,40,73,42
220.8,221.925,40,72,42
225.0,225.6,44,67,42
225.6,226.2,44,76,42
226.2,226.8,44,73,42
226.8,227.4,44,89,42
227.4,228.0,37,64,42
228.0,230.4,37,76,42
230.4,231.6,36,60,42
231.6,234.0,48,62,42
234.0,235.2,49,65,42
235.2,237.6,37,66,42
237.6,238.8,36,70,42
238.8,241.2,48,71,42
241.2,242.4,47,75,42
242.4,244.8,59,76,42
244.8,246.0,58,79,42
246.0,248.4,46,81,42
248.4,249.6,44,89,42
249.6,252.0,56,76,42
252.0,252.195,43,120,42
252.195,252.395,47,93,42
252.395,252.6,50,95,42
252.6,252.795,55,115,42
252.795,252.995,59,113,42
252.995,253.2,57,97,42
253.2,253.395,55,96,42
253.395,253.595,54,96,42
253.595,253.8,55,104,42
253.8,253.995,50,93,42
253.995,254.195,48,93,42
254.195,254.4,50,111,42
254.4,254.595,47,99,42
254.595,254.795,45,100,42
254.795,255.0,47,105,42
254.995,255.155,43,108,42
255.195,255.355,42,108,42
255.395,255.555,43,108,42
255.6,255.795,48,101,42
255.795,255.995,51,107,42
255.995,256.2,55,103,42
256.2,256.395,60,123,42
256.395,256.595,63,104,42
256.595,256.8,62,103,42
256.8,256.995,60,93,42
256.995,257.195,59,97,42
257.195,257.4,60,111,42
257.4,257.595,55,101,42
257.595,257.795,54,101,42
257.795,258.0,55,111,42
258.0,258.195,51,96,42
258.195,258.395,50,105,42
258.395,258.6,51,105,42
258.595,258.755,48,108,42
258.795,258.955,47,108,42
258.995,259.155,48,108,42
259.2,259.395,43,99,42
259.395,259.595,47,100,42
259.595,259.8,50,113,42
259.8,259.995,55,108,42
259.995,260.195,59,113,42
260.195,260.4,57,101,42
260.4,260.595,55,105,42
260.595,260.795,54,104,42
260.795,261.0,55,105,42
261.0,261.195,50,96,42
261.195,261.395,48,99,42
261.395,261.6,50,103,42
261.6,261.795,47,99,42
261.795,261.995,45,101,42
261.995,262.2,47,103,42
262.195,262.355,43,108,42
262.395,262.555,42,108,42
262.595,262.755,43,108,42
262.8,262.995,48,109,42
262.995,263.195,51,105,42
263.195,263.4,55,109,42
263.4,263.595,60,119,42
263.595,263.795,63,108,42
263.795,264.0,62,97,42
264.0,264.195,60,97,42
264.195,264.395,59,99,42
264.395,264.6,60,105,42
264.6,264.795,55,101,42
264.795,264.995,54,101,42
264.995,265.2,55,107,42
265.2,265.395,51,89,42
265.395,265.595,50,96,42
265.595,265.8,51,103,42
265.795,265.955,48,108,42
265.995,266.155,47,108,42
266.195,266.355,48,108,42
266.4,267.6,43,92,42
268.8,270.0,59,54,42
270.0,271.2,61,62,42
271.2,272.4,62,62,42
272.4,273.6,60,60,42
273.6,274.8,59,60,42
274.8,276.0,60,62,42
276.0,277.2,59,59,42
277.2,278.4,57,59,42
278.4,279.6,59,62,42
279.6,280.8,55,56,42
281.4,282.0,48,41,42
282.0,282.42,60,49,42
282.6,283.08,60,48,42
283.2,283.68,60,46,42
283.8,284.28,60,44,42
285.0,285.6,44,38,42
285.6,286.02,56,43,42
286.2,286.68,56,46,42
286.8,287.28,56,43,42
287.4,287.88,56,43,42
288.0,288.565,53,35,42
290.4,290.965,55,40,42
291.6,292.8,48,34,42
295.2,297.6,47,58,42
297.6,298.8,48,62,42
298.8,304.2,43,58,42
304.2,304.68,55,70,42
304.8,305.28,55,80,42
305.4,305.88,55,77,42
306.0,306.18,55,80,42
306.195,306.375,54,81,42
306.395,306.575,50,82,42
306.6,306.78,55,83,42
306.8,306.98,54,84,42
307.0,307.18,50,86,42
307.2,307.38,55,87,42
307.395,307.575,53,88,42
307.595,307.775,50,89,42
307.8,307.98,55,90,42
308.0,308.18,53,91,42
308.2,308.38,50,92,42
308.4,308.58,51,93,42
308.6,308.78,55,94,42
308.8,308.98,53,96,42
309.0,309.18,51,97,42
309.2,309.38,50,98,42
309.4,309.58,48,99,42
309.6,309.675,55,82,42
309.675,309.75,54,73,42
309.755,309.83,55,77,42
309.83,309.905,54,88,42
309.9,309.975,55,82,42
309.975,310.05,54,51,42
310.055,310.13,55,59,42
310.13,310.205,54,68,42
310.2,310.275,55,63,42
310.275,310.35,54,56,42
310.355,310.43,52,59,42
310.43,310.49,54,62,42
310.505,310.745,55,80,42
310.805,311.765,43,80,42
313.8,314.4,40,46,42
314.4,315.0,40,50,42
315.0,315.6,40,55,42
315.6,316.2,40,55,42
316.2,316.8,40,51,42
317.4,318.0,41,47,42
318.0,318.6,41,52,42
318.6,319.2,41,51,42
319.2,319.8,41,36,42
319.8,320.4,41,53,42
321.0,321.6,41,50,42
321.6,322.2,41,53,42
322.2,322.8,41,50,42
322.8,323.4,41,52,42
323.4,324.0,41,53,42
324.6,325.2,43,79,42
325.2,325.8,43,79,42
325.8,326.4,43,78,42
326.4,327.0,43,77,42
327.0,327.6,53,87,42
328.2,328.765,52,52,42
329.4,329.965,50,51,42
330.6,331.2,48,52,42
331.2,334.8,47,53,42
335.4,336.0,64,63,42
336.0,336.285,62,54,42
336.6,337.2,62,52,42
337.2,337.485,60,48,42
337.8,338.4,60,52,42
338.4,338.685,59,52,42
342.0,342.6,48,48,42
342.6,343.2,48,51,42
343.2,343.8,53,56,42
343.8,344.4,53,53,42
344.4,345.0,51,53,42
345.0,345.6,51,53,42
345.6,346.2,50,53,42
346.2,346.8,50,57,42
346.8,347.4,44,50,42
347.4,348.0,44,55,42
348.0,348.6,45,53,42
348.6,349.2,45,55,42
349.8,350.365,53,48,42
351.0,351.565,55,40,42
352.2,352.8,55,41,42
352.8,353.4,60,62,42
353.4,354.0,55,54,42
354.0,354.565,48,50,42
355.8,356.225,43,98,42
356.245,356.32,45,109,42
356.32,356.38,47,115,42
356.4,357.0,48,96,42
357.0,357.6,48,95,42
357.6,358.2,47,92,42
358.2,358.8,47,85,42
358.8,359.4,46,89,42
359.4,360.0,46,89,42
360.0,360.6,45,74,42
360.6,361.2,57,84,42
361.2,361.8,55,78,42
361.8,362.4,55,83,42
362.4,362.965,53,88,42
363.6,364.165,53,52,42
364.8,365.365,55,41,42
366.0,366.565,43,36,42
367.2,367.395,36,77,42
367.395,367.595,40,90,42
367.595,367.8,41,95,42
367.8,367.995,43,96,42
367.995,368.195,45,90,42
368.195,368.4,47,95,42
368.4,369.6,48,90,42
370.2,370.485,43,83,42
370.5,370.62,45,96,42
370.65,370.77,47,96,42
370.8,370.995,48,76,42
370.995,371.195,52,80,42
371.195,371.4,53,82,42
371.4,371.595,55,78,42
371.595,371.795,57,83,42
371.795,372.0,59,76,42
372.0,372.195,60,82,42
372.195,372.395,64,87,42
372.395,372.6,62,66,42
372.6,372.795,60,74,42
372.795,372.995,59,70,42
372.995,373.2,57,74,42
373.2,373.8,55,73,42
373.8,374.4,43,68,42
374.4,375.525,36,71,42
376.8,378.0,55,66,42
378.0,378.565,60,79,42
380.56363,382.14258,55,68,42
382.14258,384.01758,48,74,42
384.01758,385.1287,36,38,42
