start_time,end_time,note_value,velocity,instrument_program_number
1.3863087,1.8148797,76,127,71
1.8148797,2.6720216,76,127,71
2.6720216,3.1005926,74,127,71
3.1005926,3.5291636,73,127,71
3.5291636,3.9577346,69,127,71
3.9577346,4.17202,71,127,71
4.386306,4.600591,73,127,71
4.8148766,5.243448,73,127,71
5.243448,5.6720185,74,127,71
5.6720185,6.1005898,73,127,71
6.1005898,6.5291605,71,127,71
6.5291605,6.9577317,76,127,71
6.9577317,7.3863025,81,127,71
7.3863025,7.8148737,74,127,71
7.8148737,8.243444,78,127,71
8.243444,8.886301,76,127,71
8.886301,9.100587,78,127,71
9.100587,9.314872,74,127,71
9.314872,9.529158,71,127,71
9.529158,10.3863,69,127,71
10.3863,10.600585,73,127,71
10.600585,10.814871,71,127,71
10.814871,11.243442,69,127,71
11.672012,12.100584,76,127,71
12.100584,12.957726,76,127,71
12.957726,13.386296,74,127,71
13.386296,13.814868,73,127,71
13.814868,14.243439,69,127,71
14.243439,14.457725,71,127,71
14.672009,14.886295,73,127,71
15.10058,15.529152,73,127,71
15.529152,15.957723,74,127,71
15.957723,16.386293,73,127,71
16.386293,16.814865,71,127,71
16.814865,17.243435,76,127,71
17.243435,17.672007,81,127,71
17.672007,18.100578,74,127,71
18.100578,18.529148,78,127,71
18.529148,19.172005,76,127,71
19.172005,19.386292,78,127,71
19.386292,19.600576,74,127,71
19.600576,19.814861,71,127,71
19.814861,20.672003,69,127,71
20.672003,20.88629,73,127,71
20.88629,21.100574,71,127,71
21.100574,21.529146,69,127,71
31.386278,31.600565,76,127,71
31.600565,31.81485,75,127,71
31.81485,32.029137,76,127,71
32.029137,32.24342,75,127,71
32.24342,32.457706,76,127,71
32.457706,32.671993,77,127,71
32.671993,32.886276,78,127,71
32.886276,33.100563,77,127,71
33.100563,33.31485,78,127,71
33.31485,33.529133,77,127,71
33.529133,33.74342,78,127,71
33.74342,33.957706,80,127,71
33.957706,34.17199,81,127,71
34.17199,34.386276,80,127,71
34.386276,34.600563,81,127,71
34.600563,34.814846,83,127,71
34.814846,35.029133,80,127,71
35.029133,35.243416,76,127,71
35.243416,35.457703,78,127,71
35.457703,35.67199,81,127,71
35.67199,35.886272,80,127,71
35.886272,36.10056,76,127,71
36.10056,36.314846,75,127,71
36.314846,36.52913,78,127,71
36.52913,41.88627,76,127,71
41.88627,42.100555,75,127,71
42.100555,42.31484,76,127,71
42.31484,42.529125,75,127,71
42.529125,42.743412,76,127,71
42.743412,42.957695,75,127,71
42.957695,43.81484,76,127,71
43.81484,44.24341,74,127,71
44.24341,44.671978,73,127,71
44.671978,45.10055,69,127,71
45.10055,45.314835,71,127,71
45.52912,45.74341,73,127,71
45.95769,46.386265,73,127,71
46.386265,46.814835,74,127,71
46.814835,47.243404,73,127,71
47.243404,47.671978,71,127,71
47.671978,48.100548,76,127,71
48.100548,48.529118,81,127,71
48.529118,48.95769,74,127,71
48.95769,49.38626,78,127,71
49.38626,50.029118,76,127,71
50.029118,50.243404,78,127,71
50.243404,50.457687,74,127,71
50.457687,50.671974,71,127,71
50.671974,51.529114,69,127,71
51.529114,51.7434,73,127,71
51.7434,51.957687,71,127,71
51.957687,52.386257,69,127,71
62.24339,62.457676,76,127,71
62.457676,62.671963,75,127,71
62.671963,62.886246,76,127,71
62.886246,63.100533,75,127,71
63.100533,63.31482,76,127,71
63.31482,63.529102,77,127,71
63.529102,63.74339,78,127,71
63.74339,63.957676,77,127,71
63.957676,64.17196,78,127,71
64.17196,64.386246,77,127,71
64.386246,64.60053,78,127,71
64.60053,64.81482,80,127,71
64.81482,65.0291,81,127,71
65.0291,65.243385,80,127,71
65.243385,65.45767,81,127,71
65.45767,65.67196,83,127,71
65.67196,65.886246,80,127,71
65.886246,66.10053,76,127,71
66.10053,66.31481,78,127,71
66.31481,66.5291,81,127,71
66.5291,66.743385,80,127,71
66.743385,66.95767,76,127,71
66.95767,67.17196,75,127,71
67.17196,67.386246,78,127,71
67.386246,72.74338,76,127,71
72.74338,72.957664,75,127,71
72.957664,73.17195,76,127,71
73.17195,73.38624,75,127,71
73.38624,73.600525,76,127,71
73.600525,73.814804,75,127,71
73.814804,74.67195,76,127,71
74.67195,75.10052,74,127,71
75.10052,75.52909,73,127,71
75.52909,75.957664,69,127,71
75.957664,76.17195,71,127,71
76.38623,76.60052,73,127,71
76.814804,77.24338,73,127,71
77.24338,77.67194,74,127,71
77.67194,78.10052,73,127,71
78.10052,78.52909,71,127,71
78.52909,78.95766,76,127,71
78.95766,79.38623,81,127,71
79.38623,79.814804,74,127,71
79.814804,80.24337,78,127,71
80.24337,80.88623,76,127,71
80.88623,81.10052,78,127,71
81.10052,81.3148,74,127,71
81.3148,81.52908,71,127,71
81.52908,82.38623,69,127,71
82.38623,82.60051,73,127,71
82.60051,82.8148,71,127,71
82.8148,83.24337,69,127,71
189.1004,189.52898,76,127,71
189.52898,190.38612,76,127,71
190.38612,190.8147,74,127,71
190.8147,191.24326,73,127,71
191.24326,191.67183,69,127,71
191.67183,191.88612,71,127,71
192.1004,192.31468,73,127,71
192.52898,192.95755,73,127,71
192.95755,193.38612,74,127,71
193.38612,193.81468,73,127,71
193.81468,194.24326,71,127,71
194.24326,194.67183,76,127,71
194.67183,195.1004,81,127,71
195.1004,195.52898,74,127,71
195.52898,195.95755,78,127,71
195.95755,196.6004,76,127,71
196.6004,196.81468,78,127,71
196.81468,197.02898,74,127,71
197.02898,197.24326,71,127,71
197.24326,198.1004,69,127,71
198.1004,198.31468,73,127,71
198.31468,198.52896,71,127,71
198.52896,198.95753,69,127,71
208.81467,209.02896,76,127,71
209.02896,209.24324,75,127,71
209.24324,209.45753,76,127,71
209.45753,209.67181,75,127,71
209.67181,209.8861,76,127,71
209.8861,210.10039,77,127,71
210.10039,210.31467,78,127,71
210.31467,210.52896,77,127,71
210.52896,210.74324,78,127,71
210.74324,210.95753,77,127,71
210.95753,211.17181,78,127,71
211.17181,211.3861,80,127,71
211.3861,211.60039,81,127,71
211.60039,211.81467,80,127,71
211.81467,212.02896,81,127,71
212.02896,212.24324,83,127,71
212.24324,212.45752,80,127,71
212.45752,212.67181,76,127,71
212.67181,212.8861,78,127,71
212.8861,213.10039,81,127,71
213.10039,213.31467,80,127,71
213.31467,213.52896,76,127,71
213.52896,213.74324,75,127,71
213.74324,213.95752,78,127,71
213.95752,219.31467,76,127,71
219.31467,219.52895,75,127,71
219.52895,219.74324,76,127,71
219.74324,219.95752,75,127,71
219.95752,220.1718,76,127,71
220.1718,220.3861,75,127,71
220.3861,221.24323,76,127,71
221.24323,221.6718,74,127,71
221.6718,222.10037,73,127,71
222.10037,222.52895,69,127,71
222.52895,222.74323,71,127,71
222.95752,223.1718,73,127,71
223.3861,223.81465,73,127,71
223.81465,224.24323,74,127,71
224.24323,224.6718,73,127,71
224.6718,225.10037,71,127,71
225.10037,225.52895,76,127,71
225.52895,225.95752,81,127,71
225.95752,226.38608,74,127,71
226.38608,226.81465,78,127,71
226.81465,227.4575,76,127,71
227.4575,227.6718,78,127,71
227.6718,227.88608,74,127,71
227.88608,228.10037,71,127,71
228.10037,228.9575,69,127,71
228.9575,229.1718,73,127,71
229.1718,229.38608,71,127,71
229.38608,229.81465,69,127,71
230.24323,230.4575,69,127,71
230.4575,230.6718,73,127,71
230.6718,230.88608,76,127,71
230.88608,231.10036,73,127,71
231.10036,231.52893,81,127,71
231.52893,231.74323,76,127,71
231.74323,231.9575,73,127,71
231.9575,232.1718,71,127,71
232.1718,232.38608,74,127,71
232.38608,232.81465,78,127,71
232.81465,233.02893,74,127,71
233.02893,233.24323,71,127,71
233.24323,233.4575,69,127,71
233.4575,233.67178,68,127,71
233.67178,233.88608,73,127,71
233.88608,234.10036,71,127,71
234.10036,234.31465,76,127,71
234.31465,234.52893,74,127,71
234.52893,234.9575,72,127,71
234.9575,235.38608,73,127,71
235.38608,235.60036,69,127,71
235.60036,235.81465,73,127,71
235.81465,236.02893,76,127,71
236.02893,236.24321,73,127,71
236.24321,236.67178,81,127,71
236.67178,236.88608,76,127,71
236.88608,237.10036,73,127,71
237.10036,237.31465,71,127,71
237.31465,237.52893,74,127,71
237.52893,237.9575,78,127,71
240.52893,240.67178,59,127,71
240.67178,240.81464,54,127,71
240.81464,240.9575,50,127,71
240.9575,241.17178,54,127,71
241.17178,241.27893,59,127,71
241.38606,241.49321,62,127,71
241.60036,241.7075,66,127,71
241.81464,241.92178,71,127,71
242.02893,242.13606,74,127,71
242.24321,242.45749,78,127,71
242.45749,242.67178,76,127,71
242.67178,242.88606,74,127,71
242.88606,243.10036,73,127,71
243.10036,243.31464,74,127,71
243.31464,243.52893,71,127,71
243.52893,244.38606,69,127,71
244.38606,244.60036,73,127,71
244.60036,244.81464,71,127,71
244.81464,245.24321,69,127,71
245.67178,245.88606,69,127,71
245.88606,246.10036,73,127,71
246.10036,246.31464,76,127,71
246.31464,246.52892,73,127,71
246.52892,246.95749,81,127,71
246.95749,247.17178,76,127,71
247.17178,247.38606,73,127,71
247.38606,247.60034,71,127,71
247.60034,247.81464,74,127,71
247.81464,248.24321,78,127,71
248.24321,248.45749,74,127,71
248.45749,248.67177,71,127,71
248.67177,248.88606,69,127,71
248.88606,249.10034,68,127,71
249.10034,249.31464,73,127,71
249.31464,249.52892,71,127,71
249.52892,249.74321,76,127,71
249.74321,249.95749,74,127,71
249.95749,250.38606,72,127,71
250.38606,250.81464,73,127,71
250.81464,251.02892,69,127,71
251.02892,251.2432,73,127,71
251.2432,251.45749,76,127,71
251.45749,251.67177,73,127,71
251.67177,252.10034,81,127,71
252.10034,252.31464,76,127,71
252.31464,252.52892,73,127,71
252.52892,252.7432,71,127,71
252.7432,252.95749,74,127,71
252.95749,253.38606,78,127,71
255.95749,256.10034,59,127,71
256.10034,256.2432,54,127,71
256.2432,256.38605,50,127,71
256.38605,256.60034,54,127,71
256.60034,256.7075,59,127,71
256.81464,256.92175,62,127,71
257.0289,257.13605,66,127,71
257.2432,257.35034,71,127,71
257.4575,257.56464,74,127,71
257.67175,257.88605,78,127,71
257.88605,258.10034,76,127,71
258.10034,258.31464,74,127,71
258.31464,258.5289,73,127,71
258.5289,258.7432,74,127,71
258.7432,258.9575,71,127,71
258.9575,259.81464,69,127,71
259.81464,260.0289,73,127,71
260.0289,260.2432,71,127,71
260.2432,260.67175,69,127,71
266.2432,266.67175,76,127,71
266.67175,267.5289,80,127,71
267.5289,267.95746,76,127,71
267.95746,268.8146,81,127,71
268.8146,269.2432,76,127,71
269.2432,270.1003,74,127,71
270.1003,270.5289,72,127,71
270.5289,271.38605,71,127,71
271.38605,271.6003,80,127,71
271.6003,271.8146,76,127,71
271.8146,272.0289,75,127,71
272.0289,272.2432,78,127,71
272.2432,272.67175,81,127,71
272.67175,272.88605,78,127,71
272.88605,273.1003,75,127,71
273.1003,273.3146,76,127,71
273.3146,273.5289,80,127,71
273.5289,273.95746,71,127,71
273.95746,274.17175,80,127,71
274.17175,274.38605,76,127,71
274.38605,274.6003,75,127,71
274.6003,274.8146,78,127,71
274.8146,275.24316,81,127,71
275.24316,275.45746,78,127,71
275.45746,275.67175,75,127,71
275.67175,275.88605,76,127,71
275.88605,276.1003,80,127,71
276.1003,276.3146,71,127,71
276.3146,276.5289,81,127,71
276.5289,276.74316,78,127,71
276.74316,276.95746,75,127,71
276.95746,277.17175,76,127,71
277.17175,277.38605,80,127,71
277.38605,277.6003,71,127,71
277.6003,277.8146,81,127,71
277.8146,278.0289,78,127,71
278.0289,278.24316,75,127,71
278.24316,278.67175,76,127,71
290.67172,290.88602,69,127,71
290.88602,291.1003,73,127,71
291.1003,291.31458,76,127,71
291.31458,291.52887,73,127,71
291.52887,291.95746,81,127,71
291.95746,292.17172,76,127,71
292.17172,292.38602,73,127,71
292.38602,292.6003,71,127,71
292.6003,292.81458,74,127,71
292.81458,293.24316,78,127,71
293.24316,293.45746,74,127,71
293.45746,293.67172,71,127,71
293.67172,293.88602,69,127,71
293.88602,294.1003,68,127,71
294.1003,294.31458,73,127,71
294.31458,294.52887,71,127,71
294.52887,294.74316,76,127,71
294.74316,294.95746,74,127,71
294.95746,295.38602,72,127,71
295.38602,295.81458,73,127,71
295.81458,296.02887,69,127,71
296.02887,296.24316,73,127,71
296.24316,296.45743,76,127,71
296.45743,296.67172,73,127,71
296.67172,297.1003,81,127,71
297.1003,297.31458,76,127,71
297.31458,297.52887,73,127,71
297.52887,297.74316,71,127,71
297.74316,297.95743,74,127,71
297.95743,298.38602,78,127,71
300.95743,301.10028,59,127,71
301.10028,301.24316,54,127,71
301.24316,301.38602,50,127,71
301.38602,301.60028,54,127,71
301.60028,301.70743,59,127,71
301.81458,301.92172,62,127,71
302.02887,302.13602,66,127,71
302.24316,302.35028,71,127,71
302.45743,302.56458,74,127,71
302.67172,303.10028,78,127,71
303.52887,303.63602,49,127,71
303.74316,303.85028,52,127,71
303.95743,304.06458,57,127,71
304.17172,304.27887,61,127,71
304.38602,304.49313,64,127,71
304.60028,304.70743,69,127,71
304.81458,304.92172,73,127,71
305.02887,305.24313,76,127,71
305.24313,305.67172,79,127,71
306.10028,306.20743,50,127,71
306.31458,306.42172,54,127,71
306.52887,306.63602,57,127,71
306.74313,306.85028,62,127,71
306.95743,307.06458,66,127,71
307.17172,307.27887,69,127,71
307.38602,307.49313,74,127,71
307.60028,307.81458,78,127,71
307.81458,308.02887,81,127,71
308.02887,308.24313,77,127,71
308.24313,308.45743,78,127,71
308.45743,308.67172,73,127,71
308.67172,308.886,74,127,71
308.886,309.10028,71,127,71
309.10028,309.95743,69,127,71
309.95743,310.17172,73,127,71
310.17172,310.386,71,127,71
310.386,310.81458,69,127,71
316.386,316.81458,76,127,71
316.81458,317.6717,80,127,71
317.6717,318.10028,76,127,71
318.10028,318.95743,81,127,71
318.95743,319.386,76,127,71
319.386,320.24313,74,127,71
320.24313,320.6717,72,127,71
320.6717,321.52884,71,127,71
321.52884,321.74313,80,127,71
321.74313,321.95743,76,127,71
321.95743,322.1717,75,127,71
322.1717,322.386,78,127,71
322.386,322.81454,81,127,71
322.81454,323.02884,78,127,71
323.02884,323.24313,75,127,71
323.24313,323.45743,76,127,71
323.45743,323.6717,80,127,71
323.6717,324.10028,71,127,71
324.10028,324.31454,80,127,71
324.31454,324.52884,76,127,71
324.52884,324.74313,75,127,71
324.74313,324.95743,78,127,71
324.95743,325.386,81,127,71
325.386,325.60028,78,127,71
325.60028,325.81454,75,127,71
325.81454,326.02884,76,127,71
326.02884,326.24313,80,127,71
326.24313,326.4574,71,127,71
326.4574,326.6717,81,127,71
326.6717,326.886,78,127,71
326.886,327.10028,75,127,71
327.10028,327.31454,76,127,71
327.31454,327.52884,80,127,71
327.52884,327.74313,71,127,71
327.74313,327.9574,81,127,71
327.9574,328.1717,78,127,71
328.1717,328.386,75,127,71
328.386,328.81454,76,127,71
340.81454,341.02884,69,127,71
341.02884,341.2431,73,127,71
341.2431,341.4574,76,127,71
341.4574,341.6717,73,127,71
341.6717,342.10025,81,127,71
342.10025,342.31454,76,127,71
342.31454,342.52884,73,127,71
342.52884,342.7431,71,127,71
342.7431,342.9574,74,127,71
342.9574,343.38596,78,127,71
343.38596,343.60025,74,127,71
343.60025,343.81454,71,127,71
343.81454,344.0288,69,127,71
344.0288,344.2431,68,127,71
344.2431,344.4574,73,127,71
344.4574,344.6717,71,127,71
344.6717,344.88596,76,127,71
344.88596,345.10025,74,127,71
345.10025,345.5288,72,127,71
345.5288,345.9574,73,127,71
345.9574,346.1717,69,127,71
346.1717,346.38596,73,127,71
346.38596,346.60025,76,127,71
346.60025,346.81454,73,127,71
346.81454,347.2431,81,127,71
347.2431,347.4574,76,127,71
347.4574,347.6717,73,127,71
347.6717,347.88596,71,127,71
347.88596,348.10025,74,127,71
348.10025,348.5288,78,127,71
351.10025,351.2431,59,127,71
351.2431,351.38596,54,127,71
351.38596,351.5288,50,127,71
351.5288,351.7431,54,127,71
351.7431,351.85025,59,127,71
351.9574,352.0645,62,127,71
352.17166,352.2788,66,127,71
352.38596,352.4931,71,127,71
352.60025,352.7074,74,127,71
352.8145,353.2431,78,127,71
353.67166,353.7788,49,127,71
353.88596,353.9931,52,127,71
354.10025,354.2074,57,127,71
354.3145,354.42166,61,127,71
354.5288,354.63596,64,127,71
354.7431,354.85025,69,127,71
354.9574,355.0645,73,127,71
355.17166,355.38596,76,127,71
355.38596,355.8145,79,127,71
356.2431,356.35025,50,127,71
356.45737,356.5645,54,127,71
356.67166,356.7788,57,127,71
356.88596,356.9931,62,127,71
357.10025,357.20737,66,127,71
357.3145,357.42166,69,127,71
357.5288,357.63596,74,127,71
357.7431,357.95737,78,127,71
357.95737,358.17166,81,127,71
358.17166,358.38596,77,127,71
358.38596,358.60025,78,127,71
358.60025,358.8145,73,127,71
358.8145,359.0288,74,127,71
359.0288,359.2431,71,127,71
359.2431,360.10025,69,127,71
360.10025,360.3145,73,127,71
360.3145,360.5288,71,127,71
360.5288,360.95737,69,127,71
361.38596,361.8145,76,127,71
361.8145,362.67166,76,127,71
362.67166,363.10022,74,127,71
363.10022,363.5288,73,127,71
363.5288,363.95737,69,127,71
363.95737,364.17166,71,127,71
364.38596,364.60022,73,127,71
364.8145,365.24307,73,127,71
365.24307,365.67166,74,127,71
365.67166,366.10022,73,127,71
366.10022,366.5288,71,127,71
366.5288,366.95737,76,127,71
366.95737,367.38596,81,127,71
367.38596,367.8145,74,127,71
367.8145,368.24307,78,127,71
368.24307,368.88596,76,127,71
368.88596,369.10022,78,127,71
369.10022,369.3145,74,127,71
369.3145,369.5288,71,127,71
369.5288,370.38593,69,127,71
370.38593,370.60022,73,127,71
370.60022,370.8145,71,127,71
370.8145,371.24307,69,127,71
381.10022,381.3145,76,127,71
381.3145,381.52878,75,127,71
381.52878,381.74307,76,127,71
381.74307,381.95737,75,127,71
381.95737,382.17163,76,127,71
382.17163,382.38593,77,127,71
382.38593,382.60022,78,127,71
382.60022,382.81448,77,127,71
382.81448,383.02878,78,127,71
383.02878,383.24307,77,127,71
383.24307,383.45737,78,127,71
383.45737,383.67163,80,127,71
383.67163,383.88593,81,127,71
383.88593,384.10022,80,127,71
384.10022,384.31448,81,127,71
384.31448,384.52878,83,127,71
384.52878,384.74307,80,127,71
384.74307,384.95737,76,127,71
384.95737,385.17163,78,127,71
385.17163,385.38593,81,127,71
385.38593,385.60022,80,127,71
385.60022,385.81448,76,127,71
385.81448,386.02878,75,127,71
386.02878,386.24307,78,127,71
386.24307,391.6002,76,127,71
391.6002,391.81448,75,127,71
391.81448,392.02878,76,127,71
392.02878,392.24307,75,127,71
392.24307,392.45734,76,127,71
392.45734,392.67163,75,127,71
392.67163,393.52878,76,127,71
393.52878,393.95734,74,127,71
393.95734,394.38593,73,127,71
394.38593,394.81448,69,127,71
394.81448,395.02878,71,127,71
395.24307,395.45734,73,127,71
395.67163,396.1002,73,127,71
396.1002,396.52878,74,127,71
396.52878,396.95734,73,127,71
396.95734,397.38593,71,127,71
397.38593,397.81448,76,127,71
397.81448,398.24304,81,127,71
398.24304,398.67163,74,127,71
398.67163,399.1002,78,127,71
399.1002,399.74304,76,127,71
399.74304,399.95734,78,127,71
399.95734,400.17163,74,127,71
400.17163,400.3859,71,127,71
400.3859,401.24304,69,127,71
401.24304,401.45734,73,127,71
401.45734,401.67163,71,127,71
401.67163,402.1002,69,127,71
1.3863087,1.8148797,73,100,40
1.8148797,2.6720216,73,100,40
2.6720216,3.1005926,71,100,40
3.1005926,3.3148782,69,100,40
3.9577346,4.17202,68,100,40
4.386306,4.600591,69,100,40
4.8148766,5.243448,69,100,40
5.243448,5.6720185,69,100,40
5.6720185,6.1005898,69,100,40
6.1005898,6.5291605,68,100,40
6.5291605,6.9577317,71,100,40
6.9577317,7.3863025,76,100,40
7.3863025,7.8148737,66,100,40
7.8148737,8.243444,73,100,40
8.243444,8.672015,74,100,40
8.672015,8.886301,73,100,40
8.886301,9.100587,69,100,40
9.100587,9.314872,66,100,40
9.314872,9.529158,62,100,40
9.529158,9.7434435,61,100,40
9.7434435,9.957728,64,100,40
9.957728,10.172014,61,100,40
10.172014,10.3863,64,100,40
10.3863,10.600585,62,100,40
10.600585,10.814871,64,100,40
10.814871,11.243442,61,100,40
11.672012,12.100584,73,100,40
12.100584,12.957726,73,100,40
12.957726,13.386296,71,100,40
13.386296,13.600582,69,100,40
14.243439,14.457725,68,100,40
14.672009,14.886295,69,100,40
15.10058,15.529152,69,100,40
15.529152,15.957723,69,100,40
15.957723,16.386293,69,100,40
16.386293,16.814865,68,100,40
16.814865,17.243435,71,100,40
17.243435,17.672007,76,100,40
17.672007,18.100578,66,100,40
18.100578,18.529148,73,100,40
18.529148,18.95772,74,100,40
18.95772,19.172005,73,100,40
19.172005,19.386292,69,100,40
19.386292,19.600576,66,100,40
19.600576,19.814861,62,100,40
19.814861,20.029148,61,100,40
20.029148,20.243433,64,100,40
20.243433,20.457718,61,100,40
20.457718,20.672003,64,100,40
20.672003,20.88629,62,100,40
20.88629,21.100574,64,100,40
21.100574,21.529146,61,100,40
22.386288,22.600573,64,100,40
22.600573,22.81486,63,100,40
22.81486,23.029144,64,100,40
23.029144,23.24343,63,100,40
23.24343,23.457716,64,100,40
23.457716,23.672,63,100,40
23.672,24.100573,64,100,40
24.957714,25.171999,76,100,40
25.171999,25.386284,75,100,40
25.386284,25.60057,76,100,40
25.60057,25.814856,75,100,40
25.814856,26.02914,76,100,40
26.02914,26.243427,75,100,40
26.243427,26.457712,76,100,40
26.457712,26.671997,75,100,40
26.671997,26.886284,76,100,40
26.886284,27.100569,75,100,40
27.100569,27.314854,76,100,40
27.314854,27.52914,77,100,40
27.52914,27.743425,78,100,40
27.743425,27.95771,77,100,40
27.95771,28.171997,78,100,40
28.171997,28.386282,77,100,40
28.386282,28.600567,78,100,40
28.600567,28.814852,80,100,40
28.814852,29.029139,81,100,40
29.029139,29.243423,80,100,40
29.243423,29.457708,81,100,40
29.457708,29.671995,83,100,40
29.671995,29.88628,80,100,40
29.88628,30.100565,76,100,40
30.100565,30.314852,73,100,40
30.314852,30.529137,78,100,40
30.529137,30.743422,78,100,40
30.743422,30.957708,76,100,40
30.957708,31.171993,76,100,40
31.171993,31.386278,75,100,40
31.386278,31.81485,76,100,40
37.386272,37.814842,68,100,40
37.814842,38.243416,69,100,40
38.243416,38.671986,69,100,40
38.671986,39.100555,71,100,40
39.100555,39.52913,69,100,40
39.52913,39.9577,68,100,40
39.9577,40.38627,71,100,40
40.38627,40.814842,73,100,40
40.814842,41.243412,73,100,40
41.243412,41.67198,74,100,40
41.67198,42.100555,73,100,40
42.100555,42.529125,71,100,40
42.529125,42.957695,73,100,40
42.957695,43.81484,73,100,40
43.81484,44.24341,71,100,40
44.24341,44.671978,69,100,40
45.10055,45.52912,68,100,40
45.52912,45.95769,69,100,40
45.95769,46.386265,69,100,40
46.386265,46.814835,71,100,40
46.814835,47.243404,69,100,40
47.243404,47.671978,68,100,40
47.671978,48.100548,71,100,40
48.100548,48.529118,76,100,40
48.529118,48.95769,66,100,40
48.95769,49.38626,73,100,40
49.38626,49.81483,74,100,40
49.81483,50.029118,73,100,40
50.029118,50.243404,69,100,40
50.243404,50.457687,66,100,40
50.457687,50.671974,62,100,40
50.671974,50.88626,61,100,40
50.88626,51.100544,64,100,40
51.100544,51.31483,61,100,40
51.31483,51.529114,64,100,40
51.529114,51.7434,62,100,40
51.7434,51.957687,64,100,40
51.957687,52.386257,61,100,40
53.2434,53.457684,64,100,40
53.457684,53.67197,63,100,40
53.67197,53.886257,64,100,40
53.886257,54.10054,63,100,40
54.10054,54.314827,64,100,40
54.314827,54.529114,63,100,40
54.529114,54.957684,64,100,40
55.814827,56.02911,76,100,40
56.02911,56.243397,75,100,40
56.243397,56.457684,76,100,40
56.457684,56.671967,75,100,40
56.671967,56.886253,76,100,40
56.886253,57.10054,75,100,40
57.10054,57.314823,76,100,40
57.314823,57.52911,75,100,40
57.52911,57.743397,76,100,40
57.743397,57.95768,75,100,40
57.95768,58.171967,76,100,40
58.171967,58.386253,77,100,40
58.386253,58.600536,78,100,40
58.600536,58.814823,77,100,40
58.814823,59.02911,78,100,40
59.02911,59.243393,77,100,40
59.243393,59.45768,78,100,40
59.45768,59.671967,80,100,40
59.671967,59.88625,81,100,40
59.88625,60.100536,80,100,40
60.100536,60.31482,81,100,40
60.31482,60.529106,83,100,40
60.529106,60.743393,80,100,40
60.743393,60.957676,76,100,40
60.957676,61.171963,73,100,40
61.171963,61.38625,78,100,40
61.38625,61.600533,78,100,40
61.600533,61.81482,76,100,40
61.81482,62.029106,76,100,40
62.029106,62.24339,75,100,40
62.24339,62.671963,76,100,40
68.243385,68.67196,68,100,40
68.67196,69.100525,69,100,40
69.100525,69.5291,69,100,40
69.5291,69.95767,71,100,40
69.95767,70.38624,69,100,40
70.38624,70.81481,68,100,40
70.81481,71.243385,71,100,40
71.243385,71.67195,73,100,40
71.67195,72.100525,73,100,40
72.100525,72.52909,74,100,40
72.52909,72.957664,73,100,40
72.957664,73.38624,71,100,40
73.38624,73.814804,73,100,40
73.814804,74.67195,73,100,40
74.67195,75.10052,71,100,40
75.10052,75.52909,69,100,40
75.957664,76.38623,68,100,40
76.38623,76.814804,69,100,40
76.814804,77.24338,69,100,40
77.24338,77.67194,71,100,40
77.67194,78.10052,69,100,40
78.10052,78.52909,68,100,40
78.52909,78.95766,71,100,40
78.95766,79.38623,76,100,40
79.38623,79.814804,66,100,40
79.814804,80.24337,73,100,40
80.24337,80.67194,74,100,40
80.67194,80.88623,73,100,40
80.88623,81.10052,69,100,40
81.10052,81.3148,66,100,40
81.3148,81.52908,62,100,40
81.52908,81.74337,61,100,40
81.74337,81.95766,64,100,40
81.95766,82.17194,61,100,40
82.17194,82.38623,64,100,40
82.38623,82.60051,62,100,40
82.60051,82.8148,64,100,40
82.8148,83.24337,61,100,40
83.67194,84.10051,76,100,40
84.10051,84.52908,69,100,40
84.95766,85.38622,81,100,40
85.38622,85.60051,79,100,40
85.60051,85.8148,77,100,40
86.24337,86.45765,76,100,40
86.45765,86.671936,74,100,40
86.671936,86.88622,72,100,40
86.88622,87.10051,71,100,40
87.3148,87.52908,76,100,40
87.52908,87.74336,75,100,40
87.74336,87.95765,74,100,40
87.95765,88.171936,71,100,40
88.171936,88.38622,72,100,40
88.60051,88.8148,72,100,40
88.8148,89.029076,74,100,40
89.029076,89.24336,76,100,40
89.24336,89.45765,79,100,40
89.45765,89.671936,77,100,40
89.88622,90.1005,77,100,40
90.1005,90.31479,79,100,40
90.31479,90.529076,81,100,40
90.529076,90.74336,81,100,40
90.74336,90.95765,79,100,40
91.171936,91.386215,79,100,40
91.386215,91.6005,86,100,40
91.6005,91.81479,77,100,40
91.81479,92.029076,76,100,40
92.029076,92.24336,84,100,40
92.24336,92.3505,67,100,40
92.45765,92.67193,86,100,40
92.67193,92.886215,83,100,40
92.886215,93.1005,77,100,40
93.1005,93.31479,76,100,40
93.31479,93.529076,84,100,40
93.529076,93.636215,67,100,40
93.74336,93.95764,86,100,40
93.95764,94.17193,83,100,40
94.17193,94.386215,77,100,40
94.386215,94.6005,76,100,40
94.6005,94.81479,84,100,40
94.81479,95.029076,74,100,40
95.029076,95.243355,83,100,40
95.243355,95.45764,72,100,40
95.45764,95.67193,81,100,40
95.67193,95.886215,71,100,40
95.886215,96.1005,79,100,40
96.1005,96.31479,69,100,40
96.31479,96.52907,77,100,40
96.52907,96.743355,67,100,40
96.743355,96.95764,76,100,40
96.95764,97.17193,65,100,40
97.17193,97.386215,74,100,40
97.386215,97.493355,64,100,40
97.600494,97.81478,79,100,40
97.81478,98.02907,76,100,40
98.02907,98.243355,73,100,40
98.243355,98.45764,65,100,40
98.45764,98.67193,74,100,40
98.67193,98.77907,64,100,40
98.88621,99.100494,79,100,40
99.100494,99.31478,76,100,40
99.31478,99.52907,73,100,40
99.52907,99.743355,74,100,40
99.743355,99.95764,76,100,40
99.95764,100.17192,76,100,40
100.17192,100.38621,77,100,40
100.38621,100.600494,77,100,40
100.600494,100.81478,78,100,40
100.81478,101.02907,78,100,40
101.02907,101.243355,79,100,40
101.243355,101.457634,79,100,40
101.457634,101.67192,80,100,40
101.67192,101.88621,80,100,40
101.88621,102.100494,81,100,40
102.100494,102.957634,72,100,40
102.957634,103.17192,76,100,40
103.17192,103.38621,74,100,40
103.38621,103.81478,72,100,40
104.24335,104.67192,76,100,40
104.67192,105.100494,69,100,40
105.52906,105.957634,81,100,40
105.957634,106.17192,79,100,40
106.17192,106.3862,77,100,40
106.81477,107.02906,76,100,40
107.02906,107.24335,74,100,40
107.24335,107.457634,72,100,40
107.457634,107.67191,71,100,40
107.8862,108.10049,76,100,40
108.10049,108.31477,75,100,40
108.31477,108.52906,74,100,40
108.52906,108.74335,71,100,40
108.74335,108.95763,72,100,40
109.17191,109.3862,72,100,40
109.3862,109.60049,74,100,40
109.60049,109.81477,76,100,40
109.81477,110.02906,79,100,40
110.02906,110.24334,77,100,40
110.45763,110.67191,77,100,40
110.67191,110.8862,79,100,40
110.8862,111.10049,81,100,40
111.10049,111.31477,81,100,40
111.31477,111.52905,79,100,40
111.74334,111.95763,79,100,40
111.95763,112.17191,86,100,40
112.17191,112.3862,77,100,40
112.3862,112.60049,76,100,40
112.60049,112.814766,84,100,40
112.814766,112.92191,67,100,40
113.02905,113.24334,86,100,40
113.24334,113.45763,83,100,40
113.45763,113.67191,77,100,40
113.67191,113.8862,76,100,40
113.8862,114.10048,84,100,40
114.10048,114.20763,67,100,40
114.314766,114.52905,86,100,40
114.52905,114.74334,83,100,40
114.74334,114.95763,77,100,40
114.95763,115.171906,76,100,40
115.171906,115.38619,84,100,40
115.38619,115.60048,74,100,40
115.60048,115.814766,83,100,40
115.814766,116.02905,72,100,40
116.02905,116.24334,81,100,40
116.24334,116.45762,71,100,40
116.45762,116.671906,79,100,40
116.671906,116.88619,69,100,40
116.88619,117.10048,77,100,40
117.10048,117.314766,67,100,40
117.314766,117.52905,76,100,40
117.52905,117.74333,65,100,40
117.74333,117.95762,74,100,40
117.95762,118.064766,64,100,40
118.171906,118.38619,79,100,40
118.38619,118.60048,76,100,40
118.60048,118.814766,73,100,40
118.814766,119.029045,65,100,40
119.029045,119.24333,74,100,40
119.24333,119.35048,64,100,40
119.45762,119.671906,79,100,40
119.671906,119.88619,76,100,40
119.88619,120.10048,73,100,40
120.10048,120.31476,74,100,40
120.31476,120.529045,76,100,40
120.529045,120.74333,76,100,40
120.74333,120.95762,77,100,40
120.95762,121.171906,77,100,40
121.171906,121.38619,78,100,40
121.38619,121.60047,78,100,40
121.60047,121.81476,79,100,40
121.81476,122.029045,79,100,40
122.029045,122.24333,80,100,40
122.24333,122.45762,80,100,40
122.45762,122.6719,81,100,40
122.6719,123.529045,72,100,40
123.529045,123.74333,76,100,40
123.74333,123.95761,74,100,40
123.95761,124.386185,72,100,40
124.81476,125.243324,79,100,40
125.243324,125.6719,72,100,40
126.10047,126.52904,82,100,40
126.52904,126.743324,80,100,40
126.743324,126.95761,81,100,40
127.386185,127.81475,79,100,40
127.81475,128.24333,78,100,40
128.67189,129.10046,84,100,40
129.10046,129.31476,82,100,40
129.31476,129.52904,83,100,40
129.95761,130.38618,81,100,40
130.38618,130.60046,80,100,40
130.60046,130.81474,76,100,40
130.81474,130.92189,69,100,40
131.02904,131.24332,81,100,40
131.24332,131.45761,84,100,40
131.45761,131.67189,81,100,40
131.67189,131.88618,80,100,40
131.88618,132.10046,76,100,40
132.10046,132.20761,69,100,40
132.31474,132.52904,81,100,40
132.52904,132.74332,84,100,40
132.74332,132.95761,81,100,40
132.95761,133.17189,80,100,40
133.17189,133.38617,76,100,40
133.38617,133.60046,77,100,40
133.60046,133.81474,74,100,40
133.81474,134.02904,76,100,40
134.02904,134.24332,72,100,40
134.24332,134.45761,74,100,40
134.45761,134.67189,71,100,40
134.67189,134.88617,72,100,40
134.88617,135.10046,69,100,40
135.10046,135.52904,76,100,40
135.52904,135.9576,69,100,40
136.38617,136.81474,81,100,40
136.81474,137.02904,79,100,40
137.02904,137.24332,77,100,40
137.67189,137.88617,76,100,40
137.88617,138.10046,74,100,40
138.10046,138.31474,72,100,40
138.31474,138.52902,71,100,40
138.74332,138.9576,76,100,40
138.9576,139.17189,75,100,40
139.17189,139.38617,74,100,40
139.38617,139.60045,71,100,40
139.60045,139.81474,72,100,40
140.02902,140.24332,76,100,40
140.24332,140.4576,76,100,40
140.4576,140.67189,76,100,40
140.67189,140.88617,76,100,40
140.88617,141.10045,81,100,40
141.31474,141.52902,81,100,40
141.52902,141.74332,80,100,40
141.74332,141.9576,81,100,40
141.9576,142.17188,81,100,40
142.17188,142.38617,71,100,40
142.60045,142.81474,71,100,40
142.81474,143.02902,74,100,40
143.02902,143.24332,77,100,40
143.24332,143.4576,69,100,40
143.4576,143.67188,68,100,40
143.88617,144.10045,76,100,40
144.10045,144.31474,83,100,40
144.31474,144.52902,74,100,40
144.52902,144.7433,72,100,40
144.7433,144.9576,76,100,40
144.9576,145.06474,64,100,40
145.17188,145.38617,83,100,40
145.38617,145.60045,80,100,40
145.60045,145.81474,74,100,40
145.81474,146.02902,72,100,40
146.02902,146.2433,76,100,40
146.2433,146.35045,64,100,40
146.4576,146.67188,83,100,40
146.67188,146.88617,80,100,40
146.88617,147.10045,74,100,40
147.10045,147.31473,72,100,40
147.31473,147.52902,81,100,40
147.52902,147.7433,71,100,40
147.7433,147.9576,79,100,40
147.9576,148.17188,69,100,40
148.17188,148.38615,77,100,40
148.38615,148.60045,67,100,40
148.60045,148.81473,76,100,40
148.81473,149.02902,65,100,40
149.02902,149.2433,74,100,40
149.2433,149.4576,64,100,40
149.4576,149.67188,72,100,40
149.67188,149.88615,62,100,40
149.88615,150.10045,70,100,40
150.10045,150.2076,69,100,40
150.31473,150.52902,77,100,40
150.52902,150.7433,74,100,40
150.7433,150.95758,69,100,40
150.95758,151.17188,62,100,40
151.17188,151.38615,70,100,40
151.38615,151.4933,69,100,40
151.60045,151.81473,77,100,40
151.81473,152.02902,74,100,40
152.02902,152.2433,69,100,40
152.2433,152.45758,70,100,40
152.45758,152.67188,72,100,40
152.67188,152.88615,72,100,40
152.88615,153.10045,74,100,40
153.10045,153.31473,74,100,40
153.31473,153.529,76,100,40
153.529,153.7433,76,100,40
153.7433,153.95758,77,100,40
153.95758,154.17188,77,100,40
154.17188,154.38615,73,100,40
154.38615,154.60045,74,100,40
154.60045,154.81473,70,100,40
154.81473,155.67188,69,100,40
155.67188,155.88615,72,100,40
155.88615,156.10043,71,100,40
156.10043,156.529,69,100,40
156.95758,157.38615,79,100,40
157.38615,157.81473,72,100,40
158.2433,158.67186,82,100,40
158.67186,158.88615,80,100,40
158.88615,159.10043,81,100,40
159.529,159.95758,79,100,40
159.95758,160.38615,78,100,40
160.81473,161.24329,84,100,40
161.24329,161.45758,82,100,40
161.45758,161.67186,83,100,40
162.10043,162.529,81,100,40
162.529,162.74329,80,100,40
162.74329,162.95758,76,100,40
162.95758,163.06471,69,100,40
163.17186,163.38615,81,100,40
163.38615,163.60043,84,100,40
163.60043,163.81471,81,100,40
163.81471,164.029,80,100,40
164.029,164.24329,76,100,40
164.24329,164.35043,69,100,40
164.45758,164.67186,81,100,40
164.67186,164.88614,84,100,40
164.88614,165.10043,81,100,40
165.10043,165.31471,80,100,40
165.31471,165.529,76,100,40
165.529,165.74329,77,100,40
165.74329,165.95757,74,100,40
165.95757,166.17186,76,100,40
166.17186,166.38614,72,100,40
166.38614,166.60043,74,100,40
166.60043,166.81471,71,100,40
166.81471,167.029,72,100,40
167.029,167.24329,69,100,40
167.24329,167.67186,76,100,40
167.67186,168.10043,69,100,40
168.52899,168.95757,81,100,40
168.95757,169.17186,79,100,40
169.17186,169.38614,77,100,40
169.81471,170.02899,76,100,40
170.02899,170.24329,74,100,40
170.24329,170.45757,72,100,40
170.45757,170.67186,71,100,40
170.88614,171.10042,76,100,40
171.10042,171.31471,75,100,40
171.31471,171.52899,74,100,40
171.52899,171.74329,71,100,40
171.74329,171.95757,72,100,40
172.17186,172.38614,76,100,40
172.38614,172.60042,76,100,40
172.60042,172.81471,76,100,40
172.81471,173.02899,76,100,40
173.02899,173.24329,81,100,40
173.45757,173.67184,81,100,40
173.67184,173.88614,80,100,40
173.88614,174.10042,81,100,40
174.10042,174.31471,81,100,40
174.31471,174.52899,71,100,40
174.74327,174.95757,71,100,40
174.95757,175.17184,74,100,40
175.17184,175.38614,77,100,40
175.38614,175.60042,69,100,40
175.60042,175.81471,68,100,40
176.02899,176.24327,76,100,40
176.24327,176.45757,83,100,40
176.45757,176.67184,74,100,40
176.67184,176.88614,72,100,40
176.88614,177.10042,76,100,40
177.10042,177.20757,64,100,40
177.3147,177.52899,83,100,40
177.52899,177.74327,80,100,40
177.74327,177.95757,74,100,40
177.95757,178.17184,72,100,40
178.17184,178.38614,76,100,40
178.38614,178.49327,64,100,40
178.60042,178.8147,83,100,40
178.8147,179.02899,80,100,40
179.02899,179.24327,74,100,40
179.24327,179.45757,72,100,40
179.45757,179.67184,81,100,40
179.67184,179.88612,71,100,40
179.88612,180.10042,79,100,40
180.10042,180.3147,69,100,40
180.3147,180.52899,77,100,40
180.52899,180.74327,67,100,40
180.74327,180.95755,76,100,40
180.95755,181.17184,65,100,40
181.17184,181.38612,74,100,40
181.38612,181.60042,64,100,40
181.60042,181.8147,72,100,40
181.8147,182.02899,62,100,40
182.02899,182.24327,70,100,40
182.24327,182.35042,69,100,40
182.45755,182.67184,77,100,40
182.67184,182.88612,74,100,40
182.88612,183.10042,69,100,40
183.10042,183.3147,62,100,40
183.3147,183.52898,70,100,40
183.52898,183.63612,69,100,40
183.74327,183.95755,77,100,40
183.95755,184.17184,74,100,40
184.17184,184.38612,69,100,40
184.38612,184.60042,70,100,40
184.60042,184.8147,72,100,40
184.8147,185.02898,72,100,40
185.02898,185.24327,74,100,40
185.24327,185.45755,74,100,40
185.45755,185.67184,76,100,40
185.67184,185.88612,76,100,40
185.88612,186.1004,77,100,40
186.1004,186.3147,77,100,40
186.3147,186.52898,73,100,40
186.52898,186.74327,74,100,40
186.74327,186.95755,70,100,40
186.95755,187.8147,69,100,40
187.8147,188.02898,72,100,40
188.02898,188.24327,71,100,40
188.24327,188.67183,69,100,40
189.1004,189.52898,73,100,40
189.52898,190.38612,73,100,40
190.38612,190.8147,71,100,40
190.8147,191.02898,69,100,40
191.67183,191.88612,68,100,40
192.1004,192.31468,69,100,40
192.52898,192.95755,69,100,40
192.95755,193.38612,69,100,40
193.38612,193.81468,69,100,40
193.81468,194.24326,68,100,40
194.24326,194.67183,71,100,40
194.67183,195.1004,76,100,40
195.1004,195.52898,66,100,40
195.52898,195.95755,73,100,40
195.95755,196.38611,74,100,40
196.38611,196.6004,73,100,40
196.6004,196.81468,69,100,40
196.81468,197.02898,66,100,40
197.02898,197.24326,62,100,40
197.24326,197.45753,61,100,40
197.45753,197.67183,64,100,40
197.67183,197.88611,61,100,40
197.88611,198.1004,64,100,40
198.1004,198.31468,62,100,40
198.31468,198.52896,64,100,40
198.52896,198.95753,61,100,40
199.81468,200.02896,64,100,40
200.02896,200.24326,63,100,40
200.24326,200.45753,64,100,40
200.45753,200.67183,63,100,40
200.67183,200.88611,64,100,40
200.88611,201.10039,63,100,40
201.10039,201.52896,64,100,40
202.38611,202.60039,76,100,40
202.60039,202.81468,75,100,40
202.81468,203.02896,76,100,40
203.02896,203.24326,75,100,40
203.24326,203.45753,76,100,40
203.45753,203.67181,75,100,40
203.67181,203.88611,76,100,40
203.88611,204.10039,75,100,40
204.10039,204.31468,76,100,40
204.31468,204.52896,75,100,40
204.52896,204.74326,76,100,40
204.74326,204.95753,77,100,40
204.95753,205.17181,78,100,40
205.17181,205.38611,77,100,40
205.38611,205.60039,78,100,40
205.60039,205.81468,77,100,40
205.81468,206.02896,78,100,40
206.02896,206.24324,80,100,40
206.24324,206.45753,81,100,40
206.45753,206.67181,80,100,40
206.67181,206.88611,81,100,40
206.88611,207.10039,83,100,40
207.10039,207.31467,80,100,40
207.31467,207.52896,76,100,40
207.52896,207.74324,73,100,40
207.74324,207.95753,78,100,40
207.95753,208.17181,78,100,40
208.17181,208.38611,76,100,40
208.38611,208.60039,76,100,40
208.60039,208.81467,75,100,40
208.81467,209.24324,76,100,40
214.81467,215.24324,68,100,40
215.24324,215.67181,69,100,40
215.67181,216.10037,69,100,40
216.10037,216.52895,71,100,40
216.52895,216.95752,69,100,40
216.95752,217.3861,68,100,40
217.3861,217.81467,71,100,40
217.81467,218.24324,73,100,40
218.24324,218.6718,73,100,40
218.6718,219.10037,74,100,40
219.10037,219.52895,73,100,40
219.52895,219.95752,71,100,40
219.95752,220.3861,73,100,40
220.3861,221.24323,73,100,40
221.24323,221.6718,71,100,40
221.6718,222.10037,69,100,40
222.52895,222.95752,68,100,40
222.95752,223.3861,69,100,40
223.3861,223.81465,69,100,40
223.81465,224.24323,71,100,40
224.24323,224.6718,69,100,40
224.6718,225.10037,68,100,40
225.10037,225.52895,71,100,40
225.52895,225.95752,76,100,40
225.95752,226.38608,66,100,40
226.38608,226.81465,73,100,40
226.81465,227.24323,74,100,40
227.24323,227.4575,73,100,40
227.4575,227.6718,69,100,40
227.6718,227.88608,66,100,40
227.88608,228.10037,62,100,40
228.10037,228.31465,61,100,40
228.31465,228.52895,64,100,40
228.52895,228.74323,61,100,40
228.74323,228.9575,64,100,40
228.9575,229.1718,62,100,40
229.1718,229.38608,64,100,40
229.38608,229.81465,61,100,40
231.10036,231.52893,69,100,40
231.52893,231.9575,69,100,40
232.38608,232.81465,69,100,40
232.81465,233.24323,69,100,40
233.67178,234.10036,68,100,40
234.10036,234.52893,68,100,40
234.9575,235.38608,69,100,40
235.38608,235.81465,69,100,40
236.24321,236.67178,69,100,40
236.67178,237.10036,69,100,40
237.10036,237.52893,66,100,40
237.9575,238.17178,73,100,40
238.17178,238.38608,70,100,40
238.38608,238.60036,71,100,40
238.60036,238.81464,74,100,40
238.81464,239.24321,78,100,40
239.24321,239.4575,73,100,40
239.4575,239.67178,70,100,40
239.67178,239.88606,71,100,40
239.88606,240.10036,74,100,40
240.10036,240.52893,78,100,40
243.52893,243.74321,61,100,40
243.74321,243.95749,64,100,40
243.95749,244.17178,61,100,40
244.17178,244.38606,64,100,40
244.38606,244.60036,62,100,40
244.60036,244.81464,64,100,40
244.81464,245.24321,61,100,40
246.52892,246.95749,69,100,40
246.95749,247.38606,69,100,40
247.81464,248.24321,69,100,40
248.24321,248.67177,69,100,40
249.10034,249.52892,68,100,40
249.52892,249.95749,68,100,40
250.38606,250.81464,69,100,40
250.81464,251.2432,69,100,40
251.67177,252.10034,69,100,40
252.10034,252.52892,69,100,40
252.52892,252.95749,66,100,40
253.38606,253.60034,73,100,40
253.60034,253.81462,70,100,40
253.81462,254.02892,71,100,40
254.02892,254.2432,74,100,40
254.2432,254.67177,78,100,40
254.67177,254.88606,73,100,40
254.88606,255.10034,70,100,40
255.10034,255.31462,71,100,40
255.31462,255.52892,74,100,40
255.52892,255.95749,78,100,40
258.9575,259.17175,61,100,40
259.17175,259.38605,64,100,40
259.38605,259.60034,61,100,40
259.60034,259.81464,64,100,40
259.81464,260.0289,62,100,40
260.0289,260.2432,64,100,40
260.2432,260.67175,61,100,40
261.10034,261.3146,64,100,40
261.3146,261.5289,68,100,40
261.5289,261.7432,71,100,40
261.7432,261.9575,68,100,40
261.9575,262.38605,76,100,40
262.38605,262.60034,64,100,40
262.60034,262.8146,69,100,40
262.8146,263.0289,73,100,40
263.0289,263.2432,69,100,40
263.2432,263.67175,76,100,40
263.67175,263.88605,64,100,40
263.88605,264.10034,71,100,40
264.10034,264.3146,74,100,40
264.3146,264.5289,71,100,40
264.5289,264.7432,76,100,40
264.7432,264.95746,74,100,40
264.95746,265.17175,73,100,40
265.17175,265.38605,69,100,40
265.38605,265.60034,68,100,40
265.60034,265.8146,71,100,40
265.8146,266.2432,76,100,40
266.2432,266.45746,64,100,40
266.45746,266.67175,68,100,40
266.67175,266.88605,71,100,40
266.88605,267.10034,68,100,40
267.10034,267.5289,76,100,40
267.5289,267.7432,64,100,40
267.7432,267.95746,69,100,40
267.95746,268.17175,72,100,40
268.17175,268.38605,69,100,40
268.38605,268.8146,76,100,40
268.8146,269.0289,64,100,40
269.0289,269.2432,69,100,40
269.2432,269.45746,74,100,40
269.45746,269.67175,71,100,40
269.67175,269.88605,76,100,40
269.88605,270.1003,74,100,40
270.1003,270.3146,72,100,40
270.3146,270.5289,69,100,40
270.5289,270.7432,68,100,40
270.7432,270.95746,71,100,40
270.95746,271.38605,76,100,40
271.8146,272.2432,69,100,40
272.2432,272.67175,66,100,40
272.67175,273.1003,69,100,40
273.1003,274.38605,68,100,40
274.38605,274.8146,69,100,40
274.8146,275.24316,66,100,40
275.24316,275.67175,69,100,40
275.67175,276.1003,68,100,40
276.1003,278.24316,71,100,40
278.24316,278.45746,76,100,40
278.45746,278.67175,80,100,40
278.67175,278.88602,71,100,40
278.88602,279.1003,81,100,40
279.1003,279.3146,78,100,40
279.3146,279.5289,75,100,40
279.5289,279.74316,76,100,40
279.74316,279.95746,80,100,40
279.95746,280.17175,71,100,40
280.17175,280.38602,81,100,40
280.38602,280.6003,78,100,40
280.6003,280.8146,75,100,40
280.8146,281.0289,76,100,40
281.24316,281.45746,76,100,40
281.67175,282.1003,75,100,40
281.67175,282.1003,76,100,40
282.1003,282.52887,74,100,40
282.1003,282.52887,76,100,40
282.52887,282.95746,74,100,40
282.52887,282.95746,76,100,40
282.95746,283.38602,74,100,40
282.95746,283.38602,76,100,40
283.38602,283.8146,74,100,40
283.38602,283.8146,76,100,40
283.8146,284.24316,74,100,40
283.8146,284.24316,76,100,40
284.24316,284.67175,74,100,40
284.24316,284.67175,76,100,40
284.67175,285.1003,74,100,40
284.67175,285.1003,76,100,40
285.1003,285.52887,74,100,40
285.1003,285.52887,76,100,40
285.52887,285.95746,74,100,40
285.52887,285.95746,76,100,40
285.95746,288.1003,74,100,40
285.95746,288.1003,76,100,40
288.1003,288.52887,74,100,40
288.1003,288.52887,76,100,40
288.52887,288.95746,74,100,40
288.52887,288.95746,76,100,40
288.95746,289.38602,74,100,40
288.95746,289.38602,76,100,40
289.38602,289.8146,74,100,40
289.38602,289.8146,76,100,40
289.8146,290.24316,74,100,40
289.8146,290.24316,76,100,40
291.52887,291.95746,69,100,40
291.95746,292.38602,69,100,40
292.81458,293.24316,69,100,40
293.24316,293.67172,69,100,40
294.1003,294.52887,68,100,40
294.52887,294.95746,68,100,40
295.38602,295.81458,69,100,40
295.81458,296.24316,69,100,40
296.67172,297.1003,69,100,40
297.1003,297.52887,69,100,40
297.52887,297.95743,66,100,40
298.38602,298.6003,73,100,40
298.6003,298.81458,70,100,40
298.81458,299.02887,71,100,40
299.02887,299.24316,74,100,40
299.24316,299.45743,78,100,40
299.45743,299.67172,74,100,40
299.67172,299.88602,73,100,40
299.88602,300.10028,70,100,40
300.10028,300.31458,71,100,40
300.31458,300.52887,74,100,40
300.52887,300.95743,78,100,40
302.67172,302.88602,78,100,40
302.88602,303.10028,74,100,40
303.10028,303.52887,73,100,40
305.24313,305.45743,79,100,40
305.45743,305.67172,76,100,40
305.67172,306.10028,74,100,40
307.81458,309.95743,69,100,40
309.95743,310.386,68,100,40
310.386,310.81458,69,100,40
311.24313,311.45743,64,100,40
311.45743,311.67172,68,100,40
311.67172,311.886,71,100,40
311.886,312.10028,68,100,40
312.10028,312.52887,76,100,40
312.52887,312.74313,64,100,40
312.74313,312.95743,69,100,40
312.95743,313.17172,73,100,40
313.17172,313.386,69,100,40
313.386,313.81458,76,100,40
313.81458,314.02884,64,100,40
314.02884,314.24313,71,100,40
314.24313,314.45743,74,100,40
314.45743,314.67172,71,100,40
314.67172,314.886,76,100,40
314.886,315.10028,74,100,40
315.10028,315.31458,73,100,40
315.31458,315.52884,69,100,40
315.52884,315.74313,68,100,40
315.74313,315.95743,71,100,40
315.95743,316.386,76,100,40
316.386,316.60028,64,100,40
316.60028,316.81458,68,100,40
316.81458,317.02884,71,100,40
317.02884,317.24313,68,100,40
317.24313,317.6717,76,100,40
317.6717,317.886,64,100,40
317.886,318.10028,69,100,40
318.10028,318.31458,72,100,40
318.31458,318.52884,69,100,40
318.52884,318.95743,76,100,40
318.95743,319.1717,64,100,40
319.1717,319.386,69,100,40
319.386,319.60028,74,100,40
319.60028,319.81458,71,100,40
319.81458,320.02884,76,100,40
320.02884,320.24313,74,100,40
320.24313,320.45743,72,100,40
320.45743,320.6717,69,100,40
320.6717,320.886,68,100,40
320.886,321.10028,71,100,40
321.10028,321.52884,76,100,40
321.95743,322.386,69,100,40
322.386,322.81454,66,100,40
322.81454,323.24313,69,100,40
323.24313,324.52884,68,100,40
324.52884,324.95743,69,100,40
324.95743,325.386,66,100,40
325.386,325.81454,69,100,40
325.81454,326.24313,68,100,40
326.24313,328.386,71,100,40
328.386,328.60028,76,100,40
328.60028,328.81454,80,100,40
328.81454,329.02884,71,100,40
329.02884,329.24313,81,100,40
329.24313,329.4574,78,100,40
329.4574,329.6717,75,100,40
329.6717,329.886,76,100,40
329.886,330.10028,80,100,40
330.10028,330.31454,71,100,40
330.31454,330.52884,81,100,40
330.52884,330.74313,78,100,40
330.74313,330.9574,75,100,40
330.9574,331.1717,76,100,40
331.386,331.60025,76,100,40
331.81454,332.24313,75,100,40
331.81454,332.24313,76,100,40
332.24313,332.6717,74,100,40
332.24313,332.6717,76,100,40
332.6717,333.10025,74,100,40
332.6717,333.10025,76,100,40
333.10025,333.52884,74,100,40
333.10025,333.52884,76,100,40
333.52884,333.9574,74,100,40
333.52884,333.9574,76,100,40
333.9574,334.386,74,100,40
333.9574,334.386,76,100,40
334.386,334.81454,74,100,40
334.386,334.81454,76,100,40
334.81454,335.2431,74,100,40
334.81454,335.2431,76,100,40
335.2431,335.6717,74,100,40
335.2431,335.6717,76,100,40
335.6717,336.10025,74,100,40
335.6717,336.10025,76,100,40
336.10025,338.2431,74,100,40
336.10025,338.2431,76,100,40
338.2431,338.6717,74,100,40
338.2431,338.6717,76,100,40
338.6717,339.10025,74,100,40
338.6717,339.10025,76,100,40
339.10025,339.52884,74,100,40
339.10025,339.52884,76,100,40
339.52884,339.9574,74,100,40
339.52884,339.9574,76,100,40
339.9574,340.38596,74,100,40
339.9574,340.38596,76,100,40
341.6717,342.10025,69,100,40
342.10025,342.52884,69,100,40
342.9574,343.38596,69,100,40
343.38596,343.81454,69,100,40
344.2431,344.6717,68,100,40
344.6717,345.10025,68,100,40
345.5288,345.9574,69,100,40
345.9574,346.38596,69,100,40
346.81454,347.2431,69,100,40
347.2431,347.6717,69,100,40
347.6717,348.10025,66,100,40
348.5288,348.7431,73,100,40
348.7431,348.9574,70,100,40
348.9574,349.17166,71,100,40
349.17166,349.38596,74,100,40
349.38596,349.60025,78,100,40
349.60025,349.81454,74,100,40
349.81454,350.0288,73,100,40
350.0288,350.2431,70,100,40
350.2431,350.4574,71,100,40
350.4574,350.67166,74,100,40
350.67166,351.10025,78,100,40
352.8145,353.0288,78,100,40
353.0288,353.2431,74,100,40
353.2431,353.67166,73,100,40
355.38596,355.60025,79,100,40
355.60025,355.8145,76,100,40
355.8145,356.2431,74,100,40
357.95737,360.10025,69,100,40
360.10025,360.5288,68,100,40
360.5288,360.95737,69,100,40
361.38596,361.8145,73,100,40
361.8145,362.67166,73,100,40
362.67166,363.10022,71,100,40
363.10022,363.3145,69,100,40
363.95737,364.17166,68,100,40
364.38596,364.60022,69,100,40
364.8145,365.24307,69,100,40
365.24307,365.67166,69,100,40
365.67166,366.10022,69,100,40
366.10022,366.5288,68,100,40
366.5288,366.95737,71,100,40
366.95737,367.38596,76,100,40
367.38596,367.8145,66,100,40
367.8145,368.24307,73,100,40
368.24307,368.67166,74,100,40
368.67166,368.88596,73,100,40
368.88596,369.10022,69,100,40
369.10022,369.3145,66,100,40
369.3145,369.5288,62,100,40
369.5288,369.74307,61,100,40
369.74307,369.95737,64,100,40
369.95737,370.17166,61,100,40
370.17166,370.38593,64,100,40
370.38593,370.60022,62,100,40
370.60022,370.8145,64,100,40
370.8145,371.24307,61,100,40
372.10022,372.3145,64,100,40
372.3145,372.5288,63,100,40
372.5288,372.74307,64,100,40
372.74307,372.95737,63,100,40
372.95737,373.17166,64,100,40
373.17166,373.38593,63,100,40
373.38593,373.8145,64,100,40
374.67166,374.88593,76,100,40
374.88593,375.10022,75,100,40
375.10022,375.3145,76,100,40
375.3145,375.52878,75,100,40
375.52878,375.74307,76,100,40
375.74307,375.95737,75,100,40
375.95737,376.17166,76,100,40
376.17166,376.38593,75,100,40
376.38593,376.60022,76,100,40
376.60022,376.8145,75,100,40
376.8145,377.02878,76,100,40
377.02878,377.24307,77,100,40
377.24307,377.45737,78,100,40
377.45737,377.67166,77,100,40
377.67166,377.88593,78,100,40
377.88593,378.10022,77,100,40
378.10022,378.3145,78,100,40
378.3145,378.52878,80,100,40
378.52878,378.74307,81,100,40
378.74307,378.95737,80,100,40
378.95737,379.17163,81,100,40
379.17163,379.38593,83,100,40
379.38593,379.60022,80,100,40
379.60022,379.8145,76,100,40
379.8145,380.02878,73,100,40
380.02878,380.24307,78,100,40
380.24307,380.45737,78,100,40
380.45737,380.67163,76,100,40
380.67163,380.88593,76,100,40
380.88593,381.10022,75,100,40
381.10022,381.52878,76,100,40
387.10022,387.52878,68,100,40
387.52878,387.95734,69,100,40
387.95734,388.38593,69,100,40
388.38593,388.81448,71,100,40
388.81448,389.24307,69,100,40
389.24307,389.67163,68,100,40
389.67163,390.10022,71,100,40
390.10022,390.52878,73,100,40
390.52878,390.95734,73,100,40
390.95734,391.38593,74,100,40
391.38593,391.81448,73,100,40
391.81448,392.24307,71,100,40
392.24307,392.67163,73,100,40
392.67163,393.52878,73,100,40
393.52878,393.95734,71,100,40
393.95734,394.38593,69,100,40
394.81448,395.24307,68,100,40
395.24307,395.67163,69,100,40
395.67163,396.1002,69,100,40
396.1002,396.52878,71,100,40
396.52878,396.95734,69,100,40
396.95734,397.38593,68,100,40
397.38593,397.81448,71,100,40
397.81448,398.24304,76,100,40
398.24304,398.67163,66,100,40
398.67163,399.1002,73,100,40
399.1002,399.52878,74,100,40
399.52878,399.74304,73,100,40
399.74304,399.95734,69,100,40
399.95734,400.17163,66,100,40
400.17163,400.3859,62,100,40
400.3859,400.6002,61,100,40
400.6002,400.81448,64,100,40
400.81448,401.02878,61,100,40
401.02878,401.24304,64,100,40
401.24304,401.45734,62,100,40
401.45734,401.67163,64,100,40
401.67163,402.1002,61,100,40
1.3863087,1.8148797,69,100,40
1.8148797,2.6720216,69,100,40
2.6720216,3.1005926,68,100,40
3.1005926,3.5291636,69,100,40
3.9577346,4.386306,62,100,40
4.386306,4.8148766,61,100,40
4.8148766,5.243448,57,100,40
5.243448,5.6720185,66,100,40
5.6720185,6.5291605,64,100,40
6.5291605,6.9577317,68,100,40
6.9577317,7.3863025,69,100,40
7.3863025,7.8148737,71,100,40
7.8148737,8.243444,66,100,40
8.243444,8.672015,71,100,40
8.672015,9.314872,69,100,40
9.314872,9.529158,66,100,40
9.529158,10.3863,64,100,40
10.3863,10.814871,68,100,40
10.814871,11.243442,69,100,40
11.672012,12.100584,69,100,40
12.100584,12.957726,69,100,40
12.957726,13.386296,68,100,40
13.386296,13.814868,69,100,40
14.243439,14.672009,62,100,40
14.672009,15.10058,61,100,40
15.10058,15.529152,57,100,40
15.529152,15.957723,66,100,40
15.957723,16.814865,64,100,40
16.814865,17.243435,68,100,40
17.243435,17.672007,69,100,40
17.672007,18.100578,71,100,40
18.100578,18.529148,66,100,40
18.529148,18.95772,71,100,40
18.95772,19.600576,69,100,40
19.600576,19.814861,66,100,40
19.814861,20.672003,64,100,40
20.672003,21.100574,68,100,40
21.100574,21.529146,69,100,40
27.52914,29.243423,73,100,40
29.243423,30.100565,71,100,40
30.100565,30.529137,69,100,40
30.529137,30.957708,68,100,40
30.957708,31.386278,69,100,40
31.386278,32.671993,68,100,40
32.671993,33.529133,73,100,40
33.529133,33.957706,71,100,40
33.957706,34.386276,69,100,40
34.386276,34.814846,66,100,40
34.814846,35.029133,68,100,40
35.029133,35.243416,71,100,40
35.243416,35.67199,73,100,40
35.67199,36.10056,71,100,40
36.10056,36.52913,69,100,40
36.52913,36.957703,68,100,40
37.386272,37.814842,59,100,40
37.814842,38.243416,61,100,40
38.243416,38.671986,61,100,40
38.671986,39.100555,62,100,40
39.100555,39.52913,61,100,40
39.52913,39.9577,59,100,40
39.9577,40.38627,68,100,40
40.38627,40.814842,69,100,40
40.814842,41.243412,69,100,40
41.243412,41.67198,71,100,40
41.67198,42.100555,69,100,40
42.100555,42.529125,68,100,40
42.529125,42.957695,69,100,40
42.957695,43.81484,69,100,40
43.81484,44.24341,68,100,40
44.24341,44.671978,69,100,40
45.10055,45.52912,62,100,40
45.52912,45.95769,61,100,40
45.95769,46.386265,57,100,40
46.386265,46.814835,66,100,40
46.814835,47.671978,64,100,40
47.671978,48.100548,68,100,40
48.100548,48.529118,69,100,40
48.529118,48.95769,71,100,40
48.95769,49.38626,66,100,40
49.38626,49.81483,71,100,40
49.81483,50.457687,69,100,40
50.457687,50.671974,66,100,40
50.671974,51.529114,64,100,40
51.529114,51.957687,68,100,40
51.957687,52.386257,69,100,40
58.386253,60.100536,73,100,40
60.100536,60.957676,71,100,40
60.957676,61.38625,69,100,40
61.38625,61.81482,68,100,40
61.81482,62.24339,69,100,40
62.24339,63.529102,68,100,40
63.529102,64.386246,73,100,40
64.386246,64.81482,71,100,40
64.81482,65.243385,69,100,40
65.243385,65.67196,66,100,40
65.67196,65.886246,68,100,40
65.886246,66.10053,71,100,40
66.10053,66.5291,73,100,40
66.5291,66.95767,71,100,40
66.95767,67.386246,69,100,40
67.386246,67.81481,68,100,40
68.243385,68.67196,59,100,40
68.67196,69.100525,61,100,40
69.100525,69.5291,61,100,40
69.5291,69.95767,62,100,40
69.95767,70.38624,61,100,40
70.38624,70.81481,59,100,40
70.81481,71.243385,68,100,40
71.243385,71.67195,69,100,40
71.67195,72.100525,69,100,40
72.100525,72.52909,71,100,40
72.52909,72.957664,69,100,40
72.957664,73.38624,68,100,40
73.38624,73.814804,69,100,40
73.814804,74.67195,69,100,40
74.67195,75.10052,68,100,40
75.10052,75.52909,69,100,40
75.957664,76.38623,62,100,40
76.38623,76.814804,61,100,40
76.814804,77.24338,57,100,40
77.24338,77.67194,66,100,40
77.67194,78.52909,64,100,40
78.52909,78.95766,68,100,40
78.95766,79.38623,69,100,40
79.38623,79.814804,71,100,40
79.814804,80.24337,66,100,40
80.24337,80.67194,71,100,40
80.67194,81.3148,69,100,40
81.3148,81.52908,66,100,40
81.52908,82.38623,64,100,40
82.38623,82.8148,68,100,40
82.8148,83.24337,69,100,40
84.52908,84.95766,69,100,40
84.95766,85.38622,76,100,40
85.8148,86.24337,71,100,40
86.24337,86.671936,64,100,40
87.10051,87.52908,64,100,40
87.52908,87.95765,71,100,40
88.38622,88.8148,69,100,40
88.8148,89.24336,72,100,40
89.671936,90.1005,74,100,40
90.1005,90.529076,65,100,40
90.95765,91.386215,77,100,40
91.386215,91.81479,67,100,40
91.81479,92.24336,72,100,40
91.81479,92.24336,76,100,40
92.24336,93.1005,74,100,40
92.24336,93.1005,77,100,40
93.1005,93.529076,72,100,40
93.1005,93.529076,76,100,40
93.529076,94.386215,74,100,40
93.529076,94.386215,77,100,40
94.386215,94.81479,72,100,40
94.386215,94.81479,76,100,40
96.95764,97.386215,74,100,40
97.386215,98.243355,73,100,40
98.243355,98.67193,74,100,40
98.67193,99.52907,73,100,40
99.52907,99.95764,74,100,40
102.100494,102.31478,64,100,40
102.31478,102.52907,67,100,40
102.52907,102.74335,64,100,40
102.74335,102.957634,67,100,40
102.957634,103.17192,65,100,40
103.17192,103.38621,67,100,40
103.38621,103.81478,64,100,40
105.100494,105.52906,69,100,40
105.52906,105.957634,76,100,40
106.3862,106.81477,71,100,40
106.81477,107.24335,64,100,40
107.67191,108.10049,64,100,40
108.10049,108.52906,71,100,40
108.95763,109.3862,69,100,40
109.3862,109.81477,72,100,40
110.24334,110.67191,74,100,40
110.67191,111.10049,65,100,40
111.52905,111.95763,77,100,40
111.95763,112.3862,67,100,40
112.3862,112.814766,72,100,40
112.3862,112.814766,76,100,40
112.814766,113.67191,74,100,40
112.814766,113.67191,77,100,40
113.67191,114.10048,72,100,40
113.67191,114.10048,76,100,40
114.10048,114.95763,74,100,40
114.10048,114.95763,77,100,40
114.95763,115.38619,72,100,40
114.95763,115.38619,76,100,40
117.52905,117.95762,74,100,40
117.95762,118.814766,73,100,40
118.814766,119.24333,74,100,40
119.24333,120.10048,73,100,40
120.10048,120.529045,74,100,40
122.6719,122.886185,64,100,40
122.886185,123.10047,67,100,40
123.10047,123.31476,64,100,40
123.31476,123.529045,67,100,40
123.529045,123.74333,65,100,40
123.74333,123.95761,67,100,40
123.95761,124.386185,64,100,40
125.6719,126.10047,72,100,40
126.10047,126.52904,60,100,40
126.95761,127.386185,65,100,40
127.386185,127.81475,61,100,40
128.24333,128.67189,74,100,40
128.67189,129.10046,62,100,40
129.52904,129.95761,67,100,40
129.95761,130.38618,63,100,40
130.38618,130.81474,64,100,40
130.38618,130.81474,76,100,40
130.81474,131.67189,66,100,40
130.81474,131.67189,75,100,40
131.67189,132.10046,64,100,40
131.67189,132.10046,76,100,40
132.10046,132.95761,66,100,40
132.10046,132.95761,75,100,40
132.95761,133.38617,64,100,40
132.95761,133.38617,76,100,40
135.10046,135.31474,71,100,40
135.31474,135.52904,68,100,40
135.52904,135.9576,69,100,40
135.9576,136.38617,57,100,40
136.81474,137.24332,69,100,40
137.24332,137.67189,59,100,40
138.10046,138.52902,68,100,40
138.52902,138.9576,59,100,40
139.38617,139.81474,64,100,40
139.81474,140.24332,69,100,40
140.67189,141.10045,57,100,40
141.10045,141.52902,60,100,40
141.9576,142.38617,59,100,40
142.38617,142.81474,62,100,40
143.24332,143.67188,74,100,40
143.67188,144.10045,71,100,40
144.52902,144.9576,64,100,40
144.52902,144.9576,72,100,40
144.9576,145.81474,64,100,40
144.9576,145.81474,74,100,40
145.81474,146.2433,64,100,40
145.81474,146.2433,72,100,40
146.2433,147.10045,64,100,40
146.2433,147.10045,74,100,40
147.10045,147.52902,60,100,40
147.52902,147.9576,71,100,40
147.9576,148.38615,69,100,40
148.38615,148.81473,67,100,40
148.81473,149.2433,65,100,40
149.2433,149.67188,64,100,40
149.67188,150.10045,62,100,40
150.10045,150.95758,60,100,40
150.95758,151.38615,62,100,40
151.38615,152.2433,60,100,40
152.2433,152.67188,62,100,40
154.81473,155.67188,64,100,40
155.67188,156.10043,68,100,40
156.10043,156.529,69,100,40
157.81473,158.2433,72,100,40
158.2433,158.67186,60,100,40
159.10043,159.529,65,100,40
159.529,159.95758,61,100,40
160.38615,160.81473,74,100,40
160.81473,161.24329,62,100,40
161.67186,162.10043,67,100,40
162.10043,162.529,63,100,40
162.529,162.95758,64,100,40
162.529,162.95758,76,100,40
162.95758,163.81471,66,100,40
162.95758,163.81471,75,100,40
163.81471,164.24329,64,100,40
163.81471,164.24329,76,100,40
164.24329,165.10043,66,100,40
164.24329,165.10043,75,100,40
165.10043,165.529,64,100,40
165.10043,165.529,76,100,40
167.24329,167.45757,71,100,40
167.45757,167.67186,68,100,40
167.67186,168.10043,69,100,40
168.10043,168.52899,57,100,40
168.95757,169.38614,69,100,40
169.38614,169.81471,59,100,40
170.24329,170.67186,68,100,40
170.67186,171.10042,59,100,40
171.52899,171.95757,64,100,40
171.95757,172.38614,69,100,40
172.81471,173.24329,57,100,40
173.24329,173.67184,60,100,40
174.10042,174.52899,59,100,40
174.52899,174.95757,62,100,40
175.38614,175.81471,74,100,40
175.81471,176.24327,71,100,40
176.67184,177.10042,64,100,40
176.67184,177.10042,72,100,40
177.10042,177.95757,64,100,40
177.10042,177.95757,74,100,40
177.95757,178.38614,64,100,40
177.95757,178.38614,72,100,40
178.38614,179.24327,64,100,40
178.38614,179.24327,74,100,40
179.24327,179.67184,60,100,40
179.67184,180.10042,71,100,40
180.10042,180.52899,69,100,40
180.52899,180.95755,67,100,40
180.95755,181.38612,65,100,40
181.38612,181.8147,64,100,40
181.8147,182.24327,62,100,40
182.24327,183.10042,60,100,40
183.10042,183.52898,62,100,40
183.52898,184.38612,60,100,40
184.38612,184.8147,62,100,40
186.95755,187.8147,64,100,40
187.8147,188.24327,68,100,40
188.24327,188.67183,69,100,40
189.1004,189.52898,69,100,40
189.52898,190.38612,69,100,40
190.38612,190.8147,68,100,40
190.8147,191.24326,69,100,40
191.67183,192.1004,62,100,40
192.1004,192.52898,61,100,40
192.52898,192.95755,57,100,40
192.95755,193.38612,66,100,40
193.38612,194.24326,64,100,40
194.24326,194.67183,68,100,40
194.67183,195.1004,69,100,40
195.1004,195.52898,71,100,40
195.52898,195.95755,66,100,40
195.95755,196.38611,71,100,40
196.38611,197.02898,69,100,40
197.02898,197.24326,66,100,40
197.24326,198.1004,64,100,40
198.1004,198.52896,68,100,40
198.52896,198.95753,69,100,40
204.95753,206.67181,73,100,40
206.67181,207.52896,71,100,40
207.52896,207.95753,69,100,40
207.95753,208.38611,68,100,40
208.38611,208.81467,69,100,40
208.81467,210.10039,68,100,40
210.10039,210.95753,73,100,40
210.95753,211.3861,71,100,40
211.3861,211.81467,69,100,40
211.81467,212.24324,66,100,40
212.24324,212.45752,68,100,40
212.45752,212.67181,71,100,40
212.67181,213.10039,73,100,40
213.10039,213.52896,71,100,40
213.52896,213.95752,69,100,40
213.95752,214.3861,68,100,40
214.81467,215.24324,59,100,40
215.24324,215.67181,61,100,40
215.67181,216.10037,61,100,40
216.10037,216.52895,62,100,40
216.52895,216.95752,61,100,40
216.95752,217.3861,59,100,40
217.3861,217.81467,68,100,40
217.81467,218.24324,69,100,40
218.24324,218.6718,69,100,40
218.6718,219.10037,71,100,40
219.10037,219.52895,69,100,40
219.52895,219.95752,68,100,40
219.95752,220.3861,69,100,40
220.3861,221.24323,69,100,40
221.24323,221.6718,68,100,40
221.6718,222.10037,69,100,40
222.52895,222.95752,62,100,40
222.95752,223.3861,61,100,40
223.3861,223.81465,57,100,40
223.81465,224.24323,66,100,40
224.24323,225.10037,64,100,40
225.10037,225.52895,68,100,40
225.52895,225.95752,69,100,40
225.95752,226.38608,71,100,40
226.38608,226.81465,66,100,40
226.81465,227.24323,71,100,40
227.24323,227.88608,69,100,40
227.88608,228.10037,66,100,40
228.10037,228.9575,64,100,40
228.9575,229.38608,68,100,40
229.38608,229.81465,69,100,40
231.10036,231.52893,64,100,40
231.52893,231.9575,64,100,40
232.38608,232.81465,66,100,40
232.81465,233.24323,66,100,40
233.67178,234.10036,62,100,40
234.10036,234.52893,62,100,40
234.9575,235.38608,61,100,40
235.38608,235.81465,61,100,40
236.24321,236.67178,64,100,40
236.67178,237.10036,64,100,40
237.10036,237.52893,62,100,40
237.9575,238.38608,67,100,40
238.38608,239.24321,66,100,40
239.24321,239.67178,67,100,40
239.67178,240.52893,66,100,40
243.52893,244.38606,57,100,40
244.38606,244.81464,56,100,40
244.81464,245.24321,57,100,40
246.52892,246.95749,64,100,40
246.95749,247.38606,64,100,40
247.81464,248.24321,66,100,40
248.24321,248.67177,66,100,40
249.10034,249.52892,62,100,40
249.52892,249.95749,62,100,40
250.38606,250.81464,61,100,40
250.81464,251.2432,61,100,40
251.67177,252.10034,64,100,40
252.10034,252.52892,64,100,40
252.52892,252.95749,62,100,40
253.38606,253.81462,67,100,40
253.81462,254.67177,66,100,40
254.67177,255.10034,67,100,40
255.10034,255.95749,66,100,40
258.9575,259.81464,57,100,40
259.81464,260.2432,56,100,40
260.2432,260.67175,57,100,40
271.8146,272.2432,66,100,40
272.2432,272.67175,63,100,40
272.67175,273.1003,66,100,40
273.1003,274.38605,64,100,40
274.38605,274.8146,66,100,40
274.8146,275.24316,63,100,40
275.24316,275.67175,66,100,40
275.67175,276.3146,68,100,40
276.3146,276.5289,66,100,40
276.5289,276.95746,69,100,40
276.95746,277.6003,68,100,40
277.6003,277.8146,66,100,40
277.8146,278.24316,69,100,40
278.24316,278.88602,68,100,40
278.88602,279.1003,66,100,40
279.1003,279.5289,69,100,40
279.5289,280.17175,68,100,40
280.17175,280.38602,66,100,40
280.38602,280.8146,69,100,40
280.8146,281.24316,68,100,40
282.95746,283.38602,70,100,40
283.38602,286.38602,71,100,40
286.38602,286.8146,71,100,40
286.8146,287.24316,71,100,40
287.24316,287.67172,71,100,40
287.67172,288.1003,71,100,40
288.1003,288.52887,71,100,40
288.52887,288.95746,71,100,40
288.95746,289.38602,71,100,40
289.38602,289.8146,71,100,40
289.8146,290.24316,71,100,40
291.52887,291.95746,64,100,40
291.95746,292.38602,64,100,40
292.81458,293.24316,66,100,40
293.24316,293.67172,66,100,40
294.1003,294.52887,62,100,40
294.52887,294.95746,62,100,40
295.38602,295.81458,61,100,40
295.81458,296.24316,61,100,40
296.67172,297.1003,64,100,40
297.1003,297.52887,64,100,40
297.52887,297.95743,62,100,40
298.38602,298.81458,67,100,40
298.81458,299.24316,66,100,40
299.24316,299.67172,66,100,40
299.67172,300.10028,67,100,40
300.10028,300.95743,66,100,40
302.67172,303.10028,71,100,40
303.10028,303.52887,73,100,40
305.24313,305.67172,73,100,40
305.67172,306.10028,74,100,40
307.81458,309.10028,66,100,40
309.10028,309.31458,64,100,40
309.31458,309.52887,61,100,40
309.52887,309.74313,64,100,40
309.74313,309.95743,61,100,40
309.95743,310.17172,64,100,40
310.17172,310.386,62,100,40
310.386,310.81458,61,100,40
321.95743,322.386,66,100,40
322.386,322.81454,63,100,40
322.81454,323.24313,66,100,40
323.24313,324.52884,64,100,40
324.52884,324.95743,66,100,40
324.95743,325.386,63,100,40
325.386,325.81454,66,100,40
325.81454,326.4574,68,100,40
326.4574,326.6717,66,100,40
326.6717,327.10028,69,100,40
327.10028,327.74313,68,100,40
327.74313,327.9574,66,100,40
327.9574,328.386,69,100,40
328.386,329.02884,68,100,40
329.02884,329.24313,66,100,40
329.24313,329.6717,69,100,40
329.6717,330.31454,68,100,40
330.31454,330.52884,66,100,40
330.52884,330.9574,69,100,40
330.9574,331.386,68,100,40
333.10025,333.52884,70,100,40
333.52884,336.52884,71,100,40
336.52884,336.9574,71,100,40
336.9574,337.386,71,100,40
337.386,337.81454,71,100,40
337.81454,338.2431,71,100,40
338.2431,338.6717,71,100,40
338.6717,339.10025,71,100,40
339.10025,339.52884,71,100,40
339.52884,339.9574,71,100,40
339.9574,340.38596,71,100,40
341.6717,342.10025,64,100,40
342.10025,342.52884,64,100,40
342.9574,343.38596,66,100,40
343.38596,343.81454,66,100,40
344.2431,344.6717,62,100,40
344.6717,345.10025,62,100,40
345.5288,345.9574,61,100,40
345.9574,346.38596,61,100,40
346.81454,347.2431,64,100,40
347.2431,347.6717,64,100,40
347.6717,348.10025,62,100,40
348.5288,348.9574,67,100,40
348.9574,349.38596,66,100,40
349.38596,349.81454,66,100,40
349.81454,350.2431,67,100,40
350.2431,351.10025,66,100,40
352.8145,353.2431,71,100,40
353.2431,353.67166,73,100,40
355.38596,355.8145,73,100,40
355.8145,356.2431,74,100,40
357.95737,359.2431,66,100,40
359.2431,359.45737,64,100,40
359.45737,359.67166,61,100,40
359.67166,359.88596,64,100,40
359.88596,360.10025,61,100,40
360.10025,360.3145,64,100,40
360.3145,360.5288,62,100,40
360.5288,360.95737,61,100,40
361.38596,361.8145,69,100,40
361.8145,362.67166,69,100,40
362.67166,363.10022,68,100,40
363.10022,363.5288,69,100,40
363.95737,364.38596,62,100,40
364.38596,364.8145,61,100,40
364.8145,365.24307,57,100,40
365.24307,365.67166,66,100,40
365.67166,366.5288,64,100,40
366.5288,366.95737,68,100,40
366.95737,367.38596,69,100,40
367.38596,367.8145,71,100,40
367.8145,368.24307,66,100,40
368.24307,368.67166,71,100,40
368.67166,369.3145,69,100,40
369.3145,369.5288,66,100,40
369.5288,370.38593,64,100,40
370.38593,370.8145,68,100,40
370.8145,371.24307,69,100,40
377.24307,378.95737,73,100,40
378.95737,379.8145,71,100,40
379.8145,380.24307,69,100,40
380.24307,380.67163,68,100,40
380.67163,381.10022,69,100,40
381.10022,382.38593,68,100,40
382.38593,383.24307,73,100,40
383.24307,383.67163,71,100,40
383.67163,384.10022,69,100,40
384.10022,384.52878,66,100,40
384.52878,384.74307,68,100,40
384.74307,384.95737,71,100,40
384.95737,385.38593,73,100,40
385.38593,385.81448,71,100,40
385.81448,386.24307,69,100,40
386.24307,386.67163,68,100,40
387.10022,387.52878,59,100,40
387.52878,387.95734,61,100,40
387.95734,388.38593,61,100,40
388.38593,388.81448,62,100,40
388.81448,389.24307,61,100,40
389.24307,389.67163,59,100,40
389.67163,390.10022,68,100,40
390.10022,390.52878,69,100,40
390.52878,390.95734,69,100,40
390.95734,391.38593,71,100,40
391.38593,391.81448,69,100,40
391.81448,392.24307,68,100,40
392.24307,392.67163,69,100,40
392.67163,393.52878,69,100,40
393.52878,393.95734,68,100,40
393.95734,394.38593,69,100,40
394.81448,395.24307,62,100,40
395.24307,395.67163,61,100,40
395.67163,396.1002,57,100,40
396.1002,396.52878,66,100,40
396.52878,397.38593,64,100,40
397.38593,397.81448,68,100,40
397.81448,398.24304,69,100,40
398.24304,398.67163,71,100,40
398.67163,399.1002,66,100,40
399.1002,399.52878,71,100,40
399.52878,400.17163,69,100,40
400.17163,400.3859,66,100,40
400.3859,401.24304,64,100,40
401.24304,401.67163,68,100,40
401.67163,402.1002,69,100,40
1.3863087,1.8148797,64,100,41
1.8148797,3.5291636,64,100,41
3.9577346,4.8148766,64,100,41
4.8148766,5.243448,66,100,41
5.243448,5.6720185,59,100,41
5.6720185,5.8863044,61,100,41
5.8863044,6.1005898,62,100,41
6.1005898,6.5291605,64,100,41
6.5291605,7.3863025,64,100,41
7.3863025,7.8148737,59,100,41
7.8148737,8.02916,61,100,41
8.02916,8.243444,57,100,41
8.243444,8.886301,64,100,41
8.886301,9.100587,61,100,41
9.100587,9.314872,59,100,41
9.314872,9.529158,62,100,41
9.529158,9.957728,64,100,41
9.957728,10.3863,64,100,41
10.3863,10.814871,64,100,41
10.814871,11.243442,64,100,41
11.672012,12.100584,64,100,41
12.100584,13.814868,64,100,41
14.243439,15.10058,64,100,41
15.10058,15.529152,66,100,41
15.529152,15.957723,59,100,41
15.957723,16.172009,61,100,41
16.172009,16.386293,62,100,41
16.386293,16.814865,64,100,41
16.814865,17.672007,64,100,41
17.672007,18.100578,59,100,41
18.100578,18.314863,61,100,41
18.314863,18.529148,57,100,41
18.529148,19.172005,64,100,41
19.172005,19.386292,61,100,41
19.386292,19.600576,59,100,41
19.600576,19.814861,62,100,41
19.814861,20.243433,64,100,41
20.243433,20.672003,64,100,41
20.672003,21.100574,64,100,41
21.100574,21.529146,64,100,41
21.957716,22.386288,59,100,41
22.386288,22.81486,61,100,41
22.81486,23.24343,61,100,41
23.24343,23.672,62,100,41
23.672,24.100573,61,100,41
24.100573,24.529142,59,100,41
24.529142,24.957714,61,100,41
24.957714,25.386284,62,100,41
25.386284,25.814856,62,100,41
25.814856,26.243427,64,100,41
26.243427,26.671997,62,100,41
26.671997,27.100569,61,100,41
27.52914,28.386282,69,100,41
28.386282,28.814852,68,100,41
28.814852,29.243423,66,100,41
29.243423,29.671995,63,100,41
29.671995,30.100565,64,100,41
30.100565,30.529137,57,100,41
30.529137,30.957708,59,100,41
30.957708,31.386278,66,100,41
31.386278,32.24342,64,100,41
32.24342,32.671993,62,100,41
32.671993,33.529133,61,100,41
33.529133,33.74342,63,100,41
33.74342,33.957706,65,100,41
33.957706,34.386276,66,100,41
34.386276,35.029133,59,100,41
35.029133,35.243416,68,100,41
35.243416,35.67199,69,100,41
35.67199,36.10056,68,100,41
36.10056,36.314846,66,100,41
36.314846,36.52913,63,100,41
36.52913,36.957703,64,100,41
37.814842,38.02913,52,100,41
38.02913,38.243416,51,100,41
38.243416,38.4577,52,100,41
38.4577,38.671986,51,100,41
38.671986,38.886272,52,100,41
38.886272,39.100555,51,100,41
39.100555,39.52913,52,100,41
40.38627,40.600555,64,100,41
40.600555,40.814842,63,100,41
40.814842,41.029125,64,100,41
41.029125,41.243412,63,100,41
41.243412,41.4577,64,100,41
41.4577,41.67198,63,100,41
41.67198,42.100555,64,100,41
42.529125,42.957695,64,100,41
42.957695,44.671978,64,100,41
45.10055,45.95769,64,100,41
45.95769,46.386265,64,100,41
46.386265,46.814835,66,100,41
46.814835,47.02912,59,100,41
47.02912,47.243404,61,100,41
47.243404,47.671978,62,100,41
47.671978,48.529118,64,100,41
48.529118,48.95769,59,100,41
48.95769,49.171974,61,100,41
49.171974,49.38626,57,100,41
49.38626,50.029118,64,100,41
50.029118,50.243404,61,100,41
50.243404,50.457687,59,100,41
50.457687,50.671974,62,100,41
50.671974,51.100544,64,100,41
51.100544,51.529114,64,100,41
51.529114,51.957687,64,100,41
51.957687,52.386257,64,100,41
52.814827,53.2434,59,100,41
53.2434,53.67197,61,100,41
53.67197,54.10054,61,100,41
54.10054,54.529114,62,100,41
54.529114,54.957684,61,100,41
54.957684,55.386253,59,100,41
55.386253,55.814827,61,100,41
55.814827,56.243397,62,100,41
56.243397,56.671967,62,100,41
56.671967,57.10054,64,100,41
57.10054,57.52911,62,100,41
57.52911,57.95768,61,100,41
58.386253,59.243393,69,100,41
59.243393,59.671967,68,100,41
59.671967,60.100536,66,100,41
60.100536,60.529106,63,100,41
60.529106,60.957676,64,100,41
60.957676,61.38625,57,100,41
61.38625,61.81482,59,100,41
61.81482,62.24339,66,100,41
62.24339,63.100533,64,100,41
63.100533,63.529102,62,100,41
63.529102,64.386246,61,100,41
64.386246,64.60053,63,100,41
64.60053,64.81482,65,100,41
64.81482,65.243385,66,100,41
65.243385,65.886246,59,100,41
65.886246,66.10053,68,100,41
66.10053,66.5291,69,100,41
66.5291,66.95767,68,100,41
66.95767,67.17196,66,100,41
67.17196,67.386246,63,100,41
67.386246,67.81481,64,100,41
68.67196,68.88624,52,100,41
68.88624,69.100525,51,100,41
69.100525,69.31481,52,100,41
69.31481,69.5291,51,100,41
69.5291,69.743385,52,100,41
69.743385,69.95767,51,100,41
69.95767,70.38624,52,100,41
71.243385,71.457664,64,100,41
71.457664,71.67195,63,100,41
71.67195,71.88624,64,100,41
71.88624,72.100525,63,100,41
72.100525,72.31481,64,100,41
72.31481,72.52909,63,100,41
72.52909,72.957664,64,100,41
73.38624,73.814804,64,100,41
73.814804,75.52909,64,100,41
75.957664,76.814804,64,100,41
76.814804,77.24338,64,100,41
77.24338,77.67194,66,100,41
77.67194,77.88623,59,100,41
77.88623,78.10052,61,100,41
78.10052,78.52909,62,100,41
78.52909,79.38623,64,100,41
79.38623,79.814804,59,100,41
79.814804,80.02909,61,100,41
80.02909,80.24337,57,100,41
80.24337,80.88623,64,100,41
80.88623,81.10052,61,100,41
81.10052,81.3148,59,100,41
81.3148,81.52908,62,100,41
81.52908,81.95766,64,100,41
81.95766,82.38623,64,100,41
82.38623,82.8148,64,100,41
82.8148,83.24337,64,100,41
84.10051,84.52908,60,100,41
84.52908,84.95766,64,100,41
85.38622,85.8148,65,100,41
85.8148,86.24337,69,100,41
86.671936,87.10051,56,100,41
87.10051,87.52908,59,100,41
87.95765,88.38622,60,100,41
88.38622,88.8148,64,100,41
89.24336,89.671936,65,100,41
89.671936,90.1005,69,100,41
90.529076,90.95765,59,100,41
90.95765,91.386215,62,100,41
91.81479,92.24336,67,100,41
92.24336,93.1005,67,100,41
93.1005,93.529076,67,100,41
93.529076,94.386215,67,100,41
94.386215,94.81479,67,100,41
96.95764,97.386215,65,100,41
96.95764,97.386215,69,100,41
97.386215,98.243355,64,100,41
97.386215,98.243355,69,100,41
98.243355,98.67193,65,100,41
98.243355,98.67193,69,100,41
98.67193,99.52907,64,100,41
98.67193,99.52907,69,100,41
99.52907,99.95764,65,100,41
99.52907,99.95764,69,100,41
102.52907,102.957634,67,100,41
102.957634,103.38621,59,100,41
103.38621,103.81478,60,100,41
104.67192,105.100494,60,100,41
105.100494,105.52906,64,100,41
105.957634,106.3862,65,100,41
106.3862,106.81477,69,100,41
107.24335,107.67191,56,100,41
107.67191,108.10049,59,100,41
108.52906,108.95763,60,100,41
108.95763,109.3862,64,100,41
109.81477,110.24334,65,100,41
110.24334,110.67191,69,100,41
111.10049,111.52905,59,100,41
111.52905,111.95763,62,100,41
112.3862,112.814766,67,100,41
112.814766,113.67191,67,100,41
113.67191,114.10048,67,100,41
114.10048,114.95763,67,100,41
114.95763,115.38619,67,100,41
117.52905,117.95762,65,100,41
117.52905,117.95762,69,100,41
117.95762,118.814766,64,100,41
117.95762,118.814766,69,100,41
118.814766,119.24333,65,100,41
118.814766,119.24333,69,100,41
119.24333,120.10048,64,100,41
119.24333,120.10048,69,100,41
120.10048,120.529045,65,100,41
120.10048,120.529045,69,100,41
123.10047,123.529045,67,100,41
123.529045,123.95761,59,100,41
123.95761,124.386185,60,100,41
125.243324,125.6719,64,100,41
125.6719,126.10047,67,100,41
126.52904,126.95761,69,100,41
126.95761,127.386185,72,100,41
127.81475,128.24333,66,100,41
128.24333,128.67189,69,100,41
129.10046,129.52904,71,100,41
129.52904,129.95761,74,100,41
130.38618,130.81474,68,100,41
130.38618,130.81474,71,100,41
130.81474,131.67189,69,100,41
130.81474,131.67189,72,100,41
131.67189,132.10046,68,100,41
131.67189,132.10046,71,100,41
132.10046,132.95761,69,100,41
132.10046,132.95761,72,100,41
132.95761,133.38617,68,100,41
132.95761,133.38617,71,100,41
135.10046,135.31474,62,100,41
135.31474,135.52904,59,100,41
135.52904,135.74332,60,100,41
135.9576,136.38617,64,100,41
136.38617,136.81474,57,100,41
137.24332,137.67189,69,100,41
137.67189,137.88617,67,100,41
137.88617,138.10046,65,100,41
138.52902,138.74332,64,100,41
138.74332,138.9576,62,100,41
138.9576,139.17189,60,100,41
139.17189,139.38617,59,100,41
139.60045,139.81474,64,100,41
139.81474,140.02902,63,100,41
140.02902,140.24332,62,100,41
140.24332,140.4576,59,100,41
140.4576,140.67189,60,100,41
140.88617,141.10045,64,100,41
141.10045,141.31474,64,100,41
141.31474,141.52902,64,100,41
141.52902,141.74332,64,100,41
141.74332,141.9576,69,100,41
142.17188,142.38617,69,100,41
142.38617,142.60045,68,100,41
142.60045,142.81474,69,100,41
142.81474,143.02902,69,100,41
143.02902,143.24332,59,100,41
143.4576,143.67188,59,100,41
143.67188,143.88617,62,100,41
143.88617,144.10045,65,100,41
144.10045,144.31474,56,100,41
144.31474,144.52902,56,100,41
144.52902,144.9576,69,100,41
144.9576,145.81474,71,100,41
145.81474,146.2433,69,100,41
146.2433,147.10045,71,100,41
147.10045,147.52902,69,100,41
147.52902,147.9576,67,100,41
147.9576,148.38615,65,100,41
148.38615,148.81473,64,100,41
148.81473,149.2433,62,100,41
149.2433,149.67188,60,100,41
149.67188,150.10045,65,100,41
149.67188,150.10045,70,100,41
150.10045,150.95758,65,100,41
150.10045,150.95758,69,100,41
150.95758,151.38615,65,100,41
150.95758,151.38615,70,100,41
151.38615,152.2433,65,100,41
151.38615,152.2433,69,100,41
152.2433,152.67188,65,100,41
152.2433,152.67188,70,100,41
154.81473,155.029,60,100,41
155.029,155.2433,64,100,41
155.2433,155.45758,60,100,41
155.45758,155.67188,64,100,41
155.67188,155.88615,62,100,41
155.88615,156.10043,64,100,41
156.10043,156.529,60,100,41
157.38615,157.81473,64,100,41
157.81473,158.2433,67,100,41
158.67186,159.10043,69,100,41
159.10043,159.529,72,100,41
159.95758,160.38615,66,100,41
160.38615,160.81473,69,100,41
161.24329,161.67186,71,100,41
161.67186,162.10043,74,100,41
162.529,162.95758,68,100,41
162.529,162.95758,71,100,41
162.95758,163.81471,69,100,41
162.95758,163.81471,72,100,41
163.81471,164.24329,68,100,41
163.81471,164.24329,71,100,41
164.24329,165.10043,69,100,41
164.24329,165.10043,72,100,41
165.10043,165.529,68,100,41
165.10043,165.529,71,100,41
167.24329,167.45757,62,100,41
167.45757,167.67186,59,100,41
167.67186,167.88614,60,100,41
168.10043,168.52899,64,100,41
168.52899,168.95757,57,100,41
169.38614,169.81471,69,100,41
169.81471,170.02899,67,100,41
170.02899,170.24329,65,100,41
170.67186,170.88614,64,100,41
170.88614,171.10042,62,100,41
171.10042,171.31471,60,100,41
171.31471,171.52899,59,100,41
171.74329,171.95757,64,100,41
171.95757,172.17186,63,100,41
172.17186,172.38614,62,100,41
172.38614,172.60042,59,100,41
172.60042,172.81471,60,100,41
173.02899,173.24329,64,100,41
173.24329,173.45757,64,100,41
173.45757,173.67184,64,100,41
173.67184,173.88614,64,100,41
173.88614,174.10042,69,100,41
174.31471,174.52899,69,100,41
174.52899,174.74327,68,100,41
174.74327,174.95757,69,100,41
174.95757,175.17184,69,100,41
175.17184,175.38614,59,100,41
175.60042,175.81471,59,100,41
175.81471,176.02899,62,100,41
176.02899,176.24327,65,100,41
176.24327,176.45757,56,100,41
176.45757,176.67184,56,100,41
176.67184,177.10042,69,100,41
177.10042,177.95757,71,100,41
177.95757,178.38614,69,100,41
178.38614,179.24327,71,100,41
179.24327,179.67184,69,100,41
179.67184,180.10042,67,100,41
180.10042,180.52899,65,100,41
180.52899,180.95755,64,100,41
180.95755,181.38612,62,100,41
181.38612,181.8147,60,100,41
181.8147,182.24327,65,100,41
181.8147,182.24327,70,100,41
182.24327,183.10042,65,100,41
182.24327,183.10042,69,100,41
183.10042,183.52898,65,100,41
183.10042,183.52898,70,100,41
183.52898,184.38612,65,100,41
183.52898,184.38612,69,100,41
184.38612,184.8147,65,100,41
184.38612,184.8147,70,100,41
186.95755,187.17184,60,100,41
187.17184,187.38612,64,100,41
187.38612,187.6004,60,100,41
187.6004,187.8147,64,100,41
187.8147,188.02898,62,100,41
188.02898,188.24327,64,100,41
188.24327,188.67183,60,100,41
189.1004,189.52898,64,100,41
189.52898,191.24326,64,100,41
191.67183,192.52898,64,100,41
192.52898,192.95755,66,100,41
192.95755,193.38612,59,100,41
193.38612,193.6004,61,100,41
193.6004,193.81468,62,100,41
193.81468,194.24326,64,100,41
194.24326,195.1004,64,100,41
195.1004,195.52898,59,100,41
195.52898,195.74326,61,100,41
195.74326,195.95755,57,100,41
195.95755,196.6004,64,100,41
196.6004,196.81468,61,100,41
196.81468,197.02898,59,100,41
197.02898,197.24326,62,100,41
197.24326,197.67183,64,100,41
197.67183,198.1004,64,100,41
198.1004,198.52896,64,100,41
198.52896,198.95753,64,100,41
199.38611,199.81468,59,100,41
199.81468,200.24326,61,100,41
200.24326,200.67183,61,100,41
200.67183,201.10039,62,100,41
201.10039,201.52896,61,100,41
201.52896,201.95753,59,100,41
201.95753,202.38611,61,100,41
202.38611,202.81468,62,100,41
202.81468,203.24326,62,100,41
203.24326,203.67181,64,100,41
203.67181,204.10039,62,100,41
204.10039,204.52896,61,100,41
204.95753,205.81468,69,100,41
205.81468,206.24324,68,100,41
206.24324,206.67181,66,100,41
206.67181,207.10039,63,100,41
207.10039,207.52896,64,100,41
207.52896,207.95753,57,100,41
207.95753,208.38611,59,100,41
208.38611,208.81467,66,100,41
208.81467,209.67181,64,100,41
209.67181,210.10039,62,100,41
210.10039,210.95753,61,100,41
210.95753,211.17181,63,100,41
211.17181,211.3861,65,100,41
211.3861,211.81467,66,100,41
211.81467,212.45752,59,100,41
212.45752,212.67181,68,100,41
212.67181,213.10039,69,100,41
213.10039,213.52896,68,100,41
213.52896,213.74324,66,100,41
213.74324,213.95752,63,100,41
213.95752,214.3861,64,100,41
215.24324,215.45752,52,100,41
215.45752,215.67181,51,100,41
215.67181,215.8861,52,100,41
215.8861,216.10037,51,100,41
216.10037,216.31467,52,100,41
216.31467,216.52895,51,100,41
216.52895,216.95752,52,100,41
217.81467,218.02895,64,100,41
218.02895,218.24324,63,100,41
218.24324,218.45752,64,100,41
218.45752,218.6718,63,100,41
218.6718,218.8861,64,100,41
218.8861,219.10037,63,100,41
219.10037,219.52895,64,100,41
219.95752,220.3861,64,100,41
220.3861,222.10037,64,100,41
222.52895,223.3861,64,100,41
223.3861,223.81465,64,100,41
223.81465,224.24323,66,100,41
224.24323,224.45752,59,100,41
224.45752,224.6718,61,100,41
224.6718,225.10037,62,100,41
225.10037,225.95752,64,100,41
225.95752,226.38608,59,100,41
226.38608,226.60037,61,100,41
226.60037,226.81465,57,100,41
226.81465,227.4575,64,100,41
227.4575,227.6718,61,100,41
227.6718,227.88608,59,100,41
227.88608,228.10037,62,100,41
228.10037,228.52895,64,100,41
228.52895,228.9575,64,100,41
228.9575,229.38608,64,100,41
229.38608,229.81465,64,100,41
231.10036,231.52893,61,100,41
231.52893,231.9575,61,100,41
232.38608,232.81465,59,100,41
232.81465,233.24323,59,100,41
233.67178,234.10036,59,100,41
234.10036,234.52893,59,100,41
234.9575,235.38608,57,100,41
235.38608,235.81465,57,100,41
236.24321,236.67178,61,100,41
236.67178,237.10036,61,100,41
237.10036,237.52893,59,100,41
237.9575,238.38608,64,100,41
238.38608,239.24321,62,100,41
239.24321,239.67178,64,100,41
239.67178,240.52893,62,100,41
243.52893,245.24321,52,100,41
246.52892,246.95749,61,100,41
246.95749,247.38606,61,100,41
247.81464,248.24321,59,100,41
248.24321,248.67177,59,100,41
249.10034,249.52892,59,100,41
249.52892,249.95749,59,100,41
250.38606,250.81464,57,100,41
250.81464,251.2432,57,100,41
251.67177,252.10034,61,100,41
252.10034,252.52892,61,100,41
252.52892,252.95749,59,100,41
253.38606,253.81462,64,100,41
253.81462,254.67177,62,100,41
254.67177,255.10034,64,100,41
255.10034,255.95749,62,100,41
258.9575,260.67175,52,100,41
271.8146,275.67175,59,100,41
275.67175,276.3146,64,100,41
276.3146,276.5289,63,100,41
276.5289,276.95746,66,100,41
276.95746,277.6003,64,100,41
277.6003,277.8146,63,100,41
277.8146,278.24316,66,100,41
278.24316,278.88602,64,100,41
278.88602,279.1003,63,100,41
279.1003,279.5289,66,100,41
279.5289,280.17175,64,100,41
280.17175,280.38602,63,100,41
280.38602,280.8146,66,100,41
280.8146,281.24316,64,100,41
284.24316,284.67175,67,100,41
284.67175,286.38602,68,100,41
286.38602,286.8146,68,100,41
286.8146,287.24316,68,100,41
287.24316,287.67172,68,100,41
287.67172,288.1003,68,100,41
288.1003,288.52887,68,100,41
288.52887,288.95746,68,100,41
288.95746,289.38602,68,100,41
289.38602,289.8146,68,100,41
289.8146,290.24316,68,100,41
291.52887,291.95746,61,100,41
291.95746,292.38602,61,100,41
292.81458,293.24316,59,100,41
293.24316,293.67172,59,100,41
294.1003,294.52887,59,100,41
294.52887,294.95746,59,100,41
295.38602,295.81458,57,100,41
295.81458,296.24316,57,100,41
296.67172,297.1003,61,100,41
297.1003,297.52887,61,100,41
297.52887,297.95743,59,100,41
298.38602,298.81458,64,100,41
298.81458,299.24316,62,100,41
299.24316,299.67172,62,100,41
299.67172,300.10028,64,100,41
300.10028,300.95743,62,100,41
302.67172,303.10028,66,100,41
303.10028,303.52887,67,100,41
305.24313,305.67172,67,100,41
305.24313,306.10028,69,100,41
305.67172,306.10028,66,100,41
307.81458,309.10028,59,100,41
309.10028,309.52887,61,100,41
309.52887,309.95743,57,100,41
309.95743,310.386,52,100,41
310.386,310.81458,52,100,41
321.95743,325.81454,59,100,41
325.81454,326.4574,64,100,41
326.4574,326.6717,63,100,41
326.6717,327.10028,66,100,41
327.10028,327.74313,64,100,41
327.74313,327.9574,63,100,41
327.9574,328.386,66,100,41
328.386,329.02884,64,100,41
329.02884,329.24313,63,100,41
329.24313,329.6717,66,100,41
329.6717,330.31454,64,100,41
330.31454,330.52884,63,100,41
330.52884,330.9574,66,100,41
330.9574,331.386,64,100,41
334.386,334.81454,67,100,41
334.81454,336.52884,68,100,41
336.52884,336.9574,68,100,41
336.9574,337.386,68,100,41
337.386,337.81454,68,100,41
337.81454,338.2431,68,100,41
338.2431,338.6717,68,100,41
338.6717,339.10025,68,100,41
339.10025,339.52884,68,100,41
339.52884,339.9574,68,100,41
339.9574,340.38596,68,100,41
341.6717,342.10025,61,100,41
342.10025,342.52884,61,100,41
342.9574,343.38596,59,100,41
343.38596,343.81454,59,100,41
344.2431,344.6717,59,100,41
344.6717,345.10025,59,100,41
345.5288,345.9574,57,100,41
345.9574,346.38596,57,100,41
346.81454,347.2431,61,100,41
347.2431,347.6717,61,100,41
347.6717,348.10025,59,100,41
348.5288,348.9574,64,100,41
348.9574,349.38596,62,100,41
349.38596,349.81454,62,100,41
349.81454,350.2431,64,100,41
350.2431,351.10025,62,100,41
352.8145,353.2431,66,100,41
353.2431,353.67166,67,100,41
355.38596,355.8145,67,100,41
355.38596,356.2431,69,100,41
355.8145,356.2431,66,100,41
357.95737,359.2431,59,100,41
359.2431,359.67166,61,100,41
359.67166,360.10025,57,100,41
360.10025,360.5288,52,100,41
360.5288,360.95737,52,100,41
361.38596,361.8145,64,100,41
361.8145,363.5288,64,100,41
363.95737,364.8145,64,100,41
364.8145,365.24307,66,100,41
365.24307,365.67166,59,100,41
365.67166,365.88596,61,100,41
365.88596,366.10022,62,100,41
366.10022,366.5288,64,100,41
366.5288,367.38596,64,100,41
367.38596,367.8145,59,100,41
367.8145,368.0288,61,100,41
368.0288,368.24307,57,100,41
368.24307,368.88596,64,100,41
368.88596,369.10022,61,100,41
369.10022,369.3145,59,100,41
369.3145,369.5288,62,100,41
369.5288,369.95737,64,100,41
369.95737,370.38593,64,100,41
370.38593,370.8145,64,100,41
370.8145,371.24307,64,100,41
371.67166,372.10022,59,100,41
372.10022,372.5288,61,100,41
372.5288,372.95737,61,100,41
372.95737,373.38593,62,100,41
373.38593,373.8145,61,100,41
373.8145,374.24307,59,100,41
374.24307,374.67166,61,100,41
374.67166,375.10022,62,100,41
375.10022,375.52878,62,100,41
375.52878,375.95737,64,100,41
375.95737,376.38593,62,100,41
376.38593,376.8145,61,100,41
377.24307,378.10022,69,100,41
378.10022,378.52878,68,100,41
378.52878,378.95737,66,100,41
378.95737,379.38593,63,100,41
379.38593,379.8145,64,100,41
379.8145,380.24307,57,100,41
380.24307,380.67163,59,100,41
380.67163,381.10022,66,100,41
381.10022,381.95737,64,100,41
381.95737,382.38593,62,100,41
382.38593,383.24307,61,100,41
383.24307,383.45737,63,100,41
383.45737,383.67163,65,100,41
383.67163,384.10022,66,100,41
384.10022,384.74307,59,100,41
384.74307,384.95737,68,100,41
384.95737,385.38593,69,100,41
385.38593,385.81448,68,100,41
385.81448,386.02878,66,100,41
386.02878,386.24307,63,100,41
386.24307,386.67163,64,100,41
387.52878,387.74307,52,100,41
387.74307,387.95734,51,100,41
387.95734,388.17163,52,100,41
388.17163,388.38593,51,100,41
388.38593,388.60022,52,100,41
388.60022,388.81448,51,100,41
388.81448,389.24307,52,100,41
390.10022,390.31448,64,100,41
390.31448,390.52878,63,100,41
390.52878,390.74307,64,100,41
390.74307,390.95734,63,100,41
390.95734,391.17163,64,100,41
391.17163,391.38593,63,100,41
391.38593,391.81448,64,100,41
392.24307,392.67163,64,100,41
392.67163,394.38593,64,100,41
394.81448,395.67163,64,100,41
395.67163,396.1002,64,100,41
396.1002,396.52878,66,100,41
396.52878,396.74304,59,100,41
396.74304,396.95734,61,100,41
396.95734,397.38593,62,100,41
397.38593,398.24304,64,100,41
398.24304,398.67163,59,100,41
398.67163,398.88593,61,100,41
398.88593,399.1002,57,100,41
399.1002,399.74304,64,100,41
399.74304,399.95734,61,100,41
399.95734,400.17163,59,100,41
400.17163,400.3859,62,100,41
400.3859,400.81448,64,100,41
400.81448,401.24304,64,100,41
401.24304,401.67163,64,100,41
401.67163,402.1002,64,100,41
1.3863087,1.8148797,45,100,42
1.8148797,2.2434506,45,100,42
2.2434506,2.6720216,49,100,42
2.6720216,3.1005926,52,100,42
3.1005926,3.5291636,57,100,42
3.9577346,4.386306,52,100,42
4.386306,4.8148766,57,100,42
4.8148766,5.243448,54,100,42
5.243448,5.6720185,50,100,42
5.6720185,6.5291605,52,100,42
6.5291605,6.9577317,62,100,42
6.9577317,7.3863025,61,100,42
7.3863025,7.8148737,59,100,42
7.8148737,8.243444,57,100,42
8.243444,8.672015,56,100,42
8.672015,9.100587,57,100,42
9.100587,9.529158,50,100,42
9.529158,9.957728,52,100,42
9.957728,10.3863,52,100,42
10.3863,10.814871,52,100,42
10.814871,11.243442,45,100,42
11.672012,12.100584,45,100,42
12.100584,12.529155,45,100,42
12.529155,12.957726,49,100,42
12.957726,13.386296,52,100,42
13.386296,13.814868,57,100,42
14.243439,14.672009,52,100,42
14.672009,15.10058,57,100,42
15.10058,15.529152,54,100,42
15.529152,15.957723,50,100,42
15.957723,16.814865,52,100,42
16.814865,17.243435,62,100,42
17.243435,17.672007,61,100,42
17.672007,18.100578,59,100,42
18.100578,18.529148,57,100,42
18.529148,18.95772,56,100,42
18.95772,19.386292,57,100,42
19.386292,19.814861,50,100,42
19.814861,20.243433,52,100,42
20.243433,20.672003,52,100,42
20.672003,21.100574,52,100,42
21.100574,21.529146,45,100,42
21.957716,22.386288,56,100,42
22.386288,22.81486,57,100,42
22.81486,23.24343,57,100,42
23.24343,23.672,59,100,42
23.672,24.100573,57,100,42
24.100573,24.529142,56,100,42
24.529142,24.957714,57,100,42
24.957714,25.386284,59,100,42
25.386284,25.814856,59,100,42
25.814856,26.243427,61,100,42
26.243427,26.671997,59,100,42
26.671997,27.100569,57,100,42
30.957708,31.386278,60,100,42
31.386278,32.24342,49,100,42
32.24342,32.671993,59,100,42
32.671993,33.529133,57,100,42
33.529133,33.957706,56,100,42
33.957706,34.386276,54,100,42
34.386276,34.814846,51,100,42
34.814846,35.243416,52,100,42
35.243416,35.457703,57,100,42
35.67199,35.886272,59,100,42
36.10056,36.314846,47,100,42
36.52913,36.743416,40,100,42
36.743416,36.957703,39,100,42
36.957703,37.171986,40,100,42
37.171986,37.386272,39,100,42
37.386272,37.60056,40,100,42
37.60056,37.814842,39,100,42
37.814842,38.243416,40,100,42
39.100555,39.314842,64,100,42
39.314842,39.52913,63,100,42
39.52913,39.743412,64,100,42
39.743412,39.9577,63,100,42
39.9577,40.171986,64,100,42
40.171986,40.38627,63,100,42
40.38627,40.814842,64,100,42
42.529125,42.957695,45,100,42
42.957695,43.386265,45,100,42
43.386265,43.81484,49,100,42
43.81484,44.24341,52,100,42
44.24341,44.671978,57,100,42
45.10055,45.52912,52,100,42
45.52912,45.95769,57,100,42
45.95769,46.386265,54,100,42
46.386265,46.814835,50,100,42
46.814835,47.671978,52,100,42
47.671978,48.100548,62,100,42
48.100548,48.529118,61,100,42
48.529118,48.95769,59,100,42
48.95769,49.38626,57,100,42
49.38626,49.81483,56,100,42
49.81483,50.243404,57,100,42
50.243404,50.671974,50,100,42
50.671974,51.100544,52,100,42
51.100544,51.529114,52,100,42
51.529114,51.957687,52,100,42
51.957687,52.386257,45,100,42
52.814827,53.2434,56,100,42
53.2434,53.67197,57,100,42
53.67197,54.10054,57,100,42
54.10054,54.529114,59,100,42
54.529114,54.957684,57,100,42
54.957684,55.386253,56,100,42
55.386253,55.814827,57,100,42
55.814827,56.243397,59,100,42
56.243397,56.671967,59,100,42
56.671967,57.10054,61,100,42
57.10054,57.52911,59,100,42
57.52911,57.95768,57,100,42
61.81482,62.24339,60,100,42
62.24339,63.100533,49,100,42
63.100533,63.529102,59,100,42
63.529102,64.386246,57,100,42
64.386246,64.81482,56,100,42
64.81482,65.243385,54,100,42
65.243385,65.67196,51,100,42
65.67196,66.10053,52,100,42
66.10053,66.31481,57,100,42
66.5291,66.743385,59,100,42
66.95767,67.17196,47,100,42
67.386246,67.600525,40,100,42
67.600525,67.81481,39,100,42
67.81481,68.0291,40,100,42
68.0291,68.243385,39,100,42
68.243385,68.45767,40,100,42
68.45767,68.67196,39,100,42
68.67196,69.100525,40,100,42
69.95767,70.17195,64,100,42
70.17195,70.38624,63,100,42
70.38624,70.600525,64,100,42
70.600525,70.81481,63,100,42
70.81481,71.0291,64,100,42
71.0291,71.243385,63,100,42
71.243385,71.67195,64,100,42
73.38624,73.814804,45,100,42
73.814804,74.24338,45,100,42
74.24338,74.67195,49,100,42
74.67195,75.10052,52,100,42
75.10052,75.52909,57,100,42
75.957664,76.38623,52,100,42
76.38623,76.814804,57,100,42
76.814804,77.24338,54,100,42
77.24338,77.67194,50,100,42
77.67194,78.52909,52,100,42
78.52909,78.95766,62,100,42
78.95766,79.38623,61,100,42
79.38623,79.814804,59,100,42
79.814804,80.24337,57,100,42
80.24337,80.67194,56,100,42
80.67194,81.10052,57,100,42
81.10052,81.52908,50,100,42
81.52908,81.95766,52,100,42
81.95766,82.38623,52,100,42
82.38623,82.8148,52,100,42
82.8148,83.24337,45,100,42
84.10051,84.52908,57,100,42
84.52908,84.95766,60,100,42
85.38622,85.8148,62,100,42
85.8148,86.24337,65,100,42
86.671936,87.10051,52,100,42
87.10051,87.52908,56,100,42
87.95765,88.38622,57,100,42
88.38622,88.8148,60,100,42
89.24336,89.671936,62,100,42
89.671936,90.1005,65,100,42
90.529076,90.95765,55,100,42
90.95765,91.386215,59,100,42
91.81479,92.24336,60,100,42
92.24336,93.1005,59,100,42
93.1005,93.529076,60,100,42
93.529076,94.386215,59,100,42
94.386215,94.81479,60,100,42
96.95764,97.386215,53,100,42
97.386215,98.243355,55,100,42
98.243355,98.67193,53,100,42
98.67193,99.52907,55,100,42
99.52907,99.95764,53,100,42
102.100494,102.52907,55,100,42
102.52907,102.957634,55,100,42
102.957634,103.38621,55,100,42
103.38621,103.81478,48,100,42
103.81478,104.24335,60,100,42
104.67192,105.100494,57,100,42
105.100494,105.52906,60,100,42
105.957634,106.3862,62,100,42
106.3862,106.81477,65,100,42
107.24335,107.67191,52,100,42
107.67191,108.10049,56,100,42
108.52906,108.95763,57,100,42
108.95763,109.3862,60,100,42
109.81477,110.24334,62,100,42
110.24334,110.67191,65,100,42
111.10049,111.52905,55,100,42
111.52905,111.95763,59,100,42
112.3862,112.814766,60,100,42
112.814766,113.67191,59,100,42
113.67191,114.10048,60,100,42
114.10048,114.95763,59,100,42
114.95763,115.38619,60,100,42
117.52905,117.95762,53,100,42
117.95762,118.814766,55,100,42
118.814766,119.24333,53,100,42
119.24333,120.10048,55,100,42
120.10048,120.529045,53,100,42
122.6719,123.10047,55,100,42
123.10047,123.529045,55,100,42
123.529045,123.95761,55,100,42
123.95761,124.386185,48,100,42
124.386185,124.81476,60,100,42
125.243324,125.6719,48,100,42
125.6719,126.10047,52,100,42
126.52904,126.95761,53,100,42
126.95761,127.386185,57,100,42
127.81475,128.24333,50,100,42
128.24333,128.67189,54,100,42
129.10046,129.52904,55,100,42
129.52904,129.95761,59,100,42
130.38618,130.81474,52,100,42
130.81474,131.67189,40,100,42
131.67189,132.10046,52,100,42
132.10046,132.95761,40,100,42
132.95761,133.38617,52,100,42
135.52904,135.9576,45,100,42
135.9576,136.38617,48,100,42
136.81474,137.24332,50,100,42
137.24332,137.67189,53,100,42
138.10046,138.52902,52,100,42
138.52902,138.9576,56,100,42
139.38617,139.81474,57,100,42
139.81474,140.24332,45,100,42
140.67189,141.10045,48,100,42
141.10045,141.52902,57,100,42
141.9576,142.38617,50,100,42
142.38617,142.81474,53,100,42
143.24332,143.67188,52,100,42
143.67188,144.10045,40,100,42
144.52902,144.9576,45,100,42
144.9576,145.81474,44,100,42
145.81474,146.2433,45,100,42
146.2433,147.10045,44,100,42
147.10045,147.52902,45,100,42
149.67188,150.10045,38,100,42
150.10045,150.95758,39,100,42
150.95758,151.38615,38,100,42
151.38615,152.2433,39,100,42
152.2433,152.67188,38,100,42
154.81473,155.2433,40,100,42
155.2433,155.67188,40,100,42
155.67188,156.10043,40,100,42
156.10043,156.529,45,100,42
156.529,156.95758,57,100,42
157.38615,157.81473,48,100,42
157.81473,158.2433,52,100,42
158.67186,159.10043,53,100,42
159.10043,159.529,57,100,42
159.95758,160.38615,50,100,42
160.38615,160.81473,54,100,42
161.24329,161.67186,55,100,42
161.67186,162.10043,59,100,42
162.529,162.95758,52,100,42
162.95758,163.81471,40,100,42
163.81471,164.24329,52,100,42
164.24329,165.10043,40,100,42
165.10043,165.529,52,100,42
167.67186,168.10043,45,100,42
168.10043,168.52899,48,100,42
168.95757,169.38614,50,100,42
169.38614,169.81471,53,100,42
170.24329,170.67186,52,100,42
170.67186,171.10042,56,100,42
171.52899,171.95757,57,100,42
171.95757,172.38614,45,100,42
172.81471,173.24329,48,100,42
173.24329,173.67184,57,100,42
174.10042,174.52899,50,100,42
174.52899,174.95757,53,100,42
175.38614,175.81471,52,100,42
175.81471,176.24327,40,100,42
176.67184,177.10042,45,100,42
177.10042,177.95757,44,100,42
177.95757,178.38614,45,100,42
178.38614,179.24327,44,100,42
179.24327,179.67184,45,100,42
181.8147,182.24327,38,100,42
182.24327,183.10042,39,100,42
183.10042,183.52898,38,100,42
183.52898,184.38612,39,100,42
184.38612,184.8147,38,100,42
186.95755,187.38612,40,100,42
187.38612,187.8147,40,100,42
187.8147,188.24327,40,100,42
188.24327,188.67183,45,100,42
188.67183,189.1004,57,100,42
189.1004,189.52898,45,100,42
189.52898,189.95755,45,100,42
189.95755,190.38612,49,100,42
190.38612,190.8147,52,100,42
190.8147,191.24326,57,100,42
191.67183,192.1004,52,100,42
192.1004,192.52898,57,100,42
192.52898,192.95755,54,100,42
192.95755,193.38612,50,100,42
193.38612,194.24326,52,100,42
194.24326,194.67183,62,100,42
194.67183,195.1004,61,100,42
195.1004,195.52898,59,100,42
195.52898,195.95755,57,100,42
195.95755,196.38611,56,100,42
196.38611,196.81468,57,100,42
196.81468,197.24326,50,100,42
197.24326,197.67183,52,100,42
197.67183,198.1004,52,100,42
198.1004,198.52896,52,100,42
198.52896,198.95753,45,100,42
199.38611,199.81468,56,100,42
199.81468,200.24326,57,100,42
200.24326,200.67183,57,100,42
200.67183,201.10039,59,100,42
201.10039,201.52896,57,100,42
201.52896,201.95753,56,100,42
201.95753,202.38611,57,100,42
202.38611,202.81468,59,100,42
202.81468,203.24326,59,100,42
203.24326,203.67181,61,100,42
203.67181,204.10039,59,100,42
204.10039,204.52896,57,100,42
208.38611,208.81467,60,100,42
208.81467,209.67181,49,100,42
209.67181,210.10039,59,100,42
210.10039,210.95753,57,100,42
210.95753,211.3861,56,100,42
211.3861,211.81467,54,100,42
211.81467,212.24324,51,100,42
212.24324,212.67181,52,100,42
212.67181,212.8861,57,100,42
213.10039,213.31467,59,100,42
213.52896,213.74324,47,100,42
213.95752,214.17181,40,100,42
214.17181,214.3861,39,100,42
214.3861,214.60039,40,100,42
214.60039,214.81467,39,100,42
214.81467,215.02895,40,100,42
215.02895,215.24324,39,100,42
215.24324,215.67181,40,100,42
216.52895,216.74324,64,100,42
216.74324,216.95752,63,100,42
216.95752,217.17181,64,100,42
217.17181,217.3861,63,100,42
217.3861,217.60037,64,100,42
217.60037,217.81467,63,100,42
217.81467,218.24324,64,100,42
219.95752,220.3861,45,100,42
220.3861,220.81467,45,100,42
220.81467,221.24323,49,100,42
221.24323,221.6718,52,100,42
221.6718,222.10037,57,100,42
222.52895,222.95752,52,100,42
222.95752,223.3861,57,100,42
223.3861,223.81465,54,100,42
223.81465,224.24323,50,100,42
224.24323,225.10037,52,100,42
225.10037,225.52895,62,100,42
225.52895,225.95752,61,100,42
225.95752,226.38608,59,100,42
226.38608,226.81465,57,100,42
226.81465,227.24323,56,100,42
227.24323,227.6718,57,100,42
227.6718,228.10037,50,100,42
228.10037,228.52895,52,100,42
228.52895,228.9575,52,100,42
228.9575,229.38608,52,100,42
229.38608,229.81465,45,100,42
230.6718,231.10036,57,100,42
231.9575,232.38608,50,100,42
233.24323,233.67178,52,100,42
234.52893,234.9575,54,100,42
235.81465,236.24321,49,100,42
237.10036,237.52893,50,100,42
243.52893,243.95749,40,100,42
243.95749,244.38606,40,100,42
244.38606,244.81464,40,100,42
244.81464,245.24321,45,100,42
246.10036,246.52892,57,100,42
247.38606,247.81464,50,100,42
248.67177,249.10034,52,100,42
249.95749,250.38606,54,100,42
251.2432,251.67177,49,100,42
252.52892,252.95749,50,100,42
258.9575,259.38605,40,100,42
259.38605,259.81464,40,100,42
259.81464,260.2432,40,100,42
260.2432,260.67175,45,100,42
271.8146,276.1003,40,100,42
276.5289,276.95746,47,100,42
276.95746,277.38605,52,100,42
277.8146,278.24316,47,100,42
278.24316,278.67175,52,100,42
279.1003,279.5289,59,100,42
279.5289,279.95746,52,100,42
280.38602,280.8146,59,100,42
280.8146,281.24316,52,100,42
285.52887,285.74316,40,100,42
285.74316,285.95746,44,100,42
285.95746,286.17175,47,100,42
286.17175,286.38602,44,100,42
286.38602,286.8146,52,100,42
286.8146,287.02887,47,100,42
287.02887,287.24316,52,100,42
287.24316,287.45746,56,100,42
287.45746,287.67172,52,100,42
287.67172,288.1003,59,100,42
288.1003,288.3146,56,100,42
288.3146,288.52887,59,100,42
288.52887,288.74316,64,100,42
288.74316,288.95746,59,100,42
288.95746,289.17172,64,100,42
289.17172,289.38602,68,100,42
289.38602,289.6003,71,100,42
289.6003,289.8146,68,100,42
289.8146,290.24316,64,100,42
291.1003,291.52887,57,100,42
292.38602,292.81458,50,100,42
293.67172,294.1003,52,100,42
294.95746,295.38602,54,100,42
296.24316,296.67172,49,100,42
297.52887,297.95743,50,100,42
302.67172,303.10028,62,100,42
303.10028,303.52887,64,100,42
305.24313,305.67172,64,100,42
305.67172,306.10028,66,100,42
307.81458,309.10028,50,100,42
309.10028,309.52887,52,100,42
309.52887,309.95743,52,100,42
309.95743,310.386,52,100,42
310.386,310.81458,45,100,42
310.81458,311.24313,57,100,42
321.95743,326.24313,40,100,42
326.6717,327.10028,47,100,42
327.10028,327.52884,52,100,42
327.9574,328.386,47,100,42
328.386,328.81454,52,100,42
329.24313,329.6717,59,100,42
329.6717,330.10028,52,100,42
330.52884,330.9574,59,100,42
330.9574,331.386,52,100,42
335.6717,335.886,40,100,42
335.886,336.10025,44,100,42
336.10025,336.31454,47,100,42
336.31454,336.52884,44,100,42
336.52884,336.9574,52,100,42
336.9574,337.1717,47,100,42
337.1717,337.386,52,100,42
337.386,337.60025,56,100,42
337.60025,337.81454,52,100,42
337.81454,338.2431,59,100,42
338.2431,338.4574,56,100,42
338.4574,338.6717,59,100,42
338.6717,338.886,64,100,42
338.886,339.10025,59,100,42
339.10025,339.31454,64,100,42
339.31454,339.52884,68,100,42
339.52884,339.7431,71,100,42
339.7431,339.9574,68,100,42
339.9574,340.38596,64,100,42
341.2431,341.6717,57,100,42
342.52884,342.9574,50,100,42
343.81454,344.2431,52,100,42
345.10025,345.5288,54,100,42
346.38596,346.81454,49,100,42
347.6717,348.10025,50,100,42
352.8145,353.2431,62,100,42
353.2431,353.67166,64,100,42
355.38596,355.8145,64,100,42
355.8145,356.2431,66,100,42
357.95737,359.2431,50,100,42
359.2431,359.67166,52,100,42
359.67166,360.10025,52,100,42
360.10025,360.5288,52,100,42
360.5288,360.95737,45,100,42
360.95737,361.38596,57,100,42
361.38596,361.8145,45,100,42
361.8145,362.2431,45,100,42
362.2431,362.67166,49,100,42
362.67166,363.10022,52,100,42
363.10022,363.5288,57,100,42
363.95737,364.38596,52,100,42
364.38596,364.8145,57,100,42
364.8145,365.24307,54,100,42
365.24307,365.67166,50,100,42
365.67166,366.5288,52,100,42
366.5288,366.95737,62,100,42
366.95737,367.38596,61,100,42
367.38596,367.8145,59,100,42
367.8145,368.24307,57,100,42
368.24307,368.67166,56,100,42
368.67166,369.10022,57,100,42
369.10022,369.5288,50,100,42
369.5288,369.95737,52,100,42
369.95737,370.38593,52,100,42
370.38593,370.8145,52,100,42
370.8145,371.24307,45,100,42
371.67166,372.10022,56,100,42
372.10022,372.5288,57,100,42
372.5288,372.95737,57,100,42
372.95737,373.38593,59,100,42
373.38593,373.8145,57,100,42
373.8145,374.24307,56,100,42
374.24307,374.67166,57,100,42
374.67166,375.10022,59,100,42
375.10022,375.52878,59,100,42
375.52878,375.95737,61,100,42
375.95737,376.38593,59,100,42
376.38593,376.8145,57,100,42
380.67163,381.10022,60,100,42
381.10022,381.95737,49,100,42
381.95737,382.38593,59,100,42
382.38593,383.24307,57,100,42
383.24307,383.67163,56,100,42
383.67163,384.10022,54,100,42
384.10022,384.52878,51,100,42
384.52878,384.95737,52,100,42
384.95737,385.17163,57,100,42
385.38593,385.60022,59,100,42
385.81448,386.02878,47,100,42
386.24307,386.45737,40,100,42
386.45737,386.67163,39,100,42
386.67163,386.88593,40,100,42
386.88593,387.10022,39,100,42
387.10022,387.31448,40,100,42
387.31448,387.52878,39,100,42
387.52878,387.95734,40,100,42
388.81448,389.02878,64,100,42
389.02878,389.24307,63,100,42
389.24307,389.45734,64,100,42
389.45734,389.67163,63,100,42
389.67163,389.88593,64,100,42
389.88593,390.10022,63,100,42
390.10022,390.52878,64,100,42
392.24307,392.67163,45,100,42
392.67163,393.1002,45,100,42
393.1002,393.52878,49,100,42
393.52878,393.95734,52,100,42
393.95734,394.38593,57,100,42
394.81448,395.24307,52,100,42
395.24307,395.67163,57,100,42
395.67163,396.1002,54,100,42
396.1002,396.52878,50,100,42
396.52878,397.38593,52,100,42
397.38593,397.81448,62,100,42
397.81448,398.24304,61,100,42
398.24304,398.67163,59,100,42
398.67163,399.1002,57,100,42
399.1002,399.52878,56,100,42
399.52878,399.95734,57,100,42
399.95734,400.3859,50,100,42
400.3859,400.81448,52,100,42
400.81448,401.24304,52,100,42
401.24304,401.67163,52,100,42
401.67163,402.1002,45,100,42
261.5289,261.9575,59,100,45
261.5289,261.9575,68,100,45
261.5289,261.9575,62,100,45
261.9575,262.38605,59,100,45
261.9575,262.38605,68,100,45
261.9575,262.38605,62,100,45
261.5289,262.38605,64,100,45
262.8146,263.2432,57,100,45
262.8146,263.2432,69,100,45
262.8146,263.2432,61,100,45
263.2432,263.67175,57,100,45
263.2432,263.67175,69,100,45
263.2432,263.67175,61,100,45
262.8146,263.67175,64,100,45
264.10034,264.5289,68,100,45
264.10034,264.5289,71,100,45
264.5289,264.95746,68,100,45
264.5289,264.95746,71,100,45
264.95746,265.38605,69,100,45
264.95746,265.38605,73,100,45
265.38605,265.8146,68,100,45
265.38605,265.8146,83,100,45
265.8146,266.2432,68,100,45
265.8146,266.2432,83,100,45
264.10034,266.2432,64,100,45
265.8146,266.2432,52,100,45
266.67175,267.10034,59,100,45
266.67175,267.10034,68,100,45
266.67175,267.10034,62,100,45
267.10034,267.5289,59,100,45
267.10034,267.5289,68,100,45
267.10034,267.5289,62,100,45
266.67175,267.5289,64,100,45
267.95746,268.38605,57,100,45
267.95746,268.38605,69,100,45
267.95746,268.38605,60,100,45
268.38605,268.8146,57,100,45
268.38605,268.8146,69,100,45
268.38605,268.8146,60,100,45
267.95746,268.8146,64,100,45
269.2432,269.67175,68,100,45
269.2432,269.67175,71,100,45
269.67175,270.1003,68,100,45
269.67175,270.1003,71,100,45
270.1003,270.5289,69,100,45
270.1003,270.5289,72,100,45
270.5289,270.95746,68,100,45
270.5289,270.95746,71,100,45
269.2432,270.95746,64,100,45
311.67172,312.10028,59,100,45
311.67172,312.10028,68,100,45
311.67172,312.10028,62,100,45
312.10028,312.52887,59,100,45
312.10028,312.52887,68,100,45
312.10028,312.52887,62,100,45
311.67172,312.52887,64,100,45
312.95743,313.386,57,100,45
312.95743,313.386,69,100,45
312.95743,313.386,61,100,45
313.386,313.81458,57,100,45
313.386,313.81458,69,100,45
313.386,313.81458,61,100,45
312.95743,313.81458,64,100,45
314.24313,314.67172,68,100,45
314.24313,314.67172,71,100,45
314.67172,315.10028,68,100,45
314.67172,315.10028,71,100,45
315.10028,315.52884,69,100,45
315.10028,315.52884,73,100,45
315.52884,315.95743,68,100,45
315.52884,315.95743,83,100,45
315.95743,316.386,68,100,45
315.95743,316.386,83,100,45
314.24313,316.386,64,100,45
315.95743,316.386,52,100,45
316.81458,317.24313,59,100,45
316.81458,317.24313,68,100,45
316.81458,317.24313,62,100,45
317.24313,317.6717,59,100,45
317.24313,317.6717,68,100,45
317.24313,317.6717,62,100,45
316.81458,317.6717,64,100,45
318.10028,318.52884,57,100,45
318.10028,318.52884,69,100,45
318.10028,318.52884,60,100,45
318.52884,318.95743,57,100,45
318.52884,318.95743,69,100,45
318.52884,318.95743,60,100,45
318.10028,318.95743,64,100,45
319.386,319.81458,68,100,45
319.386,319.81458,71,100,45
319.81458,320.24313,68,100,45
319.81458,320.24313,71,100,45
320.24313,320.6717,69,100,45
320.24313,320.6717,72,100,45
320.6717,321.10028,68,100,45
320.6717,321.10028,71,100,45
319.386,321.10028,64,100,45
