start_time,end_time,note_value,velocity,instrument_program_number
0.52916664,0.7291667,76,100,40
0.9291667,1.1291667,76,100,40
1.3291667,1.5291667,73,100,40
1.7291666,1.9291667,73,100,40
2.1291666,2.4291666,74,100,40
2.4291666,2.5291667,76,100,40
2.5291667,2.8291667,78,100,40
2.8291667,2.9291666,74,100,40
2.9291666,3.1291666,71,100,40
3.3291667,3.5291667,71,100,40
3.7291667,3.9291666,69,100,40
4.1291666,4.329167,69,100,40
4.5291667,4.7291665,71,100,40
4.929167,5.1291666,71,100,40
5.329167,5.3791666,69,100,40
5.3791666,5.429167,71,100,40
5.429167,5.4791665,69,100,40
5.4791665,5.5291667,71,100,40
5.5291667,5.579167,69,100,40
5.579167,5.6291666,71,100,40
5.6291666,5.679167,69,100,40
5.679167,5.7291665,71,100,40
5.7291665,5.7791667,69,100,40
5.7791667,5.829167,71,100,40
5.829167,5.8791666,69,100,40
5.8791666,5.929167,71,100,40
5.929167,6.0291667,68,100,40
6.0291667,6.1291666,69,100,40
6.1291666,6.929167,68,100,40
6.929167,7.1291666,76,100,40
7.329167,7.5291667,76,100,40
7.7291665,7.929167,73,100,40
8.129167,8.329166,73,100,40
8.529166,8.829166,74,100,40
8.829166,8.929167,76,100,40
8.929167,9.229167,78,100,40
9.229167,9.329166,74,100,40
9.329166,9.529166,71,100,40
9.729167,9.929167,71,100,40
10.129167,10.329166,81,100,40
10.529166,10.729167,81,100,40
10.929167,11.129167,83,100,40
11.329166,11.529166,83,100,40
11.729167,11.779166,80,100,40
11.779166,11.829166,81,100,40
11.829166,11.879167,80,100,40
11.879167,11.929167,81,100,40
11.929167,11.979167,80,100,40
11.979167,12.029166,81,100,40
12.029166,12.079166,80,100,40
12.079166,12.129167,81,100,40
12.129167,12.179167,80,100,40
12.179167,12.229167,81,100,40
12.229167,12.279166,80,100,40
12.279166,12.329166,81,100,40
12.329166,12.429167,78,100,40
12.429167,12.529166,80,100,40
12.529166,13.329166,81,100,40
13.329166,13.529166,76,100,40
13.729167,13.929167,76,100,40
14.129167,14.329166,73,100,40
14.529166,14.729167,73,100,40
14.929167,15.229167,74,100,40
15.229167,15.329166,76,100,40
15.329166,15.629167,78,100,40
15.629167,15.729167,74,100,40
15.729167,15.929167,71,100,40
16.129168,16.329166,71,100,40
16.529167,16.729166,69,100,40
16.929167,17.129168,69,100,40
17.329166,17.529167,71,100,40
17.729166,17.929167,71,100,40
18.129168,18.179167,69,100,40
18.179167,18.229166,71,100,40
18.229166,18.279167,69,100,40
18.279167,18.329166,71,100,40
18.329166,18.379168,69,100,40
18.379168,18.429167,71,100,40
18.429167,18.479166,69,100,40
18.479166,18.529167,71,100,40
18.529167,18.579166,69,100,40
18.579166,18.629168,71,100,40
18.629168,18.679167,69,100,40
18.679167,18.729166,71,100,40
18.729166,18.829166,68,100,40
18.829166,18.929167,69,100,40
18.929167,19.729166,68,100,40
19.729166,19.929167,76,100,40
20.129168,20.329166,76,100,40
20.529167,20.729166,73,100,40
20.929167,21.129168,73,100,40
21.329166,21.629168,74,100,40
21.629168,21.729166,76,100,40
21.729166,22.029167,78,100,40
22.029167,22.129168,74,100,40
22.129168,22.329166,71,100,40
22.529167,22.729166,71,100,40
22.929167,23.129168,81,100,40
23.329166,23.529167,81,100,40
23.729166,23.929167,83,100,40
24.129168,24.329166,83,100,40
24.529167,24.579166,80,100,40
24.579166,24.629168,81,100,40
24.629168,24.679167,80,100,40
24.679167,24.729166,81,100,40
24.729166,24.779167,80,100,40
24.779167,24.829166,81,100,40
24.829166,24.879168,80,100,40
24.879168,24.929167,81,100,40
24.929167,24.979166,80,100,40
24.979166,25.029167,81,100,40
25.029167,25.079166,80,100,40
25.079166,25.129168,81,100,40
25.129168,25.229166,78,100,40
25.229166,25.329166,80,100,40
25.329166,26.129168,81,100,40
26.129168,26.929167,80,100,40
26.929167,27.129168,83,100,40
27.129168,27.329166,81,100,40
27.329166,27.529167,80,100,40
27.529167,27.729166,78,100,40
27.729166,28.129168,76,100,40
28.129168,28.529167,74,100,40
28.529167,29.329166,73,100,40
29.329166,30.129168,80,100,40
30.129168,30.329166,83,100,40
30.329166,30.529167,81,100,40
30.529167,30.729166,80,100,40
30.729166,30.929167,78,100,40
30.929167,31.129168,78,100,40
31.129168,31.329166,76,100,40
31.329166,31.529167,74,100,40
31.529167,31.729166,73,100,40
31.729166,31.929167,71,100,40
31.929167,32.129166,73,100,40
32.129166,32.329166,74,100,40
32.329166,32.529167,75,100,40
32.529167,32.729168,76,100,40
32.929165,33.129166,76,100,40
33.329166,33.529167,73,100,40
33.729168,33.929165,73,100,40
34.129166,34.429165,74,100,40
34.429165,34.529167,76,100,40
34.529167,34.829166,78,100,40
34.829166,34.929165,74,100,40
34.929165,35.129166,71,100,40
35.329166,35.529167,71,100,40
35.729168,35.929165,81,100,40
36.129166,36.329166,81,100,40
36.529167,36.729168,83,100,40
36.929165,37.129166,83,100,40
37.329166,37.379166,80,100,40
37.379166,37.429165,81,100,40
37.429165,37.479168,80,100,40
37.479168,37.529167,81,100,40
37.529167,37.579166,80,100,40
37.579166,37.629166,81,100,40
37.629166,37.679165,80,100,40
37.679165,37.729168,81,100,40
37.729168,37.779167,80,100,40
37.779167,37.829166,81,100,40
37.829166,37.879166,80,100,40
37.879166,37.929165,81,100,40
37.929165,38.029167,78,100,40
38.029167,38.129166,80,100,40
38.129166,38.929165,81,100,40
38.929165,39.729168,80,100,40
39.729168,39.929165,83,100,40
39.929165,40.129166,81,100,40
40.129166,40.329166,80,100,40
40.329166,40.529167,78,100,40
40.529167,40.929165,76,100,40
40.929165,41.329166,74,100,40
41.329166,42.129166,73,100,40
42.129166,42.929165,80,100,40
42.929165,43.129166,83,100,40
43.129166,43.329166,81,100,40
43.329166,43.529167,80,100,40
43.529167,43.729168,78,100,40
43.729168,43.929165,78,100,40
43.929165,44.129166,76,100,40
44.129166,44.329166,74,100,40
44.329166,44.529167,73,100,40
44.529167,44.729168,71,100,40
44.729168,44.929165,73,100,40
44.929165,45.129166,74,100,40
45.129166,45.329166,75,100,40
45.329166,45.529167,76,100,40
45.729168,45.929165,76,100,40
46.129166,46.329166,73,100,40
46.529167,46.729168,73,100,40
46.929165,47.229168,74,100,40
47.229168,47.329166,76,100,40
47.329166,47.629166,78,100,40
47.629166,47.729168,74,100,40
47.729168,47.929165,71,100,40
48.129166,48.329166,71,100,40
48.529167,48.729168,81,100,40
48.929165,49.129166,81,100,40
49.329166,49.529167,83,100,40
49.729168,49.929165,83,100,40
50.129166,50.179165,80,100,40
50.179165,50.229168,81,100,40
50.229168,50.279167,80,100,40
50.279167,50.329166,81,100,40
50.329166,50.379166,80,100,40
50.379166,50.429165,81,100,40
50.429165,50.479168,80,100,40
50.479168,50.529167,81,100,40
50.529167,50.579166,80,100,40
50.579166,50.629166,81,100,40
50.629166,50.679165,80,100,40
50.679165,50.729168,81,100,40
50.729168,50.829166,78,100,40
50.829166,50.929165,80,100,40
50.929165,51.729168,81,100,40
51.729168,51.929165,76,100,40
52.129166,52.329166,76,100,40
52.529167,52.729168,73,100,40
52.929165,53.129166,73,100,40
53.329166,53.629166,74,100,40
53.629166,53.729168,76,100,40
53.729168,54.029167,78,100,40
54.029167,54.129166,74,100,40
54.129166,54.329166,71,100,40
54.529167,54.729168,71,100,40
54.929165,55.129166,69,100,40
55.329166,55.529167,69,100,40
55.729168,55.929165,71,100,40
56.129166,56.329166,71,100,40
56.529167,56.579166,73,100,40
56.579166,56.629166,74,100,40
56.629166,56.679165,73,100,40
56.679165,56.729168,74,100,40
56.729168,56.779167,73,100,40
56.779167,56.829166,74,100,40
56.829166,56.879166,73,100,40
56.879166,56.929165,74,100,40
56.929165,56.979168,73,100,40
56.979168,57.029167,74,100,40
57.029167,57.079166,73,100,40
57.079166,57.129166,74,100,40
57.129166,57.229168,71,100,40
57.229168,57.329166,73,100,40
57.329166,57.729168,71,100,40
61.329166,61.529167,69,100,40
61.729168,61.929165,69,100,40
62.129166,62.329166,71,100,40
62.529167,62.729168,71,100,40
62.929165,62.979168,68,100,40
62.979168,63.029167,69,100,40
63.029167,63.079166,68,100,40
63.079166,63.129166,69,100,40
63.129166,63.179165,68,100,40
63.179165,63.229168,69,100,40
63.229168,63.279167,68,100,40
63.279167,63.329166,69,100,40
63.329166,63.379166,68,100,40
63.379166,63.429165,69,100,40
63.429165,63.479168,68,100,40
63.479168,63.529167,69,100,40
63.529167,63.629166,66,100,40
63.629166,63.729168,68,100,40
63.729168,64.129166,69,100,40
64.52917,64.729164,76,100,40
64.92917,65.129166,76,100,40
65.32917,65.52917,73,100,40
65.729164,65.92917,73,100,40
66.129166,66.42917,74,100,40
66.42917,66.52917,76,100,40
66.52917,66.82917,78,100,40
66.82917,66.92917,74,100,40
66.92917,67.129166,71,100,40
67.32917,67.52917,71,100,40
67.729164,67.92917,69,100,40
68.129166,68.32917,69,100,40
68.52917,68.729164,71,100,40
68.92917,69.129166,71,100,40
69.32917,69.379166,73,100,40
69.379166,69.42917,74,100,40
69.42917,69.479164,73,100,40
69.479164,69.52917,74,100,40
69.52917,69.57917,73,100,40
69.57917,69.629166,74,100,40
69.629166,69.67917,73,100,40
69.67917,69.729164,74,100,40
69.729164,69.77917,73,100,40
69.77917,69.82917,74,100,40
69.82917,69.879166,73,100,40
69.879166,69.92917,74,100,40
69.92917,70.02917,71,100,40
70.02917,70.129166,73,100,40
70.129166,70.52917,71,100,40
74.129166,74.32917,69,100,40
74.52917,74.729164,69,100,40
74.92917,75.129166,71,100,40
75.32917,75.52917,71,100,40
75.729164,75.77917,68,100,40
75.77917,75.82917,69,100,40
75.82917,75.879166,68,100,40
75.879166,75.92917,69,100,40
75.92917,75.979164,68,100,40
75.979164,76.02917,69,100,40
76.02917,76.07917,68,100,40
76.07917,76.129166,69,100,40
76.129166,76.17917,68,100,40
76.17917,76.229164,69,100,40
76.229164,76.27917,68,100,40
76.27917,76.32917,69,100,40
76.32917,76.42917,66,100,40
76.42917,76.52917,68,100,40
76.52917,76.92917,69,100,40
77.32917,77.52917,62,100,40
77.52917,77.729164,64,100,40
77.729164,77.92917,62,100,40
77.92917,78.129166,64,100,40
78.129166,78.32917,61,100,40
78.32917,78.52917,64,100,40
78.52917,78.729164,61,100,40
78.729164,78.92917,64,100,40
78.92917,79.129166,59,100,40
79.129166,79.32917,64,100,40
79.32917,79.52917,59,100,40
79.52917,79.729164,64,100,40
79.729164,79.92917,61,100,40
79.92917,80.129166,64,100,40
80.129166,80.32917,61,100,40
80.32917,80.52917,64,100,40
80.52917,80.729164,62,100,40
80.729164,80.92917,64,100,40
80.92917,81.129166,62,100,40
81.129166,81.32917,64,100,40
81.32917,81.52917,61,100,40
81.52917,81.729164,64,100,40
81.729164,81.92917,69,100,40
81.92917,82.129166,71,100,40
82.129166,82.32917,72,100,40
82.32917,82.52917,73,100,40
82.52917,82.729164,74,100,40
82.729164,82.92917,73,100,40
82.92917,83.32917,68,100,40
83.729164,83.92917,76,100,40
84.129166,84.32917,76,100,40
84.52917,84.729164,73,100,40
84.92917,85.129166,73,100,40
85.32917,85.629166,74,100,40
85.629166,85.729164,76,100,40
85.729164,86.02917,78,100,40
86.02917,86.129166,74,100,40
86.129166,86.32917,71,100,40
86.52917,86.729164,71,100,40
86.92917,87.129166,69,100,40
87.32917,87.52917,69,100,40
87.729164,87.92917,71,100,40
88.129166,88.32917,71,100,40
88.52917,88.57917,68,100,40
88.57917,88.629166,69,100,40
88.629166,88.67917,68,100,40
88.67917,88.729164,69,100,40
88.729164,88.77917,68,100,40
88.77917,88.82917,69,100,40
88.82917,88.879166,68,100,40
88.879166,88.92917,69,100,40
88.92917,88.979164,68,100,40
88.979164,89.02917,69,100,40
89.02917,89.07917,68,100,40
89.07917,89.129166,69,100,40
89.129166,89.229164,66,100,40
89.229164,89.32917,68,100,40
89.32917,89.729164,69,100,40
90.129166,90.32917,62,100,40
90.32917,90.52917,64,100,40
90.52917,90.729164,62,100,40
90.729164,90.92917,64,100,40
90.92917,91.129166,61,100,40
91.129166,91.32917,64,100,40
91.32917,91.52917,61,100,40
91.52917,91.729164,64,100,40
91.729164,91.92917,59,100,40
91.92917,92.129166,64,100,40
92.129166,92.32917,59,100,40
92.32917,92.52917,64,100,40
92.52917,92.729164,61,100,40
92.729164,92.92917,64,100,40
92.92917,93.129166,61,100,40
93.129166,93.32917,64,100,40
93.32917,93.52917,62,100,40
93.52917,93.729164,64,100,40
93.729164,93.92917,62,100,40
93.92917,94.129166,64,100,40
94.129166,94.32917,61,100,40
94.32917,94.52917,64,100,40
94.52917,94.729164,69,100,40
94.729164,94.92917,71,100,40
94.92917,95.129166,72,100,40
95.129166,95.32917,73,100,40
95.32917,95.52917,74,100,40
95.52917,95.729164,73,100,40
95.729164,96.129166,68,100,40
96.52917,96.729164,76,100,40
96.92917,97.129166,76,100,40
97.32917,97.52917,73,100,40
97.729164,97.92917,73,100,40
98.129166,98.42917,74,100,40
98.42917,98.52917,76,100,40
98.52917,98.82917,78,100,40
98.82917,98.92917,74,100,40
98.92917,99.129166,71,100,40
99.32917,99.52917,71,100,40
99.729164,99.92917,69,100,40
100.129166,100.32917,69,100,40
100.52917,100.729164,71,100,40
100.92917,101.129166,71,100,40
101.32917,101.379166,68,100,40
101.379166,101.42917,69,100,40
101.42917,101.479164,68,100,40
101.479164,101.52917,69,100,40
101.52917,101.57917,68,100,40
101.57917,101.629166,69,100,40
101.629166,101.67917,68,100,40
101.67917,101.729164,69,100,40
101.729164,101.77917,68,100,40
101.77917,101.82917,69,100,40
101.82917,101.879166,68,100,40
101.879166,101.92917,69,100,40
101.92917,102.02917,66,100,40
102.02917,102.129166,68,100,40
102.129166,102.52917,69,100,40
102.92917,103.629166,76,100,40
103.629166,103.729164,73,100,40
103.729164,104.129166,81,100,40
104.42917,104.52917,81,100,40
104.52917,105.129166,80,100,40
105.129166,105.229164,81,100,40
105.229164,105.32917,83,100,40
105.32917,105.729164,74,100,40
106.02917,106.129166,71,100,40
106.129166,106.42917,73,100,40
106.42917,106.52917,69,100,40
106.52917,106.729164,76,100,40
106.92917,107.229164,74,100,40
107.229164,107.32917,71,100,40
107.32917,107.52917,76,100,40
107.729164,108.129166,74,100,40
108.129166,108.15583,73,100,40
108.15583,108.17917,74,100,40
108.17917,108.20583,73,100,40
108.20583,108.229164,74,100,40
108.229164,108.25584,73,100,40
108.25584,108.27917,74,100,40
108.27917,108.30583,73,100,40
108.30583,108.32917,74,100,40
108.32917,108.355835,73,100,40
108.355835,108.379166,74,100,40
108.379166,108.40583,73,100,40
108.40583,108.42917,74,100,40
108.42917,108.479164,71,100,40
108.479164,108.52917,73,100,40
108.52917,108.92917,71,100,40
109.32917,110.02917,76,100,40
110.02917,110.129166,73,100,40
110.129166,110.52917,81,100,40
110.82917,110.92917,81,100,40
110.92917,111.52917,80,100,40
111.52917,111.629166,81,100,40
111.629166,111.729164,83,100,40
111.729164,112.129166,74,100,40
112.42917,112.52917,71,100,40
112.52917,112.82917,73,100,40
112.82917,112.92917,76,100,40
112.92917,113.32917,81,100,40
113.32917,113.629166,71,100,40
113.629166,113.729164,74,100,40
113.729164,114.129166,78,100,40
114.129166,114.17917,68,100,40
114.17917,114.229164,69,100,40
114.229164,114.27917,68,100,40
114.27917,114.32917,69,100,40
114.32917,114.379166,68,100,40
114.379166,114.42917,69,100,40
114.42917,114.479164,68,100,40
114.479164,114.52917,69,100,40
114.52917,114.57917,68,100,40
114.57917,114.629166,69,100,40
114.629166,114.67917,68,100,40
114.67917,114.729164,69,100,40
114.729164,114.82917,66,100,40
114.82917,114.92917,68,100,40
114.92917,115.32917,69,100,40
115.729164,116.42917,76,100,40
116.42917,116.52917,73,100,40
116.52917,116.92917,81,100,40
117.229164,117.32917,81,100,40
117.32917,117.92917,80,100,40
117.92917,118.02917,81,100,40
118.02917,118.129166,83,100,40
118.129166,118.52917,74,100,40
118.82917,118.92917,71,100,40
118.92917,119.229164,73,100,40
119.229164,119.32917,69,100,40
119.32917,119.52917,76,100,40
119.729164,120.02917,74,100,40
120.02917,120.129166,71,100,40
120.129166,120.32917,76,100,40
120.52917,120.92917,74,100,40
120.92917,120.95583,73,100,40
120.95583,120.979164,74,100,40
120.979164,121.00584,73,100,40
121.00584,121.02917,74,100,40
121.02917,121.05583,73,100,40
121.05583,121.07917,74,100,40
121.07917,121.105835,73,100,40
121.105835,121.129166,74,100,40
121.129166,121.15583,73,100,40
121.15583,121.17917,74,100,40
121.17917,121.20583,73,100,40
121.20583,121.229164,74,100,40
121.229164,121.27917,71,100,40
121.27917,121.32917,73,100,40
121.32917,121.729164,71,100,40
122.129166,122.82917,76,100,40
122.82917,122.92917,73,100,40
122.92917,123.32917,81,100,40
123.629166,123.729164,81,100,40
123.729164,124.32917,80,100,40
124.32917,124.42917,81,100,40
124.42917,124.52917,83,100,40
124.52917,124.92917,74,100,40
125.229164,125.32917,71,100,40
125.32917,125.629166,73,100,40
125.629166,125.729164,76,100,40
125.729164,126.129166,81,100,40
126.129166,126.42917,71,100,40
126.42917,126.52917,74,100,40
126.52917,126.92917,78,100,40
126.92917,126.979164,68,100,40
126.979164,127.02917,69,100,40
127.02917,127.07917,68,100,40
127.07917,127.129166,69,100,40
127.129166,127.17917,68,100,40
127.17917,127.229164,69,100,40
127.229164,127.27917,68,100,40
127.27917,127.32917,69,100,40
127.32917,127.379166,68,100,40
127.379166,127.42917,69,100,40
127.42917,127.479164,68,100,40
127.479164,127.52917,69,100,40
127.52917,127.629166,66,100,40
127.629166,127.729164,68,100,40
127.729164,128.12917,69,100,40
128.92917,129.72917,74,100,40
129.72917,129.92917,73,100,40
130.52916,131.32916,86,100,40
131.32916,131.52916,85,100,40
132.12917,132.92917,62,100,40
132.92917,133.12917,61,100,40
133.32916,133.4625,59,100,40
133.4625,133.59584,64,100,40
133.59584,133.72917,66,100,40
133.72917,133.8625,67,100,40
133.8625,133.99583,68,100,40
133.99583,134.12917,69,100,40
134.12917,134.2625,70,100,40
134.2625,134.39583,71,100,40
134.39583,134.52916,72,100,40
134.52916,134.6625,73,100,40
134.6625,134.79584,74,100,40
134.79584,134.92917,75,100,40
134.92917,135.62917,76,100,40
135.62917,135.72917,73,100,40
135.72917,136.12917,81,100,40
136.42917,136.52916,81,100,40
136.52916,137.12917,80,100,40
137.12917,137.22917,81,100,40
137.22917,137.32916,83,100,40
137.32916,137.72917,74,100,40
138.02916,138.12917,71,100,40
138.12917,138.42917,73,100,40
138.42917,138.52916,76,100,40
138.52916,138.72917,81,100,40
138.92917,139.22917,71,100,40
139.22917,139.32916,74,100,40
139.32916,139.72917,78,100,40
139.72917,139.77916,68,100,40
139.77916,139.82916,69,100,40
139.82916,139.87917,68,100,40
139.87917,139.92917,69,100,40
139.92917,139.97917,68,100,40
139.97917,140.02916,69,100,40
140.02916,140.07916,68,100,40
140.07916,140.12917,69,100,40
140.12917,140.17917,68,100,40
140.17917,140.22917,69,100,40
140.22917,140.27916,68,100,40
140.27916,140.32916,69,100,40
140.32916,140.42917,66,100,40
140.42917,140.52916,68,100,40
140.52916,140.92917,69,100,40
141.72917,142.52916,74,100,40
142.52916,142.72917,73,100,40
143.32916,144.12917,86,100,40
144.12917,144.32916,85,100,40
144.92917,145.72917,62,100,40
145.72917,145.92917,61,100,40
146.12917,146.2625,59,100,40
146.2625,146.39583,64,100,40
146.39583,146.52916,66,100,40
146.52916,146.6625,67,100,40
146.6625,146.79584,68,100,40
146.79584,146.92917,69,100,40
146.92917,147.0625,70,100,40
147.0625,147.19583,71,100,40
147.19583,147.32916,72,100,40
147.32916,147.4625,73,100,40
147.4625,147.59584,74,100,40
147.59584,147.72917,75,100,40
147.72917,148.42917,76,100,40
148.42917,148.52916,73,100,40
148.52916,148.92917,81,100,40
149.22917,149.32916,81,100,40
149.32916,149.92917,80,100,40
149.92917,150.02916,81,100,40
150.02916,150.12917,83,100,40
150.12917,150.52916,74,100,40
150.82916,150.92917,71,100,40
150.92917,151.22917,73,100,40
151.22917,151.32916,76,100,40
151.32916,151.52916,81,100,40
151.72917,152.02916,71,100,40
152.02916,152.12917,74,100,40
152.12917,152.52916,78,100,40
152.52916,152.57916,68,100,40
152.57916,152.62917,69,100,40
152.62917,152.67917,68,100,40
152.67917,152.72917,69,100,40
152.72917,152.77916,68,100,40
152.77916,152.82916,69,100,40
152.82916,152.87917,68,100,40
152.87917,152.92917,69,100,40
152.92917,152.97917,68,100,40
152.97917,153.02916,69,100,40
153.02916,153.07916,68,100,40
153.07916,153.12917,69,100,40
153.12917,153.22917,66,100,40
153.22917,153.32916,68,100,40
153.32916,153.72917,69,100,40
154.12917,155.51378,60,100,40
155.51378,155.97531,72,100,40
155.97531,157.35994,74,100,40
157.35994,157.82147,62,100,40
157.82147,157.93686,60,100,40
158.05225,158.16762,60,100,40
158.51378,158.74455,60,100,40
158.74455,158.97531,62,100,40
158.97531,159.0907,62,100,40
159.43686,159.66762,60,100,40
159.66762,159.89839,59,100,40
159.89839,160.12917,59,100,40
160.12917,160.35992,59,100,40
161.51378,162.89839,72,100,40
162.89839,163.35992,84,100,40
163.35992,164.74454,86,100,40
164.74454,165.20609,74,100,40
165.20609,165.32146,72,100,40
165.43684,165.55223,72,100,40
165.89839,166.12915,72,100,40
166.12915,166.35992,71,100,40
166.35992,166.47531,71,100,40
166.82146,167.05223,76,100,40
167.05223,167.283,69,100,40
167.283,167.51376,69,100,40
167.51376,167.74454,69,100,40
168.89838,169.12915,76,100,40
169.12915,169.35992,80,100,40
169.35992,169.59068,83,100,40
169.59068,169.82146,87,100,40
169.82146,170.05223,88,100,40
170.05223,170.28299,83,100,40
170.28299,170.51376,84,100,40
170.51376,170.74454,81,100,40
170.74454,170.97531,80,100,40
170.97531,171.20607,83,100,40
171.20607,171.43684,82,100,40
171.43684,171.66762,81,100,40
171.66762,171.89838,80,100,40
171.89838,172.12915,79,100,40
172.12915,172.35992,78,100,40
172.35992,172.59068,77,100,40
172.59068,172.82146,76,100,40
172.82146,173.05223,80,100,40
173.05223,173.28299,83,100,40
173.28299,173.51376,87,100,40
173.51376,173.74454,88,100,40
173.74454,173.9753,83,100,40
173.9753,174.20607,84,100,40
174.20607,174.43684,81,100,40
174.43684,174.6676,80,100,40
174.6676,174.89838,79,100,40
174.89838,175.12915,78,100,40
175.12915,175.35991,77,100,40
175.35991,175.59068,76,100,40
175.59068,175.82146,75,100,40
175.82146,176.05222,74,100,40
176.05222,176.28299,73,100,40
176.28299,177.6676,72,100,40
177.6676,178.12914,84,100,40
178.12914,179.51376,86,100,40
179.51376,179.9753,74,100,40
179.9753,180.09068,72,100,40
180.20607,180.32144,72,100,40
180.6676,180.89838,72,100,40
180.89838,181.12914,71,100,40
181.12914,181.24452,71,100,40
181.59068,181.82144,76,100,40
181.82144,182.05222,69,100,40
182.05222,182.1676,69,100,40
182.28299,182.74452,69,100,40
183.6676,183.89836,76,100,40
184.12914,184.35991,76,100,40
184.59067,184.82144,73,100,40
185.05222,185.28297,73,100,40
185.51375,185.85991,74,100,40
185.85991,185.9753,76,100,40
185.9753,186.32144,78,100,40
186.32144,186.43683,74,100,40
186.43683,186.6676,71,100,40
186.89836,187.12914,71,100,40
187.35991,187.59067,69,100,40
187.82144,188.05222,69,100,40
188.28297,188.51375,76,100,40
188.74452,188.97528,76,100,40
189.20605,189.26375,73,100,40
189.26375,189.32144,74,100,40
189.32144,189.37914,73,100,40
189.37914,189.43683,74,100,40
189.43683,189.49452,73,100,40
189.49452,189.55222,74,100,40
189.55222,189.6099,73,100,40
189.6099,189.66759,74,100,40
189.66759,189.72528,73,100,40
189.72528,189.78297,74,100,40
189.78297,189.84067,73,100,40
189.84067,189.89836,74,100,40
189.89836,190.01375,71,100,40
190.01375,190.12914,73,100,40
190.12914,190.59067,71,100,40
191.0522,191.28297,57,100,40
191.28297,191.39836,59,100,40
191.39836,191.51375,61,100,40
191.51375,191.62914,62,100,40
191.62914,191.7445,64,100,40
191.7445,191.8599,66,100,40
191.8599,191.97528,68,100,40
191.97528,192.09067,69,100,40
192.09067,192.20605,71,100,40
192.20605,192.32144,73,100,40
192.32144,192.43681,74,100,40
192.43681,192.5522,76,100,40
192.5522,192.66759,78,100,40
192.66759,192.78297,80,100,40
192.78297,192.89836,81,100,40
192.89836,193.01375,81,100,40
193.01375,193.12914,80,100,40
193.12914,193.2445,86,100,40
193.2445,193.3599,85,100,40
193.3599,193.47528,83,100,40
193.47528,193.59067,81,100,40
193.59067,193.70605,80,100,40
193.70605,193.82144,78,100,40
193.82144,193.93681,78,100,40
193.93681,194.0522,76,100,40
194.0522,194.16759,83,100,40
194.16759,194.28297,81,100,40
194.28297,194.39836,80,100,40
194.39836,194.51375,78,100,40
194.51375,194.62912,76,100,40
194.62912,194.7445,74,100,40
194.7445,194.8599,73,100,40
194.8599,194.97528,74,100,40
194.97528,195.09067,76,100,40
195.09067,195.20605,78,100,40
195.20605,195.32143,80,100,40
195.32143,195.43681,81,100,40
195.43681,195.5522,80,100,40
195.5522,195.66759,81,100,40
195.66759,195.78297,71,100,40
195.78297,195.89836,73,100,40
195.89836,196.01373,74,100,40
196.01373,196.12912,76,100,40
196.12912,196.2445,77,100,40
196.2445,196.3599,78,100,40
196.3599,196.47528,77,100,40
196.47528,196.59067,78,100,40
196.59067,196.70605,75,100,40
196.70605,196.82143,76,100,40
196.82143,196.87912,73,100,40
196.93681,196.9945,69,100,40
197.0522,197.16759,76,100,40
197.16759,197.28297,74,100,40
197.28297,197.34067,71,100,40
197.39836,197.45604,68,100,40
197.51373,197.62912,68,100,40
197.62912,197.7445,69,100,40
197.7445,197.8022,64,100,40
197.8599,197.91759,61,100,40
197.97528,198.20604,57,100,40
198.43681,198.66759,76,100,40
198.89835,199.12912,76,100,40
199.3599,199.59065,73,100,40
199.82143,200.0522,73,100,40
200.28297,200.62912,74,100,40
200.62912,200.7445,76,100,40
200.7445,201.09065,78,100,40
201.09065,201.20604,74,100,40
201.20604,201.43681,71,100,40
201.66759,201.89835,71,100,40
202.12912,202.3599,69,100,40
202.59065,202.82143,69,100,40
203.0522,203.28296,76,100,40
203.51373,203.7445,76,100,40
203.97527,204.03296,73,100,40
204.03296,204.09065,74,100,40
204.09065,204.14835,73,100,40
204.14835,204.20604,74,100,40
204.20604,204.26373,73,100,40
204.26373,204.32143,74,100,40
204.32143,204.37912,73,100,40
204.37912,204.43681,74,100,40
204.43681,204.4945,73,100,40
204.4945,204.5522,74,100,40
204.5522,204.60988,73,100,40
204.60988,204.66757,74,100,40
204.66757,204.78296,71,100,40
204.78296,204.89835,73,100,40
204.89835,205.35988,71,100,40
205.82143,206.05219,57,100,40
206.05219,206.16757,59,100,40
206.16757,206.28296,61,100,40
206.28296,206.39835,62,100,40
206.39835,206.51373,64,100,40
206.51373,206.62912,66,100,40
206.62912,206.74449,68,100,40
206.74449,206.85988,69,100,40
206.85988,206.97527,71,100,40
206.97527,207.09065,73,100,40
207.09065,207.20604,74,100,40
207.20604,207.32143,76,100,40
207.32143,207.4368,78,100,40
207.4368,207.55219,80,100,40
207.55219,207.66757,81,100,40
207.66757,207.78296,81,100,40
207.78296,207.89835,80,100,40
207.89835,208.01373,86,100,40
208.01373,208.12912,85,100,40
208.12912,208.24449,83,100,40
208.24449,208.35988,81,100,40
208.35988,208.47527,80,100,40
208.47527,208.59065,78,100,40
208.59065,208.70604,78,100,40
208.70604,208.82143,76,100,40
208.82143,208.9368,83,100,40
208.9368,209.05219,81,100,40
209.05219,209.16757,80,100,40
209.16757,209.28296,78,100,40
209.28296,209.39835,76,100,40
209.39835,209.51373,74,100,40
209.51373,209.6291,73,100,40
209.6291,209.74449,74,100,40
209.74449,209.85988,76,100,40
209.85988,209.97527,78,100,40
209.97527,210.09065,80,100,40
210.09065,210.20604,81,100,40
210.20604,210.32141,80,100,40
210.32141,210.4368,81,100,40
210.4368,210.55219,71,100,40
210.55219,210.66757,73,100,40
210.66757,210.78296,74,100,40
210.78296,210.89835,76,100,40
210.89835,211.01372,77,100,40
211.01372,211.1291,78,100,40
211.1291,211.24449,77,100,40
211.24449,211.35988,78,100,40
211.35988,211.47527,75,100,40
211.47527,211.59065,76,100,40
211.59065,211.64835,73,100,40
211.70604,211.76372,69,100,40
211.82141,211.9368,76,100,40
211.9368,212.05219,74,100,40
212.05219,212.10988,71,100,40
212.16757,212.22527,68,100,40
212.28296,212.39835,68,100,40
212.39835,212.51372,69,100,40
212.51372,212.57141,64,100,40
212.6291,212.6868,61,100,40
212.74449,212.97527,57,100,40
213.20602,213.32141,56,100,40
213.32141,213.4368,59,100,40
213.4368,213.49449,64,100,40
213.55219,213.60988,68,100,40
213.66757,213.72527,71,100,40
213.78296,213.84065,76,100,40
213.89833,213.95602,80,100,40
214.01372,214.07141,83,100,40
214.1291,214.24449,86,100,40
214.24449,214.35988,83,100,40
214.35988,214.41757,80,100,40
214.47527,214.53296,83,100,40
214.59064,214.70602,81,100,40
214.70602,214.82141,85,100,40
214.82141,214.9368,73,100,40
214.9368,215.05219,76,100,40
215.05219,215.16757,74,100,40
215.16757,215.28296,71,100,40
215.28296,215.39833,68,100,40
215.39833,215.51372,69,100,40
215.51372,215.6291,71,100,40
215.6291,215.74449,68,100,40
215.74449,215.80219,64,100,40
215.85988,215.91757,62,100,40
215.97527,216.09064,61,100,40
216.09064,216.20602,64,100,40
216.20602,216.32141,69,100,40
216.32141,216.4368,64,100,40
216.4368,216.55219,61,100,40
216.55219,216.66757,64,100,40
216.66757,216.72527,61,100,40
216.78294,216.84064,57,100,40
216.89833,217.01372,56,100,40
217.01372,217.1291,59,100,40
217.1291,217.1868,64,100,40
217.24449,217.30219,68,100,40
217.35988,217.41757,71,100,40
217.47525,217.53294,76,100,40
217.59064,217.64833,80,100,40
217.70602,217.76372,83,100,40
217.82141,217.9368,86,100,40
217.9368,218.05219,83,100,40
218.05219,218.10988,80,100,40
218.16756,218.22525,83,100,40
218.28294,218.39833,81,100,40
218.39833,218.51372,85,100,40
218.51372,218.6291,88,100,40
218.6291,218.74449,85,100,40
218.74449,218.85988,81,100,40
218.85988,218.97525,85,100,40
218.97525,219.09064,76,100,40
219.09064,219.20602,81,100,40
219.20602,219.32141,73,100,40
219.32141,219.4368,76,100,40
219.4368,219.55219,69,100,40
219.55219,219.66756,73,100,40
219.66756,219.78294,64,100,40
219.78294,219.89833,64,100,40
219.89833,220.01372,66,100,40
220.01372,220.1291,68,100,40
220.1291,220.24449,69,100,40
220.24449,220.35986,71,100,40
220.35986,220.47525,73,100,40
220.47525,220.59064,74,100,40
220.59064,220.82141,76,100,40
221.05217,221.28294,76,100,40
221.51372,221.74448,73,100,40
221.97525,222.20602,73,100,40
222.4368,222.78294,74,100,40
222.78294,222.89833,76,100,40
222.89833,223.24448,78,100,40
223.24448,223.35986,74,100,40
223.35986,223.59064,71,100,40
223.82141,224.05217,71,100,40
224.28294,224.51372,69,100,40
224.74448,224.97525,69,100,40
225.20602,225.43678,71,100,40
225.66756,225.89833,71,100,40
226.12909,226.18678,68,100,40
226.18678,226.24448,69,100,40
226.24448,226.30217,68,100,40
226.30217,226.35986,69,100,40
226.35986,226.41756,68,100,40
226.41756,226.47525,69,100,40
226.47525,226.53294,68,100,40
226.53294,226.59064,69,100,40
226.59064,226.64833,68,100,40
226.64833,226.70602,69,100,40
226.70602,226.7637,68,100,40
226.7637,226.8214,69,100,40
226.8214,226.93678,66,100,40
226.93678,227.05217,68,100,40
227.05217,227.5137,69,100,40
227.97525,228.09064,56,100,40
228.09064,228.20601,59,100,40
228.20601,228.2637,64,100,40
228.3214,228.37909,68,100,40
228.43678,228.49448,71,100,40
228.55217,228.60986,76,100,40
228.66756,228.72525,80,100,40
228.78294,228.84064,83,100,40
228.89832,229.0137,86,100,40
229.0137,229.12909,83,100,40
229.12909,229.18678,80,100,40
229.24448,229.30217,83,100,40
229.35986,229.47525,81,100,40
229.47525,229.59064,85,100,40
229.59064,229.70601,73,100,40
229.70601,229.8214,76,100,40
229.8214,229.93678,74,100,40
229.93678,230.05217,71,100,40
230.05217,230.16756,68,100,40
230.16756,230.28294,69,100,40
230.28294,230.39832,71,100,40
230.39832,230.5137,68,100,40
230.5137,230.5714,64,100,40
230.62909,230.68678,62,100,40
230.74448,230.85986,61,100,40
230.85986,230.97525,64,100,40
230.97525,231.09062,69,100,40
231.09062,231.20601,64,100,40
231.20601,231.3214,61,100,40
231.3214,231.43678,64,100,40
231.43678,231.49448,61,100,40
231.55217,231.60986,57,100,40
231.66756,231.78293,56,100,40
231.78293,231.89832,59,100,40
231.89832,231.95601,64,100,40
232.0137,232.0714,68,100,40
232.12909,232.18678,71,100,40
232.24448,232.30217,76,100,40
232.35986,232.41756,80,100,40
232.47523,232.53293,83,100,40
232.59062,232.70601,86,100,40
232.70601,232.8214,83,100,40
232.8214,232.87909,80,100,40
232.93678,232.99448,83,100,40
233.05217,233.16756,81,100,40
233.16756,233.28293,85,100,40
233.28293,233.39832,88,100,40
233.39832,233.5137,85,100,40
233.5137,233.62909,81,100,40
233.62909,233.74448,85,100,40
233.74448,233.85986,76,100,40
233.85986,233.97523,81,100,40
233.97523,234.09062,73,100,40
234.09062,234.20601,76,100,40
234.20601,234.3214,69,100,40
234.3214,234.43678,73,100,40
234.43678,234.55217,64,100,40
234.55217,234.66754,64,100,40
234.66754,234.78293,66,100,40
234.78293,234.89832,68,100,40
234.89832,235.0137,69,100,40
235.0137,235.12909,71,100,40
235.12909,235.24448,73,100,40
235.24448,235.35985,74,100,40
235.35985,235.59062,76,100,40
235.8214,236.05215,76,100,40
236.28293,236.5137,73,100,40
236.74446,236.97523,73,100,40
237.20601,237.55215,74,100,40
237.55215,237.66754,76,100,40
237.66754,238.0137,78,100,40
238.0137,238.12909,74,100,40
238.12909,238.35985,71,100,40
238.59062,238.8214,71,100,40
239.05215,239.28293,69,100,40
239.5137,239.74446,69,100,40
239.97523,240.20601,71,100,40
240.43677,240.66754,71,100,40
240.89832,240.95601,68,100,40
240.95601,241.0137,69,100,40
241.0137,241.07138,68,100,40
241.07138,241.12907,69,100,40
241.12907,241.18677,68,100,40
241.18677,241.24446,69,100,40
241.24446,241.30215,68,100,40
241.30215,241.35985,69,100,40
241.35985,241.41754,68,100,40
241.41754,241.47523,69,100,40
241.47523,241.53293,68,100,40
241.53293,241.59062,69,100,40
241.59062,241.70601,66,100,40
241.70601,241.82138,68,100,40
241.82138,242.28293,69,100,40
242.74446,243.206,69,100,40
242.74446,243.206,79,100,40
243.66754,244.12907,69,100,40
243.66754,244.12907,78,100,40
244.59062,245.05215,71,100,40
244.59062,245.05215,81,100,40
245.51369,245.97523,71,100,40
245.51369,245.97523,80,100,40
246.43677,246.73677,86,100,40
246.73677,247.03677,83,100,40
247.03677,247.33676,80,100,40
247.33676,247.63676,76,100,40
247.63676,247.93677,74,100,40
247.93677,248.23677,71,100,40
248.23677,248.53677,68,100,40
248.53677,248.83676,64,100,40
248.83676,251.23677,62,100,40
251.23677,253.33676,76,100,40
253.33676,253.48677,78,100,40
253.48677,253.63676,80,100,40
253.63676,254.83676,81,100,40
255.73677,256.03677,81,100,40
256.03677,256.11676,80,100,40
256.11676,256.18677,81,100,40
256.18677,256.26675,80,100,40
256.26675,256.33676,81,100,40
256.33676,256.41678,80,100,40
256.41678,256.48676,81,100,40
256.48676,256.56677,80,100,40
256.56677,256.63678,81,100,40
256.63678,256.71677,80,100,40
256.71677,256.78677,81,100,40
256.78677,256.86676,80,100,40
256.86676,256.93677,81,100,40
256.93677,257.08676,81,100,40
257.08676,257.23676,83,100,40
257.23676,259.03677,74,100,40
259.03677,259.33676,78,100,40
259.33676,259.63678,76,100,40
259.63678,259.93677,74,100,40
259.93677,260.23676,73,100,40
260.23676,260.53677,74,100,40
260.53677,260.83676,71,100,40
260.83676,262.63678,69,100,40
262.63678,263.23676,70,100,40
263.23676,263.53677,73,100,40
263.53677,263.83676,71,100,40
263.83676,264.13678,74,100,40
264.13678,264.43677,73,100,40
264.43677,264.73676,76,100,40
264.73676,265.03677,74,100,40
265.03677,265.33676,78,100,40
265.33676,265.63678,76,100,40
265.63678,266.23676,74,100,40
266.23676,266.83676,73,100,40
266.83676,268.03677,71,100,40
271.03677,271.63678,64,100,40
271.63678,272.23676,64,100,40
272.23676,272.83676,64,100,40
273.43677,274.03677,64,100,40
274.03677,274.63678,64,100,40
274.63678,275.23676,64,100,40
275.83676,276.43677,64,100,40
276.43677,277.03677,64,100,40
277.03677,277.63678,64,100,40
278.23676,278.83676,68,100,40
278.83676,279.43677,68,100,40
279.43677,280.03677,68,100,40
280.03677,280.63678,69,100,40
281.23676,281.83676,69,100,40
282.43677,283.03677,66,100,40
284.83676,286.03677,64,100,40
286.03677,287.23676,68,100,40
287.23676,287.83676,69,100,40
289.63678,291.73676,76,100,40
291.73676,291.88678,78,100,40
291.88678,292.03677,80,100,40
292.03677,293.23676,81,100,40
294.13678,294.43677,81,100,40
294.43677,294.51675,80,100,40
294.51675,294.58676,81,100,40
294.58676,294.66678,80,100,40
294.66678,294.73676,81,100,40
294.73676,294.81677,80,100,40
294.81677,294.88678,81,100,40
294.88678,294.96677,80,100,40
294.96677,295.03677,81,100,40
295.03677,295.11676,80,100,40
295.11676,295.18677,81,100,40
295.18677,295.26675,80,100,40
295.26675,295.33676,81,100,40
295.33676,295.48676,81,100,40
295.48676,295.63678,83,100,40
295.63678,297.43677,74,100,40
297.43677,297.73676,78,100,40
297.73676,298.03677,76,100,40
298.03677,298.33676,74,100,40
298.33676,298.63678,73,100,40
298.63678,298.93677,74,100,40
298.93677,299.23676,71,100,40
299.23676,301.03677,69,100,40
301.03677,301.63678,70,100,40
301.63678,301.93677,73,100,40
301.93677,302.23676,71,100,40
302.23676,302.53677,74,100,40
302.53677,302.83676,73,100,40
302.83676,303.13678,76,100,40
303.13678,303.43677,74,100,40
303.43677,303.73676,78,100,40
303.73676,304.03677,76,100,40
304.03677,304.63678,74,100,40
304.63678,305.23676,73,100,40
305.23676,306.43677,71,100,40
309.43677,310.03677,64,100,40
310.03677,310.63678,64,100,40
310.63678,311.23676,64,100,40
311.83676,312.43677,64,100,40
312.43677,313.03677,64,100,40
313.03677,313.63678,64,100,40
314.23676,314.83676,64,100,40
314.83676,315.43677,64,100,40
315.43677,316.03677,64,100,40
316.63678,317.23676,68,100,40
317.23676,317.83676,68,100,40
317.83676,318.43677,68,100,40
318.43677,319.03677,69,100,40
319.63678,320.23676,69,100,40
320.83676,321.43677,66,100,40
323.23676,324.43677,64,100,40
324.43677,325.63678,68,100,40
325.63678,326.23676,69,100,40
328.63678,328.93677,62,100,40
329.23676,329.53677,62,100,40
329.83676,330.13678,62,100,40
330.43677,331.03677,62,100,40
331.03677,331.63678,61,100,40
331.63678,332.23676,61,100,40
332.23676,332.83676,61,100,40
332.83676,333.13678,59,100,40
333.43677,334.03677,68,100,40
334.03677,334.63678,69,100,40
334.63678,335.23676,71,100,40
335.23676,335.53677,73,100,40
335.83676,336.13678,76,100,40
336.43677,336.73676,73,100,40
337.03677,337.33676,69,100,40
338.23676,338.53677,62,100,40
338.83676,339.13678,62,100,40
339.43677,339.73676,62,100,40
340.03677,340.63678,62,100,40
340.63678,341.23676,61,100,40
341.23676,341.83676,61,100,40
341.83676,342.43677,61,100,40
343.03677,343.63678,61,100,40
343.63678,344.23676,64,100,40
344.23676,344.83676,61,100,40
344.83676,345.13678,59,100,40
345.13678,345.43677,64,100,40
345.43677,345.73676,66,100,40
345.73676,346.03677,68,100,40
346.03677,346.33676,69,100,40
346.33676,346.63678,71,100,40
346.63678,346.93677,73,100,40
346.93677,347.23676,74,100,40
347.23676,349.33676,76,100,40
349.33676,349.63678,73,100,40
349.63678,350.23676,69,100,40
350.23676,350.83676,88,100,40
350.83676,351.43677,85,100,40
351.43677,352.03677,81,100,40
352.03677,353.23676,81,100,40
353.23676,353.38678,80,100,40
353.38678,353.53677,83,100,40
353.53677,353.68677,81,100,40
353.68677,353.83676,85,100,40
353.83676,353.98676,83,100,40
353.98676,354.13678,86,100,40
354.13678,354.28677,85,100,40
354.28677,354.43677,88,100,40
354.43677,355.63678,86,100,40
356.53677,356.83676,74,100,40
356.83676,357.43677,73,100,40
357.43677,358.63678,76,100,40
358.63678,359.53677,81,100,40
359.53677,359.83676,70,100,40
359.83676,360.13678,71,100,40
360.13678,360.43677,73,100,40
360.43677,360.73676,74,100,40
360.73676,361.03677,76,100,40
361.03677,361.33676,77,100,40
361.33676,361.63678,78,100,40
361.63678,362.83676,69,100,40
362.83676,363.13678,73,100,40
363.13678,363.73676,71,100,40
363.73676,364.03677,69,100,40
364.03677,364.63678,69,100,40
367.03677,367.33676,62,100,40
367.63678,367.93677,62,100,40
368.23676,368.53677,62,100,40
368.83676,369.43677,62,100,40
369.43677,370.03677,61,100,40
370.03677,370.63678,61,100,40
370.63678,371.23676,61,100,40
371.23676,371.53677,59,100,40
371.83676,372.43677,68,100,40
372.43677,373.03677,69,100,40
373.03677,373.63678,71,100,40
373.63678,373.93677,73,100,40
374.23676,374.53677,76,100,40
374.83676,375.13678,73,100,40
375.43677,375.73676,69,100,40
376.63678,376.93677,62,100,40
377.23676,377.53677,62,100,40
377.83676,378.13678,62,100,40
378.43677,379.03677,62,100,40
379.03677,379.63678,61,100,40
379.63678,380.23676,61,100,40
380.23676,380.83676,61,100,40
381.43677,382.03677,61,100,40
382.03677,382.63678,64,100,40
382.63678,383.23676,61,100,40
383.23676,383.53677,59,100,40
383.53677,383.83676,64,100,40
383.83676,384.13678,66,100,40
384.13678,384.43677,68,100,40
384.43677,384.73676,69,100,40
384.73676,385.03677,71,100,40
385.03677,385.33676,73,100,40
385.33676,385.63678,74,100,40
385.63678,387.73676,76,100,40
387.73676,388.03677,73,100,40
388.03677,388.63678,69,100,40
388.63678,389.23676,88,100,40
389.23676,389.83676,85,100,40
389.83676,390.43677,81,100,40
390.43677,391.63678,81,100,40
391.63678,391.78677,80,100,40
391.78677,391.93677,83,100,40
391.93677,392.08676,81,100,40
392.08676,392.23676,85,100,40
392.23676,392.38678,83,100,40
392.38678,392.53677,86,100,40
392.53677,392.68677,85,100,40
392.68677,392.83676,88,100,40
392.83676,394.03677,86,100,40
394.93677,395.23676,74,100,40
395.23676,395.83676,73,100,40
395.83676,397.03677,76,100,40
397.03677,397.93677,81,100,40
397.93677,398.23676,70,100,40
398.23676,398.53677,71,100,40
398.53677,398.83676,73,100,40
398.83676,399.13678,74,100,40
399.13678,399.43677,76,100,40
399.43677,399.73676,77,100,40
399.73676,400.03677,78,100,40
400.03677,401.23676,69,100,40
401.23676,401.53677,73,100,40
401.53677,402.13678,71,100,40
402.13678,402.43677,69,100,40
402.43677,403.03677,69,100,40
404.83676,406.93677,69,100,40
406.93677,407.23676,71,100,40
407.23676,407.83676,68,100,40
409.63678,410.83676,68,100,40
410.83676,412.03677,71,100,40
412.03677,412.63678,69,100,40
414.43677,416.83676,73,100,40
416.83676,419.23676,71,100,40
419.23676,424.63678,69,100,40
426.43677,427.03677,68,100,40
428.83676,429.03677,76,100,40
429.23676,429.43677,76,100,40
429.63678,429.83676,73,100,40
430.03677,430.23676,73,100,40
430.43677,430.73676,74,100,40
430.73676,430.83676,76,100,40
430.83676,431.13678,78,100,40
431.13678,431.23676,74,100,40
431.23676,431.43677,71,100,40
431.63678,431.83676,71,100,40
432.03677,432.23676,69,100,40
432.43677,432.63678,69,100,40
432.83676,433.03677,71,100,40
433.23676,433.43677,71,100,40
433.63678,433.68677,73,100,40
433.68677,433.73676,74,100,40
433.73676,433.78677,73,100,40
433.78677,433.83676,74,100,40
433.83676,433.88678,73,100,40
433.88678,433.93677,74,100,40
433.93677,433.98676,73,100,40
433.98676,434.03677,74,100,40
434.03677,434.08676,73,100,40
434.08676,434.13678,74,100,40
434.13678,434.18677,73,100,40
434.18677,434.23676,74,100,40
434.23676,434.33676,71,100,40
434.33676,434.43677,73,100,40
434.43677,434.83676,71,100,40
435.23676,435.43677,73,100,40
435.63678,435.83676,73,100,40
436.03677,436.23676,69,100,40
436.43677,436.83676,69,100,40
436.83676,437.23676,71,100,40
437.23676,437.53677,71,100,40
437.53677,437.63678,69,100,40
437.63678,437.68677,68,100,40
437.68677,437.73676,69,100,40
437.73676,437.78677,68,100,40
437.78677,437.83676,69,100,40
437.83676,437.88678,68,100,40
437.88678,437.93677,69,100,40
437.93677,437.98676,68,100,40
437.98676,438.03677,69,100,40
438.03677,438.08676,68,100,40
438.08676,438.13678,69,100,40
438.13678,438.18677,68,100,40
438.18677,438.23676,69,100,40
438.23676,438.33676,66,100,40
438.33676,438.43677,68,100,40
438.43677,438.63678,69,100,40
438.83676,439.03677,81,100,40
439.23676,439.43677,83,100,40
439.63678,439.83676,83,100,40
440.03677,440.08676,80,100,40
440.08676,440.13678,81,100,40
440.13678,440.18677,80,100,40
440.18677,440.23676,81,100,40
440.23676,440.28677,80,100,40
440.28677,440.33676,81,100,40
440.33676,440.38678,80,100,40
440.38678,440.43677,81,100,40
440.43677,440.48676,80,100,40
440.48676,440.53677,81,100,40
440.53677,440.58676,80,100,40
440.58676,440.63678,81,100,40
440.63678,440.73676,78,100,40
440.73676,440.83676,80,100,40
440.83676,441.23676,81,100,40
441.63678,441.83676,81,100,40
442.03677,442.23676,81,100,40
442.43677,442.63678,80,100,40
442.83676,443.03677,80,100,40
443.23676,443.53677,78,100,40
443.53677,443.63678,80,100,40
443.63678,443.93677,81,100,40
443.93677,444.03677,78,100,40
444.03677,444.23676,76,100,40
444.43677,444.63678,76,100,40
444.83676,445.03677,81,100,40
445.23676,445.43677,81,100,40
445.63678,445.83676,80,100,40
446.03677,446.23676,80,100,40
446.43677,446.73676,78,100,40
446.73676,446.83676,80,100,40
446.83676,447.13678,81,100,40
447.13678,447.23676,78,100,40
447.23676,448.03677,76,100,40
448.03677,448.83676,73,100,40
448.83676,450.43677,71,100,40
450.43677,452.03677,69,100,40
452.03677,452.83676,65,100,40
452.83676,454.03677,64,100,40
454.43677,454.63678,81,100,40
454.83676,455.03677,81,100,40
455.23676,455.43677,80,100,40
455.63678,455.83676,80,100,40
456.03677,456.33676,78,100,40
456.33676,456.43677,80,100,40
456.43677,456.73676,81,100,40
456.73676,456.83676,78,100,40
456.83676,457.03677,76,100,40
457.23676,457.43677,76,100,40
457.63678,457.83676,81,100,40
458.03677,458.23676,81,100,40
458.43677,458.63678,80,100,40
458.83676,459.03677,80,100,40
459.23676,459.53677,78,100,40
459.53677,459.63678,80,100,40
459.63678,459.93677,81,100,40
459.93677,460.03677,78,100,40
460.03677,461.63678,76,100,40
461.63678,462.03677,75,100,40
462.43677,463.23676,74,100,40
463.23676,463.63678,73,100,40
464.03677,464.43677,71,100,40
464.83676,465.03677,69,100,40
465.23676,465.43677,69,100,40
465.63678,465.83676,69,100,40
466.03677,466.23676,68,100,40
466.43677,466.83676,69,100,40
466.83676,467.23676,64,100,40
467.23676,467.63678,71,100,40
467.63678,468.03677,64,100,40
468.03677,468.43677,69,100,40
468.43677,468.83676,64,100,40
468.83676,469.23676,68,100,40
469.23676,469.63678,64,100,40
469.63678,470.03677,69,100,40
470.03677,470.43677,64,100,40
470.43677,470.83676,71,100,40
470.83676,471.23676,64,100,40
471.23676,471.63678,69,100,40
471.63678,472.03677,64,100,40
472.03677,472.43677,68,100,40
472.43677,472.83676,64,100,40
472.83676,473.43677,69,100,40
473.43677,473.53677,71,100,40
473.53677,473.63678,73,100,40
473.63678,473.83676,74,100,40
474.03677,474.23676,74,100,40
474.43677,474.63678,73,100,40
474.83676,475.03677,73,100,40
475.23676,475.53677,71,100,40
475.53677,475.63678,73,100,40
475.63678,475.93677,74,100,40
475.93677,476.03677,75,100,40
476.03677,476.23676,76,100,40
476.43677,476.63678,76,100,40
476.83676,477.03677,74,100,40
477.23676,477.43677,74,100,40
477.63678,477.83676,73,100,40
478.03677,478.23676,73,100,40
478.43677,478.73676,71,100,40
478.73676,478.83676,73,100,40
478.83676,479.13678,74,100,40
479.13678,479.23676,76,100,40
479.23676,479.63678,69,100,40
480.03677,480.83676,68,100,40
480.83676,481.23676,69,100,40
481.63678,482.03677,76,100,40
481.63678,482.03677,83,100,40
482.43677,482.83676,76,100,40
482.43677,482.83676,85,100,40
483.23676,483.53677,83,100,40
483.53677,483.63678,85,100,40
483.63678,483.93677,86,100,40
483.93677,484.03677,88,100,40
484.03677,484.43677,85,100,40
484.83676,485.23676,64,100,40
484.83676,485.23676,71,100,40
484.83676,485.23676,80,100,40
485.63678,486.03677,64,100,40
485.63678,486.03677,73,100,40
485.63678,486.03677,81,100,40
0.52916664,0.7291667,73,100,40
0.9291667,1.1291667,73,100,40
1.3291667,1.5291667,69,100,40
1.7291666,1.9291667,69,100,40
2.1291666,2.4291666,71,100,40
2.4291666,2.5291667,73,100,40
2.5291667,2.8291667,74,100,40
2.8291667,2.9291666,71,100,40
2.9291666,3.1291666,64,100,40
3.3291667,3.5291667,64,100,40
3.7291667,3.9291666,61,100,40
4.1291666,4.329167,61,100,40
4.5291667,4.7291665,59,100,40
4.929167,5.1291666,59,100,40
5.329167,6.1291666,61,100,40
6.1291666,6.929167,64,100,40
6.929167,7.1291666,73,100,40
7.329167,7.5291667,73,100,40
7.7291665,7.929167,69,100,40
8.129167,8.329166,69,100,40
8.529166,8.829166,71,100,40
8.829166,8.929167,73,100,40
8.929167,9.229167,74,100,40
9.229167,9.329166,71,100,40
9.329166,9.529166,64,100,40
9.729167,9.929167,64,100,40
10.129167,10.329166,61,100,40
10.529166,10.729167,61,100,40
10.929167,11.129167,62,100,40
11.329166,11.529166,62,100,40
11.729167,11.779166,59,100,40
11.779166,11.829166,61,100,40
11.829166,11.879167,59,100,40
11.879167,11.929167,61,100,40
11.929167,11.979167,59,100,40
11.979167,12.029166,61,100,40
12.029166,12.079166,59,100,40
12.079166,12.129167,61,100,40
12.129167,12.179167,59,100,40
12.179167,12.229167,61,100,40
12.229167,12.279166,59,100,40
12.279166,12.329166,61,100,40
12.329166,12.429167,69,100,40
12.429167,12.529166,71,100,40
12.529166,13.329166,61,100,40
13.329166,13.529166,73,100,40
13.729167,13.929167,73,100,40
14.129167,14.329166,69,100,40
14.529166,14.729167,69,100,40
14.929167,15.229167,71,100,40
15.229167,15.329166,73,100,40
15.329166,15.629167,74,100,40
15.629167,15.729167,71,100,40
15.729167,15.929167,64,100,40
16.129168,16.329166,64,100,40
16.529167,16.729166,61,100,40
16.929167,17.129168,61,100,40
17.329166,17.529167,59,100,40
17.729166,17.929167,59,100,40
18.129168,18.929167,61,100,40
18.929167,19.729166,64,100,40
19.729166,19.929167,73,100,40
20.129168,20.329166,73,100,40
20.529167,20.729166,69,100,40
20.929167,21.129168,69,100,40
21.329166,21.629168,71,100,40
21.629168,21.729166,73,100,40
21.729166,22.029167,74,100,40
22.029167,22.129168,71,100,40
22.129168,22.329166,64,100,40
22.529167,22.729166,64,100,40
22.929167,23.129168,61,100,40
23.329166,23.529167,61,100,40
23.729166,23.929167,62,100,40
24.129168,24.329166,62,100,40
24.529167,24.579166,59,100,40
24.579166,24.629168,61,100,40
24.629168,24.679167,59,100,40
24.679167,24.729166,61,100,40
24.729166,24.779167,59,100,40
24.779167,24.829166,61,100,40
24.829166,24.879168,59,100,40
24.879168,24.929167,61,100,40
24.929167,24.979166,59,100,40
24.979166,25.029167,61,100,40
25.029167,25.079166,59,100,40
25.079166,25.129168,61,100,40
25.129168,25.229166,69,100,40
25.229166,25.329166,71,100,40
25.329166,26.129168,61,100,40
26.129168,26.329166,59,100,40
26.329166,26.529167,62,100,40
26.529167,26.629168,64,100,40
26.729166,26.829166,64,100,40
26.929167,27.129168,57,100,40
27.129168,27.329166,61,100,40
27.329166,27.429167,64,100,40
27.529167,27.629168,64,100,40
27.729166,27.929167,59,100,40
27.929167,28.129168,62,100,40
28.129168,28.229166,64,100,40
28.329166,28.429167,64,100,40
28.529167,28.729166,57,100,40
28.729166,28.929167,61,100,40
28.929167,29.029167,64,100,40
29.129168,29.229166,64,100,40
29.329166,29.529167,59,100,40
29.529167,29.729166,62,100,40
29.729166,29.829166,64,100,40
29.929167,30.029167,64,100,40
30.129168,30.329166,57,100,40
30.329166,30.529167,61,100,40
30.529167,30.629168,64,100,40
30.729166,30.829166,64,100,40
30.929167,31.129168,57,100,40
31.129168,31.329166,61,100,40
31.329166,31.429167,64,100,40
31.529167,31.629168,64,100,40
31.729166,32.129166,64,100,40
33.329166,33.529167,66,100,40
33.729168,33.929165,66,100,40
34.129166,34.329166,62,100,40
34.529167,34.729168,62,100,40
34.929165,35.229168,64,100,40
35.229168,35.329166,66,100,40
35.329166,35.629166,68,100,40
35.629166,35.729168,64,100,40
35.729168,35.929165,61,100,40
36.129166,36.329166,61,100,40
36.529167,36.729168,62,100,40
36.929165,37.129166,62,100,40
37.329166,37.379166,59,100,40
37.379166,37.429165,61,100,40
37.429165,37.479168,59,100,40
37.479168,37.529167,61,100,40
37.529167,37.579166,59,100,40
37.579166,37.629166,61,100,40
37.629166,37.679165,59,100,40
37.679165,37.729168,61,100,40
37.729168,37.779167,59,100,40
37.779167,37.829166,61,100,40
37.829166,37.879166,59,100,40
37.879166,37.929165,61,100,40
37.929165,38.029167,69,100,40
38.029167,38.129166,71,100,40
38.129166,38.529167,69,100,40
38.929165,39.129166,59,100,40
39.129166,39.329166,62,100,40
39.329166,39.429165,64,100,40
39.529167,39.629166,64,100,40
39.729168,39.929165,57,100,40
39.929165,40.129166,61,100,40
40.129166,40.229168,64,100,40
40.329166,40.429165,64,100,40
40.529167,40.729168,59,100,40
40.729168,40.929165,62,100,40
40.929165,41.029167,64,100,40
41.129166,41.229168,64,100,40
41.329166,41.529167,57,100,40
41.529167,41.729168,61,100,40
41.729168,41.829166,64,100,40
41.929165,42.029167,64,100,40
42.129166,42.329166,59,100,40
42.329166,42.529167,62,100,40
42.529167,42.629166,64,100,40
42.729168,42.829166,64,100,40
42.929165,43.129166,57,100,40
43.129166,43.329166,61,100,40
43.329166,43.429165,64,100,40
43.529167,43.629166,64,100,40
43.729168,43.929165,57,100,40
43.929165,44.129166,61,100,40
44.129166,44.229168,64,100,40
44.329166,44.429165,64,100,40
44.529167,44.929165,64,100,40
46.129166,46.329166,66,100,40
46.529167,46.729168,66,100,40
46.929165,47.129166,62,100,40
47.329166,47.529167,62,100,40
47.729168,48.029167,64,100,40
48.029167,48.129166,66,100,40
48.129166,48.429165,68,100,40
48.429165,48.529167,64,100,40
48.529167,48.729168,61,100,40
48.929165,49.129166,61,100,40
49.329166,49.529167,62,100,40
49.729168,49.929165,62,100,40
50.129166,50.179165,59,100,40
50.179165,50.229168,61,100,40
50.229168,50.279167,59,100,40
50.279167,50.329166,61,100,40
50.329166,50.379166,59,100,40
50.379166,50.429165,61,100,40
50.429165,50.479168,59,100,40
50.479168,50.529167,61,100,40
50.529167,50.579166,59,100,40
50.579166,50.629166,61,100,40
50.629166,50.679165,59,100,40
50.679165,50.729168,61,100,40
50.729168,50.829166,69,100,40
50.829166,50.929165,71,100,40
50.929165,51.329166,69,100,40
51.729168,51.929165,73,100,40
52.129166,52.329166,73,100,40
52.529167,52.929165,69,100,40
52.929165,53.329166,69,100,40
53.329166,53.629166,71,100,40
53.629166,53.729168,73,100,40
53.729168,54.029167,74,100,40
54.029167,54.129166,71,100,40
54.129166,54.329166,64,100,40
54.529167,54.729168,64,100,40
54.929165,55.129166,61,100,40
55.329166,55.529167,61,100,40
55.729168,55.929165,59,100,40
56.129166,56.329166,64,100,40
56.529167,56.579166,69,100,40
56.579166,56.629166,71,100,40
56.629166,56.679165,69,100,40
56.679165,56.729168,71,100,40
56.729168,56.779167,69,100,40
56.779167,56.829166,71,100,40
56.829166,56.879166,69,100,40
56.879166,56.929165,71,100,40
56.929165,56.979168,69,100,40
56.979168,57.029167,71,100,40
57.029167,57.079166,69,100,40
57.079166,57.129166,71,100,40
57.129166,57.229168,68,100,40
57.229168,57.329166,69,100,40
57.329166,57.729168,68,100,40
61.329166,61.529167,61,100,40
61.729168,61.929165,61,100,40
62.129166,62.329166,62,100,40
62.529167,62.729168,62,100,40
62.929165,62.979168,59,100,40
62.979168,63.029167,61,100,40
63.029167,63.079166,59,100,40
63.079166,63.129166,61,100,40
63.129166,63.179165,59,100,40
63.179165,63.229168,61,100,40
63.229168,63.279167,59,100,40
63.279167,63.329166,61,100,40
63.329166,63.379166,59,100,40
63.379166,63.429165,61,100,40
63.429165,63.479168,59,100,40
63.479168,63.529167,61,100,40
63.529167,63.629166,69,100,40
63.629166,63.729168,71,100,40
63.729168,64.129166,69,100,40
64.52917,64.729164,73,100,40
64.92917,65.129166,73,100,40
65.32917,65.729164,69,100,40
65.729164,66.129166,69,100,40
66.129166,66.42917,71,100,40
66.42917,66.52917,73,100,40
66.52917,66.82917,74,100,40
66.82917,66.92917,71,100,40
66.92917,67.129166,64,100,40
67.32917,67.52917,64,100,40
67.729164,67.92917,61,100,40
68.129166,68.32917,61,100,40
68.52917,68.729164,59,100,40
68.92917,69.129166,64,100,40
69.32917,69.379166,69,100,40
69.379166,69.42917,71,100,40
69.42917,69.479164,69,100,40
69.479164,69.52917,71,100,40
69.52917,69.57917,69,100,40
69.57917,69.629166,71,100,40
69.629166,69.67917,69,100,40
69.67917,69.729164,71,100,40
69.729164,69.77917,69,100,40
69.77917,69.82917,71,100,40
69.82917,69.879166,69,100,40
69.879166,69.92917,71,100,40
69.92917,70.02917,68,100,40
70.02917,70.129166,69,100,40
70.129166,70.52917,68,100,40
74.129166,74.32917,61,100,40
74.52917,74.729164,61,100,40
74.92917,75.129166,62,100,40
75.32917,75.52917,62,100,40
75.729164,75.77917,59,100,40
75.77917,75.82917,61,100,40
75.82917,75.879166,59,100,40
75.879166,75.92917,61,100,40
75.92917,75.979164,59,100,40
75.979164,76.02917,61,100,40
76.02917,76.07917,59,100,40
76.07917,76.129166,61,100,40
76.129166,76.17917,59,100,40
76.17917,76.229164,61,100,40
76.229164,76.27917,59,100,40
76.27917,76.32917,61,100,40
76.32917,76.42917,69,100,40
76.42917,76.52917,71,100,40
76.52917,76.92917,69,100,40
77.32917,78.129166,71,100,40
78.129166,78.92917,69,100,40
78.92917,79.729164,68,100,40
79.729164,80.52917,69,100,40
80.52917,81.32917,71,100,40
81.32917,81.729164,69,100,40
82.129166,82.52917,69,100,40
82.52917,82.92917,61,100,40
82.92917,83.32917,64,100,40
83.729164,83.92917,73,100,40
84.129166,84.32917,73,100,40
84.52917,84.729164,69,100,40
84.92917,85.129166,69,100,40
85.32917,85.629166,71,100,40
85.629166,85.729164,73,100,40
85.729164,86.02917,74,100,40
86.02917,86.129166,71,100,40
86.129166,86.32917,68,100,40
86.52917,86.729164,68,100,40
86.92917,87.129166,64,100,40
87.32917,87.52917,64,100,40
87.729164,87.92917,66,100,40
88.129166,88.32917,66,100,40
88.52917,88.57917,62,100,40
88.57917,88.629166,64,100,40
88.629166,88.67917,62,100,40
88.67917,88.729164,64,100,40
88.729164,88.77917,62,100,40
88.77917,88.82917,64,100,40
88.82917,88.879166,62,100,40
88.879166,88.92917,64,100,40
88.92917,88.979164,62,100,40
88.979164,89.02917,64,100,40
89.02917,89.07917,62,100,40
89.07917,89.129166,64,100,40
89.129166,89.229164,61,100,40
89.229164,89.32917,62,100,40
89.32917,89.729164,61,100,40
90.129166,90.92917,71,100,40
90.92917,91.729164,69,100,40
91.729164,92.52917,68,100,40
92.52917,93.32917,69,100,40
93.32917,94.129166,71,100,40
94.129166,94.52917,69,100,40
94.92917,95.32917,69,100,40
95.32917,95.729164,61,100,40
95.729164,96.129166,64,100,40
96.52917,96.729164,73,100,40
96.92917,97.129166,73,100,40
97.32917,97.52917,69,100,40
97.729164,97.92917,69,100,40
98.129166,98.42917,71,100,40
98.42917,98.52917,73,100,40
98.52917,98.82917,74,100,40
98.82917,98.92917,71,100,40
98.92917,99.129166,68,100,40
99.32917,99.52917,68,100,40
99.729164,99.92917,64,100,40
100.129166,100.32917,64,100,40
100.52917,100.729164,66,100,40
100.92917,101.129166,66,100,40
101.32917,101.379166,62,100,40
101.379166,101.42917,64,100,40
101.42917,101.479164,62,100,40
101.479164,101.52917,64,100,40
101.52917,101.57917,62,100,40
101.57917,101.629166,64,100,40
101.629166,101.67917,62,100,40
101.67917,101.729164,64,100,40
101.729164,101.77917,62,100,40
101.77917,101.82917,64,100,40
101.82917,101.879166,62,100,40
101.879166,101.92917,64,100,40
101.92917,102.02917,61,100,40
102.02917,102.129166,62,100,40
102.129166,102.52917,61,100,40
102.92917,103.0625,61,100,40
103.0625,103.19583,62,100,40
103.19583,103.32917,64,100,40
103.32917,103.395836,64,100,40
103.4625,103.52917,64,100,40
103.59583,103.6625,64,100,40
103.729164,103.8625,69,100,40
103.8625,103.995834,71,100,40
103.995834,104.129166,73,100,40
104.129166,104.19583,73,100,40
104.2625,104.32917,73,100,40
104.395836,104.4625,73,100,40
104.52917,104.6625,71,100,40
104.6625,104.79583,73,100,40
104.79583,104.92917,74,100,40
104.92917,104.995834,74,100,40
105.0625,105.129166,74,100,40
105.19583,105.2625,74,100,40
105.32917,105.4625,59,100,40
105.4625,105.59583,61,100,40
105.59583,105.729164,62,100,40
105.729164,105.79583,62,100,40
105.8625,105.92917,62,100,40
105.995834,106.0625,62,100,40
106.129166,106.2625,61,100,40
106.2625,106.395836,62,100,40
106.395836,106.52917,64,100,40
106.52917,106.59583,64,100,40
106.6625,106.729164,64,100,40
106.79583,106.8625,64,100,40
106.92917,107.0625,68,100,40
107.0625,107.19583,69,100,40
107.19583,107.32917,71,100,40
107.32917,107.395836,71,100,40
107.4625,107.52917,71,100,40
107.59583,107.6625,71,100,40
107.729164,107.8625,71,100,40
107.8625,107.995834,71,100,40
107.995834,108.129166,71,100,40
108.129166,108.19583,69,100,40
108.2625,108.32917,69,100,40
108.395836,108.4625,69,100,40
108.52917,108.6625,68,100,40
108.6625,108.79583,66,100,40
108.79583,108.92917,64,100,40
108.92917,108.995834,62,100,40
109.0625,109.129166,61,100,40
109.19583,109.2625,59,100,40
109.32917,109.395836,61,100,40
109.4625,109.59583,62,100,40
109.59583,109.729164,64,100,40
109.729164,109.8625,64,100,40
109.8625,109.995834,64,100,40
109.995834,110.129166,64,100,40
110.129166,110.2625,69,100,40
110.2625,110.395836,71,100,40
110.395836,110.52917,73,100,40
110.52917,110.6625,73,100,40
110.6625,110.79583,73,100,40
110.79583,110.92917,73,100,40
110.92917,111.0625,71,100,40
111.0625,111.19583,73,100,40
111.19583,111.32917,74,100,40
111.32917,111.395836,74,100,40
111.4625,111.52917,74,100,40
111.59583,111.6625,74,100,40
111.729164,111.79583,59,100,40
111.8625,111.92917,61,100,40
111.995834,112.0625,62,100,40
112.129166,112.19583,62,100,40
112.2625,112.32917,62,100,40
112.395836,112.4625,62,100,40
112.52917,112.6625,61,100,40
112.6625,112.79583,62,100,40
112.79583,112.92917,64,100,40
112.92917,112.995834,64,100,40
113.0625,113.129166,64,100,40
113.19583,113.2625,64,100,40
113.32917,113.4625,62,100,40
113.4625,113.59583,64,100,40
113.59583,113.729164,66,100,40
113.729164,113.79583,66,100,40
113.8625,113.92917,66,100,40
113.995834,114.0625,66,100,40
114.129166,114.19583,59,100,40
114.2625,114.395836,59,100,40
114.395836,114.52917,61,100,40
114.52917,114.6625,62,100,40
114.6625,114.79583,64,100,40
114.79583,114.92917,62,100,40
114.92917,115.32917,61,100,40
115.729164,115.8625,61,100,40
115.8625,115.995834,62,100,40
115.995834,116.129166,64,100,40
116.129166,116.19583,64,100,40
116.2625,116.32917,64,100,40
116.395836,116.4625,64,100,40
116.52917,116.6625,69,100,40
116.6625,116.79583,71,100,40
116.79583,116.92917,73,100,40
116.92917,116.995834,73,100,40
117.0625,117.129166,73,100,40
117.19583,117.2625,73,100,40
117.32917,117.4625,71,100,40
117.4625,117.59583,73,100,40
117.59583,117.729164,74,100,40
117.729164,117.79583,74,100,40
117.8625,117.92917,74,100,40
117.995834,118.0625,74,100,40
118.129166,118.2625,59,100,40
118.2625,118.395836,61,100,40
118.395836,118.52917,62,100,40
118.52917,118.59583,62,100,40
118.6625,118.729164,62,100,40
118.79583,118.8625,62,100,40
118.92917,119.0625,61,100,40
119.0625,119.19583,62,100,40
119.19583,119.32917,64,100,40
119.32917,119.395836,64,100,40
119.4625,119.52917,64,100,40
119.59583,119.6625,64,100,40
119.729164,119.8625,68,100,40
119.8625,119.995834,69,100,40
119.995834,120.129166,71,100,40
120.129166,120.19583,71,100,40
120.2625,120.32917,71,100,40
120.395836,120.4625,71,100,40
120.52917,120.6625,71,100,40
120.6625,120.79583,71,100,40
120.79583,120.92917,71,100,40
120.92917,120.995834,69,100,40
121.0625,121.129166,69,100,40
121.19583,121.2625,69,100,40
121.32917,121.4625,68,100,40
121.4625,121.59583,66,100,40
121.59583,121.729164,64,100,40
121.729164,121.79583,62,100,40
121.8625,121.92917,61,100,40
121.995834,122.0625,59,100,40
122.129166,122.19583,61,100,40
122.2625,122.395836,62,100,40
122.395836,122.52917,64,100,40
122.52917,122.6625,64,100,40
122.6625,122.79583,64,100,40
122.79583,122.92917,64,100,40
122.92917,123.0625,69,100,40
123.0625,123.19583,71,100,40
123.19583,123.32917,73,100,40
123.32917,123.4625,73,100,40
123.4625,123.59583,73,100,40
123.59583,123.729164,73,100,40
123.729164,123.8625,71,100,40
123.8625,123.995834,73,100,40
123.995834,124.129166,74,100,40
124.129166,124.19583,74,100,40
124.2625,124.32917,74,100,40
124.395836,124.4625,74,100,40
124.52917,124.59583,59,100,40
124.6625,124.729164,61,100,40
124.79583,124.8625,62,100,40
124.92917,124.995834,62,100,40
125.0625,125.129166,62,100,40
125.19583,125.2625,62,100,40
125.32917,125.4625,61,100,40
125.4625,125.59583,62,100,40
125.59583,125.729164,64,100,40
125.729164,125.79583,64,100,40
125.8625,125.92917,64,100,40
125.995834,126.0625,64,100,40
126.129166,126.2625,62,100,40
126.2625,126.395836,64,100,40
126.395836,126.52917,66,100,40
126.52917,126.59583,66,100,40
126.6625,126.729164,66,100,40
126.79583,126.8625,66,100,40
126.92917,126.995834,59,100,40
127.0625,127.19583,59,100,40
127.19583,127.32917,61,100,40
127.32917,127.4625,62,100,40
127.4625,127.59583,64,100,40
127.59583,127.729164,62,100,40
127.729164,128.12917,61,100,40
128.52916,128.6625,59,100,40
128.6625,128.79584,64,100,40
128.79584,128.92917,68,100,40
128.92917,128.99583,71,100,40
129.0625,129.12917,71,100,40
129.19583,129.2625,71,100,40
129.32916,129.39583,71,100,40
129.4625,129.52916,71,100,40
129.59584,129.6625,71,100,40
129.72917,129.79584,73,100,40
129.8625,129.92917,73,100,40
129.99583,130.0625,73,100,40
130.12917,130.2625,68,100,40
130.2625,130.39583,71,100,40
130.39583,130.52916,74,100,40
130.52916,130.59584,80,100,40
130.6625,130.72917,80,100,40
130.79584,130.8625,80,100,40
130.92917,130.99583,80,100,40
131.0625,131.12917,80,100,40
131.19583,131.2625,80,100,40
131.32916,131.39583,81,100,40
131.4625,131.52916,81,100,40
131.59584,131.6625,81,100,40
131.72917,131.8625,80,100,40
131.8625,131.99583,71,100,40
131.99583,132.12917,68,100,40
132.12917,132.19583,59,100,40
132.2625,132.32916,59,100,40
132.39583,132.4625,59,100,40
132.52916,132.59584,59,100,40
132.6625,132.72917,59,100,40
132.79584,132.8625,59,100,40
132.92917,132.99583,57,100,40
133.0625,133.12917,57,100,40
133.19583,133.2625,57,100,40
133.32916,133.72917,56,100,40
134.92917,135.0625,61,100,40
135.0625,135.19583,62,100,40
135.19583,135.32916,64,100,40
135.32916,135.39583,64,100,40
135.4625,135.52916,64,100,40
135.59584,135.6625,64,100,40
135.72917,135.8625,69,100,40
135.8625,135.99583,71,100,40
135.99583,136.12917,73,100,40
136.12917,136.19583,73,100,40
136.2625,136.32916,73,100,40
136.39583,136.4625,73,100,40
136.52916,136.6625,71,100,40
136.6625,136.79584,73,100,40
136.79584,136.92917,74,100,40
136.92917,136.99583,74,100,40
137.0625,137.12917,74,100,40
137.19583,137.2625,74,100,40
137.32916,137.4625,59,100,40
137.4625,137.59584,61,100,40
137.59584,137.72917,62,100,40
137.72917,137.79584,62,100,40
137.8625,137.92917,62,100,40
137.99583,138.0625,62,100,40
138.12917,138.2625,61,100,40
138.2625,138.39583,62,100,40
138.39583,138.52916,64,100,40
138.52916,138.59584,64,100,40
138.6625,138.72917,64,100,40
138.79584,138.8625,64,100,40
138.92917,139.0625,62,100,40
139.0625,139.19583,64,100,40
139.19583,139.32916,66,100,40
139.32916,139.39583,66,100,40
139.4625,139.52916,66,100,40
139.59584,139.6625,66,100,40
139.72917,139.79584,59,100,40
139.8625,139.99583,59,100,40
139.99583,140.12917,61,100,40
140.12917,140.2625,62,100,40
140.2625,140.39583,64,100,40
140.39583,140.52916,62,100,40
140.52916,140.92917,61,100,40
141.32916,141.4625,59,100,40
141.4625,141.59584,64,100,40
141.59584,141.72917,68,100,40
141.72917,141.79584,71,100,40
141.8625,141.92917,71,100,40
141.99583,142.0625,71,100,40
142.12917,142.19583,71,100,40
142.2625,142.32916,71,100,40
142.39583,142.4625,71,100,40
142.52916,142.59584,73,100,40
142.6625,142.72917,73,100,40
142.79584,142.8625,73,100,40
142.92917,143.0625,68,100,40
143.0625,143.19583,71,100,40
143.19583,143.32916,74,100,40
143.32916,143.39583,80,100,40
143.4625,143.52916,80,100,40
143.59584,143.6625,80,100,40
143.72917,143.79584,80,100,40
143.8625,143.92917,80,100,40
143.99583,144.0625,80,100,40
144.12917,144.19583,81,100,40
144.2625,144.32916,81,100,40
144.39583,144.4625,81,100,40
144.52916,144.6625,80,100,40
144.6625,144.79584,71,100,40
144.79584,144.92917,68,100,40
144.92917,144.99583,59,100,40
145.0625,145.12917,59,100,40
145.19583,145.2625,59,100,40
145.32916,145.39583,59,100,40
145.4625,145.52916,59,100,40
145.59584,145.6625,59,100,40
145.72917,145.79584,57,100,40
145.8625,145.92917,57,100,40
145.99583,146.0625,57,100,40
146.12917,146.52916,56,100,40
147.72917,147.8625,61,100,40
147.8625,147.99583,62,100,40
147.99583,148.12917,64,100,40
148.12917,148.19583,64,100,40
148.2625,148.32916,64,100,40
148.39583,148.4625,64,100,40
148.52916,148.6625,69,100,40
148.6625,148.79584,71,100,40
148.79584,148.92917,73,100,40
148.92917,148.99583,73,100,40
149.0625,149.12917,73,100,40
149.19583,149.2625,73,100,40
149.32916,149.4625,71,100,40
149.4625,149.59584,73,100,40
149.59584,149.72917,74,100,40
149.72917,149.79584,74,100,40
149.8625,149.92917,74,100,40
149.99583,150.0625,74,100,40
150.12917,150.2625,59,100,40
150.2625,150.39583,61,100,40
150.39583,150.52916,62,100,40
150.52916,150.59584,62,100,40
150.6625,150.72917,62,100,40
150.79584,150.8625,62,100,40
150.92917,151.0625,61,100,40
151.0625,151.19583,62,100,40
151.19583,151.32916,64,100,40
151.32916,151.39583,64,100,40
151.4625,151.52916,64,100,40
151.59584,151.6625,64,100,40
151.72917,151.8625,62,100,40
151.8625,151.99583,64,100,40
151.99583,152.12917,66,100,40
152.12917,152.19583,66,100,40
152.2625,152.32916,66,100,40
152.39583,152.4625,66,100,40
152.52916,152.59584,59,100,40
152.6625,152.79584,59,100,40
152.79584,152.92917,61,100,40
152.92917,153.0625,62,100,40
153.0625,153.19583,64,100,40
153.19583,153.32916,62,100,40
153.32916,153.72917,61,100,40
154.12917,155.51378,57,100,40
155.51378,155.97531,69,100,40
155.97531,157.35994,71,100,40
157.35994,157.82147,59,100,40
157.82147,157.93686,57,100,40
158.05225,158.16762,57,100,40
158.51378,158.74455,57,100,40
158.74455,158.97531,59,100,40
158.97531,159.0907,59,100,40
159.43686,159.66762,57,100,40
159.66762,159.89839,56,100,40
159.89839,160.01378,56,100,40
160.12917,160.5907,56,100,40
161.51378,162.89839,69,100,40
162.89839,163.35992,81,100,40
163.35992,164.74454,83,100,40
164.74454,165.20609,71,100,40
165.20609,165.32146,69,100,40
165.43684,165.55223,69,100,40
165.89839,166.12915,69,100,40
166.12915,166.35992,68,100,40
166.35992,166.47531,68,100,40
166.82146,167.05223,62,100,40
167.05223,167.283,60,100,40
167.283,167.39839,60,100,40
167.51376,167.97531,60,100,40
168.89838,170.28299,71,100,40
170.28299,170.74454,75,100,40
170.74454,171.20607,76,100,40
172.59068,173.9753,68,100,40
173.9753,174.20607,69,100,40
174.20607,174.43684,72,100,40
174.43684,174.89838,71,100,40
176.28299,177.6676,69,100,40
177.6676,178.12914,81,100,40
178.12914,179.51376,83,100,40
179.51376,179.9753,71,100,40
179.9753,180.09068,69,100,40
180.20607,180.32144,69,100,40
180.6676,180.89838,69,100,40
180.89838,181.12914,68,100,40
181.12914,181.24452,68,100,40
181.59068,181.82144,62,100,40
181.82144,182.05222,60,100,40
182.05222,182.1676,60,100,40
182.28299,182.74452,60,100,40
183.6676,183.89836,73,100,40
184.12914,184.35991,73,100,40
184.59067,184.82144,69,100,40
185.05222,185.28297,69,100,40
185.51375,185.85991,71,100,40
185.85991,185.9753,73,100,40
185.9753,186.32144,74,100,40
186.32144,186.43683,71,100,40
186.43683,186.6676,68,100,40
186.89836,187.12914,68,100,40
187.35991,187.59067,64,100,40
187.82144,188.05222,64,100,40
188.28297,188.51375,71,100,40
188.74452,188.97528,71,100,40
189.20605,189.26375,69,100,40
189.26375,189.32144,71,100,40
189.32144,189.37914,69,100,40
189.37914,189.43683,71,100,40
189.43683,189.49452,69,100,40
189.49452,189.55222,71,100,40
189.55222,189.6099,69,100,40
189.6099,189.66759,71,100,40
189.66759,189.72528,69,100,40
189.72528,189.78297,71,100,40
189.78297,189.84067,69,100,40
189.84067,189.89836,71,100,40
189.89836,190.01375,68,100,40
190.01375,190.12914,69,100,40
190.12914,190.59067,68,100,40
191.0522,191.28297,64,100,40
191.51375,191.7445,64,100,40
191.97528,192.20605,61,100,40
192.43681,192.66759,61,100,40
192.89836,193.2445,62,100,40
193.2445,193.3599,64,100,40
193.3599,193.70605,66,100,40
193.70605,193.82144,62,100,40
193.82144,194.0522,59,100,40
194.28297,194.51375,59,100,40
194.97528,195.20605,61,100,40
195.20605,195.43681,64,100,40
195.43681,195.66759,61,100,40
195.89836,196.12912,66,100,40
196.12912,196.3599,71,100,40
196.3599,196.59067,66,100,40
196.59067,196.82143,64,100,40
196.82143,197.0522,64,100,40
197.0522,197.28297,62,100,40
197.28297,197.51373,62,100,40
197.51373,197.97528,61,100,40
198.43681,198.66759,73,100,40
198.89835,199.12912,73,100,40
199.3599,199.59065,69,100,40
199.82143,200.0522,69,100,40
200.28297,200.62912,71,100,40
200.62912,200.7445,73,100,40
200.7445,201.09065,74,100,40
201.09065,201.20604,71,100,40
201.20604,201.43681,68,100,40
201.66759,201.89835,68,100,40
202.12912,202.3599,64,100,40
202.59065,202.82143,64,100,40
203.0522,203.28296,71,100,40
203.51373,203.7445,71,100,40
203.97527,204.03296,69,100,40
204.03296,204.09065,71,100,40
204.09065,204.14835,69,100,40
204.14835,204.20604,71,100,40
204.20604,204.26373,69,100,40
204.26373,204.32143,71,100,40
204.32143,204.37912,69,100,40
204.37912,204.43681,71,100,40
204.43681,204.4945,69,100,40
204.4945,204.5522,71,100,40
204.5522,204.60988,69,100,40
204.60988,204.66757,71,100,40
204.66757,204.78296,68,100,40
204.78296,204.89835,69,100,40
204.89835,205.35988,68,100,40
205.82143,206.05219,64,100,40
206.28296,206.51373,64,100,40
206.74449,206.97527,61,100,40
207.20604,207.4368,61,100,40
207.66757,208.01373,62,100,40
208.01373,208.12912,64,100,40
208.12912,208.47527,66,100,40
208.47527,208.59065,62,100,40
208.59065,208.82143,59,100,40
209.05219,209.28296,59,100,40
209.74449,209.97527,61,100,40
209.97527,210.20604,64,100,40
210.20604,210.4368,61,100,40
210.66757,210.89835,66,100,40
210.89835,211.1291,71,100,40
211.1291,211.35988,66,100,40
211.35988,211.59065,64,100,40
211.59065,211.82141,64,100,40
211.82141,212.05219,62,100,40
212.05219,212.28296,62,100,40
212.28296,212.74449,61,100,40
213.4368,213.66757,74,100,40
213.66757,213.89833,74,100,40
213.89833,214.1291,74,100,40
214.1291,214.35988,74,100,40
214.35988,214.59064,74,100,40
214.59064,214.82141,73,100,40
214.82141,215.05219,73,100,40
215.05219,215.28296,71,100,40
215.28296,215.51372,71,100,40
215.51372,215.74449,59,100,40
215.74449,215.97527,59,100,40
215.97527,216.20602,61,100,40
216.20602,216.4368,64,100,40
216.4368,216.66757,69,100,40
216.66757,216.89833,73,100,40
217.1291,217.35988,74,100,40
217.35988,217.59064,74,100,40
217.59064,217.82141,74,100,40
217.82141,218.05219,74,100,40
218.05219,218.28294,74,100,40
218.28294,218.51372,73,100,40
218.51372,218.74449,73,100,40
218.74449,218.97525,73,100,40
218.97525,219.20602,73,100,40
219.20602,219.4368,61,100,40
219.4368,219.66756,61,100,40
219.66756,220.1291,59,100,40
220.59064,220.82141,73,100,40
221.05217,221.28294,73,100,40
221.51372,221.74448,69,100,40
221.97525,222.20602,69,100,40
222.4368,222.78294,71,100,40
222.78294,222.89833,73,100,40
222.89833,223.24448,74,100,40
223.24448,223.35986,71,100,40
223.35986,223.59064,64,100,40
223.82141,224.05217,64,100,40
224.28294,224.51372,61,100,40
224.74448,224.97525,61,100,40
225.20602,225.43678,62,100,40
225.66756,225.89833,62,100,40
226.12909,226.18678,59,100,40
226.18678,226.24448,61,100,40
226.24448,226.30217,59,100,40
226.30217,226.35986,61,100,40
226.35986,226.41756,59,100,40
226.41756,226.47525,61,100,40
226.47525,226.53294,59,100,40
226.53294,226.59064,61,100,40
226.59064,226.64833,59,100,40
226.64833,226.70602,61,100,40
226.70602,226.7637,59,100,40
226.7637,226.8214,61,100,40
226.8214,226.93678,57,100,40
226.93678,227.05217,59,100,40
227.05217,227.5137,61,100,40
228.20601,228.43678,74,100,40
228.43678,228.66756,74,100,40
228.66756,228.89832,74,100,40
228.89832,229.12909,74,100,40
229.12909,229.35986,74,100,40
229.35986,229.59064,73,100,40
229.59064,229.8214,73,100,40
229.8214,230.05217,71,100,40
230.05217,230.28294,71,100,40
230.28294,230.5137,59,100,40
230.5137,230.74448,59,100,40
230.74448,230.97525,61,100,40
230.97525,231.20601,64,100,40
231.20601,231.43678,69,100,40
231.43678,231.66756,73,100,40
231.89832,232.12909,74,100,40
232.12909,232.35986,74,100,40
232.35986,232.59062,74,100,40
232.59062,232.8214,74,100,40
232.8214,233.05217,74,100,40
233.05217,233.28293,73,100,40
233.28293,233.5137,73,100,40
233.5137,233.74448,73,100,40
233.74448,233.97523,73,100,40
233.97523,234.20601,61,100,40
234.20601,234.43678,61,100,40
234.43678,234.89832,59,100,40
235.35985,235.59062,73,100,40
235.8214,236.05215,73,100,40
236.28293,236.5137,69,100,40
236.74446,236.97523,69,100,40
237.20601,237.55215,71,100,40
237.55215,237.66754,73,100,40
237.66754,238.0137,74,100,40
238.0137,238.12909,71,100,40
238.12909,238.35985,64,100,40
238.59062,238.8214,64,100,40
239.05215,239.28293,61,100,40
239.5137,239.74446,61,100,40
239.97523,240.20601,62,100,40
240.43677,240.66754,62,100,40
240.89832,240.95601,59,100,40
240.95601,241.0137,61,100,40
241.0137,241.07138,59,100,40
241.07138,241.12907,61,100,40
241.12907,241.18677,59,100,40
241.18677,241.24446,61,100,40
241.24446,241.30215,59,100,40
241.30215,241.35985,61,100,40
241.35985,241.41754,59,100,40
241.41754,241.47523,61,100,40
241.47523,241.53293,59,100,40
241.53293,241.59062,61,100,40
241.59062,241.70601,57,100,40
241.70601,241.82138,59,100,40
241.82138,242.28293,61,100,40
242.74446,243.206,69,100,40
242.74446,243.206,76,100,40
243.66754,244.12907,66,100,40
243.66754,244.12907,74,100,40
244.59062,245.05215,71,100,40
244.59062,245.05215,78,100,40
245.51369,245.97523,68,100,40
245.51369,245.97523,76,100,40
246.43677,251.23677,59,100,40
251.23677,253.63676,73,100,40
253.63676,254.23677,76,100,40
256.03677,256.63678,74,100,40
257.23676,257.83676,71,100,40
260.83676,263.23676,64,100,40
263.23676,265.03677,62,100,40
265.03677,265.63678,59,100,40
265.63678,266.23676,59,100,40
266.23676,266.83676,57,100,40
266.83676,268.03677,56,100,40
271.03677,271.63678,61,100,40
271.63678,272.23676,61,100,40
272.23676,272.83676,61,100,40
273.43677,274.03677,61,100,40
274.03677,274.63678,61,100,40
274.63678,275.23676,61,100,40
275.83676,276.43677,62,100,40
276.43677,277.03677,62,100,40
277.03677,277.63678,62,100,40
278.23676,278.53677,59,100,40
278.83676,279.43677,59,100,40
279.43677,280.03677,62,100,40
280.03677,280.63678,61,100,40
281.23676,281.83676,64,100,40
282.43677,283.03677,62,100,40
284.83676,285.43677,61,100,40
285.43677,286.03677,64,100,40
286.03677,286.63678,62,100,40
286.63678,287.23676,64,100,40
287.23676,287.83676,61,100,40
289.63678,292.03677,73,100,40
292.03677,292.63678,76,100,40
294.43677,295.03677,74,100,40
295.63678,296.23676,71,100,40
299.23676,301.63678,64,100,40
301.63678,303.43677,62,100,40
303.43677,304.03677,59,100,40
304.03677,304.63678,59,100,40
304.63678,305.23676,57,100,40
305.23676,306.43677,56,100,40
309.43677,310.03677,61,100,40
310.03677,310.63678,61,100,40
310.63678,311.23676,61,100,40
311.83676,312.43677,61,100,40
312.43677,313.03677,61,100,40
313.03677,313.63678,61,100,40
314.23676,314.83676,62,100,40
314.83676,315.43677,62,100,40
315.43677,316.03677,62,100,40
316.63678,316.93677,59,100,40
317.23676,317.83676,59,100,40
317.83676,318.43677,62,100,40
318.43677,319.03677,61,100,40
319.63678,320.23676,64,100,40
320.83676,321.43677,62,100,40
323.23676,323.83676,61,100,40
323.83676,324.43677,64,100,40
324.43677,325.03677,62,100,40
325.03677,325.63678,64,100,40
325.63678,326.23676,61,100,40
328.63678,328.93677,59,100,40
329.23676,329.53677,59,100,40
329.83676,330.13678,59,100,40
330.43677,331.03677,59,100,40
331.03677,331.63678,57,100,40
331.63678,331.93677,57,100,40
332.23676,332.53677,57,100,40
332.83676,333.13678,56,100,40
333.43677,334.03677,64,100,40
334.03677,334.63678,66,100,40
334.63678,335.23676,68,100,40
335.23676,335.53677,69,100,40
335.83676,336.13678,73,100,40
336.43677,336.73676,64,100,40
337.03677,337.33676,61,100,40
338.23676,338.53677,59,100,40
338.83676,339.13678,59,100,40
339.43677,339.73676,59,100,40
340.03677,340.63678,59,100,40
340.63678,341.23676,57,100,40
341.23676,341.53677,57,100,40
341.83676,342.13678,57,100,40
343.03677,343.63678,57,100,40
343.63678,344.23676,61,100,40
344.23676,344.83676,57,100,40
344.83676,345.43677,56,100,40
347.83676,348.43677,64,100,40
348.43677,349.03677,64,100,40
349.03677,349.63678,64,100,40
350.23676,350.83676,69,100,40
350.83676,351.43677,73,100,40
351.43677,352.03677,76,100,40
352.03677,353.53677,74,100,40
353.53677,353.68677,73,100,40
353.83676,353.98676,71,100,40
354.13678,354.28677,69,100,40
354.43677,355.03677,68,100,40
355.63678,356.23676,71,100,40
356.83676,357.43677,69,100,40
358.03677,358.63678,69,100,40
359.23676,359.83676,66,100,40
361.63678,362.23676,61,100,40
362.23676,362.83676,64,100,40
362.83676,363.43677,62,100,40
363.43677,364.03677,64,100,40
364.03677,364.63678,61,100,40
367.03677,367.33676,59,100,40
367.63678,367.93677,59,100,40
368.23676,368.53677,59,100,40
368.83676,369.43677,59,100,40
369.43677,370.03677,57,100,40
370.03677,370.33676,57,100,40
370.63678,370.93677,57,100,40
371.23676,371.53677,56,100,40
371.83676,372.43677,64,100,40
372.43677,373.03677,66,100,40
373.03677,373.63678,68,100,40
373.63678,373.93677,69,100,40
374.23676,374.53677,73,100,40
374.83676,375.13678,64,100,40
375.43677,375.73676,61,100,40
376.63678,376.93677,59,100,40
377.23676,377.53677,59,100,40
377.83676,378.13678,59,100,40
378.43677,379.03677,59,100,40
379.03677,379.63678,57,100,40
379.63678,379.93677,57,100,40
380.23676,380.53677,57,100,40
381.43677,382.03677,57,100,40
382.03677,382.63678,61,100,40
382.63678,383.23676,57,100,40
383.23676,383.83676,56,100,40
386.23676,386.83676,64,100,40
386.83676,387.43677,64,100,40
387.43677,388.03677,64,100,40
388.63678,389.23676,69,100,40
389.23676,389.83676,73,100,40
389.83676,390.43677,76,100,40
390.43677,391.93677,74,100,40
391.93677,392.08676,73,100,40
392.23676,392.38678,71,100,40
392.53677,392.68677,69,100,40
392.83676,393.43677,68,100,40
394.03677,394.63678,71,100,40
395.23676,395.83676,69,100,40
396.43677,397.03677,69,100,40
397.63678,398.23676,66,100,40
400.03677,400.63678,61,100,40
400.63678,401.23676,64,100,40
401.23676,401.83676,62,100,40
401.83676,402.43677,64,100,40
402.43677,403.03677,61,100,40
404.83676,406.03677,66,100,40
406.03677,407.23676,62,100,40
407.23676,407.83676,64,100,40
409.63678,412.63678,64,100,40
414.43677,421.03677,64,100,40
421.03677,421.33676,63,100,40
421.33676,421.63678,64,100,40
421.63678,422.83676,66,100,40
422.83676,424.03677,63,100,40
424.03677,424.63678,59,100,40
426.43677,427.03677,59,100,40
428.83676,429.03677,73,100,40
429.23676,429.43677,73,100,40
429.63678,429.83676,69,100,40
430.03677,430.23676,69,100,40
430.43677,430.73676,71,100,40
430.73676,430.83676,73,100,40
430.83676,431.13678,74,100,40
431.13678,431.23676,71,100,40
431.23676,431.43677,64,100,40
431.63678,431.83676,64,100,40
432.03677,432.23676,61,100,40
432.43677,432.63678,61,100,40
432.83676,433.03677,64,100,40
433.23676,433.43677,64,100,40
433.63678,433.68677,69,100,40
433.68677,433.73676,71,100,40
433.73676,433.78677,69,100,40
433.78677,433.83676,71,100,40
433.83676,433.88678,69,100,40
433.88678,433.93677,71,100,40
433.93677,433.98676,69,100,40
433.98676,434.03677,71,100,40
434.03677,434.08676,69,100,40
434.08676,434.13678,71,100,40
434.13678,434.18677,69,100,40
434.18677,434.23676,71,100,40
434.23676,434.33676,68,100,40
434.33676,434.43677,69,100,40
434.43677,434.83676,64,100,40
435.23676,435.43677,64,100,40
435.63678,435.83676,64,100,40
436.03677,436.23676,61,100,40
436.43677,436.63678,61,100,40
436.83676,437.13678,62,100,40
437.13678,437.23676,64,100,40
437.23676,437.53677,66,100,40
437.53677,437.63678,62,100,40
437.63678,437.83676,59,100,40
438.03677,438.23676,59,100,40
438.43677,438.63678,61,100,40
438.83676,439.03677,61,100,40
439.23676,439.43677,62,100,40
439.63678,439.83676,62,100,40
440.03677,440.08676,59,100,40
440.08676,440.13678,61,100,40
440.13678,440.18677,59,100,40
440.18677,440.23676,61,100,40
440.23676,440.28677,59,100,40
440.28677,440.33676,61,100,40
440.33676,440.38678,59,100,40
440.38678,440.43677,61,100,40
440.43677,440.48676,59,100,40
440.48676,440.53677,61,100,40
440.53677,440.58676,59,100,40
440.58676,440.63678,61,100,40
440.63678,440.73676,57,100,40
440.73676,440.83676,59,100,40
440.83676,441.23676,66,100,40
441.63678,441.83676,66,100,40
442.03677,442.23676,66,100,40
442.43677,442.63678,64,100,40
442.83676,443.03677,64,100,40
443.23676,443.53677,62,100,40
443.53677,443.63678,64,100,40
443.63678,443.93677,66,100,40
443.93677,444.03677,62,100,40
444.03677,444.23676,61,100,40
444.43677,444.63678,61,100,40
444.83676,445.03677,66,100,40
445.23676,445.43677,66,100,40
445.63678,445.83676,64,100,40
446.03677,446.23676,64,100,40
446.43677,446.73676,62,100,40
446.73676,446.83676,64,100,40
446.83676,447.13678,66,100,40
447.13678,447.23676,62,100,40
447.23676,448.03677,61,100,40
448.03677,448.83676,67,100,40
448.83676,449.63678,66,100,40
449.63678,450.43677,65,100,40
450.43677,451.23676,64,100,40
451.23676,452.03677,65,100,40
452.03677,452.83676,58,100,40
452.83676,453.63678,59,100,40
453.63678,454.03677,57,100,40
454.43677,454.63678,66,100,40
454.83676,455.03677,66,100,40
455.23676,455.43677,64,100,40
455.63678,455.83676,64,100,40
456.03677,456.33676,62,100,40
456.33676,456.43677,64,100,40
456.43677,456.73676,66,100,40
456.73676,456.83676,62,100,40
456.83676,457.03677,61,100,40
457.23676,457.43677,61,100,40
457.63678,457.83676,66,100,40
458.03677,458.23676,66,100,40
458.43677,458.63678,64,100,40
458.83676,459.03677,64,100,40
459.23676,459.53677,62,100,40
459.53677,459.63678,64,100,40
459.63678,459.93677,66,100,40
459.93677,460.03677,62,100,40
460.03677,460.83676,61,100,40
460.83676,461.63678,73,100,40
461.63678,462.03677,71,100,40
462.43677,463.23676,71,100,40
463.23676,463.63678,69,100,40
464.03677,464.23676,68,100,40
464.83676,465.03677,66,100,40
465.23676,465.43677,64,100,40
465.63678,465.83676,66,100,40
466.03677,466.23676,62,100,40
466.43677,466.63678,61,100,40
466.63678,466.83676,64,100,40
466.83676,467.03677,61,100,40
467.03677,467.23676,64,100,40
467.23676,467.43677,59,100,40
467.43677,467.63678,64,100,40
467.63678,467.83676,59,100,40
467.83676,468.03677,64,100,40
468.03677,468.23676,61,100,40
468.23676,468.43677,64,100,40
468.43677,468.63678,61,100,40
468.63678,468.83676,64,100,40
468.83676,469.03677,62,100,40
469.03677,469.23676,64,100,40
469.23676,469.43677,62,100,40
469.43677,469.63678,64,100,40
469.63678,469.83676,61,100,40
469.83676,470.03677,64,100,40
470.03677,470.23676,61,100,40
470.23676,470.43677,64,100,40
470.43677,470.63678,59,100,40
470.63678,470.83676,64,100,40
470.83676,471.03677,59,100,40
471.03677,471.23676,64,100,40
471.23676,471.43677,61,100,40
471.43677,471.63678,64,100,40
471.63678,471.83676,61,100,40
471.83676,472.03677,64,100,40
472.03677,472.23676,62,100,40
472.23676,472.43677,64,100,40
472.43677,472.63678,62,100,40
472.63678,472.83676,64,100,40
472.83676,473.03677,61,100,40
473.03677,473.23676,64,100,40
473.23676,473.43677,64,100,40
473.43677,473.63678,69,100,40
473.63678,474.03677,64,100,40
474.03677,474.23676,68,100,40
474.23676,474.43677,71,100,40
474.43677,474.83676,64,100,40
474.83676,475.03677,69,100,40
475.03677,475.23676,73,100,40
475.23676,475.63678,64,100,40
475.63678,475.83676,68,100,40
475.83676,476.03677,71,100,40
476.03677,476.43677,64,100,40
476.43677,476.63678,69,100,40
476.63678,476.83676,73,100,40
476.83676,477.23676,64,100,40
477.23676,477.43677,68,100,40
477.43677,477.63678,71,100,40
477.63678,478.03677,64,100,40
478.03677,478.23676,69,100,40
478.23676,478.43677,73,100,40
478.43677,478.83676,64,100,40
478.83676,479.03677,68,100,40
479.03677,479.23676,71,100,40
479.23676,479.63678,69,100,40
480.03677,480.83676,64,100,40
480.83676,481.23676,69,100,40
481.63678,481.93677,71,100,40
481.93677,482.03677,73,100,40
482.03677,482.33676,74,100,40
482.33676,482.43677,76,100,40
482.43677,482.83676,73,100,40
483.23676,483.83676,80,100,40
483.83676,483.93677,78,100,40
483.93677,484.03677,80,100,40
484.03677,484.43677,81,100,40
484.83676,485.13678,71,100,40
485.13678,485.23676,73,100,40
485.23676,485.53677,74,100,40
485.53677,485.63678,76,100,40
485.63678,486.03677,69,100,40
3.7291667,3.9291666,69,127,71
4.1291666,4.329167,69,127,71
4.5291667,4.7291665,76,127,71
4.929167,5.1291666,76,127,71
5.329167,5.3791666,73,127,71
5.3791666,5.429167,74,127,71
5.429167,5.4791665,73,127,71
5.4791665,5.5291667,74,127,71
5.5291667,5.579167,73,127,71
5.579167,5.6291666,74,127,71
5.6291666,5.679167,73,127,71
5.679167,5.7291665,74,127,71
5.7291665,5.7791667,73,127,71
5.7791667,5.829167,74,127,71
5.829167,5.8791666,73,127,71
5.8791666,5.929167,74,127,71
5.929167,6.0291667,71,127,71
6.0291667,6.1291666,73,127,71
6.1291666,6.929167,71,127,71
10.129167,10.329166,69,127,71
10.529166,10.729167,69,127,71
10.929167,11.129167,71,127,71
11.329166,11.529166,71,127,71
11.729167,11.779166,68,127,71
11.779166,11.829166,69,127,71
11.829166,11.879167,68,127,71
11.879167,11.929167,69,127,71
11.929167,11.979167,68,127,71
11.979167,12.029166,69,127,71
12.029166,12.079166,68,127,71
12.079166,12.129167,69,127,71
12.129167,12.179167,68,127,71
12.179167,12.229167,69,127,71
12.229167,12.279166,68,127,71
12.279166,12.329166,69,127,71
12.329166,12.429167,66,127,71
12.429167,12.529166,68,127,71
12.529166,13.329166,69,127,71
16.529167,16.729166,69,127,71
16.929167,17.129168,69,127,71
17.329166,17.529167,76,127,71
17.729166,17.929167,76,127,71
18.129168,18.179167,73,127,71
18.179167,18.229166,74,127,71
18.229166,18.279167,73,127,71
18.279167,18.329166,74,127,71
18.329166,18.379168,73,127,71
18.379168,18.429167,74,127,71
18.429167,18.479166,73,127,71
18.479166,18.529167,74,127,71
18.529167,18.579166,73,127,71
18.579166,18.629168,74,127,71
18.629168,18.679167,73,127,71
18.679167,18.729166,74,127,71
18.729166,18.829166,71,127,71
18.829166,18.929167,73,127,71
18.929167,19.729166,71,127,71
22.929167,23.129168,69,127,71
23.329166,23.529167,69,127,71
23.729166,23.929167,71,127,71
24.129168,24.329166,71,127,71
24.529167,24.579166,68,127,71
24.579166,24.629168,69,127,71
24.629168,24.679167,68,127,71
24.679167,24.729166,69,127,71
24.729166,24.779167,68,127,71
24.779167,24.829166,69,127,71
24.829166,24.879168,68,127,71
24.879168,24.929167,69,127,71
24.929167,24.979166,68,127,71
24.979166,25.029167,69,127,71
25.029167,25.079166,68,127,71
25.079166,25.129168,69,127,71
25.129168,25.229166,66,127,71
25.229166,25.329166,68,127,71
25.329166,26.129168,69,127,71
35.729168,35.929165,69,127,71
36.129166,36.329166,69,127,71
36.529167,36.729168,71,127,71
36.929165,37.129166,71,127,71
37.329166,37.379166,68,127,71
37.379166,37.429165,69,127,71
37.429165,37.479168,68,127,71
37.479168,37.529167,69,127,71
37.529167,37.579166,68,127,71
37.579166,37.629166,69,127,71
37.629166,37.679165,68,127,71
37.679165,37.729168,69,127,71
37.729168,37.779167,68,127,71
37.779167,37.829166,69,127,71
37.829166,37.879166,68,127,71
37.879166,37.929165,69,127,71
37.929165,38.029167,66,127,71
38.029167,38.129166,68,127,71
38.129166,38.929165,69,127,71
48.529167,48.729168,69,127,71
48.929165,49.129166,69,127,71
49.329166,49.529167,71,127,71
49.729168,49.929165,71,127,71
50.129166,50.179165,68,127,71
50.179165,50.229168,69,127,71
50.229168,50.279167,68,127,71
50.279167,50.329166,69,127,71
50.329166,50.379166,68,127,71
50.379166,50.429165,69,127,71
50.429165,50.479168,68,127,71
50.479168,50.529167,69,127,71
50.529167,50.579166,68,127,71
50.579166,50.629166,69,127,71
50.629166,50.679165,68,127,71
50.679165,50.729168,69,127,71
50.729168,50.829166,66,127,71
50.829166,50.929165,68,127,71
50.929165,51.729168,69,127,71
51.729168,51.929165,76,127,71
51.929165,52.129166,73,127,71
52.129166,52.729168,81,127,71
52.729168,52.929165,80,127,71
52.929165,53.129166,78,127,71
53.129166,53.329166,76,127,71
53.329166,53.529167,76,127,71
53.529167,53.729168,74,127,71
53.729168,54.329166,74,127,71
54.329166,54.529167,71,127,71
54.529167,54.729168,68,127,71
54.729168,54.929165,64,127,71
54.929165,55.029167,69,127,71
55.129166,55.229168,64,127,71
55.329166,55.429165,57,127,71
55.529167,55.729168,73,127,71
55.729168,55.929165,71,127,71
55.929165,56.029167,64,127,71
56.129166,56.229168,52,127,71
56.329166,56.429165,74,127,71
56.529167,56.729168,73,127,71
56.729168,56.929165,69,127,71
56.929165,57.129166,76,127,71
57.129166,57.329166,73,127,71
57.329166,57.529167,71,127,71
57.529167,57.729168,73,127,71
57.729168,57.929165,74,127,71
57.929165,58.129166,75,127,71
58.129166,58.329166,76,127,71
58.329166,58.529167,73,127,71
58.529167,59.129166,81,127,71
59.129166,59.329166,80,127,71
59.329166,59.529167,78,127,71
59.529167,59.729168,76,127,71
59.729168,59.929165,76,127,71
59.929165,60.129166,74,127,71
60.129166,60.729168,83,127,71
60.729168,60.929165,80,127,71
60.929165,61.129166,76,127,71
61.129166,61.329166,74,127,71
61.329166,61.429165,73,127,71
61.529167,61.629166,57,127,71
61.729168,61.929165,80,127,71
61.929165,62.129166,81,127,71
62.129166,62.229168,71,127,71
62.329166,62.429165,50,127,71
62.529167,62.729168,77,127,71
62.729168,62.929165,78,127,71
62.929165,63.029167,52,127,71
63.129166,63.329166,74,127,71
63.329166,63.529167,71,127,71
63.529167,63.729168,68,127,71
63.729168,64.129166,69,127,71
64.52917,64.729164,76,127,71
64.729164,64.92917,73,127,71
64.92917,65.52917,81,127,71
65.52917,65.729164,80,127,71
65.729164,65.92917,78,127,71
65.92917,66.129166,76,127,71
66.129166,66.32917,76,127,71
66.32917,66.52917,74,127,71
66.52917,67.129166,74,127,71
67.129166,67.32917,71,127,71
67.32917,67.52917,68,127,71
67.52917,67.729164,64,127,71
67.729164,67.82917,69,127,71
67.92917,68.02917,64,127,71
68.129166,68.229164,57,127,71
68.32917,68.52917,73,127,71
68.52917,68.729164,71,127,71
68.729164,68.82917,64,127,71
68.92917,69.02917,52,127,71
69.129166,69.229164,74,127,71
69.32917,69.52917,73,127,71
69.52917,69.729164,69,127,71
69.729164,69.92917,76,127,71
69.92917,70.129166,73,127,71
70.129166,70.32917,71,127,71
70.32917,70.52917,73,127,71
70.52917,70.729164,74,127,71
70.729164,70.92917,75,127,71
70.92917,71.129166,76,127,71
71.129166,71.32917,73,127,71
71.32917,71.92917,81,127,71
71.92917,72.129166,80,127,71
72.129166,72.32917,78,127,71
72.32917,72.52917,76,127,71
72.52917,72.729164,76,127,71
72.729164,72.92917,74,127,71
72.92917,73.52917,83,127,71
73.52917,73.729164,80,127,71
73.729164,73.92917,76,127,71
73.92917,74.129166,74,127,71
74.129166,74.229164,73,127,71
74.32917,74.42917,57,127,71
74.52917,74.729164,80,127,71
74.729164,74.92917,81,127,71
74.92917,75.02917,71,127,71
75.129166,75.229164,50,127,71
75.32917,75.52917,77,127,71
75.52917,75.729164,78,127,71
75.729164,75.82917,52,127,71
75.92917,76.129166,74,127,71
76.129166,76.32917,71,127,71
76.32917,76.52917,68,127,71
76.52917,76.92917,69,127,71
77.32917,77.42917,74,127,71
77.52917,77.629166,52,127,71
77.729164,78.32917,80,127,71
78.32917,78.52917,81,127,71
78.52917,78.729164,73,127,71
78.729164,78.92917,78,127,71
78.92917,79.32917,76,127,71
79.32917,79.379166,74,127,71
79.379166,79.42917,76,127,71
79.42917,79.479164,74,127,71
79.479164,79.52917,76,127,71
79.52917,79.629166,73,127,71
79.629166,79.729164,74,127,71
79.729164,80.129166,73,127,71
80.52917,80.629166,74,127,71
80.729164,80.82917,52,127,71
80.92917,81.52917,80,127,71
81.52917,81.729164,81,127,71
81.729164,81.92917,73,127,71
81.92917,82.129166,78,127,71
82.129166,82.32917,75,127,71
82.32917,82.52917,76,127,71
82.52917,82.729164,78,127,71
82.729164,82.92917,76,127,71
82.92917,83.129166,71,127,71
83.129166,83.32917,73,127,71
83.32917,83.52917,74,127,71
83.52917,83.729164,75,127,71
83.729164,83.82917,76,127,71
83.92917,84.02917,57,127,71
84.129166,84.729164,81,127,71
84.729164,84.92917,69,127,71
84.92917,85.129166,71,127,71
85.129166,85.32917,73,127,71
85.32917,85.42917,74,127,71
85.52917,85.629166,59,127,71
85.729164,86.32917,83,127,71
86.32917,86.52917,68,127,71
86.52917,86.729164,69,127,71
86.729164,86.92917,71,127,71
86.92917,87.129166,73,127,71
87.129166,87.32917,74,127,71
87.32917,87.52917,75,127,71
87.52917,87.729164,76,127,71
87.729164,87.92917,77,127,71
87.92917,88.129166,78,127,71
88.129166,88.32917,80,127,71
88.32917,88.52917,81,127,71
88.52917,88.729164,71,127,71
88.729164,88.82917,74,127,71
88.82917,88.92917,73,127,71
88.92917,89.02917,76,127,71
89.02917,89.129166,74,127,71
89.129166,89.229164,78,127,71
89.229164,89.32917,76,127,71
89.32917,89.729164,69,127,71
90.129166,90.229164,74,127,71
90.32917,90.42917,52,127,71
90.52917,91.129166,80,127,71
91.129166,91.32917,81,127,71
91.32917,91.52917,73,127,71
91.52917,91.729164,78,127,71
91.729164,92.129166,76,127,71
92.129166,92.17917,74,127,71
92.17917,92.229164,76,127,71
92.229164,92.27917,74,127,71
92.27917,92.32917,76,127,71
92.32917,92.42917,73,127,71
92.42917,92.52917,74,127,71
92.52917,92.92917,73,127,71
93.32917,93.42917,74,127,71
93.52917,93.629166,52,127,71
93.729164,94.32917,80,127,71
94.32917,94.52917,81,127,71
94.52917,94.729164,73,127,71
94.729164,94.92917,78,127,71
94.92917,95.129166,75,127,71
95.129166,95.32917,76,127,71
95.32917,95.52917,78,127,71
95.52917,95.729164,76,127,71
95.729164,95.92917,71,127,71
95.92917,96.129166,73,127,71
96.129166,96.32917,74,127,71
96.32917,96.52917,75,127,71
96.52917,96.629166,76,127,71
96.729164,96.82917,57,127,71
96.92917,97.52917,81,127,71
97.52917,97.729164,69,127,71
97.729164,97.92917,71,127,71
97.92917,98.129166,73,127,71
98.129166,98.229164,74,127,71
98.32917,98.42917,59,127,71
98.52917,99.129166,83,127,71
99.129166,99.32917,68,127,71
99.32917,99.52917,69,127,71
99.52917,99.729164,71,127,71
99.729164,99.92917,73,127,71
99.92917,100.129166,74,127,71
100.129166,100.32917,75,127,71
100.32917,100.52917,76,127,71
100.52917,100.729164,77,127,71
100.729164,100.92917,78,127,71
100.92917,101.129166,80,127,71
101.129166,101.32917,81,127,71
101.32917,101.52917,71,127,71
101.52917,101.629166,74,127,71
101.629166,101.729164,73,127,71
101.729164,101.82917,76,127,71
101.82917,101.92917,74,127,71
101.92917,102.02917,78,127,71
102.02917,102.129166,76,127,71
102.129166,102.52917,69,127,71
109.32917,111.129166,76,127,71
111.129166,111.32917,75,127,71
111.32917,111.52917,76,127,71
111.52917,111.729164,78,127,71
111.729164,111.92917,76,127,71
111.92917,112.129166,74,127,71
112.129166,112.32917,73,127,71
112.32917,112.52917,71,127,71
112.52917,112.729164,69,127,71
112.92917,113.32917,57,127,71
113.32917,113.729164,54,127,71
113.729164,114.129166,50,127,71
114.129166,114.17917,52,127,71
114.17917,114.229164,54,127,71
114.229164,114.27917,52,127,71
114.27917,114.32917,54,127,71
114.32917,114.379166,52,127,71
114.379166,114.42917,54,127,71
114.42917,114.479164,52,127,71
114.479164,114.52917,54,127,71
114.52917,114.57917,52,127,71
114.57917,114.629166,54,127,71
114.629166,114.67917,52,127,71
114.67917,114.729164,54,127,71
114.729164,114.82917,51,127,71
114.82917,114.92917,52,127,71
114.92917,115.32917,57,127,71
122.129166,123.92917,76,127,71
123.92917,124.129166,75,127,71
124.129166,124.32917,76,127,71
124.32917,124.52917,78,127,71
124.52917,124.729164,76,127,71
124.729164,124.92917,74,127,71
124.92917,125.129166,73,127,71
125.129166,125.32917,71,127,71
125.32917,125.52917,69,127,71
125.729164,126.129166,57,127,71
126.129166,126.52917,54,127,71
126.52917,126.92917,50,127,71
126.92917,126.979164,52,127,71
126.979164,127.02917,54,127,71
127.02917,127.07917,52,127,71
127.07917,127.129166,54,127,71
127.129166,127.17917,52,127,71
127.17917,127.229164,54,127,71
127.229164,127.27917,52,127,71
127.27917,127.32917,54,127,71
127.32917,127.379166,52,127,71
127.379166,127.42917,54,127,71
127.42917,127.479164,52,127,71
127.479164,127.52917,54,127,71
127.52917,127.629166,51,127,71
127.629166,127.729164,52,127,71
127.729164,128.12917,57,127,71
134.92917,136.72917,76,127,71
136.72917,136.92917,75,127,71
136.92917,137.12917,76,127,71
137.12917,137.32916,78,127,71
137.32916,137.52916,76,127,71
137.52916,137.72917,74,127,71
137.72917,137.92917,73,127,71
137.92917,138.12917,71,127,71
138.12917,138.32916,69,127,71
138.52916,138.92917,57,127,71
138.92917,139.32916,54,127,71
139.32916,139.72917,50,127,71
139.72917,139.77916,52,127,71
139.77916,139.82916,54,127,71
139.82916,139.87917,52,127,71
139.87917,139.92917,54,127,71
139.92917,139.97917,52,127,71
139.97917,140.02916,54,127,71
140.02916,140.07916,52,127,71
140.07916,140.12917,54,127,71
140.12917,140.17917,52,127,71
140.17917,140.22917,54,127,71
140.22917,140.27916,52,127,71
140.27916,140.32916,54,127,71
140.32916,140.42917,51,127,71
140.42917,140.52916,52,127,71
140.52916,140.92917,57,127,71
147.72917,149.52916,76,127,71
149.52916,149.72917,75,127,71
149.72917,149.92917,76,127,71
149.92917,150.12917,78,127,71
150.12917,150.32916,76,127,71
150.32916,150.52916,74,127,71
150.52916,150.72917,73,127,71
150.72917,150.92917,71,127,71
150.92917,151.12917,69,127,71
151.32916,151.72917,57,127,71
151.72917,152.12917,54,127,71
152.12917,152.52916,50,127,71
152.52916,152.57916,52,127,71
152.57916,152.62917,54,127,71
152.62917,152.67917,52,127,71
152.67917,152.72917,54,127,71
152.72917,152.77916,52,127,71
152.77916,152.82916,54,127,71
152.82916,152.87917,52,127,71
152.87917,152.92917,54,127,71
152.92917,152.97917,52,127,71
152.97917,153.02916,54,127,71
153.02916,153.07916,52,127,71
153.07916,153.12917,54,127,71
153.12917,153.22917,51,127,71
153.22917,153.32916,52,127,71
153.32916,153.72917,57,127,71
161.51378,161.97531,57,127,71
161.97531,162.43684,60,127,71
162.43684,162.89839,64,127,71
162.89839,163.35992,57,127,71
163.35992,163.82147,56,127,71
163.82147,164.283,59,127,71
164.283,164.74454,64,127,71
164.74454,165.20609,56,127,71
165.20609,165.66762,57,127,71
165.66762,166.12915,60,127,71
166.12915,166.5907,64,127,71
166.5907,167.05223,56,127,71
167.05223,167.51376,57,127,71
167.51376,167.97531,64,127,71
167.97531,168.43684,60,127,71
168.43684,168.89838,57,127,71
176.28299,176.74452,57,127,71
176.74452,177.20607,60,127,71
177.20607,177.6676,64,127,71
177.6676,178.12914,57,127,71
178.12914,178.59068,56,127,71
178.59068,179.05222,59,127,71
179.05222,179.51376,64,127,71
179.51376,179.9753,56,127,71
179.9753,180.43683,57,127,71
180.43683,180.89838,60,127,71
180.89838,181.35991,64,127,71
181.35991,181.82144,56,127,71
181.82144,182.28299,57,127,71
182.28299,182.74452,64,127,71
182.74452,183.20605,60,127,71
183.20605,183.6676,57,127,71
183.6676,183.78299,57,127,71
183.78299,183.89836,61,127,71
183.89836,183.95605,64,127,71
184.01375,184.07144,69,127,71
184.12914,184.24452,61,127,71
184.24452,184.35991,64,127,71
184.35991,184.4176,69,127,71
184.4753,184.53299,73,127,71
184.59067,184.70605,76,127,71
184.70605,184.82144,73,127,71
184.82144,184.93683,69,127,71
184.93683,185.05222,64,127,71
185.05222,185.1676,61,127,71
185.1676,185.28297,64,127,71
185.28297,185.39836,61,127,71
185.39836,185.51375,57,127,71
185.51375,185.62914,52,127,71
185.62914,185.74452,56,127,71
185.74452,185.85991,59,127,71
185.85991,185.9753,62,127,71
185.9753,186.09067,64,127,71
186.09067,186.20605,68,127,71
186.20605,186.32144,71,127,71
186.32144,186.43683,74,127,71
186.43683,186.55222,76,127,71
186.55222,186.6676,74,127,71
186.6676,186.78297,71,127,71
186.78297,186.89836,68,127,71
186.89836,187.01375,64,127,71
187.01375,187.12914,59,127,71
187.12914,187.24452,56,127,71
187.24452,187.35991,52,127,71
187.35991,187.47528,57,127,71
187.47528,187.59067,64,127,71
187.59067,187.70605,61,127,71
187.70605,187.82144,64,127,71
187.82144,187.93683,57,127,71
187.93683,188.05222,64,127,71
188.05222,188.16759,61,127,71
188.16759,188.28297,64,127,71
188.28297,188.39836,52,127,71
188.39836,188.51375,59,127,71
188.51375,188.62914,56,127,71
188.62914,188.74452,59,127,71
188.74452,188.8599,52,127,71
188.8599,188.97528,59,127,71
188.97528,189.09067,56,127,71
189.09067,189.20605,59,127,71
189.20605,189.32144,57,127,71
189.32144,189.43683,64,127,71
189.43683,189.55222,61,127,71
189.55222,189.66759,64,127,71
189.66759,189.78297,57,127,71
189.78297,189.89836,64,127,71
189.89836,190.01375,61,127,71
190.01375,190.12914,57,127,71
190.12914,190.24452,52,127,71
190.24452,190.3599,56,127,71
190.3599,190.47528,59,127,71
190.47528,190.59067,64,127,71
190.59067,190.82144,52,127,71
198.43681,198.5522,57,127,71
198.5522,198.66759,61,127,71
198.66759,198.72528,64,127,71
198.78297,198.84067,69,127,71
198.89835,199.01373,61,127,71
199.01373,199.12912,64,127,71
199.12912,199.18681,69,127,71
199.2445,199.3022,73,127,71
199.3599,199.47528,76,127,71
199.47528,199.59065,73,127,71
199.59065,199.70604,69,127,71
199.70604,199.82143,64,127,71
199.82143,199.93681,61,127,71
199.93681,200.0522,64,127,71
200.0522,200.16759,61,127,71
200.16759,200.28297,57,127,71
200.28297,200.39835,52,127,71
200.39835,200.51373,56,127,71
200.51373,200.62912,59,127,71
200.62912,200.7445,62,127,71
200.7445,200.8599,64,127,71
200.8599,200.97528,68,127,71
200.97528,201.09065,71,127,71
201.09065,201.20604,74,127,71
201.20604,201.32143,76,127,71
201.32143,201.43681,74,127,71
201.43681,201.5522,71,127,71
201.5522,201.66759,68,127,71
201.66759,201.78296,64,127,71
201.78296,201.89835,59,127,71
201.89835,202.01373,56,127,71
202.01373,202.12912,52,127,71
202.12912,202.2445,57,127,71
202.2445,202.3599,64,127,71
202.3599,202.47527,61,127,71
202.47527,202.59065,64,127,71
202.59065,202.70604,57,127,71
202.70604,202.82143,64,127,71
202.82143,202.93681,61,127,71
202.93681,203.0522,64,127,71
203.0522,203.16757,52,127,71
203.16757,203.28296,59,127,71
203.28296,203.39835,56,127,71
203.39835,203.51373,59,127,71
203.51373,203.62912,52,127,71
203.62912,203.7445,59,127,71
203.7445,203.85988,56,127,71
203.85988,203.97527,59,127,71
203.97527,204.09065,57,127,71
204.09065,204.20604,64,127,71
204.20604,204.32143,61,127,71
204.32143,204.43681,64,127,71
204.43681,204.5522,57,127,71
204.5522,204.66757,64,127,71
204.66757,204.78296,61,127,71
204.78296,204.89835,57,127,71
204.89835,205.01373,52,127,71
205.01373,205.12912,56,127,71
205.12912,205.2445,59,127,71
205.2445,205.35988,64,127,71
205.35988,205.59065,52,127,71
213.20602,213.32141,50,127,71
213.66757,214.59064,80,127,71
214.59064,215.05219,81,127,71
215.05219,215.51372,76,127,71
215.51372,215.57141,74,127,71
215.57141,215.6291,76,127,71
215.6291,215.6868,74,127,71
215.6868,215.74449,76,127,71
215.74449,215.85988,73,127,71
215.85988,215.97527,74,127,71
215.97527,216.4368,73,127,71
216.89833,217.01372,50,127,71
217.35988,218.28294,80,127,71
218.28294,218.51372,81,127,71
218.51372,218.74449,73,127,71
218.74449,219.4368,76,127,71
219.4368,219.66756,73,127,71
219.66756,220.1291,71,127,71
220.59064,220.70602,57,127,71
220.70602,220.82141,61,127,71
220.82141,220.8791,64,127,71
220.9368,220.99449,69,127,71
221.05217,221.16756,61,127,71
221.16756,221.28294,64,127,71
221.28294,221.34064,69,127,71
221.39833,221.45602,73,127,71
221.51372,221.6291,76,127,71
221.6291,221.74448,73,127,71
221.74448,221.85986,69,127,71
221.85986,221.97525,64,127,71
221.97525,222.09064,61,127,71
222.09064,222.20602,64,127,71
222.20602,222.32141,61,127,71
222.32141,222.4368,57,127,71
222.4368,222.55217,52,127,71
222.55217,222.66756,56,127,71
222.66756,222.78294,59,127,71
222.78294,222.89833,62,127,71
222.89833,223.01372,64,127,71
223.01372,223.1291,68,127,71
223.1291,223.24448,71,127,71
223.24448,223.35986,74,127,71
223.35986,223.47525,76,127,71
223.47525,223.59064,74,127,71
223.59064,223.70602,71,127,71
223.70602,223.82141,68,127,71
223.82141,223.93678,64,127,71
223.93678,224.05217,59,127,71
224.05217,224.16756,56,127,71
224.16756,224.28294,52,127,71
224.28294,224.39833,54,127,71
224.39833,224.51372,57,127,71
224.51372,224.62909,56,127,71
224.62909,224.74448,57,127,71
224.74448,224.85986,54,127,71
224.85986,224.97525,57,127,71
224.97525,225.09064,56,127,71
225.09064,225.20602,57,127,71
225.20602,225.3214,50,127,71
225.3214,225.43678,59,127,71
225.43678,225.55217,54,127,71
225.55217,225.66756,59,127,71
225.66756,225.78294,50,127,71
225.78294,225.89833,59,127,71
225.89833,226.01372,54,127,71
226.01372,226.12909,59,127,71
226.12909,226.24448,52,127,71
226.24448,226.35986,59,127,71
226.35986,226.47525,56,127,71
226.47525,226.59064,59,127,71
226.59064,226.70602,52,127,71
226.70602,226.8214,59,127,71
226.8214,226.93678,56,127,71
226.93678,227.05217,59,127,71
227.05217,227.16756,57,127,71
227.16756,227.28294,61,127,71
227.28294,227.39833,64,127,71
227.39833,227.5137,69,127,71
227.5137,227.74448,57,127,71
227.97525,228.09064,50,127,71
228.43678,229.35986,80,127,71
229.35986,229.8214,81,127,71
229.8214,230.28294,76,127,71
230.28294,230.34062,74,127,71
230.34062,230.39832,76,127,71
230.39832,230.45601,74,127,71
230.45601,230.5137,76,127,71
230.5137,230.62909,73,127,71
230.62909,230.74448,74,127,71
230.74448,231.20601,73,127,71
231.66756,231.78293,50,127,71
232.12909,233.05217,80,127,71
233.05217,233.28293,81,127,71
233.28293,233.5137,73,127,71
233.5137,234.20601,76,127,71
234.20601,234.43678,73,127,71
234.43678,234.89832,71,127,71
235.35985,235.47523,57,127,71
235.47523,235.59062,61,127,71
235.59062,235.64832,64,127,71
235.70601,235.7637,69,127,71
235.8214,235.93678,61,127,71
235.93678,236.05215,64,127,71
236.05215,236.10985,69,127,71
236.16754,236.22523,73,127,71
236.28293,236.39832,76,127,71
236.39832,236.5137,73,127,71
236.5137,236.62909,69,127,71
236.62909,236.74446,64,127,71
236.74446,236.85985,61,127,71
236.85985,236.97523,64,127,71
236.97523,237.09062,61,127,71
237.09062,237.20601,57,127,71
237.20601,237.3214,52,127,71
237.3214,237.43678,56,127,71
237.43678,237.55215,59,127,71
237.55215,237.66754,62,127,71
237.66754,237.78293,64,127,71
237.78293,237.89832,68,127,71
237.89832,238.0137,71,127,71
238.0137,238.12909,74,127,71
238.12909,238.24446,76,127,71
238.24446,238.35985,74,127,71
238.35985,238.47523,71,127,71
238.47523,238.59062,68,127,71
238.59062,238.70601,64,127,71
238.70601,238.8214,59,127,71
238.8214,238.93677,56,127,71
238.93677,239.05215,52,127,71
239.05215,239.16754,54,127,71
239.16754,239.28293,57,127,71
239.28293,239.39832,56,127,71
239.39832,239.5137,57,127,71
239.5137,239.62907,54,127,71
239.62907,239.74446,57,127,71
239.74446,239.85985,56,127,71
239.85985,239.97523,57,127,71
239.97523,240.09062,50,127,71
240.09062,240.20601,59,127,71
240.20601,240.32138,54,127,71
240.32138,240.43677,59,127,71
240.43677,240.55215,50,127,71
240.55215,240.66754,59,127,71
240.66754,240.78293,54,127,71
240.78293,240.89832,59,127,71
240.89832,241.0137,52,127,71
241.0137,241.12907,59,127,71
241.12907,241.24446,56,127,71
241.24446,241.35985,59,127,71
241.35985,241.47523,52,127,71
241.47523,241.59062,59,127,71
241.59062,241.70601,56,127,71
241.70601,241.82138,59,127,71
241.82138,241.93677,57,127,71
241.93677,242.05215,61,127,71
242.05215,242.16754,64,127,71
242.16754,242.28293,69,127,71
242.28293,242.51369,57,127,71
242.74446,242.85985,49,127,71
242.85985,242.97523,52,127,71
242.97523,243.09062,57,127,71
243.09062,243.206,61,127,71
243.206,243.43677,49,127,71
243.66754,243.78293,50,127,71
243.78293,243.8983,54,127,71
243.8983,244.01369,57,127,71
244.01369,244.12907,62,127,71
244.12907,244.35985,50,127,71
244.59062,244.706,51,127,71
244.706,244.82138,54,127,71
244.82138,244.93677,59,127,71
244.93677,245.05215,63,127,71
245.05215,245.28293,51,127,71
245.51369,245.62907,52,127,71
245.62907,245.74446,56,127,71
245.74446,245.85985,59,127,71
245.85985,245.97523,64,127,71
245.97523,246.206,52,127,71
248.53677,248.83676,64,127,71
248.83676,249.13676,62,127,71
249.13676,249.43677,59,127,71
249.43677,249.73677,56,127,71
249.73677,250.03677,52,127,71
250.03677,251.23677,50,127,71
267.43677,268.03677,71,127,71
268.03677,268.63678,72,127,71
268.63678,269.23676,73,127,71
269.23676,269.83676,74,127,71
269.83676,270.43677,75,127,71
270.43677,272.23676,76,127,71
272.23676,272.83676,73,127,71
272.83676,273.13678,69,127,71
273.13678,273.43677,71,127,71
273.43677,273.73676,73,127,71
273.73676,274.03677,74,127,71
274.03677,274.33676,76,127,71
274.33676,274.63678,78,127,71
274.63678,274.93677,80,127,71
274.93677,275.23676,81,127,71
275.23676,275.63678,81,127,71
275.63678,276.03677,80,127,71
276.03677,276.43677,79,127,71
276.43677,276.73676,78,127,71
276.73676,277.03677,77,127,71
277.03677,277.33676,76,127,71
277.33676,277.63678,75,127,71
277.63678,278.83676,74,127,71
279.73676,280.03677,71,127,71
280.03677,280.63678,73,127,71
280.63678,281.83676,76,127,71
281.83676,282.83676,81,127,71
282.83676,283.23676,71,127,71
283.23676,283.63678,73,127,71
283.63678,284.03677,74,127,71
284.03677,284.43677,76,127,71
284.43677,284.83676,78,127,71
284.83676,286.03677,69,127,71
286.03677,286.18677,73,127,71
286.18677,286.93677,71,127,71
286.93677,287.23676,69,127,71
287.23676,288.43677,69,127,71
305.83676,306.43677,71,127,71
306.43677,307.03677,72,127,71
307.03677,307.63678,73,127,71
307.63678,308.23676,74,127,71
308.23676,308.83676,75,127,71
308.83676,310.63678,76,127,71
310.63678,311.23676,73,127,71
311.23676,311.53677,69,127,71
311.53677,311.83676,71,127,71
311.83676,312.13678,73,127,71
312.13678,312.43677,74,127,71
312.43677,312.73676,76,127,71
312.73676,313.03677,78,127,71
313.03677,313.33676,80,127,71
313.33676,313.63678,81,127,71
313.63678,314.03677,81,127,71
314.03677,314.43677,80,127,71
314.43677,314.83676,79,127,71
314.83676,315.13678,78,127,71
315.13678,315.43677,77,127,71
315.43677,315.73676,76,127,71
315.73676,316.03677,75,127,71
316.03677,317.23676,74,127,71
318.13678,318.43677,71,127,71
318.43677,319.03677,73,127,71
319.03677,320.23676,76,127,71
320.23676,321.23676,81,127,71
321.23676,321.63678,71,127,71
321.63678,322.03677,73,127,71
322.03677,322.43677,74,127,71
322.43677,322.83676,76,127,71
322.83676,323.23676,78,127,71
323.23676,324.43677,69,127,71
324.43677,324.58676,73,127,71
324.58676,325.33676,71,127,71
325.33676,325.63678,69,127,71
325.63678,326.83676,69,127,71
328.03677,328.18677,50,127,71
328.18677,328.33676,52,127,71
328.33676,328.48676,56,127,71
328.48676,328.63678,59,127,71
328.63678,328.78677,64,127,71
328.78677,328.93677,68,127,71
328.93677,329.08676,71,127,71
329.08676,329.23676,76,127,71
329.23676,331.03677,80,127,71
331.03677,331.63678,81,127,71
331.63678,332.23676,73,127,71
332.23676,332.53677,78,127,71
332.83676,334.03677,76,127,71
334.03677,334.63678,75,127,71
334.63678,335.23676,74,127,71
335.23676,336.43677,73,127,71
337.63678,337.78677,50,127,71
337.78677,337.93677,52,127,71
337.93677,338.08676,56,127,71
338.08676,338.23676,59,127,71
338.23676,338.38678,64,127,71
338.38678,338.53677,68,127,71
338.53677,338.68677,71,127,71
338.68677,338.83676,76,127,71
338.83676,340.63678,80,127,71
340.63678,341.23676,81,127,71
341.23676,341.53677,73,127,71
341.53677,341.83676,74,127,71
341.83676,342.13678,75,127,71
342.13678,342.43677,76,127,71
342.43677,344.23676,76,127,71
344.23676,344.83676,73,127,71
344.83676,346.03677,71,127,71
366.43677,366.58676,50,127,71
366.58676,366.73676,52,127,71
366.73676,366.88678,56,127,71
366.88678,367.03677,59,127,71
367.03677,367.18677,64,127,71
367.18677,367.33676,68,127,71
367.33676,367.48676,71,127,71
367.48676,367.63678,76,127,71
367.63678,369.43677,80,127,71
369.43677,370.03677,81,127,71
370.03677,370.63678,73,127,71
370.63678,370.93677,78,127,71
371.23676,372.43677,76,127,71
372.43677,373.03677,75,127,71
373.03677,373.63678,74,127,71
373.63678,374.83676,73,127,71
376.03677,376.18677,50,127,71
376.18677,376.33676,52,127,71
376.33676,376.48676,56,127,71
376.48676,376.63678,59,127,71
376.63678,376.78677,64,127,71
376.78677,376.93677,68,127,71
376.93677,377.08676,71,127,71
377.08676,377.23676,76,127,71
377.23676,379.03677,80,127,71
379.03677,379.63678,81,127,71
379.63678,379.93677,73,127,71
379.93677,380.23676,74,127,71
380.23676,380.53677,75,127,71
380.53677,380.83676,76,127,71
380.83676,382.63678,76,127,71
382.63678,383.23676,73,127,71
383.23676,384.43677,71,127,71
404.83676,406.93677,73,127,71
406.93677,407.23676,74,127,71
407.23676,407.83676,71,127,71
409.63678,411.73676,74,127,71
411.73676,412.03677,76,127,71
412.03677,412.63678,73,127,71
414.43677,418.03677,76,127,71
418.03677,418.93677,78,127,71
418.93677,419.23676,80,127,71
419.23676,420.43677,81,127,71
420.43677,421.63678,78,127,71
421.63678,422.83676,73,127,71
422.83676,424.03677,75,127,71
424.03677,426.43677,78,127,71
426.43677,427.03677,76,127,71
431.43677,431.63678,76,127,71
431.63678,431.83676,78,127,71
431.83676,432.03677,80,127,71
432.03677,432.23676,81,127,71
432.23676,432.43677,80,127,71
432.43677,432.50345,78,127,71
432.50345,432.5701,80,127,71
432.5701,432.63678,78,127,71
432.63678,432.83676,76,127,71
432.83676,433.03677,76,127,71
433.03677,433.23676,74,127,71
433.23676,433.30344,73,127,71
433.30344,433.3701,74,127,71
433.3701,433.43677,73,127,71
433.43677,433.63678,71,127,71
433.63678,433.83676,69,127,71
433.83676,434.03677,71,127,71
434.03677,434.23676,73,127,71
434.23676,434.43677,74,127,71
434.43677,434.63678,71,127,71
434.63678,434.83676,68,127,71
434.83676,435.03677,66,127,71
435.03677,435.23676,64,127,71
435.23676,435.43677,76,127,71
435.63678,435.83676,76,127,71
436.03677,436.23676,73,127,71
436.43677,436.63678,73,127,71
436.83676,437.13678,74,127,71
437.13678,437.23676,76,127,71
437.23676,437.53677,78,127,71
437.53677,437.63678,74,127,71
437.63678,438.03677,71,127,71
438.03677,438.43677,71,127,71
438.43677,438.63678,69,127,71
438.83676,439.03677,69,127,71
439.23676,439.43677,71,127,71
439.63678,439.83676,71,127,71
440.03677,440.08676,68,127,71
440.08676,440.13678,69,127,71
440.13678,440.18677,68,127,71
440.18677,440.23676,69,127,71
440.23676,440.28677,68,127,71
440.28677,440.33676,69,127,71
440.33676,440.38678,68,127,71
440.38678,440.43677,69,127,71
440.43677,440.48676,68,127,71
440.48676,440.53677,69,127,71
440.53677,440.58676,68,127,71
440.58676,440.63678,69,127,71
440.63678,440.73676,66,127,71
440.73676,440.83676,68,127,71
440.83676,441.23676,69,127,71
448.03677,448.23676,76,127,71
448.43677,448.63678,76,127,71
448.83676,449.23676,76,127,71
449.23676,449.63678,75,127,71
449.63678,450.03677,74,127,71
450.03677,450.23676,74,127,71
450.43677,450.83676,74,127,71
450.83676,451.23676,73,127,71
451.23676,451.63678,72,127,71
451.63678,452.03677,72,127,71
452.03677,452.43677,70,127,71
452.43677,452.83676,70,127,71
452.83676,453.23676,68,127,71
453.23676,453.63678,68,127,71
453.63678,454.03677,69,127,71
460.83676,461.23676,78,127,71
461.23676,461.43677,78,127,71
461.63678,462.03677,78,127,71
462.03677,462.43677,77,127,71
462.43677,462.83676,76,127,71
462.83676,463.03677,76,127,71
463.23676,463.63678,76,127,71
463.63678,464.03677,75,127,71
464.03677,464.43677,74,127,71
464.43677,464.83676,74,127,71
464.83676,465.03677,73,127,71
465.23676,465.43677,73,127,71
465.63678,465.93677,71,127,71
465.93677,466.03677,69,127,71
466.03677,466.33676,71,127,71
466.33676,466.43677,73,127,71
466.43677,467.23676,69,127,71
467.23676,467.43677,74,127,71
467.63678,467.83676,74,127,71
468.03677,468.23676,73,127,71
468.43677,468.63678,73,127,71
468.83676,469.13678,71,127,71
469.13678,469.23676,73,127,71
469.23676,469.53677,74,127,71
469.53677,469.63678,75,127,71
469.63678,469.83676,76,127,71
470.03677,470.23676,76,127,71
470.43677,470.63678,74,127,71
470.83676,471.03677,74,127,71
471.23676,471.43677,73,127,71
471.63678,471.83676,73,127,71
472.03677,472.33676,71,127,71
472.33676,472.43677,73,127,71
472.43677,472.73676,74,127,71
472.73676,472.83676,76,127,71
472.83676,473.03677,69,127,71
473.23676,473.43677,61,127,71
473.43677,473.63678,57,127,71
473.63678,473.83676,52,127,71
473.83676,474.03677,59,127,71
474.03677,474.23676,64,127,71
474.23676,474.43677,59,127,71
474.43677,474.63678,52,127,71
474.63678,474.83676,57,127,71
474.83676,475.03677,64,127,71
475.03677,475.23676,57,127,71
475.23676,475.43677,52,127,71
475.43677,475.63678,56,127,71
475.63678,475.83676,64,127,71
475.83676,476.03677,56,127,71
476.03677,476.23676,52,127,71
476.23676,476.43677,57,127,71
476.43677,476.63678,64,127,71
476.63678,476.83676,57,127,71
476.83676,477.03677,52,127,71
477.03677,477.23676,59,127,71
477.23676,477.43677,64,127,71
477.43677,477.63678,59,127,71
477.63678,477.83676,52,127,71
477.83676,478.03677,57,127,71
478.03677,478.23676,64,127,71
478.23676,478.43677,57,127,71
478.43677,478.63678,52,127,71
478.63678,478.83676,56,127,71
478.83676,479.03677,64,127,71
479.03677,479.23676,56,127,71
479.23676,479.63678,57,127,71
480.03677,480.33676,71,127,71
480.33676,480.43677,73,127,71
480.43677,480.73676,74,127,71
480.73676,480.83676,76,127,71
480.83676,481.23676,73,127,71
481.63678,482.03677,80,127,71
482.43677,482.83676,81,127,71
484.83676,485.23676,64,127,71
485.63678,486.03677,57,127,71
3.7291667,3.9291666,64,100,41
4.1291666,4.329167,64,100,41
4.5291667,4.7291665,64,100,41
4.929167,5.1291666,64,100,41
5.329167,6.1291666,64,100,41
6.1291666,6.929167,52,100,41
10.129167,10.329166,66,100,41
10.529166,10.729167,66,100,41
10.929167,11.129167,66,100,41
11.329166,11.529166,66,100,41
11.729167,12.529166,64,100,41
12.529166,13.329166,64,100,41
16.529167,16.729166,64,100,41
16.929167,17.129168,64,100,41
17.329166,17.529167,64,100,41
17.729166,17.929167,64,100,41
18.129168,18.929167,64,100,41
18.929167,19.729166,52,100,41
22.929167,23.129168,66,100,41
23.329166,23.529167,66,100,41
23.729166,23.929167,66,100,41
24.129168,24.329166,66,100,41
24.529167,25.329166,64,100,41
25.329166,26.129168,64,100,41
27.729166,28.529167,68,100,41
28.529167,28.729166,71,100,41
28.729166,28.929167,69,100,41
28.929167,29.129168,68,100,41
29.129168,29.329166,66,100,41
29.329166,29.729166,64,100,41
29.729166,30.129168,62,100,41
30.129168,30.729166,61,100,41
30.729166,30.929167,69,100,41
30.929167,31.129168,74,100,41
31.129168,31.329166,73,100,41
31.329166,31.529167,71,100,41
31.529167,31.729166,69,100,41
31.729166,32.129166,68,100,41
32.529167,32.729168,73,100,41
32.929165,33.129166,73,100,41
33.329166,33.529167,69,100,41
33.729168,33.929165,69,100,41
34.129166,34.429165,71,100,41
34.429165,34.529167,73,100,41
34.529167,34.829166,74,100,41
34.829166,34.929165,71,100,41
34.929165,35.129166,68,100,41
35.329166,35.529167,68,100,41
35.729168,36.129166,69,100,41
36.129166,36.929165,66,100,41
36.929165,37.329166,66,100,41
37.329166,38.129166,64,100,41
38.129166,38.929165,64,100,41
40.529167,41.329166,68,100,41
41.329166,41.529167,71,100,41
41.529167,41.729168,69,100,41
41.729168,41.929165,68,100,41
41.929165,42.129166,66,100,41
42.129166,42.529167,64,100,41
42.529167,42.929165,62,100,41
42.929165,43.529167,61,100,41
43.529167,43.729168,69,100,41
43.729168,43.929165,74,100,41
43.929165,44.129166,73,100,41
44.129166,44.329166,71,100,41
44.329166,44.529167,69,100,41
44.529167,44.929165,68,100,41
45.329166,45.529167,73,100,41
45.729168,45.929165,73,100,41
46.129166,46.329166,69,100,41
46.529167,46.729168,69,100,41
46.929165,47.229168,71,100,41
47.229168,47.329166,73,100,41
47.329166,47.629166,74,100,41
47.629166,47.729168,71,100,41
47.729168,47.929165,68,100,41
48.129166,48.329166,68,100,41
48.529167,48.929165,69,100,41
48.929165,49.729168,66,100,41
49.729168,50.129166,66,100,41
50.129166,50.929165,64,100,41
50.929165,51.729168,64,100,41
54.929165,55.129166,64,100,41
55.329166,55.529167,64,100,41
55.729168,55.929165,64,100,41
56.129166,56.329166,64,100,41
56.529167,57.329166,64,100,41
57.329166,57.729168,64,100,41
58.129166,58.329166,64,100,41
58.529167,58.729168,64,100,41
58.929165,59.129166,61,100,41
59.329166,59.529167,61,100,41
59.729168,60.029167,62,100,41
60.029167,60.129166,64,100,41
60.129166,60.429165,66,100,41
60.429165,60.529167,62,100,41
60.529167,60.729168,59,100,41
60.929165,61.129166,59,100,41
61.329166,61.529167,66,100,41
61.729168,61.929165,66,100,41
62.129166,62.329166,66,100,41
62.529167,62.729168,66,100,41
62.929165,63.729168,62,100,41
62.929165,63.729168,64,100,41
63.729168,64.129166,61,100,41
63.729168,64.129166,64,100,41
67.729164,67.92917,64,100,41
68.129166,68.32917,64,100,41
68.52917,68.729164,64,100,41
68.92917,69.129166,64,100,41
69.32917,70.129166,64,100,41
70.129166,70.52917,64,100,41
70.92917,71.129166,64,100,41
71.32917,71.52917,64,100,41
71.729164,71.92917,61,100,41
72.129166,72.32917,61,100,41
72.52917,72.82917,62,100,41
72.82917,72.92917,64,100,41
72.92917,73.229164,66,100,41
73.229164,73.32917,62,100,41
73.32917,73.52917,59,100,41
73.729164,73.92917,59,100,41
74.129166,74.32917,66,100,41
74.52917,74.729164,66,100,41
74.92917,75.129166,66,100,41
75.32917,75.52917,66,100,41
75.729164,76.52917,62,100,41
75.729164,76.52917,64,100,41
76.52917,76.92917,61,100,41
76.52917,76.92917,64,100,41
77.32917,80.52917,52,100,41
80.52917,81.729164,52,100,41
84.52917,84.729164,66,100,41
84.92917,85.129166,66,100,41
85.32917,85.52917,62,100,41
85.729164,85.92917,62,100,41
86.129166,86.42917,64,100,41
86.42917,86.52917,66,100,41
86.52917,86.82917,68,100,41
86.82917,86.92917,64,100,41
86.92917,87.129166,61,100,41
87.32917,87.52917,61,100,41
87.729164,87.92917,62,100,41
88.129166,88.32917,62,100,41
88.52917,88.57917,59,100,41
88.57917,88.629166,61,100,41
88.629166,88.67917,59,100,41
88.67917,88.729164,61,100,41
88.729164,88.77917,59,100,41
88.77917,88.82917,61,100,41
88.82917,88.879166,59,100,41
88.879166,88.92917,61,100,41
88.92917,88.979164,59,100,41
88.979164,89.02917,61,100,41
89.02917,89.07917,59,100,41
89.07917,89.129166,61,100,41
89.129166,89.229164,69,100,41
89.229164,89.32917,71,100,41
89.32917,89.729164,69,100,41
90.129166,93.32917,52,100,41
93.32917,94.52917,52,100,41
97.32917,97.52917,66,100,41
97.729164,97.92917,66,100,41
98.129166,98.32917,62,100,41
98.52917,98.729164,62,100,41
98.92917,99.229164,64,100,41
99.229164,99.32917,66,100,41
99.32917,99.629166,68,100,41
99.629166,99.729164,64,100,41
99.729164,99.92917,61,100,41
100.129166,100.32917,61,100,41
100.52917,100.729164,62,100,41
100.92917,101.129166,62,100,41
101.32917,101.379166,59,100,41
101.379166,101.42917,61,100,41
101.42917,101.479164,59,100,41
101.479164,101.52917,61,100,41
101.52917,101.57917,59,100,41
101.57917,101.629166,61,100,41
101.629166,101.67917,59,100,41
101.67917,101.729164,61,100,41
101.729164,101.77917,59,100,41
101.77917,101.82917,61,100,41
101.82917,101.879166,59,100,41
101.879166,101.92917,61,100,41
101.92917,102.02917,69,100,41
102.02917,102.129166,71,100,41
102.129166,102.52917,69,100,41
102.92917,103.0625,57,100,41
103.0625,103.19583,59,100,41
103.19583,103.32917,61,100,41
103.32917,103.395836,61,100,41
103.4625,103.52917,61,100,41
103.59583,103.6625,61,100,41
103.729164,103.8625,61,100,41
103.8625,103.995834,62,100,41
103.995834,104.129166,64,100,41
104.129166,104.19583,64,100,41
104.2625,104.32917,64,100,41
104.395836,104.4625,64,100,41
104.52917,104.6625,68,100,41
104.6625,104.79583,69,100,41
104.79583,104.92917,71,100,41
104.92917,104.995834,71,100,41
105.0625,105.129166,71,100,41
105.19583,105.2625,71,100,41
105.32917,105.4625,56,100,41
105.4625,105.59583,57,100,41
105.59583,105.729164,59,100,41
105.729164,105.79583,59,100,41
105.8625,105.92917,59,100,41
105.995834,106.0625,59,100,41
106.129166,106.2625,57,100,41
106.2625,106.395836,59,100,41
106.395836,106.52917,61,100,41
106.52917,106.59583,61,100,41
106.6625,106.729164,61,100,41
106.79583,106.8625,61,100,41
106.92917,107.0625,59,100,41
107.0625,107.19583,61,100,41
107.19583,107.32917,62,100,41
107.32917,107.395836,62,100,41
107.4625,107.52917,62,100,41
107.59583,107.6625,62,100,41
107.729164,107.8625,64,100,41
107.8625,107.995834,66,100,41
107.995834,108.129166,68,100,41
108.129166,108.2625,69,100,41
108.2625,108.395836,66,100,41
108.395836,108.52917,63,100,41
108.52917,108.59583,64,100,41
108.6625,108.729164,62,100,41
108.79583,108.8625,60,100,41
108.92917,108.995834,59,100,41
109.0625,109.129166,57,100,41
109.19583,109.2625,56,100,41
109.32917,109.4625,57,100,41
109.4625,109.59583,59,100,41
109.59583,109.729164,61,100,41
109.729164,109.79583,61,100,41
109.8625,109.92917,61,100,41
109.995834,110.0625,61,100,41
110.129166,110.2625,61,100,41
110.2625,110.395836,62,100,41
110.395836,110.52917,64,100,41
110.52917,110.59583,64,100,41
110.6625,110.729164,64,100,41
110.79583,110.8625,64,100,41
110.92917,111.0625,68,100,41
111.0625,111.19583,69,100,41
111.19583,111.32917,71,100,41
111.32917,111.395836,71,100,41
111.4625,111.52917,71,100,41
111.59583,111.6625,71,100,41
111.729164,111.8625,56,100,41
111.8625,111.995834,57,100,41
111.995834,112.129166,59,100,41
112.129166,112.19583,59,100,41
112.2625,112.32917,59,100,41
112.395836,112.4625,59,100,41
112.52917,112.6625,57,100,41
112.6625,112.79583,59,100,41
112.79583,112.92917,61,100,41
112.92917,112.995834,61,100,41
113.0625,113.129166,61,100,41
113.19583,113.2625,61,100,41
113.32917,113.4625,59,100,41
113.4625,113.59583,61,100,41
113.59583,113.729164,62,100,41
113.729164,113.79583,62,100,41
113.8625,113.92917,62,100,41
113.995834,114.0625,62,100,41
114.129166,114.19583,56,100,41
114.2625,114.395836,56,100,41
114.395836,114.52917,57,100,41
114.52917,114.6625,59,100,41
114.6625,114.79583,61,100,41
114.79583,114.92917,59,100,41
114.92917,115.32917,57,100,41
115.729164,115.8625,57,100,41
115.8625,115.995834,59,100,41
115.995834,116.129166,61,100,41
116.129166,116.19583,61,100,41
116.2625,116.32917,61,100,41
116.395836,116.4625,61,100,41
116.52917,116.6625,61,100,41
116.6625,116.79583,62,100,41
116.79583,116.92917,64,100,41
116.92917,116.995834,64,100,41
117.0625,117.129166,64,100,41
117.19583,117.2625,64,100,41
117.32917,117.4625,68,100,41
117.4625,117.59583,69,100,41
117.59583,117.729164,71,100,41
117.729164,117.79583,71,100,41
117.8625,117.92917,71,100,41
117.995834,118.0625,71,100,41
118.129166,118.2625,56,100,41
118.2625,118.395836,57,100,41
118.395836,118.52917,59,100,41
118.52917,118.59583,59,100,41
118.6625,118.729164,59,100,41
118.79583,118.8625,59,100,41
118.92917,119.0625,57,100,41
119.0625,119.19583,59,100,41
119.19583,119.32917,61,100,41
119.32917,119.395836,61,100,41
119.4625,119.52917,61,100,41
119.59583,119.6625,61,100,41
119.729164,119.8625,59,100,41
119.8625,119.995834,61,100,41
119.995834,120.129166,62,100,41
120.129166,120.19583,62,100,41
120.2625,120.32917,62,100,41
120.395836,120.4625,62,100,41
120.52917,120.6625,64,100,41
120.6625,120.79583,66,100,41
120.79583,120.92917,68,100,41
120.92917,121.0625,69,100,41
121.0625,121.19583,66,100,41
121.19583,121.32917,63,100,41
121.32917,121.395836,64,100,41
121.4625,121.52917,62,100,41
121.59583,121.6625,60,100,41
121.729164,121.79583,59,100,41
121.8625,121.92917,57,100,41
121.995834,122.0625,56,100,41
122.129166,122.2625,57,100,41
122.2625,122.395836,59,100,41
122.395836,122.52917,61,100,41
122.52917,122.59583,61,100,41
122.6625,122.729164,61,100,41
122.79583,122.8625,61,100,41
122.92917,123.0625,61,100,41
123.0625,123.19583,62,100,41
123.19583,123.32917,64,100,41
123.32917,123.395836,64,100,41
123.4625,123.52917,64,100,41
123.59583,123.6625,64,100,41
123.729164,123.8625,68,100,41
123.8625,123.995834,69,100,41
123.995834,124.129166,71,100,41
124.129166,124.19583,71,100,41
124.2625,124.32917,71,100,41
124.395836,124.4625,71,100,41
124.52917,124.6625,56,100,41
124.6625,124.79583,57,100,41
124.79583,124.92917,59,100,41
124.92917,124.995834,59,100,41
125.0625,125.129166,59,100,41
125.19583,125.2625,59,100,41
125.32917,125.4625,57,100,41
125.4625,125.59583,59,100,41
125.59583,125.729164,61,100,41
125.729164,125.79583,61,100,41
125.8625,125.92917,61,100,41
125.995834,126.0625,61,100,41
126.129166,126.2625,59,100,41
126.2625,126.395836,61,100,41
126.395836,126.52917,62,100,41
126.52917,126.59583,62,100,41
126.6625,126.729164,62,100,41
126.79583,126.8625,62,100,41
126.92917,126.995834,56,100,41
127.0625,127.19583,56,100,41
127.19583,127.32917,57,100,41
127.32917,127.4625,59,100,41
127.4625,127.59583,61,100,41
127.59583,127.729164,59,100,41
127.729164,128.12917,57,100,41
128.52916,128.6625,56,100,41
128.6625,128.79584,59,100,41
128.79584,128.92917,64,100,41
128.92917,128.99583,68,100,41
129.0625,129.12917,68,100,41
129.19583,129.2625,68,100,41
129.32916,129.39583,68,100,41
129.4625,129.52916,68,100,41
129.59584,129.6625,68,100,41
129.72917,129.79584,69,100,41
129.8625,129.92917,69,100,41
129.99583,130.0625,69,100,41
130.12917,130.2625,64,100,41
130.2625,130.39583,68,100,41
130.39583,130.52916,71,100,41
130.52916,130.59584,71,100,41
130.6625,130.72917,71,100,41
130.79584,130.8625,71,100,41
130.92917,130.99583,71,100,41
131.0625,131.12917,71,100,41
131.19583,131.2625,71,100,41
131.32916,131.39583,73,100,41
131.4625,131.52916,73,100,41
131.59584,131.6625,73,100,41
131.72917,131.8625,71,100,41
131.8625,131.99583,68,100,41
131.99583,132.12917,59,100,41
132.12917,132.19583,56,100,41
132.2625,132.32916,56,100,41
132.39583,132.4625,56,100,41
132.52916,132.59584,56,100,41
132.6625,132.72917,56,100,41
132.79584,132.8625,56,100,41
132.92917,132.99583,57,100,41
133.0625,133.12917,52,100,41
133.19583,133.2625,52,100,41
133.32916,133.72917,52,100,41
134.92917,135.0625,57,100,41
135.0625,135.19583,59,100,41
135.19583,135.32916,61,100,41
135.32916,135.39583,61,100,41
135.4625,135.52916,61,100,41
135.59584,135.6625,61,100,41
135.72917,135.8625,61,100,41
135.8625,135.99583,62,100,41
135.99583,136.12917,64,100,41
136.12917,136.19583,64,100,41
136.2625,136.32916,64,100,41
136.39583,136.4625,64,100,41
136.52916,136.6625,68,100,41
136.6625,136.79584,69,100,41
136.79584,136.92917,71,100,41
136.92917,136.99583,71,100,41
137.0625,137.12917,71,100,41
137.19583,137.2625,71,100,41
137.32916,137.4625,56,100,41
137.4625,137.59584,57,100,41
137.59584,137.72917,59,100,41
137.72917,137.79584,59,100,41
137.8625,137.92917,59,100,41
137.99583,138.0625,59,100,41
138.12917,138.2625,57,100,41
138.2625,138.39583,59,100,41
138.39583,138.52916,61,100,41
138.52916,138.59584,61,100,41
138.6625,138.72917,61,100,41
138.79584,138.8625,61,100,41
138.92917,139.0625,59,100,41
139.0625,139.19583,61,100,41
139.19583,139.32916,62,100,41
139.32916,139.39583,62,100,41
139.4625,139.52916,62,100,41
139.59584,139.6625,62,100,41
139.72917,139.79584,56,100,41
139.8625,139.99583,56,100,41
139.99583,140.12917,57,100,41
140.12917,140.2625,59,100,41
140.2625,140.39583,61,100,41
140.39583,140.52916,59,100,41
140.52916,140.92917,57,100,41
141.32916,141.4625,56,100,41
141.4625,141.59584,59,100,41
141.59584,141.72917,64,100,41
141.72917,141.79584,68,100,41
141.8625,141.92917,68,100,41
141.99583,142.0625,68,100,41
142.12917,142.19583,68,100,41
142.2625,142.32916,68,100,41
142.39583,142.4625,68,100,41
142.52916,142.59584,69,100,41
142.6625,142.72917,69,100,41
142.79584,142.8625,69,100,41
142.92917,143.0625,64,100,41
143.0625,143.19583,68,100,41
143.19583,143.32916,71,100,41
143.32916,143.39583,71,100,41
143.4625,143.52916,71,100,41
143.59584,143.6625,71,100,41
143.72917,143.79584,71,100,41
143.8625,143.92917,71,100,41
143.99583,144.0625,71,100,41
144.12917,144.19583,73,100,41
144.2625,144.32916,73,100,41
144.39583,144.4625,73,100,41
144.52916,144.6625,71,100,41
144.6625,144.79584,68,100,41
144.79584,144.92917,59,100,41
144.92917,144.99583,56,100,41
145.0625,145.12917,56,100,41
145.19583,145.2625,56,100,41
145.32916,145.39583,56,100,41
145.4625,145.52916,56,100,41
145.59584,145.6625,56,100,41
145.72917,145.79584,57,100,41
145.8625,145.92917,52,100,41
145.99583,146.0625,52,100,41
146.12917,146.52916,52,100,41
147.72917,147.8625,57,100,41
147.8625,147.99583,59,100,41
147.99583,148.12917,61,100,41
148.12917,148.19583,61,100,41
148.2625,148.32916,61,100,41
148.39583,148.4625,61,100,41
148.52916,148.6625,61,100,41
148.6625,148.79584,62,100,41
148.79584,148.92917,64,100,41
148.92917,148.99583,64,100,41
149.0625,149.12917,64,100,41
149.19583,149.2625,64,100,41
149.32916,149.4625,68,100,41
149.4625,149.59584,69,100,41
149.59584,149.72917,71,100,41
149.72917,149.79584,71,100,41
149.8625,149.92917,71,100,41
149.99583,150.0625,71,100,41
150.12917,150.2625,56,100,41
150.2625,150.39583,57,100,41
150.39583,150.52916,59,100,41
150.52916,150.59584,59,100,41
150.6625,150.72917,59,100,41
150.79584,150.8625,59,100,41
150.92917,151.0625,57,100,41
151.0625,151.19583,59,100,41
151.19583,151.32916,61,100,41
151.32916,151.39583,61,100,41
151.4625,151.52916,61,100,41
151.59584,151.6625,61,100,41
151.72917,151.8625,59,100,41
151.8625,151.99583,61,100,41
151.99583,152.12917,62,100,41
152.12917,152.19583,62,100,41
152.2625,152.32916,62,100,41
152.39583,152.4625,62,100,41
152.52916,152.59584,56,100,41
152.6625,152.79584,56,100,41
152.79584,152.92917,57,100,41
152.92917,153.0625,59,100,41
153.0625,153.19583,61,100,41
153.19583,153.32916,59,100,41
153.32916,153.72917,57,100,41
154.12917,154.35994,64,100,41
154.35994,154.5907,69,100,41
154.5907,154.82147,72,100,41
154.82147,155.05225,68,100,41
155.05225,155.283,69,100,41
155.283,155.51378,64,100,41
155.51378,155.57147,67,100,41
155.57147,155.74455,65,100,41
155.74455,155.97531,64,100,41
155.97531,156.20609,64,100,41
156.20609,156.43686,71,100,41
156.43686,156.66763,74,100,41
156.66763,156.89839,68,100,41
156.89839,157.12917,71,100,41
157.12917,157.35994,64,100,41
157.35994,157.41762,67,100,41
157.41762,157.5907,65,100,41
157.5907,157.82147,64,100,41
158.05225,158.283,64,100,41
158.283,158.3407,67,100,41
158.3407,158.51378,65,100,41
158.51378,158.74455,64,100,41
158.97531,159.20609,64,100,41
159.20609,159.26378,67,100,41
159.26378,159.43686,65,100,41
159.43686,159.66762,64,100,41
159.89839,160.12917,64,100,41
160.12917,160.18686,67,100,41
160.18686,160.35992,65,100,41
160.35992,160.5907,64,100,41
160.5907,160.64839,67,100,41
160.64839,160.82147,65,100,41
160.82147,161.05223,64,100,41
161.05223,161.10992,67,100,41
161.10992,161.283,65,100,41
161.283,161.51378,64,100,41
161.51378,161.74454,64,100,41
161.74454,161.97531,69,100,41
161.97531,162.20609,72,100,41
162.20609,162.43684,68,100,41
162.43684,162.66762,69,100,41
162.66762,162.89839,64,100,41
162.89839,162.95609,67,100,41
162.95609,163.12915,65,100,41
163.12915,163.35992,64,100,41
163.35992,163.5907,64,100,41
163.5907,163.82147,71,100,41
163.82147,164.05223,74,100,41
164.05223,164.283,68,100,41
164.283,164.51378,71,100,41
164.51378,164.74454,64,100,41
164.74454,164.80223,67,100,41
164.80223,164.97531,65,100,41
164.97531,165.20609,64,100,41
165.43684,165.66762,64,100,41
165.66762,165.72531,67,100,41
165.72531,165.89839,65,100,41
165.89839,166.12915,64,100,41
166.35992,166.5907,64,100,41
166.5907,166.64839,67,100,41
166.64839,166.82146,65,100,41
166.82146,167.05223,64,100,41
167.283,167.51376,64,100,41
167.51376,167.57146,67,100,41
167.57146,167.74454,65,100,41
167.74454,167.97531,64,100,41
167.97531,168.033,67,100,41
168.033,168.20607,65,100,41
168.20607,168.43684,64,100,41
168.43684,168.49454,67,100,41
168.49454,168.66762,65,100,41
168.66762,168.89838,64,100,41
168.89838,170.28299,68,100,41
170.28299,170.51376,69,100,41
170.51376,170.74454,72,100,41
170.74454,171.20607,71,100,41
172.59068,173.9753,59,100,41
173.9753,174.43684,63,100,41
174.43684,174.89838,64,100,41
176.28299,176.51376,64,100,41
176.51376,176.74452,69,100,41
176.74452,176.9753,72,100,41
176.9753,177.20607,68,100,41
177.20607,177.43683,69,100,41
177.43683,177.6676,64,100,41
177.6676,177.7253,67,100,41
177.7253,177.89838,65,100,41
177.89838,178.12914,64,100,41
178.12914,178.35991,64,100,41
178.35991,178.59068,71,100,41
178.59068,178.82146,74,100,41
178.82146,179.05222,68,100,41
179.05222,179.28299,71,100,41
179.28299,179.51376,64,100,41
179.51376,179.57144,67,100,41
179.57144,179.74452,65,100,41
179.74452,179.9753,64,100,41
180.20607,180.43683,64,100,41
180.43683,180.49452,67,100,41
180.49452,180.6676,65,100,41
180.6676,180.89838,64,100,41
181.12914,181.35991,64,100,41
181.35991,181.4176,67,100,41
181.4176,181.59068,65,100,41
181.59068,181.82144,64,100,41
182.05222,182.28299,64,100,41
182.28299,182.34068,67,100,41
182.34068,182.51375,65,100,41
182.51375,182.74452,64,100,41
182.74452,182.80222,67,100,41
182.80222,182.9753,65,100,41
182.9753,183.20605,64,100,41
183.20605,183.26375,67,100,41
183.26375,183.43683,65,100,41
183.43683,183.6676,64,100,41
183.6676,186.78297,64,100,41
186.78297,186.89836,66,100,41
186.89836,187.24452,62,100,41
187.24452,187.35991,64,100,41
187.35991,187.59067,61,100,41
187.82144,188.05222,61,100,41
188.28297,188.51375,64,100,41
188.74452,188.97528,64,100,41
189.20605,190.59067,64,100,41
191.0522,191.28297,61,100,41
191.51375,191.7445,61,100,41
191.97528,192.20605,57,100,41
192.43681,192.66759,57,100,41
192.89836,193.2445,59,100,41
193.2445,193.3599,61,100,41
193.3599,193.70605,62,100,41
193.70605,193.82144,59,100,41
193.82144,194.0522,56,100,41
194.28297,194.51375,56,100,41
194.97528,195.20605,57,100,41
195.20605,195.43681,61,100,41
195.43681,195.66759,57,100,41
195.89836,196.12912,62,100,41
196.12912,196.3599,66,100,41
196.3599,196.59067,62,100,41
196.59067,196.82143,61,100,41
196.82143,197.0522,61,100,41
197.0522,197.28297,59,100,41
197.28297,197.51373,59,100,41
197.51373,197.97528,57,100,41
198.43681,201.5522,64,100,41
201.5522,201.66759,66,100,41
201.66759,202.01373,62,100,41
202.01373,202.12912,64,100,41
202.12912,202.3599,61,100,41
202.59065,202.82143,61,100,41
203.0522,203.28296,64,100,41
203.51373,203.7445,64,100,41
203.97527,205.35988,64,100,41
205.82143,206.05219,61,100,41
206.28296,206.51373,61,100,41
206.74449,206.97527,57,100,41
207.20604,207.4368,57,100,41
207.66757,208.01373,59,100,41
208.01373,208.12912,61,100,41
208.12912,208.47527,62,100,41
208.47527,208.59065,59,100,41
208.59065,208.82143,56,100,41
209.05219,209.28296,56,100,41
209.74449,209.97527,57,100,41
209.97527,210.20604,61,100,41
210.20604,210.4368,57,100,41
210.66757,210.89835,62,100,41
210.89835,211.1291,66,100,41
211.1291,211.35988,62,100,41
211.35988,211.59065,61,100,41
211.59065,211.82141,61,100,41
211.82141,212.05219,59,100,41
212.05219,212.28296,59,100,41
212.28296,212.74449,57,100,41
213.4368,213.66757,71,100,41
213.66757,213.89833,71,100,41
213.89833,214.1291,71,100,41
214.1291,214.35988,71,100,41
214.35988,214.59064,71,100,41
214.59064,214.82141,69,100,41
214.82141,215.05219,69,100,41
215.05219,215.28296,68,100,41
215.28296,215.51372,68,100,41
215.51372,215.74449,56,100,41
215.74449,215.97527,56,100,41
215.97527,216.20602,57,100,41
216.20602,216.4368,61,100,41
216.4368,216.66757,64,100,41
216.66757,216.89833,69,100,41
217.1291,217.35988,71,100,41
217.35988,217.59064,71,100,41
217.59064,217.82141,71,100,41
217.82141,218.05219,71,100,41
218.05219,218.28294,71,100,41
218.28294,218.51372,69,100,41
218.51372,218.74449,69,100,41
218.74449,218.97525,68,100,41
218.97525,219.20602,68,100,41
219.20602,219.4368,57,100,41
219.4368,219.66756,57,100,41
219.66756,220.1291,56,100,41
220.59064,220.82141,64,100,41
221.05217,221.28294,64,100,41
221.51372,221.74448,61,100,41
221.97525,222.20602,61,100,41
222.4368,222.78294,62,100,41
222.78294,222.89833,64,100,41
222.89833,223.24448,66,100,41
223.24448,223.35986,62,100,41
223.35986,223.59064,59,100,41
223.82141,224.05217,59,100,41
224.28294,224.51372,57,100,41
224.74448,224.97525,57,100,41
225.20602,225.43678,66,100,41
225.66756,225.89833,66,100,41
226.12909,226.18678,62,100,41
226.18678,226.24448,64,100,41
226.24448,226.30217,62,100,41
226.30217,226.35986,64,100,41
226.35986,226.41756,62,100,41
226.41756,226.47525,64,100,41
226.47525,226.53294,62,100,41
226.53294,226.59064,64,100,41
226.59064,226.64833,62,100,41
226.64833,226.70602,64,100,41
226.70602,226.7637,62,100,41
226.7637,226.8214,64,100,41
226.8214,226.93678,61,100,41
226.93678,227.05217,62,100,41
227.05217,227.5137,61,100,41
228.20601,228.43678,71,100,41
228.43678,228.66756,71,100,41
228.66756,228.89832,71,100,41
228.89832,229.12909,71,100,41
229.12909,229.35986,71,100,41
229.35986,229.59064,69,100,41
229.59064,229.8214,69,100,41
229.8214,230.05217,68,100,41
230.05217,230.28294,68,100,41
230.28294,230.5137,56,100,41
230.5137,230.74448,56,100,41
230.74448,230.97525,57,100,41
230.97525,231.20601,61,100,41
231.20601,231.43678,64,100,41
231.43678,231.66756,69,100,41
231.89832,232.12909,71,100,41
232.12909,232.35986,71,100,41
232.35986,232.59062,71,100,41
232.59062,232.8214,71,100,41
232.8214,233.05217,71,100,41
233.05217,233.28293,69,100,41
233.28293,233.5137,69,100,41
233.5137,233.74448,68,100,41
233.74448,233.97523,68,100,41
233.97523,234.20601,57,100,41
234.20601,234.43678,57,100,41
234.43678,234.89832,56,100,41
235.35985,235.59062,64,100,41
235.8214,236.05215,64,100,41
236.28293,236.5137,61,100,41
236.74446,236.97523,61,100,41
237.20601,237.55215,62,100,41
237.55215,237.66754,64,100,41
237.66754,238.0137,66,100,41
238.0137,238.12909,62,100,41
238.12909,238.35985,59,100,41
238.59062,238.8214,59,100,41
239.05215,239.28293,57,100,41
239.5137,239.74446,57,100,41
239.97523,240.20601,66,100,41
240.43677,240.66754,66,100,41
240.89832,240.95601,62,100,41
240.95601,241.0137,64,100,41
241.0137,241.07138,62,100,41
241.07138,241.12907,64,100,41
241.12907,241.18677,62,100,41
241.18677,241.24446,64,100,41
241.24446,241.30215,62,100,41
241.30215,241.35985,64,100,41
241.35985,241.41754,62,100,41
241.41754,241.47523,64,100,41
241.47523,241.53293,62,100,41
241.53293,241.59062,64,100,41
241.59062,241.70601,61,100,41
241.70601,241.82138,62,100,41
241.82138,242.28293,61,100,41
242.74446,243.206,61,100,41
242.74446,243.206,64,100,41
243.66754,244.12907,62,100,41
243.66754,244.12907,69,100,41
244.59062,245.05215,63,100,41
244.59062,245.05215,66,100,41
245.51369,245.97523,64,100,41
245.51369,245.97523,71,100,41
246.43677,251.23677,52,100,41
251.23677,253.63676,69,100,41
253.63676,254.23677,64,100,41
256.03677,256.63678,64,100,41
257.23676,257.83676,68,100,41
260.83676,266.23676,64,100,41
266.83676,267.43677,64,100,41
271.03677,271.63678,57,100,41
271.63678,272.23676,57,100,41
272.23676,272.83676,57,100,41
273.43677,274.03677,57,100,41
274.03677,274.63678,57,100,41
274.63678,275.23676,57,100,41
275.83676,276.43677,59,100,41
276.43677,277.03677,59,100,41
277.03677,277.63678,59,100,41
278.23676,278.83676,64,100,41
278.83676,279.43677,64,100,41
279.43677,280.03677,64,100,41
280.03677,280.63678,64,100,41
281.23676,281.83676,57,100,41
282.43677,283.03677,59,100,41
284.83676,287.83676,64,100,41
289.63678,292.03677,69,100,41
292.03677,292.63678,64,100,41
294.43677,295.03677,64,100,41
295.63678,296.23676,68,100,41
299.23676,304.63678,64,100,41
305.23676,305.83676,64,100,41
309.43677,310.03677,57,100,41
310.03677,310.63678,57,100,41
310.63678,311.23676,57,100,41
311.83676,312.43677,57,100,41
312.43677,313.03677,57,100,41
313.03677,313.63678,57,100,41
314.23676,314.83676,59,100,41
314.83676,315.43677,59,100,41
315.43677,316.03677,59,100,41
316.63678,317.23676,64,100,41
317.23676,317.83676,64,100,41
317.83676,318.43677,64,100,41
318.43677,319.03677,64,100,41
319.63678,320.23676,57,100,41
320.83676,321.43677,59,100,41
323.23676,326.23676,64,100,41
328.63678,328.93677,64,100,41
329.23676,329.53677,64,100,41
329.83676,330.43677,64,100,41
330.43677,333.43677,64,100,41
333.43677,334.03677,52,100,41
334.03677,334.63678,52,100,41
334.63678,335.23676,52,100,41
335.23676,336.43677,52,100,41
338.23676,338.53677,64,100,41
338.83676,339.13678,64,100,41
339.43677,339.73676,64,100,41
340.03677,344.83676,64,100,41
344.83676,345.43677,64,100,41
347.83676,348.43677,61,100,41
348.43677,349.03677,61,100,41
349.03677,349.63678,61,100,41
350.23676,350.83676,64,100,41
350.83676,351.43677,64,100,41
351.43677,352.03677,64,100,41
352.03677,353.53677,64,100,41
353.53677,353.68677,64,100,41
353.83676,353.98676,64,100,41
354.13678,354.28677,64,100,41
354.43677,355.03677,64,100,41
355.63678,356.23676,64,100,41
356.83676,357.43677,64,100,41
358.03677,358.63678,64,100,41
359.23676,359.83676,62,100,41
361.63678,362.83676,64,100,41
362.83676,364.03677,68,100,41
364.03677,364.63678,69,100,41
367.03677,367.33676,64,100,41
367.63678,367.93677,64,100,41
368.23676,368.83676,64,100,41
368.83676,371.83676,64,100,41
371.83676,372.43677,52,100,41
372.43677,373.03677,52,100,41
373.03677,373.63678,52,100,41
373.63678,374.83676,52,100,41
376.63678,376.93677,64,100,41
377.23676,377.53677,64,100,41
377.83676,378.13678,64,100,41
378.43677,383.23676,64,100,41
383.23676,383.83676,64,100,41
386.23676,386.83676,61,100,41
386.83676,387.43677,61,100,41
387.43677,388.03677,61,100,41
388.63678,389.23676,64,100,41
389.23676,389.83676,64,100,41
389.83676,390.43677,64,100,41
390.43677,391.93677,64,100,41
391.93677,392.08676,64,100,41
392.23676,392.38678,64,100,41
392.53677,392.68677,64,100,41
392.83676,393.43677,64,100,41
394.03677,394.63678,64,100,41
395.23676,395.83676,64,100,41
396.43677,397.03677,64,100,41
397.63678,398.23676,62,100,41
400.03677,401.23676,64,100,41
401.23676,402.43677,68,100,41
402.43677,403.03677,69,100,41
409.63678,410.83676,59,100,41
410.83676,412.03677,56,100,41
412.03677,412.63678,57,100,41
414.43677,416.83676,57,100,41
416.83676,419.23676,59,100,41
419.23676,422.83676,61,100,41
422.83676,424.03677,57,100,41
424.03677,424.63678,63,100,41
426.43677,427.03677,64,100,41
435.23676,435.43677,61,100,41
435.63678,435.83676,61,100,41
436.03677,436.23676,57,100,41
436.43677,437.23676,54,100,41
437.23676,437.53677,59,100,41
437.53677,437.63678,57,100,41
437.63678,437.68677,56,100,41
437.68677,437.73676,57,100,41
437.73676,437.78677,56,100,41
437.78677,437.83676,57,100,41
437.83676,437.88678,56,100,41
437.88678,437.93677,57,100,41
437.93677,437.98676,56,100,41
437.98676,438.03677,57,100,41
438.03677,438.08676,56,100,41
438.08676,438.13678,57,100,41
438.13678,438.18677,56,100,41
438.18677,438.23676,57,100,41
438.23676,438.33676,54,100,41
438.33676,438.43677,56,100,41
438.43677,438.63678,57,100,41
438.83676,439.03677,64,100,41
439.23676,439.43677,66,100,41
439.63678,439.83676,66,100,41
440.03677,441.03677,64,100,41
441.03677,441.13678,69,100,41
441.23676,441.33676,69,100,41
441.43677,441.53677,69,100,41
441.63678,441.83676,69,100,41
441.83676,442.03677,69,100,41
442.03677,442.23676,69,100,41
442.23676,442.43677,69,100,41
442.43677,442.63678,69,100,41
442.63678,442.83676,69,100,41
442.83676,443.03677,69,100,41
443.03677,443.23676,69,100,41
443.23676,443.43677,69,100,41
443.43677,443.63678,69,100,41
443.63678,443.83676,69,100,41
443.83676,444.03677,69,100,41
444.03677,444.23676,69,100,41
444.23676,444.43677,69,100,41
444.43677,444.63678,69,100,41
444.63678,444.83676,69,100,41
444.83676,445.03677,69,100,41
445.03677,445.23676,69,100,41
445.23676,445.43677,69,100,41
445.43677,445.63678,69,100,41
445.63678,445.83676,69,100,41
445.83676,446.03677,69,100,41
446.03677,446.23676,69,100,41
446.23676,446.43677,69,100,41
446.43677,446.63678,69,100,41
446.63678,446.83676,69,100,41
446.83676,447.03677,69,100,41
447.03677,447.23676,69,100,41
447.23676,447.63678,69,100,41
448.03677,448.83676,61,100,41
448.83676,449.63678,66,100,41
449.63678,450.43677,59,100,41
450.43677,451.23676,64,100,41
451.23676,452.03677,57,100,41
452.03677,452.83676,62,100,41
452.83676,453.63678,62,100,41
453.63678,453.83676,61,100,41
453.83676,454.03677,69,100,41
454.03677,454.23676,69,100,41
454.23676,454.43677,69,100,41
454.43677,454.63678,69,100,41
454.63678,454.83676,69,100,41
454.83676,455.03677,69,100,41
455.03677,455.23676,69,100,41
455.23676,455.43677,69,100,41
455.43677,455.63678,69,100,41
455.63678,455.83676,69,100,41
455.83676,456.03677,69,100,41
456.03677,456.23676,69,100,41
456.23676,456.43677,69,100,41
456.43677,456.63678,69,100,41
456.63678,456.83676,69,100,41
456.83676,457.03677,69,100,41
457.03677,457.23676,69,100,41
457.23676,457.43677,69,100,41
457.43677,457.63678,69,100,41
457.63678,457.83676,69,100,41
457.83676,458.03677,69,100,41
458.03677,458.23676,69,100,41
458.23676,458.43677,69,100,41
458.43677,458.63678,69,100,41
458.63678,458.83676,69,100,41
458.83676,459.03677,69,100,41
459.03677,459.23676,69,100,41
459.23676,459.43677,69,100,41
459.43677,459.63678,69,100,41
459.63678,459.83676,69,100,41
459.83676,460.03677,69,100,41
460.03677,460.43677,69,100,41
460.83676,461.63678,61,100,41
461.63678,462.03677,63,100,41
462.43677,463.23676,59,100,41
463.23676,463.63678,61,100,41
464.03677,464.43677,62,100,41
464.83676,465.03677,57,100,41
465.23676,465.43677,64,100,41
465.63678,465.83676,59,100,41
466.03677,466.23676,64,100,41
466.43677,466.63678,64,100,41
466.83676,467.03677,57,100,41
467.03677,467.23676,52,100,41
467.23676,467.43677,56,100,41
467.43677,467.63678,52,100,41
467.63678,467.83676,56,100,41
467.83676,468.03677,52,100,41
468.03677,468.23676,57,100,41
468.23676,468.43677,52,100,41
468.43677,468.63678,57,100,41
468.63678,468.83676,52,100,41
468.83676,469.03677,59,100,41
469.03677,469.23676,52,100,41
469.23676,469.43677,59,100,41
469.43677,469.63678,52,100,41
469.63678,469.83676,57,100,41
469.83676,470.03677,52,100,41
470.03677,470.23676,57,100,41
470.23676,470.43677,52,100,41
470.43677,470.63678,56,100,41
470.63678,470.83676,52,100,41
470.83676,471.03677,56,100,41
471.03677,471.23676,52,100,41
471.23676,471.43677,57,100,41
471.43677,471.63678,52,100,41
471.63678,471.83676,57,100,41
471.83676,472.03677,52,100,41
472.03677,472.23676,59,100,41
472.23676,472.43677,52,100,41
472.43677,472.63678,59,100,41
472.63678,472.83676,52,100,41
472.83676,473.03677,57,100,41
473.03677,473.23676,52,100,41
473.23676,473.43677,57,100,41
473.43677,473.63678,52,100,41
473.63678,474.03677,56,100,41
474.03677,474.23676,59,100,41
474.23676,474.43677,56,100,41
474.43677,474.83676,57,100,41
474.83676,475.03677,61,100,41
475.03677,475.23676,57,100,41
475.23676,475.63678,59,100,41
475.63678,475.83676,62,100,41
475.83676,476.03677,59,100,41
476.03677,476.43677,61,100,41
476.43677,476.63678,64,100,41
476.63678,476.83676,61,100,41
476.83676,477.23676,68,100,41
477.23676,477.43677,71,100,41
477.43677,477.63678,68,100,41
477.63678,478.03677,69,100,41
478.03677,478.23676,61,100,41
478.23676,478.43677,57,100,41
478.43677,478.83676,59,100,41
478.83676,479.03677,62,100,41
479.03677,479.23676,59,100,41
479.23676,479.63678,61,100,41
481.63678,481.93677,59,100,41
481.93677,482.03677,61,100,41
482.03677,482.33676,62,100,41
482.33676,482.43677,64,100,41
482.43677,482.83676,61,100,41
483.23676,484.03677,76,100,41
484.03677,484.43677,69,100,41
484.83676,485.13678,59,100,41
485.13678,485.23676,61,100,41
485.23676,485.53677,62,100,41
485.53677,485.63678,64,100,41
485.63678,486.03677,57,100,41
3.7291667,3.9291666,57,100,42
4.1291666,4.329167,57,100,42
4.5291667,4.7291665,56,100,42
4.929167,5.1291666,56,100,42
5.329167,6.1291666,57,100,42
6.1291666,6.929167,52,100,42
10.129167,10.329166,54,100,42
10.529166,10.729167,54,100,42
10.929167,11.129167,50,100,42
11.329166,11.529166,50,100,42
11.729167,12.529166,52,100,42
12.529166,13.329166,45,100,42
16.529167,16.729166,57,100,42
16.929167,17.129168,57,100,42
17.329166,17.529167,56,100,42
17.729166,17.929167,56,100,42
18.129168,18.929167,57,100,42
18.929167,19.729166,52,100,42
22.929167,23.129168,54,100,42
23.329166,23.529167,54,100,42
23.729166,23.929167,50,100,42
24.129168,24.329166,50,100,42
24.529167,25.329166,52,100,42
25.329166,26.129168,45,100,42
26.129168,26.529167,52,100,42
26.929167,27.329166,57,100,42
27.729166,28.129168,52,100,42
28.529167,28.929167,45,100,42
29.329166,29.729166,52,100,42
30.129168,30.529167,57,100,42
30.929167,31.329166,45,100,42
31.329166,31.729166,49,100,42
31.729166,32.129166,52,100,42
35.729168,35.929165,54,100,42
36.129166,36.329166,54,100,42
36.529167,36.729168,50,100,42
36.929165,37.129166,50,100,42
37.329166,38.129166,52,100,42
38.129166,38.929165,45,100,42
38.929165,39.329166,52,100,42
39.729168,40.129166,57,100,42
40.529167,40.929165,52,100,42
41.329166,41.729168,45,100,42
42.129166,42.529167,52,100,42
42.929165,43.329166,57,100,42
43.729168,44.129166,45,100,42
44.129166,44.529167,49,100,42
44.529167,44.929165,52,100,42
48.529167,48.729168,54,100,42
48.929165,49.129166,54,100,42
49.329166,49.529167,50,100,42
49.729168,49.929165,50,100,42
50.129166,50.929165,52,100,42
50.929165,51.729168,45,100,42
54.929165,55.129166,57,100,42
55.329166,55.529167,57,100,42
55.729168,55.929165,56,100,42
56.129166,56.329166,56,100,42
56.529167,57.329166,57,100,42
57.329166,57.729168,52,100,42
58.129166,58.329166,61,100,42
58.529167,58.729168,61,100,42
58.929165,59.129166,57,100,42
59.329166,59.529167,57,100,42
59.729168,60.029167,59,100,42
60.029167,60.129166,61,100,42
60.129166,60.429165,62,100,42
60.429165,60.529167,59,100,42
60.529167,60.729168,52,100,42
60.929165,61.129166,52,100,42
61.329166,61.529167,54,100,42
61.729168,61.929165,54,100,42
62.129166,62.329166,50,100,42
62.529167,62.729168,50,100,42
62.929165,63.729168,52,100,42
63.729168,64.129166,45,100,42
67.729164,67.92917,57,100,42
68.129166,68.32917,57,100,42
68.52917,68.729164,56,100,42
68.92917,69.129166,56,100,42
69.32917,70.129166,57,100,42
70.129166,70.52917,52,100,42
70.92917,71.129166,61,100,42
71.32917,71.52917,61,100,42
71.729164,71.92917,57,100,42
72.129166,72.32917,57,100,42
72.52917,72.82917,59,100,42
72.82917,72.92917,61,100,42
72.92917,73.229164,62,100,42
73.229164,73.32917,59,100,42
73.32917,73.52917,52,100,42
73.729164,73.92917,52,100,42
74.129166,74.32917,54,100,42
74.52917,74.729164,54,100,42
74.92917,75.129166,50,100,42
75.32917,75.52917,50,100,42
75.729164,76.52917,52,100,42
76.52917,76.92917,45,100,42
77.32917,77.729164,52,100,42
78.129166,78.52917,57,100,42
78.92917,79.32917,52,100,42
79.729164,80.129166,45,100,42
80.52917,80.92917,40,100,42
81.32917,81.729164,45,100,42
86.92917,87.129166,57,100,42
87.32917,87.52917,57,100,42
87.729164,87.92917,50,100,42
88.129166,88.32917,50,100,42
88.52917,89.32917,52,100,42
89.32917,89.729164,45,100,42
90.129166,90.52917,52,100,42
90.92917,91.32917,57,100,42
91.729164,92.129166,52,100,42
92.52917,92.92917,45,100,42
93.32917,93.729164,40,100,42
94.129166,94.52917,45,100,42
99.729164,99.92917,57,100,42
100.129166,100.32917,57,100,42
100.52917,100.729164,50,100,42
100.92917,101.129166,50,100,42
101.32917,102.129166,52,100,42
102.129166,102.52917,45,100,42
102.92917,103.32917,45,100,42
103.729164,104.129166,57,100,42
104.52917,104.92917,52,100,42
105.32917,105.729164,40,100,42
106.129166,106.92917,45,100,42
106.92917,107.729164,52,100,42
107.729164,108.129166,57,100,42
108.129166,108.52917,45,100,42
108.52917,108.92917,52,100,42
109.32917,109.729164,45,100,42
110.129166,110.52917,57,100,42
110.92917,111.32917,64,100,42
111.729164,112.129166,52,100,42
112.52917,113.32917,57,100,42
113.32917,114.129166,50,100,42
114.129166,114.52917,52,100,42
114.52917,114.92917,40,100,42
114.92917,115.32917,45,100,42
115.32917,115.729164,57,100,42
115.729164,116.129166,45,100,42
116.52917,116.92917,57,100,42
117.32917,117.729164,52,100,42
118.129166,118.52917,40,100,42
118.92917,119.729164,45,100,42
119.729164,120.52917,52,100,42
120.52917,120.92917,57,100,42
120.92917,121.32917,45,100,42
121.32917,121.729164,52,100,42
122.129166,122.52917,45,100,42
122.92917,123.32917,57,100,42
123.729164,124.129166,64,100,42
124.52917,124.92917,52,100,42
125.32917,126.129166,57,100,42
126.129166,126.92917,50,100,42
126.92917,127.32917,52,100,42
127.32917,127.729164,40,100,42
127.729164,128.12917,45,100,42
128.12917,128.52916,57,100,42
128.52916,128.92917,40,100,42
129.32916,129.72917,52,100,42
130.12917,130.52916,52,100,42
130.92917,131.32916,64,100,42
131.72917,132.12917,40,100,42
132.52916,132.92917,52,100,42
133.32916,133.72917,40,100,42
134.92917,135.32916,45,100,42
135.72917,136.12917,57,100,42
136.52916,136.92917,52,100,42
137.32916,137.72917,40,100,42
138.12917,138.92917,45,100,42
138.92917,139.72917,38,100,42
139.72917,140.12917,40,100,42
140.12917,140.52916,52,100,42
140.52916,140.92917,45,100,42
140.92917,141.32916,57,100,42
141.32916,141.72917,40,100,42
142.12917,142.52916,52,100,42
142.92917,143.32916,52,100,42
143.72917,144.12917,64,100,42
144.52916,144.92917,40,100,42
145.32916,145.72917,52,100,42
146.12917,146.52916,40,100,42
147.72917,148.12917,45,100,42
148.52916,148.92917,57,100,42
149.32916,149.72917,52,100,42
150.12917,150.52916,40,100,42
150.92917,151.72917,45,100,42
151.72917,152.52916,38,100,42
152.52916,152.92917,40,100,42
152.92917,153.32916,52,100,42
153.32916,153.72917,45,100,42
153.72917,154.12917,57,100,42
154.12917,155.97531,45,100,42
155.97531,157.82147,44,100,42
157.82147,158.05225,45,100,42
158.05225,158.283,45,100,42
158.51378,158.74455,45,100,42
158.74455,158.97531,44,100,42
158.97531,159.0907,44,100,42
159.43686,159.66762,45,100,42
159.66762,159.89839,40,100,42
159.89839,160.12917,40,100,42
160.12917,160.5907,40,100,42
161.51378,163.35992,45,100,42
163.35992,165.20609,44,100,42
165.20609,165.43684,45,100,42
165.43684,165.66762,45,100,42
165.89839,166.12915,45,100,42
166.12915,166.35992,40,100,42
166.35992,166.47531,40,100,42
166.82146,167.05223,40,100,42
167.05223,167.283,45,100,42
167.283,167.39839,45,100,42
167.51376,167.97531,45,100,42
168.89838,171.20607,64,100,42
172.59068,174.89838,52,100,42
176.28299,178.12914,45,100,42
178.12914,179.9753,44,100,42
179.9753,180.20607,45,100,42
180.20607,180.43683,45,100,42
180.6676,180.89838,45,100,42
180.89838,181.12914,40,100,42
181.12914,181.35991,40,100,42
181.59068,181.82144,40,100,42
181.82144,182.05222,45,100,42
182.05222,182.28299,45,100,42
182.28299,182.74452,45,100,42
183.6676,184.12914,57,100,42
184.59067,185.05222,45,100,42
185.51375,185.9753,52,100,42
186.43683,186.89836,40,100,42
187.35991,187.82144,45,100,42
187.82144,188.28297,45,100,42
188.28297,188.74452,44,100,42
188.74452,189.20605,44,100,42
189.20605,189.55222,45,100,42
189.55222,189.66759,47,100,42
189.66759,190.01375,49,100,42
190.01375,190.12914,50,100,42
190.12914,190.59067,52,100,42
191.0522,191.51375,57,100,42
191.97528,192.43681,45,100,42
192.89836,193.3599,52,100,42
193.82144,194.28297,40,100,42
194.7445,195.20605,45,100,42
195.66759,196.12912,50,100,42
196.59067,196.82143,52,100,42
196.82143,197.0522,52,100,42
197.0522,197.28297,40,100,42
197.28297,197.51373,40,100,42
197.51373,197.97528,45,100,42
198.43681,198.89835,57,100,42
199.3599,199.82143,45,100,42
200.28297,200.7445,52,100,42
201.20604,201.66759,40,100,42
202.12912,202.59065,45,100,42
202.59065,203.0522,45,100,42
203.0522,203.51373,44,100,42
203.51373,203.97527,44,100,42
203.97527,204.32143,45,100,42
204.32143,204.43681,47,100,42
204.43681,204.78296,49,100,42
204.78296,204.89835,50,100,42
204.89835,205.35988,52,100,42
205.82143,206.28296,57,100,42
206.74449,207.20604,45,100,42
207.66757,208.12912,52,100,42
208.59065,209.05219,40,100,42
209.51373,209.97527,45,100,42
210.4368,210.89835,50,100,42
211.35988,211.59065,52,100,42
211.59065,211.82141,52,100,42
211.82141,212.05219,40,100,42
212.05219,212.28296,40,100,42
212.28296,212.74449,45,100,42
213.20602,213.4368,40,100,42
213.66757,215.28296,64,100,42
215.51372,215.74449,52,100,42
215.97527,216.20602,57,100,42
216.4368,216.66757,45,100,42
216.66757,216.89833,45,100,42
216.89833,217.1291,40,100,42
217.35988,218.97525,64,100,42
218.97525,219.09064,49,100,42
219.20602,219.32141,45,100,42
219.4368,219.55219,49,100,42
219.66756,219.89833,52,100,42
220.59064,220.82141,61,100,42
221.05217,221.28294,61,100,42
221.51372,221.74448,57,100,42
221.97525,222.20602,57,100,42
222.4368,222.78294,59,100,42
222.78294,222.89833,61,100,42
222.89833,223.24448,62,100,42
223.24448,223.35986,59,100,42
223.35986,223.59064,52,100,42
223.82141,224.05217,52,100,42
224.28294,224.51372,54,100,42
224.74448,224.97525,54,100,42
225.20602,225.43678,50,100,42
225.66756,225.89833,50,100,42
226.12909,226.35986,52,100,42
226.59064,226.8214,40,100,42
227.05217,227.28294,45,100,42
227.97525,228.20601,40,100,42
228.43678,230.05217,64,100,42
230.28294,230.5137,52,100,42
230.74448,230.97525,57,100,42
231.20601,231.43678,45,100,42
231.43678,231.66756,45,100,42
231.66756,231.89832,40,100,42
232.12909,233.74448,64,100,42
233.74448,233.85986,49,100,42
233.97523,234.09062,45,100,42
234.20601,234.3214,49,100,42
234.43678,234.66754,52,100,42
235.35985,235.59062,61,100,42
235.8214,236.05215,61,100,42
236.28293,236.5137,57,100,42
236.74446,236.97523,57,100,42
237.20601,237.55215,59,100,42
237.55215,237.66754,61,100,42
237.66754,238.0137,62,100,42
238.0137,238.12909,59,100,42
238.12909,238.35985,52,100,42
238.59062,238.8214,52,100,42
239.05215,239.28293,54,100,42
239.5137,239.74446,54,100,42
239.97523,240.20601,50,100,42
240.43677,240.66754,50,100,42
240.89832,241.12907,52,100,42
241.35985,241.59062,40,100,42
241.82138,242.05215,45,100,42
242.74446,243.206,49,100,42
243.66754,244.12907,50,100,42
244.59062,245.05215,51,100,42
245.51369,245.97523,52,100,42
246.43677,251.23677,44,100,42
251.23677,253.63676,57,100,42
253.63676,254.23677,61,100,42
256.03677,256.63678,59,100,42
257.23676,257.83676,52,100,42
260.83676,263.23676,61,100,42
263.23676,265.63678,56,100,42
265.63678,266.23676,57,100,42
266.83676,267.43677,52,100,42
270.43677,272.83676,45,100,42
272.83676,275.23676,49,100,42
275.23676,277.63678,47,100,42
277.63678,280.03677,40,100,42
280.03677,280.63678,45,100,42
281.23676,281.83676,49,100,42
282.43677,283.03677,50,100,42
284.83676,287.23676,52,100,42
287.23676,287.83676,45,100,42
289.63678,292.03677,57,100,42
292.03677,292.63678,61,100,42
294.43677,295.03677,59,100,42
295.63678,296.23676,52,100,42
299.23676,301.63678,61,100,42
301.63678,304.03677,56,100,42
304.03677,304.63678,57,100,42
305.23676,305.83676,52,100,42
308.83676,311.23676,45,100,42
311.23676,313.63678,49,100,42
313.63678,316.03677,47,100,42
316.03677,318.43677,40,100,42
318.43677,319.03677,45,100,42
319.63678,320.23676,49,100,42
320.83676,321.43677,50,100,42
323.23676,325.63678,52,100,42
325.63678,326.23676,45,100,42
328.03677,331.63678,40,100,42
331.63678,332.53677,45,100,42
332.53677,332.83676,49,100,42
332.83676,335.23676,52,100,42
335.23676,336.43677,45,100,42
337.63678,341.23676,52,100,42
341.23676,342.13678,57,100,42
342.13678,342.43677,61,100,42
342.43677,344.83676,64,100,42
344.83676,345.43677,52,100,42
347.23676,349.63678,57,100,42
349.63678,352.03677,61,100,42
352.03677,353.53677,59,100,42
353.53677,353.68677,57,100,42
353.83676,353.98676,56,100,42
354.13678,354.28677,54,100,42
354.43677,355.03677,52,100,42
355.63678,356.23676,56,100,42
356.83676,357.43677,57,100,42
358.03677,358.63678,49,100,42
359.23676,359.83676,50,100,42
361.63678,364.03677,52,100,42
364.03677,364.63678,45,100,42
366.43677,370.03677,40,100,42
370.03677,370.93677,45,100,42
370.93677,371.23676,49,100,42
371.23676,373.63678,52,100,42
373.63678,374.83676,45,100,42
376.03677,379.63678,52,100,42
379.63678,380.53677,57,100,42
380.53677,380.83676,61,100,42
380.83676,383.23676,64,100,42
383.23676,383.83676,52,100,42
385.63678,388.03677,57,100,42
388.03677,390.43677,61,100,42
390.43677,391.93677,59,100,42
391.93677,392.08676,57,100,42
392.23676,392.38678,56,100,42
392.53677,392.68677,54,100,42
392.83676,393.43677,52,100,42
394.03677,394.63678,56,100,42
395.23676,395.83676,57,100,42
396.43677,397.03677,49,100,42
397.63678,398.23676,50,100,42
400.03677,402.43677,52,100,42
402.43677,403.03677,45,100,42
414.43677,416.83676,57,100,42
416.83676,419.23676,56,100,42
419.23676,424.03677,54,100,42
424.03677,424.63678,52,100,42
426.43677,427.03677,40,100,42
434.63678,434.83676,40,100,42
434.83676,435.03677,42,100,42
435.03677,435.23676,44,100,42
435.23676,435.43677,45,100,42
435.43677,435.53677,49,100,42
435.63678,435.73676,52,100,42
435.83676,436.03677,49,100,42
436.03677,436.23676,54,100,42
436.23676,436.43677,42,100,42
436.43677,436.63678,44,100,42
436.63678,436.83676,45,100,42
436.83676,437.03677,47,100,42
437.03677,437.13678,49,100,42
437.23676,437.33676,50,100,42
437.43677,437.53677,47,100,42
437.63678,437.73676,52,100,42
437.83676,437.93677,47,100,42
438.03677,438.13678,52,100,42
438.23676,438.33676,50,100,42
438.43677,438.53677,49,100,42
438.63678,438.73676,45,100,42
438.83676,438.93677,47,100,42
439.03677,439.13678,49,100,42
439.23676,439.33676,50,100,42
439.43677,439.53677,47,100,42
439.63678,439.73676,49,100,42
439.83676,439.93677,50,100,42
440.03677,440.13678,52,100,42
440.23676,440.33676,50,100,42
440.43677,440.53677,52,100,42
440.63678,440.73676,40,100,42
440.83676,441.23676,45,100,42
444.03677,444.23676,57,100,42
444.23676,444.43677,61,100,42
444.43677,444.63678,64,100,42
444.63678,444.83676,61,100,42
444.83676,445.23676,57,100,42
447.23676,447.43677,57,100,42
447.43677,447.63678,61,100,42
447.63678,447.83676,64,100,42
447.83676,448.03677,61,100,42
448.03677,448.83676,58,100,42
448.83676,449.63678,59,100,42
449.63678,450.43677,56,100,42
450.43677,451.23676,57,100,42
451.23676,452.03677,53,100,42
452.03677,452.83676,50,100,42
452.83676,453.63678,52,100,42
453.63678,454.03677,45,100,42
456.83676,457.03677,45,100,42
457.03677,457.23676,57,100,42
457.23676,457.43677,61,100,42
457.43677,457.63678,64,100,42
457.63678,458.03677,57,100,42
460.03677,460.23676,57,100,42
460.23676,460.43677,61,100,42
460.43677,460.63678,64,100,42
460.63678,460.83676,61,100,42
460.83676,461.63678,58,100,42
461.63678,462.03677,59,100,42
462.43677,463.23676,56,100,42
463.23676,463.63678,57,100,42
464.03677,464.23676,53,100,42
464.83676,465.03677,50,100,42
465.23676,465.43677,49,100,42
465.63678,465.83676,50,100,42
466.03677,466.23676,52,100,42
466.43677,479.63678,45,100,42
481.63678,482.03677,52,100,42
482.43677,482.83676,57,100,42
484.83676,485.23676,40,100,42
485.63678,486.03677,45,100,42
