start_time,end_time,note_value,velocity,instrument_program_number
12.0,15.490625,70,49,71
14.0,15.990625,75,49,71
15.5,15.990625,75,49,71
16.0,16.490625,75,49,71
16.0,16.490625,75,49,71
16.75,16.990625,77,49,71
16.5,16.990625,79,49,71
17.0,18.490625,77,49,71
20.0,23.490625,70,49,71
22.0,23.990625,77,49,71
23.5,23.990625,77,49,71
24.0,24.490625,77,49,71
24.75,24.990625,79,49,71
24.5,24.990625,80,49,71
25.0,26.490625,79,49,71
29.5,30.0,75,49,71
30.0,30.166666,74,49,71
30.166666,30.332293,75,49,71
28.0,30.490625,80,49,71
30.332293,30.5,77,49,71
31.75,31.990625,72,49,71
31.5,31.990625,74,49,71
30.5,32.490623,75,49,71
32.0,33.490623,70,49,71
34.0,34.490623,77,49,71
33.0,34.490623,79,49,71
34.5,34.990623,75,49,71
35.0,35.490623,74,49,71
35.5,35.990623,72,49,71
38.0,38.125,68,49,71
36.0,38.25,70,49,71
38.125,38.25,70,49,71
38.25,38.375,68,49,71
38.375,38.5,70,49,71
38.5,38.625,68,49,71
38.625,38.75,70,49,71
38.75,38.875,68,49,71
38.875,39.0,70,49,71
39.0,39.125,68,49,71
39.125,39.25,70,49,71
39.25,39.375,68,49,71
39.375,39.490623,70,49,71
39.5,39.625,68,49,71
39.625,39.75,70,49,71
39.75,39.875,67,49,71
39.875,40.0,68,49,71
40.0,40.990623,67,49,71
44.5,44.990623,70,49,71
45.0,45.490623,70,49,71
45.5,45.990623,70,49,71
46.5,46.990623,70,49,71
47.0,47.490623,70,49,71
47.5,48.0,70,49,71
48.5,48.990623,70,49,71
49.0,49.490623,70,49,71
49.5,49.990623,70,49,71
50.5,50.990623,82,49,71
51.0,51.5,82,49,71
51.5,52.0,82,49,71
52.5,52.990623,70,49,71
53.0,53.490623,70,49,71
53.5,53.990623,70,49,71
54.5,54.990623,58,49,71
55.0,55.5,58,49,71
55.5,56.0,58,49,71
56.5,56.990623,70,49,71
57.0,57.490623,70,49,71
57.5,57.990623,70,49,71
58.5,58.990623,82,49,71
59.0,59.490623,82,49,71
59.5,59.990623,82,49,71
60.0,61.990623,77,49,71
62.0,63.990623,76,49,71
63.0,65.99062,75,49,71
66.0,66.99062,74,49,71
68.5,68.69063,74,49,71
69.0,69.19063,74,49,71
69.5,69.69063,74,49,71
70.0,70.49062,77,49,71
70.5,70.99062,75,49,71
71.0,71.49062,74,49,71
71.5,71.99062,72,49,71
72.0,72.99062,77,49,71
78.0,78.24062,82,49,71
78.25,78.49062,81,49,71
78.5,78.74062,79,49,71
78.75,78.99062,77,49,71
79.0,79.24062,77,49,71
76.0,79.24062,84,49,71
79.25,79.49062,75,49,71
79.5,79.74062,74,49,71
79.75,79.99062,75,49,71
80.0,80.75,73,49,71
80.75,80.99062,74,49,71
81.0,81.99062,74,49,71
82.0,82.25,75,49,71
82.25,82.5,74,49,71
82.5,82.75,72,49,71
82.75,83.0,70,49,71
83.0,83.25,69,49,71
83.25,83.5,70,49,71
83.5,83.75,72,49,71
83.75,84.0,74,49,71
84.0,86.0,84,49,71
86.0,86.25,82,49,71
86.25,86.5,81,49,71
86.5,86.75,79,49,71
86.75,87.25,77,49,71
87.25,87.5,75,49,71
87.5,87.75,74,49,71
87.75,88.0,75,49,71
88.0,88.75,73,49,71
88.75,89.0,74,49,71
89.0,90.0,74,49,71
96.0,98.0,82,49,71
98.0,98.25,82,49,71
98.25,98.5,80,49,71
98.5,98.75,79,49,71
98.75,99.0,80,49,71
99.0,99.25,79,49,71
99.25,99.5,80,49,71
99.5,99.75,82,49,71
99.75,100.0,80,49,71
100.0,100.5,79,49,71
100.5,101.0,79,49,71
101.0,101.5,81,49,71
101.5,102.0,82,49,71
102.0,102.5,81,49,71
102.5,103.0,79,49,71
103.0,103.5,77,49,71
103.5,104.0,75,49,71
104.0,107.99062,74,49,71
104.75,108.5,77,49,71
108.5,108.99062,76,49,71
109.0,109.49062,75,49,71
109.5,109.99062,74,49,71
110.0,110.125,72,49,71
110.125,110.25,74,49,71
110.25,110.375,72,49,71
110.375,110.5,74,49,71
110.5,110.625,72,49,71
110.625,110.75,74,49,71
110.75,110.875,72,49,71
110.875,111.0,74,49,71
111.0,111.125,72,49,71
111.125,111.25,74,49,71
111.25,111.375,72,49,71
111.375,111.5,74,49,71
111.5,111.625,72,49,71
111.625,111.75,74,49,71
111.75,111.875,70,49,71
111.875,112.0,72,49,71
112.0,112.99062,70,49,71
114.0,114.49062,77,49,71
114.5,114.74062,74,49,71
115.0,115.5,77,49,71
115.5,115.75,74,49,71
116.0,117.5,77,49,71
117.5,117.75,75,49,71
117.75,118.0,74,49,71
118.0,118.5,72,49,71
118.5,119.0,72,49,71
119.0,119.5,74,49,71
119.5,120.0,75,49,71
120.0,120.75,73,49,71
120.75,121.0,74,49,71
121.0,122.0,74,49,71
122.0,122.5,77,49,71
122.5,122.75,74,49,71
123.0,123.5,77,49,71
123.5,123.75,74,49,71
124.0,125.5,79,49,71
125.5,125.75,81,49,71
125.75,126.0,82,49,71
126.0,126.5,72,49,71
126.5,127.0,72,49,71
127.0,127.5,77,49,71
127.5,128.0,75,49,71
128.0,128.25,77,49,71
128.25,128.5,75,49,71
128.5,128.75,74,49,71
128.75,129.0,75,49,71
129.0,130.0,74,49,71
130.0,130.5,77,49,71
130.5,130.75,74,49,71
131.0,131.5,77,49,71
131.5,131.75,74,49,71
132.0,133.5,77,49,71
133.5,133.75,75,49,71
133.75,134.0,74,49,71
134.0,134.5,72,49,71
134.5,135.0,72,49,71
135.0,135.5,74,49,71
135.5,136.0,75,49,71
136.0,136.75,73,49,71
136.75,138.0,74,49,71
138.0,138.5,77,49,71
138.5,138.75,74,49,71
139.0,139.5,77,49,71
139.5,139.75,74,49,71
140.0,141.5,79,49,71
141.5,141.75,81,49,71
141.75,142.0,82,49,71
142.0,142.5,77,49,71
142.5,143.0,74,49,71
143.0,143.5,75,49,71
143.5,144.0,72,49,71
144.0,146.0,82,36,71
146.0,148.0,80,36,71
148.0,150.0,79,36,71
150.0,152.0,77,36,71
154.0,155.99063,75,36,71
152.0,155.99063,76,36,71
156.0,158.0,74,36,71
158.0,160.0,72,88,71
161.0,161.16667,79,88,71
160.0,161.33229,77,88,71
161.16667,161.33229,77,88,71
161.33229,161.5,76,88,71
161.75,161.99063,79,88,71
162.0,162.99063,70,88,71
161.5,163.24063,77,88,71
163.0,163.25,74,88,71
163.25,164.0,72,88,71
164.0,165.0,70,49,71
166.25,166.5,70,49,71
166.5,166.75,69,49,71
166.75,167.0,70,49,71
167.0,167.25,72,49,71
167.25,167.5,70,49,71
167.5,167.75,69,49,71
167.75,168.0,70,49,71
168.0,168.75,79,49,71
168.75,169.0,77,49,71
169.0,170.33229,77,49,71
170.33229,170.46666,76,49,71
170.66667,170.79897,75,49,71
171.0,171.1323,74,49,71
171.33229,171.46666,75,49,71
171.66667,171.79897,72,49,71
172.0,172.5,69,49,71
172.5,173.0,70,49,71
173.5,174.0,70,49,71
174.25,174.5,70,49,71
174.5,174.75,69,49,71
174.75,175.0,70,49,71
175.0,175.25,72,49,71
175.25,175.5,70,49,71
175.5,175.75,75,49,71
175.75,176.0,74,49,71
176.0,176.75,79,49,71
176.75,177.0,77,49,71
177.0,178.25,77,49,71
178.25,178.5,76,49,71
178.5,178.75,75,49,71
178.75,179.0,74,49,71
179.0,179.25,77,49,71
179.25,179.5,75,49,71
179.5,179.75,72,49,71
179.75,180.0,69,49,71
180.0,180.5,70,49,71
182.0,183.5,75,49,71
183.5,184.0,69,49,71
184.0,184.5,70,49,71
186.0,187.5,79,49,71
187.5,188.0,69,49,71
188.0,188.5,70,49,71
200.0,202.0,70,49,71
202.0,203.5,75,49,71
203.5,204.0,75,49,71
204.0,204.5,75,49,71
204.5,204.75,79,49,71
204.75,205.0,77,49,71
205.0,206.0,77,49,71
208.0,210.0,70,49,71
210.0,211.5,77,49,71
211.5,212.0,77,49,71
212.0,212.5,77,49,71
212.5,212.75,80,49,71
212.75,213.0,79,49,71
213.0,214.0,79,49,71
217.5,218.0,75,49,71
218.0,218.16667,74,49,71
218.16667,218.33229,75,49,71
216.0,218.49063,80,49,71
218.33229,218.5,77,49,71
219.75,219.99063,72,49,71
219.5,219.99063,74,49,71
218.5,220.49063,75,49,71
220.0,221.49063,70,49,71
222.0,222.49063,77,49,71
221.0,222.49063,79,49,71
222.5,222.99063,75,49,71
223.0,223.49063,74,49,71
223.5,223.99063,72,49,71
226.0,226.125,68,49,71
224.0,226.25,70,49,71
226.125,226.25,70,49,71
226.25,226.375,68,49,71
226.375,226.5,70,49,71
226.5,226.625,68,49,71
226.625,226.75,70,49,71
226.75,226.875,68,49,71
226.875,227.0,70,49,71
227.0,227.125,68,49,71
227.125,227.25,70,49,71
227.25,227.375,68,49,71
227.375,227.49063,70,49,71
227.5,227.625,68,49,71
227.625,227.75,70,49,71
227.75,227.875,67,49,71
227.875,228.0,68,49,71
228.0,230.0,70,49,71
230.0,231.5,75,49,71
231.5,232.0,75,49,71
232.0,232.5,75,49,71
232.5,232.75,79,49,71
232.75,233.0,77,49,71
233.0,234.0,77,49,71
236.0,238.0,70,88,71
238.0,239.5,79,88,71
239.5,240.0,79,88,71
240.0,240.75,79,88,71
240.75,241.0,80,88,71
241.0,243.0,80,88,71
243.0,244.0,79,88,71
248.0,250.0,82,88,71
250.0,250.25,80,88,71
250.25,250.5,79,88,71
250.5,250.75,77,88,71
250.75,251.0,75,88,71
251.0,251.25,74,88,71
251.25,251.5,75,88,71
251.5,251.75,77,88,71
251.75,252.0,79,88,71
252.0,252.75,80,88,71
252.75,253.0,77,88,71
253.0,254.0,74,88,71
255.875,256.0,70,88,71
256.0,258.0,82,88,71
258.0,258.24063,80,88,71
258.25,258.5,79,88,71
258.5,258.74063,77,88,71
259.0,259.24063,74,88,71
258.75,259.24063,75,88,71
259.25,259.49063,75,88,71
259.5,259.74063,77,88,71
259.75,259.99063,79,88,71
260.0,260.75,80,88,71
260.75,261.0,77,88,71
261.0,262.0,74,88,71
276.0,278.0,75,88,71
278.0,278.25,75,88,71
278.25,278.5,73,88,71
278.5,278.75,72,88,71
278.75,279.0,73,88,71
279.0,279.25,72,88,71
279.25,279.5,73,88,71
279.5,279.75,75,88,71
279.75,280.0,73,88,71
280.0,280.5,72,88,71
280.5,282.0,84,88,71
282.0,282.25,84,88,71
282.25,282.5,82,88,71
282.5,282.75,81,88,71
282.75,283.0,82,88,71
283.0,283.25,81,88,71
283.25,283.5,82,88,71
283.5,283.75,84,88,71
283.75,284.0,82,88,71
284.0,286.99063,81,88,71
286.0,287.99063,80,88,71
288.25,288.49063,79,88,71
288.5,288.74063,78,88,71
288.75,288.99063,79,88,71
288.0,288.99063,80,88,71
289.0,289.24063,77,49,71
289.25,289.49063,75,49,71
289.75,290.0,75,49,71
289.5,290.25,74,49,71
290.0,290.25,74,49,71
290.25,290.49063,72,49,71
290.5,290.74063,71,49,71
290.75,290.99063,72,49,71
291.0,291.25,70,49,71
291.25,291.49063,68,49,71
291.5,291.74063,67,49,71
291.75,291.99063,68,49,71
292.0,292.74063,67,49,71
292.75,292.99063,70,49,71
293.0,295.0,70,49,71
295.0,296.5,70,49,71
296.5,296.75,72,49,71
296.75,297.0,74,49,71
297.0,297.25,75,49,71
297.25,297.5,77,49,71
297.5,297.75,79,49,71
297.75,298.0,80,49,71
298.0,298.2,82,49,71
298.5,298.7,82,49,71
299.0,299.2,82,49,71
299.5,299.7,82,49,71
300.0,300.49063,82,49,71
300.5,301.0,81,49,71
301.0,301.5,80,49,71
301.5,301.99063,79,49,71
302.0,302.125,77,49,71
302.125,302.25,79,49,71
302.25,302.375,77,49,71
302.375,302.5,79,49,71
302.5,302.625,77,49,71
302.625,302.75,79,49,71
302.75,302.875,77,49,71
302.875,303.0,79,49,71
303.0,303.125,77,49,71
303.125,303.25,79,49,71
303.25,303.375,77,49,71
303.375,303.5,79,49,71
303.5,303.625,77,49,71
303.625,303.75,79,49,71
303.75,303.875,75,49,71
303.875,304.0,77,49,71
304.0,305.0,75,49,71
306.25,306.5,75,49,71
306.5,306.75,74,49,71
306.75,307.0,75,49,71
307.0,307.25,77,49,71
307.25,307.5,75,49,71
307.5,307.75,74,49,71
307.75,308.0,75,49,71
308.0,308.75,84,49,71
308.75,309.0,82,49,71
309.0,310.3323,82,49,71
310.3323,310.46667,81,49,71
310.66666,310.79895,80,49,71
311.0,311.1323,79,49,71
311.3323,311.46667,80,49,71
311.66666,311.79895,77,49,71
312.0,312.5,74,49,71
312.5,313.0,75,49,71
313.5,314.0,75,49,71
314.25,314.5,75,49,71
314.5,314.75,74,49,71
314.75,315.0,75,49,71
315.0,315.25,77,49,71
315.25,315.5,75,49,71
315.5,315.75,80,49,71
315.75,316.0,79,49,71
316.0,316.75,84,49,71
316.75,317.0,82,49,71
317.0,318.25,82,49,71
318.25,318.5,81,49,71
318.5,318.75,80,49,71
318.75,319.0,79,49,71
319.0,319.25,82,49,71
319.25,319.5,80,49,71
319.5,319.75,77,49,71
319.75,320.0,74,49,71
320.0,320.5,75,49,71
322.0,323.5,80,49,71
323.5,324.0,74,49,71
324.0,324.5,75,49,71
326.0,327.5,84,49,71
327.5,328.0,74,49,71
328.0,328.5,75,49,71
330.0,330.5,72,36,71
332.0,332.5,70,36,71
334.0,334.5,68,36,71
336.0,336.5,67,36,71
338.3323,338.46667,77,36,71
338.66666,338.79895,79,36,71
339.0,339.1323,80,36,71
339.3323,339.46667,82,36,71
339.66666,339.79895,84,36,71
340.3323,340.46667,82,36,71
340.66666,340.79895,80,36,71
341.0,341.1323,79,36,71
341.3323,341.46667,77,36,71
341.66666,341.79895,75,36,71
342.3323,342.46667,80,36,71
342.66666,342.79895,79,36,71
343.0,343.1323,77,36,71
343.3323,343.46667,75,36,71
343.66666,343.79895,74,36,71
347.0,347.75,80,36,71
344.0,347.99063,75,36,71
347.75,348.0,74,36,71
348.0,351.0,75,36,71
351.0,351.75,80,36,71
351.75,352.0,74,36,71
352.0,352.5,75,36,71
354.0,354.75,70,49,71
354.75,355.0,72,49,71
355.0,355.75,68,49,71
355.75,356.0,70,49,71
356.0,356.5,67,49,71
358.0,358.75,67,49,71
358.75,359.0,68,49,71
359.0,359.75,65,49,71
359.75,360.0,67,49,71
360.0,360.5,63,36,71
361.75,362.0,63,36,71
362.0,362.5,63,36,71
362.5,363.0,62,36,71
363.0,363.5,60,36,71
363.5,364.0,62,36,71
364.0,364.5,63,36,71
12.5,12.990625,67,49,71
13.0,13.490625,67,49,71
13.5,13.990625,67,49,71
14.5,14.990625,67,49,71
15.0,15.490625,67,49,71
15.5,16.0,67,49,71
16.5,17.0,68,49,71
17.0,17.5,68,49,71
17.5,17.990625,68,49,71
18.0,18.490625,67,49,71
18.5,18.990625,68,49,71
19.0,19.490625,67,49,71
19.5,19.990625,68,49,71
20.5,20.990625,68,49,71
21.0,21.490625,68,49,71
21.5,21.990625,68,49,71
22.5,22.990625,68,49,71
23.0,23.490625,68,49,71
23.5,24.0,68,49,71
24.5,25.0,67,49,71
25.0,25.5,67,49,71
25.5,25.990625,67,49,71
26.0,26.490625,66,49,71
26.5,26.990625,67,49,71
27.0,27.490625,66,49,71
27.5,27.990625,67,49,71
28.5,29.240625,68,49,71
29.0,29.240625,68,49,71
29.5,30.0,68,49,71
30.5,31.0,68,49,71
31.0,31.5,68,49,71
31.5,32.0,68,49,71
32.5,33.0,67,49,71
33.0,33.990623,67,49,71
33.5,33.990623,67,49,71
34.5,34.990623,67,49,71
35.0,35.490623,67,49,71
35.5,35.990623,67,49,71
36.5,37.0,63,49,71
37.0,37.5,63,49,71
37.5,38.0,63,49,71
38.5,39.0,65,49,71
39.0,39.5,65,49,71
39.5,40.0,65,49,71
40.0,40.5,67,49,71
40.5,40.990623,67,49,71
41.0,41.490623,65,49,71
41.5,41.990623,63,49,71
42.0,42.490623,62,49,71
42.5,42.990623,60,49,71
43.0,43.5,58,49,71
43.5,44.0,56,49,71
44.0,44.5,55,49,71
44.5,44.990623,55,49,71
45.0,45.490623,55,49,71
45.5,45.990623,55,49,71
46.5,46.990623,67,49,71
47.0,47.490623,67,49,71
47.5,48.0,67,49,71
48.5,49.0,68,49,71
49.0,49.490623,68,49,71
49.5,49.990623,68,49,71
50.5,51.0,68,49,71
51.0,51.490623,68,49,71
51.5,52.0,68,49,71
52.5,52.990623,62,49,71
53.0,53.490623,62,49,71
53.5,53.990623,62,49,71
54.5,55.0,56,49,71
55.0,55.5,56,49,71
55.5,56.0,56,49,71
56.5,56.990623,55,49,71
57.0,57.490623,55,49,71
57.5,57.990623,55,49,71
58.5,58.990623,67,49,71
59.0,59.490623,67,49,71
59.5,59.990623,67,49,71
60.0,61.990623,74,49,71
62.0,65.99062,72,49,71
66.0,66.99062,70,49,71
72.0,73.99062,77,49,71
74.0,74.24062,75,49,71
74.25,74.49062,74,49,71
74.5,74.74062,72,49,71
74.75,74.99062,70,49,71
75.0,75.24062,69,49,71
75.25,75.49062,70,49,71
75.5,75.74062,72,49,71
75.75,75.99062,74,49,71
76.75,77.0,72,49,71
76.0,77.99062,75,49,71
77.0,78.0,69,49,71
80.0,82.0,77,49,71
84.0,84.75,75,49,71
84.75,85.0,72,49,71
85.0,86.0,69,49,71
106.0,107.0,70,49,71
107.0,108.0,74,49,71
104.0,109.24062,65,49,71
108.0,110.0,77,49,71
110.0,112.0,65,49,71
112.0,113.0,77,49,71
130.0,130.49063,74,49,71
130.5,130.74063,70,49,71
131.0,131.49063,74,49,71
131.5,131.74063,70,49,71
132.0,133.5,74,49,71
133.5,133.75,72,49,71
133.75,134.0,70,49,71
134.0,134.5,69,49,71
134.5,135.0,69,49,71
135.0,135.5,70,49,71
135.5,136.0,72,49,71
136.0,136.75,69,49,71
136.75,138.0,70,49,71
138.0,138.5,74,49,71
138.5,138.75,70,49,71
139.0,139.5,74,49,71
139.5,139.75,70,49,71
140.0,141.5,75,49,71
141.5,141.75,77,49,71
141.75,142.0,79,49,71
142.0,142.5,74,49,71
142.5,143.0,70,49,71
143.0,143.5,72,49,71
143.5,144.0,69,49,71
144.0,158.0,70,36,71
158.0,160.0,69,88,71
160.0,162.0,70,88,71
162.0,163.0,65,88,71
163.0,164.0,69,88,71
164.0,164.5,70,49,71
164.5,165.0,62,49,71
165.0,165.5,62,49,71
165.5,166.0,62,49,71
166.5,167.0,62,49,71
167.0,167.5,62,49,71
167.5,168.0,62,49,71
168.5,169.0,60,49,71
169.0,169.5,60,49,71
169.5,170.0,60,49,71
170.5,171.0,60,49,71
171.0,171.5,60,49,71
171.5,172.0,60,49,71
172.5,173.0,62,49,71
173.0,173.5,62,49,71
173.5,174.0,62,49,71
174.5,175.0,62,49,71
175.0,175.5,62,49,71
175.5,176.0,62,49,71
176.5,177.0,60,49,71
177.0,177.5,60,49,71
177.5,178.0,60,49,71
178.5,179.0,60,49,71
179.0,179.5,60,49,71
179.5,180.0,60,49,71
180.0,180.5,62,49,71
182.0,184.0,63,49,71
184.0,184.5,62,49,71
186.0,188.0,63,49,71
188.0,188.5,62,49,71
194.33229,194.65729,77,49,71
194.66667,194.99063,79,49,71
195.0,195.32396,80,49,71
195.33229,195.65729,82,49,71
195.66667,196.0,84,49,71
196.33229,196.65729,82,49,71
196.66667,197.0,80,49,71
197.0,197.33229,79,49,71
197.33229,197.66667,77,49,71
197.66667,198.0,75,49,71
198.33229,198.65729,80,49,71
198.66667,198.99063,79,49,71
199.0,199.32396,77,49,71
199.33229,199.66667,75,49,71
199.66667,200.0,74,49,71
200.0,200.5,75,49,71
200.5,201.0,63,49,71
201.0,201.5,63,49,71
201.5,202.0,63,49,71
202.5,203.0,63,49,71
203.0,203.5,63,49,71
203.5,204.0,63,49,71
204.25,204.5,53,49,71
204.5,204.75,56,49,71
204.75,205.0,60,49,71
205.0,205.25,65,49,71
205.25,205.5,68,49,71
205.5,205.75,72,49,71
205.75,206.0,68,49,71
206.0,206.25,65,49,71
206.25,206.5,68,49,71
206.5,206.75,60,49,71
206.75,207.0,65,49,71
207.0,207.25,56,49,71
207.25,207.5,60,49,71
207.5,207.75,53,49,71
207.75,208.0,57,49,71
208.0,208.5,58,49,71
208.5,209.0,56,49,71
209.0,209.5,56,49,71
209.5,210.0,56,49,71
210.5,211.0,56,49,71
211.0,211.5,56,49,71
211.5,212.0,56,49,71
212.5,213.49063,55,49,71
213.0,213.49063,55,49,71
213.5,213.99063,55,49,71
214.5,215.0,55,49,71
215.0,215.5,55,49,71
215.5,216.0,55,49,71
216.25,216.49063,56,49,71
216.5,216.74063,60,49,71
216.75,216.99063,63,49,71
217.0,217.24063,68,49,71
217.25,217.49063,72,49,71
217.75,217.99063,72,49,71
218.0,218.25,68,49,71
217.5,218.49063,75,49,71
218.25,218.5,72,49,71
218.5,218.74063,63,49,71
218.75,218.99063,68,49,71
219.0,219.24063,60,49,71
219.25,219.5,63,49,71
219.5,219.75,56,49,71
219.75,220.0,60,49,71
220.0,220.5,55,49,71
220.5,221.0,58,49,71
221.0,221.5,58,49,71
221.5,222.0,58,49,71
222.5,223.0,67,49,71
223.0,223.5,67,49,71
223.5,224.0,67,49,71
224.5,225.0,67,49,71
225.0,225.5,67,49,71
225.5,226.0,67,49,71
226.5,227.0,65,49,71
227.0,227.5,65,49,71
227.5,228.0,65,49,71
228.0,228.5,67,49,71
228.5,229.0,67,49,71
229.0,229.5,67,49,71
229.5,230.0,67,49,71
230.5,231.0,67,49,71
231.0,231.5,67,49,71
231.5,232.0,67,49,71
232.25,232.5,53,49,71
232.5,232.75,56,49,71
232.75,233.0,60,49,71
233.0,233.25,65,49,71
233.25,233.5,68,49,71
233.5,233.75,72,49,71
233.75,234.0,68,49,71
234.0,234.25,65,49,71
234.25,234.5,68,49,71
234.5,234.75,60,49,71
234.75,235.0,65,49,71
235.0,235.25,56,49,71
235.25,235.5,60,49,71
235.5,235.75,53,49,71
235.75,236.0,56,49,71
236.0,236.5,58,88,71
236.5,237.0,70,88,71
237.0,237.5,70,88,71
237.5,238.0,70,88,71
238.5,239.0,70,88,71
239.0,239.5,70,88,71
239.5,240.0,70,88,71
240.0,240.75,70,88,71
240.75,241.0,68,88,71
241.0,242.0,68,88,71
244.0,245.5,78,88,71
245.5,245.75,80,88,71
245.75,246.0,78,88,71
246.0,247.0,77,88,71
247.0,248.0,75,88,71
248.25,248.5,74,88,71
248.5,248.74063,72,88,71
248.75,249.99063,70,88,71
248.0,251.74063,75,88,71
252.0,254.0,77,88,71
254.0,254.24063,75,88,71
254.25,254.49063,74,88,71
254.5,254.74063,72,88,71
254.75,254.99063,70,88,71
255.0,255.24063,70,88,71
255.25,255.49063,68,88,71
255.5,255.74063,67,88,71
255.75,255.99063,68,88,71
256.0,256.75,66,88,71
256.75,257.0,67,88,71
257.0,258.0,67,88,71
260.0,262.0,77,88,71
262.0,262.24063,75,88,71
262.25,262.49063,74,88,71
262.5,262.74063,72,88,71
262.75,262.99063,70,88,71
263.0,263.24063,70,88,71
263.25,263.5,68,88,71
263.5,263.75,67,88,71
263.75,264.0,68,88,71
264.0,264.74063,66,88,71
264.75,264.99063,67,88,71
265.0,265.99063,67,88,71
268.0,269.99063,75,88,71
270.0,270.24063,75,88,71
270.25,270.49063,73,88,71
270.5,270.74063,72,88,71
270.75,270.99063,73,88,71
271.0,271.25,72,88,71
271.25,271.5,73,88,71
271.5,271.75,75,88,71
271.75,272.0,73,88,71
272.0,272.74063,71,88,71
272.75,272.99063,72,88,71
273.0,274.0,72,88,71
274.0,274.24063,72,88,71
274.25,274.49063,70,88,71
274.5,274.74063,69,88,71
274.75,274.99063,70,88,71
275.0,275.25,69,88,71
275.25,275.49063,70,88,71
275.5,275.75,72,88,71
275.75,276.0,70,88,71
276.0,278.0,68,88,71
278.0,280.0,67,88,71
280.0,282.0,72,88,71
282.0,282.25,72,88,71
282.25,282.5,70,88,71
282.5,282.75,69,88,71
282.75,283.0,70,88,71
283.0,283.25,69,88,71
283.25,283.5,70,88,71
283.5,283.75,72,88,71
283.75,284.0,70,88,71
284.0,286.0,69,88,71
286.0,288.0,68,88,71
288.0,289.0,67,88,71
290.0,292.0,63,49,71
292.0,292.74063,63,49,71
292.75,292.99063,67,49,71
293.0,295.0,67,49,71
295.0,296.5,67,49,71
296.5,296.75,68,49,71
296.75,297.0,70,49,71
297.0,297.25,72,49,71
297.25,297.5,74,49,71
297.5,297.75,75,49,71
297.75,298.0,77,49,71
298.0,298.2,79,49,71
298.5,298.7,79,49,71
299.0,299.2,79,49,71
299.5,299.7,79,49,71
300.0,300.49063,79,49,71
300.5,301.0,78,49,71
301.0,301.5,77,49,71
301.5,301.99063,75,49,71
302.0,302.125,74,49,71
302.125,302.25,75,49,71
302.25,302.375,74,49,71
302.375,302.5,75,49,71
302.5,302.625,74,49,71
302.625,302.75,75,49,71
302.75,302.875,74,49,71
302.875,303.0,75,49,71
303.0,303.125,74,49,71
303.125,303.25,75,49,71
303.25,303.375,74,49,71
303.375,303.5,75,49,71
303.5,303.625,74,49,71
303.625,303.75,75,49,71
303.75,303.875,72,49,71
303.875,304.0,74,49,71
304.0,304.5,75,49,71
304.5,305.0,63,49,71
305.0,305.5,63,49,71
305.5,306.0,63,49,71
306.5,307.0,63,49,71
307.0,307.5,63,49,71
307.5,308.0,63,49,71
308.5,309.0,62,49,71
309.0,309.5,62,49,71
309.5,310.0,62,49,71
310.5,311.0,62,49,71
311.0,311.5,62,49,71
311.5,312.0,62,49,71
312.5,313.0,63,49,71
313.0,313.5,63,49,71
313.5,314.0,63,49,71
314.5,315.0,67,49,71
315.0,315.5,67,49,71
315.5,316.0,67,49,71
316.5,317.0,62,49,71
317.0,317.5,62,49,71
317.5,318.0,62,49,71
318.5,319.0,62,49,71
319.0,319.5,62,49,71
319.5,320.0,62,49,71
320.0,320.5,63,49,71
322.0,324.0,68,49,71
324.0,324.5,67,49,71
326.0,328.0,68,49,71
328.0,328.5,67,49,71
330.0,330.5,66,36,71
332.0,332.5,67,36,71
334.0,334.5,65,36,71
336.0,336.5,63,36,71
340.0,344.0,58,36,71
344.0,352.5,63,36,71
354.0,356.0,65,49,71
356.0,356.5,67,49,71
358.0,358.75,58,49,71
358.75,359.0,60,49,71
359.0,359.75,56,49,71
359.75,360.0,58,49,71
360.0,360.5,55,36,71
362.0,364.0,53,36,71
364.0,364.5,58,36,71
12.5,12.990625,63,49,60
13.0,13.490625,63,49,60
13.5,13.990625,63,49,60
14.5,14.990625,63,49,60
15.0,15.490625,63,49,60
15.5,16.0,63,49,60
16.5,16.990625,65,49,60
17.0,17.490625,65,49,60
17.5,17.990625,65,49,60
18.0,18.490625,64,49,60
18.5,18.990625,65,49,60
19.0,19.490625,64,49,60
19.5,19.990625,65,49,60
20.5,20.990625,65,49,60
21.0,21.490625,65,49,60
21.5,21.990625,65,49,60
22.5,22.990625,65,49,60
23.0,23.490625,65,49,60
23.5,23.990625,65,49,60
24.5,24.990625,63,49,60
25.0,25.490625,63,49,60
25.5,25.990625,63,49,60
26.0,26.490625,62,49,60
26.5,26.990625,63,49,60
27.0,27.490625,62,49,60
27.5,27.990625,63,49,60
28.5,28.990625,63,49,60
29.0,29.490625,63,49,60
29.5,29.990625,63,49,60
30.5,30.990625,63,49,60
31.0,31.490625,63,49,60
31.5,31.990625,63,49,60
32.5,32.990623,63,49,60
33.0,33.490623,63,49,60
33.5,33.990623,63,49,60
34.5,34.990623,63,49,60
35.0,35.490623,63,49,60
35.5,35.990623,63,49,60
36.0,39.990623,58,49,60
40.0,40.990623,58,49,60
44.0,45.990623,58,49,60
46.0,47.490623,63,49,60
47.5,47.990623,63,49,60
48.0,48.490623,63,49,60
48.5,48.740623,67,49,60
48.75,48.990623,65,49,60
49.0,49.990623,65,49,60
52.0,53.990623,58,49,60
54.0,55.490623,65,49,60
55.5,55.990623,65,49,60
56.0,56.490623,65,49,60
56.5,56.740623,68,49,60
56.75,56.990623,67,49,60
57.0,57.990623,67,49,60
60.0,62.990623,67,49,60
63.0,63.990623,66,49,60
64.0,66.49062,65,49,60
66.5,66.99062,67,49,60
67.0,67.49062,69,49,60
67.5,67.99062,70,49,60
68.0,69.49062,70,49,60
69.5,70.0,65,49,60
70.0,70.49062,65,49,60
70.5,70.99062,63,49,60
71.0,71.2,62,49,60
71.5,71.7,60,49,60
72.0,72.49062,58,49,60
72.5,72.99062,70,49,60
73.0,73.49062,70,49,60
73.5,73.99062,70,49,60
74.5,74.99062,70,49,60
75.0,75.49062,70,49,60
75.5,75.99062,70,49,60
76.5,76.99062,69,49,60
77.0,77.49062,69,49,60
77.5,77.99062,69,49,60
78.5,79.0,69,49,60
79.0,79.49062,69,49,60
79.5,79.99062,69,49,60
80.5,80.99062,70,49,60
81.0,81.49062,70,49,60
81.5,81.99062,70,49,60
82.5,82.99062,70,49,60
83.0,83.49062,70,49,60
83.5,83.99062,70,49,60
84.5,84.99062,69,49,60
85.0,85.99062,69,49,60
85.5,85.99062,69,49,60
86.5,86.99062,69,49,60
87.0,87.49062,69,49,60
87.5,87.99062,69,49,60
88.0,88.99062,70,49,60
92.0,93.99062,70,49,60
94.0,94.24062,70,49,60
94.25,94.49062,68,49,60
94.5,94.75,67,49,60
94.75,95.0,68,49,60
95.0,95.24062,67,49,60
95.25,95.49062,68,49,60
95.5,95.74062,67,49,60
95.75,95.99062,68,49,60
96.0,96.74062,66,49,60
96.75,96.99062,67,49,60
97.0,97.99062,67,49,60
98.0,98.24062,67,49,60
98.25,98.49062,65,49,60
98.5,98.74062,64,49,60
98.75,98.99062,65,49,60
99.0,99.24062,64,49,60
99.25,99.49062,65,49,60
99.5,99.74062,67,49,60
99.75,99.99062,65,49,60
100.0,100.99062,63,49,60
100.5,100.99062,63,49,60
101.0,101.49062,65,49,60
101.5,101.99062,67,49,60
102.0,102.49062,65,49,60
102.5,102.99062,63,49,60
103.0,103.5,62,49,60
103.5,103.99062,60,49,60
104.0,104.74062,58,49,60
104.75,104.99062,62,49,60
105.0,107.99062,62,49,60
108.0,108.5,65,49,60
108.5,109.0,67,49,60
109.0,109.5,69,49,60
109.5,110.0,70,49,60
110.0,110.125,69,49,60
110.125,110.25,70,49,60
110.25,110.375,69,49,60
110.375,110.5,70,49,60
110.5,110.625,69,49,60
110.625,110.75,70,49,60
110.75,110.875,69,49,60
110.875,111.0,70,49,60
111.0,111.125,69,49,60
111.125,111.25,70,49,60
111.25,111.375,69,49,60
111.375,111.5,70,49,60
111.5,111.625,69,49,60
111.625,111.75,70,49,60
111.75,111.875,67,49,60
111.875,112.0,69,49,60
112.0,112.99062,58,49,60
130.0,130.49063,65,49,60
130.5,130.74063,62,49,60
131.0,131.49063,65,49,60
131.5,131.74063,62,49,60
132.0,133.5,65,49,60
133.5,133.74063,63,49,60
133.75,134.24063,62,49,60
134.0,134.49063,60,49,60
134.5,134.99063,60,49,60
135.0,135.5,62,49,60
135.5,136.0,63,49,60
136.0,136.74063,61,49,60
136.75,136.99063,62,49,60
137.0,137.99063,62,49,60
138.0,138.49063,65,49,60
138.5,138.74063,62,49,60
139.0,139.5,65,49,60
139.5,139.75,62,49,60
140.0,141.49063,67,49,60
141.5,141.74063,69,49,60
141.75,141.99063,70,49,60
142.0,142.49063,65,49,60
142.5,142.99063,62,49,60
143.0,143.49063,63,49,60
143.5,143.99063,60,49,60
144.0,155.99063,58,36,60
156.0,159.99063,65,88,60
160.0,160.99063,65,88,60
161.0,162.0,67,88,60
162.0,163.0,65,88,60
163.0,164.0,65,88,60
164.0,164.49063,65,49,60
164.5,164.99063,65,49,60
165.0,165.49063,65,49,60
165.5,165.99063,65,49,60
166.5,167.0,65,49,60
167.0,167.49063,65,49,60
167.5,167.99063,65,49,60
168.5,168.99063,65,49,60
169.0,169.49063,65,49,60
169.5,170.24063,65,49,60
170.5,170.99063,65,49,60
171.0,171.49063,65,49,60
171.5,171.99063,65,49,60
172.0,172.49063,65,49,60
172.5,172.99063,65,49,60
173.0,173.49063,65,49,60
173.5,173.99063,65,49,60
174.5,175.0,65,49,60
175.0,175.49063,65,49,60
175.5,175.99063,65,49,60
176.5,176.99063,65,49,60
177.0,177.49063,65,49,60
177.5,178.24063,65,49,60
178.5,178.99063,65,49,60
179.0,179.49063,65,49,60
179.5,179.99063,65,49,60
180.0,180.5,65,49,60
182.0,184.0,65,49,60
184.0,184.5,65,49,60
186.0,188.0,65,49,60
188.0,189.99063,70,49,60
191.0,192.99063,68,49,60
193.0,194.99063,67,49,60
195.0,195.99063,65,49,60
197.0,198.99063,63,49,60
199.0,199.99063,62,49,60
196.0,199.99063,65,49,60
200.0,200.5,63,49,60
200.5,201.0,58,49,60
201.0,201.5,58,49,60
201.5,202.0,58,49,60
202.5,203.0,58,49,60
203.0,203.5,58,49,60
203.5,204.0,58,49,60
204.5,205.49063,65,49,60
205.5,206.49063,65,49,60
206.5,207.49063,65,49,60
207.0,207.49063,65,49,60
207.5,207.99063,65,49,60
208.5,209.49063,65,49,60
209.0,209.49063,65,49,60
209.5,209.99063,65,49,60
210.5,211.0,62,49,60
211.0,211.49063,62,49,60
211.5,212.0,62,49,60
212.5,213.0,63,49,60
213.0,213.5,63,49,60
213.5,214.0,63,49,60
214.5,215.0,63,49,60
215.0,215.5,63,49,60
215.5,216.0,63,49,60
216.5,217.0,63,49,60
217.0,217.5,63,49,60
217.5,218.0,63,49,60
218.5,219.0,63,49,60
219.0,219.5,63,49,60
219.5,220.0,63,49,60
220.5,221.0,63,49,60
221.0,221.5,63,49,60
221.5,222.0,63,49,60
222.5,223.0,63,49,60
223.0,223.5,63,49,60
223.5,224.0,63,49,60
224.5,225.0,63,49,60
225.0,225.5,63,49,60
225.5,226.0,63,49,60
226.5,227.0,62,49,60
227.0,227.5,62,49,60
227.5,228.0,62,49,60
228.5,229.0,63,49,60
229.0,229.5,63,49,60
229.5,230.0,63,49,60
230.5,231.0,63,49,60
231.0,231.5,63,49,60
231.5,232.0,63,49,60
232.5,233.0,68,49,60
233.0,233.5,68,49,60
233.5,234.0,68,49,60
234.5,235.0,68,49,60
235.0,235.5,68,49,60
235.5,236.0,68,49,60
236.5,237.0,67,88,60
237.0,237.5,67,88,60
237.5,238.0,67,88,60
238.5,239.0,63,88,60
239.0,239.5,63,88,60
239.5,240.0,63,88,60
240.0,245.99063,63,88,60
246.0,246.99063,65,88,60
247.0,247.99063,66,88,60
248.0,248.5,65,88,60
248.5,248.99063,65,88,60
249.0,249.49063,65,88,60
249.5,250.49063,65,88,60
250.5,251.49063,67,88,60
251.0,251.49063,67,88,60
251.5,251.99063,67,88,60
253.0,253.49063,68,88,60
253.5,253.99063,68,88,60
254.0,254.49063,68,88,60
254.5,255.49063,65,88,60
255.0,255.49063,65,88,60
255.5,255.99063,65,88,60
256.5,256.99063,67,88,60
257.0,257.49063,67,88,60
257.5,257.99063,67,88,60
258.5,258.99063,70,88,60
259.0,259.49063,70,88,60
259.5,259.99063,70,88,60
260.5,260.99063,68,88,60
261.0,261.49063,68,88,60
261.5,261.99063,68,88,60
262.5,262.99063,65,88,60
263.0,263.5,65,88,60
263.5,264.0,65,88,60
264.0,283.99063,63,88,60
284.5,284.99063,63,88,60
285.0,285.49063,63,88,60
285.5,285.99063,63,88,60
286.5,286.99063,65,88,60
287.0,287.49063,65,88,60
287.5,288.0,65,88,60
288.0,288.99063,63,88,60
298.5,298.6906,58,88,60
299.0,299.1906,58,88,60
299.5,299.6906,58,88,60
300.0,300.49063,58,49,60
300.5,300.99063,60,49,60
301.0,301.49063,62,49,60
301.5,301.99063,63,49,60
302.0,302.125,68,49,60
302.125,302.25,70,49,60
302.25,302.375,68,49,60
302.375,302.5,70,49,60
302.5,302.625,68,49,60
302.625,302.75,70,49,60
302.75,302.875,68,49,60
302.875,303.0,70,49,60
303.0,303.125,68,49,60
303.125,303.25,70,49,60
303.25,303.375,68,49,60
303.375,303.5,70,49,60
303.5,303.625,68,49,60
303.625,303.75,70,49,60
303.75,303.875,67,49,60
303.875,304.0,68,49,60
304.0,304.49063,67,49,60
304.5,304.99063,63,49,60
305.0,305.49063,63,49,60
305.5,305.99063,63,49,60
306.5,306.99063,63,49,60
307.0,307.49063,63,49,60
307.5,307.99063,63,49,60
308.5,308.99063,65,49,60
309.0,309.49063,65,49,60
309.5,309.99063,65,49,60
310.5,310.99063,65,49,60
311.0,311.49063,65,49,60
311.5,312.0,65,49,60
312.5,312.99063,63,49,60
313.0,313.49063,63,49,60
313.5,313.99063,63,49,60
314.5,314.99063,63,49,60
315.0,315.49063,63,49,60
315.5,316.0,63,49,60
316.5,316.99063,65,49,60
317.0,317.49063,65,49,60
317.5,317.99063,65,49,60
318.5,318.99063,65,49,60
319.0,319.49063,65,49,60
319.5,320.0,65,49,60
320.0,320.49063,63,49,60
336.0,339.0,67,36,60
339.0,340.0,65,36,60
341.0,342.99063,63,36,60
343.0,343.99063,62,36,60
340.0,343.99063,65,36,60
344.0,347.99063,63,36,60
348.0,351.99063,51,36,60
352.0,352.5,51,36,60
362.0,364.49063,58,36,60
12.5,12.990625,51,49,60
13.0,13.490625,51,49,60
13.5,13.990625,51,49,60
14.5,14.990625,51,49,60
15.0,15.490625,51,49,60
15.5,16.0,51,49,60
16.0,20.0,51,49,60
20.5,20.990625,50,49,60
21.0,21.490625,50,49,60
21.5,21.990625,50,49,60
22.5,22.990625,50,49,60
23.0,23.490625,50,49,60
23.5,23.990625,50,49,60
24.0,28.0,51,49,60
28.5,28.990625,51,49,60
29.0,29.490625,51,49,60
29.5,29.990625,51,49,60
30.5,30.990625,51,49,60
31.0,31.5,51,49,60
31.5,31.990625,51,49,60
32.5,32.990623,51,49,60
33.0,33.490623,51,49,60
33.5,33.990623,51,49,60
34.5,34.990623,51,49,60
35.0,35.490623,51,49,60
35.5,35.990623,51,49,60
36.0,39.990623,46,49,60
40.0,41.990623,51,49,60
42.0,44.0,46,49,60
44.0,44.990623,39,49,60
72.5,72.99062,65,49,60
73.0,73.49062,65,49,60
73.5,73.99062,65,49,60
74.5,74.99062,65,49,60
75.0,75.49062,65,49,60
75.5,75.99062,65,49,60
76.5,76.99062,65,49,60
77.0,77.49062,65,49,60
77.5,77.99062,65,49,60
78.5,79.0,65,49,60
79.0,79.49062,65,49,60
79.5,79.99062,65,49,60
80.5,80.99062,65,49,60
81.0,81.49062,65,49,60
81.5,81.99062,65,49,60
82.5,82.99062,65,49,60
83.0,83.49062,65,49,60
83.5,83.99062,65,49,60
84.5,84.99062,65,49,60
85.0,85.99062,65,49,60
85.5,85.99062,65,49,60
86.5,86.99062,65,49,60
87.0,87.49062,65,49,60
87.5,87.99062,65,49,60
88.0,88.99062,65,49,60
92.0,100.0,46,49,60
100.0,101.49062,51,49,60
108.0,111.99062,65,49,60
112.0,112.99062,58,49,60
130.0,130.49063,62,49,60
130.5,130.74063,58,49,60
131.0,131.5,62,49,60
131.5,131.75,58,49,60
132.0,133.5,62,49,60
133.5,133.74063,60,49,60
133.75,134.24063,58,49,60
134.0,134.49063,57,49,60
134.5,134.99063,57,49,60
135.0,135.5,58,49,60
135.5,136.0,60,49,60
136.0,136.74063,56,49,60
136.75,136.99063,58,49,60
137.0,137.99063,58,49,60
138.0,138.49063,62,49,60
138.5,138.74063,58,49,60
139.0,139.5,62,49,60
139.5,139.75,58,49,60
140.0,141.49063,63,49,60
141.5,141.74063,65,49,60
141.75,141.99063,67,49,60
142.0,142.49063,62,49,60
142.5,142.99063,58,49,60
143.0,143.49063,60,49,60
143.5,143.99063,57,49,60
144.0,155.99063,58,36,60
156.0,159.99063,65,88,60
160.0,160.99063,58,88,60
161.0,161.99063,65,88,60
162.0,162.99063,65,88,60
163.0,164.0,65,88,60
164.0,164.49063,58,49,60
164.5,164.99063,58,49,60
165.0,165.49063,58,49,60
165.5,165.99063,58,49,60
166.5,166.99063,58,49,60
167.0,167.49063,58,49,60
167.5,167.99063,58,49,60
168.5,168.99063,63,49,60
169.0,169.49063,63,49,60
169.5,170.24063,63,49,60
170.5,170.99063,63,49,60
171.0,171.49063,63,49,60
171.5,171.99063,63,49,60
172.0,172.49063,58,49,60
172.5,172.99063,58,49,60
173.0,173.49063,58,49,60
173.5,173.99063,58,49,60
174.5,174.99063,58,49,60
175.0,175.49063,58,49,60
175.5,175.99063,58,49,60
176.5,176.99063,63,49,60
177.0,177.49063,63,49,60
177.5,178.24063,63,49,60
178.5,178.99063,63,49,60
179.0,179.49063,63,49,60
179.5,179.99063,63,49,60
180.0,180.5,58,49,60
182.0,184.0,65,49,60
184.0,184.5,58,49,60
186.0,188.0,65,49,60
188.0,188.03125,58,49,60
200.25,200.49063,51,49,60
200.75,200.99063,58,49,60
200.5,201.24063,55,49,60
201.25,201.49063,67,49,60
201.0,201.49063,63,49,60
201.75,201.99063,67,49,60
201.5,202.24063,70,49,60
202.25,202.49063,67,49,60
202.0,202.49063,63,49,60
202.5,202.75,58,49,60
196.0,202.99063,46,49,60
202.75,203.0,63,49,60
203.0,203.25,55,49,60
203.25,203.5,58,49,60
203.5,203.75,51,49,60
203.75,204.0,55,49,60
204.0,204.5,56,49,60
204.5,205.49063,56,49,60
205.5,206.49063,56,49,60
206.5,207.49063,56,49,60
207.0,207.49063,56,49,60
207.5,208.0,57,49,60
208.0,208.5,58,49,60
208.5,209.49063,58,49,60
209.0,209.49063,58,49,60
209.5,209.99063,58,49,60
210.5,211.49063,46,49,60
211.5,212.0,46,49,60
212.25,212.49063,51,49,60
212.5,212.74063,55,49,60
212.75,212.99063,58,49,60
213.0,213.25,63,49,60
213.25,213.49063,67,49,60
213.5,213.74063,70,49,60
213.75,213.99063,67,49,60
214.0,214.24063,63,49,60
214.25,214.49063,67,49,60
214.5,214.74063,58,49,60
214.75,215.0,63,49,60
215.0,215.25,55,49,60
215.25,215.5,58,49,60
215.5,215.75,51,49,60
215.75,216.0,55,49,60
216.5,216.99063,56,49,60
217.0,217.49063,63,49,60
217.5,217.99063,63,49,60
218.0,218.49063,63,49,60
218.5,218.99063,63,49,60
219.0,219.49063,63,49,60
219.5,219.99063,63,49,60
220.25,220.49063,51,49,60
220.5,220.74063,55,49,60
220.75,220.99063,58,49,60
221.0,221.25,63,49,60
221.25,221.49063,67,49,60
221.5,221.74063,70,49,60
221.75,221.99063,67,49,60
222.0,222.24063,63,49,60
222.25,222.49063,67,49,60
222.5,222.74063,58,49,60
222.75,223.0,63,49,60
223.0,223.25,55,49,60
223.25,223.5,58,49,60
223.5,223.75,51,49,60
223.75,224.0,55,49,60
224.0,224.49063,46,49,60
224.5,224.99063,63,49,60
225.0,225.49063,63,49,60
225.5,225.99063,63,49,60
226.5,227.0,46,49,60
227.0,227.5,46,49,60
227.5,228.0,46,49,60
228.25,228.49063,51,49,60
228.5,228.74063,55,49,60
228.75,228.99063,58,49,60
229.0,229.25,63,49,60
229.25,229.49063,67,49,60
229.5,229.74063,70,49,60
229.75,229.99063,67,49,60
230.0,230.24063,63,49,60
230.25,230.49063,67,49,60
230.5,230.74063,58,49,60
230.75,231.0,63,49,60
231.0,231.25,55,49,60
231.25,231.5,58,49,60
231.5,231.75,51,49,60
231.75,232.0,55,49,60
233.0,233.49063,56,49,60
233.5,234.49063,68,49,60
234.0,234.49063,68,49,60
234.5,234.99063,68,49,60
235.0,235.49063,68,49,60
235.5,235.99063,68,49,60
236.25,236.49063,51,88,60
236.5,236.74063,55,88,60
236.75,236.99063,58,88,60
237.0,237.25,63,88,60
237.25,237.49063,67,88,60
237.5,237.74063,70,88,60
237.75,237.99063,67,88,60
238.0,238.24063,63,88,60
238.25,238.49063,67,88,60
238.5,238.74063,58,88,60
238.75,239.0,63,88,60
239.0,239.25,55,88,60
239.25,239.5,58,88,60
239.5,239.75,51,88,60
239.75,240.0,55,88,60
240.0,241.0,51,88,60
248.5,248.99063,58,88,60
249.0,249.99063,58,88,60
249.5,249.99063,58,88,60
250.5,251.49063,58,88,60
251.0,251.49063,58,88,60
251.5,251.99063,58,88,60
252.5,253.0,58,88,60
253.0,253.49063,58,88,60
253.5,253.99063,58,88,60
254.5,255.49063,46,88,60
255.0,255.49063,46,88,60
255.5,255.99063,46,88,60
256.5,256.99063,58,88,60
257.0,257.49063,58,88,60
257.5,257.99063,58,88,60
258.5,258.99063,58,88,60
259.0,259.49063,58,88,60
259.5,259.99063,58,88,60
260.5,260.99063,58,88,60
261.0,261.49063,58,88,60
261.5,261.99063,58,88,60
262.5,262.99063,46,88,60
263.0,263.5,46,88,60
263.5,264.0,46,88,60
264.0,283.99063,51,88,60
286.0,288.0,46,49,60
288.0,288.99063,51,49,60
292.25,292.49063,58,88,60
292.5,292.74063,63,88,60
292.75,292.99063,67,88,60
293.0,293.24063,70,88,60
293.25,293.5,67,88,60
293.5,293.74063,63,88,60
293.75,293.99063,58,88,60
294.0,294.24063,67,88,60
294.25,294.5,63,88,60
294.5,294.74063,58,88,60
294.75,294.99063,55,88,60
295.0,295.24063,63,88,60
295.25,295.49063,58,88,60
295.5,295.74063,55,88,60
295.75,295.99063,51,88,60
296.0,297.0,46,88,60
302.0,303.99063,46,88,60
304.0,304.49063,51,49,60
304.5,304.99063,58,49,60
305.0,305.49063,58,49,60
305.5,305.99063,58,49,60
306.5,306.99063,58,49,60
307.0,307.49063,58,49,60
307.5,307.99063,58,49,60
308.5,308.99063,58,49,60
309.0,309.49063,58,49,60
309.5,309.99063,58,49,60
310.5,310.99063,58,49,60
311.0,311.49063,58,49,60
311.5,312.0,58,49,60
312.5,312.99063,58,49,60
313.0,313.49063,58,49,60
313.5,313.99063,58,49,60
314.5,314.99063,58,49,60
315.0,315.49063,58,49,60
315.5,316.0,58,49,60
316.5,316.99063,58,49,60
317.0,317.49063,58,49,60
317.5,317.99063,58,49,60
318.5,318.99063,58,49,60
319.0,319.49063,58,49,60
319.5,320.0,58,49,60
320.0,320.49063,58,49,60
340.0,344.0,46,49,60
344.0,347.99063,51,49,60
348.0,352.0,43,49,60
352.0,352.5,39,49,60
362.0,364.0,46,36,60
364.0,364.49063,51,36,60
12.0,16.0,58,49,70
16.0,20.0,60,49,70
20.0,28.0,58,49,70
28.5,29.0,60,49,70
29.0,29.5,60,49,70
29.5,30.0,60,49,70
30.5,31.0,60,49,70
31.0,31.5,60,49,70
31.5,32.0,60,49,70
32.5,33.0,58,49,70
33.0,33.5,58,49,70
33.5,34.0,58,49,70
34.5,35.0,58,49,70
35.0,35.5,58,49,70
35.5,36.0,58,49,70
36.5,37.0,60,49,70
37.0,37.5,60,49,70
37.5,38.0,60,49,70
38.5,39.0,62,49,70
39.0,39.5,62,49,70
39.5,40.0,62,49,70
40.0,40.5,63,49,70
40.5,41.0,63,49,70
41.0,41.5,62,49,70
41.5,42.0,60,49,70
42.0,42.5,58,49,70
42.5,43.0,56,49,70
43.0,43.5,55,49,70
43.5,44.0,53,49,70
44.0,44.5,51,49,70
44.5,44.990623,51,49,70
45.0,45.490623,51,49,70
45.5,45.990623,51,49,70
46.5,47.0,58,49,70
47.0,47.490623,58,49,70
47.5,48.0,58,49,70
48.5,49.0,58,49,70
49.0,49.5,58,49,70
49.5,50.0,58,49,70
50.5,51.0,65,49,70
51.0,51.5,65,49,70
51.5,52.0,65,49,70
52.5,53.0,56,49,70
53.0,53.5,56,49,70
53.5,54.0,56,49,70
54.5,55.0,50,49,70
55.0,55.5,50,49,70
55.5,56.0,50,49,70
56.5,57.0,51,49,70
57.0,57.5,51,49,70
57.5,58.0,51,49,70
58.5,59.0,63,49,70
59.0,59.5,63,49,70
59.5,60.0,63,49,70
60.5,61.0,62,49,70
61.0,61.5,67,49,70
61.5,62.0,59,49,70
62.0,62.5,60,49,70
62.5,63.0,60,49,70
63.0,63.5,66,49,70
63.5,64.0,58,49,70
64.0,64.5,57,49,70
64.5,65.0,60,49,70
65.0,65.5,65,49,70
65.5,66.0,57,49,70
66.0,67.0,58,49,70
68.5,68.7,58,49,70
69.0,69.2,58,49,70
69.5,69.7,58,49,70
70.0,70.5,62,49,70
70.5,71.0,60,49,70
71.0,71.5,58,49,70
71.5,72.0,57,49,70
72.0,72.5,58,49,70
72.5,73.0,62,49,70
73.0,73.5,62,49,70
73.5,74.0,62,49,70
74.5,75.0,62,49,70
75.0,75.5,62,49,70
75.5,76.0,62,49,70
76.5,77.0,63,49,70
77.0,77.5,63,49,70
77.5,78.0,63,49,70
78.5,79.0,60,49,70
79.0,79.5,60,49,70
79.5,80.0,60,49,70
80.5,81.0,58,49,70
81.0,81.5,58,49,70
81.5,82.0,58,49,70
82.5,83.0,62,49,70
83.0,83.5,62,49,70
83.5,84.0,62,49,70
84.5,85.0,63,49,70
85.0,85.5,63,49,70
85.5,86.0,63,49,70
86.5,87.0,60,49,70
87.0,87.5,60,49,70
87.5,88.0,60,49,70
88.0,90.0,58,49,70
90.0,90.25,58,49,70
90.25,90.5,56,49,70
90.5,90.75,55,49,70
90.75,91.0,56,49,70
91.0,91.25,55,49,70
91.25,91.5,56,49,70
91.5,91.75,58,49,70
91.75,92.0,56,49,70
92.0,92.75,54,49,70
92.75,93.0,55,49,70
93.0,94.0,55,49,70
94.0,94.25,55,49,70
94.25,94.5,53,49,70
94.5,94.75,52,49,70
94.75,95.0,53,49,70
95.0,95.25,52,49,70
95.25,95.5,53,49,70
95.5,95.75,55,49,70
95.75,96.0,53,49,70
96.0,98.0,51,49,70
98.0,100.0,50,49,70
100.0,100.99062,51,49,70
104.25,104.5,53,49,70
104.5,104.75,58,49,70
104.75,105.0,62,49,70
105.0,105.25,65,49,70
105.25,105.5,62,49,70
105.5,105.75,58,49,70
105.75,106.0,53,49,70
106.0,106.25,62,49,70
106.25,106.5,58,49,70
106.5,106.75,53,49,70
106.75,107.0,50,49,70
107.0,107.25,58,49,70
107.25,107.5,53,49,70
107.5,107.75,50,49,70
107.75,108.0,46,49,70
108.0,108.5,62,49,70
108.5,109.0,61,49,70
109.0,109.5,60,49,70
109.5,110.0,58,49,70
110.0,110.125,63,49,70
110.125,110.25,65,49,70
110.25,110.375,63,49,70
110.375,110.5,65,49,70
110.5,110.625,63,49,70
110.625,110.75,65,49,70
110.75,110.875,63,49,70
110.875,111.0,65,49,70
111.0,111.125,63,49,70
111.125,111.25,65,49,70
111.25,111.375,63,49,70
111.375,111.5,65,49,70
111.5,111.625,63,49,70
111.625,111.75,65,49,70
111.75,111.875,62,49,70
111.875,112.0,63,49,70
112.0,112.99062,62,49,70
114.0,114.49062,62,49,70
114.5,114.74062,58,49,70
115.0,115.5,62,49,70
115.5,115.75,58,49,70
116.0,117.5,62,49,70
117.5,117.75,60,49,70
117.75,118.0,58,49,70
118.0,118.5,57,49,70
118.5,119.0,57,49,70
119.0,119.5,58,49,70
119.5,120.0,60,49,70
120.0,120.75,57,49,70
120.75,121.0,58,49,70
121.0,122.0,58,49,70
122.0,122.5,62,49,70
122.5,122.75,58,49,70
123.0,123.5,62,49,70
123.5,123.75,58,49,70
124.0,125.5,63,49,70
125.5,125.75,65,49,70
125.75,126.0,67,49,70
126.0,126.5,57,49,70
126.5,127.0,57,49,70
127.0,127.5,62,49,70
127.5,128.0,60,49,70
128.0,128.25,62,49,70
128.5,128.74063,58,49,70
128.25,128.99063,60,49,70
128.75,128.99063,60,49,70
129.0,129.99063,58,49,70
132.0,132.99063,58,49,70
133.0,133.99063,58,49,70
134.0,134.99063,53,49,70
135.0,136.0,53,49,70
136.0,137.99063,46,49,70
140.0,140.99063,51,49,70
141.0,141.99063,51,49,70
142.0,142.99063,53,49,70
143.0,143.99063,41,49,70
144.0,145.0,46,49,70
154.0,155.99063,63,88,70
156.0,158.0,62,88,70
158.0,160.0,60,88,70
160.0,162.99063,58,88,70
163.0,163.25,65,88,70
163.25,163.99063,63,88,70
162.0,164.0,62,88,70
164.0,164.5,62,49,70
164.5,165.0,58,49,70
165.0,165.5,58,49,70
165.5,166.0,58,49,70
166.5,167.0,58,49,70
167.0,167.5,58,49,70
167.5,168.0,58,49,70
168.5,169.0,57,49,70
169.0,169.5,57,49,70
169.5,170.0,57,49,70
170.5,171.0,57,49,70
171.0,171.5,57,49,70
171.5,172.0,57,49,70
172.5,173.0,58,49,70
173.0,173.5,58,49,70
173.5,174.0,58,49,70
174.5,175.5,58,49,70
175.5,176.0,58,49,70
176.5,177.0,57,49,70
177.0,177.5,57,49,70
177.5,178.0,57,49,70
178.5,179.0,57,49,70
179.0,179.5,57,49,70
179.5,180.0,57,49,70
180.0,180.5,58,49,70
182.0,184.0,60,49,70
184.0,184.5,58,49,70
186.0,188.0,60,49,70
188.0,188.5,58,49,70
190.0,192.0,63,49,70
192.0,194.0,62,49,70
194.0,196.0,60,49,70
196.0,198.0,58,49,70
198.0,200.0,56,49,70
200.0,200.5,55,49,70
200.5,201.0,55,49,70
201.0,201.5,55,49,70
201.5,202.0,55,49,70
202.5,203.0,55,49,70
203.0,203.5,55,49,70
203.5,204.0,55,49,70
204.5,205.0,60,49,70
205.0,205.5,60,49,70
205.5,206.0,60,49,70
206.5,207.0,60,49,70
207.0,207.5,60,49,70
207.5,208.0,60,49,70
208.25,208.5,46,49,70
208.5,208.75,50,49,70
208.75,209.0,53,49,70
209.0,209.25,58,49,70
209.25,209.5,62,49,70
209.5,209.75,65,49,70
209.75,210.0,62,49,70
210.0,210.25,58,49,70
210.25,210.5,62,49,70
210.5,210.75,53,49,70
210.75,211.0,58,49,70
211.0,211.25,50,49,70
211.25,211.5,53,49,70
211.5,211.75,46,49,70
211.75,212.0,50,49,70
212.0,212.5,51,49,70
212.5,213.0,58,49,70
213.0,213.5,58,49,70
213.5,214.0,58,49,70
214.5,215.0,58,49,70
215.0,215.5,58,49,70
215.5,216.0,58,49,70
216.5,217.0,60,49,70
217.0,217.5,60,49,70
217.5,218.0,60,49,70
218.5,219.0,60,49,70
219.0,219.5,60,49,70
219.5,220.0,60,49,70
220.5,221.0,55,49,70
221.0,221.5,55,49,70
221.5,222.0,55,49,70
222.5,223.0,58,49,70
223.0,223.5,58,49,70
223.5,224.0,58,49,70
224.25,224.49063,46,49,70
224.5,224.74063,51,49,70
224.75,224.99063,55,49,70
225.0,225.25,58,49,70
225.25,225.5,63,49,70
225.5,225.74063,68,49,70
225.75,226.0,63,49,70
226.0,226.25,62,49,70
226.25,226.5,65,49,70
226.5,226.75,58,49,70
226.75,227.0,62,49,70
227.0,227.25,53,49,70
227.25,227.5,58,49,70
227.5,227.75,50,49,70
227.75,228.0,53,49,70
228.0,228.5,51,49,70
228.5,229.0,58,49,70
229.0,229.5,58,49,70
229.5,230.0,58,49,70
230.5,231.0,58,49,70
231.0,231.5,58,49,70
231.5,232.0,58,49,70
232.5,233.0,65,49,70
233.0,233.5,65,49,70
233.5,234.0,65,49,70
234.5,235.0,65,49,70
235.0,235.5,65,49,70
235.5,236.0,65,49,70
236.5,237.0,63,88,70
237.0,237.5,63,88,70
237.5,238.0,63,88,70
238.5,239.0,67,88,70
239.0,239.5,67,88,70
239.5,240.0,67,88,70
240.0,242.0,60,88,70
242.0,244.0,58,88,70
244.0,248.0,57,88,70
248.0,248.5,58,88,70
248.5,249.0,62,88,70
249.0,249.5,62,88,70
249.5,250.0,62,88,70
250.5,251.0,63,88,70
251.0,251.5,63,88,70
251.5,252.0,63,88,70
252.5,253.0,62,88,70
253.0,253.5,62,88,70
253.5,254.0,62,88,70
254.5,255.0,62,88,70
255.0,255.5,62,88,70
255.5,256.0,62,88,70
256.5,256.99063,64,88,70
257.0,257.5,63,88,70
257.5,257.99063,63,88,70
258.5,259.0,63,88,70
259.0,259.5,63,88,70
259.5,260.0,63,88,70
260.5,260.99063,63,88,70
261.0,261.5,62,88,70
261.5,261.99063,62,88,70
262.5,263.0,62,88,70
263.0,263.5,62,88,70
263.5,264.0,62,88,70
264.0,265.0,63,88,70
272.0,274.0,63,88,70
274.0,274.25,63,88,70
274.25,274.5,61,88,70
274.5,274.75,60,88,70
274.75,275.0,61,88,70
275.0,275.25,60,88,70
275.25,275.5,61,88,70
275.5,275.75,63,88,70
275.75,276.0,61,88,70
276.0,276.75,59,88,70
276.75,277.0,60,88,70
277.0,278.0,60,88,70
278.0,278.25,60,88,70
278.25,278.5,58,88,70
278.5,278.75,57,88,70
278.75,279.0,58,88,70
279.0,279.25,57,88,70
279.25,279.5,58,88,70
279.5,279.75,60,88,70
279.75,280.0,58,88,70
280.0,282.0,56,88,70
282.0,282.25,56,88,70
282.25,282.5,54,88,70
282.5,282.75,53,88,70
282.75,283.0,54,88,70
283.0,283.25,53,88,70
283.25,283.5,54,88,70
283.5,283.75,56,88,70
283.75,284.0,54,88,70
284.0,284.5,53,88,70
284.5,285.0,60,88,70
285.0,285.5,60,88,70
285.5,286.0,60,88,70
286.5,287.0,60,88,70
287.0,287.5,60,88,70
287.5,288.0,60,88,70
288.0,289.0,58,88,70
289.0,290.0,55,49,70
290.0,291.0,56,49,70
291.0,292.0,60,49,70
292.0,294.0,58,88,70
294.0,295.0,55,88,70
295.0,296.0,51,88,70
296.0,297.0,46,88,70
300.5,300.7,58,49,70
301.0,301.2,58,49,70
301.5,301.7,58,49,70
302.0,304.0,58,49,70
304.0,304.5,58,49,70
304.5,305.0,55,49,70
305.0,305.5,55,49,70
305.5,306.0,55,49,70
306.5,307.0,55,49,70
307.0,307.5,55,49,70
307.5,308.0,55,49,70
308.5,309.0,56,49,70
309.0,309.5,56,49,70
309.5,310.0,56,49,70
310.5,311.0,56,49,70
311.0,311.5,56,49,70
311.5,312.0,56,49,70
312.5,313.0,55,49,70
313.0,313.5,55,49,70
313.5,314.0,55,49,70
314.5,315.0,55,49,70
315.0,315.5,55,49,70
315.5,316.0,55,49,70
316.5,317.0,56,49,70
317.0,317.5,56,49,70
317.5,318.0,56,49,70
318.5,319.0,56,49,70
319.0,319.5,56,49,70
319.5,320.0,56,49,70
320.0,320.49063,55,49,70
322.0,324.0,65,49,70
324.0,324.5,63,49,70
326.0,327.99063,65,49,70
328.0,328.5,63,49,70
330.0,330.5,63,36,70
332.0,332.5,63,36,70
334.0,334.5,62,36,70
336.0,336.5,63,36,70
338.0,340.0,60,36,70
340.0,342.0,58,36,70
342.0,344.0,56,36,70
344.3323,344.66666,55,36,70
344.66666,345.0,56,36,70
345.0,345.3323,58,36,70
345.3323,345.66666,60,36,70
345.66666,346.0,61,36,70
346.3323,346.66666,60,36,70
346.66666,347.0,59,36,70
347.0,347.3323,60,36,70
347.3323,347.66666,58,36,70
347.66666,348.0,56,36,70
348.3323,348.66666,55,36,70
348.66666,349.0,56,36,70
349.0,349.3323,58,36,70
349.3323,349.66666,60,36,70
349.66666,350.0,61,36,70
350.3323,350.66666,60,36,70
350.66666,351.0,59,36,70
351.0,351.3323,60,36,70
351.3323,351.66666,58,36,70
351.66666,352.0,56,36,70
352.0,352.5,55,36,70
354.0,356.0,62,49,70
356.0,356.5,63,49,70
358.0,360.0,62,49,70
360.0,360.5,63,36,70
362.0,362.75,58,36,70
362.75,363.0,60,36,70
363.0,363.75,56,36,70
363.75,364.0,58,36,70
364.0,364.5,55,36,70
12.0,13.0,51,49,70
14.0,15.0,51,49,70
16.0,18.990625,51,49,70
18.0,18.990625,51,49,70
20.0,22.990625,50,49,70
22.0,22.990625,50,49,70
24.0,26.990625,51,49,70
26.0,26.990625,51,49,70
28.0,30.990625,51,49,70
30.0,30.990625,51,49,70
32.0,34.990623,51,49,70
34.0,34.990623,51,49,70
36.0,37.0,53,49,70
38.0,39.0,46,49,70
40.0,41.0,39,49,70
44.0,46.990623,51,49,70
46.0,46.990623,51,49,70
48.0,50.990623,50,49,70
50.0,50.990623,50,49,70
52.0,54.990623,46,49,70
54.0,54.990623,46,49,70
56.0,58.990623,51,49,70
58.0,58.990623,51,49,70
60.0,62.0,47,49,70
62.0,63.0,48,49,70
63.0,64.0,46,49,70
64.0,66.0,45,49,70
66.0,67.0,46,49,70
68.0,70.0,53,49,70
70.0,72.0,41,49,70
72.0,73.0,46,49,70
74.0,75.0,58,49,70
76.0,77.0,60,49,70
78.0,79.0,53,49,70
80.0,81.0,46,49,70
82.0,83.0,58,49,70
84.0,85.0,60,49,70
86.0,87.0,53,49,70
88.0,88.5,46,49,70
89.0,89.5,58,49,70
90.0,90.5,46,49,70
91.0,91.5,58,49,70
92.0,92.5,46,49,70
93.0,93.5,58,49,70
94.0,94.5,46,49,70
95.0,95.5,58,49,70
96.0,96.5,46,49,70
97.0,97.5,58,49,70
98.0,98.5,46,49,70
99.0,99.5,58,49,70
100.0,101.0,51,49,70
104.0,106.0,53,49,70
106.0,107.0,50,49,70
107.0,108.0,46,49,70
108.0,109.0,41,49,70
112.0,113.0,46,49,70
116.0,118.0,58,49,70
118.0,120.0,53,49,70
120.0,122.0,46,49,70
124.0,126.0,51,49,70
126.0,128.0,53,49,70
128.0,130.0,46,49,70
132.0,133.0,58,49,70
133.0,134.0,58,49,70
134.0,135.0,53,49,70
135.0,136.0,53,49,70
136.0,138.0,46,49,70
140.0,141.0,51,49,70
141.0,142.0,51,49,70
142.0,143.0,53,49,70
143.0,144.0,41,49,70
144.0,145.0,46,49,70
148.0,149.99063,58,49,70
150.0,152.0,56,49,70
152.0,154.0,55,49,70
154.0,156.0,54,49,70
156.0,158.0,53,49,70
158.0,160.0,51,88,70
160.0,161.0,50,88,70
161.0,162.0,51,88,70
162.0,163.0,53,88,70
163.0,164.0,41,88,70
164.0,165.0,46,49,70
166.0,167.0,58,49,70
168.0,169.0,53,88,70
170.0,171.0,41,49,70
172.0,173.0,46,49,70
174.0,175.0,58,49,70
176.0,177.0,53,88,70
178.0,179.0,41,49,70
180.0,180.5,46,49,70
182.0,184.0,53,49,70
184.0,184.5,58,49,70
186.0,188.0,53,49,70
188.0,188.5,46,49,70
190.0,192.0,60,49,70
192.0,194.0,58,49,70
194.0,196.0,56,49,70
196.0,198.0,55,49,70
198.0,200.0,53,49,70
200.0,201.0,51,49,70
202.0,203.0,51,49,70
204.0,204.99063,51,49,70
206.0,207.0,51,49,70
208.0,209.0,50,49,70
210.0,211.0,46,49,70
212.0,213.0,51,49,70
214.0,215.0,51,49,70
216.0,217.0,51,49,70
218.0,219.0,51,49,70
220.0,221.0,51,49,70
222.0,223.0,51,49,70
224.0,225.0,46,49,70
226.0,227.0,46,49,70
228.0,229.0,51,49,70
230.0,231.0,51,49,70
232.0,233.0,51,49,70
234.0,235.0,51,49,70
236.0,237.0,49,88,70
238.0,239.0,49,88,70
240.0,241.0,48,88,70
250.0,251.0,55,88,70
252.0,253.0,53,88,70
254.0,255.0,46,88,70
256.0,257.0,51,88,70
258.0,259.0,55,88,70
260.0,261.0,53,88,70
262.0,263.0,46,88,70
264.0,266.0,63,88,70
266.0,266.25,63,88,70
266.25,266.5,61,88,70
266.5,266.75,60,88,70
266.75,267.0,61,88,70
267.0,267.25,60,88,70
267.25,267.5,61,88,70
267.5,267.75,63,88,70
267.75,268.0,61,88,70
268.0,268.75,59,88,70
268.75,269.0,60,88,70
269.0,270.0,60,88,70
270.0,270.25,60,88,70
270.25,270.5,58,88,70
270.5,270.75,57,88,70
270.75,271.0,58,88,70
271.0,271.25,57,88,70
271.25,271.5,58,88,70
271.5,271.75,60,88,70
271.75,272.0,58,88,70
272.0,274.0,56,88,70
274.0,276.0,55,88,70
276.0,278.0,56,88,70
278.0,280.0,51,88,70
280.0,282.0,44,88,70
282.0,282.25,44,88,70
282.25,282.5,42,88,70
282.5,282.75,41,88,70
282.75,283.0,42,88,70
283.0,283.25,41,88,70
283.25,283.5,42,88,70
283.5,283.75,44,88,70
283.75,284.0,42,88,70
284.0,286.0,41,88,70
286.0,288.0,46,88,70
288.0,289.0,51,88,70
293.0,294.0,46,88,70
294.0,295.0,43,88,70
295.0,296.0,39,88,70
296.0,297.0,34,88,70
302.0,304.0,46,88,70
304.0,305.0,51,49,70
306.0,307.0,51,49,70
308.0,309.0,46,88,70
310.0,311.0,46,49,70
312.0,313.0,51,49,70
314.0,315.0,51,49,70
316.0,317.0,46,88,70
318.0,319.0,46,49,70
320.0,320.5,51,49,70
322.0,324.0,58,49,70
324.0,324.49063,51,49,70
326.0,327.99063,58,49,70
328.0,328.5,60,49,70
330.0,330.5,57,36,70
332.0,332.5,58,36,70
334.0,334.5,59,36,70
336.0,336.5,60,36,70
338.0,340.0,56,36,70
340.0,342.0,55,36,70
342.0,344.0,53,36,70
344.3323,344.66666,51,36,70
344.66666,345.0,53,36,70
345.0,345.3323,55,36,70
345.3323,345.66666,56,36,70
345.66666,346.0,58,36,70
346.3323,346.66666,56,36,70
346.66666,347.0,55,36,70
347.0,347.3323,56,36,70
347.3323,347.66666,55,36,70
347.66666,348.0,53,36,70
348.3323,348.66666,51,36,70
348.66666,349.0,53,36,70
349.0,349.3323,55,36,70
349.3323,349.66666,56,36,70
349.66666,350.0,58,36,70
350.3323,350.66666,56,36,70
350.66666,351.0,55,36,70
351.0,351.3323,56,36,70
351.3323,351.66666,55,36,70
351.66666,352.0,53,36,70
352.0,352.5,51,36,70
354.0,356.0,58,49,70
356.0,356.5,63,49,70
358.0,360.0,46,49,70
360.0,360.5,51,36,70
362.0,364.0,46,36,70
364.0,364.5,39,36,70
